0, 0, Header, 1, 8, 120
1, 0, Start_track
1, 0, Time_signature, 3, 2, 24, 8
1, 0, Key_signature, 0, "major"
1, 0, Tempo, 375000
1, 0, Marker_t, "Allegro Spritoso"
1, 0, End_track
2, 0, Start_track
2, 0, MIDI_port, 0
2, 0, Title_t, "Oboe"
2, 0, Program_c, 0, 68
2, 0, Control_c, 0, 7, 120
2, 0, Control_c, 0, 10, 63
2, 0, Note_on_c, 0, 72, 110
2, 120, Note_on_c, 0, 72, 0
2, 120, Note_on_c, 0, 67, 110
2, 240, Note_on_c, 0, 67, 0
2, 360, Note_on_c, 0, 64, 110
2, 480, Note_on_c, 0, 64, 0
2, 480, Note_on_c, 0, 60, 110
2, 600, Note_on_c, 0, 60, 0
2, 2160, Note_on_c, 0, 72, 110
2, 2280, Note_on_c, 0, 72, 0
2, 2280, Note_on_c, 0, 67, 110
2, 2400, Note_on_c, 0, 67, 0
2, 2520, Note_on_c, 0, 64, 110
2, 2640, Note_on_c, 0, 64, 0
2, 2640, Note_on_c, 0, 60, 110
2, 2760, Note_on_c, 0, 60, 0
2, 4320, Note_on_c, 0, 72, 110
2, 4440, Note_on_c, 0, 72, 0
2, 4440, Note_on_c, 0, 72, 110
2, 4500, Note_on_c, 0, 72, 0
2, 4500, Note_on_c, 0, 76, 110
2, 4560, Note_on_c, 0, 76, 0
2, 4560, Note_on_c, 0, 79, 110
2, 4620, Note_on_c, 0, 79, 0
2, 4620, Note_on_c, 0, 84, 110
2, 4680, Note_on_c, 0, 84, 0
2, 4680, Note_on_c, 0, 84, 110
2, 4740, Note_on_c, 0, 84, 0
2, 4740, Note_on_c, 0, 74, 110
2, 4800, Note_on_c, 0, 74, 0
2, 4800, Note_on_c, 0, 74, 110
2, 4980, Note_on_c, 0, 74, 0
2, 4980, Note_on_c, 0, 76, 110
2, 5040, Note_on_c, 0, 76, 0
2, 5040, Note_on_c, 0, 76, 110
2, 5100, Note_on_c, 0, 76, 0
2, 5100, Note_on_c, 0, 77, 110
2, 5160, Note_on_c, 0, 77, 0
2, 5160, Note_on_c, 0, 77, 110
2, 5340, Note_on_c, 0, 77, 0
2, 5340, Note_on_c, 0, 79, 110
2, 5400, Note_on_c, 0, 79, 0
2, 5400, Note_on_c, 0, 81, 110
2, 5520, Note_on_c, 0, 81, 0
2, 5520, Note_on_c, 0, 79, 110
2, 5700, Note_on_c, 0, 79, 0
2, 5700, Note_on_c, 0, 77, 110
2, 5760, Note_on_c, 0, 77, 0
2, 5760, Note_on_c, 0, 76, 110
2, 5850, Note_on_c, 0, 76, 110
2, 5850, Note_on_c, 0, 79, 110
2, 5880, Note_on_c, 0, 79, 0
2, 5880, Note_on_c, 0, 76, 0
2, 5880, Note_on_c, 0, 76, 0
2, 5880, Note_on_c, 0, 74, 110
2, 5880, Note_on_c, 0, 77, 110
2, 5970, Note_on_c, 0, 72, 110
2, 5970, Note_on_c, 0, 76, 110
2, 6000, Note_on_c, 0, 76, 0
2, 6000, Note_on_c, 0, 74, 0
2, 6000, Note_on_c, 0, 77, 0
2, 6000, Note_on_c, 0, 72, 0
2, 6000, Note_on_c, 0, 74, 110
2, 6000, Note_on_c, 0, 71, 110
2, 6120, Note_on_c, 0, 71, 0
2, 6120, Note_on_c, 0, 74, 0
2, 6120, Note_on_c, 0, 72, 110
2, 6120, Note_on_c, 0, 79, 110
2, 6240, Note_on_c, 0, 79, 0
2, 6240, Note_on_c, 0, 84, 110
2, 6420, Note_on_c, 0, 84, 0
2, 6420, Note_on_c, 0, 76, 110
2, 6480, Note_on_c, 0, 76, 0
2, 6480, Note_on_c, 0, 72, 0
2, 6480, Note_on_c, 0, 77, 110
2, 6480, Note_on_c, 0, 81, 110
2, 6600, Note_on_c, 0, 81, 0
2, 6600, Note_on_c, 0, 77, 0
2, 6600, Note_on_c, 0, 76, 110
2, 6600, Note_on_c, 0, 79, 110
2, 6720, Note_on_c, 0, 79, 0
2, 6720, Note_on_c, 0, 76, 0
2, 6720, Note_on_c, 0, 71, 110
2, 6720, Note_on_c, 0, 74, 110
2, 6840, Note_on_c, 0, 74, 0
2, 6840, Note_on_c, 0, 71, 0
2, 6840, Note_on_c, 0, 72, 110
2, 6840, Note_on_c, 0, 76, 110
2, 7320, Note_on_c, 0, 76, 0
2, 7320, Note_on_c, 0, 72, 0
2, 7560, Note_on_c, 0, 71, 110
2, 7560, Note_on_c, 0, 77, 110
2, 8040, Note_on_c, 0, 77, 0
2, 8040, Note_on_c, 0, 71, 0
2, 8280, Note_on_c, 0, 72, 110
2, 8280, Note_on_c, 0, 76, 110
2, 8640, Note_on_c, 0, 76, 0
2, 8640, Note_on_c, 0, 72, 0
2, 8640, Note_on_c, 0, 76, 110
2, 8640, Note_on_c, 0, 79, 110
2, 8760, Note_on_c, 0, 79, 0
2, 8760, Note_on_c, 0, 76, 0
2, 9000, Note_on_c, 0, 81, 110
2, 9000, Note_on_c, 0, 84, 110
2, 9720, Note_on_c, 0, 84, 0
2, 9720, Note_on_c, 0, 81, 0
2, 9720, Note_on_c, 0, 83, 110
2, 9720, Note_on_c, 0, 79, 110
2, 10080, Note_on_c, 0, 83, 0
2, 10080, Note_on_c, 0, 84, 110
2, 10440, Note_on_c, 0, 84, 0
2, 10440, Note_on_c, 0, 86, 110
2, 10800, Note_on_c, 0, 86, 0
2, 10800, Note_on_c, 0, 79, 0
2, 10800, Note_on_c, 0, 76, 110
2, 10800, Note_on_c, 0, 79, 110
2, 10920, Note_on_c, 0, 79, 0
2, 10920, Note_on_c, 0, 76, 0
2, 10920, Note_on_c, 0, 76, 110
2, 10920, Note_on_c, 0, 84, 110
2, 10950, Note_on_c, 0, 84, 0
2, 10950, Note_on_c, 0, 76, 0
2, 10980, Note_on_c, 0, 74, 110
2, 10980, Note_on_c, 0, 83, 110
2, 11010, Note_on_c, 0, 83, 0
2, 11010, Note_on_c, 0, 74, 0
2, 11040, Note_on_c, 0, 72, 110
2, 11040, Note_on_c, 0, 81, 110
2, 11070, Note_on_c, 0, 81, 0
2, 11070, Note_on_c, 0, 72, 0
2, 11100, Note_on_c, 0, 71, 110
2, 11100, Note_on_c, 0, 79, 110
2, 11130, Note_on_c, 0, 79, 0
2, 11130, Note_on_c, 0, 71, 0
2, 11160, Note_on_c, 0, 69, 110
2, 11160, Note_on_c, 0, 78, 110
2, 11280, Note_on_c, 0, 78, 0
2, 11280, Note_on_c, 0, 69, 0
2, 11280, Note_on_c, 0, 62, 110
2, 11400, Note_on_c, 0, 62, 0
2, 12360, Note_on_c, 0, 69, 70
2, 12360, Note_on_c, 0, 78, 70
2, 12390, Note_on_c, 0, 78, 0
2, 12390, Note_on_c, 0, 69, 0
2, 12390, Note_on_c, 0, 71, 70
2, 12390, Note_on_c, 0, 79, 70
2, 12420, Note_on_c, 0, 79, 0
2, 12420, Note_on_c, 0, 71, 0
2, 12420, Note_on_c, 0, 69, 70
2, 12420, Note_on_c, 0, 78, 70
2, 12450, Note_on_c, 0, 78, 0
2, 12450, Note_on_c, 0, 69, 0
2, 12450, Note_on_c, 0, 71, 70
2, 12450, Note_on_c, 0, 79, 70
2, 12480, Note_on_c, 0, 79, 0
2, 12480, Note_on_c, 0, 71, 0
2, 12480, Note_on_c, 0, 72, 70
2, 12480, Note_on_c, 0, 81, 70
2, 12600, Note_on_c, 0, 81, 0
2, 12600, Note_on_c, 0, 72, 0
2, 12720, Note_on_c, 0, 71, 70
2, 12720, Note_on_c, 0, 79, 70
2, 12750, Note_on_c, 0, 79, 0
2, 12750, Note_on_c, 0, 71, 0
2, 12750, Note_on_c, 0, 72, 70
2, 12750, Note_on_c, 0, 81, 70
2, 12780, Note_on_c, 0, 81, 0
2, 12780, Note_on_c, 0, 72, 0
2, 12780, Note_on_c, 0, 71, 70
2, 12780, Note_on_c, 0, 79, 70
2, 12810, Note_on_c, 0, 79, 0
2, 12810, Note_on_c, 0, 71, 0
2, 12810, Note_on_c, 0, 72, 70
2, 12810, Note_on_c, 0, 81, 70
2, 12840, Note_on_c, 0, 81, 0
2, 12840, Note_on_c, 0, 72, 0
2, 12840, Note_on_c, 0, 74, 70
2, 12840, Note_on_c, 0, 83, 70
2, 12960, Note_on_c, 0, 83, 0
2, 12960, Note_on_c, 0, 74, 0
2, 14400, Note_on_c, 0, 71, 70
2, 14400, Note_on_c, 0, 74, 70
2, 14460, Note_on_c, 0, 74, 0
2, 14460, Note_on_c, 0, 71, 0
2, 14520, Note_on_c, 0, 71, 70
2, 14520, Note_on_c, 0, 74, 70
2, 14580, Note_on_c, 0, 74, 0
2, 14580, Note_on_c, 0, 71, 0
2, 14640, Note_on_c, 0, 71, 70
2, 14640, Note_on_c, 0, 74, 70
2, 14700, Note_on_c, 0, 74, 0
2, 14700, Note_on_c, 0, 71, 0
2, 14760, Note_on_c, 0, 72, 70
2, 14760, Note_on_c, 0, 76, 70
2, 14940, Note_on_c, 0, 76, 0
2, 14940, Note_on_c, 0, 72, 0
2, 14940, Note_on_c, 0, 78, 70
2, 14940, Note_on_c, 0, 74, 70
2, 15000, Note_on_c, 0, 74, 0
2, 15000, Note_on_c, 0, 78, 0
2, 15000, Note_on_c, 0, 76, 70
2, 15000, Note_on_c, 0, 79, 70
2, 15060, Note_on_c, 0, 79, 0
2, 15060, Note_on_c, 0, 76, 0
2, 15120, Note_on_c, 0, 69, 70
2, 15120, Note_on_c, 0, 66, 70
2, 15135, Note_on_c, 0, 66, 0
2, 15135, Note_on_c, 0, 69, 0
2, 15135, Note_on_c, 0, 71, 70
2, 15135, Note_on_c, 0, 67, 70
2, 15150, Note_on_c, 0, 67, 0
2, 15150, Note_on_c, 0, 71, 0
2, 15150, Note_on_c, 0, 69, 70
2, 15150, Note_on_c, 0, 72, 70
2, 15240, Note_on_c, 0, 72, 0
2, 15240, Note_on_c, 0, 69, 0
2, 15480, Note_on_c, 0, 71, 70
2, 15480, Note_on_c, 0, 67, 70
2, 15495, Note_on_c, 0, 67, 0
2, 15495, Note_on_c, 0, 71, 0
2, 15495, Note_on_c, 0, 72, 70
2, 15495, Note_on_c, 0, 69, 70
2, 15510, Note_on_c, 0, 69, 0
2, 15510, Note_on_c, 0, 72, 0
2, 15510, Note_on_c, 0, 71, 70
2, 15510, Note_on_c, 0, 74, 70
2, 15600, Note_on_c, 0, 74, 0
2, 15600, Note_on_c, 0, 71, 0
2, 15840, Note_on_c, 0, 71, 70
2, 15840, Note_on_c, 0, 74, 70
2, 15900, Note_on_c, 0, 74, 0
2, 15900, Note_on_c, 0, 71, 0
2, 15960, Note_on_c, 0, 71, 70
2, 15960, Note_on_c, 0, 74, 70
2, 16020, Note_on_c, 0, 74, 0
2, 16020, Note_on_c, 0, 71, 0
2, 16080, Note_on_c, 0, 71, 70
2, 16080, Note_on_c, 0, 74, 70
2, 16140, Note_on_c, 0, 74, 0
2, 16140, Note_on_c, 0, 71, 0
2, 16200, Note_on_c, 0, 72, 70
2, 16200, Note_on_c, 0, 76, 70
2, 16290, Note_on_c, 0, 76, 0
2, 16290, Note_on_c, 0, 72, 0
2, 16290, Note_on_c, 0, 78, 70
2, 16290, Note_on_c, 0, 74, 70
2, 16320, Note_on_c, 0, 74, 0
2, 16320, Note_on_c, 0, 78, 0
2, 16320, Note_on_c, 0, 76, 70
2, 16320, Note_on_c, 0, 79, 70
2, 16380, Note_on_c, 0, 79, 0
2, 16380, Note_on_c, 0, 76, 0
2, 16380, Note_on_c, 0, 74, 70
2, 16380, Note_on_c, 0, 78, 70
2, 16410, Note_on_c, 0, 78, 0
2, 16410, Note_on_c, 0, 74, 0
2, 16440, Note_on_c, 0, 72, 70
2, 16440, Note_on_c, 0, 76, 70
2, 16470, Note_on_c, 0, 76, 0
2, 16470, Note_on_c, 0, 72, 0
2, 16500, Note_on_c, 0, 71, 70
2, 16500, Note_on_c, 0, 74, 70
2, 16530, Note_on_c, 0, 74, 0
2, 16530, Note_on_c, 0, 71, 0
2, 16530, Note_on_c, 0, 71, 70
2, 16530, Note_on_c, 0, 74, 70
2, 16560, Note_on_c, 0, 74, 0
2, 16560, Note_on_c, 0, 71, 0
2, 16560, Note_on_c, 0, 69, 70
2, 16560, Note_on_c, 0, 72, 70
2, 16680, Note_on_c, 0, 72, 0
2, 16680, Note_on_c, 0, 69, 0
2, 16680, Note_on_c, 0, 67, 70
2, 16680, Note_on_c, 0, 71, 70
2, 16800, Note_on_c, 0, 71, 0
2, 16800, Note_on_c, 0, 67, 0
2, 16800, Note_on_c, 0, 66, 70
2, 16800, Note_on_c, 0, 69, 70
2, 16920, Note_on_c, 0, 69, 0
2, 16920, Note_on_c, 0, 66, 0
2, 16920, Note_on_c, 0, 67, 110
2, 17040, Note_on_c, 0, 67, 0
2, 17640, Note_on_c, 0, 67, 110
2, 17640, Note_on_c, 0, 79, 110
2, 17700, Note_on_c, 0, 79, 0
2, 17700, Note_on_c, 0, 67, 0
2, 17700, Note_on_c, 0, 66, 110
2, 17700, Note_on_c, 0, 78, 110
2, 17760, Note_on_c, 0, 78, 0
2, 17760, Note_on_c, 0, 66, 0
2, 17760, Note_on_c, 0, 67, 110
2, 17760, Note_on_c, 0, 79, 110
2, 17820, Note_on_c, 0, 79, 0
2, 17820, Note_on_c, 0, 67, 0
2, 17820, Note_on_c, 0, 66, 110
2, 17820, Note_on_c, 0, 78, 110
2, 17880, Note_on_c, 0, 78, 0
2, 17880, Note_on_c, 0, 66, 0
2, 17880, Note_on_c, 0, 79, 110
2, 17940, Note_on_c, 0, 79, 0
2, 17940, Note_on_c, 0, 76, 110
2, 18000, Note_on_c, 0, 76, 0
2, 18000, Note_on_c, 0, 74, 110
2, 18000, Note_on_c, 0, 79, 110
2, 18060, Note_on_c, 0, 79, 0
2, 18060, Note_on_c, 0, 74, 0
2, 18060, Note_on_c, 0, 72, 110
2, 18060, Note_on_c, 0, 78, 110
2, 18120, Note_on_c, 0, 78, 0
2, 18120, Note_on_c, 0, 72, 0
2, 18120, Note_on_c, 0, 71, 110
2, 18120, Note_on_c, 0, 79, 110
2, 18180, Note_on_c, 0, 79, 0
2, 18180, Note_on_c, 0, 71, 0
2, 18180, Note_on_c, 0, 72, 110
2, 18180, Note_on_c, 0, 78, 110
2, 18240, Note_on_c, 0, 78, 0
2, 18240, Note_on_c, 0, 72, 0
2, 18240, Note_on_c, 0, 74, 110
2, 18240, Note_on_c, 0, 79, 110
2, 18300, Note_on_c, 0, 79, 0
2, 18300, Note_on_c, 0, 74, 0
2, 18300, Note_on_c, 0, 71, 110
2, 18300, Note_on_c, 0, 79, 110
2, 18360, Note_on_c, 0, 79, 0
2, 18360, Note_on_c, 0, 71, 0
2, 18360, Note_on_c, 0, 72, 110
2, 18360, Note_on_c, 0, 79, 110
2, 18480, Note_on_c, 0, 79, 0
2, 18480, Note_on_c, 0, 72, 0
2, 18480, Note_on_c, 0, 78, 110
2, 18480, Note_on_c, 0, 84, 110
2, 18600, Note_on_c, 0, 84, 0
2, 18600, Note_on_c, 0, 78, 0
2, 18600, Note_on_c, 0, 77, 110
2, 18600, Note_on_c, 0, 84, 110
2, 18720, Note_on_c, 0, 84, 0
2, 18720, Note_on_c, 0, 77, 0
2, 18720, Note_on_c, 0, 84, 110
2, 18720, Note_on_c, 0, 74, 110
2, 18840, Note_on_c, 0, 74, 0
2, 18840, Note_on_c, 0, 78, 110
2, 18960, Note_on_c, 0, 78, 0
2, 18960, Note_on_c, 0, 84, 0
2, 18960, Note_on_c, 0, 83, 110
2, 18960, Note_on_c, 0, 79, 110
2, 19080, Note_on_c, 0, 79, 0
2, 19080, Note_on_c, 0, 83, 0
2, 19080, Note_on_c, 0, 72, 110
2, 19080, Note_on_c, 0, 81, 110
2, 19200, Note_on_c, 0, 81, 0
2, 19200, Note_on_c, 0, 72, 0
2, 19200, Note_on_c, 0, 71, 110
2, 19200, Note_on_c, 0, 79, 110
2, 19320, Note_on_c, 0, 79, 0
2, 19320, Note_on_c, 0, 71, 0
2, 19320, Note_on_c, 0, 69, 110
2, 19320, Note_on_c, 0, 78, 110
2, 19440, Note_on_c, 0, 78, 0
2, 19440, Note_on_c, 0, 69, 0
2, 19440, Note_on_c, 0, 71, 110
2, 19440, Note_on_c, 0, 79, 110
2, 19560, Note_on_c, 0, 79, 0
2, 19560, Note_on_c, 0, 71, 0
2, 19560, Note_on_c, 0, 68, 110
2, 19560, Note_on_c, 0, 77, 110
2, 19680, Note_on_c, 0, 77, 0
2, 19680, Note_on_c, 0, 68, 0
2, 19680, Note_on_c, 0, 69, 110
2, 19680, Note_on_c, 0, 76, 110
2, 19800, Note_on_c, 0, 76, 0
2, 19800, Note_on_c, 0, 69, 0
2, 19800, Note_on_c, 0, 71, 110
2, 19800, Note_on_c, 0, 74, 110
2, 19920, Note_on_c, 0, 74, 0
2, 19920, Note_on_c, 0, 71, 0
2, 19920, Note_on_c, 0, 64, 110
2, 19920, Note_on_c, 0, 73, 110
2, 20040, Note_on_c, 0, 73, 0
2, 20040, Note_on_c, 0, 64, 0
2, 21360, Note_on_c, 0, 83, 110
2, 21360, Note_on_c, 0, 86, 110
2, 21480, Note_on_c, 0, 86, 0
2, 21480, Note_on_c, 0, 83, 0
2, 21480, Note_on_c, 0, 81, 110
2, 21480, Note_on_c, 0, 84, 110
2, 21600, Note_on_c, 0, 84, 0
2, 21600, Note_on_c, 0, 81, 0
2, 21600, Note_on_c, 0, 79, 110
2, 21600, Note_on_c, 0, 83, 110
2, 21720, Note_on_c, 0, 83, 0
2, 21720, Note_on_c, 0, 79, 0
2, 21720, Note_on_c, 0, 79, 110
2, 21720, Note_on_c, 0, 83, 110
2, 21840, Note_on_c, 0, 83, 0
2, 21840, Note_on_c, 0, 79, 0
2, 21840, Note_on_c, 0, 78, 110
2, 21840, Note_on_c, 0, 81, 110
2, 21960, Note_on_c, 0, 81, 0
2, 21960, Note_on_c, 0, 78, 0
2, 21960, Note_on_c, 0, 79, 110
2, 22080, Note_on_c, 0, 79, 0
2, 22080, Note_on_c, 0, 86, 110
2, 22080, Note_on_c, 0, 83, 110
2, 22200, Note_on_c, 0, 83, 0
2, 22200, Note_on_c, 0, 86, 0
2, 22200, Note_on_c, 0, 81, 110
2, 22200, Note_on_c, 0, 84, 110
2, 22320, Note_on_c, 0, 84, 0
2, 22320, Note_on_c, 0, 81, 0
2, 22320, Note_on_c, 0, 79, 110
2, 22320, Note_on_c, 0, 83, 110
2, 22440, Note_on_c, 0, 83, 0
2, 22440, Note_on_c, 0, 79, 0
2, 22440, Note_on_c, 0, 79, 110
2, 22440, Note_on_c, 0, 83, 110
2, 22560, Note_on_c, 0, 83, 0
2, 22560, Note_on_c, 0, 79, 0
2, 22560, Note_on_c, 0, 78, 110
2, 22560, Note_on_c, 0, 81, 110
2, 22680, Note_on_c, 0, 81, 0
2, 22680, Note_on_c, 0, 78, 0
2, 22680, Note_on_c, 0, 79, 110
2, 22800, Note_on_c, 0, 79, 0
2, 22920, Note_on_c, 0, 72, 110
2, 22920, Note_on_c, 0, 78, 110
2, 23040, Note_on_c, 0, 78, 0
2, 23040, Note_on_c, 0, 72, 0
2, 23040, Note_on_c, 0, 71, 110
2, 23040, Note_on_c, 0, 79, 110
2, 23160, Note_on_c, 0, 79, 0
2, 23160, Note_on_c, 0, 71, 0
2, 23280, Note_on_c, 0, 78, 110
2, 23280, Note_on_c, 0, 72, 110
2, 23400, Note_on_c, 0, 72, 0
2, 23400, Note_on_c, 0, 78, 0
2, 23400, Note_on_c, 0, 71, 110
2, 23400, Note_on_c, 0, 79, 110
2, 23520, Note_on_c, 0, 79, 0
2, 23520, Note_on_c, 0, 71, 0
2, 23520, Note_on_c, 0, 67, 110
2, 23580, Note_on_c, 0, 67, 0
2, 23580, Note_on_c, 0, 69, 110
2, 23640, Note_on_c, 0, 69, 0
2, 23640, Note_on_c, 0, 71, 110
2, 23700, Note_on_c, 0, 71, 0
2, 23700, Note_on_c, 0, 72, 110
2, 23760, Note_on_c, 0, 72, 0
2, 23760, Note_on_c, 0, 74, 110
2, 23820, Note_on_c, 0, 74, 0
2, 23820, Note_on_c, 0, 76, 110
2, 23880, Note_on_c, 0, 76, 0
2, 23880, Note_on_c, 0, 77, 110
2, 23940, Note_on_c, 0, 77, 0
2, 23940, Note_on_c, 0, 74, 110
2, 24000, Note_on_c, 0, 74, 0
2, 24000, Note_on_c, 0, 71, 110
2, 24060, Note_on_c, 0, 71, 0
2, 24060, Note_on_c, 0, 67, 110
2, 24120, Note_on_c, 0, 67, 0
2, 24120, Note_on_c, 0, 72, 110
2, 24240, Note_on_c, 0, 72, 0
2, 24240, Note_on_c, 0, 67, 110
2, 24360, Note_on_c, 0, 67, 0
2, 24480, Note_on_c, 0, 64, 110
2, 24600, Note_on_c, 0, 64, 0
2, 24600, Note_on_c, 0, 60, 110
2, 24720, Note_on_c, 0, 60, 0
2, 26280, Note_on_c, 0, 72, 110
2, 26400, Note_on_c, 0, 72, 0
2, 26400, Note_on_c, 0, 67, 110
2, 26520, Note_on_c, 0, 67, 0
2, 26640, Note_on_c, 0, 64, 110
2, 26760, Note_on_c, 0, 64, 0
2, 26760, Note_on_c, 0, 60, 110
2, 26880, Note_on_c, 0, 60, 0
2, 28440, Note_on_c, 0, 72, 110
2, 28560, Note_on_c, 0, 72, 0
2, 28560, Note_on_c, 0, 72, 110
2, 28620, Note_on_c, 0, 72, 0
2, 28620, Note_on_c, 0, 76, 110
2, 28680, Note_on_c, 0, 76, 0
2, 28680, Note_on_c, 0, 79, 110
2, 28740, Note_on_c, 0, 79, 0
2, 28740, Note_on_c, 0, 84, 110
2, 28800, Note_on_c, 0, 84, 0
2, 28800, Note_on_c, 0, 84, 110
2, 28860, Note_on_c, 0, 84, 0
2, 28860, Note_on_c, 0, 74, 110
2, 28920, Note_on_c, 0, 74, 0
2, 28920, Note_on_c, 0, 74, 110
2, 29100, Note_on_c, 0, 74, 0
2, 29100, Note_on_c, 0, 76, 110
2, 29160, Note_on_c, 0, 76, 0
2, 29160, Note_on_c, 0, 76, 110
2, 29220, Note_on_c, 0, 76, 0
2, 29220, Note_on_c, 0, 77, 110
2, 29280, Note_on_c, 0, 77, 0
2, 29280, Note_on_c, 0, 77, 110
2, 29460, Note_on_c, 0, 77, 0
2, 29460, Note_on_c, 0, 79, 110
2, 29520, Note_on_c, 0, 79, 0
2, 29520, Note_on_c, 0, 81, 110
2, 29640, Note_on_c, 0, 81, 0
2, 29640, Note_on_c, 0, 79, 110
2, 29820, Note_on_c, 0, 79, 0
2, 29820, Note_on_c, 0, 77, 110
2, 29880, Note_on_c, 0, 77, 0
2, 29880, Note_on_c, 0, 76, 110
2, 29970, Note_on_c, 0, 76, 110
2, 29970, Note_on_c, 0, 79, 110
2, 30000, Note_on_c, 0, 79, 0
2, 30000, Note_on_c, 0, 76, 0
2, 30000, Note_on_c, 0, 76, 0
2, 30000, Note_on_c, 0, 74, 110
2, 30000, Note_on_c, 0, 77, 110
2, 30090, Note_on_c, 0, 72, 110
2, 30090, Note_on_c, 0, 76, 110
2, 30120, Note_on_c, 0, 76, 0
2, 30120, Note_on_c, 0, 74, 0
2, 30120, Note_on_c, 0, 77, 0
2, 30120, Note_on_c, 0, 72, 0
2, 30120, Note_on_c, 0, 74, 110
2, 30120, Note_on_c, 0, 71, 110
2, 30240, Note_on_c, 0, 71, 0
2, 30240, Note_on_c, 0, 74, 0
2, 30240, Note_on_c, 0, 72, 110
2, 30240, Note_on_c, 0, 79, 110
2, 30360, Note_on_c, 0, 79, 0
2, 30360, Note_on_c, 0, 84, 110
2, 30540, Note_on_c, 0, 84, 0
2, 30540, Note_on_c, 0, 76, 110
2, 30600, Note_on_c, 0, 76, 0
2, 30600, Note_on_c, 0, 72, 0
2, 30600, Note_on_c, 0, 77, 110
2, 30600, Note_on_c, 0, 81, 110
2, 30720, Note_on_c, 0, 81, 0
2, 30720, Note_on_c, 0, 77, 0
2, 30720, Note_on_c, 0, 76, 110
2, 30720, Note_on_c, 0, 79, 110
2, 30840, Note_on_c, 0, 79, 0
2, 30840, Note_on_c, 0, 76, 0
2, 30840, Note_on_c, 0, 71, 110
2, 30840, Note_on_c, 0, 74, 110
2, 30960, Note_on_c, 0, 74, 0
2, 30960, Note_on_c, 0, 71, 0
2, 30960, Note_on_c, 0, 72, 110
2, 30960, Note_on_c, 0, 76, 110
2, 31440, Note_on_c, 0, 76, 0
2, 31440, Note_on_c, 0, 72, 0
2, 31680, Note_on_c, 0, 71, 110
2, 31680, Note_on_c, 0, 77, 110
2, 32160, Note_on_c, 0, 77, 0
2, 32160, Note_on_c, 0, 71, 0
2, 32400, Note_on_c, 0, 72, 110
2, 32400, Note_on_c, 0, 76, 110
2, 32760, Note_on_c, 0, 76, 0
2, 32760, Note_on_c, 0, 72, 0
2, 32760, Note_on_c, 0, 76, 110
2, 32760, Note_on_c, 0, 79, 110
2, 32880, Note_on_c, 0, 79, 0
2, 32880, Note_on_c, 0, 76, 0
2, 33120, Note_on_c, 0, 81, 110
2, 33120, Note_on_c, 0, 84, 110
2, 33840, Note_on_c, 0, 84, 0
2, 33840, Note_on_c, 0, 81, 0
2, 33840, Note_on_c, 0, 83, 110
2, 33840, Note_on_c, 0, 79, 110
2, 34200, Note_on_c, 0, 83, 0
2, 34200, Note_on_c, 0, 84, 110
2, 34560, Note_on_c, 0, 84, 0
2, 34560, Note_on_c, 0, 86, 110
2, 34920, Note_on_c, 0, 86, 0
2, 34920, Note_on_c, 0, 79, 0
2, 34920, Note_on_c, 0, 76, 110
2, 34920, Note_on_c, 0, 79, 110
2, 35040, Note_on_c, 0, 79, 0
2, 35040, Note_on_c, 0, 76, 0
2, 35040, Note_on_c, 0, 76, 110
2, 35040, Note_on_c, 0, 84, 110
2, 35070, Note_on_c, 0, 84, 0
2, 35070, Note_on_c, 0, 76, 0
2, 35100, Note_on_c, 0, 74, 110
2, 35100, Note_on_c, 0, 83, 110
2, 35130, Note_on_c, 0, 83, 0
2, 35130, Note_on_c, 0, 74, 0
2, 35160, Note_on_c, 0, 72, 110
2, 35160, Note_on_c, 0, 81, 110
2, 35190, Note_on_c, 0, 81, 0
2, 35190, Note_on_c, 0, 72, 0
2, 35220, Note_on_c, 0, 71, 110
2, 35220, Note_on_c, 0, 79, 110
2, 35250, Note_on_c, 0, 79, 0
2, 35250, Note_on_c, 0, 71, 0
2, 35280, Note_on_c, 0, 69, 110
2, 35280, Note_on_c, 0, 78, 110
2, 35400, Note_on_c, 0, 78, 0
2, 35400, Note_on_c, 0, 69, 0
2, 35400, Note_on_c, 0, 62, 110
2, 35520, Note_on_c, 0, 62, 0
2, 36480, Note_on_c, 0, 69, 70
2, 36480, Note_on_c, 0, 78, 70
2, 36510, Note_on_c, 0, 78, 0
2, 36510, Note_on_c, 0, 69, 0
2, 36510, Note_on_c, 0, 71, 70
2, 36510, Note_on_c, 0, 79, 70
2, 36540, Note_on_c, 0, 79, 0
2, 36540, Note_on_c, 0, 71, 0
2, 36540, Note_on_c, 0, 69, 70
2, 36540, Note_on_c, 0, 78, 70
2, 36570, Note_on_c, 0, 78, 0
2, 36570, Note_on_c, 0, 69, 0
2, 36570, Note_on_c, 0, 71, 70
2, 36570, Note_on_c, 0, 79, 70
2, 36600, Note_on_c, 0, 79, 0
2, 36600, Note_on_c, 0, 71, 0
2, 36600, Note_on_c, 0, 72, 70
2, 36600, Note_on_c, 0, 81, 70
2, 36720, Note_on_c, 0, 81, 0
2, 36720, Note_on_c, 0, 72, 0
2, 36840, Note_on_c, 0, 71, 70
2, 36840, Note_on_c, 0, 79, 70
2, 36870, Note_on_c, 0, 79, 0
2, 36870, Note_on_c, 0, 71, 0
2, 36870, Note_on_c, 0, 72, 70
2, 36870, Note_on_c, 0, 81, 70
2, 36900, Note_on_c, 0, 81, 0
2, 36900, Note_on_c, 0, 72, 0
2, 36900, Note_on_c, 0, 71, 70
2, 36900, Note_on_c, 0, 79, 70
2, 36930, Note_on_c, 0, 79, 0
2, 36930, Note_on_c, 0, 71, 0
2, 36930, Note_on_c, 0, 72, 70
2, 36930, Note_on_c, 0, 81, 70
2, 36960, Note_on_c, 0, 81, 0
2, 36960, Note_on_c, 0, 72, 0
2, 36960, Note_on_c, 0, 74, 70
2, 36960, Note_on_c, 0, 83, 70
2, 37080, Note_on_c, 0, 83, 0
2, 37080, Note_on_c, 0, 74, 0
2, 38520, Note_on_c, 0, 71, 70
2, 38520, Note_on_c, 0, 74, 70
2, 38580, Note_on_c, 0, 74, 0
2, 38580, Note_on_c, 0, 71, 0
2, 38640, Note_on_c, 0, 71, 70
2, 38640, Note_on_c, 0, 74, 70
2, 38700, Note_on_c, 0, 74, 0
2, 38700, Note_on_c, 0, 71, 0
2, 38760, Note_on_c, 0, 71, 70
2, 38760, Note_on_c, 0, 74, 70
2, 38820, Note_on_c, 0, 74, 0
2, 38820, Note_on_c, 0, 71, 0
2, 38880, Note_on_c, 0, 72, 70
2, 38880, Note_on_c, 0, 76, 70
2, 39060, Note_on_c, 0, 76, 0
2, 39060, Note_on_c, 0, 72, 0
2, 39060, Note_on_c, 0, 78, 70
2, 39060, Note_on_c, 0, 74, 70
2, 39120, Note_on_c, 0, 74, 0
2, 39120, Note_on_c, 0, 78, 0
2, 39120, Note_on_c, 0, 76, 70
2, 39120, Note_on_c, 0, 79, 70
2, 39180, Note_on_c, 0, 79, 0
2, 39180, Note_on_c, 0, 76, 0
2, 39240, Note_on_c, 0, 69, 70
2, 39240, Note_on_c, 0, 66, 70
2, 39255, Note_on_c, 0, 66, 0
2, 39255, Note_on_c, 0, 69, 0
2, 39255, Note_on_c, 0, 71, 70
2, 39255, Note_on_c, 0, 67, 70
2, 39270, Note_on_c, 0, 67, 0
2, 39270, Note_on_c, 0, 71, 0
2, 39270, Note_on_c, 0, 69, 70
2, 39270, Note_on_c, 0, 72, 70
2, 39360, Note_on_c, 0, 72, 0
2, 39360, Note_on_c, 0, 69, 0
2, 39600, Note_on_c, 0, 71, 70
2, 39600, Note_on_c, 0, 67, 70
2, 39615, Note_on_c, 0, 67, 0
2, 39615, Note_on_c, 0, 71, 0
2, 39615, Note_on_c, 0, 72, 70
2, 39615, Note_on_c, 0, 69, 70
2, 39630, Note_on_c, 0, 69, 0
2, 39630, Note_on_c, 0, 72, 0
2, 39630, Note_on_c, 0, 71, 70
2, 39630, Note_on_c, 0, 74, 70
2, 39720, Note_on_c, 0, 74, 0
2, 39720, Note_on_c, 0, 71, 0
2, 39960, Note_on_c, 0, 71, 70
2, 39960, Note_on_c, 0, 74, 70
2, 40020, Note_on_c, 0, 74, 0
2, 40020, Note_on_c, 0, 71, 0
2, 40080, Note_on_c, 0, 71, 70
2, 40080, Note_on_c, 0, 74, 70
2, 40140, Note_on_c, 0, 74, 0
2, 40140, Note_on_c, 0, 71, 0
2, 40200, Note_on_c, 0, 71, 70
2, 40200, Note_on_c, 0, 74, 70
2, 40260, Note_on_c, 0, 74, 0
2, 40260, Note_on_c, 0, 71, 0
2, 40320, Note_on_c, 0, 72, 70
2, 40320, Note_on_c, 0, 76, 70
2, 40410, Note_on_c, 0, 76, 0
2, 40410, Note_on_c, 0, 72, 0
2, 40410, Note_on_c, 0, 78, 70
2, 40410, Note_on_c, 0, 74, 70
2, 40440, Note_on_c, 0, 74, 0
2, 40440, Note_on_c, 0, 78, 0
2, 40440, Note_on_c, 0, 76, 70
2, 40440, Note_on_c, 0, 79, 70
2, 40500, Note_on_c, 0, 79, 0
2, 40500, Note_on_c, 0, 76, 0
2, 40500, Note_on_c, 0, 74, 70
2, 40500, Note_on_c, 0, 78, 70
2, 40530, Note_on_c, 0, 78, 0
2, 40530, Note_on_c, 0, 74, 0
2, 40560, Note_on_c, 0, 72, 70
2, 40560, Note_on_c, 0, 76, 70
2, 40590, Note_on_c, 0, 76, 0
2, 40590, Note_on_c, 0, 72, 0
2, 40620, Note_on_c, 0, 71, 70
2, 40620, Note_on_c, 0, 74, 70
2, 40650, Note_on_c, 0, 74, 0
2, 40650, Note_on_c, 0, 71, 0
2, 40650, Note_on_c, 0, 71, 70
2, 40650, Note_on_c, 0, 74, 70
2, 40680, Note_on_c, 0, 74, 0
2, 40680, Note_on_c, 0, 71, 0
2, 40680, Note_on_c, 0, 69, 70
2, 40680, Note_on_c, 0, 72, 70
2, 40800, Note_on_c, 0, 72, 0
2, 40800, Note_on_c, 0, 69, 0
2, 40800, Note_on_c, 0, 67, 70
2, 40800, Note_on_c, 0, 71, 70
2, 40920, Note_on_c, 0, 71, 0
2, 40920, Note_on_c, 0, 67, 0
2, 40920, Note_on_c, 0, 66, 70
2, 40920, Note_on_c, 0, 69, 70
2, 41040, Note_on_c, 0, 69, 0
2, 41040, Note_on_c, 0, 66, 0
2, 41040, Note_on_c, 0, 67, 110
2, 41160, Note_on_c, 0, 67, 0
2, 41760, Note_on_c, 0, 67, 110
2, 41760, Note_on_c, 0, 79, 110
2, 41820, Note_on_c, 0, 79, 0
2, 41820, Note_on_c, 0, 67, 0
2, 41820, Note_on_c, 0, 66, 110
2, 41820, Note_on_c, 0, 78, 110
2, 41880, Note_on_c, 0, 78, 0
2, 41880, Note_on_c, 0, 66, 0
2, 41880, Note_on_c, 0, 67, 110
2, 41880, Note_on_c, 0, 79, 110
2, 41940, Note_on_c, 0, 79, 0
2, 41940, Note_on_c, 0, 67, 0
2, 41940, Note_on_c, 0, 66, 110
2, 41940, Note_on_c, 0, 78, 110
2, 42000, Note_on_c, 0, 78, 0
2, 42000, Note_on_c, 0, 66, 0
2, 42000, Note_on_c, 0, 79, 110
2, 42060, Note_on_c, 0, 79, 0
2, 42060, Note_on_c, 0, 76, 110
2, 42120, Note_on_c, 0, 76, 0
2, 42120, Note_on_c, 0, 74, 110
2, 42120, Note_on_c, 0, 79, 110
2, 42180, Note_on_c, 0, 79, 0
2, 42180, Note_on_c, 0, 74, 0
2, 42180, Note_on_c, 0, 72, 110
2, 42180, Note_on_c, 0, 78, 110
2, 42240, Note_on_c, 0, 78, 0
2, 42240, Note_on_c, 0, 72, 0
2, 42240, Note_on_c, 0, 71, 110
2, 42240, Note_on_c, 0, 79, 110
2, 42300, Note_on_c, 0, 79, 0
2, 42300, Note_on_c, 0, 71, 0
2, 42300, Note_on_c, 0, 72, 110
2, 42300, Note_on_c, 0, 78, 110
2, 42360, Note_on_c, 0, 78, 0
2, 42360, Note_on_c, 0, 72, 0
2, 42360, Note_on_c, 0, 74, 110
2, 42360, Note_on_c, 0, 79, 110
2, 42420, Note_on_c, 0, 79, 0
2, 42420, Note_on_c, 0, 74, 0
2, 42420, Note_on_c, 0, 71, 110
2, 42420, Note_on_c, 0, 79, 110
2, 42480, Note_on_c, 0, 79, 0
2, 42480, Note_on_c, 0, 71, 0
2, 42480, Note_on_c, 0, 72, 110
2, 42480, Note_on_c, 0, 79, 110
2, 42600, Note_on_c, 0, 79, 0
2, 42600, Note_on_c, 0, 72, 0
2, 42600, Note_on_c, 0, 78, 110
2, 42600, Note_on_c, 0, 84, 110
2, 42720, Note_on_c, 0, 84, 0
2, 42720, Note_on_c, 0, 78, 0
2, 42720, Note_on_c, 0, 77, 110
2, 42720, Note_on_c, 0, 84, 110
2, 42840, Note_on_c, 0, 84, 0
2, 42840, Note_on_c, 0, 77, 0
2, 42840, Note_on_c, 0, 84, 110
2, 42840, Note_on_c, 0, 74, 110
2, 42960, Note_on_c, 0, 74, 0
2, 42960, Note_on_c, 0, 78, 110
2, 43080, Note_on_c, 0, 78, 0
2, 43080, Note_on_c, 0, 84, 0
2, 43080, Note_on_c, 0, 83, 110
2, 43080, Note_on_c, 0, 79, 110
2, 43200, Note_on_c, 0, 79, 0
2, 43200, Note_on_c, 0, 83, 0
2, 43200, Note_on_c, 0, 72, 110
2, 43200, Note_on_c, 0, 81, 110
2, 43320, Note_on_c, 0, 81, 0
2, 43320, Note_on_c, 0, 72, 0
2, 43320, Note_on_c, 0, 71, 110
2, 43320, Note_on_c, 0, 79, 110
2, 43440, Note_on_c, 0, 79, 0
2, 43440, Note_on_c, 0, 71, 0
2, 43440, Note_on_c, 0, 69, 110
2, 43440, Note_on_c, 0, 78, 110
2, 43560, Note_on_c, 0, 78, 0
2, 43560, Note_on_c, 0, 69, 0
2, 43560, Note_on_c, 0, 71, 110
2, 43560, Note_on_c, 0, 79, 110
2, 43680, Note_on_c, 0, 79, 0
2, 43680, Note_on_c, 0, 71, 0
2, 43680, Note_on_c, 0, 68, 110
2, 43680, Note_on_c, 0, 77, 110
2, 43800, Note_on_c, 0, 77, 0
2, 43800, Note_on_c, 0, 68, 0
2, 43800, Note_on_c, 0, 69, 110
2, 43800, Note_on_c, 0, 76, 110
2, 43920, Note_on_c, 0, 76, 0
2, 43920, Note_on_c, 0, 69, 0
2, 43920, Note_on_c, 0, 71, 110
2, 43920, Note_on_c, 0, 74, 110
2, 44040, Note_on_c, 0, 74, 0
2, 44040, Note_on_c, 0, 71, 0
2, 44040, Note_on_c, 0, 64, 110
2, 44040, Note_on_c, 0, 73, 110
2, 44160, Note_on_c, 0, 73, 0
2, 44160, Note_on_c, 0, 64, 0
2, 45480, Note_on_c, 0, 83, 110
2, 45480, Note_on_c, 0, 86, 110
2, 45600, Note_on_c, 0, 86, 0
2, 45600, Note_on_c, 0, 83, 0
2, 45600, Note_on_c, 0, 81, 110
2, 45600, Note_on_c, 0, 84, 110
2, 45720, Note_on_c, 0, 84, 0
2, 45720, Note_on_c, 0, 81, 0
2, 45720, Note_on_c, 0, 79, 110
2, 45720, Note_on_c, 0, 83, 110
2, 45840, Note_on_c, 0, 83, 0
2, 45840, Note_on_c, 0, 79, 0
2, 45840, Note_on_c, 0, 79, 110
2, 45840, Note_on_c, 0, 83, 110
2, 45960, Note_on_c, 0, 83, 0
2, 45960, Note_on_c, 0, 79, 0
2, 45960, Note_on_c, 0, 78, 110
2, 45960, Note_on_c, 0, 81, 110
2, 46080, Note_on_c, 0, 81, 0
2, 46080, Note_on_c, 0, 78, 0
2, 46080, Note_on_c, 0, 79, 110
2, 46200, Note_on_c, 0, 79, 0
2, 46200, Note_on_c, 0, 86, 110
2, 46200, Note_on_c, 0, 83, 110
2, 46320, Note_on_c, 0, 83, 0
2, 46320, Note_on_c, 0, 86, 0
2, 46320, Note_on_c, 0, 81, 110
2, 46320, Note_on_c, 0, 84, 110
2, 46440, Note_on_c, 0, 84, 0
2, 46440, Note_on_c, 0, 81, 0
2, 46440, Note_on_c, 0, 79, 110
2, 46440, Note_on_c, 0, 83, 110
2, 46560, Note_on_c, 0, 83, 0
2, 46560, Note_on_c, 0, 79, 0
2, 46560, Note_on_c, 0, 79, 110
2, 46560, Note_on_c, 0, 83, 110
2, 46680, Note_on_c, 0, 83, 0
2, 46680, Note_on_c, 0, 79, 0
2, 46680, Note_on_c, 0, 78, 110
2, 46680, Note_on_c, 0, 81, 110
2, 46800, Note_on_c, 0, 81, 0
2, 46800, Note_on_c, 0, 78, 0
2, 46800, Note_on_c, 0, 79, 110
2, 46920, Note_on_c, 0, 79, 0
2, 47040, Note_on_c, 0, 72, 110
2, 47040, Note_on_c, 0, 78, 110
2, 47160, Note_on_c, 0, 78, 0
2, 47160, Note_on_c, 0, 72, 0
2, 47160, Note_on_c, 0, 71, 110
2, 47160, Note_on_c, 0, 79, 110
2, 47280, Note_on_c, 0, 79, 0
2, 47280, Note_on_c, 0, 71, 0
2, 47400, Note_on_c, 0, 78, 110
2, 47400, Note_on_c, 0, 72, 110
2, 47520, Note_on_c, 0, 72, 0
2, 47520, Note_on_c, 0, 78, 0
2, 47520, Note_on_c, 0, 71, 110
2, 47520, Note_on_c, 0, 79, 110
2, 47640, Note_on_c, 0, 79, 0
2, 47640, Note_on_c, 0, 71, 0
2, 47640, Note_on_c, 0, 67, 110
2, 47700, Note_on_c, 0, 67, 0
2, 47700, Note_on_c, 0, 69, 110
2, 47760, Note_on_c, 0, 69, 0
2, 47760, Note_on_c, 0, 71, 110
2, 47820, Note_on_c, 0, 71, 0
2, 47820, Note_on_c, 0, 72, 110
2, 47880, Note_on_c, 0, 72, 0
2, 47880, Note_on_c, 0, 74, 110
2, 47940, Note_on_c, 0, 74, 0
2, 47940, Note_on_c, 0, 76, 110
2, 48000, Note_on_c, 0, 76, 0
2, 48000, Note_on_c, 0, 77, 110
2, 48060, Note_on_c, 0, 77, 0
2, 48060, Note_on_c, 0, 74, 110
2, 48120, Note_on_c, 0, 74, 0
2, 48120, Note_on_c, 0, 71, 110
2, 48180, Note_on_c, 0, 71, 0
2, 48180, Note_on_c, 0, 67, 110
2, 48240, Note_on_c, 0, 67, 0
2, 48240, Note_on_c, 0, 72, 110
2, 48360, Note_on_c, 0, 72, 0
2, 48600, Note_on_c, 0, 67, 110
2, 48600, Note_on_c, 0, 76, 110
2, 48720, Note_on_c, 0, 76, 0
2, 48720, Note_on_c, 0, 67, 0
2, 48960, Note_on_c, 0, 72, 110
2, 48960, Note_on_c, 0, 77, 110
2, 49080, Note_on_c, 0, 77, 0
2, 49080, Note_on_c, 0, 72, 0
2, 49320, Note_on_c, 0, 76, 110
2, 49320, Note_on_c, 0, 82, 110
2, 49440, Note_on_c, 0, 82, 0
2, 49440, Note_on_c, 0, 76, 0
2, 49680, Note_on_c, 0, 77, 110
2, 49680, Note_on_c, 0, 81, 110
2, 49800, Note_on_c, 0, 81, 0
2, 49800, Note_on_c, 0, 77, 0
2, 53640, Note_on_c, 0, 67, 70
2, 53640, Note_on_c, 0, 79, 70
2, 55080, Note_on_c, 0, 79, 0
2, 55080, Note_on_c, 0, 67, 0
2, 55200, Note_on_c, 0, 67, 70
2, 55200, Note_on_c, 0, 71, 70
2, 55230, Note_on_c, 0, 71, 0
2, 55230, Note_on_c, 0, 67, 0
2, 55230, Note_on_c, 0, 69, 70
2, 55230, Note_on_c, 0, 72, 70
2, 55260, Note_on_c, 0, 72, 0
2, 55260, Note_on_c, 0, 69, 0
2, 55260, Note_on_c, 0, 67, 70
2, 55260, Note_on_c, 0, 71, 70
2, 55290, Note_on_c, 0, 71, 0
2, 55290, Note_on_c, 0, 67, 0
2, 55290, Note_on_c, 0, 69, 70
2, 55290, Note_on_c, 0, 72, 70
2, 55320, Note_on_c, 0, 72, 0
2, 55320, Note_on_c, 0, 69, 0
2, 55320, Note_on_c, 0, 71, 70
2, 55320, Note_on_c, 0, 74, 70
2, 55440, Note_on_c, 0, 74, 0
2, 55440, Note_on_c, 0, 71, 0
2, 55560, Note_on_c, 0, 69, 70
2, 55560, Note_on_c, 0, 72, 70
2, 55590, Note_on_c, 0, 72, 0
2, 55590, Note_on_c, 0, 69, 0
2, 55590, Note_on_c, 0, 71, 70
2, 55590, Note_on_c, 0, 74, 70
2, 55620, Note_on_c, 0, 74, 0
2, 55620, Note_on_c, 0, 71, 0
2, 55620, Note_on_c, 0, 69, 70
2, 55620, Note_on_c, 0, 72, 70
2, 55650, Note_on_c, 0, 72, 0
2, 55650, Note_on_c, 0, 69, 0
2, 55650, Note_on_c, 0, 71, 70
2, 55650, Note_on_c, 0, 74, 70
2, 55680, Note_on_c, 0, 74, 0
2, 55680, Note_on_c, 0, 71, 0
2, 55680, Note_on_c, 0, 72, 70
2, 55680, Note_on_c, 0, 76, 70
2, 55800, Note_on_c, 0, 76, 0
2, 55800, Note_on_c, 0, 72, 0
2, 55800, Note_on_c, 0, 74, 70
2, 55800, Note_on_c, 0, 77, 70
2, 55920, Note_on_c, 0, 77, 0
2, 55920, Note_on_c, 0, 74, 0
2, 56520, Note_on_c, 0, 72, 110
2, 56640, Note_on_c, 0, 72, 0
2, 56640, Note_on_c, 0, 67, 110
2, 56760, Note_on_c, 0, 67, 0
2, 56880, Note_on_c, 0, 64, 110
2, 57000, Note_on_c, 0, 64, 0
2, 57000, Note_on_c, 0, 60, 110
2, 57120, Note_on_c, 0, 60, 0
2, 58680, Note_on_c, 0, 72, 110
2, 58800, Note_on_c, 0, 72, 0
2, 58800, Note_on_c, 0, 67, 110
2, 58920, Note_on_c, 0, 67, 0
2, 59040, Note_on_c, 0, 64, 110
2, 59160, Note_on_c, 0, 64, 0
2, 59160, Note_on_c, 0, 60, 110
2, 59280, Note_on_c, 0, 60, 0
2, 60840, Note_on_c, 0, 72, 110
2, 60960, Note_on_c, 0, 72, 0
2, 60960, Note_on_c, 0, 72, 110
2, 61020, Note_on_c, 0, 72, 0
2, 61020, Note_on_c, 0, 76, 110
2, 61080, Note_on_c, 0, 76, 0
2, 61080, Note_on_c, 0, 79, 110
2, 61140, Note_on_c, 0, 79, 0
2, 61140, Note_on_c, 0, 84, 110
2, 61200, Note_on_c, 0, 84, 0
2, 61200, Note_on_c, 0, 84, 110
2, 61260, Note_on_c, 0, 84, 0
2, 61260, Note_on_c, 0, 74, 110
2, 61320, Note_on_c, 0, 74, 0
2, 61320, Note_on_c, 0, 74, 110
2, 61500, Note_on_c, 0, 74, 0
2, 61500, Note_on_c, 0, 76, 110
2, 61560, Note_on_c, 0, 76, 0
2, 61560, Note_on_c, 0, 76, 110
2, 61620, Note_on_c, 0, 76, 0
2, 61620, Note_on_c, 0, 77, 110
2, 61680, Note_on_c, 0, 77, 0
2, 61680, Note_on_c, 0, 77, 110
2, 61860, Note_on_c, 0, 77, 0
2, 61860, Note_on_c, 0, 79, 110
2, 61920, Note_on_c, 0, 79, 0
2, 61920, Note_on_c, 0, 81, 110
2, 62040, Note_on_c, 0, 81, 0
2, 62040, Note_on_c, 0, 79, 110
2, 62220, Note_on_c, 0, 79, 0
2, 62220, Note_on_c, 0, 77, 110
2, 62280, Note_on_c, 0, 77, 0
2, 62280, Note_on_c, 0, 76, 110
2, 62370, Note_on_c, 0, 76, 110
2, 62370, Note_on_c, 0, 79, 110
2, 62400, Note_on_c, 0, 79, 0
2, 62400, Note_on_c, 0, 76, 0
2, 62400, Note_on_c, 0, 76, 0
2, 62400, Note_on_c, 0, 74, 110
2, 62400, Note_on_c, 0, 77, 110
2, 62490, Note_on_c, 0, 72, 110
2, 62490, Note_on_c, 0, 76, 110
2, 62520, Note_on_c, 0, 76, 0
2, 62520, Note_on_c, 0, 74, 0
2, 62520, Note_on_c, 0, 77, 0
2, 62520, Note_on_c, 0, 72, 0
2, 62520, Note_on_c, 0, 74, 110
2, 62520, Note_on_c, 0, 71, 110
2, 62640, Note_on_c, 0, 71, 0
2, 62640, Note_on_c, 0, 74, 0
2, 62640, Note_on_c, 0, 72, 110
2, 62640, Note_on_c, 0, 79, 110
2, 62760, Note_on_c, 0, 79, 0
2, 62760, Note_on_c, 0, 84, 110
2, 62940, Note_on_c, 0, 84, 0
2, 62940, Note_on_c, 0, 76, 110
2, 63000, Note_on_c, 0, 76, 0
2, 63000, Note_on_c, 0, 72, 0
2, 63000, Note_on_c, 0, 77, 110
2, 63000, Note_on_c, 0, 81, 110
2, 63120, Note_on_c, 0, 81, 0
2, 63120, Note_on_c, 0, 77, 0
2, 63120, Note_on_c, 0, 76, 110
2, 63120, Note_on_c, 0, 79, 110
2, 63240, Note_on_c, 0, 79, 0
2, 63240, Note_on_c, 0, 76, 0
2, 63240, Note_on_c, 0, 71, 110
2, 63240, Note_on_c, 0, 74, 110
2, 63360, Note_on_c, 0, 74, 0
2, 63360, Note_on_c, 0, 71, 0
2, 63360, Note_on_c, 0, 72, 110
2, 63360, Note_on_c, 0, 76, 110
2, 63840, Note_on_c, 0, 76, 0
2, 63840, Note_on_c, 0, 72, 0
2, 64080, Note_on_c, 0, 77, 110
2, 64080, Note_on_c, 0, 72, 110
2, 64320, Note_on_c, 0, 72, 0
2, 64320, Note_on_c, 0, 77, 0
2, 64320, Note_on_c, 0, 77, 110
2, 64320, Note_on_c, 0, 81, 110
2, 64440, Note_on_c, 0, 81, 0
2, 64440, Note_on_c, 0, 77, 0
2, 64800, Note_on_c, 0, 73, 110
2, 64800, Note_on_c, 0, 76, 110
2, 65160, Note_on_c, 0, 76, 0
2, 65160, Note_on_c, 0, 81, 110
2, 65280, Note_on_c, 0, 81, 0
2, 65280, Note_on_c, 0, 73, 0
2, 65520, Note_on_c, 0, 69, 110
2, 65520, Note_on_c, 0, 74, 110
2, 65760, Note_on_c, 0, 74, 0
2, 65760, Note_on_c, 0, 77, 110
2, 65880, Note_on_c, 0, 77, 0
2, 65880, Note_on_c, 0, 69, 0
2, 65880, Note_on_c, 0, 74, 110
2, 65880, Note_on_c, 0, 81, 110
2, 66000, Note_on_c, 0, 81, 0
2, 66000, Note_on_c, 0, 74, 0
2, 66240, Note_on_c, 0, 81, 110
2, 66240, Note_on_c, 0, 84, 110
2, 66960, Note_on_c, 0, 84, 0
2, 66960, Note_on_c, 0, 81, 0
2, 66960, Note_on_c, 0, 79, 110
2, 66960, Note_on_c, 0, 83, 110
2, 67080, Note_on_c, 0, 83, 0
2, 67080, Note_on_c, 0, 79, 0
2, 67080, Note_on_c, 0, 71, 110
2, 67080, Note_on_c, 0, 77, 110
2, 67680, Note_on_c, 0, 77, 0
2, 67680, Note_on_c, 0, 71, 0
2, 67680, Note_on_c, 0, 72, 110
2, 67680, Note_on_c, 0, 76, 110
2, 68040, Note_on_c, 0, 76, 0
2, 68040, Note_on_c, 0, 77, 110
2, 68400, Note_on_c, 0, 77, 0
2, 68400, Note_on_c, 0, 79, 110
2, 68760, Note_on_c, 0, 79, 0
2, 68760, Note_on_c, 0, 72, 0
2, 68760, Note_on_c, 0, 72, 110
2, 68760, Note_on_c, 0, 81, 110
2, 68790, Note_on_c, 0, 81, 0
2, 68790, Note_on_c, 0, 72, 0
2, 68820, Note_on_c, 0, 71, 110
2, 68820, Note_on_c, 0, 79, 110
2, 68850, Note_on_c, 0, 79, 0
2, 68850, Note_on_c, 0, 71, 0
2, 68880, Note_on_c, 0, 69, 110
2, 68880, Note_on_c, 0, 77, 110
2, 68910, Note_on_c, 0, 77, 0
2, 68910, Note_on_c, 0, 69, 0
2, 68940, Note_on_c, 0, 67, 110
2, 68940, Note_on_c, 0, 76, 110
2, 68970, Note_on_c, 0, 76, 0
2, 68970, Note_on_c, 0, 67, 0
2, 69000, Note_on_c, 0, 65, 110
2, 69000, Note_on_c, 0, 74, 110
2, 69030, Note_on_c, 0, 74, 0
2, 69030, Note_on_c, 0, 65, 0
2, 69060, Note_on_c, 0, 64, 110
2, 69060, Note_on_c, 0, 72, 110
2, 69090, Note_on_c, 0, 72, 0
2, 69090, Note_on_c, 0, 64, 0
2, 69120, Note_on_c, 0, 62, 110
2, 69120, Note_on_c, 0, 71, 110
2, 69240, Note_on_c, 0, 71, 0
2, 69240, Note_on_c, 0, 62, 0
2, 69240, Note_on_c, 0, 67, 110
2, 69360, Note_on_c, 0, 67, 0
2, 70320, Note_on_c, 0, 71, 70
2, 70320, Note_on_c, 0, 74, 70
2, 70350, Note_on_c, 0, 74, 0
2, 70350, Note_on_c, 0, 71, 0
2, 70350, Note_on_c, 0, 72, 70
2, 70350, Note_on_c, 0, 76, 70
2, 70380, Note_on_c, 0, 76, 0
2, 70380, Note_on_c, 0, 72, 0
2, 70380, Note_on_c, 0, 71, 70
2, 70380, Note_on_c, 0, 74, 70
2, 70410, Note_on_c, 0, 74, 0
2, 70410, Note_on_c, 0, 71, 0
2, 70410, Note_on_c, 0, 72, 70
2, 70410, Note_on_c, 0, 76, 70
2, 70440, Note_on_c, 0, 76, 0
2, 70440, Note_on_c, 0, 72, 0
2, 70440, Note_on_c, 0, 74, 70
2, 70440, Note_on_c, 0, 77, 70
2, 70560, Note_on_c, 0, 77, 0
2, 70560, Note_on_c, 0, 74, 0
2, 70680, Note_on_c, 0, 72, 70
2, 70680, Note_on_c, 0, 76, 70
2, 70710, Note_on_c, 0, 76, 0
2, 70710, Note_on_c, 0, 72, 0
2, 70710, Note_on_c, 0, 74, 70
2, 70710, Note_on_c, 0, 77, 70
2, 70740, Note_on_c, 0, 77, 0
2, 70740, Note_on_c, 0, 74, 0
2, 70740, Note_on_c, 0, 72, 70
2, 70740, Note_on_c, 0, 76, 70
2, 70770, Note_on_c, 0, 76, 0
2, 70770, Note_on_c, 0, 72, 0
2, 70770, Note_on_c, 0, 74, 70
2, 70770, Note_on_c, 0, 77, 70
2, 70800, Note_on_c, 0, 77, 0
2, 70800, Note_on_c, 0, 74, 0
2, 70800, Note_on_c, 0, 76, 70
2, 70800, Note_on_c, 0, 79, 70
2, 70920, Note_on_c, 0, 79, 0
2, 70920, Note_on_c, 0, 76, 0
2, 72360, Note_on_c, 0, 76, 71
2, 72360, Note_on_c, 0, 79, 71
2, 72420, Note_on_c, 0, 79, 0
2, 72420, Note_on_c, 0, 76, 0
2, 72480, Note_on_c, 0, 76, 71
2, 72480, Note_on_c, 0, 79, 71
2, 72540, Note_on_c, 0, 79, 0
2, 72540, Note_on_c, 0, 76, 0
2, 72600, Note_on_c, 0, 76, 71
2, 72600, Note_on_c, 0, 79, 71
2, 72660, Note_on_c, 0, 79, 0
2, 72660, Note_on_c, 0, 76, 0
2, 72720, Note_on_c, 0, 77, 71
2, 72720, Note_on_c, 0, 81, 71
2, 72900, Note_on_c, 0, 81, 0
2, 72900, Note_on_c, 0, 77, 0
2, 72900, Note_on_c, 0, 79, 71
2, 72900, Note_on_c, 0, 83, 71
2, 72960, Note_on_c, 0, 83, 0
2, 72960, Note_on_c, 0, 79, 0
2, 72960, Note_on_c, 0, 81, 71
2, 72960, Note_on_c, 0, 84, 71
2, 73080, Note_on_c, 0, 84, 0
2, 73080, Note_on_c, 0, 81, 0
2, 73080, Note_on_c, 0, 71, 71
2, 73080, Note_on_c, 0, 74, 71
2, 73095, Note_on_c, 0, 74, 0
2, 73095, Note_on_c, 0, 71, 0
2, 73095, Note_on_c, 0, 72, 71
2, 73095, Note_on_c, 0, 76, 71
2, 73110, Note_on_c, 0, 76, 0
2, 73110, Note_on_c, 0, 72, 0
2, 73110, Note_on_c, 0, 77, 71
2, 73110, Note_on_c, 0, 74, 71
2, 73200, Note_on_c, 0, 74, 0
2, 73200, Note_on_c, 0, 77, 0
2, 73440, Note_on_c, 0, 72, 71
2, 73440, Note_on_c, 0, 76, 71
2, 73455, Note_on_c, 0, 76, 0
2, 73455, Note_on_c, 0, 72, 0
2, 73455, Note_on_c, 0, 77, 71
2, 73455, Note_on_c, 0, 74, 71
2, 73470, Note_on_c, 0, 74, 0
2, 73470, Note_on_c, 0, 77, 0
2, 73470, Note_on_c, 0, 79, 71
2, 73470, Note_on_c, 0, 76, 71
2, 73560, Note_on_c, 0, 76, 0
2, 73560, Note_on_c, 0, 79, 0
2, 73800, Note_on_c, 0, 76, 71
2, 73800, Note_on_c, 0, 79, 71
2, 73860, Note_on_c, 0, 79, 0
2, 73860, Note_on_c, 0, 76, 0
2, 73920, Note_on_c, 0, 76, 71
2, 73920, Note_on_c, 0, 79, 71
2, 73980, Note_on_c, 0, 79, 0
2, 73980, Note_on_c, 0, 76, 0
2, 74040, Note_on_c, 0, 76, 71
2, 74040, Note_on_c, 0, 79, 71
2, 74100, Note_on_c, 0, 79, 0
2, 74100, Note_on_c, 0, 76, 0
2, 74160, Note_on_c, 0, 77, 71
2, 74160, Note_on_c, 0, 81, 71
2, 74250, Note_on_c, 0, 81, 0
2, 74250, Note_on_c, 0, 77, 0
2, 74250, Note_on_c, 0, 83, 71
2, 74250, Note_on_c, 0, 79, 71
2, 74280, Note_on_c, 0, 79, 0
2, 74280, Note_on_c, 0, 83, 0
2, 74280, Note_on_c, 0, 84, 71
2, 74280, Note_on_c, 0, 81, 71
2, 74340, Note_on_c, 0, 81, 0
2, 74340, Note_on_c, 0, 84, 0
2, 74340, Note_on_c, 0, 79, 71
2, 74340, Note_on_c, 0, 83, 71
2, 74370, Note_on_c, 0, 83, 0
2, 74370, Note_on_c, 0, 79, 0
2, 74400, Note_on_c, 0, 77, 71
2, 74400, Note_on_c, 0, 81, 71
2, 74430, Note_on_c, 0, 81, 0
2, 74430, Note_on_c, 0, 77, 0
2, 74460, Note_on_c, 0, 76, 71
2, 74460, Note_on_c, 0, 79, 71
2, 74490, Note_on_c, 0, 79, 0
2, 74490, Note_on_c, 0, 76, 0
2, 74520, Note_on_c, 0, 72, 110
2, 74640, Note_on_c, 0, 72, 0
2, 75600, Note_on_c, 0, 72, 110
2, 75600, Note_on_c, 0, 84, 110
2, 75660, Note_on_c, 0, 84, 0
2, 75660, Note_on_c, 0, 72, 0
2, 75660, Note_on_c, 0, 71, 110
2, 75660, Note_on_c, 0, 83, 110
2, 75720, Note_on_c, 0, 83, 0
2, 75720, Note_on_c, 0, 71, 0
2, 75720, Note_on_c, 0, 72, 110
2, 75720, Note_on_c, 0, 84, 110
2, 75780, Note_on_c, 0, 84, 0
2, 75780, Note_on_c, 0, 72, 0
2, 75780, Note_on_c, 0, 71, 110
2, 75780, Note_on_c, 0, 83, 110
2, 75840, Note_on_c, 0, 83, 0
2, 75840, Note_on_c, 0, 71, 0
2, 75840, Note_on_c, 0, 72, 110
2, 75840, Note_on_c, 0, 84, 110
2, 75900, Note_on_c, 0, 84, 0
2, 75900, Note_on_c, 0, 72, 0
2, 75900, Note_on_c, 0, 81, 110
2, 75960, Note_on_c, 0, 81, 0
2, 75960, Note_on_c, 0, 79, 110
2, 75960, Note_on_c, 0, 84, 110
2, 76020, Note_on_c, 0, 84, 0
2, 76020, Note_on_c, 0, 79, 0
2, 76020, Note_on_c, 0, 77, 110
2, 76020, Note_on_c, 0, 83, 110
2, 76080, Note_on_c, 0, 83, 0
2, 76080, Note_on_c, 0, 77, 0
2, 76080, Note_on_c, 0, 76, 110
2, 76080, Note_on_c, 0, 84, 110
2, 76140, Note_on_c, 0, 84, 0
2, 76140, Note_on_c, 0, 76, 0
2, 76140, Note_on_c, 0, 77, 110
2, 76140, Note_on_c, 0, 83, 110
2, 76200, Note_on_c, 0, 83, 0
2, 76200, Note_on_c, 0, 77, 0
2, 76200, Note_on_c, 0, 79, 110
2, 76200, Note_on_c, 0, 84, 110
2, 76260, Note_on_c, 0, 84, 0
2, 76260, Note_on_c, 0, 79, 0
2, 76260, Note_on_c, 0, 72, 110
2, 76260, Note_on_c, 0, 76, 110
2, 76320, Note_on_c, 0, 76, 0
2, 76320, Note_on_c, 0, 72, 0
2, 76320, Note_on_c, 0, 72, 110
2, 76320, Note_on_c, 0, 77, 110
2, 76440, Note_on_c, 0, 77, 0
2, 76440, Note_on_c, 0, 72, 0
2, 76440, Note_on_c, 0, 71, 110
2, 76440, Note_on_c, 0, 77, 110
2, 76560, Note_on_c, 0, 77, 0
2, 76560, Note_on_c, 0, 71, 0
2, 76560, Note_on_c, 0, 69, 110
2, 76560, Note_on_c, 0, 77, 110
2, 76680, Note_on_c, 0, 77, 0
2, 76680, Note_on_c, 0, 69, 0
2, 76680, Note_on_c, 0, 67, 110
2, 76680, Note_on_c, 0, 77, 110
2, 76800, Note_on_c, 0, 67, 0
2, 76800, Note_on_c, 0, 71, 110
2, 76920, Note_on_c, 0, 71, 0
2, 76920, Note_on_c, 0, 77, 0
2, 76920, Note_on_c, 0, 72, 110
2, 76920, Note_on_c, 0, 76, 110
2, 77040, Note_on_c, 0, 76, 0
2, 77040, Note_on_c, 0, 72, 0
2, 77040, Note_on_c, 0, 74, 110
2, 77040, Note_on_c, 0, 77, 110
2, 77160, Note_on_c, 0, 77, 0
2, 77160, Note_on_c, 0, 74, 0
2, 77160, Note_on_c, 0, 72, 110
2, 77160, Note_on_c, 0, 76, 110
2, 77280, Note_on_c, 0, 76, 0
2, 77280, Note_on_c, 0, 72, 0
2, 77280, Note_on_c, 0, 71, 110
2, 77280, Note_on_c, 0, 74, 110
2, 77400, Note_on_c, 0, 74, 0
2, 77400, Note_on_c, 0, 71, 0
2, 77400, Note_on_c, 0, 72, 110
2, 77520, Note_on_c, 0, 72, 0
2, 77520, Note_on_c, 0, 73, 110
2, 77520, Note_on_c, 0, 82, 110
2, 77640, Note_on_c, 0, 82, 0
2, 77640, Note_on_c, 0, 73, 0
2, 77640, Note_on_c, 0, 74, 110
2, 77640, Note_on_c, 0, 81, 110
2, 77760, Note_on_c, 0, 81, 0
2, 77760, Note_on_c, 0, 74, 0
2, 77760, Note_on_c, 0, 76, 110
2, 77760, Note_on_c, 0, 79, 110
2, 77880, Note_on_c, 0, 79, 0
2, 77880, Note_on_c, 0, 76, 0
2, 77880, Note_on_c, 0, 78, 110
2, 77880, Note_on_c, 0, 69, 110
2, 78000, Note_on_c, 0, 69, 0
2, 78000, Note_on_c, 0, 78, 0
2, 79320, Note_on_c, 0, 76, 110
2, 79320, Note_on_c, 0, 79, 110
2, 79440, Note_on_c, 0, 79, 0
2, 79440, Note_on_c, 0, 76, 0
2, 79440, Note_on_c, 0, 74, 110
2, 79440, Note_on_c, 0, 77, 110
2, 79560, Note_on_c, 0, 77, 0
2, 79560, Note_on_c, 0, 74, 0
2, 79560, Note_on_c, 0, 72, 110
2, 79560, Note_on_c, 0, 76, 110
2, 79680, Note_on_c, 0, 76, 0
2, 79680, Note_on_c, 0, 72, 0
2, 79680, Note_on_c, 0, 72, 110
2, 79680, Note_on_c, 0, 76, 110
2, 79800, Note_on_c, 0, 76, 0
2, 79800, Note_on_c, 0, 72, 0
2, 79800, Note_on_c, 0, 71, 110
2, 79800, Note_on_c, 0, 74, 110
2, 79920, Note_on_c, 0, 74, 0
2, 79920, Note_on_c, 0, 71, 0
2, 79920, Note_on_c, 0, 72, 110
2, 80040, Note_on_c, 0, 72, 0
2, 80040, Note_on_c, 0, 76, 110
2, 80040, Note_on_c, 0, 79, 110
2, 80160, Note_on_c, 0, 79, 0
2, 80160, Note_on_c, 0, 76, 0
2, 80160, Note_on_c, 0, 74, 110
2, 80160, Note_on_c, 0, 77, 110
2, 80280, Note_on_c, 0, 77, 0
2, 80280, Note_on_c, 0, 74, 0
2, 80280, Note_on_c, 0, 72, 110
2, 80280, Note_on_c, 0, 76, 110
2, 80400, Note_on_c, 0, 76, 0
2, 80400, Note_on_c, 0, 72, 0
2, 80400, Note_on_c, 0, 72, 110
2, 80400, Note_on_c, 0, 76, 110
2, 80520, Note_on_c, 0, 76, 0
2, 80520, Note_on_c, 0, 72, 0
2, 80520, Note_on_c, 0, 71, 110
2, 80520, Note_on_c, 0, 74, 110
2, 80640, Note_on_c, 0, 74, 0
2, 80640, Note_on_c, 0, 71, 0
2, 80640, Note_on_c, 0, 72, 110
2, 80760, Note_on_c, 0, 72, 0
2, 80880, Note_on_c, 0, 77, 110
2, 80880, Note_on_c, 0, 83, 110
2, 81000, Note_on_c, 0, 83, 0
2, 81000, Note_on_c, 0, 77, 0
2, 81000, Note_on_c, 0, 76, 110
2, 81000, Note_on_c, 0, 84, 110
2, 81120, Note_on_c, 0, 84, 0
2, 81120, Note_on_c, 0, 76, 0
2, 81240, Note_on_c, 0, 77, 110
2, 81240, Note_on_c, 0, 83, 110
2, 81360, Note_on_c, 0, 83, 0
2, 81360, Note_on_c, 0, 77, 0
2, 81360, Note_on_c, 0, 72, 110
2, 81480, Note_on_c, 0, 72, 0
2, 81480, Note_on_c, 0, 67, 110
2, 81600, Note_on_c, 0, 67, 0
2, 81720, Note_on_c, 0, 64, 110
2, 81840, Note_on_c, 0, 64, 0
2, 81840, Note_on_c, 0, 60, 110
2, 81960, Note_on_c, 0, 60, 0
2, 83520, Note_on_c, 0, 72, 110
2, 83640, Note_on_c, 0, 72, 0
2, 83880, Note_on_c, 0, 67, 110
2, 83880, Note_on_c, 0, 76, 110
2, 84000, Note_on_c, 0, 76, 0
2, 84000, Note_on_c, 0, 67, 0
2, 84240, Note_on_c, 0, 72, 110
2, 84240, Note_on_c, 0, 77, 110
2, 84360, Note_on_c, 0, 77, 0
2, 84360, Note_on_c, 0, 72, 0
2, 84600, Note_on_c, 0, 76, 110
2, 84600, Note_on_c, 0, 82, 110
2, 84720, Note_on_c, 0, 82, 0
2, 84720, Note_on_c, 0, 76, 0
2, 84960, Note_on_c, 0, 77, 110
2, 84960, Note_on_c, 0, 81, 110
2, 85080, Note_on_c, 0, 81, 0
2, 85080, Note_on_c, 0, 77, 0
2, 88920, Note_on_c, 0, 67, 70
2, 88920, Note_on_c, 0, 79, 70
2, 90360, Note_on_c, 0, 79, 0
2, 90360, Note_on_c, 0, 67, 0
2, 90480, Note_on_c, 0, 67, 70
2, 90480, Note_on_c, 0, 71, 70
2, 90510, Note_on_c, 0, 71, 0
2, 90510, Note_on_c, 0, 67, 0
2, 90510, Note_on_c, 0, 69, 70
2, 90510, Note_on_c, 0, 72, 70
2, 90540, Note_on_c, 0, 72, 0
2, 90540, Note_on_c, 0, 69, 0
2, 90540, Note_on_c, 0, 67, 70
2, 90540, Note_on_c, 0, 71, 70
2, 90570, Note_on_c, 0, 71, 0
2, 90570, Note_on_c, 0, 67, 0
2, 90570, Note_on_c, 0, 69, 70
2, 90570, Note_on_c, 0, 72, 70
2, 90600, Note_on_c, 0, 72, 0
2, 90600, Note_on_c, 0, 69, 0
2, 90600, Note_on_c, 0, 71, 70
2, 90600, Note_on_c, 0, 74, 70
2, 90720, Note_on_c, 0, 74, 0
2, 90720, Note_on_c, 0, 71, 0
2, 90840, Note_on_c, 0, 69, 70
2, 90840, Note_on_c, 0, 72, 70
2, 90870, Note_on_c, 0, 72, 0
2, 90870, Note_on_c, 0, 69, 0
2, 90870, Note_on_c, 0, 71, 70
2, 90870, Note_on_c, 0, 74, 70
2, 90900, Note_on_c, 0, 74, 0
2, 90900, Note_on_c, 0, 71, 0
2, 90900, Note_on_c, 0, 69, 70
2, 90900, Note_on_c, 0, 72, 70
2, 90930, Note_on_c, 0, 72, 0
2, 90930, Note_on_c, 0, 69, 0
2, 90930, Note_on_c, 0, 71, 70
2, 90930, Note_on_c, 0, 74, 70
2, 90960, Note_on_c, 0, 74, 0
2, 90960, Note_on_c, 0, 71, 0
2, 90960, Note_on_c, 0, 72, 70
2, 90960, Note_on_c, 0, 76, 70
2, 91080, Note_on_c, 0, 76, 0
2, 91080, Note_on_c, 0, 72, 0
2, 91080, Note_on_c, 0, 74, 70
2, 91080, Note_on_c, 0, 77, 70
2, 91200, Note_on_c, 0, 77, 0
2, 91200, Note_on_c, 0, 74, 0
2, 91800, Note_on_c, 0, 72, 110
2, 91920, Note_on_c, 0, 72, 0
2, 91920, Note_on_c, 0, 67, 110
2, 92040, Note_on_c, 0, 67, 0
2, 92160, Note_on_c, 0, 64, 110
2, 92280, Note_on_c, 0, 64, 0
2, 92280, Note_on_c, 0, 60, 110
2, 92400, Note_on_c, 0, 60, 0
2, 93960, Note_on_c, 0, 72, 110
2, 94080, Note_on_c, 0, 72, 0
2, 94080, Note_on_c, 0, 67, 110
2, 94200, Note_on_c, 0, 67, 0
2, 94320, Note_on_c, 0, 64, 110
2, 94440, Note_on_c, 0, 64, 0
2, 94440, Note_on_c, 0, 60, 110
2, 94560, Note_on_c, 0, 60, 0
2, 96120, Note_on_c, 0, 72, 110
2, 96240, Note_on_c, 0, 72, 0
2, 96240, Note_on_c, 0, 72, 110
2, 96300, Note_on_c, 0, 72, 0
2, 96300, Note_on_c, 0, 76, 110
2, 96360, Note_on_c, 0, 76, 0
2, 96360, Note_on_c, 0, 79, 110
2, 96420, Note_on_c, 0, 79, 0
2, 96420, Note_on_c, 0, 84, 110
2, 96480, Note_on_c, 0, 84, 0
2, 96480, Note_on_c, 0, 84, 110
2, 96540, Note_on_c, 0, 84, 0
2, 96540, Note_on_c, 0, 74, 110
2, 96600, Note_on_c, 0, 74, 0
2, 96600, Note_on_c, 0, 74, 110
2, 96780, Note_on_c, 0, 74, 0
2, 96780, Note_on_c, 0, 76, 110
2, 96840, Note_on_c, 0, 76, 0
2, 96840, Note_on_c, 0, 76, 110
2, 96900, Note_on_c, 0, 76, 0
2, 96900, Note_on_c, 0, 77, 110
2, 96960, Note_on_c, 0, 77, 0
2, 96960, Note_on_c, 0, 77, 110
2, 97140, Note_on_c, 0, 77, 0
2, 97140, Note_on_c, 0, 79, 110
2, 97200, Note_on_c, 0, 79, 0
2, 97200, Note_on_c, 0, 81, 110
2, 97320, Note_on_c, 0, 81, 0
2, 97320, Note_on_c, 0, 79, 110
2, 97500, Note_on_c, 0, 79, 0
2, 97500, Note_on_c, 0, 77, 110
2, 97560, Note_on_c, 0, 77, 0
2, 97560, Note_on_c, 0, 76, 110
2, 97650, Note_on_c, 0, 76, 110
2, 97650, Note_on_c, 0, 79, 110
2, 97680, Note_on_c, 0, 79, 0
2, 97680, Note_on_c, 0, 76, 0
2, 97680, Note_on_c, 0, 76, 0
2, 97680, Note_on_c, 0, 74, 110
2, 97680, Note_on_c, 0, 77, 110
2, 97770, Note_on_c, 0, 72, 110
2, 97770, Note_on_c, 0, 76, 110
2, 97800, Note_on_c, 0, 76, 0
2, 97800, Note_on_c, 0, 74, 0
2, 97800, Note_on_c, 0, 77, 0
2, 97800, Note_on_c, 0, 72, 0
2, 97800, Note_on_c, 0, 74, 110
2, 97800, Note_on_c, 0, 71, 110
2, 97920, Note_on_c, 0, 71, 0
2, 97920, Note_on_c, 0, 74, 0
2, 97920, Note_on_c, 0, 72, 110
2, 97920, Note_on_c, 0, 79, 110
2, 98040, Note_on_c, 0, 79, 0
2, 98040, Note_on_c, 0, 84, 110
2, 98220, Note_on_c, 0, 84, 0
2, 98220, Note_on_c, 0, 76, 110
2, 98280, Note_on_c, 0, 76, 0
2, 98280, Note_on_c, 0, 72, 0
2, 98280, Note_on_c, 0, 77, 110
2, 98280, Note_on_c, 0, 81, 110
2, 98400, Note_on_c, 0, 81, 0
2, 98400, Note_on_c, 0, 77, 0
2, 98400, Note_on_c, 0, 76, 110
2, 98400, Note_on_c, 0, 79, 110
2, 98520, Note_on_c, 0, 79, 0
2, 98520, Note_on_c, 0, 76, 0
2, 98520, Note_on_c, 0, 71, 110
2, 98520, Note_on_c, 0, 74, 110
2, 98640, Note_on_c, 0, 74, 0
2, 98640, Note_on_c, 0, 71, 0
2, 98640, Note_on_c, 0, 72, 110
2, 98640, Note_on_c, 0, 76, 110
2, 99120, Note_on_c, 0, 76, 0
2, 99120, Note_on_c, 0, 72, 0
2, 99360, Note_on_c, 0, 77, 110
2, 99360, Note_on_c, 0, 72, 110
2, 99600, Note_on_c, 0, 72, 0
2, 99600, Note_on_c, 0, 77, 0
2, 99600, Note_on_c, 0, 77, 110
2, 99600, Note_on_c, 0, 81, 110
2, 99720, Note_on_c, 0, 81, 0
2, 99720, Note_on_c, 0, 77, 0
2, 100080, Note_on_c, 0, 73, 110
2, 100080, Note_on_c, 0, 76, 110
2, 100440, Note_on_c, 0, 76, 0
2, 100440, Note_on_c, 0, 81, 110
2, 100560, Note_on_c, 0, 81, 0
2, 100560, Note_on_c, 0, 73, 0
2, 100800, Note_on_c, 0, 69, 110
2, 100800, Note_on_c, 0, 74, 110
2, 101040, Note_on_c, 0, 74, 0
2, 101040, Note_on_c, 0, 77, 110
2, 101160, Note_on_c, 0, 77, 0
2, 101160, Note_on_c, 0, 69, 0
2, 101160, Note_on_c, 0, 74, 110
2, 101160, Note_on_c, 0, 81, 110
2, 101280, Note_on_c, 0, 81, 0
2, 101280, Note_on_c, 0, 74, 0
2, 101520, Note_on_c, 0, 81, 110
2, 101520, Note_on_c, 0, 84, 110
2, 102240, Note_on_c, 0, 84, 0
2, 102240, Note_on_c, 0, 81, 0
2, 102240, Note_on_c, 0, 79, 110
2, 102240, Note_on_c, 0, 83, 110
2, 102360, Note_on_c, 0, 83, 0
2, 102360, Note_on_c, 0, 79, 0
2, 102360, Note_on_c, 0, 71, 110
2, 102360, Note_on_c, 0, 77, 110
2, 102960, Note_on_c, 0, 77, 0
2, 102960, Note_on_c, 0, 71, 0
2, 102960, Note_on_c, 0, 72, 110
2, 102960, Note_on_c, 0, 76, 110
2, 103320, Note_on_c, 0, 76, 0
2, 103320, Note_on_c, 0, 77, 110
2, 103680, Note_on_c, 0, 77, 0
2, 103680, Note_on_c, 0, 79, 110
2, 104040, Note_on_c, 0, 79, 0
2, 104040, Note_on_c, 0, 72, 0
2, 104040, Note_on_c, 0, 72, 110
2, 104040, Note_on_c, 0, 81, 110
2, 104070, Note_on_c, 0, 81, 0
2, 104070, Note_on_c, 0, 72, 0
2, 104100, Note_on_c, 0, 71, 110
2, 104100, Note_on_c, 0, 79, 110
2, 104130, Note_on_c, 0, 79, 0
2, 104130, Note_on_c, 0, 71, 0
2, 104160, Note_on_c, 0, 69, 110
2, 104160, Note_on_c, 0, 77, 110
2, 104190, Note_on_c, 0, 77, 0
2, 104190, Note_on_c, 0, 69, 0
2, 104220, Note_on_c, 0, 67, 110
2, 104220, Note_on_c, 0, 76, 110
2, 104250, Note_on_c, 0, 76, 0
2, 104250, Note_on_c, 0, 67, 0
2, 104280, Note_on_c, 0, 65, 110
2, 104280, Note_on_c, 0, 74, 110
2, 104310, Note_on_c, 0, 74, 0
2, 104310, Note_on_c, 0, 65, 0
2, 104340, Note_on_c, 0, 64, 110
2, 104340, Note_on_c, 0, 72, 110
2, 104370, Note_on_c, 0, 72, 0
2, 104370, Note_on_c, 0, 64, 0
2, 104400, Note_on_c, 0, 62, 110
2, 104400, Note_on_c, 0, 71, 110
2, 104520, Note_on_c, 0, 71, 0
2, 104520, Note_on_c, 0, 62, 0
2, 104520, Note_on_c, 0, 67, 110
2, 104640, Note_on_c, 0, 67, 0
2, 105600, Note_on_c, 0, 71, 70
2, 105600, Note_on_c, 0, 74, 70
2, 105630, Note_on_c, 0, 74, 0
2, 105630, Note_on_c, 0, 71, 0
2, 105630, Note_on_c, 0, 72, 70
2, 105630, Note_on_c, 0, 76, 70
2, 105660, Note_on_c, 0, 76, 0
2, 105660, Note_on_c, 0, 72, 0
2, 105660, Note_on_c, 0, 71, 70
2, 105660, Note_on_c, 0, 74, 70
2, 105690, Note_on_c, 0, 74, 0
2, 105690, Note_on_c, 0, 71, 0
2, 105690, Note_on_c, 0, 72, 70
2, 105690, Note_on_c, 0, 76, 70
2, 105720, Note_on_c, 0, 76, 0
2, 105720, Note_on_c, 0, 72, 0
2, 105720, Note_on_c, 0, 74, 70
2, 105720, Note_on_c, 0, 77, 70
2, 105840, Note_on_c, 0, 77, 0
2, 105840, Note_on_c, 0, 74, 0
2, 105960, Note_on_c, 0, 72, 70
2, 105960, Note_on_c, 0, 76, 70
2, 105990, Note_on_c, 0, 76, 0
2, 105990, Note_on_c, 0, 72, 0
2, 105990, Note_on_c, 0, 74, 70
2, 105990, Note_on_c, 0, 77, 70
2, 106020, Note_on_c, 0, 77, 0
2, 106020, Note_on_c, 0, 74, 0
2, 106020, Note_on_c, 0, 72, 70
2, 106020, Note_on_c, 0, 76, 70
2, 106050, Note_on_c, 0, 76, 0
2, 106050, Note_on_c, 0, 72, 0
2, 106050, Note_on_c, 0, 74, 70
2, 106050, Note_on_c, 0, 77, 70
2, 106080, Note_on_c, 0, 77, 0
2, 106080, Note_on_c, 0, 74, 0
2, 106080, Note_on_c, 0, 76, 70
2, 106080, Note_on_c, 0, 79, 70
2, 106200, Note_on_c, 0, 79, 0
2, 106200, Note_on_c, 0, 76, 0
2, 107640, Note_on_c, 0, 76, 71
2, 107640, Note_on_c, 0, 79, 71
2, 107700, Note_on_c, 0, 79, 0
2, 107700, Note_on_c, 0, 76, 0
2, 107760, Note_on_c, 0, 76, 71
2, 107760, Note_on_c, 0, 79, 71
2, 107820, Note_on_c, 0, 79, 0
2, 107820, Note_on_c, 0, 76, 0
2, 107880, Note_on_c, 0, 76, 71
2, 107880, Note_on_c, 0, 79, 71
2, 107940, Note_on_c, 0, 79, 0
2, 107940, Note_on_c, 0, 76, 0
2, 108000, Note_on_c, 0, 77, 71
2, 108000, Note_on_c, 0, 81, 71
2, 108180, Note_on_c, 0, 81, 0
2, 108180, Note_on_c, 0, 77, 0
2, 108180, Note_on_c, 0, 79, 71
2, 108180, Note_on_c, 0, 83, 71
2, 108240, Note_on_c, 0, 83, 0
2, 108240, Note_on_c, 0, 79, 0
2, 108240, Note_on_c, 0, 81, 71
2, 108240, Note_on_c, 0, 84, 71
2, 108360, Note_on_c, 0, 84, 0
2, 108360, Note_on_c, 0, 81, 0
2, 108360, Note_on_c, 0, 71, 71
2, 108360, Note_on_c, 0, 74, 71
2, 108375, Note_on_c, 0, 74, 0
2, 108375, Note_on_c, 0, 71, 0
2, 108375, Note_on_c, 0, 72, 71
2, 108375, Note_on_c, 0, 76, 71
2, 108390, Note_on_c, 0, 76, 0
2, 108390, Note_on_c, 0, 72, 0
2, 108390, Note_on_c, 0, 77, 71
2, 108390, Note_on_c, 0, 74, 71
2, 108480, Note_on_c, 0, 74, 0
2, 108480, Note_on_c, 0, 77, 0
2, 108720, Note_on_c, 0, 72, 71
2, 108720, Note_on_c, 0, 76, 71
2, 108735, Note_on_c, 0, 76, 0
2, 108735, Note_on_c, 0, 72, 0
2, 108735, Note_on_c, 0, 77, 71
2, 108735, Note_on_c, 0, 74, 71
2, 108750, Note_on_c, 0, 74, 0
2, 108750, Note_on_c, 0, 77, 0
2, 108750, Note_on_c, 0, 79, 71
2, 108750, Note_on_c, 0, 76, 71
2, 108840, Note_on_c, 0, 76, 0
2, 108840, Note_on_c, 0, 79, 0
2, 109080, Note_on_c, 0, 76, 71
2, 109080, Note_on_c, 0, 79, 71
2, 109140, Note_on_c, 0, 79, 0
2, 109140, Note_on_c, 0, 76, 0
2, 109200, Note_on_c, 0, 76, 71
2, 109200, Note_on_c, 0, 79, 71
2, 109260, Note_on_c, 0, 79, 0
2, 109260, Note_on_c, 0, 76, 0
2, 109320, Note_on_c, 0, 76, 71
2, 109320, Note_on_c, 0, 79, 71
2, 109380, Note_on_c, 0, 79, 0
2, 109380, Note_on_c, 0, 76, 0
2, 109440, Note_on_c, 0, 77, 71
2, 109440, Note_on_c, 0, 81, 71
2, 109530, Note_on_c, 0, 81, 0
2, 109530, Note_on_c, 0, 77, 0
2, 109530, Note_on_c, 0, 83, 71
2, 109530, Note_on_c, 0, 79, 71
2, 109560, Note_on_c, 0, 79, 0
2, 109560, Note_on_c, 0, 83, 0
2, 109560, Note_on_c, 0, 84, 71
2, 109560, Note_on_c, 0, 81, 71
2, 109620, Note_on_c, 0, 81, 0
2, 109620, Note_on_c, 0, 84, 0
2, 109620, Note_on_c, 0, 79, 71
2, 109620, Note_on_c, 0, 83, 71
2, 109650, Note_on_c, 0, 83, 0
2, 109650, Note_on_c, 0, 79, 0
2, 109680, Note_on_c, 0, 77, 71
2, 109680, Note_on_c, 0, 81, 71
2, 109710, Note_on_c, 0, 81, 0
2, 109710, Note_on_c, 0, 77, 0
2, 109740, Note_on_c, 0, 76, 71
2, 109740, Note_on_c, 0, 79, 71
2, 109770, Note_on_c, 0, 79, 0
2, 109770, Note_on_c, 0, 76, 0
2, 109800, Note_on_c, 0, 72, 110
2, 109920, Note_on_c, 0, 72, 0
2, 110880, Note_on_c, 0, 72, 110
2, 110880, Note_on_c, 0, 84, 110
2, 110940, Note_on_c, 0, 84, 0
2, 110940, Note_on_c, 0, 72, 0
2, 110940, Note_on_c, 0, 71, 110
2, 110940, Note_on_c, 0, 83, 110
2, 111000, Note_on_c, 0, 83, 0
2, 111000, Note_on_c, 0, 71, 0
2, 111000, Note_on_c, 0, 72, 110
2, 111000, Note_on_c, 0, 84, 110
2, 111060, Note_on_c, 0, 84, 0
2, 111060, Note_on_c, 0, 72, 0
2, 111060, Note_on_c, 0, 71, 110
2, 111060, Note_on_c, 0, 83, 110
2, 111120, Note_on_c, 0, 83, 0
2, 111120, Note_on_c, 0, 71, 0
2, 111120, Note_on_c, 0, 72, 110
2, 111120, Note_on_c, 0, 84, 110
2, 111180, Note_on_c, 0, 84, 0
2, 111180, Note_on_c, 0, 72, 0
2, 111180, Note_on_c, 0, 81, 110
2, 111240, Note_on_c, 0, 81, 0
2, 111240, Note_on_c, 0, 79, 110
2, 111240, Note_on_c, 0, 84, 110
2, 111300, Note_on_c, 0, 84, 0
2, 111300, Note_on_c, 0, 79, 0
2, 111300, Note_on_c, 0, 77, 110
2, 111300, Note_on_c, 0, 83, 110
2, 111360, Note_on_c, 0, 83, 0
2, 111360, Note_on_c, 0, 77, 0
2, 111360, Note_on_c, 0, 76, 110
2, 111360, Note_on_c, 0, 84, 110
2, 111420, Note_on_c, 0, 84, 0
2, 111420, Note_on_c, 0, 76, 0
2, 111420, Note_on_c, 0, 77, 110
2, 111420, Note_on_c, 0, 83, 110
2, 111480, Note_on_c, 0, 83, 0
2, 111480, Note_on_c, 0, 77, 0
2, 111480, Note_on_c, 0, 79, 110
2, 111480, Note_on_c, 0, 84, 110
2, 111540, Note_on_c, 0, 84, 0
2, 111540, Note_on_c, 0, 79, 0
2, 111540, Note_on_c, 0, 72, 110
2, 111540, Note_on_c, 0, 76, 110
2, 111600, Note_on_c, 0, 76, 0
2, 111600, Note_on_c, 0, 72, 0
2, 111600, Note_on_c, 0, 72, 110
2, 111600, Note_on_c, 0, 77, 110
2, 111720, Note_on_c, 0, 77, 0
2, 111720, Note_on_c, 0, 72, 0
2, 111720, Note_on_c, 0, 71, 110
2, 111720, Note_on_c, 0, 77, 110
2, 111840, Note_on_c, 0, 77, 0
2, 111840, Note_on_c, 0, 71, 0
2, 111840, Note_on_c, 0, 69, 110
2, 111840, Note_on_c, 0, 77, 110
2, 111960, Note_on_c, 0, 77, 0
2, 111960, Note_on_c, 0, 69, 0
2, 111960, Note_on_c, 0, 67, 110
2, 111960, Note_on_c, 0, 77, 110
2, 112080, Note_on_c, 0, 67, 0
2, 112080, Note_on_c, 0, 71, 110
2, 112200, Note_on_c, 0, 71, 0
2, 112200, Note_on_c, 0, 77, 0
2, 112200, Note_on_c, 0, 72, 110
2, 112200, Note_on_c, 0, 76, 110
2, 112320, Note_on_c, 0, 76, 0
2, 112320, Note_on_c, 0, 72, 0
2, 112320, Note_on_c, 0, 74, 110
2, 112320, Note_on_c, 0, 77, 110
2, 112440, Note_on_c, 0, 77, 0
2, 112440, Note_on_c, 0, 74, 0
2, 112440, Note_on_c, 0, 72, 110
2, 112440, Note_on_c, 0, 76, 110
2, 112560, Note_on_c, 0, 76, 0
2, 112560, Note_on_c, 0, 72, 0
2, 112560, Note_on_c, 0, 71, 110
2, 112560, Note_on_c, 0, 74, 110
2, 112680, Note_on_c, 0, 74, 0
2, 112680, Note_on_c, 0, 71, 0
2, 112680, Note_on_c, 0, 72, 110
2, 112800, Note_on_c, 0, 72, 0
2, 112800, Note_on_c, 0, 73, 110
2, 112800, Note_on_c, 0, 82, 110
2, 112920, Note_on_c, 0, 82, 0
2, 112920, Note_on_c, 0, 73, 0
2, 112920, Note_on_c, 0, 74, 110
2, 112920, Note_on_c, 0, 81, 110
2, 113040, Note_on_c, 0, 81, 0
2, 113040, Note_on_c, 0, 74, 0
2, 113040, Note_on_c, 0, 76, 110
2, 113040, Note_on_c, 0, 79, 110
2, 113160, Note_on_c, 0, 79, 0
2, 113160, Note_on_c, 0, 76, 0
2, 113160, Note_on_c, 0, 78, 110
2, 113160, Note_on_c, 0, 69, 110
2, 113280, Note_on_c, 0, 69, 0
2, 113280, Note_on_c, 0, 78, 0
2, 114600, Note_on_c, 0, 76, 110
2, 114600, Note_on_c, 0, 79, 110
2, 114720, Note_on_c, 0, 79, 0
2, 114720, Note_on_c, 0, 76, 0
2, 114720, Note_on_c, 0, 74, 110
2, 114720, Note_on_c, 0, 77, 110
2, 114840, Note_on_c, 0, 77, 0
2, 114840, Note_on_c, 0, 74, 0
2, 114840, Note_on_c, 0, 72, 110
2, 114840, Note_on_c, 0, 76, 110
2, 114960, Note_on_c, 0, 76, 0
2, 114960, Note_on_c, 0, 72, 0
2, 114960, Note_on_c, 0, 72, 110
2, 114960, Note_on_c, 0, 76, 110
2, 115080, Note_on_c, 0, 76, 0
2, 115080, Note_on_c, 0, 72, 0
2, 115080, Note_on_c, 0, 71, 110
2, 115080, Note_on_c, 0, 74, 110
2, 115200, Note_on_c, 0, 74, 0
2, 115200, Note_on_c, 0, 71, 0
2, 115200, Note_on_c, 0, 72, 110
2, 115320, Note_on_c, 0, 72, 0
2, 115320, Note_on_c, 0, 76, 110
2, 115320, Note_on_c, 0, 79, 110
2, 115440, Note_on_c, 0, 79, 0
2, 115440, Note_on_c, 0, 76, 0
2, 115440, Note_on_c, 0, 74, 110
2, 115440, Note_on_c, 0, 77, 110
2, 115560, Note_on_c, 0, 77, 0
2, 115560, Note_on_c, 0, 74, 0
2, 115560, Note_on_c, 0, 72, 110
2, 115560, Note_on_c, 0, 76, 110
2, 115680, Note_on_c, 0, 76, 0
2, 115680, Note_on_c, 0, 72, 0
2, 115680, Note_on_c, 0, 72, 110
2, 115680, Note_on_c, 0, 76, 110
2, 115800, Note_on_c, 0, 76, 0
2, 115800, Note_on_c, 0, 72, 0
2, 115800, Note_on_c, 0, 71, 110
2, 115800, Note_on_c, 0, 74, 110
2, 115920, Note_on_c, 0, 74, 0
2, 115920, Note_on_c, 0, 71, 0
2, 115920, Note_on_c, 0, 72, 110
2, 116040, Note_on_c, 0, 72, 0
2, 116160, Note_on_c, 0, 77, 110
2, 116160, Note_on_c, 0, 83, 110
2, 116280, Note_on_c, 0, 83, 0
2, 116280, Note_on_c, 0, 77, 0
2, 116280, Note_on_c, 0, 76, 110
2, 116280, Note_on_c, 0, 84, 110
2, 116400, Note_on_c, 0, 84, 0
2, 116400, Note_on_c, 0, 76, 0
2, 116520, Note_on_c, 0, 77, 110
2, 116520, Note_on_c, 0, 83, 110
2, 116640, Note_on_c, 0, 83, 0
2, 116640, Note_on_c, 0, 77, 0
2, 116640, Note_on_c, 0, 72, 110
2, 116760, Note_on_c, 0, 72, 0
2, 116760, Note_on_c, 0, 67, 110
2, 116880, Note_on_c, 0, 67, 0
2, 117000, Note_on_c, 0, 64, 110
2, 117120, Note_on_c, 0, 64, 0
2, 117120, Note_on_c, 0, 60, 110
2, 117240, Note_on_c, 0, 60, 0
2, 118800, Note_on_c, 0, 76, 110
2, 118800, Note_on_c, 0, 84, 110
2, 119160, Note_on_c, 0, 84, 0
2, 119160, Note_on_c, 0, 76, 0
2, 119520, Note_on_c, 0, 76, 110
2, 119520, Note_on_c, 0, 84, 110
2, 119880, Note_on_c, 0, 84, 0
2, 119880, Note_on_c, 0, 76, 0
2, 120240, Note_on_c, 0, 72, 110
2, 120360, Note_on_c, 0, 72, 0
2, 120360, Note_on_c, 0, 79, 110
2, 120480, Note_on_c, 0, 79, 0
2, 120480, Note_on_c, 0, 76, 110
2, 120600, Note_on_c, 0, 76, 0
2, 120600, Note_on_c, 0, 84, 110
2, 120720, Note_on_c, 0, 84, 0
2, 120720, Note_on_c, 0, 79, 110
2, 120840, Note_on_c, 0, 79, 0
2, 120840, Note_on_c, 0, 76, 110
2, 120960, Note_on_c, 0, 76, 0
2, 120960, Note_on_c, 0, 72, 110
2, 121080, Note_on_c, 0, 72, 0
2, 121080, Note_on_c, 0, 67, 110
2, 121200, Note_on_c, 0, 67, 0
2, 121200, Note_on_c, 0, 76, 110
2, 121320, Note_on_c, 0, 76, 0
2, 121320, Note_on_c, 0, 72, 110
2, 121440, Note_on_c, 0, 72, 0
2, 121440, End_track
3, 0, Start_track
3, 0, MIDI_port, 0
3, 0, Title_t, "Horns in C"
3, 0, Program_c, 1, 60
3, 0, Control_c, 1, 7, 110
3, 0, Control_c, 1, 10, 74
3, 0, Note_on_c, 1, 72, 110
3, 120, Note_on_c, 1, 72, 0
3, 120, Note_on_c, 1, 67, 110
3, 240, Note_on_c, 1, 67, 0
3, 360, Note_on_c, 1, 64, 110
3, 480, Note_on_c, 1, 64, 0
3, 480, Note_on_c, 1, 60, 110
3, 600, Note_on_c, 1, 60, 0
3, 2160, Note_on_c, 1, 72, 110
3, 2280, Note_on_c, 1, 72, 0
3, 2280, Note_on_c, 1, 67, 110
3, 2400, Note_on_c, 1, 67, 0
3, 2520, Note_on_c, 1, 64, 110
3, 2640, Note_on_c, 1, 64, 0
3, 2640, Note_on_c, 1, 60, 110
3, 2760, Note_on_c, 1, 60, 0
3, 4320, Note_on_c, 1, 60, 110
3, 4320, Note_on_c, 1, 72, 110
3, 5640, Note_on_c, 1, 72, 0
3, 5640, Note_on_c, 1, 60, 0
3, 5640, Note_on_c, 1, 67, 110
3, 5640, Note_on_c, 1, 74, 110
3, 5760, Note_on_c, 1, 74, 0
3, 5760, Note_on_c, 1, 67, 0
3, 5760, Note_on_c, 1, 76, 110
3, 5760, Note_on_c, 1, 72, 110
3, 5850, Note_on_c, 1, 76, 110
3, 5850, Note_on_c, 1, 79, 110
3, 5880, Note_on_c, 1, 79, 0
3, 5880, Note_on_c, 1, 76, 0
3, 5880, Note_on_c, 1, 72, 0
3, 5880, Note_on_c, 1, 76, 0
3, 5880, Note_on_c, 1, 74, 110
3, 5880, Note_on_c, 1, 77, 110
3, 5970, Note_on_c, 1, 76, 110
3, 6000, Note_on_c, 1, 76, 0
3, 6000, Note_on_c, 1, 77, 0
3, 6000, Note_on_c, 1, 74, 0
3, 6000, Note_on_c, 1, 67, 110
3, 6000, Note_on_c, 1, 74, 110
3, 6120, Note_on_c, 1, 74, 0
3, 6120, Note_on_c, 1, 67, 0
3, 6120, Note_on_c, 1, 60, 110
3, 6120, Note_on_c, 1, 79, 110
3, 6360, Note_on_c, 1, 60, 0
3, 6360, Note_on_c, 1, 72, 110
3, 6480, Note_on_c, 1, 72, 0
3, 6480, Note_on_c, 1, 79, 0
3, 6480, Note_on_c, 1, 74, 110
3, 6480, Note_on_c, 1, 77, 110
3, 6600, Note_on_c, 1, 77, 0
3, 6600, Note_on_c, 1, 74, 0
3, 6600, Note_on_c, 1, 72, 110
3, 6600, Note_on_c, 1, 76, 110
3, 6720, Note_on_c, 1, 76, 0
3, 6720, Note_on_c, 1, 72, 0
3, 6720, Note_on_c, 1, 67, 110
3, 6720, Note_on_c, 1, 74, 110
3, 6840, Note_on_c, 1, 74, 0
3, 6840, Note_on_c, 1, 67, 0
3, 6840, Note_on_c, 1, 64, 110
3, 6840, Note_on_c, 1, 72, 110
3, 7320, Note_on_c, 1, 72, 0
3, 7320, Note_on_c, 1, 64, 0
3, 7560, Note_on_c, 1, 67, 110
3, 7560, Note_on_c, 1, 74, 110
3, 8040, Note_on_c, 1, 74, 0
3, 8040, Note_on_c, 1, 67, 0
3, 8280, Note_on_c, 1, 64, 110
3, 8280, Note_on_c, 1, 72, 110
3, 8760, Note_on_c, 1, 72, 0
3, 8760, Note_on_c, 1, 64, 0
3, 9000, Note_on_c, 1, 74, 100
3, 9720, Note_on_c, 1, 74, 0
3, 9780, Note_on_c, 1, 67, 100
3, 9780, Note_on_c, 1, 74, 100
3, 9840, Note_on_c, 1, 74, 0
3, 9840, Note_on_c, 1, 67, 0
3, 9840, Note_on_c, 1, 67, 100
3, 9840, Note_on_c, 1, 74, 100
3, 9900, Note_on_c, 1, 74, 0
3, 9900, Note_on_c, 1, 67, 0
3, 9900, Note_on_c, 1, 67, 100
3, 9900, Note_on_c, 1, 74, 100
3, 9960, Note_on_c, 1, 74, 0
3, 9960, Note_on_c, 1, 67, 0
3, 9960, Note_on_c, 1, 67, 100
3, 9960, Note_on_c, 1, 74, 100
3, 10080, Note_on_c, 1, 74, 0
3, 10080, Note_on_c, 1, 67, 0
3, 10140, Note_on_c, 1, 72, 100
3, 10140, Note_on_c, 1, 76, 100
3, 10200, Note_on_c, 1, 76, 0
3, 10200, Note_on_c, 1, 72, 0
3, 10200, Note_on_c, 1, 72, 100
3, 10200, Note_on_c, 1, 76, 100
3, 10260, Note_on_c, 1, 76, 0
3, 10260, Note_on_c, 1, 72, 0
3, 10260, Note_on_c, 1, 76, 100
3, 10260, Note_on_c, 1, 72, 100
3, 10320, Note_on_c, 1, 72, 0
3, 10320, Note_on_c, 1, 76, 0
3, 10320, Note_on_c, 1, 72, 100
3, 10320, Note_on_c, 1, 76, 100
3, 10440, Note_on_c, 1, 76, 0
3, 10440, Note_on_c, 1, 72, 0
3, 10500, Note_on_c, 1, 67, 100
3, 10500, Note_on_c, 1, 74, 100
3, 10560, Note_on_c, 1, 74, 0
3, 10560, Note_on_c, 1, 67, 0
3, 10560, Note_on_c, 1, 67, 100
3, 10560, Note_on_c, 1, 74, 100
3, 10620, Note_on_c, 1, 74, 0
3, 10620, Note_on_c, 1, 67, 0
3, 10620, Note_on_c, 1, 67, 100
3, 10620, Note_on_c, 1, 74, 100
3, 10680, Note_on_c, 1, 74, 0
3, 10680, Note_on_c, 1, 67, 0
3, 10680, Note_on_c, 1, 67, 100
3, 10680, Note_on_c, 1, 74, 100
3, 10800, Note_on_c, 1, 74, 0
3, 10800, Note_on_c, 1, 67, 0
3, 10800, Note_on_c, 1, 72, 110
3, 10800, Note_on_c, 1, 76, 110
3, 10920, Note_on_c, 1, 76, 0
3, 10920, Note_on_c, 1, 72, 0
3, 10920, Note_on_c, 1, 72, 110
3, 10920, Note_on_c, 1, 76, 110
3, 11040, Note_on_c, 1, 76, 0
3, 11040, Note_on_c, 1, 72, 0
3, 11040, Note_on_c, 1, 76, 110
3, 11160, Note_on_c, 1, 76, 0
3, 11160, Note_on_c, 1, 74, 110
3, 11280, Note_on_c, 1, 74, 0
3, 11280, Note_on_c, 1, 74, 110
3, 11400, Note_on_c, 1, 74, 0
3, 17640, Note_on_c, 1, 67, 110
3, 18360, Note_on_c, 1, 67, 0
3, 18360, Note_on_c, 1, 72, 110
3, 18480, Note_on_c, 1, 72, 0
3, 18480, Note_on_c, 1, 72, 110
3, 18600, Note_on_c, 1, 72, 0
3, 18600, Note_on_c, 1, 76, 110
3, 18600, Note_on_c, 1, 72, 110
3, 18720, Note_on_c, 1, 72, 0
3, 18720, Note_on_c, 1, 76, 0
3, 18720, Note_on_c, 1, 74, 110
3, 18720, Note_on_c, 1, 74, 110
3, 18840, Note_on_c, 1, 74, 0
3, 18840, Note_on_c, 1, 78, 110
3, 18960, Note_on_c, 1, 78, 0
3, 18960, Note_on_c, 1, 74, 0
3, 18960, Note_on_c, 1, 67, 110
3, 18960, Note_on_c, 1, 79, 110
3, 19080, Note_on_c, 1, 79, 0
3, 19080, Note_on_c, 1, 76, 110
3, 19200, Note_on_c, 1, 76, 0
3, 19200, Note_on_c, 1, 67, 0
3, 19200, Note_on_c, 1, 74, 110
3, 19320, Note_on_c, 1, 74, 0
3, 19320, Note_on_c, 1, 72, 110
3, 19440, Note_on_c, 1, 72, 0
3, 19440, Note_on_c, 1, 67, 110
3, 19440, Note_on_c, 1, 79, 110
3, 19560, Note_on_c, 1, 79, 0
3, 19560, Note_on_c, 1, 67, 0
3, 19560, Note_on_c, 1, 74, 110
3, 19560, Note_on_c, 1, 77, 110
3, 19680, Note_on_c, 1, 77, 0
3, 19680, Note_on_c, 1, 74, 0
3, 19680, Note_on_c, 1, 72, 110
3, 19680, Note_on_c, 1, 76, 110
3, 19800, Note_on_c, 1, 76, 0
3, 19800, Note_on_c, 1, 72, 0
3, 19800, Note_on_c, 1, 64, 110
3, 19800, Note_on_c, 1, 76, 110
3, 19920, Note_on_c, 1, 76, 0
3, 19920, Note_on_c, 1, 64, 0
3, 19920, Note_on_c, 1, 64, 110
3, 19920, Note_on_c, 1, 76, 110
3, 20040, Note_on_c, 1, 76, 0
3, 20040, Note_on_c, 1, 64, 0
3, 21240, Note_on_c, 1, 67, 110
3, 21240, Note_on_c, 1, 74, 110
3, 21360, Note_on_c, 1, 74, 0
3, 21360, Note_on_c, 1, 67, 0
3, 21480, Note_on_c, 1, 74, 110
3, 21600, Note_on_c, 1, 74, 0
3, 21600, Note_on_c, 1, 74, 110
3, 21960, Note_on_c, 1, 74, 0
3, 21960, Note_on_c, 1, 67, 110
3, 21960, Note_on_c, 1, 74, 110
3, 22080, Note_on_c, 1, 74, 0
3, 22080, Note_on_c, 1, 67, 0
3, 22200, Note_on_c, 1, 74, 110
3, 22320, Note_on_c, 1, 74, 0
3, 22320, Note_on_c, 1, 74, 110
3, 22680, Note_on_c, 1, 74, 0
3, 22680, Note_on_c, 1, 67, 110
3, 22680, Note_on_c, 1, 74, 110
3, 22800, Note_on_c, 1, 74, 0
3, 22800, Note_on_c, 1, 67, 0
3, 22920, Note_on_c, 1, 74, 110
3, 23040, Note_on_c, 1, 74, 0
3, 23040, Note_on_c, 1, 67, 110
3, 23040, Note_on_c, 1, 74, 110
3, 23160, Note_on_c, 1, 74, 0
3, 23160, Note_on_c, 1, 67, 0
3, 23280, Note_on_c, 1, 74, 110
3, 23400, Note_on_c, 1, 74, 0
3, 23400, Note_on_c, 1, 67, 110
3, 23400, Note_on_c, 1, 74, 110
3, 23520, Note_on_c, 1, 74, 0
3, 23520, Note_on_c, 1, 67, 0
3, 24120, Note_on_c, 1, 72, 110
3, 24240, Note_on_c, 1, 72, 0
3, 24240, Note_on_c, 1, 67, 110
3, 24360, Note_on_c, 1, 67, 0
3, 24480, Note_on_c, 1, 64, 110
3, 24600, Note_on_c, 1, 64, 0
3, 24600, Note_on_c, 1, 60, 110
3, 24720, Note_on_c, 1, 60, 0
3, 26280, Note_on_c, 1, 72, 110
3, 26400, Note_on_c, 1, 72, 0
3, 26400, Note_on_c, 1, 67, 110
3, 26520, Note_on_c, 1, 67, 0
3, 26640, Note_on_c, 1, 64, 110
3, 26760, Note_on_c, 1, 64, 0
3, 26760, Note_on_c, 1, 60, 110
3, 26880, Note_on_c, 1, 60, 0
3, 28440, Note_on_c, 1, 60, 110
3, 28440, Note_on_c, 1, 72, 110
3, 29760, Note_on_c, 1, 72, 0
3, 29760, Note_on_c, 1, 60, 0
3, 29760, Note_on_c, 1, 67, 110
3, 29760, Note_on_c, 1, 74, 110
3, 29880, Note_on_c, 1, 74, 0
3, 29880, Note_on_c, 1, 67, 0
3, 29880, Note_on_c, 1, 76, 110
3, 29880, Note_on_c, 1, 72, 110
3, 29970, Note_on_c, 1, 76, 110
3, 29970, Note_on_c, 1, 79, 110
3, 30000, Note_on_c, 1, 79, 0
3, 30000, Note_on_c, 1, 76, 0
3, 30000, Note_on_c, 1, 72, 0
3, 30000, Note_on_c, 1, 76, 0
3, 30000, Note_on_c, 1, 74, 110
3, 30000, Note_on_c, 1, 77, 110
3, 30090, Note_on_c, 1, 76, 110
3, 30120, Note_on_c, 1, 76, 0
3, 30120, Note_on_c, 1, 77, 0
3, 30120, Note_on_c, 1, 74, 0
3, 30120, Note_on_c, 1, 67, 110
3, 30120, Note_on_c, 1, 74, 110
3, 30240, Note_on_c, 1, 74, 0
3, 30240, Note_on_c, 1, 67, 0
3, 30240, Note_on_c, 1, 60, 110
3, 30240, Note_on_c, 1, 79, 110
3, 30480, Note_on_c, 1, 60, 0
3, 30480, Note_on_c, 1, 72, 110
3, 30600, Note_on_c, 1, 72, 0
3, 30600, Note_on_c, 1, 79, 0
3, 30600, Note_on_c, 1, 74, 110
3, 30600, Note_on_c, 1, 77, 110
3, 30720, Note_on_c, 1, 77, 0
3, 30720, Note_on_c, 1, 74, 0
3, 30720, Note_on_c, 1, 72, 110
3, 30720, Note_on_c, 1, 76, 110
3, 30840, Note_on_c, 1, 76, 0
3, 30840, Note_on_c, 1, 72, 0
3, 30840, Note_on_c, 1, 67, 110
3, 30840, Note_on_c, 1, 74, 110
3, 30960, Note_on_c, 1, 74, 0
3, 30960, Note_on_c, 1, 67, 0
3, 30960, Note_on_c, 1, 64, 110
3, 30960, Note_on_c, 1, 72, 110
3, 31440, Note_on_c, 1, 72, 0
3, 31440, Note_on_c, 1, 64, 0
3, 31680, Note_on_c, 1, 67, 110
3, 31680, Note_on_c, 1, 74, 110
3, 32160, Note_on_c, 1, 74, 0
3, 32160, Note_on_c, 1, 67, 0
3, 32400, Note_on_c, 1, 64, 110
3, 32400, Note_on_c, 1, 72, 110
3, 32880, Note_on_c, 1, 72, 0
3, 32880, Note_on_c, 1, 64, 0
3, 33120, Note_on_c, 1, 74, 100
3, 33840, Note_on_c, 1, 74, 0
3, 33900, Note_on_c, 1, 67, 100
3, 33900, Note_on_c, 1, 74, 100
3, 33960, Note_on_c, 1, 74, 0
3, 33960, Note_on_c, 1, 67, 0
3, 33960, Note_on_c, 1, 67, 100
3, 33960, Note_on_c, 1, 74, 100
3, 34020, Note_on_c, 1, 74, 0
3, 34020, Note_on_c, 1, 67, 0
3, 34020, Note_on_c, 1, 67, 100
3, 34020, Note_on_c, 1, 74, 100
3, 34080, Note_on_c, 1, 74, 0
3, 34080, Note_on_c, 1, 67, 0
3, 34080, Note_on_c, 1, 67, 100
3, 34080, Note_on_c, 1, 74, 100
3, 34200, Note_on_c, 1, 74, 0
3, 34200, Note_on_c, 1, 67, 0
3, 34260, Note_on_c, 1, 72, 100
3, 34260, Note_on_c, 1, 76, 100
3, 34320, Note_on_c, 1, 76, 0
3, 34320, Note_on_c, 1, 72, 0
3, 34320, Note_on_c, 1, 72, 100
3, 34320, Note_on_c, 1, 76, 100
3, 34380, Note_on_c, 1, 76, 0
3, 34380, Note_on_c, 1, 72, 0
3, 34380, Note_on_c, 1, 76, 100
3, 34380, Note_on_c, 1, 72, 100
3, 34440, Note_on_c, 1, 72, 0
3, 34440, Note_on_c, 1, 76, 0
3, 34440, Note_on_c, 1, 72, 100
3, 34440, Note_on_c, 1, 76, 100
3, 34560, Note_on_c, 1, 76, 0
3, 34560, Note_on_c, 1, 72, 0
3, 34620, Note_on_c, 1, 67, 100
3, 34620, Note_on_c, 1, 74, 100
3, 34680, Note_on_c, 1, 74, 0
3, 34680, Note_on_c, 1, 67, 0
3, 34680, Note_on_c, 1, 67, 100
3, 34680, Note_on_c, 1, 74, 100
3, 34740, Note_on_c, 1, 74, 0
3, 34740, Note_on_c, 1, 67, 0
3, 34740, Note_on_c, 1, 67, 100
3, 34740, Note_on_c, 1, 74, 100
3, 34800, Note_on_c, 1, 74, 0
3, 34800, Note_on_c, 1, 67, 0
3, 34800, Note_on_c, 1, 67, 100
3, 34800, Note_on_c, 1, 74, 100
3, 34920, Note_on_c, 1, 74, 0
3, 34920, Note_on_c, 1, 67, 0
3, 34920, Note_on_c, 1, 72, 110
3, 34920, Note_on_c, 1, 76, 110
3, 35040, Note_on_c, 1, 76, 0
3, 35040, Note_on_c, 1, 72, 0
3, 35040, Note_on_c, 1, 72, 110
3, 35040, Note_on_c, 1, 76, 110
3, 35160, Note_on_c, 1, 76, 0
3, 35160, Note_on_c, 1, 72, 0
3, 35160, Note_on_c, 1, 76, 110
3, 35280, Note_on_c, 1, 76, 0
3, 35280, Note_on_c, 1, 74, 110
3, 35400, Note_on_c, 1, 74, 0
3, 35400, Note_on_c, 1, 74, 110
3, 35520, Note_on_c, 1, 74, 0
3, 41760, Note_on_c, 1, 67, 110
3, 42480, Note_on_c, 1, 67, 0
3, 42480, Note_on_c, 1, 72, 110
3, 42600, Note_on_c, 1, 72, 0
3, 42600, Note_on_c, 1, 72, 110
3, 42720, Note_on_c, 1, 72, 0
3, 42720, Note_on_c, 1, 76, 110
3, 42720, Note_on_c, 1, 72, 110
3, 42840, Note_on_c, 1, 72, 0
3, 42840, Note_on_c, 1, 76, 0
3, 42840, Note_on_c, 1, 74, 110
3, 42840, Note_on_c, 1, 74, 110
3, 42960, Note_on_c, 1, 74, 0
3, 42960, Note_on_c, 1, 78, 110
3, 43080, Note_on_c, 1, 78, 0
3, 43080, Note_on_c, 1, 74, 0
3, 43080, Note_on_c, 1, 67, 110
3, 43080, Note_on_c, 1, 79, 110
3, 43200, Note_on_c, 1, 79, 0
3, 43200, Note_on_c, 1, 76, 110
3, 43320, Note_on_c, 1, 76, 0
3, 43320, Note_on_c, 1, 67, 0
3, 43320, Note_on_c, 1, 74, 110
3, 43440, Note_on_c, 1, 74, 0
3, 43440, Note_on_c, 1, 72, 110
3, 43560, Note_on_c, 1, 72, 0
3, 43560, Note_on_c, 1, 67, 110
3, 43560, Note_on_c, 1, 79, 110
3, 43680, Note_on_c, 1, 79, 0
3, 43680, Note_on_c, 1, 67, 0
3, 43680, Note_on_c, 1, 74, 110
3, 43680, Note_on_c, 1, 77, 110
3, 43800, Note_on_c, 1, 77, 0
3, 43800, Note_on_c, 1, 74, 0
3, 43800, Note_on_c, 1, 72, 110
3, 43800, Note_on_c, 1, 76, 110
3, 43920, Note_on_c, 1, 76, 0
3, 43920, Note_on_c, 1, 72, 0
3, 43920, Note_on_c, 1, 64, 110
3, 43920, Note_on_c, 1, 76, 110
3, 44040, Note_on_c, 1, 76, 0
3, 44040, Note_on_c, 1, 64, 0
3, 44040, Note_on_c, 1, 64, 110
3, 44040, Note_on_c, 1, 76, 110
3, 44160, Note_on_c, 1, 76, 0
3, 44160, Note_on_c, 1, 64, 0
3, 45360, Note_on_c, 1, 67, 110
3, 45360, Note_on_c, 1, 74, 110
3, 45480, Note_on_c, 1, 74, 0
3, 45480, Note_on_c, 1, 67, 0
3, 45600, Note_on_c, 1, 74, 110
3, 45720, Note_on_c, 1, 74, 0
3, 45720, Note_on_c, 1, 74, 110
3, 46080, Note_on_c, 1, 74, 0
3, 46080, Note_on_c, 1, 67, 110
3, 46080, Note_on_c, 1, 74, 110
3, 46200, Note_on_c, 1, 74, 0
3, 46200, Note_on_c, 1, 67, 0
3, 46320, Note_on_c, 1, 74, 110
3, 46440, Note_on_c, 1, 74, 0
3, 46440, Note_on_c, 1, 74, 110
3, 46800, Note_on_c, 1, 74, 0
3, 46800, Note_on_c, 1, 67, 110
3, 46800, Note_on_c, 1, 74, 110
3, 46920, Note_on_c, 1, 74, 0
3, 46920, Note_on_c, 1, 67, 0
3, 47040, Note_on_c, 1, 74, 110
3, 47160, Note_on_c, 1, 74, 0
3, 47160, Note_on_c, 1, 67, 110
3, 47160, Note_on_c, 1, 74, 110
3, 47280, Note_on_c, 1, 74, 0
3, 47280, Note_on_c, 1, 67, 0
3, 47400, Note_on_c, 1, 74, 110
3, 47520, Note_on_c, 1, 74, 0
3, 47520, Note_on_c, 1, 67, 110
3, 47520, Note_on_c, 1, 74, 110
3, 47640, Note_on_c, 1, 74, 0
3, 47640, Note_on_c, 1, 67, 0
3, 48240, Note_on_c, 1, 60, 110
3, 48240, Note_on_c, 1, 72, 110
3, 48360, Note_on_c, 1, 72, 0
3, 48360, Note_on_c, 1, 60, 0
3, 48600, Note_on_c, 1, 60, 110
3, 48600, Note_on_c, 1, 72, 110
3, 48720, Note_on_c, 1, 72, 0
3, 48720, Note_on_c, 1, 60, 0
3, 48960, Note_on_c, 1, 60, 110
3, 48960, Note_on_c, 1, 72, 110
3, 49080, Note_on_c, 1, 72, 0
3, 49080, Note_on_c, 1, 60, 0
3, 49320, Note_on_c, 1, 60, 110
3, 49320, Note_on_c, 1, 72, 110
3, 49440, Note_on_c, 1, 72, 0
3, 49440, Note_on_c, 1, 60, 0
3, 49680, Note_on_c, 1, 60, 110
3, 49680, Note_on_c, 1, 72, 110
3, 49800, Note_on_c, 1, 72, 0
3, 49800, Note_on_c, 1, 60, 0
3, 56520, Note_on_c, 1, 72, 110
3, 56640, Note_on_c, 1, 72, 0
3, 56640, Note_on_c, 1, 67, 110
3, 56760, Note_on_c, 1, 67, 0
3, 56880, Note_on_c, 1, 64, 110
3, 57000, Note_on_c, 1, 64, 0
3, 57000, Note_on_c, 1, 60, 110
3, 57120, Note_on_c, 1, 60, 0
3, 58680, Note_on_c, 1, 72, 110
3, 58800, Note_on_c, 1, 72, 0
3, 58800, Note_on_c, 1, 67, 110
3, 58920, Note_on_c, 1, 67, 0
3, 59040, Note_on_c, 1, 64, 110
3, 59160, Note_on_c, 1, 64, 0
3, 59160, Note_on_c, 1, 60, 110
3, 59280, Note_on_c, 1, 60, 0
3, 60840, Note_on_c, 1, 60, 110
3, 60840, Note_on_c, 1, 72, 110
3, 62160, Note_on_c, 1, 72, 0
3, 62160, Note_on_c, 1, 60, 0
3, 62160, Note_on_c, 1, 67, 110
3, 62160, Note_on_c, 1, 74, 110
3, 62280, Note_on_c, 1, 74, 0
3, 62280, Note_on_c, 1, 67, 0
3, 62280, Note_on_c, 1, 76, 110
3, 62280, Note_on_c, 1, 72, 110
3, 62370, Note_on_c, 1, 76, 110
3, 62370, Note_on_c, 1, 79, 110
3, 62400, Note_on_c, 1, 79, 0
3, 62400, Note_on_c, 1, 76, 0
3, 62400, Note_on_c, 1, 72, 0
3, 62400, Note_on_c, 1, 76, 0
3, 62400, Note_on_c, 1, 74, 110
3, 62400, Note_on_c, 1, 77, 110
3, 62490, Note_on_c, 1, 76, 110
3, 62520, Note_on_c, 1, 76, 0
3, 62520, Note_on_c, 1, 77, 0
3, 62520, Note_on_c, 1, 74, 0
3, 62520, Note_on_c, 1, 67, 110
3, 62520, Note_on_c, 1, 74, 110
3, 62640, Note_on_c, 1, 74, 0
3, 62640, Note_on_c, 1, 67, 0
3, 62640, Note_on_c, 1, 60, 110
3, 62640, Note_on_c, 1, 79, 110
3, 62880, Note_on_c, 1, 60, 0
3, 62880, Note_on_c, 1, 72, 110
3, 63000, Note_on_c, 1, 72, 0
3, 63000, Note_on_c, 1, 79, 0
3, 63000, Note_on_c, 1, 74, 110
3, 63000, Note_on_c, 1, 77, 110
3, 63120, Note_on_c, 1, 77, 0
3, 63120, Note_on_c, 1, 74, 0
3, 63120, Note_on_c, 1, 72, 110
3, 63120, Note_on_c, 1, 76, 110
3, 63240, Note_on_c, 1, 76, 0
3, 63240, Note_on_c, 1, 72, 0
3, 63240, Note_on_c, 1, 67, 110
3, 63240, Note_on_c, 1, 74, 110
3, 63360, Note_on_c, 1, 74, 0
3, 63360, Note_on_c, 1, 67, 0
3, 63360, Note_on_c, 1, 64, 110
3, 63360, Note_on_c, 1, 72, 110
3, 63840, Note_on_c, 1, 72, 0
3, 63840, Note_on_c, 1, 64, 0
3, 64080, Note_on_c, 1, 60, 110
3, 64080, Note_on_c, 1, 72, 110
3, 64560, Note_on_c, 1, 72, 0
3, 64560, Note_on_c, 1, 60, 0
3, 65520, Note_on_c, 1, 74, 110
3, 66000, Note_on_c, 1, 74, 0
3, 66240, Note_on_c, 1, 74, 110
3, 66960, Note_on_c, 1, 74, 0
3, 66960, Note_on_c, 1, 67, 110
3, 66960, Note_on_c, 1, 74, 110
3, 67680, Note_on_c, 1, 74, 0
3, 67680, Note_on_c, 1, 67, 0
3, 67740, Note_on_c, 1, 72, 110
3, 67740, Note_on_c, 1, 76, 110
3, 67800, Note_on_c, 1, 76, 0
3, 67800, Note_on_c, 1, 72, 0
3, 67800, Note_on_c, 1, 72, 110
3, 67800, Note_on_c, 1, 76, 110
3, 67860, Note_on_c, 1, 76, 0
3, 67860, Note_on_c, 1, 72, 0
3, 67860, Note_on_c, 1, 72, 110
3, 67860, Note_on_c, 1, 76, 110
3, 67920, Note_on_c, 1, 76, 0
3, 67920, Note_on_c, 1, 72, 0
3, 67920, Note_on_c, 1, 72, 110
3, 67920, Note_on_c, 1, 76, 110
3, 68040, Note_on_c, 1, 76, 0
3, 68040, Note_on_c, 1, 72, 0
3, 68100, Note_on_c, 1, 77, 110
3, 68100, Note_on_c, 1, 72, 110
3, 68160, Note_on_c, 1, 72, 0
3, 68160, Note_on_c, 1, 77, 0
3, 68160, Note_on_c, 1, 77, 110
3, 68160, Note_on_c, 1, 72, 110
3, 68220, Note_on_c, 1, 72, 0
3, 68220, Note_on_c, 1, 77, 0
3, 68220, Note_on_c, 1, 77, 110
3, 68220, Note_on_c, 1, 72, 110
3, 68280, Note_on_c, 1, 72, 0
3, 68280, Note_on_c, 1, 77, 0
3, 68280, Note_on_c, 1, 72, 110
3, 68280, Note_on_c, 1, 77, 110
3, 68400, Note_on_c, 1, 77, 0
3, 68400, Note_on_c, 1, 72, 0
3, 68460, Note_on_c, 1, 79, 110
3, 68460, Note_on_c, 1, 72, 110
3, 68520, Note_on_c, 1, 72, 0
3, 68520, Note_on_c, 1, 79, 0
3, 68520, Note_on_c, 1, 79, 110
3, 68520, Note_on_c, 1, 72, 110
3, 68580, Note_on_c, 1, 72, 0
3, 68580, Note_on_c, 1, 79, 0
3, 68580, Note_on_c, 1, 79, 110
3, 68580, Note_on_c, 1, 72, 110
3, 68640, Note_on_c, 1, 72, 0
3, 68640, Note_on_c, 1, 79, 0
3, 68640, Note_on_c, 1, 72, 110
3, 68640, Note_on_c, 1, 79, 110
3, 68760, Note_on_c, 1, 79, 0
3, 68760, Note_on_c, 1, 72, 0
3, 68760, Note_on_c, 1, 72, 110
3, 68880, Note_on_c, 1, 72, 0
3, 68880, Note_on_c, 1, 72, 110
3, 69000, Note_on_c, 1, 72, 0
3, 69000, Note_on_c, 1, 72, 110
3, 69120, Note_on_c, 1, 72, 0
3, 69120, Note_on_c, 1, 67, 110
3, 69120, Note_on_c, 1, 79, 110
3, 69240, Note_on_c, 1, 79, 0
3, 69240, Note_on_c, 1, 67, 0
3, 69240, Note_on_c, 1, 55, 110
3, 69240, Note_on_c, 1, 67, 110
3, 69360, Note_on_c, 1, 67, 0
3, 69360, Note_on_c, 1, 55, 0
3, 75600, Note_on_c, 1, 60, 110
3, 75600, Note_on_c, 1, 72, 110
3, 76320, Note_on_c, 1, 72, 0
3, 76320, Note_on_c, 1, 60, 0
3, 76440, Note_on_c, 1, 77, 110
3, 76560, Note_on_c, 1, 77, 0
3, 76560, Note_on_c, 1, 76, 110
3, 76560, Note_on_c, 1, 77, 110
3, 76680, Note_on_c, 1, 77, 0
3, 76680, Note_on_c, 1, 76, 0
3, 76680, Note_on_c, 1, 74, 110
3, 76680, Note_on_c, 1, 77, 110
3, 76920, Note_on_c, 1, 77, 0
3, 76920, Note_on_c, 1, 74, 0
3, 76920, Note_on_c, 1, 72, 110
3, 76920, Note_on_c, 1, 76, 110
3, 77040, Note_on_c, 1, 76, 0
3, 77040, Note_on_c, 1, 72, 0
3, 77040, Note_on_c, 1, 74, 110
3, 77040, Note_on_c, 1, 77, 110
3, 77160, Note_on_c, 1, 77, 0
3, 77160, Note_on_c, 1, 74, 0
3, 77160, Note_on_c, 1, 72, 110
3, 77160, Note_on_c, 1, 76, 110
3, 77280, Note_on_c, 1, 76, 0
3, 77280, Note_on_c, 1, 72, 0
3, 77280, Note_on_c, 1, 74, 110
3, 77280, Note_on_c, 1, 77, 110
3, 77400, Note_on_c, 1, 77, 0
3, 77400, Note_on_c, 1, 74, 0
3, 77400, Note_on_c, 1, 76, 110
3, 77400, Note_on_c, 1, 72, 110
3, 77520, Note_on_c, 1, 72, 0
3, 77520, Note_on_c, 1, 76, 0
3, 77520, Note_on_c, 1, 76, 110
3, 77640, Note_on_c, 1, 76, 0
3, 77640, Note_on_c, 1, 77, 110
3, 77640, Note_on_c, 1, 74, 110
3, 77760, Note_on_c, 1, 74, 0
3, 77760, Note_on_c, 1, 77, 0
3, 77760, Note_on_c, 1, 76, 110
3, 77760, Note_on_c, 1, 79, 110
3, 77880, Note_on_c, 1, 79, 0
3, 77880, Note_on_c, 1, 76, 0
3, 77880, Note_on_c, 1, 74, 110
3, 77880, Note_on_c, 1, 78, 110
3, 78000, Note_on_c, 1, 78, 0
3, 78000, Note_on_c, 1, 74, 0
3, 79320, Note_on_c, 1, 76, 110
3, 79320, Note_on_c, 1, 79, 110
3, 79440, Note_on_c, 1, 79, 0
3, 79440, Note_on_c, 1, 76, 0
3, 79440, Note_on_c, 1, 74, 110
3, 79440, Note_on_c, 1, 77, 110
3, 79560, Note_on_c, 1, 77, 0
3, 79560, Note_on_c, 1, 74, 0
3, 79560, Note_on_c, 1, 72, 110
3, 79560, Note_on_c, 1, 76, 110
3, 79680, Note_on_c, 1, 76, 0
3, 79680, Note_on_c, 1, 72, 0
3, 79680, Note_on_c, 1, 72, 110
3, 79680, Note_on_c, 1, 76, 110
3, 79800, Note_on_c, 1, 76, 0
3, 79800, Note_on_c, 1, 72, 0
3, 79800, Note_on_c, 1, 67, 110
3, 79800, Note_on_c, 1, 74, 110
3, 79920, Note_on_c, 1, 74, 0
3, 79920, Note_on_c, 1, 67, 0
3, 79920, Note_on_c, 1, 64, 110
3, 79920, Note_on_c, 1, 72, 110
3, 80040, Note_on_c, 1, 72, 0
3, 80040, Note_on_c, 1, 64, 0
3, 80040, Note_on_c, 1, 76, 110
3, 80040, Note_on_c, 1, 79, 110
3, 80160, Note_on_c, 1, 79, 0
3, 80160, Note_on_c, 1, 76, 0
3, 80160, Note_on_c, 1, 74, 110
3, 80160, Note_on_c, 1, 77, 110
3, 80280, Note_on_c, 1, 77, 0
3, 80280, Note_on_c, 1, 74, 0
3, 80280, Note_on_c, 1, 72, 110
3, 80280, Note_on_c, 1, 76, 110
3, 80400, Note_on_c, 1, 76, 0
3, 80400, Note_on_c, 1, 72, 0
3, 80400, Note_on_c, 1, 72, 110
3, 80400, Note_on_c, 1, 76, 110
3, 80520, Note_on_c, 1, 76, 0
3, 80520, Note_on_c, 1, 72, 0
3, 80520, Note_on_c, 1, 67, 110
3, 80520, Note_on_c, 1, 74, 110
3, 80640, Note_on_c, 1, 74, 0
3, 80640, Note_on_c, 1, 67, 0
3, 80640, Note_on_c, 1, 64, 110
3, 80640, Note_on_c, 1, 72, 110
3, 80760, Note_on_c, 1, 72, 0
3, 80760, Note_on_c, 1, 64, 0
3, 80880, Note_on_c, 1, 67, 110
3, 80880, Note_on_c, 1, 74, 110
3, 81000, Note_on_c, 1, 74, 0
3, 81000, Note_on_c, 1, 67, 0
3, 81000, Note_on_c, 1, 72, 110
3, 81000, Note_on_c, 1, 76, 110
3, 81120, Note_on_c, 1, 76, 0
3, 81120, Note_on_c, 1, 72, 0
3, 81240, Note_on_c, 1, 67, 110
3, 81240, Note_on_c, 1, 74, 110
3, 81360, Note_on_c, 1, 74, 0
3, 81360, Note_on_c, 1, 67, 0
3, 81360, Note_on_c, 1, 72, 110
3, 81480, Note_on_c, 1, 72, 0
3, 81480, Note_on_c, 1, 67, 110
3, 81600, Note_on_c, 1, 67, 0
3, 81720, Note_on_c, 1, 64, 110
3, 81840, Note_on_c, 1, 64, 0
3, 81840, Note_on_c, 1, 60, 110
3, 81960, Note_on_c, 1, 60, 0
3, 83520, Note_on_c, 1, 60, 110
3, 83520, Note_on_c, 1, 72, 110
3, 83640, Note_on_c, 1, 72, 0
3, 83640, Note_on_c, 1, 60, 0
3, 83880, Note_on_c, 1, 60, 110
3, 83880, Note_on_c, 1, 72, 110
3, 84000, Note_on_c, 1, 72, 0
3, 84000, Note_on_c, 1, 60, 0
3, 84240, Note_on_c, 1, 60, 110
3, 84240, Note_on_c, 1, 72, 110
3, 84360, Note_on_c, 1, 72, 0
3, 84360, Note_on_c, 1, 60, 0
3, 84600, Note_on_c, 1, 60, 110
3, 84600, Note_on_c, 1, 72, 110
3, 84720, Note_on_c, 1, 72, 0
3, 84720, Note_on_c, 1, 60, 0
3, 84960, Note_on_c, 1, 60, 110
3, 84960, Note_on_c, 1, 72, 110
3, 85080, Note_on_c, 1, 72, 0
3, 85080, Note_on_c, 1, 60, 0
3, 91800, Note_on_c, 1, 72, 110
3, 91920, Note_on_c, 1, 72, 0
3, 91920, Note_on_c, 1, 67, 110
3, 92040, Note_on_c, 1, 67, 0
3, 92160, Note_on_c, 1, 64, 110
3, 92280, Note_on_c, 1, 64, 0
3, 92280, Note_on_c, 1, 60, 110
3, 92400, Note_on_c, 1, 60, 0
3, 93960, Note_on_c, 1, 72, 110
3, 94080, Note_on_c, 1, 72, 0
3, 94080, Note_on_c, 1, 67, 110
3, 94200, Note_on_c, 1, 67, 0
3, 94320, Note_on_c, 1, 64, 110
3, 94440, Note_on_c, 1, 64, 0
3, 94440, Note_on_c, 1, 60, 110
3, 94560, Note_on_c, 1, 60, 0
3, 96120, Note_on_c, 1, 60, 110
3, 96120, Note_on_c, 1, 72, 110
3, 97440, Note_on_c, 1, 72, 0
3, 97440, Note_on_c, 1, 60, 0
3, 97440, Note_on_c, 1, 67, 110
3, 97440, Note_on_c, 1, 74, 110
3, 97560, Note_on_c, 1, 74, 0
3, 97560, Note_on_c, 1, 67, 0
3, 97560, Note_on_c, 1, 76, 110
3, 97560, Note_on_c, 1, 72, 110
3, 97650, Note_on_c, 1, 76, 110
3, 97650, Note_on_c, 1, 79, 110
3, 97680, Note_on_c, 1, 79, 0
3, 97680, Note_on_c, 1, 76, 0
3, 97680, Note_on_c, 1, 72, 0
3, 97680, Note_on_c, 1, 76, 0
3, 97680, Note_on_c, 1, 74, 110
3, 97680, Note_on_c, 1, 77, 110
3, 97770, Note_on_c, 1, 76, 110
3, 97800, Note_on_c, 1, 76, 0
3, 97800, Note_on_c, 1, 77, 0
3, 97800, Note_on_c, 1, 74, 0
3, 97800, Note_on_c, 1, 67, 110
3, 97800, Note_on_c, 1, 74, 110
3, 97920, Note_on_c, 1, 74, 0
3, 97920, Note_on_c, 1, 67, 0
3, 97920, Note_on_c, 1, 60, 110
3, 97920, Note_on_c, 1, 79, 110
3, 98160, Note_on_c, 1, 60, 0
3, 98160, Note_on_c, 1, 72, 110
3, 98280, Note_on_c, 1, 72, 0
3, 98280, Note_on_c, 1, 79, 0
3, 98280, Note_on_c, 1, 74, 110
3, 98280, Note_on_c, 1, 77, 110
3, 98400, Note_on_c, 1, 77, 0
3, 98400, Note_on_c, 1, 74, 0
3, 98400, Note_on_c, 1, 72, 110
3, 98400, Note_on_c, 1, 76, 110
3, 98520, Note_on_c, 1, 76, 0
3, 98520, Note_on_c, 1, 72, 0
3, 98520, Note_on_c, 1, 67, 110
3, 98520, Note_on_c, 1, 74, 110
3, 98640, Note_on_c, 1, 74, 0
3, 98640, Note_on_c, 1, 67, 0
3, 98640, Note_on_c, 1, 64, 110
3, 98640, Note_on_c, 1, 72, 110
3, 99120, Note_on_c, 1, 72, 0
3, 99120, Note_on_c, 1, 64, 0
3, 99360, Note_on_c, 1, 60, 110
3, 99360, Note_on_c, 1, 72, 110
3, 99840, Note_on_c, 1, 72, 0
3, 99840, Note_on_c, 1, 60, 0
3, 100800, Note_on_c, 1, 74, 110
3, 101280, Note_on_c, 1, 74, 0
3, 101520, Note_on_c, 1, 74, 110
3, 102240, Note_on_c, 1, 74, 0
3, 102240, Note_on_c, 1, 67, 110
3, 102240, Note_on_c, 1, 74, 110
3, 102960, Note_on_c, 1, 74, 0
3, 102960, Note_on_c, 1, 67, 0
3, 103020, Note_on_c, 1, 72, 110
3, 103020, Note_on_c, 1, 76, 110
3, 103080, Note_on_c, 1, 76, 0
3, 103080, Note_on_c, 1, 72, 0
3, 103080, Note_on_c, 1, 72, 110
3, 103080, Note_on_c, 1, 76, 110
3, 103140, Note_on_c, 1, 76, 0
3, 103140, Note_on_c, 1, 72, 0
3, 103140, Note_on_c, 1, 72, 110
3, 103140, Note_on_c, 1, 76, 110
3, 103200, Note_on_c, 1, 76, 0
3, 103200, Note_on_c, 1, 72, 0
3, 103200, Note_on_c, 1, 72, 110
3, 103200, Note_on_c, 1, 76, 110
3, 103320, Note_on_c, 1, 76, 0
3, 103320, Note_on_c, 1, 72, 0
3, 103380, Note_on_c, 1, 77, 110
3, 103380, Note_on_c, 1, 72, 110
3, 103440, Note_on_c, 1, 72, 0
3, 103440, Note_on_c, 1, 77, 0
3, 103440, Note_on_c, 1, 77, 110
3, 103440, Note_on_c, 1, 72, 110
3, 103500, Note_on_c, 1, 72, 0
3, 103500, Note_on_c, 1, 77, 0
3, 103500, Note_on_c, 1, 77, 110
3, 103500, Note_on_c, 1, 72, 110
3, 103560, Note_on_c, 1, 72, 0
3, 103560, Note_on_c, 1, 77, 0
3, 103560, Note_on_c, 1, 72, 110
3, 103560, Note_on_c, 1, 77, 110
3, 103680, Note_on_c, 1, 77, 0
3, 103680, Note_on_c, 1, 72, 0
3, 103740, Note_on_c, 1, 79, 110
3, 103740, Note_on_c, 1, 72, 110
3, 103800, Note_on_c, 1, 72, 0
3, 103800, Note_on_c, 1, 79, 0
3, 103800, Note_on_c, 1, 79, 110
3, 103800, Note_on_c, 1, 72, 110
3, 103860, Note_on_c, 1, 72, 0
3, 103860, Note_on_c, 1, 79, 0
3, 103860, Note_on_c, 1, 79, 110
3, 103860, Note_on_c, 1, 72, 110
3, 103920, Note_on_c, 1, 72, 0
3, 103920, Note_on_c, 1, 79, 0
3, 103920, Note_on_c, 1, 72, 110
3, 103920, Note_on_c, 1, 79, 110
3, 104040, Note_on_c, 1, 79, 0
3, 104040, Note_on_c, 1, 72, 0
3, 104040, Note_on_c, 1, 72, 110
3, 104160, Note_on_c, 1, 72, 0
3, 104160, Note_on_c, 1, 72, 110
3, 104280, Note_on_c, 1, 72, 0
3, 104280, Note_on_c, 1, 72, 110
3, 104400, Note_on_c, 1, 72, 0
3, 104400, Note_on_c, 1, 67, 110
3, 104400, Note_on_c, 1, 79, 110
3, 104520, Note_on_c, 1, 79, 0
3, 104520, Note_on_c, 1, 67, 0
3, 104520, Note_on_c, 1, 55, 110
3, 104520, Note_on_c, 1, 67, 110
3, 104640, Note_on_c, 1, 67, 0
3, 104640, Note_on_c, 1, 55, 0
3, 110880, Note_on_c, 1, 60, 110
3, 110880, Note_on_c, 1, 72, 110
3, 111600, Note_on_c, 1, 72, 0
3, 111600, Note_on_c, 1, 60, 0
3, 111720, Note_on_c, 1, 77, 110
3, 111840, Note_on_c, 1, 77, 0
3, 111840, Note_on_c, 1, 76, 110
3, 111840, Note_on_c, 1, 77, 110
3, 111960, Note_on_c, 1, 77, 0
3, 111960, Note_on_c, 1, 76, 0
3, 111960, Note_on_c, 1, 74, 110
3, 111960, Note_on_c, 1, 77, 110
3, 112200, Note_on_c, 1, 77, 0
3, 112200, Note_on_c, 1, 74, 0
3, 112200, Note_on_c, 1, 72, 110
3, 112200, Note_on_c, 1, 76, 110
3, 112320, Note_on_c, 1, 76, 0
3, 112320, Note_on_c, 1, 72, 0
3, 112320, Note_on_c, 1, 74, 110
3, 112320, Note_on_c, 1, 77, 110
3, 112440, Note_on_c, 1, 77, 0
3, 112440, Note_on_c, 1, 74, 0
3, 112440, Note_on_c, 1, 72, 110
3, 112440, Note_on_c, 1, 76, 110
3, 112560, Note_on_c, 1, 76, 0
3, 112560, Note_on_c, 1, 72, 0
3, 112560, Note_on_c, 1, 74, 110
3, 112560, Note_on_c, 1, 77, 110
3, 112680, Note_on_c, 1, 77, 0
3, 112680, Note_on_c, 1, 74, 0
3, 112680, Note_on_c, 1, 76, 110
3, 112680, Note_on_c, 1, 72, 110
3, 112800, Note_on_c, 1, 72, 0
3, 112800, Note_on_c, 1, 76, 0
3, 112800, Note_on_c, 1, 76, 110
3, 112920, Note_on_c, 1, 76, 0
3, 112920, Note_on_c, 1, 77, 110
3, 112920, Note_on_c, 1, 74, 110
3, 113040, Note_on_c, 1, 74, 0
3, 113040, Note_on_c, 1, 77, 0
3, 113040, Note_on_c, 1, 76, 110
3, 113040, Note_on_c, 1, 79, 110
3, 113160, Note_on_c, 1, 79, 0
3, 113160, Note_on_c, 1, 76, 0
3, 113160, Note_on_c, 1, 74, 110
3, 113160, Note_on_c, 1, 78, 110
3, 113280, Note_on_c, 1, 78, 0
3, 113280, Note_on_c, 1, 74, 0
3, 114600, Note_on_c, 1, 76, 110
3, 114600, Note_on_c, 1, 79, 110
3, 114720, Note_on_c, 1, 79, 0
3, 114720, Note_on_c, 1, 76, 0
3, 114720, Note_on_c, 1, 74, 110
3, 114720, Note_on_c, 1, 77, 110
3, 114840, Note_on_c, 1, 77, 0
3, 114840, Note_on_c, 1, 74, 0
3, 114840, Note_on_c, 1, 72, 110
3, 114840, Note_on_c, 1, 76, 110
3, 114960, Note_on_c, 1, 76, 0
3, 114960, Note_on_c, 1, 72, 0
3, 114960, Note_on_c, 1, 72, 110
3, 114960, Note_on_c, 1, 76, 110
3, 115080, Note_on_c, 1, 76, 0
3, 115080, Note_on_c, 1, 72, 0
3, 115080, Note_on_c, 1, 67, 110
3, 115080, Note_on_c, 1, 74, 110
3, 115200, Note_on_c, 1, 74, 0
3, 115200, Note_on_c, 1, 67, 0
3, 115200, Note_on_c, 1, 64, 110
3, 115200, Note_on_c, 1, 72, 110
3, 115320, Note_on_c, 1, 72, 0
3, 115320, Note_on_c, 1, 64, 0
3, 115320, Note_on_c, 1, 76, 110
3, 115320, Note_on_c, 1, 79, 110
3, 115440, Note_on_c, 1, 79, 0
3, 115440, Note_on_c, 1, 76, 0
3, 115440, Note_on_c, 1, 74, 110
3, 115440, Note_on_c, 1, 77, 110
3, 115560, Note_on_c, 1, 77, 0
3, 115560, Note_on_c, 1, 74, 0
3, 115560, Note_on_c, 1, 72, 110
3, 115560, Note_on_c, 1, 76, 110
3, 115680, Note_on_c, 1, 76, 0
3, 115680, Note_on_c, 1, 72, 0
3, 115680, Note_on_c, 1, 72, 110
3, 115680, Note_on_c, 1, 76, 110
3, 115800, Note_on_c, 1, 76, 0
3, 115800, Note_on_c, 1, 72, 0
3, 115800, Note_on_c, 1, 67, 110
3, 115800, Note_on_c, 1, 74, 110
3, 115920, Note_on_c, 1, 74, 0
3, 115920, Note_on_c, 1, 67, 0
3, 115920, Note_on_c, 1, 64, 110
3, 115920, Note_on_c, 1, 72, 110
3, 116040, Note_on_c, 1, 72, 0
3, 116040, Note_on_c, 1, 64, 0
3, 116160, Note_on_c, 1, 67, 110
3, 116160, Note_on_c, 1, 74, 110
3, 116280, Note_on_c, 1, 74, 0
3, 116280, Note_on_c, 1, 67, 0
3, 116280, Note_on_c, 1, 72, 110
3, 116280, Note_on_c, 1, 76, 110
3, 116400, Note_on_c, 1, 76, 0
3, 116400, Note_on_c, 1, 72, 0
3, 116520, Note_on_c, 1, 67, 110
3, 116520, Note_on_c, 1, 74, 110
3, 116640, Note_on_c, 1, 74, 0
3, 116640, Note_on_c, 1, 67, 0
3, 116640, Note_on_c, 1, 72, 110
3, 116760, Note_on_c, 1, 72, 0
3, 116760, Note_on_c, 1, 67, 110
3, 116880, Note_on_c, 1, 67, 0
3, 117000, Note_on_c, 1, 64, 110
3, 117120, Note_on_c, 1, 64, 0
3, 117120, Note_on_c, 1, 60, 110
3, 117240, Note_on_c, 1, 60, 0
3, 118800, Note_on_c, 1, 72, 110
3, 118920, Note_on_c, 1, 72, 0
3, 118920, Note_on_c, 1, 76, 110
3, 118980, Note_on_c, 1, 76, 0
3, 118980, Note_on_c, 1, 72, 110
3, 119040, Note_on_c, 1, 72, 0
3, 119040, Note_on_c, 1, 67, 110
3, 119160, Note_on_c, 1, 67, 0
3, 119520, Note_on_c, 1, 72, 110
3, 119640, Note_on_c, 1, 72, 0
3, 119640, Note_on_c, 1, 76, 110
3, 119700, Note_on_c, 1, 76, 0
3, 119700, Note_on_c, 1, 72, 110
3, 119760, Note_on_c, 1, 72, 0
3, 119760, Note_on_c, 1, 67, 110
3, 119880, Note_on_c, 1, 67, 0
3, 120240, Note_on_c, 1, 60, 110
3, 120240, Note_on_c, 1, 72, 110
3, 120360, Note_on_c, 1, 72, 0
3, 120360, Note_on_c, 1, 60, 0
3, 120360, Note_on_c, 1, 67, 110
3, 120360, Note_on_c, 1, 79, 110
3, 120480, Note_on_c, 1, 79, 0
3, 120480, Note_on_c, 1, 67, 0
3, 120480, Note_on_c, 1, 64, 110
3, 120480, Note_on_c, 1, 76, 110
3, 120600, Note_on_c, 1, 76, 0
3, 120600, Note_on_c, 1, 64, 0
3, 120600, Note_on_c, 1, 72, 110
3, 120600, Note_on_c, 1, 84, 110
3, 120720, Note_on_c, 1, 84, 0
3, 120720, Note_on_c, 1, 72, 0
3, 120720, Note_on_c, 1, 67, 110
3, 120720, Note_on_c, 1, 79, 110
3, 120840, Note_on_c, 1, 79, 0
3, 120840, Note_on_c, 1, 67, 0
3, 120840, Note_on_c, 1, 64, 110
3, 120840, Note_on_c, 1, 76, 110
3, 120960, Note_on_c, 1, 76, 0
3, 120960, Note_on_c, 1, 64, 0
3, 120960, Note_on_c, 1, 60, 110
3, 120960, Note_on_c, 1, 72, 110
3, 121080, Note_on_c, 1, 72, 0
3, 121080, Note_on_c, 1, 60, 0
3, 121080, Note_on_c, 1, 55, 110
3, 121080, Note_on_c, 1, 67, 110
3, 121200, Note_on_c, 1, 67, 0
3, 121200, Note_on_c, 1, 55, 0
3, 121200, Note_on_c, 1, 64, 110
3, 121200, Note_on_c, 1, 76, 110
3, 121320, Note_on_c, 1, 76, 0
3, 121320, Note_on_c, 1, 64, 0
3, 121320, Note_on_c, 1, 60, 110
3, 121320, Note_on_c, 1, 72, 110
3, 121440, Note_on_c, 1, 72, 0
3, 121440, Note_on_c, 1, 60, 0
3, 121440, End_track
4, 0, Start_track
4, 0, MIDI_port, 0
4, 0, Title_t, "Trombones"
4, 0, Program_c, 2, 57
4, 0, Control_c, 2, 7, 110
4, 0, Control_c, 2, 10, 54
4, 0, Note_on_c, 2, 72, 110
4, 120, Note_on_c, 2, 72, 0
4, 120, Note_on_c, 2, 67, 110
4, 240, Note_on_c, 2, 67, 0
4, 360, Note_on_c, 2, 64, 110
4, 480, Note_on_c, 2, 64, 0
4, 480, Note_on_c, 2, 60, 110
4, 600, Note_on_c, 2, 60, 0
4, 2160, Note_on_c, 2, 72, 110
4, 2280, Note_on_c, 2, 72, 0
4, 2280, Note_on_c, 2, 67, 110
4, 2400, Note_on_c, 2, 67, 0
4, 2520, Note_on_c, 2, 64, 110
4, 2640, Note_on_c, 2, 64, 0
4, 2640, Note_on_c, 2, 60, 110
4, 2760, Note_on_c, 2, 60, 0
4, 4320, Note_on_c, 2, 60, 110
4, 4320, Note_on_c, 2, 72, 110
4, 4440, Note_on_c, 2, 72, 0
4, 4440, Note_on_c, 2, 60, 0
4, 4680, Note_on_c, 2, 60, 110
4, 4680, Note_on_c, 2, 72, 110
4, 4800, Note_on_c, 2, 72, 0
4, 4800, Note_on_c, 2, 60, 0
4, 5040, Note_on_c, 2, 60, 110
4, 5040, Note_on_c, 2, 72, 110
4, 5160, Note_on_c, 2, 72, 0
4, 5160, Note_on_c, 2, 60, 0
4, 5520, Note_on_c, 2, 60, 110
4, 5520, Note_on_c, 2, 72, 110
4, 5640, Note_on_c, 2, 72, 0
4, 5640, Note_on_c, 2, 60, 0
4, 5640, Note_on_c, 2, 67, 110
4, 5640, Note_on_c, 2, 74, 110
4, 5760, Note_on_c, 2, 74, 0
4, 5760, Note_on_c, 2, 67, 0
4, 5760, Note_on_c, 2, 72, 110
4, 5760, Note_on_c, 2, 76, 110
4, 5850, Note_on_c, 2, 76, 110
4, 5850, Note_on_c, 2, 79, 110
4, 5880, Note_on_c, 2, 79, 0
4, 5880, Note_on_c, 2, 72, 0
4, 5880, Note_on_c, 2, 76, 0
4, 5880, Note_on_c, 2, 76, 0
4, 5880, Note_on_c, 2, 74, 110
4, 5880, Note_on_c, 2, 77, 110
4, 5970, Note_on_c, 2, 76, 110
4, 6000, Note_on_c, 2, 76, 0
4, 6000, Note_on_c, 2, 77, 0
4, 6000, Note_on_c, 2, 74, 0
4, 6000, Note_on_c, 2, 67, 110
4, 6000, Note_on_c, 2, 74, 110
4, 6120, Note_on_c, 2, 74, 0
4, 6120, Note_on_c, 2, 67, 0
4, 6120, Note_on_c, 2, 67, 110
4, 6120, Note_on_c, 2, 79, 110
4, 6240, Note_on_c, 2, 67, 0
4, 6240, Note_on_c, 2, 72, 110
4, 6480, Note_on_c, 2, 72, 0
4, 6480, Note_on_c, 2, 79, 0
4, 6480, Note_on_c, 2, 74, 110
4, 6480, Note_on_c, 2, 77, 110
4, 6600, Note_on_c, 2, 77, 0
4, 6600, Note_on_c, 2, 74, 0
4, 6600, Note_on_c, 2, 72, 110
4, 6600, Note_on_c, 2, 76, 110
4, 6720, Note_on_c, 2, 76, 0
4, 6720, Note_on_c, 2, 72, 0
4, 6720, Note_on_c, 2, 67, 110
4, 6720, Note_on_c, 2, 74, 110
4, 6840, Note_on_c, 2, 74, 0
4, 6840, Note_on_c, 2, 67, 0
4, 6840, Note_on_c, 2, 64, 110
4, 6840, Note_on_c, 2, 72, 110
4, 7320, Note_on_c, 2, 72, 0
4, 7320, Note_on_c, 2, 64, 0
4, 7560, Note_on_c, 2, 67, 110
4, 7560, Note_on_c, 2, 74, 110
4, 8040, Note_on_c, 2, 74, 0
4, 8040, Note_on_c, 2, 67, 0
4, 8280, Note_on_c, 2, 64, 110
4, 8280, Note_on_c, 2, 72, 110
4, 8760, Note_on_c, 2, 72, 0
4, 8760, Note_on_c, 2, 64, 0
4, 9000, Note_on_c, 2, 74, 110
4, 9720, Note_on_c, 2, 74, 0
4, 9720, Note_on_c, 2, 67, 110
4, 10800, Note_on_c, 2, 67, 0
4, 11040, Note_on_c, 2, 67, 110
4, 11160, Note_on_c, 2, 67, 0
4, 11160, Note_on_c, 2, 74, 110
4, 11280, Note_on_c, 2, 74, 0
4, 11280, Note_on_c, 2, 74, 110
4, 11400, Note_on_c, 2, 74, 0
4, 17640, Note_on_c, 2, 67, 110
4, 18360, Note_on_c, 2, 67, 0
4, 18360, Note_on_c, 2, 60, 110
4, 18360, Note_on_c, 2, 72, 110
4, 18600, Note_on_c, 2, 72, 0
4, 18600, Note_on_c, 2, 60, 0
4, 18600, Note_on_c, 2, 72, 110
4, 18600, Note_on_c, 2, 76, 110
4, 18720, Note_on_c, 2, 76, 0
4, 18720, Note_on_c, 2, 72, 0
4, 18720, Note_on_c, 2, 74, 110
4, 18960, Note_on_c, 2, 74, 0
4, 18960, Note_on_c, 2, 67, 110
4, 19080, Note_on_c, 2, 67, 0
4, 19200, Note_on_c, 2, 74, 110
4, 19320, Note_on_c, 2, 74, 0
4, 19320, Note_on_c, 2, 72, 110
4, 19440, Note_on_c, 2, 72, 0
4, 19440, Note_on_c, 2, 64, 110
4, 19440, Note_on_c, 2, 67, 110
4, 19560, Note_on_c, 2, 67, 0
4, 19560, Note_on_c, 2, 64, 0
4, 19800, Note_on_c, 2, 64, 110
4, 19920, Note_on_c, 2, 64, 0
4, 19920, Note_on_c, 2, 64, 110
4, 20040, Note_on_c, 2, 64, 0
4, 21600, Note_on_c, 2, 67, 110
4, 21600, Note_on_c, 2, 74, 110
4, 21840, Note_on_c, 2, 74, 0
4, 21840, Note_on_c, 2, 67, 0
4, 21840, Note_on_c, 2, 74, 110
4, 21960, Note_on_c, 2, 74, 0
4, 21960, Note_on_c, 2, 67, 110
4, 21960, Note_on_c, 2, 74, 110
4, 22080, Note_on_c, 2, 74, 0
4, 22080, Note_on_c, 2, 67, 0
4, 22320, Note_on_c, 2, 67, 110
4, 22320, Note_on_c, 2, 74, 110
4, 22560, Note_on_c, 2, 74, 0
4, 22560, Note_on_c, 2, 67, 0
4, 22560, Note_on_c, 2, 74, 110
4, 22680, Note_on_c, 2, 74, 0
4, 22680, Note_on_c, 2, 67, 110
4, 22680, Note_on_c, 2, 74, 110
4, 22800, Note_on_c, 2, 74, 0
4, 22800, Note_on_c, 2, 67, 0
4, 22920, Note_on_c, 2, 74, 110
4, 23040, Note_on_c, 2, 74, 0
4, 23040, Note_on_c, 2, 67, 110
4, 23040, Note_on_c, 2, 74, 110
4, 23160, Note_on_c, 2, 74, 0
4, 23160, Note_on_c, 2, 67, 0
4, 23280, Note_on_c, 2, 74, 110
4, 23400, Note_on_c, 2, 74, 0
4, 23400, Note_on_c, 2, 67, 110
4, 23400, Note_on_c, 2, 74, 110
4, 23520, Note_on_c, 2, 74, 0
4, 23520, Note_on_c, 2, 67, 0
4, 24120, Note_on_c, 2, 72, 110
4, 24240, Note_on_c, 2, 72, 0
4, 24240, Note_on_c, 2, 67, 110
4, 24360, Note_on_c, 2, 67, 0
4, 24480, Note_on_c, 2, 64, 110
4, 24600, Note_on_c, 2, 64, 0
4, 24600, Note_on_c, 2, 60, 110
4, 24720, Note_on_c, 2, 60, 0
4, 26280, Note_on_c, 2, 72, 110
4, 26400, Note_on_c, 2, 72, 0
4, 26400, Note_on_c, 2, 67, 110
4, 26520, Note_on_c, 2, 67, 0
4, 26640, Note_on_c, 2, 64, 110
4, 26760, Note_on_c, 2, 64, 0
4, 26760, Note_on_c, 2, 60, 110
4, 26880, Note_on_c, 2, 60, 0
4, 28440, Note_on_c, 2, 60, 110
4, 28440, Note_on_c, 2, 72, 110
4, 28560, Note_on_c, 2, 72, 0
4, 28560, Note_on_c, 2, 60, 0
4, 28800, Note_on_c, 2, 60, 110
4, 28800, Note_on_c, 2, 72, 110
4, 28920, Note_on_c, 2, 72, 0
4, 28920, Note_on_c, 2, 60, 0
4, 29160, Note_on_c, 2, 60, 110
4, 29160, Note_on_c, 2, 72, 110
4, 29280, Note_on_c, 2, 72, 0
4, 29280, Note_on_c, 2, 60, 0
4, 29640, Note_on_c, 2, 60, 110
4, 29640, Note_on_c, 2, 72, 110
4, 29760, Note_on_c, 2, 72, 0
4, 29760, Note_on_c, 2, 60, 0
4, 29760, Note_on_c, 2, 67, 110
4, 29760, Note_on_c, 2, 74, 110
4, 29880, Note_on_c, 2, 74, 0
4, 29880, Note_on_c, 2, 67, 0
4, 29880, Note_on_c, 2, 72, 110
4, 29880, Note_on_c, 2, 76, 110
4, 29970, Note_on_c, 2, 76, 110
4, 29970, Note_on_c, 2, 79, 110
4, 30000, Note_on_c, 2, 79, 0
4, 30000, Note_on_c, 2, 72, 0
4, 30000, Note_on_c, 2, 76, 0
4, 30000, Note_on_c, 2, 76, 0
4, 30000, Note_on_c, 2, 74, 110
4, 30000, Note_on_c, 2, 77, 110
4, 30090, Note_on_c, 2, 76, 110
4, 30120, Note_on_c, 2, 76, 0
4, 30120, Note_on_c, 2, 77, 0
4, 30120, Note_on_c, 2, 74, 0
4, 30120, Note_on_c, 2, 67, 110
4, 30120, Note_on_c, 2, 74, 110
4, 30240, Note_on_c, 2, 74, 0
4, 30240, Note_on_c, 2, 67, 0
4, 30240, Note_on_c, 2, 67, 110
4, 30240, Note_on_c, 2, 79, 110
4, 30360, Note_on_c, 2, 67, 0
4, 30360, Note_on_c, 2, 72, 110
4, 30600, Note_on_c, 2, 72, 0
4, 30600, Note_on_c, 2, 79, 0
4, 30600, Note_on_c, 2, 74, 110
4, 30600, Note_on_c, 2, 77, 110
4, 30720, Note_on_c, 2, 77, 0
4, 30720, Note_on_c, 2, 74, 0
4, 30720, Note_on_c, 2, 72, 110
4, 30720, Note_on_c, 2, 76, 110
4, 30840, Note_on_c, 2, 76, 0
4, 30840, Note_on_c, 2, 72, 0
4, 30840, Note_on_c, 2, 67, 110
4, 30840, Note_on_c, 2, 74, 110
4, 30960, Note_on_c, 2, 74, 0
4, 30960, Note_on_c, 2, 67, 0
4, 30960, Note_on_c, 2, 64, 110
4, 30960, Note_on_c, 2, 72, 110
4, 31440, Note_on_c, 2, 72, 0
4, 31440, Note_on_c, 2, 64, 0
4, 31680, Note_on_c, 2, 67, 110
4, 31680, Note_on_c, 2, 74, 110
4, 32160, Note_on_c, 2, 74, 0
4, 32160, Note_on_c, 2, 67, 0
4, 32400, Note_on_c, 2, 64, 110
4, 32400, Note_on_c, 2, 72, 110
4, 32880, Note_on_c, 2, 72, 0
4, 32880, Note_on_c, 2, 64, 0
4, 33120, Note_on_c, 2, 74, 110
4, 33840, Note_on_c, 2, 74, 0
4, 33840, Note_on_c, 2, 67, 110
4, 34920, Note_on_c, 2, 67, 0
4, 35160, Note_on_c, 2, 67, 110
4, 35280, Note_on_c, 2, 67, 0
4, 35280, Note_on_c, 2, 74, 110
4, 35400, Note_on_c, 2, 74, 0
4, 35400, Note_on_c, 2, 74, 110
4, 35520, Note_on_c, 2, 74, 0
4, 41760, Note_on_c, 2, 67, 110
4, 42480, Note_on_c, 2, 67, 0
4, 42480, Note_on_c, 2, 60, 110
4, 42480, Note_on_c, 2, 72, 110
4, 42720, Note_on_c, 2, 72, 0
4, 42720, Note_on_c, 2, 60, 0
4, 42720, Note_on_c, 2, 72, 110
4, 42720, Note_on_c, 2, 76, 110
4, 42840, Note_on_c, 2, 76, 0
4, 42840, Note_on_c, 2, 72, 0
4, 42840, Note_on_c, 2, 74, 110
4, 43080, Note_on_c, 2, 74, 0
4, 43080, Note_on_c, 2, 67, 110
4, 43200, Note_on_c, 2, 67, 0
4, 43320, Note_on_c, 2, 74, 110
4, 43440, Note_on_c, 2, 74, 0
4, 43440, Note_on_c, 2, 72, 110
4, 43560, Note_on_c, 2, 72, 0
4, 43560, Note_on_c, 2, 64, 110
4, 43560, Note_on_c, 2, 67, 110
4, 43680, Note_on_c, 2, 67, 0
4, 43680, Note_on_c, 2, 64, 0
4, 43920, Note_on_c, 2, 64, 110
4, 44040, Note_on_c, 2, 64, 0
4, 44040, Note_on_c, 2, 64, 110
4, 44160, Note_on_c, 2, 64, 0
4, 45720, Note_on_c, 2, 67, 110
4, 45720, Note_on_c, 2, 74, 110
4, 45960, Note_on_c, 2, 74, 0
4, 45960, Note_on_c, 2, 67, 0
4, 45960, Note_on_c, 2, 74, 110
4, 46080, Note_on_c, 2, 74, 0
4, 46080, Note_on_c, 2, 67, 110
4, 46080, Note_on_c, 2, 74, 110
4, 46200, Note_on_c, 2, 74, 0
4, 46200, Note_on_c, 2, 67, 0
4, 46440, Note_on_c, 2, 67, 110
4, 46440, Note_on_c, 2, 74, 110
4, 46680, Note_on_c, 2, 74, 0
4, 46680, Note_on_c, 2, 67, 0
4, 46680, Note_on_c, 2, 74, 110
4, 46800, Note_on_c, 2, 74, 0
4, 46800, Note_on_c, 2, 67, 110
4, 46800, Note_on_c, 2, 74, 110
4, 46920, Note_on_c, 2, 74, 0
4, 46920, Note_on_c, 2, 67, 0
4, 47040, Note_on_c, 2, 74, 110
4, 47160, Note_on_c, 2, 74, 0
4, 47160, Note_on_c, 2, 67, 110
4, 47160, Note_on_c, 2, 74, 110
4, 47280, Note_on_c, 2, 74, 0
4, 47280, Note_on_c, 2, 67, 0
4, 47400, Note_on_c, 2, 74, 110
4, 47520, Note_on_c, 2, 74, 0
4, 47520, Note_on_c, 2, 67, 110
4, 47520, Note_on_c, 2, 74, 110
4, 47640, Note_on_c, 2, 74, 0
4, 47640, Note_on_c, 2, 67, 0
4, 48240, Note_on_c, 2, 60, 110
4, 48240, Note_on_c, 2, 72, 110
4, 48360, Note_on_c, 2, 72, 0
4, 48360, Note_on_c, 2, 60, 0
4, 48600, Note_on_c, 2, 60, 110
4, 48600, Note_on_c, 2, 72, 110
4, 48720, Note_on_c, 2, 72, 0
4, 48720, Note_on_c, 2, 60, 0
4, 48960, Note_on_c, 2, 60, 110
4, 48960, Note_on_c, 2, 72, 110
4, 49080, Note_on_c, 2, 72, 0
4, 49080, Note_on_c, 2, 60, 0
4, 49320, Note_on_c, 2, 60, 110
4, 49320, Note_on_c, 2, 72, 110
4, 49440, Note_on_c, 2, 72, 0
4, 49440, Note_on_c, 2, 60, 0
4, 49680, Note_on_c, 2, 60, 110
4, 49680, Note_on_c, 2, 72, 110
4, 49800, Note_on_c, 2, 72, 0
4, 49800, Note_on_c, 2, 60, 0
4, 56520, Note_on_c, 2, 72, 110
4, 56640, Note_on_c, 2, 72, 0
4, 56640, Note_on_c, 2, 67, 110
4, 56760, Note_on_c, 2, 67, 0
4, 56880, Note_on_c, 2, 64, 110
4, 57000, Note_on_c, 2, 64, 0
4, 57000, Note_on_c, 2, 60, 110
4, 57120, Note_on_c, 2, 60, 0
4, 58680, Note_on_c, 2, 72, 110
4, 58800, Note_on_c, 2, 72, 0
4, 58800, Note_on_c, 2, 67, 110
4, 58920, Note_on_c, 2, 67, 0
4, 59040, Note_on_c, 2, 64, 110
4, 59160, Note_on_c, 2, 64, 0
4, 59160, Note_on_c, 2, 60, 110
4, 59280, Note_on_c, 2, 60, 0
4, 60840, Note_on_c, 2, 60, 110
4, 60840, Note_on_c, 2, 72, 110
4, 60960, Note_on_c, 2, 72, 0
4, 60960, Note_on_c, 2, 60, 0
4, 61200, Note_on_c, 2, 60, 110
4, 61200, Note_on_c, 2, 72, 110
4, 61320, Note_on_c, 2, 72, 0
4, 61320, Note_on_c, 2, 60, 0
4, 61560, Note_on_c, 2, 60, 110
4, 61560, Note_on_c, 2, 72, 110
4, 61680, Note_on_c, 2, 72, 0
4, 61680, Note_on_c, 2, 60, 0
4, 62040, Note_on_c, 2, 60, 110
4, 62040, Note_on_c, 2, 72, 110
4, 62160, Note_on_c, 2, 72, 0
4, 62160, Note_on_c, 2, 60, 0
4, 62160, Note_on_c, 2, 67, 110
4, 62160, Note_on_c, 2, 74, 110
4, 62280, Note_on_c, 2, 74, 0
4, 62280, Note_on_c, 2, 67, 0
4, 62280, Note_on_c, 2, 72, 110
4, 62280, Note_on_c, 2, 76, 110
4, 62370, Note_on_c, 2, 76, 110
4, 62370, Note_on_c, 2, 79, 110
4, 62400, Note_on_c, 2, 79, 0
4, 62400, Note_on_c, 2, 72, 0
4, 62400, Note_on_c, 2, 76, 0
4, 62400, Note_on_c, 2, 76, 0
4, 62400, Note_on_c, 2, 74, 110
4, 62400, Note_on_c, 2, 77, 110
4, 62490, Note_on_c, 2, 76, 110
4, 62520, Note_on_c, 2, 76, 0
4, 62520, Note_on_c, 2, 77, 0
4, 62520, Note_on_c, 2, 74, 0
4, 62520, Note_on_c, 2, 67, 110
4, 62520, Note_on_c, 2, 74, 110
4, 62640, Note_on_c, 2, 74, 0
4, 62640, Note_on_c, 2, 67, 0
4, 62640, Note_on_c, 2, 67, 110
4, 62640, Note_on_c, 2, 79, 110
4, 62760, Note_on_c, 2, 67, 0
4, 62760, Note_on_c, 2, 72, 110
4, 63000, Note_on_c, 2, 72, 0
4, 63000, Note_on_c, 2, 79, 0
4, 63000, Note_on_c, 2, 74, 110
4, 63000, Note_on_c, 2, 77, 110
4, 63120, Note_on_c, 2, 77, 0
4, 63120, Note_on_c, 2, 74, 0
4, 63120, Note_on_c, 2, 72, 110
4, 63120, Note_on_c, 2, 76, 110
4, 63240, Note_on_c, 2, 76, 0
4, 63240, Note_on_c, 2, 72, 0
4, 63240, Note_on_c, 2, 67, 110
4, 63240, Note_on_c, 2, 74, 110
4, 63360, Note_on_c, 2, 74, 0
4, 63360, Note_on_c, 2, 67, 0
4, 63360, Note_on_c, 2, 64, 110
4, 63360, Note_on_c, 2, 72, 110
4, 63840, Note_on_c, 2, 72, 0
4, 63840, Note_on_c, 2, 64, 0
4, 64080, Note_on_c, 2, 60, 110
4, 64080, Note_on_c, 2, 72, 110
4, 64560, Note_on_c, 2, 72, 0
4, 64560, Note_on_c, 2, 60, 0
4, 65520, Note_on_c, 2, 74, 110
4, 66000, Note_on_c, 2, 74, 0
4, 66240, Note_on_c, 2, 74, 110
4, 66960, Note_on_c, 2, 74, 0
4, 66960, Note_on_c, 2, 67, 110
4, 66960, Note_on_c, 2, 74, 110
4, 67680, Note_on_c, 2, 74, 0
4, 67680, Note_on_c, 2, 67, 0
4, 67680, Note_on_c, 2, 60, 110
4, 67680, Note_on_c, 2, 72, 110
4, 68760, Note_on_c, 2, 72, 0
4, 68760, Note_on_c, 2, 60, 0
4, 69000, Note_on_c, 2, 60, 110
4, 69000, Note_on_c, 2, 72, 110
4, 69120, Note_on_c, 2, 72, 0
4, 69120, Note_on_c, 2, 60, 0
4, 69120, Note_on_c, 2, 55, 110
4, 69120, Note_on_c, 2, 67, 110
4, 69240, Note_on_c, 2, 67, 0
4, 69240, Note_on_c, 2, 55, 0
4, 69240, Note_on_c, 2, 55, 110
4, 69240, Note_on_c, 2, 67, 110
4, 69360, Note_on_c, 2, 67, 0
4, 69360, Note_on_c, 2, 55, 0
4, 75600, Note_on_c, 2, 60, 110
4, 75600, Note_on_c, 2, 72, 110
4, 76320, Note_on_c, 2, 72, 0
4, 76320, Note_on_c, 2, 60, 0
4, 76680, Note_on_c, 2, 67, 110
4, 76680, Note_on_c, 2, 74, 110
4, 76920, Note_on_c, 2, 74, 0
4, 76920, Note_on_c, 2, 67, 0
4, 76920, Note_on_c, 2, 72, 110
4, 76920, Note_on_c, 2, 76, 110
4, 77040, Note_on_c, 2, 76, 0
4, 77040, Note_on_c, 2, 72, 0
4, 77280, Note_on_c, 2, 74, 110
4, 77400, Note_on_c, 2, 74, 0
4, 77400, Note_on_c, 2, 72, 110
4, 77520, Note_on_c, 2, 72, 0
4, 77760, Note_on_c, 2, 76, 110
4, 77880, Note_on_c, 2, 76, 0
4, 77880, Note_on_c, 2, 74, 110
4, 78000, Note_on_c, 2, 74, 0
4, 79560, Note_on_c, 2, 60, 110
4, 79680, Note_on_c, 2, 60, 0
4, 79680, Note_on_c, 2, 64, 110
4, 79800, Note_on_c, 2, 64, 0
4, 79800, Note_on_c, 2, 67, 110
4, 79920, Note_on_c, 2, 67, 0
4, 79920, Note_on_c, 2, 72, 110
4, 80040, Note_on_c, 2, 72, 0
4, 80280, Note_on_c, 2, 60, 110
4, 80400, Note_on_c, 2, 60, 0
4, 80400, Note_on_c, 2, 64, 110
4, 80520, Note_on_c, 2, 64, 0
4, 80520, Note_on_c, 2, 67, 110
4, 80640, Note_on_c, 2, 67, 0
4, 80640, Note_on_c, 2, 64, 110
4, 80640, Note_on_c, 2, 72, 110
4, 80760, Note_on_c, 2, 72, 0
4, 80760, Note_on_c, 2, 64, 0
4, 80880, Note_on_c, 2, 67, 110
4, 80880, Note_on_c, 2, 74, 110
4, 81000, Note_on_c, 2, 74, 0
4, 81000, Note_on_c, 2, 67, 0
4, 81000, Note_on_c, 2, 76, 110
4, 81000, Note_on_c, 2, 72, 110
4, 81120, Note_on_c, 2, 72, 0
4, 81120, Note_on_c, 2, 76, 0
4, 81240, Note_on_c, 2, 67, 110
4, 81240, Note_on_c, 2, 74, 110
4, 81360, Note_on_c, 2, 74, 0
4, 81360, Note_on_c, 2, 67, 0
4, 81360, Note_on_c, 2, 72, 110
4, 81480, Note_on_c, 2, 72, 0
4, 81480, Note_on_c, 2, 67, 110
4, 81600, Note_on_c, 2, 67, 0
4, 81720, Note_on_c, 2, 64, 110
4, 81840, Note_on_c, 2, 64, 0
4, 81840, Note_on_c, 2, 60, 110
4, 81960, Note_on_c, 2, 60, 0
4, 83520, Note_on_c, 2, 60, 110
4, 83520, Note_on_c, 2, 72, 110
4, 83640, Note_on_c, 2, 72, 0
4, 83640, Note_on_c, 2, 60, 0
4, 83880, Note_on_c, 2, 60, 110
4, 83880, Note_on_c, 2, 72, 110
4, 84000, Note_on_c, 2, 72, 0
4, 84000, Note_on_c, 2, 60, 0
4, 84240, Note_on_c, 2, 60, 110
4, 84240, Note_on_c, 2, 72, 110
4, 84360, Note_on_c, 2, 72, 0
4, 84360, Note_on_c, 2, 60, 0
4, 84600, Note_on_c, 2, 60, 110
4, 84600, Note_on_c, 2, 72, 110
4, 84720, Note_on_c, 2, 72, 0
4, 84720, Note_on_c, 2, 60, 0
4, 84960, Note_on_c, 2, 60, 110
4, 84960, Note_on_c, 2, 72, 110
4, 85080, Note_on_c, 2, 72, 0
4, 85080, Note_on_c, 2, 60, 0
4, 91800, Note_on_c, 2, 72, 110
4, 91920, Note_on_c, 2, 72, 0
4, 91920, Note_on_c, 2, 67, 110
4, 92040, Note_on_c, 2, 67, 0
4, 92160, Note_on_c, 2, 64, 110
4, 92280, Note_on_c, 2, 64, 0
4, 92280, Note_on_c, 2, 60, 110
4, 92400, Note_on_c, 2, 60, 0
4, 93960, Note_on_c, 2, 72, 110
4, 94080, Note_on_c, 2, 72, 0
4, 94080, Note_on_c, 2, 67, 110
4, 94200, Note_on_c, 2, 67, 0
4, 94320, Note_on_c, 2, 64, 110
4, 94440, Note_on_c, 2, 64, 0
4, 94440, Note_on_c, 2, 60, 110
4, 94560, Note_on_c, 2, 60, 0
4, 96120, Note_on_c, 2, 60, 110
4, 96120, Note_on_c, 2, 72, 110
4, 96240, Note_on_c, 2, 72, 0
4, 96240, Note_on_c, 2, 60, 0
4, 96480, Note_on_c, 2, 60, 110
4, 96480, Note_on_c, 2, 72, 110
4, 96600, Note_on_c, 2, 72, 0
4, 96600, Note_on_c, 2, 60, 0
4, 96840, Note_on_c, 2, 60, 110
4, 96840, Note_on_c, 2, 72, 110
4, 96960, Note_on_c, 2, 72, 0
4, 96960, Note_on_c, 2, 60, 0
4, 97320, Note_on_c, 2, 60, 110
4, 97320, Note_on_c, 2, 72, 110
4, 97440, Note_on_c, 2, 72, 0
4, 97440, Note_on_c, 2, 60, 0
4, 97440, Note_on_c, 2, 67, 110
4, 97440, Note_on_c, 2, 74, 110
4, 97560, Note_on_c, 2, 74, 0
4, 97560, Note_on_c, 2, 67, 0
4, 97560, Note_on_c, 2, 72, 110
4, 97560, Note_on_c, 2, 76, 110
4, 97650, Note_on_c, 2, 76, 110
4, 97650, Note_on_c, 2, 79, 110
4, 97680, Note_on_c, 2, 79, 0
4, 97680, Note_on_c, 2, 72, 0
4, 97680, Note_on_c, 2, 76, 0
4, 97680, Note_on_c, 2, 76, 0
4, 97680, Note_on_c, 2, 74, 110
4, 97680, Note_on_c, 2, 77, 110
4, 97770, Note_on_c, 2, 76, 110
4, 97800, Note_on_c, 2, 76, 0
4, 97800, Note_on_c, 2, 77, 0
4, 97800, Note_on_c, 2, 74, 0
4, 97800, Note_on_c, 2, 67, 110
4, 97800, Note_on_c, 2, 74, 110
4, 97920, Note_on_c, 2, 74, 0
4, 97920, Note_on_c, 2, 67, 0
4, 97920, Note_on_c, 2, 67, 110
4, 97920, Note_on_c, 2, 79, 110
4, 98040, Note_on_c, 2, 67, 0
4, 98040, Note_on_c, 2, 72, 110
4, 98280, Note_on_c, 2, 72, 0
4, 98280, Note_on_c, 2, 79, 0
4, 98280, Note_on_c, 2, 74, 110
4, 98280, Note_on_c, 2, 77, 110
4, 98400, Note_on_c, 2, 77, 0
4, 98400, Note_on_c, 2, 74, 0
4, 98400, Note_on_c, 2, 72, 110
4, 98400, Note_on_c, 2, 76, 110
4, 98520, Note_on_c, 2, 76, 0
4, 98520, Note_on_c, 2, 72, 0
4, 98520, Note_on_c, 2, 67, 110
4, 98520, Note_on_c, 2, 74, 110
4, 98640, Note_on_c, 2, 74, 0
4, 98640, Note_on_c, 2, 67, 0
4, 98640, Note_on_c, 2, 64, 110
4, 98640, Note_on_c, 2, 72, 110
4, 99120, Note_on_c, 2, 72, 0
4, 99120, Note_on_c, 2, 64, 0
4, 99360, Note_on_c, 2, 60, 110
4, 99360, Note_on_c, 2, 72, 110
4, 99840, Note_on_c, 2, 72, 0
4, 99840, Note_on_c, 2, 60, 0
4, 100800, Note_on_c, 2, 74, 110
4, 101280, Note_on_c, 2, 74, 0
4, 101520, Note_on_c, 2, 74, 110
4, 102240, Note_on_c, 2, 74, 0
4, 102240, Note_on_c, 2, 67, 110
4, 102240, Note_on_c, 2, 74, 110
4, 102960, Note_on_c, 2, 74, 0
4, 102960, Note_on_c, 2, 67, 0
4, 102960, Note_on_c, 2, 60, 110
4, 102960, Note_on_c, 2, 72, 110
4, 104040, Note_on_c, 2, 72, 0
4, 104040, Note_on_c, 2, 60, 0
4, 104280, Note_on_c, 2, 60, 110
4, 104280, Note_on_c, 2, 72, 110
4, 104400, Note_on_c, 2, 72, 0
4, 104400, Note_on_c, 2, 60, 0
4, 104400, Note_on_c, 2, 55, 110
4, 104400, Note_on_c, 2, 67, 110
4, 104520, Note_on_c, 2, 67, 0
4, 104520, Note_on_c, 2, 55, 0
4, 104520, Note_on_c, 2, 55, 110
4, 104520, Note_on_c, 2, 67, 110
4, 104640, Note_on_c, 2, 67, 0
4, 104640, Note_on_c, 2, 55, 0
4, 110880, Note_on_c, 2, 60, 110
4, 110880, Note_on_c, 2, 72, 110
4, 111600, Note_on_c, 2, 72, 0
4, 111600, Note_on_c, 2, 60, 0
4, 111960, Note_on_c, 2, 67, 110
4, 111960, Note_on_c, 2, 74, 110
4, 112200, Note_on_c, 2, 74, 0
4, 112200, Note_on_c, 2, 67, 0
4, 112200, Note_on_c, 2, 72, 110
4, 112200, Note_on_c, 2, 76, 110
4, 112320, Note_on_c, 2, 76, 0
4, 112320, Note_on_c, 2, 72, 0
4, 112560, Note_on_c, 2, 74, 110
4, 112680, Note_on_c, 2, 74, 0
4, 112680, Note_on_c, 2, 72, 110
4, 112800, Note_on_c, 2, 72, 0
4, 113040, Note_on_c, 2, 76, 110
4, 113160, Note_on_c, 2, 76, 0
4, 113160, Note_on_c, 2, 74, 110
4, 113280, Note_on_c, 2, 74, 0
4, 114840, Note_on_c, 2, 60, 110
4, 114960, Note_on_c, 2, 60, 0
4, 114960, Note_on_c, 2, 64, 110
4, 115080, Note_on_c, 2, 64, 0
4, 115080, Note_on_c, 2, 67, 110
4, 115200, Note_on_c, 2, 67, 0
4, 115200, Note_on_c, 2, 72, 110
4, 115320, Note_on_c, 2, 72, 0
4, 115560, Note_on_c, 2, 60, 110
4, 115680, Note_on_c, 2, 60, 0
4, 115680, Note_on_c, 2, 64, 110
4, 115800, Note_on_c, 2, 64, 0
4, 115800, Note_on_c, 2, 67, 110
4, 115920, Note_on_c, 2, 67, 0
4, 115920, Note_on_c, 2, 64, 110
4, 115920, Note_on_c, 2, 72, 110
4, 116040, Note_on_c, 2, 72, 0
4, 116040, Note_on_c, 2, 64, 0
4, 116160, Note_on_c, 2, 67, 110
4, 116160, Note_on_c, 2, 74, 110
4, 116280, Note_on_c, 2, 74, 0
4, 116280, Note_on_c, 2, 67, 0
4, 116280, Note_on_c, 2, 76, 110
4, 116280, Note_on_c, 2, 72, 110
4, 116400, Note_on_c, 2, 72, 0
4, 116400, Note_on_c, 2, 76, 0
4, 116520, Note_on_c, 2, 67, 110
4, 116520, Note_on_c, 2, 74, 110
4, 116640, Note_on_c, 2, 74, 0
4, 116640, Note_on_c, 2, 67, 0
4, 116640, Note_on_c, 2, 72, 110
4, 116760, Note_on_c, 2, 72, 0
4, 116760, Note_on_c, 2, 67, 110
4, 116880, Note_on_c, 2, 67, 0
4, 117000, Note_on_c, 2, 64, 110
4, 117120, Note_on_c, 2, 64, 0
4, 117120, Note_on_c, 2, 60, 110
4, 117240, Note_on_c, 2, 60, 0
4, 118800, Note_on_c, 2, 60, 110
4, 118800, Note_on_c, 2, 72, 110
4, 118920, Note_on_c, 2, 72, 0
4, 118920, Note_on_c, 2, 60, 0
4, 118920, Note_on_c, 2, 64, 110
4, 118920, Note_on_c, 2, 76, 110
4, 118980, Note_on_c, 2, 76, 0
4, 118980, Note_on_c, 2, 64, 0
4, 118980, Note_on_c, 2, 60, 110
4, 118980, Note_on_c, 2, 72, 110
4, 119040, Note_on_c, 2, 72, 0
4, 119040, Note_on_c, 2, 60, 0
4, 119040, Note_on_c, 2, 55, 110
4, 119040, Note_on_c, 2, 67, 110
4, 119160, Note_on_c, 2, 67, 0
4, 119160, Note_on_c, 2, 55, 0
4, 119520, Note_on_c, 2, 60, 110
4, 119520, Note_on_c, 2, 72, 110
4, 119640, Note_on_c, 2, 72, 0
4, 119640, Note_on_c, 2, 60, 0
4, 119640, Note_on_c, 2, 64, 110
4, 119640, Note_on_c, 2, 76, 110
4, 119700, Note_on_c, 2, 76, 0
4, 119700, Note_on_c, 2, 64, 0
4, 119700, Note_on_c, 2, 60, 110
4, 119700, Note_on_c, 2, 72, 110
4, 119760, Note_on_c, 2, 72, 0
4, 119760, Note_on_c, 2, 60, 0
4, 119760, Note_on_c, 2, 55, 110
4, 119760, Note_on_c, 2, 67, 110
4, 119880, Note_on_c, 2, 67, 0
4, 119880, Note_on_c, 2, 55, 0
4, 120240, Note_on_c, 2, 60, 110
4, 120240, Note_on_c, 2, 72, 110
4, 120360, Note_on_c, 2, 72, 0
4, 120360, Note_on_c, 2, 60, 0
4, 120360, Note_on_c, 2, 67, 110
4, 120360, Note_on_c, 2, 79, 110
4, 120480, Note_on_c, 2, 79, 0
4, 120480, Note_on_c, 2, 67, 0
4, 120480, Note_on_c, 2, 64, 110
4, 120480, Note_on_c, 2, 76, 110
4, 120600, Note_on_c, 2, 76, 0
4, 120600, Note_on_c, 2, 64, 0
4, 120600, Note_on_c, 2, 72, 110
4, 120600, Note_on_c, 2, 84, 110
4, 120720, Note_on_c, 2, 84, 0
4, 120720, Note_on_c, 2, 72, 0
4, 120720, Note_on_c, 2, 67, 110
4, 120720, Note_on_c, 2, 79, 110
4, 120840, Note_on_c, 2, 79, 0
4, 120840, Note_on_c, 2, 67, 0
4, 120840, Note_on_c, 2, 64, 110
4, 120840, Note_on_c, 2, 76, 110
4, 120960, Note_on_c, 2, 76, 0
4, 120960, Note_on_c, 2, 64, 0
4, 120960, Note_on_c, 2, 60, 110
4, 120960, Note_on_c, 2, 72, 110
4, 121080, Note_on_c, 2, 72, 0
4, 121080, Note_on_c, 2, 60, 0
4, 121080, Note_on_c, 2, 55, 110
4, 121080, Note_on_c, 2, 67, 110
4, 121200, Note_on_c, 2, 67, 0
4, 121200, Note_on_c, 2, 55, 0
4, 121200, Note_on_c, 2, 64, 110
4, 121200, Note_on_c, 2, 76, 110
4, 121320, Note_on_c, 2, 76, 0
4, 121320, Note_on_c, 2, 64, 0
4, 121320, Note_on_c, 2, 60, 110
4, 121320, Note_on_c, 2, 72, 110
4, 121440, Note_on_c, 2, 72, 0
4, 121440, Note_on_c, 2, 60, 0
4, 121440, End_track
5, 0, Start_track
5, 0, MIDI_port, 0
5, 0, Title_t, "Violins 1"
5, 0, Program_c, 3, 48
5, 0, Control_c, 3, 7, 127
5, 0, Control_c, 3, 10, 32
5, 0, Note_on_c, 3, 55, 110
5, 0, Note_on_c, 3, 64, 110
5, 0, Note_on_c, 3, 72, 110
5, 120, Note_on_c, 3, 72, 0
5, 120, Note_on_c, 3, 64, 0
5, 120, Note_on_c, 3, 55, 0
5, 120, Note_on_c, 3, 67, 110
5, 240, Note_on_c, 3, 67, 0
5, 360, Note_on_c, 3, 64, 110
5, 480, Note_on_c, 3, 64, 0
5, 480, Note_on_c, 3, 60, 110
5, 600, Note_on_c, 3, 60, 0
5, 720, Note_on_c, 3, 79, 70
5, 735, Note_on_c, 3, 79, 0
5, 735, Note_on_c, 3, 81, 70
5, 750, Note_on_c, 3, 81, 0
5, 750, Note_on_c, 3, 79, 70
5, 765, Note_on_c, 3, 79, 0
5, 765, Note_on_c, 3, 81, 70
5, 780, Note_on_c, 3, 81, 0
5, 780, Note_on_c, 3, 79, 70
5, 795, Note_on_c, 3, 79, 0
5, 795, Note_on_c, 3, 81, 70
5, 810, Note_on_c, 3, 81, 0
5, 810, Note_on_c, 3, 77, 70
5, 825, Note_on_c, 3, 77, 0
5, 825, Note_on_c, 3, 79, 70
5, 840, Note_on_c, 3, 79, 0
5, 840, Note_on_c, 3, 81, 70
5, 900, Note_on_c, 3, 81, 0
5, 900, Note_on_c, 3, 79, 70
5, 930, Note_on_c, 3, 79, 0
5, 960, Note_on_c, 3, 77, 70
5, 990, Note_on_c, 3, 77, 0
5, 1020, Note_on_c, 3, 76, 70
5, 1050, Note_on_c, 3, 76, 0
5, 1080, Note_on_c, 3, 77, 70
5, 1095, Note_on_c, 3, 77, 0
5, 1095, Note_on_c, 3, 79, 70
5, 1110, Note_on_c, 3, 79, 0
5, 1110, Note_on_c, 3, 77, 70
5, 1125, Note_on_c, 3, 77, 0
5, 1125, Note_on_c, 3, 79, 70
5, 1140, Note_on_c, 3, 79, 0
5, 1140, Note_on_c, 3, 77, 70
5, 1155, Note_on_c, 3, 77, 0
5, 1155, Note_on_c, 3, 79, 70
5, 1170, Note_on_c, 3, 79, 0
5, 1170, Note_on_c, 3, 76, 70
5, 1185, Note_on_c, 3, 76, 0
5, 1185, Note_on_c, 3, 77, 70
5, 1200, Note_on_c, 3, 77, 0
5, 1200, Note_on_c, 3, 79, 70
5, 1260, Note_on_c, 3, 79, 0
5, 1260, Note_on_c, 3, 77, 70
5, 1290, Note_on_c, 3, 77, 0
5, 1320, Note_on_c, 3, 76, 70
5, 1350, Note_on_c, 3, 76, 0
5, 1380, Note_on_c, 3, 74, 70
5, 1410, Note_on_c, 3, 74, 0
5, 1440, Note_on_c, 3, 76, 70
5, 1455, Note_on_c, 3, 76, 0
5, 1455, Note_on_c, 3, 77, 70
5, 1470, Note_on_c, 3, 77, 0
5, 1470, Note_on_c, 3, 76, 70
5, 1485, Note_on_c, 3, 76, 0
5, 1485, Note_on_c, 3, 77, 70
5, 1500, Note_on_c, 3, 77, 0
5, 1500, Note_on_c, 3, 76, 70
5, 1515, Note_on_c, 3, 76, 0
5, 1515, Note_on_c, 3, 77, 70
5, 1530, Note_on_c, 3, 77, 0
5, 1530, Note_on_c, 3, 74, 70
5, 1545, Note_on_c, 3, 74, 0
5, 1545, Note_on_c, 3, 76, 70
5, 1560, Note_on_c, 3, 76, 0
5, 1560, Note_on_c, 3, 77, 70
5, 1620, Note_on_c, 3, 77, 0
5, 1620, Note_on_c, 3, 76, 70
5, 1650, Note_on_c, 3, 76, 0
5, 1680, Note_on_c, 3, 74, 70
5, 1710, Note_on_c, 3, 74, 0
5, 1740, Note_on_c, 3, 72, 70
5, 1770, Note_on_c, 3, 72, 0
5, 1800, Note_on_c, 3, 74, 70
5, 1815, Note_on_c, 3, 74, 0
5, 1815, Note_on_c, 3, 76, 70
5, 1830, Note_on_c, 3, 76, 0
5, 1830, Note_on_c, 3, 74, 70
5, 1845, Note_on_c, 3, 74, 0
5, 1845, Note_on_c, 3, 76, 70
5, 1860, Note_on_c, 3, 76, 0
5, 1860, Note_on_c, 3, 74, 70
5, 1875, Note_on_c, 3, 74, 0
5, 1875, Note_on_c, 3, 76, 70
5, 1890, Note_on_c, 3, 76, 0
5, 1890, Note_on_c, 3, 72, 70
5, 1905, Note_on_c, 3, 72, 0
5, 1905, Note_on_c, 3, 74, 70
5, 1920, Note_on_c, 3, 74, 0
5, 1920, Note_on_c, 3, 76, 70
5, 1980, Note_on_c, 3, 76, 0
5, 1980, Note_on_c, 3, 74, 70
5, 2010, Note_on_c, 3, 74, 0
5, 2040, Note_on_c, 3, 72, 70
5, 2070, Note_on_c, 3, 72, 0
5, 2100, Note_on_c, 3, 71, 70
5, 2130, Note_on_c, 3, 71, 0
5, 2160, Note_on_c, 3, 55, 110
5, 2160, Note_on_c, 3, 64, 110
5, 2160, Note_on_c, 3, 72, 110
5, 2280, Note_on_c, 3, 72, 0
5, 2280, Note_on_c, 3, 64, 0
5, 2280, Note_on_c, 3, 55, 0
5, 2280, Note_on_c, 3, 67, 110
5, 2400, Note_on_c, 3, 67, 0
5, 2520, Note_on_c, 3, 64, 110
5, 2640, Note_on_c, 3, 64, 0
5, 2640, Note_on_c, 3, 60, 110
5, 2760, Note_on_c, 3, 60, 0
5, 3600, Note_on_c, 3, 79, 70
5, 3615, Note_on_c, 3, 79, 0
5, 3615, Note_on_c, 3, 81, 70
5, 3630, Note_on_c, 3, 81, 0
5, 3630, Note_on_c, 3, 79, 70
5, 3645, Note_on_c, 3, 79, 0
5, 3645, Note_on_c, 3, 81, 70
5, 3660, Note_on_c, 3, 81, 0
5, 3660, Note_on_c, 3, 79, 70
5, 3675, Note_on_c, 3, 79, 0
5, 3675, Note_on_c, 3, 81, 70
5, 3690, Note_on_c, 3, 81, 0
5, 3690, Note_on_c, 3, 77, 70
5, 3705, Note_on_c, 3, 77, 0
5, 3705, Note_on_c, 3, 79, 70
5, 3720, Note_on_c, 3, 79, 0
5, 3720, Note_on_c, 3, 81, 70
5, 3780, Note_on_c, 3, 81, 0
5, 3780, Note_on_c, 3, 79, 70
5, 3810, Note_on_c, 3, 79, 0
5, 3840, Note_on_c, 3, 77, 70
5, 3870, Note_on_c, 3, 77, 0
5, 3900, Note_on_c, 3, 76, 70
5, 3930, Note_on_c, 3, 76, 0
5, 3960, Note_on_c, 3, 77, 70
5, 3975, Note_on_c, 3, 77, 0
5, 3975, Note_on_c, 3, 79, 70
5, 3990, Note_on_c, 3, 79, 0
5, 3990, Note_on_c, 3, 77, 70
5, 4005, Note_on_c, 3, 77, 0
5, 4005, Note_on_c, 3, 79, 70
5, 4020, Note_on_c, 3, 79, 0
5, 4020, Note_on_c, 3, 77, 70
5, 4035, Note_on_c, 3, 77, 0
5, 4035, Note_on_c, 3, 79, 70
5, 4050, Note_on_c, 3, 79, 0
5, 4050, Note_on_c, 3, 76, 70
5, 4065, Note_on_c, 3, 76, 0
5, 4065, Note_on_c, 3, 77, 70
5, 4080, Note_on_c, 3, 77, 0
5, 4080, Note_on_c, 3, 79, 70
5, 4140, Note_on_c, 3, 79, 0
5, 4140, Note_on_c, 3, 77, 70
5, 4170, Note_on_c, 3, 77, 0
5, 4200, Note_on_c, 3, 76, 70
5, 4230, Note_on_c, 3, 76, 0
5, 4260, Note_on_c, 3, 74, 70
5, 4290, Note_on_c, 3, 74, 0
5, 4320, Note_on_c, 3, 72, 110
5, 4440, Note_on_c, 3, 72, 0
5, 4440, Note_on_c, 3, 72, 110
5, 4500, Note_on_c, 3, 72, 0
5, 4500, Note_on_c, 3, 76, 110
5, 4560, Note_on_c, 3, 76, 0
5, 4560, Note_on_c, 3, 79, 110
5, 4620, Note_on_c, 3, 79, 0
5, 4620, Note_on_c, 3, 84, 110
5, 4680, Note_on_c, 3, 84, 0
5, 4680, Note_on_c, 3, 84, 110
5, 4740, Note_on_c, 3, 84, 0
5, 4740, Note_on_c, 3, 74, 110
5, 4800, Note_on_c, 3, 74, 0
5, 4800, Note_on_c, 3, 74, 110
5, 4980, Note_on_c, 3, 74, 0
5, 4980, Note_on_c, 3, 76, 110
5, 5040, Note_on_c, 3, 76, 0
5, 5040, Note_on_c, 3, 76, 110
5, 5100, Note_on_c, 3, 76, 0
5, 5100, Note_on_c, 3, 77, 110
5, 5160, Note_on_c, 3, 77, 0
5, 5160, Note_on_c, 3, 77, 110
5, 5340, Note_on_c, 3, 77, 0
5, 5340, Note_on_c, 3, 79, 110
5, 5400, Note_on_c, 3, 79, 0
5, 5400, Note_on_c, 3, 81, 110
5, 5520, Note_on_c, 3, 81, 0
5, 5520, Note_on_c, 3, 79, 110
5, 5700, Note_on_c, 3, 79, 0
5, 5700, Note_on_c, 3, 77, 110
5, 5760, Note_on_c, 3, 77, 0
5, 5760, Note_on_c, 3, 76, 110
5, 5850, Note_on_c, 3, 79, 110
5, 5880, Note_on_c, 3, 79, 0
5, 5880, Note_on_c, 3, 76, 0
5, 5880, Note_on_c, 3, 77, 110
5, 5970, Note_on_c, 3, 76, 110
5, 6000, Note_on_c, 3, 76, 0
5, 6000, Note_on_c, 3, 77, 0
5, 6000, Note_on_c, 3, 74, 110
5, 6120, Note_on_c, 3, 74, 0
5, 6120, Note_on_c, 3, 79, 110
5, 6240, Note_on_c, 3, 79, 0
5, 6240, Note_on_c, 3, 84, 110
5, 6420, Note_on_c, 3, 84, 0
5, 6420, Note_on_c, 3, 76, 110
5, 6480, Note_on_c, 3, 76, 0
5, 6480, Note_on_c, 3, 74, 110
5, 6495, Note_on_c, 3, 74, 0
5, 6495, Note_on_c, 3, 76, 110
5, 6510, Note_on_c, 3, 76, 0
5, 6510, Note_on_c, 3, 77, 110
5, 6600, Note_on_c, 3, 77, 0
5, 6600, Note_on_c, 3, 76, 110
5, 6615, Note_on_c, 3, 76, 0
5, 6615, Note_on_c, 3, 77, 110
5, 6630, Note_on_c, 3, 77, 0
5, 6630, Note_on_c, 3, 79, 110
5, 6720, Note_on_c, 3, 79, 0
5, 6720, Note_on_c, 3, 71, 110
5, 6735, Note_on_c, 3, 71, 0
5, 6735, Note_on_c, 3, 72, 110
5, 6750, Note_on_c, 3, 72, 0
5, 6750, Note_on_c, 3, 74, 110
5, 6840, Note_on_c, 3, 74, 0
5, 6840, Note_on_c, 3, 72, 100
5, 6870, Note_on_c, 3, 72, 0
5, 6870, Note_on_c, 3, 84, 100
5, 6900, Note_on_c, 3, 84, 0
5, 6900, Note_on_c, 3, 84, 100
5, 6930, Note_on_c, 3, 84, 0
5, 6930, Note_on_c, 3, 84, 100
5, 6960, Note_on_c, 3, 84, 0
5, 6960, Note_on_c, 3, 84, 100
5, 6990, Note_on_c, 3, 84, 0
5, 7020, Note_on_c, 3, 84, 100
5, 7050, Note_on_c, 3, 84, 0
5, 7080, Note_on_c, 3, 84, 100
5, 7110, Note_on_c, 3, 84, 0
5, 7140, Note_on_c, 3, 84, 100
5, 7170, Note_on_c, 3, 84, 0
5, 7200, Note_on_c, 3, 84, 100
5, 7290, Note_on_c, 3, 81, 75
5, 7320, Note_on_c, 3, 81, 0
5, 7320, Note_on_c, 3, 84, 0
5, 7320, Note_on_c, 3, 79, 74
5, 7380, Note_on_c, 3, 79, 0
5, 7380, Note_on_c, 3, 77, 74
5, 7410, Note_on_c, 3, 77, 0
5, 7410, Note_on_c, 3, 81, 74
5, 7410, Note_on_c, 3, 76, 74
5, 7440, Note_on_c, 3, 76, 0
5, 7440, Note_on_c, 3, 81, 0
5, 7440, Note_on_c, 3, 79, 74
5, 7500, Note_on_c, 3, 79, 0
5, 7500, Note_on_c, 3, 77, 74
5, 7530, Note_on_c, 3, 77, 0
5, 7530, Note_on_c, 3, 76, 74
5, 7560, Note_on_c, 3, 76, 0
5, 7560, Note_on_c, 3, 77, 100
5, 7590, Note_on_c, 3, 77, 0
5, 7590, Note_on_c, 3, 86, 100
5, 7620, Note_on_c, 3, 86, 0
5, 7620, Note_on_c, 3, 86, 100
5, 7650, Note_on_c, 3, 86, 0
5, 7650, Note_on_c, 3, 86, 100
5, 7680, Note_on_c, 3, 86, 0
5, 7680, Note_on_c, 3, 86, 100
5, 7710, Note_on_c, 3, 86, 0
5, 7740, Note_on_c, 3, 86, 100
5, 7770, Note_on_c, 3, 86, 0
5, 7800, Note_on_c, 3, 86, 100
5, 7830, Note_on_c, 3, 86, 0
5, 7860, Note_on_c, 3, 86, 100
5, 7890, Note_on_c, 3, 86, 0
5, 7920, Note_on_c, 3, 86, 100
5, 8010, Note_on_c, 3, 79, 70
5, 8040, Note_on_c, 3, 79, 0
5, 8040, Note_on_c, 3, 86, 0
5, 8040, Note_on_c, 3, 77, 70
5, 8100, Note_on_c, 3, 77, 0
5, 8100, Note_on_c, 3, 76, 70
5, 8130, Note_on_c, 3, 76, 0
5, 8130, Note_on_c, 3, 79, 70
5, 8130, Note_on_c, 3, 74, 70
5, 8160, Note_on_c, 3, 74, 0
5, 8160, Note_on_c, 3, 79, 0
5, 8160, Note_on_c, 3, 77, 70
5, 8220, Note_on_c, 3, 77, 0
5, 8220, Note_on_c, 3, 76, 70
5, 8250, Note_on_c, 3, 76, 0
5, 8250, Note_on_c, 3, 74, 70
5, 8280, Note_on_c, 3, 74, 0
5, 8280, Note_on_c, 3, 72, 100
5, 8310, Note_on_c, 3, 72, 0
5, 8310, Note_on_c, 3, 84, 100
5, 8340, Note_on_c, 3, 84, 0
5, 8340, Note_on_c, 3, 84, 100
5, 8370, Note_on_c, 3, 84, 0
5, 8370, Note_on_c, 3, 84, 100
5, 8400, Note_on_c, 3, 84, 0
5, 8400, Note_on_c, 3, 84, 100
5, 8430, Note_on_c, 3, 84, 0
5, 8460, Note_on_c, 3, 84, 100
5, 8490, Note_on_c, 3, 84, 0
5, 8520, Note_on_c, 3, 84, 100
5, 8550, Note_on_c, 3, 84, 0
5, 8580, Note_on_c, 3, 84, 100
5, 8610, Note_on_c, 3, 84, 0
5, 8640, Note_on_c, 3, 84, 100
5, 8730, Note_on_c, 3, 81, 75
5, 8760, Note_on_c, 3, 81, 0
5, 8760, Note_on_c, 3, 84, 0
5, 8760, Note_on_c, 3, 79, 74
5, 8820, Note_on_c, 3, 79, 0
5, 8820, Note_on_c, 3, 77, 74
5, 8850, Note_on_c, 3, 77, 0
5, 8850, Note_on_c, 3, 81, 74
5, 8850, Note_on_c, 3, 76, 74
5, 8880, Note_on_c, 3, 76, 0
5, 8880, Note_on_c, 3, 81, 0
5, 8880, Note_on_c, 3, 79, 74
5, 8940, Note_on_c, 3, 79, 0
5, 8940, Note_on_c, 3, 77, 74
5, 8970, Note_on_c, 3, 77, 0
5, 8970, Note_on_c, 3, 76, 74
5, 9000, Note_on_c, 3, 76, 0
5, 9000, Note_on_c, 3, 74, 110
5, 9030, Note_on_c, 3, 74, 0
5, 9030, Note_on_c, 3, 84, 110
5, 9060, Note_on_c, 3, 84, 0
5, 9060, Note_on_c, 3, 84, 110
5, 9090, Note_on_c, 3, 84, 0
5, 9090, Note_on_c, 3, 84, 110
5, 9120, Note_on_c, 3, 84, 0
5, 9120, Note_on_c, 3, 84, 110
5, 9150, Note_on_c, 3, 84, 0
5, 9180, Note_on_c, 3, 84, 110
5, 9210, Note_on_c, 3, 84, 0
5, 9240, Note_on_c, 3, 84, 110
5, 9270, Note_on_c, 3, 84, 0
5, 9300, Note_on_c, 3, 84, 110
5, 9330, Note_on_c, 3, 84, 0
5, 9360, Note_on_c, 3, 84, 110
5, 9390, Note_on_c, 3, 84, 0
5, 9390, Note_on_c, 3, 83, 110
5, 9420, Note_on_c, 3, 83, 0
5, 9420, Note_on_c, 3, 81, 110
5, 9450, Note_on_c, 3, 81, 0
5, 9450, Note_on_c, 3, 83, 110
5, 9480, Note_on_c, 3, 83, 0
5, 9480, Note_on_c, 3, 81, 110
5, 9510, Note_on_c, 3, 81, 0
5, 9510, Note_on_c, 3, 79, 110
5, 9540, Note_on_c, 3, 79, 0
5, 9540, Note_on_c, 3, 78, 110
5, 9570, Note_on_c, 3, 78, 0
5, 9570, Note_on_c, 3, 79, 110
5, 9600, Note_on_c, 3, 79, 0
5, 9600, Note_on_c, 3, 78, 110
5, 9630, Note_on_c, 3, 78, 0
5, 9630, Note_on_c, 3, 76, 110
5, 9660, Note_on_c, 3, 76, 0
5, 9660, Note_on_c, 3, 74, 110
5, 9690, Note_on_c, 3, 74, 0
5, 9690, Note_on_c, 3, 72, 110
5, 9720, Note_on_c, 3, 72, 0
5, 9720, Note_on_c, 3, 71, 110
5, 9840, Note_on_c, 3, 71, 0
5, 9960, Note_on_c, 3, 83, 110
5, 9975, Note_on_c, 3, 83, 0
5, 9975, Note_on_c, 3, 84, 110
5, 9990, Note_on_c, 3, 84, 0
5, 9990, Note_on_c, 3, 83, 110
5, 10005, Note_on_c, 3, 83, 0
5, 10005, Note_on_c, 3, 84, 110
5, 10020, Note_on_c, 3, 84, 0
5, 10020, Note_on_c, 3, 83, 110
5, 10035, Note_on_c, 3, 83, 0
5, 10035, Note_on_c, 3, 84, 110
5, 10050, Note_on_c, 3, 84, 0
5, 10050, Note_on_c, 3, 81, 110
5, 10065, Note_on_c, 3, 81, 0
5, 10065, Note_on_c, 3, 83, 110
5, 10080, Note_on_c, 3, 83, 0
5, 10080, Note_on_c, 3, 84, 110
5, 10200, Note_on_c, 3, 84, 0
5, 10320, Note_on_c, 3, 84, 110
5, 10335, Note_on_c, 3, 84, 0
5, 10335, Note_on_c, 3, 86, 110
5, 10350, Note_on_c, 3, 86, 0
5, 10350, Note_on_c, 3, 84, 110
5, 10365, Note_on_c, 3, 84, 0
5, 10365, Note_on_c, 3, 86, 110
5, 10380, Note_on_c, 3, 86, 0
5, 10380, Note_on_c, 3, 84, 110
5, 10395, Note_on_c, 3, 84, 0
5, 10395, Note_on_c, 3, 86, 110
5, 10410, Note_on_c, 3, 86, 0
5, 10410, Note_on_c, 3, 83, 110
5, 10425, Note_on_c, 3, 83, 0
5, 10425, Note_on_c, 3, 84, 110
5, 10440, Note_on_c, 3, 84, 0
5, 10440, Note_on_c, 3, 86, 110
5, 10560, Note_on_c, 3, 86, 0
5, 10680, Note_on_c, 3, 86, 110
5, 10695, Note_on_c, 3, 86, 0
5, 10695, Note_on_c, 3, 88, 110
5, 10710, Note_on_c, 3, 88, 0
5, 10710, Note_on_c, 3, 86, 110
5, 10725, Note_on_c, 3, 86, 0
5, 10725, Note_on_c, 3, 88, 110
5, 10740, Note_on_c, 3, 88, 0
5, 10740, Note_on_c, 3, 86, 110
5, 10755, Note_on_c, 3, 86, 0
5, 10755, Note_on_c, 3, 88, 110
5, 10770, Note_on_c, 3, 88, 0
5, 10770, Note_on_c, 3, 84, 110
5, 10785, Note_on_c, 3, 84, 0
5, 10785, Note_on_c, 3, 86, 110
5, 10800, Note_on_c, 3, 86, 0
5, 10800, Note_on_c, 3, 88, 110
5, 10830, Note_on_c, 3, 88, 0
5, 10860, Note_on_c, 3, 86, 110
5, 10890, Note_on_c, 3, 86, 0
5, 10920, Note_on_c, 3, 84, 110
5, 10950, Note_on_c, 3, 84, 0
5, 10980, Note_on_c, 3, 83, 110
5, 11010, Note_on_c, 3, 83, 0
5, 11040, Note_on_c, 3, 81, 110
5, 11070, Note_on_c, 3, 81, 0
5, 11100, Note_on_c, 3, 79, 110
5, 11130, Note_on_c, 3, 79, 0
5, 11160, Note_on_c, 3, 86, 110
5, 11160, Note_on_c, 3, 74, 110
5, 11280, Note_on_c, 3, 74, 0
5, 11280, Note_on_c, 3, 86, 0
5, 11280, Note_on_c, 3, 62, 110
5, 11400, Note_on_c, 3, 62, 0
5, 11520, Note_on_c, 3, 74, 70
5, 11580, Note_on_c, 3, 74, 0
5, 11640, Note_on_c, 3, 74, 70
5, 11700, Note_on_c, 3, 74, 0
5, 11760, Note_on_c, 3, 74, 70
5, 11820, Note_on_c, 3, 74, 0
5, 11880, Note_on_c, 3, 76, 70
5, 12000, Note_on_c, 3, 76, 0
5, 12060, Note_on_c, 3, 78, 70
5, 12090, Note_on_c, 3, 78, 0
5, 12120, Note_on_c, 3, 79, 70
5, 12180, Note_on_c, 3, 79, 0
5, 12240, Note_on_c, 3, 69, 70
5, 12255, Note_on_c, 3, 69, 0
5, 12255, Note_on_c, 3, 71, 70
5, 12270, Note_on_c, 3, 71, 0
5, 12270, Note_on_c, 3, 72, 70
5, 12360, Note_on_c, 3, 72, 0
5, 12600, Note_on_c, 3, 71, 70
5, 12615, Note_on_c, 3, 71, 0
5, 12615, Note_on_c, 3, 72, 70
5, 12630, Note_on_c, 3, 72, 0
5, 12630, Note_on_c, 3, 74, 70
5, 12720, Note_on_c, 3, 74, 0
5, 12960, Note_on_c, 3, 74, 70
5, 13020, Note_on_c, 3, 74, 0
5, 13080, Note_on_c, 3, 74, 70
5, 13140, Note_on_c, 3, 74, 0
5, 13200, Note_on_c, 3, 74, 70
5, 13260, Note_on_c, 3, 74, 0
5, 13320, Note_on_c, 3, 76, 70
5, 13410, Note_on_c, 3, 76, 0
5, 13410, Note_on_c, 3, 78, 70
5, 13440, Note_on_c, 3, 78, 0
5, 13440, Note_on_c, 3, 79, 70
5, 13500, Note_on_c, 3, 79, 0
5, 13500, Note_on_c, 3, 78, 70
5, 13530, Note_on_c, 3, 78, 0
5, 13560, Note_on_c, 3, 76, 70
5, 13590, Note_on_c, 3, 76, 0
5, 13620, Note_on_c, 3, 74, 70
5, 13650, Note_on_c, 3, 74, 0
5, 13650, Note_on_c, 3, 74, 70
5, 13680, Note_on_c, 3, 74, 0
5, 13680, Note_on_c, 3, 72, 70
5, 13800, Note_on_c, 3, 72, 0
5, 13800, Note_on_c, 3, 71, 70
5, 13920, Note_on_c, 3, 71, 0
5, 13920, Note_on_c, 3, 69, 70
5, 14040, Note_on_c, 3, 69, 0
5, 14040, Note_on_c, 3, 70, 70
5, 14280, Note_on_c, 3, 70, 0
5, 14280, Note_on_c, 3, 71, 70
5, 14340, Note_on_c, 3, 71, 0
5, 15240, Note_on_c, 3, 66, 100
5, 15270, Note_on_c, 3, 66, 0
5, 15270, Note_on_c, 3, 67, 100
5, 15300, Note_on_c, 3, 67, 0
5, 15300, Note_on_c, 3, 66, 100
5, 15330, Note_on_c, 3, 66, 0
5, 15330, Note_on_c, 3, 67, 100
5, 15360, Note_on_c, 3, 67, 0
5, 15360, Note_on_c, 3, 69, 100
5, 15480, Note_on_c, 3, 69, 0
5, 15600, Note_on_c, 3, 67, 100
5, 15630, Note_on_c, 3, 67, 0
5, 15630, Note_on_c, 3, 69, 100
5, 15660, Note_on_c, 3, 69, 0
5, 15660, Note_on_c, 3, 67, 100
5, 15690, Note_on_c, 3, 67, 0
5, 15690, Note_on_c, 3, 69, 100
5, 15720, Note_on_c, 3, 69, 0
5, 15720, Note_on_c, 3, 71, 100
5, 15840, Note_on_c, 3, 71, 0
5, 16920, Note_on_c, 3, 86, 110
5, 16950, Note_on_c, 3, 86, 0
5, 16950, Note_on_c, 3, 86, 110
5, 16980, Note_on_c, 3, 86, 0
5, 16980, Note_on_c, 3, 85, 110
5, 17010, Note_on_c, 3, 85, 0
5, 17010, Note_on_c, 3, 85, 110
5, 17040, Note_on_c, 3, 85, 0
5, 17040, Note_on_c, 3, 86, 110
5, 17070, Note_on_c, 3, 86, 0
5, 17070, Note_on_c, 3, 86, 110
5, 17100, Note_on_c, 3, 86, 0
5, 17100, Note_on_c, 3, 85, 110
5, 17130, Note_on_c, 3, 85, 0
5, 17130, Note_on_c, 3, 85, 110
5, 17160, Note_on_c, 3, 85, 0
5, 17160, Note_on_c, 3, 86, 110
5, 17190, Note_on_c, 3, 86, 0
5, 17190, Note_on_c, 3, 86, 110
5, 17220, Note_on_c, 3, 86, 0
5, 17220, Note_on_c, 3, 83, 110
5, 17250, Note_on_c, 3, 83, 0
5, 17250, Note_on_c, 3, 83, 110
5, 17280, Note_on_c, 3, 83, 0
5, 17280, Note_on_c, 3, 86, 110
5, 17310, Note_on_c, 3, 86, 0
5, 17310, Note_on_c, 3, 86, 110
5, 17340, Note_on_c, 3, 86, 0
5, 17340, Note_on_c, 3, 85, 110
5, 17370, Note_on_c, 3, 85, 0
5, 17370, Note_on_c, 3, 85, 110
5, 17400, Note_on_c, 3, 85, 0
5, 17400, Note_on_c, 3, 86, 110
5, 17430, Note_on_c, 3, 86, 0
5, 17430, Note_on_c, 3, 86, 110
5, 17460, Note_on_c, 3, 86, 0
5, 17460, Note_on_c, 3, 85, 110
5, 17490, Note_on_c, 3, 85, 0
5, 17490, Note_on_c, 3, 85, 110
5, 17520, Note_on_c, 3, 85, 0
5, 17520, Note_on_c, 3, 86, 110
5, 17550, Note_on_c, 3, 86, 0
5, 17550, Note_on_c, 3, 86, 110
5, 17580, Note_on_c, 3, 86, 0
5, 17580, Note_on_c, 3, 81, 110
5, 17610, Note_on_c, 3, 81, 0
5, 17610, Note_on_c, 3, 81, 110
5, 17640, Note_on_c, 3, 81, 0
5, 17640, Note_on_c, 3, 79, 110
5, 17670, Note_on_c, 3, 79, 0
5, 17670, Note_on_c, 3, 79, 110
5, 17700, Note_on_c, 3, 79, 0
5, 17700, Note_on_c, 3, 78, 110
5, 17730, Note_on_c, 3, 78, 0
5, 17730, Note_on_c, 3, 78, 110
5, 17760, Note_on_c, 3, 78, 0
5, 17760, Note_on_c, 3, 79, 110
5, 17790, Note_on_c, 3, 79, 0
5, 17790, Note_on_c, 3, 79, 110
5, 17820, Note_on_c, 3, 79, 0
5, 17820, Note_on_c, 3, 78, 110
5, 17850, Note_on_c, 3, 78, 0
5, 17850, Note_on_c, 3, 78, 110
5, 17880, Note_on_c, 3, 78, 0
5, 17880, Note_on_c, 3, 79, 110
5, 17910, Note_on_c, 3, 79, 0
5, 17910, Note_on_c, 3, 79, 110
5, 17940, Note_on_c, 3, 79, 0
5, 17940, Note_on_c, 3, 76, 110
5, 17970, Note_on_c, 3, 76, 0
5, 17970, Note_on_c, 3, 76, 110
5, 18000, Note_on_c, 3, 76, 0
5, 18000, Note_on_c, 3, 79, 110
5, 18030, Note_on_c, 3, 79, 0
5, 18030, Note_on_c, 3, 79, 110
5, 18060, Note_on_c, 3, 79, 0
5, 18060, Note_on_c, 3, 78, 110
5, 18090, Note_on_c, 3, 78, 0
5, 18090, Note_on_c, 3, 78, 110
5, 18120, Note_on_c, 3, 78, 0
5, 18120, Note_on_c, 3, 79, 110
5, 18150, Note_on_c, 3, 79, 0
5, 18150, Note_on_c, 3, 79, 110
5, 18180, Note_on_c, 3, 79, 0
5, 18180, Note_on_c, 3, 78, 110
5, 18210, Note_on_c, 3, 78, 0
5, 18210, Note_on_c, 3, 78, 110
5, 18240, Note_on_c, 3, 78, 0
5, 18240, Note_on_c, 3, 79, 110
5, 18270, Note_on_c, 3, 79, 0
5, 18270, Note_on_c, 3, 79, 110
5, 18300, Note_on_c, 3, 79, 0
5, 18300, Note_on_c, 3, 71, 110
5, 18330, Note_on_c, 3, 71, 0
5, 18330, Note_on_c, 3, 71, 110
5, 18360, Note_on_c, 3, 71, 0
5, 18360, Note_on_c, 3, 72, 110
5, 18480, Note_on_c, 3, 72, 0
5, 18480, Note_on_c, 3, 84, 110
5, 18600, Note_on_c, 3, 84, 0
5, 18600, Note_on_c, 3, 84, 110
5, 18720, Note_on_c, 3, 84, 0
5, 18720, Note_on_c, 3, 84, 110
5, 18810, Note_on_c, 3, 86, 110
5, 18840, Note_on_c, 3, 86, 0
5, 18840, Note_on_c, 3, 84, 0
5, 18840, Note_on_c, 3, 84, 110
5, 18900, Note_on_c, 3, 84, 0
5, 18900, Note_on_c, 3, 83, 110
5, 18930, Note_on_c, 3, 83, 0
5, 18930, Note_on_c, 3, 81, 110
5, 18960, Note_on_c, 3, 81, 0
5, 18960, Note_on_c, 3, 83, 110
5, 19080, Note_on_c, 3, 83, 0
5, 19080, Note_on_c, 3, 76, 110
5, 19170, Note_on_c, 3, 76, 0
5, 19170, Note_on_c, 3, 81, 110
5, 19200, Note_on_c, 3, 81, 0
5, 19200, Note_on_c, 3, 79, 110
5, 19320, Note_on_c, 3, 79, 0
5, 19320, Note_on_c, 3, 78, 110
5, 19440, Note_on_c, 3, 78, 0
5, 19440, Note_on_c, 3, 79, 110
5, 19560, Note_on_c, 3, 79, 0
5, 19560, Note_on_c, 3, 77, 110
5, 19680, Note_on_c, 3, 77, 0
5, 19680, Note_on_c, 3, 76, 110
5, 19800, Note_on_c, 3, 76, 0
5, 19800, Note_on_c, 3, 64, 110
5, 19800, Note_on_c, 3, 74, 110
5, 19920, Note_on_c, 3, 74, 0
5, 19920, Note_on_c, 3, 64, 0
5, 19920, Note_on_c, 3, 64, 110
5, 19920, Note_on_c, 3, 73, 110
5, 20040, Note_on_c, 3, 73, 0
5, 20040, Note_on_c, 3, 64, 0
5, 20160, Note_on_c, 3, 60, 70
5, 20280, Note_on_c, 3, 60, 0
5, 20280, Note_on_c, 3, 72, 70
5, 20400, Note_on_c, 3, 72, 0
5, 20400, Note_on_c, 3, 72, 70
5, 20520, Note_on_c, 3, 72, 0
5, 20520, Note_on_c, 3, 72, 70
5, 20610, Note_on_c, 3, 74, 70
5, 20640, Note_on_c, 3, 74, 0
5, 20640, Note_on_c, 3, 72, 0
5, 20640, Note_on_c, 3, 72, 70
5, 20700, Note_on_c, 3, 72, 0
5, 20700, Note_on_c, 3, 71, 70
5, 20730, Note_on_c, 3, 71, 0
5, 20730, Note_on_c, 3, 69, 70
5, 20760, Note_on_c, 3, 69, 0
5, 20760, Note_on_c, 3, 71, 70
5, 20880, Note_on_c, 3, 71, 0
5, 20880, Note_on_c, 3, 64, 70
5, 20970, Note_on_c, 3, 64, 0
5, 20970, Note_on_c, 3, 69, 70
5, 21000, Note_on_c, 3, 69, 0
5, 21000, Note_on_c, 3, 67, 70
5, 21120, Note_on_c, 3, 67, 0
5, 21120, Note_on_c, 3, 66, 70
5, 21240, Note_on_c, 3, 66, 0
5, 21240, Note_on_c, 3, 67, 110
5, 21360, Note_on_c, 3, 67, 0
5, 21450, Note_on_c, 3, 86, 110
5, 21480, Note_on_c, 3, 86, 0
5, 21480, Note_on_c, 3, 84, 110
5, 21540, Note_on_c, 3, 84, 0
5, 21540, Note_on_c, 3, 83, 110
5, 21570, Note_on_c, 3, 83, 0
5, 21570, Note_on_c, 3, 81, 110
5, 21600, Note_on_c, 3, 81, 0
5, 21600, Note_on_c, 3, 83, 110
5, 21720, Note_on_c, 3, 83, 0
5, 21810, Note_on_c, 3, 83, 110
5, 21840, Note_on_c, 3, 83, 0
5, 21840, Note_on_c, 3, 81, 110
5, 21900, Note_on_c, 3, 81, 0
5, 21900, Note_on_c, 3, 79, 110
5, 21930, Note_on_c, 3, 79, 0
5, 21930, Note_on_c, 3, 78, 110
5, 21960, Note_on_c, 3, 78, 0
5, 21960, Note_on_c, 3, 79, 110
5, 22080, Note_on_c, 3, 79, 0
5, 22170, Note_on_c, 3, 86, 110
5, 22200, Note_on_c, 3, 86, 0
5, 22200, Note_on_c, 3, 84, 110
5, 22260, Note_on_c, 3, 84, 0
5, 22260, Note_on_c, 3, 83, 110
5, 22290, Note_on_c, 3, 83, 0
5, 22290, Note_on_c, 3, 81, 110
5, 22320, Note_on_c, 3, 81, 0
5, 22320, Note_on_c, 3, 83, 110
5, 22440, Note_on_c, 3, 83, 0
5, 22530, Note_on_c, 3, 83, 110
5, 22560, Note_on_c, 3, 83, 0
5, 22560, Note_on_c, 3, 81, 110
5, 22620, Note_on_c, 3, 81, 0
5, 22620, Note_on_c, 3, 79, 110
5, 22650, Note_on_c, 3, 79, 0
5, 22650, Note_on_c, 3, 78, 110
5, 22680, Note_on_c, 3, 78, 0
5, 22680, Note_on_c, 3, 79, 110
5, 22710, Note_on_c, 3, 79, 0
5, 22710, Note_on_c, 3, 74, 110
5, 22740, Note_on_c, 3, 74, 0
5, 22740, Note_on_c, 3, 74, 110
5, 22770, Note_on_c, 3, 74, 0
5, 22770, Note_on_c, 3, 74, 110
5, 22800, Note_on_c, 3, 74, 0
5, 22800, Note_on_c, 3, 83, 110
5, 22830, Note_on_c, 3, 83, 0
5, 22830, Note_on_c, 3, 74, 110
5, 22860, Note_on_c, 3, 74, 0
5, 22860, Note_on_c, 3, 74, 110
5, 22890, Note_on_c, 3, 74, 0
5, 22890, Note_on_c, 3, 74, 110
5, 22920, Note_on_c, 3, 74, 0
5, 22920, Note_on_c, 3, 78, 110
5, 22950, Note_on_c, 3, 78, 0
5, 22950, Note_on_c, 3, 74, 110
5, 22980, Note_on_c, 3, 74, 0
5, 22980, Note_on_c, 3, 74, 110
5, 23010, Note_on_c, 3, 74, 0
5, 23010, Note_on_c, 3, 74, 110
5, 23040, Note_on_c, 3, 74, 0
5, 23040, Note_on_c, 3, 79, 110
5, 23070, Note_on_c, 3, 79, 0
5, 23070, Note_on_c, 3, 74, 110
5, 23100, Note_on_c, 3, 74, 0
5, 23100, Note_on_c, 3, 74, 110
5, 23130, Note_on_c, 3, 74, 0
5, 23130, Note_on_c, 3, 74, 110
5, 23160, Note_on_c, 3, 74, 0
5, 23160, Note_on_c, 3, 83, 110
5, 23190, Note_on_c, 3, 83, 0
5, 23190, Note_on_c, 3, 74, 110
5, 23220, Note_on_c, 3, 74, 0
5, 23220, Note_on_c, 3, 74, 110
5, 23250, Note_on_c, 3, 74, 0
5, 23250, Note_on_c, 3, 74, 110
5, 23280, Note_on_c, 3, 74, 0
5, 23280, Note_on_c, 3, 78, 110
5, 23310, Note_on_c, 3, 78, 0
5, 23310, Note_on_c, 3, 74, 110
5, 23340, Note_on_c, 3, 74, 0
5, 23340, Note_on_c, 3, 74, 110
5, 23370, Note_on_c, 3, 74, 0
5, 23370, Note_on_c, 3, 74, 110
5, 23400, Note_on_c, 3, 74, 0
5, 23400, Note_on_c, 3, 79, 100
5, 23520, Note_on_c, 3, 79, 0
5, 23520, Note_on_c, 3, 67, 100
5, 23580, Note_on_c, 3, 67, 0
5, 23580, Note_on_c, 3, 69, 100
5, 23640, Note_on_c, 3, 69, 0
5, 23640, Note_on_c, 3, 71, 100
5, 23700, Note_on_c, 3, 71, 0
5, 23700, Note_on_c, 3, 72, 100
5, 23760, Note_on_c, 3, 72, 0
5, 23760, Note_on_c, 3, 74, 100
5, 23820, Note_on_c, 3, 74, 0
5, 23820, Note_on_c, 3, 76, 100
5, 23880, Note_on_c, 3, 76, 0
5, 23880, Note_on_c, 3, 77, 100
5, 23940, Note_on_c, 3, 77, 0
5, 23940, Note_on_c, 3, 74, 100
5, 24000, Note_on_c, 3, 74, 0
5, 24000, Note_on_c, 3, 71, 100
5, 24060, Note_on_c, 3, 71, 0
5, 24060, Note_on_c, 3, 67, 100
5, 24120, Note_on_c, 3, 67, 0
5, 24120, Note_on_c, 3, 55, 110
5, 24120, Note_on_c, 3, 64, 110
5, 24120, Note_on_c, 3, 72, 110
5, 24240, Note_on_c, 3, 72, 0
5, 24240, Note_on_c, 3, 64, 0
5, 24240, Note_on_c, 3, 55, 0
5, 24240, Note_on_c, 3, 67, 110
5, 24360, Note_on_c, 3, 67, 0
5, 24480, Note_on_c, 3, 64, 110
5, 24600, Note_on_c, 3, 64, 0
5, 24600, Note_on_c, 3, 60, 110
5, 24720, Note_on_c, 3, 60, 0
5, 24840, Note_on_c, 3, 79, 70
5, 24855, Note_on_c, 3, 79, 0
5, 24855, Note_on_c, 3, 81, 70
5, 24870, Note_on_c, 3, 81, 0
5, 24870, Note_on_c, 3, 79, 70
5, 24885, Note_on_c, 3, 79, 0
5, 24885, Note_on_c, 3, 81, 70
5, 24900, Note_on_c, 3, 81, 0
5, 24900, Note_on_c, 3, 79, 70
5, 24915, Note_on_c, 3, 79, 0
5, 24915, Note_on_c, 3, 81, 70
5, 24930, Note_on_c, 3, 81, 0
5, 24930, Note_on_c, 3, 77, 70
5, 24945, Note_on_c, 3, 77, 0
5, 24945, Note_on_c, 3, 79, 70
5, 24960, Note_on_c, 3, 79, 0
5, 24960, Note_on_c, 3, 81, 70
5, 25020, Note_on_c, 3, 81, 0
5, 25020, Note_on_c, 3, 79, 70
5, 25050, Note_on_c, 3, 79, 0
5, 25080, Note_on_c, 3, 77, 70
5, 25110, Note_on_c, 3, 77, 0
5, 25140, Note_on_c, 3, 76, 70
5, 25170, Note_on_c, 3, 76, 0
5, 25200, Note_on_c, 3, 77, 70
5, 25215, Note_on_c, 3, 77, 0
5, 25215, Note_on_c, 3, 79, 70
5, 25230, Note_on_c, 3, 79, 0
5, 25230, Note_on_c, 3, 77, 70
5, 25245, Note_on_c, 3, 77, 0
5, 25245, Note_on_c, 3, 79, 70
5, 25260, Note_on_c, 3, 79, 0
5, 25260, Note_on_c, 3, 77, 70
5, 25275, Note_on_c, 3, 77, 0
5, 25275, Note_on_c, 3, 79, 70
5, 25290, Note_on_c, 3, 79, 0
5, 25290, Note_on_c, 3, 76, 70
5, 25305, Note_on_c, 3, 76, 0
5, 25305, Note_on_c, 3, 77, 70
5, 25320, Note_on_c, 3, 77, 0
5, 25320, Note_on_c, 3, 79, 70
5, 25380, Note_on_c, 3, 79, 0
5, 25380, Note_on_c, 3, 77, 70
5, 25410, Note_on_c, 3, 77, 0
5, 25440, Note_on_c, 3, 76, 70
5, 25470, Note_on_c, 3, 76, 0
5, 25500, Note_on_c, 3, 74, 70
5, 25530, Note_on_c, 3, 74, 0
5, 25560, Note_on_c, 3, 76, 70
5, 25575, Note_on_c, 3, 76, 0
5, 25575, Note_on_c, 3, 77, 70
5, 25590, Note_on_c, 3, 77, 0
5, 25590, Note_on_c, 3, 76, 70
5, 25605, Note_on_c, 3, 76, 0
5, 25605, Note_on_c, 3, 77, 70
5, 25620, Note_on_c, 3, 77, 0
5, 25620, Note_on_c, 3, 76, 70
5, 25635, Note_on_c, 3, 76, 0
5, 25635, Note_on_c, 3, 77, 70
5, 25650, Note_on_c, 3, 77, 0
5, 25650, Note_on_c, 3, 74, 70
5, 25665, Note_on_c, 3, 74, 0
5, 25665, Note_on_c, 3, 76, 70
5, 25680, Note_on_c, 3, 76, 0
5, 25680, Note_on_c, 3, 77, 70
5, 25740, Note_on_c, 3, 77, 0
5, 25740, Note_on_c, 3, 76, 70
5, 25770, Note_on_c, 3, 76, 0
5, 25800, Note_on_c, 3, 74, 70
5, 25830, Note_on_c, 3, 74, 0
5, 25860, Note_on_c, 3, 72, 70
5, 25890, Note_on_c, 3, 72, 0
5, 25920, Note_on_c, 3, 74, 70
5, 25935, Note_on_c, 3, 74, 0
5, 25935, Note_on_c, 3, 76, 70
5, 25950, Note_on_c, 3, 76, 0
5, 25950, Note_on_c, 3, 74, 70
5, 25965, Note_on_c, 3, 74, 0
5, 25965, Note_on_c, 3, 76, 70
5, 25980, Note_on_c, 3, 76, 0
5, 25980, Note_on_c, 3, 74, 70
5, 25995, Note_on_c, 3, 74, 0
5, 25995, Note_on_c, 3, 76, 70
5, 26010, Note_on_c, 3, 76, 0
5, 26010, Note_on_c, 3, 72, 70
5, 26025, Note_on_c, 3, 72, 0
5, 26025, Note_on_c, 3, 74, 70
5, 26040, Note_on_c, 3, 74, 0
5, 26040, Note_on_c, 3, 76, 70
5, 26100, Note_on_c, 3, 76, 0
5, 26100, Note_on_c, 3, 74, 70
5, 26130, Note_on_c, 3, 74, 0
5, 26160, Note_on_c, 3, 72, 70
5, 26190, Note_on_c, 3, 72, 0
5, 26220, Note_on_c, 3, 71, 70
5, 26250, Note_on_c, 3, 71, 0
5, 26280, Note_on_c, 3, 55, 110
5, 26280, Note_on_c, 3, 64, 110
5, 26280, Note_on_c, 3, 72, 110
5, 26400, Note_on_c, 3, 72, 0
5, 26400, Note_on_c, 3, 64, 0
5, 26400, Note_on_c, 3, 55, 0
5, 26400, Note_on_c, 3, 67, 110
5, 26520, Note_on_c, 3, 67, 0
5, 26640, Note_on_c, 3, 64, 110
5, 26760, Note_on_c, 3, 64, 0
5, 26760, Note_on_c, 3, 60, 110
5, 26880, Note_on_c, 3, 60, 0
5, 27720, Note_on_c, 3, 79, 70
5, 27735, Note_on_c, 3, 79, 0
5, 27735, Note_on_c, 3, 81, 70
5, 27750, Note_on_c, 3, 81, 0
5, 27750, Note_on_c, 3, 79, 70
5, 27765, Note_on_c, 3, 79, 0
5, 27765, Note_on_c, 3, 81, 70
5, 27780, Note_on_c, 3, 81, 0
5, 27780, Note_on_c, 3, 79, 70
5, 27795, Note_on_c, 3, 79, 0
5, 27795, Note_on_c, 3, 81, 70
5, 27810, Note_on_c, 3, 81, 0
5, 27810, Note_on_c, 3, 77, 70
5, 27825, Note_on_c, 3, 77, 0
5, 27825, Note_on_c, 3, 79, 70
5, 27840, Note_on_c, 3, 79, 0
5, 27840, Note_on_c, 3, 81, 70
5, 27900, Note_on_c, 3, 81, 0
5, 27900, Note_on_c, 3, 79, 70
5, 27930, Note_on_c, 3, 79, 0
5, 27960, Note_on_c, 3, 77, 70
5, 27990, Note_on_c, 3, 77, 0
5, 28020, Note_on_c, 3, 76, 70
5, 28050, Note_on_c, 3, 76, 0
5, 28080, Note_on_c, 3, 77, 70
5, 28095, Note_on_c, 3, 77, 0
5, 28095, Note_on_c, 3, 79, 70
5, 28110, Note_on_c, 3, 79, 0
5, 28110, Note_on_c, 3, 77, 70
5, 28125, Note_on_c, 3, 77, 0
5, 28125, Note_on_c, 3, 79, 70
5, 28140, Note_on_c, 3, 79, 0
5, 28140, Note_on_c, 3, 77, 70
5, 28155, Note_on_c, 3, 77, 0
5, 28155, Note_on_c, 3, 79, 70
5, 28170, Note_on_c, 3, 79, 0
5, 28170, Note_on_c, 3, 76, 70
5, 28185, Note_on_c, 3, 76, 0
5, 28185, Note_on_c, 3, 77, 70
5, 28200, Note_on_c, 3, 77, 0
5, 28200, Note_on_c, 3, 79, 70
5, 28260, Note_on_c, 3, 79, 0
5, 28260, Note_on_c, 3, 77, 70
5, 28290, Note_on_c, 3, 77, 0
5, 28320, Note_on_c, 3, 76, 70
5, 28350, Note_on_c, 3, 76, 0
5, 28380, Note_on_c, 3, 74, 70
5, 28410, Note_on_c, 3, 74, 0
5, 28440, Note_on_c, 3, 72, 110
5, 28560, Note_on_c, 3, 72, 0
5, 28560, Note_on_c, 3, 72, 110
5, 28620, Note_on_c, 3, 72, 0
5, 28620, Note_on_c, 3, 76, 110
5, 28680, Note_on_c, 3, 76, 0
5, 28680, Note_on_c, 3, 79, 110
5, 28740, Note_on_c, 3, 79, 0
5, 28740, Note_on_c, 3, 84, 110
5, 28800, Note_on_c, 3, 84, 0
5, 28800, Note_on_c, 3, 84, 110
5, 28860, Note_on_c, 3, 84, 0
5, 28860, Note_on_c, 3, 74, 110
5, 28920, Note_on_c, 3, 74, 0
5, 28920, Note_on_c, 3, 74, 110
5, 29100, Note_on_c, 3, 74, 0
5, 29100, Note_on_c, 3, 76, 110
5, 29160, Note_on_c, 3, 76, 0
5, 29160, Note_on_c, 3, 76, 110
5, 29220, Note_on_c, 3, 76, 0
5, 29220, Note_on_c, 3, 77, 110
5, 29280, Note_on_c, 3, 77, 0
5, 29280, Note_on_c, 3, 77, 110
5, 29460, Note_on_c, 3, 77, 0
5, 29460, Note_on_c, 3, 79, 110
5, 29520, Note_on_c, 3, 79, 0
5, 29520, Note_on_c, 3, 81, 110
5, 29640, Note_on_c, 3, 81, 0
5, 29640, Note_on_c, 3, 79, 110
5, 29820, Note_on_c, 3, 79, 0
5, 29820, Note_on_c, 3, 77, 110
5, 29880, Note_on_c, 3, 77, 0
5, 29880, Note_on_c, 3, 76, 110
5, 29970, Note_on_c, 3, 79, 110
5, 30000, Note_on_c, 3, 79, 0
5, 30000, Note_on_c, 3, 76, 0
5, 30000, Note_on_c, 3, 77, 110
5, 30090, Note_on_c, 3, 76, 110
5, 30120, Note_on_c, 3, 76, 0
5, 30120, Note_on_c, 3, 77, 0
5, 30120, Note_on_c, 3, 74, 110
5, 30240, Note_on_c, 3, 74, 0
5, 30240, Note_on_c, 3, 79, 110
5, 30360, Note_on_c, 3, 79, 0
5, 30360, Note_on_c, 3, 84, 110
5, 30540, Note_on_c, 3, 84, 0
5, 30540, Note_on_c, 3, 76, 110
5, 30600, Note_on_c, 3, 76, 0
5, 30600, Note_on_c, 3, 74, 110
5, 30615, Note_on_c, 3, 74, 0
5, 30615, Note_on_c, 3, 76, 110
5, 30630, Note_on_c, 3, 76, 0
5, 30630, Note_on_c, 3, 77, 110
5, 30720, Note_on_c, 3, 77, 0
5, 30720, Note_on_c, 3, 76, 110
5, 30735, Note_on_c, 3, 76, 0
5, 30735, Note_on_c, 3, 77, 110
5, 30750, Note_on_c, 3, 77, 0
5, 30750, Note_on_c, 3, 79, 110
5, 30840, Note_on_c, 3, 79, 0
5, 30840, Note_on_c, 3, 71, 110
5, 30855, Note_on_c, 3, 71, 0
5, 30855, Note_on_c, 3, 72, 110
5, 30870, Note_on_c, 3, 72, 0
5, 30870, Note_on_c, 3, 74, 110
5, 30960, Note_on_c, 3, 74, 0
5, 30960, Note_on_c, 3, 72, 100
5, 30990, Note_on_c, 3, 72, 0
5, 30990, Note_on_c, 3, 84, 100
5, 31020, Note_on_c, 3, 84, 0
5, 31020, Note_on_c, 3, 84, 100
5, 31050, Note_on_c, 3, 84, 0
5, 31050, Note_on_c, 3, 84, 100
5, 31080, Note_on_c, 3, 84, 0
5, 31080, Note_on_c, 3, 84, 100
5, 31110, Note_on_c, 3, 84, 0
5, 31140, Note_on_c, 3, 84, 100
5, 31170, Note_on_c, 3, 84, 0
5, 31200, Note_on_c, 3, 84, 100
5, 31230, Note_on_c, 3, 84, 0
5, 31260, Note_on_c, 3, 84, 100
5, 31290, Note_on_c, 3, 84, 0
5, 31320, Note_on_c, 3, 84, 100
5, 31410, Note_on_c, 3, 81, 75
5, 31440, Note_on_c, 3, 81, 0
5, 31440, Note_on_c, 3, 84, 0
5, 31440, Note_on_c, 3, 79, 74
5, 31500, Note_on_c, 3, 79, 0
5, 31500, Note_on_c, 3, 77, 74
5, 31530, Note_on_c, 3, 77, 0
5, 31530, Note_on_c, 3, 81, 74
5, 31530, Note_on_c, 3, 76, 74
5, 31560, Note_on_c, 3, 76, 0
5, 31560, Note_on_c, 3, 81, 0
5, 31560, Note_on_c, 3, 79, 74
5, 31620, Note_on_c, 3, 79, 0
5, 31620, Note_on_c, 3, 77, 74
5, 31650, Note_on_c, 3, 77, 0
5, 31650, Note_on_c, 3, 76, 74
5, 31680, Note_on_c, 3, 76, 0
5, 31680, Note_on_c, 3, 77, 100
5, 31710, Note_on_c, 3, 77, 0
5, 31710, Note_on_c, 3, 86, 100
5, 31740, Note_on_c, 3, 86, 0
5, 31740, Note_on_c, 3, 86, 100
5, 31770, Note_on_c, 3, 86, 0
5, 31770, Note_on_c, 3, 86, 100
5, 31800, Note_on_c, 3, 86, 0
5, 31800, Note_on_c, 3, 86, 100
5, 31830, Note_on_c, 3, 86, 0
5, 31860, Note_on_c, 3, 86, 100
5, 31890, Note_on_c, 3, 86, 0
5, 31920, Note_on_c, 3, 86, 100
5, 31950, Note_on_c, 3, 86, 0
5, 31980, Note_on_c, 3, 86, 100
5, 32010, Note_on_c, 3, 86, 0
5, 32040, Note_on_c, 3, 86, 100
5, 32130, Note_on_c, 3, 79, 70
5, 32160, Note_on_c, 3, 79, 0
5, 32160, Note_on_c, 3, 86, 0
5, 32160, Note_on_c, 3, 77, 70
5, 32220, Note_on_c, 3, 77, 0
5, 32220, Note_on_c, 3, 76, 70
5, 32250, Note_on_c, 3, 76, 0
5, 32250, Note_on_c, 3, 79, 70
5, 32250, Note_on_c, 3, 74, 70
5, 32280, Note_on_c, 3, 74, 0
5, 32280, Note_on_c, 3, 79, 0
5, 32280, Note_on_c, 3, 77, 70
5, 32340, Note_on_c, 3, 77, 0
5, 32340, Note_on_c, 3, 76, 70
5, 32370, Note_on_c, 3, 76, 0
5, 32370, Note_on_c, 3, 74, 70
5, 32400, Note_on_c, 3, 74, 0
5, 32400, Note_on_c, 3, 72, 100
5, 32430, Note_on_c, 3, 72, 0
5, 32430, Note_on_c, 3, 84, 100
5, 32460, Note_on_c, 3, 84, 0
5, 32460, Note_on_c, 3, 84, 100
5, 32490, Note_on_c, 3, 84, 0
5, 32490, Note_on_c, 3, 84, 100
5, 32520, Note_on_c, 3, 84, 0
5, 32520, Note_on_c, 3, 84, 100
5, 32550, Note_on_c, 3, 84, 0
5, 32580, Note_on_c, 3, 84, 100
5, 32610, Note_on_c, 3, 84, 0
5, 32640, Note_on_c, 3, 84, 100
5, 32670, Note_on_c, 3, 84, 0
5, 32700, Note_on_c, 3, 84, 100
5, 32730, Note_on_c, 3, 84, 0
5, 32760, Note_on_c, 3, 84, 100
5, 32850, Note_on_c, 3, 81, 75
5, 32880, Note_on_c, 3, 81, 0
5, 32880, Note_on_c, 3, 84, 0
5, 32880, Note_on_c, 3, 79, 74
5, 32940, Note_on_c, 3, 79, 0
5, 32940, Note_on_c, 3, 77, 74
5, 32970, Note_on_c, 3, 77, 0
5, 32970, Note_on_c, 3, 81, 74
5, 32970, Note_on_c, 3, 76, 74
5, 33000, Note_on_c, 3, 76, 0
5, 33000, Note_on_c, 3, 81, 0
5, 33000, Note_on_c, 3, 79, 74
5, 33060, Note_on_c, 3, 79, 0
5, 33060, Note_on_c, 3, 77, 74
5, 33090, Note_on_c, 3, 77, 0
5, 33090, Note_on_c, 3, 76, 74
5, 33120, Note_on_c, 3, 76, 0
5, 33120, Note_on_c, 3, 74, 110
5, 33150, Note_on_c, 3, 74, 0
5, 33150, Note_on_c, 3, 84, 110
5, 33180, Note_on_c, 3, 84, 0
5, 33180, Note_on_c, 3, 84, 110
5, 33210, Note_on_c, 3, 84, 0
5, 33210, Note_on_c, 3, 84, 110
5, 33240, Note_on_c, 3, 84, 0
5, 33240, Note_on_c, 3, 84, 110
5, 33270, Note_on_c, 3, 84, 0
5, 33300, Note_on_c, 3, 84, 110
5, 33330, Note_on_c, 3, 84, 0
5, 33360, Note_on_c, 3, 84, 110
5, 33390, Note_on_c, 3, 84, 0
5, 33420, Note_on_c, 3, 84, 110
5, 33450, Note_on_c, 3, 84, 0
5, 33480, Note_on_c, 3, 84, 110
5, 33510, Note_on_c, 3, 84, 0
5, 33510, Note_on_c, 3, 83, 110
5, 33540, Note_on_c, 3, 83, 0
5, 33540, Note_on_c, 3, 81, 110
5, 33570, Note_on_c, 3, 81, 0
5, 33570, Note_on_c, 3, 83, 110
5, 33600, Note_on_c, 3, 83, 0
5, 33600, Note_on_c, 3, 81, 110
5, 33630, Note_on_c, 3, 81, 0
5, 33630, Note_on_c, 3, 79, 110
5, 33660, Note_on_c, 3, 79, 0
5, 33660, Note_on_c, 3, 78, 110
5, 33690, Note_on_c, 3, 78, 0
5, 33690, Note_on_c, 3, 79, 110
5, 33720, Note_on_c, 3, 79, 0
5, 33720, Note_on_c, 3, 78, 110
5, 33750, Note_on_c, 3, 78, 0
5, 33750, Note_on_c, 3, 76, 110
5, 33780, Note_on_c, 3, 76, 0
5, 33780, Note_on_c, 3, 74, 110
5, 33810, Note_on_c, 3, 74, 0
5, 33810, Note_on_c, 3, 72, 110
5, 33840, Note_on_c, 3, 72, 0
5, 33840, Note_on_c, 3, 71, 110
5, 33960, Note_on_c, 3, 71, 0
5, 34080, Note_on_c, 3, 83, 110
5, 34095, Note_on_c, 3, 83, 0
5, 34095, Note_on_c, 3, 84, 110
5, 34110, Note_on_c, 3, 84, 0
5, 34110, Note_on_c, 3, 83, 110
5, 34125, Note_on_c, 3, 83, 0
5, 34125, Note_on_c, 3, 84, 110
5, 34140, Note_on_c, 3, 84, 0
5, 34140, Note_on_c, 3, 83, 110
5, 34155, Note_on_c, 3, 83, 0
5, 34155, Note_on_c, 3, 84, 110
5, 34170, Note_on_c, 3, 84, 0
5, 34170, Note_on_c, 3, 81, 110
5, 34185, Note_on_c, 3, 81, 0
5, 34185, Note_on_c, 3, 83, 110
5, 34200, Note_on_c, 3, 83, 0
5, 34200, Note_on_c, 3, 84, 110
5, 34320, Note_on_c, 3, 84, 0
5, 34440, Note_on_c, 3, 84, 110
5, 34455, Note_on_c, 3, 84, 0
5, 34455, Note_on_c, 3, 86, 110
5, 34470, Note_on_c, 3, 86, 0
5, 34470, Note_on_c, 3, 84, 110
5, 34485, Note_on_c, 3, 84, 0
5, 34485, Note_on_c, 3, 86, 110
5, 34500, Note_on_c, 3, 86, 0
5, 34500, Note_on_c, 3, 84, 110
5, 34515, Note_on_c, 3, 84, 0
5, 34515, Note_on_c, 3, 86, 110
5, 34530, Note_on_c, 3, 86, 0
5, 34530, Note_on_c, 3, 83, 110
5, 34545, Note_on_c, 3, 83, 0
5, 34545, Note_on_c, 3, 84, 110
5, 34560, Note_on_c, 3, 84, 0
5, 34560, Note_on_c, 3, 86, 110
5, 34680, Note_on_c, 3, 86, 0
5, 34800, Note_on_c, 3, 86, 110
5, 34815, Note_on_c, 3, 86, 0
5, 34815, Note_on_c, 3, 88, 110
5, 34830, Note_on_c, 3, 88, 0
5, 34830, Note_on_c, 3, 86, 110
5, 34845, Note_on_c, 3, 86, 0
5, 34845, Note_on_c, 3, 88, 110
5, 34860, Note_on_c, 3, 88, 0
5, 34860, Note_on_c, 3, 86, 110
5, 34875, Note_on_c, 3, 86, 0
5, 34875, Note_on_c, 3, 88, 110
5, 34890, Note_on_c, 3, 88, 0
5, 34890, Note_on_c, 3, 84, 110
5, 34905, Note_on_c, 3, 84, 0
5, 34905, Note_on_c, 3, 86, 110
5, 34920, Note_on_c, 3, 86, 0
5, 34920, Note_on_c, 3, 88, 110
5, 34950, Note_on_c, 3, 88, 0
5, 34980, Note_on_c, 3, 86, 110
5, 35010, Note_on_c, 3, 86, 0
5, 35040, Note_on_c, 3, 84, 110
5, 35070, Note_on_c, 3, 84, 0
5, 35100, Note_on_c, 3, 83, 110
5, 35130, Note_on_c, 3, 83, 0
5, 35160, Note_on_c, 3, 81, 110
5, 35190, Note_on_c, 3, 81, 0
5, 35220, Note_on_c, 3, 79, 110
5, 35250, Note_on_c, 3, 79, 0
5, 35280, Note_on_c, 3, 86, 110
5, 35280, Note_on_c, 3, 74, 110
5, 35400, Note_on_c, 3, 74, 0
5, 35400, Note_on_c, 3, 86, 0
5, 35400, Note_on_c, 3, 62, 110
5, 35520, Note_on_c, 3, 62, 0
5, 35640, Note_on_c, 3, 74, 70
5, 35700, Note_on_c, 3, 74, 0
5, 35760, Note_on_c, 3, 74, 70
5, 35820, Note_on_c, 3, 74, 0
5, 35880, Note_on_c, 3, 74, 70
5, 35940, Note_on_c, 3, 74, 0
5, 36000, Note_on_c, 3, 76, 70
5, 36120, Note_on_c, 3, 76, 0
5, 36180, Note_on_c, 3, 78, 70
5, 36210, Note_on_c, 3, 78, 0
5, 36240, Note_on_c, 3, 79, 70
5, 36300, Note_on_c, 3, 79, 0
5, 36360, Note_on_c, 3, 69, 70
5, 36375, Note_on_c, 3, 69, 0
5, 36375, Note_on_c, 3, 71, 70
5, 36390, Note_on_c, 3, 71, 0
5, 36390, Note_on_c, 3, 72, 70
5, 36480, Note_on_c, 3, 72, 0
5, 36720, Note_on_c, 3, 71, 70
5, 36735, Note_on_c, 3, 71, 0
5, 36735, Note_on_c, 3, 72, 70
5, 36750, Note_on_c, 3, 72, 0
5, 36750, Note_on_c, 3, 74, 70
5, 36840, Note_on_c, 3, 74, 0
5, 37080, Note_on_c, 3, 74, 70
5, 37140, Note_on_c, 3, 74, 0
5, 37200, Note_on_c, 3, 74, 70
5, 37260, Note_on_c, 3, 74, 0
5, 37320, Note_on_c, 3, 74, 70
5, 37380, Note_on_c, 3, 74, 0
5, 37440, Note_on_c, 3, 76, 70
5, 37530, Note_on_c, 3, 76, 0
5, 37530, Note_on_c, 3, 78, 70
5, 37560, Note_on_c, 3, 78, 0
5, 37560, Note_on_c, 3, 79, 70
5, 37620, Note_on_c, 3, 79, 0
5, 37620, Note_on_c, 3, 78, 70
5, 37650, Note_on_c, 3, 78, 0
5, 37680, Note_on_c, 3, 76, 70
5, 37710, Note_on_c, 3, 76, 0
5, 37740, Note_on_c, 3, 74, 70
5, 37770, Note_on_c, 3, 74, 0
5, 37770, Note_on_c, 3, 74, 70
5, 37800, Note_on_c, 3, 74, 0
5, 37800, Note_on_c, 3, 72, 70
5, 37920, Note_on_c, 3, 72, 0
5, 37920, Note_on_c, 3, 71, 70
5, 38040, Note_on_c, 3, 71, 0
5, 38040, Note_on_c, 3, 69, 70
5, 38160, Note_on_c, 3, 69, 0
5, 38160, Note_on_c, 3, 70, 70
5, 38400, Note_on_c, 3, 70, 0
5, 38400, Note_on_c, 3, 71, 70
5, 38460, Note_on_c, 3, 71, 0
5, 39360, Note_on_c, 3, 66, 100
5, 39390, Note_on_c, 3, 66, 0
5, 39390, Note_on_c, 3, 67, 100
5, 39420, Note_on_c, 3, 67, 0
5, 39420, Note_on_c, 3, 66, 100
5, 39450, Note_on_c, 3, 66, 0
5, 39450, Note_on_c, 3, 67, 100
5, 39480, Note_on_c, 3, 67, 0
5, 39480, Note_on_c, 3, 69, 100
5, 39600, Note_on_c, 3, 69, 0
5, 39720, Note_on_c, 3, 67, 100
5, 39750, Note_on_c, 3, 67, 0
5, 39750, Note_on_c, 3, 69, 100
5, 39780, Note_on_c, 3, 69, 0
5, 39780, Note_on_c, 3, 67, 100
5, 39810, Note_on_c, 3, 67, 0
5, 39810, Note_on_c, 3, 69, 100
5, 39840, Note_on_c, 3, 69, 0
5, 39840, Note_on_c, 3, 71, 100
5, 39960, Note_on_c, 3, 71, 0
5, 41040, Note_on_c, 3, 86, 110
5, 41070, Note_on_c, 3, 86, 0
5, 41070, Note_on_c, 3, 86, 110
5, 41100, Note_on_c, 3, 86, 0
5, 41100, Note_on_c, 3, 85, 110
5, 41130, Note_on_c, 3, 85, 0
5, 41130, Note_on_c, 3, 85, 110
5, 41160, Note_on_c, 3, 85, 0
5, 41160, Note_on_c, 3, 86, 110
5, 41190, Note_on_c, 3, 86, 0
5, 41190, Note_on_c, 3, 86, 110
5, 41220, Note_on_c, 3, 86, 0
5, 41220, Note_on_c, 3, 85, 110
5, 41250, Note_on_c, 3, 85, 0
5, 41250, Note_on_c, 3, 85, 110
5, 41280, Note_on_c, 3, 85, 0
5, 41280, Note_on_c, 3, 86, 110
5, 41310, Note_on_c, 3, 86, 0
5, 41310, Note_on_c, 3, 86, 110
5, 41340, Note_on_c, 3, 86, 0
5, 41340, Note_on_c, 3, 83, 110
5, 41370, Note_on_c, 3, 83, 0
5, 41370, Note_on_c, 3, 83, 110
5, 41400, Note_on_c, 3, 83, 0
5, 41400, Note_on_c, 3, 86, 110
5, 41430, Note_on_c, 3, 86, 0
5, 41430, Note_on_c, 3, 86, 110
5, 41460, Note_on_c, 3, 86, 0
5, 41460, Note_on_c, 3, 85, 110
5, 41490, Note_on_c, 3, 85, 0
5, 41490, Note_on_c, 3, 85, 110
5, 41520, Note_on_c, 3, 85, 0
5, 41520, Note_on_c, 3, 86, 110
5, 41550, Note_on_c, 3, 86, 0
5, 41550, Note_on_c, 3, 86, 110
5, 41580, Note_on_c, 3, 86, 0
5, 41580, Note_on_c, 3, 85, 110
5, 41610, Note_on_c, 3, 85, 0
5, 41610, Note_on_c, 3, 85, 110
5, 41640, Note_on_c, 3, 85, 0
5, 41640, Note_on_c, 3, 86, 110
5, 41670, Note_on_c, 3, 86, 0
5, 41670, Note_on_c, 3, 86, 110
5, 41700, Note_on_c, 3, 86, 0
5, 41700, Note_on_c, 3, 81, 110
5, 41730, Note_on_c, 3, 81, 0
5, 41730, Note_on_c, 3, 81, 110
5, 41760, Note_on_c, 3, 81, 0
5, 41760, Note_on_c, 3, 79, 110
5, 41790, Note_on_c, 3, 79, 0
5, 41790, Note_on_c, 3, 79, 110
5, 41820, Note_on_c, 3, 79, 0
5, 41820, Note_on_c, 3, 78, 110
5, 41850, Note_on_c, 3, 78, 0
5, 41850, Note_on_c, 3, 78, 110
5, 41880, Note_on_c, 3, 78, 0
5, 41880, Note_on_c, 3, 79, 110
5, 41910, Note_on_c, 3, 79, 0
5, 41910, Note_on_c, 3, 79, 110
5, 41940, Note_on_c, 3, 79, 0
5, 41940, Note_on_c, 3, 78, 110
5, 41970, Note_on_c, 3, 78, 0
5, 41970, Note_on_c, 3, 78, 110
5, 42000, Note_on_c, 3, 78, 0
5, 42000, Note_on_c, 3, 79, 110
5, 42030, Note_on_c, 3, 79, 0
5, 42030, Note_on_c, 3, 79, 110
5, 42060, Note_on_c, 3, 79, 0
5, 42060, Note_on_c, 3, 76, 110
5, 42090, Note_on_c, 3, 76, 0
5, 42090, Note_on_c, 3, 76, 110
5, 42120, Note_on_c, 3, 76, 0
5, 42120, Note_on_c, 3, 79, 110
5, 42150, Note_on_c, 3, 79, 0
5, 42150, Note_on_c, 3, 79, 110
5, 42180, Note_on_c, 3, 79, 0
5, 42180, Note_on_c, 3, 78, 110
5, 42210, Note_on_c, 3, 78, 0
5, 42210, Note_on_c, 3, 78, 110
5, 42240, Note_on_c, 3, 78, 0
5, 42240, Note_on_c, 3, 79, 110
5, 42270, Note_on_c, 3, 79, 0
5, 42270, Note_on_c, 3, 79, 110
5, 42300, Note_on_c, 3, 79, 0
5, 42300, Note_on_c, 3, 78, 110
5, 42330, Note_on_c, 3, 78, 0
5, 42330, Note_on_c, 3, 78, 110
5, 42360, Note_on_c, 3, 78, 0
5, 42360, Note_on_c, 3, 79, 110
5, 42390, Note_on_c, 3, 79, 0
5, 42390, Note_on_c, 3, 79, 110
5, 42420, Note_on_c, 3, 79, 0
5, 42420, Note_on_c, 3, 71, 110
5, 42450, Note_on_c, 3, 71, 0
5, 42450, Note_on_c, 3, 71, 110
5, 42480, Note_on_c, 3, 71, 0
5, 42480, Note_on_c, 3, 72, 110
5, 42600, Note_on_c, 3, 72, 0
5, 42600, Note_on_c, 3, 84, 110
5, 42720, Note_on_c, 3, 84, 0
5, 42720, Note_on_c, 3, 84, 110
5, 42840, Note_on_c, 3, 84, 0
5, 42840, Note_on_c, 3, 84, 110
5, 42930, Note_on_c, 3, 86, 110
5, 42960, Note_on_c, 3, 86, 0
5, 42960, Note_on_c, 3, 84, 0
5, 42960, Note_on_c, 3, 84, 110
5, 43020, Note_on_c, 3, 84, 0
5, 43020, Note_on_c, 3, 83, 110
5, 43050, Note_on_c, 3, 83, 0
5, 43050, Note_on_c, 3, 81, 110
5, 43080, Note_on_c, 3, 81, 0
5, 43080, Note_on_c, 3, 83, 110
5, 43200, Note_on_c, 3, 83, 0
5, 43200, Note_on_c, 3, 76, 110
5, 43290, Note_on_c, 3, 76, 0
5, 43290, Note_on_c, 3, 81, 110
5, 43320, Note_on_c, 3, 81, 0
5, 43320, Note_on_c, 3, 79, 110
5, 43440, Note_on_c, 3, 79, 0
5, 43440, Note_on_c, 3, 78, 110
5, 43560, Note_on_c, 3, 78, 0
5, 43560, Note_on_c, 3, 79, 110
5, 43680, Note_on_c, 3, 79, 0
5, 43680, Note_on_c, 3, 77, 110
5, 43800, Note_on_c, 3, 77, 0
5, 43800, Note_on_c, 3, 76, 110
5, 43920, Note_on_c, 3, 76, 0
5, 43920, Note_on_c, 3, 64, 110
5, 43920, Note_on_c, 3, 74, 110
5, 44040, Note_on_c, 3, 74, 0
5, 44040, Note_on_c, 3, 64, 0
5, 44040, Note_on_c, 3, 64, 110
5, 44040, Note_on_c, 3, 73, 110
5, 44160, Note_on_c, 3, 73, 0
5, 44160, Note_on_c, 3, 64, 0
5, 44280, Note_on_c, 3, 60, 70
5, 44400, Note_on_c, 3, 60, 0
5, 44400, Note_on_c, 3, 72, 70
5, 44520, Note_on_c, 3, 72, 0
5, 44520, Note_on_c, 3, 72, 70
5, 44640, Note_on_c, 3, 72, 0
5, 44640, Note_on_c, 3, 72, 70
5, 44730, Note_on_c, 3, 74, 70
5, 44760, Note_on_c, 3, 74, 0
5, 44760, Note_on_c, 3, 72, 0
5, 44760, Note_on_c, 3, 72, 70
5, 44820, Note_on_c, 3, 72, 0
5, 44820, Note_on_c, 3, 71, 70
5, 44850, Note_on_c, 3, 71, 0
5, 44850, Note_on_c, 3, 69, 70
5, 44880, Note_on_c, 3, 69, 0
5, 44880, Note_on_c, 3, 71, 70
5, 45000, Note_on_c, 3, 71, 0
5, 45000, Note_on_c, 3, 64, 70
5, 45090, Note_on_c, 3, 64, 0
5, 45090, Note_on_c, 3, 69, 70
5, 45120, Note_on_c, 3, 69, 0
5, 45120, Note_on_c, 3, 67, 70
5, 45240, Note_on_c, 3, 67, 0
5, 45240, Note_on_c, 3, 66, 70
5, 45360, Note_on_c, 3, 66, 0
5, 45360, Note_on_c, 3, 67, 110
5, 45480, Note_on_c, 3, 67, 0
5, 45570, Note_on_c, 3, 86, 110
5, 45600, Note_on_c, 3, 86, 0
5, 45600, Note_on_c, 3, 84, 110
5, 45660, Note_on_c, 3, 84, 0
5, 45660, Note_on_c, 3, 83, 110
5, 45690, Note_on_c, 3, 83, 0
5, 45690, Note_on_c, 3, 81, 110
5, 45720, Note_on_c, 3, 81, 0
5, 45720, Note_on_c, 3, 83, 110
5, 45840, Note_on_c, 3, 83, 0
5, 45930, Note_on_c, 3, 83, 110
5, 45960, Note_on_c, 3, 83, 0
5, 45960, Note_on_c, 3, 81, 110
5, 46020, Note_on_c, 3, 81, 0
5, 46020, Note_on_c, 3, 79, 110
5, 46050, Note_on_c, 3, 79, 0
5, 46050, Note_on_c, 3, 78, 110
5, 46080, Note_on_c, 3, 78, 0
5, 46080, Note_on_c, 3, 79, 110
5, 46200, Note_on_c, 3, 79, 0
5, 46290, Note_on_c, 3, 86, 110
5, 46320, Note_on_c, 3, 86, 0
5, 46320, Note_on_c, 3, 84, 110
5, 46380, Note_on_c, 3, 84, 0
5, 46380, Note_on_c, 3, 83, 110
5, 46410, Note_on_c, 3, 83, 0
5, 46410, Note_on_c, 3, 81, 110
5, 46440, Note_on_c, 3, 81, 0
5, 46440, Note_on_c, 3, 83, 110
5, 46560, Note_on_c, 3, 83, 0
5, 46650, Note_on_c, 3, 83, 110
5, 46680, Note_on_c, 3, 83, 0
5, 46680, Note_on_c, 3, 81, 110
5, 46740, Note_on_c, 3, 81, 0
5, 46740, Note_on_c, 3, 79, 110
5, 46770, Note_on_c, 3, 79, 0
5, 46770, Note_on_c, 3, 78, 110
5, 46800, Note_on_c, 3, 78, 0
5, 46800, Note_on_c, 3, 79, 110
5, 46830, Note_on_c, 3, 79, 0
5, 46830, Note_on_c, 3, 74, 110
5, 46860, Note_on_c, 3, 74, 0
5, 46860, Note_on_c, 3, 74, 110
5, 46890, Note_on_c, 3, 74, 0
5, 46890, Note_on_c, 3, 74, 110
5, 46920, Note_on_c, 3, 74, 0
5, 46920, Note_on_c, 3, 83, 110
5, 46950, Note_on_c, 3, 83, 0
5, 46950, Note_on_c, 3, 74, 110
5, 46980, Note_on_c, 3, 74, 0
5, 46980, Note_on_c, 3, 74, 110
5, 47010, Note_on_c, 3, 74, 0
5, 47010, Note_on_c, 3, 74, 110
5, 47040, Note_on_c, 3, 74, 0
5, 47040, Note_on_c, 3, 78, 110
5, 47070, Note_on_c, 3, 78, 0
5, 47070, Note_on_c, 3, 74, 110
5, 47100, Note_on_c, 3, 74, 0
5, 47100, Note_on_c, 3, 74, 110
5, 47130, Note_on_c, 3, 74, 0
5, 47130, Note_on_c, 3, 74, 110
5, 47160, Note_on_c, 3, 74, 0
5, 47160, Note_on_c, 3, 79, 110
5, 47190, Note_on_c, 3, 79, 0
5, 47190, Note_on_c, 3, 74, 110
5, 47220, Note_on_c, 3, 74, 0
5, 47220, Note_on_c, 3, 74, 110
5, 47250, Note_on_c, 3, 74, 0
5, 47250, Note_on_c, 3, 74, 110
5, 47280, Note_on_c, 3, 74, 0
5, 47280, Note_on_c, 3, 83, 110
5, 47310, Note_on_c, 3, 83, 0
5, 47310, Note_on_c, 3, 74, 110
5, 47340, Note_on_c, 3, 74, 0
5, 47340, Note_on_c, 3, 74, 110
5, 47370, Note_on_c, 3, 74, 0
5, 47370, Note_on_c, 3, 74, 110
5, 47400, Note_on_c, 3, 74, 0
5, 47400, Note_on_c, 3, 78, 110
5, 47430, Note_on_c, 3, 78, 0
5, 47430, Note_on_c, 3, 74, 110
5, 47460, Note_on_c, 3, 74, 0
5, 47460, Note_on_c, 3, 74, 110
5, 47490, Note_on_c, 3, 74, 0
5, 47490, Note_on_c, 3, 74, 110
5, 47520, Note_on_c, 3, 74, 0
5, 47520, Note_on_c, 3, 79, 100
5, 47640, Note_on_c, 3, 79, 0
5, 47640, Note_on_c, 3, 67, 100
5, 47700, Note_on_c, 3, 67, 0
5, 47700, Note_on_c, 3, 69, 100
5, 47760, Note_on_c, 3, 69, 0
5, 47760, Note_on_c, 3, 71, 100
5, 47820, Note_on_c, 3, 71, 0
5, 47820, Note_on_c, 3, 72, 100
5, 47880, Note_on_c, 3, 72, 0
5, 47880, Note_on_c, 3, 74, 100
5, 47940, Note_on_c, 3, 74, 0
5, 47940, Note_on_c, 3, 76, 100
5, 48000, Note_on_c, 3, 76, 0
5, 48000, Note_on_c, 3, 77, 100
5, 48060, Note_on_c, 3, 77, 0
5, 48060, Note_on_c, 3, 74, 100
5, 48120, Note_on_c, 3, 74, 0
5, 48120, Note_on_c, 3, 71, 100
5, 48180, Note_on_c, 3, 71, 0
5, 48180, Note_on_c, 3, 67, 100
5, 48240, Note_on_c, 3, 67, 0
5, 48240, Note_on_c, 3, 55, 110
5, 48240, Note_on_c, 3, 64, 110
5, 48240, Note_on_c, 3, 72, 110
5, 48360, Note_on_c, 3, 72, 0
5, 48360, Note_on_c, 3, 64, 0
5, 48360, Note_on_c, 3, 55, 0
5, 48600, Note_on_c, 3, 67, 110
5, 48600, Note_on_c, 3, 72, 110
5, 48600, Note_on_c, 3, 76, 110
5, 48720, Note_on_c, 3, 76, 0
5, 48720, Note_on_c, 3, 72, 0
5, 48720, Note_on_c, 3, 67, 0
5, 48960, Note_on_c, 3, 77, 110
5, 48960, Note_on_c, 3, 65, 110
5, 48960, Note_on_c, 3, 72, 110
5, 49080, Note_on_c, 3, 72, 0
5, 49080, Note_on_c, 3, 65, 0
5, 49080, Note_on_c, 3, 77, 0
5, 49320, Note_on_c, 3, 82, 110
5, 49320, Note_on_c, 3, 72, 110
5, 49320, Note_on_c, 3, 64, 110
5, 49320, Note_on_c, 3, 55, 110
5, 49440, Note_on_c, 3, 55, 0
5, 49440, Note_on_c, 3, 82, 0
5, 49440, Note_on_c, 3, 72, 0
5, 49440, Note_on_c, 3, 64, 0
5, 49680, Note_on_c, 3, 81, 110
5, 49740, Note_on_c, 3, 81, 0
5, 49740, Note_on_c, 3, 72, 70
5, 49770, Note_on_c, 3, 72, 0
5, 49800, Note_on_c, 3, 72, 70
5, 49830, Note_on_c, 3, 72, 0
5, 49860, Note_on_c, 3, 72, 70
5, 49890, Note_on_c, 3, 72, 0
5, 49920, Note_on_c, 3, 72, 70
5, 49935, Note_on_c, 3, 72, 0
5, 49935, Note_on_c, 3, 74, 70
5, 49950, Note_on_c, 3, 74, 0
5, 49950, Note_on_c, 3, 72, 70
5, 49965, Note_on_c, 3, 72, 0
5, 49965, Note_on_c, 3, 74, 70
5, 49980, Note_on_c, 3, 74, 0
5, 49980, Note_on_c, 3, 72, 70
5, 49995, Note_on_c, 3, 72, 0
5, 49995, Note_on_c, 3, 74, 70
5, 50010, Note_on_c, 3, 74, 0
5, 50010, Note_on_c, 3, 71, 70
5, 50025, Note_on_c, 3, 71, 0
5, 50025, Note_on_c, 3, 72, 70
5, 50040, Note_on_c, 3, 72, 0
5, 50040, Note_on_c, 3, 71, 70
5, 50100, Note_on_c, 3, 71, 0
5, 50100, Note_on_c, 3, 70, 70
5, 50130, Note_on_c, 3, 70, 0
5, 50160, Note_on_c, 3, 70, 70
5, 50190, Note_on_c, 3, 70, 0
5, 50220, Note_on_c, 3, 70, 70
5, 50250, Note_on_c, 3, 70, 0
5, 50280, Note_on_c, 3, 70, 70
5, 50295, Note_on_c, 3, 70, 0
5, 50295, Note_on_c, 3, 72, 70
5, 50310, Note_on_c, 3, 72, 0
5, 50310, Note_on_c, 3, 70, 70
5, 50325, Note_on_c, 3, 70, 0
5, 50325, Note_on_c, 3, 72, 70
5, 50340, Note_on_c, 3, 72, 0
5, 50340, Note_on_c, 3, 70, 70
5, 50355, Note_on_c, 3, 70, 0
5, 50355, Note_on_c, 3, 72, 70
5, 50370, Note_on_c, 3, 72, 0
5, 50370, Note_on_c, 3, 69, 70
5, 50385, Note_on_c, 3, 69, 0
5, 50385, Note_on_c, 3, 70, 70
5, 50400, Note_on_c, 3, 70, 0
5, 50400, Note_on_c, 3, 69, 70
5, 50460, Note_on_c, 3, 69, 0
5, 50460, Note_on_c, 3, 72, 70
5, 50490, Note_on_c, 3, 72, 0
5, 50520, Note_on_c, 3, 72, 70
5, 50550, Note_on_c, 3, 72, 0
5, 50580, Note_on_c, 3, 72, 70
5, 50610, Note_on_c, 3, 72, 0
5, 50640, Note_on_c, 3, 72, 70
5, 50655, Note_on_c, 3, 72, 0
5, 50655, Note_on_c, 3, 74, 70
5, 50670, Note_on_c, 3, 74, 0
5, 50670, Note_on_c, 3, 72, 70
5, 50685, Note_on_c, 3, 72, 0
5, 50685, Note_on_c, 3, 74, 70
5, 50700, Note_on_c, 3, 74, 0
5, 50700, Note_on_c, 3, 72, 70
5, 50715, Note_on_c, 3, 72, 0
5, 50715, Note_on_c, 3, 74, 70
5, 50730, Note_on_c, 3, 74, 0
5, 50730, Note_on_c, 3, 71, 70
5, 50745, Note_on_c, 3, 71, 0
5, 50745, Note_on_c, 3, 72, 70
5, 50760, Note_on_c, 3, 72, 0
5, 50760, Note_on_c, 3, 71, 70
5, 50820, Note_on_c, 3, 71, 0
5, 50820, Note_on_c, 3, 70, 70
5, 50850, Note_on_c, 3, 70, 0
5, 50880, Note_on_c, 3, 70, 70
5, 50910, Note_on_c, 3, 70, 0
5, 50940, Note_on_c, 3, 70, 70
5, 50970, Note_on_c, 3, 70, 0
5, 51000, Note_on_c, 3, 70, 70
5, 51015, Note_on_c, 3, 70, 0
5, 51015, Note_on_c, 3, 72, 70
5, 51030, Note_on_c, 3, 72, 0
5, 51030, Note_on_c, 3, 70, 70
5, 51045, Note_on_c, 3, 70, 0
5, 51045, Note_on_c, 3, 72, 70
5, 51060, Note_on_c, 3, 72, 0
5, 51060, Note_on_c, 3, 70, 70
5, 51075, Note_on_c, 3, 70, 0
5, 51075, Note_on_c, 3, 72, 70
5, 51090, Note_on_c, 3, 72, 0
5, 51090, Note_on_c, 3, 69, 70
5, 51105, Note_on_c, 3, 69, 0
5, 51105, Note_on_c, 3, 70, 70
5, 51120, Note_on_c, 3, 70, 0
5, 51120, Note_on_c, 3, 69, 70
5, 51180, Note_on_c, 3, 69, 0
5, 51180, Note_on_c, 3, 81, 70
5, 51210, Note_on_c, 3, 81, 0
5, 51240, Note_on_c, 3, 81, 70
5, 51270, Note_on_c, 3, 81, 0
5, 51300, Note_on_c, 3, 81, 70
5, 51330, Note_on_c, 3, 81, 0
5, 51360, Note_on_c, 3, 81, 70
5, 51375, Note_on_c, 3, 81, 0
5, 51375, Note_on_c, 3, 83, 70
5, 51390, Note_on_c, 3, 83, 0
5, 51390, Note_on_c, 3, 81, 70
5, 51405, Note_on_c, 3, 81, 0
5, 51405, Note_on_c, 3, 83, 70
5, 51420, Note_on_c, 3, 83, 0
5, 51420, Note_on_c, 3, 81, 70
5, 51435, Note_on_c, 3, 81, 0
5, 51435, Note_on_c, 3, 83, 70
5, 51450, Note_on_c, 3, 83, 0
5, 51450, Note_on_c, 3, 79, 70
5, 51465, Note_on_c, 3, 79, 0
5, 51465, Note_on_c, 3, 81, 70
5, 51480, Note_on_c, 3, 81, 0
5, 51480, Note_on_c, 3, 79, 70
5, 51540, Note_on_c, 3, 79, 0
5, 51540, Note_on_c, 3, 72, 70
5, 51570, Note_on_c, 3, 72, 0
5, 51600, Note_on_c, 3, 72, 70
5, 51630, Note_on_c, 3, 72, 0
5, 51660, Note_on_c, 3, 72, 70
5, 51690, Note_on_c, 3, 72, 0
5, 51720, Note_on_c, 3, 72, 70
5, 51735, Note_on_c, 3, 72, 0
5, 51735, Note_on_c, 3, 74, 70
5, 51750, Note_on_c, 3, 74, 0
5, 51750, Note_on_c, 3, 72, 70
5, 51765, Note_on_c, 3, 72, 0
5, 51765, Note_on_c, 3, 74, 70
5, 51780, Note_on_c, 3, 74, 0
5, 51780, Note_on_c, 3, 72, 70
5, 51795, Note_on_c, 3, 72, 0
5, 51795, Note_on_c, 3, 74, 70
5, 51810, Note_on_c, 3, 74, 0
5, 51810, Note_on_c, 3, 71, 70
5, 51825, Note_on_c, 3, 71, 0
5, 51825, Note_on_c, 3, 72, 70
5, 51840, Note_on_c, 3, 72, 0
5, 51840, Note_on_c, 3, 71, 70
5, 51900, Note_on_c, 3, 71, 0
5, 51900, Note_on_c, 3, 77, 70
5, 51960, Note_on_c, 3, 77, 0
5, 51960, Note_on_c, 3, 77, 70
5, 52020, Note_on_c, 3, 77, 0
5, 52020, Note_on_c, 3, 77, 70
5, 52080, Note_on_c, 3, 77, 0
5, 52080, Note_on_c, 3, 77, 70
5, 52140, Note_on_c, 3, 77, 0
5, 52140, Note_on_c, 3, 77, 70
5, 52200, Note_on_c, 3, 77, 0
5, 52200, Note_on_c, 3, 75, 70
5, 52230, Note_on_c, 3, 75, 0
5, 52230, Note_on_c, 3, 76, 70
5, 52320, Note_on_c, 3, 76, 0
5, 52320, Note_on_c, 3, 76, 70
5, 52350, Note_on_c, 3, 76, 0
5, 52380, Note_on_c, 3, 76, 70
5, 52410, Note_on_c, 3, 76, 0
5, 52440, Note_on_c, 3, 76, 70
5, 52470, Note_on_c, 3, 76, 0
5, 52500, Note_on_c, 3, 76, 70
5, 52530, Note_on_c, 3, 76, 0
5, 52590, Note_on_c, 3, 76, 70
5, 52620, Note_on_c, 3, 76, 0
5, 52680, Note_on_c, 3, 76, 70
5, 52710, Note_on_c, 3, 76, 0
5, 52740, Note_on_c, 3, 76, 70
5, 52770, Note_on_c, 3, 76, 0
5, 52800, Note_on_c, 3, 76, 70
5, 52815, Note_on_c, 3, 76, 0
5, 52815, Note_on_c, 3, 77, 70
5, 52830, Note_on_c, 3, 77, 0
5, 52830, Note_on_c, 3, 76, 70
5, 52845, Note_on_c, 3, 76, 0
5, 52845, Note_on_c, 3, 77, 70
5, 52860, Note_on_c, 3, 77, 0
5, 52860, Note_on_c, 3, 76, 70
5, 52875, Note_on_c, 3, 76, 0
5, 52875, Note_on_c, 3, 77, 70
5, 52890, Note_on_c, 3, 77, 0
5, 52890, Note_on_c, 3, 74, 70
5, 52905, Note_on_c, 3, 74, 0
5, 52905, Note_on_c, 3, 76, 70
5, 52920, Note_on_c, 3, 76, 0
5, 52920, Note_on_c, 3, 74, 70
5, 52980, Note_on_c, 3, 74, 0
5, 52980, Note_on_c, 3, 79, 70
5, 53010, Note_on_c, 3, 79, 0
5, 53040, Note_on_c, 3, 79, 70
5, 53070, Note_on_c, 3, 79, 0
5, 53100, Note_on_c, 3, 79, 70
5, 53130, Note_on_c, 3, 79, 0
5, 53160, Note_on_c, 3, 79, 70
5, 53175, Note_on_c, 3, 79, 0
5, 53175, Note_on_c, 3, 81, 70
5, 53190, Note_on_c, 3, 81, 0
5, 53190, Note_on_c, 3, 79, 70
5, 53205, Note_on_c, 3, 79, 0
5, 53205, Note_on_c, 3, 81, 70
5, 53220, Note_on_c, 3, 81, 0
5, 53220, Note_on_c, 3, 79, 70
5, 53235, Note_on_c, 3, 79, 0
5, 53235, Note_on_c, 3, 81, 70
5, 53250, Note_on_c, 3, 81, 0
5, 53250, Note_on_c, 3, 78, 70
5, 53265, Note_on_c, 3, 78, 0
5, 53265, Note_on_c, 3, 79, 70
5, 53280, Note_on_c, 3, 79, 0
5, 53280, Note_on_c, 3, 78, 70
5, 53340, Note_on_c, 3, 78, 0
5, 53340, Note_on_c, 3, 72, 70
5, 53370, Note_on_c, 3, 72, 0
5, 53400, Note_on_c, 3, 72, 70
5, 53430, Note_on_c, 3, 72, 0
5, 53460, Note_on_c, 3, 72, 70
5, 53490, Note_on_c, 3, 72, 0
5, 53520, Note_on_c, 3, 72, 70
5, 53535, Note_on_c, 3, 72, 0
5, 53535, Note_on_c, 3, 74, 70
5, 53550, Note_on_c, 3, 74, 0
5, 53550, Note_on_c, 3, 72, 70
5, 53565, Note_on_c, 3, 72, 0
5, 53565, Note_on_c, 3, 74, 70
5, 53580, Note_on_c, 3, 74, 0
5, 53580, Note_on_c, 3, 72, 70
5, 53595, Note_on_c, 3, 72, 0
5, 53595, Note_on_c, 3, 74, 70
5, 53610, Note_on_c, 3, 74, 0
5, 53610, Note_on_c, 3, 71, 70
5, 53625, Note_on_c, 3, 71, 0
5, 53625, Note_on_c, 3, 72, 70
5, 53640, Note_on_c, 3, 72, 0
5, 53640, Note_on_c, 3, 71, 70
5, 53760, Note_on_c, 3, 71, 0
5, 53880, Note_on_c, 3, 74, 70
5, 53910, Note_on_c, 3, 74, 0
5, 54000, Note_on_c, 3, 72, 70
5, 54030, Note_on_c, 3, 72, 0
5, 54030, Note_on_c, 3, 67, 70
5, 54120, Note_on_c, 3, 67, 0
5, 54120, Note_on_c, 3, 77, 70
5, 54150, Note_on_c, 3, 77, 0
5, 54180, Note_on_c, 3, 74, 70
5, 54240, Note_on_c, 3, 76, 70
5, 54270, Note_on_c, 3, 76, 0
5, 54270, Note_on_c, 3, 74, 0
5, 54270, Note_on_c, 3, 72, 70
5, 54360, Note_on_c, 3, 72, 0
5, 54360, Note_on_c, 3, 74, 70
5, 54480, Note_on_c, 3, 74, 0
5, 54600, Note_on_c, 3, 74, 70
5, 54630, Note_on_c, 3, 74, 0
5, 54630, Note_on_c, 3, 71, 70
5, 54720, Note_on_c, 3, 71, 0
5, 54720, Note_on_c, 3, 72, 70
5, 54750, Note_on_c, 3, 72, 0
5, 54750, Note_on_c, 3, 67, 70
5, 54840, Note_on_c, 3, 67, 0
5, 54840, Note_on_c, 3, 77, 70
5, 54870, Note_on_c, 3, 77, 0
5, 54870, Note_on_c, 3, 74, 70
5, 54960, Note_on_c, 3, 74, 0
5, 54960, Note_on_c, 3, 76, 70
5, 54990, Note_on_c, 3, 76, 0
5, 54990, Note_on_c, 3, 72, 70
5, 55080, Note_on_c, 3, 72, 0
5, 55080, Note_on_c, 3, 74, 70
5, 55095, Note_on_c, 3, 74, 0
5, 55095, Note_on_c, 3, 76, 70
5, 55110, Note_on_c, 3, 76, 0
5, 55110, Note_on_c, 3, 74, 70
5, 55125, Note_on_c, 3, 74, 0
5, 55125, Note_on_c, 3, 76, 70
5, 55140, Note_on_c, 3, 76, 0
5, 55140, Note_on_c, 3, 74, 70
5, 55155, Note_on_c, 3, 74, 0
5, 55155, Note_on_c, 3, 76, 70
5, 55170, Note_on_c, 3, 76, 0
5, 55170, Note_on_c, 3, 72, 70
5, 55185, Note_on_c, 3, 72, 0
5, 55185, Note_on_c, 3, 74, 70
5, 55200, Note_on_c, 3, 74, 0
5, 55440, Note_on_c, 3, 76, 70
5, 55455, Note_on_c, 3, 76, 0
5, 55455, Note_on_c, 3, 77, 70
5, 55470, Note_on_c, 3, 77, 0
5, 55470, Note_on_c, 3, 76, 70
5, 55485, Note_on_c, 3, 76, 0
5, 55485, Note_on_c, 3, 77, 70
5, 55500, Note_on_c, 3, 77, 0
5, 55500, Note_on_c, 3, 76, 70
5, 55515, Note_on_c, 3, 76, 0
5, 55515, Note_on_c, 3, 77, 70
5, 55530, Note_on_c, 3, 77, 0
5, 55530, Note_on_c, 3, 74, 70
5, 55545, Note_on_c, 3, 74, 0
5, 55545, Note_on_c, 3, 76, 70
5, 55560, Note_on_c, 3, 76, 0
5, 55920, Note_on_c, 3, 77, 70
5, 55950, Note_on_c, 3, 77, 0
5, 55980, Note_on_c, 3, 76, 70
5, 56010, Note_on_c, 3, 76, 0
5, 56040, Note_on_c, 3, 74, 70
5, 56070, Note_on_c, 3, 74, 0
5, 56100, Note_on_c, 3, 72, 70
5, 56130, Note_on_c, 3, 72, 0
5, 56160, Note_on_c, 3, 71, 70
5, 56190, Note_on_c, 3, 71, 0
5, 56220, Note_on_c, 3, 69, 70
5, 56250, Note_on_c, 3, 69, 0
5, 56280, Note_on_c, 3, 67, 70
5, 56310, Note_on_c, 3, 67, 0
5, 56340, Note_on_c, 3, 65, 70
5, 56370, Note_on_c, 3, 65, 0
5, 56400, Note_on_c, 3, 64, 70
5, 56430, Note_on_c, 3, 64, 0
5, 56460, Note_on_c, 3, 62, 70
5, 56490, Note_on_c, 3, 62, 0
5, 56520, Note_on_c, 3, 55, 110
5, 56520, Note_on_c, 3, 64, 110
5, 56520, Note_on_c, 3, 72, 110
5, 56640, Note_on_c, 3, 72, 0
5, 56640, Note_on_c, 3, 64, 0
5, 56640, Note_on_c, 3, 55, 0
5, 56640, Note_on_c, 3, 67, 110
5, 56760, Note_on_c, 3, 67, 0
5, 56880, Note_on_c, 3, 64, 110
5, 57000, Note_on_c, 3, 64, 0
5, 57000, Note_on_c, 3, 60, 110
5, 57120, Note_on_c, 3, 60, 0
5, 57240, Note_on_c, 3, 79, 70
5, 57255, Note_on_c, 3, 79, 0
5, 57255, Note_on_c, 3, 81, 70
5, 57270, Note_on_c, 3, 81, 0
5, 57270, Note_on_c, 3, 79, 70
5, 57285, Note_on_c, 3, 79, 0
5, 57285, Note_on_c, 3, 81, 70
5, 57300, Note_on_c, 3, 81, 0
5, 57300, Note_on_c, 3, 79, 70
5, 57315, Note_on_c, 3, 79, 0
5, 57315, Note_on_c, 3, 81, 70
5, 57330, Note_on_c, 3, 81, 0
5, 57330, Note_on_c, 3, 77, 70
5, 57345, Note_on_c, 3, 77, 0
5, 57345, Note_on_c, 3, 79, 70
5, 57360, Note_on_c, 3, 79, 0
5, 57360, Note_on_c, 3, 81, 70
5, 57420, Note_on_c, 3, 81, 0
5, 57420, Note_on_c, 3, 79, 70
5, 57450, Note_on_c, 3, 79, 0
5, 57480, Note_on_c, 3, 77, 70
5, 57510, Note_on_c, 3, 77, 0
5, 57540, Note_on_c, 3, 76, 70
5, 57570, Note_on_c, 3, 76, 0
5, 57600, Note_on_c, 3, 77, 70
5, 57615, Note_on_c, 3, 77, 0
5, 57615, Note_on_c, 3, 79, 70
5, 57630, Note_on_c, 3, 79, 0
5, 57630, Note_on_c, 3, 77, 70
5, 57645, Note_on_c, 3, 77, 0
5, 57645, Note_on_c, 3, 79, 70
5, 57660, Note_on_c, 3, 79, 0
5, 57660, Note_on_c, 3, 77, 70
5, 57675, Note_on_c, 3, 77, 0
5, 57675, Note_on_c, 3, 79, 70
5, 57690, Note_on_c, 3, 79, 0
5, 57690, Note_on_c, 3, 76, 70
5, 57705, Note_on_c, 3, 76, 0
5, 57705, Note_on_c, 3, 77, 70
5, 57720, Note_on_c, 3, 77, 0
5, 57720, Note_on_c, 3, 79, 70
5, 57780, Note_on_c, 3, 79, 0
5, 57780, Note_on_c, 3, 77, 70
5, 57810, Note_on_c, 3, 77, 0
5, 57840, Note_on_c, 3, 76, 70
5, 57870, Note_on_c, 3, 76, 0
5, 57900, Note_on_c, 3, 74, 70
5, 57930, Note_on_c, 3, 74, 0
5, 57960, Note_on_c, 3, 76, 70
5, 57975, Note_on_c, 3, 76, 0
5, 57975, Note_on_c, 3, 77, 70
5, 57990, Note_on_c, 3, 77, 0
5, 57990, Note_on_c, 3, 76, 70
5, 58005, Note_on_c, 3, 76, 0
5, 58005, Note_on_c, 3, 77, 70
5, 58020, Note_on_c, 3, 77, 0
5, 58020, Note_on_c, 3, 76, 70
5, 58035, Note_on_c, 3, 76, 0
5, 58035, Note_on_c, 3, 77, 70
5, 58050, Note_on_c, 3, 77, 0
5, 58050, Note_on_c, 3, 74, 70
5, 58065, Note_on_c, 3, 74, 0
5, 58065, Note_on_c, 3, 76, 70
5, 58080, Note_on_c, 3, 76, 0
5, 58080, Note_on_c, 3, 77, 70
5, 58140, Note_on_c, 3, 77, 0
5, 58140, Note_on_c, 3, 76, 70
5, 58170, Note_on_c, 3, 76, 0
5, 58200, Note_on_c, 3, 74, 70
5, 58230, Note_on_c, 3, 74, 0
5, 58260, Note_on_c, 3, 72, 70
5, 58290, Note_on_c, 3, 72, 0
5, 58320, Note_on_c, 3, 74, 70
5, 58335, Note_on_c, 3, 74, 0
5, 58335, Note_on_c, 3, 76, 70
5, 58350, Note_on_c, 3, 76, 0
5, 58350, Note_on_c, 3, 74, 70
5, 58365, Note_on_c, 3, 74, 0
5, 58365, Note_on_c, 3, 76, 70
5, 58380, Note_on_c, 3, 76, 0
5, 58380, Note_on_c, 3, 74, 70
5, 58395, Note_on_c, 3, 74, 0
5, 58395, Note_on_c, 3, 76, 70
5, 58410, Note_on_c, 3, 76, 0
5, 58410, Note_on_c, 3, 72, 70
5, 58425, Note_on_c, 3, 72, 0
5, 58425, Note_on_c, 3, 74, 70
5, 58440, Note_on_c, 3, 74, 0
5, 58440, Note_on_c, 3, 76, 70
5, 58500, Note_on_c, 3, 76, 0
5, 58500, Note_on_c, 3, 74, 70
5, 58530, Note_on_c, 3, 74, 0
5, 58560, Note_on_c, 3, 72, 70
5, 58590, Note_on_c, 3, 72, 0
5, 58620, Note_on_c, 3, 71, 70
5, 58650, Note_on_c, 3, 71, 0
5, 58680, Note_on_c, 3, 55, 110
5, 58680, Note_on_c, 3, 64, 110
5, 58680, Note_on_c, 3, 72, 110
5, 58800, Note_on_c, 3, 72, 0
5, 58800, Note_on_c, 3, 64, 0
5, 58800, Note_on_c, 3, 55, 0
5, 58800, Note_on_c, 3, 67, 110
5, 58920, Note_on_c, 3, 67, 0
5, 59040, Note_on_c, 3, 64, 110
5, 59160, Note_on_c, 3, 64, 0
5, 59160, Note_on_c, 3, 60, 110
5, 59280, Note_on_c, 3, 60, 0
5, 60120, Note_on_c, 3, 79, 70
5, 60135, Note_on_c, 3, 79, 0
5, 60135, Note_on_c, 3, 81, 70
5, 60150, Note_on_c, 3, 81, 0
5, 60150, Note_on_c, 3, 79, 70
5, 60165, Note_on_c, 3, 79, 0
5, 60165, Note_on_c, 3, 81, 70
5, 60180, Note_on_c, 3, 81, 0
5, 60180, Note_on_c, 3, 79, 70
5, 60195, Note_on_c, 3, 79, 0
5, 60195, Note_on_c, 3, 81, 70
5, 60210, Note_on_c, 3, 81, 0
5, 60210, Note_on_c, 3, 77, 70
5, 60225, Note_on_c, 3, 77, 0
5, 60225, Note_on_c, 3, 79, 70
5, 60240, Note_on_c, 3, 79, 0
5, 60240, Note_on_c, 3, 81, 70
5, 60300, Note_on_c, 3, 81, 0
5, 60300, Note_on_c, 3, 79, 70
5, 60330, Note_on_c, 3, 79, 0
5, 60360, Note_on_c, 3, 77, 70
5, 60390, Note_on_c, 3, 77, 0
5, 60420, Note_on_c, 3, 76, 70
5, 60450, Note_on_c, 3, 76, 0
5, 60480, Note_on_c, 3, 77, 70
5, 60495, Note_on_c, 3, 77, 0
5, 60495, Note_on_c, 3, 79, 70
5, 60510, Note_on_c, 3, 79, 0
5, 60510, Note_on_c, 3, 77, 70
5, 60525, Note_on_c, 3, 77, 0
5, 60525, Note_on_c, 3, 79, 70
5, 60540, Note_on_c, 3, 79, 0
5, 60540, Note_on_c, 3, 77, 70
5, 60555, Note_on_c, 3, 77, 0
5, 60555, Note_on_c, 3, 79, 70
5, 60570, Note_on_c, 3, 79, 0
5, 60570, Note_on_c, 3, 76, 70
5, 60585, Note_on_c, 3, 76, 0
5, 60585, Note_on_c, 3, 77, 70
5, 60600, Note_on_c, 3, 77, 0
5, 60600, Note_on_c, 3, 79, 70
5, 60660, Note_on_c, 3, 79, 0
5, 60660, Note_on_c, 3, 77, 70
5, 60690, Note_on_c, 3, 77, 0
5, 60720, Note_on_c, 3, 76, 70
5, 60750, Note_on_c, 3, 76, 0
5, 60780, Note_on_c, 3, 74, 70
5, 60810, Note_on_c, 3, 74, 0
5, 60840, Note_on_c, 3, 72, 110
5, 60960, Note_on_c, 3, 72, 0
5, 60960, Note_on_c, 3, 72, 110
5, 61020, Note_on_c, 3, 72, 0
5, 61020, Note_on_c, 3, 76, 110
5, 61080, Note_on_c, 3, 76, 0
5, 61080, Note_on_c, 3, 79, 110
5, 61140, Note_on_c, 3, 79, 0
5, 61140, Note_on_c, 3, 84, 110
5, 61200, Note_on_c, 3, 84, 0
5, 61200, Note_on_c, 3, 84, 110
5, 61260, Note_on_c, 3, 84, 0
5, 61260, Note_on_c, 3, 74, 110
5, 61320, Note_on_c, 3, 74, 0
5, 61320, Note_on_c, 3, 74, 110
5, 61500, Note_on_c, 3, 74, 0
5, 61500, Note_on_c, 3, 76, 110
5, 61560, Note_on_c, 3, 76, 0
5, 61560, Note_on_c, 3, 76, 110
5, 61620, Note_on_c, 3, 76, 0
5, 61620, Note_on_c, 3, 77, 110
5, 61680, Note_on_c, 3, 77, 0
5, 61680, Note_on_c, 3, 77, 110
5, 61860, Note_on_c, 3, 77, 0
5, 61860, Note_on_c, 3, 79, 110
5, 61920, Note_on_c, 3, 79, 0
5, 61920, Note_on_c, 3, 81, 110
5, 62040, Note_on_c, 3, 81, 0
5, 62040, Note_on_c, 3, 79, 110
5, 62220, Note_on_c, 3, 79, 0
5, 62220, Note_on_c, 3, 77, 110
5, 62280, Note_on_c, 3, 77, 0
5, 62280, Note_on_c, 3, 76, 110
5, 62370, Note_on_c, 3, 79, 110
5, 62400, Note_on_c, 3, 79, 0
5, 62400, Note_on_c, 3, 76, 0
5, 62400, Note_on_c, 3, 77, 110
5, 62490, Note_on_c, 3, 76, 110
5, 62520, Note_on_c, 3, 76, 0
5, 62520, Note_on_c, 3, 77, 0
5, 62520, Note_on_c, 3, 74, 110
5, 62640, Note_on_c, 3, 74, 0
5, 62640, Note_on_c, 3, 79, 110
5, 62760, Note_on_c, 3, 79, 0
5, 62760, Note_on_c, 3, 84, 110
5, 62940, Note_on_c, 3, 84, 0
5, 62940, Note_on_c, 3, 76, 110
5, 63000, Note_on_c, 3, 76, 0
5, 63000, Note_on_c, 3, 74, 110
5, 63015, Note_on_c, 3, 74, 0
5, 63015, Note_on_c, 3, 76, 110
5, 63030, Note_on_c, 3, 76, 0
5, 63030, Note_on_c, 3, 77, 110
5, 63120, Note_on_c, 3, 77, 0
5, 63120, Note_on_c, 3, 76, 110
5, 63135, Note_on_c, 3, 76, 0
5, 63135, Note_on_c, 3, 77, 110
5, 63150, Note_on_c, 3, 77, 0
5, 63150, Note_on_c, 3, 79, 110
5, 63240, Note_on_c, 3, 79, 0
5, 63240, Note_on_c, 3, 71, 110
5, 63255, Note_on_c, 3, 71, 0
5, 63255, Note_on_c, 3, 72, 110
5, 63270, Note_on_c, 3, 72, 0
5, 63270, Note_on_c, 3, 74, 110
5, 63360, Note_on_c, 3, 74, 0
5, 63360, Note_on_c, 3, 72, 100
5, 63390, Note_on_c, 3, 72, 0
5, 63390, Note_on_c, 3, 84, 100
5, 63420, Note_on_c, 3, 84, 0
5, 63420, Note_on_c, 3, 84, 100
5, 63450, Note_on_c, 3, 84, 0
5, 63450, Note_on_c, 3, 84, 100
5, 63480, Note_on_c, 3, 84, 0
5, 63480, Note_on_c, 3, 84, 100
5, 63510, Note_on_c, 3, 84, 0
5, 63540, Note_on_c, 3, 84, 100
5, 63570, Note_on_c, 3, 84, 0
5, 63600, Note_on_c, 3, 84, 100
5, 63630, Note_on_c, 3, 84, 0
5, 63660, Note_on_c, 3, 84, 100
5, 63690, Note_on_c, 3, 84, 0
5, 63720, Note_on_c, 3, 84, 100
5, 63810, Note_on_c, 3, 81, 75
5, 63840, Note_on_c, 3, 81, 0
5, 63840, Note_on_c, 3, 84, 0
5, 63840, Note_on_c, 3, 79, 74
5, 63900, Note_on_c, 3, 79, 0
5, 63900, Note_on_c, 3, 77, 74
5, 63930, Note_on_c, 3, 77, 0
5, 63930, Note_on_c, 3, 81, 74
5, 63930, Note_on_c, 3, 76, 74
5, 63960, Note_on_c, 3, 76, 0
5, 63960, Note_on_c, 3, 81, 0
5, 63960, Note_on_c, 3, 79, 74
5, 64020, Note_on_c, 3, 79, 0
5, 64020, Note_on_c, 3, 77, 74
5, 64050, Note_on_c, 3, 77, 0
5, 64050, Note_on_c, 3, 76, 74
5, 64080, Note_on_c, 3, 76, 0
5, 64080, Note_on_c, 3, 77, 100
5, 64110, Note_on_c, 3, 77, 0
5, 64110, Note_on_c, 3, 84, 100
5, 64140, Note_on_c, 3, 84, 0
5, 64140, Note_on_c, 3, 84, 100
5, 64170, Note_on_c, 3, 84, 0
5, 64170, Note_on_c, 3, 84, 100
5, 64200, Note_on_c, 3, 84, 0
5, 64200, Note_on_c, 3, 84, 100
5, 64230, Note_on_c, 3, 84, 0
5, 64260, Note_on_c, 3, 84, 100
5, 64290, Note_on_c, 3, 84, 0
5, 64320, Note_on_c, 3, 84, 100
5, 64350, Note_on_c, 3, 84, 0
5, 64380, Note_on_c, 3, 84, 100
5, 64410, Note_on_c, 3, 84, 0
5, 64440, Note_on_c, 3, 84, 100
5, 64530, Note_on_c, 3, 82, 70
5, 64560, Note_on_c, 3, 82, 0
5, 64560, Note_on_c, 3, 84, 0
5, 64560, Note_on_c, 3, 81, 70
5, 64620, Note_on_c, 3, 81, 0
5, 64620, Note_on_c, 3, 79, 70
5, 64650, Note_on_c, 3, 79, 0
5, 64650, Note_on_c, 3, 82, 70
5, 64650, Note_on_c, 3, 77, 70
5, 64680, Note_on_c, 3, 77, 0
5, 64680, Note_on_c, 3, 82, 0
5, 64680, Note_on_c, 3, 81, 70
5, 64740, Note_on_c, 3, 81, 0
5, 64740, Note_on_c, 3, 79, 70
5, 64770, Note_on_c, 3, 79, 0
5, 64770, Note_on_c, 3, 77, 70
5, 64800, Note_on_c, 3, 77, 0
5, 64800, Note_on_c, 3, 76, 100
5, 64830, Note_on_c, 3, 76, 0
5, 64830, Note_on_c, 3, 81, 100
5, 64860, Note_on_c, 3, 81, 0
5, 64860, Note_on_c, 3, 81, 100
5, 64890, Note_on_c, 3, 81, 0
5, 64890, Note_on_c, 3, 81, 100
5, 64920, Note_on_c, 3, 81, 0
5, 64920, Note_on_c, 3, 81, 100
5, 64950, Note_on_c, 3, 81, 0
5, 64980, Note_on_c, 3, 81, 100
5, 65010, Note_on_c, 3, 81, 0
5, 65040, Note_on_c, 3, 81, 100
5, 65070, Note_on_c, 3, 81, 0
5, 65100, Note_on_c, 3, 81, 100
5, 65130, Note_on_c, 3, 81, 0
5, 65160, Note_on_c, 3, 81, 100
5, 65250, Note_on_c, 3, 77, 75
5, 65280, Note_on_c, 3, 77, 0
5, 65280, Note_on_c, 3, 81, 0
5, 65280, Note_on_c, 3, 76, 74
5, 65340, Note_on_c, 3, 76, 0
5, 65340, Note_on_c, 3, 74, 74
5, 65370, Note_on_c, 3, 74, 0
5, 65370, Note_on_c, 3, 77, 74
5, 65370, Note_on_c, 3, 72, 74
5, 65400, Note_on_c, 3, 72, 0
5, 65400, Note_on_c, 3, 77, 0
5, 65400, Note_on_c, 3, 76, 74
5, 65460, Note_on_c, 3, 76, 0
5, 65460, Note_on_c, 3, 74, 74
5, 65490, Note_on_c, 3, 74, 0
5, 65490, Note_on_c, 3, 72, 74
5, 65520, Note_on_c, 3, 72, 0
5, 65520, Note_on_c, 3, 74, 110
5, 65550, Note_on_c, 3, 74, 0
5, 65550, Note_on_c, 3, 81, 110
5, 65580, Note_on_c, 3, 81, 0
5, 65580, Note_on_c, 3, 81, 110
5, 65610, Note_on_c, 3, 81, 0
5, 65610, Note_on_c, 3, 81, 110
5, 65640, Note_on_c, 3, 81, 0
5, 65640, Note_on_c, 3, 69, 110
5, 65640, Note_on_c, 3, 81, 110
5, 65670, Note_on_c, 3, 81, 0
5, 65670, Note_on_c, 3, 69, 0
5, 65700, Note_on_c, 3, 69, 110
5, 65700, Note_on_c, 3, 81, 110
5, 65730, Note_on_c, 3, 81, 0
5, 65730, Note_on_c, 3, 69, 0
5, 65760, Note_on_c, 3, 69, 110
5, 65760, Note_on_c, 3, 81, 110
5, 65790, Note_on_c, 3, 81, 0
5, 65790, Note_on_c, 3, 69, 0
5, 65820, Note_on_c, 3, 69, 110
5, 65820, Note_on_c, 3, 81, 110
5, 65850, Note_on_c, 3, 81, 0
5, 65850, Note_on_c, 3, 69, 0
5, 65880, Note_on_c, 3, 69, 110
5, 65880, Note_on_c, 3, 81, 110
5, 65970, Note_on_c, 3, 79, 69
5, 66000, Note_on_c, 3, 79, 0
5, 66000, Note_on_c, 3, 81, 0
5, 66000, Note_on_c, 3, 69, 0
5, 66000, Note_on_c, 3, 77, 69
5, 66060, Note_on_c, 3, 77, 0
5, 66060, Note_on_c, 3, 76, 69
5, 66090, Note_on_c, 3, 76, 0
5, 66090, Note_on_c, 3, 79, 69
5, 66090, Note_on_c, 3, 74, 69
5, 66120, Note_on_c, 3, 74, 0
5, 66120, Note_on_c, 3, 79, 0
5, 66120, Note_on_c, 3, 77, 69
5, 66180, Note_on_c, 3, 77, 0
5, 66180, Note_on_c, 3, 76, 69
5, 66210, Note_on_c, 3, 76, 0
5, 66210, Note_on_c, 3, 74, 69
5, 66240, Note_on_c, 3, 74, 0
5, 66240, Note_on_c, 3, 74, 110
5, 66270, Note_on_c, 3, 74, 0
5, 66270, Note_on_c, 3, 84, 110
5, 66300, Note_on_c, 3, 84, 0
5, 66300, Note_on_c, 3, 84, 110
5, 66330, Note_on_c, 3, 84, 0
5, 66330, Note_on_c, 3, 84, 110
5, 66360, Note_on_c, 3, 84, 0
5, 66360, Note_on_c, 3, 84, 110
5, 66390, Note_on_c, 3, 84, 0
5, 66420, Note_on_c, 3, 84, 110
5, 66450, Note_on_c, 3, 84, 0
5, 66480, Note_on_c, 3, 84, 110
5, 66510, Note_on_c, 3, 84, 0
5, 66540, Note_on_c, 3, 84, 110
5, 66570, Note_on_c, 3, 84, 0
5, 66600, Note_on_c, 3, 84, 110
5, 66630, Note_on_c, 3, 84, 0
5, 66630, Note_on_c, 3, 83, 110
5, 66660, Note_on_c, 3, 83, 0
5, 66660, Note_on_c, 3, 81, 110
5, 66690, Note_on_c, 3, 81, 0
5, 66690, Note_on_c, 3, 83, 110
5, 66720, Note_on_c, 3, 83, 0
5, 66720, Note_on_c, 3, 81, 110
5, 66750, Note_on_c, 3, 81, 0
5, 66750, Note_on_c, 3, 79, 110
5, 66780, Note_on_c, 3, 79, 0
5, 66780, Note_on_c, 3, 78, 110
5, 66810, Note_on_c, 3, 78, 0
5, 66810, Note_on_c, 3, 79, 110
5, 66840, Note_on_c, 3, 79, 0
5, 66840, Note_on_c, 3, 78, 110
5, 66870, Note_on_c, 3, 78, 0
5, 66870, Note_on_c, 3, 76, 110
5, 66900, Note_on_c, 3, 76, 0
5, 66900, Note_on_c, 3, 74, 110
5, 66930, Note_on_c, 3, 74, 0
5, 66930, Note_on_c, 3, 72, 110
5, 66960, Note_on_c, 3, 72, 0
5, 66960, Note_on_c, 3, 71, 110
5, 66990, Note_on_c, 3, 71, 0
5, 66990, Note_on_c, 3, 77, 110
5, 67020, Note_on_c, 3, 77, 0
5, 67020, Note_on_c, 3, 77, 110
5, 67050, Note_on_c, 3, 77, 0
5, 67050, Note_on_c, 3, 77, 110
5, 67080, Note_on_c, 3, 77, 0
5, 67080, Note_on_c, 3, 77, 110
5, 67110, Note_on_c, 3, 77, 0
5, 67140, Note_on_c, 3, 77, 110
5, 67170, Note_on_c, 3, 77, 0
5, 67200, Note_on_c, 3, 77, 110
5, 67230, Note_on_c, 3, 77, 0
5, 67260, Note_on_c, 3, 77, 110
5, 67290, Note_on_c, 3, 77, 0
5, 67320, Note_on_c, 3, 77, 110
5, 67350, Note_on_c, 3, 77, 0
5, 67350, Note_on_c, 3, 76, 110
5, 67380, Note_on_c, 3, 76, 0
5, 67380, Note_on_c, 3, 74, 110
5, 67410, Note_on_c, 3, 74, 0
5, 67410, Note_on_c, 3, 76, 110
5, 67440, Note_on_c, 3, 76, 0
5, 67440, Note_on_c, 3, 74, 110
5, 67470, Note_on_c, 3, 74, 0
5, 67470, Note_on_c, 3, 72, 110
5, 67500, Note_on_c, 3, 72, 0
5, 67500, Note_on_c, 3, 71, 110
5, 67530, Note_on_c, 3, 71, 0
5, 67530, Note_on_c, 3, 72, 110
5, 67560, Note_on_c, 3, 72, 0
5, 67560, Note_on_c, 3, 71, 110
5, 67590, Note_on_c, 3, 71, 0
5, 67590, Note_on_c, 3, 69, 110
5, 67620, Note_on_c, 3, 69, 0
5, 67620, Note_on_c, 3, 67, 110
5, 67650, Note_on_c, 3, 67, 0
5, 67650, Note_on_c, 3, 65, 110
5, 67680, Note_on_c, 3, 65, 0
5, 67680, Note_on_c, 3, 64, 110
5, 67800, Note_on_c, 3, 64, 0
5, 67920, Note_on_c, 3, 76, 110
5, 67935, Note_on_c, 3, 76, 0
5, 67935, Note_on_c, 3, 77, 110
5, 67950, Note_on_c, 3, 77, 0
5, 67950, Note_on_c, 3, 76, 110
5, 67965, Note_on_c, 3, 76, 0
5, 67965, Note_on_c, 3, 77, 110
5, 67980, Note_on_c, 3, 77, 0
5, 67980, Note_on_c, 3, 76, 110
5, 67995, Note_on_c, 3, 76, 0
5, 67995, Note_on_c, 3, 77, 110
5, 68010, Note_on_c, 3, 77, 0
5, 68010, Note_on_c, 3, 74, 110
5, 68025, Note_on_c, 3, 74, 0
5, 68025, Note_on_c, 3, 76, 110
5, 68040, Note_on_c, 3, 76, 0
5, 68040, Note_on_c, 3, 77, 110
5, 68160, Note_on_c, 3, 77, 0
5, 68280, Note_on_c, 3, 77, 110
5, 68295, Note_on_c, 3, 77, 0
5, 68295, Note_on_c, 3, 79, 110
5, 68310, Note_on_c, 3, 79, 0
5, 68310, Note_on_c, 3, 77, 110
5, 68325, Note_on_c, 3, 77, 0
5, 68325, Note_on_c, 3, 79, 110
5, 68340, Note_on_c, 3, 79, 0
5, 68340, Note_on_c, 3, 77, 110
5, 68355, Note_on_c, 3, 77, 0
5, 68355, Note_on_c, 3, 79, 110
5, 68370, Note_on_c, 3, 79, 0
5, 68370, Note_on_c, 3, 76, 110
5, 68385, Note_on_c, 3, 76, 0
5, 68385, Note_on_c, 3, 77, 110
5, 68400, Note_on_c, 3, 77, 0
5, 68400, Note_on_c, 3, 79, 110
5, 68520, Note_on_c, 3, 79, 0
5, 68640, Note_on_c, 3, 79, 110
5, 68655, Note_on_c, 3, 79, 0
5, 68655, Note_on_c, 3, 81, 110
5, 68670, Note_on_c, 3, 81, 0
5, 68670, Note_on_c, 3, 79, 110
5, 68685, Note_on_c, 3, 79, 0
5, 68685, Note_on_c, 3, 81, 110
5, 68700, Note_on_c, 3, 81, 0
5, 68700, Note_on_c, 3, 79, 110
5, 68715, Note_on_c, 3, 79, 0
5, 68715, Note_on_c, 3, 81, 110
5, 68730, Note_on_c, 3, 81, 0
5, 68730, Note_on_c, 3, 77, 110
5, 68745, Note_on_c, 3, 77, 0
5, 68745, Note_on_c, 3, 79, 110
5, 68760, Note_on_c, 3, 79, 0
5, 68760, Note_on_c, 3, 81, 110
5, 68790, Note_on_c, 3, 81, 0
5, 68820, Note_on_c, 3, 79, 110
5, 68850, Note_on_c, 3, 79, 0
5, 68880, Note_on_c, 3, 77, 110
5, 68910, Note_on_c, 3, 77, 0
5, 68940, Note_on_c, 3, 76, 110
5, 68970, Note_on_c, 3, 76, 0
5, 69000, Note_on_c, 3, 74, 110
5, 69030, Note_on_c, 3, 74, 0
5, 69060, Note_on_c, 3, 72, 110
5, 69090, Note_on_c, 3, 72, 0
5, 69120, Note_on_c, 3, 62, 110
5, 69120, Note_on_c, 3, 71, 110
5, 69120, Note_on_c, 3, 79, 110
5, 69240, Note_on_c, 3, 79, 0
5, 69240, Note_on_c, 3, 71, 0
5, 69240, Note_on_c, 3, 62, 0
5, 69240, Note_on_c, 3, 55, 110
5, 69360, Note_on_c, 3, 55, 0
5, 69480, Note_on_c, 3, 67, 70
5, 69540, Note_on_c, 3, 67, 0
5, 69600, Note_on_c, 3, 67, 70
5, 69660, Note_on_c, 3, 67, 0
5, 69720, Note_on_c, 3, 67, 70
5, 69780, Note_on_c, 3, 67, 0
5, 69840, Note_on_c, 3, 69, 70
5, 70020, Note_on_c, 3, 69, 0
5, 70020, Note_on_c, 3, 71, 70
5, 70080, Note_on_c, 3, 71, 0
5, 70080, Note_on_c, 3, 72, 70
5, 70200, Note_on_c, 3, 72, 0
5, 70200, Note_on_c, 3, 62, 70
5, 70215, Note_on_c, 3, 62, 0
5, 70215, Note_on_c, 3, 64, 70
5, 70230, Note_on_c, 3, 64, 0
5, 70230, Note_on_c, 3, 65, 70
5, 70320, Note_on_c, 3, 65, 0
5, 70560, Note_on_c, 3, 64, 70
5, 70575, Note_on_c, 3, 64, 0
5, 70575, Note_on_c, 3, 65, 70
5, 70590, Note_on_c, 3, 65, 0
5, 70590, Note_on_c, 3, 67, 70
5, 70680, Note_on_c, 3, 67, 0
5, 70920, Note_on_c, 3, 67, 70
5, 70980, Note_on_c, 3, 67, 0
5, 71040, Note_on_c, 3, 67, 70
5, 71100, Note_on_c, 3, 67, 0
5, 71160, Note_on_c, 3, 67, 70
5, 71220, Note_on_c, 3, 67, 0
5, 71280, Note_on_c, 3, 69, 70
5, 71370, Note_on_c, 3, 69, 0
5, 71370, Note_on_c, 3, 71, 70
5, 71400, Note_on_c, 3, 71, 0
5, 71400, Note_on_c, 3, 72, 70
5, 71460, Note_on_c, 3, 72, 0
5, 71460, Note_on_c, 3, 71, 70
5, 71490, Note_on_c, 3, 71, 0
5, 71520, Note_on_c, 3, 69, 70
5, 71550, Note_on_c, 3, 69, 0
5, 71580, Note_on_c, 3, 67, 70
5, 71610, Note_on_c, 3, 67, 0
5, 71610, Note_on_c, 3, 67, 70
5, 71640, Note_on_c, 3, 67, 0
5, 71640, Note_on_c, 3, 65, 70
5, 71760, Note_on_c, 3, 65, 0
5, 71760, Note_on_c, 3, 64, 70
5, 71880, Note_on_c, 3, 64, 0
5, 71880, Note_on_c, 3, 62, 70
5, 72000, Note_on_c, 3, 62, 0
5, 72000, Note_on_c, 3, 63, 70
5, 72240, Note_on_c, 3, 63, 0
5, 72240, Note_on_c, 3, 64, 70
5, 72360, Note_on_c, 3, 64, 0
5, 73200, Note_on_c, 3, 71, 70
5, 73230, Note_on_c, 3, 71, 0
5, 73230, Note_on_c, 3, 72, 70
5, 73260, Note_on_c, 3, 72, 0
5, 73260, Note_on_c, 3, 71, 70
5, 73290, Note_on_c, 3, 71, 0
5, 73290, Note_on_c, 3, 72, 70
5, 73320, Note_on_c, 3, 72, 0
5, 73320, Note_on_c, 3, 74, 70
5, 73440, Note_on_c, 3, 74, 0
5, 73560, Note_on_c, 3, 72, 70
5, 73590, Note_on_c, 3, 72, 0
5, 73590, Note_on_c, 3, 74, 70
5, 73620, Note_on_c, 3, 74, 0
5, 73620, Note_on_c, 3, 72, 70
5, 73650, Note_on_c, 3, 72, 0
5, 73650, Note_on_c, 3, 74, 70
5, 73680, Note_on_c, 3, 74, 0
5, 73680, Note_on_c, 3, 76, 70
5, 73800, Note_on_c, 3, 76, 0
5, 74880, Note_on_c, 3, 79, 110
5, 74910, Note_on_c, 3, 79, 0
5, 74910, Note_on_c, 3, 79, 110
5, 74940, Note_on_c, 3, 79, 0
5, 74940, Note_on_c, 3, 78, 110
5, 74970, Note_on_c, 3, 78, 0
5, 74970, Note_on_c, 3, 78, 110
5, 75000, Note_on_c, 3, 78, 0
5, 75000, Note_on_c, 3, 79, 110
5, 75030, Note_on_c, 3, 79, 0
5, 75030, Note_on_c, 3, 79, 110
5, 75060, Note_on_c, 3, 79, 0
5, 75060, Note_on_c, 3, 78, 110
5, 75090, Note_on_c, 3, 78, 0
5, 75090, Note_on_c, 3, 78, 110
5, 75120, Note_on_c, 3, 78, 0
5, 75120, Note_on_c, 3, 79, 110
5, 75150, Note_on_c, 3, 79, 0
5, 75150, Note_on_c, 3, 79, 110
5, 75180, Note_on_c, 3, 79, 0
5, 75180, Note_on_c, 3, 78, 110
5, 75210, Note_on_c, 3, 78, 0
5, 75210, Note_on_c, 3, 78, 110
5, 75240, Note_on_c, 3, 78, 0
5, 75240, Note_on_c, 3, 79, 110
5, 75270, Note_on_c, 3, 79, 0
5, 75270, Note_on_c, 3, 79, 110
5, 75300, Note_on_c, 3, 79, 0
5, 75300, Note_on_c, 3, 78, 110
5, 75330, Note_on_c, 3, 78, 0
5, 75330, Note_on_c, 3, 78, 110
5, 75360, Note_on_c, 3, 78, 0
5, 75360, Note_on_c, 3, 79, 110
5, 75390, Note_on_c, 3, 79, 0
5, 75390, Note_on_c, 3, 79, 110
5, 75420, Note_on_c, 3, 79, 0
5, 75420, Note_on_c, 3, 78, 110
5, 75450, Note_on_c, 3, 78, 0
5, 75450, Note_on_c, 3, 78, 110
5, 75480, Note_on_c, 3, 78, 0
5, 75480, Note_on_c, 3, 79, 110
5, 75510, Note_on_c, 3, 79, 0
5, 75510, Note_on_c, 3, 79, 110
5, 75540, Note_on_c, 3, 79, 0
5, 75540, Note_on_c, 3, 74, 110
5, 75570, Note_on_c, 3, 74, 0
5, 75570, Note_on_c, 3, 74, 110
5, 75600, Note_on_c, 3, 74, 0
5, 75600, Note_on_c, 3, 84, 110
5, 75630, Note_on_c, 3, 84, 0
5, 75630, Note_on_c, 3, 84, 110
5, 75660, Note_on_c, 3, 84, 0
5, 75660, Note_on_c, 3, 83, 110
5, 75690, Note_on_c, 3, 83, 0
5, 75690, Note_on_c, 3, 83, 110
5, 75720, Note_on_c, 3, 83, 0
5, 75720, Note_on_c, 3, 84, 110
5, 75750, Note_on_c, 3, 84, 0
5, 75750, Note_on_c, 3, 84, 110
5, 75780, Note_on_c, 3, 84, 0
5, 75780, Note_on_c, 3, 83, 110
5, 75810, Note_on_c, 3, 83, 0
5, 75810, Note_on_c, 3, 83, 110
5, 75840, Note_on_c, 3, 83, 0
5, 75840, Note_on_c, 3, 84, 110
5, 75870, Note_on_c, 3, 84, 0
5, 75870, Note_on_c, 3, 84, 110
5, 75900, Note_on_c, 3, 84, 0
5, 75900, Note_on_c, 3, 83, 110
5, 75930, Note_on_c, 3, 83, 0
5, 75930, Note_on_c, 3, 83, 110
5, 75960, Note_on_c, 3, 83, 0
5, 75960, Note_on_c, 3, 84, 110
5, 75990, Note_on_c, 3, 84, 0
5, 75990, Note_on_c, 3, 84, 110
5, 76020, Note_on_c, 3, 84, 0
5, 76020, Note_on_c, 3, 83, 110
5, 76050, Note_on_c, 3, 83, 0
5, 76050, Note_on_c, 3, 83, 110
5, 76080, Note_on_c, 3, 83, 0
5, 76080, Note_on_c, 3, 84, 110
5, 76110, Note_on_c, 3, 84, 0
5, 76110, Note_on_c, 3, 84, 110
5, 76140, Note_on_c, 3, 84, 0
5, 76140, Note_on_c, 3, 83, 110
5, 76170, Note_on_c, 3, 83, 0
5, 76170, Note_on_c, 3, 83, 110
5, 76200, Note_on_c, 3, 83, 0
5, 76200, Note_on_c, 3, 84, 110
5, 76230, Note_on_c, 3, 84, 0
5, 76230, Note_on_c, 3, 84, 110
5, 76260, Note_on_c, 3, 84, 0
5, 76260, Note_on_c, 3, 76, 110
5, 76290, Note_on_c, 3, 76, 0
5, 76290, Note_on_c, 3, 76, 110
5, 76320, Note_on_c, 3, 76, 0
5, 76320, Note_on_c, 3, 77, 110
5, 76440, Note_on_c, 3, 77, 0
5, 76440, Note_on_c, 3, 77, 110
5, 76560, Note_on_c, 3, 77, 0
5, 76560, Note_on_c, 3, 77, 110
5, 76680, Note_on_c, 3, 77, 0
5, 76680, Note_on_c, 3, 77, 110
5, 76770, Note_on_c, 3, 79, 110
5, 76800, Note_on_c, 3, 79, 0
5, 76800, Note_on_c, 3, 77, 0
5, 76800, Note_on_c, 3, 77, 110
5, 76860, Note_on_c, 3, 77, 0
5, 76860, Note_on_c, 3, 76, 110
5, 76890, Note_on_c, 3, 76, 0
5, 76890, Note_on_c, 3, 74, 110
5, 76920, Note_on_c, 3, 74, 0
5, 76920, Note_on_c, 3, 76, 110
5, 77010, Note_on_c, 3, 76, 0
5, 77010, Note_on_c, 3, 84, 110
5, 77040, Note_on_c, 3, 84, 0
5, 77040, Note_on_c, 3, 81, 110
5, 77130, Note_on_c, 3, 81, 0
5, 77130, Note_on_c, 3, 86, 110
5, 77160, Note_on_c, 3, 86, 0
5, 77160, Note_on_c, 3, 84, 110
5, 77280, Note_on_c, 3, 84, 0
5, 77280, Note_on_c, 3, 83, 110
5, 77400, Note_on_c, 3, 83, 0
5, 77400, Note_on_c, 3, 84, 110
5, 77520, Note_on_c, 3, 84, 0
5, 77520, Note_on_c, 3, 82, 110
5, 77640, Note_on_c, 3, 82, 0
5, 77640, Note_on_c, 3, 81, 110
5, 77760, Note_on_c, 3, 81, 0
5, 77760, Note_on_c, 3, 69, 110
5, 77760, Note_on_c, 3, 79, 110
5, 77880, Note_on_c, 3, 79, 0
5, 77880, Note_on_c, 3, 69, 0
5, 77880, Note_on_c, 3, 62, 110
5, 77880, Note_on_c, 3, 69, 110
5, 77880, Note_on_c, 3, 78, 110
5, 78000, Note_on_c, 3, 78, 0
5, 78000, Note_on_c, 3, 69, 0
5, 78000, Note_on_c, 3, 62, 0
5, 78120, Note_on_c, 3, 77, 70
5, 78240, Note_on_c, 3, 77, 0
5, 78240, Note_on_c, 3, 65, 70
5, 78360, Note_on_c, 3, 65, 0
5, 78360, Note_on_c, 3, 65, 70
5, 78480, Note_on_c, 3, 65, 0
5, 78480, Note_on_c, 3, 65, 70
5, 78570, Note_on_c, 3, 67, 70
5, 78600, Note_on_c, 3, 67, 0
5, 78600, Note_on_c, 3, 65, 0
5, 78600, Note_on_c, 3, 65, 70
5, 78660, Note_on_c, 3, 65, 0
5, 78660, Note_on_c, 3, 64, 70
5, 78690, Note_on_c, 3, 64, 0
5, 78690, Note_on_c, 3, 62, 70
5, 78720, Note_on_c, 3, 62, 0
5, 78720, Note_on_c, 3, 64, 70
5, 78810, Note_on_c, 3, 64, 0
5, 78810, Note_on_c, 3, 67, 70
5, 78840, Note_on_c, 3, 67, 0
5, 78840, Note_on_c, 3, 69, 70
5, 78930, Note_on_c, 3, 69, 0
5, 78930, Note_on_c, 3, 74, 70
5, 78960, Note_on_c, 3, 74, 0
5, 78960, Note_on_c, 3, 72, 70
5, 79080, Note_on_c, 3, 72, 0
5, 79080, Note_on_c, 3, 71, 70
5, 79200, Note_on_c, 3, 71, 0
5, 79200, Note_on_c, 3, 72, 110
5, 79320, Note_on_c, 3, 72, 0
5, 79410, Note_on_c, 3, 79, 110
5, 79440, Note_on_c, 3, 79, 0
5, 79440, Note_on_c, 3, 77, 110
5, 79500, Note_on_c, 3, 77, 0
5, 79500, Note_on_c, 3, 76, 110
5, 79530, Note_on_c, 3, 76, 0
5, 79530, Note_on_c, 3, 74, 110
5, 79560, Note_on_c, 3, 74, 0
5, 79560, Note_on_c, 3, 76, 110
5, 79680, Note_on_c, 3, 76, 0
5, 79770, Note_on_c, 3, 76, 110
5, 79800, Note_on_c, 3, 76, 0
5, 79800, Note_on_c, 3, 74, 110
5, 79860, Note_on_c, 3, 74, 0
5, 79860, Note_on_c, 3, 72, 110
5, 79890, Note_on_c, 3, 72, 0
5, 79890, Note_on_c, 3, 71, 110
5, 79920, Note_on_c, 3, 71, 0
5, 79920, Note_on_c, 3, 72, 110
5, 80040, Note_on_c, 3, 72, 0
5, 80130, Note_on_c, 3, 79, 110
5, 80160, Note_on_c, 3, 79, 0
5, 80160, Note_on_c, 3, 77, 110
5, 80220, Note_on_c, 3, 77, 0
5, 80220, Note_on_c, 3, 76, 110
5, 80250, Note_on_c, 3, 76, 0
5, 80250, Note_on_c, 3, 74, 110
5, 80280, Note_on_c, 3, 74, 0
5, 80280, Note_on_c, 3, 76, 110
5, 80400, Note_on_c, 3, 76, 0
5, 80490, Note_on_c, 3, 76, 110
5, 80520, Note_on_c, 3, 76, 0
5, 80520, Note_on_c, 3, 74, 110
5, 80580, Note_on_c, 3, 74, 0
5, 80580, Note_on_c, 3, 72, 110
5, 80610, Note_on_c, 3, 72, 0
5, 80610, Note_on_c, 3, 71, 110
5, 80640, Note_on_c, 3, 71, 0
5, 80640, Note_on_c, 3, 72, 110
5, 80670, Note_on_c, 3, 72, 0
5, 80670, Note_on_c, 3, 67, 110
5, 80700, Note_on_c, 3, 67, 0
5, 80700, Note_on_c, 3, 67, 110
5, 80730, Note_on_c, 3, 67, 0
5, 80730, Note_on_c, 3, 67, 110
5, 80760, Note_on_c, 3, 67, 0
5, 80760, Note_on_c, 3, 76, 110
5, 80790, Note_on_c, 3, 76, 0
5, 80790, Note_on_c, 3, 67, 110
5, 80820, Note_on_c, 3, 67, 0
5, 80820, Note_on_c, 3, 67, 110
5, 80850, Note_on_c, 3, 67, 0
5, 80850, Note_on_c, 3, 67, 110
5, 80880, Note_on_c, 3, 67, 0
5, 80880, Note_on_c, 3, 71, 110
5, 80910, Note_on_c, 3, 71, 0
5, 80910, Note_on_c, 3, 67, 110
5, 80940, Note_on_c, 3, 67, 0
5, 80940, Note_on_c, 3, 67, 110
5, 80970, Note_on_c, 3, 67, 0
5, 80970, Note_on_c, 3, 67, 110
5, 81000, Note_on_c, 3, 67, 0
5, 81000, Note_on_c, 3, 72, 110
5, 81030, Note_on_c, 3, 72, 0
5, 81030, Note_on_c, 3, 67, 110
5, 81060, Note_on_c, 3, 67, 0
5, 81060, Note_on_c, 3, 67, 110
5, 81090, Note_on_c, 3, 67, 0
5, 81090, Note_on_c, 3, 67, 110
5, 81120, Note_on_c, 3, 67, 0
5, 81120, Note_on_c, 3, 76, 110
5, 81150, Note_on_c, 3, 76, 0
5, 81150, Note_on_c, 3, 67, 110
5, 81180, Note_on_c, 3, 67, 0
5, 81180, Note_on_c, 3, 67, 110
5, 81210, Note_on_c, 3, 67, 0
5, 81210, Note_on_c, 3, 67, 110
5, 81240, Note_on_c, 3, 67, 0
5, 81240, Note_on_c, 3, 71, 110
5, 81270, Note_on_c, 3, 71, 0
5, 81270, Note_on_c, 3, 67, 110
5, 81300, Note_on_c, 3, 67, 0
5, 81300, Note_on_c, 3, 67, 110
5, 81330, Note_on_c, 3, 67, 0
5, 81330, Note_on_c, 3, 67, 110
5, 81360, Note_on_c, 3, 67, 0
5, 81360, Note_on_c, 3, 55, 110
5, 81360, Note_on_c, 3, 64, 110
5, 81360, Note_on_c, 3, 72, 110
5, 81480, Note_on_c, 3, 72, 0
5, 81480, Note_on_c, 3, 64, 0
5, 81480, Note_on_c, 3, 55, 0
5, 81480, Note_on_c, 3, 67, 110
5, 81600, Note_on_c, 3, 67, 0
5, 81720, Note_on_c, 3, 64, 110
5, 81840, Note_on_c, 3, 64, 0
5, 81840, Note_on_c, 3, 60, 110
5, 81960, Note_on_c, 3, 60, 0
5, 82080, Note_on_c, 3, 79, 70
5, 82095, Note_on_c, 3, 79, 0
5, 82095, Note_on_c, 3, 81, 70
5, 82110, Note_on_c, 3, 81, 0
5, 82110, Note_on_c, 3, 79, 70
5, 82125, Note_on_c, 3, 79, 0
5, 82125, Note_on_c, 3, 81, 70
5, 82140, Note_on_c, 3, 81, 0
5, 82140, Note_on_c, 3, 79, 70
5, 82155, Note_on_c, 3, 79, 0
5, 82155, Note_on_c, 3, 81, 70
5, 82170, Note_on_c, 3, 81, 0
5, 82170, Note_on_c, 3, 77, 70
5, 82185, Note_on_c, 3, 77, 0
5, 82185, Note_on_c, 3, 79, 70
5, 82200, Note_on_c, 3, 79, 0
5, 82200, Note_on_c, 3, 81, 70
5, 82260, Note_on_c, 3, 81, 0
5, 82260, Note_on_c, 3, 79, 70
5, 82290, Note_on_c, 3, 79, 0
5, 82320, Note_on_c, 3, 77, 70
5, 82350, Note_on_c, 3, 77, 0
5, 82380, Note_on_c, 3, 76, 70
5, 82410, Note_on_c, 3, 76, 0
5, 82440, Note_on_c, 3, 77, 70
5, 82455, Note_on_c, 3, 77, 0
5, 82455, Note_on_c, 3, 79, 70
5, 82470, Note_on_c, 3, 79, 0
5, 82470, Note_on_c, 3, 77, 70
5, 82485, Note_on_c, 3, 77, 0
5, 82485, Note_on_c, 3, 79, 70
5, 82500, Note_on_c, 3, 79, 0
5, 82500, Note_on_c, 3, 77, 70
5, 82515, Note_on_c, 3, 77, 0
5, 82515, Note_on_c, 3, 79, 70
5, 82530, Note_on_c, 3, 79, 0
5, 82530, Note_on_c, 3, 76, 70
5, 82545, Note_on_c, 3, 76, 0
5, 82545, Note_on_c, 3, 77, 70
5, 82560, Note_on_c, 3, 77, 0
5, 82560, Note_on_c, 3, 79, 70
5, 82620, Note_on_c, 3, 79, 0
5, 82620, Note_on_c, 3, 77, 70
5, 82650, Note_on_c, 3, 77, 0
5, 82680, Note_on_c, 3, 76, 70
5, 82710, Note_on_c, 3, 76, 0
5, 82740, Note_on_c, 3, 74, 70
5, 82770, Note_on_c, 3, 74, 0
5, 82800, Note_on_c, 3, 76, 70
5, 82815, Note_on_c, 3, 76, 0
5, 82815, Note_on_c, 3, 77, 70
5, 82830, Note_on_c, 3, 77, 0
5, 82830, Note_on_c, 3, 76, 70
5, 82845, Note_on_c, 3, 76, 0
5, 82845, Note_on_c, 3, 77, 70
5, 82860, Note_on_c, 3, 77, 0
5, 82860, Note_on_c, 3, 76, 70
5, 82875, Note_on_c, 3, 76, 0
5, 82875, Note_on_c, 3, 77, 70
5, 82890, Note_on_c, 3, 77, 0
5, 82890, Note_on_c, 3, 74, 70
5, 82905, Note_on_c, 3, 74, 0
5, 82905, Note_on_c, 3, 76, 70
5, 82920, Note_on_c, 3, 76, 0
5, 82920, Note_on_c, 3, 77, 70
5, 82980, Note_on_c, 3, 77, 0
5, 82980, Note_on_c, 3, 76, 70
5, 83010, Note_on_c, 3, 76, 0
5, 83040, Note_on_c, 3, 74, 70
5, 83070, Note_on_c, 3, 74, 0
5, 83100, Note_on_c, 3, 72, 70
5, 83130, Note_on_c, 3, 72, 0
5, 83160, Note_on_c, 3, 74, 70
5, 83175, Note_on_c, 3, 74, 0
5, 83175, Note_on_c, 3, 76, 70
5, 83190, Note_on_c, 3, 76, 0
5, 83190, Note_on_c, 3, 74, 70
5, 83205, Note_on_c, 3, 74, 0
5, 83205, Note_on_c, 3, 76, 70
5, 83220, Note_on_c, 3, 76, 0
5, 83220, Note_on_c, 3, 74, 70
5, 83235, Note_on_c, 3, 74, 0
5, 83235, Note_on_c, 3, 76, 70
5, 83250, Note_on_c, 3, 76, 0
5, 83250, Note_on_c, 3, 72, 70
5, 83265, Note_on_c, 3, 72, 0
5, 83265, Note_on_c, 3, 74, 70
5, 83280, Note_on_c, 3, 74, 0
5, 83280, Note_on_c, 3, 76, 70
5, 83340, Note_on_c, 3, 76, 0
5, 83340, Note_on_c, 3, 74, 70
5, 83370, Note_on_c, 3, 74, 0
5, 83400, Note_on_c, 3, 72, 70
5, 83430, Note_on_c, 3, 72, 0
5, 83460, Note_on_c, 3, 71, 70
5, 83490, Note_on_c, 3, 71, 0
5, 83520, Note_on_c, 3, 55, 110
5, 83520, Note_on_c, 3, 64, 110
5, 83520, Note_on_c, 3, 72, 110
5, 83640, Note_on_c, 3, 72, 0
5, 83640, Note_on_c, 3, 64, 0
5, 83640, Note_on_c, 3, 55, 0
5, 83880, Note_on_c, 3, 67, 110
5, 83880, Note_on_c, 3, 72, 110
5, 83880, Note_on_c, 3, 76, 110
5, 84000, Note_on_c, 3, 76, 0
5, 84000, Note_on_c, 3, 72, 0
5, 84000, Note_on_c, 3, 67, 0
5, 84240, Note_on_c, 3, 77, 110
5, 84240, Note_on_c, 3, 65, 110
5, 84240, Note_on_c, 3, 72, 110
5, 84360, Note_on_c, 3, 72, 0
5, 84360, Note_on_c, 3, 65, 0
5, 84360, Note_on_c, 3, 77, 0
5, 84600, Note_on_c, 3, 82, 110
5, 84600, Note_on_c, 3, 72, 110
5, 84600, Note_on_c, 3, 64, 110
5, 84600, Note_on_c, 3, 55, 110
5, 84720, Note_on_c, 3, 55, 0
5, 84720, Note_on_c, 3, 82, 0
5, 84720, Note_on_c, 3, 72, 0
5, 84720, Note_on_c, 3, 64, 0
5, 84960, Note_on_c, 3, 81, 110
5, 85020, Note_on_c, 3, 81, 0
5, 85020, Note_on_c, 3, 72, 70
5, 85050, Note_on_c, 3, 72, 0
5, 85080, Note_on_c, 3, 72, 70
5, 85110, Note_on_c, 3, 72, 0
5, 85140, Note_on_c, 3, 72, 70
5, 85170, Note_on_c, 3, 72, 0
5, 85200, Note_on_c, 3, 72, 70
5, 85215, Note_on_c, 3, 72, 0
5, 85215, Note_on_c, 3, 74, 70
5, 85230, Note_on_c, 3, 74, 0
5, 85230, Note_on_c, 3, 72, 70
5, 85245, Note_on_c, 3, 72, 0
5, 85245, Note_on_c, 3, 74, 70
5, 85260, Note_on_c, 3, 74, 0
5, 85260, Note_on_c, 3, 72, 70
5, 85275, Note_on_c, 3, 72, 0
5, 85275, Note_on_c, 3, 74, 70
5, 85290, Note_on_c, 3, 74, 0
5, 85290, Note_on_c, 3, 71, 70
5, 85305, Note_on_c, 3, 71, 0
5, 85305, Note_on_c, 3, 72, 70
5, 85320, Note_on_c, 3, 72, 0
5, 85320, Note_on_c, 3, 71, 70
5, 85380, Note_on_c, 3, 71, 0
5, 85380, Note_on_c, 3, 70, 70
5, 85410, Note_on_c, 3, 70, 0
5, 85440, Note_on_c, 3, 70, 70
5, 85470, Note_on_c, 3, 70, 0
5, 85500, Note_on_c, 3, 70, 70
5, 85530, Note_on_c, 3, 70, 0
5, 85560, Note_on_c, 3, 70, 70
5, 85575, Note_on_c, 3, 70, 0
5, 85575, Note_on_c, 3, 72, 70
5, 85590, Note_on_c, 3, 72, 0
5, 85590, Note_on_c, 3, 70, 70
5, 85605, Note_on_c, 3, 70, 0
5, 85605, Note_on_c, 3, 72, 70
5, 85620, Note_on_c, 3, 72, 0
5, 85620, Note_on_c, 3, 70, 70
5, 85635, Note_on_c, 3, 70, 0
5, 85635, Note_on_c, 3, 72, 70
5, 85650, Note_on_c, 3, 72, 0
5, 85650, Note_on_c, 3, 69, 70
5, 85665, Note_on_c, 3, 69, 0
5, 85665, Note_on_c, 3, 70, 70
5, 85680, Note_on_c, 3, 70, 0
5, 85680, Note_on_c, 3, 69, 70
5, 85740, Note_on_c, 3, 69, 0
5, 85740, Note_on_c, 3, 72, 70
5, 85770, Note_on_c, 3, 72, 0
5, 85800, Note_on_c, 3, 72, 70
5, 85830, Note_on_c, 3, 72, 0
5, 85860, Note_on_c, 3, 72, 70
5, 85890, Note_on_c, 3, 72, 0
5, 85920, Note_on_c, 3, 72, 70
5, 85935, Note_on_c, 3, 72, 0
5, 85935, Note_on_c, 3, 74, 70
5, 85950, Note_on_c, 3, 74, 0
5, 85950, Note_on_c, 3, 72, 70
5, 85965, Note_on_c, 3, 72, 0
5, 85965, Note_on_c, 3, 74, 70
5, 85980, Note_on_c, 3, 74, 0
5, 85980, Note_on_c, 3, 72, 70
5, 85995, Note_on_c, 3, 72, 0
5, 85995, Note_on_c, 3, 74, 70
5, 86010, Note_on_c, 3, 74, 0
5, 86010, Note_on_c, 3, 71, 70
5, 86025, Note_on_c, 3, 71, 0
5, 86025, Note_on_c, 3, 72, 70
5, 86040, Note_on_c, 3, 72, 0
5, 86040, Note_on_c, 3, 71, 70
5, 86100, Note_on_c, 3, 71, 0
5, 86100, Note_on_c, 3, 70, 70
5, 86130, Note_on_c, 3, 70, 0
5, 86160, Note_on_c, 3, 70, 70
5, 86190, Note_on_c, 3, 70, 0
5, 86220, Note_on_c, 3, 70, 70
5, 86250, Note_on_c, 3, 70, 0
5, 86280, Note_on_c, 3, 70, 70
5, 86295, Note_on_c, 3, 70, 0
5, 86295, Note_on_c, 3, 72, 70
5, 86310, Note_on_c, 3, 72, 0
5, 86310, Note_on_c, 3, 70, 70
5, 86325, Note_on_c, 3, 70, 0
5, 86325, Note_on_c, 3, 72, 70
5, 86340, Note_on_c, 3, 72, 0
5, 86340, Note_on_c, 3, 70, 70
5, 86355, Note_on_c, 3, 70, 0
5, 86355, Note_on_c, 3, 72, 70
5, 86370, Note_on_c, 3, 72, 0
5, 86370, Note_on_c, 3, 69, 70
5, 86385, Note_on_c, 3, 69, 0
5, 86385, Note_on_c, 3, 70, 70
5, 86400, Note_on_c, 3, 70, 0
5, 86400, Note_on_c, 3, 69, 70
5, 86460, Note_on_c, 3, 69, 0
5, 86460, Note_on_c, 3, 81, 70
5, 86490, Note_on_c, 3, 81, 0
5, 86520, Note_on_c, 3, 81, 70
5, 86550, Note_on_c, 3, 81, 0
5, 86580, Note_on_c, 3, 81, 70
5, 86610, Note_on_c, 3, 81, 0
5, 86640, Note_on_c, 3, 81, 70
5, 86655, Note_on_c, 3, 81, 0
5, 86655, Note_on_c, 3, 83, 70
5, 86670, Note_on_c, 3, 83, 0
5, 86670, Note_on_c, 3, 81, 70
5, 86685, Note_on_c, 3, 81, 0
5, 86685, Note_on_c, 3, 83, 70
5, 86700, Note_on_c, 3, 83, 0
5, 86700, Note_on_c, 3, 81, 70
5, 86715, Note_on_c, 3, 81, 0
5, 86715, Note_on_c, 3, 83, 70
5, 86730, Note_on_c, 3, 83, 0
5, 86730, Note_on_c, 3, 79, 70
5, 86745, Note_on_c, 3, 79, 0
5, 86745, Note_on_c, 3, 81, 70
5, 86760, Note_on_c, 3, 81, 0
5, 86760, Note_on_c, 3, 79, 70
5, 86820, Note_on_c, 3, 79, 0
5, 86820, Note_on_c, 3, 72, 70
5, 86850, Note_on_c, 3, 72, 0
5, 86880, Note_on_c, 3, 72, 70
5, 86910, Note_on_c, 3, 72, 0
5, 86940, Note_on_c, 3, 72, 70
5, 86970, Note_on_c, 3, 72, 0
5, 87000, Note_on_c, 3, 72, 70
5, 87015, Note_on_c, 3, 72, 0
5, 87015, Note_on_c, 3, 74, 70
5, 87030, Note_on_c, 3, 74, 0
5, 87030, Note_on_c, 3, 72, 70
5, 87045, Note_on_c, 3, 72, 0
5, 87045, Note_on_c, 3, 74, 70
5, 87060, Note_on_c, 3, 74, 0
5, 87060, Note_on_c, 3, 72, 70
5, 87075, Note_on_c, 3, 72, 0
5, 87075, Note_on_c, 3, 74, 70
5, 87090, Note_on_c, 3, 74, 0
5, 87090, Note_on_c, 3, 71, 70
5, 87105, Note_on_c, 3, 71, 0
5, 87105, Note_on_c, 3, 72, 70
5, 87120, Note_on_c, 3, 72, 0
5, 87120, Note_on_c, 3, 71, 70
5, 87180, Note_on_c, 3, 71, 0
5, 87180, Note_on_c, 3, 77, 70
5, 87240, Note_on_c, 3, 77, 0
5, 87240, Note_on_c, 3, 77, 70
5, 87300, Note_on_c, 3, 77, 0
5, 87300, Note_on_c, 3, 77, 70
5, 87360, Note_on_c, 3, 77, 0
5, 87360, Note_on_c, 3, 77, 70
5, 87420, Note_on_c, 3, 77, 0
5, 87420, Note_on_c, 3, 77, 70
5, 87480, Note_on_c, 3, 77, 0
5, 87480, Note_on_c, 3, 75, 70
5, 87510, Note_on_c, 3, 75, 0
5, 87510, Note_on_c, 3, 76, 70
5, 87600, Note_on_c, 3, 76, 0
5, 87600, Note_on_c, 3, 76, 70
5, 87630, Note_on_c, 3, 76, 0
5, 87660, Note_on_c, 3, 76, 70
5, 87690, Note_on_c, 3, 76, 0
5, 87720, Note_on_c, 3, 76, 70
5, 87750, Note_on_c, 3, 76, 0
5, 87780, Note_on_c, 3, 76, 70
5, 87810, Note_on_c, 3, 76, 0
5, 87870, Note_on_c, 3, 76, 70
5, 87900, Note_on_c, 3, 76, 0
5, 87960, Note_on_c, 3, 76, 70
5, 87990, Note_on_c, 3, 76, 0
5, 88020, Note_on_c, 3, 76, 70
5, 88050, Note_on_c, 3, 76, 0
5, 88080, Note_on_c, 3, 76, 70
5, 88095, Note_on_c, 3, 76, 0
5, 88095, Note_on_c, 3, 77, 70
5, 88110, Note_on_c, 3, 77, 0
5, 88110, Note_on_c, 3, 76, 70
5, 88125, Note_on_c, 3, 76, 0
5, 88125, Note_on_c, 3, 77, 70
5, 88140, Note_on_c, 3, 77, 0
5, 88140, Note_on_c, 3, 76, 70
5, 88155, Note_on_c, 3, 76, 0
5, 88155, Note_on_c, 3, 77, 70
5, 88170, Note_on_c, 3, 77, 0
5, 88170, Note_on_c, 3, 74, 70
5, 88185, Note_on_c, 3, 74, 0
5, 88185, Note_on_c, 3, 76, 70
5, 88200, Note_on_c, 3, 76, 0
5, 88200, Note_on_c, 3, 74, 70
5, 88260, Note_on_c, 3, 74, 0
5, 88260, Note_on_c, 3, 79, 70
5, 88290, Note_on_c, 3, 79, 0
5, 88320, Note_on_c, 3, 79, 70
5, 88350, Note_on_c, 3, 79, 0
5, 88380, Note_on_c, 3, 79, 70
5, 88410, Note_on_c, 3, 79, 0
5, 88440, Note_on_c, 3, 79, 70
5, 88455, Note_on_c, 3, 79, 0
5, 88455, Note_on_c, 3, 81, 70
5, 88470, Note_on_c, 3, 81, 0
5, 88470, Note_on_c, 3, 79, 70
5, 88485, Note_on_c, 3, 79, 0
5, 88485, Note_on_c, 3, 81, 70
5, 88500, Note_on_c, 3, 81, 0
5, 88500, Note_on_c, 3, 79, 70
5, 88515, Note_on_c, 3, 79, 0
5, 88515, Note_on_c, 3, 81, 70
5, 88530, Note_on_c, 3, 81, 0
5, 88530, Note_on_c, 3, 78, 70
5, 88545, Note_on_c, 3, 78, 0
5, 88545, Note_on_c, 3, 79, 70
5, 88560, Note_on_c, 3, 79, 0
5, 88560, Note_on_c, 3, 78, 70
5, 88620, Note_on_c, 3, 78, 0
5, 88620, Note_on_c, 3, 72, 70
5, 88650, Note_on_c, 3, 72, 0
5, 88680, Note_on_c, 3, 72, 70
5, 88710, Note_on_c, 3, 72, 0
5, 88740, Note_on_c, 3, 72, 70
5, 88770, Note_on_c, 3, 72, 0
5, 88800, Note_on_c, 3, 72, 70
5, 88815, Note_on_c, 3, 72, 0
5, 88815, Note_on_c, 3, 74, 70
5, 88830, Note_on_c, 3, 74, 0
5, 88830, Note_on_c, 3, 72, 70
5, 88845, Note_on_c, 3, 72, 0
5, 88845, Note_on_c, 3, 74, 70
5, 88860, Note_on_c, 3, 74, 0
5, 88860, Note_on_c, 3, 72, 70
5, 88875, Note_on_c, 3, 72, 0
5, 88875, Note_on_c, 3, 74, 70
5, 88890, Note_on_c, 3, 74, 0
5, 88890, Note_on_c, 3, 71, 70
5, 88905, Note_on_c, 3, 71, 0
5, 88905, Note_on_c, 3, 72, 70
5, 88920, Note_on_c, 3, 72, 0
5, 88920, Note_on_c, 3, 71, 70
5, 89040, Note_on_c, 3, 71, 0
5, 89160, Note_on_c, 3, 74, 70
5, 89190, Note_on_c, 3, 74, 0
5, 89280, Note_on_c, 3, 72, 70
5, 89310, Note_on_c, 3, 72, 0
5, 89310, Note_on_c, 3, 67, 70
5, 89400, Note_on_c, 3, 67, 0
5, 89400, Note_on_c, 3, 77, 70
5, 89430, Note_on_c, 3, 77, 0
5, 89460, Note_on_c, 3, 74, 70
5, 89520, Note_on_c, 3, 76, 70
5, 89550, Note_on_c, 3, 76, 0
5, 89550, Note_on_c, 3, 74, 0
5, 89550, Note_on_c, 3, 72, 70
5, 89640, Note_on_c, 3, 72, 0
5, 89640, Note_on_c, 3, 74, 70
5, 89760, Note_on_c, 3, 74, 0
5, 89880, Note_on_c, 3, 74, 70
5, 89910, Note_on_c, 3, 74, 0
5, 89910, Note_on_c, 3, 71, 70
5, 90000, Note_on_c, 3, 71, 0
5, 90000, Note_on_c, 3, 72, 70
5, 90030, Note_on_c, 3, 72, 0
5, 90030, Note_on_c, 3, 67, 70
5, 90120, Note_on_c, 3, 67, 0
5, 90120, Note_on_c, 3, 77, 70
5, 90150, Note_on_c, 3, 77, 0
5, 90150, Note_on_c, 3, 74, 70
5, 90240, Note_on_c, 3, 74, 0
5, 90240, Note_on_c, 3, 76, 70
5, 90270, Note_on_c, 3, 76, 0
5, 90270, Note_on_c, 3, 72, 70
5, 90360, Note_on_c, 3, 72, 0
5, 90360, Note_on_c, 3, 74, 70
5, 90375, Note_on_c, 3, 74, 0
5, 90375, Note_on_c, 3, 76, 70
5, 90390, Note_on_c, 3, 76, 0
5, 90390, Note_on_c, 3, 74, 70
5, 90405, Note_on_c, 3, 74, 0
5, 90405, Note_on_c, 3, 76, 70
5, 90420, Note_on_c, 3, 76, 0
5, 90420, Note_on_c, 3, 74, 70
5, 90435, Note_on_c, 3, 74, 0
5, 90435, Note_on_c, 3, 76, 70
5, 90450, Note_on_c, 3, 76, 0
5, 90450, Note_on_c, 3, 72, 70
5, 90465, Note_on_c, 3, 72, 0
5, 90465, Note_on_c, 3, 74, 70
5, 90480, Note_on_c, 3, 74, 0
5, 90720, Note_on_c, 3, 76, 70
5, 90735, Note_on_c, 3, 76, 0
5, 90735, Note_on_c, 3, 77, 70
5, 90750, Note_on_c, 3, 77, 0
5, 90750, Note_on_c, 3, 76, 70
5, 90765, Note_on_c, 3, 76, 0
5, 90765, Note_on_c, 3, 77, 70
5, 90780, Note_on_c, 3, 77, 0
5, 90780, Note_on_c, 3, 76, 70
5, 90795, Note_on_c, 3, 76, 0
5, 90795, Note_on_c, 3, 77, 70
5, 90810, Note_on_c, 3, 77, 0
5, 90810, Note_on_c, 3, 74, 70
5, 90825, Note_on_c, 3, 74, 0
5, 90825, Note_on_c, 3, 76, 70
5, 90840, Note_on_c, 3, 76, 0
5, 91200, Note_on_c, 3, 77, 70
5, 91230, Note_on_c, 3, 77, 0
5, 91260, Note_on_c, 3, 76, 70
5, 91290, Note_on_c, 3, 76, 0
5, 91320, Note_on_c, 3, 74, 70
5, 91350, Note_on_c, 3, 74, 0
5, 91380, Note_on_c, 3, 72, 70
5, 91410, Note_on_c, 3, 72, 0
5, 91440, Note_on_c, 3, 71, 70
5, 91470, Note_on_c, 3, 71, 0
5, 91500, Note_on_c, 3, 69, 70
5, 91530, Note_on_c, 3, 69, 0
5, 91560, Note_on_c, 3, 67, 70
5, 91590, Note_on_c, 3, 67, 0
5, 91620, Note_on_c, 3, 65, 70
5, 91650, Note_on_c, 3, 65, 0
5, 91680, Note_on_c, 3, 64, 70
5, 91710, Note_on_c, 3, 64, 0
5, 91740, Note_on_c, 3, 62, 70
5, 91770, Note_on_c, 3, 62, 0
5, 91800, Note_on_c, 3, 55, 110
5, 91800, Note_on_c, 3, 64, 110
5, 91800, Note_on_c, 3, 72, 110
5, 91920, Note_on_c, 3, 72, 0
5, 91920, Note_on_c, 3, 64, 0
5, 91920, Note_on_c, 3, 55, 0
5, 91920, Note_on_c, 3, 67, 110
5, 92040, Note_on_c, 3, 67, 0
5, 92160, Note_on_c, 3, 64, 110
5, 92280, Note_on_c, 3, 64, 0
5, 92280, Note_on_c, 3, 60, 110
5, 92400, Note_on_c, 3, 60, 0
5, 92520, Note_on_c, 3, 79, 70
5, 92535, Note_on_c, 3, 79, 0
5, 92535, Note_on_c, 3, 81, 70
5, 92550, Note_on_c, 3, 81, 0
5, 92550, Note_on_c, 3, 79, 70
5, 92565, Note_on_c, 3, 79, 0
5, 92565, Note_on_c, 3, 81, 70
5, 92580, Note_on_c, 3, 81, 0
5, 92580, Note_on_c, 3, 79, 70
5, 92595, Note_on_c, 3, 79, 0
5, 92595, Note_on_c, 3, 81, 70
5, 92610, Note_on_c, 3, 81, 0
5, 92610, Note_on_c, 3, 77, 70
5, 92625, Note_on_c, 3, 77, 0
5, 92625, Note_on_c, 3, 79, 70
5, 92640, Note_on_c, 3, 79, 0
5, 92640, Note_on_c, 3, 81, 70
5, 92700, Note_on_c, 3, 81, 0
5, 92700, Note_on_c, 3, 79, 70
5, 92730, Note_on_c, 3, 79, 0
5, 92760, Note_on_c, 3, 77, 70
5, 92790, Note_on_c, 3, 77, 0
5, 92820, Note_on_c, 3, 76, 70
5, 92850, Note_on_c, 3, 76, 0
5, 92880, Note_on_c, 3, 77, 70
5, 92895, Note_on_c, 3, 77, 0
5, 92895, Note_on_c, 3, 79, 70
5, 92910, Note_on_c, 3, 79, 0
5, 92910, Note_on_c, 3, 77, 70
5, 92925, Note_on_c, 3, 77, 0
5, 92925, Note_on_c, 3, 79, 70
5, 92940, Note_on_c, 3, 79, 0
5, 92940, Note_on_c, 3, 77, 70
5, 92955, Note_on_c, 3, 77, 0
5, 92955, Note_on_c, 3, 79, 70
5, 92970, Note_on_c, 3, 79, 0
5, 92970, Note_on_c, 3, 76, 70
5, 92985, Note_on_c, 3, 76, 0
5, 92985, Note_on_c, 3, 77, 70
5, 93000, Note_on_c, 3, 77, 0
5, 93000, Note_on_c, 3, 79, 70
5, 93060, Note_on_c, 3, 79, 0
5, 93060, Note_on_c, 3, 77, 70
5, 93090, Note_on_c, 3, 77, 0
5, 93120, Note_on_c, 3, 76, 70
5, 93150, Note_on_c, 3, 76, 0
5, 93180, Note_on_c, 3, 74, 70
5, 93210, Note_on_c, 3, 74, 0
5, 93240, Note_on_c, 3, 76, 70
5, 93255, Note_on_c, 3, 76, 0
5, 93255, Note_on_c, 3, 77, 70
5, 93270, Note_on_c, 3, 77, 0
5, 93270, Note_on_c, 3, 76, 70
5, 93285, Note_on_c, 3, 76, 0
5, 93285, Note_on_c, 3, 77, 70
5, 93300, Note_on_c, 3, 77, 0
5, 93300, Note_on_c, 3, 76, 70
5, 93315, Note_on_c, 3, 76, 0
5, 93315, Note_on_c, 3, 77, 70
5, 93330, Note_on_c, 3, 77, 0
5, 93330, Note_on_c, 3, 74, 70
5, 93345, Note_on_c, 3, 74, 0
5, 93345, Note_on_c, 3, 76, 70
5, 93360, Note_on_c, 3, 76, 0
5, 93360, Note_on_c, 3, 77, 70
5, 93420, Note_on_c, 3, 77, 0
5, 93420, Note_on_c, 3, 76, 70
5, 93450, Note_on_c, 3, 76, 0
5, 93480, Note_on_c, 3, 74, 70
5, 93510, Note_on_c, 3, 74, 0
5, 93540, Note_on_c, 3, 72, 70
5, 93570, Note_on_c, 3, 72, 0
5, 93600, Note_on_c, 3, 74, 70
5, 93615, Note_on_c, 3, 74, 0
5, 93615, Note_on_c, 3, 76, 70
5, 93630, Note_on_c, 3, 76, 0
5, 93630, Note_on_c, 3, 74, 70
5, 93645, Note_on_c, 3, 74, 0
5, 93645, Note_on_c, 3, 76, 70
5, 93660, Note_on_c, 3, 76, 0
5, 93660, Note_on_c, 3, 74, 70
5, 93675, Note_on_c, 3, 74, 0
5, 93675, Note_on_c, 3, 76, 70
5, 93690, Note_on_c, 3, 76, 0
5, 93690, Note_on_c, 3, 72, 70
5, 93705, Note_on_c, 3, 72, 0
5, 93705, Note_on_c, 3, 74, 70
5, 93720, Note_on_c, 3, 74, 0
5, 93720, Note_on_c, 3, 76, 70
5, 93780, Note_on_c, 3, 76, 0
5, 93780, Note_on_c, 3, 74, 70
5, 93810, Note_on_c, 3, 74, 0
5, 93840, Note_on_c, 3, 72, 70
5, 93870, Note_on_c, 3, 72, 0
5, 93900, Note_on_c, 3, 71, 70
5, 93930, Note_on_c, 3, 71, 0
5, 93960, Note_on_c, 3, 55, 110
5, 93960, Note_on_c, 3, 64, 110
5, 93960, Note_on_c, 3, 72, 110
5, 94080, Note_on_c, 3, 72, 0
5, 94080, Note_on_c, 3, 64, 0
5, 94080, Note_on_c, 3, 55, 0
5, 94080, Note_on_c, 3, 67, 110
5, 94200, Note_on_c, 3, 67, 0
5, 94320, Note_on_c, 3, 64, 110
5, 94440, Note_on_c, 3, 64, 0
5, 94440, Note_on_c, 3, 60, 110
5, 94560, Note_on_c, 3, 60, 0
5, 95400, Note_on_c, 3, 79, 70
5, 95415, Note_on_c, 3, 79, 0
5, 95415, Note_on_c, 3, 81, 70
5, 95430, Note_on_c, 3, 81, 0
5, 95430, Note_on_c, 3, 79, 70
5, 95445, Note_on_c, 3, 79, 0
5, 95445, Note_on_c, 3, 81, 70
5, 95460, Note_on_c, 3, 81, 0
5, 95460, Note_on_c, 3, 79, 70
5, 95475, Note_on_c, 3, 79, 0
5, 95475, Note_on_c, 3, 81, 70
5, 95490, Note_on_c, 3, 81, 0
5, 95490, Note_on_c, 3, 77, 70
5, 95505, Note_on_c, 3, 77, 0
5, 95505, Note_on_c, 3, 79, 70
5, 95520, Note_on_c, 3, 79, 0
5, 95520, Note_on_c, 3, 81, 70
5, 95580, Note_on_c, 3, 81, 0
5, 95580, Note_on_c, 3, 79, 70
5, 95610, Note_on_c, 3, 79, 0
5, 95640, Note_on_c, 3, 77, 70
5, 95670, Note_on_c, 3, 77, 0
5, 95700, Note_on_c, 3, 76, 70
5, 95730, Note_on_c, 3, 76, 0
5, 95760, Note_on_c, 3, 77, 70
5, 95775, Note_on_c, 3, 77, 0
5, 95775, Note_on_c, 3, 79, 70
5, 95790, Note_on_c, 3, 79, 0
5, 95790, Note_on_c, 3, 77, 70
5, 95805, Note_on_c, 3, 77, 0
5, 95805, Note_on_c, 3, 79, 70
5, 95820, Note_on_c, 3, 79, 0
5, 95820, Note_on_c, 3, 77, 70
5, 95835, Note_on_c, 3, 77, 0
5, 95835, Note_on_c, 3, 79, 70
5, 95850, Note_on_c, 3, 79, 0
5, 95850, Note_on_c, 3, 76, 70
5, 95865, Note_on_c, 3, 76, 0
5, 95865, Note_on_c, 3, 77, 70
5, 95880, Note_on_c, 3, 77, 0
5, 95880, Note_on_c, 3, 79, 70
5, 95940, Note_on_c, 3, 79, 0
5, 95940, Note_on_c, 3, 77, 70
5, 95970, Note_on_c, 3, 77, 0
5, 96000, Note_on_c, 3, 76, 70
5, 96030, Note_on_c, 3, 76, 0
5, 96060, Note_on_c, 3, 74, 70
5, 96090, Note_on_c, 3, 74, 0
5, 96120, Note_on_c, 3, 72, 110
5, 96240, Note_on_c, 3, 72, 0
5, 96240, Note_on_c, 3, 72, 110
5, 96300, Note_on_c, 3, 72, 0
5, 96300, Note_on_c, 3, 76, 110
5, 96360, Note_on_c, 3, 76, 0
5, 96360, Note_on_c, 3, 79, 110
5, 96420, Note_on_c, 3, 79, 0
5, 96420, Note_on_c, 3, 84, 110
5, 96480, Note_on_c, 3, 84, 0
5, 96480, Note_on_c, 3, 84, 110
5, 96540, Note_on_c, 3, 84, 0
5, 96540, Note_on_c, 3, 74, 110
5, 96600, Note_on_c, 3, 74, 0
5, 96600, Note_on_c, 3, 74, 110
5, 96780, Note_on_c, 3, 74, 0
5, 96780, Note_on_c, 3, 76, 110
5, 96840, Note_on_c, 3, 76, 0
5, 96840, Note_on_c, 3, 76, 110
5, 96900, Note_on_c, 3, 76, 0
5, 96900, Note_on_c, 3, 77, 110
5, 96960, Note_on_c, 3, 77, 0
5, 96960, Note_on_c, 3, 77, 110
5, 97140, Note_on_c, 3, 77, 0
5, 97140, Note_on_c, 3, 79, 110
5, 97200, Note_on_c, 3, 79, 0
5, 97200, Note_on_c, 3, 81, 110
5, 97320, Note_on_c, 3, 81, 0
5, 97320, Note_on_c, 3, 79, 110
5, 97500, Note_on_c, 3, 79, 0
5, 97500, Note_on_c, 3, 77, 110
5, 97560, Note_on_c, 3, 77, 0
5, 97560, Note_on_c, 3, 76, 110
5, 97650, Note_on_c, 3, 79, 110
5, 97680, Note_on_c, 3, 79, 0
5, 97680, Note_on_c, 3, 76, 0
5, 97680, Note_on_c, 3, 77, 110
5, 97770, Note_on_c, 3, 76, 110
5, 97800, Note_on_c, 3, 76, 0
5, 97800, Note_on_c, 3, 77, 0
5, 97800, Note_on_c, 3, 74, 110
5, 97920, Note_on_c, 3, 74, 0
5, 97920, Note_on_c, 3, 79, 110
5, 98040, Note_on_c, 3, 79, 0
5, 98040, Note_on_c, 3, 84, 110
5, 98220, Note_on_c, 3, 84, 0
5, 98220, Note_on_c, 3, 76, 110
5, 98280, Note_on_c, 3, 76, 0
5, 98280, Note_on_c, 3, 74, 110
5, 98295, Note_on_c, 3, 74, 0
5, 98295, Note_on_c, 3, 76, 110
5, 98310, Note_on_c, 3, 76, 0
5, 98310, Note_on_c, 3, 77, 110
5, 98400, Note_on_c, 3, 77, 0
5, 98400, Note_on_c, 3, 76, 110
5, 98415, Note_on_c, 3, 76, 0
5, 98415, Note_on_c, 3, 77, 110
5, 98430, Note_on_c, 3, 77, 0
5, 98430, Note_on_c, 3, 79, 110
5, 98520, Note_on_c, 3, 79, 0
5, 98520, Note_on_c, 3, 71, 110
5, 98535, Note_on_c, 3, 71, 0
5, 98535, Note_on_c, 3, 72, 110
5, 98550, Note_on_c, 3, 72, 0
5, 98550, Note_on_c, 3, 74, 110
5, 98640, Note_on_c, 3, 74, 0
5, 98640, Note_on_c, 3, 72, 100
5, 98670, Note_on_c, 3, 72, 0
5, 98670, Note_on_c, 3, 84, 100
5, 98700, Note_on_c, 3, 84, 0
5, 98700, Note_on_c, 3, 84, 100
5, 98730, Note_on_c, 3, 84, 0
5, 98730, Note_on_c, 3, 84, 100
5, 98760, Note_on_c, 3, 84, 0
5, 98760, Note_on_c, 3, 84, 100
5, 98790, Note_on_c, 3, 84, 0
5, 98820, Note_on_c, 3, 84, 100
5, 98850, Note_on_c, 3, 84, 0
5, 98880, Note_on_c, 3, 84, 100
5, 98910, Note_on_c, 3, 84, 0
5, 98940, Note_on_c, 3, 84, 100
5, 98970, Note_on_c, 3, 84, 0
5, 99000, Note_on_c, 3, 84, 100
5, 99090, Note_on_c, 3, 81, 75
5, 99120, Note_on_c, 3, 81, 0
5, 99120, Note_on_c, 3, 84, 0
5, 99120, Note_on_c, 3, 79, 74
5, 99180, Note_on_c, 3, 79, 0
5, 99180, Note_on_c, 3, 77, 74
5, 99210, Note_on_c, 3, 77, 0
5, 99210, Note_on_c, 3, 81, 74
5, 99210, Note_on_c, 3, 76, 74
5, 99240, Note_on_c, 3, 76, 0
5, 99240, Note_on_c, 3, 81, 0
5, 99240, Note_on_c, 3, 79, 74
5, 99300, Note_on_c, 3, 79, 0
5, 99300, Note_on_c, 3, 77, 74
5, 99330, Note_on_c, 3, 77, 0
5, 99330, Note_on_c, 3, 76, 74
5, 99360, Note_on_c, 3, 76, 0
5, 99360, Note_on_c, 3, 77, 100
5, 99390, Note_on_c, 3, 77, 0
5, 99390, Note_on_c, 3, 84, 100
5, 99420, Note_on_c, 3, 84, 0
5, 99420, Note_on_c, 3, 84, 100
5, 99450, Note_on_c, 3, 84, 0
5, 99450, Note_on_c, 3, 84, 100
5, 99480, Note_on_c, 3, 84, 0
5, 99480, Note_on_c, 3, 84, 100
5, 99510, Note_on_c, 3, 84, 0
5, 99540, Note_on_c, 3, 84, 100
5, 99570, Note_on_c, 3, 84, 0
5, 99600, Note_on_c, 3, 84, 100
5, 99630, Note_on_c, 3, 84, 0
5, 99660, Note_on_c, 3, 84, 100
5, 99690, Note_on_c, 3, 84, 0
5, 99720, Note_on_c, 3, 84, 100
5, 99810, Note_on_c, 3, 82, 70
5, 99840, Note_on_c, 3, 82, 0
5, 99840, Note_on_c, 3, 84, 0
5, 99840, Note_on_c, 3, 81, 70
5, 99900, Note_on_c, 3, 81, 0
5, 99900, Note_on_c, 3, 79, 70
5, 99930, Note_on_c, 3, 79, 0
5, 99930, Note_on_c, 3, 82, 70
5, 99930, Note_on_c, 3, 77, 70
5, 99960, Note_on_c, 3, 77, 0
5, 99960, Note_on_c, 3, 82, 0
5, 99960, Note_on_c, 3, 81, 70
5, 100020, Note_on_c, 3, 81, 0
5, 100020, Note_on_c, 3, 79, 70
5, 100050, Note_on_c, 3, 79, 0
5, 100050, Note_on_c, 3, 77, 70
5, 100080, Note_on_c, 3, 77, 0
5, 100080, Note_on_c, 3, 76, 100
5, 100110, Note_on_c, 3, 76, 0
5, 100110, Note_on_c, 3, 81, 100
5, 100140, Note_on_c, 3, 81, 0
5, 100140, Note_on_c, 3, 81, 100
5, 100170, Note_on_c, 3, 81, 0
5, 100170, Note_on_c, 3, 81, 100
5, 100200, Note_on_c, 3, 81, 0
5, 100200, Note_on_c, 3, 81, 100
5, 100230, Note_on_c, 3, 81, 0
5, 100260, Note_on_c, 3, 81, 100
5, 100290, Note_on_c, 3, 81, 0
5, 100320, Note_on_c, 3, 81, 100
5, 100350, Note_on_c, 3, 81, 0
5, 100380, Note_on_c, 3, 81, 100
5, 100410, Note_on_c, 3, 81, 0
5, 100440, Note_on_c, 3, 81, 100
5, 100530, Note_on_c, 3, 77, 75
5, 100560, Note_on_c, 3, 77, 0
5, 100560, Note_on_c, 3, 81, 0
5, 100560, Note_on_c, 3, 76, 74
5, 100620, Note_on_c, 3, 76, 0
5, 100620, Note_on_c, 3, 74, 74
5, 100650, Note_on_c, 3, 74, 0
5, 100650, Note_on_c, 3, 77, 74
5, 100650, Note_on_c, 3, 72, 74
5, 100680, Note_on_c, 3, 72, 0
5, 100680, Note_on_c, 3, 77, 0
5, 100680, Note_on_c, 3, 76, 74
5, 100740, Note_on_c, 3, 76, 0
5, 100740, Note_on_c, 3, 74, 74
5, 100770, Note_on_c, 3, 74, 0
5, 100770, Note_on_c, 3, 72, 74
5, 100800, Note_on_c, 3, 72, 0
5, 100800, Note_on_c, 3, 74, 110
5, 100830, Note_on_c, 3, 74, 0
5, 100830, Note_on_c, 3, 81, 110
5, 100860, Note_on_c, 3, 81, 0
5, 100860, Note_on_c, 3, 81, 110
5, 100890, Note_on_c, 3, 81, 0
5, 100890, Note_on_c, 3, 81, 110
5, 100920, Note_on_c, 3, 81, 0
5, 100920, Note_on_c, 3, 69, 110
5, 100920, Note_on_c, 3, 81, 110
5, 100950, Note_on_c, 3, 81, 0
5, 100950, Note_on_c, 3, 69, 0
5, 100980, Note_on_c, 3, 69, 110
5, 100980, Note_on_c, 3, 81, 110
5, 101010, Note_on_c, 3, 81, 0
5, 101010, Note_on_c, 3, 69, 0
5, 101040, Note_on_c, 3, 69, 110
5, 101040, Note_on_c, 3, 81, 110
5, 101070, Note_on_c, 3, 81, 0
5, 101070, Note_on_c, 3, 69, 0
5, 101100, Note_on_c, 3, 69, 110
5, 101100, Note_on_c, 3, 81, 110
5, 101130, Note_on_c, 3, 81, 0
5, 101130, Note_on_c, 3, 69, 0
5, 101160, Note_on_c, 3, 69, 110
5, 101160, Note_on_c, 3, 81, 110
5, 101250, Note_on_c, 3, 79, 69
5, 101280, Note_on_c, 3, 79, 0
5, 101280, Note_on_c, 3, 81, 0
5, 101280, Note_on_c, 3, 69, 0
5, 101280, Note_on_c, 3, 77, 69
5, 101340, Note_on_c, 3, 77, 0
5, 101340, Note_on_c, 3, 76, 69
5, 101370, Note_on_c, 3, 76, 0
5, 101370, Note_on_c, 3, 79, 69
5, 101370, Note_on_c, 3, 74, 69
5, 101400, Note_on_c, 3, 74, 0
5, 101400, Note_on_c, 3, 79, 0
5, 101400, Note_on_c, 3, 77, 69
5, 101460, Note_on_c, 3, 77, 0
5, 101460, Note_on_c, 3, 76, 69
5, 101490, Note_on_c, 3, 76, 0
5, 101490, Note_on_c, 3, 74, 69
5, 101520, Note_on_c, 3, 74, 0
5, 101520, Note_on_c, 3, 74, 110
5, 101550, Note_on_c, 3, 74, 0
5, 101550, Note_on_c, 3, 84, 110
5, 101580, Note_on_c, 3, 84, 0
5, 101580, Note_on_c, 3, 84, 110
5, 101610, Note_on_c, 3, 84, 0
5, 101610, Note_on_c, 3, 84, 110
5, 101640, Note_on_c, 3, 84, 0
5, 101640, Note_on_c, 3, 84, 110
5, 101670, Note_on_c, 3, 84, 0
5, 101700, Note_on_c, 3, 84, 110
5, 101730, Note_on_c, 3, 84, 0
5, 101760, Note_on_c, 3, 84, 110
5, 101790, Note_on_c, 3, 84, 0
5, 101820, Note_on_c, 3, 84, 110
5, 101850, Note_on_c, 3, 84, 0
5, 101880, Note_on_c, 3, 84, 110
5, 101910, Note_on_c, 3, 84, 0
5, 101910, Note_on_c, 3, 83, 110
5, 101940, Note_on_c, 3, 83, 0
5, 101940, Note_on_c, 3, 81, 110
5, 101970, Note_on_c, 3, 81, 0
5, 101970, Note_on_c, 3, 83, 110
5, 102000, Note_on_c, 3, 83, 0
5, 102000, Note_on_c, 3, 81, 110
5, 102030, Note_on_c, 3, 81, 0
5, 102030, Note_on_c, 3, 79, 110
5, 102060, Note_on_c, 3, 79, 0
5, 102060, Note_on_c, 3, 78, 110
5, 102090, Note_on_c, 3, 78, 0
5, 102090, Note_on_c, 3, 79, 110
5, 102120, Note_on_c, 3, 79, 0
5, 102120, Note_on_c, 3, 78, 110
5, 102150, Note_on_c, 3, 78, 0
5, 102150, Note_on_c, 3, 76, 110
5, 102180, Note_on_c, 3, 76, 0
5, 102180, Note_on_c, 3, 74, 110
5, 102210, Note_on_c, 3, 74, 0
5, 102210, Note_on_c, 3, 72, 110
5, 102240, Note_on_c, 3, 72, 0
5, 102240, Note_on_c, 3, 71, 110
5, 102270, Note_on_c, 3, 71, 0
5, 102270, Note_on_c, 3, 77, 110
5, 102300, Note_on_c, 3, 77, 0
5, 102300, Note_on_c, 3, 77, 110
5, 102330, Note_on_c, 3, 77, 0
5, 102330, Note_on_c, 3, 77, 110
5, 102360, Note_on_c, 3, 77, 0
5, 102360, Note_on_c, 3, 77, 110
5, 102390, Note_on_c, 3, 77, 0
5, 102420, Note_on_c, 3, 77, 110
5, 102450, Note_on_c, 3, 77, 0
5, 102480, Note_on_c, 3, 77, 110
5, 102510, Note_on_c, 3, 77, 0
5, 102540, Note_on_c, 3, 77, 110
5, 102570, Note_on_c, 3, 77, 0
5, 102600, Note_on_c, 3, 77, 110
5, 102630, Note_on_c, 3, 77, 0
5, 102630, Note_on_c, 3, 76, 110
5, 102660, Note_on_c, 3, 76, 0
5, 102660, Note_on_c, 3, 74, 110
5, 102690, Note_on_c, 3, 74, 0
5, 102690, Note_on_c, 3, 76, 110
5, 102720, Note_on_c, 3, 76, 0
5, 102720, Note_on_c, 3, 74, 110
5, 102750, Note_on_c, 3, 74, 0
5, 102750, Note_on_c, 3, 72, 110
5, 102780, Note_on_c, 3, 72, 0
5, 102780, Note_on_c, 3, 71, 110
5, 102810, Note_on_c, 3, 71, 0
5, 102810, Note_on_c, 3, 72, 110
5, 102840, Note_on_c, 3, 72, 0
5, 102840, Note_on_c, 3, 71, 110
5, 102870, Note_on_c, 3, 71, 0
5, 102870, Note_on_c, 3, 69, 110
5, 102900, Note_on_c, 3, 69, 0
5, 102900, Note_on_c, 3, 67, 110
5, 102930, Note_on_c, 3, 67, 0
5, 102930, Note_on_c, 3, 65, 110
5, 102960, Note_on_c, 3, 65, 0
5, 102960, Note_on_c, 3, 64, 110
5, 103080, Note_on_c, 3, 64, 0
5, 103200, Note_on_c, 3, 76, 110
5, 103215, Note_on_c, 3, 76, 0
5, 103215, Note_on_c, 3, 77, 110
5, 103230, Note_on_c, 3, 77, 0
5, 103230, Note_on_c, 3, 76, 110
5, 103245, Note_on_c, 3, 76, 0
5, 103245, Note_on_c, 3, 77, 110
5, 103260, Note_on_c, 3, 77, 0
5, 103260, Note_on_c, 3, 76, 110
5, 103275, Note_on_c, 3, 76, 0
5, 103275, Note_on_c, 3, 77, 110
5, 103290, Note_on_c, 3, 77, 0
5, 103290, Note_on_c, 3, 74, 110
5, 103305, Note_on_c, 3, 74, 0
5, 103305, Note_on_c, 3, 76, 110
5, 103320, Note_on_c, 3, 76, 0
5, 103320, Note_on_c, 3, 77, 110
5, 103440, Note_on_c, 3, 77, 0
5, 103560, Note_on_c, 3, 77, 110
5, 103575, Note_on_c, 3, 77, 0
5, 103575, Note_on_c, 3, 79, 110
5, 103590, Note_on_c, 3, 79, 0
5, 103590, Note_on_c, 3, 77, 110
5, 103605, Note_on_c, 3, 77, 0
5, 103605, Note_on_c, 3, 79, 110
5, 103620, Note_on_c, 3, 79, 0
5, 103620, Note_on_c, 3, 77, 110
5, 103635, Note_on_c, 3, 77, 0
5, 103635, Note_on_c, 3, 79, 110
5, 103650, Note_on_c, 3, 79, 0
5, 103650, Note_on_c, 3, 76, 110
5, 103665, Note_on_c, 3, 76, 0
5, 103665, Note_on_c, 3, 77, 110
5, 103680, Note_on_c, 3, 77, 0
5, 103680, Note_on_c, 3, 79, 110
5, 103800, Note_on_c, 3, 79, 0
5, 103920, Note_on_c, 3, 79, 110
5, 103935, Note_on_c, 3, 79, 0
5, 103935, Note_on_c, 3, 81, 110
5, 103950, Note_on_c, 3, 81, 0
5, 103950, Note_on_c, 3, 79, 110
5, 103965, Note_on_c, 3, 79, 0
5, 103965, Note_on_c, 3, 81, 110
5, 103980, Note_on_c, 3, 81, 0
5, 103980, Note_on_c, 3, 79, 110
5, 103995, Note_on_c, 3, 79, 0
5, 103995, Note_on_c, 3, 81, 110
5, 104010, Note_on_c, 3, 81, 0
5, 104010, Note_on_c, 3, 77, 110
5, 104025, Note_on_c, 3, 77, 0
5, 104025, Note_on_c, 3, 79, 110
5, 104040, Note_on_c, 3, 79, 0
5, 104040, Note_on_c, 3, 81, 110
5, 104070, Note_on_c, 3, 81, 0
5, 104100, Note_on_c, 3, 79, 110
5, 104130, Note_on_c, 3, 79, 0
5, 104160, Note_on_c, 3, 77, 110
5, 104190, Note_on_c, 3, 77, 0
5, 104220, Note_on_c, 3, 76, 110
5, 104250, Note_on_c, 3, 76, 0
5, 104280, Note_on_c, 3, 74, 110
5, 104310, Note_on_c, 3, 74, 0
5, 104340, Note_on_c, 3, 72, 110
5, 104370, Note_on_c, 3, 72, 0
5, 104400, Note_on_c, 3, 62, 110
5, 104400, Note_on_c, 3, 71, 110
5, 104400, Note_on_c, 3, 79, 110
5, 104520, Note_on_c, 3, 79, 0
5, 104520, Note_on_c, 3, 71, 0
5, 104520, Note_on_c, 3, 62, 0
5, 104520, Note_on_c, 3, 55, 110
5, 104640, Note_on_c, 3, 55, 0
5, 104760, Note_on_c, 3, 67, 70
5, 104820, Note_on_c, 3, 67, 0
5, 104880, Note_on_c, 3, 67, 70
5, 104940, Note_on_c, 3, 67, 0
5, 105000, Note_on_c, 3, 67, 70
5, 105060, Note_on_c, 3, 67, 0
5, 105120, Note_on_c, 3, 69, 70
5, 105300, Note_on_c, 3, 69, 0
5, 105300, Note_on_c, 3, 71, 70
5, 105360, Note_on_c, 3, 71, 0
5, 105360, Note_on_c, 3, 72, 70
5, 105480, Note_on_c, 3, 72, 0
5, 105480, Note_on_c, 3, 62, 70
5, 105495, Note_on_c, 3, 62, 0
5, 105495, Note_on_c, 3, 64, 70
5, 105510, Note_on_c, 3, 64, 0
5, 105510, Note_on_c, 3, 65, 70
5, 105600, Note_on_c, 3, 65, 0
5, 105840, Note_on_c, 3, 64, 70
5, 105855, Note_on_c, 3, 64, 0
5, 105855, Note_on_c, 3, 65, 70
5, 105870, Note_on_c, 3, 65, 0
5, 105870, Note_on_c, 3, 67, 70
5, 105960, Note_on_c, 3, 67, 0
5, 106200, Note_on_c, 3, 67, 70
5, 106260, Note_on_c, 3, 67, 0
5, 106320, Note_on_c, 3, 67, 70
5, 106380, Note_on_c, 3, 67, 0
5, 106440, Note_on_c, 3, 67, 70
5, 106500, Note_on_c, 3, 67, 0
5, 106560, Note_on_c, 3, 69, 70
5, 106650, Note_on_c, 3, 69, 0
5, 106650, Note_on_c, 3, 71, 70
5, 106680, Note_on_c, 3, 71, 0
5, 106680, Note_on_c, 3, 72, 70
5, 106740, Note_on_c, 3, 72, 0
5, 106740, Note_on_c, 3, 71, 70
5, 106770, Note_on_c, 3, 71, 0
5, 106800, Note_on_c, 3, 69, 70
5, 106830, Note_on_c, 3, 69, 0
5, 106860, Note_on_c, 3, 67, 70
5, 106890, Note_on_c, 3, 67, 0
5, 106890, Note_on_c, 3, 67, 70
5, 106920, Note_on_c, 3, 67, 0
5, 106920, Note_on_c, 3, 65, 70
5, 107040, Note_on_c, 3, 65, 0
5, 107040, Note_on_c, 3, 64, 70
5, 107160, Note_on_c, 3, 64, 0
5, 107160, Note_on_c, 3, 62, 70
5, 107280, Note_on_c, 3, 62, 0
5, 107280, Note_on_c, 3, 63, 70
5, 107520, Note_on_c, 3, 63, 0
5, 107520, Note_on_c, 3, 64, 70
5, 107640, Note_on_c, 3, 64, 0
5, 108480, Note_on_c, 3, 71, 70
5, 108510, Note_on_c, 3, 71, 0
5, 108510, Note_on_c, 3, 72, 70
5, 108540, Note_on_c, 3, 72, 0
5, 108540, Note_on_c, 3, 71, 70
5, 108570, Note_on_c, 3, 71, 0
5, 108570, Note_on_c, 3, 72, 70
5, 108600, Note_on_c, 3, 72, 0
5, 108600, Note_on_c, 3, 74, 70
5, 108720, Note_on_c, 3, 74, 0
5, 108840, Note_on_c, 3, 72, 70
5, 108870, Note_on_c, 3, 72, 0
5, 108870, Note_on_c, 3, 74, 70
5, 108900, Note_on_c, 3, 74, 0
5, 108900, Note_on_c, 3, 72, 70
5, 108930, Note_on_c, 3, 72, 0
5, 108930, Note_on_c, 3, 74, 70
5, 108960, Note_on_c, 3, 74, 0
5, 108960, Note_on_c, 3, 76, 70
5, 109080, Note_on_c, 3, 76, 0
5, 110160, Note_on_c, 3, 79, 110
5, 110190, Note_on_c, 3, 79, 0
5, 110190, Note_on_c, 3, 79, 110
5, 110220, Note_on_c, 3, 79, 0
5, 110220, Note_on_c, 3, 78, 110
5, 110250, Note_on_c, 3, 78, 0
5, 110250, Note_on_c, 3, 78, 110
5, 110280, Note_on_c, 3, 78, 0
5, 110280, Note_on_c, 3, 79, 110
5, 110310, Note_on_c, 3, 79, 0
5, 110310, Note_on_c, 3, 79, 110
5, 110340, Note_on_c, 3, 79, 0
5, 110340, Note_on_c, 3, 78, 110
5, 110370, Note_on_c, 3, 78, 0
5, 110370, Note_on_c, 3, 78, 110
5, 110400, Note_on_c, 3, 78, 0
5, 110400, Note_on_c, 3, 79, 110
5, 110430, Note_on_c, 3, 79, 0
5, 110430, Note_on_c, 3, 79, 110
5, 110460, Note_on_c, 3, 79, 0
5, 110460, Note_on_c, 3, 78, 110
5, 110490, Note_on_c, 3, 78, 0
5, 110490, Note_on_c, 3, 78, 110
5, 110520, Note_on_c, 3, 78, 0
5, 110520, Note_on_c, 3, 79, 110
5, 110550, Note_on_c, 3, 79, 0
5, 110550, Note_on_c, 3, 79, 110
5, 110580, Note_on_c, 3, 79, 0
5, 110580, Note_on_c, 3, 78, 110
5, 110610, Note_on_c, 3, 78, 0
5, 110610, Note_on_c, 3, 78, 110
5, 110640, Note_on_c, 3, 78, 0
5, 110640, Note_on_c, 3, 79, 110
5, 110670, Note_on_c, 3, 79, 0
5, 110670, Note_on_c, 3, 79, 110
5, 110700, Note_on_c, 3, 79, 0
5, 110700, Note_on_c, 3, 78, 110
5, 110730, Note_on_c, 3, 78, 0
5, 110730, Note_on_c, 3, 78, 110
5, 110760, Note_on_c, 3, 78, 0
5, 110760, Note_on_c, 3, 79, 110
5, 110790, Note_on_c, 3, 79, 0
5, 110790, Note_on_c, 3, 79, 110
5, 110820, Note_on_c, 3, 79, 0
5, 110820, Note_on_c, 3, 74, 110
5, 110850, Note_on_c, 3, 74, 0
5, 110850, Note_on_c, 3, 74, 110
5, 110880, Note_on_c, 3, 74, 0
5, 110880, Note_on_c, 3, 84, 110
5, 110910, Note_on_c, 3, 84, 0
5, 110910, Note_on_c, 3, 84, 110
5, 110940, Note_on_c, 3, 84, 0
5, 110940, Note_on_c, 3, 83, 110
5, 110970, Note_on_c, 3, 83, 0
5, 110970, Note_on_c, 3, 83, 110
5, 111000, Note_on_c, 3, 83, 0
5, 111000, Note_on_c, 3, 84, 110
5, 111030, Note_on_c, 3, 84, 0
5, 111030, Note_on_c, 3, 84, 110
5, 111060, Note_on_c, 3, 84, 0
5, 111060, Note_on_c, 3, 83, 110
5, 111090, Note_on_c, 3, 83, 0
5, 111090, Note_on_c, 3, 83, 110
5, 111120, Note_on_c, 3, 83, 0
5, 111120, Note_on_c, 3, 84, 110
5, 111150, Note_on_c, 3, 84, 0
5, 111150, Note_on_c, 3, 84, 110
5, 111180, Note_on_c, 3, 84, 0
5, 111180, Note_on_c, 3, 83, 110
5, 111210, Note_on_c, 3, 83, 0
5, 111210, Note_on_c, 3, 83, 110
5, 111240, Note_on_c, 3, 83, 0
5, 111240, Note_on_c, 3, 84, 110
5, 111270, Note_on_c, 3, 84, 0
5, 111270, Note_on_c, 3, 84, 110
5, 111300, Note_on_c, 3, 84, 0
5, 111300, Note_on_c, 3, 83, 110
5, 111330, Note_on_c, 3, 83, 0
5, 111330, Note_on_c, 3, 83, 110
5, 111360, Note_on_c, 3, 83, 0
5, 111360, Note_on_c, 3, 84, 110
5, 111390, Note_on_c, 3, 84, 0
5, 111390, Note_on_c, 3, 84, 110
5, 111420, Note_on_c, 3, 84, 0
5, 111420, Note_on_c, 3, 83, 110
5, 111450, Note_on_c, 3, 83, 0
5, 111450, Note_on_c, 3, 83, 110
5, 111480, Note_on_c, 3, 83, 0
5, 111480, Note_on_c, 3, 84, 110
5, 111510, Note_on_c, 3, 84, 0
5, 111510, Note_on_c, 3, 84, 110
5, 111540, Note_on_c, 3, 84, 0
5, 111540, Note_on_c, 3, 76, 110
5, 111570, Note_on_c, 3, 76, 0
5, 111570, Note_on_c, 3, 76, 110
5, 111600, Note_on_c, 3, 76, 0
5, 111600, Note_on_c, 3, 77, 110
5, 111720, Note_on_c, 3, 77, 0
5, 111720, Note_on_c, 3, 77, 110
5, 111840, Note_on_c, 3, 77, 0
5, 111840, Note_on_c, 3, 77, 110
5, 111960, Note_on_c, 3, 77, 0
5, 111960, Note_on_c, 3, 77, 110
5, 112050, Note_on_c, 3, 79, 110
5, 112080, Note_on_c, 3, 79, 0
5, 112080, Note_on_c, 3, 77, 0
5, 112080, Note_on_c, 3, 77, 110
5, 112140, Note_on_c, 3, 77, 0
5, 112140, Note_on_c, 3, 76, 110
5, 112170, Note_on_c, 3, 76, 0
5, 112170, Note_on_c, 3, 74, 110
5, 112200, Note_on_c, 3, 74, 0
5, 112200, Note_on_c, 3, 76, 110
5, 112290, Note_on_c, 3, 76, 0
5, 112290, Note_on_c, 3, 84, 110
5, 112320, Note_on_c, 3, 84, 0
5, 112320, Note_on_c, 3, 81, 110
5, 112410, Note_on_c, 3, 81, 0
5, 112410, Note_on_c, 3, 86, 110
5, 112440, Note_on_c, 3, 86, 0
5, 112440, Note_on_c, 3, 84, 110
5, 112560, Note_on_c, 3, 84, 0
5, 112560, Note_on_c, 3, 83, 110
5, 112680, Note_on_c, 3, 83, 0
5, 112680, Note_on_c, 3, 84, 110
5, 112800, Note_on_c, 3, 84, 0
5, 112800, Note_on_c, 3, 82, 110
5, 112920, Note_on_c, 3, 82, 0
5, 112920, Note_on_c, 3, 81, 110
5, 113040, Note_on_c, 3, 81, 0
5, 113040, Note_on_c, 3, 69, 110
5, 113040, Note_on_c, 3, 79, 110
5, 113160, Note_on_c, 3, 79, 0
5, 113160, Note_on_c, 3, 69, 0
5, 113160, Note_on_c, 3, 62, 110
5, 113160, Note_on_c, 3, 69, 110
5, 113160, Note_on_c, 3, 78, 110
5, 113280, Note_on_c, 3, 78, 0
5, 113280, Note_on_c, 3, 69, 0
5, 113280, Note_on_c, 3, 62, 0
5, 113400, Note_on_c, 3, 77, 70
5, 113520, Note_on_c, 3, 77, 0
5, 113520, Note_on_c, 3, 65, 70
5, 113640, Note_on_c, 3, 65, 0
5, 113640, Note_on_c, 3, 65, 70
5, 113760, Note_on_c, 3, 65, 0
5, 113760, Note_on_c, 3, 65, 70
5, 113850, Note_on_c, 3, 67, 70
5, 113880, Note_on_c, 3, 67, 0
5, 113880, Note_on_c, 3, 65, 0
5, 113880, Note_on_c, 3, 65, 70
5, 113940, Note_on_c, 3, 65, 0
5, 113940, Note_on_c, 3, 64, 70
5, 113970, Note_on_c, 3, 64, 0
5, 113970, Note_on_c, 3, 62, 70
5, 114000, Note_on_c, 3, 62, 0
5, 114000, Note_on_c, 3, 64, 70
5, 114090, Note_on_c, 3, 64, 0
5, 114090, Note_on_c, 3, 67, 70
5, 114120, Note_on_c, 3, 67, 0
5, 114120, Note_on_c, 3, 69, 70
5, 114210, Note_on_c, 3, 69, 0
5, 114210, Note_on_c, 3, 74, 70
5, 114240, Note_on_c, 3, 74, 0
5, 114240, Note_on_c, 3, 72, 70
5, 114360, Note_on_c, 3, 72, 0
5, 114360, Note_on_c, 3, 71, 70
5, 114480, Note_on_c, 3, 71, 0
5, 114480, Note_on_c, 3, 72, 110
5, 114600, Note_on_c, 3, 72, 0
5, 114690, Note_on_c, 3, 79, 110
5, 114720, Note_on_c, 3, 79, 0
5, 114720, Note_on_c, 3, 77, 110
5, 114780, Note_on_c, 3, 77, 0
5, 114780, Note_on_c, 3, 76, 110
5, 114810, Note_on_c, 3, 76, 0
5, 114810, Note_on_c, 3, 74, 110
5, 114840, Note_on_c, 3, 74, 0
5, 114840, Note_on_c, 3, 76, 110
5, 114960, Note_on_c, 3, 76, 0
5, 115050, Note_on_c, 3, 76, 110
5, 115080, Note_on_c, 3, 76, 0
5, 115080, Note_on_c, 3, 74, 110
5, 115140, Note_on_c, 3, 74, 0
5, 115140, Note_on_c, 3, 72, 110
5, 115170, Note_on_c, 3, 72, 0
5, 115170, Note_on_c, 3, 71, 110
5, 115200, Note_on_c, 3, 71, 0
5, 115200, Note_on_c, 3, 72, 110
5, 115320, Note_on_c, 3, 72, 0
5, 115410, Note_on_c, 3, 79, 110
5, 115440, Note_on_c, 3, 79, 0
5, 115440, Note_on_c, 3, 77, 110
5, 115500, Note_on_c, 3, 77, 0
5, 115500, Note_on_c, 3, 76, 110
5, 115530, Note_on_c, 3, 76, 0
5, 115530, Note_on_c, 3, 74, 110
5, 115560, Note_on_c, 3, 74, 0
5, 115560, Note_on_c, 3, 76, 110
5, 115680, Note_on_c, 3, 76, 0
5, 115770, Note_on_c, 3, 76, 110
5, 115800, Note_on_c, 3, 76, 0
5, 115800, Note_on_c, 3, 74, 110
5, 115860, Note_on_c, 3, 74, 0
5, 115860, Note_on_c, 3, 72, 110
5, 115890, Note_on_c, 3, 72, 0
5, 115890, Note_on_c, 3, 71, 110
5, 115920, Note_on_c, 3, 71, 0
5, 115920, Note_on_c, 3, 72, 110
5, 115950, Note_on_c, 3, 72, 0
5, 115950, Note_on_c, 3, 67, 110
5, 115980, Note_on_c, 3, 67, 0
5, 115980, Note_on_c, 3, 67, 110
5, 116010, Note_on_c, 3, 67, 0
5, 116010, Note_on_c, 3, 67, 110
5, 116040, Note_on_c, 3, 67, 0
5, 116040, Note_on_c, 3, 76, 110
5, 116070, Note_on_c, 3, 76, 0
5, 116070, Note_on_c, 3, 67, 110
5, 116100, Note_on_c, 3, 67, 0
5, 116100, Note_on_c, 3, 67, 110
5, 116130, Note_on_c, 3, 67, 0
5, 116130, Note_on_c, 3, 67, 110
5, 116160, Note_on_c, 3, 67, 0
5, 116160, Note_on_c, 3, 71, 110
5, 116190, Note_on_c, 3, 71, 0
5, 116190, Note_on_c, 3, 67, 110
5, 116220, Note_on_c, 3, 67, 0
5, 116220, Note_on_c, 3, 67, 110
5, 116250, Note_on_c, 3, 67, 0
5, 116250, Note_on_c, 3, 67, 110
5, 116280, Note_on_c, 3, 67, 0
5, 116280, Note_on_c, 3, 72, 110
5, 116310, Note_on_c, 3, 72, 0
5, 116310, Note_on_c, 3, 67, 110
5, 116340, Note_on_c, 3, 67, 0
5, 116340, Note_on_c, 3, 67, 110
5, 116370, Note_on_c, 3, 67, 0
5, 116370, Note_on_c, 3, 67, 110
5, 116400, Note_on_c, 3, 67, 0
5, 116400, Note_on_c, 3, 76, 110
5, 116430, Note_on_c, 3, 76, 0
5, 116430, Note_on_c, 3, 67, 110
5, 116460, Note_on_c, 3, 67, 0
5, 116460, Note_on_c, 3, 67, 110
5, 116490, Note_on_c, 3, 67, 0
5, 116490, Note_on_c, 3, 67, 110
5, 116520, Note_on_c, 3, 67, 0
5, 116520, Note_on_c, 3, 71, 110
5, 116550, Note_on_c, 3, 71, 0
5, 116550, Note_on_c, 3, 67, 110
5, 116580, Note_on_c, 3, 67, 0
5, 116580, Note_on_c, 3, 67, 110
5, 116610, Note_on_c, 3, 67, 0
5, 116610, Note_on_c, 3, 67, 110
5, 116640, Note_on_c, 3, 67, 0
5, 116640, Note_on_c, 3, 55, 110
5, 116640, Note_on_c, 3, 64, 110
5, 116640, Note_on_c, 3, 72, 110
5, 116760, Note_on_c, 3, 72, 0
5, 116760, Note_on_c, 3, 64, 0
5, 116760, Note_on_c, 3, 55, 0
5, 116760, Note_on_c, 3, 67, 110
5, 116880, Note_on_c, 3, 67, 0
5, 117000, Note_on_c, 3, 64, 110
5, 117120, Note_on_c, 3, 64, 0
5, 117120, Note_on_c, 3, 60, 110
5, 117240, Note_on_c, 3, 60, 0
5, 117360, Note_on_c, 3, 79, 70
5, 117375, Note_on_c, 3, 79, 0
5, 117375, Note_on_c, 3, 81, 70
5, 117390, Note_on_c, 3, 81, 0
5, 117390, Note_on_c, 3, 79, 70
5, 117405, Note_on_c, 3, 79, 0
5, 117405, Note_on_c, 3, 81, 70
5, 117420, Note_on_c, 3, 81, 0
5, 117420, Note_on_c, 3, 79, 70
5, 117435, Note_on_c, 3, 79, 0
5, 117435, Note_on_c, 3, 81, 70
5, 117450, Note_on_c, 3, 81, 0
5, 117450, Note_on_c, 3, 77, 70
5, 117465, Note_on_c, 3, 77, 0
5, 117465, Note_on_c, 3, 79, 70
5, 117480, Note_on_c, 3, 79, 0
5, 117480, Note_on_c, 3, 81, 70
5, 117540, Note_on_c, 3, 81, 0
5, 117540, Note_on_c, 3, 79, 70
5, 117570, Note_on_c, 3, 79, 0
5, 117600, Note_on_c, 3, 77, 70
5, 117630, Note_on_c, 3, 77, 0
5, 117660, Note_on_c, 3, 76, 70
5, 117690, Note_on_c, 3, 76, 0
5, 117720, Note_on_c, 3, 77, 70
5, 117735, Note_on_c, 3, 77, 0
5, 117735, Note_on_c, 3, 79, 70
5, 117750, Note_on_c, 3, 79, 0
5, 117750, Note_on_c, 3, 77, 70
5, 117765, Note_on_c, 3, 77, 0
5, 117765, Note_on_c, 3, 79, 70
5, 117780, Note_on_c, 3, 79, 0
5, 117780, Note_on_c, 3, 77, 70
5, 117795, Note_on_c, 3, 77, 0
5, 117795, Note_on_c, 3, 79, 70
5, 117810, Note_on_c, 3, 79, 0
5, 117810, Note_on_c, 3, 76, 70
5, 117825, Note_on_c, 3, 76, 0
5, 117825, Note_on_c, 3, 77, 70
5, 117840, Note_on_c, 3, 77, 0
5, 117840, Note_on_c, 3, 79, 70
5, 117900, Note_on_c, 3, 79, 0
5, 117900, Note_on_c, 3, 77, 70
5, 117930, Note_on_c, 3, 77, 0
5, 117960, Note_on_c, 3, 76, 70
5, 117990, Note_on_c, 3, 76, 0
5, 118020, Note_on_c, 3, 74, 70
5, 118050, Note_on_c, 3, 74, 0
5, 118080, Note_on_c, 3, 76, 70
5, 118095, Note_on_c, 3, 76, 0
5, 118095, Note_on_c, 3, 77, 70
5, 118110, Note_on_c, 3, 77, 0
5, 118110, Note_on_c, 3, 76, 70
5, 118125, Note_on_c, 3, 76, 0
5, 118125, Note_on_c, 3, 77, 70
5, 118140, Note_on_c, 3, 77, 0
5, 118140, Note_on_c, 3, 76, 70
5, 118155, Note_on_c, 3, 76, 0
5, 118155, Note_on_c, 3, 77, 70
5, 118170, Note_on_c, 3, 77, 0
5, 118170, Note_on_c, 3, 74, 70
5, 118185, Note_on_c, 3, 74, 0
5, 118185, Note_on_c, 3, 76, 70
5, 118200, Note_on_c, 3, 76, 0
5, 118200, Note_on_c, 3, 77, 70
5, 118260, Note_on_c, 3, 77, 0
5, 118260, Note_on_c, 3, 76, 70
5, 118290, Note_on_c, 3, 76, 0
5, 118320, Note_on_c, 3, 74, 70
5, 118350, Note_on_c, 3, 74, 0
5, 118380, Note_on_c, 3, 72, 70
5, 118410, Note_on_c, 3, 72, 0
5, 118440, Note_on_c, 3, 74, 70
5, 118455, Note_on_c, 3, 74, 0
5, 118455, Note_on_c, 3, 76, 70
5, 118470, Note_on_c, 3, 76, 0
5, 118470, Note_on_c, 3, 74, 70
5, 118485, Note_on_c, 3, 74, 0
5, 118485, Note_on_c, 3, 76, 70
5, 118500, Note_on_c, 3, 76, 0
5, 118500, Note_on_c, 3, 74, 70
5, 118515, Note_on_c, 3, 74, 0
5, 118515, Note_on_c, 3, 76, 70
5, 118530, Note_on_c, 3, 76, 0
5, 118530, Note_on_c, 3, 72, 70
5, 118545, Note_on_c, 3, 72, 0
5, 118545, Note_on_c, 3, 74, 70
5, 118560, Note_on_c, 3, 74, 0
5, 118560, Note_on_c, 3, 76, 70
5, 118620, Note_on_c, 3, 76, 0
5, 118620, Note_on_c, 3, 74, 70
5, 118650, Note_on_c, 3, 74, 0
5, 118680, Note_on_c, 3, 72, 70
5, 118710, Note_on_c, 3, 72, 0
5, 118740, Note_on_c, 3, 71, 70
5, 118770, Note_on_c, 3, 71, 0
5, 118800, Note_on_c, 3, 72, 110
5, 118830, Note_on_c, 3, 72, 0
5, 118830, Note_on_c, 3, 84, 110
5, 118860, Note_on_c, 3, 84, 0
5, 118860, Note_on_c, 3, 84, 110
5, 118890, Note_on_c, 3, 84, 0
5, 118890, Note_on_c, 3, 84, 110
5, 118920, Note_on_c, 3, 84, 0
5, 118920, Note_on_c, 3, 84, 110
5, 118950, Note_on_c, 3, 84, 0
5, 118980, Note_on_c, 3, 84, 110
5, 119010, Note_on_c, 3, 84, 0
5, 119040, Note_on_c, 3, 84, 110
5, 119070, Note_on_c, 3, 84, 0
5, 119100, Note_on_c, 3, 84, 110
5, 119130, Note_on_c, 3, 84, 0
5, 119160, Note_on_c, 3, 81, 110
5, 119220, Note_on_c, 3, 81, 0
5, 119280, Note_on_c, 3, 77, 110
5, 119340, Note_on_c, 3, 77, 0
5, 119400, Note_on_c, 3, 74, 110
5, 119460, Note_on_c, 3, 74, 0
5, 119520, Note_on_c, 3, 72, 110
5, 119550, Note_on_c, 3, 72, 0
5, 119550, Note_on_c, 3, 84, 110
5, 119580, Note_on_c, 3, 84, 0
5, 119580, Note_on_c, 3, 84, 110
5, 119610, Note_on_c, 3, 84, 0
5, 119610, Note_on_c, 3, 84, 110
5, 119640, Note_on_c, 3, 84, 0
5, 119640, Note_on_c, 3, 84, 110
5, 119670, Note_on_c, 3, 84, 0
5, 119700, Note_on_c, 3, 84, 110
5, 119730, Note_on_c, 3, 84, 0
5, 119760, Note_on_c, 3, 84, 110
5, 119790, Note_on_c, 3, 84, 0
5, 119820, Note_on_c, 3, 84, 110
5, 119850, Note_on_c, 3, 84, 0
5, 119880, Note_on_c, 3, 81, 110
5, 119940, Note_on_c, 3, 81, 0
5, 120000, Note_on_c, 3, 77, 110
5, 120060, Note_on_c, 3, 77, 0
5, 120120, Note_on_c, 3, 74, 110
5, 120180, Note_on_c, 3, 74, 0
5, 120240, Note_on_c, 3, 72, 110
5, 120270, Note_on_c, 3, 72, 0
5, 120300, Note_on_c, 3, 72, 110
5, 120330, Note_on_c, 3, 72, 0
5, 120360, Note_on_c, 3, 79, 110
5, 120390, Note_on_c, 3, 79, 0
5, 120420, Note_on_c, 3, 79, 110
5, 120450, Note_on_c, 3, 79, 0
5, 120480, Note_on_c, 3, 76, 110
5, 120510, Note_on_c, 3, 76, 0
5, 120540, Note_on_c, 3, 76, 110
5, 120570, Note_on_c, 3, 76, 0
5, 120600, Note_on_c, 3, 72, 110
5, 120630, Note_on_c, 3, 72, 0
5, 120660, Note_on_c, 3, 72, 110
5, 120690, Note_on_c, 3, 72, 0
5, 120720, Note_on_c, 3, 67, 110
5, 120750, Note_on_c, 3, 67, 0
5, 120780, Note_on_c, 3, 67, 110
5, 120810, Note_on_c, 3, 67, 0
5, 120840, Note_on_c, 3, 64, 110
5, 120870, Note_on_c, 3, 64, 0
5, 120900, Note_on_c, 3, 64, 110
5, 120930, Note_on_c, 3, 64, 0
5, 120960, Note_on_c, 3, 60, 110
5, 120990, Note_on_c, 3, 60, 0
5, 121020, Note_on_c, 3, 60, 110
5, 121050, Note_on_c, 3, 60, 0
5, 121080, Note_on_c, 3, 55, 110
5, 121110, Note_on_c, 3, 55, 0
5, 121140, Note_on_c, 3, 55, 110
5, 121170, Note_on_c, 3, 55, 0
5, 121200, Note_on_c, 3, 64, 110
5, 121230, Note_on_c, 3, 64, 0
5, 121260, Note_on_c, 3, 64, 110
5, 121290, Note_on_c, 3, 64, 0
5, 121320, Note_on_c, 3, 60, 110
5, 121440, Note_on_c, 3, 60, 0
5, 121440, End_track
6, 0, Start_track
6, 0, MIDI_port, 0
6, 0, Title_t, "Violins 2"
6, 0, Program_c, 4, 48
6, 0, Control_c, 4, 7, 127
6, 0, Control_c, 4, 10, 98
6, 0, Note_on_c, 4, 55, 110
6, 0, Note_on_c, 4, 64, 110
6, 0, Note_on_c, 4, 72, 110
6, 120, Note_on_c, 4, 72, 0
6, 120, Note_on_c, 4, 64, 0
6, 120, Note_on_c, 4, 55, 0
6, 120, Note_on_c, 4, 67, 110
6, 240, Note_on_c, 4, 67, 0
6, 360, Note_on_c, 4, 64, 110
6, 480, Note_on_c, 4, 64, 0
6, 480, Note_on_c, 4, 60, 110
6, 600, Note_on_c, 4, 60, 0
6, 1440, Note_on_c, 4, 67, 70
6, 1455, Note_on_c, 4, 67, 0
6, 1455, Note_on_c, 4, 69, 70
6, 1470, Note_on_c, 4, 69, 0
6, 1470, Note_on_c, 4, 67, 70
6, 1485, Note_on_c, 4, 67, 0
6, 1485, Note_on_c, 4, 69, 70
6, 1500, Note_on_c, 4, 69, 0
6, 1500, Note_on_c, 4, 67, 70
6, 1515, Note_on_c, 4, 67, 0
6, 1515, Note_on_c, 4, 69, 70
6, 1530, Note_on_c, 4, 69, 0
6, 1530, Note_on_c, 4, 65, 70
6, 1545, Note_on_c, 4, 65, 0
6, 1545, Note_on_c, 4, 67, 70
6, 1560, Note_on_c, 4, 67, 0
6, 1560, Note_on_c, 4, 69, 70
6, 1620, Note_on_c, 4, 69, 0
6, 1620, Note_on_c, 4, 67, 70
6, 1650, Note_on_c, 4, 67, 0
6, 1680, Note_on_c, 4, 65, 70
6, 1710, Note_on_c, 4, 65, 0
6, 1740, Note_on_c, 4, 64, 70
6, 1770, Note_on_c, 4, 64, 0
6, 1800, Note_on_c, 4, 65, 70
6, 1815, Note_on_c, 4, 65, 0
6, 1815, Note_on_c, 4, 67, 70
6, 1830, Note_on_c, 4, 67, 0
6, 1830, Note_on_c, 4, 65, 70
6, 1845, Note_on_c, 4, 65, 0
6, 1845, Note_on_c, 4, 67, 70
6, 1860, Note_on_c, 4, 67, 0
6, 1860, Note_on_c, 4, 65, 70
6, 1875, Note_on_c, 4, 65, 0
6, 1875, Note_on_c, 4, 67, 70
6, 1890, Note_on_c, 4, 67, 0
6, 1890, Note_on_c, 4, 64, 70
6, 1905, Note_on_c, 4, 64, 0
6, 1905, Note_on_c, 4, 65, 70
6, 1920, Note_on_c, 4, 65, 0
6, 1920, Note_on_c, 4, 67, 70
6, 1980, Note_on_c, 4, 67, 0
6, 1980, Note_on_c, 4, 65, 70
6, 2010, Note_on_c, 4, 65, 0
6, 2040, Note_on_c, 4, 64, 70
6, 2070, Note_on_c, 4, 64, 0
6, 2100, Note_on_c, 4, 62, 70
6, 2130, Note_on_c, 4, 62, 0
6, 2160, Note_on_c, 4, 55, 110
6, 2160, Note_on_c, 4, 64, 110
6, 2160, Note_on_c, 4, 72, 110
6, 2280, Note_on_c, 4, 72, 0
6, 2280, Note_on_c, 4, 64, 0
6, 2280, Note_on_c, 4, 55, 0
6, 2280, Note_on_c, 4, 67, 110
6, 2400, Note_on_c, 4, 67, 0
6, 2520, Note_on_c, 4, 64, 110
6, 2640, Note_on_c, 4, 64, 0
6, 2640, Note_on_c, 4, 60, 110
6, 2760, Note_on_c, 4, 60, 0
6, 2880, Note_on_c, 4, 67, 70
6, 2895, Note_on_c, 4, 67, 0
6, 2895, Note_on_c, 4, 69, 70
6, 2910, Note_on_c, 4, 69, 0
6, 2910, Note_on_c, 4, 67, 70
6, 2925, Note_on_c, 4, 67, 0
6, 2925, Note_on_c, 4, 69, 70
6, 2940, Note_on_c, 4, 69, 0
6, 2940, Note_on_c, 4, 67, 70
6, 2955, Note_on_c, 4, 67, 0
6, 2955, Note_on_c, 4, 69, 70
6, 2970, Note_on_c, 4, 69, 0
6, 2970, Note_on_c, 4, 65, 70
6, 2985, Note_on_c, 4, 65, 0
6, 2985, Note_on_c, 4, 67, 70
6, 3000, Note_on_c, 4, 67, 0
6, 3000, Note_on_c, 4, 69, 70
6, 3060, Note_on_c, 4, 69, 0
6, 3060, Note_on_c, 4, 67, 70
6, 3090, Note_on_c, 4, 67, 0
6, 3120, Note_on_c, 4, 65, 70
6, 3150, Note_on_c, 4, 65, 0
6, 3180, Note_on_c, 4, 64, 70
6, 3210, Note_on_c, 4, 64, 0
6, 3240, Note_on_c, 4, 65, 70
6, 3255, Note_on_c, 4, 65, 0
6, 3255, Note_on_c, 4, 67, 70
6, 3270, Note_on_c, 4, 67, 0
6, 3270, Note_on_c, 4, 65, 70
6, 3285, Note_on_c, 4, 65, 0
6, 3285, Note_on_c, 4, 67, 70
6, 3300, Note_on_c, 4, 67, 0
6, 3300, Note_on_c, 4, 65, 70
6, 3315, Note_on_c, 4, 65, 0
6, 3315, Note_on_c, 4, 67, 70
6, 3330, Note_on_c, 4, 67, 0
6, 3330, Note_on_c, 4, 64, 70
6, 3345, Note_on_c, 4, 64, 0
6, 3345, Note_on_c, 4, 65, 70
6, 3360, Note_on_c, 4, 65, 0
6, 3360, Note_on_c, 4, 67, 70
6, 3420, Note_on_c, 4, 67, 0
6, 3420, Note_on_c, 4, 65, 70
6, 3450, Note_on_c, 4, 65, 0
6, 3480, Note_on_c, 4, 64, 70
6, 3510, Note_on_c, 4, 64, 0
6, 3540, Note_on_c, 4, 62, 70
6, 3570, Note_on_c, 4, 62, 0
6, 3600, Note_on_c, 4, 64, 70
6, 3615, Note_on_c, 4, 64, 0
6, 3615, Note_on_c, 4, 65, 70
6, 3630, Note_on_c, 4, 65, 0
6, 3630, Note_on_c, 4, 64, 70
6, 3645, Note_on_c, 4, 64, 0
6, 3645, Note_on_c, 4, 65, 70
6, 3660, Note_on_c, 4, 65, 0
6, 3660, Note_on_c, 4, 64, 70
6, 3675, Note_on_c, 4, 64, 0
6, 3675, Note_on_c, 4, 65, 70
6, 3690, Note_on_c, 4, 65, 0
6, 3690, Note_on_c, 4, 62, 70
6, 3705, Note_on_c, 4, 62, 0
6, 3705, Note_on_c, 4, 64, 70
6, 3720, Note_on_c, 4, 64, 0
6, 3720, Note_on_c, 4, 65, 70
6, 3780, Note_on_c, 4, 65, 0
6, 3780, Note_on_c, 4, 64, 70
6, 3810, Note_on_c, 4, 64, 0
6, 3840, Note_on_c, 4, 62, 70
6, 3870, Note_on_c, 4, 62, 0
6, 3900, Note_on_c, 4, 60, 70
6, 3930, Note_on_c, 4, 60, 0
6, 3960, Note_on_c, 4, 62, 70
6, 3975, Note_on_c, 4, 62, 0
6, 3975, Note_on_c, 4, 64, 70
6, 3990, Note_on_c, 4, 64, 0
6, 3990, Note_on_c, 4, 62, 70
6, 4005, Note_on_c, 4, 62, 0
6, 4005, Note_on_c, 4, 64, 70
6, 4020, Note_on_c, 4, 64, 0
6, 4020, Note_on_c, 4, 62, 70
6, 4035, Note_on_c, 4, 62, 0
6, 4035, Note_on_c, 4, 64, 70
6, 4050, Note_on_c, 4, 64, 0
6, 4050, Note_on_c, 4, 60, 70
6, 4065, Note_on_c, 4, 60, 0
6, 4065, Note_on_c, 4, 62, 70
6, 4080, Note_on_c, 4, 62, 0
6, 4080, Note_on_c, 4, 64, 70
6, 4140, Note_on_c, 4, 64, 0
6, 4140, Note_on_c, 4, 62, 70
6, 4170, Note_on_c, 4, 62, 0
6, 4200, Note_on_c, 4, 60, 70
6, 4230, Note_on_c, 4, 60, 0
6, 4260, Note_on_c, 4, 59, 70
6, 4290, Note_on_c, 4, 59, 0
6, 4320, Note_on_c, 4, 60, 110
6, 4350, Note_on_c, 4, 60, 0
6, 4350, Note_on_c, 4, 72, 110
6, 4380, Note_on_c, 4, 72, 0
6, 4380, Note_on_c, 4, 72, 110
6, 4410, Note_on_c, 4, 72, 0
6, 4410, Note_on_c, 4, 72, 110
6, 4440, Note_on_c, 4, 72, 0
6, 4440, Note_on_c, 4, 72, 110
6, 4470, Note_on_c, 4, 72, 0
6, 4500, Note_on_c, 4, 72, 110
6, 4530, Note_on_c, 4, 72, 0
6, 4560, Note_on_c, 4, 72, 110
6, 4590, Note_on_c, 4, 72, 0
6, 4620, Note_on_c, 4, 72, 110
6, 4650, Note_on_c, 4, 72, 0
6, 4680, Note_on_c, 4, 72, 110
6, 4710, Note_on_c, 4, 72, 0
6, 4740, Note_on_c, 4, 72, 110
6, 4770, Note_on_c, 4, 72, 0
6, 4800, Note_on_c, 4, 72, 110
6, 4830, Note_on_c, 4, 72, 0
6, 4860, Note_on_c, 4, 72, 110
6, 4890, Note_on_c, 4, 72, 0
6, 4920, Note_on_c, 4, 72, 110
6, 4950, Note_on_c, 4, 72, 0
6, 4980, Note_on_c, 4, 72, 110
6, 5010, Note_on_c, 4, 72, 0
6, 5040, Note_on_c, 4, 72, 110
6, 5070, Note_on_c, 4, 72, 0
6, 5100, Note_on_c, 4, 72, 110
6, 5130, Note_on_c, 4, 72, 0
6, 5160, Note_on_c, 4, 72, 110
6, 5190, Note_on_c, 4, 72, 0
6, 5220, Note_on_c, 4, 72, 110
6, 5250, Note_on_c, 4, 72, 0
6, 5280, Note_on_c, 4, 72, 110
6, 5310, Note_on_c, 4, 72, 0
6, 5340, Note_on_c, 4, 72, 110
6, 5370, Note_on_c, 4, 72, 0
6, 5400, Note_on_c, 4, 72, 110
6, 5430, Note_on_c, 4, 72, 0
6, 5460, Note_on_c, 4, 72, 110
6, 5490, Note_on_c, 4, 72, 0
6, 5520, Note_on_c, 4, 72, 110
6, 5550, Note_on_c, 4, 72, 0
6, 5580, Note_on_c, 4, 72, 110
6, 5610, Note_on_c, 4, 72, 0
6, 5640, Note_on_c, 4, 74, 110
6, 5670, Note_on_c, 4, 74, 0
6, 5700, Note_on_c, 4, 74, 110
6, 5730, Note_on_c, 4, 74, 0
6, 5760, Note_on_c, 4, 72, 110
6, 5850, Note_on_c, 4, 76, 110
6, 5880, Note_on_c, 4, 76, 0
6, 5880, Note_on_c, 4, 72, 0
6, 5880, Note_on_c, 4, 74, 110
6, 5970, Note_on_c, 4, 72, 110
6, 6000, Note_on_c, 4, 72, 0
6, 6000, Note_on_c, 4, 74, 0
6, 6000, Note_on_c, 4, 71, 110
6, 6120, Note_on_c, 4, 71, 0
6, 6120, Note_on_c, 4, 72, 110
6, 6150, Note_on_c, 4, 72, 0
6, 6180, Note_on_c, 4, 72, 110
6, 6210, Note_on_c, 4, 72, 0
6, 6240, Note_on_c, 4, 72, 110
6, 6270, Note_on_c, 4, 72, 0
6, 6300, Note_on_c, 4, 72, 110
6, 6330, Note_on_c, 4, 72, 0
6, 6360, Note_on_c, 4, 72, 110
6, 6390, Note_on_c, 4, 72, 0
6, 6420, Note_on_c, 4, 72, 110
6, 6450, Note_on_c, 4, 72, 0
6, 6480, Note_on_c, 4, 65, 100
6, 6495, Note_on_c, 4, 65, 0
6, 6495, Note_on_c, 4, 67, 100
6, 6510, Note_on_c, 4, 67, 0
6, 6510, Note_on_c, 4, 69, 100
6, 6600, Note_on_c, 4, 69, 0
6, 6600, Note_on_c, 4, 60, 100
6, 6615, Note_on_c, 4, 60, 0
6, 6615, Note_on_c, 4, 62, 100
6, 6630, Note_on_c, 4, 62, 0
6, 6630, Note_on_c, 4, 64, 100
6, 6720, Note_on_c, 4, 64, 0
6, 6720, Note_on_c, 4, 62, 100
6, 6735, Note_on_c, 4, 62, 0
6, 6735, Note_on_c, 4, 64, 100
6, 6750, Note_on_c, 4, 64, 0
6, 6750, Note_on_c, 4, 65, 100
6, 6840, Note_on_c, 4, 65, 0
6, 6840, Note_on_c, 4, 64, 100
6, 6870, Note_on_c, 4, 64, 0
6, 6870, Note_on_c, 4, 76, 100
6, 6900, Note_on_c, 4, 76, 0
6, 6900, Note_on_c, 4, 76, 100
6, 6930, Note_on_c, 4, 76, 0
6, 6930, Note_on_c, 4, 76, 100
6, 6960, Note_on_c, 4, 76, 0
6, 6960, Note_on_c, 4, 76, 100
6, 6990, Note_on_c, 4, 76, 0
6, 7020, Note_on_c, 4, 76, 100
6, 7050, Note_on_c, 4, 76, 0
6, 7080, Note_on_c, 4, 76, 100
6, 7110, Note_on_c, 4, 76, 0
6, 7140, Note_on_c, 4, 76, 100
6, 7170, Note_on_c, 4, 76, 0
6, 7200, Note_on_c, 4, 76, 100
6, 7290, Note_on_c, 4, 77, 75
6, 7320, Note_on_c, 4, 77, 0
6, 7320, Note_on_c, 4, 76, 0
6, 7320, Note_on_c, 4, 76, 74
6, 7380, Note_on_c, 4, 76, 0
6, 7380, Note_on_c, 4, 74, 74
6, 7410, Note_on_c, 4, 74, 0
6, 7410, Note_on_c, 4, 72, 74
6, 7410, Note_on_c, 4, 77, 74
6, 7440, Note_on_c, 4, 77, 0
6, 7440, Note_on_c, 4, 72, 0
6, 7440, Note_on_c, 4, 76, 74
6, 7500, Note_on_c, 4, 76, 0
6, 7500, Note_on_c, 4, 74, 74
6, 7530, Note_on_c, 4, 74, 0
6, 7530, Note_on_c, 4, 72, 74
6, 7560, Note_on_c, 4, 72, 0
6, 7560, Note_on_c, 4, 74, 100
6, 7590, Note_on_c, 4, 74, 0
6, 7590, Note_on_c, 4, 77, 100
6, 7620, Note_on_c, 4, 77, 0
6, 7620, Note_on_c, 4, 77, 100
6, 7650, Note_on_c, 4, 77, 0
6, 7650, Note_on_c, 4, 77, 100
6, 7680, Note_on_c, 4, 77, 0
6, 7680, Note_on_c, 4, 77, 100
6, 7710, Note_on_c, 4, 77, 0
6, 7740, Note_on_c, 4, 77, 100
6, 7770, Note_on_c, 4, 77, 0
6, 7800, Note_on_c, 4, 77, 100
6, 7830, Note_on_c, 4, 77, 0
6, 7860, Note_on_c, 4, 77, 100
6, 7890, Note_on_c, 4, 77, 0
6, 7920, Note_on_c, 4, 77, 100
6, 8010, Note_on_c, 4, 76, 70
6, 8040, Note_on_c, 4, 76, 0
6, 8040, Note_on_c, 4, 77, 0
6, 8040, Note_on_c, 4, 74, 70
6, 8100, Note_on_c, 4, 74, 0
6, 8100, Note_on_c, 4, 72, 70
6, 8130, Note_on_c, 4, 72, 0
6, 8130, Note_on_c, 4, 76, 70
6, 8130, Note_on_c, 4, 71, 70
6, 8160, Note_on_c, 4, 71, 0
6, 8160, Note_on_c, 4, 76, 0
6, 8160, Note_on_c, 4, 74, 70
6, 8220, Note_on_c, 4, 74, 0
6, 8220, Note_on_c, 4, 72, 70
6, 8250, Note_on_c, 4, 72, 0
6, 8250, Note_on_c, 4, 71, 70
6, 8280, Note_on_c, 4, 71, 0
6, 8280, Note_on_c, 4, 64, 100
6, 8310, Note_on_c, 4, 64, 0
6, 8310, Note_on_c, 4, 76, 100
6, 8340, Note_on_c, 4, 76, 0
6, 8340, Note_on_c, 4, 76, 100
6, 8370, Note_on_c, 4, 76, 0
6, 8370, Note_on_c, 4, 76, 100
6, 8400, Note_on_c, 4, 76, 0
6, 8400, Note_on_c, 4, 76, 100
6, 8430, Note_on_c, 4, 76, 0
6, 8460, Note_on_c, 4, 76, 100
6, 8490, Note_on_c, 4, 76, 0
6, 8520, Note_on_c, 4, 76, 100
6, 8550, Note_on_c, 4, 76, 0
6, 8580, Note_on_c, 4, 76, 100
6, 8610, Note_on_c, 4, 76, 0
6, 8640, Note_on_c, 4, 76, 100
6, 8730, Note_on_c, 4, 77, 75
6, 8760, Note_on_c, 4, 77, 0
6, 8760, Note_on_c, 4, 76, 0
6, 8760, Note_on_c, 4, 76, 74
6, 8820, Note_on_c, 4, 76, 0
6, 8820, Note_on_c, 4, 74, 74
6, 8850, Note_on_c, 4, 74, 0
6, 8850, Note_on_c, 4, 72, 74
6, 8850, Note_on_c, 4, 77, 74
6, 8880, Note_on_c, 4, 77, 0
6, 8880, Note_on_c, 4, 72, 0
6, 8880, Note_on_c, 4, 76, 74
6, 8940, Note_on_c, 4, 76, 0
6, 8940, Note_on_c, 4, 74, 74
6, 8970, Note_on_c, 4, 74, 0
6, 8970, Note_on_c, 4, 72, 74
6, 9000, Note_on_c, 4, 72, 0
6, 9000, Note_on_c, 4, 74, 110
6, 9030, Note_on_c, 4, 74, 0
6, 9030, Note_on_c, 4, 81, 110
6, 9060, Note_on_c, 4, 81, 0
6, 9060, Note_on_c, 4, 81, 110
6, 9090, Note_on_c, 4, 81, 0
6, 9090, Note_on_c, 4, 81, 110
6, 9120, Note_on_c, 4, 81, 0
6, 9120, Note_on_c, 4, 81, 110
6, 9150, Note_on_c, 4, 81, 0
6, 9180, Note_on_c, 4, 81, 110
6, 9210, Note_on_c, 4, 81, 0
6, 9240, Note_on_c, 4, 81, 110
6, 9270, Note_on_c, 4, 81, 0
6, 9300, Note_on_c, 4, 81, 110
6, 9330, Note_on_c, 4, 81, 0
6, 9360, Note_on_c, 4, 81, 110
6, 9390, Note_on_c, 4, 81, 0
6, 9390, Note_on_c, 4, 79, 110
6, 9420, Note_on_c, 4, 79, 0
6, 9420, Note_on_c, 4, 78, 110
6, 9450, Note_on_c, 4, 78, 0
6, 9450, Note_on_c, 4, 79, 110
6, 9480, Note_on_c, 4, 79, 0
6, 9480, Note_on_c, 4, 78, 110
6, 9510, Note_on_c, 4, 78, 0
6, 9510, Note_on_c, 4, 76, 110
6, 9540, Note_on_c, 4, 76, 0
6, 9540, Note_on_c, 4, 74, 110
6, 9570, Note_on_c, 4, 74, 0
6, 9570, Note_on_c, 4, 76, 110
6, 9600, Note_on_c, 4, 76, 0
6, 9600, Note_on_c, 4, 74, 110
6, 9630, Note_on_c, 4, 74, 0
6, 9630, Note_on_c, 4, 72, 110
6, 9660, Note_on_c, 4, 72, 0
6, 9660, Note_on_c, 4, 71, 110
6, 9690, Note_on_c, 4, 71, 0
6, 9690, Note_on_c, 4, 69, 110
6, 9720, Note_on_c, 4, 69, 0
6, 9720, Note_on_c, 4, 67, 110
6, 9750, Note_on_c, 4, 67, 0
6, 9750, Note_on_c, 4, 79, 110
6, 9780, Note_on_c, 4, 79, 0
6, 9780, Note_on_c, 4, 78, 110
6, 9810, Note_on_c, 4, 78, 0
6, 9810, Note_on_c, 4, 79, 110
6, 9840, Note_on_c, 4, 79, 0
6, 9840, Note_on_c, 4, 81, 110
6, 9870, Note_on_c, 4, 81, 0
6, 9870, Note_on_c, 4, 79, 110
6, 9900, Note_on_c, 4, 79, 0
6, 9900, Note_on_c, 4, 78, 110
6, 9930, Note_on_c, 4, 78, 0
6, 9930, Note_on_c, 4, 79, 110
6, 9960, Note_on_c, 4, 79, 0
6, 9960, Note_on_c, 4, 81, 110
6, 9990, Note_on_c, 4, 81, 0
6, 9990, Note_on_c, 4, 79, 110
6, 10020, Note_on_c, 4, 79, 0
6, 10020, Note_on_c, 4, 78, 110
6, 10050, Note_on_c, 4, 78, 0
6, 10050, Note_on_c, 4, 79, 110
6, 10080, Note_on_c, 4, 79, 0
6, 10080, Note_on_c, 4, 67, 110
6, 10110, Note_on_c, 4, 67, 0
6, 10110, Note_on_c, 4, 79, 110
6, 10140, Note_on_c, 4, 79, 0
6, 10140, Note_on_c, 4, 78, 110
6, 10170, Note_on_c, 4, 78, 0
6, 10170, Note_on_c, 4, 79, 110
6, 10200, Note_on_c, 4, 79, 0
6, 10200, Note_on_c, 4, 81, 110
6, 10230, Note_on_c, 4, 81, 0
6, 10230, Note_on_c, 4, 79, 110
6, 10260, Note_on_c, 4, 79, 0
6, 10260, Note_on_c, 4, 78, 110
6, 10290, Note_on_c, 4, 78, 0
6, 10290, Note_on_c, 4, 79, 110
6, 10320, Note_on_c, 4, 79, 0
6, 10320, Note_on_c, 4, 81, 110
6, 10350, Note_on_c, 4, 81, 0
6, 10350, Note_on_c, 4, 79, 110
6, 10380, Note_on_c, 4, 79, 0
6, 10380, Note_on_c, 4, 78, 110
6, 10410, Note_on_c, 4, 78, 0
6, 10410, Note_on_c, 4, 79, 110
6, 10440, Note_on_c, 4, 79, 0
6, 10440, Note_on_c, 4, 67, 110
6, 10470, Note_on_c, 4, 67, 0
6, 10470, Note_on_c, 4, 79, 110
6, 10500, Note_on_c, 4, 79, 0
6, 10500, Note_on_c, 4, 78, 110
6, 10530, Note_on_c, 4, 78, 0
6, 10530, Note_on_c, 4, 79, 110
6, 10560, Note_on_c, 4, 79, 0
6, 10560, Note_on_c, 4, 81, 110
6, 10590, Note_on_c, 4, 81, 0
6, 10590, Note_on_c, 4, 79, 110
6, 10620, Note_on_c, 4, 79, 0
6, 10620, Note_on_c, 4, 78, 110
6, 10650, Note_on_c, 4, 78, 0
6, 10650, Note_on_c, 4, 79, 110
6, 10680, Note_on_c, 4, 79, 0
6, 10680, Note_on_c, 4, 81, 110
6, 10710, Note_on_c, 4, 81, 0
6, 10710, Note_on_c, 4, 79, 110
6, 10740, Note_on_c, 4, 79, 0
6, 10740, Note_on_c, 4, 78, 110
6, 10770, Note_on_c, 4, 78, 0
6, 10770, Note_on_c, 4, 79, 110
6, 10800, Note_on_c, 4, 79, 0
6, 10860, Note_on_c, 4, 78, 110
6, 10890, Note_on_c, 4, 78, 0
6, 10920, Note_on_c, 4, 76, 110
6, 10950, Note_on_c, 4, 76, 0
6, 10980, Note_on_c, 4, 74, 110
6, 11010, Note_on_c, 4, 74, 0
6, 11040, Note_on_c, 4, 72, 110
6, 11070, Note_on_c, 4, 72, 0
6, 11100, Note_on_c, 4, 71, 110
6, 11130, Note_on_c, 4, 71, 0
6, 11160, Note_on_c, 4, 78, 110
6, 11160, Note_on_c, 4, 69, 110
6, 11280, Note_on_c, 4, 69, 0
6, 11280, Note_on_c, 4, 78, 0
6, 11280, Note_on_c, 4, 62, 110
6, 11400, Note_on_c, 4, 62, 0
6, 11520, Note_on_c, 4, 71, 70
6, 11580, Note_on_c, 4, 71, 0
6, 11640, Note_on_c, 4, 71, 70
6, 11700, Note_on_c, 4, 71, 0
6, 11760, Note_on_c, 4, 71, 70
6, 11820, Note_on_c, 4, 71, 0
6, 11880, Note_on_c, 4, 72, 70
6, 12000, Note_on_c, 4, 72, 0
6, 12060, Note_on_c, 4, 74, 70
6, 12090, Note_on_c, 4, 74, 0
6, 12120, Note_on_c, 4, 76, 70
6, 12180, Note_on_c, 4, 76, 0
6, 12240, Note_on_c, 4, 66, 70
6, 12255, Note_on_c, 4, 66, 0
6, 12255, Note_on_c, 4, 67, 70
6, 12270, Note_on_c, 4, 67, 0
6, 12270, Note_on_c, 4, 69, 70
6, 12360, Note_on_c, 4, 69, 0
6, 12600, Note_on_c, 4, 67, 70
6, 12615, Note_on_c, 4, 67, 0
6, 12615, Note_on_c, 4, 69, 70
6, 12630, Note_on_c, 4, 69, 0
6, 12630, Note_on_c, 4, 71, 70
6, 12720, Note_on_c, 4, 71, 0
6, 12960, Note_on_c, 4, 71, 70
6, 13020, Note_on_c, 4, 71, 0
6, 13080, Note_on_c, 4, 71, 70
6, 13140, Note_on_c, 4, 71, 0
6, 13200, Note_on_c, 4, 71, 70
6, 13260, Note_on_c, 4, 71, 0
6, 13320, Note_on_c, 4, 72, 70
6, 13410, Note_on_c, 4, 72, 0
6, 13410, Note_on_c, 4, 74, 70
6, 13440, Note_on_c, 4, 74, 0
6, 13440, Note_on_c, 4, 76, 70
6, 13500, Note_on_c, 4, 76, 0
6, 13500, Note_on_c, 4, 74, 70
6, 13530, Note_on_c, 4, 74, 0
6, 13560, Note_on_c, 4, 72, 70
6, 13590, Note_on_c, 4, 72, 0
6, 13620, Note_on_c, 4, 71, 70
6, 13650, Note_on_c, 4, 71, 0
6, 13650, Note_on_c, 4, 71, 70
6, 13680, Note_on_c, 4, 71, 0
6, 13680, Note_on_c, 4, 69, 70
6, 13800, Note_on_c, 4, 69, 0
6, 13800, Note_on_c, 4, 67, 70
6, 13920, Note_on_c, 4, 67, 0
6, 13920, Note_on_c, 4, 66, 70
6, 14040, Note_on_c, 4, 66, 0
6, 14040, Note_on_c, 4, 66, 70
6, 14280, Note_on_c, 4, 66, 0
6, 14280, Note_on_c, 4, 67, 70
6, 14340, Note_on_c, 4, 67, 0
6, 15240, Note_on_c, 4, 57, 100
6, 15270, Note_on_c, 4, 57, 0
6, 15270, Note_on_c, 4, 59, 100
6, 15300, Note_on_c, 4, 59, 0
6, 15300, Note_on_c, 4, 57, 100
6, 15330, Note_on_c, 4, 57, 0
6, 15330, Note_on_c, 4, 59, 100
6, 15360, Note_on_c, 4, 59, 0
6, 15360, Note_on_c, 4, 60, 100
6, 15480, Note_on_c, 4, 60, 0
6, 15600, Note_on_c, 4, 59, 100
6, 15630, Note_on_c, 4, 59, 0
6, 15630, Note_on_c, 4, 60, 100
6, 15660, Note_on_c, 4, 60, 0
6, 15660, Note_on_c, 4, 59, 100
6, 15690, Note_on_c, 4, 59, 0
6, 15690, Note_on_c, 4, 60, 100
6, 15720, Note_on_c, 4, 60, 0
6, 15720, Note_on_c, 4, 62, 100
6, 15840, Note_on_c, 4, 62, 0
6, 16920, Note_on_c, 4, 74, 110
6, 16950, Note_on_c, 4, 74, 0
6, 16950, Note_on_c, 4, 74, 110
6, 16980, Note_on_c, 4, 74, 0
6, 16980, Note_on_c, 4, 73, 110
6, 17010, Note_on_c, 4, 73, 0
6, 17010, Note_on_c, 4, 73, 110
6, 17040, Note_on_c, 4, 73, 0
6, 17040, Note_on_c, 4, 74, 110
6, 17070, Note_on_c, 4, 74, 0
6, 17070, Note_on_c, 4, 74, 110
6, 17100, Note_on_c, 4, 74, 0
6, 17100, Note_on_c, 4, 73, 110
6, 17130, Note_on_c, 4, 73, 0
6, 17130, Note_on_c, 4, 73, 110
6, 17160, Note_on_c, 4, 73, 0
6, 17160, Note_on_c, 4, 74, 110
6, 17190, Note_on_c, 4, 74, 0
6, 17190, Note_on_c, 4, 74, 110
6, 17220, Note_on_c, 4, 74, 0
6, 17220, Note_on_c, 4, 71, 110
6, 17250, Note_on_c, 4, 71, 0
6, 17250, Note_on_c, 4, 71, 110
6, 17280, Note_on_c, 4, 71, 0
6, 17280, Note_on_c, 4, 74, 110
6, 17310, Note_on_c, 4, 74, 0
6, 17310, Note_on_c, 4, 74, 110
6, 17340, Note_on_c, 4, 74, 0
6, 17340, Note_on_c, 4, 73, 110
6, 17370, Note_on_c, 4, 73, 0
6, 17370, Note_on_c, 4, 73, 110
6, 17400, Note_on_c, 4, 73, 0
6, 17400, Note_on_c, 4, 74, 110
6, 17430, Note_on_c, 4, 74, 0
6, 17430, Note_on_c, 4, 74, 110
6, 17460, Note_on_c, 4, 74, 0
6, 17460, Note_on_c, 4, 73, 110
6, 17490, Note_on_c, 4, 73, 0
6, 17490, Note_on_c, 4, 73, 110
6, 17520, Note_on_c, 4, 73, 0
6, 17520, Note_on_c, 4, 74, 110
6, 17550, Note_on_c, 4, 74, 0
6, 17550, Note_on_c, 4, 74, 110
6, 17580, Note_on_c, 4, 74, 0
6, 17580, Note_on_c, 4, 69, 110
6, 17610, Note_on_c, 4, 69, 0
6, 17610, Note_on_c, 4, 69, 110
6, 17640, Note_on_c, 4, 69, 0
6, 17640, Note_on_c, 4, 67, 110
6, 17670, Note_on_c, 4, 67, 0
6, 17670, Note_on_c, 4, 67, 110
6, 17700, Note_on_c, 4, 67, 0
6, 17700, Note_on_c, 4, 66, 110
6, 17730, Note_on_c, 4, 66, 0
6, 17730, Note_on_c, 4, 66, 110
6, 17760, Note_on_c, 4, 66, 0
6, 17760, Note_on_c, 4, 67, 110
6, 17790, Note_on_c, 4, 67, 0
6, 17790, Note_on_c, 4, 67, 110
6, 17820, Note_on_c, 4, 67, 0
6, 17820, Note_on_c, 4, 66, 110
6, 17850, Note_on_c, 4, 66, 0
6, 17850, Note_on_c, 4, 66, 110
6, 17880, Note_on_c, 4, 66, 0
6, 17880, Note_on_c, 4, 67, 110
6, 17910, Note_on_c, 4, 67, 0
6, 17910, Note_on_c, 4, 67, 110
6, 17940, Note_on_c, 4, 67, 0
6, 17940, Note_on_c, 4, 64, 110
6, 17970, Note_on_c, 4, 64, 0
6, 17970, Note_on_c, 4, 64, 110
6, 18000, Note_on_c, 4, 64, 0
6, 18000, Note_on_c, 4, 62, 110
6, 18030, Note_on_c, 4, 62, 0
6, 18030, Note_on_c, 4, 62, 110
6, 18060, Note_on_c, 4, 62, 0
6, 18060, Note_on_c, 4, 60, 110
6, 18090, Note_on_c, 4, 60, 0
6, 18090, Note_on_c, 4, 60, 110
6, 18120, Note_on_c, 4, 60, 0
6, 18120, Note_on_c, 4, 59, 110
6, 18150, Note_on_c, 4, 59, 0
6, 18150, Note_on_c, 4, 59, 110
6, 18180, Note_on_c, 4, 59, 0
6, 18180, Note_on_c, 4, 60, 110
6, 18210, Note_on_c, 4, 60, 0
6, 18210, Note_on_c, 4, 60, 110
6, 18240, Note_on_c, 4, 60, 0
6, 18240, Note_on_c, 4, 62, 110
6, 18270, Note_on_c, 4, 62, 0
6, 18270, Note_on_c, 4, 62, 110
6, 18300, Note_on_c, 4, 62, 0
6, 18300, Note_on_c, 4, 67, 110
6, 18330, Note_on_c, 4, 67, 0
6, 18330, Note_on_c, 4, 67, 110
6, 18360, Note_on_c, 4, 67, 0
6, 18360, Note_on_c, 4, 67, 110
6, 18390, Note_on_c, 4, 67, 0
6, 18420, Note_on_c, 4, 67, 110
6, 18450, Note_on_c, 4, 67, 0
6, 18480, Note_on_c, 4, 66, 110
6, 18510, Note_on_c, 4, 66, 0
6, 18540, Note_on_c, 4, 66, 110
6, 18570, Note_on_c, 4, 66, 0
6, 18600, Note_on_c, 4, 64, 110
6, 18630, Note_on_c, 4, 64, 0
6, 18660, Note_on_c, 4, 64, 110
6, 18690, Note_on_c, 4, 64, 0
6, 18720, Note_on_c, 4, 62, 110
6, 18810, Note_on_c, 4, 83, 110
6, 18840, Note_on_c, 4, 83, 0
6, 18840, Note_on_c, 4, 62, 0
6, 18840, Note_on_c, 4, 81, 110
6, 18900, Note_on_c, 4, 81, 0
6, 18900, Note_on_c, 4, 79, 110
6, 18930, Note_on_c, 4, 79, 0
6, 18930, Note_on_c, 4, 78, 110
6, 18960, Note_on_c, 4, 78, 0
6, 18960, Note_on_c, 4, 79, 110
6, 18990, Note_on_c, 4, 79, 0
6, 18990, Note_on_c, 4, 78, 110
6, 19020, Note_on_c, 4, 78, 0
6, 19020, Note_on_c, 4, 76, 110
6, 19050, Note_on_c, 4, 76, 0
6, 19050, Note_on_c, 4, 74, 110
6, 19080, Note_on_c, 4, 74, 0
6, 19080, Note_on_c, 4, 76, 110
6, 19170, Note_on_c, 4, 76, 0
6, 19170, Note_on_c, 4, 72, 110
6, 19200, Note_on_c, 4, 72, 0
6, 19200, Note_on_c, 4, 71, 110
6, 19320, Note_on_c, 4, 71, 0
6, 19320, Note_on_c, 4, 72, 110
6, 19440, Note_on_c, 4, 72, 0
6, 19440, Note_on_c, 4, 71, 110
6, 19560, Note_on_c, 4, 71, 0
6, 19560, Note_on_c, 4, 71, 110
6, 19560, Note_on_c, 4, 68, 110
6, 19680, Note_on_c, 4, 68, 0
6, 19680, Note_on_c, 4, 71, 0
6, 19680, Note_on_c, 4, 69, 110
6, 19800, Note_on_c, 4, 69, 0
6, 19800, Note_on_c, 4, 71, 110
6, 19920, Note_on_c, 4, 71, 0
6, 19920, Note_on_c, 4, 57, 110
6, 19920, Note_on_c, 4, 64, 110
6, 19920, Note_on_c, 4, 69, 110
6, 20040, Note_on_c, 4, 69, 0
6, 20040, Note_on_c, 4, 64, 0
6, 20040, Note_on_c, 4, 57, 0
6, 20280, Note_on_c, 4, 64, 70
6, 20400, Note_on_c, 4, 64, 0
6, 20400, Note_on_c, 4, 63, 70
6, 20520, Note_on_c, 4, 63, 0
6, 20520, Note_on_c, 4, 62, 70
6, 20640, Note_on_c, 4, 62, 0
6, 20640, Note_on_c, 4, 66, 70
6, 20760, Note_on_c, 4, 66, 0
6, 20760, Note_on_c, 4, 67, 70
6, 20880, Note_on_c, 4, 67, 0
6, 20880, Note_on_c, 4, 64, 70
6, 20970, Note_on_c, 4, 64, 0
6, 20970, Note_on_c, 4, 60, 70
6, 21000, Note_on_c, 4, 60, 0
6, 21000, Note_on_c, 4, 59, 70
6, 21120, Note_on_c, 4, 59, 0
6, 21120, Note_on_c, 4, 57, 70
6, 21240, Note_on_c, 4, 57, 0
6, 21240, Note_on_c, 4, 59, 110
6, 21270, Note_on_c, 4, 59, 0
6, 21270, Note_on_c, 4, 67, 110
6, 21300, Note_on_c, 4, 67, 0
6, 21300, Note_on_c, 4, 71, 110
6, 21330, Note_on_c, 4, 71, 0
6, 21330, Note_on_c, 4, 74, 110
6, 21360, Note_on_c, 4, 74, 0
6, 21360, Note_on_c, 4, 67, 110
6, 21390, Note_on_c, 4, 67, 0
6, 21390, Note_on_c, 4, 71, 110
6, 21420, Note_on_c, 4, 71, 0
6, 21420, Note_on_c, 4, 79, 110
6, 21450, Note_on_c, 4, 79, 0
6, 21450, Note_on_c, 4, 83, 110
6, 21480, Note_on_c, 4, 83, 0
6, 21480, Note_on_c, 4, 81, 110
6, 21540, Note_on_c, 4, 81, 0
6, 21540, Note_on_c, 4, 79, 110
6, 21570, Note_on_c, 4, 79, 0
6, 21570, Note_on_c, 4, 78, 110
6, 21600, Note_on_c, 4, 78, 0
6, 21600, Note_on_c, 4, 79, 110
6, 21630, Note_on_c, 4, 79, 0
6, 21630, Note_on_c, 4, 74, 110
6, 21660, Note_on_c, 4, 74, 0
6, 21660, Note_on_c, 4, 71, 110
6, 21690, Note_on_c, 4, 71, 0
6, 21690, Note_on_c, 4, 67, 110
6, 21720, Note_on_c, 4, 67, 0
6, 21720, Note_on_c, 4, 74, 110
6, 21750, Note_on_c, 4, 74, 0
6, 21750, Note_on_c, 4, 71, 110
6, 21780, Note_on_c, 4, 71, 0
6, 21780, Note_on_c, 4, 67, 110
6, 21810, Note_on_c, 4, 67, 0
6, 21810, Note_on_c, 4, 74, 110
6, 21810, Note_on_c, 4, 64, 110
6, 21840, Note_on_c, 4, 64, 0
6, 21840, Note_on_c, 4, 74, 0
6, 21840, Note_on_c, 4, 72, 110
6, 21900, Note_on_c, 4, 72, 0
6, 21900, Note_on_c, 4, 71, 110
6, 21930, Note_on_c, 4, 71, 0
6, 21930, Note_on_c, 4, 69, 110
6, 21960, Note_on_c, 4, 69, 0
6, 21960, Note_on_c, 4, 67, 110
6, 21990, Note_on_c, 4, 67, 0
6, 21990, Note_on_c, 4, 71, 110
6, 22020, Note_on_c, 4, 71, 0
6, 22020, Note_on_c, 4, 74, 110
6, 22050, Note_on_c, 4, 74, 0
6, 22050, Note_on_c, 4, 79, 110
6, 22080, Note_on_c, 4, 79, 0
6, 22080, Note_on_c, 4, 71, 110
6, 22110, Note_on_c, 4, 71, 0
6, 22110, Note_on_c, 4, 74, 110
6, 22140, Note_on_c, 4, 74, 0
6, 22140, Note_on_c, 4, 79, 110
6, 22170, Note_on_c, 4, 79, 0
6, 22170, Note_on_c, 4, 83, 110
6, 22200, Note_on_c, 4, 83, 0
6, 22200, Note_on_c, 4, 81, 110
6, 22260, Note_on_c, 4, 81, 0
6, 22260, Note_on_c, 4, 79, 110
6, 22290, Note_on_c, 4, 79, 0
6, 22290, Note_on_c, 4, 78, 110
6, 22320, Note_on_c, 4, 78, 0
6, 22320, Note_on_c, 4, 79, 110
6, 22350, Note_on_c, 4, 79, 0
6, 22350, Note_on_c, 4, 74, 110
6, 22380, Note_on_c, 4, 74, 0
6, 22380, Note_on_c, 4, 71, 110
6, 22410, Note_on_c, 4, 71, 0
6, 22410, Note_on_c, 4, 67, 110
6, 22440, Note_on_c, 4, 67, 0
6, 22440, Note_on_c, 4, 74, 110
6, 22470, Note_on_c, 4, 74, 0
6, 22470, Note_on_c, 4, 71, 110
6, 22500, Note_on_c, 4, 71, 0
6, 22500, Note_on_c, 4, 67, 110
6, 22530, Note_on_c, 4, 67, 0
6, 22530, Note_on_c, 4, 74, 110
6, 22530, Note_on_c, 4, 62, 110
6, 22560, Note_on_c, 4, 62, 0
6, 22560, Note_on_c, 4, 74, 0
6, 22560, Note_on_c, 4, 72, 110
6, 22620, Note_on_c, 4, 72, 0
6, 22620, Note_on_c, 4, 71, 110
6, 22650, Note_on_c, 4, 71, 0
6, 22650, Note_on_c, 4, 69, 110
6, 22680, Note_on_c, 4, 69, 0
6, 22680, Note_on_c, 4, 71, 110
6, 22710, Note_on_c, 4, 71, 0
6, 22710, Note_on_c, 4, 74, 110
6, 22740, Note_on_c, 4, 74, 0
6, 22740, Note_on_c, 4, 74, 110
6, 22770, Note_on_c, 4, 74, 0
6, 22770, Note_on_c, 4, 74, 110
6, 22800, Note_on_c, 4, 74, 0
6, 22800, Note_on_c, 4, 67, 110
6, 22830, Note_on_c, 4, 67, 0
6, 22830, Note_on_c, 4, 74, 110
6, 22860, Note_on_c, 4, 74, 0
6, 22860, Note_on_c, 4, 74, 110
6, 22890, Note_on_c, 4, 74, 0
6, 22890, Note_on_c, 4, 74, 110
6, 22920, Note_on_c, 4, 74, 0
6, 22920, Note_on_c, 4, 69, 110
6, 22950, Note_on_c, 4, 69, 0
6, 22950, Note_on_c, 4, 74, 110
6, 22980, Note_on_c, 4, 74, 0
6, 22980, Note_on_c, 4, 74, 110
6, 23010, Note_on_c, 4, 74, 0
6, 23010, Note_on_c, 4, 74, 110
6, 23040, Note_on_c, 4, 74, 0
6, 23040, Note_on_c, 4, 71, 110
6, 23070, Note_on_c, 4, 71, 0
6, 23070, Note_on_c, 4, 74, 110
6, 23100, Note_on_c, 4, 74, 0
6, 23100, Note_on_c, 4, 74, 110
6, 23130, Note_on_c, 4, 74, 0
6, 23130, Note_on_c, 4, 74, 110
6, 23160, Note_on_c, 4, 74, 0
6, 23160, Note_on_c, 4, 67, 110
6, 23190, Note_on_c, 4, 67, 0
6, 23190, Note_on_c, 4, 74, 110
6, 23220, Note_on_c, 4, 74, 0
6, 23220, Note_on_c, 4, 74, 110
6, 23250, Note_on_c, 4, 74, 0
6, 23250, Note_on_c, 4, 74, 110
6, 23280, Note_on_c, 4, 74, 0
6, 23280, Note_on_c, 4, 69, 110
6, 23310, Note_on_c, 4, 69, 0
6, 23310, Note_on_c, 4, 74, 110
6, 23340, Note_on_c, 4, 74, 0
6, 23340, Note_on_c, 4, 74, 110
6, 23370, Note_on_c, 4, 74, 0
6, 23370, Note_on_c, 4, 74, 110
6, 23400, Note_on_c, 4, 74, 0
6, 23400, Note_on_c, 4, 71, 100
6, 23520, Note_on_c, 4, 71, 0
6, 23520, Note_on_c, 4, 67, 100
6, 23580, Note_on_c, 4, 67, 0
6, 23580, Note_on_c, 4, 69, 100
6, 23640, Note_on_c, 4, 69, 0
6, 23640, Note_on_c, 4, 71, 100
6, 23700, Note_on_c, 4, 71, 0
6, 23700, Note_on_c, 4, 72, 100
6, 23760, Note_on_c, 4, 72, 0
6, 23760, Note_on_c, 4, 74, 100
6, 23820, Note_on_c, 4, 74, 0
6, 23820, Note_on_c, 4, 76, 100
6, 23880, Note_on_c, 4, 76, 0
6, 23880, Note_on_c, 4, 77, 100
6, 23940, Note_on_c, 4, 77, 0
6, 23940, Note_on_c, 4, 74, 100
6, 24000, Note_on_c, 4, 74, 0
6, 24000, Note_on_c, 4, 71, 100
6, 24060, Note_on_c, 4, 71, 0
6, 24060, Note_on_c, 4, 67, 100
6, 24120, Note_on_c, 4, 67, 0
6, 24120, Note_on_c, 4, 55, 110
6, 24120, Note_on_c, 4, 64, 110
6, 24120, Note_on_c, 4, 72, 110
6, 24240, Note_on_c, 4, 72, 0
6, 24240, Note_on_c, 4, 64, 0
6, 24240, Note_on_c, 4, 55, 0
6, 24240, Note_on_c, 4, 67, 110
6, 24360, Note_on_c, 4, 67, 0
6, 24480, Note_on_c, 4, 64, 110
6, 24600, Note_on_c, 4, 64, 0
6, 24600, Note_on_c, 4, 60, 110
6, 24720, Note_on_c, 4, 60, 0
6, 25560, Note_on_c, 4, 67, 70
6, 25575, Note_on_c, 4, 67, 0
6, 25575, Note_on_c, 4, 69, 70
6, 25590, Note_on_c, 4, 69, 0
6, 25590, Note_on_c, 4, 67, 70
6, 25605, Note_on_c, 4, 67, 0
6, 25605, Note_on_c, 4, 69, 70
6, 25620, Note_on_c, 4, 69, 0
6, 25620, Note_on_c, 4, 67, 70
6, 25635, Note_on_c, 4, 67, 0
6, 25635, Note_on_c, 4, 69, 70
6, 25650, Note_on_c, 4, 69, 0
6, 25650, Note_on_c, 4, 65, 70
6, 25665, Note_on_c, 4, 65, 0
6, 25665, Note_on_c, 4, 67, 70
6, 25680, Note_on_c, 4, 67, 0
6, 25680, Note_on_c, 4, 69, 70
6, 25740, Note_on_c, 4, 69, 0
6, 25740, Note_on_c, 4, 67, 70
6, 25770, Note_on_c, 4, 67, 0
6, 25800, Note_on_c, 4, 65, 70
6, 25830, Note_on_c, 4, 65, 0
6, 25860, Note_on_c, 4, 64, 70
6, 25890, Note_on_c, 4, 64, 0
6, 25920, Note_on_c, 4, 65, 70
6, 25935, Note_on_c, 4, 65, 0
6, 25935, Note_on_c, 4, 67, 70
6, 25950, Note_on_c, 4, 67, 0
6, 25950, Note_on_c, 4, 65, 70
6, 25965, Note_on_c, 4, 65, 0
6, 25965, Note_on_c, 4, 67, 70
6, 25980, Note_on_c, 4, 67, 0
6, 25980, Note_on_c, 4, 65, 70
6, 25995, Note_on_c, 4, 65, 0
6, 25995, Note_on_c, 4, 67, 70
6, 26010, Note_on_c, 4, 67, 0
6, 26010, Note_on_c, 4, 64, 70
6, 26025, Note_on_c, 4, 64, 0
6, 26025, Note_on_c, 4, 65, 70
6, 26040, Note_on_c, 4, 65, 0
6, 26040, Note_on_c, 4, 67, 70
6, 26100, Note_on_c, 4, 67, 0
6, 26100, Note_on_c, 4, 65, 70
6, 26130, Note_on_c, 4, 65, 0
6, 26160, Note_on_c, 4, 64, 70
6, 26190, Note_on_c, 4, 64, 0
6, 26220, Note_on_c, 4, 62, 70
6, 26250, Note_on_c, 4, 62, 0
6, 26280, Note_on_c, 4, 55, 110
6, 26280, Note_on_c, 4, 64, 110
6, 26280, Note_on_c, 4, 72, 110
6, 26400, Note_on_c, 4, 72, 0
6, 26400, Note_on_c, 4, 64, 0
6, 26400, Note_on_c, 4, 55, 0
6, 26400, Note_on_c, 4, 67, 110
6, 26520, Note_on_c, 4, 67, 0
6, 26640, Note_on_c, 4, 64, 110
6, 26760, Note_on_c, 4, 64, 0
6, 26760, Note_on_c, 4, 60, 110
6, 26880, Note_on_c, 4, 60, 0
6, 27000, Note_on_c, 4, 67, 70
6, 27015, Note_on_c, 4, 67, 0
6, 27015, Note_on_c, 4, 69, 70
6, 27030, Note_on_c, 4, 69, 0
6, 27030, Note_on_c, 4, 67, 70
6, 27045, Note_on_c, 4, 67, 0
6, 27045, Note_on_c, 4, 69, 70
6, 27060, Note_on_c, 4, 69, 0
6, 27060, Note_on_c, 4, 67, 70
6, 27075, Note_on_c, 4, 67, 0
6, 27075, Note_on_c, 4, 69, 70
6, 27090, Note_on_c, 4, 69, 0
6, 27090, Note_on_c, 4, 65, 70
6, 27105, Note_on_c, 4, 65, 0
6, 27105, Note_on_c, 4, 67, 70
6, 27120, Note_on_c, 4, 67, 0
6, 27120, Note_on_c, 4, 69, 70
6, 27180, Note_on_c, 4, 69, 0
6, 27180, Note_on_c, 4, 67, 70
6, 27210, Note_on_c, 4, 67, 0
6, 27240, Note_on_c, 4, 65, 70
6, 27270, Note_on_c, 4, 65, 0
6, 27300, Note_on_c, 4, 64, 70
6, 27330, Note_on_c, 4, 64, 0
6, 27360, Note_on_c, 4, 65, 70
6, 27375, Note_on_c, 4, 65, 0
6, 27375, Note_on_c, 4, 67, 70
6, 27390, Note_on_c, 4, 67, 0
6, 27390, Note_on_c, 4, 65, 70
6, 27405, Note_on_c, 4, 65, 0
6, 27405, Note_on_c, 4, 67, 70
6, 27420, Note_on_c, 4, 67, 0
6, 27420, Note_on_c, 4, 65, 70
6, 27435, Note_on_c, 4, 65, 0
6, 27435, Note_on_c, 4, 67, 70
6, 27450, Note_on_c, 4, 67, 0
6, 27450, Note_on_c, 4, 64, 70
6, 27465, Note_on_c, 4, 64, 0
6, 27465, Note_on_c, 4, 65, 70
6, 27480, Note_on_c, 4, 65, 0
6, 27480, Note_on_c, 4, 67, 70
6, 27540, Note_on_c, 4, 67, 0
6, 27540, Note_on_c, 4, 65, 70
6, 27570, Note_on_c, 4, 65, 0
6, 27600, Note_on_c, 4, 64, 70
6, 27630, Note_on_c, 4, 64, 0
6, 27660, Note_on_c, 4, 62, 70
6, 27690, Note_on_c, 4, 62, 0
6, 27720, Note_on_c, 4, 64, 70
6, 27735, Note_on_c, 4, 64, 0
6, 27735, Note_on_c, 4, 65, 70
6, 27750, Note_on_c, 4, 65, 0
6, 27750, Note_on_c, 4, 64, 70
6, 27765, Note_on_c, 4, 64, 0
6, 27765, Note_on_c, 4, 65, 70
6, 27780, Note_on_c, 4, 65, 0
6, 27780, Note_on_c, 4, 64, 70
6, 27795, Note_on_c, 4, 64, 0
6, 27795, Note_on_c, 4, 65, 70
6, 27810, Note_on_c, 4, 65, 0
6, 27810, Note_on_c, 4, 62, 70
6, 27825, Note_on_c, 4, 62, 0
6, 27825, Note_on_c, 4, 64, 70
6, 27840, Note_on_c, 4, 64, 0
6, 27840, Note_on_c, 4, 65, 70
6, 27900, Note_on_c, 4, 65, 0
6, 27900, Note_on_c, 4, 64, 70
6, 27930, Note_on_c, 4, 64, 0
6, 27960, Note_on_c, 4, 62, 70
6, 27990, Note_on_c, 4, 62, 0
6, 28020, Note_on_c, 4, 60, 70
6, 28050, Note_on_c, 4, 60, 0
6, 28080, Note_on_c, 4, 62, 70
6, 28095, Note_on_c, 4, 62, 0
6, 28095, Note_on_c, 4, 64, 70
6, 28110, Note_on_c, 4, 64, 0
6, 28110, Note_on_c, 4, 62, 70
6, 28125, Note_on_c, 4, 62, 0
6, 28125, Note_on_c, 4, 64, 70
6, 28140, Note_on_c, 4, 64, 0
6, 28140, Note_on_c, 4, 62, 70
6, 28155, Note_on_c, 4, 62, 0
6, 28155, Note_on_c, 4, 64, 70
6, 28170, Note_on_c, 4, 64, 0
6, 28170, Note_on_c, 4, 60, 70
6, 28185, Note_on_c, 4, 60, 0
6, 28185, Note_on_c, 4, 62, 70
6, 28200, Note_on_c, 4, 62, 0
6, 28200, Note_on_c, 4, 64, 70
6, 28260, Note_on_c, 4, 64, 0
6, 28260, Note_on_c, 4, 62, 70
6, 28290, Note_on_c, 4, 62, 0
6, 28320, Note_on_c, 4, 60, 70
6, 28350, Note_on_c, 4, 60, 0
6, 28380, Note_on_c, 4, 59, 70
6, 28410, Note_on_c, 4, 59, 0
6, 28440, Note_on_c, 4, 60, 110
6, 28470, Note_on_c, 4, 60, 0
6, 28470, Note_on_c, 4, 72, 110
6, 28500, Note_on_c, 4, 72, 0
6, 28500, Note_on_c, 4, 72, 110
6, 28530, Note_on_c, 4, 72, 0
6, 28530, Note_on_c, 4, 72, 110
6, 28560, Note_on_c, 4, 72, 0
6, 28560, Note_on_c, 4, 72, 110
6, 28590, Note_on_c, 4, 72, 0
6, 28620, Note_on_c, 4, 72, 110
6, 28650, Note_on_c, 4, 72, 0
6, 28680, Note_on_c, 4, 72, 110
6, 28710, Note_on_c, 4, 72, 0
6, 28740, Note_on_c, 4, 72, 110
6, 28770, Note_on_c, 4, 72, 0
6, 28800, Note_on_c, 4, 72, 110
6, 28830, Note_on_c, 4, 72, 0
6, 28860, Note_on_c, 4, 72, 110
6, 28890, Note_on_c, 4, 72, 0
6, 28920, Note_on_c, 4, 72, 110
6, 28950, Note_on_c, 4, 72, 0
6, 28980, Note_on_c, 4, 72, 110
6, 29010, Note_on_c, 4, 72, 0
6, 29040, Note_on_c, 4, 72, 110
6, 29070, Note_on_c, 4, 72, 0
6, 29100, Note_on_c, 4, 72, 110
6, 29130, Note_on_c, 4, 72, 0
6, 29160, Note_on_c, 4, 72, 110
6, 29190, Note_on_c, 4, 72, 0
6, 29220, Note_on_c, 4, 72, 110
6, 29250, Note_on_c, 4, 72, 0
6, 29280, Note_on_c, 4, 72, 110
6, 29310, Note_on_c, 4, 72, 0
6, 29340, Note_on_c, 4, 72, 110
6, 29370, Note_on_c, 4, 72, 0
6, 29400, Note_on_c, 4, 72, 110
6, 29430, Note_on_c, 4, 72, 0
6, 29460, Note_on_c, 4, 72, 110
6, 29490, Note_on_c, 4, 72, 0
6, 29520, Note_on_c, 4, 72, 110
6, 29550, Note_on_c, 4, 72, 0
6, 29580, Note_on_c, 4, 72, 110
6, 29610, Note_on_c, 4, 72, 0
6, 29640, Note_on_c, 4, 72, 110
6, 29670, Note_on_c, 4, 72, 0
6, 29700, Note_on_c, 4, 72, 110
6, 29730, Note_on_c, 4, 72, 0
6, 29760, Note_on_c, 4, 74, 110
6, 29790, Note_on_c, 4, 74, 0
6, 29820, Note_on_c, 4, 74, 110
6, 29850, Note_on_c, 4, 74, 0
6, 29880, Note_on_c, 4, 72, 110
6, 29970, Note_on_c, 4, 76, 110
6, 30000, Note_on_c, 4, 76, 0
6, 30000, Note_on_c, 4, 72, 0
6, 30000, Note_on_c, 4, 74, 110
6, 30090, Note_on_c, 4, 72, 110
6, 30120, Note_on_c, 4, 72, 0
6, 30120, Note_on_c, 4, 74, 0
6, 30120, Note_on_c, 4, 71, 110
6, 30240, Note_on_c, 4, 71, 0
6, 30240, Note_on_c, 4, 72, 110
6, 30270, Note_on_c, 4, 72, 0
6, 30300, Note_on_c, 4, 72, 110
6, 30330, Note_on_c, 4, 72, 0
6, 30360, Note_on_c, 4, 72, 110
6, 30390, Note_on_c, 4, 72, 0
6, 30420, Note_on_c, 4, 72, 110
6, 30450, Note_on_c, 4, 72, 0
6, 30480, Note_on_c, 4, 72, 110
6, 30510, Note_on_c, 4, 72, 0
6, 30540, Note_on_c, 4, 72, 110
6, 30570, Note_on_c, 4, 72, 0
6, 30600, Note_on_c, 4, 65, 100
6, 30615, Note_on_c, 4, 65, 0
6, 30615, Note_on_c, 4, 67, 100
6, 30630, Note_on_c, 4, 67, 0
6, 30630, Note_on_c, 4, 69, 100
6, 30720, Note_on_c, 4, 69, 0
6, 30720, Note_on_c, 4, 60, 100
6, 30735, Note_on_c, 4, 60, 0
6, 30735, Note_on_c, 4, 62, 100
6, 30750, Note_on_c, 4, 62, 0
6, 30750, Note_on_c, 4, 64, 100
6, 30840, Note_on_c, 4, 64, 0
6, 30840, Note_on_c, 4, 62, 100
6, 30855, Note_on_c, 4, 62, 0
6, 30855, Note_on_c, 4, 64, 100
6, 30870, Note_on_c, 4, 64, 0
6, 30870, Note_on_c, 4, 65, 100
6, 30960, Note_on_c, 4, 65, 0
6, 30960, Note_on_c, 4, 64, 100
6, 30990, Note_on_c, 4, 64, 0
6, 30990, Note_on_c, 4, 76, 100
6, 31020, Note_on_c, 4, 76, 0
6, 31020, Note_on_c, 4, 76, 100
6, 31050, Note_on_c, 4, 76, 0
6, 31050, Note_on_c, 4, 76, 100
6, 31080, Note_on_c, 4, 76, 0
6, 31080, Note_on_c, 4, 76, 100
6, 31110, Note_on_c, 4, 76, 0
6, 31140, Note_on_c, 4, 76, 100
6, 31170, Note_on_c, 4, 76, 0
6, 31200, Note_on_c, 4, 76, 100
6, 31230, Note_on_c, 4, 76, 0
6, 31260, Note_on_c, 4, 76, 100
6, 31290, Note_on_c, 4, 76, 0
6, 31320, Note_on_c, 4, 76, 100
6, 31410, Note_on_c, 4, 77, 75
6, 31440, Note_on_c, 4, 77, 0
6, 31440, Note_on_c, 4, 76, 0
6, 31440, Note_on_c, 4, 76, 74
6, 31500, Note_on_c, 4, 76, 0
6, 31500, Note_on_c, 4, 74, 74
6, 31530, Note_on_c, 4, 74, 0
6, 31530, Note_on_c, 4, 72, 74
6, 31530, Note_on_c, 4, 77, 74
6, 31560, Note_on_c, 4, 77, 0
6, 31560, Note_on_c, 4, 72, 0
6, 31560, Note_on_c, 4, 76, 74
6, 31620, Note_on_c, 4, 76, 0
6, 31620, Note_on_c, 4, 74, 74
6, 31650, Note_on_c, 4, 74, 0
6, 31650, Note_on_c, 4, 72, 74
6, 31680, Note_on_c, 4, 72, 0
6, 31680, Note_on_c, 4, 74, 100
6, 31710, Note_on_c, 4, 74, 0
6, 31710, Note_on_c, 4, 77, 100
6, 31740, Note_on_c, 4, 77, 0
6, 31740, Note_on_c, 4, 77, 100
6, 31770, Note_on_c, 4, 77, 0
6, 31770, Note_on_c, 4, 77, 100
6, 31800, Note_on_c, 4, 77, 0
6, 31800, Note_on_c, 4, 77, 100
6, 31830, Note_on_c, 4, 77, 0
6, 31860, Note_on_c, 4, 77, 100
6, 31890, Note_on_c, 4, 77, 0
6, 31920, Note_on_c, 4, 77, 100
6, 31950, Note_on_c, 4, 77, 0
6, 31980, Note_on_c, 4, 77, 100
6, 32010, Note_on_c, 4, 77, 0
6, 32040, Note_on_c, 4, 77, 100
6, 32130, Note_on_c, 4, 76, 70
6, 32160, Note_on_c, 4, 76, 0
6, 32160, Note_on_c, 4, 77, 0
6, 32160, Note_on_c, 4, 74, 70
6, 32220, Note_on_c, 4, 74, 0
6, 32220, Note_on_c, 4, 72, 70
6, 32250, Note_on_c, 4, 72, 0
6, 32250, Note_on_c, 4, 76, 70
6, 32250, Note_on_c, 4, 71, 70
6, 32280, Note_on_c, 4, 71, 0
6, 32280, Note_on_c, 4, 76, 0
6, 32280, Note_on_c, 4, 74, 70
6, 32340, Note_on_c, 4, 74, 0
6, 32340, Note_on_c, 4, 72, 70
6, 32370, Note_on_c, 4, 72, 0
6, 32370, Note_on_c, 4, 71, 70
6, 32400, Note_on_c, 4, 71, 0
6, 32400, Note_on_c, 4, 64, 100
6, 32430, Note_on_c, 4, 64, 0
6, 32430, Note_on_c, 4, 76, 100
6, 32460, Note_on_c, 4, 76, 0
6, 32460, Note_on_c, 4, 76, 100
6, 32490, Note_on_c, 4, 76, 0
6, 32490, Note_on_c, 4, 76, 100
6, 32520, Note_on_c, 4, 76, 0
6, 32520, Note_on_c, 4, 76, 100
6, 32550, Note_on_c, 4, 76, 0
6, 32580, Note_on_c, 4, 76, 100
6, 32610, Note_on_c, 4, 76, 0
6, 32640, Note_on_c, 4, 76, 100
6, 32670, Note_on_c, 4, 76, 0
6, 32700, Note_on_c, 4, 76, 100
6, 32730, Note_on_c, 4, 76, 0
6, 32760, Note_on_c, 4, 76, 100
6, 32850, Note_on_c, 4, 77, 75
6, 32880, Note_on_c, 4, 77, 0
6, 32880, Note_on_c, 4, 76, 0
6, 32880, Note_on_c, 4, 76, 74
6, 32940, Note_on_c, 4, 76, 0
6, 32940, Note_on_c, 4, 74, 74
6, 32970, Note_on_c, 4, 74, 0
6, 32970, Note_on_c, 4, 72, 74
6, 32970, Note_on_c, 4, 77, 74
6, 33000, Note_on_c, 4, 77, 0
6, 33000, Note_on_c, 4, 72, 0
6, 33000, Note_on_c, 4, 76, 74
6, 33060, Note_on_c, 4, 76, 0
6, 33060, Note_on_c, 4, 74, 74
6, 33090, Note_on_c, 4, 74, 0
6, 33090, Note_on_c, 4, 72, 74
6, 33120, Note_on_c, 4, 72, 0
6, 33120, Note_on_c, 4, 74, 110
6, 33150, Note_on_c, 4, 74, 0
6, 33150, Note_on_c, 4, 81, 110
6, 33180, Note_on_c, 4, 81, 0
6, 33180, Note_on_c, 4, 81, 110
6, 33210, Note_on_c, 4, 81, 0
6, 33210, Note_on_c, 4, 81, 110
6, 33240, Note_on_c, 4, 81, 0
6, 33240, Note_on_c, 4, 81, 110
6, 33270, Note_on_c, 4, 81, 0
6, 33300, Note_on_c, 4, 81, 110
6, 33330, Note_on_c, 4, 81, 0
6, 33360, Note_on_c, 4, 81, 110
6, 33390, Note_on_c, 4, 81, 0
6, 33420, Note_on_c, 4, 81, 110
6, 33450, Note_on_c, 4, 81, 0
6, 33480, Note_on_c, 4, 81, 110
6, 33510, Note_on_c, 4, 81, 0
6, 33510, Note_on_c, 4, 79, 110
6, 33540, Note_on_c, 4, 79, 0
6, 33540, Note_on_c, 4, 78, 110
6, 33570, Note_on_c, 4, 78, 0
6, 33570, Note_on_c, 4, 79, 110
6, 33600, Note_on_c, 4, 79, 0
6, 33600, Note_on_c, 4, 78, 110
6, 33630, Note_on_c, 4, 78, 0
6, 33630, Note_on_c, 4, 76, 110
6, 33660, Note_on_c, 4, 76, 0
6, 33660, Note_on_c, 4, 74, 110
6, 33690, Note_on_c, 4, 74, 0
6, 33690, Note_on_c, 4, 76, 110
6, 33720, Note_on_c, 4, 76, 0
6, 33720, Note_on_c, 4, 74, 110
6, 33750, Note_on_c, 4, 74, 0
6, 33750, Note_on_c, 4, 72, 110
6, 33780, Note_on_c, 4, 72, 0
6, 33780, Note_on_c, 4, 71, 110
6, 33810, Note_on_c, 4, 71, 0
6, 33810, Note_on_c, 4, 69, 110
6, 33840, Note_on_c, 4, 69, 0
6, 33840, Note_on_c, 4, 67, 110
6, 33870, Note_on_c, 4, 67, 0
6, 33870, Note_on_c, 4, 79, 110
6, 33900, Note_on_c, 4, 79, 0
6, 33900, Note_on_c, 4, 78, 110
6, 33930, Note_on_c, 4, 78, 0
6, 33930, Note_on_c, 4, 79, 110
6, 33960, Note_on_c, 4, 79, 0
6, 33960, Note_on_c, 4, 81, 110
6, 33990, Note_on_c, 4, 81, 0
6, 33990, Note_on_c, 4, 79, 110
6, 34020, Note_on_c, 4, 79, 0
6, 34020, Note_on_c, 4, 78, 110
6, 34050, Note_on_c, 4, 78, 0
6, 34050, Note_on_c, 4, 79, 110
6, 34080, Note_on_c, 4, 79, 0
6, 34080, Note_on_c, 4, 81, 110
6, 34110, Note_on_c, 4, 81, 0
6, 34110, Note_on_c, 4, 79, 110
6, 34140, Note_on_c, 4, 79, 0
6, 34140, Note_on_c, 4, 78, 110
6, 34170, Note_on_c, 4, 78, 0
6, 34170, Note_on_c, 4, 79, 110
6, 34200, Note_on_c, 4, 79, 0
6, 34200, Note_on_c, 4, 67, 110
6, 34230, Note_on_c, 4, 67, 0
6, 34230, Note_on_c, 4, 79, 110
6, 34260, Note_on_c, 4, 79, 0
6, 34260, Note_on_c, 4, 78, 110
6, 34290, Note_on_c, 4, 78, 0
6, 34290, Note_on_c, 4, 79, 110
6, 34320, Note_on_c, 4, 79, 0
6, 34320, Note_on_c, 4, 81, 110
6, 34350, Note_on_c, 4, 81, 0
6, 34350, Note_on_c, 4, 79, 110
6, 34380, Note_on_c, 4, 79, 0
6, 34380, Note_on_c, 4, 78, 110
6, 34410, Note_on_c, 4, 78, 0
6, 34410, Note_on_c, 4, 79, 110
6, 34440, Note_on_c, 4, 79, 0
6, 34440, Note_on_c, 4, 81, 110
6, 34470, Note_on_c, 4, 81, 0
6, 34470, Note_on_c, 4, 79, 110
6, 34500, Note_on_c, 4, 79, 0
6, 34500, Note_on_c, 4, 78, 110
6, 34530, Note_on_c, 4, 78, 0
6, 34530, Note_on_c, 4, 79, 110
6, 34560, Note_on_c, 4, 79, 0
6, 34560, Note_on_c, 4, 67, 110
6, 34590, Note_on_c, 4, 67, 0
6, 34590, Note_on_c, 4, 79, 110
6, 34620, Note_on_c, 4, 79, 0
6, 34620, Note_on_c, 4, 78, 110
6, 34650, Note_on_c, 4, 78, 0
6, 34650, Note_on_c, 4, 79, 110
6, 34680, Note_on_c, 4, 79, 0
6, 34680, Note_on_c, 4, 81, 110
6, 34710, Note_on_c, 4, 81, 0
6, 34710, Note_on_c, 4, 79, 110
6, 34740, Note_on_c, 4, 79, 0
6, 34740, Note_on_c, 4, 78, 110
6, 34770, Note_on_c, 4, 78, 0
6, 34770, Note_on_c, 4, 79, 110
6, 34800, Note_on_c, 4, 79, 0
6, 34800, Note_on_c, 4, 81, 110
6, 34830, Note_on_c, 4, 81, 0
6, 34830, Note_on_c, 4, 79, 110
6, 34860, Note_on_c, 4, 79, 0
6, 34860, Note_on_c, 4, 78, 110
6, 34890, Note_on_c, 4, 78, 0
6, 34890, Note_on_c, 4, 79, 110
6, 34920, Note_on_c, 4, 79, 0
6, 34980, Note_on_c, 4, 78, 110
6, 35010, Note_on_c, 4, 78, 0
6, 35040, Note_on_c, 4, 76, 110
6, 35070, Note_on_c, 4, 76, 0
6, 35100, Note_on_c, 4, 74, 110
6, 35130, Note_on_c, 4, 74, 0
6, 35160, Note_on_c, 4, 72, 110
6, 35190, Note_on_c, 4, 72, 0
6, 35220, Note_on_c, 4, 71, 110
6, 35250, Note_on_c, 4, 71, 0
6, 35280, Note_on_c, 4, 78, 110
6, 35280, Note_on_c, 4, 69, 110
6, 35400, Note_on_c, 4, 69, 0
6, 35400, Note_on_c, 4, 78, 0
6, 35400, Note_on_c, 4, 62, 110
6, 35520, Note_on_c, 4, 62, 0
6, 35640, Note_on_c, 4, 71, 70
6, 35700, Note_on_c, 4, 71, 0
6, 35760, Note_on_c, 4, 71, 70
6, 35820, Note_on_c, 4, 71, 0
6, 35880, Note_on_c, 4, 71, 70
6, 35940, Note_on_c, 4, 71, 0
6, 36000, Note_on_c, 4, 72, 70
6, 36120, Note_on_c, 4, 72, 0
6, 36180, Note_on_c, 4, 74, 70
6, 36210, Note_on_c, 4, 74, 0
6, 36240, Note_on_c, 4, 76, 70
6, 36300, Note_on_c, 4, 76, 0
6, 36360, Note_on_c, 4, 66, 70
6, 36375, Note_on_c, 4, 66, 0
6, 36375, Note_on_c, 4, 67, 70
6, 36390, Note_on_c, 4, 67, 0
6, 36390, Note_on_c, 4, 69, 70
6, 36480, Note_on_c, 4, 69, 0
6, 36720, Note_on_c, 4, 67, 70
6, 36735, Note_on_c, 4, 67, 0
6, 36735, Note_on_c, 4, 69, 70
6, 36750, Note_on_c, 4, 69, 0
6, 36750, Note_on_c, 4, 71, 70
6, 36840, Note_on_c, 4, 71, 0
6, 37080, Note_on_c, 4, 71, 70
6, 37140, Note_on_c, 4, 71, 0
6, 37200, Note_on_c, 4, 71, 70
6, 37260, Note_on_c, 4, 71, 0
6, 37320, Note_on_c, 4, 71, 70
6, 37380, Note_on_c, 4, 71, 0
6, 37440, Note_on_c, 4, 72, 70
6, 37530, Note_on_c, 4, 72, 0
6, 37530, Note_on_c, 4, 74, 70
6, 37560, Note_on_c, 4, 74, 0
6, 37560, Note_on_c, 4, 76, 70
6, 37620, Note_on_c, 4, 76, 0
6, 37620, Note_on_c, 4, 74, 70
6, 37650, Note_on_c, 4, 74, 0
6, 37680, Note_on_c, 4, 72, 70
6, 37710, Note_on_c, 4, 72, 0
6, 37740, Note_on_c, 4, 71, 70
6, 37770, Note_on_c, 4, 71, 0
6, 37770, Note_on_c, 4, 71, 70
6, 37800, Note_on_c, 4, 71, 0
6, 37800, Note_on_c, 4, 69, 70
6, 37920, Note_on_c, 4, 69, 0
6, 37920, Note_on_c, 4, 67, 70
6, 38040, Note_on_c, 4, 67, 0
6, 38040, Note_on_c, 4, 66, 70
6, 38160, Note_on_c, 4, 66, 0
6, 38160, Note_on_c, 4, 66, 70
6, 38400, Note_on_c, 4, 66, 0
6, 38400, Note_on_c, 4, 67, 70
6, 38460, Note_on_c, 4, 67, 0
6, 39360, Note_on_c, 4, 57, 100
6, 39390, Note_on_c, 4, 57, 0
6, 39390, Note_on_c, 4, 59, 100
6, 39420, Note_on_c, 4, 59, 0
6, 39420, Note_on_c, 4, 57, 100
6, 39450, Note_on_c, 4, 57, 0
6, 39450, Note_on_c, 4, 59, 100
6, 39480, Note_on_c, 4, 59, 0
6, 39480, Note_on_c, 4, 60, 100
6, 39600, Note_on_c, 4, 60, 0
6, 39720, Note_on_c, 4, 59, 100
6, 39750, Note_on_c, 4, 59, 0
6, 39750, Note_on_c, 4, 60, 100
6, 39780, Note_on_c, 4, 60, 0
6, 39780, Note_on_c, 4, 59, 100
6, 39810, Note_on_c, 4, 59, 0
6, 39810, Note_on_c, 4, 60, 100
6, 39840, Note_on_c, 4, 60, 0
6, 39840, Note_on_c, 4, 62, 100
6, 39960, Note_on_c, 4, 62, 0
6, 41040, Note_on_c, 4, 74, 110
6, 41070, Note_on_c, 4, 74, 0
6, 41070, Note_on_c, 4, 74, 110
6, 41100, Note_on_c, 4, 74, 0
6, 41100, Note_on_c, 4, 73, 110
6, 41130, Note_on_c, 4, 73, 0
6, 41130, Note_on_c, 4, 73, 110
6, 41160, Note_on_c, 4, 73, 0
6, 41160, Note_on_c, 4, 74, 110
6, 41190, Note_on_c, 4, 74, 0
6, 41190, Note_on_c, 4, 74, 110
6, 41220, Note_on_c, 4, 74, 0
6, 41220, Note_on_c, 4, 73, 110
6, 41250, Note_on_c, 4, 73, 0
6, 41250, Note_on_c, 4, 73, 110
6, 41280, Note_on_c, 4, 73, 0
6, 41280, Note_on_c, 4, 74, 110
6, 41310, Note_on_c, 4, 74, 0
6, 41310, Note_on_c, 4, 74, 110
6, 41340, Note_on_c, 4, 74, 0
6, 41340, Note_on_c, 4, 71, 110
6, 41370, Note_on_c, 4, 71, 0
6, 41370, Note_on_c, 4, 71, 110
6, 41400, Note_on_c, 4, 71, 0
6, 41400, Note_on_c, 4, 74, 110
6, 41430, Note_on_c, 4, 74, 0
6, 41430, Note_on_c, 4, 74, 110
6, 41460, Note_on_c, 4, 74, 0
6, 41460, Note_on_c, 4, 73, 110
6, 41490, Note_on_c, 4, 73, 0
6, 41490, Note_on_c, 4, 73, 110
6, 41520, Note_on_c, 4, 73, 0
6, 41520, Note_on_c, 4, 74, 110
6, 41550, Note_on_c, 4, 74, 0
6, 41550, Note_on_c, 4, 74, 110
6, 41580, Note_on_c, 4, 74, 0
6, 41580, Note_on_c, 4, 73, 110
6, 41610, Note_on_c, 4, 73, 0
6, 41610, Note_on_c, 4, 73, 110
6, 41640, Note_on_c, 4, 73, 0
6, 41640, Note_on_c, 4, 74, 110
6, 41670, Note_on_c, 4, 74, 0
6, 41670, Note_on_c, 4, 74, 110
6, 41700, Note_on_c, 4, 74, 0
6, 41700, Note_on_c, 4, 69, 110
6, 41730, Note_on_c, 4, 69, 0
6, 41730, Note_on_c, 4, 69, 110
6, 41760, Note_on_c, 4, 69, 0
6, 41760, Note_on_c, 4, 67, 110
6, 41790, Note_on_c, 4, 67, 0
6, 41790, Note_on_c, 4, 67, 110
6, 41820, Note_on_c, 4, 67, 0
6, 41820, Note_on_c, 4, 66, 110
6, 41850, Note_on_c, 4, 66, 0
6, 41850, Note_on_c, 4, 66, 110
6, 41880, Note_on_c, 4, 66, 0
6, 41880, Note_on_c, 4, 67, 110
6, 41910, Note_on_c, 4, 67, 0
6, 41910, Note_on_c, 4, 67, 110
6, 41940, Note_on_c, 4, 67, 0
6, 41940, Note_on_c, 4, 66, 110
6, 41970, Note_on_c, 4, 66, 0
6, 41970, Note_on_c, 4, 66, 110
6, 42000, Note_on_c, 4, 66, 0
6, 42000, Note_on_c, 4, 67, 110
6, 42030, Note_on_c, 4, 67, 0
6, 42030, Note_on_c, 4, 67, 110
6, 42060, Note_on_c, 4, 67, 0
6, 42060, Note_on_c, 4, 64, 110
6, 42090, Note_on_c, 4, 64, 0
6, 42090, Note_on_c, 4, 64, 110
6, 42120, Note_on_c, 4, 64, 0
6, 42120, Note_on_c, 4, 62, 110
6, 42150, Note_on_c, 4, 62, 0
6, 42150, Note_on_c, 4, 62, 110
6, 42180, Note_on_c, 4, 62, 0
6, 42180, Note_on_c, 4, 60, 110
6, 42210, Note_on_c, 4, 60, 0
6, 42210, Note_on_c, 4, 60, 110
6, 42240, Note_on_c, 4, 60, 0
6, 42240, Note_on_c, 4, 59, 110
6, 42270, Note_on_c, 4, 59, 0
6, 42270, Note_on_c, 4, 59, 110
6, 42300, Note_on_c, 4, 59, 0
6, 42300, Note_on_c, 4, 60, 110
6, 42330, Note_on_c, 4, 60, 0
6, 42330, Note_on_c, 4, 60, 110
6, 42360, Note_on_c, 4, 60, 0
6, 42360, Note_on_c, 4, 62, 110
6, 42390, Note_on_c, 4, 62, 0
6, 42390, Note_on_c, 4, 62, 110
6, 42420, Note_on_c, 4, 62, 0
6, 42420, Note_on_c, 4, 67, 110
6, 42450, Note_on_c, 4, 67, 0
6, 42450, Note_on_c, 4, 67, 110
6, 42480, Note_on_c, 4, 67, 0
6, 42480, Note_on_c, 4, 67, 110
6, 42510, Note_on_c, 4, 67, 0
6, 42540, Note_on_c, 4, 67, 110
6, 42570, Note_on_c, 4, 67, 0
6, 42600, Note_on_c, 4, 66, 110
6, 42630, Note_on_c, 4, 66, 0
6, 42660, Note_on_c, 4, 66, 110
6, 42690, Note_on_c, 4, 66, 0
6, 42720, Note_on_c, 4, 64, 110
6, 42750, Note_on_c, 4, 64, 0
6, 42780, Note_on_c, 4, 64, 110
6, 42810, Note_on_c, 4, 64, 0
6, 42840, Note_on_c, 4, 62, 110
6, 42930, Note_on_c, 4, 83, 110
6, 42960, Note_on_c, 4, 83, 0
6, 42960, Note_on_c, 4, 62, 0
6, 42960, Note_on_c, 4, 81, 110
6, 43020, Note_on_c, 4, 81, 0
6, 43020, Note_on_c, 4, 79, 110
6, 43050, Note_on_c, 4, 79, 0
6, 43050, Note_on_c, 4, 78, 110
6, 43080, Note_on_c, 4, 78, 0
6, 43080, Note_on_c, 4, 79, 110
6, 43110, Note_on_c, 4, 79, 0
6, 43110, Note_on_c, 4, 78, 110
6, 43140, Note_on_c, 4, 78, 0
6, 43140, Note_on_c, 4, 76, 110
6, 43170, Note_on_c, 4, 76, 0
6, 43170, Note_on_c, 4, 74, 110
6, 43200, Note_on_c, 4, 74, 0
6, 43200, Note_on_c, 4, 76, 110
6, 43290, Note_on_c, 4, 76, 0
6, 43290, Note_on_c, 4, 72, 110
6, 43320, Note_on_c, 4, 72, 0
6, 43320, Note_on_c, 4, 71, 110
6, 43440, Note_on_c, 4, 71, 0
6, 43440, Note_on_c, 4, 72, 110
6, 43560, Note_on_c, 4, 72, 0
6, 43560, Note_on_c, 4, 71, 110
6, 43680, Note_on_c, 4, 71, 0
6, 43680, Note_on_c, 4, 71, 110
6, 43680, Note_on_c, 4, 68, 110
6, 43800, Note_on_c, 4, 68, 0
6, 43800, Note_on_c, 4, 71, 0
6, 43800, Note_on_c, 4, 69, 110
6, 43920, Note_on_c, 4, 69, 0
6, 43920, Note_on_c, 4, 71, 110
6, 44040, Note_on_c, 4, 71, 0
6, 44040, Note_on_c, 4, 57, 110
6, 44040, Note_on_c, 4, 64, 110
6, 44040, Note_on_c, 4, 69, 110
6, 44160, Note_on_c, 4, 69, 0
6, 44160, Note_on_c, 4, 64, 0
6, 44160, Note_on_c, 4, 57, 0
6, 44400, Note_on_c, 4, 64, 70
6, 44520, Note_on_c, 4, 64, 0
6, 44520, Note_on_c, 4, 63, 70
6, 44640, Note_on_c, 4, 63, 0
6, 44640, Note_on_c, 4, 62, 70
6, 44760, Note_on_c, 4, 62, 0
6, 44760, Note_on_c, 4, 66, 70
6, 44880, Note_on_c, 4, 66, 0
6, 44880, Note_on_c, 4, 67, 70
6, 45000, Note_on_c, 4, 67, 0
6, 45000, Note_on_c, 4, 64, 70
6, 45090, Note_on_c, 4, 64, 0
6, 45090, Note_on_c, 4, 60, 70
6, 45120, Note_on_c, 4, 60, 0
6, 45120, Note_on_c, 4, 59, 70
6, 45240, Note_on_c, 4, 59, 0
6, 45240, Note_on_c, 4, 57, 70
6, 45360, Note_on_c, 4, 57, 0
6, 45360, Note_on_c, 4, 59, 110
6, 45390, Note_on_c, 4, 59, 0
6, 45390, Note_on_c, 4, 67, 110
6, 45420, Note_on_c, 4, 67, 0
6, 45420, Note_on_c, 4, 71, 110
6, 45450, Note_on_c, 4, 71, 0
6, 45450, Note_on_c, 4, 74, 110
6, 45480, Note_on_c, 4, 74, 0
6, 45480, Note_on_c, 4, 67, 110
6, 45510, Note_on_c, 4, 67, 0
6, 45510, Note_on_c, 4, 71, 110
6, 45540, Note_on_c, 4, 71, 0
6, 45540, Note_on_c, 4, 79, 110
6, 45570, Note_on_c, 4, 79, 0
6, 45570, Note_on_c, 4, 83, 110
6, 45600, Note_on_c, 4, 83, 0
6, 45600, Note_on_c, 4, 81, 110
6, 45660, Note_on_c, 4, 81, 0
6, 45660, Note_on_c, 4, 79, 110
6, 45690, Note_on_c, 4, 79, 0
6, 45690, Note_on_c, 4, 78, 110
6, 45720, Note_on_c, 4, 78, 0
6, 45720, Note_on_c, 4, 79, 110
6, 45750, Note_on_c, 4, 79, 0
6, 45750, Note_on_c, 4, 74, 110
6, 45780, Note_on_c, 4, 74, 0
6, 45780, Note_on_c, 4, 71, 110
6, 45810, Note_on_c, 4, 71, 0
6, 45810, Note_on_c, 4, 67, 110
6, 45840, Note_on_c, 4, 67, 0
6, 45840, Note_on_c, 4, 74, 110
6, 45870, Note_on_c, 4, 74, 0
6, 45870, Note_on_c, 4, 71, 110
6, 45900, Note_on_c, 4, 71, 0
6, 45900, Note_on_c, 4, 67, 110
6, 45930, Note_on_c, 4, 67, 0
6, 45930, Note_on_c, 4, 74, 110
6, 45930, Note_on_c, 4, 64, 110
6, 45960, Note_on_c, 4, 64, 0
6, 45960, Note_on_c, 4, 74, 0
6, 45960, Note_on_c, 4, 72, 110
6, 46020, Note_on_c, 4, 72, 0
6, 46020, Note_on_c, 4, 71, 110
6, 46050, Note_on_c, 4, 71, 0
6, 46050, Note_on_c, 4, 69, 110
6, 46080, Note_on_c, 4, 69, 0
6, 46080, Note_on_c, 4, 67, 110
6, 46110, Note_on_c, 4, 67, 0
6, 46110, Note_on_c, 4, 71, 110
6, 46140, Note_on_c, 4, 71, 0
6, 46140, Note_on_c, 4, 74, 110
6, 46170, Note_on_c, 4, 74, 0
6, 46170, Note_on_c, 4, 79, 110
6, 46200, Note_on_c, 4, 79, 0
6, 46200, Note_on_c, 4, 71, 110
6, 46230, Note_on_c, 4, 71, 0
6, 46230, Note_on_c, 4, 74, 110
6, 46260, Note_on_c, 4, 74, 0
6, 46260, Note_on_c, 4, 79, 110
6, 46290, Note_on_c, 4, 79, 0
6, 46290, Note_on_c, 4, 83, 110
6, 46320, Note_on_c, 4, 83, 0
6, 46320, Note_on_c, 4, 81, 110
6, 46380, Note_on_c, 4, 81, 0
6, 46380, Note_on_c, 4, 79, 110
6, 46410, Note_on_c, 4, 79, 0
6, 46410, Note_on_c, 4, 78, 110
6, 46440, Note_on_c, 4, 78, 0
6, 46440, Note_on_c, 4, 79, 110
6, 46470, Note_on_c, 4, 79, 0
6, 46470, Note_on_c, 4, 74, 110
6, 46500, Note_on_c, 4, 74, 0
6, 46500, Note_on_c, 4, 71, 110
6, 46530, Note_on_c, 4, 71, 0
6, 46530, Note_on_c, 4, 67, 110
6, 46560, Note_on_c, 4, 67, 0
6, 46560, Note_on_c, 4, 74, 110
6, 46590, Note_on_c, 4, 74, 0
6, 46590, Note_on_c, 4, 71, 110
6, 46620, Note_on_c, 4, 71, 0
6, 46620, Note_on_c, 4, 67, 110
6, 46650, Note_on_c, 4, 67, 0
6, 46650, Note_on_c, 4, 74, 110
6, 46650, Note_on_c, 4, 62, 110
6, 46680, Note_on_c, 4, 62, 0
6, 46680, Note_on_c, 4, 74, 0
6, 46680, Note_on_c, 4, 72, 110
6, 46740, Note_on_c, 4, 72, 0
6, 46740, Note_on_c, 4, 71, 110
6, 46770, Note_on_c, 4, 71, 0
6, 46770, Note_on_c, 4, 69, 110
6, 46800, Note_on_c, 4, 69, 0
6, 46800, Note_on_c, 4, 71, 110
6, 46830, Note_on_c, 4, 71, 0
6, 46830, Note_on_c, 4, 74, 110
6, 46860, Note_on_c, 4, 74, 0
6, 46860, Note_on_c, 4, 74, 110
6, 46890, Note_on_c, 4, 74, 0
6, 46890, Note_on_c, 4, 74, 110
6, 46920, Note_on_c, 4, 74, 0
6, 46920, Note_on_c, 4, 67, 110
6, 46950, Note_on_c, 4, 67, 0
6, 46950, Note_on_c, 4, 74, 110
6, 46980, Note_on_c, 4, 74, 0
6, 46980, Note_on_c, 4, 74, 110
6, 47010, Note_on_c, 4, 74, 0
6, 47010, Note_on_c, 4, 74, 110
6, 47040, Note_on_c, 4, 74, 0
6, 47040, Note_on_c, 4, 69, 110
6, 47070, Note_on_c, 4, 69, 0
6, 47070, Note_on_c, 4, 74, 110
6, 47100, Note_on_c, 4, 74, 0
6, 47100, Note_on_c, 4, 74, 110
6, 47130, Note_on_c, 4, 74, 0
6, 47130, Note_on_c, 4, 74, 110
6, 47160, Note_on_c, 4, 74, 0
6, 47160, Note_on_c, 4, 71, 110
6, 47190, Note_on_c, 4, 71, 0
6, 47190, Note_on_c, 4, 74, 110
6, 47220, Note_on_c, 4, 74, 0
6, 47220, Note_on_c, 4, 74, 110
6, 47250, Note_on_c, 4, 74, 0
6, 47250, Note_on_c, 4, 74, 110
6, 47280, Note_on_c, 4, 74, 0
6, 47280, Note_on_c, 4, 67, 110
6, 47310, Note_on_c, 4, 67, 0
6, 47310, Note_on_c, 4, 74, 110
6, 47340, Note_on_c, 4, 74, 0
6, 47340, Note_on_c, 4, 74, 110
6, 47370, Note_on_c, 4, 74, 0
6, 47370, Note_on_c, 4, 74, 110
6, 47400, Note_on_c, 4, 74, 0
6, 47400, Note_on_c, 4, 69, 110
6, 47430, Note_on_c, 4, 69, 0
6, 47430, Note_on_c, 4, 74, 110
6, 47460, Note_on_c, 4, 74, 0
6, 47460, Note_on_c, 4, 74, 110
6, 47490, Note_on_c, 4, 74, 0
6, 47490, Note_on_c, 4, 74, 110
6, 47520, Note_on_c, 4, 74, 0
6, 47520, Note_on_c, 4, 71, 100
6, 47640, Note_on_c, 4, 71, 0
6, 47640, Note_on_c, 4, 67, 100
6, 47700, Note_on_c, 4, 67, 0
6, 47700, Note_on_c, 4, 69, 100
6, 47760, Note_on_c, 4, 69, 0
6, 47760, Note_on_c, 4, 71, 100
6, 47820, Note_on_c, 4, 71, 0
6, 47820, Note_on_c, 4, 72, 100
6, 47880, Note_on_c, 4, 72, 0
6, 47880, Note_on_c, 4, 74, 100
6, 47940, Note_on_c, 4, 74, 0
6, 47940, Note_on_c, 4, 76, 100
6, 48000, Note_on_c, 4, 76, 0
6, 48000, Note_on_c, 4, 77, 100
6, 48060, Note_on_c, 4, 77, 0
6, 48060, Note_on_c, 4, 74, 100
6, 48120, Note_on_c, 4, 74, 0
6, 48120, Note_on_c, 4, 71, 100
6, 48180, Note_on_c, 4, 71, 0
6, 48180, Note_on_c, 4, 67, 100
6, 48240, Note_on_c, 4, 67, 0
6, 48240, Note_on_c, 4, 55, 110
6, 48240, Note_on_c, 4, 64, 110
6, 48240, Note_on_c, 4, 72, 110
6, 48360, Note_on_c, 4, 72, 0
6, 48360, Note_on_c, 4, 64, 0
6, 48360, Note_on_c, 4, 55, 0
6, 48600, Note_on_c, 4, 67, 110
6, 48600, Note_on_c, 4, 72, 110
6, 48600, Note_on_c, 4, 76, 110
6, 48720, Note_on_c, 4, 76, 0
6, 48720, Note_on_c, 4, 72, 0
6, 48720, Note_on_c, 4, 67, 0
6, 48960, Note_on_c, 4, 65, 110
6, 48960, Note_on_c, 4, 72, 110
6, 48960, Note_on_c, 4, 77, 110
6, 49080, Note_on_c, 4, 77, 0
6, 49080, Note_on_c, 4, 72, 0
6, 49080, Note_on_c, 4, 65, 0
6, 49320, Note_on_c, 4, 82, 110
6, 49320, Note_on_c, 4, 72, 110
6, 49320, Note_on_c, 4, 64, 110
6, 49320, Note_on_c, 4, 55, 110
6, 49440, Note_on_c, 4, 55, 0
6, 49440, Note_on_c, 4, 82, 0
6, 49440, Note_on_c, 4, 72, 0
6, 49440, Note_on_c, 4, 64, 0
6, 49680, Note_on_c, 4, 72, 110
6, 49740, Note_on_c, 4, 72, 0
6, 49740, Note_on_c, 4, 60, 70
6, 49770, Note_on_c, 4, 60, 0
6, 49800, Note_on_c, 4, 60, 70
6, 49830, Note_on_c, 4, 60, 0
6, 49860, Note_on_c, 4, 60, 70
6, 49890, Note_on_c, 4, 60, 0
6, 49920, Note_on_c, 4, 60, 70
6, 49935, Note_on_c, 4, 60, 0
6, 49935, Note_on_c, 4, 62, 70
6, 49950, Note_on_c, 4, 62, 0
6, 49950, Note_on_c, 4, 60, 70
6, 49965, Note_on_c, 4, 60, 0
6, 49965, Note_on_c, 4, 62, 70
6, 49980, Note_on_c, 4, 62, 0
6, 49980, Note_on_c, 4, 60, 70
6, 49995, Note_on_c, 4, 60, 0
6, 49995, Note_on_c, 4, 62, 70
6, 50010, Note_on_c, 4, 62, 0
6, 50010, Note_on_c, 4, 59, 70
6, 50025, Note_on_c, 4, 59, 0
6, 50025, Note_on_c, 4, 60, 70
6, 50040, Note_on_c, 4, 60, 0
6, 50040, Note_on_c, 4, 59, 70
6, 50100, Note_on_c, 4, 59, 0
6, 50100, Note_on_c, 4, 58, 70
6, 50130, Note_on_c, 4, 58, 0
6, 50160, Note_on_c, 4, 58, 70
6, 50190, Note_on_c, 4, 58, 0
6, 50220, Note_on_c, 4, 58, 70
6, 50250, Note_on_c, 4, 58, 0
6, 50280, Note_on_c, 4, 58, 70
6, 50295, Note_on_c, 4, 58, 0
6, 50295, Note_on_c, 4, 60, 70
6, 50310, Note_on_c, 4, 60, 0
6, 50310, Note_on_c, 4, 58, 70
6, 50325, Note_on_c, 4, 58, 0
6, 50325, Note_on_c, 4, 60, 70
6, 50340, Note_on_c, 4, 60, 0
6, 50340, Note_on_c, 4, 58, 70
6, 50355, Note_on_c, 4, 58, 0
6, 50355, Note_on_c, 4, 60, 70
6, 50370, Note_on_c, 4, 60, 0
6, 50370, Note_on_c, 4, 57, 70
6, 50385, Note_on_c, 4, 57, 0
6, 50385, Note_on_c, 4, 58, 70
6, 50400, Note_on_c, 4, 58, 0
6, 50400, Note_on_c, 4, 57, 70
6, 50460, Note_on_c, 4, 57, 0
6, 50460, Note_on_c, 4, 60, 70
6, 50490, Note_on_c, 4, 60, 0
6, 50520, Note_on_c, 4, 60, 70
6, 50550, Note_on_c, 4, 60, 0
6, 50580, Note_on_c, 4, 60, 70
6, 50610, Note_on_c, 4, 60, 0
6, 50640, Note_on_c, 4, 60, 70
6, 50655, Note_on_c, 4, 60, 0
6, 50655, Note_on_c, 4, 62, 70
6, 50670, Note_on_c, 4, 62, 0
6, 50670, Note_on_c, 4, 60, 70
6, 50685, Note_on_c, 4, 60, 0
6, 50685, Note_on_c, 4, 62, 70
6, 50700, Note_on_c, 4, 62, 0
6, 50700, Note_on_c, 4, 60, 70
6, 50715, Note_on_c, 4, 60, 0
6, 50715, Note_on_c, 4, 62, 70
6, 50730, Note_on_c, 4, 62, 0
6, 50730, Note_on_c, 4, 59, 70
6, 50745, Note_on_c, 4, 59, 0
6, 50745, Note_on_c, 4, 60, 70
6, 50760, Note_on_c, 4, 60, 0
6, 50760, Note_on_c, 4, 59, 70
6, 50820, Note_on_c, 4, 59, 0
6, 50820, Note_on_c, 4, 58, 70
6, 50850, Note_on_c, 4, 58, 0
6, 50880, Note_on_c, 4, 58, 70
6, 50910, Note_on_c, 4, 58, 0
6, 50940, Note_on_c, 4, 58, 70
6, 50970, Note_on_c, 4, 58, 0
6, 51000, Note_on_c, 4, 58, 70
6, 51015, Note_on_c, 4, 58, 0
6, 51015, Note_on_c, 4, 60, 70
6, 51030, Note_on_c, 4, 60, 0
6, 51030, Note_on_c, 4, 58, 70
6, 51045, Note_on_c, 4, 58, 0
6, 51045, Note_on_c, 4, 60, 70
6, 51060, Note_on_c, 4, 60, 0
6, 51060, Note_on_c, 4, 58, 70
6, 51075, Note_on_c, 4, 58, 0
6, 51075, Note_on_c, 4, 60, 70
6, 51090, Note_on_c, 4, 60, 0
6, 51090, Note_on_c, 4, 57, 70
6, 51105, Note_on_c, 4, 57, 0
6, 51105, Note_on_c, 4, 58, 70
6, 51120, Note_on_c, 4, 58, 0
6, 51120, Note_on_c, 4, 57, 70
6, 51180, Note_on_c, 4, 57, 0
6, 51180, Note_on_c, 4, 69, 70
6, 51210, Note_on_c, 4, 69, 0
6, 51240, Note_on_c, 4, 69, 70
6, 51270, Note_on_c, 4, 69, 0
6, 51300, Note_on_c, 4, 69, 70
6, 51330, Note_on_c, 4, 69, 0
6, 51360, Note_on_c, 4, 69, 70
6, 51375, Note_on_c, 4, 69, 0
6, 51375, Note_on_c, 4, 71, 70
6, 51390, Note_on_c, 4, 71, 0
6, 51390, Note_on_c, 4, 69, 70
6, 51405, Note_on_c, 4, 69, 0
6, 51405, Note_on_c, 4, 71, 70
6, 51420, Note_on_c, 4, 71, 0
6, 51420, Note_on_c, 4, 69, 70
6, 51435, Note_on_c, 4, 69, 0
6, 51435, Note_on_c, 4, 71, 70
6, 51450, Note_on_c, 4, 71, 0
6, 51450, Note_on_c, 4, 67, 70
6, 51465, Note_on_c, 4, 67, 0
6, 51465, Note_on_c, 4, 69, 70
6, 51480, Note_on_c, 4, 69, 0
6, 51480, Note_on_c, 4, 67, 70
6, 51540, Note_on_c, 4, 67, 0
6, 51540, Note_on_c, 4, 60, 70
6, 51570, Note_on_c, 4, 60, 0
6, 51600, Note_on_c, 4, 60, 70
6, 51630, Note_on_c, 4, 60, 0
6, 51660, Note_on_c, 4, 60, 70
6, 51690, Note_on_c, 4, 60, 0
6, 51720, Note_on_c, 4, 60, 70
6, 51735, Note_on_c, 4, 60, 0
6, 51735, Note_on_c, 4, 62, 70
6, 51750, Note_on_c, 4, 62, 0
6, 51750, Note_on_c, 4, 60, 70
6, 51765, Note_on_c, 4, 60, 0
6, 51765, Note_on_c, 4, 62, 70
6, 51780, Note_on_c, 4, 62, 0
6, 51780, Note_on_c, 4, 60, 70
6, 51795, Note_on_c, 4, 60, 0
6, 51795, Note_on_c, 4, 62, 70
6, 51810, Note_on_c, 4, 62, 0
6, 51810, Note_on_c, 4, 59, 70
6, 51825, Note_on_c, 4, 59, 0
6, 51825, Note_on_c, 4, 60, 70
6, 51840, Note_on_c, 4, 60, 0
6, 51840, Note_on_c, 4, 59, 70
6, 51900, Note_on_c, 4, 59, 0
6, 51900, Note_on_c, 4, 65, 70
6, 51960, Note_on_c, 4, 65, 0
6, 51960, Note_on_c, 4, 65, 70
6, 52020, Note_on_c, 4, 65, 0
6, 52020, Note_on_c, 4, 65, 70
6, 52080, Note_on_c, 4, 65, 0
6, 52080, Note_on_c, 4, 65, 70
6, 52140, Note_on_c, 4, 65, 0
6, 52140, Note_on_c, 4, 65, 70
6, 52200, Note_on_c, 4, 65, 0
6, 52200, Note_on_c, 4, 63, 70
6, 52230, Note_on_c, 4, 63, 0
6, 52230, Note_on_c, 4, 64, 70
6, 52320, Note_on_c, 4, 64, 0
6, 52320, Note_on_c, 4, 64, 70
6, 52350, Note_on_c, 4, 64, 0
6, 52380, Note_on_c, 4, 64, 70
6, 52410, Note_on_c, 4, 64, 0
6, 52440, Note_on_c, 4, 64, 70
6, 52470, Note_on_c, 4, 64, 0
6, 52500, Note_on_c, 4, 64, 70
6, 52530, Note_on_c, 4, 64, 0
6, 52590, Note_on_c, 4, 64, 70
6, 52620, Note_on_c, 4, 64, 0
6, 52680, Note_on_c, 4, 64, 70
6, 52710, Note_on_c, 4, 64, 0
6, 52740, Note_on_c, 4, 64, 70
6, 52770, Note_on_c, 4, 64, 0
6, 52800, Note_on_c, 4, 64, 70
6, 52815, Note_on_c, 4, 64, 0
6, 52815, Note_on_c, 4, 65, 70
6, 52830, Note_on_c, 4, 65, 0
6, 52830, Note_on_c, 4, 64, 70
6, 52845, Note_on_c, 4, 64, 0
6, 52845, Note_on_c, 4, 65, 70
6, 52860, Note_on_c, 4, 65, 0
6, 52860, Note_on_c, 4, 64, 70
6, 52875, Note_on_c, 4, 64, 0
6, 52875, Note_on_c, 4, 65, 70
6, 52890, Note_on_c, 4, 65, 0
6, 52890, Note_on_c, 4, 62, 70
6, 52905, Note_on_c, 4, 62, 0
6, 52905, Note_on_c, 4, 64, 70
6, 52920, Note_on_c, 4, 64, 0
6, 52920, Note_on_c, 4, 62, 70
6, 52980, Note_on_c, 4, 62, 0
6, 52980, Note_on_c, 4, 67, 70
6, 53010, Note_on_c, 4, 67, 0
6, 53040, Note_on_c, 4, 67, 70
6, 53070, Note_on_c, 4, 67, 0
6, 53100, Note_on_c, 4, 67, 70
6, 53130, Note_on_c, 4, 67, 0
6, 53160, Note_on_c, 4, 67, 70
6, 53175, Note_on_c, 4, 67, 0
6, 53175, Note_on_c, 4, 69, 70
6, 53190, Note_on_c, 4, 69, 0
6, 53190, Note_on_c, 4, 67, 70
6, 53205, Note_on_c, 4, 67, 0
6, 53205, Note_on_c, 4, 69, 70
6, 53220, Note_on_c, 4, 69, 0
6, 53220, Note_on_c, 4, 67, 70
6, 53235, Note_on_c, 4, 67, 0
6, 53235, Note_on_c, 4, 69, 70
6, 53250, Note_on_c, 4, 69, 0
6, 53250, Note_on_c, 4, 66, 70
6, 53265, Note_on_c, 4, 66, 0
6, 53265, Note_on_c, 4, 67, 70
6, 53280, Note_on_c, 4, 67, 0
6, 53280, Note_on_c, 4, 66, 70
6, 53340, Note_on_c, 4, 66, 0
6, 53340, Note_on_c, 4, 60, 70
6, 53370, Note_on_c, 4, 60, 0
6, 53400, Note_on_c, 4, 60, 70
6, 53430, Note_on_c, 4, 60, 0
6, 53460, Note_on_c, 4, 60, 70
6, 53490, Note_on_c, 4, 60, 0
6, 53520, Note_on_c, 4, 60, 70
6, 53535, Note_on_c, 4, 60, 0
6, 53535, Note_on_c, 4, 62, 70
6, 53550, Note_on_c, 4, 62, 0
6, 53550, Note_on_c, 4, 60, 70
6, 53565, Note_on_c, 4, 60, 0
6, 53565, Note_on_c, 4, 62, 70
6, 53580, Note_on_c, 4, 62, 0
6, 53580, Note_on_c, 4, 60, 70
6, 53595, Note_on_c, 4, 60, 0
6, 53595, Note_on_c, 4, 62, 70
6, 53610, Note_on_c, 4, 62, 0
6, 53610, Note_on_c, 4, 59, 70
6, 53625, Note_on_c, 4, 59, 0
6, 53625, Note_on_c, 4, 60, 70
6, 53640, Note_on_c, 4, 60, 0
6, 53640, Note_on_c, 4, 59, 70
6, 53760, Note_on_c, 4, 59, 0
6, 53760, Note_on_c, 4, 67, 70
6, 53880, Note_on_c, 4, 67, 0
6, 53880, Note_on_c, 4, 65, 70
6, 54000, Note_on_c, 4, 65, 0
6, 54000, Note_on_c, 4, 64, 70
6, 54120, Note_on_c, 4, 64, 0
6, 54120, Note_on_c, 4, 62, 70
6, 54240, Note_on_c, 4, 62, 0
6, 54240, Note_on_c, 4, 60, 70
6, 54360, Note_on_c, 4, 60, 0
6, 54360, Note_on_c, 4, 59, 70
6, 54480, Note_on_c, 4, 59, 0
6, 54480, Note_on_c, 4, 67, 70
6, 54600, Note_on_c, 4, 67, 0
6, 54600, Note_on_c, 4, 65, 70
6, 54720, Note_on_c, 4, 65, 0
6, 54720, Note_on_c, 4, 64, 70
6, 54840, Note_on_c, 4, 64, 0
6, 54840, Note_on_c, 4, 62, 70
6, 54960, Note_on_c, 4, 62, 0
6, 54960, Note_on_c, 4, 60, 70
6, 55080, Note_on_c, 4, 60, 0
6, 55080, Note_on_c, 4, 59, 70
6, 55095, Note_on_c, 4, 59, 0
6, 55095, Note_on_c, 4, 60, 70
6, 55110, Note_on_c, 4, 60, 0
6, 55110, Note_on_c, 4, 59, 70
6, 55125, Note_on_c, 4, 59, 0
6, 55125, Note_on_c, 4, 60, 70
6, 55140, Note_on_c, 4, 60, 0
6, 55140, Note_on_c, 4, 59, 70
6, 55155, Note_on_c, 4, 59, 0
6, 55155, Note_on_c, 4, 60, 70
6, 55170, Note_on_c, 4, 60, 0
6, 55170, Note_on_c, 4, 57, 70
6, 55185, Note_on_c, 4, 57, 0
6, 55185, Note_on_c, 4, 59, 70
6, 55200, Note_on_c, 4, 59, 0
6, 55440, Note_on_c, 4, 60, 70
6, 55455, Note_on_c, 4, 60, 0
6, 55455, Note_on_c, 4, 62, 70
6, 55470, Note_on_c, 4, 62, 0
6, 55470, Note_on_c, 4, 60, 70
6, 55485, Note_on_c, 4, 60, 0
6, 55485, Note_on_c, 4, 62, 70
6, 55500, Note_on_c, 4, 62, 0
6, 55500, Note_on_c, 4, 60, 70
6, 55515, Note_on_c, 4, 60, 0
6, 55515, Note_on_c, 4, 62, 70
6, 55530, Note_on_c, 4, 62, 0
6, 55530, Note_on_c, 4, 59, 70
6, 55545, Note_on_c, 4, 59, 0
6, 55545, Note_on_c, 4, 60, 70
6, 55560, Note_on_c, 4, 60, 0
6, 55920, Note_on_c, 4, 74, 70
6, 55950, Note_on_c, 4, 74, 0
6, 55980, Note_on_c, 4, 72, 70
6, 56010, Note_on_c, 4, 72, 0
6, 56040, Note_on_c, 4, 71, 70
6, 56070, Note_on_c, 4, 71, 0
6, 56100, Note_on_c, 4, 69, 70
6, 56130, Note_on_c, 4, 69, 0
6, 56160, Note_on_c, 4, 67, 70
6, 56190, Note_on_c, 4, 67, 0
6, 56220, Note_on_c, 4, 65, 70
6, 56250, Note_on_c, 4, 65, 0
6, 56280, Note_on_c, 4, 64, 70
6, 56310, Note_on_c, 4, 64, 0
6, 56340, Note_on_c, 4, 62, 70
6, 56370, Note_on_c, 4, 62, 0
6, 56400, Note_on_c, 4, 60, 70
6, 56430, Note_on_c, 4, 60, 0
6, 56460, Note_on_c, 4, 59, 70
6, 56490, Note_on_c, 4, 59, 0
6, 56520, Note_on_c, 4, 55, 110
6, 56520, Note_on_c, 4, 64, 110
6, 56520, Note_on_c, 4, 72, 110
6, 56640, Note_on_c, 4, 72, 0
6, 56640, Note_on_c, 4, 64, 0
6, 56640, Note_on_c, 4, 55, 0
6, 56640, Note_on_c, 4, 67, 110
6, 56760, Note_on_c, 4, 67, 0
6, 56880, Note_on_c, 4, 64, 110
6, 57000, Note_on_c, 4, 64, 0
6, 57000, Note_on_c, 4, 60, 110
6, 57120, Note_on_c, 4, 60, 0
6, 57960, Note_on_c, 4, 67, 70
6, 57975, Note_on_c, 4, 67, 0
6, 57975, Note_on_c, 4, 69, 70
6, 57990, Note_on_c, 4, 69, 0
6, 57990, Note_on_c, 4, 67, 70
6, 58005, Note_on_c, 4, 67, 0
6, 58005, Note_on_c, 4, 69, 70
6, 58020, Note_on_c, 4, 69, 0
6, 58020, Note_on_c, 4, 67, 70
6, 58035, Note_on_c, 4, 67, 0
6, 58035, Note_on_c, 4, 69, 70
6, 58050, Note_on_c, 4, 69, 0
6, 58050, Note_on_c, 4, 65, 70
6, 58065, Note_on_c, 4, 65, 0
6, 58065, Note_on_c, 4, 67, 70
6, 58080, Note_on_c, 4, 67, 0
6, 58080, Note_on_c, 4, 69, 70
6, 58140, Note_on_c, 4, 69, 0
6, 58140, Note_on_c, 4, 67, 70
6, 58170, Note_on_c, 4, 67, 0
6, 58200, Note_on_c, 4, 65, 70
6, 58230, Note_on_c, 4, 65, 0
6, 58260, Note_on_c, 4, 64, 70
6, 58290, Note_on_c, 4, 64, 0
6, 58320, Note_on_c, 4, 65, 70
6, 58335, Note_on_c, 4, 65, 0
6, 58335, Note_on_c, 4, 67, 70
6, 58350, Note_on_c, 4, 67, 0
6, 58350, Note_on_c, 4, 65, 70
6, 58365, Note_on_c, 4, 65, 0
6, 58365, Note_on_c, 4, 67, 70
6, 58380, Note_on_c, 4, 67, 0
6, 58380, Note_on_c, 4, 65, 70
6, 58395, Note_on_c, 4, 65, 0
6, 58395, Note_on_c, 4, 67, 70
6, 58410, Note_on_c, 4, 67, 0
6, 58410, Note_on_c, 4, 64, 70
6, 58425, Note_on_c, 4, 64, 0
6, 58425, Note_on_c, 4, 65, 70
6, 58440, Note_on_c, 4, 65, 0
6, 58440, Note_on_c, 4, 67, 70
6, 58500, Note_on_c, 4, 67, 0
6, 58500, Note_on_c, 4, 65, 70
6, 58530, Note_on_c, 4, 65, 0
6, 58560, Note_on_c, 4, 64, 70
6, 58590, Note_on_c, 4, 64, 0
6, 58620, Note_on_c, 4, 62, 70
6, 58650, Note_on_c, 4, 62, 0
6, 58680, Note_on_c, 4, 55, 110
6, 58680, Note_on_c, 4, 64, 110
6, 58680, Note_on_c, 4, 72, 110
6, 58800, Note_on_c, 4, 72, 0
6, 58800, Note_on_c, 4, 64, 0
6, 58800, Note_on_c, 4, 55, 0
6, 58800, Note_on_c, 4, 67, 110
6, 58920, Note_on_c, 4, 67, 0
6, 59040, Note_on_c, 4, 64, 110
6, 59160, Note_on_c, 4, 64, 0
6, 59160, Note_on_c, 4, 60, 110
6, 59280, Note_on_c, 4, 60, 0
6, 59400, Note_on_c, 4, 67, 70
6, 59415, Note_on_c, 4, 67, 0
6, 59415, Note_on_c, 4, 69, 70
6, 59430, Note_on_c, 4, 69, 0
6, 59430, Note_on_c, 4, 67, 70
6, 59445, Note_on_c, 4, 67, 0
6, 59445, Note_on_c, 4, 69, 70
6, 59460, Note_on_c, 4, 69, 0
6, 59460, Note_on_c, 4, 67, 70
6, 59475, Note_on_c, 4, 67, 0
6, 59475, Note_on_c, 4, 69, 70
6, 59490, Note_on_c, 4, 69, 0
6, 59490, Note_on_c, 4, 65, 70
6, 59505, Note_on_c, 4, 65, 0
6, 59505, Note_on_c, 4, 67, 70
6, 59520, Note_on_c, 4, 67, 0
6, 59520, Note_on_c, 4, 69, 70
6, 59580, Note_on_c, 4, 69, 0
6, 59580, Note_on_c, 4, 67, 70
6, 59610, Note_on_c, 4, 67, 0
6, 59640, Note_on_c, 4, 65, 70
6, 59670, Note_on_c, 4, 65, 0
6, 59700, Note_on_c, 4, 64, 70
6, 59730, Note_on_c, 4, 64, 0
6, 59760, Note_on_c, 4, 65, 70
6, 59775, Note_on_c, 4, 65, 0
6, 59775, Note_on_c, 4, 67, 70
6, 59790, Note_on_c, 4, 67, 0
6, 59790, Note_on_c, 4, 65, 70
6, 59805, Note_on_c, 4, 65, 0
6, 59805, Note_on_c, 4, 67, 70
6, 59820, Note_on_c, 4, 67, 0
6, 59820, Note_on_c, 4, 65, 70
6, 59835, Note_on_c, 4, 65, 0
6, 59835, Note_on_c, 4, 67, 70
6, 59850, Note_on_c, 4, 67, 0
6, 59850, Note_on_c, 4, 64, 70
6, 59865, Note_on_c, 4, 64, 0
6, 59865, Note_on_c, 4, 65, 70
6, 59880, Note_on_c, 4, 65, 0
6, 59880, Note_on_c, 4, 67, 70
6, 59940, Note_on_c, 4, 67, 0
6, 59940, Note_on_c, 4, 65, 70
6, 59970, Note_on_c, 4, 65, 0
6, 60000, Note_on_c, 4, 64, 70
6, 60030, Note_on_c, 4, 64, 0
6, 60060, Note_on_c, 4, 62, 70
6, 60090, Note_on_c, 4, 62, 0
6, 60120, Note_on_c, 4, 64, 70
6, 60135, Note_on_c, 4, 64, 0
6, 60135, Note_on_c, 4, 65, 70
6, 60150, Note_on_c, 4, 65, 0
6, 60150, Note_on_c, 4, 64, 70
6, 60165, Note_on_c, 4, 64, 0
6, 60165, Note_on_c, 4, 65, 70
6, 60180, Note_on_c, 4, 65, 0
6, 60180, Note_on_c, 4, 64, 70
6, 60195, Note_on_c, 4, 64, 0
6, 60195, Note_on_c, 4, 65, 70
6, 60210, Note_on_c, 4, 65, 0
6, 60210, Note_on_c, 4, 62, 70
6, 60225, Note_on_c, 4, 62, 0
6, 60225, Note_on_c, 4, 64, 70
6, 60240, Note_on_c, 4, 64, 0
6, 60240, Note_on_c, 4, 65, 70
6, 60300, Note_on_c, 4, 65, 0
6, 60300, Note_on_c, 4, 64, 70
6, 60330, Note_on_c, 4, 64, 0
6, 60360, Note_on_c, 4, 62, 70
6, 60390, Note_on_c, 4, 62, 0
6, 60420, Note_on_c, 4, 60, 70
6, 60450, Note_on_c, 4, 60, 0
6, 60480, Note_on_c, 4, 62, 70
6, 60495, Note_on_c, 4, 62, 0
6, 60495, Note_on_c, 4, 64, 70
6, 60510, Note_on_c, 4, 64, 0
6, 60510, Note_on_c, 4, 62, 70
6, 60525, Note_on_c, 4, 62, 0
6, 60525, Note_on_c, 4, 64, 70
6, 60540, Note_on_c, 4, 64, 0
6, 60540, Note_on_c, 4, 62, 70
6, 60555, Note_on_c, 4, 62, 0
6, 60555, Note_on_c, 4, 64, 70
6, 60570, Note_on_c, 4, 64, 0
6, 60570, Note_on_c, 4, 60, 70
6, 60585, Note_on_c, 4, 60, 0
6, 60585, Note_on_c, 4, 62, 70
6, 60600, Note_on_c, 4, 62, 0
6, 60600, Note_on_c, 4, 64, 70
6, 60660, Note_on_c, 4, 64, 0
6, 60660, Note_on_c, 4, 62, 70
6, 60690, Note_on_c, 4, 62, 0
6, 60720, Note_on_c, 4, 60, 70
6, 60750, Note_on_c, 4, 60, 0
6, 60780, Note_on_c, 4, 59, 70
6, 60810, Note_on_c, 4, 59, 0
6, 60840, Note_on_c, 4, 60, 110
6, 60870, Note_on_c, 4, 60, 0
6, 60870, Note_on_c, 4, 72, 110
6, 60900, Note_on_c, 4, 72, 0
6, 60900, Note_on_c, 4, 72, 110
6, 60930, Note_on_c, 4, 72, 0
6, 60930, Note_on_c, 4, 72, 110
6, 60960, Note_on_c, 4, 72, 0
6, 60960, Note_on_c, 4, 72, 110
6, 60990, Note_on_c, 4, 72, 0
6, 61020, Note_on_c, 4, 72, 110
6, 61050, Note_on_c, 4, 72, 0
6, 61080, Note_on_c, 4, 72, 110
6, 61110, Note_on_c, 4, 72, 0
6, 61140, Note_on_c, 4, 72, 110
6, 61170, Note_on_c, 4, 72, 0
6, 61200, Note_on_c, 4, 72, 110
6, 61230, Note_on_c, 4, 72, 0
6, 61260, Note_on_c, 4, 72, 110
6, 61290, Note_on_c, 4, 72, 0
6, 61320, Note_on_c, 4, 72, 110
6, 61350, Note_on_c, 4, 72, 0
6, 61380, Note_on_c, 4, 72, 110
6, 61410, Note_on_c, 4, 72, 0
6, 61440, Note_on_c, 4, 72, 110
6, 61470, Note_on_c, 4, 72, 0
6, 61500, Note_on_c, 4, 72, 110
6, 61530, Note_on_c, 4, 72, 0
6, 61560, Note_on_c, 4, 72, 110
6, 61590, Note_on_c, 4, 72, 0
6, 61620, Note_on_c, 4, 72, 110
6, 61650, Note_on_c, 4, 72, 0
6, 61680, Note_on_c, 4, 72, 110
6, 61710, Note_on_c, 4, 72, 0
6, 61740, Note_on_c, 4, 72, 110
6, 61770, Note_on_c, 4, 72, 0
6, 61800, Note_on_c, 4, 72, 110
6, 61830, Note_on_c, 4, 72, 0
6, 61860, Note_on_c, 4, 72, 110
6, 61890, Note_on_c, 4, 72, 0
6, 61920, Note_on_c, 4, 72, 110
6, 61950, Note_on_c, 4, 72, 0
6, 61980, Note_on_c, 4, 72, 110
6, 62010, Note_on_c, 4, 72, 0
6, 62040, Note_on_c, 4, 72, 110
6, 62070, Note_on_c, 4, 72, 0
6, 62100, Note_on_c, 4, 72, 110
6, 62130, Note_on_c, 4, 72, 0
6, 62160, Note_on_c, 4, 74, 110
6, 62190, Note_on_c, 4, 74, 0
6, 62220, Note_on_c, 4, 74, 110
6, 62250, Note_on_c, 4, 74, 0
6, 62280, Note_on_c, 4, 72, 110
6, 62370, Note_on_c, 4, 76, 110
6, 62400, Note_on_c, 4, 76, 0
6, 62400, Note_on_c, 4, 72, 0
6, 62400, Note_on_c, 4, 74, 110
6, 62490, Note_on_c, 4, 72, 110
6, 62520, Note_on_c, 4, 72, 0
6, 62520, Note_on_c, 4, 74, 0
6, 62520, Note_on_c, 4, 71, 110
6, 62640, Note_on_c, 4, 71, 0
6, 62640, Note_on_c, 4, 72, 110
6, 62670, Note_on_c, 4, 72, 0
6, 62700, Note_on_c, 4, 72, 110
6, 62730, Note_on_c, 4, 72, 0
6, 62760, Note_on_c, 4, 72, 110
6, 62790, Note_on_c, 4, 72, 0
6, 62820, Note_on_c, 4, 72, 110
6, 62850, Note_on_c, 4, 72, 0
6, 62880, Note_on_c, 4, 72, 110
6, 62910, Note_on_c, 4, 72, 0
6, 62940, Note_on_c, 4, 72, 110
6, 62970, Note_on_c, 4, 72, 0
6, 63000, Note_on_c, 4, 65, 100
6, 63015, Note_on_c, 4, 65, 0
6, 63015, Note_on_c, 4, 67, 100
6, 63030, Note_on_c, 4, 67, 0
6, 63030, Note_on_c, 4, 69, 100
6, 63120, Note_on_c, 4, 69, 0
6, 63120, Note_on_c, 4, 60, 100
6, 63135, Note_on_c, 4, 60, 0
6, 63135, Note_on_c, 4, 62, 100
6, 63150, Note_on_c, 4, 62, 0
6, 63150, Note_on_c, 4, 64, 100
6, 63240, Note_on_c, 4, 64, 0
6, 63240, Note_on_c, 4, 62, 100
6, 63255, Note_on_c, 4, 62, 0
6, 63255, Note_on_c, 4, 64, 100
6, 63270, Note_on_c, 4, 64, 0
6, 63270, Note_on_c, 4, 65, 100
6, 63360, Note_on_c, 4, 65, 0
6, 63360, Note_on_c, 4, 64, 100
6, 63390, Note_on_c, 4, 64, 0
6, 63390, Note_on_c, 4, 76, 100
6, 63420, Note_on_c, 4, 76, 0
6, 63420, Note_on_c, 4, 76, 100
6, 63450, Note_on_c, 4, 76, 0
6, 63450, Note_on_c, 4, 76, 100
6, 63480, Note_on_c, 4, 76, 0
6, 63480, Note_on_c, 4, 76, 100
6, 63510, Note_on_c, 4, 76, 0
6, 63540, Note_on_c, 4, 76, 100
6, 63570, Note_on_c, 4, 76, 0
6, 63600, Note_on_c, 4, 76, 100
6, 63630, Note_on_c, 4, 76, 0
6, 63660, Note_on_c, 4, 76, 100
6, 63690, Note_on_c, 4, 76, 0
6, 63720, Note_on_c, 4, 76, 100
6, 63810, Note_on_c, 4, 77, 75
6, 63840, Note_on_c, 4, 77, 0
6, 63840, Note_on_c, 4, 76, 0
6, 63840, Note_on_c, 4, 76, 74
6, 63900, Note_on_c, 4, 76, 0
6, 63900, Note_on_c, 4, 74, 74
6, 63930, Note_on_c, 4, 74, 0
6, 63930, Note_on_c, 4, 72, 74
6, 63930, Note_on_c, 4, 77, 74
6, 63960, Note_on_c, 4, 77, 0
6, 63960, Note_on_c, 4, 72, 0
6, 63960, Note_on_c, 4, 76, 74
6, 64020, Note_on_c, 4, 76, 0
6, 64020, Note_on_c, 4, 74, 74
6, 64050, Note_on_c, 4, 74, 0
6, 64050, Note_on_c, 4, 72, 74
6, 64080, Note_on_c, 4, 72, 0
6, 64080, Note_on_c, 4, 72, 100
6, 64110, Note_on_c, 4, 72, 0
6, 64110, Note_on_c, 4, 69, 100
6, 64110, Note_on_c, 4, 77, 100
6, 64140, Note_on_c, 4, 77, 0
6, 64140, Note_on_c, 4, 69, 0
6, 64140, Note_on_c, 4, 69, 100
6, 64140, Note_on_c, 4, 77, 100
6, 64170, Note_on_c, 4, 77, 0
6, 64170, Note_on_c, 4, 69, 0
6, 64170, Note_on_c, 4, 69, 100
6, 64170, Note_on_c, 4, 77, 100
6, 64200, Note_on_c, 4, 77, 0
6, 64200, Note_on_c, 4, 69, 0
6, 64200, Note_on_c, 4, 69, 100
6, 64200, Note_on_c, 4, 77, 100
6, 64230, Note_on_c, 4, 77, 0
6, 64230, Note_on_c, 4, 69, 0
6, 64260, Note_on_c, 4, 69, 100
6, 64260, Note_on_c, 4, 77, 100
6, 64290, Note_on_c, 4, 77, 0
6, 64290, Note_on_c, 4, 69, 0
6, 64320, Note_on_c, 4, 69, 100
6, 64320, Note_on_c, 4, 77, 100
6, 64350, Note_on_c, 4, 77, 0
6, 64350, Note_on_c, 4, 69, 0
6, 64380, Note_on_c, 4, 69, 100
6, 64380, Note_on_c, 4, 77, 100
6, 64410, Note_on_c, 4, 77, 0
6, 64410, Note_on_c, 4, 69, 0
6, 64440, Note_on_c, 4, 69, 100
6, 64440, Note_on_c, 4, 77, 100
6, 64530, Note_on_c, 4, 74, 70
6, 64560, Note_on_c, 4, 74, 0
6, 64560, Note_on_c, 4, 77, 0
6, 64560, Note_on_c, 4, 69, 0
6, 64560, Note_on_c, 4, 72, 70
6, 64620, Note_on_c, 4, 72, 0
6, 64620, Note_on_c, 4, 70, 70
6, 64650, Note_on_c, 4, 70, 0
6, 64650, Note_on_c, 4, 74, 70
6, 64650, Note_on_c, 4, 69, 70
6, 64680, Note_on_c, 4, 69, 0
6, 64680, Note_on_c, 4, 74, 0
6, 64680, Note_on_c, 4, 72, 70
6, 64740, Note_on_c, 4, 72, 0
6, 64740, Note_on_c, 4, 70, 70
6, 64770, Note_on_c, 4, 70, 0
6, 64770, Note_on_c, 4, 69, 70
6, 64800, Note_on_c, 4, 69, 0
6, 64800, Note_on_c, 4, 67, 100
6, 64830, Note_on_c, 4, 67, 0
6, 64830, Note_on_c, 4, 73, 100
6, 64830, Note_on_c, 4, 76, 100
6, 64860, Note_on_c, 4, 76, 0
6, 64860, Note_on_c, 4, 73, 0
6, 64860, Note_on_c, 4, 73, 100
6, 64860, Note_on_c, 4, 76, 100
6, 64890, Note_on_c, 4, 76, 0
6, 64890, Note_on_c, 4, 73, 0
6, 64890, Note_on_c, 4, 73, 100
6, 64890, Note_on_c, 4, 76, 100
6, 64920, Note_on_c, 4, 76, 0
6, 64920, Note_on_c, 4, 73, 0
6, 64920, Note_on_c, 4, 73, 100
6, 64920, Note_on_c, 4, 76, 100
6, 64950, Note_on_c, 4, 76, 0
6, 64950, Note_on_c, 4, 73, 0
6, 64980, Note_on_c, 4, 73, 100
6, 64980, Note_on_c, 4, 76, 100
6, 65010, Note_on_c, 4, 76, 0
6, 65010, Note_on_c, 4, 73, 0
6, 65040, Note_on_c, 4, 73, 100
6, 65040, Note_on_c, 4, 76, 100
6, 65070, Note_on_c, 4, 76, 0
6, 65070, Note_on_c, 4, 73, 0
6, 65100, Note_on_c, 4, 73, 100
6, 65100, Note_on_c, 4, 76, 100
6, 65130, Note_on_c, 4, 76, 0
6, 65130, Note_on_c, 4, 73, 0
6, 65160, Note_on_c, 4, 73, 100
6, 65160, Note_on_c, 4, 76, 100
6, 65190, Note_on_c, 4, 73, 0
6, 65250, Note_on_c, 4, 69, 75
6, 65280, Note_on_c, 4, 69, 0
6, 65280, Note_on_c, 4, 76, 0
6, 65280, Note_on_c, 4, 67, 74
6, 65340, Note_on_c, 4, 67, 0
6, 65340, Note_on_c, 4, 65, 74
6, 65370, Note_on_c, 4, 65, 0
6, 65370, Note_on_c, 4, 69, 74
6, 65370, Note_on_c, 4, 64, 74
6, 65400, Note_on_c, 4, 64, 0
6, 65400, Note_on_c, 4, 69, 0
6, 65400, Note_on_c, 4, 67, 74
6, 65460, Note_on_c, 4, 67, 0
6, 65460, Note_on_c, 4, 65, 74
6, 65490, Note_on_c, 4, 65, 0
6, 65490, Note_on_c, 4, 64, 74
6, 65520, Note_on_c, 4, 64, 0
6, 65520, Note_on_c, 4, 65, 110
6, 65550, Note_on_c, 4, 65, 0
6, 65550, Note_on_c, 4, 74, 110
6, 65580, Note_on_c, 4, 74, 0
6, 65580, Note_on_c, 4, 74, 110
6, 65610, Note_on_c, 4, 74, 0
6, 65610, Note_on_c, 4, 74, 110
6, 65640, Note_on_c, 4, 74, 0
6, 65640, Note_on_c, 4, 74, 110
6, 65670, Note_on_c, 4, 74, 0
6, 65700, Note_on_c, 4, 74, 110
6, 65730, Note_on_c, 4, 74, 0
6, 65760, Note_on_c, 4, 74, 110
6, 65790, Note_on_c, 4, 74, 0
6, 65820, Note_on_c, 4, 74, 110
6, 65850, Note_on_c, 4, 74, 0
6, 65880, Note_on_c, 4, 74, 110
6, 65970, Note_on_c, 4, 70, 69
6, 66000, Note_on_c, 4, 70, 0
6, 66000, Note_on_c, 4, 74, 0
6, 66000, Note_on_c, 4, 69, 69
6, 66060, Note_on_c, 4, 69, 0
6, 66060, Note_on_c, 4, 67, 69
6, 66090, Note_on_c, 4, 67, 0
6, 66090, Note_on_c, 4, 70, 69
6, 66090, Note_on_c, 4, 65, 69
6, 66120, Note_on_c, 4, 65, 0
6, 66120, Note_on_c, 4, 70, 0
6, 66120, Note_on_c, 4, 69, 69
6, 66180, Note_on_c, 4, 69, 0
6, 66180, Note_on_c, 4, 67, 69
6, 66210, Note_on_c, 4, 67, 0
6, 66210, Note_on_c, 4, 65, 69
6, 66240, Note_on_c, 4, 65, 0
6, 66240, Note_on_c, 4, 74, 110
6, 66270, Note_on_c, 4, 74, 0
6, 66270, Note_on_c, 4, 81, 110
6, 66300, Note_on_c, 4, 81, 0
6, 66300, Note_on_c, 4, 81, 110
6, 66330, Note_on_c, 4, 81, 0
6, 66330, Note_on_c, 4, 81, 110
6, 66360, Note_on_c, 4, 81, 0
6, 66360, Note_on_c, 4, 81, 110
6, 66390, Note_on_c, 4, 81, 0
6, 66420, Note_on_c, 4, 81, 110
6, 66450, Note_on_c, 4, 81, 0
6, 66480, Note_on_c, 4, 81, 110
6, 66510, Note_on_c, 4, 81, 0
6, 66540, Note_on_c, 4, 81, 110
6, 66570, Note_on_c, 4, 81, 0
6, 66600, Note_on_c, 4, 81, 110
6, 66630, Note_on_c, 4, 81, 0
6, 66630, Note_on_c, 4, 79, 110
6, 66660, Note_on_c, 4, 79, 0
6, 66660, Note_on_c, 4, 78, 110
6, 66690, Note_on_c, 4, 78, 0
6, 66690, Note_on_c, 4, 79, 110
6, 66720, Note_on_c, 4, 79, 0
6, 66720, Note_on_c, 4, 78, 110
6, 66750, Note_on_c, 4, 78, 0
6, 66750, Note_on_c, 4, 76, 110
6, 66780, Note_on_c, 4, 76, 0
6, 66780, Note_on_c, 4, 74, 110
6, 66810, Note_on_c, 4, 74, 0
6, 66810, Note_on_c, 4, 76, 110
6, 66840, Note_on_c, 4, 76, 0
6, 66840, Note_on_c, 4, 74, 110
6, 66870, Note_on_c, 4, 74, 0
6, 66870, Note_on_c, 4, 72, 110
6, 66900, Note_on_c, 4, 72, 0
6, 66900, Note_on_c, 4, 71, 110
6, 66930, Note_on_c, 4, 71, 0
6, 66930, Note_on_c, 4, 69, 110
6, 66960, Note_on_c, 4, 69, 0
6, 66960, Note_on_c, 4, 67, 110
6, 66990, Note_on_c, 4, 67, 0
6, 66990, Note_on_c, 4, 74, 110
6, 67020, Note_on_c, 4, 74, 0
6, 67020, Note_on_c, 4, 74, 110
6, 67050, Note_on_c, 4, 74, 0
6, 67050, Note_on_c, 4, 74, 110
6, 67080, Note_on_c, 4, 74, 0
6, 67080, Note_on_c, 4, 74, 110
6, 67110, Note_on_c, 4, 74, 0
6, 67140, Note_on_c, 4, 74, 110
6, 67170, Note_on_c, 4, 74, 0
6, 67200, Note_on_c, 4, 74, 110
6, 67230, Note_on_c, 4, 74, 0
6, 67260, Note_on_c, 4, 74, 110
6, 67290, Note_on_c, 4, 74, 0
6, 67320, Note_on_c, 4, 74, 110
6, 67350, Note_on_c, 4, 74, 0
6, 67350, Note_on_c, 4, 72, 110
6, 67380, Note_on_c, 4, 72, 0
6, 67380, Note_on_c, 4, 71, 110
6, 67410, Note_on_c, 4, 71, 0
6, 67410, Note_on_c, 4, 72, 110
6, 67440, Note_on_c, 4, 72, 0
6, 67440, Note_on_c, 4, 71, 110
6, 67470, Note_on_c, 4, 71, 0
6, 67470, Note_on_c, 4, 69, 110
6, 67500, Note_on_c, 4, 69, 0
6, 67500, Note_on_c, 4, 67, 110
6, 67530, Note_on_c, 4, 67, 0
6, 67530, Note_on_c, 4, 69, 110
6, 67560, Note_on_c, 4, 69, 0
6, 67560, Note_on_c, 4, 67, 110
6, 67590, Note_on_c, 4, 67, 0
6, 67590, Note_on_c, 4, 65, 110
6, 67620, Note_on_c, 4, 65, 0
6, 67620, Note_on_c, 4, 64, 110
6, 67650, Note_on_c, 4, 64, 0
6, 67650, Note_on_c, 4, 62, 110
6, 67680, Note_on_c, 4, 62, 0
6, 67680, Note_on_c, 4, 60, 110
6, 67710, Note_on_c, 4, 60, 0
6, 67710, Note_on_c, 4, 72, 110
6, 67740, Note_on_c, 4, 72, 0
6, 67740, Note_on_c, 4, 71, 110
6, 67770, Note_on_c, 4, 71, 0
6, 67770, Note_on_c, 4, 72, 110
6, 67800, Note_on_c, 4, 72, 0
6, 67800, Note_on_c, 4, 74, 110
6, 67830, Note_on_c, 4, 74, 0
6, 67830, Note_on_c, 4, 72, 110
6, 67860, Note_on_c, 4, 72, 0
6, 67860, Note_on_c, 4, 71, 110
6, 67890, Note_on_c, 4, 71, 0
6, 67890, Note_on_c, 4, 72, 110
6, 67920, Note_on_c, 4, 72, 0
6, 67920, Note_on_c, 4, 74, 110
6, 67950, Note_on_c, 4, 74, 0
6, 67950, Note_on_c, 4, 72, 110
6, 67980, Note_on_c, 4, 72, 0
6, 67980, Note_on_c, 4, 71, 110
6, 68010, Note_on_c, 4, 71, 0
6, 68010, Note_on_c, 4, 72, 110
6, 68040, Note_on_c, 4, 72, 0
6, 68040, Note_on_c, 4, 60, 110
6, 68070, Note_on_c, 4, 60, 0
6, 68070, Note_on_c, 4, 72, 110
6, 68100, Note_on_c, 4, 72, 0
6, 68100, Note_on_c, 4, 71, 110
6, 68130, Note_on_c, 4, 71, 0
6, 68130, Note_on_c, 4, 72, 110
6, 68160, Note_on_c, 4, 72, 0
6, 68160, Note_on_c, 4, 74, 110
6, 68190, Note_on_c, 4, 74, 0
6, 68190, Note_on_c, 4, 72, 110
6, 68220, Note_on_c, 4, 72, 0
6, 68220, Note_on_c, 4, 71, 110
6, 68250, Note_on_c, 4, 71, 0
6, 68250, Note_on_c, 4, 72, 110
6, 68280, Note_on_c, 4, 72, 0
6, 68280, Note_on_c, 4, 74, 110
6, 68310, Note_on_c, 4, 74, 0
6, 68310, Note_on_c, 4, 72, 110
6, 68340, Note_on_c, 4, 72, 0
6, 68340, Note_on_c, 4, 71, 110
6, 68370, Note_on_c, 4, 71, 0
6, 68370, Note_on_c, 4, 72, 110
6, 68400, Note_on_c, 4, 72, 0
6, 68400, Note_on_c, 4, 60, 110
6, 68430, Note_on_c, 4, 60, 0
6, 68430, Note_on_c, 4, 72, 110
6, 68460, Note_on_c, 4, 72, 0
6, 68460, Note_on_c, 4, 71, 110
6, 68490, Note_on_c, 4, 71, 0
6, 68490, Note_on_c, 4, 72, 110
6, 68520, Note_on_c, 4, 72, 0
6, 68520, Note_on_c, 4, 74, 110
6, 68550, Note_on_c, 4, 74, 0
6, 68550, Note_on_c, 4, 72, 110
6, 68580, Note_on_c, 4, 72, 0
6, 68580, Note_on_c, 4, 71, 110
6, 68610, Note_on_c, 4, 71, 0
6, 68610, Note_on_c, 4, 72, 110
6, 68640, Note_on_c, 4, 72, 0
6, 68640, Note_on_c, 4, 74, 110
6, 68670, Note_on_c, 4, 74, 0
6, 68670, Note_on_c, 4, 72, 110
6, 68700, Note_on_c, 4, 72, 0
6, 68700, Note_on_c, 4, 71, 110
6, 68730, Note_on_c, 4, 71, 0
6, 68730, Note_on_c, 4, 72, 110
6, 68760, Note_on_c, 4, 72, 0
6, 68760, Note_on_c, 4, 72, 110
6, 68790, Note_on_c, 4, 72, 0
6, 68820, Note_on_c, 4, 71, 110
6, 68850, Note_on_c, 4, 71, 0
6, 68880, Note_on_c, 4, 69, 110
6, 68910, Note_on_c, 4, 69, 0
6, 68940, Note_on_c, 4, 67, 110
6, 68970, Note_on_c, 4, 67, 0
6, 69000, Note_on_c, 4, 65, 110
6, 69030, Note_on_c, 4, 65, 0
6, 69060, Note_on_c, 4, 64, 110
6, 69090, Note_on_c, 4, 64, 0
6, 69120, Note_on_c, 4, 62, 110
6, 69120, Note_on_c, 4, 71, 110
6, 69240, Note_on_c, 4, 71, 0
6, 69240, Note_on_c, 4, 62, 0
6, 69240, Note_on_c, 4, 55, 110
6, 69360, Note_on_c, 4, 55, 0
6, 69480, Note_on_c, 4, 64, 70
6, 69540, Note_on_c, 4, 64, 0
6, 69600, Note_on_c, 4, 64, 70
6, 69660, Note_on_c, 4, 64, 0
6, 69720, Note_on_c, 4, 64, 70
6, 69780, Note_on_c, 4, 64, 0
6, 69840, Note_on_c, 4, 65, 70
6, 70020, Note_on_c, 4, 65, 0
6, 70020, Note_on_c, 4, 67, 70
6, 70080, Note_on_c, 4, 67, 0
6, 70080, Note_on_c, 4, 69, 70
6, 70200, Note_on_c, 4, 69, 0
6, 70200, Note_on_c, 4, 59, 70
6, 70215, Note_on_c, 4, 59, 0
6, 70215, Note_on_c, 4, 60, 70
6, 70230, Note_on_c, 4, 60, 0
6, 70230, Note_on_c, 4, 62, 70
6, 70320, Note_on_c, 4, 62, 0
6, 70560, Note_on_c, 4, 60, 70
6, 70575, Note_on_c, 4, 60, 0
6, 70575, Note_on_c, 4, 62, 70
6, 70590, Note_on_c, 4, 62, 0
6, 70590, Note_on_c, 4, 64, 70
6, 70680, Note_on_c, 4, 64, 0
6, 70920, Note_on_c, 4, 64, 70
6, 70980, Note_on_c, 4, 64, 0
6, 71040, Note_on_c, 4, 64, 70
6, 71100, Note_on_c, 4, 64, 0
6, 71160, Note_on_c, 4, 64, 70
6, 71220, Note_on_c, 4, 64, 0
6, 71280, Note_on_c, 4, 65, 70
6, 71370, Note_on_c, 4, 65, 0
6, 71370, Note_on_c, 4, 67, 70
6, 71400, Note_on_c, 4, 67, 0
6, 71400, Note_on_c, 4, 69, 70
6, 71460, Note_on_c, 4, 69, 0
6, 71460, Note_on_c, 4, 67, 70
6, 71490, Note_on_c, 4, 67, 0
6, 71520, Note_on_c, 4, 65, 70
6, 71550, Note_on_c, 4, 65, 0
6, 71580, Note_on_c, 4, 64, 70
6, 71610, Note_on_c, 4, 64, 0
6, 71610, Note_on_c, 4, 64, 70
6, 71640, Note_on_c, 4, 64, 0
6, 71640, Note_on_c, 4, 62, 70
6, 71760, Note_on_c, 4, 62, 0
6, 71760, Note_on_c, 4, 60, 70
6, 71880, Note_on_c, 4, 60, 0
6, 71880, Note_on_c, 4, 59, 70
6, 72000, Note_on_c, 4, 59, 0
6, 72000, Note_on_c, 4, 59, 70
6, 72240, Note_on_c, 4, 59, 0
6, 72240, Note_on_c, 4, 60, 70
6, 72360, Note_on_c, 4, 60, 0
6, 73200, Note_on_c, 4, 62, 70
6, 73230, Note_on_c, 4, 62, 0
6, 73230, Note_on_c, 4, 64, 70
6, 73260, Note_on_c, 4, 64, 0
6, 73260, Note_on_c, 4, 62, 70
6, 73290, Note_on_c, 4, 62, 0
6, 73290, Note_on_c, 4, 64, 70
6, 73320, Note_on_c, 4, 64, 0
6, 73320, Note_on_c, 4, 65, 70
6, 73440, Note_on_c, 4, 65, 0
6, 73560, Note_on_c, 4, 64, 70
6, 73590, Note_on_c, 4, 64, 0
6, 73590, Note_on_c, 4, 65, 70
6, 73620, Note_on_c, 4, 65, 0
6, 73620, Note_on_c, 4, 64, 70
6, 73650, Note_on_c, 4, 64, 0
6, 73650, Note_on_c, 4, 65, 70
6, 73680, Note_on_c, 4, 65, 0
6, 73680, Note_on_c, 4, 67, 70
6, 73800, Note_on_c, 4, 67, 0
6, 74880, Note_on_c, 4, 67, 110
6, 74910, Note_on_c, 4, 67, 0
6, 74910, Note_on_c, 4, 67, 110
6, 74940, Note_on_c, 4, 67, 0
6, 74940, Note_on_c, 4, 66, 110
6, 74970, Note_on_c, 4, 66, 0
6, 74970, Note_on_c, 4, 66, 110
6, 75000, Note_on_c, 4, 66, 0
6, 75000, Note_on_c, 4, 67, 110
6, 75030, Note_on_c, 4, 67, 0
6, 75030, Note_on_c, 4, 67, 110
6, 75060, Note_on_c, 4, 67, 0
6, 75060, Note_on_c, 4, 66, 110
6, 75090, Note_on_c, 4, 66, 0
6, 75090, Note_on_c, 4, 66, 110
6, 75120, Note_on_c, 4, 66, 0
6, 75120, Note_on_c, 4, 67, 110
6, 75150, Note_on_c, 4, 67, 0
6, 75150, Note_on_c, 4, 67, 110
6, 75180, Note_on_c, 4, 67, 0
6, 75180, Note_on_c, 4, 66, 110
6, 75210, Note_on_c, 4, 66, 0
6, 75210, Note_on_c, 4, 66, 110
6, 75240, Note_on_c, 4, 66, 0
6, 75240, Note_on_c, 4, 67, 110
6, 75270, Note_on_c, 4, 67, 0
6, 75270, Note_on_c, 4, 67, 110
6, 75300, Note_on_c, 4, 67, 0
6, 75300, Note_on_c, 4, 66, 110
6, 75330, Note_on_c, 4, 66, 0
6, 75330, Note_on_c, 4, 66, 110
6, 75360, Note_on_c, 4, 66, 0
6, 75360, Note_on_c, 4, 67, 110
6, 75390, Note_on_c, 4, 67, 0
6, 75390, Note_on_c, 4, 67, 110
6, 75420, Note_on_c, 4, 67, 0
6, 75420, Note_on_c, 4, 66, 110
6, 75450, Note_on_c, 4, 66, 0
6, 75450, Note_on_c, 4, 66, 110
6, 75480, Note_on_c, 4, 66, 0
6, 75480, Note_on_c, 4, 67, 110
6, 75510, Note_on_c, 4, 67, 0
6, 75510, Note_on_c, 4, 67, 110
6, 75540, Note_on_c, 4, 67, 0
6, 75540, Note_on_c, 4, 62, 110
6, 75570, Note_on_c, 4, 62, 0
6, 75570, Note_on_c, 4, 62, 110
6, 75600, Note_on_c, 4, 62, 0
6, 75600, Note_on_c, 4, 72, 110
6, 75630, Note_on_c, 4, 72, 0
6, 75630, Note_on_c, 4, 72, 110
6, 75660, Note_on_c, 4, 72, 0
6, 75660, Note_on_c, 4, 71, 110
6, 75690, Note_on_c, 4, 71, 0
6, 75690, Note_on_c, 4, 71, 110
6, 75720, Note_on_c, 4, 71, 0
6, 75720, Note_on_c, 4, 72, 110
6, 75750, Note_on_c, 4, 72, 0
6, 75750, Note_on_c, 4, 72, 110
6, 75780, Note_on_c, 4, 72, 0
6, 75780, Note_on_c, 4, 71, 110
6, 75810, Note_on_c, 4, 71, 0
6, 75810, Note_on_c, 4, 71, 110
6, 75840, Note_on_c, 4, 71, 0
6, 75840, Note_on_c, 4, 72, 110
6, 75870, Note_on_c, 4, 72, 0
6, 75870, Note_on_c, 4, 72, 110
6, 75900, Note_on_c, 4, 72, 0
6, 75900, Note_on_c, 4, 71, 110
6, 75930, Note_on_c, 4, 71, 0
6, 75930, Note_on_c, 4, 71, 110
6, 75960, Note_on_c, 4, 71, 0
6, 75960, Note_on_c, 4, 67, 110
6, 75990, Note_on_c, 4, 67, 0
6, 75990, Note_on_c, 4, 67, 110
6, 76020, Note_on_c, 4, 67, 0
6, 76020, Note_on_c, 4, 65, 110
6, 76050, Note_on_c, 4, 65, 0
6, 76050, Note_on_c, 4, 65, 110
6, 76080, Note_on_c, 4, 65, 0
6, 76080, Note_on_c, 4, 64, 110
6, 76110, Note_on_c, 4, 64, 0
6, 76110, Note_on_c, 4, 64, 110
6, 76140, Note_on_c, 4, 64, 0
6, 76140, Note_on_c, 4, 65, 110
6, 76170, Note_on_c, 4, 65, 0
6, 76170, Note_on_c, 4, 65, 110
6, 76200, Note_on_c, 4, 65, 0
6, 76200, Note_on_c, 4, 67, 110
6, 76230, Note_on_c, 4, 67, 0
6, 76230, Note_on_c, 4, 67, 110
6, 76260, Note_on_c, 4, 67, 0
6, 76260, Note_on_c, 4, 72, 110
6, 76290, Note_on_c, 4, 72, 0
6, 76290, Note_on_c, 4, 72, 110
6, 76320, Note_on_c, 4, 72, 0
6, 76320, Note_on_c, 4, 72, 110
6, 76350, Note_on_c, 4, 72, 0
6, 76380, Note_on_c, 4, 72, 110
6, 76410, Note_on_c, 4, 72, 0
6, 76440, Note_on_c, 4, 71, 110
6, 76470, Note_on_c, 4, 71, 0
6, 76500, Note_on_c, 4, 71, 110
6, 76530, Note_on_c, 4, 71, 0
6, 76560, Note_on_c, 4, 69, 110
6, 76590, Note_on_c, 4, 69, 0
6, 76620, Note_on_c, 4, 69, 110
6, 76650, Note_on_c, 4, 69, 0
6, 76680, Note_on_c, 4, 67, 110
6, 76770, Note_on_c, 4, 76, 110
6, 76800, Note_on_c, 4, 76, 0
6, 76800, Note_on_c, 4, 67, 0
6, 76800, Note_on_c, 4, 74, 110
6, 76860, Note_on_c, 4, 74, 0
6, 76860, Note_on_c, 4, 72, 110
6, 76890, Note_on_c, 4, 72, 0
6, 76890, Note_on_c, 4, 71, 110
6, 76920, Note_on_c, 4, 71, 0
6, 76920, Note_on_c, 4, 72, 110
6, 76950, Note_on_c, 4, 72, 0
6, 76950, Note_on_c, 4, 76, 110
6, 76980, Note_on_c, 4, 76, 0
6, 76980, Note_on_c, 4, 79, 110
6, 77010, Note_on_c, 4, 79, 0
6, 77010, Note_on_c, 4, 76, 110
6, 77040, Note_on_c, 4, 76, 0
6, 77040, Note_on_c, 4, 81, 110
6, 77130, Note_on_c, 4, 81, 0
6, 77130, Note_on_c, 4, 77, 110
6, 77160, Note_on_c, 4, 77, 0
6, 77160, Note_on_c, 4, 76, 110
6, 77280, Note_on_c, 4, 76, 0
6, 77280, Note_on_c, 4, 77, 110
6, 77400, Note_on_c, 4, 77, 0
6, 77400, Note_on_c, 4, 76, 110
6, 77460, Note_on_c, 4, 76, 0
6, 77520, Note_on_c, 4, 73, 110
6, 77520, Note_on_c, 4, 76, 110
6, 77580, Note_on_c, 4, 76, 0
6, 77580, Note_on_c, 4, 73, 0
6, 77640, Note_on_c, 4, 62, 110
6, 77640, Note_on_c, 4, 74, 110
6, 77700, Note_on_c, 4, 74, 0
6, 77700, Note_on_c, 4, 62, 0
6, 77760, Note_on_c, 4, 69, 110
6, 77760, Note_on_c, 4, 76, 110
6, 77880, Note_on_c, 4, 76, 0
6, 77880, Note_on_c, 4, 69, 0
6, 77880, Note_on_c, 4, 62, 110
6, 77880, Note_on_c, 4, 74, 110
6, 78000, Note_on_c, 4, 74, 0
6, 78000, Note_on_c, 4, 62, 0
6, 78240, Note_on_c, 4, 57, 70
6, 78360, Note_on_c, 4, 57, 0
6, 78360, Note_on_c, 4, 56, 70
6, 78480, Note_on_c, 4, 56, 0
6, 78480, Note_on_c, 4, 55, 70
6, 78600, Note_on_c, 4, 55, 0
6, 78600, Note_on_c, 4, 59, 70
6, 78720, Note_on_c, 4, 59, 0
6, 78720, Note_on_c, 4, 60, 70
6, 78840, Note_on_c, 4, 60, 0
6, 78840, Note_on_c, 4, 60, 70
6, 78930, Note_on_c, 4, 60, 0
6, 78930, Note_on_c, 4, 65, 70
6, 78960, Note_on_c, 4, 65, 0
6, 78960, Note_on_c, 4, 64, 70
6, 79080, Note_on_c, 4, 64, 0
6, 79080, Note_on_c, 4, 62, 70
6, 79200, Note_on_c, 4, 62, 0
6, 79200, Note_on_c, 4, 64, 110
6, 79230, Note_on_c, 4, 64, 0
6, 79230, Note_on_c, 4, 60, 110
6, 79260, Note_on_c, 4, 60, 0
6, 79260, Note_on_c, 4, 64, 110
6, 79290, Note_on_c, 4, 64, 0
6, 79290, Note_on_c, 4, 67, 110
6, 79320, Note_on_c, 4, 67, 0
6, 79320, Note_on_c, 4, 64, 110
6, 79350, Note_on_c, 4, 64, 0
6, 79350, Note_on_c, 4, 67, 110
6, 79380, Note_on_c, 4, 67, 0
6, 79380, Note_on_c, 4, 72, 110
6, 79410, Note_on_c, 4, 72, 0
6, 79410, Note_on_c, 4, 76, 110
6, 79440, Note_on_c, 4, 76, 0
6, 79440, Note_on_c, 4, 74, 110
6, 79500, Note_on_c, 4, 74, 0
6, 79500, Note_on_c, 4, 72, 110
6, 79530, Note_on_c, 4, 72, 0
6, 79530, Note_on_c, 4, 71, 110
6, 79560, Note_on_c, 4, 71, 0
6, 79560, Note_on_c, 4, 72, 110
6, 79590, Note_on_c, 4, 72, 0
6, 79590, Note_on_c, 4, 67, 110
6, 79620, Note_on_c, 4, 67, 0
6, 79620, Note_on_c, 4, 64, 110
6, 79650, Note_on_c, 4, 64, 0
6, 79650, Note_on_c, 4, 60, 110
6, 79680, Note_on_c, 4, 60, 0
6, 79680, Note_on_c, 4, 67, 110
6, 79710, Note_on_c, 4, 67, 0
6, 79710, Note_on_c, 4, 64, 110
6, 79740, Note_on_c, 4, 64, 0
6, 79740, Note_on_c, 4, 60, 110
6, 79770, Note_on_c, 4, 60, 0
6, 79770, Note_on_c, 4, 67, 110
6, 79770, Note_on_c, 4, 55, 110
6, 79800, Note_on_c, 4, 55, 0
6, 79800, Note_on_c, 4, 67, 0
6, 79800, Note_on_c, 4, 65, 110
6, 79860, Note_on_c, 4, 65, 0
6, 79860, Note_on_c, 4, 64, 110
6, 79890, Note_on_c, 4, 64, 0
6, 79890, Note_on_c, 4, 62, 110
6, 79920, Note_on_c, 4, 62, 0
6, 79920, Note_on_c, 4, 64, 110
6, 79950, Note_on_c, 4, 64, 0
6, 79950, Note_on_c, 4, 60, 110
6, 79980, Note_on_c, 4, 60, 0
6, 79980, Note_on_c, 4, 64, 110
6, 80010, Note_on_c, 4, 64, 0
6, 80010, Note_on_c, 4, 67, 110
6, 80040, Note_on_c, 4, 67, 0
6, 80040, Note_on_c, 4, 64, 110
6, 80070, Note_on_c, 4, 64, 0
6, 80070, Note_on_c, 4, 67, 110
6, 80100, Note_on_c, 4, 67, 0
6, 80100, Note_on_c, 4, 72, 110
6, 80130, Note_on_c, 4, 72, 0
6, 80130, Note_on_c, 4, 76, 110
6, 80160, Note_on_c, 4, 76, 0
6, 80160, Note_on_c, 4, 74, 110
6, 80220, Note_on_c, 4, 74, 0
6, 80220, Note_on_c, 4, 72, 110
6, 80250, Note_on_c, 4, 72, 0
6, 80250, Note_on_c, 4, 71, 110
6, 80280, Note_on_c, 4, 71, 0
6, 80280, Note_on_c, 4, 72, 110
6, 80310, Note_on_c, 4, 72, 0
6, 80310, Note_on_c, 4, 67, 110
6, 80340, Note_on_c, 4, 67, 0
6, 80340, Note_on_c, 4, 64, 110
6, 80370, Note_on_c, 4, 64, 0
6, 80370, Note_on_c, 4, 60, 110
6, 80400, Note_on_c, 4, 60, 0
6, 80400, Note_on_c, 4, 67, 110
6, 80430, Note_on_c, 4, 67, 0
6, 80430, Note_on_c, 4, 64, 110
6, 80460, Note_on_c, 4, 64, 0
6, 80460, Note_on_c, 4, 60, 110
6, 80490, Note_on_c, 4, 60, 0
6, 80490, Note_on_c, 4, 67, 110
6, 80490, Note_on_c, 4, 55, 110
6, 80520, Note_on_c, 4, 55, 0
6, 80520, Note_on_c, 4, 67, 0
6, 80520, Note_on_c, 4, 65, 110
6, 80580, Note_on_c, 4, 65, 0
6, 80580, Note_on_c, 4, 64, 110
6, 80610, Note_on_c, 4, 64, 0
6, 80610, Note_on_c, 4, 62, 110
6, 80640, Note_on_c, 4, 62, 0
6, 80640, Note_on_c, 4, 64, 110
6, 80670, Note_on_c, 4, 64, 0
6, 80670, Note_on_c, 4, 67, 110
6, 80700, Note_on_c, 4, 67, 0
6, 80700, Note_on_c, 4, 67, 110
6, 80730, Note_on_c, 4, 67, 0
6, 80730, Note_on_c, 4, 67, 110
6, 80760, Note_on_c, 4, 67, 0
6, 80760, Note_on_c, 4, 60, 110
6, 80790, Note_on_c, 4, 60, 0
6, 80790, Note_on_c, 4, 67, 110
6, 80820, Note_on_c, 4, 67, 0
6, 80820, Note_on_c, 4, 67, 110
6, 80850, Note_on_c, 4, 67, 0
6, 80850, Note_on_c, 4, 67, 110
6, 80880, Note_on_c, 4, 67, 0
6, 80880, Note_on_c, 4, 62, 110
6, 80910, Note_on_c, 4, 62, 0
6, 80910, Note_on_c, 4, 67, 110
6, 80940, Note_on_c, 4, 67, 0
6, 80940, Note_on_c, 4, 67, 110
6, 80970, Note_on_c, 4, 67, 0
6, 80970, Note_on_c, 4, 67, 110
6, 81000, Note_on_c, 4, 67, 0
6, 81000, Note_on_c, 4, 64, 110
6, 81030, Note_on_c, 4, 64, 0
6, 81030, Note_on_c, 4, 67, 110
6, 81060, Note_on_c, 4, 67, 0
6, 81060, Note_on_c, 4, 67, 110
6, 81090, Note_on_c, 4, 67, 0
6, 81090, Note_on_c, 4, 67, 110
6, 81120, Note_on_c, 4, 67, 0
6, 81120, Note_on_c, 4, 60, 110
6, 81150, Note_on_c, 4, 60, 0
6, 81150, Note_on_c, 4, 67, 110
6, 81180, Note_on_c, 4, 67, 0
6, 81180, Note_on_c, 4, 67, 110
6, 81210, Note_on_c, 4, 67, 0
6, 81210, Note_on_c, 4, 67, 110
6, 81240, Note_on_c, 4, 67, 0
6, 81240, Note_on_c, 4, 62, 110
6, 81270, Note_on_c, 4, 62, 0
6, 81270, Note_on_c, 4, 67, 110
6, 81300, Note_on_c, 4, 67, 0
6, 81300, Note_on_c, 4, 67, 110
6, 81330, Note_on_c, 4, 67, 0
6, 81330, Note_on_c, 4, 67, 110
6, 81360, Note_on_c, 4, 67, 0
6, 81360, Note_on_c, 4, 55, 110
6, 81360, Note_on_c, 4, 64, 110
6, 81360, Note_on_c, 4, 72, 110
6, 81480, Note_on_c, 4, 72, 0
6, 81480, Note_on_c, 4, 64, 0
6, 81480, Note_on_c, 4, 55, 0
6, 81480, Note_on_c, 4, 67, 110
6, 81600, Note_on_c, 4, 67, 0
6, 81720, Note_on_c, 4, 64, 110
6, 81840, Note_on_c, 4, 64, 0
6, 81840, Note_on_c, 4, 60, 110
6, 81960, Note_on_c, 4, 60, 0
6, 82800, Note_on_c, 4, 67, 70
6, 82815, Note_on_c, 4, 67, 0
6, 82815, Note_on_c, 4, 69, 70
6, 82830, Note_on_c, 4, 69, 0
6, 82830, Note_on_c, 4, 67, 70
6, 82845, Note_on_c, 4, 67, 0
6, 82845, Note_on_c, 4, 69, 70
6, 82860, Note_on_c, 4, 69, 0
6, 82860, Note_on_c, 4, 67, 70
6, 82875, Note_on_c, 4, 67, 0
6, 82875, Note_on_c, 4, 69, 70
6, 82890, Note_on_c, 4, 69, 0
6, 82890, Note_on_c, 4, 65, 70
6, 82905, Note_on_c, 4, 65, 0
6, 82905, Note_on_c, 4, 67, 70
6, 82920, Note_on_c, 4, 67, 0
6, 82920, Note_on_c, 4, 69, 70
6, 82980, Note_on_c, 4, 69, 0
6, 82980, Note_on_c, 4, 67, 70
6, 83010, Note_on_c, 4, 67, 0
6, 83040, Note_on_c, 4, 65, 70
6, 83070, Note_on_c, 4, 65, 0
6, 83100, Note_on_c, 4, 64, 70
6, 83130, Note_on_c, 4, 64, 0
6, 83160, Note_on_c, 4, 65, 70
6, 83175, Note_on_c, 4, 65, 0
6, 83175, Note_on_c, 4, 67, 70
6, 83190, Note_on_c, 4, 67, 0
6, 83190, Note_on_c, 4, 65, 70
6, 83205, Note_on_c, 4, 65, 0
6, 83205, Note_on_c, 4, 67, 70
6, 83220, Note_on_c, 4, 67, 0
6, 83220, Note_on_c, 4, 65, 70
6, 83235, Note_on_c, 4, 65, 0
6, 83235, Note_on_c, 4, 67, 70
6, 83250, Note_on_c, 4, 67, 0
6, 83250, Note_on_c, 4, 64, 70
6, 83265, Note_on_c, 4, 64, 0
6, 83265, Note_on_c, 4, 65, 70
6, 83280, Note_on_c, 4, 65, 0
6, 83280, Note_on_c, 4, 67, 70
6, 83340, Note_on_c, 4, 67, 0
6, 83340, Note_on_c, 4, 65, 70
6, 83370, Note_on_c, 4, 65, 0
6, 83400, Note_on_c, 4, 64, 70
6, 83430, Note_on_c, 4, 64, 0
6, 83460, Note_on_c, 4, 62, 70
6, 83490, Note_on_c, 4, 62, 0
6, 83520, Note_on_c, 4, 55, 110
6, 83520, Note_on_c, 4, 64, 110
6, 83520, Note_on_c, 4, 72, 110
6, 83640, Note_on_c, 4, 72, 0
6, 83640, Note_on_c, 4, 64, 0
6, 83640, Note_on_c, 4, 55, 0
6, 83880, Note_on_c, 4, 67, 110
6, 83880, Note_on_c, 4, 72, 110
6, 83880, Note_on_c, 4, 76, 110
6, 84000, Note_on_c, 4, 76, 0
6, 84000, Note_on_c, 4, 72, 0
6, 84000, Note_on_c, 4, 67, 0
6, 84240, Note_on_c, 4, 65, 110
6, 84240, Note_on_c, 4, 72, 110
6, 84240, Note_on_c, 4, 77, 110
6, 84360, Note_on_c, 4, 77, 0
6, 84360, Note_on_c, 4, 72, 0
6, 84360, Note_on_c, 4, 65, 0
6, 84600, Note_on_c, 4, 82, 110
6, 84600, Note_on_c, 4, 72, 110
6, 84600, Note_on_c, 4, 64, 110
6, 84600, Note_on_c, 4, 55, 110
6, 84720, Note_on_c, 4, 55, 0
6, 84720, Note_on_c, 4, 82, 0
6, 84720, Note_on_c, 4, 72, 0
6, 84720, Note_on_c, 4, 64, 0
6, 84960, Note_on_c, 4, 72, 110
6, 85020, Note_on_c, 4, 72, 0
6, 85020, Note_on_c, 4, 60, 70
6, 85050, Note_on_c, 4, 60, 0
6, 85080, Note_on_c, 4, 60, 70
6, 85110, Note_on_c, 4, 60, 0
6, 85140, Note_on_c, 4, 60, 70
6, 85170, Note_on_c, 4, 60, 0
6, 85200, Note_on_c, 4, 60, 70
6, 85215, Note_on_c, 4, 60, 0
6, 85215, Note_on_c, 4, 62, 70
6, 85230, Note_on_c, 4, 62, 0
6, 85230, Note_on_c, 4, 60, 70
6, 85245, Note_on_c, 4, 60, 0
6, 85245, Note_on_c, 4, 62, 70
6, 85260, Note_on_c, 4, 62, 0
6, 85260, Note_on_c, 4, 60, 70
6, 85275, Note_on_c, 4, 60, 0
6, 85275, Note_on_c, 4, 62, 70
6, 85290, Note_on_c, 4, 62, 0
6, 85290, Note_on_c, 4, 59, 70
6, 85305, Note_on_c, 4, 59, 0
6, 85305, Note_on_c, 4, 60, 70
6, 85320, Note_on_c, 4, 60, 0
6, 85320, Note_on_c, 4, 59, 70
6, 85380, Note_on_c, 4, 59, 0
6, 85380, Note_on_c, 4, 58, 70
6, 85410, Note_on_c, 4, 58, 0
6, 85440, Note_on_c, 4, 58, 70
6, 85470, Note_on_c, 4, 58, 0
6, 85500, Note_on_c, 4, 58, 70
6, 85530, Note_on_c, 4, 58, 0
6, 85560, Note_on_c, 4, 58, 70
6, 85575, Note_on_c, 4, 58, 0
6, 85575, Note_on_c, 4, 60, 70
6, 85590, Note_on_c, 4, 60, 0
6, 85590, Note_on_c, 4, 58, 70
6, 85605, Note_on_c, 4, 58, 0
6, 85605, Note_on_c, 4, 60, 70
6, 85620, Note_on_c, 4, 60, 0
6, 85620, Note_on_c, 4, 58, 70
6, 85635, Note_on_c, 4, 58, 0
6, 85635, Note_on_c, 4, 60, 70
6, 85650, Note_on_c, 4, 60, 0
6, 85650, Note_on_c, 4, 57, 70
6, 85665, Note_on_c, 4, 57, 0
6, 85665, Note_on_c, 4, 58, 70
6, 85680, Note_on_c, 4, 58, 0
6, 85680, Note_on_c, 4, 57, 70
6, 85740, Note_on_c, 4, 57, 0
6, 85740, Note_on_c, 4, 60, 70
6, 85770, Note_on_c, 4, 60, 0
6, 85800, Note_on_c, 4, 60, 70
6, 85830, Note_on_c, 4, 60, 0
6, 85860, Note_on_c, 4, 60, 70
6, 85890, Note_on_c, 4, 60, 0
6, 85920, Note_on_c, 4, 60, 70
6, 85935, Note_on_c, 4, 60, 0
6, 85935, Note_on_c, 4, 62, 70
6, 85950, Note_on_c, 4, 62, 0
6, 85950, Note_on_c, 4, 60, 70
6, 85965, Note_on_c, 4, 60, 0
6, 85965, Note_on_c, 4, 62, 70
6, 85980, Note_on_c, 4, 62, 0
6, 85980, Note_on_c, 4, 60, 70
6, 85995, Note_on_c, 4, 60, 0
6, 85995, Note_on_c, 4, 62, 70
6, 86010, Note_on_c, 4, 62, 0
6, 86010, Note_on_c, 4, 59, 70
6, 86025, Note_on_c, 4, 59, 0
6, 86025, Note_on_c, 4, 60, 70
6, 86040, Note_on_c, 4, 60, 0
6, 86040, Note_on_c, 4, 59, 70
6, 86100, Note_on_c, 4, 59, 0
6, 86100, Note_on_c, 4, 58, 70
6, 86130, Note_on_c, 4, 58, 0
6, 86160, Note_on_c, 4, 58, 70
6, 86190, Note_on_c, 4, 58, 0
6, 86220, Note_on_c, 4, 58, 70
6, 86250, Note_on_c, 4, 58, 0
6, 86280, Note_on_c, 4, 58, 70
6, 86295, Note_on_c, 4, 58, 0
6, 86295, Note_on_c, 4, 60, 70
6, 86310, Note_on_c, 4, 60, 0
6, 86310, Note_on_c, 4, 58, 70
6, 86325, Note_on_c, 4, 58, 0
6, 86325, Note_on_c, 4, 60, 70
6, 86340, Note_on_c, 4, 60, 0
6, 86340, Note_on_c, 4, 58, 70
6, 86355, Note_on_c, 4, 58, 0
6, 86355, Note_on_c, 4, 60, 70
6, 86370, Note_on_c, 4, 60, 0
6, 86370, Note_on_c, 4, 57, 70
6, 86385, Note_on_c, 4, 57, 0
6, 86385, Note_on_c, 4, 58, 70
6, 86400, Note_on_c, 4, 58, 0
6, 86400, Note_on_c, 4, 57, 70
6, 86460, Note_on_c, 4, 57, 0
6, 86460, Note_on_c, 4, 69, 70
6, 86490, Note_on_c, 4, 69, 0
6, 86520, Note_on_c, 4, 69, 70
6, 86550, Note_on_c, 4, 69, 0
6, 86580, Note_on_c, 4, 69, 70
6, 86610, Note_on_c, 4, 69, 0
6, 86640, Note_on_c, 4, 69, 70
6, 86655, Note_on_c, 4, 69, 0
6, 86655, Note_on_c, 4, 71, 70
6, 86670, Note_on_c, 4, 71, 0
6, 86670, Note_on_c, 4, 69, 70
6, 86685, Note_on_c, 4, 69, 0
6, 86685, Note_on_c, 4, 71, 70
6, 86700, Note_on_c, 4, 71, 0
6, 86700, Note_on_c, 4, 69, 70
6, 86715, Note_on_c, 4, 69, 0
6, 86715, Note_on_c, 4, 71, 70
6, 86730, Note_on_c, 4, 71, 0
6, 86730, Note_on_c, 4, 67, 70
6, 86745, Note_on_c, 4, 67, 0
6, 86745, Note_on_c, 4, 69, 70
6, 86760, Note_on_c, 4, 69, 0
6, 86760, Note_on_c, 4, 67, 70
6, 86820, Note_on_c, 4, 67, 0
6, 86820, Note_on_c, 4, 60, 70
6, 86850, Note_on_c, 4, 60, 0
6, 86880, Note_on_c, 4, 60, 70
6, 86910, Note_on_c, 4, 60, 0
6, 86940, Note_on_c, 4, 60, 70
6, 86970, Note_on_c, 4, 60, 0
6, 87000, Note_on_c, 4, 60, 70
6, 87015, Note_on_c, 4, 60, 0
6, 87015, Note_on_c, 4, 62, 70
6, 87030, Note_on_c, 4, 62, 0
6, 87030, Note_on_c, 4, 60, 70
6, 87045, Note_on_c, 4, 60, 0
6, 87045, Note_on_c, 4, 62, 70
6, 87060, Note_on_c, 4, 62, 0
6, 87060, Note_on_c, 4, 60, 70
6, 87075, Note_on_c, 4, 60, 0
6, 87075, Note_on_c, 4, 62, 70
6, 87090, Note_on_c, 4, 62, 0
6, 87090, Note_on_c, 4, 59, 70
6, 87105, Note_on_c, 4, 59, 0
6, 87105, Note_on_c, 4, 60, 70
6, 87120, Note_on_c, 4, 60, 0
6, 87120, Note_on_c, 4, 59, 70
6, 87180, Note_on_c, 4, 59, 0
6, 87180, Note_on_c, 4, 65, 70
6, 87240, Note_on_c, 4, 65, 0
6, 87240, Note_on_c, 4, 65, 70
6, 87300, Note_on_c, 4, 65, 0
6, 87300, Note_on_c, 4, 65, 70
6, 87360, Note_on_c, 4, 65, 0
6, 87360, Note_on_c, 4, 65, 70
6, 87420, Note_on_c, 4, 65, 0
6, 87420, Note_on_c, 4, 65, 70
6, 87480, Note_on_c, 4, 65, 0
6, 87480, Note_on_c, 4, 63, 70
6, 87510, Note_on_c, 4, 63, 0
6, 87510, Note_on_c, 4, 64, 70
6, 87600, Note_on_c, 4, 64, 0
6, 87600, Note_on_c, 4, 64, 70
6, 87630, Note_on_c, 4, 64, 0
6, 87660, Note_on_c, 4, 64, 70
6, 87690, Note_on_c, 4, 64, 0
6, 87720, Note_on_c, 4, 64, 70
6, 87750, Note_on_c, 4, 64, 0
6, 87780, Note_on_c, 4, 64, 70
6, 87810, Note_on_c, 4, 64, 0
6, 87870, Note_on_c, 4, 64, 70
6, 87900, Note_on_c, 4, 64, 0
6, 87960, Note_on_c, 4, 64, 70
6, 87990, Note_on_c, 4, 64, 0
6, 88020, Note_on_c, 4, 64, 70
6, 88050, Note_on_c, 4, 64, 0
6, 88080, Note_on_c, 4, 64, 70
6, 88095, Note_on_c, 4, 64, 0
6, 88095, Note_on_c, 4, 65, 70
6, 88110, Note_on_c, 4, 65, 0
6, 88110, Note_on_c, 4, 64, 70
6, 88125, Note_on_c, 4, 64, 0
6, 88125, Note_on_c, 4, 65, 70
6, 88140, Note_on_c, 4, 65, 0
6, 88140, Note_on_c, 4, 64, 70
6, 88155, Note_on_c, 4, 64, 0
6, 88155, Note_on_c, 4, 65, 70
6, 88170, Note_on_c, 4, 65, 0
6, 88170, Note_on_c, 4, 62, 70
6, 88185, Note_on_c, 4, 62, 0
6, 88185, Note_on_c, 4, 64, 70
6, 88200, Note_on_c, 4, 64, 0
6, 88200, Note_on_c, 4, 62, 70
6, 88260, Note_on_c, 4, 62, 0
6, 88260, Note_on_c, 4, 67, 70
6, 88290, Note_on_c, 4, 67, 0
6, 88320, Note_on_c, 4, 67, 70
6, 88350, Note_on_c, 4, 67, 0
6, 88380, Note_on_c, 4, 67, 70
6, 88410, Note_on_c, 4, 67, 0
6, 88440, Note_on_c, 4, 67, 70
6, 88455, Note_on_c, 4, 67, 0
6, 88455, Note_on_c, 4, 69, 70
6, 88470, Note_on_c, 4, 69, 0
6, 88470, Note_on_c, 4, 67, 70
6, 88485, Note_on_c, 4, 67, 0
6, 88485, Note_on_c, 4, 69, 70
6, 88500, Note_on_c, 4, 69, 0
6, 88500, Note_on_c, 4, 67, 70
6, 88515, Note_on_c, 4, 67, 0
6, 88515, Note_on_c, 4, 69, 70
6, 88530, Note_on_c, 4, 69, 0
6, 88530, Note_on_c, 4, 66, 70
6, 88545, Note_on_c, 4, 66, 0
6, 88545, Note_on_c, 4, 67, 70
6, 88560, Note_on_c, 4, 67, 0
6, 88560, Note_on_c, 4, 66, 70
6, 88620, Note_on_c, 4, 66, 0
6, 88620, Note_on_c, 4, 60, 70
6, 88650, Note_on_c, 4, 60, 0
6, 88680, Note_on_c, 4, 60, 70
6, 88710, Note_on_c, 4, 60, 0
6, 88740, Note_on_c, 4, 60, 70
6, 88770, Note_on_c, 4, 60, 0
6, 88800, Note_on_c, 4, 60, 70
6, 88815, Note_on_c, 4, 60, 0
6, 88815, Note_on_c, 4, 62, 70
6, 88830, Note_on_c, 4, 62, 0
6, 88830, Note_on_c, 4, 60, 70
6, 88845, Note_on_c, 4, 60, 0
6, 88845, Note_on_c, 4, 62, 70
6, 88860, Note_on_c, 4, 62, 0
6, 88860, Note_on_c, 4, 60, 70
6, 88875, Note_on_c, 4, 60, 0
6, 88875, Note_on_c, 4, 62, 70
6, 88890, Note_on_c, 4, 62, 0
6, 88890, Note_on_c, 4, 59, 70
6, 88905, Note_on_c, 4, 59, 0
6, 88905, Note_on_c, 4, 60, 70
6, 88920, Note_on_c, 4, 60, 0
6, 88920, Note_on_c, 4, 59, 70
6, 89040, Note_on_c, 4, 59, 0
6, 89040, Note_on_c, 4, 67, 70
6, 89160, Note_on_c, 4, 67, 0
6, 89160, Note_on_c, 4, 65, 70
6, 89280, Note_on_c, 4, 65, 0
6, 89280, Note_on_c, 4, 64, 70
6, 89400, Note_on_c, 4, 64, 0
6, 89400, Note_on_c, 4, 62, 70
6, 89520, Note_on_c, 4, 62, 0
6, 89520, Note_on_c, 4, 60, 70
6, 89640, Note_on_c, 4, 60, 0
6, 89640, Note_on_c, 4, 59, 70
6, 89760, Note_on_c, 4, 59, 0
6, 89760, Note_on_c, 4, 67, 70
6, 89880, Note_on_c, 4, 67, 0
6, 89880, Note_on_c, 4, 65, 70
6, 90000, Note_on_c, 4, 65, 0
6, 90000, Note_on_c, 4, 64, 70
6, 90120, Note_on_c, 4, 64, 0
6, 90120, Note_on_c, 4, 62, 70
6, 90240, Note_on_c, 4, 62, 0
6, 90240, Note_on_c, 4, 60, 70
6, 90360, Note_on_c, 4, 60, 0
6, 90360, Note_on_c, 4, 59, 70
6, 90375, Note_on_c, 4, 59, 0
6, 90375, Note_on_c, 4, 60, 70
6, 90390, Note_on_c, 4, 60, 0
6, 90390, Note_on_c, 4, 59, 70
6, 90405, Note_on_c, 4, 59, 0
6, 90405, Note_on_c, 4, 60, 70
6, 90420, Note_on_c, 4, 60, 0
6, 90420, Note_on_c, 4, 59, 70
6, 90435, Note_on_c, 4, 59, 0
6, 90435, Note_on_c, 4, 60, 70
6, 90450, Note_on_c, 4, 60, 0
6, 90450, Note_on_c, 4, 57, 70
6, 90465, Note_on_c, 4, 57, 0
6, 90465, Note_on_c, 4, 59, 70
6, 90480, Note_on_c, 4, 59, 0
6, 90720, Note_on_c, 4, 60, 70
6, 90735, Note_on_c, 4, 60, 0
6, 90735, Note_on_c, 4, 62, 70
6, 90750, Note_on_c, 4, 62, 0
6, 90750, Note_on_c, 4, 60, 70
6, 90765, Note_on_c, 4, 60, 0
6, 90765, Note_on_c, 4, 62, 70
6, 90780, Note_on_c, 4, 62, 0
6, 90780, Note_on_c, 4, 60, 70
6, 90795, Note_on_c, 4, 60, 0
6, 90795, Note_on_c, 4, 62, 70
6, 90810, Note_on_c, 4, 62, 0
6, 90810, Note_on_c, 4, 59, 70
6, 90825, Note_on_c, 4, 59, 0
6, 90825, Note_on_c, 4, 60, 70
6, 90840, Note_on_c, 4, 60, 0
6, 91200, Note_on_c, 4, 74, 70
6, 91230, Note_on_c, 4, 74, 0
6, 91260, Note_on_c, 4, 72, 70
6, 91290, Note_on_c, 4, 72, 0
6, 91320, Note_on_c, 4, 71, 70
6, 91350, Note_on_c, 4, 71, 0
6, 91380, Note_on_c, 4, 69, 70
6, 91410, Note_on_c, 4, 69, 0
6, 91440, Note_on_c, 4, 67, 70
6, 91470, Note_on_c, 4, 67, 0
6, 91500, Note_on_c, 4, 65, 70
6, 91530, Note_on_c, 4, 65, 0
6, 91560, Note_on_c, 4, 64, 70
6, 91590, Note_on_c, 4, 64, 0
6, 91620, Note_on_c, 4, 62, 70
6, 91650, Note_on_c, 4, 62, 0
6, 91680, Note_on_c, 4, 60, 70
6, 91710, Note_on_c, 4, 60, 0
6, 91740, Note_on_c, 4, 59, 70
6, 91770, Note_on_c, 4, 59, 0
6, 91800, Note_on_c, 4, 55, 110
6, 91800, Note_on_c, 4, 64, 110
6, 91800, Note_on_c, 4, 72, 110
6, 91920, Note_on_c, 4, 72, 0
6, 91920, Note_on_c, 4, 64, 0
6, 91920, Note_on_c, 4, 55, 0
6, 91920, Note_on_c, 4, 67, 110
6, 92040, Note_on_c, 4, 67, 0
6, 92160, Note_on_c, 4, 64, 110
6, 92280, Note_on_c, 4, 64, 0
6, 92280, Note_on_c, 4, 60, 110
6, 92400, Note_on_c, 4, 60, 0
6, 93240, Note_on_c, 4, 67, 70
6, 93255, Note_on_c, 4, 67, 0
6, 93255, Note_on_c, 4, 69, 70
6, 93270, Note_on_c, 4, 69, 0
6, 93270, Note_on_c, 4, 67, 70
6, 93285, Note_on_c, 4, 67, 0
6, 93285, Note_on_c, 4, 69, 70
6, 93300, Note_on_c, 4, 69, 0
6, 93300, Note_on_c, 4, 67, 70
6, 93315, Note_on_c, 4, 67, 0
6, 93315, Note_on_c, 4, 69, 70
6, 93330, Note_on_c, 4, 69, 0
6, 93330, Note_on_c, 4, 65, 70
6, 93345, Note_on_c, 4, 65, 0
6, 93345, Note_on_c, 4, 67, 70
6, 93360, Note_on_c, 4, 67, 0
6, 93360, Note_on_c, 4, 69, 70
6, 93420, Note_on_c, 4, 69, 0
6, 93420, Note_on_c, 4, 67, 70
6, 93450, Note_on_c, 4, 67, 0
6, 93480, Note_on_c, 4, 65, 70
6, 93510, Note_on_c, 4, 65, 0
6, 93540, Note_on_c, 4, 64, 70
6, 93570, Note_on_c, 4, 64, 0
6, 93600, Note_on_c, 4, 65, 70
6, 93615, Note_on_c, 4, 65, 0
6, 93615, Note_on_c, 4, 67, 70
6, 93630, Note_on_c, 4, 67, 0
6, 93630, Note_on_c, 4, 65, 70
6, 93645, Note_on_c, 4, 65, 0
6, 93645, Note_on_c, 4, 67, 70
6, 93660, Note_on_c, 4, 67, 0
6, 93660, Note_on_c, 4, 65, 70
6, 93675, Note_on_c, 4, 65, 0
6, 93675, Note_on_c, 4, 67, 70
6, 93690, Note_on_c, 4, 67, 0
6, 93690, Note_on_c, 4, 64, 70
6, 93705, Note_on_c, 4, 64, 0
6, 93705, Note_on_c, 4, 65, 70
6, 93720, Note_on_c, 4, 65, 0
6, 93720, Note_on_c, 4, 67, 70
6, 93780, Note_on_c, 4, 67, 0
6, 93780, Note_on_c, 4, 65, 70
6, 93810, Note_on_c, 4, 65, 0
6, 93840, Note_on_c, 4, 64, 70
6, 93870, Note_on_c, 4, 64, 0
6, 93900, Note_on_c, 4, 62, 70
6, 93930, Note_on_c, 4, 62, 0
6, 93960, Note_on_c, 4, 55, 110
6, 93960, Note_on_c, 4, 64, 110
6, 93960, Note_on_c, 4, 72, 110
6, 94080, Note_on_c, 4, 72, 0
6, 94080, Note_on_c, 4, 64, 0
6, 94080, Note_on_c, 4, 55, 0
6, 94080, Note_on_c, 4, 67, 110
6, 94200, Note_on_c, 4, 67, 0
6, 94320, Note_on_c, 4, 64, 110
6, 94440, Note_on_c, 4, 64, 0
6, 94440, Note_on_c, 4, 60, 110
6, 94560, Note_on_c, 4, 60, 0
6, 94680, Note_on_c, 4, 67, 70
6, 94695, Note_on_c, 4, 67, 0
6, 94695, Note_on_c, 4, 69, 70
6, 94710, Note_on_c, 4, 69, 0
6, 94710, Note_on_c, 4, 67, 70
6, 94725, Note_on_c, 4, 67, 0
6, 94725, Note_on_c, 4, 69, 70
6, 94740, Note_on_c, 4, 69, 0
6, 94740, Note_on_c, 4, 67, 70
6, 94755, Note_on_c, 4, 67, 0
6, 94755, Note_on_c, 4, 69, 70
6, 94770, Note_on_c, 4, 69, 0
6, 94770, Note_on_c, 4, 65, 70
6, 94785, Note_on_c, 4, 65, 0
6, 94785, Note_on_c, 4, 67, 70
6, 94800, Note_on_c, 4, 67, 0
6, 94800, Note_on_c, 4, 69, 70
6, 94860, Note_on_c, 4, 69, 0
6, 94860, Note_on_c, 4, 67, 70
6, 94890, Note_on_c, 4, 67, 0
6, 94920, Note_on_c, 4, 65, 70
6, 94950, Note_on_c, 4, 65, 0
6, 94980, Note_on_c, 4, 64, 70
6, 95010, Note_on_c, 4, 64, 0
6, 95040, Note_on_c, 4, 65, 70
6, 95055, Note_on_c, 4, 65, 0
6, 95055, Note_on_c, 4, 67, 70
6, 95070, Note_on_c, 4, 67, 0
6, 95070, Note_on_c, 4, 65, 70
6, 95085, Note_on_c, 4, 65, 0
6, 95085, Note_on_c, 4, 67, 70
6, 95100, Note_on_c, 4, 67, 0
6, 95100, Note_on_c, 4, 65, 70
6, 95115, Note_on_c, 4, 65, 0
6, 95115, Note_on_c, 4, 67, 70
6, 95130, Note_on_c, 4, 67, 0
6, 95130, Note_on_c, 4, 64, 70
6, 95145, Note_on_c, 4, 64, 0
6, 95145, Note_on_c, 4, 65, 70
6, 95160, Note_on_c, 4, 65, 0
6, 95160, Note_on_c, 4, 67, 70
6, 95220, Note_on_c, 4, 67, 0
6, 95220, Note_on_c, 4, 65, 70
6, 95250, Note_on_c, 4, 65, 0
6, 95280, Note_on_c, 4, 64, 70
6, 95310, Note_on_c, 4, 64, 0
6, 95340, Note_on_c, 4, 62, 70
6, 95370, Note_on_c, 4, 62, 0
6, 95400, Note_on_c, 4, 64, 70
6, 95415, Note_on_c, 4, 64, 0
6, 95415, Note_on_c, 4, 65, 70
6, 95430, Note_on_c, 4, 65, 0
6, 95430, Note_on_c, 4, 64, 70
6, 95445, Note_on_c, 4, 64, 0
6, 95445, Note_on_c, 4, 65, 70
6, 95460, Note_on_c, 4, 65, 0
6, 95460, Note_on_c, 4, 64, 70
6, 95475, Note_on_c, 4, 64, 0
6, 95475, Note_on_c, 4, 65, 70
6, 95490, Note_on_c, 4, 65, 0
6, 95490, Note_on_c, 4, 62, 70
6, 95505, Note_on_c, 4, 62, 0
6, 95505, Note_on_c, 4, 64, 70
6, 95520, Note_on_c, 4, 64, 0
6, 95520, Note_on_c, 4, 65, 70
6, 95580, Note_on_c, 4, 65, 0
6, 95580, Note_on_c, 4, 64, 70
6, 95610, Note_on_c, 4, 64, 0
6, 95640, Note_on_c, 4, 62, 70
6, 95670, Note_on_c, 4, 62, 0
6, 95700, Note_on_c, 4, 60, 70
6, 95730, Note_on_c, 4, 60, 0
6, 95760, Note_on_c, 4, 62, 70
6, 95775, Note_on_c, 4, 62, 0
6, 95775, Note_on_c, 4, 64, 70
6, 95790, Note_on_c, 4, 64, 0
6, 95790, Note_on_c, 4, 62, 70
6, 95805, Note_on_c, 4, 62, 0
6, 95805, Note_on_c, 4, 64, 70
6, 95820, Note_on_c, 4, 64, 0
6, 95820, Note_on_c, 4, 62, 70
6, 95835, Note_on_c, 4, 62, 0
6, 95835, Note_on_c, 4, 64, 70
6, 95850, Note_on_c, 4, 64, 0
6, 95850, Note_on_c, 4, 60, 70
6, 95865, Note_on_c, 4, 60, 0
6, 95865, Note_on_c, 4, 62, 70
6, 95880, Note_on_c, 4, 62, 0
6, 95880, Note_on_c, 4, 64, 70
6, 95940, Note_on_c, 4, 64, 0
6, 95940, Note_on_c, 4, 62, 70
6, 95970, Note_on_c, 4, 62, 0
6, 96000, Note_on_c, 4, 60, 70
6, 96030, Note_on_c, 4, 60, 0
6, 96060, Note_on_c, 4, 59, 70
6, 96090, Note_on_c, 4, 59, 0
6, 96120, Note_on_c, 4, 60, 110
6, 96150, Note_on_c, 4, 60, 0
6, 96150, Note_on_c, 4, 72, 110
6, 96180, Note_on_c, 4, 72, 0
6, 96180, Note_on_c, 4, 72, 110
6, 96210, Note_on_c, 4, 72, 0
6, 96210, Note_on_c, 4, 72, 110
6, 96240, Note_on_c, 4, 72, 0
6, 96240, Note_on_c, 4, 72, 110
6, 96270, Note_on_c, 4, 72, 0
6, 96300, Note_on_c, 4, 72, 110
6, 96330, Note_on_c, 4, 72, 0
6, 96360, Note_on_c, 4, 72, 110
6, 96390, Note_on_c, 4, 72, 0
6, 96420, Note_on_c, 4, 72, 110
6, 96450, Note_on_c, 4, 72, 0
6, 96480, Note_on_c, 4, 72, 110
6, 96510, Note_on_c, 4, 72, 0
6, 96540, Note_on_c, 4, 72, 110
6, 96570, Note_on_c, 4, 72, 0
6, 96600, Note_on_c, 4, 72, 110
6, 96630, Note_on_c, 4, 72, 0
6, 96660, Note_on_c, 4, 72, 110
6, 96690, Note_on_c, 4, 72, 0
6, 96720, Note_on_c, 4, 72, 110
6, 96750, Note_on_c, 4, 72, 0
6, 96780, Note_on_c, 4, 72, 110
6, 96810, Note_on_c, 4, 72, 0
6, 96840, Note_on_c, 4, 72, 110
6, 96870, Note_on_c, 4, 72, 0
6, 96900, Note_on_c, 4, 72, 110
6, 96930, Note_on_c, 4, 72, 0
6, 96960, Note_on_c, 4, 72, 110
6, 96990, Note_on_c, 4, 72, 0
6, 97020, Note_on_c, 4, 72, 110
6, 97050, Note_on_c, 4, 72, 0
6, 97080, Note_on_c, 4, 72, 110
6, 97110, Note_on_c, 4, 72, 0
6, 97140, Note_on_c, 4, 72, 110
6, 97170, Note_on_c, 4, 72, 0
6, 97200, Note_on_c, 4, 72, 110
6, 97230, Note_on_c, 4, 72, 0
6, 97260, Note_on_c, 4, 72, 110
6, 97290, Note_on_c, 4, 72, 0
6, 97320, Note_on_c, 4, 72, 110
6, 97350, Note_on_c, 4, 72, 0
6, 97380, Note_on_c, 4, 72, 110
6, 97410, Note_on_c, 4, 72, 0
6, 97440, Note_on_c, 4, 74, 110
6, 97470, Note_on_c, 4, 74, 0
6, 97500, Note_on_c, 4, 74, 110
6, 97530, Note_on_c, 4, 74, 0
6, 97560, Note_on_c, 4, 72, 110
6, 97650, Note_on_c, 4, 76, 110
6, 97680, Note_on_c, 4, 76, 0
6, 97680, Note_on_c, 4, 72, 0
6, 97680, Note_on_c, 4, 74, 110
6, 97770, Note_on_c, 4, 72, 110
6, 97800, Note_on_c, 4, 72, 0
6, 97800, Note_on_c, 4, 74, 0
6, 97800, Note_on_c, 4, 71, 110
6, 97920, Note_on_c, 4, 71, 0
6, 97920, Note_on_c, 4, 72, 110
6, 97950, Note_on_c, 4, 72, 0
6, 97980, Note_on_c, 4, 72, 110
6, 98010, Note_on_c, 4, 72, 0
6, 98040, Note_on_c, 4, 72, 110
6, 98070, Note_on_c, 4, 72, 0
6, 98100, Note_on_c, 4, 72, 110
6, 98130, Note_on_c, 4, 72, 0
6, 98160, Note_on_c, 4, 72, 110
6, 98190, Note_on_c, 4, 72, 0
6, 98220, Note_on_c, 4, 72, 110
6, 98250, Note_on_c, 4, 72, 0
6, 98280, Note_on_c, 4, 65, 100
6, 98295, Note_on_c, 4, 65, 0
6, 98295, Note_on_c, 4, 67, 100
6, 98310, Note_on_c, 4, 67, 0
6, 98310, Note_on_c, 4, 69, 100
6, 98400, Note_on_c, 4, 69, 0
6, 98400, Note_on_c, 4, 60, 100
6, 98415, Note_on_c, 4, 60, 0
6, 98415, Note_on_c, 4, 62, 100
6, 98430, Note_on_c, 4, 62, 0
6, 98430, Note_on_c, 4, 64, 100
6, 98520, Note_on_c, 4, 64, 0
6, 98520, Note_on_c, 4, 62, 100
6, 98535, Note_on_c, 4, 62, 0
6, 98535, Note_on_c, 4, 64, 100
6, 98550, Note_on_c, 4, 64, 0
6, 98550, Note_on_c, 4, 65, 100
6, 98640, Note_on_c, 4, 65, 0
6, 98640, Note_on_c, 4, 64, 100
6, 98670, Note_on_c, 4, 64, 0
6, 98670, Note_on_c, 4, 76, 100
6, 98700, Note_on_c, 4, 76, 0
6, 98700, Note_on_c, 4, 76, 100
6, 98730, Note_on_c, 4, 76, 0
6, 98730, Note_on_c, 4, 76, 100
6, 98760, Note_on_c, 4, 76, 0
6, 98760, Note_on_c, 4, 76, 100
6, 98790, Note_on_c, 4, 76, 0
6, 98820, Note_on_c, 4, 76, 100
6, 98850, Note_on_c, 4, 76, 0
6, 98880, Note_on_c, 4, 76, 100
6, 98910, Note_on_c, 4, 76, 0
6, 98940, Note_on_c, 4, 76, 100
6, 98970, Note_on_c, 4, 76, 0
6, 99000, Note_on_c, 4, 76, 100
6, 99090, Note_on_c, 4, 77, 75
6, 99120, Note_on_c, 4, 77, 0
6, 99120, Note_on_c, 4, 76, 0
6, 99120, Note_on_c, 4, 76, 74
6, 99180, Note_on_c, 4, 76, 0
6, 99180, Note_on_c, 4, 74, 74
6, 99210, Note_on_c, 4, 74, 0
6, 99210, Note_on_c, 4, 72, 74
6, 99210, Note_on_c, 4, 77, 74
6, 99240, Note_on_c, 4, 77, 0
6, 99240, Note_on_c, 4, 72, 0
6, 99240, Note_on_c, 4, 76, 74
6, 99300, Note_on_c, 4, 76, 0
6, 99300, Note_on_c, 4, 74, 74
6, 99330, Note_on_c, 4, 74, 0
6, 99330, Note_on_c, 4, 72, 74
6, 99360, Note_on_c, 4, 72, 0
6, 99360, Note_on_c, 4, 72, 100
6, 99390, Note_on_c, 4, 72, 0
6, 99390, Note_on_c, 4, 69, 100
6, 99390, Note_on_c, 4, 77, 100
6, 99420, Note_on_c, 4, 77, 0
6, 99420, Note_on_c, 4, 69, 0
6, 99420, Note_on_c, 4, 69, 100
6, 99420, Note_on_c, 4, 77, 100
6, 99450, Note_on_c, 4, 77, 0
6, 99450, Note_on_c, 4, 69, 0
6, 99450, Note_on_c, 4, 69, 100
6, 99450, Note_on_c, 4, 77, 100
6, 99480, Note_on_c, 4, 77, 0
6, 99480, Note_on_c, 4, 69, 0
6, 99480, Note_on_c, 4, 69, 100
6, 99480, Note_on_c, 4, 77, 100
6, 99510, Note_on_c, 4, 77, 0
6, 99510, Note_on_c, 4, 69, 0
6, 99540, Note_on_c, 4, 69, 100
6, 99540, Note_on_c, 4, 77, 100
6, 99570, Note_on_c, 4, 77, 0
6, 99570, Note_on_c, 4, 69, 0
6, 99600, Note_on_c, 4, 69, 100
6, 99600, Note_on_c, 4, 77, 100
6, 99630, Note_on_c, 4, 77, 0
6, 99630, Note_on_c, 4, 69, 0
6, 99660, Note_on_c, 4, 69, 100
6, 99660, Note_on_c, 4, 77, 100
6, 99690, Note_on_c, 4, 77, 0
6, 99690, Note_on_c, 4, 69, 0
6, 99720, Note_on_c, 4, 69, 100
6, 99720, Note_on_c, 4, 77, 100
6, 99810, Note_on_c, 4, 74, 70
6, 99840, Note_on_c, 4, 74, 0
6, 99840, Note_on_c, 4, 77, 0
6, 99840, Note_on_c, 4, 69, 0
6, 99840, Note_on_c, 4, 72, 70
6, 99900, Note_on_c, 4, 72, 0
6, 99900, Note_on_c, 4, 70, 70
6, 99930, Note_on_c, 4, 70, 0
6, 99930, Note_on_c, 4, 74, 70
6, 99930, Note_on_c, 4, 69, 70
6, 99960, Note_on_c, 4, 69, 0
6, 99960, Note_on_c, 4, 74, 0
6, 99960, Note_on_c, 4, 72, 70
6, 100020, Note_on_c, 4, 72, 0
6, 100020, Note_on_c, 4, 70, 70
6, 100050, Note_on_c, 4, 70, 0
6, 100050, Note_on_c, 4, 69, 70
6, 100080, Note_on_c, 4, 69, 0
6, 100080, Note_on_c, 4, 67, 100
6, 100110, Note_on_c, 4, 67, 0
6, 100110, Note_on_c, 4, 73, 100
6, 100110, Note_on_c, 4, 76, 100
6, 100140, Note_on_c, 4, 76, 0
6, 100140, Note_on_c, 4, 73, 0
6, 100140, Note_on_c, 4, 73, 100
6, 100140, Note_on_c, 4, 76, 100
6, 100170, Note_on_c, 4, 76, 0
6, 100170, Note_on_c, 4, 73, 0
6, 100170, Note_on_c, 4, 73, 100
6, 100170, Note_on_c, 4, 76, 100
6, 100200, Note_on_c, 4, 76, 0
6, 100200, Note_on_c, 4, 73, 0
6, 100200, Note_on_c, 4, 73, 100
6, 100200, Note_on_c, 4, 76, 100
6, 100230, Note_on_c, 4, 76, 0
6, 100230, Note_on_c, 4, 73, 0
6, 100260, Note_on_c, 4, 73, 100
6, 100260, Note_on_c, 4, 76, 100
6, 100290, Note_on_c, 4, 76, 0
6, 100290, Note_on_c, 4, 73, 0
6, 100320, Note_on_c, 4, 73, 100
6, 100320, Note_on_c, 4, 76, 100
6, 100350, Note_on_c, 4, 76, 0
6, 100350, Note_on_c, 4, 73, 0
6, 100380, Note_on_c, 4, 73, 100
6, 100380, Note_on_c, 4, 76, 100
6, 100410, Note_on_c, 4, 76, 0
6, 100410, Note_on_c, 4, 73, 0
6, 100440, Note_on_c, 4, 73, 100
6, 100440, Note_on_c, 4, 76, 100
6, 100470, Note_on_c, 4, 73, 0
6, 100530, Note_on_c, 4, 69, 75
6, 100560, Note_on_c, 4, 69, 0
6, 100560, Note_on_c, 4, 76, 0
6, 100560, Note_on_c, 4, 67, 74
6, 100620, Note_on_c, 4, 67, 0
6, 100620, Note_on_c, 4, 65, 74
6, 100650, Note_on_c, 4, 65, 0
6, 100650, Note_on_c, 4, 69, 74
6, 100650, Note_on_c, 4, 64, 74
6, 100680, Note_on_c, 4, 64, 0
6, 100680, Note_on_c, 4, 69, 0
6, 100680, Note_on_c, 4, 67, 74
6, 100740, Note_on_c, 4, 67, 0
6, 100740, Note_on_c, 4, 65, 74
6, 100770, Note_on_c, 4, 65, 0
6, 100770, Note_on_c, 4, 64, 74
6, 100800, Note_on_c, 4, 64, 0
6, 100800, Note_on_c, 4, 65, 110
6, 100830, Note_on_c, 4, 65, 0
6, 100830, Note_on_c, 4, 74, 110
6, 100860, Note_on_c, 4, 74, 0
6, 100860, Note_on_c, 4, 74, 110
6, 100890, Note_on_c, 4, 74, 0
6, 100890, Note_on_c, 4, 74, 110
6, 100920, Note_on_c, 4, 74, 0
6, 100920, Note_on_c, 4, 74, 110
6, 100950, Note_on_c, 4, 74, 0
6, 100980, Note_on_c, 4, 74, 110
6, 101010, Note_on_c, 4, 74, 0
6, 101040, Note_on_c, 4, 74, 110
6, 101070, Note_on_c, 4, 74, 0
6, 101100, Note_on_c, 4, 74, 110
6, 101130, Note_on_c, 4, 74, 0
6, 101160, Note_on_c, 4, 74, 110
6, 101250, Note_on_c, 4, 70, 69
6, 101280, Note_on_c, 4, 70, 0
6, 101280, Note_on_c, 4, 74, 0
6, 101280, Note_on_c, 4, 69, 69
6, 101340, Note_on_c, 4, 69, 0
6, 101340, Note_on_c, 4, 67, 69
6, 101370, Note_on_c, 4, 67, 0
6, 101370, Note_on_c, 4, 70, 69
6, 101370, Note_on_c, 4, 65, 69
6, 101400, Note_on_c, 4, 65, 0
6, 101400, Note_on_c, 4, 70, 0
6, 101400, Note_on_c, 4, 69, 69
6, 101460, Note_on_c, 4, 69, 0
6, 101460, Note_on_c, 4, 67, 69
6, 101490, Note_on_c, 4, 67, 0
6, 101490, Note_on_c, 4, 65, 69
6, 101520, Note_on_c, 4, 65, 0
6, 101520, Note_on_c, 4, 74, 110
6, 101550, Note_on_c, 4, 74, 0
6, 101550, Note_on_c, 4, 81, 110
6, 101580, Note_on_c, 4, 81, 0
6, 101580, Note_on_c, 4, 81, 110
6, 101610, Note_on_c, 4, 81, 0
6, 101610, Note_on_c, 4, 81, 110
6, 101640, Note_on_c, 4, 81, 0
6, 101640, Note_on_c, 4, 81, 110
6, 101670, Note_on_c, 4, 81, 0
6, 101700, Note_on_c, 4, 81, 110
6, 101730, Note_on_c, 4, 81, 0
6, 101760, Note_on_c, 4, 81, 110
6, 101790, Note_on_c, 4, 81, 0
6, 101820, Note_on_c, 4, 81, 110
6, 101850, Note_on_c, 4, 81, 0
6, 101880, Note_on_c, 4, 81, 110
6, 101910, Note_on_c, 4, 81, 0
6, 101910, Note_on_c, 4, 79, 110
6, 101940, Note_on_c, 4, 79, 0
6, 101940, Note_on_c, 4, 78, 110
6, 101970, Note_on_c, 4, 78, 0
6, 101970, Note_on_c, 4, 79, 110
6, 102000, Note_on_c, 4, 79, 0
6, 102000, Note_on_c, 4, 78, 110
6, 102030, Note_on_c, 4, 78, 0
6, 102030, Note_on_c, 4, 76, 110
6, 102060, Note_on_c, 4, 76, 0
6, 102060, Note_on_c, 4, 74, 110
6, 102090, Note_on_c, 4, 74, 0
6, 102090, Note_on_c, 4, 76, 110
6, 102120, Note_on_c, 4, 76, 0
6, 102120, Note_on_c, 4, 74, 110
6, 102150, Note_on_c, 4, 74, 0
6, 102150, Note_on_c, 4, 72, 110
6, 102180, Note_on_c, 4, 72, 0
6, 102180, Note_on_c, 4, 71, 110
6, 102210, Note_on_c, 4, 71, 0
6, 102210, Note_on_c, 4, 69, 110
6, 102240, Note_on_c, 4, 69, 0
6, 102240, Note_on_c, 4, 67, 110
6, 102270, Note_on_c, 4, 67, 0
6, 102270, Note_on_c, 4, 74, 110
6, 102300, Note_on_c, 4, 74, 0
6, 102300, Note_on_c, 4, 74, 110
6, 102330, Note_on_c, 4, 74, 0
6, 102330, Note_on_c, 4, 74, 110
6, 102360, Note_on_c, 4, 74, 0
6, 102360, Note_on_c, 4, 74, 110
6, 102390, Note_on_c, 4, 74, 0
6, 102420, Note_on_c, 4, 74, 110
6, 102450, Note_on_c, 4, 74, 0
6, 102480, Note_on_c, 4, 74, 110
6, 102510, Note_on_c, 4, 74, 0
6, 102540, Note_on_c, 4, 74, 110
6, 102570, Note_on_c, 4, 74, 0
6, 102600, Note_on_c, 4, 74, 110
6, 102630, Note_on_c, 4, 74, 0
6, 102630, Note_on_c, 4, 72, 110
6, 102660, Note_on_c, 4, 72, 0
6, 102660, Note_on_c, 4, 71, 110
6, 102690, Note_on_c, 4, 71, 0
6, 102690, Note_on_c, 4, 72, 110
6, 102720, Note_on_c, 4, 72, 0
6, 102720, Note_on_c, 4, 71, 110
6, 102750, Note_on_c, 4, 71, 0
6, 102750, Note_on_c, 4, 69, 110
6, 102780, Note_on_c, 4, 69, 0
6, 102780, Note_on_c, 4, 67, 110
6, 102810, Note_on_c, 4, 67, 0
6, 102810, Note_on_c, 4, 69, 110
6, 102840, Note_on_c, 4, 69, 0
6, 102840, Note_on_c, 4, 67, 110
6, 102870, Note_on_c, 4, 67, 0
6, 102870, Note_on_c, 4, 65, 110
6, 102900, Note_on_c, 4, 65, 0
6, 102900, Note_on_c, 4, 64, 110
6, 102930, Note_on_c, 4, 64, 0
6, 102930, Note_on_c, 4, 62, 110
6, 102960, Note_on_c, 4, 62, 0
6, 102960, Note_on_c, 4, 60, 110
6, 102990, Note_on_c, 4, 60, 0
6, 102990, Note_on_c, 4, 72, 110
6, 103020, Note_on_c, 4, 72, 0
6, 103020, Note_on_c, 4, 71, 110
6, 103050, Note_on_c, 4, 71, 0
6, 103050, Note_on_c, 4, 72, 110
6, 103080, Note_on_c, 4, 72, 0
6, 103080, Note_on_c, 4, 74, 110
6, 103110, Note_on_c, 4, 74, 0
6, 103110, Note_on_c, 4, 72, 110
6, 103140, Note_on_c, 4, 72, 0
6, 103140, Note_on_c, 4, 71, 110
6, 103170, Note_on_c, 4, 71, 0
6, 103170, Note_on_c, 4, 72, 110
6, 103200, Note_on_c, 4, 72, 0
6, 103200, Note_on_c, 4, 74, 110
6, 103230, Note_on_c, 4, 74, 0
6, 103230, Note_on_c, 4, 72, 110
6, 103260, Note_on_c, 4, 72, 0
6, 103260, Note_on_c, 4, 71, 110
6, 103290, Note_on_c, 4, 71, 0
6, 103290, Note_on_c, 4, 72, 110
6, 103320, Note_on_c, 4, 72, 0
6, 103320, Note_on_c, 4, 60, 110
6, 103350, Note_on_c, 4, 60, 0
6, 103350, Note_on_c, 4, 72, 110
6, 103380, Note_on_c, 4, 72, 0
6, 103380, Note_on_c, 4, 71, 110
6, 103410, Note_on_c, 4, 71, 0
6, 103410, Note_on_c, 4, 72, 110
6, 103440, Note_on_c, 4, 72, 0
6, 103440, Note_on_c, 4, 74, 110
6, 103470, Note_on_c, 4, 74, 0
6, 103470, Note_on_c, 4, 72, 110
6, 103500, Note_on_c, 4, 72, 0
6, 103500, Note_on_c, 4, 71, 110
6, 103530, Note_on_c, 4, 71, 0
6, 103530, Note_on_c, 4, 72, 110
6, 103560, Note_on_c, 4, 72, 0
6, 103560, Note_on_c, 4, 74, 110
6, 103590, Note_on_c, 4, 74, 0
6, 103590, Note_on_c, 4, 72, 110
6, 103620, Note_on_c, 4, 72, 0
6, 103620, Note_on_c, 4, 71, 110
6, 103650, Note_on_c, 4, 71, 0
6, 103650, Note_on_c, 4, 72, 110
6, 103680, Note_on_c, 4, 72, 0
6, 103680, Note_on_c, 4, 60, 110
6, 103710, Note_on_c, 4, 60, 0
6, 103710, Note_on_c, 4, 72, 110
6, 103740, Note_on_c, 4, 72, 0
6, 103740, Note_on_c, 4, 71, 110
6, 103770, Note_on_c, 4, 71, 0
6, 103770, Note_on_c, 4, 72, 110
6, 103800, Note_on_c, 4, 72, 0
6, 103800, Note_on_c, 4, 74, 110
6, 103830, Note_on_c, 4, 74, 0
6, 103830, Note_on_c, 4, 72, 110
6, 103860, Note_on_c, 4, 72, 0
6, 103860, Note_on_c, 4, 71, 110
6, 103890, Note_on_c, 4, 71, 0
6, 103890, Note_on_c, 4, 72, 110
6, 103920, Note_on_c, 4, 72, 0
6, 103920, Note_on_c, 4, 74, 110
6, 103950, Note_on_c, 4, 74, 0
6, 103950, Note_on_c, 4, 72, 110
6, 103980, Note_on_c, 4, 72, 0
6, 103980, Note_on_c, 4, 71, 110
6, 104010, Note_on_c, 4, 71, 0
6, 104010, Note_on_c, 4, 72, 110
6, 104040, Note_on_c, 4, 72, 0
6, 104040, Note_on_c, 4, 72, 110
6, 104070, Note_on_c, 4, 72, 0
6, 104100, Note_on_c, 4, 71, 110
6, 104130, Note_on_c, 4, 71, 0
6, 104160, Note_on_c, 4, 69, 110
6, 104190, Note_on_c, 4, 69, 0
6, 104220, Note_on_c, 4, 67, 110
6, 104250, Note_on_c, 4, 67, 0
6, 104280, Note_on_c, 4, 65, 110
6, 104310, Note_on_c, 4, 65, 0
6, 104340, Note_on_c, 4, 64, 110
6, 104370, Note_on_c, 4, 64, 0
6, 104400, Note_on_c, 4, 62, 110
6, 104400, Note_on_c, 4, 71, 110
6, 104520, Note_on_c, 4, 71, 0
6, 104520, Note_on_c, 4, 62, 0
6, 104520, Note_on_c, 4, 55, 110
6, 104640, Note_on_c, 4, 55, 0
6, 104760, Note_on_c, 4, 64, 70
6, 104820, Note_on_c, 4, 64, 0
6, 104880, Note_on_c, 4, 64, 70
6, 104940, Note_on_c, 4, 64, 0
6, 105000, Note_on_c, 4, 64, 70
6, 105060, Note_on_c, 4, 64, 0
6, 105120, Note_on_c, 4, 65, 70
6, 105300, Note_on_c, 4, 65, 0
6, 105300, Note_on_c, 4, 67, 70
6, 105360, Note_on_c, 4, 67, 0
6, 105360, Note_on_c, 4, 69, 70
6, 105480, Note_on_c, 4, 69, 0
6, 105480, Note_on_c, 4, 59, 70
6, 105495, Note_on_c, 4, 59, 0
6, 105495, Note_on_c, 4, 60, 70
6, 105510, Note_on_c, 4, 60, 0
6, 105510, Note_on_c, 4, 62, 70
6, 105600, Note_on_c, 4, 62, 0
6, 105840, Note_on_c, 4, 60, 70
6, 105855, Note_on_c, 4, 60, 0
6, 105855, Note_on_c, 4, 62, 70
6, 105870, Note_on_c, 4, 62, 0
6, 105870, Note_on_c, 4, 64, 70
6, 105960, Note_on_c, 4, 64, 0
6, 106200, Note_on_c, 4, 64, 70
6, 106260, Note_on_c, 4, 64, 0
6, 106320, Note_on_c, 4, 64, 70
6, 106380, Note_on_c, 4, 64, 0
6, 106440, Note_on_c, 4, 64, 70
6, 106500, Note_on_c, 4, 64, 0
6, 106560, Note_on_c, 4, 65, 70
6, 106650, Note_on_c, 4, 65, 0
6, 106650, Note_on_c, 4, 67, 70
6, 106680, Note_on_c, 4, 67, 0
6, 106680, Note_on_c, 4, 69, 70
6, 106740, Note_on_c, 4, 69, 0
6, 106740, Note_on_c, 4, 67, 70
6, 106770, Note_on_c, 4, 67, 0
6, 106800, Note_on_c, 4, 65, 70
6, 106830, Note_on_c, 4, 65, 0
6, 106860, Note_on_c, 4, 64, 70
6, 106890, Note_on_c, 4, 64, 0
6, 106890, Note_on_c, 4, 64, 70
6, 106920, Note_on_c, 4, 64, 0
6, 106920, Note_on_c, 4, 62, 70
6, 107040, Note_on_c, 4, 62, 0
6, 107040, Note_on_c, 4, 60, 70
6, 107160, Note_on_c, 4, 60, 0
6, 107160, Note_on_c, 4, 59, 70
6, 107280, Note_on_c, 4, 59, 0
6, 107280, Note_on_c, 4, 59, 70
6, 107520, Note_on_c, 4, 59, 0
6, 107520, Note_on_c, 4, 60, 70
6, 107640, Note_on_c, 4, 60, 0
6, 108480, Note_on_c, 4, 62, 70
6, 108510, Note_on_c, 4, 62, 0
6, 108510, Note_on_c, 4, 64, 70
6, 108540, Note_on_c, 4, 64, 0
6, 108540, Note_on_c, 4, 62, 70
6, 108570, Note_on_c, 4, 62, 0
6, 108570, Note_on_c, 4, 64, 70
6, 108600, Note_on_c, 4, 64, 0
6, 108600, Note_on_c, 4, 65, 70
6, 108720, Note_on_c, 4, 65, 0
6, 108840, Note_on_c, 4, 64, 70
6, 108870, Note_on_c, 4, 64, 0
6, 108870, Note_on_c, 4, 65, 70
6, 108900, Note_on_c, 4, 65, 0
6, 108900, Note_on_c, 4, 64, 70
6, 108930, Note_on_c, 4, 64, 0
6, 108930, Note_on_c, 4, 65, 70
6, 108960, Note_on_c, 4, 65, 0
6, 108960, Note_on_c, 4, 67, 70
6, 109080, Note_on_c, 4, 67, 0
6, 110160, Note_on_c, 4, 67, 110
6, 110190, Note_on_c, 4, 67, 0
6, 110190, Note_on_c, 4, 67, 110
6, 110220, Note_on_c, 4, 67, 0
6, 110220, Note_on_c, 4, 66, 110
6, 110250, Note_on_c, 4, 66, 0
6, 110250, Note_on_c, 4, 66, 110
6, 110280, Note_on_c, 4, 66, 0
6, 110280, Note_on_c, 4, 67, 110
6, 110310, Note_on_c, 4, 67, 0
6, 110310, Note_on_c, 4, 67, 110
6, 110340, Note_on_c, 4, 67, 0
6, 110340, Note_on_c, 4, 66, 110
6, 110370, Note_on_c, 4, 66, 0
6, 110370, Note_on_c, 4, 66, 110
6, 110400, Note_on_c, 4, 66, 0
6, 110400, Note_on_c, 4, 67, 110
6, 110430, Note_on_c, 4, 67, 0
6, 110430, Note_on_c, 4, 67, 110
6, 110460, Note_on_c, 4, 67, 0
6, 110460, Note_on_c, 4, 66, 110
6, 110490, Note_on_c, 4, 66, 0
6, 110490, Note_on_c, 4, 66, 110
6, 110520, Note_on_c, 4, 66, 0
6, 110520, Note_on_c, 4, 67, 110
6, 110550, Note_on_c, 4, 67, 0
6, 110550, Note_on_c, 4, 67, 110
6, 110580, Note_on_c, 4, 67, 0
6, 110580, Note_on_c, 4, 66, 110
6, 110610, Note_on_c, 4, 66, 0
6, 110610, Note_on_c, 4, 66, 110
6, 110640, Note_on_c, 4, 66, 0
6, 110640, Note_on_c, 4, 67, 110
6, 110670, Note_on_c, 4, 67, 0
6, 110670, Note_on_c, 4, 67, 110
6, 110700, Note_on_c, 4, 67, 0
6, 110700, Note_on_c, 4, 66, 110
6, 110730, Note_on_c, 4, 66, 0
6, 110730, Note_on_c, 4, 66, 110
6, 110760, Note_on_c, 4, 66, 0
6, 110760, Note_on_c, 4, 67, 110
6, 110790, Note_on_c, 4, 67, 0
6, 110790, Note_on_c, 4, 67, 110
6, 110820, Note_on_c, 4, 67, 0
6, 110820, Note_on_c, 4, 62, 110
6, 110850, Note_on_c, 4, 62, 0
6, 110850, Note_on_c, 4, 62, 110
6, 110880, Note_on_c, 4, 62, 0
6, 110880, Note_on_c, 4, 72, 110
6, 110910, Note_on_c, 4, 72, 0
6, 110910, Note_on_c, 4, 72, 110
6, 110940, Note_on_c, 4, 72, 0
6, 110940, Note_on_c, 4, 71, 110
6, 110970, Note_on_c, 4, 71, 0
6, 110970, Note_on_c, 4, 71, 110
6, 111000, Note_on_c, 4, 71, 0
6, 111000, Note_on_c, 4, 72, 110
6, 111030, Note_on_c, 4, 72, 0
6, 111030, Note_on_c, 4, 72, 110
6, 111060, Note_on_c, 4, 72, 0
6, 111060, Note_on_c, 4, 71, 110
6, 111090, Note_on_c, 4, 71, 0
6, 111090, Note_on_c, 4, 71, 110
6, 111120, Note_on_c, 4, 71, 0
6, 111120, Note_on_c, 4, 72, 110
6, 111150, Note_on_c, 4, 72, 0
6, 111150, Note_on_c, 4, 72, 110
6, 111180, Note_on_c, 4, 72, 0
6, 111180, Note_on_c, 4, 71, 110
6, 111210, Note_on_c, 4, 71, 0
6, 111210, Note_on_c, 4, 71, 110
6, 111240, Note_on_c, 4, 71, 0
6, 111240, Note_on_c, 4, 67, 110
6, 111270, Note_on_c, 4, 67, 0
6, 111270, Note_on_c, 4, 67, 110
6, 111300, Note_on_c, 4, 67, 0
6, 111300, Note_on_c, 4, 65, 110
6, 111330, Note_on_c, 4, 65, 0
6, 111330, Note_on_c, 4, 65, 110
6, 111360, Note_on_c, 4, 65, 0
6, 111360, Note_on_c, 4, 64, 110
6, 111390, Note_on_c, 4, 64, 0
6, 111390, Note_on_c, 4, 64, 110
6, 111420, Note_on_c, 4, 64, 0
6, 111420, Note_on_c, 4, 65, 110
6, 111450, Note_on_c, 4, 65, 0
6, 111450, Note_on_c, 4, 65, 110
6, 111480, Note_on_c, 4, 65, 0
6, 111480, Note_on_c, 4, 67, 110
6, 111510, Note_on_c, 4, 67, 0
6, 111510, Note_on_c, 4, 67, 110
6, 111540, Note_on_c, 4, 67, 0
6, 111540, Note_on_c, 4, 72, 110
6, 111570, Note_on_c, 4, 72, 0
6, 111570, Note_on_c, 4, 72, 110
6, 111600, Note_on_c, 4, 72, 0
6, 111600, Note_on_c, 4, 72, 110
6, 111630, Note_on_c, 4, 72, 0
6, 111660, Note_on_c, 4, 72, 110
6, 111690, Note_on_c, 4, 72, 0
6, 111720, Note_on_c, 4, 71, 110
6, 111750, Note_on_c, 4, 71, 0
6, 111780, Note_on_c, 4, 71, 110
6, 111810, Note_on_c, 4, 71, 0
6, 111840, Note_on_c, 4, 69, 110
6, 111870, Note_on_c, 4, 69, 0
6, 111900, Note_on_c, 4, 69, 110
6, 111930, Note_on_c, 4, 69, 0
6, 111960, Note_on_c, 4, 67, 110
6, 112050, Note_on_c, 4, 76, 110
6, 112080, Note_on_c, 4, 76, 0
6, 112080, Note_on_c, 4, 67, 0
6, 112080, Note_on_c, 4, 74, 110
6, 112140, Note_on_c, 4, 74, 0
6, 112140, Note_on_c, 4, 72, 110
6, 112170, Note_on_c, 4, 72, 0
6, 112170, Note_on_c, 4, 71, 110
6, 112200, Note_on_c, 4, 71, 0
6, 112200, Note_on_c, 4, 72, 110
6, 112230, Note_on_c, 4, 72, 0
6, 112230, Note_on_c, 4, 76, 110
6, 112260, Note_on_c, 4, 76, 0
6, 112260, Note_on_c, 4, 79, 110
6, 112290, Note_on_c, 4, 79, 0
6, 112290, Note_on_c, 4, 76, 110
6, 112320, Note_on_c, 4, 76, 0
6, 112320, Note_on_c, 4, 81, 110
6, 112410, Note_on_c, 4, 81, 0
6, 112410, Note_on_c, 4, 77, 110
6, 112440, Note_on_c, 4, 77, 0
6, 112440, Note_on_c, 4, 76, 110
6, 112560, Note_on_c, 4, 76, 0
6, 112560, Note_on_c, 4, 77, 110
6, 112680, Note_on_c, 4, 77, 0
6, 112680, Note_on_c, 4, 76, 110
6, 112740, Note_on_c, 4, 76, 0
6, 112800, Note_on_c, 4, 73, 110
6, 112800, Note_on_c, 4, 76, 110
6, 112860, Note_on_c, 4, 76, 0
6, 112860, Note_on_c, 4, 73, 0
6, 112920, Note_on_c, 4, 62, 110
6, 112920, Note_on_c, 4, 74, 110
6, 112980, Note_on_c, 4, 74, 0
6, 112980, Note_on_c, 4, 62, 0
6, 113040, Note_on_c, 4, 69, 110
6, 113040, Note_on_c, 4, 76, 110
6, 113160, Note_on_c, 4, 76, 0
6, 113160, Note_on_c, 4, 69, 0
6, 113160, Note_on_c, 4, 62, 110
6, 113160, Note_on_c, 4, 74, 110
6, 113280, Note_on_c, 4, 74, 0
6, 113280, Note_on_c, 4, 62, 0
6, 113520, Note_on_c, 4, 57, 70
6, 113640, Note_on_c, 4, 57, 0
6, 113640, Note_on_c, 4, 56, 70
6, 113760, Note_on_c, 4, 56, 0
6, 113760, Note_on_c, 4, 55, 70
6, 113880, Note_on_c, 4, 55, 0
6, 113880, Note_on_c, 4, 59, 70
6, 114000, Note_on_c, 4, 59, 0
6, 114000, Note_on_c, 4, 60, 70
6, 114120, Note_on_c, 4, 60, 0
6, 114120, Note_on_c, 4, 60, 70
6, 114210, Note_on_c, 4, 60, 0
6, 114210, Note_on_c, 4, 65, 70
6, 114240, Note_on_c, 4, 65, 0
6, 114240, Note_on_c, 4, 64, 70
6, 114360, Note_on_c, 4, 64, 0
6, 114360, Note_on_c, 4, 62, 70
6, 114480, Note_on_c, 4, 62, 0
6, 114480, Note_on_c, 4, 64, 110
6, 114510, Note_on_c, 4, 64, 0
6, 114510, Note_on_c, 4, 60, 110
6, 114540, Note_on_c, 4, 60, 0
6, 114540, Note_on_c, 4, 64, 110
6, 114570, Note_on_c, 4, 64, 0
6, 114570, Note_on_c, 4, 67, 110
6, 114600, Note_on_c, 4, 67, 0
6, 114600, Note_on_c, 4, 64, 110
6, 114630, Note_on_c, 4, 64, 0
6, 114630, Note_on_c, 4, 67, 110
6, 114660, Note_on_c, 4, 67, 0
6, 114660, Note_on_c, 4, 72, 110
6, 114690, Note_on_c, 4, 72, 0
6, 114690, Note_on_c, 4, 76, 110
6, 114720, Note_on_c, 4, 76, 0
6, 114720, Note_on_c, 4, 74, 110
6, 114780, Note_on_c, 4, 74, 0
6, 114780, Note_on_c, 4, 72, 110
6, 114810, Note_on_c, 4, 72, 0
6, 114810, Note_on_c, 4, 71, 110
6, 114840, Note_on_c, 4, 71, 0
6, 114840, Note_on_c, 4, 72, 110
6, 114870, Note_on_c, 4, 72, 0
6, 114870, Note_on_c, 4, 67, 110
6, 114900, Note_on_c, 4, 67, 0
6, 114900, Note_on_c, 4, 64, 110
6, 114930, Note_on_c, 4, 64, 0
6, 114930, Note_on_c, 4, 60, 110
6, 114960, Note_on_c, 4, 60, 0
6, 114960, Note_on_c, 4, 67, 110
6, 114990, Note_on_c, 4, 67, 0
6, 114990, Note_on_c, 4, 64, 110
6, 115020, Note_on_c, 4, 64, 0
6, 115020, Note_on_c, 4, 60, 110
6, 115050, Note_on_c, 4, 60, 0
6, 115050, Note_on_c, 4, 67, 110
6, 115050, Note_on_c, 4, 55, 110
6, 115080, Note_on_c, 4, 55, 0
6, 115080, Note_on_c, 4, 67, 0
6, 115080, Note_on_c, 4, 65, 110
6, 115140, Note_on_c, 4, 65, 0
6, 115140, Note_on_c, 4, 64, 110
6, 115170, Note_on_c, 4, 64, 0
6, 115170, Note_on_c, 4, 62, 110
6, 115200, Note_on_c, 4, 62, 0
6, 115200, Note_on_c, 4, 64, 110
6, 115230, Note_on_c, 4, 64, 0
6, 115230, Note_on_c, 4, 60, 110
6, 115260, Note_on_c, 4, 60, 0
6, 115260, Note_on_c, 4, 64, 110
6, 115290, Note_on_c, 4, 64, 0
6, 115290, Note_on_c, 4, 67, 110
6, 115320, Note_on_c, 4, 67, 0
6, 115320, Note_on_c, 4, 64, 110
6, 115350, Note_on_c, 4, 64, 0
6, 115350, Note_on_c, 4, 67, 110
6, 115380, Note_on_c, 4, 67, 0
6, 115380, Note_on_c, 4, 72, 110
6, 115410, Note_on_c, 4, 72, 0
6, 115410, Note_on_c, 4, 76, 110
6, 115440, Note_on_c, 4, 76, 0
6, 115440, Note_on_c, 4, 74, 110
6, 115500, Note_on_c, 4, 74, 0
6, 115500, Note_on_c, 4, 72, 110
6, 115530, Note_on_c, 4, 72, 0
6, 115530, Note_on_c, 4, 71, 110
6, 115560, Note_on_c, 4, 71, 0
6, 115560, Note_on_c, 4, 72, 110
6, 115590, Note_on_c, 4, 72, 0
6, 115590, Note_on_c, 4, 67, 110
6, 115620, Note_on_c, 4, 67, 0
6, 115620, Note_on_c, 4, 64, 110
6, 115650, Note_on_c, 4, 64, 0
6, 115650, Note_on_c, 4, 60, 110
6, 115680, Note_on_c, 4, 60, 0
6, 115680, Note_on_c, 4, 67, 110
6, 115710, Note_on_c, 4, 67, 0
6, 115710, Note_on_c, 4, 64, 110
6, 115740, Note_on_c, 4, 64, 0
6, 115740, Note_on_c, 4, 60, 110
6, 115770, Note_on_c, 4, 60, 0
6, 115770, Note_on_c, 4, 67, 110
6, 115770, Note_on_c, 4, 55, 110
6, 115800, Note_on_c, 4, 55, 0
6, 115800, Note_on_c, 4, 67, 0
6, 115800, Note_on_c, 4, 65, 110
6, 115860, Note_on_c, 4, 65, 0
6, 115860, Note_on_c, 4, 64, 110
6, 115890, Note_on_c, 4, 64, 0
6, 115890, Note_on_c, 4, 62, 110
6, 115920, Note_on_c, 4, 62, 0
6, 115920, Note_on_c, 4, 64, 110
6, 115950, Note_on_c, 4, 64, 0
6, 115950, Note_on_c, 4, 67, 110
6, 115980, Note_on_c, 4, 67, 0
6, 115980, Note_on_c, 4, 67, 110
6, 116010, Note_on_c, 4, 67, 0
6, 116010, Note_on_c, 4, 67, 110
6, 116040, Note_on_c, 4, 67, 0
6, 116040, Note_on_c, 4, 60, 110
6, 116070, Note_on_c, 4, 60, 0
6, 116070, Note_on_c, 4, 67, 110
6, 116100, Note_on_c, 4, 67, 0
6, 116100, Note_on_c, 4, 67, 110
6, 116130, Note_on_c, 4, 67, 0
6, 116130, Note_on_c, 4, 67, 110
6, 116160, Note_on_c, 4, 67, 0
6, 116160, Note_on_c, 4, 62, 110
6, 116190, Note_on_c, 4, 62, 0
6, 116190, Note_on_c, 4, 67, 110
6, 116220, Note_on_c, 4, 67, 0
6, 116220, Note_on_c, 4, 67, 110
6, 116250, Note_on_c, 4, 67, 0
6, 116250, Note_on_c, 4, 67, 110
6, 116280, Note_on_c, 4, 67, 0
6, 116280, Note_on_c, 4, 64, 110
6, 116310, Note_on_c, 4, 64, 0
6, 116310, Note_on_c, 4, 67, 110
6, 116340, Note_on_c, 4, 67, 0
6, 116340, Note_on_c, 4, 67, 110
6, 116370, Note_on_c, 4, 67, 0
6, 116370, Note_on_c, 4, 67, 110
6, 116400, Note_on_c, 4, 67, 0
6, 116400, Note_on_c, 4, 60, 110
6, 116430, Note_on_c, 4, 60, 0
6, 116430, Note_on_c, 4, 67, 110
6, 116460, Note_on_c, 4, 67, 0
6, 116460, Note_on_c, 4, 67, 110
6, 116490, Note_on_c, 4, 67, 0
6, 116490, Note_on_c, 4, 67, 110
6, 116520, Note_on_c, 4, 67, 0
6, 116520, Note_on_c, 4, 62, 110
6, 116550, Note_on_c, 4, 62, 0
6, 116550, Note_on_c, 4, 67, 110
6, 116580, Note_on_c, 4, 67, 0
6, 116580, Note_on_c, 4, 67, 110
6, 116610, Note_on_c, 4, 67, 0
6, 116610, Note_on_c, 4, 67, 110
6, 116640, Note_on_c, 4, 67, 0
6, 116640, Note_on_c, 4, 55, 110
6, 116640, Note_on_c, 4, 64, 110
6, 116640, Note_on_c, 4, 72, 110
6, 116760, Note_on_c, 4, 72, 0
6, 116760, Note_on_c, 4, 64, 0
6, 116760, Note_on_c, 4, 55, 0
6, 116760, Note_on_c, 4, 67, 110
6, 116880, Note_on_c, 4, 67, 0
6, 117000, Note_on_c, 4, 64, 110
6, 117120, Note_on_c, 4, 64, 0
6, 117120, Note_on_c, 4, 60, 110
6, 117240, Note_on_c, 4, 60, 0
6, 118080, Note_on_c, 4, 67, 70
6, 118095, Note_on_c, 4, 67, 0
6, 118095, Note_on_c, 4, 69, 70
6, 118110, Note_on_c, 4, 69, 0
6, 118110, Note_on_c, 4, 67, 70
6, 118125, Note_on_c, 4, 67, 0
6, 118125, Note_on_c, 4, 69, 70
6, 118140, Note_on_c, 4, 69, 0
6, 118140, Note_on_c, 4, 67, 70
6, 118155, Note_on_c, 4, 67, 0
6, 118155, Note_on_c, 4, 69, 70
6, 118170, Note_on_c, 4, 69, 0
6, 118170, Note_on_c, 4, 65, 70
6, 118185, Note_on_c, 4, 65, 0
6, 118185, Note_on_c, 4, 67, 70
6, 118200, Note_on_c, 4, 67, 0
6, 118200, Note_on_c, 4, 69, 70
6, 118260, Note_on_c, 4, 69, 0
6, 118260, Note_on_c, 4, 67, 70
6, 118290, Note_on_c, 4, 67, 0
6, 118320, Note_on_c, 4, 65, 70
6, 118350, Note_on_c, 4, 65, 0
6, 118380, Note_on_c, 4, 64, 70
6, 118410, Note_on_c, 4, 64, 0
6, 118440, Note_on_c, 4, 65, 70
6, 118455, Note_on_c, 4, 65, 0
6, 118455, Note_on_c, 4, 67, 70
6, 118470, Note_on_c, 4, 67, 0
6, 118470, Note_on_c, 4, 65, 70
6, 118485, Note_on_c, 4, 65, 0
6, 118485, Note_on_c, 4, 67, 70
6, 118500, Note_on_c, 4, 67, 0
6, 118500, Note_on_c, 4, 65, 70
6, 118515, Note_on_c, 4, 65, 0
6, 118515, Note_on_c, 4, 67, 70
6, 118530, Note_on_c, 4, 67, 0
6, 118530, Note_on_c, 4, 64, 70
6, 118545, Note_on_c, 4, 64, 0
6, 118545, Note_on_c, 4, 65, 70
6, 118560, Note_on_c, 4, 65, 0
6, 118560, Note_on_c, 4, 67, 70
6, 118620, Note_on_c, 4, 67, 0
6, 118620, Note_on_c, 4, 65, 70
6, 118650, Note_on_c, 4, 65, 0
6, 118680, Note_on_c, 4, 64, 70
6, 118710, Note_on_c, 4, 64, 0
6, 118740, Note_on_c, 4, 62, 70
6, 118770, Note_on_c, 4, 62, 0
6, 118800, Note_on_c, 4, 64, 110
6, 118830, Note_on_c, 4, 64, 0
6, 118830, Note_on_c, 4, 76, 110
6, 118860, Note_on_c, 4, 76, 0
6, 118860, Note_on_c, 4, 76, 110
6, 118890, Note_on_c, 4, 76, 0
6, 118890, Note_on_c, 4, 76, 110
6, 118920, Note_on_c, 4, 76, 0
6, 118920, Note_on_c, 4, 76, 110
6, 118950, Note_on_c, 4, 76, 0
6, 118980, Note_on_c, 4, 76, 110
6, 119010, Note_on_c, 4, 76, 0
6, 119040, Note_on_c, 4, 76, 110
6, 119070, Note_on_c, 4, 76, 0
6, 119100, Note_on_c, 4, 76, 110
6, 119130, Note_on_c, 4, 76, 0
6, 119160, Note_on_c, 4, 74, 110
6, 119220, Note_on_c, 4, 74, 0
6, 119280, Note_on_c, 4, 69, 110
6, 119340, Note_on_c, 4, 69, 0
6, 119400, Note_on_c, 4, 71, 110
6, 119460, Note_on_c, 4, 71, 0
6, 119520, Note_on_c, 4, 64, 110
6, 119550, Note_on_c, 4, 64, 0
6, 119550, Note_on_c, 4, 76, 110
6, 119580, Note_on_c, 4, 76, 0
6, 119580, Note_on_c, 4, 76, 110
6, 119610, Note_on_c, 4, 76, 0
6, 119610, Note_on_c, 4, 76, 110
6, 119640, Note_on_c, 4, 76, 0
6, 119640, Note_on_c, 4, 76, 110
6, 119670, Note_on_c, 4, 76, 0
6, 119700, Note_on_c, 4, 76, 110
6, 119730, Note_on_c, 4, 76, 0
6, 119760, Note_on_c, 4, 76, 110
6, 119790, Note_on_c, 4, 76, 0
6, 119820, Note_on_c, 4, 76, 110
6, 119850, Note_on_c, 4, 76, 0
6, 119880, Note_on_c, 4, 74, 110
6, 119940, Note_on_c, 4, 74, 0
6, 120000, Note_on_c, 4, 69, 110
6, 120060, Note_on_c, 4, 69, 0
6, 120120, Note_on_c, 4, 71, 110
6, 120180, Note_on_c, 4, 71, 0
6, 120240, Note_on_c, 4, 72, 110
6, 120270, Note_on_c, 4, 72, 0
6, 120300, Note_on_c, 4, 72, 110
6, 120330, Note_on_c, 4, 72, 0
6, 120360, Note_on_c, 4, 79, 110
6, 120390, Note_on_c, 4, 79, 0
6, 120420, Note_on_c, 4, 79, 110
6, 120450, Note_on_c, 4, 79, 0
6, 120480, Note_on_c, 4, 76, 110
6, 120510, Note_on_c, 4, 76, 0
6, 120540, Note_on_c, 4, 76, 110
6, 120570, Note_on_c, 4, 76, 0
6, 120600, Note_on_c, 4, 72, 110
6, 120630, Note_on_c, 4, 72, 0
6, 120660, Note_on_c, 4, 72, 110
6, 120690, Note_on_c, 4, 72, 0
6, 120720, Note_on_c, 4, 67, 110
6, 120750, Note_on_c, 4, 67, 0
6, 120780, Note_on_c, 4, 67, 110
6, 120810, Note_on_c, 4, 67, 0
6, 120840, Note_on_c, 4, 64, 110
6, 120870, Note_on_c, 4, 64, 0
6, 120900, Note_on_c, 4, 64, 110
6, 120930, Note_on_c, 4, 64, 0
6, 120960, Note_on_c, 4, 60, 110
6, 120990, Note_on_c, 4, 60, 0
6, 121020, Note_on_c, 4, 60, 110
6, 121050, Note_on_c, 4, 60, 0
6, 121080, Note_on_c, 4, 55, 110
6, 121110, Note_on_c, 4, 55, 0
6, 121140, Note_on_c, 4, 55, 110
6, 121170, Note_on_c, 4, 55, 0
6, 121200, Note_on_c, 4, 64, 110
6, 121230, Note_on_c, 4, 64, 0
6, 121260, Note_on_c, 4, 64, 110
6, 121290, Note_on_c, 4, 64, 0
6, 121320, Note_on_c, 4, 60, 110
6, 121440, Note_on_c, 4, 60, 0
6, 121440, End_track
7, 0, Start_track
7, 0, MIDI_port, 0
7, 0, Title_t, "Viola"
7, 0, Program_c, 5, 48
7, 0, Control_c, 5, 7, 127
7, 0, Control_c, 5, 10, 55
7, 0, Note_on_c, 5, 84, 110
7, 120, Note_on_c, 5, 84, 0
7, 120, Note_on_c, 5, 79, 110
7, 240, Note_on_c, 5, 79, 0
7, 360, Note_on_c, 5, 76, 110
7, 480, Note_on_c, 5, 76, 0
7, 480, Note_on_c, 5, 72, 110
7, 600, Note_on_c, 5, 72, 0
7, 2160, Note_on_c, 5, 84, 110
7, 2280, Note_on_c, 5, 84, 0
7, 2280, Note_on_c, 5, 79, 110
7, 2400, Note_on_c, 5, 79, 0
7, 2520, Note_on_c, 5, 76, 110
7, 2640, Note_on_c, 5, 76, 0
7, 2640, Note_on_c, 5, 72, 110
7, 2760, Note_on_c, 5, 72, 0
7, 4320, Note_on_c, 5, 76, 110
7, 4320, Note_on_c, 5, 67, 110
7, 4350, Note_on_c, 5, 76, 0
7, 4380, Note_on_c, 5, 76, 110
7, 4410, Note_on_c, 5, 76, 0
7, 4440, Note_on_c, 5, 76, 110
7, 4470, Note_on_c, 5, 76, 0
7, 4500, Note_on_c, 5, 76, 110
7, 4530, Note_on_c, 5, 76, 0
7, 4560, Note_on_c, 5, 67, 0
7, 4560, Note_on_c, 5, 79, 110
7, 4590, Note_on_c, 5, 79, 0
7, 4620, Note_on_c, 5, 79, 110
7, 4650, Note_on_c, 5, 79, 0
7, 4680, Note_on_c, 5, 81, 110
7, 4710, Note_on_c, 5, 81, 0
7, 4740, Note_on_c, 5, 81, 110
7, 4770, Note_on_c, 5, 81, 0
7, 4800, Note_on_c, 5, 81, 110
7, 4830, Note_on_c, 5, 81, 0
7, 4860, Note_on_c, 5, 81, 110
7, 4890, Note_on_c, 5, 81, 0
7, 4920, Note_on_c, 5, 79, 110
7, 4950, Note_on_c, 5, 79, 0
7, 4980, Note_on_c, 5, 79, 110
7, 5010, Note_on_c, 5, 79, 0
7, 5040, Note_on_c, 5, 76, 110
7, 5070, Note_on_c, 5, 76, 0
7, 5100, Note_on_c, 5, 76, 110
7, 5130, Note_on_c, 5, 76, 0
7, 5160, Note_on_c, 5, 76, 110
7, 5190, Note_on_c, 5, 76, 0
7, 5220, Note_on_c, 5, 76, 110
7, 5250, Note_on_c, 5, 76, 0
7, 5280, Note_on_c, 5, 76, 110
7, 5310, Note_on_c, 5, 76, 0
7, 5310, Note_on_c, 5, 76, 110
7, 5340, Note_on_c, 5, 76, 0
7, 5340, Note_on_c, 5, 74, 110
7, 5370, Note_on_c, 5, 74, 0
7, 5370, Note_on_c, 5, 74, 110
7, 5400, Note_on_c, 5, 74, 0
7, 5400, Note_on_c, 5, 77, 110
7, 5430, Note_on_c, 5, 77, 0
7, 5460, Note_on_c, 5, 77, 110
7, 5490, Note_on_c, 5, 77, 0
7, 5520, Note_on_c, 5, 79, 110
7, 5550, Note_on_c, 5, 79, 0
7, 5580, Note_on_c, 5, 79, 110
7, 5610, Note_on_c, 5, 79, 0
7, 5640, Note_on_c, 5, 79, 110
7, 5670, Note_on_c, 5, 79, 0
7, 5700, Note_on_c, 5, 79, 110
7, 5730, Note_on_c, 5, 79, 0
7, 5760, Note_on_c, 5, 79, 110
7, 5790, Note_on_c, 5, 79, 0
7, 5820, Note_on_c, 5, 79, 110
7, 5850, Note_on_c, 5, 79, 0
7, 5880, Note_on_c, 5, 81, 110
7, 5910, Note_on_c, 5, 81, 0
7, 5940, Note_on_c, 5, 81, 110
7, 5970, Note_on_c, 5, 81, 0
7, 6000, Note_on_c, 5, 79, 110
7, 6030, Note_on_c, 5, 79, 0
7, 6060, Note_on_c, 5, 79, 110
7, 6090, Note_on_c, 5, 79, 0
7, 6120, Note_on_c, 5, 79, 110
7, 6150, Note_on_c, 5, 79, 0
7, 6180, Note_on_c, 5, 79, 110
7, 6210, Note_on_c, 5, 79, 0
7, 6240, Note_on_c, 5, 79, 110
7, 6270, Note_on_c, 5, 79, 0
7, 6300, Note_on_c, 5, 79, 110
7, 6330, Note_on_c, 5, 79, 0
7, 6360, Note_on_c, 5, 79, 110
7, 6390, Note_on_c, 5, 79, 0
7, 6420, Note_on_c, 5, 79, 110
7, 6450, Note_on_c, 5, 79, 0
7, 6480, Note_on_c, 5, 81, 100
7, 6600, Note_on_c, 5, 81, 0
7, 6600, Note_on_c, 5, 79, 100
7, 6720, Note_on_c, 5, 79, 0
7, 6720, Note_on_c, 5, 67, 100
7, 6840, Note_on_c, 5, 67, 0
7, 6840, Note_on_c, 5, 72, 100
7, 6900, Note_on_c, 5, 72, 0
7, 6900, Note_on_c, 5, 84, 100
7, 6960, Note_on_c, 5, 84, 0
7, 6960, Note_on_c, 5, 79, 100
7, 7020, Note_on_c, 5, 79, 0
7, 7020, Note_on_c, 5, 84, 100
7, 7080, Note_on_c, 5, 84, 0
7, 7080, Note_on_c, 5, 76, 100
7, 7140, Note_on_c, 5, 76, 0
7, 7140, Note_on_c, 5, 79, 100
7, 7200, Note_on_c, 5, 79, 0
7, 7200, Note_on_c, 5, 72, 100
7, 7320, Note_on_c, 5, 72, 0
7, 7560, Note_on_c, 5, 67, 100
7, 7620, Note_on_c, 5, 67, 0
7, 7620, Note_on_c, 5, 79, 100
7, 7680, Note_on_c, 5, 79, 0
7, 7680, Note_on_c, 5, 74, 100
7, 7740, Note_on_c, 5, 74, 0
7, 7740, Note_on_c, 5, 79, 100
7, 7800, Note_on_c, 5, 79, 0
7, 7800, Note_on_c, 5, 71, 100
7, 7860, Note_on_c, 5, 71, 0
7, 7860, Note_on_c, 5, 76, 100
7, 7920, Note_on_c, 5, 76, 0
7, 7920, Note_on_c, 5, 67, 100
7, 8040, Note_on_c, 5, 67, 0
7, 8280, Note_on_c, 5, 72, 100
7, 8340, Note_on_c, 5, 72, 0
7, 8340, Note_on_c, 5, 84, 100
7, 8400, Note_on_c, 5, 84, 0
7, 8400, Note_on_c, 5, 79, 100
7, 8460, Note_on_c, 5, 79, 0
7, 8460, Note_on_c, 5, 84, 100
7, 8520, Note_on_c, 5, 84, 0
7, 8520, Note_on_c, 5, 76, 100
7, 8580, Note_on_c, 5, 76, 0
7, 8580, Note_on_c, 5, 79, 100
7, 8640, Note_on_c, 5, 79, 0
7, 8640, Note_on_c, 5, 72, 100
7, 8760, Note_on_c, 5, 72, 0
7, 9000, Note_on_c, 5, 78, 110
7, 9060, Note_on_c, 5, 78, 0
7, 9060, Note_on_c, 5, 81, 110
7, 9120, Note_on_c, 5, 81, 0
7, 9120, Note_on_c, 5, 86, 110
7, 9180, Note_on_c, 5, 86, 0
7, 9180, Note_on_c, 5, 81, 110
7, 9240, Note_on_c, 5, 81, 0
7, 9240, Note_on_c, 5, 86, 110
7, 9300, Note_on_c, 5, 86, 0
7, 9300, Note_on_c, 5, 81, 110
7, 9360, Note_on_c, 5, 81, 0
7, 9360, Note_on_c, 5, 78, 110
7, 9420, Note_on_c, 5, 78, 0
7, 9720, Note_on_c, 5, 79, 110
7, 9780, Note_on_c, 5, 79, 0
7, 9780, Note_on_c, 5, 79, 110
7, 9840, Note_on_c, 5, 79, 0
7, 9840, Note_on_c, 5, 79, 110
7, 9900, Note_on_c, 5, 79, 0
7, 9900, Note_on_c, 5, 79, 110
7, 9960, Note_on_c, 5, 79, 0
7, 9960, Note_on_c, 5, 79, 110
7, 10020, Note_on_c, 5, 79, 0
7, 10020, Note_on_c, 5, 79, 110
7, 10080, Note_on_c, 5, 79, 0
7, 10080, Note_on_c, 5, 76, 110
7, 10140, Note_on_c, 5, 76, 0
7, 10140, Note_on_c, 5, 76, 110
7, 10200, Note_on_c, 5, 76, 0
7, 10200, Note_on_c, 5, 76, 110
7, 10260, Note_on_c, 5, 76, 0
7, 10260, Note_on_c, 5, 76, 110
7, 10320, Note_on_c, 5, 76, 0
7, 10320, Note_on_c, 5, 76, 110
7, 10380, Note_on_c, 5, 76, 0
7, 10380, Note_on_c, 5, 76, 110
7, 10440, Note_on_c, 5, 76, 0
7, 10440, Note_on_c, 5, 71, 110
7, 10500, Note_on_c, 5, 71, 0
7, 10500, Note_on_c, 5, 71, 110
7, 10560, Note_on_c, 5, 71, 0
7, 10560, Note_on_c, 5, 71, 110
7, 10620, Note_on_c, 5, 71, 0
7, 10620, Note_on_c, 5, 71, 110
7, 10680, Note_on_c, 5, 71, 0
7, 10680, Note_on_c, 5, 71, 110
7, 10740, Note_on_c, 5, 71, 0
7, 10740, Note_on_c, 5, 71, 110
7, 10800, Note_on_c, 5, 71, 0
7, 10800, Note_on_c, 5, 72, 110
7, 10830, Note_on_c, 5, 72, 0
7, 10860, Note_on_c, 5, 72, 110
7, 10890, Note_on_c, 5, 72, 0
7, 10920, Note_on_c, 5, 72, 110
7, 10950, Note_on_c, 5, 72, 0
7, 10980, Note_on_c, 5, 72, 110
7, 11010, Note_on_c, 5, 72, 0
7, 11040, Note_on_c, 5, 72, 110
7, 11070, Note_on_c, 5, 72, 0
7, 11100, Note_on_c, 5, 73, 110
7, 11130, Note_on_c, 5, 73, 0
7, 11160, Note_on_c, 5, 74, 110
7, 11280, Note_on_c, 5, 74, 0
7, 11280, Note_on_c, 5, 74, 110
7, 11400, Note_on_c, 5, 74, 0
7, 11520, Note_on_c, 5, 79, 70
7, 11640, Note_on_c, 5, 79, 0
7, 11880, Note_on_c, 5, 72, 70
7, 12000, Note_on_c, 5, 72, 0
7, 12240, Note_on_c, 5, 74, 70
7, 12360, Note_on_c, 5, 74, 0
7, 12600, Note_on_c, 5, 67, 70
7, 12720, Note_on_c, 5, 67, 0
7, 12960, Note_on_c, 5, 79, 70
7, 13080, Note_on_c, 5, 79, 0
7, 13320, Note_on_c, 5, 72, 70
7, 13440, Note_on_c, 5, 72, 0
7, 13680, Note_on_c, 5, 74, 70
7, 13800, Note_on_c, 5, 74, 0
7, 14400, Note_on_c, 5, 71, 100
7, 14400, Note_on_c, 5, 74, 100
7, 14460, Note_on_c, 5, 74, 0
7, 14460, Note_on_c, 5, 71, 0
7, 14520, Note_on_c, 5, 71, 100
7, 14520, Note_on_c, 5, 74, 100
7, 14580, Note_on_c, 5, 74, 0
7, 14580, Note_on_c, 5, 71, 0
7, 14640, Note_on_c, 5, 71, 100
7, 14640, Note_on_c, 5, 74, 100
7, 14700, Note_on_c, 5, 74, 0
7, 14700, Note_on_c, 5, 71, 0
7, 14760, Note_on_c, 5, 72, 100
7, 14760, Note_on_c, 5, 76, 100
7, 14940, Note_on_c, 5, 76, 0
7, 14940, Note_on_c, 5, 72, 0
7, 14940, Note_on_c, 5, 78, 100
7, 14940, Note_on_c, 5, 74, 100
7, 15000, Note_on_c, 5, 74, 0
7, 15000, Note_on_c, 5, 78, 0
7, 15000, Note_on_c, 5, 76, 100
7, 15000, Note_on_c, 5, 79, 100
7, 15120, Note_on_c, 5, 79, 0
7, 15120, Note_on_c, 5, 76, 0
7, 15120, Note_on_c, 5, 69, 100
7, 15120, Note_on_c, 5, 66, 100
7, 15135, Note_on_c, 5, 66, 0
7, 15135, Note_on_c, 5, 69, 0
7, 15135, Note_on_c, 5, 71, 100
7, 15135, Note_on_c, 5, 67, 100
7, 15150, Note_on_c, 5, 67, 0
7, 15150, Note_on_c, 5, 71, 0
7, 15150, Note_on_c, 5, 72, 100
7, 15150, Note_on_c, 5, 69, 100
7, 15240, Note_on_c, 5, 69, 0
7, 15240, Note_on_c, 5, 72, 0
7, 15480, Note_on_c, 5, 71, 100
7, 15480, Note_on_c, 5, 67, 100
7, 15495, Note_on_c, 5, 67, 0
7, 15495, Note_on_c, 5, 71, 0
7, 15495, Note_on_c, 5, 72, 100
7, 15495, Note_on_c, 5, 69, 100
7, 15510, Note_on_c, 5, 69, 0
7, 15510, Note_on_c, 5, 72, 0
7, 15510, Note_on_c, 5, 74, 100
7, 15510, Note_on_c, 5, 71, 100
7, 15600, Note_on_c, 5, 71, 0
7, 15600, Note_on_c, 5, 74, 0
7, 15840, Note_on_c, 5, 74, 100
7, 15840, Note_on_c, 5, 71, 100
7, 15900, Note_on_c, 5, 71, 0
7, 15900, Note_on_c, 5, 74, 0
7, 15960, Note_on_c, 5, 74, 100
7, 15960, Note_on_c, 5, 71, 100
7, 16020, Note_on_c, 5, 71, 0
7, 16020, Note_on_c, 5, 74, 0
7, 16080, Note_on_c, 5, 74, 100
7, 16080, Note_on_c, 5, 71, 100
7, 16140, Note_on_c, 5, 71, 0
7, 16140, Note_on_c, 5, 74, 0
7, 16200, Note_on_c, 5, 76, 100
7, 16200, Note_on_c, 5, 72, 100
7, 16290, Note_on_c, 5, 72, 0
7, 16290, Note_on_c, 5, 76, 0
7, 16290, Note_on_c, 5, 78, 100
7, 16290, Note_on_c, 5, 74, 100
7, 16320, Note_on_c, 5, 74, 0
7, 16320, Note_on_c, 5, 78, 0
7, 16320, Note_on_c, 5, 76, 100
7, 16320, Note_on_c, 5, 79, 100
7, 16380, Note_on_c, 5, 79, 0
7, 16380, Note_on_c, 5, 76, 0
7, 16380, Note_on_c, 5, 78, 100
7, 16380, Note_on_c, 5, 74, 100
7, 16410, Note_on_c, 5, 74, 0
7, 16410, Note_on_c, 5, 78, 0
7, 16440, Note_on_c, 5, 72, 100
7, 16440, Note_on_c, 5, 76, 100
7, 16470, Note_on_c, 5, 76, 0
7, 16470, Note_on_c, 5, 72, 0
7, 16500, Note_on_c, 5, 71, 100
7, 16500, Note_on_c, 5, 74, 100
7, 16530, Note_on_c, 5, 74, 0
7, 16530, Note_on_c, 5, 71, 0
7, 16530, Note_on_c, 5, 71, 100
7, 16530, Note_on_c, 5, 74, 100
7, 16560, Note_on_c, 5, 74, 0
7, 16560, Note_on_c, 5, 71, 0
7, 16560, Note_on_c, 5, 69, 100
7, 16560, Note_on_c, 5, 72, 100
7, 16680, Note_on_c, 5, 72, 0
7, 16680, Note_on_c, 5, 69, 0
7, 16680, Note_on_c, 5, 67, 100
7, 16680, Note_on_c, 5, 71, 100
7, 16800, Note_on_c, 5, 71, 0
7, 16800, Note_on_c, 5, 67, 0
7, 16800, Note_on_c, 5, 66, 100
7, 16800, Note_on_c, 5, 69, 100
7, 16920, Note_on_c, 5, 69, 0
7, 16920, Note_on_c, 5, 66, 0
7, 16920, Note_on_c, 5, 67, 110
7, 17040, Note_on_c, 5, 67, 0
7, 17160, Note_on_c, 5, 79, 110
7, 17280, Note_on_c, 5, 79, 0
7, 17280, Note_on_c, 5, 78, 110
7, 17400, Note_on_c, 5, 78, 0
7, 17520, Note_on_c, 5, 78, 110
7, 17640, Note_on_c, 5, 78, 0
7, 17640, Note_on_c, 5, 76, 110
7, 17670, Note_on_c, 5, 76, 0
7, 17670, Note_on_c, 5, 76, 110
7, 17700, Note_on_c, 5, 76, 0
7, 17700, Note_on_c, 5, 75, 110
7, 17730, Note_on_c, 5, 75, 0
7, 17730, Note_on_c, 5, 75, 110
7, 17760, Note_on_c, 5, 75, 0
7, 17760, Note_on_c, 5, 76, 110
7, 17790, Note_on_c, 5, 76, 0
7, 17790, Note_on_c, 5, 76, 110
7, 17820, Note_on_c, 5, 76, 0
7, 17820, Note_on_c, 5, 75, 110
7, 17850, Note_on_c, 5, 75, 0
7, 17850, Note_on_c, 5, 75, 110
7, 17880, Note_on_c, 5, 75, 0
7, 17880, Note_on_c, 5, 76, 110
7, 17910, Note_on_c, 5, 76, 0
7, 17910, Note_on_c, 5, 76, 110
7, 17940, Note_on_c, 5, 76, 0
7, 17940, Note_on_c, 5, 72, 110
7, 17970, Note_on_c, 5, 72, 0
7, 17970, Note_on_c, 5, 72, 110
7, 18000, Note_on_c, 5, 72, 0
7, 18000, Note_on_c, 5, 71, 110
7, 18030, Note_on_c, 5, 71, 0
7, 18030, Note_on_c, 5, 71, 110
7, 18060, Note_on_c, 5, 71, 0
7, 18060, Note_on_c, 5, 69, 110
7, 18090, Note_on_c, 5, 69, 0
7, 18090, Note_on_c, 5, 69, 110
7, 18120, Note_on_c, 5, 69, 0
7, 18120, Note_on_c, 5, 67, 110
7, 18150, Note_on_c, 5, 67, 0
7, 18150, Note_on_c, 5, 67, 110
7, 18180, Note_on_c, 5, 67, 0
7, 18180, Note_on_c, 5, 69, 110
7, 18210, Note_on_c, 5, 69, 0
7, 18210, Note_on_c, 5, 69, 110
7, 18240, Note_on_c, 5, 69, 0
7, 18240, Note_on_c, 5, 71, 110
7, 18270, Note_on_c, 5, 71, 0
7, 18270, Note_on_c, 5, 71, 110
7, 18300, Note_on_c, 5, 71, 0
7, 18300, Note_on_c, 5, 74, 110
7, 18330, Note_on_c, 5, 74, 0
7, 18330, Note_on_c, 5, 74, 110
7, 18360, Note_on_c, 5, 74, 0
7, 18360, Note_on_c, 5, 72, 110
7, 18390, Note_on_c, 5, 72, 0
7, 18420, Note_on_c, 5, 72, 110
7, 18450, Note_on_c, 5, 72, 0
7, 18480, Note_on_c, 5, 72, 110
7, 18510, Note_on_c, 5, 72, 0
7, 18540, Note_on_c, 5, 72, 110
7, 18570, Note_on_c, 5, 72, 0
7, 18600, Note_on_c, 5, 71, 110
7, 18630, Note_on_c, 5, 71, 0
7, 18660, Note_on_c, 5, 71, 110
7, 18690, Note_on_c, 5, 71, 0
7, 18720, Note_on_c, 5, 69, 110
7, 18750, Note_on_c, 5, 69, 0
7, 18780, Note_on_c, 5, 69, 110
7, 18810, Note_on_c, 5, 69, 0
7, 18840, Note_on_c, 5, 78, 110
7, 18900, Note_on_c, 5, 78, 0
7, 18900, Note_on_c, 5, 74, 110
7, 18960, Note_on_c, 5, 74, 0
7, 18960, Note_on_c, 5, 74, 110
7, 19020, Note_on_c, 5, 74, 0
7, 19020, Note_on_c, 5, 83, 110
7, 19080, Note_on_c, 5, 83, 0
7, 19080, Note_on_c, 5, 84, 110
7, 19200, Note_on_c, 5, 84, 0
7, 19200, Note_on_c, 5, 83, 110
7, 19320, Note_on_c, 5, 83, 0
7, 19320, Note_on_c, 5, 81, 110
7, 19440, Note_on_c, 5, 81, 0
7, 19440, Note_on_c, 5, 79, 110
7, 19560, Note_on_c, 5, 79, 0
7, 19560, Note_on_c, 5, 74, 110
7, 19680, Note_on_c, 5, 74, 0
7, 19680, Note_on_c, 5, 72, 110
7, 19800, Note_on_c, 5, 72, 0
7, 19800, Note_on_c, 5, 68, 110
7, 19920, Note_on_c, 5, 68, 0
7, 19920, Note_on_c, 5, 69, 110
7, 20040, Note_on_c, 5, 69, 0
7, 20280, Note_on_c, 5, 69, 70
7, 20400, Note_on_c, 5, 69, 0
7, 20400, Note_on_c, 5, 67, 70
7, 20520, Note_on_c, 5, 67, 0
7, 20520, Note_on_c, 5, 66, 70
7, 20640, Note_on_c, 5, 66, 0
7, 20640, Note_on_c, 5, 62, 70
7, 20760, Note_on_c, 5, 62, 0
7, 20760, Note_on_c, 5, 64, 70
7, 20880, Note_on_c, 5, 64, 0
7, 20880, Note_on_c, 5, 60, 70
7, 21000, Note_on_c, 5, 60, 0
7, 21000, Note_on_c, 5, 62, 70
7, 21120, Note_on_c, 5, 62, 0
7, 21120, Note_on_c, 5, 62, 70
7, 21240, Note_on_c, 5, 62, 0
7, 21240, Note_on_c, 5, 67, 110
7, 21270, Note_on_c, 5, 67, 0
7, 21270, Note_on_c, 5, 74, 110
7, 21300, Note_on_c, 5, 74, 0
7, 21300, Note_on_c, 5, 74, 110
7, 21330, Note_on_c, 5, 74, 0
7, 21330, Note_on_c, 5, 74, 110
7, 21360, Note_on_c, 5, 74, 0
7, 21360, Note_on_c, 5, 74, 110
7, 21390, Note_on_c, 5, 74, 0
7, 21420, Note_on_c, 5, 74, 110
7, 21450, Note_on_c, 5, 74, 0
7, 21480, Note_on_c, 5, 74, 110
7, 21510, Note_on_c, 5, 74, 0
7, 21540, Note_on_c, 5, 74, 110
7, 21570, Note_on_c, 5, 74, 0
7, 21600, Note_on_c, 5, 74, 110
7, 21630, Note_on_c, 5, 74, 0
7, 21660, Note_on_c, 5, 74, 110
7, 21690, Note_on_c, 5, 74, 0
7, 21720, Note_on_c, 5, 74, 110
7, 21750, Note_on_c, 5, 74, 0
7, 21780, Note_on_c, 5, 74, 110
7, 21810, Note_on_c, 5, 74, 0
7, 21840, Note_on_c, 5, 74, 110
7, 21870, Note_on_c, 5, 74, 0
7, 21900, Note_on_c, 5, 74, 110
7, 21930, Note_on_c, 5, 74, 0
7, 21960, Note_on_c, 5, 74, 110
7, 21990, Note_on_c, 5, 74, 0
7, 22020, Note_on_c, 5, 74, 110
7, 22050, Note_on_c, 5, 74, 0
7, 22080, Note_on_c, 5, 74, 110
7, 22110, Note_on_c, 5, 74, 0
7, 22140, Note_on_c, 5, 74, 110
7, 22170, Note_on_c, 5, 74, 0
7, 22200, Note_on_c, 5, 74, 110
7, 22230, Note_on_c, 5, 74, 0
7, 22260, Note_on_c, 5, 74, 110
7, 22290, Note_on_c, 5, 74, 0
7, 22320, Note_on_c, 5, 74, 110
7, 22350, Note_on_c, 5, 74, 0
7, 22380, Note_on_c, 5, 74, 110
7, 22410, Note_on_c, 5, 74, 0
7, 22440, Note_on_c, 5, 74, 110
7, 22470, Note_on_c, 5, 74, 0
7, 22500, Note_on_c, 5, 74, 110
7, 22530, Note_on_c, 5, 74, 0
7, 22560, Note_on_c, 5, 74, 110
7, 22590, Note_on_c, 5, 74, 0
7, 22620, Note_on_c, 5, 74, 110
7, 22650, Note_on_c, 5, 74, 0
7, 22680, Note_on_c, 5, 79, 110
7, 22800, Note_on_c, 5, 79, 0
7, 22920, Note_on_c, 5, 74, 110
7, 23040, Note_on_c, 5, 74, 0
7, 23040, Note_on_c, 5, 79, 110
7, 23160, Note_on_c, 5, 79, 0
7, 23280, Note_on_c, 5, 74, 110
7, 23400, Note_on_c, 5, 74, 0
7, 23400, Note_on_c, 5, 67, 100
7, 23520, Note_on_c, 5, 67, 0
7, 23520, Note_on_c, 5, 67, 100
7, 23580, Note_on_c, 5, 67, 0
7, 23580, Note_on_c, 5, 69, 100
7, 23640, Note_on_c, 5, 69, 0
7, 23640, Note_on_c, 5, 71, 100
7, 23700, Note_on_c, 5, 71, 0
7, 23700, Note_on_c, 5, 72, 100
7, 23760, Note_on_c, 5, 72, 0
7, 23760, Note_on_c, 5, 74, 100
7, 23820, Note_on_c, 5, 74, 0
7, 23820, Note_on_c, 5, 76, 100
7, 23880, Note_on_c, 5, 76, 0
7, 23880, Note_on_c, 5, 77, 100
7, 23940, Note_on_c, 5, 77, 0
7, 23940, Note_on_c, 5, 74, 100
7, 24000, Note_on_c, 5, 74, 0
7, 24000, Note_on_c, 5, 71, 100
7, 24060, Note_on_c, 5, 71, 0
7, 24060, Note_on_c, 5, 67, 100
7, 24120, Note_on_c, 5, 67, 0
7, 24120, Note_on_c, 5, 84, 110
7, 24240, Note_on_c, 5, 84, 0
7, 24240, Note_on_c, 5, 79, 110
7, 24360, Note_on_c, 5, 79, 0
7, 24480, Note_on_c, 5, 76, 110
7, 24600, Note_on_c, 5, 76, 0
7, 24600, Note_on_c, 5, 72, 110
7, 24720, Note_on_c, 5, 72, 0
7, 26280, Note_on_c, 5, 84, 110
7, 26400, Note_on_c, 5, 84, 0
7, 26400, Note_on_c, 5, 79, 110
7, 26520, Note_on_c, 5, 79, 0
7, 26640, Note_on_c, 5, 76, 110
7, 26760, Note_on_c, 5, 76, 0
7, 26760, Note_on_c, 5, 72, 110
7, 26880, Note_on_c, 5, 72, 0
7, 28440, Note_on_c, 5, 76, 110
7, 28440, Note_on_c, 5, 67, 110
7, 28470, Note_on_c, 5, 76, 0
7, 28500, Note_on_c, 5, 76, 110
7, 28530, Note_on_c, 5, 76, 0
7, 28560, Note_on_c, 5, 76, 110
7, 28590, Note_on_c, 5, 76, 0
7, 28620, Note_on_c, 5, 76, 110
7, 28650, Note_on_c, 5, 76, 0
7, 28680, Note_on_c, 5, 67, 0
7, 28680, Note_on_c, 5, 79, 110
7, 28710, Note_on_c, 5, 79, 0
7, 28740, Note_on_c, 5, 79, 110
7, 28770, Note_on_c, 5, 79, 0
7, 28800, Note_on_c, 5, 81, 110
7, 28830, Note_on_c, 5, 81, 0
7, 28860, Note_on_c, 5, 81, 110
7, 28890, Note_on_c, 5, 81, 0
7, 28920, Note_on_c, 5, 81, 110
7, 28950, Note_on_c, 5, 81, 0
7, 28980, Note_on_c, 5, 81, 110
7, 29010, Note_on_c, 5, 81, 0
7, 29040, Note_on_c, 5, 79, 110
7, 29070, Note_on_c, 5, 79, 0
7, 29100, Note_on_c, 5, 79, 110
7, 29130, Note_on_c, 5, 79, 0
7, 29160, Note_on_c, 5, 76, 110
7, 29190, Note_on_c, 5, 76, 0
7, 29220, Note_on_c, 5, 76, 110
7, 29250, Note_on_c, 5, 76, 0
7, 29280, Note_on_c, 5, 76, 110
7, 29310, Note_on_c, 5, 76, 0
7, 29340, Note_on_c, 5, 76, 110
7, 29370, Note_on_c, 5, 76, 0
7, 29400, Note_on_c, 5, 76, 110
7, 29430, Note_on_c, 5, 76, 0
7, 29430, Note_on_c, 5, 76, 110
7, 29460, Note_on_c, 5, 76, 0
7, 29460, Note_on_c, 5, 74, 110
7, 29490, Note_on_c, 5, 74, 0
7, 29490, Note_on_c, 5, 74, 110
7, 29520, Note_on_c, 5, 74, 0
7, 29520, Note_on_c, 5, 77, 110
7, 29550, Note_on_c, 5, 77, 0
7, 29580, Note_on_c, 5, 77, 110
7, 29610, Note_on_c, 5, 77, 0
7, 29640, Note_on_c, 5, 79, 110
7, 29670, Note_on_c, 5, 79, 0
7, 29700, Note_on_c, 5, 79, 110
7, 29730, Note_on_c, 5, 79, 0
7, 29760, Note_on_c, 5, 79, 110
7, 29790, Note_on_c, 5, 79, 0
7, 29820, Note_on_c, 5, 79, 110
7, 29850, Note_on_c, 5, 79, 0
7, 29880, Note_on_c, 5, 79, 110
7, 29910, Note_on_c, 5, 79, 0
7, 29940, Note_on_c, 5, 79, 110
7, 29970, Note_on_c, 5, 79, 0
7, 30000, Note_on_c, 5, 81, 110
7, 30030, Note_on_c, 5, 81, 0
7, 30060, Note_on_c, 5, 81, 110
7, 30090, Note_on_c, 5, 81, 0
7, 30120, Note_on_c, 5, 79, 110
7, 30150, Note_on_c, 5, 79, 0
7, 30180, Note_on_c, 5, 79, 110
7, 30210, Note_on_c, 5, 79, 0
7, 30240, Note_on_c, 5, 79, 110
7, 30270, Note_on_c, 5, 79, 0
7, 30300, Note_on_c, 5, 79, 110
7, 30330, Note_on_c, 5, 79, 0
7, 30360, Note_on_c, 5, 79, 110
7, 30390, Note_on_c, 5, 79, 0
7, 30420, Note_on_c, 5, 79, 110
7, 30450, Note_on_c, 5, 79, 0
7, 30480, Note_on_c, 5, 79, 110
7, 30510, Note_on_c, 5, 79, 0
7, 30540, Note_on_c, 5, 79, 110
7, 30570, Note_on_c, 5, 79, 0
7, 30600, Note_on_c, 5, 81, 100
7, 30720, Note_on_c, 5, 81, 0
7, 30720, Note_on_c, 5, 79, 100
7, 30840, Note_on_c, 5, 79, 0
7, 30840, Note_on_c, 5, 67, 100
7, 30960, Note_on_c, 5, 67, 0
7, 30960, Note_on_c, 5, 72, 100
7, 31020, Note_on_c, 5, 72, 0
7, 31020, Note_on_c, 5, 84, 100
7, 31080, Note_on_c, 5, 84, 0
7, 31080, Note_on_c, 5, 79, 100
7, 31140, Note_on_c, 5, 79, 0
7, 31140, Note_on_c, 5, 84, 100
7, 31200, Note_on_c, 5, 84, 0
7, 31200, Note_on_c, 5, 76, 100
7, 31260, Note_on_c, 5, 76, 0
7, 31260, Note_on_c, 5, 79, 100
7, 31320, Note_on_c, 5, 79, 0
7, 31320, Note_on_c, 5, 72, 100
7, 31440, Note_on_c, 5, 72, 0
7, 31680, Note_on_c, 5, 67, 100
7, 31740, Note_on_c, 5, 67, 0
7, 31740, Note_on_c, 5, 79, 100
7, 31800, Note_on_c, 5, 79, 0
7, 31800, Note_on_c, 5, 74, 100
7, 31860, Note_on_c, 5, 74, 0
7, 31860, Note_on_c, 5, 79, 100
7, 31920, Note_on_c, 5, 79, 0
7, 31920, Note_on_c, 5, 71, 100
7, 31980, Note_on_c, 5, 71, 0
7, 31980, Note_on_c, 5, 76, 100
7, 32040, Note_on_c, 5, 76, 0
7, 32040, Note_on_c, 5, 67, 100
7, 32160, Note_on_c, 5, 67, 0
7, 32400, Note_on_c, 5, 72, 100
7, 32460, Note_on_c, 5, 72, 0
7, 32460, Note_on_c, 5, 84, 100
7, 32520, Note_on_c, 5, 84, 0
7, 32520, Note_on_c, 5, 79, 100
7, 32580, Note_on_c, 5, 79, 0
7, 32580, Note_on_c, 5, 84, 100
7, 32640, Note_on_c, 5, 84, 0
7, 32640, Note_on_c, 5, 76, 100
7, 32700, Note_on_c, 5, 76, 0
7, 32700, Note_on_c, 5, 79, 100
7, 32760, Note_on_c, 5, 79, 0
7, 32760, Note_on_c, 5, 72, 100
7, 32880, Note_on_c, 5, 72, 0
7, 33120, Note_on_c, 5, 78, 110
7, 33180, Note_on_c, 5, 78, 0
7, 33180, Note_on_c, 5, 81, 110
7, 33240, Note_on_c, 5, 81, 0
7, 33240, Note_on_c, 5, 86, 110
7, 33300, Note_on_c, 5, 86, 0
7, 33300, Note_on_c, 5, 81, 110
7, 33360, Note_on_c, 5, 81, 0
7, 33360, Note_on_c, 5, 86, 110
7, 33420, Note_on_c, 5, 86, 0
7, 33420, Note_on_c, 5, 81, 110
7, 33480, Note_on_c, 5, 81, 0
7, 33480, Note_on_c, 5, 78, 110
7, 33540, Note_on_c, 5, 78, 0
7, 33840, Note_on_c, 5, 79, 110
7, 33900, Note_on_c, 5, 79, 0
7, 33900, Note_on_c, 5, 79, 110
7, 33960, Note_on_c, 5, 79, 0
7, 33960, Note_on_c, 5, 79, 110
7, 34020, Note_on_c, 5, 79, 0
7, 34020, Note_on_c, 5, 79, 110
7, 34080, Note_on_c, 5, 79, 0
7, 34080, Note_on_c, 5, 79, 110
7, 34140, Note_on_c, 5, 79, 0
7, 34140, Note_on_c, 5, 79, 110
7, 34200, Note_on_c, 5, 79, 0
7, 34200, Note_on_c, 5, 76, 110
7, 34260, Note_on_c, 5, 76, 0
7, 34260, Note_on_c, 5, 76, 110
7, 34320, Note_on_c, 5, 76, 0
7, 34320, Note_on_c, 5, 76, 110
7, 34380, Note_on_c, 5, 76, 0
7, 34380, Note_on_c, 5, 76, 110
7, 34440, Note_on_c, 5, 76, 0
7, 34440, Note_on_c, 5, 76, 110
7, 34500, Note_on_c, 5, 76, 0
7, 34500, Note_on_c, 5, 76, 110
7, 34560, Note_on_c, 5, 76, 0
7, 34560, Note_on_c, 5, 71, 110
7, 34620, Note_on_c, 5, 71, 0
7, 34620, Note_on_c, 5, 71, 110
7, 34680, Note_on_c, 5, 71, 0
7, 34680, Note_on_c, 5, 71, 110
7, 34740, Note_on_c, 5, 71, 0
7, 34740, Note_on_c, 5, 71, 110
7, 34800, Note_on_c, 5, 71, 0
7, 34800, Note_on_c, 5, 71, 110
7, 34860, Note_on_c, 5, 71, 0
7, 34860, Note_on_c, 5, 71, 110
7, 34920, Note_on_c, 5, 71, 0
7, 34920, Note_on_c, 5, 72, 110
7, 34950, Note_on_c, 5, 72, 0
7, 34980, Note_on_c, 5, 72, 110
7, 35010, Note_on_c, 5, 72, 0
7, 35040, Note_on_c, 5, 72, 110
7, 35070, Note_on_c, 5, 72, 0
7, 35100, Note_on_c, 5, 72, 110
7, 35130, Note_on_c, 5, 72, 0
7, 35160, Note_on_c, 5, 72, 110
7, 35190, Note_on_c, 5, 72, 0
7, 35220, Note_on_c, 5, 73, 110
7, 35250, Note_on_c, 5, 73, 0
7, 35280, Note_on_c, 5, 74, 110
7, 35400, Note_on_c, 5, 74, 0
7, 35400, Note_on_c, 5, 74, 110
7, 35520, Note_on_c, 5, 74, 0
7, 35640, Note_on_c, 5, 79, 70
7, 35760, Note_on_c, 5, 79, 0
7, 36000, Note_on_c, 5, 72, 70
7, 36120, Note_on_c, 5, 72, 0
7, 36360, Note_on_c, 5, 74, 70
7, 36480, Note_on_c, 5, 74, 0
7, 36720, Note_on_c, 5, 67, 70
7, 36840, Note_on_c, 5, 67, 0
7, 37080, Note_on_c, 5, 79, 70
7, 37200, Note_on_c, 5, 79, 0
7, 37440, Note_on_c, 5, 72, 70
7, 37560, Note_on_c, 5, 72, 0
7, 37800, Note_on_c, 5, 74, 70
7, 37920, Note_on_c, 5, 74, 0
7, 38520, Note_on_c, 5, 71, 100
7, 38520, Note_on_c, 5, 74, 100
7, 38580, Note_on_c, 5, 74, 0
7, 38580, Note_on_c, 5, 71, 0
7, 38640, Note_on_c, 5, 71, 100
7, 38640, Note_on_c, 5, 74, 100
7, 38700, Note_on_c, 5, 74, 0
7, 38700, Note_on_c, 5, 71, 0
7, 38760, Note_on_c, 5, 71, 100
7, 38760, Note_on_c, 5, 74, 100
7, 38820, Note_on_c, 5, 74, 0
7, 38820, Note_on_c, 5, 71, 0
7, 38880, Note_on_c, 5, 72, 100
7, 38880, Note_on_c, 5, 76, 100
7, 39060, Note_on_c, 5, 76, 0
7, 39060, Note_on_c, 5, 72, 0
7, 39060, Note_on_c, 5, 78, 100
7, 39060, Note_on_c, 5, 74, 100
7, 39120, Note_on_c, 5, 74, 0
7, 39120, Note_on_c, 5, 78, 0
7, 39120, Note_on_c, 5, 76, 100
7, 39120, Note_on_c, 5, 79, 100
7, 39240, Note_on_c, 5, 79, 0
7, 39240, Note_on_c, 5, 76, 0
7, 39240, Note_on_c, 5, 69, 100
7, 39240, Note_on_c, 5, 66, 100
7, 39255, Note_on_c, 5, 66, 0
7, 39255, Note_on_c, 5, 69, 0
7, 39255, Note_on_c, 5, 71, 100
7, 39255, Note_on_c, 5, 67, 100
7, 39270, Note_on_c, 5, 67, 0
7, 39270, Note_on_c, 5, 71, 0
7, 39270, Note_on_c, 5, 72, 100
7, 39270, Note_on_c, 5, 69, 100
7, 39360, Note_on_c, 5, 69, 0
7, 39360, Note_on_c, 5, 72, 0
7, 39600, Note_on_c, 5, 71, 100
7, 39600, Note_on_c, 5, 67, 100
7, 39615, Note_on_c, 5, 67, 0
7, 39615, Note_on_c, 5, 71, 0
7, 39615, Note_on_c, 5, 72, 100
7, 39615, Note_on_c, 5, 69, 100
7, 39630, Note_on_c, 5, 69, 0
7, 39630, Note_on_c, 5, 72, 0
7, 39630, Note_on_c, 5, 74, 100
7, 39630, Note_on_c, 5, 71, 100
7, 39720, Note_on_c, 5, 71, 0
7, 39720, Note_on_c, 5, 74, 0
7, 39960, Note_on_c, 5, 74, 100
7, 39960, Note_on_c, 5, 71, 100
7, 40020, Note_on_c, 5, 71, 0
7, 40020, Note_on_c, 5, 74, 0
7, 40080, Note_on_c, 5, 74, 100
7, 40080, Note_on_c, 5, 71, 100
7, 40140, Note_on_c, 5, 71, 0
7, 40140, Note_on_c, 5, 74, 0
7, 40200, Note_on_c, 5, 74, 100
7, 40200, Note_on_c, 5, 71, 100
7, 40260, Note_on_c, 5, 71, 0
7, 40260, Note_on_c, 5, 74, 0
7, 40320, Note_on_c, 5, 76, 100
7, 40320, Note_on_c, 5, 72, 100
7, 40410, Note_on_c, 5, 72, 0
7, 40410, Note_on_c, 5, 76, 0
7, 40410, Note_on_c, 5, 78, 100
7, 40410, Note_on_c, 5, 74, 100
7, 40440, Note_on_c, 5, 74, 0
7, 40440, Note_on_c, 5, 78, 0
7, 40440, Note_on_c, 5, 76, 100
7, 40440, Note_on_c, 5, 79, 100
7, 40500, Note_on_c, 5, 79, 0
7, 40500, Note_on_c, 5, 76, 0
7, 40500, Note_on_c, 5, 78, 100
7, 40500, Note_on_c, 5, 74, 100
7, 40530, Note_on_c, 5, 74, 0
7, 40530, Note_on_c, 5, 78, 0
7, 40560, Note_on_c, 5, 72, 100
7, 40560, Note_on_c, 5, 76, 100
7, 40590, Note_on_c, 5, 76, 0
7, 40590, Note_on_c, 5, 72, 0
7, 40620, Note_on_c, 5, 71, 100
7, 40620, Note_on_c, 5, 74, 100
7, 40650, Note_on_c, 5, 74, 0
7, 40650, Note_on_c, 5, 71, 0
7, 40650, Note_on_c, 5, 71, 100
7, 40650, Note_on_c, 5, 74, 100
7, 40680, Note_on_c, 5, 74, 0
7, 40680, Note_on_c, 5, 71, 0
7, 40680, Note_on_c, 5, 69, 100
7, 40680, Note_on_c, 5, 72, 100
7, 40800, Note_on_c, 5, 72, 0
7, 40800, Note_on_c, 5, 69, 0
7, 40800, Note_on_c, 5, 67, 100
7, 40800, Note_on_c, 5, 71, 100
7, 40920, Note_on_c, 5, 71, 0
7, 40920, Note_on_c, 5, 67, 0
7, 40920, Note_on_c, 5, 66, 100
7, 40920, Note_on_c, 5, 69, 100
7, 41040, Note_on_c, 5, 69, 0
7, 41040, Note_on_c, 5, 66, 0
7, 41040, Note_on_c, 5, 67, 110
7, 41160, Note_on_c, 5, 67, 0
7, 41280, Note_on_c, 5, 79, 110
7, 41400, Note_on_c, 5, 79, 0
7, 41400, Note_on_c, 5, 78, 110
7, 41520, Note_on_c, 5, 78, 0
7, 41640, Note_on_c, 5, 78, 110
7, 41760, Note_on_c, 5, 78, 0
7, 41760, Note_on_c, 5, 76, 110
7, 41790, Note_on_c, 5, 76, 0
7, 41790, Note_on_c, 5, 76, 110
7, 41820, Note_on_c, 5, 76, 0
7, 41820, Note_on_c, 5, 75, 110
7, 41850, Note_on_c, 5, 75, 0
7, 41850, Note_on_c, 5, 75, 110
7, 41880, Note_on_c, 5, 75, 0
7, 41880, Note_on_c, 5, 76, 110
7, 41910, Note_on_c, 5, 76, 0
7, 41910, Note_on_c, 5, 76, 110
7, 41940, Note_on_c, 5, 76, 0
7, 41940, Note_on_c, 5, 75, 110
7, 41970, Note_on_c, 5, 75, 0
7, 41970, Note_on_c, 5, 75, 110
7, 42000, Note_on_c, 5, 75, 0
7, 42000, Note_on_c, 5, 76, 110
7, 42030, Note_on_c, 5, 76, 0
7, 42030, Note_on_c, 5, 76, 110
7, 42060, Note_on_c, 5, 76, 0
7, 42060, Note_on_c, 5, 72, 110
7, 42090, Note_on_c, 5, 72, 0
7, 42090, Note_on_c, 5, 72, 110
7, 42120, Note_on_c, 5, 72, 0
7, 42120, Note_on_c, 5, 71, 110
7, 42150, Note_on_c, 5, 71, 0
7, 42150, Note_on_c, 5, 71, 110
7, 42180, Note_on_c, 5, 71, 0
7, 42180, Note_on_c, 5, 69, 110
7, 42210, Note_on_c, 5, 69, 0
7, 42210, Note_on_c, 5, 69, 110
7, 42240, Note_on_c, 5, 69, 0
7, 42240, Note_on_c, 5, 67, 110
7, 42270, Note_on_c, 5, 67, 0
7, 42270, Note_on_c, 5, 67, 110
7, 42300, Note_on_c, 5, 67, 0
7, 42300, Note_on_c, 5, 69, 110
7, 42330, Note_on_c, 5, 69, 0
7, 42330, Note_on_c, 5, 69, 110
7, 42360, Note_on_c, 5, 69, 0
7, 42360, Note_on_c, 5, 71, 110
7, 42390, Note_on_c, 5, 71, 0
7, 42390, Note_on_c, 5, 71, 110
7, 42420, Note_on_c, 5, 71, 0
7, 42420, Note_on_c, 5, 74, 110
7, 42450, Note_on_c, 5, 74, 0
7, 42450, Note_on_c, 5, 74, 110
7, 42480, Note_on_c, 5, 74, 0
7, 42480, Note_on_c, 5, 72, 110
7, 42510, Note_on_c, 5, 72, 0
7, 42540, Note_on_c, 5, 72, 110
7, 42570, Note_on_c, 5, 72, 0
7, 42600, Note_on_c, 5, 72, 110
7, 42630, Note_on_c, 5, 72, 0
7, 42660, Note_on_c, 5, 72, 110
7, 42690, Note_on_c, 5, 72, 0
7, 42720, Note_on_c, 5, 71, 110
7, 42750, Note_on_c, 5, 71, 0
7, 42780, Note_on_c, 5, 71, 110
7, 42810, Note_on_c, 5, 71, 0
7, 42840, Note_on_c, 5, 69, 110
7, 42870, Note_on_c, 5, 69, 0
7, 42900, Note_on_c, 5, 69, 110
7, 42930, Note_on_c, 5, 69, 0
7, 42960, Note_on_c, 5, 78, 110
7, 43020, Note_on_c, 5, 78, 0
7, 43020, Note_on_c, 5, 74, 110
7, 43080, Note_on_c, 5, 74, 0
7, 43080, Note_on_c, 5, 74, 110
7, 43140, Note_on_c, 5, 74, 0
7, 43140, Note_on_c, 5, 83, 110
7, 43200, Note_on_c, 5, 83, 0
7, 43200, Note_on_c, 5, 84, 110
7, 43320, Note_on_c, 5, 84, 0
7, 43320, Note_on_c, 5, 83, 110
7, 43440, Note_on_c, 5, 83, 0
7, 43440, Note_on_c, 5, 81, 110
7, 43560, Note_on_c, 5, 81, 0
7, 43560, Note_on_c, 5, 79, 110
7, 43680, Note_on_c, 5, 79, 0
7, 43680, Note_on_c, 5, 74, 110
7, 43800, Note_on_c, 5, 74, 0
7, 43800, Note_on_c, 5, 72, 110
7, 43920, Note_on_c, 5, 72, 0
7, 43920, Note_on_c, 5, 68, 110
7, 44040, Note_on_c, 5, 68, 0
7, 44040, Note_on_c, 5, 69, 110
7, 44160, Note_on_c, 5, 69, 0
7, 44400, Note_on_c, 5, 69, 70
7, 44520, Note_on_c, 5, 69, 0
7, 44520, Note_on_c, 5, 67, 70
7, 44640, Note_on_c, 5, 67, 0
7, 44640, Note_on_c, 5, 66, 70
7, 44760, Note_on_c, 5, 66, 0
7, 44760, Note_on_c, 5, 62, 70
7, 44880, Note_on_c, 5, 62, 0
7, 44880, Note_on_c, 5, 64, 70
7, 45000, Note_on_c, 5, 64, 0
7, 45000, Note_on_c, 5, 60, 70
7, 45120, Note_on_c, 5, 60, 0
7, 45120, Note_on_c, 5, 62, 70
7, 45240, Note_on_c, 5, 62, 0
7, 45240, Note_on_c, 5, 62, 70
7, 45360, Note_on_c, 5, 62, 0
7, 45360, Note_on_c, 5, 67, 110
7, 45390, Note_on_c, 5, 67, 0
7, 45390, Note_on_c, 5, 74, 110
7, 45420, Note_on_c, 5, 74, 0
7, 45420, Note_on_c, 5, 74, 110
7, 45450, Note_on_c, 5, 74, 0
7, 45450, Note_on_c, 5, 74, 110
7, 45480, Note_on_c, 5, 74, 0
7, 45480, Note_on_c, 5, 74, 110
7, 45510, Note_on_c, 5, 74, 0
7, 45540, Note_on_c, 5, 74, 110
7, 45570, Note_on_c, 5, 74, 0
7, 45600, Note_on_c, 5, 74, 110
7, 45630, Note_on_c, 5, 74, 0
7, 45660, Note_on_c, 5, 74, 110
7, 45690, Note_on_c, 5, 74, 0
7, 45720, Note_on_c, 5, 74, 110
7, 45750, Note_on_c, 5, 74, 0
7, 45780, Note_on_c, 5, 74, 110
7, 45810, Note_on_c, 5, 74, 0
7, 45840, Note_on_c, 5, 74, 110
7, 45870, Note_on_c, 5, 74, 0
7, 45900, Note_on_c, 5, 74, 110
7, 45930, Note_on_c, 5, 74, 0
7, 45960, Note_on_c, 5, 74, 110
7, 45990, Note_on_c, 5, 74, 0
7, 46020, Note_on_c, 5, 74, 110
7, 46050, Note_on_c, 5, 74, 0
7, 46080, Note_on_c, 5, 74, 110
7, 46110, Note_on_c, 5, 74, 0
7, 46140, Note_on_c, 5, 74, 110
7, 46170, Note_on_c, 5, 74, 0
7, 46200, Note_on_c, 5, 74, 110
7, 46230, Note_on_c, 5, 74, 0
7, 46260, Note_on_c, 5, 74, 110
7, 46290, Note_on_c, 5, 74, 0
7, 46320, Note_on_c, 5, 74, 110
7, 46350, Note_on_c, 5, 74, 0
7, 46380, Note_on_c, 5, 74, 110
7, 46410, Note_on_c, 5, 74, 0
7, 46440, Note_on_c, 5, 74, 110
7, 46470, Note_on_c, 5, 74, 0
7, 46500, Note_on_c, 5, 74, 110
7, 46530, Note_on_c, 5, 74, 0
7, 46560, Note_on_c, 5, 74, 110
7, 46590, Note_on_c, 5, 74, 0
7, 46620, Note_on_c, 5, 74, 110
7, 46650, Note_on_c, 5, 74, 0
7, 46680, Note_on_c, 5, 74, 110
7, 46710, Note_on_c, 5, 74, 0
7, 46740, Note_on_c, 5, 74, 110
7, 46770, Note_on_c, 5, 74, 0
7, 46800, Note_on_c, 5, 79, 110
7, 46920, Note_on_c, 5, 79, 0
7, 47040, Note_on_c, 5, 74, 110
7, 47160, Note_on_c, 5, 74, 0
7, 47160, Note_on_c, 5, 79, 110
7, 47280, Note_on_c, 5, 79, 0
7, 47400, Note_on_c, 5, 74, 110
7, 47520, Note_on_c, 5, 74, 0
7, 47520, Note_on_c, 5, 67, 100
7, 47640, Note_on_c, 5, 67, 0
7, 47640, Note_on_c, 5, 67, 100
7, 47700, Note_on_c, 5, 67, 0
7, 47700, Note_on_c, 5, 69, 100
7, 47760, Note_on_c, 5, 69, 0
7, 47760, Note_on_c, 5, 71, 100
7, 47820, Note_on_c, 5, 71, 0
7, 47820, Note_on_c, 5, 72, 100
7, 47880, Note_on_c, 5, 72, 0
7, 47880, Note_on_c, 5, 74, 100
7, 47940, Note_on_c, 5, 74, 0
7, 47940, Note_on_c, 5, 76, 100
7, 48000, Note_on_c, 5, 76, 0
7, 48000, Note_on_c, 5, 77, 100
7, 48060, Note_on_c, 5, 77, 0
7, 48060, Note_on_c, 5, 74, 100
7, 48120, Note_on_c, 5, 74, 0
7, 48120, Note_on_c, 5, 71, 100
7, 48180, Note_on_c, 5, 71, 0
7, 48180, Note_on_c, 5, 67, 100
7, 48240, Note_on_c, 5, 67, 0
7, 48240, Note_on_c, 5, 72, 110
7, 48360, Note_on_c, 5, 72, 0
7, 48960, Note_on_c, 5, 84, 110
7, 48975, Note_on_c, 5, 84, 0
7, 48975, Note_on_c, 5, 86, 110
7, 48990, Note_on_c, 5, 86, 0
7, 48990, Note_on_c, 5, 84, 110
7, 49005, Note_on_c, 5, 84, 0
7, 49005, Note_on_c, 5, 86, 110
7, 49020, Note_on_c, 5, 86, 0
7, 49020, Note_on_c, 5, 84, 110
7, 49035, Note_on_c, 5, 84, 0
7, 49035, Note_on_c, 5, 86, 110
7, 49050, Note_on_c, 5, 86, 0
7, 49050, Note_on_c, 5, 83, 110
7, 49065, Note_on_c, 5, 83, 0
7, 49065, Note_on_c, 5, 84, 110
7, 49080, Note_on_c, 5, 84, 0
7, 49080, Note_on_c, 5, 86, 110
7, 49140, Note_on_c, 5, 86, 0
7, 49140, Note_on_c, 5, 84, 110
7, 49170, Note_on_c, 5, 84, 0
7, 49200, Note_on_c, 5, 82, 110
7, 49230, Note_on_c, 5, 82, 0
7, 49260, Note_on_c, 5, 81, 110
7, 49290, Note_on_c, 5, 81, 0
7, 49320, Note_on_c, 5, 82, 110
7, 49335, Note_on_c, 5, 82, 0
7, 49335, Note_on_c, 5, 84, 110
7, 49350, Note_on_c, 5, 84, 0
7, 49350, Note_on_c, 5, 82, 110
7, 49365, Note_on_c, 5, 82, 0
7, 49365, Note_on_c, 5, 84, 110
7, 49380, Note_on_c, 5, 84, 0
7, 49380, Note_on_c, 5, 82, 110
7, 49395, Note_on_c, 5, 82, 0
7, 49395, Note_on_c, 5, 84, 110
7, 49410, Note_on_c, 5, 84, 0
7, 49410, Note_on_c, 5, 81, 110
7, 49425, Note_on_c, 5, 81, 0
7, 49425, Note_on_c, 5, 82, 110
7, 49440, Note_on_c, 5, 82, 0
7, 49440, Note_on_c, 5, 84, 110
7, 49500, Note_on_c, 5, 84, 0
7, 49500, Note_on_c, 5, 82, 110
7, 49530, Note_on_c, 5, 82, 0
7, 49560, Note_on_c, 5, 81, 110
7, 49590, Note_on_c, 5, 81, 0
7, 49620, Note_on_c, 5, 79, 110
7, 49650, Note_on_c, 5, 79, 0
7, 49680, Note_on_c, 5, 81, 110
7, 49800, Note_on_c, 5, 81, 0
7, 49800, Note_on_c, 5, 69, 70
7, 49920, Note_on_c, 5, 69, 0
7, 49920, Note_on_c, 5, 65, 70
7, 50040, Note_on_c, 5, 65, 0
7, 50040, Note_on_c, 5, 67, 70
7, 50160, Note_on_c, 5, 67, 0
7, 50160, Note_on_c, 5, 67, 70
7, 50280, Note_on_c, 5, 67, 0
7, 50280, Note_on_c, 5, 64, 70
7, 50400, Note_on_c, 5, 64, 0
7, 50400, Note_on_c, 5, 65, 70
7, 50520, Note_on_c, 5, 65, 0
7, 50520, Note_on_c, 5, 69, 70
7, 50640, Note_on_c, 5, 69, 0
7, 50640, Note_on_c, 5, 65, 70
7, 50760, Note_on_c, 5, 65, 0
7, 50760, Note_on_c, 5, 67, 70
7, 50820, Note_on_c, 5, 67, 0
7, 50880, Note_on_c, 5, 67, 70
7, 51000, Note_on_c, 5, 67, 0
7, 51000, Note_on_c, 5, 64, 70
7, 51120, Note_on_c, 5, 64, 0
7, 51120, Note_on_c, 5, 65, 70
7, 51240, Note_on_c, 5, 65, 0
7, 51360, Note_on_c, 5, 72, 70
7, 51480, Note_on_c, 5, 72, 0
7, 51480, Note_on_c, 5, 72, 70
7, 51600, Note_on_c, 5, 72, 0
7, 51720, Note_on_c, 5, 67, 70
7, 51840, Note_on_c, 5, 67, 0
7, 51840, Note_on_c, 5, 65, 70
7, 51960, Note_on_c, 5, 65, 0
7, 51960, Note_on_c, 5, 74, 70
7, 52080, Note_on_c, 5, 74, 0
7, 52080, Note_on_c, 5, 71, 70
7, 52200, Note_on_c, 5, 71, 0
7, 52200, Note_on_c, 5, 71, 70
7, 52230, Note_on_c, 5, 71, 0
7, 52230, Note_on_c, 5, 72, 70
7, 52320, Note_on_c, 5, 72, 0
7, 52320, Note_on_c, 5, 72, 70
7, 52350, Note_on_c, 5, 72, 0
7, 52380, Note_on_c, 5, 72, 70
7, 52410, Note_on_c, 5, 72, 0
7, 52440, Note_on_c, 5, 72, 70
7, 52470, Note_on_c, 5, 72, 0
7, 52500, Note_on_c, 5, 72, 70
7, 52530, Note_on_c, 5, 72, 0
7, 52560, Note_on_c, 5, 67, 70
7, 52680, Note_on_c, 5, 67, 0
7, 52800, Note_on_c, 5, 79, 70
7, 52920, Note_on_c, 5, 79, 0
7, 52920, Note_on_c, 5, 79, 70
7, 53040, Note_on_c, 5, 79, 0
7, 53160, Note_on_c, 5, 74, 70
7, 53280, Note_on_c, 5, 74, 0
7, 53280, Note_on_c, 5, 72, 70
7, 53400, Note_on_c, 5, 72, 0
7, 53400, Note_on_c, 5, 69, 70
7, 53520, Note_on_c, 5, 69, 0
7, 53520, Note_on_c, 5, 66, 70
7, 53640, Note_on_c, 5, 66, 0
7, 53640, Note_on_c, 5, 67, 70
7, 53760, Note_on_c, 5, 67, 0
7, 54360, Note_on_c, 5, 67, 70
7, 54480, Note_on_c, 5, 67, 0
7, 55080, Note_on_c, 5, 67, 70
7, 55200, Note_on_c, 5, 67, 0
7, 55440, Note_on_c, 5, 67, 70
7, 55560, Note_on_c, 5, 67, 0
7, 55800, Note_on_c, 5, 67, 70
7, 55920, Note_on_c, 5, 67, 0
7, 56520, Note_on_c, 5, 84, 110
7, 56640, Note_on_c, 5, 84, 0
7, 56640, Note_on_c, 5, 79, 110
7, 56760, Note_on_c, 5, 79, 0
7, 56880, Note_on_c, 5, 76, 110
7, 57000, Note_on_c, 5, 76, 0
7, 57000, Note_on_c, 5, 72, 110
7, 57120, Note_on_c, 5, 72, 0
7, 58680, Note_on_c, 5, 84, 110
7, 58800, Note_on_c, 5, 84, 0
7, 58800, Note_on_c, 5, 79, 110
7, 58920, Note_on_c, 5, 79, 0
7, 59040, Note_on_c, 5, 76, 110
7, 59160, Note_on_c, 5, 76, 0
7, 59160, Note_on_c, 5, 72, 110
7, 59280, Note_on_c, 5, 72, 0
7, 60840, Note_on_c, 5, 76, 110
7, 60840, Note_on_c, 5, 67, 110
7, 60870, Note_on_c, 5, 76, 0
7, 60900, Note_on_c, 5, 76, 110
7, 60930, Note_on_c, 5, 76, 0
7, 60960, Note_on_c, 5, 76, 110
7, 60990, Note_on_c, 5, 76, 0
7, 61020, Note_on_c, 5, 76, 110
7, 61050, Note_on_c, 5, 76, 0
7, 61080, Note_on_c, 5, 67, 0
7, 61080, Note_on_c, 5, 79, 110
7, 61110, Note_on_c, 5, 79, 0
7, 61140, Note_on_c, 5, 79, 110
7, 61170, Note_on_c, 5, 79, 0
7, 61200, Note_on_c, 5, 81, 110
7, 61230, Note_on_c, 5, 81, 0
7, 61260, Note_on_c, 5, 81, 110
7, 61290, Note_on_c, 5, 81, 0
7, 61320, Note_on_c, 5, 81, 110
7, 61350, Note_on_c, 5, 81, 0
7, 61380, Note_on_c, 5, 81, 110
7, 61410, Note_on_c, 5, 81, 0
7, 61440, Note_on_c, 5, 79, 110
7, 61470, Note_on_c, 5, 79, 0
7, 61500, Note_on_c, 5, 79, 110
7, 61530, Note_on_c, 5, 79, 0
7, 61560, Note_on_c, 5, 76, 110
7, 61590, Note_on_c, 5, 76, 0
7, 61620, Note_on_c, 5, 76, 110
7, 61650, Note_on_c, 5, 76, 0
7, 61680, Note_on_c, 5, 76, 110
7, 61710, Note_on_c, 5, 76, 0
7, 61740, Note_on_c, 5, 76, 110
7, 61770, Note_on_c, 5, 76, 0
7, 61800, Note_on_c, 5, 76, 110
7, 61830, Note_on_c, 5, 76, 0
7, 61830, Note_on_c, 5, 76, 110
7, 61860, Note_on_c, 5, 76, 0
7, 61860, Note_on_c, 5, 74, 110
7, 61890, Note_on_c, 5, 74, 0
7, 61890, Note_on_c, 5, 74, 110
7, 61920, Note_on_c, 5, 74, 0
7, 61920, Note_on_c, 5, 77, 110
7, 61950, Note_on_c, 5, 77, 0
7, 61980, Note_on_c, 5, 77, 110
7, 62010, Note_on_c, 5, 77, 0
7, 62040, Note_on_c, 5, 79, 110
7, 62070, Note_on_c, 5, 79, 0
7, 62100, Note_on_c, 5, 79, 110
7, 62130, Note_on_c, 5, 79, 0
7, 62160, Note_on_c, 5, 79, 110
7, 62190, Note_on_c, 5, 79, 0
7, 62220, Note_on_c, 5, 79, 110
7, 62250, Note_on_c, 5, 79, 0
7, 62280, Note_on_c, 5, 79, 110
7, 62310, Note_on_c, 5, 79, 0
7, 62340, Note_on_c, 5, 79, 110
7, 62370, Note_on_c, 5, 79, 0
7, 62400, Note_on_c, 5, 81, 110
7, 62430, Note_on_c, 5, 81, 0
7, 62460, Note_on_c, 5, 81, 110
7, 62490, Note_on_c, 5, 81, 0
7, 62520, Note_on_c, 5, 79, 110
7, 62550, Note_on_c, 5, 79, 0
7, 62580, Note_on_c, 5, 79, 110
7, 62610, Note_on_c, 5, 79, 0
7, 62640, Note_on_c, 5, 79, 110
7, 62670, Note_on_c, 5, 79, 0
7, 62700, Note_on_c, 5, 79, 110
7, 62730, Note_on_c, 5, 79, 0
7, 62760, Note_on_c, 5, 79, 110
7, 62790, Note_on_c, 5, 79, 0
7, 62820, Note_on_c, 5, 79, 110
7, 62850, Note_on_c, 5, 79, 0
7, 62880, Note_on_c, 5, 79, 110
7, 62910, Note_on_c, 5, 79, 0
7, 62940, Note_on_c, 5, 79, 110
7, 62970, Note_on_c, 5, 79, 0
7, 63000, Note_on_c, 5, 81, 100
7, 63120, Note_on_c, 5, 81, 0
7, 63120, Note_on_c, 5, 79, 100
7, 63240, Note_on_c, 5, 79, 0
7, 63240, Note_on_c, 5, 67, 100
7, 63360, Note_on_c, 5, 67, 0
7, 63360, Note_on_c, 5, 72, 100
7, 63420, Note_on_c, 5, 72, 0
7, 63420, Note_on_c, 5, 79, 100
7, 63480, Note_on_c, 5, 79, 0
7, 63480, Note_on_c, 5, 84, 100
7, 63540, Note_on_c, 5, 84, 0
7, 63540, Note_on_c, 5, 79, 100
7, 63600, Note_on_c, 5, 79, 0
7, 63600, Note_on_c, 5, 76, 100
7, 63660, Note_on_c, 5, 76, 0
7, 63660, Note_on_c, 5, 72, 100
7, 63720, Note_on_c, 5, 72, 0
7, 63720, Note_on_c, 5, 70, 100
7, 63840, Note_on_c, 5, 70, 0
7, 64080, Note_on_c, 5, 69, 100
7, 64140, Note_on_c, 5, 69, 0
7, 64140, Note_on_c, 5, 77, 100
7, 64200, Note_on_c, 5, 77, 0
7, 64200, Note_on_c, 5, 81, 100
7, 64260, Note_on_c, 5, 81, 0
7, 64260, Note_on_c, 5, 77, 100
7, 64320, Note_on_c, 5, 77, 0
7, 64320, Note_on_c, 5, 72, 100
7, 64380, Note_on_c, 5, 72, 0
7, 64380, Note_on_c, 5, 77, 100
7, 64440, Note_on_c, 5, 77, 0
7, 64440, Note_on_c, 5, 69, 100
7, 64560, Note_on_c, 5, 69, 0
7, 64800, Note_on_c, 5, 67, 100
7, 64860, Note_on_c, 5, 67, 0
7, 64860, Note_on_c, 5, 79, 100
7, 64920, Note_on_c, 5, 79, 0
7, 64920, Note_on_c, 5, 85, 100
7, 64980, Note_on_c, 5, 85, 0
7, 64980, Note_on_c, 5, 79, 100
7, 65040, Note_on_c, 5, 79, 0
7, 65040, Note_on_c, 5, 88, 100
7, 65100, Note_on_c, 5, 88, 0
7, 65100, Note_on_c, 5, 85, 100
7, 65160, Note_on_c, 5, 85, 0
7, 65160, Note_on_c, 5, 79, 100
7, 65280, Note_on_c, 5, 79, 0
7, 65520, Note_on_c, 5, 65, 110
7, 65580, Note_on_c, 5, 65, 0
7, 65580, Note_on_c, 5, 77, 110
7, 65640, Note_on_c, 5, 77, 0
7, 65640, Note_on_c, 5, 81, 110
7, 65700, Note_on_c, 5, 81, 0
7, 65700, Note_on_c, 5, 77, 110
7, 65760, Note_on_c, 5, 77, 0
7, 65760, Note_on_c, 5, 86, 110
7, 65820, Note_on_c, 5, 86, 0
7, 65820, Note_on_c, 5, 81, 110
7, 65880, Note_on_c, 5, 81, 0
7, 65880, Note_on_c, 5, 77, 110
7, 66000, Note_on_c, 5, 77, 0
7, 66240, Note_on_c, 5, 78, 110
7, 66300, Note_on_c, 5, 78, 0
7, 66300, Note_on_c, 5, 81, 110
7, 66360, Note_on_c, 5, 81, 0
7, 66360, Note_on_c, 5, 86, 110
7, 66420, Note_on_c, 5, 86, 0
7, 66420, Note_on_c, 5, 81, 110
7, 66480, Note_on_c, 5, 81, 0
7, 66480, Note_on_c, 5, 86, 110
7, 66540, Note_on_c, 5, 86, 0
7, 66540, Note_on_c, 5, 81, 110
7, 66600, Note_on_c, 5, 81, 0
7, 66600, Note_on_c, 5, 78, 110
7, 66720, Note_on_c, 5, 78, 0
7, 66960, Note_on_c, 5, 67, 110
7, 67020, Note_on_c, 5, 67, 0
7, 67020, Note_on_c, 5, 79, 110
7, 67080, Note_on_c, 5, 79, 0
7, 67080, Note_on_c, 5, 86, 110
7, 67140, Note_on_c, 5, 86, 0
7, 67140, Note_on_c, 5, 83, 110
7, 67200, Note_on_c, 5, 83, 0
7, 67200, Note_on_c, 5, 79, 110
7, 67260, Note_on_c, 5, 79, 0
7, 67260, Note_on_c, 5, 74, 110
7, 67320, Note_on_c, 5, 74, 0
7, 67320, Note_on_c, 5, 71, 110
7, 67440, Note_on_c, 5, 71, 0
7, 67680, Note_on_c, 5, 72, 110
7, 67740, Note_on_c, 5, 72, 0
7, 67740, Note_on_c, 5, 72, 110
7, 67800, Note_on_c, 5, 72, 0
7, 67800, Note_on_c, 5, 72, 110
7, 67860, Note_on_c, 5, 72, 0
7, 67860, Note_on_c, 5, 72, 110
7, 67920, Note_on_c, 5, 72, 0
7, 67920, Note_on_c, 5, 72, 110
7, 67980, Note_on_c, 5, 72, 0
7, 67980, Note_on_c, 5, 72, 110
7, 68040, Note_on_c, 5, 72, 0
7, 68040, Note_on_c, 5, 81, 110
7, 68100, Note_on_c, 5, 81, 0
7, 68100, Note_on_c, 5, 81, 110
7, 68160, Note_on_c, 5, 81, 0
7, 68160, Note_on_c, 5, 81, 110
7, 68220, Note_on_c, 5, 81, 0
7, 68220, Note_on_c, 5, 81, 110
7, 68280, Note_on_c, 5, 81, 0
7, 68280, Note_on_c, 5, 81, 110
7, 68340, Note_on_c, 5, 81, 0
7, 68340, Note_on_c, 5, 81, 110
7, 68400, Note_on_c, 5, 81, 0
7, 68400, Note_on_c, 5, 76, 110
7, 68460, Note_on_c, 5, 76, 0
7, 68460, Note_on_c, 5, 76, 110
7, 68520, Note_on_c, 5, 76, 0
7, 68520, Note_on_c, 5, 76, 110
7, 68580, Note_on_c, 5, 76, 0
7, 68580, Note_on_c, 5, 76, 110
7, 68640, Note_on_c, 5, 76, 0
7, 68640, Note_on_c, 5, 76, 110
7, 68700, Note_on_c, 5, 76, 0
7, 68700, Note_on_c, 5, 76, 110
7, 68760, Note_on_c, 5, 76, 0
7, 68760, Note_on_c, 5, 77, 110
7, 68820, Note_on_c, 5, 77, 0
7, 68820, Note_on_c, 5, 77, 110
7, 68880, Note_on_c, 5, 77, 0
7, 68880, Note_on_c, 5, 77, 110
7, 68940, Note_on_c, 5, 77, 0
7, 68940, Note_on_c, 5, 77, 110
7, 69000, Note_on_c, 5, 77, 0
7, 69000, Note_on_c, 5, 77, 110
7, 69060, Note_on_c, 5, 77, 0
7, 69060, Note_on_c, 5, 78, 110
7, 69120, Note_on_c, 5, 78, 0
7, 69120, Note_on_c, 5, 79, 110
7, 69240, Note_on_c, 5, 79, 0
7, 69240, Note_on_c, 5, 67, 110
7, 69360, Note_on_c, 5, 67, 0
7, 69480, Note_on_c, 5, 72, 70
7, 69600, Note_on_c, 5, 72, 0
7, 69840, Note_on_c, 5, 65, 70
7, 69960, Note_on_c, 5, 65, 0
7, 70200, Note_on_c, 5, 67, 70
7, 70320, Note_on_c, 5, 67, 0
7, 70560, Note_on_c, 5, 60, 70
7, 70680, Note_on_c, 5, 60, 0
7, 70920, Note_on_c, 5, 72, 70
7, 71040, Note_on_c, 5, 72, 0
7, 71280, Note_on_c, 5, 65, 70
7, 71400, Note_on_c, 5, 65, 0
7, 71640, Note_on_c, 5, 67, 70
7, 71760, Note_on_c, 5, 67, 0
7, 72360, Note_on_c, 5, 76, 70
7, 72360, Note_on_c, 5, 79, 70
7, 72420, Note_on_c, 5, 79, 0
7, 72420, Note_on_c, 5, 76, 0
7, 72480, Note_on_c, 5, 76, 70
7, 72480, Note_on_c, 5, 79, 70
7, 72540, Note_on_c, 5, 79, 0
7, 72540, Note_on_c, 5, 76, 0
7, 72600, Note_on_c, 5, 76, 70
7, 72600, Note_on_c, 5, 79, 70
7, 72660, Note_on_c, 5, 79, 0
7, 72660, Note_on_c, 5, 76, 0
7, 72720, Note_on_c, 5, 76, 70
7, 72720, Note_on_c, 5, 79, 70
7, 72900, Note_on_c, 5, 79, 0
7, 72900, Note_on_c, 5, 76, 0
7, 72900, Note_on_c, 5, 77, 70
7, 72900, Note_on_c, 5, 81, 70
7, 72960, Note_on_c, 5, 81, 0
7, 72960, Note_on_c, 5, 77, 0
7, 72960, Note_on_c, 5, 79, 70
7, 72960, Note_on_c, 5, 83, 70
7, 73080, Note_on_c, 5, 83, 0
7, 73080, Note_on_c, 5, 79, 0
7, 73080, Note_on_c, 5, 74, 70
7, 73080, Note_on_c, 5, 71, 70
7, 73095, Note_on_c, 5, 71, 0
7, 73095, Note_on_c, 5, 74, 0
7, 73095, Note_on_c, 5, 72, 70
7, 73095, Note_on_c, 5, 76, 70
7, 73110, Note_on_c, 5, 76, 0
7, 73110, Note_on_c, 5, 72, 0
7, 73110, Note_on_c, 5, 74, 70
7, 73110, Note_on_c, 5, 77, 70
7, 73200, Note_on_c, 5, 77, 0
7, 73200, Note_on_c, 5, 74, 0
7, 73440, Note_on_c, 5, 72, 70
7, 73440, Note_on_c, 5, 76, 70
7, 73455, Note_on_c, 5, 76, 0
7, 73455, Note_on_c, 5, 72, 0
7, 73455, Note_on_c, 5, 74, 70
7, 73455, Note_on_c, 5, 77, 70
7, 73470, Note_on_c, 5, 77, 0
7, 73470, Note_on_c, 5, 74, 0
7, 73470, Note_on_c, 5, 76, 70
7, 73470, Note_on_c, 5, 79, 70
7, 73560, Note_on_c, 5, 79, 0
7, 73560, Note_on_c, 5, 76, 0
7, 73800, Note_on_c, 5, 76, 70
7, 73800, Note_on_c, 5, 79, 70
7, 73860, Note_on_c, 5, 79, 0
7, 73860, Note_on_c, 5, 76, 0
7, 73920, Note_on_c, 5, 76, 70
7, 73920, Note_on_c, 5, 79, 70
7, 73980, Note_on_c, 5, 79, 0
7, 73980, Note_on_c, 5, 76, 0
7, 74040, Note_on_c, 5, 76, 70
7, 74040, Note_on_c, 5, 79, 70
7, 74100, Note_on_c, 5, 79, 0
7, 74100, Note_on_c, 5, 76, 0
7, 74160, Note_on_c, 5, 77, 70
7, 74160, Note_on_c, 5, 81, 70
7, 74250, Note_on_c, 5, 81, 0
7, 74250, Note_on_c, 5, 77, 0
7, 74250, Note_on_c, 5, 79, 70
7, 74250, Note_on_c, 5, 83, 70
7, 74280, Note_on_c, 5, 83, 0
7, 74280, Note_on_c, 5, 79, 0
7, 74280, Note_on_c, 5, 81, 70
7, 74280, Note_on_c, 5, 84, 70
7, 74340, Note_on_c, 5, 84, 0
7, 74340, Note_on_c, 5, 81, 0
7, 74340, Note_on_c, 5, 79, 70
7, 74340, Note_on_c, 5, 83, 70
7, 74370, Note_on_c, 5, 83, 0
7, 74370, Note_on_c, 5, 79, 0
7, 74400, Note_on_c, 5, 77, 70
7, 74400, Note_on_c, 5, 81, 70
7, 74430, Note_on_c, 5, 81, 0
7, 74430, Note_on_c, 5, 77, 0
7, 74460, Note_on_c, 5, 76, 70
7, 74460, Note_on_c, 5, 79, 70
7, 74490, Note_on_c, 5, 79, 0
7, 74490, Note_on_c, 5, 76, 0
7, 74490, Note_on_c, 5, 76, 70
7, 74490, Note_on_c, 5, 79, 70
7, 74520, Note_on_c, 5, 79, 0
7, 74520, Note_on_c, 5, 76, 0
7, 74520, Note_on_c, 5, 74, 70
7, 74520, Note_on_c, 5, 77, 70
7, 74640, Note_on_c, 5, 77, 0
7, 74640, Note_on_c, 5, 74, 0
7, 74640, Note_on_c, 5, 72, 70
7, 74640, Note_on_c, 5, 76, 70
7, 74760, Note_on_c, 5, 76, 0
7, 74760, Note_on_c, 5, 72, 0
7, 74760, Note_on_c, 5, 71, 70
7, 74760, Note_on_c, 5, 74, 70
7, 74880, Note_on_c, 5, 74, 0
7, 74880, Note_on_c, 5, 71, 0
7, 74880, Note_on_c, 5, 72, 110
7, 75000, Note_on_c, 5, 72, 0
7, 75120, Note_on_c, 5, 76, 110
7, 75240, Note_on_c, 5, 76, 0
7, 75240, Note_on_c, 5, 74, 110
7, 75360, Note_on_c, 5, 74, 0
7, 75480, Note_on_c, 5, 71, 110
7, 75600, Note_on_c, 5, 71, 0
7, 75600, Note_on_c, 5, 69, 110
7, 75630, Note_on_c, 5, 69, 0
7, 75630, Note_on_c, 5, 69, 110
7, 75660, Note_on_c, 5, 69, 0
7, 75660, Note_on_c, 5, 68, 110
7, 75690, Note_on_c, 5, 68, 0
7, 75690, Note_on_c, 5, 68, 110
7, 75720, Note_on_c, 5, 68, 0
7, 75720, Note_on_c, 5, 69, 110
7, 75750, Note_on_c, 5, 69, 0
7, 75750, Note_on_c, 5, 69, 110
7, 75780, Note_on_c, 5, 69, 0
7, 75780, Note_on_c, 5, 68, 110
7, 75810, Note_on_c, 5, 68, 0
7, 75810, Note_on_c, 5, 68, 110
7, 75840, Note_on_c, 5, 68, 0
7, 75840, Note_on_c, 5, 69, 110
7, 75870, Note_on_c, 5, 69, 0
7, 75870, Note_on_c, 5, 69, 110
7, 75900, Note_on_c, 5, 69, 0
7, 75900, Note_on_c, 5, 65, 110
7, 75930, Note_on_c, 5, 65, 0
7, 75930, Note_on_c, 5, 65, 110
7, 75960, Note_on_c, 5, 65, 0
7, 75960, Note_on_c, 5, 64, 110
7, 75990, Note_on_c, 5, 64, 0
7, 75990, Note_on_c, 5, 64, 110
7, 76020, Note_on_c, 5, 64, 0
7, 76020, Note_on_c, 5, 62, 110
7, 76050, Note_on_c, 5, 62, 0
7, 76050, Note_on_c, 5, 62, 110
7, 76080, Note_on_c, 5, 62, 0
7, 76080, Note_on_c, 5, 60, 110
7, 76110, Note_on_c, 5, 60, 0
7, 76110, Note_on_c, 5, 60, 110
7, 76140, Note_on_c, 5, 60, 0
7, 76140, Note_on_c, 5, 62, 110
7, 76170, Note_on_c, 5, 62, 0
7, 76170, Note_on_c, 5, 62, 110
7, 76200, Note_on_c, 5, 62, 0
7, 76200, Note_on_c, 5, 64, 110
7, 76230, Note_on_c, 5, 64, 0
7, 76230, Note_on_c, 5, 64, 110
7, 76260, Note_on_c, 5, 64, 0
7, 76260, Note_on_c, 5, 67, 110
7, 76290, Note_on_c, 5, 67, 0
7, 76290, Note_on_c, 5, 67, 110
7, 76320, Note_on_c, 5, 67, 0
7, 76320, Note_on_c, 5, 65, 110
7, 76350, Note_on_c, 5, 65, 0
7, 76380, Note_on_c, 5, 65, 110
7, 76410, Note_on_c, 5, 65, 0
7, 76440, Note_on_c, 5, 77, 110
7, 76470, Note_on_c, 5, 77, 0
7, 76500, Note_on_c, 5, 77, 110
7, 76530, Note_on_c, 5, 77, 0
7, 76560, Note_on_c, 5, 76, 110
7, 76590, Note_on_c, 5, 76, 0
7, 76620, Note_on_c, 5, 76, 110
7, 76650, Note_on_c, 5, 76, 0
7, 76680, Note_on_c, 5, 74, 110
7, 76710, Note_on_c, 5, 74, 0
7, 76740, Note_on_c, 5, 74, 110
7, 76770, Note_on_c, 5, 74, 0
7, 76800, Note_on_c, 5, 83, 110
7, 76860, Note_on_c, 5, 83, 0
7, 76860, Note_on_c, 5, 79, 110
7, 76920, Note_on_c, 5, 79, 0
7, 76920, Note_on_c, 5, 79, 110
7, 76980, Note_on_c, 5, 79, 0
7, 76980, Note_on_c, 5, 76, 110
7, 77040, Note_on_c, 5, 76, 0
7, 77040, Note_on_c, 5, 81, 110
7, 77160, Note_on_c, 5, 81, 0
7, 77160, Note_on_c, 5, 79, 110
7, 77280, Note_on_c, 5, 79, 0
7, 77280, Note_on_c, 5, 77, 110
7, 77400, Note_on_c, 5, 77, 0
7, 77400, Note_on_c, 5, 76, 110
7, 77460, Note_on_c, 5, 76, 0
7, 77520, Note_on_c, 5, 79, 110
7, 77580, Note_on_c, 5, 79, 0
7, 77640, Note_on_c, 5, 77, 110
7, 77700, Note_on_c, 5, 77, 0
7, 77760, Note_on_c, 5, 73, 110
7, 77880, Note_on_c, 5, 73, 0
7, 77880, Note_on_c, 5, 74, 110
7, 78000, Note_on_c, 5, 74, 0
7, 79200, Note_on_c, 5, 67, 110
7, 79200, Note_on_c, 5, 79, 110
7, 79230, Note_on_c, 5, 79, 0
7, 79230, Note_on_c, 5, 67, 0
7, 79260, Note_on_c, 5, 67, 110
7, 79260, Note_on_c, 5, 79, 110
7, 79290, Note_on_c, 5, 79, 0
7, 79290, Note_on_c, 5, 67, 0
7, 79320, Note_on_c, 5, 67, 110
7, 79320, Note_on_c, 5, 79, 110
7, 79350, Note_on_c, 5, 79, 0
7, 79350, Note_on_c, 5, 67, 0
7, 79380, Note_on_c, 5, 67, 110
7, 79380, Note_on_c, 5, 79, 110
7, 79410, Note_on_c, 5, 79, 0
7, 79410, Note_on_c, 5, 67, 0
7, 79440, Note_on_c, 5, 67, 110
7, 79440, Note_on_c, 5, 79, 110
7, 79470, Note_on_c, 5, 79, 0
7, 79470, Note_on_c, 5, 67, 0
7, 79500, Note_on_c, 5, 67, 110
7, 79500, Note_on_c, 5, 79, 110
7, 79530, Note_on_c, 5, 79, 0
7, 79530, Note_on_c, 5, 67, 0
7, 79560, Note_on_c, 5, 67, 110
7, 79560, Note_on_c, 5, 79, 110
7, 79590, Note_on_c, 5, 79, 0
7, 79590, Note_on_c, 5, 67, 0
7, 79620, Note_on_c, 5, 67, 110
7, 79620, Note_on_c, 5, 79, 110
7, 79650, Note_on_c, 5, 79, 0
7, 79650, Note_on_c, 5, 67, 0
7, 79680, Note_on_c, 5, 67, 110
7, 79680, Note_on_c, 5, 79, 110
7, 79710, Note_on_c, 5, 79, 0
7, 79710, Note_on_c, 5, 67, 0
7, 79740, Note_on_c, 5, 67, 110
7, 79740, Note_on_c, 5, 79, 110
7, 79770, Note_on_c, 5, 79, 0
7, 79770, Note_on_c, 5, 67, 0
7, 79800, Note_on_c, 5, 67, 110
7, 79800, Note_on_c, 5, 79, 110
7, 79830, Note_on_c, 5, 79, 0
7, 79830, Note_on_c, 5, 67, 0
7, 79860, Note_on_c, 5, 67, 110
7, 79860, Note_on_c, 5, 79, 110
7, 79890, Note_on_c, 5, 79, 0
7, 79890, Note_on_c, 5, 67, 0
7, 79920, Note_on_c, 5, 67, 110
7, 79920, Note_on_c, 5, 79, 110
7, 79950, Note_on_c, 5, 79, 0
7, 79950, Note_on_c, 5, 67, 0
7, 79980, Note_on_c, 5, 67, 110
7, 79980, Note_on_c, 5, 79, 110
7, 80010, Note_on_c, 5, 79, 0
7, 80010, Note_on_c, 5, 67, 0
7, 80040, Note_on_c, 5, 67, 110
7, 80040, Note_on_c, 5, 79, 110
7, 80070, Note_on_c, 5, 79, 0
7, 80070, Note_on_c, 5, 67, 0
7, 80100, Note_on_c, 5, 67, 110
7, 80100, Note_on_c, 5, 79, 110
7, 80130, Note_on_c, 5, 79, 0
7, 80130, Note_on_c, 5, 67, 0
7, 80160, Note_on_c, 5, 67, 110
7, 80160, Note_on_c, 5, 79, 110
7, 80190, Note_on_c, 5, 79, 0
7, 80190, Note_on_c, 5, 67, 0
7, 80220, Note_on_c, 5, 67, 110
7, 80220, Note_on_c, 5, 79, 110
7, 80250, Note_on_c, 5, 79, 0
7, 80250, Note_on_c, 5, 67, 0
7, 80280, Note_on_c, 5, 67, 110
7, 80280, Note_on_c, 5, 79, 110
7, 80310, Note_on_c, 5, 79, 0
7, 80310, Note_on_c, 5, 67, 0
7, 80340, Note_on_c, 5, 67, 110
7, 80340, Note_on_c, 5, 79, 110
7, 80370, Note_on_c, 5, 79, 0
7, 80370, Note_on_c, 5, 67, 0
7, 80400, Note_on_c, 5, 67, 110
7, 80400, Note_on_c, 5, 79, 110
7, 80430, Note_on_c, 5, 79, 0
7, 80430, Note_on_c, 5, 67, 0
7, 80460, Note_on_c, 5, 67, 110
7, 80460, Note_on_c, 5, 79, 110
7, 80490, Note_on_c, 5, 79, 0
7, 80490, Note_on_c, 5, 67, 0
7, 80520, Note_on_c, 5, 67, 110
7, 80520, Note_on_c, 5, 79, 110
7, 80550, Note_on_c, 5, 79, 0
7, 80550, Note_on_c, 5, 67, 0
7, 80580, Note_on_c, 5, 67, 110
7, 80580, Note_on_c, 5, 79, 110
7, 80610, Note_on_c, 5, 79, 0
7, 80610, Note_on_c, 5, 67, 0
7, 80640, Note_on_c, 5, 72, 110
7, 80760, Note_on_c, 5, 72, 0
7, 80880, Note_on_c, 5, 79, 110
7, 81000, Note_on_c, 5, 79, 0
7, 81000, Note_on_c, 5, 72, 110
7, 81120, Note_on_c, 5, 72, 0
7, 81240, Note_on_c, 5, 79, 110
7, 81360, Note_on_c, 5, 79, 0
7, 81360, Note_on_c, 5, 84, 110
7, 81480, Note_on_c, 5, 84, 0
7, 81480, Note_on_c, 5, 79, 110
7, 81600, Note_on_c, 5, 79, 0
7, 81720, Note_on_c, 5, 76, 110
7, 81840, Note_on_c, 5, 76, 0
7, 81840, Note_on_c, 5, 72, 110
7, 81960, Note_on_c, 5, 72, 0
7, 83520, Note_on_c, 5, 72, 110
7, 83640, Note_on_c, 5, 72, 0
7, 84240, Note_on_c, 5, 84, 110
7, 84255, Note_on_c, 5, 84, 0
7, 84255, Note_on_c, 5, 86, 110
7, 84270, Note_on_c, 5, 86, 0
7, 84270, Note_on_c, 5, 84, 110
7, 84285, Note_on_c, 5, 84, 0
7, 84285, Note_on_c, 5, 86, 110
7, 84300, Note_on_c, 5, 86, 0
7, 84300, Note_on_c, 5, 84, 110
7, 84315, Note_on_c, 5, 84, 0
7, 84315, Note_on_c, 5, 86, 110
7, 84330, Note_on_c, 5, 86, 0
7, 84330, Note_on_c, 5, 83, 110
7, 84345, Note_on_c, 5, 83, 0
7, 84345, Note_on_c, 5, 84, 110
7, 84360, Note_on_c, 5, 84, 0
7, 84360, Note_on_c, 5, 86, 110
7, 84420, Note_on_c, 5, 86, 0
7, 84420, Note_on_c, 5, 84, 110
7, 84450, Note_on_c, 5, 84, 0
7, 84480, Note_on_c, 5, 82, 110
7, 84510, Note_on_c, 5, 82, 0
7, 84540, Note_on_c, 5, 81, 110
7, 84570, Note_on_c, 5, 81, 0
7, 84600, Note_on_c, 5, 82, 110
7, 84615, Note_on_c, 5, 82, 0
7, 84615, Note_on_c, 5, 84, 110
7, 84630, Note_on_c, 5, 84, 0
7, 84630, Note_on_c, 5, 82, 110
7, 84645, Note_on_c, 5, 82, 0
7, 84645, Note_on_c, 5, 84, 110
7, 84660, Note_on_c, 5, 84, 0
7, 84660, Note_on_c, 5, 82, 110
7, 84675, Note_on_c, 5, 82, 0
7, 84675, Note_on_c, 5, 84, 110
7, 84690, Note_on_c, 5, 84, 0
7, 84690, Note_on_c, 5, 81, 110
7, 84705, Note_on_c, 5, 81, 0
7, 84705, Note_on_c, 5, 82, 110
7, 84720, Note_on_c, 5, 82, 0
7, 84720, Note_on_c, 5, 84, 110
7, 84780, Note_on_c, 5, 84, 0
7, 84780, Note_on_c, 5, 82, 110
7, 84810, Note_on_c, 5, 82, 0
7, 84840, Note_on_c, 5, 81, 110
7, 84870, Note_on_c, 5, 81, 0
7, 84900, Note_on_c, 5, 79, 110
7, 84930, Note_on_c, 5, 79, 0
7, 84960, Note_on_c, 5, 81, 110
7, 85080, Note_on_c, 5, 81, 0
7, 85080, Note_on_c, 5, 69, 70
7, 85200, Note_on_c, 5, 69, 0
7, 85200, Note_on_c, 5, 65, 70
7, 85320, Note_on_c, 5, 65, 0
7, 85320, Note_on_c, 5, 67, 70
7, 85440, Note_on_c, 5, 67, 0
7, 85440, Note_on_c, 5, 67, 70
7, 85560, Note_on_c, 5, 67, 0
7, 85560, Note_on_c, 5, 64, 70
7, 85680, Note_on_c, 5, 64, 0
7, 85680, Note_on_c, 5, 65, 70
7, 85800, Note_on_c, 5, 65, 0
7, 85800, Note_on_c, 5, 69, 70
7, 85920, Note_on_c, 5, 69, 0
7, 85920, Note_on_c, 5, 65, 70
7, 86040, Note_on_c, 5, 65, 0
7, 86040, Note_on_c, 5, 67, 70
7, 86100, Note_on_c, 5, 67, 0
7, 86160, Note_on_c, 5, 67, 70
7, 86280, Note_on_c, 5, 67, 0
7, 86280, Note_on_c, 5, 64, 70
7, 86400, Note_on_c, 5, 64, 0
7, 86400, Note_on_c, 5, 65, 70
7, 86520, Note_on_c, 5, 65, 0
7, 86640, Note_on_c, 5, 72, 70
7, 86760, Note_on_c, 5, 72, 0
7, 86760, Note_on_c, 5, 72, 70
7, 86880, Note_on_c, 5, 72, 0
7, 87000, Note_on_c, 5, 67, 70
7, 87120, Note_on_c, 5, 67, 0
7, 87120, Note_on_c, 5, 65, 70
7, 87240, Note_on_c, 5, 65, 0
7, 87240, Note_on_c, 5, 74, 70
7, 87360, Note_on_c, 5, 74, 0
7, 87360, Note_on_c, 5, 71, 70
7, 87480, Note_on_c, 5, 71, 0
7, 87480, Note_on_c, 5, 71, 70
7, 87510, Note_on_c, 5, 71, 0
7, 87510, Note_on_c, 5, 72, 70
7, 87600, Note_on_c, 5, 72, 0
7, 87600, Note_on_c, 5, 72, 70
7, 87630, Note_on_c, 5, 72, 0
7, 87660, Note_on_c, 5, 72, 70
7, 87690, Note_on_c, 5, 72, 0
7, 87720, Note_on_c, 5, 72, 70
7, 87750, Note_on_c, 5, 72, 0
7, 87780, Note_on_c, 5, 72, 70
7, 87810, Note_on_c, 5, 72, 0
7, 87840, Note_on_c, 5, 67, 70
7, 87960, Note_on_c, 5, 67, 0
7, 88080, Note_on_c, 5, 79, 70
7, 88200, Note_on_c, 5, 79, 0
7, 88200, Note_on_c, 5, 79, 70
7, 88320, Note_on_c, 5, 79, 0
7, 88440, Note_on_c, 5, 74, 70
7, 88560, Note_on_c, 5, 74, 0
7, 88560, Note_on_c, 5, 72, 70
7, 88680, Note_on_c, 5, 72, 0
7, 88680, Note_on_c, 5, 69, 70
7, 88800, Note_on_c, 5, 69, 0
7, 88800, Note_on_c, 5, 66, 70
7, 88920, Note_on_c, 5, 66, 0
7, 88920, Note_on_c, 5, 67, 70
7, 89040, Note_on_c, 5, 67, 0
7, 89640, Note_on_c, 5, 67, 70
7, 89760, Note_on_c, 5, 67, 0
7, 90360, Note_on_c, 5, 67, 70
7, 90480, Note_on_c, 5, 67, 0
7, 90720, Note_on_c, 5, 67, 70
7, 90840, Note_on_c, 5, 67, 0
7, 91080, Note_on_c, 5, 67, 70
7, 91200, Note_on_c, 5, 67, 0
7, 91800, Note_on_c, 5, 84, 110
7, 91920, Note_on_c, 5, 84, 0
7, 91920, Note_on_c, 5, 79, 110
7, 92040, Note_on_c, 5, 79, 0
7, 92160, Note_on_c, 5, 76, 110
7, 92280, Note_on_c, 5, 76, 0
7, 92280, Note_on_c, 5, 72, 110
7, 92400, Note_on_c, 5, 72, 0
7, 93960, Note_on_c, 5, 84, 110
7, 94080, Note_on_c, 5, 84, 0
7, 94080, Note_on_c, 5, 79, 110
7, 94200, Note_on_c, 5, 79, 0
7, 94320, Note_on_c, 5, 76, 110
7, 94440, Note_on_c, 5, 76, 0
7, 94440, Note_on_c, 5, 72, 110
7, 94560, Note_on_c, 5, 72, 0
7, 96120, Note_on_c, 5, 76, 110
7, 96120, Note_on_c, 5, 67, 110
7, 96150, Note_on_c, 5, 76, 0
7, 96180, Note_on_c, 5, 76, 110
7, 96210, Note_on_c, 5, 76, 0
7, 96240, Note_on_c, 5, 76, 110
7, 96270, Note_on_c, 5, 76, 0
7, 96300, Note_on_c, 5, 76, 110
7, 96330, Note_on_c, 5, 76, 0
7, 96360, Note_on_c, 5, 67, 0
7, 96360, Note_on_c, 5, 79, 110
7, 96390, Note_on_c, 5, 79, 0
7, 96420, Note_on_c, 5, 79, 110
7, 96450, Note_on_c, 5, 79, 0
7, 96480, Note_on_c, 5, 81, 110
7, 96510, Note_on_c, 5, 81, 0
7, 96540, Note_on_c, 5, 81, 110
7, 96570, Note_on_c, 5, 81, 0
7, 96600, Note_on_c, 5, 81, 110
7, 96630, Note_on_c, 5, 81, 0
7, 96660, Note_on_c, 5, 81, 110
7, 96690, Note_on_c, 5, 81, 0
7, 96720, Note_on_c, 5, 79, 110
7, 96750, Note_on_c, 5, 79, 0
7, 96780, Note_on_c, 5, 79, 110
7, 96810, Note_on_c, 5, 79, 0
7, 96840, Note_on_c, 5, 76, 110
7, 96870, Note_on_c, 5, 76, 0
7, 96900, Note_on_c, 5, 76, 110
7, 96930, Note_on_c, 5, 76, 0
7, 96960, Note_on_c, 5, 76, 110
7, 96990, Note_on_c, 5, 76, 0
7, 97020, Note_on_c, 5, 76, 110
7, 97050, Note_on_c, 5, 76, 0
7, 97080, Note_on_c, 5, 76, 110
7, 97110, Note_on_c, 5, 76, 0
7, 97110, Note_on_c, 5, 76, 110
7, 97140, Note_on_c, 5, 76, 0
7, 97140, Note_on_c, 5, 74, 110
7, 97170, Note_on_c, 5, 74, 0
7, 97170, Note_on_c, 5, 74, 110
7, 97200, Note_on_c, 5, 74, 0
7, 97200, Note_on_c, 5, 77, 110
7, 97230, Note_on_c, 5, 77, 0
7, 97260, Note_on_c, 5, 77, 110
7, 97290, Note_on_c, 5, 77, 0
7, 97320, Note_on_c, 5, 79, 110
7, 97350, Note_on_c, 5, 79, 0
7, 97380, Note_on_c, 5, 79, 110
7, 97410, Note_on_c, 5, 79, 0
7, 97440, Note_on_c, 5, 79, 110
7, 97470, Note_on_c, 5, 79, 0
7, 97500, Note_on_c, 5, 79, 110
7, 97530, Note_on_c, 5, 79, 0
7, 97560, Note_on_c, 5, 79, 110
7, 97590, Note_on_c, 5, 79, 0
7, 97620, Note_on_c, 5, 79, 110
7, 97650, Note_on_c, 5, 79, 0
7, 97680, Note_on_c, 5, 81, 110
7, 97710, Note_on_c, 5, 81, 0
7, 97740, Note_on_c, 5, 81, 110
7, 97770, Note_on_c, 5, 81, 0
7, 97800, Note_on_c, 5, 79, 110
7, 97830, Note_on_c, 5, 79, 0
7, 97860, Note_on_c, 5, 79, 110
7, 97890, Note_on_c, 5, 79, 0
7, 97920, Note_on_c, 5, 79, 110
7, 97950, Note_on_c, 5, 79, 0
7, 97980, Note_on_c, 5, 79, 110
7, 98010, Note_on_c, 5, 79, 0
7, 98040, Note_on_c, 5, 79, 110
7, 98070, Note_on_c, 5, 79, 0
7, 98100, Note_on_c, 5, 79, 110
7, 98130, Note_on_c, 5, 79, 0
7, 98160, Note_on_c, 5, 79, 110
7, 98190, Note_on_c, 5, 79, 0
7, 98220, Note_on_c, 5, 79, 110
7, 98250, Note_on_c, 5, 79, 0
7, 98280, Note_on_c, 5, 81, 100
7, 98400, Note_on_c, 5, 81, 0
7, 98400, Note_on_c, 5, 79, 100
7, 98520, Note_on_c, 5, 79, 0
7, 98520, Note_on_c, 5, 67, 100
7, 98640, Note_on_c, 5, 67, 0
7, 98640, Note_on_c, 5, 72, 100
7, 98700, Note_on_c, 5, 72, 0
7, 98700, Note_on_c, 5, 79, 100
7, 98760, Note_on_c, 5, 79, 0
7, 98760, Note_on_c, 5, 84, 100
7, 98820, Note_on_c, 5, 84, 0
7, 98820, Note_on_c, 5, 79, 100
7, 98880, Note_on_c, 5, 79, 0
7, 98880, Note_on_c, 5, 76, 100
7, 98940, Note_on_c, 5, 76, 0
7, 98940, Note_on_c, 5, 72, 100
7, 99000, Note_on_c, 5, 72, 0
7, 99000, Note_on_c, 5, 70, 100
7, 99120, Note_on_c, 5, 70, 0
7, 99360, Note_on_c, 5, 69, 100
7, 99420, Note_on_c, 5, 69, 0
7, 99420, Note_on_c, 5, 77, 100
7, 99480, Note_on_c, 5, 77, 0
7, 99480, Note_on_c, 5, 81, 100
7, 99540, Note_on_c, 5, 81, 0
7, 99540, Note_on_c, 5, 77, 100
7, 99600, Note_on_c, 5, 77, 0
7, 99600, Note_on_c, 5, 72, 100
7, 99660, Note_on_c, 5, 72, 0
7, 99660, Note_on_c, 5, 77, 100
7, 99720, Note_on_c, 5, 77, 0
7, 99720, Note_on_c, 5, 69, 100
7, 99840, Note_on_c, 5, 69, 0
7, 100080, Note_on_c, 5, 67, 100
7, 100140, Note_on_c, 5, 67, 0
7, 100140, Note_on_c, 5, 79, 100
7, 100200, Note_on_c, 5, 79, 0
7, 100200, Note_on_c, 5, 85, 100
7, 100260, Note_on_c, 5, 85, 0
7, 100260, Note_on_c, 5, 79, 100
7, 100320, Note_on_c, 5, 79, 0
7, 100320, Note_on_c, 5, 88, 100
7, 100380, Note_on_c, 5, 88, 0
7, 100380, Note_on_c, 5, 85, 100
7, 100440, Note_on_c, 5, 85, 0
7, 100440, Note_on_c, 5, 79, 100
7, 100560, Note_on_c, 5, 79, 0
7, 100800, Note_on_c, 5, 65, 110
7, 100860, Note_on_c, 5, 65, 0
7, 100860, Note_on_c, 5, 77, 110
7, 100920, Note_on_c, 5, 77, 0
7, 100920, Note_on_c, 5, 81, 110
7, 100980, Note_on_c, 5, 81, 0
7, 100980, Note_on_c, 5, 77, 110
7, 101040, Note_on_c, 5, 77, 0
7, 101040, Note_on_c, 5, 86, 110
7, 101100, Note_on_c, 5, 86, 0
7, 101100, Note_on_c, 5, 81, 110
7, 101160, Note_on_c, 5, 81, 0
7, 101160, Note_on_c, 5, 77, 110
7, 101280, Note_on_c, 5, 77, 0
7, 101520, Note_on_c, 5, 78, 110
7, 101580, Note_on_c, 5, 78, 0
7, 101580, Note_on_c, 5, 81, 110
7, 101640, Note_on_c, 5, 81, 0
7, 101640, Note_on_c, 5, 86, 110
7, 101700, Note_on_c, 5, 86, 0
7, 101700, Note_on_c, 5, 81, 110
7, 101760, Note_on_c, 5, 81, 0
7, 101760, Note_on_c, 5, 86, 110
7, 101820, Note_on_c, 5, 86, 0
7, 101820, Note_on_c, 5, 81, 110
7, 101880, Note_on_c, 5, 81, 0
7, 101880, Note_on_c, 5, 78, 110
7, 102000, Note_on_c, 5, 78, 0
7, 102240, Note_on_c, 5, 67, 110
7, 102300, Note_on_c, 5, 67, 0
7, 102300, Note_on_c, 5, 79, 110
7, 102360, Note_on_c, 5, 79, 0
7, 102360, Note_on_c, 5, 86, 110
7, 102420, Note_on_c, 5, 86, 0
7, 102420, Note_on_c, 5, 83, 110
7, 102480, Note_on_c, 5, 83, 0
7, 102480, Note_on_c, 5, 79, 110
7, 102540, Note_on_c, 5, 79, 0
7, 102540, Note_on_c, 5, 74, 110
7, 102600, Note_on_c, 5, 74, 0
7, 102600, Note_on_c, 5, 71, 110
7, 102720, Note_on_c, 5, 71, 0
7, 102960, Note_on_c, 5, 72, 110
7, 103020, Note_on_c, 5, 72, 0
7, 103020, Note_on_c, 5, 72, 110
7, 103080, Note_on_c, 5, 72, 0
7, 103080, Note_on_c, 5, 72, 110
7, 103140, Note_on_c, 5, 72, 0
7, 103140, Note_on_c, 5, 72, 110
7, 103200, Note_on_c, 5, 72, 0
7, 103200, Note_on_c, 5, 72, 110
7, 103260, Note_on_c, 5, 72, 0
7, 103260, Note_on_c, 5, 72, 110
7, 103320, Note_on_c, 5, 72, 0
7, 103320, Note_on_c, 5, 81, 110
7, 103380, Note_on_c, 5, 81, 0
7, 103380, Note_on_c, 5, 81, 110
7, 103440, Note_on_c, 5, 81, 0
7, 103440, Note_on_c, 5, 81, 110
7, 103500, Note_on_c, 5, 81, 0
7, 103500, Note_on_c, 5, 81, 110
7, 103560, Note_on_c, 5, 81, 0
7, 103560, Note_on_c, 5, 81, 110
7, 103620, Note_on_c, 5, 81, 0
7, 103620, Note_on_c, 5, 81, 110
7, 103680, Note_on_c, 5, 81, 0
7, 103680, Note_on_c, 5, 76, 110
7, 103740, Note_on_c, 5, 76, 0
7, 103740, Note_on_c, 5, 76, 110
7, 103800, Note_on_c, 5, 76, 0
7, 103800, Note_on_c, 5, 76, 110
7, 103860, Note_on_c, 5, 76, 0
7, 103860, Note_on_c, 5, 76, 110
7, 103920, Note_on_c, 5, 76, 0
7, 103920, Note_on_c, 5, 76, 110
7, 103980, Note_on_c, 5, 76, 0
7, 103980, Note_on_c, 5, 76, 110
7, 104040, Note_on_c, 5, 76, 0
7, 104040, Note_on_c, 5, 77, 110
7, 104100, Note_on_c, 5, 77, 0
7, 104100, Note_on_c, 5, 77, 110
7, 104160, Note_on_c, 5, 77, 0
7, 104160, Note_on_c, 5, 77, 110
7, 104220, Note_on_c, 5, 77, 0
7, 104220, Note_on_c, 5, 77, 110
7, 104280, Note_on_c, 5, 77, 0
7, 104280, Note_on_c, 5, 77, 110
7, 104340, Note_on_c, 5, 77, 0
7, 104340, Note_on_c, 5, 78, 110
7, 104400, Note_on_c, 5, 78, 0
7, 104400, Note_on_c, 5, 79, 110
7, 104520, Note_on_c, 5, 79, 0
7, 104520, Note_on_c, 5, 67, 110
7, 104640, Note_on_c, 5, 67, 0
7, 104760, Note_on_c, 5, 72, 70
7, 104880, Note_on_c, 5, 72, 0
7, 105120, Note_on_c, 5, 65, 70
7, 105240, Note_on_c, 5, 65, 0
7, 105480, Note_on_c, 5, 67, 70
7, 105600, Note_on_c, 5, 67, 0
7, 105840, Note_on_c, 5, 60, 70
7, 105960, Note_on_c, 5, 60, 0
7, 106200, Note_on_c, 5, 72, 70
7, 106320, Note_on_c, 5, 72, 0
7, 106560, Note_on_c, 5, 65, 70
7, 106680, Note_on_c, 5, 65, 0
7, 106920, Note_on_c, 5, 67, 70
7, 107040, Note_on_c, 5, 67, 0
7, 107640, Note_on_c, 5, 76, 70
7, 107640, Note_on_c, 5, 79, 70
7, 107700, Note_on_c, 5, 79, 0
7, 107700, Note_on_c, 5, 76, 0
7, 107760, Note_on_c, 5, 76, 70
7, 107760, Note_on_c, 5, 79, 70
7, 107820, Note_on_c, 5, 79, 0
7, 107820, Note_on_c, 5, 76, 0
7, 107880, Note_on_c, 5, 76, 70
7, 107880, Note_on_c, 5, 79, 70
7, 107940, Note_on_c, 5, 79, 0
7, 107940, Note_on_c, 5, 76, 0
7, 108000, Note_on_c, 5, 76, 70
7, 108000, Note_on_c, 5, 79, 70
7, 108180, Note_on_c, 5, 79, 0
7, 108180, Note_on_c, 5, 76, 0
7, 108180, Note_on_c, 5, 77, 70
7, 108180, Note_on_c, 5, 81, 70
7, 108240, Note_on_c, 5, 81, 0
7, 108240, Note_on_c, 5, 77, 0
7, 108240, Note_on_c, 5, 79, 70
7, 108240, Note_on_c, 5, 83, 70
7, 108360, Note_on_c, 5, 83, 0
7, 108360, Note_on_c, 5, 79, 0
7, 108360, Note_on_c, 5, 74, 70
7, 108360, Note_on_c, 5, 71, 70
7, 108375, Note_on_c, 5, 71, 0
7, 108375, Note_on_c, 5, 74, 0
7, 108375, Note_on_c, 5, 72, 70
7, 108375, Note_on_c, 5, 76, 70
7, 108390, Note_on_c, 5, 76, 0
7, 108390, Note_on_c, 5, 72, 0
7, 108390, Note_on_c, 5, 74, 70
7, 108390, Note_on_c, 5, 77, 70
7, 108480, Note_on_c, 5, 77, 0
7, 108480, Note_on_c, 5, 74, 0
7, 108720, Note_on_c, 5, 72, 70
7, 108720, Note_on_c, 5, 76, 70
7, 108735, Note_on_c, 5, 76, 0
7, 108735, Note_on_c, 5, 72, 0
7, 108735, Note_on_c, 5, 74, 70
7, 108735, Note_on_c, 5, 77, 70
7, 108750, Note_on_c, 5, 77, 0
7, 108750, Note_on_c, 5, 74, 0
7, 108750, Note_on_c, 5, 76, 70
7, 108750, Note_on_c, 5, 79, 70
7, 108840, Note_on_c, 5, 79, 0
7, 108840, Note_on_c, 5, 76, 0
7, 109080, Note_on_c, 5, 76, 70
7, 109080, Note_on_c, 5, 79, 70
7, 109140, Note_on_c, 5, 79, 0
7, 109140, Note_on_c, 5, 76, 0
7, 109200, Note_on_c, 5, 76, 70
7, 109200, Note_on_c, 5, 79, 70
7, 109260, Note_on_c, 5, 79, 0
7, 109260, Note_on_c, 5, 76, 0
7, 109320, Note_on_c, 5, 76, 70
7, 109320, Note_on_c, 5, 79, 70
7, 109380, Note_on_c, 5, 79, 0
7, 109380, Note_on_c, 5, 76, 0
7, 109440, Note_on_c, 5, 77, 70
7, 109440, Note_on_c, 5, 81, 70
7, 109530, Note_on_c, 5, 81, 0
7, 109530, Note_on_c, 5, 77, 0
7, 109530, Note_on_c, 5, 79, 70
7, 109530, Note_on_c, 5, 83, 70
7, 109560, Note_on_c, 5, 83, 0
7, 109560, Note_on_c, 5, 79, 0
7, 109560, Note_on_c, 5, 81, 70
7, 109560, Note_on_c, 5, 84, 70
7, 109620, Note_on_c, 5, 84, 0
7, 109620, Note_on_c, 5, 81, 0
7, 109620, Note_on_c, 5, 79, 70
7, 109620, Note_on_c, 5, 83, 70
7, 109650, Note_on_c, 5, 83, 0
7, 109650, Note_on_c, 5, 79, 0
7, 109680, Note_on_c, 5, 77, 70
7, 109680, Note_on_c, 5, 81, 70
7, 109710, Note_on_c, 5, 81, 0
7, 109710, Note_on_c, 5, 77, 0
7, 109740, Note_on_c, 5, 76, 70
7, 109740, Note_on_c, 5, 79, 70
7, 109770, Note_on_c, 5, 79, 0
7, 109770, Note_on_c, 5, 76, 0
7, 109770, Note_on_c, 5, 76, 70
7, 109770, Note_on_c, 5, 79, 70
7, 109800, Note_on_c, 5, 79, 0
7, 109800, Note_on_c, 5, 76, 0
7, 109800, Note_on_c, 5, 74, 70
7, 109800, Note_on_c, 5, 77, 70
7, 109920, Note_on_c, 5, 77, 0
7, 109920, Note_on_c, 5, 74, 0
7, 109920, Note_on_c, 5, 72, 70
7, 109920, Note_on_c, 5, 76, 70
7, 110040, Note_on_c, 5, 76, 0
7, 110040, Note_on_c, 5, 72, 0
7, 110040, Note_on_c, 5, 71, 70
7, 110040, Note_on_c, 5, 74, 70
7, 110160, Note_on_c, 5, 74, 0
7, 110160, Note_on_c, 5, 71, 0
7, 110160, Note_on_c, 5, 72, 110
7, 110280, Note_on_c, 5, 72, 0
7, 110400, Note_on_c, 5, 76, 110
7, 110520, Note_on_c, 5, 76, 0
7, 110520, Note_on_c, 5, 74, 110
7, 110640, Note_on_c, 5, 74, 0
7, 110760, Note_on_c, 5, 71, 110
7, 110880, Note_on_c, 5, 71, 0
7, 110880, Note_on_c, 5, 69, 110
7, 110910, Note_on_c, 5, 69, 0
7, 110910, Note_on_c, 5, 69, 110
7, 110940, Note_on_c, 5, 69, 0
7, 110940, Note_on_c, 5, 68, 110
7, 110970, Note_on_c, 5, 68, 0
7, 110970, Note_on_c, 5, 68, 110
7, 111000, Note_on_c, 5, 68, 0
7, 111000, Note_on_c, 5, 69, 110
7, 111030, Note_on_c, 5, 69, 0
7, 111030, Note_on_c, 5, 69, 110
7, 111060, Note_on_c, 5, 69, 0
7, 111060, Note_on_c, 5, 68, 110
7, 111090, Note_on_c, 5, 68, 0
7, 111090, Note_on_c, 5, 68, 110
7, 111120, Note_on_c, 5, 68, 0
7, 111120, Note_on_c, 5, 69, 110
7, 111150, Note_on_c, 5, 69, 0
7, 111150, Note_on_c, 5, 69, 110
7, 111180, Note_on_c, 5, 69, 0
7, 111180, Note_on_c, 5, 65, 110
7, 111210, Note_on_c, 5, 65, 0
7, 111210, Note_on_c, 5, 65, 110
7, 111240, Note_on_c, 5, 65, 0
7, 111240, Note_on_c, 5, 64, 110
7, 111270, Note_on_c, 5, 64, 0
7, 111270, Note_on_c, 5, 64, 110
7, 111300, Note_on_c, 5, 64, 0
7, 111300, Note_on_c, 5, 62, 110
7, 111330, Note_on_c, 5, 62, 0
7, 111330, Note_on_c, 5, 62, 110
7, 111360, Note_on_c, 5, 62, 0
7, 111360, Note_on_c, 5, 60, 110
7, 111390, Note_on_c, 5, 60, 0
7, 111390, Note_on_c, 5, 60, 110
7, 111420, Note_on_c, 5, 60, 0
7, 111420, Note_on_c, 5, 62, 110
7, 111450, Note_on_c, 5, 62, 0
7, 111450, Note_on_c, 5, 62, 110
7, 111480, Note_on_c, 5, 62, 0
7, 111480, Note_on_c, 5, 64, 110
7, 111510, Note_on_c, 5, 64, 0
7, 111510, Note_on_c, 5, 64, 110
7, 111540, Note_on_c, 5, 64, 0
7, 111540, Note_on_c, 5, 67, 110
7, 111570, Note_on_c, 5, 67, 0
7, 111570, Note_on_c, 5, 67, 110
7, 111600, Note_on_c, 5, 67, 0
7, 111600, Note_on_c, 5, 65, 110
7, 111630, Note_on_c, 5, 65, 0
7, 111660, Note_on_c, 5, 65, 110
7, 111690, Note_on_c, 5, 65, 0
7, 111720, Note_on_c, 5, 77, 110
7, 111750, Note_on_c, 5, 77, 0
7, 111780, Note_on_c, 5, 77, 110
7, 111810, Note_on_c, 5, 77, 0
7, 111840, Note_on_c, 5, 76, 110
7, 111870, Note_on_c, 5, 76, 0
7, 111900, Note_on_c, 5, 76, 110
7, 111930, Note_on_c, 5, 76, 0
7, 111960, Note_on_c, 5, 74, 110
7, 111990, Note_on_c, 5, 74, 0
7, 112020, Note_on_c, 5, 74, 110
7, 112050, Note_on_c, 5, 74, 0
7, 112080, Note_on_c, 5, 83, 110
7, 112140, Note_on_c, 5, 83, 0
7, 112140, Note_on_c, 5, 79, 110
7, 112200, Note_on_c, 5, 79, 0
7, 112200, Note_on_c, 5, 79, 110
7, 112260, Note_on_c, 5, 79, 0
7, 112260, Note_on_c, 5, 76, 110
7, 112320, Note_on_c, 5, 76, 0
7, 112320, Note_on_c, 5, 81, 110
7, 112440, Note_on_c, 5, 81, 0
7, 112440, Note_on_c, 5, 79, 110
7, 112560, Note_on_c, 5, 79, 0
7, 112560, Note_on_c, 5, 77, 110
7, 112680, Note_on_c, 5, 77, 0
7, 112680, Note_on_c, 5, 76, 110
7, 112740, Note_on_c, 5, 76, 0
7, 112800, Note_on_c, 5, 79, 110
7, 112860, Note_on_c, 5, 79, 0
7, 112920, Note_on_c, 5, 77, 110
7, 112980, Note_on_c, 5, 77, 0
7, 113040, Note_on_c, 5, 73, 110
7, 113160, Note_on_c, 5, 73, 0
7, 113160, Note_on_c, 5, 74, 110
7, 113280, Note_on_c, 5, 74, 0
7, 114480, Note_on_c, 5, 67, 110
7, 114480, Note_on_c, 5, 79, 110
7, 114510, Note_on_c, 5, 79, 0
7, 114510, Note_on_c, 5, 67, 0
7, 114540, Note_on_c, 5, 67, 110
7, 114540, Note_on_c, 5, 79, 110
7, 114570, Note_on_c, 5, 79, 0
7, 114570, Note_on_c, 5, 67, 0
7, 114600, Note_on_c, 5, 67, 110
7, 114600, Note_on_c, 5, 79, 110
7, 114630, Note_on_c, 5, 79, 0
7, 114630, Note_on_c, 5, 67, 0
7, 114660, Note_on_c, 5, 67, 110
7, 114660, Note_on_c, 5, 79, 110
7, 114690, Note_on_c, 5, 79, 0
7, 114690, Note_on_c, 5, 67, 0
7, 114720, Note_on_c, 5, 67, 110
7, 114720, Note_on_c, 5, 79, 110
7, 114750, Note_on_c, 5, 79, 0
7, 114750, Note_on_c, 5, 67, 0
7, 114780, Note_on_c, 5, 67, 110
7, 114780, Note_on_c, 5, 79, 110
7, 114810, Note_on_c, 5, 79, 0
7, 114810, Note_on_c, 5, 67, 0
7, 114840, Note_on_c, 5, 67, 110
7, 114840, Note_on_c, 5, 79, 110
7, 114870, Note_on_c, 5, 79, 0
7, 114870, Note_on_c, 5, 67, 0
7, 114900, Note_on_c, 5, 67, 110
7, 114900, Note_on_c, 5, 79, 110
7, 114930, Note_on_c, 5, 79, 0
7, 114930, Note_on_c, 5, 67, 0
7, 114960, Note_on_c, 5, 67, 110
7, 114960, Note_on_c, 5, 79, 110
7, 114990, Note_on_c, 5, 79, 0
7, 114990, Note_on_c, 5, 67, 0
7, 115020, Note_on_c, 5, 67, 110
7, 115020, Note_on_c, 5, 79, 110
7, 115050, Note_on_c, 5, 79, 0
7, 115050, Note_on_c, 5, 67, 0
7, 115080, Note_on_c, 5, 67, 110
7, 115080, Note_on_c, 5, 79, 110
7, 115110, Note_on_c, 5, 79, 0
7, 115110, Note_on_c, 5, 67, 0
7, 115140, Note_on_c, 5, 67, 110
7, 115140, Note_on_c, 5, 79, 110
7, 115170, Note_on_c, 5, 79, 0
7, 115170, Note_on_c, 5, 67, 0
7, 115200, Note_on_c, 5, 67, 110
7, 115200, Note_on_c, 5, 79, 110
7, 115230, Note_on_c, 5, 79, 0
7, 115230, Note_on_c, 5, 67, 0
7, 115260, Note_on_c, 5, 67, 110
7, 115260, Note_on_c, 5, 79, 110
7, 115290, Note_on_c, 5, 79, 0
7, 115290, Note_on_c, 5, 67, 0
7, 115320, Note_on_c, 5, 67, 110
7, 115320, Note_on_c, 5, 79, 110
7, 115350, Note_on_c, 5, 79, 0
7, 115350, Note_on_c, 5, 67, 0
7, 115380, Note_on_c, 5, 67, 110
7, 115380, Note_on_c, 5, 79, 110
7, 115410, Note_on_c, 5, 79, 0
7, 115410, Note_on_c, 5, 67, 0
7, 115440, Note_on_c, 5, 67, 110
7, 115440, Note_on_c, 5, 79, 110
7, 115470, Note_on_c, 5, 79, 0
7, 115470, Note_on_c, 5, 67, 0
7, 115500, Note_on_c, 5, 67, 110
7, 115500, Note_on_c, 5, 79, 110
7, 115530, Note_on_c, 5, 79, 0
7, 115530, Note_on_c, 5, 67, 0
7, 115560, Note_on_c, 5, 67, 110
7, 115560, Note_on_c, 5, 79, 110
7, 115590, Note_on_c, 5, 79, 0
7, 115590, Note_on_c, 5, 67, 0
7, 115620, Note_on_c, 5, 67, 110
7, 115620, Note_on_c, 5, 79, 110
7, 115650, Note_on_c, 5, 79, 0
7, 115650, Note_on_c, 5, 67, 0
7, 115680, Note_on_c, 5, 67, 110
7, 115680, Note_on_c, 5, 79, 110
7, 115710, Note_on_c, 5, 79, 0
7, 115710, Note_on_c, 5, 67, 0
7, 115740, Note_on_c, 5, 67, 110
7, 115740, Note_on_c, 5, 79, 110
7, 115770, Note_on_c, 5, 79, 0
7, 115770, Note_on_c, 5, 67, 0
7, 115800, Note_on_c, 5, 67, 110
7, 115800, Note_on_c, 5, 79, 110
7, 115830, Note_on_c, 5, 79, 0
7, 115830, Note_on_c, 5, 67, 0
7, 115860, Note_on_c, 5, 67, 110
7, 115860, Note_on_c, 5, 79, 110
7, 115890, Note_on_c, 5, 79, 0
7, 115890, Note_on_c, 5, 67, 0
7, 115920, Note_on_c, 5, 72, 110
7, 116040, Note_on_c, 5, 72, 0
7, 116160, Note_on_c, 5, 79, 110
7, 116280, Note_on_c, 5, 79, 0
7, 116280, Note_on_c, 5, 72, 110
7, 116400, Note_on_c, 5, 72, 0
7, 116520, Note_on_c, 5, 79, 110
7, 116640, Note_on_c, 5, 79, 0
7, 116640, Note_on_c, 5, 84, 110
7, 116760, Note_on_c, 5, 84, 0
7, 116760, Note_on_c, 5, 79, 110
7, 116880, Note_on_c, 5, 79, 0
7, 117000, Note_on_c, 5, 76, 110
7, 117120, Note_on_c, 5, 76, 0
7, 117120, Note_on_c, 5, 72, 110
7, 117240, Note_on_c, 5, 72, 0
7, 118800, Note_on_c, 5, 84, 110
7, 118815, Note_on_c, 5, 84, 0
7, 118815, Note_on_c, 5, 86, 110
7, 118830, Note_on_c, 5, 86, 0
7, 118830, Note_on_c, 5, 84, 110
7, 118845, Note_on_c, 5, 84, 0
7, 118845, Note_on_c, 5, 86, 110
7, 118860, Note_on_c, 5, 86, 0
7, 118860, Note_on_c, 5, 84, 110
7, 118875, Note_on_c, 5, 84, 0
7, 118875, Note_on_c, 5, 86, 110
7, 118890, Note_on_c, 5, 86, 0
7, 118890, Note_on_c, 5, 83, 110
7, 118905, Note_on_c, 5, 83, 0
7, 118905, Note_on_c, 5, 84, 110
7, 118920, Note_on_c, 5, 84, 0
7, 118920, Note_on_c, 5, 88, 110
7, 118950, Note_on_c, 5, 88, 0
7, 118980, Note_on_c, 5, 84, 110
7, 119010, Note_on_c, 5, 84, 0
7, 119040, Note_on_c, 5, 79, 110
7, 119070, Note_on_c, 5, 79, 0
7, 119100, Note_on_c, 5, 76, 110
7, 119130, Note_on_c, 5, 76, 0
7, 119160, Note_on_c, 5, 77, 110
7, 119220, Note_on_c, 5, 77, 0
7, 119280, Note_on_c, 5, 74, 110
7, 119340, Note_on_c, 5, 74, 0
7, 119400, Note_on_c, 5, 79, 110
7, 119460, Note_on_c, 5, 79, 0
7, 119520, Note_on_c, 5, 84, 110
7, 119535, Note_on_c, 5, 84, 0
7, 119535, Note_on_c, 5, 86, 110
7, 119550, Note_on_c, 5, 86, 0
7, 119550, Note_on_c, 5, 84, 110
7, 119565, Note_on_c, 5, 84, 0
7, 119565, Note_on_c, 5, 86, 110
7, 119580, Note_on_c, 5, 86, 0
7, 119580, Note_on_c, 5, 84, 110
7, 119595, Note_on_c, 5, 84, 0
7, 119595, Note_on_c, 5, 86, 110
7, 119610, Note_on_c, 5, 86, 0
7, 119610, Note_on_c, 5, 83, 110
7, 119625, Note_on_c, 5, 83, 0
7, 119625, Note_on_c, 5, 84, 110
7, 119640, Note_on_c, 5, 84, 0
7, 119640, Note_on_c, 5, 88, 110
7, 119670, Note_on_c, 5, 88, 0
7, 119700, Note_on_c, 5, 84, 110
7, 119730, Note_on_c, 5, 84, 0
7, 119760, Note_on_c, 5, 79, 110
7, 119790, Note_on_c, 5, 79, 0
7, 119820, Note_on_c, 5, 76, 110
7, 119850, Note_on_c, 5, 76, 0
7, 119880, Note_on_c, 5, 77, 110
7, 119940, Note_on_c, 5, 77, 0
7, 120000, Note_on_c, 5, 74, 110
7, 120060, Note_on_c, 5, 74, 0
7, 120120, Note_on_c, 5, 79, 110
7, 120180, Note_on_c, 5, 79, 0
7, 120240, Note_on_c, 5, 72, 110
7, 120360, Note_on_c, 5, 72, 0
7, 120600, Note_on_c, 5, 84, 110
7, 120630, Note_on_c, 5, 84, 0
7, 120660, Note_on_c, 5, 84, 110
7, 120690, Note_on_c, 5, 84, 0
7, 120720, Note_on_c, 5, 79, 110
7, 120750, Note_on_c, 5, 79, 0
7, 120780, Note_on_c, 5, 79, 110
7, 120810, Note_on_c, 5, 79, 0
7, 120840, Note_on_c, 5, 76, 110
7, 120870, Note_on_c, 5, 76, 0
7, 120900, Note_on_c, 5, 76, 110
7, 120930, Note_on_c, 5, 76, 0
7, 120960, Note_on_c, 5, 72, 110
7, 120990, Note_on_c, 5, 72, 0
7, 121020, Note_on_c, 5, 72, 110
7, 121050, Note_on_c, 5, 72, 0
7, 121080, Note_on_c, 5, 67, 110
7, 121110, Note_on_c, 5, 67, 0
7, 121140, Note_on_c, 5, 67, 110
7, 121170, Note_on_c, 5, 67, 0
7, 121200, Note_on_c, 5, 76, 110
7, 121230, Note_on_c, 5, 76, 0
7, 121260, Note_on_c, 5, 76, 110
7, 121290, Note_on_c, 5, 76, 0
7, 121320, Note_on_c, 5, 72, 110
7, 121440, Note_on_c, 5, 72, 0
7, 121440, End_track
8, 0, Start_track
8, 0, MIDI_port, 0
8, 0, Title_t, "Cello/Bass"
8, 0, Program_c, 6, 48
8, 0, Control_c, 6, 7, 127
8, 0, Control_c, 6, 10, 63
8, 0, Note_on_c, 6, 60, 110
8, 120, Note_on_c, 6, 60, 0
8, 120, Note_on_c, 6, 55, 110
8, 240, Note_on_c, 6, 55, 0
8, 360, Note_on_c, 6, 52, 110
8, 480, Note_on_c, 6, 52, 0
8, 480, Note_on_c, 6, 48, 110
8, 600, Note_on_c, 6, 48, 0
8, 2160, Note_on_c, 6, 60, 110
8, 2280, Note_on_c, 6, 60, 0
8, 2280, Note_on_c, 6, 55, 110
8, 2400, Note_on_c, 6, 55, 0
8, 2520, Note_on_c, 6, 52, 110
8, 2640, Note_on_c, 6, 52, 0
8, 2640, Note_on_c, 6, 48, 110
8, 2760, Note_on_c, 6, 48, 0
8, 4320, Note_on_c, 6, 48, 110
8, 4380, Note_on_c, 6, 48, 0
8, 4380, Note_on_c, 6, 48, 110
8, 4440, Note_on_c, 6, 48, 0
8, 4440, Note_on_c, 6, 48, 110
8, 4500, Note_on_c, 6, 48, 0
8, 4500, Note_on_c, 6, 48, 110
8, 4560, Note_on_c, 6, 48, 0
8, 4560, Note_on_c, 6, 52, 110
8, 4620, Note_on_c, 6, 52, 0
8, 4620, Note_on_c, 6, 52, 110
8, 4680, Note_on_c, 6, 52, 0
8, 4680, Note_on_c, 6, 53, 110
8, 4740, Note_on_c, 6, 53, 0
8, 4740, Note_on_c, 6, 53, 110
8, 4800, Note_on_c, 6, 53, 0
8, 4800, Note_on_c, 6, 53, 110
8, 4860, Note_on_c, 6, 53, 0
8, 4860, Note_on_c, 6, 53, 110
8, 4920, Note_on_c, 6, 53, 0
8, 4920, Note_on_c, 6, 55, 110
8, 4980, Note_on_c, 6, 55, 0
8, 4980, Note_on_c, 6, 55, 110
8, 5040, Note_on_c, 6, 55, 0
8, 5040, Note_on_c, 6, 57, 110
8, 5100, Note_on_c, 6, 57, 0
8, 5100, Note_on_c, 6, 57, 110
8, 5160, Note_on_c, 6, 57, 0
8, 5160, Note_on_c, 6, 57, 110
8, 5220, Note_on_c, 6, 57, 0
8, 5220, Note_on_c, 6, 57, 110
8, 5280, Note_on_c, 6, 57, 0
8, 5280, Note_on_c, 6, 57, 110
8, 5340, Note_on_c, 6, 57, 0
8, 5340, Note_on_c, 6, 52, 110
8, 5400, Note_on_c, 6, 52, 0
8, 5400, Note_on_c, 6, 53, 110
8, 5460, Note_on_c, 6, 53, 0
8, 5460, Note_on_c, 6, 53, 110
8, 5520, Note_on_c, 6, 53, 0
8, 5520, Note_on_c, 6, 52, 110
8, 5580, Note_on_c, 6, 52, 0
8, 5580, Note_on_c, 6, 52, 110
8, 5640, Note_on_c, 6, 52, 0
8, 5640, Note_on_c, 6, 47, 110
8, 5700, Note_on_c, 6, 47, 0
8, 5700, Note_on_c, 6, 47, 110
8, 5760, Note_on_c, 6, 47, 0
8, 5760, Note_on_c, 6, 48, 110
8, 5820, Note_on_c, 6, 48, 0
8, 5820, Note_on_c, 6, 48, 110
8, 5880, Note_on_c, 6, 48, 0
8, 5880, Note_on_c, 6, 53, 110
8, 5940, Note_on_c, 6, 53, 0
8, 5940, Note_on_c, 6, 53, 110
8, 6000, Note_on_c, 6, 53, 0
8, 6000, Note_on_c, 6, 55, 110
8, 6060, Note_on_c, 6, 55, 0
8, 6060, Note_on_c, 6, 55, 110
8, 6120, Note_on_c, 6, 55, 0
8, 6120, Note_on_c, 6, 52, 110
8, 6180, Note_on_c, 6, 52, 0
8, 6180, Note_on_c, 6, 52, 110
8, 6240, Note_on_c, 6, 52, 0
8, 6240, Note_on_c, 6, 52, 110
8, 6300, Note_on_c, 6, 52, 0
8, 6300, Note_on_c, 6, 52, 110
8, 6360, Note_on_c, 6, 52, 0
8, 6360, Note_on_c, 6, 52, 110
8, 6420, Note_on_c, 6, 52, 0
8, 6420, Note_on_c, 6, 52, 110
8, 6480, Note_on_c, 6, 52, 0
8, 6480, Note_on_c, 6, 53, 100
8, 6600, Note_on_c, 6, 53, 0
8, 6600, Note_on_c, 6, 55, 100
8, 6720, Note_on_c, 6, 55, 0
8, 6720, Note_on_c, 6, 43, 100
8, 6840, Note_on_c, 6, 43, 0
8, 6840, Note_on_c, 6, 48, 100
8, 6900, Note_on_c, 6, 48, 0
8, 6900, Note_on_c, 6, 60, 100
8, 6960, Note_on_c, 6, 60, 0
8, 6960, Note_on_c, 6, 55, 100
8, 7020, Note_on_c, 6, 55, 0
8, 7020, Note_on_c, 6, 60, 100
8, 7080, Note_on_c, 6, 60, 0
8, 7080, Note_on_c, 6, 52, 100
8, 7140, Note_on_c, 6, 52, 0
8, 7140, Note_on_c, 6, 55, 100
8, 7200, Note_on_c, 6, 55, 0
8, 7200, Note_on_c, 6, 48, 100
8, 7320, Note_on_c, 6, 48, 0
8, 7560, Note_on_c, 6, 43, 100
8, 7620, Note_on_c, 6, 43, 0
8, 7620, Note_on_c, 6, 55, 100
8, 7680, Note_on_c, 6, 55, 0
8, 7680, Note_on_c, 6, 50, 100
8, 7740, Note_on_c, 6, 50, 0
8, 7740, Note_on_c, 6, 55, 100
8, 7800, Note_on_c, 6, 55, 0
8, 7800, Note_on_c, 6, 47, 100
8, 7860, Note_on_c, 6, 47, 0
8, 7860, Note_on_c, 6, 50, 100
8, 7920, Note_on_c, 6, 50, 0
8, 7920, Note_on_c, 6, 43, 100
8, 8040, Note_on_c, 6, 43, 0
8, 8280, Note_on_c, 6, 48, 100
8, 8340, Note_on_c, 6, 48, 0
8, 8340, Note_on_c, 6, 60, 100
8, 8400, Note_on_c, 6, 60, 0
8, 8400, Note_on_c, 6, 55, 100
8, 8460, Note_on_c, 6, 55, 0
8, 8460, Note_on_c, 6, 60, 100
8, 8520, Note_on_c, 6, 60, 0
8, 8520, Note_on_c, 6, 52, 100
8, 8580, Note_on_c, 6, 52, 0
8, 8580, Note_on_c, 6, 55, 100
8, 8640, Note_on_c, 6, 55, 0
8, 8640, Note_on_c, 6, 48, 100
8, 8760, Note_on_c, 6, 48, 0
8, 9000, Note_on_c, 6, 54, 110
8, 9060, Note_on_c, 6, 54, 0
8, 9060, Note_on_c, 6, 57, 110
8, 9120, Note_on_c, 6, 57, 0
8, 9120, Note_on_c, 6, 62, 110
8, 9180, Note_on_c, 6, 62, 0
8, 9180, Note_on_c, 6, 57, 110
8, 9240, Note_on_c, 6, 57, 0
8, 9240, Note_on_c, 6, 62, 110
8, 9300, Note_on_c, 6, 62, 0
8, 9300, Note_on_c, 6, 57, 110
8, 9360, Note_on_c, 6, 57, 0
8, 9360, Note_on_c, 6, 54, 110
8, 9420, Note_on_c, 6, 54, 0
8, 9720, Note_on_c, 6, 55, 110
8, 9780, Note_on_c, 6, 55, 0
8, 9780, Note_on_c, 6, 55, 110
8, 9840, Note_on_c, 6, 55, 0
8, 9840, Note_on_c, 6, 55, 110
8, 9900, Note_on_c, 6, 55, 0
8, 9900, Note_on_c, 6, 55, 110
8, 9960, Note_on_c, 6, 55, 0
8, 9960, Note_on_c, 6, 55, 110
8, 10020, Note_on_c, 6, 55, 0
8, 10020, Note_on_c, 6, 55, 110
8, 10080, Note_on_c, 6, 55, 0
8, 10080, Note_on_c, 6, 52, 110
8, 10140, Note_on_c, 6, 52, 0
8, 10140, Note_on_c, 6, 52, 110
8, 10200, Note_on_c, 6, 52, 0
8, 10200, Note_on_c, 6, 52, 110
8, 10260, Note_on_c, 6, 52, 0
8, 10260, Note_on_c, 6, 52, 110
8, 10320, Note_on_c, 6, 52, 0
8, 10320, Note_on_c, 6, 52, 110
8, 10380, Note_on_c, 6, 52, 0
8, 10380, Note_on_c, 6, 52, 110
8, 10440, Note_on_c, 6, 52, 0
8, 10440, Note_on_c, 6, 47, 110
8, 10500, Note_on_c, 6, 47, 0
8, 10500, Note_on_c, 6, 47, 110
8, 10560, Note_on_c, 6, 47, 0
8, 10560, Note_on_c, 6, 47, 110
8, 10620, Note_on_c, 6, 47, 0
8, 10620, Note_on_c, 6, 47, 110
8, 10680, Note_on_c, 6, 47, 0
8, 10680, Note_on_c, 6, 47, 110
8, 10740, Note_on_c, 6, 47, 0
8, 10740, Note_on_c, 6, 47, 110
8, 10800, Note_on_c, 6, 47, 0
8, 10800, Note_on_c, 6, 48, 110
8, 10830, Note_on_c, 6, 48, 0
8, 10860, Note_on_c, 6, 48, 110
8, 10890, Note_on_c, 6, 48, 0
8, 10920, Note_on_c, 6, 48, 110
8, 10950, Note_on_c, 6, 48, 0
8, 10980, Note_on_c, 6, 48, 110
8, 11010, Note_on_c, 6, 48, 0
8, 11040, Note_on_c, 6, 48, 110
8, 11070, Note_on_c, 6, 48, 0
8, 11100, Note_on_c, 6, 49, 110
8, 11130, Note_on_c, 6, 49, 0
8, 11160, Note_on_c, 6, 50, 110
8, 11280, Note_on_c, 6, 50, 0
8, 11280, Note_on_c, 6, 50, 110
8, 11400, Note_on_c, 6, 50, 0
8, 11520, Note_on_c, 6, 55, 70
8, 11640, Note_on_c, 6, 55, 0
8, 11880, Note_on_c, 6, 48, 70
8, 12000, Note_on_c, 6, 48, 0
8, 12240, Note_on_c, 6, 50, 70
8, 12360, Note_on_c, 6, 50, 0
8, 12600, Note_on_c, 6, 43, 70
8, 12720, Note_on_c, 6, 43, 0
8, 12960, Note_on_c, 6, 55, 70
8, 13080, Note_on_c, 6, 55, 0
8, 13320, Note_on_c, 6, 48, 70
8, 13440, Note_on_c, 6, 48, 0
8, 13680, Note_on_c, 6, 50, 70
8, 13800, Note_on_c, 6, 50, 0
8, 14100, Note_on_c, 6, 55, 70
8, 14160, Note_on_c, 6, 55, 0
8, 14160, Note_on_c, 6, 50, 70
8, 14220, Note_on_c, 6, 50, 0
8, 14220, Note_on_c, 6, 48, 70
8, 14280, Note_on_c, 6, 48, 0
8, 14280, Note_on_c, 6, 47, 70
8, 14340, Note_on_c, 6, 47, 0
8, 14340, Note_on_c, 6, 45, 70
8, 14400, Note_on_c, 6, 45, 0
8, 14400, Note_on_c, 6, 43, 68
8, 14520, Note_on_c, 6, 43, 0
8, 14760, Note_on_c, 6, 48, 68
8, 14880, Note_on_c, 6, 48, 0
8, 15120, Note_on_c, 6, 50, 68
8, 15240, Note_on_c, 6, 50, 0
8, 15480, Note_on_c, 6, 55, 68
8, 15600, Note_on_c, 6, 55, 0
8, 15840, Note_on_c, 6, 43, 68
8, 15960, Note_on_c, 6, 43, 0
8, 16200, Note_on_c, 6, 48, 68
8, 16320, Note_on_c, 6, 48, 0
8, 16560, Note_on_c, 6, 48, 68
8, 16680, Note_on_c, 6, 48, 0
8, 16680, Note_on_c, 6, 50, 68
8, 16800, Note_on_c, 6, 50, 0
8, 16800, Note_on_c, 6, 50, 68
8, 16920, Note_on_c, 6, 50, 0
8, 16920, Note_on_c, 6, 43, 110
8, 17040, Note_on_c, 6, 43, 0
8, 17160, Note_on_c, 6, 55, 110
8, 17280, Note_on_c, 6, 55, 0
8, 17280, Note_on_c, 6, 54, 110
8, 17400, Note_on_c, 6, 54, 0
8, 17520, Note_on_c, 6, 66, 110
8, 17640, Note_on_c, 6, 66, 0
8, 17640, Note_on_c, 6, 64, 110
8, 17700, Note_on_c, 6, 64, 0
8, 17700, Note_on_c, 6, 63, 110
8, 17760, Note_on_c, 6, 63, 0
8, 17760, Note_on_c, 6, 64, 110
8, 17820, Note_on_c, 6, 64, 0
8, 17820, Note_on_c, 6, 63, 110
8, 17880, Note_on_c, 6, 63, 0
8, 17880, Note_on_c, 6, 64, 110
8, 17940, Note_on_c, 6, 64, 0
8, 17940, Note_on_c, 6, 60, 110
8, 18000, Note_on_c, 6, 60, 0
8, 18000, Note_on_c, 6, 59, 110
8, 18060, Note_on_c, 6, 59, 0
8, 18060, Note_on_c, 6, 57, 110
8, 18120, Note_on_c, 6, 57, 0
8, 18120, Note_on_c, 6, 55, 110
8, 18180, Note_on_c, 6, 55, 0
8, 18180, Note_on_c, 6, 57, 110
8, 18240, Note_on_c, 6, 57, 0
8, 18240, Note_on_c, 6, 59, 110
8, 18300, Note_on_c, 6, 59, 0
8, 18300, Note_on_c, 6, 55, 110
8, 18360, Note_on_c, 6, 55, 0
8, 18360, Note_on_c, 6, 57, 110
8, 18420, Note_on_c, 6, 57, 0
8, 18420, Note_on_c, 6, 57, 110
8, 18480, Note_on_c, 6, 57, 0
8, 18480, Note_on_c, 6, 57, 110
8, 18540, Note_on_c, 6, 57, 0
8, 18540, Note_on_c, 6, 57, 110
8, 18600, Note_on_c, 6, 57, 0
8, 18600, Note_on_c, 6, 55, 110
8, 18660, Note_on_c, 6, 55, 0
8, 18660, Note_on_c, 6, 55, 110
8, 18720, Note_on_c, 6, 55, 0
8, 18720, Note_on_c, 6, 54, 110
8, 18780, Note_on_c, 6, 54, 0
8, 18780, Note_on_c, 6, 54, 110
8, 18840, Note_on_c, 6, 54, 0
8, 18840, Note_on_c, 6, 50, 110
8, 18900, Note_on_c, 6, 50, 0
8, 18900, Note_on_c, 6, 50, 110
8, 18960, Note_on_c, 6, 50, 0
8, 18960, Note_on_c, 6, 55, 110
8, 19020, Note_on_c, 6, 55, 0
8, 19020, Note_on_c, 6, 55, 110
8, 19080, Note_on_c, 6, 55, 0
8, 19080, Note_on_c, 6, 48, 110
8, 19140, Note_on_c, 6, 48, 0
8, 19140, Note_on_c, 6, 48, 110
8, 19200, Note_on_c, 6, 48, 0
8, 19200, Note_on_c, 6, 50, 110
8, 19260, Note_on_c, 6, 50, 0
8, 19260, Note_on_c, 6, 50, 110
8, 19320, Note_on_c, 6, 50, 0
8, 19320, Note_on_c, 6, 51, 110
8, 19380, Note_on_c, 6, 51, 0
8, 19380, Note_on_c, 6, 51, 110
8, 19440, Note_on_c, 6, 51, 0
8, 19440, Note_on_c, 6, 52, 110
8, 19500, Note_on_c, 6, 52, 0
8, 19560, Note_on_c, 6, 50, 110
8, 19620, Note_on_c, 6, 50, 0
8, 19680, Note_on_c, 6, 48, 110
8, 19740, Note_on_c, 6, 48, 0
8, 19800, Note_on_c, 6, 56, 110
8, 19860, Note_on_c, 6, 56, 0
8, 19920, Note_on_c, 6, 57, 110
8, 19980, Note_on_c, 6, 57, 0
8, 21240, Note_on_c, 6, 43, 110
8, 21360, Note_on_c, 6, 43, 0
8, 21480, Note_on_c, 6, 50, 110
8, 21600, Note_on_c, 6, 50, 0
8, 21600, Note_on_c, 6, 55, 110
8, 21720, Note_on_c, 6, 55, 0
8, 21720, Note_on_c, 6, 59, 110
8, 21840, Note_on_c, 6, 59, 0
8, 21840, Note_on_c, 6, 62, 110
8, 21960, Note_on_c, 6, 62, 0
8, 21960, Note_on_c, 6, 55, 110
8, 22080, Note_on_c, 6, 55, 0
8, 22200, Note_on_c, 6, 50, 110
8, 22320, Note_on_c, 6, 50, 0
8, 22320, Note_on_c, 6, 55, 110
8, 22440, Note_on_c, 6, 55, 0
8, 22440, Note_on_c, 6, 59, 110
8, 22560, Note_on_c, 6, 59, 0
8, 22560, Note_on_c, 6, 62, 110
8, 22680, Note_on_c, 6, 62, 0
8, 22680, Note_on_c, 6, 55, 110
8, 22800, Note_on_c, 6, 55, 0
8, 22920, Note_on_c, 6, 50, 110
8, 23040, Note_on_c, 6, 50, 0
8, 23040, Note_on_c, 6, 55, 110
8, 23160, Note_on_c, 6, 55, 0
8, 23280, Note_on_c, 6, 50, 110
8, 23400, Note_on_c, 6, 50, 0
8, 23400, Note_on_c, 6, 43, 100
8, 23520, Note_on_c, 6, 43, 0
8, 23520, Note_on_c, 6, 55, 100
8, 23580, Note_on_c, 6, 55, 0
8, 23580, Note_on_c, 6, 57, 100
8, 23640, Note_on_c, 6, 57, 0
8, 23640, Note_on_c, 6, 59, 100
8, 23700, Note_on_c, 6, 59, 0
8, 23700, Note_on_c, 6, 60, 100
8, 23760, Note_on_c, 6, 60, 0
8, 23760, Note_on_c, 6, 62, 100
8, 23820, Note_on_c, 6, 62, 0
8, 23820, Note_on_c, 6, 64, 100
8, 23880, Note_on_c, 6, 64, 0
8, 23880, Note_on_c, 6, 65, 100
8, 23940, Note_on_c, 6, 65, 0
8, 23940, Note_on_c, 6, 62, 100
8, 24000, Note_on_c, 6, 62, 0
8, 24000, Note_on_c, 6, 59, 100
8, 24060, Note_on_c, 6, 59, 0
8, 24060, Note_on_c, 6, 55, 100
8, 24120, Note_on_c, 6, 55, 0
8, 24120, Note_on_c, 6, 60, 110
8, 24240, Note_on_c, 6, 60, 0
8, 24240, Note_on_c, 6, 55, 110
8, 24360, Note_on_c, 6, 55, 0
8, 24480, Note_on_c, 6, 52, 110
8, 24600, Note_on_c, 6, 52, 0
8, 24600, Note_on_c, 6, 48, 110
8, 24720, Note_on_c, 6, 48, 0
8, 26280, Note_on_c, 6, 60, 110
8, 26400, Note_on_c, 6, 60, 0
8, 26400, Note_on_c, 6, 55, 110
8, 26520, Note_on_c, 6, 55, 0
8, 26640, Note_on_c, 6, 52, 110
8, 26760, Note_on_c, 6, 52, 0
8, 26760, Note_on_c, 6, 48, 110
8, 26880, Note_on_c, 6, 48, 0
8, 28440, Note_on_c, 6, 48, 110
8, 28500, Note_on_c, 6, 48, 0
8, 28500, Note_on_c, 6, 48, 110
8, 28560, Note_on_c, 6, 48, 0
8, 28560, Note_on_c, 6, 48, 110
8, 28620, Note_on_c, 6, 48, 0
8, 28620, Note_on_c, 6, 48, 110
8, 28680, Note_on_c, 6, 48, 0
8, 28680, Note_on_c, 6, 52, 110
8, 28740, Note_on_c, 6, 52, 0
8, 28740, Note_on_c, 6, 52, 110
8, 28800, Note_on_c, 6, 52, 0
8, 28800, Note_on_c, 6, 53, 110
8, 28860, Note_on_c, 6, 53, 0
8, 28860, Note_on_c, 6, 53, 110
8, 28920, Note_on_c, 6, 53, 0
8, 28920, Note_on_c, 6, 53, 110
8, 28980, Note_on_c, 6, 53, 0
8, 28980, Note_on_c, 6, 53, 110
8, 29040, Note_on_c, 6, 53, 0
8, 29040, Note_on_c, 6, 55, 110
8, 29100, Note_on_c, 6, 55, 0
8, 29100, Note_on_c, 6, 55, 110
8, 29160, Note_on_c, 6, 55, 0
8, 29160, Note_on_c, 6, 57, 110
8, 29220, Note_on_c, 6, 57, 0
8, 29220, Note_on_c, 6, 57, 110
8, 29280, Note_on_c, 6, 57, 0
8, 29280, Note_on_c, 6, 57, 110
8, 29340, Note_on_c, 6, 57, 0
8, 29340, Note_on_c, 6, 57, 110
8, 29400, Note_on_c, 6, 57, 0
8, 29400, Note_on_c, 6, 57, 110
8, 29460, Note_on_c, 6, 57, 0
8, 29460, Note_on_c, 6, 52, 110
8, 29520, Note_on_c, 6, 52, 0
8, 29520, Note_on_c, 6, 53, 110
8, 29580, Note_on_c, 6, 53, 0
8, 29580, Note_on_c, 6, 53, 110
8, 29640, Note_on_c, 6, 53, 0
8, 29640, Note_on_c, 6, 52, 110
8, 29700, Note_on_c, 6, 52, 0
8, 29700, Note_on_c, 6, 52, 110
8, 29760, Note_on_c, 6, 52, 0
8, 29760, Note_on_c, 6, 47, 110
8, 29820, Note_on_c, 6, 47, 0
8, 29820, Note_on_c, 6, 47, 110
8, 29880, Note_on_c, 6, 47, 0
8, 29880, Note_on_c, 6, 48, 110
8, 29940, Note_on_c, 6, 48, 0
8, 29940, Note_on_c, 6, 48, 110
8, 30000, Note_on_c, 6, 48, 0
8, 30000, Note_on_c, 6, 53, 110
8, 30060, Note_on_c, 6, 53, 0
8, 30060, Note_on_c, 6, 53, 110
8, 30120, Note_on_c, 6, 53, 0
8, 30120, Note_on_c, 6, 55, 110
8, 30180, Note_on_c, 6, 55, 0
8, 30180, Note_on_c, 6, 55, 110
8, 30240, Note_on_c, 6, 55, 0
8, 30240, Note_on_c, 6, 52, 110
8, 30300, Note_on_c, 6, 52, 0
8, 30300, Note_on_c, 6, 52, 110
8, 30360, Note_on_c, 6, 52, 0
8, 30360, Note_on_c, 6, 52, 110
8, 30420, Note_on_c, 6, 52, 0
8, 30420, Note_on_c, 6, 52, 110
8, 30480, Note_on_c, 6, 52, 0
8, 30480, Note_on_c, 6, 52, 110
8, 30540, Note_on_c, 6, 52, 0
8, 30540, Note_on_c, 6, 52, 110
8, 30600, Note_on_c, 6, 52, 0
8, 30600, Note_on_c, 6, 53, 100
8, 30720, Note_on_c, 6, 53, 0
8, 30720, Note_on_c, 6, 55, 100
8, 30840, Note_on_c, 6, 55, 0
8, 30840, Note_on_c, 6, 43, 100
8, 30960, Note_on_c, 6, 43, 0
8, 30960, Note_on_c, 6, 48, 100
8, 31020, Note_on_c, 6, 48, 0
8, 31020, Note_on_c, 6, 60, 100
8, 31080, Note_on_c, 6, 60, 0
8, 31080, Note_on_c, 6, 55, 100
8, 31140, Note_on_c, 6, 55, 0
8, 31140, Note_on_c, 6, 60, 100
8, 31200, Note_on_c, 6, 60, 0
8, 31200, Note_on_c, 6, 52, 100
8, 31260, Note_on_c, 6, 52, 0
8, 31260, Note_on_c, 6, 55, 100
8, 31320, Note_on_c, 6, 55, 0
8, 31320, Note_on_c, 6, 48, 100
8, 31440, Note_on_c, 6, 48, 0
8, 31680, Note_on_c, 6, 43, 100
8, 31740, Note_on_c, 6, 43, 0
8, 31740, Note_on_c, 6, 55, 100
8, 31800, Note_on_c, 6, 55, 0
8, 31800, Note_on_c, 6, 50, 100
8, 31860, Note_on_c, 6, 50, 0
8, 31860, Note_on_c, 6, 55, 100
8, 31920, Note_on_c, 6, 55, 0
8, 31920, Note_on_c, 6, 47, 100
8, 31980, Note_on_c, 6, 47, 0
8, 31980, Note_on_c, 6, 50, 100
8, 32040, Note_on_c, 6, 50, 0
8, 32040, Note_on_c, 6, 43, 100
8, 32160, Note_on_c, 6, 43, 0
8, 32400, Note_on_c, 6, 48, 100
8, 32460, Note_on_c, 6, 48, 0
8, 32460, Note_on_c, 6, 60, 100
8, 32520, Note_on_c, 6, 60, 0
8, 32520, Note_on_c, 6, 55, 100
8, 32580, Note_on_c, 6, 55, 0
8, 32580, Note_on_c, 6, 60, 100
8, 32640, Note_on_c, 6, 60, 0
8, 32640, Note_on_c, 6, 52, 100
8, 32700, Note_on_c, 6, 52, 0
8, 32700, Note_on_c, 6, 55, 100
8, 32760, Note_on_c, 6, 55, 0
8, 32760, Note_on_c, 6, 48, 100
8, 32880, Note_on_c, 6, 48, 0
8, 33120, Note_on_c, 6, 54, 110
8, 33180, Note_on_c, 6, 54, 0
8, 33180, Note_on_c, 6, 57, 110
8, 33240, Note_on_c, 6, 57, 0
8, 33240, Note_on_c, 6, 62, 110
8, 33300, Note_on_c, 6, 62, 0
8, 33300, Note_on_c, 6, 57, 110
8, 33360, Note_on_c, 6, 57, 0
8, 33360, Note_on_c, 6, 62, 110
8, 33420, Note_on_c, 6, 62, 0
8, 33420, Note_on_c, 6, 57, 110
8, 33480, Note_on_c, 6, 57, 0
8, 33480, Note_on_c, 6, 54, 110
8, 33540, Note_on_c, 6, 54, 0
8, 33840, Note_on_c, 6, 55, 110
8, 33900, Note_on_c, 6, 55, 0
8, 33900, Note_on_c, 6, 55, 110
8, 33960, Note_on_c, 6, 55, 0
8, 33960, Note_on_c, 6, 55, 110
8, 34020, Note_on_c, 6, 55, 0
8, 34020, Note_on_c, 6, 55, 110
8, 34080, Note_on_c, 6, 55, 0
8, 34080, Note_on_c, 6, 55, 110
8, 34140, Note_on_c, 6, 55, 0
8, 34140, Note_on_c, 6, 55, 110
8, 34200, Note_on_c, 6, 55, 0
8, 34200, Note_on_c, 6, 52, 110
8, 34260, Note_on_c, 6, 52, 0
8, 34260, Note_on_c, 6, 52, 110
8, 34320, Note_on_c, 6, 52, 0
8, 34320, Note_on_c, 6, 52, 110
8, 34380, Note_on_c, 6, 52, 0
8, 34380, Note_on_c, 6, 52, 110
8, 34440, Note_on_c, 6, 52, 0
8, 34440, Note_on_c, 6, 52, 110
8, 34500, Note_on_c, 6, 52, 0
8, 34500, Note_on_c, 6, 52, 110
8, 34560, Note_on_c, 6, 52, 0
8, 34560, Note_on_c, 6, 47, 110
8, 34620, Note_on_c, 6, 47, 0
8, 34620, Note_on_c, 6, 47, 110
8, 34680, Note_on_c, 6, 47, 0
8, 34680, Note_on_c, 6, 47, 110
8, 34740, Note_on_c, 6, 47, 0
8, 34740, Note_on_c, 6, 47, 110
8, 34800, Note_on_c, 6, 47, 0
8, 34800, Note_on_c, 6, 47, 110
8, 34860, Note_on_c, 6, 47, 0
8, 34860, Note_on_c, 6, 47, 110
8, 34920, Note_on_c, 6, 47, 0
8, 34920, Note_on_c, 6, 48, 110
8, 34950, Note_on_c, 6, 48, 0
8, 34980, Note_on_c, 6, 48, 110
8, 35010, Note_on_c, 6, 48, 0
8, 35040, Note_on_c, 6, 48, 110
8, 35070, Note_on_c, 6, 48, 0
8, 35100, Note_on_c, 6, 48, 110
8, 35130, Note_on_c, 6, 48, 0
8, 35160, Note_on_c, 6, 48, 110
8, 35190, Note_on_c, 6, 48, 0
8, 35220, Note_on_c, 6, 49, 110
8, 35250, Note_on_c, 6, 49, 0
8, 35280, Note_on_c, 6, 50, 110
8, 35400, Note_on_c, 6, 50, 0
8, 35400, Note_on_c, 6, 50, 110
8, 35520, Note_on_c, 6, 50, 0
8, 35640, Note_on_c, 6, 55, 70
8, 35760, Note_on_c, 6, 55, 0
8, 36000, Note_on_c, 6, 48, 70
8, 36120, Note_on_c, 6, 48, 0
8, 36360, Note_on_c, 6, 50, 70
8, 36480, Note_on_c, 6, 50, 0
8, 36720, Note_on_c, 6, 43, 70
8, 36840, Note_on_c, 6, 43, 0
8, 37080, Note_on_c, 6, 55, 70
8, 37200, Note_on_c, 6, 55, 0
8, 37440, Note_on_c, 6, 48, 70
8, 37560, Note_on_c, 6, 48, 0
8, 37800, Note_on_c, 6, 50, 70
8, 37920, Note_on_c, 6, 50, 0
8, 38220, Note_on_c, 6, 55, 70
8, 38280, Note_on_c, 6, 55, 0
8, 38280, Note_on_c, 6, 50, 70
8, 38340, Note_on_c, 6, 50, 0
8, 38340, Note_on_c, 6, 48, 70
8, 38400, Note_on_c, 6, 48, 0
8, 38400, Note_on_c, 6, 47, 70
8, 38460, Note_on_c, 6, 47, 0
8, 38460, Note_on_c, 6, 45, 70
8, 38520, Note_on_c, 6, 45, 0
8, 38520, Note_on_c, 6, 43, 68
8, 38640, Note_on_c, 6, 43, 0
8, 38880, Note_on_c, 6, 48, 68
8, 39000, Note_on_c, 6, 48, 0
8, 39240, Note_on_c, 6, 50, 68
8, 39360, Note_on_c, 6, 50, 0
8, 39600, Note_on_c, 6, 55, 68
8, 39720, Note_on_c, 6, 55, 0
8, 39960, Note_on_c, 6, 43, 68
8, 40080, Note_on_c, 6, 43, 0
8, 40320, Note_on_c, 6, 48, 68
8, 40440, Note_on_c, 6, 48, 0
8, 40680, Note_on_c, 6, 48, 68
8, 40800, Note_on_c, 6, 48, 0
8, 40800, Note_on_c, 6, 50, 68
8, 40920, Note_on_c, 6, 50, 0
8, 40920, Note_on_c, 6, 50, 68
8, 41040, Note_on_c, 6, 50, 0
8, 41040, Note_on_c, 6, 43, 110
8, 41160, Note_on_c, 6, 43, 0
8, 41280, Note_on_c, 6, 55, 110
8, 41400, Note_on_c, 6, 55, 0
8, 41400, Note_on_c, 6, 54, 110
8, 41520, Note_on_c, 6, 54, 0
8, 41640, Note_on_c, 6, 66, 110
8, 41760, Note_on_c, 6, 66, 0
8, 41760, Note_on_c, 6, 64, 110
8, 41820, Note_on_c, 6, 64, 0
8, 41820, Note_on_c, 6, 63, 110
8, 41880, Note_on_c, 6, 63, 0
8, 41880, Note_on_c, 6, 64, 110
8, 41940, Note_on_c, 6, 64, 0
8, 41940, Note_on_c, 6, 63, 110
8, 42000, Note_on_c, 6, 63, 0
8, 42000, Note_on_c, 6, 64, 110
8, 42060, Note_on_c, 6, 64, 0
8, 42060, Note_on_c, 6, 60, 110
8, 42120, Note_on_c, 6, 60, 0
8, 42120, Note_on_c, 6, 59, 110
8, 42180, Note_on_c, 6, 59, 0
8, 42180, Note_on_c, 6, 57, 110
8, 42240, Note_on_c, 6, 57, 0
8, 42240, Note_on_c, 6, 55, 110
8, 42300, Note_on_c, 6, 55, 0
8, 42300, Note_on_c, 6, 57, 110
8, 42360, Note_on_c, 6, 57, 0
8, 42360, Note_on_c, 6, 59, 110
8, 42420, Note_on_c, 6, 59, 0
8, 42420, Note_on_c, 6, 55, 110
8, 42480, Note_on_c, 6, 55, 0
8, 42480, Note_on_c, 6, 57, 110
8, 42540, Note_on_c, 6, 57, 0
8, 42540, Note_on_c, 6, 57, 110
8, 42600, Note_on_c, 6, 57, 0
8, 42600, Note_on_c, 6, 57, 110
8, 42660, Note_on_c, 6, 57, 0
8, 42660, Note_on_c, 6, 57, 110
8, 42720, Note_on_c, 6, 57, 0
8, 42720, Note_on_c, 6, 55, 110
8, 42780, Note_on_c, 6, 55, 0
8, 42780, Note_on_c, 6, 55, 110
8, 42840, Note_on_c, 6, 55, 0
8, 42840, Note_on_c, 6, 54, 110
8, 42900, Note_on_c, 6, 54, 0
8, 42900, Note_on_c, 6, 54, 110
8, 42960, Note_on_c, 6, 54, 0
8, 42960, Note_on_c, 6, 50, 110
8, 43020, Note_on_c, 6, 50, 0
8, 43020, Note_on_c, 6, 50, 110
8, 43080, Note_on_c, 6, 50, 0
8, 43080, Note_on_c, 6, 55, 110
8, 43140, Note_on_c, 6, 55, 0
8, 43140, Note_on_c, 6, 55, 110
8, 43200, Note_on_c, 6, 55, 0
8, 43200, Note_on_c, 6, 48, 110
8, 43260, Note_on_c, 6, 48, 0
8, 43260, Note_on_c, 6, 48, 110
8, 43320, Note_on_c, 6, 48, 0
8, 43320, Note_on_c, 6, 50, 110
8, 43380, Note_on_c, 6, 50, 0
8, 43380, Note_on_c, 6, 50, 110
8, 43440, Note_on_c, 6, 50, 0
8, 43440, Note_on_c, 6, 51, 110
8, 43500, Note_on_c, 6, 51, 0
8, 43500, Note_on_c, 6, 51, 110
8, 43560, Note_on_c, 6, 51, 0
8, 43560, Note_on_c, 6, 52, 110
8, 43620, Note_on_c, 6, 52, 0
8, 43680, Note_on_c, 6, 50, 110
8, 43740, Note_on_c, 6, 50, 0
8, 43800, Note_on_c, 6, 48, 110
8, 43860, Note_on_c, 6, 48, 0
8, 43920, Note_on_c, 6, 56, 110
8, 43980, Note_on_c, 6, 56, 0
8, 44040, Note_on_c, 6, 57, 110
8, 44100, Note_on_c, 6, 57, 0
8, 45360, Note_on_c, 6, 43, 110
8, 45480, Note_on_c, 6, 43, 0
8, 45600, Note_on_c, 6, 50, 110
8, 45720, Note_on_c, 6, 50, 0
8, 45720, Note_on_c, 6, 55, 110
8, 45840, Note_on_c, 6, 55, 0
8, 45840, Note_on_c, 6, 59, 110
8, 45960, Note_on_c, 6, 59, 0
8, 45960, Note_on_c, 6, 62, 110
8, 46080, Note_on_c, 6, 62, 0
8, 46080, Note_on_c, 6, 55, 110
8, 46200, Note_on_c, 6, 55, 0
8, 46320, Note_on_c, 6, 50, 110
8, 46440, Note_on_c, 6, 50, 0
8, 46440, Note_on_c, 6, 55, 110
8, 46560, Note_on_c, 6, 55, 0
8, 46560, Note_on_c, 6, 59, 110
8, 46680, Note_on_c, 6, 59, 0
8, 46680, Note_on_c, 6, 62, 110
8, 46800, Note_on_c, 6, 62, 0
8, 46800, Note_on_c, 6, 55, 110
8, 46920, Note_on_c, 6, 55, 0
8, 47040, Note_on_c, 6, 50, 110
8, 47160, Note_on_c, 6, 50, 0
8, 47160, Note_on_c, 6, 55, 110
8, 47280, Note_on_c, 6, 55, 0
8, 47400, Note_on_c, 6, 50, 110
8, 47520, Note_on_c, 6, 50, 0
8, 47520, Note_on_c, 6, 43, 100
8, 47640, Note_on_c, 6, 43, 0
8, 47640, Note_on_c, 6, 55, 100
8, 47700, Note_on_c, 6, 55, 0
8, 47700, Note_on_c, 6, 57, 100
8, 47760, Note_on_c, 6, 57, 0
8, 47760, Note_on_c, 6, 59, 100
8, 47820, Note_on_c, 6, 59, 0
8, 47820, Note_on_c, 6, 60, 100
8, 47880, Note_on_c, 6, 60, 0
8, 47880, Note_on_c, 6, 62, 100
8, 47940, Note_on_c, 6, 62, 0
8, 47940, Note_on_c, 6, 64, 100
8, 48000, Note_on_c, 6, 64, 0
8, 48000, Note_on_c, 6, 65, 100
8, 48060, Note_on_c, 6, 65, 0
8, 48060, Note_on_c, 6, 62, 100
8, 48120, Note_on_c, 6, 62, 0
8, 48120, Note_on_c, 6, 59, 100
8, 48180, Note_on_c, 6, 59, 0
8, 48180, Note_on_c, 6, 55, 100
8, 48240, Note_on_c, 6, 55, 0
8, 48240, Note_on_c, 6, 60, 110
8, 48255, Note_on_c, 6, 60, 0
8, 48255, Note_on_c, 6, 62, 110
8, 48270, Note_on_c, 6, 62, 0
8, 48270, Note_on_c, 6, 60, 110
8, 48285, Note_on_c, 6, 60, 0
8, 48285, Note_on_c, 6, 62, 110
8, 48300, Note_on_c, 6, 62, 0
8, 48300, Note_on_c, 6, 60, 110
8, 48315, Note_on_c, 6, 60, 0
8, 48315, Note_on_c, 6, 62, 110
8, 48330, Note_on_c, 6, 62, 0
8, 48330, Note_on_c, 6, 59, 110
8, 48345, Note_on_c, 6, 59, 0
8, 48345, Note_on_c, 6, 60, 110
8, 48360, Note_on_c, 6, 60, 0
8, 48360, Note_on_c, 6, 62, 110
8, 48420, Note_on_c, 6, 62, 0
8, 48420, Note_on_c, 6, 60, 110
8, 48450, Note_on_c, 6, 60, 0
8, 48480, Note_on_c, 6, 58, 110
8, 48510, Note_on_c, 6, 58, 0
8, 48540, Note_on_c, 6, 57, 110
8, 48570, Note_on_c, 6, 57, 0
8, 48600, Note_on_c, 6, 58, 110
8, 48615, Note_on_c, 6, 58, 0
8, 48615, Note_on_c, 6, 60, 110
8, 48630, Note_on_c, 6, 60, 0
8, 48630, Note_on_c, 6, 58, 110
8, 48645, Note_on_c, 6, 58, 0
8, 48645, Note_on_c, 6, 60, 110
8, 48660, Note_on_c, 6, 60, 0
8, 48660, Note_on_c, 6, 58, 110
8, 48675, Note_on_c, 6, 58, 0
8, 48675, Note_on_c, 6, 60, 110
8, 48690, Note_on_c, 6, 60, 0
8, 48690, Note_on_c, 6, 57, 110
8, 48705, Note_on_c, 6, 57, 0
8, 48705, Note_on_c, 6, 58, 110
8, 48720, Note_on_c, 6, 58, 0
8, 48720, Note_on_c, 6, 60, 110
8, 48780, Note_on_c, 6, 60, 0
8, 48780, Note_on_c, 6, 58, 110
8, 48810, Note_on_c, 6, 58, 0
8, 48840, Note_on_c, 6, 57, 110
8, 48870, Note_on_c, 6, 57, 0
8, 48900, Note_on_c, 6, 55, 110
8, 48930, Note_on_c, 6, 55, 0
8, 48960, Note_on_c, 6, 57, 110
8, 48975, Note_on_c, 6, 57, 0
8, 48975, Note_on_c, 6, 59, 110
8, 48990, Note_on_c, 6, 59, 0
8, 48990, Note_on_c, 6, 57, 110
8, 49005, Note_on_c, 6, 57, 0
8, 49005, Note_on_c, 6, 59, 110
8, 49020, Note_on_c, 6, 59, 0
8, 49020, Note_on_c, 6, 57, 110
8, 49035, Note_on_c, 6, 57, 0
8, 49035, Note_on_c, 6, 59, 110
8, 49050, Note_on_c, 6, 59, 0
8, 49050, Note_on_c, 6, 55, 110
8, 49065, Note_on_c, 6, 55, 0
8, 49065, Note_on_c, 6, 57, 110
8, 49080, Note_on_c, 6, 57, 0
8, 49080, Note_on_c, 6, 58, 110
8, 49140, Note_on_c, 6, 58, 0
8, 49140, Note_on_c, 6, 57, 110
8, 49170, Note_on_c, 6, 57, 0
8, 49200, Note_on_c, 6, 55, 110
8, 49230, Note_on_c, 6, 55, 0
8, 49260, Note_on_c, 6, 53, 110
8, 49290, Note_on_c, 6, 53, 0
8, 49320, Note_on_c, 6, 55, 110
8, 49335, Note_on_c, 6, 55, 0
8, 49335, Note_on_c, 6, 57, 110
8, 49350, Note_on_c, 6, 57, 0
8, 49350, Note_on_c, 6, 55, 110
8, 49365, Note_on_c, 6, 55, 0
8, 49365, Note_on_c, 6, 57, 110
8, 49380, Note_on_c, 6, 57, 0
8, 49380, Note_on_c, 6, 55, 110
8, 49395, Note_on_c, 6, 55, 0
8, 49395, Note_on_c, 6, 57, 110
8, 49410, Note_on_c, 6, 57, 0
8, 49410, Note_on_c, 6, 53, 110
8, 49425, Note_on_c, 6, 53, 0
8, 49425, Note_on_c, 6, 55, 110
8, 49440, Note_on_c, 6, 55, 0
8, 49440, Note_on_c, 6, 57, 110
8, 49500, Note_on_c, 6, 57, 0
8, 49500, Note_on_c, 6, 55, 110
8, 49530, Note_on_c, 6, 55, 0
8, 49560, Note_on_c, 6, 53, 110
8, 49590, Note_on_c, 6, 53, 0
8, 49620, Note_on_c, 6, 52, 110
8, 49650, Note_on_c, 6, 52, 0
8, 49680, Note_on_c, 6, 53, 110
8, 49800, Note_on_c, 6, 53, 0
8, 49800, Note_on_c, 6, 57, 70
8, 49920, Note_on_c, 6, 57, 0
8, 49920, Note_on_c, 6, 53, 70
8, 50040, Note_on_c, 6, 53, 0
8, 50040, Note_on_c, 6, 55, 70
8, 50100, Note_on_c, 6, 55, 0
8, 50160, Note_on_c, 6, 52, 70
8, 50280, Note_on_c, 6, 52, 0
8, 50280, Note_on_c, 6, 48, 70
8, 50400, Note_on_c, 6, 48, 0
8, 50400, Note_on_c, 6, 53, 70
8, 50520, Note_on_c, 6, 53, 0
8, 50520, Note_on_c, 6, 57, 70
8, 50640, Note_on_c, 6, 57, 0
8, 50640, Note_on_c, 6, 53, 70
8, 50760, Note_on_c, 6, 53, 0
8, 50760, Note_on_c, 6, 55, 70
8, 50820, Note_on_c, 6, 55, 0
8, 50880, Note_on_c, 6, 52, 70
8, 51000, Note_on_c, 6, 52, 0
8, 51000, Note_on_c, 6, 48, 70
8, 51120, Note_on_c, 6, 48, 0
8, 51120, Note_on_c, 6, 53, 70
8, 51240, Note_on_c, 6, 53, 0
8, 51360, Note_on_c, 6, 53, 70
8, 51480, Note_on_c, 6, 53, 0
8, 51480, Note_on_c, 6, 52, 70
8, 51600, Note_on_c, 6, 52, 0
8, 51720, Note_on_c, 6, 52, 70
8, 51840, Note_on_c, 6, 52, 0
8, 51840, Note_on_c, 6, 50, 70
8, 51960, Note_on_c, 6, 50, 0
8, 51960, Note_on_c, 6, 47, 70
8, 52080, Note_on_c, 6, 47, 0
8, 52080, Note_on_c, 6, 43, 70
8, 52200, Note_on_c, 6, 43, 0
8, 52200, Note_on_c, 6, 48, 70
8, 52320, Note_on_c, 6, 48, 0
8, 52560, Note_on_c, 6, 48, 70
8, 52680, Note_on_c, 6, 48, 0
8, 52800, Note_on_c, 6, 60, 70
8, 52920, Note_on_c, 6, 60, 0
8, 52920, Note_on_c, 6, 59, 70
8, 53040, Note_on_c, 6, 59, 0
8, 53160, Note_on_c, 6, 59, 70
8, 53280, Note_on_c, 6, 59, 0
8, 53280, Note_on_c, 6, 57, 70
8, 53400, Note_on_c, 6, 57, 0
8, 53400, Note_on_c, 6, 54, 70
8, 53520, Note_on_c, 6, 54, 0
8, 53520, Note_on_c, 6, 50, 70
8, 53640, Note_on_c, 6, 50, 0
8, 53640, Note_on_c, 6, 55, 70
8, 53760, Note_on_c, 6, 55, 0
8, 54360, Note_on_c, 6, 55, 70
8, 54480, Note_on_c, 6, 55, 0
8, 55080, Note_on_c, 6, 43, 70
8, 55200, Note_on_c, 6, 43, 0
8, 55440, Note_on_c, 6, 43, 70
8, 55560, Note_on_c, 6, 43, 0
8, 55800, Note_on_c, 6, 43, 70
8, 55920, Note_on_c, 6, 43, 0
8, 56520, Note_on_c, 6, 60, 110
8, 56640, Note_on_c, 6, 60, 0
8, 56640, Note_on_c, 6, 55, 110
8, 56760, Note_on_c, 6, 55, 0
8, 56880, Note_on_c, 6, 52, 110
8, 57000, Note_on_c, 6, 52, 0
8, 57000, Note_on_c, 6, 48, 110
8, 57120, Note_on_c, 6, 48, 0
8, 58680, Note_on_c, 6, 60, 110
8, 58800, Note_on_c, 6, 60, 0
8, 58800, Note_on_c, 6, 55, 110
8, 58920, Note_on_c, 6, 55, 0
8, 59040, Note_on_c, 6, 52, 110
8, 59160, Note_on_c, 6, 52, 0
8, 59160, Note_on_c, 6, 48, 110
8, 59280, Note_on_c, 6, 48, 0
8, 60840, Note_on_c, 6, 48, 110
8, 60900, Note_on_c, 6, 48, 0
8, 60900, Note_on_c, 6, 48, 110
8, 60960, Note_on_c, 6, 48, 0
8, 60960, Note_on_c, 6, 48, 110
8, 61020, Note_on_c, 6, 48, 0
8, 61020, Note_on_c, 6, 48, 110
8, 61080, Note_on_c, 6, 48, 0
8, 61080, Note_on_c, 6, 52, 110
8, 61140, Note_on_c, 6, 52, 0
8, 61140, Note_on_c, 6, 52, 110
8, 61200, Note_on_c, 6, 52, 0
8, 61200, Note_on_c, 6, 53, 110
8, 61260, Note_on_c, 6, 53, 0
8, 61260, Note_on_c, 6, 53, 110
8, 61320, Note_on_c, 6, 53, 0
8, 61320, Note_on_c, 6, 53, 110
8, 61380, Note_on_c, 6, 53, 0
8, 61380, Note_on_c, 6, 53, 110
8, 61440, Note_on_c, 6, 53, 0
8, 61440, Note_on_c, 6, 55, 110
8, 61500, Note_on_c, 6, 55, 0
8, 61500, Note_on_c, 6, 55, 110
8, 61560, Note_on_c, 6, 55, 0
8, 61560, Note_on_c, 6, 57, 110
8, 61620, Note_on_c, 6, 57, 0
8, 61620, Note_on_c, 6, 57, 110
8, 61680, Note_on_c, 6, 57, 0
8, 61680, Note_on_c, 6, 57, 110
8, 61740, Note_on_c, 6, 57, 0
8, 61740, Note_on_c, 6, 57, 110
8, 61800, Note_on_c, 6, 57, 0
8, 61800, Note_on_c, 6, 57, 110
8, 61860, Note_on_c, 6, 57, 0
8, 61860, Note_on_c, 6, 52, 110
8, 61920, Note_on_c, 6, 52, 0
8, 61920, Note_on_c, 6, 53, 110
8, 61980, Note_on_c, 6, 53, 0
8, 61980, Note_on_c, 6, 53, 110
8, 62040, Note_on_c, 6, 53, 0
8, 62040, Note_on_c, 6, 52, 110
8, 62100, Note_on_c, 6, 52, 0
8, 62100, Note_on_c, 6, 52, 110
8, 62160, Note_on_c, 6, 52, 0
8, 62160, Note_on_c, 6, 47, 110
8, 62220, Note_on_c, 6, 47, 0
8, 62220, Note_on_c, 6, 47, 110
8, 62280, Note_on_c, 6, 47, 0
8, 62280, Note_on_c, 6, 48, 110
8, 62340, Note_on_c, 6, 48, 0
8, 62340, Note_on_c, 6, 48, 110
8, 62400, Note_on_c, 6, 48, 0
8, 62400, Note_on_c, 6, 53, 110
8, 62460, Note_on_c, 6, 53, 0
8, 62460, Note_on_c, 6, 53, 110
8, 62520, Note_on_c, 6, 53, 0
8, 62520, Note_on_c, 6, 55, 110
8, 62580, Note_on_c, 6, 55, 0
8, 62580, Note_on_c, 6, 55, 110
8, 62640, Note_on_c, 6, 55, 0
8, 62640, Note_on_c, 6, 52, 110
8, 62700, Note_on_c, 6, 52, 0
8, 62700, Note_on_c, 6, 52, 110
8, 62760, Note_on_c, 6, 52, 0
8, 62760, Note_on_c, 6, 52, 110
8, 62820, Note_on_c, 6, 52, 0
8, 62820, Note_on_c, 6, 52, 110
8, 62880, Note_on_c, 6, 52, 0
8, 62880, Note_on_c, 6, 52, 110
8, 62940, Note_on_c, 6, 52, 0
8, 62940, Note_on_c, 6, 52, 110
8, 63000, Note_on_c, 6, 52, 0
8, 63000, Note_on_c, 6, 53, 100
8, 63120, Note_on_c, 6, 53, 0
8, 63120, Note_on_c, 6, 55, 100
8, 63240, Note_on_c, 6, 55, 0
8, 63240, Note_on_c, 6, 43, 100
8, 63360, Note_on_c, 6, 43, 0
8, 63360, Note_on_c, 6, 48, 100
8, 63420, Note_on_c, 6, 48, 0
8, 63420, Note_on_c, 6, 55, 100
8, 63480, Note_on_c, 6, 55, 0
8, 63480, Note_on_c, 6, 60, 100
8, 63540, Note_on_c, 6, 60, 0
8, 63540, Note_on_c, 6, 55, 100
8, 63600, Note_on_c, 6, 55, 0
8, 63600, Note_on_c, 6, 52, 100
8, 63660, Note_on_c, 6, 52, 0
8, 63660, Note_on_c, 6, 48, 100
8, 63720, Note_on_c, 6, 48, 0
8, 63720, Note_on_c, 6, 46, 100
8, 63840, Note_on_c, 6, 46, 0
8, 64080, Note_on_c, 6, 45, 100
8, 64140, Note_on_c, 6, 45, 0
8, 64140, Note_on_c, 6, 53, 100
8, 64200, Note_on_c, 6, 53, 0
8, 64200, Note_on_c, 6, 57, 100
8, 64260, Note_on_c, 6, 57, 0
8, 64260, Note_on_c, 6, 53, 100
8, 64320, Note_on_c, 6, 53, 0
8, 64320, Note_on_c, 6, 48, 100
8, 64380, Note_on_c, 6, 48, 0
8, 64380, Note_on_c, 6, 53, 100
8, 64440, Note_on_c, 6, 53, 0
8, 64440, Note_on_c, 6, 45, 100
8, 64560, Note_on_c, 6, 45, 0
8, 64800, Note_on_c, 6, 43, 100
8, 64860, Note_on_c, 6, 43, 0
8, 64860, Note_on_c, 6, 55, 100
8, 64920, Note_on_c, 6, 55, 0
8, 64920, Note_on_c, 6, 61, 100
8, 64980, Note_on_c, 6, 61, 0
8, 64980, Note_on_c, 6, 55, 100
8, 65040, Note_on_c, 6, 55, 0
8, 65040, Note_on_c, 6, 67, 100
8, 65100, Note_on_c, 6, 67, 0
8, 65100, Note_on_c, 6, 61, 100
8, 65160, Note_on_c, 6, 61, 0
8, 65160, Note_on_c, 6, 55, 100
8, 65280, Note_on_c, 6, 55, 0
8, 65520, Note_on_c, 6, 41, 110
8, 65580, Note_on_c, 6, 41, 0
8, 65580, Note_on_c, 6, 53, 110
8, 65640, Note_on_c, 6, 53, 0
8, 65640, Note_on_c, 6, 57, 110
8, 65700, Note_on_c, 6, 57, 0
8, 65700, Note_on_c, 6, 53, 110
8, 65760, Note_on_c, 6, 53, 0
8, 65760, Note_on_c, 6, 62, 110
8, 65820, Note_on_c, 6, 62, 0
8, 65820, Note_on_c, 6, 57, 110
8, 65880, Note_on_c, 6, 57, 0
8, 65880, Note_on_c, 6, 53, 110
8, 66000, Note_on_c, 6, 53, 0
8, 66240, Note_on_c, 6, 54, 110
8, 66300, Note_on_c, 6, 54, 0
8, 66300, Note_on_c, 6, 57, 110
8, 66360, Note_on_c, 6, 57, 0
8, 66360, Note_on_c, 6, 62, 110
8, 66420, Note_on_c, 6, 62, 0
8, 66420, Note_on_c, 6, 57, 110
8, 66480, Note_on_c, 6, 57, 0
8, 66480, Note_on_c, 6, 62, 110
8, 66540, Note_on_c, 6, 62, 0
8, 66540, Note_on_c, 6, 57, 110
8, 66600, Note_on_c, 6, 57, 0
8, 66600, Note_on_c, 6, 54, 110
8, 66720, Note_on_c, 6, 54, 0
8, 66960, Note_on_c, 6, 43, 110
8, 67020, Note_on_c, 6, 43, 0
8, 67020, Note_on_c, 6, 55, 110
8, 67080, Note_on_c, 6, 55, 0
8, 67080, Note_on_c, 6, 62, 110
8, 67140, Note_on_c, 6, 62, 0
8, 67140, Note_on_c, 6, 59, 110
8, 67200, Note_on_c, 6, 59, 0
8, 67200, Note_on_c, 6, 55, 110
8, 67260, Note_on_c, 6, 55, 0
8, 67260, Note_on_c, 6, 50, 110
8, 67320, Note_on_c, 6, 50, 0
8, 67320, Note_on_c, 6, 47, 110
8, 67440, Note_on_c, 6, 47, 0
8, 67680, Note_on_c, 6, 48, 110
8, 67740, Note_on_c, 6, 48, 0
8, 67740, Note_on_c, 6, 48, 110
8, 67800, Note_on_c, 6, 48, 0
8, 67800, Note_on_c, 6, 48, 110
8, 67860, Note_on_c, 6, 48, 0
8, 67860, Note_on_c, 6, 48, 110
8, 67920, Note_on_c, 6, 48, 0
8, 67920, Note_on_c, 6, 48, 110
8, 67980, Note_on_c, 6, 48, 0
8, 67980, Note_on_c, 6, 48, 110
8, 68040, Note_on_c, 6, 48, 0
8, 68040, Note_on_c, 6, 57, 110
8, 68100, Note_on_c, 6, 57, 0
8, 68100, Note_on_c, 6, 57, 110
8, 68160, Note_on_c, 6, 57, 0
8, 68160, Note_on_c, 6, 57, 110
8, 68220, Note_on_c, 6, 57, 0
8, 68220, Note_on_c, 6, 57, 110
8, 68280, Note_on_c, 6, 57, 0
8, 68280, Note_on_c, 6, 57, 110
8, 68340, Note_on_c, 6, 57, 0
8, 68340, Note_on_c, 6, 57, 110
8, 68400, Note_on_c, 6, 57, 0
8, 68400, Note_on_c, 6, 52, 110
8, 68460, Note_on_c, 6, 52, 0
8, 68460, Note_on_c, 6, 52, 110
8, 68520, Note_on_c, 6, 52, 0
8, 68520, Note_on_c, 6, 52, 110
8, 68580, Note_on_c, 6, 52, 0
8, 68580, Note_on_c, 6, 52, 110
8, 68640, Note_on_c, 6, 52, 0
8, 68640, Note_on_c, 6, 52, 110
8, 68700, Note_on_c, 6, 52, 0
8, 68700, Note_on_c, 6, 52, 110
8, 68760, Note_on_c, 6, 52, 0
8, 68760, Note_on_c, 6, 53, 110
8, 68820, Note_on_c, 6, 53, 0
8, 68820, Note_on_c, 6, 53, 110
8, 68880, Note_on_c, 6, 53, 0
8, 68880, Note_on_c, 6, 53, 110
8, 68940, Note_on_c, 6, 53, 0
8, 68940, Note_on_c, 6, 53, 110
8, 69000, Note_on_c, 6, 53, 0
8, 69000, Note_on_c, 6, 53, 110
8, 69060, Note_on_c, 6, 53, 0
8, 69060, Note_on_c, 6, 54, 110
8, 69120, Note_on_c, 6, 54, 0
8, 69120, Note_on_c, 6, 55, 110
8, 69240, Note_on_c, 6, 55, 0
8, 69240, Note_on_c, 6, 43, 110
8, 69360, Note_on_c, 6, 43, 0
8, 69480, Note_on_c, 6, 48, 70
8, 69600, Note_on_c, 6, 48, 0
8, 69855, Note_on_c, 6, 53, 70
8, 69975, Note_on_c, 6, 53, 0
8, 70200, Note_on_c, 6, 55, 70
8, 70320, Note_on_c, 6, 55, 0
8, 70560, Note_on_c, 6, 48, 70
8, 70680, Note_on_c, 6, 48, 0
8, 70920, Note_on_c, 6, 60, 70
8, 71040, Note_on_c, 6, 60, 0
8, 71280, Note_on_c, 6, 53, 70
8, 71400, Note_on_c, 6, 53, 0
8, 71640, Note_on_c, 6, 55, 70
8, 71760, Note_on_c, 6, 55, 0
8, 72060, Note_on_c, 6, 60, 70
8, 72120, Note_on_c, 6, 60, 0
8, 72120, Note_on_c, 6, 55, 70
8, 72180, Note_on_c, 6, 55, 0
8, 72180, Note_on_c, 6, 53, 70
8, 72240, Note_on_c, 6, 53, 0
8, 72240, Note_on_c, 6, 52, 70
8, 72300, Note_on_c, 6, 52, 0
8, 72300, Note_on_c, 6, 50, 70
8, 72360, Note_on_c, 6, 50, 0
8, 72360, Note_on_c, 6, 48, 70
8, 72480, Note_on_c, 6, 48, 0
8, 72720, Note_on_c, 6, 53, 70
8, 72840, Note_on_c, 6, 53, 0
8, 73080, Note_on_c, 6, 55, 70
8, 73200, Note_on_c, 6, 55, 0
8, 73440, Note_on_c, 6, 48, 70
8, 73560, Note_on_c, 6, 48, 0
8, 73800, Note_on_c, 6, 60, 70
8, 73920, Note_on_c, 6, 60, 0
8, 74160, Note_on_c, 6, 53, 70
8, 74280, Note_on_c, 6, 53, 0
8, 74520, Note_on_c, 6, 55, 70
8, 74640, Note_on_c, 6, 55, 0
8, 74880, Note_on_c, 6, 48, 110
8, 75000, Note_on_c, 6, 48, 0
8, 75120, Note_on_c, 6, 60, 110
8, 75240, Note_on_c, 6, 60, 0
8, 75240, Note_on_c, 6, 59, 110
8, 75360, Note_on_c, 6, 59, 0
8, 75480, Note_on_c, 6, 59, 110
8, 75600, Note_on_c, 6, 59, 0
8, 75600, Note_on_c, 6, 57, 110
8, 75660, Note_on_c, 6, 57, 0
8, 75660, Note_on_c, 6, 56, 110
8, 75720, Note_on_c, 6, 56, 0
8, 75720, Note_on_c, 6, 57, 110
8, 75780, Note_on_c, 6, 57, 0
8, 75780, Note_on_c, 6, 56, 110
8, 75840, Note_on_c, 6, 56, 0
8, 75840, Note_on_c, 6, 57, 110
8, 75900, Note_on_c, 6, 57, 0
8, 75900, Note_on_c, 6, 65, 110
8, 75960, Note_on_c, 6, 65, 0
8, 75960, Note_on_c, 6, 64, 110
8, 76020, Note_on_c, 6, 64, 0
8, 76020, Note_on_c, 6, 62, 110
8, 76080, Note_on_c, 6, 62, 0
8, 76080, Note_on_c, 6, 60, 110
8, 76140, Note_on_c, 6, 60, 0
8, 76140, Note_on_c, 6, 62, 110
8, 76200, Note_on_c, 6, 62, 0
8, 76200, Note_on_c, 6, 64, 110
8, 76260, Note_on_c, 6, 64, 0
8, 76260, Note_on_c, 6, 60, 110
8, 76320, Note_on_c, 6, 60, 0
8, 76320, Note_on_c, 6, 62, 110
8, 76380, Note_on_c, 6, 62, 0
8, 76380, Note_on_c, 6, 62, 110
8, 76440, Note_on_c, 6, 62, 0
8, 76440, Note_on_c, 6, 62, 110
8, 76500, Note_on_c, 6, 62, 0
8, 76500, Note_on_c, 6, 62, 110
8, 76560, Note_on_c, 6, 62, 0
8, 76560, Note_on_c, 6, 60, 110
8, 76620, Note_on_c, 6, 60, 0
8, 76620, Note_on_c, 6, 60, 110
8, 76680, Note_on_c, 6, 60, 0
8, 76680, Note_on_c, 6, 59, 110
8, 76740, Note_on_c, 6, 59, 0
8, 76740, Note_on_c, 6, 59, 110
8, 76800, Note_on_c, 6, 59, 0
8, 76800, Note_on_c, 6, 55, 110
8, 76860, Note_on_c, 6, 55, 0
8, 76860, Note_on_c, 6, 55, 110
8, 76920, Note_on_c, 6, 55, 0
8, 76920, Note_on_c, 6, 60, 110
8, 76980, Note_on_c, 6, 60, 0
8, 76980, Note_on_c, 6, 60, 110
8, 77040, Note_on_c, 6, 60, 0
8, 77040, Note_on_c, 6, 53, 110
8, 77100, Note_on_c, 6, 53, 0
8, 77100, Note_on_c, 6, 53, 110
8, 77160, Note_on_c, 6, 53, 0
8, 77160, Note_on_c, 6, 55, 110
8, 77220, Note_on_c, 6, 55, 0
8, 77220, Note_on_c, 6, 55, 110
8, 77280, Note_on_c, 6, 55, 0
8, 77280, Note_on_c, 6, 56, 110
8, 77340, Note_on_c, 6, 56, 0
8, 77340, Note_on_c, 6, 56, 110
8, 77400, Note_on_c, 6, 56, 0
8, 77400, Note_on_c, 6, 57, 110
8, 77460, Note_on_c, 6, 57, 0
8, 77520, Note_on_c, 6, 55, 110
8, 77580, Note_on_c, 6, 55, 0
8, 77640, Note_on_c, 6, 53, 110
8, 77700, Note_on_c, 6, 53, 0
8, 77760, Note_on_c, 6, 49, 110
8, 77880, Note_on_c, 6, 49, 0
8, 77880, Note_on_c, 6, 50, 110
8, 78000, Note_on_c, 6, 50, 0
8, 78240, Note_on_c, 6, 50, 70
8, 78360, Note_on_c, 6, 50, 0
8, 78360, Note_on_c, 6, 48, 70
8, 78480, Note_on_c, 6, 48, 0
8, 78480, Note_on_c, 6, 47, 70
8, 78600, Note_on_c, 6, 47, 0
8, 78600, Note_on_c, 6, 43, 70
8, 78720, Note_on_c, 6, 43, 0
8, 78720, Note_on_c, 6, 45, 70
8, 78840, Note_on_c, 6, 45, 0
8, 78840, Note_on_c, 6, 53, 70
8, 78960, Note_on_c, 6, 53, 0
8, 78960, Note_on_c, 6, 55, 70
8, 79080, Note_on_c, 6, 55, 0
8, 79080, Note_on_c, 6, 43, 70
8, 79200, Note_on_c, 6, 43, 0
8, 79200, Note_on_c, 6, 48, 110
8, 79320, Note_on_c, 6, 48, 0
8, 79440, Note_on_c, 6, 55, 110
8, 79560, Note_on_c, 6, 55, 0
8, 79560, Note_on_c, 6, 48, 110
8, 79680, Note_on_c, 6, 48, 0
8, 79680, Note_on_c, 6, 52, 110
8, 79800, Note_on_c, 6, 52, 0
8, 79800, Note_on_c, 6, 55, 110
8, 79920, Note_on_c, 6, 55, 0
8, 79920, Note_on_c, 6, 60, 110
8, 80040, Note_on_c, 6, 60, 0
8, 80160, Note_on_c, 6, 55, 110
8, 80280, Note_on_c, 6, 55, 0
8, 80280, Note_on_c, 6, 48, 110
8, 80400, Note_on_c, 6, 48, 0
8, 80400, Note_on_c, 6, 52, 110
8, 80520, Note_on_c, 6, 52, 0
8, 80520, Note_on_c, 6, 55, 110
8, 80640, Note_on_c, 6, 55, 0
8, 80640, Note_on_c, 6, 48, 110
8, 80760, Note_on_c, 6, 48, 0
8, 80880, Note_on_c, 6, 55, 110
8, 81000, Note_on_c, 6, 55, 0
8, 81000, Note_on_c, 6, 48, 110
8, 81120, Note_on_c, 6, 48, 0
8, 81240, Note_on_c, 6, 55, 110
8, 81360, Note_on_c, 6, 55, 0
8, 81360, Note_on_c, 6, 60, 110
8, 81480, Note_on_c, 6, 60, 0
8, 81480, Note_on_c, 6, 55, 110
8, 81600, Note_on_c, 6, 55, 0
8, 81720, Note_on_c, 6, 52, 110
8, 81840, Note_on_c, 6, 52, 0
8, 81840, Note_on_c, 6, 48, 110
8, 81960, Note_on_c, 6, 48, 0
8, 83520, Note_on_c, 6, 60, 110
8, 83535, Note_on_c, 6, 60, 0
8, 83535, Note_on_c, 6, 62, 110
8, 83550, Note_on_c, 6, 62, 0
8, 83550, Note_on_c, 6, 60, 110
8, 83565, Note_on_c, 6, 60, 0
8, 83565, Note_on_c, 6, 62, 110
8, 83580, Note_on_c, 6, 62, 0
8, 83580, Note_on_c, 6, 60, 110
8, 83595, Note_on_c, 6, 60, 0
8, 83595, Note_on_c, 6, 62, 110
8, 83610, Note_on_c, 6, 62, 0
8, 83610, Note_on_c, 6, 59, 110
8, 83625, Note_on_c, 6, 59, 0
8, 83625, Note_on_c, 6, 60, 110
8, 83640, Note_on_c, 6, 60, 0
8, 83640, Note_on_c, 6, 62, 110
8, 83700, Note_on_c, 6, 62, 0
8, 83700, Note_on_c, 6, 60, 110
8, 83730, Note_on_c, 6, 60, 0
8, 83760, Note_on_c, 6, 58, 110
8, 83790, Note_on_c, 6, 58, 0
8, 83820, Note_on_c, 6, 57, 110
8, 83850, Note_on_c, 6, 57, 0
8, 83880, Note_on_c, 6, 58, 110
8, 83895, Note_on_c, 6, 58, 0
8, 83895, Note_on_c, 6, 60, 110
8, 83910, Note_on_c, 6, 60, 0
8, 83910, Note_on_c, 6, 58, 110
8, 83925, Note_on_c, 6, 58, 0
8, 83925, Note_on_c, 6, 60, 110
8, 83940, Note_on_c, 6, 60, 0
8, 83940, Note_on_c, 6, 58, 110
8, 83955, Note_on_c, 6, 58, 0
8, 83955, Note_on_c, 6, 60, 110
8, 83970, Note_on_c, 6, 60, 0
8, 83970, Note_on_c, 6, 57, 110
8, 83985, Note_on_c, 6, 57, 0
8, 83985, Note_on_c, 6, 58, 110
8, 84000, Note_on_c, 6, 58, 0
8, 84000, Note_on_c, 6, 60, 110
8, 84060, Note_on_c, 6, 60, 0
8, 84060, Note_on_c, 6, 58, 110
8, 84090, Note_on_c, 6, 58, 0
8, 84120, Note_on_c, 6, 57, 110
8, 84150, Note_on_c, 6, 57, 0
8, 84180, Note_on_c, 6, 55, 110
8, 84210, Note_on_c, 6, 55, 0
8, 84240, Note_on_c, 6, 57, 110
8, 84255, Note_on_c, 6, 57, 0
8, 84255, Note_on_c, 6, 59, 110
8, 84270, Note_on_c, 6, 59, 0
8, 84270, Note_on_c, 6, 57, 110
8, 84285, Note_on_c, 6, 57, 0
8, 84285, Note_on_c, 6, 59, 110
8, 84300, Note_on_c, 6, 59, 0
8, 84300, Note_on_c, 6, 57, 110
8, 84315, Note_on_c, 6, 57, 0
8, 84315, Note_on_c, 6, 59, 110
8, 84330, Note_on_c, 6, 59, 0
8, 84330, Note_on_c, 6, 55, 110
8, 84345, Note_on_c, 6, 55, 0
8, 84345, Note_on_c, 6, 57, 110
8, 84360, Note_on_c, 6, 57, 0
8, 84360, Note_on_c, 6, 58, 110
8, 84420, Note_on_c, 6, 58, 0
8, 84420, Note_on_c, 6, 57, 110
8, 84450, Note_on_c, 6, 57, 0
8, 84480, Note_on_c, 6, 55, 110
8, 84510, Note_on_c, 6, 55, 0
8, 84540, Note_on_c, 6, 53, 110
8, 84570, Note_on_c, 6, 53, 0
8, 84600, Note_on_c, 6, 55, 110
8, 84615, Note_on_c, 6, 55, 0
8, 84615, Note_on_c, 6, 57, 110
8, 84630, Note_on_c, 6, 57, 0
8, 84630, Note_on_c, 6, 55, 110
8, 84645, Note_on_c, 6, 55, 0
8, 84645, Note_on_c, 6, 57, 110
8, 84660, Note_on_c, 6, 57, 0
8, 84660, Note_on_c, 6, 55, 110
8, 84675, Note_on_c, 6, 55, 0
8, 84675, Note_on_c, 6, 57, 110
8, 84690, Note_on_c, 6, 57, 0
8, 84690, Note_on_c, 6, 53, 110
8, 84705, Note_on_c, 6, 53, 0
8, 84705, Note_on_c, 6, 55, 110
8, 84720, Note_on_c, 6, 55, 0
8, 84720, Note_on_c, 6, 57, 110
8, 84780, Note_on_c, 6, 57, 0
8, 84780, Note_on_c, 6, 55, 110
8, 84810, Note_on_c, 6, 55, 0
8, 84840, Note_on_c, 6, 53, 110
8, 84870, Note_on_c, 6, 53, 0
8, 84900, Note_on_c, 6, 52, 110
8, 84930, Note_on_c, 6, 52, 0
8, 84960, Note_on_c, 6, 53, 110
8, 85080, Note_on_c, 6, 53, 0
8, 85080, Note_on_c, 6, 57, 70
8, 85200, Note_on_c, 6, 57, 0
8, 85200, Note_on_c, 6, 53, 70
8, 85320, Note_on_c, 6, 53, 0
8, 85320, Note_on_c, 6, 55, 70
8, 85380, Note_on_c, 6, 55, 0
8, 85440, Note_on_c, 6, 52, 70
8, 85560, Note_on_c, 6, 52, 0
8, 85560, Note_on_c, 6, 48, 70
8, 85680, Note_on_c, 6, 48, 0
8, 85680, Note_on_c, 6, 53, 70
8, 85800, Note_on_c, 6, 53, 0
8, 85800, Note_on_c, 6, 57, 70
8, 85920, Note_on_c, 6, 57, 0
8, 85920, Note_on_c, 6, 53, 70
8, 86040, Note_on_c, 6, 53, 0
8, 86040, Note_on_c, 6, 55, 70
8, 86100, Note_on_c, 6, 55, 0
8, 86160, Note_on_c, 6, 52, 70
8, 86280, Note_on_c, 6, 52, 0
8, 86280, Note_on_c, 6, 48, 70
8, 86400, Note_on_c, 6, 48, 0
8, 86400, Note_on_c, 6, 53, 70
8, 86520, Note_on_c, 6, 53, 0
8, 86640, Note_on_c, 6, 53, 70
8, 86760, Note_on_c, 6, 53, 0
8, 86760, Note_on_c, 6, 52, 70
8, 86880, Note_on_c, 6, 52, 0
8, 87000, Note_on_c, 6, 52, 70
8, 87120, Note_on_c, 6, 52, 0
8, 87120, Note_on_c, 6, 50, 70
8, 87240, Note_on_c, 6, 50, 0
8, 87240, Note_on_c, 6, 47, 70
8, 87360, Note_on_c, 6, 47, 0
8, 87360, Note_on_c, 6, 43, 70
8, 87480, Note_on_c, 6, 43, 0
8, 87480, Note_on_c, 6, 48, 70
8, 87600, Note_on_c, 6, 48, 0
8, 87840, Note_on_c, 6, 48, 70
8, 87960, Note_on_c, 6, 48, 0
8, 88080, Note_on_c, 6, 60, 70
8, 88200, Note_on_c, 6, 60, 0
8, 88200, Note_on_c, 6, 59, 70
8, 88320, Note_on_c, 6, 59, 0
8, 88440, Note_on_c, 6, 59, 70
8, 88560, Note_on_c, 6, 59, 0
8, 88560, Note_on_c, 6, 57, 70
8, 88680, Note_on_c, 6, 57, 0
8, 88680, Note_on_c, 6, 54, 70
8, 88800, Note_on_c, 6, 54, 0
8, 88800, Note_on_c, 6, 50, 70
8, 88920, Note_on_c, 6, 50, 0
8, 88920, Note_on_c, 6, 55, 70
8, 89040, Note_on_c, 6, 55, 0
8, 89640, Note_on_c, 6, 55, 70
8, 89760, Note_on_c, 6, 55, 0
8, 90360, Note_on_c, 6, 43, 70
8, 90480, Note_on_c, 6, 43, 0
8, 90720, Note_on_c, 6, 43, 70
8, 90840, Note_on_c, 6, 43, 0
8, 91080, Note_on_c, 6, 43, 70
8, 91200, Note_on_c, 6, 43, 0
8, 91800, Note_on_c, 6, 60, 110
8, 91920, Note_on_c, 6, 60, 0
8, 91920, Note_on_c, 6, 55, 110
8, 92040, Note_on_c, 6, 55, 0
8, 92160, Note_on_c, 6, 52, 110
8, 92280, Note_on_c, 6, 52, 0
8, 92280, Note_on_c, 6, 48, 110
8, 92400, Note_on_c, 6, 48, 0
8, 93960, Note_on_c, 6, 60, 110
8, 94080, Note_on_c, 6, 60, 0
8, 94080, Note_on_c, 6, 55, 110
8, 94200, Note_on_c, 6, 55, 0
8, 94320, Note_on_c, 6, 52, 110
8, 94440, Note_on_c, 6, 52, 0
8, 94440, Note_on_c, 6, 48, 110
8, 94560, Note_on_c, 6, 48, 0
8, 96120, Note_on_c, 6, 48, 110
8, 96180, Note_on_c, 6, 48, 0
8, 96180, Note_on_c, 6, 48, 110
8, 96240, Note_on_c, 6, 48, 0
8, 96240, Note_on_c, 6, 48, 110
8, 96300, Note_on_c, 6, 48, 0
8, 96300, Note_on_c, 6, 48, 110
8, 96360, Note_on_c, 6, 48, 0
8, 96360, Note_on_c, 6, 52, 110
8, 96420, Note_on_c, 6, 52, 0
8, 96420, Note_on_c, 6, 52, 110
8, 96480, Note_on_c, 6, 52, 0
8, 96480, Note_on_c, 6, 53, 110
8, 96540, Note_on_c, 6, 53, 0
8, 96540, Note_on_c, 6, 53, 110
8, 96600, Note_on_c, 6, 53, 0
8, 96600, Note_on_c, 6, 53, 110
8, 96660, Note_on_c, 6, 53, 0
8, 96660, Note_on_c, 6, 53, 110
8, 96720, Note_on_c, 6, 53, 0
8, 96720, Note_on_c, 6, 55, 110
8, 96780, Note_on_c, 6, 55, 0
8, 96780, Note_on_c, 6, 55, 110
8, 96840, Note_on_c, 6, 55, 0
8, 96840, Note_on_c, 6, 57, 110
8, 96900, Note_on_c, 6, 57, 0
8, 96900, Note_on_c, 6, 57, 110
8, 96960, Note_on_c, 6, 57, 0
8, 96960, Note_on_c, 6, 57, 110
8, 97020, Note_on_c, 6, 57, 0
8, 97020, Note_on_c, 6, 57, 110
8, 97080, Note_on_c, 6, 57, 0
8, 97080, Note_on_c, 6, 57, 110
8, 97140, Note_on_c, 6, 57, 0
8, 97140, Note_on_c, 6, 52, 110
8, 97200, Note_on_c, 6, 52, 0
8, 97200, Note_on_c, 6, 53, 110
8, 97260, Note_on_c, 6, 53, 0
8, 97260, Note_on_c, 6, 53, 110
8, 97320, Note_on_c, 6, 53, 0
8, 97320, Note_on_c, 6, 52, 110
8, 97380, Note_on_c, 6, 52, 0
8, 97380, Note_on_c, 6, 52, 110
8, 97440, Note_on_c, 6, 52, 0
8, 97440, Note_on_c, 6, 47, 110
8, 97500, Note_on_c, 6, 47, 0
8, 97500, Note_on_c, 6, 47, 110
8, 97560, Note_on_c, 6, 47, 0
8, 97560, Note_on_c, 6, 48, 110
8, 97620, Note_on_c, 6, 48, 0
8, 97620, Note_on_c, 6, 48, 110
8, 97680, Note_on_c, 6, 48, 0
8, 97680, Note_on_c, 6, 53, 110
8, 97740, Note_on_c, 6, 53, 0
8, 97740, Note_on_c, 6, 53, 110
8, 97800, Note_on_c, 6, 53, 0
8, 97800, Note_on_c, 6, 55, 110
8, 97860, Note_on_c, 6, 55, 0
8, 97860, Note_on_c, 6, 55, 110
8, 97920, Note_on_c, 6, 55, 0
8, 97920, Note_on_c, 6, 52, 110
8, 97980, Note_on_c, 6, 52, 0
8, 97980, Note_on_c, 6, 52, 110
8, 98040, Note_on_c, 6, 52, 0
8, 98040, Note_on_c, 6, 52, 110
8, 98100, Note_on_c, 6, 52, 0
8, 98100, Note_on_c, 6, 52, 110
8, 98160, Note_on_c, 6, 52, 0
8, 98160, Note_on_c, 6, 52, 110
8, 98220, Note_on_c, 6, 52, 0
8, 98220, Note_on_c, 6, 52, 110
8, 98280, Note_on_c, 6, 52, 0
8, 98280, Note_on_c, 6, 53, 100
8, 98400, Note_on_c, 6, 53, 0
8, 98400, Note_on_c, 6, 55, 100
8, 98520, Note_on_c, 6, 55, 0
8, 98520, Note_on_c, 6, 43, 100
8, 98640, Note_on_c, 6, 43, 0
8, 98640, Note_on_c, 6, 48, 100
8, 98700, Note_on_c, 6, 48, 0
8, 98700, Note_on_c, 6, 55, 100
8, 98760, Note_on_c, 6, 55, 0
8, 98760, Note_on_c, 6, 60, 100
8, 98820, Note_on_c, 6, 60, 0
8, 98820, Note_on_c, 6, 55, 100
8, 98880, Note_on_c, 6, 55, 0
8, 98880, Note_on_c, 6, 52, 100
8, 98940, Note_on_c, 6, 52, 0
8, 98940, Note_on_c, 6, 48, 100
8, 99000, Note_on_c, 6, 48, 0
8, 99000, Note_on_c, 6, 46, 100
8, 99120, Note_on_c, 6, 46, 0
8, 99360, Note_on_c, 6, 45, 100
8, 99420, Note_on_c, 6, 45, 0
8, 99420, Note_on_c, 6, 53, 100
8, 99480, Note_on_c, 6, 53, 0
8, 99480, Note_on_c, 6, 57, 100
8, 99540, Note_on_c, 6, 57, 0
8, 99540, Note_on_c, 6, 53, 100
8, 99600, Note_on_c, 6, 53, 0
8, 99600, Note_on_c, 6, 48, 100
8, 99660, Note_on_c, 6, 48, 0
8, 99660, Note_on_c, 6, 53, 100
8, 99720, Note_on_c, 6, 53, 0
8, 99720, Note_on_c, 6, 45, 100
8, 99840, Note_on_c, 6, 45, 0
8, 100080, Note_on_c, 6, 43, 100
8, 100140, Note_on_c, 6, 43, 0
8, 100140, Note_on_c, 6, 55, 100
8, 100200, Note_on_c, 6, 55, 0
8, 100200, Note_on_c, 6, 61, 100
8, 100260, Note_on_c, 6, 61, 0
8, 100260, Note_on_c, 6, 55, 100
8, 100320, Note_on_c, 6, 55, 0
8, 100320, Note_on_c, 6, 67, 100
8, 100380, Note_on_c, 6, 67, 0
8, 100380, Note_on_c, 6, 61, 100
8, 100440, Note_on_c, 6, 61, 0
8, 100440, Note_on_c, 6, 55, 100
8, 100560, Note_on_c, 6, 55, 0
8, 100800, Note_on_c, 6, 41, 110
8, 100860, Note_on_c, 6, 41, 0
8, 100860, Note_on_c, 6, 53, 110
8, 100920, Note_on_c, 6, 53, 0
8, 100920, Note_on_c, 6, 57, 110
8, 100980, Note_on_c, 6, 57, 0
8, 100980, Note_on_c, 6, 53, 110
8, 101040, Note_on_c, 6, 53, 0
8, 101040, Note_on_c, 6, 62, 110
8, 101100, Note_on_c, 6, 62, 0
8, 101100, Note_on_c, 6, 57, 110
8, 101160, Note_on_c, 6, 57, 0
8, 101160, Note_on_c, 6, 53, 110
8, 101280, Note_on_c, 6, 53, 0
8, 101520, Note_on_c, 6, 54, 110
8, 101580, Note_on_c, 6, 54, 0
8, 101580, Note_on_c, 6, 57, 110
8, 101640, Note_on_c, 6, 57, 0
8, 101640, Note_on_c, 6, 62, 110
8, 101700, Note_on_c, 6, 62, 0
8, 101700, Note_on_c, 6, 57, 110
8, 101760, Note_on_c, 6, 57, 0
8, 101760, Note_on_c, 6, 62, 110
8, 101820, Note_on_c, 6, 62, 0
8, 101820, Note_on_c, 6, 57, 110
8, 101880, Note_on_c, 6, 57, 0
8, 101880, Note_on_c, 6, 54, 110
8, 102000, Note_on_c, 6, 54, 0
8, 102240, Note_on_c, 6, 43, 110
8, 102300, Note_on_c, 6, 43, 0
8, 102300, Note_on_c, 6, 55, 110
8, 102360, Note_on_c, 6, 55, 0
8, 102360, Note_on_c, 6, 62, 110
8, 102420, Note_on_c, 6, 62, 0
8, 102420, Note_on_c, 6, 59, 110
8, 102480, Note_on_c, 6, 59, 0
8, 102480, Note_on_c, 6, 55, 110
8, 102540, Note_on_c, 6, 55, 0
8, 102540, Note_on_c, 6, 50, 110
8, 102600, Note_on_c, 6, 50, 0
8, 102600, Note_on_c, 6, 47, 110
8, 102720, Note_on_c, 6, 47, 0
8, 102960, Note_on_c, 6, 48, 110
8, 103020, Note_on_c, 6, 48, 0
8, 103020, Note_on_c, 6, 48, 110
8, 103080, Note_on_c, 6, 48, 0
8, 103080, Note_on_c, 6, 48, 110
8, 103140, Note_on_c, 6, 48, 0
8, 103140, Note_on_c, 6, 48, 110
8, 103200, Note_on_c, 6, 48, 0
8, 103200, Note_on_c, 6, 48, 110
8, 103260, Note_on_c, 6, 48, 0
8, 103260, Note_on_c, 6, 48, 110
8, 103320, Note_on_c, 6, 48, 0
8, 103320, Note_on_c, 6, 57, 110
8, 103380, Note_on_c, 6, 57, 0
8, 103380, Note_on_c, 6, 57, 110
8, 103440, Note_on_c, 6, 57, 0
8, 103440, Note_on_c, 6, 57, 110
8, 103500, Note_on_c, 6, 57, 0
8, 103500, Note_on_c, 6, 57, 110
8, 103560, Note_on_c, 6, 57, 0
8, 103560, Note_on_c, 6, 57, 110
8, 103620, Note_on_c, 6, 57, 0
8, 103620, Note_on_c, 6, 57, 110
8, 103680, Note_on_c, 6, 57, 0
8, 103680, Note_on_c, 6, 52, 110
8, 103740, Note_on_c, 6, 52, 0
8, 103740, Note_on_c, 6, 52, 110
8, 103800, Note_on_c, 6, 52, 0
8, 103800, Note_on_c, 6, 52, 110
8, 103860, Note_on_c, 6, 52, 0
8, 103860, Note_on_c, 6, 52, 110
8, 103920, Note_on_c, 6, 52, 0
8, 103920, Note_on_c, 6, 52, 110
8, 103980, Note_on_c, 6, 52, 0
8, 103980, Note_on_c, 6, 52, 110
8, 104040, Note_on_c, 6, 52, 0
8, 104040, Note_on_c, 6, 53, 110
8, 104100, Note_on_c, 6, 53, 0
8, 104100, Note_on_c, 6, 53, 110
8, 104160, Note_on_c, 6, 53, 0
8, 104160, Note_on_c, 6, 53, 110
8, 104220, Note_on_c, 6, 53, 0
8, 104220, Note_on_c, 6, 53, 110
8, 104280, Note_on_c, 6, 53, 0
8, 104280, Note_on_c, 6, 53, 110
8, 104340, Note_on_c, 6, 53, 0
8, 104340, Note_on_c, 6, 54, 110
8, 104400, Note_on_c, 6, 54, 0
8, 104400, Note_on_c, 6, 55, 110
8, 104520, Note_on_c, 6, 55, 0
8, 104520, Note_on_c, 6, 43, 110
8, 104640, Note_on_c, 6, 43, 0
8, 104760, Note_on_c, 6, 48, 70
8, 104880, Note_on_c, 6, 48, 0
8, 105135, Note_on_c, 6, 53, 70
8, 105255, Note_on_c, 6, 53, 0
8, 105480, Note_on_c, 6, 55, 70
8, 105600, Note_on_c, 6, 55, 0
8, 105840, Note_on_c, 6, 48, 70
8, 105960, Note_on_c, 6, 48, 0
8, 106200, Note_on_c, 6, 60, 70
8, 106320, Note_on_c, 6, 60, 0
8, 106560, Note_on_c, 6, 53, 70
8, 106680, Note_on_c, 6, 53, 0
8, 106920, Note_on_c, 6, 55, 70
8, 107040, Note_on_c, 6, 55, 0
8, 107340, Note_on_c, 6, 60, 70
8, 107400, Note_on_c, 6, 60, 0
8, 107400, Note_on_c, 6, 55, 70
8, 107460, Note_on_c, 6, 55, 0
8, 107460, Note_on_c, 6, 53, 70
8, 107520, Note_on_c, 6, 53, 0
8, 107520, Note_on_c, 6, 52, 70
8, 107580, Note_on_c, 6, 52, 0
8, 107580, Note_on_c, 6, 50, 70
8, 107640, Note_on_c, 6, 50, 0
8, 107640, Note_on_c, 6, 48, 70
8, 107760, Note_on_c, 6, 48, 0
8, 108000, Note_on_c, 6, 53, 70
8, 108120, Note_on_c, 6, 53, 0
8, 108360, Note_on_c, 6, 55, 70
8, 108480, Note_on_c, 6, 55, 0
8, 108720, Note_on_c, 6, 48, 70
8, 108840, Note_on_c, 6, 48, 0
8, 109080, Note_on_c, 6, 60, 70
8, 109200, Note_on_c, 6, 60, 0
8, 109440, Note_on_c, 6, 53, 70
8, 109560, Note_on_c, 6, 53, 0
8, 109800, Note_on_c, 6, 55, 70
8, 109920, Note_on_c, 6, 55, 0
8, 110160, Note_on_c, 6, 48, 110
8, 110280, Note_on_c, 6, 48, 0
8, 110400, Note_on_c, 6, 60, 110
8, 110520, Note_on_c, 6, 60, 0
8, 110520, Note_on_c, 6, 59, 110
8, 110640, Note_on_c, 6, 59, 0
8, 110760, Note_on_c, 6, 59, 110
8, 110880, Note_on_c, 6, 59, 0
8, 110880, Note_on_c, 6, 57, 110
8, 110940, Note_on_c, 6, 57, 0
8, 110940, Note_on_c, 6, 56, 110
8, 111000, Note_on_c, 6, 56, 0
8, 111000, Note_on_c, 6, 57, 110
8, 111060, Note_on_c, 6, 57, 0
8, 111060, Note_on_c, 6, 56, 110
8, 111120, Note_on_c, 6, 56, 0
8, 111120, Note_on_c, 6, 57, 110
8, 111180, Note_on_c, 6, 57, 0
8, 111180, Note_on_c, 6, 65, 110
8, 111240, Note_on_c, 6, 65, 0
8, 111240, Note_on_c, 6, 64, 110
8, 111300, Note_on_c, 6, 64, 0
8, 111300, Note_on_c, 6, 62, 110
8, 111360, Note_on_c, 6, 62, 0
8, 111360, Note_on_c, 6, 60, 110
8, 111420, Note_on_c, 6, 60, 0
8, 111420, Note_on_c, 6, 62, 110
8, 111480, Note_on_c, 6, 62, 0
8, 111480, Note_on_c, 6, 64, 110
8, 111540, Note_on_c, 6, 64, 0
8, 111540, Note_on_c, 6, 60, 110
8, 111600, Note_on_c, 6, 60, 0
8, 111600, Note_on_c, 6, 62, 110
8, 111660, Note_on_c, 6, 62, 0
8, 111660, Note_on_c, 6, 62, 110
8, 111720, Note_on_c, 6, 62, 0
8, 111720, Note_on_c, 6, 62, 110
8, 111780, Note_on_c, 6, 62, 0
8, 111780, Note_on_c, 6, 62, 110
8, 111840, Note_on_c, 6, 62, 0
8, 111840, Note_on_c, 6, 60, 110
8, 111900, Note_on_c, 6, 60, 0
8, 111900, Note_on_c, 6, 60, 110
8, 111960, Note_on_c, 6, 60, 0
8, 111960, Note_on_c, 6, 59, 110
8, 112020, Note_on_c, 6, 59, 0
8, 112020, Note_on_c, 6, 59, 110
8, 112080, Note_on_c, 6, 59, 0
8, 112080, Note_on_c, 6, 55, 110
8, 112140, Note_on_c, 6, 55, 0
8, 112140, Note_on_c, 6, 55, 110
8, 112200, Note_on_c, 6, 55, 0
8, 112200, Note_on_c, 6, 60, 110
8, 112260, Note_on_c, 6, 60, 0
8, 112260, Note_on_c, 6, 60, 110
8, 112320, Note_on_c, 6, 60, 0
8, 112320, Note_on_c, 6, 53, 110
8, 112380, Note_on_c, 6, 53, 0
8, 112380, Note_on_c, 6, 53, 110
8, 112440, Note_on_c, 6, 53, 0
8, 112440, Note_on_c, 6, 55, 110
8, 112500, Note_on_c, 6, 55, 0
8, 112500, Note_on_c, 6, 55, 110
8, 112560, Note_on_c, 6, 55, 0
8, 112560, Note_on_c, 6, 56, 110
8, 112620, Note_on_c, 6, 56, 0
8, 112620, Note_on_c, 6, 56, 110
8, 112680, Note_on_c, 6, 56, 0
8, 112680, Note_on_c, 6, 57, 110
8, 112740, Note_on_c, 6, 57, 0
8, 112800, Note_on_c, 6, 55, 110
8, 112860, Note_on_c, 6, 55, 0
8, 112920, Note_on_c, 6, 53, 110
8, 112980, Note_on_c, 6, 53, 0
8, 113040, Note_on_c, 6, 49, 110
8, 113160, Note_on_c, 6, 49, 0
8, 113160, Note_on_c, 6, 50, 110
8, 113280, Note_on_c, 6, 50, 0
8, 113520, Note_on_c, 6, 50, 70
8, 113640, Note_on_c, 6, 50, 0
8, 113640, Note_on_c, 6, 48, 70
8, 113760, Note_on_c, 6, 48, 0
8, 113760, Note_on_c, 6, 47, 70
8, 113880, Note_on_c, 6, 47, 0
8, 113880, Note_on_c, 6, 43, 70
8, 114000, Note_on_c, 6, 43, 0
8, 114000, Note_on_c, 6, 45, 70
8, 114120, Note_on_c, 6, 45, 0
8, 114120, Note_on_c, 6, 53, 70
8, 114240, Note_on_c, 6, 53, 0
8, 114240, Note_on_c, 6, 55, 70
8, 114360, Note_on_c, 6, 55, 0
8, 114360, Note_on_c, 6, 43, 70
8, 114480, Note_on_c, 6, 43, 0
8, 114480, Note_on_c, 6, 48, 110
8, 114600, Note_on_c, 6, 48, 0
8, 114720, Note_on_c, 6, 55, 110
8, 114840, Note_on_c, 6, 55, 0
8, 114840, Note_on_c, 6, 48, 110
8, 114960, Note_on_c, 6, 48, 0
8, 114960, Note_on_c, 6, 52, 110
8, 115080, Note_on_c, 6, 52, 0
8, 115080, Note_on_c, 6, 55, 110
8, 115200, Note_on_c, 6, 55, 0
8, 115200, Note_on_c, 6, 60, 110
8, 115320, Note_on_c, 6, 60, 0
8, 115440, Note_on_c, 6, 55, 110
8, 115560, Note_on_c, 6, 55, 0
8, 115560, Note_on_c, 6, 48, 110
8, 115680, Note_on_c, 6, 48, 0
8, 115680, Note_on_c, 6, 52, 110
8, 115800, Note_on_c, 6, 52, 0
8, 115800, Note_on_c, 6, 55, 110
8, 115920, Note_on_c, 6, 55, 0
8, 115920, Note_on_c, 6, 48, 110
8, 116040, Note_on_c, 6, 48, 0
8, 116160, Note_on_c, 6, 55, 110
8, 116280, Note_on_c, 6, 55, 0
8, 116280, Note_on_c, 6, 48, 110
8, 116400, Note_on_c, 6, 48, 0
8, 116520, Note_on_c, 6, 55, 110
8, 116640, Note_on_c, 6, 55, 0
8, 116640, Note_on_c, 6, 60, 110
8, 116760, Note_on_c, 6, 60, 0
8, 116760, Note_on_c, 6, 55, 110
8, 116880, Note_on_c, 6, 55, 0
8, 117000, Note_on_c, 6, 52, 110
8, 117120, Note_on_c, 6, 52, 0
8, 117120, Note_on_c, 6, 48, 110
8, 117240, Note_on_c, 6, 48, 0
8, 118800, Note_on_c, 6, 60, 110
8, 118815, Note_on_c, 6, 60, 0
8, 118815, Note_on_c, 6, 62, 110
8, 118830, Note_on_c, 6, 62, 0
8, 118830, Note_on_c, 6, 60, 110
8, 118845, Note_on_c, 6, 60, 0
8, 118845, Note_on_c, 6, 62, 110
8, 118860, Note_on_c, 6, 62, 0
8, 118860, Note_on_c, 6, 60, 110
8, 118875, Note_on_c, 6, 60, 0
8, 118875, Note_on_c, 6, 62, 110
8, 118890, Note_on_c, 6, 62, 0
8, 118890, Note_on_c, 6, 59, 110
8, 118905, Note_on_c, 6, 59, 0
8, 118905, Note_on_c, 6, 60, 110
8, 118920, Note_on_c, 6, 60, 0
8, 118920, Note_on_c, 6, 64, 110
8, 118950, Note_on_c, 6, 64, 0
8, 118980, Note_on_c, 6, 60, 110
8, 119010, Note_on_c, 6, 60, 0
8, 119040, Note_on_c, 6, 55, 110
8, 119070, Note_on_c, 6, 55, 0
8, 119100, Note_on_c, 6, 52, 110
8, 119130, Note_on_c, 6, 52, 0
8, 119160, Note_on_c, 6, 53, 110
8, 119220, Note_on_c, 6, 53, 0
8, 119280, Note_on_c, 6, 50, 110
8, 119340, Note_on_c, 6, 50, 0
8, 119400, Note_on_c, 6, 55, 110
8, 119460, Note_on_c, 6, 55, 0
8, 119520, Note_on_c, 6, 60, 110
8, 119535, Note_on_c, 6, 60, 0
8, 119535, Note_on_c, 6, 62, 110
8, 119550, Note_on_c, 6, 62, 0
8, 119550, Note_on_c, 6, 60, 110
8, 119565, Note_on_c, 6, 60, 0
8, 119565, Note_on_c, 6, 62, 110
8, 119580, Note_on_c, 6, 62, 0
8, 119580, Note_on_c, 6, 60, 110
8, 119595, Note_on_c, 6, 60, 0
8, 119595, Note_on_c, 6, 62, 110
8, 119610, Note_on_c, 6, 62, 0
8, 119610, Note_on_c, 6, 59, 110
8, 119625, Note_on_c, 6, 59, 0
8, 119625, Note_on_c, 6, 60, 110
8, 119640, Note_on_c, 6, 60, 0
8, 119640, Note_on_c, 6, 64, 110
8, 119670, Note_on_c, 6, 64, 0
8, 119700, Note_on_c, 6, 60, 110
8, 119730, Note_on_c, 6, 60, 0
8, 119760, Note_on_c, 6, 55, 110
8, 119790, Note_on_c, 6, 55, 0
8, 119820, Note_on_c, 6, 52, 110
8, 119850, Note_on_c, 6, 52, 0
8, 119880, Note_on_c, 6, 53, 110
8, 119940, Note_on_c, 6, 53, 0
8, 120000, Note_on_c, 6, 50, 110
8, 120060, Note_on_c, 6, 50, 0
8, 120120, Note_on_c, 6, 55, 110
8, 120180, Note_on_c, 6, 55, 0
8, 120240, Note_on_c, 6, 48, 110
8, 120360, Note_on_c, 6, 48, 0
8, 120600, Note_on_c, 6, 60, 110
8, 120720, Note_on_c, 6, 60, 0
8, 120720, Note_on_c, 6, 55, 110
8, 120840, Note_on_c, 6, 55, 0
8, 120840, Note_on_c, 6, 52, 110
8, 120960, Note_on_c, 6, 52, 0
8, 120960, Note_on_c, 6, 48, 110
8, 121080, Note_on_c, 6, 48, 0
8, 121080, Note_on_c, 6, 43, 110
8, 121200, Note_on_c, 6, 43, 0
8, 121200, Note_on_c, 6, 52, 110
8, 121320, Note_on_c, 6, 52, 0
8, 121320, Note_on_c, 6, 48, 110
8, 121440, Note_on_c, 6, 48, 0
8, 121440, End_track
0, 0, End_of_file
