0, 0, Header, 1, 11, 120
1, 0, Start_track
1, 0, Key_signature, -3, "major"
1, 0, SMPTE_offset, 96, 0, 0, 0, 0
1, 0, Tempo, 394736
1, 0, Time_signature, 3, 3, 24, 8
1, 0, End_track
2, 0, Start_track
2, 0, MIDI_port, 0
2, 0, Title_t, "Oboes"
2, 0, Program_c, 0, 68
2, 181, Note_on_c, 0, 75, 114
2, 225, Note_on_c, 0, 75, 0
2, 241, Note_on_c, 0, 79, 114
2, 285, Note_on_c, 0, 79, 0
2, 301, Note_on_c, 0, 82, 114
2, 345, Note_on_c, 0, 82, 0
2, 361, Note_on_c, 0, 70, 114
2, 405, Note_on_c, 0, 70, 0
2, 421, Note_on_c, 0, 70, 114
2, 443, Note_on_c, 0, 70, 0
2, 451, Note_on_c, 0, 72, 114
2, 473, Note_on_c, 0, 72, 0
2, 481, Note_on_c, 0, 74, 114
2, 503, Note_on_c, 0, 74, 0
2, 511, Note_on_c, 0, 70, 114
2, 533, Note_on_c, 0, 70, 0
2, 541, Note_on_c, 0, 75, 114
2, 585, Note_on_c, 0, 75, 0
2, 601, Note_on_c, 0, 79, 114
2, 645, Note_on_c, 0, 79, 0
2, 661, Note_on_c, 0, 82, 114
2, 705, Note_on_c, 0, 82, 0
2, 721, Note_on_c, 0, 70, 114
2, 840, Note_on_c, 0, 70, 0
2, 901, Note_on_c, 0, 77, 114
2, 901, Note_on_c, 0, 80, 114
2, 1068, Note_on_c, 0, 77, 0
2, 1068, Note_on_c, 0, 80, 0
2, 1081, Note_on_c, 0, 79, 114
2, 1081, Note_on_c, 0, 75, 114
2, 1248, Note_on_c, 0, 79, 0
2, 1248, Note_on_c, 0, 75, 0
2, 1261, Note_on_c, 0, 77, 114
2, 1261, Note_on_c, 0, 72, 114
2, 1380, Note_on_c, 0, 77, 0
2, 1380, Note_on_c, 0, 72, 0
2, 1441, Note_on_c, 0, 74, 114
2, 1441, Note_on_c, 0, 77, 114
2, 1500, Note_on_c, 0, 74, 0
2, 1500, Note_on_c, 0, 77, 0
2, 1621, Note_on_c, 0, 75, 114
2, 1665, Note_on_c, 0, 75, 0
2, 1681, Note_on_c, 0, 79, 114
2, 1725, Note_on_c, 0, 79, 0
2, 1741, Note_on_c, 0, 82, 114
2, 1785, Note_on_c, 0, 82, 0
2, 1801, Note_on_c, 0, 70, 114
2, 1845, Note_on_c, 0, 70, 0
2, 1861, Note_on_c, 0, 70, 114
2, 1883, Note_on_c, 0, 70, 0
2, 1891, Note_on_c, 0, 72, 114
2, 1913, Note_on_c, 0, 72, 0
2, 1921, Note_on_c, 0, 74, 114
2, 1943, Note_on_c, 0, 74, 0
2, 1951, Note_on_c, 0, 70, 114
2, 1973, Note_on_c, 0, 70, 0
2, 1981, Note_on_c, 0, 75, 114
2, 2025, Note_on_c, 0, 75, 0
2, 2041, Note_on_c, 0, 79, 114
2, 2085, Note_on_c, 0, 79, 0
2, 2101, Note_on_c, 0, 82, 114
2, 2145, Note_on_c, 0, 82, 0
2, 2161, Note_on_c, 0, 70, 114
2, 2280, Note_on_c, 0, 70, 0
2, 2341, Note_on_c, 0, 77, 114
2, 2341, Note_on_c, 0, 80, 114
2, 2508, Note_on_c, 0, 77, 0
2, 2508, Note_on_c, 0, 80, 0
2, 2521, Note_on_c, 0, 79, 114
2, 2521, Note_on_c, 0, 75, 114
2, 2688, Note_on_c, 0, 79, 0
2, 2688, Note_on_c, 0, 75, 0
2, 2701, Note_on_c, 0, 77, 114
2, 2701, Note_on_c, 0, 72, 114
2, 2730, Note_on_c, 0, 77, 0
2, 2731, Note_on_c, 0, 80, 114
2, 2760, Note_on_c, 0, 72, 0
2, 2760, Note_on_c, 0, 80, 0
2, 2761, Note_on_c, 0, 70, 114
2, 2761, Note_on_c, 0, 79, 114
2, 2790, Note_on_c, 0, 70, 0
2, 2790, Note_on_c, 0, 79, 0
2, 2791, Note_on_c, 0, 68, 114
2, 2791, Note_on_c, 0, 77, 114
2, 2820, Note_on_c, 0, 68, 0
2, 2820, Note_on_c, 0, 77, 0
2, 2821, Note_on_c, 0, 67, 114
2, 2821, Note_on_c, 0, 75, 114
2, 2850, Note_on_c, 0, 67, 0
2, 2850, Note_on_c, 0, 75, 0
2, 2851, Note_on_c, 0, 65, 114
2, 2851, Note_on_c, 0, 74, 114
2, 2880, Note_on_c, 0, 65, 0
2, 2880, Note_on_c, 0, 74, 0
2, 2881, Note_on_c, 0, 75, 114
2, 2881, Note_on_c, 0, 67, 114
2, 2958, Note_on_c, 0, 75, 0
2, 2958, Note_on_c, 0, 67, 0
2, 3061, Note_on_c, 0, 75, 114
2, 3105, Note_on_c, 0, 75, 0
2, 3121, Note_on_c, 0, 79, 114
2, 3165, Note_on_c, 0, 79, 0
2, 3181, Note_on_c, 0, 82, 114
2, 3225, Note_on_c, 0, 82, 0
2, 3241, Note_on_c, 0, 70, 114
2, 3285, Note_on_c, 0, 70, 0
2, 3301, Note_on_c, 0, 70, 114
2, 3323, Note_on_c, 0, 70, 0
2, 3331, Note_on_c, 0, 72, 114
2, 3353, Note_on_c, 0, 72, 0
2, 3361, Note_on_c, 0, 74, 114
2, 3383, Note_on_c, 0, 74, 0
2, 3391, Note_on_c, 0, 70, 114
2, 3413, Note_on_c, 0, 70, 0
2, 3421, Note_on_c, 0, 75, 114
2, 3465, Note_on_c, 0, 75, 0
2, 3481, Note_on_c, 0, 79, 114
2, 3525, Note_on_c, 0, 79, 0
2, 3541, Note_on_c, 0, 82, 114
2, 3585, Note_on_c, 0, 82, 0
2, 3601, Note_on_c, 0, 70, 114
2, 3720, Note_on_c, 0, 70, 0
2, 3781, Note_on_c, 0, 77, 114
2, 3781, Note_on_c, 0, 80, 114
2, 3948, Note_on_c, 0, 77, 0
2, 3948, Note_on_c, 0, 80, 0
2, 3961, Note_on_c, 0, 79, 114
2, 3961, Note_on_c, 0, 75, 114
2, 4128, Note_on_c, 0, 79, 0
2, 4128, Note_on_c, 0, 75, 0
2, 4141, Note_on_c, 0, 77, 114
2, 4141, Note_on_c, 0, 72, 114
2, 4260, Note_on_c, 0, 77, 0
2, 4260, Note_on_c, 0, 72, 0
2, 4321, Note_on_c, 0, 74, 114
2, 4321, Note_on_c, 0, 77, 114
2, 4380, Note_on_c, 0, 74, 0
2, 4380, Note_on_c, 0, 77, 0
2, 4501, Note_on_c, 0, 75, 114
2, 4545, Note_on_c, 0, 75, 0
2, 4561, Note_on_c, 0, 79, 114
2, 4605, Note_on_c, 0, 79, 0
2, 4621, Note_on_c, 0, 82, 114
2, 4665, Note_on_c, 0, 82, 0
2, 4681, Note_on_c, 0, 70, 114
2, 4725, Note_on_c, 0, 70, 0
2, 4741, Note_on_c, 0, 70, 114
2, 4763, Note_on_c, 0, 70, 0
2, 4771, Note_on_c, 0, 72, 114
2, 4793, Note_on_c, 0, 72, 0
2, 4801, Note_on_c, 0, 74, 114
2, 4823, Note_on_c, 0, 74, 0
2, 4831, Note_on_c, 0, 70, 114
2, 4853, Note_on_c, 0, 70, 0
2, 4861, Note_on_c, 0, 75, 114
2, 4905, Note_on_c, 0, 75, 0
2, 4921, Note_on_c, 0, 79, 114
2, 4965, Note_on_c, 0, 79, 0
2, 4981, Note_on_c, 0, 82, 114
2, 5025, Note_on_c, 0, 82, 0
2, 5041, Note_on_c, 0, 70, 114
2, 5160, Note_on_c, 0, 70, 0
2, 5221, Note_on_c, 0, 77, 114
2, 5221, Note_on_c, 0, 80, 114
2, 5388, Note_on_c, 0, 77, 0
2, 5388, Note_on_c, 0, 80, 0
2, 5401, Note_on_c, 0, 79, 114
2, 5401, Note_on_c, 0, 75, 114
2, 5568, Note_on_c, 0, 79, 0
2, 5568, Note_on_c, 0, 75, 0
2, 5581, Note_on_c, 0, 77, 114
2, 5581, Note_on_c, 0, 72, 114
2, 5610, Note_on_c, 0, 77, 0
2, 5611, Note_on_c, 0, 80, 114
2, 5640, Note_on_c, 0, 72, 0
2, 5640, Note_on_c, 0, 80, 0
2, 5641, Note_on_c, 0, 70, 114
2, 5641, Note_on_c, 0, 79, 114
2, 5670, Note_on_c, 0, 70, 0
2, 5670, Note_on_c, 0, 79, 0
2, 5671, Note_on_c, 0, 68, 114
2, 5671, Note_on_c, 0, 77, 114
2, 5700, Note_on_c, 0, 68, 0
2, 5700, Note_on_c, 0, 77, 0
2, 5701, Note_on_c, 0, 67, 114
2, 5701, Note_on_c, 0, 75, 114
2, 5730, Note_on_c, 0, 67, 0
2, 5730, Note_on_c, 0, 75, 0
2, 5731, Note_on_c, 0, 65, 114
2, 5731, Note_on_c, 0, 74, 114
2, 5760, Note_on_c, 0, 65, 0
2, 5760, Note_on_c, 0, 74, 0
2, 5761, Note_on_c, 0, 75, 114
2, 5761, Note_on_c, 0, 67, 114
2, 5838, Note_on_c, 0, 75, 0
2, 5838, Note_on_c, 0, 67, 0
2, 6601, Note_on_c, 0, 77, 114
2, 6660, Note_on_c, 0, 77, 0
2, 6661, Note_on_c, 0, 76, 114
2, 6720, Note_on_c, 0, 76, 0
2, 6721, Note_on_c, 0, 77, 114
2, 6780, Note_on_c, 0, 77, 0
2, 6781, Note_on_c, 0, 75, 114
2, 6840, Note_on_c, 0, 75, 0
2, 6841, Note_on_c, 0, 73, 114
2, 6900, Note_on_c, 0, 73, 0
2, 6901, Note_on_c, 0, 74, 114
2, 6960, Note_on_c, 0, 74, 0
2, 6961, Note_on_c, 0, 69, 114
2, 7020, Note_on_c, 0, 69, 0
2, 7021, Note_on_c, 0, 70, 114
2, 7080, Note_on_c, 0, 70, 0
2, 7081, Note_on_c, 0, 66, 114
2, 7140, Note_on_c, 0, 66, 0
2, 7141, Note_on_c, 0, 64, 114
2, 7200, Note_on_c, 0, 64, 0
2, 7201, Note_on_c, 0, 65, 114
2, 7260, Note_on_c, 0, 65, 0
2, 7321, Note_on_c, 0, 77, 114
2, 7380, Note_on_c, 0, 77, 0
2, 7381, Note_on_c, 0, 76, 114
2, 7440, Note_on_c, 0, 76, 0
2, 7441, Note_on_c, 0, 77, 114
2, 7500, Note_on_c, 0, 77, 0
2, 7501, Note_on_c, 0, 75, 114
2, 7560, Note_on_c, 0, 75, 0
2, 7561, Note_on_c, 0, 73, 114
2, 7620, Note_on_c, 0, 73, 0
2, 7621, Note_on_c, 0, 74, 114
2, 7680, Note_on_c, 0, 74, 0
2, 7681, Note_on_c, 0, 69, 114
2, 7740, Note_on_c, 0, 69, 0
2, 7741, Note_on_c, 0, 70, 114
2, 7800, Note_on_c, 0, 70, 0
2, 7801, Note_on_c, 0, 66, 114
2, 7860, Note_on_c, 0, 66, 0
2, 7861, Note_on_c, 0, 64, 114
2, 7920, Note_on_c, 0, 64, 0
2, 7921, Note_on_c, 0, 65, 114
2, 8040, Note_on_c, 0, 65, 0
2, 8641, Note_on_c, 0, 69, 114
2, 8641, Note_on_c, 0, 77, 114
2, 8760, Note_on_c, 0, 69, 0
2, 8760, Note_on_c, 0, 77, 0
2, 9361, Note_on_c, 0, 69, 114
2, 9361, Note_on_c, 0, 77, 114
2, 9480, Note_on_c, 0, 69, 0
2, 9480, Note_on_c, 0, 77, 0
2, 9541, Note_on_c, 0, 70, 114
2, 9541, Note_on_c, 0, 82, 114
2, 9660, Note_on_c, 0, 70, 0
2, 9660, Note_on_c, 0, 82, 0
2, 9721, Note_on_c, 0, 69, 114
2, 9721, Note_on_c, 0, 81, 114
2, 9840, Note_on_c, 0, 69, 0
2, 9840, Note_on_c, 0, 81, 0
2, 9901, Note_on_c, 0, 68, 114
2, 9901, Note_on_c, 0, 80, 114
2, 10020, Note_on_c, 0, 68, 0
2, 10020, Note_on_c, 0, 80, 0
2, 10081, Note_on_c, 0, 67, 114
2, 10081, Note_on_c, 0, 79, 114
2, 10200, Note_on_c, 0, 67, 0
2, 10200, Note_on_c, 0, 79, 0
2, 10261, Note_on_c, 0, 77, 114
2, 10261, Note_on_c, 0, 65, 114
2, 10380, Note_on_c, 0, 77, 0
2, 10380, Note_on_c, 0, 65, 0
2, 10441, Note_on_c, 0, 76, 114
2, 10441, Note_on_c, 0, 64, 114
2, 10560, Note_on_c, 0, 76, 0
2, 10560, Note_on_c, 0, 64, 0
2, 10621, Note_on_c, 0, 63, 114
2, 10621, Note_on_c, 0, 75, 114
2, 10740, Note_on_c, 0, 63, 0
2, 10740, Note_on_c, 0, 75, 0
2, 10801, Note_on_c, 0, 74, 114
2, 10801, Note_on_c, 0, 62, 114
2, 10920, Note_on_c, 0, 74, 0
2, 10920, Note_on_c, 0, 62, 0
2, 10921, Note_on_c, 0, 70, 114
2, 10921, Note_on_c, 0, 65, 114
2, 10980, Note_on_c, 0, 70, 0
2, 10980, Note_on_c, 0, 65, 0
2, 10981, Note_on_c, 0, 67, 92
2, 10981, Note_on_c, 0, 72, 92
2, 11010, Note_on_c, 0, 67, 0
2, 11010, Note_on_c, 0, 72, 0
2, 11011, Note_on_c, 0, 75, 92
2, 11011, Note_on_c, 0, 79, 92
2, 11040, Note_on_c, 0, 75, 0
2, 11040, Note_on_c, 0, 79, 0
2, 11041, Note_on_c, 0, 74, 92
2, 11041, Note_on_c, 0, 77, 92
2, 11070, Note_on_c, 0, 74, 0
2, 11070, Note_on_c, 0, 77, 0
2, 11071, Note_on_c, 0, 75, 92
2, 11071, Note_on_c, 0, 72, 92
2, 11100, Note_on_c, 0, 75, 0
2, 11100, Note_on_c, 0, 72, 0
2, 11101, Note_on_c, 0, 70, 92
2, 11101, Note_on_c, 0, 74, 92
2, 11130, Note_on_c, 0, 70, 0
2, 11130, Note_on_c, 0, 74, 0
2, 11131, Note_on_c, 0, 69, 92
2, 11131, Note_on_c, 0, 72, 92
2, 11160, Note_on_c, 0, 69, 0
2, 11160, Note_on_c, 0, 72, 0
2, 11161, Note_on_c, 0, 70, 92
2, 11161, Note_on_c, 0, 74, 92
2, 11280, Note_on_c, 0, 70, 0
2, 11280, Note_on_c, 0, 74, 0
2, 12721, Note_on_c, 0, 70, 80
2, 12780, Note_on_c, 0, 70, 0
2, 12781, Note_on_c, 0, 72, 80
2, 12810, Note_on_c, 0, 72, 0
2, 12811, Note_on_c, 0, 75, 80
2, 12840, Note_on_c, 0, 75, 0
2, 12841, Note_on_c, 0, 74, 80
2, 12870, Note_on_c, 0, 74, 0
2, 12871, Note_on_c, 0, 72, 80
2, 12900, Note_on_c, 0, 72, 0
2, 12901, Note_on_c, 0, 70, 68
2, 12930, Note_on_c, 0, 70, 0
2, 12931, Note_on_c, 0, 69, 68
2, 12960, Note_on_c, 0, 69, 0
2, 12961, Note_on_c, 0, 70, 68
2, 13020, Note_on_c, 0, 70, 0
2, 13141, Note_on_c, 0, 72, 97
2, 13170, Note_on_c, 0, 72, 0
2, 13171, Note_on_c, 0, 75, 97
2, 13200, Note_on_c, 0, 75, 0
2, 13201, Note_on_c, 0, 74, 97
2, 13230, Note_on_c, 0, 74, 0
2, 13231, Note_on_c, 0, 72, 97
2, 13260, Note_on_c, 0, 72, 0
2, 13261, Note_on_c, 0, 70, 97
2, 13290, Note_on_c, 0, 70, 0
2, 13291, Note_on_c, 0, 69, 97
2, 13320, Note_on_c, 0, 69, 0
2, 13321, Note_on_c, 0, 70, 97
2, 13380, Note_on_c, 0, 70, 0
2, 13381, Note_on_c, 0, 74, 97
2, 13381, Note_on_c, 0, 77, 97
2, 13440, Note_on_c, 0, 74, 0
2, 13440, Note_on_c, 0, 77, 0
2, 13441, Note_on_c, 0, 72, 97
2, 13441, Note_on_c, 0, 75, 97
2, 13500, Note_on_c, 0, 72, 0
2, 13500, Note_on_c, 0, 75, 0
2, 13501, Note_on_c, 0, 70, 97
2, 13501, Note_on_c, 0, 74, 97
2, 13560, Note_on_c, 0, 70, 0
2, 13560, Note_on_c, 0, 74, 0
2, 13561, Note_on_c, 0, 65, 97
2, 13561, Note_on_c, 0, 74, 97
2, 13620, Note_on_c, 0, 65, 0
2, 13620, Note_on_c, 0, 74, 0
2, 13621, Note_on_c, 0, 63, 97
2, 13621, Note_on_c, 0, 72, 97
2, 13680, Note_on_c, 0, 63, 0
2, 13680, Note_on_c, 0, 72, 0
2, 13681, Note_on_c, 0, 70, 97
2, 13681, Note_on_c, 0, 62, 97
2, 13740, Note_on_c, 0, 70, 0
2, 13740, Note_on_c, 0, 62, 0
2, 13741, Note_on_c, 0, 70, 97
2, 13741, Note_on_c, 0, 74, 97
2, 13800, Note_on_c, 0, 70, 0
2, 13800, Note_on_c, 0, 74, 0
2, 13801, Note_on_c, 0, 74, 97
2, 13801, Note_on_c, 0, 77, 97
2, 13860, Note_on_c, 0, 74, 0
2, 13860, Note_on_c, 0, 77, 0
2, 13861, Note_on_c, 0, 70, 97
2, 13861, Note_on_c, 0, 74, 97
2, 13980, Note_on_c, 0, 70, 0
2, 13980, Note_on_c, 0, 74, 0
2, 14041, Note_on_c, 0, 75, 114
2, 14079, Note_on_c, 0, 75, 0
2, 14101, Note_on_c, 0, 79, 114
2, 14139, Note_on_c, 0, 79, 0
2, 14161, Note_on_c, 0, 82, 114
2, 14199, Note_on_c, 0, 82, 0
2, 14221, Note_on_c, 0, 70, 114
2, 14259, Note_on_c, 0, 70, 0
2, 14281, Note_on_c, 0, 70, 114
2, 14300, Note_on_c, 0, 70, 0
2, 14311, Note_on_c, 0, 72, 114
2, 14330, Note_on_c, 0, 72, 0
2, 14341, Note_on_c, 0, 74, 114
2, 14360, Note_on_c, 0, 74, 0
2, 14371, Note_on_c, 0, 70, 114
2, 14390, Note_on_c, 0, 70, 0
2, 14401, Note_on_c, 0, 75, 114
2, 14439, Note_on_c, 0, 75, 0
2, 14461, Note_on_c, 0, 79, 114
2, 14499, Note_on_c, 0, 79, 0
2, 14521, Note_on_c, 0, 82, 114
2, 14559, Note_on_c, 0, 82, 0
2, 14581, Note_on_c, 0, 70, 114
2, 14700, Note_on_c, 0, 70, 0
2, 14761, Note_on_c, 0, 77, 114
2, 14761, Note_on_c, 0, 80, 114
2, 14928, Note_on_c, 0, 77, 0
2, 14928, Note_on_c, 0, 80, 0
2, 14941, Note_on_c, 0, 79, 114
2, 14941, Note_on_c, 0, 75, 114
2, 15108, Note_on_c, 0, 79, 0
2, 15108, Note_on_c, 0, 75, 0
2, 15121, Note_on_c, 0, 77, 114
2, 15121, Note_on_c, 0, 72, 114
2, 15240, Note_on_c, 0, 77, 0
2, 15240, Note_on_c, 0, 72, 0
2, 15301, Note_on_c, 0, 74, 114
2, 15301, Note_on_c, 0, 77, 114
2, 15360, Note_on_c, 0, 74, 0
2, 15360, Note_on_c, 0, 77, 0
2, 15481, Note_on_c, 0, 75, 114
2, 15519, Note_on_c, 0, 75, 0
2, 15541, Note_on_c, 0, 79, 114
2, 15579, Note_on_c, 0, 79, 0
2, 15601, Note_on_c, 0, 82, 114
2, 15639, Note_on_c, 0, 82, 0
2, 15661, Note_on_c, 0, 70, 114
2, 15699, Note_on_c, 0, 70, 0
2, 15721, Note_on_c, 0, 70, 114
2, 15740, Note_on_c, 0, 70, 0
2, 15751, Note_on_c, 0, 72, 114
2, 15770, Note_on_c, 0, 72, 0
2, 15781, Note_on_c, 0, 74, 114
2, 15800, Note_on_c, 0, 74, 0
2, 15811, Note_on_c, 0, 70, 114
2, 15830, Note_on_c, 0, 70, 0
2, 15841, Note_on_c, 0, 75, 114
2, 15879, Note_on_c, 0, 75, 0
2, 15901, Note_on_c, 0, 79, 114
2, 15939, Note_on_c, 0, 79, 0
2, 15961, Note_on_c, 0, 82, 114
2, 15999, Note_on_c, 0, 82, 0
2, 16021, Note_on_c, 0, 70, 114
2, 16140, Note_on_c, 0, 70, 0
2, 16201, Note_on_c, 0, 77, 114
2, 16201, Note_on_c, 0, 80, 114
2, 16368, Note_on_c, 0, 77, 0
2, 16368, Note_on_c, 0, 80, 0
2, 16381, Note_on_c, 0, 79, 114
2, 16381, Note_on_c, 0, 75, 114
2, 16548, Note_on_c, 0, 79, 0
2, 16548, Note_on_c, 0, 75, 0
2, 16561, Note_on_c, 0, 77, 114
2, 16561, Note_on_c, 0, 72, 114
2, 16590, Note_on_c, 0, 77, 0
2, 16591, Note_on_c, 0, 80, 114
2, 16620, Note_on_c, 0, 72, 0
2, 16620, Note_on_c, 0, 80, 0
2, 16621, Note_on_c, 0, 70, 114
2, 16621, Note_on_c, 0, 79, 114
2, 16650, Note_on_c, 0, 70, 0
2, 16650, Note_on_c, 0, 79, 0
2, 16651, Note_on_c, 0, 68, 114
2, 16651, Note_on_c, 0, 77, 114
2, 16680, Note_on_c, 0, 68, 0
2, 16680, Note_on_c, 0, 77, 0
2, 16681, Note_on_c, 0, 67, 114
2, 16681, Note_on_c, 0, 75, 114
2, 16710, Note_on_c, 0, 67, 0
2, 16710, Note_on_c, 0, 75, 0
2, 16711, Note_on_c, 0, 65, 114
2, 16711, Note_on_c, 0, 74, 114
2, 16740, Note_on_c, 0, 65, 0
2, 16740, Note_on_c, 0, 74, 0
2, 16741, Note_on_c, 0, 75, 114
2, 16741, Note_on_c, 0, 67, 114
2, 16818, Note_on_c, 0, 75, 0
2, 16818, Note_on_c, 0, 67, 0
2, 17581, Note_on_c, 0, 77, 114
2, 17640, Note_on_c, 0, 77, 0
2, 17641, Note_on_c, 0, 76, 114
2, 17700, Note_on_c, 0, 76, 0
2, 17701, Note_on_c, 0, 77, 114
2, 17760, Note_on_c, 0, 77, 0
2, 17761, Note_on_c, 0, 75, 114
2, 17820, Note_on_c, 0, 75, 0
2, 17821, Note_on_c, 0, 73, 114
2, 17880, Note_on_c, 0, 73, 0
2, 17881, Note_on_c, 0, 74, 114
2, 17940, Note_on_c, 0, 74, 0
2, 17941, Note_on_c, 0, 69, 114
2, 18000, Note_on_c, 0, 69, 0
2, 18001, Note_on_c, 0, 70, 114
2, 18060, Note_on_c, 0, 70, 0
2, 18061, Note_on_c, 0, 66, 114
2, 18120, Note_on_c, 0, 66, 0
2, 18121, Note_on_c, 0, 64, 114
2, 18180, Note_on_c, 0, 64, 0
2, 18181, Note_on_c, 0, 65, 114
2, 18240, Note_on_c, 0, 65, 0
2, 18301, Note_on_c, 0, 77, 114
2, 18360, Note_on_c, 0, 77, 0
2, 18361, Note_on_c, 0, 76, 114
2, 18420, Note_on_c, 0, 76, 0
2, 18421, Note_on_c, 0, 77, 114
2, 18480, Note_on_c, 0, 77, 0
2, 18481, Note_on_c, 0, 75, 114
2, 18540, Note_on_c, 0, 75, 0
2, 18541, Note_on_c, 0, 73, 114
2, 18600, Note_on_c, 0, 73, 0
2, 18601, Note_on_c, 0, 74, 114
2, 18660, Note_on_c, 0, 74, 0
2, 18661, Note_on_c, 0, 69, 114
2, 18720, Note_on_c, 0, 69, 0
2, 18721, Note_on_c, 0, 70, 114
2, 18780, Note_on_c, 0, 70, 0
2, 18781, Note_on_c, 0, 66, 114
2, 18840, Note_on_c, 0, 66, 0
2, 18841, Note_on_c, 0, 64, 114
2, 18900, Note_on_c, 0, 64, 0
2, 18901, Note_on_c, 0, 65, 114
2, 19020, Note_on_c, 0, 65, 0
2, 19621, Note_on_c, 0, 69, 114
2, 19621, Note_on_c, 0, 77, 114
2, 19740, Note_on_c, 0, 69, 0
2, 19740, Note_on_c, 0, 77, 0
2, 20341, Note_on_c, 0, 69, 114
2, 20341, Note_on_c, 0, 77, 114
2, 20460, Note_on_c, 0, 69, 0
2, 20460, Note_on_c, 0, 77, 0
2, 20521, Note_on_c, 0, 70, 114
2, 20521, Note_on_c, 0, 82, 114
2, 20640, Note_on_c, 0, 70, 0
2, 20640, Note_on_c, 0, 82, 0
2, 20701, Note_on_c, 0, 69, 114
2, 20701, Note_on_c, 0, 81, 114
2, 20820, Note_on_c, 0, 69, 0
2, 20820, Note_on_c, 0, 81, 0
2, 20881, Note_on_c, 0, 68, 114
2, 20881, Note_on_c, 0, 80, 114
2, 21000, Note_on_c, 0, 68, 0
2, 21000, Note_on_c, 0, 80, 0
2, 21061, Note_on_c, 0, 67, 114
2, 21061, Note_on_c, 0, 79, 114
2, 21180, Note_on_c, 0, 67, 0
2, 21180, Note_on_c, 0, 79, 0
2, 21241, Note_on_c, 0, 77, 114
2, 21241, Note_on_c, 0, 65, 114
2, 21360, Note_on_c, 0, 77, 0
2, 21360, Note_on_c, 0, 65, 0
2, 21421, Note_on_c, 0, 76, 114
2, 21421, Note_on_c, 0, 64, 114
2, 21540, Note_on_c, 0, 76, 0
2, 21540, Note_on_c, 0, 64, 0
2, 21601, Note_on_c, 0, 63, 114
2, 21601, Note_on_c, 0, 75, 114
2, 21720, Note_on_c, 0, 63, 0
2, 21720, Note_on_c, 0, 75, 0
2, 21781, Note_on_c, 0, 74, 114
2, 21781, Note_on_c, 0, 62, 114
2, 21900, Note_on_c, 0, 74, 0
2, 21900, Note_on_c, 0, 62, 0
2, 21901, Note_on_c, 0, 70, 114
2, 21901, Note_on_c, 0, 65, 114
2, 21960, Note_on_c, 0, 70, 0
2, 21960, Note_on_c, 0, 65, 0
2, 21961, Note_on_c, 0, 67, 114
2, 21961, Note_on_c, 0, 72, 114
2, 21990, Note_on_c, 0, 67, 0
2, 21990, Note_on_c, 0, 72, 0
2, 21991, Note_on_c, 0, 75, 114
2, 21991, Note_on_c, 0, 79, 114
2, 22020, Note_on_c, 0, 75, 0
2, 22020, Note_on_c, 0, 79, 0
2, 22021, Note_on_c, 0, 74, 114
2, 22021, Note_on_c, 0, 77, 114
2, 22050, Note_on_c, 0, 74, 0
2, 22050, Note_on_c, 0, 77, 0
2, 22051, Note_on_c, 0, 75, 114
2, 22051, Note_on_c, 0, 72, 114
2, 22080, Note_on_c, 0, 75, 0
2, 22080, Note_on_c, 0, 72, 0
2, 22081, Note_on_c, 0, 70, 114
2, 22081, Note_on_c, 0, 74, 114
2, 22110, Note_on_c, 0, 70, 0
2, 22110, Note_on_c, 0, 74, 0
2, 22111, Note_on_c, 0, 69, 114
2, 22111, Note_on_c, 0, 72, 114
2, 22140, Note_on_c, 0, 69, 0
2, 22140, Note_on_c, 0, 72, 0
2, 23700, Note_on_c, 0, 70, 114
2, 23759, Note_on_c, 0, 70, 0
2, 23760, Note_on_c, 0, 72, 114
2, 23789, Note_on_c, 0, 72, 0
2, 23790, Note_on_c, 0, 75, 114
2, 23819, Note_on_c, 0, 75, 0
2, 23820, Note_on_c, 0, 74, 114
2, 23849, Note_on_c, 0, 74, 0
2, 23850, Note_on_c, 0, 72, 114
2, 23879, Note_on_c, 0, 72, 0
2, 23880, Note_on_c, 0, 70, 114
2, 23909, Note_on_c, 0, 70, 0
2, 23910, Note_on_c, 0, 69, 114
2, 23939, Note_on_c, 0, 69, 0
2, 23940, Note_on_c, 0, 70, 114
2, 23999, Note_on_c, 0, 70, 0
2, 24120, Note_on_c, 0, 72, 114
2, 24149, Note_on_c, 0, 72, 0
2, 24150, Note_on_c, 0, 75, 114
2, 24179, Note_on_c, 0, 75, 0
2, 24180, Note_on_c, 0, 74, 114
2, 24209, Note_on_c, 0, 74, 0
2, 24210, Note_on_c, 0, 72, 114
2, 24239, Note_on_c, 0, 72, 0
2, 24240, Note_on_c, 0, 70, 114
2, 24269, Note_on_c, 0, 70, 0
2, 24270, Note_on_c, 0, 69, 114
2, 24299, Note_on_c, 0, 69, 0
2, 24300, Note_on_c, 0, 70, 114
2, 24359, Note_on_c, 0, 70, 0
2, 24360, Note_on_c, 0, 74, 114
2, 24360, Note_on_c, 0, 77, 114
2, 24419, Note_on_c, 0, 74, 0
2, 24419, Note_on_c, 0, 77, 0
2, 24420, Note_on_c, 0, 75, 114
2, 24420, Note_on_c, 0, 72, 114
2, 24479, Note_on_c, 0, 75, 0
2, 24479, Note_on_c, 0, 72, 0
2, 24480, Note_on_c, 0, 70, 114
2, 24480, Note_on_c, 0, 74, 114
2, 24539, Note_on_c, 0, 70, 0
2, 24539, Note_on_c, 0, 74, 0
2, 24540, Note_on_c, 0, 74, 114
2, 24540, Note_on_c, 0, 65, 114
2, 24599, Note_on_c, 0, 74, 0
2, 24599, Note_on_c, 0, 65, 0
2, 24600, Note_on_c, 0, 63, 114
2, 24600, Note_on_c, 0, 72, 114
2, 24659, Note_on_c, 0, 63, 0
2, 24659, Note_on_c, 0, 72, 0
2, 24660, Note_on_c, 0, 70, 114
2, 24660, Note_on_c, 0, 62, 114
2, 24719, Note_on_c, 0, 70, 0
2, 24719, Note_on_c, 0, 62, 0
2, 24720, Note_on_c, 0, 70, 114
2, 24720, Note_on_c, 0, 74, 114
2, 24779, Note_on_c, 0, 70, 0
2, 24779, Note_on_c, 0, 74, 0
2, 24780, Note_on_c, 0, 74, 114
2, 24780, Note_on_c, 0, 77, 114
2, 24839, Note_on_c, 0, 74, 0
2, 24839, Note_on_c, 0, 77, 0
2, 24840, Note_on_c, 0, 70, 114
2, 24840, Note_on_c, 0, 74, 114
2, 24959, Note_on_c, 0, 70, 0
2, 24959, Note_on_c, 0, 74, 0
2, 26100, Note_on_c, 0, 80, 114
2, 26100, Note_on_c, 0, 74, 114
2, 26219, Note_on_c, 0, 80, 0
2, 26219, Note_on_c, 0, 74, 0
2, 26280, Note_on_c, 0, 79, 114
2, 26280, Note_on_c, 0, 75, 114
2, 26399, Note_on_c, 0, 79, 0
2, 26399, Note_on_c, 0, 75, 0
2, 27180, Note_on_c, 0, 75, 114
2, 27218, Note_on_c, 0, 75, 0
2, 27240, Note_on_c, 0, 79, 114
2, 27278, Note_on_c, 0, 79, 0
2, 27300, Note_on_c, 0, 82, 114
2, 27338, Note_on_c, 0, 82, 0
2, 27360, Note_on_c, 0, 70, 114
2, 27398, Note_on_c, 0, 70, 0
2, 27420, Note_on_c, 0, 70, 114
2, 27439, Note_on_c, 0, 70, 0
2, 27450, Note_on_c, 0, 72, 114
2, 27469, Note_on_c, 0, 72, 0
2, 27480, Note_on_c, 0, 74, 114
2, 27499, Note_on_c, 0, 74, 0
2, 27510, Note_on_c, 0, 70, 114
2, 27529, Note_on_c, 0, 70, 0
2, 27540, Note_on_c, 0, 75, 114
2, 27578, Note_on_c, 0, 75, 0
2, 27600, Note_on_c, 0, 79, 114
2, 27638, Note_on_c, 0, 79, 0
2, 27660, Note_on_c, 0, 82, 114
2, 27698, Note_on_c, 0, 82, 0
2, 27720, Note_on_c, 0, 70, 114
2, 27839, Note_on_c, 0, 70, 0
2, 27900, Note_on_c, 0, 77, 114
2, 27900, Note_on_c, 0, 80, 114
2, 28067, Note_on_c, 0, 77, 0
2, 28067, Note_on_c, 0, 80, 0
2, 28080, Note_on_c, 0, 79, 114
2, 28080, Note_on_c, 0, 75, 114
2, 28247, Note_on_c, 0, 79, 0
2, 28247, Note_on_c, 0, 75, 0
2, 28260, Note_on_c, 0, 77, 114
2, 28260, Note_on_c, 0, 72, 114
2, 28379, Note_on_c, 0, 77, 0
2, 28379, Note_on_c, 0, 72, 0
2, 28440, Note_on_c, 0, 77, 114
2, 28440, Note_on_c, 0, 74, 114
2, 28559, Note_on_c, 0, 77, 0
2, 28559, Note_on_c, 0, 74, 0
2, 28620, Note_on_c, 0, 75, 114
2, 28658, Note_on_c, 0, 75, 0
2, 28680, Note_on_c, 0, 79, 114
2, 28718, Note_on_c, 0, 79, 0
2, 28740, Note_on_c, 0, 82, 114
2, 28778, Note_on_c, 0, 82, 0
2, 28800, Note_on_c, 0, 70, 114
2, 28838, Note_on_c, 0, 70, 0
2, 28860, Note_on_c, 0, 70, 114
2, 28879, Note_on_c, 0, 70, 0
2, 28890, Note_on_c, 0, 72, 114
2, 28909, Note_on_c, 0, 72, 0
2, 28920, Note_on_c, 0, 74, 114
2, 28939, Note_on_c, 0, 74, 0
2, 28950, Note_on_c, 0, 70, 114
2, 28969, Note_on_c, 0, 70, 0
2, 28980, Note_on_c, 0, 75, 114
2, 29018, Note_on_c, 0, 75, 0
2, 29040, Note_on_c, 0, 79, 114
2, 29078, Note_on_c, 0, 79, 0
2, 29100, Note_on_c, 0, 82, 114
2, 29138, Note_on_c, 0, 82, 0
2, 29160, Note_on_c, 0, 70, 114
2, 29279, Note_on_c, 0, 70, 0
2, 29340, Note_on_c, 0, 77, 114
2, 29340, Note_on_c, 0, 80, 114
2, 29507, Note_on_c, 0, 77, 0
2, 29507, Note_on_c, 0, 80, 0
2, 29520, Note_on_c, 0, 79, 114
2, 29520, Note_on_c, 0, 75, 114
2, 29687, Note_on_c, 0, 79, 0
2, 29687, Note_on_c, 0, 75, 0
2, 29700, Note_on_c, 0, 77, 114
2, 29729, Note_on_c, 0, 77, 0
2, 29730, Note_on_c, 0, 80, 114
2, 29759, Note_on_c, 0, 80, 0
2, 29760, Note_on_c, 0, 79, 114
2, 29789, Note_on_c, 0, 79, 0
2, 29790, Note_on_c, 0, 77, 114
2, 29819, Note_on_c, 0, 77, 0
2, 29820, Note_on_c, 0, 75, 114
2, 29849, Note_on_c, 0, 75, 0
2, 29850, Note_on_c, 0, 74, 114
2, 29879, Note_on_c, 0, 74, 0
2, 29880, Note_on_c, 0, 67, 114
2, 29880, Note_on_c, 0, 75, 114
2, 29939, Note_on_c, 0, 67, 0
2, 29939, Note_on_c, 0, 75, 0
2, 29940, Note_on_c, 0, 70, 114
2, 29940, Note_on_c, 0, 79, 114
2, 29999, Note_on_c, 0, 70, 0
2, 29999, Note_on_c, 0, 79, 0
2, 30000, Note_on_c, 0, 68, 114
2, 30000, Note_on_c, 0, 77, 114
2, 30059, Note_on_c, 0, 68, 0
2, 30059, Note_on_c, 0, 77, 0
2, 30060, Note_on_c, 0, 67, 114
2, 30060, Note_on_c, 0, 75, 114
2, 30119, Note_on_c, 0, 67, 0
2, 30119, Note_on_c, 0, 75, 0
2, 30120, Note_on_c, 0, 75, 114
2, 30120, Note_on_c, 0, 67, 114
2, 30179, Note_on_c, 0, 75, 0
2, 30179, Note_on_c, 0, 67, 0
2, 30180, Note_on_c, 0, 74, 114
2, 30180, Note_on_c, 0, 65, 114
2, 30239, Note_on_c, 0, 74, 0
2, 30239, Note_on_c, 0, 65, 0
2, 30240, Note_on_c, 0, 75, 127
2, 30240, Note_on_c, 0, 67, 127
2, 30299, Note_on_c, 0, 75, 0
2, 30299, Note_on_c, 0, 67, 0
2, 30300, Note_on_c, 0, 75, 127
2, 30300, Note_on_c, 0, 67, 127
2, 30359, Note_on_c, 0, 75, 0
2, 30359, Note_on_c, 0, 67, 0
2, 30360, Note_on_c, 0, 75, 127
2, 30360, Note_on_c, 0, 67, 127
2, 30419, Note_on_c, 0, 75, 0
2, 30419, Note_on_c, 0, 67, 0
2, 30420, Note_on_c, 0, 75, 127
2, 30420, Note_on_c, 0, 67, 127
2, 30503, Note_on_c, 0, 75, 0
2, 30503, Note_on_c, 0, 67, 0
2, 30503, End_track
3, 0, Start_track
3, 0, MIDI_port, 0
3, 0, Title_t, "Horns"
3, 0, Program_c, 1, 60
3, 181, Note_on_c, 1, 51, 114
3, 181, Note_on_c, 1, 63, 114
3, 225, Note_on_c, 1, 51, 0
3, 225, Note_on_c, 1, 63, 0
3, 241, Note_on_c, 1, 55, 114
3, 241, Note_on_c, 1, 67, 114
3, 285, Note_on_c, 1, 55, 0
3, 285, Note_on_c, 1, 67, 0
3, 301, Note_on_c, 1, 58, 114
3, 301, Note_on_c, 1, 70, 114
3, 345, Note_on_c, 1, 58, 0
3, 345, Note_on_c, 1, 70, 0
3, 361, Note_on_c, 1, 46, 114
3, 361, Note_on_c, 1, 58, 114
3, 450, Note_on_c, 1, 46, 0
3, 450, Note_on_c, 1, 58, 0
3, 541, Note_on_c, 1, 51, 114
3, 541, Note_on_c, 1, 63, 114
3, 585, Note_on_c, 1, 51, 0
3, 585, Note_on_c, 1, 63, 0
3, 601, Note_on_c, 1, 55, 114
3, 601, Note_on_c, 1, 67, 114
3, 645, Note_on_c, 1, 55, 0
3, 645, Note_on_c, 1, 67, 0
3, 661, Note_on_c, 1, 58, 114
3, 661, Note_on_c, 1, 70, 114
3, 705, Note_on_c, 1, 58, 0
3, 705, Note_on_c, 1, 70, 0
3, 721, Note_on_c, 1, 58, 114
3, 721, Note_on_c, 1, 46, 114
3, 840, Note_on_c, 1, 58, 0
3, 840, Note_on_c, 1, 46, 0
3, 901, Note_on_c, 1, 65, 114
3, 901, Note_on_c, 1, 68, 114
3, 1068, Note_on_c, 1, 65, 0
3, 1068, Note_on_c, 1, 68, 0
3, 1081, Note_on_c, 1, 63, 114
3, 1081, Note_on_c, 1, 67, 114
3, 1248, Note_on_c, 1, 63, 0
3, 1248, Note_on_c, 1, 67, 0
3, 1441, Note_on_c, 1, 65, 114
3, 1441, Note_on_c, 1, 58, 114
3, 1560, Note_on_c, 1, 65, 0
3, 1560, Note_on_c, 1, 58, 0
3, 1621, Note_on_c, 1, 51, 114
3, 1621, Note_on_c, 1, 63, 114
3, 1665, Note_on_c, 1, 51, 0
3, 1665, Note_on_c, 1, 63, 0
3, 1681, Note_on_c, 1, 55, 114
3, 1681, Note_on_c, 1, 67, 114
3, 1725, Note_on_c, 1, 55, 0
3, 1725, Note_on_c, 1, 67, 0
3, 1741, Note_on_c, 1, 58, 114
3, 1741, Note_on_c, 1, 70, 114
3, 1785, Note_on_c, 1, 58, 0
3, 1785, Note_on_c, 1, 70, 0
3, 1801, Note_on_c, 1, 58, 114
3, 1801, Note_on_c, 1, 46, 114
3, 1890, Note_on_c, 1, 58, 0
3, 1890, Note_on_c, 1, 46, 0
3, 1981, Note_on_c, 1, 51, 114
3, 1981, Note_on_c, 1, 63, 114
3, 2025, Note_on_c, 1, 51, 0
3, 2025, Note_on_c, 1, 63, 0
3, 2041, Note_on_c, 1, 55, 114
3, 2041, Note_on_c, 1, 67, 114
3, 2085, Note_on_c, 1, 55, 0
3, 2085, Note_on_c, 1, 67, 0
3, 2101, Note_on_c, 1, 58, 114
3, 2101, Note_on_c, 1, 70, 114
3, 2145, Note_on_c, 1, 58, 0
3, 2145, Note_on_c, 1, 70, 0
3, 2161, Note_on_c, 1, 58, 114
3, 2161, Note_on_c, 1, 46, 114
3, 2280, Note_on_c, 1, 58, 0
3, 2280, Note_on_c, 1, 46, 0
3, 2341, Note_on_c, 1, 68, 114
3, 2341, Note_on_c, 1, 65, 114
3, 2508, Note_on_c, 1, 68, 0
3, 2508, Note_on_c, 1, 65, 0
3, 2521, Note_on_c, 1, 63, 114
3, 2521, Note_on_c, 1, 67, 114
3, 2688, Note_on_c, 1, 63, 0
3, 2688, Note_on_c, 1, 67, 0
3, 2821, Note_on_c, 1, 58, 114
3, 2821, Note_on_c, 1, 65, 114
3, 2880, Note_on_c, 1, 58, 0
3, 2880, Note_on_c, 1, 65, 0
3, 2881, Note_on_c, 1, 63, 114
3, 2881, Note_on_c, 1, 67, 114
3, 2958, Note_on_c, 1, 63, 0
3, 2958, Note_on_c, 1, 67, 0
3, 3061, Note_on_c, 1, 51, 114
3, 3061, Note_on_c, 1, 63, 114
3, 3105, Note_on_c, 1, 51, 0
3, 3105, Note_on_c, 1, 63, 0
3, 3121, Note_on_c, 1, 55, 114
3, 3121, Note_on_c, 1, 67, 114
3, 3165, Note_on_c, 1, 55, 0
3, 3165, Note_on_c, 1, 67, 0
3, 3181, Note_on_c, 1, 58, 114
3, 3181, Note_on_c, 1, 70, 114
3, 3225, Note_on_c, 1, 58, 0
3, 3225, Note_on_c, 1, 70, 0
3, 3241, Note_on_c, 1, 46, 114
3, 3241, Note_on_c, 1, 58, 114
3, 3330, Note_on_c, 1, 46, 0
3, 3330, Note_on_c, 1, 58, 0
3, 3421, Note_on_c, 1, 51, 114
3, 3421, Note_on_c, 1, 63, 114
3, 3465, Note_on_c, 1, 51, 0
3, 3465, Note_on_c, 1, 63, 0
3, 3481, Note_on_c, 1, 55, 114
3, 3481, Note_on_c, 1, 67, 114
3, 3525, Note_on_c, 1, 55, 0
3, 3525, Note_on_c, 1, 67, 0
3, 3541, Note_on_c, 1, 58, 114
3, 3541, Note_on_c, 1, 70, 114
3, 3585, Note_on_c, 1, 58, 0
3, 3585, Note_on_c, 1, 70, 0
3, 3601, Note_on_c, 1, 58, 114
3, 3601, Note_on_c, 1, 46, 114
3, 3720, Note_on_c, 1, 58, 0
3, 3720, Note_on_c, 1, 46, 0
3, 3781, Note_on_c, 1, 65, 114
3, 3781, Note_on_c, 1, 68, 114
3, 3948, Note_on_c, 1, 65, 0
3, 3948, Note_on_c, 1, 68, 0
3, 3961, Note_on_c, 1, 63, 114
3, 3961, Note_on_c, 1, 67, 114
3, 4128, Note_on_c, 1, 63, 0
3, 4128, Note_on_c, 1, 67, 0
3, 4321, Note_on_c, 1, 65, 114
3, 4321, Note_on_c, 1, 58, 114
3, 4440, Note_on_c, 1, 65, 0
3, 4440, Note_on_c, 1, 58, 0
3, 4501, Note_on_c, 1, 51, 114
3, 4501, Note_on_c, 1, 63, 114
3, 4545, Note_on_c, 1, 51, 0
3, 4545, Note_on_c, 1, 63, 0
3, 4561, Note_on_c, 1, 55, 114
3, 4561, Note_on_c, 1, 67, 114
3, 4605, Note_on_c, 1, 55, 0
3, 4605, Note_on_c, 1, 67, 0
3, 4621, Note_on_c, 1, 58, 114
3, 4621, Note_on_c, 1, 70, 114
3, 4665, Note_on_c, 1, 58, 0
3, 4665, Note_on_c, 1, 70, 0
3, 4681, Note_on_c, 1, 58, 114
3, 4681, Note_on_c, 1, 46, 114
3, 4770, Note_on_c, 1, 58, 0
3, 4770, Note_on_c, 1, 46, 0
3, 4861, Note_on_c, 1, 51, 114
3, 4861, Note_on_c, 1, 63, 114
3, 4905, Note_on_c, 1, 51, 0
3, 4905, Note_on_c, 1, 63, 0
3, 4921, Note_on_c, 1, 55, 114
3, 4921, Note_on_c, 1, 67, 114
3, 4965, Note_on_c, 1, 55, 0
3, 4965, Note_on_c, 1, 67, 0
3, 4981, Note_on_c, 1, 58, 114
3, 4981, Note_on_c, 1, 70, 114
3, 5025, Note_on_c, 1, 58, 0
3, 5025, Note_on_c, 1, 70, 0
3, 5041, Note_on_c, 1, 58, 114
3, 5041, Note_on_c, 1, 46, 114
3, 5160, Note_on_c, 1, 58, 0
3, 5160, Note_on_c, 1, 46, 0
3, 5221, Note_on_c, 1, 68, 114
3, 5221, Note_on_c, 1, 65, 114
3, 5388, Note_on_c, 1, 68, 0
3, 5388, Note_on_c, 1, 65, 0
3, 5401, Note_on_c, 1, 63, 114
3, 5401, Note_on_c, 1, 67, 114
3, 5568, Note_on_c, 1, 63, 0
3, 5568, Note_on_c, 1, 67, 0
3, 5701, Note_on_c, 1, 58, 114
3, 5701, Note_on_c, 1, 65, 114
3, 5760, Note_on_c, 1, 58, 0
3, 5760, Note_on_c, 1, 65, 0
3, 5761, Note_on_c, 1, 63, 114
3, 5761, Note_on_c, 1, 67, 114
3, 5838, Note_on_c, 1, 63, 0
3, 5838, Note_on_c, 1, 67, 0
3, 7201, Note_on_c, 1, 65, 114
3, 7320, Note_on_c, 1, 65, 0
3, 9361, Note_on_c, 1, 65, 114
3, 9480, Note_on_c, 1, 65, 0
3, 9541, Note_on_c, 1, 58, 114
3, 9660, Note_on_c, 1, 58, 0
3, 9721, Note_on_c, 1, 58, 114
3, 9840, Note_on_c, 1, 58, 0
3, 9901, Note_on_c, 1, 58, 114
3, 10020, Note_on_c, 1, 58, 0
3, 10081, Note_on_c, 1, 58, 114
3, 10200, Note_on_c, 1, 58, 0
3, 10261, Note_on_c, 1, 65, 114
3, 10380, Note_on_c, 1, 65, 0
3, 10621, Note_on_c, 1, 65, 114
3, 10740, Note_on_c, 1, 65, 0
3, 10801, Note_on_c, 1, 65, 114
3, 10920, Note_on_c, 1, 65, 0
3, 11041, Note_on_c, 1, 65, 92
3, 11100, Note_on_c, 1, 65, 0
3, 11101, Note_on_c, 1, 65, 92
3, 11160, Note_on_c, 1, 65, 0
3, 11161, Note_on_c, 1, 65, 92
3, 11161, Note_on_c, 1, 58, 92
3, 11280, Note_on_c, 1, 65, 0
3, 11280, Note_on_c, 1, 58, 0
3, 11341, Note_on_c, 1, 58, 114
3, 11460, Note_on_c, 1, 58, 0
3, 11521, Note_on_c, 1, 58, 114
3, 11640, Note_on_c, 1, 58, 0
3, 11701, Note_on_c, 1, 58, 114
3, 11820, Note_on_c, 1, 58, 0
3, 11881, Note_on_c, 1, 58, 114
3, 12000, Note_on_c, 1, 58, 0
3, 12061, Note_on_c, 1, 65, 114
3, 12180, Note_on_c, 1, 65, 0
3, 12421, Note_on_c, 1, 65, 114
3, 12540, Note_on_c, 1, 65, 0
3, 12601, Note_on_c, 1, 65, 114
3, 12720, Note_on_c, 1, 65, 0
3, 12841, Note_on_c, 1, 65, 80
3, 12900, Note_on_c, 1, 65, 0
3, 12901, Note_on_c, 1, 65, 68
3, 12960, Note_on_c, 1, 65, 0
3, 12961, Note_on_c, 1, 65, 68
3, 12961, Note_on_c, 1, 58, 68
3, 13020, Note_on_c, 1, 65, 0
3, 13020, Note_on_c, 1, 58, 0
3, 13201, Note_on_c, 1, 65, 97
3, 13260, Note_on_c, 1, 65, 0
3, 13261, Note_on_c, 1, 65, 97
3, 13320, Note_on_c, 1, 65, 0
3, 13321, Note_on_c, 1, 65, 97
3, 13321, Note_on_c, 1, 58, 97
3, 13440, Note_on_c, 1, 65, 0
3, 13440, Note_on_c, 1, 58, 0
3, 13441, Note_on_c, 1, 65, 97
3, 13500, Note_on_c, 1, 65, 0
3, 13501, Note_on_c, 1, 65, 97
3, 13501, Note_on_c, 1, 58, 97
3, 13620, Note_on_c, 1, 65, 0
3, 13620, Note_on_c, 1, 58, 0
3, 13621, Note_on_c, 1, 65, 97
3, 13680, Note_on_c, 1, 65, 0
3, 13681, Note_on_c, 1, 58, 97
3, 13681, Note_on_c, 1, 65, 97
3, 13740, Note_on_c, 1, 58, 0
3, 13740, Note_on_c, 1, 65, 0
3, 13741, Note_on_c, 1, 58, 97
3, 13741, Note_on_c, 1, 65, 97
3, 13800, Note_on_c, 1, 58, 0
3, 13800, Note_on_c, 1, 65, 0
3, 13801, Note_on_c, 1, 58, 97
3, 13801, Note_on_c, 1, 65, 97
3, 13860, Note_on_c, 1, 58, 0
3, 13860, Note_on_c, 1, 65, 0
3, 13861, Note_on_c, 1, 65, 97
3, 13861, Note_on_c, 1, 58, 97
3, 13980, Note_on_c, 1, 65, 0
3, 13980, Note_on_c, 1, 58, 0
3, 14041, Note_on_c, 1, 51, 114
3, 14041, Note_on_c, 1, 63, 114
3, 14079, Note_on_c, 1, 51, 0
3, 14079, Note_on_c, 1, 63, 0
3, 14101, Note_on_c, 1, 55, 114
3, 14101, Note_on_c, 1, 67, 114
3, 14139, Note_on_c, 1, 55, 0
3, 14139, Note_on_c, 1, 67, 0
3, 14161, Note_on_c, 1, 58, 114
3, 14161, Note_on_c, 1, 70, 114
3, 14199, Note_on_c, 1, 58, 0
3, 14199, Note_on_c, 1, 70, 0
3, 14221, Note_on_c, 1, 46, 114
3, 14221, Note_on_c, 1, 58, 114
3, 14298, Note_on_c, 1, 46, 0
3, 14298, Note_on_c, 1, 58, 0
3, 14401, Note_on_c, 1, 51, 114
3, 14401, Note_on_c, 1, 63, 114
3, 14439, Note_on_c, 1, 51, 0
3, 14439, Note_on_c, 1, 63, 0
3, 14461, Note_on_c, 1, 55, 114
3, 14461, Note_on_c, 1, 67, 114
3, 14499, Note_on_c, 1, 55, 0
3, 14499, Note_on_c, 1, 67, 0
3, 14521, Note_on_c, 1, 58, 114
3, 14521, Note_on_c, 1, 70, 114
3, 14559, Note_on_c, 1, 58, 0
3, 14559, Note_on_c, 1, 70, 0
3, 14581, Note_on_c, 1, 58, 114
3, 14581, Note_on_c, 1, 46, 114
3, 14700, Note_on_c, 1, 58, 0
3, 14700, Note_on_c, 1, 46, 0
3, 14761, Note_on_c, 1, 65, 114
3, 14761, Note_on_c, 1, 68, 114
3, 14928, Note_on_c, 1, 65, 0
3, 14928, Note_on_c, 1, 68, 0
3, 14941, Note_on_c, 1, 63, 114
3, 14941, Note_on_c, 1, 67, 114
3, 15108, Note_on_c, 1, 63, 0
3, 15108, Note_on_c, 1, 67, 0
3, 15301, Note_on_c, 1, 65, 114
3, 15301, Note_on_c, 1, 58, 114
3, 15420, Note_on_c, 1, 65, 0
3, 15420, Note_on_c, 1, 58, 0
3, 15481, Note_on_c, 1, 51, 114
3, 15481, Note_on_c, 1, 63, 114
3, 15519, Note_on_c, 1, 51, 0
3, 15519, Note_on_c, 1, 63, 0
3, 15541, Note_on_c, 1, 55, 114
3, 15541, Note_on_c, 1, 67, 114
3, 15579, Note_on_c, 1, 55, 0
3, 15579, Note_on_c, 1, 67, 0
3, 15601, Note_on_c, 1, 58, 114
3, 15601, Note_on_c, 1, 70, 114
3, 15639, Note_on_c, 1, 58, 0
3, 15639, Note_on_c, 1, 70, 0
3, 15661, Note_on_c, 1, 58, 114
3, 15661, Note_on_c, 1, 46, 114
3, 15738, Note_on_c, 1, 58, 0
3, 15738, Note_on_c, 1, 46, 0
3, 15841, Note_on_c, 1, 51, 114
3, 15841, Note_on_c, 1, 63, 114
3, 15879, Note_on_c, 1, 51, 0
3, 15879, Note_on_c, 1, 63, 0
3, 15901, Note_on_c, 1, 55, 114
3, 15901, Note_on_c, 1, 67, 114
3, 15939, Note_on_c, 1, 55, 0
3, 15939, Note_on_c, 1, 67, 0
3, 15961, Note_on_c, 1, 58, 114
3, 15961, Note_on_c, 1, 70, 114
3, 15999, Note_on_c, 1, 58, 0
3, 15999, Note_on_c, 1, 70, 0
3, 16021, Note_on_c, 1, 58, 114
3, 16021, Note_on_c, 1, 46, 114
3, 16140, Note_on_c, 1, 58, 0
3, 16140, Note_on_c, 1, 46, 0
3, 16201, Note_on_c, 1, 68, 114
3, 16201, Note_on_c, 1, 65, 114
3, 16368, Note_on_c, 1, 68, 0
3, 16368, Note_on_c, 1, 65, 0
3, 16381, Note_on_c, 1, 63, 114
3, 16381, Note_on_c, 1, 67, 114
3, 16548, Note_on_c, 1, 63, 0
3, 16548, Note_on_c, 1, 67, 0
3, 16681, Note_on_c, 1, 58, 114
3, 16681, Note_on_c, 1, 65, 114
3, 16740, Note_on_c, 1, 58, 0
3, 16740, Note_on_c, 1, 65, 0
3, 16741, Note_on_c, 1, 63, 114
3, 16741, Note_on_c, 1, 67, 114
3, 16818, Note_on_c, 1, 63, 0
3, 16818, Note_on_c, 1, 67, 0
3, 18181, Note_on_c, 1, 65, 114
3, 18300, Note_on_c, 1, 65, 0
3, 18901, Note_on_c, 1, 65, 114
3, 19020, Note_on_c, 1, 65, 0
3, 20341, Note_on_c, 1, 65, 114
3, 20460, Note_on_c, 1, 65, 0
3, 20521, Note_on_c, 1, 58, 114
3, 20640, Note_on_c, 1, 58, 0
3, 20701, Note_on_c, 1, 58, 114
3, 20820, Note_on_c, 1, 58, 0
3, 20881, Note_on_c, 1, 58, 114
3, 21000, Note_on_c, 1, 58, 0
3, 21061, Note_on_c, 1, 58, 114
3, 21180, Note_on_c, 1, 58, 0
3, 21241, Note_on_c, 1, 65, 114
3, 21360, Note_on_c, 1, 65, 0
3, 21601, Note_on_c, 1, 65, 114
3, 21720, Note_on_c, 1, 65, 0
3, 21781, Note_on_c, 1, 65, 114
3, 21900, Note_on_c, 1, 65, 0
3, 22021, Note_on_c, 1, 65, 114
3, 22080, Note_on_c, 1, 65, 0
3, 22081, Note_on_c, 1, 65, 114
3, 22140, Note_on_c, 1, 65, 0
3, 22141, Note_on_c, 1, 65, 114
3, 22141, Note_on_c, 1, 58, 114
3, 22260, Note_on_c, 1, 65, 0
3, 22260, Note_on_c, 1, 58, 0
3, 22321, Note_on_c, 1, 58, 114
3, 22440, Note_on_c, 1, 58, 0
3, 22501, Note_on_c, 1, 58, 114
3, 22620, Note_on_c, 1, 58, 0
3, 22681, Note_on_c, 1, 58, 114
3, 22800, Note_on_c, 1, 58, 0
3, 22861, Note_on_c, 1, 58, 114
3, 22980, Note_on_c, 1, 58, 0
3, 23041, Note_on_c, 1, 65, 114
3, 23160, Note_on_c, 1, 65, 0
3, 23401, Note_on_c, 1, 65, 114
3, 23520, Note_on_c, 1, 65, 0
3, 23581, Note_on_c, 1, 65, 114
3, 23700, Note_on_c, 1, 65, 0
3, 23821, Note_on_c, 1, 65, 114
3, 23880, Note_on_c, 1, 65, 0
3, 23881, Note_on_c, 1, 65, 114
3, 23940, Note_on_c, 1, 65, 0
3, 23941, Note_on_c, 1, 65, 114
3, 23941, Note_on_c, 1, 58, 114
3, 24000, Note_on_c, 1, 65, 0
3, 24000, Note_on_c, 1, 58, 0
3, 24181, Note_on_c, 1, 65, 114
3, 24240, Note_on_c, 1, 65, 0
3, 24241, Note_on_c, 1, 65, 114
3, 24300, Note_on_c, 1, 65, 0
3, 24301, Note_on_c, 1, 65, 114
3, 24301, Note_on_c, 1, 58, 114
3, 24420, Note_on_c, 1, 65, 0
3, 24420, Note_on_c, 1, 58, 0
3, 24421, Note_on_c, 1, 65, 114
3, 24480, Note_on_c, 1, 65, 0
3, 24481, Note_on_c, 1, 65, 114
3, 24481, Note_on_c, 1, 58, 114
3, 24600, Note_on_c, 1, 65, 0
3, 24600, Note_on_c, 1, 58, 0
3, 24601, Note_on_c, 1, 65, 114
3, 24660, Note_on_c, 1, 65, 0
3, 24661, Note_on_c, 1, 58, 114
3, 24661, Note_on_c, 1, 65, 114
3, 24720, Note_on_c, 1, 58, 0
3, 24720, Note_on_c, 1, 65, 0
3, 24721, Note_on_c, 1, 58, 114
3, 24721, Note_on_c, 1, 65, 114
3, 24780, Note_on_c, 1, 58, 0
3, 24780, Note_on_c, 1, 65, 0
3, 24781, Note_on_c, 1, 58, 114
3, 24781, Note_on_c, 1, 65, 114
3, 24840, Note_on_c, 1, 58, 0
3, 24840, Note_on_c, 1, 65, 0
3, 24841, Note_on_c, 1, 65, 114
3, 24841, Note_on_c, 1, 58, 114
3, 24960, Note_on_c, 1, 65, 0
3, 24960, Note_on_c, 1, 58, 0
3, 26100, Note_on_c, 1, 58, 114
3, 26219, Note_on_c, 1, 58, 0
3, 26280, Note_on_c, 1, 58, 114
3, 26399, Note_on_c, 1, 58, 0
3, 27180, Note_on_c, 1, 51, 114
3, 27180, Note_on_c, 1, 63, 114
3, 27218, Note_on_c, 1, 51, 0
3, 27218, Note_on_c, 1, 63, 0
3, 27240, Note_on_c, 1, 55, 114
3, 27240, Note_on_c, 1, 67, 114
3, 27278, Note_on_c, 1, 55, 0
3, 27278, Note_on_c, 1, 67, 0
3, 27300, Note_on_c, 1, 58, 114
3, 27300, Note_on_c, 1, 70, 114
3, 27338, Note_on_c, 1, 58, 0
3, 27338, Note_on_c, 1, 70, 0
3, 27360, Note_on_c, 1, 46, 114
3, 27360, Note_on_c, 1, 58, 114
3, 27437, Note_on_c, 1, 46, 0
3, 27437, Note_on_c, 1, 58, 0
3, 27540, Note_on_c, 1, 51, 114
3, 27540, Note_on_c, 1, 63, 114
3, 27578, Note_on_c, 1, 51, 0
3, 27578, Note_on_c, 1, 63, 0
3, 27600, Note_on_c, 1, 55, 114
3, 27600, Note_on_c, 1, 67, 114
3, 27638, Note_on_c, 1, 55, 0
3, 27638, Note_on_c, 1, 67, 0
3, 27660, Note_on_c, 1, 58, 114
3, 27660, Note_on_c, 1, 70, 114
3, 27698, Note_on_c, 1, 58, 0
3, 27698, Note_on_c, 1, 70, 0
3, 27720, Note_on_c, 1, 46, 114
3, 27720, Note_on_c, 1, 58, 114
3, 27839, Note_on_c, 1, 46, 0
3, 27839, Note_on_c, 1, 58, 0
3, 27900, Note_on_c, 1, 68, 114
3, 27900, Note_on_c, 1, 65, 114
3, 28067, Note_on_c, 1, 68, 0
3, 28067, Note_on_c, 1, 65, 0
3, 28080, Note_on_c, 1, 63, 114
3, 28080, Note_on_c, 1, 67, 114
3, 28247, Note_on_c, 1, 63, 0
3, 28247, Note_on_c, 1, 67, 0
3, 28440, Note_on_c, 1, 58, 114
3, 28440, Note_on_c, 1, 65, 114
3, 28559, Note_on_c, 1, 58, 0
3, 28559, Note_on_c, 1, 65, 0
3, 28620, Note_on_c, 1, 51, 114
3, 28620, Note_on_c, 1, 63, 114
3, 28658, Note_on_c, 1, 51, 0
3, 28658, Note_on_c, 1, 63, 0
3, 28680, Note_on_c, 1, 55, 114
3, 28680, Note_on_c, 1, 67, 114
3, 28718, Note_on_c, 1, 55, 0
3, 28718, Note_on_c, 1, 67, 0
3, 28740, Note_on_c, 1, 58, 114
3, 28740, Note_on_c, 1, 70, 114
3, 28778, Note_on_c, 1, 58, 0
3, 28778, Note_on_c, 1, 70, 0
3, 28800, Note_on_c, 1, 46, 114
3, 28800, Note_on_c, 1, 58, 114
3, 28877, Note_on_c, 1, 46, 0
3, 28877, Note_on_c, 1, 58, 0
3, 28980, Note_on_c, 1, 51, 114
3, 28980, Note_on_c, 1, 63, 114
3, 29018, Note_on_c, 1, 51, 0
3, 29018, Note_on_c, 1, 63, 0
3, 29040, Note_on_c, 1, 67, 114
3, 29040, Note_on_c, 1, 55, 114
3, 29078, Note_on_c, 1, 67, 0
3, 29078, Note_on_c, 1, 55, 0
3, 29100, Note_on_c, 1, 58, 114
3, 29100, Note_on_c, 1, 70, 114
3, 29138, Note_on_c, 1, 58, 0
3, 29138, Note_on_c, 1, 70, 0
3, 29160, Note_on_c, 1, 58, 114
3, 29160, Note_on_c, 1, 46, 114
3, 29279, Note_on_c, 1, 58, 0
3, 29279, Note_on_c, 1, 46, 0
3, 29340, Note_on_c, 1, 68, 114
3, 29340, Note_on_c, 1, 65, 114
3, 29507, Note_on_c, 1, 68, 0
3, 29507, Note_on_c, 1, 65, 0
3, 29520, Note_on_c, 1, 63, 114
3, 29520, Note_on_c, 1, 67, 114
3, 29687, Note_on_c, 1, 63, 0
3, 29687, Note_on_c, 1, 67, 0
3, 29760, Note_on_c, 1, 58, 114
3, 29760, Note_on_c, 1, 70, 114
3, 29819, Note_on_c, 1, 58, 0
3, 29819, Note_on_c, 1, 70, 0
3, 29820, Note_on_c, 1, 58, 114
3, 29820, Note_on_c, 1, 70, 114
3, 29879, Note_on_c, 1, 58, 0
3, 29879, Note_on_c, 1, 70, 0
3, 29880, Note_on_c, 1, 67, 114
3, 29880, Note_on_c, 1, 63, 114
3, 29939, Note_on_c, 1, 67, 0
3, 29939, Note_on_c, 1, 63, 0
3, 29940, Note_on_c, 1, 67, 114
3, 29940, Note_on_c, 1, 70, 114
3, 29999, Note_on_c, 1, 67, 0
3, 29999, Note_on_c, 1, 70, 0
3, 30000, Note_on_c, 1, 65, 114
3, 30000, Note_on_c, 1, 68, 114
3, 30059, Note_on_c, 1, 65, 0
3, 30059, Note_on_c, 1, 68, 0
3, 30060, Note_on_c, 1, 67, 114
3, 30060, Note_on_c, 1, 63, 114
3, 30119, Note_on_c, 1, 67, 0
3, 30119, Note_on_c, 1, 63, 0
3, 30120, Note_on_c, 1, 67, 114
3, 30120, Note_on_c, 1, 63, 114
3, 30179, Note_on_c, 1, 67, 0
3, 30179, Note_on_c, 1, 63, 0
3, 30180, Note_on_c, 1, 58, 114
3, 30180, Note_on_c, 1, 65, 114
3, 30239, Note_on_c, 1, 58, 0
3, 30239, Note_on_c, 1, 65, 0
3, 30240, Note_on_c, 1, 55, 127
3, 30240, Note_on_c, 1, 63, 127
3, 30299, Note_on_c, 1, 55, 0
3, 30299, Note_on_c, 1, 63, 0
3, 30300, Note_on_c, 1, 63, 127
3, 30300, Note_on_c, 1, 55, 127
3, 30359, Note_on_c, 1, 63, 0
3, 30359, Note_on_c, 1, 55, 0
3, 30360, Note_on_c, 1, 63, 127
3, 30360, Note_on_c, 1, 55, 127
3, 30419, Note_on_c, 1, 63, 0
3, 30419, Note_on_c, 1, 55, 0
3, 30420, Note_on_c, 1, 63, 127
3, 30420, Note_on_c, 1, 55, 127
3, 30503, Note_on_c, 1, 63, 0
3, 30503, Note_on_c, 1, 55, 0
3, 30503, End_track
4, 0, Start_track
4, 0, MIDI_port, 0
4, 0, Title_t, "1st Violin"
4, 0, Program_c, 2, 40
4, 181, Note_on_c, 2, 63, 127
4, 225, Note_on_c, 2, 63, 0
4, 241, Note_on_c, 2, 67, 127
4, 285, Note_on_c, 2, 67, 0
4, 301, Note_on_c, 2, 70, 127
4, 345, Note_on_c, 2, 70, 0
4, 361, Note_on_c, 2, 58, 127
4, 405, Note_on_c, 2, 58, 0
4, 421, Note_on_c, 2, 58, 127
4, 443, Note_on_c, 2, 58, 0
4, 451, Note_on_c, 2, 60, 127
4, 473, Note_on_c, 2, 60, 0
4, 481, Note_on_c, 2, 62, 127
4, 503, Note_on_c, 2, 62, 0
4, 511, Note_on_c, 2, 58, 127
4, 533, Note_on_c, 2, 58, 0
4, 541, Note_on_c, 2, 63, 127
4, 585, Note_on_c, 2, 63, 0
4, 601, Note_on_c, 2, 67, 127
4, 645, Note_on_c, 2, 67, 0
4, 661, Note_on_c, 2, 70, 127
4, 705, Note_on_c, 2, 70, 0
4, 721, Note_on_c, 2, 58, 127
4, 840, Note_on_c, 2, 58, 0
4, 901, Note_on_c, 2, 80, 127
4, 1068, Note_on_c, 2, 80, 0
4, 1081, Note_on_c, 2, 79, 127
4, 1248, Note_on_c, 2, 79, 0
4, 1261, Note_on_c, 2, 77, 127
4, 1320, Note_on_c, 2, 77, 0
4, 1321, Note_on_c, 2, 80, 127
4, 1350, Note_on_c, 2, 80, 0
4, 1351, Note_on_c, 2, 79, 127
4, 1380, Note_on_c, 2, 79, 0
4, 1381, Note_on_c, 2, 77, 127
4, 1410, Note_on_c, 2, 77, 0
4, 1411, Note_on_c, 2, 75, 127
4, 1440, Note_on_c, 2, 75, 0
4, 1441, Note_on_c, 2, 74, 127
4, 1470, Note_on_c, 2, 74, 0
4, 1471, Note_on_c, 2, 75, 127
4, 1500, Note_on_c, 2, 75, 0
4, 1501, Note_on_c, 2, 77, 127
4, 1530, Note_on_c, 2, 77, 0
4, 1531, Note_on_c, 2, 74, 127
4, 1560, Note_on_c, 2, 74, 0
4, 1561, Note_on_c, 2, 70, 127
4, 1601, Note_on_c, 2, 70, 0
4, 1621, Note_on_c, 2, 63, 127
4, 1665, Note_on_c, 2, 63, 0
4, 1681, Note_on_c, 2, 67, 127
4, 1725, Note_on_c, 2, 67, 0
4, 1741, Note_on_c, 2, 70, 127
4, 1785, Note_on_c, 2, 70, 0
4, 1801, Note_on_c, 2, 58, 127
4, 1845, Note_on_c, 2, 58, 0
4, 1861, Note_on_c, 2, 58, 127
4, 1883, Note_on_c, 2, 58, 0
4, 1891, Note_on_c, 2, 60, 127
4, 1913, Note_on_c, 2, 60, 0
4, 1921, Note_on_c, 2, 62, 127
4, 1943, Note_on_c, 2, 62, 0
4, 1951, Note_on_c, 2, 58, 127
4, 1973, Note_on_c, 2, 58, 0
4, 1981, Note_on_c, 2, 63, 127
4, 2025, Note_on_c, 2, 63, 0
4, 2041, Note_on_c, 2, 67, 127
4, 2085, Note_on_c, 2, 67, 0
4, 2101, Note_on_c, 2, 70, 127
4, 2145, Note_on_c, 2, 70, 0
4, 2161, Note_on_c, 2, 58, 127
4, 2280, Note_on_c, 2, 58, 0
4, 2341, Note_on_c, 2, 80, 127
4, 2508, Note_on_c, 2, 80, 0
4, 2521, Note_on_c, 2, 79, 127
4, 2688, Note_on_c, 2, 79, 0
4, 2701, Note_on_c, 2, 77, 127
4, 2730, Note_on_c, 2, 77, 0
4, 2731, Note_on_c, 2, 80, 127
4, 2760, Note_on_c, 2, 80, 0
4, 2761, Note_on_c, 2, 79, 127
4, 2790, Note_on_c, 2, 79, 0
4, 2791, Note_on_c, 2, 77, 127
4, 2820, Note_on_c, 2, 77, 0
4, 2821, Note_on_c, 2, 75, 127
4, 2850, Note_on_c, 2, 75, 0
4, 2851, Note_on_c, 2, 74, 127
4, 2880, Note_on_c, 2, 74, 0
4, 2881, Note_on_c, 2, 75, 127
4, 2958, Note_on_c, 2, 75, 0
4, 3061, Note_on_c, 2, 63, 127
4, 3105, Note_on_c, 2, 63, 0
4, 3121, Note_on_c, 2, 67, 127
4, 3165, Note_on_c, 2, 67, 0
4, 3181, Note_on_c, 2, 70, 127
4, 3225, Note_on_c, 2, 70, 0
4, 3241, Note_on_c, 2, 58, 127
4, 3285, Note_on_c, 2, 58, 0
4, 3301, Note_on_c, 2, 58, 127
4, 3323, Note_on_c, 2, 58, 0
4, 3331, Note_on_c, 2, 60, 127
4, 3353, Note_on_c, 2, 60, 0
4, 3361, Note_on_c, 2, 62, 127
4, 3383, Note_on_c, 2, 62, 0
4, 3391, Note_on_c, 2, 58, 127
4, 3413, Note_on_c, 2, 58, 0
4, 3421, Note_on_c, 2, 63, 127
4, 3465, Note_on_c, 2, 63, 0
4, 3481, Note_on_c, 2, 67, 127
4, 3525, Note_on_c, 2, 67, 0
4, 3541, Note_on_c, 2, 70, 127
4, 3585, Note_on_c, 2, 70, 0
4, 3601, Note_on_c, 2, 58, 127
4, 3720, Note_on_c, 2, 58, 0
4, 3781, Note_on_c, 2, 80, 127
4, 3948, Note_on_c, 2, 80, 0
4, 3961, Note_on_c, 2, 79, 127
4, 4128, Note_on_c, 2, 79, 0
4, 4141, Note_on_c, 2, 77, 127
4, 4200, Note_on_c, 2, 77, 0
4, 4201, Note_on_c, 2, 80, 127
4, 4230, Note_on_c, 2, 80, 0
4, 4231, Note_on_c, 2, 79, 127
4, 4260, Note_on_c, 2, 79, 0
4, 4261, Note_on_c, 2, 77, 127
4, 4290, Note_on_c, 2, 77, 0
4, 4291, Note_on_c, 2, 75, 127
4, 4320, Note_on_c, 2, 75, 0
4, 4321, Note_on_c, 2, 74, 127
4, 4350, Note_on_c, 2, 74, 0
4, 4351, Note_on_c, 2, 75, 127
4, 4380, Note_on_c, 2, 75, 0
4, 4381, Note_on_c, 2, 77, 127
4, 4410, Note_on_c, 2, 77, 0
4, 4411, Note_on_c, 2, 74, 127
4, 4440, Note_on_c, 2, 74, 0
4, 4441, Note_on_c, 2, 70, 127
4, 4481, Note_on_c, 2, 70, 0
4, 4501, Note_on_c, 2, 63, 127
4, 4545, Note_on_c, 2, 63, 0
4, 4561, Note_on_c, 2, 67, 127
4, 4605, Note_on_c, 2, 67, 0
4, 4621, Note_on_c, 2, 70, 127
4, 4665, Note_on_c, 2, 70, 0
4, 4681, Note_on_c, 2, 58, 127
4, 4725, Note_on_c, 2, 58, 0
4, 4741, Note_on_c, 2, 58, 127
4, 4763, Note_on_c, 2, 58, 0
4, 4771, Note_on_c, 2, 60, 127
4, 4793, Note_on_c, 2, 60, 0
4, 4801, Note_on_c, 2, 62, 127
4, 4823, Note_on_c, 2, 62, 0
4, 4831, Note_on_c, 2, 58, 127
4, 4853, Note_on_c, 2, 58, 0
4, 4861, Note_on_c, 2, 63, 127
4, 4905, Note_on_c, 2, 63, 0
4, 4921, Note_on_c, 2, 67, 127
4, 4965, Note_on_c, 2, 67, 0
4, 4981, Note_on_c, 2, 70, 127
4, 5025, Note_on_c, 2, 70, 0
4, 5041, Note_on_c, 2, 58, 127
4, 5160, Note_on_c, 2, 58, 0
4, 5221, Note_on_c, 2, 80, 127
4, 5388, Note_on_c, 2, 80, 0
4, 5401, Note_on_c, 2, 79, 127
4, 5568, Note_on_c, 2, 79, 0
4, 5581, Note_on_c, 2, 77, 127
4, 5610, Note_on_c, 2, 77, 0
4, 5611, Note_on_c, 2, 80, 127
4, 5640, Note_on_c, 2, 80, 0
4, 5641, Note_on_c, 2, 79, 127
4, 5670, Note_on_c, 2, 79, 0
4, 5671, Note_on_c, 2, 77, 127
4, 5700, Note_on_c, 2, 77, 0
4, 5701, Note_on_c, 2, 75, 127
4, 5730, Note_on_c, 2, 75, 0
4, 5731, Note_on_c, 2, 74, 127
4, 5760, Note_on_c, 2, 74, 0
4, 5761, Note_on_c, 2, 75, 127
4, 5838, Note_on_c, 2, 75, 0
4, 5941, Note_on_c, 2, 79, 127
4, 6060, Note_on_c, 2, 79, 0
4, 6121, Note_on_c, 2, 77, 127
4, 6240, Note_on_c, 2, 77, 0
4, 6301, Note_on_c, 2, 75, 127
4, 6420, Note_on_c, 2, 75, 0
4, 6481, Note_on_c, 2, 74, 127
4, 6600, Note_on_c, 2, 74, 0
4, 6601, Note_on_c, 2, 77, 127
4, 6660, Note_on_c, 2, 77, 0
4, 6661, Note_on_c, 2, 76, 127
4, 6720, Note_on_c, 2, 76, 0
4, 6721, Note_on_c, 2, 77, 127
4, 6780, Note_on_c, 2, 77, 0
4, 6781, Note_on_c, 2, 75, 127
4, 6840, Note_on_c, 2, 75, 0
4, 6841, Note_on_c, 2, 73, 127
4, 6900, Note_on_c, 2, 73, 0
4, 6901, Note_on_c, 2, 74, 127
4, 6960, Note_on_c, 2, 74, 0
4, 6961, Note_on_c, 2, 69, 127
4, 7020, Note_on_c, 2, 69, 0
4, 7021, Note_on_c, 2, 70, 127
4, 7080, Note_on_c, 2, 70, 0
4, 7081, Note_on_c, 2, 66, 127
4, 7140, Note_on_c, 2, 66, 0
4, 7141, Note_on_c, 2, 64, 127
4, 7200, Note_on_c, 2, 64, 0
4, 7201, Note_on_c, 2, 65, 127
4, 7230, Note_on_c, 2, 65, 0
4, 7231, Note_on_c, 2, 67, 127
4, 7245, Note_on_c, 2, 67, 0
4, 7246, Note_on_c, 2, 69, 127
4, 7260, Note_on_c, 2, 69, 0
4, 7261, Note_on_c, 2, 70, 127
4, 7275, Note_on_c, 2, 70, 0
4, 7276, Note_on_c, 2, 72, 127
4, 7290, Note_on_c, 2, 72, 0
4, 7291, Note_on_c, 2, 74, 127
4, 7305, Note_on_c, 2, 74, 0
4, 7306, Note_on_c, 2, 76, 127
4, 7320, Note_on_c, 2, 76, 0
4, 7321, Note_on_c, 2, 77, 127
4, 7380, Note_on_c, 2, 77, 0
4, 7381, Note_on_c, 2, 76, 127
4, 7440, Note_on_c, 2, 76, 0
4, 7441, Note_on_c, 2, 77, 127
4, 7500, Note_on_c, 2, 77, 0
4, 7501, Note_on_c, 2, 75, 127
4, 7560, Note_on_c, 2, 75, 0
4, 7561, Note_on_c, 2, 73, 127
4, 7620, Note_on_c, 2, 73, 0
4, 7621, Note_on_c, 2, 74, 127
4, 7680, Note_on_c, 2, 74, 0
4, 7681, Note_on_c, 2, 69, 127
4, 7740, Note_on_c, 2, 69, 0
4, 7741, Note_on_c, 2, 70, 127
4, 7800, Note_on_c, 2, 70, 0
4, 7801, Note_on_c, 2, 66, 127
4, 7860, Note_on_c, 2, 66, 0
4, 7861, Note_on_c, 2, 64, 127
4, 7920, Note_on_c, 2, 64, 0
4, 7921, Note_on_c, 2, 65, 127
4, 8040, Note_on_c, 2, 65, 0
4, 8041, Note_on_c, 2, 77, 76
4, 8100, Note_on_c, 2, 77, 0
4, 8101, Note_on_c, 2, 77, 76
4, 8220, Note_on_c, 2, 77, 0
4, 8221, Note_on_c, 2, 77, 76
4, 8280, Note_on_c, 2, 77, 0
4, 8281, Note_on_c, 2, 77, 76
4, 8400, Note_on_c, 2, 77, 0
4, 8401, Note_on_c, 2, 77, 76
4, 8460, Note_on_c, 2, 77, 0
4, 8461, Note_on_c, 2, 77, 76
4, 8580, Note_on_c, 2, 77, 0
4, 8581, Note_on_c, 2, 77, 76
4, 8640, Note_on_c, 2, 77, 0
4, 8641, Note_on_c, 2, 69, 127
4, 8641, Note_on_c, 2, 77, 127
4, 8760, Note_on_c, 2, 69, 0
4, 8760, Note_on_c, 2, 77, 0
4, 8761, Note_on_c, 2, 77, 76
4, 8820, Note_on_c, 2, 77, 0
4, 8821, Note_on_c, 2, 77, 76
4, 8940, Note_on_c, 2, 77, 0
4, 8941, Note_on_c, 2, 77, 76
4, 9000, Note_on_c, 2, 77, 0
4, 9001, Note_on_c, 2, 77, 76
4, 9120, Note_on_c, 2, 77, 0
4, 9121, Note_on_c, 2, 77, 76
4, 9180, Note_on_c, 2, 77, 0
4, 9181, Note_on_c, 2, 77, 76
4, 9300, Note_on_c, 2, 77, 0
4, 9301, Note_on_c, 2, 77, 76
4, 9360, Note_on_c, 2, 77, 0
4, 9361, Note_on_c, 2, 69, 127
4, 9361, Note_on_c, 2, 77, 127
4, 9480, Note_on_c, 2, 69, 0
4, 9480, Note_on_c, 2, 77, 0
4, 9481, Note_on_c, 2, 77, 127
4, 9540, Note_on_c, 2, 77, 0
4, 9541, Note_on_c, 2, 82, 127
4, 9660, Note_on_c, 2, 82, 0
4, 9721, Note_on_c, 2, 81, 127
4, 9840, Note_on_c, 2, 81, 0
4, 9901, Note_on_c, 2, 80, 127
4, 10020, Note_on_c, 2, 80, 0
4, 10081, Note_on_c, 2, 79, 127
4, 10200, Note_on_c, 2, 79, 0
4, 10261, Note_on_c, 2, 77, 127
4, 10380, Note_on_c, 2, 77, 0
4, 10441, Note_on_c, 2, 76, 127
4, 10560, Note_on_c, 2, 76, 0
4, 10621, Note_on_c, 2, 75, 127
4, 10740, Note_on_c, 2, 75, 0
4, 10801, Note_on_c, 2, 74, 127
4, 10920, Note_on_c, 2, 74, 0
4, 10921, Note_on_c, 2, 70, 127
4, 10980, Note_on_c, 2, 70, 0
4, 10981, Note_on_c, 2, 72, 102
4, 11010, Note_on_c, 2, 72, 0
4, 11011, Note_on_c, 2, 75, 102
4, 11040, Note_on_c, 2, 75, 0
4, 11041, Note_on_c, 2, 74, 102
4, 11070, Note_on_c, 2, 74, 0
4, 11071, Note_on_c, 2, 72, 102
4, 11100, Note_on_c, 2, 72, 0
4, 11101, Note_on_c, 2, 70, 102
4, 11130, Note_on_c, 2, 70, 0
4, 11131, Note_on_c, 2, 69, 102
4, 11160, Note_on_c, 2, 69, 0
4, 11161, Note_on_c, 2, 70, 102
4, 11280, Note_on_c, 2, 70, 0
4, 11341, Note_on_c, 2, 70, 127
4, 11460, Note_on_c, 2, 70, 0
4, 11521, Note_on_c, 2, 69, 127
4, 11640, Note_on_c, 2, 69, 0
4, 11701, Note_on_c, 2, 68, 127
4, 11820, Note_on_c, 2, 68, 0
4, 11881, Note_on_c, 2, 67, 127
4, 12000, Note_on_c, 2, 67, 0
4, 12061, Note_on_c, 2, 65, 127
4, 12180, Note_on_c, 2, 65, 0
4, 12241, Note_on_c, 2, 64, 127
4, 12360, Note_on_c, 2, 64, 0
4, 12421, Note_on_c, 2, 63, 127
4, 12540, Note_on_c, 2, 63, 0
4, 12601, Note_on_c, 2, 62, 127
4, 12720, Note_on_c, 2, 62, 0
4, 12721, Note_on_c, 2, 58, 89
4, 12780, Note_on_c, 2, 58, 0
4, 12781, Note_on_c, 2, 60, 89
4, 12810, Note_on_c, 2, 60, 0
4, 12811, Note_on_c, 2, 63, 89
4, 12840, Note_on_c, 2, 63, 0
4, 12841, Note_on_c, 2, 62, 89
4, 12870, Note_on_c, 2, 62, 0
4, 12871, Note_on_c, 2, 60, 89
4, 12900, Note_on_c, 2, 60, 0
4, 12901, Note_on_c, 2, 58, 76
4, 12930, Note_on_c, 2, 58, 0
4, 12931, Note_on_c, 2, 57, 76
4, 12960, Note_on_c, 2, 57, 0
4, 12961, Note_on_c, 2, 58, 76
4, 13020, Note_on_c, 2, 58, 0
4, 13141, Note_on_c, 2, 72, 108
4, 13170, Note_on_c, 2, 72, 0
4, 13171, Note_on_c, 2, 75, 108
4, 13200, Note_on_c, 2, 75, 0
4, 13201, Note_on_c, 2, 74, 108
4, 13230, Note_on_c, 2, 74, 0
4, 13231, Note_on_c, 2, 72, 108
4, 13260, Note_on_c, 2, 72, 0
4, 13261, Note_on_c, 2, 70, 108
4, 13290, Note_on_c, 2, 70, 0
4, 13291, Note_on_c, 2, 69, 108
4, 13320, Note_on_c, 2, 69, 0
4, 13321, Note_on_c, 2, 70, 108
4, 13380, Note_on_c, 2, 70, 0
4, 13381, Note_on_c, 2, 77, 108
4, 13410, Note_on_c, 2, 77, 0
4, 13411, Note_on_c, 2, 74, 108
4, 13440, Note_on_c, 2, 74, 0
4, 13441, Note_on_c, 2, 75, 108
4, 13470, Note_on_c, 2, 75, 0
4, 13471, Note_on_c, 2, 72, 108
4, 13500, Note_on_c, 2, 72, 0
4, 13501, Note_on_c, 2, 74, 108
4, 13560, Note_on_c, 2, 74, 0
4, 13561, Note_on_c, 2, 77, 108
4, 13590, Note_on_c, 2, 77, 0
4, 13591, Note_on_c, 2, 74, 108
4, 13620, Note_on_c, 2, 74, 0
4, 13621, Note_on_c, 2, 75, 108
4, 13650, Note_on_c, 2, 75, 0
4, 13651, Note_on_c, 2, 72, 108
4, 13680, Note_on_c, 2, 72, 0
4, 13681, Note_on_c, 2, 70, 108
4, 13681, Note_on_c, 2, 62, 108
4, 13740, Note_on_c, 2, 70, 0
4, 13740, Note_on_c, 2, 62, 0
4, 13741, Note_on_c, 2, 70, 108
4, 13741, Note_on_c, 2, 62, 108
4, 13800, Note_on_c, 2, 70, 0
4, 13800, Note_on_c, 2, 62, 0
4, 13801, Note_on_c, 2, 62, 108
4, 13801, Note_on_c, 2, 70, 108
4, 13860, Note_on_c, 2, 62, 0
4, 13860, Note_on_c, 2, 70, 0
4, 13861, Note_on_c, 2, 70, 108
4, 13861, Note_on_c, 2, 62, 108
4, 13980, Note_on_c, 2, 70, 0
4, 13980, Note_on_c, 2, 62, 0
4, 14041, Note_on_c, 2, 63, 127
4, 14079, Note_on_c, 2, 63, 0
4, 14101, Note_on_c, 2, 67, 127
4, 14139, Note_on_c, 2, 67, 0
4, 14161, Note_on_c, 2, 70, 127
4, 14199, Note_on_c, 2, 70, 0
4, 14221, Note_on_c, 2, 58, 127
4, 14259, Note_on_c, 2, 58, 0
4, 14281, Note_on_c, 2, 58, 127
4, 14300, Note_on_c, 2, 58, 0
4, 14311, Note_on_c, 2, 60, 127
4, 14330, Note_on_c, 2, 60, 0
4, 14341, Note_on_c, 2, 62, 127
4, 14360, Note_on_c, 2, 62, 0
4, 14371, Note_on_c, 2, 58, 127
4, 14390, Note_on_c, 2, 58, 0
4, 14401, Note_on_c, 2, 63, 127
4, 14439, Note_on_c, 2, 63, 0
4, 14461, Note_on_c, 2, 67, 127
4, 14499, Note_on_c, 2, 67, 0
4, 14521, Note_on_c, 2, 70, 127
4, 14559, Note_on_c, 2, 70, 0
4, 14581, Note_on_c, 2, 58, 127
4, 14700, Note_on_c, 2, 58, 0
4, 14761, Note_on_c, 2, 80, 127
4, 14928, Note_on_c, 2, 80, 0
4, 14941, Note_on_c, 2, 79, 127
4, 15108, Note_on_c, 2, 79, 0
4, 15121, Note_on_c, 2, 77, 127
4, 15180, Note_on_c, 2, 77, 0
4, 15181, Note_on_c, 2, 80, 127
4, 15210, Note_on_c, 2, 80, 0
4, 15211, Note_on_c, 2, 79, 127
4, 15240, Note_on_c, 2, 79, 0
4, 15241, Note_on_c, 2, 77, 127
4, 15270, Note_on_c, 2, 77, 0
4, 15271, Note_on_c, 2, 75, 127
4, 15300, Note_on_c, 2, 75, 0
4, 15301, Note_on_c, 2, 74, 127
4, 15330, Note_on_c, 2, 74, 0
4, 15331, Note_on_c, 2, 75, 127
4, 15360, Note_on_c, 2, 75, 0
4, 15361, Note_on_c, 2, 77, 127
4, 15390, Note_on_c, 2, 77, 0
4, 15391, Note_on_c, 2, 74, 127
4, 15420, Note_on_c, 2, 74, 0
4, 15421, Note_on_c, 2, 70, 127
4, 15461, Note_on_c, 2, 70, 0
4, 15481, Note_on_c, 2, 63, 127
4, 15519, Note_on_c, 2, 63, 0
4, 15541, Note_on_c, 2, 67, 127
4, 15579, Note_on_c, 2, 67, 0
4, 15601, Note_on_c, 2, 70, 127
4, 15639, Note_on_c, 2, 70, 0
4, 15661, Note_on_c, 2, 58, 127
4, 15699, Note_on_c, 2, 58, 0
4, 15721, Note_on_c, 2, 58, 127
4, 15740, Note_on_c, 2, 58, 0
4, 15751, Note_on_c, 2, 60, 127
4, 15770, Note_on_c, 2, 60, 0
4, 15781, Note_on_c, 2, 62, 127
4, 15800, Note_on_c, 2, 62, 0
4, 15811, Note_on_c, 2, 58, 127
4, 15830, Note_on_c, 2, 58, 0
4, 15841, Note_on_c, 2, 63, 127
4, 15879, Note_on_c, 2, 63, 0
4, 15901, Note_on_c, 2, 67, 127
4, 15939, Note_on_c, 2, 67, 0
4, 15961, Note_on_c, 2, 70, 127
4, 15999, Note_on_c, 2, 70, 0
4, 16021, Note_on_c, 2, 58, 127
4, 16140, Note_on_c, 2, 58, 0
4, 16201, Note_on_c, 2, 80, 127
4, 16368, Note_on_c, 2, 80, 0
4, 16381, Note_on_c, 2, 79, 127
4, 16548, Note_on_c, 2, 79, 0
4, 16561, Note_on_c, 2, 77, 127
4, 16590, Note_on_c, 2, 77, 0
4, 16591, Note_on_c, 2, 80, 127
4, 16620, Note_on_c, 2, 80, 0
4, 16621, Note_on_c, 2, 79, 127
4, 16650, Note_on_c, 2, 79, 0
4, 16651, Note_on_c, 2, 77, 127
4, 16680, Note_on_c, 2, 77, 0
4, 16681, Note_on_c, 2, 75, 127
4, 16710, Note_on_c, 2, 75, 0
4, 16711, Note_on_c, 2, 74, 127
4, 16740, Note_on_c, 2, 74, 0
4, 16741, Note_on_c, 2, 75, 127
4, 16818, Note_on_c, 2, 75, 0
4, 16921, Note_on_c, 2, 79, 127
4, 17040, Note_on_c, 2, 79, 0
4, 17101, Note_on_c, 2, 77, 127
4, 17220, Note_on_c, 2, 77, 0
4, 17281, Note_on_c, 2, 75, 127
4, 17400, Note_on_c, 2, 75, 0
4, 17461, Note_on_c, 2, 74, 127
4, 17580, Note_on_c, 2, 74, 0
4, 17581, Note_on_c, 2, 77, 127
4, 17640, Note_on_c, 2, 77, 0
4, 17641, Note_on_c, 2, 76, 127
4, 17700, Note_on_c, 2, 76, 0
4, 17701, Note_on_c, 2, 77, 127
4, 17760, Note_on_c, 2, 77, 0
4, 17761, Note_on_c, 2, 75, 127
4, 17820, Note_on_c, 2, 75, 0
4, 17821, Note_on_c, 2, 73, 127
4, 17880, Note_on_c, 2, 73, 0
4, 17881, Note_on_c, 2, 74, 127
4, 17940, Note_on_c, 2, 74, 0
4, 17941, Note_on_c, 2, 69, 127
4, 18000, Note_on_c, 2, 69, 0
4, 18001, Note_on_c, 2, 70, 127
4, 18060, Note_on_c, 2, 70, 0
4, 18061, Note_on_c, 2, 66, 127
4, 18120, Note_on_c, 2, 66, 0
4, 18121, Note_on_c, 2, 64, 127
4, 18180, Note_on_c, 2, 64, 0
4, 18181, Note_on_c, 2, 65, 127
4, 18210, Note_on_c, 2, 65, 0
4, 18211, Note_on_c, 2, 67, 127
4, 18225, Note_on_c, 2, 67, 0
4, 18226, Note_on_c, 2, 69, 127
4, 18240, Note_on_c, 2, 69, 0
4, 18241, Note_on_c, 2, 70, 127
4, 18255, Note_on_c, 2, 70, 0
4, 18256, Note_on_c, 2, 72, 127
4, 18270, Note_on_c, 2, 72, 0
4, 18271, Note_on_c, 2, 74, 127
4, 18285, Note_on_c, 2, 74, 0
4, 18286, Note_on_c, 2, 76, 127
4, 18300, Note_on_c, 2, 76, 0
4, 18301, Note_on_c, 2, 77, 127
4, 18360, Note_on_c, 2, 77, 0
4, 18361, Note_on_c, 2, 76, 127
4, 18420, Note_on_c, 2, 76, 0
4, 18421, Note_on_c, 2, 77, 127
4, 18480, Note_on_c, 2, 77, 0
4, 18481, Note_on_c, 2, 75, 127
4, 18540, Note_on_c, 2, 75, 0
4, 18541, Note_on_c, 2, 73, 127
4, 18600, Note_on_c, 2, 73, 0
4, 18601, Note_on_c, 2, 74, 127
4, 18660, Note_on_c, 2, 74, 0
4, 18661, Note_on_c, 2, 69, 127
4, 18720, Note_on_c, 2, 69, 0
4, 18721, Note_on_c, 2, 70, 127
4, 18780, Note_on_c, 2, 70, 0
4, 18781, Note_on_c, 2, 66, 127
4, 18840, Note_on_c, 2, 66, 0
4, 18841, Note_on_c, 2, 64, 127
4, 18900, Note_on_c, 2, 64, 0
4, 18901, Note_on_c, 2, 65, 127
4, 19020, Note_on_c, 2, 65, 0
4, 19021, Note_on_c, 2, 77, 76
4, 19080, Note_on_c, 2, 77, 0
4, 19081, Note_on_c, 2, 77, 76
4, 19200, Note_on_c, 2, 77, 0
4, 19201, Note_on_c, 2, 77, 76
4, 19260, Note_on_c, 2, 77, 0
4, 19261, Note_on_c, 2, 77, 76
4, 19380, Note_on_c, 2, 77, 0
4, 19381, Note_on_c, 2, 77, 76
4, 19440, Note_on_c, 2, 77, 0
4, 19441, Note_on_c, 2, 77, 76
4, 19560, Note_on_c, 2, 77, 0
4, 19561, Note_on_c, 2, 77, 76
4, 19620, Note_on_c, 2, 77, 0
4, 19621, Note_on_c, 2, 69, 127
4, 19621, Note_on_c, 2, 77, 127
4, 19740, Note_on_c, 2, 69, 0
4, 19740, Note_on_c, 2, 77, 0
4, 19741, Note_on_c, 2, 77, 76
4, 19800, Note_on_c, 2, 77, 0
4, 19801, Note_on_c, 2, 77, 76
4, 19920, Note_on_c, 2, 77, 0
4, 19921, Note_on_c, 2, 77, 76
4, 19980, Note_on_c, 2, 77, 0
4, 19981, Note_on_c, 2, 77, 76
4, 20100, Note_on_c, 2, 77, 0
4, 20101, Note_on_c, 2, 77, 76
4, 20160, Note_on_c, 2, 77, 0
4, 20161, Note_on_c, 2, 77, 76
4, 20280, Note_on_c, 2, 77, 0
4, 20281, Note_on_c, 2, 77, 76
4, 20340, Note_on_c, 2, 77, 0
4, 20341, Note_on_c, 2, 69, 127
4, 20341, Note_on_c, 2, 77, 127
4, 20460, Note_on_c, 2, 69, 0
4, 20460, Note_on_c, 2, 77, 0
4, 20461, Note_on_c, 2, 77, 127
4, 20520, Note_on_c, 2, 77, 0
4, 20521, Note_on_c, 2, 82, 127
4, 20640, Note_on_c, 2, 82, 0
4, 20701, Note_on_c, 2, 81, 127
4, 20820, Note_on_c, 2, 81, 0
4, 20881, Note_on_c, 2, 80, 127
4, 21000, Note_on_c, 2, 80, 0
4, 21061, Note_on_c, 2, 79, 127
4, 21180, Note_on_c, 2, 79, 0
4, 21241, Note_on_c, 2, 77, 127
4, 21360, Note_on_c, 2, 77, 0
4, 21421, Note_on_c, 2, 76, 127
4, 21540, Note_on_c, 2, 76, 0
4, 21601, Note_on_c, 2, 75, 127
4, 21720, Note_on_c, 2, 75, 0
4, 21781, Note_on_c, 2, 74, 127
4, 21900, Note_on_c, 2, 74, 0
4, 21901, Note_on_c, 2, 70, 127
4, 21960, Note_on_c, 2, 70, 0
4, 21961, Note_on_c, 2, 72, 127
4, 21990, Note_on_c, 2, 72, 0
4, 21991, Note_on_c, 2, 75, 127
4, 22020, Note_on_c, 2, 75, 0
4, 22021, Note_on_c, 2, 74, 127
4, 22050, Note_on_c, 2, 74, 0
4, 22051, Note_on_c, 2, 72, 127
4, 22080, Note_on_c, 2, 72, 0
4, 22081, Note_on_c, 2, 70, 127
4, 22110, Note_on_c, 2, 70, 0
4, 22111, Note_on_c, 2, 69, 127
4, 22140, Note_on_c, 2, 69, 0
4, 22141, Note_on_c, 2, 70, 127
4, 22260, Note_on_c, 2, 70, 0
4, 22321, Note_on_c, 2, 70, 127
4, 22440, Note_on_c, 2, 70, 0
4, 22501, Note_on_c, 2, 69, 127
4, 22620, Note_on_c, 2, 69, 0
4, 22681, Note_on_c, 2, 68, 127
4, 22800, Note_on_c, 2, 68, 0
4, 22861, Note_on_c, 2, 67, 127
4, 22980, Note_on_c, 2, 67, 0
4, 23041, Note_on_c, 2, 65, 127
4, 23160, Note_on_c, 2, 65, 0
4, 23221, Note_on_c, 2, 64, 127
4, 23340, Note_on_c, 2, 64, 0
4, 23401, Note_on_c, 2, 63, 127
4, 23520, Note_on_c, 2, 63, 0
4, 23581, Note_on_c, 2, 62, 127
4, 23700, Note_on_c, 2, 62, 0
4, 23701, Note_on_c, 2, 58, 127
4, 23760, Note_on_c, 2, 58, 0
4, 23761, Note_on_c, 2, 60, 127
4, 23790, Note_on_c, 2, 60, 0
4, 23791, Note_on_c, 2, 63, 127
4, 23820, Note_on_c, 2, 63, 0
4, 23821, Note_on_c, 2, 62, 127
4, 23850, Note_on_c, 2, 62, 0
4, 23851, Note_on_c, 2, 60, 127
4, 23880, Note_on_c, 2, 60, 0
4, 23881, Note_on_c, 2, 58, 127
4, 23910, Note_on_c, 2, 58, 0
4, 23911, Note_on_c, 2, 57, 127
4, 23940, Note_on_c, 2, 57, 0
4, 23941, Note_on_c, 2, 58, 127
4, 24000, Note_on_c, 2, 58, 0
4, 24121, Note_on_c, 2, 72, 127
4, 24150, Note_on_c, 2, 72, 0
4, 24151, Note_on_c, 2, 75, 127
4, 24180, Note_on_c, 2, 75, 0
4, 24181, Note_on_c, 2, 74, 127
4, 24210, Note_on_c, 2, 74, 0
4, 24211, Note_on_c, 2, 72, 127
4, 24240, Note_on_c, 2, 72, 0
4, 24241, Note_on_c, 2, 70, 127
4, 24270, Note_on_c, 2, 70, 0
4, 24271, Note_on_c, 2, 69, 127
4, 24300, Note_on_c, 2, 69, 0
4, 24301, Note_on_c, 2, 70, 127
4, 24360, Note_on_c, 2, 70, 0
4, 24361, Note_on_c, 2, 77, 127
4, 24390, Note_on_c, 2, 77, 0
4, 24391, Note_on_c, 2, 74, 127
4, 24420, Note_on_c, 2, 74, 0
4, 24421, Note_on_c, 2, 75, 127
4, 24450, Note_on_c, 2, 75, 0
4, 24451, Note_on_c, 2, 72, 127
4, 24480, Note_on_c, 2, 72, 0
4, 24481, Note_on_c, 2, 74, 127
4, 24540, Note_on_c, 2, 74, 0
4, 24541, Note_on_c, 2, 77, 127
4, 24570, Note_on_c, 2, 77, 0
4, 24571, Note_on_c, 2, 74, 127
4, 24600, Note_on_c, 2, 74, 0
4, 24601, Note_on_c, 2, 75, 127
4, 24630, Note_on_c, 2, 75, 0
4, 24631, Note_on_c, 2, 72, 127
4, 24660, Note_on_c, 2, 72, 0
4, 24661, Note_on_c, 2, 70, 127
4, 24661, Note_on_c, 2, 62, 127
4, 24720, Note_on_c, 2, 70, 0
4, 24720, Note_on_c, 2, 62, 0
4, 24721, Note_on_c, 2, 70, 127
4, 24721, Note_on_c, 2, 62, 127
4, 24780, Note_on_c, 2, 70, 0
4, 24780, Note_on_c, 2, 62, 0
4, 24781, Note_on_c, 2, 62, 127
4, 24781, Note_on_c, 2, 70, 127
4, 24840, Note_on_c, 2, 62, 0
4, 24840, Note_on_c, 2, 70, 0
4, 24841, Note_on_c, 2, 70, 127
4, 24841, Note_on_c, 2, 62, 127
4, 24960, Note_on_c, 2, 70, 0
4, 24960, Note_on_c, 2, 62, 0
4, 25020, Note_on_c, 2, 70, 64
4, 25190, Note_on_c, 2, 70, 0
4, 25200, Note_on_c, 2, 72, 64
4, 25370, Note_on_c, 2, 72, 0
4, 25380, Note_on_c, 2, 74, 64
4, 25550, Note_on_c, 2, 74, 0
4, 25560, Note_on_c, 2, 75, 64
4, 25730, Note_on_c, 2, 75, 0
4, 25740, Note_on_c, 2, 74, 64
4, 25910, Note_on_c, 2, 74, 0
4, 25920, Note_on_c, 2, 75, 64
4, 26090, Note_on_c, 2, 75, 0
4, 26100, Note_on_c, 2, 80, 127
4, 26270, Note_on_c, 2, 80, 0
4, 26280, Note_on_c, 2, 79, 127
4, 26450, Note_on_c, 2, 79, 0
4, 26460, Note_on_c, 2, 77, 127
4, 26519, Note_on_c, 2, 77, 0
4, 26520, Note_on_c, 2, 84, 127
4, 26549, Note_on_c, 2, 84, 0
4, 26550, Note_on_c, 2, 82, 127
4, 26579, Note_on_c, 2, 82, 0
4, 26580, Note_on_c, 2, 80, 127
4, 26609, Note_on_c, 2, 80, 0
4, 26610, Note_on_c, 2, 79, 127
4, 26639, Note_on_c, 2, 79, 0
4, 26640, Note_on_c, 2, 77, 127
4, 26669, Note_on_c, 2, 77, 0
4, 26700, Note_on_c, 2, 77, 127
4, 26729, Note_on_c, 2, 77, 0
4, 26730, Note_on_c, 2, 76, 127
4, 26759, Note_on_c, 2, 76, 0
4, 26760, Note_on_c, 2, 77, 127
4, 26789, Note_on_c, 2, 77, 0
4, 26790, Note_on_c, 2, 76, 127
4, 26819, Note_on_c, 2, 76, 0
4, 26820, Note_on_c, 2, 77, 127
4, 26849, Note_on_c, 2, 77, 0
4, 26880, Note_on_c, 2, 77, 127
4, 26909, Note_on_c, 2, 77, 0
4, 26910, Note_on_c, 2, 79, 127
4, 26939, Note_on_c, 2, 79, 0
4, 26940, Note_on_c, 2, 77, 127
4, 26969, Note_on_c, 2, 77, 0
4, 26970, Note_on_c, 2, 75, 127
4, 26999, Note_on_c, 2, 75, 0
4, 27000, Note_on_c, 2, 74, 127
4, 27030, Note_on_c, 2, 74, 0
4, 27060, Note_on_c, 2, 70, 127
4, 27090, Note_on_c, 2, 70, 0
4, 27180, Note_on_c, 2, 63, 127
4, 27218, Note_on_c, 2, 63, 0
4, 27240, Note_on_c, 2, 67, 127
4, 27278, Note_on_c, 2, 67, 0
4, 27300, Note_on_c, 2, 70, 127
4, 27338, Note_on_c, 2, 70, 0
4, 27360, Note_on_c, 2, 58, 127
4, 27398, Note_on_c, 2, 58, 0
4, 27420, Note_on_c, 2, 58, 127
4, 27439, Note_on_c, 2, 58, 0
4, 27450, Note_on_c, 2, 60, 127
4, 27469, Note_on_c, 2, 60, 0
4, 27480, Note_on_c, 2, 62, 127
4, 27499, Note_on_c, 2, 62, 0
4, 27510, Note_on_c, 2, 58, 127
4, 27529, Note_on_c, 2, 58, 0
4, 27540, Note_on_c, 2, 63, 127
4, 27578, Note_on_c, 2, 63, 0
4, 27600, Note_on_c, 2, 67, 127
4, 27638, Note_on_c, 2, 67, 0
4, 27660, Note_on_c, 2, 70, 127
4, 27698, Note_on_c, 2, 70, 0
4, 27720, Note_on_c, 2, 58, 127
4, 27839, Note_on_c, 2, 58, 0
4, 27900, Note_on_c, 2, 80, 127
4, 28067, Note_on_c, 2, 80, 0
4, 28080, Note_on_c, 2, 79, 127
4, 28247, Note_on_c, 2, 79, 0
4, 28260, Note_on_c, 2, 77, 127
4, 28319, Note_on_c, 2, 77, 0
4, 28320, Note_on_c, 2, 80, 127
4, 28349, Note_on_c, 2, 80, 0
4, 28350, Note_on_c, 2, 79, 127
4, 28379, Note_on_c, 2, 79, 0
4, 28380, Note_on_c, 2, 77, 127
4, 28409, Note_on_c, 2, 77, 0
4, 28410, Note_on_c, 2, 75, 127
4, 28439, Note_on_c, 2, 75, 0
4, 28440, Note_on_c, 2, 74, 127
4, 28469, Note_on_c, 2, 74, 0
4, 28470, Note_on_c, 2, 75, 127
4, 28499, Note_on_c, 2, 75, 0
4, 28500, Note_on_c, 2, 77, 127
4, 28529, Note_on_c, 2, 77, 0
4, 28530, Note_on_c, 2, 74, 127
4, 28559, Note_on_c, 2, 74, 0
4, 28560, Note_on_c, 2, 70, 127
4, 28600, Note_on_c, 2, 70, 0
4, 28620, Note_on_c, 2, 63, 127
4, 28658, Note_on_c, 2, 63, 0
4, 28680, Note_on_c, 2, 67, 127
4, 28718, Note_on_c, 2, 67, 0
4, 28740, Note_on_c, 2, 70, 127
4, 28778, Note_on_c, 2, 70, 0
4, 28800, Note_on_c, 2, 58, 127
4, 28838, Note_on_c, 2, 58, 0
4, 28860, Note_on_c, 2, 58, 127
4, 28879, Note_on_c, 2, 58, 0
4, 28890, Note_on_c, 2, 60, 127
4, 28909, Note_on_c, 2, 60, 0
4, 28920, Note_on_c, 2, 62, 127
4, 28939, Note_on_c, 2, 62, 0
4, 28950, Note_on_c, 2, 58, 127
4, 28969, Note_on_c, 2, 58, 0
4, 28980, Note_on_c, 2, 63, 127
4, 29018, Note_on_c, 2, 63, 0
4, 29040, Note_on_c, 2, 67, 127
4, 29078, Note_on_c, 2, 67, 0
4, 29100, Note_on_c, 2, 70, 127
4, 29138, Note_on_c, 2, 70, 0
4, 29160, Note_on_c, 2, 58, 127
4, 29279, Note_on_c, 2, 58, 0
4, 29340, Note_on_c, 2, 80, 127
4, 29507, Note_on_c, 2, 80, 0
4, 29520, Note_on_c, 2, 79, 127
4, 29687, Note_on_c, 2, 79, 0
4, 29700, Note_on_c, 2, 77, 127
4, 29729, Note_on_c, 2, 77, 0
4, 29730, Note_on_c, 2, 80, 127
4, 29759, Note_on_c, 2, 80, 0
4, 29760, Note_on_c, 2, 79, 127
4, 29789, Note_on_c, 2, 79, 0
4, 29790, Note_on_c, 2, 77, 127
4, 29819, Note_on_c, 2, 77, 0
4, 29820, Note_on_c, 2, 75, 127
4, 29849, Note_on_c, 2, 75, 0
4, 29850, Note_on_c, 2, 74, 127
4, 29879, Note_on_c, 2, 74, 0
4, 29880, Note_on_c, 2, 75, 127
4, 29909, Note_on_c, 2, 75, 0
4, 29910, Note_on_c, 2, 82, 127
4, 29939, Note_on_c, 2, 82, 0
4, 29940, Note_on_c, 2, 82, 127
4, 29969, Note_on_c, 2, 82, 0
4, 29970, Note_on_c, 2, 79, 127
4, 29999, Note_on_c, 2, 79, 0
4, 30000, Note_on_c, 2, 80, 127
4, 30029, Note_on_c, 2, 80, 0
4, 30030, Note_on_c, 2, 77, 127
4, 30059, Note_on_c, 2, 77, 0
4, 30060, Note_on_c, 2, 79, 127
4, 30119, Note_on_c, 2, 79, 0
4, 30120, Note_on_c, 2, 79, 127
4, 30149, Note_on_c, 2, 79, 0
4, 30150, Note_on_c, 2, 75, 127
4, 30179, Note_on_c, 2, 75, 0
4, 30180, Note_on_c, 2, 77, 127
4, 30209, Note_on_c, 2, 77, 0
4, 30210, Note_on_c, 2, 74, 127
4, 30239, Note_on_c, 2, 74, 0
4, 30240, Note_on_c, 2, 75, 127
4, 30299, Note_on_c, 2, 75, 0
4, 30300, Note_on_c, 2, 67, 127
4, 30300, Note_on_c, 2, 75, 127
4, 30359, Note_on_c, 2, 67, 0
4, 30359, Note_on_c, 2, 75, 0
4, 30360, Note_on_c, 2, 75, 127
4, 30360, Note_on_c, 2, 67, 127
4, 30419, Note_on_c, 2, 75, 0
4, 30419, Note_on_c, 2, 67, 0
4, 30420, Note_on_c, 2, 75, 127
4, 30420, Note_on_c, 2, 67, 127
4, 30503, Note_on_c, 2, 75, 0
4, 30503, Note_on_c, 2, 67, 0
4, 30503, End_track
5, 0, Start_track
5, 0, MIDI_port, 0
5, 0, Title_t, "2nd Violin"
5, 0, Program_c, 3, 40
5, 181, Note_on_c, 3, 63, 114
5, 225, Note_on_c, 3, 63, 0
5, 241, Note_on_c, 3, 67, 114
5, 285, Note_on_c, 3, 67, 0
5, 301, Note_on_c, 3, 70, 114
5, 345, Note_on_c, 3, 70, 0
5, 361, Note_on_c, 3, 58, 114
5, 405, Note_on_c, 3, 58, 0
5, 421, Note_on_c, 3, 58, 114
5, 443, Note_on_c, 3, 58, 0
5, 451, Note_on_c, 3, 60, 114
5, 473, Note_on_c, 3, 60, 0
5, 481, Note_on_c, 3, 62, 114
5, 503, Note_on_c, 3, 62, 0
5, 511, Note_on_c, 3, 58, 114
5, 533, Note_on_c, 3, 58, 0
5, 541, Note_on_c, 3, 63, 114
5, 585, Note_on_c, 3, 63, 0
5, 601, Note_on_c, 3, 67, 114
5, 645, Note_on_c, 3, 67, 0
5, 661, Note_on_c, 3, 70, 114
5, 705, Note_on_c, 3, 70, 0
5, 721, Note_on_c, 3, 58, 114
5, 840, Note_on_c, 3, 58, 0
5, 901, Note_on_c, 3, 77, 114
5, 1068, Note_on_c, 3, 77, 0
5, 1081, Note_on_c, 3, 75, 114
5, 1248, Note_on_c, 3, 75, 0
5, 1261, Note_on_c, 3, 72, 114
5, 1380, Note_on_c, 3, 72, 0
5, 1381, Note_on_c, 3, 72, 114
5, 1440, Note_on_c, 3, 72, 0
5, 1441, Note_on_c, 3, 70, 114
5, 1500, Note_on_c, 3, 70, 0
5, 1501, Note_on_c, 3, 62, 114
5, 1560, Note_on_c, 3, 62, 0
5, 1561, Note_on_c, 3, 62, 114
5, 1601, Note_on_c, 3, 62, 0
5, 1621, Note_on_c, 3, 63, 114
5, 1665, Note_on_c, 3, 63, 0
5, 1681, Note_on_c, 3, 67, 114
5, 1725, Note_on_c, 3, 67, 0
5, 1741, Note_on_c, 3, 70, 114
5, 1785, Note_on_c, 3, 70, 0
5, 1801, Note_on_c, 3, 58, 114
5, 1845, Note_on_c, 3, 58, 0
5, 1861, Note_on_c, 3, 58, 114
5, 1883, Note_on_c, 3, 58, 0
5, 1891, Note_on_c, 3, 60, 114
5, 1913, Note_on_c, 3, 60, 0
5, 1921, Note_on_c, 3, 62, 114
5, 1943, Note_on_c, 3, 62, 0
5, 1951, Note_on_c, 3, 58, 114
5, 1973, Note_on_c, 3, 58, 0
5, 1981, Note_on_c, 3, 63, 114
5, 2025, Note_on_c, 3, 63, 0
5, 2041, Note_on_c, 3, 67, 114
5, 2085, Note_on_c, 3, 67, 0
5, 2101, Note_on_c, 3, 70, 114
5, 2145, Note_on_c, 3, 70, 0
5, 2161, Note_on_c, 3, 58, 114
5, 2280, Note_on_c, 3, 58, 0
5, 2341, Note_on_c, 3, 77, 114
5, 2508, Note_on_c, 3, 77, 0
5, 2521, Note_on_c, 3, 75, 114
5, 2688, Note_on_c, 3, 75, 0
5, 2701, Note_on_c, 3, 72, 114
5, 2760, Note_on_c, 3, 72, 0
5, 2761, Note_on_c, 3, 70, 114
5, 2790, Note_on_c, 3, 70, 0
5, 2791, Note_on_c, 3, 68, 114
5, 2820, Note_on_c, 3, 68, 0
5, 2821, Note_on_c, 3, 67, 114
5, 2850, Note_on_c, 3, 67, 0
5, 2851, Note_on_c, 3, 65, 114
5, 2880, Note_on_c, 3, 65, 0
5, 2881, Note_on_c, 3, 67, 114
5, 2958, Note_on_c, 3, 67, 0
5, 3061, Note_on_c, 3, 63, 114
5, 3105, Note_on_c, 3, 63, 0
5, 3121, Note_on_c, 3, 67, 114
5, 3165, Note_on_c, 3, 67, 0
5, 3181, Note_on_c, 3, 70, 114
5, 3225, Note_on_c, 3, 70, 0
5, 3241, Note_on_c, 3, 58, 114
5, 3285, Note_on_c, 3, 58, 0
5, 3301, Note_on_c, 3, 58, 114
5, 3323, Note_on_c, 3, 58, 0
5, 3331, Note_on_c, 3, 60, 114
5, 3353, Note_on_c, 3, 60, 0
5, 3361, Note_on_c, 3, 62, 114
5, 3383, Note_on_c, 3, 62, 0
5, 3391, Note_on_c, 3, 58, 114
5, 3413, Note_on_c, 3, 58, 0
5, 3421, Note_on_c, 3, 63, 114
5, 3465, Note_on_c, 3, 63, 0
5, 3481, Note_on_c, 3, 67, 114
5, 3525, Note_on_c, 3, 67, 0
5, 3541, Note_on_c, 3, 70, 114
5, 3585, Note_on_c, 3, 70, 0
5, 3601, Note_on_c, 3, 58, 114
5, 3720, Note_on_c, 3, 58, 0
5, 3781, Note_on_c, 3, 77, 114
5, 3948, Note_on_c, 3, 77, 0
5, 3961, Note_on_c, 3, 75, 114
5, 4128, Note_on_c, 3, 75, 0
5, 4141, Note_on_c, 3, 72, 114
5, 4260, Note_on_c, 3, 72, 0
5, 4261, Note_on_c, 3, 72, 114
5, 4320, Note_on_c, 3, 72, 0
5, 4321, Note_on_c, 3, 70, 114
5, 4380, Note_on_c, 3, 70, 0
5, 4381, Note_on_c, 3, 62, 114
5, 4440, Note_on_c, 3, 62, 0
5, 4441, Note_on_c, 3, 62, 114
5, 4481, Note_on_c, 3, 62, 0
5, 4501, Note_on_c, 3, 63, 114
5, 4545, Note_on_c, 3, 63, 0
5, 4561, Note_on_c, 3, 67, 114
5, 4605, Note_on_c, 3, 67, 0
5, 4621, Note_on_c, 3, 70, 114
5, 4665, Note_on_c, 3, 70, 0
5, 4681, Note_on_c, 3, 58, 114
5, 4725, Note_on_c, 3, 58, 0
5, 4741, Note_on_c, 3, 58, 114
5, 4763, Note_on_c, 3, 58, 0
5, 4771, Note_on_c, 3, 60, 114
5, 4793, Note_on_c, 3, 60, 0
5, 4801, Note_on_c, 3, 62, 114
5, 4823, Note_on_c, 3, 62, 0
5, 4831, Note_on_c, 3, 58, 114
5, 4853, Note_on_c, 3, 58, 0
5, 4861, Note_on_c, 3, 63, 114
5, 4905, Note_on_c, 3, 63, 0
5, 4921, Note_on_c, 3, 67, 114
5, 4965, Note_on_c, 3, 67, 0
5, 4981, Note_on_c, 3, 70, 114
5, 5025, Note_on_c, 3, 70, 0
5, 5041, Note_on_c, 3, 58, 114
5, 5160, Note_on_c, 3, 58, 0
5, 5221, Note_on_c, 3, 77, 114
5, 5388, Note_on_c, 3, 77, 0
5, 5401, Note_on_c, 3, 75, 114
5, 5568, Note_on_c, 3, 75, 0
5, 5581, Note_on_c, 3, 72, 114
5, 5640, Note_on_c, 3, 72, 0
5, 5641, Note_on_c, 3, 70, 114
5, 5670, Note_on_c, 3, 70, 0
5, 5671, Note_on_c, 3, 68, 114
5, 5700, Note_on_c, 3, 68, 0
5, 5701, Note_on_c, 3, 67, 114
5, 5730, Note_on_c, 3, 67, 0
5, 5731, Note_on_c, 3, 65, 114
5, 5760, Note_on_c, 3, 65, 0
5, 5761, Note_on_c, 3, 67, 114
5, 5838, Note_on_c, 3, 67, 0
5, 5941, Note_on_c, 3, 63, 114
5, 5970, Note_on_c, 3, 63, 0
5, 5971, Note_on_c, 3, 62, 114
5, 6000, Note_on_c, 3, 62, 0
5, 6001, Note_on_c, 3, 63, 114
5, 6030, Note_on_c, 3, 63, 0
5, 6031, Note_on_c, 3, 65, 114
5, 6060, Note_on_c, 3, 65, 0
5, 6061, Note_on_c, 3, 67, 114
5, 6090, Note_on_c, 3, 67, 0
5, 6091, Note_on_c, 3, 63, 114
5, 6120, Note_on_c, 3, 63, 0
5, 6121, Note_on_c, 3, 70, 114
5, 6150, Note_on_c, 3, 70, 0
5, 6151, Note_on_c, 3, 69, 114
5, 6180, Note_on_c, 3, 69, 0
5, 6181, Note_on_c, 3, 70, 114
5, 6210, Note_on_c, 3, 70, 0
5, 6211, Note_on_c, 3, 72, 114
5, 6240, Note_on_c, 3, 72, 0
5, 6241, Note_on_c, 3, 74, 114
5, 6270, Note_on_c, 3, 74, 0
5, 6271, Note_on_c, 3, 70, 114
5, 6300, Note_on_c, 3, 70, 0
5, 6301, Note_on_c, 3, 65, 114
5, 6330, Note_on_c, 3, 65, 0
5, 6331, Note_on_c, 3, 64, 114
5, 6360, Note_on_c, 3, 64, 0
5, 6361, Note_on_c, 3, 65, 114
5, 6390, Note_on_c, 3, 65, 0
5, 6391, Note_on_c, 3, 67, 114
5, 6420, Note_on_c, 3, 67, 0
5, 6421, Note_on_c, 3, 69, 114
5, 6450, Note_on_c, 3, 69, 0
5, 6451, Note_on_c, 3, 65, 114
5, 6480, Note_on_c, 3, 65, 0
5, 6481, Note_on_c, 3, 70, 114
5, 6510, Note_on_c, 3, 70, 0
5, 6511, Note_on_c, 3, 65, 114
5, 6540, Note_on_c, 3, 65, 0
5, 6541, Note_on_c, 3, 63, 114
5, 6570, Note_on_c, 3, 63, 0
5, 6571, Note_on_c, 3, 62, 114
5, 6600, Note_on_c, 3, 62, 0
5, 6601, Note_on_c, 3, 60, 114
5, 6630, Note_on_c, 3, 60, 0
5, 6631, Note_on_c, 3, 58, 114
5, 6660, Note_on_c, 3, 58, 0
5, 6661, Note_on_c, 3, 76, 114
5, 6720, Note_on_c, 3, 76, 0
5, 6721, Note_on_c, 3, 77, 114
5, 6780, Note_on_c, 3, 77, 0
5, 6781, Note_on_c, 3, 75, 114
5, 6840, Note_on_c, 3, 75, 0
5, 6841, Note_on_c, 3, 73, 114
5, 6900, Note_on_c, 3, 73, 0
5, 6901, Note_on_c, 3, 74, 114
5, 6960, Note_on_c, 3, 74, 0
5, 6961, Note_on_c, 3, 69, 114
5, 7020, Note_on_c, 3, 69, 0
5, 7021, Note_on_c, 3, 70, 114
5, 7080, Note_on_c, 3, 70, 0
5, 7081, Note_on_c, 3, 66, 114
5, 7140, Note_on_c, 3, 66, 0
5, 7141, Note_on_c, 3, 64, 114
5, 7200, Note_on_c, 3, 64, 0
5, 7201, Note_on_c, 3, 65, 114
5, 7230, Note_on_c, 3, 65, 0
5, 7231, Note_on_c, 3, 67, 114
5, 7245, Note_on_c, 3, 67, 0
5, 7246, Note_on_c, 3, 69, 114
5, 7260, Note_on_c, 3, 69, 0
5, 7261, Note_on_c, 3, 70, 114
5, 7275, Note_on_c, 3, 70, 0
5, 7276, Note_on_c, 3, 72, 114
5, 7290, Note_on_c, 3, 72, 0
5, 7291, Note_on_c, 3, 74, 114
5, 7305, Note_on_c, 3, 74, 0
5, 7306, Note_on_c, 3, 76, 114
5, 7320, Note_on_c, 3, 76, 0
5, 7321, Note_on_c, 3, 77, 114
5, 7380, Note_on_c, 3, 77, 0
5, 7381, Note_on_c, 3, 76, 114
5, 7440, Note_on_c, 3, 76, 0
5, 7441, Note_on_c, 3, 77, 114
5, 7500, Note_on_c, 3, 77, 0
5, 7501, Note_on_c, 3, 75, 114
5, 7560, Note_on_c, 3, 75, 0
5, 7561, Note_on_c, 3, 73, 114
5, 7620, Note_on_c, 3, 73, 0
5, 7621, Note_on_c, 3, 74, 114
5, 7680, Note_on_c, 3, 74, 0
5, 7681, Note_on_c, 3, 69, 114
5, 7740, Note_on_c, 3, 69, 0
5, 7741, Note_on_c, 3, 70, 114
5, 7800, Note_on_c, 3, 70, 0
5, 7801, Note_on_c, 3, 66, 114
5, 7860, Note_on_c, 3, 66, 0
5, 7861, Note_on_c, 3, 64, 114
5, 7920, Note_on_c, 3, 64, 0
5, 7921, Note_on_c, 3, 65, 114
5, 8040, Note_on_c, 3, 65, 0
5, 8041, Note_on_c, 3, 72, 68
5, 8070, Note_on_c, 3, 72, 0
5, 8071, Note_on_c, 3, 75, 68
5, 8100, Note_on_c, 3, 75, 0
5, 8101, Note_on_c, 3, 70, 68
5, 8130, Note_on_c, 3, 70, 0
5, 8131, Note_on_c, 3, 74, 68
5, 8160, Note_on_c, 3, 74, 0
5, 8161, Note_on_c, 3, 69, 68
5, 8190, Note_on_c, 3, 69, 0
5, 8191, Note_on_c, 3, 72, 68
5, 8220, Note_on_c, 3, 72, 0
5, 8221, Note_on_c, 3, 67, 68
5, 8250, Note_on_c, 3, 67, 0
5, 8251, Note_on_c, 3, 70, 68
5, 8280, Note_on_c, 3, 70, 0
5, 8281, Note_on_c, 3, 65, 68
5, 8310, Note_on_c, 3, 65, 0
5, 8311, Note_on_c, 3, 69, 68
5, 8340, Note_on_c, 3, 69, 0
5, 8341, Note_on_c, 3, 63, 68
5, 8370, Note_on_c, 3, 63, 0
5, 8371, Note_on_c, 3, 67, 68
5, 8400, Note_on_c, 3, 67, 0
5, 8401, Note_on_c, 3, 62, 68
5, 8430, Note_on_c, 3, 62, 0
5, 8431, Note_on_c, 3, 65, 68
5, 8460, Note_on_c, 3, 65, 0
5, 8461, Note_on_c, 3, 60, 68
5, 8490, Note_on_c, 3, 60, 0
5, 8491, Note_on_c, 3, 63, 68
5, 8520, Note_on_c, 3, 63, 0
5, 8521, Note_on_c, 3, 57, 68
5, 8550, Note_on_c, 3, 57, 0
5, 8551, Note_on_c, 3, 60, 68
5, 8580, Note_on_c, 3, 60, 0
5, 8581, Note_on_c, 3, 58, 68
5, 8610, Note_on_c, 3, 58, 0
5, 8611, Note_on_c, 3, 62, 68
5, 8640, Note_on_c, 3, 62, 0
5, 8641, Note_on_c, 3, 60, 114
5, 8760, Note_on_c, 3, 60, 0
5, 8761, Note_on_c, 3, 72, 68
5, 8790, Note_on_c, 3, 72, 0
5, 8791, Note_on_c, 3, 75, 68
5, 8820, Note_on_c, 3, 75, 0
5, 8821, Note_on_c, 3, 70, 68
5, 8850, Note_on_c, 3, 70, 0
5, 8851, Note_on_c, 3, 74, 68
5, 8880, Note_on_c, 3, 74, 0
5, 8881, Note_on_c, 3, 69, 68
5, 8910, Note_on_c, 3, 69, 0
5, 8911, Note_on_c, 3, 72, 68
5, 8940, Note_on_c, 3, 72, 0
5, 8941, Note_on_c, 3, 67, 68
5, 8970, Note_on_c, 3, 67, 0
5, 8971, Note_on_c, 3, 70, 68
5, 9000, Note_on_c, 3, 70, 0
5, 9001, Note_on_c, 3, 65, 68
5, 9030, Note_on_c, 3, 65, 0
5, 9031, Note_on_c, 3, 69, 68
5, 9060, Note_on_c, 3, 69, 0
5, 9061, Note_on_c, 3, 63, 68
5, 9090, Note_on_c, 3, 63, 0
5, 9091, Note_on_c, 3, 67, 68
5, 9120, Note_on_c, 3, 67, 0
5, 9121, Note_on_c, 3, 62, 68
5, 9150, Note_on_c, 3, 62, 0
5, 9151, Note_on_c, 3, 65, 68
5, 9180, Note_on_c, 3, 65, 0
5, 9181, Note_on_c, 3, 60, 68
5, 9210, Note_on_c, 3, 60, 0
5, 9211, Note_on_c, 3, 63, 68
5, 9240, Note_on_c, 3, 63, 0
5, 9241, Note_on_c, 3, 57, 68
5, 9270, Note_on_c, 3, 57, 0
5, 9271, Note_on_c, 3, 60, 68
5, 9300, Note_on_c, 3, 60, 0
5, 9301, Note_on_c, 3, 58, 68
5, 9330, Note_on_c, 3, 58, 0
5, 9331, Note_on_c, 3, 62, 68
5, 9360, Note_on_c, 3, 62, 0
5, 9361, Note_on_c, 3, 60, 113
5, 9420, Note_on_c, 3, 60, 0
5, 9421, Note_on_c, 3, 75, 114
5, 9480, Note_on_c, 3, 75, 0
5, 9481, Note_on_c, 3, 72, 114
5, 9540, Note_on_c, 3, 72, 0
5, 9541, Note_on_c, 3, 70, 114
5, 9660, Note_on_c, 3, 70, 0
5, 9661, Note_on_c, 3, 70, 114
5, 9720, Note_on_c, 3, 70, 0
5, 9721, Note_on_c, 3, 70, 114
5, 9840, Note_on_c, 3, 70, 0
5, 9841, Note_on_c, 3, 70, 114
5, 9900, Note_on_c, 3, 70, 0
5, 9901, Note_on_c, 3, 70, 114
5, 10020, Note_on_c, 3, 70, 0
5, 10021, Note_on_c, 3, 70, 114
5, 10080, Note_on_c, 3, 70, 0
5, 10081, Note_on_c, 3, 70, 114
5, 10200, Note_on_c, 3, 70, 0
5, 10201, Note_on_c, 3, 70, 114
5, 10260, Note_on_c, 3, 70, 0
5, 10261, Note_on_c, 3, 65, 114
5, 10380, Note_on_c, 3, 65, 0
5, 10381, Note_on_c, 3, 65, 114
5, 10440, Note_on_c, 3, 65, 0
5, 10441, Note_on_c, 3, 65, 114
5, 10560, Note_on_c, 3, 65, 0
5, 10561, Note_on_c, 3, 65, 114
5, 10620, Note_on_c, 3, 65, 0
5, 10621, Note_on_c, 3, 65, 114
5, 10740, Note_on_c, 3, 65, 0
5, 10741, Note_on_c, 3, 65, 114
5, 10800, Note_on_c, 3, 65, 0
5, 10801, Note_on_c, 3, 65, 114
5, 10920, Note_on_c, 3, 65, 0
5, 10921, Note_on_c, 3, 65, 114
5, 10980, Note_on_c, 3, 65, 0
5, 10981, Note_on_c, 3, 67, 92
5, 11010, Note_on_c, 3, 67, 0
5, 11011, Note_on_c, 3, 67, 92
5, 11040, Note_on_c, 3, 67, 0
5, 11041, Note_on_c, 3, 65, 92
5, 11070, Note_on_c, 3, 65, 0
5, 11071, Note_on_c, 3, 63, 92
5, 11100, Note_on_c, 3, 63, 0
5, 11101, Note_on_c, 3, 62, 92
5, 11130, Note_on_c, 3, 62, 0
5, 11131, Note_on_c, 3, 60, 92
5, 11160, Note_on_c, 3, 60, 0
5, 11161, Note_on_c, 3, 62, 92
5, 11220, Note_on_c, 3, 62, 0
5, 11221, Note_on_c, 3, 77, 92
5, 11280, Note_on_c, 3, 77, 0
5, 11281, Note_on_c, 3, 74, 92
5, 11340, Note_on_c, 3, 74, 0
5, 11341, Note_on_c, 3, 58, 114
5, 11400, Note_on_c, 3, 58, 0
5, 11401, Note_on_c, 3, 58, 63
5, 11460, Note_on_c, 3, 58, 0
5, 11461, Note_on_c, 3, 58, 63
5, 11520, Note_on_c, 3, 58, 0
5, 11521, Note_on_c, 3, 58, 114
5, 11580, Note_on_c, 3, 58, 0
5, 11581, Note_on_c, 3, 58, 63
5, 11640, Note_on_c, 3, 58, 0
5, 11641, Note_on_c, 3, 58, 63
5, 11700, Note_on_c, 3, 58, 0
5, 11701, Note_on_c, 3, 58, 114
5, 11760, Note_on_c, 3, 58, 0
5, 11761, Note_on_c, 3, 58, 63
5, 11820, Note_on_c, 3, 58, 0
5, 11821, Note_on_c, 3, 58, 63
5, 11880, Note_on_c, 3, 58, 0
5, 11881, Note_on_c, 3, 58, 114
5, 11940, Note_on_c, 3, 58, 0
5, 11941, Note_on_c, 3, 58, 63
5, 12000, Note_on_c, 3, 58, 0
5, 12001, Note_on_c, 3, 58, 63
5, 12060, Note_on_c, 3, 58, 0
5, 12061, Note_on_c, 3, 65, 114
5, 12120, Note_on_c, 3, 65, 0
5, 12121, Note_on_c, 3, 65, 63
5, 12180, Note_on_c, 3, 65, 0
5, 12181, Note_on_c, 3, 65, 63
5, 12240, Note_on_c, 3, 65, 0
5, 12241, Note_on_c, 3, 65, 114
5, 12300, Note_on_c, 3, 65, 0
5, 12301, Note_on_c, 3, 65, 63
5, 12360, Note_on_c, 3, 65, 0
5, 12361, Note_on_c, 3, 65, 63
5, 12420, Note_on_c, 3, 65, 0
5, 12421, Note_on_c, 3, 65, 114
5, 12480, Note_on_c, 3, 65, 0
5, 12481, Note_on_c, 3, 65, 63
5, 12540, Note_on_c, 3, 65, 0
5, 12541, Note_on_c, 3, 65, 63
5, 12600, Note_on_c, 3, 65, 0
5, 12601, Note_on_c, 3, 65, 114
5, 12660, Note_on_c, 3, 65, 0
5, 12661, Note_on_c, 3, 65, 63
5, 12720, Note_on_c, 3, 65, 0
5, 12721, Note_on_c, 3, 65, 80
5, 12780, Note_on_c, 3, 65, 0
5, 12961, Note_on_c, 3, 82, 68
5, 12990, Note_on_c, 3, 82, 0
5, 12991, Note_on_c, 3, 77, 68
5, 13020, Note_on_c, 3, 77, 0
5, 13021, Note_on_c, 3, 75, 68
5, 13050, Note_on_c, 3, 75, 0
5, 13051, Note_on_c, 3, 74, 68
5, 13080, Note_on_c, 3, 74, 0
5, 13081, Note_on_c, 3, 72, 68
5, 13110, Note_on_c, 3, 72, 0
5, 13111, Note_on_c, 3, 70, 68
5, 13140, Note_on_c, 3, 70, 0
5, 13141, Note_on_c, 3, 70, 97
5, 13170, Note_on_c, 3, 70, 0
5, 13171, Note_on_c, 3, 67, 97
5, 13200, Note_on_c, 3, 67, 0
5, 13201, Note_on_c, 3, 65, 97
5, 13230, Note_on_c, 3, 65, 0
5, 13231, Note_on_c, 3, 63, 97
5, 13260, Note_on_c, 3, 63, 0
5, 13261, Note_on_c, 3, 62, 97
5, 13290, Note_on_c, 3, 62, 0
5, 13291, Note_on_c, 3, 60, 97
5, 13320, Note_on_c, 3, 60, 0
5, 13321, Note_on_c, 3, 62, 97
5, 13380, Note_on_c, 3, 62, 0
5, 13381, Note_on_c, 3, 74, 97
5, 13410, Note_on_c, 3, 74, 0
5, 13411, Note_on_c, 3, 70, 97
5, 13440, Note_on_c, 3, 70, 0
5, 13441, Note_on_c, 3, 72, 97
5, 13470, Note_on_c, 3, 72, 0
5, 13471, Note_on_c, 3, 69, 97
5, 13500, Note_on_c, 3, 69, 0
5, 13501, Note_on_c, 3, 70, 97
5, 13560, Note_on_c, 3, 70, 0
5, 13561, Note_on_c, 3, 74, 97
5, 13590, Note_on_c, 3, 74, 0
5, 13591, Note_on_c, 3, 70, 97
5, 13620, Note_on_c, 3, 70, 0
5, 13621, Note_on_c, 3, 72, 97
5, 13650, Note_on_c, 3, 72, 0
5, 13651, Note_on_c, 3, 69, 97
5, 13680, Note_on_c, 3, 69, 0
5, 13681, Note_on_c, 3, 70, 97
5, 13681, Note_on_c, 3, 62, 97
5, 13740, Note_on_c, 3, 70, 0
5, 13740, Note_on_c, 3, 62, 0
5, 13741, Note_on_c, 3, 70, 97
5, 13741, Note_on_c, 3, 62, 97
5, 13800, Note_on_c, 3, 70, 0
5, 13800, Note_on_c, 3, 62, 0
5, 13801, Note_on_c, 3, 62, 97
5, 13801, Note_on_c, 3, 70, 97
5, 13860, Note_on_c, 3, 62, 0
5, 13860, Note_on_c, 3, 70, 0
5, 13861, Note_on_c, 3, 70, 97
5, 13861, Note_on_c, 3, 62, 97
5, 13980, Note_on_c, 3, 70, 0
5, 13980, Note_on_c, 3, 62, 0
5, 14041, Note_on_c, 3, 63, 114
5, 14079, Note_on_c, 3, 63, 0
5, 14101, Note_on_c, 3, 67, 114
5, 14139, Note_on_c, 3, 67, 0
5, 14161, Note_on_c, 3, 70, 114
5, 14199, Note_on_c, 3, 70, 0
5, 14221, Note_on_c, 3, 58, 114
5, 14259, Note_on_c, 3, 58, 0
5, 14281, Note_on_c, 3, 58, 114
5, 14300, Note_on_c, 3, 58, 0
5, 14311, Note_on_c, 3, 60, 114
5, 14330, Note_on_c, 3, 60, 0
5, 14341, Note_on_c, 3, 62, 114
5, 14360, Note_on_c, 3, 62, 0
5, 14371, Note_on_c, 3, 58, 114
5, 14390, Note_on_c, 3, 58, 0
5, 14401, Note_on_c, 3, 63, 114
5, 14439, Note_on_c, 3, 63, 0
5, 14461, Note_on_c, 3, 67, 114
5, 14499, Note_on_c, 3, 67, 0
5, 14521, Note_on_c, 3, 70, 114
5, 14559, Note_on_c, 3, 70, 0
5, 14581, Note_on_c, 3, 58, 114
5, 14700, Note_on_c, 3, 58, 0
5, 14761, Note_on_c, 3, 77, 114
5, 14928, Note_on_c, 3, 77, 0
5, 14941, Note_on_c, 3, 75, 114
5, 15108, Note_on_c, 3, 75, 0
5, 15121, Note_on_c, 3, 72, 114
5, 15240, Note_on_c, 3, 72, 0
5, 15241, Note_on_c, 3, 72, 114
5, 15300, Note_on_c, 3, 72, 0
5, 15301, Note_on_c, 3, 70, 114
5, 15360, Note_on_c, 3, 70, 0
5, 15361, Note_on_c, 3, 62, 114
5, 15420, Note_on_c, 3, 62, 0
5, 15421, Note_on_c, 3, 62, 114
5, 15461, Note_on_c, 3, 62, 0
5, 15481, Note_on_c, 3, 63, 114
5, 15519, Note_on_c, 3, 63, 0
5, 15541, Note_on_c, 3, 67, 114
5, 15579, Note_on_c, 3, 67, 0
5, 15601, Note_on_c, 3, 70, 114
5, 15639, Note_on_c, 3, 70, 0
5, 15661, Note_on_c, 3, 58, 114
5, 15699, Note_on_c, 3, 58, 0
5, 15721, Note_on_c, 3, 58, 114
5, 15740, Note_on_c, 3, 58, 0
5, 15751, Note_on_c, 3, 60, 114
5, 15770, Note_on_c, 3, 60, 0
5, 15781, Note_on_c, 3, 62, 114
5, 15800, Note_on_c, 3, 62, 0
5, 15811, Note_on_c, 3, 58, 114
5, 15830, Note_on_c, 3, 58, 0
5, 15841, Note_on_c, 3, 63, 114
5, 15879, Note_on_c, 3, 63, 0
5, 15901, Note_on_c, 3, 67, 114
5, 15939, Note_on_c, 3, 67, 0
5, 15961, Note_on_c, 3, 70, 114
5, 15999, Note_on_c, 3, 70, 0
5, 16021, Note_on_c, 3, 58, 114
5, 16140, Note_on_c, 3, 58, 0
5, 16201, Note_on_c, 3, 77, 114
5, 16368, Note_on_c, 3, 77, 0
5, 16381, Note_on_c, 3, 75, 114
5, 16548, Note_on_c, 3, 75, 0
5, 16561, Note_on_c, 3, 72, 114
5, 16620, Note_on_c, 3, 72, 0
5, 16621, Note_on_c, 3, 70, 114
5, 16650, Note_on_c, 3, 70, 0
5, 16651, Note_on_c, 3, 68, 114
5, 16680, Note_on_c, 3, 68, 0
5, 16681, Note_on_c, 3, 67, 114
5, 16710, Note_on_c, 3, 67, 0
5, 16711, Note_on_c, 3, 65, 114
5, 16740, Note_on_c, 3, 65, 0
5, 16741, Note_on_c, 3, 67, 114
5, 16818, Note_on_c, 3, 67, 0
5, 16921, Note_on_c, 3, 63, 114
5, 16950, Note_on_c, 3, 63, 0
5, 16951, Note_on_c, 3, 62, 114
5, 16980, Note_on_c, 3, 62, 0
5, 16981, Note_on_c, 3, 63, 114
5, 17010, Note_on_c, 3, 63, 0
5, 17011, Note_on_c, 3, 65, 114
5, 17040, Note_on_c, 3, 65, 0
5, 17041, Note_on_c, 3, 67, 114
5, 17070, Note_on_c, 3, 67, 0
5, 17071, Note_on_c, 3, 63, 114
5, 17100, Note_on_c, 3, 63, 0
5, 17101, Note_on_c, 3, 70, 114
5, 17130, Note_on_c, 3, 70, 0
5, 17131, Note_on_c, 3, 69, 114
5, 17160, Note_on_c, 3, 69, 0
5, 17161, Note_on_c, 3, 70, 114
5, 17190, Note_on_c, 3, 70, 0
5, 17191, Note_on_c, 3, 72, 114
5, 17220, Note_on_c, 3, 72, 0
5, 17221, Note_on_c, 3, 74, 114
5, 17250, Note_on_c, 3, 74, 0
5, 17251, Note_on_c, 3, 70, 114
5, 17280, Note_on_c, 3, 70, 0
5, 17281, Note_on_c, 3, 65, 114
5, 17310, Note_on_c, 3, 65, 0
5, 17311, Note_on_c, 3, 64, 114
5, 17340, Note_on_c, 3, 64, 0
5, 17341, Note_on_c, 3, 65, 114
5, 17370, Note_on_c, 3, 65, 0
5, 17371, Note_on_c, 3, 67, 114
5, 17400, Note_on_c, 3, 67, 0
5, 17401, Note_on_c, 3, 69, 114
5, 17430, Note_on_c, 3, 69, 0
5, 17431, Note_on_c, 3, 65, 114
5, 17460, Note_on_c, 3, 65, 0
5, 17461, Note_on_c, 3, 70, 114
5, 17490, Note_on_c, 3, 70, 0
5, 17491, Note_on_c, 3, 65, 114
5, 17520, Note_on_c, 3, 65, 0
5, 17521, Note_on_c, 3, 63, 114
5, 17550, Note_on_c, 3, 63, 0
5, 17551, Note_on_c, 3, 62, 114
5, 17580, Note_on_c, 3, 62, 0
5, 17581, Note_on_c, 3, 60, 114
5, 17610, Note_on_c, 3, 60, 0
5, 17611, Note_on_c, 3, 58, 114
5, 17640, Note_on_c, 3, 58, 0
5, 17641, Note_on_c, 3, 76, 114
5, 17700, Note_on_c, 3, 76, 0
5, 17701, Note_on_c, 3, 77, 114
5, 17760, Note_on_c, 3, 77, 0
5, 17761, Note_on_c, 3, 75, 114
5, 17820, Note_on_c, 3, 75, 0
5, 17821, Note_on_c, 3, 73, 114
5, 17880, Note_on_c, 3, 73, 0
5, 17881, Note_on_c, 3, 74, 114
5, 17940, Note_on_c, 3, 74, 0
5, 17941, Note_on_c, 3, 69, 114
5, 18000, Note_on_c, 3, 69, 0
5, 18001, Note_on_c, 3, 70, 114
5, 18060, Note_on_c, 3, 70, 0
5, 18061, Note_on_c, 3, 66, 114
5, 18120, Note_on_c, 3, 66, 0
5, 18121, Note_on_c, 3, 64, 114
5, 18180, Note_on_c, 3, 64, 0
5, 18181, Note_on_c, 3, 65, 114
5, 18210, Note_on_c, 3, 65, 0
5, 18211, Note_on_c, 3, 67, 114
5, 18225, Note_on_c, 3, 67, 0
5, 18226, Note_on_c, 3, 69, 114
5, 18240, Note_on_c, 3, 69, 0
5, 18241, Note_on_c, 3, 70, 114
5, 18255, Note_on_c, 3, 70, 0
5, 18256, Note_on_c, 3, 72, 114
5, 18270, Note_on_c, 3, 72, 0
5, 18271, Note_on_c, 3, 74, 114
5, 18285, Note_on_c, 3, 74, 0
5, 18286, Note_on_c, 3, 76, 114
5, 18300, Note_on_c, 3, 76, 0
5, 18301, Note_on_c, 3, 77, 114
5, 18360, Note_on_c, 3, 77, 0
5, 18361, Note_on_c, 3, 76, 114
5, 18420, Note_on_c, 3, 76, 0
5, 18421, Note_on_c, 3, 77, 114
5, 18480, Note_on_c, 3, 77, 0
5, 18481, Note_on_c, 3, 75, 114
5, 18540, Note_on_c, 3, 75, 0
5, 18541, Note_on_c, 3, 73, 114
5, 18600, Note_on_c, 3, 73, 0
5, 18601, Note_on_c, 3, 74, 114
5, 18660, Note_on_c, 3, 74, 0
5, 18661, Note_on_c, 3, 69, 114
5, 18720, Note_on_c, 3, 69, 0
5, 18721, Note_on_c, 3, 70, 114
5, 18780, Note_on_c, 3, 70, 0
5, 18781, Note_on_c, 3, 66, 114
5, 18840, Note_on_c, 3, 66, 0
5, 18841, Note_on_c, 3, 64, 114
5, 18900, Note_on_c, 3, 64, 0
5, 18901, Note_on_c, 3, 65, 114
5, 19020, Note_on_c, 3, 65, 0
5, 19021, Note_on_c, 3, 72, 68
5, 19050, Note_on_c, 3, 72, 0
5, 19051, Note_on_c, 3, 75, 68
5, 19080, Note_on_c, 3, 75, 0
5, 19081, Note_on_c, 3, 70, 68
5, 19110, Note_on_c, 3, 70, 0
5, 19111, Note_on_c, 3, 74, 68
5, 19140, Note_on_c, 3, 74, 0
5, 19141, Note_on_c, 3, 69, 68
5, 19170, Note_on_c, 3, 69, 0
5, 19171, Note_on_c, 3, 72, 68
5, 19200, Note_on_c, 3, 72, 0
5, 19201, Note_on_c, 3, 67, 68
5, 19230, Note_on_c, 3, 67, 0
5, 19231, Note_on_c, 3, 70, 68
5, 19260, Note_on_c, 3, 70, 0
5, 19261, Note_on_c, 3, 65, 68
5, 19290, Note_on_c, 3, 65, 0
5, 19291, Note_on_c, 3, 69, 68
5, 19320, Note_on_c, 3, 69, 0
5, 19321, Note_on_c, 3, 63, 68
5, 19350, Note_on_c, 3, 63, 0
5, 19351, Note_on_c, 3, 67, 68
5, 19380, Note_on_c, 3, 67, 0
5, 19381, Note_on_c, 3, 62, 68
5, 19410, Note_on_c, 3, 62, 0
5, 19411, Note_on_c, 3, 65, 68
5, 19440, Note_on_c, 3, 65, 0
5, 19441, Note_on_c, 3, 60, 68
5, 19470, Note_on_c, 3, 60, 0
5, 19471, Note_on_c, 3, 63, 68
5, 19500, Note_on_c, 3, 63, 0
5, 19501, Note_on_c, 3, 57, 68
5, 19530, Note_on_c, 3, 57, 0
5, 19531, Note_on_c, 3, 60, 68
5, 19560, Note_on_c, 3, 60, 0
5, 19561, Note_on_c, 3, 58, 68
5, 19590, Note_on_c, 3, 58, 0
5, 19591, Note_on_c, 3, 62, 68
5, 19620, Note_on_c, 3, 62, 0
5, 19621, Note_on_c, 3, 60, 114
5, 19740, Note_on_c, 3, 60, 0
5, 19741, Note_on_c, 3, 72, 68
5, 19770, Note_on_c, 3, 72, 0
5, 19771, Note_on_c, 3, 75, 68
5, 19800, Note_on_c, 3, 75, 0
5, 19801, Note_on_c, 3, 70, 68
5, 19830, Note_on_c, 3, 70, 0
5, 19831, Note_on_c, 3, 74, 68
5, 19860, Note_on_c, 3, 74, 0
5, 19861, Note_on_c, 3, 69, 68
5, 19890, Note_on_c, 3, 69, 0
5, 19891, Note_on_c, 3, 72, 68
5, 19920, Note_on_c, 3, 72, 0
5, 19921, Note_on_c, 3, 67, 68
5, 19950, Note_on_c, 3, 67, 0
5, 19951, Note_on_c, 3, 70, 68
5, 19980, Note_on_c, 3, 70, 0
5, 19981, Note_on_c, 3, 65, 68
5, 20010, Note_on_c, 3, 65, 0
5, 20011, Note_on_c, 3, 69, 68
5, 20040, Note_on_c, 3, 69, 0
5, 20041, Note_on_c, 3, 63, 68
5, 20070, Note_on_c, 3, 63, 0
5, 20071, Note_on_c, 3, 67, 68
5, 20100, Note_on_c, 3, 67, 0
5, 20101, Note_on_c, 3, 62, 68
5, 20130, Note_on_c, 3, 62, 0
5, 20131, Note_on_c, 3, 65, 68
5, 20160, Note_on_c, 3, 65, 0
5, 20161, Note_on_c, 3, 60, 68
5, 20190, Note_on_c, 3, 60, 0
5, 20191, Note_on_c, 3, 63, 68
5, 20220, Note_on_c, 3, 63, 0
5, 20221, Note_on_c, 3, 57, 68
5, 20250, Note_on_c, 3, 57, 0
5, 20251, Note_on_c, 3, 60, 68
5, 20280, Note_on_c, 3, 60, 0
5, 20281, Note_on_c, 3, 58, 68
5, 20310, Note_on_c, 3, 58, 0
5, 20311, Note_on_c, 3, 62, 68
5, 20340, Note_on_c, 3, 62, 0
5, 20341, Note_on_c, 3, 60, 113
5, 20400, Note_on_c, 3, 60, 0
5, 20401, Note_on_c, 3, 75, 114
5, 20460, Note_on_c, 3, 75, 0
5, 20461, Note_on_c, 3, 72, 114
5, 20520, Note_on_c, 3, 72, 0
5, 20521, Note_on_c, 3, 70, 114
5, 20640, Note_on_c, 3, 70, 0
5, 20641, Note_on_c, 3, 70, 114
5, 20700, Note_on_c, 3, 70, 0
5, 20701, Note_on_c, 3, 70, 114
5, 20820, Note_on_c, 3, 70, 0
5, 20821, Note_on_c, 3, 70, 114
5, 20880, Note_on_c, 3, 70, 0
5, 20881, Note_on_c, 3, 70, 114
5, 21000, Note_on_c, 3, 70, 0
5, 21001, Note_on_c, 3, 70, 114
5, 21060, Note_on_c, 3, 70, 0
5, 21061, Note_on_c, 3, 70, 114
5, 21180, Note_on_c, 3, 70, 0
5, 21181, Note_on_c, 3, 70, 114
5, 21240, Note_on_c, 3, 70, 0
5, 21241, Note_on_c, 3, 65, 114
5, 21360, Note_on_c, 3, 65, 0
5, 21361, Note_on_c, 3, 65, 114
5, 21420, Note_on_c, 3, 65, 0
5, 21421, Note_on_c, 3, 65, 114
5, 21540, Note_on_c, 3, 65, 0
5, 21541, Note_on_c, 3, 65, 114
5, 21600, Note_on_c, 3, 65, 0
5, 21601, Note_on_c, 3, 65, 114
5, 21720, Note_on_c, 3, 65, 0
5, 21721, Note_on_c, 3, 65, 114
5, 21780, Note_on_c, 3, 65, 0
5, 21781, Note_on_c, 3, 65, 114
5, 21900, Note_on_c, 3, 65, 0
5, 21901, Note_on_c, 3, 65, 114
5, 21960, Note_on_c, 3, 65, 0
5, 21961, Note_on_c, 3, 67, 114
5, 21990, Note_on_c, 3, 67, 0
5, 21991, Note_on_c, 3, 67, 114
5, 22020, Note_on_c, 3, 67, 0
5, 22021, Note_on_c, 3, 65, 114
5, 22050, Note_on_c, 3, 65, 0
5, 22051, Note_on_c, 3, 63, 114
5, 22080, Note_on_c, 3, 63, 0
5, 22081, Note_on_c, 3, 62, 114
5, 22110, Note_on_c, 3, 62, 0
5, 22111, Note_on_c, 3, 60, 114
5, 22140, Note_on_c, 3, 60, 0
5, 22141, Note_on_c, 3, 62, 114
5, 22200, Note_on_c, 3, 62, 0
5, 22201, Note_on_c, 3, 77, 114
5, 22260, Note_on_c, 3, 77, 0
5, 22261, Note_on_c, 3, 74, 114
5, 22320, Note_on_c, 3, 74, 0
5, 22321, Note_on_c, 3, 58, 114
5, 22380, Note_on_c, 3, 58, 0
5, 22381, Note_on_c, 3, 58, 63
5, 22440, Note_on_c, 3, 58, 0
5, 22441, Note_on_c, 3, 58, 63
5, 22500, Note_on_c, 3, 58, 0
5, 22501, Note_on_c, 3, 58, 114
5, 22560, Note_on_c, 3, 58, 0
5, 22561, Note_on_c, 3, 58, 63
5, 22620, Note_on_c, 3, 58, 0
5, 22621, Note_on_c, 3, 58, 63
5, 22680, Note_on_c, 3, 58, 0
5, 22681, Note_on_c, 3, 58, 114
5, 22740, Note_on_c, 3, 58, 0
5, 22741, Note_on_c, 3, 58, 63
5, 22800, Note_on_c, 3, 58, 0
5, 22801, Note_on_c, 3, 58, 63
5, 22860, Note_on_c, 3, 58, 0
5, 22861, Note_on_c, 3, 58, 114
5, 22920, Note_on_c, 3, 58, 0
5, 22921, Note_on_c, 3, 58, 63
5, 22980, Note_on_c, 3, 58, 0
5, 22981, Note_on_c, 3, 58, 63
5, 23040, Note_on_c, 3, 58, 0
5, 23041, Note_on_c, 3, 65, 114
5, 23100, Note_on_c, 3, 65, 0
5, 23101, Note_on_c, 3, 65, 63
5, 23160, Note_on_c, 3, 65, 0
5, 23161, Note_on_c, 3, 65, 63
5, 23220, Note_on_c, 3, 65, 0
5, 23221, Note_on_c, 3, 65, 114
5, 23280, Note_on_c, 3, 65, 0
5, 23281, Note_on_c, 3, 65, 63
5, 23340, Note_on_c, 3, 65, 0
5, 23341, Note_on_c, 3, 65, 63
5, 23400, Note_on_c, 3, 65, 0
5, 23401, Note_on_c, 3, 65, 114
5, 23460, Note_on_c, 3, 65, 0
5, 23461, Note_on_c, 3, 65, 63
5, 23520, Note_on_c, 3, 65, 0
5, 23521, Note_on_c, 3, 65, 63
5, 23580, Note_on_c, 3, 65, 0
5, 23581, Note_on_c, 3, 65, 114
5, 23640, Note_on_c, 3, 65, 0
5, 23641, Note_on_c, 3, 65, 63
5, 23700, Note_on_c, 3, 65, 0
5, 23701, Note_on_c, 3, 65, 63
5, 23760, Note_on_c, 3, 65, 0
5, 23941, Note_on_c, 3, 82, 114
5, 23970, Note_on_c, 3, 82, 0
5, 23971, Note_on_c, 3, 77, 114
5, 24000, Note_on_c, 3, 77, 0
5, 24001, Note_on_c, 3, 75, 114
5, 24030, Note_on_c, 3, 75, 0
5, 24031, Note_on_c, 3, 74, 114
5, 24060, Note_on_c, 3, 74, 0
5, 24061, Note_on_c, 3, 72, 114
5, 24090, Note_on_c, 3, 72, 0
5, 24091, Note_on_c, 3, 70, 114
5, 24120, Note_on_c, 3, 70, 0
5, 24121, Note_on_c, 3, 70, 114
5, 24150, Note_on_c, 3, 70, 0
5, 24151, Note_on_c, 3, 67, 114
5, 24180, Note_on_c, 3, 67, 0
5, 24181, Note_on_c, 3, 65, 114
5, 24210, Note_on_c, 3, 65, 0
5, 24211, Note_on_c, 3, 63, 114
5, 24240, Note_on_c, 3, 63, 0
5, 24241, Note_on_c, 3, 62, 114
5, 24270, Note_on_c, 3, 62, 0
5, 24271, Note_on_c, 3, 60, 114
5, 24300, Note_on_c, 3, 60, 0
5, 24301, Note_on_c, 3, 62, 114
5, 24360, Note_on_c, 3, 62, 0
5, 24361, Note_on_c, 3, 74, 114
5, 24390, Note_on_c, 3, 74, 0
5, 24391, Note_on_c, 3, 70, 114
5, 24420, Note_on_c, 3, 70, 0
5, 24421, Note_on_c, 3, 72, 114
5, 24450, Note_on_c, 3, 72, 0
5, 24451, Note_on_c, 3, 69, 114
5, 24480, Note_on_c, 3, 69, 0
5, 24481, Note_on_c, 3, 70, 114
5, 24540, Note_on_c, 3, 70, 0
5, 24541, Note_on_c, 3, 74, 114
5, 24570, Note_on_c, 3, 74, 0
5, 24571, Note_on_c, 3, 70, 114
5, 24600, Note_on_c, 3, 70, 0
5, 24601, Note_on_c, 3, 72, 114
5, 24630, Note_on_c, 3, 72, 0
5, 24631, Note_on_c, 3, 69, 114
5, 24660, Note_on_c, 3, 69, 0
5, 24661, Note_on_c, 3, 70, 114
5, 24661, Note_on_c, 3, 62, 114
5, 24720, Note_on_c, 3, 70, 0
5, 24720, Note_on_c, 3, 62, 0
5, 24721, Note_on_c, 3, 70, 114
5, 24721, Note_on_c, 3, 62, 114
5, 24780, Note_on_c, 3, 70, 0
5, 24780, Note_on_c, 3, 62, 0
5, 24781, Note_on_c, 3, 62, 114
5, 24781, Note_on_c, 3, 70, 114
5, 24840, Note_on_c, 3, 62, 0
5, 24840, Note_on_c, 3, 70, 0
5, 24841, Note_on_c, 3, 70, 114
5, 24841, Note_on_c, 3, 62, 114
5, 24960, Note_on_c, 3, 70, 0
5, 24960, Note_on_c, 3, 62, 0
5, 25020, Note_on_c, 3, 70, 58
5, 25079, Note_on_c, 3, 70, 0
5, 25080, Note_on_c, 3, 70, 58
5, 25139, Note_on_c, 3, 70, 0
5, 25140, Note_on_c, 3, 70, 58
5, 25199, Note_on_c, 3, 70, 0
5, 25200, Note_on_c, 3, 70, 58
5, 25259, Note_on_c, 3, 70, 0
5, 25260, Note_on_c, 3, 70, 58
5, 25319, Note_on_c, 3, 70, 0
5, 25320, Note_on_c, 3, 70, 58
5, 25379, Note_on_c, 3, 70, 0
5, 25380, Note_on_c, 3, 70, 58
5, 25439, Note_on_c, 3, 70, 0
5, 25440, Note_on_c, 3, 70, 58
5, 25499, Note_on_c, 3, 70, 0
5, 25500, Note_on_c, 3, 70, 58
5, 25559, Note_on_c, 3, 70, 0
5, 25560, Note_on_c, 3, 70, 58
5, 25619, Note_on_c, 3, 70, 0
5, 25620, Note_on_c, 3, 70, 58
5, 25679, Note_on_c, 3, 70, 0
5, 25680, Note_on_c, 3, 70, 58
5, 25739, Note_on_c, 3, 70, 0
5, 25740, Note_on_c, 3, 70, 58
5, 25799, Note_on_c, 3, 70, 0
5, 25800, Note_on_c, 3, 70, 58
5, 25859, Note_on_c, 3, 70, 0
5, 25860, Note_on_c, 3, 70, 58
5, 25919, Note_on_c, 3, 70, 0
5, 25920, Note_on_c, 3, 70, 58
5, 25979, Note_on_c, 3, 70, 0
5, 25980, Note_on_c, 3, 70, 58
5, 26039, Note_on_c, 3, 70, 0
5, 26040, Note_on_c, 3, 70, 58
5, 26099, Note_on_c, 3, 70, 0
5, 26100, Note_on_c, 3, 70, 114
5, 26159, Note_on_c, 3, 70, 0
5, 26160, Note_on_c, 3, 70, 114
5, 26219, Note_on_c, 3, 70, 0
5, 26220, Note_on_c, 3, 70, 114
5, 26279, Note_on_c, 3, 70, 0
5, 26280, Note_on_c, 3, 70, 114
5, 26339, Note_on_c, 3, 70, 0
5, 26340, Note_on_c, 3, 70, 114
5, 26399, Note_on_c, 3, 70, 0
5, 26400, Note_on_c, 3, 70, 114
5, 26459, Note_on_c, 3, 70, 0
5, 26460, Note_on_c, 3, 68, 114
5, 26579, Note_on_c, 3, 68, 0
5, 26640, Note_on_c, 3, 68, 114
5, 26759, Note_on_c, 3, 68, 0
5, 26820, Note_on_c, 3, 68, 114
5, 26939, Note_on_c, 3, 68, 0
5, 26940, Note_on_c, 3, 69, 114
5, 26999, Note_on_c, 3, 69, 0
5, 27000, Note_on_c, 3, 70, 114
5, 27030, Note_on_c, 3, 70, 0
5, 27060, Note_on_c, 3, 58, 114
5, 27090, Note_on_c, 3, 58, 0
5, 27180, Note_on_c, 3, 63, 114
5, 27218, Note_on_c, 3, 63, 0
5, 27240, Note_on_c, 3, 67, 114
5, 27278, Note_on_c, 3, 67, 0
5, 27300, Note_on_c, 3, 70, 114
5, 27338, Note_on_c, 3, 70, 0
5, 27360, Note_on_c, 3, 58, 114
5, 27398, Note_on_c, 3, 58, 0
5, 27420, Note_on_c, 3, 58, 114
5, 27439, Note_on_c, 3, 58, 0
5, 27450, Note_on_c, 3, 60, 114
5, 27469, Note_on_c, 3, 60, 0
5, 27480, Note_on_c, 3, 62, 114
5, 27499, Note_on_c, 3, 62, 0
5, 27510, Note_on_c, 3, 58, 114
5, 27529, Note_on_c, 3, 58, 0
5, 27540, Note_on_c, 3, 63, 114
5, 27578, Note_on_c, 3, 63, 0
5, 27600, Note_on_c, 3, 67, 114
5, 27638, Note_on_c, 3, 67, 0
5, 27660, Note_on_c, 3, 70, 114
5, 27698, Note_on_c, 3, 70, 0
5, 27720, Note_on_c, 3, 58, 114
5, 27839, Note_on_c, 3, 58, 0
5, 27900, Note_on_c, 3, 77, 114
5, 28067, Note_on_c, 3, 77, 0
5, 28080, Note_on_c, 3, 75, 114
5, 28247, Note_on_c, 3, 75, 0
5, 28260, Note_on_c, 3, 72, 114
5, 28379, Note_on_c, 3, 72, 0
5, 28380, Note_on_c, 3, 72, 114
5, 28439, Note_on_c, 3, 72, 0
5, 28440, Note_on_c, 3, 65, 114
5, 28559, Note_on_c, 3, 65, 0
5, 28560, Note_on_c, 3, 62, 114
5, 28600, Note_on_c, 3, 62, 0
5, 28620, Note_on_c, 3, 63, 114
5, 28658, Note_on_c, 3, 63, 0
5, 28680, Note_on_c, 3, 67, 114
5, 28718, Note_on_c, 3, 67, 0
5, 28740, Note_on_c, 3, 70, 114
5, 28778, Note_on_c, 3, 70, 0
5, 28800, Note_on_c, 3, 58, 114
5, 28838, Note_on_c, 3, 58, 0
5, 28860, Note_on_c, 3, 58, 114
5, 28879, Note_on_c, 3, 58, 0
5, 28890, Note_on_c, 3, 60, 114
5, 28909, Note_on_c, 3, 60, 0
5, 28920, Note_on_c, 3, 62, 114
5, 28939, Note_on_c, 3, 62, 0
5, 28950, Note_on_c, 3, 58, 114
5, 28969, Note_on_c, 3, 58, 0
5, 28980, Note_on_c, 3, 63, 114
5, 29018, Note_on_c, 3, 63, 0
5, 29040, Note_on_c, 3, 67, 114
5, 29078, Note_on_c, 3, 67, 0
5, 29100, Note_on_c, 3, 70, 114
5, 29138, Note_on_c, 3, 70, 0
5, 29160, Note_on_c, 3, 58, 114
5, 29279, Note_on_c, 3, 58, 0
5, 29340, Note_on_c, 3, 77, 114
5, 29507, Note_on_c, 3, 77, 0
5, 29520, Note_on_c, 3, 75, 114
5, 29687, Note_on_c, 3, 75, 0
5, 29700, Note_on_c, 3, 72, 114
5, 29729, Note_on_c, 3, 72, 0
5, 29730, Note_on_c, 3, 72, 114
5, 29759, Note_on_c, 3, 72, 0
5, 29760, Note_on_c, 3, 70, 114
5, 29789, Note_on_c, 3, 70, 0
5, 29790, Note_on_c, 3, 68, 114
5, 29819, Note_on_c, 3, 68, 0
5, 29820, Note_on_c, 3, 67, 114
5, 29849, Note_on_c, 3, 67, 0
5, 29850, Note_on_c, 3, 65, 114
5, 29879, Note_on_c, 3, 65, 0
5, 29880, Note_on_c, 3, 67, 114
5, 29939, Note_on_c, 3, 67, 0
5, 29940, Note_on_c, 3, 79, 114
5, 29969, Note_on_c, 3, 79, 0
5, 29970, Note_on_c, 3, 75, 114
5, 29999, Note_on_c, 3, 75, 0
5, 30000, Note_on_c, 3, 77, 114
5, 30029, Note_on_c, 3, 77, 0
5, 30030, Note_on_c, 3, 74, 114
5, 30059, Note_on_c, 3, 74, 0
5, 30060, Note_on_c, 3, 75, 114
5, 30119, Note_on_c, 3, 75, 0
5, 30120, Note_on_c, 3, 70, 114
5, 30149, Note_on_c, 3, 70, 0
5, 30150, Note_on_c, 3, 67, 114
5, 30179, Note_on_c, 3, 67, 0
5, 30180, Note_on_c, 3, 68, 114
5, 30209, Note_on_c, 3, 68, 0
5, 30210, Note_on_c, 3, 65, 114
5, 30239, Note_on_c, 3, 65, 0
5, 30240, Note_on_c, 3, 67, 127
5, 30299, Note_on_c, 3, 67, 0
5, 30300, Note_on_c, 3, 67, 127
5, 30300, Note_on_c, 3, 70, 127
5, 30359, Note_on_c, 3, 67, 0
5, 30359, Note_on_c, 3, 70, 0
5, 30360, Note_on_c, 3, 70, 127
5, 30360, Note_on_c, 3, 67, 127
5, 30419, Note_on_c, 3, 70, 0
5, 30419, Note_on_c, 3, 67, 0
5, 30420, Note_on_c, 3, 70, 127
5, 30420, Note_on_c, 3, 67, 127
5, 30503, Note_on_c, 3, 70, 0
5, 30503, Note_on_c, 3, 67, 0
5, 30503, End_track
6, 0, Start_track
6, 0, MIDI_port, 0
6, 0, Title_t, "Viola"
6, 0, Program_c, 4, 41
6, 181, Note_on_c, 4, 63, 114
6, 225, Note_on_c, 4, 63, 0
6, 241, Note_on_c, 4, 67, 114
6, 285, Note_on_c, 4, 67, 0
6, 301, Note_on_c, 4, 70, 114
6, 345, Note_on_c, 4, 70, 0
6, 361, Note_on_c, 4, 58, 114
6, 405, Note_on_c, 4, 58, 0
6, 421, Note_on_c, 4, 58, 114
6, 443, Note_on_c, 4, 58, 0
6, 451, Note_on_c, 4, 60, 114
6, 473, Note_on_c, 4, 60, 0
6, 481, Note_on_c, 4, 62, 114
6, 503, Note_on_c, 4, 62, 0
6, 511, Note_on_c, 4, 58, 114
6, 533, Note_on_c, 4, 58, 0
6, 541, Note_on_c, 4, 63, 114
6, 585, Note_on_c, 4, 63, 0
6, 601, Note_on_c, 4, 67, 114
6, 645, Note_on_c, 4, 67, 0
6, 661, Note_on_c, 4, 70, 114
6, 705, Note_on_c, 4, 70, 0
6, 721, Note_on_c, 4, 58, 114
6, 840, Note_on_c, 4, 58, 0
6, 901, Note_on_c, 4, 70, 114
6, 1068, Note_on_c, 4, 70, 0
6, 1081, Note_on_c, 4, 70, 114
6, 1248, Note_on_c, 4, 70, 0
6, 1321, Note_on_c, 4, 65, 114
6, 1380, Note_on_c, 4, 65, 0
6, 1381, Note_on_c, 4, 65, 114
6, 1440, Note_on_c, 4, 65, 0
6, 1441, Note_on_c, 4, 65, 114
6, 1560, Note_on_c, 4, 65, 0
6, 1621, Note_on_c, 4, 63, 114
6, 1665, Note_on_c, 4, 63, 0
6, 1681, Note_on_c, 4, 67, 114
6, 1725, Note_on_c, 4, 67, 0
6, 1741, Note_on_c, 4, 70, 114
6, 1785, Note_on_c, 4, 70, 0
6, 1801, Note_on_c, 4, 58, 114
6, 1845, Note_on_c, 4, 58, 0
6, 1861, Note_on_c, 4, 58, 114
6, 1883, Note_on_c, 4, 58, 0
6, 1891, Note_on_c, 4, 60, 114
6, 1913, Note_on_c, 4, 60, 0
6, 1921, Note_on_c, 4, 62, 114
6, 1943, Note_on_c, 4, 62, 0
6, 1951, Note_on_c, 4, 58, 114
6, 1973, Note_on_c, 4, 58, 0
6, 1981, Note_on_c, 4, 63, 114
6, 2025, Note_on_c, 4, 63, 0
6, 2041, Note_on_c, 4, 67, 114
6, 2085, Note_on_c, 4, 67, 0
6, 2101, Note_on_c, 4, 70, 114
6, 2145, Note_on_c, 4, 70, 0
6, 2161, Note_on_c, 4, 58, 114
6, 2280, Note_on_c, 4, 58, 0
6, 2341, Note_on_c, 4, 70, 114
6, 2508, Note_on_c, 4, 70, 0
6, 2521, Note_on_c, 4, 70, 114
6, 2688, Note_on_c, 4, 70, 0
6, 2761, Note_on_c, 4, 58, 114
6, 2820, Note_on_c, 4, 58, 0
6, 2821, Note_on_c, 4, 58, 114
6, 2880, Note_on_c, 4, 58, 0
6, 2881, Note_on_c, 4, 58, 114
6, 2958, Note_on_c, 4, 58, 0
6, 3061, Note_on_c, 4, 63, 114
6, 3105, Note_on_c, 4, 63, 0
6, 3121, Note_on_c, 4, 67, 114
6, 3165, Note_on_c, 4, 67, 0
6, 3181, Note_on_c, 4, 70, 114
6, 3225, Note_on_c, 4, 70, 0
6, 3241, Note_on_c, 4, 58, 114
6, 3285, Note_on_c, 4, 58, 0
6, 3301, Note_on_c, 4, 58, 114
6, 3323, Note_on_c, 4, 58, 0
6, 3331, Note_on_c, 4, 60, 114
6, 3353, Note_on_c, 4, 60, 0
6, 3361, Note_on_c, 4, 62, 114
6, 3383, Note_on_c, 4, 62, 0
6, 3391, Note_on_c, 4, 58, 114
6, 3413, Note_on_c, 4, 58, 0
6, 3421, Note_on_c, 4, 63, 114
6, 3465, Note_on_c, 4, 63, 0
6, 3481, Note_on_c, 4, 67, 114
6, 3525, Note_on_c, 4, 67, 0
6, 3541, Note_on_c, 4, 70, 114
6, 3585, Note_on_c, 4, 70, 0
6, 3601, Note_on_c, 4, 58, 114
6, 3720, Note_on_c, 4, 58, 0
6, 3781, Note_on_c, 4, 70, 114
6, 3948, Note_on_c, 4, 70, 0
6, 3961, Note_on_c, 4, 70, 114
6, 4128, Note_on_c, 4, 70, 0
6, 4201, Note_on_c, 4, 65, 114
6, 4260, Note_on_c, 4, 65, 0
6, 4261, Note_on_c, 4, 65, 114
6, 4320, Note_on_c, 4, 65, 0
6, 4321, Note_on_c, 4, 65, 114
6, 4440, Note_on_c, 4, 65, 0
6, 4501, Note_on_c, 4, 63, 114
6, 4545, Note_on_c, 4, 63, 0
6, 4561, Note_on_c, 4, 67, 114
6, 4605, Note_on_c, 4, 67, 0
6, 4621, Note_on_c, 4, 70, 114
6, 4665, Note_on_c, 4, 70, 0
6, 4681, Note_on_c, 4, 58, 114
6, 4725, Note_on_c, 4, 58, 0
6, 4741, Note_on_c, 4, 58, 114
6, 4763, Note_on_c, 4, 58, 0
6, 4771, Note_on_c, 4, 60, 114
6, 4793, Note_on_c, 4, 60, 0
6, 4801, Note_on_c, 4, 62, 114
6, 4823, Note_on_c, 4, 62, 0
6, 4831, Note_on_c, 4, 58, 114
6, 4853, Note_on_c, 4, 58, 0
6, 4861, Note_on_c, 4, 63, 114
6, 4905, Note_on_c, 4, 63, 0
6, 4921, Note_on_c, 4, 67, 114
6, 4965, Note_on_c, 4, 67, 0
6, 4981, Note_on_c, 4, 70, 114
6, 5025, Note_on_c, 4, 70, 0
6, 5041, Note_on_c, 4, 58, 114
6, 5160, Note_on_c, 4, 58, 0
6, 5221, Note_on_c, 4, 70, 114
6, 5388, Note_on_c, 4, 70, 0
6, 5401, Note_on_c, 4, 70, 114
6, 5568, Note_on_c, 4, 70, 0
6, 5641, Note_on_c, 4, 58, 114
6, 5700, Note_on_c, 4, 58, 0
6, 5701, Note_on_c, 4, 58, 114
6, 5760, Note_on_c, 4, 58, 0
6, 5761, Note_on_c, 4, 58, 114
6, 5838, Note_on_c, 4, 58, 0
6, 6601, Note_on_c, 4, 65, 114
6, 6660, Note_on_c, 4, 65, 0
6, 6661, Note_on_c, 4, 64, 114
6, 6720, Note_on_c, 4, 64, 0
6, 6721, Note_on_c, 4, 65, 114
6, 6780, Note_on_c, 4, 65, 0
6, 6781, Note_on_c, 4, 63, 114
6, 6840, Note_on_c, 4, 63, 0
6, 6841, Note_on_c, 4, 61, 114
6, 6900, Note_on_c, 4, 61, 0
6, 6901, Note_on_c, 4, 62, 114
6, 6960, Note_on_c, 4, 62, 0
6, 6961, Note_on_c, 4, 57, 114
6, 7020, Note_on_c, 4, 57, 0
6, 7021, Note_on_c, 4, 58, 114
6, 7080, Note_on_c, 4, 58, 0
6, 7081, Note_on_c, 4, 54, 114
6, 7140, Note_on_c, 4, 54, 0
6, 7141, Note_on_c, 4, 52, 114
6, 7200, Note_on_c, 4, 52, 0
6, 7201, Note_on_c, 4, 53, 114
6, 7230, Note_on_c, 4, 53, 0
6, 7231, Note_on_c, 4, 55, 93
6, 7245, Note_on_c, 4, 55, 0
6, 7246, Note_on_c, 4, 57, 114
6, 7260, Note_on_c, 4, 57, 0
6, 7261, Note_on_c, 4, 58, 114
6, 7275, Note_on_c, 4, 58, 0
6, 7276, Note_on_c, 4, 60, 114
6, 7290, Note_on_c, 4, 60, 0
6, 7291, Note_on_c, 4, 62, 114
6, 7305, Note_on_c, 4, 62, 0
6, 7306, Note_on_c, 4, 64, 114
6, 7320, Note_on_c, 4, 64, 0
6, 7321, Note_on_c, 4, 65, 114
6, 7380, Note_on_c, 4, 65, 0
6, 7381, Note_on_c, 4, 64, 114
6, 7440, Note_on_c, 4, 64, 0
6, 7441, Note_on_c, 4, 65, 114
6, 7500, Note_on_c, 4, 65, 0
6, 7501, Note_on_c, 4, 63, 114
6, 7560, Note_on_c, 4, 63, 0
6, 7561, Note_on_c, 4, 61, 114
6, 7620, Note_on_c, 4, 61, 0
6, 7621, Note_on_c, 4, 62, 114
6, 7680, Note_on_c, 4, 62, 0
6, 7681, Note_on_c, 4, 57, 114
6, 7740, Note_on_c, 4, 57, 0
6, 7741, Note_on_c, 4, 58, 114
6, 7800, Note_on_c, 4, 58, 0
6, 7801, Note_on_c, 4, 54, 114
6, 7860, Note_on_c, 4, 54, 0
6, 7861, Note_on_c, 4, 52, 114
6, 7920, Note_on_c, 4, 52, 0
6, 7921, Note_on_c, 4, 53, 114
6, 8040, Note_on_c, 4, 53, 0
6, 8641, Note_on_c, 4, 57, 114
6, 8760, Note_on_c, 4, 57, 0
6, 9361, Note_on_c, 4, 69, 114
6, 9361, Note_on_c, 4, 65, 114
6, 9480, Note_on_c, 4, 69, 0
6, 9480, Note_on_c, 4, 65, 0
6, 9481, Note_on_c, 4, 65, 114
6, 9540, Note_on_c, 4, 65, 0
6, 9541, Note_on_c, 4, 70, 114
6, 9660, Note_on_c, 4, 70, 0
6, 9721, Note_on_c, 4, 69, 114
6, 9840, Note_on_c, 4, 69, 0
6, 9901, Note_on_c, 4, 68, 114
6, 10020, Note_on_c, 4, 68, 0
6, 10081, Note_on_c, 4, 67, 114
6, 10200, Note_on_c, 4, 67, 0
6, 10261, Note_on_c, 4, 65, 114
6, 10380, Note_on_c, 4, 65, 0
6, 10441, Note_on_c, 4, 64, 114
6, 10560, Note_on_c, 4, 64, 0
6, 10621, Note_on_c, 4, 63, 114
6, 10740, Note_on_c, 4, 63, 0
6, 10801, Note_on_c, 4, 62, 114
6, 10920, Note_on_c, 4, 62, 0
6, 10921, Note_on_c, 4, 65, 114
6, 10980, Note_on_c, 4, 65, 0
6, 10981, Note_on_c, 4, 63, 92
6, 11100, Note_on_c, 4, 63, 0
6, 11101, Note_on_c, 4, 63, 92
6, 11160, Note_on_c, 4, 63, 0
6, 11161, Note_on_c, 4, 62, 92
6, 11220, Note_on_c, 4, 62, 0
6, 11221, Note_on_c, 4, 74, 92
6, 11280, Note_on_c, 4, 74, 0
6, 11281, Note_on_c, 4, 70, 92
6, 11340, Note_on_c, 4, 70, 0
6, 11341, Note_on_c, 4, 58, 114
6, 11460, Note_on_c, 4, 58, 0
6, 11521, Note_on_c, 4, 57, 114
6, 11640, Note_on_c, 4, 57, 0
6, 11701, Note_on_c, 4, 56, 114
6, 11820, Note_on_c, 4, 56, 0
6, 11881, Note_on_c, 4, 55, 114
6, 12000, Note_on_c, 4, 55, 0
6, 12061, Note_on_c, 4, 53, 114
6, 12180, Note_on_c, 4, 53, 0
6, 12241, Note_on_c, 4, 52, 114
6, 12360, Note_on_c, 4, 52, 0
6, 12421, Note_on_c, 4, 51, 114
6, 12540, Note_on_c, 4, 51, 0
6, 12601, Note_on_c, 4, 50, 114
6, 12720, Note_on_c, 4, 50, 0
6, 12781, Note_on_c, 4, 55, 80
6, 12810, Note_on_c, 4, 55, 0
6, 12811, Note_on_c, 4, 67, 80
6, 12840, Note_on_c, 4, 67, 0
6, 12841, Note_on_c, 4, 65, 80
6, 12870, Note_on_c, 4, 65, 0
6, 12871, Note_on_c, 4, 63, 80
6, 12900, Note_on_c, 4, 63, 0
6, 12901, Note_on_c, 4, 62, 68
6, 12930, Note_on_c, 4, 62, 0
6, 12931, Note_on_c, 4, 60, 68
6, 12960, Note_on_c, 4, 60, 0
6, 12961, Note_on_c, 4, 62, 68
6, 13080, Note_on_c, 4, 62, 0
6, 13141, Note_on_c, 4, 55, 97
6, 13200, Note_on_c, 4, 55, 0
6, 13201, Note_on_c, 4, 53, 97
6, 13260, Note_on_c, 4, 53, 0
6, 13261, Note_on_c, 4, 53, 97
6, 13320, Note_on_c, 4, 53, 0
6, 13321, Note_on_c, 4, 53, 97
6, 13440, Note_on_c, 4, 53, 0
6, 13501, Note_on_c, 4, 58, 97
6, 13560, Note_on_c, 4, 58, 0
6, 13561, Note_on_c, 4, 62, 97
6, 13620, Note_on_c, 4, 62, 0
6, 13621, Note_on_c, 4, 65, 97
6, 13680, Note_on_c, 4, 65, 0
6, 13681, Note_on_c, 4, 62, 97
6, 13740, Note_on_c, 4, 62, 0
6, 13741, Note_on_c, 4, 53, 97
6, 13800, Note_on_c, 4, 53, 0
6, 13801, Note_on_c, 4, 53, 97
6, 13860, Note_on_c, 4, 53, 0
6, 13861, Note_on_c, 4, 53, 97
6, 13920, Note_on_c, 4, 53, 0
6, 13921, Note_on_c, 4, 70, 97
6, 13950, Note_on_c, 4, 70, 0
6, 13951, Note_on_c, 4, 68, 97
6, 13980, Note_on_c, 4, 68, 0
6, 13981, Note_on_c, 4, 67, 97
6, 14010, Note_on_c, 4, 67, 0
6, 14011, Note_on_c, 4, 65, 97
6, 14040, Note_on_c, 4, 65, 0
6, 14041, Note_on_c, 4, 63, 114
6, 14079, Note_on_c, 4, 63, 0
6, 14101, Note_on_c, 4, 67, 114
6, 14139, Note_on_c, 4, 67, 0
6, 14161, Note_on_c, 4, 70, 114
6, 14199, Note_on_c, 4, 70, 0
6, 14221, Note_on_c, 4, 58, 114
6, 14259, Note_on_c, 4, 58, 0
6, 14281, Note_on_c, 4, 58, 114
6, 14300, Note_on_c, 4, 58, 0
6, 14311, Note_on_c, 4, 60, 114
6, 14330, Note_on_c, 4, 60, 0
6, 14341, Note_on_c, 4, 62, 114
6, 14360, Note_on_c, 4, 62, 0
6, 14371, Note_on_c, 4, 58, 114
6, 14390, Note_on_c, 4, 58, 0
6, 14401, Note_on_c, 4, 63, 114
6, 14439, Note_on_c, 4, 63, 0
6, 14461, Note_on_c, 4, 67, 114
6, 14499, Note_on_c, 4, 67, 0
6, 14521, Note_on_c, 4, 70, 114
6, 14559, Note_on_c, 4, 70, 0
6, 14581, Note_on_c, 4, 58, 114
6, 14700, Note_on_c, 4, 58, 0
6, 14761, Note_on_c, 4, 70, 114
6, 14928, Note_on_c, 4, 70, 0
6, 14941, Note_on_c, 4, 70, 114
6, 15108, Note_on_c, 4, 70, 0
6, 15181, Note_on_c, 4, 65, 114
6, 15240, Note_on_c, 4, 65, 0
6, 15241, Note_on_c, 4, 65, 114
6, 15300, Note_on_c, 4, 65, 0
6, 15301, Note_on_c, 4, 65, 114
6, 15420, Note_on_c, 4, 65, 0
6, 15481, Note_on_c, 4, 63, 114
6, 15519, Note_on_c, 4, 63, 0
6, 15541, Note_on_c, 4, 67, 114
6, 15579, Note_on_c, 4, 67, 0
6, 15601, Note_on_c, 4, 70, 114
6, 15639, Note_on_c, 4, 70, 0
6, 15661, Note_on_c, 4, 58, 114
6, 15699, Note_on_c, 4, 58, 0
6, 15721, Note_on_c, 4, 58, 114
6, 15740, Note_on_c, 4, 58, 0
6, 15751, Note_on_c, 4, 60, 114
6, 15770, Note_on_c, 4, 60, 0
6, 15781, Note_on_c, 4, 62, 114
6, 15800, Note_on_c, 4, 62, 0
6, 15811, Note_on_c, 4, 58, 114
6, 15830, Note_on_c, 4, 58, 0
6, 15841, Note_on_c, 4, 63, 114
6, 15879, Note_on_c, 4, 63, 0
6, 15901, Note_on_c, 4, 67, 114
6, 15939, Note_on_c, 4, 67, 0
6, 15961, Note_on_c, 4, 70, 114
6, 15999, Note_on_c, 4, 70, 0
6, 16021, Note_on_c, 4, 58, 114
6, 16140, Note_on_c, 4, 58, 0
6, 16201, Note_on_c, 4, 70, 114
6, 16368, Note_on_c, 4, 70, 0
6, 16381, Note_on_c, 4, 70, 114
6, 16548, Note_on_c, 4, 70, 0
6, 16621, Note_on_c, 4, 58, 114
6, 16680, Note_on_c, 4, 58, 0
6, 16681, Note_on_c, 4, 58, 114
6, 16740, Note_on_c, 4, 58, 0
6, 16741, Note_on_c, 4, 58, 114
6, 16818, Note_on_c, 4, 58, 0
6, 17581, Note_on_c, 4, 65, 114
6, 17640, Note_on_c, 4, 65, 0
6, 17641, Note_on_c, 4, 64, 114
6, 17700, Note_on_c, 4, 64, 0
6, 17701, Note_on_c, 4, 65, 114
6, 17760, Note_on_c, 4, 65, 0
6, 17761, Note_on_c, 4, 63, 114
6, 17820, Note_on_c, 4, 63, 0
6, 17821, Note_on_c, 4, 61, 114
6, 17880, Note_on_c, 4, 61, 0
6, 17881, Note_on_c, 4, 62, 114
6, 17940, Note_on_c, 4, 62, 0
6, 17941, Note_on_c, 4, 57, 114
6, 18000, Note_on_c, 4, 57, 0
6, 18001, Note_on_c, 4, 58, 114
6, 18060, Note_on_c, 4, 58, 0
6, 18061, Note_on_c, 4, 54, 114
6, 18120, Note_on_c, 4, 54, 0
6, 18121, Note_on_c, 4, 52, 114
6, 18180, Note_on_c, 4, 52, 0
6, 18181, Note_on_c, 4, 53, 114
6, 18210, Note_on_c, 4, 53, 0
6, 18211, Note_on_c, 4, 55, 93
6, 18225, Note_on_c, 4, 55, 0
6, 18226, Note_on_c, 4, 57, 114
6, 18240, Note_on_c, 4, 57, 0
6, 18241, Note_on_c, 4, 58, 114
6, 18255, Note_on_c, 4, 58, 0
6, 18256, Note_on_c, 4, 60, 114
6, 18270, Note_on_c, 4, 60, 0
6, 18271, Note_on_c, 4, 62, 114
6, 18285, Note_on_c, 4, 62, 0
6, 18286, Note_on_c, 4, 64, 114
6, 18300, Note_on_c, 4, 64, 0
6, 18301, Note_on_c, 4, 65, 114
6, 18360, Note_on_c, 4, 65, 0
6, 18361, Note_on_c, 4, 64, 114
6, 18420, Note_on_c, 4, 64, 0
6, 18421, Note_on_c, 4, 65, 114
6, 18480, Note_on_c, 4, 65, 0
6, 18481, Note_on_c, 4, 63, 114
6, 18540, Note_on_c, 4, 63, 0
6, 18541, Note_on_c, 4, 61, 114
6, 18600, Note_on_c, 4, 61, 0
6, 18601, Note_on_c, 4, 62, 114
6, 18660, Note_on_c, 4, 62, 0
6, 18661, Note_on_c, 4, 57, 114
6, 18720, Note_on_c, 4, 57, 0
6, 18721, Note_on_c, 4, 58, 114
6, 18780, Note_on_c, 4, 58, 0
6, 18781, Note_on_c, 4, 54, 114
6, 18840, Note_on_c, 4, 54, 0
6, 18841, Note_on_c, 4, 52, 114
6, 18900, Note_on_c, 4, 52, 0
6, 18901, Note_on_c, 4, 53, 114
6, 19020, Note_on_c, 4, 53, 0
6, 19621, Note_on_c, 4, 57, 114
6, 19740, Note_on_c, 4, 57, 0
6, 20341, Note_on_c, 4, 69, 114
6, 20341, Note_on_c, 4, 65, 114
6, 20460, Note_on_c, 4, 69, 0
6, 20460, Note_on_c, 4, 65, 0
6, 20461, Note_on_c, 4, 65, 114
6, 20520, Note_on_c, 4, 65, 0
6, 20521, Note_on_c, 4, 70, 114
6, 20640, Note_on_c, 4, 70, 0
6, 20701, Note_on_c, 4, 69, 114
6, 20820, Note_on_c, 4, 69, 0
6, 20881, Note_on_c, 4, 68, 114
6, 21000, Note_on_c, 4, 68, 0
6, 21061, Note_on_c, 4, 67, 114
6, 21180, Note_on_c, 4, 67, 0
6, 21241, Note_on_c, 4, 65, 114
6, 21360, Note_on_c, 4, 65, 0
6, 21421, Note_on_c, 4, 64, 114
6, 21540, Note_on_c, 4, 64, 0
6, 21601, Note_on_c, 4, 63, 114
6, 21720, Note_on_c, 4, 63, 0
6, 21781, Note_on_c, 4, 62, 114
6, 21900, Note_on_c, 4, 62, 0
6, 21901, Note_on_c, 4, 65, 114
6, 21960, Note_on_c, 4, 65, 0
6, 21961, Note_on_c, 4, 63, 114
6, 22080, Note_on_c, 4, 63, 0
6, 22081, Note_on_c, 4, 63, 114
6, 22140, Note_on_c, 4, 63, 0
6, 22141, Note_on_c, 4, 62, 114
6, 22200, Note_on_c, 4, 62, 0
6, 22201, Note_on_c, 4, 74, 114
6, 22260, Note_on_c, 4, 74, 0
6, 22261, Note_on_c, 4, 70, 114
6, 22320, Note_on_c, 4, 70, 0
6, 22321, Note_on_c, 4, 58, 114
6, 22440, Note_on_c, 4, 58, 0
6, 22501, Note_on_c, 4, 57, 114
6, 22620, Note_on_c, 4, 57, 0
6, 22681, Note_on_c, 4, 56, 114
6, 22800, Note_on_c, 4, 56, 0
6, 22861, Note_on_c, 4, 55, 114
6, 22980, Note_on_c, 4, 55, 0
6, 23041, Note_on_c, 4, 53, 114
6, 23160, Note_on_c, 4, 53, 0
6, 23221, Note_on_c, 4, 52, 114
6, 23340, Note_on_c, 4, 52, 0
6, 23401, Note_on_c, 4, 51, 114
6, 23520, Note_on_c, 4, 51, 0
6, 23581, Note_on_c, 4, 50, 114
6, 23700, Note_on_c, 4, 50, 0
6, 23761, Note_on_c, 4, 55, 114
6, 23790, Note_on_c, 4, 55, 0
6, 23791, Note_on_c, 4, 67, 114
6, 23820, Note_on_c, 4, 67, 0
6, 23821, Note_on_c, 4, 65, 114
6, 23850, Note_on_c, 4, 65, 0
6, 23851, Note_on_c, 4, 63, 114
6, 23880, Note_on_c, 4, 63, 0
6, 23881, Note_on_c, 4, 62, 114
6, 23910, Note_on_c, 4, 62, 0
6, 23911, Note_on_c, 4, 60, 114
6, 23940, Note_on_c, 4, 60, 0
6, 23941, Note_on_c, 4, 62, 114
6, 24060, Note_on_c, 4, 62, 0
6, 24121, Note_on_c, 4, 55, 114
6, 24180, Note_on_c, 4, 55, 0
6, 24181, Note_on_c, 4, 53, 114
6, 24240, Note_on_c, 4, 53, 0
6, 24241, Note_on_c, 4, 53, 114
6, 24300, Note_on_c, 4, 53, 0
6, 24301, Note_on_c, 4, 53, 114
6, 24420, Note_on_c, 4, 53, 0
6, 24481, Note_on_c, 4, 58, 114
6, 24540, Note_on_c, 4, 58, 0
6, 24541, Note_on_c, 4, 62, 114
6, 24600, Note_on_c, 4, 62, 0
6, 24601, Note_on_c, 4, 65, 114
6, 24660, Note_on_c, 4, 65, 0
6, 24661, Note_on_c, 4, 62, 114
6, 24720, Note_on_c, 4, 62, 0
6, 24721, Note_on_c, 4, 53, 114
6, 24780, Note_on_c, 4, 53, 0
6, 24781, Note_on_c, 4, 53, 114
6, 24840, Note_on_c, 4, 53, 0
6, 24841, Note_on_c, 4, 53, 114
6, 25020, Note_on_c, 4, 53, 0
6, 25380, Note_on_c, 4, 68, 58
6, 25550, Note_on_c, 4, 68, 0
6, 25560, Note_on_c, 4, 67, 58
6, 25730, Note_on_c, 4, 67, 0
6, 25740, Note_on_c, 4, 65, 58
6, 25910, Note_on_c, 4, 65, 0
6, 25920, Note_on_c, 4, 63, 58
6, 26090, Note_on_c, 4, 63, 0
6, 26160, Note_on_c, 4, 62, 114
6, 26219, Note_on_c, 4, 62, 0
6, 26220, Note_on_c, 4, 65, 114
6, 26279, Note_on_c, 4, 65, 0
6, 26280, Note_on_c, 4, 58, 114
6, 26339, Note_on_c, 4, 58, 0
6, 26340, Note_on_c, 4, 63, 114
6, 26399, Note_on_c, 4, 63, 0
6, 26400, Note_on_c, 4, 67, 114
6, 26459, Note_on_c, 4, 67, 0
6, 27060, Note_on_c, 4, 70, 95
6, 27089, Note_on_c, 4, 70, 0
6, 27090, Note_on_c, 4, 68, 114
6, 27119, Note_on_c, 4, 68, 0
6, 27120, Note_on_c, 4, 67, 114
6, 27149, Note_on_c, 4, 67, 0
6, 27150, Note_on_c, 4, 65, 114
6, 27179, Note_on_c, 4, 65, 0
6, 27180, Note_on_c, 4, 63, 114
6, 27218, Note_on_c, 4, 63, 0
6, 27240, Note_on_c, 4, 67, 114
6, 27278, Note_on_c, 4, 67, 0
6, 27300, Note_on_c, 4, 70, 114
6, 27338, Note_on_c, 4, 70, 0
6, 27360, Note_on_c, 4, 58, 114
6, 27398, Note_on_c, 4, 58, 0
6, 27420, Note_on_c, 4, 58, 114
6, 27439, Note_on_c, 4, 58, 0
6, 27450, Note_on_c, 4, 60, 114
6, 27469, Note_on_c, 4, 60, 0
6, 27480, Note_on_c, 4, 62, 114
6, 27499, Note_on_c, 4, 62, 0
6, 27510, Note_on_c, 4, 58, 114
6, 27529, Note_on_c, 4, 58, 0
6, 27540, Note_on_c, 4, 63, 114
6, 27578, Note_on_c, 4, 63, 0
6, 27600, Note_on_c, 4, 67, 114
6, 27638, Note_on_c, 4, 67, 0
6, 27660, Note_on_c, 4, 70, 114
6, 27698, Note_on_c, 4, 70, 0
6, 27720, Note_on_c, 4, 58, 114
6, 27839, Note_on_c, 4, 58, 0
6, 27900, Note_on_c, 4, 70, 114
6, 28067, Note_on_c, 4, 70, 0
6, 28080, Note_on_c, 4, 70, 114
6, 28247, Note_on_c, 4, 70, 0
6, 28320, Note_on_c, 4, 65, 114
6, 28379, Note_on_c, 4, 65, 0
6, 28380, Note_on_c, 4, 65, 114
6, 28439, Note_on_c, 4, 65, 0
6, 28440, Note_on_c, 4, 65, 114
6, 28559, Note_on_c, 4, 65, 0
6, 28620, Note_on_c, 4, 63, 114
6, 28658, Note_on_c, 4, 63, 0
6, 28680, Note_on_c, 4, 67, 114
6, 28718, Note_on_c, 4, 67, 0
6, 28740, Note_on_c, 4, 70, 114
6, 28778, Note_on_c, 4, 70, 0
6, 28800, Note_on_c, 4, 58, 114
6, 28838, Note_on_c, 4, 58, 0
6, 28860, Note_on_c, 4, 58, 114
6, 28879, Note_on_c, 4, 58, 0
6, 28890, Note_on_c, 4, 60, 114
6, 28909, Note_on_c, 4, 60, 0
6, 28920, Note_on_c, 4, 62, 114
6, 28939, Note_on_c, 4, 62, 0
6, 28950, Note_on_c, 4, 58, 114
6, 28969, Note_on_c, 4, 58, 0
6, 28980, Note_on_c, 4, 63, 114
6, 29018, Note_on_c, 4, 63, 0
6, 29040, Note_on_c, 4, 67, 114
6, 29078, Note_on_c, 4, 67, 0
6, 29100, Note_on_c, 4, 70, 114
6, 29138, Note_on_c, 4, 70, 0
6, 29160, Note_on_c, 4, 58, 114
6, 29279, Note_on_c, 4, 58, 0
6, 29340, Note_on_c, 4, 70, 114
6, 29507, Note_on_c, 4, 70, 0
6, 29520, Note_on_c, 4, 70, 114
6, 29687, Note_on_c, 4, 70, 0
6, 29760, Note_on_c, 4, 58, 114
6, 29814, Note_on_c, 4, 58, 0
6, 29820, Note_on_c, 4, 58, 114
6, 29874, Note_on_c, 4, 58, 0
6, 29880, Note_on_c, 4, 58, 114
6, 29939, Note_on_c, 4, 58, 0
6, 29940, Note_on_c, 4, 55, 114
6, 29999, Note_on_c, 4, 55, 0
6, 30000, Note_on_c, 4, 58, 114
6, 30059, Note_on_c, 4, 58, 0
6, 30060, Note_on_c, 4, 51, 114
6, 30119, Note_on_c, 4, 51, 0
6, 30120, Note_on_c, 4, 55, 114
6, 30179, Note_on_c, 4, 55, 0
6, 30180, Note_on_c, 4, 58, 114
6, 30239, Note_on_c, 4, 58, 0
6, 30240, Note_on_c, 4, 63, 127
6, 30299, Note_on_c, 4, 63, 0
6, 30300, Note_on_c, 4, 58, 127
6, 30359, Note_on_c, 4, 58, 0
6, 30360, Note_on_c, 4, 58, 127
6, 30419, Note_on_c, 4, 58, 0
6, 30420, Note_on_c, 4, 58, 127
6, 30503, Note_on_c, 4, 58, 0
6, 30503, End_track
7, 0, Start_track
7, 0, MIDI_port, 0
7, 0, Title_t, "Cello"
7, 0, Program_c, 5, 42
7, 181, Note_on_c, 5, 51, 114
7, 225, Note_on_c, 5, 51, 0
7, 241, Note_on_c, 5, 55, 114
7, 285, Note_on_c, 5, 55, 0
7, 301, Note_on_c, 5, 58, 114
7, 345, Note_on_c, 5, 58, 0
7, 361, Note_on_c, 5, 46, 114
7, 405, Note_on_c, 5, 46, 0
7, 421, Note_on_c, 5, 46, 114
7, 443, Note_on_c, 5, 46, 0
7, 451, Note_on_c, 5, 48, 114
7, 473, Note_on_c, 5, 48, 0
7, 481, Note_on_c, 5, 50, 114
7, 503, Note_on_c, 5, 50, 0
7, 511, Note_on_c, 5, 46, 114
7, 533, Note_on_c, 5, 46, 0
7, 541, Note_on_c, 5, 51, 114
7, 585, Note_on_c, 5, 51, 0
7, 601, Note_on_c, 5, 55, 114
7, 645, Note_on_c, 5, 55, 0
7, 661, Note_on_c, 5, 58, 114
7, 705, Note_on_c, 5, 58, 0
7, 721, Note_on_c, 5, 46, 114
7, 840, Note_on_c, 5, 46, 0
7, 901, Note_on_c, 5, 46, 114
7, 960, Note_on_c, 5, 46, 0
7, 961, Note_on_c, 5, 48, 114
7, 1020, Note_on_c, 5, 48, 0
7, 1021, Note_on_c, 5, 50, 114
7, 1080, Note_on_c, 5, 50, 0
7, 1081, Note_on_c, 5, 51, 114
7, 1140, Note_on_c, 5, 51, 0
7, 1141, Note_on_c, 5, 53, 114
7, 1200, Note_on_c, 5, 53, 0
7, 1201, Note_on_c, 5, 55, 114
7, 1260, Note_on_c, 5, 55, 0
7, 1261, Note_on_c, 5, 44, 114
7, 1380, Note_on_c, 5, 44, 0
7, 1381, Note_on_c, 5, 45, 114
7, 1440, Note_on_c, 5, 45, 0
7, 1441, Note_on_c, 5, 46, 114
7, 1500, Note_on_c, 5, 46, 0
7, 1501, Note_on_c, 5, 46, 114
7, 1560, Note_on_c, 5, 46, 0
7, 1621, Note_on_c, 5, 51, 114
7, 1665, Note_on_c, 5, 51, 0
7, 1681, Note_on_c, 5, 55, 114
7, 1725, Note_on_c, 5, 55, 0
7, 1741, Note_on_c, 5, 58, 114
7, 1785, Note_on_c, 5, 58, 0
7, 1801, Note_on_c, 5, 46, 114
7, 1845, Note_on_c, 5, 46, 0
7, 1861, Note_on_c, 5, 46, 114
7, 1883, Note_on_c, 5, 46, 0
7, 1891, Note_on_c, 5, 48, 114
7, 1913, Note_on_c, 5, 48, 0
7, 1921, Note_on_c, 5, 50, 114
7, 1943, Note_on_c, 5, 50, 0
7, 1951, Note_on_c, 5, 46, 114
7, 1973, Note_on_c, 5, 46, 0
7, 1981, Note_on_c, 5, 51, 114
7, 2025, Note_on_c, 5, 51, 0
7, 2041, Note_on_c, 5, 55, 114
7, 2085, Note_on_c, 5, 55, 0
7, 2101, Note_on_c, 5, 58, 114
7, 2145, Note_on_c, 5, 58, 0
7, 2161, Note_on_c, 5, 46, 114
7, 2280, Note_on_c, 5, 46, 0
7, 2341, Note_on_c, 5, 46, 114
7, 2400, Note_on_c, 5, 46, 0
7, 2401, Note_on_c, 5, 48, 114
7, 2460, Note_on_c, 5, 48, 0
7, 2461, Note_on_c, 5, 50, 114
7, 2520, Note_on_c, 5, 50, 0
7, 2521, Note_on_c, 5, 51, 114
7, 2580, Note_on_c, 5, 51, 0
7, 2581, Note_on_c, 5, 53, 114
7, 2640, Note_on_c, 5, 53, 0
7, 2641, Note_on_c, 5, 55, 114
7, 2700, Note_on_c, 5, 55, 0
7, 2701, Note_on_c, 5, 56, 114
7, 2760, Note_on_c, 5, 56, 0
7, 2761, Note_on_c, 5, 58, 114
7, 2820, Note_on_c, 5, 58, 0
7, 2821, Note_on_c, 5, 46, 114
7, 2880, Note_on_c, 5, 46, 0
7, 2881, Note_on_c, 5, 51, 114
7, 2958, Note_on_c, 5, 51, 0
7, 3061, Note_on_c, 5, 51, 114
7, 3105, Note_on_c, 5, 51, 0
7, 3121, Note_on_c, 5, 55, 114
7, 3165, Note_on_c, 5, 55, 0
7, 3181, Note_on_c, 5, 58, 114
7, 3225, Note_on_c, 5, 58, 0
7, 3241, Note_on_c, 5, 46, 114
7, 3285, Note_on_c, 5, 46, 0
7, 3301, Note_on_c, 5, 46, 114
7, 3323, Note_on_c, 5, 46, 0
7, 3331, Note_on_c, 5, 48, 114
7, 3353, Note_on_c, 5, 48, 0
7, 3361, Note_on_c, 5, 50, 114
7, 3383, Note_on_c, 5, 50, 0
7, 3391, Note_on_c, 5, 46, 114
7, 3413, Note_on_c, 5, 46, 0
7, 3421, Note_on_c, 5, 51, 114
7, 3465, Note_on_c, 5, 51, 0
7, 3481, Note_on_c, 5, 55, 114
7, 3525, Note_on_c, 5, 55, 0
7, 3541, Note_on_c, 5, 58, 114
7, 3585, Note_on_c, 5, 58, 0
7, 3601, Note_on_c, 5, 46, 114
7, 3720, Note_on_c, 5, 46, 0
7, 3781, Note_on_c, 5, 46, 114
7, 3840, Note_on_c, 5, 46, 0
7, 3841, Note_on_c, 5, 48, 114
7, 3900, Note_on_c, 5, 48, 0
7, 3901, Note_on_c, 5, 50, 114
7, 3960, Note_on_c, 5, 50, 0
7, 3961, Note_on_c, 5, 51, 114
7, 4020, Note_on_c, 5, 51, 0
7, 4021, Note_on_c, 5, 53, 114
7, 4080, Note_on_c, 5, 53, 0
7, 4081, Note_on_c, 5, 55, 114
7, 4140, Note_on_c, 5, 55, 0
7, 4141, Note_on_c, 5, 44, 114
7, 4260, Note_on_c, 5, 44, 0
7, 4261, Note_on_c, 5, 45, 114
7, 4320, Note_on_c, 5, 45, 0
7, 4321, Note_on_c, 5, 46, 114
7, 4380, Note_on_c, 5, 46, 0
7, 4381, Note_on_c, 5, 46, 114
7, 4440, Note_on_c, 5, 46, 0
7, 4501, Note_on_c, 5, 51, 114
7, 4545, Note_on_c, 5, 51, 0
7, 4561, Note_on_c, 5, 55, 114
7, 4605, Note_on_c, 5, 55, 0
7, 4621, Note_on_c, 5, 58, 114
7, 4665, Note_on_c, 5, 58, 0
7, 4681, Note_on_c, 5, 46, 114
7, 4725, Note_on_c, 5, 46, 0
7, 4741, Note_on_c, 5, 46, 114
7, 4763, Note_on_c, 5, 46, 0
7, 4771, Note_on_c, 5, 48, 114
7, 4793, Note_on_c, 5, 48, 0
7, 4801, Note_on_c, 5, 50, 114
7, 4823, Note_on_c, 5, 50, 0
7, 4831, Note_on_c, 5, 46, 114
7, 4853, Note_on_c, 5, 46, 0
7, 4861, Note_on_c, 5, 51, 114
7, 4905, Note_on_c, 5, 51, 0
7, 4921, Note_on_c, 5, 55, 114
7, 4965, Note_on_c, 5, 55, 0
7, 4981, Note_on_c, 5, 58, 114
7, 5025, Note_on_c, 5, 58, 0
7, 5041, Note_on_c, 5, 46, 114
7, 5160, Note_on_c, 5, 46, 0
7, 5221, Note_on_c, 5, 46, 114
7, 5280, Note_on_c, 5, 46, 0
7, 5281, Note_on_c, 5, 48, 114
7, 5340, Note_on_c, 5, 48, 0
7, 5341, Note_on_c, 5, 50, 114
7, 5400, Note_on_c, 5, 50, 0
7, 5401, Note_on_c, 5, 51, 114
7, 5460, Note_on_c, 5, 51, 0
7, 5461, Note_on_c, 5, 53, 114
7, 5520, Note_on_c, 5, 53, 0
7, 5521, Note_on_c, 5, 55, 114
7, 5580, Note_on_c, 5, 55, 0
7, 5581, Note_on_c, 5, 56, 114
7, 5640, Note_on_c, 5, 56, 0
7, 5641, Note_on_c, 5, 58, 114
7, 5700, Note_on_c, 5, 58, 0
7, 5701, Note_on_c, 5, 46, 114
7, 5760, Note_on_c, 5, 46, 0
7, 5761, Note_on_c, 5, 51, 114
7, 5838, Note_on_c, 5, 51, 0
7, 6601, Note_on_c, 5, 65, 114
7, 6660, Note_on_c, 5, 65, 0
7, 6661, Note_on_c, 5, 64, 114
7, 6720, Note_on_c, 5, 64, 0
7, 6721, Note_on_c, 5, 65, 114
7, 6780, Note_on_c, 5, 65, 0
7, 6781, Note_on_c, 5, 63, 114
7, 6840, Note_on_c, 5, 63, 0
7, 6841, Note_on_c, 5, 61, 114
7, 6900, Note_on_c, 5, 61, 0
7, 6901, Note_on_c, 5, 62, 114
7, 6960, Note_on_c, 5, 62, 0
7, 6961, Note_on_c, 5, 57, 114
7, 7020, Note_on_c, 5, 57, 0
7, 7021, Note_on_c, 5, 58, 114
7, 7080, Note_on_c, 5, 58, 0
7, 7081, Note_on_c, 5, 54, 114
7, 7140, Note_on_c, 5, 54, 0
7, 7141, Note_on_c, 5, 52, 114
7, 7200, Note_on_c, 5, 52, 0
7, 7201, Note_on_c, 5, 53, 114
7, 7230, Note_on_c, 5, 53, 0
7, 7231, Note_on_c, 5, 55, 114
7, 7245, Note_on_c, 5, 55, 0
7, 7246, Note_on_c, 5, 57, 114
7, 7260, Note_on_c, 5, 57, 0
7, 7261, Note_on_c, 5, 58, 114
7, 7275, Note_on_c, 5, 58, 0
7, 7276, Note_on_c, 5, 60, 114
7, 7290, Note_on_c, 5, 60, 0
7, 7291, Note_on_c, 5, 62, 114
7, 7305, Note_on_c, 5, 62, 0
7, 7306, Note_on_c, 5, 64, 114
7, 7320, Note_on_c, 5, 64, 0
7, 7321, Note_on_c, 5, 65, 114
7, 7380, Note_on_c, 5, 65, 0
7, 7381, Note_on_c, 5, 64, 114
7, 7440, Note_on_c, 5, 64, 0
7, 7441, Note_on_c, 5, 65, 114
7, 7500, Note_on_c, 5, 65, 0
7, 7501, Note_on_c, 5, 63, 114
7, 7560, Note_on_c, 5, 63, 0
7, 7561, Note_on_c, 5, 61, 114
7, 7620, Note_on_c, 5, 61, 0
7, 7621, Note_on_c, 5, 62, 114
7, 7680, Note_on_c, 5, 62, 0
7, 7681, Note_on_c, 5, 57, 114
7, 7740, Note_on_c, 5, 57, 0
7, 7741, Note_on_c, 5, 58, 114
7, 7800, Note_on_c, 5, 58, 0
7, 7801, Note_on_c, 5, 54, 114
7, 7860, Note_on_c, 5, 54, 0
7, 7861, Note_on_c, 5, 52, 114
7, 7920, Note_on_c, 5, 52, 0
7, 7921, Note_on_c, 5, 53, 114
7, 8040, Note_on_c, 5, 53, 0
7, 8641, Note_on_c, 5, 53, 114
7, 8760, Note_on_c, 5, 53, 0
7, 9361, Note_on_c, 5, 53, 114
7, 9480, Note_on_c, 5, 53, 0
7, 9541, Note_on_c, 5, 46, 114
7, 9600, Note_on_c, 5, 46, 0
7, 9601, Note_on_c, 5, 48, 72
7, 9660, Note_on_c, 5, 48, 0
7, 9661, Note_on_c, 5, 50, 72
7, 9720, Note_on_c, 5, 50, 0
7, 9721, Note_on_c, 5, 48, 114
7, 9780, Note_on_c, 5, 48, 0
7, 9781, Note_on_c, 5, 50, 72
7, 9840, Note_on_c, 5, 50, 0
7, 9841, Note_on_c, 5, 51, 72
7, 9900, Note_on_c, 5, 51, 0
7, 9901, Note_on_c, 5, 50, 114
7, 9960, Note_on_c, 5, 50, 0
7, 9961, Note_on_c, 5, 51, 72
7, 10020, Note_on_c, 5, 51, 0
7, 10021, Note_on_c, 5, 53, 72
7, 10080, Note_on_c, 5, 53, 0
7, 10081, Note_on_c, 5, 51, 114
7, 10140, Note_on_c, 5, 51, 0
7, 10141, Note_on_c, 5, 53, 72
7, 10200, Note_on_c, 5, 53, 0
7, 10201, Note_on_c, 5, 55, 72
7, 10260, Note_on_c, 5, 55, 0
7, 10261, Note_on_c, 5, 53, 114
7, 10320, Note_on_c, 5, 53, 0
7, 10321, Note_on_c, 5, 55, 72
7, 10380, Note_on_c, 5, 55, 0
7, 10381, Note_on_c, 5, 57, 72
7, 10440, Note_on_c, 5, 57, 0
7, 10441, Note_on_c, 5, 55, 114
7, 10500, Note_on_c, 5, 55, 0
7, 10501, Note_on_c, 5, 57, 72
7, 10560, Note_on_c, 5, 57, 0
7, 10561, Note_on_c, 5, 58, 72
7, 10620, Note_on_c, 5, 58, 0
7, 10621, Note_on_c, 5, 57, 114
7, 10680, Note_on_c, 5, 57, 0
7, 10681, Note_on_c, 5, 58, 72
7, 10740, Note_on_c, 5, 58, 0
7, 10741, Note_on_c, 5, 60, 72
7, 10800, Note_on_c, 5, 60, 0
7, 10801, Note_on_c, 5, 58, 114
7, 10920, Note_on_c, 5, 58, 0
7, 10921, Note_on_c, 5, 50, 114
7, 10980, Note_on_c, 5, 50, 0
7, 10981, Note_on_c, 5, 51, 92
7, 11040, Note_on_c, 5, 51, 0
7, 11041, Note_on_c, 5, 53, 92
7, 11100, Note_on_c, 5, 53, 0
7, 11101, Note_on_c, 5, 41, 92
7, 11160, Note_on_c, 5, 41, 0
7, 11161, Note_on_c, 5, 46, 92
7, 11280, Note_on_c, 5, 46, 0
7, 11341, Note_on_c, 5, 46, 114
7, 11400, Note_on_c, 5, 46, 0
7, 11401, Note_on_c, 5, 48, 72
7, 11460, Note_on_c, 5, 48, 0
7, 11461, Note_on_c, 5, 50, 72
7, 11520, Note_on_c, 5, 50, 0
7, 11521, Note_on_c, 5, 48, 114
7, 11580, Note_on_c, 5, 48, 0
7, 11581, Note_on_c, 5, 50, 72
7, 11640, Note_on_c, 5, 50, 0
7, 11641, Note_on_c, 5, 51, 72
7, 11700, Note_on_c, 5, 51, 0
7, 11701, Note_on_c, 5, 50, 114
7, 11760, Note_on_c, 5, 50, 0
7, 11761, Note_on_c, 5, 51, 72
7, 11820, Note_on_c, 5, 51, 0
7, 11821, Note_on_c, 5, 53, 72
7, 11880, Note_on_c, 5, 53, 0
7, 11881, Note_on_c, 5, 51, 114
7, 11940, Note_on_c, 5, 51, 0
7, 11941, Note_on_c, 5, 53, 72
7, 12000, Note_on_c, 5, 53, 0
7, 12001, Note_on_c, 5, 55, 72
7, 12060, Note_on_c, 5, 55, 0
7, 12061, Note_on_c, 5, 41, 114
7, 12120, Note_on_c, 5, 41, 0
7, 12121, Note_on_c, 5, 43, 72
7, 12180, Note_on_c, 5, 43, 0
7, 12181, Note_on_c, 5, 45, 72
7, 12240, Note_on_c, 5, 45, 0
7, 12241, Note_on_c, 5, 43, 114
7, 12300, Note_on_c, 5, 43, 0
7, 12301, Note_on_c, 5, 45, 72
7, 12360, Note_on_c, 5, 45, 0
7, 12361, Note_on_c, 5, 46, 72
7, 12420, Note_on_c, 5, 46, 0
7, 12421, Note_on_c, 5, 45, 114
7, 12480, Note_on_c, 5, 45, 0
7, 12481, Note_on_c, 5, 46, 72
7, 12540, Note_on_c, 5, 46, 0
7, 12541, Note_on_c, 5, 48, 72
7, 12600, Note_on_c, 5, 48, 0
7, 12601, Note_on_c, 5, 46, 114
7, 12720, Note_on_c, 5, 46, 0
7, 12721, Note_on_c, 5, 50, 80
7, 12780, Note_on_c, 5, 50, 0
7, 12781, Note_on_c, 5, 51, 80
7, 12840, Note_on_c, 5, 51, 0
7, 12841, Note_on_c, 5, 53, 80
7, 12900, Note_on_c, 5, 53, 0
7, 12901, Note_on_c, 5, 41, 68
7, 12960, Note_on_c, 5, 41, 0
7, 12961, Note_on_c, 5, 46, 68
7, 13080, Note_on_c, 5, 46, 0
7, 13141, Note_on_c, 5, 51, 97
7, 13200, Note_on_c, 5, 51, 0
7, 13201, Note_on_c, 5, 53, 97
7, 13260, Note_on_c, 5, 53, 0
7, 13261, Note_on_c, 5, 41, 97
7, 13320, Note_on_c, 5, 41, 0
7, 13321, Note_on_c, 5, 46, 97
7, 13380, Note_on_c, 5, 46, 0
7, 13381, Note_on_c, 5, 50, 97
7, 13440, Note_on_c, 5, 50, 0
7, 13441, Note_on_c, 5, 53, 97
7, 13500, Note_on_c, 5, 53, 0
7, 13501, Note_on_c, 5, 46, 97
7, 13620, Note_on_c, 5, 46, 0
7, 13681, Note_on_c, 5, 46, 97
7, 13740, Note_on_c, 5, 46, 0
7, 13741, Note_on_c, 5, 46, 97
7, 13800, Note_on_c, 5, 46, 0
7, 13801, Note_on_c, 5, 46, 97
7, 13860, Note_on_c, 5, 46, 0
7, 13861, Note_on_c, 5, 46, 97
7, 13920, Note_on_c, 5, 46, 0
7, 13921, Note_on_c, 5, 58, 97
7, 13950, Note_on_c, 5, 58, 0
7, 13951, Note_on_c, 5, 56, 97
7, 13980, Note_on_c, 5, 56, 0
7, 13981, Note_on_c, 5, 55, 97
7, 14010, Note_on_c, 5, 55, 0
7, 14011, Note_on_c, 5, 53, 97
7, 14040, Note_on_c, 5, 53, 0
7, 14041, Note_on_c, 5, 51, 114
7, 14079, Note_on_c, 5, 51, 0
7, 14101, Note_on_c, 5, 55, 114
7, 14139, Note_on_c, 5, 55, 0
7, 14161, Note_on_c, 5, 58, 114
7, 14199, Note_on_c, 5, 58, 0
7, 14221, Note_on_c, 5, 46, 114
7, 14259, Note_on_c, 5, 46, 0
7, 14281, Note_on_c, 5, 46, 114
7, 14300, Note_on_c, 5, 46, 0
7, 14311, Note_on_c, 5, 48, 114
7, 14330, Note_on_c, 5, 48, 0
7, 14341, Note_on_c, 5, 50, 114
7, 14360, Note_on_c, 5, 50, 0
7, 14371, Note_on_c, 5, 46, 114
7, 14390, Note_on_c, 5, 46, 0
7, 14401, Note_on_c, 5, 51, 114
7, 14439, Note_on_c, 5, 51, 0
7, 14461, Note_on_c, 5, 55, 114
7, 14499, Note_on_c, 5, 55, 0
7, 14521, Note_on_c, 5, 58, 114
7, 14559, Note_on_c, 5, 58, 0
7, 14581, Note_on_c, 5, 46, 114
7, 14700, Note_on_c, 5, 46, 0
7, 14761, Note_on_c, 5, 46, 114
7, 14820, Note_on_c, 5, 46, 0
7, 14821, Note_on_c, 5, 48, 114
7, 14880, Note_on_c, 5, 48, 0
7, 14881, Note_on_c, 5, 50, 114
7, 14940, Note_on_c, 5, 50, 0
7, 14941, Note_on_c, 5, 51, 114
7, 15000, Note_on_c, 5, 51, 0
7, 15001, Note_on_c, 5, 53, 114
7, 15060, Note_on_c, 5, 53, 0
7, 15061, Note_on_c, 5, 55, 114
7, 15120, Note_on_c, 5, 55, 0
7, 15121, Note_on_c, 5, 44, 114
7, 15240, Note_on_c, 5, 44, 0
7, 15241, Note_on_c, 5, 45, 114
7, 15300, Note_on_c, 5, 45, 0
7, 15301, Note_on_c, 5, 46, 114
7, 15360, Note_on_c, 5, 46, 0
7, 15361, Note_on_c, 5, 46, 114
7, 15420, Note_on_c, 5, 46, 0
7, 15481, Note_on_c, 5, 51, 114
7, 15519, Note_on_c, 5, 51, 0
7, 15541, Note_on_c, 5, 55, 114
7, 15579, Note_on_c, 5, 55, 0
7, 15601, Note_on_c, 5, 58, 114
7, 15639, Note_on_c, 5, 58, 0
7, 15661, Note_on_c, 5, 46, 114
7, 15699, Note_on_c, 5, 46, 0
7, 15721, Note_on_c, 5, 46, 114
7, 15740, Note_on_c, 5, 46, 0
7, 15751, Note_on_c, 5, 48, 114
7, 15770, Note_on_c, 5, 48, 0
7, 15781, Note_on_c, 5, 50, 114
7, 15800, Note_on_c, 5, 50, 0
7, 15811, Note_on_c, 5, 46, 114
7, 15830, Note_on_c, 5, 46, 0
7, 15841, Note_on_c, 5, 51, 114
7, 15879, Note_on_c, 5, 51, 0
7, 15901, Note_on_c, 5, 55, 114
7, 15939, Note_on_c, 5, 55, 0
7, 15961, Note_on_c, 5, 58, 114
7, 15999, Note_on_c, 5, 58, 0
7, 16021, Note_on_c, 5, 46, 114
7, 16140, Note_on_c, 5, 46, 0
7, 16201, Note_on_c, 5, 46, 114
7, 16260, Note_on_c, 5, 46, 0
7, 16261, Note_on_c, 5, 48, 114
7, 16320, Note_on_c, 5, 48, 0
7, 16321, Note_on_c, 5, 50, 114
7, 16380, Note_on_c, 5, 50, 0
7, 16381, Note_on_c, 5, 51, 114
7, 16440, Note_on_c, 5, 51, 0
7, 16441, Note_on_c, 5, 53, 114
7, 16500, Note_on_c, 5, 53, 0
7, 16501, Note_on_c, 5, 55, 114
7, 16560, Note_on_c, 5, 55, 0
7, 16561, Note_on_c, 5, 56, 114
7, 16620, Note_on_c, 5, 56, 0
7, 16621, Note_on_c, 5, 58, 114
7, 16680, Note_on_c, 5, 58, 0
7, 16681, Note_on_c, 5, 46, 114
7, 16740, Note_on_c, 5, 46, 0
7, 16741, Note_on_c, 5, 51, 114
7, 16818, Note_on_c, 5, 51, 0
7, 17581, Note_on_c, 5, 65, 114
7, 17640, Note_on_c, 5, 65, 0
7, 17641, Note_on_c, 5, 64, 114
7, 17700, Note_on_c, 5, 64, 0
7, 17701, Note_on_c, 5, 65, 114
7, 17760, Note_on_c, 5, 65, 0
7, 17761, Note_on_c, 5, 63, 114
7, 17820, Note_on_c, 5, 63, 0
7, 17821, Note_on_c, 5, 61, 114
7, 17880, Note_on_c, 5, 61, 0
7, 17881, Note_on_c, 5, 62, 114
7, 17940, Note_on_c, 5, 62, 0
7, 17941, Note_on_c, 5, 57, 114
7, 18000, Note_on_c, 5, 57, 0
7, 18001, Note_on_c, 5, 58, 114
7, 18060, Note_on_c, 5, 58, 0
7, 18061, Note_on_c, 5, 54, 114
7, 18120, Note_on_c, 5, 54, 0
7, 18121, Note_on_c, 5, 52, 114
7, 18180, Note_on_c, 5, 52, 0
7, 18181, Note_on_c, 5, 53, 114
7, 18210, Note_on_c, 5, 53, 0
7, 18211, Note_on_c, 5, 55, 114
7, 18225, Note_on_c, 5, 55, 0
7, 18226, Note_on_c, 5, 57, 114
7, 18240, Note_on_c, 5, 57, 0
7, 18241, Note_on_c, 5, 58, 114
7, 18255, Note_on_c, 5, 58, 0
7, 18256, Note_on_c, 5, 60, 114
7, 18270, Note_on_c, 5, 60, 0
7, 18271, Note_on_c, 5, 62, 114
7, 18285, Note_on_c, 5, 62, 0
7, 18286, Note_on_c, 5, 64, 114
7, 18300, Note_on_c, 5, 64, 0
7, 18301, Note_on_c, 5, 65, 114
7, 18360, Note_on_c, 5, 65, 0
7, 18361, Note_on_c, 5, 64, 114
7, 18420, Note_on_c, 5, 64, 0
7, 18421, Note_on_c, 5, 65, 114
7, 18480, Note_on_c, 5, 65, 0
7, 18481, Note_on_c, 5, 63, 114
7, 18540, Note_on_c, 5, 63, 0
7, 18541, Note_on_c, 5, 61, 114
7, 18600, Note_on_c, 5, 61, 0
7, 18601, Note_on_c, 5, 62, 114
7, 18660, Note_on_c, 5, 62, 0
7, 18661, Note_on_c, 5, 57, 114
7, 18720, Note_on_c, 5, 57, 0
7, 18721, Note_on_c, 5, 58, 114
7, 18780, Note_on_c, 5, 58, 0
7, 18781, Note_on_c, 5, 54, 114
7, 18840, Note_on_c, 5, 54, 0
7, 18841, Note_on_c, 5, 52, 114
7, 18900, Note_on_c, 5, 52, 0
7, 18901, Note_on_c, 5, 53, 114
7, 19020, Note_on_c, 5, 53, 0
7, 19621, Note_on_c, 5, 53, 114
7, 19740, Note_on_c, 5, 53, 0
7, 20341, Note_on_c, 5, 53, 114
7, 20460, Note_on_c, 5, 53, 0
7, 20521, Note_on_c, 5, 46, 114
7, 20580, Note_on_c, 5, 46, 0
7, 20581, Note_on_c, 5, 48, 63
7, 20640, Note_on_c, 5, 48, 0
7, 20641, Note_on_c, 5, 50, 63
7, 20700, Note_on_c, 5, 50, 0
7, 20701, Note_on_c, 5, 48, 114
7, 20760, Note_on_c, 5, 48, 0
7, 20761, Note_on_c, 5, 50, 63
7, 20820, Note_on_c, 5, 50, 0
7, 20821, Note_on_c, 5, 51, 63
7, 20880, Note_on_c, 5, 51, 0
7, 20881, Note_on_c, 5, 50, 114
7, 20940, Note_on_c, 5, 50, 0
7, 20941, Note_on_c, 5, 51, 63
7, 21000, Note_on_c, 5, 51, 0
7, 21001, Note_on_c, 5, 53, 63
7, 21060, Note_on_c, 5, 53, 0
7, 21061, Note_on_c, 5, 51, 114
7, 21120, Note_on_c, 5, 51, 0
7, 21121, Note_on_c, 5, 53, 63
7, 21180, Note_on_c, 5, 53, 0
7, 21181, Note_on_c, 5, 55, 63
7, 21240, Note_on_c, 5, 55, 0
7, 21241, Note_on_c, 5, 53, 114
7, 21300, Note_on_c, 5, 53, 0
7, 21301, Note_on_c, 5, 55, 63
7, 21360, Note_on_c, 5, 55, 0
7, 21361, Note_on_c, 5, 57, 63
7, 21420, Note_on_c, 5, 57, 0
7, 21421, Note_on_c, 5, 55, 114
7, 21480, Note_on_c, 5, 55, 0
7, 21481, Note_on_c, 5, 57, 63
7, 21540, Note_on_c, 5, 57, 0
7, 21541, Note_on_c, 5, 58, 63
7, 21600, Note_on_c, 5, 58, 0
7, 21601, Note_on_c, 5, 57, 114
7, 21660, Note_on_c, 5, 57, 0
7, 21661, Note_on_c, 5, 58, 63
7, 21720, Note_on_c, 5, 58, 0
7, 21721, Note_on_c, 5, 60, 63
7, 21780, Note_on_c, 5, 60, 0
7, 21781, Note_on_c, 5, 58, 114
7, 21900, Note_on_c, 5, 58, 0
7, 21901, Note_on_c, 5, 50, 114
7, 21960, Note_on_c, 5, 50, 0
7, 21961, Note_on_c, 5, 51, 114
7, 22020, Note_on_c, 5, 51, 0
7, 22021, Note_on_c, 5, 53, 114
7, 22080, Note_on_c, 5, 53, 0
7, 22081, Note_on_c, 5, 41, 114
7, 22140, Note_on_c, 5, 41, 0
7, 22141, Note_on_c, 5, 46, 114
7, 22260, Note_on_c, 5, 46, 0
7, 22321, Note_on_c, 5, 46, 114
7, 22380, Note_on_c, 5, 46, 0
7, 22381, Note_on_c, 5, 48, 63
7, 22440, Note_on_c, 5, 48, 0
7, 22441, Note_on_c, 5, 50, 63
7, 22500, Note_on_c, 5, 50, 0
7, 22501, Note_on_c, 5, 48, 114
7, 22560, Note_on_c, 5, 48, 0
7, 22561, Note_on_c, 5, 50, 63
7, 22620, Note_on_c, 5, 50, 0
7, 22621, Note_on_c, 5, 51, 63
7, 22680, Note_on_c, 5, 51, 0
7, 22681, Note_on_c, 5, 50, 114
7, 22740, Note_on_c, 5, 50, 0
7, 22741, Note_on_c, 5, 51, 63
7, 22800, Note_on_c, 5, 51, 0
7, 22801, Note_on_c, 5, 53, 63
7, 22860, Note_on_c, 5, 53, 0
7, 22861, Note_on_c, 5, 51, 114
7, 22920, Note_on_c, 5, 51, 0
7, 22921, Note_on_c, 5, 53, 63
7, 22980, Note_on_c, 5, 53, 0
7, 22981, Note_on_c, 5, 55, 63
7, 23040, Note_on_c, 5, 55, 0
7, 23041, Note_on_c, 5, 41, 114
7, 23100, Note_on_c, 5, 41, 0
7, 23101, Note_on_c, 5, 43, 63
7, 23160, Note_on_c, 5, 43, 0
7, 23161, Note_on_c, 5, 45, 63
7, 23220, Note_on_c, 5, 45, 0
7, 23221, Note_on_c, 5, 43, 114
7, 23280, Note_on_c, 5, 43, 0
7, 23281, Note_on_c, 5, 45, 63
7, 23340, Note_on_c, 5, 45, 0
7, 23341, Note_on_c, 5, 46, 63
7, 23400, Note_on_c, 5, 46, 0
7, 23401, Note_on_c, 5, 45, 114
7, 23460, Note_on_c, 5, 45, 0
7, 23461, Note_on_c, 5, 46, 63
7, 23520, Note_on_c, 5, 46, 0
7, 23521, Note_on_c, 5, 48, 63
7, 23580, Note_on_c, 5, 48, 0
7, 23581, Note_on_c, 5, 46, 114
7, 23700, Note_on_c, 5, 46, 0
7, 23701, Note_on_c, 5, 50, 114
7, 23760, Note_on_c, 5, 50, 0
7, 23761, Note_on_c, 5, 51, 114
7, 23820, Note_on_c, 5, 51, 0
7, 23821, Note_on_c, 5, 53, 114
7, 23880, Note_on_c, 5, 53, 0
7, 23881, Note_on_c, 5, 41, 114
7, 23940, Note_on_c, 5, 41, 0
7, 23941, Note_on_c, 5, 46, 114
7, 24060, Note_on_c, 5, 46, 0
7, 24121, Note_on_c, 5, 51, 114
7, 24180, Note_on_c, 5, 51, 0
7, 24181, Note_on_c, 5, 53, 114
7, 24240, Note_on_c, 5, 53, 0
7, 24241, Note_on_c, 5, 41, 114
7, 24300, Note_on_c, 5, 41, 0
7, 24301, Note_on_c, 5, 46, 114
7, 24360, Note_on_c, 5, 46, 0
7, 24361, Note_on_c, 5, 50, 114
7, 24420, Note_on_c, 5, 50, 0
7, 24421, Note_on_c, 5, 53, 114
7, 24480, Note_on_c, 5, 53, 0
7, 24481, Note_on_c, 5, 46, 114
7, 24600, Note_on_c, 5, 46, 0
7, 24661, Note_on_c, 5, 46, 114
7, 24720, Note_on_c, 5, 46, 0
7, 24721, Note_on_c, 5, 46, 114
7, 24780, Note_on_c, 5, 46, 0
7, 24781, Note_on_c, 5, 46, 114
7, 24840, Note_on_c, 5, 46, 0
7, 24841, Note_on_c, 5, 46, 114
7, 25020, Note_on_c, 5, 46, 0
7, 25740, Note_on_c, 5, 56, 58
7, 25910, Note_on_c, 5, 56, 0
7, 25920, Note_on_c, 5, 55, 58
7, 26090, Note_on_c, 5, 55, 0
7, 26100, Note_on_c, 5, 53, 114
7, 26270, Note_on_c, 5, 53, 0
7, 26280, Note_on_c, 5, 51, 114
7, 26450, Note_on_c, 5, 51, 0
7, 27060, Note_on_c, 5, 58, 114
7, 27089, Note_on_c, 5, 58, 0
7, 27090, Note_on_c, 5, 56, 114
7, 27119, Note_on_c, 5, 56, 0
7, 27120, Note_on_c, 5, 55, 114
7, 27149, Note_on_c, 5, 55, 0
7, 27150, Note_on_c, 5, 53, 114
7, 27179, Note_on_c, 5, 53, 0
7, 27180, Note_on_c, 5, 51, 114
7, 27218, Note_on_c, 5, 51, 0
7, 27240, Note_on_c, 5, 55, 114
7, 27278, Note_on_c, 5, 55, 0
7, 27300, Note_on_c, 5, 58, 114
7, 27338, Note_on_c, 5, 58, 0
7, 27360, Note_on_c, 5, 46, 114
7, 27398, Note_on_c, 5, 46, 0
7, 27420, Note_on_c, 5, 46, 114
7, 27439, Note_on_c, 5, 46, 0
7, 27450, Note_on_c, 5, 48, 114
7, 27469, Note_on_c, 5, 48, 0
7, 27480, Note_on_c, 5, 50, 114
7, 27499, Note_on_c, 5, 50, 0
7, 27510, Note_on_c, 5, 46, 114
7, 27529, Note_on_c, 5, 46, 0
7, 27540, Note_on_c, 5, 51, 114
7, 27578, Note_on_c, 5, 51, 0
7, 27600, Note_on_c, 5, 55, 114
7, 27638, Note_on_c, 5, 55, 0
7, 27660, Note_on_c, 5, 58, 114
7, 27698, Note_on_c, 5, 58, 0
7, 27720, Note_on_c, 5, 46, 114
7, 27839, Note_on_c, 5, 46, 0
7, 27900, Note_on_c, 5, 46, 114
7, 27959, Note_on_c, 5, 46, 0
7, 27960, Note_on_c, 5, 48, 114
7, 28019, Note_on_c, 5, 48, 0
7, 28020, Note_on_c, 5, 50, 114
7, 28079, Note_on_c, 5, 50, 0
7, 28080, Note_on_c, 5, 51, 114
7, 28139, Note_on_c, 5, 51, 0
7, 28140, Note_on_c, 5, 53, 114
7, 28199, Note_on_c, 5, 53, 0
7, 28200, Note_on_c, 5, 55, 114
7, 28259, Note_on_c, 5, 55, 0
7, 28260, Note_on_c, 5, 44, 114
7, 28379, Note_on_c, 5, 44, 0
7, 28380, Note_on_c, 5, 45, 114
7, 28439, Note_on_c, 5, 45, 0
7, 28440, Note_on_c, 5, 46, 114
7, 28559, Note_on_c, 5, 46, 0
7, 28560, Note_on_c, 5, 46, 114
7, 28619, Note_on_c, 5, 46, 0
7, 28620, Note_on_c, 5, 51, 114
7, 28658, Note_on_c, 5, 51, 0
7, 28680, Note_on_c, 5, 55, 114
7, 28718, Note_on_c, 5, 55, 0
7, 28740, Note_on_c, 5, 58, 114
7, 28778, Note_on_c, 5, 58, 0
7, 28800, Note_on_c, 5, 46, 114
7, 28838, Note_on_c, 5, 46, 0
7, 28860, Note_on_c, 5, 46, 114
7, 28879, Note_on_c, 5, 46, 0
7, 28890, Note_on_c, 5, 48, 114
7, 28909, Note_on_c, 5, 48, 0
7, 28920, Note_on_c, 5, 50, 114
7, 28939, Note_on_c, 5, 50, 0
7, 28950, Note_on_c, 5, 46, 114
7, 28969, Note_on_c, 5, 46, 0
7, 28980, Note_on_c, 5, 51, 114
7, 29018, Note_on_c, 5, 51, 0
7, 29040, Note_on_c, 5, 55, 114
7, 29078, Note_on_c, 5, 55, 0
7, 29100, Note_on_c, 5, 58, 114
7, 29138, Note_on_c, 5, 58, 0
7, 29160, Note_on_c, 5, 46, 114
7, 29279, Note_on_c, 5, 46, 0
7, 29340, Note_on_c, 5, 46, 114
7, 29399, Note_on_c, 5, 46, 0
7, 29400, Note_on_c, 5, 48, 114
7, 29459, Note_on_c, 5, 48, 0
7, 29460, Note_on_c, 5, 50, 114
7, 29519, Note_on_c, 5, 50, 0
7, 29520, Note_on_c, 5, 51, 114
7, 29579, Note_on_c, 5, 51, 0
7, 29580, Note_on_c, 5, 53, 114
7, 29639, Note_on_c, 5, 53, 0
7, 29640, Note_on_c, 5, 55, 114
7, 29699, Note_on_c, 5, 55, 0
7, 29700, Note_on_c, 5, 56, 114
7, 29759, Note_on_c, 5, 56, 0
7, 29760, Note_on_c, 5, 58, 114
7, 29819, Note_on_c, 5, 58, 0
7, 29820, Note_on_c, 5, 46, 114
7, 29879, Note_on_c, 5, 46, 0
7, 29880, Note_on_c, 5, 51, 114
7, 29939, Note_on_c, 5, 51, 0
7, 29940, Note_on_c, 5, 55, 114
7, 29999, Note_on_c, 5, 55, 0
7, 30000, Note_on_c, 5, 58, 114
7, 30059, Note_on_c, 5, 58, 0
7, 30060, Note_on_c, 5, 51, 114
7, 30119, Note_on_c, 5, 51, 0
7, 30120, Note_on_c, 5, 55, 114
7, 30179, Note_on_c, 5, 55, 0
7, 30180, Note_on_c, 5, 58, 114
7, 30239, Note_on_c, 5, 58, 0
7, 30240, Note_on_c, 5, 51, 127
7, 30299, Note_on_c, 5, 51, 0
7, 30300, Note_on_c, 5, 39, 127
7, 30359, Note_on_c, 5, 39, 0
7, 30360, Note_on_c, 5, 39, 127
7, 30419, Note_on_c, 5, 39, 0
7, 30420, Note_on_c, 5, 39, 127
7, 30503, Note_on_c, 5, 39, 0
7, 30503, End_track
8, 0, Start_track
8, 0, MIDI_port, 0
8, 0, Title_t, "Bass"
8, 0, Program_c, 6, 43
8, 181, Note_on_c, 6, 39, 92
8, 225, Note_on_c, 6, 39, 0
8, 241, Note_on_c, 6, 43, 92
8, 285, Note_on_c, 6, 43, 0
8, 301, Note_on_c, 6, 46, 92
8, 345, Note_on_c, 6, 46, 0
8, 361, Note_on_c, 6, 34, 92
8, 405, Note_on_c, 6, 34, 0
8, 421, Note_on_c, 6, 34, 92
8, 443, Note_on_c, 6, 34, 0
8, 451, Note_on_c, 6, 36, 92
8, 473, Note_on_c, 6, 36, 0
8, 481, Note_on_c, 6, 38, 92
8, 503, Note_on_c, 6, 38, 0
8, 511, Note_on_c, 6, 34, 92
8, 533, Note_on_c, 6, 34, 0
8, 541, Note_on_c, 6, 39, 92
8, 585, Note_on_c, 6, 39, 0
8, 601, Note_on_c, 6, 43, 92
8, 645, Note_on_c, 6, 43, 0
8, 661, Note_on_c, 6, 46, 92
8, 705, Note_on_c, 6, 46, 0
8, 721, Note_on_c, 6, 34, 92
8, 840, Note_on_c, 6, 34, 0
8, 901, Note_on_c, 6, 34, 92
8, 960, Note_on_c, 6, 34, 0
8, 961, Note_on_c, 6, 36, 92
8, 1020, Note_on_c, 6, 36, 0
8, 1021, Note_on_c, 6, 38, 92
8, 1080, Note_on_c, 6, 38, 0
8, 1081, Note_on_c, 6, 39, 92
8, 1140, Note_on_c, 6, 39, 0
8, 1141, Note_on_c, 6, 41, 92
8, 1200, Note_on_c, 6, 41, 0
8, 1201, Note_on_c, 6, 43, 92
8, 1260, Note_on_c, 6, 43, 0
8, 1261, Note_on_c, 6, 32, 92
8, 1380, Note_on_c, 6, 32, 0
8, 1381, Note_on_c, 6, 33, 92
8, 1440, Note_on_c, 6, 33, 0
8, 1441, Note_on_c, 6, 34, 92
8, 1500, Note_on_c, 6, 34, 0
8, 1501, Note_on_c, 6, 34, 92
8, 1560, Note_on_c, 6, 34, 0
8, 1621, Note_on_c, 6, 39, 92
8, 1665, Note_on_c, 6, 39, 0
8, 1681, Note_on_c, 6, 43, 92
8, 1725, Note_on_c, 6, 43, 0
8, 1741, Note_on_c, 6, 46, 92
8, 1785, Note_on_c, 6, 46, 0
8, 1801, Note_on_c, 6, 34, 92
8, 1845, Note_on_c, 6, 34, 0
8, 1861, Note_on_c, 6, 34, 92
8, 1883, Note_on_c, 6, 34, 0
8, 1891, Note_on_c, 6, 36, 92
8, 1913, Note_on_c, 6, 36, 0
8, 1921, Note_on_c, 6, 38, 92
8, 1943, Note_on_c, 6, 38, 0
8, 1951, Note_on_c, 6, 34, 92
8, 1973, Note_on_c, 6, 34, 0
8, 1981, Note_on_c, 6, 39, 92
8, 2025, Note_on_c, 6, 39, 0
8, 2041, Note_on_c, 6, 43, 92
8, 2085, Note_on_c, 6, 43, 0
8, 2101, Note_on_c, 6, 46, 92
8, 2145, Note_on_c, 6, 46, 0
8, 2161, Note_on_c, 6, 34, 92
8, 2280, Note_on_c, 6, 34, 0
8, 2341, Note_on_c, 6, 34, 92
8, 2400, Note_on_c, 6, 34, 0
8, 2401, Note_on_c, 6, 36, 92
8, 2460, Note_on_c, 6, 36, 0
8, 2461, Note_on_c, 6, 38, 92
8, 2520, Note_on_c, 6, 38, 0
8, 2521, Note_on_c, 6, 39, 92
8, 2580, Note_on_c, 6, 39, 0
8, 2581, Note_on_c, 6, 41, 92
8, 2640, Note_on_c, 6, 41, 0
8, 2641, Note_on_c, 6, 43, 92
8, 2700, Note_on_c, 6, 43, 0
8, 2701, Note_on_c, 6, 44, 92
8, 2760, Note_on_c, 6, 44, 0
8, 2761, Note_on_c, 6, 46, 92
8, 2820, Note_on_c, 6, 46, 0
8, 2821, Note_on_c, 6, 34, 92
8, 2880, Note_on_c, 6, 34, 0
8, 2881, Note_on_c, 6, 39, 92
8, 2958, Note_on_c, 6, 39, 0
8, 3061, Note_on_c, 6, 39, 92
8, 3105, Note_on_c, 6, 39, 0
8, 3121, Note_on_c, 6, 43, 92
8, 3165, Note_on_c, 6, 43, 0
8, 3181, Note_on_c, 6, 46, 92
8, 3225, Note_on_c, 6, 46, 0
8, 3241, Note_on_c, 6, 34, 92
8, 3285, Note_on_c, 6, 34, 0
8, 3301, Note_on_c, 6, 34, 92
8, 3323, Note_on_c, 6, 34, 0
8, 3331, Note_on_c, 6, 36, 92
8, 3353, Note_on_c, 6, 36, 0
8, 3361, Note_on_c, 6, 38, 92
8, 3383, Note_on_c, 6, 38, 0
8, 3391, Note_on_c, 6, 34, 92
8, 3413, Note_on_c, 6, 34, 0
8, 3421, Note_on_c, 6, 39, 92
8, 3465, Note_on_c, 6, 39, 0
8, 3481, Note_on_c, 6, 43, 92
8, 3525, Note_on_c, 6, 43, 0
8, 3541, Note_on_c, 6, 46, 92
8, 3585, Note_on_c, 6, 46, 0
8, 3601, Note_on_c, 6, 34, 92
8, 3720, Note_on_c, 6, 34, 0
8, 3781, Note_on_c, 6, 34, 92
8, 3840, Note_on_c, 6, 34, 0
8, 3841, Note_on_c, 6, 36, 92
8, 3900, Note_on_c, 6, 36, 0
8, 3901, Note_on_c, 6, 38, 92
8, 3960, Note_on_c, 6, 38, 0
8, 3961, Note_on_c, 6, 39, 92
8, 4020, Note_on_c, 6, 39, 0
8, 4021, Note_on_c, 6, 41, 92
8, 4080, Note_on_c, 6, 41, 0
8, 4081, Note_on_c, 6, 43, 92
8, 4140, Note_on_c, 6, 43, 0
8, 4141, Note_on_c, 6, 32, 92
8, 4260, Note_on_c, 6, 32, 0
8, 4261, Note_on_c, 6, 33, 92
8, 4320, Note_on_c, 6, 33, 0
8, 4321, Note_on_c, 6, 34, 92
8, 4380, Note_on_c, 6, 34, 0
8, 4381, Note_on_c, 6, 34, 92
8, 4440, Note_on_c, 6, 34, 0
8, 4501, Note_on_c, 6, 39, 92
8, 4545, Note_on_c, 6, 39, 0
8, 4561, Note_on_c, 6, 43, 92
8, 4605, Note_on_c, 6, 43, 0
8, 4621, Note_on_c, 6, 46, 92
8, 4665, Note_on_c, 6, 46, 0
8, 4681, Note_on_c, 6, 34, 92
8, 4725, Note_on_c, 6, 34, 0
8, 4741, Note_on_c, 6, 34, 92
8, 4763, Note_on_c, 6, 34, 0
8, 4771, Note_on_c, 6, 36, 92
8, 4793, Note_on_c, 6, 36, 0
8, 4801, Note_on_c, 6, 38, 92
8, 4823, Note_on_c, 6, 38, 0
8, 4831, Note_on_c, 6, 34, 92
8, 4853, Note_on_c, 6, 34, 0
8, 4861, Note_on_c, 6, 39, 92
8, 4905, Note_on_c, 6, 39, 0
8, 4921, Note_on_c, 6, 43, 92
8, 4965, Note_on_c, 6, 43, 0
8, 4981, Note_on_c, 6, 46, 92
8, 5025, Note_on_c, 6, 46, 0
8, 5041, Note_on_c, 6, 34, 92
8, 5160, Note_on_c, 6, 34, 0
8, 5221, Note_on_c, 6, 34, 92
8, 5280, Note_on_c, 6, 34, 0
8, 5281, Note_on_c, 6, 36, 92
8, 5340, Note_on_c, 6, 36, 0
8, 5341, Note_on_c, 6, 38, 92
8, 5400, Note_on_c, 6, 38, 0
8, 5401, Note_on_c, 6, 39, 92
8, 5460, Note_on_c, 6, 39, 0
8, 5461, Note_on_c, 6, 41, 92
8, 5520, Note_on_c, 6, 41, 0
8, 5521, Note_on_c, 6, 43, 92
8, 5580, Note_on_c, 6, 43, 0
8, 5581, Note_on_c, 6, 44, 92
8, 5640, Note_on_c, 6, 44, 0
8, 5641, Note_on_c, 6, 46, 92
8, 5700, Note_on_c, 6, 46, 0
8, 5701, Note_on_c, 6, 34, 92
8, 5760, Note_on_c, 6, 34, 0
8, 5761, Note_on_c, 6, 39, 92
8, 5838, Note_on_c, 6, 39, 0
8, 6601, Note_on_c, 6, 53, 92
8, 6660, Note_on_c, 6, 53, 0
8, 6661, Note_on_c, 6, 52, 92
8, 6720, Note_on_c, 6, 52, 0
8, 6721, Note_on_c, 6, 53, 92
8, 6780, Note_on_c, 6, 53, 0
8, 6781, Note_on_c, 6, 51, 92
8, 6840, Note_on_c, 6, 51, 0
8, 6841, Note_on_c, 6, 49, 92
8, 6900, Note_on_c, 6, 49, 0
8, 6901, Note_on_c, 6, 50, 92
8, 6960, Note_on_c, 6, 50, 0
8, 6961, Note_on_c, 6, 45, 92
8, 7020, Note_on_c, 6, 45, 0
8, 7021, Note_on_c, 6, 46, 92
8, 7080, Note_on_c, 6, 46, 0
8, 7081, Note_on_c, 6, 42, 92
8, 7140, Note_on_c, 6, 42, 0
8, 7141, Note_on_c, 6, 40, 92
8, 7200, Note_on_c, 6, 40, 0
8, 7201, Note_on_c, 6, 41, 92
8, 7230, Note_on_c, 6, 41, 0
8, 7231, Note_on_c, 6, 43, 92
8, 7245, Note_on_c, 6, 43, 0
8, 7246, Note_on_c, 6, 45, 92
8, 7260, Note_on_c, 6, 45, 0
8, 7261, Note_on_c, 6, 46, 92
8, 7275, Note_on_c, 6, 46, 0
8, 7276, Note_on_c, 6, 48, 92
8, 7290, Note_on_c, 6, 48, 0
8, 7291, Note_on_c, 6, 50, 92
8, 7305, Note_on_c, 6, 50, 0
8, 7306, Note_on_c, 6, 52, 92
8, 7320, Note_on_c, 6, 52, 0
8, 7321, Note_on_c, 6, 53, 92
8, 7380, Note_on_c, 6, 53, 0
8, 7381, Note_on_c, 6, 52, 92
8, 7440, Note_on_c, 6, 52, 0
8, 7441, Note_on_c, 6, 53, 92
8, 7500, Note_on_c, 6, 53, 0
8, 7501, Note_on_c, 6, 51, 92
8, 7560, Note_on_c, 6, 51, 0
8, 7561, Note_on_c, 6, 49, 92
8, 7620, Note_on_c, 6, 49, 0
8, 7621, Note_on_c, 6, 50, 92
8, 7680, Note_on_c, 6, 50, 0
8, 7681, Note_on_c, 6, 45, 92
8, 7740, Note_on_c, 6, 45, 0
8, 7741, Note_on_c, 6, 46, 92
8, 7800, Note_on_c, 6, 46, 0
8, 7801, Note_on_c, 6, 42, 92
8, 7860, Note_on_c, 6, 42, 0
8, 7861, Note_on_c, 6, 40, 92
8, 7920, Note_on_c, 6, 40, 0
8, 7921, Note_on_c, 6, 41, 92
8, 8040, Note_on_c, 6, 41, 0
8, 8641, Note_on_c, 6, 41, 92
8, 8760, Note_on_c, 6, 41, 0
8, 9361, Note_on_c, 6, 41, 92
8, 9480, Note_on_c, 6, 41, 0
8, 9541, Note_on_c, 6, 34, 92
8, 9600, Note_on_c, 6, 34, 0
8, 9601, Note_on_c, 6, 36, 58
8, 9660, Note_on_c, 6, 36, 0
8, 9661, Note_on_c, 6, 38, 58
8, 9720, Note_on_c, 6, 38, 0
8, 9721, Note_on_c, 6, 36, 92
8, 9780, Note_on_c, 6, 36, 0
8, 9781, Note_on_c, 6, 38, 58
8, 9840, Note_on_c, 6, 38, 0
8, 9841, Note_on_c, 6, 39, 58
8, 9900, Note_on_c, 6, 39, 0
8, 9901, Note_on_c, 6, 38, 92
8, 9960, Note_on_c, 6, 38, 0
8, 9961, Note_on_c, 6, 39, 58
8, 10020, Note_on_c, 6, 39, 0
8, 10021, Note_on_c, 6, 41, 58
8, 10080, Note_on_c, 6, 41, 0
8, 10081, Note_on_c, 6, 39, 92
8, 10140, Note_on_c, 6, 39, 0
8, 10141, Note_on_c, 6, 41, 58
8, 10200, Note_on_c, 6, 41, 0
8, 10201, Note_on_c, 6, 43, 58
8, 10260, Note_on_c, 6, 43, 0
8, 10261, Note_on_c, 6, 41, 92
8, 10320, Note_on_c, 6, 41, 0
8, 10321, Note_on_c, 6, 43, 58
8, 10380, Note_on_c, 6, 43, 0
8, 10381, Note_on_c, 6, 45, 58
8, 10440, Note_on_c, 6, 45, 0
8, 10441, Note_on_c, 6, 43, 92
8, 10500, Note_on_c, 6, 43, 0
8, 10501, Note_on_c, 6, 45, 58
8, 10560, Note_on_c, 6, 45, 0
8, 10561, Note_on_c, 6, 46, 58
8, 10620, Note_on_c, 6, 46, 0
8, 10621, Note_on_c, 6, 45, 92
8, 10680, Note_on_c, 6, 45, 0
8, 10681, Note_on_c, 6, 46, 58
8, 10740, Note_on_c, 6, 46, 0
8, 10741, Note_on_c, 6, 48, 58
8, 10800, Note_on_c, 6, 48, 0
8, 10801, Note_on_c, 6, 46, 92
8, 10920, Note_on_c, 6, 46, 0
8, 10921, Note_on_c, 6, 38, 92
8, 10980, Note_on_c, 6, 38, 0
8, 10981, Note_on_c, 6, 39, 74
8, 11040, Note_on_c, 6, 39, 0
8, 11041, Note_on_c, 6, 41, 74
8, 11100, Note_on_c, 6, 41, 0
8, 11101, Note_on_c, 6, 29, 74
8, 11160, Note_on_c, 6, 29, 0
8, 11161, Note_on_c, 6, 34, 74
8, 11280, Note_on_c, 6, 34, 0
8, 11341, Note_on_c, 6, 34, 92
8, 11400, Note_on_c, 6, 34, 0
8, 11401, Note_on_c, 6, 36, 58
8, 11460, Note_on_c, 6, 36, 0
8, 11461, Note_on_c, 6, 38, 58
8, 11520, Note_on_c, 6, 38, 0
8, 11521, Note_on_c, 6, 36, 92
8, 11580, Note_on_c, 6, 36, 0
8, 11581, Note_on_c, 6, 38, 58
8, 11640, Note_on_c, 6, 38, 0
8, 11641, Note_on_c, 6, 39, 58
8, 11700, Note_on_c, 6, 39, 0
8, 11701, Note_on_c, 6, 38, 92
8, 11760, Note_on_c, 6, 38, 0
8, 11761, Note_on_c, 6, 39, 58
8, 11820, Note_on_c, 6, 39, 0
8, 11821, Note_on_c, 6, 41, 58
8, 11880, Note_on_c, 6, 41, 0
8, 11881, Note_on_c, 6, 39, 92
8, 11940, Note_on_c, 6, 39, 0
8, 11941, Note_on_c, 6, 41, 58
8, 12000, Note_on_c, 6, 41, 0
8, 12001, Note_on_c, 6, 43, 58
8, 12060, Note_on_c, 6, 43, 0
8, 12061, Note_on_c, 6, 29, 92
8, 12120, Note_on_c, 6, 29, 0
8, 12121, Note_on_c, 6, 31, 58
8, 12180, Note_on_c, 6, 31, 0
8, 12181, Note_on_c, 6, 33, 58
8, 12240, Note_on_c, 6, 33, 0
8, 12241, Note_on_c, 6, 31, 92
8, 12300, Note_on_c, 6, 31, 0
8, 12301, Note_on_c, 6, 33, 58
8, 12360, Note_on_c, 6, 33, 0
8, 12361, Note_on_c, 6, 34, 58
8, 12420, Note_on_c, 6, 34, 0
8, 12421, Note_on_c, 6, 33, 92
8, 12480, Note_on_c, 6, 33, 0
8, 12481, Note_on_c, 6, 34, 58
8, 12540, Note_on_c, 6, 34, 0
8, 12541, Note_on_c, 6, 36, 58
8, 12600, Note_on_c, 6, 36, 0
8, 12601, Note_on_c, 6, 34, 92
8, 12720, Note_on_c, 6, 34, 0
8, 12721, Note_on_c, 6, 38, 64
8, 12780, Note_on_c, 6, 38, 0
8, 12781, Note_on_c, 6, 39, 64
8, 12840, Note_on_c, 6, 39, 0
8, 12841, Note_on_c, 6, 41, 64
8, 12900, Note_on_c, 6, 41, 0
8, 12901, Note_on_c, 6, 29, 55
8, 12960, Note_on_c, 6, 29, 0
8, 12961, Note_on_c, 6, 34, 55
8, 13080, Note_on_c, 6, 34, 0
8, 13141, Note_on_c, 6, 39, 77
8, 13200, Note_on_c, 6, 39, 0
8, 13201, Note_on_c, 6, 41, 77
8, 13260, Note_on_c, 6, 41, 0
8, 13261, Note_on_c, 6, 29, 77
8, 13320, Note_on_c, 6, 29, 0
8, 13321, Note_on_c, 6, 34, 77
8, 13380, Note_on_c, 6, 34, 0
8, 13381, Note_on_c, 6, 38, 77
8, 13440, Note_on_c, 6, 38, 0
8, 13441, Note_on_c, 6, 41, 77
8, 13500, Note_on_c, 6, 41, 0
8, 13501, Note_on_c, 6, 34, 77
8, 13620, Note_on_c, 6, 34, 0
8, 13681, Note_on_c, 6, 34, 77
8, 13740, Note_on_c, 6, 34, 0
8, 13741, Note_on_c, 6, 34, 77
8, 13800, Note_on_c, 6, 34, 0
8, 13801, Note_on_c, 6, 34, 77
8, 13860, Note_on_c, 6, 34, 0
8, 13861, Note_on_c, 6, 34, 77
8, 13920, Note_on_c, 6, 34, 0
8, 13921, Note_on_c, 6, 46, 77
8, 13950, Note_on_c, 6, 46, 0
8, 13951, Note_on_c, 6, 44, 77
8, 13980, Note_on_c, 6, 44, 0
8, 13981, Note_on_c, 6, 43, 77
8, 14010, Note_on_c, 6, 43, 0
8, 14011, Note_on_c, 6, 41, 77
8, 14040, Note_on_c, 6, 41, 0
8, 14041, Note_on_c, 6, 39, 92
8, 14079, Note_on_c, 6, 39, 0
8, 14101, Note_on_c, 6, 43, 92
8, 14139, Note_on_c, 6, 43, 0
8, 14161, Note_on_c, 6, 46, 92
8, 14199, Note_on_c, 6, 46, 0
8, 14221, Note_on_c, 6, 34, 92
8, 14259, Note_on_c, 6, 34, 0
8, 14281, Note_on_c, 6, 34, 92
8, 14300, Note_on_c, 6, 34, 0
8, 14311, Note_on_c, 6, 36, 92
8, 14330, Note_on_c, 6, 36, 0
8, 14341, Note_on_c, 6, 38, 92
8, 14360, Note_on_c, 6, 38, 0
8, 14371, Note_on_c, 6, 34, 92
8, 14390, Note_on_c, 6, 34, 0
8, 14401, Note_on_c, 6, 39, 92
8, 14439, Note_on_c, 6, 39, 0
8, 14461, Note_on_c, 6, 43, 92
8, 14499, Note_on_c, 6, 43, 0
8, 14521, Note_on_c, 6, 46, 92
8, 14559, Note_on_c, 6, 46, 0
8, 14581, Note_on_c, 6, 34, 92
8, 14700, Note_on_c, 6, 34, 0
8, 14761, Note_on_c, 6, 34, 92
8, 14820, Note_on_c, 6, 34, 0
8, 14821, Note_on_c, 6, 36, 92
8, 14880, Note_on_c, 6, 36, 0
8, 14881, Note_on_c, 6, 38, 92
8, 14940, Note_on_c, 6, 38, 0
8, 14941, Note_on_c, 6, 39, 92
8, 15000, Note_on_c, 6, 39, 0
8, 15001, Note_on_c, 6, 41, 92
8, 15060, Note_on_c, 6, 41, 0
8, 15061, Note_on_c, 6, 43, 92
8, 15120, Note_on_c, 6, 43, 0
8, 15121, Note_on_c, 6, 32, 92
8, 15240, Note_on_c, 6, 32, 0
8, 15241, Note_on_c, 6, 33, 92
8, 15300, Note_on_c, 6, 33, 0
8, 15301, Note_on_c, 6, 34, 92
8, 15360, Note_on_c, 6, 34, 0
8, 15361, Note_on_c, 6, 34, 92
8, 15420, Note_on_c, 6, 34, 0
8, 15481, Note_on_c, 6, 39, 92
8, 15519, Note_on_c, 6, 39, 0
8, 15541, Note_on_c, 6, 43, 92
8, 15579, Note_on_c, 6, 43, 0
8, 15601, Note_on_c, 6, 46, 92
8, 15639, Note_on_c, 6, 46, 0
8, 15661, Note_on_c, 6, 34, 92
8, 15699, Note_on_c, 6, 34, 0
8, 15721, Note_on_c, 6, 34, 92
8, 15740, Note_on_c, 6, 34, 0
8, 15751, Note_on_c, 6, 36, 92
8, 15770, Note_on_c, 6, 36, 0
8, 15781, Note_on_c, 6, 38, 92
8, 15800, Note_on_c, 6, 38, 0
8, 15811, Note_on_c, 6, 34, 92
8, 15830, Note_on_c, 6, 34, 0
8, 15841, Note_on_c, 6, 39, 92
8, 15879, Note_on_c, 6, 39, 0
8, 15901, Note_on_c, 6, 43, 92
8, 15939, Note_on_c, 6, 43, 0
8, 15961, Note_on_c, 6, 46, 92
8, 15999, Note_on_c, 6, 46, 0
8, 16021, Note_on_c, 6, 34, 92
8, 16140, Note_on_c, 6, 34, 0
8, 16201, Note_on_c, 6, 34, 92
8, 16260, Note_on_c, 6, 34, 0
8, 16261, Note_on_c, 6, 36, 92
8, 16320, Note_on_c, 6, 36, 0
8, 16321, Note_on_c, 6, 38, 92
8, 16380, Note_on_c, 6, 38, 0
8, 16381, Note_on_c, 6, 39, 92
8, 16440, Note_on_c, 6, 39, 0
8, 16441, Note_on_c, 6, 41, 92
8, 16500, Note_on_c, 6, 41, 0
8, 16501, Note_on_c, 6, 43, 92
8, 16560, Note_on_c, 6, 43, 0
8, 16561, Note_on_c, 6, 44, 92
8, 16620, Note_on_c, 6, 44, 0
8, 16621, Note_on_c, 6, 46, 92
8, 16680, Note_on_c, 6, 46, 0
8, 16681, Note_on_c, 6, 34, 92
8, 16740, Note_on_c, 6, 34, 0
8, 16741, Note_on_c, 6, 39, 92
8, 16818, Note_on_c, 6, 39, 0
8, 17581, Note_on_c, 6, 53, 92
8, 17640, Note_on_c, 6, 53, 0
8, 17641, Note_on_c, 6, 52, 92
8, 17700, Note_on_c, 6, 52, 0
8, 17701, Note_on_c, 6, 53, 92
8, 17760, Note_on_c, 6, 53, 0
8, 17761, Note_on_c, 6, 51, 92
8, 17820, Note_on_c, 6, 51, 0
8, 17821, Note_on_c, 6, 49, 92
8, 17880, Note_on_c, 6, 49, 0
8, 17881, Note_on_c, 6, 50, 92
8, 17940, Note_on_c, 6, 50, 0
8, 17941, Note_on_c, 6, 45, 92
8, 18000, Note_on_c, 6, 45, 0
8, 18001, Note_on_c, 6, 46, 92
8, 18060, Note_on_c, 6, 46, 0
8, 18061, Note_on_c, 6, 42, 92
8, 18120, Note_on_c, 6, 42, 0
8, 18121, Note_on_c, 6, 40, 92
8, 18180, Note_on_c, 6, 40, 0
8, 18181, Note_on_c, 6, 41, 92
8, 18210, Note_on_c, 6, 41, 0
8, 18211, Note_on_c, 6, 43, 92
8, 18225, Note_on_c, 6, 43, 0
8, 18226, Note_on_c, 6, 45, 92
8, 18240, Note_on_c, 6, 45, 0
8, 18241, Note_on_c, 6, 46, 92
8, 18255, Note_on_c, 6, 46, 0
8, 18256, Note_on_c, 6, 48, 92
8, 18270, Note_on_c, 6, 48, 0
8, 18271, Note_on_c, 6, 50, 92
8, 18285, Note_on_c, 6, 50, 0
8, 18286, Note_on_c, 6, 52, 92
8, 18300, Note_on_c, 6, 52, 0
8, 18301, Note_on_c, 6, 53, 92
8, 18360, Note_on_c, 6, 53, 0
8, 18361, Note_on_c, 6, 52, 92
8, 18420, Note_on_c, 6, 52, 0
8, 18421, Note_on_c, 6, 53, 92
8, 18480, Note_on_c, 6, 53, 0
8, 18481, Note_on_c, 6, 51, 92
8, 18540, Note_on_c, 6, 51, 0
8, 18541, Note_on_c, 6, 49, 92
8, 18600, Note_on_c, 6, 49, 0
8, 18601, Note_on_c, 6, 50, 92
8, 18660, Note_on_c, 6, 50, 0
8, 18661, Note_on_c, 6, 45, 92
8, 18720, Note_on_c, 6, 45, 0
8, 18721, Note_on_c, 6, 46, 92
8, 18780, Note_on_c, 6, 46, 0
8, 18781, Note_on_c, 6, 42, 92
8, 18840, Note_on_c, 6, 42, 0
8, 18841, Note_on_c, 6, 40, 92
8, 18900, Note_on_c, 6, 40, 0
8, 18901, Note_on_c, 6, 41, 92
8, 19020, Note_on_c, 6, 41, 0
8, 19621, Note_on_c, 6, 41, 92
8, 19740, Note_on_c, 6, 41, 0
8, 20341, Note_on_c, 6, 41, 92
8, 20460, Note_on_c, 6, 41, 0
8, 20521, Note_on_c, 6, 34, 92
8, 20580, Note_on_c, 6, 34, 0
8, 20581, Note_on_c, 6, 36, 50
8, 20640, Note_on_c, 6, 36, 0
8, 20641, Note_on_c, 6, 38, 50
8, 20700, Note_on_c, 6, 38, 0
8, 20701, Note_on_c, 6, 36, 92
8, 20760, Note_on_c, 6, 36, 0
8, 20761, Note_on_c, 6, 38, 50
8, 20820, Note_on_c, 6, 38, 0
8, 20821, Note_on_c, 6, 39, 50
8, 20880, Note_on_c, 6, 39, 0
8, 20881, Note_on_c, 6, 38, 92
8, 20940, Note_on_c, 6, 38, 0
8, 20941, Note_on_c, 6, 39, 50
8, 21000, Note_on_c, 6, 39, 0
8, 21001, Note_on_c, 6, 41, 50
8, 21060, Note_on_c, 6, 41, 0
8, 21061, Note_on_c, 6, 39, 92
8, 21120, Note_on_c, 6, 39, 0
8, 21121, Note_on_c, 6, 41, 50
8, 21180, Note_on_c, 6, 41, 0
8, 21181, Note_on_c, 6, 43, 50
8, 21240, Note_on_c, 6, 43, 0
8, 21241, Note_on_c, 6, 41, 92
8, 21300, Note_on_c, 6, 41, 0
8, 21301, Note_on_c, 6, 43, 50
8, 21360, Note_on_c, 6, 43, 0
8, 21361, Note_on_c, 6, 45, 50
8, 21420, Note_on_c, 6, 45, 0
8, 21421, Note_on_c, 6, 43, 92
8, 21480, Note_on_c, 6, 43, 0
8, 21481, Note_on_c, 6, 45, 50
8, 21540, Note_on_c, 6, 45, 0
8, 21541, Note_on_c, 6, 46, 50
8, 21600, Note_on_c, 6, 46, 0
8, 21601, Note_on_c, 6, 45, 92
8, 21660, Note_on_c, 6, 45, 0
8, 21661, Note_on_c, 6, 46, 50
8, 21720, Note_on_c, 6, 46, 0
8, 21721, Note_on_c, 6, 48, 50
8, 21780, Note_on_c, 6, 48, 0
8, 21781, Note_on_c, 6, 46, 92
8, 21900, Note_on_c, 6, 46, 0
8, 21901, Note_on_c, 6, 38, 92
8, 21960, Note_on_c, 6, 38, 0
8, 21961, Note_on_c, 6, 39, 92
8, 22020, Note_on_c, 6, 39, 0
8, 22021, Note_on_c, 6, 41, 92
8, 22080, Note_on_c, 6, 41, 0
8, 22081, Note_on_c, 6, 29, 92
8, 22140, Note_on_c, 6, 29, 0
8, 22141, Note_on_c, 6, 34, 92
8, 22260, Note_on_c, 6, 34, 0
8, 22321, Note_on_c, 6, 34, 92
8, 22380, Note_on_c, 6, 34, 0
8, 22381, Note_on_c, 6, 36, 50
8, 22440, Note_on_c, 6, 36, 0
8, 22441, Note_on_c, 6, 38, 50
8, 22500, Note_on_c, 6, 38, 0
8, 22501, Note_on_c, 6, 36, 92
8, 22560, Note_on_c, 6, 36, 0
8, 22561, Note_on_c, 6, 38, 50
8, 22620, Note_on_c, 6, 38, 0
8, 22621, Note_on_c, 6, 39, 50
8, 22680, Note_on_c, 6, 39, 0
8, 22681, Note_on_c, 6, 38, 92
8, 22740, Note_on_c, 6, 38, 0
8, 22741, Note_on_c, 6, 39, 50
8, 22800, Note_on_c, 6, 39, 0
8, 22801, Note_on_c, 6, 41, 50
8, 22860, Note_on_c, 6, 41, 0
8, 22861, Note_on_c, 6, 39, 92
8, 22920, Note_on_c, 6, 39, 0
8, 22921, Note_on_c, 6, 41, 50
8, 22980, Note_on_c, 6, 41, 0
8, 22981, Note_on_c, 6, 43, 50
8, 23040, Note_on_c, 6, 43, 0
8, 23041, Note_on_c, 6, 29, 92
8, 23100, Note_on_c, 6, 29, 0
8, 23101, Note_on_c, 6, 31, 50
8, 23160, Note_on_c, 6, 31, 0
8, 23161, Note_on_c, 6, 33, 50
8, 23220, Note_on_c, 6, 33, 0
8, 23221, Note_on_c, 6, 31, 92
8, 23280, Note_on_c, 6, 31, 0
8, 23281, Note_on_c, 6, 33, 50
8, 23340, Note_on_c, 6, 33, 0
8, 23341, Note_on_c, 6, 34, 50
8, 23400, Note_on_c, 6, 34, 0
8, 23401, Note_on_c, 6, 33, 92
8, 23460, Note_on_c, 6, 33, 0
8, 23461, Note_on_c, 6, 34, 50
8, 23520, Note_on_c, 6, 34, 0
8, 23521, Note_on_c, 6, 36, 50
8, 23580, Note_on_c, 6, 36, 0
8, 23581, Note_on_c, 6, 34, 92
8, 23700, Note_on_c, 6, 34, 0
8, 23701, Note_on_c, 6, 38, 92
8, 23760, Note_on_c, 6, 38, 0
8, 23761, Note_on_c, 6, 39, 92
8, 23820, Note_on_c, 6, 39, 0
8, 23821, Note_on_c, 6, 41, 92
8, 23880, Note_on_c, 6, 41, 0
8, 23881, Note_on_c, 6, 29, 92
8, 23940, Note_on_c, 6, 29, 0
8, 23941, Note_on_c, 6, 34, 92
8, 24060, Note_on_c, 6, 34, 0
8, 24121, Note_on_c, 6, 39, 92
8, 24180, Note_on_c, 6, 39, 0
8, 24181, Note_on_c, 6, 41, 92
8, 24240, Note_on_c, 6, 41, 0
8, 24241, Note_on_c, 6, 29, 92
8, 24300, Note_on_c, 6, 29, 0
8, 24301, Note_on_c, 6, 34, 92
8, 24360, Note_on_c, 6, 34, 0
8, 24361, Note_on_c, 6, 38, 92
8, 24420, Note_on_c, 6, 38, 0
8, 24421, Note_on_c, 6, 41, 92
8, 24480, Note_on_c, 6, 41, 0
8, 24481, Note_on_c, 6, 34, 92
8, 24600, Note_on_c, 6, 34, 0
8, 24661, Note_on_c, 6, 34, 92
8, 24720, Note_on_c, 6, 34, 0
8, 24721, Note_on_c, 6, 34, 92
8, 24780, Note_on_c, 6, 34, 0
8, 24781, Note_on_c, 6, 34, 92
8, 24840, Note_on_c, 6, 34, 0
8, 24841, Note_on_c, 6, 34, 92
8, 25020, Note_on_c, 6, 34, 0
8, 25740, Note_on_c, 6, 44, 46
8, 25910, Note_on_c, 6, 44, 0
8, 25920, Note_on_c, 6, 43, 46
8, 26090, Note_on_c, 6, 43, 0
8, 26100, Note_on_c, 6, 41, 92
8, 26270, Note_on_c, 6, 41, 0
8, 26280, Note_on_c, 6, 39, 92
8, 26450, Note_on_c, 6, 39, 0
8, 27060, Note_on_c, 6, 46, 92
8, 27089, Note_on_c, 6, 46, 0
8, 27090, Note_on_c, 6, 44, 92
8, 27119, Note_on_c, 6, 44, 0
8, 27120, Note_on_c, 6, 43, 92
8, 27149, Note_on_c, 6, 43, 0
8, 27150, Note_on_c, 6, 41, 92
8, 27179, Note_on_c, 6, 41, 0
8, 27180, Note_on_c, 6, 39, 92
8, 27218, Note_on_c, 6, 39, 0
8, 27240, Note_on_c, 6, 43, 92
8, 27278, Note_on_c, 6, 43, 0
8, 27300, Note_on_c, 6, 46, 92
8, 27338, Note_on_c, 6, 46, 0
8, 27360, Note_on_c, 6, 34, 92
8, 27398, Note_on_c, 6, 34, 0
8, 27420, Note_on_c, 6, 34, 92
8, 27439, Note_on_c, 6, 34, 0
8, 27450, Note_on_c, 6, 36, 92
8, 27469, Note_on_c, 6, 36, 0
8, 27480, Note_on_c, 6, 38, 92
8, 27499, Note_on_c, 6, 38, 0
8, 27510, Note_on_c, 6, 34, 92
8, 27529, Note_on_c, 6, 34, 0
8, 27540, Note_on_c, 6, 39, 92
8, 27578, Note_on_c, 6, 39, 0
8, 27600, Note_on_c, 6, 43, 92
8, 27638, Note_on_c, 6, 43, 0
8, 27660, Note_on_c, 6, 46, 92
8, 27698, Note_on_c, 6, 46, 0
8, 27720, Note_on_c, 6, 34, 92
8, 27839, Note_on_c, 6, 34, 0
8, 27900, Note_on_c, 6, 34, 92
8, 27959, Note_on_c, 6, 34, 0
8, 27960, Note_on_c, 6, 36, 92
8, 28019, Note_on_c, 6, 36, 0
8, 28020, Note_on_c, 6, 38, 92
8, 28079, Note_on_c, 6, 38, 0
8, 28080, Note_on_c, 6, 39, 92
8, 28139, Note_on_c, 6, 39, 0
8, 28140, Note_on_c, 6, 41, 92
8, 28199, Note_on_c, 6, 41, 0
8, 28200, Note_on_c, 6, 43, 92
8, 28259, Note_on_c, 6, 43, 0
8, 28260, Note_on_c, 6, 32, 92
8, 28379, Note_on_c, 6, 32, 0
8, 28380, Note_on_c, 6, 33, 92
8, 28439, Note_on_c, 6, 33, 0
8, 28440, Note_on_c, 6, 34, 92
8, 28559, Note_on_c, 6, 34, 0
8, 28560, Note_on_c, 6, 34, 92
8, 28619, Note_on_c, 6, 34, 0
8, 28620, Note_on_c, 6, 39, 92
8, 28658, Note_on_c, 6, 39, 0
8, 28680, Note_on_c, 6, 43, 92
8, 28718, Note_on_c, 6, 43, 0
8, 28740, Note_on_c, 6, 46, 92
8, 28778, Note_on_c, 6, 46, 0
8, 28800, Note_on_c, 6, 34, 92
8, 28838, Note_on_c, 6, 34, 0
8, 28860, Note_on_c, 6, 34, 92
8, 28879, Note_on_c, 6, 34, 0
8, 28890, Note_on_c, 6, 36, 92
8, 28909, Note_on_c, 6, 36, 0
8, 28920, Note_on_c, 6, 38, 92
8, 28939, Note_on_c, 6, 38, 0
8, 28950, Note_on_c, 6, 34, 92
8, 28969, Note_on_c, 6, 34, 0
8, 28980, Note_on_c, 6, 39, 92
8, 29018, Note_on_c, 6, 39, 0
8, 29040, Note_on_c, 6, 43, 92
8, 29078, Note_on_c, 6, 43, 0
8, 29100, Note_on_c, 6, 46, 92
8, 29138, Note_on_c, 6, 46, 0
8, 29160, Note_on_c, 6, 34, 92
8, 29279, Note_on_c, 6, 34, 0
8, 29340, Note_on_c, 6, 34, 92
8, 29399, Note_on_c, 6, 34, 0
8, 29400, Note_on_c, 6, 36, 92
8, 29459, Note_on_c, 6, 36, 0
8, 29460, Note_on_c, 6, 38, 92
8, 29519, Note_on_c, 6, 38, 0
8, 29520, Note_on_c, 6, 39, 92
8, 29579, Note_on_c, 6, 39, 0
8, 29580, Note_on_c, 6, 41, 92
8, 29639, Note_on_c, 6, 41, 0
8, 29640, Note_on_c, 6, 43, 92
8, 29699, Note_on_c, 6, 43, 0
8, 29700, Note_on_c, 6, 44, 92
8, 29759, Note_on_c, 6, 44, 0
8, 29760, Note_on_c, 6, 46, 92
8, 29819, Note_on_c, 6, 46, 0
8, 29820, Note_on_c, 6, 34, 92
8, 29879, Note_on_c, 6, 34, 0
8, 29880, Note_on_c, 6, 39, 92
8, 29939, Note_on_c, 6, 39, 0
8, 29940, Note_on_c, 6, 43, 92
8, 29999, Note_on_c, 6, 43, 0
8, 30000, Note_on_c, 6, 46, 92
8, 30059, Note_on_c, 6, 46, 0
8, 30060, Note_on_c, 6, 39, 92
8, 30119, Note_on_c, 6, 39, 0
8, 30120, Note_on_c, 6, 43, 92
8, 30179, Note_on_c, 6, 43, 0
8, 30180, Note_on_c, 6, 46, 92
8, 30239, Note_on_c, 6, 46, 0
8, 30240, Note_on_c, 6, 39, 127
8, 30299, Note_on_c, 6, 39, 0
8, 30300, Note_on_c, 6, 27, 127
8, 30359, Note_on_c, 6, 27, 0
8, 30360, Note_on_c, 6, 27, 127
8, 30419, Note_on_c, 6, 27, 0
8, 30420, Note_on_c, 6, 27, 127
8, 30503, Note_on_c, 6, 27, 0
8, 30503, End_track
9, 0, Start_track
9, 0, MIDI_port, 0
9, 0, Title_t, "Mozart Sym #1, 3rd mov.  K16"
9, 0, End_track
10, 0, Start_track
10, 0, MIDI_port, 0
10, 0, Title_t, "Sequenced by Shane Ellis"
10, 0, End_track
11, 0, Start_track
11, 0, MIDI_port, 0
11, 0, Title_t, "AOL - SSELLIS"
11, 0, End_track
0, 0, End_of_file
