0, 0, Header, 1, 18, 384
1, 0, Start_track
1, 0, Time_signature, 3, 2, 96, 8
1, 0, Sequencer_specific, 3, 0, 0, 65
1, 0, Tempo, 454545
1, 230400, Time_signature, 4, 2, 96, 8
1, 230400, End_track
2, 0, Start_track
2, 0, Title_t, "FLAUTO"
2, 0, Control_c, 0, 0, 0
2, 0, Program_c, 0, 73
2, 0, Control_c, 0, 10, 51
2, 0, Key_signature, 0, "major"
2, 10368, Note_on_c, 0, 86, 90
2, 11520, Note_on_c, 0, 86, 90
2, 11908, Note_off_c, 0, 86, 57
2, 12672, Note_on_c, 0, 86, 90
2, 13060, Note_off_c, 0, 86, 57
2, 13824, Note_on_c, 0, 86, 90
2, 14212, Note_off_c, 0, 86, 57
2, 14976, Note_on_c, 0, 86, 67
2, 14976, Note_on_c, 0, 86, 90
2, 15232, Note_off_c, 0, 86, 42
2, 15360, Note_on_c, 0, 86, 67
2, 15364, Note_off_c, 0, 86, 57
2, 15616, Note_off_c, 0, 86, 42
2, 15744, Note_on_c, 0, 86, 67
2, 16000, Note_off_c, 0, 86, 42
2, 16128, Note_on_c, 0, 84, 67
2, 16384, Note_off_c, 0, 84, 42
2, 16512, Note_on_c, 0, 84, 67
2, 16516, Note_off_c, 0, 86, 57
2, 16768, Note_off_c, 0, 84, 42
2, 16896, Note_on_c, 0, 84, 67
2, 17152, Note_off_c, 0, 84, 42
2, 17280, Note_on_c, 0, 81, 67
2, 17536, Note_off_c, 0, 81, 42
2, 17664, Note_on_c, 0, 81, 67
2, 17920, Note_off_c, 0, 81, 42
2, 18048, Note_on_c, 0, 81, 67
2, 18304, Note_off_c, 0, 81, 42
2, 18432, Note_on_c, 0, 79, 67
2, 18688, Note_off_c, 0, 79, 42
2, 28800, Note_on_c, 0, 86, 90
2, 29952, Note_on_c, 0, 86, 90
2, 30340, Note_off_c, 0, 86, 57
2, 31104, Note_on_c, 0, 86, 90
2, 31492, Note_off_c, 0, 86, 57
2, 32256, Note_on_c, 0, 86, 90
2, 32644, Note_off_c, 0, 86, 57
2, 33408, Note_on_c, 0, 86, 67
2, 33664, Note_off_c, 0, 86, 42
2, 33792, Note_on_c, 0, 86, 67
2, 33796, Note_off_c, 0, 86, 57
2, 34048, Note_off_c, 0, 86, 42
2, 34176, Note_on_c, 0, 86, 67
2, 34432, Note_off_c, 0, 86, 42
2, 34560, Note_on_c, 0, 84, 67
2, 34816, Note_off_c, 0, 84, 42
2, 34944, Note_on_c, 0, 84, 67
2, 35200, Note_off_c, 0, 84, 42
2, 35328, Note_on_c, 0, 84, 67
2, 35584, Note_off_c, 0, 84, 42
2, 35712, Note_on_c, 0, 81, 67
2, 35968, Note_off_c, 0, 81, 42
2, 36096, Note_on_c, 0, 81, 67
2, 36352, Note_off_c, 0, 81, 42
2, 36480, Note_on_c, 0, 81, 67
2, 36736, Note_off_c, 0, 81, 42
2, 36864, Note_on_c, 0, 79, 67
2, 37120, Note_off_c, 0, 79, 42
2, 43392, Note_on_c, 0, 79, 67
2, 43648, Note_off_c, 0, 79, 42
2, 43776, Note_on_c, 0, 81, 67
2, 44288, Note_off_c, 0, 81, 42
2, 44544, Note_on_c, 0, 83, 67
2, 44800, Note_off_c, 0, 83, 42
2, 44928, Note_on_c, 0, 84, 67
2, 45440, Note_off_c, 0, 84, 42
2, 45696, Note_on_c, 0, 87, 67
2, 45952, Note_off_c, 0, 87, 42
2, 46080, Note_on_c, 0, 86, 67
2, 46336, Note_off_c, 0, 86, 42
2, 48768, Note_on_c, 0, 91, 67
2, 49024, Note_off_c, 0, 91, 42
2, 49152, Note_on_c, 0, 91, 67
2, 49408, Note_off_c, 0, 91, 42
2, 49536, Note_on_c, 0, 91, 67
2, 50048, Note_off_c, 0, 91, 42
2, 50304, Note_on_c, 0, 88, 67
2, 50432, Note_off_c, 0, 88, 42
2, 50496, Note_on_c, 0, 84, 67
2, 50624, Note_off_c, 0, 84, 42
2, 50688, Note_on_c, 0, 79, 67
2, 51200, Note_off_c, 0, 79, 42
2, 51456, Note_on_c, 0, 78, 67
2, 51712, Note_off_c, 0, 78, 42
2, 51840, Note_on_c, 0, 77, 67
2, 52096, Note_off_c, 0, 77, 42
2, 52224, Note_on_c, 0, 76, 67
2, 52480, Note_off_c, 0, 76, 42
2, 52608, Note_on_c, 0, 74, 67
2, 52864, Note_off_c, 0, 74, 42
2, 52992, Note_on_c, 0, 72, 67
2, 53504, Note_off_c, 0, 72, 42
2, 53760, Note_on_c, 0, 74, 67
2, 53888, Note_off_c, 0, 74, 42
2, 53952, Note_on_c, 0, 72, 67
2, 54016, Note_off_c, 0, 72, 42
2, 54048, Note_on_c, 0, 74, 67
2, 54112, Note_off_c, 0, 74, 42
2, 54144, Note_on_c, 0, 76, 67
2, 54400, Note_off_c, 0, 76, 42
2, 54528, Note_on_c, 0, 77, 67
2, 54656, Note_off_c, 0, 77, 42
2, 54912, Note_on_c, 0, 79, 67
2, 55040, Note_off_c, 0, 79, 42
2, 55296, Note_on_c, 0, 81, 67
2, 55808, Note_off_c, 0, 81, 42
2, 56064, Note_on_c, 0, 80, 67
2, 56320, Note_off_c, 0, 80, 42
2, 56448, Note_on_c, 0, 79, 67
2, 56704, Note_off_c, 0, 79, 42
2, 56832, Note_on_c, 0, 78, 67
2, 57088, Note_off_c, 0, 78, 42
2, 57216, Note_on_c, 0, 76, 67
2, 57472, Note_off_c, 0, 76, 42
2, 57600, Note_on_c, 0, 74, 67
2, 57728, Note_off_c, 0, 74, 42
2, 57984, Note_on_c, 0, 78, 67
2, 58112, Note_off_c, 0, 78, 42
2, 58368, Note_on_c, 0, 79, 67
2, 58496, Note_off_c, 0, 79, 42
2, 58560, Note_on_c, 0, 78, 67
2, 58624, Note_off_c, 0, 78, 42
2, 58656, Note_on_c, 0, 79, 67
2, 58720, Note_off_c, 0, 79, 42
2, 58752, Note_on_c, 0, 81, 67
2, 59008, Note_off_c, 0, 81, 42
2, 59136, Note_on_c, 0, 83, 67
2, 59264, Note_off_c, 0, 83, 42
2, 59520, Note_on_c, 0, 84, 67
2, 59648, Note_off_c, 0, 84, 42
2, 59904, Note_on_c, 0, 98, 78
2, 60416, Note_off_c, 0, 98, 49
2, 60672, Note_on_c, 0, 97, 78
2, 60928, Note_off_c, 0, 97, 49
2, 61056, Note_on_c, 0, 96, 78
2, 61312, Note_off_c, 0, 96, 49
2, 61440, Note_on_c, 0, 95, 78
2, 61696, Note_off_c, 0, 95, 49
2, 61824, Note_on_c, 0, 93, 78
2, 62080, Note_off_c, 0, 93, 49
2, 62208, Note_on_c, 0, 91, 78
2, 62720, Note_off_c, 0, 91, 49
2, 62976, Note_on_c, 0, 93, 78
2, 63104, Note_off_c, 0, 93, 49
2, 63168, Note_on_c, 0, 91, 78
2, 63232, Note_off_c, 0, 91, 49
2, 63264, Note_on_c, 0, 93, 78
2, 63328, Note_off_c, 0, 93, 49
2, 63360, Note_on_c, 0, 95, 78
2, 63616, Note_off_c, 0, 95, 49
2, 63744, Note_on_c, 0, 96, 78
2, 63872, Note_off_c, 0, 96, 49
2, 64128, Note_on_c, 0, 98, 78
2, 64256, Note_off_c, 0, 98, 49
2, 64512, Note_on_c, 0, 100, 78
2, 64640, Note_off_c, 0, 100, 49
2, 64896, Note_on_c, 0, 95, 78
2, 65152, Note_off_c, 0, 95, 49
2, 65280, Note_on_c, 0, 96, 78
2, 65536, Note_off_c, 0, 96, 49
2, 65664, Note_on_c, 0, 93, 78
2, 65792, Note_off_c, 0, 93, 49
2, 66048, Note_on_c, 0, 88, 78
2, 66304, Note_off_c, 0, 88, 49
2, 66432, Note_on_c, 0, 89, 78
2, 66688, Note_off_c, 0, 89, 49
2, 66816, Note_on_c, 0, 91, 78
2, 66944, Note_off_c, 0, 91, 49
2, 67008, Note_on_c, 0, 93, 78
2, 67136, Note_off_c, 0, 93, 49
2, 67200, Note_on_c, 0, 91, 78
2, 67264, Note_off_c, 0, 91, 49
2, 67392, Note_on_c, 0, 88, 78
2, 67456, Note_off_c, 0, 88, 49
2, 67584, Note_on_c, 0, 89, 78
2, 67648, Note_off_c, 0, 89, 49
2, 67776, Note_on_c, 0, 86, 78
2, 67840, Note_off_c, 0, 86, 49
2, 67968, Note_on_c, 0, 84, 78
2, 68224, Note_off_c, 0, 84, 49
2, 73728, Note_on_c, 0, 98, 78
2, 74240, Note_off_c, 0, 98, 49
2, 74496, Note_on_c, 0, 97, 78
2, 74752, Note_off_c, 0, 97, 49
2, 74880, Note_on_c, 0, 96, 78
2, 75136, Note_off_c, 0, 96, 49
2, 75264, Note_on_c, 0, 95, 78
2, 75520, Note_off_c, 0, 95, 49
2, 75648, Note_on_c, 0, 93, 78
2, 75904, Note_off_c, 0, 93, 49
2, 76032, Note_on_c, 0, 91, 78
2, 76288, Note_off_c, 0, 91, 49
2, 78336, Note_on_c, 0, 91, 90
2, 78848, Note_off_c, 0, 91, 57
2, 79104, Note_on_c, 0, 90, 90
2, 79360, Note_off_c, 0, 90, 57
2, 79488, Note_on_c, 0, 89, 90
2, 79616, Note_off_c, 0, 89, 57
2, 79872, Note_on_c, 0, 86, 90
2, 79936, Note_off_c, 0, 86, 57
2, 80256, Note_on_c, 0, 83, 90
2, 80320, Note_off_c, 0, 83, 57
2, 80640, Note_on_c, 0, 91, 90
2, 81152, Note_off_c, 0, 91, 57
2, 81408, Note_on_c, 0, 90, 90
2, 81664, Note_off_c, 0, 90, 57
2, 81792, Note_on_c, 0, 89, 90
2, 81920, Note_off_c, 0, 89, 57
2, 82176, Note_on_c, 0, 86, 90
2, 82240, Note_off_c, 0, 86, 57
2, 82560, Note_on_c, 0, 83, 90
2, 82624, Note_off_c, 0, 83, 57
2, 82944, Note_on_c, 0, 84, 90
2, 83200, Note_off_c, 0, 84, 57
2, 83328, Note_on_c, 0, 84, 90
2, 83584, Note_off_c, 0, 84, 57
2, 83712, Note_on_c, 0, 84, 90
2, 83968, Note_off_c, 0, 84, 57
2, 84096, Note_on_c, 0, 89, 90
2, 84352, Note_off_c, 0, 89, 57
2, 84480, Note_on_c, 0, 89, 90
2, 84736, Note_off_c, 0, 89, 57
2, 84864, Note_on_c, 0, 89, 90
2, 85120, Note_off_c, 0, 89, 57
2, 85248, Note_on_c, 0, 86, 90
2, 85504, Note_off_c, 0, 86, 57
2, 85632, Note_on_c, 0, 86, 90
2, 85888, Note_off_c, 0, 86, 57
2, 86016, Note_on_c, 0, 86, 90
2, 86272, Note_off_c, 0, 86, 57
2, 86400, Note_on_c, 0, 84, 90
2, 86656, Note_off_c, 0, 84, 57
2, 87552, Note_on_c, 0, 71, 90
2, 88320, Note_off_c, 0, 71, 57
2, 88704, Note_on_c, 0, 72, 90
2, 88960, Note_off_c, 0, 72, 57
2, 92160, Note_on_c, 0, 71, 90
2, 92928, Note_off_c, 0, 71, 57
2, 93312, Note_on_c, 0, 72, 90
2, 93568, Note_off_c, 0, 72, 57
2, 96768, Note_on_c, 0, 80, 90
2, 97536, Note_off_c, 0, 80, 57
2, 97920, Note_on_c, 0, 81, 90
2, 98688, Note_off_c, 0, 81, 57
2, 99072, Note_on_c, 0, 84, 90
2, 99840, Note_off_c, 0, 84, 57
2, 100224, Note_on_c, 0, 83, 90
2, 100992, Note_off_c, 0, 83, 57
2, 101376, Note_on_c, 0, 86, 90
2, 102144, Note_off_c, 0, 86, 57
2, 102528, Note_on_c, 0, 84, 90
2, 103296, Note_off_c, 0, 84, 57
2, 103680, Note_on_c, 0, 90, 90
2, 104448, Note_off_c, 0, 90, 57
2, 104832, Note_on_c, 0, 88, 90
2, 105088, Note_off_c, 0, 88, 57
2, 110592, Note_on_c, 0, 71, 90
2, 111360, Note_off_c, 0, 71, 57
2, 111744, Note_on_c, 0, 72, 90
2, 112000, Note_off_c, 0, 72, 57
2, 115200, Note_on_c, 0, 83, 90
2, 115968, Note_off_c, 0, 83, 57
2, 116352, Note_on_c, 0, 84, 90
2, 116608, Note_off_c, 0, 84, 57
2, 117696, Note_on_c, 0, 79, 90
2, 117760, Note_off_c, 0, 79, 57
2, 117888, Note_on_c, 0, 83, 90
2, 117952, Note_off_c, 0, 83, 57
2, 118080, Note_on_c, 0, 86, 90
2, 118144, Note_off_c, 0, 86, 57
2, 118272, Note_on_c, 0, 89, 90
2, 118336, Note_off_c, 0, 89, 57
2, 118464, Note_on_c, 0, 86, 90
2, 118528, Note_off_c, 0, 86, 57
2, 118656, Note_on_c, 0, 84, 90
2, 118784, Note_off_c, 0, 84, 57
2, 119040, Note_on_c, 0, 88, 90
2, 119296, Note_off_c, 0, 88, 57
2, 119424, Note_on_c, 0, 84, 90
2, 119680, Note_off_c, 0, 84, 57
2, 129024, Note_on_c, 0, 86, 90
2, 130176, Note_on_c, 0, 86, 90
2, 130564, Note_off_c, 0, 86, 57
2, 130564, Note_off_c, 0, 86, 57
2, 131328, Note_on_c, 0, 86, 90
2, 132480, Note_on_c, 0, 86, 90
2, 132868, Note_off_c, 0, 86, 57
2, 133632, Note_on_c, 0, 86, 67
2, 133632, Note_on_c, 0, 86, 90
2, 133888, Note_off_c, 0, 86, 57
2, 134016, Note_on_c, 0, 86, 67
2, 134020, Note_off_c, 0, 86, 57
2, 134272, Note_off_c, 0, 86, 42
2, 134400, Note_on_c, 0, 86, 67
2, 134656, Note_off_c, 0, 86, 42
2, 134784, Note_on_c, 0, 84, 67
2, 135040, Note_off_c, 0, 84, 42
2, 135168, Note_on_c, 0, 84, 67
2, 135172, Note_off_c, 0, 86, 57
2, 135424, Note_off_c, 0, 84, 42
2, 135552, Note_on_c, 0, 84, 67
2, 135808, Note_off_c, 0, 84, 42
2, 135936, Note_on_c, 0, 81, 67
2, 136192, Note_off_c, 0, 81, 42
2, 136320, Note_on_c, 0, 81, 67
2, 136576, Note_off_c, 0, 81, 42
2, 136704, Note_on_c, 0, 81, 67
2, 136960, Note_off_c, 0, 81, 42
2, 137088, Note_on_c, 0, 79, 67
2, 137344, Note_off_c, 0, 79, 42
2, 137344, End_track
3, 0, Start_track
3, 0, Title_t, "OBOI"
3, 0, Control_c, 1, 0, 0
3, 0, Program_c, 1, 68
3, 0, Key_signature, 0, "major"
3, 10368, Note_on_c, 1, 74, 59
3, 10368, Note_on_c, 1, 74, 59
3, 10368, Note_on_c, 1, 62, 59
3, 11520, Note_on_c, 1, 74, 59
3, 11520, Note_on_c, 1, 62, 59
3, 11908, Note_off_c, 1, 62, 37
3, 11908, Note_off_c, 1, 74, 37
3, 11908, Note_off_c, 1, 74, 37
3, 12672, Note_on_c, 1, 74, 59
3, 12672, Note_on_c, 1, 62, 59
3, 13060, Note_off_c, 1, 62, 37
3, 13060, Note_off_c, 1, 74, 37
3, 14212, Note_off_c, 1, 62, 37
3, 14212, Note_off_c, 1, 74, 37
3, 14976, Note_on_c, 1, 79, 23
3, 14976, Note_on_c, 1, 74, 23
3, 15232, Note_off_c, 1, 79, 14
3, 15232, Note_off_c, 1, 74, 14
3, 15360, Note_on_c, 1, 79, 23
3, 15360, Note_on_c, 1, 74, 23
3, 15616, Note_off_c, 1, 79, 14
3, 15616, Note_off_c, 1, 74, 14
3, 15744, Note_on_c, 1, 79, 23
3, 15744, Note_on_c, 1, 74, 23
3, 16000, Note_off_c, 1, 79, 14
3, 16000, Note_off_c, 1, 74, 14
3, 16128, Note_on_c, 1, 76, 23
3, 16128, Note_on_c, 1, 81, 23
3, 16384, Note_off_c, 1, 76, 14
3, 16384, Note_off_c, 1, 81, 14
3, 16512, Note_on_c, 1, 76, 23
3, 16512, Note_on_c, 1, 81, 23
3, 16768, Note_off_c, 1, 76, 14
3, 16768, Note_off_c, 1, 81, 14
3, 16896, Note_on_c, 1, 76, 23
3, 16896, Note_on_c, 1, 81, 23
3, 17152, Note_off_c, 1, 76, 14
3, 17152, Note_off_c, 1, 81, 14
3, 17280, Note_on_c, 1, 72, 23
3, 17280, Note_on_c, 1, 78, 23
3, 17536, Note_off_c, 1, 72, 14
3, 17536, Note_off_c, 1, 78, 14
3, 17664, Note_on_c, 1, 72, 23
3, 17664, Note_on_c, 1, 78, 23
3, 17920, Note_off_c, 1, 72, 14
3, 17920, Note_off_c, 1, 78, 14
3, 18048, Note_on_c, 1, 72, 23
3, 18048, Note_on_c, 1, 78, 23
3, 18304, Note_off_c, 1, 72, 14
3, 18304, Note_off_c, 1, 78, 14
3, 18432, Note_on_c, 1, 71, 23
3, 18432, Note_on_c, 1, 79, 23
3, 18688, Note_off_c, 1, 71, 14
3, 18688, Note_off_c, 1, 79, 14
3, 28800, Note_on_c, 1, 74, 59
3, 28800, Note_on_c, 1, 74, 59
3, 28800, Note_on_c, 1, 62, 59
3, 28800, Note_on_c, 1, 62, 59
3, 29952, Note_on_c, 1, 74, 59
3, 29952, Note_on_c, 1, 62, 59
3, 30340, Note_off_c, 1, 62, 37
3, 30340, Note_off_c, 1, 62, 37
3, 30340, Note_off_c, 1, 74, 37
3, 30340, Note_off_c, 1, 74, 37
3, 31104, Note_on_c, 1, 74, 59
3, 31104, Note_on_c, 1, 62, 59
3, 31492, Note_off_c, 1, 62, 37
3, 31492, Note_off_c, 1, 74, 37
3, 32644, Note_off_c, 1, 62, 37
3, 32644, Note_off_c, 1, 74, 37
3, 33408, Note_on_c, 1, 79, 23
3, 33408, Note_on_c, 1, 74, 23
3, 33664, Note_off_c, 1, 79, 14
3, 33664, Note_off_c, 1, 74, 14
3, 33792, Note_on_c, 1, 79, 23
3, 33792, Note_on_c, 1, 74, 23
3, 34048, Note_off_c, 1, 79, 14
3, 34048, Note_off_c, 1, 74, 14
3, 34176, Note_on_c, 1, 79, 23
3, 34176, Note_on_c, 1, 74, 23
3, 34432, Note_off_c, 1, 79, 14
3, 34432, Note_off_c, 1, 74, 14
3, 34560, Note_on_c, 1, 76, 23
3, 34560, Note_on_c, 1, 81, 23
3, 34816, Note_off_c, 1, 76, 14
3, 34816, Note_off_c, 1, 81, 14
3, 34944, Note_on_c, 1, 76, 23
3, 34944, Note_on_c, 1, 81, 23
3, 35200, Note_off_c, 1, 76, 14
3, 35200, Note_off_c, 1, 81, 14
3, 35328, Note_on_c, 1, 76, 23
3, 35328, Note_on_c, 1, 81, 23
3, 35584, Note_off_c, 1, 76, 14
3, 35584, Note_off_c, 1, 81, 14
3, 35712, Note_on_c, 1, 72, 23
3, 35712, Note_on_c, 1, 78, 23
3, 35968, Note_off_c, 1, 72, 14
3, 35968, Note_off_c, 1, 78, 14
3, 36096, Note_on_c, 1, 72, 23
3, 36096, Note_on_c, 1, 78, 23
3, 36352, Note_off_c, 1, 72, 14
3, 36352, Note_off_c, 1, 78, 14
3, 36480, Note_on_c, 1, 72, 23
3, 36480, Note_on_c, 1, 78, 23
3, 36736, Note_off_c, 1, 72, 14
3, 36736, Note_off_c, 1, 78, 14
3, 36864, Note_on_c, 1, 71, 23
3, 36864, Note_on_c, 1, 79, 23
3, 37120, Note_off_c, 1, 71, 14
3, 37120, Note_off_c, 1, 79, 14
3, 38016, Note_on_c, 1, 74, 27
3, 38016, Note_on_c, 1, 71, 27
3, 38528, Note_off_c, 1, 74, 17
3, 38528, Note_off_c, 1, 71, 17
3, 38784, Note_on_c, 1, 70, 27
3, 38784, Note_on_c, 1, 73, 27
3, 39040, Note_off_c, 1, 70, 17
3, 39040, Note_off_c, 1, 73, 17
3, 39168, Note_on_c, 1, 69, 27
3, 39168, Note_on_c, 1, 72, 27
3, 39424, Note_off_c, 1, 69, 17
3, 39424, Note_off_c, 1, 72, 17
3, 39552, Note_on_c, 1, 66, 27
3, 39808, Note_off_c, 1, 66, 17
3, 39936, Note_on_c, 1, 71, 27
3, 39936, Note_on_c, 1, 67, 27
3, 40192, Note_off_c, 1, 71, 17
3, 40192, Note_off_c, 1, 67, 17
3, 40320, Note_on_c, 1, 74, 27
3, 40320, Note_on_c, 1, 77, 27
3, 40832, Note_off_c, 1, 74, 17
3, 40832, Note_off_c, 1, 77, 17
3, 41088, Note_on_c, 1, 72, 27
3, 41088, Note_on_c, 1, 76, 27
3, 41344, Note_off_c, 1, 72, 17
3, 41344, Note_off_c, 1, 76, 17
3, 41472, Note_on_c, 1, 72, 27
3, 41472, Note_on_c, 1, 75, 27
3, 41728, Note_off_c, 1, 72, 17
3, 41728, Note_off_c, 1, 75, 17
3, 41856, Note_on_c, 1, 69, 27
3, 42112, Note_off_c, 1, 69, 17
3, 42240, Note_on_c, 1, 71, 27
3, 42240, Note_on_c, 1, 74, 27
3, 42496, Note_off_c, 1, 71, 17
3, 42496, Note_off_c, 1, 74, 17
3, 42624, Note_on_c, 1, 77, 27
3, 42624, Note_on_c, 1, 81, 27
3, 43136, Note_off_c, 1, 77, 17
3, 43136, Note_off_c, 1, 81, 17
3, 43392, Note_on_c, 1, 79, 27
3, 43392, Note_on_c, 1, 76, 27
3, 43648, Note_off_c, 1, 79, 17
3, 43648, Note_off_c, 1, 76, 17
3, 43776, Note_on_c, 1, 78, 27
3, 43776, Note_on_c, 1, 75, 27
3, 44032, Note_off_c, 1, 78, 17
3, 44032, Note_off_c, 1, 75, 17
3, 44160, Note_on_c, 1, 74, 27
3, 44416, Note_off_c, 1, 74, 17
3, 44544, Note_on_c, 1, 77, 27
3, 44800, Note_off_c, 1, 77, 17
3, 44928, Note_on_c, 1, 76, 27
3, 44928, Note_on_c, 1, 74, 27
3, 45184, Note_off_c, 1, 76, 17
3, 45184, Note_off_c, 1, 74, 17
3, 45312, Note_on_c, 1, 72, 27
3, 45568, Note_off_c, 1, 72, 17
3, 45696, Note_on_c, 1, 78, 27
3, 45952, Note_off_c, 1, 78, 17
3, 46080, Note_on_c, 1, 79, 27
3, 46080, Note_on_c, 1, 71, 27
3, 46336, Note_off_c, 1, 79, 17
3, 46336, Note_off_c, 1, 71, 17
3, 48768, Note_on_c, 1, 79, 27
3, 49024, Note_off_c, 1, 79, 17
3, 49152, Note_on_c, 1, 79, 27
3, 49408, Note_off_c, 1, 79, 17
3, 49536, Note_on_c, 1, 79, 27
3, 50048, Note_off_c, 1, 79, 17
3, 50304, Note_on_c, 1, 76, 27
3, 50432, Note_off_c, 1, 76, 17
3, 50496, Note_on_c, 1, 72, 27
3, 50624, Note_off_c, 1, 72, 17
3, 50688, Note_on_c, 1, 79, 27
3, 50688, Note_on_c, 1, 67, 27
3, 50944, Note_off_c, 1, 79, 17
3, 50944, Note_off_c, 1, 67, 17
3, 51072, Note_on_c, 1, 79, 27
3, 51328, Note_off_c, 1, 79, 17
3, 51456, Note_on_c, 1, 78, 27
3, 51712, Note_off_c, 1, 78, 17
3, 51840, Note_on_c, 1, 77, 27
3, 52096, Note_off_c, 1, 77, 17
3, 52224, Note_on_c, 1, 76, 27
3, 52480, Note_off_c, 1, 76, 17
3, 52608, Note_on_c, 1, 74, 27
3, 52864, Note_off_c, 1, 74, 17
3, 52992, Note_on_c, 1, 72, 27
3, 53504, Note_off_c, 1, 72, 17
3, 53760, Note_on_c, 1, 74, 27
3, 53888, Note_off_c, 1, 74, 17
3, 53952, Note_on_c, 1, 72, 27
3, 54016, Note_off_c, 1, 72, 17
3, 54048, Note_on_c, 1, 74, 27
3, 54112, Note_off_c, 1, 74, 17
3, 54144, Note_on_c, 1, 76, 27
3, 54400, Note_off_c, 1, 76, 17
3, 54528, Note_on_c, 1, 77, 27
3, 54656, Note_off_c, 1, 77, 17
3, 54912, Note_on_c, 1, 79, 27
3, 55040, Note_off_c, 1, 79, 17
3, 55296, Note_on_c, 1, 81, 27
3, 55808, Note_off_c, 1, 81, 17
3, 56064, Note_on_c, 1, 80, 27
3, 56320, Note_off_c, 1, 80, 17
3, 56448, Note_on_c, 1, 79, 27
3, 56704, Note_off_c, 1, 79, 17
3, 56832, Note_on_c, 1, 78, 27
3, 57088, Note_off_c, 1, 78, 17
3, 57216, Note_on_c, 1, 76, 27
3, 57472, Note_off_c, 1, 76, 17
3, 57600, Note_on_c, 1, 74, 27
3, 57728, Note_off_c, 1, 74, 17
3, 57984, Note_on_c, 1, 78, 27
3, 58112, Note_off_c, 1, 78, 17
3, 58368, Note_on_c, 1, 79, 27
3, 58496, Note_off_c, 1, 79, 17
3, 58560, Note_on_c, 1, 78, 27
3, 58624, Note_off_c, 1, 78, 17
3, 58656, Note_on_c, 1, 79, 27
3, 58720, Note_off_c, 1, 79, 17
3, 58752, Note_on_c, 1, 81, 27
3, 59008, Note_off_c, 1, 81, 17
3, 59136, Note_on_c, 1, 83, 27
3, 59264, Note_off_c, 1, 83, 17
3, 59520, Note_on_c, 1, 84, 27
3, 59648, Note_off_c, 1, 84, 17
3, 59904, Note_on_c, 1, 86, 44
3, 60416, Note_off_c, 1, 86, 28
3, 60672, Note_on_c, 1, 85, 44
3, 60928, Note_off_c, 1, 85, 28
3, 61056, Note_on_c, 1, 84, 44
3, 61312, Note_off_c, 1, 84, 28
3, 61440, Note_on_c, 1, 83, 44
3, 61696, Note_off_c, 1, 83, 28
3, 61824, Note_on_c, 1, 81, 44
3, 62080, Note_off_c, 1, 81, 28
3, 62208, Note_on_c, 1, 79, 44
3, 62720, Note_off_c, 1, 79, 28
3, 62976, Note_on_c, 1, 81, 44
3, 63104, Note_off_c, 1, 81, 28
3, 63168, Note_on_c, 1, 79, 44
3, 63232, Note_off_c, 1, 79, 28
3, 63264, Note_on_c, 1, 81, 44
3, 63328, Note_off_c, 1, 81, 28
3, 63360, Note_on_c, 1, 83, 44
3, 63616, Note_off_c, 1, 83, 28
3, 63744, Note_on_c, 1, 84, 44
3, 63872, Note_off_c, 1, 84, 28
3, 64128, Note_on_c, 1, 83, 44
3, 64128, Note_on_c, 1, 77, 44
3, 64256, Note_off_c, 1, 83, 28
3, 64256, Note_off_c, 1, 77, 28
3, 64512, Note_on_c, 1, 84, 44
3, 64512, Note_on_c, 1, 79, 44
3, 64640, Note_off_c, 1, 84, 28
3, 64640, Note_off_c, 1, 79, 28
3, 64896, Note_on_c, 1, 77, 44
3, 64896, Note_on_c, 1, 74, 44
3, 65152, Note_off_c, 1, 77, 28
3, 65152, Note_off_c, 1, 74, 28
3, 65280, Note_on_c, 1, 76, 44
3, 65280, Note_on_c, 1, 72, 44
3, 65536, Note_off_c, 1, 76, 28
3, 65536, Note_off_c, 1, 72, 28
3, 66048, Note_on_c, 1, 70, 44
3, 66048, Note_on_c, 1, 67, 44
3, 66304, Note_off_c, 1, 70, 28
3, 66304, Note_off_c, 1, 67, 28
3, 66432, Note_on_c, 1, 69, 44
3, 66432, Note_on_c, 1, 65, 44
3, 66688, Note_off_c, 1, 69, 28
3, 66688, Note_off_c, 1, 65, 28
3, 66816, Note_on_c, 1, 79, 44
3, 66816, Note_on_c, 1, 76, 44
3, 66944, Note_off_c, 1, 79, 28
3, 66944, Note_off_c, 1, 76, 28
3, 67008, Note_on_c, 1, 81, 44
3, 67008, Note_on_c, 1, 77, 44
3, 67136, Note_off_c, 1, 81, 28
3, 67136, Note_off_c, 1, 77, 28
3, 67200, Note_on_c, 1, 79, 44
3, 67200, Note_on_c, 1, 76, 44
3, 67264, Note_off_c, 1, 79, 28
3, 67264, Note_off_c, 1, 76, 28
3, 67392, Note_on_c, 1, 76, 44
3, 67392, Note_on_c, 1, 72, 44
3, 67456, Note_off_c, 1, 76, 28
3, 67456, Note_off_c, 1, 72, 28
3, 67584, Note_on_c, 1, 77, 44
3, 67584, Note_on_c, 1, 74, 44
3, 67648, Note_off_c, 1, 77, 28
3, 67648, Note_off_c, 1, 74, 28
3, 67776, Note_on_c, 1, 74, 44
3, 67776, Note_on_c, 1, 71, 44
3, 67840, Note_off_c, 1, 74, 28
3, 67840, Note_off_c, 1, 71, 28
3, 67968, Note_on_c, 1, 72, 44
3, 68096, Note_off_c, 1, 72, 28
3, 68160, Note_on_c, 1, 71, 44
3, 68288, Note_off_c, 1, 71, 28
3, 68352, Note_on_c, 1, 72, 44
3, 68416, Note_off_c, 1, 72, 28
3, 68544, Note_on_c, 1, 74, 44
3, 68608, Note_off_c, 1, 74, 28
3, 68736, Note_on_c, 1, 76, 44
3, 68800, Note_off_c, 1, 76, 28
3, 68928, Note_on_c, 1, 77, 44
3, 68992, Note_off_c, 1, 77, 28
3, 69120, Note_on_c, 1, 79, 44
3, 69632, Note_off_c, 1, 79, 28
3, 69888, Note_on_c, 1, 78, 44
3, 70144, Note_off_c, 1, 78, 28
3, 70272, Note_on_c, 1, 77, 44
3, 70528, Note_off_c, 1, 77, 28
3, 70656, Note_on_c, 1, 76, 44
3, 70912, Note_off_c, 1, 76, 28
3, 71040, Note_on_c, 1, 75, 44
3, 71296, Note_off_c, 1, 75, 28
3, 71424, Note_on_c, 1, 84, 44
3, 71936, Note_off_c, 1, 84, 28
3, 72192, Note_on_c, 1, 83, 44
3, 72448, Note_off_c, 1, 83, 28
3, 72576, Note_on_c, 1, 82, 44
3, 72576, Note_on_c, 1, 79, 44
3, 72832, Note_off_c, 1, 82, 28
3, 72832, Note_off_c, 1, 79, 28
3, 72960, Note_on_c, 1, 81, 44
3, 72960, Note_on_c, 1, 78, 44
3, 73216, Note_off_c, 1, 81, 28
3, 73216, Note_off_c, 1, 78, 28
3, 73344, Note_on_c, 1, 75, 44
3, 73344, Note_on_c, 1, 80, 44
3, 73600, Note_off_c, 1, 75, 28
3, 73600, Note_off_c, 1, 80, 28
3, 73728, Note_on_c, 1, 81, 44
3, 73984, Note_off_c, 1, 81, 28
3, 74112, Note_on_c, 1, 79, 44
3, 74624, Note_off_c, 1, 79, 28
3, 74880, Note_on_c, 1, 78, 44
3, 75136, Note_off_c, 1, 78, 28
3, 75264, Note_on_c, 1, 77, 44
3, 75520, Note_off_c, 1, 77, 28
3, 75648, Note_on_c, 1, 74, 44
3, 75648, Note_on_c, 1, 71, 44
3, 75904, Note_off_c, 1, 74, 28
3, 75904, Note_off_c, 1, 71, 28
3, 76032, Note_on_c, 1, 79, 44
3, 76032, Note_on_c, 1, 72, 44
3, 76288, Note_off_c, 1, 79, 28
3, 76288, Note_off_c, 1, 72, 28
3, 76416, Note_on_c, 1, 77, 44
3, 76416, Note_on_c, 1, 71, 44
3, 76672, Note_off_c, 1, 77, 28
3, 76672, Note_off_c, 1, 71, 28
3, 76800, Note_on_c, 1, 76, 44
3, 76800, Note_on_c, 1, 72, 44
3, 77056, Note_off_c, 1, 76, 28
3, 77056, Note_off_c, 1, 72, 28
3, 77184, Note_on_c, 1, 74, 44
3, 77440, Note_off_c, 1, 74, 28
3, 77568, Note_on_c, 1, 77, 44
3, 77824, Note_off_c, 1, 77, 28
3, 77952, Note_on_c, 1, 71, 59
3, 78080, Note_off_c, 1, 71, 37
3, 78336, Note_on_c, 1, 67, 59
3, 78336, Note_on_c, 1, 79, 59
3, 79488, Note_on_c, 1, 67, 59
3, 79488, Note_on_c, 1, 79, 59
3, 79876, Note_off_c, 1, 67, 37
3, 79876, Note_off_c, 1, 79, 37
3, 80640, Note_on_c, 1, 67, 59
3, 80640, Note_on_c, 1, 79, 59
3, 81028, Note_off_c, 1, 67, 37
3, 81028, Note_off_c, 1, 79, 37
3, 82180, Note_off_c, 1, 67, 37
3, 82180, Note_off_c, 1, 79, 37
3, 82944, Note_on_c, 1, 79, 59
3, 82944, Note_on_c, 1, 76, 59
3, 83200, Note_off_c, 1, 79, 37
3, 83200, Note_off_c, 1, 76, 37
3, 83328, Note_on_c, 1, 79, 59
3, 83328, Note_on_c, 1, 76, 59
3, 83584, Note_off_c, 1, 79, 37
3, 83584, Note_off_c, 1, 76, 37
3, 83712, Note_on_c, 1, 79, 59
3, 83712, Note_on_c, 1, 76, 59
3, 83968, Note_off_c, 1, 79, 37
3, 83968, Note_off_c, 1, 76, 37
3, 84096, Note_on_c, 1, 81, 59
3, 84096, Note_on_c, 1, 74, 59
3, 84352, Note_off_c, 1, 81, 37
3, 84352, Note_off_c, 1, 74, 37
3, 84480, Note_on_c, 1, 81, 59
3, 84480, Note_on_c, 1, 74, 59
3, 84736, Note_off_c, 1, 81, 37
3, 84736, Note_off_c, 1, 74, 37
3, 84864, Note_on_c, 1, 81, 59
3, 84864, Note_on_c, 1, 74, 59
3, 85120, Note_off_c, 1, 81, 37
3, 85120, Note_off_c, 1, 74, 37
3, 85248, Note_on_c, 1, 77, 59
3, 85248, Note_on_c, 1, 83, 59
3, 85504, Note_off_c, 1, 77, 37
3, 85504, Note_off_c, 1, 83, 37
3, 85632, Note_on_c, 1, 77, 59
3, 85632, Note_on_c, 1, 83, 59
3, 85888, Note_off_c, 1, 77, 37
3, 85888, Note_off_c, 1, 83, 37
3, 86016, Note_on_c, 1, 77, 59
3, 86016, Note_on_c, 1, 83, 59
3, 86272, Note_off_c, 1, 77, 37
3, 86272, Note_off_c, 1, 83, 37
3, 86400, Note_on_c, 1, 76, 59
3, 86400, Note_on_c, 1, 84, 59
3, 86656, Note_off_c, 1, 76, 37
3, 86656, Note_off_c, 1, 84, 37
3, 89472, Note_on_c, 1, 81, 59
3, 89600, Note_off_c, 1, 81, 37
3, 89664, Note_on_c, 1, 79, 59
3, 89792, Note_off_c, 1, 79, 37
3, 89856, Note_on_c, 1, 78, 59
3, 89984, Note_off_c, 1, 78, 37
3, 90048, Note_on_c, 1, 79, 59
3, 90176, Note_off_c, 1, 79, 37
3, 90240, Note_on_c, 1, 77, 59
3, 90304, Note_off_c, 1, 77, 37
3, 90432, Note_on_c, 1, 74, 59
3, 90496, Note_off_c, 1, 74, 37
3, 90624, Note_on_c, 1, 76, 59
3, 90688, Note_off_c, 1, 76, 37
3, 90816, Note_on_c, 1, 72, 59
3, 90880, Note_off_c, 1, 72, 37
3, 91008, Note_on_c, 1, 76, 59
3, 91136, Note_off_c, 1, 76, 37
3, 91200, Note_on_c, 1, 74, 59
3, 91328, Note_off_c, 1, 74, 37
3, 91392, Note_on_c, 1, 72, 59
3, 91456, Note_off_c, 1, 72, 37
3, 91584, Note_on_c, 1, 71, 59
3, 91648, Note_off_c, 1, 71, 37
3, 91776, Note_on_c, 1, 69, 59
3, 91840, Note_off_c, 1, 69, 37
3, 91968, Note_on_c, 1, 67, 59
3, 92032, Note_off_c, 1, 67, 37
3, 94080, Note_on_c, 1, 81, 59
3, 94208, Note_off_c, 1, 81, 37
3, 94272, Note_on_c, 1, 79, 59
3, 94400, Note_off_c, 1, 79, 37
3, 94464, Note_on_c, 1, 78, 59
3, 94592, Note_off_c, 1, 78, 37
3, 94656, Note_on_c, 1, 79, 59
3, 94784, Note_off_c, 1, 79, 37
3, 94848, Note_on_c, 1, 77, 59
3, 94912, Note_off_c, 1, 77, 37
3, 95040, Note_on_c, 1, 74, 59
3, 95104, Note_off_c, 1, 74, 37
3, 95232, Note_on_c, 1, 71, 59
3, 95296, Note_off_c, 1, 71, 37
3, 95424, Note_on_c, 1, 74, 59
3, 95488, Note_off_c, 1, 74, 37
3, 95616, Note_on_c, 1, 72, 59
3, 95744, Note_off_c, 1, 72, 37
3, 96000, Note_on_c, 1, 76, 59
3, 96256, Note_off_c, 1, 76, 37
3, 96384, Note_on_c, 1, 72, 59
3, 96640, Note_off_c, 1, 72, 37
3, 96768, Note_on_c, 1, 74, 59
3, 96768, Note_on_c, 1, 71, 59
3, 97536, Note_off_c, 1, 74, 37
3, 97536, Note_off_c, 1, 71, 37
3, 97920, Note_on_c, 1, 76, 59
3, 97920, Note_on_c, 1, 72, 59
3, 98688, Note_off_c, 1, 76, 37
3, 98688, Note_off_c, 1, 72, 37
3, 99072, Note_on_c, 1, 78, 59
3, 99072, Note_on_c, 1, 75, 59
3, 99840, Note_off_c, 1, 78, 37
3, 99840, Note_off_c, 1, 75, 37
3, 100224, Note_on_c, 1, 80, 59
3, 100224, Note_on_c, 1, 76, 59
3, 100992, Note_off_c, 1, 80, 37
3, 100992, Note_off_c, 1, 76, 37
3, 101376, Note_on_c, 1, 83, 59
3, 101376, Note_on_c, 1, 77, 59
3, 102144, Note_off_c, 1, 83, 37
3, 102144, Note_off_c, 1, 77, 37
3, 102528, Note_on_c, 1, 81, 59
3, 102528, Note_on_c, 1, 76, 59
3, 103296, Note_off_c, 1, 81, 37
3, 103296, Note_off_c, 1, 76, 37
3, 103680, Note_on_c, 1, 84, 59
3, 103680, Note_on_c, 1, 81, 59
3, 104448, Note_off_c, 1, 84, 37
3, 104448, Note_off_c, 1, 81, 37
3, 104832, Note_on_c, 1, 80, 59
3, 104832, Note_on_c, 1, 83, 59
3, 105088, Note_off_c, 1, 80, 37
3, 105088, Note_off_c, 1, 83, 37
3, 112512, Note_on_c, 1, 81, 59
3, 112640, Note_off_c, 1, 81, 37
3, 112704, Note_on_c, 1, 79, 59
3, 112832, Note_off_c, 1, 79, 37
3, 112896, Note_on_c, 1, 78, 59
3, 113024, Note_off_c, 1, 78, 37
3, 113088, Note_on_c, 1, 79, 59
3, 113216, Note_off_c, 1, 79, 37
3, 113280, Note_on_c, 1, 77, 59
3, 113344, Note_off_c, 1, 77, 37
3, 113472, Note_on_c, 1, 74, 59
3, 113536, Note_off_c, 1, 74, 37
3, 113664, Note_on_c, 1, 76, 59
3, 113728, Note_off_c, 1, 76, 37
3, 113856, Note_on_c, 1, 72, 59
3, 113920, Note_off_c, 1, 72, 37
3, 114048, Note_on_c, 1, 76, 59
3, 114176, Note_off_c, 1, 76, 37
3, 114240, Note_on_c, 1, 74, 59
3, 114368, Note_off_c, 1, 74, 37
3, 114432, Note_on_c, 1, 72, 59
3, 114496, Note_off_c, 1, 72, 37
3, 114624, Note_on_c, 1, 71, 59
3, 114688, Note_off_c, 1, 71, 37
3, 114816, Note_on_c, 1, 69, 59
3, 114880, Note_off_c, 1, 69, 37
3, 115008, Note_on_c, 1, 67, 59
3, 115072, Note_off_c, 1, 67, 37
3, 115200, Note_on_c, 1, 71, 59
3, 115968, Note_off_c, 1, 71, 37
3, 116352, Note_on_c, 1, 72, 59
3, 116608, Note_off_c, 1, 72, 37
3, 117120, Note_on_c, 1, 81, 59
3, 117248, Note_off_c, 1, 81, 37
3, 117312, Note_on_c, 1, 79, 59
3, 117440, Note_off_c, 1, 79, 37
3, 117504, Note_on_c, 1, 78, 59
3, 117632, Note_off_c, 1, 78, 37
3, 117696, Note_on_c, 1, 79, 59
3, 117824, Note_off_c, 1, 79, 37
3, 117888, Note_on_c, 1, 77, 59
3, 117952, Note_off_c, 1, 77, 37
3, 118080, Note_on_c, 1, 74, 59
3, 118144, Note_off_c, 1, 74, 37
3, 118272, Note_on_c, 1, 71, 59
3, 118336, Note_off_c, 1, 71, 37
3, 118464, Note_on_c, 1, 74, 59
3, 118528, Note_off_c, 1, 74, 37
3, 118656, Note_on_c, 1, 72, 59
3, 118784, Note_off_c, 1, 72, 37
3, 119040, Note_on_c, 1, 76, 59
3, 119296, Note_off_c, 1, 76, 37
3, 119424, Note_on_c, 1, 72, 59
3, 119680, Note_off_c, 1, 72, 37
3, 129024, Note_on_c, 1, 74, 59
3, 129024, Note_on_c, 1, 74, 59
3, 129024, Note_on_c, 1, 62, 59
3, 130176, Note_on_c, 1, 74, 59
3, 130176, Note_on_c, 1, 62, 59
3, 130564, Note_off_c, 1, 74, 37
3, 130564, Note_off_c, 1, 74, 37
3, 130564, Note_off_c, 1, 62, 37
3, 130564, Note_off_c, 1, 74, 37
3, 130564, Note_off_c, 1, 62, 37
3, 131328, Note_on_c, 1, 74, 59
3, 131328, Note_on_c, 1, 62, 59
3, 132868, Note_off_c, 1, 74, 37
3, 132868, Note_off_c, 1, 62, 37
3, 133632, Note_on_c, 1, 79, 23
3, 133632, Note_on_c, 1, 74, 23
3, 133888, Note_off_c, 1, 79, 14
3, 133888, Note_off_c, 1, 74, 14
3, 134016, Note_on_c, 1, 79, 23
3, 134016, Note_on_c, 1, 74, 23
3, 134272, Note_off_c, 1, 79, 14
3, 134272, Note_off_c, 1, 74, 14
3, 134400, Note_on_c, 1, 79, 23
3, 134400, Note_on_c, 1, 74, 23
3, 134656, Note_off_c, 1, 79, 14
3, 134656, Note_off_c, 1, 74, 14
3, 134784, Note_on_c, 1, 76, 23
3, 134784, Note_on_c, 1, 81, 23
3, 135040, Note_off_c, 1, 76, 14
3, 135040, Note_off_c, 1, 81, 14
3, 135168, Note_on_c, 1, 76, 23
3, 135168, Note_on_c, 1, 81, 23
3, 135424, Note_off_c, 1, 76, 14
3, 135424, Note_off_c, 1, 81, 14
3, 135552, Note_on_c, 1, 76, 23
3, 135552, Note_on_c, 1, 81, 23
3, 135808, Note_off_c, 1, 76, 14
3, 135808, Note_off_c, 1, 81, 14
3, 135936, Note_on_c, 1, 72, 23
3, 135936, Note_on_c, 1, 78, 23
3, 136192, Note_off_c, 1, 72, 14
3, 136192, Note_off_c, 1, 78, 14
3, 136320, Note_on_c, 1, 72, 23
3, 136320, Note_on_c, 1, 78, 23
3, 136576, Note_off_c, 1, 72, 14
3, 136576, Note_off_c, 1, 78, 14
3, 136704, Note_on_c, 1, 72, 23
3, 136704, Note_on_c, 1, 78, 23
3, 136960, Note_off_c, 1, 72, 14
3, 136960, Note_off_c, 1, 78, 14
3, 137088, Note_on_c, 1, 71, 23
3, 137088, Note_on_c, 1, 79, 23
3, 137344, Note_off_c, 1, 71, 14
3, 137344, Note_off_c, 1, 79, 14
3, 137344, End_track
4, 0, Start_track
4, 0, Title_t, "FAGOTTI"
4, 0, Control_c, 2, 0, 0
4, 0, Program_c, 2, 70
4, 0, Control_c, 2, 10, 79
4, 0, Key_signature, 0, "major"
4, 10368, Note_on_c, 2, 59, 42
4, 10880, Note_off_c, 2, 59, 26
4, 11136, Note_on_c, 2, 58, 42
4, 11392, Note_off_c, 2, 58, 26
4, 11520, Note_on_c, 2, 57, 42
4, 11648, Note_off_c, 2, 57, 26
4, 11904, Note_on_c, 2, 60, 42
4, 11968, Note_off_c, 2, 60, 26
4, 12288, Note_on_c, 2, 57, 42
4, 12352, Note_off_c, 2, 57, 26
4, 12672, Note_on_c, 2, 59, 42
4, 13184, Note_off_c, 2, 59, 26
4, 13440, Note_on_c, 2, 58, 42
4, 13696, Note_off_c, 2, 58, 26
4, 13824, Note_on_c, 2, 57, 42
4, 13952, Note_off_c, 2, 57, 26
4, 14208, Note_on_c, 2, 60, 42
4, 14272, Note_off_c, 2, 60, 26
4, 14592, Note_on_c, 2, 57, 42
4, 14656, Note_off_c, 2, 57, 26
4, 14976, Note_on_c, 2, 59, 42
4, 15232, Note_off_c, 2, 59, 26
4, 15360, Note_on_c, 2, 47, 42
4, 15616, Note_off_c, 2, 47, 26
4, 15744, Note_on_c, 2, 47, 42
4, 16000, Note_off_c, 2, 47, 26
4, 16128, Note_on_c, 2, 48, 42
4, 16384, Note_off_c, 2, 48, 26
4, 16512, Note_on_c, 2, 48, 42
4, 16768, Note_off_c, 2, 48, 26
4, 16896, Note_on_c, 2, 48, 42
4, 17152, Note_off_c, 2, 48, 26
4, 17280, Note_on_c, 2, 50, 42
4, 17536, Note_off_c, 2, 50, 26
4, 17664, Note_on_c, 2, 50, 42
4, 17920, Note_off_c, 2, 50, 26
4, 18048, Note_on_c, 2, 50, 42
4, 18304, Note_off_c, 2, 50, 26
4, 18432, Note_on_c, 2, 43, 42
4, 18688, Note_off_c, 2, 43, 26
4, 28800, Note_on_c, 2, 59, 42
4, 29312, Note_off_c, 2, 59, 26
4, 29568, Note_on_c, 2, 58, 42
4, 29824, Note_off_c, 2, 58, 26
4, 29952, Note_on_c, 2, 57, 42
4, 30080, Note_off_c, 2, 57, 26
4, 30336, Note_on_c, 2, 60, 42
4, 30400, Note_off_c, 2, 60, 26
4, 30720, Note_on_c, 2, 57, 42
4, 30784, Note_off_c, 2, 57, 26
4, 31104, Note_on_c, 2, 59, 42
4, 31616, Note_off_c, 2, 59, 26
4, 31872, Note_on_c, 2, 58, 42
4, 32128, Note_off_c, 2, 58, 26
4, 32256, Note_on_c, 2, 57, 42
4, 32384, Note_off_c, 2, 57, 26
4, 32640, Note_on_c, 2, 60, 42
4, 32704, Note_off_c, 2, 60, 26
4, 33024, Note_on_c, 2, 57, 42
4, 33088, Note_off_c, 2, 57, 26
4, 33408, Note_on_c, 2, 59, 42
4, 33664, Note_off_c, 2, 59, 26
4, 33792, Note_on_c, 2, 47, 42
4, 34048, Note_off_c, 2, 47, 26
4, 34176, Note_on_c, 2, 47, 42
4, 34432, Note_off_c, 2, 47, 26
4, 34560, Note_on_c, 2, 48, 42
4, 34816, Note_off_c, 2, 48, 26
4, 34944, Note_on_c, 2, 48, 42
4, 35200, Note_off_c, 2, 48, 26
4, 35328, Note_on_c, 2, 48, 42
4, 35584, Note_off_c, 2, 48, 26
4, 35712, Note_on_c, 2, 50, 42
4, 35968, Note_off_c, 2, 50, 26
4, 36096, Note_on_c, 2, 50, 42
4, 36352, Note_off_c, 2, 50, 26
4, 36480, Note_on_c, 2, 50, 42
4, 36736, Note_off_c, 2, 50, 26
4, 36864, Note_on_c, 2, 43, 42
4, 37120, Note_off_c, 2, 43, 26
4, 39552, Note_on_c, 2, 54, 48
4, 39552, Note_on_c, 2, 57, 48
4, 39808, Note_off_c, 2, 54, 30
4, 39808, Note_off_c, 2, 57, 30
4, 39936, Note_on_c, 2, 55, 48
4, 39936, Note_on_c, 2, 59, 48
4, 40192, Note_off_c, 2, 55, 30
4, 40192, Note_off_c, 2, 59, 30
4, 40320, Note_on_c, 2, 59, 48
4, 40320, Note_on_c, 2, 62, 48
4, 40832, Note_off_c, 2, 59, 30
4, 40832, Note_off_c, 2, 62, 30
4, 41088, Note_on_c, 2, 60, 48
4, 41088, Note_on_c, 2, 64, 48
4, 41344, Note_off_c, 2, 60, 30
4, 41344, Note_off_c, 2, 64, 30
4, 41856, Note_on_c, 2, 54, 48
4, 41856, Note_on_c, 2, 60, 48
4, 42112, Note_off_c, 2, 54, 30
4, 42112, Note_off_c, 2, 60, 30
4, 42240, Note_on_c, 2, 55, 48
4, 42240, Note_on_c, 2, 59, 48
4, 42496, Note_off_c, 2, 55, 30
4, 42496, Note_off_c, 2, 59, 30
4, 42624, Note_on_c, 2, 59, 48
4, 42624, Note_on_c, 2, 62, 48
4, 43136, Note_off_c, 2, 59, 30
4, 43136, Note_off_c, 2, 62, 30
4, 43392, Note_on_c, 2, 60, 48
4, 43392, Note_on_c, 2, 64, 48
4, 43648, Note_off_c, 2, 60, 30
4, 43648, Note_off_c, 2, 64, 30
4, 43776, Note_on_c, 2, 63, 48
4, 44032, Note_off_c, 2, 63, 30
4, 44160, Note_on_c, 2, 62, 48
4, 44160, Note_on_c, 2, 57, 48
4, 44416, Note_off_c, 2, 62, 30
4, 44416, Note_off_c, 2, 57, 30
4, 44544, Note_on_c, 2, 59, 48
4, 44800, Note_off_c, 2, 59, 30
4, 44928, Note_on_c, 2, 62, 48
4, 44928, Note_on_c, 2, 60, 48
4, 45184, Note_off_c, 2, 62, 30
4, 45184, Note_off_c, 2, 60, 30
4, 45312, Note_on_c, 2, 60, 48
4, 45312, Note_on_c, 2, 52, 48
4, 45568, Note_off_c, 2, 60, 30
4, 45568, Note_off_c, 2, 52, 30
4, 45696, Note_on_c, 2, 54, 48
4, 45952, Note_off_c, 2, 54, 30
4, 46080, Note_on_c, 2, 59, 48
4, 46080, Note_on_c, 2, 55, 48
4, 46336, Note_off_c, 2, 59, 30
4, 46336, Note_off_c, 2, 55, 30
4, 48768, Note_on_c, 2, 55, 48
4, 48768, Note_on_c, 2, 43, 48
4, 49024, Note_off_c, 2, 55, 30
4, 49024, Note_off_c, 2, 43, 30
4, 49152, Note_on_c, 2, 55, 48
4, 49152, Note_on_c, 2, 43, 48
4, 49408, Note_off_c, 2, 55, 30
4, 49408, Note_off_c, 2, 43, 30
4, 49536, Note_on_c, 2, 55, 48
4, 49536, Note_on_c, 2, 43, 48
4, 50048, Note_off_c, 2, 55, 30
4, 50048, Note_off_c, 2, 43, 30
4, 50304, Note_on_c, 2, 52, 48
4, 50304, Note_on_c, 2, 40, 48
4, 50432, Note_off_c, 2, 52, 30
4, 50432, Note_off_c, 2, 40, 30
4, 50496, Note_on_c, 2, 48, 48
4, 50496, Note_on_c, 2, 36, 48
4, 50624, Note_off_c, 2, 48, 30
4, 50624, Note_off_c, 2, 36, 30
4, 50688, Note_on_c, 2, 55, 48
4, 50688, Note_on_c, 2, 43, 48
4, 50944, Note_off_c, 2, 55, 30
4, 50944, Note_off_c, 2, 43, 30
4, 52992, Note_on_c, 2, 60, 48
4, 53504, Note_off_c, 2, 60, 30
4, 53760, Note_on_c, 2, 59, 48
4, 54016, Note_off_c, 2, 59, 30
4, 54144, Note_on_c, 2, 58, 48
4, 54400, Note_off_c, 2, 58, 30
4, 54528, Note_on_c, 2, 57, 48
4, 54784, Note_off_c, 2, 57, 30
4, 54912, Note_on_c, 2, 55, 48
4, 55168, Note_off_c, 2, 55, 30
4, 55296, Note_on_c, 2, 53, 48
4, 55552, Note_off_c, 2, 53, 30
4, 57600, Note_on_c, 2, 62, 48
4, 58112, Note_off_c, 2, 62, 30
4, 58368, Note_on_c, 2, 61, 48
4, 58624, Note_off_c, 2, 61, 30
4, 58752, Note_on_c, 2, 60, 48
4, 59008, Note_off_c, 2, 60, 30
4, 59136, Note_on_c, 2, 59, 48
4, 59392, Note_off_c, 2, 59, 30
4, 59520, Note_on_c, 2, 57, 48
4, 59776, Note_off_c, 2, 57, 30
4, 59904, Note_on_c, 2, 55, 75
4, 60160, Note_off_c, 2, 55, 48
4, 62208, Note_on_c, 2, 67, 75
4, 62720, Note_off_c, 2, 67, 48
4, 62976, Note_on_c, 2, 66, 75
4, 63232, Note_off_c, 2, 66, 48
4, 63360, Note_on_c, 2, 65, 75
4, 63616, Note_off_c, 2, 65, 48
4, 63744, Note_on_c, 2, 64, 75
4, 64000, Note_off_c, 2, 64, 48
4, 64128, Note_on_c, 2, 62, 75
4, 64384, Note_off_c, 2, 62, 48
4, 64512, Note_on_c, 2, 60, 75
4, 64768, Note_off_c, 2, 60, 48
4, 64896, Note_on_c, 2, 62, 75
4, 65152, Note_off_c, 2, 62, 48
4, 65280, Note_on_c, 2, 64, 75
4, 65536, Note_off_c, 2, 64, 48
4, 65664, Note_on_c, 2, 53, 75
4, 65792, Note_off_c, 2, 53, 48
4, 66048, Note_on_c, 2, 55, 75
4, 66304, Note_off_c, 2, 55, 48
4, 66432, Note_on_c, 2, 57, 75
4, 66688, Note_off_c, 2, 57, 48
4, 66816, Note_on_c, 2, 55, 75
4, 67072, Note_off_c, 2, 55, 48
4, 67200, Note_on_c, 2, 55, 75
4, 67456, Note_off_c, 2, 55, 48
4, 67584, Note_on_c, 2, 55, 75
4, 67840, Note_off_c, 2, 55, 48
4, 67968, Note_on_c, 2, 48, 75
4, 68224, Note_off_c, 2, 48, 48
4, 70272, Note_on_c, 2, 67, 75
4, 70784, Note_off_c, 2, 67, 48
4, 71040, Note_on_c, 2, 66, 75
4, 71296, Note_off_c, 2, 66, 48
4, 71424, Note_on_c, 2, 65, 75
4, 71680, Note_off_c, 2, 65, 48
4, 71808, Note_on_c, 2, 64, 75
4, 72064, Note_off_c, 2, 64, 48
4, 72192, Note_on_c, 2, 62, 75
4, 72448, Note_off_c, 2, 62, 48
4, 72576, Note_on_c, 2, 61, 75
4, 72832, Note_off_c, 2, 61, 48
4, 72960, Note_on_c, 2, 62, 75
4, 73216, Note_off_c, 2, 62, 48
4, 73344, Note_on_c, 2, 60, 75
4, 73600, Note_off_c, 2, 60, 48
4, 73728, Note_on_c, 2, 59, 75
4, 73984, Note_off_c, 2, 59, 48
4, 74112, Note_on_c, 2, 58, 75
4, 74368, Note_off_c, 2, 58, 48
4, 74496, Note_on_c, 2, 57, 75
4, 74752, Note_off_c, 2, 57, 48
4, 74880, Note_on_c, 2, 56, 75
4, 75136, Note_off_c, 2, 56, 48
4, 75264, Note_on_c, 2, 55, 75
4, 75520, Note_off_c, 2, 55, 48
4, 75648, Note_on_c, 2, 53, 75
4, 75904, Note_off_c, 2, 53, 48
4, 76032, Note_on_c, 2, 52, 75
4, 76288, Note_off_c, 2, 52, 48
4, 76416, Note_on_c, 2, 50, 75
4, 76672, Note_off_c, 2, 50, 48
4, 76800, Note_on_c, 2, 48, 75
4, 77056, Note_off_c, 2, 48, 48
4, 77184, Note_on_c, 2, 53, 75
4, 77312, Note_off_c, 2, 53, 48
4, 77568, Note_on_c, 2, 50, 75
4, 77696, Note_off_c, 2, 50, 48
4, 77952, Note_on_c, 2, 55, 75
4, 78080, Note_off_c, 2, 55, 48
4, 78336, Note_on_c, 2, 52, 100
4, 78848, Note_off_c, 2, 52, 64
4, 79104, Note_on_c, 2, 51, 100
4, 79360, Note_off_c, 2, 51, 64
4, 79488, Note_on_c, 2, 50, 100
4, 79616, Note_off_c, 2, 50, 64
4, 79872, Note_on_c, 2, 55, 100
4, 79936, Note_off_c, 2, 55, 64
4, 80256, Note_on_c, 2, 53, 100
4, 80320, Note_off_c, 2, 53, 64
4, 80640, Note_on_c, 2, 52, 100
4, 81152, Note_off_c, 2, 52, 64
4, 81408, Note_on_c, 2, 51, 100
4, 81664, Note_off_c, 2, 51, 64
4, 81792, Note_on_c, 2, 50, 100
4, 81920, Note_off_c, 2, 50, 64
4, 82176, Note_on_c, 2, 55, 100
4, 82240, Note_off_c, 2, 55, 64
4, 82560, Note_on_c, 2, 53, 100
4, 82624, Note_off_c, 2, 53, 64
4, 82944, Note_on_c, 2, 52, 100
4, 83200, Note_off_c, 2, 52, 64
4, 83328, Note_on_c, 2, 52, 100
4, 83584, Note_off_c, 2, 52, 64
4, 83712, Note_on_c, 2, 52, 100
4, 83968, Note_off_c, 2, 52, 64
4, 84096, Note_on_c, 2, 53, 100
4, 84352, Note_off_c, 2, 53, 64
4, 84480, Note_on_c, 2, 53, 100
4, 84736, Note_off_c, 2, 53, 64
4, 84864, Note_on_c, 2, 53, 100
4, 85120, Note_off_c, 2, 53, 64
4, 85248, Note_on_c, 2, 55, 100
4, 85504, Note_off_c, 2, 55, 64
4, 85632, Note_on_c, 2, 55, 100
4, 85888, Note_off_c, 2, 55, 64
4, 86016, Note_on_c, 2, 55, 100
4, 86272, Note_off_c, 2, 55, 64
4, 86400, Note_on_c, 2, 48, 100
4, 86656, Note_off_c, 2, 48, 64
4, 87552, Note_on_c, 2, 62, 100
4, 87552, Note_on_c, 2, 65, 100
4, 88320, Note_off_c, 2, 62, 64
4, 88320, Note_off_c, 2, 65, 64
4, 88704, Note_on_c, 2, 60, 100
4, 88704, Note_on_c, 2, 64, 100
4, 88960, Note_off_c, 2, 60, 64
4, 88960, Note_off_c, 2, 64, 64
4, 92160, Note_on_c, 2, 62, 100
4, 92160, Note_on_c, 2, 65, 100
4, 92928, Note_off_c, 2, 62, 64
4, 92928, Note_off_c, 2, 65, 64
4, 93312, Note_on_c, 2, 60, 100
4, 93312, Note_on_c, 2, 64, 100
4, 93568, Note_off_c, 2, 60, 64
4, 93568, Note_off_c, 2, 64, 64
4, 96768, Note_on_c, 2, 62, 100
4, 96768, Note_on_c, 2, 59, 100
4, 97536, Note_off_c, 2, 62, 64
4, 97536, Note_off_c, 2, 59, 64
4, 97920, Note_on_c, 2, 60, 100
4, 97920, Note_on_c, 2, 57, 100
4, 98688, Note_off_c, 2, 60, 64
4, 98688, Note_off_c, 2, 57, 64
4, 99072, Note_on_c, 2, 66, 100
4, 99072, Note_on_c, 2, 60, 100
4, 99840, Note_off_c, 2, 66, 64
4, 99840, Note_off_c, 2, 60, 64
4, 100224, Note_on_c, 2, 59, 100
4, 100224, Note_on_c, 2, 56, 100
4, 100992, Note_off_c, 2, 59, 64
4, 100992, Note_off_c, 2, 56, 64
4, 101376, Note_on_c, 2, 65, 100
4, 101376, Note_on_c, 2, 55, 100
4, 102144, Note_off_c, 2, 65, 64
4, 102144, Note_off_c, 2, 55, 64
4, 102528, Note_on_c, 2, 64, 100
4, 102528, Note_on_c, 2, 55, 100
4, 103296, Note_off_c, 2, 64, 64
4, 103296, Note_off_c, 2, 55, 64
4, 103680, Note_on_c, 2, 63, 100
4, 103680, Note_on_c, 2, 60, 100
4, 104448, Note_off_c, 2, 63, 64
4, 104448, Note_off_c, 2, 60, 64
4, 104832, Note_on_c, 2, 59, 100
4, 104832, Note_on_c, 2, 64, 100
4, 105088, Note_off_c, 2, 59, 64
4, 105088, Note_off_c, 2, 64, 64
4, 110592, Note_on_c, 2, 62, 100
4, 110592, Note_on_c, 2, 65, 100
4, 111360, Note_off_c, 2, 62, 64
4, 111360, Note_off_c, 2, 65, 64
4, 111744, Note_on_c, 2, 60, 100
4, 111744, Note_on_c, 2, 64, 100
4, 112000, Note_off_c, 2, 60, 64
4, 112000, Note_off_c, 2, 64, 64
4, 115200, Note_on_c, 2, 62, 100
4, 115200, Note_on_c, 2, 65, 100
4, 115968, Note_off_c, 2, 62, 64
4, 115968, Note_off_c, 2, 65, 64
4, 116352, Note_on_c, 2, 60, 100
4, 116352, Note_on_c, 2, 64, 100
4, 116608, Note_off_c, 2, 60, 64
4, 116608, Note_off_c, 2, 64, 64
4, 117696, Note_on_c, 2, 59, 100
4, 117760, Note_off_c, 2, 59, 64
4, 117888, Note_on_c, 2, 62, 100
4, 117952, Note_off_c, 2, 62, 64
4, 118080, Note_on_c, 2, 65, 100
4, 118144, Note_off_c, 2, 65, 64
4, 118272, Note_on_c, 2, 55, 100
4, 118400, Note_off_c, 2, 55, 64
4, 118464, Note_on_c, 2, 59, 100
4, 118592, Note_off_c, 2, 59, 64
4, 118656, Note_on_c, 2, 60, 100
4, 118784, Note_off_c, 2, 60, 64
4, 119040, Note_on_c, 2, 64, 100
4, 119296, Note_off_c, 2, 64, 64
4, 119424, Note_on_c, 2, 60, 100
4, 119680, Note_off_c, 2, 60, 64
4, 129024, Note_on_c, 2, 59, 42
4, 129536, Note_off_c, 2, 59, 26
4, 129792, Note_on_c, 2, 58, 42
4, 130048, Note_off_c, 2, 58, 26
4, 130176, Note_on_c, 2, 57, 42
4, 130304, Note_off_c, 2, 57, 26
4, 130944, Note_on_c, 2, 57, 42
4, 131008, Note_off_c, 2, 57, 26
4, 131328, Note_on_c, 2, 59, 42
4, 131840, Note_off_c, 2, 59, 26
4, 132096, Note_on_c, 2, 58, 42
4, 132352, Note_off_c, 2, 58, 26
4, 132480, Note_on_c, 2, 57, 42
4, 132608, Note_off_c, 2, 57, 26
4, 133248, Note_on_c, 2, 57, 42
4, 133312, Note_off_c, 2, 57, 26
4, 133632, Note_on_c, 2, 59, 42
4, 133888, Note_off_c, 2, 59, 26
4, 134016, Note_on_c, 2, 47, 42
4, 134272, Note_off_c, 2, 47, 26
4, 134400, Note_on_c, 2, 47, 42
4, 134656, Note_off_c, 2, 47, 26
4, 134784, Note_on_c, 2, 48, 42
4, 135040, Note_off_c, 2, 48, 26
4, 135168, Note_on_c, 2, 48, 42
4, 135424, Note_off_c, 2, 48, 26
4, 135552, Note_on_c, 2, 48, 42
4, 135808, Note_off_c, 2, 48, 26
4, 135936, Note_on_c, 2, 50, 42
4, 136192, Note_off_c, 2, 50, 26
4, 136320, Note_on_c, 2, 50, 42
4, 136576, Note_off_c, 2, 50, 26
4, 136704, Note_on_c, 2, 50, 42
4, 136960, Note_off_c, 2, 50, 26
4, 137088, Note_on_c, 2, 43, 42
4, 137344, Note_off_c, 2, 43, 26
4, 137344, End_track
5, 0, Start_track
5, 0, Title_t, "CORNI"
5, 0, Control_c, 3, 0, 0
5, 0, Program_c, 3, 60
5, 0, Control_c, 3, 91, 2
5, 0, Control_c, 3, 93, 16
5, 0, Key_signature, 0, "major"
5, 3456, Note_on_c, 3, 72, 87
5, 3456, Note_on_c, 3, 64, 87
5, 3584, Note_off_c, 3, 72, 55
5, 3584, Note_off_c, 3, 64, 55
5, 3840, Note_on_c, 3, 67, 87
5, 3968, Note_off_c, 3, 67, 55
5, 4224, Note_on_c, 3, 64, 87
5, 4224, Note_on_c, 3, 72, 87
5, 4352, Note_off_c, 3, 64, 55
5, 4352, Note_off_c, 3, 72, 55
5, 4608, Note_on_c, 3, 72, 87
5, 4608, Note_on_c, 3, 76, 87
5, 5120, Note_off_c, 3, 72, 55
5, 5120, Note_off_c, 3, 76, 55
5, 5376, Note_on_c, 3, 74, 87
5, 5376, Note_on_c, 3, 67, 87
5, 5440, Note_off_c, 3, 74, 55
5, 5440, Note_off_c, 3, 67, 55
5, 8064, Note_on_c, 3, 74, 87
5, 8064, Note_on_c, 3, 67, 87
5, 8192, Note_off_c, 3, 74, 55
5, 8192, Note_off_c, 3, 67, 55
5, 8448, Note_on_c, 3, 72, 87
5, 8448, Note_on_c, 3, 67, 87
5, 8576, Note_off_c, 3, 72, 55
5, 8576, Note_off_c, 3, 67, 55
5, 8832, Note_on_c, 3, 67, 87
5, 8832, Note_on_c, 3, 74, 87
5, 8960, Note_off_c, 3, 67, 55
5, 8960, Note_off_c, 3, 74, 55
5, 9216, Note_on_c, 3, 74, 87
5, 9216, Note_on_c, 3, 77, 87
5, 9728, Note_off_c, 3, 74, 55
5, 9728, Note_off_c, 3, 77, 55
5, 9984, Note_on_c, 3, 76, 87
5, 9984, Note_on_c, 3, 72, 87
5, 10240, Note_off_c, 3, 76, 55
5, 10240, Note_off_c, 3, 72, 55
5, 10368, Note_on_c, 3, 74, 87
5, 11136, Note_off_c, 3, 74, 55
5, 11520, Note_on_c, 3, 74, 87
5, 11776, Note_off_c, 3, 74, 55
5, 11904, Note_on_c, 3, 74, 87
5, 12160, Note_off_c, 3, 74, 55
5, 12288, Note_on_c, 3, 74, 87
5, 12544, Note_off_c, 3, 74, 55
5, 12672, Note_on_c, 3, 74, 87
5, 13440, Note_off_c, 3, 74, 55
5, 13824, Note_on_c, 3, 74, 87
5, 14080, Note_off_c, 3, 74, 55
5, 14208, Note_on_c, 3, 74, 87
5, 14464, Note_off_c, 3, 74, 55
5, 14592, Note_on_c, 3, 74, 87
5, 14848, Note_off_c, 3, 74, 55
5, 14976, Note_on_c, 3, 67, 87
5, 14976, Note_on_c, 3, 74, 87
5, 15232, Note_off_c, 3, 67, 55
5, 15232, Note_off_c, 3, 74, 55
5, 15360, Note_on_c, 3, 67, 87
5, 15360, Note_on_c, 3, 74, 87
5, 15616, Note_off_c, 3, 67, 55
5, 15616, Note_off_c, 3, 74, 55
5, 15744, Note_on_c, 3, 67, 87
5, 15744, Note_on_c, 3, 74, 87
5, 16000, Note_off_c, 3, 67, 55
5, 16000, Note_off_c, 3, 74, 55
5, 16128, Note_on_c, 3, 72, 87
5, 16128, Note_on_c, 3, 76, 87
5, 16384, Note_off_c, 3, 72, 55
5, 16384, Note_off_c, 3, 76, 55
5, 16512, Note_on_c, 3, 72, 87
5, 16512, Note_on_c, 3, 76, 87
5, 16768, Note_off_c, 3, 72, 55
5, 16768, Note_off_c, 3, 76, 55
5, 16896, Note_on_c, 3, 72, 87
5, 16896, Note_on_c, 3, 76, 87
5, 17152, Note_off_c, 3, 72, 55
5, 17152, Note_off_c, 3, 76, 55
5, 17280, Note_on_c, 3, 74, 87
5, 17536, Note_off_c, 3, 74, 55
5, 17664, Note_on_c, 3, 74, 87
5, 17920, Note_off_c, 3, 74, 55
5, 18048, Note_on_c, 3, 74, 87
5, 18304, Note_off_c, 3, 74, 55
5, 18432, Note_on_c, 3, 67, 87
5, 18432, Note_on_c, 3, 74, 87
5, 18688, Note_off_c, 3, 67, 55
5, 18688, Note_off_c, 3, 74, 55
5, 21888, Note_on_c, 3, 72, 87
5, 21888, Note_on_c, 3, 64, 87
5, 22016, Note_off_c, 3, 72, 55
5, 22016, Note_off_c, 3, 64, 55
5, 22272, Note_on_c, 3, 67, 87
5, 22400, Note_off_c, 3, 67, 55
5, 22656, Note_on_c, 3, 64, 87
5, 22656, Note_on_c, 3, 72, 87
5, 22784, Note_off_c, 3, 64, 55
5, 22784, Note_off_c, 3, 72, 55
5, 23040, Note_on_c, 3, 72, 87
5, 23040, Note_on_c, 3, 76, 87
5, 23552, Note_off_c, 3, 72, 55
5, 23552, Note_off_c, 3, 76, 55
5, 23808, Note_on_c, 3, 74, 87
5, 23808, Note_on_c, 3, 67, 87
5, 23872, Note_off_c, 3, 74, 55
5, 23872, Note_off_c, 3, 67, 55
5, 26496, Note_on_c, 3, 74, 87
5, 26496, Note_on_c, 3, 67, 87
5, 26624, Note_off_c, 3, 74, 55
5, 26624, Note_off_c, 3, 67, 55
5, 26880, Note_on_c, 3, 72, 87
5, 26880, Note_on_c, 3, 67, 87
5, 27008, Note_off_c, 3, 72, 55
5, 27008, Note_off_c, 3, 67, 55
5, 27264, Note_on_c, 3, 67, 87
5, 27264, Note_on_c, 3, 74, 87
5, 27392, Note_off_c, 3, 67, 55
5, 27392, Note_off_c, 3, 74, 55
5, 27648, Note_on_c, 3, 74, 87
5, 27648, Note_on_c, 3, 77, 87
5, 28160, Note_off_c, 3, 74, 55
5, 28160, Note_off_c, 3, 77, 55
5, 28416, Note_on_c, 3, 76, 87
5, 28416, Note_on_c, 3, 72, 87
5, 28672, Note_off_c, 3, 76, 55
5, 28672, Note_off_c, 3, 72, 55
5, 28800, Note_on_c, 3, 74, 87
5, 29568, Note_off_c, 3, 74, 55
5, 29952, Note_on_c, 3, 74, 87
5, 30208, Note_off_c, 3, 74, 55
5, 30336, Note_on_c, 3, 74, 87
5, 30592, Note_off_c, 3, 74, 55
5, 30720, Note_on_c, 3, 74, 87
5, 30976, Note_off_c, 3, 74, 55
5, 31104, Note_on_c, 3, 74, 87
5, 31872, Note_off_c, 3, 74, 55
5, 32256, Note_on_c, 3, 74, 87
5, 32512, Note_off_c, 3, 74, 55
5, 32640, Note_on_c, 3, 74, 87
5, 32896, Note_off_c, 3, 74, 55
5, 33024, Note_on_c, 3, 74, 87
5, 33280, Note_off_c, 3, 74, 55
5, 33408, Note_on_c, 3, 67, 87
5, 33408, Note_on_c, 3, 74, 87
5, 33664, Note_off_c, 3, 67, 55
5, 33664, Note_off_c, 3, 74, 55
5, 33792, Note_on_c, 3, 67, 87
5, 33792, Note_on_c, 3, 74, 87
5, 34048, Note_off_c, 3, 67, 55
5, 34048, Note_off_c, 3, 74, 55
5, 34176, Note_on_c, 3, 67, 87
5, 34176, Note_on_c, 3, 74, 87
5, 34432, Note_off_c, 3, 67, 55
5, 34432, Note_off_c, 3, 74, 55
5, 34560, Note_on_c, 3, 72, 87
5, 34560, Note_on_c, 3, 76, 87
5, 34816, Note_off_c, 3, 72, 55
5, 34816, Note_off_c, 3, 76, 55
5, 34944, Note_on_c, 3, 72, 87
5, 34944, Note_on_c, 3, 76, 87
5, 35200, Note_off_c, 3, 72, 55
5, 35200, Note_off_c, 3, 76, 55
5, 35328, Note_on_c, 3, 72, 87
5, 35328, Note_on_c, 3, 76, 87
5, 35584, Note_off_c, 3, 72, 55
5, 35584, Note_off_c, 3, 76, 55
5, 35712, Note_on_c, 3, 74, 87
5, 35968, Note_off_c, 3, 74, 55
5, 36096, Note_on_c, 3, 74, 87
5, 36352, Note_off_c, 3, 74, 55
5, 36480, Note_on_c, 3, 74, 87
5, 36736, Note_off_c, 3, 74, 55
5, 36864, Note_on_c, 3, 67, 87
5, 36864, Note_on_c, 3, 74, 87
5, 37120, Note_off_c, 3, 67, 55
5, 37120, Note_off_c, 3, 74, 55
5, 38016, Note_on_c, 3, 67, 100
5, 38016, Note_on_c, 3, 55, 100
5, 38272, Note_off_c, 3, 67, 64
5, 38272, Note_off_c, 3, 55, 64
5, 38400, Note_on_c, 3, 67, 100
5, 38400, Note_on_c, 3, 55, 100
5, 38656, Note_off_c, 3, 67, 64
5, 38656, Note_off_c, 3, 55, 64
5, 38784, Note_on_c, 3, 67, 100
5, 38784, Note_on_c, 3, 55, 100
5, 39040, Note_off_c, 3, 67, 64
5, 39040, Note_off_c, 3, 55, 64
5, 39168, Note_on_c, 3, 67, 100
5, 39168, Note_on_c, 3, 55, 100
5, 39424, Note_off_c, 3, 67, 64
5, 39424, Note_off_c, 3, 55, 64
5, 39552, Note_on_c, 3, 67, 100
5, 39552, Note_on_c, 3, 55, 100
5, 39808, Note_off_c, 3, 67, 64
5, 39808, Note_off_c, 3, 55, 64
5, 39936, Note_on_c, 3, 67, 100
5, 39936, Note_on_c, 3, 55, 100
5, 40192, Note_off_c, 3, 67, 64
5, 40192, Note_off_c, 3, 55, 64
5, 40320, Note_on_c, 3, 67, 100
5, 40320, Note_on_c, 3, 55, 100
5, 40576, Note_off_c, 3, 67, 64
5, 40576, Note_off_c, 3, 55, 64
5, 40704, Note_on_c, 3, 67, 100
5, 40704, Note_on_c, 3, 55, 100
5, 40960, Note_off_c, 3, 67, 64
5, 40960, Note_off_c, 3, 55, 64
5, 41088, Note_on_c, 3, 67, 100
5, 41088, Note_on_c, 3, 55, 100
5, 41344, Note_off_c, 3, 67, 64
5, 41344, Note_off_c, 3, 55, 64
5, 41472, Note_on_c, 3, 67, 100
5, 41472, Note_on_c, 3, 55, 100
5, 41728, Note_off_c, 3, 67, 64
5, 41728, Note_off_c, 3, 55, 64
5, 41856, Note_on_c, 3, 67, 100
5, 41856, Note_on_c, 3, 55, 100
5, 42112, Note_off_c, 3, 67, 64
5, 42112, Note_off_c, 3, 55, 64
5, 42240, Note_on_c, 3, 67, 100
5, 42240, Note_on_c, 3, 55, 100
5, 42496, Note_off_c, 3, 67, 64
5, 42496, Note_off_c, 3, 55, 64
5, 42624, Note_on_c, 3, 67, 100
5, 42624, Note_on_c, 3, 55, 100
5, 42880, Note_off_c, 3, 67, 64
5, 42880, Note_off_c, 3, 55, 64
5, 43008, Note_on_c, 3, 67, 100
5, 43008, Note_on_c, 3, 55, 100
5, 43264, Note_off_c, 3, 67, 64
5, 43264, Note_off_c, 3, 55, 64
5, 43392, Note_on_c, 3, 67, 100
5, 43392, Note_on_c, 3, 55, 100
5, 43648, Note_off_c, 3, 67, 64
5, 43648, Note_off_c, 3, 55, 64
5, 43776, Note_on_c, 3, 67, 100
5, 43776, Note_on_c, 3, 55, 100
5, 44032, Note_off_c, 3, 67, 64
5, 44032, Note_off_c, 3, 55, 64
5, 44160, Note_on_c, 3, 67, 100
5, 44160, Note_on_c, 3, 55, 100
5, 44416, Note_off_c, 3, 67, 64
5, 44416, Note_off_c, 3, 55, 64
5, 44544, Note_on_c, 3, 67, 100
5, 44544, Note_on_c, 3, 55, 100
5, 44800, Note_off_c, 3, 67, 64
5, 44800, Note_off_c, 3, 55, 64
5, 44928, Note_on_c, 3, 67, 100
5, 44928, Note_on_c, 3, 55, 100
5, 45184, Note_off_c, 3, 67, 64
5, 45184, Note_off_c, 3, 55, 64
5, 45312, Note_on_c, 3, 67, 100
5, 45312, Note_on_c, 3, 55, 100
5, 45568, Note_off_c, 3, 67, 64
5, 45568, Note_off_c, 3, 55, 64
5, 45696, Note_on_c, 3, 67, 100
5, 45696, Note_on_c, 3, 55, 100
5, 45952, Note_off_c, 3, 67, 64
5, 45952, Note_off_c, 3, 55, 64
5, 46080, Note_on_c, 3, 67, 100
5, 46080, Note_on_c, 3, 55, 100
5, 46336, Note_off_c, 3, 67, 64
5, 46336, Note_off_c, 3, 55, 64
5, 46464, Note_on_c, 3, 79, 100
5, 46464, Note_on_c, 3, 67, 100
5, 46720, Note_off_c, 3, 79, 64
5, 46720, Note_off_c, 3, 67, 64
5, 46848, Note_on_c, 3, 79, 100
5, 46848, Note_on_c, 3, 67, 100
5, 47104, Note_off_c, 3, 79, 64
5, 47104, Note_off_c, 3, 67, 64
5, 47232, Note_on_c, 3, 79, 100
5, 47232, Note_on_c, 3, 67, 100
5, 47744, Note_off_c, 3, 79, 64
5, 47744, Note_off_c, 3, 67, 64
5, 48000, Note_on_c, 3, 76, 100
5, 48000, Note_on_c, 3, 64, 100
5, 48128, Note_off_c, 3, 76, 64
5, 48128, Note_off_c, 3, 64, 64
5, 48192, Note_on_c, 3, 72, 100
5, 48192, Note_on_c, 3, 60, 100
5, 48320, Note_off_c, 3, 72, 64
5, 48320, Note_off_c, 3, 60, 64
5, 48384, Note_on_c, 3, 79, 100
5, 48384, Note_on_c, 3, 67, 100
5, 48640, Note_off_c, 3, 79, 64
5, 48640, Note_off_c, 3, 67, 64
5, 48768, Note_on_c, 3, 67, 100
5, 49024, Note_off_c, 3, 67, 64
5, 49152, Note_on_c, 3, 67, 100
5, 49408, Note_off_c, 3, 67, 64
5, 49536, Note_on_c, 3, 67, 100
5, 50048, Note_off_c, 3, 67, 64
5, 50304, Note_on_c, 3, 64, 100
5, 50432, Note_off_c, 3, 64, 64
5, 50496, Note_on_c, 3, 60, 100
5, 50624, Note_off_c, 3, 60, 64
5, 50688, Note_on_c, 3, 67, 100
5, 50944, Note_off_c, 3, 67, 64
5, 52992, Note_on_c, 3, 72, 100
5, 52992, Note_on_c, 3, 60, 100
5, 53248, Note_off_c, 3, 72, 64
5, 53248, Note_off_c, 3, 60, 64
5, 53376, Note_on_c, 3, 72, 100
5, 53376, Note_on_c, 3, 60, 100
5, 53632, Note_off_c, 3, 72, 64
5, 53632, Note_off_c, 3, 60, 64
5, 53760, Note_on_c, 3, 72, 100
5, 53760, Note_on_c, 3, 60, 100
5, 54016, Note_off_c, 3, 72, 64
5, 54016, Note_off_c, 3, 60, 64
5, 54144, Note_on_c, 3, 72, 100
5, 54144, Note_on_c, 3, 60, 100
5, 54400, Note_off_c, 3, 72, 64
5, 54400, Note_off_c, 3, 60, 64
5, 54528, Note_on_c, 3, 72, 100
5, 54528, Note_on_c, 3, 60, 100
5, 54784, Note_off_c, 3, 72, 64
5, 54784, Note_off_c, 3, 60, 64
5, 54912, Note_on_c, 3, 72, 100
5, 54912, Note_on_c, 3, 60, 100
5, 55168, Note_off_c, 3, 72, 64
5, 55168, Note_off_c, 3, 60, 64
5, 55296, Note_on_c, 3, 72, 100
5, 55296, Note_on_c, 3, 60, 100
5, 55552, Note_off_c, 3, 72, 64
5, 55552, Note_off_c, 3, 60, 64
5, 57600, Note_on_c, 3, 74, 100
5, 58368, Note_off_c, 3, 74, 64
5, 58752, Note_on_c, 3, 74, 100
5, 59008, Note_off_c, 3, 74, 64
5, 59136, Note_on_c, 3, 74, 100
5, 59392, Note_off_c, 3, 74, 64
5, 59520, Note_on_c, 3, 74, 100
5, 59776, Note_off_c, 3, 74, 64
5, 59904, Note_on_c, 3, 74, 100
5, 59904, Note_on_c, 3, 67, 100
5, 60160, Note_off_c, 3, 74, 64
5, 60160, Note_off_c, 3, 67, 64
5, 62208, Note_on_c, 3, 67, 100
5, 62464, Note_off_c, 3, 67, 64
5, 62592, Note_on_c, 3, 67, 100
5, 62848, Note_off_c, 3, 67, 64
5, 62976, Note_on_c, 3, 67, 100
5, 63232, Note_off_c, 3, 67, 64
5, 63360, Note_on_c, 3, 67, 100
5, 63616, Note_off_c, 3, 67, 64
5, 63744, Note_on_c, 3, 67, 100
5, 64000, Note_off_c, 3, 67, 64
5, 64128, Note_on_c, 3, 67, 100
5, 64384, Note_off_c, 3, 67, 64
5, 64512, Note_on_c, 3, 72, 100
5, 64512, Note_on_c, 3, 60, 100
5, 64768, Note_off_c, 3, 72, 64
5, 64768, Note_off_c, 3, 60, 64
5, 65664, Note_on_c, 3, 72, 100
5, 65664, Note_on_c, 3, 60, 100
5, 65920, Note_off_c, 3, 72, 64
5, 65920, Note_off_c, 3, 60, 64
5, 66816, Note_on_c, 3, 67, 100
5, 67072, Note_off_c, 3, 67, 64
5, 67200, Note_on_c, 3, 67, 100
5, 67456, Note_off_c, 3, 67, 64
5, 67584, Note_on_c, 3, 67, 100
5, 67840, Note_off_c, 3, 67, 64
5, 67968, Note_on_c, 3, 67, 100
5, 67968, Note_on_c, 3, 64, 100
5, 68224, Note_off_c, 3, 67, 64
5, 68224, Note_off_c, 3, 64, 64
5, 78336, Note_on_c, 3, 67, 100
5, 79104, Note_off_c, 3, 67, 64
5, 79488, Note_on_c, 3, 67, 100
5, 79744, Note_off_c, 3, 67, 64
5, 79872, Note_on_c, 3, 67, 100
5, 80128, Note_off_c, 3, 67, 64
5, 80256, Note_on_c, 3, 67, 100
5, 80512, Note_off_c, 3, 67, 64
5, 80640, Note_on_c, 3, 67, 100
5, 81408, Note_off_c, 3, 67, 64
5, 81792, Note_on_c, 3, 67, 100
5, 82048, Note_off_c, 3, 67, 64
5, 82176, Note_on_c, 3, 67, 100
5, 82432, Note_off_c, 3, 67, 64
5, 82560, Note_on_c, 3, 67, 100
5, 82816, Note_off_c, 3, 67, 64
5, 82944, Note_on_c, 3, 72, 100
5, 82944, Note_on_c, 3, 60, 100
5, 83200, Note_off_c, 3, 72, 64
5, 83200, Note_off_c, 3, 60, 64
5, 83328, Note_on_c, 3, 72, 100
5, 83328, Note_on_c, 3, 60, 100
5, 83584, Note_off_c, 3, 72, 64
5, 83584, Note_off_c, 3, 60, 64
5, 83712, Note_on_c, 3, 72, 100
5, 83712, Note_on_c, 3, 60, 100
5, 83968, Note_off_c, 3, 72, 64
5, 83968, Note_off_c, 3, 60, 64
5, 84096, Note_on_c, 3, 72, 100
5, 84096, Note_on_c, 3, 60, 100
5, 84352, Note_off_c, 3, 72, 64
5, 84352, Note_off_c, 3, 60, 64
5, 85248, Note_on_c, 3, 74, 100
5, 85248, Note_on_c, 3, 67, 100
5, 85504, Note_off_c, 3, 74, 64
5, 85504, Note_off_c, 3, 67, 64
5, 86400, Note_on_c, 3, 72, 100
5, 86400, Note_on_c, 3, 64, 100
5, 86656, Note_off_c, 3, 72, 64
5, 86656, Note_off_c, 3, 64, 64
5, 87552, Note_on_c, 3, 67, 100
5, 88320, Note_off_c, 3, 67, 64
5, 88704, Note_on_c, 3, 60, 100
5, 88960, Note_off_c, 3, 60, 64
5, 92160, Note_on_c, 3, 67, 100
5, 92928, Note_off_c, 3, 67, 64
5, 93312, Note_on_c, 3, 60, 100
5, 93568, Note_off_c, 3, 60, 64
5, 96768, Note_on_c, 3, 64, 100
5, 97024, Note_off_c, 3, 64, 64
5, 97536, Note_on_c, 3, 64, 100
5, 97664, Note_off_c, 3, 64, 64
5, 97728, Note_on_c, 3, 64, 100
5, 97856, Note_off_c, 3, 64, 64
5, 97920, Note_on_c, 3, 64, 100
5, 98176, Note_off_c, 3, 64, 64
5, 98688, Note_on_c, 3, 64, 100
5, 98816, Note_off_c, 3, 64, 64
5, 98880, Note_on_c, 3, 64, 100
5, 99008, Note_off_c, 3, 64, 64
5, 99072, Note_on_c, 3, 64, 100
5, 99328, Note_off_c, 3, 64, 64
5, 99840, Note_on_c, 3, 64, 100
5, 99968, Note_off_c, 3, 64, 64
5, 100032, Note_on_c, 3, 64, 100
5, 100160, Note_off_c, 3, 64, 64
5, 100224, Note_on_c, 3, 64, 100
5, 100480, Note_off_c, 3, 64, 64
5, 100992, Note_on_c, 3, 64, 100
5, 101120, Note_off_c, 3, 64, 64
5, 101184, Note_on_c, 3, 64, 100
5, 101312, Note_off_c, 3, 64, 64
5, 101376, Note_on_c, 3, 64, 100
5, 101632, Note_off_c, 3, 64, 64
5, 102144, Note_on_c, 3, 64, 100
5, 102272, Note_off_c, 3, 64, 64
5, 102336, Note_on_c, 3, 64, 100
5, 102464, Note_off_c, 3, 64, 64
5, 102528, Note_on_c, 3, 64, 100
5, 102784, Note_off_c, 3, 64, 64
5, 103296, Note_on_c, 3, 64, 100
5, 103424, Note_off_c, 3, 64, 64
5, 103488, Note_on_c, 3, 64, 100
5, 103616, Note_off_c, 3, 64, 64
5, 103680, Note_on_c, 3, 64, 100
5, 103936, Note_off_c, 3, 64, 64
5, 104448, Note_on_c, 3, 64, 100
5, 104576, Note_off_c, 3, 64, 64
5, 104640, Note_on_c, 3, 64, 100
5, 104768, Note_off_c, 3, 64, 64
5, 104832, Note_on_c, 3, 64, 100
5, 105088, Note_off_c, 3, 64, 64
5, 110592, Note_on_c, 3, 67, 100
5, 111360, Note_off_c, 3, 67, 64
5, 111744, Note_on_c, 3, 60, 100
5, 112000, Note_off_c, 3, 60, 64
5, 115200, Note_on_c, 3, 43, 100
5, 115968, Note_off_c, 3, 43, 64
5, 116352, Note_on_c, 3, 40, 100
5, 116608, Note_off_c, 3, 40, 64
5, 122112, Note_on_c, 3, 72, 87
5, 122112, Note_on_c, 3, 64, 87
5, 122240, Note_off_c, 3, 72, 55
5, 122240, Note_off_c, 3, 64, 55
5, 122496, Note_on_c, 3, 67, 87
5, 122624, Note_off_c, 3, 67, 55
5, 122880, Note_on_c, 3, 64, 87
5, 122880, Note_on_c, 3, 72, 87
5, 123008, Note_off_c, 3, 64, 55
5, 123008, Note_off_c, 3, 72, 55
5, 123264, Note_on_c, 3, 72, 87
5, 123264, Note_on_c, 3, 76, 87
5, 123776, Note_off_c, 3, 72, 55
5, 123776, Note_off_c, 3, 76, 55
5, 124032, Note_on_c, 3, 74, 87
5, 124032, Note_on_c, 3, 67, 87
5, 124096, Note_off_c, 3, 74, 55
5, 124096, Note_off_c, 3, 67, 55
5, 126720, Note_on_c, 3, 74, 87
5, 126720, Note_on_c, 3, 67, 87
5, 126848, Note_off_c, 3, 74, 55
5, 126848, Note_off_c, 3, 67, 55
5, 127104, Note_on_c, 3, 72, 87
5, 127104, Note_on_c, 3, 67, 87
5, 127232, Note_off_c, 3, 72, 55
5, 127232, Note_off_c, 3, 67, 55
5, 127488, Note_on_c, 3, 67, 87
5, 127488, Note_on_c, 3, 74, 87
5, 127616, Note_off_c, 3, 67, 55
5, 127616, Note_off_c, 3, 74, 55
5, 127872, Note_on_c, 3, 74, 87
5, 127872, Note_on_c, 3, 77, 87
5, 128384, Note_off_c, 3, 74, 55
5, 128384, Note_off_c, 3, 77, 55
5, 128640, Note_on_c, 3, 76, 87
5, 128640, Note_on_c, 3, 72, 87
5, 128896, Note_off_c, 3, 76, 55
5, 128896, Note_off_c, 3, 72, 55
5, 129024, Note_on_c, 3, 74, 87
5, 129792, Note_off_c, 3, 74, 55
5, 130176, Note_on_c, 3, 74, 87
5, 130432, Note_off_c, 3, 74, 55
5, 130560, Note_on_c, 3, 74, 87
5, 130816, Note_off_c, 3, 74, 55
5, 130944, Note_on_c, 3, 74, 87
5, 131200, Note_off_c, 3, 74, 55
5, 131328, Note_on_c, 3, 74, 87
5, 132096, Note_off_c, 3, 74, 55
5, 132480, Note_on_c, 3, 74, 87
5, 132736, Note_off_c, 3, 74, 55
5, 132864, Note_on_c, 3, 74, 87
5, 133120, Note_off_c, 3, 74, 55
5, 133248, Note_on_c, 3, 74, 87
5, 133504, Note_off_c, 3, 74, 55
5, 133632, Note_on_c, 3, 67, 87
5, 133632, Note_on_c, 3, 74, 87
5, 133888, Note_off_c, 3, 67, 55
5, 133888, Note_off_c, 3, 74, 55
5, 134016, Note_on_c, 3, 67, 87
5, 134016, Note_on_c, 3, 74, 87
5, 134272, Note_off_c, 3, 67, 55
5, 134272, Note_off_c, 3, 74, 55
5, 134400, Note_on_c, 3, 67, 87
5, 134400, Note_on_c, 3, 74, 87
5, 134656, Note_off_c, 3, 67, 55
5, 134656, Note_off_c, 3, 74, 55
5, 134784, Note_on_c, 3, 72, 87
5, 134784, Note_on_c, 3, 76, 87
5, 135040, Note_off_c, 3, 72, 55
5, 135040, Note_off_c, 3, 76, 55
5, 135168, Note_on_c, 3, 72, 87
5, 135168, Note_on_c, 3, 76, 87
5, 135424, Note_off_c, 3, 72, 55
5, 135424, Note_off_c, 3, 76, 55
5, 135552, Note_on_c, 3, 72, 87
5, 135552, Note_on_c, 3, 76, 87
5, 135808, Note_off_c, 3, 72, 55
5, 135808, Note_off_c, 3, 76, 55
5, 135936, Note_on_c, 3, 74, 87
5, 136192, Note_off_c, 3, 74, 55
5, 136320, Note_on_c, 3, 74, 87
5, 136576, Note_off_c, 3, 74, 55
5, 136704, Note_on_c, 3, 74, 87
5, 136960, Note_off_c, 3, 74, 55
5, 137088, Note_on_c, 3, 67, 87
5, 137088, Note_on_c, 3, 74, 87
5, 137344, Note_off_c, 3, 67, 55
5, 137344, Note_off_c, 3, 74, 55
5, 137344, End_track
6, 0, Start_track
6, 0, Title_t, "TROMBE"
6, 0, Control_c, 4, 0, 0
6, 0, Program_c, 4, 56
6, 0, Control_c, 4, 91, 0
6, 0, Control_c, 4, 93, 10
6, 0, Key_signature, 0, "major"
6, 3456, Note_on_c, 4, 72, 90
6, 3456, Note_on_c, 4, 60, 90
6, 3712, Note_off_c, 4, 72, 57
6, 3712, Note_off_c, 4, 60, 57
6, 4608, Note_on_c, 4, 67, 90
6, 4608, Note_on_c, 4, 55, 90
6, 4864, Note_off_c, 4, 67, 57
6, 4864, Note_off_c, 4, 55, 57
6, 8064, Note_on_c, 4, 67, 90
6, 8064, Note_on_c, 4, 55, 90
6, 8320, Note_off_c, 4, 67, 57
6, 8320, Note_off_c, 4, 55, 57
6, 9216, Note_on_c, 4, 48, 100
6, 9216, Note_on_c, 4, 36, 100
6, 9472, Note_off_c, 4, 48, 64
6, 9472, Note_off_c, 4, 36, 64
6, 10368, Note_on_c, 4, 67, 90
6, 10624, Note_off_c, 4, 67, 57
6, 11520, Note_on_c, 4, 74, 90
6, 11776, Note_off_c, 4, 74, 57
6, 12672, Note_on_c, 4, 67, 90
6, 12928, Note_off_c, 4, 67, 57
6, 13824, Note_on_c, 4, 74, 90
6, 14080, Note_off_c, 4, 74, 57
6, 14976, Note_on_c, 4, 67, 90
6, 14976, Note_on_c, 4, 74, 90
6, 15232, Note_off_c, 4, 67, 57
6, 15232, Note_off_c, 4, 74, 57
6, 16128, Note_on_c, 4, 72, 90
6, 16128, Note_on_c, 4, 76, 90
6, 16384, Note_off_c, 4, 72, 57
6, 16384, Note_off_c, 4, 76, 57
6, 17280, Note_on_c, 4, 74, 90
6, 17536, Note_off_c, 4, 74, 57
6, 18432, Note_on_c, 4, 67, 90
6, 18432, Note_on_c, 4, 74, 90
6, 18688, Note_off_c, 4, 67, 57
6, 18688, Note_off_c, 4, 74, 57
6, 21888, Note_on_c, 4, 72, 90
6, 21888, Note_on_c, 4, 60, 90
6, 22144, Note_off_c, 4, 72, 57
6, 22144, Note_off_c, 4, 60, 57
6, 23040, Note_on_c, 4, 67, 90
6, 23040, Note_on_c, 4, 55, 90
6, 23296, Note_off_c, 4, 67, 57
6, 23296, Note_off_c, 4, 55, 57
6, 26496, Note_on_c, 4, 67, 90
6, 26496, Note_on_c, 4, 55, 90
6, 26752, Note_off_c, 4, 67, 57
6, 26752, Note_off_c, 4, 55, 57
6, 27648, Note_on_c, 4, 48, 100
6, 27648, Note_on_c, 4, 36, 100
6, 27904, Note_off_c, 4, 48, 64
6, 27904, Note_off_c, 4, 36, 64
6, 28800, Note_on_c, 4, 67, 90
6, 29056, Note_off_c, 4, 67, 57
6, 29952, Note_on_c, 4, 74, 90
6, 30208, Note_off_c, 4, 74, 57
6, 31104, Note_on_c, 4, 67, 90
6, 31360, Note_off_c, 4, 67, 57
6, 32256, Note_on_c, 4, 74, 90
6, 32512, Note_off_c, 4, 74, 57
6, 33408, Note_on_c, 4, 67, 90
6, 33408, Note_on_c, 4, 74, 90
6, 33664, Note_off_c, 4, 67, 57
6, 33664, Note_off_c, 4, 74, 57
6, 34560, Note_on_c, 4, 72, 90
6, 34560, Note_on_c, 4, 76, 90
6, 34816, Note_off_c, 4, 72, 57
6, 34816, Note_off_c, 4, 76, 57
6, 35712, Note_on_c, 4, 74, 90
6, 35968, Note_off_c, 4, 74, 57
6, 36864, Note_on_c, 4, 67, 90
6, 36864, Note_on_c, 4, 74, 90
6, 37120, Note_off_c, 4, 67, 57
6, 37120, Note_off_c, 4, 74, 57
6, 38016, Note_on_c, 4, 67, 100
6, 38016, Note_on_c, 4, 55, 100
6, 38272, Note_off_c, 4, 67, 64
6, 38272, Note_off_c, 4, 55, 64
6, 40320, Note_on_c, 4, 67, 100
6, 40320, Note_on_c, 4, 55, 100
6, 40576, Note_off_c, 4, 67, 64
6, 40576, Note_off_c, 4, 55, 64
6, 42624, Note_on_c, 4, 67, 100
6, 42624, Note_on_c, 4, 55, 100
6, 42880, Note_off_c, 4, 67, 64
6, 42880, Note_off_c, 4, 55, 64
6, 43776, Note_on_c, 4, 67, 100
6, 43776, Note_on_c, 4, 55, 100
6, 44032, Note_off_c, 4, 67, 64
6, 44032, Note_off_c, 4, 55, 64
6, 44928, Note_on_c, 4, 67, 100
6, 44928, Note_on_c, 4, 55, 100
6, 45184, Note_off_c, 4, 67, 64
6, 45184, Note_off_c, 4, 55, 64
6, 46080, Note_on_c, 4, 67, 100
6, 46080, Note_on_c, 4, 55, 100
6, 46336, Note_off_c, 4, 67, 64
6, 46336, Note_off_c, 4, 55, 64
6, 48768, Note_on_c, 4, 67, 100
6, 49024, Note_off_c, 4, 67, 64
6, 49152, Note_on_c, 4, 67, 100
6, 49408, Note_off_c, 4, 67, 64
6, 49536, Note_on_c, 4, 67, 100
6, 50048, Note_off_c, 4, 67, 64
6, 50304, Note_on_c, 4, 64, 100
6, 50432, Note_off_c, 4, 64, 64
6, 50496, Note_on_c, 4, 60, 100
6, 50624, Note_off_c, 4, 60, 64
6, 50688, Note_on_c, 4, 67, 100
6, 50944, Note_off_c, 4, 67, 64
6, 52992, Note_on_c, 4, 72, 100
6, 52992, Note_on_c, 4, 60, 100
6, 53248, Note_off_c, 4, 72, 64
6, 53248, Note_off_c, 4, 60, 64
6, 53376, Note_on_c, 4, 72, 100
6, 53376, Note_on_c, 4, 60, 100
6, 53632, Note_off_c, 4, 72, 64
6, 53632, Note_off_c, 4, 60, 64
6, 53760, Note_on_c, 4, 72, 100
6, 53760, Note_on_c, 4, 60, 100
6, 54016, Note_off_c, 4, 72, 64
6, 54016, Note_off_c, 4, 60, 64
6, 54144, Note_on_c, 4, 72, 100
6, 54144, Note_on_c, 4, 60, 100
6, 54400, Note_off_c, 4, 72, 64
6, 54400, Note_off_c, 4, 60, 64
6, 54528, Note_on_c, 4, 72, 100
6, 54528, Note_on_c, 4, 60, 100
6, 54784, Note_off_c, 4, 72, 64
6, 54784, Note_off_c, 4, 60, 64
6, 54912, Note_on_c, 4, 72, 100
6, 54912, Note_on_c, 4, 60, 100
6, 55168, Note_off_c, 4, 72, 64
6, 55168, Note_off_c, 4, 60, 64
6, 55296, Note_on_c, 4, 72, 100
6, 55296, Note_on_c, 4, 60, 100
6, 55552, Note_off_c, 4, 72, 64
6, 55552, Note_off_c, 4, 60, 64
6, 57600, Note_on_c, 4, 74, 100
6, 58368, Note_off_c, 4, 74, 64
6, 58752, Note_on_c, 4, 74, 100
6, 59008, Note_off_c, 4, 74, 64
6, 59136, Note_on_c, 4, 74, 100
6, 59392, Note_off_c, 4, 74, 64
6, 59520, Note_on_c, 4, 74, 100
6, 59776, Note_off_c, 4, 74, 64
6, 59904, Note_on_c, 4, 74, 100
6, 59904, Note_on_c, 4, 67, 100
6, 60160, Note_off_c, 4, 74, 64
6, 60160, Note_off_c, 4, 67, 64
6, 62208, Note_on_c, 4, 67, 100
6, 62464, Note_off_c, 4, 67, 64
6, 62592, Note_on_c, 4, 67, 100
6, 62848, Note_off_c, 4, 67, 64
6, 62976, Note_on_c, 4, 67, 100
6, 63232, Note_off_c, 4, 67, 64
6, 63360, Note_on_c, 4, 67, 100
6, 63616, Note_off_c, 4, 67, 64
6, 63744, Note_on_c, 4, 67, 100
6, 64000, Note_off_c, 4, 67, 64
6, 64128, Note_on_c, 4, 67, 100
6, 64384, Note_off_c, 4, 67, 64
6, 64512, Note_on_c, 4, 72, 100
6, 64512, Note_on_c, 4, 60, 100
6, 64768, Note_off_c, 4, 72, 64
6, 64768, Note_off_c, 4, 60, 64
6, 65664, Note_on_c, 4, 72, 100
6, 65664, Note_on_c, 4, 60, 100
6, 65920, Note_off_c, 4, 72, 64
6, 65920, Note_off_c, 4, 60, 64
6, 66816, Note_on_c, 4, 67, 100
6, 67072, Note_off_c, 4, 67, 64
6, 67200, Note_on_c, 4, 67, 100
6, 67456, Note_off_c, 4, 67, 64
6, 67584, Note_on_c, 4, 67, 100
6, 67840, Note_off_c, 4, 67, 64
6, 67968, Note_on_c, 4, 67, 100
6, 67968, Note_on_c, 4, 64, 100
6, 68224, Note_off_c, 4, 67, 64
6, 68224, Note_off_c, 4, 64, 64
6, 78336, Note_on_c, 4, 67, 100
6, 79104, Note_off_c, 4, 67, 64
6, 79488, Note_on_c, 4, 67, 100
6, 79744, Note_off_c, 4, 67, 64
6, 79872, Note_on_c, 4, 67, 100
6, 80128, Note_off_c, 4, 67, 64
6, 80256, Note_on_c, 4, 67, 100
6, 80512, Note_off_c, 4, 67, 64
6, 80640, Note_on_c, 4, 67, 100
6, 81408, Note_off_c, 4, 67, 64
6, 81792, Note_on_c, 4, 67, 100
6, 82048, Note_off_c, 4, 67, 64
6, 82176, Note_on_c, 4, 67, 100
6, 82432, Note_off_c, 4, 67, 64
6, 82560, Note_on_c, 4, 67, 100
6, 82816, Note_off_c, 4, 67, 64
6, 82944, Note_on_c, 4, 72, 100
6, 82944, Note_on_c, 4, 60, 100
6, 83200, Note_off_c, 4, 72, 64
6, 83200, Note_off_c, 4, 60, 64
6, 83328, Note_on_c, 4, 72, 100
6, 83328, Note_on_c, 4, 60, 100
6, 83584, Note_off_c, 4, 72, 64
6, 83584, Note_off_c, 4, 60, 64
6, 83712, Note_on_c, 4, 72, 100
6, 83712, Note_on_c, 4, 60, 100
6, 83968, Note_off_c, 4, 72, 64
6, 83968, Note_off_c, 4, 60, 64
6, 84096, Note_on_c, 4, 72, 100
6, 84096, Note_on_c, 4, 60, 100
6, 84352, Note_off_c, 4, 72, 64
6, 84352, Note_off_c, 4, 60, 64
6, 85248, Note_on_c, 4, 74, 100
6, 85248, Note_on_c, 4, 67, 100
6, 85504, Note_off_c, 4, 74, 64
6, 85504, Note_off_c, 4, 67, 64
6, 86400, Note_on_c, 4, 72, 100
6, 86400, Note_on_c, 4, 64, 100
6, 86656, Note_off_c, 4, 72, 64
6, 86656, Note_off_c, 4, 64, 64
6, 96768, Note_on_c, 4, 64, 100
6, 97024, Note_off_c, 4, 64, 64
6, 97536, Note_on_c, 4, 64, 100
6, 97664, Note_off_c, 4, 64, 64
6, 97728, Note_on_c, 4, 64, 100
6, 97856, Note_off_c, 4, 64, 64
6, 97920, Note_on_c, 4, 64, 100
6, 98176, Note_off_c, 4, 64, 64
6, 98688, Note_on_c, 4, 64, 100
6, 98816, Note_off_c, 4, 64, 64
6, 98880, Note_on_c, 4, 64, 100
6, 99008, Note_off_c, 4, 64, 64
6, 99072, Note_on_c, 4, 64, 100
6, 99328, Note_off_c, 4, 64, 64
6, 99840, Note_on_c, 4, 64, 100
6, 99968, Note_off_c, 4, 64, 64
6, 100032, Note_on_c, 4, 64, 100
6, 100160, Note_off_c, 4, 64, 64
6, 100224, Note_on_c, 4, 64, 100
6, 100480, Note_off_c, 4, 64, 64
6, 100992, Note_on_c, 4, 64, 100
6, 101120, Note_off_c, 4, 64, 64
6, 101184, Note_on_c, 4, 64, 100
6, 101312, Note_off_c, 4, 64, 64
6, 101376, Note_on_c, 4, 64, 100
6, 101632, Note_off_c, 4, 64, 64
6, 102144, Note_on_c, 4, 64, 100
6, 102272, Note_off_c, 4, 64, 64
6, 102336, Note_on_c, 4, 64, 100
6, 102464, Note_off_c, 4, 64, 64
6, 102528, Note_on_c, 4, 64, 100
6, 102784, Note_off_c, 4, 64, 64
6, 103296, Note_on_c, 4, 64, 100
6, 103424, Note_off_c, 4, 64, 64
6, 103488, Note_on_c, 4, 64, 100
6, 103616, Note_off_c, 4, 64, 64
6, 103680, Note_on_c, 4, 64, 100
6, 103936, Note_off_c, 4, 64, 64
6, 104448, Note_on_c, 4, 64, 100
6, 104576, Note_off_c, 4, 64, 64
6, 104640, Note_on_c, 4, 64, 100
6, 104768, Note_off_c, 4, 64, 64
6, 104832, Note_on_c, 4, 64, 100
6, 105088, Note_off_c, 4, 64, 64
6, 122112, Note_on_c, 4, 72, 90
6, 122112, Note_on_c, 4, 60, 90
6, 122368, Note_off_c, 4, 72, 57
6, 122368, Note_off_c, 4, 60, 57
6, 123264, Note_on_c, 4, 67, 90
6, 123520, Note_off_c, 4, 67, 57
6, 126720, Note_on_c, 4, 67, 90
6, 126976, Note_off_c, 4, 67, 57
6, 129024, Note_on_c, 4, 67, 90
6, 129280, Note_off_c, 4, 67, 57
6, 130176, Note_on_c, 4, 74, 90
6, 130432, Note_off_c, 4, 74, 57
6, 131328, Note_on_c, 4, 67, 90
6, 131584, Note_off_c, 4, 67, 57
6, 132480, Note_on_c, 4, 74, 90
6, 132736, Note_off_c, 4, 74, 57
6, 133632, Note_on_c, 4, 67, 90
6, 133632, Note_on_c, 4, 74, 90
6, 133888, Note_off_c, 4, 67, 57
6, 133888, Note_off_c, 4, 74, 57
6, 134784, Note_on_c, 4, 72, 90
6, 134784, Note_on_c, 4, 76, 90
6, 135040, Note_off_c, 4, 72, 57
6, 135040, Note_off_c, 4, 76, 57
6, 135936, Note_on_c, 4, 74, 90
6, 136192, Note_off_c, 4, 74, 57
6, 137088, Note_on_c, 4, 67, 90
6, 137088, Note_on_c, 4, 74, 90
6, 137344, Note_off_c, 4, 67, 57
6, 137344, Note_off_c, 4, 74, 57
6, 137344, End_track
7, 0, Start_track
7, 0, Title_t, "TIMPANI"
7, 0, Control_c, 5, 0, 0
7, 0, Program_c, 5, 47
7, 0, Control_c, 5, 91, 15
7, 0, Key_signature, 0, "major"
7, 3456, Note_on_c, 5, 48, 93
7, 3712, Note_off_c, 5, 48, 59
7, 4608, Note_on_c, 5, 43, 93
7, 4864, Note_off_c, 5, 43, 59
7, 8064, Note_on_c, 5, 43, 93
7, 8320, Note_off_c, 5, 43, 59
7, 9216, Note_on_c, 5, 48, 100
7, 9472, Note_off_c, 5, 48, 64
7, 10368, Note_on_c, 5, 43, 93
7, 10624, Note_off_c, 5, 43, 59
7, 12672, Note_on_c, 5, 43, 93
7, 12928, Note_off_c, 5, 43, 59
7, 14976, Note_on_c, 5, 43, 93
7, 15232, Note_off_c, 5, 43, 59
7, 16128, Note_on_c, 5, 48, 93
7, 16384, Note_off_c, 5, 48, 59
7, 18432, Note_on_c, 5, 43, 93
7, 18688, Note_off_c, 5, 43, 59
7, 21888, Note_on_c, 5, 48, 93
7, 22144, Note_off_c, 5, 48, 59
7, 23040, Note_on_c, 5, 43, 93
7, 23296, Note_off_c, 5, 43, 59
7, 26496, Note_on_c, 5, 43, 93
7, 26752, Note_off_c, 5, 43, 59
7, 27648, Note_on_c, 5, 48, 100
7, 27904, Note_off_c, 5, 48, 64
7, 28800, Note_on_c, 5, 43, 93
7, 29056, Note_off_c, 5, 43, 59
7, 31104, Note_on_c, 5, 43, 93
7, 31360, Note_off_c, 5, 43, 59
7, 33408, Note_on_c, 5, 43, 93
7, 33664, Note_off_c, 5, 43, 59
7, 34560, Note_on_c, 5, 48, 93
7, 34816, Note_off_c, 5, 48, 59
7, 36864, Note_on_c, 5, 43, 93
7, 37120, Note_off_c, 5, 43, 59
7, 38016, Note_on_c, 5, 43, 100
7, 38272, Note_off_c, 5, 43, 64
7, 40320, Note_on_c, 5, 43, 100
7, 40576, Note_off_c, 5, 43, 64
7, 42624, Note_on_c, 5, 43, 100
7, 42880, Note_off_c, 5, 43, 64
7, 43776, Note_on_c, 5, 43, 100
7, 44032, Note_off_c, 5, 43, 64
7, 44928, Note_on_c, 5, 43, 100
7, 45184, Note_off_c, 5, 43, 64
7, 46080, Note_on_c, 5, 43, 100
7, 46336, Note_off_c, 5, 43, 64
7, 48768, Note_on_c, 5, 43, 100
7, 49024, Note_off_c, 5, 43, 64
7, 49152, Note_on_c, 5, 43, 100
7, 49408, Note_off_c, 5, 43, 64
7, 49536, Note_on_c, 5, 43, 100
7, 49792, Note_off_c, 5, 43, 64
7, 49920, Note_on_c, 5, 43, 100
7, 50176, Note_off_c, 5, 43, 64
7, 50304, Note_on_c, 5, 48, 100
7, 50560, Note_off_c, 5, 48, 64
7, 50688, Note_on_c, 5, 43, 100
7, 50944, Note_off_c, 5, 43, 64
7, 52992, Note_on_c, 5, 48, 100
7, 53504, Note_off_c, 5, 48, 64
7, 53760, Note_on_c, 5, 48, 100
7, 53888, Note_off_c, 5, 48, 64
7, 53952, Note_on_c, 5, 48, 100
7, 54080, Note_off_c, 5, 48, 64
7, 54144, Note_on_c, 5, 48, 100
7, 54400, Note_off_c, 5, 48, 64
7, 54528, Note_on_c, 5, 48, 100
7, 54784, Note_off_c, 5, 48, 64
7, 54912, Note_on_c, 5, 48, 100
7, 55168, Note_off_c, 5, 48, 64
7, 55296, Note_on_c, 5, 48, 100
7, 55552, Note_off_c, 5, 48, 64
7, 62208, Note_on_c, 5, 43, 100
7, 62720, Note_off_c, 5, 43, 64
7, 62976, Note_on_c, 5, 43, 100
7, 63104, Note_off_c, 5, 43, 64
7, 63168, Note_on_c, 5, 43, 100
7, 63296, Note_off_c, 5, 43, 64
7, 63360, Note_on_c, 5, 43, 100
7, 63616, Note_off_c, 5, 43, 64
7, 63744, Note_on_c, 5, 43, 100
7, 64000, Note_off_c, 5, 43, 64
7, 64128, Note_on_c, 5, 43, 100
7, 64384, Note_off_c, 5, 43, 64
7, 64512, Note_on_c, 5, 48, 100
7, 64768, Note_off_c, 5, 48, 64
7, 65664, Note_on_c, 5, 48, 100
7, 65920, Note_off_c, 5, 48, 64
7, 66816, Note_on_c, 5, 43, 100
7, 67072, Note_off_c, 5, 43, 64
7, 67200, Note_on_c, 5, 43, 100
7, 67456, Note_off_c, 5, 43, 64
7, 67584, Note_on_c, 5, 43, 100
7, 67840, Note_off_c, 5, 43, 64
7, 67968, Note_on_c, 5, 48, 100
7, 68224, Note_off_c, 5, 48, 64
7, 78336, Note_on_c, 5, 48, 100
7, 78592, Note_off_c, 5, 48, 64
7, 79104, Note_on_c, 5, 48, 100
7, 79232, Note_off_c, 5, 48, 64
7, 79296, Note_on_c, 5, 48, 100
7, 79424, Note_off_c, 5, 48, 64
7, 79488, Note_on_c, 5, 43, 100
7, 79744, Note_off_c, 5, 43, 64
7, 79872, Note_on_c, 5, 43, 100
7, 80128, Note_off_c, 5, 43, 64
7, 80256, Note_on_c, 5, 43, 100
7, 80512, Note_off_c, 5, 43, 64
7, 80640, Note_on_c, 5, 48, 100
7, 80896, Note_off_c, 5, 48, 64
7, 81408, Note_on_c, 5, 48, 100
7, 81536, Note_off_c, 5, 48, 64
7, 81600, Note_on_c, 5, 48, 100
7, 81728, Note_off_c, 5, 48, 64
7, 81792, Note_on_c, 5, 43, 100
7, 82048, Note_off_c, 5, 43, 64
7, 82176, Note_on_c, 5, 43, 100
7, 82432, Note_off_c, 5, 43, 64
7, 82560, Note_on_c, 5, 43, 100
7, 82816, Note_off_c, 5, 43, 64
7, 82944, Note_on_c, 5, 48, 100
7, 83200, Note_off_c, 5, 48, 64
7, 83328, Note_on_c, 5, 48, 100
7, 83584, Note_off_c, 5, 48, 64
7, 83712, Note_on_c, 5, 48, 100
7, 83968, Note_off_c, 5, 48, 64
7, 84096, Note_on_c, 5, 48, 100
7, 84352, Note_off_c, 5, 48, 64
7, 85248, Note_on_c, 5, 43, 100
7, 85504, Note_off_c, 5, 43, 64
7, 86400, Note_on_c, 5, 48, 100
7, 86656, Note_off_c, 5, 48, 64
7, 122112, Note_on_c, 5, 48, 93
7, 122368, Note_off_c, 5, 48, 59
7, 123264, Note_on_c, 5, 43, 93
7, 123520, Note_off_c, 5, 43, 59
7, 126720, Note_on_c, 5, 43, 93
7, 126976, Note_off_c, 5, 43, 59
7, 127872, Note_on_c, 5, 48, 100
7, 128128, Note_off_c, 5, 48, 64
7, 129024, Note_on_c, 5, 43, 93
7, 129280, Note_off_c, 5, 43, 59
7, 131328, Note_on_c, 5, 43, 93
7, 131584, Note_off_c, 5, 43, 59
7, 133632, Note_on_c, 5, 43, 93
7, 133888, Note_off_c, 5, 43, 59
7, 134784, Note_on_c, 5, 48, 93
7, 135040, Note_off_c, 5, 48, 59
7, 137088, Note_on_c, 5, 43, 93
7, 137344, Note_off_c, 5, 43, 59
7, 137344, End_track
8, 0, Start_track
8, 0, Title_t, "VIOLINI 1"
8, 0, Control_c, 6, 0, 0
8, 0, Program_c, 6, 48
8, 0, Control_c, 6, 10, 0
8, 0, Control_c, 6, 91, 89
8, 0, Control_c, 6, 93, 8
8, 0, Key_signature, 0, "major"
8, 1152, Note_on_c, 6, 79, 127
8, 1664, Note_off_c, 6, 79, 127
8, 1920, Note_on_c, 6, 78, 127
8, 2176, Note_off_c, 6, 78, 127
8, 2304, Note_on_c, 6, 77, 127
8, 2560, Note_off_c, 6, 77, 127
8, 2688, Note_on_c, 6, 76, 127
8, 2944, Note_off_c, 6, 76, 127
8, 3072, Note_on_c, 6, 74, 127
8, 3328, Note_off_c, 6, 74, 127
8, 3456, Note_on_c, 6, 72, 127
8, 3584, Note_off_c, 6, 72, 127
8, 3840, Note_on_c, 6, 71, 127
8, 3904, Note_off_c, 6, 71, 127
8, 4224, Note_on_c, 6, 72, 127
8, 4288, Note_off_c, 6, 72, 127
8, 4608, Note_on_c, 6, 76, 127
8, 5120, Note_off_c, 6, 76, 127
8, 5376, Note_on_c, 6, 74, 127
8, 5440, Note_off_c, 6, 74, 127
8, 5760, Note_on_c, 6, 81, 127
8, 6272, Note_off_c, 6, 81, 127
8, 6528, Note_on_c, 6, 79, 127
8, 6784, Note_off_c, 6, 79, 127
8, 6912, Note_on_c, 6, 78, 127
8, 7168, Note_off_c, 6, 78, 127
8, 7296, Note_on_c, 6, 77, 127
8, 7552, Note_off_c, 6, 77, 127
8, 7680, Note_on_c, 6, 76, 127
8, 7936, Note_off_c, 6, 76, 127
8, 8064, Note_on_c, 6, 74, 127
8, 8192, Note_off_c, 6, 74, 127
8, 8448, Note_on_c, 6, 72, 127
8, 8576, Note_off_c, 6, 72, 127
8, 8832, Note_on_c, 6, 74, 127
8, 8896, Note_off_c, 6, 74, 127
8, 9216, Note_on_c, 6, 77, 127
8, 9728, Note_off_c, 6, 77, 127
8, 9984, Note_on_c, 6, 76, 127
8, 10112, Note_off_c, 6, 76, 127
8, 10368, Note_on_c, 6, 86, 127
8, 10880, Note_off_c, 6, 86, 127
8, 11136, Note_on_c, 6, 85, 127
8, 11392, Note_off_c, 6, 85, 127
8, 11520, Note_on_c, 6, 84, 127
8, 11648, Note_off_c, 6, 84, 127
8, 11904, Note_on_c, 6, 81, 127
8, 11968, Note_off_c, 6, 81, 127
8, 12288, Note_on_c, 6, 78, 127
8, 12352, Note_off_c, 6, 78, 127
8, 12672, Note_on_c, 6, 86, 127
8, 13184, Note_off_c, 6, 86, 127
8, 13440, Note_on_c, 6, 85, 127
8, 13696, Note_off_c, 6, 85, 127
8, 13824, Note_on_c, 6, 84, 127
8, 13952, Note_off_c, 6, 84, 127
8, 14208, Note_on_c, 6, 81, 127
8, 14272, Note_off_c, 6, 81, 127
8, 14592, Note_on_c, 6, 78, 127
8, 14656, Note_off_c, 6, 78, 127
8, 14976, Note_on_c, 6, 86, 127
8, 15104, Note_off_c, 6, 86, 127
8, 15360, Note_on_c, 6, 86, 127
8, 15488, Note_off_c, 6, 86, 127
8, 15744, Note_on_c, 6, 86, 127
8, 15872, Note_off_c, 6, 86, 127
8, 16128, Note_on_c, 6, 88, 127
8, 16640, Note_off_c, 6, 88, 127
8, 16896, Note_on_c, 6, 84, 127
8, 17024, Note_off_c, 6, 84, 127
8, 17088, Note_on_c, 6, 81, 127
8, 17216, Note_off_c, 6, 81, 127
8, 17280, Note_on_c, 6, 84, 127
8, 17792, Note_off_c, 6, 84, 127
8, 18048, Note_on_c, 6, 81, 127
8, 18176, Note_off_c, 6, 81, 127
8, 18240, Note_on_c, 6, 78, 127
8, 18368, Note_off_c, 6, 78, 127
8, 18432, Note_on_c, 6, 79, 127
8, 18688, Note_off_c, 6, 79, 127
8, 19584, Note_on_c, 6, 79, 127
8, 20096, Note_off_c, 6, 79, 127
8, 20352, Note_on_c, 6, 78, 127
8, 20608, Note_off_c, 6, 78, 127
8, 20736, Note_on_c, 6, 77, 127
8, 20992, Note_off_c, 6, 77, 127
8, 21120, Note_on_c, 6, 76, 127
8, 21376, Note_off_c, 6, 76, 127
8, 21504, Note_on_c, 6, 74, 127
8, 21760, Note_off_c, 6, 74, 127
8, 21888, Note_on_c, 6, 72, 127
8, 22016, Note_off_c, 6, 72, 127
8, 22272, Note_on_c, 6, 71, 127
8, 22336, Note_off_c, 6, 71, 127
8, 22656, Note_on_c, 6, 72, 127
8, 22720, Note_off_c, 6, 72, 127
8, 23040, Note_on_c, 6, 76, 127
8, 23552, Note_off_c, 6, 76, 127
8, 23808, Note_on_c, 6, 74, 127
8, 23872, Note_off_c, 6, 74, 127
8, 24192, Note_on_c, 6, 81, 127
8, 24704, Note_off_c, 6, 81, 127
8, 24960, Note_on_c, 6, 79, 127
8, 25216, Note_off_c, 6, 79, 127
8, 25344, Note_on_c, 6, 78, 127
8, 25600, Note_off_c, 6, 78, 127
8, 25728, Note_on_c, 6, 77, 127
8, 25984, Note_off_c, 6, 77, 127
8, 26112, Note_on_c, 6, 76, 127
8, 26368, Note_off_c, 6, 76, 127
8, 26496, Note_on_c, 6, 74, 127
8, 26624, Note_off_c, 6, 74, 127
8, 26880, Note_on_c, 6, 72, 127
8, 27008, Note_off_c, 6, 72, 127
8, 27264, Note_on_c, 6, 74, 127
8, 27328, Note_off_c, 6, 74, 127
8, 27648, Note_on_c, 6, 77, 127
8, 28160, Note_off_c, 6, 77, 127
8, 28416, Note_on_c, 6, 76, 127
8, 28544, Note_off_c, 6, 76, 127
8, 28800, Note_on_c, 6, 86, 127
8, 29312, Note_off_c, 6, 86, 127
8, 29568, Note_on_c, 6, 85, 127
8, 29824, Note_off_c, 6, 85, 127
8, 29952, Note_on_c, 6, 84, 127
8, 30080, Note_off_c, 6, 84, 127
8, 30336, Note_on_c, 6, 81, 127
8, 30400, Note_off_c, 6, 81, 127
8, 30720, Note_on_c, 6, 78, 127
8, 30784, Note_off_c, 6, 78, 127
8, 31104, Note_on_c, 6, 86, 127
8, 31616, Note_off_c, 6, 86, 127
8, 31872, Note_on_c, 6, 85, 127
8, 32128, Note_off_c, 6, 85, 127
8, 32256, Note_on_c, 6, 84, 127
8, 32384, Note_off_c, 6, 84, 127
8, 32640, Note_on_c, 6, 81, 127
8, 32704, Note_off_c, 6, 81, 127
8, 33024, Note_on_c, 6, 78, 127
8, 33088, Note_off_c, 6, 78, 127
8, 33408, Note_on_c, 6, 86, 127
8, 33536, Note_off_c, 6, 86, 127
8, 33792, Note_on_c, 6, 86, 127
8, 33920, Note_off_c, 6, 86, 127
8, 34176, Note_on_c, 6, 86, 127
8, 34304, Note_off_c, 6, 86, 127
8, 34560, Note_on_c, 6, 88, 127
8, 35072, Note_off_c, 6, 88, 127
8, 35328, Note_on_c, 6, 84, 127
8, 35456, Note_off_c, 6, 84, 127
8, 35520, Note_on_c, 6, 81, 127
8, 35648, Note_off_c, 6, 81, 127
8, 35712, Note_on_c, 6, 84, 127
8, 36224, Note_off_c, 6, 84, 127
8, 36480, Note_on_c, 6, 81, 127
8, 36608, Note_off_c, 6, 81, 127
8, 36672, Note_on_c, 6, 78, 127
8, 36800, Note_off_c, 6, 78, 127
8, 36864, Note_on_c, 6, 79, 127
8, 37120, Note_off_c, 6, 79, 127
8, 38016, Note_on_c, 6, 62, 127
8, 38528, Note_off_c, 6, 62, 127
8, 38784, Note_on_c, 6, 61, 127
8, 39040, Note_off_c, 6, 61, 127
8, 39168, Note_on_c, 6, 60, 127
8, 39680, Note_off_c, 6, 60, 127
8, 39936, Note_on_c, 6, 59, 127
8, 40192, Note_off_c, 6, 59, 127
8, 40320, Note_on_c, 6, 65, 127
8, 40832, Note_off_c, 6, 65, 127
8, 41088, Note_on_c, 6, 64, 127
8, 41344, Note_off_c, 6, 64, 127
8, 41472, Note_on_c, 6, 63, 127
8, 41984, Note_off_c, 6, 63, 127
8, 42240, Note_on_c, 6, 62, 127
8, 42496, Note_off_c, 6, 62, 127
8, 42624, Note_on_c, 6, 69, 127
8, 43136, Note_off_c, 6, 69, 127
8, 43392, Note_on_c, 6, 67, 127
8, 43648, Note_off_c, 6, 67, 127
8, 43776, Note_on_c, 6, 66, 127
8, 44032, Note_off_c, 6, 66, 127
8, 44160, Note_on_c, 6, 74, 127
8, 44416, Note_off_c, 6, 74, 127
8, 44544, Note_on_c, 6, 65, 127
8, 44800, Note_off_c, 6, 65, 127
8, 44928, Note_on_c, 6, 64, 127
8, 45184, Note_off_c, 6, 64, 127
8, 45312, Note_on_c, 6, 72, 127
8, 45568, Note_off_c, 6, 72, 127
8, 45696, Note_on_c, 6, 63, 127
8, 45952, Note_off_c, 6, 63, 127
8, 46080, Note_on_c, 6, 62, 127
8, 46336, Note_off_c, 6, 62, 127
8, 46464, Note_on_c, 6, 67, 127
8, 46720, Note_off_c, 6, 67, 127
8, 46848, Note_on_c, 6, 67, 127
8, 47104, Note_off_c, 6, 67, 127
8, 47232, Note_on_c, 6, 67, 127
8, 47744, Note_off_c, 6, 67, 127
8, 48000, Note_on_c, 6, 64, 127
8, 48128, Note_off_c, 6, 64, 127
8, 48192, Note_on_c, 6, 60, 127
8, 48320, Note_off_c, 6, 60, 127
8, 48384, Note_on_c, 6, 67, 127
8, 48640, Note_off_c, 6, 67, 127
8, 50688, Note_on_c, 6, 79, 127
8, 51200, Note_off_c, 6, 79, 127
8, 51456, Note_on_c, 6, 78, 127
8, 51712, Note_off_c, 6, 78, 127
8, 51840, Note_on_c, 6, 77, 127
8, 52096, Note_off_c, 6, 77, 127
8, 52224, Note_on_c, 6, 76, 127
8, 52480, Note_off_c, 6, 76, 127
8, 52608, Note_on_c, 6, 74, 127
8, 52864, Note_off_c, 6, 74, 127
8, 52992, Note_on_c, 6, 72, 127
8, 53120, Note_off_c, 6, 72, 127
8, 53376, Note_on_c, 6, 60, 127
8, 53504, Note_off_c, 6, 60, 127
8, 53760, Note_on_c, 6, 74, 127
8, 53888, Note_off_c, 6, 74, 127
8, 53952, Note_on_c, 6, 72, 127
8, 54016, Note_off_c, 6, 72, 127
8, 54048, Note_on_c, 6, 74, 127
8, 54112, Note_off_c, 6, 74, 127
8, 54144, Note_on_c, 6, 76, 127
8, 54400, Note_off_c, 6, 76, 127
8, 54528, Note_on_c, 6, 77, 127
8, 54656, Note_off_c, 6, 77, 127
8, 54912, Note_on_c, 6, 79, 127
8, 55040, Note_off_c, 6, 79, 127
8, 55296, Note_on_c, 6, 81, 127
8, 55808, Note_off_c, 6, 81, 127
8, 56064, Note_on_c, 6, 80, 127
8, 56320, Note_off_c, 6, 80, 127
8, 56448, Note_on_c, 6, 79, 127
8, 56704, Note_off_c, 6, 79, 127
8, 56832, Note_on_c, 6, 78, 127
8, 57088, Note_off_c, 6, 78, 127
8, 57216, Note_on_c, 6, 76, 127
8, 57472, Note_off_c, 6, 76, 127
8, 57600, Note_on_c, 6, 74, 127
8, 57728, Note_off_c, 6, 74, 127
8, 57984, Note_on_c, 6, 62, 127
8, 58112, Note_off_c, 6, 62, 127
8, 58368, Note_on_c, 6, 79, 127
8, 58496, Note_off_c, 6, 79, 127
8, 58560, Note_on_c, 6, 78, 127
8, 58624, Note_off_c, 6, 78, 127
8, 58656, Note_on_c, 6, 79, 127
8, 58720, Note_off_c, 6, 79, 127
8, 58752, Note_on_c, 6, 81, 127
8, 59008, Note_off_c, 6, 81, 127
8, 59136, Note_on_c, 6, 83, 127
8, 59264, Note_off_c, 6, 83, 127
8, 59520, Note_on_c, 6, 84, 127
8, 59648, Note_off_c, 6, 84, 127
8, 59904, Note_on_c, 6, 86, 127
8, 60416, Note_off_c, 6, 86, 127
8, 60672, Note_on_c, 6, 85, 127
8, 60928, Note_off_c, 6, 85, 127
8, 61056, Note_on_c, 6, 84, 127
8, 61312, Note_off_c, 6, 84, 127
8, 61440, Note_on_c, 6, 83, 127
8, 61696, Note_off_c, 6, 83, 127
8, 61824, Note_on_c, 6, 81, 127
8, 62080, Note_off_c, 6, 81, 127
8, 62208, Note_on_c, 6, 79, 127
8, 62336, Note_off_c, 6, 79, 127
8, 62592, Note_on_c, 6, 67, 127
8, 62720, Note_off_c, 6, 67, 127
8, 62976, Note_on_c, 6, 81, 127
8, 63104, Note_off_c, 6, 81, 127
8, 63168, Note_on_c, 6, 79, 127
8, 63232, Note_off_c, 6, 79, 127
8, 63264, Note_on_c, 6, 81, 127
8, 63328, Note_off_c, 6, 81, 127
8, 63360, Note_on_c, 6, 83, 127
8, 63616, Note_off_c, 6, 83, 127
8, 63744, Note_on_c, 6, 84, 127
8, 63872, Note_off_c, 6, 84, 127
8, 64128, Note_on_c, 6, 86, 127
8, 64256, Note_off_c, 6, 86, 127
8, 64512, Note_on_c, 6, 88, 127
8, 64640, Note_off_c, 6, 88, 127
8, 64896, Note_on_c, 6, 83, 127
8, 65152, Note_off_c, 6, 83, 127
8, 65280, Note_on_c, 6, 84, 127
8, 65536, Note_off_c, 6, 84, 127
8, 65664, Note_on_c, 6, 81, 127
8, 65792, Note_off_c, 6, 81, 127
8, 66048, Note_on_c, 6, 76, 127
8, 66304, Note_off_c, 6, 76, 127
8, 66432, Note_on_c, 6, 77, 127
8, 66688, Note_off_c, 6, 77, 127
8, 66816, Note_on_c, 6, 79, 127
8, 66944, Note_off_c, 6, 79, 127
8, 67008, Note_on_c, 6, 81, 127
8, 67136, Note_off_c, 6, 81, 127
8, 67200, Note_on_c, 6, 79, 127
8, 67264, Note_off_c, 6, 79, 127
8, 67392, Note_on_c, 6, 76, 127
8, 67456, Note_off_c, 6, 76, 127
8, 67584, Note_on_c, 6, 77, 127
8, 67648, Note_off_c, 6, 77, 127
8, 67776, Note_on_c, 6, 74, 127
8, 67840, Note_off_c, 6, 74, 127
8, 67968, Note_on_c, 6, 72, 127
8, 68224, Note_off_c, 6, 72, 127
8, 78336, Note_on_c, 6, 79, 127
8, 78848, Note_off_c, 6, 79, 127
8, 79104, Note_on_c, 6, 78, 127
8, 79360, Note_off_c, 6, 78, 127
8, 79488, Note_on_c, 6, 77, 127
8, 79616, Note_off_c, 6, 77, 127
8, 79872, Note_on_c, 6, 74, 127
8, 79936, Note_off_c, 6, 74, 127
8, 80256, Note_on_c, 6, 71, 127
8, 80320, Note_off_c, 6, 71, 127
8, 80640, Note_on_c, 6, 79, 127
8, 81152, Note_off_c, 6, 79, 127
8, 81408, Note_on_c, 6, 78, 127
8, 81664, Note_off_c, 6, 78, 127
8, 81792, Note_on_c, 6, 77, 127
8, 81920, Note_off_c, 6, 77, 127
8, 82176, Note_on_c, 6, 86, 127
8, 82240, Note_off_c, 6, 86, 127
8, 82560, Note_on_c, 6, 83, 127
8, 82624, Note_off_c, 6, 83, 127
8, 82944, Note_on_c, 6, 84, 127
8, 83072, Note_off_c, 6, 84, 127
8, 83328, Note_on_c, 6, 84, 127
8, 83456, Note_off_c, 6, 84, 127
8, 83712, Note_on_c, 6, 84, 127
8, 83840, Note_off_c, 6, 84, 127
8, 84096, Note_on_c, 6, 81, 127
8, 84608, Note_off_c, 6, 81, 127
8, 84864, Note_on_c, 6, 77, 127
8, 84992, Note_off_c, 6, 77, 127
8, 85056, Note_on_c, 6, 74, 127
8, 85184, Note_off_c, 6, 74, 127
8, 85248, Note_on_c, 6, 77, 127
8, 85760, Note_off_c, 6, 77, 127
8, 86016, Note_on_c, 6, 74, 127
8, 86144, Note_off_c, 6, 74, 127
8, 86208, Note_on_c, 6, 71, 127
8, 86336, Note_off_c, 6, 71, 127
8, 86400, Note_on_c, 6, 72, 127
8, 86656, Note_off_c, 6, 72, 127
8, 89472, Note_on_c, 6, 69, 127
8, 89600, Note_off_c, 6, 69, 127
8, 89664, Note_on_c, 6, 67, 127
8, 89792, Note_off_c, 6, 67, 127
8, 89856, Note_on_c, 6, 66, 127
8, 89984, Note_off_c, 6, 66, 127
8, 90048, Note_on_c, 6, 67, 127
8, 90176, Note_off_c, 6, 67, 127
8, 90240, Note_on_c, 6, 65, 127
8, 90304, Note_off_c, 6, 65, 127
8, 90432, Note_on_c, 6, 62, 127
8, 90496, Note_off_c, 6, 62, 127
8, 90624, Note_on_c, 6, 64, 127
8, 90688, Note_off_c, 6, 64, 127
8, 90816, Note_on_c, 6, 60, 127
8, 90880, Note_off_c, 6, 60, 127
8, 91008, Note_on_c, 6, 64, 127
8, 91136, Note_off_c, 6, 64, 127
8, 91200, Note_on_c, 6, 62, 127
8, 91328, Note_off_c, 6, 62, 127
8, 91392, Note_on_c, 6, 60, 127
8, 91456, Note_off_c, 6, 60, 127
8, 91584, Note_on_c, 6, 59, 127
8, 91648, Note_off_c, 6, 59, 127
8, 91776, Note_on_c, 6, 57, 127
8, 91840, Note_off_c, 6, 57, 127
8, 91968, Note_on_c, 6, 55, 127
8, 92032, Note_off_c, 6, 55, 127
8, 94080, Note_on_c, 6, 69, 127
8, 94208, Note_off_c, 6, 69, 127
8, 94272, Note_on_c, 6, 67, 127
8, 94400, Note_off_c, 6, 67, 127
8, 94464, Note_on_c, 6, 66, 127
8, 94592, Note_off_c, 6, 66, 127
8, 94656, Note_on_c, 6, 67, 127
8, 94784, Note_off_c, 6, 67, 127
8, 94848, Note_on_c, 6, 65, 127
8, 94912, Note_off_c, 6, 65, 127
8, 95040, Note_on_c, 6, 62, 127
8, 95104, Note_off_c, 6, 62, 127
8, 95232, Note_on_c, 6, 59, 127
8, 95296, Note_off_c, 6, 59, 127
8, 95424, Note_on_c, 6, 62, 127
8, 95488, Note_off_c, 6, 62, 127
8, 95616, Note_on_c, 6, 60, 127
8, 95744, Note_off_c, 6, 60, 127
8, 96000, Note_on_c, 6, 64, 127
8, 96256, Note_off_c, 6, 64, 127
8, 96384, Note_on_c, 6, 60, 127
8, 96640, Note_off_c, 6, 60, 127
8, 96768, Note_on_c, 6, 80, 127
8, 97536, Note_off_c, 6, 80, 127
8, 97920, Note_on_c, 6, 81, 127
8, 98688, Note_off_c, 6, 81, 127
8, 99072, Note_on_c, 6, 84, 127
8, 99840, Note_off_c, 6, 84, 127
8, 100224, Note_on_c, 6, 83, 127
8, 100992, Note_off_c, 6, 83, 127
8, 101376, Note_on_c, 6, 86, 127
8, 102144, Note_off_c, 6, 86, 127
8, 102528, Note_on_c, 6, 84, 127
8, 103296, Note_off_c, 6, 84, 127
8, 103680, Note_on_c, 6, 75, 127
8, 104448, Note_off_c, 6, 75, 127
8, 104832, Note_on_c, 6, 76, 127
8, 105600, Note_off_c, 6, 76, 127
8, 105984, Note_on_c, 6, 75, 127
8, 106752, Note_off_c, 6, 75, 127
8, 107136, Note_on_c, 6, 76, 127
8, 107904, Note_off_c, 6, 76, 127
8, 108288, Note_on_c, 6, 73, 127
8, 109056, Note_off_c, 6, 73, 127
8, 109440, Note_on_c, 6, 74, 127
8, 110208, Note_off_c, 6, 74, 127
8, 112512, Note_on_c, 6, 69, 127
8, 112640, Note_off_c, 6, 69, 127
8, 112704, Note_on_c, 6, 67, 127
8, 112832, Note_off_c, 6, 67, 127
8, 112896, Note_on_c, 6, 66, 127
8, 113024, Note_off_c, 6, 66, 127
8, 113088, Note_on_c, 6, 67, 127
8, 113216, Note_off_c, 6, 67, 127
8, 113280, Note_on_c, 6, 65, 127
8, 113344, Note_off_c, 6, 65, 127
8, 113472, Note_on_c, 6, 62, 127
8, 113536, Note_off_c, 6, 62, 127
8, 113664, Note_on_c, 6, 64, 127
8, 113728, Note_off_c, 6, 64, 127
8, 113856, Note_on_c, 6, 60, 127
8, 113920, Note_off_c, 6, 60, 127
8, 114048, Note_on_c, 6, 64, 127
8, 114176, Note_off_c, 6, 64, 127
8, 114240, Note_on_c, 6, 62, 127
8, 114368, Note_off_c, 6, 62, 127
8, 114432, Note_on_c, 6, 60, 127
8, 114496, Note_off_c, 6, 60, 127
8, 114624, Note_on_c, 6, 59, 127
8, 114688, Note_off_c, 6, 59, 127
8, 114816, Note_on_c, 6, 57, 127
8, 114880, Note_off_c, 6, 57, 127
8, 115008, Note_on_c, 6, 55, 127
8, 115072, Note_off_c, 6, 55, 127
8, 117120, Note_on_c, 6, 69, 127
8, 117248, Note_off_c, 6, 69, 127
8, 117312, Note_on_c, 6, 67, 127
8, 117440, Note_off_c, 6, 67, 127
8, 117504, Note_on_c, 6, 66, 127
8, 117632, Note_off_c, 6, 66, 127
8, 117696, Note_on_c, 6, 67, 127
8, 117824, Note_off_c, 6, 67, 127
8, 117888, Note_on_c, 6, 65, 127
8, 117952, Note_off_c, 6, 65, 127
8, 118080, Note_on_c, 6, 62, 127
8, 118144, Note_off_c, 6, 62, 127
8, 118272, Note_on_c, 6, 59, 127
8, 118400, Note_off_c, 6, 59, 127
8, 118464, Note_on_c, 6, 62, 127
8, 118592, Note_off_c, 6, 62, 127
8, 118656, Note_on_c, 6, 60, 127
8, 118784, Note_off_c, 6, 60, 127
8, 119040, Note_on_c, 6, 64, 127
8, 119296, Note_off_c, 6, 64, 127
8, 119424, Note_on_c, 6, 60, 127
8, 119680, Note_off_c, 6, 60, 127
8, 119808, Note_on_c, 6, 79, 127
8, 120320, Note_off_c, 6, 79, 127
8, 120576, Note_on_c, 6, 78, 127
8, 120832, Note_off_c, 6, 78, 127
8, 120960, Note_on_c, 6, 77, 127
8, 121216, Note_off_c, 6, 77, 127
8, 121344, Note_on_c, 6, 76, 127
8, 121600, Note_off_c, 6, 76, 127
8, 121728, Note_on_c, 6, 74, 127
8, 121984, Note_off_c, 6, 74, 127
8, 122112, Note_on_c, 6, 72, 127
8, 122240, Note_off_c, 6, 72, 127
8, 122496, Note_on_c, 6, 71, 127
8, 122560, Note_off_c, 6, 71, 127
8, 122880, Note_on_c, 6, 72, 127
8, 122944, Note_off_c, 6, 72, 127
8, 123264, Note_on_c, 6, 76, 127
8, 123776, Note_off_c, 6, 76, 127
8, 124032, Note_on_c, 6, 74, 127
8, 124096, Note_off_c, 6, 74, 127
8, 124416, Note_on_c, 6, 81, 127
8, 124928, Note_off_c, 6, 81, 127
8, 125184, Note_on_c, 6, 79, 127
8, 125440, Note_off_c, 6, 79, 127
8, 125568, Note_on_c, 6, 78, 127
8, 125824, Note_off_c, 6, 78, 127
8, 125952, Note_on_c, 6, 77, 127
8, 126208, Note_off_c, 6, 77, 127
8, 126336, Note_on_c, 6, 76, 127
8, 126592, Note_off_c, 6, 76, 127
8, 126720, Note_on_c, 6, 74, 127
8, 126848, Note_off_c, 6, 74, 127
8, 127104, Note_on_c, 6, 72, 127
8, 127232, Note_off_c, 6, 72, 127
8, 127488, Note_on_c, 6, 74, 127
8, 127552, Note_off_c, 6, 74, 127
8, 127872, Note_on_c, 6, 77, 127
8, 128384, Note_off_c, 6, 77, 127
8, 128640, Note_on_c, 6, 76, 127
8, 128768, Note_off_c, 6, 76, 127
8, 129024, Note_on_c, 6, 86, 127
8, 129536, Note_off_c, 6, 86, 127
8, 129792, Note_on_c, 6, 85, 127
8, 130048, Note_off_c, 6, 85, 127
8, 130176, Note_on_c, 6, 84, 127
8, 130304, Note_off_c, 6, 84, 127
8, 130560, Note_on_c, 6, 81, 127
8, 130624, Note_off_c, 6, 81, 127
8, 130944, Note_on_c, 6, 78, 127
8, 131008, Note_off_c, 6, 78, 127
8, 131328, Note_on_c, 6, 86, 127
8, 131840, Note_off_c, 6, 86, 127
8, 132096, Note_on_c, 6, 85, 127
8, 132352, Note_off_c, 6, 85, 127
8, 132480, Note_on_c, 6, 84, 127
8, 132608, Note_off_c, 6, 84, 127
8, 132864, Note_on_c, 6, 81, 127
8, 132928, Note_off_c, 6, 81, 127
8, 133248, Note_on_c, 6, 78, 127
8, 133312, Note_off_c, 6, 78, 127
8, 133632, Note_on_c, 6, 86, 127
8, 133760, Note_off_c, 6, 86, 127
8, 134016, Note_on_c, 6, 86, 127
8, 134144, Note_off_c, 6, 86, 127
8, 134400, Note_on_c, 6, 86, 127
8, 134528, Note_off_c, 6, 86, 127
8, 134784, Note_on_c, 6, 88, 127
8, 135296, Note_off_c, 6, 88, 127
8, 135552, Note_on_c, 6, 84, 127
8, 135680, Note_off_c, 6, 84, 127
8, 135744, Note_on_c, 6, 81, 127
8, 135872, Note_off_c, 6, 81, 127
8, 135936, Note_on_c, 6, 84, 127
8, 136448, Note_off_c, 6, 84, 127
8, 136704, Note_on_c, 6, 81, 127
8, 136832, Note_off_c, 6, 81, 127
8, 136896, Note_on_c, 6, 78, 127
8, 137024, Note_off_c, 6, 78, 127
8, 137088, Note_on_c, 6, 79, 127
8, 137344, Note_off_c, 6, 79, 127
8, 137344, End_track
9, 0, Start_track
9, 0, Title_t, "VIOLINI 2"
9, 0, Control_c, 7, 0, 0
9, 0, Program_c, 7, 49
9, 0, Control_c, 7, 10, 127
9, 0, Control_c, 7, 91, 91
9, 0, Control_c, 7, 93, 10
9, 0, Key_signature, 0, "major"
9, 1152, Note_on_c, 7, 64, 127
9, 1280, Note_off_c, 7, 64, 127
9, 1344, Note_on_c, 7, 67, 127
9, 1472, Note_off_c, 7, 67, 127
9, 1536, Note_on_c, 7, 64, 127
9, 1664, Note_off_c, 7, 64, 127
9, 1728, Note_on_c, 7, 67, 127
9, 1856, Note_off_c, 7, 67, 127
9, 1920, Note_on_c, 7, 62, 127
9, 2048, Note_off_c, 7, 62, 127
9, 2112, Note_on_c, 7, 67, 127
9, 2240, Note_off_c, 7, 67, 127
9, 2304, Note_on_c, 7, 60, 127
9, 2432, Note_off_c, 7, 60, 127
9, 2496, Note_on_c, 7, 67, 127
9, 2624, Note_off_c, 7, 67, 127
9, 2688, Note_on_c, 7, 60, 127
9, 2816, Note_off_c, 7, 60, 127
9, 2880, Note_on_c, 7, 67, 127
9, 3008, Note_off_c, 7, 67, 127
9, 3072, Note_on_c, 7, 65, 127
9, 3200, Note_off_c, 7, 65, 127
9, 3264, Note_on_c, 7, 67, 127
9, 3392, Note_off_c, 7, 67, 127
9, 3456, Note_on_c, 7, 64, 127
9, 3584, Note_off_c, 7, 64, 127
9, 3648, Note_on_c, 7, 67, 127
9, 3776, Note_off_c, 7, 67, 127
9, 3840, Note_on_c, 7, 62, 127
9, 3968, Note_off_c, 7, 62, 127
9, 4032, Note_on_c, 7, 67, 127
9, 4160, Note_off_c, 7, 67, 127
9, 4224, Note_on_c, 7, 64, 127
9, 4352, Note_off_c, 7, 64, 127
9, 4416, Note_on_c, 7, 67, 127
9, 4544, Note_off_c, 7, 67, 127
9, 4608, Note_on_c, 7, 60, 127
9, 4736, Note_off_c, 7, 60, 127
9, 4800, Note_on_c, 7, 67, 127
9, 4928, Note_off_c, 7, 67, 127
9, 4992, Note_on_c, 7, 60, 127
9, 5120, Note_off_c, 7, 60, 127
9, 5184, Note_on_c, 7, 67, 127
9, 5312, Note_off_c, 7, 67, 127
9, 5376, Note_on_c, 7, 59, 127
9, 5504, Note_off_c, 7, 59, 127
9, 5568, Note_on_c, 7, 67, 127
9, 5696, Note_off_c, 7, 67, 127
9, 5760, Note_on_c, 7, 65, 127
9, 5888, Note_off_c, 7, 65, 127
9, 5952, Note_on_c, 7, 67, 127
9, 6080, Note_off_c, 7, 67, 127
9, 6144, Note_on_c, 7, 65, 127
9, 6272, Note_off_c, 7, 65, 127
9, 6336, Note_on_c, 7, 67, 127
9, 6464, Note_off_c, 7, 67, 127
9, 6528, Note_on_c, 7, 64, 127
9, 6656, Note_off_c, 7, 64, 127
9, 6720, Note_on_c, 7, 67, 127
9, 6848, Note_off_c, 7, 67, 127
9, 6912, Note_on_c, 7, 62, 127
9, 7040, Note_off_c, 7, 62, 127
9, 7104, Note_on_c, 7, 67, 127
9, 7232, Note_off_c, 7, 67, 127
9, 7296, Note_on_c, 7, 62, 127
9, 7424, Note_off_c, 7, 62, 127
9, 7488, Note_on_c, 7, 67, 127
9, 7616, Note_off_c, 7, 67, 127
9, 7680, Note_on_c, 7, 59, 127
9, 7808, Note_off_c, 7, 59, 127
9, 7872, Note_on_c, 7, 67, 127
9, 8000, Note_off_c, 7, 67, 127
9, 8064, Note_on_c, 7, 59, 127
9, 8192, Note_off_c, 7, 59, 127
9, 8256, Note_on_c, 7, 67, 127
9, 8384, Note_off_c, 7, 67, 127
9, 8448, Note_on_c, 7, 57, 127
9, 8576, Note_off_c, 7, 57, 127
9, 8640, Note_on_c, 7, 67, 127
9, 8768, Note_off_c, 7, 67, 127
9, 8832, Note_on_c, 7, 59, 127
9, 8960, Note_off_c, 7, 59, 127
9, 9024, Note_on_c, 7, 67, 127
9, 9152, Note_off_c, 7, 67, 127
9, 9216, Note_on_c, 7, 62, 127
9, 9344, Note_off_c, 7, 62, 127
9, 9408, Note_on_c, 7, 67, 127
9, 9536, Note_off_c, 7, 67, 127
9, 9600, Note_on_c, 7, 62, 127
9, 9728, Note_off_c, 7, 62, 127
9, 9792, Note_on_c, 7, 67, 127
9, 9920, Note_off_c, 7, 67, 127
9, 9984, Note_on_c, 7, 60, 127
9, 10112, Note_off_c, 7, 60, 127
9, 10176, Note_on_c, 7, 67, 127
9, 10304, Note_off_c, 7, 67, 127
9, 10368, Note_on_c, 7, 74, 127
9, 10880, Note_off_c, 7, 74, 127
9, 11136, Note_on_c, 7, 73, 127
9, 11392, Note_off_c, 7, 73, 127
9, 11520, Note_on_c, 7, 72, 127
9, 11648, Note_off_c, 7, 72, 127
9, 11904, Note_on_c, 7, 69, 127
9, 11968, Note_off_c, 7, 69, 127
9, 12288, Note_on_c, 7, 66, 127
9, 12352, Note_off_c, 7, 66, 127
9, 12672, Note_on_c, 7, 74, 127
9, 13184, Note_off_c, 7, 74, 127
9, 13440, Note_on_c, 7, 73, 127
9, 13696, Note_off_c, 7, 73, 127
9, 13824, Note_on_c, 7, 72, 127
9, 13952, Note_off_c, 7, 72, 127
9, 14208, Note_on_c, 7, 69, 127
9, 14272, Note_off_c, 7, 69, 127
9, 14592, Note_on_c, 7, 66, 127
9, 14656, Note_off_c, 7, 66, 127
9, 14976, Note_on_c, 7, 55, 127
9, 15104, Note_off_c, 7, 55, 127
9, 15168, Note_on_c, 7, 67, 127
9, 15296, Note_off_c, 7, 67, 127
9, 15360, Note_on_c, 7, 55, 127
9, 15488, Note_off_c, 7, 55, 127
9, 15552, Note_on_c, 7, 67, 127
9, 15680, Note_off_c, 7, 67, 127
9, 15744, Note_on_c, 7, 55, 127
9, 15872, Note_off_c, 7, 55, 127
9, 15936, Note_on_c, 7, 67, 127
9, 16064, Note_off_c, 7, 67, 127
9, 16128, Note_on_c, 7, 57, 127
9, 16256, Note_off_c, 7, 57, 127
9, 16320, Note_on_c, 7, 67, 127
9, 16448, Note_off_c, 7, 67, 127
9, 16512, Note_on_c, 7, 57, 127
9, 16640, Note_off_c, 7, 57, 127
9, 16704, Note_on_c, 7, 67, 127
9, 16832, Note_off_c, 7, 67, 127
9, 16896, Note_on_c, 7, 57, 127
9, 17024, Note_off_c, 7, 57, 127
9, 17088, Note_on_c, 7, 67, 127
9, 17216, Note_off_c, 7, 67, 127
9, 17280, Note_on_c, 7, 57, 127
9, 17408, Note_off_c, 7, 57, 127
9, 17472, Note_on_c, 7, 66, 127
9, 17600, Note_off_c, 7, 66, 127
9, 17664, Note_on_c, 7, 57, 127
9, 17792, Note_off_c, 7, 57, 127
9, 17856, Note_on_c, 7, 66, 127
9, 17984, Note_off_c, 7, 66, 127
9, 18048, Note_on_c, 7, 57, 127
9, 18176, Note_off_c, 7, 57, 127
9, 18240, Note_on_c, 7, 66, 127
9, 18368, Note_off_c, 7, 66, 127
9, 18432, Note_on_c, 7, 67, 127
9, 18432, Note_on_c, 7, 55, 127
9, 18688, Note_off_c, 7, 67, 127
9, 18688, Note_off_c, 7, 55, 127
9, 19584, Note_on_c, 7, 64, 127
9, 19712, Note_off_c, 7, 64, 127
9, 19776, Note_on_c, 7, 67, 127
9, 19904, Note_off_c, 7, 67, 127
9, 19968, Note_on_c, 7, 64, 127
9, 20096, Note_off_c, 7, 64, 127
9, 20160, Note_on_c, 7, 67, 127
9, 20288, Note_off_c, 7, 67, 127
9, 20352, Note_on_c, 7, 62, 127
9, 20480, Note_off_c, 7, 62, 127
9, 20544, Note_on_c, 7, 67, 127
9, 20672, Note_off_c, 7, 67, 127
9, 20736, Note_on_c, 7, 60, 127
9, 20864, Note_off_c, 7, 60, 127
9, 20928, Note_on_c, 7, 67, 127
9, 21056, Note_off_c, 7, 67, 127
9, 21120, Note_on_c, 7, 60, 127
9, 21248, Note_off_c, 7, 60, 127
9, 21312, Note_on_c, 7, 67, 127
9, 21440, Note_off_c, 7, 67, 127
9, 21504, Note_on_c, 7, 65, 127
9, 21632, Note_off_c, 7, 65, 127
9, 21696, Note_on_c, 7, 67, 127
9, 21824, Note_off_c, 7, 67, 127
9, 21888, Note_on_c, 7, 64, 127
9, 22016, Note_off_c, 7, 64, 127
9, 22080, Note_on_c, 7, 67, 127
9, 22208, Note_off_c, 7, 67, 127
9, 22272, Note_on_c, 7, 62, 127
9, 22400, Note_off_c, 7, 62, 127
9, 22464, Note_on_c, 7, 67, 127
9, 22592, Note_off_c, 7, 67, 127
9, 22656, Note_on_c, 7, 64, 127
9, 22784, Note_off_c, 7, 64, 127
9, 22848, Note_on_c, 7, 67, 127
9, 22976, Note_off_c, 7, 67, 127
9, 23040, Note_on_c, 7, 60, 127
9, 23168, Note_off_c, 7, 60, 127
9, 23232, Note_on_c, 7, 67, 127
9, 23360, Note_off_c, 7, 67, 127
9, 23424, Note_on_c, 7, 60, 127
9, 23552, Note_off_c, 7, 60, 127
9, 23616, Note_on_c, 7, 67, 127
9, 23744, Note_off_c, 7, 67, 127
9, 23808, Note_on_c, 7, 59, 127
9, 23936, Note_off_c, 7, 59, 127
9, 24000, Note_on_c, 7, 67, 127
9, 24128, Note_off_c, 7, 67, 127
9, 24192, Note_on_c, 7, 65, 127
9, 24320, Note_off_c, 7, 65, 127
9, 24384, Note_on_c, 7, 67, 127
9, 24512, Note_off_c, 7, 67, 127
9, 24576, Note_on_c, 7, 65, 127
9, 24704, Note_off_c, 7, 65, 127
9, 24768, Note_on_c, 7, 67, 127
9, 24896, Note_off_c, 7, 67, 127
9, 24960, Note_on_c, 7, 64, 127
9, 25088, Note_off_c, 7, 64, 127
9, 25152, Note_on_c, 7, 67, 127
9, 25280, Note_off_c, 7, 67, 127
9, 25344, Note_on_c, 7, 62, 127
9, 25472, Note_off_c, 7, 62, 127
9, 25536, Note_on_c, 7, 67, 127
9, 25664, Note_off_c, 7, 67, 127
9, 25728, Note_on_c, 7, 62, 127
9, 25856, Note_off_c, 7, 62, 127
9, 25920, Note_on_c, 7, 67, 127
9, 26048, Note_off_c, 7, 67, 127
9, 26112, Note_on_c, 7, 59, 127
9, 26240, Note_off_c, 7, 59, 127
9, 26304, Note_on_c, 7, 67, 127
9, 26432, Note_off_c, 7, 67, 127
9, 26496, Note_on_c, 7, 59, 127
9, 26624, Note_off_c, 7, 59, 127
9, 26688, Note_on_c, 7, 67, 127
9, 26816, Note_off_c, 7, 67, 127
9, 26880, Note_on_c, 7, 57, 127
9, 27008, Note_off_c, 7, 57, 127
9, 27072, Note_on_c, 7, 67, 127
9, 27200, Note_off_c, 7, 67, 127
9, 27264, Note_on_c, 7, 59, 127
9, 27392, Note_off_c, 7, 59, 127
9, 27456, Note_on_c, 7, 67, 127
9, 27584, Note_off_c, 7, 67, 127
9, 27648, Note_on_c, 7, 62, 127
9, 27776, Note_off_c, 7, 62, 127
9, 27840, Note_on_c, 7, 67, 127
9, 27968, Note_off_c, 7, 67, 127
9, 28032, Note_on_c, 7, 62, 127
9, 28160, Note_off_c, 7, 62, 127
9, 28224, Note_on_c, 7, 67, 127
9, 28352, Note_off_c, 7, 67, 127
9, 28416, Note_on_c, 7, 60, 127
9, 28544, Note_off_c, 7, 60, 127
9, 28608, Note_on_c, 7, 67, 127
9, 28736, Note_off_c, 7, 67, 127
9, 28800, Note_on_c, 7, 74, 127
9, 29312, Note_off_c, 7, 74, 127
9, 29568, Note_on_c, 7, 73, 127
9, 29824, Note_off_c, 7, 73, 127
9, 29952, Note_on_c, 7, 72, 127
9, 30080, Note_off_c, 7, 72, 127
9, 30336, Note_on_c, 7, 69, 127
9, 30400, Note_off_c, 7, 69, 127
9, 30720, Note_on_c, 7, 66, 127
9, 30784, Note_off_c, 7, 66, 127
9, 31104, Note_on_c, 7, 74, 127
9, 31616, Note_off_c, 7, 74, 127
9, 31872, Note_on_c, 7, 73, 127
9, 32128, Note_off_c, 7, 73, 127
9, 32256, Note_on_c, 7, 72, 127
9, 32384, Note_off_c, 7, 72, 127
9, 32640, Note_on_c, 7, 69, 127
9, 32704, Note_off_c, 7, 69, 127
9, 33024, Note_on_c, 7, 66, 127
9, 33088, Note_off_c, 7, 66, 127
9, 33408, Note_on_c, 7, 55, 127
9, 33536, Note_off_c, 7, 55, 127
9, 33600, Note_on_c, 7, 67, 127
9, 33728, Note_off_c, 7, 67, 127
9, 33792, Note_on_c, 7, 55, 127
9, 33920, Note_off_c, 7, 55, 127
9, 33984, Note_on_c, 7, 67, 127
9, 34112, Note_off_c, 7, 67, 127
9, 34176, Note_on_c, 7, 55, 127
9, 34304, Note_off_c, 7, 55, 127
9, 34368, Note_on_c, 7, 67, 127
9, 34496, Note_off_c, 7, 67, 127
9, 34560, Note_on_c, 7, 57, 127
9, 34688, Note_off_c, 7, 57, 127
9, 34752, Note_on_c, 7, 67, 127
9, 34880, Note_off_c, 7, 67, 127
9, 34944, Note_on_c, 7, 57, 127
9, 35072, Note_off_c, 7, 57, 127
9, 35136, Note_on_c, 7, 67, 127
9, 35264, Note_off_c, 7, 67, 127
9, 35328, Note_on_c, 7, 57, 127
9, 35456, Note_off_c, 7, 57, 127
9, 35520, Note_on_c, 7, 67, 127
9, 35648, Note_off_c, 7, 67, 127
9, 35712, Note_on_c, 7, 57, 127
9, 35840, Note_off_c, 7, 57, 127
9, 35904, Note_on_c, 7, 66, 127
9, 36032, Note_off_c, 7, 66, 127
9, 36096, Note_on_c, 7, 57, 127
9, 36224, Note_off_c, 7, 57, 127
9, 36288, Note_on_c, 7, 66, 127
9, 36416, Note_off_c, 7, 66, 127
9, 36480, Note_on_c, 7, 57, 127
9, 36608, Note_off_c, 7, 57, 127
9, 36672, Note_on_c, 7, 66, 127
9, 36800, Note_off_c, 7, 66, 127
9, 36864, Note_on_c, 7, 67, 127
9, 36864, Note_on_c, 7, 55, 127
9, 37120, Note_off_c, 7, 67, 127
9, 37120, Note_off_c, 7, 55, 127
9, 38016, Note_on_c, 7, 59, 127
9, 38528, Note_off_c, 7, 59, 127
9, 38784, Note_on_c, 7, 58, 127
9, 39040, Note_off_c, 7, 58, 127
9, 39168, Note_on_c, 7, 57, 127
9, 39680, Note_off_c, 7, 57, 127
9, 39936, Note_on_c, 7, 55, 127
9, 40192, Note_off_c, 7, 55, 127
9, 40320, Note_on_c, 7, 62, 127
9, 40832, Note_off_c, 7, 62, 127
9, 41088, Note_on_c, 7, 60, 127
9, 41344, Note_off_c, 7, 60, 127
9, 41472, Note_on_c, 7, 60, 127
9, 41728, Note_off_c, 7, 60, 127
9, 41856, Note_on_c, 7, 57, 127
9, 42112, Note_off_c, 7, 57, 127
9, 42240, Note_on_c, 7, 59, 127
9, 42496, Note_off_c, 7, 59, 127
9, 42624, Note_on_c, 7, 65, 127
9, 43136, Note_off_c, 7, 65, 127
9, 43392, Note_on_c, 7, 64, 127
9, 43648, Note_off_c, 7, 64, 127
9, 43776, Note_on_c, 7, 57, 127
9, 43904, Note_off_c, 7, 57, 127
9, 43968, Note_on_c, 7, 60, 127
9, 44096, Note_off_c, 7, 60, 127
9, 44160, Note_on_c, 7, 62, 127
9, 44288, Note_off_c, 7, 62, 127
9, 44352, Note_on_c, 7, 60, 127
9, 44480, Note_off_c, 7, 60, 127
9, 44544, Note_on_c, 7, 59, 127
9, 44672, Note_off_c, 7, 59, 127
9, 44736, Note_on_c, 7, 62, 127
9, 44864, Note_off_c, 7, 62, 127
9, 44928, Note_on_c, 7, 55, 127
9, 45056, Note_off_c, 7, 55, 127
9, 45120, Note_on_c, 7, 60, 127
9, 45248, Note_off_c, 7, 60, 127
9, 45312, Note_on_c, 7, 64, 127
9, 45440, Note_off_c, 7, 64, 127
9, 45504, Note_on_c, 7, 60, 127
9, 45632, Note_off_c, 7, 60, 127
9, 45696, Note_on_c, 7, 57, 127
9, 45824, Note_off_c, 7, 57, 127
9, 45888, Note_on_c, 7, 60, 127
9, 46016, Note_off_c, 7, 60, 127
9, 46080, Note_on_c, 7, 59, 127
9, 46336, Note_off_c, 7, 59, 127
9, 46464, Note_on_c, 7, 67, 127
9, 46720, Note_off_c, 7, 67, 127
9, 46848, Note_on_c, 7, 67, 127
9, 47104, Note_off_c, 7, 67, 127
9, 47232, Note_on_c, 7, 67, 127
9, 47744, Note_off_c, 7, 67, 127
9, 48000, Note_on_c, 7, 64, 127
9, 48128, Note_off_c, 7, 64, 127
9, 48192, Note_on_c, 7, 60, 127
9, 48320, Note_off_c, 7, 60, 127
9, 48384, Note_on_c, 7, 67, 127
9, 48640, Note_off_c, 7, 67, 127
9, 50688, Note_on_c, 7, 55, 127
9, 50816, Note_off_c, 7, 55, 127
9, 50880, Note_on_c, 7, 67, 127
9, 51008, Note_off_c, 7, 67, 127
9, 51072, Note_on_c, 7, 55, 127
9, 51200, Note_off_c, 7, 55, 127
9, 51264, Note_on_c, 7, 67, 127
9, 51392, Note_off_c, 7, 67, 127
9, 51456, Note_on_c, 7, 57, 127
9, 51584, Note_off_c, 7, 57, 127
9, 51648, Note_on_c, 7, 67, 127
9, 51776, Note_off_c, 7, 67, 127
9, 51840, Note_on_c, 7, 59, 127
9, 51968, Note_off_c, 7, 59, 127
9, 52032, Note_on_c, 7, 67, 127
9, 52160, Note_off_c, 7, 67, 127
9, 52224, Note_on_c, 7, 60, 127
9, 52352, Note_off_c, 7, 60, 127
9, 52416, Note_on_c, 7, 67, 127
9, 52544, Note_off_c, 7, 67, 127
9, 52608, Note_on_c, 7, 62, 127
9, 52736, Note_off_c, 7, 62, 127
9, 52800, Note_on_c, 7, 67, 127
9, 52928, Note_off_c, 7, 67, 127
9, 52992, Note_on_c, 7, 64, 127
9, 53120, Note_off_c, 7, 64, 127
9, 53184, Note_on_c, 7, 67, 127
9, 53312, Note_off_c, 7, 67, 127
9, 53376, Note_on_c, 7, 64, 127
9, 53504, Note_off_c, 7, 64, 127
9, 53568, Note_on_c, 7, 67, 127
9, 53696, Note_off_c, 7, 67, 127
9, 53760, Note_on_c, 7, 65, 127
9, 53888, Note_off_c, 7, 65, 127
9, 53952, Note_on_c, 7, 62, 127
9, 54080, Note_off_c, 7, 62, 127
9, 54144, Note_on_c, 7, 67, 127
9, 54272, Note_off_c, 7, 67, 127
9, 54336, Note_on_c, 7, 72, 127
9, 54464, Note_off_c, 7, 72, 127
9, 54528, Note_on_c, 7, 65, 127
9, 54656, Note_off_c, 7, 65, 127
9, 54720, Note_on_c, 7, 72, 127
9, 54848, Note_off_c, 7, 72, 127
9, 54912, Note_on_c, 7, 64, 127
9, 55040, Note_off_c, 7, 64, 127
9, 55104, Note_on_c, 7, 72, 127
9, 55232, Note_off_c, 7, 72, 127
9, 55296, Note_on_c, 7, 65, 127
9, 55424, Note_off_c, 7, 65, 127
9, 55488, Note_on_c, 7, 72, 127
9, 55616, Note_off_c, 7, 72, 127
9, 55680, Note_on_c, 7, 65, 127
9, 55808, Note_off_c, 7, 65, 127
9, 55872, Note_on_c, 7, 69, 127
9, 56000, Note_off_c, 7, 69, 127
9, 56064, Note_on_c, 7, 64, 127
9, 56192, Note_off_c, 7, 64, 127
9, 56256, Note_on_c, 7, 69, 127
9, 56384, Note_off_c, 7, 69, 127
9, 56448, Note_on_c, 7, 61, 127
9, 56576, Note_off_c, 7, 61, 127
9, 56640, Note_on_c, 7, 69, 127
9, 56768, Note_off_c, 7, 69, 127
9, 56832, Note_on_c, 7, 62, 127
9, 56960, Note_off_c, 7, 62, 127
9, 57024, Note_on_c, 7, 69, 127
9, 57152, Note_off_c, 7, 69, 127
9, 57216, Note_on_c, 7, 67, 127
9, 57344, Note_off_c, 7, 67, 127
9, 57408, Note_on_c, 7, 69, 127
9, 57536, Note_off_c, 7, 69, 127
9, 57600, Note_on_c, 7, 66, 127
9, 57728, Note_off_c, 7, 66, 127
9, 57792, Note_on_c, 7, 69, 127
9, 57920, Note_off_c, 7, 69, 127
9, 57984, Note_on_c, 7, 74, 127
9, 58112, Note_off_c, 7, 74, 127
9, 58176, Note_on_c, 7, 69, 127
9, 58304, Note_off_c, 7, 69, 127
9, 58368, Note_on_c, 7, 76, 127
9, 58496, Note_off_c, 7, 76, 127
9, 58560, Note_on_c, 7, 69, 127
9, 58688, Note_off_c, 7, 69, 127
9, 58752, Note_on_c, 7, 78, 127
9, 58880, Note_off_c, 7, 78, 127
9, 58944, Note_on_c, 7, 74, 127
9, 59072, Note_off_c, 7, 74, 127
9, 59136, Note_on_c, 7, 79, 127
9, 59264, Note_off_c, 7, 79, 127
9, 59328, Note_on_c, 7, 74, 127
9, 59456, Note_off_c, 7, 74, 127
9, 59520, Note_on_c, 7, 81, 127
9, 59648, Note_off_c, 7, 81, 127
9, 59712, Note_on_c, 7, 74, 127
9, 59840, Note_off_c, 7, 74, 127
9, 59904, Note_on_c, 7, 83, 127
9, 60032, Note_off_c, 7, 83, 127
9, 60096, Note_on_c, 7, 74, 127
9, 60224, Note_off_c, 7, 74, 127
9, 60288, Note_on_c, 7, 71, 127
9, 60416, Note_off_c, 7, 71, 127
9, 60480, Note_on_c, 7, 74, 127
9, 60608, Note_off_c, 7, 74, 127
9, 60672, Note_on_c, 7, 70, 127
9, 60800, Note_off_c, 7, 70, 127
9, 60864, Note_on_c, 7, 74, 127
9, 60992, Note_off_c, 7, 74, 127
9, 61056, Note_on_c, 7, 69, 127
9, 61184, Note_off_c, 7, 69, 127
9, 61248, Note_on_c, 7, 74, 127
9, 61376, Note_off_c, 7, 74, 127
9, 61440, Note_on_c, 7, 67, 127
9, 61568, Note_off_c, 7, 67, 127
9, 61632, Note_on_c, 7, 74, 127
9, 61760, Note_off_c, 7, 74, 127
9, 61824, Note_on_c, 7, 72, 127
9, 61952, Note_off_c, 7, 72, 127
9, 62016, Note_on_c, 7, 74, 127
9, 62144, Note_off_c, 7, 74, 127
9, 62208, Note_on_c, 7, 71, 127
9, 62336, Note_off_c, 7, 71, 127
9, 62400, Note_on_c, 7, 74, 127
9, 62528, Note_off_c, 7, 74, 127
9, 62592, Note_on_c, 7, 71, 127
9, 62720, Note_off_c, 7, 71, 127
9, 62784, Note_on_c, 7, 62, 127
9, 62912, Note_off_c, 7, 62, 127
9, 62976, Note_on_c, 7, 72, 127
9, 63104, Note_off_c, 7, 72, 127
9, 63168, Note_on_c, 7, 62, 127
9, 63296, Note_off_c, 7, 62, 127
9, 63360, Note_on_c, 7, 74, 127
9, 63488, Note_off_c, 7, 74, 127
9, 63552, Note_on_c, 7, 79, 127
9, 63680, Note_off_c, 7, 79, 127
9, 63744, Note_on_c, 7, 72, 127
9, 63872, Note_off_c, 7, 72, 127
9, 63936, Note_on_c, 7, 79, 127
9, 64064, Note_off_c, 7, 79, 127
9, 64128, Note_on_c, 7, 71, 127
9, 64256, Note_off_c, 7, 71, 127
9, 64320, Note_on_c, 7, 79, 127
9, 64448, Note_off_c, 7, 79, 127
9, 64512, Note_on_c, 7, 72, 127
9, 64640, Note_off_c, 7, 72, 127
9, 64896, Note_on_c, 7, 71, 127
9, 65152, Note_off_c, 7, 71, 127
9, 65280, Note_on_c, 7, 72, 127
9, 65536, Note_off_c, 7, 72, 127
9, 65664, Note_on_c, 7, 69, 127
9, 65792, Note_off_c, 7, 69, 127
9, 66048, Note_on_c, 7, 64, 127
9, 66304, Note_off_c, 7, 64, 127
9, 66432, Note_on_c, 7, 65, 127
9, 66688, Note_off_c, 7, 65, 127
9, 66816, Note_on_c, 7, 64, 127
9, 66944, Note_off_c, 7, 64, 127
9, 67008, Note_on_c, 7, 65, 127
9, 67136, Note_off_c, 7, 65, 127
9, 67200, Note_on_c, 7, 64, 127
9, 67264, Note_off_c, 7, 64, 127
9, 67392, Note_on_c, 7, 60, 127
9, 67456, Note_off_c, 7, 60, 127
9, 67584, Note_on_c, 7, 62, 127
9, 67648, Note_off_c, 7, 62, 127
9, 67776, Note_on_c, 7, 59, 127
9, 67840, Note_off_c, 7, 59, 127
9, 67968, Note_on_c, 7, 60, 127
9, 68224, Note_off_c, 7, 60, 127
9, 78336, Note_on_c, 7, 67, 127
9, 78848, Note_off_c, 7, 67, 127
9, 79104, Note_on_c, 7, 66, 127
9, 79360, Note_off_c, 7, 66, 127
9, 79488, Note_on_c, 7, 65, 127
9, 79616, Note_off_c, 7, 65, 127
9, 79872, Note_on_c, 7, 62, 127
9, 79936, Note_off_c, 7, 62, 127
9, 80256, Note_on_c, 7, 59, 127
9, 80320, Note_off_c, 7, 59, 127
9, 80640, Note_on_c, 7, 67, 127
9, 81152, Note_off_c, 7, 67, 127
9, 81408, Note_on_c, 7, 66, 127
9, 81664, Note_off_c, 7, 66, 127
9, 81792, Note_on_c, 7, 65, 127
9, 81920, Note_off_c, 7, 65, 127
9, 82176, Note_on_c, 7, 74, 127
9, 82240, Note_off_c, 7, 74, 127
9, 82560, Note_on_c, 7, 71, 127
9, 82624, Note_off_c, 7, 71, 127
9, 82944, Note_on_c, 7, 64, 127
9, 83072, Note_off_c, 7, 64, 127
9, 83136, Note_on_c, 7, 72, 127
9, 83264, Note_off_c, 7, 72, 127
9, 83328, Note_on_c, 7, 64, 127
9, 83456, Note_off_c, 7, 64, 127
9, 83520, Note_on_c, 7, 72, 127
9, 83648, Note_off_c, 7, 72, 127
9, 83712, Note_on_c, 7, 64, 127
9, 83840, Note_off_c, 7, 64, 127
9, 83904, Note_on_c, 7, 72, 127
9, 84032, Note_off_c, 7, 72, 127
9, 84096, Note_on_c, 7, 62, 127
9, 84224, Note_off_c, 7, 62, 127
9, 84288, Note_on_c, 7, 72, 127
9, 84416, Note_off_c, 7, 72, 127
9, 84480, Note_on_c, 7, 62, 127
9, 84608, Note_off_c, 7, 62, 127
9, 84672, Note_on_c, 7, 72, 127
9, 84800, Note_off_c, 7, 72, 127
9, 84864, Note_on_c, 7, 62, 127
9, 84992, Note_off_c, 7, 62, 127
9, 85056, Note_on_c, 7, 72, 127
9, 85184, Note_off_c, 7, 72, 127
9, 85248, Note_on_c, 7, 62, 127
9, 85376, Note_off_c, 7, 62, 127
9, 85440, Note_on_c, 7, 71, 127
9, 85568, Note_off_c, 7, 71, 127
9, 85632, Note_on_c, 7, 62, 127
9, 85760, Note_off_c, 7, 62, 127
9, 85824, Note_on_c, 7, 71, 127
9, 85952, Note_off_c, 7, 71, 127
9, 86016, Note_on_c, 7, 62, 127
9, 86144, Note_off_c, 7, 62, 127
9, 86208, Note_on_c, 7, 71, 127
9, 86336, Note_off_c, 7, 71, 127
9, 86400, Note_on_c, 7, 64, 127
9, 86400, Note_on_c, 7, 72, 127
9, 86656, Note_off_c, 7, 64, 127
9, 86656, Note_off_c, 7, 72, 127
9, 90240, Note_on_c, 7, 62, 127
9, 90368, Note_off_c, 7, 62, 127
9, 90624, Note_on_c, 7, 60, 127
9, 90752, Note_off_c, 7, 60, 127
9, 91008, Note_on_c, 7, 59, 127
9, 91136, Note_off_c, 7, 59, 127
9, 95232, Note_on_c, 7, 55, 127
9, 95360, Note_off_c, 7, 55, 127
9, 95616, Note_on_c, 7, 55, 127
9, 95744, Note_off_c, 7, 55, 127
9, 96768, Note_on_c, 7, 62, 127
9, 97024, Note_off_c, 7, 62, 127
9, 97152, Note_on_c, 7, 62, 127
9, 97280, Note_off_c, 7, 62, 127
9, 97344, Note_on_c, 7, 62, 127
9, 97472, Note_off_c, 7, 62, 127
9, 97536, Note_on_c, 7, 62, 127
9, 97792, Note_off_c, 7, 62, 127
9, 97920, Note_on_c, 7, 60, 127
9, 98176, Note_off_c, 7, 60, 127
9, 98304, Note_on_c, 7, 60, 127
9, 98432, Note_off_c, 7, 60, 127
9, 98496, Note_on_c, 7, 60, 127
9, 98624, Note_off_c, 7, 60, 127
9, 98688, Note_on_c, 7, 60, 127
9, 98944, Note_off_c, 7, 60, 127
9, 99072, Note_on_c, 7, 63, 127
9, 99328, Note_off_c, 7, 63, 127
9, 99456, Note_on_c, 7, 63, 127
9, 99584, Note_off_c, 7, 63, 127
9, 99648, Note_on_c, 7, 63, 127
9, 99776, Note_off_c, 7, 63, 127
9, 99840, Note_on_c, 7, 63, 127
9, 100096, Note_off_c, 7, 63, 127
9, 100224, Note_on_c, 7, 64, 127
9, 100480, Note_off_c, 7, 64, 127
9, 100608, Note_on_c, 7, 64, 127
9, 100736, Note_off_c, 7, 64, 127
9, 100800, Note_on_c, 7, 64, 127
9, 100928, Note_off_c, 7, 64, 127
9, 100992, Note_on_c, 7, 64, 127
9, 101248, Note_off_c, 7, 64, 127
9, 101376, Note_on_c, 7, 59, 127
9, 101632, Note_off_c, 7, 59, 127
9, 101760, Note_on_c, 7, 59, 127
9, 101888, Note_off_c, 7, 59, 127
9, 101952, Note_on_c, 7, 59, 127
9, 102080, Note_off_c, 7, 59, 127
9, 102144, Note_on_c, 7, 59, 127
9, 102400, Note_off_c, 7, 59, 127
9, 102528, Note_on_c, 7, 60, 127
9, 102784, Note_off_c, 7, 60, 127
9, 102912, Note_on_c, 7, 60, 127
9, 103040, Note_off_c, 7, 60, 127
9, 103104, Note_on_c, 7, 60, 127
9, 103232, Note_off_c, 7, 60, 127
9, 103296, Note_on_c, 7, 60, 127
9, 103552, Note_off_c, 7, 60, 127
9, 103680, Note_on_c, 7, 60, 127
9, 103936, Note_off_c, 7, 60, 127
9, 104064, Note_on_c, 7, 60, 127
9, 104192, Note_off_c, 7, 60, 127
9, 104256, Note_on_c, 7, 60, 127
9, 104384, Note_off_c, 7, 60, 127
9, 104448, Note_on_c, 7, 60, 127
9, 104704, Note_off_c, 7, 60, 127
9, 104832, Note_on_c, 7, 59, 127
9, 105088, Note_off_c, 7, 59, 127
9, 105216, Note_on_c, 7, 71, 127
9, 105472, Note_off_c, 7, 71, 127
9, 105600, Note_on_c, 7, 71, 127
9, 105856, Note_off_c, 7, 71, 127
9, 106368, Note_on_c, 7, 69, 127
9, 106624, Note_off_c, 7, 69, 127
9, 106752, Note_on_c, 7, 69, 127
9, 107008, Note_off_c, 7, 69, 127
9, 107520, Note_on_c, 7, 68, 127
9, 107776, Note_off_c, 7, 68, 127
9, 107904, Note_on_c, 7, 68, 127
9, 108160, Note_off_c, 7, 68, 127
9, 108672, Note_on_c, 7, 67, 127
9, 108928, Note_off_c, 7, 67, 127
9, 109056, Note_on_c, 7, 67, 127
9, 109312, Note_off_c, 7, 67, 127
9, 109824, Note_on_c, 7, 66, 127
9, 110080, Note_off_c, 7, 66, 127
9, 110208, Note_on_c, 7, 66, 127
9, 110464, Note_off_c, 7, 66, 127
9, 112896, Note_on_c, 7, 62, 127
9, 113408, Note_off_c, 7, 62, 127
9, 113664, Note_on_c, 7, 60, 127
9, 113920, Note_off_c, 7, 60, 127
9, 114048, Note_on_c, 7, 59, 127
9, 114304, Note_off_c, 7, 59, 127
9, 117504, Note_on_c, 7, 59, 127
9, 118016, Note_off_c, 7, 59, 127
9, 118272, Note_on_c, 7, 62, 127
9, 118400, Note_off_c, 7, 62, 127
9, 118464, Note_on_c, 7, 59, 127
9, 118592, Note_off_c, 7, 59, 127
9, 118656, Note_on_c, 7, 60, 127
9, 118784, Note_off_c, 7, 60, 127
9, 119808, Note_on_c, 7, 64, 127
9, 119936, Note_off_c, 7, 64, 127
9, 120000, Note_on_c, 7, 67, 127
9, 120128, Note_off_c, 7, 67, 127
9, 120192, Note_on_c, 7, 64, 127
9, 120320, Note_off_c, 7, 64, 127
9, 120384, Note_on_c, 7, 67, 127
9, 120512, Note_off_c, 7, 67, 127
9, 120576, Note_on_c, 7, 62, 127
9, 120704, Note_off_c, 7, 62, 127
9, 120768, Note_on_c, 7, 67, 127
9, 120896, Note_off_c, 7, 67, 127
9, 120960, Note_on_c, 7, 60, 127
9, 121088, Note_off_c, 7, 60, 127
9, 121152, Note_on_c, 7, 67, 127
9, 121280, Note_off_c, 7, 67, 127
9, 121344, Note_on_c, 7, 60, 127
9, 121472, Note_off_c, 7, 60, 127
9, 121536, Note_on_c, 7, 67, 127
9, 121664, Note_off_c, 7, 67, 127
9, 121728, Note_on_c, 7, 65, 127
9, 121856, Note_off_c, 7, 65, 127
9, 121920, Note_on_c, 7, 67, 127
9, 122048, Note_off_c, 7, 67, 127
9, 122112, Note_on_c, 7, 64, 127
9, 122240, Note_off_c, 7, 64, 127
9, 122304, Note_on_c, 7, 67, 127
9, 122432, Note_off_c, 7, 67, 127
9, 122496, Note_on_c, 7, 62, 127
9, 122624, Note_off_c, 7, 62, 127
9, 122688, Note_on_c, 7, 67, 127
9, 122816, Note_off_c, 7, 67, 127
9, 122880, Note_on_c, 7, 64, 127
9, 123008, Note_off_c, 7, 64, 127
9, 123072, Note_on_c, 7, 67, 127
9, 123200, Note_off_c, 7, 67, 127
9, 123264, Note_on_c, 7, 60, 127
9, 123392, Note_off_c, 7, 60, 127
9, 123456, Note_on_c, 7, 67, 127
9, 123584, Note_off_c, 7, 67, 127
9, 123648, Note_on_c, 7, 60, 127
9, 123776, Note_off_c, 7, 60, 127
9, 123840, Note_on_c, 7, 67, 127
9, 123968, Note_off_c, 7, 67, 127
9, 124032, Note_on_c, 7, 59, 127
9, 124160, Note_off_c, 7, 59, 127
9, 124224, Note_on_c, 7, 67, 127
9, 124352, Note_off_c, 7, 67, 127
9, 124416, Note_on_c, 7, 65, 127
9, 124544, Note_off_c, 7, 65, 127
9, 124608, Note_on_c, 7, 67, 127
9, 124736, Note_off_c, 7, 67, 127
9, 124800, Note_on_c, 7, 65, 127
9, 124928, Note_off_c, 7, 65, 127
9, 124992, Note_on_c, 7, 67, 127
9, 125120, Note_off_c, 7, 67, 127
9, 125184, Note_on_c, 7, 64, 127
9, 125312, Note_off_c, 7, 64, 127
9, 125376, Note_on_c, 7, 67, 127
9, 125504, Note_off_c, 7, 67, 127
9, 125568, Note_on_c, 7, 62, 127
9, 125696, Note_off_c, 7, 62, 127
9, 125760, Note_on_c, 7, 67, 127
9, 125888, Note_off_c, 7, 67, 127
9, 125952, Note_on_c, 7, 62, 127
9, 126080, Note_off_c, 7, 62, 127
9, 126144, Note_on_c, 7, 67, 127
9, 126272, Note_off_c, 7, 67, 127
9, 126336, Note_on_c, 7, 59, 127
9, 126464, Note_off_c, 7, 59, 127
9, 126528, Note_on_c, 7, 67, 127
9, 126656, Note_off_c, 7, 67, 127
9, 126720, Note_on_c, 7, 59, 127
9, 126848, Note_off_c, 7, 59, 127
9, 126912, Note_on_c, 7, 67, 127
9, 127040, Note_off_c, 7, 67, 127
9, 127104, Note_on_c, 7, 57, 127
9, 127232, Note_off_c, 7, 57, 127
9, 127296, Note_on_c, 7, 67, 127
9, 127424, Note_off_c, 7, 67, 127
9, 127488, Note_on_c, 7, 59, 127
9, 127616, Note_off_c, 7, 59, 127
9, 127680, Note_on_c, 7, 67, 127
9, 127808, Note_off_c, 7, 67, 127
9, 127872, Note_on_c, 7, 62, 127
9, 128000, Note_off_c, 7, 62, 127
9, 128064, Note_on_c, 7, 67, 127
9, 128192, Note_off_c, 7, 67, 127
9, 128256, Note_on_c, 7, 62, 127
9, 128384, Note_off_c, 7, 62, 127
9, 128448, Note_on_c, 7, 67, 127
9, 128576, Note_off_c, 7, 67, 127
9, 128640, Note_on_c, 7, 60, 127
9, 128768, Note_off_c, 7, 60, 127
9, 128832, Note_on_c, 7, 67, 127
9, 128960, Note_off_c, 7, 67, 127
9, 129024, Note_on_c, 7, 74, 127
9, 129536, Note_off_c, 7, 74, 127
9, 129792, Note_on_c, 7, 73, 127
9, 130048, Note_off_c, 7, 73, 127
9, 130176, Note_on_c, 7, 72, 127
9, 130304, Note_off_c, 7, 72, 127
9, 130560, Note_on_c, 7, 69, 127
9, 130624, Note_off_c, 7, 69, 127
9, 130944, Note_on_c, 7, 66, 127
9, 131008, Note_off_c, 7, 66, 127
9, 131328, Note_on_c, 7, 74, 127
9, 131840, Note_off_c, 7, 74, 127
9, 132096, Note_on_c, 7, 73, 127
9, 132352, Note_off_c, 7, 73, 127
9, 132480, Note_on_c, 7, 72, 127
9, 132608, Note_off_c, 7, 72, 127
9, 132864, Note_on_c, 7, 69, 127
9, 132928, Note_off_c, 7, 69, 127
9, 133248, Note_on_c, 7, 66, 127
9, 133312, Note_off_c, 7, 66, 127
9, 133632, Note_on_c, 7, 55, 127
9, 133760, Note_off_c, 7, 55, 127
9, 133824, Note_on_c, 7, 67, 127
9, 133952, Note_off_c, 7, 67, 127
9, 134016, Note_on_c, 7, 55, 127
9, 134144, Note_off_c, 7, 55, 127
9, 134208, Note_on_c, 7, 67, 127
9, 134336, Note_off_c, 7, 67, 127
9, 134400, Note_on_c, 7, 55, 127
9, 134528, Note_off_c, 7, 55, 127
9, 134592, Note_on_c, 7, 67, 127
9, 134720, Note_off_c, 7, 67, 127
9, 134784, Note_on_c, 7, 57, 127
9, 134912, Note_off_c, 7, 57, 127
9, 134976, Note_on_c, 7, 67, 127
9, 135104, Note_off_c, 7, 67, 127
9, 135168, Note_on_c, 7, 57, 127
9, 135296, Note_off_c, 7, 57, 127
9, 135360, Note_on_c, 7, 67, 127
9, 135488, Note_off_c, 7, 67, 127
9, 135552, Note_on_c, 7, 57, 127
9, 135680, Note_off_c, 7, 57, 127
9, 135744, Note_on_c, 7, 67, 127
9, 135872, Note_off_c, 7, 67, 127
9, 135936, Note_on_c, 7, 57, 127
9, 136064, Note_off_c, 7, 57, 127
9, 136128, Note_on_c, 7, 66, 127
9, 136256, Note_off_c, 7, 66, 127
9, 136320, Note_on_c, 7, 57, 127
9, 136448, Note_off_c, 7, 57, 127
9, 136512, Note_on_c, 7, 66, 127
9, 136640, Note_off_c, 7, 66, 127
9, 136704, Note_on_c, 7, 57, 127
9, 136832, Note_off_c, 7, 57, 127
9, 136896, Note_on_c, 7, 66, 127
9, 137024, Note_off_c, 7, 66, 127
9, 137088, Note_on_c, 7, 67, 127
9, 137088, Note_on_c, 7, 55, 127
9, 137344, Note_off_c, 7, 67, 127
9, 137344, Note_off_c, 7, 55, 127
9, 137344, End_track
10, 0, Start_track
10, 0, Title_t, "VIOLA"
10, 0, Control_c, 8, 0, 0
10, 0, Program_c, 8, 41
10, 0, Key_signature, 0, "major"
10, 3456, Note_on_c, 8, 72, 100
10, 3712, Note_off_c, 8, 72, 64
10, 4608, Note_on_c, 8, 67, 100
10, 4864, Note_off_c, 8, 67, 64
10, 8064, Note_on_c, 8, 67, 100
10, 8320, Note_off_c, 8, 67, 64
10, 9216, Note_on_c, 8, 60, 100
10, 9472, Note_off_c, 8, 60, 64
10, 10368, Note_on_c, 8, 59, 100
10, 10496, Note_off_c, 8, 59, 64
10, 10560, Note_on_c, 8, 62, 100
10, 10688, Note_off_c, 8, 62, 64
10, 10752, Note_on_c, 8, 59, 100
10, 10880, Note_off_c, 8, 59, 64
10, 10944, Note_on_c, 8, 62, 100
10, 11072, Note_off_c, 8, 62, 64
10, 11136, Note_on_c, 8, 58, 100
10, 11264, Note_off_c, 8, 58, 64
10, 11328, Note_on_c, 8, 62, 100
10, 11456, Note_off_c, 8, 62, 64
10, 11520, Note_on_c, 8, 57, 100
10, 11648, Note_off_c, 8, 57, 64
10, 11712, Note_on_c, 8, 62, 100
10, 11840, Note_off_c, 8, 62, 64
10, 11904, Note_on_c, 8, 60, 100
10, 12032, Note_off_c, 8, 60, 64
10, 12096, Note_on_c, 8, 62, 100
10, 12224, Note_off_c, 8, 62, 64
10, 12288, Note_on_c, 8, 57, 100
10, 12416, Note_off_c, 8, 57, 64
10, 12480, Note_on_c, 8, 62, 100
10, 12608, Note_off_c, 8, 62, 64
10, 12672, Note_on_c, 8, 59, 100
10, 12800, Note_off_c, 8, 59, 64
10, 12864, Note_on_c, 8, 62, 100
10, 12992, Note_off_c, 8, 62, 64
10, 13056, Note_on_c, 8, 59, 100
10, 13184, Note_off_c, 8, 59, 64
10, 13248, Note_on_c, 8, 62, 100
10, 13376, Note_off_c, 8, 62, 64
10, 13440, Note_on_c, 8, 58, 100
10, 13568, Note_off_c, 8, 58, 64
10, 13632, Note_on_c, 8, 62, 100
10, 13760, Note_off_c, 8, 62, 64
10, 13824, Note_on_c, 8, 57, 100
10, 13952, Note_off_c, 8, 57, 64
10, 14016, Note_on_c, 8, 62, 100
10, 14144, Note_off_c, 8, 62, 64
10, 14208, Note_on_c, 8, 60, 100
10, 14336, Note_off_c, 8, 60, 64
10, 14400, Note_on_c, 8, 62, 100
10, 14528, Note_off_c, 8, 62, 64
10, 14592, Note_on_c, 8, 57, 100
10, 14720, Note_off_c, 8, 57, 64
10, 14784, Note_on_c, 8, 62, 100
10, 14912, Note_off_c, 8, 62, 64
10, 14976, Note_on_c, 8, 59, 100
10, 15104, Note_off_c, 8, 59, 64
10, 15168, Note_on_c, 8, 62, 100
10, 15296, Note_off_c, 8, 62, 64
10, 15360, Note_on_c, 8, 59, 100
10, 15488, Note_off_c, 8, 59, 64
10, 15552, Note_on_c, 8, 62, 100
10, 15680, Note_off_c, 8, 62, 64
10, 15744, Note_on_c, 8, 59, 100
10, 15872, Note_off_c, 8, 59, 64
10, 15936, Note_on_c, 8, 62, 100
10, 16064, Note_off_c, 8, 62, 64
10, 16128, Note_on_c, 8, 60, 100
10, 16256, Note_off_c, 8, 60, 64
10, 16320, Note_on_c, 8, 64, 100
10, 16448, Note_off_c, 8, 64, 64
10, 16512, Note_on_c, 8, 60, 100
10, 16640, Note_off_c, 8, 60, 64
10, 16704, Note_on_c, 8, 64, 100
10, 16832, Note_off_c, 8, 64, 64
10, 16896, Note_on_c, 8, 60, 100
10, 17024, Note_off_c, 8, 60, 64
10, 17088, Note_on_c, 8, 64, 100
10, 17216, Note_off_c, 8, 64, 64
10, 17280, Note_on_c, 8, 60, 100
10, 17408, Note_off_c, 8, 60, 64
10, 17472, Note_on_c, 8, 62, 100
10, 17600, Note_off_c, 8, 62, 64
10, 17664, Note_on_c, 8, 60, 100
10, 17792, Note_off_c, 8, 60, 64
10, 17856, Note_on_c, 8, 62, 100
10, 17984, Note_off_c, 8, 62, 64
10, 18048, Note_on_c, 8, 60, 100
10, 18176, Note_off_c, 8, 60, 64
10, 18240, Note_on_c, 8, 62, 100
10, 18368, Note_off_c, 8, 62, 64
10, 18432, Note_on_c, 8, 59, 100
10, 18432, Note_on_c, 8, 62, 100
10, 18560, Note_off_c, 8, 59, 64
10, 18560, Note_off_c, 8, 62, 64
10, 21888, Note_on_c, 8, 72, 100
10, 22144, Note_off_c, 8, 72, 64
10, 23040, Note_on_c, 8, 67, 100
10, 23296, Note_off_c, 8, 67, 64
10, 26496, Note_on_c, 8, 67, 100
10, 26752, Note_off_c, 8, 67, 64
10, 27648, Note_on_c, 8, 60, 100
10, 27904, Note_off_c, 8, 60, 64
10, 28800, Note_on_c, 8, 59, 100
10, 28928, Note_off_c, 8, 59, 64
10, 28992, Note_on_c, 8, 62, 100
10, 29120, Note_off_c, 8, 62, 64
10, 29184, Note_on_c, 8, 59, 100
10, 29312, Note_off_c, 8, 59, 64
10, 29376, Note_on_c, 8, 62, 100
10, 29504, Note_off_c, 8, 62, 64
10, 29568, Note_on_c, 8, 58, 100
10, 29696, Note_off_c, 8, 58, 64
10, 29760, Note_on_c, 8, 62, 100
10, 29888, Note_off_c, 8, 62, 64
10, 29952, Note_on_c, 8, 57, 100
10, 30080, Note_off_c, 8, 57, 64
10, 30144, Note_on_c, 8, 62, 100
10, 30272, Note_off_c, 8, 62, 64
10, 30336, Note_on_c, 8, 60, 100
10, 30464, Note_off_c, 8, 60, 64
10, 30528, Note_on_c, 8, 62, 100
10, 30656, Note_off_c, 8, 62, 64
10, 30720, Note_on_c, 8, 57, 100
10, 30848, Note_off_c, 8, 57, 64
10, 30912, Note_on_c, 8, 62, 100
10, 31040, Note_off_c, 8, 62, 64
10, 31104, Note_on_c, 8, 59, 100
10, 31232, Note_off_c, 8, 59, 64
10, 31296, Note_on_c, 8, 62, 100
10, 31424, Note_off_c, 8, 62, 64
10, 31488, Note_on_c, 8, 59, 100
10, 31616, Note_off_c, 8, 59, 64
10, 31680, Note_on_c, 8, 62, 100
10, 31808, Note_off_c, 8, 62, 64
10, 31872, Note_on_c, 8, 58, 100
10, 32000, Note_off_c, 8, 58, 64
10, 32064, Note_on_c, 8, 62, 100
10, 32192, Note_off_c, 8, 62, 64
10, 32256, Note_on_c, 8, 57, 100
10, 32384, Note_off_c, 8, 57, 64
10, 32448, Note_on_c, 8, 62, 100
10, 32576, Note_off_c, 8, 62, 64
10, 32640, Note_on_c, 8, 60, 100
10, 32768, Note_off_c, 8, 60, 64
10, 32832, Note_on_c, 8, 62, 100
10, 32960, Note_off_c, 8, 62, 64
10, 33024, Note_on_c, 8, 57, 100
10, 33152, Note_off_c, 8, 57, 64
10, 33216, Note_on_c, 8, 62, 100
10, 33344, Note_off_c, 8, 62, 64
10, 33408, Note_on_c, 8, 59, 100
10, 33536, Note_off_c, 8, 59, 64
10, 33600, Note_on_c, 8, 62, 100
10, 33728, Note_off_c, 8, 62, 64
10, 33792, Note_on_c, 8, 59, 100
10, 33920, Note_off_c, 8, 59, 64
10, 33984, Note_on_c, 8, 62, 100
10, 34112, Note_off_c, 8, 62, 64
10, 34176, Note_on_c, 8, 59, 100
10, 34304, Note_off_c, 8, 59, 64
10, 34368, Note_on_c, 8, 62, 100
10, 34496, Note_off_c, 8, 62, 64
10, 34560, Note_on_c, 8, 60, 100
10, 34688, Note_off_c, 8, 60, 64
10, 34752, Note_on_c, 8, 64, 100
10, 34880, Note_off_c, 8, 64, 64
10, 34944, Note_on_c, 8, 60, 100
10, 35072, Note_off_c, 8, 60, 64
10, 35136, Note_on_c, 8, 64, 100
10, 35264, Note_off_c, 8, 64, 64
10, 35328, Note_on_c, 8, 60, 100
10, 35456, Note_off_c, 8, 60, 64
10, 35520, Note_on_c, 8, 64, 100
10, 35648, Note_off_c, 8, 64, 64
10, 35712, Note_on_c, 8, 60, 100
10, 35840, Note_off_c, 8, 60, 64
10, 35904, Note_on_c, 8, 62, 100
10, 36032, Note_off_c, 8, 62, 64
10, 36096, Note_on_c, 8, 60, 100
10, 36224, Note_off_c, 8, 60, 64
10, 36288, Note_on_c, 8, 62, 100
10, 36416, Note_off_c, 8, 62, 64
10, 36480, Note_on_c, 8, 60, 100
10, 36608, Note_off_c, 8, 60, 64
10, 36672, Note_on_c, 8, 62, 100
10, 36800, Note_off_c, 8, 62, 64
10, 36864, Note_on_c, 8, 59, 100
10, 36864, Note_on_c, 8, 62, 100
10, 36992, Note_off_c, 8, 59, 64
10, 36992, Note_off_c, 8, 62, 64
10, 39552, Note_on_c, 8, 54, 100
10, 39808, Note_off_c, 8, 54, 64
10, 39936, Note_on_c, 8, 55, 100
10, 40192, Note_off_c, 8, 55, 64
10, 40320, Note_on_c, 8, 59, 100
10, 40832, Note_off_c, 8, 59, 64
10, 41088, Note_on_c, 8, 60, 100
10, 41344, Note_off_c, 8, 60, 64
10, 41856, Note_on_c, 8, 54, 100
10, 42112, Note_off_c, 8, 54, 64
10, 42240, Note_on_c, 8, 55, 100
10, 42496, Note_off_c, 8, 55, 64
10, 42624, Note_on_c, 8, 59, 100
10, 43136, Note_off_c, 8, 59, 64
10, 43392, Note_on_c, 8, 60, 100
10, 43648, Note_off_c, 8, 60, 64
10, 44160, Note_on_c, 8, 57, 100
10, 44416, Note_off_c, 8, 57, 64
10, 44544, Note_on_c, 8, 59, 100
10, 44800, Note_off_c, 8, 59, 64
10, 44928, Note_on_c, 8, 60, 100
10, 45184, Note_off_c, 8, 60, 64
10, 45312, Note_on_c, 8, 52, 100
10, 45568, Note_off_c, 8, 52, 64
10, 45696, Note_on_c, 8, 54, 100
10, 45952, Note_off_c, 8, 54, 64
10, 46080, Note_on_c, 8, 55, 100
10, 46336, Note_off_c, 8, 55, 64
10, 46464, Note_on_c, 8, 67, 100
10, 46720, Note_off_c, 8, 67, 64
10, 46848, Note_on_c, 8, 67, 100
10, 47104, Note_off_c, 8, 67, 64
10, 47232, Note_on_c, 8, 67, 100
10, 47744, Note_off_c, 8, 67, 64
10, 48000, Note_on_c, 8, 64, 100
10, 48128, Note_off_c, 8, 64, 64
10, 48192, Note_on_c, 8, 60, 100
10, 48320, Note_off_c, 8, 60, 64
10, 48384, Note_on_c, 8, 67, 100
10, 48640, Note_off_c, 8, 67, 64
10, 50688, Note_on_c, 8, 55, 100
10, 51200, Note_off_c, 8, 55, 64
10, 51456, Note_on_c, 8, 57, 100
10, 51712, Note_off_c, 8, 57, 64
10, 51840, Note_on_c, 8, 59, 100
10, 52096, Note_off_c, 8, 59, 64
10, 52224, Note_on_c, 8, 60, 100
10, 52480, Note_off_c, 8, 60, 64
10, 52608, Note_on_c, 8, 62, 100
10, 52864, Note_off_c, 8, 62, 64
10, 52992, Note_on_c, 8, 64, 100
10, 53504, Note_off_c, 8, 64, 64
10, 53760, Note_on_c, 8, 65, 100
10, 54016, Note_off_c, 8, 65, 64
10, 54144, Note_on_c, 8, 67, 100
10, 54400, Note_off_c, 8, 67, 64
10, 54528, Note_on_c, 8, 65, 100
10, 54784, Note_off_c, 8, 65, 64
10, 54912, Note_on_c, 8, 64, 100
10, 55168, Note_off_c, 8, 64, 64
10, 55296, Note_on_c, 8, 65, 100
10, 55808, Note_off_c, 8, 65, 64
10, 56064, Note_on_c, 8, 64, 100
10, 56320, Note_off_c, 8, 64, 64
10, 56448, Note_on_c, 8, 61, 100
10, 56704, Note_off_c, 8, 61, 64
10, 56832, Note_on_c, 8, 62, 100
10, 57088, Note_off_c, 8, 62, 64
10, 57216, Note_on_c, 8, 67, 100
10, 57472, Note_off_c, 8, 67, 64
10, 57600, Note_on_c, 8, 66, 100
10, 58112, Note_off_c, 8, 66, 64
10, 58368, Note_on_c, 8, 69, 100
10, 58624, Note_off_c, 8, 69, 64
10, 58752, Note_on_c, 8, 69, 100
10, 59008, Note_off_c, 8, 69, 64
10, 59136, Note_on_c, 8, 67, 100
10, 59392, Note_off_c, 8, 67, 64
10, 59520, Note_on_c, 8, 66, 100
10, 59776, Note_off_c, 8, 66, 64
10, 59904, Note_on_c, 8, 67, 100
10, 60160, Note_off_c, 8, 67, 64
10, 60288, Note_on_c, 8, 71, 100
10, 60544, Note_off_c, 8, 71, 64
10, 60672, Note_on_c, 8, 70, 100
10, 60928, Note_off_c, 8, 70, 64
10, 61056, Note_on_c, 8, 69, 100
10, 61312, Note_off_c, 8, 69, 64
10, 61440, Note_on_c, 8, 67, 100
10, 61696, Note_off_c, 8, 67, 64
10, 61824, Note_on_c, 8, 71, 100
10, 62080, Note_off_c, 8, 71, 64
10, 62208, Note_on_c, 8, 71, 100
10, 62464, Note_off_c, 8, 71, 64
10, 62592, Note_on_c, 8, 62, 100
10, 63104, Note_off_c, 8, 62, 64
10, 63360, Note_on_c, 8, 67, 100
10, 63616, Note_off_c, 8, 67, 64
10, 63744, Note_on_c, 8, 69, 100
10, 64000, Note_off_c, 8, 69, 64
10, 64128, Note_on_c, 8, 71, 100
10, 64384, Note_off_c, 8, 71, 64
10, 64512, Note_on_c, 8, 72, 100
10, 64640, Note_off_c, 8, 72, 64
10, 64896, Note_on_c, 8, 65, 100
10, 65152, Note_off_c, 8, 65, 64
10, 65280, Note_on_c, 8, 67, 100
10, 65536, Note_off_c, 8, 67, 64
10, 65664, Note_on_c, 8, 60, 100
10, 65792, Note_off_c, 8, 60, 64
10, 66048, Note_on_c, 8, 58, 100
10, 66304, Note_off_c, 8, 58, 64
10, 66432, Note_on_c, 8, 57, 100
10, 66688, Note_off_c, 8, 57, 64
10, 66816, Note_on_c, 8, 55, 100
10, 67072, Note_off_c, 8, 55, 64
10, 67200, Note_on_c, 8, 55, 100
10, 67456, Note_off_c, 8, 55, 64
10, 67584, Note_on_c, 8, 55, 100
10, 67840, Note_off_c, 8, 55, 64
10, 67968, Note_on_c, 8, 52, 100
10, 68224, Note_off_c, 8, 52, 64
10, 78336, Note_on_c, 8, 52, 100
10, 78464, Note_off_c, 8, 52, 64
10, 78528, Note_on_c, 8, 55, 100
10, 78656, Note_off_c, 8, 55, 64
10, 78720, Note_on_c, 8, 60, 100
10, 78848, Note_off_c, 8, 60, 64
10, 78912, Note_on_c, 8, 55, 100
10, 79040, Note_off_c, 8, 55, 64
10, 79104, Note_on_c, 8, 51, 100
10, 79232, Note_off_c, 8, 51, 64
10, 79296, Note_on_c, 8, 55, 100
10, 79424, Note_off_c, 8, 55, 64
10, 79488, Note_on_c, 8, 50, 100
10, 79616, Note_off_c, 8, 50, 64
10, 79680, Note_on_c, 8, 55, 100
10, 79808, Note_off_c, 8, 55, 64
10, 79872, Note_on_c, 8, 59, 100
10, 80000, Note_off_c, 8, 59, 64
10, 80064, Note_on_c, 8, 55, 100
10, 80192, Note_off_c, 8, 55, 64
10, 80256, Note_on_c, 8, 53, 100
10, 80384, Note_off_c, 8, 53, 64
10, 80448, Note_on_c, 8, 55, 100
10, 80576, Note_off_c, 8, 55, 64
10, 80640, Note_on_c, 8, 52, 100
10, 80768, Note_off_c, 8, 52, 64
10, 80832, Note_on_c, 8, 55, 100
10, 80960, Note_off_c, 8, 55, 64
10, 81024, Note_on_c, 8, 60, 100
10, 81152, Note_off_c, 8, 60, 64
10, 81216, Note_on_c, 8, 55, 100
10, 81344, Note_off_c, 8, 55, 64
10, 81408, Note_on_c, 8, 51, 100
10, 81536, Note_off_c, 8, 51, 64
10, 81600, Note_on_c, 8, 55, 100
10, 81728, Note_off_c, 8, 55, 64
10, 81792, Note_on_c, 8, 50, 100
10, 81920, Note_off_c, 8, 50, 64
10, 81984, Note_on_c, 8, 55, 100
10, 82112, Note_off_c, 8, 55, 64
10, 82176, Note_on_c, 8, 59, 100
10, 82304, Note_off_c, 8, 59, 64
10, 82368, Note_on_c, 8, 55, 100
10, 82496, Note_off_c, 8, 55, 64
10, 82560, Note_on_c, 8, 53, 100
10, 82688, Note_off_c, 8, 53, 64
10, 82752, Note_on_c, 8, 55, 100
10, 82880, Note_off_c, 8, 55, 64
10, 82944, Note_on_c, 8, 52, 100
10, 83200, Note_off_c, 8, 52, 64
10, 83328, Note_on_c, 8, 60, 100
10, 83456, Note_off_c, 8, 60, 64
10, 83520, Note_on_c, 8, 67, 100
10, 83648, Note_off_c, 8, 67, 64
10, 83712, Note_on_c, 8, 60, 100
10, 83840, Note_off_c, 8, 60, 64
10, 83904, Note_on_c, 8, 67, 100
10, 84032, Note_off_c, 8, 67, 64
10, 84096, Note_on_c, 8, 57, 100
10, 84224, Note_off_c, 8, 57, 64
10, 84288, Note_on_c, 8, 65, 100
10, 84416, Note_off_c, 8, 65, 64
10, 84480, Note_on_c, 8, 57, 100
10, 84608, Note_off_c, 8, 57, 64
10, 84672, Note_on_c, 8, 65, 100
10, 84800, Note_off_c, 8, 65, 64
10, 84864, Note_on_c, 8, 57, 100
10, 84992, Note_off_c, 8, 57, 64
10, 85056, Note_on_c, 8, 65, 100
10, 85184, Note_off_c, 8, 65, 64
10, 85248, Note_on_c, 8, 55, 100
10, 85376, Note_off_c, 8, 55, 64
10, 85440, Note_on_c, 8, 65, 100
10, 85568, Note_off_c, 8, 65, 64
10, 85632, Note_on_c, 8, 55, 100
10, 85760, Note_off_c, 8, 55, 64
10, 85824, Note_on_c, 8, 65, 100
10, 85952, Note_off_c, 8, 65, 64
10, 86016, Note_on_c, 8, 55, 100
10, 86144, Note_off_c, 8, 55, 64
10, 86208, Note_on_c, 8, 65, 100
10, 86336, Note_off_c, 8, 65, 64
10, 86400, Note_on_c, 8, 55, 100
10, 86400, Note_on_c, 8, 64, 100
10, 86656, Note_off_c, 8, 55, 64
10, 86656, Note_off_c, 8, 64, 64
10, 90240, Note_on_c, 8, 55, 100
10, 90368, Note_off_c, 8, 55, 64
10, 90624, Note_on_c, 8, 55, 100
10, 90752, Note_off_c, 8, 55, 64
10, 91008, Note_on_c, 8, 55, 100
10, 91136, Note_off_c, 8, 55, 64
10, 95232, Note_on_c, 8, 53, 100
10, 95360, Note_off_c, 8, 53, 64
10, 95616, Note_on_c, 8, 53, 100
10, 95744, Note_off_c, 8, 53, 64
10, 96768, Note_on_c, 8, 59, 100
10, 97024, Note_off_c, 8, 59, 64
10, 97152, Note_on_c, 8, 59, 100
10, 97280, Note_off_c, 8, 59, 64
10, 97344, Note_on_c, 8, 59, 100
10, 97472, Note_off_c, 8, 59, 64
10, 97536, Note_on_c, 8, 59, 100
10, 97792, Note_off_c, 8, 59, 64
10, 97920, Note_on_c, 8, 57, 100
10, 98176, Note_off_c, 8, 57, 64
10, 98304, Note_on_c, 8, 57, 100
10, 98432, Note_off_c, 8, 57, 64
10, 98496, Note_on_c, 8, 57, 100
10, 98624, Note_off_c, 8, 57, 64
10, 98688, Note_on_c, 8, 57, 100
10, 98944, Note_off_c, 8, 57, 64
10, 99072, Note_on_c, 8, 57, 100
10, 99328, Note_off_c, 8, 57, 64
10, 99456, Note_on_c, 8, 57, 100
10, 99584, Note_off_c, 8, 57, 64
10, 99648, Note_on_c, 8, 57, 100
10, 99776, Note_off_c, 8, 57, 64
10, 99840, Note_on_c, 8, 57, 100
10, 100096, Note_off_c, 8, 57, 64
10, 100224, Note_on_c, 8, 56, 100
10, 100480, Note_off_c, 8, 56, 64
10, 100608, Note_on_c, 8, 56, 100
10, 100736, Note_off_c, 8, 56, 64
10, 100800, Note_on_c, 8, 56, 100
10, 100928, Note_off_c, 8, 56, 64
10, 100992, Note_on_c, 8, 56, 100
10, 101248, Note_off_c, 8, 56, 64
10, 101376, Note_on_c, 8, 56, 100
10, 101632, Note_off_c, 8, 56, 64
10, 101760, Note_on_c, 8, 56, 100
10, 101888, Note_off_c, 8, 56, 64
10, 101952, Note_on_c, 8, 56, 100
10, 102080, Note_off_c, 8, 56, 64
10, 102144, Note_on_c, 8, 56, 100
10, 102400, Note_off_c, 8, 56, 64
10, 102528, Note_on_c, 8, 57, 100
10, 102784, Note_off_c, 8, 57, 64
10, 102912, Note_on_c, 8, 57, 100
10, 103040, Note_off_c, 8, 57, 64
10, 103104, Note_on_c, 8, 57, 100
10, 103232, Note_off_c, 8, 57, 64
10, 103296, Note_on_c, 8, 57, 100
10, 103552, Note_off_c, 8, 57, 64
10, 103680, Note_on_c, 8, 57, 100
10, 103936, Note_off_c, 8, 57, 64
10, 104064, Note_on_c, 8, 57, 100
10, 104192, Note_off_c, 8, 57, 64
10, 104256, Note_on_c, 8, 57, 100
10, 104384, Note_off_c, 8, 57, 64
10, 104448, Note_on_c, 8, 57, 100
10, 104704, Note_off_c, 8, 57, 64
10, 104832, Note_on_c, 8, 56, 100
10, 105088, Note_off_c, 8, 56, 64
10, 105216, Note_on_c, 8, 68, 100
10, 105472, Note_off_c, 8, 68, 64
10, 105600, Note_on_c, 8, 68, 100
10, 105856, Note_off_c, 8, 68, 64
10, 106368, Note_on_c, 8, 66, 100
10, 106624, Note_off_c, 8, 66, 64
10, 106752, Note_on_c, 8, 66, 100
10, 107008, Note_off_c, 8, 66, 64
10, 107520, Note_on_c, 8, 64, 100
10, 107776, Note_off_c, 8, 64, 64
10, 107904, Note_on_c, 8, 64, 100
10, 108160, Note_off_c, 8, 64, 64
10, 108672, Note_on_c, 8, 64, 100
10, 108928, Note_off_c, 8, 64, 64
10, 109056, Note_on_c, 8, 64, 100
10, 109312, Note_off_c, 8, 64, 64
10, 109824, Note_on_c, 8, 62, 100
10, 110080, Note_off_c, 8, 62, 64
10, 110208, Note_on_c, 8, 62, 100
10, 110464, Note_off_c, 8, 62, 64
10, 112896, Note_on_c, 8, 55, 100
10, 112896, Note_on_c, 8, 55, 100
10, 112896, Note_on_c, 8, 55, 100
10, 113664, Note_off_c, 8, 55, 64
10, 113664, Note_off_c, 8, 55, 64
10, 114436, Note_off_c, 8, 55, 64
10, 117504, Note_on_c, 8, 50, 100
10, 118016, Note_off_c, 8, 50, 64
10, 118272, Note_on_c, 8, 53, 100
10, 118528, Note_off_c, 8, 53, 64
10, 118656, Note_on_c, 8, 52, 100
10, 118784, Note_off_c, 8, 52, 64
10, 122112, Note_on_c, 8, 72, 100
10, 122368, Note_off_c, 8, 72, 64
10, 123264, Note_on_c, 8, 67, 100
10, 123520, Note_off_c, 8, 67, 64
10, 126720, Note_on_c, 8, 67, 100
10, 126976, Note_off_c, 8, 67, 64
10, 127872, Note_on_c, 8, 60, 100
10, 128128, Note_off_c, 8, 60, 64
10, 129024, Note_on_c, 8, 59, 100
10, 129152, Note_off_c, 8, 59, 64
10, 129216, Note_on_c, 8, 62, 100
10, 129344, Note_off_c, 8, 62, 64
10, 129408, Note_on_c, 8, 59, 100
10, 129536, Note_off_c, 8, 59, 64
10, 129600, Note_on_c, 8, 62, 100
10, 129728, Note_off_c, 8, 62, 64
10, 129792, Note_on_c, 8, 58, 100
10, 129920, Note_off_c, 8, 58, 64
10, 129984, Note_on_c, 8, 62, 100
10, 130112, Note_off_c, 8, 62, 64
10, 130176, Note_on_c, 8, 57, 100
10, 130304, Note_off_c, 8, 57, 64
10, 130368, Note_on_c, 8, 62, 100
10, 130496, Note_off_c, 8, 62, 64
10, 130560, Note_on_c, 8, 60, 100
10, 130688, Note_off_c, 8, 60, 64
10, 130752, Note_on_c, 8, 62, 100
10, 130880, Note_off_c, 8, 62, 64
10, 130944, Note_on_c, 8, 57, 100
10, 131072, Note_off_c, 8, 57, 64
10, 131136, Note_on_c, 8, 62, 100
10, 131264, Note_off_c, 8, 62, 64
10, 131328, Note_on_c, 8, 59, 100
10, 131456, Note_off_c, 8, 59, 64
10, 131520, Note_on_c, 8, 62, 100
10, 131648, Note_off_c, 8, 62, 64
10, 131712, Note_on_c, 8, 59, 100
10, 131840, Note_off_c, 8, 59, 64
10, 131904, Note_on_c, 8, 62, 100
10, 132032, Note_off_c, 8, 62, 64
10, 132096, Note_on_c, 8, 58, 100
10, 132224, Note_off_c, 8, 58, 64
10, 132288, Note_on_c, 8, 62, 100
10, 132416, Note_off_c, 8, 62, 64
10, 132480, Note_on_c, 8, 57, 100
10, 132608, Note_off_c, 8, 57, 64
10, 132672, Note_on_c, 8, 62, 100
10, 132800, Note_off_c, 8, 62, 64
10, 132864, Note_on_c, 8, 60, 100
10, 132992, Note_off_c, 8, 60, 64
10, 133056, Note_on_c, 8, 62, 100
10, 133184, Note_off_c, 8, 62, 64
10, 133248, Note_on_c, 8, 57, 100
10, 133376, Note_off_c, 8, 57, 64
10, 133440, Note_on_c, 8, 62, 100
10, 133568, Note_off_c, 8, 62, 64
10, 133632, Note_on_c, 8, 59, 100
10, 133760, Note_off_c, 8, 59, 64
10, 133824, Note_on_c, 8, 62, 100
10, 133952, Note_off_c, 8, 62, 64
10, 134016, Note_on_c, 8, 59, 100
10, 134144, Note_off_c, 8, 59, 64
10, 134208, Note_on_c, 8, 62, 100
10, 134336, Note_off_c, 8, 62, 64
10, 134400, Note_on_c, 8, 59, 100
10, 134528, Note_off_c, 8, 59, 64
10, 134592, Note_on_c, 8, 62, 100
10, 134720, Note_off_c, 8, 62, 64
10, 134784, Note_on_c, 8, 60, 100
10, 134912, Note_off_c, 8, 60, 64
10, 134976, Note_on_c, 8, 64, 100
10, 135104, Note_off_c, 8, 64, 64
10, 135168, Note_on_c, 8, 60, 100
10, 135296, Note_off_c, 8, 60, 64
10, 135360, Note_on_c, 8, 64, 100
10, 135488, Note_off_c, 8, 64, 64
10, 135552, Note_on_c, 8, 60, 100
10, 135680, Note_off_c, 8, 60, 64
10, 135744, Note_on_c, 8, 64, 100
10, 135872, Note_off_c, 8, 64, 64
10, 135936, Note_on_c, 8, 60, 100
10, 136064, Note_off_c, 8, 60, 64
10, 136128, Note_on_c, 8, 62, 100
10, 136256, Note_off_c, 8, 62, 64
10, 136320, Note_on_c, 8, 60, 100
10, 136448, Note_off_c, 8, 60, 64
10, 136512, Note_on_c, 8, 62, 100
10, 136640, Note_off_c, 8, 62, 64
10, 136704, Note_on_c, 8, 60, 100
10, 136832, Note_off_c, 8, 60, 64
10, 136896, Note_on_c, 8, 62, 100
10, 137024, Note_off_c, 8, 62, 64
10, 137088, Note_on_c, 8, 59, 100
10, 137088, Note_on_c, 8, 62, 100
10, 137216, Note_off_c, 8, 59, 64
10, 137216, Note_off_c, 8, 62, 64
10, 137216, End_track
11, 0, Start_track
11, 0, Control_c, 0, 0, 0
11, 0, Program_c, 0, 73
11, 0, Control_c, 0, 10, 51
11, 0, Key_signature, 0, "major"
11, 0, End_track
12, 0, Start_track
12, 0, Title_t, "VIOLONCELLO"
12, 0, Control_c, 10, 0, 0
12, 0, Program_c, 10, 42
12, 0, Control_c, 10, 10, 105
12, 0, Key_signature, 0, "major"
12, 3456, Note_on_c, 10, 60, 100
12, 3712, Note_off_c, 10, 60, 64
12, 4608, Note_on_c, 10, 55, 100
12, 4864, Note_off_c, 10, 55, 64
12, 8064, Note_on_c, 10, 55, 100
12, 8320, Note_off_c, 10, 55, 64
12, 9216, Note_on_c, 10, 48, 100
12, 9472, Note_off_c, 10, 48, 64
12, 10368, Note_on_c, 10, 59, 100
12, 10496, Note_off_c, 10, 59, 64
12, 10560, Note_on_c, 10, 62, 100
12, 10688, Note_off_c, 10, 62, 64
12, 10752, Note_on_c, 10, 59, 100
12, 10880, Note_off_c, 10, 59, 64
12, 10944, Note_on_c, 10, 62, 100
12, 11072, Note_off_c, 10, 62, 64
12, 11136, Note_on_c, 10, 58, 100
12, 11264, Note_off_c, 10, 58, 64
12, 11328, Note_on_c, 10, 62, 100
12, 11456, Note_off_c, 10, 62, 64
12, 11520, Note_on_c, 10, 57, 100
12, 11648, Note_off_c, 10, 57, 64
12, 11712, Note_on_c, 10, 62, 100
12, 11840, Note_off_c, 10, 62, 64
12, 11904, Note_on_c, 10, 60, 100
12, 12032, Note_off_c, 10, 60, 64
12, 12096, Note_on_c, 10, 62, 100
12, 12224, Note_off_c, 10, 62, 64
12, 12288, Note_on_c, 10, 57, 100
12, 12416, Note_off_c, 10, 57, 64
12, 12480, Note_on_c, 10, 62, 100
12, 12608, Note_off_c, 10, 62, 64
12, 12672, Note_on_c, 10, 59, 100
12, 12800, Note_off_c, 10, 59, 64
12, 12864, Note_on_c, 10, 62, 100
12, 12992, Note_off_c, 10, 62, 64
12, 13056, Note_on_c, 10, 59, 100
12, 13184, Note_off_c, 10, 59, 64
12, 13248, Note_on_c, 10, 62, 100
12, 13376, Note_off_c, 10, 62, 64
12, 13440, Note_on_c, 10, 58, 100
12, 13568, Note_off_c, 10, 58, 64
12, 13632, Note_on_c, 10, 62, 100
12, 13760, Note_off_c, 10, 62, 64
12, 13824, Note_on_c, 10, 57, 100
12, 13952, Note_off_c, 10, 57, 64
12, 14016, Note_on_c, 10, 62, 100
12, 14144, Note_off_c, 10, 62, 64
12, 14208, Note_on_c, 10, 60, 100
12, 14336, Note_off_c, 10, 60, 64
12, 14400, Note_on_c, 10, 62, 100
12, 14528, Note_off_c, 10, 62, 64
12, 14592, Note_on_c, 10, 57, 100
12, 14720, Note_off_c, 10, 57, 64
12, 14784, Note_on_c, 10, 62, 100
12, 14912, Note_off_c, 10, 62, 64
12, 14976, Note_on_c, 10, 59, 100
12, 15232, Note_off_c, 10, 59, 64
12, 15360, Note_on_c, 10, 47, 100
12, 15616, Note_off_c, 10, 47, 64
12, 15744, Note_on_c, 10, 47, 100
12, 16000, Note_off_c, 10, 47, 64
12, 16128, Note_on_c, 10, 48, 100
12, 16384, Note_off_c, 10, 48, 64
12, 16512, Note_on_c, 10, 48, 100
12, 16768, Note_off_c, 10, 48, 64
12, 16896, Note_on_c, 10, 48, 100
12, 17152, Note_off_c, 10, 48, 64
12, 17280, Note_on_c, 10, 50, 100
12, 17536, Note_off_c, 10, 50, 64
12, 17664, Note_on_c, 10, 50, 100
12, 17920, Note_off_c, 10, 50, 64
12, 18048, Note_on_c, 10, 50, 100
12, 18304, Note_off_c, 10, 50, 64
12, 18432, Note_on_c, 10, 43, 100
12, 18688, Note_off_c, 10, 43, 64
12, 21888, Note_on_c, 10, 60, 100
12, 22144, Note_off_c, 10, 60, 64
12, 23040, Note_on_c, 10, 55, 100
12, 23296, Note_off_c, 10, 55, 64
12, 26496, Note_on_c, 10, 55, 100
12, 26752, Note_off_c, 10, 55, 64
12, 27648, Note_on_c, 10, 48, 100
12, 27904, Note_off_c, 10, 48, 64
12, 28800, Note_on_c, 10, 59, 100
12, 28928, Note_off_c, 10, 59, 64
12, 28992, Note_on_c, 10, 62, 100
12, 29120, Note_off_c, 10, 62, 64
12, 29184, Note_on_c, 10, 59, 100
12, 29312, Note_off_c, 10, 59, 64
12, 29376, Note_on_c, 10, 62, 100
12, 29504, Note_off_c, 10, 62, 64
12, 29568, Note_on_c, 10, 58, 100
12, 29696, Note_off_c, 10, 58, 64
12, 29760, Note_on_c, 10, 62, 100
12, 29888, Note_off_c, 10, 62, 64
12, 29952, Note_on_c, 10, 57, 100
12, 30080, Note_off_c, 10, 57, 64
12, 30144, Note_on_c, 10, 62, 100
12, 30272, Note_off_c, 10, 62, 64
12, 30336, Note_on_c, 10, 60, 100
12, 30464, Note_off_c, 10, 60, 64
12, 30528, Note_on_c, 10, 62, 100
12, 30656, Note_off_c, 10, 62, 64
12, 30720, Note_on_c, 10, 57, 100
12, 30848, Note_off_c, 10, 57, 64
12, 30912, Note_on_c, 10, 62, 100
12, 31040, Note_off_c, 10, 62, 64
12, 31104, Note_on_c, 10, 59, 100
12, 31232, Note_off_c, 10, 59, 64
12, 31296, Note_on_c, 10, 62, 100
12, 31424, Note_off_c, 10, 62, 64
12, 31488, Note_on_c, 10, 59, 100
12, 31616, Note_off_c, 10, 59, 64
12, 31680, Note_on_c, 10, 62, 100
12, 31808, Note_off_c, 10, 62, 64
12, 31872, Note_on_c, 10, 58, 100
12, 32000, Note_off_c, 10, 58, 64
12, 32064, Note_on_c, 10, 62, 100
12, 32192, Note_off_c, 10, 62, 64
12, 32256, Note_on_c, 10, 57, 100
12, 32384, Note_off_c, 10, 57, 64
12, 32448, Note_on_c, 10, 62, 100
12, 32576, Note_off_c, 10, 62, 64
12, 32640, Note_on_c, 10, 60, 100
12, 32768, Note_off_c, 10, 60, 64
12, 32832, Note_on_c, 10, 62, 100
12, 32960, Note_off_c, 10, 62, 64
12, 33024, Note_on_c, 10, 57, 100
12, 33152, Note_off_c, 10, 57, 64
12, 33216, Note_on_c, 10, 62, 100
12, 33344, Note_off_c, 10, 62, 64
12, 33408, Note_on_c, 10, 59, 100
12, 33664, Note_off_c, 10, 59, 64
12, 33792, Note_on_c, 10, 47, 100
12, 34048, Note_off_c, 10, 47, 64
12, 34176, Note_on_c, 10, 47, 100
12, 34432, Note_off_c, 10, 47, 64
12, 34560, Note_on_c, 10, 48, 100
12, 34816, Note_off_c, 10, 48, 64
12, 34944, Note_on_c, 10, 48, 100
12, 35200, Note_off_c, 10, 48, 64
12, 35328, Note_on_c, 10, 48, 100
12, 35584, Note_off_c, 10, 48, 64
12, 35712, Note_on_c, 10, 50, 100
12, 35968, Note_off_c, 10, 50, 64
12, 36096, Note_on_c, 10, 50, 100
12, 36352, Note_off_c, 10, 50, 64
12, 36480, Note_on_c, 10, 50, 100
12, 36736, Note_off_c, 10, 50, 64
12, 36864, Note_on_c, 10, 43, 100
12, 37120, Note_off_c, 10, 43, 64
12, 38016, Note_on_c, 10, 43, 100
12, 38272, Note_off_c, 10, 43, 64
12, 40320, Note_on_c, 10, 43, 100
12, 40576, Note_off_c, 10, 43, 64
12, 42624, Note_on_c, 10, 43, 100
12, 42880, Note_off_c, 10, 43, 64
12, 43776, Note_on_c, 10, 43, 100
12, 44032, Note_off_c, 10, 43, 64
12, 44928, Note_on_c, 10, 43, 100
12, 45184, Note_off_c, 10, 43, 64
12, 46080, Note_on_c, 10, 43, 100
12, 46336, Note_off_c, 10, 43, 64
12, 46464, Note_on_c, 10, 55, 100
12, 46720, Note_off_c, 10, 55, 64
12, 46848, Note_on_c, 10, 55, 100
12, 47104, Note_off_c, 10, 55, 64
12, 47232, Note_on_c, 10, 55, 100
12, 47744, Note_off_c, 10, 55, 64
12, 48000, Note_on_c, 10, 52, 100
12, 48128, Note_off_c, 10, 52, 64
12, 48192, Note_on_c, 10, 48, 100
12, 48320, Note_off_c, 10, 48, 64
12, 48384, Note_on_c, 10, 55, 100
12, 48640, Note_off_c, 10, 55, 64
12, 52992, Note_on_c, 10, 60, 100
12, 53504, Note_off_c, 10, 60, 64
12, 53760, Note_on_c, 10, 59, 100
12, 54016, Note_off_c, 10, 59, 64
12, 54144, Note_on_c, 10, 58, 100
12, 54400, Note_off_c, 10, 58, 64
12, 54528, Note_on_c, 10, 57, 100
12, 54784, Note_off_c, 10, 57, 64
12, 54912, Note_on_c, 10, 55, 100
12, 55168, Note_off_c, 10, 55, 64
12, 55296, Note_on_c, 10, 53, 100
12, 55552, Note_off_c, 10, 53, 64
12, 57600, Note_on_c, 10, 62, 100
12, 58112, Note_off_c, 10, 62, 64
12, 58368, Note_on_c, 10, 61, 100
12, 58624, Note_off_c, 10, 61, 64
12, 58752, Note_on_c, 10, 60, 100
12, 59008, Note_off_c, 10, 60, 64
12, 59136, Note_on_c, 10, 59, 100
12, 59392, Note_off_c, 10, 59, 64
12, 59520, Note_on_c, 10, 57, 100
12, 59776, Note_off_c, 10, 57, 64
12, 59904, Note_on_c, 10, 55, 100
12, 60160, Note_off_c, 10, 55, 64
12, 62208, Note_on_c, 10, 67, 100
12, 62720, Note_off_c, 10, 67, 64
12, 62976, Note_on_c, 10, 66, 100
12, 63232, Note_off_c, 10, 66, 64
12, 63360, Note_on_c, 10, 65, 100
12, 63616, Note_off_c, 10, 65, 64
12, 63744, Note_on_c, 10, 64, 100
12, 64000, Note_off_c, 10, 64, 64
12, 64128, Note_on_c, 10, 62, 100
12, 64384, Note_off_c, 10, 62, 64
12, 64512, Note_on_c, 10, 60, 100
12, 64640, Note_off_c, 10, 60, 64
12, 64896, Note_on_c, 10, 62, 100
12, 65152, Note_off_c, 10, 62, 64
12, 65280, Note_on_c, 10, 64, 100
12, 65536, Note_off_c, 10, 64, 64
12, 65664, Note_on_c, 10, 53, 100
12, 65792, Note_off_c, 10, 53, 64
12, 66048, Note_on_c, 10, 55, 100
12, 66304, Note_off_c, 10, 55, 64
12, 66432, Note_on_c, 10, 57, 100
12, 66688, Note_off_c, 10, 57, 64
12, 66816, Note_on_c, 10, 55, 100
12, 67072, Note_off_c, 10, 55, 64
12, 67200, Note_on_c, 10, 55, 100
12, 67456, Note_off_c, 10, 55, 64
12, 67584, Note_on_c, 10, 55, 100
12, 67840, Note_off_c, 10, 55, 64
12, 67968, Note_on_c, 10, 48, 100
12, 68224, Note_off_c, 10, 48, 64
12, 78336, Note_on_c, 10, 52, 100
12, 78464, Note_off_c, 10, 52, 64
12, 78528, Note_on_c, 10, 55, 100
12, 78656, Note_off_c, 10, 55, 64
12, 78720, Note_on_c, 10, 60, 100
12, 78848, Note_off_c, 10, 60, 64
12, 78912, Note_on_c, 10, 55, 100
12, 79040, Note_off_c, 10, 55, 64
12, 79104, Note_on_c, 10, 51, 100
12, 79232, Note_off_c, 10, 51, 64
12, 79296, Note_on_c, 10, 55, 100
12, 79424, Note_off_c, 10, 55, 64
12, 79488, Note_on_c, 10, 50, 100
12, 79616, Note_off_c, 10, 50, 64
12, 79680, Note_on_c, 10, 55, 100
12, 79808, Note_off_c, 10, 55, 64
12, 79872, Note_on_c, 10, 59, 100
12, 80000, Note_off_c, 10, 59, 64
12, 80064, Note_on_c, 10, 55, 100
12, 80192, Note_off_c, 10, 55, 64
12, 80256, Note_on_c, 10, 53, 100
12, 80384, Note_off_c, 10, 53, 64
12, 80448, Note_on_c, 10, 55, 100
12, 80576, Note_off_c, 10, 55, 64
12, 80640, Note_on_c, 10, 52, 100
12, 80768, Note_off_c, 10, 52, 64
12, 80832, Note_on_c, 10, 55, 100
12, 80960, Note_off_c, 10, 55, 64
12, 81024, Note_on_c, 10, 60, 100
12, 81152, Note_off_c, 10, 60, 64
12, 81216, Note_on_c, 10, 55, 100
12, 81344, Note_off_c, 10, 55, 64
12, 81408, Note_on_c, 10, 51, 100
12, 81536, Note_off_c, 10, 51, 64
12, 81600, Note_on_c, 10, 55, 100
12, 81728, Note_off_c, 10, 55, 64
12, 81792, Note_on_c, 10, 50, 100
12, 81920, Note_off_c, 10, 50, 64
12, 81984, Note_on_c, 10, 55, 100
12, 82112, Note_off_c, 10, 55, 64
12, 82176, Note_on_c, 10, 59, 100
12, 82304, Note_off_c, 10, 59, 64
12, 82368, Note_on_c, 10, 55, 100
12, 82496, Note_off_c, 10, 55, 64
12, 82560, Note_on_c, 10, 53, 100
12, 82688, Note_off_c, 10, 53, 64
12, 82752, Note_on_c, 10, 55, 100
12, 82880, Note_off_c, 10, 55, 64
12, 82944, Note_on_c, 10, 52, 100
12, 83200, Note_off_c, 10, 52, 64
12, 83328, Note_on_c, 10, 52, 100
12, 83584, Note_off_c, 10, 52, 64
12, 83712, Note_on_c, 10, 52, 100
12, 83968, Note_off_c, 10, 52, 64
12, 84096, Note_on_c, 10, 53, 100
12, 84352, Note_off_c, 10, 53, 64
12, 84480, Note_on_c, 10, 53, 100
12, 84736, Note_off_c, 10, 53, 64
12, 84864, Note_on_c, 10, 53, 100
12, 85120, Note_off_c, 10, 53, 64
12, 85248, Note_on_c, 10, 55, 100
12, 85504, Note_off_c, 10, 55, 64
12, 85632, Note_on_c, 10, 55, 100
12, 85888, Note_off_c, 10, 55, 64
12, 86016, Note_on_c, 10, 55, 100
12, 86272, Note_off_c, 10, 55, 64
12, 86400, Note_on_c, 10, 48, 100
12, 86656, Note_off_c, 10, 48, 64
12, 90240, Note_on_c, 10, 59, 100
12, 90368, Note_off_c, 10, 59, 64
12, 90624, Note_on_c, 10, 60, 100
12, 90752, Note_off_c, 10, 60, 64
12, 91008, Note_on_c, 10, 55, 100
12, 91136, Note_off_c, 10, 55, 64
12, 95232, Note_on_c, 10, 55, 100
12, 95360, Note_off_c, 10, 55, 64
12, 95616, Note_on_c, 10, 48, 100
12, 95744, Note_off_c, 10, 48, 64
12, 96768, Note_on_c, 10, 52, 100
12, 97024, Note_off_c, 10, 52, 64
12, 97152, Note_on_c, 10, 64, 100
12, 97280, Note_off_c, 10, 64, 64
12, 97344, Note_on_c, 10, 64, 100
12, 97472, Note_off_c, 10, 64, 64
12, 97536, Note_on_c, 10, 64, 100
12, 97792, Note_off_c, 10, 64, 64
12, 97920, Note_on_c, 10, 52, 100
12, 98176, Note_off_c, 10, 52, 64
12, 98304, Note_on_c, 10, 64, 100
12, 98432, Note_off_c, 10, 64, 64
12, 98496, Note_on_c, 10, 64, 100
12, 98624, Note_off_c, 10, 64, 64
12, 98688, Note_on_c, 10, 64, 100
12, 98944, Note_off_c, 10, 64, 64
12, 99072, Note_on_c, 10, 52, 100
12, 99328, Note_off_c, 10, 52, 64
12, 99456, Note_on_c, 10, 64, 100
12, 99584, Note_off_c, 10, 64, 64
12, 99648, Note_on_c, 10, 64, 100
12, 99776, Note_off_c, 10, 64, 64
12, 99840, Note_on_c, 10, 64, 100
12, 100096, Note_off_c, 10, 64, 64
12, 100224, Note_on_c, 10, 52, 100
12, 100480, Note_off_c, 10, 52, 64
12, 100608, Note_on_c, 10, 64, 100
12, 100736, Note_off_c, 10, 64, 64
12, 100800, Note_on_c, 10, 64, 100
12, 100928, Note_off_c, 10, 64, 64
12, 100992, Note_on_c, 10, 64, 100
12, 101248, Note_off_c, 10, 64, 64
12, 101376, Note_on_c, 10, 52, 100
12, 101632, Note_off_c, 10, 52, 64
12, 101760, Note_on_c, 10, 64, 100
12, 101888, Note_off_c, 10, 64, 64
12, 101952, Note_on_c, 10, 64, 100
12, 102080, Note_off_c, 10, 64, 64
12, 102144, Note_on_c, 10, 64, 100
12, 102400, Note_off_c, 10, 64, 64
12, 102528, Note_on_c, 10, 52, 100
12, 102784, Note_off_c, 10, 52, 64
12, 102912, Note_on_c, 10, 64, 100
12, 103040, Note_off_c, 10, 64, 64
12, 103104, Note_on_c, 10, 64, 100
12, 103232, Note_off_c, 10, 64, 64
12, 103296, Note_on_c, 10, 64, 100
12, 103552, Note_off_c, 10, 64, 64
12, 103680, Note_on_c, 10, 52, 100
12, 103936, Note_off_c, 10, 52, 64
12, 104064, Note_on_c, 10, 64, 100
12, 104192, Note_off_c, 10, 64, 64
12, 104256, Note_on_c, 10, 64, 100
12, 104384, Note_off_c, 10, 64, 64
12, 104448, Note_on_c, 10, 64, 100
12, 104704, Note_off_c, 10, 64, 64
12, 104832, Note_on_c, 10, 52, 100
12, 105088, Note_off_c, 10, 52, 64
12, 105984, Note_on_c, 10, 59, 100
12, 106240, Note_off_c, 10, 59, 64
12, 107136, Note_on_c, 10, 64, 100
12, 107392, Note_off_c, 10, 64, 64
12, 108288, Note_on_c, 10, 57, 100
12, 108544, Note_off_c, 10, 57, 64
12, 109440, Note_on_c, 10, 62, 100
12, 109696, Note_off_c, 10, 62, 64
12, 112896, Note_on_c, 10, 59, 100
12, 113408, Note_off_c, 10, 59, 64
12, 113664, Note_on_c, 10, 60, 100
12, 113920, Note_off_c, 10, 60, 64
12, 114048, Note_on_c, 10, 55, 100
12, 114304, Note_off_c, 10, 55, 64
12, 117504, Note_on_c, 10, 55, 100
12, 118272, Note_off_c, 10, 55, 64
12, 118656, Note_on_c, 10, 48, 100
12, 118784, Note_off_c, 10, 48, 64
12, 122112, Note_on_c, 10, 60, 100
12, 122368, Note_off_c, 10, 60, 64
12, 123264, Note_on_c, 10, 55, 100
12, 123520, Note_off_c, 10, 55, 64
12, 126720, Note_on_c, 10, 55, 100
12, 126976, Note_off_c, 10, 55, 64
12, 127872, Note_on_c, 10, 48, 100
12, 128128, Note_off_c, 10, 48, 64
12, 129024, Note_on_c, 10, 59, 100
12, 129152, Note_off_c, 10, 59, 64
12, 129216, Note_on_c, 10, 62, 100
12, 129344, Note_off_c, 10, 62, 64
12, 129408, Note_on_c, 10, 59, 100
12, 129536, Note_off_c, 10, 59, 64
12, 129600, Note_on_c, 10, 62, 100
12, 129728, Note_off_c, 10, 62, 64
12, 129792, Note_on_c, 10, 58, 100
12, 129920, Note_off_c, 10, 58, 64
12, 129984, Note_on_c, 10, 62, 100
12, 130112, Note_off_c, 10, 62, 64
12, 130176, Note_on_c, 10, 57, 100
12, 130304, Note_off_c, 10, 57, 64
12, 130368, Note_on_c, 10, 62, 100
12, 130496, Note_off_c, 10, 62, 64
12, 130560, Note_on_c, 10, 60, 100
12, 130688, Note_off_c, 10, 60, 64
12, 130752, Note_on_c, 10, 62, 100
12, 130880, Note_off_c, 10, 62, 64
12, 130944, Note_on_c, 10, 57, 100
12, 131072, Note_off_c, 10, 57, 64
12, 131136, Note_on_c, 10, 62, 100
12, 131264, Note_off_c, 10, 62, 64
12, 131328, Note_on_c, 10, 59, 100
12, 131456, Note_off_c, 10, 59, 64
12, 131520, Note_on_c, 10, 62, 100
12, 131648, Note_off_c, 10, 62, 64
12, 131712, Note_on_c, 10, 59, 100
12, 131840, Note_off_c, 10, 59, 64
12, 131904, Note_on_c, 10, 62, 100
12, 132032, Note_off_c, 10, 62, 64
12, 132096, Note_on_c, 10, 58, 100
12, 132224, Note_off_c, 10, 58, 64
12, 132288, Note_on_c, 10, 62, 100
12, 132416, Note_off_c, 10, 62, 64
12, 132480, Note_on_c, 10, 57, 100
12, 132608, Note_off_c, 10, 57, 64
12, 132672, Note_on_c, 10, 62, 100
12, 132800, Note_off_c, 10, 62, 64
12, 132864, Note_on_c, 10, 60, 100
12, 132992, Note_off_c, 10, 60, 64
12, 133056, Note_on_c, 10, 62, 100
12, 133184, Note_off_c, 10, 62, 64
12, 133248, Note_on_c, 10, 57, 100
12, 133376, Note_off_c, 10, 57, 64
12, 133440, Note_on_c, 10, 62, 100
12, 133568, Note_off_c, 10, 62, 64
12, 133632, Note_on_c, 10, 59, 100
12, 133888, Note_off_c, 10, 59, 64
12, 134016, Note_on_c, 10, 47, 100
12, 134272, Note_off_c, 10, 47, 64
12, 134400, Note_on_c, 10, 47, 100
12, 134656, Note_off_c, 10, 47, 64
12, 134784, Note_on_c, 10, 48, 100
12, 135040, Note_off_c, 10, 48, 64
12, 135168, Note_on_c, 10, 48, 100
12, 135424, Note_off_c, 10, 48, 64
12, 135552, Note_on_c, 10, 48, 100
12, 135808, Note_off_c, 10, 48, 64
12, 135936, Note_on_c, 10, 50, 100
12, 136192, Note_off_c, 10, 50, 64
12, 136320, Note_on_c, 10, 50, 100
12, 136576, Note_off_c, 10, 50, 64
12, 136704, Note_on_c, 10, 50, 100
12, 136960, Note_off_c, 10, 50, 64
12, 137088, Note_on_c, 10, 43, 100
12, 137344, Note_off_c, 10, 43, 64
12, 137344, End_track
13, 0, Start_track
13, 0, Title_t, "CONTRABBASSO"
13, 0, Control_c, 11, 0, 0
13, 0, Program_c, 11, 43
13, 0, Control_c, 11, 10, 21
13, 0, Key_signature, 0, "major"
13, 3456, Note_on_c, 11, 48, 100
13, 3712, Note_off_c, 11, 48, 64
13, 4608, Note_on_c, 11, 43, 100
13, 4864, Note_off_c, 11, 43, 64
13, 8064, Note_on_c, 11, 43, 100
13, 8320, Note_off_c, 11, 43, 64
13, 9216, Note_on_c, 11, 36, 100
13, 9472, Note_off_c, 11, 36, 64
13, 10368, Note_on_c, 11, 43, 100
13, 10624, Note_off_c, 11, 43, 64
13, 11520, Note_on_c, 11, 38, 100
13, 11776, Note_off_c, 11, 38, 64
13, 12672, Note_on_c, 11, 43, 100
13, 12928, Note_off_c, 11, 43, 64
13, 13824, Note_on_c, 11, 38, 100
13, 14080, Note_off_c, 11, 38, 64
13, 14976, Note_on_c, 11, 35, 100
13, 15232, Note_off_c, 11, 35, 64
13, 15360, Note_on_c, 11, 35, 100
13, 15616, Note_off_c, 11, 35, 64
13, 15744, Note_on_c, 11, 35, 100
13, 16000, Note_off_c, 11, 35, 64
13, 16128, Note_on_c, 11, 36, 100
13, 16384, Note_off_c, 11, 36, 64
13, 16512, Note_on_c, 11, 36, 100
13, 16768, Note_off_c, 11, 36, 64
13, 16896, Note_on_c, 11, 36, 100
13, 17152, Note_off_c, 11, 36, 64
13, 17280, Note_on_c, 11, 38, 100
13, 17536, Note_off_c, 11, 38, 64
13, 17664, Note_on_c, 11, 38, 100
13, 17920, Note_off_c, 11, 38, 64
13, 18048, Note_on_c, 11, 38, 100
13, 18304, Note_off_c, 11, 38, 64
13, 18432, Note_on_c, 11, 31, 100
13, 18688, Note_off_c, 11, 31, 64
13, 21888, Note_on_c, 11, 48, 100
13, 22144, Note_off_c, 11, 48, 64
13, 23040, Note_on_c, 11, 43, 100
13, 23296, Note_off_c, 11, 43, 64
13, 26496, Note_on_c, 11, 43, 100
13, 26752, Note_off_c, 11, 43, 64
13, 27648, Note_on_c, 11, 36, 100
13, 27904, Note_off_c, 11, 36, 64
13, 28800, Note_on_c, 11, 43, 100
13, 29056, Note_off_c, 11, 43, 64
13, 29952, Note_on_c, 11, 38, 100
13, 30208, Note_off_c, 11, 38, 64
13, 31104, Note_on_c, 11, 43, 100
13, 31360, Note_off_c, 11, 43, 64
13, 32256, Note_on_c, 11, 38, 100
13, 32512, Note_off_c, 11, 38, 64
13, 33408, Note_on_c, 11, 35, 100
13, 33664, Note_off_c, 11, 35, 64
13, 33792, Note_on_c, 11, 35, 100
13, 34048, Note_off_c, 11, 35, 64
13, 34176, Note_on_c, 11, 35, 100
13, 34432, Note_off_c, 11, 35, 64
13, 34560, Note_on_c, 11, 36, 100
13, 34816, Note_off_c, 11, 36, 64
13, 34944, Note_on_c, 11, 36, 100
13, 35200, Note_off_c, 11, 36, 64
13, 35328, Note_on_c, 11, 36, 100
13, 35584, Note_off_c, 11, 36, 64
13, 35712, Note_on_c, 11, 38, 100
13, 35968, Note_off_c, 11, 38, 64
13, 36096, Note_on_c, 11, 38, 100
13, 36352, Note_off_c, 11, 38, 64
13, 36480, Note_on_c, 11, 38, 100
13, 36736, Note_off_c, 11, 38, 64
13, 36864, Note_on_c, 11, 31, 100
13, 37120, Note_off_c, 11, 31, 64
13, 38016, Note_on_c, 11, 31, 100
13, 38272, Note_off_c, 11, 31, 64
13, 40320, Note_on_c, 11, 31, 100
13, 40576, Note_off_c, 11, 31, 64
13, 42624, Note_on_c, 11, 31, 100
13, 42880, Note_off_c, 11, 31, 64
13, 43776, Note_on_c, 11, 31, 100
13, 44032, Note_off_c, 11, 31, 64
13, 44928, Note_on_c, 11, 31, 100
13, 45184, Note_off_c, 11, 31, 64
13, 46080, Note_on_c, 11, 31, 100
13, 46336, Note_off_c, 11, 31, 64
13, 46464, Note_on_c, 11, 43, 100
13, 46720, Note_off_c, 11, 43, 64
13, 46848, Note_on_c, 11, 43, 100
13, 47104, Note_off_c, 11, 43, 64
13, 47232, Note_on_c, 11, 43, 100
13, 47744, Note_off_c, 11, 43, 64
13, 48000, Note_on_c, 11, 40, 100
13, 48128, Note_off_c, 11, 40, 64
13, 48192, Note_on_c, 11, 36, 100
13, 48320, Note_off_c, 11, 36, 64
13, 48384, Note_on_c, 11, 43, 100
13, 48640, Note_off_c, 11, 43, 64
13, 52992, Note_on_c, 11, 48, 100
13, 53504, Note_off_c, 11, 48, 64
13, 53760, Note_on_c, 11, 47, 100
13, 54016, Note_off_c, 11, 47, 64
13, 54144, Note_on_c, 11, 46, 100
13, 54400, Note_off_c, 11, 46, 64
13, 54528, Note_on_c, 11, 45, 100
13, 54784, Note_off_c, 11, 45, 64
13, 54912, Note_on_c, 11, 43, 100
13, 55168, Note_off_c, 11, 43, 64
13, 55296, Note_on_c, 11, 41, 100
13, 55552, Note_off_c, 11, 41, 64
13, 57600, Note_on_c, 11, 50, 100
13, 58112, Note_off_c, 11, 50, 64
13, 58368, Note_on_c, 11, 49, 100
13, 58624, Note_off_c, 11, 49, 64
13, 58752, Note_on_c, 11, 48, 100
13, 59008, Note_off_c, 11, 48, 64
13, 59136, Note_on_c, 11, 47, 100
13, 59392, Note_off_c, 11, 47, 64
13, 59520, Note_on_c, 11, 45, 100
13, 59776, Note_off_c, 11, 45, 64
13, 59904, Note_on_c, 11, 43, 100
13, 60160, Note_off_c, 11, 43, 64
13, 62208, Note_on_c, 11, 55, 100
13, 62720, Note_off_c, 11, 55, 64
13, 62976, Note_on_c, 11, 54, 100
13, 63232, Note_off_c, 11, 54, 64
13, 63360, Note_on_c, 11, 53, 100
13, 63616, Note_off_c, 11, 53, 64
13, 63744, Note_on_c, 11, 52, 100
13, 64000, Note_off_c, 11, 52, 64
13, 64128, Note_on_c, 11, 50, 100
13, 64384, Note_off_c, 11, 50, 64
13, 64512, Note_on_c, 11, 48, 100
13, 64640, Note_off_c, 11, 48, 64
13, 64896, Note_on_c, 11, 50, 100
13, 65152, Note_off_c, 11, 50, 64
13, 65280, Note_on_c, 11, 52, 100
13, 65536, Note_off_c, 11, 52, 64
13, 65664, Note_on_c, 11, 41, 100
13, 65792, Note_off_c, 11, 41, 64
13, 66048, Note_on_c, 11, 43, 100
13, 66304, Note_off_c, 11, 43, 64
13, 66432, Note_on_c, 11, 45, 100
13, 66688, Note_off_c, 11, 45, 64
13, 66816, Note_on_c, 11, 43, 100
13, 67072, Note_off_c, 11, 43, 64
13, 67200, Note_on_c, 11, 43, 100
13, 67456, Note_off_c, 11, 43, 64
13, 67584, Note_on_c, 11, 43, 100
13, 67840, Note_off_c, 11, 43, 64
13, 67968, Note_on_c, 11, 36, 100
13, 68224, Note_off_c, 11, 36, 64
13, 78336, Note_on_c, 11, 36, 100
13, 78592, Note_off_c, 11, 36, 64
13, 79488, Note_on_c, 11, 31, 100
13, 79744, Note_off_c, 11, 31, 64
13, 80640, Note_on_c, 11, 36, 100
13, 80896, Note_off_c, 11, 36, 64
13, 81792, Note_on_c, 11, 31, 100
13, 82048, Note_off_c, 11, 31, 64
13, 82944, Note_on_c, 11, 40, 100
13, 83200, Note_off_c, 11, 40, 64
13, 83328, Note_on_c, 11, 40, 100
13, 83584, Note_off_c, 11, 40, 64
13, 83712, Note_on_c, 11, 40, 100
13, 83968, Note_off_c, 11, 40, 64
13, 84096, Note_on_c, 11, 41, 100
13, 84352, Note_off_c, 11, 41, 64
13, 84480, Note_on_c, 11, 41, 100
13, 84736, Note_off_c, 11, 41, 64
13, 84864, Note_on_c, 11, 41, 100
13, 85120, Note_off_c, 11, 41, 64
13, 85248, Note_on_c, 11, 43, 100
13, 85504, Note_off_c, 11, 43, 64
13, 85632, Note_on_c, 11, 43, 100
13, 85888, Note_off_c, 11, 43, 64
13, 86016, Note_on_c, 11, 43, 100
13, 86272, Note_off_c, 11, 43, 64
13, 86400, Note_on_c, 11, 36, 100
13, 86656, Note_off_c, 11, 36, 64
13, 90240, Note_on_c, 11, 47, 100
13, 90368, Note_off_c, 11, 47, 64
13, 90624, Note_on_c, 11, 48, 100
13, 90752, Note_off_c, 11, 48, 64
13, 91008, Note_on_c, 11, 43, 100
13, 91136, Note_off_c, 11, 43, 64
13, 95232, Note_on_c, 11, 43, 100
13, 95360, Note_off_c, 11, 43, 64
13, 95616, Note_on_c, 11, 36, 100
13, 95744, Note_off_c, 11, 36, 64
13, 96768, Note_on_c, 11, 40, 100
13, 97024, Note_off_c, 11, 40, 64
13, 97152, Note_on_c, 11, 52, 100
13, 97280, Note_off_c, 11, 52, 64
13, 97344, Note_on_c, 11, 52, 100
13, 97472, Note_off_c, 11, 52, 64
13, 97536, Note_on_c, 11, 52, 100
13, 97792, Note_off_c, 11, 52, 64
13, 97920, Note_on_c, 11, 40, 100
13, 98176, Note_off_c, 11, 40, 64
13, 98304, Note_on_c, 11, 52, 100
13, 98432, Note_off_c, 11, 52, 64
13, 98496, Note_on_c, 11, 52, 100
13, 98624, Note_off_c, 11, 52, 64
13, 98688, Note_on_c, 11, 52, 100
13, 98944, Note_off_c, 11, 52, 64
13, 99072, Note_on_c, 11, 40, 100
13, 99328, Note_off_c, 11, 40, 64
13, 99456, Note_on_c, 11, 52, 100
13, 99584, Note_off_c, 11, 52, 64
13, 99648, Note_on_c, 11, 52, 100
13, 99776, Note_off_c, 11, 52, 64
13, 99840, Note_on_c, 11, 52, 100
13, 100096, Note_off_c, 11, 52, 64
13, 100224, Note_on_c, 11, 40, 100
13, 100480, Note_off_c, 11, 40, 64
13, 100608, Note_on_c, 11, 52, 100
13, 100736, Note_off_c, 11, 52, 64
13, 100800, Note_on_c, 11, 52, 100
13, 100928, Note_off_c, 11, 52, 64
13, 100992, Note_on_c, 11, 52, 100
13, 101248, Note_off_c, 11, 52, 64
13, 101376, Note_on_c, 11, 40, 100
13, 101632, Note_off_c, 11, 40, 64
13, 101760, Note_on_c, 11, 52, 100
13, 101888, Note_off_c, 11, 52, 64
13, 101952, Note_on_c, 11, 52, 100
13, 102080, Note_off_c, 11, 52, 64
13, 102144, Note_on_c, 11, 52, 100
13, 102400, Note_off_c, 11, 52, 64
13, 102528, Note_on_c, 11, 40, 100
13, 102784, Note_off_c, 11, 40, 64
13, 102912, Note_on_c, 11, 52, 100
13, 103040, Note_off_c, 11, 52, 64
13, 103104, Note_on_c, 11, 52, 100
13, 103232, Note_off_c, 11, 52, 64
13, 103296, Note_on_c, 11, 52, 100
13, 103552, Note_off_c, 11, 52, 64
13, 103680, Note_on_c, 11, 40, 100
13, 103936, Note_off_c, 11, 40, 64
13, 104064, Note_on_c, 11, 52, 100
13, 104192, Note_off_c, 11, 52, 64
13, 104256, Note_on_c, 11, 52, 100
13, 104384, Note_off_c, 11, 52, 64
13, 104448, Note_on_c, 11, 52, 100
13, 104704, Note_off_c, 11, 52, 64
13, 104832, Note_on_c, 11, 40, 100
13, 105088, Note_off_c, 11, 40, 64
13, 105984, Note_on_c, 11, 47, 100
13, 106240, Note_off_c, 11, 47, 64
13, 107136, Note_on_c, 11, 52, 100
13, 107392, Note_off_c, 11, 52, 64
13, 108288, Note_on_c, 11, 45, 100
13, 108544, Note_off_c, 11, 45, 64
13, 109440, Note_on_c, 11, 50, 100
13, 109696, Note_off_c, 11, 50, 64
13, 112896, Note_on_c, 11, 47, 100
13, 113408, Note_off_c, 11, 47, 64
13, 113664, Note_on_c, 11, 48, 100
13, 113920, Note_off_c, 11, 48, 64
13, 114048, Note_on_c, 11, 43, 100
13, 114304, Note_off_c, 11, 43, 64
13, 117504, Note_on_c, 11, 43, 100
13, 118272, Note_off_c, 11, 43, 64
13, 118656, Note_on_c, 11, 36, 100
13, 118784, Note_off_c, 11, 36, 64
13, 122112, Note_on_c, 11, 48, 100
13, 122368, Note_off_c, 11, 48, 64
13, 123264, Note_on_c, 11, 43, 100
13, 123520, Note_off_c, 11, 43, 64
13, 126720, Note_on_c, 11, 43, 100
13, 126976, Note_off_c, 11, 43, 64
13, 127872, Note_on_c, 11, 36, 100
13, 128128, Note_off_c, 11, 36, 64
13, 129024, Note_on_c, 11, 43, 100
13, 129280, Note_off_c, 11, 43, 64
13, 130176, Note_on_c, 11, 38, 100
13, 130432, Note_off_c, 11, 38, 64
13, 131328, Note_on_c, 11, 43, 100
13, 131584, Note_off_c, 11, 43, 64
13, 132480, Note_on_c, 11, 38, 100
13, 132736, Note_off_c, 11, 38, 64
13, 133632, Note_on_c, 11, 35, 100
13, 133888, Note_off_c, 11, 35, 64
13, 134016, Note_on_c, 11, 35, 100
13, 134272, Note_off_c, 11, 35, 64
13, 134400, Note_on_c, 11, 35, 100
13, 134656, Note_off_c, 11, 35, 64
13, 134784, Note_on_c, 11, 36, 100
13, 135040, Note_off_c, 11, 36, 64
13, 135168, Note_on_c, 11, 36, 100
13, 135424, Note_off_c, 11, 36, 64
13, 135552, Note_on_c, 11, 36, 100
13, 135808, Note_off_c, 11, 36, 64
13, 135936, Note_on_c, 11, 38, 100
13, 136192, Note_off_c, 11, 38, 64
13, 136320, Note_on_c, 11, 38, 100
13, 136576, Note_off_c, 11, 38, 64
13, 136704, Note_on_c, 11, 38, 100
13, 136960, Note_off_c, 11, 38, 64
13, 137088, Note_on_c, 11, 31, 100
13, 137344, Note_off_c, 11, 31, 64
13, 137344, End_track
14, 0, Start_track
14, 0, Title_t, "OBOI 2"
14, 0, Control_c, 12, 0, 0
14, 0, Program_c, 12, 68
14, 0, Key_signature, 0, "major"
14, 69120, Note_on_c, 12, 79, 87
14, 69376, Note_off_c, 12, 79, 55
14, 71424, Note_on_c, 12, 80, 87
14, 71680, Note_off_c, 12, 80, 55
14, 71808, Note_on_c, 12, 79, 87
14, 72320, Note_off_c, 12, 79, 55
14, 73728, Note_on_c, 12, 74, 87
14, 74240, Note_off_c, 12, 74, 55
14, 74496, Note_on_c, 12, 76, 87
14, 74752, Note_off_c, 12, 76, 55
14, 74880, Note_on_c, 12, 74, 87
14, 75392, Note_off_c, 12, 74, 55
14, 75648, Note_on_c, 12, 71, 87
14, 75904, Note_off_c, 12, 71, 55
14, 77184, Note_on_c, 12, 69, 87
14, 77440, Note_off_c, 12, 69, 55
14, 77952, Note_on_c, 12, 65, 87
14, 78080, Note_off_c, 12, 65, 55
14, 78080, End_track
15, 0, Start_track
15, 0, Key_signature, 0, "major"
15, 0, End_track
16, 0, Start_track
16, 0, Key_signature, 0, "major"
16, 0, End_track
17, 0, Start_track
17, 0, Key_signature, 0, "major"
17, 0, End_track
18, 0, Start_track
18, 0, Key_signature, 0, "major"
18, 0, End_track
0, 0, End_of_file
