0, 0, Header, 1, 20, 120
1, 0, Start_track
1, 0, Time_signature, 4, 2, 24, 8
1, 0, Key_signature, -1, "major"
1, 0, Tempo, 750000
1, 0, Marker_t, "Antonio Vivaldi: Magnificat, VIII (Sicut Locutus)"
1, 18965, Tempo, 697674
1, 18975, Tempo, 714286
1, 18985, Tempo, 731707
1, 18995, Tempo, 750000
1, 19005, Tempo, 769231
1, 19015, Tempo, 789474
1, 19025, Tempo, 810811
1, 19035, Tempo, 833333
1, 19045, Tempo, 857143
1, 19055, Tempo, 882353
1, 19065, Tempo, 909091
1, 19075, Tempo, 937500
1, 19085, Tempo, 967742
1, 19095, Tempo, 1000000
1, 19105, Tempo, 1034483
1, 19115, Tempo, 1071429
1, 19125, Tempo, 1111111
1, 19135, Tempo, 1153846
1, 19145, Tempo, 1200000
1, 19155, Tempo, 1250000
1, 19165, Tempo, 1304348
1, 19175, Tempo, 1363636
1, 19185, Tempo, 1428571
1, 19195, Tempo, 1000000
1, 19205, Tempo, 1034483
1, 19215, Tempo, 1052632
1, 19225, Tempo, 1090909
1, 19235, Tempo, 1132075
1, 19235, End_track
2, 0, Start_track
2, 0, MIDI_port, 0
2, 0, Title_t, "Soprani"
2, 0, Program_c, 0, 53
2, 0, Control_c, 0, 10, 30
2, 6534, Lyric_t, "Si-"
2, 6534, Note_on_c, 0, 65, 100
2, 6583, Control_c, 0, 7, 100
2, 6593, Note_on_c, 0, 65, 0
2, 6594, Lyric_t, "cut"
2, 6594, Note_on_c, 0, 69, 100
2, 6653, Note_on_c, 0, 69, 0
2, 6654, Lyric_t, "lo-"
2, 6654, Note_on_c, 0, 72, 100
2, 6713, Note_on_c, 0, 72, 0
2, 6714, Lyric_t, "cu-"
2, 6714, Note_on_c, 0, 77, 100
2, 6833, Note_on_c, 0, 77, 0
2, 6834, Lyric_t, "tus"
2, 6834, Note_on_c, 0, 72, 100
2, 6953, Note_on_c, 0, 72, 0
2, 6954, Lyric_t, "est"
2, 6954, Note_on_c, 0, 70, 100
2, 7013, Note_on_c, 0, 70, 0
2, 7014, Lyric_t, "ad"
2, 7014, Note_on_c, 0, 70, 100
2, 7073, Note_on_c, 0, 70, 0
2, 7074, Lyric_t, "pa-"
2, 7074, Note_on_c, 0, 70, 100
2, 7133, Note_on_c, 0, 70, 0
2, 7134, Lyric_t, "tres"
2, 7134, Note_on_c, 0, 70, 100
2, 7190, Control_c, 0, 7, 94
2, 7193, Note_on_c, 0, 70, 0
2, 7194, Lyric_t, "no-"
2, 7194, Note_on_c, 0, 70, 100
2, 7200, Control_c, 0, 7, 93
2, 7207, Control_c, 0, 7, 92
2, 7214, Control_c, 0, 7, 91
2, 7220, Control_c, 0, 7, 90
2, 7227, Control_c, 0, 7, 89
2, 7234, Control_c, 0, 7, 88
2, 7240, Control_c, 0, 7, 87
2, 7250, Control_c, 0, 7, 86
2, 7257, Control_c, 0, 7, 85
2, 7264, Control_c, 0, 7, 84
2, 7270, Control_c, 0, 7, 83
2, 7277, Control_c, 0, 7, 82
2, 7284, Control_c, 0, 7, 81
2, 7290, Control_c, 0, 7, 80
2, 7297, Control_c, 0, 7, 79
2, 7307, Control_c, 0, 7, 78
2, 7313, Note_on_c, 0, 70, 0
2, 7314, Control_c, 0, 7, 77
2, 7314, Lyric_t, "stros"
2, 7314, Note_on_c, 0, 69, 100
2, 7320, Control_c, 0, 7, 76
2, 7327, Control_c, 0, 7, 75
2, 7334, Control_c, 0, 7, 74
2, 7340, Control_c, 0, 7, 73
2, 7347, Control_c, 0, 7, 72
2, 7354, Control_c, 0, 7, 71
2, 7364, Control_c, 0, 7, 70
2, 7370, Control_c, 0, 7, 69
2, 7377, Control_c, 0, 7, 68
2, 7384, Control_c, 0, 7, 67
2, 7390, Control_c, 0, 7, 66
2, 7397, Control_c, 0, 7, 65
2, 7404, Control_c, 0, 7, 64
2, 7410, Control_c, 0, 7, 63
2, 7433, Note_on_c, 0, 69, 0
2, 7434, Lyric_t, "A-"
2, 7434, Note_on_c, 0, 69, 100
2, 7523, Note_on_c, 0, 69, 0
2, 7524, Lyric_t, "bra-"
2, 7524, Note_on_c, 0, 69, 100
2, 7554, Note_on_c, 0, 69, 0
2, 7554, Lyric_t, "ham,"
2, 7554, Note_on_c, 0, 69, 100
2, 7613, Note_on_c, 0, 69, 0
2, 7614, Lyric_t, "et"
2, 7614, Note_on_c, 0, 69, 100
2, 7673, Note_on_c, 0, 69, 0
2, 7674, Lyric_t, "se-"
2, 7674, Note_on_c, 0, 69, 100
2, 7733, Note_on_c, 0, 69, 0
2, 7734, Lyric_t, "mi-"
2, 7734, Note_on_c, 0, 69, 100
2, 7764, Note_on_c, 0, 69, 0
2, 7764, Lyric_t, "ni"
2, 7764, Note_on_c, 0, 69, 100
2, 7794, Note_on_c, 0, 69, 0
2, 7794, Lyric_t, "e-"
2, 7794, Note_on_c, 0, 69, 100
2, 7853, Note_on_c, 0, 69, 0
2, 7854, Lyric_t, "jus"
2, 7854, Note_on_c, 0, 70, 100
2, 7884, Note_on_c, 0, 70, 0
2, 7884, Lyric_t, "in"
2, 7884, Note_on_c, 0, 72, 100
2, 7896, Control_c, 0, 7, 107
2, 7914, Note_on_c, 0, 72, 0
2, 7914, Lyric_t, "sae"
2, 7914, Note_on_c, 0, 74, 100
2, 7946, Control_c, 0, 7, 109
2, 7956, Control_c, 0, 7, 112
2, 7963, Control_c, 0, 7, 113
2, 7970, Control_c, 0, 7, 114
2, 7980, Control_c, 0, 7, 115
2, 7986, Control_c, 0, 7, 116
2, 7993, Control_c, 0, 7, 117
2, 8006, Control_c, 0, 7, 119
2, 8020, Control_c, 0, 7, 120
2, 8023, Control_c, 0, 7, 121
2, 8184, Control_c, 0, 7, 104
2, 8187, Control_c, 0, 7, 103
2, 8190, Control_c, 0, 7, 102
2, 8194, Control_c, 0, 7, 101
2, 8197, Control_c, 0, 7, 100
2, 8200, Control_c, 0, 7, 99
2, 8204, Control_c, 0, 7, 98
2, 8207, Control_c, 0, 7, 97
2, 8210, Control_c, 0, 7, 96
2, 8211, Note_on_c, 0, 74, 0
2, 8214, Control_c, 0, 7, 95
2, 8214, Note_on_c, 0, 76, 100
2, 8217, Control_c, 0, 7, 94
2, 8220, Control_c, 0, 7, 93
2, 8224, Control_c, 0, 7, 92
2, 8227, Control_c, 0, 7, 91
2, 8230, Control_c, 0, 7, 90
2, 8234, Control_c, 0, 7, 89
2, 8237, Control_c, 0, 7, 88
2, 8240, Control_c, 0, 7, 87
2, 8244, Note_on_c, 0, 76, 0
2, 8244, Control_c, 0, 7, 86
2, 8244, Note_on_c, 0, 74, 100
2, 8247, Control_c, 0, 7, 85
2, 8250, Control_c, 0, 7, 84
2, 8254, Control_c, 0, 7, 83
2, 8257, Control_c, 0, 7, 82
2, 8260, Control_c, 0, 7, 80
2, 8264, Control_c, 0, 7, 72
2, 8267, Control_c, 0, 7, 69
2, 8270, Control_c, 0, 7, 65
2, 8274, Note_on_c, 0, 74, 0
2, 8274, Note_on_c, 0, 72, 100
2, 8333, Note_on_c, 0, 72, 0
2, 8334, Note_on_c, 0, 70, 100
2, 8393, Note_on_c, 0, 70, 0
2, 8394, Note_on_c, 0, 76, 100
2, 8403, Control_c, 0, 7, 101
2, 8416, Control_c, 0, 7, 102
2, 8423, Control_c, 0, 7, 103
2, 8430, Control_c, 0, 7, 104
2, 8456, Control_c, 0, 7, 105
2, 8460, Control_c, 0, 7, 106
2, 8466, Control_c, 0, 7, 107
2, 8473, Control_c, 0, 7, 108
2, 8486, Control_c, 0, 7, 110
2, 8496, Control_c, 0, 7, 111
2, 8503, Control_c, 0, 7, 112
2, 8520, Control_c, 0, 7, 114
2, 8523, Control_c, 0, 7, 116
2, 8550, Control_c, 0, 7, 118
2, 8553, Control_c, 0, 7, 119
2, 8563, Control_c, 0, 7, 120
2, 8576, Control_c, 0, 7, 122
2, 8586, Control_c, 0, 7, 124
2, 8616, Control_c, 0, 7, 125
2, 8617, Control_c, 0, 7, 119
2, 8627, Control_c, 0, 7, 120
2, 8644, Control_c, 0, 7, 115
2, 8650, Control_c, 0, 7, 114
2, 8654, Control_c, 0, 7, 113
2, 8660, Control_c, 0, 7, 112
2, 8664, Control_c, 0, 7, 111
2, 8670, Control_c, 0, 7, 110
2, 8674, Control_c, 0, 7, 109
2, 8680, Control_c, 0, 7, 108
2, 8684, Control_c, 0, 7, 107
2, 8691, Note_on_c, 0, 76, 0
2, 8693, Control_c, 0, 7, 105
2, 8694, Note_on_c, 0, 77, 100
2, 8724, Note_on_c, 0, 77, 0
2, 8724, Note_on_c, 0, 76, 100
2, 8730, Control_c, 0, 7, 103
2, 8754, Note_on_c, 0, 76, 0
2, 8754, Note_on_c, 0, 74, 100
2, 8810, Control_c, 0, 7, 102
2, 8813, Note_on_c, 0, 74, 0
2, 8813, Control_c, 0, 7, 101
2, 8814, Note_on_c, 0, 72, 100
2, 8816, Control_c, 0, 7, 99
2, 8830, Control_c, 0, 7, 98
2, 8836, Control_c, 0, 7, 95
2, 8843, Control_c, 0, 7, 94
2, 8850, Control_c, 0, 7, 93
2, 8873, Note_on_c, 0, 72, 0
2, 8874, Note_on_c, 0, 77, 100
2, 8937, Control_c, 0, 7, 66
2, 8940, Control_c, 0, 7, 67
2, 8944, Control_c, 0, 7, 69
2, 8947, Control_c, 0, 7, 71
2, 8950, Control_c, 0, 7, 73
2, 8954, Control_c, 0, 7, 75
2, 8957, Control_c, 0, 7, 77
2, 8960, Control_c, 0, 7, 79
2, 8964, Control_c, 0, 7, 81
2, 8967, Control_c, 0, 7, 83
2, 8970, Control_c, 0, 7, 85
2, 8974, Control_c, 0, 7, 87
2, 8977, Control_c, 0, 7, 89
2, 8980, Control_c, 0, 7, 91
2, 8984, Control_c, 0, 7, 93
2, 8987, Control_c, 0, 7, 95
2, 8990, Control_c, 0, 7, 97
2, 8994, Control_c, 0, 7, 99
2, 8997, Control_c, 0, 7, 101
2, 9000, Control_c, 0, 7, 106
2, 9014, Control_c, 0, 7, 107
2, 9024, Control_c, 0, 7, 108
2, 9037, Control_c, 0, 7, 109
2, 9047, Control_c, 0, 7, 110
2, 9060, Control_c, 0, 7, 111
2, 9070, Control_c, 0, 7, 112
2, 9080, Control_c, 0, 7, 113
2, 9094, Control_c, 0, 7, 114
2, 9104, Control_c, 0, 7, 115
2, 9117, Control_c, 0, 7, 116
2, 9127, Control_c, 0, 7, 117
2, 9140, Control_c, 0, 7, 118
2, 9150, Control_c, 0, 7, 119
2, 9154, Control_c, 0, 7, 120
2, 9164, Control_c, 0, 7, 119
2, 9170, Control_c, 0, 7, 118
2, 9177, Control_c, 0, 7, 117
2, 9184, Control_c, 0, 7, 116
2, 9190, Control_c, 0, 7, 115
2, 9197, Control_c, 0, 7, 114
2, 9201, Note_on_c, 0, 77, 0
2, 9204, Control_c, 0, 7, 113
2, 9204, Lyric_t, "cu-"
2, 9204, Note_on_c, 0, 77, 100
2, 9206, Control_c, 0, 7, 111
2, 9230, Control_c, 0, 7, 110
2, 9230, Lyric_t, "la,"
2, 9230, Note_on_c, 0, 76, 100
2, 9234, Note_on_c, 0, 77, 0
2, 9250, Control_c, 0, 7, 109
2, 9260, Control_c, 0, 7, 106
2, 9323, Control_c, 0, 7, 105
2, 9330, Control_c, 0, 7, 104
2, 9344, Control_c, 0, 7, 71
2, 9347, Control_c, 0, 7, 70
2, 9349, Note_on_c, 0, 76, 0
2, 9354, Control_c, 0, 7, 69
2, 9357, Control_c, 0, 7, 68
2, 9360, Control_c, 0, 7, 67
2, 9414, Lyric_t, "in"
2, 9414, Note_on_c, 0, 76, 100
2, 9473, Note_on_c, 0, 76, 0
2, 9474, Lyric_t, "sae-"
2, 9474, Note_on_c, 0, 74, 100
2, 9563, Note_on_c, 0, 74, 0
2, 9564, Lyric_t, "cu-"
2, 9564, Note_on_c, 0, 74, 100
2, 9594, Note_on_c, 0, 74, 0
2, 9594, Lyric_t, "la."
2, 9594, Note_on_c, 0, 76, 100
2, 9713, Note_on_c, 0, 76, 0
2, 11994, Lyric_t, "A-"
2, 11994, Note_on_c, 0, 74, 100
2, 12027, Control_c, 0, 7, 108
2, 12034, Control_c, 0, 7, 107
2, 12040, Control_c, 0, 7, 106
2, 12047, Control_c, 0, 7, 105
2, 12054, Control_c, 0, 7, 104
2, 12057, Control_c, 0, 7, 103
2, 12064, Control_c, 0, 7, 102
2, 12070, Control_c, 0, 7, 101
2, 12077, Control_c, 0, 7, 100
2, 12083, Note_on_c, 0, 74, 0
2, 12084, Control_c, 0, 7, 99
2, 12084, Lyric_t, "bra-"
2, 12084, Note_on_c, 0, 74, 100
2, 12087, Control_c, 0, 7, 98
2, 12090, Control_c, 0, 7, 95
2, 12094, Control_c, 0, 7, 93
2, 12097, Control_c, 0, 7, 91
2, 12100, Control_c, 0, 7, 89
2, 12114, Note_on_c, 0, 74, 0
2, 12114, Lyric_t, "ham,"
2, 12114, Note_on_c, 0, 74, 100
2, 12173, Note_on_c, 0, 74, 0
2, 12174, Lyric_t, "et"
2, 12174, Note_on_c, 0, 74, 100
2, 12233, Note_on_c, 0, 74, 0
2, 12234, Lyric_t, "se-"
2, 12234, Note_on_c, 0, 67, 100
2, 12280, Control_c, 0, 7, 80
2, 12293, Note_on_c, 0, 67, 0
2, 12294, Lyric_t, "mi-"
2, 12294, Note_on_c, 0, 67, 100
2, 12324, Note_on_c, 0, 67, 0
2, 12324, Lyric_t, "ni"
2, 12324, Note_on_c, 0, 69, 100
2, 12354, Note_on_c, 0, 69, 0
2, 12354, Lyric_t, "e-"
2, 12354, Note_on_c, 0, 70, 100
2, 12413, Note_on_c, 0, 70, 0
2, 12414, Lyric_t, "jus"
2, 12414, Note_on_c, 0, 70, 100
2, 12444, Note_on_c, 0, 70, 0
2, 12444, Lyric_t, "in"
2, 12444, Note_on_c, 0, 70, 100
2, 12474, Note_on_c, 0, 70, 0
2, 12474, Lyric_t, "sae-"
2, 12474, Note_on_c, 0, 70, 100
2, 12563, Note_on_c, 0, 70, 0
2, 12564, Lyric_t, "cu-"
2, 12564, Note_on_c, 0, 70, 100
2, 12594, Note_on_c, 0, 70, 0
2, 12594, Lyric_t, "la,"
2, 12594, Note_on_c, 0, 69, 100
2, 12634, Control_c, 0, 7, 72
2, 12644, Control_c, 0, 7, 71
2, 12654, Control_c, 0, 7, 70
2, 12664, Control_c, 0, 7, 69
2, 12674, Control_c, 0, 7, 68
2, 12684, Control_c, 0, 7, 67
2, 12694, Control_c, 0, 7, 66
2, 12704, Control_c, 0, 7, 65
2, 12713, Note_on_c, 0, 69, 0
2, 12714, Lyric_t, "A-"
2, 12714, Note_on_c, 0, 69, 100
2, 12803, Note_on_c, 0, 69, 0
2, 12804, Lyric_t, "bra-"
2, 12804, Note_on_c, 0, 69, 100
2, 12823, Control_c, 0, 7, 104
2, 12834, Note_on_c, 0, 69, 0
2, 12834, Lyric_t, "ham,"
2, 12834, Note_on_c, 0, 69, 100
2, 12893, Note_on_c, 0, 69, 0
2, 12894, Lyric_t, "et"
2, 12894, Note_on_c, 0, 69, 100
2, 12953, Note_on_c, 0, 69, 0
2, 12954, Note_on_c, 0, 69, 100
2, 12954, Lyric_t, "se-"
2, 13013, Note_on_c, 0, 69, 0
2, 13014, Lyric_t, "mi-"
2, 13014, Note_on_c, 0, 69, 100
2, 13044, Note_on_c, 0, 69, 0
2, 13044, Lyric_t, "ni"
2, 13044, Note_on_c, 0, 69, 100
2, 13074, Note_on_c, 0, 69, 0
2, 13074, Note_on_c, 0, 69, 100
2, 13074, Lyric_t, "e-"
2, 13133, Note_on_c, 0, 69, 0
2, 13134, Note_on_c, 0, 70, 100
2, 13134, Lyric_t, "jus"
2, 13164, Note_on_c, 0, 70, 0
2, 13164, Note_on_c, 0, 72, 100
2, 13164, Lyric_t, "in"
2, 13194, Note_on_c, 0, 72, 0
2, 13194, Note_on_c, 0, 74, 100
2, 13194, Lyric_t, "sae"
2, 13204, Control_c, 0, 7, 65
2, 13207, Control_c, 0, 7, 67
2, 13210, Control_c, 0, 7, 70
2, 13214, Control_c, 0, 7, 73
2, 13217, Control_c, 0, 7, 75
2, 13220, Control_c, 0, 7, 78
2, 13224, Control_c, 0, 7, 81
2, 13227, Control_c, 0, 7, 83
2, 13230, Control_c, 0, 7, 86
2, 13234, Control_c, 0, 7, 89
2, 13237, Control_c, 0, 7, 91
2, 13240, Control_c, 0, 7, 102
2, 13250, Control_c, 0, 7, 103
2, 13257, Control_c, 0, 7, 104
2, 13267, Control_c, 0, 7, 105
2, 13274, Control_c, 0, 7, 106
2, 13284, Control_c, 0, 7, 107
2, 13290, Control_c, 0, 7, 108
2, 13300, Control_c, 0, 7, 109
2, 13307, Control_c, 0, 7, 110
2, 13317, Control_c, 0, 7, 111
2, 13324, Control_c, 0, 7, 112
2, 13334, Control_c, 0, 7, 113
2, 13340, Control_c, 0, 7, 114
2, 13350, Control_c, 0, 7, 115
2, 13357, Control_c, 0, 7, 116
2, 13367, Control_c, 0, 7, 117
2, 13374, Control_c, 0, 7, 118
2, 13384, Control_c, 0, 7, 119
2, 13390, Control_c, 0, 7, 120
2, 13397, Control_c, 0, 7, 121
2, 13400, Control_c, 0, 7, 120
2, 13404, Control_c, 0, 7, 116
2, 13407, Control_c, 0, 7, 113
2, 13410, Control_c, 0, 7, 109
2, 13410, Control_c, 0, 7, 111
2, 13414, Control_c, 0, 7, 105
2, 13417, Control_c, 0, 7, 102
2, 13420, Control_c, 0, 7, 98
2, 13424, Control_c, 0, 7, 94
2, 13427, Control_c, 0, 7, 91
2, 13430, Control_c, 0, 7, 87
2, 13434, Control_c, 0, 7, 83
2, 13437, Control_c, 0, 7, 85
2, 13444, Control_c, 0, 7, 84
2, 13450, Control_c, 0, 7, 83
2, 13457, Control_c, 0, 7, 82
2, 13464, Control_c, 0, 7, 81
2, 13470, Control_c, 0, 7, 80
2, 13473, Control_c, 0, 7, 109
2, 13477, Control_c, 0, 7, 79
2, 13480, Control_c, 0, 7, 108
2, 13484, Control_c, 0, 7, 78
2, 13490, Control_c, 0, 7, 77
2, 13491, Note_on_c, 0, 74, 0
2, 13494, Note_on_c, 0, 76, 100
2, 13497, Control_c, 0, 7, 76
2, 13504, Control_c, 0, 7, 75
2, 13506, Control_c, 0, 7, 107
2, 13510, Control_c, 0, 7, 74
2, 13517, Control_c, 0, 7, 73
2, 13520, Control_c, 0, 7, 105
2, 13524, Note_on_c, 0, 76, 0
2, 13524, Control_c, 0, 7, 72
2, 13524, Note_on_c, 0, 74, 100
2, 13526, Control_c, 0, 7, 105
2, 13530, Control_c, 0, 7, 71
2, 13537, Control_c, 0, 7, 70
2, 13544, Control_c, 0, 7, 69
2, 13550, Control_c, 0, 7, 68
2, 13553, Control_c, 0, 7, 104
2, 13554, Note_on_c, 0, 74, 0
2, 13554, Note_on_c, 0, 72, 100
2, 13557, Control_c, 0, 7, 67
2, 13563, Control_c, 0, 7, 102
2, 13613, Note_on_c, 0, 72, 0
2, 13614, Note_on_c, 0, 70, 100
2, 13673, Note_on_c, 0, 70, 0
2, 13674, Note_on_c, 0, 76, 100
2, 13680, Control_c, 0, 7, 61
2, 13684, Control_c, 0, 7, 63
2, 13687, Control_c, 0, 7, 65
2, 13690, Control_c, 0, 7, 67
2, 13694, Control_c, 0, 7, 69
2, 13697, Control_c, 0, 7, 71
2, 13700, Control_c, 0, 7, 74
2, 13704, Control_c, 0, 7, 76
2, 13707, Control_c, 0, 7, 78
2, 13710, Control_c, 0, 7, 80
2, 13714, Control_c, 0, 7, 82
2, 13717, Control_c, 0, 7, 84
2, 13720, Control_c, 0, 7, 87
2, 13724, Control_c, 0, 7, 89
2, 13727, Control_c, 0, 7, 91
2, 13730, Control_c, 0, 7, 93
2, 13734, Control_c, 0, 7, 95
2, 13737, Control_c, 0, 7, 97
2, 13740, Control_c, 0, 7, 100
2, 13744, Control_c, 0, 7, 104
2, 13750, Control_c, 0, 7, 105
2, 13754, Control_c, 0, 7, 106
2, 13760, Control_c, 0, 7, 107
2, 13764, Control_c, 0, 7, 108
2, 13770, Control_c, 0, 7, 109
2, 13774, Control_c, 0, 7, 110
2, 13780, Control_c, 0, 7, 111
2, 13784, Control_c, 0, 7, 112
2, 13790, Control_c, 0, 7, 113
2, 13794, Control_c, 0, 7, 114
2, 13800, Control_c, 0, 7, 115
2, 13804, Control_c, 0, 7, 116
2, 13807, Control_c, 0, 7, 117
2, 13877, Control_c, 0, 7, 126
2, 13887, Control_c, 0, 7, 125
2, 13894, Control_c, 0, 7, 124
2, 13904, Control_c, 0, 7, 123
2, 13910, Control_c, 0, 7, 122
2, 13917, Control_c, 0, 7, 121
2, 13927, Control_c, 0, 7, 120
2, 13934, Control_c, 0, 7, 119
2, 13944, Control_c, 0, 7, 118
2, 13950, Control_c, 0, 7, 117
2, 13957, Control_c, 0, 7, 116
2, 13967, Control_c, 0, 7, 115
2, 13971, Note_on_c, 0, 76, 0
2, 13974, Note_on_c, 0, 77, 100
2, 13974, Control_c, 0, 7, 114
2, 13976, Control_c, 0, 7, 114
2, 13977, Control_c, 0, 7, 113
2, 13980, Control_c, 0, 7, 112
2, 13984, Control_c, 0, 7, 111
2, 13987, Control_c, 0, 7, 109
2, 13990, Control_c, 0, 7, 108
2, 13994, Control_c, 0, 7, 106
2, 13996, Control_c, 0, 7, 113
2, 13997, Control_c, 0, 7, 105
2, 14000, Control_c, 0, 7, 103
2, 14003, Control_c, 0, 7, 112
2, 14004, Note_on_c, 0, 77, 0
2, 14004, Control_c, 0, 7, 102
2, 14004, Note_on_c, 0, 76, 100
2, 14006, Control_c, 0, 7, 111
2, 14007, Control_c, 0, 7, 100
2, 14010, Control_c, 0, 7, 99
2, 14013, Control_c, 0, 7, 110
2, 14014, Control_c, 0, 7, 97
2, 14017, Control_c, 0, 7, 96
2, 14020, Control_c, 0, 7, 94
2, 14024, Control_c, 0, 7, 93
2, 14026, Control_c, 0, 7, 109
2, 14027, Control_c, 0, 7, 91
2, 14030, Control_c, 0, 7, 108
2, 14030, Control_c, 0, 7, 90
2, 14034, Note_on_c, 0, 76, 0
2, 14034, Control_c, 0, 7, 88
2, 14034, Note_on_c, 0, 74, 100
2, 14037, Control_c, 0, 7, 87
2, 14040, Control_c, 0, 7, 85
2, 14043, Control_c, 0, 7, 106
2, 14044, Control_c, 0, 7, 84
2, 14047, Control_c, 0, 7, 82
2, 14093, Note_on_c, 0, 74, 0
2, 14094, Note_on_c, 0, 72, 100
2, 14140, Control_c, 0, 7, 83
2, 14147, Control_c, 0, 7, 84
2, 14150, Control_c, 0, 7, 85
2, 14153, Note_on_c, 0, 72, 0
2, 14154, Control_c, 0, 7, 92
2, 14154, Note_on_c, 0, 77, 100
2, 14157, Control_c, 0, 7, 93
2, 14160, Control_c, 0, 7, 95
2, 14164, Control_c, 0, 7, 97
2, 14167, Control_c, 0, 7, 99
2, 14170, Control_c, 0, 7, 101
2, 14174, Control_c, 0, 7, 103
2, 14177, Control_c, 0, 7, 104
2, 14180, Control_c, 0, 7, 106
2, 14184, Control_c, 0, 7, 110
2, 14197, Control_c, 0, 7, 111
2, 14207, Control_c, 0, 7, 112
2, 14217, Control_c, 0, 7, 113
2, 14227, Control_c, 0, 7, 114
2, 14237, Control_c, 0, 7, 115
2, 14247, Control_c, 0, 7, 116
2, 14257, Control_c, 0, 7, 117
2, 14267, Control_c, 0, 7, 118
2, 14277, Control_c, 0, 7, 119
2, 14287, Control_c, 0, 7, 120
2, 14297, Control_c, 0, 7, 121
2, 14307, Control_c, 0, 7, 122
2, 14317, Control_c, 0, 7, 123
2, 14324, Control_c, 0, 7, 125
2, 14330, Control_c, 0, 7, 124
2, 14337, Control_c, 0, 7, 123
2, 14344, Control_c, 0, 7, 122
2, 14350, Control_c, 0, 7, 121
2, 14357, Control_c, 0, 7, 120
2, 14364, Control_c, 0, 7, 119
2, 14370, Control_c, 0, 7, 118
2, 14377, Control_c, 0, 7, 117
2, 14384, Control_c, 0, 7, 116
2, 14390, Control_c, 0, 7, 115
2, 14397, Control_c, 0, 7, 114
2, 14404, Control_c, 0, 7, 113
2, 14410, Control_c, 0, 7, 112
2, 14417, Control_c, 0, 7, 111
2, 14424, Control_c, 0, 7, 110
2, 14430, Control_c, 0, 7, 109
2, 14437, Control_c, 0, 7, 108
2, 14444, Control_c, 0, 7, 107
2, 14450, Control_c, 0, 7, 106
2, 14451, Note_on_c, 0, 77, 0
2, 14454, Note_on_c, 0, 79, 100
2, 14457, Control_c, 0, 7, 105
2, 14464, Control_c, 0, 7, 104
2, 14470, Control_c, 0, 7, 103
2, 14477, Control_c, 0, 7, 102
2, 14480, Control_c, 0, 7, 101
2, 14484, Note_on_c, 0, 79, 0
2, 14484, Note_on_c, 0, 77, 100
2, 14514, Note_on_c, 0, 77, 0
2, 14514, Note_on_c, 0, 76, 100
2, 14530, Control_c, 0, 7, 97
2, 14573, Note_on_c, 0, 76, 0
2, 14574, Note_on_c, 0, 74, 100
2, 14584, Control_c, 0, 7, 96
2, 14633, Note_on_c, 0, 74, 0
2, 14634, Control_c, 0, 7, 95
2, 14634, Note_on_c, 0, 76, 100
2, 14684, Control_c, 0, 7, 94
2, 14734, Control_c, 0, 7, 93
2, 14750, Control_c, 0, 7, 83
2, 14777, Control_c, 0, 7, 82
2, 14804, Control_c, 0, 7, 81
2, 14812, Note_on_c, 0, 76, 0
2, 14814, Note_on_c, 0, 74, 100
2, 14830, Control_c, 0, 7, 80
2, 14844, Note_on_c, 0, 74, 0
2, 14844, Note_on_c, 0, 72, 100
2, 14854, Control_c, 0, 7, 79
2, 14874, Note_on_c, 0, 72, 0
2, 14874, Note_on_c, 0, 74, 100
2, 14924, Control_c, 0, 7, 92
2, 14934, Control_c, 0, 7, 90
2, 14957, Control_c, 0, 7, 89
2, 14980, Control_c, 0, 7, 88
2, 15004, Control_c, 0, 7, 87
2, 15027, Control_c, 0, 7, 86
2, 15050, Control_c, 0, 7, 85
2, 15052, Note_on_c, 0, 74, 0
2, 15054, Note_on_c, 0, 72, 100
2, 15074, Control_c, 0, 7, 84
2, 15084, Note_on_c, 0, 72, 0
2, 15084, Note_on_c, 0, 70, 100
2, 15097, Control_c, 0, 7, 83
2, 15114, Note_on_c, 0, 70, 0
2, 15114, Note_on_c, 0, 72, 100
2, 15120, Control_c, 0, 7, 82
2, 15144, Control_c, 0, 7, 81
2, 15167, Control_c, 0, 7, 80
2, 15190, Control_c, 0, 7, 79
2, 15214, Control_c, 0, 7, 78
2, 15237, Control_c, 0, 7, 77
2, 15247, Control_c, 0, 7, 88
2, 15292, Note_on_c, 0, 72, 0
2, 15294, Note_on_c, 0, 70, 100
2, 15324, Note_on_c, 0, 70, 0
2, 15324, Note_on_c, 0, 69, 100
2, 15354, Note_on_c, 0, 69, 0
2, 15354, Note_on_c, 0, 67, 100
2, 15443, Note_on_c, 0, 67, 0
2, 15444, Lyric_t, "cu-"
2, 15444, Note_on_c, 0, 67, 100
2, 15474, Note_on_c, 0, 67, 0
2, 15474, Lyric_t, "la,"
2, 15474, Note_on_c, 0, 67, 100
2, 15593, Note_on_c, 0, 67, 0
2, 15800, Control_c, 0, 7, 67
2, 15834, Lyric_t, "A-"
2, 15834, Note_on_c, 0, 67, 100
2, 15923, Note_on_c, 0, 67, 0
2, 15924, Note_on_c, 0, 67, 100
2, 15924, Lyric_t, "bra-"
2, 15954, Note_on_c, 0, 67, 0
2, 15954, Lyric_t, "ham,"
2, 15954, Note_on_c, 0, 67, 100
2, 16073, Note_on_c, 0, 67, 0
2, 16534, Control_c, 0, 7, 24
2, 16540, Control_c, 0, 7, 44
2, 16554, Lyric_t, "A-"
2, 16554, Note_on_c, 0, 67, 100
2, 16617, Control_c, 0, 7, 45
2, 16643, Note_on_c, 0, 67, 0
2, 16644, Lyric_t, "bra-"
2, 16644, Note_on_c, 0, 67, 100
2, 16674, Note_on_c, 0, 67, 0
2, 16674, Note_on_c, 0, 67, 100
2, 16674, Lyric_t, "ham,"
2, 16694, Control_c, 0, 7, 46
2, 16700, Control_c, 0, 7, 46
2, 16707, Control_c, 0, 7, 47
2, 16717, Control_c, 0, 7, 48
2, 16724, Control_c, 0, 7, 49
2, 16730, Control_c, 0, 7, 50
2, 16733, Note_on_c, 0, 67, 0
2, 16734, Lyric_t, "et"
2, 16734, Note_on_c, 0, 67, 100
2, 16737, Control_c, 0, 7, 51
2, 16747, Control_c, 0, 7, 52
2, 16754, Control_c, 0, 7, 53
2, 16760, Control_c, 0, 7, 54
2, 16767, Control_c, 0, 7, 55
2, 16777, Control_c, 0, 7, 56
2, 16784, Control_c, 0, 7, 57
2, 16790, Control_c, 0, 7, 58
2, 16793, Note_on_c, 0, 67, 0
2, 16794, Lyric_t, "se-"
2, 16794, Note_on_c, 0, 70, 100
2, 16797, Control_c, 0, 7, 59
2, 16807, Control_c, 0, 7, 60
2, 16814, Control_c, 0, 7, 61
2, 16820, Control_c, 0, 7, 62
2, 16827, Control_c, 0, 7, 63
2, 16836, Control_c, 0, 7, 100
2, 16837, Control_c, 0, 7, 64
2, 16840, Control_c, 0, 7, 99
2, 16844, Control_c, 0, 7, 65
2, 16850, Control_c, 0, 7, 66
2, 16857, Control_c, 0, 7, 67
2, 16860, Control_c, 0, 7, 96
2, 16867, Control_c, 0, 7, 68
2, 16874, Control_c, 0, 7, 69
2, 16880, Control_c, 0, 7, 70
2, 16886, Control_c, 0, 7, 97
2, 16887, Control_c, 0, 7, 71
2, 16897, Control_c, 0, 7, 72
2, 16904, Control_c, 0, 7, 73
2, 16906, Control_c, 0, 7, 96
2, 16910, Control_c, 0, 7, 74
2, 16913, Note_on_c, 0, 70, 0
2, 16914, Lyric_t, "mi-"
2, 16914, Note_on_c, 0, 70, 100
2, 16920, Control_c, 0, 7, 75
2, 16927, Control_c, 0, 7, 76
2, 16930, Control_c, 0, 7, 97
2, 16934, Control_c, 0, 7, 77
2, 16940, Control_c, 0, 7, 78
2, 16943, Control_c, 0, 7, 97
2, 16946, Control_c, 0, 7, 98
2, 16950, Control_c, 0, 7, 99
2, 16950, Control_c, 0, 7, 79
2, 16957, Control_c, 0, 7, 80
2, 16964, Control_c, 0, 7, 81
2, 16970, Control_c, 0, 7, 82
2, 16973, Note_on_c, 0, 70, 0
2, 16974, Note_on_c, 0, 70, 100
2, 16974, Lyric_t, "ni"
2, 16980, Control_c, 0, 7, 83
2, 16987, Control_c, 0, 7, 84
2, 16994, Control_c, 0, 7, 85
2, 17000, Control_c, 0, 7, 86
2, 17010, Control_c, 0, 7, 87
2, 17017, Control_c, 0, 7, 88
2, 17024, Control_c, 0, 7, 89
2, 17030, Control_c, 0, 7, 90
2, 17033, Note_on_c, 0, 70, 0
2, 17034, Lyric_t, "e-"
2, 17034, Note_on_c, 0, 70, 100
2, 17040, Control_c, 0, 7, 91
2, 17047, Control_c, 0, 7, 92
2, 17054, Control_c, 0, 7, 93
2, 17060, Control_c, 0, 7, 94
2, 17070, Control_c, 0, 7, 95
2, 17077, Control_c, 0, 7, 96
2, 17084, Control_c, 0, 7, 97
2, 17090, Control_c, 0, 7, 98
2, 17093, Note_on_c, 0, 70, 0
2, 17094, Note_on_c, 0, 69, 100
2, 17100, Control_c, 0, 7, 99
2, 17107, Control_c, 0, 7, 100
2, 17114, Control_c, 0, 7, 101
2, 17120, Control_c, 0, 7, 102
2, 17124, Note_on_c, 0, 69, 0
2, 17124, Note_on_c, 0, 67, 100
2, 17130, Control_c, 0, 7, 103
2, 17137, Control_c, 0, 7, 104
2, 17144, Control_c, 0, 7, 105
2, 17150, Control_c, 0, 7, 106
2, 17154, Note_on_c, 0, 67, 0
2, 17154, Note_on_c, 0, 69, 100
2, 17154, Lyric_t, "jus"
2, 17160, Control_c, 0, 7, 107
2, 17167, Control_c, 0, 7, 108
2, 17174, Control_c, 0, 7, 109
2, 17180, Control_c, 0, 7, 110
2, 17190, Control_c, 0, 7, 111
2, 17197, Control_c, 0, 7, 112
2, 17204, Control_c, 0, 7, 113
2, 17210, Control_c, 0, 7, 114
2, 17213, Note_on_c, 0, 69, 0
2, 17214, Lyric_t, "in"
2, 17214, Note_on_c, 0, 70, 100
2, 17220, Control_c, 0, 7, 115
2, 17227, Control_c, 0, 7, 116
2, 17234, Control_c, 0, 7, 117
2, 17240, Control_c, 0, 7, 118
2, 17250, Control_c, 0, 7, 119
2, 17257, Control_c, 0, 7, 120
2, 17264, Control_c, 0, 7, 121
2, 17270, Control_c, 0, 7, 122
2, 17273, Note_on_c, 0, 70, 0
2, 17274, Note_on_c, 0, 69, 100
2, 17274, Lyric_t, "sae-"
2, 17277, Control_c, 0, 7, 64
2, 17280, Control_c, 0, 7, 66
2, 17284, Control_c, 0, 7, 69
2, 17287, Control_c, 0, 7, 72
2, 17290, Control_c, 0, 7, 74
2, 17294, Control_c, 0, 7, 77
2, 17297, Control_c, 0, 7, 80
2, 17300, Control_c, 0, 7, 82
2, 17304, Control_c, 0, 7, 85
2, 17307, Control_c, 0, 7, 93
2, 17393, Note_on_c, 0, 69, 0
2, 17394, Note_on_c, 0, 67, 100
2, 17397, Control_c, 0, 7, 94
2, 17453, Note_on_c, 0, 67, 0
2, 17454, Lyric_t, "cu-"
2, 17454, Note_on_c, 0, 65, 100
2, 17484, Control_c, 0, 7, 95
2, 17513, Note_on_c, 0, 65, 0
2, 17514, Note_on_c, 0, 65, 100
2, 17514, Lyric_t, "la."
2, 17524, Control_c, 0, 7, 61
2, 17527, Control_c, 0, 7, 64
2, 17530, Control_c, 0, 7, 67
2, 17534, Control_c, 0, 7, 70
2, 17537, Control_c, 0, 7, 73
2, 17540, Control_c, 0, 7, 76
2, 17544, Control_c, 0, 7, 79
2, 17547, Control_c, 0, 7, 82
2, 17550, Control_c, 0, 7, 85
2, 17554, Control_c, 0, 7, 88
2, 17557, Control_c, 0, 7, 91
2, 17560, Control_c, 0, 7, 94
2, 17564, Control_c, 0, 7, 97
2, 17567, Control_c, 0, 7, 100
2, 17570, Control_c, 0, 7, 103
2, 17574, Control_c, 0, 7, 106
2, 17577, Control_c, 0, 7, 109
2, 17580, Control_c, 0, 7, 112
2, 17584, Control_c, 0, 7, 115
2, 17587, Control_c, 0, 7, 118
2, 17590, Control_c, 0, 7, 121
2, 17594, Control_c, 0, 7, 124
2, 17597, Control_c, 0, 7, 127
2, 17753, Note_on_c, 0, 65, 0
2, 17753, End_track
3, 0, Start_track
3, 0, MIDI_port, 0
3, 0, Title_t, "Contralti"
3, 0, Program_c, 1, 91
3, 0, Control_c, 1, 10, 50
3, 6954, Control_c, 1, 7, 55
3, 7194, Lyric_t, "A-"
3, 7194, Note_on_c, 1, 60, 100
3, 7283, Note_on_c, 1, 60, 0
3, 7284, Lyric_t, "bra-"
3, 7284, Note_on_c, 1, 60, 100
3, 7314, Note_on_c, 1, 60, 0
3, 7314, Lyric_t, "ham,"
3, 7314, Note_on_c, 1, 60, 100
3, 7373, Note_on_c, 1, 60, 0
3, 7374, Lyric_t, "et"
3, 7374, Note_on_c, 1, 60, 100
3, 7433, Note_on_c, 1, 60, 0
3, 7434, Lyric_t, "se-"
3, 7434, Note_on_c, 1, 60, 100
3, 7493, Note_on_c, 1, 60, 0
3, 7494, Lyric_t, "mi-"
3, 7494, Note_on_c, 1, 60, 100
3, 7524, Note_on_c, 1, 60, 0
3, 7524, Lyric_t, "ni"
3, 7524, Note_on_c, 1, 60, 100
3, 7554, Note_on_c, 1, 60, 0
3, 7554, Lyric_t, "e-"
3, 7554, Note_on_c, 1, 60, 100
3, 7613, Note_on_c, 1, 60, 0
3, 7614, Lyric_t, "jus"
3, 7614, Note_on_c, 1, 62, 100
3, 7616, Control_c, 1, 7, 90
3, 7644, Note_on_c, 1, 62, 0
3, 7644, Lyric_t, "in"
3, 7644, Note_on_c, 1, 64, 100
3, 7674, Note_on_c, 1, 64, 0
3, 7674, Lyric_t, "sae"
3, 7674, Note_on_c, 1, 65, 100
3, 7733, Control_c, 1, 7, 99
3, 7743, Control_c, 1, 7, 100
3, 7744, Control_c, 1, 7, 65
3, 7746, Control_c, 1, 7, 101
3, 7747, Control_c, 1, 7, 67
3, 7750, Control_c, 1, 7, 70
3, 7753, Control_c, 1, 7, 102
3, 7754, Control_c, 1, 7, 73
3, 7756, Control_c, 1, 7, 103
3, 7757, Control_c, 1, 7, 76
3, 7760, Control_c, 1, 7, 79
3, 7764, Control_c, 1, 7, 82
3, 7767, Control_c, 1, 7, 85
3, 7770, Control_c, 1, 7, 87
3, 7770, Control_c, 1, 7, 104
3, 7773, Control_c, 1, 7, 106
3, 7774, Control_c, 1, 7, 90
3, 7777, Control_c, 1, 7, 93
3, 7780, Control_c, 1, 7, 96
3, 7783, Control_c, 1, 7, 107
3, 7784, Control_c, 1, 7, 99
3, 7787, Control_c, 1, 7, 102
3, 7790, Control_c, 1, 7, 105
3, 7796, Control_c, 1, 7, 109
3, 7971, Note_on_c, 1, 65, 0
3, 7974, Note_on_c, 1, 67, 100
3, 7997, Control_c, 1, 7, 100
3, 8000, Control_c, 1, 7, 115
3, 8004, Note_on_c, 1, 67, 0
3, 8004, Control_c, 1, 7, 99
3, 8004, Note_on_c, 1, 65, 100
3, 8007, Control_c, 1, 7, 98
3, 8010, Control_c, 1, 7, 97
3, 8016, Control_c, 1, 7, 113
3, 8017, Control_c, 1, 7, 93
3, 8024, Control_c, 1, 7, 92
3, 8026, Control_c, 1, 7, 112
3, 8027, Control_c, 1, 7, 91
3, 8034, Note_on_c, 1, 65, 0
3, 8034, Control_c, 1, 7, 90
3, 8034, Note_on_c, 1, 64, 100
3, 8036, Control_c, 1, 7, 109
3, 8037, Control_c, 1, 7, 89
3, 8043, Control_c, 1, 7, 108
3, 8044, Control_c, 1, 7, 88
3, 8047, Control_c, 1, 7, 87
3, 8050, Control_c, 1, 7, 86
3, 8050, Control_c, 1, 7, 106
3, 8056, Control_c, 1, 7, 105
3, 8057, Control_c, 1, 7, 85
3, 8060, Control_c, 1, 7, 84
3, 8067, Control_c, 1, 7, 83
3, 8070, Control_c, 1, 7, 82
3, 8076, Control_c, 1, 7, 103
3, 8077, Control_c, 1, 7, 81
3, 8080, Control_c, 1, 7, 80
3, 8083, Control_c, 1, 7, 101
3, 8084, Control_c, 1, 7, 79
3, 8090, Control_c, 1, 7, 78
3, 8093, Note_on_c, 1, 64, 0
3, 8094, Control_c, 1, 7, 77
3, 8094, Note_on_c, 1, 62, 100
3, 8096, Control_c, 1, 7, 100
3, 8100, Control_c, 1, 7, 76
3, 8103, Control_c, 1, 7, 99
3, 8104, Control_c, 1, 7, 75
3, 8110, Control_c, 1, 7, 98
3, 8110, Control_c, 1, 7, 74
3, 8113, Control_c, 1, 7, 97
3, 8114, Control_c, 1, 7, 73
3, 8117, Control_c, 1, 7, 72
3, 8124, Control_c, 1, 7, 71
3, 8126, Control_c, 1, 7, 96
3, 8127, Control_c, 1, 7, 70
3, 8130, Control_c, 1, 7, 95
3, 8133, Control_c, 1, 7, 93
3, 8134, Control_c, 1, 7, 69
3, 8137, Control_c, 1, 7, 68
3, 8140, Control_c, 1, 7, 67
3, 8146, Control_c, 1, 7, 92
3, 8150, Control_c, 1, 7, 91
3, 8153, Note_on_c, 1, 62, 0
3, 8154, Note_on_c, 1, 67, 100
3, 8280, Control_c, 1, 7, 105
3, 8287, Control_c, 1, 7, 62
3, 8290, Control_c, 1, 7, 64
3, 8293, Control_c, 1, 7, 100
3, 8294, Control_c, 1, 7, 66
3, 8297, Control_c, 1, 7, 69
3, 8300, Control_c, 1, 7, 71
3, 8303, Control_c, 1, 7, 101
3, 8304, Control_c, 1, 7, 74
3, 8307, Control_c, 1, 7, 76
3, 8310, Control_c, 1, 7, 79
3, 8310, Control_c, 1, 7, 102
3, 8314, Control_c, 1, 7, 81
3, 8317, Control_c, 1, 7, 84
3, 8320, Control_c, 1, 7, 86
3, 8320, Control_c, 1, 7, 103
3, 8323, Control_c, 1, 7, 104
3, 8324, Control_c, 1, 7, 89
3, 8326, Control_c, 1, 7, 105
3, 8327, Control_c, 1, 7, 91
3, 8330, Control_c, 1, 7, 94
3, 8333, Control_c, 1, 7, 106
3, 8334, Control_c, 1, 7, 96
3, 8337, Control_c, 1, 7, 100
3, 8350, Control_c, 1, 7, 101
3, 8353, Control_c, 1, 7, 107
3, 8356, Control_c, 1, 7, 108
3, 8360, Control_c, 1, 7, 109
3, 8364, Control_c, 1, 7, 102
3, 8366, Control_c, 1, 7, 110
3, 8377, Control_c, 1, 7, 103
3, 8387, Control_c, 1, 7, 104
3, 8396, Control_c, 1, 7, 111
3, 8400, Control_c, 1, 7, 105
3, 8406, Control_c, 1, 7, 112
3, 8410, Control_c, 1, 7, 113
3, 8414, Control_c, 1, 7, 106
3, 8420, Control_c, 1, 7, 114
3, 8424, Control_c, 1, 7, 107
3, 8437, Control_c, 1, 7, 108
3, 8450, Control_c, 1, 7, 109
3, 8451, Note_on_c, 1, 67, 0
3, 8454, Note_on_c, 1, 69, 100
3, 8464, Control_c, 1, 7, 110
3, 8466, Control_c, 1, 7, 115
3, 8474, Control_c, 1, 7, 111
3, 8484, Note_on_c, 1, 69, 0
3, 8484, Note_on_c, 1, 67, 100
3, 8486, Control_c, 1, 7, 116
3, 8487, Control_c, 1, 7, 112
3, 8500, Control_c, 1, 7, 117
3, 8500, Control_c, 1, 7, 113
3, 8510, Control_c, 1, 7, 114
3, 8514, Note_on_c, 1, 67, 0
3, 8514, Note_on_c, 1, 65, 100
3, 8517, Control_c, 1, 7, 113
3, 8520, Control_c, 1, 7, 112
3, 8524, Control_c, 1, 7, 111
3, 8526, Control_c, 1, 7, 117
3, 8527, Control_c, 1, 7, 110
3, 8530, Control_c, 1, 7, 109
3, 8534, Control_c, 1, 7, 108
3, 8537, Control_c, 1, 7, 107
3, 8540, Control_c, 1, 7, 106
3, 8544, Control_c, 1, 7, 105
3, 8547, Control_c, 1, 7, 104
3, 8550, Control_c, 1, 7, 103
3, 8557, Control_c, 1, 7, 102
3, 8560, Control_c, 1, 7, 116
3, 8560, Control_c, 1, 7, 101
3, 8564, Control_c, 1, 7, 100
3, 8566, Control_c, 1, 7, 115
3, 8567, Control_c, 1, 7, 99
3, 8570, Control_c, 1, 7, 98
3, 8573, Note_on_c, 1, 65, 0
3, 8574, Note_on_c, 1, 64, 100
3, 8574, Control_c, 1, 7, 97
3, 8577, Control_c, 1, 7, 96
3, 8580, Control_c, 1, 7, 95
3, 8584, Control_c, 1, 7, 94
3, 8586, Control_c, 1, 7, 114
3, 8587, Control_c, 1, 7, 93
3, 8590, Control_c, 1, 7, 92
3, 8593, Control_c, 1, 7, 113
3, 8597, Control_c, 1, 7, 91
3, 8600, Control_c, 1, 7, 90
3, 8600, Control_c, 1, 7, 112
3, 8603, Control_c, 1, 7, 111
3, 8604, Control_c, 1, 7, 89
3, 8607, Control_c, 1, 7, 88
3, 8610, Control_c, 1, 7, 87
3, 8610, Control_c, 1, 7, 110
3, 8614, Control_c, 1, 7, 86
3, 8617, Control_c, 1, 7, 85
3, 8620, Control_c, 1, 7, 109
3, 8620, Control_c, 1, 7, 84
3, 8624, Control_c, 1, 7, 81
3, 8630, Control_c, 1, 7, 80
3, 8633, Note_on_c, 1, 64, 0
3, 8634, Control_c, 1, 7, 79
3, 8634, Note_on_c, 1, 69, 100
3, 8636, Control_c, 1, 7, 108
3, 8640, Control_c, 1, 7, 78
3, 8644, Control_c, 1, 7, 77
3, 8647, Control_c, 1, 7, 76
3, 8653, Control_c, 1, 7, 107
3, 8654, Control_c, 1, 7, 75
3, 8657, Control_c, 1, 7, 74
3, 8663, Control_c, 1, 7, 104
3, 8664, Control_c, 1, 7, 73
3, 8667, Control_c, 1, 7, 72
3, 8670, Control_c, 1, 7, 71
3, 8677, Control_c, 1, 7, 70
3, 8680, Control_c, 1, 7, 69
3, 8683, Control_c, 1, 7, 103
3, 8686, Control_c, 1, 7, 102
3, 8687, Control_c, 1, 7, 68
3, 8690, Control_c, 1, 7, 100
3, 8690, Control_c, 1, 7, 67
3, 8694, Control_c, 1, 7, 66
3, 8724, Control_c, 1, 7, 81
3, 8727, Control_c, 1, 7, 82
3, 8730, Control_c, 1, 7, 83
3, 8734, Control_c, 1, 7, 85
3, 8737, Control_c, 1, 7, 86
3, 8740, Control_c, 1, 7, 88
3, 8744, Control_c, 1, 7, 89
3, 8747, Control_c, 1, 7, 91
3, 8750, Control_c, 1, 7, 92
3, 8754, Control_c, 1, 7, 94
3, 8757, Control_c, 1, 7, 95
3, 8760, Control_c, 1, 7, 97
3, 8764, Control_c, 1, 7, 98
3, 8767, Control_c, 1, 7, 99
3, 8770, Control_c, 1, 7, 101
3, 8774, Control_c, 1, 7, 102
3, 8777, Control_c, 1, 7, 104
3, 8780, Control_c, 1, 7, 105
3, 8784, Control_c, 1, 7, 107
3, 8787, Control_c, 1, 7, 108
3, 8790, Control_c, 1, 7, 110
3, 8794, Control_c, 1, 7, 111
3, 8797, Control_c, 1, 7, 113
3, 8800, Control_c, 1, 7, 114
3, 8820, Control_c, 1, 7, 115
3, 8837, Control_c, 1, 7, 116
3, 8857, Control_c, 1, 7, 117
3, 8874, Control_c, 1, 7, 118
3, 8894, Control_c, 1, 7, 119
3, 8910, Control_c, 1, 7, 120
3, 8930, Control_c, 1, 7, 121
3, 8931, Note_on_c, 1, 69, 0
3, 8934, Note_on_c, 1, 70, 100
3, 8947, Control_c, 1, 7, 122
3, 8964, Note_on_c, 1, 70, 0
3, 8964, Note_on_c, 1, 69, 100
3, 8967, Control_c, 1, 7, 123
3, 8984, Control_c, 1, 7, 124
3, 8987, Control_c, 1, 7, 123
3, 8990, Control_c, 1, 7, 122
3, 8994, Note_on_c, 1, 69, 0
3, 8994, Control_c, 1, 7, 121
3, 8994, Note_on_c, 1, 67, 100
3, 8997, Control_c, 1, 7, 120
3, 9000, Control_c, 1, 7, 119
3, 9004, Control_c, 1, 7, 118
3, 9007, Control_c, 1, 7, 117
3, 9010, Control_c, 1, 7, 116
3, 9014, Control_c, 1, 7, 115
3, 9017, Control_c, 1, 7, 114
3, 9020, Control_c, 1, 7, 113
3, 9024, Control_c, 1, 7, 112
3, 9027, Control_c, 1, 7, 111
3, 9030, Control_c, 1, 7, 110
3, 9034, Control_c, 1, 7, 109
3, 9037, Control_c, 1, 7, 108
3, 9040, Control_c, 1, 7, 107
3, 9044, Control_c, 1, 7, 106
3, 9047, Control_c, 1, 7, 105
3, 9050, Control_c, 1, 7, 104
3, 9053, Note_on_c, 1, 67, 0
3, 9054, Control_c, 1, 7, 103
3, 9054, Note_on_c, 1, 65, 100
3, 9057, Control_c, 1, 7, 102
3, 9060, Control_c, 1, 7, 101
3, 9064, Control_c, 1, 7, 100
3, 9067, Control_c, 1, 7, 99
3, 9070, Control_c, 1, 7, 98
3, 9074, Control_c, 1, 7, 97
3, 9077, Control_c, 1, 7, 96
3, 9080, Control_c, 1, 7, 95
3, 9084, Control_c, 1, 7, 94
3, 9087, Control_c, 1, 7, 93
3, 9090, Control_c, 1, 7, 92
3, 9094, Control_c, 1, 7, 91
3, 9097, Control_c, 1, 7, 90
3, 9100, Control_c, 1, 7, 89
3, 9104, Control_c, 1, 7, 88
3, 9107, Control_c, 1, 7, 87
3, 9113, Note_on_c, 1, 65, 0
3, 9114, Note_on_c, 1, 71, 100
3, 9203, Note_on_c, 1, 71, 0
3, 9204, Lyric_t, "cu-"
3, 9204, Note_on_c, 1, 71, 100
3, 9234, Note_on_c, 1, 71, 0
3, 9234, Lyric_t, "la,"
3, 9234, Note_on_c, 1, 72, 100
3, 9353, Note_on_c, 1, 72, 0
3, 9414, Lyric_t, "in"
3, 9414, Note_on_c, 1, 72, 100
3, 9473, Note_on_c, 1, 72, 0
3, 9474, Note_on_c, 1, 72, 100
3, 9474, Lyric_t, "sae-"
3, 9533, Note_on_c, 1, 72, 0
3, 9534, Note_on_c, 1, 71, 100
3, 9534, Lyric_t, "cu-"
3, 9593, Note_on_c, 1, 71, 0
3, 9594, Note_on_c, 1, 72, 100
3, 9594, Lyric_t, "la."
3, 9713, Note_on_c, 1, 72, 0
3, 11513, Control_c, 1, 7, 100
3, 11540, Control_c, 1, 7, 101
3, 11574, Lyric_t, "Si-"
3, 11574, Note_on_c, 1, 60, 100
3, 11606, Control_c, 1, 7, 102
3, 11613, Control_c, 1, 7, 103
3, 11620, Control_c, 1, 7, 104
3, 11630, Control_c, 1, 7, 105
3, 11633, Note_on_c, 1, 60, 0
3, 11634, Lyric_t, "cut"
3, 11634, Note_on_c, 1, 64, 100
3, 11646, Control_c, 1, 7, 107
3, 11660, Control_c, 1, 7, 108
3, 11680, Control_c, 1, 7, 109
3, 11693, Note_on_c, 1, 64, 0
3, 11694, Lyric_t, "lo-"
3, 11694, Note_on_c, 1, 67, 100
3, 11710, Control_c, 1, 7, 111
3, 11720, Control_c, 1, 7, 112
3, 11726, Control_c, 1, 7, 113
3, 11753, Note_on_c, 1, 67, 0
3, 11754, Lyric_t, "cu-"
3, 11754, Note_on_c, 1, 72, 100
3, 11773, Control_c, 1, 7, 114
3, 11793, Control_c, 1, 7, 115
3, 11803, Control_c, 1, 7, 116
3, 11810, Control_c, 1, 7, 117
3, 11826, Control_c, 1, 7, 118
3, 11836, Control_c, 1, 7, 118
3, 11837, Control_c, 1, 7, 105
3, 11840, Control_c, 1, 7, 104
3, 11844, Control_c, 1, 7, 102
3, 11846, Control_c, 1, 7, 116
3, 11873, Note_on_c, 1, 72, 0
3, 11874, Lyric_t, "tus"
3, 11874, Note_on_c, 1, 67, 100
3, 11900, Control_c, 1, 7, 114
3, 11906, Control_c, 1, 7, 113
3, 11916, Control_c, 1, 7, 112
3, 11920, Control_c, 1, 7, 111
3, 11926, Control_c, 1, 7, 110
3, 11930, Control_c, 1, 7, 109
3, 11936, Control_c, 1, 7, 107
3, 11950, Control_c, 1, 7, 106
3, 11956, Control_c, 1, 7, 105
3, 11960, Control_c, 1, 7, 104
3, 11966, Control_c, 1, 7, 103
3, 11993, Note_on_c, 1, 67, 0
3, 11994, Lyric_t, "est"
3, 11994, Note_on_c, 1, 65, 100
3, 12016, Control_c, 1, 7, 102
3, 12023, Control_c, 1, 7, 100
3, 12026, Control_c, 1, 7, 99
3, 12033, Control_c, 1, 7, 98
3, 12040, Control_c, 1, 7, 95
3, 12053, Note_on_c, 1, 65, 0
3, 12053, Control_c, 1, 7, 94
3, 12054, Lyric_t, "ad"
3, 12054, Note_on_c, 1, 65, 100
3, 12056, Control_c, 1, 7, 93
3, 12063, Control_c, 1, 7, 91
3, 12080, Control_c, 1, 7, 90
3, 12083, Control_c, 1, 7, 89
3, 12093, Control_c, 1, 7, 87
3, 12113, Note_on_c, 1, 65, 0
3, 12114, Lyric_t, "pa-"
3, 12114, Note_on_c, 1, 65, 100
3, 12124, Control_c, 1, 7, 80
3, 12147, Control_c, 1, 7, 79
3, 12170, Control_c, 1, 7, 78
3, 12173, Note_on_c, 1, 65, 0
3, 12174, Lyric_t, "tres"
3, 12174, Note_on_c, 1, 65, 100
3, 12194, Control_c, 1, 7, 77
3, 12217, Control_c, 1, 7, 76
3, 12233, Note_on_c, 1, 65, 0
3, 12234, Lyric_t, "no-"
3, 12234, Note_on_c, 1, 65, 100
3, 12244, Control_c, 1, 7, 75
3, 12267, Control_c, 1, 7, 74
3, 12290, Control_c, 1, 7, 73
3, 12314, Control_c, 1, 7, 72
3, 12337, Control_c, 1, 7, 71
3, 12353, Note_on_c, 1, 65, 0
3, 12354, Lyric_t, "stros"
3, 12354, Note_on_c, 1, 64, 100
3, 12360, Control_c, 1, 7, 70
3, 12384, Control_c, 1, 7, 69
3, 12407, Control_c, 1, 7, 68
3, 12473, Note_on_c, 1, 64, 0
3, 12474, Lyric_t, "A-"
3, 12474, Note_on_c, 1, 60, 100
3, 12563, Note_on_c, 1, 60, 0
3, 12564, Lyric_t, "bra-"
3, 12564, Note_on_c, 1, 60, 100
3, 12594, Note_on_c, 1, 60, 0
3, 12594, Lyric_t, "ham,"
3, 12594, Note_on_c, 1, 60, 100
3, 12653, Note_on_c, 1, 60, 0
3, 12654, Lyric_t, "et"
3, 12654, Note_on_c, 1, 60, 100
3, 12713, Note_on_c, 1, 60, 0
3, 12714, Lyric_t, "se-"
3, 12714, Note_on_c, 1, 60, 100
3, 12773, Note_on_c, 1, 60, 0
3, 12774, Lyric_t, "mi-"
3, 12774, Note_on_c, 1, 60, 100
3, 12804, Note_on_c, 1, 60, 0
3, 12804, Lyric_t, "ni"
3, 12804, Note_on_c, 1, 60, 100
3, 12834, Note_on_c, 1, 60, 0
3, 12834, Lyric_t, "e-"
3, 12834, Note_on_c, 1, 60, 100
3, 12893, Note_on_c, 1, 60, 0
3, 12894, Lyric_t, "jus"
3, 12894, Note_on_c, 1, 62, 100
3, 12924, Note_on_c, 1, 62, 0
3, 12924, Lyric_t, "in"
3, 12924, Note_on_c, 1, 64, 100
3, 12946, Control_c, 1, 7, 98
3, 12954, Note_on_c, 1, 64, 0
3, 12954, Lyric_t, "sae"
3, 12954, Note_on_c, 1, 65, 100
3, 12980, Control_c, 1, 7, 99
3, 12983, Control_c, 1, 7, 101
3, 12996, Control_c, 1, 7, 102
3, 13020, Control_c, 1, 7, 103
3, 13023, Control_c, 1, 7, 104
3, 13030, Control_c, 1, 7, 105
3, 13036, Control_c, 1, 7, 106
3, 13060, Control_c, 1, 7, 107
3, 13063, Control_c, 1, 7, 108
3, 13076, Control_c, 1, 7, 109
3, 13080, Control_c, 1, 7, 110
3, 13096, Control_c, 1, 7, 111
3, 13100, Control_c, 1, 7, 112
3, 13110, Control_c, 1, 7, 113
3, 13113, Control_c, 1, 7, 114
3, 13114, Control_c, 1, 7, 114
3, 13124, Control_c, 1, 7, 115
3, 13134, Control_c, 1, 7, 116
3, 13140, Control_c, 1, 7, 117
3, 13150, Control_c, 1, 7, 118
3, 13160, Control_c, 1, 7, 119
3, 13170, Control_c, 1, 7, 120
3, 13177, Control_c, 1, 7, 121
3, 13187, Control_c, 1, 7, 122
3, 13197, Control_c, 1, 7, 123
3, 13204, Control_c, 1, 7, 124
3, 13251, Note_on_c, 1, 65, 0
3, 13254, Note_on_c, 1, 67, 100
3, 13284, Note_on_c, 1, 67, 0
3, 13284, Note_on_c, 1, 65, 100
3, 13287, Control_c, 1, 7, 122
3, 13290, Control_c, 1, 7, 120
3, 13297, Control_c, 1, 7, 119
3, 13300, Control_c, 1, 7, 118
3, 13307, Control_c, 1, 7, 117
3, 13310, Control_c, 1, 7, 118
3, 13314, Note_on_c, 1, 65, 0
3, 13314, Note_on_c, 1, 64, 100
3, 13346, Control_c, 1, 7, 115
3, 13370, Control_c, 1, 7, 114
3, 13373, Note_on_c, 1, 64, 0
3, 13373, Control_c, 1, 7, 113
3, 13374, Note_on_c, 1, 62, 100
3, 13376, Control_c, 1, 7, 111
3, 13386, Control_c, 1, 7, 109
3, 13393, Control_c, 1, 7, 108
3, 13403, Control_c, 1, 7, 107
3, 13433, Note_on_c, 1, 62, 0
3, 13434, Note_on_c, 1, 67, 100
3, 13436, Control_c, 1, 7, 106
3, 13443, Control_c, 1, 7, 105
3, 13537, Control_c, 1, 7, 96
3, 13540, Control_c, 1, 7, 98
3, 13544, Control_c, 1, 7, 100
3, 13547, Control_c, 1, 7, 102
3, 13550, Control_c, 1, 7, 104
3, 13554, Control_c, 1, 7, 107
3, 13564, Control_c, 1, 7, 107
3, 13574, Control_c, 1, 7, 108
3, 13580, Control_c, 1, 7, 109
3, 13590, Control_c, 1, 7, 110
3, 13597, Control_c, 1, 7, 111
3, 13604, Control_c, 1, 7, 112
3, 13614, Control_c, 1, 7, 113
3, 13620, Control_c, 1, 7, 114
3, 13627, Control_c, 1, 7, 115
3, 13637, Control_c, 1, 7, 116
3, 13644, Control_c, 1, 7, 117
3, 13654, Control_c, 1, 7, 118
3, 13660, Control_c, 1, 7, 119
3, 13667, Control_c, 1, 7, 120
3, 13677, Control_c, 1, 7, 121
3, 13684, Control_c, 1, 7, 122
3, 13690, Control_c, 1, 7, 123
3, 13700, Control_c, 1, 7, 124
3, 13707, Control_c, 1, 7, 125
3, 13714, Control_c, 1, 7, 126
3, 13731, Note_on_c, 1, 67, 0
3, 13734, Note_on_c, 1, 69, 100
3, 13760, Control_c, 1, 7, 126
3, 13764, Note_on_c, 1, 69, 0
3, 13764, Note_on_c, 1, 67, 100
3, 13767, Control_c, 1, 7, 125
3, 13770, Control_c, 1, 7, 124
3, 13774, Control_c, 1, 7, 123
3, 13777, Control_c, 1, 7, 122
3, 13780, Control_c, 1, 7, 121
3, 13784, Control_c, 1, 7, 120
3, 13787, Control_c, 1, 7, 119
3, 13790, Control_c, 1, 7, 118
3, 13794, Note_on_c, 1, 67, 0
3, 13794, Control_c, 1, 7, 117
3, 13794, Note_on_c, 1, 65, 100
3, 13797, Control_c, 1, 7, 116
3, 13800, Control_c, 1, 7, 115
3, 13804, Control_c, 1, 7, 114
3, 13807, Control_c, 1, 7, 113
3, 13810, Control_c, 1, 7, 112
3, 13814, Control_c, 1, 7, 111
3, 13820, Control_c, 1, 7, 110
3, 13824, Control_c, 1, 7, 109
3, 13827, Control_c, 1, 7, 108
3, 13830, Control_c, 1, 7, 107
3, 13834, Control_c, 1, 7, 106
3, 13837, Control_c, 1, 7, 105
3, 13840, Control_c, 1, 7, 104
3, 13844, Control_c, 1, 7, 103
3, 13847, Control_c, 1, 7, 102
3, 13850, Control_c, 1, 7, 101
3, 13853, Note_on_c, 1, 65, 0
3, 13854, Control_c, 1, 7, 100
3, 13854, Note_on_c, 1, 64, 100
3, 13857, Control_c, 1, 7, 99
3, 13860, Control_c, 1, 7, 98
3, 13864, Control_c, 1, 7, 97
3, 13867, Control_c, 1, 7, 96
3, 13877, Control_c, 1, 7, 92
3, 13884, Control_c, 1, 7, 91
3, 13887, Control_c, 1, 7, 90
3, 13894, Control_c, 1, 7, 89
3, 13897, Control_c, 1, 7, 88
3, 13904, Control_c, 1, 7, 87
3, 13907, Control_c, 1, 7, 86
3, 13913, Note_on_c, 1, 64, 0
3, 13914, Control_c, 1, 7, 85
3, 13914, Note_on_c, 1, 69, 100
3, 13917, Control_c, 1, 7, 84
3, 13924, Control_c, 1, 7, 83
3, 13927, Control_c, 1, 7, 82
3, 13967, Control_c, 1, 7, 81
3, 13970, Control_c, 1, 7, 82
3, 13974, Control_c, 1, 7, 83
3, 13977, Control_c, 1, 7, 85
3, 13980, Control_c, 1, 7, 86
3, 13984, Control_c, 1, 7, 88
3, 13987, Control_c, 1, 7, 89
3, 13990, Control_c, 1, 7, 91
3, 13994, Control_c, 1, 7, 92
3, 13997, Control_c, 1, 7, 94
3, 14000, Control_c, 1, 7, 95
3, 14004, Control_c, 1, 7, 97
3, 14007, Control_c, 1, 7, 98
3, 14010, Control_c, 1, 7, 100
3, 14014, Control_c, 1, 7, 101
3, 14017, Control_c, 1, 7, 103
3, 14020, Control_c, 1, 7, 104
3, 14024, Control_c, 1, 7, 106
3, 14027, Control_c, 1, 7, 107
3, 14030, Control_c, 1, 7, 109
3, 14037, Control_c, 1, 7, 109
3, 14060, Control_c, 1, 7, 110
3, 14080, Control_c, 1, 7, 111
3, 14104, Control_c, 1, 7, 112
3, 14124, Control_c, 1, 7, 113
3, 14147, Control_c, 1, 7, 114
3, 14167, Control_c, 1, 7, 115
3, 14190, Control_c, 1, 7, 116
3, 14210, Control_c, 1, 7, 117
3, 14211, Note_on_c, 1, 69, 0
3, 14214, Note_on_c, 1, 70, 100
3, 14234, Control_c, 1, 7, 114
3, 14240, Control_c, 1, 7, 113
3, 14244, Note_on_c, 1, 70, 0
3, 14244, Control_c, 1, 7, 112
3, 14244, Note_on_c, 1, 69, 100
3, 14250, Control_c, 1, 7, 111
3, 14254, Control_c, 1, 7, 110
3, 14260, Control_c, 1, 7, 109
3, 14264, Control_c, 1, 7, 108
3, 14270, Control_c, 1, 7, 107
3, 14274, Note_on_c, 1, 69, 0
3, 14274, Control_c, 1, 7, 106
3, 14274, Note_on_c, 1, 67, 100
3, 14280, Control_c, 1, 7, 105
3, 14284, Control_c, 1, 7, 104
3, 14290, Control_c, 1, 7, 103
3, 14294, Control_c, 1, 7, 102
3, 14300, Control_c, 1, 7, 101
3, 14304, Control_c, 1, 7, 100
3, 14310, Control_c, 1, 7, 99
3, 14314, Control_c, 1, 7, 98
3, 14320, Control_c, 1, 7, 97
3, 14324, Control_c, 1, 7, 96
3, 14333, Note_on_c, 1, 67, 0
3, 14334, Note_on_c, 1, 65, 100
3, 14344, Control_c, 1, 7, 96
3, 14357, Control_c, 1, 7, 97
3, 14367, Control_c, 1, 7, 98
3, 14377, Control_c, 1, 7, 99
3, 14387, Control_c, 1, 7, 100
3, 14393, Note_on_c, 1, 65, 0
3, 14394, Note_on_c, 1, 70, 100
3, 14397, Control_c, 1, 7, 101
3, 14407, Control_c, 1, 7, 102
3, 14417, Control_c, 1, 7, 103
3, 14430, Control_c, 1, 7, 104
3, 14440, Control_c, 1, 7, 105
3, 14450, Control_c, 1, 7, 106
3, 14460, Control_c, 1, 7, 107
3, 14470, Control_c, 1, 7, 108
3, 14480, Control_c, 1, 7, 109
3, 14490, Control_c, 1, 7, 110
3, 14500, Control_c, 1, 7, 111
3, 14691, Note_on_c, 1, 70, 0
3, 14694, Note_on_c, 1, 69, 100
3, 14724, Note_on_c, 1, 69, 0
3, 14724, Note_on_c, 1, 67, 100
3, 14754, Note_on_c, 1, 67, 0
3, 14754, Note_on_c, 1, 69, 100
3, 14880, Control_c, 1, 7, 120
3, 14920, Control_c, 1, 7, 119
3, 14932, Note_on_c, 1, 69, 0
3, 14934, Note_on_c, 1, 67, 100
3, 14940, Control_c, 1, 7, 118
3, 14950, Control_c, 1, 7, 117
3, 14956, Control_c, 1, 7, 116
3, 14963, Control_c, 1, 7, 115
3, 14964, Note_on_c, 1, 67, 0
3, 14964, Note_on_c, 1, 65, 100
3, 14976, Control_c, 1, 7, 114
3, 14986, Control_c, 1, 7, 113
3, 14993, Control_c, 1, 7, 111
3, 14994, Note_on_c, 1, 65, 0
3, 14994, Note_on_c, 1, 67, 100
3, 15046, Control_c, 1, 7, 110
3, 15060, Control_c, 1, 7, 109
3, 15172, Note_on_c, 1, 67, 0
3, 15174, Note_on_c, 1, 65, 100
3, 15180, Control_c, 1, 7, 107
3, 15186, Control_c, 1, 7, 106
3, 15190, Control_c, 1, 7, 104
3, 15193, Control_c, 1, 7, 102
3, 15196, Control_c, 1, 7, 101
3, 15200, Control_c, 1, 7, 100
3, 15204, Note_on_c, 1, 65, 0
3, 15204, Note_on_c, 1, 64, 100
3, 15206, Control_c, 1, 7, 99
3, 15234, Note_on_c, 1, 64, 0
3, 15234, Note_on_c, 1, 65, 100
3, 15353, Note_on_c, 1, 65, 0
3, 15354, Note_on_c, 1, 64, 100
3, 15443, Note_on_c, 1, 64, 0
3, 15444, Note_on_c, 1, 64, 100
3, 15444, Lyric_t, "cu-"
3, 15474, Note_on_c, 1, 64, 0
3, 15474, Note_on_c, 1, 64, 100
3, 15474, Lyric_t, "la,"
3, 15593, Note_on_c, 1, 64, 0
3, 15830, Control_c, 1, 7, 68
3, 15834, Note_on_c, 1, 64, 100
3, 15834, Lyric_t, "A-"
3, 15923, Note_on_c, 1, 64, 0
3, 15924, Lyric_t, "bra-"
3, 15924, Note_on_c, 1, 64, 100
3, 15954, Note_on_c, 1, 64, 0
3, 15954, Lyric_t, "ham,"
3, 15954, Note_on_c, 1, 64, 100
3, 16073, Note_on_c, 1, 64, 0
3, 16554, Lyric_t, "A-"
3, 16554, Note_on_c, 1, 64, 100
3, 16643, Note_on_c, 1, 64, 0
3, 16644, Lyric_t, "bra-"
3, 16644, Note_on_c, 1, 64, 100
3, 16674, Note_on_c, 1, 64, 0
3, 16674, Note_on_c, 1, 64, 100
3, 16674, Lyric_t, "ham,"
3, 16730, Control_c, 1, 7, 95
3, 16733, Note_on_c, 1, 64, 0
3, 16734, Note_on_c, 1, 64, 100
3, 16734, Lyric_t, "et"
3, 16793, Note_on_c, 1, 64, 0
3, 16794, Lyric_t, "se-"
3, 16794, Note_on_c, 1, 67, 100
3, 16913, Note_on_c, 1, 67, 0
3, 16914, Lyric_t, "mi-"
3, 16914, Note_on_c, 1, 67, 100
3, 16923, Control_c, 1, 7, 97
3, 16940, Control_c, 1, 7, 98
3, 16956, Control_c, 1, 7, 99
3, 16960, Control_c, 1, 7, 100
3, 16973, Note_on_c, 1, 67, 0
3, 16974, Lyric_t, "ni"
3, 16974, Note_on_c, 1, 67, 100
3, 16976, Control_c, 1, 7, 101
3, 16990, Control_c, 1, 7, 102
3, 17023, Control_c, 1, 7, 104
3, 17033, Note_on_c, 1, 67, 0
3, 17034, Note_on_c, 1, 67, 100
3, 17034, Lyric_t, "e-"
3, 17056, Control_c, 1, 7, 105
3, 17070, Control_c, 1, 7, 106
3, 17093, Note_on_c, 1, 67, 0
3, 17094, Note_on_c, 1, 65, 100
3, 17100, Control_c, 1, 7, 107
3, 17113, Control_c, 1, 7, 108
3, 17124, Note_on_c, 1, 65, 0
3, 17124, Note_on_c, 1, 64, 100
3, 17126, Control_c, 1, 7, 110
3, 17146, Control_c, 1, 7, 111
3, 17153, Control_c, 1, 7, 113
3, 17154, Note_on_c, 1, 64, 0
3, 17154, Lyric_t, "jus"
3, 17154, Note_on_c, 1, 65, 100
3, 17166, Control_c, 1, 7, 114
3, 17206, Control_c, 1, 7, 115
3, 17213, Note_on_c, 1, 65, 0
3, 17214, Note_on_c, 1, 67, 100
3, 17214, Lyric_t, "in"
3, 17223, Control_c, 1, 7, 116
3, 17233, Control_c, 1, 7, 117
3, 17240, Control_c, 1, 7, 117
3, 17260, Control_c, 1, 7, 99
3, 17270, Control_c, 1, 7, 98
3, 17273, Note_on_c, 1, 67, 0
3, 17274, Note_on_c, 1, 65, 100
3, 17274, Lyric_t, "sae-"
3, 17280, Control_c, 1, 7, 97
3, 17290, Control_c, 1, 7, 96
3, 17300, Control_c, 1, 7, 95
3, 17310, Control_c, 1, 7, 94
3, 17320, Control_c, 1, 7, 93
3, 17330, Control_c, 1, 7, 92
3, 17340, Control_c, 1, 7, 91
3, 17347, Control_c, 1, 7, 90
3, 17357, Control_c, 1, 7, 89
3, 17367, Control_c, 1, 7, 88
3, 17377, Control_c, 1, 7, 87
3, 17387, Control_c, 1, 7, 86
3, 17393, Note_on_c, 1, 65, 0
3, 17394, Note_on_c, 1, 64, 100
3, 17397, Control_c, 1, 7, 85
3, 17407, Control_c, 1, 7, 84
3, 17417, Control_c, 1, 7, 83
3, 17427, Control_c, 1, 7, 82
3, 17434, Control_c, 1, 7, 81
3, 17453, Note_on_c, 1, 64, 0
3, 17454, Note_on_c, 1, 65, 100
3, 17454, Lyric_t, "cu-"
3, 17513, Note_on_c, 1, 65, 0
3, 17514, Note_on_c, 1, 65, 100
3, 17514, Lyric_t, "la."
3, 17574, Control_c, 1, 7, 79
3, 17577, Control_c, 1, 7, 80
3, 17580, Control_c, 1, 7, 82
3, 17584, Control_c, 1, 7, 84
3, 17587, Control_c, 1, 7, 86
3, 17590, Control_c, 1, 7, 87
3, 17594, Control_c, 1, 7, 89
3, 17597, Control_c, 1, 7, 91
3, 17600, Control_c, 1, 7, 93
3, 17604, Control_c, 1, 7, 95
3, 17607, Control_c, 1, 7, 96
3, 17610, Control_c, 1, 7, 98
3, 17614, Control_c, 1, 7, 100
3, 17617, Control_c, 1, 7, 102
3, 17620, Control_c, 1, 7, 103
3, 17624, Control_c, 1, 7, 105
3, 17627, Control_c, 1, 7, 107
3, 17630, Control_c, 1, 7, 109
3, 17634, Control_c, 1, 7, 111
3, 17637, Control_c, 1, 7, 112
3, 17640, Control_c, 1, 7, 114
3, 17644, Control_c, 1, 7, 116
3, 17647, Control_c, 1, 7, 118
3, 17650, Control_c, 1, 7, 119
3, 17654, Control_c, 1, 7, 121
3, 17657, Control_c, 1, 7, 123
3, 17660, Control_c, 1, 7, 125
3, 17664, Control_c, 1, 7, 127
3, 17753, Note_on_c, 1, 65, 0
3, 17753, End_track
4, 0, Start_track
4, 0, MIDI_port, 0
4, 0, Title_t, "Bassi"
4, 0, Program_c, 2, 52
4, 0, Control_c, 2, 10, 70
4, 6257, Control_c, 2, 1, 5
4, 6274, Control_c, 2, 1, 0
4, 6540, Control_c, 2, 5, 8
4, 6544, Control_c, 2, 5, 7
4, 6544, Control_c, 2, 2, 2
4, 6557, Control_c, 2, 5, 3
4, 6560, Control_c, 2, 11, 8
4, 6590, Control_c, 2, 7, 86
4, 6590, Control_c, 2, 5, 0
4, 6597, Control_c, 2, 11, 6
4, 6600, Control_c, 2, 7, 88
4, 6604, Control_c, 2, 66, 5
4, 6604, Control_c, 2, 11, 5
4, 6607, Control_c, 2, 11, 4
4, 6610, Control_c, 2, 66, 3
4, 6614, Control_c, 2, 65, 0
4, 6614, Control_c, 2, 7, 92
4, 6624, Control_c, 2, 11, 2
4, 6627, Control_c, 2, 11, 1
4, 6630, Control_c, 2, 64, 6
4, 6630, Control_c, 2, 11, 0
4, 6644, Control_c, 2, 66, 0
4, 6647, Control_c, 2, 64, 3
4, 6647, Control_c, 2, 7, 102
4, 6650, Control_c, 2, 64, 2
4, 6660, Control_c, 2, 7, 105
4, 6664, Control_c, 2, 7, 108
4, 6670, Control_c, 2, 7, 111
4, 6677, Control_c, 2, 7, 113
4, 6687, Control_c, 2, 7, 115
4, 6690, Control_c, 2, 7, 117
4, 6694, Control_c, 2, 7, 119
4, 6700, Control_c, 2, 7, 123
4, 7197, Control_c, 2, 2, 95
4, 7264, Control_c, 2, 2, 92
4, 7297, Control_c, 2, 2, 91
4, 7304, Control_c, 2, 2, 89
4, 7310, Control_c, 2, 2, 87
4, 7424, Control_c, 2, 7, 90
4, 7427, Control_c, 2, 7, 117
4, 7434, Lyric_t, "A-"
4, 7434, Note_on_c, 2, 53, 100
4, 7437, Control_c, 2, 11, 74
4, 7480, Control_c, 2, 2, 89
4, 7494, Control_c, 2, 2, 92
4, 7497, Control_c, 2, 2, 93
4, 7500, Control_c, 2, 2, 96
4, 7507, Control_c, 2, 2, 100
4, 7514, Control_c, 2, 2, 101
4, 7520, Control_c, 2, 2, 102
4, 7523, Note_on_c, 2, 53, 0
4, 7524, Lyric_t, "bra-"
4, 7524, Note_on_c, 2, 53, 100
4, 7527, Control_c, 2, 2, 105
4, 7530, Control_c, 2, 11, 75
4, 7534, Control_c, 2, 2, 106
4, 7544, Control_c, 2, 11, 76
4, 7547, Control_c, 2, 2, 109
4, 7554, Note_on_c, 2, 53, 0
4, 7554, Lyric_t, "ham,"
4, 7554, Note_on_c, 2, 53, 100
4, 7557, Control_c, 2, 2, 110
4, 7564, Control_c, 2, 2, 113
4, 7574, Control_c, 2, 2, 115
4, 7580, Control_c, 2, 2, 117
4, 7587, Control_c, 2, 2, 118
4, 7590, Control_c, 2, 2, 119
4, 7594, Control_c, 2, 2, 121
4, 7604, Control_c, 2, 2, 122
4, 7610, Control_c, 2, 2, 124
4, 7613, Note_on_c, 2, 53, 0
4, 7614, Control_c, 2, 2, 125
4, 7614, Lyric_t, "et"
4, 7614, Note_on_c, 2, 53, 100
4, 7620, Control_c, 2, 2, 127
4, 7637, Control_c, 2, 11, 78
4, 7660, Control_c, 2, 7, 100
4, 7673, Note_on_c, 2, 53, 0
4, 7674, Lyric_t, "se-"
4, 7674, Note_on_c, 2, 53, 100
4, 7684, Control_c, 2, 11, 80
4, 7707, Control_c, 2, 11, 81
4, 7710, Control_c, 2, 11, 83
4, 7720, Control_c, 2, 11, 84
4, 7733, Note_on_c, 2, 53, 0
4, 7734, Lyric_t, "mi-"
4, 7734, Note_on_c, 2, 53, 100
4, 7764, Note_on_c, 2, 53, 0
4, 7764, Lyric_t, "ni"
4, 7764, Note_on_c, 2, 53, 100
4, 7767, Control_c, 2, 7, 95
4, 7774, Control_c, 2, 11, 86
4, 7794, Note_on_c, 2, 53, 0
4, 7794, Lyric_t, "e-"
4, 7794, Note_on_c, 2, 53, 100
4, 7800, Control_c, 2, 65, 61
4, 7804, Control_c, 2, 65, 62
4, 7807, Control_c, 2, 65, 63
4, 7810, Control_c, 2, 65, 65
4, 7814, Control_c, 2, 65, 66
4, 7814, Control_c, 2, 11, 88
4, 7817, Control_c, 2, 65, 68
4, 7820, Control_c, 2, 65, 69
4, 7824, Control_c, 2, 65, 70
4, 7824, Control_c, 2, 7, 93
4, 7827, Control_c, 2, 65, 72
4, 7830, Control_c, 2, 65, 73
4, 7834, Control_c, 2, 65, 75
4, 7837, Control_c, 2, 65, 76
4, 7837, Control_c, 2, 7, 89
4, 7840, Control_c, 2, 65, 77
4, 7840, Control_c, 2, 11, 89
4, 7843, Control_c, 2, 7, 90
4, 7844, Control_c, 2, 11, 90
4, 7844, Control_c, 2, 65, 79
4, 7847, Control_c, 2, 7, 84
4, 7847, Control_c, 2, 65, 80
4, 7850, Control_c, 2, 65, 82
4, 7850, Control_c, 2, 7, 83
4, 7853, Note_on_c, 2, 53, 0
4, 7854, Control_c, 2, 65, 83
4, 7854, Lyric_t, "jus"
4, 7854, Note_on_c, 2, 55, 100
4, 7854, Control_c, 2, 7, 81
4, 7856, Control_c, 2, 7, 88
4, 7857, Control_c, 2, 65, 85
4, 7860, Control_c, 2, 65, 86
4, 7860, Control_c, 2, 7, 80
4, 7864, Control_c, 2, 11, 91
4, 7864, Control_c, 2, 65, 87
4, 7866, Control_c, 2, 7, 87
4, 7867, Control_c, 2, 11, 92
4, 7867, Control_c, 2, 65, 89
4, 7867, Control_c, 2, 7, 77
4, 7870, Control_c, 2, 65, 90
4, 7874, Control_c, 2, 7, 73
4, 7874, Control_c, 2, 65, 92
4, 7877, Control_c, 2, 65, 93
4, 7880, Control_c, 2, 65, 94
4, 7880, Control_c, 2, 92, 63
4, 7880, Control_c, 2, 7, 71
4, 7884, Note_on_c, 2, 55, 0
4, 7884, Control_c, 2, 7, 69
4, 7884, Control_c, 2, 65, 96
4, 7884, Lyric_t, "in"
4, 7884, Note_on_c, 2, 57, 100
4, 7887, Control_c, 2, 7, 68
4, 7887, Control_c, 2, 65, 97
4, 7890, Control_c, 2, 65, 99
4, 7890, Control_c, 2, 7, 65
4, 7894, Control_c, 2, 65, 100
4, 7894, Control_c, 2, 92, 66
4, 7897, Control_c, 2, 92, 67
4, 7897, Control_c, 2, 65, 101
4, 7897, Control_c, 2, 11, 96
4, 7897, Control_c, 2, 7, 64
4, 7900, Control_c, 2, 92, 69
4, 7900, Control_c, 2, 7, 62
4, 7900, Control_c, 2, 65, 103
4, 7904, Control_c, 2, 65, 104
4, 7904, Control_c, 2, 92, 70
4, 7907, Control_c, 2, 92, 71
4, 7907, Control_c, 2, 11, 97
4, 7907, Control_c, 2, 65, 106
4, 7910, Control_c, 2, 65, 107
4, 7914, Note_on_c, 2, 57, 0
4, 7914, Note_on_c, 2, 58, 100
4, 7914, Lyric_t, "sae"
4, 7914, Control_c, 2, 65, 109
4, 7914, Control_c, 2, 92, 73
4, 7917, Control_c, 2, 65, 110
4, 7917, Control_c, 2, 92, 74
4, 7917, Control_c, 2, 11, 100
4, 7920, Control_c, 2, 92, 75
4, 7920, Control_c, 2, 65, 111
4, 7920, Control_c, 2, 2, 125
4, 7924, Control_c, 2, 65, 113
4, 7924, Control_c, 2, 11, 102
4, 7926, Control_c, 2, 7, 86
4, 7927, Control_c, 2, 92, 77
4, 7927, Control_c, 2, 65, 114
4, 7927, Control_c, 2, 11, 104
4, 7930, Control_c, 2, 65, 116
4, 7930, Control_c, 2, 2, 124
4, 7930, Control_c, 2, 92, 78
4, 7933, Control_c, 2, 7, 85
4, 7934, Control_c, 2, 65, 117
4, 7934, Control_c, 2, 92, 79
4, 7937, Control_c, 2, 65, 118
4, 7937, Control_c, 2, 11, 112
4, 7940, Control_c, 2, 65, 120
4, 7940, Control_c, 2, 92, 81
4, 7940, Control_c, 2, 11, 113
4, 7944, Control_c, 2, 65, 121
4, 7944, Control_c, 2, 92, 83
4, 7944, Control_c, 2, 2, 123
4, 7946, Control_c, 2, 7, 83
4, 7947, Control_c, 2, 65, 123
4, 7947, Control_c, 2, 11, 115
4, 7947, Control_c, 2, 92, 86
4, 7950, Control_c, 2, 65, 124
4, 7950, Control_c, 2, 11, 116
4, 7950, Control_c, 2, 92, 88
4, 7954, Control_c, 2, 92, 93
4, 7954, Control_c, 2, 2, 119
4, 7954, Control_c, 2, 65, 126
4, 7957, Control_c, 2, 11, 118
4, 7957, Control_c, 2, 92, 95
4, 7960, Control_c, 2, 92, 98
4, 7960, Control_c, 2, 7, 65
4, 7964, Control_c, 2, 7, 67
4, 7964, Control_c, 2, 11, 120
4, 7964, Control_c, 2, 92, 99
4, 7967, Control_c, 2, 92, 101
4, 7967, Control_c, 2, 2, 116
4, 7967, Control_c, 2, 7, 70
4, 7970, Control_c, 2, 92, 102
4, 7970, Control_c, 2, 7, 72
4, 7974, Control_c, 2, 92, 104
4, 7974, Control_c, 2, 7, 75
4, 7977, Control_c, 2, 7, 78
4, 7977, Control_c, 2, 11, 122
4, 7977, Control_c, 2, 92, 105
4, 7977, Control_c, 2, 2, 112
4, 7980, Control_c, 2, 92, 106
4, 7980, Control_c, 2, 7, 80
4, 7980, Control_c, 2, 2, 111
4, 7984, Control_c, 2, 7, 83
4, 7984, Control_c, 2, 11, 123
4, 7984, Control_c, 2, 92, 107
4, 7987, Control_c, 2, 7, 86
4, 7987, Control_c, 2, 2, 108
4, 7987, Control_c, 2, 92, 110
4, 7990, Control_c, 2, 11, 124
4, 7990, Control_c, 2, 7, 88
4, 7994, Control_c, 2, 7, 91
4, 7994, Control_c, 2, 2, 106
4, 7994, Control_c, 2, 92, 111
4, 7997, Control_c, 2, 92, 113
4, 7997, Control_c, 2, 2, 104
4, 7997, Control_c, 2, 7, 93
4, 8000, Control_c, 2, 92, 115
4, 8000, Control_c, 2, 7, 96
4, 8000, Control_c, 2, 11, 126
4, 8004, Control_c, 2, 92, 118
4, 8004, Control_c, 2, 7, 99
4, 8004, Control_c, 2, 2, 100
4, 8004, Control_c, 2, 11, 127
4, 8007, Control_c, 2, 92, 120
4, 8007, Control_c, 2, 7, 101
4, 8010, Control_c, 2, 7, 104
4, 8010, Control_c, 2, 2, 98
4, 8010, Control_c, 2, 92, 123
4, 8014, Control_c, 2, 92, 127
4, 8014, Control_c, 2, 7, 107
4, 8017, Control_c, 2, 7, 80
4, 8024, Control_c, 2, 7, 82
4, 8024, Control_c, 2, 2, 86
4, 8027, Control_c, 2, 7, 111
4, 8034, Control_c, 2, 2, 82
4, 8037, Control_c, 2, 7, 112
4, 8044, Control_c, 2, 2, 80
4, 8044, Control_c, 2, 7, 113
4, 8047, Control_c, 2, 2, 78
4, 8050, Control_c, 2, 2, 76
4, 8054, Control_c, 2, 7, 114
4, 8060, Control_c, 2, 2, 74
4, 8060, Control_c, 2, 7, 115
4, 8064, Control_c, 2, 2, 70
4, 8070, Control_c, 2, 7, 116
4, 8074, Control_c, 2, 2, 68
4, 8077, Control_c, 2, 2, 66
4, 8077, Control_c, 2, 7, 117
4, 8084, Control_c, 2, 2, 62
4, 8084, Control_c, 2, 7, 118
4, 8086, Control_c, 2, 7, 120
4, 8087, Control_c, 2, 2, 61
4, 8094, Control_c, 2, 7, 119
4, 8094, Control_c, 2, 2, 60
4, 8100, Control_c, 2, 7, 120
4, 8104, Control_c, 2, 2, 58
4, 8110, Control_c, 2, 7, 121
4, 8117, Control_c, 2, 7, 122
4, 8124, Control_c, 2, 7, 123
4, 8130, Control_c, 2, 7, 124
4, 8130, Control_c, 2, 65, 126
4, 8134, Control_c, 2, 65, 125
4, 8137, Control_c, 2, 2, 54
4, 8137, Control_c, 2, 65, 124
4, 8140, Control_c, 2, 65, 122
4, 8144, Control_c, 2, 65, 121
4, 8147, Control_c, 2, 65, 119
4, 8147, Control_c, 2, 92, 125
4, 8150, Control_c, 2, 65, 118
4, 8154, Control_c, 2, 65, 116
4, 8154, Control_c, 2, 92, 123
4, 8157, Control_c, 2, 65, 115
4, 8160, Control_c, 2, 92, 120
4, 8160, Control_c, 2, 65, 114
4, 8164, Control_c, 2, 65, 112
4, 8167, Control_c, 2, 65, 111
4, 8167, Control_c, 2, 92, 116
4, 8170, Control_c, 2, 65, 109
4, 8174, Control_c, 2, 92, 114
4, 8174, Control_c, 2, 65, 108
4, 8177, Control_c, 2, 65, 106
4, 8177, Control_c, 2, 92, 112
4, 8177, Control_c, 2, 7, 125
4, 8180, Control_c, 2, 65, 105
4, 8180, Control_c, 2, 7, 118
4, 8184, Control_c, 2, 7, 117
4, 8184, Control_c, 2, 65, 104
4, 8187, Control_c, 2, 65, 102
4, 8187, Control_c, 2, 92, 109
4, 8187, Control_c, 2, 7, 116
4, 8190, Control_c, 2, 7, 115
4, 8190, Control_c, 2, 65, 101
4, 8194, Control_c, 2, 65, 99
4, 8194, Control_c, 2, 92, 108
4, 8194, Control_c, 2, 7, 114
4, 8197, Control_c, 2, 7, 113
4, 8197, Control_c, 2, 65, 98
4, 8200, Control_c, 2, 65, 96
4, 8200, Control_c, 2, 92, 105
4, 8200, Control_c, 2, 7, 112
4, 8203, Control_c, 2, 7, 111
4, 8204, Control_c, 2, 65, 95
4, 8204, Control_c, 2, 7, 111
4, 8207, Control_c, 2, 92, 104
4, 8207, Control_c, 2, 7, 110
4, 8207, Control_c, 2, 65, 94
4, 8210, Control_c, 2, 65, 92
4, 8210, Control_c, 2, 7, 109
4, 8211, Note_on_c, 2, 58, 0
4, 8213, Control_c, 2, 7, 110
4, 8214, Control_c, 2, 7, 108
4, 8214, Control_c, 2, 65, 91
4, 8214, Control_c, 2, 92, 101
4, 8214, Note_on_c, 2, 60, 100
4, 8217, Control_c, 2, 7, 106
4, 8217, Control_c, 2, 65, 89
4, 8220, Control_c, 2, 7, 105
4, 8220, Control_c, 2, 65, 88
4, 8220, Control_c, 2, 92, 100
4, 8224, Control_c, 2, 7, 104
4, 8224, Control_c, 2, 65, 86
4, 8226, Control_c, 2, 7, 109
4, 8227, Control_c, 2, 65, 85
4, 8227, Control_c, 2, 7, 103
4, 8230, Control_c, 2, 65, 84
4, 8230, Control_c, 2, 92, 96
4, 8230, Control_c, 2, 7, 102
4, 8234, Control_c, 2, 65, 82
4, 8234, Control_c, 2, 7, 101
4, 8237, Control_c, 2, 65, 81
4, 8237, Control_c, 2, 7, 100
4, 8240, Control_c, 2, 7, 99
4, 8240, Control_c, 2, 92, 95
4, 8240, Control_c, 2, 65, 79
4, 8244, Note_on_c, 2, 60, 0
4, 8244, Control_c, 2, 65, 78
4, 8244, Note_on_c, 2, 58, 100
4, 8244, Control_c, 2, 7, 98
4, 8247, Control_c, 2, 65, 76
4, 8247, Control_c, 2, 7, 97
4, 8250, Control_c, 2, 65, 75
4, 8250, Control_c, 2, 92, 92
4, 8250, Control_c, 2, 7, 95
4, 8254, Control_c, 2, 65, 74
4, 8254, Control_c, 2, 7, 94
4, 8254, Control_c, 2, 92, 89
4, 8257, Control_c, 2, 65, 72
4, 8257, Control_c, 2, 7, 93
4, 8260, Control_c, 2, 65, 71
4, 8260, Control_c, 2, 7, 92
4, 8260, Control_c, 2, 92, 88
4, 8264, Control_c, 2, 65, 69
4, 8264, Control_c, 2, 7, 91
4, 8266, Control_c, 2, 7, 106
4, 8267, Control_c, 2, 7, 90
4, 8267, Control_c, 2, 65, 68
4, 8267, Control_c, 2, 92, 83
4, 8270, Control_c, 2, 65, 66
4, 8270, Control_c, 2, 7, 89
4, 8274, Note_on_c, 2, 58, 0
4, 8274, Control_c, 2, 7, 88
4, 8274, Control_c, 2, 65, 65
4, 8274, Note_on_c, 2, 57, 100
4, 8274, Control_c, 2, 92, 68
4, 8277, Control_c, 2, 7, 87
4, 8277, Control_c, 2, 65, 63
4, 8277, Control_c, 2, 92, 66
4, 8280, Control_c, 2, 7, 104
4, 8280, Control_c, 2, 7, 86
4, 8284, Control_c, 2, 7, 85
4, 8287, Control_c, 2, 7, 83
4, 8290, Control_c, 2, 7, 102
4, 8290, Control_c, 2, 7, 82
4, 8294, Control_c, 2, 7, 81
4, 8296, Control_c, 2, 7, 100
4, 8297, Control_c, 2, 7, 80
4, 8300, Control_c, 2, 7, 79
4, 8304, Control_c, 2, 7, 78
4, 8307, Control_c, 2, 7, 77
4, 8310, Control_c, 2, 7, 76
4, 8314, Control_c, 2, 7, 75
4, 8317, Control_c, 2, 7, 74
4, 8320, Control_c, 2, 7, 72
4, 8324, Control_c, 2, 7, 71
4, 8327, Control_c, 2, 7, 70
4, 8330, Control_c, 2, 7, 69
4, 8333, Note_on_c, 2, 57, 0
4, 8334, Control_c, 2, 7, 68
4, 8334, Note_on_c, 2, 55, 100
4, 8337, Control_c, 2, 7, 67
4, 8340, Control_c, 2, 7, 66
4, 8343, Control_c, 2, 7, 98
4, 8344, Control_c, 2, 7, 65
4, 8347, Control_c, 2, 7, 64
4, 8350, Control_c, 2, 7, 63
4, 8354, Control_c, 2, 7, 61
4, 8363, Control_c, 2, 7, 96
4, 8373, Control_c, 2, 7, 95
4, 8374, Control_c, 2, 7, 49
4, 8376, Control_c, 2, 7, 94
4, 8380, Control_c, 2, 65, 65
4, 8384, Control_c, 2, 65, 68
4, 8387, Control_c, 2, 65, 71
4, 8390, Control_c, 2, 65, 74
4, 8393, Note_on_c, 2, 55, 0
4, 8394, Control_c, 2, 65, 77
4, 8394, Note_on_c, 2, 60, 100
4, 8397, Control_c, 2, 65, 80
4, 8400, Control_c, 2, 65, 83
4, 8404, Control_c, 2, 65, 86
4, 8407, Control_c, 2, 65, 89
4, 8410, Control_c, 2, 65, 92
4, 8414, Control_c, 2, 65, 96
4, 8417, Control_c, 2, 65, 99
4, 8420, Control_c, 2, 65, 102
4, 8424, Control_c, 2, 65, 105
4, 8427, Control_c, 2, 65, 108
4, 8430, Control_c, 2, 65, 111
4, 8430, Control_c, 2, 92, 116
4, 8434, Control_c, 2, 92, 118
4, 8434, Control_c, 2, 65, 114
4, 8437, Control_c, 2, 92, 120
4, 8437, Control_c, 2, 65, 117
4, 8440, Control_c, 2, 65, 120
4, 8444, Control_c, 2, 65, 123
4, 8447, Control_c, 2, 7, 64
4, 8447, Control_c, 2, 92, 121
4, 8447, Control_c, 2, 65, 127
4, 8450, Control_c, 2, 92, 123
4, 8450, Control_c, 2, 7, 66
4, 8454, Control_c, 2, 7, 68
4, 8454, Control_c, 2, 92, 124
4, 8457, Control_c, 2, 7, 70
4, 8460, Control_c, 2, 92, 126
4, 8460, Control_c, 2, 7, 72
4, 8464, Control_c, 2, 7, 74
4, 8464, Control_c, 2, 92, 127
4, 8467, Control_c, 2, 7, 76
4, 8470, Control_c, 2, 7, 78
4, 8474, Control_c, 2, 7, 80
4, 8477, Control_c, 2, 7, 82
4, 8477, Channel_aftertouch_c, 2, 63
4, 8480, Control_c, 2, 7, 85
4, 8480, Channel_aftertouch_c, 2, 65
4, 8484, Channel_aftertouch_c, 2, 68
4, 8484, Control_c, 2, 7, 87
4, 8487, Channel_aftertouch_c, 2, 71
4, 8487, Control_c, 2, 7, 89
4, 8490, Channel_aftertouch_c, 2, 74
4, 8490, Control_c, 2, 7, 91
4, 8494, Control_c, 2, 7, 93
4, 8494, Channel_aftertouch_c, 2, 77
4, 8497, Control_c, 2, 7, 95
4, 8497, Channel_aftertouch_c, 2, 80
4, 8500, Control_c, 2, 7, 108
4, 8500, Control_c, 2, 7, 97
4, 8500, Channel_aftertouch_c, 2, 83
4, 8504, Control_c, 2, 7, 99
4, 8504, Channel_aftertouch_c, 2, 86
4, 8504, Control_c, 2, 92, 126
4, 8507, Control_c, 2, 7, 101
4, 8507, Channel_aftertouch_c, 2, 89
4, 8510, Control_c, 2, 7, 103
4, 8510, Channel_aftertouch_c, 2, 92
4, 8514, Control_c, 2, 7, 106
4, 8514, Channel_aftertouch_c, 2, 95
4, 8514, Control_c, 2, 92, 125
4, 8517, Channel_aftertouch_c, 2, 97
4, 8517, Control_c, 2, 92, 124
4, 8520, Channel_aftertouch_c, 2, 100
4, 8520, Control_c, 2, 92, 122
4, 8524, Control_c, 2, 7, 107
4, 8524, Channel_aftertouch_c, 2, 103
4, 8527, Channel_aftertouch_c, 2, 106
4, 8530, Channel_aftertouch_c, 2, 109
4, 8530, Control_c, 2, 92, 120
4, 8534, Control_c, 2, 7, 108
4, 8534, Channel_aftertouch_c, 2, 112
4, 8537, Channel_aftertouch_c, 2, 115
4, 8537, Control_c, 2, 92, 118
4, 8540, Control_c, 2, 7, 109
4, 8540, Channel_aftertouch_c, 2, 118
4, 8540, Control_c, 2, 92, 106
4, 8544, Channel_aftertouch_c, 2, 121
4, 8544, Control_c, 2, 92, 104
4, 8547, Channel_aftertouch_c, 2, 124
4, 8547, Control_c, 2, 92, 102
4, 8550, Control_c, 2, 7, 110
4, 8550, Channel_aftertouch_c, 2, 127
4, 8550, Control_c, 2, 92, 100
4, 8554, Control_c, 2, 92, 98
4, 8557, Control_c, 2, 92, 94
4, 8560, Control_c, 2, 7, 111
4, 8560, Control_c, 2, 92, 93
4, 8564, Control_c, 2, 92, 90
4, 8567, Control_c, 2, 7, 112
4, 8567, Control_c, 2, 92, 89
4, 8570, Control_c, 2, 92, 86
4, 8574, Control_c, 2, 92, 83
4, 8577, Control_c, 2, 7, 113
4, 8580, Control_c, 2, 92, 73
4, 8584, Control_c, 2, 7, 114
4, 8587, Control_c, 2, 92, 71
4, 8590, Control_c, 2, 92, 69
4, 8594, Control_c, 2, 7, 115
4, 8594, Control_c, 2, 92, 68
4, 8597, Control_c, 2, 92, 66
4, 8600, Control_c, 2, 92, 65
4, 8604, Control_c, 2, 7, 116
4, 8606, Control_c, 2, 7, 124
4, 8607, Control_c, 2, 92, 63
4, 8610, Control_c, 2, 92, 61
4, 8610, Control_c, 2, 7, 117
4, 8614, Control_c, 2, 65, 126
4, 8617, Control_c, 2, 92, 60
4, 8617, Control_c, 2, 65, 117
4, 8620, Control_c, 2, 65, 108
4, 8620, Control_c, 2, 7, 118
4, 8624, Control_c, 2, 65, 99
4, 8627, Control_c, 2, 65, 90
4, 8627, Control_c, 2, 7, 116
4, 8630, Control_c, 2, 65, 81
4, 8630, Control_c, 2, 7, 115
4, 8634, Control_c, 2, 65, 72
4, 8634, Control_c, 2, 7, 114
4, 8637, Control_c, 2, 7, 113
4, 8637, Control_c, 2, 65, 63
4, 8640, Control_c, 2, 7, 112
4, 8640, Control_c, 2, 7, 116
4, 8644, Channel_aftertouch_c, 2, 127
4, 8644, Control_c, 2, 7, 111
4, 8647, Control_c, 2, 7, 110
4, 8647, Channel_aftertouch_c, 2, 126
4, 8650, Control_c, 2, 7, 109
4, 8650, Channel_aftertouch_c, 2, 124
4, 8654, Channel_aftertouch_c, 2, 122
4, 8654, Control_c, 2, 7, 108
4, 8657, Control_c, 2, 7, 107
4, 8657, Channel_aftertouch_c, 2, 120
4, 8660, Channel_aftertouch_c, 2, 118
4, 8660, Control_c, 2, 7, 106
4, 8664, Control_c, 2, 7, 105
4, 8664, Channel_aftertouch_c, 2, 116
4, 8667, Control_c, 2, 7, 104
4, 8667, Channel_aftertouch_c, 2, 114
4, 8670, Channel_aftertouch_c, 2, 112
4, 8670, Control_c, 2, 7, 103
4, 8674, Control_c, 2, 7, 102
4, 8674, Channel_aftertouch_c, 2, 110
4, 8677, Channel_aftertouch_c, 2, 108
4, 8677, Control_c, 2, 7, 101
4, 8680, Control_c, 2, 7, 100
4, 8680, Channel_aftertouch_c, 2, 106
4, 8683, Control_c, 2, 7, 115
4, 8684, Control_c, 2, 7, 99
4, 8684, Channel_aftertouch_c, 2, 104
4, 8687, Control_c, 2, 7, 98
4, 8687, Channel_aftertouch_c, 2, 102
4, 8690, Channel_aftertouch_c, 2, 100
4, 8690, Control_c, 2, 7, 97
4, 8691, Note_on_c, 2, 60, 0
4, 8694, Control_c, 2, 7, 96
4, 8694, Channel_aftertouch_c, 2, 98
4, 8694, Note_on_c, 2, 62, 100
4, 8697, Channel_aftertouch_c, 2, 96
4, 8697, Control_c, 2, 7, 95
4, 8700, Control_c, 2, 7, 94
4, 8700, Channel_aftertouch_c, 2, 94
4, 8704, Channel_aftertouch_c, 2, 92
4, 8704, Control_c, 2, 7, 93
4, 8707, Control_c, 2, 7, 92
4, 8707, Channel_aftertouch_c, 2, 90
4, 8710, Control_c, 2, 7, 91
4, 8710, Channel_aftertouch_c, 2, 88
4, 8714, Channel_aftertouch_c, 2, 86
4, 8714, Control_c, 2, 7, 90
4, 8717, Control_c, 2, 7, 89
4, 8717, Channel_aftertouch_c, 2, 84
4, 8720, Channel_aftertouch_c, 2, 82
4, 8720, Control_c, 2, 7, 88
4, 8724, Note_on_c, 2, 62, 0
4, 8724, Control_c, 2, 7, 87
4, 8724, Channel_aftertouch_c, 2, 80
4, 8724, Note_on_c, 2, 60, 100
4, 8727, Channel_aftertouch_c, 2, 78
4, 8727, Control_c, 2, 7, 86
4, 8730, Control_c, 2, 7, 85
4, 8730, Control_c, 2, 7, 112
4, 8730, Channel_aftertouch_c, 2, 76
4, 8734, Control_c, 2, 7, 84
4, 8734, Channel_aftertouch_c, 2, 74
4, 8737, Channel_aftertouch_c, 2, 72
4, 8737, Control_c, 2, 7, 83
4, 8740, Channel_aftertouch_c, 2, 70
4, 8740, Control_c, 2, 7, 82
4, 8744, Channel_aftertouch_c, 2, 68
4, 8744, Control_c, 2, 7, 81
4, 8747, Control_c, 2, 7, 80
4, 8747, Channel_aftertouch_c, 2, 66
4, 8750, Control_c, 2, 7, 79
4, 8750, Channel_aftertouch_c, 2, 64
4, 8754, Note_on_c, 2, 60, 0
4, 8754, Channel_aftertouch_c, 2, 62
4, 8754, Control_c, 2, 7, 78
4, 8754, Note_on_c, 2, 58, 100
4, 8757, Control_c, 2, 7, 77
4, 8760, Control_c, 2, 7, 76
4, 8764, Control_c, 2, 7, 75
4, 8767, Control_c, 2, 7, 74
4, 8770, Control_c, 2, 7, 73
4, 8774, Control_c, 2, 7, 72
4, 8776, Control_c, 2, 7, 109
4, 8777, Control_c, 2, 7, 71
4, 8780, Control_c, 2, 7, 70
4, 8787, Control_c, 2, 7, 60
4, 8794, Control_c, 2, 7, 59
4, 8810, Control_c, 2, 7, 107
4, 8813, Note_on_c, 2, 58, 0
4, 8814, Note_on_c, 2, 57, 100
4, 8816, Control_c, 2, 7, 105
4, 8846, Control_c, 2, 7, 103
4, 8847, Control_c, 2, 7, 60
4, 8854, Control_c, 2, 7, 61
4, 8857, Control_c, 2, 7, 66
4, 8860, Control_c, 2, 7, 67
4, 8864, Control_c, 2, 7, 68
4, 8867, Control_c, 2, 7, 69
4, 8870, Control_c, 2, 7, 71
4, 8873, Note_on_c, 2, 57, 0
4, 8874, Control_c, 2, 7, 72
4, 8874, Note_on_c, 2, 50, 100
4, 8877, Control_c, 2, 7, 73
4, 8880, Control_c, 2, 7, 102
4, 8880, Control_c, 2, 7, 75
4, 8884, Control_c, 2, 7, 76
4, 8887, Control_c, 2, 7, 77
4, 8890, Control_c, 2, 7, 79
4, 8894, Control_c, 2, 7, 80
4, 8897, Control_c, 2, 7, 81
4, 8900, Control_c, 2, 7, 83
4, 8904, Control_c, 2, 7, 84
4, 8907, Control_c, 2, 7, 85
4, 8910, Control_c, 2, 7, 87
4, 8914, Control_c, 2, 7, 88
4, 8917, Control_c, 2, 7, 89
4, 8920, Control_c, 2, 7, 91
4, 8924, Control_c, 2, 7, 92
4, 8927, Control_c, 2, 7, 93
4, 8930, Control_c, 2, 7, 95
4, 8934, Control_c, 2, 7, 96
4, 8937, Control_c, 2, 7, 97
4, 8940, Control_c, 2, 7, 99
4, 8944, Control_c, 2, 7, 100
4, 8947, Control_c, 2, 7, 101
4, 8950, Control_c, 2, 65, 69
4, 8950, Control_c, 2, 7, 103
4, 8954, Control_c, 2, 65, 71
4, 8954, Control_c, 2, 7, 104
4, 8957, Control_c, 2, 65, 73
4, 8957, Control_c, 2, 7, 105
4, 8960, Control_c, 2, 7, 107
4, 8960, Control_c, 2, 65, 75
4, 8964, Control_c, 2, 65, 77
4, 8964, Control_c, 2, 7, 91
4, 8967, Control_c, 2, 7, 93
4, 8967, Control_c, 2, 65, 79
4, 8970, Control_c, 2, 65, 81
4, 8970, Control_c, 2, 7, 108
4, 8974, Control_c, 2, 65, 83
4, 8977, Control_c, 2, 65, 85
4, 8980, Control_c, 2, 65, 87
4, 8984, Control_c, 2, 65, 89
4, 8984, Control_c, 2, 7, 109
4, 8987, Control_c, 2, 65, 91
4, 8990, Control_c, 2, 65, 93
4, 8994, Control_c, 2, 65, 95
4, 8997, Control_c, 2, 65, 98
4, 8997, Control_c, 2, 7, 110
4, 9000, Control_c, 2, 65, 100
4, 9004, Control_c, 2, 65, 102
4, 9007, Control_c, 2, 7, 111
4, 9007, Control_c, 2, 65, 104
4, 9010, Control_c, 2, 65, 106
4, 9014, Control_c, 2, 65, 108
4, 9017, Control_c, 2, 65, 110
4, 9020, Control_c, 2, 7, 112
4, 9020, Control_c, 2, 65, 112
4, 9024, Control_c, 2, 65, 114
4, 9027, Control_c, 2, 65, 116
4, 9030, Control_c, 2, 65, 118
4, 9034, Control_c, 2, 7, 113
4, 9034, Control_c, 2, 65, 120
4, 9037, Control_c, 2, 65, 122
4, 9040, Control_c, 2, 65, 125
4, 9044, Control_c, 2, 7, 114
4, 9050, Control_c, 2, 7, 103
4, 9052, Note_on_c, 2, 50, 0
4, 9054, Note_on_c, 2, 52, 100
4, 9064, Control_c, 2, 7, 99
4, 9070, Control_c, 2, 7, 97
4, 9074, Control_c, 2, 7, 95
4, 9080, Control_c, 2, 7, 93
4, 9084, Note_on_c, 2, 52, 0
4, 9084, Note_on_c, 2, 53, 100
4, 9087, Control_c, 2, 7, 91
4, 9090, Control_c, 2, 7, 89
4, 9097, Control_c, 2, 7, 87
4, 9100, Control_c, 2, 7, 86
4, 9107, Control_c, 2, 7, 85
4, 9114, Note_on_c, 2, 53, 0
4, 9114, Note_on_c, 2, 55, 100
4, 9170, Control_c, 2, 7, 90
4, 9177, Control_c, 2, 7, 87
4, 9190, Control_c, 2, 65, 127
4, 9190, Control_c, 2, 7, 92
4, 9194, Control_c, 2, 65, 125
4, 9197, Control_c, 2, 65, 122
4, 9200, Control_c, 2, 65, 120
4, 9203, Note_on_c, 2, 55, 0
4, 9204, Control_c, 2, 65, 117
4, 9204, Note_on_c, 2, 55, 100
4, 9204, Lyric_t, "cu-"
4, 9207, Control_c, 2, 65, 115
4, 9210, Control_c, 2, 65, 112
4, 9214, Control_c, 2, 65, 110
4, 9217, Control_c, 2, 65, 107
4, 9220, Control_c, 2, 65, 104
4, 9224, Control_c, 2, 65, 102
4, 9227, Control_c, 2, 65, 99
4, 9230, Control_c, 2, 65, 97
4, 9234, Note_on_c, 2, 55, 0
4, 9234, Lyric_t, "la,"
4, 9234, Control_c, 2, 65, 94
4, 9234, Note_on_c, 2, 48, 100
4, 9237, Control_c, 2, 65, 92
4, 9240, Control_c, 2, 65, 89
4, 9244, Control_c, 2, 65, 86
4, 9247, Control_c, 2, 65, 84
4, 9250, Control_c, 2, 65, 81
4, 9254, Control_c, 2, 65, 79
4, 9257, Control_c, 2, 65, 76
4, 9260, Control_c, 2, 65, 74
4, 9264, Control_c, 2, 65, 71
4, 9267, Control_c, 2, 65, 68
4, 9353, Note_on_c, 2, 48, 0
4, 9414, Note_on_c, 2, 53, 100
4, 9414, Lyric_t, "in"
4, 9464, Control_c, 2, 7, 63
4, 9473, Note_on_c, 2, 53, 0
4, 9474, Lyric_t, "sae-"
4, 9474, Note_on_c, 2, 55, 100
4, 9543, Control_c, 2, 7, 87
4, 9563, Note_on_c, 2, 55, 0
4, 9564, Note_on_c, 2, 55, 100
4, 9564, Lyric_t, "cu-"
4, 9594, Note_on_c, 2, 55, 0
4, 9594, Lyric_t, "la."
4, 9594, Note_on_c, 2, 48, 100
4, 9713, Note_on_c, 2, 48, 0
4, 10854, Lyric_t, "Si-"
4, 10854, Note_on_c, 2, 48, 100
4, 10913, Note_on_c, 2, 48, 0
4, 10914, Lyric_t, "cut"
4, 10914, Note_on_c, 2, 52, 100
4, 10973, Note_on_c, 2, 52, 0
4, 10974, Lyric_t, "lo-"
4, 10974, Note_on_c, 2, 55, 100
4, 11033, Note_on_c, 2, 55, 0
4, 11034, Lyric_t, "cu-"
4, 11034, Note_on_c, 2, 60, 100
4, 11153, Note_on_c, 2, 60, 0
4, 11154, Lyric_t, "tus"
4, 11154, Note_on_c, 2, 55, 100
4, 11273, Note_on_c, 2, 55, 0
4, 11274, Lyric_t, "est"
4, 11274, Note_on_c, 2, 53, 100
4, 11333, Note_on_c, 2, 53, 0
4, 11334, Lyric_t, "ad"
4, 11334, Note_on_c, 2, 53, 100
4, 11393, Note_on_c, 2, 53, 0
4, 11394, Lyric_t, "pa-"
4, 11394, Note_on_c, 2, 53, 100
4, 11453, Note_on_c, 2, 53, 0
4, 11454, Lyric_t, "tres"
4, 11454, Note_on_c, 2, 53, 100
4, 11513, Note_on_c, 2, 53, 0
4, 11514, Lyric_t, "no-"
4, 11514, Note_on_c, 2, 53, 100
4, 11633, Note_on_c, 2, 53, 0
4, 11634, Lyric_t, "stros"
4, 11634, Note_on_c, 2, 52, 100
4, 11753, Note_on_c, 2, 52, 0
4, 11860, Control_c, 2, 7, 78
4, 11867, Control_c, 2, 7, 79
4, 11874, Control_c, 2, 7, 80
4, 11880, Control_c, 2, 7, 81
4, 11890, Control_c, 2, 7, 83
4, 11897, Control_c, 2, 7, 84
4, 11900, Control_c, 2, 7, 85
4, 11907, Control_c, 2, 7, 86
4, 11910, Control_c, 2, 7, 87
4, 11917, Control_c, 2, 7, 88
4, 11920, Control_c, 2, 7, 89
4, 11984, Control_c, 2, 7, 103
4, 11990, Control_c, 2, 7, 101
4, 11994, Lyric_t, "A-"
4, 11994, Note_on_c, 2, 47, 100
4, 12037, Control_c, 2, 7, 102
4, 12080, Control_c, 2, 7, 103
4, 12083, Note_on_c, 2, 47, 0
4, 12084, Lyric_t, "bra-"
4, 12084, Note_on_c, 2, 47, 100
4, 12114, Note_on_c, 2, 47, 0
4, 12114, Lyric_t, "ham,"
4, 12114, Note_on_c, 2, 47, 100
4, 12124, Control_c, 2, 7, 104
4, 12167, Control_c, 2, 7, 105
4, 12173, Note_on_c, 2, 47, 0
4, 12174, Lyric_t, "et"
4, 12174, Note_on_c, 2, 47, 100
4, 12214, Control_c, 2, 7, 106
4, 12233, Note_on_c, 2, 47, 0
4, 12234, Lyric_t, "se-"
4, 12234, Note_on_c, 2, 48, 100
4, 12257, Control_c, 2, 7, 107
4, 12293, Note_on_c, 2, 48, 0
4, 12294, Lyric_t, "mi-"
4, 12294, Note_on_c, 2, 48, 100
4, 12300, Control_c, 2, 7, 108
4, 12324, Note_on_c, 2, 48, 0
4, 12324, Lyric_t, "ni"
4, 12324, Note_on_c, 2, 48, 100
4, 12344, Control_c, 2, 7, 109
4, 12354, Note_on_c, 2, 48, 0
4, 12354, Lyric_t, "e-"
4, 12354, Note_on_c, 2, 48, 100
4, 12390, Control_c, 2, 7, 110
4, 12413, Note_on_c, 2, 48, 0
4, 12414, Lyric_t, "jus"
4, 12414, Note_on_c, 2, 48, 100
4, 12434, Control_c, 2, 7, 111
4, 12444, Note_on_c, 2, 48, 0
4, 12444, Lyric_t, "in"
4, 12444, Note_on_c, 2, 48, 100
4, 12474, Note_on_c, 2, 48, 0
4, 12474, Lyric_t, "sae-"
4, 12474, Note_on_c, 2, 53, 100
4, 12477, Control_c, 2, 7, 112
4, 12520, Control_c, 2, 7, 113
4, 12563, Note_on_c, 2, 53, 0
4, 12564, Lyric_t, "cu-"
4, 12564, Note_on_c, 2, 53, 100
4, 12594, Note_on_c, 2, 53, 0
4, 12594, Lyric_t, "la,"
4, 12594, Note_on_c, 2, 53, 100
4, 12710, Control_c, 2, 7, 75
4, 12713, Note_on_c, 2, 53, 0
4, 12714, Lyric_t, "A-"
4, 12714, Note_on_c, 2, 53, 100
4, 12803, Note_on_c, 2, 53, 0
4, 12804, Lyric_t, "bra-"
4, 12804, Note_on_c, 2, 53, 100
4, 12820, Control_c, 2, 7, 74
4, 12834, Note_on_c, 2, 53, 0
4, 12834, Lyric_t, "ham,"
4, 12834, Note_on_c, 2, 53, 100
4, 12893, Note_on_c, 2, 53, 0
4, 12894, Lyric_t, "et"
4, 12894, Note_on_c, 2, 53, 100
4, 12930, Control_c, 2, 7, 73
4, 12953, Note_on_c, 2, 53, 0
4, 12954, Lyric_t, "se-"
4, 12954, Note_on_c, 2, 53, 100
4, 12963, Control_c, 2, 7, 110
4, 12974, Control_c, 2, 7, 67
4, 12984, Control_c, 2, 7, 68
4, 12990, Control_c, 2, 7, 69
4, 12993, Control_c, 2, 7, 109
4, 12997, Control_c, 2, 7, 70
4, 13000, Control_c, 2, 7, 109
4, 13013, Note_on_c, 2, 53, 0
4, 13014, Lyric_t, "mi-"
4, 13014, Note_on_c, 2, 53, 100
4, 13044, Note_on_c, 2, 53, 0
4, 13044, Lyric_t, "ni"
4, 13044, Note_on_c, 2, 53, 100
4, 13074, Note_on_c, 2, 53, 0
4, 13074, Note_on_c, 2, 53, 100
4, 13074, Lyric_t, "e-"
4, 13133, Note_on_c, 2, 53, 0
4, 13134, Lyric_t, "jus"
4, 13134, Note_on_c, 2, 55, 100
4, 13136, Control_c, 2, 7, 108
4, 13140, Control_c, 2, 7, 107
4, 13164, Note_on_c, 2, 55, 0
4, 13164, Lyric_t, "in"
4, 13164, Note_on_c, 2, 57, 100
4, 13184, Control_c, 2, 7, 96
4, 13190, Control_c, 2, 7, 97
4, 13194, Note_on_c, 2, 57, 0
4, 13194, Lyric_t, "sae"
4, 13194, Note_on_c, 2, 58, 100
4, 13197, Control_c, 2, 7, 98
4, 13204, Control_c, 2, 7, 99
4, 13210, Control_c, 2, 7, 100
4, 13217, Control_c, 2, 7, 101
4, 13224, Control_c, 2, 7, 102
4, 13230, Control_c, 2, 7, 103
4, 13237, Control_c, 2, 7, 104
4, 13244, Control_c, 2, 7, 105
4, 13247, Control_c, 2, 7, 106
4, 13254, Control_c, 2, 7, 107
4, 13260, Control_c, 2, 7, 108
4, 13264, Control_c, 2, 7, 109
4, 13270, Control_c, 2, 7, 110
4, 13277, Control_c, 2, 7, 111
4, 13280, Control_c, 2, 7, 112
4, 13287, Control_c, 2, 7, 113
4, 13294, Control_c, 2, 7, 114
4, 13297, Control_c, 2, 7, 115
4, 13304, Control_c, 2, 7, 116
4, 13310, Control_c, 2, 7, 117
4, 13314, Control_c, 2, 7, 118
4, 13320, Control_c, 2, 7, 119
4, 13327, Control_c, 2, 7, 120
4, 13330, Control_c, 2, 7, 121
4, 13337, Control_c, 2, 7, 122
4, 13340, Control_c, 2, 7, 123
4, 13344, Control_c, 2, 7, 124
4, 13347, Control_c, 2, 7, 126
4, 13350, Control_c, 2, 7, 107
4, 13354, Control_c, 2, 7, 113
4, 13360, Control_c, 2, 7, 115
4, 13364, Control_c, 2, 7, 116
4, 13367, Control_c, 2, 7, 118
4, 13370, Control_c, 2, 7, 119
4, 13374, Control_c, 2, 7, 120
4, 13377, Control_c, 2, 7, 121
4, 13380, Control_c, 2, 7, 122
4, 13384, Control_c, 2, 7, 123
4, 13387, Control_c, 2, 7, 125
4, 13400, Control_c, 2, 7, 126
4, 13407, Control_c, 2, 7, 127
4, 13480, Control_c, 2, 7, 117
4, 13487, Control_c, 2, 7, 116
4, 13490, Control_c, 2, 7, 115
4, 13491, Note_on_c, 2, 58, 0
4, 13494, Control_c, 2, 7, 114
4, 13494, Note_on_c, 2, 60, 100
4, 13500, Control_c, 2, 7, 113
4, 13504, Control_c, 2, 7, 112
4, 13507, Control_c, 2, 7, 111
4, 13514, Control_c, 2, 7, 110
4, 13517, Control_c, 2, 7, 109
4, 13520, Control_c, 2, 7, 108
4, 13524, Note_on_c, 2, 60, 0
4, 13524, Note_on_c, 2, 58, 100
4, 13527, Control_c, 2, 7, 107
4, 13530, Control_c, 2, 7, 106
4, 13534, Control_c, 2, 7, 105
4, 13537, Control_c, 2, 7, 104
4, 13544, Control_c, 2, 7, 103
4, 13547, Control_c, 2, 7, 102
4, 13550, Control_c, 2, 7, 101
4, 13554, Note_on_c, 2, 58, 0
4, 13554, Note_on_c, 2, 57, 100
4, 13557, Control_c, 2, 7, 100
4, 13560, Control_c, 2, 7, 99
4, 13564, Control_c, 2, 7, 98
4, 13570, Control_c, 2, 7, 97
4, 13574, Control_c, 2, 7, 96
4, 13577, Control_c, 2, 7, 95
4, 13580, Control_c, 2, 7, 96
4, 13597, Control_c, 2, 7, 95
4, 13613, Note_on_c, 2, 57, 0
4, 13614, Control_c, 2, 7, 94
4, 13614, Note_on_c, 2, 55, 100
4, 13630, Control_c, 2, 7, 93
4, 13644, Control_c, 2, 7, 92
4, 13650, Control_c, 2, 7, 95
4, 13654, Control_c, 2, 7, 94
4, 13664, Control_c, 2, 7, 91
4, 13673, Note_on_c, 2, 55, 0
4, 13674, Control_c, 2, 7, 90
4, 13674, Note_on_c, 2, 60, 100
4, 13677, Control_c, 2, 7, 91
4, 13710, Control_c, 2, 7, 94
4, 13717, Control_c, 2, 7, 95
4, 13720, Control_c, 2, 7, 96
4, 13724, Control_c, 2, 7, 97
4, 13727, Control_c, 2, 7, 98
4, 13730, Control_c, 2, 7, 99
4, 13733, Note_on_c, 2, 60, 0
4, 13734, Control_c, 2, 7, 100
4, 13734, Note_on_c, 2, 48, 100
4, 13737, Control_c, 2, 7, 101
4, 13740, Control_c, 2, 7, 121
4, 13793, Note_on_c, 2, 48, 0
4, 13794, Note_on_c, 2, 60, 100
4, 13797, Control_c, 2, 7, 117
4, 13800, Control_c, 2, 7, 118
4, 13804, Control_c, 2, 7, 119
4, 13807, Control_c, 2, 7, 120
4, 13810, Control_c, 2, 7, 121
4, 13814, Control_c, 2, 7, 122
4, 13817, Control_c, 2, 7, 123
4, 13820, Control_c, 2, 7, 124
4, 13824, Control_c, 2, 7, 125
4, 13844, Control_c, 2, 7, 124
4, 13854, Control_c, 2, 7, 126
4, 13857, Control_c, 2, 7, 125
4, 13860, Control_c, 2, 7, 124
4, 13864, Control_c, 2, 7, 123
4, 13867, Control_c, 2, 7, 122
4, 13870, Control_c, 2, 7, 121
4, 13874, Control_c, 2, 7, 120
4, 13877, Control_c, 2, 7, 119
4, 13880, Control_c, 2, 7, 118
4, 13884, Control_c, 2, 7, 117
4, 13887, Control_c, 2, 7, 116
4, 13890, Control_c, 2, 7, 115
4, 13894, Control_c, 2, 7, 114
4, 13897, Control_c, 2, 7, 113
4, 13900, Control_c, 2, 7, 112
4, 13904, Control_c, 2, 7, 111
4, 13907, Control_c, 2, 7, 110
4, 13910, Control_c, 2, 7, 108
4, 13914, Control_c, 2, 7, 107
4, 13917, Control_c, 2, 7, 106
4, 13920, Control_c, 2, 7, 105
4, 13924, Control_c, 2, 7, 104
4, 13927, Control_c, 2, 7, 103
4, 13930, Control_c, 2, 7, 102
4, 13934, Control_c, 2, 7, 101
4, 13937, Control_c, 2, 7, 100
4, 13940, Control_c, 2, 7, 99
4, 13944, Control_c, 2, 7, 98
4, 13947, Control_c, 2, 7, 97
4, 13950, Control_c, 2, 7, 96
4, 13954, Control_c, 2, 7, 95
4, 13957, Control_c, 2, 7, 94
4, 13960, Control_c, 2, 7, 93
4, 13964, Control_c, 2, 7, 91
4, 13970, Control_c, 2, 7, 111
4, 13972, Note_on_c, 2, 60, 0
4, 13974, Note_on_c, 2, 62, 100
4, 13980, Control_c, 2, 7, 110
4, 13990, Control_c, 2, 7, 109
4, 13997, Control_c, 2, 7, 108
4, 14004, Note_on_c, 2, 62, 0
4, 14004, Note_on_c, 2, 60, 100
4, 14007, Control_c, 2, 7, 107
4, 14014, Control_c, 2, 7, 106
4, 14024, Control_c, 2, 7, 105
4, 14030, Control_c, 2, 7, 104
4, 14034, Note_on_c, 2, 60, 0
4, 14034, Note_on_c, 2, 58, 100
4, 14040, Control_c, 2, 7, 103
4, 14050, Control_c, 2, 7, 102
4, 14057, Control_c, 2, 7, 101
4, 14067, Control_c, 2, 7, 100
4, 14074, Control_c, 2, 7, 99
4, 14084, Control_c, 2, 7, 98
4, 14090, Control_c, 2, 7, 97
4, 14093, Note_on_c, 2, 58, 0
4, 14094, Note_on_c, 2, 57, 100
4, 14100, Control_c, 2, 7, 96
4, 14110, Control_c, 2, 7, 95
4, 14117, Control_c, 2, 7, 94
4, 14127, Control_c, 2, 7, 93
4, 14134, Control_c, 2, 7, 92
4, 14144, Control_c, 2, 7, 91
4, 14150, Control_c, 2, 7, 90
4, 14153, Note_on_c, 2, 57, 0
4, 14154, Note_on_c, 2, 50, 100
4, 14157, Control_c, 2, 7, 66
4, 14160, Control_c, 2, 7, 67
4, 14164, Control_c, 2, 7, 68
4, 14167, Control_c, 2, 7, 70
4, 14170, Control_c, 2, 7, 80
4, 14177, Control_c, 2, 7, 81
4, 14180, Control_c, 2, 7, 82
4, 14184, Control_c, 2, 7, 83
4, 14190, Control_c, 2, 7, 84
4, 14194, Control_c, 2, 7, 85
4, 14197, Control_c, 2, 7, 86
4, 14200, Control_c, 2, 7, 87
4, 14207, Control_c, 2, 7, 88
4, 14210, Control_c, 2, 7, 89
4, 14214, Control_c, 2, 7, 90
4, 14217, Control_c, 2, 7, 91
4, 14224, Control_c, 2, 7, 92
4, 14227, Control_c, 2, 7, 93
4, 14230, Control_c, 2, 7, 94
4, 14234, Control_c, 2, 7, 95
4, 14240, Control_c, 2, 7, 96
4, 14244, Control_c, 2, 7, 97
4, 14247, Control_c, 2, 7, 98
4, 14250, Control_c, 2, 7, 99
4, 14257, Control_c, 2, 7, 100
4, 14260, Control_c, 2, 7, 101
4, 14264, Control_c, 2, 7, 102
4, 14267, Control_c, 2, 7, 103
4, 14274, Control_c, 2, 7, 104
4, 14277, Control_c, 2, 7, 105
4, 14280, Control_c, 2, 7, 106
4, 14284, Control_c, 2, 7, 107
4, 14290, Control_c, 2, 7, 108
4, 14294, Control_c, 2, 7, 109
4, 14297, Control_c, 2, 7, 110
4, 14300, Control_c, 2, 7, 111
4, 14307, Control_c, 2, 7, 112
4, 14310, Control_c, 2, 7, 113
4, 14314, Control_c, 2, 7, 114
4, 14317, Control_c, 2, 7, 115
4, 14324, Control_c, 2, 7, 116
4, 14327, Control_c, 2, 7, 117
4, 14330, Control_c, 2, 7, 118
4, 14334, Control_c, 2, 7, 119
4, 14340, Control_c, 2, 7, 120
4, 14344, Control_c, 2, 7, 121
4, 14347, Control_c, 2, 7, 122
4, 14350, Control_c, 2, 7, 123
4, 14357, Control_c, 2, 7, 124
4, 14360, Control_c, 2, 7, 125
4, 14364, Control_c, 2, 7, 126
4, 14367, Control_c, 2, 7, 127
4, 14451, Note_on_c, 2, 50, 0
4, 14454, Note_on_c, 2, 52, 100
4, 14484, Note_on_c, 2, 52, 0
4, 14484, Note_on_c, 2, 50, 100
4, 14490, Control_c, 2, 7, 126
4, 14494, Control_c, 2, 7, 125
4, 14497, Control_c, 2, 7, 123
4, 14500, Control_c, 2, 7, 121
4, 14504, Control_c, 2, 7, 120
4, 14507, Control_c, 2, 7, 118
4, 14510, Control_c, 2, 7, 116
4, 14514, Note_on_c, 2, 50, 0
4, 14514, Control_c, 2, 7, 115
4, 14514, Note_on_c, 2, 48, 100
4, 14517, Control_c, 2, 7, 113
4, 14520, Control_c, 2, 7, 111
4, 14524, Control_c, 2, 7, 109
4, 14527, Control_c, 2, 7, 108
4, 14530, Control_c, 2, 7, 106
4, 14534, Control_c, 2, 7, 104
4, 14537, Control_c, 2, 7, 103
4, 14540, Control_c, 2, 7, 101
4, 14544, Control_c, 2, 7, 99
4, 14547, Control_c, 2, 7, 97
4, 14550, Control_c, 2, 7, 96
4, 14554, Control_c, 2, 7, 94
4, 14557, Control_c, 2, 7, 92
4, 14560, Control_c, 2, 7, 91
4, 14564, Control_c, 2, 7, 89
4, 14567, Control_c, 2, 7, 87
4, 14570, Control_c, 2, 7, 85
4, 14573, Note_on_c, 2, 48, 0
4, 14574, Control_c, 2, 7, 84
4, 14574, Note_on_c, 2, 46, 100
4, 14577, Control_c, 2, 7, 82
4, 14580, Control_c, 2, 7, 80
4, 14584, Control_c, 2, 7, 79
4, 14587, Control_c, 2, 7, 77
4, 14590, Control_c, 2, 7, 75
4, 14594, Control_c, 2, 7, 73
4, 14597, Control_c, 2, 7, 72
4, 14600, Control_c, 2, 7, 70
4, 14604, Control_c, 2, 7, 68
4, 14607, Control_c, 2, 7, 67
4, 14610, Control_c, 2, 7, 65
4, 14614, Control_c, 2, 7, 63
4, 14617, Control_c, 2, 7, 61
4, 14633, Note_on_c, 2, 46, 0
4, 14634, Note_on_c, 2, 48, 100
4, 14693, Note_on_c, 2, 48, 0
4, 14694, Note_on_c, 2, 60, 100
4, 14737, Control_c, 2, 7, 114
4, 14807, Control_c, 2, 7, 70
4, 14810, Control_c, 2, 7, 65
4, 14813, Note_on_c, 2, 60, 0
4, 14814, Control_c, 2, 7, 79
4, 14814, Note_on_c, 2, 58, 100
4, 14844, Note_on_c, 2, 58, 0
4, 14844, Note_on_c, 2, 57, 100
4, 14874, Note_on_c, 2, 57, 0
4, 14874, Note_on_c, 2, 58, 100
4, 14880, Control_c, 2, 7, 108
4, 14947, Control_c, 2, 7, 93
4, 14950, Control_c, 2, 7, 92
4, 14954, Control_c, 2, 7, 91
4, 14957, Control_c, 2, 7, 89
4, 14960, Control_c, 2, 7, 88
4, 14964, Control_c, 2, 7, 87
4, 14967, Control_c, 2, 7, 85
4, 14970, Control_c, 2, 7, 84
4, 14974, Control_c, 2, 7, 83
4, 14977, Control_c, 2, 7, 81
4, 14980, Control_c, 2, 7, 80
4, 14984, Control_c, 2, 7, 79
4, 14987, Control_c, 2, 7, 77
4, 14990, Control_c, 2, 7, 76
4, 14994, Control_c, 2, 7, 75
4, 14997, Control_c, 2, 7, 73
4, 15000, Control_c, 2, 7, 72
4, 15004, Control_c, 2, 7, 71
4, 15007, Control_c, 2, 7, 69
4, 15010, Control_c, 2, 7, 68
4, 15014, Control_c, 2, 7, 67
4, 15017, Control_c, 2, 7, 65
4, 15052, Note_on_c, 2, 58, 0
4, 15054, Note_on_c, 2, 57, 100
4, 15084, Note_on_c, 2, 57, 0
4, 15084, Note_on_c, 2, 55, 100
4, 15114, Note_on_c, 2, 55, 0
4, 15114, Note_on_c, 2, 57, 100
4, 15120, Control_c, 2, 7, 101
4, 15292, Note_on_c, 2, 57, 0
4, 15294, Note_on_c, 2, 55, 100
4, 15324, Note_on_c, 2, 55, 0
4, 15324, Note_on_c, 2, 53, 100
4, 15354, Note_on_c, 2, 53, 0
4, 15354, Note_on_c, 2, 48, 100
4, 15443, Note_on_c, 2, 48, 0
4, 15444, Lyric_t, "cu-"
4, 15444, Note_on_c, 2, 48, 100
4, 15474, Note_on_c, 2, 48, 0
4, 15474, Lyric_t, "la,"
4, 15474, Note_on_c, 2, 48, 100
4, 15593, Note_on_c, 2, 48, 0
4, 15824, Control_c, 2, 7, 56
4, 15827, Control_c, 2, 7, 73
4, 15834, Lyric_t, "A-"
4, 15834, Note_on_c, 2, 48, 100
4, 15836, Control_c, 2, 7, 88
4, 15923, Note_on_c, 2, 48, 0
4, 15924, Lyric_t, "bra-"
4, 15924, Note_on_c, 2, 48, 100
4, 15954, Note_on_c, 2, 48, 0
4, 15954, Lyric_t, "ham,"
4, 15954, Note_on_c, 2, 48, 100
4, 16073, Note_on_c, 2, 48, 0
4, 16554, Lyric_t, "A-"
4, 16554, Note_on_c, 2, 48, 100
4, 16643, Note_on_c, 2, 48, 0
4, 16644, Lyric_t, "bra-"
4, 16644, Note_on_c, 2, 48, 100
4, 16674, Note_on_c, 2, 48, 0
4, 16674, Lyric_t, "ham,"
4, 16674, Note_on_c, 2, 48, 100
4, 16733, Note_on_c, 2, 48, 0
4, 16734, Lyric_t, "et"
4, 16734, Note_on_c, 2, 48, 100
4, 16793, Note_on_c, 2, 48, 0
4, 16794, Lyric_t, "se-"
4, 16794, Note_on_c, 2, 48, 100
4, 16800, Control_c, 2, 7, 98
4, 16814, Control_c, 2, 7, 98
4, 16840, Control_c, 2, 7, 99
4, 16867, Control_c, 2, 7, 100
4, 16894, Control_c, 2, 7, 101
4, 16913, Note_on_c, 2, 48, 0
4, 16914, Note_on_c, 2, 48, 100
4, 16914, Lyric_t, "mi-"
4, 16920, Control_c, 2, 7, 102
4, 16947, Control_c, 2, 7, 103
4, 16970, Control_c, 2, 7, 104
4, 16973, Note_on_c, 2, 48, 0
4, 16974, Lyric_t, "ni"
4, 16974, Note_on_c, 2, 48, 100
4, 16997, Control_c, 2, 7, 105
4, 17024, Control_c, 2, 7, 106
4, 17033, Note_on_c, 2, 48, 0
4, 17034, Lyric_t, "e-"
4, 17034, Note_on_c, 2, 48, 100
4, 17050, Control_c, 2, 7, 107
4, 17077, Control_c, 2, 7, 108
4, 17104, Control_c, 2, 7, 109
4, 17127, Control_c, 2, 7, 110
4, 17153, Note_on_c, 2, 48, 0
4, 17154, Control_c, 2, 7, 111
4, 17154, Lyric_t, "jus"
4, 17154, Note_on_c, 2, 53, 100
4, 17180, Control_c, 2, 7, 112
4, 17207, Control_c, 2, 7, 113
4, 17213, Note_on_c, 2, 53, 0
4, 17214, Lyric_t, "in"
4, 17214, Note_on_c, 2, 58, 100
4, 17234, Control_c, 2, 7, 114
4, 17257, Control_c, 2, 7, 115
4, 17273, Note_on_c, 2, 58, 0
4, 17274, Lyric_t, "sae-"
4, 17274, Note_on_c, 2, 60, 100
4, 17367, Control_c, 2, 7, 57
4, 17377, Control_c, 2, 7, 58
4, 17384, Control_c, 2, 7, 59
4, 17393, Note_on_c, 2, 60, 0
4, 17394, Control_c, 2, 7, 60
4, 17394, Lyric_t, "cu-"
4, 17394, Note_on_c, 2, 48, 100
4, 17400, Control_c, 2, 7, 61
4, 17407, Control_c, 2, 7, 62
4, 17417, Control_c, 2, 7, 63
4, 17424, Control_c, 2, 7, 64
4, 17430, Control_c, 2, 7, 65
4, 17440, Control_c, 2, 7, 66
4, 17447, Control_c, 2, 7, 67
4, 17454, Control_c, 2, 7, 68
4, 17460, Control_c, 2, 7, 72
4, 17464, Control_c, 2, 7, 73
4, 17467, Control_c, 2, 7, 74
4, 17470, Control_c, 2, 7, 75
4, 17474, Control_c, 2, 7, 76
4, 17477, Control_c, 2, 7, 77
4, 17480, Control_c, 2, 7, 78
4, 17484, Control_c, 2, 7, 79
4, 17490, Control_c, 2, 7, 80
4, 17494, Control_c, 2, 7, 81
4, 17497, Control_c, 2, 7, 82
4, 17500, Control_c, 2, 7, 83
4, 17504, Control_c, 2, 7, 84
4, 17507, Control_c, 2, 7, 85
4, 17510, Control_c, 2, 7, 86
4, 17513, Note_on_c, 2, 48, 0
4, 17514, Lyric_t, "la."
4, 17514, Note_on_c, 2, 53, 100
4, 17517, Control_c, 2, 7, 87
4, 17520, Control_c, 2, 7, 88
4, 17524, Control_c, 2, 7, 89
4, 17527, Control_c, 2, 7, 90
4, 17530, Control_c, 2, 7, 91
4, 17534, Control_c, 2, 7, 92
4, 17537, Control_c, 2, 7, 93
4, 17540, Control_c, 2, 7, 94
4, 17547, Control_c, 2, 7, 95
4, 17550, Control_c, 2, 7, 96
4, 17554, Control_c, 2, 7, 97
4, 17557, Control_c, 2, 7, 98
4, 17560, Control_c, 2, 7, 99
4, 17564, Control_c, 2, 7, 100
4, 17567, Control_c, 2, 7, 101
4, 17574, Control_c, 2, 7, 102
4, 17577, Control_c, 2, 7, 103
4, 17580, Control_c, 2, 7, 104
4, 17584, Control_c, 2, 7, 105
4, 17587, Control_c, 2, 7, 106
4, 17590, Control_c, 2, 7, 107
4, 17594, Control_c, 2, 7, 108
4, 17597, Control_c, 2, 7, 109
4, 17604, Control_c, 2, 7, 110
4, 17607, Control_c, 2, 7, 111
4, 17610, Control_c, 2, 7, 112
4, 17614, Control_c, 2, 7, 113
4, 17617, Control_c, 2, 7, 114
4, 17620, Control_c, 2, 7, 115
4, 17624, Control_c, 2, 7, 116
4, 17630, Control_c, 2, 7, 117
4, 17634, Control_c, 2, 7, 118
4, 17637, Control_c, 2, 7, 119
4, 17640, Control_c, 2, 7, 120
4, 17644, Control_c, 2, 7, 121
4, 17647, Control_c, 2, 7, 122
4, 17650, Control_c, 2, 7, 123
4, 17654, Control_c, 2, 7, 124
4, 17753, Note_on_c, 2, 53, 0
4, 17753, End_track
5, 0, Start_track
5, 0, MIDI_port, 0
5, 0, Title_t, "Oboe1"
5, 0, Program_c, 3, 68
5, 0, Control_c, 3, 7, 30
5, 0, Control_c, 3, 10, 40
5, 0, Control_c, 3, 11, 127
5, 0, Control_c, 3, 8, 64
5, 60, Note_on_c, 3, 65, 127
5, 118, Note_on_c, 3, 65, 0
5, 120, Note_on_c, 3, 69, 127
5, 178, Note_on_c, 3, 69, 0
5, 180, Note_on_c, 3, 72, 127
5, 238, Note_on_c, 3, 72, 0
5, 240, Note_on_c, 3, 77, 127
5, 298, Note_on_c, 3, 77, 0
5, 300, Note_on_c, 3, 76, 127
5, 329, Note_on_c, 3, 76, 0
5, 330, Note_on_c, 3, 74, 127
5, 359, Note_on_c, 3, 74, 0
5, 360, Note_on_c, 3, 72, 127
5, 418, Note_on_c, 3, 72, 0
5, 420, Note_on_c, 3, 70, 127
5, 478, Note_on_c, 3, 70, 0
5, 480, Note_on_c, 3, 69, 127
5, 538, Note_on_c, 3, 69, 0
5, 540, Note_on_c, 3, 65, 127
5, 598, Note_on_c, 3, 65, 0
5, 600, Note_on_c, 3, 72, 127
5, 658, Note_on_c, 3, 72, 0
5, 660, Note_on_c, 3, 77, 127
5, 718, Note_on_c, 3, 77, 0
5, 720, Note_on_c, 3, 81, 127
5, 778, Note_on_c, 3, 81, 0
5, 780, Note_on_c, 3, 79, 127
5, 809, Note_on_c, 3, 79, 0
5, 810, Note_on_c, 3, 77, 127
5, 839, Note_on_c, 3, 77, 0
5, 840, Note_on_c, 3, 76, 127
5, 898, Note_on_c, 3, 76, 0
5, 900, Note_on_c, 3, 74, 127
5, 958, Note_on_c, 3, 74, 0
5, 960, Note_on_c, 3, 72, 127
5, 1018, Note_on_c, 3, 72, 0
5, 1020, Note_on_c, 3, 69, 127
5, 1049, Note_on_c, 3, 69, 0
5, 1050, Note_on_c, 3, 70, 127
5, 1079, Note_on_c, 3, 70, 0
5, 1080, Note_on_c, 3, 72, 127
5, 1138, Note_on_c, 3, 72, 0
5, 1140, Note_on_c, 3, 81, 127
5, 1198, Note_on_c, 3, 81, 0
5, 1200, Note_on_c, 3, 79, 127
5, 1229, Note_on_c, 3, 79, 0
5, 1230, Note_on_c, 3, 81, 127
5, 1259, Note_on_c, 3, 81, 0
5, 1260, Note_on_c, 3, 82, 127
5, 1378, Note_on_c, 3, 82, 0
5, 1380, Note_on_c, 3, 79, 127
5, 1438, Note_on_c, 3, 79, 0
5, 1440, Note_on_c, 3, 81, 127
5, 1498, Note_on_c, 3, 81, 0
5, 1500, Note_on_c, 3, 69, 127
5, 1529, Note_on_c, 3, 69, 0
5, 1530, Note_on_c, 3, 70, 127
5, 1559, Note_on_c, 3, 70, 0
5, 1560, Note_on_c, 3, 72, 127
5, 1618, Note_on_c, 3, 72, 0
5, 1620, Note_on_c, 3, 81, 127
5, 1678, Note_on_c, 3, 81, 0
5, 1680, Note_on_c, 3, 79, 127
5, 1709, Note_on_c, 3, 79, 0
5, 1710, Note_on_c, 3, 81, 127
5, 1739, Note_on_c, 3, 81, 0
5, 1740, Note_on_c, 3, 82, 127
5, 1858, Note_on_c, 3, 82, 0
5, 1860, Note_on_c, 3, 79, 127
5, 1918, Note_on_c, 3, 79, 0
5, 1920, Note_on_c, 3, 81, 127
5, 2038, Note_on_c, 3, 81, 0
5, 2940, Note_on_c, 3, 79, 127
5, 2998, Note_on_c, 3, 79, 0
5, 3000, Note_on_c, 3, 79, 127
5, 3058, Note_on_c, 3, 79, 0
5, 3060, Note_on_c, 3, 79, 127
5, 3118, Note_on_c, 3, 79, 0
5, 3120, Note_on_c, 3, 81, 127
5, 3178, Note_on_c, 3, 81, 0
5, 3180, Note_on_c, 3, 81, 127
5, 3209, Note_on_c, 3, 81, 0
5, 3210, Note_on_c, 3, 79, 127
5, 3239, Note_on_c, 3, 79, 0
5, 3240, Note_on_c, 3, 81, 127
5, 3298, Note_on_c, 3, 81, 0
5, 3300, Note_on_c, 3, 82, 127
5, 3358, Note_on_c, 3, 82, 0
5, 3360, Note_on_c, 3, 79, 127
5, 3478, Note_on_c, 3, 79, 0
5, 3660, Note_on_c, 3, 67, 127
5, 3718, Note_on_c, 3, 67, 0
5, 3720, Note_on_c, 3, 67, 127
5, 3778, Note_on_c, 3, 67, 0
5, 3780, Note_on_c, 3, 67, 127
5, 3838, Note_on_c, 3, 67, 0
5, 3840, Note_on_c, 3, 69, 127
5, 3898, Note_on_c, 3, 69, 0
5, 3900, Note_on_c, 3, 69, 127
5, 3929, Note_on_c, 3, 69, 0
5, 3930, Note_on_c, 3, 67, 127
5, 3959, Note_on_c, 3, 67, 0
5, 3960, Note_on_c, 3, 69, 127
5, 4018, Note_on_c, 3, 69, 0
5, 4020, Note_on_c, 3, 70, 127
5, 4078, Note_on_c, 3, 70, 0
5, 4080, Note_on_c, 3, 67, 127
5, 4198, Note_on_c, 3, 67, 0
5, 4380, Note_on_c, 3, 72, 127
5, 4438, Note_on_c, 3, 72, 0
5, 4440, Note_on_c, 3, 72, 127
5, 4498, Note_on_c, 3, 72, 0
5, 4500, Note_on_c, 3, 74, 127
5, 4529, Note_on_c, 3, 74, 0
5, 4530, Note_on_c, 3, 76, 127
5, 4559, Note_on_c, 3, 76, 0
5, 4560, Note_on_c, 3, 77, 127
5, 4618, Note_on_c, 3, 77, 0
5, 4620, Note_on_c, 3, 65, 127
5, 4678, Note_on_c, 3, 65, 0
5, 4680, Note_on_c, 3, 77, 127
5, 4857, Note_on_c, 3, 77, 0
5, 4860, Note_on_c, 3, 79, 127
5, 4889, Note_on_c, 3, 79, 0
5, 4890, Note_on_c, 3, 77, 127
5, 4919, Note_on_c, 3, 77, 0
5, 4920, Note_on_c, 3, 76, 127
5, 4978, Note_on_c, 3, 76, 0
5, 4980, Note_on_c, 3, 74, 127
5, 5038, Note_on_c, 3, 74, 0
5, 5040, Note_on_c, 3, 79, 127
5, 5098, Note_on_c, 3, 79, 0
5, 5100, Note_on_c, 3, 67, 127
5, 5158, Note_on_c, 3, 67, 0
5, 5160, Note_on_c, 3, 79, 127
5, 5337, Note_on_c, 3, 79, 0
5, 5340, Note_on_c, 3, 81, 127
5, 5369, Note_on_c, 3, 81, 0
5, 5370, Note_on_c, 3, 79, 127
5, 5399, Note_on_c, 3, 79, 0
5, 5400, Note_on_c, 3, 77, 127
5, 5458, Note_on_c, 3, 77, 0
5, 5460, Note_on_c, 3, 76, 127
5, 5518, Note_on_c, 3, 76, 0
5, 5520, Note_on_c, 3, 81, 127
5, 5578, Note_on_c, 3, 81, 0
5, 5580, Note_on_c, 3, 69, 127
5, 5638, Note_on_c, 3, 69, 0
5, 5640, Note_on_c, 3, 81, 127
5, 5817, Note_on_c, 3, 81, 0
5, 5820, Note_on_c, 3, 82, 127
5, 5849, Note_on_c, 3, 82, 0
5, 5850, Note_on_c, 3, 81, 127
5, 5879, Note_on_c, 3, 81, 0
5, 5880, Note_on_c, 3, 79, 127
5, 5938, Note_on_c, 3, 79, 0
5, 5940, Note_on_c, 3, 77, 127
5, 5998, Note_on_c, 3, 77, 0
5, 6000, Note_on_c, 3, 82, 127
5, 6177, Note_on_c, 3, 82, 0
5, 6180, Note_on_c, 3, 82, 127
5, 6238, Note_on_c, 3, 82, 0
5, 6240, Note_on_c, 3, 82, 127
5, 6298, Note_on_c, 3, 82, 0
5, 6300, Note_on_c, 3, 81, 127
5, 6358, Note_on_c, 3, 81, 0
5, 6360, Pitch_bend_c, 3, 9216
5, 6360, Note_on_c, 3, 79, 127
5, 6363, Pitch_bend_c, 3, 7424
5, 6366, Pitch_bend_c, 3, 9088
5, 6368, Pitch_bend_c, 3, 7424
5, 6369, Pitch_bend_c, 3, 6912
5, 6370, Pitch_bend_c, 3, 8832
5, 6373, Pitch_bend_c, 3, 7552
5, 6375, Pitch_bend_c, 3, 9728
5, 6379, Pitch_bend_c, 3, 7424
5, 6383, Pitch_bend_c, 3, 9472
5, 6385, Pitch_bend_c, 3, 7296
5, 6386, Pitch_bend_c, 3, 7552
5, 6390, Pitch_bend_c, 3, 9216
5, 6394, Pitch_bend_c, 3, 7424
5, 6396, Pitch_bend_c, 3, 9088
5, 6398, Pitch_bend_c, 3, 9472
5, 6399, Pitch_bend_c, 3, 7552
5, 6403, Pitch_bend_c, 3, 8960
5, 6405, Pitch_bend_c, 3, 7424
5, 6406, Pitch_bend_c, 3, 6912
5, 6409, Pitch_bend_c, 3, 9600
5, 6412, Pitch_bend_c, 3, 7424
5, 6416, Pitch_bend_c, 3, 9088
5, 6419, Pitch_bend_c, 3, 7296
5, 6422, Pitch_bend_c, 3, 9728
5, 6423, Pitch_bend_c, 3, 7424
5, 6426, Pitch_bend_c, 3, 9088
5, 6429, Pitch_bend_c, 3, 7296
5, 6430, Pitch_bend_c, 3, 9088
5, 6434, Pitch_bend_c, 3, 9472
5, 6436, Pitch_bend_c, 3, 7424
5, 6440, Pitch_bend_c, 3, 9216
5, 6443, Pitch_bend_c, 3, 7168
5, 6445, Pitch_bend_c, 3, 9088
5, 6448, Pitch_bend_c, 3, 7552
5, 6450, Pitch_bend_c, 3, 9344
5, 6451, Pitch_bend_c, 3, 7296
5, 6456, Pitch_bend_c, 3, 7424
5, 6458, Pitch_bend_c, 3, 9344
5, 6460, Pitch_bend_c, 3, 8960
5, 6461, Pitch_bend_c, 3, 9216
5, 6464, Pitch_bend_c, 3, 7040
5, 6466, Pitch_bend_c, 3, 9344
5, 6470, Pitch_bend_c, 3, 7552
5, 6475, Pitch_bend_c, 3, 8832
5, 6478, Note_on_c, 3, 79, 0
5, 6480, Note_on_c, 3, 77, 127
5, 6485, Pitch_bend_c, 3, 8448
5, 6598, Note_on_c, 3, 77, 0
5, 9660, Note_on_c, 3, 72, 127
5, 9718, Note_on_c, 3, 72, 0
5, 9720, Note_on_c, 3, 76, 127
5, 9778, Note_on_c, 3, 76, 0
5, 9780, Note_on_c, 3, 79, 127
5, 9838, Note_on_c, 3, 79, 0
5, 9840, Note_on_c, 3, 84, 127
5, 9898, Note_on_c, 3, 84, 0
5, 9900, Note_on_c, 3, 83, 127
5, 9929, Note_on_c, 3, 83, 0
5, 9930, Note_on_c, 3, 81, 127
5, 9959, Note_on_c, 3, 81, 0
5, 9960, Note_on_c, 3, 79, 127
5, 10018, Note_on_c, 3, 79, 0
5, 10020, Note_on_c, 3, 77, 127
5, 10078, Note_on_c, 3, 77, 0
5, 10080, Note_on_c, 3, 76, 127
5, 10138, Note_on_c, 3, 76, 0
5, 10140, Note_on_c, 3, 72, 127
5, 10198, Note_on_c, 3, 72, 0
5, 10200, Note_on_c, 3, 67, 127
5, 10258, Note_on_c, 3, 67, 0
5, 10260, Note_on_c, 3, 74, 127
5, 10318, Note_on_c, 3, 74, 0
5, 10320, Note_on_c, 3, 76, 127
5, 10378, Note_on_c, 3, 76, 0
5, 10380, Note_on_c, 3, 74, 127
5, 10408, Note_on_c, 3, 74, 0
5, 10410, Note_on_c, 3, 72, 127
5, 10438, Note_on_c, 3, 72, 0
5, 10440, Note_on_c, 3, 71, 127
5, 10498, Note_on_c, 3, 71, 0
5, 10500, Note_on_c, 3, 69, 127
5, 10558, Note_on_c, 3, 69, 0
5, 10560, Note_on_c, 3, 67, 127
5, 10618, Note_on_c, 3, 67, 0
5, 10620, Note_on_c, 3, 76, 127
5, 10678, Note_on_c, 3, 76, 0
5, 10678, Pitch_bend_c, 3, 9216
5, 10680, Note_on_c, 3, 74, 127
5, 10681, Pitch_bend_c, 3, 7424
5, 10684, Pitch_bend_c, 3, 9088
5, 10686, Pitch_bend_c, 3, 7424
5, 10687, Pitch_bend_c, 3, 6912
5, 10688, Pitch_bend_c, 3, 8832
5, 10691, Pitch_bend_c, 3, 7552
5, 10693, Pitch_bend_c, 3, 9728
5, 10697, Pitch_bend_c, 3, 7424
5, 10701, Pitch_bend_c, 3, 9472
5, 10703, Pitch_bend_c, 3, 7296
5, 10704, Pitch_bend_c, 3, 7552
5, 10708, Pitch_bend_c, 3, 9216
5, 10712, Pitch_bend_c, 3, 7424
5, 10714, Pitch_bend_c, 3, 9088
5, 10716, Pitch_bend_c, 3, 9472
5, 10717, Pitch_bend_c, 3, 7552
5, 10721, Pitch_bend_c, 3, 8960
5, 10723, Pitch_bend_c, 3, 7424
5, 10724, Pitch_bend_c, 3, 6912
5, 10727, Pitch_bend_c, 3, 9600
5, 10730, Pitch_bend_c, 3, 7424
5, 10734, Pitch_bend_c, 3, 9088
5, 10737, Pitch_bend_c, 3, 7296
5, 10740, Pitch_bend_c, 3, 9728
5, 10741, Pitch_bend_c, 3, 7424
5, 10744, Pitch_bend_c, 3, 9088
5, 10747, Pitch_bend_c, 3, 7296
5, 10748, Pitch_bend_c, 3, 9088
5, 10752, Pitch_bend_c, 3, 9472
5, 10754, Pitch_bend_c, 3, 7424
5, 10758, Pitch_bend_c, 3, 9216
5, 10761, Pitch_bend_c, 3, 7168
5, 10763, Pitch_bend_c, 3, 9088
5, 10766, Pitch_bend_c, 3, 7552
5, 10768, Pitch_bend_c, 3, 9344
5, 10769, Pitch_bend_c, 3, 7296
5, 10774, Pitch_bend_c, 3, 7424
5, 10776, Pitch_bend_c, 3, 9344
5, 10778, Pitch_bend_c, 3, 8960
5, 10779, Pitch_bend_c, 3, 9216
5, 10782, Pitch_bend_c, 3, 7040
5, 10784, Pitch_bend_c, 3, 9344
5, 10788, Pitch_bend_c, 3, 7552
5, 10793, Pitch_bend_c, 3, 8832
5, 10798, Note_on_c, 3, 74, 0
5, 10800, Note_on_c, 3, 76, 127
5, 10803, Pitch_bend_c, 3, 8448
5, 10918, Note_on_c, 3, 76, 0
5, 15420, Note_on_c, 3, 79, 127
5, 15478, Note_on_c, 3, 79, 0
5, 15480, Note_on_c, 3, 79, 127
5, 15538, Note_on_c, 3, 79, 0
5, 15540, Note_on_c, 3, 79, 127
5, 15598, Note_on_c, 3, 79, 0
5, 15600, Note_on_c, 3, 81, 127
5, 15658, Note_on_c, 3, 81, 0
5, 15660, Note_on_c, 3, 81, 127
5, 15689, Note_on_c, 3, 81, 0
5, 15690, Note_on_c, 3, 79, 127
5, 15719, Note_on_c, 3, 79, 0
5, 15720, Note_on_c, 3, 81, 127
5, 15778, Note_on_c, 3, 81, 0
5, 15780, Note_on_c, 3, 82, 127
5, 15838, Note_on_c, 3, 82, 0
5, 15840, Note_on_c, 3, 79, 127
5, 15958, Note_on_c, 3, 79, 0
5, 16140, Note_on_c, 3, 67, 127
5, 16198, Note_on_c, 3, 67, 0
5, 16200, Note_on_c, 3, 67, 127
5, 16258, Note_on_c, 3, 67, 0
5, 16260, Note_on_c, 3, 67, 127
5, 16318, Note_on_c, 3, 67, 0
5, 16320, Note_on_c, 3, 69, 127
5, 16378, Note_on_c, 3, 69, 0
5, 16380, Note_on_c, 3, 69, 127
5, 16409, Note_on_c, 3, 69, 0
5, 16410, Note_on_c, 3, 67, 127
5, 16439, Note_on_c, 3, 67, 0
5, 16440, Note_on_c, 3, 69, 127
5, 16498, Note_on_c, 3, 69, 0
5, 16500, Note_on_c, 3, 70, 127
5, 16558, Note_on_c, 3, 70, 0
5, 16560, Note_on_c, 3, 67, 127
5, 16678, Note_on_c, 3, 67, 0
5, 17580, Note_on_c, 3, 72, 127
5, 17638, Note_on_c, 3, 72, 0
5, 17640, Note_on_c, 3, 72, 127
5, 17698, Note_on_c, 3, 72, 0
5, 17700, Note_on_c, 3, 74, 127
5, 17729, Note_on_c, 3, 74, 0
5, 17730, Note_on_c, 3, 76, 127
5, 17759, Note_on_c, 3, 76, 0
5, 17760, Note_on_c, 3, 77, 127
5, 17818, Note_on_c, 3, 77, 0
5, 17820, Note_on_c, 3, 65, 127
5, 17878, Note_on_c, 3, 65, 0
5, 17880, Note_on_c, 3, 77, 127
5, 18057, Note_on_c, 3, 77, 0
5, 18060, Note_on_c, 3, 79, 127
5, 18089, Note_on_c, 3, 79, 0
5, 18090, Note_on_c, 3, 77, 127
5, 18119, Note_on_c, 3, 77, 0
5, 18120, Note_on_c, 3, 76, 127
5, 18178, Note_on_c, 3, 76, 0
5, 18180, Note_on_c, 3, 74, 127
5, 18238, Note_on_c, 3, 74, 0
5, 18240, Note_on_c, 3, 79, 127
5, 18298, Note_on_c, 3, 79, 0
5, 18300, Note_on_c, 3, 67, 127
5, 18358, Note_on_c, 3, 67, 0
5, 18360, Note_on_c, 3, 79, 127
5, 18537, Note_on_c, 3, 79, 0
5, 18540, Note_on_c, 3, 81, 127
5, 18569, Note_on_c, 3, 81, 0
5, 18570, Note_on_c, 3, 79, 127
5, 18599, Note_on_c, 3, 79, 0
5, 18600, Note_on_c, 3, 77, 127
5, 18658, Note_on_c, 3, 77, 0
5, 18660, Note_on_c, 3, 76, 127
5, 18718, Note_on_c, 3, 76, 0
5, 18720, Note_on_c, 3, 81, 127
5, 18778, Note_on_c, 3, 81, 0
5, 18780, Note_on_c, 3, 77, 127
5, 18898, Note_on_c, 3, 77, 0
5, 18900, Note_on_c, 3, 76, 127
5, 18958, Note_on_c, 3, 76, 0
5, 18960, Note_on_c, 3, 77, 127
5, 19018, Note_on_c, 3, 77, 0
5, 19020, Note_on_c, 3, 69, 127
5, 19078, Note_on_c, 3, 69, 0
5, 19080, Note_on_c, 3, 67, 127
5, 19198, Note_on_c, 3, 67, 0
5, 19200, Note_on_c, 3, 65, 127
5, 19437, Note_on_c, 3, 65, 0
5, 19437, End_track
6, 0, Start_track
6, 0, MIDI_port, 0
6, 0, Title_t, "Oboe2"
6, 0, Program_c, 4, 68
6, 0, Control_c, 4, 7, 30
6, 0, Control_c, 4, 10, 45
6, 0, Control_c, 4, 11, 127
6, 0, Control_c, 4, 8, 64
6, 540, Note_on_c, 4, 65, 127
6, 598, Note_on_c, 4, 65, 0
6, 600, Note_on_c, 4, 69, 127
6, 658, Note_on_c, 4, 69, 0
6, 660, Note_on_c, 4, 72, 127
6, 718, Note_on_c, 4, 72, 0
6, 720, Note_on_c, 4, 77, 127
6, 778, Note_on_c, 4, 77, 0
6, 780, Note_on_c, 4, 76, 127
6, 809, Note_on_c, 4, 76, 0
6, 810, Note_on_c, 4, 74, 127
6, 839, Note_on_c, 4, 74, 0
6, 840, Note_on_c, 4, 72, 127
6, 898, Note_on_c, 4, 72, 0
6, 900, Note_on_c, 4, 70, 127
6, 958, Note_on_c, 4, 70, 0
6, 960, Note_on_c, 4, 69, 127
6, 1018, Note_on_c, 4, 69, 0
6, 1020, Note_on_c, 4, 65, 127
6, 1049, Note_on_c, 4, 65, 0
6, 1050, Note_on_c, 4, 67, 127
6, 1079, Note_on_c, 4, 67, 0
6, 1080, Note_on_c, 4, 69, 127
6, 1138, Note_on_c, 4, 69, 0
6, 1140, Note_on_c, 4, 77, 127
6, 1198, Note_on_c, 4, 77, 0
6, 1200, Note_on_c, 4, 76, 127
6, 1229, Note_on_c, 4, 76, 0
6, 1230, Note_on_c, 4, 77, 127
6, 1259, Note_on_c, 4, 77, 0
6, 1260, Note_on_c, 4, 79, 127
6, 1378, Note_on_c, 4, 79, 0
6, 1380, Note_on_c, 4, 76, 127
6, 1438, Note_on_c, 4, 76, 0
6, 1440, Note_on_c, 4, 77, 127
6, 1498, Note_on_c, 4, 77, 0
6, 1500, Note_on_c, 4, 65, 127
6, 1529, Note_on_c, 4, 65, 0
6, 1530, Note_on_c, 4, 67, 127
6, 1559, Note_on_c, 4, 67, 0
6, 1560, Note_on_c, 4, 69, 127
6, 1618, Note_on_c, 4, 69, 0
6, 1620, Note_on_c, 4, 77, 127
6, 1678, Note_on_c, 4, 77, 0
6, 1680, Note_on_c, 4, 76, 127
6, 1709, Note_on_c, 4, 76, 0
6, 1710, Note_on_c, 4, 77, 127
6, 1739, Note_on_c, 4, 77, 0
6, 1740, Note_on_c, 4, 79, 127
6, 1858, Note_on_c, 4, 79, 0
6, 1860, Note_on_c, 4, 76, 127
6, 1918, Note_on_c, 4, 76, 0
6, 1920, Note_on_c, 4, 77, 127
6, 2038, Note_on_c, 4, 77, 0
6, 2940, Note_on_c, 4, 76, 127
6, 2998, Note_on_c, 4, 76, 0
6, 3000, Note_on_c, 4, 76, 127
6, 3058, Note_on_c, 4, 76, 0
6, 3060, Note_on_c, 4, 76, 127
6, 3118, Note_on_c, 4, 76, 0
6, 3120, Note_on_c, 4, 77, 127
6, 3178, Note_on_c, 4, 77, 0
6, 3180, Note_on_c, 4, 77, 127
6, 3209, Note_on_c, 4, 77, 0
6, 3210, Note_on_c, 4, 76, 127
6, 3239, Note_on_c, 4, 76, 0
6, 3240, Note_on_c, 4, 77, 127
6, 3298, Note_on_c, 4, 77, 0
6, 3300, Note_on_c, 4, 79, 127
6, 3358, Note_on_c, 4, 79, 0
6, 3360, Note_on_c, 4, 76, 127
6, 3478, Note_on_c, 4, 76, 0
6, 3660, Note_on_c, 4, 64, 127
6, 3718, Note_on_c, 4, 64, 0
6, 3720, Note_on_c, 4, 64, 127
6, 3778, Note_on_c, 4, 64, 0
6, 3780, Note_on_c, 4, 64, 127
6, 3838, Note_on_c, 4, 64, 0
6, 3840, Note_on_c, 4, 65, 127
6, 3898, Note_on_c, 4, 65, 0
6, 3900, Note_on_c, 4, 65, 127
6, 3929, Note_on_c, 4, 65, 0
6, 3930, Note_on_c, 4, 64, 127
6, 3959, Note_on_c, 4, 64, 0
6, 3960, Note_on_c, 4, 65, 127
6, 4018, Note_on_c, 4, 65, 0
6, 4020, Note_on_c, 4, 67, 127
6, 4078, Note_on_c, 4, 67, 0
6, 4080, Note_on_c, 4, 64, 127
6, 4198, Note_on_c, 4, 64, 0
6, 4620, Note_on_c, 4, 69, 127
6, 4678, Note_on_c, 4, 69, 0
6, 4680, Note_on_c, 4, 69, 127
6, 4738, Note_on_c, 4, 69, 0
6, 4740, Note_on_c, 4, 70, 127
6, 4769, Note_on_c, 4, 70, 0
6, 4770, Note_on_c, 4, 72, 127
6, 4799, Note_on_c, 4, 72, 0
6, 4800, Note_on_c, 4, 74, 127
6, 4858, Note_on_c, 4, 74, 0
6, 4860, Note_on_c, 4, 62, 127
6, 4918, Note_on_c, 4, 62, 0
6, 4920, Note_on_c, 4, 74, 127
6, 5097, Note_on_c, 4, 74, 0
6, 5100, Note_on_c, 4, 76, 127
6, 5129, Note_on_c, 4, 76, 0
6, 5130, Note_on_c, 4, 74, 127
6, 5159, Note_on_c, 4, 74, 0
6, 5160, Note_on_c, 4, 72, 127
6, 5218, Note_on_c, 4, 72, 0
6, 5220, Note_on_c, 4, 70, 127
6, 5278, Note_on_c, 4, 70, 0
6, 5280, Note_on_c, 4, 76, 127
6, 5338, Note_on_c, 4, 76, 0
6, 5340, Note_on_c, 4, 64, 127
6, 5398, Note_on_c, 4, 64, 0
6, 5400, Note_on_c, 4, 76, 127
6, 5577, Note_on_c, 4, 76, 0
6, 5580, Note_on_c, 4, 77, 127
6, 5609, Note_on_c, 4, 77, 0
6, 5610, Note_on_c, 4, 76, 127
6, 5639, Note_on_c, 4, 76, 0
6, 5640, Note_on_c, 4, 74, 127
6, 5698, Note_on_c, 4, 74, 0
6, 5700, Note_on_c, 4, 72, 127
6, 5758, Note_on_c, 4, 72, 0
6, 5760, Note_on_c, 4, 77, 127
6, 5818, Note_on_c, 4, 77, 0
6, 5820, Note_on_c, 4, 65, 127
6, 5878, Note_on_c, 4, 65, 0
6, 5880, Note_on_c, 4, 77, 127
6, 6057, Note_on_c, 4, 77, 0
6, 6060, Note_on_c, 4, 79, 127
6, 6089, Note_on_c, 4, 79, 0
6, 6090, Note_on_c, 4, 77, 127
6, 6119, Note_on_c, 4, 77, 0
6, 6120, Note_on_c, 4, 76, 127
6, 6178, Note_on_c, 4, 76, 0
6, 6180, Note_on_c, 4, 74, 127
6, 6238, Note_on_c, 4, 74, 0
6, 6240, Note_on_c, 4, 79, 127
6, 6298, Note_on_c, 4, 79, 0
6, 6300, Note_on_c, 4, 77, 127
6, 6418, Note_on_c, 4, 77, 0
6, 6420, Note_on_c, 4, 76, 127
6, 6478, Note_on_c, 4, 76, 0
6, 6480, Note_on_c, 4, 77, 127
6, 6598, Note_on_c, 4, 77, 0
6, 10140, Note_on_c, 4, 72, 127
6, 10198, Note_on_c, 4, 72, 0
6, 10200, Note_on_c, 4, 76, 127
6, 10258, Note_on_c, 4, 76, 0
6, 10260, Note_on_c, 4, 79, 127
6, 10318, Note_on_c, 4, 79, 0
6, 10320, Note_on_c, 4, 84, 127
6, 10378, Note_on_c, 4, 84, 0
6, 10380, Note_on_c, 4, 83, 127
6, 10409, Note_on_c, 4, 83, 0
6, 10410, Note_on_c, 4, 81, 127
6, 10439, Note_on_c, 4, 81, 0
6, 10440, Note_on_c, 4, 79, 127
6, 10498, Note_on_c, 4, 79, 0
6, 10500, Note_on_c, 4, 77, 127
6, 10558, Note_on_c, 4, 77, 0
6, 10560, Note_on_c, 4, 76, 127
6, 10618, Note_on_c, 4, 76, 0
6, 10620, Note_on_c, 4, 72, 127
6, 10738, Note_on_c, 4, 72, 0
6, 10740, Note_on_c, 4, 71, 127
6, 10798, Note_on_c, 4, 71, 0
6, 10800, Note_on_c, 4, 72, 127
6, 10918, Note_on_c, 4, 72, 0
6, 15420, Note_on_c, 4, 76, 127
6, 15478, Note_on_c, 4, 76, 0
6, 15480, Note_on_c, 4, 76, 127
6, 15538, Note_on_c, 4, 76, 0
6, 15540, Note_on_c, 4, 76, 127
6, 15598, Note_on_c, 4, 76, 0
6, 15600, Note_on_c, 4, 77, 127
6, 15658, Note_on_c, 4, 77, 0
6, 15660, Note_on_c, 4, 77, 127
6, 15689, Note_on_c, 4, 77, 0
6, 15690, Note_on_c, 4, 76, 127
6, 15719, Note_on_c, 4, 76, 0
6, 15720, Note_on_c, 4, 77, 127
6, 15778, Note_on_c, 4, 77, 0
6, 15780, Note_on_c, 4, 79, 127
6, 15838, Note_on_c, 4, 79, 0
6, 15840, Note_on_c, 4, 76, 127
6, 15958, Note_on_c, 4, 76, 0
6, 16140, Note_on_c, 4, 64, 127
6, 16198, Note_on_c, 4, 64, 0
6, 16200, Note_on_c, 4, 64, 127
6, 16258, Note_on_c, 4, 64, 0
6, 16260, Note_on_c, 4, 64, 127
6, 16318, Note_on_c, 4, 64, 0
6, 16320, Note_on_c, 4, 65, 127
6, 16378, Note_on_c, 4, 65, 0
6, 16380, Note_on_c, 4, 65, 127
6, 16409, Note_on_c, 4, 65, 0
6, 16410, Note_on_c, 4, 64, 127
6, 16439, Note_on_c, 4, 64, 0
6, 16440, Note_on_c, 4, 65, 127
6, 16498, Note_on_c, 4, 65, 0
6, 16500, Note_on_c, 4, 67, 127
6, 16558, Note_on_c, 4, 67, 0
6, 16560, Note_on_c, 4, 64, 127
6, 16678, Note_on_c, 4, 64, 0
6, 17820, Note_on_c, 4, 69, 127
6, 17878, Note_on_c, 4, 69, 0
6, 17880, Note_on_c, 4, 69, 127
6, 17938, Note_on_c, 4, 69, 0
6, 17940, Note_on_c, 4, 70, 127
6, 17969, Note_on_c, 4, 70, 0
6, 17970, Note_on_c, 4, 72, 127
6, 17999, Note_on_c, 4, 72, 0
6, 18000, Note_on_c, 4, 74, 127
6, 18058, Note_on_c, 4, 74, 0
6, 18060, Note_on_c, 4, 62, 127
6, 18118, Note_on_c, 4, 62, 0
6, 18120, Note_on_c, 4, 74, 127
6, 18297, Note_on_c, 4, 74, 0
6, 18300, Note_on_c, 4, 76, 127
6, 18329, Note_on_c, 4, 76, 0
6, 18330, Note_on_c, 4, 74, 127
6, 18359, Note_on_c, 4, 74, 0
6, 18360, Note_on_c, 4, 72, 127
6, 18418, Note_on_c, 4, 72, 0
6, 18420, Note_on_c, 4, 70, 127
6, 18478, Note_on_c, 4, 70, 0
6, 18480, Note_on_c, 4, 76, 127
6, 18538, Note_on_c, 4, 76, 0
6, 18540, Note_on_c, 4, 64, 127
6, 18598, Note_on_c, 4, 64, 0
6, 18600, Note_on_c, 4, 76, 127
6, 18718, Note_on_c, 4, 76, 0
6, 18720, Note_on_c, 4, 77, 127
6, 18778, Note_on_c, 4, 77, 0
6, 18780, Note_on_c, 4, 69, 127
6, 18838, Note_on_c, 4, 69, 0
6, 18840, Note_on_c, 4, 67, 127
6, 18958, Note_on_c, 4, 67, 0
6, 18960, Note_on_c, 4, 69, 127
6, 19018, Note_on_c, 4, 69, 0
6, 19020, Note_on_c, 4, 65, 127
6, 19138, Note_on_c, 4, 65, 0
6, 19140, Note_on_c, 4, 64, 127
6, 19198, Note_on_c, 4, 64, 0
6, 19200, Note_on_c, 4, 65, 127
6, 19437, Note_on_c, 4, 65, 0
6, 19437, End_track
7, 0, Start_track
7, 0, MIDI_port, 0
7, 0, Title_t, "Violini1"
7, 0, Program_c, 5, 48
7, 0, Control_c, 5, 7, 35
7, 0, Control_c, 5, 10, 50
7, 0, Control_c, 5, 11, 127
7, 0, Control_c, 5, 8, 64
7, 1920, Note_on_c, 5, 65, 127
7, 1949, Note_on_c, 5, 65, 0
7, 1950, Note_on_c, 5, 72, 127
7, 1979, Note_on_c, 5, 72, 0
7, 1980, Note_on_c, 5, 70, 127
7, 2009, Note_on_c, 5, 70, 0
7, 2010, Note_on_c, 5, 72, 127
7, 2039, Note_on_c, 5, 72, 0
7, 2040, Note_on_c, 5, 69, 127
7, 2069, Note_on_c, 5, 69, 0
7, 2070, Note_on_c, 5, 72, 127
7, 2099, Note_on_c, 5, 72, 0
7, 2100, Note_on_c, 5, 67, 127
7, 2129, Note_on_c, 5, 67, 0
7, 2130, Note_on_c, 5, 72, 127
7, 2159, Note_on_c, 5, 72, 0
7, 2160, Note_on_c, 5, 65, 127
7, 2189, Note_on_c, 5, 65, 0
7, 2190, Note_on_c, 5, 69, 127
7, 2219, Note_on_c, 5, 69, 0
7, 2220, Note_on_c, 5, 67, 127
7, 2249, Note_on_c, 5, 67, 0
7, 2250, Note_on_c, 5, 69, 127
7, 2279, Note_on_c, 5, 69, 0
7, 2280, Note_on_c, 5, 65, 127
7, 2309, Note_on_c, 5, 65, 0
7, 2310, Note_on_c, 5, 69, 127
7, 2339, Note_on_c, 5, 69, 0
7, 2340, Note_on_c, 5, 64, 127
7, 2369, Note_on_c, 5, 64, 0
7, 2370, Note_on_c, 5, 69, 127
7, 2399, Note_on_c, 5, 69, 0
7, 2400, Note_on_c, 5, 62, 127
7, 2429, Note_on_c, 5, 62, 0
7, 2430, Note_on_c, 5, 74, 127
7, 2459, Note_on_c, 5, 74, 0
7, 2460, Note_on_c, 5, 72, 127
7, 2489, Note_on_c, 5, 72, 0
7, 2490, Note_on_c, 5, 74, 127
7, 2519, Note_on_c, 5, 74, 0
7, 2520, Note_on_c, 5, 70, 127
7, 2549, Note_on_c, 5, 70, 0
7, 2550, Note_on_c, 5, 74, 127
7, 2579, Note_on_c, 5, 74, 0
7, 2580, Note_on_c, 5, 69, 127
7, 2609, Note_on_c, 5, 69, 0
7, 2610, Note_on_c, 5, 74, 127
7, 2639, Note_on_c, 5, 74, 0
7, 2640, Note_on_c, 5, 67, 127
7, 2669, Note_on_c, 5, 67, 0
7, 2670, Note_on_c, 5, 70, 127
7, 2699, Note_on_c, 5, 70, 0
7, 2700, Note_on_c, 5, 69, 127
7, 2729, Note_on_c, 5, 69, 0
7, 2730, Note_on_c, 5, 70, 127
7, 2759, Note_on_c, 5, 70, 0
7, 2760, Note_on_c, 5, 67, 127
7, 2789, Note_on_c, 5, 67, 0
7, 2790, Note_on_c, 5, 70, 127
7, 2819, Note_on_c, 5, 70, 0
7, 2820, Note_on_c, 5, 65, 127
7, 2849, Note_on_c, 5, 65, 0
7, 2850, Note_on_c, 5, 70, 127
7, 2879, Note_on_c, 5, 70, 0
7, 2880, Note_on_c, 5, 64, 127
7, 2938, Note_on_c, 5, 64, 0
7, 2940, Note_on_c, 5, 60, 127
7, 2998, Note_on_c, 5, 60, 0
7, 3390, Note_on_c, 5, 72, 127
7, 3419, Note_on_c, 5, 72, 0
7, 3420, Note_on_c, 5, 67, 127
7, 3449, Note_on_c, 5, 67, 0
7, 3450, Note_on_c, 5, 72, 127
7, 3479, Note_on_c, 5, 72, 0
7, 3480, Note_on_c, 5, 64, 127
7, 3509, Note_on_c, 5, 64, 0
7, 3510, Note_on_c, 5, 72, 127
7, 3539, Note_on_c, 5, 72, 0
7, 3540, Note_on_c, 5, 62, 127
7, 3569, Note_on_c, 5, 62, 0
7, 3570, Note_on_c, 5, 72, 127
7, 3599, Note_on_c, 5, 72, 0
7, 3600, Note_on_c, 5, 60, 127
7, 3718, Note_on_c, 5, 60, 0
7, 4110, Note_on_c, 5, 72, 127
7, 4139, Note_on_c, 5, 72, 0
7, 4140, Note_on_c, 5, 67, 127
7, 4169, Note_on_c, 5, 67, 0
7, 4170, Note_on_c, 5, 72, 127
7, 4199, Note_on_c, 5, 72, 0
7, 4200, Note_on_c, 5, 64, 127
7, 4229, Note_on_c, 5, 64, 0
7, 4230, Note_on_c, 5, 72, 127
7, 4259, Note_on_c, 5, 72, 0
7, 4260, Note_on_c, 5, 62, 127
7, 4289, Note_on_c, 5, 62, 0
7, 4290, Note_on_c, 5, 72, 127
7, 4319, Note_on_c, 5, 72, 0
7, 4320, Note_on_c, 5, 60, 127
7, 4378, Note_on_c, 5, 60, 0
7, 4380, Note_on_c, 5, 72, 127
7, 4438, Note_on_c, 5, 72, 0
7, 4440, Note_on_c, 5, 72, 127
7, 4498, Note_on_c, 5, 72, 0
7, 4500, Note_on_c, 5, 74, 127
7, 4529, Note_on_c, 5, 74, 0
7, 4530, Note_on_c, 5, 76, 127
7, 4559, Note_on_c, 5, 76, 0
7, 4560, Note_on_c, 5, 77, 127
7, 4618, Note_on_c, 5, 77, 0
7, 4620, Note_on_c, 5, 65, 127
7, 4678, Note_on_c, 5, 65, 0
7, 4680, Note_on_c, 5, 77, 127
7, 4857, Note_on_c, 5, 77, 0
7, 4860, Note_on_c, 5, 79, 127
7, 4889, Note_on_c, 5, 79, 0
7, 4890, Note_on_c, 5, 77, 127
7, 4919, Note_on_c, 5, 77, 0
7, 4920, Note_on_c, 5, 76, 127
7, 4978, Note_on_c, 5, 76, 0
7, 4980, Note_on_c, 5, 74, 127
7, 5038, Note_on_c, 5, 74, 0
7, 5040, Note_on_c, 5, 79, 127
7, 5098, Note_on_c, 5, 79, 0
7, 5100, Note_on_c, 5, 67, 127
7, 5158, Note_on_c, 5, 67, 0
7, 5160, Note_on_c, 5, 79, 127
7, 5338, Note_on_c, 5, 79, 0
7, 5340, Note_on_c, 5, 81, 127
7, 5369, Note_on_c, 5, 81, 0
7, 5370, Note_on_c, 5, 79, 127
7, 5399, Note_on_c, 5, 79, 0
7, 5400, Note_on_c, 5, 77, 127
7, 5458, Note_on_c, 5, 77, 0
7, 5460, Note_on_c, 5, 76, 127
7, 5518, Note_on_c, 5, 76, 0
7, 5520, Note_on_c, 5, 81, 127
7, 5578, Note_on_c, 5, 81, 0
7, 5580, Note_on_c, 5, 69, 127
7, 5638, Note_on_c, 5, 69, 0
7, 5640, Note_on_c, 5, 81, 127
7, 5817, Note_on_c, 5, 81, 0
7, 5820, Note_on_c, 5, 82, 127
7, 5849, Note_on_c, 5, 82, 0
7, 5850, Note_on_c, 5, 81, 127
7, 5879, Note_on_c, 5, 81, 0
7, 5880, Note_on_c, 5, 79, 127
7, 5938, Note_on_c, 5, 79, 0
7, 5940, Note_on_c, 5, 77, 127
7, 5998, Note_on_c, 5, 77, 0
7, 6000, Note_on_c, 5, 82, 127
7, 6177, Note_on_c, 5, 82, 0
7, 6180, Note_on_c, 5, 82, 127
7, 6238, Note_on_c, 5, 82, 0
7, 6240, Note_on_c, 5, 82, 127
7, 6298, Note_on_c, 5, 82, 0
7, 6300, Note_on_c, 5, 81, 127
7, 6358, Note_on_c, 5, 81, 0
7, 6360, Pitch_bend_c, 5, 9216
7, 6360, Note_on_c, 5, 79, 127
7, 6372, Pitch_bend_c, 5, 7680
7, 6379, Pitch_bend_c, 5, 8832
7, 6385, Pitch_bend_c, 5, 7424
7, 6392, Pitch_bend_c, 5, 8960
7, 6398, Pitch_bend_c, 5, 7680
7, 6410, Pitch_bend_c, 5, 9344
7, 6424, Pitch_bend_c, 5, 7680
7, 6430, Pitch_bend_c, 5, 8832
7, 6431, Pitch_bend_c, 5, 9344
7, 6435, Pitch_bend_c, 5, 7296
7, 6440, Pitch_bend_c, 5, 9216
7, 6446, Pitch_bend_c, 5, 7680
7, 6457, Pitch_bend_c, 5, 8832
7, 6458, Pitch_bend_c, 5, 9088
7, 6469, Pitch_bend_c, 5, 7936
7, 6470, Pitch_bend_c, 5, 7168
7, 6478, Note_on_c, 5, 79, 0
7, 6480, Pitch_bend_c, 5, 8320
7, 6480, Note_on_c, 5, 77, 127
7, 6598, Note_on_c, 5, 77, 0
7, 9660, Note_on_c, 5, 72, 127
7, 9718, Note_on_c, 5, 72, 0
7, 9720, Note_on_c, 5, 76, 127
7, 9778, Note_on_c, 5, 76, 0
7, 9780, Note_on_c, 5, 79, 127
7, 9838, Note_on_c, 5, 79, 0
7, 9840, Note_on_c, 5, 84, 127
7, 9898, Note_on_c, 5, 84, 0
7, 9900, Note_on_c, 5, 83, 127
7, 9929, Note_on_c, 5, 83, 0
7, 9930, Note_on_c, 5, 81, 127
7, 9959, Note_on_c, 5, 81, 0
7, 9960, Note_on_c, 5, 79, 127
7, 10018, Note_on_c, 5, 79, 0
7, 10020, Note_on_c, 5, 77, 127
7, 10078, Note_on_c, 5, 77, 0
7, 10080, Note_on_c, 5, 76, 127
7, 10138, Note_on_c, 5, 76, 0
7, 10140, Note_on_c, 5, 72, 127
7, 10198, Note_on_c, 5, 72, 0
7, 10200, Note_on_c, 5, 67, 127
7, 10258, Note_on_c, 5, 67, 0
7, 10260, Note_on_c, 5, 74, 127
7, 10318, Note_on_c, 5, 74, 0
7, 10320, Note_on_c, 5, 76, 127
7, 10378, Note_on_c, 5, 76, 0
7, 10380, Note_on_c, 5, 74, 127
7, 10409, Note_on_c, 5, 74, 0
7, 10410, Note_on_c, 5, 72, 127
7, 10438, Note_on_c, 5, 72, 0
7, 10440, Note_on_c, 5, 71, 127
7, 10498, Note_on_c, 5, 71, 0
7, 10500, Note_on_c, 5, 69, 127
7, 10559, Note_on_c, 5, 69, 0
7, 10560, Note_on_c, 5, 67, 127
7, 10618, Note_on_c, 5, 67, 0
7, 10620, Note_on_c, 5, 76, 127
7, 10678, Note_on_c, 5, 76, 0
7, 10679, Pitch_bend_c, 5, 9216
7, 10680, Note_on_c, 5, 74, 127
7, 10691, Pitch_bend_c, 5, 7680
7, 10698, Pitch_bend_c, 5, 8832
7, 10704, Pitch_bend_c, 5, 7424
7, 10711, Pitch_bend_c, 5, 8960
7, 10717, Pitch_bend_c, 5, 7680
7, 10729, Pitch_bend_c, 5, 9344
7, 10743, Pitch_bend_c, 5, 7680
7, 10749, Pitch_bend_c, 5, 8832
7, 10750, Pitch_bend_c, 5, 9344
7, 10754, Pitch_bend_c, 5, 7296
7, 10759, Pitch_bend_c, 5, 9216
7, 10765, Pitch_bend_c, 5, 7680
7, 10776, Pitch_bend_c, 5, 8832
7, 10777, Pitch_bend_c, 5, 9088
7, 10788, Pitch_bend_c, 5, 7936
7, 10789, Pitch_bend_c, 5, 7168
7, 10798, Note_on_c, 5, 74, 0
7, 10799, Pitch_bend_c, 5, 8320
7, 10800, Note_on_c, 5, 76, 127
7, 10918, Note_on_c, 5, 76, 0
7, 15840, Note_on_c, 5, 60, 127
7, 15869, Note_on_c, 5, 60, 0
7, 15870, Note_on_c, 5, 72, 127
7, 15899, Note_on_c, 5, 72, 0
7, 15900, Note_on_c, 5, 70, 127
7, 15929, Note_on_c, 5, 70, 0
7, 15930, Note_on_c, 5, 72, 127
7, 15959, Note_on_c, 5, 72, 0
7, 15960, Note_on_c, 5, 64, 127
7, 15989, Note_on_c, 5, 64, 0
7, 15990, Note_on_c, 5, 72, 127
7, 16019, Note_on_c, 5, 72, 0
7, 16020, Note_on_c, 5, 62, 127
7, 16049, Note_on_c, 5, 62, 0
7, 16050, Note_on_c, 5, 72, 127
7, 16079, Note_on_c, 5, 72, 0
7, 16080, Note_on_c, 5, 60, 127
7, 16198, Note_on_c, 5, 60, 0
7, 16560, Note_on_c, 5, 60, 127
7, 16589, Note_on_c, 5, 60, 0
7, 16590, Note_on_c, 5, 72, 127
7, 16619, Note_on_c, 5, 72, 0
7, 16620, Note_on_c, 5, 70, 127
7, 16649, Note_on_c, 5, 70, 0
7, 16650, Note_on_c, 5, 72, 127
7, 16679, Note_on_c, 5, 72, 0
7, 16680, Note_on_c, 5, 64, 127
7, 16709, Note_on_c, 5, 64, 0
7, 16710, Note_on_c, 5, 72, 127
7, 16739, Note_on_c, 5, 72, 0
7, 16740, Note_on_c, 5, 62, 127
7, 16769, Note_on_c, 5, 62, 0
7, 16770, Note_on_c, 5, 72, 127
7, 16799, Note_on_c, 5, 72, 0
7, 16800, Note_on_c, 5, 60, 127
7, 16829, Note_on_c, 5, 60, 0
7, 16830, Note_on_c, 5, 72, 127
7, 16859, Note_on_c, 5, 72, 0
7, 16860, Note_on_c, 5, 70, 127
7, 16889, Note_on_c, 5, 70, 0
7, 16890, Note_on_c, 5, 72, 127
7, 16919, Note_on_c, 5, 72, 0
7, 16920, Note_on_c, 5, 64, 127
7, 16949, Note_on_c, 5, 64, 0
7, 16950, Note_on_c, 5, 72, 127
7, 16979, Note_on_c, 5, 72, 0
7, 16980, Note_on_c, 5, 62, 127
7, 17009, Note_on_c, 5, 62, 0
7, 17010, Note_on_c, 5, 72, 127
7, 17039, Note_on_c, 5, 72, 0
7, 17040, Note_on_c, 5, 60, 127
7, 17158, Note_on_c, 5, 60, 0
7, 17580, Note_on_c, 5, 72, 127
7, 17638, Note_on_c, 5, 72, 0
7, 17640, Note_on_c, 5, 72, 127
7, 17698, Note_on_c, 5, 72, 0
7, 17700, Note_on_c, 5, 74, 127
7, 17729, Note_on_c, 5, 74, 0
7, 17730, Note_on_c, 5, 76, 127
7, 17759, Note_on_c, 5, 76, 0
7, 17760, Note_on_c, 5, 77, 127
7, 17818, Note_on_c, 5, 77, 0
7, 17820, Note_on_c, 5, 65, 127
7, 17878, Note_on_c, 5, 65, 0
7, 17880, Note_on_c, 5, 77, 127
7, 18057, Note_on_c, 5, 77, 0
7, 18060, Note_on_c, 5, 79, 127
7, 18089, Note_on_c, 5, 79, 0
7, 18090, Note_on_c, 5, 77, 127
7, 18119, Note_on_c, 5, 77, 0
7, 18120, Note_on_c, 5, 76, 127
7, 18178, Note_on_c, 5, 76, 0
7, 18180, Note_on_c, 5, 74, 127
7, 18238, Note_on_c, 5, 74, 0
7, 18240, Note_on_c, 5, 79, 127
7, 18298, Note_on_c, 5, 79, 0
7, 18300, Note_on_c, 5, 67, 127
7, 18358, Note_on_c, 5, 67, 0
7, 18360, Note_on_c, 5, 79, 127
7, 18537, Note_on_c, 5, 79, 0
7, 18540, Note_on_c, 5, 81, 127
7, 18569, Note_on_c, 5, 81, 0
7, 18570, Note_on_c, 5, 79, 127
7, 18599, Note_on_c, 5, 79, 0
7, 18600, Note_on_c, 5, 77, 127
7, 18658, Note_on_c, 5, 77, 0
7, 18660, Note_on_c, 5, 76, 127
7, 18718, Note_on_c, 5, 76, 0
7, 18720, Note_on_c, 5, 81, 127
7, 18778, Note_on_c, 5, 81, 0
7, 18780, Note_on_c, 5, 77, 127
7, 18898, Note_on_c, 5, 77, 0
7, 18900, Note_on_c, 5, 76, 127
7, 18958, Note_on_c, 5, 76, 0
7, 18960, Note_on_c, 5, 77, 127
7, 19018, Note_on_c, 5, 77, 0
7, 19020, Note_on_c, 5, 69, 127
7, 19078, Note_on_c, 5, 69, 0
7, 19080, Note_on_c, 5, 67, 127
7, 19198, Note_on_c, 5, 67, 0
7, 19200, Note_on_c, 5, 65, 127
7, 19437, Note_on_c, 5, 65, 0
7, 19437, End_track
8, 0, Start_track
8, 0, MIDI_port, 0
8, 0, Title_t, "Violini2 "
8, 0, Program_c, 6, 49
8, 0, Control_c, 6, 7, 50
8, 0, Control_c, 6, 10, 55
8, 0, Control_c, 6, 11, 127
8, 0, Control_c, 6, 8, 64
8, 1920, Note_on_c, 6, 65, 127
8, 1949, Note_on_c, 6, 65, 0
8, 1950, Note_on_c, 6, 72, 127
8, 1979, Note_on_c, 6, 72, 0
8, 1980, Note_on_c, 6, 70, 127
8, 2009, Note_on_c, 6, 70, 0
8, 2010, Note_on_c, 6, 72, 127
8, 2039, Note_on_c, 6, 72, 0
8, 2040, Note_on_c, 6, 69, 127
8, 2069, Note_on_c, 6, 69, 0
8, 2070, Note_on_c, 6, 72, 127
8, 2099, Note_on_c, 6, 72, 0
8, 2100, Note_on_c, 6, 67, 127
8, 2129, Note_on_c, 6, 67, 0
8, 2130, Note_on_c, 6, 72, 127
8, 2159, Note_on_c, 6, 72, 0
8, 2160, Note_on_c, 6, 65, 127
8, 2189, Note_on_c, 6, 65, 0
8, 2190, Note_on_c, 6, 69, 127
8, 2219, Note_on_c, 6, 69, 0
8, 2220, Note_on_c, 6, 67, 127
8, 2249, Note_on_c, 6, 67, 0
8, 2250, Note_on_c, 6, 69, 127
8, 2279, Note_on_c, 6, 69, 0
8, 2280, Note_on_c, 6, 65, 127
8, 2309, Note_on_c, 6, 65, 0
8, 2310, Note_on_c, 6, 69, 127
8, 2339, Note_on_c, 6, 69, 0
8, 2340, Note_on_c, 6, 64, 127
8, 2369, Note_on_c, 6, 64, 0
8, 2370, Note_on_c, 6, 69, 127
8, 2399, Note_on_c, 6, 69, 0
8, 2400, Note_on_c, 6, 62, 127
8, 2429, Note_on_c, 6, 62, 0
8, 2430, Note_on_c, 6, 74, 127
8, 2459, Note_on_c, 6, 74, 0
8, 2460, Note_on_c, 6, 72, 127
8, 2489, Note_on_c, 6, 72, 0
8, 2490, Note_on_c, 6, 74, 127
8, 2519, Note_on_c, 6, 74, 0
8, 2520, Note_on_c, 6, 70, 127
8, 2549, Note_on_c, 6, 70, 0
8, 2550, Note_on_c, 6, 74, 127
8, 2579, Note_on_c, 6, 74, 0
8, 2580, Note_on_c, 6, 69, 127
8, 2609, Note_on_c, 6, 69, 0
8, 2610, Note_on_c, 6, 74, 127
8, 2639, Note_on_c, 6, 74, 0
8, 2640, Note_on_c, 6, 67, 127
8, 2669, Note_on_c, 6, 67, 0
8, 2670, Note_on_c, 6, 70, 127
8, 2699, Note_on_c, 6, 70, 0
8, 2700, Note_on_c, 6, 69, 127
8, 2729, Note_on_c, 6, 69, 0
8, 2730, Note_on_c, 6, 70, 127
8, 2759, Note_on_c, 6, 70, 0
8, 2760, Note_on_c, 6, 67, 127
8, 2789, Note_on_c, 6, 67, 0
8, 2790, Note_on_c, 6, 70, 127
8, 2819, Note_on_c, 6, 70, 0
8, 2820, Note_on_c, 6, 65, 127
8, 2849, Note_on_c, 6, 65, 0
8, 2850, Note_on_c, 6, 70, 127
8, 2879, Note_on_c, 6, 70, 0
8, 2880, Note_on_c, 6, 64, 127
8, 2938, Note_on_c, 6, 64, 0
8, 2940, Note_on_c, 6, 60, 127
8, 2998, Note_on_c, 6, 60, 0
8, 3390, Note_on_c, 6, 72, 127
8, 3419, Note_on_c, 6, 72, 0
8, 3420, Note_on_c, 6, 67, 127
8, 3449, Note_on_c, 6, 67, 0
8, 3450, Note_on_c, 6, 72, 127
8, 3479, Note_on_c, 6, 72, 0
8, 3480, Note_on_c, 6, 64, 127
8, 3509, Note_on_c, 6, 64, 0
8, 3510, Note_on_c, 6, 72, 127
8, 3539, Note_on_c, 6, 72, 0
8, 3540, Note_on_c, 6, 62, 127
8, 3569, Note_on_c, 6, 62, 0
8, 3570, Note_on_c, 6, 72, 127
8, 3599, Note_on_c, 6, 72, 0
8, 3600, Note_on_c, 6, 60, 127
8, 3718, Note_on_c, 6, 60, 0
8, 4110, Note_on_c, 6, 72, 127
8, 4139, Note_on_c, 6, 72, 0
8, 4140, Note_on_c, 6, 67, 127
8, 4169, Note_on_c, 6, 67, 0
8, 4170, Note_on_c, 6, 72, 127
8, 4199, Note_on_c, 6, 72, 0
8, 4200, Note_on_c, 6, 64, 127
8, 4229, Note_on_c, 6, 64, 0
8, 4230, Note_on_c, 6, 72, 127
8, 4259, Note_on_c, 6, 72, 0
8, 4260, Note_on_c, 6, 62, 127
8, 4289, Note_on_c, 6, 62, 0
8, 4290, Note_on_c, 6, 72, 127
8, 4319, Note_on_c, 6, 72, 0
8, 4320, Note_on_c, 6, 60, 127
8, 4438, Note_on_c, 6, 60, 0
8, 4620, Note_on_c, 6, 69, 127
8, 4678, Note_on_c, 6, 69, 0
8, 4680, Note_on_c, 6, 69, 127
8, 4738, Note_on_c, 6, 69, 0
8, 4740, Note_on_c, 6, 70, 127
8, 4769, Note_on_c, 6, 70, 0
8, 4770, Note_on_c, 6, 72, 127
8, 4799, Note_on_c, 6, 72, 0
8, 4800, Note_on_c, 6, 74, 127
8, 4858, Note_on_c, 6, 74, 0
8, 4860, Note_on_c, 6, 62, 127
8, 4918, Note_on_c, 6, 62, 0
8, 4920, Note_on_c, 6, 74, 127
8, 5097, Note_on_c, 6, 74, 0
8, 5100, Note_on_c, 6, 76, 127
8, 5129, Note_on_c, 6, 76, 0
8, 5130, Note_on_c, 6, 74, 127
8, 5159, Note_on_c, 6, 74, 0
8, 5160, Note_on_c, 6, 72, 127
8, 5218, Note_on_c, 6, 72, 0
8, 5220, Note_on_c, 6, 70, 127
8, 5278, Note_on_c, 6, 70, 0
8, 5280, Note_on_c, 6, 76, 127
8, 5338, Note_on_c, 6, 76, 0
8, 5340, Note_on_c, 6, 64, 127
8, 5398, Note_on_c, 6, 64, 0
8, 5400, Note_on_c, 6, 76, 127
8, 5577, Note_on_c, 6, 76, 0
8, 5580, Note_on_c, 6, 77, 127
8, 5609, Note_on_c, 6, 77, 0
8, 5610, Note_on_c, 6, 76, 127
8, 5639, Note_on_c, 6, 76, 0
8, 5640, Note_on_c, 6, 74, 127
8, 5698, Note_on_c, 6, 74, 0
8, 5700, Note_on_c, 6, 72, 127
8, 5758, Note_on_c, 6, 72, 0
8, 5760, Note_on_c, 6, 77, 127
8, 5818, Note_on_c, 6, 77, 0
8, 5820, Note_on_c, 6, 65, 127
8, 5878, Note_on_c, 6, 65, 0
8, 5880, Note_on_c, 6, 77, 127
8, 6057, Note_on_c, 6, 77, 0
8, 6060, Note_on_c, 6, 79, 127
8, 6089, Note_on_c, 6, 79, 0
8, 6090, Note_on_c, 6, 77, 127
8, 6119, Note_on_c, 6, 77, 0
8, 6120, Note_on_c, 6, 76, 127
8, 6178, Note_on_c, 6, 76, 0
8, 6180, Note_on_c, 6, 74, 127
8, 6238, Note_on_c, 6, 74, 0
8, 6240, Note_on_c, 6, 79, 127
8, 6298, Note_on_c, 6, 79, 0
8, 6300, Note_on_c, 6, 77, 127
8, 6418, Note_on_c, 6, 77, 0
8, 6420, Note_on_c, 6, 76, 127
8, 6478, Note_on_c, 6, 76, 0
8, 6480, Note_on_c, 6, 77, 127
8, 6598, Note_on_c, 6, 77, 0
8, 10140, Note_on_c, 6, 72, 127
8, 10198, Note_on_c, 6, 72, 0
8, 10200, Note_on_c, 6, 76, 127
8, 10258, Note_on_c, 6, 76, 0
8, 10260, Note_on_c, 6, 79, 127
8, 10318, Note_on_c, 6, 79, 0
8, 10320, Note_on_c, 6, 84, 127
8, 10378, Note_on_c, 6, 84, 0
8, 10380, Note_on_c, 6, 83, 127
8, 10409, Note_on_c, 6, 83, 0
8, 10410, Note_on_c, 6, 81, 127
8, 10439, Note_on_c, 6, 81, 0
8, 10440, Note_on_c, 6, 79, 127
8, 10498, Note_on_c, 6, 79, 0
8, 10500, Note_on_c, 6, 77, 127
8, 10558, Note_on_c, 6, 77, 0
8, 10560, Note_on_c, 6, 76, 127
8, 10618, Note_on_c, 6, 76, 0
8, 10620, Note_on_c, 6, 72, 127
8, 10738, Note_on_c, 6, 72, 0
8, 10740, Note_on_c, 6, 71, 127
8, 10798, Note_on_c, 6, 71, 0
8, 10800, Note_on_c, 6, 72, 127
8, 10918, Note_on_c, 6, 72, 0
8, 15840, Note_on_c, 6, 60, 127
8, 15869, Note_on_c, 6, 60, 0
8, 15870, Note_on_c, 6, 72, 127
8, 15899, Note_on_c, 6, 72, 0
8, 15900, Note_on_c, 6, 70, 127
8, 15929, Note_on_c, 6, 70, 0
8, 15930, Note_on_c, 6, 72, 127
8, 15959, Note_on_c, 6, 72, 0
8, 15960, Note_on_c, 6, 64, 127
8, 15989, Note_on_c, 6, 64, 0
8, 15990, Note_on_c, 6, 72, 127
8, 16019, Note_on_c, 6, 72, 0
8, 16020, Note_on_c, 6, 62, 127
8, 16049, Note_on_c, 6, 62, 0
8, 16050, Note_on_c, 6, 72, 127
8, 16079, Note_on_c, 6, 72, 0
8, 16080, Note_on_c, 6, 60, 127
8, 16198, Note_on_c, 6, 60, 0
8, 16560, Note_on_c, 6, 60, 127
8, 16589, Note_on_c, 6, 60, 0
8, 16590, Note_on_c, 6, 72, 127
8, 16619, Note_on_c, 6, 72, 0
8, 16620, Note_on_c, 6, 70, 127
8, 16649, Note_on_c, 6, 70, 0
8, 16650, Note_on_c, 6, 72, 127
8, 16679, Note_on_c, 6, 72, 0
8, 16680, Note_on_c, 6, 64, 127
8, 16709, Note_on_c, 6, 64, 0
8, 16710, Note_on_c, 6, 72, 127
8, 16739, Note_on_c, 6, 72, 0
8, 16740, Note_on_c, 6, 62, 127
8, 16769, Note_on_c, 6, 62, 0
8, 16770, Note_on_c, 6, 72, 127
8, 16799, Note_on_c, 6, 72, 0
8, 16800, Note_on_c, 6, 60, 127
8, 16829, Note_on_c, 6, 60, 0
8, 16830, Note_on_c, 6, 72, 127
8, 16859, Note_on_c, 6, 72, 0
8, 16860, Note_on_c, 6, 70, 127
8, 16889, Note_on_c, 6, 70, 0
8, 16890, Note_on_c, 6, 72, 127
8, 16919, Note_on_c, 6, 72, 0
8, 16920, Note_on_c, 6, 64, 127
8, 16949, Note_on_c, 6, 64, 0
8, 16950, Note_on_c, 6, 72, 127
8, 16979, Note_on_c, 6, 72, 0
8, 16980, Note_on_c, 6, 62, 127
8, 17009, Note_on_c, 6, 62, 0
8, 17010, Note_on_c, 6, 72, 127
8, 17039, Note_on_c, 6, 72, 0
8, 17040, Note_on_c, 6, 60, 127
8, 17158, Note_on_c, 6, 60, 0
8, 17820, Note_on_c, 6, 69, 127
8, 17878, Note_on_c, 6, 69, 0
8, 17880, Note_on_c, 6, 69, 127
8, 17938, Note_on_c, 6, 69, 0
8, 17940, Note_on_c, 6, 70, 127
8, 17969, Note_on_c, 6, 70, 0
8, 17970, Note_on_c, 6, 72, 127
8, 17999, Note_on_c, 6, 72, 0
8, 18000, Note_on_c, 6, 74, 127
8, 18058, Note_on_c, 6, 74, 0
8, 18060, Note_on_c, 6, 62, 127
8, 18118, Note_on_c, 6, 62, 0
8, 18120, Note_on_c, 6, 74, 127
8, 18297, Note_on_c, 6, 74, 0
8, 18300, Note_on_c, 6, 76, 127
8, 18329, Note_on_c, 6, 76, 0
8, 18330, Note_on_c, 6, 74, 127
8, 18359, Note_on_c, 6, 74, 0
8, 18360, Note_on_c, 6, 72, 127
8, 18418, Note_on_c, 6, 72, 0
8, 18420, Note_on_c, 6, 70, 127
8, 18478, Note_on_c, 6, 70, 0
8, 18480, Note_on_c, 6, 76, 127
8, 18538, Note_on_c, 6, 76, 0
8, 18540, Note_on_c, 6, 64, 127
8, 18598, Note_on_c, 6, 64, 0
8, 18600, Note_on_c, 6, 76, 127
8, 18718, Note_on_c, 6, 76, 0
8, 18720, Note_on_c, 6, 77, 127
8, 18778, Note_on_c, 6, 77, 0
8, 18780, Note_on_c, 6, 69, 127
8, 18838, Note_on_c, 6, 69, 0
8, 18840, Note_on_c, 6, 67, 127
8, 18958, Note_on_c, 6, 67, 0
8, 18960, Note_on_c, 6, 69, 127
8, 19018, Note_on_c, 6, 69, 0
8, 19020, Note_on_c, 6, 65, 127
8, 19138, Note_on_c, 6, 65, 0
8, 19140, Note_on_c, 6, 64, 127
8, 19198, Note_on_c, 6, 64, 0
8, 19200, Note_on_c, 6, 65, 127
8, 19437, Note_on_c, 6, 65, 0
8, 19437, End_track
9, 0, Start_track
9, 0, MIDI_port, 0
9, 0, Title_t, "Viole"
9, 0, Program_c, 7, 48
9, 0, Control_c, 7, 7, 35
9, 0, Control_c, 7, 10, 60
9, 0, Control_c, 7, 11, 127
9, 0, Control_c, 7, 8, 64
9, 1920, Note_on_c, 7, 65, 127
9, 1949, Note_on_c, 7, 65, 0
9, 1950, Note_on_c, 7, 72, 127
9, 1979, Note_on_c, 7, 72, 0
9, 1980, Note_on_c, 7, 70, 127
9, 2009, Note_on_c, 7, 70, 0
9, 2010, Note_on_c, 7, 72, 127
9, 2039, Note_on_c, 7, 72, 0
9, 2040, Note_on_c, 7, 69, 127
9, 2069, Note_on_c, 7, 69, 0
9, 2070, Note_on_c, 7, 72, 127
9, 2099, Note_on_c, 7, 72, 0
9, 2100, Note_on_c, 7, 67, 127
9, 2129, Note_on_c, 7, 67, 0
9, 2130, Note_on_c, 7, 72, 127
9, 2159, Note_on_c, 7, 72, 0
9, 2160, Note_on_c, 7, 65, 127
9, 2189, Note_on_c, 7, 65, 0
9, 2190, Note_on_c, 7, 69, 127
9, 2219, Note_on_c, 7, 69, 0
9, 2220, Note_on_c, 7, 67, 127
9, 2249, Note_on_c, 7, 67, 0
9, 2250, Note_on_c, 7, 69, 127
9, 2279, Note_on_c, 7, 69, 0
9, 2280, Note_on_c, 7, 65, 127
9, 2309, Note_on_c, 7, 65, 0
9, 2310, Note_on_c, 7, 69, 127
9, 2339, Note_on_c, 7, 69, 0
9, 2340, Note_on_c, 7, 64, 127
9, 2369, Note_on_c, 7, 64, 0
9, 2370, Note_on_c, 7, 69, 127
9, 2399, Note_on_c, 7, 69, 0
9, 2400, Note_on_c, 7, 62, 127
9, 2429, Note_on_c, 7, 62, 0
9, 2430, Note_on_c, 7, 74, 127
9, 2459, Note_on_c, 7, 74, 0
9, 2460, Note_on_c, 7, 72, 127
9, 2489, Note_on_c, 7, 72, 0
9, 2490, Note_on_c, 7, 74, 127
9, 2519, Note_on_c, 7, 74, 0
9, 2520, Note_on_c, 7, 70, 127
9, 2549, Note_on_c, 7, 70, 0
9, 2550, Note_on_c, 7, 74, 127
9, 2579, Note_on_c, 7, 74, 0
9, 2580, Note_on_c, 7, 69, 127
9, 2609, Note_on_c, 7, 69, 0
9, 2610, Note_on_c, 7, 74, 127
9, 2639, Note_on_c, 7, 74, 0
9, 2640, Note_on_c, 7, 67, 127
9, 2669, Note_on_c, 7, 67, 0
9, 2670, Note_on_c, 7, 70, 127
9, 2699, Note_on_c, 7, 70, 0
9, 2700, Note_on_c, 7, 69, 127
9, 2729, Note_on_c, 7, 69, 0
9, 2730, Note_on_c, 7, 70, 127
9, 2759, Note_on_c, 7, 70, 0
9, 2760, Note_on_c, 7, 67, 127
9, 2789, Note_on_c, 7, 67, 0
9, 2790, Note_on_c, 7, 70, 127
9, 2819, Note_on_c, 7, 70, 0
9, 2820, Note_on_c, 7, 65, 127
9, 2849, Note_on_c, 7, 65, 0
9, 2850, Note_on_c, 7, 70, 127
9, 2879, Note_on_c, 7, 70, 0
9, 2880, Note_on_c, 7, 64, 127
9, 2938, Note_on_c, 7, 64, 0
9, 2940, Note_on_c, 7, 60, 127
9, 2998, Note_on_c, 7, 60, 0
9, 3000, Note_on_c, 7, 60, 127
9, 3058, Note_on_c, 7, 60, 0
9, 3060, Note_on_c, 7, 60, 127
9, 3118, Note_on_c, 7, 60, 0
9, 3120, Note_on_c, 7, 65, 127
9, 3178, Note_on_c, 7, 65, 0
9, 3180, Note_on_c, 7, 65, 127
9, 3238, Note_on_c, 7, 65, 0
9, 3240, Note_on_c, 7, 65, 127
9, 3298, Note_on_c, 7, 65, 0
9, 3300, Note_on_c, 7, 58, 127
9, 3358, Note_on_c, 7, 58, 0
9, 3360, Note_on_c, 7, 60, 127
9, 3389, Note_on_c, 7, 60, 0
9, 3390, Note_on_c, 7, 72, 127
9, 3419, Note_on_c, 7, 72, 0
9, 3420, Note_on_c, 7, 67, 127
9, 3449, Note_on_c, 7, 67, 0
9, 3450, Note_on_c, 7, 72, 127
9, 3479, Note_on_c, 7, 72, 0
9, 3480, Note_on_c, 7, 64, 127
9, 3509, Note_on_c, 7, 64, 0
9, 3510, Note_on_c, 7, 72, 127
9, 3539, Note_on_c, 7, 72, 0
9, 3540, Note_on_c, 7, 62, 127
9, 3569, Note_on_c, 7, 62, 0
9, 3570, Note_on_c, 7, 72, 127
9, 3599, Note_on_c, 7, 72, 0
9, 3600, Note_on_c, 7, 60, 127
9, 3658, Note_on_c, 7, 60, 0
9, 3660, Note_on_c, 7, 60, 127
9, 3718, Note_on_c, 7, 60, 0
9, 3720, Note_on_c, 7, 60, 127
9, 3778, Note_on_c, 7, 60, 0
9, 3780, Note_on_c, 7, 60, 127
9, 3838, Note_on_c, 7, 60, 0
9, 3840, Note_on_c, 7, 65, 127
9, 3898, Note_on_c, 7, 65, 0
9, 3900, Note_on_c, 7, 65, 127
9, 3958, Note_on_c, 7, 65, 0
9, 3960, Note_on_c, 7, 65, 127
9, 4018, Note_on_c, 7, 65, 0
9, 4020, Note_on_c, 7, 58, 127
9, 4078, Note_on_c, 7, 58, 0
9, 4080, Note_on_c, 7, 60, 127
9, 4109, Note_on_c, 7, 60, 0
9, 4110, Note_on_c, 7, 72, 127
9, 4139, Note_on_c, 7, 72, 0
9, 4140, Note_on_c, 7, 67, 127
9, 4169, Note_on_c, 7, 67, 0
9, 4170, Note_on_c, 7, 72, 127
9, 4199, Note_on_c, 7, 72, 0
9, 4200, Note_on_c, 7, 64, 127
9, 4229, Note_on_c, 7, 64, 0
9, 4230, Note_on_c, 7, 72, 127
9, 4259, Note_on_c, 7, 72, 0
9, 4260, Note_on_c, 7, 62, 127
9, 4289, Note_on_c, 7, 62, 0
9, 4290, Note_on_c, 7, 72, 127
9, 4319, Note_on_c, 7, 72, 0
9, 4320, Note_on_c, 7, 60, 127
9, 4378, Note_on_c, 7, 60, 0
9, 4380, Note_on_c, 7, 69, 127
9, 4438, Note_on_c, 7, 69, 0
9, 4440, Note_on_c, 7, 69, 127
9, 4498, Note_on_c, 7, 69, 0
9, 4500, Note_on_c, 7, 70, 127
9, 4529, Note_on_c, 7, 70, 0
9, 4530, Note_on_c, 7, 72, 127
9, 4559, Note_on_c, 7, 72, 0
9, 4560, Note_on_c, 7, 69, 127
9, 4618, Note_on_c, 7, 69, 0
9, 4620, Note_on_c, 7, 57, 127
9, 4678, Note_on_c, 7, 57, 0
9, 4680, Note_on_c, 7, 69, 127
9, 4738, Note_on_c, 7, 69, 0
9, 4740, Note_on_c, 7, 65, 127
9, 4798, Note_on_c, 7, 65, 0
9, 4800, Note_on_c, 7, 62, 127
9, 4858, Note_on_c, 7, 62, 0
9, 4860, Note_on_c, 7, 64, 127
9, 4889, Note_on_c, 7, 64, 0
9, 4890, Note_on_c, 7, 62, 127
9, 4919, Note_on_c, 7, 62, 0
9, 4920, Note_on_c, 7, 60, 127
9, 4978, Note_on_c, 7, 60, 0
9, 4980, Note_on_c, 7, 58, 127
9, 5099, Note_on_c, 7, 58, 0
9, 5100, Note_on_c, 7, 58, 127
9, 5158, Note_on_c, 7, 58, 0
9, 5160, Note_on_c, 7, 60, 127
9, 5218, Note_on_c, 7, 60, 0
9, 5220, Note_on_c, 7, 62, 127
9, 5278, Note_on_c, 7, 62, 0
9, 5280, Note_on_c, 7, 64, 127
9, 5338, Note_on_c, 7, 64, 0
9, 5340, Note_on_c, 7, 65, 127
9, 5369, Note_on_c, 7, 65, 0
9, 5370, Note_on_c, 7, 64, 127
9, 5399, Note_on_c, 7, 64, 0
9, 5400, Note_on_c, 7, 62, 127
9, 5458, Note_on_c, 7, 62, 0
9, 5460, Note_on_c, 7, 60, 127
9, 5578, Note_on_c, 7, 60, 0
9, 5580, Note_on_c, 7, 60, 127
9, 5638, Note_on_c, 7, 60, 0
9, 5640, Note_on_c, 7, 62, 127
9, 5698, Note_on_c, 7, 62, 0
9, 5700, Note_on_c, 7, 64, 127
9, 5758, Note_on_c, 7, 64, 0
9, 5760, Note_on_c, 7, 65, 127
9, 5818, Note_on_c, 7, 65, 0
9, 5820, Note_on_c, 7, 67, 127
9, 5849, Note_on_c, 7, 67, 0
9, 5850, Note_on_c, 7, 65, 127
9, 5879, Note_on_c, 7, 65, 0
9, 5880, Note_on_c, 7, 64, 127
9, 5938, Note_on_c, 7, 64, 0
9, 5940, Note_on_c, 7, 62, 127
9, 6058, Note_on_c, 7, 62, 0
9, 6060, Note_on_c, 7, 62, 127
9, 6118, Note_on_c, 7, 62, 0
9, 6120, Note_on_c, 7, 64, 127
9, 6178, Note_on_c, 7, 64, 0
9, 6180, Note_on_c, 7, 65, 127
9, 6238, Note_on_c, 7, 65, 0
9, 6240, Note_on_c, 7, 64, 127
9, 6298, Note_on_c, 7, 64, 0
9, 6300, Note_on_c, 7, 60, 127
9, 6358, Note_on_c, 7, 60, 0
9, 6360, Note_on_c, 7, 60, 127
9, 6418, Note_on_c, 7, 60, 0
9, 6420, Note_on_c, 7, 60, 127
9, 6478, Note_on_c, 7, 60, 0
9, 6480, Note_on_c, 7, 57, 127
9, 6598, Note_on_c, 7, 57, 0
9, 9600, Note_on_c, 7, 64, 127
9, 9658, Note_on_c, 7, 64, 0
9, 9660, Note_on_c, 7, 67, 127
9, 9689, Note_on_c, 7, 67, 0
9, 9690, Note_on_c, 7, 65, 127
9, 9719, Note_on_c, 7, 65, 0
9, 9720, Note_on_c, 7, 64, 127
9, 9778, Note_on_c, 7, 64, 0
9, 9780, Note_on_c, 7, 62, 127
9, 9838, Note_on_c, 7, 62, 0
9, 9840, Note_on_c, 7, 64, 127
9, 9898, Note_on_c, 7, 64, 0
9, 9900, Note_on_c, 7, 69, 127
9, 9958, Note_on_c, 7, 69, 0
9, 9960, Note_on_c, 7, 62, 127
9, 10018, Note_on_c, 7, 62, 0
9, 10020, Note_on_c, 7, 59, 127
9, 10078, Note_on_c, 7, 59, 0
9, 10080, Note_on_c, 7, 55, 127
9, 10138, Note_on_c, 7, 55, 0
9, 10140, Note_on_c, 7, 67, 127
9, 10169, Note_on_c, 7, 67, 0
9, 10170, Note_on_c, 7, 65, 127
9, 10199, Note_on_c, 7, 65, 0
9, 10200, Note_on_c, 7, 64, 127
9, 10258, Note_on_c, 7, 64, 0
9, 10260, Note_on_c, 7, 62, 127
9, 10318, Note_on_c, 7, 62, 0
9, 10320, Note_on_c, 7, 55, 127
9, 10378, Note_on_c, 7, 55, 0
9, 10380, Note_on_c, 7, 69, 127
9, 10438, Note_on_c, 7, 69, 0
9, 10440, Note_on_c, 7, 62, 127
9, 10498, Note_on_c, 7, 62, 0
9, 10500, Note_on_c, 7, 62, 127
9, 10558, Note_on_c, 7, 62, 0
9, 10560, Note_on_c, 7, 64, 127
9, 10618, Note_on_c, 7, 64, 0
9, 10620, Note_on_c, 7, 69, 127
9, 10678, Note_on_c, 7, 69, 0
9, 10680, Note_on_c, 7, 62, 127
9, 10738, Note_on_c, 7, 62, 0
9, 10740, Note_on_c, 7, 67, 127
9, 10798, Note_on_c, 7, 67, 0
9, 10800, Note_on_c, 7, 67, 127
9, 10918, Note_on_c, 7, 67, 0
9, 15840, Note_on_c, 7, 60, 127
9, 15869, Note_on_c, 7, 60, 0
9, 15870, Note_on_c, 7, 72, 127
9, 15899, Note_on_c, 7, 72, 0
9, 15900, Note_on_c, 7, 70, 127
9, 15929, Note_on_c, 7, 70, 0
9, 15930, Note_on_c, 7, 72, 127
9, 15959, Note_on_c, 7, 72, 0
9, 15960, Note_on_c, 7, 64, 127
9, 15989, Note_on_c, 7, 64, 0
9, 15990, Note_on_c, 7, 72, 127
9, 16019, Note_on_c, 7, 72, 0
9, 16020, Note_on_c, 7, 62, 127
9, 16049, Note_on_c, 7, 62, 0
9, 16050, Note_on_c, 7, 72, 127
9, 16079, Note_on_c, 7, 72, 0
9, 16080, Note_on_c, 7, 60, 127
9, 16198, Note_on_c, 7, 60, 0
9, 16560, Note_on_c, 7, 60, 127
9, 16589, Note_on_c, 7, 60, 0
9, 16590, Note_on_c, 7, 72, 127
9, 16619, Note_on_c, 7, 72, 0
9, 16620, Note_on_c, 7, 70, 127
9, 16649, Note_on_c, 7, 70, 0
9, 16650, Note_on_c, 7, 72, 127
9, 16679, Note_on_c, 7, 72, 0
9, 16680, Note_on_c, 7, 64, 127
9, 16709, Note_on_c, 7, 64, 0
9, 16710, Note_on_c, 7, 72, 127
9, 16739, Note_on_c, 7, 72, 0
9, 16740, Note_on_c, 7, 62, 127
9, 16769, Note_on_c, 7, 62, 0
9, 16770, Note_on_c, 7, 72, 127
9, 16799, Note_on_c, 7, 72, 0
9, 16800, Note_on_c, 7, 60, 127
9, 16829, Note_on_c, 7, 60, 0
9, 16830, Note_on_c, 7, 72, 127
9, 16859, Note_on_c, 7, 72, 0
9, 16860, Note_on_c, 7, 70, 127
9, 16889, Note_on_c, 7, 70, 0
9, 16890, Note_on_c, 7, 72, 127
9, 16919, Note_on_c, 7, 72, 0
9, 16920, Note_on_c, 7, 64, 127
9, 16949, Note_on_c, 7, 64, 0
9, 16950, Note_on_c, 7, 72, 127
9, 16979, Note_on_c, 7, 72, 0
9, 16980, Note_on_c, 7, 62, 127
9, 17009, Note_on_c, 7, 62, 0
9, 17010, Note_on_c, 7, 72, 127
9, 17039, Note_on_c, 7, 72, 0
9, 17040, Note_on_c, 7, 60, 127
9, 17158, Note_on_c, 7, 60, 0
9, 17580, Note_on_c, 7, 69, 127
9, 17638, Note_on_c, 7, 69, 0
9, 17640, Note_on_c, 7, 69, 127
9, 17698, Note_on_c, 7, 69, 0
9, 17700, Note_on_c, 7, 70, 127
9, 17729, Note_on_c, 7, 70, 0
9, 17730, Note_on_c, 7, 72, 127
9, 17759, Note_on_c, 7, 72, 0
9, 17760, Note_on_c, 7, 69, 127
9, 17818, Note_on_c, 7, 69, 0
9, 17820, Note_on_c, 7, 57, 127
9, 17878, Note_on_c, 7, 57, 0
9, 17880, Note_on_c, 7, 69, 127
9, 17938, Note_on_c, 7, 69, 0
9, 17940, Note_on_c, 7, 65, 127
9, 17998, Note_on_c, 7, 65, 0
9, 18000, Note_on_c, 7, 62, 127
9, 18058, Note_on_c, 7, 62, 0
9, 18060, Note_on_c, 7, 64, 127
9, 18089, Note_on_c, 7, 64, 0
9, 18090, Note_on_c, 7, 62, 127
9, 18119, Note_on_c, 7, 62, 0
9, 18120, Note_on_c, 7, 60, 127
9, 18178, Note_on_c, 7, 60, 0
9, 18180, Note_on_c, 7, 58, 127
9, 18298, Note_on_c, 7, 58, 0
9, 18300, Note_on_c, 7, 58, 127
9, 18358, Note_on_c, 7, 58, 0
9, 18360, Note_on_c, 7, 60, 127
9, 18418, Note_on_c, 7, 60, 0
9, 18420, Note_on_c, 7, 62, 127
9, 18478, Note_on_c, 7, 62, 0
9, 18480, Note_on_c, 7, 64, 127
9, 18538, Note_on_c, 7, 64, 0
9, 18540, Note_on_c, 7, 65, 127
9, 18569, Note_on_c, 7, 65, 0
9, 18570, Note_on_c, 7, 64, 127
9, 18599, Note_on_c, 7, 64, 0
9, 18600, Note_on_c, 7, 62, 127
9, 18658, Note_on_c, 7, 62, 0
9, 18660, Note_on_c, 7, 60, 127
9, 18778, Note_on_c, 7, 60, 0
9, 18780, Note_on_c, 7, 60, 127
9, 18838, Note_on_c, 7, 60, 0
9, 18840, Note_on_c, 7, 60, 127
9, 18898, Note_on_c, 7, 60, 0
9, 18900, Note_on_c, 7, 60, 127
9, 18958, Note_on_c, 7, 60, 0
9, 18960, Note_on_c, 7, 60, 127
9, 19018, Note_on_c, 7, 60, 0
9, 19020, Note_on_c, 7, 60, 127
9, 19078, Note_on_c, 7, 60, 0
9, 19080, Note_on_c, 7, 60, 127
9, 19138, Note_on_c, 7, 60, 0
9, 19140, Note_on_c, 7, 60, 127
9, 19198, Note_on_c, 7, 60, 0
9, 19200, Note_on_c, 7, 57, 127
9, 19437, Note_on_c, 7, 57, 0
9, 19437, End_track
10, 0, Start_track
10, 0, MIDI_port, 0
10, 0, Title_t, "Violoncelli"
10, 0, Program_c, 8, 42
10, 0, Control_c, 8, 7, 30
10, 0, Control_c, 8, 10, 65
10, 0, Control_c, 8, 11, 127
10, 0, Control_c, 8, 8, 64
10, 0, Note_on_c, 8, 53, 127
10, 58, Note_on_c, 8, 53, 0
10, 60, Note_on_c, 8, 57, 127
10, 89, Note_on_c, 8, 57, 0
10, 90, Note_on_c, 8, 55, 127
10, 119, Note_on_c, 8, 55, 0
10, 120, Note_on_c, 8, 53, 127
10, 178, Note_on_c, 8, 53, 0
10, 180, Note_on_c, 8, 52, 127
10, 238, Note_on_c, 8, 52, 0
10, 240, Note_on_c, 8, 50, 127
10, 298, Note_on_c, 8, 50, 0
10, 300, Note_on_c, 8, 58, 127
10, 358, Note_on_c, 8, 58, 0
10, 360, Note_on_c, 8, 52, 127
10, 418, Note_on_c, 8, 52, 0
10, 420, Note_on_c, 8, 48, 127
10, 478, Note_on_c, 8, 48, 0
10, 480, Note_on_c, 8, 53, 127
10, 538, Note_on_c, 8, 53, 0
10, 540, Note_on_c, 8, 57, 127
10, 569, Note_on_c, 8, 57, 0
10, 570, Note_on_c, 8, 55, 127
10, 599, Note_on_c, 8, 55, 0
10, 600, Note_on_c, 8, 53, 127
10, 658, Note_on_c, 8, 53, 0
10, 660, Note_on_c, 8, 52, 127
10, 718, Note_on_c, 8, 52, 0
10, 720, Note_on_c, 8, 50, 127
10, 778, Note_on_c, 8, 50, 0
10, 780, Note_on_c, 8, 58, 127
10, 838, Note_on_c, 8, 58, 0
10, 840, Note_on_c, 8, 52, 127
10, 898, Note_on_c, 8, 52, 0
10, 900, Note_on_c, 8, 40, 127
10, 958, Note_on_c, 8, 40, 0
10, 960, Note_on_c, 8, 41, 127
10, 1078, Note_on_c, 8, 41, 0
10, 1140, Note_on_c, 8, 53, 127
10, 1198, Note_on_c, 8, 53, 0
10, 1200, Note_on_c, 8, 60, 127
10, 1318, Note_on_c, 8, 60, 0
10, 1320, Note_on_c, 8, 48, 127
10, 1438, Note_on_c, 8, 48, 0
10, 1440, Note_on_c, 8, 41, 127
10, 1558, Note_on_c, 8, 41, 0
10, 1620, Note_on_c, 8, 53, 127
10, 1678, Note_on_c, 8, 53, 0
10, 1680, Note_on_c, 8, 60, 127
10, 1798, Note_on_c, 8, 60, 0
10, 1800, Note_on_c, 8, 48, 127
10, 1918, Note_on_c, 8, 48, 0
10, 1920, Note_on_c, 8, 53, 127
10, 1949, Note_on_c, 8, 53, 0
10, 1950, Note_on_c, 8, 60, 127
10, 1979, Note_on_c, 8, 60, 0
10, 1980, Note_on_c, 8, 58, 127
10, 2009, Note_on_c, 8, 58, 0
10, 2010, Note_on_c, 8, 60, 127
10, 2039, Note_on_c, 8, 60, 0
10, 2040, Note_on_c, 8, 57, 127
10, 2069, Note_on_c, 8, 57, 0
10, 2070, Note_on_c, 8, 60, 127
10, 2099, Note_on_c, 8, 60, 0
10, 2100, Note_on_c, 8, 55, 127
10, 2129, Note_on_c, 8, 55, 0
10, 2130, Note_on_c, 8, 60, 127
10, 2159, Note_on_c, 8, 60, 0
10, 2160, Note_on_c, 8, 53, 127
10, 2189, Note_on_c, 8, 53, 0
10, 2190, Note_on_c, 8, 57, 127
10, 2219, Note_on_c, 8, 57, 0
10, 2220, Note_on_c, 8, 55, 127
10, 2249, Note_on_c, 8, 55, 0
10, 2250, Note_on_c, 8, 57, 127
10, 2279, Note_on_c, 8, 57, 0
10, 2280, Note_on_c, 8, 53, 127
10, 2309, Note_on_c, 8, 53, 0
10, 2310, Note_on_c, 8, 57, 127
10, 2339, Note_on_c, 8, 57, 0
10, 2340, Note_on_c, 8, 52, 127
10, 2369, Note_on_c, 8, 52, 0
10, 2370, Note_on_c, 8, 57, 127
10, 2399, Note_on_c, 8, 57, 0
10, 2400, Note_on_c, 8, 50, 127
10, 2429, Note_on_c, 8, 50, 0
10, 2430, Note_on_c, 8, 62, 127
10, 2459, Note_on_c, 8, 62, 0
10, 2460, Note_on_c, 8, 60, 127
10, 2489, Note_on_c, 8, 60, 0
10, 2490, Note_on_c, 8, 62, 127
10, 2519, Note_on_c, 8, 62, 0
10, 2520, Note_on_c, 8, 58, 127
10, 2549, Note_on_c, 8, 58, 0
10, 2550, Note_on_c, 8, 62, 127
10, 2579, Note_on_c, 8, 62, 0
10, 2580, Note_on_c, 8, 57, 127
10, 2609, Note_on_c, 8, 57, 0
10, 2610, Note_on_c, 8, 62, 127
10, 2639, Note_on_c, 8, 62, 0
10, 2640, Note_on_c, 8, 55, 127
10, 2669, Note_on_c, 8, 55, 0
10, 2670, Note_on_c, 8, 58, 127
10, 2699, Note_on_c, 8, 58, 0
10, 2700, Note_on_c, 8, 57, 127
10, 2729, Note_on_c, 8, 57, 0
10, 2730, Note_on_c, 8, 58, 127
10, 2759, Note_on_c, 8, 58, 0
10, 2760, Note_on_c, 8, 55, 127
10, 2789, Note_on_c, 8, 55, 0
10, 2790, Note_on_c, 8, 58, 127
10, 2819, Note_on_c, 8, 58, 0
10, 2820, Note_on_c, 8, 53, 127
10, 2848, Note_on_c, 8, 53, 0
10, 2850, Note_on_c, 8, 58, 127
10, 2879, Note_on_c, 8, 58, 0
10, 2880, Note_on_c, 8, 52, 127
10, 2938, Note_on_c, 8, 52, 0
10, 2940, Note_on_c, 8, 48, 127
10, 2998, Note_on_c, 8, 48, 0
10, 3390, Note_on_c, 8, 60, 127
10, 3419, Note_on_c, 8, 60, 0
10, 3420, Note_on_c, 8, 55, 127
10, 3449, Note_on_c, 8, 55, 0
10, 3450, Note_on_c, 8, 60, 127
10, 3479, Note_on_c, 8, 60, 0
10, 3480, Note_on_c, 8, 52, 127
10, 3509, Note_on_c, 8, 52, 0
10, 3510, Note_on_c, 8, 60, 127
10, 3539, Note_on_c, 8, 60, 0
10, 3540, Note_on_c, 8, 50, 127
10, 3569, Note_on_c, 8, 50, 0
10, 3570, Note_on_c, 8, 60, 127
10, 3599, Note_on_c, 8, 60, 0
10, 3600, Note_on_c, 8, 48, 127
10, 3718, Note_on_c, 8, 48, 0
10, 4110, Note_on_c, 8, 60, 127
10, 4139, Note_on_c, 8, 60, 0
10, 4140, Note_on_c, 8, 55, 127
10, 4169, Note_on_c, 8, 55, 0
10, 4170, Note_on_c, 8, 60, 127
10, 4199, Note_on_c, 8, 60, 0
10, 4200, Note_on_c, 8, 52, 127
10, 4229, Note_on_c, 8, 52, 0
10, 4230, Note_on_c, 8, 60, 127
10, 4259, Note_on_c, 8, 60, 0
10, 4260, Note_on_c, 8, 50, 127
10, 4289, Note_on_c, 8, 50, 0
10, 4290, Note_on_c, 8, 60, 127
10, 4319, Note_on_c, 8, 60, 0
10, 4320, Note_on_c, 8, 48, 127
10, 4438, Note_on_c, 8, 48, 0
10, 4620, Note_on_c, 8, 53, 127
10, 4678, Note_on_c, 8, 53, 0
10, 4680, Note_on_c, 8, 53, 127
10, 4738, Note_on_c, 8, 53, 0
10, 4740, Note_on_c, 8, 55, 127
10, 4769, Note_on_c, 8, 55, 0
10, 4770, Note_on_c, 8, 57, 127
10, 4799, Note_on_c, 8, 57, 0
10, 4800, Note_on_c, 8, 58, 127
10, 4858, Note_on_c, 8, 58, 0
10, 4860, Note_on_c, 8, 46, 127
10, 4918, Note_on_c, 8, 46, 0
10, 4920, Note_on_c, 8, 58, 127
10, 5097, Note_on_c, 8, 58, 0
10, 5100, Note_on_c, 8, 60, 127
10, 5129, Note_on_c, 8, 60, 0
10, 5130, Note_on_c, 8, 58, 127
10, 5159, Note_on_c, 8, 58, 0
10, 5160, Note_on_c, 8, 57, 127
10, 5218, Note_on_c, 8, 57, 0
10, 5220, Note_on_c, 8, 55, 127
10, 5278, Note_on_c, 8, 55, 0
10, 5280, Note_on_c, 8, 60, 127
10, 5338, Note_on_c, 8, 60, 0
10, 5340, Note_on_c, 8, 48, 127
10, 5398, Note_on_c, 8, 48, 0
10, 5400, Note_on_c, 8, 60, 127
10, 5577, Note_on_c, 8, 60, 0
10, 5580, Note_on_c, 8, 62, 127
10, 5609, Note_on_c, 8, 62, 0
10, 5610, Note_on_c, 8, 60, 127
10, 5639, Note_on_c, 8, 60, 0
10, 5640, Note_on_c, 8, 58, 127
10, 5698, Note_on_c, 8, 58, 0
10, 5700, Note_on_c, 8, 57, 127
10, 5758, Note_on_c, 8, 57, 0
10, 5760, Note_on_c, 8, 62, 127
10, 5818, Note_on_c, 8, 62, 0
10, 5820, Note_on_c, 8, 50, 127
10, 5878, Note_on_c, 8, 50, 0
10, 5880, Note_on_c, 8, 62, 127
10, 6057, Note_on_c, 8, 62, 0
10, 6060, Note_on_c, 8, 64, 127
10, 6089, Note_on_c, 8, 64, 0
10, 6090, Note_on_c, 8, 62, 127
10, 6119, Note_on_c, 8, 62, 0
10, 6120, Note_on_c, 8, 60, 127
10, 6178, Note_on_c, 8, 60, 0
10, 6180, Note_on_c, 8, 58, 127
10, 6238, Note_on_c, 8, 58, 0
10, 6240, Note_on_c, 8, 60, 127
10, 6298, Note_on_c, 8, 60, 0
10, 6300, Note_on_c, 8, 53, 127
10, 6358, Note_on_c, 8, 53, 0
10, 6360, Note_on_c, 8, 60, 127
10, 6418, Note_on_c, 8, 60, 0
10, 6420, Note_on_c, 8, 48, 127
10, 6478, Note_on_c, 8, 48, 0
10, 6480, Note_on_c, 8, 41, 127
10, 6598, Note_on_c, 8, 41, 0
10, 6780, Note_on_c, 8, 53, 127
10, 6838, Note_on_c, 8, 53, 0
10, 6840, Note_on_c, 8, 57, 127
10, 6898, Note_on_c, 8, 57, 0
10, 6900, Note_on_c, 8, 60, 127
10, 6958, Note_on_c, 8, 60, 0
10, 6960, Note_on_c, 8, 55, 127
10, 7018, Note_on_c, 8, 55, 0
10, 7020, Note_on_c, 8, 53, 127
10, 7078, Note_on_c, 8, 53, 0
10, 7080, Note_on_c, 8, 55, 127
10, 7138, Note_on_c, 8, 55, 0
10, 7140, Note_on_c, 8, 48, 127
10, 7198, Note_on_c, 8, 48, 0
10, 7200, Note_on_c, 8, 53, 127
10, 7318, Note_on_c, 8, 53, 0
10, 7320, Note_on_c, 8, 41, 127
10, 7438, Note_on_c, 8, 41, 0
10, 7440, Note_on_c, 8, 53, 127
10, 7528, Note_on_c, 8, 53, 0
10, 7530, Note_on_c, 8, 53, 127
10, 7559, Note_on_c, 8, 53, 0
10, 7560, Note_on_c, 8, 53, 127
10, 7618, Note_on_c, 8, 53, 0
10, 7620, Note_on_c, 8, 53, 127
10, 7678, Note_on_c, 8, 53, 0
10, 7680, Note_on_c, 8, 53, 127
10, 7738, Note_on_c, 8, 53, 0
10, 7740, Note_on_c, 8, 53, 127
10, 7798, Note_on_c, 8, 53, 0
10, 7800, Note_on_c, 8, 53, 127
10, 7858, Note_on_c, 8, 53, 0
10, 7860, Note_on_c, 8, 55, 127
10, 7889, Note_on_c, 8, 55, 0
10, 7890, Note_on_c, 8, 57, 127
10, 7919, Note_on_c, 8, 57, 0
10, 7920, Note_on_c, 8, 58, 127
10, 7978, Note_on_c, 8, 58, 0
10, 7980, Note_on_c, 8, 46, 127
10, 8038, Note_on_c, 8, 46, 0
10, 8040, Note_on_c, 8, 58, 127
10, 8217, Note_on_c, 8, 58, 0
10, 8220, Note_on_c, 8, 60, 127
10, 8249, Note_on_c, 8, 60, 0
10, 8250, Note_on_c, 8, 58, 127
10, 8279, Note_on_c, 8, 58, 0
10, 8280, Note_on_c, 8, 57, 127
10, 8338, Note_on_c, 8, 57, 0
10, 8340, Note_on_c, 8, 55, 127
10, 8398, Note_on_c, 8, 55, 0
10, 8400, Note_on_c, 8, 60, 127
10, 8458, Note_on_c, 8, 60, 0
10, 8460, Note_on_c, 8, 48, 127
10, 8518, Note_on_c, 8, 48, 0
10, 8520, Note_on_c, 8, 60, 127
10, 8697, Note_on_c, 8, 60, 0
10, 8700, Note_on_c, 8, 62, 127
10, 8729, Note_on_c, 8, 62, 0
10, 8730, Note_on_c, 8, 60, 127
10, 8759, Note_on_c, 8, 60, 0
10, 8760, Note_on_c, 8, 58, 127
10, 8818, Note_on_c, 8, 58, 0
10, 8820, Note_on_c, 8, 57, 127
10, 8878, Note_on_c, 8, 57, 0
10, 8880, Note_on_c, 8, 62, 127
10, 8938, Note_on_c, 8, 62, 0
10, 8940, Note_on_c, 8, 50, 127
10, 8998, Note_on_c, 8, 50, 0
10, 9000, Note_on_c, 8, 50, 127
10, 9058, Note_on_c, 8, 50, 0
10, 9060, Note_on_c, 8, 52, 127
10, 9089, Note_on_c, 8, 52, 0
10, 9090, Note_on_c, 8, 53, 127
10, 9119, Note_on_c, 8, 53, 0
10, 9120, Note_on_c, 8, 55, 127
10, 9208, Note_on_c, 8, 55, 0
10, 9210, Note_on_c, 8, 55, 127
10, 9239, Note_on_c, 8, 55, 0
10, 9240, Note_on_c, 8, 48, 127
10, 9298, Note_on_c, 8, 48, 0
10, 9300, Note_on_c, 8, 36, 127
10, 9358, Note_on_c, 8, 36, 0
10, 9360, Note_on_c, 8, 41, 127
10, 9418, Note_on_c, 8, 41, 0
10, 9420, Note_on_c, 8, 53, 127
10, 9478, Note_on_c, 8, 53, 0
10, 9480, Note_on_c, 8, 55, 127
10, 9538, Note_on_c, 8, 55, 0
10, 9540, Note_on_c, 8, 43, 127
10, 9598, Note_on_c, 8, 43, 0
10, 9600, Note_on_c, 8, 48, 127
10, 9658, Note_on_c, 8, 48, 0
10, 9660, Note_on_c, 8, 52, 127
10, 9689, Note_on_c, 8, 52, 0
10, 9690, Note_on_c, 8, 50, 127
10, 9719, Note_on_c, 8, 50, 0
10, 9720, Note_on_c, 8, 48, 127
10, 9778, Note_on_c, 8, 48, 0
10, 9780, Note_on_c, 8, 47, 127
10, 9838, Note_on_c, 8, 47, 0
10, 9840, Note_on_c, 8, 48, 127
10, 9898, Note_on_c, 8, 48, 0
10, 9900, Note_on_c, 8, 53, 127
10, 9958, Note_on_c, 8, 53, 0
10, 9960, Note_on_c, 8, 47, 127
10, 10018, Note_on_c, 8, 47, 0
10, 10020, Note_on_c, 8, 43, 127
10, 10078, Note_on_c, 8, 43, 0
10, 10080, Note_on_c, 8, 48, 127
10, 10138, Note_on_c, 8, 48, 0
10, 10140, Note_on_c, 8, 52, 127
10, 10169, Note_on_c, 8, 52, 0
10, 10170, Note_on_c, 8, 50, 127
10, 10199, Note_on_c, 8, 50, 0
10, 10200, Note_on_c, 8, 48, 127
10, 10258, Note_on_c, 8, 48, 0
10, 10260, Note_on_c, 8, 47, 127
10, 10318, Note_on_c, 8, 47, 0
10, 10320, Note_on_c, 8, 48, 127
10, 10378, Note_on_c, 8, 48, 0
10, 10380, Note_on_c, 8, 53, 127
10, 10438, Note_on_c, 8, 53, 0
10, 10440, Note_on_c, 8, 47, 127
10, 10498, Note_on_c, 8, 47, 0
10, 10500, Note_on_c, 8, 47, 127
10, 10558, Note_on_c, 8, 47, 0
10, 10560, Note_on_c, 8, 48, 127
10, 10618, Note_on_c, 8, 48, 0
10, 10620, Note_on_c, 8, 53, 127
10, 10678, Note_on_c, 8, 53, 0
10, 10680, Note_on_c, 8, 55, 127
10, 10738, Note_on_c, 8, 55, 0
10, 10740, Note_on_c, 8, 43, 127
10, 10798, Note_on_c, 8, 43, 0
10, 10800, Note_on_c, 8, 48, 127
10, 10858, Note_on_c, 8, 48, 0
10, 10860, Note_on_c, 8, 48, 127
10, 10918, Note_on_c, 8, 48, 0
10, 10920, Note_on_c, 8, 52, 127
10, 10978, Note_on_c, 8, 52, 0
10, 10980, Note_on_c, 8, 55, 127
10, 11038, Note_on_c, 8, 55, 0
10, 11040, Note_on_c, 8, 60, 127
10, 11098, Note_on_c, 8, 60, 0
10, 11100, Note_on_c, 8, 48, 127
10, 11158, Note_on_c, 8, 48, 0
10, 11160, Note_on_c, 8, 52, 127
10, 11218, Note_on_c, 8, 52, 0
10, 11220, Note_on_c, 8, 55, 127
10, 11278, Note_on_c, 8, 55, 0
10, 11280, Note_on_c, 8, 53, 127
10, 11338, Note_on_c, 8, 53, 0
10, 11340, Note_on_c, 8, 50, 127
10, 11398, Note_on_c, 8, 50, 0
10, 11400, Note_on_c, 8, 47, 127
10, 11458, Note_on_c, 8, 47, 0
10, 11460, Note_on_c, 8, 43, 127
10, 11518, Note_on_c, 8, 43, 0
10, 11520, Note_on_c, 8, 48, 127
10, 11638, Note_on_c, 8, 48, 0
10, 11640, Note_on_c, 8, 36, 127
10, 11758, Note_on_c, 8, 36, 0
10, 11820, Note_on_c, 8, 48, 127
10, 11878, Note_on_c, 8, 48, 0
10, 11880, Note_on_c, 8, 52, 127
10, 11938, Note_on_c, 8, 52, 0
10, 11940, Note_on_c, 8, 55, 127
10, 11998, Note_on_c, 8, 55, 0
10, 12000, Note_on_c, 8, 43, 127
10, 12118, Note_on_c, 8, 43, 0
10, 12120, Note_on_c, 8, 47, 127
10, 12238, Note_on_c, 8, 47, 0
10, 12240, Note_on_c, 8, 48, 127
10, 12358, Note_on_c, 8, 48, 0
10, 12360, Note_on_c, 8, 48, 127
10, 12418, Note_on_c, 8, 48, 0
10, 12420, Note_on_c, 8, 48, 127
10, 12478, Note_on_c, 8, 48, 0
10, 12480, Note_on_c, 8, 53, 127
10, 12598, Note_on_c, 8, 53, 0
10, 12600, Note_on_c, 8, 53, 127
10, 12718, Note_on_c, 8, 53, 0
10, 12720, Note_on_c, 8, 53, 127
10, 12778, Note_on_c, 8, 53, 0
10, 12780, Note_on_c, 8, 53, 127
10, 12838, Note_on_c, 8, 53, 0
10, 12840, Note_on_c, 8, 53, 127
10, 12898, Note_on_c, 8, 53, 0
10, 12900, Note_on_c, 8, 53, 127
10, 12958, Note_on_c, 8, 53, 0
10, 12960, Note_on_c, 8, 53, 127
10, 13018, Note_on_c, 8, 53, 0
10, 13020, Note_on_c, 8, 53, 127
10, 13078, Note_on_c, 8, 53, 0
10, 13080, Note_on_c, 8, 53, 127
10, 13138, Note_on_c, 8, 53, 0
10, 13140, Note_on_c, 8, 55, 127
10, 13169, Note_on_c, 8, 55, 0
10, 13170, Note_on_c, 8, 57, 127
10, 13199, Note_on_c, 8, 57, 0
10, 13200, Note_on_c, 8, 58, 127
10, 13258, Note_on_c, 8, 58, 0
10, 13260, Note_on_c, 8, 46, 127
10, 13318, Note_on_c, 8, 46, 0
10, 13320, Note_on_c, 8, 58, 127
10, 13497, Note_on_c, 8, 58, 0
10, 13500, Note_on_c, 8, 60, 127
10, 13529, Note_on_c, 8, 60, 0
10, 13530, Note_on_c, 8, 58, 127
10, 13559, Note_on_c, 8, 58, 0
10, 13560, Note_on_c, 8, 57, 127
10, 13618, Note_on_c, 8, 57, 0
10, 13620, Note_on_c, 8, 55, 127
10, 13678, Note_on_c, 8, 55, 0
10, 13680, Note_on_c, 8, 60, 127
10, 13738, Note_on_c, 8, 60, 0
10, 13740, Note_on_c, 8, 48, 127
10, 13798, Note_on_c, 8, 48, 0
10, 13800, Note_on_c, 8, 60, 127
10, 13920, Note_on_c, 8, 60, 0
10, 13920, Note_on_c, 8, 60, 127
10, 13978, Note_on_c, 8, 60, 0
10, 13980, Note_on_c, 8, 62, 127
10, 14009, Note_on_c, 8, 62, 0
10, 14010, Note_on_c, 8, 60, 127
10, 14039, Note_on_c, 8, 60, 0
10, 14040, Note_on_c, 8, 58, 127
10, 14098, Note_on_c, 8, 58, 0
10, 14100, Note_on_c, 8, 57, 127
10, 14158, Note_on_c, 8, 57, 0
10, 14160, Note_on_c, 8, 50, 127
10, 14218, Note_on_c, 8, 50, 0
10, 14220, Note_on_c, 8, 38, 127
10, 14278, Note_on_c, 8, 38, 0
10, 14280, Note_on_c, 8, 50, 127
10, 14457, Note_on_c, 8, 50, 0
10, 14460, Note_on_c, 8, 52, 127
10, 14489, Note_on_c, 8, 52, 0
10, 14490, Note_on_c, 8, 50, 127
10, 14519, Note_on_c, 8, 50, 0
10, 14520, Note_on_c, 8, 48, 127
10, 14578, Note_on_c, 8, 48, 0
10, 14580, Note_on_c, 8, 46, 127
10, 14638, Note_on_c, 8, 46, 0
10, 14640, Note_on_c, 8, 48, 127
10, 14698, Note_on_c, 8, 48, 0
10, 14700, Note_on_c, 8, 60, 127
10, 14818, Note_on_c, 8, 60, 0
10, 14820, Note_on_c, 8, 58, 127
10, 14849, Note_on_c, 8, 58, 0
10, 14850, Note_on_c, 8, 57, 127
10, 14879, Note_on_c, 8, 57, 0
10, 14880, Note_on_c, 8, 58, 127
10, 15057, Note_on_c, 8, 58, 0
10, 15060, Note_on_c, 8, 57, 127
10, 15089, Note_on_c, 8, 57, 0
10, 15090, Note_on_c, 8, 55, 127
10, 15119, Note_on_c, 8, 55, 0
10, 15120, Note_on_c, 8, 57, 127
10, 15297, Note_on_c, 8, 57, 0
10, 15300, Note_on_c, 8, 55, 127
10, 15329, Note_on_c, 8, 55, 0
10, 15330, Note_on_c, 8, 53, 127
10, 15359, Note_on_c, 8, 53, 0
10, 15361, Note_on_c, 8, 48, 127
10, 15419, Note_on_c, 8, 48, 0
10, 15421, Note_on_c, 8, 48, 127
10, 15479, Note_on_c, 8, 48, 0
10, 15481, Note_on_c, 8, 48, 127
10, 15539, Note_on_c, 8, 48, 0
10, 15540, Note_on_c, 8, 48, 127
10, 15598, Note_on_c, 8, 48, 0
10, 15601, Note_on_c, 8, 53, 127
10, 15659, Note_on_c, 8, 53, 0
10, 15661, Note_on_c, 8, 53, 127
10, 15719, Note_on_c, 8, 53, 0
10, 15720, Note_on_c, 8, 53, 127
10, 15778, Note_on_c, 8, 53, 0
10, 15780, Note_on_c, 8, 46, 127
10, 15838, Note_on_c, 8, 46, 0
10, 15840, Note_on_c, 8, 48, 127
10, 15869, Note_on_c, 8, 48, 0
10, 15870, Note_on_c, 8, 60, 127
10, 15899, Note_on_c, 8, 60, 0
10, 15900, Note_on_c, 8, 58, 127
10, 15929, Note_on_c, 8, 58, 0
10, 15930, Note_on_c, 8, 60, 127
10, 15959, Note_on_c, 8, 60, 0
10, 15960, Note_on_c, 8, 52, 127
10, 15989, Note_on_c, 8, 52, 0
10, 15990, Note_on_c, 8, 60, 127
10, 16019, Note_on_c, 8, 60, 0
10, 16020, Note_on_c, 8, 50, 127
10, 16049, Note_on_c, 8, 50, 0
10, 16050, Note_on_c, 8, 60, 127
10, 16079, Note_on_c, 8, 60, 0
10, 16080, Note_on_c, 8, 48, 127
10, 16138, Note_on_c, 8, 48, 0
10, 16140, Note_on_c, 8, 48, 127
10, 16198, Note_on_c, 8, 48, 0
10, 16200, Note_on_c, 8, 48, 127
10, 16258, Note_on_c, 8, 48, 0
10, 16260, Note_on_c, 8, 48, 127
10, 16318, Note_on_c, 8, 48, 0
10, 16320, Note_on_c, 8, 53, 127
10, 16378, Note_on_c, 8, 53, 0
10, 16380, Note_on_c, 8, 53, 127
10, 16438, Note_on_c, 8, 53, 0
10, 16440, Note_on_c, 8, 53, 127
10, 16498, Note_on_c, 8, 53, 0
10, 16500, Note_on_c, 8, 46, 127
10, 16558, Note_on_c, 8, 46, 0
10, 16560, Note_on_c, 8, 48, 127
10, 16589, Note_on_c, 8, 48, 0
10, 16590, Note_on_c, 8, 60, 127
10, 16619, Note_on_c, 8, 60, 0
10, 16620, Note_on_c, 8, 58, 127
10, 16649, Note_on_c, 8, 58, 0
10, 16650, Note_on_c, 8, 60, 127
10, 16679, Note_on_c, 8, 60, 0
10, 16680, Note_on_c, 8, 52, 127
10, 16709, Note_on_c, 8, 52, 0
10, 16710, Note_on_c, 8, 60, 127
10, 16739, Note_on_c, 8, 60, 0
10, 16740, Note_on_c, 8, 50, 127
10, 16769, Note_on_c, 8, 50, 0
10, 16770, Note_on_c, 8, 60, 127
10, 16799, Note_on_c, 8, 60, 0
10, 16800, Note_on_c, 8, 48, 127
10, 16829, Note_on_c, 8, 48, 0
10, 16830, Note_on_c, 8, 60, 127
10, 16859, Note_on_c, 8, 60, 0
10, 16860, Note_on_c, 8, 58, 127
10, 16889, Note_on_c, 8, 58, 0
10, 16890, Note_on_c, 8, 60, 127
10, 16919, Note_on_c, 8, 60, 0
10, 16920, Note_on_c, 8, 52, 127
10, 16949, Note_on_c, 8, 52, 0
10, 16950, Note_on_c, 8, 60, 127
10, 16979, Note_on_c, 8, 60, 0
10, 16980, Note_on_c, 8, 50, 127
10, 17009, Note_on_c, 8, 50, 0
10, 17010, Note_on_c, 8, 60, 127
10, 17039, Note_on_c, 8, 60, 0
10, 17040, Note_on_c, 8, 48, 127
10, 17098, Note_on_c, 8, 48, 0
10, 17100, Note_on_c, 8, 48, 127
10, 17158, Note_on_c, 8, 48, 0
10, 17160, Note_on_c, 8, 53, 127
10, 17218, Note_on_c, 8, 53, 0
10, 17220, Note_on_c, 8, 58, 127
10, 17278, Note_on_c, 8, 58, 0
10, 17280, Note_on_c, 8, 60, 127
10, 17398, Note_on_c, 8, 60, 0
10, 17400, Note_on_c, 8, 48, 127
10, 17518, Note_on_c, 8, 48, 0
10, 17520, Note_on_c, 8, 41, 127
10, 17638, Note_on_c, 8, 41, 0
10, 17820, Note_on_c, 8, 53, 127
10, 17878, Note_on_c, 8, 53, 0
10, 17880, Note_on_c, 8, 53, 127
10, 17938, Note_on_c, 8, 53, 0
10, 17940, Note_on_c, 8, 55, 127
10, 17969, Note_on_c, 8, 55, 0
10, 17970, Note_on_c, 8, 57, 127
10, 17999, Note_on_c, 8, 57, 0
10, 18000, Note_on_c, 8, 58, 127
10, 18058, Note_on_c, 8, 58, 0
10, 18060, Note_on_c, 8, 46, 127
10, 18118, Note_on_c, 8, 46, 0
10, 18120, Note_on_c, 8, 58, 127
10, 18297, Note_on_c, 8, 58, 0
10, 18300, Note_on_c, 8, 60, 127
10, 18329, Note_on_c, 8, 60, 0
10, 18330, Note_on_c, 8, 58, 127
10, 18359, Note_on_c, 8, 58, 0
10, 18360, Note_on_c, 8, 57, 127
10, 18418, Note_on_c, 8, 57, 0
10, 18420, Note_on_c, 8, 55, 127
10, 18478, Note_on_c, 8, 55, 0
10, 18480, Note_on_c, 8, 60, 127
10, 18538, Note_on_c, 8, 60, 0
10, 18540, Note_on_c, 8, 48, 127
10, 18598, Note_on_c, 8, 48, 0
10, 18600, Note_on_c, 8, 60, 127
10, 18718, Note_on_c, 8, 60, 0
10, 18720, Note_on_c, 8, 53, 127
10, 18778, Note_on_c, 8, 53, 0
10, 18780, Note_on_c, 8, 41, 127
10, 18838, Note_on_c, 8, 41, 0
10, 18840, Note_on_c, 8, 48, 127
10, 18898, Note_on_c, 8, 48, 0
10, 18900, Note_on_c, 8, 36, 127
10, 18958, Note_on_c, 8, 36, 0
10, 18960, Note_on_c, 8, 53, 127
10, 19018, Note_on_c, 8, 53, 0
10, 19020, Note_on_c, 8, 41, 127
10, 19078, Note_on_c, 8, 41, 0
10, 19080, Note_on_c, 8, 48, 127
10, 19138, Note_on_c, 8, 48, 0
10, 19140, Note_on_c, 8, 36, 127
10, 19198, Note_on_c, 8, 36, 0
10, 19200, Note_on_c, 8, 41, 127
10, 19437, Note_on_c, 8, 41, 0
10, 19437, End_track
11, 0, Start_track
11, 0, MIDI_port, 0
11, 0, Title_t, "Contrabassi"
11, 0, Program_c, 10, 43
11, 0, Control_c, 10, 7, 35
11, 0, Control_c, 10, 10, 70
11, 0, Control_c, 10, 11, 127
11, 0, Control_c, 10, 8, 64
11, 4620, Note_on_c, 10, 53, 127
11, 4678, Note_on_c, 10, 53, 0
11, 4680, Note_on_c, 10, 53, 127
11, 4738, Note_on_c, 10, 53, 0
11, 4740, Note_on_c, 10, 55, 127
11, 4769, Note_on_c, 10, 55, 0
11, 4770, Note_on_c, 10, 57, 127
11, 4799, Note_on_c, 10, 57, 0
11, 4800, Note_on_c, 10, 58, 127
11, 4858, Note_on_c, 10, 58, 0
11, 4860, Note_on_c, 10, 46, 127
11, 4918, Note_on_c, 10, 46, 0
11, 4920, Note_on_c, 10, 58, 127
11, 5097, Note_on_c, 10, 58, 0
11, 5100, Note_on_c, 10, 60, 127
11, 5129, Note_on_c, 10, 60, 0
11, 5130, Note_on_c, 10, 58, 127
11, 5159, Note_on_c, 10, 58, 0
11, 5160, Note_on_c, 10, 57, 127
11, 5218, Note_on_c, 10, 57, 0
11, 5220, Note_on_c, 10, 55, 127
11, 5278, Note_on_c, 10, 55, 0
11, 5280, Note_on_c, 10, 60, 127
11, 5338, Note_on_c, 10, 60, 0
11, 5340, Note_on_c, 10, 48, 127
11, 5398, Note_on_c, 10, 48, 0
11, 5400, Note_on_c, 10, 60, 127
11, 5577, Note_on_c, 10, 60, 0
11, 5580, Note_on_c, 10, 62, 127
11, 5609, Note_on_c, 10, 62, 0
11, 5610, Note_on_c, 10, 60, 127
11, 5639, Note_on_c, 10, 60, 0
11, 5640, Note_on_c, 10, 58, 127
11, 5698, Note_on_c, 10, 58, 0
11, 5700, Note_on_c, 10, 57, 127
11, 5758, Note_on_c, 10, 57, 0
11, 5760, Note_on_c, 10, 62, 127
11, 5818, Note_on_c, 10, 62, 0
11, 5820, Note_on_c, 10, 50, 127
11, 5878, Note_on_c, 10, 50, 0
11, 5880, Note_on_c, 10, 62, 127
11, 6057, Note_on_c, 10, 62, 0
11, 6060, Note_on_c, 10, 64, 127
11, 6089, Note_on_c, 10, 64, 0
11, 6090, Note_on_c, 10, 62, 127
11, 6119, Note_on_c, 10, 62, 0
11, 6120, Note_on_c, 10, 60, 127
11, 6178, Note_on_c, 10, 60, 0
11, 6180, Note_on_c, 10, 58, 127
11, 6238, Note_on_c, 10, 58, 0
11, 6240, Note_on_c, 10, 62, 127
11, 6298, Note_on_c, 10, 62, 0
11, 6300, Note_on_c, 10, 53, 127
11, 6358, Note_on_c, 10, 53, 0
11, 6360, Note_on_c, 10, 60, 127
11, 6418, Note_on_c, 10, 60, 0
11, 6420, Note_on_c, 10, 48, 127
11, 6478, Note_on_c, 10, 48, 0
11, 6480, Note_on_c, 10, 41, 127
11, 6598, Note_on_c, 10, 41, 0
11, 9600, Note_on_c, 10, 48, 127
11, 9658, Note_on_c, 10, 48, 0
11, 9660, Note_on_c, 10, 52, 127
11, 9689, Note_on_c, 10, 52, 0
11, 9690, Note_on_c, 10, 50, 127
11, 9719, Note_on_c, 10, 50, 0
11, 9720, Note_on_c, 10, 48, 127
11, 9778, Note_on_c, 10, 48, 0
11, 9780, Note_on_c, 10, 47, 127
11, 9838, Note_on_c, 10, 47, 0
11, 9840, Note_on_c, 10, 48, 127
11, 9898, Note_on_c, 10, 48, 0
11, 9900, Note_on_c, 10, 53, 127
11, 9958, Note_on_c, 10, 53, 0
11, 9960, Note_on_c, 10, 47, 127
11, 10018, Note_on_c, 10, 47, 0
11, 10020, Note_on_c, 10, 43, 127
11, 10078, Note_on_c, 10, 43, 0
11, 10080, Note_on_c, 10, 48, 127
11, 10138, Note_on_c, 10, 48, 0
11, 10140, Note_on_c, 10, 52, 127
11, 10169, Note_on_c, 10, 52, 0
11, 10170, Note_on_c, 10, 50, 127
11, 10199, Note_on_c, 10, 50, 0
11, 10200, Note_on_c, 10, 48, 127
11, 10258, Note_on_c, 10, 48, 0
11, 10260, Note_on_c, 10, 47, 127
11, 10318, Note_on_c, 10, 47, 0
11, 10320, Note_on_c, 10, 48, 127
11, 10378, Note_on_c, 10, 48, 0
11, 10380, Note_on_c, 10, 53, 127
11, 10438, Note_on_c, 10, 53, 0
11, 10440, Note_on_c, 10, 47, 127
11, 10498, Note_on_c, 10, 47, 0
11, 10500, Note_on_c, 10, 47, 127
11, 10558, Note_on_c, 10, 47, 0
11, 10560, Note_on_c, 10, 48, 127
11, 10618, Note_on_c, 10, 48, 0
11, 10620, Note_on_c, 10, 53, 127
11, 10678, Note_on_c, 10, 53, 0
11, 10680, Note_on_c, 10, 55, 127
11, 10738, Note_on_c, 10, 55, 0
11, 10740, Note_on_c, 10, 43, 127
11, 10798, Note_on_c, 10, 43, 0
11, 10800, Note_on_c, 10, 48, 127
11, 10918, Note_on_c, 10, 48, 0
11, 17820, Note_on_c, 10, 53, 127
11, 17878, Note_on_c, 10, 53, 0
11, 17880, Note_on_c, 10, 53, 127
11, 17938, Note_on_c, 10, 53, 0
11, 17940, Note_on_c, 10, 55, 127
11, 17969, Note_on_c, 10, 55, 0
11, 17970, Note_on_c, 10, 57, 127
11, 17999, Note_on_c, 10, 57, 0
11, 18000, Note_on_c, 10, 58, 127
11, 18058, Note_on_c, 10, 58, 0
11, 18060, Note_on_c, 10, 46, 127
11, 18118, Note_on_c, 10, 46, 0
11, 18120, Note_on_c, 10, 58, 127
11, 18297, Note_on_c, 10, 58, 0
11, 18300, Note_on_c, 10, 60, 127
11, 18329, Note_on_c, 10, 60, 0
11, 18330, Note_on_c, 10, 58, 127
11, 18359, Note_on_c, 10, 58, 0
11, 18360, Note_on_c, 10, 57, 127
11, 18418, Note_on_c, 10, 57, 0
11, 18420, Note_on_c, 10, 55, 127
11, 18478, Note_on_c, 10, 55, 0
11, 18480, Note_on_c, 10, 60, 127
11, 18538, Note_on_c, 10, 60, 0
11, 18540, Note_on_c, 10, 48, 127
11, 18598, Note_on_c, 10, 48, 0
11, 18600, Note_on_c, 10, 60, 127
11, 18718, Note_on_c, 10, 60, 0
11, 18720, Note_on_c, 10, 53, 127
11, 18778, Note_on_c, 10, 53, 0
11, 18780, Note_on_c, 10, 41, 127
11, 18838, Note_on_c, 10, 41, 0
11, 18840, Note_on_c, 10, 48, 127
11, 18898, Note_on_c, 10, 48, 0
11, 18900, Note_on_c, 10, 48, 127
11, 18958, Note_on_c, 10, 48, 0
11, 18960, Note_on_c, 10, 53, 127
11, 19018, Note_on_c, 10, 53, 0
11, 19020, Note_on_c, 10, 41, 127
11, 19078, Note_on_c, 10, 41, 0
11, 19080, Note_on_c, 10, 48, 127
11, 19138, Note_on_c, 10, 48, 0
11, 19140, Note_on_c, 10, 48, 127
11, 19198, Note_on_c, 10, 48, 0
11, 19200, Note_on_c, 10, 41, 127
11, 19437, Note_on_c, 10, 41, 0
11, 19437, End_track
12, 0, Start_track
12, 0, MIDI_port, 0
12, 0, Title_t, "Organo"
12, 0, Program_c, 11, 19
12, 0, Control_c, 11, 7, 35
12, 0, Control_c, 11, 10, 85
12, 0, Control_c, 11, 11, 127
12, 0, Control_c, 11, 8, 64
12, 120, Note_on_c, 11, 65, 100
12, 120, Note_on_c, 11, 69, 100
12, 120, Note_on_c, 11, 72, 100
12, 240, Note_on_c, 11, 72, 0
12, 240, Note_on_c, 11, 69, 0
12, 240, Note_on_c, 11, 65, 0
12, 240, Note_on_c, 11, 70, 100
12, 240, Note_on_c, 11, 65, 100
12, 360, Note_on_c, 11, 65, 0
12, 360, Note_on_c, 11, 70, 0
12, 360, Note_on_c, 11, 72, 127
12, 360, Note_on_c, 11, 67, 100
12, 420, Note_on_c, 11, 72, 0
12, 420, Note_on_c, 11, 70, 127
12, 480, Note_on_c, 11, 70, 0
12, 480, Note_on_c, 11, 67, 0
12, 480, Note_on_c, 11, 69, 127
12, 480, Note_on_c, 11, 65, 127
12, 480, Note_on_c, 11, 60, 100
12, 598, Note_on_c, 11, 65, 0
12, 598, Note_on_c, 11, 69, 0
12, 600, Note_on_c, 11, 60, 0
12, 600, Note_on_c, 11, 69, 127
12, 600, Note_on_c, 11, 65, 127
12, 600, Note_on_c, 11, 60, 100
12, 718, Note_on_c, 11, 65, 0
12, 718, Note_on_c, 11, 69, 0
12, 720, Note_on_c, 11, 60, 0
12, 720, Note_on_c, 11, 70, 127
12, 720, Note_on_c, 11, 65, 100
12, 838, Note_on_c, 11, 70, 0
12, 840, Note_on_c, 11, 65, 0
12, 840, Note_on_c, 11, 72, 127
12, 840, Note_on_c, 11, 67, 127
12, 900, Note_on_c, 11, 72, 0
12, 900, Note_on_c, 11, 70, 127
12, 958, Note_on_c, 11, 67, 0
12, 960, Note_on_c, 11, 70, 0
12, 960, Note_on_c, 11, 69, 127
12, 960, Note_on_c, 11, 65, 127
12, 960, Note_on_c, 11, 60, 100
12, 1078, Note_on_c, 11, 65, 0
12, 1078, Note_on_c, 11, 69, 0
12, 1080, Note_on_c, 11, 60, 0
12, 1200, Note_on_c, 11, 67, 100
12, 1200, Note_on_c, 11, 64, 100
12, 1440, Note_on_c, 11, 64, 0
12, 1440, Note_on_c, 11, 67, 0
12, 1440, Note_on_c, 11, 69, 127
12, 1440, Note_on_c, 11, 65, 127
12, 1440, Note_on_c, 11, 60, 100
12, 1558, Note_on_c, 11, 65, 0
12, 1558, Note_on_c, 11, 69, 0
12, 1560, Note_on_c, 11, 60, 0
12, 1680, Note_on_c, 11, 67, 100
12, 1680, Note_on_c, 11, 64, 100
12, 1920, Note_on_c, 11, 64, 0
12, 1920, Note_on_c, 11, 67, 0
12, 1920, Note_on_c, 11, 65, 127
12, 1949, Note_on_c, 11, 65, 0
12, 1950, Note_on_c, 11, 72, 127
12, 1979, Note_on_c, 11, 72, 0
12, 1980, Note_on_c, 11, 70, 127
12, 2009, Note_on_c, 11, 70, 0
12, 2010, Note_on_c, 11, 72, 127
12, 2039, Note_on_c, 11, 72, 0
12, 2040, Note_on_c, 11, 69, 127
12, 2069, Note_on_c, 11, 69, 0
12, 2070, Note_on_c, 11, 72, 127
12, 2099, Note_on_c, 11, 72, 0
12, 2100, Note_on_c, 11, 67, 127
12, 2129, Note_on_c, 11, 67, 0
12, 2130, Note_on_c, 11, 72, 127
12, 2159, Note_on_c, 11, 72, 0
12, 2160, Note_on_c, 11, 65, 127
12, 2189, Note_on_c, 11, 65, 0
12, 2190, Note_on_c, 11, 69, 127
12, 2219, Note_on_c, 11, 69, 0
12, 2220, Note_on_c, 11, 67, 127
12, 2249, Note_on_c, 11, 67, 0
12, 2250, Note_on_c, 11, 69, 127
12, 2279, Note_on_c, 11, 69, 0
12, 2280, Note_on_c, 11, 65, 127
12, 2309, Note_on_c, 11, 65, 0
12, 2310, Note_on_c, 11, 69, 127
12, 2339, Note_on_c, 11, 69, 0
12, 2340, Note_on_c, 11, 64, 127
12, 2369, Note_on_c, 11, 64, 0
12, 2370, Note_on_c, 11, 69, 127
12, 2399, Note_on_c, 11, 69, 0
12, 2400, Note_on_c, 11, 62, 127
12, 2429, Note_on_c, 11, 62, 0
12, 2430, Note_on_c, 11, 74, 127
12, 2459, Note_on_c, 11, 74, 0
12, 2460, Note_on_c, 11, 72, 127
12, 2489, Note_on_c, 11, 72, 0
12, 2490, Note_on_c, 11, 74, 127
12, 2519, Note_on_c, 11, 74, 0
12, 2520, Note_on_c, 11, 70, 127
12, 2549, Note_on_c, 11, 70, 0
12, 2550, Note_on_c, 11, 74, 127
12, 2579, Note_on_c, 11, 74, 0
12, 2580, Note_on_c, 11, 69, 127
12, 2609, Note_on_c, 11, 69, 0
12, 2610, Note_on_c, 11, 74, 127
12, 2639, Note_on_c, 11, 74, 0
12, 2640, Note_on_c, 11, 67, 127
12, 2669, Note_on_c, 11, 67, 0
12, 2670, Note_on_c, 11, 70, 127
12, 2699, Note_on_c, 11, 70, 0
12, 2700, Note_on_c, 11, 69, 127
12, 2729, Note_on_c, 11, 69, 0
12, 2730, Note_on_c, 11, 70, 127
12, 2759, Note_on_c, 11, 70, 0
12, 2760, Note_on_c, 11, 67, 127
12, 2789, Note_on_c, 11, 67, 0
12, 2790, Note_on_c, 11, 70, 127
12, 2819, Note_on_c, 11, 70, 0
12, 2820, Note_on_c, 11, 65, 127
12, 2848, Note_on_c, 11, 65, 0
12, 2850, Note_on_c, 11, 70, 127
12, 2879, Note_on_c, 11, 70, 0
12, 2880, Note_on_c, 11, 64, 127
12, 2938, Note_on_c, 11, 64, 0
12, 2940, Note_on_c, 11, 60, 127
12, 2998, Note_on_c, 11, 60, 0
12, 3390, Note_on_c, 11, 72, 127
12, 3419, Note_on_c, 11, 72, 0
12, 3420, Note_on_c, 11, 67, 127
12, 3449, Note_on_c, 11, 67, 0
12, 3450, Note_on_c, 11, 72, 127
12, 3479, Note_on_c, 11, 72, 0
12, 3480, Note_on_c, 11, 64, 127
12, 3509, Note_on_c, 11, 64, 0
12, 3510, Note_on_c, 11, 72, 127
12, 3539, Note_on_c, 11, 72, 0
12, 3540, Note_on_c, 11, 62, 127
12, 3569, Note_on_c, 11, 62, 0
12, 3570, Note_on_c, 11, 72, 127
12, 3599, Note_on_c, 11, 72, 0
12, 3600, Note_on_c, 11, 60, 127
12, 3718, Note_on_c, 11, 60, 0
12, 4110, Note_on_c, 11, 72, 127
12, 4139, Note_on_c, 11, 72, 0
12, 4140, Note_on_c, 11, 67, 127
12, 4169, Note_on_c, 11, 67, 0
12, 4170, Note_on_c, 11, 72, 127
12, 4199, Note_on_c, 11, 72, 0
12, 4200, Note_on_c, 11, 64, 127
12, 4229, Note_on_c, 11, 64, 0
12, 4230, Note_on_c, 11, 72, 127
12, 4259, Note_on_c, 11, 72, 0
12, 4260, Note_on_c, 11, 62, 127
12, 4289, Note_on_c, 11, 62, 0
12, 4290, Note_on_c, 11, 72, 127
12, 4319, Note_on_c, 11, 72, 0
12, 4320, Note_on_c, 11, 60, 127
12, 4438, Note_on_c, 11, 60, 0
12, 4680, Note_on_c, 11, 65, 127
12, 4680, Note_on_c, 11, 72, 127
12, 4680, Note_on_c, 11, 69, 127
12, 4798, Note_on_c, 11, 69, 0
12, 4798, Note_on_c, 11, 72, 0
12, 4798, Note_on_c, 11, 65, 0
12, 4800, Note_on_c, 11, 70, 127
12, 4800, Note_on_c, 11, 65, 127
12, 4800, Note_on_c, 11, 62, 127
12, 5040, Note_on_c, 11, 62, 0
12, 5040, Note_on_c, 11, 65, 0
12, 5040, Note_on_c, 11, 70, 0
12, 5040, Note_on_c, 11, 74, 127
12, 5040, Note_on_c, 11, 67, 127
12, 5280, Note_on_c, 11, 67, 0
12, 5280, Note_on_c, 11, 74, 0
12, 5280, Note_on_c, 11, 67, 127
12, 5280, Note_on_c, 11, 76, 127
12, 5280, Note_on_c, 11, 72, 127
12, 5517, Note_on_c, 11, 72, 0
12, 5517, Note_on_c, 11, 76, 0
12, 5520, Note_on_c, 11, 67, 0
12, 5520, Note_on_c, 11, 76, 127
12, 5520, Note_on_c, 11, 69, 127
12, 5757, Note_on_c, 11, 69, 0
12, 5757, Note_on_c, 11, 76, 0
12, 5760, Note_on_c, 11, 74, 127
12, 5760, Note_on_c, 11, 65, 127
12, 5760, Note_on_c, 11, 69, 127
12, 6000, Note_on_c, 11, 69, 0
12, 6000, Note_on_c, 11, 65, 0
12, 6000, Note_on_c, 11, 74, 0
12, 6000, Note_on_c, 11, 77, 127
12, 6000, Note_on_c, 11, 70, 127
12, 6000, Note_on_c, 11, 65, 127
12, 6120, Note_on_c, 11, 70, 0
12, 6120, Note_on_c, 11, 77, 0
12, 6120, Note_on_c, 11, 76, 127
12, 6180, Note_on_c, 11, 76, 0
12, 6180, Note_on_c, 11, 74, 127
12, 6240, Note_on_c, 11, 74, 0
12, 6240, Note_on_c, 11, 65, 0
12, 6240, Note_on_c, 11, 67, 127
12, 6240, Note_on_c, 11, 64, 127
12, 6240, Note_on_c, 11, 72, 127
12, 6298, Note_on_c, 11, 64, 0
12, 6298, Note_on_c, 11, 67, 0
12, 6300, Note_on_c, 11, 69, 127
12, 6300, Note_on_c, 11, 65, 127
12, 6358, Note_on_c, 11, 65, 0
12, 6358, Note_on_c, 11, 69, 0
12, 6358, Note_on_c, 11, 72, 0
12, 6360, Note_on_c, 11, 64, 127
12, 6360, Note_on_c, 11, 67, 127
12, 6360, Note_on_c, 11, 72, 127
12, 6478, Note_on_c, 11, 72, 0
12, 6478, Note_on_c, 11, 67, 0
12, 6478, Note_on_c, 11, 64, 0
12, 6480, Note_on_c, 11, 69, 127
12, 6480, Note_on_c, 11, 65, 127
12, 6480, Note_on_c, 11, 60, 127
12, 6598, Note_on_c, 11, 60, 0
12, 6598, Note_on_c, 11, 65, 0
12, 6598, Note_on_c, 11, 69, 0
12, 6840, Note_on_c, 11, 65, 127
12, 6840, Note_on_c, 11, 72, 127
12, 6958, Note_on_c, 11, 72, 0
12, 6958, Note_on_c, 11, 65, 0
12, 6960, Note_on_c, 11, 70, 127
12, 6960, Note_on_c, 11, 62, 127
12, 7078, Note_on_c, 11, 62, 0
12, 7080, Note_on_c, 11, 64, 127
12, 7198, Note_on_c, 11, 64, 0
12, 7200, Note_on_c, 11, 70, 0
12, 7200, Note_on_c, 11, 70, 127
12, 7200, Note_on_c, 11, 60, 127
12, 7318, Note_on_c, 11, 70, 0
12, 7320, Note_on_c, 11, 69, 127
12, 7438, Note_on_c, 11, 69, 0
12, 7440, Note_on_c, 11, 60, 0
12, 7440, Note_on_c, 11, 72, 127
12, 7440, Note_on_c, 11, 69, 127
12, 7440, Note_on_c, 11, 65, 127
12, 7677, Note_on_c, 11, 65, 0
12, 7677, Note_on_c, 11, 69, 0
12, 7677, Note_on_c, 11, 72, 0
12, 7680, Note_on_c, 11, 69, 127
12, 7680, Note_on_c, 11, 72, 127
12, 7680, Note_on_c, 11, 65, 127
12, 7917, Note_on_c, 11, 65, 0
12, 7917, Note_on_c, 11, 69, 0
12, 7919, Note_on_c, 11, 72, 0
12, 7920, Note_on_c, 11, 70, 127
12, 7920, Note_on_c, 11, 65, 127
12, 7920, Note_on_c, 11, 62, 127
12, 8157, Note_on_c, 11, 62, 0
12, 8157, Note_on_c, 11, 65, 0
12, 8157, Note_on_c, 11, 70, 0
12, 8160, Note_on_c, 11, 74, 127
12, 8160, Note_on_c, 11, 67, 127
12, 8160, Note_on_c, 11, 62, 127
12, 8397, Note_on_c, 11, 62, 0
12, 8397, Note_on_c, 11, 67, 0
12, 8397, Note_on_c, 11, 74, 0
12, 8400, Note_on_c, 11, 72, 127
12, 8400, Note_on_c, 11, 67, 127
12, 8400, Note_on_c, 11, 64, 127
12, 8637, Note_on_c, 11, 64, 0
12, 8637, Note_on_c, 11, 67, 0
12, 8637, Note_on_c, 11, 72, 0
12, 8640, Note_on_c, 11, 76, 127
12, 8640, Note_on_c, 11, 69, 127
12, 8640, Note_on_c, 11, 64, 127
12, 8877, Note_on_c, 11, 64, 0
12, 8877, Note_on_c, 11, 69, 0
12, 8877, Note_on_c, 11, 76, 0
12, 8880, Note_on_c, 11, 74, 127
12, 8880, Note_on_c, 11, 69, 127
12, 8880, Note_on_c, 11, 65, 127
12, 9117, Note_on_c, 11, 65, 0
12, 9117, Note_on_c, 11, 69, 0
12, 9117, Note_on_c, 11, 74, 0
12, 9120, Note_on_c, 11, 62, 127
12, 9120, Note_on_c, 11, 67, 127
12, 9120, Note_on_c, 11, 71, 127
12, 9240, Note_on_c, 11, 71, 0
12, 9240, Note_on_c, 11, 67, 0
12, 9240, Note_on_c, 11, 62, 0
12, 9240, Note_on_c, 11, 72, 127
12, 9240, Note_on_c, 11, 67, 127
12, 9240, Note_on_c, 11, 64, 127
12, 9360, Note_on_c, 11, 64, 0
12, 9360, Note_on_c, 11, 67, 0
12, 9360, Note_on_c, 11, 72, 0
12, 9360, Note_on_c, 11, 65, 127
12, 9360, Note_on_c, 11, 72, 127
12, 9420, Note_on_c, 11, 65, 0
12, 9420, Note_on_c, 11, 64, 127
12, 9480, Note_on_c, 11, 64, 0
12, 9480, Note_on_c, 11, 72, 0
12, 9480, Note_on_c, 11, 72, 127
12, 9480, Note_on_c, 11, 62, 127
12, 9540, Note_on_c, 11, 72, 0
12, 9540, Note_on_c, 11, 71, 127
12, 9600, Note_on_c, 11, 71, 0
12, 9600, Note_on_c, 11, 62, 0
12, 9600, Note_on_c, 11, 64, 127
12, 9600, Note_on_c, 11, 72, 127
12, 9601, Note_on_c, 11, 67, 127
12, 9780, Note_on_c, 11, 72, 0
12, 9780, Note_on_c, 11, 64, 0
12, 9780, Note_on_c, 11, 74, 100
12, 9780, Note_on_c, 11, 67, 100
12, 9781, Note_on_c, 11, 67, 0
12, 9840, Note_on_c, 11, 67, 0
12, 9840, Note_on_c, 11, 74, 0
12, 9840, Note_on_c, 11, 67, 100
12, 9840, Note_on_c, 11, 76, 100
12, 9900, Note_on_c, 11, 76, 0
12, 9900, Note_on_c, 11, 67, 0
12, 9900, Note_on_c, 11, 69, 100
12, 9900, Note_on_c, 11, 77, 100
12, 9960, Note_on_c, 11, 77, 0
12, 9960, Note_on_c, 11, 69, 0
12, 9960, Note_on_c, 11, 67, 100
12, 9960, Note_on_c, 11, 74, 100
12, 10020, Note_on_c, 11, 74, 0
12, 10020, Note_on_c, 11, 67, 0
12, 10020, Note_on_c, 11, 65, 100
12, 10020, Note_on_c, 11, 71, 100
12, 10080, Note_on_c, 11, 71, 0
12, 10080, Note_on_c, 11, 65, 0
12, 10080, Note_on_c, 11, 64, 127
12, 10080, Note_on_c, 11, 72, 127
12, 10081, Note_on_c, 11, 67, 127
12, 10260, Note_on_c, 11, 72, 0
12, 10260, Note_on_c, 11, 64, 0
12, 10260, Note_on_c, 11, 74, 100
12, 10260, Note_on_c, 11, 67, 100
12, 10261, Note_on_c, 11, 67, 0
12, 10320, Note_on_c, 11, 67, 0
12, 10320, Note_on_c, 11, 74, 0
12, 10320, Note_on_c, 11, 72, 100
12, 10320, Note_on_c, 11, 76, 100
12, 10320, Note_on_c, 11, 67, 100
12, 10380, Note_on_c, 11, 67, 0
12, 10380, Note_on_c, 11, 76, 0
12, 10380, Note_on_c, 11, 72, 0
12, 10380, Note_on_c, 11, 72, 100
12, 10380, Note_on_c, 11, 69, 100
12, 10380, Note_on_c, 11, 77, 100
12, 10440, Note_on_c, 11, 77, 0
12, 10440, Note_on_c, 11, 69, 0
12, 10440, Note_on_c, 11, 72, 0
12, 10440, Note_on_c, 11, 67, 100
12, 10440, Note_on_c, 11, 74, 100
12, 10559, Note_on_c, 11, 74, 0
12, 10559, Note_on_c, 11, 67, 0
12, 10560, Note_on_c, 11, 72, 100
12, 10560, Note_on_c, 11, 76, 100
12, 10560, Note_on_c, 11, 67, 100
12, 10619, Note_on_c, 11, 67, 0
12, 10619, Note_on_c, 11, 76, 0
12, 10619, Note_on_c, 11, 72, 0
12, 10620, Note_on_c, 11, 72, 100
12, 10620, Note_on_c, 11, 69, 100
12, 10620, Note_on_c, 11, 77, 100
12, 10679, Note_on_c, 11, 77, 0
12, 10679, Note_on_c, 11, 69, 0
12, 10679, Note_on_c, 11, 72, 0
12, 10680, Note_on_c, 11, 67, 100
12, 10680, Note_on_c, 11, 74, 100
12, 10687, Note_on_c, 11, 71, 100
12, 10740, Note_on_c, 11, 67, 100
12, 10746, Note_on_c, 11, 71, 0
12, 10799, Note_on_c, 11, 67, 0
12, 10799, Note_on_c, 11, 74, 0
12, 10799, Note_on_c, 11, 67, 0
12, 10800, Note_on_c, 11, 64, 100
12, 10800, Note_on_c, 11, 67, 100
12, 10800, Note_on_c, 11, 72, 100
12, 10978, Note_on_c, 11, 72, 0
12, 10978, Note_on_c, 11, 67, 0
12, 10978, Note_on_c, 11, 64, 0
12, 10980, Note_on_c, 11, 74, 100
12, 10980, Note_on_c, 11, 67, 100
12, 10980, Note_on_c, 11, 71, 100
12, 11039, Note_on_c, 11, 71, 0
12, 11039, Note_on_c, 11, 67, 0
12, 11039, Note_on_c, 11, 74, 0
12, 11040, Note_on_c, 11, 67, 127
12, 11040, Note_on_c, 11, 72, 127
12, 11040, Note_on_c, 11, 76, 127
12, 11158, Note_on_c, 11, 76, 0
12, 11158, Note_on_c, 11, 67, 0
12, 11159, Note_on_c, 11, 72, 0
12, 11160, Note_on_c, 11, 72, 127
12, 11161, Note_on_c, 11, 67, 127
12, 11278, Note_on_c, 11, 72, 0
12, 11279, Note_on_c, 11, 67, 0
12, 11280, Note_on_c, 11, 69, 127
12, 11280, Note_on_c, 11, 74, 127
12, 11338, Note_on_c, 11, 69, 0
12, 11340, Note_on_c, 11, 65, 127
12, 11398, Note_on_c, 11, 65, 0
12, 11399, Note_on_c, 11, 74, 0
12, 11400, Note_on_c, 11, 74, 127
12, 11400, Note_on_c, 11, 67, 127
12, 11458, Note_on_c, 11, 74, 0
12, 11460, Note_on_c, 11, 71, 127
12, 11518, Note_on_c, 11, 67, 0
12, 11519, Note_on_c, 11, 71, 0
12, 11520, Note_on_c, 11, 67, 100
12, 11520, Note_on_c, 11, 72, 100
12, 11520, Note_on_c, 11, 64, 100
12, 11639, Note_on_c, 11, 64, 0
12, 11639, Note_on_c, 11, 72, 0
12, 11639, Note_on_c, 11, 67, 0
12, 11640, Note_on_c, 11, 67, 100
12, 11640, Note_on_c, 11, 72, 100
12, 11640, Note_on_c, 11, 64, 100
12, 11758, Note_on_c, 11, 64, 0
12, 11758, Note_on_c, 11, 72, 0
12, 11758, Note_on_c, 11, 67, 0
12, 11880, Note_on_c, 11, 67, 100
12, 11999, Note_on_c, 11, 67, 0
12, 12000, Note_on_c, 11, 71, 100
12, 12000, Note_on_c, 11, 65, 100
12, 12000, Note_on_c, 11, 74, 100
12, 12119, Note_on_c, 11, 74, 0
12, 12119, Note_on_c, 11, 65, 0
12, 12119, Note_on_c, 11, 71, 0
12, 12120, Note_on_c, 11, 74, 100
12, 12120, Note_on_c, 11, 65, 100
12, 12120, Note_on_c, 11, 67, 100
12, 12239, Note_on_c, 11, 67, 0
12, 12239, Note_on_c, 11, 65, 0
12, 12239, Note_on_c, 11, 74, 0
12, 12240, Note_on_c, 11, 67, 100
12, 12240, Note_on_c, 11, 72, 100
12, 12240, Note_on_c, 11, 65, 100
12, 12359, Note_on_c, 11, 65, 0
12, 12360, Note_on_c, 11, 64, 100
12, 12478, Note_on_c, 11, 72, 0
12, 12478, Note_on_c, 11, 67, 0
12, 12479, Note_on_c, 11, 64, 0
12, 12480, Note_on_c, 11, 70, 100
12, 12480, Note_on_c, 11, 65, 100
12, 12480, Note_on_c, 11, 60, 100
12, 12599, Note_on_c, 11, 70, 0
12, 12600, Note_on_c, 11, 69, 100
12, 12718, Note_on_c, 11, 60, 0
12, 12718, Note_on_c, 11, 65, 0
12, 12719, Note_on_c, 11, 69, 0
12, 12720, Note_on_c, 11, 69, 100
12, 12720, Note_on_c, 11, 65, 100
12, 12720, Note_on_c, 11, 60, 100
12, 12958, Note_on_c, 11, 60, 0
12, 12958, Note_on_c, 11, 65, 0
12, 12958, Note_on_c, 11, 69, 0
12, 12960, Note_on_c, 11, 72, 100
12, 12960, Note_on_c, 11, 69, 100
12, 12960, Note_on_c, 11, 65, 100
12, 13198, Note_on_c, 11, 65, 0
12, 13198, Note_on_c, 11, 69, 0
12, 13198, Note_on_c, 11, 72, 0
12, 13200, Note_on_c, 11, 70, 100
12, 13200, Note_on_c, 11, 65, 100
12, 13200, Note_on_c, 11, 62, 100
12, 13438, Note_on_c, 11, 62, 0
12, 13438, Note_on_c, 11, 65, 0
12, 13438, Note_on_c, 11, 70, 0
12, 13440, Note_on_c, 11, 67, 100
12, 13440, Note_on_c, 11, 74, 100
12, 13678, Note_on_c, 11, 74, 0
12, 13678, Note_on_c, 11, 67, 0
12, 13680, Note_on_c, 11, 67, 100
12, 13680, Note_on_c, 11, 72, 100
12, 13680, Note_on_c, 11, 64, 100
12, 13918, Note_on_c, 11, 64, 0
12, 13918, Note_on_c, 11, 72, 0
12, 13918, Note_on_c, 11, 67, 0
12, 13920, Note_on_c, 11, 76, 100
12, 13920, Note_on_c, 11, 76, 127
12, 13920, Note_on_c, 11, 69, 127
12, 14040, Note_on_c, 11, 76, 0
12, 14040, Note_on_c, 11, 74, 100
12, 14099, Note_on_c, 11, 74, 0
12, 14100, Note_on_c, 11, 72, 100
12, 14157, Note_on_c, 11, 69, 0
12, 14157, Note_on_c, 11, 76, 0
12, 14159, Note_on_c, 11, 72, 0
12, 14160, Note_on_c, 11, 69, 100
12, 14160, Note_on_c, 11, 77, 100
12, 14160, Note_on_c, 11, 74, 100
12, 14398, Note_on_c, 11, 74, 0
12, 14398, Note_on_c, 11, 77, 0
12, 14398, Note_on_c, 11, 69, 0
12, 14400, Note_on_c, 11, 77, 100
12, 14400, Note_on_c, 11, 70, 100
12, 14400, Note_on_c, 11, 65, 100
12, 14638, Note_on_c, 11, 65, 0
12, 14638, Note_on_c, 11, 70, 0
12, 14638, Note_on_c, 11, 77, 0
12, 14640, Note_on_c, 11, 70, 100
12, 14640, Note_on_c, 11, 76, 100
12, 14759, Note_on_c, 11, 70, 0
12, 14760, Note_on_c, 11, 69, 100
12, 14878, Note_on_c, 11, 76, 0
12, 14880, Note_on_c, 11, 74, 100
12, 14998, Note_on_c, 11, 69, 0
12, 15000, Note_on_c, 11, 67, 100
12, 15118, Note_on_c, 11, 74, 0
12, 15120, Note_on_c, 11, 72, 100
12, 15238, Note_on_c, 11, 67, 0
12, 15240, Note_on_c, 11, 65, 100
12, 15358, Note_on_c, 11, 72, 0
12, 15359, Note_on_c, 11, 65, 0
12, 15360, Note_on_c, 11, 72, 100
12, 15360, Note_on_c, 11, 67, 100
12, 15360, Note_on_c, 11, 64, 100
12, 15598, Note_on_c, 11, 64, 0
12, 15598, Note_on_c, 11, 67, 0
12, 15598, Note_on_c, 11, 72, 0
12, 15600, Note_on_c, 11, 60, 100
12, 15600, Note_on_c, 11, 65, 100
12, 15600, Note_on_c, 11, 69, 100
12, 15778, Note_on_c, 11, 69, 0
12, 15778, Note_on_c, 11, 65, 0
12, 15778, Note_on_c, 11, 60, 0
12, 15780, Note_on_c, 11, 70, 100
12, 15780, Note_on_c, 11, 65, 100
12, 15780, Note_on_c, 11, 62, 100
12, 15839, Note_on_c, 11, 62, 0
12, 15839, Note_on_c, 11, 65, 0
12, 15839, Note_on_c, 11, 70, 0
12, 15840, Note_on_c, 11, 67, 100
12, 15840, Note_on_c, 11, 64, 100
12, 15870, Note_on_c, 11, 64, 0
12, 15870, Note_on_c, 11, 67, 0
12, 15870, Note_on_c, 11, 72, 100
12, 15900, Note_on_c, 11, 72, 0
12, 15900, Note_on_c, 11, 70, 100
12, 15930, Note_on_c, 11, 70, 0
12, 15930, Note_on_c, 11, 72, 100
12, 15960, Note_on_c, 11, 72, 0
12, 15960, Note_on_c, 11, 64, 100
12, 15990, Note_on_c, 11, 64, 0
12, 15990, Note_on_c, 11, 72, 100
12, 16020, Note_on_c, 11, 72, 0
12, 16020, Note_on_c, 11, 62, 100
12, 16050, Note_on_c, 11, 62, 0
12, 16050, Note_on_c, 11, 72, 100
12, 16080, Note_on_c, 11, 72, 0
12, 16080, Note_on_c, 11, 60, 100
12, 16199, Note_on_c, 11, 60, 0
12, 16200, Note_on_c, 11, 64, 100
12, 16200, Note_on_c, 11, 67, 100
12, 16200, Note_on_c, 11, 72, 100
12, 16319, Note_on_c, 11, 72, 0
12, 16319, Note_on_c, 11, 67, 0
12, 16319, Note_on_c, 11, 64, 0
12, 16320, Note_on_c, 11, 60, 100
12, 16320, Note_on_c, 11, 65, 100
12, 16320, Note_on_c, 11, 69, 100
12, 16498, Note_on_c, 11, 69, 0
12, 16498, Note_on_c, 11, 65, 0
12, 16498, Note_on_c, 11, 60, 0
12, 16500, Note_on_c, 11, 70, 100
12, 16500, Note_on_c, 11, 65, 100
12, 16500, Note_on_c, 11, 62, 100
12, 16559, Note_on_c, 11, 62, 0
12, 16559, Note_on_c, 11, 65, 0
12, 16559, Note_on_c, 11, 70, 0
12, 16560, Note_on_c, 11, 67, 100
12, 16560, Note_on_c, 11, 64, 100
12, 16590, Note_on_c, 11, 64, 0
12, 16590, Note_on_c, 11, 67, 0
12, 16590, Note_on_c, 11, 72, 100
12, 16620, Note_on_c, 11, 72, 0
12, 16620, Note_on_c, 11, 70, 100
12, 16650, Note_on_c, 11, 70, 0
12, 16650, Note_on_c, 11, 72, 100
12, 16680, Note_on_c, 11, 72, 0
12, 16680, Note_on_c, 11, 64, 100
12, 16710, Note_on_c, 11, 64, 0
12, 16710, Note_on_c, 11, 72, 100
12, 16740, Note_on_c, 11, 72, 0
12, 16740, Note_on_c, 11, 62, 100
12, 16770, Note_on_c, 11, 62, 0
12, 16770, Note_on_c, 11, 72, 100
12, 16800, Note_on_c, 11, 72, 0
12, 16800, Note_on_c, 11, 60, 100
12, 16830, Note_on_c, 11, 60, 0
12, 16830, Note_on_c, 11, 72, 100
12, 16860, Note_on_c, 11, 72, 0
12, 16860, Note_on_c, 11, 70, 100
12, 16890, Note_on_c, 11, 70, 0
12, 16890, Note_on_c, 11, 72, 100
12, 16920, Note_on_c, 11, 72, 0
12, 16920, Note_on_c, 11, 64, 100
12, 16950, Note_on_c, 11, 64, 0
12, 16950, Note_on_c, 11, 72, 100
12, 16980, Note_on_c, 11, 72, 0
12, 16980, Note_on_c, 11, 62, 100
12, 17010, Note_on_c, 11, 62, 0
12, 17010, Note_on_c, 11, 72, 100
12, 17040, Note_on_c, 11, 72, 0
12, 17040, Note_on_c, 11, 60, 100
12, 17159, Note_on_c, 11, 60, 0
12, 17160, Note_on_c, 11, 69, 100
12, 17160, Note_on_c, 11, 65, 100
12, 17160, Note_on_c, 11, 60, 100
12, 17219, Note_on_c, 11, 60, 0
12, 17219, Note_on_c, 11, 65, 0
12, 17219, Note_on_c, 11, 69, 0
12, 17220, Note_on_c, 11, 62, 100
12, 17220, Note_on_c, 11, 65, 100
12, 17220, Note_on_c, 11, 70, 100
12, 17279, Note_on_c, 11, 70, 0
12, 17279, Note_on_c, 11, 65, 0
12, 17279, Note_on_c, 11, 62, 0
12, 17280, Note_on_c, 11, 65, 100
12, 17280, Note_on_c, 11, 69, 100
12, 17399, Note_on_c, 11, 69, 0
12, 17399, Note_on_c, 11, 65, 0
12, 17400, Note_on_c, 11, 67, 100
12, 17400, Note_on_c, 11, 64, 100
12, 17400, Note_on_c, 11, 60, 100
12, 17519, Note_on_c, 11, 60, 0
12, 17519, Note_on_c, 11, 64, 0
12, 17519, Note_on_c, 11, 67, 0
12, 17520, Note_on_c, 11, 65, 100
12, 17520, Note_on_c, 11, 57, 100
12, 17520, Note_on_c, 11, 60, 100
12, 17639, Note_on_c, 11, 60, 0
12, 17639, Note_on_c, 11, 57, 0
12, 17639, Note_on_c, 11, 65, 0
12, 17880, Note_on_c, 11, 65, 100
12, 17880, Note_on_c, 11, 69, 100
12, 17880, Note_on_c, 11, 72, 100
12, 17999, Note_on_c, 11, 72, 0
12, 17999, Note_on_c, 11, 69, 0
12, 17999, Note_on_c, 11, 65, 0
12, 18000, Note_on_c, 11, 70, 100
12, 18000, Note_on_c, 11, 65, 100
12, 18000, Note_on_c, 11, 62, 100
12, 18240, Note_on_c, 11, 62, 0
12, 18240, Note_on_c, 11, 65, 0
12, 18240, Note_on_c, 11, 70, 0
12, 18240, Note_on_c, 11, 74, 100
12, 18240, Note_on_c, 11, 67, 100
12, 18240, Note_on_c, 11, 62, 100
12, 18480, Note_on_c, 11, 62, 0
12, 18480, Note_on_c, 11, 67, 0
12, 18480, Note_on_c, 11, 74, 0
12, 18480, Note_on_c, 11, 72, 100
12, 18480, Note_on_c, 11, 67, 100
12, 18480, Note_on_c, 11, 64, 100
12, 18720, Note_on_c, 11, 64, 0
12, 18720, Note_on_c, 11, 67, 0
12, 18720, Note_on_c, 11, 72, 0
12, 18720, Note_on_c, 11, 69, 100
12, 18720, Note_on_c, 11, 65, 100
12, 18720, Note_on_c, 11, 60, 100
12, 18836, Note_on_c, 11, 67, 100
12, 18839, Note_on_c, 11, 60, 0
12, 18839, Note_on_c, 11, 69, 0
12, 18839, Note_on_c, 11, 65, 0
12, 18840, Note_on_c, 11, 65, 100
12, 18840, Note_on_c, 11, 60, 100
12, 18899, Note_on_c, 11, 65, 0
12, 18900, Note_on_c, 11, 64, 100
12, 18955, Note_on_c, 11, 67, 0
12, 18959, Note_on_c, 11, 64, 0
12, 18959, Note_on_c, 11, 60, 0
12, 18960, Note_on_c, 11, 57, 100
12, 18960, Note_on_c, 11, 65, 100
12, 18960, Note_on_c, 11, 60, 100
12, 19080, Note_on_c, 11, 57, 0
12, 19080, Note_on_c, 11, 55, 100
12, 19140, Note_on_c, 11, 65, 0
12, 19140, Note_on_c, 11, 64, 100
12, 19198, Note_on_c, 11, 60, 0
12, 19200, Note_on_c, 11, 64, 0
12, 19200, Note_on_c, 11, 55, 0
12, 19200, Note_on_c, 11, 60, 100
12, 19200, Note_on_c, 11, 57, 100
12, 19200, Note_on_c, 11, 65, 100
12, 19320, Note_on_c, 11, 60, 0
12, 19438, Note_on_c, 11, 65, 0
12, 19438, Note_on_c, 11, 57, 0
12, 19438, End_track
13, 0, Start_track
13, 0, MIDI_port, 0
13, 0, Title_t, "Organo"
13, 0, Program_c, 12, 19
13, 0, Control_c, 12, 7, 35
13, 0, Control_c, 12, 10, 85
13, 0, Control_c, 12, 11, 127
13, 0, Control_c, 12, 8, 64
13, 0, Note_on_c, 12, 53, 127
13, 58, Note_on_c, 12, 53, 0
13, 60, Note_on_c, 12, 57, 127
13, 89, Note_on_c, 12, 57, 0
13, 90, Note_on_c, 12, 55, 127
13, 119, Note_on_c, 12, 55, 0
13, 120, Note_on_c, 12, 53, 127
13, 178, Note_on_c, 12, 53, 0
13, 180, Note_on_c, 12, 52, 127
13, 238, Note_on_c, 12, 52, 0
13, 240, Note_on_c, 12, 50, 127
13, 298, Note_on_c, 12, 50, 0
13, 300, Note_on_c, 12, 58, 127
13, 358, Note_on_c, 12, 58, 0
13, 360, Note_on_c, 12, 52, 127
13, 418, Note_on_c, 12, 52, 0
13, 420, Note_on_c, 12, 48, 127
13, 478, Note_on_c, 12, 48, 0
13, 480, Note_on_c, 12, 53, 127
13, 538, Note_on_c, 12, 53, 0
13, 540, Note_on_c, 12, 57, 127
13, 569, Note_on_c, 12, 57, 0
13, 570, Note_on_c, 12, 55, 127
13, 599, Note_on_c, 12, 55, 0
13, 600, Note_on_c, 12, 53, 127
13, 658, Note_on_c, 12, 53, 0
13, 660, Note_on_c, 12, 52, 127
13, 718, Note_on_c, 12, 52, 0
13, 720, Note_on_c, 12, 50, 127
13, 778, Note_on_c, 12, 50, 0
13, 780, Note_on_c, 12, 58, 127
13, 838, Note_on_c, 12, 58, 0
13, 840, Note_on_c, 12, 52, 127
13, 898, Note_on_c, 12, 52, 0
13, 900, Note_on_c, 12, 40, 127
13, 958, Note_on_c, 12, 40, 0
13, 960, Note_on_c, 12, 41, 127
13, 1078, Note_on_c, 12, 41, 0
13, 1140, Note_on_c, 12, 53, 127
13, 1198, Note_on_c, 12, 53, 0
13, 1200, Note_on_c, 12, 60, 127
13, 1318, Note_on_c, 12, 60, 0
13, 1320, Note_on_c, 12, 48, 127
13, 1438, Note_on_c, 12, 48, 0
13, 1440, Note_on_c, 12, 41, 127
13, 1558, Note_on_c, 12, 41, 0
13, 1620, Note_on_c, 12, 53, 127
13, 1678, Note_on_c, 12, 53, 0
13, 1680, Note_on_c, 12, 60, 127
13, 1798, Note_on_c, 12, 60, 0
13, 1800, Note_on_c, 12, 48, 127
13, 1918, Note_on_c, 12, 48, 0
13, 1920, Note_on_c, 12, 53, 127
13, 1949, Note_on_c, 12, 53, 0
13, 1950, Note_on_c, 12, 60, 127
13, 1979, Note_on_c, 12, 60, 0
13, 1980, Note_on_c, 12, 58, 127
13, 2009, Note_on_c, 12, 58, 0
13, 2010, Note_on_c, 12, 60, 127
13, 2039, Note_on_c, 12, 60, 0
13, 2040, Note_on_c, 12, 57, 127
13, 2069, Note_on_c, 12, 57, 0
13, 2070, Note_on_c, 12, 60, 127
13, 2099, Note_on_c, 12, 60, 0
13, 2100, Note_on_c, 12, 55, 127
13, 2129, Note_on_c, 12, 55, 0
13, 2130, Note_on_c, 12, 60, 127
13, 2159, Note_on_c, 12, 60, 0
13, 2160, Note_on_c, 12, 53, 127
13, 2189, Note_on_c, 12, 53, 0
13, 2190, Note_on_c, 12, 57, 127
13, 2219, Note_on_c, 12, 57, 0
13, 2220, Note_on_c, 12, 55, 127
13, 2249, Note_on_c, 12, 55, 0
13, 2250, Note_on_c, 12, 57, 127
13, 2279, Note_on_c, 12, 57, 0
13, 2280, Note_on_c, 12, 53, 127
13, 2309, Note_on_c, 12, 53, 0
13, 2310, Note_on_c, 12, 57, 127
13, 2339, Note_on_c, 12, 57, 0
13, 2340, Note_on_c, 12, 52, 127
13, 2369, Note_on_c, 12, 52, 0
13, 2370, Note_on_c, 12, 57, 127
13, 2399, Note_on_c, 12, 57, 0
13, 2400, Note_on_c, 12, 50, 127
13, 2429, Note_on_c, 12, 50, 0
13, 2430, Note_on_c, 12, 62, 127
13, 2459, Note_on_c, 12, 62, 0
13, 2460, Note_on_c, 12, 60, 127
13, 2489, Note_on_c, 12, 60, 0
13, 2490, Note_on_c, 12, 62, 127
13, 2519, Note_on_c, 12, 62, 0
13, 2520, Note_on_c, 12, 58, 127
13, 2549, Note_on_c, 12, 58, 0
13, 2550, Note_on_c, 12, 62, 127
13, 2579, Note_on_c, 12, 62, 0
13, 2580, Note_on_c, 12, 57, 127
13, 2609, Note_on_c, 12, 57, 0
13, 2610, Note_on_c, 12, 62, 127
13, 2639, Note_on_c, 12, 62, 0
13, 2640, Note_on_c, 12, 55, 127
13, 2669, Note_on_c, 12, 55, 0
13, 2670, Note_on_c, 12, 58, 127
13, 2699, Note_on_c, 12, 58, 0
13, 2700, Note_on_c, 12, 57, 127
13, 2729, Note_on_c, 12, 57, 0
13, 2730, Note_on_c, 12, 58, 127
13, 2759, Note_on_c, 12, 58, 0
13, 2760, Note_on_c, 12, 55, 127
13, 2789, Note_on_c, 12, 55, 0
13, 2790, Note_on_c, 12, 58, 127
13, 2819, Note_on_c, 12, 58, 0
13, 2820, Note_on_c, 12, 53, 127
13, 2848, Note_on_c, 12, 53, 0
13, 2850, Note_on_c, 12, 58, 127
13, 2879, Note_on_c, 12, 58, 0
13, 2880, Note_on_c, 12, 52, 127
13, 2938, Note_on_c, 12, 52, 0
13, 2940, Note_on_c, 12, 48, 127
13, 2998, Note_on_c, 12, 48, 0
13, 3390, Note_on_c, 12, 60, 127
13, 3419, Note_on_c, 12, 60, 0
13, 3420, Note_on_c, 12, 55, 127
13, 3449, Note_on_c, 12, 55, 0
13, 3450, Note_on_c, 12, 60, 127
13, 3479, Note_on_c, 12, 60, 0
13, 3480, Note_on_c, 12, 52, 127
13, 3509, Note_on_c, 12, 52, 0
13, 3510, Note_on_c, 12, 60, 127
13, 3539, Note_on_c, 12, 60, 0
13, 3540, Note_on_c, 12, 50, 127
13, 3569, Note_on_c, 12, 50, 0
13, 3570, Note_on_c, 12, 60, 127
13, 3599, Note_on_c, 12, 60, 0
13, 3600, Note_on_c, 12, 48, 127
13, 3718, Note_on_c, 12, 48, 0
13, 4110, Note_on_c, 12, 60, 127
13, 4139, Note_on_c, 12, 60, 0
13, 4140, Note_on_c, 12, 55, 127
13, 4169, Note_on_c, 12, 55, 0
13, 4170, Note_on_c, 12, 60, 127
13, 4199, Note_on_c, 12, 60, 0
13, 4200, Note_on_c, 12, 52, 127
13, 4229, Note_on_c, 12, 52, 0
13, 4230, Note_on_c, 12, 60, 127
13, 4259, Note_on_c, 12, 60, 0
13, 4260, Note_on_c, 12, 50, 127
13, 4289, Note_on_c, 12, 50, 0
13, 4290, Note_on_c, 12, 60, 127
13, 4319, Note_on_c, 12, 60, 0
13, 4320, Note_on_c, 12, 48, 127
13, 4438, Note_on_c, 12, 48, 0
13, 4620, Note_on_c, 12, 53, 127
13, 4678, Note_on_c, 12, 53, 0
13, 4680, Note_on_c, 12, 53, 127
13, 4738, Note_on_c, 12, 53, 0
13, 4740, Note_on_c, 12, 55, 127
13, 4769, Note_on_c, 12, 55, 0
13, 4770, Note_on_c, 12, 57, 127
13, 4799, Note_on_c, 12, 57, 0
13, 4800, Note_on_c, 12, 58, 127
13, 4858, Note_on_c, 12, 58, 0
13, 4860, Note_on_c, 12, 46, 127
13, 4918, Note_on_c, 12, 46, 0
13, 4920, Note_on_c, 12, 58, 127
13, 5097, Note_on_c, 12, 58, 0
13, 5100, Note_on_c, 12, 60, 127
13, 5129, Note_on_c, 12, 60, 0
13, 5130, Note_on_c, 12, 58, 127
13, 5159, Note_on_c, 12, 58, 0
13, 5160, Note_on_c, 12, 57, 127
13, 5218, Note_on_c, 12, 57, 0
13, 5220, Note_on_c, 12, 55, 127
13, 5278, Note_on_c, 12, 55, 0
13, 5280, Note_on_c, 12, 60, 127
13, 5338, Note_on_c, 12, 60, 0
13, 5340, Note_on_c, 12, 48, 127
13, 5398, Note_on_c, 12, 48, 0
13, 5400, Note_on_c, 12, 60, 127
13, 5577, Note_on_c, 12, 60, 0
13, 5580, Note_on_c, 12, 62, 127
13, 5609, Note_on_c, 12, 62, 0
13, 5610, Note_on_c, 12, 60, 127
13, 5639, Note_on_c, 12, 60, 0
13, 5640, Note_on_c, 12, 58, 127
13, 5698, Note_on_c, 12, 58, 0
13, 5700, Note_on_c, 12, 57, 127
13, 5758, Note_on_c, 12, 57, 0
13, 5760, Note_on_c, 12, 62, 127
13, 5818, Note_on_c, 12, 62, 0
13, 5820, Note_on_c, 12, 50, 127
13, 5878, Note_on_c, 12, 50, 0
13, 5880, Note_on_c, 12, 62, 127
13, 6057, Note_on_c, 12, 62, 0
13, 6060, Note_on_c, 12, 64, 127
13, 6089, Note_on_c, 12, 64, 0
13, 6090, Note_on_c, 12, 62, 127
13, 6119, Note_on_c, 12, 62, 0
13, 6120, Note_on_c, 12, 60, 127
13, 6178, Note_on_c, 12, 60, 0
13, 6180, Note_on_c, 12, 58, 127
13, 6238, Note_on_c, 12, 58, 0
13, 6240, Note_on_c, 12, 60, 127
13, 6298, Note_on_c, 12, 60, 0
13, 6300, Note_on_c, 12, 53, 127
13, 6358, Note_on_c, 12, 53, 0
13, 6360, Note_on_c, 12, 60, 127
13, 6418, Note_on_c, 12, 60, 0
13, 6420, Note_on_c, 12, 48, 127
13, 6478, Note_on_c, 12, 48, 0
13, 6480, Note_on_c, 12, 41, 127
13, 6598, Note_on_c, 12, 41, 0
13, 6780, Note_on_c, 12, 53, 127
13, 6838, Note_on_c, 12, 53, 0
13, 6840, Note_on_c, 12, 57, 127
13, 6898, Note_on_c, 12, 57, 0
13, 6900, Note_on_c, 12, 60, 127
13, 6958, Note_on_c, 12, 60, 0
13, 6960, Note_on_c, 12, 55, 127
13, 7018, Note_on_c, 12, 55, 0
13, 7020, Note_on_c, 12, 53, 127
13, 7078, Note_on_c, 12, 53, 0
13, 7080, Note_on_c, 12, 55, 127
13, 7138, Note_on_c, 12, 55, 0
13, 7140, Note_on_c, 12, 48, 127
13, 7198, Note_on_c, 12, 48, 0
13, 7200, Note_on_c, 12, 53, 127
13, 7318, Note_on_c, 12, 53, 0
13, 7320, Note_on_c, 12, 41, 127
13, 7436, Note_on_c, 12, 53, 127
13, 7438, Note_on_c, 12, 41, 0
13, 7524, Note_on_c, 12, 53, 0
13, 7526, Note_on_c, 12, 53, 127
13, 7555, Note_on_c, 12, 53, 0
13, 7556, Note_on_c, 12, 53, 127
13, 7614, Note_on_c, 12, 53, 0
13, 7616, Note_on_c, 12, 53, 127
13, 7674, Note_on_c, 12, 53, 0
13, 7680, Note_on_c, 12, 53, 127
13, 7738, Note_on_c, 12, 53, 0
13, 7740, Note_on_c, 12, 53, 127
13, 7798, Note_on_c, 12, 53, 0
13, 7800, Note_on_c, 12, 53, 127
13, 7858, Note_on_c, 12, 53, 0
13, 7860, Note_on_c, 12, 55, 127
13, 7889, Note_on_c, 12, 55, 0
13, 7890, Note_on_c, 12, 57, 127
13, 7919, Note_on_c, 12, 57, 0
13, 7920, Note_on_c, 12, 58, 127
13, 7978, Note_on_c, 12, 58, 0
13, 7980, Note_on_c, 12, 46, 127
13, 8038, Note_on_c, 12, 46, 0
13, 8040, Note_on_c, 12, 58, 127
13, 8217, Note_on_c, 12, 58, 0
13, 8220, Note_on_c, 12, 60, 127
13, 8249, Note_on_c, 12, 60, 0
13, 8250, Note_on_c, 12, 58, 127
13, 8279, Note_on_c, 12, 58, 0
13, 8280, Note_on_c, 12, 57, 127
13, 8338, Note_on_c, 12, 57, 0
13, 8340, Note_on_c, 12, 55, 127
13, 8398, Note_on_c, 12, 55, 0
13, 8400, Note_on_c, 12, 60, 127
13, 8458, Note_on_c, 12, 60, 0
13, 8460, Note_on_c, 12, 48, 127
13, 8518, Note_on_c, 12, 48, 0
13, 8520, Note_on_c, 12, 60, 127
13, 8697, Note_on_c, 12, 60, 0
13, 8700, Note_on_c, 12, 62, 127
13, 8729, Note_on_c, 12, 62, 0
13, 8730, Note_on_c, 12, 60, 127
13, 8759, Note_on_c, 12, 60, 0
13, 8760, Note_on_c, 12, 58, 127
13, 8818, Note_on_c, 12, 58, 0
13, 8820, Note_on_c, 12, 57, 127
13, 8878, Note_on_c, 12, 57, 0
13, 8880, Note_on_c, 12, 62, 127
13, 8938, Note_on_c, 12, 62, 0
13, 8940, Note_on_c, 12, 50, 127
13, 8998, Note_on_c, 12, 50, 0
13, 9000, Note_on_c, 12, 50, 127
13, 9058, Note_on_c, 12, 50, 0
13, 9060, Note_on_c, 12, 52, 127
13, 9089, Note_on_c, 12, 52, 0
13, 9090, Note_on_c, 12, 53, 127
13, 9119, Note_on_c, 12, 53, 0
13, 9120, Note_on_c, 12, 55, 127
13, 9208, Note_on_c, 12, 55, 0
13, 9210, Note_on_c, 12, 55, 127
13, 9239, Note_on_c, 12, 55, 0
13, 9240, Note_on_c, 12, 48, 127
13, 9298, Note_on_c, 12, 48, 0
13, 9300, Note_on_c, 12, 36, 127
13, 9358, Note_on_c, 12, 36, 0
13, 9360, Note_on_c, 12, 41, 127
13, 9418, Note_on_c, 12, 41, 0
13, 9420, Note_on_c, 12, 53, 127
13, 9478, Note_on_c, 12, 53, 0
13, 9480, Note_on_c, 12, 55, 127
13, 9538, Note_on_c, 12, 55, 0
13, 9540, Note_on_c, 12, 43, 127
13, 9598, Note_on_c, 12, 43, 0
13, 9600, Note_on_c, 12, 48, 127
13, 9658, Note_on_c, 12, 48, 0
13, 9660, Note_on_c, 12, 52, 127
13, 9689, Note_on_c, 12, 52, 0
13, 9690, Note_on_c, 12, 50, 127
13, 9719, Note_on_c, 12, 50, 0
13, 9720, Note_on_c, 12, 48, 127
13, 9778, Note_on_c, 12, 48, 0
13, 9780, Note_on_c, 12, 47, 127
13, 9838, Note_on_c, 12, 47, 0
13, 9840, Note_on_c, 12, 48, 127
13, 9898, Note_on_c, 12, 48, 0
13, 9900, Note_on_c, 12, 53, 127
13, 9958, Note_on_c, 12, 53, 0
13, 9960, Note_on_c, 12, 47, 127
13, 10018, Note_on_c, 12, 47, 0
13, 10020, Note_on_c, 12, 43, 127
13, 10078, Note_on_c, 12, 43, 0
13, 10080, Note_on_c, 12, 48, 127
13, 10138, Note_on_c, 12, 48, 0
13, 10140, Note_on_c, 12, 52, 127
13, 10169, Note_on_c, 12, 52, 0
13, 10170, Note_on_c, 12, 50, 127
13, 10199, Note_on_c, 12, 50, 0
13, 10200, Note_on_c, 12, 48, 127
13, 10258, Note_on_c, 12, 48, 0
13, 10260, Note_on_c, 12, 47, 127
13, 10318, Note_on_c, 12, 47, 0
13, 10320, Note_on_c, 12, 48, 127
13, 10378, Note_on_c, 12, 48, 0
13, 10380, Note_on_c, 12, 53, 127
13, 10438, Note_on_c, 12, 53, 0
13, 10440, Note_on_c, 12, 47, 127
13, 10498, Note_on_c, 12, 47, 0
13, 10500, Note_on_c, 12, 47, 127
13, 10558, Note_on_c, 12, 47, 0
13, 10560, Note_on_c, 12, 48, 127
13, 10618, Note_on_c, 12, 48, 0
13, 10620, Note_on_c, 12, 53, 127
13, 10678, Note_on_c, 12, 53, 0
13, 10680, Note_on_c, 12, 55, 127
13, 10738, Note_on_c, 12, 55, 0
13, 10740, Note_on_c, 12, 43, 127
13, 10798, Note_on_c, 12, 43, 0
13, 10800, Note_on_c, 12, 48, 127
13, 10858, Note_on_c, 12, 48, 0
13, 10860, Note_on_c, 12, 48, 127
13, 10918, Note_on_c, 12, 48, 0
13, 10920, Note_on_c, 12, 52, 127
13, 10978, Note_on_c, 12, 52, 0
13, 10980, Note_on_c, 12, 55, 127
13, 11038, Note_on_c, 12, 55, 0
13, 11040, Note_on_c, 12, 60, 127
13, 11098, Note_on_c, 12, 60, 0
13, 11100, Note_on_c, 12, 48, 127
13, 11158, Note_on_c, 12, 48, 0
13, 11160, Note_on_c, 12, 52, 127
13, 11218, Note_on_c, 12, 52, 0
13, 11220, Note_on_c, 12, 55, 127
13, 11278, Note_on_c, 12, 55, 0
13, 11280, Note_on_c, 12, 53, 127
13, 11338, Note_on_c, 12, 53, 0
13, 11340, Note_on_c, 12, 50, 127
13, 11398, Note_on_c, 12, 50, 0
13, 11400, Note_on_c, 12, 47, 127
13, 11458, Note_on_c, 12, 47, 0
13, 11460, Note_on_c, 12, 43, 127
13, 11518, Note_on_c, 12, 43, 0
13, 11520, Note_on_c, 12, 48, 127
13, 11638, Note_on_c, 12, 48, 0
13, 11640, Note_on_c, 12, 36, 127
13, 11758, Note_on_c, 12, 36, 0
13, 11820, Note_on_c, 12, 48, 127
13, 11878, Note_on_c, 12, 48, 0
13, 11880, Note_on_c, 12, 52, 127
13, 11938, Note_on_c, 12, 52, 0
13, 11940, Note_on_c, 12, 55, 127
13, 11998, Note_on_c, 12, 55, 0
13, 12000, Note_on_c, 12, 43, 127
13, 12118, Note_on_c, 12, 43, 0
13, 12120, Note_on_c, 12, 47, 127
13, 12238, Note_on_c, 12, 47, 0
13, 12240, Note_on_c, 12, 48, 127
13, 12358, Note_on_c, 12, 48, 0
13, 12360, Note_on_c, 12, 48, 127
13, 12418, Note_on_c, 12, 48, 0
13, 12420, Note_on_c, 12, 48, 127
13, 12478, Note_on_c, 12, 48, 0
13, 12480, Note_on_c, 12, 53, 127
13, 12598, Note_on_c, 12, 53, 0
13, 12600, Note_on_c, 12, 53, 127
13, 12718, Note_on_c, 12, 53, 0
13, 12720, Note_on_c, 12, 53, 127
13, 12778, Note_on_c, 12, 53, 0
13, 12780, Note_on_c, 12, 53, 127
13, 12838, Note_on_c, 12, 53, 0
13, 12840, Note_on_c, 12, 53, 127
13, 12898, Note_on_c, 12, 53, 0
13, 12900, Note_on_c, 12, 53, 127
13, 12958, Note_on_c, 12, 53, 0
13, 12960, Note_on_c, 12, 53, 127
13, 13018, Note_on_c, 12, 53, 0
13, 13020, Note_on_c, 12, 53, 127
13, 13078, Note_on_c, 12, 53, 0
13, 13080, Note_on_c, 12, 53, 127
13, 13138, Note_on_c, 12, 53, 0
13, 13140, Note_on_c, 12, 55, 127
13, 13169, Note_on_c, 12, 55, 0
13, 13170, Note_on_c, 12, 57, 127
13, 13199, Note_on_c, 12, 57, 0
13, 13200, Note_on_c, 12, 58, 127
13, 13258, Note_on_c, 12, 58, 0
13, 13260, Note_on_c, 12, 46, 127
13, 13318, Note_on_c, 12, 46, 0
13, 13320, Note_on_c, 12, 58, 127
13, 13497, Note_on_c, 12, 58, 0
13, 13500, Note_on_c, 12, 60, 127
13, 13529, Note_on_c, 12, 60, 0
13, 13530, Note_on_c, 12, 58, 127
13, 13559, Note_on_c, 12, 58, 0
13, 13560, Note_on_c, 12, 57, 127
13, 13618, Note_on_c, 12, 57, 0
13, 13620, Note_on_c, 12, 55, 127
13, 13678, Note_on_c, 12, 55, 0
13, 13680, Note_on_c, 12, 60, 127
13, 13738, Note_on_c, 12, 60, 0
13, 13740, Note_on_c, 12, 48, 127
13, 13798, Note_on_c, 12, 48, 0
13, 13800, Note_on_c, 12, 60, 127
13, 13977, Note_on_c, 12, 60, 0
13, 13980, Note_on_c, 12, 62, 127
13, 14009, Note_on_c, 12, 62, 0
13, 14010, Note_on_c, 12, 60, 127
13, 14039, Note_on_c, 12, 60, 0
13, 14040, Note_on_c, 12, 58, 127
13, 14098, Note_on_c, 12, 58, 0
13, 14100, Note_on_c, 12, 57, 127
13, 14158, Note_on_c, 12, 57, 0
13, 14160, Note_on_c, 12, 50, 127
13, 14218, Note_on_c, 12, 50, 0
13, 14220, Note_on_c, 12, 38, 127
13, 14278, Note_on_c, 12, 38, 0
13, 14280, Note_on_c, 12, 50, 127
13, 14457, Note_on_c, 12, 50, 0
13, 14460, Note_on_c, 12, 52, 127
13, 14489, Note_on_c, 12, 52, 0
13, 14490, Note_on_c, 12, 50, 127
13, 14519, Note_on_c, 12, 50, 0
13, 14520, Note_on_c, 12, 48, 127
13, 14578, Note_on_c, 12, 48, 0
13, 14580, Note_on_c, 12, 46, 127
13, 14638, Note_on_c, 12, 46, 0
13, 14640, Note_on_c, 12, 48, 127
13, 14698, Note_on_c, 12, 48, 0
13, 14700, Note_on_c, 12, 60, 127
13, 14818, Note_on_c, 12, 60, 0
13, 14820, Note_on_c, 12, 58, 127
13, 14849, Note_on_c, 12, 58, 0
13, 14850, Note_on_c, 12, 57, 127
13, 14879, Note_on_c, 12, 57, 0
13, 14880, Note_on_c, 12, 58, 127
13, 15057, Note_on_c, 12, 58, 0
13, 15060, Note_on_c, 12, 57, 127
13, 15089, Note_on_c, 12, 57, 0
13, 15090, Note_on_c, 12, 55, 127
13, 15119, Note_on_c, 12, 55, 0
13, 15120, Note_on_c, 12, 57, 127
13, 15297, Note_on_c, 12, 57, 0
13, 15300, Note_on_c, 12, 55, 127
13, 15329, Note_on_c, 12, 55, 0
13, 15330, Note_on_c, 12, 53, 127
13, 15359, Note_on_c, 12, 53, 0
13, 15360, Note_on_c, 12, 48, 127
13, 15418, Note_on_c, 12, 48, 0
13, 15420, Note_on_c, 12, 48, 127
13, 15478, Note_on_c, 12, 48, 0
13, 15480, Note_on_c, 12, 48, 127
13, 15538, Note_on_c, 12, 48, 0
13, 15540, Note_on_c, 12, 48, 127
13, 15598, Note_on_c, 12, 48, 0
13, 15600, Note_on_c, 12, 53, 127
13, 15658, Note_on_c, 12, 53, 0
13, 15660, Note_on_c, 12, 53, 127
13, 15718, Note_on_c, 12, 53, 0
13, 15720, Note_on_c, 12, 53, 127
13, 15778, Note_on_c, 12, 53, 0
13, 15780, Note_on_c, 12, 46, 127
13, 15838, Note_on_c, 12, 46, 0
13, 15840, Note_on_c, 12, 48, 127
13, 15869, Note_on_c, 12, 48, 0
13, 15870, Note_on_c, 12, 60, 127
13, 15899, Note_on_c, 12, 60, 0
13, 15900, Note_on_c, 12, 58, 127
13, 15929, Note_on_c, 12, 58, 0
13, 15930, Note_on_c, 12, 60, 127
13, 15959, Note_on_c, 12, 60, 0
13, 15960, Note_on_c, 12, 52, 127
13, 15989, Note_on_c, 12, 52, 0
13, 15990, Note_on_c, 12, 60, 127
13, 16019, Note_on_c, 12, 60, 0
13, 16020, Note_on_c, 12, 50, 127
13, 16049, Note_on_c, 12, 50, 0
13, 16050, Note_on_c, 12, 60, 127
13, 16079, Note_on_c, 12, 60, 0
13, 16080, Note_on_c, 12, 48, 127
13, 16138, Note_on_c, 12, 48, 0
13, 16140, Note_on_c, 12, 48, 127
13, 16198, Note_on_c, 12, 48, 0
13, 16200, Note_on_c, 12, 48, 127
13, 16258, Note_on_c, 12, 48, 0
13, 16260, Note_on_c, 12, 48, 127
13, 16318, Note_on_c, 12, 48, 0
13, 16320, Note_on_c, 12, 53, 127
13, 16378, Note_on_c, 12, 53, 0
13, 16380, Note_on_c, 12, 53, 127
13, 16438, Note_on_c, 12, 53, 0
13, 16440, Note_on_c, 12, 53, 127
13, 16498, Note_on_c, 12, 53, 0
13, 16500, Note_on_c, 12, 46, 127
13, 16558, Note_on_c, 12, 46, 0
13, 16560, Note_on_c, 12, 48, 127
13, 16589, Note_on_c, 12, 48, 0
13, 16590, Note_on_c, 12, 60, 127
13, 16619, Note_on_c, 12, 60, 0
13, 16620, Note_on_c, 12, 58, 127
13, 16649, Note_on_c, 12, 58, 0
13, 16650, Note_on_c, 12, 60, 127
13, 16679, Note_on_c, 12, 60, 0
13, 16680, Note_on_c, 12, 52, 127
13, 16709, Note_on_c, 12, 52, 0
13, 16710, Note_on_c, 12, 60, 127
13, 16739, Note_on_c, 12, 60, 0
13, 16740, Note_on_c, 12, 50, 127
13, 16769, Note_on_c, 12, 50, 0
13, 16770, Note_on_c, 12, 60, 127
13, 16799, Note_on_c, 12, 60, 0
13, 16800, Note_on_c, 12, 48, 127
13, 16829, Note_on_c, 12, 48, 0
13, 16830, Note_on_c, 12, 60, 127
13, 16859, Note_on_c, 12, 60, 0
13, 16860, Note_on_c, 12, 58, 127
13, 16889, Note_on_c, 12, 58, 0
13, 16890, Note_on_c, 12, 60, 127
13, 16919, Note_on_c, 12, 60, 0
13, 16920, Note_on_c, 12, 52, 127
13, 16949, Note_on_c, 12, 52, 0
13, 16950, Note_on_c, 12, 60, 127
13, 16979, Note_on_c, 12, 60, 0
13, 16980, Note_on_c, 12, 50, 127
13, 17009, Note_on_c, 12, 50, 0
13, 17010, Note_on_c, 12, 60, 127
13, 17039, Note_on_c, 12, 60, 0
13, 17040, Note_on_c, 12, 48, 127
13, 17098, Note_on_c, 12, 48, 0
13, 17100, Note_on_c, 12, 48, 127
13, 17158, Note_on_c, 12, 48, 0
13, 17160, Note_on_c, 12, 53, 127
13, 17218, Note_on_c, 12, 53, 0
13, 17220, Note_on_c, 12, 58, 127
13, 17278, Note_on_c, 12, 58, 0
13, 17280, Note_on_c, 12, 60, 127
13, 17398, Note_on_c, 12, 60, 0
13, 17400, Note_on_c, 12, 48, 127
13, 17518, Note_on_c, 12, 48, 0
13, 17520, Note_on_c, 12, 41, 127
13, 17638, Note_on_c, 12, 41, 0
13, 17820, Note_on_c, 12, 53, 127
13, 17878, Note_on_c, 12, 53, 0
13, 17880, Note_on_c, 12, 53, 127
13, 17938, Note_on_c, 12, 53, 0
13, 17940, Note_on_c, 12, 55, 127
13, 17969, Note_on_c, 12, 55, 0
13, 17970, Note_on_c, 12, 57, 127
13, 17999, Note_on_c, 12, 57, 0
13, 18000, Note_on_c, 12, 58, 127
13, 18058, Note_on_c, 12, 58, 0
13, 18060, Note_on_c, 12, 46, 127
13, 18118, Note_on_c, 12, 46, 0
13, 18120, Note_on_c, 12, 58, 127
13, 18297, Note_on_c, 12, 58, 0
13, 18300, Note_on_c, 12, 60, 127
13, 18329, Note_on_c, 12, 60, 0
13, 18330, Note_on_c, 12, 58, 127
13, 18359, Note_on_c, 12, 58, 0
13, 18360, Note_on_c, 12, 57, 127
13, 18418, Note_on_c, 12, 57, 0
13, 18420, Note_on_c, 12, 55, 127
13, 18478, Note_on_c, 12, 55, 0
13, 18480, Note_on_c, 12, 60, 127
13, 18538, Note_on_c, 12, 60, 0
13, 18540, Note_on_c, 12, 48, 127
13, 18598, Note_on_c, 12, 48, 0
13, 18600, Note_on_c, 12, 60, 127
13, 18718, Note_on_c, 12, 60, 0
13, 18720, Note_on_c, 12, 53, 127
13, 18778, Note_on_c, 12, 53, 0
13, 18780, Note_on_c, 12, 41, 127
13, 18838, Note_on_c, 12, 41, 0
13, 18840, Note_on_c, 12, 48, 127
13, 18898, Note_on_c, 12, 48, 0
13, 18900, Note_on_c, 12, 36, 127
13, 18958, Note_on_c, 12, 36, 0
13, 18960, Note_on_c, 12, 53, 127
13, 19018, Note_on_c, 12, 53, 0
13, 19020, Note_on_c, 12, 41, 127
13, 19078, Note_on_c, 12, 41, 0
13, 19080, Note_on_c, 12, 48, 127
13, 19138, Note_on_c, 12, 48, 0
13, 19140, Note_on_c, 12, 36, 127
13, 19198, Note_on_c, 12, 36, 0
13, 19200, Note_on_c, 12, 41, 127
13, 19437, Note_on_c, 12, 41, 0
13, 19437, End_track
14, 0, Start_track
14, 0, MIDI_port, 0
14, 0, Title_t, "Supp. Violoncelli"
14, 0, Program_c, 13, 42
14, 0, Control_c, 13, 7, 30
14, 0, Control_c, 13, 10, 85
14, 0, Control_c, 13, 11, 127
14, 0, Control_c, 13, 8, 64
14, 0, Note_on_c, 13, 53, 127
14, 58, Note_on_c, 13, 53, 0
14, 60, Note_on_c, 13, 57, 127
14, 89, Note_on_c, 13, 57, 0
14, 90, Note_on_c, 13, 55, 127
14, 119, Note_on_c, 13, 55, 0
14, 120, Note_on_c, 13, 53, 127
14, 178, Note_on_c, 13, 53, 0
14, 180, Note_on_c, 13, 52, 127
14, 238, Note_on_c, 13, 52, 0
14, 240, Note_on_c, 13, 50, 127
14, 298, Note_on_c, 13, 50, 0
14, 300, Note_on_c, 13, 58, 127
14, 358, Note_on_c, 13, 58, 0
14, 360, Note_on_c, 13, 52, 127
14, 418, Note_on_c, 13, 52, 0
14, 420, Note_on_c, 13, 48, 127
14, 478, Note_on_c, 13, 48, 0
14, 480, Note_on_c, 13, 53, 127
14, 538, Note_on_c, 13, 53, 0
14, 540, Note_on_c, 13, 57, 127
14, 569, Note_on_c, 13, 57, 0
14, 570, Note_on_c, 13, 55, 127
14, 599, Note_on_c, 13, 55, 0
14, 600, Note_on_c, 13, 53, 127
14, 658, Note_on_c, 13, 53, 0
14, 660, Note_on_c, 13, 52, 127
14, 718, Note_on_c, 13, 52, 0
14, 720, Note_on_c, 13, 50, 127
14, 778, Note_on_c, 13, 50, 0
14, 780, Note_on_c, 13, 58, 127
14, 838, Note_on_c, 13, 58, 0
14, 840, Note_on_c, 13, 52, 127
14, 898, Note_on_c, 13, 52, 0
14, 900, Note_on_c, 13, 40, 127
14, 958, Note_on_c, 13, 40, 0
14, 960, Note_on_c, 13, 41, 127
14, 1078, Note_on_c, 13, 41, 0
14, 1140, Note_on_c, 13, 53, 127
14, 1198, Note_on_c, 13, 53, 0
14, 1200, Note_on_c, 13, 60, 127
14, 1318, Note_on_c, 13, 60, 0
14, 1320, Note_on_c, 13, 48, 127
14, 1438, Note_on_c, 13, 48, 0
14, 1440, Note_on_c, 13, 41, 127
14, 1558, Note_on_c, 13, 41, 0
14, 1620, Note_on_c, 13, 53, 127
14, 1678, Note_on_c, 13, 53, 0
14, 1680, Note_on_c, 13, 60, 127
14, 1798, Note_on_c, 13, 60, 0
14, 1800, Note_on_c, 13, 48, 127
14, 1918, Note_on_c, 13, 48, 0
14, 1920, Note_on_c, 13, 53, 127
14, 1949, Note_on_c, 13, 53, 0
14, 1950, Note_on_c, 13, 60, 127
14, 1979, Note_on_c, 13, 60, 0
14, 1980, Note_on_c, 13, 58, 127
14, 2009, Note_on_c, 13, 58, 0
14, 2010, Note_on_c, 13, 60, 127
14, 2039, Note_on_c, 13, 60, 0
14, 2040, Note_on_c, 13, 57, 127
14, 2069, Note_on_c, 13, 57, 0
14, 2070, Note_on_c, 13, 60, 127
14, 2099, Note_on_c, 13, 60, 0
14, 2100, Note_on_c, 13, 55, 127
14, 2129, Note_on_c, 13, 55, 0
14, 2130, Note_on_c, 13, 60, 127
14, 2159, Note_on_c, 13, 60, 0
14, 2160, Note_on_c, 13, 53, 127
14, 2189, Note_on_c, 13, 53, 0
14, 2190, Note_on_c, 13, 57, 127
14, 2219, Note_on_c, 13, 57, 0
14, 2220, Note_on_c, 13, 55, 127
14, 2249, Note_on_c, 13, 55, 0
14, 2250, Note_on_c, 13, 57, 127
14, 2279, Note_on_c, 13, 57, 0
14, 2280, Note_on_c, 13, 53, 127
14, 2309, Note_on_c, 13, 53, 0
14, 2310, Note_on_c, 13, 57, 127
14, 2339, Note_on_c, 13, 57, 0
14, 2340, Note_on_c, 13, 52, 127
14, 2369, Note_on_c, 13, 52, 0
14, 2370, Note_on_c, 13, 57, 127
14, 2399, Note_on_c, 13, 57, 0
14, 2400, Note_on_c, 13, 50, 127
14, 2429, Note_on_c, 13, 50, 0
14, 2430, Note_on_c, 13, 62, 127
14, 2459, Note_on_c, 13, 62, 0
14, 2460, Note_on_c, 13, 60, 127
14, 2489, Note_on_c, 13, 60, 0
14, 2490, Note_on_c, 13, 62, 127
14, 2519, Note_on_c, 13, 62, 0
14, 2520, Note_on_c, 13, 58, 127
14, 2549, Note_on_c, 13, 58, 0
14, 2550, Note_on_c, 13, 62, 127
14, 2579, Note_on_c, 13, 62, 0
14, 2580, Note_on_c, 13, 57, 127
14, 2609, Note_on_c, 13, 57, 0
14, 2610, Note_on_c, 13, 62, 127
14, 2639, Note_on_c, 13, 62, 0
14, 2640, Note_on_c, 13, 55, 127
14, 2669, Note_on_c, 13, 55, 0
14, 2670, Note_on_c, 13, 58, 127
14, 2699, Note_on_c, 13, 58, 0
14, 2700, Note_on_c, 13, 57, 127
14, 2729, Note_on_c, 13, 57, 0
14, 2730, Note_on_c, 13, 58, 127
14, 2759, Note_on_c, 13, 58, 0
14, 2760, Note_on_c, 13, 55, 127
14, 2789, Note_on_c, 13, 55, 0
14, 2790, Note_on_c, 13, 58, 127
14, 2819, Note_on_c, 13, 58, 0
14, 2820, Note_on_c, 13, 53, 127
14, 2848, Note_on_c, 13, 53, 0
14, 2850, Note_on_c, 13, 58, 127
14, 2879, Note_on_c, 13, 58, 0
14, 2880, Note_on_c, 13, 52, 127
14, 2938, Note_on_c, 13, 52, 0
14, 2940, Note_on_c, 13, 48, 127
14, 2998, Note_on_c, 13, 48, 0
14, 3390, Note_on_c, 13, 60, 127
14, 3419, Note_on_c, 13, 60, 0
14, 3420, Note_on_c, 13, 55, 127
14, 3449, Note_on_c, 13, 55, 0
14, 3450, Note_on_c, 13, 60, 127
14, 3479, Note_on_c, 13, 60, 0
14, 3480, Note_on_c, 13, 52, 127
14, 3509, Note_on_c, 13, 52, 0
14, 3510, Note_on_c, 13, 60, 127
14, 3539, Note_on_c, 13, 60, 0
14, 3540, Note_on_c, 13, 50, 127
14, 3569, Note_on_c, 13, 50, 0
14, 3570, Note_on_c, 13, 60, 127
14, 3599, Note_on_c, 13, 60, 0
14, 3600, Note_on_c, 13, 48, 127
14, 3718, Note_on_c, 13, 48, 0
14, 4110, Note_on_c, 13, 60, 127
14, 4139, Note_on_c, 13, 60, 0
14, 4140, Note_on_c, 13, 55, 127
14, 4169, Note_on_c, 13, 55, 0
14, 4170, Note_on_c, 13, 60, 127
14, 4199, Note_on_c, 13, 60, 0
14, 4200, Note_on_c, 13, 52, 127
14, 4229, Note_on_c, 13, 52, 0
14, 4230, Note_on_c, 13, 60, 127
14, 4259, Note_on_c, 13, 60, 0
14, 4260, Note_on_c, 13, 50, 127
14, 4289, Note_on_c, 13, 50, 0
14, 4290, Note_on_c, 13, 60, 127
14, 4319, Note_on_c, 13, 60, 0
14, 4320, Note_on_c, 13, 48, 127
14, 4438, Note_on_c, 13, 48, 0
14, 4620, Note_on_c, 13, 53, 127
14, 4678, Note_on_c, 13, 53, 0
14, 4680, Note_on_c, 13, 53, 127
14, 4738, Note_on_c, 13, 53, 0
14, 4740, Note_on_c, 13, 55, 127
14, 4769, Note_on_c, 13, 55, 0
14, 4770, Note_on_c, 13, 57, 127
14, 4799, Note_on_c, 13, 57, 0
14, 4800, Note_on_c, 13, 58, 127
14, 4858, Note_on_c, 13, 58, 0
14, 4860, Note_on_c, 13, 46, 127
14, 4918, Note_on_c, 13, 46, 0
14, 4920, Note_on_c, 13, 58, 127
14, 5097, Note_on_c, 13, 58, 0
14, 5100, Note_on_c, 13, 60, 127
14, 5129, Note_on_c, 13, 60, 0
14, 5130, Note_on_c, 13, 58, 127
14, 5159, Note_on_c, 13, 58, 0
14, 5160, Note_on_c, 13, 57, 127
14, 5218, Note_on_c, 13, 57, 0
14, 5220, Note_on_c, 13, 55, 127
14, 5278, Note_on_c, 13, 55, 0
14, 5280, Note_on_c, 13, 60, 127
14, 5338, Note_on_c, 13, 60, 0
14, 5340, Note_on_c, 13, 48, 127
14, 5398, Note_on_c, 13, 48, 0
14, 5400, Note_on_c, 13, 60, 127
14, 5577, Note_on_c, 13, 60, 0
14, 5580, Note_on_c, 13, 62, 127
14, 5609, Note_on_c, 13, 62, 0
14, 5610, Note_on_c, 13, 60, 127
14, 5639, Note_on_c, 13, 60, 0
14, 5640, Note_on_c, 13, 58, 127
14, 5698, Note_on_c, 13, 58, 0
14, 5700, Note_on_c, 13, 57, 127
14, 5758, Note_on_c, 13, 57, 0
14, 5760, Note_on_c, 13, 62, 127
14, 5818, Note_on_c, 13, 62, 0
14, 5820, Note_on_c, 13, 50, 127
14, 5878, Note_on_c, 13, 50, 0
14, 5880, Note_on_c, 13, 62, 127
14, 6057, Note_on_c, 13, 62, 0
14, 6060, Note_on_c, 13, 64, 127
14, 6089, Note_on_c, 13, 64, 0
14, 6090, Note_on_c, 13, 62, 127
14, 6119, Note_on_c, 13, 62, 0
14, 6120, Note_on_c, 13, 60, 127
14, 6178, Note_on_c, 13, 60, 0
14, 6180, Note_on_c, 13, 58, 127
14, 6238, Note_on_c, 13, 58, 0
14, 6240, Note_on_c, 13, 60, 127
14, 6298, Note_on_c, 13, 60, 0
14, 6300, Note_on_c, 13, 53, 127
14, 6358, Note_on_c, 13, 53, 0
14, 6360, Note_on_c, 13, 60, 127
14, 6418, Note_on_c, 13, 60, 0
14, 6420, Note_on_c, 13, 48, 127
14, 6478, Note_on_c, 13, 48, 0
14, 6480, Note_on_c, 13, 41, 127
14, 6598, Note_on_c, 13, 41, 0
14, 6780, Note_on_c, 13, 53, 127
14, 6838, Note_on_c, 13, 53, 0
14, 6840, Note_on_c, 13, 57, 127
14, 6898, Note_on_c, 13, 57, 0
14, 6900, Note_on_c, 13, 60, 127
14, 6958, Note_on_c, 13, 60, 0
14, 6960, Note_on_c, 13, 55, 127
14, 7018, Note_on_c, 13, 55, 0
14, 7020, Note_on_c, 13, 53, 127
14, 7078, Note_on_c, 13, 53, 0
14, 7080, Note_on_c, 13, 55, 127
14, 7138, Note_on_c, 13, 55, 0
14, 7140, Note_on_c, 13, 48, 127
14, 7198, Note_on_c, 13, 48, 0
14, 7200, Note_on_c, 13, 53, 127
14, 7318, Note_on_c, 13, 53, 0
14, 7320, Note_on_c, 13, 41, 127
14, 7438, Note_on_c, 13, 41, 0
14, 7440, Note_on_c, 13, 53, 127
14, 7528, Note_on_c, 13, 53, 0
14, 7530, Note_on_c, 13, 53, 127
14, 7559, Note_on_c, 13, 53, 0
14, 7560, Note_on_c, 13, 53, 127
14, 7618, Note_on_c, 13, 53, 0
14, 7620, Note_on_c, 13, 53, 127
14, 7678, Note_on_c, 13, 53, 0
14, 7680, Note_on_c, 13, 53, 127
14, 7738, Note_on_c, 13, 53, 0
14, 7740, Note_on_c, 13, 53, 127
14, 7798, Note_on_c, 13, 53, 0
14, 7800, Note_on_c, 13, 53, 127
14, 7858, Note_on_c, 13, 53, 0
14, 7860, Note_on_c, 13, 55, 127
14, 7889, Note_on_c, 13, 55, 0
14, 7890, Note_on_c, 13, 57, 127
14, 7919, Note_on_c, 13, 57, 0
14, 7920, Note_on_c, 13, 58, 127
14, 7978, Note_on_c, 13, 58, 0
14, 7980, Note_on_c, 13, 46, 127
14, 8038, Note_on_c, 13, 46, 0
14, 8040, Note_on_c, 13, 58, 127
14, 8217, Note_on_c, 13, 58, 0
14, 8220, Note_on_c, 13, 60, 127
14, 8249, Note_on_c, 13, 60, 0
14, 8250, Note_on_c, 13, 58, 127
14, 8279, Note_on_c, 13, 58, 0
14, 8280, Note_on_c, 13, 57, 127
14, 8338, Note_on_c, 13, 57, 0
14, 8340, Note_on_c, 13, 55, 127
14, 8398, Note_on_c, 13, 55, 0
14, 8400, Note_on_c, 13, 60, 127
14, 8458, Note_on_c, 13, 60, 0
14, 8460, Note_on_c, 13, 48, 127
14, 8518, Note_on_c, 13, 48, 0
14, 8520, Note_on_c, 13, 60, 127
14, 8697, Note_on_c, 13, 60, 0
14, 8700, Note_on_c, 13, 62, 127
14, 8729, Note_on_c, 13, 62, 0
14, 8730, Note_on_c, 13, 60, 127
14, 8759, Note_on_c, 13, 60, 0
14, 8760, Note_on_c, 13, 58, 127
14, 8818, Note_on_c, 13, 58, 0
14, 8820, Note_on_c, 13, 57, 127
14, 8878, Note_on_c, 13, 57, 0
14, 8880, Note_on_c, 13, 62, 127
14, 8938, Note_on_c, 13, 62, 0
14, 8940, Note_on_c, 13, 50, 127
14, 8998, Note_on_c, 13, 50, 0
14, 9000, Note_on_c, 13, 50, 127
14, 9058, Note_on_c, 13, 50, 0
14, 9060, Note_on_c, 13, 52, 127
14, 9089, Note_on_c, 13, 52, 0
14, 9090, Note_on_c, 13, 53, 127
14, 9119, Note_on_c, 13, 53, 0
14, 9120, Note_on_c, 13, 55, 127
14, 9208, Note_on_c, 13, 55, 0
14, 9210, Note_on_c, 13, 55, 127
14, 9239, Note_on_c, 13, 55, 0
14, 9240, Note_on_c, 13, 48, 127
14, 9298, Note_on_c, 13, 48, 0
14, 9300, Note_on_c, 13, 36, 127
14, 9358, Note_on_c, 13, 36, 0
14, 9360, Note_on_c, 13, 41, 127
14, 9418, Note_on_c, 13, 41, 0
14, 9420, Note_on_c, 13, 53, 127
14, 9478, Note_on_c, 13, 53, 0
14, 9480, Note_on_c, 13, 55, 127
14, 9538, Note_on_c, 13, 55, 0
14, 9540, Note_on_c, 13, 43, 127
14, 9598, Note_on_c, 13, 43, 0
14, 9600, Note_on_c, 13, 48, 127
14, 9658, Note_on_c, 13, 48, 0
14, 9660, Note_on_c, 13, 52, 127
14, 9689, Note_on_c, 13, 52, 0
14, 9690, Note_on_c, 13, 50, 127
14, 9719, Note_on_c, 13, 50, 0
14, 9720, Note_on_c, 13, 48, 127
14, 9778, Note_on_c, 13, 48, 0
14, 9780, Note_on_c, 13, 47, 127
14, 9838, Note_on_c, 13, 47, 0
14, 9840, Note_on_c, 13, 48, 127
14, 9898, Note_on_c, 13, 48, 0
14, 9900, Note_on_c, 13, 53, 127
14, 9958, Note_on_c, 13, 53, 0
14, 9960, Note_on_c, 13, 47, 127
14, 10018, Note_on_c, 13, 47, 0
14, 10020, Note_on_c, 13, 43, 127
14, 10078, Note_on_c, 13, 43, 0
14, 10080, Note_on_c, 13, 48, 127
14, 10138, Note_on_c, 13, 48, 0
14, 10140, Note_on_c, 13, 52, 127
14, 10169, Note_on_c, 13, 52, 0
14, 10170, Note_on_c, 13, 50, 127
14, 10199, Note_on_c, 13, 50, 0
14, 10200, Note_on_c, 13, 48, 127
14, 10258, Note_on_c, 13, 48, 0
14, 10260, Note_on_c, 13, 47, 127
14, 10318, Note_on_c, 13, 47, 0
14, 10320, Note_on_c, 13, 48, 127
14, 10378, Note_on_c, 13, 48, 0
14, 10380, Note_on_c, 13, 53, 127
14, 10438, Note_on_c, 13, 53, 0
14, 10440, Note_on_c, 13, 47, 127
14, 10498, Note_on_c, 13, 47, 0
14, 10500, Note_on_c, 13, 47, 127
14, 10558, Note_on_c, 13, 47, 0
14, 10560, Note_on_c, 13, 48, 127
14, 10618, Note_on_c, 13, 48, 0
14, 10620, Note_on_c, 13, 53, 127
14, 10678, Note_on_c, 13, 53, 0
14, 10680, Note_on_c, 13, 55, 127
14, 10738, Note_on_c, 13, 55, 0
14, 10740, Note_on_c, 13, 43, 127
14, 10798, Note_on_c, 13, 43, 0
14, 10800, Note_on_c, 13, 48, 127
14, 10858, Note_on_c, 13, 48, 0
14, 10860, Note_on_c, 13, 48, 127
14, 10918, Note_on_c, 13, 48, 0
14, 10920, Note_on_c, 13, 52, 127
14, 10978, Note_on_c, 13, 52, 0
14, 10980, Note_on_c, 13, 55, 127
14, 11038, Note_on_c, 13, 55, 0
14, 11040, Note_on_c, 13, 60, 127
14, 11098, Note_on_c, 13, 60, 0
14, 11100, Note_on_c, 13, 48, 127
14, 11158, Note_on_c, 13, 48, 0
14, 11160, Note_on_c, 13, 52, 127
14, 11218, Note_on_c, 13, 52, 0
14, 11220, Note_on_c, 13, 55, 127
14, 11278, Note_on_c, 13, 55, 0
14, 11280, Note_on_c, 13, 53, 127
14, 11338, Note_on_c, 13, 53, 0
14, 11340, Note_on_c, 13, 50, 127
14, 11398, Note_on_c, 13, 50, 0
14, 11400, Note_on_c, 13, 47, 127
14, 11458, Note_on_c, 13, 47, 0
14, 11460, Note_on_c, 13, 43, 127
14, 11518, Note_on_c, 13, 43, 0
14, 11520, Note_on_c, 13, 48, 127
14, 11638, Note_on_c, 13, 48, 0
14, 11640, Note_on_c, 13, 36, 127
14, 11758, Note_on_c, 13, 36, 0
14, 11820, Note_on_c, 13, 48, 127
14, 11878, Note_on_c, 13, 48, 0
14, 11880, Note_on_c, 13, 52, 127
14, 11938, Note_on_c, 13, 52, 0
14, 11940, Note_on_c, 13, 55, 127
14, 11998, Note_on_c, 13, 55, 0
14, 12000, Note_on_c, 13, 43, 127
14, 12118, Note_on_c, 13, 43, 0
14, 12120, Note_on_c, 13, 47, 127
14, 12238, Note_on_c, 13, 47, 0
14, 12240, Note_on_c, 13, 48, 127
14, 12358, Note_on_c, 13, 48, 0
14, 12360, Note_on_c, 13, 48, 127
14, 12418, Note_on_c, 13, 48, 0
14, 12420, Note_on_c, 13, 48, 127
14, 12478, Note_on_c, 13, 48, 0
14, 12480, Note_on_c, 13, 53, 127
14, 12598, Note_on_c, 13, 53, 0
14, 12600, Note_on_c, 13, 53, 127
14, 12718, Note_on_c, 13, 53, 0
14, 12720, Note_on_c, 13, 53, 127
14, 12778, Note_on_c, 13, 53, 0
14, 12780, Note_on_c, 13, 53, 127
14, 12838, Note_on_c, 13, 53, 0
14, 12840, Note_on_c, 13, 53, 127
14, 12898, Note_on_c, 13, 53, 0
14, 12900, Note_on_c, 13, 53, 127
14, 12958, Note_on_c, 13, 53, 0
14, 12960, Note_on_c, 13, 53, 127
14, 13018, Note_on_c, 13, 53, 0
14, 13020, Note_on_c, 13, 53, 127
14, 13078, Note_on_c, 13, 53, 0
14, 13080, Note_on_c, 13, 53, 127
14, 13138, Note_on_c, 13, 53, 0
14, 13140, Note_on_c, 13, 55, 127
14, 13169, Note_on_c, 13, 55, 0
14, 13170, Note_on_c, 13, 57, 127
14, 13199, Note_on_c, 13, 57, 0
14, 13200, Note_on_c, 13, 58, 127
14, 13258, Note_on_c, 13, 58, 0
14, 13260, Note_on_c, 13, 46, 127
14, 13318, Note_on_c, 13, 46, 0
14, 13320, Note_on_c, 13, 58, 127
14, 13497, Note_on_c, 13, 58, 0
14, 13500, Note_on_c, 13, 60, 127
14, 13529, Note_on_c, 13, 60, 0
14, 13530, Note_on_c, 13, 58, 127
14, 13559, Note_on_c, 13, 58, 0
14, 13560, Note_on_c, 13, 57, 127
14, 13618, Note_on_c, 13, 57, 0
14, 13620, Note_on_c, 13, 55, 127
14, 13678, Note_on_c, 13, 55, 0
14, 13680, Note_on_c, 13, 60, 127
14, 13738, Note_on_c, 13, 60, 0
14, 13740, Note_on_c, 13, 48, 127
14, 13798, Note_on_c, 13, 48, 0
14, 13800, Note_on_c, 13, 60, 127
14, 13920, Note_on_c, 13, 60, 0
14, 13920, Note_on_c, 13, 60, 127
14, 13978, Note_on_c, 13, 60, 0
14, 13980, Note_on_c, 13, 62, 127
14, 14009, Note_on_c, 13, 62, 0
14, 14010, Note_on_c, 13, 60, 127
14, 14039, Note_on_c, 13, 60, 0
14, 14040, Note_on_c, 13, 58, 127
14, 14098, Note_on_c, 13, 58, 0
14, 14100, Note_on_c, 13, 57, 127
14, 14158, Note_on_c, 13, 57, 0
14, 14160, Note_on_c, 13, 50, 127
14, 14218, Note_on_c, 13, 50, 0
14, 14220, Note_on_c, 13, 38, 127
14, 14278, Note_on_c, 13, 38, 0
14, 14280, Note_on_c, 13, 50, 127
14, 14457, Note_on_c, 13, 50, 0
14, 14460, Note_on_c, 13, 52, 127
14, 14489, Note_on_c, 13, 52, 0
14, 14490, Note_on_c, 13, 50, 127
14, 14519, Note_on_c, 13, 50, 0
14, 14520, Note_on_c, 13, 48, 127
14, 14578, Note_on_c, 13, 48, 0
14, 14580, Note_on_c, 13, 46, 127
14, 14638, Note_on_c, 13, 46, 0
14, 14640, Note_on_c, 13, 48, 127
14, 14698, Note_on_c, 13, 48, 0
14, 14700, Note_on_c, 13, 60, 127
14, 14818, Note_on_c, 13, 60, 0
14, 14820, Note_on_c, 13, 58, 127
14, 14849, Note_on_c, 13, 58, 0
14, 14850, Note_on_c, 13, 57, 127
14, 14879, Note_on_c, 13, 57, 0
14, 14880, Note_on_c, 13, 58, 127
14, 15057, Note_on_c, 13, 58, 0
14, 15060, Note_on_c, 13, 57, 127
14, 15089, Note_on_c, 13, 57, 0
14, 15090, Note_on_c, 13, 55, 127
14, 15119, Note_on_c, 13, 55, 0
14, 15120, Note_on_c, 13, 57, 127
14, 15297, Note_on_c, 13, 57, 0
14, 15300, Note_on_c, 13, 55, 127
14, 15329, Note_on_c, 13, 55, 0
14, 15330, Note_on_c, 13, 53, 127
14, 15359, Note_on_c, 13, 53, 0
14, 15361, Note_on_c, 13, 48, 127
14, 15419, Note_on_c, 13, 48, 0
14, 15421, Note_on_c, 13, 48, 127
14, 15479, Note_on_c, 13, 48, 0
14, 15481, Note_on_c, 13, 48, 127
14, 15539, Note_on_c, 13, 48, 0
14, 15540, Note_on_c, 13, 48, 127
14, 15598, Note_on_c, 13, 48, 0
14, 15601, Note_on_c, 13, 53, 127
14, 15659, Note_on_c, 13, 53, 0
14, 15661, Note_on_c, 13, 53, 127
14, 15719, Note_on_c, 13, 53, 0
14, 15720, Note_on_c, 13, 53, 127
14, 15778, Note_on_c, 13, 53, 0
14, 15780, Note_on_c, 13, 46, 127
14, 15838, Note_on_c, 13, 46, 0
14, 15840, Note_on_c, 13, 48, 127
14, 15869, Note_on_c, 13, 48, 0
14, 15870, Note_on_c, 13, 60, 127
14, 15899, Note_on_c, 13, 60, 0
14, 15900, Note_on_c, 13, 58, 127
14, 15929, Note_on_c, 13, 58, 0
14, 15930, Note_on_c, 13, 60, 127
14, 15959, Note_on_c, 13, 60, 0
14, 15960, Note_on_c, 13, 52, 127
14, 15989, Note_on_c, 13, 52, 0
14, 15990, Note_on_c, 13, 60, 127
14, 16019, Note_on_c, 13, 60, 0
14, 16020, Note_on_c, 13, 50, 127
14, 16049, Note_on_c, 13, 50, 0
14, 16050, Note_on_c, 13, 60, 127
14, 16079, Note_on_c, 13, 60, 0
14, 16080, Note_on_c, 13, 48, 127
14, 16138, Note_on_c, 13, 48, 0
14, 16140, Note_on_c, 13, 48, 127
14, 16198, Note_on_c, 13, 48, 0
14, 16200, Note_on_c, 13, 48, 127
14, 16258, Note_on_c, 13, 48, 0
14, 16260, Note_on_c, 13, 48, 127
14, 16318, Note_on_c, 13, 48, 0
14, 16320, Note_on_c, 13, 53, 127
14, 16378, Note_on_c, 13, 53, 0
14, 16380, Note_on_c, 13, 53, 127
14, 16438, Note_on_c, 13, 53, 0
14, 16440, Note_on_c, 13, 53, 127
14, 16498, Note_on_c, 13, 53, 0
14, 16500, Note_on_c, 13, 46, 127
14, 16558, Note_on_c, 13, 46, 0
14, 16560, Note_on_c, 13, 48, 127
14, 16589, Note_on_c, 13, 48, 0
14, 16590, Note_on_c, 13, 60, 127
14, 16619, Note_on_c, 13, 60, 0
14, 16620, Note_on_c, 13, 58, 127
14, 16649, Note_on_c, 13, 58, 0
14, 16650, Note_on_c, 13, 60, 127
14, 16679, Note_on_c, 13, 60, 0
14, 16680, Note_on_c, 13, 52, 127
14, 16709, Note_on_c, 13, 52, 0
14, 16710, Note_on_c, 13, 60, 127
14, 16739, Note_on_c, 13, 60, 0
14, 16740, Note_on_c, 13, 50, 127
14, 16769, Note_on_c, 13, 50, 0
14, 16770, Note_on_c, 13, 60, 127
14, 16799, Note_on_c, 13, 60, 0
14, 16800, Note_on_c, 13, 48, 127
14, 16829, Note_on_c, 13, 48, 0
14, 16830, Note_on_c, 13, 60, 127
14, 16859, Note_on_c, 13, 60, 0
14, 16860, Note_on_c, 13, 58, 127
14, 16889, Note_on_c, 13, 58, 0
14, 16890, Note_on_c, 13, 60, 127
14, 16919, Note_on_c, 13, 60, 0
14, 16920, Note_on_c, 13, 52, 127
14, 16949, Note_on_c, 13, 52, 0
14, 16950, Note_on_c, 13, 60, 127
14, 16979, Note_on_c, 13, 60, 0
14, 16980, Note_on_c, 13, 50, 127
14, 17009, Note_on_c, 13, 50, 0
14, 17010, Note_on_c, 13, 60, 127
14, 17039, Note_on_c, 13, 60, 0
14, 17040, Note_on_c, 13, 48, 127
14, 17098, Note_on_c, 13, 48, 0
14, 17100, Note_on_c, 13, 48, 127
14, 17158, Note_on_c, 13, 48, 0
14, 17160, Note_on_c, 13, 53, 127
14, 17218, Note_on_c, 13, 53, 0
14, 17220, Note_on_c, 13, 58, 127
14, 17278, Note_on_c, 13, 58, 0
14, 17280, Note_on_c, 13, 60, 127
14, 17398, Note_on_c, 13, 60, 0
14, 17400, Note_on_c, 13, 48, 127
14, 17518, Note_on_c, 13, 48, 0
14, 17520, Note_on_c, 13, 41, 127
14, 17638, Note_on_c, 13, 41, 0
14, 17820, Note_on_c, 13, 53, 127
14, 17878, Note_on_c, 13, 53, 0
14, 17880, Note_on_c, 13, 53, 127
14, 17938, Note_on_c, 13, 53, 0
14, 17940, Note_on_c, 13, 55, 127
14, 17969, Note_on_c, 13, 55, 0
14, 17970, Note_on_c, 13, 57, 127
14, 17999, Note_on_c, 13, 57, 0
14, 18000, Note_on_c, 13, 58, 127
14, 18058, Note_on_c, 13, 58, 0
14, 18060, Note_on_c, 13, 46, 127
14, 18118, Note_on_c, 13, 46, 0
14, 18120, Note_on_c, 13, 58, 127
14, 18297, Note_on_c, 13, 58, 0
14, 18300, Note_on_c, 13, 60, 127
14, 18329, Note_on_c, 13, 60, 0
14, 18330, Note_on_c, 13, 58, 127
14, 18359, Note_on_c, 13, 58, 0
14, 18360, Note_on_c, 13, 57, 127
14, 18418, Note_on_c, 13, 57, 0
14, 18420, Note_on_c, 13, 55, 127
14, 18478, Note_on_c, 13, 55, 0
14, 18480, Note_on_c, 13, 60, 127
14, 18538, Note_on_c, 13, 60, 0
14, 18540, Note_on_c, 13, 48, 127
14, 18598, Note_on_c, 13, 48, 0
14, 18600, Note_on_c, 13, 60, 127
14, 18718, Note_on_c, 13, 60, 0
14, 18720, Note_on_c, 13, 53, 127
14, 18778, Note_on_c, 13, 53, 0
14, 18780, Note_on_c, 13, 41, 127
14, 18838, Note_on_c, 13, 41, 0
14, 18840, Note_on_c, 13, 48, 127
14, 18898, Note_on_c, 13, 48, 0
14, 18900, Note_on_c, 13, 36, 127
14, 18958, Note_on_c, 13, 36, 0
14, 18960, Note_on_c, 13, 53, 127
14, 19018, Note_on_c, 13, 53, 0
14, 19020, Note_on_c, 13, 41, 127
14, 19078, Note_on_c, 13, 41, 0
14, 19080, Note_on_c, 13, 48, 127
14, 19138, Note_on_c, 13, 48, 0
14, 19140, Note_on_c, 13, 36, 127
14, 19198, Note_on_c, 13, 36, 0
14, 19200, Note_on_c, 13, 41, 127
14, 19437, Note_on_c, 13, 41, 0
14, 19437, End_track
15, 0, Start_track
15, 0, MIDI_port, 0
15, 0, Title_t, "Supp. Contrabassi"
15, 0, Program_c, 14, 43
15, 0, Control_c, 14, 7, 30
15, 0, Control_c, 14, 10, 95
15, 0, Control_c, 14, 11, 127
15, 0, Control_c, 14, 8, 64
15, 4620, Note_on_c, 14, 53, 127
15, 4678, Note_on_c, 14, 53, 0
15, 4680, Note_on_c, 14, 53, 127
15, 4738, Note_on_c, 14, 53, 0
15, 4740, Note_on_c, 14, 55, 127
15, 4769, Note_on_c, 14, 55, 0
15, 4770, Note_on_c, 14, 57, 127
15, 4799, Note_on_c, 14, 57, 0
15, 4800, Note_on_c, 14, 58, 127
15, 4858, Note_on_c, 14, 58, 0
15, 4860, Note_on_c, 14, 46, 127
15, 4918, Note_on_c, 14, 46, 0
15, 4920, Note_on_c, 14, 58, 127
15, 5097, Note_on_c, 14, 58, 0
15, 5100, Note_on_c, 14, 60, 127
15, 5129, Note_on_c, 14, 60, 0
15, 5130, Note_on_c, 14, 58, 127
15, 5159, Note_on_c, 14, 58, 0
15, 5160, Note_on_c, 14, 57, 127
15, 5218, Note_on_c, 14, 57, 0
15, 5220, Note_on_c, 14, 55, 127
15, 5278, Note_on_c, 14, 55, 0
15, 5280, Note_on_c, 14, 60, 127
15, 5338, Note_on_c, 14, 60, 0
15, 5340, Note_on_c, 14, 48, 127
15, 5398, Note_on_c, 14, 48, 0
15, 5400, Note_on_c, 14, 60, 127
15, 5577, Note_on_c, 14, 60, 0
15, 5580, Note_on_c, 14, 62, 127
15, 5609, Note_on_c, 14, 62, 0
15, 5610, Note_on_c, 14, 60, 127
15, 5639, Note_on_c, 14, 60, 0
15, 5640, Note_on_c, 14, 58, 127
15, 5698, Note_on_c, 14, 58, 0
15, 5700, Note_on_c, 14, 57, 127
15, 5758, Note_on_c, 14, 57, 0
15, 5760, Note_on_c, 14, 62, 127
15, 5818, Note_on_c, 14, 62, 0
15, 5820, Note_on_c, 14, 50, 127
15, 5878, Note_on_c, 14, 50, 0
15, 5880, Note_on_c, 14, 62, 127
15, 6057, Note_on_c, 14, 62, 0
15, 6060, Note_on_c, 14, 64, 127
15, 6089, Note_on_c, 14, 64, 0
15, 6090, Note_on_c, 14, 62, 127
15, 6119, Note_on_c, 14, 62, 0
15, 6120, Note_on_c, 14, 60, 127
15, 6178, Note_on_c, 14, 60, 0
15, 6180, Note_on_c, 14, 58, 127
15, 6238, Note_on_c, 14, 58, 0
15, 6240, Note_on_c, 14, 62, 127
15, 6298, Note_on_c, 14, 62, 0
15, 6300, Note_on_c, 14, 53, 127
15, 6358, Note_on_c, 14, 53, 0
15, 6360, Note_on_c, 14, 60, 127
15, 6418, Note_on_c, 14, 60, 0
15, 6420, Note_on_c, 14, 48, 127
15, 6478, Note_on_c, 14, 48, 0
15, 6480, Note_on_c, 14, 41, 127
15, 6598, Note_on_c, 14, 41, 0
15, 9600, Note_on_c, 14, 48, 127
15, 9658, Note_on_c, 14, 48, 0
15, 9660, Note_on_c, 14, 52, 127
15, 9689, Note_on_c, 14, 52, 0
15, 9690, Note_on_c, 14, 50, 127
15, 9719, Note_on_c, 14, 50, 0
15, 9720, Note_on_c, 14, 48, 127
15, 9778, Note_on_c, 14, 48, 0
15, 9780, Note_on_c, 14, 47, 127
15, 9838, Note_on_c, 14, 47, 0
15, 9840, Note_on_c, 14, 48, 127
15, 9898, Note_on_c, 14, 48, 0
15, 9900, Note_on_c, 14, 53, 127
15, 9958, Note_on_c, 14, 53, 0
15, 9960, Note_on_c, 14, 47, 127
15, 10018, Note_on_c, 14, 47, 0
15, 10020, Note_on_c, 14, 43, 127
15, 10078, Note_on_c, 14, 43, 0
15, 10080, Note_on_c, 14, 48, 127
15, 10138, Note_on_c, 14, 48, 0
15, 10140, Note_on_c, 14, 52, 127
15, 10169, Note_on_c, 14, 52, 0
15, 10170, Note_on_c, 14, 50, 127
15, 10199, Note_on_c, 14, 50, 0
15, 10200, Note_on_c, 14, 48, 127
15, 10258, Note_on_c, 14, 48, 0
15, 10260, Note_on_c, 14, 47, 127
15, 10318, Note_on_c, 14, 47, 0
15, 10320, Note_on_c, 14, 48, 127
15, 10378, Note_on_c, 14, 48, 0
15, 10380, Note_on_c, 14, 53, 127
15, 10438, Note_on_c, 14, 53, 0
15, 10440, Note_on_c, 14, 47, 127
15, 10498, Note_on_c, 14, 47, 0
15, 10500, Note_on_c, 14, 47, 127
15, 10558, Note_on_c, 14, 47, 0
15, 10560, Note_on_c, 14, 48, 127
15, 10618, Note_on_c, 14, 48, 0
15, 10620, Note_on_c, 14, 53, 127
15, 10678, Note_on_c, 14, 53, 0
15, 10680, Note_on_c, 14, 55, 127
15, 10738, Note_on_c, 14, 55, 0
15, 10740, Note_on_c, 14, 43, 127
15, 10798, Note_on_c, 14, 43, 0
15, 10800, Note_on_c, 14, 48, 127
15, 10918, Note_on_c, 14, 48, 0
15, 17820, Note_on_c, 14, 53, 127
15, 17878, Note_on_c, 14, 53, 0
15, 17880, Note_on_c, 14, 53, 127
15, 17938, Note_on_c, 14, 53, 0
15, 17940, Note_on_c, 14, 55, 127
15, 17969, Note_on_c, 14, 55, 0
15, 17970, Note_on_c, 14, 57, 127
15, 17999, Note_on_c, 14, 57, 0
15, 18000, Note_on_c, 14, 58, 127
15, 18058, Note_on_c, 14, 58, 0
15, 18060, Note_on_c, 14, 46, 127
15, 18118, Note_on_c, 14, 46, 0
15, 18120, Note_on_c, 14, 58, 127
15, 18297, Note_on_c, 14, 58, 0
15, 18300, Note_on_c, 14, 60, 127
15, 18329, Note_on_c, 14, 60, 0
15, 18330, Note_on_c, 14, 58, 127
15, 18359, Note_on_c, 14, 58, 0
15, 18360, Note_on_c, 14, 57, 127
15, 18418, Note_on_c, 14, 57, 0
15, 18420, Note_on_c, 14, 55, 127
15, 18478, Note_on_c, 14, 55, 0
15, 18480, Note_on_c, 14, 60, 127
15, 18538, Note_on_c, 14, 60, 0
15, 18540, Note_on_c, 14, 48, 127
15, 18598, Note_on_c, 14, 48, 0
15, 18600, Note_on_c, 14, 60, 127
15, 18718, Note_on_c, 14, 60, 0
15, 18720, Note_on_c, 14, 53, 127
15, 18778, Note_on_c, 14, 53, 0
15, 18780, Note_on_c, 14, 41, 127
15, 18838, Note_on_c, 14, 41, 0
15, 18840, Note_on_c, 14, 48, 127
15, 18898, Note_on_c, 14, 48, 0
15, 18900, Note_on_c, 14, 48, 127
15, 18958, Note_on_c, 14, 48, 0
15, 18960, Note_on_c, 14, 53, 127
15, 19018, Note_on_c, 14, 53, 0
15, 19020, Note_on_c, 14, 41, 127
15, 19078, Note_on_c, 14, 41, 0
15, 19080, Note_on_c, 14, 48, 127
15, 19138, Note_on_c, 14, 48, 0
15, 19140, Note_on_c, 14, 48, 127
15, 19198, Note_on_c, 14, 48, 0
15, 19200, Note_on_c, 14, 41, 127
15, 19437, Note_on_c, 14, 41, 0
15, 19437, End_track
16, 0, Start_track
16, 0, MIDI_port, 0
16, 0, Title_t, "+ Basso Continuo"
16, 0, Program_c, 15, 70
16, 0, Control_c, 15, 7, 45
16, 0, Control_c, 15, 10, 100
16, 0, Control_c, 15, 11, 127
16, 0, Control_c, 15, 8, 64
16, 0, Note_on_c, 15, 53, 127
16, 58, Note_on_c, 15, 53, 0
16, 60, Note_on_c, 15, 57, 127
16, 89, Note_on_c, 15, 57, 0
16, 90, Note_on_c, 15, 55, 127
16, 119, Note_on_c, 15, 55, 0
16, 120, Note_on_c, 15, 53, 127
16, 178, Note_on_c, 15, 53, 0
16, 180, Note_on_c, 15, 52, 127
16, 238, Note_on_c, 15, 52, 0
16, 240, Note_on_c, 15, 50, 127
16, 298, Note_on_c, 15, 50, 0
16, 300, Note_on_c, 15, 58, 127
16, 358, Note_on_c, 15, 58, 0
16, 360, Note_on_c, 15, 52, 127
16, 418, Note_on_c, 15, 52, 0
16, 420, Note_on_c, 15, 48, 127
16, 478, Note_on_c, 15, 48, 0
16, 480, Note_on_c, 15, 53, 127
16, 538, Note_on_c, 15, 53, 0
16, 540, Note_on_c, 15, 57, 127
16, 569, Note_on_c, 15, 57, 0
16, 570, Note_on_c, 15, 55, 127
16, 599, Note_on_c, 15, 55, 0
16, 600, Note_on_c, 15, 53, 127
16, 658, Note_on_c, 15, 53, 0
16, 660, Note_on_c, 15, 52, 127
16, 718, Note_on_c, 15, 52, 0
16, 720, Note_on_c, 15, 50, 127
16, 778, Note_on_c, 15, 50, 0
16, 780, Note_on_c, 15, 58, 127
16, 838, Note_on_c, 15, 58, 0
16, 840, Note_on_c, 15, 52, 127
16, 898, Note_on_c, 15, 52, 0
16, 900, Note_on_c, 15, 40, 127
16, 958, Note_on_c, 15, 40, 0
16, 960, Note_on_c, 15, 41, 127
16, 1078, Note_on_c, 15, 41, 0
16, 1140, Note_on_c, 15, 53, 127
16, 1198, Note_on_c, 15, 53, 0
16, 1200, Note_on_c, 15, 60, 127
16, 1318, Note_on_c, 15, 60, 0
16, 1320, Note_on_c, 15, 48, 127
16, 1438, Note_on_c, 15, 48, 0
16, 1440, Note_on_c, 15, 41, 127
16, 1558, Note_on_c, 15, 41, 0
16, 1620, Note_on_c, 15, 53, 127
16, 1678, Note_on_c, 15, 53, 0
16, 1680, Note_on_c, 15, 60, 127
16, 1798, Note_on_c, 15, 60, 0
16, 1800, Note_on_c, 15, 48, 127
16, 1918, Note_on_c, 15, 48, 0
16, 1920, Note_on_c, 15, 53, 127
16, 1949, Note_on_c, 15, 53, 0
16, 1950, Note_on_c, 15, 60, 127
16, 1979, Note_on_c, 15, 60, 0
16, 1980, Note_on_c, 15, 58, 127
16, 2009, Note_on_c, 15, 58, 0
16, 2010, Note_on_c, 15, 60, 127
16, 2039, Note_on_c, 15, 60, 0
16, 2040, Note_on_c, 15, 57, 127
16, 2069, Note_on_c, 15, 57, 0
16, 2070, Note_on_c, 15, 60, 127
16, 2099, Note_on_c, 15, 60, 0
16, 2100, Note_on_c, 15, 55, 127
16, 2129, Note_on_c, 15, 55, 0
16, 2130, Note_on_c, 15, 60, 127
16, 2159, Note_on_c, 15, 60, 0
16, 2160, Note_on_c, 15, 53, 127
16, 2189, Note_on_c, 15, 53, 0
16, 2190, Note_on_c, 15, 57, 127
16, 2219, Note_on_c, 15, 57, 0
16, 2220, Note_on_c, 15, 55, 127
16, 2249, Note_on_c, 15, 55, 0
16, 2250, Note_on_c, 15, 57, 127
16, 2279, Note_on_c, 15, 57, 0
16, 2280, Note_on_c, 15, 53, 127
16, 2309, Note_on_c, 15, 53, 0
16, 2310, Note_on_c, 15, 57, 127
16, 2339, Note_on_c, 15, 57, 0
16, 2340, Note_on_c, 15, 52, 127
16, 2369, Note_on_c, 15, 52, 0
16, 2370, Note_on_c, 15, 57, 127
16, 2399, Note_on_c, 15, 57, 0
16, 2400, Note_on_c, 15, 50, 127
16, 2429, Note_on_c, 15, 50, 0
16, 2430, Note_on_c, 15, 62, 127
16, 2459, Note_on_c, 15, 62, 0
16, 2460, Note_on_c, 15, 60, 127
16, 2489, Note_on_c, 15, 60, 0
16, 2490, Note_on_c, 15, 62, 127
16, 2519, Note_on_c, 15, 62, 0
16, 2520, Note_on_c, 15, 58, 127
16, 2549, Note_on_c, 15, 58, 0
16, 2550, Note_on_c, 15, 62, 127
16, 2579, Note_on_c, 15, 62, 0
16, 2580, Note_on_c, 15, 57, 127
16, 2609, Note_on_c, 15, 57, 0
16, 2610, Note_on_c, 15, 62, 127
16, 2639, Note_on_c, 15, 62, 0
16, 2640, Note_on_c, 15, 55, 127
16, 2669, Note_on_c, 15, 55, 0
16, 2670, Note_on_c, 15, 58, 127
16, 2699, Note_on_c, 15, 58, 0
16, 2700, Note_on_c, 15, 57, 127
16, 2729, Note_on_c, 15, 57, 0
16, 2730, Note_on_c, 15, 58, 127
16, 2759, Note_on_c, 15, 58, 0
16, 2760, Note_on_c, 15, 55, 127
16, 2789, Note_on_c, 15, 55, 0
16, 2790, Note_on_c, 15, 58, 127
16, 2819, Note_on_c, 15, 58, 0
16, 2820, Note_on_c, 15, 53, 127
16, 2848, Note_on_c, 15, 53, 0
16, 2850, Note_on_c, 15, 58, 127
16, 2879, Note_on_c, 15, 58, 0
16, 2880, Note_on_c, 15, 52, 127
16, 2938, Note_on_c, 15, 52, 0
16, 2940, Note_on_c, 15, 48, 127
16, 2998, Note_on_c, 15, 48, 0
16, 3390, Note_on_c, 15, 60, 127
16, 3419, Note_on_c, 15, 60, 0
16, 3420, Note_on_c, 15, 55, 127
16, 3449, Note_on_c, 15, 55, 0
16, 3450, Note_on_c, 15, 60, 127
16, 3479, Note_on_c, 15, 60, 0
16, 3480, Note_on_c, 15, 52, 127
16, 3509, Note_on_c, 15, 52, 0
16, 3510, Note_on_c, 15, 60, 127
16, 3539, Note_on_c, 15, 60, 0
16, 3540, Note_on_c, 15, 50, 127
16, 3569, Note_on_c, 15, 50, 0
16, 3570, Note_on_c, 15, 60, 127
16, 3599, Note_on_c, 15, 60, 0
16, 3600, Note_on_c, 15, 48, 127
16, 3718, Note_on_c, 15, 48, 0
16, 4110, Note_on_c, 15, 60, 127
16, 4139, Note_on_c, 15, 60, 0
16, 4140, Note_on_c, 15, 55, 127
16, 4169, Note_on_c, 15, 55, 0
16, 4170, Note_on_c, 15, 60, 127
16, 4199, Note_on_c, 15, 60, 0
16, 4200, Note_on_c, 15, 52, 127
16, 4229, Note_on_c, 15, 52, 0
16, 4230, Note_on_c, 15, 60, 127
16, 4259, Note_on_c, 15, 60, 0
16, 4260, Note_on_c, 15, 50, 127
16, 4289, Note_on_c, 15, 50, 0
16, 4290, Note_on_c, 15, 60, 127
16, 4319, Note_on_c, 15, 60, 0
16, 4320, Note_on_c, 15, 48, 127
16, 4438, Note_on_c, 15, 48, 0
16, 4620, Note_on_c, 15, 53, 127
16, 4678, Note_on_c, 15, 53, 0
16, 4680, Note_on_c, 15, 53, 127
16, 4738, Note_on_c, 15, 53, 0
16, 4740, Note_on_c, 15, 55, 127
16, 4769, Note_on_c, 15, 55, 0
16, 4770, Note_on_c, 15, 57, 127
16, 4799, Note_on_c, 15, 57, 0
16, 4800, Note_on_c, 15, 58, 127
16, 4858, Note_on_c, 15, 58, 0
16, 4860, Note_on_c, 15, 46, 127
16, 4918, Note_on_c, 15, 46, 0
16, 4920, Note_on_c, 15, 58, 127
16, 5097, Note_on_c, 15, 58, 0
16, 5100, Note_on_c, 15, 60, 127
16, 5129, Note_on_c, 15, 60, 0
16, 5130, Note_on_c, 15, 58, 127
16, 5159, Note_on_c, 15, 58, 0
16, 5160, Note_on_c, 15, 57, 127
16, 5218, Note_on_c, 15, 57, 0
16, 5220, Note_on_c, 15, 55, 127
16, 5278, Note_on_c, 15, 55, 0
16, 5280, Note_on_c, 15, 60, 127
16, 5338, Note_on_c, 15, 60, 0
16, 5340, Note_on_c, 15, 48, 127
16, 5398, Note_on_c, 15, 48, 0
16, 5400, Note_on_c, 15, 60, 127
16, 5577, Note_on_c, 15, 60, 0
16, 5580, Note_on_c, 15, 62, 127
16, 5609, Note_on_c, 15, 62, 0
16, 5610, Note_on_c, 15, 60, 127
16, 5639, Note_on_c, 15, 60, 0
16, 5640, Note_on_c, 15, 58, 127
16, 5698, Note_on_c, 15, 58, 0
16, 5700, Note_on_c, 15, 57, 127
16, 5758, Note_on_c, 15, 57, 0
16, 5760, Note_on_c, 15, 62, 127
16, 5818, Note_on_c, 15, 62, 0
16, 5820, Note_on_c, 15, 50, 127
16, 5878, Note_on_c, 15, 50, 0
16, 5880, Note_on_c, 15, 62, 127
16, 6057, Note_on_c, 15, 62, 0
16, 6060, Note_on_c, 15, 64, 127
16, 6089, Note_on_c, 15, 64, 0
16, 6090, Note_on_c, 15, 62, 127
16, 6119, Note_on_c, 15, 62, 0
16, 6120, Note_on_c, 15, 60, 127
16, 6178, Note_on_c, 15, 60, 0
16, 6180, Note_on_c, 15, 58, 127
16, 6238, Note_on_c, 15, 58, 0
16, 6240, Note_on_c, 15, 60, 127
16, 6298, Note_on_c, 15, 60, 0
16, 6300, Note_on_c, 15, 53, 127
16, 6358, Note_on_c, 15, 53, 0
16, 6360, Note_on_c, 15, 60, 127
16, 6418, Note_on_c, 15, 60, 0
16, 6420, Note_on_c, 15, 48, 127
16, 6478, Note_on_c, 15, 48, 0
16, 6480, Note_on_c, 15, 41, 127
16, 6598, Note_on_c, 15, 41, 0
16, 6780, Note_on_c, 15, 53, 127
16, 6838, Note_on_c, 15, 53, 0
16, 6840, Note_on_c, 15, 57, 127
16, 6898, Note_on_c, 15, 57, 0
16, 6900, Note_on_c, 15, 60, 127
16, 6958, Note_on_c, 15, 60, 0
16, 6960, Note_on_c, 15, 55, 127
16, 7018, Note_on_c, 15, 55, 0
16, 7020, Note_on_c, 15, 53, 127
16, 7078, Note_on_c, 15, 53, 0
16, 7080, Note_on_c, 15, 55, 127
16, 7138, Note_on_c, 15, 55, 0
16, 7140, Note_on_c, 15, 48, 127
16, 7198, Note_on_c, 15, 48, 0
16, 7200, Note_on_c, 15, 53, 127
16, 7318, Note_on_c, 15, 53, 0
16, 7320, Note_on_c, 15, 41, 127
16, 7436, Note_on_c, 15, 53, 127
16, 7438, Note_on_c, 15, 41, 0
16, 7524, Note_on_c, 15, 53, 0
16, 7526, Note_on_c, 15, 53, 127
16, 7555, Note_on_c, 15, 53, 0
16, 7556, Note_on_c, 15, 53, 127
16, 7614, Note_on_c, 15, 53, 0
16, 7616, Note_on_c, 15, 53, 127
16, 7674, Note_on_c, 15, 53, 0
16, 7680, Note_on_c, 15, 53, 127
16, 7738, Note_on_c, 15, 53, 0
16, 7740, Note_on_c, 15, 53, 127
16, 7798, Note_on_c, 15, 53, 0
16, 7800, Note_on_c, 15, 53, 127
16, 7858, Note_on_c, 15, 53, 0
16, 7860, Note_on_c, 15, 55, 127
16, 7889, Note_on_c, 15, 55, 0
16, 7890, Note_on_c, 15, 57, 127
16, 7919, Note_on_c, 15, 57, 0
16, 7920, Note_on_c, 15, 58, 127
16, 7978, Note_on_c, 15, 58, 0
16, 7980, Note_on_c, 15, 46, 127
16, 8038, Note_on_c, 15, 46, 0
16, 8040, Note_on_c, 15, 58, 127
16, 8217, Note_on_c, 15, 58, 0
16, 8220, Note_on_c, 15, 60, 127
16, 8249, Note_on_c, 15, 60, 0
16, 8250, Note_on_c, 15, 58, 127
16, 8279, Note_on_c, 15, 58, 0
16, 8280, Note_on_c, 15, 57, 127
16, 8338, Note_on_c, 15, 57, 0
16, 8340, Note_on_c, 15, 55, 127
16, 8398, Note_on_c, 15, 55, 0
16, 8400, Note_on_c, 15, 60, 127
16, 8458, Note_on_c, 15, 60, 0
16, 8460, Note_on_c, 15, 48, 127
16, 8518, Note_on_c, 15, 48, 0
16, 8520, Note_on_c, 15, 60, 127
16, 8697, Note_on_c, 15, 60, 0
16, 8700, Note_on_c, 15, 62, 127
16, 8729, Note_on_c, 15, 62, 0
16, 8730, Note_on_c, 15, 60, 127
16, 8759, Note_on_c, 15, 60, 0
16, 8760, Note_on_c, 15, 58, 127
16, 8818, Note_on_c, 15, 58, 0
16, 8820, Note_on_c, 15, 57, 127
16, 8878, Note_on_c, 15, 57, 0
16, 8880, Note_on_c, 15, 62, 127
16, 8938, Note_on_c, 15, 62, 0
16, 8940, Note_on_c, 15, 50, 127
16, 8998, Note_on_c, 15, 50, 0
16, 9000, Note_on_c, 15, 50, 127
16, 9058, Note_on_c, 15, 50, 0
16, 9060, Note_on_c, 15, 52, 127
16, 9089, Note_on_c, 15, 52, 0
16, 9090, Note_on_c, 15, 53, 127
16, 9119, Note_on_c, 15, 53, 0
16, 9120, Note_on_c, 15, 55, 127
16, 9208, Note_on_c, 15, 55, 0
16, 9210, Note_on_c, 15, 55, 127
16, 9239, Note_on_c, 15, 55, 0
16, 9240, Note_on_c, 15, 48, 127
16, 9298, Note_on_c, 15, 48, 0
16, 9300, Note_on_c, 15, 36, 127
16, 9358, Note_on_c, 15, 36, 0
16, 9360, Note_on_c, 15, 41, 127
16, 9418, Note_on_c, 15, 41, 0
16, 9420, Note_on_c, 15, 53, 127
16, 9478, Note_on_c, 15, 53, 0
16, 9480, Note_on_c, 15, 55, 127
16, 9538, Note_on_c, 15, 55, 0
16, 9540, Note_on_c, 15, 43, 127
16, 9598, Note_on_c, 15, 43, 0
16, 9600, Note_on_c, 15, 48, 127
16, 9658, Note_on_c, 15, 48, 0
16, 9660, Note_on_c, 15, 52, 127
16, 9689, Note_on_c, 15, 52, 0
16, 9690, Note_on_c, 15, 50, 127
16, 9719, Note_on_c, 15, 50, 0
16, 9720, Note_on_c, 15, 48, 127
16, 9778, Note_on_c, 15, 48, 0
16, 9780, Note_on_c, 15, 47, 127
16, 9838, Note_on_c, 15, 47, 0
16, 9840, Note_on_c, 15, 48, 127
16, 9898, Note_on_c, 15, 48, 0
16, 9900, Note_on_c, 15, 53, 127
16, 9958, Note_on_c, 15, 53, 0
16, 9960, Note_on_c, 15, 47, 127
16, 10018, Note_on_c, 15, 47, 0
16, 10020, Note_on_c, 15, 43, 127
16, 10078, Note_on_c, 15, 43, 0
16, 10080, Note_on_c, 15, 48, 127
16, 10138, Note_on_c, 15, 48, 0
16, 10140, Note_on_c, 15, 52, 127
16, 10169, Note_on_c, 15, 52, 0
16, 10170, Note_on_c, 15, 50, 127
16, 10199, Note_on_c, 15, 50, 0
16, 10200, Note_on_c, 15, 48, 127
16, 10258, Note_on_c, 15, 48, 0
16, 10260, Note_on_c, 15, 47, 127
16, 10318, Note_on_c, 15, 47, 0
16, 10320, Note_on_c, 15, 48, 127
16, 10378, Note_on_c, 15, 48, 0
16, 10380, Note_on_c, 15, 53, 127
16, 10438, Note_on_c, 15, 53, 0
16, 10440, Note_on_c, 15, 47, 127
16, 10498, Note_on_c, 15, 47, 0
16, 10500, Note_on_c, 15, 47, 127
16, 10558, Note_on_c, 15, 47, 0
16, 10560, Note_on_c, 15, 48, 127
16, 10618, Note_on_c, 15, 48, 0
16, 10620, Note_on_c, 15, 53, 127
16, 10678, Note_on_c, 15, 53, 0
16, 10680, Note_on_c, 15, 55, 127
16, 10738, Note_on_c, 15, 55, 0
16, 10740, Note_on_c, 15, 43, 127
16, 10798, Note_on_c, 15, 43, 0
16, 10800, Note_on_c, 15, 48, 127
16, 10858, Note_on_c, 15, 48, 0
16, 10860, Note_on_c, 15, 48, 127
16, 10918, Note_on_c, 15, 48, 0
16, 10920, Note_on_c, 15, 52, 127
16, 10978, Note_on_c, 15, 52, 0
16, 10980, Note_on_c, 15, 55, 127
16, 11038, Note_on_c, 15, 55, 0
16, 11040, Note_on_c, 15, 60, 127
16, 11098, Note_on_c, 15, 60, 0
16, 11100, Note_on_c, 15, 48, 127
16, 11158, Note_on_c, 15, 48, 0
16, 11160, Note_on_c, 15, 52, 127
16, 11218, Note_on_c, 15, 52, 0
16, 11220, Note_on_c, 15, 55, 127
16, 11278, Note_on_c, 15, 55, 0
16, 11280, Note_on_c, 15, 53, 127
16, 11338, Note_on_c, 15, 53, 0
16, 11340, Note_on_c, 15, 50, 127
16, 11398, Note_on_c, 15, 50, 0
16, 11400, Note_on_c, 15, 47, 127
16, 11458, Note_on_c, 15, 47, 0
16, 11460, Note_on_c, 15, 43, 127
16, 11518, Note_on_c, 15, 43, 0
16, 11520, Note_on_c, 15, 48, 127
16, 11638, Note_on_c, 15, 48, 0
16, 11640, Note_on_c, 15, 36, 127
16, 11758, Note_on_c, 15, 36, 0
16, 11820, Note_on_c, 15, 48, 127
16, 11878, Note_on_c, 15, 48, 0
16, 11880, Note_on_c, 15, 52, 127
16, 11938, Note_on_c, 15, 52, 0
16, 11940, Note_on_c, 15, 55, 127
16, 11998, Note_on_c, 15, 55, 0
16, 12000, Note_on_c, 15, 43, 127
16, 12118, Note_on_c, 15, 43, 0
16, 12120, Note_on_c, 15, 47, 127
16, 12238, Note_on_c, 15, 47, 0
16, 12240, Note_on_c, 15, 48, 127
16, 12358, Note_on_c, 15, 48, 0
16, 12360, Note_on_c, 15, 48, 127
16, 12418, Note_on_c, 15, 48, 0
16, 12420, Note_on_c, 15, 48, 127
16, 12478, Note_on_c, 15, 48, 0
16, 12480, Note_on_c, 15, 53, 127
16, 12598, Note_on_c, 15, 53, 0
16, 12600, Note_on_c, 15, 53, 127
16, 12718, Note_on_c, 15, 53, 0
16, 12720, Note_on_c, 15, 53, 127
16, 12778, Note_on_c, 15, 53, 0
16, 12780, Note_on_c, 15, 53, 127
16, 12838, Note_on_c, 15, 53, 0
16, 12840, Note_on_c, 15, 53, 127
16, 12898, Note_on_c, 15, 53, 0
16, 12900, Note_on_c, 15, 53, 127
16, 12958, Note_on_c, 15, 53, 0
16, 12960, Note_on_c, 15, 53, 127
16, 13018, Note_on_c, 15, 53, 0
16, 13020, Note_on_c, 15, 53, 127
16, 13078, Note_on_c, 15, 53, 0
16, 13080, Note_on_c, 15, 53, 127
16, 13138, Note_on_c, 15, 53, 0
16, 13140, Note_on_c, 15, 55, 127
16, 13169, Note_on_c, 15, 55, 0
16, 13170, Note_on_c, 15, 57, 127
16, 13199, Note_on_c, 15, 57, 0
16, 13200, Note_on_c, 15, 58, 127
16, 13258, Note_on_c, 15, 58, 0
16, 13260, Note_on_c, 15, 46, 127
16, 13318, Note_on_c, 15, 46, 0
16, 13320, Note_on_c, 15, 58, 127
16, 13497, Note_on_c, 15, 58, 0
16, 13500, Note_on_c, 15, 60, 127
16, 13529, Note_on_c, 15, 60, 0
16, 13530, Note_on_c, 15, 58, 127
16, 13559, Note_on_c, 15, 58, 0
16, 13560, Note_on_c, 15, 57, 127
16, 13618, Note_on_c, 15, 57, 0
16, 13620, Note_on_c, 15, 55, 127
16, 13678, Note_on_c, 15, 55, 0
16, 13680, Note_on_c, 15, 60, 127
16, 13738, Note_on_c, 15, 60, 0
16, 13740, Note_on_c, 15, 48, 127
16, 13798, Note_on_c, 15, 48, 0
16, 13800, Note_on_c, 15, 60, 127
16, 13977, Note_on_c, 15, 60, 0
16, 13980, Note_on_c, 15, 62, 127
16, 14009, Note_on_c, 15, 62, 0
16, 14010, Note_on_c, 15, 60, 127
16, 14039, Note_on_c, 15, 60, 0
16, 14040, Note_on_c, 15, 58, 127
16, 14098, Note_on_c, 15, 58, 0
16, 14100, Note_on_c, 15, 57, 127
16, 14158, Note_on_c, 15, 57, 0
16, 14160, Note_on_c, 15, 50, 127
16, 14218, Note_on_c, 15, 50, 0
16, 14220, Note_on_c, 15, 38, 127
16, 14278, Note_on_c, 15, 38, 0
16, 14280, Note_on_c, 15, 50, 127
16, 14457, Note_on_c, 15, 50, 0
16, 14460, Note_on_c, 15, 52, 127
16, 14489, Note_on_c, 15, 52, 0
16, 14490, Note_on_c, 15, 50, 127
16, 14519, Note_on_c, 15, 50, 0
16, 14520, Note_on_c, 15, 48, 127
16, 14578, Note_on_c, 15, 48, 0
16, 14580, Note_on_c, 15, 46, 127
16, 14638, Note_on_c, 15, 46, 0
16, 14640, Note_on_c, 15, 48, 127
16, 14698, Note_on_c, 15, 48, 0
16, 14700, Note_on_c, 15, 60, 127
16, 14818, Note_on_c, 15, 60, 0
16, 14820, Note_on_c, 15, 58, 127
16, 14849, Note_on_c, 15, 58, 0
16, 14850, Note_on_c, 15, 57, 127
16, 14879, Note_on_c, 15, 57, 0
16, 14880, Note_on_c, 15, 58, 127
16, 15057, Note_on_c, 15, 58, 0
16, 15060, Note_on_c, 15, 57, 127
16, 15089, Note_on_c, 15, 57, 0
16, 15090, Note_on_c, 15, 55, 127
16, 15119, Note_on_c, 15, 55, 0
16, 15120, Note_on_c, 15, 57, 127
16, 15297, Note_on_c, 15, 57, 0
16, 15300, Note_on_c, 15, 55, 127
16, 15329, Note_on_c, 15, 55, 0
16, 15330, Note_on_c, 15, 53, 127
16, 15359, Note_on_c, 15, 53, 0
16, 15360, Note_on_c, 15, 48, 127
16, 15418, Note_on_c, 15, 48, 0
16, 15420, Note_on_c, 15, 48, 127
16, 15478, Note_on_c, 15, 48, 0
16, 15480, Note_on_c, 15, 48, 127
16, 15538, Note_on_c, 15, 48, 0
16, 15540, Note_on_c, 15, 48, 127
16, 15598, Note_on_c, 15, 48, 0
16, 15600, Note_on_c, 15, 53, 127
16, 15658, Note_on_c, 15, 53, 0
16, 15660, Note_on_c, 15, 53, 127
16, 15718, Note_on_c, 15, 53, 0
16, 15720, Note_on_c, 15, 53, 127
16, 15778, Note_on_c, 15, 53, 0
16, 15780, Note_on_c, 15, 46, 127
16, 15838, Note_on_c, 15, 46, 0
16, 15840, Note_on_c, 15, 48, 127
16, 15869, Note_on_c, 15, 48, 0
16, 15870, Note_on_c, 15, 60, 127
16, 15899, Note_on_c, 15, 60, 0
16, 15900, Note_on_c, 15, 58, 127
16, 15929, Note_on_c, 15, 58, 0
16, 15930, Note_on_c, 15, 60, 127
16, 15959, Note_on_c, 15, 60, 0
16, 15960, Note_on_c, 15, 52, 127
16, 15989, Note_on_c, 15, 52, 0
16, 15990, Note_on_c, 15, 60, 127
16, 16019, Note_on_c, 15, 60, 0
16, 16020, Note_on_c, 15, 50, 127
16, 16049, Note_on_c, 15, 50, 0
16, 16050, Note_on_c, 15, 60, 127
16, 16079, Note_on_c, 15, 60, 0
16, 16080, Note_on_c, 15, 48, 127
16, 16138, Note_on_c, 15, 48, 0
16, 16140, Note_on_c, 15, 48, 127
16, 16198, Note_on_c, 15, 48, 0
16, 16200, Note_on_c, 15, 48, 127
16, 16258, Note_on_c, 15, 48, 0
16, 16260, Note_on_c, 15, 48, 127
16, 16318, Note_on_c, 15, 48, 0
16, 16320, Note_on_c, 15, 53, 127
16, 16378, Note_on_c, 15, 53, 0
16, 16380, Note_on_c, 15, 53, 127
16, 16438, Note_on_c, 15, 53, 0
16, 16440, Note_on_c, 15, 53, 127
16, 16498, Note_on_c, 15, 53, 0
16, 16500, Note_on_c, 15, 46, 127
16, 16558, Note_on_c, 15, 46, 0
16, 16560, Note_on_c, 15, 48, 127
16, 16589, Note_on_c, 15, 48, 0
16, 16590, Note_on_c, 15, 60, 127
16, 16619, Note_on_c, 15, 60, 0
16, 16620, Note_on_c, 15, 58, 127
16, 16649, Note_on_c, 15, 58, 0
16, 16650, Note_on_c, 15, 60, 127
16, 16679, Note_on_c, 15, 60, 0
16, 16680, Note_on_c, 15, 52, 127
16, 16709, Note_on_c, 15, 52, 0
16, 16710, Note_on_c, 15, 60, 127
16, 16739, Note_on_c, 15, 60, 0
16, 16740, Note_on_c, 15, 50, 127
16, 16769, Note_on_c, 15, 50, 0
16, 16770, Note_on_c, 15, 60, 127
16, 16799, Note_on_c, 15, 60, 0
16, 16800, Note_on_c, 15, 48, 127
16, 16829, Note_on_c, 15, 48, 0
16, 16830, Note_on_c, 15, 60, 127
16, 16859, Note_on_c, 15, 60, 0
16, 16860, Note_on_c, 15, 58, 127
16, 16889, Note_on_c, 15, 58, 0
16, 16890, Note_on_c, 15, 60, 127
16, 16919, Note_on_c, 15, 60, 0
16, 16920, Note_on_c, 15, 52, 127
16, 16949, Note_on_c, 15, 52, 0
16, 16950, Note_on_c, 15, 60, 127
16, 16979, Note_on_c, 15, 60, 0
16, 16980, Note_on_c, 15, 50, 127
16, 17009, Note_on_c, 15, 50, 0
16, 17010, Note_on_c, 15, 60, 127
16, 17039, Note_on_c, 15, 60, 0
16, 17040, Note_on_c, 15, 48, 127
16, 17098, Note_on_c, 15, 48, 0
16, 17100, Note_on_c, 15, 48, 127
16, 17158, Note_on_c, 15, 48, 0
16, 17160, Note_on_c, 15, 53, 127
16, 17218, Note_on_c, 15, 53, 0
16, 17220, Note_on_c, 15, 58, 127
16, 17278, Note_on_c, 15, 58, 0
16, 17280, Note_on_c, 15, 60, 127
16, 17398, Note_on_c, 15, 60, 0
16, 17400, Note_on_c, 15, 48, 127
16, 17518, Note_on_c, 15, 48, 0
16, 17520, Note_on_c, 15, 41, 127
16, 17638, Note_on_c, 15, 41, 0
16, 17820, Note_on_c, 15, 53, 127
16, 17878, Note_on_c, 15, 53, 0
16, 17880, Note_on_c, 15, 53, 127
16, 17938, Note_on_c, 15, 53, 0
16, 17940, Note_on_c, 15, 55, 127
16, 17969, Note_on_c, 15, 55, 0
16, 17970, Note_on_c, 15, 57, 127
16, 17999, Note_on_c, 15, 57, 0
16, 18000, Note_on_c, 15, 58, 127
16, 18058, Note_on_c, 15, 58, 0
16, 18060, Note_on_c, 15, 46, 127
16, 18118, Note_on_c, 15, 46, 0
16, 18120, Note_on_c, 15, 58, 127
16, 18297, Note_on_c, 15, 58, 0
16, 18300, Note_on_c, 15, 60, 127
16, 18329, Note_on_c, 15, 60, 0
16, 18330, Note_on_c, 15, 58, 127
16, 18359, Note_on_c, 15, 58, 0
16, 18360, Note_on_c, 15, 57, 127
16, 18418, Note_on_c, 15, 57, 0
16, 18420, Note_on_c, 15, 55, 127
16, 18478, Note_on_c, 15, 55, 0
16, 18480, Note_on_c, 15, 60, 127
16, 18538, Note_on_c, 15, 60, 0
16, 18540, Note_on_c, 15, 48, 127
16, 18598, Note_on_c, 15, 48, 0
16, 18600, Note_on_c, 15, 60, 127
16, 18718, Note_on_c, 15, 60, 0
16, 18720, Note_on_c, 15, 53, 127
16, 18778, Note_on_c, 15, 53, 0
16, 18780, Note_on_c, 15, 41, 127
16, 18838, Note_on_c, 15, 41, 0
16, 18840, Note_on_c, 15, 48, 127
16, 18898, Note_on_c, 15, 48, 0
16, 18900, Note_on_c, 15, 36, 127
16, 18958, Note_on_c, 15, 36, 0
16, 18960, Note_on_c, 15, 53, 127
16, 19018, Note_on_c, 15, 53, 0
16, 19020, Note_on_c, 15, 41, 127
16, 19078, Note_on_c, 15, 41, 0
16, 19080, Note_on_c, 15, 48, 127
16, 19138, Note_on_c, 15, 48, 0
16, 19140, Note_on_c, 15, 36, 127
16, 19198, Note_on_c, 15, 36, 0
16, 19200, Note_on_c, 15, 41, 127
16, 19437, Note_on_c, 15, 41, 0
16, 19437, End_track
17, 0, Start_track
17, 0, MIDI_port, 0
17, 0, Title_t, "============="
17, 0, End_track
18, 0, Start_track
18, 0, MIDI_port, 0
18, 0, Title_t, "Vivaldi (1678-1741): Sicut Locutus (Magnificat)"
18, 0, End_track
19, 0, Start_track
19, 0, MIDI_port, 0
19, 0, Title_t, "seq. by timobck@digibank.it,  03/96"
19, 0, End_track
20, 0, Start_track
20, 0, MIDI_port, 0
20, 0, Title_t, "(note: tracks 13-15 added by me to increase sound depth)"
20, 0, End_track
0, 0, End_of_file
