0, 0, Header, 1, 8, 240
1, 0, Start_track
1, 0, MIDI_port, 0
1, 0, System_exclusive, 5, 126, 127, 9, 1, 247
1, 0, MIDI_port, 0
1, 0, Time_signature, 4, 2, 24, 8
1, 0, Key_signature, 0, "major"
1, 0, Tempo, 521739
1, 0, Marker_t, "Concerto in Am, for Violin and"
1, 0, Marker_t, "     Orchestra - harpsichord reduction by"
1, 0, Marker_t, " Giuseppe Piccioli"
1, 0, Marker_t, "Antonio Vivaldi, Opus 3, No. 6"
1, 0, Marker_t, "This movement entered originally in 1991"
1, 0, Marker_t, "on an Adlib board using Visual Composer"
1, 0, Marker_t, "Allegro"
1, 78720, Key_signature, -1, "major"
1, 78720, Tempo, 1304348
1, 78720, Marker_t, "Largo"
1, 78720, Marker_t, "This movment entered using score"
1, 78720, Marker_t, "view in Wincake 3.0"
1, 78720, Marker_t, ""
1, 92531, Tempo, 300000
1, 94080, Time_signature, 2, 2, 24, 8
1, 94080, Key_signature, 0, "major"
1, 94080, Tempo, 594059
1, 94080, Marker_t, "Presto"
1, 96000, Marker_t, "Entered using Midiscan and Wincake"
1, 96000, Marker_t, ""
1, 96000, End_track
2, 0, Start_track
2, 0, MIDI_port, 0
2, 0, Title_t, "Antonio Vivaldi"
2, 0, End_track
3, 0, Start_track
3, 0, MIDI_port, 0
3, 0, Title_t, " (""Il Prete Rosso"") 1678-1741            "
3, 0, Program_c, 0, 40
3, 0, Control_c, 0, 10, 40
3, 835, Control_c, 0, 65, 127
3, 839, Note_on_c, 0, 76, 115
3, 959, Note_on_c, 0, 76, 0
3, 960, Note_on_c, 0, 81, 127
3, 1078, Note_on_c, 0, 81, 0
3, 1082, Note_on_c, 0, 81, 116
3, 1199, Note_on_c, 0, 81, 0
3, 1200, Note_on_c, 0, 81, 122
3, 1318, Note_on_c, 0, 81, 0
3, 1322, Note_on_c, 0, 81, 120
3, 1440, Note_on_c, 0, 81, 0
3, 1441, Note_on_c, 0, 81, 123
3, 1560, Note_on_c, 0, 84, 118
3, 1563, Note_on_c, 0, 81, 0
3, 1618, Note_on_c, 0, 84, 0
3, 1619, Note_on_c, 0, 83, 123
3, 1680, Note_on_c, 0, 83, 0
3, 1682, Note_on_c, 0, 81, 122
3, 1798, Note_on_c, 0, 84, 121
3, 1803, Note_on_c, 0, 81, 0
3, 1858, Note_on_c, 0, 84, 0
3, 1858, Note_on_c, 0, 83, 116
3, 1921, Note_on_c, 0, 83, 0
3, 1922, Note_on_c, 0, 81, 127
3, 2040, Note_on_c, 0, 84, 121
3, 2044, Note_on_c, 0, 81, 0
3, 2099, Note_on_c, 0, 84, 0
3, 2099, Note_on_c, 0, 83, 119
3, 2158, Note_on_c, 0, 83, 0
3, 2161, Note_on_c, 0, 81, 117
3, 2279, Note_on_c, 0, 79, 115
3, 2282, Note_on_c, 0, 81, 0
3, 2337, Note_on_c, 0, 79, 0
3, 2342, Note_on_c, 0, 77, 115
3, 2400, Note_on_c, 0, 76, 122
3, 2404, Note_on_c, 0, 77, 0
3, 2518, Note_on_c, 0, 76, 0
3, 2519, Note_on_c, 0, 74, 116
3, 2578, Note_on_c, 0, 74, 0
3, 2581, Note_on_c, 0, 72, 116
3, 2639, Note_on_c, 0, 71, 123
3, 2641, Note_on_c, 0, 72, 0
3, 2756, Note_on_c, 0, 71, 0
3, 2760, Note_on_c, 0, 76, 119
3, 2877, Note_on_c, 0, 76, 0
3, 2880, Note_on_c, 0, 72, 124
3, 2998, Note_on_c, 0, 69, 115
3, 2999, Note_on_c, 0, 72, 0
3, 3116, Note_on_c, 0, 69, 0
3, 3118, Note_on_c, 0, 69, 115
3, 3237, Note_on_c, 0, 69, 0
3, 3240, Note_on_c, 0, 76, 118
3, 3359, Note_on_c, 0, 81, 123
3, 3360, Note_on_c, 0, 76, 0
3, 3477, Note_on_c, 0, 81, 0
3, 3478, Note_on_c, 0, 81, 120
3, 3596, Note_on_c, 0, 81, 0
3, 3602, Note_on_c, 0, 81, 120
3, 3720, Note_on_c, 0, 81, 0
3, 3721, Note_on_c, 0, 81, 120
3, 3837, Note_on_c, 0, 81, 0
3, 3839, Note_on_c, 0, 81, 124
3, 3901, Note_on_c, 0, 81, 0
3, 3902, Note_on_c, 0, 79, 120
3, 3958, Note_on_c, 0, 77, 119
3, 3963, Note_on_c, 0, 79, 0
3, 4017, Note_on_c, 0, 77, 0
3, 4021, Note_on_c, 0, 76, 118
3, 4078, Note_on_c, 0, 76, 0
3, 4081, Note_on_c, 0, 77, 115
3, 4199, Note_on_c, 0, 77, 0
3, 4200, Note_on_c, 0, 74, 120
3, 4318, Note_on_c, 0, 74, 0
3, 4319, Note_on_c, 0, 79, 126
3, 4436, Note_on_c, 0, 79, 0
3, 4440, Note_on_c, 0, 79, 122
3, 4557, Note_on_c, 0, 79, 0
3, 4562, Note_on_c, 0, 79, 119
3, 4681, Note_on_c, 0, 79, 0
3, 4682, Note_on_c, 0, 79, 117
3, 4799, Note_on_c, 0, 79, 0
3, 4801, Note_on_c, 0, 79, 127
3, 4859, Note_on_c, 0, 77, 121
3, 4863, Note_on_c, 0, 79, 0
3, 4921, Note_on_c, 0, 77, 0
3, 4921, Note_on_c, 0, 76, 123
3, 4978, Note_on_c, 0, 74, 123
3, 4981, Note_on_c, 0, 76, 0
3, 5038, Note_on_c, 0, 74, 0
3, 5040, Note_on_c, 0, 76, 119
3, 5157, Note_on_c, 0, 76, 0
3, 5162, Note_on_c, 0, 72, 116
3, 5281, Note_on_c, 0, 77, 123
3, 5284, Note_on_c, 0, 72, 0
3, 5397, Note_on_c, 0, 77, 0
3, 5399, Note_on_c, 0, 77, 117
3, 5517, Note_on_c, 0, 77, 0
3, 5518, Note_on_c, 0, 77, 122
3, 5636, Note_on_c, 0, 77, 0
3, 5642, Note_on_c, 0, 77, 116
3, 5756, Note_on_c, 0, 77, 0
3, 5758, Note_on_c, 0, 77, 127
3, 5818, Note_on_c, 0, 76, 122
3, 5821, Note_on_c, 0, 77, 0
3, 5878, Note_on_c, 0, 76, 0
3, 5880, Note_on_c, 0, 74, 123
3, 5940, Note_on_c, 0, 74, 0
3, 5940, Note_on_c, 0, 72, 123
3, 5998, Note_on_c, 0, 72, 0
3, 6001, Note_on_c, 0, 74, 120
3, 6119, Note_on_c, 0, 71, 118
3, 6121, Note_on_c, 0, 74, 0
3, 6240, Note_on_c, 0, 76, 121
3, 6241, Note_on_c, 0, 71, 0
3, 6357, Note_on_c, 0, 76, 0
3, 6361, Note_on_c, 0, 76, 117
3, 6479, Note_on_c, 0, 76, 0
3, 6482, Note_on_c, 0, 76, 122
3, 6596, Note_on_c, 0, 76, 0
3, 6598, Note_on_c, 0, 76, 115
3, 6715, Note_on_c, 0, 76, 0
3, 6719, Note_on_c, 0, 76, 126
3, 6777, Note_on_c, 0, 76, 0
3, 6782, Note_on_c, 0, 74, 115
3, 6840, Note_on_c, 0, 72, 121
3, 6843, Note_on_c, 0, 74, 0
3, 6898, Note_on_c, 0, 72, 0
3, 6899, Note_on_c, 0, 71, 115
3, 6960, Note_on_c, 0, 72, 115
3, 6962, Note_on_c, 0, 71, 0
3, 7081, Note_on_c, 0, 69, 123
3, 7082, Note_on_c, 0, 72, 0
3, 7200, Note_on_c, 0, 69, 0
3, 7262, Note_on_c, 0, 69, 117
3, 7319, Note_on_c, 0, 72, 117
3, 7322, Note_on_c, 0, 69, 0
3, 7378, Note_on_c, 0, 72, 0
3, 7378, Note_on_c, 0, 76, 120
3, 7440, Note_on_c, 0, 76, 0
3, 7442, Note_on_c, 0, 81, 121
3, 7560, Note_on_c, 0, 81, 0
3, 7561, Note_on_c, 0, 81, 122
3, 7678, Note_on_c, 0, 81, 0
3, 7679, Note_on_c, 0, 81, 127
3, 7741, Note_on_c, 0, 81, 0
3, 7741, Note_on_c, 0, 69, 119
3, 7799, Note_on_c, 0, 69, 0
3, 7799, Note_on_c, 0, 72, 116
3, 7860, Note_on_c, 0, 76, 121
3, 7862, Note_on_c, 0, 72, 0
3, 7918, Note_on_c, 0, 76, 0
3, 7920, Note_on_c, 0, 81, 119
3, 8038, Note_on_c, 0, 81, 0
3, 8039, Note_on_c, 0, 81, 119
3, 8157, Note_on_c, 0, 81, 0
3, 8158, Note_on_c, 0, 81, 127
3, 8218, Note_on_c, 0, 81, 0
3, 8222, Note_on_c, 0, 69, 121
3, 8280, Note_on_c, 0, 69, 0
3, 8280, Note_on_c, 0, 72, 115
3, 8337, Note_on_c, 0, 72, 0
3, 8338, Note_on_c, 0, 76, 120
3, 8395, Note_on_c, 0, 76, 0
3, 8399, Note_on_c, 0, 82, 118
3, 8516, Note_on_c, 0, 82, 0
3, 8518, Note_on_c, 0, 82, 121
3, 8635, Note_on_c, 0, 82, 0
3, 8640, Note_on_c, 0, 82, 127
3, 8760, Note_on_c, 0, 81, 120
3, 8763, Note_on_c, 0, 82, 0
3, 8819, Note_on_c, 0, 80, 118
3, 8823, Note_on_c, 0, 81, 0
3, 8877, Note_on_c, 0, 80, 0
3, 8881, Note_on_c, 0, 81, 116
3, 9000, Note_on_c, 0, 83, 117
3, 9003, Note_on_c, 0, 81, 0
3, 9117, Note_on_c, 0, 83, 0
3, 9118, Note_on_c, 0, 74, 122
3, 9660, Note_on_c, 0, 74, 0
3, 9661, Note_on_c, 0, 64, 122
3, 9718, Note_on_c, 0, 64, 0
3, 9722, Note_on_c, 0, 68, 119
3, 9779, Note_on_c, 0, 71, 123
3, 9784, Note_on_c, 0, 68, 0
3, 9841, Note_on_c, 0, 74, 121
3, 9842, Note_on_c, 0, 71, 0
3, 9958, Note_on_c, 0, 74, 0
3, 9962, Note_on_c, 0, 74, 118
3, 10079, Note_on_c, 0, 74, 0
3, 10082, Note_on_c, 0, 74, 120
3, 10140, Note_on_c, 0, 74, 0
3, 10142, Note_on_c, 0, 64, 120
3, 10201, Note_on_c, 0, 68, 119
3, 10203, Note_on_c, 0, 64, 0
3, 10260, Note_on_c, 0, 71, 115
3, 10262, Note_on_c, 0, 68, 0
3, 10318, Note_on_c, 0, 74, 121
3, 10321, Note_on_c, 0, 71, 0
3, 10437, Note_on_c, 0, 74, 0
3, 10441, Note_on_c, 0, 74, 119
3, 10559, Note_on_c, 0, 74, 0
3, 10560, Note_on_c, 0, 74, 124
3, 10621, Note_on_c, 0, 64, 123
3, 10622, Note_on_c, 0, 74, 0
3, 10678, Note_on_c, 0, 68, 116
3, 10680, Note_on_c, 0, 64, 0
3, 10737, Note_on_c, 0, 68, 0
3, 10738, Note_on_c, 0, 71, 123
3, 10798, Note_on_c, 0, 71, 0
3, 10800, Note_on_c, 0, 74, 121
3, 10921, Note_on_c, 0, 74, 0
3, 10921, Note_on_c, 0, 76, 117
3, 11038, Note_on_c, 0, 76, 0
3, 11041, Note_on_c, 0, 72, 122
3, 11162, Note_on_c, 0, 72, 0
3, 11162, Note_on_c, 0, 71, 115
3, 11222, Note_on_c, 0, 69, 123
3, 11225, Note_on_c, 0, 71, 0
3, 11280, Note_on_c, 0, 69, 0
3, 11282, Note_on_c, 0, 77, 121
3, 11398, Note_on_c, 0, 76, 116
3, 11404, Note_on_c, 0, 77, 0
3, 11458, Note_on_c, 0, 76, 0
3, 11461, Note_on_c, 0, 74, 122
3, 11518, Note_on_c, 0, 76, 127
3, 11523, Note_on_c, 0, 74, 0
3, 11638, Note_on_c, 0, 76, 0
3, 11641, Note_on_c, 0, 81, 120
3, 11759, Note_on_c, 0, 81, 0
3, 11762, Note_on_c, 0, 64, 116
3, 11882, Note_on_c, 0, 64, 0
3, 11882, Note_on_c, 0, 80, 116
3, 12001, Note_on_c, 0, 81, 126
3, 12005, Note_on_c, 0, 80, 0
3, 12242, Note_on_c, 0, 81, 0
3, 12358, Note_on_c, 0, 76, 119
3, 12478, Note_on_c, 0, 81, 124
3, 12479, Note_on_c, 0, 76, 0
3, 12596, Note_on_c, 0, 81, 0
3, 12602, Note_on_c, 0, 81, 119
3, 12720, Note_on_c, 0, 81, 0
3, 12721, Note_on_c, 0, 81, 121
3, 12836, Note_on_c, 0, 81, 0
3, 12838, Note_on_c, 0, 81, 118
3, 12957, Note_on_c, 0, 81, 0
3, 12962, Note_on_c, 0, 81, 121
3, 13079, Note_on_c, 0, 84, 120
3, 13083, Note_on_c, 0, 81, 0
3, 13141, Note_on_c, 0, 84, 0
3, 13141, Note_on_c, 0, 83, 121
3, 13200, Note_on_c, 0, 81, 121
3, 13204, Note_on_c, 0, 83, 0
3, 13319, Note_on_c, 0, 84, 121
3, 13323, Note_on_c, 0, 81, 0
3, 13379, Note_on_c, 0, 84, 0
3, 13380, Note_on_c, 0, 83, 119
3, 13442, Note_on_c, 0, 83, 0
3, 13442, Note_on_c, 0, 81, 124
3, 13559, Note_on_c, 0, 84, 118
3, 13564, Note_on_c, 0, 81, 0
3, 13618, Note_on_c, 0, 84, 0
3, 13620, Note_on_c, 0, 83, 122
3, 13679, Note_on_c, 0, 83, 0
3, 13679, Note_on_c, 0, 81, 115
3, 13800, Note_on_c, 0, 79, 119
3, 13801, Note_on_c, 0, 81, 0
3, 13857, Note_on_c, 0, 79, 0
3, 13860, Note_on_c, 0, 77, 120
3, 13917, Note_on_c, 0, 77, 0
3, 13918, Note_on_c, 0, 76, 122
3, 14037, Note_on_c, 0, 76, 0
3, 14038, Note_on_c, 0, 74, 115
3, 14097, Note_on_c, 0, 74, 0
3, 14102, Note_on_c, 0, 72, 123
3, 14158, Note_on_c, 0, 71, 123
3, 14161, Note_on_c, 0, 72, 0
3, 14279, Note_on_c, 0, 71, 0
3, 14281, Note_on_c, 0, 76, 119
3, 14399, Note_on_c, 0, 72, 126
3, 14404, Note_on_c, 0, 76, 0
3, 14518, Note_on_c, 0, 69, 119
3, 14520, Note_on_c, 0, 72, 0
3, 14636, Note_on_c, 0, 69, 0
3, 14642, Note_on_c, 0, 69, 118
3, 14759, Note_on_c, 0, 76, 122
3, 14761, Note_on_c, 0, 69, 0
3, 14877, Note_on_c, 0, 76, 0
3, 14881, Note_on_c, 0, 76, 121
3, 14998, Note_on_c, 0, 76, 0
3, 15001, Note_on_c, 0, 79, 119
3, 15060, Note_on_c, 0, 77, 117
3, 15063, Note_on_c, 0, 79, 0
3, 15121, Note_on_c, 0, 76, 123
3, 15123, Note_on_c, 0, 77, 0
3, 15239, Note_on_c, 0, 76, 0
3, 15241, Note_on_c, 0, 76, 117
3, 15358, Note_on_c, 0, 76, 0
3, 15359, Note_on_c, 0, 81, 127
3, 15477, Note_on_c, 0, 81, 0
3, 15482, Note_on_c, 0, 79, 120
3, 15540, Note_on_c, 0, 77, 116
3, 15543, Note_on_c, 0, 79, 0
3, 15600, Note_on_c, 0, 76, 121
3, 15603, Note_on_c, 0, 77, 0
3, 15718, Note_on_c, 0, 76, 0
3, 15719, Note_on_c, 0, 76, 122
3, 15838, Note_on_c, 0, 76, 0
3, 15841, Note_on_c, 0, 82, 122
3, 15958, Note_on_c, 0, 82, 0
3, 15961, Note_on_c, 0, 79, 119
3, 16019, Note_on_c, 0, 79, 0
3, 16019, Note_on_c, 0, 77, 123
3, 16077, Note_on_c, 0, 77, 0
3, 16080, Note_on_c, 0, 76, 115
3, 16196, Note_on_c, 0, 76, 0
3, 16198, Note_on_c, 0, 76, 123
3, 16321, Note_on_c, 0, 76, 0
3, 16321, Note_on_c, 0, 81, 127
3, 16441, Note_on_c, 0, 81, 0
3, 16442, Note_on_c, 0, 73, 115
3, 16560, Note_on_c, 0, 74, 119
3, 16563, Note_on_c, 0, 73, 0
3, 16678, Note_on_c, 0, 74, 0
3, 16681, Note_on_c, 0, 65, 116
3, 16800, Note_on_c, 0, 67, 126
3, 16801, Note_on_c, 0, 65, 0
3, 16919, Note_on_c, 0, 67, 0
3, 16922, Note_on_c, 0, 74, 120
3, 17042, Note_on_c, 0, 57, 120
3, 17044, Note_on_c, 0, 74, 0
3, 17159, Note_on_c, 0, 57, 0
3, 17159, Note_on_c, 0, 73, 116
3, 17279, Note_on_c, 0, 74, 127
3, 17281, Note_on_c, 0, 73, 0
3, 17522, Note_on_c, 0, 74, 0
3, 17641, Note_on_c, 0, 74, 116
3, 17759, Note_on_c, 0, 74, 0
3, 17762, Note_on_c, 0, 74, 119
3, 17879, Note_on_c, 0, 77, 121
3, 17881, Note_on_c, 0, 74, 0
3, 17936, Note_on_c, 0, 77, 0
3, 17940, Note_on_c, 0, 76, 117
3, 18000, Note_on_c, 0, 76, 0
3, 18000, Note_on_c, 0, 74, 123
3, 18118, Note_on_c, 0, 74, 0
3, 18122, Note_on_c, 0, 74, 117
3, 18238, Note_on_c, 0, 79, 126
3, 18242, Note_on_c, 0, 74, 0
3, 18358, Note_on_c, 0, 77, 116
3, 18359, Note_on_c, 0, 79, 0
3, 18418, Note_on_c, 0, 77, 0
3, 18421, Note_on_c, 0, 76, 121
3, 18480, Note_on_c, 0, 76, 0
3, 18481, Note_on_c, 0, 74, 122
3, 18596, Note_on_c, 0, 74, 0
3, 18598, Note_on_c, 0, 74, 121
3, 18716, Note_on_c, 0, 74, 0
3, 18721, Note_on_c, 0, 81, 124
3, 18838, Note_on_c, 0, 81, 0
3, 18838, Note_on_c, 0, 77, 121
3, 18896, Note_on_c, 0, 77, 0
3, 18902, Note_on_c, 0, 76, 117
3, 18961, Note_on_c, 0, 76, 0
3, 18961, Note_on_c, 0, 74, 116
3, 19076, Note_on_c, 0, 74, 0
3, 19078, Note_on_c, 0, 74, 115
3, 19199, Note_on_c, 0, 74, 0
3, 19201, Note_on_c, 0, 79, 123
3, 19318, Note_on_c, 0, 71, 122
3, 19323, Note_on_c, 0, 79, 0
3, 19438, Note_on_c, 0, 72, 122
3, 19439, Note_on_c, 0, 71, 0
3, 19558, Note_on_c, 0, 64, 116
3, 19559, Note_on_c, 0, 72, 0
3, 19680, Note_on_c, 0, 64, 0
3, 19680, Note_on_c, 0, 65, 120
3, 19797, Note_on_c, 0, 65, 0
3, 19798, Note_on_c, 0, 72, 119
3, 19920, Note_on_c, 0, 72, 0
3, 19920, Note_on_c, 0, 55, 115
3, 20039, Note_on_c, 0, 71, 116
3, 20041, Note_on_c, 0, 55, 0
3, 20158, Note_on_c, 0, 72, 127
3, 20162, Note_on_c, 0, 71, 0
3, 20396, Note_on_c, 0, 72, 0
3, 20518, Note_on_c, 0, 76, 121
3, 20636, Note_on_c, 0, 76, 0
3, 20641, Note_on_c, 0, 76, 125
3, 20758, Note_on_c, 0, 72, 119
3, 20764, Note_on_c, 0, 76, 0
3, 20821, Note_on_c, 0, 72, 0
3, 20821, Note_on_c, 0, 74, 115
3, 20882, Note_on_c, 0, 74, 0
3, 20882, Note_on_c, 0, 76, 118
3, 21000, Note_on_c, 0, 76, 0
3, 21002, Note_on_c, 0, 76, 116
3, 21120, Note_on_c, 0, 76, 0
3, 21121, Note_on_c, 0, 76, 127
3, 21239, Note_on_c, 0, 76, 0
3, 21242, Note_on_c, 0, 72, 117
3, 21298, Note_on_c, 0, 74, 118
3, 21304, Note_on_c, 0, 72, 0
3, 21356, Note_on_c, 0, 74, 0
3, 21358, Note_on_c, 0, 76, 117
3, 21476, Note_on_c, 0, 76, 0
3, 21479, Note_on_c, 0, 76, 120
3, 21597, Note_on_c, 0, 76, 0
3, 21602, Note_on_c, 0, 76, 123
3, 21720, Note_on_c, 0, 77, 120
3, 21721, Note_on_c, 0, 76, 0
3, 21779, Note_on_c, 0, 79, 116
3, 21782, Note_on_c, 0, 77, 0
3, 21838, Note_on_c, 0, 79, 0
3, 21838, Note_on_c, 0, 81, 119
3, 21956, Note_on_c, 0, 81, 0
3, 21959, Note_on_c, 0, 79, 123
3, 22019, Note_on_c, 0, 79, 0
3, 22022, Note_on_c, 0, 77, 121
3, 22080, Note_on_c, 0, 77, 0
3, 22081, Note_on_c, 0, 76, 127
3, 22199, Note_on_c, 0, 74, 116
3, 22202, Note_on_c, 0, 76, 0
3, 22257, Note_on_c, 0, 74, 0
3, 22262, Note_on_c, 0, 72, 118
3, 22322, Note_on_c, 0, 71, 116
3, 22323, Note_on_c, 0, 72, 0
3, 22441, Note_on_c, 0, 76, 123
3, 22444, Note_on_c, 0, 71, 0
3, 22560, Note_on_c, 0, 72, 123
3, 22564, Note_on_c, 0, 76, 0
3, 22680, Note_on_c, 0, 72, 0
3, 22680, Note_on_c, 0, 69, 123
3, 22798, Note_on_c, 0, 69, 0
3, 22802, Note_on_c, 0, 69, 115
3, 22918, Note_on_c, 0, 76, 120
3, 22924, Note_on_c, 0, 69, 0
3, 23036, Note_on_c, 0, 76, 0
3, 23039, Note_on_c, 0, 76, 123
3, 23096, Note_on_c, 0, 76, 0
3, 23102, Note_on_c, 0, 69, 118
3, 23161, Note_on_c, 0, 71, 123
3, 23163, Note_on_c, 0, 69, 0
3, 23222, Note_on_c, 0, 69, 115
3, 23223, Note_on_c, 0, 71, 0
3, 23280, Note_on_c, 0, 76, 123
3, 23283, Note_on_c, 0, 69, 0
3, 23338, Note_on_c, 0, 76, 0
3, 23339, Note_on_c, 0, 69, 117
3, 23396, Note_on_c, 0, 69, 0
3, 23399, Note_on_c, 0, 71, 117
3, 23456, Note_on_c, 0, 71, 0
3, 23462, Note_on_c, 0, 69, 121
3, 23522, Note_on_c, 0, 69, 0
3, 23522, Note_on_c, 0, 81, 122
3, 23581, Note_on_c, 0, 69, 116
3, 23585, Note_on_c, 0, 81, 0
3, 23638, Note_on_c, 0, 69, 0
3, 23639, Note_on_c, 0, 71, 120
3, 23699, Note_on_c, 0, 71, 0
3, 23699, Note_on_c, 0, 69, 120
3, 23758, Note_on_c, 0, 76, 119
3, 23761, Note_on_c, 0, 69, 0
3, 23820, Note_on_c, 0, 76, 0
3, 23820, Note_on_c, 0, 69, 119
3, 23877, Note_on_c, 0, 69, 0
3, 23880, Note_on_c, 0, 71, 120
3, 23939, Note_on_c, 0, 71, 0
3, 23942, Note_on_c, 0, 69, 120
3, 23998, Note_on_c, 0, 81, 127
3, 24002, Note_on_c, 0, 69, 0
3, 24059, Note_on_c, 0, 69, 122
3, 24061, Note_on_c, 0, 81, 0
3, 24117, Note_on_c, 0, 69, 0
3, 24119, Note_on_c, 0, 71, 120
3, 24180, Note_on_c, 0, 71, 0
3, 24180, Note_on_c, 0, 69, 121
3, 24237, Note_on_c, 0, 69, 0
3, 24242, Note_on_c, 0, 76, 120
3, 24298, Note_on_c, 0, 69, 118
3, 24301, Note_on_c, 0, 76, 0
3, 24358, Note_on_c, 0, 69, 0
3, 24360, Note_on_c, 0, 71, 116
3, 24418, Note_on_c, 0, 71, 0
3, 24421, Note_on_c, 0, 69, 121
3, 24481, Note_on_c, 0, 79, 123
3, 24482, Note_on_c, 0, 69, 0
3, 24538, Note_on_c, 0, 79, 0
3, 24542, Note_on_c, 0, 69, 123
3, 24600, Note_on_c, 0, 71, 117
3, 24602, Note_on_c, 0, 69, 0
3, 24659, Note_on_c, 0, 69, 116
3, 24660, Note_on_c, 0, 71, 0
3, 24716, Note_on_c, 0, 69, 0
3, 24720, Note_on_c, 0, 76, 120
3, 24782, Note_on_c, 0, 76, 0
3, 24782, Note_on_c, 0, 69, 121
3, 24841, Note_on_c, 0, 71, 120
3, 24845, Note_on_c, 0, 69, 0
3, 24901, Note_on_c, 0, 71, 0
3, 24901, Note_on_c, 0, 69, 118
3, 24958, Note_on_c, 0, 79, 127
3, 24960, Note_on_c, 0, 69, 0
3, 25019, Note_on_c, 0, 69, 115
3, 25020, Note_on_c, 0, 79, 0
3, 25078, Note_on_c, 0, 69, 0
3, 25078, Note_on_c, 0, 71, 121
3, 25135, Note_on_c, 0, 71, 0
3, 25140, Note_on_c, 0, 69, 120
3, 25199, Note_on_c, 0, 76, 120
3, 25201, Note_on_c, 0, 69, 0
3, 25259, Note_on_c, 0, 69, 121
3, 25260, Note_on_c, 0, 76, 0
3, 25318, Note_on_c, 0, 71, 122
3, 25321, Note_on_c, 0, 69, 0
3, 25377, Note_on_c, 0, 71, 0
3, 25380, Note_on_c, 0, 69, 116
3, 25440, Note_on_c, 0, 77, 124
3, 25443, Note_on_c, 0, 69, 0
3, 25498, Note_on_c, 0, 69, 122
3, 25499, Note_on_c, 0, 77, 0
3, 25560, Note_on_c, 0, 69, 0
3, 25562, Note_on_c, 0, 71, 123
3, 25620, Note_on_c, 0, 71, 0
3, 25620, Note_on_c, 0, 69, 120
3, 25678, Note_on_c, 0, 69, 0
3, 25682, Note_on_c, 0, 74, 121
3, 25740, Note_on_c, 0, 69, 115
3, 25741, Note_on_c, 0, 74, 0
3, 25798, Note_on_c, 0, 71, 121
3, 25800, Note_on_c, 0, 69, 0
3, 25857, Note_on_c, 0, 71, 0
3, 25862, Note_on_c, 0, 69, 123
3, 25920, Note_on_c, 0, 69, 0
3, 25922, Note_on_c, 0, 77, 125
3, 25979, Note_on_c, 0, 69, 120
3, 25982, Note_on_c, 0, 77, 0
3, 26037, Note_on_c, 0, 69, 0
3, 26042, Note_on_c, 0, 71, 117
3, 26100, Note_on_c, 0, 69, 116
3, 26105, Note_on_c, 0, 71, 0
3, 26160, Note_on_c, 0, 69, 0
3, 26161, Note_on_c, 0, 74, 115
3, 26218, Note_on_c, 0, 74, 0
3, 26218, Note_on_c, 0, 69, 122
3, 26280, Note_on_c, 0, 71, 122
3, 26281, Note_on_c, 0, 69, 0
3, 26339, Note_on_c, 0, 71, 0
3, 26340, Note_on_c, 0, 69, 121
3, 26399, Note_on_c, 0, 69, 0
3, 26400, Note_on_c, 0, 77, 120
3, 26518, Note_on_c, 0, 77, 0
3, 26521, Note_on_c, 0, 81, 117
3, 26582, Note_on_c, 0, 79, 115
3, 26583, Note_on_c, 0, 81, 0
3, 26639, Note_on_c, 0, 77, 115
3, 26645, Note_on_c, 0, 79, 0
3, 26757, Note_on_c, 0, 77, 0
3, 26762, Note_on_c, 0, 77, 120
3, 26882, Note_on_c, 0, 86, 127
3, 26884, Note_on_c, 0, 77, 0
3, 27062, Note_on_c, 0, 84, 119
3, 27065, Note_on_c, 0, 86, 0
3, 27118, Note_on_c, 0, 83, 119
3, 27122, Note_on_c, 0, 84, 0
3, 27180, Note_on_c, 0, 81, 118
3, 27181, Note_on_c, 0, 83, 0
3, 27241, Note_on_c, 0, 81, 0
3, 27241, Note_on_c, 0, 79, 117
3, 27299, Note_on_c, 0, 79, 0
3, 27300, Note_on_c, 0, 77, 119
3, 27360, Note_on_c, 0, 76, 123
3, 27362, Note_on_c, 0, 77, 0
3, 27478, Note_on_c, 0, 76, 0
3, 27478, Note_on_c, 0, 72, 116
3, 27537, Note_on_c, 0, 72, 0
3, 27538, Note_on_c, 0, 74, 117
3, 27600, Note_on_c, 0, 74, 0
3, 27601, Note_on_c, 0, 76, 121
3, 27658, Note_on_c, 0, 77, 117
3, 27662, Note_on_c, 0, 76, 0
3, 27718, Note_on_c, 0, 79, 122
3, 27719, Note_on_c, 0, 77, 0
3, 27779, Note_on_c, 0, 81, 123
3, 27781, Note_on_c, 0, 79, 0
3, 27836, Note_on_c, 0, 81, 0
3, 27842, Note_on_c, 0, 74, 127
3, 27959, Note_on_c, 0, 71, 121
3, 27965, Note_on_c, 0, 74, 0
3, 28020, Note_on_c, 0, 71, 0
3, 28020, Note_on_c, 0, 72, 117
3, 28079, Note_on_c, 0, 74, 123
3, 28080, Note_on_c, 0, 72, 0
3, 28139, Note_on_c, 0, 74, 0
3, 28139, Note_on_c, 0, 76, 116
3, 28198, Note_on_c, 0, 76, 0
3, 28200, Note_on_c, 0, 77, 115
3, 28258, Note_on_c, 0, 79, 122
3, 28261, Note_on_c, 0, 77, 0
3, 28319, Note_on_c, 0, 79, 0
3, 28319, Note_on_c, 0, 72, 123
3, 28438, Note_on_c, 0, 72, 0
3, 28442, Note_on_c, 0, 69, 120
3, 28499, Note_on_c, 0, 69, 0
3, 28499, Note_on_c, 0, 71, 123
3, 28556, Note_on_c, 0, 71, 0
3, 28558, Note_on_c, 0, 72, 115
3, 28619, Note_on_c, 0, 72, 0
3, 28621, Note_on_c, 0, 74, 122
3, 28679, Note_on_c, 0, 74, 0
3, 28679, Note_on_c, 0, 76, 120
3, 28736, Note_on_c, 0, 76, 0
3, 28741, Note_on_c, 0, 77, 117
3, 28798, Note_on_c, 0, 77, 0
3, 28801, Note_on_c, 0, 71, 123
3, 28920, Note_on_c, 0, 71, 0
3, 28920, Note_on_c, 0, 67, 119
3, 28978, Note_on_c, 0, 67, 0
3, 28978, Note_on_c, 0, 69, 117
3, 29035, Note_on_c, 0, 69, 0
3, 29039, Note_on_c, 0, 71, 117
3, 29102, Note_on_c, 0, 71, 0
3, 29102, Note_on_c, 0, 72, 123
3, 29160, Note_on_c, 0, 72, 0
3, 29161, Note_on_c, 0, 74, 119
3, 29222, Note_on_c, 0, 76, 120
3, 29223, Note_on_c, 0, 74, 0
3, 29281, Note_on_c, 0, 72, 120
3, 29282, Note_on_c, 0, 76, 0
3, 29398, Note_on_c, 0, 72, 0
3, 29398, Note_on_c, 0, 69, 119
3, 29456, Note_on_c, 0, 69, 0
3, 29462, Note_on_c, 0, 71, 118
3, 29521, Note_on_c, 0, 72, 119
3, 29524, Note_on_c, 0, 71, 0
3, 29579, Note_on_c, 0, 74, 122
3, 29583, Note_on_c, 0, 72, 0
3, 29636, Note_on_c, 0, 74, 0
3, 29641, Note_on_c, 0, 76, 119
3, 29701, Note_on_c, 0, 77, 118
3, 29702, Note_on_c, 0, 76, 0
3, 29761, Note_on_c, 0, 74, 127
3, 29762, Note_on_c, 0, 77, 0
3, 29878, Note_on_c, 0, 74, 0
3, 29879, Note_on_c, 0, 71, 119
3, 29936, Note_on_c, 0, 71, 0
3, 29940, Note_on_c, 0, 72, 120
3, 30001, Note_on_c, 0, 74, 118
3, 30003, Note_on_c, 0, 72, 0
3, 30059, Note_on_c, 0, 76, 115
3, 30064, Note_on_c, 0, 74, 0
3, 30118, Note_on_c, 0, 76, 0
3, 30121, Note_on_c, 0, 77, 121
3, 30181, Note_on_c, 0, 77, 0
3, 30182, Note_on_c, 0, 79, 115
3, 30238, Note_on_c, 0, 76, 124
3, 30244, Note_on_c, 0, 79, 0
3, 30358, Note_on_c, 0, 72, 122
3, 30360, Note_on_c, 0, 76, 0
3, 30415, Note_on_c, 0, 72, 0
3, 30418, Note_on_c, 0, 74, 119
3, 30479, Note_on_c, 0, 74, 0
3, 30481, Note_on_c, 0, 76, 121
3, 30541, Note_on_c, 0, 76, 0
3, 30541, Note_on_c, 0, 77, 119
3, 30600, Note_on_c, 0, 77, 0
3, 30602, Note_on_c, 0, 79, 118
3, 30658, Note_on_c, 0, 81, 122
3, 30660, Note_on_c, 0, 79, 0
3, 30720, Note_on_c, 0, 81, 0
3, 30722, Note_on_c, 0, 75, 127
3, 30839, Note_on_c, 0, 75, 0
3, 30839, Note_on_c, 0, 71, 118
3, 30959, Note_on_c, 0, 71, 0
3, 31080, Note_on_c, 0, 76, 123
3, 31198, Note_on_c, 0, 76, 0
3, 31202, Note_on_c, 0, 76, 124
3, 31319, Note_on_c, 0, 79, 116
3, 31324, Note_on_c, 0, 76, 0
3, 31379, Note_on_c, 0, 78, 118
3, 31381, Note_on_c, 0, 79, 0
3, 31437, Note_on_c, 0, 78, 0
3, 31440, Note_on_c, 0, 76, 116
3, 31558, Note_on_c, 0, 76, 0
3, 31559, Note_on_c, 0, 76, 121
3, 31679, Note_on_c, 0, 81, 127
3, 31680, Note_on_c, 0, 76, 0
3, 31798, Note_on_c, 0, 81, 0
3, 31802, Note_on_c, 0, 79, 120
3, 31862, Note_on_c, 0, 78, 115
3, 31863, Note_on_c, 0, 79, 0
3, 31918, Note_on_c, 0, 76, 117
3, 31925, Note_on_c, 0, 78, 0
3, 32036, Note_on_c, 0, 76, 0
3, 32041, Note_on_c, 0, 76, 115
3, 32159, Note_on_c, 0, 83, 124
3, 32164, Note_on_c, 0, 76, 0
3, 32282, Note_on_c, 0, 83, 0
3, 32282, Note_on_c, 0, 79, 116
3, 32338, Note_on_c, 0, 78, 122
3, 32343, Note_on_c, 0, 79, 0
3, 32395, Note_on_c, 0, 78, 0
3, 32399, Note_on_c, 0, 76, 122
3, 32517, Note_on_c, 0, 76, 0
3, 32520, Note_on_c, 0, 76, 120
3, 32642, Note_on_c, 0, 76, 0
3, 32642, Note_on_c, 0, 84, 127
3, 32759, Note_on_c, 0, 75, 122
3, 32761, Note_on_c, 0, 84, 0
3, 32879, Note_on_c, 0, 76, 115
3, 32881, Note_on_c, 0, 75, 0
3, 32999, Note_on_c, 0, 76, 0
3, 33001, Note_on_c, 0, 67, 116
3, 33119, Note_on_c, 0, 69, 125
3, 33120, Note_on_c, 0, 67, 0
3, 33236, Note_on_c, 0, 69, 0
3, 33242, Note_on_c, 0, 76, 120
3, 33361, Note_on_c, 0, 59, 116
3, 33362, Note_on_c, 0, 76, 0
3, 33453, Note_on_c, 0, 59, 0
3, 33481, Note_on_c, 0, 75, 115
3, 33600, Note_on_c, 0, 76, 124
3, 33601, Note_on_c, 0, 75, 0
3, 33843, Note_on_c, 0, 76, 0
3, 33962, Note_on_c, 0, 71, 120
3, 34079, Note_on_c, 0, 76, 122
3, 34081, Note_on_c, 0, 71, 0
3, 34197, Note_on_c, 0, 76, 0
3, 34200, Note_on_c, 0, 76, 117
3, 34318, Note_on_c, 0, 76, 0
3, 34319, Note_on_c, 0, 76, 118
3, 34438, Note_on_c, 0, 76, 0
3, 34442, Note_on_c, 0, 76, 120
3, 34559, Note_on_c, 0, 76, 0
3, 34561, Note_on_c, 0, 76, 127
3, 34681, Note_on_c, 0, 76, 0
3, 34682, Note_on_c, 0, 79, 122
3, 34741, Note_on_c, 0, 78, 119
3, 34745, Note_on_c, 0, 79, 0
3, 34798, Note_on_c, 0, 76, 120
3, 34804, Note_on_c, 0, 78, 0
3, 34916, Note_on_c, 0, 76, 0
3, 34922, Note_on_c, 0, 79, 122
3, 34979, Note_on_c, 0, 78, 123
3, 34980, Note_on_c, 0, 79, 0
3, 35038, Note_on_c, 0, 78, 0
3, 35038, Note_on_c, 0, 76, 120
3, 35161, Note_on_c, 0, 76, 0
3, 35162, Note_on_c, 0, 79, 120
3, 35219, Note_on_c, 0, 79, 0
3, 35219, Note_on_c, 0, 78, 118
3, 35281, Note_on_c, 0, 76, 117
3, 35282, Note_on_c, 0, 78, 0
3, 35398, Note_on_c, 0, 74, 116
3, 35399, Note_on_c, 0, 76, 0
3, 35459, Note_on_c, 0, 72, 122
3, 35461, Note_on_c, 0, 74, 0
3, 35519, Note_on_c, 0, 72, 0
3, 35520, Note_on_c, 0, 71, 123
3, 35638, Note_on_c, 0, 71, 0
3, 35640, Note_on_c, 0, 69, 118
3, 35702, Note_on_c, 0, 67, 120
3, 35703, Note_on_c, 0, 69, 0
3, 35762, Note_on_c, 0, 67, 0
3, 35762, Note_on_c, 0, 66, 117
3, 35878, Note_on_c, 0, 71, 119
3, 35884, Note_on_c, 0, 66, 0
3, 35995, Note_on_c, 0, 71, 0
3, 36000, Note_on_c, 0, 67, 121
3, 36120, Note_on_c, 0, 67, 0
3, 36121, Note_on_c, 0, 64, 117
3, 36239, Note_on_c, 0, 64, 0
3, 36242, Note_on_c, 0, 64, 115
3, 36360, Note_on_c, 0, 71, 122
3, 36361, Note_on_c, 0, 64, 0
3, 36479, Note_on_c, 0, 76, 124
3, 36481, Note_on_c, 0, 71, 0
3, 36597, Note_on_c, 0, 76, 0
3, 36601, Note_on_c, 0, 76, 117
3, 36719, Note_on_c, 0, 76, 0
3, 36721, Note_on_c, 0, 76, 122
3, 36839, Note_on_c, 0, 76, 0
3, 36840, Note_on_c, 0, 76, 123
3, 36958, Note_on_c, 0, 76, 0
3, 36959, Note_on_c, 0, 76, 126
3, 37018, Note_on_c, 0, 74, 121
3, 37022, Note_on_c, 0, 76, 0
3, 37080, Note_on_c, 0, 72, 120
3, 37081, Note_on_c, 0, 74, 0
3, 37140, Note_on_c, 0, 71, 118
3, 37142, Note_on_c, 0, 72, 0
3, 37198, Note_on_c, 0, 71, 0
3, 37199, Note_on_c, 0, 72, 122
3, 37320, Note_on_c, 0, 72, 0
3, 37322, Note_on_c, 0, 69, 117
3, 37440, Note_on_c, 0, 74, 127
3, 37445, Note_on_c, 0, 69, 0
3, 37556, Note_on_c, 0, 74, 0
3, 37558, Note_on_c, 0, 74, 117
3, 37676, Note_on_c, 0, 74, 0
3, 37681, Note_on_c, 0, 74, 117
3, 37798, Note_on_c, 0, 74, 0
3, 37800, Note_on_c, 0, 74, 119
3, 37918, Note_on_c, 0, 74, 0
3, 37920, Note_on_c, 0, 74, 127
3, 37978, Note_on_c, 0, 74, 0
3, 37978, Note_on_c, 0, 72, 115
3, 38039, Note_on_c, 0, 72, 0
3, 38042, Note_on_c, 0, 71, 115
3, 38101, Note_on_c, 0, 71, 0
3, 38102, Note_on_c, 0, 69, 119
3, 38158, Note_on_c, 0, 71, 118
3, 38165, Note_on_c, 0, 69, 0
3, 38278, Note_on_c, 0, 71, 0
3, 38278, Note_on_c, 0, 67, 115
3, 38399, Note_on_c, 0, 67, 0
3, 38400, Note_on_c, 0, 72, 125
3, 38518, Note_on_c, 0, 72, 0
3, 38522, Note_on_c, 0, 72, 123
3, 38636, Note_on_c, 0, 72, 0
3, 38638, Note_on_c, 0, 72, 117
3, 38756, Note_on_c, 0, 72, 0
3, 38760, Note_on_c, 0, 72, 116
3, 38879, Note_on_c, 0, 72, 0
3, 38880, Note_on_c, 0, 72, 120
3, 38938, Note_on_c, 0, 71, 123
3, 38943, Note_on_c, 0, 72, 0
3, 39001, Note_on_c, 0, 71, 0
3, 39001, Note_on_c, 0, 69, 115
3, 39058, Note_on_c, 0, 69, 0
3, 39061, Note_on_c, 0, 67, 115
3, 39120, Note_on_c, 0, 69, 115
3, 39123, Note_on_c, 0, 67, 0
3, 39238, Note_on_c, 0, 69, 0
3, 39242, Note_on_c, 0, 66, 118
3, 39359, Note_on_c, 0, 71, 127
3, 39362, Note_on_c, 0, 66, 0
3, 39477, Note_on_c, 0, 71, 0
3, 39479, Note_on_c, 0, 71, 118
3, 39597, Note_on_c, 0, 71, 0
3, 39598, Note_on_c, 0, 71, 118
3, 39716, Note_on_c, 0, 71, 0
3, 39722, Note_on_c, 0, 71, 123
3, 39838, Note_on_c, 0, 71, 0
3, 39840, Note_on_c, 0, 71, 126
3, 39900, Note_on_c, 0, 69, 119
3, 39902, Note_on_c, 0, 71, 0
3, 39960, Note_on_c, 0, 67, 122
3, 39963, Note_on_c, 0, 69, 0
3, 40020, Note_on_c, 0, 66, 121
3, 40021, Note_on_c, 0, 67, 0
3, 40079, Note_on_c, 0, 67, 118
3, 40083, Note_on_c, 0, 66, 0
3, 40199, Note_on_c, 0, 64, 117
3, 40202, Note_on_c, 0, 67, 0
3, 40321, Note_on_c, 0, 81, 123
3, 40322, Note_on_c, 0, 64, 0
3, 40438, Note_on_c, 0, 81, 0
3, 40439, Note_on_c, 0, 78, 119
3, 40496, Note_on_c, 0, 78, 0
3, 40499, Note_on_c, 0, 79, 123
3, 40560, Note_on_c, 0, 81, 118
3, 40562, Note_on_c, 0, 79, 0
3, 40676, Note_on_c, 0, 81, 0
3, 40678, Note_on_c, 0, 81, 117
3, 40796, Note_on_c, 0, 81, 0
3, 40800, Note_on_c, 0, 81, 124
3, 40918, Note_on_c, 0, 78, 117
3, 40922, Note_on_c, 0, 81, 0
3, 40978, Note_on_c, 0, 78, 0
3, 40980, Note_on_c, 0, 79, 121
3, 41040, Note_on_c, 0, 79, 0
3, 41040, Note_on_c, 0, 81, 123
3, 41158, Note_on_c, 0, 81, 0
3, 41159, Note_on_c, 0, 81, 118
3, 41277, Note_on_c, 0, 81, 0
3, 41280, Note_on_c, 0, 81, 127
3, 41402, Note_on_c, 0, 78, 115
3, 41403, Note_on_c, 0, 81, 0
3, 41458, Note_on_c, 0, 79, 123
3, 41460, Note_on_c, 0, 78, 0
3, 41520, Note_on_c, 0, 79, 0
3, 41521, Note_on_c, 0, 81, 120
3, 41641, Note_on_c, 0, 83, 122
3, 41644, Note_on_c, 0, 81, 0
3, 41760, Note_on_c, 0, 83, 0
3, 41761, Note_on_c, 0, 79, 124
3, 42121, Note_on_c, 0, 79, 0
3, 42122, Note_on_c, 0, 78, 116
3, 42181, Note_on_c, 0, 76, 117
3, 42184, Note_on_c, 0, 78, 0
3, 42238, Note_on_c, 0, 83, 126
3, 42243, Note_on_c, 0, 76, 0
3, 42360, Note_on_c, 0, 83, 0
3, 42362, Note_on_c, 0, 81, 115
3, 42422, Note_on_c, 0, 79, 118
3, 42425, Note_on_c, 0, 81, 0
3, 42479, Note_on_c, 0, 79, 0
3, 42481, Note_on_c, 0, 78, 115
3, 42538, Note_on_c, 0, 78, 0
3, 42540, Note_on_c, 0, 76, 120
3, 42597, Note_on_c, 0, 76, 0
3, 42600, Note_on_c, 0, 75, 122
3, 42657, Note_on_c, 0, 75, 0
3, 42662, Note_on_c, 0, 78, 115
3, 42719, Note_on_c, 0, 78, 0
3, 42721, Note_on_c, 0, 76, 126
3, 42839, Note_on_c, 0, 64, 120
3, 42844, Note_on_c, 0, 76, 0
3, 42944, Note_on_c, 0, 64, 0
3, 43080, Note_on_c, 0, 76, 121
3, 43199, Note_on_c, 0, 83, 127
3, 43202, Note_on_c, 0, 76, 0
3, 43319, Note_on_c, 0, 83, 0
3, 43321, Note_on_c, 0, 81, 119
3, 43378, Note_on_c, 0, 81, 0
3, 43380, Note_on_c, 0, 79, 121
3, 43438, Note_on_c, 0, 79, 0
3, 43440, Note_on_c, 0, 78, 116
3, 43500, Note_on_c, 0, 76, 121
3, 43502, Note_on_c, 0, 78, 0
3, 43561, Note_on_c, 0, 75, 121
3, 43563, Note_on_c, 0, 76, 0
3, 43619, Note_on_c, 0, 78, 121
3, 43621, Note_on_c, 0, 75, 0
3, 43679, Note_on_c, 0, 78, 0
3, 43680, Note_on_c, 0, 76, 119
3, 43798, Note_on_c, 0, 76, 0
3, 43800, Note_on_c, 0, 64, 122
3, 43905, Note_on_c, 0, 64, 0
3, 44038, Note_on_c, 0, 83, 120
3, 44097, Note_on_c, 0, 83, 0
3, 44101, Note_on_c, 0, 84, 121
3, 44159, Note_on_c, 0, 84, 0
3, 44159, Note_on_c, 0, 86, 123
3, 44277, Note_on_c, 0, 86, 0
3, 44280, Note_on_c, 0, 86, 119
3, 44398, Note_on_c, 0, 86, 0
3, 44401, Note_on_c, 0, 86, 123
3, 44518, Note_on_c, 0, 86, 0
3, 44519, Note_on_c, 0, 86, 115
3, 44641, Note_on_c, 0, 86, 0
3, 44642, Note_on_c, 0, 76, 121
3, 44760, Note_on_c, 0, 83, 116
3, 44761, Note_on_c, 0, 76, 0
3, 44820, Note_on_c, 0, 83, 0
3, 44820, Note_on_c, 0, 84, 123
3, 44879, Note_on_c, 0, 84, 0
3, 44882, Note_on_c, 0, 86, 120
3, 45000, Note_on_c, 0, 86, 0
3, 45001, Note_on_c, 0, 86, 117
3, 45121, Note_on_c, 0, 76, 127
3, 45122, Note_on_c, 0, 86, 0
3, 45239, Note_on_c, 0, 76, 0
3, 45239, Note_on_c, 0, 83, 118
3, 45298, Note_on_c, 0, 84, 121
3, 45302, Note_on_c, 0, 83, 0
3, 45358, Note_on_c, 0, 86, 116
3, 45360, Note_on_c, 0, 84, 0
3, 45480, Note_on_c, 0, 86, 0
3, 45480, Note_on_c, 0, 84, 116
3, 45538, Note_on_c, 0, 84, 0
3, 45542, Note_on_c, 0, 83, 117
3, 45600, Note_on_c, 0, 83, 0
3, 45602, Note_on_c, 0, 84, 123
3, 45719, Note_on_c, 0, 69, 123
3, 45723, Note_on_c, 0, 84, 0
3, 45824, Note_on_c, 0, 69, 0
3, 45842, Note_on_c, 0, 69, 115
3, 45947, Note_on_c, 0, 69, 0
3, 45959, Note_on_c, 0, 81, 123
3, 46018, Note_on_c, 0, 81, 0
3, 46019, Note_on_c, 0, 83, 118
3, 46079, Note_on_c, 0, 84, 123
3, 46082, Note_on_c, 0, 83, 0
3, 46197, Note_on_c, 0, 84, 0
3, 46199, Note_on_c, 0, 84, 122
3, 46317, Note_on_c, 0, 84, 0
3, 46319, Note_on_c, 0, 84, 116
3, 46437, Note_on_c, 0, 84, 0
3, 46439, Note_on_c, 0, 84, 123
3, 46558, Note_on_c, 0, 84, 0
3, 46559, Note_on_c, 0, 62, 125
3, 46651, Note_on_c, 0, 62, 0
3, 46682, Note_on_c, 0, 81, 122
3, 46742, Note_on_c, 0, 83, 116
3, 46743, Note_on_c, 0, 81, 0
3, 46802, Note_on_c, 0, 84, 119
3, 46804, Note_on_c, 0, 83, 0
3, 46921, Note_on_c, 0, 84, 0
3, 46922, Note_on_c, 0, 84, 115
3, 47040, Note_on_c, 0, 62, 127
3, 47044, Note_on_c, 0, 84, 0
3, 47132, Note_on_c, 0, 62, 0
3, 47162, Note_on_c, 0, 81, 116
3, 47218, Note_on_c, 0, 83, 118
3, 47221, Note_on_c, 0, 81, 0
3, 47278, Note_on_c, 0, 84, 117
3, 47281, Note_on_c, 0, 83, 0
3, 47399, Note_on_c, 0, 84, 0
3, 47401, Note_on_c, 0, 83, 123
3, 47458, Note_on_c, 0, 83, 0
3, 47459, Note_on_c, 0, 81, 115
3, 47518, Note_on_c, 0, 83, 121
3, 47519, Note_on_c, 0, 81, 0
3, 47635, Note_on_c, 0, 83, 0
3, 47642, Note_on_c, 0, 55, 122
3, 47757, Note_on_c, 0, 55, 0
3, 47758, Note_on_c, 0, 55, 123
3, 47875, Note_on_c, 0, 55, 0
3, 47880, Note_on_c, 0, 79, 116
3, 47941, Note_on_c, 0, 81, 120
3, 47942, Note_on_c, 0, 79, 0
3, 47999, Note_on_c, 0, 82, 127
3, 48001, Note_on_c, 0, 81, 0
3, 48117, Note_on_c, 0, 82, 0
3, 48118, Note_on_c, 0, 82, 123
3, 48236, Note_on_c, 0, 82, 0
3, 48240, Note_on_c, 0, 82, 116
3, 48359, Note_on_c, 0, 82, 0
3, 48361, Note_on_c, 0, 82, 122
3, 48478, Note_on_c, 0, 82, 0
3, 48478, Note_on_c, 0, 76, 124
3, 48595, Note_on_c, 0, 76, 0
3, 48602, Note_on_c, 0, 79, 120
3, 48659, Note_on_c, 0, 79, 0
3, 48662, Note_on_c, 0, 81, 123
3, 48718, Note_on_c, 0, 82, 119
3, 48723, Note_on_c, 0, 81, 0
3, 48836, Note_on_c, 0, 82, 0
3, 48842, Note_on_c, 0, 82, 123
3, 48959, Note_on_c, 0, 73, 127
3, 48960, Note_on_c, 0, 82, 0
3, 49020, Note_on_c, 0, 76, 116
3, 49021, Note_on_c, 0, 73, 0
3, 49080, Note_on_c, 0, 76, 0
3, 49080, Note_on_c, 0, 77, 120
3, 49137, Note_on_c, 0, 77, 0
3, 49140, Note_on_c, 0, 79, 120
3, 49197, Note_on_c, 0, 79, 0
3, 49199, Note_on_c, 0, 81, 118
3, 49258, Note_on_c, 0, 79, 123
3, 49260, Note_on_c, 0, 81, 0
3, 49316, Note_on_c, 0, 79, 0
3, 49319, Note_on_c, 0, 77, 119
3, 49380, Note_on_c, 0, 76, 120
3, 49382, Note_on_c, 0, 77, 0
3, 49441, Note_on_c, 0, 77, 123
3, 49443, Note_on_c, 0, 76, 0
3, 49560, Note_on_c, 0, 74, 117
3, 49564, Note_on_c, 0, 77, 0
3, 49677, Note_on_c, 0, 74, 0
3, 49681, Note_on_c, 0, 62, 118
3, 49788, Note_on_c, 0, 62, 0
3, 49798, Note_on_c, 0, 74, 118
3, 49860, Note_on_c, 0, 74, 0
3, 49861, Note_on_c, 0, 76, 115
3, 49919, Note_on_c, 0, 76, 0
3, 49920, Note_on_c, 0, 77, 127
3, 49977, Note_on_c, 0, 77, 0
3, 49982, Note_on_c, 0, 74, 116
3, 50038, Note_on_c, 0, 72, 115
3, 50045, Note_on_c, 0, 74, 0
3, 50100, Note_on_c, 0, 72, 0
3, 50102, Note_on_c, 0, 71, 118
3, 50162, Note_on_c, 0, 71, 0
3, 50162, Note_on_c, 0, 79, 120
3, 50219, Note_on_c, 0, 77, 115
3, 50221, Note_on_c, 0, 79, 0
3, 50278, Note_on_c, 0, 77, 0
3, 50282, Note_on_c, 0, 76, 116
3, 50340, Note_on_c, 0, 74, 116
3, 50343, Note_on_c, 0, 76, 0
3, 50399, Note_on_c, 0, 76, 124
3, 50402, Note_on_c, 0, 74, 0
3, 50518, Note_on_c, 0, 76, 0
3, 50518, Note_on_c, 0, 72, 119
3, 50639, Note_on_c, 0, 72, 0
3, 50642, Note_on_c, 0, 60, 120
3, 50742, Note_on_c, 0, 60, 0
3, 50760, Note_on_c, 0, 72, 121
3, 50820, Note_on_c, 0, 72, 0
3, 50820, Note_on_c, 0, 74, 118
3, 50879, Note_on_c, 0, 74, 0
3, 50881, Note_on_c, 0, 76, 127
3, 50940, Note_on_c, 0, 76, 0
3, 50941, Note_on_c, 0, 72, 118
3, 50999, Note_on_c, 0, 71, 122
3, 51000, Note_on_c, 0, 72, 0
3, 51059, Note_on_c, 0, 71, 0
3, 51060, Note_on_c, 0, 69, 120
3, 51118, Note_on_c, 0, 69, 0
3, 51122, Note_on_c, 0, 77, 116
3, 51181, Note_on_c, 0, 77, 0
3, 51181, Note_on_c, 0, 76, 123
3, 51239, Note_on_c, 0, 76, 0
3, 51242, Note_on_c, 0, 74, 122
3, 51300, Note_on_c, 0, 72, 118
3, 51301, Note_on_c, 0, 74, 0
3, 51357, Note_on_c, 0, 72, 0
3, 51359, Note_on_c, 0, 74, 127
3, 51481, Note_on_c, 0, 74, 0
3, 51482, Note_on_c, 0, 71, 116
3, 51600, Note_on_c, 0, 71, 0
3, 51602, Note_on_c, 0, 59, 123
3, 51702, Note_on_c, 0, 59, 0
3, 51722, Note_on_c, 0, 71, 120
3, 51779, Note_on_c, 0, 71, 0
3, 51782, Note_on_c, 0, 72, 118
3, 51839, Note_on_c, 0, 74, 127
3, 51844, Note_on_c, 0, 72, 0
3, 51899, Note_on_c, 0, 71, 121
3, 51901, Note_on_c, 0, 74, 0
3, 51960, Note_on_c, 0, 71, 0
3, 51960, Note_on_c, 0, 69, 115
3, 52021, Note_on_c, 0, 68, 117
3, 52023, Note_on_c, 0, 69, 0
3, 52078, Note_on_c, 0, 76, 117
3, 52083, Note_on_c, 0, 68, 0
3, 52138, Note_on_c, 0, 74, 118
3, 52140, Note_on_c, 0, 76, 0
3, 52195, Note_on_c, 0, 74, 0
3, 52199, Note_on_c, 0, 72, 123
3, 52261, Note_on_c, 0, 71, 121
3, 52262, Note_on_c, 0, 72, 0
3, 52320, Note_on_c, 0, 72, 125
3, 52323, Note_on_c, 0, 71, 0
3, 52439, Note_on_c, 0, 72, 0
3, 52442, Note_on_c, 0, 69, 123
3, 52559, Note_on_c, 0, 69, 0
3, 52560, Note_on_c, 0, 57, 118
3, 52660, Note_on_c, 0, 57, 0
3, 52679, Note_on_c, 0, 72, 118
3, 52740, Note_on_c, 0, 72, 0
3, 52742, Note_on_c, 0, 74, 123
3, 52800, Note_on_c, 0, 76, 125
3, 52803, Note_on_c, 0, 74, 0
3, 52921, Note_on_c, 0, 78, 118
3, 52923, Note_on_c, 0, 76, 0
3, 52981, Note_on_c, 0, 80, 120
3, 52984, Note_on_c, 0, 78, 0
3, 53039, Note_on_c, 0, 81, 118
3, 53040, Note_on_c, 0, 80, 0
3, 53161, Note_on_c, 0, 79, 121
3, 53162, Note_on_c, 0, 81, 0
3, 53222, Note_on_c, 0, 77, 121
3, 53223, Note_on_c, 0, 79, 0
3, 53279, Note_on_c, 0, 77, 0
3, 53280, Note_on_c, 0, 76, 125
3, 53400, Note_on_c, 0, 57, 121
3, 53401, Note_on_c, 0, 76, 0
3, 53499, Note_on_c, 0, 57, 0
3, 53520, Note_on_c, 0, 57, 116
3, 53620, Note_on_c, 0, 57, 0
3, 53641, Note_on_c, 0, 72, 116
3, 53698, Note_on_c, 0, 72, 0
3, 53698, Note_on_c, 0, 74, 117
3, 53755, Note_on_c, 0, 74, 0
3, 53761, Note_on_c, 0, 76, 127
3, 53880, Note_on_c, 0, 76, 0
3, 53881, Note_on_c, 0, 78, 123
3, 53938, Note_on_c, 0, 80, 118
3, 53943, Note_on_c, 0, 78, 0
3, 53995, Note_on_c, 0, 80, 0
3, 54002, Note_on_c, 0, 81, 119
3, 54121, Note_on_c, 0, 79, 115
3, 54125, Note_on_c, 0, 81, 0
3, 54179, Note_on_c, 0, 79, 0
3, 54181, Note_on_c, 0, 77, 123
3, 54238, Note_on_c, 0, 77, 0
3, 54239, Note_on_c, 0, 76, 120
3, 54358, Note_on_c, 0, 76, 0
3, 54358, Note_on_c, 0, 57, 119
3, 54458, Note_on_c, 0, 57, 0
3, 54482, Note_on_c, 0, 57, 120
3, 54582, Note_on_c, 0, 57, 0
3, 54602, Note_on_c, 0, 72, 118
3, 54658, Note_on_c, 0, 74, 121
3, 54665, Note_on_c, 0, 72, 0
3, 54715, Note_on_c, 0, 74, 0
3, 54720, Note_on_c, 0, 76, 123
3, 54838, Note_on_c, 0, 74, 115
3, 54839, Note_on_c, 0, 76, 0
3, 54896, Note_on_c, 0, 74, 0
3, 54899, Note_on_c, 0, 72, 115
3, 54958, Note_on_c, 0, 71, 115
3, 54960, Note_on_c, 0, 72, 0
3, 55019, Note_on_c, 0, 69, 118
3, 55020, Note_on_c, 0, 71, 0
3, 55078, Note_on_c, 0, 68, 117
3, 55082, Note_on_c, 0, 69, 0
3, 55140, Note_on_c, 0, 68, 0
3, 55141, Note_on_c, 0, 71, 121
3, 55198, Note_on_c, 0, 69, 120
3, 55201, Note_on_c, 0, 71, 0
3, 55318, Note_on_c, 0, 69, 0
3, 55321, Note_on_c, 0, 57, 118
3, 55421, Note_on_c, 0, 57, 0
3, 55438, Note_on_c, 0, 57, 115
3, 55536, Note_on_c, 0, 57, 0
3, 55558, Note_on_c, 0, 76, 121
3, 55676, Note_on_c, 0, 76, 0
3, 55678, Note_on_c, 0, 81, 127
3, 55796, Note_on_c, 0, 81, 0
3, 55801, Note_on_c, 0, 81, 116
3, 55919, Note_on_c, 0, 81, 0
3, 55921, Note_on_c, 0, 81, 121
3, 56039, Note_on_c, 0, 81, 0
3, 56041, Note_on_c, 0, 81, 120
3, 56160, Note_on_c, 0, 81, 0
3, 56162, Note_on_c, 0, 81, 124
3, 56280, Note_on_c, 0, 81, 0
3, 56280, Note_on_c, 0, 84, 119
3, 56341, Note_on_c, 0, 83, 115
3, 56343, Note_on_c, 0, 84, 0
3, 56400, Note_on_c, 0, 83, 0
3, 56401, Note_on_c, 0, 81, 119
3, 56520, Note_on_c, 0, 84, 115
3, 56522, Note_on_c, 0, 81, 0
3, 56578, Note_on_c, 0, 83, 123
3, 56579, Note_on_c, 0, 84, 0
3, 56636, Note_on_c, 0, 83, 0
3, 56642, Note_on_c, 0, 81, 127
3, 56761, Note_on_c, 0, 84, 123
3, 56762, Note_on_c, 0, 81, 0
3, 56818, Note_on_c, 0, 84, 0
3, 56821, Note_on_c, 0, 83, 121
3, 56880, Note_on_c, 0, 83, 0
3, 56881, Note_on_c, 0, 81, 119
3, 56999, Note_on_c, 0, 81, 0
3, 57001, Note_on_c, 0, 79, 121
3, 57061, Note_on_c, 0, 79, 0
3, 57062, Note_on_c, 0, 77, 121
3, 57118, Note_on_c, 0, 76, 122
3, 57124, Note_on_c, 0, 77, 0
3, 57238, Note_on_c, 0, 76, 0
3, 57242, Note_on_c, 0, 74, 118
3, 57299, Note_on_c, 0, 74, 0
3, 57302, Note_on_c, 0, 72, 115
3, 57358, Note_on_c, 0, 71, 122
3, 57362, Note_on_c, 0, 72, 0
3, 57477, Note_on_c, 0, 71, 0
3, 57479, Note_on_c, 0, 80, 116
3, 57598, Note_on_c, 0, 80, 0
3, 57602, Note_on_c, 0, 81, 123
3, 57660, Note_on_c, 0, 72, 117
3, 57665, Note_on_c, 0, 81, 0
3, 57719, Note_on_c, 0, 72, 0
3, 57721, Note_on_c, 0, 71, 122
3, 57779, Note_on_c, 0, 71, 0
3, 57782, Note_on_c, 0, 69, 116
3, 57839, Note_on_c, 0, 76, 117
3, 57840, Note_on_c, 0, 69, 0
3, 57898, Note_on_c, 0, 72, 119
3, 57902, Note_on_c, 0, 76, 0
3, 57955, Note_on_c, 0, 72, 0
3, 57961, Note_on_c, 0, 71, 115
3, 58020, Note_on_c, 0, 71, 0
3, 58021, Note_on_c, 0, 69, 118
3, 58078, Note_on_c, 0, 81, 123
3, 58080, Note_on_c, 0, 69, 0
3, 58137, Note_on_c, 0, 81, 0
3, 58140, Note_on_c, 0, 72, 120
3, 58197, Note_on_c, 0, 72, 0
3, 58202, Note_on_c, 0, 71, 121
3, 58262, Note_on_c, 0, 69, 118
3, 58264, Note_on_c, 0, 71, 0
3, 58318, Note_on_c, 0, 76, 118
3, 58322, Note_on_c, 0, 69, 0
3, 58379, Note_on_c, 0, 72, 122
3, 58380, Note_on_c, 0, 76, 0
3, 58441, Note_on_c, 0, 72, 0
3, 58441, Note_on_c, 0, 71, 123
3, 58498, Note_on_c, 0, 69, 120
3, 58503, Note_on_c, 0, 71, 0
3, 58556, Note_on_c, 0, 69, 0
3, 58559, Note_on_c, 0, 81, 127
3, 58618, Note_on_c, 0, 81, 0
3, 58619, Note_on_c, 0, 73, 115
3, 58678, Note_on_c, 0, 71, 120
3, 58679, Note_on_c, 0, 73, 0
3, 58736, Note_on_c, 0, 71, 0
3, 58739, Note_on_c, 0, 69, 122
3, 58798, Note_on_c, 0, 76, 118
3, 58800, Note_on_c, 0, 69, 0
3, 58859, Note_on_c, 0, 73, 117
3, 58860, Note_on_c, 0, 76, 0
3, 58920, Note_on_c, 0, 73, 0
3, 58921, Note_on_c, 0, 71, 117
3, 58979, Note_on_c, 0, 71, 0
3, 58981, Note_on_c, 0, 69, 115
3, 59039, Note_on_c, 0, 69, 0
3, 59041, Note_on_c, 0, 81, 124
3, 59101, Note_on_c, 0, 81, 0
3, 59102, Note_on_c, 0, 73, 118
3, 59162, Note_on_c, 0, 71, 115
3, 59165, Note_on_c, 0, 73, 0
3, 59222, Note_on_c, 0, 69, 115
3, 59224, Note_on_c, 0, 71, 0
3, 59280, Note_on_c, 0, 69, 0
3, 59281, Note_on_c, 0, 81, 119
3, 59338, Note_on_c, 0, 81, 0
3, 59338, Note_on_c, 0, 79, 122
3, 59397, Note_on_c, 0, 79, 0
3, 59402, Note_on_c, 0, 78, 123
3, 59461, Note_on_c, 0, 76, 118
3, 59462, Note_on_c, 0, 78, 0
3, 59521, Note_on_c, 0, 78, 127
3, 59522, Note_on_c, 0, 76, 0
3, 59580, Note_on_c, 0, 78, 0
3, 59581, Note_on_c, 0, 66, 120
3, 59639, Note_on_c, 0, 66, 0
3, 59639, Note_on_c, 0, 64, 122
3, 59700, Note_on_c, 0, 64, 0
3, 59700, Note_on_c, 0, 62, 122
3, 59759, Note_on_c, 0, 62, 0
3, 59761, Note_on_c, 0, 69, 120
3, 59819, Note_on_c, 0, 66, 120
3, 59820, Note_on_c, 0, 69, 0
3, 59878, Note_on_c, 0, 66, 0
3, 59879, Note_on_c, 0, 64, 115
3, 59941, Note_on_c, 0, 62, 122
3, 59942, Note_on_c, 0, 64, 0
3, 60002, Note_on_c, 0, 74, 123
3, 60004, Note_on_c, 0, 62, 0
3, 60059, Note_on_c, 0, 66, 120
3, 60062, Note_on_c, 0, 74, 0
3, 60121, Note_on_c, 0, 66, 0
3, 60121, Note_on_c, 0, 64, 120
3, 60182, Note_on_c, 0, 62, 120
3, 60183, Note_on_c, 0, 64, 0
3, 60240, Note_on_c, 0, 69, 122
3, 60241, Note_on_c, 0, 62, 0
3, 60301, Note_on_c, 0, 69, 0
3, 60301, Note_on_c, 0, 66, 121
3, 60361, Note_on_c, 0, 64, 118
3, 60362, Note_on_c, 0, 66, 0
3, 60420, Note_on_c, 0, 64, 0
3, 60421, Note_on_c, 0, 62, 115
3, 60479, Note_on_c, 0, 62, 0
3, 60481, Note_on_c, 0, 74, 125
3, 60538, Note_on_c, 0, 66, 118
3, 60543, Note_on_c, 0, 74, 0
3, 60598, Note_on_c, 0, 66, 0
3, 60598, Note_on_c, 0, 64, 117
3, 60656, Note_on_c, 0, 64, 0
3, 60658, Note_on_c, 0, 62, 121
3, 60717, Note_on_c, 0, 62, 0
3, 60721, Note_on_c, 0, 74, 118
3, 60780, Note_on_c, 0, 74, 0
3, 60780, Note_on_c, 0, 72, 122
3, 60838, Note_on_c, 0, 72, 0
3, 60838, Note_on_c, 0, 71, 116
3, 60900, Note_on_c, 0, 69, 121
3, 60901, Note_on_c, 0, 71, 0
3, 60957, Note_on_c, 0, 69, 0
3, 60960, Note_on_c, 0, 71, 124
3, 61021, Note_on_c, 0, 59, 123
3, 61023, Note_on_c, 0, 71, 0
3, 61078, Note_on_c, 0, 57, 116
3, 61082, Note_on_c, 0, 59, 0
3, 61140, Note_on_c, 0, 55, 119
3, 61141, Note_on_c, 0, 57, 0
3, 61197, Note_on_c, 0, 55, 0
3, 61201, Note_on_c, 0, 62, 123
3, 61258, Note_on_c, 0, 59, 122
3, 61261, Note_on_c, 0, 62, 0
3, 61318, Note_on_c, 0, 59, 0
3, 61321, Note_on_c, 0, 57, 123
3, 61381, Note_on_c, 0, 57, 0
3, 61381, Note_on_c, 0, 55, 116
3, 61439, Note_on_c, 0, 55, 0
3, 61441, Note_on_c, 0, 67, 127
3, 61502, Note_on_c, 0, 59, 122
3, 61503, Note_on_c, 0, 67, 0
3, 61559, Note_on_c, 0, 59, 0
3, 61559, Note_on_c, 0, 57, 123
3, 61620, Note_on_c, 0, 55, 122
3, 61622, Note_on_c, 0, 57, 0
3, 61679, Note_on_c, 0, 55, 0
3, 61679, Note_on_c, 0, 62, 123
3, 61739, Note_on_c, 0, 59, 120
3, 61741, Note_on_c, 0, 62, 0
3, 61800, Note_on_c, 0, 59, 0
3, 61802, Note_on_c, 0, 57, 116
3, 61860, Note_on_c, 0, 55, 120
3, 61861, Note_on_c, 0, 57, 0
3, 61917, Note_on_c, 0, 55, 0
3, 61922, Note_on_c, 0, 67, 121
3, 61979, Note_on_c, 0, 59, 117
3, 61981, Note_on_c, 0, 67, 0
3, 62038, Note_on_c, 0, 59, 0
3, 62040, Note_on_c, 0, 57, 121
3, 62100, Note_on_c, 0, 55, 122
3, 62102, Note_on_c, 0, 57, 0
3, 62161, Note_on_c, 0, 67, 116
3, 62162, Note_on_c, 0, 55, 0
3, 62220, Note_on_c, 0, 67, 0
3, 62221, Note_on_c, 0, 65, 121
3, 62278, Note_on_c, 0, 64, 119
3, 62282, Note_on_c, 0, 65, 0
3, 62338, Note_on_c, 0, 64, 0
3, 62340, Note_on_c, 0, 62, 115
3, 62402, Note_on_c, 0, 64, 127
3, 62403, Note_on_c, 0, 62, 0
3, 62460, Note_on_c, 0, 67, 122
3, 62461, Note_on_c, 0, 64, 0
3, 62518, Note_on_c, 0, 65, 116
3, 62521, Note_on_c, 0, 67, 0
3, 62580, Note_on_c, 0, 65, 0
3, 62582, Note_on_c, 0, 64, 117
3, 62641, Note_on_c, 0, 64, 0
3, 62641, Note_on_c, 0, 72, 120
3, 62698, Note_on_c, 0, 72, 0
3, 62700, Note_on_c, 0, 67, 119
3, 62759, Note_on_c, 0, 67, 0
3, 62760, Note_on_c, 0, 65, 121
3, 62822, Note_on_c, 0, 65, 0
3, 62822, Note_on_c, 0, 64, 116
3, 62880, Note_on_c, 0, 72, 125
3, 62882, Note_on_c, 0, 64, 0
3, 62939, Note_on_c, 0, 72, 0
3, 62942, Note_on_c, 0, 69, 123
3, 63000, Note_on_c, 0, 69, 0
3, 63000, Note_on_c, 0, 67, 115
3, 63059, Note_on_c, 0, 67, 0
3, 63059, Note_on_c, 0, 65, 120
3, 63122, Note_on_c, 0, 65, 0
3, 63122, Note_on_c, 0, 74, 121
3, 63179, Note_on_c, 0, 74, 0
3, 63181, Note_on_c, 0, 69, 116
3, 63240, Note_on_c, 0, 69, 0
3, 63242, Note_on_c, 0, 67, 115
3, 63302, Note_on_c, 0, 66, 117
3, 63303, Note_on_c, 0, 67, 0
3, 63358, Note_on_c, 0, 74, 127
3, 63360, Note_on_c, 0, 66, 0
3, 63416, Note_on_c, 0, 74, 0
3, 63422, Note_on_c, 0, 71, 122
3, 63482, Note_on_c, 0, 69, 120
3, 63483, Note_on_c, 0, 71, 0
3, 63538, Note_on_c, 0, 67, 118
3, 63542, Note_on_c, 0, 69, 0
3, 63598, Note_on_c, 0, 67, 0
3, 63598, Note_on_c, 0, 76, 122
3, 63658, Note_on_c, 0, 71, 117
3, 63660, Note_on_c, 0, 76, 0
3, 63719, Note_on_c, 0, 71, 0
3, 63720, Note_on_c, 0, 69, 120
3, 63780, Note_on_c, 0, 69, 0
3, 63781, Note_on_c, 0, 68, 117
3, 63840, Note_on_c, 0, 68, 0
3, 63840, Note_on_c, 0, 76, 120
3, 63900, Note_on_c, 0, 76, 0
3, 63900, Note_on_c, 0, 72, 123
3, 63959, Note_on_c, 0, 71, 117
3, 63961, Note_on_c, 0, 72, 0
3, 64018, Note_on_c, 0, 69, 115
3, 64019, Note_on_c, 0, 71, 0
3, 64078, Note_on_c, 0, 69, 0
3, 64079, Note_on_c, 0, 77, 121
3, 64137, Note_on_c, 0, 77, 0
3, 64139, Note_on_c, 0, 72, 116
3, 64197, Note_on_c, 0, 72, 0
3, 64199, Note_on_c, 0, 71, 115
3, 64258, Note_on_c, 0, 69, 115
3, 64261, Note_on_c, 0, 71, 0
3, 64319, Note_on_c, 0, 69, 0
3, 64322, Note_on_c, 0, 77, 126
3, 64380, Note_on_c, 0, 77, 0
3, 64382, Note_on_c, 0, 74, 120
3, 64438, Note_on_c, 0, 72, 118
3, 64443, Note_on_c, 0, 74, 0
3, 64498, Note_on_c, 0, 72, 0
3, 64498, Note_on_c, 0, 71, 118
3, 64557, Note_on_c, 0, 71, 0
3, 64558, Note_on_c, 0, 79, 118
3, 64618, Note_on_c, 0, 79, 0
3, 64622, Note_on_c, 0, 74, 115
3, 64681, Note_on_c, 0, 74, 0
3, 64681, Note_on_c, 0, 72, 119
3, 64738, Note_on_c, 0, 71, 121
3, 64744, Note_on_c, 0, 72, 0
3, 64798, Note_on_c, 0, 79, 122
3, 64800, Note_on_c, 0, 71, 0
3, 64859, Note_on_c, 0, 79, 0
3, 64862, Note_on_c, 0, 76, 120
3, 64919, Note_on_c, 0, 74, 122
3, 64924, Note_on_c, 0, 76, 0
3, 64979, Note_on_c, 0, 74, 0
3, 64979, Note_on_c, 0, 72, 119
3, 65040, Note_on_c, 0, 81, 120
3, 65041, Note_on_c, 0, 72, 0
3, 65097, Note_on_c, 0, 81, 0
3, 65099, Note_on_c, 0, 76, 115
3, 65159, Note_on_c, 0, 74, 119
3, 65162, Note_on_c, 0, 76, 0
3, 65220, Note_on_c, 0, 73, 117
3, 65221, Note_on_c, 0, 74, 0
3, 65279, Note_on_c, 0, 73, 0
3, 65280, Note_on_c, 0, 81, 126
3, 65339, Note_on_c, 0, 78, 122
3, 65343, Note_on_c, 0, 81, 0
3, 65396, Note_on_c, 0, 78, 0
3, 65398, Note_on_c, 0, 76, 119
3, 65460, Note_on_c, 0, 76, 0
3, 65461, Note_on_c, 0, 74, 115
3, 65518, Note_on_c, 0, 74, 0
3, 65520, Note_on_c, 0, 83, 120
3, 65578, Note_on_c, 0, 81, 121
3, 65579, Note_on_c, 0, 83, 0
3, 65636, Note_on_c, 0, 81, 0
3, 65639, Note_on_c, 0, 80, 122
3, 65696, Note_on_c, 0, 80, 0
3, 65698, Note_on_c, 0, 78, 122
3, 65756, Note_on_c, 0, 78, 0
3, 65761, Note_on_c, 0, 80, 126
3, 65820, Note_on_c, 0, 80, 0
3, 65820, Note_on_c, 0, 64, 117
3, 65879, Note_on_c, 0, 64, 0
3, 65882, Note_on_c, 0, 68, 122
3, 65938, Note_on_c, 0, 71, 120
3, 65945, Note_on_c, 0, 68, 0
3, 66001, Note_on_c, 0, 71, 0
3, 66002, Note_on_c, 0, 74, 121
3, 66120, Note_on_c, 0, 74, 0
3, 66121, Note_on_c, 0, 74, 122
3, 66239, Note_on_c, 0, 74, 0
3, 66241, Note_on_c, 0, 74, 127
3, 66300, Note_on_c, 0, 74, 0
3, 66300, Note_on_c, 0, 64, 122
3, 66359, Note_on_c, 0, 68, 123
3, 66360, Note_on_c, 0, 64, 0
3, 66418, Note_on_c, 0, 71, 123
3, 66419, Note_on_c, 0, 68, 0
3, 66478, Note_on_c, 0, 71, 0
3, 66478, Note_on_c, 0, 74, 119
3, 66596, Note_on_c, 0, 74, 0
3, 66602, Note_on_c, 0, 74, 118
3, 66720, Note_on_c, 0, 74, 0
3, 66721, Note_on_c, 0, 74, 119
3, 66778, Note_on_c, 0, 64, 118
3, 66784, Note_on_c, 0, 74, 0
3, 66840, Note_on_c, 0, 64, 0
3, 66841, Note_on_c, 0, 68, 122
3, 66900, Note_on_c, 0, 68, 0
3, 66900, Note_on_c, 0, 71, 118
3, 66958, Note_on_c, 0, 71, 0
3, 66960, Note_on_c, 0, 74, 116
3, 67077, Note_on_c, 0, 74, 0
3, 67079, Note_on_c, 0, 76, 115
3, 67200, Note_on_c, 0, 76, 0
3, 67202, Note_on_c, 0, 72, 127
3, 67319, Note_on_c, 0, 71, 121
3, 67325, Note_on_c, 0, 72, 0
3, 67376, Note_on_c, 0, 71, 0
3, 67378, Note_on_c, 0, 69, 115
3, 67438, Note_on_c, 0, 77, 115
3, 67440, Note_on_c, 0, 69, 0
3, 67557, Note_on_c, 0, 77, 0
3, 67562, Note_on_c, 0, 76, 118
3, 67620, Note_on_c, 0, 74, 121
3, 67621, Note_on_c, 0, 76, 0
3, 67682, Note_on_c, 0, 76, 126
3, 67683, Note_on_c, 0, 74, 0
3, 67799, Note_on_c, 0, 81, 116
3, 67805, Note_on_c, 0, 76, 0
3, 67922, Note_on_c, 0, 81, 0
3, 67922, Note_on_c, 0, 64, 116
3, 68038, Note_on_c, 0, 80, 115
3, 68045, Note_on_c, 0, 64, 0
3, 68161, Note_on_c, 0, 80, 0
3, 68162, Note_on_c, 0, 81, 126
3, 68403, Note_on_c, 0, 81, 0
3, 68521, Note_on_c, 0, 76, 115
3, 68639, Note_on_c, 0, 76, 0
3, 68640, Note_on_c, 0, 81, 127
3, 68699, Note_on_c, 0, 81, 0
3, 68701, Note_on_c, 0, 79, 120
3, 68761, Note_on_c, 0, 79, 0
3, 68762, Note_on_c, 0, 81, 115
3, 68821, Note_on_c, 0, 81, 0
3, 68822, Note_on_c, 0, 76, 123
3, 68880, Note_on_c, 0, 76, 0
3, 68882, Note_on_c, 0, 81, 120
3, 68940, Note_on_c, 0, 79, 118
3, 68942, Note_on_c, 0, 81, 0
3, 68997, Note_on_c, 0, 79, 0
3, 69001, Note_on_c, 0, 81, 115
3, 69060, Note_on_c, 0, 81, 0
3, 69061, Note_on_c, 0, 76, 117
3, 69118, Note_on_c, 0, 78, 126
3, 69123, Note_on_c, 0, 76, 0
3, 69178, Note_on_c, 0, 78, 0
3, 69182, Note_on_c, 0, 76, 120
3, 69239, Note_on_c, 0, 76, 0
3, 69241, Note_on_c, 0, 74, 122
3, 69300, Note_on_c, 0, 74, 0
3, 69301, Note_on_c, 0, 76, 115
3, 69361, Note_on_c, 0, 78, 122
3, 69363, Note_on_c, 0, 76, 0
3, 69418, Note_on_c, 0, 79, 116
3, 69422, Note_on_c, 0, 78, 0
3, 69480, Note_on_c, 0, 81, 120
3, 69481, Note_on_c, 0, 79, 0
3, 69537, Note_on_c, 0, 81, 0
3, 69540, Note_on_c, 0, 78, 119
3, 69599, Note_on_c, 0, 79, 127
3, 69602, Note_on_c, 0, 78, 0
3, 69656, Note_on_c, 0, 79, 0
3, 69660, Note_on_c, 0, 78, 119
3, 69720, Note_on_c, 0, 78, 0
3, 69720, Note_on_c, 0, 79, 116
3, 69779, Note_on_c, 0, 74, 117
3, 69780, Note_on_c, 0, 79, 0
3, 69838, Note_on_c, 0, 79, 122
3, 69842, Note_on_c, 0, 74, 0
3, 69899, Note_on_c, 0, 77, 118
3, 69900, Note_on_c, 0, 79, 0
3, 69962, Note_on_c, 0, 77, 0
3, 69962, Note_on_c, 0, 79, 119
3, 70021, Note_on_c, 0, 74, 120
3, 70024, Note_on_c, 0, 79, 0
3, 70078, Note_on_c, 0, 76, 123
3, 70079, Note_on_c, 0, 74, 0
3, 70141, Note_on_c, 0, 76, 0
3, 70141, Note_on_c, 0, 74, 123
3, 70198, Note_on_c, 0, 74, 0
3, 70199, Note_on_c, 0, 72, 121
3, 70259, Note_on_c, 0, 74, 116
3, 70260, Note_on_c, 0, 72, 0
3, 70316, Note_on_c, 0, 74, 0
3, 70319, Note_on_c, 0, 76, 119
3, 70379, Note_on_c, 0, 77, 121
3, 70381, Note_on_c, 0, 76, 0
3, 70438, Note_on_c, 0, 79, 123
3, 70440, Note_on_c, 0, 77, 0
3, 70500, Note_on_c, 0, 79, 0
3, 70500, Note_on_c, 0, 74, 121
3, 70558, Note_on_c, 0, 77, 124
3, 70563, Note_on_c, 0, 74, 0
3, 70620, Note_on_c, 0, 77, 0
3, 70620, Note_on_c, 0, 76, 120
3, 70679, Note_on_c, 0, 77, 123
3, 70681, Note_on_c, 0, 76, 0
3, 70738, Note_on_c, 0, 77, 0
3, 70739, Note_on_c, 0, 72, 121
3, 70800, Note_on_c, 0, 72, 0
3, 70802, Note_on_c, 0, 77, 117
3, 70858, Note_on_c, 0, 76, 120
3, 70863, Note_on_c, 0, 77, 0
3, 70917, Note_on_c, 0, 76, 0
3, 70918, Note_on_c, 0, 77, 117
3, 70975, Note_on_c, 0, 77, 0
3, 70981, Note_on_c, 0, 72, 119
3, 71039, Note_on_c, 0, 72, 0
3, 71039, Note_on_c, 0, 74, 127
3, 71100, Note_on_c, 0, 74, 0
3, 71100, Note_on_c, 0, 72, 117
3, 71158, Note_on_c, 0, 71, 119
3, 71162, Note_on_c, 0, 72, 0
3, 71219, Note_on_c, 0, 72, 119
3, 71221, Note_on_c, 0, 71, 0
3, 71278, Note_on_c, 0, 72, 0
3, 71279, Note_on_c, 0, 74, 123
3, 71337, Note_on_c, 0, 74, 0
3, 71341, Note_on_c, 0, 76, 121
3, 71400, Note_on_c, 0, 77, 121
3, 71404, Note_on_c, 0, 76, 0
3, 71457, Note_on_c, 0, 77, 0
3, 71461, Note_on_c, 0, 74, 120
3, 71518, Note_on_c, 0, 74, 0
3, 71521, Note_on_c, 0, 76, 123
3, 71582, Note_on_c, 0, 76, 0
3, 71582, Note_on_c, 0, 74, 122
3, 71639, Note_on_c, 0, 74, 0
3, 71639, Note_on_c, 0, 76, 121
3, 71696, Note_on_c, 0, 76, 0
3, 71699, Note_on_c, 0, 71, 123
3, 71760, Note_on_c, 0, 71, 0
3, 71761, Note_on_c, 0, 76, 116
3, 71819, Note_on_c, 0, 76, 0
3, 71820, Note_on_c, 0, 74, 120
3, 71878, Note_on_c, 0, 76, 123
3, 71883, Note_on_c, 0, 74, 0
3, 71938, Note_on_c, 0, 71, 120
3, 71940, Note_on_c, 0, 76, 0
3, 71998, Note_on_c, 0, 71, 0
3, 72000, Note_on_c, 0, 72, 127
3, 72060, Note_on_c, 0, 72, 0
3, 72061, Note_on_c, 0, 69, 119
3, 72121, Note_on_c, 0, 69, 0
3, 72122, Note_on_c, 0, 72, 119
3, 72180, Note_on_c, 0, 76, 119
3, 72185, Note_on_c, 0, 72, 0
3, 72240, Note_on_c, 0, 81, 123
3, 72243, Note_on_c, 0, 76, 0
3, 72356, Note_on_c, 0, 81, 0
3, 72358, Note_on_c, 0, 81, 123
3, 72476, Note_on_c, 0, 81, 0
3, 72478, Note_on_c, 0, 81, 120
3, 72536, Note_on_c, 0, 81, 0
3, 72541, Note_on_c, 0, 69, 117
3, 72598, Note_on_c, 0, 72, 116
3, 72599, Note_on_c, 0, 69, 0
3, 72657, Note_on_c, 0, 72, 0
3, 72661, Note_on_c, 0, 76, 121
3, 72722, Note_on_c, 0, 81, 123
3, 72724, Note_on_c, 0, 76, 0
3, 72836, Note_on_c, 0, 81, 0
3, 72838, Note_on_c, 0, 81, 120
3, 72955, Note_on_c, 0, 81, 0
3, 72961, Note_on_c, 0, 81, 123
3, 73020, Note_on_c, 0, 81, 0
3, 73022, Note_on_c, 0, 69, 120
3, 73080, Note_on_c, 0, 72, 115
3, 73083, Note_on_c, 0, 69, 0
3, 73142, Note_on_c, 0, 76, 120
3, 73143, Note_on_c, 0, 72, 0
3, 73201, Note_on_c, 0, 76, 0
3, 73201, Note_on_c, 0, 82, 119
3, 73319, Note_on_c, 0, 82, 0
3, 73321, Note_on_c, 0, 82, 119
3, 73439, Note_on_c, 0, 82, 0
3, 73442, Note_on_c, 0, 82, 119
3, 73558, Note_on_c, 0, 81, 123
3, 73562, Note_on_c, 0, 82, 0
3, 73618, Note_on_c, 0, 81, 0
3, 73618, Note_on_c, 0, 80, 116
3, 73678, Note_on_c, 0, 80, 0
3, 73679, Note_on_c, 0, 81, 120
3, 73800, Note_on_c, 0, 83, 115
3, 73802, Note_on_c, 0, 81, 0
3, 73921, Note_on_c, 0, 83, 0
3, 73921, Note_on_c, 0, 74, 124
3, 74459, Note_on_c, 0, 64, 120
3, 74460, Note_on_c, 0, 74, 0
3, 74519, Note_on_c, 0, 64, 0
3, 74519, Note_on_c, 0, 68, 117
3, 74581, Note_on_c, 0, 68, 0
3, 74581, Note_on_c, 0, 71, 117
3, 74639, Note_on_c, 0, 74, 120
3, 74643, Note_on_c, 0, 71, 0
3, 74757, Note_on_c, 0, 74, 0
3, 74759, Note_on_c, 0, 74, 118
3, 74877, Note_on_c, 0, 74, 0
3, 74879, Note_on_c, 0, 74, 126
3, 74939, Note_on_c, 0, 64, 116
3, 74940, Note_on_c, 0, 74, 0
3, 75000, Note_on_c, 0, 68, 121
3, 75001, Note_on_c, 0, 64, 0
3, 75058, Note_on_c, 0, 71, 116
3, 75061, Note_on_c, 0, 68, 0
3, 75116, Note_on_c, 0, 71, 0
3, 75122, Note_on_c, 0, 74, 119
3, 75237, Note_on_c, 0, 74, 0
3, 75239, Note_on_c, 0, 74, 119
3, 75357, Note_on_c, 0, 74, 0
3, 75358, Note_on_c, 0, 74, 126
3, 75416, Note_on_c, 0, 74, 0
3, 75421, Note_on_c, 0, 64, 118
3, 75478, Note_on_c, 0, 64, 0
3, 75482, Note_on_c, 0, 68, 115
3, 75541, Note_on_c, 0, 71, 118
3, 75543, Note_on_c, 0, 68, 0
3, 75598, Note_on_c, 0, 71, 0
3, 75601, Note_on_c, 0, 74, 118
3, 75720, Note_on_c, 0, 76, 116
3, 75724, Note_on_c, 0, 74, 0
3, 75841, Note_on_c, 0, 76, 0
3, 75842, Note_on_c, 0, 72, 127
3, 75959, Note_on_c, 0, 71, 121
3, 75960, Note_on_c, 0, 72, 0
3, 76017, Note_on_c, 0, 71, 0
3, 76021, Note_on_c, 0, 69, 123
3, 76078, Note_on_c, 0, 69, 0
3, 76080, Note_on_c, 0, 77, 120
3, 76198, Note_on_c, 0, 76, 120
3, 76203, Note_on_c, 0, 77, 0
3, 76257, Note_on_c, 0, 76, 0
3, 76259, Note_on_c, 0, 74, 119
3, 76320, Note_on_c, 0, 74, 0
3, 76320, Note_on_c, 0, 76, 125
3, 76441, Note_on_c, 0, 76, 0
3, 76441, Note_on_c, 0, 81, 121
3, 76558, Note_on_c, 0, 64, 123
3, 76563, Note_on_c, 0, 81, 0
3, 76678, Note_on_c, 0, 64, 0
3, 76679, Note_on_c, 0, 80, 119
3, 76798, Note_on_c, 0, 80, 0
3, 76799, Control_c, 0, 10, 64
3, 76800, Control_c, 0, 65, 0
3, 76802, Note_on_c, 0, 81, 126
3, 77765, Note_on_c, 0, 81, 0
3, 78721, Note_on_c, 0, 74, 104
3, 78777, Note_on_c, 0, 74, 0
3, 78778, Note_on_c, 0, 76, 101
3, 78837, Note_on_c, 0, 76, 0
3, 78838, Note_on_c, 0, 77, 97
3, 78896, Note_on_c, 0, 77, 0
3, 78899, Note_on_c, 0, 76, 103
3, 78958, Note_on_c, 0, 76, 0
3, 78960, Note_on_c, 0, 74, 101
3, 79016, Note_on_c, 0, 74, 0
3, 79018, Note_on_c, 0, 77, 100
3, 79076, Note_on_c, 0, 77, 0
3, 79078, Note_on_c, 0, 76, 99
3, 79138, Note_on_c, 0, 74, 104
3, 79139, Note_on_c, 0, 76, 0
3, 79197, Note_on_c, 0, 74, 0
3, 79201, Note_on_c, 0, 76, 107
3, 79320, Note_on_c, 0, 69, 102
3, 79322, Note_on_c, 0, 76, 0
3, 79436, Note_on_c, 0, 69, 0
3, 79681, Note_on_c, 0, 76, 105
3, 79738, Note_on_c, 0, 76, 0
3, 79741, Note_on_c, 0, 74, 103
3, 79797, Note_on_c, 0, 74, 0
3, 79800, Note_on_c, 0, 76, 102
3, 79861, Note_on_c, 0, 76, 0
3, 79861, Note_on_c, 0, 77, 100
3, 79919, Note_on_c, 0, 77, 0
3, 79919, Note_on_c, 0, 76, 98
3, 79980, Note_on_c, 0, 76, 0
3, 79982, Note_on_c, 0, 77, 96
3, 80037, Note_on_c, 0, 77, 0
3, 80040, Note_on_c, 0, 79, 96
3, 80098, Note_on_c, 0, 81, 99
3, 80099, Note_on_c, 0, 79, 0
3, 80153, Note_on_c, 0, 81, 0
3, 80162, Note_on_c, 0, 77, 101
3, 80220, Note_on_c, 0, 77, 0
3, 80222, Note_on_c, 0, 76, 97
3, 80279, Note_on_c, 0, 74, 104
3, 80283, Note_on_c, 0, 76, 0
3, 80394, Note_on_c, 0, 74, 0
3, 80462, Note_on_c, 0, 77, 100
3, 80518, Note_on_c, 0, 79, 97
3, 80523, Note_on_c, 0, 77, 0
3, 80575, Note_on_c, 0, 79, 0
3, 80582, Note_on_c, 0, 81, 96
3, 80638, Note_on_c, 0, 81, 0
3, 80640, Note_on_c, 0, 82, 104
3, 80700, Note_on_c, 0, 82, 0
3, 80700, Note_on_c, 0, 81, 99
3, 80757, Note_on_c, 0, 81, 0
3, 80761, Note_on_c, 0, 79, 100
3, 80817, Note_on_c, 0, 79, 0
3, 80821, Note_on_c, 0, 77, 101
3, 80878, Note_on_c, 0, 82, 101
3, 80880, Note_on_c, 0, 77, 0
3, 80937, Note_on_c, 0, 82, 0
3, 80939, Note_on_c, 0, 81, 101
3, 80997, Note_on_c, 0, 81, 0
3, 80999, Note_on_c, 0, 79, 97
3, 81057, Note_on_c, 0, 79, 0
3, 81060, Note_on_c, 0, 77, 101
3, 81119, Note_on_c, 0, 77, 0
3, 81122, Note_on_c, 0, 76, 104
3, 81181, Note_on_c, 0, 76, 0
3, 81181, Note_on_c, 0, 74, 99
3, 81241, Note_on_c, 0, 74, 0
3, 81241, Note_on_c, 0, 76, 96
3, 81301, Note_on_c, 0, 76, 0
3, 81302, Note_on_c, 0, 77, 101
3, 81359, Note_on_c, 0, 76, 103
3, 81361, Note_on_c, 0, 77, 0
3, 81419, Note_on_c, 0, 76, 0
3, 81419, Note_on_c, 0, 77, 103
3, 81477, Note_on_c, 0, 77, 0
3, 81482, Note_on_c, 0, 79, 100
3, 81539, Note_on_c, 0, 79, 0
3, 81539, Note_on_c, 0, 76, 98
3, 81595, Note_on_c, 0, 76, 0
3, 81599, Note_on_c, 0, 81, 111
3, 81659, Note_on_c, 0, 81, 0
3, 81660, Note_on_c, 0, 79, 102
3, 81718, Note_on_c, 0, 79, 0
3, 81719, Note_on_c, 0, 77, 104
3, 81780, Note_on_c, 0, 77, 0
3, 81781, Note_on_c, 0, 76, 104
3, 81837, Note_on_c, 0, 76, 0
3, 81841, Note_on_c, 0, 81, 100
3, 81897, Note_on_c, 0, 81, 0
3, 81901, Note_on_c, 0, 79, 97
3, 81960, Note_on_c, 0, 79, 0
3, 81961, Note_on_c, 0, 77, 100
3, 82018, Note_on_c, 0, 76, 98
3, 82020, Note_on_c, 0, 77, 0
3, 82077, Note_on_c, 0, 76, 0
3, 82079, Note_on_c, 0, 74, 107
3, 82136, Note_on_c, 0, 74, 0
3, 82139, Note_on_c, 0, 73, 97
3, 82197, Note_on_c, 0, 73, 0
3, 82201, Note_on_c, 0, 74, 103
3, 82256, Note_on_c, 0, 74, 0
3, 82262, Note_on_c, 0, 76, 103
3, 82319, Note_on_c, 0, 74, 104
3, 82322, Note_on_c, 0, 76, 0
3, 82378, Note_on_c, 0, 74, 0
3, 82380, Note_on_c, 0, 76, 104
3, 82438, Note_on_c, 0, 77, 101
3, 82439, Note_on_c, 0, 76, 0
3, 82497, Note_on_c, 0, 77, 0
3, 82502, Note_on_c, 0, 74, 99
3, 82559, Note_on_c, 0, 79, 106
3, 82562, Note_on_c, 0, 74, 0
3, 82615, Note_on_c, 0, 79, 0
3, 82620, Note_on_c, 0, 77, 98
3, 82679, Note_on_c, 0, 77, 0
3, 82681, Note_on_c, 0, 76, 103
3, 82740, Note_on_c, 0, 74, 96
3, 82742, Note_on_c, 0, 76, 0
3, 82801, Note_on_c, 0, 74, 0
3, 82801, Note_on_c, 0, 79, 99
3, 82858, Note_on_c, 0, 77, 96
3, 82860, Note_on_c, 0, 79, 0
3, 82918, Note_on_c, 0, 77, 0
3, 82918, Note_on_c, 0, 76, 102
3, 82973, Note_on_c, 0, 76, 0
3, 82978, Note_on_c, 0, 74, 96
3, 83037, Note_on_c, 0, 74, 0
3, 83038, Note_on_c, 0, 73, 100
3, 83099, Note_on_c, 0, 73, 0
3, 83099, Note_on_c, 0, 71, 104
3, 83156, Note_on_c, 0, 71, 0
3, 83159, Note_on_c, 0, 69, 98
3, 83277, Note_on_c, 0, 69, 0
3, 83341, Note_on_c, 0, 76, 98
3, 83398, Note_on_c, 0, 76, 0
3, 83398, Note_on_c, 0, 77, 101
3, 83454, Note_on_c, 0, 77, 0
3, 83459, Note_on_c, 0, 79, 102
3, 83514, Note_on_c, 0, 79, 0
3, 83518, Note_on_c, 0, 77, 111
3, 83639, Note_on_c, 0, 77, 0
3, 83641, Note_on_c, 0, 76, 102
3, 83701, Note_on_c, 0, 76, 0
3, 83701, Note_on_c, 0, 74, 100
3, 83758, Note_on_c, 0, 73, 97
3, 83761, Note_on_c, 0, 74, 0
3, 83934, Note_on_c, 0, 73, 0
3, 83941, Note_on_c, 0, 74, 102
3, 83998, Note_on_c, 0, 74, 0
3, 84001, Note_on_c, 0, 74, 104
3, 84236, Note_on_c, 0, 74, 0
3, 84301, Note_on_c, 0, 74, 100
3, 84356, Note_on_c, 0, 74, 0
3, 84360, Note_on_c, 0, 76, 104
3, 84418, Note_on_c, 0, 77, 102
3, 84419, Note_on_c, 0, 76, 0
3, 84478, Note_on_c, 0, 77, 0
3, 84480, Note_on_c, 0, 76, 104
3, 84568, Note_on_c, 0, 76, 0
3, 84568, Note_on_c, 0, 77, 101
3, 84596, Note_on_c, 0, 77, 0
3, 84602, Note_on_c, 0, 76, 99
3, 84689, Note_on_c, 0, 76, 0
3, 84690, Note_on_c, 0, 77, 102
3, 84717, Note_on_c, 0, 77, 0
3, 84722, Note_on_c, 0, 76, 101
3, 84810, Note_on_c, 0, 76, 0
3, 84811, Note_on_c, 0, 77, 101
3, 84839, Note_on_c, 0, 77, 0
3, 84840, Note_on_c, 0, 76, 99
3, 84926, Note_on_c, 0, 76, 0
3, 84931, Note_on_c, 0, 77, 97
3, 84958, Note_on_c, 0, 77, 0
3, 84961, Note_on_c, 0, 76, 102
3, 85079, Note_on_c, 0, 74, 99
3, 85081, Note_on_c, 0, 76, 0
3, 85136, Note_on_c, 0, 74, 0
3, 85139, Note_on_c, 0, 72, 103
3, 85198, Note_on_c, 0, 71, 100
3, 85199, Note_on_c, 0, 72, 0
3, 85379, Note_on_c, 0, 71, 0
3, 85382, Note_on_c, 0, 69, 104
3, 85436, Note_on_c, 0, 69, 0
3, 85438, Note_on_c, 0, 69, 110
3, 85678, Note_on_c, 0, 69, 0
3, 85738, Note_on_c, 0, 69, 99
3, 85799, Note_on_c, 0, 71, 97
3, 85800, Note_on_c, 0, 69, 0
3, 85861, Note_on_c, 0, 73, 101
3, 85863, Note_on_c, 0, 71, 0
3, 85919, Note_on_c, 0, 74, 104
3, 85921, Note_on_c, 0, 73, 0
3, 85944, Note_on_c, 0, 74, 0
3, 85949, Note_on_c, 0, 73, 96
3, 85979, Note_on_c, 0, 73, 0
3, 85980, Note_on_c, 0, 74, 102
3, 86008, Note_on_c, 0, 74, 0
3, 86008, Note_on_c, 0, 76, 100
3, 86037, Note_on_c, 0, 76, 0
3, 86040, Note_on_c, 0, 74, 97
3, 86070, Note_on_c, 0, 73, 104
3, 86071, Note_on_c, 0, 74, 0
3, 86095, Note_on_c, 0, 73, 0
3, 86101, Note_on_c, 0, 74, 97
3, 86131, Note_on_c, 0, 76, 104
3, 86132, Note_on_c, 0, 74, 0
3, 86160, Note_on_c, 0, 76, 0
3, 86160, Note_on_c, 0, 74, 102
3, 86187, Note_on_c, 0, 74, 0
3, 86189, Note_on_c, 0, 73, 98
3, 86214, Note_on_c, 0, 73, 0
3, 86222, Note_on_c, 0, 74, 99
3, 86250, Note_on_c, 0, 74, 0
3, 86252, Note_on_c, 0, 76, 96
3, 86278, Note_on_c, 0, 76, 0
3, 86281, Note_on_c, 0, 72, 104
3, 86308, Note_on_c, 0, 72, 0
3, 86312, Note_on_c, 0, 71, 102
3, 86338, Note_on_c, 0, 72, 97
3, 86343, Note_on_c, 0, 71, 0
3, 86366, Note_on_c, 0, 72, 0
3, 86370, Note_on_c, 0, 74, 103
3, 86399, Note_on_c, 0, 74, 0
3, 86402, Note_on_c, 0, 70, 111
3, 86637, Note_on_c, 0, 70, 0
3, 86699, Note_on_c, 0, 70, 101
3, 86759, Note_on_c, 0, 72, 97
3, 86762, Note_on_c, 0, 70, 0
3, 86819, Note_on_c, 0, 74, 97
3, 86821, Note_on_c, 0, 72, 0
3, 86878, Note_on_c, 0, 76, 107
3, 86880, Note_on_c, 0, 74, 0
3, 86908, Note_on_c, 0, 76, 0
3, 86911, Note_on_c, 0, 74, 100
3, 86939, Note_on_c, 0, 74, 0
3, 86939, Note_on_c, 0, 76, 97
3, 86966, Note_on_c, 0, 76, 0
3, 86968, Note_on_c, 0, 77, 100
3, 86997, Note_on_c, 0, 77, 0
3, 86998, Note_on_c, 0, 76, 102
3, 87026, Note_on_c, 0, 76, 0
3, 87030, Note_on_c, 0, 74, 99
3, 87059, Note_on_c, 0, 74, 0
3, 87062, Note_on_c, 0, 76, 98
3, 87089, Note_on_c, 0, 76, 0
3, 87092, Note_on_c, 0, 77, 101
3, 87117, Note_on_c, 0, 77, 0
3, 87120, Note_on_c, 0, 76, 102
3, 87149, Note_on_c, 0, 76, 0
3, 87151, Note_on_c, 0, 74, 102
3, 87176, Note_on_c, 0, 74, 0
3, 87181, Note_on_c, 0, 76, 102
3, 87210, Note_on_c, 0, 76, 0
3, 87212, Note_on_c, 0, 77, 100
3, 87242, Note_on_c, 0, 74, 97
3, 87243, Note_on_c, 0, 77, 0
3, 87270, Note_on_c, 0, 74, 0
3, 87270, Note_on_c, 0, 73, 99
3, 87300, Note_on_c, 0, 73, 0
3, 87300, Note_on_c, 0, 74, 103
3, 87328, Note_on_c, 0, 74, 0
3, 87328, Note_on_c, 0, 76, 96
3, 87355, Note_on_c, 0, 76, 0
3, 87361, Note_on_c, 0, 73, 108
3, 87601, Note_on_c, 0, 73, 0
3, 87660, Note_on_c, 0, 73, 101
3, 87720, Note_on_c, 0, 74, 99
3, 87722, Note_on_c, 0, 73, 0
3, 87780, Note_on_c, 0, 76, 96
3, 87781, Note_on_c, 0, 74, 0
3, 87840, Note_on_c, 0, 77, 108
3, 87844, Note_on_c, 0, 76, 0
3, 87869, Note_on_c, 0, 77, 0
3, 87872, Note_on_c, 0, 76, 104
3, 87898, Note_on_c, 0, 76, 0
3, 87901, Note_on_c, 0, 77, 100
3, 87928, Note_on_c, 0, 77, 0
3, 87929, Note_on_c, 0, 79, 99
3, 87954, Note_on_c, 0, 79, 0
3, 87958, Note_on_c, 0, 77, 100
3, 87988, Note_on_c, 0, 77, 0
3, 87989, Note_on_c, 0, 76, 99
3, 88019, Note_on_c, 0, 77, 103
3, 88020, Note_on_c, 0, 76, 0
3, 88048, Note_on_c, 0, 77, 0
3, 88049, Note_on_c, 0, 79, 98
3, 88074, Note_on_c, 0, 79, 0
3, 88081, Note_on_c, 0, 77, 100
3, 88108, Note_on_c, 0, 77, 0
3, 88109, Note_on_c, 0, 76, 98
3, 88134, Note_on_c, 0, 76, 0
3, 88142, Note_on_c, 0, 77, 104
3, 88168, Note_on_c, 0, 79, 98
3, 88171, Note_on_c, 0, 77, 0
3, 88193, Note_on_c, 0, 79, 0
3, 88201, Note_on_c, 0, 76, 102
3, 88231, Note_on_c, 0, 76, 0
3, 88231, Note_on_c, 0, 74, 101
3, 88262, Note_on_c, 0, 74, 0
3, 88262, Note_on_c, 0, 76, 97
3, 88288, Note_on_c, 0, 77, 102
3, 88295, Note_on_c, 0, 76, 0
3, 88320, Note_on_c, 0, 74, 111
3, 88321, Note_on_c, 0, 77, 0
3, 88560, Note_on_c, 0, 74, 0
3, 88622, Note_on_c, 0, 74, 99
3, 88681, Note_on_c, 0, 76, 100
3, 88684, Note_on_c, 0, 74, 0
3, 88742, Note_on_c, 0, 77, 104
3, 88743, Note_on_c, 0, 76, 0
3, 88798, Note_on_c, 0, 79, 100
3, 88805, Note_on_c, 0, 77, 0
3, 88827, Note_on_c, 0, 79, 0
3, 88832, Note_on_c, 0, 81, 104
3, 88858, Note_on_c, 0, 81, 0
3, 88861, Note_on_c, 0, 82, 101
3, 88886, Note_on_c, 0, 82, 0
3, 88892, Note_on_c, 0, 81, 96
3, 88918, Note_on_c, 0, 81, 0
3, 88922, Note_on_c, 0, 79, 100
3, 88951, Note_on_c, 0, 79, 0
3, 88952, Note_on_c, 0, 77, 97
3, 88979, Note_on_c, 0, 77, 0
3, 88981, Note_on_c, 0, 76, 103
3, 89008, Note_on_c, 0, 76, 0
3, 89008, Note_on_c, 0, 74, 101
3, 89035, Note_on_c, 0, 74, 0
3, 89041, Note_on_c, 0, 79, 101
3, 89069, Note_on_c, 0, 81, 97
3, 89070, Note_on_c, 0, 79, 0
3, 89099, Note_on_c, 0, 81, 0
3, 89099, Note_on_c, 0, 82, 103
3, 89129, Note_on_c, 0, 82, 0
3, 89131, Note_on_c, 0, 81, 97
3, 89159, Note_on_c, 0, 81, 0
3, 89161, Note_on_c, 0, 79, 96
3, 89188, Note_on_c, 0, 77, 102
3, 89190, Note_on_c, 0, 79, 0
3, 89218, Note_on_c, 0, 77, 0
3, 89221, Note_on_c, 0, 76, 98
3, 89250, Note_on_c, 0, 74, 104
3, 89252, Note_on_c, 0, 76, 0
3, 89276, Note_on_c, 0, 74, 0
3, 89278, Note_on_c, 0, 73, 106
3, 89317, Note_on_c, 0, 73, 0
3, 89322, Note_on_c, 0, 71, 99
3, 89359, Note_on_c, 0, 71, 0
3, 89362, Note_on_c, 0, 69, 97
3, 89398, Note_on_c, 0, 69, 0
3, 89398, Note_on_c, 0, 77, 102
3, 89433, Note_on_c, 0, 77, 0
3, 89439, Note_on_c, 0, 76, 103
3, 89479, Note_on_c, 0, 76, 0
3, 89480, Note_on_c, 0, 74, 102
3, 89515, Note_on_c, 0, 74, 0
3, 89520, Note_on_c, 0, 73, 101
3, 89697, Note_on_c, 0, 73, 0
3, 89701, Note_on_c, 0, 74, 102
3, 89756, Note_on_c, 0, 74, 0
3, 89758, Note_on_c, 0, 74, 102
3, 89995, Note_on_c, 0, 74, 0
3, 90061, Note_on_c, 0, 74, 97
3, 90119, Note_on_c, 0, 74, 0
3, 90122, Note_on_c, 0, 77, 96
3, 90178, Note_on_c, 0, 77, 0
3, 90178, Note_on_c, 0, 74, 96
3, 90235, Note_on_c, 0, 74, 0
3, 90241, Note_on_c, 0, 75, 111
3, 90326, Note_on_c, 0, 75, 0
3, 90331, Note_on_c, 0, 77, 103
3, 90358, Note_on_c, 0, 75, 97
3, 90361, Note_on_c, 0, 77, 0
3, 90443, Note_on_c, 0, 75, 0
3, 90448, Note_on_c, 0, 77, 97
3, 90474, Note_on_c, 0, 77, 0
3, 90479, Note_on_c, 0, 75, 100
3, 90569, Note_on_c, 0, 75, 0
3, 90571, Note_on_c, 0, 77, 96
3, 90602, Note_on_c, 0, 77, 0
3, 90602, Note_on_c, 0, 75, 97
3, 90690, Note_on_c, 0, 78, 100
3, 90692, Note_on_c, 0, 75, 0
3, 90719, Note_on_c, 0, 79, 106
3, 90720, Note_on_c, 0, 78, 0
3, 91078, Note_on_c, 0, 79, 0
3, 91081, Note_on_c, 0, 81, 102
3, 91139, Note_on_c, 0, 79, 100
3, 91143, Note_on_c, 0, 81, 0
3, 91201, Note_on_c, 0, 77, 104
3, 91202, Note_on_c, 0, 79, 0
3, 91317, Note_on_c, 0, 77, 0
3, 91319, Note_on_c, 0, 76, 99
3, 91379, Note_on_c, 0, 74, 97
3, 91382, Note_on_c, 0, 76, 0
3, 91441, Note_on_c, 0, 74, 0
3, 91442, Note_on_c, 0, 73, 102
3, 91618, Note_on_c, 0, 73, 0
3, 91619, Note_on_c, 0, 74, 98
3, 91677, Note_on_c, 0, 74, 0
3, 91678, Note_on_c, 0, 74, 103
3, 92399, Note_on_c, 0, 74, 0
3, 94198, Note_on_c, 0, 76, 96
3, 94314, Note_on_c, 0, 76, 0
3, 94318, Note_on_c, 0, 81, 105
3, 94433, Note_on_c, 0, 81, 0
3, 94438, Note_on_c, 0, 83, 96
3, 94553, Note_on_c, 0, 83, 0
3, 94560, Note_on_c, 0, 84, 109
3, 94681, Note_on_c, 0, 84, 0
3, 94802, Note_on_c, 0, 83, 104
3, 94918, Note_on_c, 0, 83, 0
3, 95039, Note_on_c, 0, 81, 108
3, 95280, Note_on_c, 0, 81, 0
3, 95402, Note_on_c, 0, 81, 96
3, 95519, Note_on_c, 0, 81, 0
3, 95521, Note_on_c, 0, 79, 112
3, 95640, Note_on_c, 0, 77, 97
3, 95642, Note_on_c, 0, 79, 0
3, 95757, Note_on_c, 0, 77, 0
3, 95762, Note_on_c, 0, 76, 105
3, 95879, Note_on_c, 0, 76, 0
3, 95879, Note_on_c, 0, 74, 96
3, 95998, Note_on_c, 0, 74, 0
3, 96001, Note_on_c, 0, 72, 105
3, 96118, Note_on_c, 0, 71, 101
3, 96122, Note_on_c, 0, 72, 0
3, 96235, Note_on_c, 0, 71, 0
3, 96242, Note_on_c, 0, 69, 102
3, 96360, Note_on_c, 0, 69, 0
3, 96360, Note_on_c, 0, 71, 98
3, 96478, Note_on_c, 0, 72, 109
3, 96479, Note_on_c, 0, 71, 0
3, 96594, Note_on_c, 0, 72, 0
3, 96719, Note_on_c, 0, 74, 103
3, 96837, Note_on_c, 0, 74, 0
3, 96959, Note_on_c, 0, 76, 107
3, 97197, Note_on_c, 0, 76, 0
3, 97558, Note_on_c, 0, 76, 97
3, 97678, Note_on_c, 0, 76, 0
3, 97682, Note_on_c, 0, 81, 106
3, 97800, Note_on_c, 0, 83, 97
3, 97802, Note_on_c, 0, 81, 0
3, 97918, Note_on_c, 0, 84, 108
3, 97920, Note_on_c, 0, 83, 0
3, 98036, Note_on_c, 0, 84, 0
3, 98160, Note_on_c, 0, 83, 104
3, 98280, Note_on_c, 0, 83, 0
3, 98398, Note_on_c, 0, 81, 111
3, 98636, Note_on_c, 0, 81, 0
3, 98760, Note_on_c, 0, 81, 99
3, 98876, Note_on_c, 0, 81, 0
3, 98880, Note_on_c, 0, 79, 104
3, 98997, Note_on_c, 0, 79, 0
3, 99000, Note_on_c, 0, 77, 99
3, 99115, Note_on_c, 0, 77, 0
3, 99120, Note_on_c, 0, 76, 103
3, 99240, Note_on_c, 0, 74, 97
3, 99241, Note_on_c, 0, 76, 0
3, 99359, Note_on_c, 0, 72, 111
3, 99360, Note_on_c, 0, 74, 0
3, 99476, Note_on_c, 0, 72, 0
3, 99479, Note_on_c, 0, 71, 102
3, 99595, Note_on_c, 0, 71, 0
3, 99602, Note_on_c, 0, 69, 108
3, 99718, Note_on_c, 0, 69, 0
3, 99718, Note_on_c, 0, 71, 101
3, 99835, Note_on_c, 0, 71, 0
3, 99839, Note_on_c, 0, 72, 109
3, 99954, Note_on_c, 0, 72, 0
3, 100079, Note_on_c, 0, 74, 104
3, 100200, Note_on_c, 0, 74, 0
3, 100318, Note_on_c, 0, 76, 110
3, 100554, Note_on_c, 0, 76, 0
3, 100678, Note_on_c, 0, 76, 102
3, 100795, Note_on_c, 0, 76, 0
3, 100802, Note_on_c, 0, 84, 112
3, 100918, Note_on_c, 0, 84, 0
3, 100920, Note_on_c, 0, 84, 100
3, 101036, Note_on_c, 0, 84, 0
3, 101038, Note_on_c, 0, 84, 103
3, 101157, Note_on_c, 0, 84, 0
3, 101161, Note_on_c, 0, 84, 97
3, 101277, Note_on_c, 0, 84, 0
3, 101279, Note_on_c, 0, 84, 112
3, 101335, Note_on_c, 0, 84, 0
3, 101341, Note_on_c, 0, 74, 103
3, 101399, Note_on_c, 0, 74, 0
3, 101402, Note_on_c, 0, 74, 100
3, 101460, Note_on_c, 0, 84, 96
3, 101462, Note_on_c, 0, 74, 0
3, 101518, Note_on_c, 0, 84, 0
3, 101521, Note_on_c, 0, 84, 107
3, 101578, Note_on_c, 0, 74, 102
3, 101580, Note_on_c, 0, 84, 0
3, 101638, Note_on_c, 0, 74, 0
3, 101639, Note_on_c, 0, 74, 96
3, 101695, Note_on_c, 0, 74, 0
3, 101699, Note_on_c, 0, 84, 99
3, 101756, Note_on_c, 0, 84, 0
3, 101758, Note_on_c, 0, 83, 112
3, 101876, Note_on_c, 0, 83, 0
3, 101878, Note_on_c, 0, 83, 96
3, 101997, Note_on_c, 0, 83, 0
3, 102001, Note_on_c, 0, 83, 101
3, 102117, Note_on_c, 0, 83, 0
3, 102122, Note_on_c, 0, 83, 97
3, 102236, Note_on_c, 0, 83, 0
3, 102238, Note_on_c, 0, 83, 105
3, 102293, Note_on_c, 0, 83, 0
3, 102302, Note_on_c, 0, 72, 101
3, 102358, Note_on_c, 0, 72, 0
3, 102360, Note_on_c, 0, 72, 97
3, 102415, Note_on_c, 0, 72, 0
3, 102418, Note_on_c, 0, 83, 101
3, 102473, Note_on_c, 0, 83, 0
3, 102480, Note_on_c, 0, 83, 105
3, 102535, Note_on_c, 0, 83, 0
3, 102541, Note_on_c, 0, 72, 102
3, 102596, Note_on_c, 0, 72, 0
3, 102598, Note_on_c, 0, 72, 102
3, 102656, Note_on_c, 0, 72, 0
3, 102661, Note_on_c, 0, 83, 104
3, 102719, Note_on_c, 0, 83, 0
3, 102720, Note_on_c, 0, 81, 110
3, 102836, Note_on_c, 0, 81, 0
3, 102838, Note_on_c, 0, 81, 98
3, 102953, Note_on_c, 0, 81, 0
3, 102960, Note_on_c, 0, 81, 107
3, 103077, Note_on_c, 0, 81, 0
3, 103081, Note_on_c, 0, 81, 99
3, 103196, Note_on_c, 0, 81, 0
3, 103201, Note_on_c, 0, 80, 112
3, 103318, Note_on_c, 0, 80, 0
3, 103322, Note_on_c, 0, 78, 102
3, 103377, Note_on_c, 0, 78, 0
3, 103379, Note_on_c, 0, 80, 97
3, 103435, Note_on_c, 0, 80, 0
3, 103441, Note_on_c, 0, 81, 101
3, 103561, Note_on_c, 0, 81, 0
3, 103561, Note_on_c, 0, 83, 99
3, 103619, Note_on_c, 0, 83, 0
3, 103620, Note_on_c, 0, 81, 97
3, 103676, Note_on_c, 0, 81, 0
3, 103681, Note_on_c, 0, 80, 109
3, 103800, Note_on_c, 0, 78, 97
3, 103802, Note_on_c, 0, 80, 0
3, 103861, Note_on_c, 0, 78, 0
3, 103861, Note_on_c, 0, 80, 104
3, 103916, Note_on_c, 0, 80, 0
3, 103919, Note_on_c, 0, 81, 101
3, 104035, Note_on_c, 0, 81, 0
3, 104039, Note_on_c, 0, 83, 99
3, 104098, Note_on_c, 0, 83, 0
3, 104100, Note_on_c, 0, 81, 98
3, 104158, Note_on_c, 0, 81, 0
3, 104159, Note_on_c, 0, 80, 105
3, 104276, Note_on_c, 0, 80, 0
3, 104279, Note_on_c, 0, 78, 97
3, 104336, Note_on_c, 0, 78, 0
3, 104340, Note_on_c, 0, 76, 96
3, 104398, Note_on_c, 0, 76, 0
3, 104401, Note_on_c, 0, 77, 106
3, 104518, Note_on_c, 0, 76, 102
3, 104521, Note_on_c, 0, 77, 0
3, 104576, Note_on_c, 0, 76, 0
3, 104582, Note_on_c, 0, 74, 103
3, 104637, Note_on_c, 0, 74, 0
3, 104642, Note_on_c, 0, 76, 104
3, 104999, Note_on_c, 0, 77, 100
3, 105002, Note_on_c, 0, 76, 0
3, 105117, Note_on_c, 0, 77, 0
3, 105120, Note_on_c, 0, 76, 107
3, 105475, Note_on_c, 0, 76, 0
3, 105482, Note_on_c, 0, 77, 103
3, 105600, Note_on_c, 0, 77, 0
3, 105602, Note_on_c, 0, 76, 108
3, 105718, Note_on_c, 0, 74, 100
3, 105723, Note_on_c, 0, 76, 0
3, 105778, Note_on_c, 0, 74, 0
3, 105779, Note_on_c, 0, 76, 102
3, 105837, Note_on_c, 0, 76, 0
3, 105841, Note_on_c, 0, 77, 102
3, 105956, Note_on_c, 0, 77, 0
3, 105958, Note_on_c, 0, 77, 101
3, 106079, Note_on_c, 0, 77, 0
3, 106080, Note_on_c, 0, 76, 104
3, 106198, Note_on_c, 0, 76, 0
3, 106200, Note_on_c, 0, 74, 104
3, 106257, Note_on_c, 0, 74, 0
3, 106262, Note_on_c, 0, 76, 104
3, 106319, Note_on_c, 0, 77, 107
3, 106323, Note_on_c, 0, 76, 0
3, 106438, Note_on_c, 0, 77, 0
3, 106440, Note_on_c, 0, 77, 96
3, 106555, Note_on_c, 0, 77, 0
3, 106562, Note_on_c, 0, 76, 108
3, 106680, Note_on_c, 0, 76, 0
3, 106682, Note_on_c, 0, 78, 101
3, 106737, Note_on_c, 0, 78, 0
3, 106740, Note_on_c, 0, 80, 102
3, 106796, Note_on_c, 0, 80, 0
3, 106801, Note_on_c, 0, 81, 106
3, 106916, Note_on_c, 0, 81, 0
3, 106918, Note_on_c, 0, 81, 98
3, 106978, Note_on_c, 0, 81, 0
3, 106980, Note_on_c, 0, 83, 104
3, 107037, Note_on_c, 0, 83, 0
3, 107039, Note_on_c, 0, 84, 111
3, 107160, Note_on_c, 0, 84, 0
3, 107162, Note_on_c, 0, 84, 97
3, 107222, Note_on_c, 0, 84, 0
3, 107222, Note_on_c, 0, 86, 100
3, 107279, Note_on_c, 0, 88, 100
3, 107280, Note_on_c, 0, 86, 0
3, 107516, Note_on_c, 0, 88, 0
3, 107640, Note_on_c, 0, 81, 100
3, 107758, Note_on_c, 0, 81, 0
3, 107758, Note_on_c, 0, 76, 107
3, 107877, Note_on_c, 0, 76, 0
3, 107880, Note_on_c, 0, 80, 102
3, 107997, Note_on_c, 0, 80, 0
3, 108002, Note_on_c, 0, 81, 104
3, 108119, Note_on_c, 0, 76, 102
3, 108121, Note_on_c, 0, 81, 0
3, 108237, Note_on_c, 0, 76, 0
3, 108240, Note_on_c, 0, 81, 104
3, 108298, Note_on_c, 0, 81, 0
3, 108301, Note_on_c, 0, 84, 104
3, 108359, Note_on_c, 0, 83, 103
3, 108361, Note_on_c, 0, 84, 0
3, 108415, Note_on_c, 0, 83, 0
3, 108419, Note_on_c, 0, 86, 103
3, 108474, Note_on_c, 0, 86, 0
3, 108482, Note_on_c, 0, 84, 106
3, 108597, Note_on_c, 0, 84, 0
3, 108722, Note_on_c, 0, 83, 103
3, 108837, Note_on_c, 0, 83, 0
3, 108958, Note_on_c, 0, 81, 108
3, 109194, Note_on_c, 0, 81, 0
3, 109322, Note_on_c, 0, 81, 96
3, 109438, Note_on_c, 0, 81, 0
3, 109442, Note_on_c, 0, 79, 109
3, 109499, Note_on_c, 0, 79, 0
3, 109501, Note_on_c, 0, 81, 96
3, 109559, Note_on_c, 0, 77, 102
3, 109560, Note_on_c, 0, 81, 0
3, 109617, Note_on_c, 0, 77, 0
3, 109619, Note_on_c, 0, 79, 102
3, 109674, Note_on_c, 0, 79, 0
3, 109680, Note_on_c, 0, 76, 101
3, 109738, Note_on_c, 0, 76, 0
3, 109738, Note_on_c, 0, 77, 97
3, 109798, Note_on_c, 0, 77, 0
3, 109799, Note_on_c, 0, 74, 96
3, 109859, Note_on_c, 0, 74, 0
3, 109862, Note_on_c, 0, 76, 102
3, 109918, Note_on_c, 0, 76, 0
3, 109918, Note_on_c, 0, 72, 104
3, 109979, Note_on_c, 0, 72, 0
3, 109981, Note_on_c, 0, 74, 99
3, 110038, Note_on_c, 0, 74, 0
3, 110041, Note_on_c, 0, 71, 102
3, 110097, Note_on_c, 0, 71, 0
3, 110099, Note_on_c, 0, 72, 103
3, 110158, Note_on_c, 0, 72, 0
3, 110162, Note_on_c, 0, 69, 103
3, 110277, Note_on_c, 0, 69, 0
3, 110282, Note_on_c, 0, 81, 104
3, 110399, Note_on_c, 0, 79, 109
3, 110403, Note_on_c, 0, 81, 0
3, 110457, Note_on_c, 0, 79, 0
3, 110462, Note_on_c, 0, 81, 98
3, 110519, Note_on_c, 0, 81, 0
3, 110521, Note_on_c, 0, 77, 100
3, 110576, Note_on_c, 0, 77, 0
3, 110580, Note_on_c, 0, 79, 103
3, 110636, Note_on_c, 0, 79, 0
3, 110639, Note_on_c, 0, 76, 100
3, 110698, Note_on_c, 0, 77, 96
3, 110700, Note_on_c, 0, 76, 0
3, 110757, Note_on_c, 0, 77, 0
3, 110758, Note_on_c, 0, 74, 97
3, 110814, Note_on_c, 0, 74, 0
3, 110820, Note_on_c, 0, 76, 97
3, 110875, Note_on_c, 0, 76, 0
3, 110882, Note_on_c, 0, 72, 112
3, 110939, Note_on_c, 0, 74, 98
3, 110940, Note_on_c, 0, 72, 0
3, 110999, Note_on_c, 0, 71, 99
3, 111000, Note_on_c, 0, 74, 0
3, 111058, Note_on_c, 0, 71, 0
3, 111058, Note_on_c, 0, 72, 103
3, 111114, Note_on_c, 0, 72, 0
3, 111118, Note_on_c, 0, 69, 100
3, 111235, Note_on_c, 0, 69, 0
3, 111238, Note_on_c, 0, 76, 103
3, 111359, Note_on_c, 0, 76, 0
3, 111362, Note_on_c, 0, 76, 106
3, 111417, Note_on_c, 0, 76, 0
3, 111420, Note_on_c, 0, 79, 104
3, 111477, Note_on_c, 0, 79, 0
3, 111478, Note_on_c, 0, 77, 98
3, 111536, Note_on_c, 0, 77, 0
3, 111538, Note_on_c, 0, 79, 98
3, 111595, Note_on_c, 0, 79, 0
3, 111601, Note_on_c, 0, 76, 101
3, 111658, Note_on_c, 0, 76, 0
3, 111660, Note_on_c, 0, 79, 98
3, 111719, Note_on_c, 0, 79, 0
3, 111721, Note_on_c, 0, 77, 103
3, 111777, Note_on_c, 0, 77, 0
3, 111779, Note_on_c, 0, 76, 103
3, 111836, Note_on_c, 0, 76, 0
3, 111839, Note_on_c, 0, 81, 111
3, 111897, Note_on_c, 0, 81, 0
3, 111898, Note_on_c, 0, 79, 103
3, 111959, Note_on_c, 0, 79, 0
3, 111959, Note_on_c, 0, 77, 101
3, 112017, Note_on_c, 0, 77, 0
3, 112022, Note_on_c, 0, 76, 96
3, 112079, Note_on_c, 0, 76, 0
3, 112082, Note_on_c, 0, 81, 101
3, 112138, Note_on_c, 0, 79, 97
3, 112141, Note_on_c, 0, 81, 0
3, 112196, Note_on_c, 0, 79, 0
3, 112201, Note_on_c, 0, 77, 99
3, 112260, Note_on_c, 0, 77, 0
3, 112260, Note_on_c, 0, 76, 100
3, 112317, Note_on_c, 0, 76, 0
3, 112318, Note_on_c, 0, 77, 105
3, 112379, Note_on_c, 0, 77, 0
3, 112381, Note_on_c, 0, 74, 104
3, 112436, Note_on_c, 0, 74, 0
3, 112441, Note_on_c, 0, 73, 101
3, 112500, Note_on_c, 0, 73, 0
3, 112501, Note_on_c, 0, 74, 100
3, 112557, Note_on_c, 0, 74, 0
3, 112562, Note_on_c, 0, 77, 108
3, 112618, Note_on_c, 0, 77, 0
3, 112621, Note_on_c, 0, 74, 100
3, 112676, Note_on_c, 0, 74, 0
3, 112682, Note_on_c, 0, 73, 102
3, 112737, Note_on_c, 0, 73, 0
3, 112740, Note_on_c, 0, 74, 104
3, 112798, Note_on_c, 0, 79, 112
3, 112799, Note_on_c, 0, 74, 0
3, 112858, Note_on_c, 0, 79, 0
3, 112861, Note_on_c, 0, 77, 103
3, 112919, Note_on_c, 0, 77, 0
3, 112921, Note_on_c, 0, 76, 103
3, 112978, Note_on_c, 0, 74, 97
3, 112979, Note_on_c, 0, 76, 0
3, 113037, Note_on_c, 0, 74, 0
3, 113041, Note_on_c, 0, 79, 103
3, 113098, Note_on_c, 0, 79, 0
3, 113099, Note_on_c, 0, 77, 98
3, 113158, Note_on_c, 0, 77, 0
3, 113161, Note_on_c, 0, 76, 97
3, 113216, Note_on_c, 0, 76, 0
3, 113221, Note_on_c, 0, 74, 104
3, 113280, Note_on_c, 0, 76, 110
3, 113281, Note_on_c, 0, 74, 0
3, 113337, Note_on_c, 0, 76, 0
3, 113341, Note_on_c, 0, 72, 102
3, 113402, Note_on_c, 0, 72, 0
3, 113402, Note_on_c, 0, 71, 96
3, 113460, Note_on_c, 0, 71, 0
3, 113461, Note_on_c, 0, 72, 101
3, 113518, Note_on_c, 0, 76, 107
3, 113522, Note_on_c, 0, 72, 0
3, 113575, Note_on_c, 0, 76, 0
3, 113578, Note_on_c, 0, 72, 102
3, 113638, Note_on_c, 0, 72, 0
3, 113640, Note_on_c, 0, 71, 103
3, 113699, Note_on_c, 0, 71, 0
3, 113700, Note_on_c, 0, 72, 97
3, 113757, Note_on_c, 0, 72, 0
3, 113760, Note_on_c, 0, 77, 110
3, 113818, Note_on_c, 0, 76, 99
3, 113820, Note_on_c, 0, 77, 0
3, 113878, Note_on_c, 0, 76, 0
3, 113881, Note_on_c, 0, 74, 101
3, 113936, Note_on_c, 0, 74, 0
3, 113942, Note_on_c, 0, 72, 104
3, 113998, Note_on_c, 0, 77, 108
3, 114002, Note_on_c, 0, 72, 0
3, 114055, Note_on_c, 0, 77, 0
3, 114061, Note_on_c, 0, 76, 96
3, 114117, Note_on_c, 0, 76, 0
3, 114120, Note_on_c, 0, 74, 102
3, 114180, Note_on_c, 0, 74, 0
3, 114181, Note_on_c, 0, 72, 100
3, 114238, Note_on_c, 0, 74, 104
3, 114241, Note_on_c, 0, 72, 0
3, 114294, Note_on_c, 0, 74, 0
3, 114298, Note_on_c, 0, 71, 98
3, 114356, Note_on_c, 0, 71, 0
3, 114359, Note_on_c, 0, 69, 99
3, 114415, Note_on_c, 0, 69, 0
3, 114421, Note_on_c, 0, 71, 97
3, 114476, Note_on_c, 0, 71, 0
3, 114481, Note_on_c, 0, 74, 108
3, 114539, Note_on_c, 0, 71, 100
3, 114541, Note_on_c, 0, 74, 0
3, 114596, Note_on_c, 0, 71, 0
3, 114601, Note_on_c, 0, 69, 98
3, 114657, Note_on_c, 0, 69, 0
3, 114662, Note_on_c, 0, 71, 102
3, 114718, Note_on_c, 0, 71, 0
3, 114721, Note_on_c, 0, 76, 112
3, 114779, Note_on_c, 0, 76, 0
3, 114782, Note_on_c, 0, 74, 97
3, 114838, Note_on_c, 0, 74, 0
3, 114842, Note_on_c, 0, 72, 96
3, 114899, Note_on_c, 0, 72, 0
3, 114900, Note_on_c, 0, 71, 102
3, 114956, Note_on_c, 0, 71, 0
3, 114960, Note_on_c, 0, 76, 102
3, 115018, Note_on_c, 0, 74, 101
3, 115019, Note_on_c, 0, 76, 0
3, 115077, Note_on_c, 0, 74, 0
3, 115080, Note_on_c, 0, 72, 103
3, 115139, Note_on_c, 0, 72, 0
3, 115141, Note_on_c, 0, 71, 103
3, 115200, Note_on_c, 0, 71, 0
3, 115202, Note_on_c, 0, 72, 106
3, 115257, Note_on_c, 0, 72, 0
3, 115261, Note_on_c, 0, 69, 100
3, 115318, Note_on_c, 0, 69, 0
3, 115319, Note_on_c, 0, 72, 104
3, 115380, Note_on_c, 0, 72, 0
3, 115380, Note_on_c, 0, 76, 103
3, 115437, Note_on_c, 0, 76, 0
3, 115440, Note_on_c, 0, 81, 105
3, 115497, Note_on_c, 0, 81, 0
3, 115500, Note_on_c, 0, 83, 98
3, 115556, Note_on_c, 0, 83, 0
3, 115562, Note_on_c, 0, 81, 103
3, 115619, Note_on_c, 0, 81, 0
3, 115620, Note_on_c, 0, 83, 99
3, 115676, Note_on_c, 0, 83, 0
3, 115678, Note_on_c, 0, 72, 107
3, 115739, Note_on_c, 0, 72, 0
3, 115741, Note_on_c, 0, 69, 96
3, 115797, Note_on_c, 0, 69, 0
3, 115800, Note_on_c, 0, 72, 101
3, 115856, Note_on_c, 0, 72, 0
3, 115861, Note_on_c, 0, 76, 99
3, 115920, Note_on_c, 0, 76, 0
3, 115921, Note_on_c, 0, 81, 101
3, 115981, Note_on_c, 0, 81, 0
3, 115982, Note_on_c, 0, 83, 98
3, 116041, Note_on_c, 0, 83, 0
3, 116042, Note_on_c, 0, 81, 104
3, 116098, Note_on_c, 0, 81, 0
3, 116101, Note_on_c, 0, 83, 97
3, 116159, Note_on_c, 0, 75, 112
3, 116160, Note_on_c, 0, 83, 0
3, 116216, Note_on_c, 0, 75, 0
3, 116219, Note_on_c, 0, 72, 97
3, 116278, Note_on_c, 0, 72, 0
3, 116278, Note_on_c, 0, 75, 103
3, 116333, Note_on_c, 0, 75, 0
3, 116341, Note_on_c, 0, 78, 104
3, 116398, Note_on_c, 0, 81, 104
3, 116400, Note_on_c, 0, 78, 0
3, 116457, Note_on_c, 0, 81, 0
3, 116462, Note_on_c, 0, 84, 97
3, 116517, Note_on_c, 0, 84, 0
3, 116522, Note_on_c, 0, 81, 101
3, 116581, Note_on_c, 0, 84, 101
3, 116582, Note_on_c, 0, 81, 0
3, 116638, Note_on_c, 0, 84, 0
3, 116642, Note_on_c, 0, 75, 109
3, 116699, Note_on_c, 0, 71, 99
3, 116700, Note_on_c, 0, 75, 0
3, 116760, Note_on_c, 0, 71, 0
3, 116762, Note_on_c, 0, 75, 96
3, 116818, Note_on_c, 0, 78, 103
3, 116821, Note_on_c, 0, 75, 0
3, 116876, Note_on_c, 0, 78, 0
3, 116879, Note_on_c, 0, 81, 101
3, 116934, Note_on_c, 0, 81, 0
3, 116938, Note_on_c, 0, 83, 98
3, 116997, Note_on_c, 0, 83, 0
3, 117001, Note_on_c, 0, 81, 98
3, 117059, Note_on_c, 0, 81, 0
3, 117059, Note_on_c, 0, 83, 102
3, 117116, Note_on_c, 0, 83, 0
3, 117120, Note_on_c, 0, 79, 109
3, 117239, Note_on_c, 0, 79, 0
3, 117241, Note_on_c, 0, 78, 104
3, 117300, Note_on_c, 0, 76, 101
3, 117301, Note_on_c, 0, 78, 0
3, 117355, Note_on_c, 0, 76, 0
3, 117358, Note_on_c, 0, 75, 107
3, 117533, Note_on_c, 0, 75, 0
3, 117540, Note_on_c, 0, 76, 99
3, 117598, Note_on_c, 0, 76, 0
3, 117602, Note_on_c, 0, 76, 111
3, 117721, Note_on_c, 0, 71, 102
3, 117722, Note_on_c, 0, 76, 0
3, 117837, Note_on_c, 0, 71, 0
3, 117840, Note_on_c, 0, 76, 101
3, 117960, Note_on_c, 0, 76, 0
3, 117962, Note_on_c, 0, 78, 100
3, 118082, Note_on_c, 0, 78, 0
3, 118082, Note_on_c, 0, 79, 104
3, 118202, Note_on_c, 0, 79, 0
3, 118320, Note_on_c, 0, 78, 100
3, 118437, Note_on_c, 0, 78, 0
3, 118558, Note_on_c, 0, 76, 110
3, 118676, Note_on_c, 0, 76, 0
3, 118678, Note_on_c, 0, 71, 99
3, 118795, Note_on_c, 0, 71, 0
3, 118801, Note_on_c, 0, 76, 108
3, 118916, Note_on_c, 0, 76, 0
3, 118922, Note_on_c, 0, 78, 100
3, 119038, Note_on_c, 0, 79, 110
3, 119039, Note_on_c, 0, 78, 0
3, 119153, Note_on_c, 0, 79, 0
3, 119280, Note_on_c, 0, 78, 100
3, 119399, Note_on_c, 0, 78, 0
3, 119518, Note_on_c, 0, 76, 109
3, 119754, Note_on_c, 0, 76, 0
3, 119881, Note_on_c, 0, 71, 96
3, 120000, Note_on_c, 0, 71, 0
3, 120002, Note_on_c, 0, 79, 110
3, 120061, Note_on_c, 0, 79, 0
3, 120062, Note_on_c, 0, 81, 104
3, 120119, Note_on_c, 0, 79, 100
3, 120122, Note_on_c, 0, 81, 0
3, 120180, Note_on_c, 0, 79, 0
3, 120180, Note_on_c, 0, 81, 102
3, 120240, Note_on_c, 0, 81, 0
3, 120242, Note_on_c, 0, 79, 102
3, 120300, Note_on_c, 0, 79, 0
3, 120302, Note_on_c, 0, 81, 103
3, 120358, Note_on_c, 0, 81, 0
3, 120359, Note_on_c, 0, 79, 101
3, 120414, Note_on_c, 0, 79, 0
3, 120420, Note_on_c, 0, 81, 101
3, 120476, Note_on_c, 0, 81, 0
3, 120481, Note_on_c, 0, 79, 106
3, 120601, Note_on_c, 0, 79, 0
3, 120602, Note_on_c, 0, 78, 103
3, 120660, Note_on_c, 0, 79, 100
3, 120663, Note_on_c, 0, 78, 0
3, 120718, Note_on_c, 0, 79, 0
3, 120718, Note_on_c, 0, 81, 106
3, 120774, Note_on_c, 0, 81, 0
3, 120779, Note_on_c, 0, 79, 99
3, 120839, Note_on_c, 0, 79, 0
3, 120841, Note_on_c, 0, 78, 96
3, 120900, Note_on_c, 0, 78, 0
3, 120901, Note_on_c, 0, 76, 100
3, 120958, Note_on_c, 0, 76, 0
3, 120961, Note_on_c, 0, 78, 109
3, 121019, Note_on_c, 0, 78, 0
3, 121022, Note_on_c, 0, 79, 99
3, 121080, Note_on_c, 0, 78, 99
3, 121083, Note_on_c, 0, 79, 0
3, 121137, Note_on_c, 0, 78, 0
3, 121139, Note_on_c, 0, 79, 96
3, 121200, Note_on_c, 0, 79, 0
3, 121202, Note_on_c, 0, 78, 102
3, 121258, Note_on_c, 0, 78, 0
3, 121259, Note_on_c, 0, 79, 101
3, 121318, Note_on_c, 0, 79, 0
3, 121320, Note_on_c, 0, 78, 103
3, 121379, Note_on_c, 0, 78, 0
3, 121382, Note_on_c, 0, 79, 99
3, 121438, Note_on_c, 0, 79, 0
3, 121440, Note_on_c, 0, 78, 112
3, 121560, Note_on_c, 0, 76, 99
3, 121561, Note_on_c, 0, 78, 0
3, 121618, Note_on_c, 0, 76, 0
3, 121619, Note_on_c, 0, 78, 100
3, 121678, Note_on_c, 0, 78, 0
3, 121680, Note_on_c, 0, 79, 100
3, 121735, Note_on_c, 0, 79, 0
3, 121739, Note_on_c, 0, 78, 104
3, 121798, Note_on_c, 0, 78, 0
3, 121801, Note_on_c, 0, 76, 103
3, 121861, Note_on_c, 0, 76, 0
3, 121861, Note_on_c, 0, 75, 99
3, 121916, Note_on_c, 0, 75, 0
3, 121920, Note_on_c, 0, 76, 110
3, 121979, Note_on_c, 0, 76, 0
3, 121980, Note_on_c, 0, 78, 98
3, 122036, Note_on_c, 0, 78, 0
3, 122041, Note_on_c, 0, 76, 101
3, 122097, Note_on_c, 0, 76, 0
3, 122100, Note_on_c, 0, 78, 100
3, 122160, Note_on_c, 0, 78, 0
3, 122160, Note_on_c, 0, 76, 105
3, 122220, Note_on_c, 0, 78, 96
3, 122221, Note_on_c, 0, 76, 0
3, 122278, Note_on_c, 0, 76, 99
3, 122280, Note_on_c, 0, 78, 0
3, 122339, Note_on_c, 0, 76, 0
3, 122342, Note_on_c, 0, 78, 98
3, 122398, Note_on_c, 0, 76, 112
3, 122400, Note_on_c, 0, 78, 0
3, 122519, Note_on_c, 0, 76, 0
3, 122521, Note_on_c, 0, 75, 103
3, 122582, Note_on_c, 0, 75, 0
3, 122582, Note_on_c, 0, 76, 104
3, 122638, Note_on_c, 0, 78, 105
3, 122641, Note_on_c, 0, 76, 0
3, 122698, Note_on_c, 0, 78, 0
3, 122701, Note_on_c, 0, 76, 101
3, 122758, Note_on_c, 0, 75, 96
3, 122761, Note_on_c, 0, 76, 0
3, 122814, Note_on_c, 0, 75, 0
3, 122819, Note_on_c, 0, 73, 99
3, 122879, Note_on_c, 0, 73, 0
3, 122880, Note_on_c, 0, 75, 106
3, 122996, Note_on_c, 0, 75, 0
3, 122998, Note_on_c, 0, 73, 100
3, 123055, Note_on_c, 0, 73, 0
3, 123060, Note_on_c, 0, 75, 96
3, 123119, Note_on_c, 0, 75, 0
3, 123121, Note_on_c, 0, 71, 107
3, 123241, Note_on_c, 0, 71, 0
3, 123242, Note_on_c, 0, 83, 98
3, 123361, Note_on_c, 0, 80, 111
3, 123362, Note_on_c, 0, 83, 0
3, 123478, Note_on_c, 0, 78, 104
3, 123482, Note_on_c, 0, 80, 0
3, 123533, Note_on_c, 0, 78, 0
3, 123539, Note_on_c, 0, 80, 101
3, 123596, Note_on_c, 0, 80, 0
3, 123599, Note_on_c, 0, 81, 101
3, 123718, Note_on_c, 0, 81, 0
3, 123718, Note_on_c, 0, 83, 98
3, 123776, Note_on_c, 0, 83, 0
3, 123779, Note_on_c, 0, 81, 101
3, 123837, Note_on_c, 0, 81, 0
3, 123842, Note_on_c, 0, 80, 111
3, 123958, Note_on_c, 0, 78, 98
3, 123962, Note_on_c, 0, 80, 0
3, 124017, Note_on_c, 0, 78, 0
3, 124020, Note_on_c, 0, 80, 98
3, 124077, Note_on_c, 0, 80, 0
3, 124081, Note_on_c, 0, 81, 106
3, 124200, Note_on_c, 0, 81, 0
3, 124200, Note_on_c, 0, 83, 103
3, 124257, Note_on_c, 0, 83, 0
3, 124260, Note_on_c, 0, 81, 98
3, 124320, Note_on_c, 0, 81, 0
3, 124322, Note_on_c, 0, 80, 105
3, 124437, Note_on_c, 0, 80, 0
3, 124441, Note_on_c, 0, 78, 100
3, 124496, Note_on_c, 0, 78, 0
3, 124502, Note_on_c, 0, 76, 104
3, 124558, Note_on_c, 0, 77, 105
3, 124563, Note_on_c, 0, 76, 0
3, 124673, Note_on_c, 0, 77, 0
3, 124680, Note_on_c, 0, 76, 96
3, 124737, Note_on_c, 0, 76, 0
3, 124741, Note_on_c, 0, 74, 104
3, 124796, Note_on_c, 0, 74, 0
3, 124798, Note_on_c, 0, 76, 104
3, 125155, Note_on_c, 0, 76, 0
3, 125160, Note_on_c, 0, 77, 101
3, 125278, Note_on_c, 0, 77, 0
3, 125278, Note_on_c, 0, 76, 106
3, 125634, Note_on_c, 0, 76, 0
3, 125639, Note_on_c, 0, 77, 97
3, 125757, Note_on_c, 0, 77, 0
3, 125761, Note_on_c, 0, 76, 105
3, 125877, Note_on_c, 0, 76, 0
3, 125879, Note_on_c, 0, 74, 98
3, 125935, Note_on_c, 0, 74, 0
3, 125939, Note_on_c, 0, 76, 100
3, 125998, Note_on_c, 0, 76, 0
3, 126001, Note_on_c, 0, 77, 108
3, 126118, Note_on_c, 0, 77, 0
3, 126120, Note_on_c, 0, 77, 96
3, 126241, Note_on_c, 0, 77, 0
3, 126242, Note_on_c, 0, 76, 104
3, 126360, Note_on_c, 0, 76, 0
3, 126362, Note_on_c, 0, 74, 99
3, 126419, Note_on_c, 0, 74, 0
3, 126420, Note_on_c, 0, 76, 98
3, 126476, Note_on_c, 0, 76, 0
3, 126478, Note_on_c, 0, 77, 104
3, 126599, Note_on_c, 0, 77, 0
3, 126602, Note_on_c, 0, 77, 100
3, 126722, Note_on_c, 0, 77, 0
3, 126722, Note_on_c, 0, 76, 107
3, 126839, Note_on_c, 0, 76, 0
3, 126841, Note_on_c, 0, 78, 104
3, 126899, Note_on_c, 0, 80, 101
3, 126901, Note_on_c, 0, 78, 0
3, 126958, Note_on_c, 0, 80, 0
3, 126959, Note_on_c, 0, 81, 102
3, 127078, Note_on_c, 0, 81, 0
3, 127079, Note_on_c, 0, 81, 100
3, 127140, Note_on_c, 0, 81, 0
3, 127141, Note_on_c, 0, 83, 99
3, 127199, Note_on_c, 0, 84, 112
3, 127200, Note_on_c, 0, 83, 0
3, 127315, Note_on_c, 0, 84, 0
3, 127319, Note_on_c, 0, 84, 100
3, 127374, Note_on_c, 0, 84, 0
3, 127382, Note_on_c, 0, 86, 103
3, 127440, Note_on_c, 0, 86, 0
3, 127442, Note_on_c, 0, 88, 107
3, 127558, Note_on_c, 0, 76, 103
3, 127562, Note_on_c, 0, 88, 0
3, 127676, Note_on_c, 0, 76, 0
3, 127678, Note_on_c, 0, 81, 109
3, 127793, Note_on_c, 0, 81, 0
3, 127798, Note_on_c, 0, 81, 103
3, 127856, Note_on_c, 0, 81, 0
3, 127861, Note_on_c, 0, 83, 98
3, 127919, Note_on_c, 0, 83, 0
3, 127922, Note_on_c, 0, 84, 108
3, 128038, Note_on_c, 0, 84, 0
3, 128040, Note_on_c, 0, 84, 98
3, 128099, Note_on_c, 0, 86, 104
3, 128101, Note_on_c, 0, 84, 0
3, 128158, Note_on_c, 0, 86, 0
3, 128159, Note_on_c, 0, 88, 110
3, 128275, Note_on_c, 0, 88, 0
3, 128281, Note_on_c, 0, 76, 97
3, 128396, Note_on_c, 0, 76, 0
3, 128401, Note_on_c, 0, 76, 106
3, 128517, Note_on_c, 0, 76, 0
3, 128522, Note_on_c, 0, 76, 100
3, 128640, Note_on_c, 0, 76, 0
3, 128642, Note_on_c, 0, 81, 105
3, 128759, Note_on_c, 0, 81, 0
3, 128761, Note_on_c, 0, 81, 96
3, 128816, Note_on_c, 0, 81, 0
3, 128821, Note_on_c, 0, 83, 96
3, 128878, Note_on_c, 0, 83, 0
3, 128878, Note_on_c, 0, 84, 104
3, 128993, Note_on_c, 0, 84, 0
3, 128999, Note_on_c, 0, 84, 103
3, 129060, Note_on_c, 0, 84, 0
3, 129062, Note_on_c, 0, 86, 97
3, 129120, Note_on_c, 0, 88, 104
3, 129122, Note_on_c, 0, 86, 0
3, 129235, Note_on_c, 0, 88, 0
3, 129241, Note_on_c, 0, 76, 97
3, 129356, Note_on_c, 0, 76, 0
3, 129360, Note_on_c, 0, 76, 107
3, 129479, Note_on_c, 0, 76, 0
3, 129482, Note_on_c, 0, 76, 103
3, 129601, Note_on_c, 0, 81, 111
3, 129603, Note_on_c, 0, 76, 0
3, 129660, Note_on_c, 0, 81, 0
3, 129661, Note_on_c, 0, 69, 101
3, 129718, Note_on_c, 0, 73, 98
3, 129721, Note_on_c, 0, 69, 0
3, 129773, Note_on_c, 0, 73, 0
3, 129781, Note_on_c, 0, 76, 103
3, 129839, Note_on_c, 0, 81, 108
3, 129840, Note_on_c, 0, 76, 0
3, 129898, Note_on_c, 0, 81, 0
3, 129901, Note_on_c, 0, 69, 103
3, 129960, Note_on_c, 0, 69, 0
3, 129961, Note_on_c, 0, 73, 98
3, 130018, Note_on_c, 0, 76, 100
3, 130022, Note_on_c, 0, 73, 0
3, 130073, Note_on_c, 0, 76, 0
3, 130080, Note_on_c, 0, 81, 104
3, 130140, Note_on_c, 0, 69, 96
3, 130141, Note_on_c, 0, 81, 0
3, 130199, Note_on_c, 0, 73, 96
3, 130201, Note_on_c, 0, 69, 0
3, 130258, Note_on_c, 0, 73, 0
3, 130260, Note_on_c, 0, 76, 99
3, 130319, Note_on_c, 0, 81, 106
3, 130321, Note_on_c, 0, 76, 0
3, 130378, Note_on_c, 0, 81, 0
3, 130380, Note_on_c, 0, 69, 99
3, 130436, Note_on_c, 0, 69, 0
3, 130438, Note_on_c, 0, 73, 97
3, 130499, Note_on_c, 0, 73, 0
3, 130502, Note_on_c, 0, 76, 98
3, 130560, Note_on_c, 0, 79, 105
3, 130561, Note_on_c, 0, 76, 0
3, 130616, Note_on_c, 0, 79, 0
3, 130621, Note_on_c, 0, 69, 102
3, 130677, Note_on_c, 0, 69, 0
3, 130678, Note_on_c, 0, 73, 97
3, 130737, Note_on_c, 0, 73, 0
3, 130738, Note_on_c, 0, 76, 96
3, 130798, Note_on_c, 0, 76, 0
3, 130801, Note_on_c, 0, 79, 104
3, 130860, Note_on_c, 0, 79, 0
3, 130860, Note_on_c, 0, 69, 99
3, 130921, Note_on_c, 0, 69, 0
3, 130921, Note_on_c, 0, 73, 103
3, 130978, Note_on_c, 0, 76, 97
3, 130979, Note_on_c, 0, 73, 0
3, 131039, Note_on_c, 0, 76, 0
3, 131039, Note_on_c, 0, 79, 112
3, 131098, Note_on_c, 0, 79, 0
3, 131099, Note_on_c, 0, 69, 97
3, 131158, Note_on_c, 0, 69, 0
3, 131162, Note_on_c, 0, 73, 96
3, 131217, Note_on_c, 0, 73, 0
3, 131222, Note_on_c, 0, 76, 97
3, 131281, Note_on_c, 0, 79, 107
3, 131282, Note_on_c, 0, 76, 0
3, 131338, Note_on_c, 0, 69, 98
3, 131341, Note_on_c, 0, 79, 0
3, 131399, Note_on_c, 0, 69, 0
3, 131399, Note_on_c, 0, 73, 101
3, 131459, Note_on_c, 0, 73, 0
3, 131462, Note_on_c, 0, 76, 99
3, 131519, Note_on_c, 0, 76, 0
3, 131522, Note_on_c, 0, 78, 108
3, 131577, Note_on_c, 0, 78, 0
3, 131579, Note_on_c, 0, 62, 101
3, 131635, Note_on_c, 0, 62, 0
3, 131640, Note_on_c, 0, 66, 103
3, 131697, Note_on_c, 0, 66, 0
3, 131698, Note_on_c, 0, 69, 104
3, 131758, Note_on_c, 0, 74, 108
3, 131759, Note_on_c, 0, 69, 0
3, 131818, Note_on_c, 0, 74, 0
3, 131821, Note_on_c, 0, 62, 96
3, 131877, Note_on_c, 0, 62, 0
3, 131881, Note_on_c, 0, 66, 97
3, 131937, Note_on_c, 0, 66, 0
3, 131940, Note_on_c, 0, 69, 101
3, 132001, Note_on_c, 0, 69, 0
3, 132001, Note_on_c, 0, 74, 111
3, 132059, Note_on_c, 0, 74, 0
3, 132060, Note_on_c, 0, 62, 104
3, 132116, Note_on_c, 0, 62, 0
3, 132121, Note_on_c, 0, 66, 96
3, 132181, Note_on_c, 0, 69, 103
3, 132182, Note_on_c, 0, 66, 0
3, 132241, Note_on_c, 0, 69, 0
3, 132241, Note_on_c, 0, 74, 107
3, 132298, Note_on_c, 0, 74, 0
3, 132302, Note_on_c, 0, 62, 99
3, 132359, Note_on_c, 0, 62, 0
3, 132361, Note_on_c, 0, 66, 100
3, 132418, Note_on_c, 0, 69, 102
3, 132419, Note_on_c, 0, 66, 0
3, 132477, Note_on_c, 0, 69, 0
3, 132480, Note_on_c, 0, 72, 108
3, 132538, Note_on_c, 0, 62, 98
3, 132541, Note_on_c, 0, 72, 0
3, 132598, Note_on_c, 0, 62, 0
3, 132602, Note_on_c, 0, 66, 104
3, 132662, Note_on_c, 0, 66, 0
3, 132662, Note_on_c, 0, 69, 104
3, 132719, Note_on_c, 0, 69, 0
3, 132720, Note_on_c, 0, 72, 106
3, 132778, Note_on_c, 0, 72, 0
3, 132779, Note_on_c, 0, 62, 101
3, 132838, Note_on_c, 0, 66, 98
3, 132840, Note_on_c, 0, 62, 0
3, 132897, Note_on_c, 0, 66, 0
3, 132900, Note_on_c, 0, 69, 97
3, 132957, Note_on_c, 0, 69, 0
3, 132960, Note_on_c, 0, 72, 105
3, 133018, Note_on_c, 0, 72, 0
3, 133021, Note_on_c, 0, 62, 101
3, 133078, Note_on_c, 0, 66, 100
3, 133080, Note_on_c, 0, 62, 0
3, 133137, Note_on_c, 0, 66, 0
3, 133139, Note_on_c, 0, 69, 99
3, 133197, Note_on_c, 0, 69, 0
3, 133201, Note_on_c, 0, 72, 102
3, 133260, Note_on_c, 0, 72, 0
3, 133260, Note_on_c, 0, 62, 100
3, 133316, Note_on_c, 0, 62, 0
3, 133322, Note_on_c, 0, 66, 102
3, 133377, Note_on_c, 0, 66, 0
3, 133381, Note_on_c, 0, 69, 104
3, 133436, Note_on_c, 0, 69, 0
3, 133438, Note_on_c, 0, 71, 110
3, 133493, Note_on_c, 0, 71, 0
3, 133498, Note_on_c, 0, 67, 104
3, 133556, Note_on_c, 0, 67, 0
3, 133560, Note_on_c, 0, 69, 98
3, 133616, Note_on_c, 0, 69, 0
3, 133619, Note_on_c, 0, 71, 100
3, 133678, Note_on_c, 0, 71, 0
3, 133680, Note_on_c, 0, 72, 102
3, 133740, Note_on_c, 0, 72, 0
3, 133740, Note_on_c, 0, 74, 104
3, 133796, Note_on_c, 0, 74, 0
3, 133802, Note_on_c, 0, 76, 100
3, 133859, Note_on_c, 0, 77, 98
3, 133862, Note_on_c, 0, 76, 0
3, 133918, Note_on_c, 0, 77, 0
3, 133919, Note_on_c, 0, 79, 108
3, 133980, Note_on_c, 0, 79, 0
3, 133982, Note_on_c, 0, 72, 101
3, 134037, Note_on_c, 0, 72, 0
3, 134041, Note_on_c, 0, 74, 99
3, 134097, Note_on_c, 0, 74, 0
3, 134100, Note_on_c, 0, 76, 99
3, 134158, Note_on_c, 0, 76, 0
3, 134161, Note_on_c, 0, 77, 101
3, 134218, Note_on_c, 0, 79, 98
3, 134220, Note_on_c, 0, 77, 0
3, 134277, Note_on_c, 0, 79, 0
3, 134279, Note_on_c, 0, 81, 97
3, 134334, Note_on_c, 0, 81, 0
3, 134342, Note_on_c, 0, 83, 104
3, 134399, Note_on_c, 0, 83, 0
3, 134401, Note_on_c, 0, 84, 110
3, 134459, Note_on_c, 0, 84, 0
3, 134462, Note_on_c, 0, 79, 103
3, 134522, Note_on_c, 0, 76, 101
3, 134523, Note_on_c, 0, 79, 0
3, 134577, Note_on_c, 0, 76, 0
3, 134578, Note_on_c, 0, 79, 102
3, 134636, Note_on_c, 0, 79, 0
3, 134641, Note_on_c, 0, 84, 102
3, 134696, Note_on_c, 0, 84, 0
3, 134701, Note_on_c, 0, 79, 102
3, 134758, Note_on_c, 0, 76, 96
3, 134759, Note_on_c, 0, 79, 0
3, 134815, Note_on_c, 0, 76, 0
3, 134822, Note_on_c, 0, 79, 102
3, 134878, Note_on_c, 0, 84, 111
3, 134882, Note_on_c, 0, 79, 0
3, 134938, Note_on_c, 0, 84, 0
3, 134942, Note_on_c, 0, 79, 99
3, 135001, Note_on_c, 0, 76, 96
3, 135002, Note_on_c, 0, 79, 0
3, 135059, Note_on_c, 0, 76, 0
3, 135061, Note_on_c, 0, 79, 100
3, 135116, Note_on_c, 0, 79, 0
3, 135121, Note_on_c, 0, 84, 100
3, 135177, Note_on_c, 0, 84, 0
3, 135181, Note_on_c, 0, 79, 103
3, 135241, Note_on_c, 0, 76, 101
3, 135242, Note_on_c, 0, 79, 0
3, 135298, Note_on_c, 0, 76, 0
3, 135298, Note_on_c, 0, 79, 100
3, 135357, Note_on_c, 0, 79, 0
3, 135360, Note_on_c, 0, 84, 109
3, 135420, Note_on_c, 0, 84, 0
3, 135422, Note_on_c, 0, 79, 101
3, 135478, Note_on_c, 0, 74, 102
3, 135483, Note_on_c, 0, 79, 0
3, 135538, Note_on_c, 0, 74, 0
3, 135539, Note_on_c, 0, 79, 101
3, 135600, Note_on_c, 0, 79, 0
3, 135602, Note_on_c, 0, 84, 106
3, 135660, Note_on_c, 0, 84, 0
3, 135661, Note_on_c, 0, 79, 102
3, 135719, Note_on_c, 0, 79, 0
3, 135722, Note_on_c, 0, 74, 103
3, 135780, Note_on_c, 0, 79, 97
3, 135782, Note_on_c, 0, 74, 0
3, 135840, Note_on_c, 0, 79, 0
3, 135840, Note_on_c, 0, 84, 107
3, 135897, Note_on_c, 0, 84, 0
3, 135900, Note_on_c, 0, 79, 103
3, 135960, Note_on_c, 0, 79, 0
3, 135961, Note_on_c, 0, 74, 96
3, 136017, Note_on_c, 0, 74, 0
3, 136022, Note_on_c, 0, 79, 99
3, 136079, Note_on_c, 0, 79, 0
3, 136080, Note_on_c, 0, 84, 100
3, 136135, Note_on_c, 0, 84, 0
3, 136139, Note_on_c, 0, 79, 100
3, 136198, Note_on_c, 0, 74, 98
3, 136199, Note_on_c, 0, 79, 0
3, 136258, Note_on_c, 0, 74, 0
3, 136260, Note_on_c, 0, 79, 96
3, 136318, Note_on_c, 0, 79, 0
3, 136321, Note_on_c, 0, 83, 106
3, 136377, Note_on_c, 0, 83, 0
3, 136380, Note_on_c, 0, 79, 104
3, 136435, Note_on_c, 0, 79, 0
3, 136439, Note_on_c, 0, 74, 100
3, 136495, Note_on_c, 0, 74, 0
3, 136502, Note_on_c, 0, 79, 101
3, 136561, Note_on_c, 0, 79, 0
3, 136561, Note_on_c, 0, 83, 100
3, 136620, Note_on_c, 0, 79, 99
3, 136621, Note_on_c, 0, 83, 0
3, 136677, Note_on_c, 0, 79, 0
3, 136679, Note_on_c, 0, 74, 104
3, 136735, Note_on_c, 0, 74, 0
3, 136739, Note_on_c, 0, 79, 103
3, 136797, Note_on_c, 0, 79, 0
3, 136798, Note_on_c, 0, 83, 107
3, 136858, Note_on_c, 0, 83, 0
3, 136861, Note_on_c, 0, 79, 98
3, 136919, Note_on_c, 0, 79, 0
3, 136922, Note_on_c, 0, 74, 98
3, 136978, Note_on_c, 0, 79, 96
3, 136979, Note_on_c, 0, 74, 0
3, 137037, Note_on_c, 0, 79, 0
3, 137041, Note_on_c, 0, 83, 108
3, 137098, Note_on_c, 0, 79, 97
3, 137102, Note_on_c, 0, 83, 0
3, 137155, Note_on_c, 0, 79, 0
3, 137158, Note_on_c, 0, 74, 96
3, 137214, Note_on_c, 0, 74, 0
3, 137218, Note_on_c, 0, 83, 97
3, 137279, Note_on_c, 0, 83, 0
3, 137279, Note_on_c, 0, 84, 106
3, 137398, Note_on_c, 0, 84, 0
3, 137401, Note_on_c, 0, 67, 103
3, 137518, Note_on_c, 0, 72, 105
3, 137520, Note_on_c, 0, 67, 0
3, 137635, Note_on_c, 0, 72, 0
3, 137639, Note_on_c, 0, 74, 96
3, 137759, Note_on_c, 0, 74, 0
3, 137759, Note_on_c, 0, 76, 106
3, 137879, Note_on_c, 0, 76, 0
3, 138001, Note_on_c, 0, 74, 101
3, 138121, Note_on_c, 0, 74, 0
3, 138239, Note_on_c, 0, 72, 105
3, 138356, Note_on_c, 0, 72, 0
3, 138362, Note_on_c, 0, 67, 101
3, 138477, Note_on_c, 0, 67, 0
3, 138482, Note_on_c, 0, 72, 101
3, 138600, Note_on_c, 0, 74, 101
3, 138601, Note_on_c, 0, 72, 0
3, 138720, Note_on_c, 0, 76, 104
3, 138721, Note_on_c, 0, 74, 0
3, 138839, Note_on_c, 0, 76, 0
3, 138962, Note_on_c, 0, 74, 104
3, 139080, Note_on_c, 0, 74, 0
3, 139200, Note_on_c, 0, 72, 110
3, 139436, Note_on_c, 0, 72, 0
3, 139558, Note_on_c, 0, 76, 99
3, 139676, Note_on_c, 0, 76, 0
3, 139679, Note_on_c, 0, 81, 104
3, 139795, Note_on_c, 0, 81, 0
3, 139799, Note_on_c, 0, 81, 98
3, 139918, Note_on_c, 0, 81, 0
3, 139920, Note_on_c, 0, 81, 106
3, 140037, Note_on_c, 0, 81, 0
3, 140039, Note_on_c, 0, 81, 103
3, 140156, Note_on_c, 0, 81, 0
3, 140158, Note_on_c, 0, 81, 109
3, 140278, Note_on_c, 0, 81, 0
3, 140278, Note_on_c, 0, 79, 103
3, 140335, Note_on_c, 0, 79, 0
3, 140342, Note_on_c, 0, 78, 96
3, 140399, Note_on_c, 0, 78, 0
3, 140400, Note_on_c, 0, 83, 107
3, 140517, Note_on_c, 0, 83, 0
3, 140521, Note_on_c, 0, 81, 104
3, 140640, Note_on_c, 0, 81, 0
3, 140640, Note_on_c, 0, 79, 109
3, 140758, Note_on_c, 0, 78, 101
3, 140761, Note_on_c, 0, 79, 0
3, 140819, Note_on_c, 0, 78, 0
3, 140822, Note_on_c, 0, 76, 101
3, 140878, Note_on_c, 0, 76, 0
3, 140878, Note_on_c, 0, 71, 105
3, 140998, Note_on_c, 0, 71, 0
3, 141001, Note_on_c, 0, 75, 97
3, 141119, Note_on_c, 0, 75, 0
3, 141120, Note_on_c, 0, 76, 112
3, 141241, Note_on_c, 0, 76, 0
3, 141241, Note_on_c, 0, 71, 98
3, 141360, Note_on_c, 0, 76, 100
3, 141362, Note_on_c, 0, 71, 0
3, 141479, Note_on_c, 0, 76, 0
3, 141480, Note_on_c, 0, 78, 98
3, 141595, Note_on_c, 0, 78, 0
3, 141602, Note_on_c, 0, 79, 106
3, 141718, Note_on_c, 0, 79, 0
3, 141841, Note_on_c, 0, 78, 103
3, 141958, Note_on_c, 0, 78, 0
3, 142079, Note_on_c, 0, 76, 111
3, 142199, Note_on_c, 0, 76, 0
3, 142199, Note_on_c, 0, 71, 98
3, 142315, Note_on_c, 0, 71, 0
3, 142320, Note_on_c, 0, 76, 108
3, 142437, Note_on_c, 0, 76, 0
3, 142441, Note_on_c, 0, 78, 99
3, 142558, Note_on_c, 0, 78, 0
3, 142558, Note_on_c, 0, 79, 110
3, 142679, Note_on_c, 0, 79, 0
3, 142801, Note_on_c, 0, 78, 101
3, 142921, Note_on_c, 0, 78, 0
3, 143041, Note_on_c, 0, 76, 104
3, 143277, Note_on_c, 0, 76, 0
3, 143398, Note_on_c, 0, 76, 101
3, 143515, Note_on_c, 0, 76, 0
3, 143521, Note_on_c, 0, 84, 107
3, 143637, Note_on_c, 0, 84, 0
3, 143640, Note_on_c, 0, 84, 99
3, 143761, Note_on_c, 0, 84, 0
3, 143762, Note_on_c, 0, 84, 106
3, 143878, Note_on_c, 0, 84, 0
3, 143879, Note_on_c, 0, 84, 104
3, 143997, Note_on_c, 0, 84, 0
3, 143999, Note_on_c, 0, 84, 106
3, 144059, Note_on_c, 0, 84, 0
3, 144061, Note_on_c, 0, 74, 104
3, 144116, Note_on_c, 0, 74, 0
3, 144118, Note_on_c, 0, 74, 99
3, 144177, Note_on_c, 0, 74, 0
3, 144179, Note_on_c, 0, 84, 104
3, 144235, Note_on_c, 0, 84, 0
3, 144238, Note_on_c, 0, 84, 105
3, 144295, Note_on_c, 0, 84, 0
3, 144301, Note_on_c, 0, 74, 97
3, 144357, Note_on_c, 0, 74, 0
3, 144362, Note_on_c, 0, 74, 98
3, 144421, Note_on_c, 0, 84, 99
3, 144422, Note_on_c, 0, 74, 0
3, 144482, Note_on_c, 0, 84, 0
3, 144482, Note_on_c, 0, 83, 108
3, 144599, Note_on_c, 0, 83, 0
3, 144601, Note_on_c, 0, 83, 98
3, 144716, Note_on_c, 0, 83, 0
3, 144719, Note_on_c, 0, 83, 101
3, 144839, Note_on_c, 0, 83, 0
3, 144842, Note_on_c, 0, 83, 96
3, 144958, Note_on_c, 0, 83, 0
3, 144960, Note_on_c, 0, 83, 104
3, 145018, Note_on_c, 0, 83, 0
3, 145022, Note_on_c, 0, 72, 102
3, 145076, Note_on_c, 0, 72, 0
3, 145078, Note_on_c, 0, 72, 103
3, 145135, Note_on_c, 0, 72, 0
3, 145140, Note_on_c, 0, 83, 102
3, 145195, Note_on_c, 0, 83, 0
3, 145201, Note_on_c, 0, 83, 107
3, 145256, Note_on_c, 0, 83, 0
3, 145258, Note_on_c, 0, 72, 96
3, 145316, Note_on_c, 0, 72, 0
3, 145318, Note_on_c, 0, 72, 100
3, 145373, Note_on_c, 0, 72, 0
3, 145380, Note_on_c, 0, 83, 101
3, 145437, Note_on_c, 0, 83, 0
3, 145441, Note_on_c, 0, 81, 112
3, 145556, Note_on_c, 0, 81, 0
3, 145558, Note_on_c, 0, 81, 98
3, 145674, Note_on_c, 0, 81, 0
3, 145679, Note_on_c, 0, 81, 105
3, 145797, Note_on_c, 0, 81, 0
3, 145802, Note_on_c, 0, 81, 102
3, 145918, Note_on_c, 0, 80, 111
3, 145919, Note_on_c, 0, 81, 0
3, 145978, Note_on_c, 0, 80, 0
3, 145982, Note_on_c, 0, 76, 104
3, 146038, Note_on_c, 0, 80, 103
3, 146041, Note_on_c, 0, 76, 0
3, 146097, Note_on_c, 0, 80, 0
3, 146099, Note_on_c, 0, 76, 101
3, 146160, Note_on_c, 0, 76, 0
3, 146160, Note_on_c, 0, 83, 102
3, 146219, Note_on_c, 0, 83, 0
3, 146222, Note_on_c, 0, 76, 103
3, 146280, Note_on_c, 0, 80, 97
3, 146281, Note_on_c, 0, 76, 0
3, 146338, Note_on_c, 0, 76, 100
3, 146339, Note_on_c, 0, 80, 0
3, 146393, Note_on_c, 0, 76, 0
3, 146399, Note_on_c, 0, 83, 110
3, 146456, Note_on_c, 0, 83, 0
3, 146462, Note_on_c, 0, 76, 99
3, 146517, Note_on_c, 0, 76, 0
3, 146521, Note_on_c, 0, 80, 104
3, 146581, Note_on_c, 0, 80, 0
3, 146581, Note_on_c, 0, 76, 96
3, 146642, Note_on_c, 0, 76, 0
3, 146642, Note_on_c, 0, 83, 103
3, 146701, Note_on_c, 0, 83, 0
3, 146702, Note_on_c, 0, 76, 96
3, 146758, Note_on_c, 0, 80, 102
3, 146759, Note_on_c, 0, 76, 0
3, 146816, Note_on_c, 0, 80, 0
3, 146818, Note_on_c, 0, 76, 98
3, 146873, Note_on_c, 0, 76, 0
3, 146880, Note_on_c, 0, 81, 105
3, 146938, Note_on_c, 0, 81, 0
3, 146942, Note_on_c, 0, 76, 98
3, 146998, Note_on_c, 0, 76, 0
3, 147001, Note_on_c, 0, 76, 97
3, 147057, Note_on_c, 0, 76, 0
3, 147059, Note_on_c, 0, 76, 103
3, 147116, Note_on_c, 0, 76, 0
3, 147120, Note_on_c, 0, 81, 106
3, 147178, Note_on_c, 0, 81, 0
3, 147179, Note_on_c, 0, 76, 96
3, 147238, Note_on_c, 0, 76, 0
3, 147239, Note_on_c, 0, 76, 100
3, 147296, Note_on_c, 0, 76, 0
3, 147298, Note_on_c, 0, 76, 96
3, 147357, Note_on_c, 0, 76, 0
3, 147361, Note_on_c, 0, 83, 112
3, 147420, Note_on_c, 0, 83, 0
3, 147422, Note_on_c, 0, 76, 96
3, 147477, Note_on_c, 0, 76, 0
3, 147479, Note_on_c, 0, 76, 101
3, 147540, Note_on_c, 0, 76, 0
3, 147542, Note_on_c, 0, 76, 104
3, 147601, Note_on_c, 0, 83, 105
3, 147602, Note_on_c, 0, 76, 0
3, 147656, Note_on_c, 0, 83, 0
3, 147661, Note_on_c, 0, 76, 103
3, 147717, Note_on_c, 0, 76, 0
3, 147721, Note_on_c, 0, 76, 99
3, 147779, Note_on_c, 0, 76, 0
3, 147782, Note_on_c, 0, 76, 99
3, 147837, Note_on_c, 0, 76, 0
3, 147841, Note_on_c, 0, 84, 107
3, 147899, Note_on_c, 0, 76, 101
3, 147902, Note_on_c, 0, 84, 0
3, 147957, Note_on_c, 0, 76, 0
3, 147959, Note_on_c, 0, 76, 103
3, 148017, Note_on_c, 0, 76, 0
3, 148019, Note_on_c, 0, 76, 104
3, 148078, Note_on_c, 0, 76, 0
3, 148082, Note_on_c, 0, 84, 102
3, 148138, Note_on_c, 0, 76, 96
3, 148142, Note_on_c, 0, 84, 0
3, 148197, Note_on_c, 0, 76, 0
3, 148200, Note_on_c, 0, 76, 101
3, 148258, Note_on_c, 0, 76, 0
3, 148260, Note_on_c, 0, 76, 96
3, 148317, Note_on_c, 0, 76, 0
3, 148320, Note_on_c, 0, 86, 109
3, 148381, Note_on_c, 0, 86, 0
3, 148381, Note_on_c, 0, 76, 99
3, 148437, Note_on_c, 0, 76, 0
3, 148439, Note_on_c, 0, 76, 104
3, 148496, Note_on_c, 0, 76, 0
3, 148498, Note_on_c, 0, 76, 101
3, 148554, Note_on_c, 0, 76, 0
3, 148558, Note_on_c, 0, 86, 101
3, 148613, Note_on_c, 0, 86, 0
3, 148621, Note_on_c, 0, 76, 99
3, 148677, Note_on_c, 0, 76, 0
3, 148679, Note_on_c, 0, 76, 99
3, 148740, Note_on_c, 0, 76, 0
3, 148742, Note_on_c, 0, 76, 101
3, 148800, Note_on_c, 0, 88, 111
3, 148801, Note_on_c, 0, 76, 0
3, 148915, Note_on_c, 0, 88, 0
3, 148919, Note_on_c, 0, 76, 96
3, 149034, Note_on_c, 0, 76, 0
3, 149039, Note_on_c, 0, 81, 100
3, 149156, Note_on_c, 0, 81, 0
3, 149162, Note_on_c, 0, 83, 99
3, 149278, Note_on_c, 0, 84, 106
3, 149279, Note_on_c, 0, 83, 0
3, 149396, Note_on_c, 0, 84, 0
3, 149521, Note_on_c, 0, 83, 102
3, 149641, Note_on_c, 0, 83, 0
3, 149761, Note_on_c, 0, 81, 111
3, 150001, Note_on_c, 0, 81, 0
3, 150119, Note_on_c, 0, 81, 103
3, 150238, Note_on_c, 0, 81, 0
3, 150238, Note_on_c, 0, 79, 106
3, 150359, Note_on_c, 0, 79, 0
3, 150362, Note_on_c, 0, 77, 97
3, 150480, Note_on_c, 0, 77, 0
3, 150481, Note_on_c, 0, 76, 105
3, 150598, Note_on_c, 0, 74, 100
3, 150602, Note_on_c, 0, 76, 0
3, 150714, Note_on_c, 0, 74, 0
3, 150719, Note_on_c, 0, 72, 112
3, 150835, Note_on_c, 0, 72, 0
3, 150841, Note_on_c, 0, 71, 99
3, 150957, Note_on_c, 0, 71, 0
3, 150962, Note_on_c, 0, 69, 103
3, 151079, Note_on_c, 0, 71, 99
3, 151080, Note_on_c, 0, 69, 0
3, 151196, Note_on_c, 0, 71, 0
3, 151201, Note_on_c, 0, 72, 107
3, 151317, Note_on_c, 0, 72, 0
3, 151439, Note_on_c, 0, 74, 105
3, 151559, Note_on_c, 0, 74, 0
3, 151682, Note_on_c, 0, 76, 111
3, 151922, Note_on_c, 0, 76, 0
3, 152038, Note_on_c, 0, 76, 99
3, 152158, Note_on_c, 0, 76, 0
3, 152158, Note_on_c, 0, 84, 107
3, 152215, Note_on_c, 0, 84, 0
3, 152219, Note_on_c, 0, 86, 104
3, 152277, Note_on_c, 0, 86, 0
3, 152281, Note_on_c, 0, 84, 100
3, 152340, Note_on_c, 0, 86, 99
3, 152342, Note_on_c, 0, 84, 0
3, 152395, Note_on_c, 0, 86, 0
3, 152399, Note_on_c, 0, 84, 105
3, 152459, Note_on_c, 0, 84, 0
3, 152459, Note_on_c, 0, 86, 102
3, 152516, Note_on_c, 0, 86, 0
3, 152520, Note_on_c, 0, 84, 96
3, 152578, Note_on_c, 0, 84, 0
3, 152578, Note_on_c, 0, 86, 97
3, 152634, Note_on_c, 0, 86, 0
3, 152642, Note_on_c, 0, 84, 105
3, 152760, Note_on_c, 0, 83, 96
3, 152761, Note_on_c, 0, 84, 0
3, 152817, Note_on_c, 0, 83, 0
3, 152820, Note_on_c, 0, 84, 98
3, 152876, Note_on_c, 0, 84, 0
3, 152879, Note_on_c, 0, 86, 104
3, 152939, Note_on_c, 0, 84, 101
3, 152940, Note_on_c, 0, 86, 0
3, 152997, Note_on_c, 0, 84, 0
3, 153001, Note_on_c, 0, 83, 98
3, 153058, Note_on_c, 0, 81, 96
3, 153061, Note_on_c, 0, 83, 0
3, 153119, Note_on_c, 0, 81, 0
3, 153120, Note_on_c, 0, 83, 109
3, 153179, Note_on_c, 0, 83, 0
3, 153179, Note_on_c, 0, 84, 97
3, 153235, Note_on_c, 0, 84, 0
3, 153242, Note_on_c, 0, 83, 98
3, 153300, Note_on_c, 0, 83, 0
3, 153302, Note_on_c, 0, 84, 103
3, 153358, Note_on_c, 0, 83, 103
3, 153361, Note_on_c, 0, 84, 0
3, 153418, Note_on_c, 0, 83, 0
3, 153420, Note_on_c, 0, 84, 104
3, 153481, Note_on_c, 0, 84, 0
3, 153482, Note_on_c, 0, 83, 97
3, 153541, Note_on_c, 0, 86, 96
3, 153543, Note_on_c, 0, 83, 0
3, 153599, Note_on_c, 0, 86, 0
3, 153600, Note_on_c, 0, 83, 108
3, 153715, Note_on_c, 0, 83, 0
3, 153721, Note_on_c, 0, 81, 98
3, 153776, Note_on_c, 0, 81, 0
3, 153779, Note_on_c, 0, 83, 96
3, 153838, Note_on_c, 0, 83, 0
3, 153842, Note_on_c, 0, 84, 105
3, 153899, Note_on_c, 0, 83, 102
3, 153903, Note_on_c, 0, 84, 0
3, 153958, Note_on_c, 0, 83, 0
3, 153958, Note_on_c, 0, 81, 96
3, 154017, Note_on_c, 0, 81, 0
3, 154022, Note_on_c, 0, 80, 104
3, 154081, Note_on_c, 0, 80, 0
3, 154082, Note_on_c, 0, 81, 107
3, 154138, Note_on_c, 0, 81, 0
3, 154140, Note_on_c, 0, 83, 104
3, 154200, Note_on_c, 0, 83, 0
3, 154202, Note_on_c, 0, 81, 100
3, 154259, Note_on_c, 0, 81, 0
3, 154259, Note_on_c, 0, 83, 98
3, 154320, Note_on_c, 0, 83, 0
3, 154322, Note_on_c, 0, 81, 102
3, 154377, Note_on_c, 0, 81, 0
3, 154382, Note_on_c, 0, 83, 100
3, 154442, Note_on_c, 0, 81, 98
3, 154443, Note_on_c, 0, 83, 0
3, 154497, Note_on_c, 0, 81, 0
3, 154499, Note_on_c, 0, 83, 99
3, 154556, Note_on_c, 0, 83, 0
3, 154559, Note_on_c, 0, 80, 110
3, 154676, Note_on_c, 0, 80, 0
3, 154682, Note_on_c, 0, 78, 103
3, 154739, Note_on_c, 0, 78, 0
3, 154739, Note_on_c, 0, 80, 99
3, 154794, Note_on_c, 0, 80, 0
3, 154798, Note_on_c, 0, 81, 103
3, 154915, Note_on_c, 0, 81, 0
3, 154919, Note_on_c, 0, 83, 102
3, 154975, Note_on_c, 0, 83, 0
3, 154978, Note_on_c, 0, 81, 102
3, 155038, Note_on_c, 0, 81, 0
3, 155042, Note_on_c, 0, 80, 104
3, 155160, Note_on_c, 0, 80, 0
3, 155160, Note_on_c, 0, 78, 96
3, 155215, Note_on_c, 0, 78, 0
3, 155222, Note_on_c, 0, 80, 102
3, 155280, Note_on_c, 0, 81, 107
3, 155283, Note_on_c, 0, 80, 0
3, 155397, Note_on_c, 0, 81, 0
3, 155401, Note_on_c, 0, 83, 101
3, 155459, Note_on_c, 0, 83, 0
3, 155459, Note_on_c, 0, 81, 99
3, 155517, Note_on_c, 0, 81, 0
3, 155519, Note_on_c, 0, 80, 108
3, 155638, Note_on_c, 0, 80, 0
3, 155640, Note_on_c, 0, 78, 96
3, 155698, Note_on_c, 0, 78, 0
3, 155702, Note_on_c, 0, 76, 99
3, 155759, Note_on_c, 0, 77, 101
3, 155761, Note_on_c, 0, 76, 0
3, 155878, Note_on_c, 0, 77, 0
3, 155879, Note_on_c, 0, 76, 99
3, 155935, Note_on_c, 0, 76, 0
3, 155941, Note_on_c, 0, 74, 104
3, 155998, Note_on_c, 0, 74, 0
3, 156002, Note_on_c, 0, 76, 106
3, 156058, Note_on_c, 0, 81, 98
3, 156062, Note_on_c, 0, 76, 0
3, 156119, Note_on_c, 0, 81, 0
3, 156122, Note_on_c, 0, 80, 97
3, 156179, Note_on_c, 0, 81, 99
3, 156180, Note_on_c, 0, 80, 0
3, 156239, Note_on_c, 0, 81, 0
3, 156239, Note_on_c, 0, 76, 101
3, 156359, Note_on_c, 0, 76, 0
3, 156359, Note_on_c, 0, 77, 98
3, 156479, Note_on_c, 0, 76, 105
3, 156480, Note_on_c, 0, 77, 0
3, 156538, Note_on_c, 0, 81, 97
3, 156539, Note_on_c, 0, 76, 0
3, 156594, Note_on_c, 0, 81, 0
3, 156600, Note_on_c, 0, 80, 99
3, 156659, Note_on_c, 0, 80, 0
3, 156662, Note_on_c, 0, 81, 96
3, 156720, Note_on_c, 0, 81, 0
3, 156721, Note_on_c, 0, 76, 104
3, 156841, Note_on_c, 0, 76, 0
3, 156841, Note_on_c, 0, 77, 104
3, 156960, Note_on_c, 0, 76, 111
3, 156961, Note_on_c, 0, 77, 0
3, 157079, Note_on_c, 0, 74, 100
3, 157080, Note_on_c, 0, 76, 0
3, 157138, Note_on_c, 0, 74, 0
3, 157138, Note_on_c, 0, 76, 104
3, 157197, Note_on_c, 0, 76, 0
3, 157201, Note_on_c, 0, 77, 101
3, 157318, Note_on_c, 0, 77, 0
3, 157320, Note_on_c, 0, 77, 100
3, 157441, Note_on_c, 0, 77, 0
3, 157442, Note_on_c, 0, 76, 108
3, 157561, Note_on_c, 0, 74, 102
3, 157563, Note_on_c, 0, 76, 0
3, 157619, Note_on_c, 0, 74, 0
3, 157620, Note_on_c, 0, 76, 98
3, 157676, Note_on_c, 0, 76, 0
3, 157678, Note_on_c, 0, 77, 108
3, 157797, Note_on_c, 0, 77, 0
3, 157801, Note_on_c, 0, 77, 98
3, 157920, Note_on_c, 0, 77, 0
3, 157920, Note_on_c, 0, 76, 106
3, 158039, Note_on_c, 0, 76, 0
3, 158039, Note_on_c, 0, 78, 103
3, 158100, Note_on_c, 0, 78, 0
3, 158101, Note_on_c, 0, 80, 103
3, 158159, Note_on_c, 0, 80, 0
3, 158159, Note_on_c, 0, 81, 105
3, 158275, Note_on_c, 0, 81, 0
3, 158280, Note_on_c, 0, 81, 103
3, 158338, Note_on_c, 0, 81, 0
3, 158341, Note_on_c, 0, 83, 96
3, 158397, Note_on_c, 0, 83, 0
3, 158398, Note_on_c, 0, 84, 106
3, 158519, Note_on_c, 0, 84, 0
3, 158521, Note_on_c, 0, 84, 98
3, 158577, Note_on_c, 0, 84, 0
3, 158578, Note_on_c, 0, 86, 104
3, 158634, Note_on_c, 0, 86, 0
3, 158641, Note_on_c, 0, 88, 107
3, 158759, Note_on_c, 0, 76, 100
3, 158761, Note_on_c, 0, 88, 0
3, 158878, Note_on_c, 0, 76, 0
3, 158880, Note_on_c, 0, 77, 110
3, 158998, Note_on_c, 0, 77, 0
3, 159000, Note_on_c, 0, 76, 98
3, 159118, Note_on_c, 0, 81, 108
3, 159119, Note_on_c, 0, 76, 0
3, 159238, Note_on_c, 0, 72, 100
3, 159239, Note_on_c, 0, 81, 0
3, 159359, Note_on_c, 0, 72, 0
3, 159361, Note_on_c, 0, 71, 104
3, 159480, Note_on_c, 0, 71, 0
3, 159481, Note_on_c, 0, 81, 103
3, 159599, Note_on_c, 0, 81, 0
3, 159600, Note_on_c, 0, 71, 100
3, 159718, Note_on_c, 0, 71, 0
3, 159722, Note_on_c, 0, 80, 98
3, 159837, Note_on_c, 0, 80, 0
3, 159841, Note_on_c, 0, 81, 107
3, 159961, Note_on_c, 0, 81, 0
3, 159961, Note_on_c, 0, 76, 101
3, 160081, Note_on_c, 0, 81, 104
3, 160082, Note_on_c, 0, 76, 0
3, 160199, Note_on_c, 0, 81, 0
3, 160200, Note_on_c, 0, 81, 99
3, 160316, Note_on_c, 0, 81, 0
3, 160321, Note_on_c, 0, 80, 105
3, 160376, Note_on_c, 0, 80, 0
3, 160380, Note_on_c, 0, 78, 104
3, 160439, Note_on_c, 0, 76, 96
3, 160441, Note_on_c, 0, 78, 0
3, 160498, Note_on_c, 0, 78, 96
3, 160499, Note_on_c, 0, 76, 0
3, 160553, Note_on_c, 0, 78, 0
3, 160562, Note_on_c, 0, 79, 108
3, 160677, Note_on_c, 0, 79, 0
3, 160681, Note_on_c, 0, 81, 99
3, 160801, Note_on_c, 0, 81, 0
3, 160802, Note_on_c, 0, 78, 110
3, 160859, Note_on_c, 0, 78, 0
3, 160862, Note_on_c, 0, 76, 97
3, 160921, Note_on_c, 0, 74, 96
3, 160922, Note_on_c, 0, 76, 0
3, 160976, Note_on_c, 0, 74, 0
3, 160980, Note_on_c, 0, 76, 99
3, 161037, Note_on_c, 0, 76, 0
3, 161041, Note_on_c, 0, 77, 106
3, 161156, Note_on_c, 0, 77, 0
3, 161161, Note_on_c, 0, 79, 100
3, 161276, Note_on_c, 0, 79, 0
3, 161278, Note_on_c, 0, 76, 111
3, 161335, Note_on_c, 0, 76, 0
3, 161340, Note_on_c, 0, 74, 103
3, 161395, Note_on_c, 0, 74, 0
3, 161402, Note_on_c, 0, 72, 98
3, 161458, Note_on_c, 0, 72, 0
3, 161460, Note_on_c, 0, 74, 100
3, 161519, Note_on_c, 0, 74, 0
3, 161520, Note_on_c, 0, 76, 107
3, 161640, Note_on_c, 0, 76, 0
3, 161640, Note_on_c, 0, 77, 97
3, 161757, Note_on_c, 0, 77, 0
3, 161762, Note_on_c, 0, 74, 112
3, 161819, Note_on_c, 0, 72, 100
3, 161820, Note_on_c, 0, 74, 0
3, 161874, Note_on_c, 0, 72, 0
3, 161882, Note_on_c, 0, 71, 97
3, 161941, Note_on_c, 0, 72, 96
3, 161942, Note_on_c, 0, 71, 0
3, 161998, Note_on_c, 0, 72, 0
3, 162000, Note_on_c, 0, 74, 101
3, 162117, Note_on_c, 0, 74, 0
3, 162119, Note_on_c, 0, 76, 97
3, 162239, Note_on_c, 0, 72, 105
3, 162240, Note_on_c, 0, 76, 0
3, 162298, Note_on_c, 0, 72, 0
3, 162301, Note_on_c, 0, 69, 97
3, 162359, Note_on_c, 0, 69, 0
3, 162362, Note_on_c, 0, 72, 104
3, 162422, Note_on_c, 0, 76, 101
3, 162423, Note_on_c, 0, 72, 0
3, 162480, Note_on_c, 0, 81, 106
3, 162481, Note_on_c, 0, 76, 0
3, 162596, Note_on_c, 0, 81, 0
3, 162600, Note_on_c, 0, 72, 98
3, 162717, Note_on_c, 0, 72, 0
3, 162719, Note_on_c, 0, 71, 110
3, 162835, Note_on_c, 0, 71, 0
3, 162842, Note_on_c, 0, 81, 103
3, 162959, Note_on_c, 0, 71, 108
3, 162961, Note_on_c, 0, 81, 0
3, 163078, Note_on_c, 0, 71, 0
3, 163078, Note_on_c, 0, 80, 104
3, 163197, Note_on_c, 0, 80, 0
3, 163199, Note_on_c, 0, 81, 111
3, 163679, Note_on_c, 0, 81, 0
3, 163679, End_track
4, 0, Start_track
4, 0, MIDI_port, 0
4, 0, Title_t, "Concerto No. 6 in Am"
4, 0, Program_c, 1, 6
4, 0, Control_c, 1, 10, 87
4, 840, Note_on_c, 1, 76, 90
4, 957, Note_on_c, 1, 76, 0
4, 961, Note_on_c, 1, 81, 90
4, 1078, Note_on_c, 1, 45, 90
4, 1079, Note_on_c, 1, 81, 0
4, 1079, Note_on_c, 1, 69, 90
4, 1079, Note_on_c, 1, 57, 90
4, 1080, Note_on_c, 1, 81, 90
4, 1081, Note_on_c, 1, 52, 90
4, 1196, Note_on_c, 1, 57, 0
4, 1197, Note_on_c, 1, 69, 0
4, 1198, Note_on_c, 1, 81, 0
4, 1198, Note_on_c, 1, 57, 90
4, 1199, Note_on_c, 1, 52, 0
4, 1199, Note_on_c, 1, 48, 90
4, 1200, Note_on_c, 1, 45, 0
4, 1200, Note_on_c, 1, 69, 90
4, 1200, Note_on_c, 1, 52, 90
4, 1202, Note_on_c, 1, 81, 90
4, 1316, Note_on_c, 1, 57, 0
4, 1317, Note_on_c, 1, 52, 0
4, 1317, Note_on_c, 1, 48, 0
4, 1318, Note_on_c, 1, 76, 90
4, 1319, Note_on_c, 1, 69, 0
4, 1319, Note_on_c, 1, 81, 0
4, 1319, Note_on_c, 1, 57, 90
4, 1321, Note_on_c, 1, 52, 90
4, 1322, Note_on_c, 1, 81, 90
4, 1322, Note_on_c, 1, 45, 90
4, 1435, Note_on_c, 1, 76, 0
4, 1437, Note_on_c, 1, 81, 0
4, 1438, Note_on_c, 1, 52, 0
4, 1439, Note_on_c, 1, 81, 90
4, 1440, Note_on_c, 1, 57, 0
4, 1442, Note_on_c, 1, 72, 90
4, 1443, Note_on_c, 1, 45, 0
4, 1557, Note_on_c, 1, 81, 0
4, 1558, Note_on_c, 1, 45, 90
4, 1558, Note_on_c, 1, 81, 90
4, 1559, Note_on_c, 1, 57, 90
4, 1560, Note_on_c, 1, 52, 90
4, 1561, Note_on_c, 1, 84, 90
4, 1563, Note_on_c, 1, 72, 0
4, 1621, Note_on_c, 1, 83, 90
4, 1623, Note_on_c, 1, 84, 0
4, 1676, Note_on_c, 1, 81, 0
4, 1677, Note_on_c, 1, 57, 0
4, 1678, Note_on_c, 1, 48, 90
4, 1679, Note_on_c, 1, 52, 0
4, 1679, Note_on_c, 1, 81, 90
4, 1679, Note_on_c, 1, 57, 90
4, 1680, Note_on_c, 1, 45, 0
4, 1680, Note_on_c, 1, 83, 0
4, 1680, Note_on_c, 1, 52, 90
4, 1796, Note_on_c, 1, 48, 0
4, 1797, Note_on_c, 1, 57, 0
4, 1798, Note_on_c, 1, 52, 0
4, 1798, Note_on_c, 1, 84, 90
4, 1799, Note_on_c, 1, 45, 90
4, 1799, Note_on_c, 1, 76, 90
4, 1801, Note_on_c, 1, 52, 90
4, 1801, Note_on_c, 1, 57, 90
4, 1802, Note_on_c, 1, 81, 0
4, 1857, Note_on_c, 1, 84, 0
4, 1861, Note_on_c, 1, 83, 90
4, 1917, Note_on_c, 1, 76, 0
4, 1919, Note_on_c, 1, 52, 0
4, 1919, Note_on_c, 1, 83, 0
4, 1919, Note_on_c, 1, 81, 90
4, 1920, Note_on_c, 1, 72, 90
4, 1922, Note_on_c, 1, 57, 0
4, 1922, Note_on_c, 1, 45, 0
4, 2038, Note_on_c, 1, 81, 0
4, 2039, Note_on_c, 1, 72, 0
4, 2039, Note_on_c, 1, 84, 90
4, 2040, Note_on_c, 1, 52, 90
4, 2041, Note_on_c, 1, 57, 90
4, 2042, Note_on_c, 1, 45, 90
4, 2042, Note_on_c, 1, 81, 90
4, 2096, Note_on_c, 1, 84, 0
4, 2099, Note_on_c, 1, 83, 90
4, 2156, Note_on_c, 1, 52, 0
4, 2158, Note_on_c, 1, 57, 0
4, 2158, Note_on_c, 1, 52, 90
4, 2158, Note_on_c, 1, 48, 90
4, 2159, Note_on_c, 1, 57, 90
4, 2160, Note_on_c, 1, 81, 0
4, 2162, Note_on_c, 1, 83, 0
4, 2162, Note_on_c, 1, 81, 90
4, 2164, Note_on_c, 1, 45, 0
4, 2277, Note_on_c, 1, 52, 0
4, 2277, Note_on_c, 1, 57, 0
4, 2278, Note_on_c, 1, 52, 90
4, 2279, Note_on_c, 1, 81, 0
4, 2279, Note_on_c, 1, 79, 90
4, 2279, Note_on_c, 1, 72, 90
4, 2279, Note_on_c, 1, 45, 90
4, 2280, Note_on_c, 1, 48, 0
4, 2280, Note_on_c, 1, 69, 90
4, 2282, Note_on_c, 1, 57, 90
4, 2339, Note_on_c, 1, 79, 0
4, 2340, Note_on_c, 1, 77, 90
4, 2396, Note_on_c, 1, 45, 0
4, 2397, Note_on_c, 1, 72, 0
4, 2398, Note_on_c, 1, 69, 0
4, 2398, Note_on_c, 1, 52, 0
4, 2399, Note_on_c, 1, 72, 90
4, 2399, Note_on_c, 1, 76, 90
4, 2400, Note_on_c, 1, 57, 0
4, 2402, Note_on_c, 1, 69, 90
4, 2403, Note_on_c, 1, 77, 0
4, 2517, Note_on_c, 1, 69, 0
4, 2518, Note_on_c, 1, 57, 90
4, 2518, Note_on_c, 1, 74, 90
4, 2519, Note_on_c, 1, 69, 90
4, 2520, Note_on_c, 1, 45, 90
4, 2521, Note_on_c, 1, 72, 0
4, 2521, Note_on_c, 1, 64, 90
4, 2522, Note_on_c, 1, 76, 0
4, 2578, Note_on_c, 1, 74, 0
4, 2582, Note_on_c, 1, 72, 90
4, 2638, Note_on_c, 1, 45, 0
4, 2638, Note_on_c, 1, 71, 90
4, 2638, Note_on_c, 1, 56, 90
4, 2639, Note_on_c, 1, 64, 0
4, 2639, Note_on_c, 1, 44, 90
4, 2640, Note_on_c, 1, 57, 0
4, 2640, Note_on_c, 1, 69, 0
4, 2640, Note_on_c, 1, 64, 90
4, 2645, Note_on_c, 1, 72, 0
4, 2755, Note_on_c, 1, 56, 0
4, 2758, Note_on_c, 1, 64, 0
4, 2758, Note_on_c, 1, 52, 90
4, 2759, Note_on_c, 1, 44, 0
4, 2759, Note_on_c, 1, 68, 90
4, 2760, Note_on_c, 1, 71, 0
4, 2760, Note_on_c, 1, 76, 90
4, 2761, Note_on_c, 1, 64, 90
4, 2762, Note_on_c, 1, 40, 90
4, 2878, Note_on_c, 1, 64, 0
4, 2880, Note_on_c, 1, 68, 0
4, 2880, Note_on_c, 1, 52, 0
4, 2880, Note_on_c, 1, 69, 90
4, 2880, Note_on_c, 1, 57, 90
4, 2881, Note_on_c, 1, 45, 90
4, 2882, Note_on_c, 1, 76, 0
4, 2882, Note_on_c, 1, 40, 0
4, 2882, Note_on_c, 1, 72, 90
4, 2882, Note_on_c, 1, 64, 90
4, 2996, Note_on_c, 1, 57, 0
4, 2998, Note_on_c, 1, 69, 0
4, 2998, Note_on_c, 1, 60, 90
4, 2998, Note_on_c, 1, 57, 90
4, 2999, Note_on_c, 1, 69, 90
4, 3000, Note_on_c, 1, 64, 0
4, 3000, Note_on_c, 1, 45, 0
4, 3001, Note_on_c, 1, 64, 90
4, 3005, Note_on_c, 1, 72, 0
4, 3115, Note_on_c, 1, 57, 0
4, 3116, Note_on_c, 1, 60, 0
4, 3116, Note_on_c, 1, 64, 0
4, 3117, Note_on_c, 1, 69, 0
4, 3118, Note_on_c, 1, 64, 90
4, 3120, Note_on_c, 1, 69, 90
4, 3122, Note_on_c, 1, 60, 90
4, 3238, Note_on_c, 1, 69, 0
4, 3240, Note_on_c, 1, 60, 0
4, 3240, Note_on_c, 1, 64, 0
4, 3241, Note_on_c, 1, 69, 90
4, 3241, Note_on_c, 1, 57, 90
4, 3241, Note_on_c, 1, 76, 90
4, 3358, Note_on_c, 1, 69, 0
4, 3359, Note_on_c, 1, 76, 0
4, 3361, Note_on_c, 1, 81, 90
4, 3362, Note_on_c, 1, 57, 0
4, 3362, Note_on_c, 1, 73, 90
4, 3478, Note_on_c, 1, 81, 0
4, 3480, Note_on_c, 1, 81, 90
4, 3480, Note_on_c, 1, 76, 90
4, 3480, Note_on_c, 1, 61, 90
4, 3480, Note_on_c, 1, 69, 90
4, 3481, Note_on_c, 1, 73, 0
4, 3596, Note_on_c, 1, 76, 0
4, 3598, Note_on_c, 1, 69, 0
4, 3598, Note_on_c, 1, 81, 0
4, 3598, Note_on_c, 1, 76, 90
4, 3600, Note_on_c, 1, 57, 90
4, 3601, Note_on_c, 1, 49, 90
4, 3602, Note_on_c, 1, 69, 90
4, 3602, Note_on_c, 1, 81, 90
4, 3603, Note_on_c, 1, 61, 0
4, 3717, Note_on_c, 1, 76, 0
4, 3718, Note_on_c, 1, 49, 0
4, 3718, Note_on_c, 1, 57, 0
4, 3718, Note_on_c, 1, 76, 90
4, 3720, Note_on_c, 1, 81, 0
4, 3720, Note_on_c, 1, 57, 90
4, 3721, Note_on_c, 1, 45, 90
4, 3721, Note_on_c, 1, 81, 90
4, 3721, Note_on_c, 1, 72, 90
4, 3722, Note_on_c, 1, 69, 0
4, 3722, Note_on_c, 1, 52, 90
4, 3836, Note_on_c, 1, 81, 0
4, 3836, Note_on_c, 1, 76, 0
4, 3838, Note_on_c, 1, 74, 90
4, 3838, Note_on_c, 1, 81, 90
4, 3839, Note_on_c, 1, 72, 0
4, 3840, Note_on_c, 1, 45, 0
4, 3841, Note_on_c, 1, 52, 0
4, 3842, Note_on_c, 1, 65, 90
4, 3843, Note_on_c, 1, 57, 0
4, 3895, Note_on_c, 1, 74, 0
4, 3900, Note_on_c, 1, 81, 0
4, 3901, Note_on_c, 1, 79, 90
4, 3958, Note_on_c, 1, 69, 90
4, 3959, Note_on_c, 1, 79, 0
4, 3959, Note_on_c, 1, 62, 90
4, 3960, Note_on_c, 1, 50, 90
4, 3961, Note_on_c, 1, 77, 90
4, 3964, Note_on_c, 1, 65, 0
4, 4020, Note_on_c, 1, 76, 90
4, 4024, Note_on_c, 1, 77, 0
4, 4076, Note_on_c, 1, 69, 0
4, 4077, Note_on_c, 1, 62, 0
4, 4078, Note_on_c, 1, 50, 0
4, 4078, Note_on_c, 1, 76, 0
4, 4078, Note_on_c, 1, 69, 90
4, 4078, Note_on_c, 1, 38, 90
4, 4079, Note_on_c, 1, 77, 90
4, 4080, Note_on_c, 1, 74, 90
4, 4082, Note_on_c, 1, 50, 90
4, 4196, Note_on_c, 1, 69, 0
4, 4198, Note_on_c, 1, 74, 0
4, 4198, Note_on_c, 1, 69, 90
4, 4199, Note_on_c, 1, 38, 0
4, 4199, Note_on_c, 1, 65, 90
4, 4200, Note_on_c, 1, 50, 0
4, 4200, Note_on_c, 1, 74, 90
4, 4201, Note_on_c, 1, 77, 0
4, 4201, Note_on_c, 1, 62, 90
4, 4202, Note_on_c, 1, 50, 90
4, 4316, Note_on_c, 1, 69, 0
4, 4317, Note_on_c, 1, 74, 0
4, 4317, Note_on_c, 1, 65, 0
4, 4318, Note_on_c, 1, 71, 90
4, 4318, Note_on_c, 1, 79, 90
4, 4320, Note_on_c, 1, 62, 0
4, 4322, Note_on_c, 1, 50, 0
4, 4436, Note_on_c, 1, 79, 0
4, 4440, Note_on_c, 1, 59, 90
4, 4441, Note_on_c, 1, 71, 0
4, 4441, Note_on_c, 1, 67, 90
4, 4441, Note_on_c, 1, 79, 90
4, 4442, Note_on_c, 1, 74, 90
4, 4556, Note_on_c, 1, 74, 0
4, 4556, Note_on_c, 1, 67, 0
4, 4558, Note_on_c, 1, 74, 90
4, 4558, Note_on_c, 1, 67, 90
4, 4558, Note_on_c, 1, 55, 90
4, 4559, Note_on_c, 1, 79, 0
4, 4560, Note_on_c, 1, 59, 0
4, 4561, Note_on_c, 1, 47, 90
4, 4562, Note_on_c, 1, 79, 90
4, 4676, Note_on_c, 1, 79, 0
4, 4676, Note_on_c, 1, 55, 0
4, 4678, Note_on_c, 1, 79, 90
4, 4679, Note_on_c, 1, 50, 90
4, 4681, Note_on_c, 1, 67, 0
4, 4681, Note_on_c, 1, 74, 0
4, 4681, Note_on_c, 1, 43, 90
4, 4682, Note_on_c, 1, 55, 90
4, 4682, Note_on_c, 1, 71, 90
4, 4683, Note_on_c, 1, 47, 0
4, 4796, Note_on_c, 1, 79, 0
4, 4797, Note_on_c, 1, 50, 0
4, 4799, Note_on_c, 1, 72, 90
4, 4800, Note_on_c, 1, 55, 0
4, 4801, Note_on_c, 1, 71, 0
4, 4802, Note_on_c, 1, 79, 90
4, 4802, Note_on_c, 1, 64, 90
4, 4804, Note_on_c, 1, 43, 0
4, 4861, Note_on_c, 1, 72, 0
4, 4861, Note_on_c, 1, 77, 90
4, 4864, Note_on_c, 1, 79, 0
4, 4918, Note_on_c, 1, 76, 90
4, 4918, Note_on_c, 1, 67, 90
4, 4919, Note_on_c, 1, 64, 0
4, 4920, Note_on_c, 1, 48, 90
4, 4921, Note_on_c, 1, 60, 90
4, 4922, Note_on_c, 1, 77, 0
4, 4980, Note_on_c, 1, 76, 0
4, 4981, Note_on_c, 1, 74, 90
4, 5036, Note_on_c, 1, 67, 0
4, 5037, Note_on_c, 1, 48, 0
4, 5038, Note_on_c, 1, 67, 90
4, 5040, Note_on_c, 1, 48, 90
4, 5040, Note_on_c, 1, 76, 90
4, 5040, Note_on_c, 1, 36, 90
4, 5041, Note_on_c, 1, 72, 90
4, 5043, Note_on_c, 1, 60, 0
4, 5043, Note_on_c, 1, 74, 0
4, 5156, Note_on_c, 1, 67, 0
4, 5157, Note_on_c, 1, 36, 0
4, 5158, Note_on_c, 1, 48, 0
4, 5159, Note_on_c, 1, 76, 0
4, 5159, Note_on_c, 1, 72, 0
4, 5160, Note_on_c, 1, 67, 90
4, 5160, Note_on_c, 1, 72, 90
4, 5162, Note_on_c, 1, 64, 90
4, 5162, Note_on_c, 1, 48, 90
4, 5189, Note_on_c, 1, 60, 90
4, 5278, Note_on_c, 1, 60, 0
4, 5279, Note_on_c, 1, 64, 0
4, 5280, Note_on_c, 1, 48, 0
4, 5280, Note_on_c, 1, 67, 0
4, 5282, Note_on_c, 1, 72, 0
4, 5282, Note_on_c, 1, 69, 90
4, 5282, Note_on_c, 1, 77, 90
4, 5399, Note_on_c, 1, 57, 90
4, 5400, Note_on_c, 1, 77, 0
4, 5400, Note_on_c, 1, 65, 90
4, 5402, Note_on_c, 1, 77, 90
4, 5402, Note_on_c, 1, 72, 90
4, 5405, Note_on_c, 1, 69, 0
4, 5516, Note_on_c, 1, 65, 0
4, 5518, Note_on_c, 1, 77, 0
4, 5518, Note_on_c, 1, 45, 90
4, 5518, Note_on_c, 1, 65, 90
4, 5520, Note_on_c, 1, 72, 0
4, 5520, Note_on_c, 1, 77, 90
4, 5521, Note_on_c, 1, 53, 90
4, 5521, Note_on_c, 1, 72, 90
4, 5522, Note_on_c, 1, 57, 0
4, 5636, Note_on_c, 1, 77, 0
4, 5638, Note_on_c, 1, 45, 0
4, 5638, Note_on_c, 1, 72, 0
4, 5638, Note_on_c, 1, 77, 90
4, 5639, Note_on_c, 1, 53, 0
4, 5640, Note_on_c, 1, 65, 0
4, 5640, Note_on_c, 1, 41, 90
4, 5640, Note_on_c, 1, 69, 90
4, 5641, Note_on_c, 1, 53, 90
4, 5642, Note_on_c, 1, 48, 90
4, 5756, Note_on_c, 1, 77, 0
4, 5758, Note_on_c, 1, 77, 90
4, 5759, Note_on_c, 1, 71, 90
4, 5760, Note_on_c, 1, 53, 0
4, 5761, Note_on_c, 1, 62, 90
4, 5762, Note_on_c, 1, 48, 0
4, 5762, Note_on_c, 1, 69, 0
4, 5763, Note_on_c, 1, 41, 0
4, 5819, Note_on_c, 1, 76, 90
4, 5820, Note_on_c, 1, 71, 0
4, 5821, Note_on_c, 1, 77, 0
4, 5879, Note_on_c, 1, 62, 0
4, 5879, Note_on_c, 1, 59, 90
4, 5880, Note_on_c, 1, 65, 90
4, 5881, Note_on_c, 1, 76, 0
4, 5882, Note_on_c, 1, 74, 90
4, 5912, Note_on_c, 1, 47, 90
4, 5940, Note_on_c, 1, 72, 90
4, 5941, Note_on_c, 1, 74, 0
4, 5996, Note_on_c, 1, 59, 0
4, 5996, Note_on_c, 1, 65, 0
4, 5997, Note_on_c, 1, 47, 0
4, 5998, Note_on_c, 1, 35, 90
4, 5998, Note_on_c, 1, 65, 90
4, 5998, Note_on_c, 1, 74, 90
4, 5999, Note_on_c, 1, 72, 0
4, 5999, Note_on_c, 1, 47, 90
4, 6001, Note_on_c, 1, 71, 90
4, 6115, Note_on_c, 1, 74, 0
4, 6116, Note_on_c, 1, 65, 0
4, 6117, Note_on_c, 1, 47, 0
4, 6118, Note_on_c, 1, 59, 90
4, 6120, Note_on_c, 1, 71, 0
4, 6120, Note_on_c, 1, 47, 90
4, 6120, Note_on_c, 1, 65, 90
4, 6121, Note_on_c, 1, 35, 0
4, 6121, Note_on_c, 1, 71, 90
4, 6122, Note_on_c, 1, 62, 90
4, 6238, Note_on_c, 1, 71, 0
4, 6238, Note_on_c, 1, 59, 0
4, 6238, Note_on_c, 1, 47, 0
4, 6241, Note_on_c, 1, 68, 90
4, 6241, Note_on_c, 1, 76, 90
4, 6242, Note_on_c, 1, 65, 0
4, 6245, Note_on_c, 1, 62, 0
4, 6358, Note_on_c, 1, 56, 90
4, 6358, Note_on_c, 1, 71, 90
4, 6359, Note_on_c, 1, 76, 0
4, 6360, Note_on_c, 1, 64, 90
4, 6360, Note_on_c, 1, 76, 90
4, 6361, Note_on_c, 1, 68, 0
4, 6477, Note_on_c, 1, 64, 0
4, 6477, Note_on_c, 1, 71, 0
4, 6478, Note_on_c, 1, 76, 0
4, 6478, Note_on_c, 1, 44, 90
4, 6479, Note_on_c, 1, 71, 90
4, 6479, Note_on_c, 1, 64, 90
4, 6481, Note_on_c, 1, 56, 0
4, 6482, Note_on_c, 1, 76, 90
4, 6482, Note_on_c, 1, 52, 90
4, 6596, Note_on_c, 1, 76, 0
4, 6597, Note_on_c, 1, 71, 0
4, 6598, Note_on_c, 1, 64, 0
4, 6598, Note_on_c, 1, 44, 0
4, 6598, Note_on_c, 1, 76, 90
4, 6600, Note_on_c, 1, 52, 0
4, 6600, Note_on_c, 1, 67, 90
4, 6602, Note_on_c, 1, 52, 90
4, 6602, Note_on_c, 1, 40, 90
4, 6716, Note_on_c, 1, 76, 0
4, 6718, Note_on_c, 1, 60, 90
4, 6718, Note_on_c, 1, 76, 90
4, 6720, Note_on_c, 1, 69, 90
4, 6721, Note_on_c, 1, 67, 0
4, 6721, Note_on_c, 1, 40, 0
4, 6724, Note_on_c, 1, 52, 0
4, 6780, Note_on_c, 1, 76, 0
4, 6782, Note_on_c, 1, 69, 0
4, 6782, Note_on_c, 1, 74, 90
4, 6835, Note_on_c, 1, 60, 0
4, 6839, Note_on_c, 1, 72, 90
4, 6840, Note_on_c, 1, 45, 90
4, 6841, Note_on_c, 1, 64, 90
4, 6842, Note_on_c, 1, 74, 0
4, 6842, Note_on_c, 1, 57, 90
4, 6896, Note_on_c, 1, 72, 0
4, 6902, Note_on_c, 1, 71, 90
4, 6957, Note_on_c, 1, 45, 0
4, 6958, Note_on_c, 1, 64, 0
4, 6958, Note_on_c, 1, 33, 90
4, 6959, Note_on_c, 1, 45, 90
4, 6961, Note_on_c, 1, 72, 90
4, 6964, Note_on_c, 1, 57, 0
4, 6965, Note_on_c, 1, 71, 0
4, 7075, Note_on_c, 1, 33, 0
4, 7077, Note_on_c, 1, 45, 0
4, 7078, Note_on_c, 1, 69, 90
4, 7079, Note_on_c, 1, 45, 90
4, 7080, Note_on_c, 1, 52, 90
4, 7081, Note_on_c, 1, 72, 0
4, 7082, Note_on_c, 1, 57, 90
4, 7196, Note_on_c, 1, 52, 0
4, 7197, Note_on_c, 1, 57, 0
4, 7198, Note_on_c, 1, 52, 90
4, 7199, Note_on_c, 1, 69, 0
4, 7199, Note_on_c, 1, 57, 90
4, 7202, Note_on_c, 1, 45, 0
4, 7202, Note_on_c, 1, 60, 90
4, 7260, Note_on_c, 1, 69, 90
4, 7316, Note_on_c, 1, 52, 0
4, 7317, Note_on_c, 1, 57, 0
4, 7318, Note_on_c, 1, 57, 90
4, 7318, Note_on_c, 1, 72, 90
4, 7320, Note_on_c, 1, 45, 90
4, 7320, Note_on_c, 1, 52, 90
4, 7322, Note_on_c, 1, 60, 0
4, 7322, Note_on_c, 1, 69, 0
4, 7379, Note_on_c, 1, 72, 0
4, 7380, Note_on_c, 1, 76, 90
4, 7438, Note_on_c, 1, 52, 0
4, 7439, Note_on_c, 1, 57, 0
4, 7440, Note_on_c, 1, 76, 0
4, 7440, Note_on_c, 1, 48, 90
4, 7440, Note_on_c, 1, 81, 90
4, 7442, Note_on_c, 1, 45, 0
4, 7558, Note_on_c, 1, 81, 0
4, 7558, Note_on_c, 1, 45, 90
4, 7559, Note_on_c, 1, 48, 0
4, 7559, Note_on_c, 1, 52, 90
4, 7559, Note_on_c, 1, 81, 90
4, 7559, Note_on_c, 1, 69, 90
4, 7560, Note_on_c, 1, 57, 90
4, 7562, Note_on_c, 1, 72, 90
4, 7645, Note_on_c, 1, 45, 0
4, 7676, Note_on_c, 1, 57, 0
4, 7676, Note_on_c, 1, 81, 0
4, 7677, Note_on_c, 1, 69, 0
4, 7678, Note_on_c, 1, 76, 90
4, 7678, Note_on_c, 1, 57, 90
4, 7679, Note_on_c, 1, 81, 90
4, 7680, Note_on_c, 1, 69, 90
4, 7682, Note_on_c, 1, 72, 0
4, 7682, Note_on_c, 1, 60, 90
4, 7740, Note_on_c, 1, 81, 0
4, 7797, Note_on_c, 1, 57, 0
4, 7798, Note_on_c, 1, 52, 0
4, 7798, Note_on_c, 1, 45, 90
4, 7799, Note_on_c, 1, 52, 90
4, 7800, Note_on_c, 1, 69, 0
4, 7801, Note_on_c, 1, 76, 0
4, 7801, Note_on_c, 1, 72, 90
4, 7801, Note_on_c, 1, 57, 90
4, 7805, Note_on_c, 1, 60, 0
4, 7858, Note_on_c, 1, 72, 0
4, 7862, Note_on_c, 1, 76, 90
4, 7918, Note_on_c, 1, 45, 0
4, 7920, Note_on_c, 1, 81, 90
4, 7921, Note_on_c, 1, 48, 90
4, 7922, Note_on_c, 1, 52, 0
4, 7923, Note_on_c, 1, 76, 0
4, 7924, Note_on_c, 1, 57, 0
4, 8037, Note_on_c, 1, 81, 0
4, 8038, Note_on_c, 1, 69, 90
4, 8038, Note_on_c, 1, 72, 90
4, 8038, Note_on_c, 1, 45, 90
4, 8039, Note_on_c, 1, 57, 90
4, 8039, Note_on_c, 1, 81, 90
4, 8041, Note_on_c, 1, 52, 90
4, 8042, Note_on_c, 1, 48, 0
4, 8155, Note_on_c, 1, 69, 0
4, 8157, Note_on_c, 1, 81, 0
4, 8158, Note_on_c, 1, 57, 0
4, 8158, Note_on_c, 1, 72, 0
4, 8158, Note_on_c, 1, 60, 90
4, 8158, Note_on_c, 1, 69, 90
4, 8159, Note_on_c, 1, 52, 0
4, 8160, Note_on_c, 1, 52, 90
4, 8160, Note_on_c, 1, 76, 90
4, 8161, Note_on_c, 1, 45, 0
4, 8162, Note_on_c, 1, 57, 90
4, 8162, Note_on_c, 1, 81, 90
4, 8225, Note_on_c, 1, 81, 0
4, 8277, Note_on_c, 1, 52, 0
4, 8278, Note_on_c, 1, 52, 90
4, 8279, Note_on_c, 1, 69, 0
4, 8279, Note_on_c, 1, 57, 0
4, 8279, Note_on_c, 1, 60, 0
4, 8280, Note_on_c, 1, 45, 90
4, 8281, Note_on_c, 1, 57, 90
4, 8281, Note_on_c, 1, 72, 90
4, 8283, Note_on_c, 1, 76, 0
4, 8338, Note_on_c, 1, 76, 90
4, 8341, Note_on_c, 1, 72, 0
4, 8398, Note_on_c, 1, 57, 0
4, 8399, Note_on_c, 1, 45, 0
4, 8399, Note_on_c, 1, 77, 90
4, 8400, Note_on_c, 1, 76, 0
4, 8400, Note_on_c, 1, 50, 90
4, 8401, Note_on_c, 1, 52, 0
4, 8401, Note_on_c, 1, 82, 90
4, 8401, Note_on_c, 1, 70, 90
4, 8402, Note_on_c, 1, 62, 90
4, 8519, Note_on_c, 1, 70, 0
4, 8519, Note_on_c, 1, 82, 0
4, 8520, Note_on_c, 1, 77, 0
4, 8520, Note_on_c, 1, 50, 0
4, 8520, Note_on_c, 1, 62, 0
4, 8520, Note_on_c, 1, 61, 90
4, 8521, Note_on_c, 1, 82, 90
4, 8521, Note_on_c, 1, 76, 90
4, 8521, Note_on_c, 1, 49, 90
4, 8639, Note_on_c, 1, 76, 0
4, 8639, Note_on_c, 1, 61, 0
4, 8639, Note_on_c, 1, 82, 0
4, 8639, Note_on_c, 1, 62, 90
4, 8639, Note_on_c, 1, 70, 90
4, 8640, Note_on_c, 1, 50, 90
4, 8640, Note_on_c, 1, 82, 90
4, 8641, Note_on_c, 1, 77, 90
4, 8643, Note_on_c, 1, 49, 0
4, 8757, Note_on_c, 1, 70, 0
4, 8759, Note_on_c, 1, 62, 0
4, 8759, Note_on_c, 1, 77, 0
4, 8759, Note_on_c, 1, 52, 90
4, 8759, Note_on_c, 1, 64, 90
4, 8760, Note_on_c, 1, 81, 90
4, 8761, Note_on_c, 1, 72, 90
4, 8763, Note_on_c, 1, 50, 0
4, 8763, Note_on_c, 1, 82, 0
4, 8818, Note_on_c, 1, 80, 90
4, 8821, Note_on_c, 1, 81, 0
4, 8876, Note_on_c, 1, 52, 0
4, 8878, Note_on_c, 1, 72, 0
4, 8879, Note_on_c, 1, 80, 0
4, 8879, Note_on_c, 1, 62, 90
4, 8880, Note_on_c, 1, 81, 90
4, 8882, Note_on_c, 1, 64, 0
4, 8882, Note_on_c, 1, 74, 90
4, 8882, Note_on_c, 1, 53, 90
4, 8996, Note_on_c, 1, 62, 0
4, 8998, Note_on_c, 1, 81, 0
4, 8998, Note_on_c, 1, 83, 90
4, 8999, Note_on_c, 1, 62, 90
4, 9000, Note_on_c, 1, 74, 0
4, 9000, Note_on_c, 1, 53, 0
4, 9001, Note_on_c, 1, 50, 90
4, 9002, Note_on_c, 1, 77, 90
4, 9002, Note_on_c, 1, 71, 90
4, 9116, Note_on_c, 1, 62, 0
4, 9118, Note_on_c, 1, 83, 0
4, 9118, Note_on_c, 1, 59, 90
4, 9119, Note_on_c, 1, 71, 0
4, 9119, Note_on_c, 1, 68, 90
4, 9120, Note_on_c, 1, 50, 0
4, 9120, Note_on_c, 1, 62, 90
4, 9120, Note_on_c, 1, 74, 90
4, 9122, Note_on_c, 1, 47, 90
4, 9125, Note_on_c, 1, 77, 0
4, 9237, Note_on_c, 1, 59, 0
4, 9240, Note_on_c, 1, 45, 90
4, 9242, Note_on_c, 1, 57, 90
4, 9245, Note_on_c, 1, 47, 0
4, 9299, Note_on_c, 1, 45, 0
4, 9300, Note_on_c, 1, 44, 90
4, 9302, Note_on_c, 1, 56, 90
4, 9303, Note_on_c, 1, 57, 0
4, 9358, Note_on_c, 1, 57, 90
4, 9359, Note_on_c, 1, 44, 0
4, 9361, Note_on_c, 1, 45, 90
4, 9362, Note_on_c, 1, 56, 0
4, 9479, Note_on_c, 1, 47, 90
4, 9480, Note_on_c, 1, 59, 90
4, 9481, Note_on_c, 1, 57, 0
4, 9481, Note_on_c, 1, 45, 0
4, 9598, Note_on_c, 1, 74, 0
4, 9599, Note_on_c, 1, 52, 90
4, 9601, Note_on_c, 1, 47, 0
4, 9602, Note_on_c, 1, 59, 0
4, 9602, Note_on_c, 1, 74, 90
4, 9602, Note_on_c, 1, 40, 90
4, 9659, Note_on_c, 1, 68, 0
4, 9660, Note_on_c, 1, 62, 0
4, 9660, Note_on_c, 1, 64, 90
4, 9664, Note_on_c, 1, 74, 0
4, 9716, Note_on_c, 1, 64, 0
4, 9718, Note_on_c, 1, 64, 90
4, 9720, Note_on_c, 1, 68, 90
4, 9776, Note_on_c, 1, 64, 0
4, 9782, Note_on_c, 1, 71, 90
4, 9783, Note_on_c, 1, 68, 0
4, 9839, Note_on_c, 1, 74, 90
4, 9840, Note_on_c, 1, 67, 90
4, 9841, Note_on_c, 1, 64, 90
4, 9845, Note_on_c, 1, 71, 0
4, 9897, Note_on_c, 1, 52, 0
4, 9899, Note_on_c, 1, 52, 90
4, 9905, Note_on_c, 1, 40, 0
4, 9957, Note_on_c, 1, 67, 0
4, 9957, Note_on_c, 1, 74, 0
4, 9957, Note_on_c, 1, 64, 0
4, 9958, Note_on_c, 1, 56, 90
4, 9959, Note_on_c, 1, 52, 0
4, 9959, Note_on_c, 1, 64, 90
4, 9962, Note_on_c, 1, 71, 90
4, 9962, Note_on_c, 1, 74, 90
4, 10018, Note_on_c, 1, 56, 0
4, 10022, Note_on_c, 1, 59, 90
4, 10076, Note_on_c, 1, 64, 0
4, 10079, Note_on_c, 1, 71, 0
4, 10079, Note_on_c, 1, 67, 90
4, 10079, Note_on_c, 1, 52, 90
4, 10080, Note_on_c, 1, 74, 0
4, 10080, Note_on_c, 1, 64, 90
4, 10081, Note_on_c, 1, 40, 90
4, 10082, Note_on_c, 1, 74, 90
4, 10085, Note_on_c, 1, 59, 0
4, 10136, Note_on_c, 1, 64, 0
4, 10136, Note_on_c, 1, 67, 0
4, 10138, Note_on_c, 1, 64, 90
4, 10139, Note_on_c, 1, 74, 0
4, 10196, Note_on_c, 1, 64, 0
4, 10199, Note_on_c, 1, 64, 90
4, 10202, Note_on_c, 1, 68, 90
4, 10258, Note_on_c, 1, 64, 0
4, 10258, Note_on_c, 1, 71, 90
4, 10263, Note_on_c, 1, 68, 0
4, 10319, Note_on_c, 1, 67, 90
4, 10320, Note_on_c, 1, 71, 0
4, 10321, Note_on_c, 1, 64, 90
4, 10321, Note_on_c, 1, 74, 90
4, 10377, Note_on_c, 1, 52, 0
4, 10382, Note_on_c, 1, 52, 90
4, 10383, Note_on_c, 1, 40, 0
4, 10439, Note_on_c, 1, 74, 0
4, 10439, Note_on_c, 1, 64, 0
4, 10439, Note_on_c, 1, 56, 90
4, 10441, Note_on_c, 1, 67, 0
4, 10441, Note_on_c, 1, 71, 90
4, 10442, Note_on_c, 1, 52, 0
4, 10442, Note_on_c, 1, 64, 90
4, 10442, Note_on_c, 1, 74, 90
4, 10498, Note_on_c, 1, 56, 0
4, 10500, Note_on_c, 1, 59, 90
4, 10556, Note_on_c, 1, 64, 0
4, 10558, Note_on_c, 1, 71, 0
4, 10558, Note_on_c, 1, 64, 90
4, 10558, Note_on_c, 1, 40, 90
4, 10559, Note_on_c, 1, 74, 0
4, 10559, Note_on_c, 1, 52, 90
4, 10560, Note_on_c, 1, 74, 90
4, 10562, Note_on_c, 1, 59, 0
4, 10562, Note_on_c, 1, 68, 90
4, 10617, Note_on_c, 1, 64, 0
4, 10619, Note_on_c, 1, 74, 0
4, 10619, Note_on_c, 1, 64, 90
4, 10620, Note_on_c, 1, 68, 0
4, 10676, Note_on_c, 1, 64, 0
4, 10678, Note_on_c, 1, 64, 90
4, 10679, Note_on_c, 1, 68, 90
4, 10736, Note_on_c, 1, 68, 0
4, 10738, Note_on_c, 1, 64, 0
4, 10738, Note_on_c, 1, 71, 90
4, 10797, Note_on_c, 1, 71, 0
4, 10798, Note_on_c, 1, 64, 90
4, 10800, Note_on_c, 1, 67, 90
4, 10802, Note_on_c, 1, 74, 90
4, 10857, Note_on_c, 1, 52, 0
4, 10858, Note_on_c, 1, 59, 90
4, 10860, Note_on_c, 1, 40, 0
4, 10915, Note_on_c, 1, 59, 0
4, 10916, Note_on_c, 1, 64, 0
4, 10918, Note_on_c, 1, 67, 0
4, 10918, Note_on_c, 1, 56, 90
4, 10920, Note_on_c, 1, 71, 90
4, 10921, Note_on_c, 1, 64, 90
4, 10921, Note_on_c, 1, 76, 90
4, 10924, Note_on_c, 1, 74, 0
4, 10976, Note_on_c, 1, 56, 0
4, 10979, Note_on_c, 1, 52, 90
4, 11037, Note_on_c, 1, 64, 0
4, 11038, Note_on_c, 1, 76, 0
4, 11038, Note_on_c, 1, 71, 0
4, 11038, Note_on_c, 1, 72, 90
4, 11039, Note_on_c, 1, 52, 0
4, 11039, Note_on_c, 1, 64, 90
4, 11039, Note_on_c, 1, 57, 90
4, 11042, Note_on_c, 1, 69, 90
4, 11042, Note_on_c, 1, 45, 90
4, 11157, Note_on_c, 1, 64, 0
4, 11157, Note_on_c, 1, 72, 0
4, 11158, Note_on_c, 1, 69, 0
4, 11158, Note_on_c, 1, 64, 90
4, 11158, Note_on_c, 1, 60, 90
4, 11160, Note_on_c, 1, 69, 90
4, 11161, Note_on_c, 1, 71, 90
4, 11161, Note_on_c, 1, 48, 90
4, 11162, Note_on_c, 1, 57, 0
4, 11165, Note_on_c, 1, 45, 0
4, 11224, Note_on_c, 1, 71, 0
4, 11276, Note_on_c, 1, 64, 0
4, 11278, Note_on_c, 1, 60, 0
4, 11278, Note_on_c, 1, 69, 0
4, 11281, Note_on_c, 1, 69, 90
4, 11281, Note_on_c, 1, 50, 90
4, 11281, Note_on_c, 1, 77, 90
4, 11282, Note_on_c, 1, 62, 90
4, 11282, Note_on_c, 1, 65, 90
4, 11283, Note_on_c, 1, 48, 0
4, 11398, Note_on_c, 1, 77, 0
4, 11398, Note_on_c, 1, 47, 90
4, 11398, Note_on_c, 1, 76, 90
4, 11399, Note_on_c, 1, 62, 0
4, 11400, Note_on_c, 1, 59, 90
4, 11401, Note_on_c, 1, 50, 0
4, 11401, Note_on_c, 1, 62, 90
4, 11401, Note_on_c, 1, 67, 90
4, 11404, Note_on_c, 1, 65, 0
4, 11404, Note_on_c, 1, 69, 0
4, 11459, Note_on_c, 1, 76, 0
4, 11461, Note_on_c, 1, 74, 90
4, 11519, Note_on_c, 1, 62, 0
4, 11519, Note_on_c, 1, 76, 90
4, 11520, Note_on_c, 1, 69, 90
4, 11521, Note_on_c, 1, 67, 0
4, 11521, Note_on_c, 1, 47, 0
4, 11521, Note_on_c, 1, 48, 90
4, 11521, Note_on_c, 1, 60, 90
4, 11521, Note_on_c, 1, 64, 90
4, 11523, Note_on_c, 1, 74, 0
4, 11523, Note_on_c, 1, 59, 0
4, 11638, Note_on_c, 1, 69, 0
4, 11638, Note_on_c, 1, 64, 0
4, 11638, Note_on_c, 1, 50, 90
4, 11638, Note_on_c, 1, 77, 90
4, 11639, Note_on_c, 1, 60, 0
4, 11640, Note_on_c, 1, 76, 0
4, 11640, Note_on_c, 1, 81, 90
4, 11641, Note_on_c, 1, 62, 90
4, 11642, Note_on_c, 1, 48, 0
4, 11642, Note_on_c, 1, 67, 90
4, 11757, Note_on_c, 1, 77, 0
4, 11758, Note_on_c, 1, 59, 90
4, 11759, Note_on_c, 1, 50, 0
4, 11760, Note_on_c, 1, 67, 0
4, 11760, Note_on_c, 1, 81, 0
4, 11760, Note_on_c, 1, 57, 90
4, 11760, Note_on_c, 1, 64, 90
4, 11761, Note_on_c, 1, 62, 0
4, 11761, Note_on_c, 1, 52, 90
4, 11876, Note_on_c, 1, 57, 0
4, 11878, Note_on_c, 1, 57, 90
4, 11878, Note_on_c, 1, 68, 90
4, 11879, Note_on_c, 1, 59, 0
4, 11879, Note_on_c, 1, 52, 0
4, 11880, Note_on_c, 1, 76, 90
4, 11881, Note_on_c, 1, 71, 90
4, 11881, Note_on_c, 1, 52, 90
4, 11882, Note_on_c, 1, 80, 90
4, 11883, Note_on_c, 1, 64, 0
4, 11997, Note_on_c, 1, 57, 0
4, 11998, Note_on_c, 1, 76, 0
4, 11998, Note_on_c, 1, 68, 0
4, 11998, Note_on_c, 1, 69, 90
4, 11999, Note_on_c, 1, 81, 90
4, 11999, Note_on_c, 1, 33, 90
4, 12001, Note_on_c, 1, 52, 0
4, 12001, Note_on_c, 1, 72, 90
4, 12001, Note_on_c, 1, 76, 90
4, 12001, Note_on_c, 1, 45, 90
4, 12002, Note_on_c, 1, 80, 0
4, 12004, Note_on_c, 1, 71, 0
4, 12118, Note_on_c, 1, 33, 0
4, 12119, Note_on_c, 1, 45, 0
4, 12122, Note_on_c, 1, 45, 90
4, 12236, Note_on_c, 1, 69, 0
4, 12239, Note_on_c, 1, 81, 0
4, 12240, Note_on_c, 1, 76, 0
4, 12240, Note_on_c, 1, 72, 0
4, 12241, Note_on_c, 1, 48, 90
4, 12245, Note_on_c, 1, 45, 0
4, 12362, Note_on_c, 1, 45, 90
4, 12363, Note_on_c, 1, 48, 0
4, 12482, Note_on_c, 1, 57, 90
4, 12484, Note_on_c, 1, 45, 0
4, 12600, Note_on_c, 1, 45, 90
4, 12720, Note_on_c, 1, 48, 90
4, 12721, Note_on_c, 1, 45, 0
4, 12723, Note_on_c, 1, 57, 0
4, 12838, Note_on_c, 1, 48, 0
4, 12838, Note_on_c, 1, 76, 90
4, 12840, Note_on_c, 1, 72, 90
4, 12841, Note_on_c, 1, 45, 90
4, 12842, Note_on_c, 1, 69, 90
4, 12957, Note_on_c, 1, 72, 0
4, 12959, Note_on_c, 1, 57, 90
4, 12960, Note_on_c, 1, 76, 0
4, 12960, Note_on_c, 1, 69, 0
4, 12960, Note_on_c, 1, 72, 90
4, 12960, Note_on_c, 1, 64, 90
4, 12961, Note_on_c, 1, 69, 90
4, 12964, Note_on_c, 1, 45, 0
4, 13078, Note_on_c, 1, 64, 0
4, 13078, Note_on_c, 1, 69, 0
4, 13078, Note_on_c, 1, 60, 90
4, 13079, Note_on_c, 1, 72, 0
4, 13080, Note_on_c, 1, 64, 90
4, 13080, Note_on_c, 1, 69, 90
4, 13082, Note_on_c, 1, 45, 90
4, 13196, Note_on_c, 1, 57, 0
4, 13198, Note_on_c, 1, 60, 0
4, 13201, Note_on_c, 1, 64, 0
4, 13201, Note_on_c, 1, 48, 90
4, 13202, Note_on_c, 1, 69, 0
4, 13203, Note_on_c, 1, 45, 0
4, 13320, Note_on_c, 1, 69, 90
4, 13321, Note_on_c, 1, 48, 0
4, 13321, Note_on_c, 1, 76, 90
4, 13321, Note_on_c, 1, 45, 90
4, 13322, Note_on_c, 1, 72, 90
4, 13437, Note_on_c, 1, 72, 0
4, 13438, Note_on_c, 1, 69, 0
4, 13439, Note_on_c, 1, 57, 90
4, 13439, Note_on_c, 1, 72, 90
4, 13441, Note_on_c, 1, 69, 90
4, 13442, Note_on_c, 1, 64, 90
4, 13443, Note_on_c, 1, 45, 0
4, 13443, Note_on_c, 1, 76, 0
4, 13556, Note_on_c, 1, 69, 0
4, 13558, Note_on_c, 1, 60, 90
4, 13558, Note_on_c, 1, 69, 90
4, 13559, Note_on_c, 1, 64, 0
4, 13561, Note_on_c, 1, 64, 90
4, 13562, Note_on_c, 1, 72, 0
4, 13562, Note_on_c, 1, 45, 90
4, 13675, Note_on_c, 1, 69, 0
4, 13675, Note_on_c, 1, 60, 0
4, 13681, Note_on_c, 1, 64, 0
4, 13681, Note_on_c, 1, 57, 0
4, 13682, Note_on_c, 1, 45, 0
4, 13682, Note_on_c, 1, 48, 90
4, 13800, Note_on_c, 1, 48, 0
4, 13801, Note_on_c, 1, 45, 90
4, 13918, Note_on_c, 1, 45, 0
4, 13922, Note_on_c, 1, 57, 90
4, 14038, Note_on_c, 1, 69, 90
4, 14039, Note_on_c, 1, 64, 90
4, 14042, Note_on_c, 1, 45, 90
4, 14157, Note_on_c, 1, 64, 0
4, 14158, Note_on_c, 1, 44, 90
4, 14159, Note_on_c, 1, 64, 90
4, 14160, Note_on_c, 1, 57, 0
4, 14161, Note_on_c, 1, 69, 0
4, 14161, Note_on_c, 1, 71, 90
4, 14163, Note_on_c, 1, 45, 0
4, 14278, Note_on_c, 1, 64, 0
4, 14278, Note_on_c, 1, 71, 0
4, 14279, Note_on_c, 1, 40, 90
4, 14280, Note_on_c, 1, 71, 90
4, 14280, Note_on_c, 1, 68, 90
4, 14281, Note_on_c, 1, 44, 0
4, 14281, Note_on_c, 1, 64, 90
4, 14398, Note_on_c, 1, 40, 0
4, 14398, Note_on_c, 1, 72, 90
4, 14399, Note_on_c, 1, 68, 0
4, 14399, Note_on_c, 1, 64, 0
4, 14400, Note_on_c, 1, 57, 90
4, 14401, Note_on_c, 1, 69, 90
4, 14402, Note_on_c, 1, 64, 90
4, 14403, Note_on_c, 1, 71, 0
4, 14515, Note_on_c, 1, 72, 0
4, 14518, Note_on_c, 1, 64, 0
4, 14519, Note_on_c, 1, 69, 0
4, 14520, Note_on_c, 1, 64, 90
4, 14520, Note_on_c, 1, 69, 90
4, 14522, Note_on_c, 1, 45, 90
4, 14522, Note_on_c, 1, 60, 90
4, 14637, Note_on_c, 1, 57, 0
4, 14638, Note_on_c, 1, 69, 0
4, 14638, Note_on_c, 1, 48, 90
4, 14639, Note_on_c, 1, 64, 0
4, 14643, Note_on_c, 1, 45, 0
4, 14644, Note_on_c, 1, 60, 0
4, 14755, Note_on_c, 1, 48, 0
4, 14758, Note_on_c, 1, 45, 90
4, 14876, Note_on_c, 1, 45, 0
4, 14881, Note_on_c, 1, 61, 90
4, 14998, Note_on_c, 1, 69, 90
4, 15000, Note_on_c, 1, 76, 90
4, 15002, Note_on_c, 1, 52, 90
4, 15116, Note_on_c, 1, 76, 0
4, 15116, Note_on_c, 1, 69, 0
4, 15118, Note_on_c, 1, 61, 0
4, 15118, Note_on_c, 1, 76, 90
4, 15120, Note_on_c, 1, 52, 0
4, 15121, Note_on_c, 1, 69, 90
4, 15122, Note_on_c, 1, 49, 90
4, 15122, Note_on_c, 1, 81, 90
4, 15235, Note_on_c, 1, 76, 0
4, 15239, Note_on_c, 1, 69, 0
4, 15239, Note_on_c, 1, 73, 90
4, 15240, Note_on_c, 1, 69, 90
4, 15242, Note_on_c, 1, 76, 90
4, 15242, Note_on_c, 1, 45, 90
4, 15243, Note_on_c, 1, 81, 0
4, 15244, Note_on_c, 1, 49, 0
4, 15356, Note_on_c, 1, 73, 0
4, 15358, Note_on_c, 1, 69, 0
4, 15359, Note_on_c, 1, 61, 90
4, 15361, Note_on_c, 1, 76, 0
4, 15363, Note_on_c, 1, 45, 0
4, 15480, Note_on_c, 1, 76, 90
4, 15481, Note_on_c, 1, 52, 90
4, 15482, Note_on_c, 1, 69, 90
4, 15596, Note_on_c, 1, 76, 0
4, 15598, Note_on_c, 1, 69, 0
4, 15598, Note_on_c, 1, 52, 0
4, 15598, Note_on_c, 1, 76, 90
4, 15599, Note_on_c, 1, 81, 90
4, 15600, Note_on_c, 1, 69, 90
4, 15601, Note_on_c, 1, 49, 90
4, 15602, Note_on_c, 1, 61, 0
4, 15716, Note_on_c, 1, 76, 0
4, 15718, Note_on_c, 1, 69, 0
4, 15720, Note_on_c, 1, 69, 90
4, 15721, Note_on_c, 1, 81, 0
4, 15721, Note_on_c, 1, 76, 90
4, 15721, Note_on_c, 1, 73, 90
4, 15722, Note_on_c, 1, 49, 0
4, 15722, Note_on_c, 1, 45, 90
4, 15838, Note_on_c, 1, 69, 0
4, 15839, Note_on_c, 1, 61, 90
4, 15842, Note_on_c, 1, 73, 0
4, 15842, Note_on_c, 1, 76, 0
4, 15845, Note_on_c, 1, 45, 0
4, 15959, Note_on_c, 1, 76, 90
4, 15960, Note_on_c, 1, 69, 90
4, 15962, Note_on_c, 1, 55, 90
4, 16076, Note_on_c, 1, 76, 0
4, 16077, Note_on_c, 1, 61, 0
4, 16078, Note_on_c, 1, 69, 0
4, 16079, Note_on_c, 1, 49, 90
4, 16080, Note_on_c, 1, 55, 0
4, 16080, Note_on_c, 1, 69, 90
4, 16080, Note_on_c, 1, 76, 90
4, 16082, Note_on_c, 1, 81, 90
4, 16198, Note_on_c, 1, 76, 0
4, 16198, Note_on_c, 1, 69, 0
4, 16199, Note_on_c, 1, 76, 90
4, 16200, Note_on_c, 1, 69, 90
4, 16201, Note_on_c, 1, 81, 0
4, 16201, Note_on_c, 1, 73, 90
4, 16201, Note_on_c, 1, 45, 90
4, 16202, Note_on_c, 1, 49, 0
4, 16318, Note_on_c, 1, 69, 0
4, 16318, Note_on_c, 1, 45, 0
4, 16318, Note_on_c, 1, 76, 0
4, 16320, Note_on_c, 1, 61, 90
4, 16323, Note_on_c, 1, 73, 0
4, 16440, Note_on_c, 1, 57, 90
4, 16440, Note_on_c, 1, 64, 90
4, 16440, Note_on_c, 1, 73, 90
4, 16441, Note_on_c, 1, 69, 90
4, 16556, Note_on_c, 1, 69, 0
4, 16558, Note_on_c, 1, 53, 90
4, 16558, Note_on_c, 1, 69, 90
4, 16559, Note_on_c, 1, 73, 0
4, 16560, Note_on_c, 1, 74, 90
4, 16561, Note_on_c, 1, 64, 0
4, 16561, Note_on_c, 1, 61, 0
4, 16562, Note_on_c, 1, 62, 90
4, 16563, Note_on_c, 1, 57, 0
4, 16676, Note_on_c, 1, 69, 0
4, 16678, Note_on_c, 1, 74, 0
4, 16678, Note_on_c, 1, 50, 90
4, 16681, Note_on_c, 1, 53, 0
4, 16681, Note_on_c, 1, 62, 0
4, 16681, Note_on_c, 1, 65, 90
4, 16681, Note_on_c, 1, 69, 90
4, 16682, Note_on_c, 1, 74, 90
4, 16797, Note_on_c, 1, 50, 0
4, 16798, Note_on_c, 1, 67, 90
4, 16798, Note_on_c, 1, 62, 90
4, 16799, Note_on_c, 1, 65, 0
4, 16799, Note_on_c, 1, 69, 0
4, 16799, Note_on_c, 1, 70, 90
4, 16800, Note_on_c, 1, 52, 90
4, 16803, Note_on_c, 1, 74, 0
4, 16917, Note_on_c, 1, 52, 0
4, 16920, Note_on_c, 1, 53, 90
4, 16977, Note_on_c, 1, 53, 0
4, 16981, Note_on_c, 1, 55, 90
4, 17037, Note_on_c, 1, 67, 0
4, 17038, Note_on_c, 1, 64, 90
4, 17039, Note_on_c, 1, 70, 0
4, 17041, Note_on_c, 1, 57, 90
4, 17042, Note_on_c, 1, 55, 0
4, 17042, Note_on_c, 1, 69, 90
4, 17156, Note_on_c, 1, 64, 0
4, 17156, Note_on_c, 1, 62, 0
4, 17157, Note_on_c, 1, 69, 0
4, 17158, Note_on_c, 1, 61, 90
4, 17159, Note_on_c, 1, 69, 90
4, 17159, Note_on_c, 1, 64, 90
4, 17159, Note_on_c, 1, 45, 90
4, 17163, Note_on_c, 1, 57, 0
4, 17276, Note_on_c, 1, 69, 0
4, 17278, Note_on_c, 1, 50, 90
4, 17279, Note_on_c, 1, 61, 0
4, 17279, Note_on_c, 1, 64, 0
4, 17280, Note_on_c, 1, 69, 90
4, 17281, Note_on_c, 1, 62, 90
4, 17282, Note_on_c, 1, 45, 0
4, 17282, Note_on_c, 1, 65, 90
4, 17401, Note_on_c, 1, 50, 0
4, 17519, Note_on_c, 1, 69, 0
4, 17520, Note_on_c, 1, 53, 90
4, 17523, Note_on_c, 1, 65, 0
4, 17524, Note_on_c, 1, 62, 0
4, 17640, Note_on_c, 1, 50, 90
4, 17642, Note_on_c, 1, 53, 0
4, 17761, Note_on_c, 1, 50, 0
4, 17762, Note_on_c, 1, 59, 90
4, 17881, Note_on_c, 1, 65, 90
4, 17882, Note_on_c, 1, 50, 90
4, 17998, Note_on_c, 1, 77, 90
4, 18000, Note_on_c, 1, 50, 0
4, 18000, Note_on_c, 1, 47, 90
4, 18001, Note_on_c, 1, 59, 0
4, 18003, Note_on_c, 1, 65, 0
4, 18118, Note_on_c, 1, 77, 0
4, 18118, Note_on_c, 1, 43, 90
4, 18121, Note_on_c, 1, 47, 0
4, 18121, Note_on_c, 1, 71, 90
4, 18240, Note_on_c, 1, 71, 0
4, 18240, Note_on_c, 1, 59, 90
4, 18241, Note_on_c, 1, 43, 0
4, 18358, Note_on_c, 1, 65, 90
4, 18359, Note_on_c, 1, 50, 90
4, 18476, Note_on_c, 1, 50, 0
4, 18477, Note_on_c, 1, 65, 0
4, 18477, Note_on_c, 1, 59, 0
4, 18479, Note_on_c, 1, 77, 90
4, 18481, Note_on_c, 1, 47, 90
4, 18599, Note_on_c, 1, 47, 0
4, 18599, Note_on_c, 1, 43, 90
4, 18600, Note_on_c, 1, 77, 0
4, 18601, Note_on_c, 1, 71, 90
4, 18717, Note_on_c, 1, 43, 0
4, 18719, Note_on_c, 1, 71, 0
4, 18720, Note_on_c, 1, 59, 90
4, 18840, Note_on_c, 1, 71, 90
4, 18842, Note_on_c, 1, 74, 90
4, 18842, Note_on_c, 1, 53, 90
4, 18958, Note_on_c, 1, 59, 0
4, 18958, Note_on_c, 1, 67, 90
4, 18959, Note_on_c, 1, 53, 0
4, 18960, Note_on_c, 1, 74, 0
4, 18962, Note_on_c, 1, 71, 0
4, 18962, Note_on_c, 1, 47, 90
4, 18962, Note_on_c, 1, 74, 90
4, 19075, Note_on_c, 1, 67, 0
4, 19077, Note_on_c, 1, 74, 0
4, 19079, Note_on_c, 1, 74, 90
4, 19079, Note_on_c, 1, 43, 90
4, 19081, Note_on_c, 1, 71, 90
4, 19085, Note_on_c, 1, 47, 0
4, 19196, Note_on_c, 1, 74, 0
4, 19199, Note_on_c, 1, 59, 90
4, 19201, Note_on_c, 1, 71, 0
4, 19202, Note_on_c, 1, 43, 0
4, 19319, Note_on_c, 1, 71, 90
4, 19319, Note_on_c, 1, 67, 90
4, 19321, Note_on_c, 1, 62, 90
4, 19322, Note_on_c, 1, 55, 90
4, 19436, Note_on_c, 1, 67, 0
4, 19438, Note_on_c, 1, 72, 90
4, 19438, Note_on_c, 1, 67, 90
4, 19438, Note_on_c, 1, 60, 90
4, 19440, Note_on_c, 1, 62, 0
4, 19440, Note_on_c, 1, 59, 0
4, 19441, Note_on_c, 1, 55, 0
4, 19442, Note_on_c, 1, 71, 0
4, 19442, Note_on_c, 1, 52, 90
4, 19556, Note_on_c, 1, 72, 0
4, 19560, Note_on_c, 1, 52, 0
4, 19560, Note_on_c, 1, 67, 0
4, 19560, Note_on_c, 1, 72, 90
4, 19561, Note_on_c, 1, 60, 0
4, 19561, Note_on_c, 1, 48, 90
4, 19562, Note_on_c, 1, 64, 90
4, 19677, Note_on_c, 1, 72, 0
4, 19678, Note_on_c, 1, 48, 0
4, 19679, Note_on_c, 1, 50, 90
4, 19679, Note_on_c, 1, 72, 90
4, 19681, Note_on_c, 1, 65, 90
4, 19683, Note_on_c, 1, 64, 0
4, 19800, Note_on_c, 1, 65, 0
4, 19801, Note_on_c, 1, 64, 90
4, 19802, Note_on_c, 1, 50, 0
4, 19802, Note_on_c, 1, 52, 90
4, 19860, Note_on_c, 1, 52, 0
4, 19862, Note_on_c, 1, 53, 90
4, 19921, Note_on_c, 1, 53, 0
4, 19921, Note_on_c, 1, 55, 90
4, 19921, Note_on_c, 1, 62, 90
4, 19922, Note_on_c, 1, 64, 0
4, 20038, Note_on_c, 1, 67, 90
4, 20039, Note_on_c, 1, 43, 90
4, 20040, Note_on_c, 1, 72, 0
4, 20040, Note_on_c, 1, 62, 0
4, 20040, Note_on_c, 1, 71, 90
4, 20042, Note_on_c, 1, 55, 0
4, 20042, Note_on_c, 1, 62, 90
4, 20155, Note_on_c, 1, 67, 0
4, 20158, Note_on_c, 1, 43, 0
4, 20159, Note_on_c, 1, 62, 0
4, 20160, Note_on_c, 1, 67, 90
4, 20161, Note_on_c, 1, 72, 90
4, 20161, Note_on_c, 1, 45, 90
4, 20162, Note_on_c, 1, 71, 0
4, 20162, Note_on_c, 1, 64, 90
4, 20283, Note_on_c, 1, 45, 0
4, 20399, Note_on_c, 1, 67, 0
4, 20399, Note_on_c, 1, 72, 0
4, 20401, Note_on_c, 1, 60, 90
4, 20404, Note_on_c, 1, 64, 0
4, 20518, Note_on_c, 1, 57, 90
4, 20519, Note_on_c, 1, 60, 0
4, 20519, Note_on_c, 1, 76, 90
4, 20521, Note_on_c, 1, 72, 90
4, 20637, Note_on_c, 1, 76, 0
4, 20639, Note_on_c, 1, 72, 0
4, 20641, Note_on_c, 1, 57, 0
4, 20641, Note_on_c, 1, 76, 90
4, 20641, Note_on_c, 1, 72, 90
4, 20758, Note_on_c, 1, 72, 0
4, 20758, Note_on_c, 1, 69, 90
4, 20759, Note_on_c, 1, 57, 90
4, 20760, Note_on_c, 1, 72, 90
4, 20760, Note_on_c, 1, 64, 90
4, 20761, Note_on_c, 1, 76, 0
4, 20819, Note_on_c, 1, 72, 0
4, 20820, Note_on_c, 1, 74, 90
4, 20877, Note_on_c, 1, 69, 0
4, 20879, Note_on_c, 1, 74, 0
4, 20879, Note_on_c, 1, 76, 90
4, 20880, Note_on_c, 1, 60, 90
4, 20881, Note_on_c, 1, 64, 0
4, 20882, Note_on_c, 1, 57, 0
4, 20998, Note_on_c, 1, 76, 0
4, 20998, Note_on_c, 1, 64, 90
4, 21000, Note_on_c, 1, 57, 90
4, 21001, Note_on_c, 1, 72, 90
4, 21002, Note_on_c, 1, 76, 90
4, 21003, Note_on_c, 1, 60, 0
4, 21116, Note_on_c, 1, 72, 0
4, 21116, Note_on_c, 1, 76, 0
4, 21118, Note_on_c, 1, 72, 90
4, 21118, Note_on_c, 1, 76, 90
4, 21119, Note_on_c, 1, 64, 0
4, 21122, Note_on_c, 1, 57, 0
4, 21235, Note_on_c, 1, 76, 0
4, 21236, Note_on_c, 1, 72, 0
4, 21238, Note_on_c, 1, 69, 90
4, 21240, Note_on_c, 1, 57, 90
4, 21241, Note_on_c, 1, 72, 90
4, 21241, Note_on_c, 1, 64, 90
4, 21299, Note_on_c, 1, 72, 0
4, 21299, Note_on_c, 1, 74, 90
4, 21355, Note_on_c, 1, 69, 0
4, 21359, Note_on_c, 1, 76, 90
4, 21360, Note_on_c, 1, 64, 0
4, 21360, Note_on_c, 1, 74, 0
4, 21360, Note_on_c, 1, 57, 0
4, 21362, Note_on_c, 1, 60, 90
4, 21478, Note_on_c, 1, 76, 0
4, 21478, Note_on_c, 1, 72, 90
4, 21479, Note_on_c, 1, 60, 0
4, 21479, Note_on_c, 1, 76, 90
4, 21481, Note_on_c, 1, 57, 90
4, 21482, Note_on_c, 1, 64, 90
4, 21595, Note_on_c, 1, 72, 0
4, 21597, Note_on_c, 1, 76, 0
4, 21600, Note_on_c, 1, 64, 0
4, 21602, Note_on_c, 1, 72, 90
4, 21602, Note_on_c, 1, 76, 90
4, 21603, Note_on_c, 1, 57, 0
4, 21716, Note_on_c, 1, 72, 0
4, 21718, Note_on_c, 1, 72, 90
4, 21718, Note_on_c, 1, 57, 90
4, 21719, Note_on_c, 1, 64, 90
4, 21720, Note_on_c, 1, 77, 90
4, 21722, Note_on_c, 1, 76, 0
4, 21778, Note_on_c, 1, 77, 0
4, 21781, Note_on_c, 1, 79, 90
4, 21835, Note_on_c, 1, 72, 0
4, 21836, Note_on_c, 1, 57, 0
4, 21838, Note_on_c, 1, 79, 0
4, 21839, Note_on_c, 1, 64, 0
4, 21840, Note_on_c, 1, 60, 90
4, 21841, Note_on_c, 1, 81, 90
4, 21960, Note_on_c, 1, 69, 90
4, 21961, Note_on_c, 1, 72, 90
4, 21961, Note_on_c, 1, 79, 90
4, 21961, Note_on_c, 1, 57, 90
4, 21961, Note_on_c, 1, 64, 90
4, 21962, Note_on_c, 1, 81, 0
4, 21962, Note_on_c, 1, 60, 0
4, 22018, Note_on_c, 1, 79, 0
4, 22022, Note_on_c, 1, 77, 90
4, 22078, Note_on_c, 1, 76, 90
4, 22079, Note_on_c, 1, 72, 0
4, 22079, Note_on_c, 1, 69, 0
4, 22080, Note_on_c, 1, 77, 0
4, 22080, Note_on_c, 1, 69, 90
4, 22081, Note_on_c, 1, 57, 0
4, 22081, Note_on_c, 1, 72, 90
4, 22084, Note_on_c, 1, 64, 0
4, 22197, Note_on_c, 1, 76, 0
4, 22198, Note_on_c, 1, 74, 90
4, 22199, Note_on_c, 1, 69, 0
4, 22200, Note_on_c, 1, 69, 90
4, 22201, Note_on_c, 1, 72, 0
4, 22202, Note_on_c, 1, 64, 90
4, 22202, Note_on_c, 1, 57, 90
4, 22257, Note_on_c, 1, 74, 0
4, 22259, Note_on_c, 1, 72, 90
4, 22318, Note_on_c, 1, 72, 0
4, 22318, Note_on_c, 1, 64, 0
4, 22318, Note_on_c, 1, 71, 90
4, 22320, Note_on_c, 1, 64, 90
4, 22320, Note_on_c, 1, 56, 90
4, 22321, Note_on_c, 1, 57, 0
4, 22322, Note_on_c, 1, 69, 0
4, 22436, Note_on_c, 1, 71, 0
4, 22437, Note_on_c, 1, 56, 0
4, 22438, Note_on_c, 1, 52, 90
4, 22439, Note_on_c, 1, 76, 90
4, 22441, Note_on_c, 1, 71, 90
4, 22441, Note_on_c, 1, 68, 90
4, 22442, Note_on_c, 1, 64, 0
4, 22556, Note_on_c, 1, 76, 0
4, 22558, Note_on_c, 1, 72, 90
4, 22559, Note_on_c, 1, 52, 0
4, 22560, Note_on_c, 1, 69, 90
4, 22561, Note_on_c, 1, 45, 90
4, 22562, Note_on_c, 1, 64, 90
4, 22563, Note_on_c, 1, 71, 0
4, 22563, Note_on_c, 1, 68, 0
4, 22677, Note_on_c, 1, 72, 0
4, 22678, Note_on_c, 1, 69, 0
4, 22678, Note_on_c, 1, 57, 90
4, 22679, Note_on_c, 1, 64, 0
4, 22679, Note_on_c, 1, 69, 90
4, 22680, Note_on_c, 1, 45, 0
4, 22680, Note_on_c, 1, 64, 90
4, 22680, Note_on_c, 1, 60, 90
4, 22796, Note_on_c, 1, 57, 0
4, 22797, Note_on_c, 1, 69, 0
4, 22797, Note_on_c, 1, 64, 0
4, 22798, Note_on_c, 1, 60, 0
4, 22799, Note_on_c, 1, 64, 90
4, 22800, Note_on_c, 1, 69, 90
4, 22802, Note_on_c, 1, 60, 90
4, 22919, Note_on_c, 1, 57, 90
4, 22921, Note_on_c, 1, 60, 0
4, 23037, Note_on_c, 1, 57, 0
4, 23037, Note_on_c, 1, 64, 0
4, 23039, Note_on_c, 1, 69, 0
4, 23042, Note_on_c, 1, 57, 90
4, 23158, Note_on_c, 1, 64, 90
4, 23160, Note_on_c, 1, 69, 90
4, 23161, Note_on_c, 1, 76, 90
4, 23161, Note_on_c, 1, 45, 90
4, 23277, Note_on_c, 1, 64, 0
4, 23278, Note_on_c, 1, 45, 0
4, 23278, Note_on_c, 1, 69, 0
4, 23279, Note_on_c, 1, 76, 0
4, 23279, Note_on_c, 1, 64, 90
4, 23280, Note_on_c, 1, 57, 0
4, 23281, Note_on_c, 1, 69, 90
4, 23282, Note_on_c, 1, 48, 90
4, 23397, Note_on_c, 1, 64, 0
4, 23398, Note_on_c, 1, 64, 90
4, 23399, Note_on_c, 1, 69, 0
4, 23401, Note_on_c, 1, 69, 90
4, 23402, Note_on_c, 1, 48, 0
4, 23402, Note_on_c, 1, 76, 90
4, 23402, Note_on_c, 1, 45, 90
4, 23518, Note_on_c, 1, 64, 0
4, 23519, Note_on_c, 1, 69, 0
4, 23521, Note_on_c, 1, 57, 90
4, 23522, Note_on_c, 1, 45, 0
4, 23525, Note_on_c, 1, 76, 0
4, 23638, Note_on_c, 1, 69, 90
4, 23638, Note_on_c, 1, 64, 90
4, 23642, Note_on_c, 1, 76, 90
4, 23642, Note_on_c, 1, 45, 90
4, 23756, Note_on_c, 1, 64, 0
4, 23756, Note_on_c, 1, 69, 0
4, 23760, Note_on_c, 1, 76, 0
4, 23761, Note_on_c, 1, 45, 0
4, 23761, Note_on_c, 1, 64, 90
4, 23761, Note_on_c, 1, 69, 90
4, 23761, Note_on_c, 1, 48, 90
4, 23762, Note_on_c, 1, 57, 0
4, 23876, Note_on_c, 1, 64, 0
4, 23878, Note_on_c, 1, 64, 90
4, 23879, Note_on_c, 1, 69, 0
4, 23880, Note_on_c, 1, 69, 90
4, 23881, Note_on_c, 1, 45, 90
4, 23881, Note_on_c, 1, 76, 90
4, 23883, Note_on_c, 1, 48, 0
4, 23997, Note_on_c, 1, 64, 0
4, 23998, Note_on_c, 1, 76, 0
4, 23998, Note_on_c, 1, 69, 0
4, 24002, Note_on_c, 1, 57, 90
4, 24004, Note_on_c, 1, 45, 0
4, 24118, Note_on_c, 1, 64, 90
4, 24119, Note_on_c, 1, 76, 90
4, 24121, Note_on_c, 1, 69, 90
4, 24122, Note_on_c, 1, 45, 90
4, 24236, Note_on_c, 1, 64, 0
4, 24239, Note_on_c, 1, 69, 0
4, 24239, Note_on_c, 1, 76, 0
4, 24240, Note_on_c, 1, 64, 90
4, 24240, Note_on_c, 1, 69, 90
4, 24242, Note_on_c, 1, 49, 90
4, 24245, Note_on_c, 1, 57, 0
4, 24245, Note_on_c, 1, 45, 0
4, 24358, Note_on_c, 1, 69, 0
4, 24358, Note_on_c, 1, 64, 0
4, 24359, Note_on_c, 1, 49, 0
4, 24360, Note_on_c, 1, 76, 90
4, 24360, Note_on_c, 1, 69, 90
4, 24361, Note_on_c, 1, 45, 90
4, 24362, Note_on_c, 1, 64, 90
4, 24478, Note_on_c, 1, 76, 0
4, 24479, Note_on_c, 1, 69, 0
4, 24479, Note_on_c, 1, 57, 90
4, 24481, Note_on_c, 1, 45, 0
4, 24483, Note_on_c, 1, 64, 0
4, 24598, Note_on_c, 1, 69, 90
4, 24600, Note_on_c, 1, 45, 90
4, 24600, Note_on_c, 1, 64, 90
4, 24601, Note_on_c, 1, 76, 90
4, 24716, Note_on_c, 1, 69, 0
4, 24717, Note_on_c, 1, 64, 0
4, 24717, Note_on_c, 1, 45, 0
4, 24718, Note_on_c, 1, 76, 0
4, 24719, Note_on_c, 1, 57, 0
4, 24719, Note_on_c, 1, 69, 90
4, 24721, Note_on_c, 1, 64, 90
4, 24722, Note_on_c, 1, 49, 90
4, 24837, Note_on_c, 1, 64, 0
4, 24837, Note_on_c, 1, 69, 0
4, 24838, Note_on_c, 1, 76, 90
4, 24839, Note_on_c, 1, 64, 90
4, 24839, Note_on_c, 1, 69, 90
4, 24840, Note_on_c, 1, 49, 0
4, 24840, Note_on_c, 1, 45, 90
4, 24955, Note_on_c, 1, 76, 0
4, 24958, Note_on_c, 1, 69, 0
4, 24960, Note_on_c, 1, 64, 0
4, 24960, Note_on_c, 1, 45, 0
4, 24961, Note_on_c, 1, 57, 90
4, 25078, Note_on_c, 1, 76, 90
4, 25078, Note_on_c, 1, 64, 90
4, 25081, Note_on_c, 1, 69, 90
4, 25082, Note_on_c, 1, 45, 90
4, 25196, Note_on_c, 1, 64, 0
4, 25197, Note_on_c, 1, 69, 0
4, 25198, Note_on_c, 1, 49, 90
4, 25198, Note_on_c, 1, 64, 90
4, 25199, Note_on_c, 1, 69, 90
4, 25200, Note_on_c, 1, 76, 0
4, 25203, Note_on_c, 1, 57, 0
4, 25205, Note_on_c, 1, 45, 0
4, 25316, Note_on_c, 1, 49, 0
4, 25316, Note_on_c, 1, 64, 0
4, 25317, Note_on_c, 1, 69, 0
4, 25318, Note_on_c, 1, 45, 90
4, 25319, Note_on_c, 1, 76, 90
4, 25319, Note_on_c, 1, 69, 90
4, 25321, Note_on_c, 1, 64, 90
4, 25436, Note_on_c, 1, 76, 0
4, 25436, Note_on_c, 1, 45, 0
4, 25437, Note_on_c, 1, 69, 0
4, 25439, Note_on_c, 1, 64, 0
4, 25441, Note_on_c, 1, 62, 90
4, 25559, Note_on_c, 1, 74, 90
4, 25562, Note_on_c, 1, 50, 90
4, 25562, Note_on_c, 1, 69, 90
4, 25677, Note_on_c, 1, 74, 0
4, 25678, Note_on_c, 1, 69, 0
4, 25679, Note_on_c, 1, 62, 0
4, 25680, Note_on_c, 1, 69, 90
4, 25680, Note_on_c, 1, 74, 90
4, 25680, Note_on_c, 1, 53, 90
4, 25682, Note_on_c, 1, 81, 90
4, 25684, Note_on_c, 1, 50, 0
4, 25796, Note_on_c, 1, 74, 0
4, 25798, Note_on_c, 1, 74, 90
4, 25799, Note_on_c, 1, 50, 90
4, 25799, Note_on_c, 1, 76, 90
4, 25801, Note_on_c, 1, 81, 0
4, 25802, Note_on_c, 1, 69, 0
4, 25803, Note_on_c, 1, 53, 0
4, 25917, Note_on_c, 1, 50, 0
4, 25920, Note_on_c, 1, 74, 0
4, 25920, Note_on_c, 1, 62, 90
4, 25922, Note_on_c, 1, 76, 0
4, 26038, Note_on_c, 1, 50, 90
4, 26038, Note_on_c, 1, 74, 90
4, 26039, Note_on_c, 1, 69, 90
4, 26155, Note_on_c, 1, 74, 0
4, 26156, Note_on_c, 1, 50, 0
4, 26157, Note_on_c, 1, 62, 0
4, 26157, Note_on_c, 1, 69, 0
4, 26160, Note_on_c, 1, 69, 90
4, 26160, Note_on_c, 1, 74, 90
4, 26161, Note_on_c, 1, 53, 90
4, 26162, Note_on_c, 1, 81, 90
4, 26278, Note_on_c, 1, 50, 90
4, 26278, Note_on_c, 1, 76, 90
4, 26279, Note_on_c, 1, 74, 0
4, 26280, Note_on_c, 1, 53, 0
4, 26282, Note_on_c, 1, 74, 90
4, 26283, Note_on_c, 1, 69, 0
4, 26285, Note_on_c, 1, 81, 0
4, 26397, Note_on_c, 1, 76, 0
4, 26401, Note_on_c, 1, 50, 0
4, 26401, Note_on_c, 1, 62, 90
4, 26403, Note_on_c, 1, 74, 0
4, 26520, Note_on_c, 1, 65, 90
4, 26520, Note_on_c, 1, 50, 90
4, 26521, Note_on_c, 1, 69, 90
4, 26638, Note_on_c, 1, 50, 0
4, 26638, Note_on_c, 1, 65, 0
4, 26639, Note_on_c, 1, 69, 0
4, 26639, Note_on_c, 1, 65, 90
4, 26640, Note_on_c, 1, 62, 0
4, 26640, Note_on_c, 1, 74, 90
4, 26641, Note_on_c, 1, 50, 90
4, 26642, Note_on_c, 1, 69, 90
4, 26758, Note_on_c, 1, 69, 0
4, 26758, Note_on_c, 1, 74, 0
4, 26758, Note_on_c, 1, 48, 90
4, 26759, Note_on_c, 1, 77, 90
4, 26760, Note_on_c, 1, 69, 90
4, 26761, Note_on_c, 1, 65, 0
4, 26761, Note_on_c, 1, 74, 90
4, 26763, Note_on_c, 1, 50, 0
4, 26878, Note_on_c, 1, 48, 0
4, 26881, Note_on_c, 1, 74, 0
4, 26881, Note_on_c, 1, 77, 0
4, 26881, Note_on_c, 1, 59, 90
4, 26882, Note_on_c, 1, 69, 0
4, 26998, Note_on_c, 1, 47, 90
4, 27001, Note_on_c, 1, 67, 90
4, 27001, Note_on_c, 1, 74, 90
4, 27117, Note_on_c, 1, 74, 0
4, 27118, Note_on_c, 1, 67, 0
4, 27119, Note_on_c, 1, 59, 0
4, 27119, Note_on_c, 1, 50, 90
4, 27119, Note_on_c, 1, 74, 90
4, 27120, Note_on_c, 1, 67, 90
4, 27121, Note_on_c, 1, 47, 0
4, 27122, Note_on_c, 1, 79, 90
4, 27236, Note_on_c, 1, 67, 0
4, 27237, Note_on_c, 1, 50, 0
4, 27238, Note_on_c, 1, 74, 0
4, 27238, Note_on_c, 1, 67, 90
4, 27239, Note_on_c, 1, 47, 90
4, 27241, Note_on_c, 1, 74, 90
4, 27244, Note_on_c, 1, 79, 0
4, 27355, Note_on_c, 1, 67, 0
4, 27358, Note_on_c, 1, 60, 90
4, 27360, Note_on_c, 1, 74, 0
4, 27362, Note_on_c, 1, 47, 0
4, 27481, Note_on_c, 1, 52, 90
4, 27482, Note_on_c, 1, 72, 90
4, 27596, Note_on_c, 1, 60, 0
4, 27599, Note_on_c, 1, 52, 0
4, 27601, Note_on_c, 1, 72, 0
4, 27601, Note_on_c, 1, 69, 90
4, 27602, Note_on_c, 1, 48, 90
4, 27719, Note_on_c, 1, 76, 90
4, 27721, Note_on_c, 1, 60, 90
4, 27723, Note_on_c, 1, 48, 0
4, 27724, Note_on_c, 1, 69, 0
4, 27839, Note_on_c, 1, 60, 0
4, 27841, Note_on_c, 1, 76, 0
4, 27842, Note_on_c, 1, 59, 90
4, 27960, Note_on_c, 1, 50, 90
4, 27962, Note_on_c, 1, 71, 90
4, 28078, Note_on_c, 1, 67, 90
4, 28080, Note_on_c, 1, 50, 0
4, 28080, Note_on_c, 1, 47, 90
4, 28082, Note_on_c, 1, 59, 0
4, 28084, Note_on_c, 1, 71, 0
4, 28198, Note_on_c, 1, 74, 90
4, 28199, Note_on_c, 1, 67, 0
4, 28201, Note_on_c, 1, 59, 90
4, 28202, Note_on_c, 1, 47, 0
4, 28316, Note_on_c, 1, 74, 0
4, 28318, Note_on_c, 1, 57, 90
4, 28320, Note_on_c, 1, 59, 0
4, 28440, Note_on_c, 1, 69, 90
4, 28441, Note_on_c, 1, 48, 90
4, 28558, Note_on_c, 1, 64, 90
4, 28559, Note_on_c, 1, 48, 0
4, 28559, Note_on_c, 1, 45, 90
4, 28561, Note_on_c, 1, 57, 0
4, 28561, Note_on_c, 1, 69, 0
4, 28676, Note_on_c, 1, 45, 0
4, 28678, Note_on_c, 1, 57, 90
4, 28681, Note_on_c, 1, 64, 0
4, 28682, Note_on_c, 1, 72, 90
4, 28795, Note_on_c, 1, 57, 0
4, 28802, Note_on_c, 1, 55, 90
4, 28804, Note_on_c, 1, 72, 0
4, 28918, Note_on_c, 1, 47, 90
4, 28919, Note_on_c, 1, 71, 90
4, 29036, Note_on_c, 1, 71, 0
4, 29038, Note_on_c, 1, 47, 0
4, 29039, Note_on_c, 1, 55, 0
4, 29040, Note_on_c, 1, 67, 90
4, 29042, Note_on_c, 1, 43, 90
4, 29158, Note_on_c, 1, 74, 90
4, 29160, Note_on_c, 1, 67, 0
4, 29160, Note_on_c, 1, 55, 90
4, 29162, Note_on_c, 1, 43, 0
4, 29276, Note_on_c, 1, 74, 0
4, 29277, Note_on_c, 1, 55, 0
4, 29279, Note_on_c, 1, 57, 90
4, 29401, Note_on_c, 1, 48, 90
4, 29402, Note_on_c, 1, 69, 90
4, 29518, Note_on_c, 1, 57, 0
4, 29519, Note_on_c, 1, 69, 0
4, 29520, Note_on_c, 1, 48, 0
4, 29521, Note_on_c, 1, 45, 90
4, 29522, Note_on_c, 1, 64, 90
4, 29638, Note_on_c, 1, 57, 90
4, 29639, Note_on_c, 1, 64, 0
4, 29639, Note_on_c, 1, 45, 0
4, 29642, Note_on_c, 1, 72, 90
4, 29758, Note_on_c, 1, 57, 0
4, 29758, Note_on_c, 1, 59, 90
4, 29764, Note_on_c, 1, 72, 0
4, 29880, Note_on_c, 1, 50, 90
4, 29882, Note_on_c, 1, 71, 90
4, 29996, Note_on_c, 1, 59, 0
4, 29999, Note_on_c, 1, 47, 90
4, 30001, Note_on_c, 1, 67, 90
4, 30003, Note_on_c, 1, 50, 0
4, 30005, Note_on_c, 1, 71, 0
4, 30117, Note_on_c, 1, 47, 0
4, 30118, Note_on_c, 1, 67, 0
4, 30119, Note_on_c, 1, 59, 90
4, 30120, Note_on_c, 1, 74, 90
4, 30239, Note_on_c, 1, 59, 0
4, 30239, Note_on_c, 1, 60, 90
4, 30241, Note_on_c, 1, 74, 0
4, 30358, Note_on_c, 1, 52, 90
4, 30361, Note_on_c, 1, 72, 90
4, 30478, Note_on_c, 1, 52, 0
4, 30478, Note_on_c, 1, 60, 0
4, 30479, Note_on_c, 1, 76, 90
4, 30480, Note_on_c, 1, 72, 0
4, 30482, Note_on_c, 1, 69, 90
4, 30482, Note_on_c, 1, 48, 90
4, 30597, Note_on_c, 1, 76, 0
4, 30599, Note_on_c, 1, 48, 0
4, 30600, Note_on_c, 1, 69, 0
4, 30601, Note_on_c, 1, 60, 90
4, 30601, Note_on_c, 1, 76, 90
4, 30601, Note_on_c, 1, 81, 90
4, 30602, Note_on_c, 1, 69, 90
4, 30719, Note_on_c, 1, 69, 0
4, 30719, Note_on_c, 1, 59, 90
4, 30719, Note_on_c, 1, 71, 90
4, 30719, Note_on_c, 1, 66, 90
4, 30721, Note_on_c, 1, 60, 0
4, 30721, Note_on_c, 1, 76, 0
4, 30721, Note_on_c, 1, 75, 90
4, 30723, Note_on_c, 1, 81, 0
4, 30957, Note_on_c, 1, 71, 0
4, 30958, Note_on_c, 1, 76, 90
4, 30959, Note_on_c, 1, 66, 0
4, 30960, Note_on_c, 1, 71, 90
4, 30960, Note_on_c, 1, 67, 90
4, 30962, Note_on_c, 1, 59, 0
4, 30962, Note_on_c, 1, 55, 90
4, 30964, Note_on_c, 1, 75, 0
4, 31076, Note_on_c, 1, 76, 0
4, 31078, Note_on_c, 1, 76, 90
4, 31079, Note_on_c, 1, 71, 0
4, 31079, Note_on_c, 1, 52, 90
4, 31080, Note_on_c, 1, 79, 90
4, 31081, Note_on_c, 1, 71, 90
4, 31083, Note_on_c, 1, 55, 0
4, 31083, Note_on_c, 1, 67, 0
4, 31197, Note_on_c, 1, 52, 0
4, 31197, Note_on_c, 1, 79, 0
4, 31198, Note_on_c, 1, 71, 0
4, 31198, Note_on_c, 1, 76, 0
4, 31318, Note_on_c, 1, 67, 90
4, 31319, Note_on_c, 1, 59, 90
4, 31321, Note_on_c, 1, 64, 90
4, 31378, Note_on_c, 1, 67, 0
4, 31380, Note_on_c, 1, 66, 90
4, 31382, Note_on_c, 1, 69, 90
4, 31383, Note_on_c, 1, 64, 0
4, 31438, Note_on_c, 1, 59, 0
4, 31439, Note_on_c, 1, 67, 90
4, 31439, Note_on_c, 1, 55, 90
4, 31442, Note_on_c, 1, 66, 0
4, 31442, Note_on_c, 1, 71, 90
4, 31445, Note_on_c, 1, 69, 0
4, 31556, Note_on_c, 1, 71, 0
4, 31558, Note_on_c, 1, 67, 0
4, 31558, Note_on_c, 1, 71, 90
4, 31559, Note_on_c, 1, 55, 0
4, 31561, Note_on_c, 1, 67, 90
4, 31561, Note_on_c, 1, 52, 90
4, 31679, Note_on_c, 1, 71, 0
4, 31680, Note_on_c, 1, 67, 0
4, 31682, Note_on_c, 1, 52, 0
4, 31798, Note_on_c, 1, 66, 90
4, 31799, Note_on_c, 1, 69, 90
4, 31802, Note_on_c, 1, 59, 90
4, 31858, Note_on_c, 1, 66, 0
4, 31858, Note_on_c, 1, 71, 90
4, 31859, Note_on_c, 1, 69, 0
4, 31861, Note_on_c, 1, 63, 90
4, 31916, Note_on_c, 1, 71, 0
4, 31918, Note_on_c, 1, 63, 0
4, 31919, Note_on_c, 1, 64, 90
4, 31921, Note_on_c, 1, 55, 90
4, 31924, Note_on_c, 1, 59, 0
4, 32036, Note_on_c, 1, 64, 0
4, 32038, Note_on_c, 1, 55, 0
4, 32039, Note_on_c, 1, 76, 90
4, 32039, Note_on_c, 1, 67, 90
4, 32041, Note_on_c, 1, 71, 90
4, 32042, Note_on_c, 1, 52, 90
4, 32157, Note_on_c, 1, 76, 0
4, 32158, Note_on_c, 1, 67, 0
4, 32159, Note_on_c, 1, 71, 0
4, 32163, Note_on_c, 1, 52, 0
4, 32278, Note_on_c, 1, 59, 90
4, 32278, Note_on_c, 1, 67, 90
4, 32282, Note_on_c, 1, 64, 90
4, 32338, Note_on_c, 1, 67, 0
4, 32339, Note_on_c, 1, 64, 0
4, 32339, Note_on_c, 1, 69, 90
4, 32341, Note_on_c, 1, 66, 90
4, 32398, Note_on_c, 1, 59, 0
4, 32399, Note_on_c, 1, 67, 90
4, 32399, Note_on_c, 1, 55, 90
4, 32400, Note_on_c, 1, 71, 90
4, 32401, Note_on_c, 1, 69, 0
4, 32403, Note_on_c, 1, 66, 0
4, 32517, Note_on_c, 1, 67, 0
4, 32518, Note_on_c, 1, 55, 0
4, 32518, Note_on_c, 1, 71, 0
4, 32518, Note_on_c, 1, 67, 90
4, 32520, Note_on_c, 1, 52, 90
4, 32522, Note_on_c, 1, 71, 90
4, 32637, Note_on_c, 1, 52, 0
4, 32639, Note_on_c, 1, 67, 0
4, 32640, Note_on_c, 1, 71, 0
4, 32759, Note_on_c, 1, 75, 90
4, 32759, Note_on_c, 1, 71, 90
4, 32760, Note_on_c, 1, 59, 90
4, 32760, Note_on_c, 1, 69, 90
4, 32877, Note_on_c, 1, 59, 0
4, 32877, Note_on_c, 1, 71, 0
4, 32878, Note_on_c, 1, 67, 90
4, 32879, Note_on_c, 1, 69, 0
4, 32879, Note_on_c, 1, 76, 90
4, 32880, Note_on_c, 1, 55, 90
4, 32881, Note_on_c, 1, 71, 90
4, 32882, Note_on_c, 1, 75, 0
4, 32996, Note_on_c, 1, 67, 0
4, 32996, Note_on_c, 1, 71, 0
4, 32997, Note_on_c, 1, 76, 0
4, 32998, Note_on_c, 1, 55, 0
4, 32998, Note_on_c, 1, 71, 90
4, 33000, Note_on_c, 1, 52, 90
4, 33002, Note_on_c, 1, 67, 90
4, 33002, Note_on_c, 1, 79, 90
4, 33116, Note_on_c, 1, 71, 0
4, 33119, Note_on_c, 1, 79, 0
4, 33120, Note_on_c, 1, 75, 90
4, 33121, Note_on_c, 1, 52, 0
4, 33121, Note_on_c, 1, 71, 90
4, 33121, Note_on_c, 1, 54, 90
4, 33122, Note_on_c, 1, 69, 90
4, 33125, Note_on_c, 1, 67, 0
4, 33237, Note_on_c, 1, 71, 0
4, 33238, Note_on_c, 1, 75, 0
4, 33238, Note_on_c, 1, 54, 0
4, 33238, Note_on_c, 1, 67, 90
4, 33239, Note_on_c, 1, 55, 90
4, 33239, Note_on_c, 1, 71, 90
4, 33242, Note_on_c, 1, 76, 90
4, 33245, Note_on_c, 1, 69, 0
4, 33298, Note_on_c, 1, 55, 0
4, 33302, Note_on_c, 1, 57, 90
4, 33357, Note_on_c, 1, 67, 0
4, 33357, Note_on_c, 1, 76, 0
4, 33357, Note_on_c, 1, 71, 0
4, 33359, Note_on_c, 1, 76, 90
4, 33360, Note_on_c, 1, 71, 90
4, 33362, Note_on_c, 1, 59, 90
4, 33362, Note_on_c, 1, 66, 90
4, 33363, Note_on_c, 1, 57, 0
4, 33477, Note_on_c, 1, 76, 0
4, 33479, Note_on_c, 1, 71, 0
4, 33479, Note_on_c, 1, 47, 90
4, 33480, Note_on_c, 1, 66, 0
4, 33482, Note_on_c, 1, 66, 90
4, 33482, Note_on_c, 1, 71, 90
4, 33482, Note_on_c, 1, 75, 90
4, 33485, Note_on_c, 1, 59, 0
4, 33597, Note_on_c, 1, 71, 0
4, 33598, Note_on_c, 1, 76, 90
4, 33599, Note_on_c, 1, 47, 0
4, 33599, Note_on_c, 1, 71, 90
4, 33599, Note_on_c, 1, 67, 90
4, 33602, Note_on_c, 1, 75, 0
4, 33602, Note_on_c, 1, 40, 90
4, 33603, Note_on_c, 1, 66, 0
4, 33719, Note_on_c, 1, 40, 0
4, 33719, Note_on_c, 1, 52, 90
4, 33838, Note_on_c, 1, 71, 0
4, 33838, Note_on_c, 1, 55, 90
4, 33839, Note_on_c, 1, 76, 0
4, 33840, Note_on_c, 1, 52, 0
4, 33842, Note_on_c, 1, 67, 0
4, 33956, Note_on_c, 1, 55, 0
4, 33960, Note_on_c, 1, 64, 90
4, 33960, Note_on_c, 1, 71, 90
4, 33962, Note_on_c, 1, 67, 90
4, 33962, Note_on_c, 1, 52, 90
4, 34077, Note_on_c, 1, 67, 0
4, 34077, Note_on_c, 1, 64, 0
4, 34078, Note_on_c, 1, 71, 0
4, 34079, Note_on_c, 1, 67, 90
4, 34079, Note_on_c, 1, 59, 90
4, 34080, Note_on_c, 1, 76, 90
4, 34081, Note_on_c, 1, 64, 90
4, 34083, Note_on_c, 1, 52, 0
4, 34197, Note_on_c, 1, 59, 0
4, 34198, Note_on_c, 1, 76, 0
4, 34199, Note_on_c, 1, 67, 0
4, 34199, Note_on_c, 1, 59, 90
4, 34199, Note_on_c, 1, 55, 90
4, 34200, Note_on_c, 1, 64, 90
4, 34200, Note_on_c, 1, 52, 90
4, 34201, Note_on_c, 1, 64, 0
4, 34202, Note_on_c, 1, 76, 90
4, 34316, Note_on_c, 1, 55, 0
4, 34316, Note_on_c, 1, 59, 0
4, 34318, Note_on_c, 1, 55, 90
4, 34321, Note_on_c, 1, 76, 0
4, 34321, Note_on_c, 1, 64, 0
4, 34322, Note_on_c, 1, 52, 0
4, 34322, Note_on_c, 1, 76, 90
4, 34437, Note_on_c, 1, 76, 0
4, 34438, Note_on_c, 1, 55, 0
4, 34439, Note_on_c, 1, 52, 90
4, 34439, Note_on_c, 1, 67, 90
4, 34439, Note_on_c, 1, 76, 90
4, 34439, Note_on_c, 1, 71, 90
4, 34557, Note_on_c, 1, 76, 0
4, 34557, Note_on_c, 1, 67, 0
4, 34558, Note_on_c, 1, 71, 0
4, 34558, Note_on_c, 1, 67, 90
4, 34560, Note_on_c, 1, 52, 0
4, 34560, Note_on_c, 1, 76, 90
4, 34679, Note_on_c, 1, 76, 0
4, 34680, Note_on_c, 1, 67, 0
4, 34680, Note_on_c, 1, 79, 90
4, 34681, Note_on_c, 1, 64, 90
4, 34681, Note_on_c, 1, 52, 90
4, 34682, Note_on_c, 1, 59, 90
4, 34739, Note_on_c, 1, 78, 90
4, 34742, Note_on_c, 1, 79, 0
4, 34797, Note_on_c, 1, 78, 0
4, 34798, Note_on_c, 1, 64, 0
4, 34798, Note_on_c, 1, 55, 90
4, 34800, Note_on_c, 1, 52, 0
4, 34801, Note_on_c, 1, 76, 90
4, 34804, Note_on_c, 1, 59, 0
4, 34920, Note_on_c, 1, 55, 0
4, 34920, Note_on_c, 1, 52, 90
4, 34921, Note_on_c, 1, 79, 90
4, 34922, Note_on_c, 1, 71, 90
4, 34923, Note_on_c, 1, 76, 0
4, 34979, Note_on_c, 1, 79, 0
4, 34980, Note_on_c, 1, 78, 90
4, 35037, Note_on_c, 1, 78, 0
4, 35038, Note_on_c, 1, 52, 0
4, 35038, Note_on_c, 1, 76, 90
4, 35041, Note_on_c, 1, 67, 90
4, 35042, Note_on_c, 1, 71, 0
4, 35159, Note_on_c, 1, 79, 90
4, 35159, Note_on_c, 1, 52, 90
4, 35160, Note_on_c, 1, 67, 0
4, 35160, Note_on_c, 1, 76, 0
4, 35160, Note_on_c, 1, 64, 90
4, 35161, Note_on_c, 1, 59, 90
4, 35217, Note_on_c, 1, 79, 0
4, 35220, Note_on_c, 1, 78, 90
4, 35277, Note_on_c, 1, 52, 0
4, 35278, Note_on_c, 1, 64, 0
4, 35278, Note_on_c, 1, 55, 90
4, 35279, Note_on_c, 1, 78, 0
4, 35281, Note_on_c, 1, 59, 0
4, 35281, Note_on_c, 1, 76, 90
4, 35398, Note_on_c, 1, 67, 90
4, 35399, Note_on_c, 1, 76, 0
4, 35399, Note_on_c, 1, 55, 0
4, 35399, Note_on_c, 1, 52, 90
4, 35401, Note_on_c, 1, 74, 90
4, 35401, Note_on_c, 1, 59, 90
4, 35460, Note_on_c, 1, 72, 90
4, 35462, Note_on_c, 1, 74, 0
4, 35516, Note_on_c, 1, 67, 0
4, 35516, Note_on_c, 1, 52, 0
4, 35518, Note_on_c, 1, 71, 90
4, 35519, Note_on_c, 1, 72, 0
4, 35520, Note_on_c, 1, 67, 90
4, 35522, Note_on_c, 1, 59, 0
4, 35638, Note_on_c, 1, 59, 90
4, 35639, Note_on_c, 1, 67, 0
4, 35641, Note_on_c, 1, 71, 0
4, 35641, Note_on_c, 1, 69, 90
4, 35641, Note_on_c, 1, 52, 90
4, 35700, Note_on_c, 1, 69, 0
4, 35700, Note_on_c, 1, 67, 90
4, 35756, Note_on_c, 1, 59, 0
4, 35758, Note_on_c, 1, 67, 0
4, 35760, Note_on_c, 1, 52, 0
4, 35761, Note_on_c, 1, 59, 90
4, 35761, Note_on_c, 1, 66, 90
4, 35762, Note_on_c, 1, 51, 90
4, 35879, Note_on_c, 1, 66, 0
4, 35879, Note_on_c, 1, 59, 0
4, 35880, Note_on_c, 1, 51, 0
4, 35880, Note_on_c, 1, 47, 90
4, 35880, Note_on_c, 1, 71, 90
4, 35881, Note_on_c, 1, 66, 90
4, 35881, Note_on_c, 1, 63, 90
4, 35998, Note_on_c, 1, 47, 0
4, 35998, Note_on_c, 1, 59, 90
4, 35999, Note_on_c, 1, 67, 90
4, 36001, Note_on_c, 1, 71, 0
4, 36001, Note_on_c, 1, 40, 90
4, 36002, Note_on_c, 1, 63, 0
4, 36002, Note_on_c, 1, 64, 90
4, 36003, Note_on_c, 1, 66, 0
4, 36116, Note_on_c, 1, 59, 0
4, 36118, Note_on_c, 1, 40, 0
4, 36120, Note_on_c, 1, 67, 0
4, 36120, Note_on_c, 1, 59, 90
4, 36121, Note_on_c, 1, 64, 0
4, 36121, Note_on_c, 1, 52, 90
4, 36122, Note_on_c, 1, 55, 90
4, 36122, Note_on_c, 1, 64, 90
4, 36236, Note_on_c, 1, 55, 0
4, 36238, Note_on_c, 1, 59, 0
4, 36238, Note_on_c, 1, 55, 90
4, 36240, Note_on_c, 1, 64, 0
4, 36241, Note_on_c, 1, 64, 90
4, 36241, Note_on_c, 1, 59, 90
4, 36243, Note_on_c, 1, 52, 0
4, 36360, Note_on_c, 1, 64, 0
4, 36360, Note_on_c, 1, 71, 90
4, 36360, Note_on_c, 1, 52, 90
4, 36361, Note_on_c, 1, 55, 0
4, 36361, Note_on_c, 1, 59, 0
4, 36362, Note_on_c, 1, 64, 90
4, 36477, Note_on_c, 1, 52, 0
4, 36480, Note_on_c, 1, 68, 90
4, 36480, Note_on_c, 1, 76, 90
4, 36481, Note_on_c, 1, 71, 0
4, 36482, Note_on_c, 1, 64, 0
4, 36598, Note_on_c, 1, 76, 0
4, 36599, Note_on_c, 1, 56, 90
4, 36600, Note_on_c, 1, 68, 0
4, 36602, Note_on_c, 1, 76, 90
4, 36602, Note_on_c, 1, 71, 90
4, 36717, Note_on_c, 1, 71, 0
4, 36719, Note_on_c, 1, 76, 0
4, 36719, Note_on_c, 1, 64, 90
4, 36719, Note_on_c, 1, 71, 90
4, 36720, Note_on_c, 1, 44, 90
4, 36721, Note_on_c, 1, 56, 0
4, 36721, Note_on_c, 1, 76, 90
4, 36836, Note_on_c, 1, 71, 0
4, 36838, Note_on_c, 1, 76, 0
4, 36839, Note_on_c, 1, 64, 0
4, 36840, Note_on_c, 1, 71, 90
4, 36841, Note_on_c, 1, 68, 90
4, 36842, Note_on_c, 1, 44, 0
4, 36842, Note_on_c, 1, 40, 90
4, 36842, Note_on_c, 1, 76, 90
4, 36959, Note_on_c, 1, 69, 90
4, 36960, Note_on_c, 1, 76, 0
4, 36960, Note_on_c, 1, 60, 90
4, 36962, Note_on_c, 1, 71, 0
4, 36962, Note_on_c, 1, 76, 90
4, 36963, Note_on_c, 1, 68, 0
4, 36964, Note_on_c, 1, 40, 0
4, 37019, Note_on_c, 1, 69, 0
4, 37019, Note_on_c, 1, 74, 90
4, 37021, Note_on_c, 1, 76, 0
4, 37076, Note_on_c, 1, 74, 0
4, 37078, Note_on_c, 1, 57, 90
4, 37079, Note_on_c, 1, 60, 0
4, 37079, Note_on_c, 1, 64, 90
4, 37080, Note_on_c, 1, 72, 90
4, 37139, Note_on_c, 1, 72, 0
4, 37141, Note_on_c, 1, 71, 90
4, 37196, Note_on_c, 1, 64, 0
4, 37198, Note_on_c, 1, 45, 90
4, 37199, Note_on_c, 1, 71, 0
4, 37199, Note_on_c, 1, 57, 0
4, 37199, Note_on_c, 1, 69, 90
4, 37200, Note_on_c, 1, 64, 90
4, 37201, Note_on_c, 1, 72, 90
4, 37317, Note_on_c, 1, 69, 0
4, 37318, Note_on_c, 1, 64, 0
4, 37320, Note_on_c, 1, 64, 90
4, 37321, Note_on_c, 1, 45, 0
4, 37321, Note_on_c, 1, 57, 90
4, 37322, Note_on_c, 1, 72, 0
4, 37322, Note_on_c, 1, 69, 90
4, 37322, Note_on_c, 1, 60, 90
4, 37438, Note_on_c, 1, 57, 0
4, 37440, Note_on_c, 1, 64, 0
4, 37440, Note_on_c, 1, 60, 0
4, 37441, Note_on_c, 1, 66, 90
4, 37442, Note_on_c, 1, 74, 90
4, 37444, Note_on_c, 1, 69, 0
4, 37560, Note_on_c, 1, 74, 0
4, 37561, Note_on_c, 1, 74, 90
4, 37562, Note_on_c, 1, 54, 90
4, 37562, Note_on_c, 1, 69, 90
4, 37563, Note_on_c, 1, 66, 0
4, 37678, Note_on_c, 1, 69, 0
4, 37679, Note_on_c, 1, 74, 0
4, 37680, Note_on_c, 1, 54, 0
4, 37680, Note_on_c, 1, 69, 90
4, 37681, Note_on_c, 1, 74, 90
4, 37681, Note_on_c, 1, 62, 90
4, 37682, Note_on_c, 1, 42, 90
4, 37796, Note_on_c, 1, 69, 0
4, 37797, Note_on_c, 1, 74, 0
4, 37798, Note_on_c, 1, 69, 90
4, 37799, Note_on_c, 1, 74, 90
4, 37800, Note_on_c, 1, 62, 0
4, 37800, Note_on_c, 1, 66, 90
4, 37801, Note_on_c, 1, 38, 90
4, 37802, Note_on_c, 1, 42, 0
4, 37917, Note_on_c, 1, 74, 0
4, 37917, Note_on_c, 1, 69, 0
4, 37918, Note_on_c, 1, 59, 90
4, 37919, Note_on_c, 1, 38, 0
4, 37921, Note_on_c, 1, 67, 90
4, 37922, Note_on_c, 1, 74, 90
4, 37923, Note_on_c, 1, 66, 0
4, 37980, Note_on_c, 1, 72, 90
4, 37982, Note_on_c, 1, 67, 0
4, 37983, Note_on_c, 1, 74, 0
4, 38036, Note_on_c, 1, 59, 0
4, 38040, Note_on_c, 1, 71, 90
4, 38042, Note_on_c, 1, 55, 90
4, 38042, Note_on_c, 1, 62, 90
4, 38043, Note_on_c, 1, 72, 0
4, 38100, Note_on_c, 1, 71, 0
4, 38102, Note_on_c, 1, 69, 90
4, 38158, Note_on_c, 1, 62, 0
4, 38158, Note_on_c, 1, 67, 90
4, 38159, Note_on_c, 1, 55, 0
4, 38159, Note_on_c, 1, 71, 90
4, 38160, Note_on_c, 1, 43, 90
4, 38160, Note_on_c, 1, 62, 90
4, 38163, Note_on_c, 1, 69, 0
4, 38275, Note_on_c, 1, 67, 0
4, 38278, Note_on_c, 1, 43, 0
4, 38278, Note_on_c, 1, 62, 0
4, 38280, Note_on_c, 1, 55, 90
4, 38281, Note_on_c, 1, 71, 0
4, 38282, Note_on_c, 1, 62, 90
4, 38282, Note_on_c, 1, 59, 90
4, 38282, Note_on_c, 1, 67, 90
4, 38398, Note_on_c, 1, 72, 90
4, 38400, Note_on_c, 1, 67, 0
4, 38400, Note_on_c, 1, 64, 90
4, 38402, Note_on_c, 1, 55, 0
4, 38404, Note_on_c, 1, 62, 0
4, 38405, Note_on_c, 1, 59, 0
4, 38516, Note_on_c, 1, 72, 0
4, 38518, Note_on_c, 1, 67, 90
4, 38519, Note_on_c, 1, 72, 90
4, 38520, Note_on_c, 1, 64, 0
4, 38520, Note_on_c, 1, 52, 90
4, 38636, Note_on_c, 1, 67, 0
4, 38637, Note_on_c, 1, 72, 0
4, 38640, Note_on_c, 1, 67, 90
4, 38640, Note_on_c, 1, 72, 90
4, 38641, Note_on_c, 1, 52, 0
4, 38641, Note_on_c, 1, 60, 90
4, 38641, Note_on_c, 1, 40, 90
4, 38756, Note_on_c, 1, 72, 0
4, 38758, Note_on_c, 1, 67, 0
4, 38758, Note_on_c, 1, 36, 90
4, 38758, Note_on_c, 1, 72, 90
4, 38759, Note_on_c, 1, 60, 0
4, 38759, Note_on_c, 1, 64, 90
4, 38761, Note_on_c, 1, 67, 90
4, 38763, Note_on_c, 1, 40, 0
4, 38876, Note_on_c, 1, 72, 0
4, 38879, Note_on_c, 1, 72, 90
4, 38880, Note_on_c, 1, 64, 0
4, 38880, Note_on_c, 1, 67, 0
4, 38880, Note_on_c, 1, 36, 0
4, 38881, Note_on_c, 1, 57, 90
4, 38882, Note_on_c, 1, 66, 90
4, 38941, Note_on_c, 1, 72, 0
4, 38942, Note_on_c, 1, 71, 90
4, 38945, Note_on_c, 1, 66, 0
4, 38998, Note_on_c, 1, 57, 0
4, 38999, Note_on_c, 1, 60, 90
4, 39000, Note_on_c, 1, 54, 90
4, 39001, Note_on_c, 1, 71, 0
4, 39002, Note_on_c, 1, 69, 90
4, 39061, Note_on_c, 1, 67, 90
4, 39063, Note_on_c, 1, 69, 0
4, 39117, Note_on_c, 1, 60, 0
4, 39118, Note_on_c, 1, 69, 90
4, 39119, Note_on_c, 1, 60, 90
4, 39120, Note_on_c, 1, 54, 0
4, 39121, Note_on_c, 1, 66, 90
4, 39121, Note_on_c, 1, 42, 90
4, 39123, Note_on_c, 1, 67, 0
4, 39237, Note_on_c, 1, 60, 0
4, 39238, Note_on_c, 1, 57, 90
4, 39239, Note_on_c, 1, 69, 0
4, 39240, Note_on_c, 1, 42, 0
4, 39240, Note_on_c, 1, 66, 0
4, 39240, Note_on_c, 1, 54, 90
4, 39241, Note_on_c, 1, 66, 90
4, 39242, Note_on_c, 1, 60, 90
4, 39355, Note_on_c, 1, 57, 0
4, 39358, Note_on_c, 1, 71, 90
4, 39359, Note_on_c, 1, 60, 0
4, 39362, Note_on_c, 1, 63, 90
4, 39363, Note_on_c, 1, 54, 0
4, 39363, Note_on_c, 1, 66, 0
4, 39475, Note_on_c, 1, 71, 0
4, 39476, Note_on_c, 1, 63, 0
4, 39478, Note_on_c, 1, 71, 90
4, 39478, Note_on_c, 1, 63, 90
4, 39481, Note_on_c, 1, 66, 90
4, 39595, Note_on_c, 1, 71, 0
4, 39598, Note_on_c, 1, 63, 0
4, 39598, Note_on_c, 1, 51, 90
4, 39600, Note_on_c, 1, 66, 0
4, 39601, Note_on_c, 1, 59, 90
4, 39601, Note_on_c, 1, 66, 90
4, 39602, Note_on_c, 1, 71, 90
4, 39716, Note_on_c, 1, 51, 0
4, 39717, Note_on_c, 1, 66, 0
4, 39719, Note_on_c, 1, 59, 0
4, 39719, Note_on_c, 1, 66, 90
4, 39720, Note_on_c, 1, 71, 0
4, 39722, Note_on_c, 1, 63, 90
4, 39722, Note_on_c, 1, 71, 90
4, 39722, Note_on_c, 1, 47, 90
4, 39838, Note_on_c, 1, 71, 0
4, 39840, Note_on_c, 1, 71, 90
4, 39842, Note_on_c, 1, 47, 0
4, 39842, Note_on_c, 1, 66, 0
4, 39842, Note_on_c, 1, 64, 90
4, 39842, Note_on_c, 1, 55, 90
4, 39845, Note_on_c, 1, 63, 0
4, 39899, Note_on_c, 1, 71, 0
4, 39900, Note_on_c, 1, 64, 0
4, 39902, Note_on_c, 1, 69, 90
4, 39959, Note_on_c, 1, 59, 90
4, 39961, Note_on_c, 1, 52, 90
4, 39961, Note_on_c, 1, 67, 90
4, 39964, Note_on_c, 1, 69, 0
4, 39965, Note_on_c, 1, 55, 0
4, 40020, Note_on_c, 1, 67, 0
4, 40020, Note_on_c, 1, 66, 90
4, 40077, Note_on_c, 1, 59, 0
4, 40078, Note_on_c, 1, 59, 90
4, 40078, Note_on_c, 1, 64, 90
4, 40078, Note_on_c, 1, 40, 90
4, 40081, Note_on_c, 1, 66, 0
4, 40082, Note_on_c, 1, 52, 0
4, 40082, Note_on_c, 1, 67, 90
4, 40195, Note_on_c, 1, 40, 0
4, 40196, Note_on_c, 1, 64, 0
4, 40196, Note_on_c, 1, 59, 0
4, 40198, Note_on_c, 1, 59, 90
4, 40199, Note_on_c, 1, 52, 90
4, 40199, Note_on_c, 1, 55, 90
4, 40202, Note_on_c, 1, 64, 90
4, 40205, Note_on_c, 1, 67, 0
4, 40316, Note_on_c, 1, 52, 0
4, 40318, Note_on_c, 1, 75, 90
4, 40318, Note_on_c, 1, 54, 90
4, 40318, Note_on_c, 1, 66, 90
4, 40319, Note_on_c, 1, 55, 0
4, 40319, Note_on_c, 1, 69, 90
4, 40320, Note_on_c, 1, 59, 0
4, 40322, Note_on_c, 1, 64, 0
4, 40322, Note_on_c, 1, 81, 90
4, 40438, Note_on_c, 1, 75, 0
4, 40439, Note_on_c, 1, 54, 0
4, 40440, Note_on_c, 1, 78, 90
4, 40441, Note_on_c, 1, 66, 0
4, 40442, Note_on_c, 1, 81, 0
4, 40442, Note_on_c, 1, 69, 0
4, 40498, Note_on_c, 1, 78, 0
4, 40501, Note_on_c, 1, 79, 90
4, 40558, Note_on_c, 1, 79, 0
4, 40559, Note_on_c, 1, 52, 90
4, 40561, Note_on_c, 1, 71, 90
4, 40562, Note_on_c, 1, 67, 90
4, 40562, Note_on_c, 1, 81, 90
4, 40676, Note_on_c, 1, 81, 0
4, 40676, Note_on_c, 1, 52, 0
4, 40678, Note_on_c, 1, 81, 90
4, 40681, Note_on_c, 1, 71, 0
4, 40683, Note_on_c, 1, 67, 0
4, 40797, Note_on_c, 1, 81, 0
4, 40798, Note_on_c, 1, 81, 90
4, 40799, Note_on_c, 1, 78, 90
4, 40799, Note_on_c, 1, 69, 90
4, 40802, Note_on_c, 1, 51, 90
4, 40802, Note_on_c, 1, 66, 90
4, 40915, Note_on_c, 1, 81, 0
4, 40917, Note_on_c, 1, 78, 0
4, 40919, Note_on_c, 1, 51, 0
4, 40919, Note_on_c, 1, 66, 0
4, 40920, Note_on_c, 1, 78, 90
4, 40921, Note_on_c, 1, 69, 0
4, 40979, Note_on_c, 1, 79, 90
4, 40981, Note_on_c, 1, 78, 0
4, 41038, Note_on_c, 1, 49, 90
4, 41039, Note_on_c, 1, 78, 90
4, 41039, Note_on_c, 1, 69, 90
4, 41040, Note_on_c, 1, 81, 90
4, 41040, Note_on_c, 1, 64, 90
4, 41042, Note_on_c, 1, 79, 0
4, 41156, Note_on_c, 1, 69, 0
4, 41158, Note_on_c, 1, 81, 0
4, 41159, Note_on_c, 1, 49, 0
4, 41161, Note_on_c, 1, 64, 0
4, 41161, Note_on_c, 1, 78, 0
4, 41162, Note_on_c, 1, 81, 90
4, 41277, Note_on_c, 1, 81, 0
4, 41278, Note_on_c, 1, 75, 90
4, 41279, Note_on_c, 1, 81, 90
4, 41281, Note_on_c, 1, 63, 90
4, 41281, Note_on_c, 1, 47, 90
4, 41282, Note_on_c, 1, 78, 90
4, 41398, Note_on_c, 1, 59, 90
4, 41399, Note_on_c, 1, 78, 0
4, 41401, Note_on_c, 1, 75, 0
4, 41401, Note_on_c, 1, 78, 90
4, 41402, Note_on_c, 1, 47, 0
4, 41402, Note_on_c, 1, 81, 0
4, 41404, Note_on_c, 1, 63, 0
4, 41461, Note_on_c, 1, 79, 90
4, 41464, Note_on_c, 1, 78, 0
4, 41518, Note_on_c, 1, 69, 90
4, 41519, Note_on_c, 1, 79, 0
4, 41519, Note_on_c, 1, 59, 0
4, 41520, Note_on_c, 1, 78, 90
4, 41521, Note_on_c, 1, 81, 90
4, 41522, Note_on_c, 1, 51, 90
4, 41636, Note_on_c, 1, 69, 0
4, 41638, Note_on_c, 1, 69, 90
4, 41639, Note_on_c, 1, 47, 90
4, 41640, Note_on_c, 1, 51, 0
4, 41641, Note_on_c, 1, 78, 0
4, 41642, Note_on_c, 1, 75, 90
4, 41642, Note_on_c, 1, 83, 90
4, 41644, Note_on_c, 1, 81, 0
4, 41759, Note_on_c, 1, 69, 0
4, 41760, Note_on_c, 1, 79, 90
4, 41761, Note_on_c, 1, 52, 90
4, 41762, Note_on_c, 1, 47, 0
4, 41762, Note_on_c, 1, 76, 90
4, 41762, Note_on_c, 1, 67, 90
4, 41762, Note_on_c, 1, 40, 90
4, 41763, Note_on_c, 1, 83, 0
4, 41764, Note_on_c, 1, 75, 0
4, 41879, Note_on_c, 1, 40, 0
4, 41880, Note_on_c, 1, 54, 90
4, 41882, Note_on_c, 1, 52, 0
4, 41882, Note_on_c, 1, 42, 90
4, 41998, Note_on_c, 1, 43, 90
4, 42000, Note_on_c, 1, 71, 90
4, 42000, Note_on_c, 1, 55, 90
4, 42002, Note_on_c, 1, 54, 0
4, 42003, Note_on_c, 1, 67, 0
4, 42004, Note_on_c, 1, 42, 0
4, 42005, Note_on_c, 1, 76, 0
4, 42117, Note_on_c, 1, 43, 0
4, 42118, Note_on_c, 1, 57, 90
4, 42119, Note_on_c, 1, 45, 90
4, 42120, Note_on_c, 1, 79, 0
4, 42121, Note_on_c, 1, 78, 90
4, 42121, Note_on_c, 1, 72, 90
4, 42122, Note_on_c, 1, 55, 0
4, 42123, Note_on_c, 1, 71, 0
4, 42178, Note_on_c, 1, 78, 0
4, 42178, Note_on_c, 1, 76, 90
4, 42237, Note_on_c, 1, 57, 0
4, 42238, Note_on_c, 1, 71, 90
4, 42239, Note_on_c, 1, 72, 0
4, 42239, Note_on_c, 1, 51, 90
4, 42240, Note_on_c, 1, 76, 0
4, 42241, Note_on_c, 1, 57, 90
4, 42241, Note_on_c, 1, 78, 90
4, 42241, Note_on_c, 1, 83, 90
4, 42242, Note_on_c, 1, 45, 0
4, 42356, Note_on_c, 1, 71, 0
4, 42357, Note_on_c, 1, 51, 0
4, 42358, Note_on_c, 1, 71, 90
4, 42359, Note_on_c, 1, 83, 0
4, 42359, Note_on_c, 1, 78, 0
4, 42359, Note_on_c, 1, 81, 90
4, 42361, Note_on_c, 1, 57, 0
4, 42361, Note_on_c, 1, 52, 90
4, 42361, Note_on_c, 1, 55, 90
4, 42422, Note_on_c, 1, 81, 0
4, 42422, Note_on_c, 1, 79, 90
4, 42476, Note_on_c, 1, 71, 0
4, 42478, Note_on_c, 1, 47, 90
4, 42478, Note_on_c, 1, 78, 90
4, 42479, Note_on_c, 1, 59, 90
4, 42480, Note_on_c, 1, 55, 0
4, 42480, Note_on_c, 1, 52, 0
4, 42481, Note_on_c, 1, 75, 90
4, 42482, Note_on_c, 1, 79, 0
4, 42482, Note_on_c, 1, 71, 90
4, 42539, Note_on_c, 1, 78, 0
4, 42540, Note_on_c, 1, 76, 90
4, 42596, Note_on_c, 1, 71, 0
4, 42597, Note_on_c, 1, 75, 0
4, 42597, Note_on_c, 1, 47, 0
4, 42598, Note_on_c, 1, 71, 90
4, 42598, Note_on_c, 1, 47, 90
4, 42599, Note_on_c, 1, 75, 90
4, 42600, Note_on_c, 1, 76, 0
4, 42601, Note_on_c, 1, 59, 0
4, 42658, Note_on_c, 1, 78, 90
4, 42662, Note_on_c, 1, 75, 0
4, 42716, Note_on_c, 1, 71, 0
4, 42717, Note_on_c, 1, 47, 0
4, 42718, Note_on_c, 1, 78, 0
4, 42719, Note_on_c, 1, 67, 90
4, 42720, Note_on_c, 1, 40, 90
4, 42720, Note_on_c, 1, 76, 90
4, 42722, Note_on_c, 1, 52, 90
4, 42722, Note_on_c, 1, 71, 90
4, 42836, Note_on_c, 1, 52, 0
4, 42838, Note_on_c, 1, 40, 0
4, 42838, Note_on_c, 1, 52, 90
4, 42841, Note_on_c, 1, 76, 0
4, 42842, Note_on_c, 1, 64, 90
4, 42955, Note_on_c, 1, 52, 0
4, 42958, Note_on_c, 1, 55, 90
4, 42959, Note_on_c, 1, 67, 0
4, 42959, Note_on_c, 1, 64, 0
4, 42963, Note_on_c, 1, 71, 0
4, 43075, Note_on_c, 1, 55, 0
4, 43081, Note_on_c, 1, 52, 90
4, 43200, Note_on_c, 1, 66, 90
4, 43201, Note_on_c, 1, 52, 0
4, 43201, Note_on_c, 1, 51, 90
4, 43318, Note_on_c, 1, 66, 0
4, 43318, Note_on_c, 1, 52, 90
4, 43320, Note_on_c, 1, 64, 90
4, 43322, Note_on_c, 1, 51, 0
4, 43436, Note_on_c, 1, 52, 0
4, 43438, Note_on_c, 1, 63, 90
4, 43441, Note_on_c, 1, 59, 90
4, 43442, Note_on_c, 1, 64, 0
4, 43558, Note_on_c, 1, 47, 90
4, 43559, Note_on_c, 1, 71, 90
4, 43560, Note_on_c, 1, 63, 0
4, 43562, Note_on_c, 1, 59, 0
4, 43675, Note_on_c, 1, 47, 0
4, 43680, Note_on_c, 1, 40, 90
4, 43681, Note_on_c, 1, 67, 90
4, 43682, Note_on_c, 1, 71, 0
4, 43800, Note_on_c, 1, 40, 0
4, 43801, Note_on_c, 1, 52, 90
4, 43919, Note_on_c, 1, 67, 0
4, 43920, Note_on_c, 1, 55, 90
4, 43922, Note_on_c, 1, 52, 0
4, 44040, Note_on_c, 1, 52, 90
4, 44041, Note_on_c, 1, 55, 0
4, 44157, Note_on_c, 1, 52, 0
4, 44282, Note_on_c, 1, 59, 90
4, 44282, Note_on_c, 1, 68, 90
4, 44340, Note_on_c, 1, 69, 90
4, 44341, Note_on_c, 1, 68, 0
4, 44398, Note_on_c, 1, 71, 90
4, 44399, Note_on_c, 1, 56, 90
4, 44402, Note_on_c, 1, 59, 0
4, 44403, Note_on_c, 1, 69, 0
4, 44515, Note_on_c, 1, 71, 0
4, 44519, Note_on_c, 1, 56, 0
4, 44520, Note_on_c, 1, 52, 90
4, 44521, Note_on_c, 1, 68, 90
4, 44638, Note_on_c, 1, 68, 0
4, 44640, Note_on_c, 1, 52, 0
4, 44759, Note_on_c, 1, 71, 90
4, 44762, Note_on_c, 1, 52, 90
4, 44818, Note_on_c, 1, 71, 0
4, 44820, Note_on_c, 1, 69, 90
4, 44878, Note_on_c, 1, 68, 90
4, 44881, Note_on_c, 1, 59, 90
4, 44882, Note_on_c, 1, 69, 0
4, 44884, Note_on_c, 1, 52, 0
4, 44998, Note_on_c, 1, 52, 90
4, 45000, Note_on_c, 1, 68, 0
4, 45001, Note_on_c, 1, 59, 0
4, 45001, Note_on_c, 1, 71, 90
4, 45116, Note_on_c, 1, 52, 0
4, 45118, Note_on_c, 1, 71, 0
4, 45242, Note_on_c, 1, 71, 90
4, 45242, Note_on_c, 1, 52, 90
4, 45300, Note_on_c, 1, 69, 90
4, 45305, Note_on_c, 1, 71, 0
4, 45358, Note_on_c, 1, 59, 90
4, 45358, Note_on_c, 1, 68, 90
4, 45361, Note_on_c, 1, 69, 0
4, 45361, Note_on_c, 1, 52, 0
4, 45479, Note_on_c, 1, 76, 90
4, 45480, Note_on_c, 1, 68, 0
4, 45480, Note_on_c, 1, 52, 90
4, 45480, Note_on_c, 1, 80, 90
4, 45481, Note_on_c, 1, 59, 0
4, 45542, Note_on_c, 1, 76, 0
4, 45542, Note_on_c, 1, 74, 90
4, 45598, Note_on_c, 1, 72, 90
4, 45600, Note_on_c, 1, 52, 0
4, 45602, Note_on_c, 1, 80, 0
4, 45602, Note_on_c, 1, 74, 0
4, 45602, Note_on_c, 1, 33, 90
4, 45602, Note_on_c, 1, 81, 90
4, 45602, Note_on_c, 1, 45, 90
4, 45720, Note_on_c, 1, 57, 90
4, 45721, Note_on_c, 1, 45, 0
4, 45724, Note_on_c, 1, 33, 0
4, 45838, Note_on_c, 1, 57, 0
4, 45840, Note_on_c, 1, 72, 0
4, 45842, Note_on_c, 1, 60, 90
4, 45844, Note_on_c, 1, 81, 0
4, 45961, Note_on_c, 1, 60, 0
4, 45961, Note_on_c, 1, 57, 90
4, 46078, Note_on_c, 1, 57, 0
4, 46201, Note_on_c, 1, 57, 90
4, 46201, Note_on_c, 1, 66, 90
4, 46258, Note_on_c, 1, 67, 90
4, 46263, Note_on_c, 1, 66, 0
4, 46318, Note_on_c, 1, 67, 0
4, 46321, Note_on_c, 1, 69, 90
4, 46322, Note_on_c, 1, 54, 90
4, 46323, Note_on_c, 1, 57, 0
4, 46439, Note_on_c, 1, 54, 0
4, 46439, Note_on_c, 1, 69, 0
4, 46439, Note_on_c, 1, 50, 90
4, 46440, Note_on_c, 1, 66, 90
4, 46558, Note_on_c, 1, 66, 0
4, 46560, Note_on_c, 1, 50, 0
4, 46679, Note_on_c, 1, 69, 90
4, 46681, Note_on_c, 1, 50, 90
4, 46739, Note_on_c, 1, 67, 90
4, 46741, Note_on_c, 1, 69, 0
4, 46797, Note_on_c, 1, 67, 0
4, 46800, Note_on_c, 1, 50, 0
4, 46801, Note_on_c, 1, 57, 90
4, 46802, Note_on_c, 1, 66, 90
4, 46919, Note_on_c, 1, 69, 90
4, 46921, Note_on_c, 1, 50, 90
4, 46922, Note_on_c, 1, 66, 0
4, 46923, Note_on_c, 1, 57, 0
4, 47039, Note_on_c, 1, 69, 0
4, 47040, Note_on_c, 1, 50, 0
4, 47158, Note_on_c, 1, 50, 90
4, 47160, Note_on_c, 1, 71, 90
4, 47219, Note_on_c, 1, 69, 90
4, 47221, Note_on_c, 1, 71, 0
4, 47278, Note_on_c, 1, 69, 0
4, 47278, Note_on_c, 1, 57, 90
4, 47279, Note_on_c, 1, 66, 90
4, 47281, Note_on_c, 1, 50, 0
4, 47397, Note_on_c, 1, 66, 0
4, 47400, Note_on_c, 1, 50, 90
4, 47400, Note_on_c, 1, 80, 90
4, 47400, Note_on_c, 1, 76, 90
4, 47401, Note_on_c, 1, 57, 0
4, 47461, Note_on_c, 1, 76, 0
4, 47461, Note_on_c, 1, 74, 90
4, 47519, Note_on_c, 1, 50, 0
4, 47519, Note_on_c, 1, 81, 90
4, 47520, Note_on_c, 1, 43, 90
4, 47520, Note_on_c, 1, 72, 90
4, 47521, Note_on_c, 1, 80, 0
4, 47521, Note_on_c, 1, 33, 90
4, 47523, Note_on_c, 1, 74, 0
4, 47638, Note_on_c, 1, 33, 0
4, 47639, Note_on_c, 1, 43, 0
4, 47641, Note_on_c, 1, 55, 90
4, 47760, Note_on_c, 1, 59, 90
4, 47761, Note_on_c, 1, 81, 0
4, 47762, Note_on_c, 1, 72, 0
4, 47762, Note_on_c, 1, 55, 0
4, 47882, Note_on_c, 1, 55, 90
4, 47883, Note_on_c, 1, 59, 0
4, 48003, Note_on_c, 1, 55, 0
4, 48118, Note_on_c, 1, 55, 90
4, 48121, Note_on_c, 1, 74, 90
4, 48236, Note_on_c, 1, 55, 0
4, 48238, Note_on_c, 1, 79, 90
4, 48241, Note_on_c, 1, 74, 0
4, 48241, Note_on_c, 1, 58, 90
4, 48358, Note_on_c, 1, 79, 0
4, 48359, Note_on_c, 1, 58, 0
4, 48359, Note_on_c, 1, 55, 90
4, 48359, Note_on_c, 1, 74, 90
4, 48478, Note_on_c, 1, 55, 0
4, 48482, Note_on_c, 1, 74, 0
4, 48598, Note_on_c, 1, 74, 90
4, 48602, Note_on_c, 1, 58, 90
4, 48718, Note_on_c, 1, 79, 90
4, 48719, Note_on_c, 1, 55, 90
4, 48721, Note_on_c, 1, 74, 0
4, 48724, Note_on_c, 1, 58, 0
4, 48837, Note_on_c, 1, 79, 0
4, 48838, Note_on_c, 1, 55, 0
4, 48840, Note_on_c, 1, 67, 90
4, 48841, Note_on_c, 1, 52, 90
4, 48959, Note_on_c, 1, 67, 0
4, 48959, Note_on_c, 1, 45, 90
4, 48961, Note_on_c, 1, 69, 90
4, 48962, Note_on_c, 1, 52, 0
4, 49078, Note_on_c, 1, 57, 90
4, 49082, Note_on_c, 1, 45, 0
4, 49196, Note_on_c, 1, 57, 0
4, 49197, Note_on_c, 1, 69, 0
4, 49198, Note_on_c, 1, 76, 90
4, 49199, Note_on_c, 1, 69, 90
4, 49200, Note_on_c, 1, 64, 90
4, 49201, Note_on_c, 1, 61, 90
4, 49320, Note_on_c, 1, 57, 90
4, 49324, Note_on_c, 1, 61, 0
4, 49437, Note_on_c, 1, 69, 0
4, 49440, Note_on_c, 1, 74, 90
4, 49441, Note_on_c, 1, 76, 0
4, 49441, Note_on_c, 1, 57, 0
4, 49441, Note_on_c, 1, 65, 90
4, 49442, Note_on_c, 1, 64, 0
4, 49442, Note_on_c, 1, 69, 90
4, 49559, Note_on_c, 1, 50, 90
4, 49678, Note_on_c, 1, 65, 0
4, 49679, Note_on_c, 1, 74, 0
4, 49680, Note_on_c, 1, 69, 0
4, 49680, Note_on_c, 1, 53, 90
4, 49681, Note_on_c, 1, 50, 0
4, 49681, Note_on_c, 1, 62, 90
4, 49799, Note_on_c, 1, 53, 0
4, 49799, Note_on_c, 1, 50, 90
4, 49918, Note_on_c, 1, 50, 0
4, 49919, Note_on_c, 1, 62, 0
4, 50040, Note_on_c, 1, 74, 90
4, 50042, Note_on_c, 1, 55, 90
4, 50042, Note_on_c, 1, 67, 90
4, 50156, Note_on_c, 1, 67, 0
4, 50158, Note_on_c, 1, 74, 0
4, 50158, Note_on_c, 1, 67, 90
4, 50158, Note_on_c, 1, 59, 90
4, 50160, Note_on_c, 1, 55, 0
4, 50161, Note_on_c, 1, 74, 90
4, 50277, Note_on_c, 1, 67, 0
4, 50278, Note_on_c, 1, 67, 90
4, 50279, Note_on_c, 1, 74, 0
4, 50281, Note_on_c, 1, 59, 0
4, 50282, Note_on_c, 1, 55, 90
4, 50396, Note_on_c, 1, 67, 0
4, 50400, Note_on_c, 1, 72, 90
4, 50401, Note_on_c, 1, 67, 90
4, 50405, Note_on_c, 1, 55, 0
4, 50457, Note_on_c, 1, 72, 0
4, 50458, Note_on_c, 1, 74, 90
4, 50518, Note_on_c, 1, 76, 90
4, 50519, Note_on_c, 1, 74, 0
4, 50521, Note_on_c, 1, 48, 90
4, 50576, Note_on_c, 1, 76, 0
4, 50578, Note_on_c, 1, 74, 90
4, 50636, Note_on_c, 1, 74, 0
4, 50639, Note_on_c, 1, 67, 0
4, 50639, Note_on_c, 1, 72, 90
4, 50640, Note_on_c, 1, 48, 0
4, 50640, Note_on_c, 1, 67, 90
4, 50641, Note_on_c, 1, 52, 90
4, 50758, Note_on_c, 1, 48, 90
4, 50760, Note_on_c, 1, 52, 0
4, 50762, Note_on_c, 1, 67, 0
4, 50762, Note_on_c, 1, 64, 90
4, 50879, Note_on_c, 1, 64, 0
4, 50880, Note_on_c, 1, 48, 0
4, 50882, Note_on_c, 1, 72, 0
4, 50999, Note_on_c, 1, 65, 90
4, 51002, Note_on_c, 1, 72, 90
4, 51002, Note_on_c, 1, 53, 90
4, 51117, Note_on_c, 1, 65, 0
4, 51118, Note_on_c, 1, 65, 90
4, 51120, Note_on_c, 1, 72, 0
4, 51122, Note_on_c, 1, 53, 0
4, 51122, Note_on_c, 1, 57, 90
4, 51122, Note_on_c, 1, 72, 90
4, 51237, Note_on_c, 1, 65, 0
4, 51239, Note_on_c, 1, 72, 0
4, 51239, Note_on_c, 1, 57, 0
4, 51240, Note_on_c, 1, 65, 90
4, 51241, Note_on_c, 1, 53, 90
4, 51358, Note_on_c, 1, 53, 0
4, 51358, Note_on_c, 1, 65, 0
4, 51359, Note_on_c, 1, 71, 90
4, 51361, Note_on_c, 1, 65, 90
4, 51418, Note_on_c, 1, 71, 0
4, 51420, Note_on_c, 1, 72, 90
4, 51478, Note_on_c, 1, 72, 0
4, 51479, Note_on_c, 1, 47, 90
4, 51482, Note_on_c, 1, 74, 90
4, 51542, Note_on_c, 1, 74, 0
4, 51542, Note_on_c, 1, 72, 90
4, 51596, Note_on_c, 1, 65, 0
4, 51598, Note_on_c, 1, 47, 0
4, 51598, Note_on_c, 1, 65, 90
4, 51599, Note_on_c, 1, 50, 90
4, 51600, Note_on_c, 1, 71, 90
4, 51604, Note_on_c, 1, 72, 0
4, 51718, Note_on_c, 1, 47, 90
4, 51719, Note_on_c, 1, 65, 0
4, 51722, Note_on_c, 1, 50, 0
4, 51722, Note_on_c, 1, 62, 90
4, 51839, Note_on_c, 1, 47, 0
4, 51841, Note_on_c, 1, 71, 0
4, 51843, Note_on_c, 1, 62, 0
4, 51959, Note_on_c, 1, 71, 90
4, 51960, Note_on_c, 1, 52, 90
4, 51960, Note_on_c, 1, 64, 90
4, 52076, Note_on_c, 1, 71, 0
4, 52078, Note_on_c, 1, 64, 0
4, 52079, Note_on_c, 1, 52, 0
4, 52079, Note_on_c, 1, 56, 90
4, 52080, Note_on_c, 1, 71, 90
4, 52082, Note_on_c, 1, 64, 90
4, 52198, Note_on_c, 1, 52, 90
4, 52199, Note_on_c, 1, 64, 0
4, 52201, Note_on_c, 1, 64, 90
4, 52202, Note_on_c, 1, 56, 0
4, 52202, Note_on_c, 1, 71, 0
4, 52317, Note_on_c, 1, 52, 0
4, 52319, Note_on_c, 1, 64, 0
4, 52320, Note_on_c, 1, 69, 90
4, 52320, Note_on_c, 1, 64, 90
4, 52377, Note_on_c, 1, 69, 0
4, 52380, Note_on_c, 1, 71, 90
4, 52438, Note_on_c, 1, 72, 90
4, 52438, Note_on_c, 1, 45, 90
4, 52440, Note_on_c, 1, 71, 0
4, 52496, Note_on_c, 1, 72, 0
4, 52501, Note_on_c, 1, 71, 90
4, 52558, Note_on_c, 1, 64, 0
4, 52558, Note_on_c, 1, 45, 0
4, 52559, Note_on_c, 1, 69, 90
4, 52560, Note_on_c, 1, 71, 0
4, 52561, Note_on_c, 1, 64, 90
4, 52561, Note_on_c, 1, 48, 90
4, 52680, Note_on_c, 1, 45, 90
4, 52683, Note_on_c, 1, 48, 0
4, 52797, Note_on_c, 1, 69, 0
4, 52797, Note_on_c, 1, 64, 0
4, 52798, Note_on_c, 1, 69, 90
4, 52799, Note_on_c, 1, 64, 90
4, 52801, Note_on_c, 1, 45, 0
4, 52802, Note_on_c, 1, 72, 90
4, 52922, Note_on_c, 1, 33, 90
4, 52922, Note_on_c, 1, 45, 90
4, 53035, Note_on_c, 1, 69, 0
4, 53037, Note_on_c, 1, 64, 0
4, 53039, Note_on_c, 1, 33, 0
4, 53039, Note_on_c, 1, 64, 90
4, 53041, Note_on_c, 1, 69, 90
4, 53042, Note_on_c, 1, 36, 90
4, 53042, Note_on_c, 1, 76, 90
4, 53044, Note_on_c, 1, 45, 0
4, 53045, Note_on_c, 1, 72, 0
4, 53158, Note_on_c, 1, 33, 90
4, 53160, Note_on_c, 1, 45, 90
4, 53165, Note_on_c, 1, 36, 0
4, 53277, Note_on_c, 1, 69, 0
4, 53277, Note_on_c, 1, 64, 0
4, 53279, Note_on_c, 1, 76, 0
4, 53279, Note_on_c, 1, 69, 90
4, 53280, Note_on_c, 1, 33, 0
4, 53280, Note_on_c, 1, 45, 0
4, 53280, Note_on_c, 1, 72, 90
4, 53281, Note_on_c, 1, 64, 90
4, 53399, Note_on_c, 1, 45, 90
4, 53400, Note_on_c, 1, 33, 90
4, 53518, Note_on_c, 1, 36, 90
4, 53519, Note_on_c, 1, 33, 0
4, 53521, Note_on_c, 1, 45, 0
4, 53521, Note_on_c, 1, 72, 0
4, 53521, Note_on_c, 1, 69, 0
4, 53522, Note_on_c, 1, 64, 0
4, 53638, Note_on_c, 1, 33, 90
4, 53638, Note_on_c, 1, 45, 90
4, 53641, Note_on_c, 1, 36, 0
4, 53757, Note_on_c, 1, 33, 0
4, 53758, Note_on_c, 1, 64, 90
4, 53759, Note_on_c, 1, 72, 90
4, 53759, Note_on_c, 1, 69, 90
4, 53761, Note_on_c, 1, 45, 0
4, 53879, Note_on_c, 1, 45, 90
4, 53881, Note_on_c, 1, 33, 90
4, 53996, Note_on_c, 1, 64, 0
4, 53996, Note_on_c, 1, 69, 0
4, 54000, Note_on_c, 1, 36, 90
4, 54000, Note_on_c, 1, 64, 90
4, 54001, Note_on_c, 1, 76, 90
4, 54002, Note_on_c, 1, 45, 0
4, 54002, Note_on_c, 1, 33, 0
4, 54002, Note_on_c, 1, 72, 0
4, 54002, Note_on_c, 1, 69, 90
4, 54118, Note_on_c, 1, 33, 90
4, 54119, Note_on_c, 1, 36, 0
4, 54120, Note_on_c, 1, 45, 90
4, 54236, Note_on_c, 1, 69, 0
4, 54237, Note_on_c, 1, 64, 0
4, 54238, Note_on_c, 1, 69, 90
4, 54240, Note_on_c, 1, 76, 0
4, 54240, Note_on_c, 1, 45, 0
4, 54240, Note_on_c, 1, 33, 0
4, 54240, Note_on_c, 1, 72, 90
4, 54241, Note_on_c, 1, 64, 90
4, 54360, Note_on_c, 1, 33, 90
4, 54362, Note_on_c, 1, 45, 90
4, 54479, Note_on_c, 1, 69, 0
4, 54481, Note_on_c, 1, 36, 90
4, 54482, Note_on_c, 1, 45, 0
4, 54483, Note_on_c, 1, 33, 0
4, 54483, Note_on_c, 1, 72, 0
4, 54483, Note_on_c, 1, 64, 0
4, 54599, Note_on_c, 1, 36, 0
4, 54600, Note_on_c, 1, 33, 90
4, 54601, Note_on_c, 1, 45, 90
4, 54718, Note_on_c, 1, 33, 0
4, 54719, Note_on_c, 1, 45, 0
4, 54719, Note_on_c, 1, 62, 90
4, 54719, Note_on_c, 1, 71, 90
4, 54721, Note_on_c, 1, 44, 90
4, 54721, Note_on_c, 1, 64, 90
4, 54837, Note_on_c, 1, 62, 0
4, 54838, Note_on_c, 1, 64, 0
4, 54839, Note_on_c, 1, 71, 0
4, 54839, Note_on_c, 1, 69, 90
4, 54840, Note_on_c, 1, 45, 90
4, 54840, Note_on_c, 1, 64, 90
4, 54841, Note_on_c, 1, 60, 90
4, 54843, Note_on_c, 1, 44, 0
4, 54958, Note_on_c, 1, 64, 0
4, 54960, Note_on_c, 1, 60, 0
4, 54960, Note_on_c, 1, 45, 0
4, 54960, Note_on_c, 1, 64, 90
4, 54960, Note_on_c, 1, 52, 90
4, 54961, Note_on_c, 1, 69, 0
4, 55077, Note_on_c, 1, 52, 0
4, 55078, Note_on_c, 1, 64, 0
4, 55079, Note_on_c, 1, 41, 90
4, 55080, Note_on_c, 1, 59, 90
4, 55081, Note_on_c, 1, 64, 90
4, 55082, Note_on_c, 1, 68, 90
4, 55196, Note_on_c, 1, 64, 0
4, 55197, Note_on_c, 1, 41, 0
4, 55198, Note_on_c, 1, 60, 90
4, 55198, Note_on_c, 1, 64, 90
4, 55199, Note_on_c, 1, 33, 90
4, 55200, Note_on_c, 1, 59, 0
4, 55201, Note_on_c, 1, 45, 90
4, 55202, Note_on_c, 1, 69, 90
4, 55204, Note_on_c, 1, 68, 0
4, 55319, Note_on_c, 1, 33, 0
4, 55319, Note_on_c, 1, 57, 90
4, 55324, Note_on_c, 1, 45, 0
4, 55436, Note_on_c, 1, 60, 0
4, 55437, Note_on_c, 1, 64, 0
4, 55441, Note_on_c, 1, 57, 0
4, 55442, Note_on_c, 1, 60, 90
4, 55443, Note_on_c, 1, 69, 0
4, 55558, Note_on_c, 1, 72, 90
4, 55559, Note_on_c, 1, 57, 90
4, 55560, Note_on_c, 1, 76, 90
4, 55565, Note_on_c, 1, 60, 0
4, 55676, Note_on_c, 1, 72, 0
4, 55678, Note_on_c, 1, 76, 0
4, 55678, Note_on_c, 1, 72, 90
4, 55679, Note_on_c, 1, 57, 0
4, 55681, Note_on_c, 1, 76, 90
4, 55682, Note_on_c, 1, 81, 90
4, 55798, Note_on_c, 1, 45, 90
4, 55799, Note_on_c, 1, 72, 0
4, 55799, Note_on_c, 1, 57, 90
4, 55799, Note_on_c, 1, 52, 90
4, 55799, Note_on_c, 1, 69, 90
4, 55800, Note_on_c, 1, 81, 0
4, 55801, Note_on_c, 1, 81, 90
4, 55803, Note_on_c, 1, 76, 0
4, 55916, Note_on_c, 1, 57, 0
4, 55916, Note_on_c, 1, 52, 0
4, 55917, Note_on_c, 1, 69, 0
4, 55918, Note_on_c, 1, 52, 90
4, 55919, Note_on_c, 1, 45, 0
4, 55919, Note_on_c, 1, 81, 0
4, 55919, Note_on_c, 1, 69, 90
4, 55921, Note_on_c, 1, 57, 90
4, 55921, Note_on_c, 1, 81, 90
4, 55922, Note_on_c, 1, 48, 90
4, 56036, Note_on_c, 1, 52, 0
4, 56037, Note_on_c, 1, 69, 0
4, 56038, Note_on_c, 1, 76, 90
4, 56039, Note_on_c, 1, 81, 0
4, 56039, Note_on_c, 1, 57, 0
4, 56039, Note_on_c, 1, 69, 90
4, 56039, Note_on_c, 1, 45, 90
4, 56040, Note_on_c, 1, 48, 0
4, 56040, Note_on_c, 1, 52, 90
4, 56041, Note_on_c, 1, 81, 90
4, 56042, Note_on_c, 1, 57, 90
4, 56156, Note_on_c, 1, 81, 0
4, 56156, Note_on_c, 1, 45, 0
4, 56157, Note_on_c, 1, 76, 0
4, 56158, Note_on_c, 1, 81, 90
4, 56159, Note_on_c, 1, 57, 0
4, 56161, Note_on_c, 1, 69, 0
4, 56161, Note_on_c, 1, 72, 90
4, 56163, Note_on_c, 1, 52, 0
4, 56277, Note_on_c, 1, 81, 0
4, 56279, Note_on_c, 1, 81, 90
4, 56280, Note_on_c, 1, 72, 0
4, 56280, Note_on_c, 1, 45, 90
4, 56280, Note_on_c, 1, 57, 90
4, 56280, Note_on_c, 1, 52, 90
4, 56280, Note_on_c, 1, 84, 90
4, 56337, Note_on_c, 1, 84, 0
4, 56341, Note_on_c, 1, 83, 90
4, 56398, Note_on_c, 1, 81, 0
4, 56398, Note_on_c, 1, 52, 0
4, 56398, Note_on_c, 1, 48, 90
4, 56399, Note_on_c, 1, 57, 0
4, 56400, Note_on_c, 1, 81, 90
4, 56400, Note_on_c, 1, 52, 90
4, 56401, Note_on_c, 1, 83, 0
4, 56401, Note_on_c, 1, 57, 90
4, 56402, Note_on_c, 1, 45, 0
4, 56517, Note_on_c, 1, 52, 0
4, 56517, Note_on_c, 1, 81, 0
4, 56518, Note_on_c, 1, 48, 0
4, 56519, Note_on_c, 1, 57, 0
4, 56519, Note_on_c, 1, 52, 90
4, 56521, Note_on_c, 1, 45, 90
4, 56522, Note_on_c, 1, 84, 90
4, 56522, Note_on_c, 1, 76, 90
4, 56522, Note_on_c, 1, 57, 90
4, 56580, Note_on_c, 1, 83, 90
4, 56583, Note_on_c, 1, 84, 0
4, 56638, Note_on_c, 1, 83, 0
4, 56638, Note_on_c, 1, 72, 90
4, 56640, Note_on_c, 1, 52, 0
4, 56642, Note_on_c, 1, 57, 0
4, 56642, Note_on_c, 1, 45, 0
4, 56642, Note_on_c, 1, 76, 0
4, 56642, Note_on_c, 1, 81, 90
4, 56757, Note_on_c, 1, 72, 0
4, 56758, Note_on_c, 1, 52, 90
4, 56760, Note_on_c, 1, 81, 0
4, 56760, Note_on_c, 1, 84, 90
4, 56760, Note_on_c, 1, 45, 90
4, 56761, Note_on_c, 1, 57, 90
4, 56762, Note_on_c, 1, 81, 90
4, 56818, Note_on_c, 1, 83, 90
4, 56820, Note_on_c, 1, 84, 0
4, 56876, Note_on_c, 1, 52, 0
4, 56878, Note_on_c, 1, 81, 0
4, 56879, Note_on_c, 1, 57, 0
4, 56880, Note_on_c, 1, 83, 0
4, 56880, Note_on_c, 1, 81, 90
4, 56880, Note_on_c, 1, 52, 90
4, 56880, Note_on_c, 1, 48, 90
4, 56881, Note_on_c, 1, 57, 90
4, 56883, Note_on_c, 1, 45, 0
4, 56996, Note_on_c, 1, 52, 0
4, 56998, Note_on_c, 1, 81, 0
4, 56998, Note_on_c, 1, 52, 90
4, 56999, Note_on_c, 1, 57, 0
4, 56999, Note_on_c, 1, 69, 90
4, 57001, Note_on_c, 1, 79, 90
4, 57002, Note_on_c, 1, 48, 0
4, 57002, Note_on_c, 1, 72, 90
4, 57002, Note_on_c, 1, 57, 90
4, 57002, Note_on_c, 1, 45, 90
4, 57059, Note_on_c, 1, 77, 90
4, 57062, Note_on_c, 1, 79, 0
4, 57117, Note_on_c, 1, 72, 0
4, 57117, Note_on_c, 1, 52, 0
4, 57117, Note_on_c, 1, 69, 0
4, 57119, Note_on_c, 1, 72, 90
4, 57119, Note_on_c, 1, 69, 90
4, 57122, Note_on_c, 1, 77, 0
4, 57122, Note_on_c, 1, 76, 90
4, 57123, Note_on_c, 1, 57, 0
4, 57125, Note_on_c, 1, 45, 0
4, 57237, Note_on_c, 1, 72, 0
4, 57237, Note_on_c, 1, 69, 0
4, 57238, Note_on_c, 1, 74, 90
4, 57238, Note_on_c, 1, 45, 90
4, 57238, Note_on_c, 1, 64, 90
4, 57239, Note_on_c, 1, 69, 90
4, 57241, Note_on_c, 1, 57, 90
4, 57243, Note_on_c, 1, 76, 0
4, 57301, Note_on_c, 1, 74, 0
4, 57302, Note_on_c, 1, 72, 90
4, 57356, Note_on_c, 1, 64, 0
4, 57356, Note_on_c, 1, 45, 0
4, 57358, Note_on_c, 1, 44, 90
4, 57360, Note_on_c, 1, 69, 0
4, 57361, Note_on_c, 1, 57, 0
4, 57361, Note_on_c, 1, 71, 90
4, 57362, Note_on_c, 1, 72, 0
4, 57362, Note_on_c, 1, 64, 90
4, 57362, Note_on_c, 1, 56, 90
4, 57476, Note_on_c, 1, 64, 0
4, 57476, Note_on_c, 1, 44, 0
4, 57478, Note_on_c, 1, 64, 90
4, 57478, Note_on_c, 1, 52, 90
4, 57479, Note_on_c, 1, 76, 90
4, 57480, Note_on_c, 1, 56, 0
4, 57481, Note_on_c, 1, 68, 90
4, 57481, Note_on_c, 1, 40, 90
4, 57484, Note_on_c, 1, 71, 0
4, 57596, Note_on_c, 1, 64, 0
4, 57599, Note_on_c, 1, 76, 0
4, 57599, Note_on_c, 1, 52, 0
4, 57601, Note_on_c, 1, 72, 90
4, 57601, Note_on_c, 1, 69, 90
4, 57602, Note_on_c, 1, 68, 0
4, 57602, Note_on_c, 1, 45, 90
4, 57602, Note_on_c, 1, 64, 90
4, 57604, Note_on_c, 1, 40, 0
4, 57716, Note_on_c, 1, 69, 0
4, 57718, Note_on_c, 1, 57, 90
4, 57718, Note_on_c, 1, 69, 90
4, 57721, Note_on_c, 1, 72, 0
4, 57722, Note_on_c, 1, 45, 0
4, 57722, Note_on_c, 1, 60, 90
4, 57725, Note_on_c, 1, 64, 0
4, 57838, Note_on_c, 1, 57, 0
4, 57839, Note_on_c, 1, 60, 0
4, 57841, Note_on_c, 1, 69, 0
4, 57841, Note_on_c, 1, 45, 90
4, 57959, Note_on_c, 1, 45, 0
4, 57959, Note_on_c, 1, 57, 90
4, 58076, Note_on_c, 1, 57, 0
4, 58198, Note_on_c, 1, 57, 90
4, 58318, Note_on_c, 1, 76, 90
4, 58318, Note_on_c, 1, 72, 90
4, 58320, Note_on_c, 1, 45, 90
4, 58320, Note_on_c, 1, 69, 90
4, 58321, Note_on_c, 1, 57, 0
4, 58440, Note_on_c, 1, 57, 90
4, 58442, Note_on_c, 1, 45, 0
4, 58555, Note_on_c, 1, 76, 0
4, 58555, Note_on_c, 1, 72, 0
4, 58559, Note_on_c, 1, 57, 0
4, 58562, Note_on_c, 1, 69, 0
4, 58678, Note_on_c, 1, 57, 90
4, 58798, Note_on_c, 1, 45, 90
4, 58800, Note_on_c, 1, 57, 0
4, 58800, Note_on_c, 1, 69, 90
4, 58800, Note_on_c, 1, 73, 90
4, 58802, Note_on_c, 1, 76, 90
4, 58915, Note_on_c, 1, 45, 0
4, 58921, Note_on_c, 1, 57, 90
4, 59037, Note_on_c, 1, 69, 0
4, 59039, Note_on_c, 1, 76, 0
4, 59039, Note_on_c, 1, 73, 0
4, 59040, Note_on_c, 1, 57, 0
4, 59162, Note_on_c, 1, 57, 90
4, 59278, Note_on_c, 1, 76, 90
4, 59278, Note_on_c, 1, 81, 90
4, 59279, Note_on_c, 1, 57, 0
4, 59282, Note_on_c, 1, 61, 90
4, 59282, Note_on_c, 1, 69, 90
4, 59401, Note_on_c, 1, 61, 0
4, 59402, Note_on_c, 1, 57, 90
4, 59519, Note_on_c, 1, 76, 0
4, 59520, Note_on_c, 1, 69, 0
4, 59520, Note_on_c, 1, 81, 0
4, 59520, Note_on_c, 1, 74, 90
4, 59520, Note_on_c, 1, 78, 90
4, 59521, Note_on_c, 1, 69, 90
4, 59522, Note_on_c, 1, 57, 0
4, 59639, Note_on_c, 1, 62, 90
4, 59758, Note_on_c, 1, 62, 0
4, 59758, Note_on_c, 1, 69, 0
4, 59759, Note_on_c, 1, 78, 0
4, 59760, Note_on_c, 1, 50, 90
4, 59760, Note_on_c, 1, 62, 90
4, 59760, Note_on_c, 1, 69, 90
4, 59761, Note_on_c, 1, 66, 90
4, 59762, Note_on_c, 1, 74, 0
4, 59883, Note_on_c, 1, 50, 0
4, 60000, Note_on_c, 1, 69, 0
4, 60002, Note_on_c, 1, 66, 0
4, 60003, Note_on_c, 1, 62, 0
4, 60121, Note_on_c, 1, 62, 90
4, 60238, Note_on_c, 1, 66, 90
4, 60239, Note_on_c, 1, 62, 0
4, 60240, Note_on_c, 1, 69, 90
4, 60240, Note_on_c, 1, 74, 90
4, 60242, Note_on_c, 1, 50, 90
4, 60360, Note_on_c, 1, 62, 90
4, 60363, Note_on_c, 1, 50, 0
4, 60477, Note_on_c, 1, 66, 0
4, 60478, Note_on_c, 1, 69, 0
4, 60481, Note_on_c, 1, 74, 0
4, 60481, Note_on_c, 1, 62, 0
4, 60598, Note_on_c, 1, 50, 90
4, 60718, Note_on_c, 1, 74, 90
4, 60720, Note_on_c, 1, 50, 0
4, 60720, Note_on_c, 1, 69, 90
4, 60720, Note_on_c, 1, 54, 90
4, 60721, Note_on_c, 1, 62, 90
4, 60839, Note_on_c, 1, 54, 0
4, 60840, Note_on_c, 1, 50, 90
4, 60956, Note_on_c, 1, 74, 0
4, 60958, Note_on_c, 1, 71, 90
4, 60959, Note_on_c, 1, 62, 0
4, 60960, Note_on_c, 1, 50, 0
4, 60960, Note_on_c, 1, 69, 0
4, 60961, Note_on_c, 1, 67, 90
4, 60962, Note_on_c, 1, 62, 90
4, 61080, Note_on_c, 1, 55, 90
4, 61195, Note_on_c, 1, 71, 0
4, 61197, Note_on_c, 1, 55, 0
4, 61199, Note_on_c, 1, 59, 90
4, 61199, Note_on_c, 1, 43, 90
4, 61200, Note_on_c, 1, 62, 0
4, 61202, Note_on_c, 1, 62, 90
4, 61202, Note_on_c, 1, 55, 90
4, 61204, Note_on_c, 1, 67, 0
4, 61322, Note_on_c, 1, 43, 0
4, 61438, Note_on_c, 1, 59, 0
4, 61441, Note_on_c, 1, 62, 0
4, 61444, Note_on_c, 1, 55, 0
4, 61560, Note_on_c, 1, 55, 90
4, 61678, Note_on_c, 1, 62, 90
4, 61678, Note_on_c, 1, 43, 90
4, 61679, Note_on_c, 1, 59, 90
4, 61680, Note_on_c, 1, 67, 90
4, 61681, Note_on_c, 1, 55, 0
4, 61798, Note_on_c, 1, 43, 0
4, 61801, Note_on_c, 1, 55, 90
4, 61917, Note_on_c, 1, 62, 0
4, 61918, Note_on_c, 1, 55, 0
4, 61919, Note_on_c, 1, 59, 0
4, 61923, Note_on_c, 1, 67, 0
4, 62041, Note_on_c, 1, 43, 90
4, 62158, Note_on_c, 1, 62, 90
4, 62159, Note_on_c, 1, 47, 90
4, 62160, Note_on_c, 1, 67, 90
4, 62161, Note_on_c, 1, 55, 90
4, 62164, Note_on_c, 1, 43, 0
4, 62277, Note_on_c, 1, 47, 0
4, 62279, Note_on_c, 1, 43, 90
4, 62396, Note_on_c, 1, 43, 0
4, 62400, Note_on_c, 1, 55, 0
4, 62400, Note_on_c, 1, 62, 0
4, 62400, Note_on_c, 1, 64, 90
4, 62401, Note_on_c, 1, 55, 90
4, 62402, Note_on_c, 1, 60, 90
4, 62403, Note_on_c, 1, 67, 0
4, 62637, Note_on_c, 1, 60, 0
4, 62638, Note_on_c, 1, 52, 90
4, 62639, Note_on_c, 1, 64, 0
4, 62639, Note_on_c, 1, 60, 90
4, 62641, Note_on_c, 1, 55, 0
4, 62641, Note_on_c, 1, 67, 90
4, 62756, Note_on_c, 1, 67, 0
4, 62757, Note_on_c, 1, 60, 0
4, 62758, Note_on_c, 1, 72, 90
4, 62758, Note_on_c, 1, 67, 90
4, 62758, Note_on_c, 1, 48, 90
4, 62760, Note_on_c, 1, 60, 90
4, 62761, Note_on_c, 1, 52, 0
4, 62878, Note_on_c, 1, 60, 0
4, 62878, Note_on_c, 1, 65, 90
4, 62879, Note_on_c, 1, 69, 90
4, 62880, Note_on_c, 1, 72, 0
4, 62880, Note_on_c, 1, 48, 0
4, 62880, Note_on_c, 1, 67, 0
4, 62880, Note_on_c, 1, 60, 90
4, 62999, Note_on_c, 1, 57, 90
4, 63115, Note_on_c, 1, 65, 0
4, 63116, Note_on_c, 1, 69, 0
4, 63118, Note_on_c, 1, 62, 90
4, 63119, Note_on_c, 1, 57, 0
4, 63119, Note_on_c, 1, 54, 90
4, 63121, Note_on_c, 1, 60, 0
4, 63121, Note_on_c, 1, 69, 90
4, 63236, Note_on_c, 1, 62, 0
4, 63238, Note_on_c, 1, 69, 0
4, 63238, Note_on_c, 1, 54, 0
4, 63238, Note_on_c, 1, 50, 90
4, 63240, Note_on_c, 1, 69, 90
4, 63240, Note_on_c, 1, 62, 90
4, 63241, Note_on_c, 1, 74, 90
4, 63358, Note_on_c, 1, 62, 0
4, 63358, Note_on_c, 1, 50, 0
4, 63359, Note_on_c, 1, 69, 0
4, 63359, Note_on_c, 1, 62, 90
4, 63360, Note_on_c, 1, 74, 0
4, 63361, Note_on_c, 1, 67, 90
4, 63362, Note_on_c, 1, 71, 90
4, 63479, Note_on_c, 1, 59, 90
4, 63598, Note_on_c, 1, 64, 90
4, 63598, Note_on_c, 1, 56, 90
4, 63600, Note_on_c, 1, 71, 0
4, 63602, Note_on_c, 1, 59, 0
4, 63602, Note_on_c, 1, 62, 0
4, 63602, Note_on_c, 1, 71, 90
4, 63604, Note_on_c, 1, 67, 0
4, 63716, Note_on_c, 1, 64, 0
4, 63718, Note_on_c, 1, 71, 0
4, 63719, Note_on_c, 1, 56, 0
4, 63719, Note_on_c, 1, 76, 90
4, 63720, Note_on_c, 1, 52, 90
4, 63720, Note_on_c, 1, 71, 90
4, 63721, Note_on_c, 1, 64, 90
4, 63837, Note_on_c, 1, 64, 0
4, 63838, Note_on_c, 1, 76, 0
4, 63839, Note_on_c, 1, 69, 90
4, 63839, Note_on_c, 1, 64, 90
4, 63840, Note_on_c, 1, 72, 90
4, 63843, Note_on_c, 1, 71, 0
4, 63843, Note_on_c, 1, 52, 0
4, 63962, Note_on_c, 1, 60, 90
4, 64076, Note_on_c, 1, 72, 0
4, 64078, Note_on_c, 1, 72, 90
4, 64079, Note_on_c, 1, 69, 0
4, 64080, Note_on_c, 1, 64, 0
4, 64080, Note_on_c, 1, 65, 90
4, 64082, Note_on_c, 1, 57, 90
4, 64084, Note_on_c, 1, 60, 0
4, 64197, Note_on_c, 1, 72, 0
4, 64197, Note_on_c, 1, 65, 0
4, 64200, Note_on_c, 1, 65, 90
4, 64200, Note_on_c, 1, 77, 90
4, 64201, Note_on_c, 1, 72, 90
4, 64202, Note_on_c, 1, 57, 0
4, 64202, Note_on_c, 1, 53, 90
4, 64316, Note_on_c, 1, 65, 0
4, 64318, Note_on_c, 1, 72, 0
4, 64318, Note_on_c, 1, 77, 0
4, 64318, Note_on_c, 1, 65, 90
4, 64319, Note_on_c, 1, 74, 90
4, 64321, Note_on_c, 1, 71, 90
4, 64322, Note_on_c, 1, 53, 0
4, 64442, Note_on_c, 1, 62, 90
4, 64557, Note_on_c, 1, 65, 0
4, 64557, Note_on_c, 1, 74, 0
4, 64558, Note_on_c, 1, 74, 90
4, 64559, Note_on_c, 1, 59, 90
4, 64561, Note_on_c, 1, 62, 0
4, 64562, Note_on_c, 1, 67, 90
4, 64563, Note_on_c, 1, 71, 0
4, 64675, Note_on_c, 1, 74, 0
4, 64678, Note_on_c, 1, 59, 0
4, 64679, Note_on_c, 1, 67, 0
4, 64679, Note_on_c, 1, 74, 90
4, 64680, Note_on_c, 1, 67, 90
4, 64682, Note_on_c, 1, 55, 90
4, 64682, Note_on_c, 1, 79, 90
4, 64796, Note_on_c, 1, 74, 0
4, 64798, Note_on_c, 1, 67, 0
4, 64799, Note_on_c, 1, 55, 0
4, 64799, Note_on_c, 1, 67, 90
4, 64800, Note_on_c, 1, 76, 90
4, 64800, Note_on_c, 1, 72, 90
4, 64804, Note_on_c, 1, 79, 0
4, 64921, Note_on_c, 1, 64, 90
4, 65038, Note_on_c, 1, 76, 0
4, 65039, Note_on_c, 1, 61, 90
4, 65039, Note_on_c, 1, 76, 90
4, 65040, Note_on_c, 1, 64, 0
4, 65040, Note_on_c, 1, 69, 90
4, 65042, Note_on_c, 1, 72, 0
4, 65042, Note_on_c, 1, 67, 0
4, 65157, Note_on_c, 1, 76, 0
4, 65158, Note_on_c, 1, 69, 0
4, 65158, Note_on_c, 1, 57, 90
4, 65158, Note_on_c, 1, 81, 90
4, 65159, Note_on_c, 1, 69, 90
4, 65159, Note_on_c, 1, 76, 90
4, 65162, Note_on_c, 1, 61, 0
4, 65276, Note_on_c, 1, 57, 0
4, 65277, Note_on_c, 1, 69, 0
4, 65278, Note_on_c, 1, 74, 90
4, 65279, Note_on_c, 1, 81, 0
4, 65279, Note_on_c, 1, 76, 0
4, 65279, Note_on_c, 1, 69, 90
4, 65282, Note_on_c, 1, 78, 90
4, 65398, Note_on_c, 1, 54, 90
4, 65518, Note_on_c, 1, 78, 0
4, 65518, Note_on_c, 1, 71, 90
4, 65519, Note_on_c, 1, 74, 0
4, 65520, Note_on_c, 1, 69, 0
4, 65520, Note_on_c, 1, 78, 90
4, 65520, Note_on_c, 1, 51, 90
4, 65521, Note_on_c, 1, 54, 0
4, 65636, Note_on_c, 1, 71, 0
4, 65638, Note_on_c, 1, 78, 0
4, 65638, Note_on_c, 1, 71, 90
4, 65639, Note_on_c, 1, 51, 0
4, 65639, Note_on_c, 1, 83, 90
4, 65642, Note_on_c, 1, 78, 90
4, 65642, Note_on_c, 1, 47, 90
4, 65756, Note_on_c, 1, 71, 0
4, 65758, Note_on_c, 1, 52, 90
4, 65759, Note_on_c, 1, 40, 90
4, 65760, Note_on_c, 1, 71, 90
4, 65761, Note_on_c, 1, 83, 0
4, 65761, Note_on_c, 1, 80, 90
4, 65761, Note_on_c, 1, 76, 90
4, 65764, Note_on_c, 1, 78, 0
4, 65765, Note_on_c, 1, 47, 0
4, 65818, Note_on_c, 1, 80, 0
4, 65818, Note_on_c, 1, 76, 0
4, 65822, Note_on_c, 1, 71, 0
4, 65822, Note_on_c, 1, 64, 90
4, 65880, Note_on_c, 1, 68, 90
4, 65882, Note_on_c, 1, 64, 0
4, 65938, Note_on_c, 1, 68, 0
4, 65942, Note_on_c, 1, 71, 90
4, 66000, Note_on_c, 1, 64, 90
4, 66000, Note_on_c, 1, 74, 90
4, 66002, Note_on_c, 1, 67, 90
4, 66003, Note_on_c, 1, 71, 0
4, 66055, Note_on_c, 1, 52, 0
4, 66058, Note_on_c, 1, 52, 90
4, 66062, Note_on_c, 1, 40, 0
4, 66118, Note_on_c, 1, 74, 0
4, 66118, Note_on_c, 1, 64, 0
4, 66119, Note_on_c, 1, 52, 0
4, 66119, Note_on_c, 1, 71, 90
4, 66120, Note_on_c, 1, 74, 90
4, 66121, Note_on_c, 1, 67, 0
4, 66121, Note_on_c, 1, 64, 90
4, 66122, Note_on_c, 1, 56, 90
4, 66178, Note_on_c, 1, 59, 90
4, 66180, Note_on_c, 1, 56, 0
4, 66237, Note_on_c, 1, 64, 0
4, 66237, Note_on_c, 1, 59, 0
4, 66237, Note_on_c, 1, 71, 0
4, 66238, Note_on_c, 1, 74, 0
4, 66238, Note_on_c, 1, 52, 90
4, 66239, Note_on_c, 1, 64, 90
4, 66241, Note_on_c, 1, 40, 90
4, 66241, Note_on_c, 1, 74, 90
4, 66241, Note_on_c, 1, 68, 90
4, 66296, Note_on_c, 1, 64, 0
4, 66298, Note_on_c, 1, 64, 90
4, 66300, Note_on_c, 1, 68, 0
4, 66303, Note_on_c, 1, 74, 0
4, 66359, Note_on_c, 1, 64, 0
4, 66360, Note_on_c, 1, 68, 90
4, 66419, Note_on_c, 1, 68, 0
4, 66420, Note_on_c, 1, 71, 90
4, 66480, Note_on_c, 1, 71, 0
4, 66480, Note_on_c, 1, 68, 90
4, 66480, Note_on_c, 1, 74, 90
4, 66481, Note_on_c, 1, 64, 90
4, 66536, Note_on_c, 1, 52, 0
4, 66538, Note_on_c, 1, 52, 90
4, 66543, Note_on_c, 1, 40, 0
4, 66596, Note_on_c, 1, 64, 0
4, 66596, Note_on_c, 1, 52, 0
4, 66597, Note_on_c, 1, 68, 0
4, 66598, Note_on_c, 1, 74, 0
4, 66598, Note_on_c, 1, 64, 90
4, 66599, Note_on_c, 1, 71, 90
4, 66601, Note_on_c, 1, 56, 90
4, 66602, Note_on_c, 1, 74, 90
4, 66658, Note_on_c, 1, 59, 90
4, 66664, Note_on_c, 1, 56, 0
4, 66716, Note_on_c, 1, 64, 0
4, 66717, Note_on_c, 1, 59, 0
4, 66718, Note_on_c, 1, 64, 90
4, 66719, Note_on_c, 1, 74, 0
4, 66720, Note_on_c, 1, 71, 0
4, 66721, Note_on_c, 1, 40, 90
4, 66722, Note_on_c, 1, 74, 90
4, 66722, Note_on_c, 1, 52, 90
4, 66722, Note_on_c, 1, 68, 90
4, 66776, Note_on_c, 1, 64, 0
4, 66779, Note_on_c, 1, 74, 0
4, 66779, Note_on_c, 1, 64, 90
4, 66782, Note_on_c, 1, 68, 0
4, 66837, Note_on_c, 1, 64, 0
4, 66838, Note_on_c, 1, 68, 90
4, 66897, Note_on_c, 1, 68, 0
4, 66902, Note_on_c, 1, 71, 90
4, 66958, Note_on_c, 1, 74, 90
4, 66959, Note_on_c, 1, 68, 90
4, 66960, Note_on_c, 1, 71, 0
4, 66961, Note_on_c, 1, 64, 90
4, 67020, Note_on_c, 1, 40, 0
4, 67020, Note_on_c, 1, 59, 90
4, 67022, Note_on_c, 1, 52, 0
4, 67075, Note_on_c, 1, 74, 0
4, 67077, Note_on_c, 1, 68, 0
4, 67078, Note_on_c, 1, 59, 0
4, 67079, Note_on_c, 1, 71, 90
4, 67080, Note_on_c, 1, 64, 0
4, 67081, Note_on_c, 1, 76, 90
4, 67081, Note_on_c, 1, 55, 90
4, 67081, Note_on_c, 1, 64, 90
4, 67140, Note_on_c, 1, 52, 90
4, 67142, Note_on_c, 1, 55, 0
4, 67198, Note_on_c, 1, 69, 90
4, 67198, Note_on_c, 1, 72, 90
4, 67199, Note_on_c, 1, 64, 0
4, 67199, Note_on_c, 1, 45, 90
4, 67200, Note_on_c, 1, 76, 0
4, 67200, Note_on_c, 1, 64, 90
4, 67201, Note_on_c, 1, 71, 0
4, 67202, Note_on_c, 1, 57, 90
4, 67203, Note_on_c, 1, 52, 0
4, 67315, Note_on_c, 1, 69, 0
4, 67316, Note_on_c, 1, 45, 0
4, 67318, Note_on_c, 1, 64, 0
4, 67320, Note_on_c, 1, 72, 0
4, 67321, Note_on_c, 1, 48, 90
4, 67322, Note_on_c, 1, 60, 90
4, 67322, Note_on_c, 1, 64, 90
4, 67322, Note_on_c, 1, 71, 90
4, 67323, Note_on_c, 1, 57, 0
4, 67378, Note_on_c, 1, 69, 90
4, 67382, Note_on_c, 1, 71, 0
4, 67435, Note_on_c, 1, 69, 0
4, 67438, Note_on_c, 1, 65, 90
4, 67439, Note_on_c, 1, 64, 0
4, 67439, Note_on_c, 1, 69, 90
4, 67440, Note_on_c, 1, 62, 90
4, 67441, Note_on_c, 1, 48, 0
4, 67442, Note_on_c, 1, 50, 90
4, 67442, Note_on_c, 1, 77, 90
4, 67443, Note_on_c, 1, 60, 0
4, 67557, Note_on_c, 1, 62, 0
4, 67559, Note_on_c, 1, 65, 0
4, 67560, Note_on_c, 1, 76, 90
4, 67561, Note_on_c, 1, 77, 0
4, 67561, Note_on_c, 1, 50, 0
4, 67561, Note_on_c, 1, 59, 90
4, 67562, Note_on_c, 1, 69, 0
4, 67562, Note_on_c, 1, 47, 90
4, 67562, Note_on_c, 1, 68, 90
4, 67617, Note_on_c, 1, 76, 0
4, 67621, Note_on_c, 1, 74, 90
4, 67653, Note_on_c, 1, 47, 0
4, 67678, Note_on_c, 1, 76, 90
4, 67679, Note_on_c, 1, 48, 90
4, 67681, Note_on_c, 1, 69, 90
4, 67682, Note_on_c, 1, 74, 0
4, 67682, Note_on_c, 1, 60, 90
4, 67684, Note_on_c, 1, 68, 0
4, 67684, Note_on_c, 1, 59, 0
4, 67797, Note_on_c, 1, 48, 0
4, 67798, Note_on_c, 1, 62, 90
4, 67799, Note_on_c, 1, 76, 0
4, 67799, Note_on_c, 1, 69, 0
4, 67799, Note_on_c, 1, 60, 0
4, 67799, Note_on_c, 1, 50, 90
4, 67800, Note_on_c, 1, 81, 90
4, 67801, Note_on_c, 1, 77, 90
4, 67802, Note_on_c, 1, 69, 90
4, 67919, Note_on_c, 1, 50, 0
4, 67920, Note_on_c, 1, 62, 0
4, 67921, Note_on_c, 1, 81, 0
4, 67921, Note_on_c, 1, 52, 90
4, 67922, Note_on_c, 1, 77, 0
4, 67922, Note_on_c, 1, 69, 0
4, 67922, Note_on_c, 1, 64, 90
4, 68039, Note_on_c, 1, 52, 0
4, 68040, Note_on_c, 1, 40, 90
4, 68041, Note_on_c, 1, 76, 90
4, 68042, Note_on_c, 1, 52, 90
4, 68042, Note_on_c, 1, 71, 90
4, 68042, Note_on_c, 1, 80, 90
4, 68043, Note_on_c, 1, 64, 0
4, 68158, Note_on_c, 1, 76, 0
4, 68159, Note_on_c, 1, 81, 90
4, 68160, Note_on_c, 1, 52, 0
4, 68161, Note_on_c, 1, 71, 0
4, 68161, Note_on_c, 1, 45, 90
4, 68161, Note_on_c, 1, 33, 90
4, 68161, Note_on_c, 1, 76, 90
4, 68161, Note_on_c, 1, 69, 90
4, 68162, Note_on_c, 1, 40, 0
4, 68162, Note_on_c, 1, 72, 90
4, 68163, Note_on_c, 1, 80, 0
4, 68281, Note_on_c, 1, 45, 0
4, 68282, Note_on_c, 1, 57, 90
4, 68399, Note_on_c, 1, 57, 0
4, 68400, Note_on_c, 1, 72, 0
4, 68401, Note_on_c, 1, 33, 0
4, 68401, Note_on_c, 1, 81, 0
4, 68402, Note_on_c, 1, 60, 90
4, 68403, Note_on_c, 1, 69, 0
4, 68404, Note_on_c, 1, 76, 0
4, 68519, Note_on_c, 1, 57, 90
4, 68524, Note_on_c, 1, 60, 0
4, 68639, Note_on_c, 1, 57, 0
4, 68759, Note_on_c, 1, 76, 90
4, 68761, Note_on_c, 1, 61, 90
4, 68878, Note_on_c, 1, 76, 0
4, 68880, Note_on_c, 1, 61, 0
4, 68882, Note_on_c, 1, 81, 90
4, 68882, Note_on_c, 1, 49, 90
4, 68998, Note_on_c, 1, 61, 90
4, 68998, Note_on_c, 1, 76, 90
4, 68999, Note_on_c, 1, 49, 0
4, 69005, Note_on_c, 1, 81, 0
4, 69115, Note_on_c, 1, 76, 0
4, 69116, Note_on_c, 1, 61, 0
4, 69239, Note_on_c, 1, 69, 90
4, 69242, Note_on_c, 1, 62, 90
4, 69359, Note_on_c, 1, 60, 90
4, 69360, Note_on_c, 1, 74, 90
4, 69361, Note_on_c, 1, 69, 0
4, 69362, Note_on_c, 1, 62, 0
4, 69476, Note_on_c, 1, 60, 0
4, 69479, Note_on_c, 1, 74, 0
4, 69479, Note_on_c, 1, 48, 90
4, 69482, Note_on_c, 1, 78, 90
4, 69600, Note_on_c, 1, 48, 0
4, 69605, Note_on_c, 1, 78, 0
4, 69718, Note_on_c, 1, 74, 90
4, 69720, Note_on_c, 1, 59, 90
4, 69836, Note_on_c, 1, 74, 0
4, 69839, Note_on_c, 1, 67, 90
4, 69840, Note_on_c, 1, 79, 90
4, 69841, Note_on_c, 1, 47, 90
4, 69842, Note_on_c, 1, 59, 0
4, 69956, Note_on_c, 1, 67, 0
4, 69958, Note_on_c, 1, 79, 0
4, 69958, Note_on_c, 1, 74, 90
4, 69959, Note_on_c, 1, 47, 0
4, 69962, Note_on_c, 1, 59, 90
4, 70078, Note_on_c, 1, 74, 0
4, 70079, Note_on_c, 1, 59, 0
4, 70201, Note_on_c, 1, 60, 90
4, 70202, Note_on_c, 1, 67, 90
4, 70318, Note_on_c, 1, 72, 90
4, 70318, Note_on_c, 1, 59, 90
4, 70320, Note_on_c, 1, 67, 0
4, 70321, Note_on_c, 1, 60, 0
4, 70437, Note_on_c, 1, 72, 0
4, 70438, Note_on_c, 1, 59, 0
4, 70438, Note_on_c, 1, 47, 90
4, 70440, Note_on_c, 1, 76, 90
4, 70532, Note_on_c, 1, 76, 0
4, 70555, Note_on_c, 1, 47, 0
4, 70679, Note_on_c, 1, 57, 90
4, 70679, Note_on_c, 1, 72, 90
4, 70797, Note_on_c, 1, 57, 0
4, 70798, Note_on_c, 1, 72, 0
4, 70799, Note_on_c, 1, 45, 90
4, 70801, Note_on_c, 1, 77, 90
4, 70801, Note_on_c, 1, 64, 90
4, 70918, Note_on_c, 1, 45, 0
4, 70918, Note_on_c, 1, 57, 90
4, 70920, Note_on_c, 1, 77, 0
4, 70922, Note_on_c, 1, 72, 90
4, 70923, Note_on_c, 1, 64, 0
4, 71037, Note_on_c, 1, 57, 0
4, 71040, Note_on_c, 1, 72, 0
4, 71159, Note_on_c, 1, 59, 90
4, 71161, Note_on_c, 1, 65, 90
4, 71278, Note_on_c, 1, 59, 0
4, 71280, Note_on_c, 1, 71, 90
4, 71281, Note_on_c, 1, 65, 0
4, 71281, Note_on_c, 1, 57, 90
4, 71399, Note_on_c, 1, 71, 0
4, 71399, Note_on_c, 1, 45, 90
4, 71401, Note_on_c, 1, 57, 0
4, 71402, Note_on_c, 1, 74, 90
4, 71519, Note_on_c, 1, 45, 0
4, 71523, Note_on_c, 1, 74, 0
4, 71638, Note_on_c, 1, 56, 90
4, 71640, Note_on_c, 1, 71, 90
4, 71756, Note_on_c, 1, 56, 0
4, 71759, Note_on_c, 1, 71, 0
4, 71761, Note_on_c, 1, 44, 90
4, 71761, Note_on_c, 1, 76, 90
4, 71762, Note_on_c, 1, 64, 90
4, 71879, Note_on_c, 1, 76, 0
4, 71880, Note_on_c, 1, 44, 0
4, 71881, Note_on_c, 1, 71, 90
4, 71882, Note_on_c, 1, 56, 90
4, 71885, Note_on_c, 1, 64, 0
4, 71998, Note_on_c, 1, 64, 90
4, 71998, Note_on_c, 1, 45, 90
4, 71998, Note_on_c, 1, 69, 90
4, 72000, Note_on_c, 1, 56, 0
4, 72000, Note_on_c, 1, 57, 90
4, 72001, Note_on_c, 1, 71, 0
4, 72001, Note_on_c, 1, 72, 90
4, 72056, Note_on_c, 1, 69, 0
4, 72060, Note_on_c, 1, 64, 0
4, 72060, Note_on_c, 1, 69, 90
4, 72062, Note_on_c, 1, 72, 0
4, 72118, Note_on_c, 1, 69, 0
4, 72118, Note_on_c, 1, 57, 0
4, 72119, Note_on_c, 1, 45, 0
4, 72120, Note_on_c, 1, 57, 90
4, 72121, Note_on_c, 1, 69, 90
4, 72122, Note_on_c, 1, 72, 90
4, 72122, Note_on_c, 1, 64, 90
4, 72179, Note_on_c, 1, 69, 0
4, 72182, Note_on_c, 1, 72, 0
4, 72182, Note_on_c, 1, 76, 90
4, 72239, Note_on_c, 1, 57, 0
4, 72241, Note_on_c, 1, 64, 0
4, 72241, Note_on_c, 1, 81, 90
4, 72241, Note_on_c, 1, 60, 90
4, 72242, Note_on_c, 1, 76, 0
4, 72358, Note_on_c, 1, 57, 90
4, 72359, Note_on_c, 1, 45, 90
4, 72360, Note_on_c, 1, 60, 0
4, 72360, Note_on_c, 1, 81, 0
4, 72360, Note_on_c, 1, 69, 90
4, 72361, Note_on_c, 1, 52, 90
4, 72361, Note_on_c, 1, 72, 90
4, 72362, Note_on_c, 1, 81, 90
4, 72476, Note_on_c, 1, 57, 0
4, 72477, Note_on_c, 1, 69, 0
4, 72478, Note_on_c, 1, 60, 90
4, 72479, Note_on_c, 1, 52, 0
4, 72479, Note_on_c, 1, 45, 0
4, 72479, Note_on_c, 1, 69, 90
4, 72480, Note_on_c, 1, 81, 0
4, 72480, Note_on_c, 1, 76, 90
4, 72481, Note_on_c, 1, 72, 0
4, 72481, Note_on_c, 1, 57, 90
4, 72482, Note_on_c, 1, 81, 90
4, 72482, Note_on_c, 1, 52, 90
4, 72542, Note_on_c, 1, 81, 0
4, 72596, Note_on_c, 1, 57, 0
4, 72597, Note_on_c, 1, 52, 0
4, 72598, Note_on_c, 1, 57, 90
4, 72599, Note_on_c, 1, 52, 90
4, 72601, Note_on_c, 1, 60, 0
4, 72601, Note_on_c, 1, 69, 0
4, 72601, Note_on_c, 1, 45, 90
4, 72601, Note_on_c, 1, 72, 90
4, 72603, Note_on_c, 1, 76, 0
4, 72659, Note_on_c, 1, 76, 90
4, 72664, Note_on_c, 1, 72, 0
4, 72718, Note_on_c, 1, 57, 0
4, 72718, Note_on_c, 1, 52, 0
4, 72720, Note_on_c, 1, 45, 0
4, 72720, Note_on_c, 1, 81, 90
4, 72721, Note_on_c, 1, 76, 0
4, 72838, Note_on_c, 1, 81, 0
4, 72840, Note_on_c, 1, 45, 90
4, 72840, Note_on_c, 1, 72, 90
4, 72841, Note_on_c, 1, 81, 90
4, 72842, Note_on_c, 1, 57, 90
4, 72842, Note_on_c, 1, 69, 90
4, 72842, Note_on_c, 1, 52, 90
4, 72957, Note_on_c, 1, 52, 0
4, 72957, Note_on_c, 1, 72, 0
4, 72957, Note_on_c, 1, 81, 0
4, 72957, Note_on_c, 1, 45, 0
4, 72957, Note_on_c, 1, 57, 0
4, 72959, Note_on_c, 1, 81, 90
4, 72959, Note_on_c, 1, 52, 90
4, 72959, Note_on_c, 1, 57, 90
4, 72960, Note_on_c, 1, 69, 0
4, 72961, Note_on_c, 1, 60, 90
4, 72962, Note_on_c, 1, 76, 90
4, 72962, Note_on_c, 1, 69, 90
4, 73016, Note_on_c, 1, 81, 0
4, 73076, Note_on_c, 1, 52, 0
4, 73077, Note_on_c, 1, 57, 0
4, 73078, Note_on_c, 1, 72, 90
4, 73079, Note_on_c, 1, 45, 90
4, 73082, Note_on_c, 1, 76, 0
4, 73082, Note_on_c, 1, 57, 90
4, 73083, Note_on_c, 1, 60, 0
4, 73084, Note_on_c, 1, 69, 0
4, 73137, Note_on_c, 1, 72, 0
4, 73138, Note_on_c, 1, 76, 90
4, 73196, Note_on_c, 1, 57, 0
4, 73198, Note_on_c, 1, 50, 90
4, 73198, Note_on_c, 1, 57, 90
4, 73198, Note_on_c, 1, 62, 90
4, 73200, Note_on_c, 1, 76, 0
4, 73201, Note_on_c, 1, 45, 0
4, 73202, Note_on_c, 1, 70, 90
4, 73202, Note_on_c, 1, 77, 90
4, 73202, Note_on_c, 1, 82, 90
4, 73316, Note_on_c, 1, 82, 0
4, 73316, Note_on_c, 1, 62, 0
4, 73317, Note_on_c, 1, 50, 0
4, 73318, Note_on_c, 1, 57, 0
4, 73318, Note_on_c, 1, 76, 90
4, 73318, Note_on_c, 1, 82, 90
4, 73319, Note_on_c, 1, 77, 0
4, 73319, Note_on_c, 1, 61, 90
4, 73319, Note_on_c, 1, 49, 90
4, 73321, Note_on_c, 1, 70, 0
4, 73436, Note_on_c, 1, 82, 0
4, 73438, Note_on_c, 1, 49, 0
4, 73439, Note_on_c, 1, 76, 0
4, 73439, Note_on_c, 1, 57, 90
4, 73440, Note_on_c, 1, 70, 90
4, 73440, Note_on_c, 1, 62, 90
4, 73440, Note_on_c, 1, 77, 90
4, 73440, Note_on_c, 1, 50, 90
4, 73442, Note_on_c, 1, 61, 0
4, 73442, Note_on_c, 1, 82, 90
4, 73558, Note_on_c, 1, 70, 0
4, 73558, Note_on_c, 1, 50, 0
4, 73558, Note_on_c, 1, 64, 90
4, 73558, Note_on_c, 1, 52, 90
4, 73558, Note_on_c, 1, 81, 90
4, 73559, Note_on_c, 1, 72, 90
4, 73560, Note_on_c, 1, 62, 0
4, 73560, Note_on_c, 1, 77, 0
4, 73560, Note_on_c, 1, 57, 0
4, 73565, Note_on_c, 1, 82, 0
4, 73618, Note_on_c, 1, 81, 0
4, 73618, Note_on_c, 1, 80, 90
4, 73676, Note_on_c, 1, 64, 0
4, 73677, Note_on_c, 1, 52, 0
4, 73678, Note_on_c, 1, 74, 90
4, 73679, Note_on_c, 1, 80, 0
4, 73679, Note_on_c, 1, 81, 90
4, 73680, Note_on_c, 1, 72, 0
4, 73680, Note_on_c, 1, 53, 90
4, 73682, Note_on_c, 1, 64, 90
4, 73797, Note_on_c, 1, 53, 0
4, 73798, Note_on_c, 1, 74, 0
4, 73798, Note_on_c, 1, 83, 90
4, 73800, Note_on_c, 1, 81, 0
4, 73800, Note_on_c, 1, 64, 0
4, 73800, Note_on_c, 1, 71, 90
4, 73801, Note_on_c, 1, 50, 90
4, 73801, Note_on_c, 1, 77, 90
4, 73801, Note_on_c, 1, 64, 90
4, 73802, Note_on_c, 1, 57, 90
4, 73915, Note_on_c, 1, 83, 0
4, 73918, Note_on_c, 1, 77, 0
4, 73919, Note_on_c, 1, 50, 0
4, 73919, Note_on_c, 1, 71, 0
4, 73919, Note_on_c, 1, 57, 0
4, 73919, Note_on_c, 1, 62, 90
4, 73920, Note_on_c, 1, 64, 0
4, 73920, Note_on_c, 1, 47, 90
4, 73920, Note_on_c, 1, 74, 90
4, 73921, Note_on_c, 1, 68, 90
4, 73922, Note_on_c, 1, 59, 90
4, 74039, Note_on_c, 1, 45, 90
4, 74041, Note_on_c, 1, 57, 90
4, 74043, Note_on_c, 1, 47, 0
4, 74044, Note_on_c, 1, 59, 0
4, 74098, Note_on_c, 1, 56, 90
4, 74099, Note_on_c, 1, 45, 0
4, 74100, Note_on_c, 1, 57, 0
4, 74101, Note_on_c, 1, 44, 90
4, 74158, Note_on_c, 1, 45, 90
4, 74159, Note_on_c, 1, 56, 0
4, 74160, Note_on_c, 1, 44, 0
4, 74160, Note_on_c, 1, 57, 90
4, 74276, Note_on_c, 1, 45, 0
4, 74280, Note_on_c, 1, 59, 90
4, 74282, Note_on_c, 1, 57, 0
4, 74282, Note_on_c, 1, 47, 90
4, 74398, Note_on_c, 1, 59, 0
4, 74399, Note_on_c, 1, 52, 90
4, 74400, Note_on_c, 1, 40, 90
4, 74402, Note_on_c, 1, 47, 0
4, 74458, Note_on_c, 1, 68, 0
4, 74460, Note_on_c, 1, 62, 0
4, 74461, Note_on_c, 1, 64, 90
4, 74463, Note_on_c, 1, 74, 0
4, 74516, Note_on_c, 1, 64, 0
4, 74518, Note_on_c, 1, 64, 90
4, 74522, Note_on_c, 1, 68, 90
4, 74580, Note_on_c, 1, 64, 0
4, 74580, Note_on_c, 1, 71, 90
4, 74582, Note_on_c, 1, 68, 0
4, 74637, Note_on_c, 1, 71, 0
4, 74638, Note_on_c, 1, 64, 90
4, 74639, Note_on_c, 1, 68, 90
4, 74642, Note_on_c, 1, 74, 90
4, 74698, Note_on_c, 1, 52, 0
4, 74701, Note_on_c, 1, 40, 0
4, 74702, Note_on_c, 1, 52, 90
4, 74756, Note_on_c, 1, 64, 0
4, 74757, Note_on_c, 1, 74, 0
4, 74757, Note_on_c, 1, 68, 0
4, 74758, Note_on_c, 1, 64, 90
4, 74759, Note_on_c, 1, 74, 90
4, 74760, Note_on_c, 1, 56, 90
4, 74760, Note_on_c, 1, 68, 90
4, 74763, Note_on_c, 1, 52, 0
4, 74820, Note_on_c, 1, 59, 90
4, 74823, Note_on_c, 1, 56, 0
4, 74876, Note_on_c, 1, 64, 0
4, 74877, Note_on_c, 1, 74, 0
4, 74878, Note_on_c, 1, 68, 0
4, 74879, Note_on_c, 1, 59, 0
4, 74879, Note_on_c, 1, 68, 90
4, 74879, Note_on_c, 1, 64, 90
4, 74879, Note_on_c, 1, 52, 90
4, 74880, Note_on_c, 1, 40, 90
4, 74881, Note_on_c, 1, 74, 90
4, 74937, Note_on_c, 1, 64, 0
4, 74937, Note_on_c, 1, 68, 0
4, 74941, Note_on_c, 1, 64, 90
4, 74943, Note_on_c, 1, 74, 0
4, 74999, Note_on_c, 1, 68, 90
4, 75000, Note_on_c, 1, 64, 0
4, 75001, Note_on_c, 1, 64, 90
4, 75058, Note_on_c, 1, 71, 90
4, 75059, Note_on_c, 1, 68, 0
4, 75064, Note_on_c, 1, 64, 0
4, 75120, Note_on_c, 1, 71, 0
4, 75121, Note_on_c, 1, 74, 90
4, 75121, Note_on_c, 1, 68, 90
4, 75122, Note_on_c, 1, 64, 90
4, 75177, Note_on_c, 1, 52, 0
4, 75180, Note_on_c, 1, 52, 90
4, 75181, Note_on_c, 1, 40, 0
4, 75237, Note_on_c, 1, 64, 0
4, 75239, Note_on_c, 1, 74, 0
4, 75239, Note_on_c, 1, 64, 90
4, 75240, Note_on_c, 1, 74, 90
4, 75240, Note_on_c, 1, 56, 90
4, 75241, Note_on_c, 1, 68, 0
4, 75241, Note_on_c, 1, 52, 0
4, 75241, Note_on_c, 1, 71, 90
4, 75299, Note_on_c, 1, 59, 90
4, 75301, Note_on_c, 1, 56, 0
4, 75356, Note_on_c, 1, 74, 0
4, 75358, Note_on_c, 1, 59, 0
4, 75358, Note_on_c, 1, 64, 0
4, 75358, Note_on_c, 1, 74, 90
4, 75360, Note_on_c, 1, 64, 90
4, 75360, Note_on_c, 1, 52, 90
4, 75361, Note_on_c, 1, 40, 90
4, 75361, Note_on_c, 1, 68, 90
4, 75362, Note_on_c, 1, 71, 0
4, 75416, Note_on_c, 1, 64, 0
4, 75418, Note_on_c, 1, 74, 0
4, 75418, Note_on_c, 1, 64, 90
4, 75422, Note_on_c, 1, 68, 0
4, 75476, Note_on_c, 1, 64, 0
4, 75478, Note_on_c, 1, 64, 90
4, 75481, Note_on_c, 1, 68, 90
4, 75535, Note_on_c, 1, 64, 0
4, 75539, Note_on_c, 1, 68, 0
4, 75540, Note_on_c, 1, 71, 90
4, 75599, Note_on_c, 1, 71, 0
4, 75599, Note_on_c, 1, 68, 90
4, 75601, Note_on_c, 1, 64, 90
4, 75602, Note_on_c, 1, 74, 90
4, 75658, Note_on_c, 1, 59, 90
4, 75661, Note_on_c, 1, 52, 0
4, 75664, Note_on_c, 1, 40, 0
4, 75716, Note_on_c, 1, 64, 0
4, 75718, Note_on_c, 1, 59, 0
4, 75718, Note_on_c, 1, 55, 90
4, 75718, Note_on_c, 1, 64, 90
4, 75719, Note_on_c, 1, 76, 90
4, 75721, Note_on_c, 1, 74, 0
4, 75721, Note_on_c, 1, 71, 90
4, 75722, Note_on_c, 1, 68, 0
4, 75778, Note_on_c, 1, 55, 0
4, 75780, Note_on_c, 1, 52, 90
4, 75836, Note_on_c, 1, 64, 0
4, 75837, Note_on_c, 1, 76, 0
4, 75838, Note_on_c, 1, 71, 0
4, 75838, Note_on_c, 1, 72, 90
4, 75840, Note_on_c, 1, 64, 90
4, 75840, Note_on_c, 1, 69, 90
4, 75842, Note_on_c, 1, 45, 90
4, 75842, Note_on_c, 1, 57, 90
4, 75843, Note_on_c, 1, 52, 0
4, 75958, Note_on_c, 1, 69, 0
4, 75958, Note_on_c, 1, 64, 0
4, 75958, Note_on_c, 1, 60, 90
4, 75958, Note_on_c, 1, 48, 90
4, 75959, Note_on_c, 1, 69, 90
4, 75959, Note_on_c, 1, 71, 90
4, 75960, Note_on_c, 1, 72, 0
4, 75960, Note_on_c, 1, 45, 0
4, 75960, Note_on_c, 1, 64, 90
4, 75963, Note_on_c, 1, 57, 0
4, 76019, Note_on_c, 1, 71, 0
4, 76077, Note_on_c, 1, 69, 0
4, 76078, Note_on_c, 1, 64, 0
4, 76078, Note_on_c, 1, 62, 90
4, 76080, Note_on_c, 1, 60, 0
4, 76080, Note_on_c, 1, 48, 0
4, 76080, Note_on_c, 1, 65, 90
4, 76080, Note_on_c, 1, 50, 90
4, 76081, Note_on_c, 1, 69, 90
4, 76082, Note_on_c, 1, 77, 90
4, 76195, Note_on_c, 1, 62, 0
4, 76199, Note_on_c, 1, 77, 0
4, 76200, Note_on_c, 1, 47, 90
4, 76200, Note_on_c, 1, 59, 90
4, 76201, Note_on_c, 1, 76, 90
4, 76201, Note_on_c, 1, 68, 90
4, 76202, Note_on_c, 1, 65, 0
4, 76202, Note_on_c, 1, 62, 90
4, 76203, Note_on_c, 1, 50, 0
4, 76204, Note_on_c, 1, 69, 0
4, 76258, Note_on_c, 1, 74, 90
4, 76260, Note_on_c, 1, 76, 0
4, 76317, Note_on_c, 1, 47, 0
4, 76318, Note_on_c, 1, 64, 90
4, 76319, Note_on_c, 1, 69, 90
4, 76320, Note_on_c, 1, 68, 0
4, 76320, Note_on_c, 1, 48, 90
4, 76321, Note_on_c, 1, 74, 0
4, 76321, Note_on_c, 1, 76, 90
4, 76321, Note_on_c, 1, 60, 90
4, 76322, Note_on_c, 1, 59, 0
4, 76323, Note_on_c, 1, 62, 0
4, 76437, Note_on_c, 1, 69, 0
4, 76437, Note_on_c, 1, 64, 0
4, 76438, Note_on_c, 1, 48, 0
4, 76439, Note_on_c, 1, 77, 90
4, 76440, Note_on_c, 1, 50, 90
4, 76441, Note_on_c, 1, 81, 90
4, 76442, Note_on_c, 1, 69, 90
4, 76442, Note_on_c, 1, 62, 90
4, 76443, Note_on_c, 1, 60, 0
4, 76443, Note_on_c, 1, 76, 0
4, 76558, Note_on_c, 1, 59, 90
4, 76559, Note_on_c, 1, 57, 90
4, 76560, Note_on_c, 1, 50, 0
4, 76560, Note_on_c, 1, 64, 90
4, 76560, Note_on_c, 1, 52, 90
4, 76561, Note_on_c, 1, 77, 0
4, 76562, Note_on_c, 1, 81, 0
4, 76563, Note_on_c, 1, 69, 0
4, 76564, Note_on_c, 1, 62, 0
4, 76676, Note_on_c, 1, 52, 0
4, 76678, Note_on_c, 1, 68, 90
4, 76678, Note_on_c, 1, 52, 90
4, 76679, Note_on_c, 1, 64, 0
4, 76679, Note_on_c, 1, 71, 90
4, 76680, Note_on_c, 1, 59, 0
4, 76680, Note_on_c, 1, 40, 90
4, 76680, Note_on_c, 1, 76, 90
4, 76681, Note_on_c, 1, 57, 0
4, 76681, Note_on_c, 1, 80, 90
4, 76798, Note_on_c, 1, 71, 0
4, 76798, Note_on_c, 1, 76, 0
4, 76800, Note_on_c, 1, 40, 0
4, 76800, Note_on_c, 1, 52, 0
4, 76801, Note_on_c, 1, 68, 0
4, 76801, Note_on_c, 1, 33, 90
4, 76801, Note_on_c, 1, 69, 90
4, 76801, Note_on_c, 1, 81, 90
4, 76802, Note_on_c, 1, 76, 90
4, 76802, Note_on_c, 1, 72, 90
4, 76802, Note_on_c, 1, 45, 90
4, 76804, Note_on_c, 1, 80, 0
4, 77760, Note_on_c, 1, 69, 0
4, 77760, MIDI_port, 0
4, 77760, System_exclusive, 10, 65, 16, 66, 18, 64, 1, 48, 3, 12, 247
4, 77760, MIDI_port, 0
4, 77761, Note_on_c, 1, 81, 0
4, 77762, Note_on_c, 1, 33, 0
4, 77764, Note_on_c, 1, 72, 0
4, 77765, Note_on_c, 1, 45, 0
4, 77765, Note_on_c, 1, 76, 0
4, 78718, Control_c, 1, 91, 127
4, 78719, Control_c, 1, 93, 60
4, 78720, Note_on_c, 1, 74, 90
4, 78720, Note_on_c, 1, 77, 90
4, 78720, Note_on_c, 1, 81, 90
4, 78721, Note_on_c, 1, 62, 90
4, 79195, Note_on_c, 1, 74, 0
4, 79196, Note_on_c, 1, 62, 0
4, 79198, Note_on_c, 1, 77, 0
4, 79199, Note_on_c, 1, 76, 90
4, 79199, Note_on_c, 1, 69, 90
4, 79201, Note_on_c, 1, 73, 90
4, 79678, Note_on_c, 1, 76, 0
4, 79680, Note_on_c, 1, 76, 90
4, 80154, Note_on_c, 1, 69, 0
4, 80156, Note_on_c, 1, 76, 0
4, 80157, Note_on_c, 1, 73, 0
4, 80158, Note_on_c, 1, 77, 90
4, 80160, Note_on_c, 1, 74, 90
4, 80637, Note_on_c, 1, 81, 0
4, 80640, Note_on_c, 1, 82, 90
4, 81113, Note_on_c, 1, 77, 0
4, 81116, Note_on_c, 1, 74, 0
4, 81119, Note_on_c, 1, 76, 90
4, 81121, Note_on_c, 1, 79, 90
4, 81121, Note_on_c, 1, 73, 90
4, 81596, Note_on_c, 1, 73, 0
4, 81596, Note_on_c, 1, 79, 0
4, 81600, Note_on_c, 1, 81, 90
4, 81601, Note_on_c, 1, 82, 0
4, 81602, Note_on_c, 1, 72, 90
4, 82074, Note_on_c, 1, 76, 0
4, 82078, Note_on_c, 1, 71, 90
4, 82080, Note_on_c, 1, 77, 90
4, 82080, Note_on_c, 1, 74, 90
4, 82083, Note_on_c, 1, 72, 0
4, 82556, Note_on_c, 1, 71, 0
4, 82559, Note_on_c, 1, 70, 90
4, 82560, Note_on_c, 1, 79, 90
4, 82561, Note_on_c, 1, 81, 0
4, 82561, Note_on_c, 1, 77, 0
4, 82917, Note_on_c, 1, 74, 0
4, 82922, Note_on_c, 1, 74, 90
4, 83038, Note_on_c, 1, 69, 90
4, 83039, Note_on_c, 1, 70, 0
4, 83040, Note_on_c, 1, 76, 90
4, 83040, Note_on_c, 1, 73, 90
4, 83042, Note_on_c, 1, 74, 0
4, 83275, Note_on_c, 1, 69, 0
4, 83276, Note_on_c, 1, 76, 0
4, 83281, Note_on_c, 1, 57, 90
4, 83516, Note_on_c, 1, 57, 0
4, 83518, Note_on_c, 1, 79, 0
4, 83519, Note_on_c, 1, 73, 0
4, 83519, Note_on_c, 1, 77, 90
4, 83521, Note_on_c, 1, 74, 90
4, 83522, Note_on_c, 1, 69, 90
4, 83522, Note_on_c, 1, 62, 90
4, 83639, Note_on_c, 1, 74, 0
4, 83755, Note_on_c, 1, 77, 0
4, 83759, Note_on_c, 1, 69, 0
4, 83763, Note_on_c, 1, 62, 0
4, 83881, Note_on_c, 1, 73, 90
4, 83881, Note_on_c, 1, 69, 90
4, 83882, Note_on_c, 1, 57, 90
4, 83882, Note_on_c, 1, 76, 90
4, 83997, Note_on_c, 1, 69, 0
4, 84000, Note_on_c, 1, 73, 0
4, 84001, Note_on_c, 1, 57, 0
4, 84001, Note_on_c, 1, 62, 90
4, 84002, Note_on_c, 1, 74, 90
4, 84002, Note_on_c, 1, 69, 90
4, 84002, Note_on_c, 1, 77, 90
4, 84003, Note_on_c, 1, 76, 0
4, 84477, Note_on_c, 1, 74, 0
4, 84478, Note_on_c, 1, 74, 90
4, 84479, Note_on_c, 1, 62, 0
4, 84479, Note_on_c, 1, 76, 90
4, 84480, Note_on_c, 1, 56, 90
4, 84480, Note_on_c, 1, 71, 90
4, 84483, Note_on_c, 1, 69, 0
4, 84483, Note_on_c, 1, 77, 0
4, 84834, Note_on_c, 1, 76, 0
4, 84837, Note_on_c, 1, 74, 0
4, 84838, Note_on_c, 1, 71, 0
4, 84838, Note_on_c, 1, 76, 90
4, 84838, Note_on_c, 1, 74, 90
4, 84839, Note_on_c, 1, 56, 0
4, 84840, Note_on_c, 1, 71, 90
4, 84842, Note_on_c, 1, 56, 90
4, 84953, Note_on_c, 1, 74, 0
4, 84955, Note_on_c, 1, 76, 0
4, 84957, Note_on_c, 1, 71, 0
4, 84958, Note_on_c, 1, 56, 0
4, 84958, Note_on_c, 1, 72, 90
4, 84958, Note_on_c, 1, 76, 90
4, 84961, Note_on_c, 1, 57, 90
4, 84961, Note_on_c, 1, 62, 90
4, 85073, Note_on_c, 1, 76, 0
4, 85076, Note_on_c, 1, 57, 0
4, 85077, Note_on_c, 1, 62, 0
4, 85078, Note_on_c, 1, 72, 0
4, 85078, Note_on_c, 1, 74, 90
4, 85079, Note_on_c, 1, 62, 90
4, 85081, Note_on_c, 1, 65, 90
4, 85082, Note_on_c, 1, 71, 90
4, 85138, Note_on_c, 1, 74, 0
4, 85138, Note_on_c, 1, 72, 90
4, 85138, Note_on_c, 1, 69, 90
4, 85140, Note_on_c, 1, 65, 0
4, 85141, Note_on_c, 1, 71, 0
4, 85196, Note_on_c, 1, 69, 0
4, 85197, Note_on_c, 1, 72, 0
4, 85198, Note_on_c, 1, 68, 90
4, 85199, Note_on_c, 1, 62, 0
4, 85199, Note_on_c, 1, 64, 90
4, 85202, Note_on_c, 1, 71, 90
4, 85314, Note_on_c, 1, 64, 0
4, 85318, Note_on_c, 1, 64, 90
4, 85321, Note_on_c, 1, 52, 90
4, 85377, Note_on_c, 1, 68, 0
4, 85381, Note_on_c, 1, 72, 90
4, 85382, Note_on_c, 1, 71, 0
4, 85382, Note_on_c, 1, 69, 90
4, 85433, Note_on_c, 1, 64, 0
4, 85437, Note_on_c, 1, 72, 0
4, 85438, Note_on_c, 1, 69, 0
4, 85438, Note_on_c, 1, 64, 90
4, 85439, Note_on_c, 1, 57, 90
4, 85439, Note_on_c, 1, 72, 90
4, 85440, Note_on_c, 1, 69, 90
4, 85441, Note_on_c, 1, 52, 0
4, 85677, Note_on_c, 1, 72, 0
4, 85681, Note_on_c, 1, 73, 90
4, 85800, Note_on_c, 1, 57, 0
4, 85801, Note_on_c, 1, 55, 90
4, 85913, Note_on_c, 1, 64, 0
4, 85916, Note_on_c, 1, 73, 0
4, 85917, Note_on_c, 1, 55, 0
4, 85918, Note_on_c, 1, 74, 90
4, 85918, Note_on_c, 1, 53, 90
4, 85922, Note_on_c, 1, 65, 90
4, 86157, Note_on_c, 1, 53, 0
4, 86161, Note_on_c, 1, 66, 90
4, 86163, Note_on_c, 1, 65, 0
4, 86398, Note_on_c, 1, 66, 0
4, 86399, Note_on_c, 1, 69, 0
4, 86400, Note_on_c, 1, 70, 90
4, 86402, Note_on_c, 1, 67, 90
4, 86874, Note_on_c, 1, 74, 0
4, 86879, Note_on_c, 1, 67, 0
4, 86879, Note_on_c, 1, 68, 90
4, 86880, Note_on_c, 1, 76, 90
4, 87355, Note_on_c, 1, 68, 0
4, 87359, Note_on_c, 1, 73, 90
4, 87361, Note_on_c, 1, 70, 0
4, 87361, Note_on_c, 1, 69, 90
4, 87835, Note_on_c, 1, 73, 0
4, 87839, Note_on_c, 1, 76, 0
4, 87840, Note_on_c, 1, 72, 90
4, 87841, Note_on_c, 1, 77, 90
4, 88317, Note_on_c, 1, 69, 0
4, 88318, Note_on_c, 1, 70, 90
4, 88321, Note_on_c, 1, 72, 0
4, 88322, Note_on_c, 1, 74, 90
4, 88796, Note_on_c, 1, 77, 0
4, 88798, Note_on_c, 1, 58, 90
4, 88799, Note_on_c, 1, 70, 0
4, 88801, Note_on_c, 1, 79, 90
4, 89278, Note_on_c, 1, 58, 0
4, 89280, Note_on_c, 1, 74, 0
4, 89280, Note_on_c, 1, 76, 90
4, 89281, Note_on_c, 1, 57, 90
4, 89282, Note_on_c, 1, 73, 90
4, 89396, Note_on_c, 1, 76, 0
4, 89396, Note_on_c, 1, 79, 0
4, 89401, Note_on_c, 1, 74, 90
4, 89401, Note_on_c, 1, 77, 90
4, 89401, Note_on_c, 1, 69, 90
4, 89402, Note_on_c, 1, 57, 0
4, 89402, Note_on_c, 1, 73, 0
4, 89402, Note_on_c, 1, 62, 90
4, 89517, Note_on_c, 1, 62, 0
4, 89517, Note_on_c, 1, 74, 0
4, 89519, Note_on_c, 1, 69, 0
4, 89519, Note_on_c, 1, 76, 90
4, 89520, Note_on_c, 1, 69, 90
4, 89521, Note_on_c, 1, 73, 90
4, 89522, Note_on_c, 1, 77, 0
4, 89637, Note_on_c, 1, 69, 0
4, 89639, Note_on_c, 1, 57, 90
4, 89640, Note_on_c, 1, 69, 90
4, 89694, Note_on_c, 1, 76, 0
4, 89699, Note_on_c, 1, 77, 90
4, 89701, Note_on_c, 1, 73, 0
4, 89701, Note_on_c, 1, 74, 90
4, 89755, Note_on_c, 1, 77, 0
4, 89756, Note_on_c, 1, 74, 0
4, 89756, Note_on_c, 1, 57, 0
4, 89760, Note_on_c, 1, 62, 90
4, 89760, Note_on_c, 1, 74, 90
4, 89761, Note_on_c, 1, 69, 0
4, 89762, Note_on_c, 1, 77, 90
4, 89996, Note_on_c, 1, 74, 0
4, 89996, Note_on_c, 1, 62, 0
4, 89998, Note_on_c, 1, 77, 0
4, 91080, Note_on_c, 1, 81, 90
4, 91081, Note_on_c, 1, 61, 90
4, 91081, Note_on_c, 1, 69, 90
4, 91081, Note_on_c, 1, 76, 90
4, 91141, Note_on_c, 1, 79, 90
4, 91142, Note_on_c, 1, 81, 0
4, 91199, Note_on_c, 1, 74, 90
4, 91200, Note_on_c, 1, 61, 0
4, 91200, Note_on_c, 1, 69, 0
4, 91201, Note_on_c, 1, 79, 0
4, 91201, Note_on_c, 1, 62, 90
4, 91201, Note_on_c, 1, 77, 90
4, 91202, Note_on_c, 1, 76, 0
4, 91202, Note_on_c, 1, 69, 90
4, 91319, Note_on_c, 1, 77, 0
4, 91320, Note_on_c, 1, 74, 0
4, 91320, Note_on_c, 1, 62, 0
4, 91320, Note_on_c, 1, 55, 90
4, 91321, Note_on_c, 1, 69, 0
4, 91322, Note_on_c, 1, 76, 90
4, 91322, Note_on_c, 1, 70, 90
4, 91380, Note_on_c, 1, 74, 90
4, 91380, Note_on_c, 1, 77, 90
4, 91385, Note_on_c, 1, 76, 0
4, 91438, Note_on_c, 1, 77, 0
4, 91438, Note_on_c, 1, 70, 0
4, 91438, Note_on_c, 1, 64, 90
4, 91439, Note_on_c, 1, 55, 0
4, 91440, Note_on_c, 1, 57, 90
4, 91442, Note_on_c, 1, 74, 0
4, 91442, Note_on_c, 1, 76, 90
4, 91442, Note_on_c, 1, 73, 90
4, 91557, Note_on_c, 1, 64, 0
4, 91559, Note_on_c, 1, 69, 90
4, 91619, Note_on_c, 1, 74, 90
4, 91620, Note_on_c, 1, 76, 0
4, 91623, Note_on_c, 1, 73, 0
4, 91675, Note_on_c, 1, 74, 0
4, 91677, Note_on_c, 1, 57, 0
4, 91677, Note_on_c, 1, 69, 0
4, 91681, Note_on_c, 1, 62, 90
4, 91681, Note_on_c, 1, 74, 90
4, 91682, Note_on_c, 1, 65, 90
4, 92396, Note_on_c, 1, 74, 0
4, 92398, Note_on_c, 1, 62, 0
4, 92399, Note_on_c, 1, 65, 0
4, 92399, MIDI_port, 0
4, 92402, System_exclusive, 10, 65, 16, 66, 18, 64, 1, 48, 4, 11, 247
4, 92402, MIDI_port, 0
4, 92410, Control_c, 1, 91, 40
4, 92411, Control_c, 1, 93, 0
4, 94080, Note_on_c, 1, 33, 90
4, 94080, Note_on_c, 1, 45, 90
4, 94080, Note_on_c, 1, 60, 90
4, 94080, Note_on_c, 1, 69, 90
4, 94081, Note_on_c, 1, 64, 90
4, 94199, Note_on_c, 1, 76, 90
4, 94316, Note_on_c, 1, 76, 0
4, 94316, Note_on_c, 1, 60, 0
4, 94317, Note_on_c, 1, 33, 0
4, 94318, Note_on_c, 1, 45, 0
4, 94318, Note_on_c, 1, 69, 0
4, 94319, Note_on_c, 1, 64, 0
4, 94321, Note_on_c, 1, 81, 90
4, 94439, Note_on_c, 1, 81, 0
4, 94440, Note_on_c, 1, 76, 90
4, 94440, Note_on_c, 1, 83, 90
4, 94442, Note_on_c, 1, 44, 90
4, 94559, Note_on_c, 1, 44, 0
4, 94561, Note_on_c, 1, 83, 0
4, 94561, Note_on_c, 1, 76, 0
4, 94561, Note_on_c, 1, 45, 90
4, 94562, Note_on_c, 1, 76, 90
4, 94562, Note_on_c, 1, 84, 90
4, 94677, Note_on_c, 1, 84, 0
4, 94677, Note_on_c, 1, 76, 0
4, 94679, Note_on_c, 1, 50, 90
4, 94680, Note_on_c, 1, 45, 0
4, 94681, Note_on_c, 1, 77, 90
4, 94796, Note_on_c, 1, 77, 0
4, 94799, Note_on_c, 1, 50, 0
4, 94801, Note_on_c, 1, 83, 90
4, 94802, Note_on_c, 1, 76, 90
4, 94802, Note_on_c, 1, 52, 90
4, 94802, Note_on_c, 1, 80, 90
4, 94918, Note_on_c, 1, 83, 0
4, 94918, Note_on_c, 1, 40, 90
4, 94919, Note_on_c, 1, 80, 0
4, 94919, Note_on_c, 1, 52, 0
4, 94921, Note_on_c, 1, 74, 90
4, 94923, Note_on_c, 1, 76, 0
4, 95037, Note_on_c, 1, 40, 0
4, 95040, Note_on_c, 1, 76, 90
4, 95041, Note_on_c, 1, 74, 0
4, 95041, Note_on_c, 1, 57, 90
4, 95041, Note_on_c, 1, 72, 90
4, 95042, Note_on_c, 1, 81, 90
4, 95158, Note_on_c, 1, 72, 0
4, 95158, Note_on_c, 1, 76, 0
4, 95159, Note_on_c, 1, 57, 0
4, 95161, Note_on_c, 1, 59, 90
4, 95162, Note_on_c, 1, 74, 90
4, 95279, Note_on_c, 1, 59, 0
4, 95280, Note_on_c, 1, 60, 90
4, 95281, Note_on_c, 1, 81, 0
4, 95281, Note_on_c, 1, 76, 90
4, 95283, Note_on_c, 1, 74, 0
4, 95397, Note_on_c, 1, 60, 0
4, 95399, Note_on_c, 1, 76, 0
4, 95399, Note_on_c, 1, 57, 90
4, 95399, Note_on_c, 1, 72, 90
4, 95400, Note_on_c, 1, 81, 90
4, 95515, Note_on_c, 1, 81, 0
4, 95516, Note_on_c, 1, 57, 0
4, 95518, Note_on_c, 1, 79, 90
4, 95520, Note_on_c, 1, 72, 0
4, 95520, Note_on_c, 1, 59, 90
4, 95521, Note_on_c, 1, 74, 90
4, 95635, Note_on_c, 1, 79, 0
4, 95642, Note_on_c, 1, 77, 90
4, 95757, Note_on_c, 1, 59, 0
4, 95758, Note_on_c, 1, 71, 90
4, 95760, Note_on_c, 1, 64, 90
4, 95761, Note_on_c, 1, 74, 0
4, 95761, Note_on_c, 1, 76, 90
4, 95762, Note_on_c, 1, 56, 90
4, 95763, Note_on_c, 1, 77, 0
4, 95877, Note_on_c, 1, 76, 0
4, 95882, Note_on_c, 1, 74, 90
4, 95993, Note_on_c, 1, 71, 0
4, 95997, Note_on_c, 1, 74, 0
4, 95998, Note_on_c, 1, 64, 0
4, 96000, Note_on_c, 1, 56, 0
4, 96000, Note_on_c, 1, 64, 90
4, 96002, Note_on_c, 1, 72, 90
4, 96002, Note_on_c, 1, 57, 90
4, 96119, Note_on_c, 1, 72, 0
4, 96122, Note_on_c, 1, 71, 90
4, 96237, Note_on_c, 1, 64, 0
4, 96238, Note_on_c, 1, 57, 0
4, 96238, Note_on_c, 1, 69, 90
4, 96243, Note_on_c, 1, 71, 0
4, 96353, Note_on_c, 1, 69, 0
4, 96359, Note_on_c, 1, 64, 90
4, 96360, Note_on_c, 1, 68, 90
4, 96360, Note_on_c, 1, 71, 90
4, 96361, Note_on_c, 1, 52, 90
4, 96478, Note_on_c, 1, 52, 0
4, 96479, Note_on_c, 1, 64, 0
4, 96479, Note_on_c, 1, 57, 90
4, 96480, Note_on_c, 1, 68, 0
4, 96480, Note_on_c, 1, 64, 90
4, 96481, Note_on_c, 1, 71, 0
4, 96481, Note_on_c, 1, 45, 90
4, 96482, Note_on_c, 1, 69, 90
4, 96482, Note_on_c, 1, 74, 90
4, 96595, Note_on_c, 1, 57, 0
4, 96598, Note_on_c, 1, 45, 0
4, 96599, Note_on_c, 1, 64, 0
4, 96602, Note_on_c, 1, 74, 0
4, 96602, Note_on_c, 1, 69, 0
4, 96718, Note_on_c, 1, 53, 90
4, 96718, Note_on_c, 1, 69, 90
4, 96720, Note_on_c, 1, 62, 90
4, 96720, Note_on_c, 1, 41, 90
4, 96722, Note_on_c, 1, 74, 90
4, 96833, Note_on_c, 1, 69, 0
4, 96833, Note_on_c, 1, 53, 0
4, 96837, Note_on_c, 1, 74, 0
4, 96838, Note_on_c, 1, 62, 0
4, 96840, Note_on_c, 1, 41, 0
4, 96958, Note_on_c, 1, 68, 90
4, 96959, Note_on_c, 1, 76, 90
4, 96960, Note_on_c, 1, 64, 90
4, 96961, Note_on_c, 1, 40, 90
4, 96962, Note_on_c, 1, 52, 90
4, 97073, Note_on_c, 1, 68, 0
4, 97076, Note_on_c, 1, 40, 0
4, 97077, Note_on_c, 1, 64, 0
4, 97078, Note_on_c, 1, 52, 0
4, 97078, Note_on_c, 1, 42, 90
4, 97079, Note_on_c, 1, 54, 90
4, 97080, Note_on_c, 1, 64, 90
4, 97080, Note_on_c, 1, 69, 90
4, 97194, Note_on_c, 1, 54, 0
4, 97197, Note_on_c, 1, 64, 0
4, 97198, Note_on_c, 1, 76, 0
4, 97198, Note_on_c, 1, 42, 0
4, 97198, Note_on_c, 1, 44, 90
4, 97200, Note_on_c, 1, 69, 0
4, 97201, Note_on_c, 1, 64, 90
4, 97201, Note_on_c, 1, 71, 90
4, 97202, Note_on_c, 1, 56, 90
4, 97316, Note_on_c, 1, 64, 0
4, 97317, Note_on_c, 1, 44, 0
4, 97318, Note_on_c, 1, 71, 0
4, 97318, Note_on_c, 1, 52, 90
4, 97318, Note_on_c, 1, 64, 90
4, 97319, Note_on_c, 1, 68, 90
4, 97320, Note_on_c, 1, 40, 90
4, 97322, Note_on_c, 1, 56, 0
4, 97436, Note_on_c, 1, 64, 0
4, 97438, Note_on_c, 1, 64, 90
4, 97439, Note_on_c, 1, 52, 0
4, 97440, Note_on_c, 1, 68, 0
4, 97440, Note_on_c, 1, 40, 0
4, 97440, Note_on_c, 1, 45, 90
4, 97441, Note_on_c, 1, 33, 90
4, 97441, Note_on_c, 1, 69, 90
4, 97442, Note_on_c, 1, 60, 90
4, 97561, Note_on_c, 1, 76, 90
4, 97676, Note_on_c, 1, 33, 0
4, 97679, Note_on_c, 1, 64, 0
4, 97679, Note_on_c, 1, 81, 90
4, 97680, Note_on_c, 1, 45, 0
4, 97680, Note_on_c, 1, 60, 0
4, 97682, Note_on_c, 1, 69, 0
4, 97682, Note_on_c, 1, 76, 0
4, 97798, Note_on_c, 1, 81, 0
4, 97799, Note_on_c, 1, 44, 90
4, 97800, Note_on_c, 1, 76, 90
4, 97802, Note_on_c, 1, 83, 90
4, 97919, Note_on_c, 1, 83, 0
4, 97919, Note_on_c, 1, 84, 90
4, 97920, Note_on_c, 1, 44, 0
4, 97920, Note_on_c, 1, 45, 90
4, 97921, Note_on_c, 1, 76, 0
4, 97922, Note_on_c, 1, 76, 90
4, 98036, Note_on_c, 1, 84, 0
4, 98040, Note_on_c, 1, 45, 0
4, 98041, Note_on_c, 1, 50, 90
4, 98041, Note_on_c, 1, 77, 90
4, 98043, Note_on_c, 1, 76, 0
4, 98158, Note_on_c, 1, 50, 0
4, 98159, Note_on_c, 1, 80, 90
4, 98160, Note_on_c, 1, 77, 0
4, 98161, Note_on_c, 1, 83, 90
4, 98161, Note_on_c, 1, 76, 90
4, 98162, Note_on_c, 1, 52, 90
4, 98275, Note_on_c, 1, 80, 0
4, 98277, Note_on_c, 1, 52, 0
4, 98278, Note_on_c, 1, 74, 90
4, 98278, Note_on_c, 1, 40, 90
4, 98279, Note_on_c, 1, 83, 0
4, 98281, Note_on_c, 1, 76, 0
4, 98393, Note_on_c, 1, 74, 0
4, 98393, Note_on_c, 1, 40, 0
4, 98398, Note_on_c, 1, 81, 90
4, 98399, Note_on_c, 1, 57, 90
4, 98400, Note_on_c, 1, 76, 90
4, 98401, Note_on_c, 1, 72, 90
4, 98517, Note_on_c, 1, 72, 0
4, 98518, Note_on_c, 1, 76, 0
4, 98518, Note_on_c, 1, 57, 0
4, 98522, Note_on_c, 1, 74, 90
4, 98522, Note_on_c, 1, 59, 90
4, 98635, Note_on_c, 1, 81, 0
4, 98637, Note_on_c, 1, 74, 0
4, 98638, Note_on_c, 1, 76, 90
4, 98640, Note_on_c, 1, 60, 90
4, 98641, Note_on_c, 1, 59, 0
4, 98754, Note_on_c, 1, 76, 0
4, 98758, Note_on_c, 1, 72, 90
4, 98759, Note_on_c, 1, 57, 90
4, 98761, Note_on_c, 1, 60, 0
4, 98762, Note_on_c, 1, 81, 90
4, 98875, Note_on_c, 1, 72, 0
4, 98878, Note_on_c, 1, 79, 90
4, 98880, Note_on_c, 1, 81, 0
4, 98880, Note_on_c, 1, 57, 0
4, 98880, Note_on_c, 1, 59, 90
4, 98881, Note_on_c, 1, 74, 90
4, 98998, Note_on_c, 1, 79, 0
4, 99001, Note_on_c, 1, 77, 90
4, 99117, Note_on_c, 1, 59, 0
4, 99118, Note_on_c, 1, 77, 0
4, 99118, Note_on_c, 1, 64, 90
4, 99119, Note_on_c, 1, 74, 0
4, 99121, Note_on_c, 1, 76, 90
4, 99121, Note_on_c, 1, 56, 90
4, 99122, Note_on_c, 1, 71, 90
4, 99236, Note_on_c, 1, 76, 0
4, 99242, Note_on_c, 1, 74, 90
4, 99355, Note_on_c, 1, 64, 0
4, 99357, Note_on_c, 1, 71, 0
4, 99359, Note_on_c, 1, 64, 90
4, 99360, Note_on_c, 1, 74, 0
4, 99362, Note_on_c, 1, 56, 0
4, 99362, Note_on_c, 1, 72, 90
4, 99362, Note_on_c, 1, 57, 90
4, 99477, Note_on_c, 1, 72, 0
4, 99482, Note_on_c, 1, 71, 90
4, 99597, Note_on_c, 1, 71, 0
4, 99599, Note_on_c, 1, 64, 0
4, 99602, Note_on_c, 1, 57, 0
4, 99602, Note_on_c, 1, 69, 90
4, 99719, Note_on_c, 1, 52, 90
4, 99720, Note_on_c, 1, 68, 90
4, 99722, Note_on_c, 1, 64, 90
4, 99722, Note_on_c, 1, 71, 90
4, 99723, Note_on_c, 1, 69, 0
4, 99834, Note_on_c, 1, 52, 0
4, 99836, Note_on_c, 1, 68, 0
4, 99838, Note_on_c, 1, 57, 90
4, 99839, Note_on_c, 1, 64, 0
4, 99839, Note_on_c, 1, 72, 90
4, 99841, Note_on_c, 1, 64, 90
4, 99841, Note_on_c, 1, 69, 90
4, 99842, Note_on_c, 1, 71, 0
4, 99957, Note_on_c, 1, 57, 0
4, 99957, Note_on_c, 1, 72, 0
4, 99961, Note_on_c, 1, 69, 0
4, 99962, Note_on_c, 1, 64, 0
4, 100078, Note_on_c, 1, 62, 90
4, 100078, Note_on_c, 1, 69, 90
4, 100080, Note_on_c, 1, 74, 90
4, 100082, Note_on_c, 1, 53, 90
4, 100196, Note_on_c, 1, 69, 0
4, 100197, Note_on_c, 1, 62, 0
4, 100197, Note_on_c, 1, 53, 0
4, 100201, Note_on_c, 1, 74, 0
4, 100318, Note_on_c, 1, 64, 90
4, 100318, Note_on_c, 1, 76, 90
4, 100319, Note_on_c, 1, 40, 90
4, 100321, Note_on_c, 1, 52, 90
4, 100322, Note_on_c, 1, 68, 90
4, 100434, Note_on_c, 1, 40, 0
4, 100437, Note_on_c, 1, 64, 0
4, 100439, Note_on_c, 1, 42, 90
4, 100439, Note_on_c, 1, 69, 90
4, 100440, Note_on_c, 1, 52, 0
4, 100441, Note_on_c, 1, 68, 0
4, 100441, Note_on_c, 1, 54, 90
4, 100442, Note_on_c, 1, 64, 90
4, 100554, Note_on_c, 1, 76, 0
4, 100556, Note_on_c, 1, 54, 0
4, 100556, Note_on_c, 1, 42, 0
4, 100556, Note_on_c, 1, 64, 0
4, 100558, Note_on_c, 1, 69, 0
4, 100558, Note_on_c, 1, 64, 90
4, 100559, Note_on_c, 1, 71, 90
4, 100560, Note_on_c, 1, 44, 90
4, 100560, Note_on_c, 1, 56, 90
4, 100674, Note_on_c, 1, 64, 0
4, 100675, Note_on_c, 1, 44, 0
4, 100677, Note_on_c, 1, 71, 0
4, 100678, Note_on_c, 1, 71, 90
4, 100678, Note_on_c, 1, 76, 90
4, 100678, Note_on_c, 1, 40, 90
4, 100679, Note_on_c, 1, 52, 90
4, 100680, Note_on_c, 1, 56, 0
4, 100682, Note_on_c, 1, 68, 90
4, 100794, Note_on_c, 1, 40, 0
4, 100795, Note_on_c, 1, 76, 0
4, 100798, Note_on_c, 1, 60, 90
4, 100799, Note_on_c, 1, 71, 0
4, 100799, Note_on_c, 1, 57, 90
4, 100799, Note_on_c, 1, 84, 90
4, 100800, Note_on_c, 1, 52, 0
4, 100800, Note_on_c, 1, 64, 90
4, 100800, Note_on_c, 1, 76, 90
4, 100802, Note_on_c, 1, 68, 0
4, 100802, Note_on_c, 1, 69, 90
4, 100915, Note_on_c, 1, 57, 0
4, 100916, Note_on_c, 1, 60, 0
4, 100917, Note_on_c, 1, 64, 0
4, 100917, Note_on_c, 1, 69, 0
4, 100918, Note_on_c, 1, 45, 90
4, 100919, Note_on_c, 1, 84, 0
4, 100921, Note_on_c, 1, 76, 0
4, 100921, Note_on_c, 1, 84, 90
4, 101039, Note_on_c, 1, 45, 0
4, 101041, Note_on_c, 1, 84, 0
4, 101042, Note_on_c, 1, 84, 90
4, 101157, Note_on_c, 1, 84, 0
4, 101159, Note_on_c, 1, 84, 90
4, 101159, Note_on_c, 1, 57, 90
4, 101160, Note_on_c, 1, 60, 90
4, 101160, Note_on_c, 1, 64, 90
4, 101161, Note_on_c, 1, 76, 90
4, 101274, Note_on_c, 1, 84, 0
4, 101275, Note_on_c, 1, 64, 0
4, 101275, Note_on_c, 1, 57, 0
4, 101276, Note_on_c, 1, 76, 0
4, 101277, Note_on_c, 1, 60, 0
4, 101278, Note_on_c, 1, 50, 90
4, 101278, Note_on_c, 1, 77, 90
4, 101280, Note_on_c, 1, 57, 90
4, 101281, Note_on_c, 1, 62, 90
4, 101282, Note_on_c, 1, 84, 90
4, 101336, Note_on_c, 1, 77, 0
4, 101339, Note_on_c, 1, 74, 90
4, 101343, Note_on_c, 1, 84, 0
4, 101395, Note_on_c, 1, 74, 0
4, 101397, Note_on_c, 1, 50, 0
4, 101398, Note_on_c, 1, 74, 90
4, 101399, Note_on_c, 1, 50, 90
4, 101400, Note_on_c, 1, 57, 0
4, 101400, Note_on_c, 1, 62, 0
4, 101401, Note_on_c, 1, 62, 90
4, 101402, Note_on_c, 1, 57, 90
4, 101457, Note_on_c, 1, 74, 0
4, 101462, Note_on_c, 1, 77, 90
4, 101462, Note_on_c, 1, 84, 90
4, 101517, Note_on_c, 1, 50, 0
4, 101518, Note_on_c, 1, 84, 0
4, 101519, Note_on_c, 1, 77, 0
4, 101519, Note_on_c, 1, 62, 0
4, 101519, Note_on_c, 1, 84, 90
4, 101520, Note_on_c, 1, 57, 0
4, 101520, Note_on_c, 1, 77, 90
4, 101521, Note_on_c, 1, 62, 90
4, 101522, Note_on_c, 1, 50, 90
4, 101522, Note_on_c, 1, 57, 90
4, 101579, Note_on_c, 1, 77, 0
4, 101579, Note_on_c, 1, 84, 0
4, 101579, Note_on_c, 1, 74, 90
4, 101638, Note_on_c, 1, 74, 0
4, 101638, Note_on_c, 1, 50, 0
4, 101639, Note_on_c, 1, 57, 0
4, 101640, Note_on_c, 1, 62, 0
4, 101640, Note_on_c, 1, 50, 90
4, 101640, Note_on_c, 1, 74, 90
4, 101641, Note_on_c, 1, 57, 90
4, 101642, Note_on_c, 1, 62, 90
4, 101696, Note_on_c, 1, 74, 0
4, 101698, Note_on_c, 1, 77, 90
4, 101699, Note_on_c, 1, 84, 90
4, 101754, Note_on_c, 1, 77, 0
4, 101756, Note_on_c, 1, 62, 0
4, 101758, Note_on_c, 1, 84, 0
4, 101758, Note_on_c, 1, 62, 90
4, 101759, Note_on_c, 1, 50, 0
4, 101759, Note_on_c, 1, 83, 90
4, 101760, Note_on_c, 1, 55, 90
4, 101760, Note_on_c, 1, 77, 90
4, 101761, Note_on_c, 1, 57, 0
4, 101761, Note_on_c, 1, 59, 90
4, 101762, Note_on_c, 1, 74, 90
4, 101875, Note_on_c, 1, 62, 0
4, 101875, Note_on_c, 1, 77, 0
4, 101876, Note_on_c, 1, 83, 0
4, 101877, Note_on_c, 1, 59, 0
4, 101879, Note_on_c, 1, 74, 0
4, 101881, Note_on_c, 1, 55, 0
4, 101881, Note_on_c, 1, 43, 90
4, 101882, Note_on_c, 1, 83, 90
4, 101997, Note_on_c, 1, 83, 0
4, 101998, Note_on_c, 1, 43, 0
4, 101999, Note_on_c, 1, 83, 90
4, 102116, Note_on_c, 1, 83, 0
4, 102118, Note_on_c, 1, 62, 90
4, 102118, Note_on_c, 1, 59, 90
4, 102118, Note_on_c, 1, 83, 90
4, 102120, Note_on_c, 1, 55, 90
4, 102121, Note_on_c, 1, 77, 90
4, 102121, Note_on_c, 1, 74, 90
4, 102235, Note_on_c, 1, 59, 0
4, 102236, Note_on_c, 1, 55, 0
4, 102237, Note_on_c, 1, 62, 0
4, 102238, Note_on_c, 1, 83, 0
4, 102238, Note_on_c, 1, 74, 0
4, 102238, Note_on_c, 1, 76, 90
4, 102240, Note_on_c, 1, 77, 0
4, 102241, Note_on_c, 1, 83, 90
4, 102241, Note_on_c, 1, 55, 90
4, 102241, Note_on_c, 1, 60, 90
4, 102242, Note_on_c, 1, 48, 90
4, 102297, Note_on_c, 1, 76, 0
4, 102299, Note_on_c, 1, 83, 0
4, 102301, Note_on_c, 1, 72, 90
4, 102356, Note_on_c, 1, 72, 0
4, 102356, Note_on_c, 1, 48, 0
4, 102356, Note_on_c, 1, 55, 0
4, 102358, Note_on_c, 1, 48, 90
4, 102359, Note_on_c, 1, 60, 0
4, 102362, Note_on_c, 1, 55, 90
4, 102362, Note_on_c, 1, 72, 90
4, 102362, Note_on_c, 1, 60, 90
4, 102418, Note_on_c, 1, 72, 0
4, 102418, Note_on_c, 1, 76, 90
4, 102420, Note_on_c, 1, 83, 90
4, 102474, Note_on_c, 1, 76, 0
4, 102476, Note_on_c, 1, 55, 0
4, 102476, Note_on_c, 1, 83, 0
4, 102478, Note_on_c, 1, 48, 0
4, 102478, Note_on_c, 1, 60, 0
4, 102478, Note_on_c, 1, 55, 90
4, 102481, Note_on_c, 1, 83, 90
4, 102481, Note_on_c, 1, 60, 90
4, 102481, Note_on_c, 1, 48, 90
4, 102482, Note_on_c, 1, 76, 90
4, 102537, Note_on_c, 1, 76, 0
4, 102539, Note_on_c, 1, 72, 90
4, 102540, Note_on_c, 1, 83, 0
4, 102593, Note_on_c, 1, 55, 0
4, 102596, Note_on_c, 1, 72, 0
4, 102598, Note_on_c, 1, 72, 90
4, 102599, Note_on_c, 1, 60, 0
4, 102599, Note_on_c, 1, 48, 0
4, 102601, Note_on_c, 1, 48, 90
4, 102602, Note_on_c, 1, 55, 90
4, 102602, Note_on_c, 1, 60, 90
4, 102655, Note_on_c, 1, 72, 0
4, 102660, Note_on_c, 1, 76, 90
4, 102662, Note_on_c, 1, 83, 90
4, 102716, Note_on_c, 1, 60, 0
4, 102718, Note_on_c, 1, 76, 0
4, 102718, Note_on_c, 1, 60, 90
4, 102718, Note_on_c, 1, 57, 90
4, 102719, Note_on_c, 1, 55, 0
4, 102722, Note_on_c, 1, 48, 0
4, 102722, Note_on_c, 1, 76, 90
4, 102722, Note_on_c, 1, 72, 90
4, 102722, Note_on_c, 1, 81, 90
4, 102722, Note_on_c, 1, 53, 90
4, 102723, Note_on_c, 1, 83, 0
4, 102834, Note_on_c, 1, 57, 0
4, 102835, Note_on_c, 1, 60, 0
4, 102837, Note_on_c, 1, 81, 0
4, 102838, Note_on_c, 1, 53, 0
4, 102839, Note_on_c, 1, 72, 0
4, 102840, Note_on_c, 1, 76, 0
4, 102841, Note_on_c, 1, 81, 90
4, 102841, Note_on_c, 1, 41, 90
4, 102957, Note_on_c, 1, 81, 0
4, 102960, Note_on_c, 1, 74, 90
4, 102962, Note_on_c, 1, 41, 0
4, 102962, Note_on_c, 1, 81, 90
4, 103076, Note_on_c, 1, 74, 0
4, 103078, Note_on_c, 1, 74, 90
4, 103078, Note_on_c, 1, 62, 90
4, 103079, Note_on_c, 1, 81, 0
4, 103079, Note_on_c, 1, 53, 90
4, 103080, Note_on_c, 1, 69, 90
4, 103080, Note_on_c, 1, 81, 90
4, 103082, Note_on_c, 1, 57, 90
4, 103193, Note_on_c, 1, 62, 0
4, 103194, Note_on_c, 1, 74, 0
4, 103195, Note_on_c, 1, 69, 0
4, 103196, Note_on_c, 1, 53, 0
4, 103197, Note_on_c, 1, 81, 0
4, 103198, Note_on_c, 1, 71, 90
4, 103199, Note_on_c, 1, 57, 0
4, 103199, Note_on_c, 1, 52, 90
4, 103200, Note_on_c, 1, 59, 90
4, 103201, Note_on_c, 1, 80, 90
4, 103201, Note_on_c, 1, 64, 90
4, 103315, Note_on_c, 1, 59, 0
4, 103317, Note_on_c, 1, 80, 0
4, 103317, Note_on_c, 1, 71, 0
4, 103318, Note_on_c, 1, 64, 0
4, 103319, Note_on_c, 1, 52, 0
4, 103319, Note_on_c, 1, 69, 90
4, 103320, Note_on_c, 1, 59, 90
4, 103321, Note_on_c, 1, 78, 90
4, 103322, Note_on_c, 1, 52, 90
4, 103376, Note_on_c, 1, 69, 0
4, 103378, Note_on_c, 1, 71, 90
4, 103378, Note_on_c, 1, 80, 90
4, 103381, Note_on_c, 1, 78, 0
4, 103437, Note_on_c, 1, 80, 0
4, 103438, Note_on_c, 1, 52, 0
4, 103438, Note_on_c, 1, 59, 0
4, 103439, Note_on_c, 1, 71, 0
4, 103439, Note_on_c, 1, 45, 90
4, 103439, Note_on_c, 1, 57, 90
4, 103439, Note_on_c, 1, 72, 90
4, 103440, Note_on_c, 1, 52, 90
4, 103441, Note_on_c, 1, 81, 90
4, 103554, Note_on_c, 1, 72, 0
4, 103555, Note_on_c, 1, 45, 0
4, 103558, Note_on_c, 1, 52, 0
4, 103558, Note_on_c, 1, 45, 90
4, 103559, Note_on_c, 1, 57, 0
4, 103560, Note_on_c, 1, 57, 90
4, 103560, Note_on_c, 1, 52, 90
4, 103561, Note_on_c, 1, 81, 0
4, 103561, Note_on_c, 1, 83, 90
4, 103561, Note_on_c, 1, 74, 90
4, 103619, Note_on_c, 1, 81, 90
4, 103620, Note_on_c, 1, 74, 0
4, 103621, Note_on_c, 1, 83, 0
4, 103621, Note_on_c, 1, 72, 90
4, 103674, Note_on_c, 1, 45, 0
4, 103674, Note_on_c, 1, 81, 0
4, 103676, Note_on_c, 1, 72, 0
4, 103677, Note_on_c, 1, 57, 0
4, 103678, Note_on_c, 1, 52, 0
4, 103678, Note_on_c, 1, 59, 90
4, 103678, Note_on_c, 1, 80, 90
4, 103681, Note_on_c, 1, 71, 90
4, 103682, Note_on_c, 1, 52, 90
4, 103796, Note_on_c, 1, 80, 0
4, 103797, Note_on_c, 1, 59, 0
4, 103798, Note_on_c, 1, 59, 90
4, 103799, Note_on_c, 1, 52, 0
4, 103799, Note_on_c, 1, 69, 90
4, 103800, Note_on_c, 1, 71, 0
4, 103801, Note_on_c, 1, 52, 90
4, 103802, Note_on_c, 1, 78, 90
4, 103854, Note_on_c, 1, 69, 0
4, 103858, Note_on_c, 1, 80, 90
4, 103860, Note_on_c, 1, 78, 0
4, 103861, Note_on_c, 1, 71, 90
4, 103917, Note_on_c, 1, 59, 0
4, 103917, Note_on_c, 1, 80, 0
4, 103917, Note_on_c, 1, 52, 0
4, 103918, Note_on_c, 1, 72, 90
4, 103918, Note_on_c, 1, 52, 90
4, 103919, Note_on_c, 1, 57, 90
4, 103922, Note_on_c, 1, 71, 0
4, 103922, Note_on_c, 1, 45, 90
4, 103922, Note_on_c, 1, 81, 90
4, 104033, Note_on_c, 1, 72, 0
4, 104035, Note_on_c, 1, 57, 0
4, 104036, Note_on_c, 1, 52, 0
4, 104038, Note_on_c, 1, 74, 90
4, 104039, Note_on_c, 1, 45, 0
4, 104039, Note_on_c, 1, 81, 0
4, 104039, Note_on_c, 1, 57, 90
4, 104040, Note_on_c, 1, 83, 90
4, 104041, Note_on_c, 1, 45, 90
4, 104041, Note_on_c, 1, 52, 90
4, 104097, Note_on_c, 1, 83, 0
4, 104098, Note_on_c, 1, 74, 0
4, 104098, Note_on_c, 1, 72, 90
4, 104099, Note_on_c, 1, 81, 90
4, 104154, Note_on_c, 1, 81, 0
4, 104156, Note_on_c, 1, 45, 0
4, 104157, Note_on_c, 1, 52, 0
4, 104158, Note_on_c, 1, 80, 90
4, 104159, Note_on_c, 1, 57, 0
4, 104159, Note_on_c, 1, 72, 0
4, 104160, Note_on_c, 1, 59, 90
4, 104161, Note_on_c, 1, 56, 90
4, 104161, Note_on_c, 1, 52, 90
4, 104162, Note_on_c, 1, 71, 90
4, 104277, Note_on_c, 1, 59, 0
4, 104277, Note_on_c, 1, 80, 0
4, 104279, Note_on_c, 1, 78, 90
4, 104279, Note_on_c, 1, 60, 90
4, 104280, Note_on_c, 1, 69, 90
4, 104281, Note_on_c, 1, 71, 0
4, 104282, Note_on_c, 1, 57, 90
4, 104335, Note_on_c, 1, 78, 0
4, 104342, Note_on_c, 1, 76, 90
4, 104396, Note_on_c, 1, 60, 0
4, 104397, Note_on_c, 1, 76, 0
4, 104398, Note_on_c, 1, 57, 0
4, 104399, Note_on_c, 1, 69, 0
4, 104399, Note_on_c, 1, 56, 0
4, 104399, Note_on_c, 1, 50, 90
4, 104400, Note_on_c, 1, 52, 0
4, 104400, Note_on_c, 1, 77, 90
4, 104400, Note_on_c, 1, 62, 90
4, 104400, Note_on_c, 1, 57, 90
4, 104402, Note_on_c, 1, 69, 90
4, 104516, Note_on_c, 1, 77, 0
4, 104518, Note_on_c, 1, 76, 90
4, 104518, Note_on_c, 1, 71, 90
4, 104519, Note_on_c, 1, 62, 0
4, 104520, Note_on_c, 1, 69, 0
4, 104521, Note_on_c, 1, 65, 90
4, 104577, Note_on_c, 1, 76, 0
4, 104581, Note_on_c, 1, 74, 90
4, 104636, Note_on_c, 1, 50, 0
4, 104637, Note_on_c, 1, 71, 0
4, 104637, Note_on_c, 1, 57, 0
4, 104638, Note_on_c, 1, 65, 0
4, 104638, Note_on_c, 1, 69, 90
4, 104639, Note_on_c, 1, 45, 90
4, 104640, Note_on_c, 1, 64, 90
4, 104640, Note_on_c, 1, 76, 90
4, 104641, Note_on_c, 1, 74, 0
4, 104641, Note_on_c, 1, 57, 90
4, 104641, Note_on_c, 1, 72, 90
4, 104758, Note_on_c, 1, 47, 90
4, 104760, Note_on_c, 1, 45, 0
4, 104760, Note_on_c, 1, 59, 90
4, 104762, Note_on_c, 1, 57, 0
4, 104878, Note_on_c, 1, 47, 0
4, 104878, Note_on_c, 1, 59, 0
4, 104881, Note_on_c, 1, 60, 90
4, 104882, Note_on_c, 1, 48, 90
4, 104996, Note_on_c, 1, 69, 0
4, 104998, Note_on_c, 1, 76, 0
4, 104998, Note_on_c, 1, 71, 90
4, 104998, Note_on_c, 1, 77, 90
4, 104999, Note_on_c, 1, 48, 0
4, 104999, Note_on_c, 1, 65, 90
4, 105000, Note_on_c, 1, 72, 0
4, 105000, Note_on_c, 1, 56, 90
4, 105001, Note_on_c, 1, 64, 0
4, 105001, Note_on_c, 1, 60, 0
4, 105001, Note_on_c, 1, 74, 90
4, 105001, Note_on_c, 1, 44, 90
4, 105115, Note_on_c, 1, 65, 0
4, 105115, Note_on_c, 1, 77, 0
4, 105116, Note_on_c, 1, 74, 0
4, 105117, Note_on_c, 1, 71, 0
4, 105119, Note_on_c, 1, 56, 0
4, 105120, Note_on_c, 1, 44, 0
4, 105120, Note_on_c, 1, 64, 90
4, 105120, Note_on_c, 1, 72, 90
4, 105120, Note_on_c, 1, 57, 90
4, 105121, Note_on_c, 1, 76, 90
4, 105121, Note_on_c, 1, 69, 90
4, 105122, Note_on_c, 1, 45, 90
4, 105237, Note_on_c, 1, 57, 0
4, 105238, Note_on_c, 1, 45, 0
4, 105239, Note_on_c, 1, 47, 90
4, 105242, Note_on_c, 1, 59, 90
4, 105357, Note_on_c, 1, 47, 0
4, 105359, Note_on_c, 1, 60, 90
4, 105361, Note_on_c, 1, 48, 90
4, 105362, Note_on_c, 1, 59, 0
4, 105475, Note_on_c, 1, 60, 0
4, 105477, Note_on_c, 1, 69, 0
4, 105478, Note_on_c, 1, 48, 0
4, 105479, Note_on_c, 1, 44, 90
4, 105480, Note_on_c, 1, 72, 0
4, 105480, Note_on_c, 1, 65, 90
4, 105480, Note_on_c, 1, 77, 90
4, 105481, Note_on_c, 1, 64, 0
4, 105481, Note_on_c, 1, 76, 0
4, 105482, Note_on_c, 1, 74, 90
4, 105482, Note_on_c, 1, 71, 90
4, 105482, Note_on_c, 1, 56, 90
4, 105595, Note_on_c, 1, 44, 0
4, 105595, Note_on_c, 1, 65, 0
4, 105598, Note_on_c, 1, 77, 0
4, 105598, Note_on_c, 1, 76, 90
4, 105599, Note_on_c, 1, 56, 0
4, 105599, Note_on_c, 1, 72, 90
4, 105600, Note_on_c, 1, 74, 0
4, 105600, Note_on_c, 1, 45, 90
4, 105600, Note_on_c, 1, 69, 90
4, 105600, Note_on_c, 1, 57, 90
4, 105601, Note_on_c, 1, 64, 90
4, 105602, Note_on_c, 1, 71, 0
4, 105717, Note_on_c, 1, 72, 0
4, 105718, Note_on_c, 1, 76, 0
4, 105719, Note_on_c, 1, 74, 90
4, 105722, Note_on_c, 1, 71, 90
4, 105777, Note_on_c, 1, 71, 0
4, 105778, Note_on_c, 1, 74, 0
4, 105780, Note_on_c, 1, 76, 90
4, 105781, Note_on_c, 1, 72, 90
4, 105835, Note_on_c, 1, 45, 0
4, 105836, Note_on_c, 1, 72, 0
4, 105837, Note_on_c, 1, 69, 0
4, 105838, Note_on_c, 1, 64, 0
4, 105838, Note_on_c, 1, 44, 90
4, 105838, Note_on_c, 1, 77, 90
4, 105838, Note_on_c, 1, 65, 90
4, 105841, Note_on_c, 1, 57, 0
4, 105841, Note_on_c, 1, 76, 0
4, 105841, Note_on_c, 1, 74, 90
4, 105842, Note_on_c, 1, 56, 90
4, 105954, Note_on_c, 1, 77, 0
4, 105961, Note_on_c, 1, 74, 0
4, 105962, Note_on_c, 1, 74, 90
4, 105962, Note_on_c, 1, 77, 90
4, 106076, Note_on_c, 1, 65, 0
4, 106077, Note_on_c, 1, 74, 0
4, 106077, Note_on_c, 1, 44, 0
4, 106078, Note_on_c, 1, 72, 90
4, 106078, Note_on_c, 1, 57, 90
4, 106078, Note_on_c, 1, 69, 90
4, 106079, Note_on_c, 1, 77, 0
4, 106080, Note_on_c, 1, 76, 90
4, 106080, Note_on_c, 1, 64, 90
4, 106081, Note_on_c, 1, 45, 90
4, 106083, Note_on_c, 1, 56, 0
4, 106197, Note_on_c, 1, 72, 0
4, 106199, Note_on_c, 1, 74, 90
4, 106200, Note_on_c, 1, 71, 90
4, 106201, Note_on_c, 1, 76, 0
4, 106254, Note_on_c, 1, 74, 0
4, 106256, Note_on_c, 1, 71, 0
4, 106258, Note_on_c, 1, 72, 90
4, 106262, Note_on_c, 1, 76, 90
4, 106314, Note_on_c, 1, 69, 0
4, 106316, Note_on_c, 1, 72, 0
4, 106316, Note_on_c, 1, 45, 0
4, 106318, Note_on_c, 1, 76, 0
4, 106318, Note_on_c, 1, 44, 90
4, 106319, Note_on_c, 1, 57, 0
4, 106320, Note_on_c, 1, 64, 0
4, 106321, Note_on_c, 1, 56, 90
4, 106322, Note_on_c, 1, 65, 90
4, 106322, Note_on_c, 1, 74, 90
4, 106322, Note_on_c, 1, 77, 90
4, 106437, Note_on_c, 1, 77, 0
4, 106438, Note_on_c, 1, 74, 0
4, 106440, Note_on_c, 1, 77, 90
4, 106442, Note_on_c, 1, 74, 90
4, 106556, Note_on_c, 1, 44, 0
4, 106557, Note_on_c, 1, 77, 0
4, 106558, Note_on_c, 1, 45, 90
4, 106558, Note_on_c, 1, 64, 90
4, 106559, Note_on_c, 1, 56, 0
4, 106560, Note_on_c, 1, 74, 0
4, 106560, Note_on_c, 1, 65, 0
4, 106561, Note_on_c, 1, 76, 90
4, 106561, Note_on_c, 1, 57, 90
4, 106561, Note_on_c, 1, 72, 90
4, 106561, Note_on_c, 1, 69, 90
4, 106676, Note_on_c, 1, 72, 0
4, 106681, Note_on_c, 1, 76, 0
4, 106681, Note_on_c, 1, 78, 90
4, 106741, Note_on_c, 1, 78, 0
4, 106742, Note_on_c, 1, 80, 90
4, 106794, Note_on_c, 1, 64, 0
4, 106794, Note_on_c, 1, 45, 0
4, 106798, Note_on_c, 1, 69, 0
4, 106799, Note_on_c, 1, 80, 0
4, 106799, Note_on_c, 1, 57, 0
4, 106800, Note_on_c, 1, 81, 90
4, 106917, Note_on_c, 1, 81, 0
4, 106919, Note_on_c, 1, 81, 90
4, 106975, Note_on_c, 1, 81, 0
4, 106981, Note_on_c, 1, 83, 90
4, 107038, Note_on_c, 1, 83, 0
4, 107039, Note_on_c, 1, 81, 90
4, 107039, Note_on_c, 1, 84, 90
4, 107041, Note_on_c, 1, 45, 90
4, 107042, Note_on_c, 1, 57, 90
4, 107042, Note_on_c, 1, 76, 90
4, 107157, Note_on_c, 1, 84, 0
4, 107161, Note_on_c, 1, 84, 90
4, 107219, Note_on_c, 1, 84, 0
4, 107221, Note_on_c, 1, 86, 90
4, 107276, Note_on_c, 1, 81, 0
4, 107276, Note_on_c, 1, 45, 0
4, 107279, Note_on_c, 1, 76, 0
4, 107279, Note_on_c, 1, 88, 90
4, 107280, Note_on_c, 1, 86, 0
4, 107282, Note_on_c, 1, 57, 0
4, 107398, Note_on_c, 1, 68, 90
4, 107398, Note_on_c, 1, 47, 90
4, 107400, Note_on_c, 1, 62, 90
4, 107515, Note_on_c, 1, 68, 0
4, 107516, Note_on_c, 1, 62, 0
4, 107517, Note_on_c, 1, 88, 0
4, 107518, Note_on_c, 1, 64, 90
4, 107519, Note_on_c, 1, 47, 0
4, 107519, Note_on_c, 1, 69, 90
4, 107521, Note_on_c, 1, 48, 90
4, 107634, Note_on_c, 1, 64, 0
4, 107638, Note_on_c, 1, 48, 0
4, 107638, Note_on_c, 1, 69, 0
4, 107638, Note_on_c, 1, 50, 90
4, 107638, Note_on_c, 1, 62, 90
4, 107639, Note_on_c, 1, 81, 90
4, 107640, Note_on_c, 1, 69, 90
4, 107640, Note_on_c, 1, 77, 90
4, 107698, Note_on_c, 1, 62, 0
4, 107698, Note_on_c, 1, 60, 90
4, 107755, Note_on_c, 1, 60, 0
4, 107756, Note_on_c, 1, 69, 0
4, 107756, Note_on_c, 1, 81, 0
4, 107757, Note_on_c, 1, 50, 0
4, 107758, Note_on_c, 1, 77, 0
4, 107758, Note_on_c, 1, 52, 90
4, 107760, Note_on_c, 1, 59, 90
4, 107760, Note_on_c, 1, 76, 90
4, 107875, Note_on_c, 1, 59, 0
4, 107875, Note_on_c, 1, 52, 0
4, 107878, Note_on_c, 1, 76, 0
4, 107879, Note_on_c, 1, 40, 90
4, 107880, Note_on_c, 1, 52, 90
4, 107880, Note_on_c, 1, 71, 90
4, 107880, Note_on_c, 1, 76, 90
4, 107881, Note_on_c, 1, 80, 90
4, 107881, Note_on_c, 1, 68, 90
4, 107997, Note_on_c, 1, 52, 0
4, 107998, Note_on_c, 1, 71, 0
4, 107998, Note_on_c, 1, 45, 90
4, 107998, Note_on_c, 1, 33, 90
4, 107999, Note_on_c, 1, 76, 0
4, 107999, Note_on_c, 1, 40, 0
4, 107999, Note_on_c, 1, 81, 90
4, 108000, Note_on_c, 1, 68, 0
4, 108000, Note_on_c, 1, 72, 90
4, 108001, Note_on_c, 1, 76, 90
4, 108002, Note_on_c, 1, 80, 0
4, 108002, Note_on_c, 1, 69, 90
4, 108115, Note_on_c, 1, 33, 0
4, 108118, Note_on_c, 1, 45, 0
4, 108121, Note_on_c, 1, 59, 90
4, 108236, Note_on_c, 1, 72, 0
4, 108236, Note_on_c, 1, 81, 0
4, 108238, Note_on_c, 1, 64, 90
4, 108238, Note_on_c, 1, 60, 90
4, 108239, Note_on_c, 1, 76, 0
4, 108240, Note_on_c, 1, 59, 0
4, 108240, Note_on_c, 1, 69, 0
4, 108355, Note_on_c, 1, 64, 0
4, 108356, Note_on_c, 1, 60, 0
4, 108361, Note_on_c, 1, 76, 90
4, 108361, Note_on_c, 1, 56, 90
4, 108478, Note_on_c, 1, 76, 0
4, 108481, Note_on_c, 1, 69, 90
4, 108482, Note_on_c, 1, 56, 0
4, 108482, Note_on_c, 1, 57, 90
4, 108596, Note_on_c, 1, 69, 0
4, 108598, Note_on_c, 1, 77, 90
4, 108599, Note_on_c, 1, 57, 0
4, 108602, Note_on_c, 1, 62, 90
4, 108716, Note_on_c, 1, 77, 0
4, 108719, Note_on_c, 1, 68, 90
4, 108721, Note_on_c, 1, 62, 0
4, 108721, Note_on_c, 1, 64, 90
4, 108836, Note_on_c, 1, 68, 0
4, 108839, Note_on_c, 1, 76, 90
4, 108841, Note_on_c, 1, 64, 0
4, 108842, Note_on_c, 1, 52, 90
4, 108896, Note_on_c, 1, 76, 0
4, 108898, Note_on_c, 1, 74, 90
4, 108953, Note_on_c, 1, 74, 0
4, 108958, Note_on_c, 1, 57, 90
4, 108959, Note_on_c, 1, 52, 0
4, 108962, Note_on_c, 1, 72, 90
4, 109073, Note_on_c, 1, 57, 0
4, 109078, Note_on_c, 1, 59, 90
4, 109079, Note_on_c, 1, 74, 90
4, 109080, Note_on_c, 1, 72, 0
4, 109195, Note_on_c, 1, 59, 0
4, 109198, Note_on_c, 1, 76, 90
4, 109199, Note_on_c, 1, 74, 0
4, 109199, Note_on_c, 1, 60, 90
4, 109318, Note_on_c, 1, 76, 0
4, 109319, Note_on_c, 1, 60, 0
4, 109321, Note_on_c, 1, 72, 90
4, 109322, Note_on_c, 1, 57, 90
4, 109440, Note_on_c, 1, 57, 0
4, 109440, Note_on_c, 1, 72, 0
4, 109440, Note_on_c, 1, 59, 90
4, 109440, Note_on_c, 1, 74, 90
4, 109677, Note_on_c, 1, 59, 0
4, 109678, Note_on_c, 1, 74, 0
4, 109679, Note_on_c, 1, 56, 90
4, 109681, Note_on_c, 1, 76, 90
4, 109799, Note_on_c, 1, 71, 90
4, 109800, Note_on_c, 1, 76, 0
4, 109915, Note_on_c, 1, 56, 0
4, 109918, Note_on_c, 1, 57, 90
4, 109918, Note_on_c, 1, 72, 90
4, 109920, Note_on_c, 1, 71, 0
4, 110035, Note_on_c, 1, 57, 0
4, 110036, Note_on_c, 1, 72, 0
4, 110039, Note_on_c, 1, 74, 90
4, 110039, Note_on_c, 1, 59, 90
4, 110160, Note_on_c, 1, 59, 0
4, 110160, Note_on_c, 1, 74, 0
4, 110160, Note_on_c, 1, 76, 90
4, 110162, Note_on_c, 1, 60, 90
4, 110277, Note_on_c, 1, 60, 0
4, 110278, Note_on_c, 1, 72, 90
4, 110279, Note_on_c, 1, 76, 0
4, 110281, Note_on_c, 1, 57, 90
4, 110397, Note_on_c, 1, 72, 0
4, 110398, Note_on_c, 1, 57, 0
4, 110399, Note_on_c, 1, 59, 90
4, 110401, Note_on_c, 1, 74, 90
4, 110638, Note_on_c, 1, 59, 0
4, 110640, Note_on_c, 1, 76, 90
4, 110641, Note_on_c, 1, 74, 0
4, 110642, Note_on_c, 1, 56, 90
4, 110761, Note_on_c, 1, 76, 0
4, 110761, Note_on_c, 1, 71, 90
4, 110878, Note_on_c, 1, 56, 0
4, 110879, Note_on_c, 1, 71, 0
4, 110882, Note_on_c, 1, 57, 90
4, 110882, Note_on_c, 1, 72, 90
4, 110998, Note_on_c, 1, 57, 0
4, 110999, Note_on_c, 1, 72, 0
4, 111000, Note_on_c, 1, 74, 90
4, 111001, Note_on_c, 1, 59, 90
4, 111117, Note_on_c, 1, 74, 0
4, 111119, Note_on_c, 1, 76, 90
4, 111120, Note_on_c, 1, 59, 0
4, 111120, Note_on_c, 1, 60, 90
4, 111238, Note_on_c, 1, 60, 0
4, 111239, Note_on_c, 1, 76, 0
4, 111240, Note_on_c, 1, 57, 90
4, 111240, Note_on_c, 1, 72, 90
4, 111241, Note_on_c, 1, 81, 90
4, 111356, Note_on_c, 1, 72, 0
4, 111357, Note_on_c, 1, 81, 0
4, 111358, Note_on_c, 1, 57, 0
4, 111359, Note_on_c, 1, 79, 90
4, 111362, Note_on_c, 1, 52, 90
4, 111362, Note_on_c, 1, 71, 90
4, 111594, Note_on_c, 1, 79, 0
4, 111599, Note_on_c, 1, 71, 0
4, 111602, Note_on_c, 1, 52, 0
4, 111838, Note_on_c, 1, 61, 90
4, 111842, Note_on_c, 1, 69, 90
4, 111957, Note_on_c, 1, 61, 0
4, 111959, Note_on_c, 1, 69, 0
4, 111959, Note_on_c, 1, 57, 90
4, 111960, Note_on_c, 1, 76, 90
4, 112077, Note_on_c, 1, 57, 0
4, 112078, Note_on_c, 1, 76, 0
4, 112078, Note_on_c, 1, 69, 90
4, 112082, Note_on_c, 1, 61, 90
4, 112193, Note_on_c, 1, 69, 0
4, 112198, Note_on_c, 1, 76, 90
4, 112199, Note_on_c, 1, 61, 0
4, 112201, Note_on_c, 1, 57, 90
4, 112316, Note_on_c, 1, 76, 0
4, 112319, Note_on_c, 1, 57, 0
4, 112321, Note_on_c, 1, 74, 90
4, 112322, Note_on_c, 1, 62, 90
4, 112322, Note_on_c, 1, 69, 90
4, 112437, Note_on_c, 1, 69, 0
4, 112438, Note_on_c, 1, 77, 90
4, 112439, Note_on_c, 1, 74, 0
4, 112440, Note_on_c, 1, 50, 90
4, 112441, Note_on_c, 1, 62, 0
4, 112441, Note_on_c, 1, 69, 90
4, 112556, Note_on_c, 1, 69, 0
4, 112558, Note_on_c, 1, 50, 0
4, 112558, Note_on_c, 1, 77, 0
4, 112799, Note_on_c, 1, 59, 90
4, 112800, Note_on_c, 1, 67, 90
4, 112917, Note_on_c, 1, 59, 0
4, 112918, Note_on_c, 1, 74, 90
4, 112919, Note_on_c, 1, 67, 0
4, 112919, Note_on_c, 1, 55, 90
4, 113035, Note_on_c, 1, 55, 0
4, 113038, Note_on_c, 1, 74, 0
4, 113041, Note_on_c, 1, 67, 90
4, 113042, Note_on_c, 1, 59, 90
4, 113158, Note_on_c, 1, 59, 0
4, 113158, Note_on_c, 1, 67, 0
4, 113158, Note_on_c, 1, 74, 90
4, 113162, Note_on_c, 1, 55, 90
4, 113274, Note_on_c, 1, 74, 0
4, 113278, Note_on_c, 1, 72, 90
4, 113279, Note_on_c, 1, 67, 90
4, 113281, Note_on_c, 1, 60, 90
4, 113282, Note_on_c, 1, 55, 0
4, 113398, Note_on_c, 1, 72, 0
4, 113399, Note_on_c, 1, 67, 0
4, 113399, Note_on_c, 1, 48, 90
4, 113400, Note_on_c, 1, 60, 0
4, 113400, Note_on_c, 1, 67, 90
4, 113401, Note_on_c, 1, 76, 90
4, 113515, Note_on_c, 1, 67, 0
4, 113515, Note_on_c, 1, 48, 0
4, 113518, Note_on_c, 1, 76, 0
4, 113758, Note_on_c, 1, 65, 90
4, 113759, Note_on_c, 1, 57, 90
4, 113873, Note_on_c, 1, 65, 0
4, 113878, Note_on_c, 1, 57, 0
4, 113878, Note_on_c, 1, 53, 90
4, 113882, Note_on_c, 1, 72, 90
4, 113996, Note_on_c, 1, 53, 0
4, 113998, Note_on_c, 1, 72, 0
4, 113999, Note_on_c, 1, 65, 90
4, 114000, Note_on_c, 1, 57, 90
4, 114117, Note_on_c, 1, 57, 0
4, 114117, Note_on_c, 1, 65, 0
4, 114120, Note_on_c, 1, 53, 90
4, 114122, Note_on_c, 1, 72, 90
4, 114238, Note_on_c, 1, 53, 0
4, 114238, Note_on_c, 1, 65, 90
4, 114239, Note_on_c, 1, 72, 0
4, 114242, Note_on_c, 1, 59, 90
4, 114242, Note_on_c, 1, 71, 90
4, 114356, Note_on_c, 1, 65, 0
4, 114358, Note_on_c, 1, 47, 90
4, 114359, Note_on_c, 1, 59, 0
4, 114361, Note_on_c, 1, 71, 0
4, 114362, Note_on_c, 1, 74, 90
4, 114362, Note_on_c, 1, 65, 90
4, 114479, Note_on_c, 1, 65, 0
4, 114479, Note_on_c, 1, 47, 0
4, 114483, Note_on_c, 1, 74, 0
4, 114719, Note_on_c, 1, 56, 90
4, 114721, Note_on_c, 1, 64, 90
4, 114837, Note_on_c, 1, 64, 0
4, 114839, Note_on_c, 1, 56, 0
4, 114839, Note_on_c, 1, 52, 90
4, 114840, Note_on_c, 1, 71, 90
4, 114958, Note_on_c, 1, 71, 0
4, 114958, Note_on_c, 1, 52, 0
4, 114959, Note_on_c, 1, 64, 90
4, 114960, Note_on_c, 1, 56, 90
4, 115080, Note_on_c, 1, 56, 0
4, 115080, Note_on_c, 1, 64, 0
4, 115081, Note_on_c, 1, 71, 90
4, 115082, Note_on_c, 1, 52, 90
4, 115198, Note_on_c, 1, 57, 90
4, 115199, Note_on_c, 1, 71, 0
4, 115200, Note_on_c, 1, 52, 0
4, 115200, Note_on_c, 1, 69, 90
4, 115202, Note_on_c, 1, 64, 90
4, 115318, Note_on_c, 1, 64, 0
4, 115318, Note_on_c, 1, 57, 0
4, 115319, Note_on_c, 1, 69, 0
4, 115319, Note_on_c, 1, 72, 90
4, 115320, Note_on_c, 1, 45, 90
4, 115322, Note_on_c, 1, 64, 90
4, 115435, Note_on_c, 1, 45, 0
4, 115438, Note_on_c, 1, 72, 0
4, 115440, Note_on_c, 1, 64, 0
4, 115558, Note_on_c, 1, 64, 90
4, 115559, Note_on_c, 1, 69, 90
4, 115560, Note_on_c, 1, 60, 90
4, 115561, Note_on_c, 1, 57, 90
4, 115675, Note_on_c, 1, 64, 0
4, 115678, Note_on_c, 1, 64, 90
4, 115679, Note_on_c, 1, 69, 0
4, 115679, Note_on_c, 1, 57, 0
4, 115679, Note_on_c, 1, 60, 0
4, 115680, Note_on_c, 1, 60, 90
4, 115681, Note_on_c, 1, 57, 90
4, 115682, Note_on_c, 1, 69, 90
4, 115797, Note_on_c, 1, 69, 0
4, 115797, Note_on_c, 1, 64, 0
4, 115799, Note_on_c, 1, 69, 90
4, 115800, Note_on_c, 1, 72, 90
4, 115800, Note_on_c, 1, 64, 90
4, 115801, Note_on_c, 1, 57, 0
4, 115801, Note_on_c, 1, 60, 0
4, 115802, Note_on_c, 1, 45, 90
4, 115915, Note_on_c, 1, 72, 0
4, 115915, Note_on_c, 1, 64, 0
4, 115916, Note_on_c, 1, 69, 0
4, 115919, Note_on_c, 1, 45, 0
4, 116039, Note_on_c, 1, 72, 90
4, 116040, Note_on_c, 1, 57, 90
4, 116041, Note_on_c, 1, 69, 90
4, 116042, Note_on_c, 1, 76, 90
4, 116156, Note_on_c, 1, 69, 0
4, 116156, Note_on_c, 1, 72, 0
4, 116157, Note_on_c, 1, 76, 0
4, 116158, Note_on_c, 1, 75, 90
4, 116159, Note_on_c, 1, 59, 90
4, 116160, Note_on_c, 1, 71, 90
4, 116160, Note_on_c, 1, 66, 90
4, 116161, Note_on_c, 1, 57, 0
4, 116274, Note_on_c, 1, 75, 0
4, 116274, Note_on_c, 1, 59, 0
4, 116275, Note_on_c, 1, 66, 0
4, 116276, Note_on_c, 1, 71, 0
4, 116278, Note_on_c, 1, 75, 90
4, 116278, Note_on_c, 1, 71, 90
4, 116280, Note_on_c, 1, 47, 90
4, 116280, Note_on_c, 1, 78, 90
4, 116398, Note_on_c, 1, 75, 0
4, 116399, Note_on_c, 1, 71, 0
4, 116400, Note_on_c, 1, 47, 0
4, 116401, Note_on_c, 1, 78, 0
4, 116519, Note_on_c, 1, 66, 90
4, 116521, Note_on_c, 1, 71, 90
4, 116521, Note_on_c, 1, 63, 90
4, 116522, Note_on_c, 1, 59, 90
4, 116637, Note_on_c, 1, 59, 0
4, 116637, Note_on_c, 1, 66, 0
4, 116638, Note_on_c, 1, 71, 0
4, 116640, Note_on_c, 1, 63, 0
4, 116640, Note_on_c, 1, 66, 90
4, 116641, Note_on_c, 1, 71, 90
4, 116641, Note_on_c, 1, 59, 90
4, 116642, Note_on_c, 1, 63, 90
4, 116758, Note_on_c, 1, 63, 0
4, 116758, Note_on_c, 1, 59, 0
4, 116758, Note_on_c, 1, 71, 0
4, 116758, Note_on_c, 1, 75, 90
4, 116759, Note_on_c, 1, 71, 90
4, 116760, Note_on_c, 1, 66, 0
4, 116761, Note_on_c, 1, 47, 90
4, 116762, Note_on_c, 1, 66, 90
4, 116874, Note_on_c, 1, 75, 0
4, 116877, Note_on_c, 1, 71, 0
4, 116877, Note_on_c, 1, 47, 0
4, 116879, Note_on_c, 1, 66, 0
4, 116998, Note_on_c, 1, 59, 90
4, 116999, Note_on_c, 1, 71, 90
4, 117002, Note_on_c, 1, 75, 90
4, 117002, Note_on_c, 1, 78, 90
4, 117113, Note_on_c, 1, 59, 0
4, 117119, Note_on_c, 1, 71, 0
4, 117119, Note_on_c, 1, 64, 90
4, 117120, Note_on_c, 1, 75, 0
4, 117120, Note_on_c, 1, 71, 90
4, 117121, Note_on_c, 1, 78, 0
4, 117121, Note_on_c, 1, 79, 90
4, 117122, Note_on_c, 1, 76, 90
4, 117235, Note_on_c, 1, 64, 0
4, 117237, Note_on_c, 1, 76, 0
4, 117238, Note_on_c, 1, 71, 0
4, 117238, Note_on_c, 1, 81, 90
4, 117238, Note_on_c, 1, 57, 90
4, 117239, Note_on_c, 1, 79, 0
4, 117240, Note_on_c, 1, 72, 90
4, 117241, Note_on_c, 1, 78, 90
4, 117355, Note_on_c, 1, 57, 0
4, 117359, Note_on_c, 1, 81, 0
4, 117359, Note_on_c, 1, 72, 0
4, 117359, Note_on_c, 1, 78, 0
4, 117359, Note_on_c, 1, 75, 90
4, 117359, Note_on_c, 1, 71, 90
4, 117360, Note_on_c, 1, 78, 90
4, 117360, Note_on_c, 1, 59, 90
4, 117477, Note_on_c, 1, 59, 0
4, 117478, Note_on_c, 1, 69, 90
4, 117479, Note_on_c, 1, 71, 0
4, 117479, Note_on_c, 1, 47, 90
4, 117595, Note_on_c, 1, 75, 0
4, 117596, Note_on_c, 1, 78, 0
4, 117598, Note_on_c, 1, 76, 90
4, 117598, Note_on_c, 1, 71, 90
4, 117598, Note_on_c, 1, 40, 90
4, 117599, Note_on_c, 1, 69, 0
4, 117599, Note_on_c, 1, 52, 90
4, 117599, Note_on_c, 1, 67, 90
4, 117600, Note_on_c, 1, 47, 0
4, 117715, Note_on_c, 1, 76, 0
4, 117835, Note_on_c, 1, 67, 0
4, 117838, Note_on_c, 1, 76, 90
4, 117839, Note_on_c, 1, 71, 0
4, 117839, Note_on_c, 1, 40, 0
4, 117840, Note_on_c, 1, 52, 0
4, 117956, Note_on_c, 1, 76, 0
4, 117959, Note_on_c, 1, 71, 90
4, 117960, Note_on_c, 1, 51, 90
4, 117961, Note_on_c, 1, 78, 90
4, 118074, Note_on_c, 1, 71, 0
4, 118078, Note_on_c, 1, 51, 0
4, 118080, Note_on_c, 1, 78, 0
4, 118080, Note_on_c, 1, 52, 90
4, 118080, Note_on_c, 1, 71, 90
4, 118081, Note_on_c, 1, 79, 90
4, 118196, Note_on_c, 1, 71, 0
4, 118197, Note_on_c, 1, 52, 0
4, 118198, Note_on_c, 1, 79, 0
4, 118198, Note_on_c, 1, 57, 90
4, 118200, Note_on_c, 1, 72, 90
4, 118316, Note_on_c, 1, 57, 0
4, 118320, Note_on_c, 1, 59, 90
4, 118321, Note_on_c, 1, 72, 0
4, 118322, Note_on_c, 1, 62, 90
4, 118322, Note_on_c, 1, 78, 90
4, 118378, Note_on_c, 1, 66, 90
4, 118380, Note_on_c, 1, 62, 0
4, 118436, Note_on_c, 1, 66, 0
4, 118438, Note_on_c, 1, 59, 0
4, 118440, Note_on_c, 1, 71, 90
4, 118442, Note_on_c, 1, 47, 90
4, 118443, Note_on_c, 1, 78, 0
4, 118498, Note_on_c, 1, 69, 90
4, 118500, Note_on_c, 1, 71, 0
4, 118553, Note_on_c, 1, 69, 0
4, 118558, Note_on_c, 1, 47, 0
4, 118558, Note_on_c, 1, 40, 90
4, 118560, Note_on_c, 1, 52, 90
4, 118560, Note_on_c, 1, 71, 90
4, 118560, Note_on_c, 1, 67, 90
4, 118561, Note_on_c, 1, 76, 90
4, 118679, Note_on_c, 1, 76, 0
4, 118798, Note_on_c, 1, 52, 0
4, 118799, Note_on_c, 1, 40, 0
4, 118799, Note_on_c, 1, 67, 0
4, 118801, Note_on_c, 1, 71, 0
4, 118801, Note_on_c, 1, 76, 90
4, 118920, Note_on_c, 1, 76, 0
4, 118920, Note_on_c, 1, 71, 90
4, 118921, Note_on_c, 1, 78, 90
4, 118922, Note_on_c, 1, 51, 90
4, 119037, Note_on_c, 1, 71, 0
4, 119039, Note_on_c, 1, 71, 90
4, 119041, Note_on_c, 1, 78, 0
4, 119041, Note_on_c, 1, 79, 90
4, 119042, Note_on_c, 1, 51, 0
4, 119042, Note_on_c, 1, 52, 90
4, 119158, Note_on_c, 1, 79, 0
4, 119159, Note_on_c, 1, 52, 0
4, 119159, Note_on_c, 1, 72, 90
4, 119159, Note_on_c, 1, 57, 90
4, 119160, Note_on_c, 1, 71, 0
4, 119275, Note_on_c, 1, 57, 0
4, 119278, Note_on_c, 1, 72, 0
4, 119280, Note_on_c, 1, 59, 90
4, 119281, Note_on_c, 1, 78, 90
4, 119282, Note_on_c, 1, 62, 90
4, 119337, Note_on_c, 1, 62, 0
4, 119340, Note_on_c, 1, 66, 90
4, 119399, Note_on_c, 1, 66, 0
4, 119399, Note_on_c, 1, 78, 0
4, 119399, Note_on_c, 1, 59, 0
4, 119400, Note_on_c, 1, 71, 90
4, 119401, Note_on_c, 1, 47, 90
4, 119459, Note_on_c, 1, 66, 90
4, 119461, Note_on_c, 1, 71, 0
4, 119517, Note_on_c, 1, 66, 0
4, 119518, Note_on_c, 1, 52, 90
4, 119520, Note_on_c, 1, 67, 90
4, 119521, Note_on_c, 1, 76, 90
4, 119522, Note_on_c, 1, 47, 0
4, 119633, Note_on_c, 1, 52, 0
4, 119636, Note_on_c, 1, 67, 0
4, 119640, Note_on_c, 1, 54, 90
4, 119640, Note_on_c, 1, 69, 90
4, 119756, Note_on_c, 1, 76, 0
4, 119757, Note_on_c, 1, 69, 0
4, 119760, Note_on_c, 1, 54, 0
4, 119760, Note_on_c, 1, 55, 90
4, 119762, Note_on_c, 1, 71, 90
4, 119877, Note_on_c, 1, 55, 0
4, 119879, Note_on_c, 1, 71, 0
4, 119879, Note_on_c, 1, 66, 90
4, 119880, Note_on_c, 1, 51, 90
4, 119881, Note_on_c, 1, 71, 90
4, 119996, Note_on_c, 1, 66, 0
4, 119997, Note_on_c, 1, 51, 0
4, 119998, Note_on_c, 1, 71, 0
4, 119998, Note_on_c, 1, 64, 90
4, 119998, Note_on_c, 1, 67, 90
4, 120000, Note_on_c, 1, 71, 90
4, 120001, Note_on_c, 1, 52, 90
4, 120113, Note_on_c, 1, 64, 0
4, 120117, Note_on_c, 1, 67, 0
4, 120118, Note_on_c, 1, 71, 0
4, 120119, Note_on_c, 1, 67, 90
4, 120121, Note_on_c, 1, 71, 90
4, 120122, Note_on_c, 1, 52, 0
4, 120122, Note_on_c, 1, 64, 90
4, 120122, Note_on_c, 1, 40, 90
4, 120237, Note_on_c, 1, 71, 0
4, 120237, Note_on_c, 1, 67, 0
4, 120243, Note_on_c, 1, 64, 0
4, 120243, Note_on_c, 1, 40, 0
4, 120359, Note_on_c, 1, 71, 90
4, 120359, Note_on_c, 1, 52, 90
4, 120362, Note_on_c, 1, 67, 90
4, 120478, Note_on_c, 1, 67, 0
4, 120479, Note_on_c, 1, 71, 0
4, 120479, Note_on_c, 1, 72, 90
4, 120480, Note_on_c, 1, 52, 0
4, 120480, Note_on_c, 1, 67, 90
4, 120482, Note_on_c, 1, 57, 90
4, 120598, Note_on_c, 1, 64, 90
4, 120599, Note_on_c, 1, 67, 0
4, 120599, Note_on_c, 1, 72, 0
4, 120600, Note_on_c, 1, 57, 0
4, 120602, Note_on_c, 1, 57, 90
4, 120714, Note_on_c, 1, 64, 0
4, 120720, Note_on_c, 1, 57, 0
4, 120722, Note_on_c, 1, 57, 90
4, 120722, Note_on_c, 1, 64, 90
4, 120836, Note_on_c, 1, 57, 0
4, 120838, Note_on_c, 1, 64, 0
4, 120838, Note_on_c, 1, 72, 90
4, 120838, Note_on_c, 1, 57, 90
4, 120841, Note_on_c, 1, 67, 90
4, 120954, Note_on_c, 1, 57, 0
4, 120954, Note_on_c, 1, 72, 0
4, 120958, Note_on_c, 1, 62, 90
4, 120959, Note_on_c, 1, 67, 0
4, 120959, Note_on_c, 1, 72, 90
4, 120959, Note_on_c, 1, 66, 90
4, 121077, Note_on_c, 1, 72, 0
4, 121077, Note_on_c, 1, 62, 0
4, 121079, Note_on_c, 1, 66, 0
4, 121079, Note_on_c, 1, 72, 90
4, 121081, Note_on_c, 1, 62, 90
4, 121081, Note_on_c, 1, 66, 90
4, 121081, Note_on_c, 1, 50, 90
4, 121196, Note_on_c, 1, 62, 0
4, 121199, Note_on_c, 1, 72, 0
4, 121199, Note_on_c, 1, 50, 0
4, 121202, Note_on_c, 1, 66, 0
4, 121319, Note_on_c, 1, 66, 90
4, 121320, Note_on_c, 1, 50, 90
4, 121321, Note_on_c, 1, 72, 90
4, 121436, Note_on_c, 1, 72, 0
4, 121437, Note_on_c, 1, 50, 0
4, 121438, Note_on_c, 1, 71, 90
4, 121440, Note_on_c, 1, 66, 0
4, 121440, Note_on_c, 1, 55, 90
4, 121442, Note_on_c, 1, 66, 90
4, 121556, Note_on_c, 1, 55, 0
4, 121557, Note_on_c, 1, 71, 0
4, 121558, Note_on_c, 1, 62, 90
4, 121558, Note_on_c, 1, 55, 90
4, 121559, Note_on_c, 1, 66, 0
4, 121675, Note_on_c, 1, 62, 0
4, 121676, Note_on_c, 1, 55, 0
4, 121678, Note_on_c, 1, 55, 90
4, 121681, Note_on_c, 1, 62, 90
4, 121793, Note_on_c, 1, 55, 0
4, 121799, Note_on_c, 1, 66, 90
4, 121801, Note_on_c, 1, 62, 0
4, 121801, Note_on_c, 1, 55, 90
4, 121802, Note_on_c, 1, 71, 90
4, 121917, Note_on_c, 1, 71, 0
4, 121918, Note_on_c, 1, 55, 0
4, 121918, Note_on_c, 1, 60, 90
4, 121919, Note_on_c, 1, 71, 90
4, 121920, Note_on_c, 1, 66, 0
4, 121920, Note_on_c, 1, 64, 90
4, 122036, Note_on_c, 1, 71, 0
4, 122038, Note_on_c, 1, 64, 0
4, 122038, Note_on_c, 1, 60, 0
4, 122038, Note_on_c, 1, 48, 90
4, 122038, Note_on_c, 1, 71, 90
4, 122040, Note_on_c, 1, 60, 90
4, 122040, Note_on_c, 1, 64, 90
4, 122156, Note_on_c, 1, 64, 0
4, 122156, Note_on_c, 1, 48, 0
4, 122158, Note_on_c, 1, 71, 0
4, 122159, Note_on_c, 1, 60, 0
4, 122279, Note_on_c, 1, 60, 90
4, 122279, Note_on_c, 1, 71, 90
4, 122280, Note_on_c, 1, 64, 90
4, 122394, Note_on_c, 1, 60, 0
4, 122399, Note_on_c, 1, 64, 0
4, 122399, Note_on_c, 1, 71, 0
4, 122400, Note_on_c, 1, 69, 90
4, 122401, Note_on_c, 1, 64, 90
4, 122402, Note_on_c, 1, 54, 90
4, 122517, Note_on_c, 1, 54, 0
4, 122518, Note_on_c, 1, 60, 90
4, 122519, Note_on_c, 1, 64, 0
4, 122519, Note_on_c, 1, 54, 90
4, 122520, Note_on_c, 1, 69, 0
4, 122635, Note_on_c, 1, 60, 0
4, 122639, Note_on_c, 1, 54, 0
4, 122640, Note_on_c, 1, 54, 90
4, 122640, Note_on_c, 1, 60, 90
4, 122757, Note_on_c, 1, 54, 0
4, 122759, Note_on_c, 1, 54, 90
4, 122760, Note_on_c, 1, 60, 0
4, 122760, Note_on_c, 1, 69, 90
4, 122761, Note_on_c, 1, 64, 90
4, 122878, Note_on_c, 1, 69, 0
4, 122879, Note_on_c, 1, 47, 90
4, 122880, Note_on_c, 1, 54, 0
4, 122881, Note_on_c, 1, 64, 0
4, 122882, Note_on_c, 1, 59, 90
4, 122882, Note_on_c, 1, 66, 90
4, 122882, Note_on_c, 1, 69, 90
4, 122994, Note_on_c, 1, 47, 0
4, 123000, Note_on_c, 1, 49, 90
4, 123118, Note_on_c, 1, 51, 90
4, 123120, Note_on_c, 1, 49, 0
4, 123233, Note_on_c, 1, 51, 0
4, 123237, Note_on_c, 1, 59, 0
4, 123239, Note_on_c, 1, 69, 0
4, 123239, Note_on_c, 1, 59, 90
4, 123239, Note_on_c, 1, 75, 90
4, 123241, Note_on_c, 1, 66, 0
4, 123241, Note_on_c, 1, 83, 90
4, 123242, Note_on_c, 1, 47, 90
4, 123357, Note_on_c, 1, 59, 0
4, 123358, Note_on_c, 1, 71, 90
4, 123358, Note_on_c, 1, 52, 90
4, 123359, Note_on_c, 1, 75, 0
4, 123359, Note_on_c, 1, 83, 0
4, 123359, Note_on_c, 1, 59, 90
4, 123360, Note_on_c, 1, 47, 0
4, 123360, Note_on_c, 1, 80, 90
4, 123475, Note_on_c, 1, 71, 0
4, 123478, Note_on_c, 1, 52, 0
4, 123479, Note_on_c, 1, 52, 90
4, 123480, Note_on_c, 1, 59, 0
4, 123480, Note_on_c, 1, 69, 90
4, 123481, Note_on_c, 1, 80, 0
4, 123481, Note_on_c, 1, 59, 90
4, 123482, Note_on_c, 1, 78, 90
4, 123538, Note_on_c, 1, 69, 0
4, 123541, Note_on_c, 1, 80, 90
4, 123542, Note_on_c, 1, 71, 90
4, 123543, Note_on_c, 1, 78, 0
4, 123598, Note_on_c, 1, 81, 90
4, 123599, Note_on_c, 1, 52, 0
4, 123600, Note_on_c, 1, 80, 0
4, 123600, Note_on_c, 1, 45, 90
4, 123600, Note_on_c, 1, 72, 90
4, 123601, Note_on_c, 1, 52, 90
4, 123601, Note_on_c, 1, 57, 90
4, 123602, Note_on_c, 1, 59, 0
4, 123603, Note_on_c, 1, 71, 0
4, 123715, Note_on_c, 1, 45, 0
4, 123717, Note_on_c, 1, 52, 0
4, 123717, Note_on_c, 1, 57, 0
4, 123718, Note_on_c, 1, 81, 0
4, 123718, Note_on_c, 1, 72, 0
4, 123718, Note_on_c, 1, 83, 90
4, 123718, Note_on_c, 1, 57, 90
4, 123719, Note_on_c, 1, 52, 90
4, 123720, Note_on_c, 1, 74, 90
4, 123722, Note_on_c, 1, 45, 90
4, 123775, Note_on_c, 1, 74, 0
4, 123776, Note_on_c, 1, 83, 0
4, 123780, Note_on_c, 1, 81, 90
4, 123781, Note_on_c, 1, 72, 90
4, 123834, Note_on_c, 1, 52, 0
4, 123837, Note_on_c, 1, 57, 0
4, 123839, Note_on_c, 1, 81, 0
4, 123839, Note_on_c, 1, 72, 0
4, 123840, Note_on_c, 1, 80, 90
4, 123841, Note_on_c, 1, 59, 90
4, 123842, Note_on_c, 1, 45, 0
4, 123842, Note_on_c, 1, 52, 90
4, 123842, Note_on_c, 1, 71, 90
4, 123956, Note_on_c, 1, 52, 0
4, 123958, Note_on_c, 1, 71, 0
4, 123958, Note_on_c, 1, 52, 90
4, 123959, Note_on_c, 1, 78, 90
4, 123960, Note_on_c, 1, 59, 0
4, 123960, Note_on_c, 1, 80, 0
4, 123961, Note_on_c, 1, 59, 90
4, 123962, Note_on_c, 1, 69, 90
4, 124018, Note_on_c, 1, 78, 0
4, 124018, Note_on_c, 1, 71, 90
4, 124021, Note_on_c, 1, 69, 0
4, 124021, Note_on_c, 1, 80, 90
4, 124078, Note_on_c, 1, 52, 0
4, 124079, Note_on_c, 1, 71, 0
4, 124079, Note_on_c, 1, 80, 0
4, 124079, Note_on_c, 1, 45, 90
4, 124079, Note_on_c, 1, 72, 90
4, 124081, Note_on_c, 1, 52, 90
4, 124082, Note_on_c, 1, 59, 0
4, 124082, Note_on_c, 1, 57, 90
4, 124082, Note_on_c, 1, 81, 90
4, 124196, Note_on_c, 1, 72, 0
4, 124198, Note_on_c, 1, 52, 0
4, 124198, Note_on_c, 1, 45, 0
4, 124199, Note_on_c, 1, 57, 0
4, 124199, Note_on_c, 1, 83, 90
4, 124201, Note_on_c, 1, 52, 90
4, 124201, Note_on_c, 1, 57, 90
4, 124201, Note_on_c, 1, 45, 90
4, 124202, Note_on_c, 1, 81, 0
4, 124202, Note_on_c, 1, 74, 90
4, 124256, Note_on_c, 1, 83, 0
4, 124258, Note_on_c, 1, 72, 90
4, 124259, Note_on_c, 1, 81, 90
4, 124261, Note_on_c, 1, 74, 0
4, 124315, Note_on_c, 1, 81, 0
4, 124316, Note_on_c, 1, 45, 0
4, 124318, Note_on_c, 1, 72, 0
4, 124318, Note_on_c, 1, 52, 0
4, 124318, Note_on_c, 1, 71, 90
4, 124318, Note_on_c, 1, 80, 90
4, 124319, Note_on_c, 1, 59, 90
4, 124320, Note_on_c, 1, 57, 0
4, 124320, Note_on_c, 1, 56, 90
4, 124321, Note_on_c, 1, 52, 90
4, 124434, Note_on_c, 1, 80, 0
4, 124435, Note_on_c, 1, 59, 0
4, 124435, Note_on_c, 1, 71, 0
4, 124439, Note_on_c, 1, 60, 90
4, 124439, Note_on_c, 1, 69, 90
4, 124441, Note_on_c, 1, 57, 90
4, 124441, Note_on_c, 1, 78, 90
4, 124499, Note_on_c, 1, 78, 0
4, 124502, Note_on_c, 1, 76, 90
4, 124554, Note_on_c, 1, 69, 0
4, 124556, Note_on_c, 1, 57, 0
4, 124557, Note_on_c, 1, 76, 0
4, 124558, Note_on_c, 1, 69, 90
4, 124558, Note_on_c, 1, 57, 90
4, 124558, Note_on_c, 1, 50, 90
4, 124559, Note_on_c, 1, 56, 0
4, 124560, Note_on_c, 1, 60, 0
4, 124561, Note_on_c, 1, 52, 0
4, 124562, Note_on_c, 1, 62, 90
4, 124562, Note_on_c, 1, 77, 90
4, 124674, Note_on_c, 1, 69, 0
4, 124678, Note_on_c, 1, 62, 0
4, 124678, Note_on_c, 1, 65, 90
4, 124679, Note_on_c, 1, 77, 0
4, 124681, Note_on_c, 1, 76, 90
4, 124682, Note_on_c, 1, 71, 90
4, 124738, Note_on_c, 1, 76, 0
4, 124739, Note_on_c, 1, 74, 90
4, 124793, Note_on_c, 1, 65, 0
4, 124793, Note_on_c, 1, 50, 0
4, 124798, Note_on_c, 1, 76, 90
4, 124798, Note_on_c, 1, 64, 90
4, 124799, Note_on_c, 1, 57, 0
4, 124800, Note_on_c, 1, 71, 0
4, 124800, Note_on_c, 1, 74, 0
4, 124801, Note_on_c, 1, 57, 90
4, 124801, Note_on_c, 1, 45, 90
4, 124801, Note_on_c, 1, 72, 90
4, 124801, Note_on_c, 1, 69, 90
4, 124916, Note_on_c, 1, 45, 0
4, 124918, Note_on_c, 1, 47, 90
4, 124920, Note_on_c, 1, 57, 0
4, 124922, Note_on_c, 1, 59, 90
4, 125037, Note_on_c, 1, 59, 0
4, 125037, Note_on_c, 1, 47, 0
4, 125039, Note_on_c, 1, 48, 90
4, 125042, Note_on_c, 1, 60, 90
4, 125158, Note_on_c, 1, 60, 0
4, 125158, Note_on_c, 1, 69, 0
4, 125158, Note_on_c, 1, 64, 0
4, 125158, Note_on_c, 1, 76, 0
4, 125159, Note_on_c, 1, 72, 0
4, 125160, Note_on_c, 1, 48, 0
4, 125160, Note_on_c, 1, 56, 90
4, 125161, Note_on_c, 1, 71, 90
4, 125161, Note_on_c, 1, 65, 90
4, 125162, Note_on_c, 1, 74, 90
4, 125162, Note_on_c, 1, 77, 90
4, 125162, Note_on_c, 1, 44, 90
4, 125276, Note_on_c, 1, 71, 0
4, 125277, Note_on_c, 1, 65, 0
4, 125278, Note_on_c, 1, 76, 90
4, 125278, Note_on_c, 1, 72, 90
4, 125279, Note_on_c, 1, 74, 0
4, 125279, Note_on_c, 1, 57, 90
4, 125279, Note_on_c, 1, 45, 90
4, 125280, Note_on_c, 1, 56, 0
4, 125280, Note_on_c, 1, 44, 0
4, 125281, Note_on_c, 1, 77, 0
4, 125281, Note_on_c, 1, 64, 90
4, 125282, Note_on_c, 1, 69, 90
4, 125397, Note_on_c, 1, 57, 0
4, 125397, Note_on_c, 1, 45, 0
4, 125399, Note_on_c, 1, 47, 90
4, 125400, Note_on_c, 1, 59, 90
4, 125519, Note_on_c, 1, 60, 90
4, 125520, Note_on_c, 1, 47, 0
4, 125521, Note_on_c, 1, 59, 0
4, 125522, Note_on_c, 1, 48, 90
4, 125633, Note_on_c, 1, 72, 0
4, 125634, Note_on_c, 1, 76, 0
4, 125637, Note_on_c, 1, 69, 0
4, 125638, Note_on_c, 1, 64, 0
4, 125638, Note_on_c, 1, 48, 0
4, 125638, Note_on_c, 1, 71, 90
4, 125638, Note_on_c, 1, 74, 90
4, 125638, Note_on_c, 1, 44, 90
4, 125639, Note_on_c, 1, 77, 90
4, 125640, Note_on_c, 1, 60, 0
4, 125640, Note_on_c, 1, 65, 90
4, 125642, Note_on_c, 1, 56, 90
4, 125754, Note_on_c, 1, 44, 0
4, 125754, Note_on_c, 1, 77, 0
4, 125758, Note_on_c, 1, 65, 0
4, 125758, Note_on_c, 1, 71, 0
4, 125758, Note_on_c, 1, 56, 0
4, 125758, Note_on_c, 1, 74, 0
4, 125758, Note_on_c, 1, 64, 90
4, 125758, Note_on_c, 1, 76, 90
4, 125759, Note_on_c, 1, 45, 90
4, 125760, Note_on_c, 1, 72, 90
4, 125760, Note_on_c, 1, 69, 90
4, 125761, Note_on_c, 1, 57, 90
4, 125875, Note_on_c, 1, 72, 0
4, 125876, Note_on_c, 1, 76, 0
4, 125880, Note_on_c, 1, 71, 90
4, 125882, Note_on_c, 1, 74, 90
4, 125938, Note_on_c, 1, 76, 90
4, 125940, Note_on_c, 1, 74, 0
4, 125940, Note_on_c, 1, 72, 90
4, 125941, Note_on_c, 1, 71, 0
4, 125994, Note_on_c, 1, 64, 0
4, 125998, Note_on_c, 1, 57, 0
4, 125998, Note_on_c, 1, 76, 0
4, 125998, Note_on_c, 1, 44, 90
4, 126000, Note_on_c, 1, 45, 0
4, 126000, Note_on_c, 1, 69, 0
4, 126001, Note_on_c, 1, 72, 0
4, 126001, Note_on_c, 1, 74, 90
4, 126002, Note_on_c, 1, 56, 90
4, 126002, Note_on_c, 1, 77, 90
4, 126002, Note_on_c, 1, 65, 90
4, 126116, Note_on_c, 1, 74, 0
4, 126118, Note_on_c, 1, 74, 90
4, 126120, Note_on_c, 1, 77, 0
4, 126122, Note_on_c, 1, 77, 90
4, 126233, Note_on_c, 1, 44, 0
4, 126236, Note_on_c, 1, 74, 0
4, 126238, Note_on_c, 1, 65, 0
4, 126238, Note_on_c, 1, 76, 90
4, 126239, Note_on_c, 1, 57, 90
4, 126240, Note_on_c, 1, 45, 90
4, 126240, Note_on_c, 1, 69, 90
4, 126241, Note_on_c, 1, 64, 90
4, 126242, Note_on_c, 1, 56, 0
4, 126242, Note_on_c, 1, 77, 0
4, 126242, Note_on_c, 1, 72, 90
4, 126353, Note_on_c, 1, 76, 0
4, 126359, Note_on_c, 1, 71, 90
4, 126360, Note_on_c, 1, 74, 90
4, 126361, Note_on_c, 1, 72, 0
4, 126416, Note_on_c, 1, 74, 0
4, 126418, Note_on_c, 1, 71, 0
4, 126420, Note_on_c, 1, 76, 90
4, 126421, Note_on_c, 1, 72, 90
4, 126475, Note_on_c, 1, 69, 0
4, 126476, Note_on_c, 1, 76, 0
4, 126476, Note_on_c, 1, 64, 0
4, 126476, Note_on_c, 1, 57, 0
4, 126479, Note_on_c, 1, 45, 0
4, 126479, Note_on_c, 1, 44, 90
4, 126480, Note_on_c, 1, 77, 90
4, 126480, Note_on_c, 1, 74, 90
4, 126481, Note_on_c, 1, 65, 90
4, 126482, Note_on_c, 1, 72, 0
4, 126482, Note_on_c, 1, 56, 90
4, 126597, Note_on_c, 1, 77, 0
4, 126598, Note_on_c, 1, 74, 0
4, 126598, Note_on_c, 1, 77, 90
4, 126600, Note_on_c, 1, 74, 90
4, 126715, Note_on_c, 1, 77, 0
4, 126716, Note_on_c, 1, 44, 0
4, 126718, Note_on_c, 1, 64, 90
4, 126719, Note_on_c, 1, 65, 0
4, 126719, Note_on_c, 1, 57, 90
4, 126720, Note_on_c, 1, 74, 0
4, 126720, Note_on_c, 1, 72, 90
4, 126720, Note_on_c, 1, 69, 90
4, 126721, Note_on_c, 1, 45, 90
4, 126722, Note_on_c, 1, 76, 90
4, 126723, Note_on_c, 1, 56, 0
4, 126835, Note_on_c, 1, 72, 0
4, 126838, Note_on_c, 1, 76, 0
4, 126840, Note_on_c, 1, 78, 90
4, 126898, Note_on_c, 1, 80, 90
4, 126901, Note_on_c, 1, 78, 0
4, 126954, Note_on_c, 1, 64, 0
4, 126954, Note_on_c, 1, 80, 0
4, 126959, Note_on_c, 1, 57, 0
4, 126960, Note_on_c, 1, 69, 0
4, 126961, Note_on_c, 1, 45, 0
4, 126961, Note_on_c, 1, 81, 90
4, 127079, Note_on_c, 1, 81, 0
4, 127080, Note_on_c, 1, 81, 90
4, 127140, Note_on_c, 1, 83, 90
4, 127141, Note_on_c, 1, 81, 0
4, 127198, Note_on_c, 1, 83, 0
4, 127198, Note_on_c, 1, 76, 90
4, 127199, Note_on_c, 1, 57, 90
4, 127201, Note_on_c, 1, 84, 90
4, 127202, Note_on_c, 1, 45, 90
4, 127202, Note_on_c, 1, 81, 90
4, 127317, Note_on_c, 1, 81, 0
4, 127317, Note_on_c, 1, 84, 0
4, 127320, Note_on_c, 1, 84, 90
4, 127377, Note_on_c, 1, 84, 0
4, 127379, Note_on_c, 1, 86, 90
4, 127433, Note_on_c, 1, 76, 0
4, 127434, Note_on_c, 1, 86, 0
4, 127437, Note_on_c, 1, 57, 0
4, 127439, Note_on_c, 1, 88, 90
4, 127440, Note_on_c, 1, 45, 0
4, 127680, Note_on_c, 1, 88, 0
4, 127680, Note_on_c, 1, 64, 90
4, 127681, Note_on_c, 1, 45, 90
4, 127682, Note_on_c, 1, 69, 90
4, 127682, Note_on_c, 1, 72, 90
4, 127918, Note_on_c, 1, 69, 0
4, 127919, Note_on_c, 1, 45, 0
4, 127920, Note_on_c, 1, 64, 0
4, 127923, Note_on_c, 1, 72, 0
4, 128158, Note_on_c, 1, 69, 90
4, 128159, Note_on_c, 1, 64, 90
4, 128160, Note_on_c, 1, 72, 90
4, 128161, Note_on_c, 1, 45, 90
4, 128394, Note_on_c, 1, 64, 0
4, 128395, Note_on_c, 1, 72, 0
4, 128398, Note_on_c, 1, 69, 0
4, 128402, Note_on_c, 1, 45, 0
4, 128638, Note_on_c, 1, 72, 90
4, 128640, Note_on_c, 1, 45, 90
4, 128641, Note_on_c, 1, 69, 90
4, 128641, Note_on_c, 1, 64, 90
4, 128876, Note_on_c, 1, 64, 0
4, 128878, Note_on_c, 1, 72, 0
4, 128879, Note_on_c, 1, 45, 0
4, 128882, Note_on_c, 1, 69, 0
4, 129118, Note_on_c, 1, 72, 90
4, 129119, Note_on_c, 1, 64, 90
4, 129120, Note_on_c, 1, 69, 90
4, 129122, Note_on_c, 1, 45, 90
4, 129353, Note_on_c, 1, 72, 0
4, 129356, Note_on_c, 1, 69, 0
4, 129358, Note_on_c, 1, 64, 0
4, 129359, Note_on_c, 1, 45, 0
4, 129599, Note_on_c, 1, 57, 90
4, 129601, Note_on_c, 1, 73, 90
4, 129717, Note_on_c, 1, 57, 0
4, 129719, Note_on_c, 1, 69, 90
4, 129720, Note_on_c, 1, 73, 0
4, 129720, Note_on_c, 1, 59, 90
4, 129838, Note_on_c, 1, 69, 0
4, 129839, Note_on_c, 1, 61, 90
4, 129840, Note_on_c, 1, 59, 0
4, 129842, Note_on_c, 1, 76, 90
4, 129959, Note_on_c, 1, 76, 0
4, 129959, Note_on_c, 1, 61, 0
4, 129961, Note_on_c, 1, 81, 90
4, 129962, Note_on_c, 1, 57, 90
4, 130078, Note_on_c, 1, 73, 90
4, 130079, Note_on_c, 1, 69, 90
4, 130080, Note_on_c, 1, 57, 0
4, 130080, Note_on_c, 1, 76, 90
4, 130081, Note_on_c, 1, 81, 0
4, 130081, Note_on_c, 1, 45, 90
4, 130315, Note_on_c, 1, 73, 0
4, 130316, Note_on_c, 1, 69, 0
4, 130320, Note_on_c, 1, 76, 0
4, 130321, Note_on_c, 1, 45, 0
4, 130561, Note_on_c, 1, 73, 90
4, 130562, Note_on_c, 1, 57, 90
4, 130678, Note_on_c, 1, 69, 90
4, 130679, Note_on_c, 1, 73, 0
4, 130681, Note_on_c, 1, 57, 0
4, 130681, Note_on_c, 1, 59, 90
4, 130797, Note_on_c, 1, 69, 0
4, 130798, Note_on_c, 1, 61, 90
4, 130800, Note_on_c, 1, 76, 90
4, 130801, Note_on_c, 1, 59, 0
4, 130915, Note_on_c, 1, 76, 0
4, 130917, Note_on_c, 1, 61, 0
4, 130918, Note_on_c, 1, 79, 90
4, 130922, Note_on_c, 1, 57, 90
4, 131037, Note_on_c, 1, 79, 0
4, 131038, Note_on_c, 1, 57, 0
4, 131038, Note_on_c, 1, 76, 90
4, 131038, Note_on_c, 1, 69, 90
4, 131039, Note_on_c, 1, 45, 90
4, 131040, Note_on_c, 1, 73, 90
4, 131275, Note_on_c, 1, 45, 0
4, 131276, Note_on_c, 1, 73, 0
4, 131278, Note_on_c, 1, 69, 0
4, 131279, Note_on_c, 1, 76, 0
4, 131518, Note_on_c, 1, 50, 90
4, 131519, Note_on_c, 1, 74, 90
4, 131634, Note_on_c, 1, 50, 0
4, 131637, Note_on_c, 1, 74, 0
4, 131639, Note_on_c, 1, 62, 90
4, 131642, Note_on_c, 1, 52, 90
4, 131758, Note_on_c, 1, 52, 0
4, 131759, Note_on_c, 1, 62, 0
4, 131759, Note_on_c, 1, 54, 90
4, 131761, Note_on_c, 1, 69, 90
4, 131874, Note_on_c, 1, 54, 0
4, 131878, Note_on_c, 1, 74, 90
4, 131879, Note_on_c, 1, 69, 0
4, 131881, Note_on_c, 1, 50, 90
4, 131994, Note_on_c, 1, 74, 0
4, 131998, Note_on_c, 1, 38, 90
4, 131999, Note_on_c, 1, 69, 90
4, 132000, Note_on_c, 1, 50, 0
4, 132000, Note_on_c, 1, 62, 90
4, 132001, Note_on_c, 1, 66, 90
4, 132233, Note_on_c, 1, 38, 0
4, 132237, Note_on_c, 1, 69, 0
4, 132239, Note_on_c, 1, 62, 0
4, 132242, Note_on_c, 1, 66, 0
4, 132479, Note_on_c, 1, 50, 90
4, 132480, Note_on_c, 1, 74, 90
4, 132598, Note_on_c, 1, 62, 90
4, 132599, Note_on_c, 1, 74, 0
4, 132600, Note_on_c, 1, 50, 0
4, 132600, Note_on_c, 1, 52, 90
4, 132714, Note_on_c, 1, 62, 0
4, 132719, Note_on_c, 1, 52, 0
4, 132720, Note_on_c, 1, 54, 90
4, 132721, Note_on_c, 1, 69, 90
4, 132836, Note_on_c, 1, 54, 0
4, 132840, Note_on_c, 1, 69, 0
4, 132842, Note_on_c, 1, 50, 90
4, 132842, Note_on_c, 1, 72, 90
4, 132958, Note_on_c, 1, 50, 0
4, 132958, Note_on_c, 1, 62, 90
4, 132959, Note_on_c, 1, 69, 90
4, 132959, Note_on_c, 1, 66, 90
4, 132960, Note_on_c, 1, 72, 0
4, 132962, Note_on_c, 1, 38, 90
4, 133196, Note_on_c, 1, 69, 0
4, 133197, Note_on_c, 1, 38, 0
4, 133198, Note_on_c, 1, 62, 0
4, 133198, Note_on_c, 1, 66, 0
4, 133438, Note_on_c, 1, 55, 90
4, 133438, Note_on_c, 1, 71, 90
4, 133442, Note_on_c, 1, 62, 90
4, 133559, Note_on_c, 1, 71, 0
4, 133559, Note_on_c, 1, 55, 0
4, 133559, Note_on_c, 1, 67, 90
4, 133560, Note_on_c, 1, 53, 90
4, 133563, Note_on_c, 1, 62, 0
4, 133677, Note_on_c, 1, 53, 0
4, 133677, Note_on_c, 1, 67, 0
4, 133680, Note_on_c, 1, 72, 90
4, 133681, Note_on_c, 1, 52, 90
4, 133681, Note_on_c, 1, 67, 90
4, 133798, Note_on_c, 1, 67, 0
4, 133800, Note_on_c, 1, 52, 0
4, 133800, Note_on_c, 1, 72, 0
4, 133800, Note_on_c, 1, 67, 90
4, 133802, Note_on_c, 1, 50, 90
4, 133917, Note_on_c, 1, 67, 0
4, 133919, Note_on_c, 1, 79, 90
4, 133920, Note_on_c, 1, 52, 90
4, 133920, Note_on_c, 1, 72, 90
4, 133921, Note_on_c, 1, 50, 0
4, 134036, Note_on_c, 1, 79, 0
4, 134039, Note_on_c, 1, 67, 90
4, 134039, Note_on_c, 1, 48, 90
4, 134040, Note_on_c, 1, 52, 0
4, 134040, Note_on_c, 1, 72, 0
4, 134154, Note_on_c, 1, 67, 0
4, 134157, Note_on_c, 1, 48, 0
4, 134161, Note_on_c, 1, 47, 90
4, 134162, Note_on_c, 1, 74, 90
4, 134277, Note_on_c, 1, 74, 0
4, 134278, Note_on_c, 1, 47, 0
4, 134278, Note_on_c, 1, 67, 90
4, 134280, Note_on_c, 1, 77, 90
4, 134281, Note_on_c, 1, 43, 90
4, 134282, Note_on_c, 1, 74, 90
4, 134395, Note_on_c, 1, 67, 0
4, 134397, Note_on_c, 1, 77, 0
4, 134399, Note_on_c, 1, 74, 0
4, 134400, Note_on_c, 1, 76, 90
4, 134400, Note_on_c, 1, 72, 90
4, 134400, Note_on_c, 1, 48, 90
4, 134401, Note_on_c, 1, 67, 90
4, 134402, Note_on_c, 1, 43, 0
4, 134638, Note_on_c, 1, 48, 0
4, 134639, Note_on_c, 1, 76, 0
4, 134640, Note_on_c, 1, 67, 0
4, 134641, Note_on_c, 1, 72, 0
4, 134878, Note_on_c, 1, 67, 90
4, 134879, Note_on_c, 1, 48, 90
4, 134881, Note_on_c, 1, 72, 90
4, 134882, Note_on_c, 1, 76, 90
4, 135118, Note_on_c, 1, 72, 0
4, 135118, Note_on_c, 1, 67, 0
4, 135119, Note_on_c, 1, 48, 0
4, 135120, Note_on_c, 1, 76, 0
4, 135358, Note_on_c, 1, 55, 90
4, 135359, Note_on_c, 1, 74, 90
4, 135362, Note_on_c, 1, 72, 90
4, 135362, Note_on_c, 1, 67, 90
4, 135594, Note_on_c, 1, 74, 0
4, 135595, Note_on_c, 1, 55, 0
4, 135602, Note_on_c, 1, 72, 0
4, 135603, Note_on_c, 1, 67, 0
4, 135838, Note_on_c, 1, 74, 90
4, 135839, Note_on_c, 1, 72, 90
4, 135840, Note_on_c, 1, 55, 90
4, 135840, Note_on_c, 1, 67, 90
4, 136074, Note_on_c, 1, 72, 0
4, 136076, Note_on_c, 1, 67, 0
4, 136077, Note_on_c, 1, 55, 0
4, 136077, Note_on_c, 1, 74, 0
4, 136319, Note_on_c, 1, 71, 90
4, 136320, Note_on_c, 1, 43, 90
4, 136322, Note_on_c, 1, 67, 90
4, 136322, Note_on_c, 1, 74, 90
4, 136558, Note_on_c, 1, 67, 0
4, 136560, Note_on_c, 1, 71, 0
4, 136560, Note_on_c, 1, 43, 0
4, 136561, Note_on_c, 1, 74, 0
4, 136799, Note_on_c, 1, 74, 90
4, 136799, Note_on_c, 1, 43, 90
4, 136800, Note_on_c, 1, 67, 90
4, 136800, Note_on_c, 1, 71, 90
4, 137035, Note_on_c, 1, 71, 0
4, 137036, Note_on_c, 1, 67, 0
4, 137036, Note_on_c, 1, 74, 0
4, 137037, Note_on_c, 1, 43, 0
4, 137279, Note_on_c, 1, 64, 90
4, 137279, Note_on_c, 1, 67, 90
4, 137281, Note_on_c, 1, 72, 90
4, 137282, Note_on_c, 1, 48, 90
4, 137517, Note_on_c, 1, 48, 0
4, 137517, Note_on_c, 1, 72, 0
4, 137517, Note_on_c, 1, 67, 0
4, 137520, Note_on_c, 1, 64, 0
4, 137638, Note_on_c, 1, 67, 90
4, 137640, Note_on_c, 1, 47, 90
4, 137640, Note_on_c, 1, 74, 90
4, 137757, Note_on_c, 1, 67, 0
4, 137758, Note_on_c, 1, 74, 0
4, 137758, Note_on_c, 1, 47, 0
4, 137758, Note_on_c, 1, 48, 90
4, 137759, Note_on_c, 1, 67, 90
4, 137759, Note_on_c, 1, 76, 90
4, 137875, Note_on_c, 1, 76, 0
4, 137875, Note_on_c, 1, 48, 0
4, 137877, Note_on_c, 1, 67, 0
4, 137878, Note_on_c, 1, 69, 90
4, 137881, Note_on_c, 1, 53, 90
4, 137995, Note_on_c, 1, 69, 0
4, 137996, Note_on_c, 1, 53, 0
4, 137998, Note_on_c, 1, 67, 90
4, 137999, Note_on_c, 1, 74, 90
4, 138000, Note_on_c, 1, 55, 90
4, 138002, Note_on_c, 1, 71, 90
4, 138117, Note_on_c, 1, 71, 0
4, 138118, Note_on_c, 1, 67, 0
4, 138118, Note_on_c, 1, 65, 90
4, 138119, Note_on_c, 1, 74, 0
4, 138120, Note_on_c, 1, 43, 90
4, 138121, Note_on_c, 1, 55, 0
4, 138238, Note_on_c, 1, 43, 0
4, 138238, Note_on_c, 1, 64, 90
4, 138238, Note_on_c, 1, 48, 90
4, 138239, Note_on_c, 1, 65, 0
4, 138240, Note_on_c, 1, 72, 90
4, 138240, Note_on_c, 1, 67, 90
4, 138473, Note_on_c, 1, 64, 0
4, 138477, Note_on_c, 1, 67, 0
4, 138478, Note_on_c, 1, 72, 0
4, 138479, Note_on_c, 1, 48, 0
4, 138599, Note_on_c, 1, 74, 90
4, 138602, Note_on_c, 1, 67, 90
4, 138602, Note_on_c, 1, 47, 90
4, 138717, Note_on_c, 1, 74, 0
4, 138718, Note_on_c, 1, 76, 90
4, 138721, Note_on_c, 1, 47, 0
4, 138721, Note_on_c, 1, 67, 0
4, 138722, Note_on_c, 1, 48, 90
4, 138722, Note_on_c, 1, 67, 90
4, 138836, Note_on_c, 1, 76, 0
4, 138838, Note_on_c, 1, 69, 90
4, 138838, Note_on_c, 1, 53, 90
4, 138841, Note_on_c, 1, 67, 0
4, 138842, Note_on_c, 1, 48, 0
4, 138954, Note_on_c, 1, 53, 0
4, 138956, Note_on_c, 1, 69, 0
4, 138958, Note_on_c, 1, 55, 90
4, 138960, Note_on_c, 1, 71, 90
4, 138961, Note_on_c, 1, 74, 90
4, 138961, Note_on_c, 1, 67, 90
4, 139075, Note_on_c, 1, 55, 0
4, 139077, Note_on_c, 1, 71, 0
4, 139077, Note_on_c, 1, 67, 0
4, 139078, Note_on_c, 1, 74, 0
4, 139079, Note_on_c, 1, 65, 90
4, 139080, Note_on_c, 1, 43, 90
4, 139194, Note_on_c, 1, 65, 0
4, 139196, Note_on_c, 1, 43, 0
4, 139200, Note_on_c, 1, 67, 90
4, 139202, Note_on_c, 1, 64, 90
4, 139202, Note_on_c, 1, 60, 90
4, 139202, Note_on_c, 1, 72, 90
4, 139317, Note_on_c, 1, 64, 0
4, 139317, Note_on_c, 1, 67, 0
4, 139318, Note_on_c, 1, 62, 90
4, 139322, Note_on_c, 1, 60, 0
4, 139322, Note_on_c, 1, 65, 90
4, 139433, Note_on_c, 1, 62, 0
4, 139438, Note_on_c, 1, 72, 0
4, 139440, Note_on_c, 1, 67, 90
4, 139440, Note_on_c, 1, 64, 90
4, 139441, Note_on_c, 1, 65, 0
4, 139556, Note_on_c, 1, 64, 0
4, 139558, Note_on_c, 1, 64, 90
4, 139560, Note_on_c, 1, 67, 0
4, 139560, Note_on_c, 1, 60, 90
4, 139560, Note_on_c, 1, 69, 90
4, 139675, Note_on_c, 1, 60, 0
4, 139677, Note_on_c, 1, 64, 0
4, 139678, Note_on_c, 1, 54, 90
4, 139679, Note_on_c, 1, 69, 0
4, 139679, Note_on_c, 1, 63, 90
4, 139682, Note_on_c, 1, 71, 90
4, 139795, Note_on_c, 1, 54, 0
4, 139801, Note_on_c, 1, 52, 90
4, 139914, Note_on_c, 1, 63, 0
4, 139921, Note_on_c, 1, 52, 0
4, 139921, Note_on_c, 1, 51, 90
4, 139922, Note_on_c, 1, 71, 0
4, 140040, Note_on_c, 1, 51, 0
4, 140040, Note_on_c, 1, 49, 90
4, 140041, Note_on_c, 1, 69, 90
4, 140158, Note_on_c, 1, 69, 0
4, 140158, Note_on_c, 1, 49, 0
4, 140158, Note_on_c, 1, 63, 90
4, 140160, Note_on_c, 1, 69, 90
4, 140162, Note_on_c, 1, 47, 90
4, 140277, Note_on_c, 1, 47, 0
4, 140279, Note_on_c, 1, 63, 0
4, 140279, Note_on_c, 1, 49, 90
4, 140281, Note_on_c, 1, 64, 90
4, 140396, Note_on_c, 1, 49, 0
4, 140397, Note_on_c, 1, 64, 0
4, 140398, Note_on_c, 1, 71, 90
4, 140399, Note_on_c, 1, 69, 0
4, 140399, Note_on_c, 1, 51, 90
4, 140401, Note_on_c, 1, 66, 90
4, 140514, Note_on_c, 1, 71, 0
4, 140516, Note_on_c, 1, 51, 0
4, 140518, Note_on_c, 1, 47, 90
4, 140519, Note_on_c, 1, 63, 90
4, 140521, Note_on_c, 1, 71, 90
4, 140522, Note_on_c, 1, 66, 0
4, 140634, Note_on_c, 1, 47, 0
4, 140636, Note_on_c, 1, 71, 0
4, 140638, Note_on_c, 1, 63, 0
4, 140638, Note_on_c, 1, 71, 90
4, 140640, Note_on_c, 1, 67, 90
4, 140640, Note_on_c, 1, 64, 90
4, 140642, Note_on_c, 1, 52, 90
4, 140754, Note_on_c, 1, 71, 0
4, 140756, Note_on_c, 1, 64, 0
4, 140760, Note_on_c, 1, 66, 90
4, 140760, Note_on_c, 1, 72, 90
4, 140760, Note_on_c, 1, 57, 90
4, 140761, Note_on_c, 1, 67, 0
4, 140761, Note_on_c, 1, 52, 0
4, 140761, Note_on_c, 1, 64, 90
4, 140876, Note_on_c, 1, 66, 0
4, 140878, Note_on_c, 1, 71, 90
4, 140879, Note_on_c, 1, 64, 0
4, 140879, Note_on_c, 1, 66, 90
4, 140880, Note_on_c, 1, 57, 0
4, 140880, Note_on_c, 1, 72, 0
4, 140880, Note_on_c, 1, 59, 90
4, 140881, Note_on_c, 1, 64, 90
4, 140996, Note_on_c, 1, 59, 0
4, 140996, Note_on_c, 1, 66, 0
4, 140996, Note_on_c, 1, 71, 0
4, 140998, Note_on_c, 1, 63, 90
4, 140998, Note_on_c, 1, 71, 90
4, 141000, Note_on_c, 1, 47, 90
4, 141001, Note_on_c, 1, 64, 0
4, 141002, Note_on_c, 1, 66, 90
4, 141115, Note_on_c, 1, 71, 0
4, 141116, Note_on_c, 1, 47, 0
4, 141116, Note_on_c, 1, 63, 0
4, 141118, Note_on_c, 1, 66, 0
4, 141118, Note_on_c, 1, 67, 90
4, 141120, Note_on_c, 1, 52, 90
4, 141122, Note_on_c, 1, 71, 90
4, 141122, Note_on_c, 1, 64, 90
4, 141357, Note_on_c, 1, 67, 0
4, 141358, Note_on_c, 1, 64, 0
4, 141358, Note_on_c, 1, 71, 0
4, 141359, Note_on_c, 1, 52, 0
4, 141479, Note_on_c, 1, 51, 90
4, 141482, Note_on_c, 1, 71, 90
4, 141597, Note_on_c, 1, 51, 0
4, 141599, Note_on_c, 1, 71, 0
4, 141599, Note_on_c, 1, 52, 90
4, 141601, Note_on_c, 1, 71, 90
4, 141716, Note_on_c, 1, 52, 0
4, 141719, Note_on_c, 1, 72, 90
4, 141721, Note_on_c, 1, 71, 0
4, 141721, Note_on_c, 1, 57, 90
4, 141838, Note_on_c, 1, 63, 90
4, 141839, Note_on_c, 1, 57, 0
4, 141839, Note_on_c, 1, 59, 90
4, 141840, Note_on_c, 1, 72, 0
4, 141896, Note_on_c, 1, 63, 0
4, 141902, Note_on_c, 1, 66, 90
4, 141959, Note_on_c, 1, 59, 0
4, 141959, Note_on_c, 1, 47, 90
4, 141960, Note_on_c, 1, 66, 0
4, 141961, Note_on_c, 1, 71, 90
4, 142019, Note_on_c, 1, 69, 90
4, 142021, Note_on_c, 1, 71, 0
4, 142075, Note_on_c, 1, 47, 0
4, 142078, Note_on_c, 1, 67, 90
4, 142080, Note_on_c, 1, 69, 0
4, 142080, Note_on_c, 1, 52, 90
4, 142313, Note_on_c, 1, 67, 0
4, 142321, Note_on_c, 1, 52, 0
4, 142438, Note_on_c, 1, 51, 90
4, 142440, Note_on_c, 1, 71, 90
4, 142557, Note_on_c, 1, 71, 0
4, 142559, Note_on_c, 1, 51, 0
4, 142559, Note_on_c, 1, 71, 90
4, 142560, Note_on_c, 1, 52, 90
4, 142677, Note_on_c, 1, 52, 0
4, 142678, Note_on_c, 1, 57, 90
4, 142679, Note_on_c, 1, 71, 0
4, 142681, Note_on_c, 1, 72, 90
4, 142794, Note_on_c, 1, 57, 0
4, 142800, Note_on_c, 1, 72, 0
4, 142800, Note_on_c, 1, 59, 90
4, 142801, Note_on_c, 1, 63, 90
4, 142857, Note_on_c, 1, 63, 0
4, 142861, Note_on_c, 1, 66, 90
4, 142916, Note_on_c, 1, 66, 0
4, 142920, Note_on_c, 1, 71, 90
4, 142920, Note_on_c, 1, 47, 90
4, 142921, Note_on_c, 1, 59, 0
4, 142975, Note_on_c, 1, 71, 0
4, 142982, Note_on_c, 1, 69, 90
4, 143035, Note_on_c, 1, 47, 0
4, 143038, Note_on_c, 1, 68, 90
4, 143039, Note_on_c, 1, 52, 90
4, 143040, Note_on_c, 1, 69, 0
4, 143154, Note_on_c, 1, 52, 0
4, 143159, Note_on_c, 1, 68, 0
4, 143160, Note_on_c, 1, 69, 90
4, 143160, Note_on_c, 1, 54, 90
4, 143275, Note_on_c, 1, 69, 0
4, 143276, Note_on_c, 1, 54, 0
4, 143279, Note_on_c, 1, 71, 90
4, 143282, Note_on_c, 1, 56, 90
4, 143397, Note_on_c, 1, 71, 0
4, 143398, Note_on_c, 1, 52, 90
4, 143398, Note_on_c, 1, 76, 90
4, 143402, Note_on_c, 1, 71, 90
4, 143402, Note_on_c, 1, 64, 90
4, 143403, Note_on_c, 1, 56, 0
4, 143515, Note_on_c, 1, 52, 0
4, 143517, Note_on_c, 1, 64, 0
4, 143518, Note_on_c, 1, 76, 0
4, 143518, Note_on_c, 1, 64, 90
4, 143521, Note_on_c, 1, 69, 90
4, 143521, Note_on_c, 1, 57, 90
4, 143522, Note_on_c, 1, 71, 0
4, 143522, Note_on_c, 1, 72, 90
4, 143640, Note_on_c, 1, 57, 0
4, 143641, Note_on_c, 1, 45, 90
4, 143757, Note_on_c, 1, 45, 0
4, 143759, Note_on_c, 1, 72, 0
4, 143759, Note_on_c, 1, 69, 0
4, 143759, Note_on_c, 1, 64, 0
4, 143879, Note_on_c, 1, 64, 90
4, 143881, Note_on_c, 1, 57, 90
4, 143882, Note_on_c, 1, 72, 90
4, 143882, Note_on_c, 1, 69, 90
4, 143994, Note_on_c, 1, 64, 0
4, 143996, Note_on_c, 1, 57, 0
4, 143996, Note_on_c, 1, 72, 0
4, 143998, Note_on_c, 1, 69, 0
4, 143998, Note_on_c, 1, 72, 90
4, 144000, Note_on_c, 1, 69, 90
4, 144002, Note_on_c, 1, 62, 90
4, 144002, Note_on_c, 1, 65, 90
4, 144115, Note_on_c, 1, 72, 0
4, 144118, Note_on_c, 1, 69, 0
4, 144118, Note_on_c, 1, 65, 0
4, 144119, Note_on_c, 1, 62, 0
4, 144120, Note_on_c, 1, 72, 90
4, 144121, Note_on_c, 1, 62, 90
4, 144121, Note_on_c, 1, 69, 90
4, 144122, Note_on_c, 1, 65, 90
4, 144236, Note_on_c, 1, 65, 0
4, 144236, Note_on_c, 1, 69, 0
4, 144236, Note_on_c, 1, 62, 0
4, 144238, Note_on_c, 1, 62, 90
4, 144238, Note_on_c, 1, 65, 90
4, 144239, Note_on_c, 1, 72, 0
4, 144241, Note_on_c, 1, 72, 90
4, 144242, Note_on_c, 1, 69, 90
4, 144354, Note_on_c, 1, 62, 0
4, 144357, Note_on_c, 1, 69, 0
4, 144357, Note_on_c, 1, 72, 0
4, 144358, Note_on_c, 1, 65, 0
4, 144359, Note_on_c, 1, 72, 90
4, 144360, Note_on_c, 1, 65, 90
4, 144361, Note_on_c, 1, 69, 90
4, 144362, Note_on_c, 1, 62, 90
4, 144477, Note_on_c, 1, 65, 0
4, 144479, Note_on_c, 1, 62, 0
4, 144479, Note_on_c, 1, 69, 0
4, 144479, Note_on_c, 1, 71, 90
4, 144480, Note_on_c, 1, 72, 0
4, 144481, Note_on_c, 1, 65, 90
4, 144482, Note_on_c, 1, 55, 90
4, 144482, Note_on_c, 1, 62, 90
4, 144596, Note_on_c, 1, 71, 0
4, 144597, Note_on_c, 1, 62, 0
4, 144597, Note_on_c, 1, 55, 0
4, 144598, Note_on_c, 1, 65, 0
4, 144598, Note_on_c, 1, 71, 90
4, 144601, Note_on_c, 1, 65, 90
4, 144601, Note_on_c, 1, 43, 90
4, 144602, Note_on_c, 1, 62, 90
4, 144717, Note_on_c, 1, 43, 0
4, 144717, Note_on_c, 1, 71, 0
4, 144720, Note_on_c, 1, 65, 0
4, 144722, Note_on_c, 1, 62, 0
4, 144840, Note_on_c, 1, 55, 90
4, 144840, Note_on_c, 1, 62, 90
4, 144841, Note_on_c, 1, 65, 90
4, 144842, Note_on_c, 1, 71, 90
4, 144957, Note_on_c, 1, 62, 0
4, 144958, Note_on_c, 1, 55, 0
4, 144959, Note_on_c, 1, 71, 0
4, 144960, Note_on_c, 1, 60, 90
4, 144962, Note_on_c, 1, 65, 0
4, 144962, Note_on_c, 1, 67, 90
4, 144962, Note_on_c, 1, 64, 90
4, 144962, Note_on_c, 1, 71, 90
4, 145078, Note_on_c, 1, 64, 0
4, 145078, Note_on_c, 1, 67, 0
4, 145079, Note_on_c, 1, 71, 0
4, 145079, Note_on_c, 1, 67, 90
4, 145080, Note_on_c, 1, 60, 0
4, 145081, Note_on_c, 1, 64, 90
4, 145081, Note_on_c, 1, 71, 90
4, 145082, Note_on_c, 1, 60, 90
4, 145197, Note_on_c, 1, 67, 0
4, 145198, Note_on_c, 1, 64, 0
4, 145198, Note_on_c, 1, 71, 0
4, 145198, Note_on_c, 1, 60, 0
4, 145201, Note_on_c, 1, 71, 90
4, 145201, Note_on_c, 1, 67, 90
4, 145201, Note_on_c, 1, 60, 90
4, 145202, Note_on_c, 1, 64, 90
4, 145317, Note_on_c, 1, 60, 0
4, 145317, Note_on_c, 1, 71, 0
4, 145317, Note_on_c, 1, 67, 0
4, 145318, Note_on_c, 1, 64, 0
4, 145319, Note_on_c, 1, 60, 90
4, 145319, Note_on_c, 1, 67, 90
4, 145319, Note_on_c, 1, 64, 90
4, 145322, Note_on_c, 1, 71, 90
4, 145434, Note_on_c, 1, 64, 0
4, 145437, Note_on_c, 1, 60, 0
4, 145437, Note_on_c, 1, 67, 0
4, 145440, Note_on_c, 1, 53, 90
4, 145441, Note_on_c, 1, 69, 90
4, 145442, Note_on_c, 1, 60, 90
4, 145442, Note_on_c, 1, 64, 90
4, 145443, Note_on_c, 1, 71, 0
4, 145556, Note_on_c, 1, 53, 0
4, 145556, Note_on_c, 1, 64, 0
4, 145556, Note_on_c, 1, 69, 0
4, 145557, Note_on_c, 1, 60, 0
4, 145558, Note_on_c, 1, 64, 90
4, 145558, Note_on_c, 1, 69, 90
4, 145559, Note_on_c, 1, 60, 90
4, 145559, Note_on_c, 1, 41, 90
4, 145674, Note_on_c, 1, 41, 0
4, 145674, Note_on_c, 1, 69, 0
4, 145678, Note_on_c, 1, 64, 0
4, 145679, Note_on_c, 1, 62, 90
4, 145680, Note_on_c, 1, 60, 0
4, 145682, Note_on_c, 1, 69, 90
4, 145797, Note_on_c, 1, 69, 0
4, 145799, Note_on_c, 1, 62, 0
4, 145799, Note_on_c, 1, 69, 90
4, 145800, Note_on_c, 1, 74, 90
4, 145801, Note_on_c, 1, 53, 90
4, 145802, Note_on_c, 1, 62, 90
4, 145917, Note_on_c, 1, 53, 0
4, 145917, Note_on_c, 1, 69, 0
4, 145918, Note_on_c, 1, 71, 90
4, 145919, Note_on_c, 1, 64, 90
4, 145920, Note_on_c, 1, 68, 90
4, 145921, Note_on_c, 1, 74, 0
4, 145921, Note_on_c, 1, 52, 90
4, 145923, Note_on_c, 1, 62, 0
4, 146156, Note_on_c, 1, 68, 0
4, 146157, Note_on_c, 1, 71, 0
4, 146159, Note_on_c, 1, 64, 0
4, 146162, Note_on_c, 1, 52, 0
4, 146878, Note_on_c, 1, 64, 90
4, 146880, Note_on_c, 1, 45, 90
4, 146880, Note_on_c, 1, 72, 90
4, 146881, Note_on_c, 1, 69, 90
4, 147116, Note_on_c, 1, 72, 0
4, 147116, Note_on_c, 1, 45, 0
4, 147118, Note_on_c, 1, 64, 0
4, 147118, Note_on_c, 1, 69, 0
4, 147840, Note_on_c, 1, 45, 90
4, 147841, Note_on_c, 1, 64, 90
4, 147842, Note_on_c, 1, 72, 90
4, 147842, Note_on_c, 1, 69, 90
4, 148080, Note_on_c, 1, 45, 0
4, 148081, Note_on_c, 1, 69, 0
4, 148081, Note_on_c, 1, 72, 0
4, 148082, Note_on_c, 1, 64, 0
4, 148798, Note_on_c, 1, 64, 90
4, 148798, Note_on_c, 1, 72, 90
4, 148798, Note_on_c, 1, 69, 90
4, 148799, Note_on_c, 1, 33, 90
4, 148801, Note_on_c, 1, 45, 90
4, 148920, Note_on_c, 1, 76, 90
4, 149033, Note_on_c, 1, 72, 0
4, 149037, Note_on_c, 1, 33, 0
4, 149037, Note_on_c, 1, 64, 0
4, 149038, Note_on_c, 1, 45, 0
4, 149038, Note_on_c, 1, 76, 0
4, 149039, Note_on_c, 1, 69, 0
4, 149039, Note_on_c, 1, 81, 90
4, 149157, Note_on_c, 1, 81, 0
4, 149159, Note_on_c, 1, 83, 90
4, 149160, Note_on_c, 1, 44, 90
4, 149161, Note_on_c, 1, 76, 90
4, 149276, Note_on_c, 1, 83, 0
4, 149279, Note_on_c, 1, 84, 90
4, 149280, Note_on_c, 1, 76, 0
4, 149280, Note_on_c, 1, 45, 90
4, 149281, Note_on_c, 1, 44, 0
4, 149281, Note_on_c, 1, 76, 90
4, 149398, Note_on_c, 1, 76, 0
4, 149398, Note_on_c, 1, 45, 0
4, 149398, Note_on_c, 1, 84, 0
4, 149398, Note_on_c, 1, 50, 90
4, 149402, Note_on_c, 1, 77, 90
4, 149517, Note_on_c, 1, 77, 0
4, 149518, Note_on_c, 1, 83, 90
4, 149519, Note_on_c, 1, 50, 0
4, 149519, Note_on_c, 1, 80, 90
4, 149521, Note_on_c, 1, 52, 90
4, 149521, Note_on_c, 1, 76, 90
4, 149633, Note_on_c, 1, 83, 0
4, 149637, Note_on_c, 1, 76, 0
4, 149638, Note_on_c, 1, 80, 0
4, 149639, Note_on_c, 1, 40, 90
4, 149640, Note_on_c, 1, 52, 0
4, 149640, Note_on_c, 1, 74, 90
4, 149755, Note_on_c, 1, 74, 0
4, 149757, Note_on_c, 1, 40, 0
4, 149759, Note_on_c, 1, 76, 90
4, 149760, Note_on_c, 1, 57, 90
4, 149761, Note_on_c, 1, 81, 90
4, 149762, Note_on_c, 1, 72, 90
4, 149875, Note_on_c, 1, 57, 0
4, 149876, Note_on_c, 1, 76, 0
4, 149878, Note_on_c, 1, 72, 0
4, 149878, Note_on_c, 1, 74, 90
4, 149881, Note_on_c, 1, 59, 90
4, 149993, Note_on_c, 1, 74, 0
4, 149996, Note_on_c, 1, 81, 0
4, 149997, Note_on_c, 1, 59, 0
4, 149999, Note_on_c, 1, 60, 90
4, 150000, Note_on_c, 1, 76, 90
4, 150118, Note_on_c, 1, 60, 0
4, 150121, Note_on_c, 1, 76, 0
4, 150121, Note_on_c, 1, 81, 90
4, 150122, Note_on_c, 1, 72, 90
4, 150122, Note_on_c, 1, 57, 90
4, 150237, Note_on_c, 1, 81, 0
4, 150238, Note_on_c, 1, 57, 0
4, 150240, Note_on_c, 1, 72, 0
4, 150240, Note_on_c, 1, 59, 90
4, 150241, Note_on_c, 1, 79, 90
4, 150242, Note_on_c, 1, 72, 90
4, 150359, Note_on_c, 1, 79, 0
4, 150361, Note_on_c, 1, 77, 90
4, 150477, Note_on_c, 1, 77, 0
4, 150477, Note_on_c, 1, 72, 0
4, 150478, Note_on_c, 1, 59, 0
4, 150478, Note_on_c, 1, 76, 90
4, 150480, Note_on_c, 1, 62, 90
4, 150480, Note_on_c, 1, 56, 90
4, 150481, Note_on_c, 1, 69, 90
4, 150598, Note_on_c, 1, 76, 0
4, 150598, Note_on_c, 1, 74, 90
4, 150715, Note_on_c, 1, 62, 0
4, 150715, Note_on_c, 1, 56, 0
4, 150717, Note_on_c, 1, 74, 0
4, 150718, Note_on_c, 1, 72, 90
4, 150720, Note_on_c, 1, 64, 90
4, 150721, Note_on_c, 1, 69, 0
4, 150722, Note_on_c, 1, 57, 90
4, 150837, Note_on_c, 1, 72, 0
4, 150842, Note_on_c, 1, 71, 90
4, 150955, Note_on_c, 1, 64, 0
4, 150957, Note_on_c, 1, 71, 0
4, 150960, Note_on_c, 1, 69, 90
4, 150963, Note_on_c, 1, 57, 0
4, 151081, Note_on_c, 1, 69, 0
4, 151081, Note_on_c, 1, 52, 90
4, 151081, Note_on_c, 1, 68, 90
4, 151082, Note_on_c, 1, 64, 90
4, 151082, Note_on_c, 1, 71, 90
4, 151197, Note_on_c, 1, 64, 0
4, 151198, Note_on_c, 1, 68, 0
4, 151199, Note_on_c, 1, 64, 90
4, 151199, Note_on_c, 1, 45, 90
4, 151200, Note_on_c, 1, 52, 0
4, 151201, Note_on_c, 1, 72, 90
4, 151201, Note_on_c, 1, 69, 90
4, 151201, Note_on_c, 1, 57, 90
4, 151203, Note_on_c, 1, 71, 0
4, 151314, Note_on_c, 1, 64, 0
4, 151318, Note_on_c, 1, 45, 0
4, 151321, Note_on_c, 1, 72, 0
4, 151321, Note_on_c, 1, 57, 0
4, 151321, Note_on_c, 1, 69, 0
4, 151438, Note_on_c, 1, 53, 90
4, 151438, Note_on_c, 1, 41, 90
4, 151441, Note_on_c, 1, 74, 90
4, 151441, Note_on_c, 1, 62, 90
4, 151442, Note_on_c, 1, 69, 90
4, 151558, Note_on_c, 1, 62, 0
4, 151558, Note_on_c, 1, 53, 0
4, 151559, Note_on_c, 1, 41, 0
4, 151560, Note_on_c, 1, 74, 0
4, 151560, Note_on_c, 1, 69, 0
4, 151678, Note_on_c, 1, 68, 90
4, 151680, Note_on_c, 1, 76, 90
4, 151680, Note_on_c, 1, 52, 90
4, 151682, Note_on_c, 1, 64, 90
4, 151682, Note_on_c, 1, 40, 90
4, 151797, Note_on_c, 1, 64, 0
4, 151798, Note_on_c, 1, 52, 0
4, 151798, Note_on_c, 1, 68, 0
4, 151799, Note_on_c, 1, 69, 90
4, 151799, Note_on_c, 1, 42, 90
4, 151800, Note_on_c, 1, 40, 0
4, 151800, Note_on_c, 1, 64, 90
4, 151802, Note_on_c, 1, 54, 90
4, 151916, Note_on_c, 1, 76, 0
4, 151916, Note_on_c, 1, 42, 0
4, 151917, Note_on_c, 1, 69, 0
4, 151919, Note_on_c, 1, 44, 90
4, 151920, Note_on_c, 1, 64, 0
4, 151920, Note_on_c, 1, 54, 0
4, 151921, Note_on_c, 1, 71, 90
4, 151922, Note_on_c, 1, 64, 90
4, 151922, Note_on_c, 1, 56, 90
4, 152037, Note_on_c, 1, 44, 0
4, 152038, Note_on_c, 1, 68, 90
4, 152039, Note_on_c, 1, 64, 0
4, 152039, Note_on_c, 1, 52, 90
4, 152039, Note_on_c, 1, 40, 90
4, 152041, Note_on_c, 1, 71, 0
4, 152041, Note_on_c, 1, 64, 90
4, 152043, Note_on_c, 1, 56, 0
4, 152154, Note_on_c, 1, 68, 0
4, 152155, Note_on_c, 1, 52, 0
4, 152158, Note_on_c, 1, 69, 90
4, 152159, Note_on_c, 1, 64, 0
4, 152159, Note_on_c, 1, 45, 90
4, 152159, Note_on_c, 1, 60, 90
4, 152161, Note_on_c, 1, 64, 90
4, 152162, Note_on_c, 1, 40, 0
4, 152278, Note_on_c, 1, 45, 0
4, 152279, Note_on_c, 1, 33, 90
4, 152397, Note_on_c, 1, 69, 0
4, 152398, Note_on_c, 1, 60, 0
4, 152398, Note_on_c, 1, 64, 0
4, 152399, Note_on_c, 1, 33, 0
4, 152519, Note_on_c, 1, 72, 90
4, 152519, Note_on_c, 1, 57, 90
4, 152520, Note_on_c, 1, 64, 90
4, 152637, Note_on_c, 1, 57, 0
4, 152639, Note_on_c, 1, 62, 90
4, 152640, Note_on_c, 1, 64, 0
4, 152640, Note_on_c, 1, 72, 0
4, 152642, Note_on_c, 1, 65, 90
4, 152642, Note_on_c, 1, 72, 90
4, 152758, Note_on_c, 1, 62, 0
4, 152760, Note_on_c, 1, 65, 0
4, 152762, Note_on_c, 1, 65, 90
4, 152762, Note_on_c, 1, 62, 90
4, 152763, Note_on_c, 1, 72, 0
4, 152877, Note_on_c, 1, 62, 0
4, 152879, Note_on_c, 1, 65, 0
4, 152881, Note_on_c, 1, 65, 90
4, 152882, Note_on_c, 1, 62, 90
4, 152996, Note_on_c, 1, 65, 0
4, 153000, Note_on_c, 1, 62, 0
4, 153000, Note_on_c, 1, 72, 90
4, 153000, Note_on_c, 1, 65, 90
4, 153002, Note_on_c, 1, 62, 90
4, 153117, Note_on_c, 1, 65, 0
4, 153119, Note_on_c, 1, 72, 0
4, 153119, Note_on_c, 1, 71, 90
4, 153119, Note_on_c, 1, 65, 90
4, 153121, Note_on_c, 1, 62, 0
4, 153122, Note_on_c, 1, 55, 90
4, 153236, Note_on_c, 1, 71, 0
4, 153239, Note_on_c, 1, 65, 0
4, 153240, Note_on_c, 1, 43, 90
4, 153241, Note_on_c, 1, 71, 90
4, 153242, Note_on_c, 1, 65, 90
4, 153243, Note_on_c, 1, 55, 0
4, 153356, Note_on_c, 1, 43, 0
4, 153359, Note_on_c, 1, 71, 0
4, 153359, Note_on_c, 1, 65, 0
4, 153479, Note_on_c, 1, 71, 90
4, 153482, Note_on_c, 1, 65, 90
4, 153482, Note_on_c, 1, 55, 90
4, 153594, Note_on_c, 1, 71, 0
4, 153597, Note_on_c, 1, 55, 0
4, 153598, Note_on_c, 1, 60, 90
4, 153598, Note_on_c, 1, 71, 90
4, 153600, Note_on_c, 1, 65, 0
4, 153602, Note_on_c, 1, 64, 90
4, 153716, Note_on_c, 1, 71, 0
4, 153717, Note_on_c, 1, 64, 0
4, 153717, Note_on_c, 1, 60, 0
4, 153718, Note_on_c, 1, 60, 90
4, 153719, Note_on_c, 1, 64, 90
4, 153833, Note_on_c, 1, 60, 0
4, 153836, Note_on_c, 1, 64, 0
4, 153838, Note_on_c, 1, 64, 90
4, 153841, Note_on_c, 1, 60, 90
4, 153955, Note_on_c, 1, 64, 0
4, 153957, Note_on_c, 1, 60, 0
4, 153958, Note_on_c, 1, 64, 90
4, 153958, Note_on_c, 1, 71, 90
4, 153959, Note_on_c, 1, 60, 90
4, 154074, Note_on_c, 1, 71, 0
4, 154078, Note_on_c, 1, 60, 0
4, 154078, Note_on_c, 1, 64, 0
4, 154078, Note_on_c, 1, 53, 90
4, 154082, Note_on_c, 1, 69, 90
4, 154082, Note_on_c, 1, 64, 90
4, 154195, Note_on_c, 1, 53, 0
4, 154196, Note_on_c, 1, 69, 0
4, 154198, Note_on_c, 1, 69, 90
4, 154199, Note_on_c, 1, 64, 0
4, 154202, Note_on_c, 1, 64, 90
4, 154202, Note_on_c, 1, 41, 90
4, 154316, Note_on_c, 1, 69, 0
4, 154320, Note_on_c, 1, 41, 0
4, 154323, Note_on_c, 1, 64, 0
4, 154438, Note_on_c, 1, 62, 90
4, 154440, Note_on_c, 1, 57, 90
4, 154441, Note_on_c, 1, 53, 90
4, 154556, Note_on_c, 1, 53, 0
4, 154556, Note_on_c, 1, 57, 0
4, 154556, Note_on_c, 1, 62, 0
4, 154558, Note_on_c, 1, 80, 90
4, 154558, Note_on_c, 1, 59, 90
4, 154559, Note_on_c, 1, 64, 90
4, 154559, Note_on_c, 1, 71, 90
4, 154560, Note_on_c, 1, 52, 90
4, 154674, Note_on_c, 1, 64, 0
4, 154675, Note_on_c, 1, 71, 0
4, 154677, Note_on_c, 1, 52, 0
4, 154678, Note_on_c, 1, 77, 90
4, 154678, Note_on_c, 1, 52, 90
4, 154679, Note_on_c, 1, 59, 0
4, 154679, Note_on_c, 1, 80, 0
4, 154679, Note_on_c, 1, 69, 90
4, 154681, Note_on_c, 1, 59, 90
4, 154734, Note_on_c, 1, 77, 0
4, 154736, Note_on_c, 1, 69, 0
4, 154739, Note_on_c, 1, 71, 90
4, 154740, Note_on_c, 1, 80, 90
4, 154794, Note_on_c, 1, 71, 0
4, 154797, Note_on_c, 1, 59, 0
4, 154798, Note_on_c, 1, 52, 0
4, 154798, Note_on_c, 1, 45, 90
4, 154800, Note_on_c, 1, 81, 90
4, 154800, Note_on_c, 1, 72, 90
4, 154801, Note_on_c, 1, 80, 0
4, 154802, Note_on_c, 1, 57, 90
4, 154802, Note_on_c, 1, 52, 90
4, 154914, Note_on_c, 1, 45, 0
4, 154916, Note_on_c, 1, 72, 0
4, 154917, Note_on_c, 1, 52, 0
4, 154919, Note_on_c, 1, 52, 90
4, 154920, Note_on_c, 1, 57, 0
4, 154920, Note_on_c, 1, 74, 90
4, 154920, Note_on_c, 1, 45, 90
4, 154921, Note_on_c, 1, 81, 0
4, 154922, Note_on_c, 1, 57, 90
4, 154922, Note_on_c, 1, 83, 90
4, 154978, Note_on_c, 1, 74, 0
4, 154978, Note_on_c, 1, 81, 90
4, 154978, Note_on_c, 1, 72, 90
4, 154983, Note_on_c, 1, 83, 0
4, 155034, Note_on_c, 1, 81, 0
4, 155037, Note_on_c, 1, 52, 0
4, 155038, Note_on_c, 1, 57, 0
4, 155038, Note_on_c, 1, 80, 90
4, 155039, Note_on_c, 1, 72, 0
4, 155039, Note_on_c, 1, 45, 0
4, 155039, Note_on_c, 1, 71, 90
4, 155040, Note_on_c, 1, 52, 90
4, 155040, Note_on_c, 1, 59, 90
4, 155156, Note_on_c, 1, 52, 0
4, 155156, Note_on_c, 1, 80, 0
4, 155157, Note_on_c, 1, 59, 0
4, 155158, Note_on_c, 1, 77, 90
4, 155158, Note_on_c, 1, 52, 90
4, 155159, Note_on_c, 1, 71, 0
4, 155159, Note_on_c, 1, 59, 90
4, 155162, Note_on_c, 1, 69, 90
4, 155213, Note_on_c, 1, 77, 0
4, 155218, Note_on_c, 1, 71, 90
4, 155220, Note_on_c, 1, 69, 0
4, 155220, Note_on_c, 1, 80, 90
4, 155274, Note_on_c, 1, 59, 0
4, 155275, Note_on_c, 1, 71, 0
4, 155278, Note_on_c, 1, 52, 0
4, 155279, Note_on_c, 1, 80, 0
4, 155279, Note_on_c, 1, 57, 90
4, 155279, Note_on_c, 1, 81, 90
4, 155280, Note_on_c, 1, 52, 90
4, 155281, Note_on_c, 1, 72, 90
4, 155281, Note_on_c, 1, 45, 90
4, 155394, Note_on_c, 1, 57, 0
4, 155395, Note_on_c, 1, 52, 0
4, 155396, Note_on_c, 1, 45, 0
4, 155397, Note_on_c, 1, 72, 0
4, 155398, Note_on_c, 1, 81, 0
4, 155398, Note_on_c, 1, 45, 90
4, 155400, Note_on_c, 1, 83, 90
4, 155400, Note_on_c, 1, 57, 90
4, 155401, Note_on_c, 1, 74, 90
4, 155401, Note_on_c, 1, 52, 90
4, 155456, Note_on_c, 1, 83, 0
4, 155458, Note_on_c, 1, 81, 90
4, 155459, Note_on_c, 1, 74, 0
4, 155462, Note_on_c, 1, 72, 90
4, 155514, Note_on_c, 1, 81, 0
4, 155518, Note_on_c, 1, 52, 0
4, 155519, Note_on_c, 1, 45, 0
4, 155520, Note_on_c, 1, 57, 0
4, 155520, Note_on_c, 1, 56, 90
4, 155521, Note_on_c, 1, 59, 90
4, 155521, Note_on_c, 1, 80, 90
4, 155521, Note_on_c, 1, 71, 90
4, 155522, Note_on_c, 1, 52, 90
4, 155523, Note_on_c, 1, 72, 0
4, 155637, Note_on_c, 1, 59, 0
4, 155638, Note_on_c, 1, 60, 90
4, 155640, Note_on_c, 1, 56, 0
4, 155640, Note_on_c, 1, 78, 90
4, 155641, Note_on_c, 1, 71, 0
4, 155642, Note_on_c, 1, 80, 0
4, 155642, Note_on_c, 1, 57, 90
4, 155642, Note_on_c, 1, 69, 90
4, 155696, Note_on_c, 1, 78, 0
4, 155699, Note_on_c, 1, 76, 90
4, 155754, Note_on_c, 1, 60, 0
4, 155757, Note_on_c, 1, 69, 0
4, 155757, Note_on_c, 1, 57, 0
4, 155759, Note_on_c, 1, 57, 90
4, 155759, Note_on_c, 1, 69, 90
4, 155760, Note_on_c, 1, 76, 0
4, 155760, Note_on_c, 1, 77, 90
4, 155762, Note_on_c, 1, 52, 0
4, 155762, Note_on_c, 1, 62, 90
4, 155762, Note_on_c, 1, 50, 90
4, 155877, Note_on_c, 1, 77, 0
4, 155878, Note_on_c, 1, 71, 90
4, 155880, Note_on_c, 1, 69, 0
4, 155880, Note_on_c, 1, 65, 90
4, 155881, Note_on_c, 1, 76, 90
4, 155882, Note_on_c, 1, 62, 0
4, 155936, Note_on_c, 1, 76, 0
4, 155941, Note_on_c, 1, 74, 90
4, 155994, Note_on_c, 1, 71, 0
4, 155995, Note_on_c, 1, 65, 0
4, 155997, Note_on_c, 1, 74, 0
4, 155998, Note_on_c, 1, 57, 0
4, 155998, Note_on_c, 1, 76, 90
4, 155999, Note_on_c, 1, 45, 90
4, 156000, Note_on_c, 1, 50, 0
4, 156000, Note_on_c, 1, 72, 90
4, 156000, Note_on_c, 1, 69, 90
4, 156002, Note_on_c, 1, 64, 90
4, 156114, Note_on_c, 1, 45, 0
4, 156118, Note_on_c, 1, 47, 90
4, 156119, Note_on_c, 1, 72, 0
4, 156120, Note_on_c, 1, 74, 90
4, 156235, Note_on_c, 1, 76, 0
4, 156237, Note_on_c, 1, 47, 0
4, 156239, Note_on_c, 1, 74, 0
4, 156239, Note_on_c, 1, 76, 90
4, 156240, Note_on_c, 1, 64, 0
4, 156241, Note_on_c, 1, 69, 0
4, 156242, Note_on_c, 1, 48, 90
4, 156357, Note_on_c, 1, 48, 0
4, 156357, Note_on_c, 1, 76, 0
4, 156358, Note_on_c, 1, 71, 90
4, 156360, Note_on_c, 1, 44, 90
4, 156361, Note_on_c, 1, 74, 90
4, 156362, Note_on_c, 1, 65, 90
4, 156477, Note_on_c, 1, 44, 0
4, 156477, Note_on_c, 1, 71, 0
4, 156479, Note_on_c, 1, 65, 0
4, 156479, Note_on_c, 1, 64, 90
4, 156480, Note_on_c, 1, 74, 0
4, 156480, Note_on_c, 1, 72, 90
4, 156480, Note_on_c, 1, 45, 90
4, 156482, Note_on_c, 1, 69, 90
4, 156598, Note_on_c, 1, 74, 90
4, 156599, Note_on_c, 1, 45, 0
4, 156601, Note_on_c, 1, 72, 0
4, 156601, Note_on_c, 1, 47, 90
4, 156714, Note_on_c, 1, 64, 0
4, 156718, Note_on_c, 1, 74, 0
4, 156719, Note_on_c, 1, 47, 0
4, 156721, Note_on_c, 1, 48, 90
4, 156722, Note_on_c, 1, 76, 90
4, 156723, Note_on_c, 1, 69, 0
4, 156838, Note_on_c, 1, 76, 0
4, 156838, Note_on_c, 1, 48, 0
4, 156838, Note_on_c, 1, 74, 90
4, 156839, Note_on_c, 1, 65, 90
4, 156839, Note_on_c, 1, 44, 90
4, 156840, Note_on_c, 1, 71, 90
4, 156956, Note_on_c, 1, 71, 0
4, 156956, Note_on_c, 1, 74, 0
4, 156958, Note_on_c, 1, 65, 0
4, 156959, Note_on_c, 1, 44, 0
4, 156959, Note_on_c, 1, 64, 90
4, 156960, Note_on_c, 1, 69, 90
4, 156960, Note_on_c, 1, 45, 90
4, 156960, Note_on_c, 1, 72, 90
4, 157079, Note_on_c, 1, 72, 0
4, 157079, Note_on_c, 1, 74, 90
4, 157080, Note_on_c, 1, 71, 90
4, 157139, Note_on_c, 1, 71, 0
4, 157139, Note_on_c, 1, 72, 90
4, 157140, Note_on_c, 1, 74, 0
4, 157141, Note_on_c, 1, 76, 90
4, 157198, Note_on_c, 1, 45, 0
4, 157199, Note_on_c, 1, 64, 0
4, 157199, Note_on_c, 1, 69, 0
4, 157199, Note_on_c, 1, 74, 90
4, 157200, Note_on_c, 1, 72, 0
4, 157201, Note_on_c, 1, 77, 90
4, 157201, Note_on_c, 1, 65, 90
4, 157202, Note_on_c, 1, 76, 0
4, 157202, Note_on_c, 1, 44, 90
4, 157314, Note_on_c, 1, 74, 0
4, 157316, Note_on_c, 1, 77, 0
4, 157318, Note_on_c, 1, 77, 90
4, 157322, Note_on_c, 1, 74, 90
4, 157436, Note_on_c, 1, 65, 0
4, 157439, Note_on_c, 1, 77, 0
4, 157439, Note_on_c, 1, 64, 90
4, 157440, Note_on_c, 1, 44, 0
4, 157440, Note_on_c, 1, 69, 90
4, 157441, Note_on_c, 1, 57, 90
4, 157441, Note_on_c, 1, 72, 90
4, 157441, Note_on_c, 1, 76, 90
4, 157442, Note_on_c, 1, 74, 0
4, 157442, Note_on_c, 1, 45, 90
4, 157560, Note_on_c, 1, 76, 0
4, 157560, Note_on_c, 1, 74, 90
4, 157561, Note_on_c, 1, 72, 0
4, 157561, Note_on_c, 1, 71, 90
4, 157616, Note_on_c, 1, 74, 0
4, 157619, Note_on_c, 1, 72, 90
4, 157620, Note_on_c, 1, 71, 0
4, 157620, Note_on_c, 1, 76, 90
4, 157675, Note_on_c, 1, 72, 0
4, 157677, Note_on_c, 1, 64, 0
4, 157678, Note_on_c, 1, 69, 0
4, 157678, Note_on_c, 1, 45, 0
4, 157678, Note_on_c, 1, 74, 90
4, 157679, Note_on_c, 1, 44, 90
4, 157680, Note_on_c, 1, 65, 90
4, 157680, Note_on_c, 1, 56, 90
4, 157681, Note_on_c, 1, 57, 0
4, 157681, Note_on_c, 1, 76, 0
4, 157681, Note_on_c, 1, 77, 90
4, 157798, Note_on_c, 1, 74, 0
4, 157799, Note_on_c, 1, 77, 0
4, 157800, Note_on_c, 1, 74, 90
4, 157801, Note_on_c, 1, 77, 90
4, 157917, Note_on_c, 1, 65, 0
4, 157918, Note_on_c, 1, 72, 90
4, 157918, Note_on_c, 1, 76, 90
4, 157919, Note_on_c, 1, 44, 0
4, 157919, Note_on_c, 1, 77, 0
4, 157920, Note_on_c, 1, 74, 0
4, 157920, Note_on_c, 1, 56, 0
4, 157920, Note_on_c, 1, 64, 90
4, 157921, Note_on_c, 1, 69, 90
4, 157922, Note_on_c, 1, 57, 90
4, 157922, Note_on_c, 1, 45, 90
4, 158155, Note_on_c, 1, 64, 0
4, 158158, Note_on_c, 1, 72, 0
4, 158158, Note_on_c, 1, 76, 0
4, 158161, Note_on_c, 1, 57, 0
4, 158162, Note_on_c, 1, 69, 0
4, 158163, Note_on_c, 1, 45, 0
4, 158759, Note_on_c, 1, 76, 90
4, 158761, Note_on_c, 1, 69, 90
4, 158762, Note_on_c, 1, 72, 90
4, 158762, Note_on_c, 1, 45, 90
4, 158874, Note_on_c, 1, 76, 0
4, 158876, Note_on_c, 1, 69, 0
4, 158877, Note_on_c, 1, 72, 0
4, 158878, Note_on_c, 1, 45, 0
4, 158878, Note_on_c, 1, 77, 90
4, 158878, Note_on_c, 1, 69, 90
4, 158879, Note_on_c, 1, 38, 90
4, 158879, Note_on_c, 1, 74, 90
4, 158882, Note_on_c, 1, 50, 90
4, 158993, Note_on_c, 1, 77, 0
4, 158995, Note_on_c, 1, 69, 0
4, 158998, Note_on_c, 1, 38, 0
4, 158998, Note_on_c, 1, 76, 90
4, 158999, Note_on_c, 1, 45, 90
4, 159000, Note_on_c, 1, 74, 0
4, 159000, Note_on_c, 1, 69, 90
4, 159001, Note_on_c, 1, 72, 90
4, 159003, Note_on_c, 1, 50, 0
4, 159115, Note_on_c, 1, 69, 0
4, 159118, Note_on_c, 1, 45, 0
4, 159118, Note_on_c, 1, 76, 0
4, 159119, Note_on_c, 1, 72, 0
4, 159120, Note_on_c, 1, 81, 90
4, 159236, Note_on_c, 1, 81, 0
4, 159238, Note_on_c, 1, 69, 90
4, 159240, Note_on_c, 1, 45, 90
4, 159241, Note_on_c, 1, 33, 90
4, 159242, Note_on_c, 1, 64, 90
4, 159242, Note_on_c, 1, 72, 90
4, 159356, Note_on_c, 1, 45, 0
4, 159356, Note_on_c, 1, 69, 0
4, 159358, Note_on_c, 1, 38, 90
4, 159358, Note_on_c, 1, 69, 90
4, 159358, Note_on_c, 1, 50, 90
4, 159359, Note_on_c, 1, 65, 90
4, 159360, Note_on_c, 1, 64, 0
4, 159360, Note_on_c, 1, 33, 0
4, 159360, Note_on_c, 1, 71, 90
4, 159362, Note_on_c, 1, 72, 0
4, 159474, Note_on_c, 1, 69, 0
4, 159478, Note_on_c, 1, 71, 0
4, 159479, Note_on_c, 1, 65, 0
4, 159480, Note_on_c, 1, 81, 90
4, 159593, Note_on_c, 1, 50, 0
4, 159594, Note_on_c, 1, 38, 0
4, 159597, Note_on_c, 1, 81, 0
4, 159598, Note_on_c, 1, 71, 90
4, 159598, Note_on_c, 1, 64, 90
4, 159599, Note_on_c, 1, 52, 90
4, 159599, Note_on_c, 1, 68, 90
4, 159601, Note_on_c, 1, 40, 90
4, 159714, Note_on_c, 1, 71, 0
4, 159717, Note_on_c, 1, 64, 0
4, 159719, Note_on_c, 1, 68, 0
4, 159720, Note_on_c, 1, 80, 90
4, 159835, Note_on_c, 1, 80, 0
4, 159837, Note_on_c, 1, 52, 0
4, 159840, Note_on_c, 1, 45, 90
4, 159840, Note_on_c, 1, 81, 90
4, 159841, Note_on_c, 1, 76, 90
4, 159842, Note_on_c, 1, 40, 0
4, 159842, Note_on_c, 1, 33, 90
4, 159842, Note_on_c, 1, 72, 90
4, 159842, Note_on_c, 1, 69, 90
4, 159958, Note_on_c, 1, 76, 0
4, 159959, Note_on_c, 1, 45, 0
4, 159959, Note_on_c, 1, 69, 0
4, 159960, Note_on_c, 1, 81, 0
4, 159960, Note_on_c, 1, 72, 0
4, 159960, Note_on_c, 1, 76, 90
4, 159960, Note_on_c, 1, 57, 90
4, 159961, Note_on_c, 1, 33, 0
4, 160015, Note_on_c, 1, 57, 0
4, 160019, Note_on_c, 1, 59, 90
4, 160075, Note_on_c, 1, 59, 0
4, 160076, Note_on_c, 1, 76, 0
4, 160080, Note_on_c, 1, 69, 90
4, 160082, Note_on_c, 1, 60, 90
4, 160199, Note_on_c, 1, 69, 0
4, 160200, Note_on_c, 1, 57, 90
4, 160202, Note_on_c, 1, 60, 0
4, 160316, Note_on_c, 1, 57, 0
4, 160321, Note_on_c, 1, 64, 90
4, 160321, Note_on_c, 1, 71, 90
4, 160437, Note_on_c, 1, 71, 0
4, 160439, Note_on_c, 1, 64, 0
4, 160441, Note_on_c, 1, 62, 90
4, 160441, Note_on_c, 1, 64, 90
4, 160557, Note_on_c, 1, 62, 0
4, 160558, Note_on_c, 1, 69, 90
4, 160559, Note_on_c, 1, 61, 90
4, 160562, Note_on_c, 1, 64, 0
4, 160678, Note_on_c, 1, 69, 0
4, 160679, Note_on_c, 1, 69, 90
4, 160680, Note_on_c, 1, 61, 0
4, 160681, Note_on_c, 1, 57, 90
4, 160681, Note_on_c, 1, 73, 90
4, 160795, Note_on_c, 1, 69, 0
4, 160798, Note_on_c, 1, 66, 90
4, 160800, Note_on_c, 1, 74, 90
4, 160801, Note_on_c, 1, 73, 0
4, 160801, Note_on_c, 1, 69, 90
4, 160802, Note_on_c, 1, 57, 0
4, 160802, Note_on_c, 1, 62, 90
4, 160913, Note_on_c, 1, 66, 0
4, 160916, Note_on_c, 1, 74, 0
4, 160920, Note_on_c, 1, 69, 0
4, 160920, Note_on_c, 1, 62, 0
4, 160920, Note_on_c, 1, 60, 90
4, 160922, Note_on_c, 1, 62, 90
4, 161037, Note_on_c, 1, 60, 0
4, 161040, Note_on_c, 1, 62, 0
4, 161040, Note_on_c, 1, 59, 90
4, 161040, Note_on_c, 1, 67, 90
4, 161157, Note_on_c, 1, 67, 0
4, 161159, Note_on_c, 1, 65, 90
4, 161160, Note_on_c, 1, 59, 0
4, 161160, Note_on_c, 1, 55, 90
4, 161161, Note_on_c, 1, 67, 90
4, 161162, Note_on_c, 1, 71, 90
4, 161219, Note_on_c, 1, 65, 0
4, 161221, Note_on_c, 1, 67, 0
4, 161223, Note_on_c, 1, 71, 0
4, 161275, Note_on_c, 1, 55, 0
4, 161278, Note_on_c, 1, 67, 90
4, 161280, Note_on_c, 1, 72, 90
4, 161280, Note_on_c, 1, 64, 90
4, 161281, Note_on_c, 1, 60, 90
4, 161395, Note_on_c, 1, 64, 0
4, 161395, Note_on_c, 1, 67, 0
4, 161396, Note_on_c, 1, 60, 0
4, 161398, Note_on_c, 1, 59, 90
4, 161399, Note_on_c, 1, 72, 0
4, 161399, Note_on_c, 1, 60, 90
4, 161513, Note_on_c, 1, 59, 0
4, 161518, Note_on_c, 1, 60, 0
4, 161518, Note_on_c, 1, 65, 90
4, 161521, Note_on_c, 1, 57, 90
4, 161638, Note_on_c, 1, 65, 0
4, 161638, Note_on_c, 1, 64, 90
4, 161640, Note_on_c, 1, 65, 90
4, 161640, Note_on_c, 1, 69, 90
4, 161641, Note_on_c, 1, 53, 90
4, 161642, Note_on_c, 1, 57, 0
4, 161757, Note_on_c, 1, 69, 0
4, 161758, Note_on_c, 1, 64, 0
4, 161758, Note_on_c, 1, 53, 0
4, 161758, Note_on_c, 1, 59, 90
4, 161759, Note_on_c, 1, 71, 90
4, 161760, Note_on_c, 1, 65, 0
4, 161761, Note_on_c, 1, 67, 90
4, 161761, Note_on_c, 1, 64, 90
4, 161876, Note_on_c, 1, 71, 0
4, 161876, Note_on_c, 1, 59, 0
4, 161880, Note_on_c, 1, 64, 0
4, 161882, Note_on_c, 1, 67, 0
4, 161882, Note_on_c, 1, 57, 90
4, 161882, Note_on_c, 1, 59, 90
4, 161997, Note_on_c, 1, 59, 0
4, 162001, Note_on_c, 1, 57, 0
4, 162001, Note_on_c, 1, 64, 90
4, 162001, Note_on_c, 1, 56, 90
4, 162117, Note_on_c, 1, 56, 0
4, 162119, Note_on_c, 1, 64, 0
4, 162121, Note_on_c, 1, 62, 90
4, 162121, Note_on_c, 1, 52, 90
4, 162122, Note_on_c, 1, 68, 90
4, 162122, Note_on_c, 1, 64, 90
4, 162237, Note_on_c, 1, 64, 0
4, 162237, Note_on_c, 1, 68, 0
4, 162238, Note_on_c, 1, 45, 90
4, 162239, Note_on_c, 1, 62, 0
4, 162239, Note_on_c, 1, 64, 90
4, 162239, Note_on_c, 1, 57, 90
4, 162240, Note_on_c, 1, 60, 90
4, 162241, Note_on_c, 1, 52, 0
4, 162242, Note_on_c, 1, 69, 90
4, 162296, Note_on_c, 1, 60, 0
4, 162297, Note_on_c, 1, 64, 0
4, 162300, Note_on_c, 1, 69, 0
4, 162302, Note_on_c, 1, 69, 90
4, 162353, Note_on_c, 1, 45, 0
4, 162358, Note_on_c, 1, 57, 0
4, 162360, Note_on_c, 1, 72, 90
4, 162361, Note_on_c, 1, 69, 0
4, 162362, Note_on_c, 1, 69, 90
4, 162362, Note_on_c, 1, 47, 90
4, 162417, Note_on_c, 1, 69, 0
4, 162417, Note_on_c, 1, 72, 0
4, 162421, Note_on_c, 1, 76, 90
4, 162476, Note_on_c, 1, 76, 0
4, 162477, Note_on_c, 1, 47, 0
4, 162479, Note_on_c, 1, 76, 90
4, 162480, Note_on_c, 1, 81, 90
4, 162482, Note_on_c, 1, 69, 90
4, 162482, Note_on_c, 1, 48, 90
4, 162595, Note_on_c, 1, 81, 0
4, 162596, Note_on_c, 1, 69, 0
4, 162598, Note_on_c, 1, 76, 0
4, 162598, Note_on_c, 1, 69, 90
4, 162598, Note_on_c, 1, 45, 90
4, 162598, Note_on_c, 1, 72, 90
4, 162600, Note_on_c, 1, 48, 0
4, 162602, Note_on_c, 1, 64, 90
4, 162714, Note_on_c, 1, 72, 0
4, 162716, Note_on_c, 1, 45, 0
4, 162718, Note_on_c, 1, 69, 0
4, 162718, Note_on_c, 1, 38, 90
4, 162719, Note_on_c, 1, 69, 90
4, 162720, Note_on_c, 1, 64, 0
4, 162720, Note_on_c, 1, 71, 90
4, 162720, Note_on_c, 1, 50, 90
4, 162721, Note_on_c, 1, 65, 90
4, 162833, Note_on_c, 1, 38, 0
4, 162839, Note_on_c, 1, 47, 90
4, 162841, Note_on_c, 1, 50, 0
4, 162954, Note_on_c, 1, 69, 0
4, 162955, Note_on_c, 1, 71, 0
4, 162958, Note_on_c, 1, 52, 90
4, 162959, Note_on_c, 1, 71, 90
4, 162959, Note_on_c, 1, 40, 90
4, 162960, Note_on_c, 1, 65, 0
4, 162960, Note_on_c, 1, 47, 0
4, 162960, Note_on_c, 1, 64, 90
4, 162962, Note_on_c, 1, 68, 90
4, 163074, Note_on_c, 1, 52, 0
4, 163075, Note_on_c, 1, 40, 0
4, 163075, Note_on_c, 1, 71, 0
4, 163078, Note_on_c, 1, 68, 0
4, 163078, Note_on_c, 1, 40, 90
4, 163079, Note_on_c, 1, 71, 90
4, 163079, Note_on_c, 1, 80, 90
4, 163080, Note_on_c, 1, 68, 90
4, 163081, Note_on_c, 1, 64, 0
4, 163081, Note_on_c, 1, 76, 90
4, 163194, Note_on_c, 1, 71, 0
4, 163196, Note_on_c, 1, 76, 0
4, 163198, Note_on_c, 1, 33, 90
4, 163198, Note_on_c, 1, 72, 90
4, 163198, Note_on_c, 1, 76, 90
4, 163199, Note_on_c, 1, 40, 0
4, 163200, Note_on_c, 1, 80, 0
4, 163200, Note_on_c, 1, 68, 0
4, 163200, Note_on_c, 1, 69, 90
4, 163200, Note_on_c, 1, 81, 90
4, 163673, Note_on_c, 1, 76, 0
4, 163676, Note_on_c, 1, 81, 0
4, 163679, Note_on_c, 1, 33, 0
4, 163679, Note_on_c, 1, 72, 0
4, 163680, Note_on_c, 1, 69, 0
4, 163680, End_track
5, 0, Start_track
5, 0, MIDI_port, 0
5, 0, Title_t, "  from ""L'Estro Armonico"""
5, 0, End_track
6, 0, Start_track
6, 0, MIDI_port, 0
6, 0, Title_t, " (""Fanciful Harmony""), Op. 3"
6, 0, End_track
7, 0, Start_track
7, 0, MIDI_port, 0
7, 0, Title_t, "Entered by John Cowles"
7, 0, End_track
8, 0, Start_track
8, 0, MIDI_port, 0
8, 0, Title_t, "cowles@hydra.convex.com"
8, 0, End_track
0, 0, End_of_file
