0, 0, Header, 1, 38, 120
1, 0, Start_track
1, 0, Time_signature, 4, 2, 24, 8
1, 0, Key_signature, -3, "major"
1, 0, Tempo, 1578947
1, 0, Marker_t, "From Vivaldi's Four Seasons' Winter Largo"
1, 1, Marker_t, "This Midi File Copyright (C) 1995"
1, 2, Marker_t, "by Neil B. Sheldon Sr."
1, 3, Marker_t, "May be freely distributed for non-commercial/non-monetary interests"
1, 4, Marker_t, "Internet EMail Address neil@netzone.com"
1, 4, End_track
2, 0, Start_track
2, 0, MIDI_port, 0
2, 0, End_track
3, 0, Start_track
3, 0, MIDI_port, 0
3, 0, Title_t, "Solo Violin"
3, 0, Program_c, 0, 40
3, 0, Control_c, 0, 7, 127
3, 0, Control_c, 0, 10, 64
3, 0, Control_c, 0, 93, 0
3, 0, Control_c, 0, 91, 120
3, 1, Text_t, "Non Registered Parameter Numbers"
3, 1, Text_t, "For Roland SC-55 Vibrato"
3, 1, Text_t, "Set up NRPN for Vibrate Rate"
3, 2, Control_c, 0, 99, 1
3, 3, Control_c, 0, 98, 8
3, 4, Text_t, "Data Entry Command"
3, 4, Text_t, "Slightly fast; not too much"
3, 4, Control_c, 0, 6, 68
3, 5, Text_t, "Set up NRPN for Vibrate Delay"
3, 6, Control_c, 0, 99, 1
3, 7, Control_c, 0, 98, 10
3, 8, Text_t, "Data Entry Command"
3, 8, Text_t, "As little delay as possible"
3, 8, Control_c, 0, 6, 14
3, 9, Text_t, "Set up NRPN for Vibrate Depth"
3, 10, Control_c, 0, 99, 1
3, 11, Control_c, 0, 98, 9
3, 12, Text_t, "Data Entry Command; Vibrato ON"
3, 12, Text_t, "Just enough to be obvious; don't over do it."
3, 12, Control_c, 0, 6, 70
3, 480, Note_on_c, 0, 75, 53
3, 539, Text_t, "Data Entry Command; Vibrato OFF"
3, 539, Text_t, "(for ""all practical purposes"")"
3, 539, Control_c, 0, 6, 64
3, 540, Note_on_c, 0, 75, 0
3, 540, Note_on_c, 0, 82, 57
3, 570, Note_on_c, 0, 82, 0
3, 570, Note_on_c, 0, 80, 55
3, 599, Control_c, 0, 6, 70
3, 600, Note_on_c, 0, 80, 0
3, 600, Note_on_c, 0, 79, 53
3, 659, Control_c, 0, 6, 64
3, 660, Note_on_c, 0, 79, 0
3, 660, Note_on_c, 0, 77, 51
3, 690, Note_on_c, 0, 77, 0
3, 690, Note_on_c, 0, 75, 47
3, 719, Control_c, 0, 6, 70
3, 720, Note_on_c, 0, 75, 0
3, 720, Note_on_c, 0, 77, 55
3, 775, Note_on_c, 0, 77, 0
3, 780, Note_on_c, 0, 70, 47
3, 840, Note_on_c, 0, 70, 0
3, 900, Note_on_c, 0, 70, 51
3, 955, Note_on_c, 0, 70, 0
3, 959, Control_c, 0, 6, 64
3, 960, Note_on_c, 0, 80, 55
3, 990, Note_on_c, 0, 79, 53
3, 995, Note_on_c, 0, 80, 0
3, 1020, Note_on_c, 0, 77, 51
3, 1025, Note_on_c, 0, 79, 0
3, 1050, Note_on_c, 0, 75, 49
3, 1055, Note_on_c, 0, 77, 0
3, 1079, Control_c, 0, 6, 70
3, 1080, Note_on_c, 0, 74, 47
3, 1085, Note_on_c, 0, 75, 0
3, 1140, Note_on_c, 0, 74, 0
3, 1140, Note_on_c, 0, 80, 47
3, 1199, Control_c, 0, 6, 64
3, 1200, Note_on_c, 0, 80, 0
3, 1200, Note_on_c, 0, 79, 47
3, 1210, Note_on_c, 0, 80, 49
3, 1212, Note_on_c, 0, 79, 0
3, 1233, Note_on_c, 0, 79, 51
3, 1235, Note_on_c, 0, 80, 0
3, 1245, Note_on_c, 0, 79, 0
3, 1245, Note_on_c, 0, 77, 49
3, 1259, Control_c, 0, 6, 70
3, 1260, Note_on_c, 0, 79, 53
3, 1268, Note_on_c, 0, 77, 0
3, 1320, Note_on_c, 0, 79, 0
3, 1380, Note_on_c, 0, 79, 51
3, 1440, Note_on_c, 0, 79, 0
3, 1440, Note_on_c, 0, 77, 49
3, 1499, Control_c, 0, 6, 64
3, 1500, Note_on_c, 0, 77, 0
3, 1500, Note_on_c, 0, 79, 51
3, 1530, Note_on_c, 0, 79, 0
3, 1530, Note_on_c, 0, 80, 53
3, 1559, Control_c, 0, 6, 70
3, 1560, Note_on_c, 0, 80, 0
3, 1560, Note_on_c, 0, 82, 55
3, 1619, Control_c, 0, 6, 64
3, 1620, Note_on_c, 0, 82, 0
3, 1620, Note_on_c, 0, 84, 57
3, 1650, Note_on_c, 0, 84, 0
3, 1650, Note_on_c, 0, 86, 59
3, 1675, Note_on_c, 0, 86, 0
3, 1679, Control_c, 0, 6, 70
3, 1680, Note_on_c, 0, 75, 55
3, 1739, Control_c, 0, 6, 64
3, 1740, Note_on_c, 0, 75, 0
3, 1740, Note_on_c, 0, 77, 57
3, 1770, Note_on_c, 0, 77, 0
3, 1770, Note_on_c, 0, 79, 59
3, 1799, Control_c, 0, 6, 70
3, 1800, Note_on_c, 0, 79, 0
3, 1800, Note_on_c, 0, 80, 61
3, 1859, Control_c, 0, 6, 64
3, 1860, Note_on_c, 0, 80, 0
3, 1860, Note_on_c, 0, 82, 63
3, 1890, Note_on_c, 0, 82, 0
3, 1890, Note_on_c, 0, 84, 65
3, 1915, Note_on_c, 0, 84, 0
3, 1919, Control_c, 0, 6, 70
3, 1920, Note_on_c, 0, 74, 55
3, 1979, Control_c, 0, 6, 64
3, 1980, Note_on_c, 0, 74, 0
3, 1980, Note_on_c, 0, 75, 57
3, 2010, Note_on_c, 0, 75, 0
3, 2010, Note_on_c, 0, 77, 59
3, 2039, Control_c, 0, 6, 70
3, 2040, Note_on_c, 0, 77, 0
3, 2040, Note_on_c, 0, 79, 61
3, 2099, Control_c, 0, 6, 64
3, 2100, Note_on_c, 0, 79, 0
3, 2100, Note_on_c, 0, 80, 63
3, 2130, Note_on_c, 0, 80, 0
3, 2130, Note_on_c, 0, 82, 65
3, 2155, Note_on_c, 0, 82, 0
3, 2159, Control_c, 0, 6, 70
3, 2160, Note_on_c, 0, 72, 53
3, 2219, Control_c, 0, 6, 64
3, 2220, Note_on_c, 0, 72, 0
3, 2220, Note_on_c, 0, 74, 55
3, 2250, Note_on_c, 0, 74, 0
3, 2250, Note_on_c, 0, 75, 57
3, 2279, Control_c, 0, 6, 70
3, 2280, Note_on_c, 0, 75, 0
3, 2280, Note_on_c, 0, 77, 59
3, 2339, Control_c, 0, 6, 64
3, 2340, Note_on_c, 0, 77, 0
3, 2340, Note_on_c, 0, 79, 61
3, 2370, Note_on_c, 0, 79, 0
3, 2370, Note_on_c, 0, 75, 59
3, 2395, Note_on_c, 0, 75, 0
3, 2399, Control_c, 0, 6, 70
3, 2400, Note_on_c, 0, 74, 57
3, 2540, Note_on_c, 0, 74, 0
3, 2541, Control_c, 0, 6, 64
3, 2550, Note_on_c, 0, 70, 47
3, 2580, Note_on_c, 0, 70, 0
3, 2580, Note_on_c, 0, 69, 49
3, 2610, Note_on_c, 0, 69, 0
3, 2610, Note_on_c, 0, 70, 53
3, 2639, Control_c, 0, 6, 70
3, 2640, Note_on_c, 0, 70, 0
3, 2640, Note_on_c, 0, 77, 57
3, 2780, Note_on_c, 0, 77, 0
3, 2781, Control_c, 0, 6, 64
3, 2790, Note_on_c, 0, 70, 47
3, 2820, Note_on_c, 0, 70, 0
3, 2820, Note_on_c, 0, 69, 49
3, 2850, Note_on_c, 0, 69, 0
3, 2850, Note_on_c, 0, 70, 53
3, 2879, Control_c, 0, 6, 70
3, 2880, Note_on_c, 0, 70, 0
3, 2880, Note_on_c, 0, 79, 57
3, 3020, Note_on_c, 0, 79, 0
3, 3021, Control_c, 0, 6, 64
3, 3030, Note_on_c, 0, 70, 47
3, 3060, Note_on_c, 0, 70, 0
3, 3060, Note_on_c, 0, 69, 49
3, 3090, Note_on_c, 0, 69, 0
3, 3090, Note_on_c, 0, 70, 53
3, 3119, Control_c, 0, 6, 70
3, 3120, Note_on_c, 0, 70, 0
3, 3120, Note_on_c, 0, 81, 57
3, 3265, Note_on_c, 0, 81, 0
3, 3266, Control_c, 0, 6, 64
3, 3270, Note_on_c, 0, 77, 54
3, 3285, Note_on_c, 0, 77, 0
3, 3285, Note_on_c, 0, 75, 55
3, 3300, Note_on_c, 0, 75, 0
3, 3300, Note_on_c, 0, 77, 56
3, 3330, Note_on_c, 0, 77, 0
3, 3330, Note_on_c, 0, 75, 55
3, 3345, Note_on_c, 0, 75, 0
3, 3345, Note_on_c, 0, 77, 56
3, 3359, Control_c, 0, 6, 70
3, 3360, Note_on_c, 0, 77, 0
3, 3360, Note_on_c, 0, 82, 59
3, 3415, Note_on_c, 0, 82, 0
3, 3420, Note_on_c, 0, 70, 51
3, 3480, Note_on_c, 0, 70, 0
3, 3540, Note_on_c, 0, 82, 57
3, 3595, Note_on_c, 0, 82, 0
3, 3596, Control_c, 0, 6, 64
3, 3600, Note_on_c, 0, 82, 59
3, 3630, Note_on_c, 0, 82, 0
3, 3630, Note_on_c, 0, 81, 56
3, 3660, Note_on_c, 0, 81, 0
3, 3660, Note_on_c, 0, 79, 55
3, 3690, Note_on_c, 0, 79, 0
3, 3690, Note_on_c, 0, 77, 54
3, 3720, Note_on_c, 0, 77, 0
3, 3720, Note_on_c, 0, 75, 53
3, 3750, Note_on_c, 0, 75, 0
3, 3750, Note_on_c, 0, 74, 52
3, 3780, Note_on_c, 0, 74, 0
3, 3780, Note_on_c, 0, 72, 51
3, 3810, Note_on_c, 0, 72, 0
3, 3810, Note_on_c, 0, 70, 50
3, 3840, Note_on_c, 0, 70, 0
3, 3840, Note_on_c, 0, 74, 49
3, 3855, Note_on_c, 0, 74, 0
3, 3855, Note_on_c, 0, 72, 47
3, 3870, Note_on_c, 0, 72, 0
3, 3870, Note_on_c, 0, 74, 49
3, 3885, Note_on_c, 0, 74, 0
3, 3885, Note_on_c, 0, 72, 47
3, 3900, Note_on_c, 0, 72, 0
3, 3900, Note_on_c, 0, 74, 49
3, 3910, Note_on_c, 0, 74, 0
3, 3910, Note_on_c, 0, 72, 47
3, 3920, Note_on_c, 0, 72, 0
3, 3920, Note_on_c, 0, 74, 49
3, 3930, Note_on_c, 0, 74, 0
3, 3930, Note_on_c, 0, 72, 47
3, 3940, Note_on_c, 0, 72, 0
3, 3940, Note_on_c, 0, 74, 49
3, 3950, Note_on_c, 0, 74, 0
3, 3950, Note_on_c, 0, 72, 47
3, 3960, Note_on_c, 0, 72, 0
3, 3960, Note_on_c, 0, 74, 49
3, 3975, Note_on_c, 0, 74, 0
3, 3975, Note_on_c, 0, 72, 47
3, 3990, Note_on_c, 0, 72, 0
3, 3990, Note_on_c, 0, 74, 49
3, 4005, Note_on_c, 0, 74, 0
3, 4005, Note_on_c, 0, 72, 47
3, 4020, Note_on_c, 0, 72, 0
3, 4020, Note_on_c, 0, 70, 49
3, 4075, Note_on_c, 0, 70, 0
3, 4079, Control_c, 0, 6, 70
3, 4080, Note_on_c, 0, 70, 47
3, 4200, Note_on_c, 0, 70, 0
3, 4320, Note_on_c, 0, 70, 47
3, 4379, Control_c, 0, 6, 64
3, 4380, Note_on_c, 0, 70, 0
3, 4380, Note_on_c, 0, 77, 47
3, 4410, Note_on_c, 0, 77, 0
3, 4410, Note_on_c, 0, 75, 47
3, 4439, Control_c, 0, 6, 70
3, 4440, Note_on_c, 0, 75, 0
3, 4440, Note_on_c, 0, 74, 47
3, 4499, Control_c, 0, 6, 64
3, 4500, Note_on_c, 0, 74, 0
3, 4500, Note_on_c, 0, 72, 47
3, 4530, Note_on_c, 0, 72, 0
3, 4530, Note_on_c, 0, 70, 47
3, 4559, Control_c, 0, 6, 70
3, 4560, Note_on_c, 0, 70, 0
3, 4560, Note_on_c, 0, 72, 47
3, 4615, Note_on_c, 0, 72, 0
3, 4620, Note_on_c, 0, 65, 47
3, 4680, Note_on_c, 0, 65, 0
3, 4740, Note_on_c, 0, 65, 47
3, 4799, Control_c, 0, 6, 64
3, 4800, Note_on_c, 0, 65, 0
3, 4800, Note_on_c, 0, 75, 47
3, 4830, Note_on_c, 0, 74, 47
3, 4835, Note_on_c, 0, 75, 0
3, 4860, Note_on_c, 0, 72, 47
3, 4865, Note_on_c, 0, 74, 0
3, 4890, Note_on_c, 0, 70, 47
3, 4895, Note_on_c, 0, 72, 0
3, 4919, Control_c, 0, 6, 70
3, 4920, Note_on_c, 0, 69, 47
3, 4925, Note_on_c, 0, 70, 0
3, 4980, Note_on_c, 0, 69, 0
3, 4980, Note_on_c, 0, 75, 47
3, 5039, Control_c, 0, 6, 64
3, 5040, Note_on_c, 0, 75, 0
3, 5040, Note_on_c, 0, 77, 47
3, 5050, Note_on_c, 0, 77, 0
3, 5050, Note_on_c, 0, 75, 47
3, 5060, Note_on_c, 0, 75, 0
3, 5060, Note_on_c, 0, 77, 47
3, 5070, Note_on_c, 0, 77, 0
3, 5070, Note_on_c, 0, 75, 47
3, 5080, Note_on_c, 0, 75, 0
3, 5080, Note_on_c, 0, 77, 47
3, 5090, Note_on_c, 0, 77, 0
3, 5090, Note_on_c, 0, 75, 47
3, 5099, Control_c, 0, 6, 70
3, 5100, Note_on_c, 0, 75, 0
3, 5100, Note_on_c, 0, 74, 47
3, 5160, Note_on_c, 0, 74, 0
3, 5220, Note_on_c, 0, 70, 47
3, 5279, Control_c, 0, 6, 64
3, 5280, Note_on_c, 0, 70, 0
3, 5280, Note_on_c, 0, 80, 47
3, 5310, Note_on_c, 0, 79, 47
3, 5315, Note_on_c, 0, 80, 0
3, 5340, Note_on_c, 0, 77, 47
3, 5345, Note_on_c, 0, 79, 0
3, 5370, Note_on_c, 0, 75, 47
3, 5375, Note_on_c, 0, 77, 0
3, 5399, Control_c, 0, 6, 70
3, 5400, Note_on_c, 0, 74, 47
3, 5405, Note_on_c, 0, 75, 0
3, 5460, Note_on_c, 0, 74, 0
3, 5460, Note_on_c, 0, 80, 47
3, 5519, Control_c, 0, 6, 64
3, 5520, Note_on_c, 0, 80, 0
3, 5520, Note_on_c, 0, 82, 47
3, 5532, Note_on_c, 0, 82, 0
3, 5532, Note_on_c, 0, 80, 47
3, 5544, Note_on_c, 0, 80, 0
3, 5544, Note_on_c, 0, 82, 47
3, 5556, Note_on_c, 0, 82, 0
3, 5556, Note_on_c, 0, 80, 47
3, 5568, Note_on_c, 0, 80, 0
3, 5568, Note_on_c, 0, 77, 47
3, 5579, Control_c, 0, 6, 70
3, 5580, Note_on_c, 0, 77, 0
3, 5580, Note_on_c, 0, 79, 47
3, 5640, Note_on_c, 0, 79, 0
3, 5700, Note_on_c, 0, 79, 47
3, 5760, Note_on_c, 0, 79, 0
3, 5760, Note_on_c, 0, 72, 47
3, 5815, Note_on_c, 0, 72, 0
3, 5819, Control_c, 0, 6, 64
3, 5820, Note_on_c, 0, 74, 47
3, 5850, Note_on_c, 0, 75, 47
3, 5855, Note_on_c, 0, 74, 0
3, 5879, Control_c, 0, 6, 70
3, 5880, Note_on_c, 0, 77, 47
3, 5885, Note_on_c, 0, 75, 0
3, 5939, Control_c, 0, 6, 64
3, 5940, Note_on_c, 0, 77, 0
3, 5940, Note_on_c, 0, 79, 47
3, 5970, Note_on_c, 0, 80, 47
3, 5975, Note_on_c, 0, 79, 0
3, 5999, Control_c, 0, 6, 70
3, 6000, Note_on_c, 0, 80, 0
3, 6000, Note_on_c, 0, 74, 47
3, 6055, Note_on_c, 0, 74, 0
3, 6056, Control_c, 0, 6, 64
3, 6060, Note_on_c, 0, 75, 47
3, 6090, Note_on_c, 0, 77, 47
3, 6095, Note_on_c, 0, 75, 0
3, 6119, Control_c, 0, 6, 70
3, 6120, Note_on_c, 0, 79, 47
3, 6125, Note_on_c, 0, 77, 0
3, 6179, Control_c, 0, 6, 64
3, 6180, Note_on_c, 0, 79, 0
3, 6180, Note_on_c, 0, 80, 47
3, 6210, Note_on_c, 0, 82, 47
3, 6215, Note_on_c, 0, 80, 0
3, 6239, Control_c, 0, 6, 70
3, 6240, Note_on_c, 0, 82, 0
3, 6240, Note_on_c, 0, 75, 47
3, 6295, Note_on_c, 0, 75, 0
3, 6296, Control_c, 0, 6, 64
3, 6300, Note_on_c, 0, 77, 47
3, 6330, Note_on_c, 0, 79, 47
3, 6335, Note_on_c, 0, 77, 0
3, 6359, Control_c, 0, 6, 70
3, 6360, Note_on_c, 0, 80, 47
3, 6365, Note_on_c, 0, 79, 0
3, 6419, Control_c, 0, 6, 64
3, 6420, Note_on_c, 0, 80, 0
3, 6420, Note_on_c, 0, 82, 47
3, 6450, Note_on_c, 0, 84, 47
3, 6455, Note_on_c, 0, 82, 0
3, 6479, Control_c, 0, 6, 70
3, 6480, Note_on_c, 0, 84, 0
3, 6480, Note_on_c, 0, 74, 47
3, 6600, Note_on_c, 0, 74, 0
3, 6600, Control_c, 0, 6, 64
3, 6660, Note_on_c, 0, 74, 47
3, 6690, Note_on_c, 0, 75, 47
3, 6695, Note_on_c, 0, 74, 0
3, 6720, Note_on_c, 0, 77, 47
3, 6725, Note_on_c, 0, 75, 0
3, 6750, Note_on_c, 0, 74, 47
3, 6755, Note_on_c, 0, 77, 0
3, 6780, Note_on_c, 0, 72, 47
3, 6785, Note_on_c, 0, 74, 0
3, 6810, Note_on_c, 0, 70, 47
3, 6815, Note_on_c, 0, 72, 0
3, 6840, Note_on_c, 0, 70, 0
3, 6840, Note_on_c, 0, 79, 47
3, 6870, Note_on_c, 0, 79, 0
3, 6870, Note_on_c, 0, 79, 47
3, 6880, Note_on_c, 0, 79, 0
3, 6880, Note_on_c, 0, 80, 47
3, 6890, Note_on_c, 0, 80, 0
3, 6890, Note_on_c, 0, 81, 47
3, 6900, Note_on_c, 0, 81, 0
3, 6900, Note_on_c, 0, 82, 47
3, 6930, Note_on_c, 0, 82, 0
3, 6930, Note_on_c, 0, 79, 47
3, 6959, Control_c, 0, 6, 70
3, 6960, Note_on_c, 0, 79, 0
3, 6960, Note_on_c, 0, 77, 47
3, 7020, Note_on_c, 0, 77, 0
3, 7020, Note_on_c, 0, 70, 47
3, 7080, Note_on_c, 0, 70, 0
3, 7080, Control_c, 0, 6, 64
3, 7110, Note_on_c, 0, 72, 47
3, 7120, Note_on_c, 0, 72, 0
3, 7120, Note_on_c, 0, 70, 47
3, 7130, Note_on_c, 0, 70, 0
3, 7130, Note_on_c, 0, 72, 47
3, 7140, Note_on_c, 0, 72, 0
3, 7140, Note_on_c, 0, 74, 47
3, 7170, Note_on_c, 0, 74, 0
3, 7170, Note_on_c, 0, 75, 47
3, 7200, Note_on_c, 0, 75, 0
3, 7200, Note_on_c, 0, 77, 47
3, 7230, Note_on_c, 0, 74, 47
3, 7235, Note_on_c, 0, 77, 0
3, 7260, Note_on_c, 0, 72, 47
3, 7265, Note_on_c, 0, 74, 0
3, 7290, Note_on_c, 0, 70, 47
3, 7295, Note_on_c, 0, 72, 0
3, 7320, Note_on_c, 0, 70, 0
3, 7320, Note_on_c, 0, 79, 47
3, 7350, Note_on_c, 0, 79, 0
3, 7350, Note_on_c, 0, 80, 47
3, 7360, Note_on_c, 0, 80, 0
3, 7360, Note_on_c, 0, 80, 47
3, 7370, Note_on_c, 0, 80, 0
3, 7370, Note_on_c, 0, 81, 47
3, 7380, Note_on_c, 0, 81, 0
3, 7380, Note_on_c, 0, 82, 47
3, 7410, Note_on_c, 0, 82, 0
3, 7410, Note_on_c, 0, 79, 47
3, 7439, Control_c, 0, 6, 70
3, 7440, Note_on_c, 0, 79, 0
3, 7440, Note_on_c, 0, 77, 47
3, 7495, Note_on_c, 0, 77, 0
3, 7500, Note_on_c, 0, 70, 47
3, 7560, Note_on_c, 0, 70, 0
3, 7560, Control_c, 0, 6, 64
3, 7620, Note_on_c, 0, 77, 47
3, 7650, Note_on_c, 0, 77, 0
3, 7650, Note_on_c, 0, 82, 47
3, 7679, Control_c, 0, 6, 70
3, 7680, Note_on_c, 0, 82, 0
3, 7680, Note_on_c, 0, 79, 47
3, 7733, Note_on_c, 0, 79, 0
3, 7734, Control_c, 0, 6, 64
3, 7740, Note_on_c, 0, 77, 47
3, 7770, Note_on_c, 0, 77, 0
3, 7770, Note_on_c, 0, 75, 47
3, 7800, Note_on_c, 0, 75, 0
3, 7800, Note_on_c, 0, 74, 47
3, 7805, Note_on_c, 0, 74, 0
3, 7805, Note_on_c, 0, 75, 47
3, 7810, Note_on_c, 0, 75, 0
3, 7810, Note_on_c, 0, 74, 47
3, 7815, Note_on_c, 0, 74, 0
3, 7815, Note_on_c, 0, 75, 47
3, 7820, Note_on_c, 0, 75, 0
3, 7820, Note_on_c, 0, 74, 47
3, 7825, Note_on_c, 0, 74, 0
3, 7825, Note_on_c, 0, 75, 47
3, 7830, Note_on_c, 0, 75, 0
3, 7830, Note_on_c, 0, 74, 47
3, 7835, Note_on_c, 0, 74, 0
3, 7835, Note_on_c, 0, 75, 47
3, 7840, Note_on_c, 0, 75, 0
3, 7840, Note_on_c, 0, 74, 47
3, 7845, Note_on_c, 0, 74, 0
3, 7845, Note_on_c, 0, 75, 47
3, 7850, Note_on_c, 0, 75, 0
3, 7850, Note_on_c, 0, 74, 47
3, 7885, Note_on_c, 0, 74, 0
3, 7890, Note_on_c, 0, 75, 47
3, 7920, Note_on_c, 0, 75, 0
3, 7920, Note_on_c, 0, 77, 47
3, 7935, Note_on_c, 0, 77, 0
3, 7935, Note_on_c, 0, 75, 47
3, 7950, Note_on_c, 0, 75, 0
3, 7950, Note_on_c, 0, 77, 47
3, 7965, Note_on_c, 0, 77, 0
3, 7965, Note_on_c, 0, 75, 47
3, 7980, Note_on_c, 0, 75, 0
3, 7980, Note_on_c, 0, 77, 47
3, 7992, Note_on_c, 0, 77, 0
3, 7992, Note_on_c, 0, 75, 47
3, 8004, Note_on_c, 0, 75, 0
3, 8004, Note_on_c, 0, 77, 47
3, 8016, Note_on_c, 0, 77, 0
3, 8016, Note_on_c, 0, 75, 47
3, 8028, Note_on_c, 0, 75, 0
3, 8028, Note_on_c, 0, 77, 47
3, 8040, Note_on_c, 0, 77, 0
3, 8040, Note_on_c, 0, 75, 47
3, 8050, Note_on_c, 0, 75, 0
3, 8050, Note_on_c, 0, 77, 47
3, 8060, Note_on_c, 0, 77, 0
3, 8060, Note_on_c, 0, 75, 47
3, 8070, Note_on_c, 0, 75, 0
3, 8070, Note_on_c, 0, 77, 47
3, 8080, Note_on_c, 0, 77, 0
3, 8080, Note_on_c, 0, 75, 47
3, 8090, Note_on_c, 0, 75, 0
3, 8090, Note_on_c, 0, 77, 47
3, 8100, Note_on_c, 0, 77, 0
3, 8100, Note_on_c, 0, 75, 47
3, 8110, Note_on_c, 0, 75, 0
3, 8110, Note_on_c, 0, 77, 47
3, 8120, Note_on_c, 0, 77, 0
3, 8120, Note_on_c, 0, 75, 47
3, 8130, Note_on_c, 0, 75, 0
3, 8130, Note_on_c, 0, 77, 47
3, 8140, Note_on_c, 0, 77, 0
3, 8140, Note_on_c, 0, 75, 47
3, 8150, Note_on_c, 0, 75, 0
3, 8150, Note_on_c, 0, 77, 47
3, 8160, Note_on_c, 0, 77, 0
3, 8160, Note_on_c, 0, 75, 47
3, 8172, Note_on_c, 0, 75, 0
3, 8172, Note_on_c, 0, 77, 47
3, 8184, Note_on_c, 0, 77, 0
3, 8184, Note_on_c, 0, 75, 47
3, 8196, Note_on_c, 0, 75, 0
3, 8196, Note_on_c, 0, 77, 47
3, 8208, Note_on_c, 0, 77, 0
3, 8208, Note_on_c, 0, 75, 47
3, 8220, Note_on_c, 0, 75, 0
3, 8220, Note_on_c, 0, 77, 47
3, 8235, Note_on_c, 0, 77, 0
3, 8235, Note_on_c, 0, 75, 47
3, 8250, Note_on_c, 0, 75, 0
3, 8250, Note_on_c, 0, 77, 47
3, 8264, Control_c, 0, 6, 70
3, 8265, Note_on_c, 0, 77, 0
3, 8265, Note_on_c, 0, 75, 47
3, 9120, Note_on_c, 0, 75, 0
3, 9120, Control_c, 0, 6, 64
3, 9120, Control_c, 0, 91, 40
3, 9120, Control_c, 0, 93, 0
3, 9121, Text_t, "Non Registered Parameter Numbers"
3, 9122, Text_t, "For Roland SC-55 Vibrato"
3, 9123, Text_t, "It is always elegant programming"
3, 9124, Text_t, "practice to put system variables back"
3, 9125, Text_t, "to the way you found them."
3, 9126, Text_t, "I.E.  Return all these NRPN numbers"
3, 9127, Text_t, "back to default, so the next piece"
3, 9128, Text_t, "that is played isn't messed up by "
3, 9129, Text_t, "parameters for this piece."
3, 9130, Text_t, "Set up NRPN for Vibrate Rate"
3, 9132, Control_c, 0, 99, 1
3, 9133, Control_c, 0, 98, 8
3, 9134, Text_t, "Data Entry Command"
3, 9135, Control_c, 0, 6, 64
3, 9136, Text_t, "Set up NRPN for Vibrate Delay"
3, 9137, Control_c, 0, 99, 1
3, 9138, Control_c, 0, 98, 10
3, 9139, Text_t, "Data Entry Command"
3, 9140, Control_c, 0, 6, 64
3, 9141, Text_t, "Set up NRPN for Vibrate Depth"
3, 9142, Control_c, 0, 99, 1
3, 9143, Control_c, 0, 98, 9
3, 9144, Text_t, "Data Entry Command"
3, 9145, Control_c, 0, 6, 64
3, 9600, Program_c, 0, 0
3, 9600, Control_c, 0, 93, 0
3, 9600, Control_c, 0, 91, 40
3, 9600, Control_c, 0, 10, 64
3, 9600, Control_c, 0, 7, 100
3, 9600, End_track
4, 0, Start_track
4, 0, MIDI_port, 0
4, 0, Title_t, "Pizzicato Str"
4, 0, Program_c, 1, 45
4, 0, Control_c, 1, 7, 95
4, 0, Control_c, 1, 10, 21
4, 0, Control_c, 1, 93, 0
4, 0, Control_c, 1, 91, 120
4, 480, Note_on_c, 1, 75, 31
4, 510, Note_on_c, 1, 75, 0
4, 510, Note_on_c, 1, 79, 31
4, 540, Note_on_c, 1, 79, 0
4, 540, Note_on_c, 1, 82, 31
4, 570, Note_on_c, 1, 82, 0
4, 570, Note_on_c, 1, 79, 31
4, 600, Note_on_c, 1, 79, 0
4, 600, Note_on_c, 1, 75, 31
4, 630, Note_on_c, 1, 75, 0
4, 630, Note_on_c, 1, 79, 31
4, 660, Note_on_c, 1, 79, 0
4, 660, Note_on_c, 1, 82, 31
4, 690, Note_on_c, 1, 82, 0
4, 690, Note_on_c, 1, 79, 31
4, 720, Note_on_c, 1, 79, 0
4, 720, Note_on_c, 1, 74, 31
4, 750, Note_on_c, 1, 74, 0
4, 750, Note_on_c, 1, 77, 31
4, 780, Note_on_c, 1, 77, 0
4, 780, Note_on_c, 1, 82, 31
4, 810, Note_on_c, 1, 82, 0
4, 810, Note_on_c, 1, 77, 31
4, 840, Note_on_c, 1, 77, 0
4, 840, Note_on_c, 1, 74, 31
4, 870, Note_on_c, 1, 74, 0
4, 870, Note_on_c, 1, 77, 31
4, 900, Note_on_c, 1, 77, 0
4, 900, Note_on_c, 1, 82, 31
4, 930, Note_on_c, 1, 82, 0
4, 930, Note_on_c, 1, 77, 31
4, 960, Note_on_c, 1, 77, 0
4, 960, Note_on_c, 1, 74, 31
4, 990, Note_on_c, 1, 74, 0
4, 990, Note_on_c, 1, 77, 31
4, 1020, Note_on_c, 1, 77, 0
4, 1020, Note_on_c, 1, 80, 31
4, 1050, Note_on_c, 1, 80, 0
4, 1050, Note_on_c, 1, 77, 31
4, 1080, Note_on_c, 1, 77, 0
4, 1080, Note_on_c, 1, 74, 31
4, 1110, Note_on_c, 1, 74, 0
4, 1110, Note_on_c, 1, 77, 31
4, 1140, Note_on_c, 1, 77, 0
4, 1140, Note_on_c, 1, 80, 31
4, 1170, Note_on_c, 1, 80, 0
4, 1170, Note_on_c, 1, 77, 31
4, 1200, Note_on_c, 1, 77, 0
4, 1200, Note_on_c, 1, 75, 31
4, 1230, Note_on_c, 1, 75, 0
4, 1230, Note_on_c, 1, 79, 31
4, 1260, Note_on_c, 1, 79, 0
4, 1260, Note_on_c, 1, 82, 31
4, 1290, Note_on_c, 1, 82, 0
4, 1290, Note_on_c, 1, 79, 31
4, 1320, Note_on_c, 1, 79, 0
4, 1320, Note_on_c, 1, 75, 31
4, 1350, Note_on_c, 1, 75, 0
4, 1350, Note_on_c, 1, 79, 31
4, 1380, Note_on_c, 1, 79, 0
4, 1380, Note_on_c, 1, 82, 31
4, 1410, Note_on_c, 1, 82, 0
4, 1410, Note_on_c, 1, 79, 31
4, 1440, Note_on_c, 1, 79, 0
4, 1440, Note_on_c, 1, 77, 31
4, 1470, Note_on_c, 1, 77, 0
4, 1470, Note_on_c, 1, 74, 31
4, 1500, Note_on_c, 1, 74, 0
4, 1500, Note_on_c, 1, 82, 31
4, 1530, Note_on_c, 1, 82, 0
4, 1530, Note_on_c, 1, 80, 31
4, 1560, Note_on_c, 1, 80, 0
4, 1560, Note_on_c, 1, 79, 31
4, 1590, Note_on_c, 1, 79, 0
4, 1590, Note_on_c, 1, 77, 31
4, 1620, Note_on_c, 1, 77, 0
4, 1620, Note_on_c, 1, 75, 31
4, 1650, Note_on_c, 1, 75, 0
4, 1650, Note_on_c, 1, 74, 31
4, 1680, Note_on_c, 1, 74, 0
4, 1680, Note_on_c, 1, 79, 31
4, 1710, Note_on_c, 1, 79, 0
4, 1710, Note_on_c, 1, 72, 31
4, 1740, Note_on_c, 1, 72, 0
4, 1740, Note_on_c, 1, 80, 31
4, 1770, Note_on_c, 1, 80, 0
4, 1770, Note_on_c, 1, 79, 31
4, 1800, Note_on_c, 1, 79, 0
4, 1800, Note_on_c, 1, 77, 31
4, 1830, Note_on_c, 1, 77, 0
4, 1830, Note_on_c, 1, 75, 31
4, 1860, Note_on_c, 1, 75, 0
4, 1860, Note_on_c, 1, 74, 31
4, 1890, Note_on_c, 1, 74, 0
4, 1890, Note_on_c, 1, 72, 31
4, 1920, Note_on_c, 1, 72, 0
4, 1920, Note_on_c, 1, 77, 31
4, 1950, Note_on_c, 1, 77, 0
4, 1950, Note_on_c, 1, 70, 31
4, 1980, Note_on_c, 1, 70, 0
4, 1980, Note_on_c, 1, 79, 31
4, 2010, Note_on_c, 1, 79, 0
4, 2010, Note_on_c, 1, 77, 31
4, 2040, Note_on_c, 1, 77, 0
4, 2040, Note_on_c, 1, 75, 31
4, 2070, Note_on_c, 1, 75, 0
4, 2070, Note_on_c, 1, 74, 31
4, 2100, Note_on_c, 1, 74, 0
4, 2100, Note_on_c, 1, 72, 31
4, 2130, Note_on_c, 1, 72, 0
4, 2130, Note_on_c, 1, 70, 31
4, 2160, Note_on_c, 1, 70, 0
4, 2160, Note_on_c, 1, 75, 31
4, 2190, Note_on_c, 1, 75, 0
4, 2190, Note_on_c, 1, 68, 31
4, 2220, Note_on_c, 1, 68, 0
4, 2220, Note_on_c, 1, 77, 31
4, 2250, Note_on_c, 1, 77, 0
4, 2250, Note_on_c, 1, 75, 31
4, 2280, Note_on_c, 1, 75, 0
4, 2280, Note_on_c, 1, 74, 31
4, 2310, Note_on_c, 1, 74, 0
4, 2310, Note_on_c, 1, 72, 31
4, 2340, Note_on_c, 1, 72, 0
4, 2340, Note_on_c, 1, 70, 31
4, 2370, Note_on_c, 1, 70, 0
4, 2370, Note_on_c, 1, 69, 31
4, 2400, Note_on_c, 1, 69, 0
4, 2400, Note_on_c, 1, 74, 31
4, 2430, Note_on_c, 1, 74, 0
4, 2430, Note_on_c, 1, 77, 31
4, 2460, Note_on_c, 1, 77, 0
4, 2460, Note_on_c, 1, 82, 31
4, 2490, Note_on_c, 1, 82, 0
4, 2490, Note_on_c, 1, 77, 31
4, 2520, Note_on_c, 1, 77, 0
4, 2520, Note_on_c, 1, 74, 31
4, 2550, Note_on_c, 1, 74, 0
4, 2550, Note_on_c, 1, 77, 31
4, 2580, Note_on_c, 1, 77, 0
4, 2580, Note_on_c, 1, 82, 31
4, 2610, Note_on_c, 1, 82, 0
4, 2610, Note_on_c, 1, 77, 31
4, 2640, Note_on_c, 1, 77, 0
4, 2640, Note_on_c, 1, 74, 31
4, 2670, Note_on_c, 1, 74, 0
4, 2670, Note_on_c, 1, 77, 31
4, 2700, Note_on_c, 1, 77, 0
4, 2700, Note_on_c, 1, 82, 31
4, 2730, Note_on_c, 1, 82, 0
4, 2730, Note_on_c, 1, 77, 31
4, 2760, Note_on_c, 1, 77, 0
4, 2760, Note_on_c, 1, 74, 31
4, 2790, Note_on_c, 1, 74, 0
4, 2790, Note_on_c, 1, 77, 31
4, 2820, Note_on_c, 1, 77, 0
4, 2820, Note_on_c, 1, 82, 31
4, 2850, Note_on_c, 1, 82, 0
4, 2850, Note_on_c, 1, 77, 31
4, 2880, Note_on_c, 1, 77, 0
4, 2880, Note_on_c, 1, 75, 31
4, 2910, Note_on_c, 1, 75, 0
4, 2910, Note_on_c, 1, 79, 31
4, 2940, Note_on_c, 1, 79, 0
4, 2940, Note_on_c, 1, 82, 31
4, 2970, Note_on_c, 1, 82, 0
4, 2970, Note_on_c, 1, 79, 31
4, 3000, Note_on_c, 1, 79, 0
4, 3000, Note_on_c, 1, 75, 31
4, 3030, Note_on_c, 1, 75, 0
4, 3030, Note_on_c, 1, 79, 31
4, 3060, Note_on_c, 1, 79, 0
4, 3060, Note_on_c, 1, 82, 31
4, 3090, Note_on_c, 1, 82, 0
4, 3090, Note_on_c, 1, 79, 31
4, 3120, Note_on_c, 1, 79, 0
4, 3120, Note_on_c, 1, 77, 31
4, 3150, Note_on_c, 1, 77, 0
4, 3150, Note_on_c, 1, 81, 31
4, 3180, Note_on_c, 1, 81, 0
4, 3180, Note_on_c, 1, 84, 31
4, 3210, Note_on_c, 1, 84, 0
4, 3210, Note_on_c, 1, 81, 31
4, 3240, Note_on_c, 1, 81, 0
4, 3240, Note_on_c, 1, 77, 31
4, 3270, Note_on_c, 1, 77, 0
4, 3270, Note_on_c, 1, 81, 31
4, 3300, Note_on_c, 1, 81, 0
4, 3300, Note_on_c, 1, 84, 31
4, 3330, Note_on_c, 1, 84, 0
4, 3330, Note_on_c, 1, 81, 31
4, 3360, Note_on_c, 1, 81, 0
4, 3360, Note_on_c, 1, 74, 31
4, 3390, Note_on_c, 1, 74, 0
4, 3390, Note_on_c, 1, 77, 31
4, 3420, Note_on_c, 1, 77, 0
4, 3420, Note_on_c, 1, 82, 31
4, 3450, Note_on_c, 1, 82, 0
4, 3450, Note_on_c, 1, 77, 31
4, 3480, Note_on_c, 1, 77, 0
4, 3480, Note_on_c, 1, 74, 31
4, 3510, Note_on_c, 1, 74, 0
4, 3510, Note_on_c, 1, 77, 31
4, 3540, Note_on_c, 1, 77, 0
4, 3540, Note_on_c, 1, 82, 31
4, 3570, Note_on_c, 1, 82, 0
4, 3570, Note_on_c, 1, 77, 31
4, 3600, Note_on_c, 1, 77, 0
4, 3600, Note_on_c, 1, 72, 31
4, 3630, Note_on_c, 1, 72, 0
4, 3630, Note_on_c, 1, 77, 31
4, 3660, Note_on_c, 1, 77, 0
4, 3660, Note_on_c, 1, 82, 31
4, 3690, Note_on_c, 1, 82, 0
4, 3690, Note_on_c, 1, 77, 31
4, 3720, Note_on_c, 1, 77, 0
4, 3720, Note_on_c, 1, 72, 31
4, 3750, Note_on_c, 1, 72, 0
4, 3750, Note_on_c, 1, 77, 31
4, 3780, Note_on_c, 1, 77, 0
4, 3780, Note_on_c, 1, 82, 31
4, 3810, Note_on_c, 1, 82, 0
4, 3810, Note_on_c, 1, 77, 31
4, 3840, Note_on_c, 1, 77, 0
4, 3840, Note_on_c, 1, 72, 31
4, 3870, Note_on_c, 1, 72, 0
4, 3870, Note_on_c, 1, 77, 31
4, 3900, Note_on_c, 1, 77, 0
4, 3900, Note_on_c, 1, 81, 31
4, 3930, Note_on_c, 1, 81, 0
4, 3930, Note_on_c, 1, 77, 31
4, 3960, Note_on_c, 1, 77, 0
4, 3960, Note_on_c, 1, 72, 31
4, 3990, Note_on_c, 1, 72, 0
4, 3990, Note_on_c, 1, 77, 31
4, 4020, Note_on_c, 1, 77, 0
4, 4020, Note_on_c, 1, 81, 31
4, 4050, Note_on_c, 1, 81, 0
4, 4050, Note_on_c, 1, 77, 31
4, 4080, Note_on_c, 1, 77, 0
4, 4080, Note_on_c, 1, 70, 31
4, 4110, Note_on_c, 1, 70, 0
4, 4110, Note_on_c, 1, 74, 31
4, 4140, Note_on_c, 1, 74, 0
4, 4140, Note_on_c, 1, 77, 31
4, 4170, Note_on_c, 1, 77, 0
4, 4170, Note_on_c, 1, 74, 31
4, 4200, Note_on_c, 1, 74, 0
4, 4200, Note_on_c, 1, 70, 31
4, 4230, Note_on_c, 1, 70, 0
4, 4230, Note_on_c, 1, 74, 31
4, 4260, Note_on_c, 1, 74, 0
4, 4260, Note_on_c, 1, 77, 31
4, 4290, Note_on_c, 1, 77, 0
4, 4290, Note_on_c, 1, 74, 31
4, 4320, Note_on_c, 1, 74, 0
4, 4320, Note_on_c, 1, 70, 31
4, 4350, Note_on_c, 1, 70, 0
4, 4350, Note_on_c, 1, 74, 31
4, 4380, Note_on_c, 1, 74, 0
4, 4380, Note_on_c, 1, 77, 31
4, 4410, Note_on_c, 1, 77, 0
4, 4410, Note_on_c, 1, 74, 31
4, 4440, Note_on_c, 1, 74, 0
4, 4440, Note_on_c, 1, 70, 31
4, 4470, Note_on_c, 1, 70, 0
4, 4470, Note_on_c, 1, 74, 31
4, 4500, Note_on_c, 1, 74, 0
4, 4500, Note_on_c, 1, 77, 31
4, 4530, Note_on_c, 1, 77, 0
4, 4530, Note_on_c, 1, 74, 31
4, 4560, Note_on_c, 1, 74, 0
4, 4560, Note_on_c, 1, 69, 31
4, 4590, Note_on_c, 1, 69, 0
4, 4590, Note_on_c, 1, 72, 31
4, 4620, Note_on_c, 1, 72, 0
4, 4620, Note_on_c, 1, 77, 31
4, 4650, Note_on_c, 1, 77, 0
4, 4650, Note_on_c, 1, 72, 31
4, 4680, Note_on_c, 1, 72, 0
4, 4680, Note_on_c, 1, 69, 31
4, 4710, Note_on_c, 1, 69, 0
4, 4710, Note_on_c, 1, 72, 31
4, 4740, Note_on_c, 1, 72, 0
4, 4740, Note_on_c, 1, 77, 31
4, 4770, Note_on_c, 1, 77, 0
4, 4770, Note_on_c, 1, 72, 31
4, 4800, Note_on_c, 1, 72, 0
4, 4800, Note_on_c, 1, 69, 31
4, 4830, Note_on_c, 1, 69, 0
4, 4830, Note_on_c, 1, 72, 31
4, 4860, Note_on_c, 1, 72, 0
4, 4860, Note_on_c, 1, 75, 31
4, 4890, Note_on_c, 1, 75, 0
4, 4890, Note_on_c, 1, 72, 31
4, 4920, Note_on_c, 1, 72, 0
4, 4920, Note_on_c, 1, 69, 31
4, 4950, Note_on_c, 1, 69, 0
4, 4950, Note_on_c, 1, 72, 31
4, 4980, Note_on_c, 1, 72, 0
4, 4980, Note_on_c, 1, 75, 31
4, 5010, Note_on_c, 1, 75, 0
4, 5010, Note_on_c, 1, 72, 31
4, 5040, Note_on_c, 1, 72, 0
4, 5040, Note_on_c, 1, 74, 31
4, 5070, Note_on_c, 1, 74, 0
4, 5070, Note_on_c, 1, 77, 31
4, 5100, Note_on_c, 1, 77, 0
4, 5100, Note_on_c, 1, 82, 31
4, 5130, Note_on_c, 1, 82, 0
4, 5130, Note_on_c, 1, 77, 31
4, 5160, Note_on_c, 1, 77, 0
4, 5160, Note_on_c, 1, 74, 31
4, 5190, Note_on_c, 1, 74, 0
4, 5190, Note_on_c, 1, 77, 31
4, 5220, Note_on_c, 1, 77, 0
4, 5220, Note_on_c, 1, 82, 31
4, 5250, Note_on_c, 1, 82, 0
4, 5250, Note_on_c, 1, 77, 31
4, 5280, Note_on_c, 1, 77, 0
4, 5280, Note_on_c, 1, 74, 31
4, 5310, Note_on_c, 1, 74, 0
4, 5310, Note_on_c, 1, 77, 31
4, 5340, Note_on_c, 1, 77, 0
4, 5340, Note_on_c, 1, 80, 31
4, 5370, Note_on_c, 1, 80, 0
4, 5370, Note_on_c, 1, 77, 31
4, 5400, Note_on_c, 1, 77, 0
4, 5400, Note_on_c, 1, 74, 31
4, 5430, Note_on_c, 1, 74, 0
4, 5430, Note_on_c, 1, 77, 31
4, 5460, Note_on_c, 1, 77, 0
4, 5460, Note_on_c, 1, 80, 31
4, 5490, Note_on_c, 1, 80, 0
4, 5490, Note_on_c, 1, 77, 31
4, 5520, Note_on_c, 1, 77, 0
4, 5520, Note_on_c, 1, 75, 31
4, 5550, Note_on_c, 1, 75, 0
4, 5550, Note_on_c, 1, 79, 31
4, 5580, Note_on_c, 1, 79, 0
4, 5580, Note_on_c, 1, 82, 31
4, 5610, Note_on_c, 1, 82, 0
4, 5610, Note_on_c, 1, 79, 31
4, 5640, Note_on_c, 1, 79, 0
4, 5640, Note_on_c, 1, 75, 31
4, 5670, Note_on_c, 1, 75, 0
4, 5670, Note_on_c, 1, 79, 31
4, 5700, Note_on_c, 1, 79, 0
4, 5700, Note_on_c, 1, 82, 31
4, 5730, Note_on_c, 1, 82, 0
4, 5730, Note_on_c, 1, 79, 31
4, 5760, Note_on_c, 1, 79, 0
4, 5760, Note_on_c, 1, 75, 31
4, 5790, Note_on_c, 1, 75, 0
4, 5790, Note_on_c, 1, 80, 31
4, 5820, Note_on_c, 1, 80, 0
4, 5820, Note_on_c, 1, 75, 31
4, 5850, Note_on_c, 1, 75, 0
4, 5850, Note_on_c, 1, 80, 31
4, 5880, Note_on_c, 1, 80, 0
4, 5880, Note_on_c, 1, 75, 31
4, 5910, Note_on_c, 1, 75, 0
4, 5910, Note_on_c, 1, 80, 31
4, 5940, Note_on_c, 1, 80, 0
4, 5940, Note_on_c, 1, 75, 31
4, 5970, Note_on_c, 1, 75, 0
4, 5970, Note_on_c, 1, 80, 31
4, 6000, Note_on_c, 1, 80, 0
4, 6000, Note_on_c, 1, 77, 31
4, 6030, Note_on_c, 1, 77, 0
4, 6030, Note_on_c, 1, 82, 31
4, 6060, Note_on_c, 1, 82, 0
4, 6060, Note_on_c, 1, 77, 31
4, 6090, Note_on_c, 1, 77, 0
4, 6090, Note_on_c, 1, 82, 31
4, 6120, Note_on_c, 1, 82, 0
4, 6120, Note_on_c, 1, 77, 31
4, 6150, Note_on_c, 1, 77, 0
4, 6150, Note_on_c, 1, 82, 31
4, 6180, Note_on_c, 1, 82, 0
4, 6180, Note_on_c, 1, 77, 31
4, 6210, Note_on_c, 1, 77, 0
4, 6210, Note_on_c, 1, 82, 31
4, 6240, Note_on_c, 1, 82, 0
4, 6240, Note_on_c, 1, 79, 31
4, 6270, Note_on_c, 1, 79, 0
4, 6270, Note_on_c, 1, 84, 31
4, 6300, Note_on_c, 1, 84, 0
4, 6300, Note_on_c, 1, 79, 31
4, 6330, Note_on_c, 1, 79, 0
4, 6330, Note_on_c, 1, 84, 31
4, 6360, Note_on_c, 1, 84, 0
4, 6360, Note_on_c, 1, 80, 31
4, 6390, Note_on_c, 1, 80, 0
4, 6390, Note_on_c, 1, 84, 31
4, 6420, Note_on_c, 1, 84, 0
4, 6420, Note_on_c, 1, 80, 31
4, 6450, Note_on_c, 1, 80, 0
4, 6450, Note_on_c, 1, 84, 31
4, 6480, Note_on_c, 1, 84, 0
4, 6480, Note_on_c, 1, 74, 31
4, 6510, Note_on_c, 1, 74, 0
4, 6510, Note_on_c, 1, 77, 31
4, 6540, Note_on_c, 1, 77, 0
4, 6540, Note_on_c, 1, 82, 31
4, 6570, Note_on_c, 1, 82, 0
4, 6570, Note_on_c, 1, 77, 31
4, 6600, Note_on_c, 1, 77, 0
4, 6600, Note_on_c, 1, 74, 31
4, 6630, Note_on_c, 1, 74, 0
4, 6630, Note_on_c, 1, 77, 31
4, 6660, Note_on_c, 1, 77, 0
4, 6660, Note_on_c, 1, 82, 31
4, 6690, Note_on_c, 1, 82, 0
4, 6690, Note_on_c, 1, 77, 31
4, 6720, Note_on_c, 1, 77, 0
4, 6720, Note_on_c, 1, 74, 31
4, 6750, Note_on_c, 1, 74, 0
4, 6750, Note_on_c, 1, 77, 31
4, 6780, Note_on_c, 1, 77, 0
4, 6780, Note_on_c, 1, 82, 31
4, 6810, Note_on_c, 1, 82, 0
4, 6810, Note_on_c, 1, 77, 31
4, 6840, Note_on_c, 1, 77, 0
4, 6840, Note_on_c, 1, 75, 31
4, 6870, Note_on_c, 1, 75, 0
4, 6870, Note_on_c, 1, 79, 31
4, 6900, Note_on_c, 1, 79, 0
4, 6900, Note_on_c, 1, 82, 31
4, 6930, Note_on_c, 1, 82, 0
4, 6930, Note_on_c, 1, 75, 31
4, 6960, Note_on_c, 1, 75, 0
4, 6960, Note_on_c, 1, 74, 31
4, 6990, Note_on_c, 1, 74, 0
4, 6990, Note_on_c, 1, 77, 31
4, 7020, Note_on_c, 1, 77, 0
4, 7020, Note_on_c, 1, 82, 31
4, 7050, Note_on_c, 1, 82, 0
4, 7050, Note_on_c, 1, 77, 31
4, 7080, Note_on_c, 1, 77, 0
4, 7080, Note_on_c, 1, 74, 31
4, 7110, Note_on_c, 1, 74, 0
4, 7110, Note_on_c, 1, 77, 31
4, 7140, Note_on_c, 1, 77, 0
4, 7140, Note_on_c, 1, 82, 31
4, 7170, Note_on_c, 1, 82, 0
4, 7170, Note_on_c, 1, 77, 31
4, 7200, Note_on_c, 1, 77, 0
4, 7200, Note_on_c, 1, 74, 31
4, 7230, Note_on_c, 1, 74, 0
4, 7230, Note_on_c, 1, 77, 31
4, 7260, Note_on_c, 1, 77, 0
4, 7260, Note_on_c, 1, 82, 31
4, 7290, Note_on_c, 1, 82, 0
4, 7290, Note_on_c, 1, 77, 31
4, 7320, Note_on_c, 1, 77, 0
4, 7320, Note_on_c, 1, 75, 31
4, 7350, Note_on_c, 1, 75, 0
4, 7350, Note_on_c, 1, 79, 31
4, 7380, Note_on_c, 1, 79, 0
4, 7380, Note_on_c, 1, 82, 31
4, 7410, Note_on_c, 1, 82, 0
4, 7410, Note_on_c, 1, 75, 31
4, 7440, Note_on_c, 1, 75, 0
4, 7440, Note_on_c, 1, 74, 31
4, 7470, Note_on_c, 1, 74, 0
4, 7470, Note_on_c, 1, 77, 31
4, 7500, Note_on_c, 1, 77, 0
4, 7500, Note_on_c, 1, 82, 31
4, 7530, Note_on_c, 1, 82, 0
4, 7530, Note_on_c, 1, 77, 31
4, 7560, Note_on_c, 1, 77, 0
4, 7560, Note_on_c, 1, 74, 31
4, 7590, Note_on_c, 1, 74, 0
4, 7590, Note_on_c, 1, 77, 31
4, 7620, Note_on_c, 1, 77, 0
4, 7620, Note_on_c, 1, 82, 31
4, 7650, Note_on_c, 1, 82, 0
4, 7650, Note_on_c, 1, 77, 31
4, 7680, Note_on_c, 1, 77, 0
4, 7680, Note_on_c, 1, 75, 31
4, 7710, Note_on_c, 1, 75, 0
4, 7710, Note_on_c, 1, 79, 31
4, 7740, Note_on_c, 1, 79, 0
4, 7740, Note_on_c, 1, 82, 31
4, 7770, Note_on_c, 1, 82, 0
4, 7770, Note_on_c, 1, 75, 31
4, 7800, Note_on_c, 1, 75, 0
4, 7800, Note_on_c, 1, 74, 31
4, 7830, Note_on_c, 1, 74, 0
4, 7830, Note_on_c, 1, 77, 31
4, 7860, Note_on_c, 1, 77, 0
4, 7860, Note_on_c, 1, 82, 31
4, 7890, Note_on_c, 1, 82, 0
4, 7890, Note_on_c, 1, 77, 31
4, 7920, Note_on_c, 1, 77, 0
4, 7920, Note_on_c, 1, 75, 31
4, 7950, Note_on_c, 1, 75, 0
4, 7950, Note_on_c, 1, 79, 31
4, 7980, Note_on_c, 1, 79, 0
4, 7980, Note_on_c, 1, 82, 31
4, 8010, Note_on_c, 1, 82, 0
4, 8010, Note_on_c, 1, 79, 31
4, 8040, Note_on_c, 1, 79, 0
4, 8040, Note_on_c, 1, 75, 31
4, 8070, Note_on_c, 1, 75, 0
4, 8070, Note_on_c, 1, 79, 31
4, 8100, Note_on_c, 1, 79, 0
4, 8100, Note_on_c, 1, 82, 31
4, 8130, Note_on_c, 1, 82, 0
4, 8130, Note_on_c, 1, 79, 31
4, 8160, Note_on_c, 1, 79, 0
4, 8160, Note_on_c, 1, 70, 31
4, 8190, Note_on_c, 1, 70, 0
4, 8190, Note_on_c, 1, 75, 31
4, 8220, Note_on_c, 1, 75, 0
4, 8220, Note_on_c, 1, 79, 31
4, 8250, Note_on_c, 1, 79, 0
4, 8250, Note_on_c, 1, 75, 31
4, 8280, Note_on_c, 1, 75, 0
4, 8280, Note_on_c, 1, 70, 31
4, 8310, Note_on_c, 1, 70, 0
4, 8310, Note_on_c, 1, 75, 31
4, 8340, Note_on_c, 1, 75, 0
4, 8340, Note_on_c, 1, 79, 31
4, 8370, Note_on_c, 1, 79, 0
4, 8370, Note_on_c, 1, 75, 31
4, 8400, Note_on_c, 1, 75, 0
4, 8400, Note_on_c, 1, 67, 31
4, 8430, Note_on_c, 1, 67, 0
4, 8430, Note_on_c, 1, 70, 31
4, 8460, Note_on_c, 1, 70, 0
4, 8460, Note_on_c, 1, 75, 31
4, 8490, Note_on_c, 1, 75, 0
4, 8490, Note_on_c, 1, 70, 31
4, 8520, Note_on_c, 1, 70, 0
4, 8520, Note_on_c, 1, 67, 31
4, 8550, Note_on_c, 1, 67, 0
4, 8550, Note_on_c, 1, 70, 31
4, 8580, Note_on_c, 1, 70, 0
4, 8580, Note_on_c, 1, 75, 31
4, 8610, Note_on_c, 1, 75, 0
4, 8610, Note_on_c, 1, 70, 31
4, 8640, Note_on_c, 1, 70, 0
4, 8640, Program_c, 1, 48
4, 8640, Note_on_c, 1, 67, 31
4, 9120, Note_on_c, 1, 67, 0
4, 9120, Control_c, 1, 6, 64
4, 9120, Control_c, 1, 91, 40
4, 9120, Control_c, 1, 93, 0
4, 9121, Text_t, "Non Registered Parameter Numbers"
4, 9122, Text_t, "For Roland SC-55 Vibrato"
4, 9123, Text_t, "It is always elegant programming"
4, 9124, Text_t, "practice to put system variables back"
4, 9125, Text_t, "to the way you found them."
4, 9126, Text_t, "I.E.  Return all these NRPN numbers"
4, 9127, Text_t, "back to default, so the next piece"
4, 9128, Text_t, "that is played isn't messed up by "
4, 9129, Text_t, "parameters for this piece."
4, 9130, Text_t, "Set up NRPN for Vibrate Rate"
4, 9132, Control_c, 1, 99, 1
4, 9133, Control_c, 1, 98, 8
4, 9134, Text_t, "Data Entry Command"
4, 9135, Control_c, 1, 6, 64
4, 9136, Text_t, "Set up NRPN for Vibrate Delay"
4, 9137, Control_c, 1, 99, 1
4, 9138, Control_c, 1, 98, 10
4, 9139, Text_t, "Data Entry Command"
4, 9140, Control_c, 1, 6, 64
4, 9141, Text_t, "Set up NRPN for Vibrate Depth"
4, 9142, Control_c, 1, 99, 1
4, 9143, Control_c, 1, 98, 9
4, 9144, Text_t, "Data Entry Command"
4, 9145, Control_c, 1, 6, 64
4, 9600, Program_c, 1, 0
4, 9600, Control_c, 1, 93, 0
4, 9600, Control_c, 1, 91, 40
4, 9600, Control_c, 1, 10, 64
4, 9600, Control_c, 1, 7, 100
4, 9600, End_track
5, 0, Start_track
5, 0, MIDI_port, 0
5, 0, Title_t, "     Harp"
5, 0, Program_c, 2, 46
5, 0, Control_c, 2, 7, 90
5, 0, Control_c, 2, 10, 106
5, 0, Control_c, 2, 93, 0
5, 0, Control_c, 2, 91, 120
5, 480, Control_c, 2, 91, 120
5, 480, Note_on_c, 2, 75, 31
5, 510, Note_on_c, 2, 75, 0
5, 510, Note_on_c, 2, 79, 31
5, 540, Note_on_c, 2, 79, 0
5, 540, Note_on_c, 2, 82, 31
5, 570, Note_on_c, 2, 82, 0
5, 570, Note_on_c, 2, 79, 31
5, 600, Note_on_c, 2, 79, 0
5, 600, Note_on_c, 2, 75, 31
5, 630, Note_on_c, 2, 75, 0
5, 630, Note_on_c, 2, 79, 31
5, 660, Note_on_c, 2, 79, 0
5, 660, Note_on_c, 2, 82, 31
5, 690, Note_on_c, 2, 82, 0
5, 690, Note_on_c, 2, 79, 31
5, 720, Note_on_c, 2, 79, 0
5, 720, Note_on_c, 2, 74, 31
5, 750, Note_on_c, 2, 74, 0
5, 750, Note_on_c, 2, 77, 31
5, 780, Note_on_c, 2, 77, 0
5, 780, Note_on_c, 2, 82, 31
5, 810, Note_on_c, 2, 82, 0
5, 810, Note_on_c, 2, 77, 31
5, 840, Note_on_c, 2, 77, 0
5, 840, Note_on_c, 2, 74, 31
5, 870, Note_on_c, 2, 74, 0
5, 870, Note_on_c, 2, 77, 31
5, 900, Note_on_c, 2, 77, 0
5, 900, Note_on_c, 2, 82, 31
5, 930, Note_on_c, 2, 82, 0
5, 930, Note_on_c, 2, 77, 31
5, 960, Note_on_c, 2, 77, 0
5, 960, Note_on_c, 2, 74, 31
5, 990, Note_on_c, 2, 74, 0
5, 990, Note_on_c, 2, 77, 31
5, 1020, Note_on_c, 2, 77, 0
5, 1020, Note_on_c, 2, 80, 31
5, 1050, Note_on_c, 2, 80, 0
5, 1050, Note_on_c, 2, 77, 31
5, 1080, Note_on_c, 2, 77, 0
5, 1080, Note_on_c, 2, 74, 31
5, 1110, Note_on_c, 2, 74, 0
5, 1110, Note_on_c, 2, 77, 31
5, 1140, Note_on_c, 2, 77, 0
5, 1140, Note_on_c, 2, 80, 31
5, 1170, Note_on_c, 2, 80, 0
5, 1170, Note_on_c, 2, 77, 31
5, 1200, Note_on_c, 2, 77, 0
5, 1200, Note_on_c, 2, 75, 31
5, 1230, Note_on_c, 2, 75, 0
5, 1230, Note_on_c, 2, 79, 31
5, 1260, Note_on_c, 2, 79, 0
5, 1260, Note_on_c, 2, 82, 31
5, 1290, Note_on_c, 2, 82, 0
5, 1290, Note_on_c, 2, 79, 31
5, 1320, Note_on_c, 2, 79, 0
5, 1320, Note_on_c, 2, 75, 31
5, 1350, Note_on_c, 2, 75, 0
5, 1350, Note_on_c, 2, 79, 31
5, 1380, Note_on_c, 2, 79, 0
5, 1380, Note_on_c, 2, 82, 31
5, 1410, Note_on_c, 2, 82, 0
5, 1410, Note_on_c, 2, 79, 31
5, 1440, Note_on_c, 2, 79, 0
5, 1440, Note_on_c, 2, 77, 31
5, 1470, Note_on_c, 2, 77, 0
5, 1470, Note_on_c, 2, 74, 31
5, 1500, Note_on_c, 2, 74, 0
5, 1500, Note_on_c, 2, 82, 31
5, 1530, Note_on_c, 2, 82, 0
5, 1530, Note_on_c, 2, 80, 31
5, 1560, Note_on_c, 2, 80, 0
5, 1560, Note_on_c, 2, 79, 31
5, 1590, Note_on_c, 2, 79, 0
5, 1590, Note_on_c, 2, 77, 31
5, 1620, Note_on_c, 2, 77, 0
5, 1620, Note_on_c, 2, 75, 31
5, 1650, Note_on_c, 2, 75, 0
5, 1650, Note_on_c, 2, 74, 31
5, 1680, Note_on_c, 2, 74, 0
5, 1680, Note_on_c, 2, 79, 31
5, 1710, Note_on_c, 2, 79, 0
5, 1710, Note_on_c, 2, 72, 31
5, 1740, Note_on_c, 2, 72, 0
5, 1740, Note_on_c, 2, 80, 31
5, 1770, Note_on_c, 2, 80, 0
5, 1770, Note_on_c, 2, 79, 31
5, 1800, Note_on_c, 2, 79, 0
5, 1800, Note_on_c, 2, 77, 31
5, 1830, Note_on_c, 2, 77, 0
5, 1830, Note_on_c, 2, 75, 31
5, 1860, Note_on_c, 2, 75, 0
5, 1860, Note_on_c, 2, 74, 31
5, 1890, Note_on_c, 2, 74, 0
5, 1890, Note_on_c, 2, 72, 31
5, 1920, Note_on_c, 2, 72, 0
5, 1920, Note_on_c, 2, 77, 31
5, 1950, Note_on_c, 2, 77, 0
5, 1950, Note_on_c, 2, 70, 31
5, 1980, Note_on_c, 2, 70, 0
5, 1980, Note_on_c, 2, 79, 31
5, 2010, Note_on_c, 2, 79, 0
5, 2010, Note_on_c, 2, 77, 31
5, 2040, Note_on_c, 2, 77, 0
5, 2040, Note_on_c, 2, 75, 31
5, 2070, Note_on_c, 2, 75, 0
5, 2070, Note_on_c, 2, 74, 31
5, 2100, Note_on_c, 2, 74, 0
5, 2100, Note_on_c, 2, 72, 31
5, 2130, Note_on_c, 2, 72, 0
5, 2130, Note_on_c, 2, 70, 31
5, 2160, Note_on_c, 2, 70, 0
5, 2160, Note_on_c, 2, 75, 31
5, 2190, Note_on_c, 2, 75, 0
5, 2190, Note_on_c, 2, 68, 31
5, 2220, Note_on_c, 2, 68, 0
5, 2220, Note_on_c, 2, 77, 31
5, 2250, Note_on_c, 2, 77, 0
5, 2250, Note_on_c, 2, 75, 31
5, 2280, Note_on_c, 2, 75, 0
5, 2280, Note_on_c, 2, 74, 31
5, 2310, Note_on_c, 2, 74, 0
5, 2310, Note_on_c, 2, 72, 31
5, 2340, Note_on_c, 2, 72, 0
5, 2340, Note_on_c, 2, 70, 31
5, 2370, Note_on_c, 2, 70, 0
5, 2370, Note_on_c, 2, 69, 31
5, 2400, Note_on_c, 2, 69, 0
5, 2400, Note_on_c, 2, 74, 31
5, 2430, Note_on_c, 2, 74, 0
5, 2430, Note_on_c, 2, 77, 31
5, 2460, Note_on_c, 2, 77, 0
5, 2460, Note_on_c, 2, 82, 31
5, 2490, Note_on_c, 2, 82, 0
5, 2490, Note_on_c, 2, 77, 31
5, 2520, Note_on_c, 2, 77, 0
5, 2520, Note_on_c, 2, 74, 31
5, 2550, Note_on_c, 2, 74, 0
5, 2550, Note_on_c, 2, 77, 31
5, 2580, Note_on_c, 2, 77, 0
5, 2580, Note_on_c, 2, 82, 31
5, 2610, Note_on_c, 2, 82, 0
5, 2610, Note_on_c, 2, 77, 31
5, 2640, Note_on_c, 2, 77, 0
5, 2640, Note_on_c, 2, 74, 31
5, 2670, Note_on_c, 2, 74, 0
5, 2670, Note_on_c, 2, 77, 31
5, 2700, Note_on_c, 2, 77, 0
5, 2700, Note_on_c, 2, 82, 31
5, 2730, Note_on_c, 2, 82, 0
5, 2730, Note_on_c, 2, 77, 31
5, 2760, Note_on_c, 2, 77, 0
5, 2760, Note_on_c, 2, 74, 31
5, 2790, Note_on_c, 2, 74, 0
5, 2790, Note_on_c, 2, 77, 31
5, 2820, Note_on_c, 2, 77, 0
5, 2820, Note_on_c, 2, 82, 31
5, 2850, Note_on_c, 2, 82, 0
5, 2850, Note_on_c, 2, 77, 31
5, 2880, Note_on_c, 2, 77, 0
5, 2880, Note_on_c, 2, 75, 31
5, 2910, Note_on_c, 2, 75, 0
5, 2910, Note_on_c, 2, 79, 31
5, 2940, Note_on_c, 2, 79, 0
5, 2940, Note_on_c, 2, 82, 31
5, 2970, Note_on_c, 2, 82, 0
5, 2970, Note_on_c, 2, 79, 31
5, 3000, Note_on_c, 2, 79, 0
5, 3000, Note_on_c, 2, 75, 31
5, 3030, Note_on_c, 2, 75, 0
5, 3030, Note_on_c, 2, 79, 31
5, 3060, Note_on_c, 2, 79, 0
5, 3060, Note_on_c, 2, 82, 31
5, 3090, Note_on_c, 2, 82, 0
5, 3090, Note_on_c, 2, 79, 31
5, 3120, Note_on_c, 2, 79, 0
5, 3120, Note_on_c, 2, 77, 31
5, 3150, Note_on_c, 2, 77, 0
5, 3150, Note_on_c, 2, 81, 31
5, 3180, Note_on_c, 2, 81, 0
5, 3180, Note_on_c, 2, 84, 31
5, 3210, Note_on_c, 2, 84, 0
5, 3210, Note_on_c, 2, 81, 31
5, 3240, Note_on_c, 2, 81, 0
5, 3240, Note_on_c, 2, 77, 31
5, 3270, Note_on_c, 2, 77, 0
5, 3270, Note_on_c, 2, 81, 31
5, 3300, Note_on_c, 2, 81, 0
5, 3300, Note_on_c, 2, 84, 31
5, 3330, Note_on_c, 2, 84, 0
5, 3330, Note_on_c, 2, 81, 31
5, 3360, Note_on_c, 2, 81, 0
5, 3360, Note_on_c, 2, 74, 31
5, 3390, Note_on_c, 2, 74, 0
5, 3390, Note_on_c, 2, 77, 31
5, 3420, Note_on_c, 2, 77, 0
5, 3420, Note_on_c, 2, 82, 31
5, 3450, Note_on_c, 2, 82, 0
5, 3450, Note_on_c, 2, 77, 31
5, 3480, Note_on_c, 2, 77, 0
5, 3480, Note_on_c, 2, 74, 31
5, 3510, Note_on_c, 2, 74, 0
5, 3510, Note_on_c, 2, 77, 31
5, 3540, Note_on_c, 2, 77, 0
5, 3540, Note_on_c, 2, 82, 31
5, 3570, Note_on_c, 2, 82, 0
5, 3570, Note_on_c, 2, 77, 31
5, 3600, Note_on_c, 2, 77, 0
5, 3600, Note_on_c, 2, 72, 31
5, 3630, Note_on_c, 2, 72, 0
5, 3630, Note_on_c, 2, 77, 31
5, 3660, Note_on_c, 2, 77, 0
5, 3660, Note_on_c, 2, 82, 31
5, 3690, Note_on_c, 2, 82, 0
5, 3690, Note_on_c, 2, 77, 31
5, 3720, Note_on_c, 2, 77, 0
5, 3720, Note_on_c, 2, 72, 31
5, 3750, Note_on_c, 2, 72, 0
5, 3750, Note_on_c, 2, 77, 31
5, 3780, Note_on_c, 2, 77, 0
5, 3780, Note_on_c, 2, 82, 31
5, 3810, Note_on_c, 2, 82, 0
5, 3810, Note_on_c, 2, 77, 31
5, 3840, Note_on_c, 2, 77, 0
5, 3840, Note_on_c, 2, 72, 31
5, 3870, Note_on_c, 2, 72, 0
5, 3870, Note_on_c, 2, 77, 31
5, 3900, Note_on_c, 2, 77, 0
5, 3900, Note_on_c, 2, 81, 31
5, 3930, Note_on_c, 2, 81, 0
5, 3930, Note_on_c, 2, 77, 31
5, 3960, Note_on_c, 2, 77, 0
5, 3960, Note_on_c, 2, 72, 31
5, 3990, Note_on_c, 2, 72, 0
5, 3990, Note_on_c, 2, 77, 31
5, 4020, Note_on_c, 2, 77, 0
5, 4020, Note_on_c, 2, 81, 31
5, 4050, Note_on_c, 2, 81, 0
5, 4050, Note_on_c, 2, 77, 31
5, 4080, Note_on_c, 2, 77, 0
5, 4080, Note_on_c, 2, 70, 31
5, 4110, Note_on_c, 2, 70, 0
5, 4110, Note_on_c, 2, 74, 31
5, 4140, Note_on_c, 2, 74, 0
5, 4140, Note_on_c, 2, 77, 31
5, 4170, Note_on_c, 2, 77, 0
5, 4170, Note_on_c, 2, 74, 31
5, 4200, Note_on_c, 2, 74, 0
5, 4200, Note_on_c, 2, 70, 31
5, 4230, Note_on_c, 2, 70, 0
5, 4230, Note_on_c, 2, 74, 31
5, 4260, Note_on_c, 2, 74, 0
5, 4260, Note_on_c, 2, 77, 31
5, 4290, Note_on_c, 2, 77, 0
5, 4290, Note_on_c, 2, 74, 31
5, 4320, Note_on_c, 2, 74, 0
5, 4320, Note_on_c, 2, 70, 31
5, 4350, Note_on_c, 2, 70, 0
5, 4350, Note_on_c, 2, 74, 31
5, 4380, Note_on_c, 2, 74, 0
5, 4380, Note_on_c, 2, 77, 31
5, 4410, Note_on_c, 2, 77, 0
5, 4410, Note_on_c, 2, 74, 31
5, 4440, Note_on_c, 2, 74, 0
5, 4440, Note_on_c, 2, 70, 31
5, 4470, Note_on_c, 2, 70, 0
5, 4470, Note_on_c, 2, 74, 31
5, 4500, Note_on_c, 2, 74, 0
5, 4500, Note_on_c, 2, 77, 31
5, 4530, Note_on_c, 2, 77, 0
5, 4530, Note_on_c, 2, 74, 31
5, 4560, Note_on_c, 2, 74, 0
5, 4560, Note_on_c, 2, 69, 31
5, 4590, Note_on_c, 2, 69, 0
5, 4590, Note_on_c, 2, 72, 31
5, 4620, Note_on_c, 2, 72, 0
5, 4620, Note_on_c, 2, 77, 31
5, 4650, Note_on_c, 2, 77, 0
5, 4650, Note_on_c, 2, 72, 31
5, 4680, Note_on_c, 2, 72, 0
5, 4680, Note_on_c, 2, 69, 31
5, 4710, Note_on_c, 2, 69, 0
5, 4710, Note_on_c, 2, 72, 31
5, 4740, Note_on_c, 2, 72, 0
5, 4740, Note_on_c, 2, 77, 31
5, 4770, Note_on_c, 2, 77, 0
5, 4770, Note_on_c, 2, 72, 31
5, 4800, Note_on_c, 2, 72, 0
5, 4800, Note_on_c, 2, 69, 31
5, 4830, Note_on_c, 2, 69, 0
5, 4830, Note_on_c, 2, 72, 31
5, 4860, Note_on_c, 2, 72, 0
5, 4860, Note_on_c, 2, 75, 31
5, 4890, Note_on_c, 2, 75, 0
5, 4890, Note_on_c, 2, 72, 31
5, 4920, Note_on_c, 2, 72, 0
5, 4920, Note_on_c, 2, 69, 31
5, 4950, Note_on_c, 2, 69, 0
5, 4950, Note_on_c, 2, 72, 31
5, 4980, Note_on_c, 2, 72, 0
5, 4980, Note_on_c, 2, 75, 31
5, 5010, Note_on_c, 2, 75, 0
5, 5010, Note_on_c, 2, 72, 31
5, 5040, Note_on_c, 2, 72, 0
5, 5040, Note_on_c, 2, 74, 31
5, 5070, Note_on_c, 2, 74, 0
5, 5070, Note_on_c, 2, 77, 31
5, 5100, Note_on_c, 2, 77, 0
5, 5100, Note_on_c, 2, 82, 31
5, 5130, Note_on_c, 2, 82, 0
5, 5130, Note_on_c, 2, 77, 31
5, 5160, Note_on_c, 2, 77, 0
5, 5160, Note_on_c, 2, 74, 31
5, 5190, Note_on_c, 2, 74, 0
5, 5190, Note_on_c, 2, 77, 31
5, 5220, Note_on_c, 2, 77, 0
5, 5220, Note_on_c, 2, 82, 31
5, 5250, Note_on_c, 2, 82, 0
5, 5250, Note_on_c, 2, 77, 31
5, 5280, Note_on_c, 2, 77, 0
5, 5280, Note_on_c, 2, 74, 31
5, 5310, Note_on_c, 2, 74, 0
5, 5310, Note_on_c, 2, 77, 31
5, 5340, Note_on_c, 2, 77, 0
5, 5340, Note_on_c, 2, 80, 31
5, 5370, Note_on_c, 2, 80, 0
5, 5370, Note_on_c, 2, 77, 31
5, 5400, Note_on_c, 2, 77, 0
5, 5400, Note_on_c, 2, 74, 31
5, 5430, Note_on_c, 2, 74, 0
5, 5430, Note_on_c, 2, 77, 31
5, 5460, Note_on_c, 2, 77, 0
5, 5460, Note_on_c, 2, 80, 31
5, 5490, Note_on_c, 2, 80, 0
5, 5490, Note_on_c, 2, 77, 31
5, 5520, Note_on_c, 2, 77, 0
5, 5520, Note_on_c, 2, 75, 31
5, 5550, Note_on_c, 2, 75, 0
5, 5550, Note_on_c, 2, 79, 31
5, 5580, Note_on_c, 2, 79, 0
5, 5580, Note_on_c, 2, 82, 31
5, 5610, Note_on_c, 2, 82, 0
5, 5610, Note_on_c, 2, 79, 31
5, 5640, Note_on_c, 2, 79, 0
5, 5640, Note_on_c, 2, 75, 31
5, 5670, Note_on_c, 2, 75, 0
5, 5670, Note_on_c, 2, 79, 31
5, 5700, Note_on_c, 2, 79, 0
5, 5700, Note_on_c, 2, 82, 31
5, 5730, Note_on_c, 2, 82, 0
5, 5730, Note_on_c, 2, 79, 31
5, 5760, Note_on_c, 2, 79, 0
5, 5760, Note_on_c, 2, 75, 31
5, 5790, Note_on_c, 2, 75, 0
5, 5790, Note_on_c, 2, 80, 31
5, 5820, Note_on_c, 2, 80, 0
5, 5820, Note_on_c, 2, 75, 31
5, 5850, Note_on_c, 2, 75, 0
5, 5850, Note_on_c, 2, 80, 31
5, 5880, Note_on_c, 2, 80, 0
5, 5880, Note_on_c, 2, 75, 31
5, 5910, Note_on_c, 2, 75, 0
5, 5910, Note_on_c, 2, 80, 31
5, 5940, Note_on_c, 2, 80, 0
5, 5940, Note_on_c, 2, 75, 31
5, 5970, Note_on_c, 2, 75, 0
5, 5970, Note_on_c, 2, 80, 31
5, 6000, Note_on_c, 2, 80, 0
5, 6000, Note_on_c, 2, 77, 31
5, 6030, Note_on_c, 2, 77, 0
5, 6030, Note_on_c, 2, 82, 31
5, 6060, Note_on_c, 2, 82, 0
5, 6060, Note_on_c, 2, 77, 31
5, 6090, Note_on_c, 2, 77, 0
5, 6090, Note_on_c, 2, 82, 31
5, 6120, Note_on_c, 2, 82, 0
5, 6120, Note_on_c, 2, 77, 31
5, 6150, Note_on_c, 2, 77, 0
5, 6150, Note_on_c, 2, 82, 31
5, 6180, Note_on_c, 2, 82, 0
5, 6180, Note_on_c, 2, 77, 31
5, 6210, Note_on_c, 2, 77, 0
5, 6210, Note_on_c, 2, 82, 31
5, 6240, Note_on_c, 2, 82, 0
5, 6240, Note_on_c, 2, 79, 31
5, 6270, Note_on_c, 2, 79, 0
5, 6270, Note_on_c, 2, 84, 31
5, 6300, Note_on_c, 2, 84, 0
5, 6300, Note_on_c, 2, 79, 31
5, 6330, Note_on_c, 2, 79, 0
5, 6330, Note_on_c, 2, 84, 31
5, 6360, Note_on_c, 2, 84, 0
5, 6360, Note_on_c, 2, 80, 31
5, 6390, Note_on_c, 2, 80, 0
5, 6390, Note_on_c, 2, 84, 31
5, 6420, Note_on_c, 2, 84, 0
5, 6420, Note_on_c, 2, 80, 31
5, 6450, Note_on_c, 2, 80, 0
5, 6450, Note_on_c, 2, 84, 31
5, 6480, Note_on_c, 2, 84, 0
5, 6480, Note_on_c, 2, 74, 31
5, 6510, Note_on_c, 2, 74, 0
5, 6510, Note_on_c, 2, 77, 31
5, 6540, Note_on_c, 2, 77, 0
5, 6540, Note_on_c, 2, 82, 31
5, 6570, Note_on_c, 2, 82, 0
5, 6570, Note_on_c, 2, 77, 31
5, 6600, Note_on_c, 2, 77, 0
5, 6600, Note_on_c, 2, 74, 31
5, 6630, Note_on_c, 2, 74, 0
5, 6630, Note_on_c, 2, 77, 31
5, 6660, Note_on_c, 2, 77, 0
5, 6660, Note_on_c, 2, 82, 31
5, 6690, Note_on_c, 2, 82, 0
5, 6690, Note_on_c, 2, 77, 31
5, 6720, Note_on_c, 2, 77, 0
5, 6720, Note_on_c, 2, 74, 31
5, 6750, Note_on_c, 2, 74, 0
5, 6750, Note_on_c, 2, 77, 31
5, 6780, Note_on_c, 2, 77, 0
5, 6780, Note_on_c, 2, 82, 31
5, 6810, Note_on_c, 2, 82, 0
5, 6810, Note_on_c, 2, 77, 31
5, 6840, Note_on_c, 2, 77, 0
5, 6840, Note_on_c, 2, 75, 31
5, 6870, Note_on_c, 2, 75, 0
5, 6870, Note_on_c, 2, 79, 31
5, 6900, Note_on_c, 2, 79, 0
5, 6900, Note_on_c, 2, 82, 31
5, 6930, Note_on_c, 2, 82, 0
5, 6930, Note_on_c, 2, 75, 31
5, 6960, Note_on_c, 2, 75, 0
5, 6960, Note_on_c, 2, 74, 31
5, 6990, Note_on_c, 2, 74, 0
5, 6990, Note_on_c, 2, 77, 31
5, 7020, Note_on_c, 2, 77, 0
5, 7020, Note_on_c, 2, 82, 31
5, 7050, Note_on_c, 2, 82, 0
5, 7050, Note_on_c, 2, 77, 31
5, 7080, Note_on_c, 2, 77, 0
5, 7080, Note_on_c, 2, 74, 31
5, 7110, Note_on_c, 2, 74, 0
5, 7110, Note_on_c, 2, 77, 31
5, 7140, Note_on_c, 2, 77, 0
5, 7140, Note_on_c, 2, 82, 31
5, 7170, Note_on_c, 2, 82, 0
5, 7170, Note_on_c, 2, 77, 31
5, 7200, Note_on_c, 2, 77, 0
5, 7200, Note_on_c, 2, 74, 31
5, 7230, Note_on_c, 2, 74, 0
5, 7230, Note_on_c, 2, 77, 31
5, 7260, Note_on_c, 2, 77, 0
5, 7260, Note_on_c, 2, 82, 31
5, 7290, Note_on_c, 2, 82, 0
5, 7290, Note_on_c, 2, 77, 31
5, 7320, Note_on_c, 2, 77, 0
5, 7320, Note_on_c, 2, 75, 31
5, 7350, Note_on_c, 2, 75, 0
5, 7350, Note_on_c, 2, 79, 31
5, 7380, Note_on_c, 2, 79, 0
5, 7380, Note_on_c, 2, 82, 31
5, 7410, Note_on_c, 2, 82, 0
5, 7410, Note_on_c, 2, 75, 31
5, 7440, Note_on_c, 2, 75, 0
5, 7440, Note_on_c, 2, 74, 31
5, 7470, Note_on_c, 2, 74, 0
5, 7470, Note_on_c, 2, 77, 31
5, 7500, Note_on_c, 2, 77, 0
5, 7500, Note_on_c, 2, 82, 31
5, 7530, Note_on_c, 2, 82, 0
5, 7530, Note_on_c, 2, 77, 31
5, 7560, Note_on_c, 2, 77, 0
5, 7560, Note_on_c, 2, 74, 31
5, 7590, Note_on_c, 2, 74, 0
5, 7590, Note_on_c, 2, 77, 31
5, 7620, Note_on_c, 2, 77, 0
5, 7620, Note_on_c, 2, 82, 31
5, 7650, Note_on_c, 2, 82, 0
5, 7650, Note_on_c, 2, 77, 31
5, 7680, Note_on_c, 2, 77, 0
5, 7680, Note_on_c, 2, 75, 31
5, 7710, Note_on_c, 2, 75, 0
5, 7710, Note_on_c, 2, 79, 31
5, 7740, Note_on_c, 2, 79, 0
5, 7740, Note_on_c, 2, 82, 31
5, 7770, Note_on_c, 2, 82, 0
5, 7770, Note_on_c, 2, 75, 31
5, 7800, Note_on_c, 2, 75, 0
5, 7800, Note_on_c, 2, 74, 31
5, 7830, Note_on_c, 2, 74, 0
5, 7830, Note_on_c, 2, 77, 31
5, 7860, Note_on_c, 2, 77, 0
5, 7860, Note_on_c, 2, 82, 31
5, 7890, Note_on_c, 2, 82, 0
5, 7890, Note_on_c, 2, 77, 31
5, 7920, Note_on_c, 2, 77, 0
5, 7920, Note_on_c, 2, 75, 31
5, 7950, Note_on_c, 2, 75, 0
5, 7950, Note_on_c, 2, 79, 31
5, 7980, Note_on_c, 2, 79, 0
5, 7980, Note_on_c, 2, 82, 31
5, 8010, Note_on_c, 2, 82, 0
5, 8010, Note_on_c, 2, 79, 31
5, 8040, Note_on_c, 2, 79, 0
5, 8040, Note_on_c, 2, 75, 31
5, 8070, Note_on_c, 2, 75, 0
5, 8070, Note_on_c, 2, 79, 31
5, 8100, Note_on_c, 2, 79, 0
5, 8100, Note_on_c, 2, 82, 31
5, 8130, Note_on_c, 2, 82, 0
5, 8130, Note_on_c, 2, 79, 31
5, 8160, Note_on_c, 2, 79, 0
5, 8160, Note_on_c, 2, 70, 31
5, 8190, Note_on_c, 2, 70, 0
5, 8190, Note_on_c, 2, 75, 31
5, 8220, Note_on_c, 2, 75, 0
5, 8220, Note_on_c, 2, 79, 31
5, 8250, Note_on_c, 2, 79, 0
5, 8250, Note_on_c, 2, 75, 31
5, 8280, Note_on_c, 2, 75, 0
5, 8280, Note_on_c, 2, 70, 31
5, 8310, Note_on_c, 2, 70, 0
5, 8310, Note_on_c, 2, 75, 31
5, 8340, Note_on_c, 2, 75, 0
5, 8340, Note_on_c, 2, 79, 31
5, 8370, Note_on_c, 2, 79, 0
5, 8370, Note_on_c, 2, 75, 31
5, 8400, Note_on_c, 2, 75, 0
5, 8400, Note_on_c, 2, 67, 31
5, 8430, Note_on_c, 2, 67, 0
5, 8430, Note_on_c, 2, 70, 31
5, 8460, Note_on_c, 2, 70, 0
5, 8460, Note_on_c, 2, 75, 31
5, 8490, Note_on_c, 2, 75, 0
5, 8490, Note_on_c, 2, 70, 31
5, 8520, Note_on_c, 2, 70, 0
5, 8520, Note_on_c, 2, 67, 31
5, 8550, Note_on_c, 2, 67, 0
5, 8550, Note_on_c, 2, 70, 31
5, 8580, Note_on_c, 2, 70, 0
5, 8580, Note_on_c, 2, 75, 31
5, 8610, Note_on_c, 2, 75, 0
5, 8610, Note_on_c, 2, 70, 31
5, 8640, Note_on_c, 2, 70, 0
5, 8640, Program_c, 2, 48
5, 8640, Note_on_c, 2, 67, 31
5, 9120, Note_on_c, 2, 67, 0
5, 9120, Control_c, 2, 6, 64
5, 9120, Control_c, 2, 91, 40
5, 9120, Control_c, 2, 93, 0
5, 9121, Text_t, "Non Registered Parameter Numbers"
5, 9122, Text_t, "For Roland SC-55 Vibrato"
5, 9123, Text_t, "It is always elegant programming"
5, 9124, Text_t, "practice to put system variables back"
5, 9125, Text_t, "to the way you found them."
5, 9126, Text_t, "I.E.  Return all these NRPN numbers"
5, 9127, Text_t, "back to default, so the next piece"
5, 9128, Text_t, "that is played isn't messed up by "
5, 9129, Text_t, "parameters for this piece."
5, 9130, Text_t, "Set up NRPN for Vibrate Rate"
5, 9132, Control_c, 2, 99, 1
5, 9133, Control_c, 2, 98, 8
5, 9134, Text_t, "Data Entry Command"
5, 9135, Control_c, 2, 6, 64
5, 9136, Text_t, "Set up NRPN for Vibrate Delay"
5, 9137, Control_c, 2, 99, 1
5, 9138, Control_c, 2, 98, 10
5, 9139, Text_t, "Data Entry Command"
5, 9140, Control_c, 2, 6, 64
5, 9141, Text_t, "Set up NRPN for Vibrate Depth"
5, 9142, Control_c, 2, 99, 1
5, 9143, Control_c, 2, 98, 9
5, 9144, Text_t, "Data Entry Command"
5, 9145, Control_c, 2, 6, 64
5, 9600, Program_c, 2, 0
5, 9600, Control_c, 2, 93, 0
5, 9600, Control_c, 2, 91, 40
5, 9600, Control_c, 2, 10, 64
5, 9600, Control_c, 2, 7, 100
5, 9600, End_track
6, 0, Start_track
6, 0, MIDI_port, 0
6, 0, Title_t, "Pizzicato Str"
6, 0, Program_c, 3, 45
6, 0, Control_c, 3, 7, 95
6, 0, Control_c, 3, 10, 85
6, 0, Control_c, 3, 93, 0
6, 0, Control_c, 3, 91, 120
6, 480, Note_on_c, 3, 70, 31
6, 510, Note_on_c, 3, 70, 0
6, 510, Note_on_c, 3, 75, 31
6, 540, Note_on_c, 3, 75, 0
6, 540, Note_on_c, 3, 79, 31
6, 570, Note_on_c, 3, 79, 0
6, 570, Note_on_c, 3, 75, 31
6, 600, Note_on_c, 3, 75, 0
6, 600, Note_on_c, 3, 70, 31
6, 630, Note_on_c, 3, 70, 0
6, 630, Note_on_c, 3, 75, 31
6, 660, Note_on_c, 3, 75, 0
6, 660, Note_on_c, 3, 79, 31
6, 690, Note_on_c, 3, 79, 0
6, 690, Note_on_c, 3, 75, 31
6, 720, Note_on_c, 3, 75, 0
6, 720, Note_on_c, 3, 70, 31
6, 750, Note_on_c, 3, 70, 0
6, 750, Note_on_c, 3, 74, 31
6, 780, Note_on_c, 3, 74, 0
6, 780, Note_on_c, 3, 77, 31
6, 810, Note_on_c, 3, 77, 0
6, 810, Note_on_c, 3, 74, 31
6, 840, Note_on_c, 3, 74, 0
6, 840, Note_on_c, 3, 70, 31
6, 870, Note_on_c, 3, 70, 0
6, 870, Note_on_c, 3, 74, 31
6, 900, Note_on_c, 3, 74, 0
6, 900, Note_on_c, 3, 77, 31
6, 930, Note_on_c, 3, 77, 0
6, 930, Note_on_c, 3, 74, 31
6, 960, Note_on_c, 3, 74, 0
6, 960, Note_on_c, 3, 70, 31
6, 990, Note_on_c, 3, 70, 0
6, 990, Note_on_c, 3, 74, 31
6, 1020, Note_on_c, 3, 74, 0
6, 1020, Note_on_c, 3, 77, 31
6, 1050, Note_on_c, 3, 77, 0
6, 1050, Note_on_c, 3, 74, 31
6, 1080, Note_on_c, 3, 74, 0
6, 1080, Note_on_c, 3, 70, 31
6, 1110, Note_on_c, 3, 70, 0
6, 1110, Note_on_c, 3, 74, 31
6, 1140, Note_on_c, 3, 74, 0
6, 1140, Note_on_c, 3, 77, 31
6, 1170, Note_on_c, 3, 77, 0
6, 1170, Note_on_c, 3, 74, 31
6, 1200, Note_on_c, 3, 74, 0
6, 1200, Note_on_c, 3, 70, 31
6, 1230, Note_on_c, 3, 70, 0
6, 1230, Note_on_c, 3, 75, 31
6, 1260, Note_on_c, 3, 75, 0
6, 1260, Note_on_c, 3, 79, 31
6, 1290, Note_on_c, 3, 79, 0
6, 1290, Note_on_c, 3, 75, 31
6, 1320, Note_on_c, 3, 75, 0
6, 1320, Note_on_c, 3, 70, 31
6, 1350, Note_on_c, 3, 70, 0
6, 1350, Note_on_c, 3, 75, 31
6, 1380, Note_on_c, 3, 75, 0
6, 1380, Note_on_c, 3, 79, 31
6, 1410, Note_on_c, 3, 79, 0
6, 1410, Note_on_c, 3, 75, 31
6, 1440, Note_on_c, 3, 75, 0
6, 1440, Note_on_c, 3, 74, 31
6, 1470, Note_on_c, 3, 74, 0
6, 1470, Note_on_c, 3, 80, 31
6, 1500, Note_on_c, 3, 80, 0
6, 1500, Note_on_c, 3, 79, 31
6, 1530, Note_on_c, 3, 79, 0
6, 1530, Note_on_c, 3, 77, 31
6, 1560, Note_on_c, 3, 77, 0
6, 1560, Note_on_c, 3, 82, 31
6, 1590, Note_on_c, 3, 82, 0
6, 1590, Note_on_c, 3, 80, 31
6, 1620, Note_on_c, 3, 80, 0
6, 1620, Note_on_c, 3, 79, 31
6, 1650, Note_on_c, 3, 79, 0
6, 1650, Note_on_c, 3, 77, 31
6, 1680, Note_on_c, 3, 77, 0
6, 1680, Note_on_c, 3, 75, 31
6, 1710, Note_on_c, 3, 75, 0
6, 1710, Note_on_c, 3, 79, 31
6, 1740, Note_on_c, 3, 79, 0
6, 1740, Note_on_c, 3, 77, 31
6, 1770, Note_on_c, 3, 77, 0
6, 1770, Note_on_c, 3, 75, 31
6, 1800, Note_on_c, 3, 75, 0
6, 1800, Note_on_c, 3, 80, 31
6, 1830, Note_on_c, 3, 80, 0
6, 1830, Note_on_c, 3, 79, 31
6, 1860, Note_on_c, 3, 79, 0
6, 1860, Note_on_c, 3, 77, 31
6, 1890, Note_on_c, 3, 77, 0
6, 1890, Note_on_c, 3, 75, 31
6, 1920, Note_on_c, 3, 75, 0
6, 1920, Note_on_c, 3, 74, 31
6, 1950, Note_on_c, 3, 74, 0
6, 1950, Note_on_c, 3, 77, 31
6, 1980, Note_on_c, 3, 77, 0
6, 1980, Note_on_c, 3, 75, 31
6, 2010, Note_on_c, 3, 75, 0
6, 2010, Note_on_c, 3, 74, 31
6, 2040, Note_on_c, 3, 74, 0
6, 2040, Note_on_c, 3, 79, 31
6, 2070, Note_on_c, 3, 79, 0
6, 2070, Note_on_c, 3, 77, 31
6, 2100, Note_on_c, 3, 77, 0
6, 2100, Note_on_c, 3, 75, 31
6, 2130, Note_on_c, 3, 75, 0
6, 2130, Note_on_c, 3, 74, 31
6, 2160, Note_on_c, 3, 74, 0
6, 2160, Note_on_c, 3, 72, 31
6, 2190, Note_on_c, 3, 72, 0
6, 2190, Note_on_c, 3, 75, 31
6, 2220, Note_on_c, 3, 75, 0
6, 2220, Note_on_c, 3, 74, 31
6, 2250, Note_on_c, 3, 74, 0
6, 2250, Note_on_c, 3, 72, 31
6, 2280, Note_on_c, 3, 72, 0
6, 2280, Note_on_c, 3, 77, 31
6, 2310, Note_on_c, 3, 77, 0
6, 2310, Note_on_c, 3, 75, 31
6, 2340, Note_on_c, 3, 75, 0
6, 2340, Note_on_c, 3, 74, 31
6, 2370, Note_on_c, 3, 74, 0
6, 2370, Note_on_c, 3, 72, 31
6, 2400, Note_on_c, 3, 72, 0
6, 2400, Note_on_c, 3, 70, 31
6, 2430, Note_on_c, 3, 70, 0
6, 2430, Note_on_c, 3, 74, 31
6, 2460, Note_on_c, 3, 74, 0
6, 2460, Note_on_c, 3, 77, 31
6, 2490, Note_on_c, 3, 77, 0
6, 2490, Note_on_c, 3, 74, 31
6, 2520, Note_on_c, 3, 74, 0
6, 2520, Note_on_c, 3, 70, 31
6, 2550, Note_on_c, 3, 70, 0
6, 2550, Note_on_c, 3, 74, 31
6, 2580, Note_on_c, 3, 74, 0
6, 2580, Note_on_c, 3, 77, 31
6, 2610, Note_on_c, 3, 77, 0
6, 2610, Note_on_c, 3, 74, 31
6, 2640, Note_on_c, 3, 74, 0
6, 2640, Note_on_c, 3, 70, 31
6, 2670, Note_on_c, 3, 70, 0
6, 2670, Note_on_c, 3, 74, 31
6, 2700, Note_on_c, 3, 74, 0
6, 2700, Note_on_c, 3, 77, 31
6, 2730, Note_on_c, 3, 77, 0
6, 2730, Note_on_c, 3, 74, 31
6, 2760, Note_on_c, 3, 74, 0
6, 2760, Note_on_c, 3, 70, 31
6, 2790, Note_on_c, 3, 70, 0
6, 2790, Note_on_c, 3, 74, 31
6, 2820, Note_on_c, 3, 74, 0
6, 2820, Note_on_c, 3, 77, 31
6, 2850, Note_on_c, 3, 77, 0
6, 2850, Note_on_c, 3, 74, 31
6, 2880, Note_on_c, 3, 74, 0
6, 2880, Note_on_c, 3, 70, 31
6, 2910, Note_on_c, 3, 70, 0
6, 2910, Note_on_c, 3, 75, 31
6, 2940, Note_on_c, 3, 75, 0
6, 2940, Note_on_c, 3, 79, 31
6, 2970, Note_on_c, 3, 79, 0
6, 2970, Note_on_c, 3, 75, 31
6, 3000, Note_on_c, 3, 75, 0
6, 3000, Note_on_c, 3, 70, 31
6, 3030, Note_on_c, 3, 70, 0
6, 3030, Note_on_c, 3, 75, 31
6, 3060, Note_on_c, 3, 75, 0
6, 3060, Note_on_c, 3, 79, 31
6, 3090, Note_on_c, 3, 79, 0
6, 3090, Note_on_c, 3, 75, 31
6, 3120, Note_on_c, 3, 75, 0
6, 3120, Note_on_c, 3, 72, 31
6, 3150, Note_on_c, 3, 72, 0
6, 3150, Note_on_c, 3, 77, 31
6, 3180, Note_on_c, 3, 77, 0
6, 3180, Note_on_c, 3, 81, 31
6, 3210, Note_on_c, 3, 81, 0
6, 3210, Note_on_c, 3, 77, 31
6, 3240, Note_on_c, 3, 77, 0
6, 3240, Note_on_c, 3, 72, 31
6, 3270, Note_on_c, 3, 72, 0
6, 3270, Note_on_c, 3, 77, 31
6, 3300, Note_on_c, 3, 77, 0
6, 3300, Note_on_c, 3, 81, 31
6, 3330, Note_on_c, 3, 81, 0
6, 3330, Note_on_c, 3, 77, 31
6, 3360, Note_on_c, 3, 77, 0
6, 3360, Note_on_c, 3, 70, 31
6, 3390, Note_on_c, 3, 70, 0
6, 3390, Note_on_c, 3, 74, 31
6, 3420, Note_on_c, 3, 74, 0
6, 3420, Note_on_c, 3, 77, 31
6, 3450, Note_on_c, 3, 77, 0
6, 3450, Note_on_c, 3, 74, 31
6, 3480, Note_on_c, 3, 74, 0
6, 3480, Note_on_c, 3, 70, 31
6, 3510, Note_on_c, 3, 70, 0
6, 3510, Note_on_c, 3, 74, 31
6, 3540, Note_on_c, 3, 74, 0
6, 3540, Note_on_c, 3, 77, 31
6, 3570, Note_on_c, 3, 77, 0
6, 3570, Note_on_c, 3, 70, 31
6, 3600, Note_on_c, 3, 70, 0
6, 3600, Note_on_c, 3, 70, 31
6, 3630, Note_on_c, 3, 70, 0
6, 3630, Note_on_c, 3, 72, 31
6, 3660, Note_on_c, 3, 72, 0
6, 3660, Note_on_c, 3, 77, 31
6, 3690, Note_on_c, 3, 77, 0
6, 3690, Note_on_c, 3, 72, 31
6, 3720, Note_on_c, 3, 72, 0
6, 3720, Note_on_c, 3, 68, 31
6, 3750, Note_on_c, 3, 68, 0
6, 3750, Note_on_c, 3, 72, 31
6, 3780, Note_on_c, 3, 72, 0
6, 3780, Note_on_c, 3, 77, 31
6, 3810, Note_on_c, 3, 77, 0
6, 3810, Note_on_c, 3, 72, 31
6, 3840, Note_on_c, 3, 72, 0
6, 3840, Note_on_c, 3, 69, 31
6, 3870, Note_on_c, 3, 69, 0
6, 3870, Note_on_c, 3, 72, 31
6, 3900, Note_on_c, 3, 72, 0
6, 3900, Note_on_c, 3, 77, 31
6, 3930, Note_on_c, 3, 77, 0
6, 3930, Note_on_c, 3, 72, 31
6, 3960, Note_on_c, 3, 72, 0
6, 3960, Note_on_c, 3, 69, 31
6, 3990, Note_on_c, 3, 69, 0
6, 3990, Note_on_c, 3, 72, 31
6, 4020, Note_on_c, 3, 72, 0
6, 4020, Note_on_c, 3, 77, 31
6, 4050, Note_on_c, 3, 77, 0
6, 4050, Note_on_c, 3, 72, 31
6, 4080, Note_on_c, 3, 72, 0
6, 4080, Note_on_c, 3, 65, 31
6, 4110, Note_on_c, 3, 65, 0
6, 4110, Note_on_c, 3, 70, 31
6, 4140, Note_on_c, 3, 70, 0
6, 4140, Note_on_c, 3, 74, 31
6, 4170, Note_on_c, 3, 74, 0
6, 4170, Note_on_c, 3, 70, 31
6, 4200, Note_on_c, 3, 70, 0
6, 4200, Note_on_c, 3, 65, 31
6, 4230, Note_on_c, 3, 65, 0
6, 4230, Note_on_c, 3, 70, 31
6, 4260, Note_on_c, 3, 70, 0
6, 4260, Note_on_c, 3, 74, 31
6, 4290, Note_on_c, 3, 74, 0
6, 4290, Note_on_c, 3, 70, 31
6, 4320, Note_on_c, 3, 70, 0
6, 4320, Note_on_c, 3, 65, 31
6, 4350, Note_on_c, 3, 65, 0
6, 4350, Note_on_c, 3, 70, 31
6, 4380, Note_on_c, 3, 70, 0
6, 4380, Note_on_c, 3, 74, 31
6, 4410, Note_on_c, 3, 74, 0
6, 4410, Note_on_c, 3, 70, 31
6, 4440, Note_on_c, 3, 70, 0
6, 4440, Note_on_c, 3, 65, 31
6, 4470, Note_on_c, 3, 65, 0
6, 4470, Note_on_c, 3, 70, 31
6, 4500, Note_on_c, 3, 70, 0
6, 4500, Note_on_c, 3, 74, 31
6, 4530, Note_on_c, 3, 74, 0
6, 4530, Note_on_c, 3, 70, 31
6, 4560, Note_on_c, 3, 70, 0
6, 4560, Note_on_c, 3, 65, 31
6, 4590, Note_on_c, 3, 65, 0
6, 4590, Note_on_c, 3, 69, 31
6, 4620, Note_on_c, 3, 69, 0
6, 4620, Note_on_c, 3, 72, 31
6, 4650, Note_on_c, 3, 72, 0
6, 4650, Note_on_c, 3, 69, 31
6, 4680, Note_on_c, 3, 69, 0
6, 4680, Note_on_c, 3, 65, 31
6, 4710, Note_on_c, 3, 65, 0
6, 4710, Note_on_c, 3, 69, 31
6, 4740, Note_on_c, 3, 69, 0
6, 4740, Note_on_c, 3, 72, 31
6, 4770, Note_on_c, 3, 72, 0
6, 4770, Note_on_c, 3, 69, 31
6, 4800, Note_on_c, 3, 69, 0
6, 4800, Note_on_c, 3, 65, 31
6, 4830, Note_on_c, 3, 65, 0
6, 4830, Note_on_c, 3, 69, 31
6, 4860, Note_on_c, 3, 69, 0
6, 4860, Note_on_c, 3, 72, 31
6, 4890, Note_on_c, 3, 72, 0
6, 4890, Note_on_c, 3, 69, 31
6, 4920, Note_on_c, 3, 69, 0
6, 4920, Note_on_c, 3, 65, 31
6, 4950, Note_on_c, 3, 65, 0
6, 4950, Note_on_c, 3, 69, 31
6, 4980, Note_on_c, 3, 69, 0
6, 4980, Note_on_c, 3, 72, 31
6, 5010, Note_on_c, 3, 72, 0
6, 5010, Note_on_c, 3, 69, 31
6, 5040, Note_on_c, 3, 69, 0
6, 5040, Note_on_c, 3, 70, 31
6, 5070, Note_on_c, 3, 70, 0
6, 5070, Note_on_c, 3, 74, 31
6, 5100, Note_on_c, 3, 74, 0
6, 5100, Note_on_c, 3, 77, 31
6, 5130, Note_on_c, 3, 77, 0
6, 5130, Note_on_c, 3, 74, 31
6, 5160, Note_on_c, 3, 74, 0
6, 5160, Note_on_c, 3, 70, 31
6, 5190, Note_on_c, 3, 70, 0
6, 5190, Note_on_c, 3, 74, 31
6, 5220, Note_on_c, 3, 74, 0
6, 5220, Note_on_c, 3, 77, 31
6, 5250, Note_on_c, 3, 77, 0
6, 5250, Note_on_c, 3, 74, 31
6, 5280, Note_on_c, 3, 74, 0
6, 5280, Note_on_c, 3, 70, 31
6, 5310, Note_on_c, 3, 70, 0
6, 5310, Note_on_c, 3, 74, 31
6, 5340, Note_on_c, 3, 74, 0
6, 5340, Note_on_c, 3, 77, 31
6, 5370, Note_on_c, 3, 77, 0
6, 5370, Note_on_c, 3, 74, 31
6, 5400, Note_on_c, 3, 74, 0
6, 5400, Note_on_c, 3, 70, 31
6, 5430, Note_on_c, 3, 70, 0
6, 5430, Note_on_c, 3, 74, 31
6, 5460, Note_on_c, 3, 74, 0
6, 5460, Note_on_c, 3, 77, 31
6, 5490, Note_on_c, 3, 77, 0
6, 5490, Note_on_c, 3, 74, 31
6, 5520, Note_on_c, 3, 74, 0
6, 5520, Note_on_c, 3, 70, 31
6, 5550, Note_on_c, 3, 70, 0
6, 5550, Note_on_c, 3, 75, 31
6, 5580, Note_on_c, 3, 75, 0
6, 5580, Note_on_c, 3, 79, 31
6, 5610, Note_on_c, 3, 79, 0
6, 5610, Note_on_c, 3, 75, 31
6, 5640, Note_on_c, 3, 75, 0
6, 5640, Note_on_c, 3, 70, 31
6, 5670, Note_on_c, 3, 70, 0
6, 5670, Note_on_c, 3, 75, 31
6, 5700, Note_on_c, 3, 75, 0
6, 5700, Note_on_c, 3, 79, 31
6, 5730, Note_on_c, 3, 79, 0
6, 5730, Note_on_c, 3, 75, 31
6, 5760, Note_on_c, 3, 75, 0
6, 5760, Note_on_c, 3, 72, 31
6, 5790, Note_on_c, 3, 72, 0
6, 5790, Note_on_c, 3, 75, 31
6, 5820, Note_on_c, 3, 75, 0
6, 5820, Note_on_c, 3, 72, 31
6, 5850, Note_on_c, 3, 72, 0
6, 5850, Note_on_c, 3, 75, 31
6, 5880, Note_on_c, 3, 75, 0
6, 5880, Note_on_c, 3, 72, 31
6, 5910, Note_on_c, 3, 72, 0
6, 5910, Note_on_c, 3, 77, 31
6, 5940, Note_on_c, 3, 77, 0
6, 5940, Note_on_c, 3, 72, 31
6, 5970, Note_on_c, 3, 72, 0
6, 5970, Note_on_c, 3, 77, 31
6, 6000, Note_on_c, 3, 77, 0
6, 6000, Note_on_c, 3, 74, 31
6, 6030, Note_on_c, 3, 74, 0
6, 6030, Note_on_c, 3, 77, 31
6, 6060, Note_on_c, 3, 77, 0
6, 6060, Note_on_c, 3, 74, 31
6, 6090, Note_on_c, 3, 74, 0
6, 6090, Note_on_c, 3, 77, 31
6, 6120, Note_on_c, 3, 77, 0
6, 6120, Note_on_c, 3, 74, 31
6, 6150, Note_on_c, 3, 74, 0
6, 6150, Note_on_c, 3, 77, 31
6, 6180, Note_on_c, 3, 77, 0
6, 6180, Note_on_c, 3, 74, 31
6, 6210, Note_on_c, 3, 74, 0
6, 6210, Note_on_c, 3, 77, 31
6, 6240, Note_on_c, 3, 77, 0
6, 6240, Note_on_c, 3, 75, 31
6, 6270, Note_on_c, 3, 75, 0
6, 6270, Note_on_c, 3, 79, 31
6, 6300, Note_on_c, 3, 79, 0
6, 6300, Note_on_c, 3, 75, 31
6, 6330, Note_on_c, 3, 75, 0
6, 6330, Note_on_c, 3, 79, 31
6, 6360, Note_on_c, 3, 79, 0
6, 6360, Note_on_c, 3, 75, 31
6, 6390, Note_on_c, 3, 75, 0
6, 6390, Note_on_c, 3, 80, 31
6, 6420, Note_on_c, 3, 80, 0
6, 6420, Note_on_c, 3, 75, 31
6, 6450, Note_on_c, 3, 75, 0
6, 6450, Note_on_c, 3, 80, 31
6, 6480, Note_on_c, 3, 80, 0
6, 6480, Note_on_c, 3, 70, 31
6, 6510, Note_on_c, 3, 70, 0
6, 6510, Note_on_c, 3, 74, 31
6, 6540, Note_on_c, 3, 74, 0
6, 6540, Note_on_c, 3, 77, 31
6, 6570, Note_on_c, 3, 77, 0
6, 6570, Note_on_c, 3, 74, 31
6, 6600, Note_on_c, 3, 74, 0
6, 6600, Note_on_c, 3, 70, 31
6, 6630, Note_on_c, 3, 70, 0
6, 6630, Note_on_c, 3, 74, 31
6, 6660, Note_on_c, 3, 74, 0
6, 6660, Note_on_c, 3, 77, 31
6, 6690, Note_on_c, 3, 77, 0
6, 6690, Note_on_c, 3, 74, 31
6, 6720, Note_on_c, 3, 74, 0
6, 6720, Note_on_c, 3, 70, 31
6, 6750, Note_on_c, 3, 70, 0
6, 6750, Note_on_c, 3, 74, 31
6, 6780, Note_on_c, 3, 74, 0
6, 6780, Note_on_c, 3, 77, 31
6, 6810, Note_on_c, 3, 77, 0
6, 6810, Note_on_c, 3, 74, 31
6, 6840, Note_on_c, 3, 74, 0
6, 6840, Note_on_c, 3, 70, 31
6, 6870, Note_on_c, 3, 70, 0
6, 6870, Note_on_c, 3, 75, 31
6, 6900, Note_on_c, 3, 75, 0
6, 6900, Note_on_c, 3, 79, 31
6, 6930, Note_on_c, 3, 79, 0
6, 6930, Note_on_c, 3, 70, 31
6, 6960, Note_on_c, 3, 70, 0
6, 6960, Note_on_c, 3, 70, 31
6, 6990, Note_on_c, 3, 70, 0
6, 6990, Note_on_c, 3, 74, 31
6, 7020, Note_on_c, 3, 74, 0
6, 7020, Note_on_c, 3, 77, 31
6, 7050, Note_on_c, 3, 77, 0
6, 7050, Note_on_c, 3, 74, 31
6, 7080, Note_on_c, 3, 74, 0
6, 7080, Note_on_c, 3, 70, 31
6, 7110, Note_on_c, 3, 70, 0
6, 7110, Note_on_c, 3, 74, 31
6, 7140, Note_on_c, 3, 74, 0
6, 7140, Note_on_c, 3, 77, 31
6, 7170, Note_on_c, 3, 77, 0
6, 7170, Note_on_c, 3, 74, 31
6, 7200, Note_on_c, 3, 74, 0
6, 7200, Note_on_c, 3, 70, 31
6, 7230, Note_on_c, 3, 70, 0
6, 7230, Note_on_c, 3, 74, 31
6, 7260, Note_on_c, 3, 74, 0
6, 7260, Note_on_c, 3, 77, 31
6, 7290, Note_on_c, 3, 77, 0
6, 7290, Note_on_c, 3, 74, 31
6, 7320, Note_on_c, 3, 74, 0
6, 7320, Note_on_c, 3, 70, 31
6, 7350, Note_on_c, 3, 70, 0
6, 7350, Note_on_c, 3, 75, 31
6, 7380, Note_on_c, 3, 75, 0
6, 7380, Note_on_c, 3, 77, 31
6, 7410, Note_on_c, 3, 77, 0
6, 7410, Note_on_c, 3, 70, 31
6, 7440, Note_on_c, 3, 70, 0
6, 7440, Note_on_c, 3, 70, 31
6, 7470, Note_on_c, 3, 70, 0
6, 7470, Note_on_c, 3, 74, 31
6, 7500, Note_on_c, 3, 74, 0
6, 7500, Note_on_c, 3, 77, 31
6, 7530, Note_on_c, 3, 77, 0
6, 7530, Note_on_c, 3, 74, 31
6, 7560, Note_on_c, 3, 74, 0
6, 7560, Note_on_c, 3, 70, 31
6, 7590, Note_on_c, 3, 70, 0
6, 7590, Note_on_c, 3, 74, 31
6, 7620, Note_on_c, 3, 74, 0
6, 7620, Note_on_c, 3, 77, 31
6, 7650, Note_on_c, 3, 77, 0
6, 7650, Note_on_c, 3, 74, 31
6, 7680, Note_on_c, 3, 74, 0
6, 7680, Note_on_c, 3, 70, 31
6, 7710, Note_on_c, 3, 70, 0
6, 7710, Note_on_c, 3, 75, 31
6, 7740, Note_on_c, 3, 75, 0
6, 7740, Note_on_c, 3, 79, 31
6, 7770, Note_on_c, 3, 79, 0
6, 7770, Note_on_c, 3, 70, 31
6, 7800, Note_on_c, 3, 70, 0
6, 7800, Note_on_c, 3, 70, 31
6, 7830, Note_on_c, 3, 70, 0
6, 7830, Note_on_c, 3, 74, 31
6, 7860, Note_on_c, 3, 74, 0
6, 7860, Note_on_c, 3, 77, 31
6, 7890, Note_on_c, 3, 77, 0
6, 7890, Note_on_c, 3, 74, 31
6, 7920, Note_on_c, 3, 74, 0
6, 7920, Note_on_c, 3, 70, 31
6, 7950, Note_on_c, 3, 70, 0
6, 7950, Note_on_c, 3, 75, 31
6, 7980, Note_on_c, 3, 75, 0
6, 7980, Note_on_c, 3, 79, 31
6, 8010, Note_on_c, 3, 79, 0
6, 8010, Note_on_c, 3, 75, 31
6, 8040, Note_on_c, 3, 75, 0
6, 8040, Note_on_c, 3, 70, 31
6, 8070, Note_on_c, 3, 70, 0
6, 8070, Note_on_c, 3, 75, 31
6, 8100, Note_on_c, 3, 75, 0
6, 8100, Note_on_c, 3, 79, 31
6, 8130, Note_on_c, 3, 79, 0
6, 8130, Note_on_c, 3, 70, 31
6, 8160, Note_on_c, 3, 70, 0
6, 8160, Note_on_c, 3, 67, 31
6, 8190, Note_on_c, 3, 67, 0
6, 8190, Note_on_c, 3, 70, 31
6, 8220, Note_on_c, 3, 70, 0
6, 8220, Note_on_c, 3, 75, 31
6, 8250, Note_on_c, 3, 75, 0
6, 8250, Note_on_c, 3, 70, 31
6, 8280, Note_on_c, 3, 70, 0
6, 8280, Note_on_c, 3, 67, 31
6, 8310, Note_on_c, 3, 67, 0
6, 8310, Note_on_c, 3, 70, 31
6, 8340, Note_on_c, 3, 70, 0
6, 8340, Note_on_c, 3, 75, 31
6, 8370, Note_on_c, 3, 75, 0
6, 8370, Note_on_c, 3, 70, 31
6, 8400, Note_on_c, 3, 70, 0
6, 8400, Note_on_c, 3, 63, 31
6, 8430, Note_on_c, 3, 63, 0
6, 8430, Note_on_c, 3, 67, 31
6, 8460, Note_on_c, 3, 67, 0
6, 8460, Note_on_c, 3, 70, 31
6, 8490, Note_on_c, 3, 70, 0
6, 8490, Note_on_c, 3, 67, 31
6, 8520, Note_on_c, 3, 67, 0
6, 8520, Note_on_c, 3, 63, 31
6, 8550, Note_on_c, 3, 63, 0
6, 8550, Note_on_c, 3, 67, 31
6, 8580, Note_on_c, 3, 67, 0
6, 8580, Note_on_c, 3, 70, 31
6, 8610, Note_on_c, 3, 70, 0
6, 8610, Note_on_c, 3, 67, 31
6, 8640, Note_on_c, 3, 67, 0
6, 8640, Program_c, 3, 48
6, 8640, Note_on_c, 3, 63, 31
6, 9120, Note_on_c, 3, 63, 0
6, 9120, Control_c, 3, 6, 64
6, 9120, Control_c, 3, 91, 40
6, 9120, Control_c, 3, 93, 0
6, 9121, Text_t, "Non Registered Parameter Numbers"
6, 9122, Text_t, "For Roland SC-55 Vibrato"
6, 9123, Text_t, "It is always elegant programming"
6, 9124, Text_t, "practice to put system variables back"
6, 9125, Text_t, "to the way you found them."
6, 9126, Text_t, "I.E.  Return all these NRPN numbers"
6, 9127, Text_t, "back to default, so the next piece"
6, 9128, Text_t, "that is played isn't messed up by "
6, 9129, Text_t, "parameters for this piece."
6, 9130, Text_t, "Set up NRPN for Vibrate Rate"
6, 9132, Control_c, 3, 99, 1
6, 9133, Control_c, 3, 98, 8
6, 9134, Text_t, "Data Entry Command"
6, 9135, Control_c, 3, 6, 64
6, 9136, Text_t, "Set up NRPN for Vibrate Delay"
6, 9137, Control_c, 3, 99, 1
6, 9138, Control_c, 3, 98, 10
6, 9139, Text_t, "Data Entry Command"
6, 9140, Control_c, 3, 6, 64
6, 9141, Text_t, "Set up NRPN for Vibrate Depth"
6, 9142, Control_c, 3, 99, 1
6, 9143, Control_c, 3, 98, 9
6, 9144, Text_t, "Data Entry Command"
6, 9145, Control_c, 3, 6, 64
6, 9600, Program_c, 3, 0
6, 9600, Control_c, 3, 93, 0
6, 9600, Control_c, 3, 91, 40
6, 9600, Control_c, 3, 10, 64
6, 9600, Control_c, 3, 7, 100
6, 9600, End_track
7, 0, Start_track
7, 0, MIDI_port, 0
7, 0, Title_t, "     Harp"
7, 0, Program_c, 4, 46
7, 0, Control_c, 4, 7, 90
7, 0, Control_c, 4, 10, 42
7, 0, Control_c, 4, 93, 0
7, 0, Control_c, 4, 91, 120
7, 480, Note_on_c, 4, 70, 31
7, 510, Note_on_c, 4, 70, 0
7, 510, Note_on_c, 4, 75, 31
7, 540, Note_on_c, 4, 75, 0
7, 540, Note_on_c, 4, 79, 31
7, 570, Note_on_c, 4, 79, 0
7, 570, Note_on_c, 4, 75, 31
7, 600, Note_on_c, 4, 75, 0
7, 600, Note_on_c, 4, 70, 31
7, 630, Note_on_c, 4, 70, 0
7, 630, Note_on_c, 4, 75, 31
7, 660, Note_on_c, 4, 75, 0
7, 660, Note_on_c, 4, 79, 31
7, 690, Note_on_c, 4, 79, 0
7, 690, Note_on_c, 4, 75, 31
7, 720, Note_on_c, 4, 75, 0
7, 720, Note_on_c, 4, 70, 31
7, 750, Note_on_c, 4, 70, 0
7, 750, Note_on_c, 4, 74, 31
7, 780, Note_on_c, 4, 74, 0
7, 780, Note_on_c, 4, 77, 31
7, 810, Note_on_c, 4, 77, 0
7, 810, Note_on_c, 4, 74, 31
7, 840, Note_on_c, 4, 74, 0
7, 840, Note_on_c, 4, 70, 31
7, 870, Note_on_c, 4, 70, 0
7, 870, Note_on_c, 4, 74, 31
7, 900, Note_on_c, 4, 74, 0
7, 900, Note_on_c, 4, 77, 31
7, 930, Note_on_c, 4, 77, 0
7, 930, Note_on_c, 4, 74, 31
7, 960, Note_on_c, 4, 74, 0
7, 960, Note_on_c, 4, 70, 31
7, 990, Note_on_c, 4, 70, 0
7, 990, Note_on_c, 4, 74, 31
7, 1020, Note_on_c, 4, 74, 0
7, 1020, Note_on_c, 4, 77, 31
7, 1050, Note_on_c, 4, 77, 0
7, 1050, Note_on_c, 4, 74, 31
7, 1080, Note_on_c, 4, 74, 0
7, 1080, Note_on_c, 4, 70, 31
7, 1110, Note_on_c, 4, 70, 0
7, 1110, Note_on_c, 4, 74, 31
7, 1140, Note_on_c, 4, 74, 0
7, 1140, Note_on_c, 4, 77, 31
7, 1170, Note_on_c, 4, 77, 0
7, 1170, Note_on_c, 4, 74, 31
7, 1200, Note_on_c, 4, 74, 0
7, 1200, Note_on_c, 4, 70, 31
7, 1230, Note_on_c, 4, 70, 0
7, 1230, Note_on_c, 4, 75, 31
7, 1260, Note_on_c, 4, 75, 0
7, 1260, Note_on_c, 4, 79, 31
7, 1290, Note_on_c, 4, 79, 0
7, 1290, Note_on_c, 4, 75, 31
7, 1320, Note_on_c, 4, 75, 0
7, 1320, Note_on_c, 4, 70, 31
7, 1350, Note_on_c, 4, 70, 0
7, 1350, Note_on_c, 4, 75, 31
7, 1380, Note_on_c, 4, 75, 0
7, 1380, Note_on_c, 4, 79, 31
7, 1410, Note_on_c, 4, 79, 0
7, 1410, Note_on_c, 4, 75, 31
7, 1440, Note_on_c, 4, 75, 0
7, 1440, Note_on_c, 4, 74, 31
7, 1470, Note_on_c, 4, 74, 0
7, 1470, Note_on_c, 4, 80, 31
7, 1500, Note_on_c, 4, 80, 0
7, 1500, Note_on_c, 4, 79, 31
7, 1530, Note_on_c, 4, 79, 0
7, 1530, Note_on_c, 4, 77, 31
7, 1560, Note_on_c, 4, 77, 0
7, 1560, Note_on_c, 4, 82, 31
7, 1590, Note_on_c, 4, 82, 0
7, 1590, Note_on_c, 4, 80, 31
7, 1620, Note_on_c, 4, 80, 0
7, 1620, Note_on_c, 4, 79, 31
7, 1650, Note_on_c, 4, 79, 0
7, 1650, Note_on_c, 4, 77, 31
7, 1680, Note_on_c, 4, 77, 0
7, 1680, Note_on_c, 4, 75, 31
7, 1710, Note_on_c, 4, 75, 0
7, 1710, Note_on_c, 4, 79, 31
7, 1740, Note_on_c, 4, 79, 0
7, 1740, Note_on_c, 4, 77, 31
7, 1770, Note_on_c, 4, 77, 0
7, 1770, Note_on_c, 4, 75, 31
7, 1800, Note_on_c, 4, 75, 0
7, 1800, Note_on_c, 4, 80, 31
7, 1830, Note_on_c, 4, 80, 0
7, 1830, Note_on_c, 4, 79, 31
7, 1860, Note_on_c, 4, 79, 0
7, 1860, Note_on_c, 4, 77, 31
7, 1890, Note_on_c, 4, 77, 0
7, 1890, Note_on_c, 4, 75, 31
7, 1920, Note_on_c, 4, 75, 0
7, 1920, Note_on_c, 4, 74, 31
7, 1950, Note_on_c, 4, 74, 0
7, 1950, Note_on_c, 4, 77, 31
7, 1980, Note_on_c, 4, 77, 0
7, 1980, Note_on_c, 4, 75, 31
7, 2010, Note_on_c, 4, 75, 0
7, 2010, Note_on_c, 4, 74, 31
7, 2040, Note_on_c, 4, 74, 0
7, 2040, Note_on_c, 4, 79, 31
7, 2070, Note_on_c, 4, 79, 0
7, 2070, Note_on_c, 4, 77, 31
7, 2100, Note_on_c, 4, 77, 0
7, 2100, Note_on_c, 4, 75, 31
7, 2130, Note_on_c, 4, 75, 0
7, 2130, Note_on_c, 4, 74, 31
7, 2160, Note_on_c, 4, 74, 0
7, 2160, Note_on_c, 4, 72, 31
7, 2190, Note_on_c, 4, 72, 0
7, 2190, Note_on_c, 4, 75, 31
7, 2220, Note_on_c, 4, 75, 0
7, 2220, Note_on_c, 4, 74, 31
7, 2250, Note_on_c, 4, 74, 0
7, 2250, Note_on_c, 4, 72, 31
7, 2280, Note_on_c, 4, 72, 0
7, 2280, Note_on_c, 4, 77, 31
7, 2310, Note_on_c, 4, 77, 0
7, 2310, Note_on_c, 4, 75, 31
7, 2340, Note_on_c, 4, 75, 0
7, 2340, Note_on_c, 4, 74, 31
7, 2370, Note_on_c, 4, 74, 0
7, 2370, Note_on_c, 4, 72, 31
7, 2400, Note_on_c, 4, 72, 0
7, 2400, Note_on_c, 4, 70, 31
7, 2430, Note_on_c, 4, 70, 0
7, 2430, Note_on_c, 4, 74, 31
7, 2460, Note_on_c, 4, 74, 0
7, 2460, Note_on_c, 4, 77, 31
7, 2490, Note_on_c, 4, 77, 0
7, 2490, Note_on_c, 4, 74, 31
7, 2520, Note_on_c, 4, 74, 0
7, 2520, Note_on_c, 4, 70, 31
7, 2550, Note_on_c, 4, 70, 0
7, 2550, Note_on_c, 4, 74, 31
7, 2580, Note_on_c, 4, 74, 0
7, 2580, Note_on_c, 4, 77, 31
7, 2610, Note_on_c, 4, 77, 0
7, 2610, Note_on_c, 4, 74, 31
7, 2640, Note_on_c, 4, 74, 0
7, 2640, Note_on_c, 4, 70, 31
7, 2670, Note_on_c, 4, 70, 0
7, 2670, Note_on_c, 4, 74, 31
7, 2700, Note_on_c, 4, 74, 0
7, 2700, Note_on_c, 4, 77, 31
7, 2730, Note_on_c, 4, 77, 0
7, 2730, Note_on_c, 4, 74, 31
7, 2760, Note_on_c, 4, 74, 0
7, 2760, Note_on_c, 4, 70, 31
7, 2790, Note_on_c, 4, 70, 0
7, 2790, Note_on_c, 4, 74, 31
7, 2820, Note_on_c, 4, 74, 0
7, 2820, Note_on_c, 4, 77, 31
7, 2850, Note_on_c, 4, 77, 0
7, 2850, Note_on_c, 4, 74, 31
7, 2880, Note_on_c, 4, 74, 0
7, 2880, Note_on_c, 4, 70, 31
7, 2910, Note_on_c, 4, 70, 0
7, 2910, Note_on_c, 4, 75, 31
7, 2940, Note_on_c, 4, 75, 0
7, 2940, Note_on_c, 4, 79, 31
7, 2970, Note_on_c, 4, 79, 0
7, 2970, Note_on_c, 4, 75, 31
7, 3000, Note_on_c, 4, 75, 0
7, 3000, Note_on_c, 4, 70, 31
7, 3030, Note_on_c, 4, 70, 0
7, 3030, Note_on_c, 4, 75, 31
7, 3060, Note_on_c, 4, 75, 0
7, 3060, Note_on_c, 4, 79, 31
7, 3090, Note_on_c, 4, 79, 0
7, 3090, Note_on_c, 4, 75, 31
7, 3120, Note_on_c, 4, 75, 0
7, 3120, Note_on_c, 4, 72, 31
7, 3150, Note_on_c, 4, 72, 0
7, 3150, Note_on_c, 4, 77, 31
7, 3180, Note_on_c, 4, 77, 0
7, 3180, Note_on_c, 4, 81, 31
7, 3210, Note_on_c, 4, 81, 0
7, 3210, Note_on_c, 4, 77, 31
7, 3240, Note_on_c, 4, 77, 0
7, 3240, Note_on_c, 4, 72, 31
7, 3270, Note_on_c, 4, 72, 0
7, 3270, Note_on_c, 4, 77, 31
7, 3300, Note_on_c, 4, 77, 0
7, 3300, Note_on_c, 4, 81, 31
7, 3330, Note_on_c, 4, 81, 0
7, 3330, Note_on_c, 4, 77, 31
7, 3360, Note_on_c, 4, 77, 0
7, 3360, Note_on_c, 4, 70, 31
7, 3390, Note_on_c, 4, 70, 0
7, 3390, Note_on_c, 4, 74, 31
7, 3420, Note_on_c, 4, 74, 0
7, 3420, Note_on_c, 4, 77, 31
7, 3450, Note_on_c, 4, 77, 0
7, 3450, Note_on_c, 4, 74, 31
7, 3480, Note_on_c, 4, 74, 0
7, 3480, Note_on_c, 4, 70, 31
7, 3510, Note_on_c, 4, 70, 0
7, 3510, Note_on_c, 4, 74, 31
7, 3540, Note_on_c, 4, 74, 0
7, 3540, Note_on_c, 4, 77, 31
7, 3570, Note_on_c, 4, 77, 0
7, 3570, Note_on_c, 4, 70, 31
7, 3600, Note_on_c, 4, 70, 0
7, 3600, Note_on_c, 4, 70, 31
7, 3630, Note_on_c, 4, 70, 0
7, 3630, Note_on_c, 4, 72, 31
7, 3660, Note_on_c, 4, 72, 0
7, 3660, Note_on_c, 4, 77, 31
7, 3690, Note_on_c, 4, 77, 0
7, 3690, Note_on_c, 4, 72, 31
7, 3720, Note_on_c, 4, 72, 0
7, 3720, Note_on_c, 4, 68, 31
7, 3750, Note_on_c, 4, 68, 0
7, 3750, Note_on_c, 4, 72, 31
7, 3780, Note_on_c, 4, 72, 0
7, 3780, Note_on_c, 4, 77, 31
7, 3810, Note_on_c, 4, 77, 0
7, 3810, Note_on_c, 4, 72, 31
7, 3840, Note_on_c, 4, 72, 0
7, 3840, Note_on_c, 4, 69, 31
7, 3870, Note_on_c, 4, 69, 0
7, 3870, Note_on_c, 4, 72, 31
7, 3900, Note_on_c, 4, 72, 0
7, 3900, Note_on_c, 4, 77, 31
7, 3930, Note_on_c, 4, 77, 0
7, 3930, Note_on_c, 4, 72, 31
7, 3960, Note_on_c, 4, 72, 0
7, 3960, Note_on_c, 4, 69, 31
7, 3990, Note_on_c, 4, 69, 0
7, 3990, Note_on_c, 4, 72, 31
7, 4020, Note_on_c, 4, 72, 0
7, 4020, Note_on_c, 4, 77, 31
7, 4050, Note_on_c, 4, 77, 0
7, 4050, Note_on_c, 4, 72, 31
7, 4080, Note_on_c, 4, 72, 0
7, 4080, Note_on_c, 4, 65, 31
7, 4110, Note_on_c, 4, 65, 0
7, 4110, Note_on_c, 4, 70, 31
7, 4140, Note_on_c, 4, 70, 0
7, 4140, Note_on_c, 4, 74, 31
7, 4170, Note_on_c, 4, 74, 0
7, 4170, Note_on_c, 4, 70, 31
7, 4200, Note_on_c, 4, 70, 0
7, 4200, Note_on_c, 4, 65, 31
7, 4230, Note_on_c, 4, 65, 0
7, 4230, Note_on_c, 4, 70, 31
7, 4260, Note_on_c, 4, 70, 0
7, 4260, Note_on_c, 4, 74, 31
7, 4290, Note_on_c, 4, 74, 0
7, 4290, Note_on_c, 4, 70, 31
7, 4320, Note_on_c, 4, 70, 0
7, 4320, Note_on_c, 4, 65, 31
7, 4350, Note_on_c, 4, 65, 0
7, 4350, Note_on_c, 4, 70, 31
7, 4380, Note_on_c, 4, 70, 0
7, 4380, Note_on_c, 4, 74, 31
7, 4410, Note_on_c, 4, 74, 0
7, 4410, Note_on_c, 4, 70, 31
7, 4440, Note_on_c, 4, 70, 0
7, 4440, Note_on_c, 4, 65, 31
7, 4470, Note_on_c, 4, 65, 0
7, 4470, Note_on_c, 4, 70, 31
7, 4500, Note_on_c, 4, 70, 0
7, 4500, Note_on_c, 4, 74, 31
7, 4530, Note_on_c, 4, 74, 0
7, 4530, Note_on_c, 4, 70, 31
7, 4560, Note_on_c, 4, 70, 0
7, 4560, Note_on_c, 4, 65, 31
7, 4590, Note_on_c, 4, 65, 0
7, 4590, Note_on_c, 4, 69, 31
7, 4620, Note_on_c, 4, 69, 0
7, 4620, Note_on_c, 4, 72, 31
7, 4650, Note_on_c, 4, 72, 0
7, 4650, Note_on_c, 4, 69, 31
7, 4680, Note_on_c, 4, 69, 0
7, 4680, Note_on_c, 4, 65, 31
7, 4710, Note_on_c, 4, 65, 0
7, 4710, Note_on_c, 4, 69, 31
7, 4740, Note_on_c, 4, 69, 0
7, 4740, Note_on_c, 4, 72, 31
7, 4770, Note_on_c, 4, 72, 0
7, 4770, Note_on_c, 4, 69, 31
7, 4800, Note_on_c, 4, 69, 0
7, 4800, Note_on_c, 4, 65, 31
7, 4830, Note_on_c, 4, 65, 0
7, 4830, Note_on_c, 4, 69, 31
7, 4860, Note_on_c, 4, 69, 0
7, 4860, Note_on_c, 4, 72, 31
7, 4890, Note_on_c, 4, 72, 0
7, 4890, Note_on_c, 4, 69, 31
7, 4920, Note_on_c, 4, 69, 0
7, 4920, Note_on_c, 4, 65, 31
7, 4950, Note_on_c, 4, 65, 0
7, 4950, Note_on_c, 4, 69, 31
7, 4980, Note_on_c, 4, 69, 0
7, 4980, Note_on_c, 4, 72, 31
7, 5010, Note_on_c, 4, 72, 0
7, 5010, Note_on_c, 4, 69, 31
7, 5040, Note_on_c, 4, 69, 0
7, 5040, Note_on_c, 4, 70, 31
7, 5070, Note_on_c, 4, 70, 0
7, 5070, Note_on_c, 4, 74, 31
7, 5100, Note_on_c, 4, 74, 0
7, 5100, Note_on_c, 4, 77, 31
7, 5130, Note_on_c, 4, 77, 0
7, 5130, Note_on_c, 4, 74, 31
7, 5160, Note_on_c, 4, 74, 0
7, 5160, Note_on_c, 4, 70, 31
7, 5190, Note_on_c, 4, 70, 0
7, 5190, Note_on_c, 4, 74, 31
7, 5220, Note_on_c, 4, 74, 0
7, 5220, Note_on_c, 4, 77, 31
7, 5250, Note_on_c, 4, 77, 0
7, 5250, Note_on_c, 4, 74, 31
7, 5280, Note_on_c, 4, 74, 0
7, 5280, Note_on_c, 4, 70, 31
7, 5310, Note_on_c, 4, 70, 0
7, 5310, Note_on_c, 4, 74, 31
7, 5340, Note_on_c, 4, 74, 0
7, 5340, Note_on_c, 4, 77, 31
7, 5370, Note_on_c, 4, 77, 0
7, 5370, Note_on_c, 4, 74, 31
7, 5400, Note_on_c, 4, 74, 0
7, 5400, Note_on_c, 4, 70, 31
7, 5430, Note_on_c, 4, 70, 0
7, 5430, Note_on_c, 4, 74, 31
7, 5460, Note_on_c, 4, 74, 0
7, 5460, Note_on_c, 4, 77, 31
7, 5490, Note_on_c, 4, 77, 0
7, 5490, Note_on_c, 4, 74, 31
7, 5520, Note_on_c, 4, 74, 0
7, 5520, Note_on_c, 4, 70, 31
7, 5550, Note_on_c, 4, 70, 0
7, 5550, Note_on_c, 4, 75, 31
7, 5580, Note_on_c, 4, 75, 0
7, 5580, Note_on_c, 4, 79, 31
7, 5610, Note_on_c, 4, 79, 0
7, 5610, Note_on_c, 4, 75, 31
7, 5640, Note_on_c, 4, 75, 0
7, 5640, Note_on_c, 4, 70, 31
7, 5670, Note_on_c, 4, 70, 0
7, 5670, Note_on_c, 4, 75, 31
7, 5700, Note_on_c, 4, 75, 0
7, 5700, Note_on_c, 4, 79, 31
7, 5730, Note_on_c, 4, 79, 0
7, 5730, Note_on_c, 4, 75, 31
7, 5760, Note_on_c, 4, 75, 0
7, 5760, Note_on_c, 4, 72, 31
7, 5790, Note_on_c, 4, 72, 0
7, 5790, Note_on_c, 4, 75, 31
7, 5820, Note_on_c, 4, 75, 0
7, 5820, Note_on_c, 4, 72, 31
7, 5850, Note_on_c, 4, 72, 0
7, 5850, Note_on_c, 4, 75, 31
7, 5880, Note_on_c, 4, 75, 0
7, 5880, Note_on_c, 4, 72, 31
7, 5910, Note_on_c, 4, 72, 0
7, 5910, Note_on_c, 4, 77, 31
7, 5940, Note_on_c, 4, 77, 0
7, 5940, Note_on_c, 4, 72, 31
7, 5970, Note_on_c, 4, 72, 0
7, 5970, Note_on_c, 4, 77, 31
7, 6000, Note_on_c, 4, 77, 0
7, 6000, Note_on_c, 4, 74, 31
7, 6030, Note_on_c, 4, 74, 0
7, 6030, Note_on_c, 4, 77, 31
7, 6060, Note_on_c, 4, 77, 0
7, 6060, Note_on_c, 4, 74, 31
7, 6090, Note_on_c, 4, 74, 0
7, 6090, Note_on_c, 4, 77, 31
7, 6120, Note_on_c, 4, 77, 0
7, 6120, Note_on_c, 4, 74, 31
7, 6150, Note_on_c, 4, 74, 0
7, 6150, Note_on_c, 4, 77, 31
7, 6180, Note_on_c, 4, 77, 0
7, 6180, Note_on_c, 4, 74, 31
7, 6210, Note_on_c, 4, 74, 0
7, 6210, Note_on_c, 4, 77, 31
7, 6240, Note_on_c, 4, 77, 0
7, 6240, Note_on_c, 4, 75, 31
7, 6270, Note_on_c, 4, 75, 0
7, 6270, Note_on_c, 4, 79, 31
7, 6300, Note_on_c, 4, 79, 0
7, 6300, Note_on_c, 4, 75, 31
7, 6330, Note_on_c, 4, 75, 0
7, 6330, Note_on_c, 4, 79, 31
7, 6360, Note_on_c, 4, 79, 0
7, 6360, Note_on_c, 4, 75, 31
7, 6390, Note_on_c, 4, 75, 0
7, 6390, Note_on_c, 4, 80, 31
7, 6420, Note_on_c, 4, 80, 0
7, 6420, Note_on_c, 4, 75, 31
7, 6450, Note_on_c, 4, 75, 0
7, 6450, Note_on_c, 4, 80, 31
7, 6480, Note_on_c, 4, 80, 0
7, 6480, Note_on_c, 4, 70, 31
7, 6510, Note_on_c, 4, 70, 0
7, 6510, Note_on_c, 4, 74, 31
7, 6540, Note_on_c, 4, 74, 0
7, 6540, Note_on_c, 4, 77, 31
7, 6570, Note_on_c, 4, 77, 0
7, 6570, Note_on_c, 4, 74, 31
7, 6600, Note_on_c, 4, 74, 0
7, 6600, Note_on_c, 4, 70, 31
7, 6630, Note_on_c, 4, 70, 0
7, 6630, Note_on_c, 4, 74, 31
7, 6660, Note_on_c, 4, 74, 0
7, 6660, Note_on_c, 4, 77, 31
7, 6690, Note_on_c, 4, 77, 0
7, 6690, Note_on_c, 4, 74, 31
7, 6720, Note_on_c, 4, 74, 0
7, 6720, Note_on_c, 4, 70, 31
7, 6750, Note_on_c, 4, 70, 0
7, 6750, Note_on_c, 4, 74, 31
7, 6780, Note_on_c, 4, 74, 0
7, 6780, Note_on_c, 4, 77, 31
7, 6810, Note_on_c, 4, 77, 0
7, 6810, Note_on_c, 4, 74, 31
7, 6840, Note_on_c, 4, 74, 0
7, 6840, Note_on_c, 4, 70, 31
7, 6870, Note_on_c, 4, 70, 0
7, 6870, Note_on_c, 4, 75, 31
7, 6900, Note_on_c, 4, 75, 0
7, 6900, Note_on_c, 4, 79, 31
7, 6930, Note_on_c, 4, 79, 0
7, 6930, Note_on_c, 4, 70, 31
7, 6960, Note_on_c, 4, 70, 0
7, 6960, Note_on_c, 4, 70, 31
7, 6990, Note_on_c, 4, 70, 0
7, 6990, Note_on_c, 4, 74, 31
7, 7020, Note_on_c, 4, 74, 0
7, 7020, Note_on_c, 4, 77, 31
7, 7050, Note_on_c, 4, 77, 0
7, 7050, Note_on_c, 4, 74, 31
7, 7080, Note_on_c, 4, 74, 0
7, 7080, Note_on_c, 4, 70, 31
7, 7110, Note_on_c, 4, 70, 0
7, 7110, Note_on_c, 4, 74, 31
7, 7140, Note_on_c, 4, 74, 0
7, 7140, Note_on_c, 4, 77, 31
7, 7170, Note_on_c, 4, 77, 0
7, 7170, Note_on_c, 4, 74, 31
7, 7200, Note_on_c, 4, 74, 0
7, 7200, Note_on_c, 4, 70, 31
7, 7230, Note_on_c, 4, 70, 0
7, 7230, Note_on_c, 4, 74, 31
7, 7260, Note_on_c, 4, 74, 0
7, 7260, Note_on_c, 4, 77, 31
7, 7290, Note_on_c, 4, 77, 0
7, 7290, Note_on_c, 4, 74, 31
7, 7320, Note_on_c, 4, 74, 0
7, 7320, Note_on_c, 4, 70, 31
7, 7350, Note_on_c, 4, 70, 0
7, 7350, Note_on_c, 4, 75, 31
7, 7380, Note_on_c, 4, 75, 0
7, 7380, Note_on_c, 4, 77, 31
7, 7410, Note_on_c, 4, 77, 0
7, 7410, Note_on_c, 4, 70, 31
7, 7440, Note_on_c, 4, 70, 0
7, 7440, Note_on_c, 4, 70, 31
7, 7470, Note_on_c, 4, 70, 0
7, 7470, Note_on_c, 4, 74, 31
7, 7500, Note_on_c, 4, 74, 0
7, 7500, Note_on_c, 4, 77, 31
7, 7530, Note_on_c, 4, 77, 0
7, 7530, Note_on_c, 4, 74, 31
7, 7560, Note_on_c, 4, 74, 0
7, 7560, Note_on_c, 4, 70, 31
7, 7590, Note_on_c, 4, 70, 0
7, 7590, Note_on_c, 4, 74, 31
7, 7620, Note_on_c, 4, 74, 0
7, 7620, Note_on_c, 4, 77, 31
7, 7650, Note_on_c, 4, 77, 0
7, 7650, Note_on_c, 4, 74, 31
7, 7680, Note_on_c, 4, 74, 0
7, 7680, Note_on_c, 4, 70, 31
7, 7710, Note_on_c, 4, 70, 0
7, 7710, Note_on_c, 4, 75, 31
7, 7740, Note_on_c, 4, 75, 0
7, 7740, Note_on_c, 4, 79, 31
7, 7770, Note_on_c, 4, 79, 0
7, 7770, Note_on_c, 4, 70, 31
7, 7800, Note_on_c, 4, 70, 0
7, 7800, Note_on_c, 4, 70, 31
7, 7830, Note_on_c, 4, 70, 0
7, 7830, Note_on_c, 4, 74, 31
7, 7860, Note_on_c, 4, 74, 0
7, 7860, Note_on_c, 4, 77, 31
7, 7890, Note_on_c, 4, 77, 0
7, 7890, Note_on_c, 4, 74, 31
7, 7920, Note_on_c, 4, 74, 0
7, 7920, Note_on_c, 4, 70, 31
7, 7950, Note_on_c, 4, 70, 0
7, 7950, Note_on_c, 4, 75, 31
7, 7980, Note_on_c, 4, 75, 0
7, 7980, Note_on_c, 4, 79, 31
7, 8010, Note_on_c, 4, 79, 0
7, 8010, Note_on_c, 4, 75, 31
7, 8040, Note_on_c, 4, 75, 0
7, 8040, Note_on_c, 4, 70, 31
7, 8070, Note_on_c, 4, 70, 0
7, 8070, Note_on_c, 4, 75, 31
7, 8100, Note_on_c, 4, 75, 0
7, 8100, Note_on_c, 4, 79, 31
7, 8130, Note_on_c, 4, 79, 0
7, 8130, Note_on_c, 4, 70, 31
7, 8160, Note_on_c, 4, 70, 0
7, 8160, Note_on_c, 4, 67, 31
7, 8190, Note_on_c, 4, 67, 0
7, 8190, Note_on_c, 4, 70, 31
7, 8220, Note_on_c, 4, 70, 0
7, 8220, Note_on_c, 4, 75, 31
7, 8250, Note_on_c, 4, 75, 0
7, 8250, Note_on_c, 4, 70, 31
7, 8280, Note_on_c, 4, 70, 0
7, 8280, Note_on_c, 4, 67, 31
7, 8310, Note_on_c, 4, 67, 0
7, 8310, Note_on_c, 4, 70, 31
7, 8340, Note_on_c, 4, 70, 0
7, 8340, Note_on_c, 4, 75, 31
7, 8370, Note_on_c, 4, 75, 0
7, 8370, Note_on_c, 4, 70, 31
7, 8400, Note_on_c, 4, 70, 0
7, 8400, Note_on_c, 4, 63, 31
7, 8430, Note_on_c, 4, 63, 0
7, 8430, Note_on_c, 4, 67, 31
7, 8460, Note_on_c, 4, 67, 0
7, 8460, Note_on_c, 4, 70, 31
7, 8490, Note_on_c, 4, 70, 0
7, 8490, Note_on_c, 4, 67, 31
7, 8520, Note_on_c, 4, 67, 0
7, 8520, Note_on_c, 4, 63, 31
7, 8550, Note_on_c, 4, 63, 0
7, 8550, Note_on_c, 4, 67, 31
7, 8580, Note_on_c, 4, 67, 0
7, 8580, Note_on_c, 4, 70, 31
7, 8610, Note_on_c, 4, 70, 0
7, 8610, Note_on_c, 4, 67, 31
7, 8640, Note_on_c, 4, 67, 0
7, 8640, Program_c, 4, 48
7, 8640, Note_on_c, 4, 63, 31
7, 9120, Note_on_c, 4, 63, 0
7, 9120, Control_c, 4, 6, 64
7, 9120, Control_c, 4, 91, 40
7, 9120, Control_c, 4, 93, 0
7, 9121, Text_t, "Non Registered Parameter Numbers"
7, 9122, Text_t, "For Roland SC-55 Vibrato"
7, 9123, Text_t, "It is always elegant programming"
7, 9124, Text_t, "practice to put system variables back"
7, 9125, Text_t, "to the way you found them."
7, 9126, Text_t, "I.E.  Return all these NRPN numbers"
7, 9127, Text_t, "back to default, so the next piece"
7, 9128, Text_t, "that is played isn't messed up by "
7, 9129, Text_t, "parameters for this piece."
7, 9130, Text_t, "Set up NRPN for Vibrate Rate"
7, 9132, Control_c, 4, 99, 1
7, 9133, Control_c, 4, 98, 8
7, 9134, Text_t, "Data Entry Command"
7, 9135, Control_c, 4, 6, 64
7, 9136, Text_t, "Set up NRPN for Vibrate Delay"
7, 9137, Control_c, 4, 99, 1
7, 9138, Control_c, 4, 98, 10
7, 9139, Text_t, "Data Entry Command"
7, 9140, Control_c, 4, 6, 64
7, 9141, Text_t, "Set up NRPN for Vibrate Depth"
7, 9142, Control_c, 4, 99, 1
7, 9143, Control_c, 4, 98, 9
7, 9144, Text_t, "Data Entry Command"
7, 9145, Control_c, 4, 6, 64
7, 9600, Program_c, 4, 0
7, 9600, Control_c, 4, 93, 0
7, 9600, Control_c, 4, 91, 40
7, 9600, Control_c, 4, 10, 64
7, 9600, Control_c, 4, 7, 100
7, 9600, End_track
8, 0, Start_track
8, 0, MIDI_port, 0
8, 0, Title_t, "Viola"
8, 0, Program_c, 5, 41
8, 0, Control_c, 5, 7, 105
8, 0, Control_c, 5, 10, 127
8, 0, Control_c, 5, 93, 0
8, 0, Control_c, 5, 91, 120
8, 1, Text_t, "Non Registered Parameter Numbers"
8, 1, Text_t, "For Roland SC-55 Vibrato"
8, 1, Text_t, "Set up NRPN for Vibrate Rate"
8, 2, Control_c, 5, 99, 1
8, 3, Control_c, 5, 98, 8
8, 4, Text_t, "Data Entry Command"
8, 4, Control_c, 5, 6, 68
8, 5, Text_t, "Set up NRPN for Vibrate Delay"
8, 6, Control_c, 5, 99, 1
8, 7, Control_c, 5, 98, 10
8, 8, Text_t, "Data Entry Command"
8, 8, Control_c, 5, 6, 14
8, 9, Text_t, "Set up NRPN for Vibrate Depth"
8, 10, Control_c, 5, 99, 1
8, 11, Control_c, 5, 98, 9
8, 12, Text_t, "Data Entry Command; Vibrato ON"
8, 12, Control_c, 5, 6, 70
8, 480, Note_on_c, 5, 58, 31
8, 1800, Note_on_c, 5, 58, 0
8, 1800, Note_on_c, 5, 56, 31
8, 2040, Note_on_c, 5, 56, 0
8, 2040, Note_on_c, 5, 55, 31
8, 2280, Note_on_c, 5, 55, 0
8, 2280, Note_on_c, 5, 53, 31
8, 2400, Note_on_c, 5, 53, 0
8, 2400, Note_on_c, 5, 53, 31
8, 2760, Note_on_c, 5, 53, 0
8, 2760, Note_on_c, 5, 58, 31
8, 2880, Note_on_c, 5, 58, 0
8, 2880, Note_on_c, 5, 58, 31
8, 3120, Note_on_c, 5, 58, 0
8, 3120, Note_on_c, 5, 60, 31
8, 3300, Note_on_c, 5, 60, 0
8, 3300, Note_on_c, 5, 57, 31
8, 3360, Note_on_c, 5, 57, 0
8, 3360, Note_on_c, 5, 53, 31
8, 5400, Note_on_c, 5, 53, 0
8, 5400, Note_on_c, 5, 58, 31
8, 5520, Note_on_c, 5, 58, 0
8, 5520, Note_on_c, 5, 58, 31
8, 5760, Note_on_c, 5, 58, 0
8, 5760, Note_on_c, 5, 60, 31
8, 6000, Note_on_c, 5, 60, 0
8, 6000, Note_on_c, 5, 62, 31
8, 6240, Note_on_c, 5, 62, 0
8, 6240, Note_on_c, 5, 51, 31
8, 6480, Note_on_c, 5, 51, 0
8, 6480, Note_on_c, 5, 53, 31
8, 6720, Note_on_c, 5, 53, 0
8, 6720, Note_on_c, 5, 46, 31
8, 9120, Note_on_c, 5, 46, 0
8, 9120, Control_c, 5, 6, 64
8, 9120, Control_c, 5, 91, 40
8, 9120, Control_c, 5, 93, 0
8, 9132, Control_c, 5, 99, 1
8, 9133, Control_c, 5, 98, 8
8, 9135, Control_c, 5, 6, 64
8, 9137, Control_c, 5, 99, 1
8, 9138, Control_c, 5, 98, 10
8, 9140, Control_c, 5, 6, 64
8, 9142, Control_c, 5, 99, 1
8, 9143, Control_c, 5, 98, 9
8, 9145, Control_c, 5, 6, 64
8, 9600, Program_c, 5, 0
8, 9600, Control_c, 5, 93, 0
8, 9600, Control_c, 5, 91, 40
8, 9600, Control_c, 5, 10, 64
8, 9600, Control_c, 5, 7, 100
8, 9600, End_track
9, 0, Start_track
9, 0, MIDI_port, 0
9, 0, Title_t, "     Strings"
9, 0, Program_c, 6, 48
9, 0, Control_c, 6, 7, 105
9, 0, Control_c, 6, 10, 20
9, 0, Control_c, 6, 93, 0
9, 0, Control_c, 6, 91, 120
9, 480, Note_on_c, 6, 58, 31
9, 1800, Note_on_c, 6, 58, 0
9, 1800, Note_on_c, 6, 56, 31
9, 2040, Note_on_c, 6, 56, 0
9, 2040, Note_on_c, 6, 55, 31
9, 2280, Note_on_c, 6, 55, 0
9, 2280, Note_on_c, 6, 53, 31
9, 2400, Note_on_c, 6, 53, 0
9, 2400, Note_on_c, 6, 53, 31
9, 2760, Note_on_c, 6, 53, 0
9, 2760, Note_on_c, 6, 58, 31
9, 2880, Note_on_c, 6, 58, 0
9, 2880, Note_on_c, 6, 58, 31
9, 3120, Note_on_c, 6, 58, 0
9, 3120, Note_on_c, 6, 60, 31
9, 3300, Note_on_c, 6, 60, 0
9, 3300, Note_on_c, 6, 57, 31
9, 3360, Note_on_c, 6, 57, 0
9, 3360, Note_on_c, 6, 53, 31
9, 5400, Note_on_c, 6, 53, 0
9, 5400, Note_on_c, 6, 58, 31
9, 5520, Note_on_c, 6, 58, 0
9, 5520, Note_on_c, 6, 58, 31
9, 5760, Note_on_c, 6, 58, 0
9, 5760, Note_on_c, 6, 60, 31
9, 6000, Note_on_c, 6, 60, 0
9, 6000, Note_on_c, 6, 62, 31
9, 6240, Note_on_c, 6, 62, 0
9, 6240, Note_on_c, 6, 51, 31
9, 6480, Note_on_c, 6, 51, 0
9, 6480, Note_on_c, 6, 53, 31
9, 6720, Note_on_c, 6, 53, 0
9, 6720, Note_on_c, 6, 46, 31
9, 9120, Note_on_c, 6, 46, 0
9, 9120, Control_c, 6, 6, 64
9, 9120, Control_c, 6, 91, 40
9, 9120, Control_c, 6, 93, 0
9, 9121, Text_t, "Non Registered Parameter Numbers"
9, 9122, Text_t, "For Roland SC-55 Vibrato"
9, 9123, Text_t, "It is always elegant programming"
9, 9124, Text_t, "practice to put system variables back"
9, 9125, Text_t, "to the way you found them."
9, 9126, Text_t, "I.E.  Return all these NRPN numbers"
9, 9127, Text_t, "back to default, so the next piece"
9, 9128, Text_t, "that is played isn't messed up by "
9, 9129, Text_t, "parameters for this piece."
9, 9130, Text_t, "Set up NRPN for Vibrate Rate"
9, 9132, Control_c, 6, 99, 1
9, 9133, Control_c, 6, 98, 8
9, 9134, Text_t, "Data Entry Command"
9, 9135, Control_c, 6, 6, 64
9, 9136, Text_t, "Set up NRPN for Vibrate Delay"
9, 9137, Control_c, 6, 99, 1
9, 9138, Control_c, 6, 98, 10
9, 9139, Text_t, "Data Entry Command"
9, 9140, Control_c, 6, 6, 64
9, 9141, Text_t, "Set up NRPN for Vibrate Depth"
9, 9142, Control_c, 6, 99, 1
9, 9143, Control_c, 6, 98, 9
9, 9144, Text_t, "Data Entry Command"
9, 9145, Control_c, 6, 6, 64
9, 9600, Program_c, 6, 0
9, 9600, Control_c, 6, 93, 0
9, 9600, Control_c, 6, 91, 40
9, 9600, Control_c, 6, 10, 64
9, 9600, Control_c, 6, 7, 100
9, 9600, End_track
10, 0, Start_track
10, 0, MIDI_port, 0
10, 0, Title_t, "     Strings"
10, 0, Program_c, 7, 48
10, 0, Control_c, 7, 7, 105
10, 0, Control_c, 7, 10, 80
10, 0, Control_c, 7, 93, 0
10, 0, Control_c, 7, 91, 120
10, 480, Note_on_c, 7, 58, 31
10, 1800, Note_on_c, 7, 58, 0
10, 1800, Note_on_c, 7, 56, 31
10, 2040, Note_on_c, 7, 56, 0
10, 2040, Note_on_c, 7, 55, 31
10, 2280, Note_on_c, 7, 55, 0
10, 2280, Note_on_c, 7, 53, 31
10, 2400, Note_on_c, 7, 53, 0
10, 2400, Note_on_c, 7, 53, 31
10, 2760, Note_on_c, 7, 53, 0
10, 2760, Note_on_c, 7, 58, 31
10, 2880, Note_on_c, 7, 58, 0
10, 2880, Note_on_c, 7, 58, 31
10, 3120, Note_on_c, 7, 58, 0
10, 3120, Note_on_c, 7, 60, 31
10, 3300, Note_on_c, 7, 60, 0
10, 3300, Note_on_c, 7, 57, 31
10, 3360, Note_on_c, 7, 57, 0
10, 3360, Note_on_c, 7, 53, 31
10, 5400, Note_on_c, 7, 53, 0
10, 5400, Note_on_c, 7, 58, 31
10, 5520, Note_on_c, 7, 58, 0
10, 5520, Note_on_c, 7, 58, 31
10, 5760, Note_on_c, 7, 58, 0
10, 5760, Note_on_c, 7, 60, 31
10, 6000, Note_on_c, 7, 60, 0
10, 6000, Note_on_c, 7, 62, 31
10, 6240, Note_on_c, 7, 62, 0
10, 6240, Note_on_c, 7, 51, 31
10, 6480, Note_on_c, 7, 51, 0
10, 6480, Note_on_c, 7, 53, 31
10, 6720, Note_on_c, 7, 53, 0
10, 6720, Note_on_c, 7, 46, 31
10, 9120, Note_on_c, 7, 46, 0
10, 9120, Control_c, 7, 6, 64
10, 9120, Control_c, 7, 91, 40
10, 9120, Control_c, 7, 93, 0
10, 9132, Control_c, 7, 99, 1
10, 9133, Control_c, 7, 98, 8
10, 9135, Control_c, 7, 6, 64
10, 9137, Control_c, 7, 99, 1
10, 9138, Control_c, 7, 98, 10
10, 9140, Control_c, 7, 6, 64
10, 9142, Control_c, 7, 99, 1
10, 9143, Control_c, 7, 98, 9
10, 9145, Control_c, 7, 6, 64
10, 9600, Program_c, 7, 0
10, 9600, Control_c, 7, 93, 0
10, 9600, Control_c, 7, 91, 40
10, 9600, Control_c, 7, 10, 64
10, 9600, Control_c, 7, 7, 100
10, 9600, End_track
11, 0, Start_track
11, 0, MIDI_port, 0
11, 0, Title_t, "Cello"
11, 0, Program_c, 8, 42
11, 0, Control_c, 8, 6, 70
11, 0, Control_c, 8, 93, 0
11, 0, Control_c, 8, 91, 120
11, 1, Text_t, "Non Registered Parameter Numbers"
11, 1, Text_t, "For Roland SC-55 Vibrato"
11, 1, Text_t, "Set up NRPN for Vibrate Rate"
11, 2, Control_c, 8, 99, 1
11, 3, Control_c, 8, 98, 8
11, 4, Text_t, "Data Entry Command"
11, 4, Control_c, 8, 6, 68
11, 5, Text_t, "Set up NRPN for Vibrate Delay"
11, 6, Control_c, 8, 99, 1
11, 7, Control_c, 8, 98, 10
11, 8, Text_t, "Data Entry Command"
11, 8, Control_c, 8, 6, 14
11, 9, Text_t, "Set up NRPN for Vibrate Depth"
11, 10, Control_c, 8, 99, 1
11, 11, Control_c, 8, 98, 9
11, 12, Text_t, "Data Entry Command; Vibrato ON"
11, 12, Control_c, 8, 6, 70
11, 480, Note_on_c, 8, 51, 31
11, 535, Note_on_c, 8, 51, 0
11, 540, Note_on_c, 8, 51, 31
11, 595, Note_on_c, 8, 51, 0
11, 600, Note_on_c, 8, 51, 31
11, 655, Note_on_c, 8, 51, 0
11, 660, Note_on_c, 8, 51, 31
11, 715, Note_on_c, 8, 51, 0
11, 720, Note_on_c, 8, 46, 31
11, 775, Note_on_c, 8, 46, 0
11, 780, Note_on_c, 8, 46, 31
11, 835, Note_on_c, 8, 46, 0
11, 840, Note_on_c, 8, 46, 31
11, 895, Note_on_c, 8, 46, 0
11, 900, Note_on_c, 8, 46, 31
11, 955, Note_on_c, 8, 46, 0
11, 960, Note_on_c, 8, 46, 31
11, 1015, Note_on_c, 8, 46, 0
11, 1020, Note_on_c, 8, 46, 31
11, 1075, Note_on_c, 8, 46, 0
11, 1080, Note_on_c, 8, 46, 31
11, 1135, Note_on_c, 8, 46, 0
11, 1140, Note_on_c, 8, 46, 31
11, 1195, Note_on_c, 8, 46, 0
11, 1200, Note_on_c, 8, 51, 31
11, 1255, Note_on_c, 8, 51, 0
11, 1260, Note_on_c, 8, 51, 31
11, 1315, Note_on_c, 8, 51, 0
11, 1320, Note_on_c, 8, 51, 31
11, 1375, Note_on_c, 8, 51, 0
11, 1380, Note_on_c, 8, 51, 31
11, 1435, Note_on_c, 8, 51, 0
11, 1440, Note_on_c, 8, 50, 31
11, 1495, Note_on_c, 8, 50, 0
11, 1500, Note_on_c, 8, 50, 31
11, 1555, Note_on_c, 8, 50, 0
11, 1560, Note_on_c, 8, 50, 31
11, 1615, Note_on_c, 8, 50, 0
11, 1620, Note_on_c, 8, 50, 31
11, 1675, Note_on_c, 8, 50, 0
11, 1680, Note_on_c, 8, 48, 31
11, 1735, Note_on_c, 8, 48, 0
11, 1740, Note_on_c, 8, 48, 31
11, 1795, Note_on_c, 8, 48, 0
11, 1800, Note_on_c, 8, 48, 31
11, 1855, Note_on_c, 8, 48, 0
11, 1860, Note_on_c, 8, 48, 31
11, 1915, Note_on_c, 8, 48, 0
11, 1920, Note_on_c, 8, 46, 31
11, 1975, Note_on_c, 8, 46, 0
11, 1980, Note_on_c, 8, 46, 31
11, 2035, Note_on_c, 8, 46, 0
11, 2040, Note_on_c, 8, 46, 31
11, 2095, Note_on_c, 8, 46, 0
11, 2100, Note_on_c, 8, 46, 31
11, 2155, Note_on_c, 8, 46, 0
11, 2160, Note_on_c, 8, 44, 31
11, 2215, Note_on_c, 8, 44, 0
11, 2220, Note_on_c, 8, 44, 31
11, 2275, Note_on_c, 8, 44, 0
11, 2280, Note_on_c, 8, 45, 31
11, 2335, Note_on_c, 8, 45, 0
11, 2340, Note_on_c, 8, 45, 31
11, 2395, Note_on_c, 8, 45, 0
11, 2400, Note_on_c, 8, 46, 31
11, 2455, Note_on_c, 8, 46, 0
11, 2460, Note_on_c, 8, 46, 31
11, 2515, Note_on_c, 8, 46, 0
11, 2520, Note_on_c, 8, 46, 31
11, 2575, Note_on_c, 8, 46, 0
11, 2580, Note_on_c, 8, 46, 31
11, 2635, Note_on_c, 8, 46, 0
11, 2640, Note_on_c, 8, 46, 31
11, 2695, Note_on_c, 8, 46, 0
11, 2700, Note_on_c, 8, 46, 31
11, 2755, Note_on_c, 8, 46, 0
11, 2760, Note_on_c, 8, 46, 31
11, 2815, Note_on_c, 8, 46, 0
11, 2820, Note_on_c, 8, 46, 31
11, 2875, Note_on_c, 8, 46, 0
11, 2880, Note_on_c, 8, 51, 31
11, 2935, Note_on_c, 8, 51, 0
11, 2940, Note_on_c, 8, 51, 31
11, 2995, Note_on_c, 8, 51, 0
11, 3000, Note_on_c, 8, 51, 31
11, 3055, Note_on_c, 8, 51, 0
11, 3060, Note_on_c, 8, 51, 31
11, 3115, Note_on_c, 8, 51, 0
11, 3120, Note_on_c, 8, 51, 31
11, 3175, Note_on_c, 8, 51, 0
11, 3180, Note_on_c, 8, 51, 31
11, 3235, Note_on_c, 8, 51, 0
11, 3240, Note_on_c, 8, 51, 31
11, 3295, Note_on_c, 8, 51, 0
11, 3300, Note_on_c, 8, 51, 31
11, 3355, Note_on_c, 8, 51, 0
11, 3360, Note_on_c, 8, 46, 31
11, 3415, Note_on_c, 8, 46, 0
11, 3420, Note_on_c, 8, 46, 31
11, 3475, Note_on_c, 8, 46, 0
11, 3480, Note_on_c, 8, 46, 31
11, 3535, Note_on_c, 8, 46, 0
11, 3540, Note_on_c, 8, 46, 31
11, 3595, Note_on_c, 8, 46, 0
11, 3600, Note_on_c, 8, 41, 31
11, 3655, Note_on_c, 8, 41, 0
11, 3660, Note_on_c, 8, 41, 31
11, 3715, Note_on_c, 8, 41, 0
11, 3720, Note_on_c, 8, 41, 31
11, 3775, Note_on_c, 8, 41, 0
11, 3780, Note_on_c, 8, 41, 31
11, 3835, Note_on_c, 8, 41, 0
11, 3840, Note_on_c, 8, 41, 31
11, 3895, Note_on_c, 8, 41, 0
11, 3900, Note_on_c, 8, 41, 31
11, 3955, Note_on_c, 8, 41, 0
11, 3960, Note_on_c, 8, 41, 31
11, 4015, Note_on_c, 8, 41, 0
11, 4020, Note_on_c, 8, 41, 31
11, 4075, Note_on_c, 8, 41, 0
11, 4080, Note_on_c, 8, 46, 31
11, 4135, Note_on_c, 8, 46, 0
11, 4140, Note_on_c, 8, 46, 31
11, 4195, Note_on_c, 8, 46, 0
11, 4200, Note_on_c, 8, 46, 31
11, 4255, Note_on_c, 8, 46, 0
11, 4260, Note_on_c, 8, 46, 31
11, 4315, Note_on_c, 8, 46, 0
11, 4320, Note_on_c, 8, 46, 31
11, 4375, Note_on_c, 8, 46, 0
11, 4380, Note_on_c, 8, 46, 31
11, 4435, Note_on_c, 8, 46, 0
11, 4440, Note_on_c, 8, 46, 31
11, 4495, Note_on_c, 8, 46, 0
11, 4500, Note_on_c, 8, 46, 31
11, 4555, Note_on_c, 8, 46, 0
11, 4560, Note_on_c, 8, 41, 31
11, 4615, Note_on_c, 8, 41, 0
11, 4620, Note_on_c, 8, 41, 31
11, 4675, Note_on_c, 8, 41, 0
11, 4680, Note_on_c, 8, 41, 31
11, 4735, Note_on_c, 8, 41, 0
11, 4740, Note_on_c, 8, 41, 31
11, 4795, Note_on_c, 8, 41, 0
11, 4800, Note_on_c, 8, 41, 31
11, 4855, Note_on_c, 8, 41, 0
11, 4860, Note_on_c, 8, 41, 31
11, 4915, Note_on_c, 8, 41, 0
11, 4920, Note_on_c, 8, 41, 31
11, 4975, Note_on_c, 8, 41, 0
11, 4980, Note_on_c, 8, 41, 31
11, 5035, Note_on_c, 8, 41, 0
11, 5040, Note_on_c, 8, 46, 31
11, 5095, Note_on_c, 8, 46, 0
11, 5100, Note_on_c, 8, 46, 31
11, 5155, Note_on_c, 8, 46, 0
11, 5160, Note_on_c, 8, 46, 31
11, 5215, Note_on_c, 8, 46, 0
11, 5220, Note_on_c, 8, 46, 31
11, 5275, Note_on_c, 8, 46, 0
11, 5280, Note_on_c, 8, 46, 31
11, 5335, Note_on_c, 8, 46, 0
11, 5340, Note_on_c, 8, 46, 31
11, 5395, Note_on_c, 8, 46, 0
11, 5400, Note_on_c, 8, 46, 31
11, 5455, Note_on_c, 8, 46, 0
11, 5460, Note_on_c, 8, 46, 31
11, 5515, Note_on_c, 8, 46, 0
11, 5520, Note_on_c, 8, 51, 31
11, 5575, Note_on_c, 8, 51, 0
11, 5580, Note_on_c, 8, 51, 31
11, 5635, Note_on_c, 8, 51, 0
11, 5640, Note_on_c, 8, 51, 31
11, 5695, Note_on_c, 8, 51, 0
11, 5700, Note_on_c, 8, 51, 31
11, 5755, Note_on_c, 8, 51, 0
11, 5760, Note_on_c, 8, 44, 31
11, 5815, Note_on_c, 8, 44, 0
11, 5820, Note_on_c, 8, 44, 31
11, 5875, Note_on_c, 8, 44, 0
11, 5880, Note_on_c, 8, 44, 31
11, 5935, Note_on_c, 8, 44, 0
11, 5940, Note_on_c, 8, 44, 31
11, 5995, Note_on_c, 8, 44, 0
11, 6000, Note_on_c, 8, 46, 31
11, 6055, Note_on_c, 8, 46, 0
11, 6060, Note_on_c, 8, 46, 31
11, 6115, Note_on_c, 8, 46, 0
11, 6120, Note_on_c, 8, 46, 31
11, 6175, Note_on_c, 8, 46, 0
11, 6180, Note_on_c, 8, 46, 31
11, 6235, Note_on_c, 8, 46, 0
11, 6240, Note_on_c, 8, 48, 31
11, 6295, Note_on_c, 8, 48, 0
11, 6300, Note_on_c, 8, 48, 31
11, 6355, Note_on_c, 8, 48, 0
11, 6360, Note_on_c, 8, 48, 31
11, 6415, Note_on_c, 8, 48, 0
11, 6420, Note_on_c, 8, 48, 31
11, 6475, Note_on_c, 8, 48, 0
11, 6480, Note_on_c, 8, 46, 31
11, 6535, Note_on_c, 8, 46, 0
11, 6540, Note_on_c, 8, 46, 31
11, 6595, Note_on_c, 8, 46, 0
11, 6600, Note_on_c, 8, 46, 31
11, 6655, Note_on_c, 8, 46, 0
11, 6660, Note_on_c, 8, 46, 31
11, 6715, Note_on_c, 8, 46, 0
11, 6720, Note_on_c, 8, 46, 31
11, 6775, Note_on_c, 8, 46, 0
11, 6780, Note_on_c, 8, 46, 31
11, 6835, Note_on_c, 8, 46, 0
11, 6840, Note_on_c, 8, 46, 31
11, 6895, Note_on_c, 8, 46, 0
11, 6900, Note_on_c, 8, 46, 31
11, 6955, Note_on_c, 8, 46, 0
11, 6960, Note_on_c, 8, 46, 31
11, 7015, Note_on_c, 8, 46, 0
11, 7020, Note_on_c, 8, 46, 31
11, 7075, Note_on_c, 8, 46, 0
11, 7080, Note_on_c, 8, 46, 31
11, 7135, Note_on_c, 8, 46, 0
11, 7140, Note_on_c, 8, 46, 31
11, 7195, Note_on_c, 8, 46, 0
11, 7200, Note_on_c, 8, 46, 31
11, 7255, Note_on_c, 8, 46, 0
11, 7260, Note_on_c, 8, 46, 31
11, 7315, Note_on_c, 8, 46, 0
11, 7320, Note_on_c, 8, 46, 31
11, 7375, Note_on_c, 8, 46, 0
11, 7380, Note_on_c, 8, 46, 31
11, 7435, Note_on_c, 8, 46, 0
11, 7440, Note_on_c, 8, 46, 31
11, 7495, Note_on_c, 8, 46, 0
11, 7500, Note_on_c, 8, 46, 31
11, 7555, Note_on_c, 8, 46, 0
11, 7560, Note_on_c, 8, 46, 31
11, 7615, Note_on_c, 8, 46, 0
11, 7620, Note_on_c, 8, 46, 31
11, 7675, Note_on_c, 8, 46, 0
11, 7680, Note_on_c, 8, 39, 31
11, 7735, Note_on_c, 8, 39, 0
11, 7740, Note_on_c, 8, 39, 31
11, 7795, Note_on_c, 8, 39, 0
11, 7800, Note_on_c, 8, 46, 31
11, 7855, Note_on_c, 8, 46, 0
11, 7860, Note_on_c, 8, 46, 31
11, 7915, Note_on_c, 8, 46, 0
11, 7920, Note_on_c, 8, 39, 31
11, 7975, Note_on_c, 8, 39, 0
11, 7980, Note_on_c, 8, 39, 31
11, 8035, Note_on_c, 8, 39, 0
11, 8040, Note_on_c, 8, 39, 31
11, 8095, Note_on_c, 8, 39, 0
11, 8100, Note_on_c, 8, 39, 31
11, 8155, Note_on_c, 8, 39, 0
11, 8160, Note_on_c, 8, 39, 31
11, 8215, Note_on_c, 8, 39, 0
11, 8220, Note_on_c, 8, 39, 31
11, 8275, Note_on_c, 8, 39, 0
11, 8280, Note_on_c, 8, 39, 31
11, 8335, Note_on_c, 8, 39, 0
11, 8340, Note_on_c, 8, 39, 31
11, 8395, Note_on_c, 8, 39, 0
11, 8400, Note_on_c, 8, 39, 31
11, 8455, Note_on_c, 8, 39, 0
11, 8460, Note_on_c, 8, 39, 31
11, 8515, Note_on_c, 8, 39, 0
11, 8520, Note_on_c, 8, 39, 31
11, 8575, Note_on_c, 8, 39, 0
11, 8580, Note_on_c, 8, 39, 31
11, 8635, Note_on_c, 8, 39, 0
11, 8640, Note_on_c, 8, 39, 31
11, 9120, Note_on_c, 8, 39, 0
11, 9120, Control_c, 8, 6, 64
11, 9120, Control_c, 8, 91, 40
11, 9120, Control_c, 8, 93, 0
11, 9132, Control_c, 8, 99, 1
11, 9133, Control_c, 8, 98, 8
11, 9135, Control_c, 8, 6, 64
11, 9137, Control_c, 8, 99, 1
11, 9138, Control_c, 8, 98, 10
11, 9140, Control_c, 8, 6, 64
11, 9142, Control_c, 8, 99, 1
11, 9143, Control_c, 8, 98, 9
11, 9145, Control_c, 8, 6, 64
11, 9600, Program_c, 8, 0
11, 9600, Control_c, 8, 93, 0
11, 9600, Control_c, 8, 91, 40
11, 9600, Control_c, 8, 10, 64
11, 9600, Control_c, 8, 7, 100
11, 9600, End_track
12, 0, Start_track
12, 0, MIDI_port, 0
12, 0, Program_c, 9, 0
12, 0, Control_c, 9, 7, 100
12, 0, Control_c, 9, 10, 64
12, 0, Control_c, 9, 93, 0
12, 0, Control_c, 9, 91, 40
12, 9600, Program_c, 9, 0
12, 9600, Control_c, 9, 93, 0
12, 9600, Control_c, 9, 91, 40
12, 9600, Control_c, 9, 10, 64
12, 9600, Control_c, 9, 7, 100
12, 9600, End_track
13, 0, Start_track
13, 0, MIDI_port, 0
13, 0, Title_t, "     Strings"
13, 0, Program_c, 10, 48
13, 0, Control_c, 10, 7, 105
13, 0, Control_c, 10, 10, 100
13, 0, Control_c, 10, 93, 0
13, 0, Control_c, 10, 91, 120
13, 480, Control_c, 10, 91, 120
13, 480, Note_on_c, 10, 51, 31
13, 535, Note_on_c, 10, 51, 0
13, 540, Note_on_c, 10, 51, 31
13, 595, Note_on_c, 10, 51, 0
13, 600, Note_on_c, 10, 51, 31
13, 655, Note_on_c, 10, 51, 0
13, 660, Note_on_c, 10, 51, 31
13, 715, Note_on_c, 10, 51, 0
13, 720, Note_on_c, 10, 46, 31
13, 775, Note_on_c, 10, 46, 0
13, 780, Note_on_c, 10, 46, 31
13, 835, Note_on_c, 10, 46, 0
13, 840, Note_on_c, 10, 46, 31
13, 895, Note_on_c, 10, 46, 0
13, 900, Note_on_c, 10, 46, 31
13, 955, Note_on_c, 10, 46, 0
13, 960, Note_on_c, 10, 46, 31
13, 1015, Note_on_c, 10, 46, 0
13, 1020, Note_on_c, 10, 46, 31
13, 1075, Note_on_c, 10, 46, 0
13, 1080, Note_on_c, 10, 46, 31
13, 1135, Note_on_c, 10, 46, 0
13, 1140, Note_on_c, 10, 46, 31
13, 1195, Note_on_c, 10, 46, 0
13, 1200, Note_on_c, 10, 51, 31
13, 1255, Note_on_c, 10, 51, 0
13, 1260, Note_on_c, 10, 51, 31
13, 1315, Note_on_c, 10, 51, 0
13, 1320, Note_on_c, 10, 51, 31
13, 1375, Note_on_c, 10, 51, 0
13, 1380, Note_on_c, 10, 51, 31
13, 1435, Note_on_c, 10, 51, 0
13, 1440, Note_on_c, 10, 50, 31
13, 1495, Note_on_c, 10, 50, 0
13, 1500, Note_on_c, 10, 50, 31
13, 1555, Note_on_c, 10, 50, 0
13, 1560, Note_on_c, 10, 50, 31
13, 1615, Note_on_c, 10, 50, 0
13, 1620, Note_on_c, 10, 50, 31
13, 1675, Note_on_c, 10, 50, 0
13, 1680, Note_on_c, 10, 48, 31
13, 1735, Note_on_c, 10, 48, 0
13, 1740, Note_on_c, 10, 48, 31
13, 1795, Note_on_c, 10, 48, 0
13, 1800, Note_on_c, 10, 48, 31
13, 1855, Note_on_c, 10, 48, 0
13, 1860, Note_on_c, 10, 48, 31
13, 1915, Note_on_c, 10, 48, 0
13, 1920, Note_on_c, 10, 46, 31
13, 1975, Note_on_c, 10, 46, 0
13, 1980, Note_on_c, 10, 46, 31
13, 2035, Note_on_c, 10, 46, 0
13, 2040, Note_on_c, 10, 46, 31
13, 2095, Note_on_c, 10, 46, 0
13, 2100, Note_on_c, 10, 46, 31
13, 2155, Note_on_c, 10, 46, 0
13, 2160, Note_on_c, 10, 44, 31
13, 2215, Note_on_c, 10, 44, 0
13, 2220, Note_on_c, 10, 44, 31
13, 2275, Note_on_c, 10, 44, 0
13, 2280, Note_on_c, 10, 45, 31
13, 2335, Note_on_c, 10, 45, 0
13, 2340, Note_on_c, 10, 45, 31
13, 2395, Note_on_c, 10, 45, 0
13, 2400, Note_on_c, 10, 46, 31
13, 2455, Note_on_c, 10, 46, 0
13, 2460, Note_on_c, 10, 46, 31
13, 2515, Note_on_c, 10, 46, 0
13, 2520, Note_on_c, 10, 46, 31
13, 2575, Note_on_c, 10, 46, 0
13, 2580, Note_on_c, 10, 46, 31
13, 2635, Note_on_c, 10, 46, 0
13, 2640, Note_on_c, 10, 46, 31
13, 2695, Note_on_c, 10, 46, 0
13, 2700, Note_on_c, 10, 46, 31
13, 2755, Note_on_c, 10, 46, 0
13, 2760, Note_on_c, 10, 46, 31
13, 2815, Note_on_c, 10, 46, 0
13, 2820, Note_on_c, 10, 46, 31
13, 2875, Note_on_c, 10, 46, 0
13, 2880, Note_on_c, 10, 51, 31
13, 2935, Note_on_c, 10, 51, 0
13, 2940, Note_on_c, 10, 51, 31
13, 2995, Note_on_c, 10, 51, 0
13, 3000, Note_on_c, 10, 51, 31
13, 3055, Note_on_c, 10, 51, 0
13, 3060, Note_on_c, 10, 51, 31
13, 3115, Note_on_c, 10, 51, 0
13, 3120, Note_on_c, 10, 51, 31
13, 3175, Note_on_c, 10, 51, 0
13, 3180, Note_on_c, 10, 51, 31
13, 3235, Note_on_c, 10, 51, 0
13, 3240, Note_on_c, 10, 51, 31
13, 3295, Note_on_c, 10, 51, 0
13, 3300, Note_on_c, 10, 51, 31
13, 3355, Note_on_c, 10, 51, 0
13, 3360, Note_on_c, 10, 46, 31
13, 3415, Note_on_c, 10, 46, 0
13, 3420, Note_on_c, 10, 46, 31
13, 3475, Note_on_c, 10, 46, 0
13, 3480, Note_on_c, 10, 46, 31
13, 3535, Note_on_c, 10, 46, 0
13, 3540, Note_on_c, 10, 46, 31
13, 3595, Note_on_c, 10, 46, 0
13, 3600, Note_on_c, 10, 41, 31
13, 3655, Note_on_c, 10, 41, 0
13, 3660, Note_on_c, 10, 41, 31
13, 3715, Note_on_c, 10, 41, 0
13, 3720, Note_on_c, 10, 41, 31
13, 3775, Note_on_c, 10, 41, 0
13, 3780, Note_on_c, 10, 41, 31
13, 3835, Note_on_c, 10, 41, 0
13, 3840, Note_on_c, 10, 41, 31
13, 3895, Note_on_c, 10, 41, 0
13, 3900, Note_on_c, 10, 41, 31
13, 3955, Note_on_c, 10, 41, 0
13, 3960, Note_on_c, 10, 41, 31
13, 4015, Note_on_c, 10, 41, 0
13, 4020, Note_on_c, 10, 41, 31
13, 4075, Note_on_c, 10, 41, 0
13, 4080, Note_on_c, 10, 46, 31
13, 4135, Note_on_c, 10, 46, 0
13, 4140, Note_on_c, 10, 46, 31
13, 4195, Note_on_c, 10, 46, 0
13, 4200, Note_on_c, 10, 46, 31
13, 4255, Note_on_c, 10, 46, 0
13, 4260, Note_on_c, 10, 46, 31
13, 4315, Note_on_c, 10, 46, 0
13, 4320, Note_on_c, 10, 46, 31
13, 4375, Note_on_c, 10, 46, 0
13, 4380, Note_on_c, 10, 46, 31
13, 4435, Note_on_c, 10, 46, 0
13, 4440, Note_on_c, 10, 46, 31
13, 4495, Note_on_c, 10, 46, 0
13, 4500, Note_on_c, 10, 46, 31
13, 4555, Note_on_c, 10, 46, 0
13, 4560, Note_on_c, 10, 41, 31
13, 4615, Note_on_c, 10, 41, 0
13, 4620, Note_on_c, 10, 41, 31
13, 4675, Note_on_c, 10, 41, 0
13, 4680, Note_on_c, 10, 41, 31
13, 4735, Note_on_c, 10, 41, 0
13, 4740, Note_on_c, 10, 41, 31
13, 4795, Note_on_c, 10, 41, 0
13, 4800, Note_on_c, 10, 41, 31
13, 4855, Note_on_c, 10, 41, 0
13, 4860, Note_on_c, 10, 41, 31
13, 4915, Note_on_c, 10, 41, 0
13, 4920, Note_on_c, 10, 41, 31
13, 4975, Note_on_c, 10, 41, 0
13, 4980, Note_on_c, 10, 41, 31
13, 5035, Note_on_c, 10, 41, 0
13, 5040, Note_on_c, 10, 46, 31
13, 5095, Note_on_c, 10, 46, 0
13, 5100, Note_on_c, 10, 46, 31
13, 5155, Note_on_c, 10, 46, 0
13, 5160, Note_on_c, 10, 46, 31
13, 5215, Note_on_c, 10, 46, 0
13, 5220, Note_on_c, 10, 46, 31
13, 5275, Note_on_c, 10, 46, 0
13, 5280, Note_on_c, 10, 46, 31
13, 5335, Note_on_c, 10, 46, 0
13, 5340, Note_on_c, 10, 46, 31
13, 5395, Note_on_c, 10, 46, 0
13, 5400, Note_on_c, 10, 46, 31
13, 5455, Note_on_c, 10, 46, 0
13, 5460, Note_on_c, 10, 46, 31
13, 5515, Note_on_c, 10, 46, 0
13, 5520, Note_on_c, 10, 51, 31
13, 5575, Note_on_c, 10, 51, 0
13, 5580, Note_on_c, 10, 51, 31
13, 5635, Note_on_c, 10, 51, 0
13, 5640, Note_on_c, 10, 51, 31
13, 5695, Note_on_c, 10, 51, 0
13, 5700, Note_on_c, 10, 51, 31
13, 5755, Note_on_c, 10, 51, 0
13, 5760, Note_on_c, 10, 44, 31
13, 5815, Note_on_c, 10, 44, 0
13, 5820, Note_on_c, 10, 44, 31
13, 5875, Note_on_c, 10, 44, 0
13, 5880, Note_on_c, 10, 44, 31
13, 5935, Note_on_c, 10, 44, 0
13, 5940, Note_on_c, 10, 44, 31
13, 5995, Note_on_c, 10, 44, 0
13, 6000, Note_on_c, 10, 46, 31
13, 6055, Note_on_c, 10, 46, 0
13, 6060, Note_on_c, 10, 46, 31
13, 6115, Note_on_c, 10, 46, 0
13, 6120, Note_on_c, 10, 46, 31
13, 6175, Note_on_c, 10, 46, 0
13, 6180, Note_on_c, 10, 46, 31
13, 6235, Note_on_c, 10, 46, 0
13, 6240, Note_on_c, 10, 48, 31
13, 6295, Note_on_c, 10, 48, 0
13, 6300, Note_on_c, 10, 48, 31
13, 6355, Note_on_c, 10, 48, 0
13, 6360, Note_on_c, 10, 48, 31
13, 6415, Note_on_c, 10, 48, 0
13, 6420, Note_on_c, 10, 48, 31
13, 6475, Note_on_c, 10, 48, 0
13, 6480, Note_on_c, 10, 46, 31
13, 6535, Note_on_c, 10, 46, 0
13, 6540, Note_on_c, 10, 46, 31
13, 6595, Note_on_c, 10, 46, 0
13, 6600, Note_on_c, 10, 46, 31
13, 6655, Note_on_c, 10, 46, 0
13, 6660, Note_on_c, 10, 46, 31
13, 6715, Note_on_c, 10, 46, 0
13, 6720, Note_on_c, 10, 46, 31
13, 6775, Note_on_c, 10, 46, 0
13, 6780, Note_on_c, 10, 46, 31
13, 6835, Note_on_c, 10, 46, 0
13, 6840, Note_on_c, 10, 46, 31
13, 6895, Note_on_c, 10, 46, 0
13, 6900, Note_on_c, 10, 46, 31
13, 6955, Note_on_c, 10, 46, 0
13, 6960, Note_on_c, 10, 46, 31
13, 7015, Note_on_c, 10, 46, 0
13, 7020, Note_on_c, 10, 46, 31
13, 7075, Note_on_c, 10, 46, 0
13, 7080, Note_on_c, 10, 46, 31
13, 7135, Note_on_c, 10, 46, 0
13, 7140, Note_on_c, 10, 46, 31
13, 7195, Note_on_c, 10, 46, 0
13, 7200, Note_on_c, 10, 46, 31
13, 7255, Note_on_c, 10, 46, 0
13, 7260, Note_on_c, 10, 46, 31
13, 7315, Note_on_c, 10, 46, 0
13, 7320, Note_on_c, 10, 46, 31
13, 7375, Note_on_c, 10, 46, 0
13, 7380, Note_on_c, 10, 46, 31
13, 7435, Note_on_c, 10, 46, 0
13, 7440, Note_on_c, 10, 46, 31
13, 7495, Note_on_c, 10, 46, 0
13, 7500, Note_on_c, 10, 46, 31
13, 7555, Note_on_c, 10, 46, 0
13, 7560, Note_on_c, 10, 46, 31
13, 7615, Note_on_c, 10, 46, 0
13, 7620, Note_on_c, 10, 46, 31
13, 7675, Note_on_c, 10, 46, 0
13, 7680, Note_on_c, 10, 39, 31
13, 7735, Note_on_c, 10, 39, 0
13, 7740, Note_on_c, 10, 39, 31
13, 7795, Note_on_c, 10, 39, 0
13, 7800, Note_on_c, 10, 46, 31
13, 7855, Note_on_c, 10, 46, 0
13, 7860, Note_on_c, 10, 46, 31
13, 7915, Note_on_c, 10, 46, 0
13, 7920, Note_on_c, 10, 39, 31
13, 7975, Note_on_c, 10, 39, 0
13, 7980, Note_on_c, 10, 39, 31
13, 8035, Note_on_c, 10, 39, 0
13, 8040, Note_on_c, 10, 39, 31
13, 8095, Note_on_c, 10, 39, 0
13, 8100, Note_on_c, 10, 39, 31
13, 8155, Note_on_c, 10, 39, 0
13, 8160, Note_on_c, 10, 39, 31
13, 8215, Note_on_c, 10, 39, 0
13, 8220, Note_on_c, 10, 39, 31
13, 8275, Note_on_c, 10, 39, 0
13, 8280, Note_on_c, 10, 39, 31
13, 8335, Note_on_c, 10, 39, 0
13, 8340, Note_on_c, 10, 39, 31
13, 8395, Note_on_c, 10, 39, 0
13, 8400, Note_on_c, 10, 39, 31
13, 8455, Note_on_c, 10, 39, 0
13, 8460, Note_on_c, 10, 39, 31
13, 8515, Note_on_c, 10, 39, 0
13, 8520, Note_on_c, 10, 39, 31
13, 8575, Note_on_c, 10, 39, 0
13, 8580, Note_on_c, 10, 39, 31
13, 8635, Note_on_c, 10, 39, 0
13, 8640, Note_on_c, 10, 39, 31
13, 9120, Note_on_c, 10, 39, 0
13, 9120, Control_c, 10, 6, 64
13, 9120, Control_c, 10, 91, 40
13, 9120, Control_c, 10, 93, 0
13, 9121, Text_t, "Non Registered Parameter Numbers"
13, 9122, Text_t, "For Roland SC-55 Vibrato"
13, 9123, Text_t, "It is always elegant programming"
13, 9124, Text_t, "practice to put system variables back"
13, 9125, Text_t, "to the way you found them."
13, 9126, Text_t, "I.E.  Return all these NRPN numbers"
13, 9127, Text_t, "back to default, so the next piece"
13, 9128, Text_t, "that is played isn't messed up by "
13, 9129, Text_t, "parameters for this piece."
13, 9130, Text_t, "Set up NRPN for Vibrate Rate"
13, 9132, Control_c, 10, 99, 1
13, 9133, Control_c, 10, 98, 8
13, 9134, Text_t, "Data Entry Command"
13, 9135, Control_c, 10, 6, 64
13, 9136, Text_t, "Set up NRPN for Vibrate Delay"
13, 9137, Control_c, 10, 99, 1
13, 9138, Control_c, 10, 98, 10
13, 9139, Text_t, "Data Entry Command"
13, 9140, Control_c, 10, 6, 64
13, 9141, Text_t, "Set up NRPN for Vibrate Depth"
13, 9142, Control_c, 10, 99, 1
13, 9143, Control_c, 10, 98, 9
13, 9144, Text_t, "Data Entry Command"
13, 9145, Control_c, 10, 6, 64
13, 9600, Program_c, 10, 0
13, 9600, Control_c, 10, 93, 0
13, 9600, Control_c, 10, 91, 40
13, 9600, Control_c, 10, 10, 64
13, 9600, Control_c, 10, 7, 100
13, 9600, End_track
14, 0, Start_track
14, 0, MIDI_port, 0
14, 0, Title_t, "     Strings"
14, 0, Program_c, 11, 48
14, 0, Control_c, 11, 7, 105
14, 0, Control_c, 11, 10, 40
14, 0, Control_c, 11, 93, 0
14, 0, Control_c, 11, 91, 120
14, 480, Control_c, 11, 91, 120
14, 480, Note_on_c, 11, 51, 31
14, 535, Note_on_c, 11, 51, 0
14, 540, Note_on_c, 11, 51, 31
14, 595, Note_on_c, 11, 51, 0
14, 600, Note_on_c, 11, 51, 31
14, 655, Note_on_c, 11, 51, 0
14, 660, Note_on_c, 11, 51, 31
14, 715, Note_on_c, 11, 51, 0
14, 720, Note_on_c, 11, 46, 31
14, 775, Note_on_c, 11, 46, 0
14, 780, Note_on_c, 11, 46, 31
14, 835, Note_on_c, 11, 46, 0
14, 840, Note_on_c, 11, 46, 31
14, 895, Note_on_c, 11, 46, 0
14, 900, Note_on_c, 11, 46, 31
14, 955, Note_on_c, 11, 46, 0
14, 960, Note_on_c, 11, 46, 31
14, 1015, Note_on_c, 11, 46, 0
14, 1020, Note_on_c, 11, 46, 31
14, 1075, Note_on_c, 11, 46, 0
14, 1080, Note_on_c, 11, 46, 31
14, 1135, Note_on_c, 11, 46, 0
14, 1140, Note_on_c, 11, 46, 31
14, 1195, Note_on_c, 11, 46, 0
14, 1200, Note_on_c, 11, 51, 31
14, 1255, Note_on_c, 11, 51, 0
14, 1260, Note_on_c, 11, 51, 31
14, 1315, Note_on_c, 11, 51, 0
14, 1320, Note_on_c, 11, 51, 31
14, 1375, Note_on_c, 11, 51, 0
14, 1380, Note_on_c, 11, 51, 31
14, 1435, Note_on_c, 11, 51, 0
14, 1440, Note_on_c, 11, 50, 31
14, 1495, Note_on_c, 11, 50, 0
14, 1500, Note_on_c, 11, 50, 31
14, 1555, Note_on_c, 11, 50, 0
14, 1560, Note_on_c, 11, 50, 31
14, 1615, Note_on_c, 11, 50, 0
14, 1620, Note_on_c, 11, 50, 31
14, 1675, Note_on_c, 11, 50, 0
14, 1680, Note_on_c, 11, 48, 31
14, 1735, Note_on_c, 11, 48, 0
14, 1740, Note_on_c, 11, 48, 31
14, 1795, Note_on_c, 11, 48, 0
14, 1800, Note_on_c, 11, 48, 31
14, 1855, Note_on_c, 11, 48, 0
14, 1860, Note_on_c, 11, 48, 31
14, 1915, Note_on_c, 11, 48, 0
14, 1920, Note_on_c, 11, 46, 31
14, 1975, Note_on_c, 11, 46, 0
14, 1980, Note_on_c, 11, 46, 31
14, 2035, Note_on_c, 11, 46, 0
14, 2040, Note_on_c, 11, 46, 31
14, 2095, Note_on_c, 11, 46, 0
14, 2100, Note_on_c, 11, 46, 31
14, 2155, Note_on_c, 11, 46, 0
14, 2160, Note_on_c, 11, 44, 31
14, 2215, Note_on_c, 11, 44, 0
14, 2220, Note_on_c, 11, 44, 31
14, 2275, Note_on_c, 11, 44, 0
14, 2280, Note_on_c, 11, 45, 31
14, 2335, Note_on_c, 11, 45, 0
14, 2340, Note_on_c, 11, 45, 31
14, 2395, Note_on_c, 11, 45, 0
14, 2400, Note_on_c, 11, 46, 31
14, 2455, Note_on_c, 11, 46, 0
14, 2460, Note_on_c, 11, 46, 31
14, 2515, Note_on_c, 11, 46, 0
14, 2520, Note_on_c, 11, 46, 31
14, 2575, Note_on_c, 11, 46, 0
14, 2580, Note_on_c, 11, 46, 31
14, 2635, Note_on_c, 11, 46, 0
14, 2640, Note_on_c, 11, 46, 31
14, 2695, Note_on_c, 11, 46, 0
14, 2700, Note_on_c, 11, 46, 31
14, 2755, Note_on_c, 11, 46, 0
14, 2760, Note_on_c, 11, 46, 31
14, 2815, Note_on_c, 11, 46, 0
14, 2820, Note_on_c, 11, 46, 31
14, 2875, Note_on_c, 11, 46, 0
14, 2880, Note_on_c, 11, 51, 31
14, 2935, Note_on_c, 11, 51, 0
14, 2940, Note_on_c, 11, 51, 31
14, 2995, Note_on_c, 11, 51, 0
14, 3000, Note_on_c, 11, 51, 31
14, 3055, Note_on_c, 11, 51, 0
14, 3060, Note_on_c, 11, 51, 31
14, 3115, Note_on_c, 11, 51, 0
14, 3120, Note_on_c, 11, 51, 31
14, 3175, Note_on_c, 11, 51, 0
14, 3180, Note_on_c, 11, 51, 31
14, 3235, Note_on_c, 11, 51, 0
14, 3240, Note_on_c, 11, 51, 31
14, 3295, Note_on_c, 11, 51, 0
14, 3300, Note_on_c, 11, 51, 31
14, 3355, Note_on_c, 11, 51, 0
14, 3360, Note_on_c, 11, 46, 31
14, 3415, Note_on_c, 11, 46, 0
14, 3420, Note_on_c, 11, 46, 31
14, 3475, Note_on_c, 11, 46, 0
14, 3480, Note_on_c, 11, 46, 31
14, 3535, Note_on_c, 11, 46, 0
14, 3540, Note_on_c, 11, 46, 31
14, 3595, Note_on_c, 11, 46, 0
14, 3600, Note_on_c, 11, 41, 31
14, 3655, Note_on_c, 11, 41, 0
14, 3660, Note_on_c, 11, 41, 31
14, 3715, Note_on_c, 11, 41, 0
14, 3720, Note_on_c, 11, 41, 31
14, 3775, Note_on_c, 11, 41, 0
14, 3780, Note_on_c, 11, 41, 31
14, 3835, Note_on_c, 11, 41, 0
14, 3840, Note_on_c, 11, 41, 31
14, 3895, Note_on_c, 11, 41, 0
14, 3900, Note_on_c, 11, 41, 31
14, 3955, Note_on_c, 11, 41, 0
14, 3960, Note_on_c, 11, 41, 31
14, 4015, Note_on_c, 11, 41, 0
14, 4020, Note_on_c, 11, 41, 31
14, 4075, Note_on_c, 11, 41, 0
14, 4080, Note_on_c, 11, 46, 31
14, 4135, Note_on_c, 11, 46, 0
14, 4140, Note_on_c, 11, 46, 31
14, 4195, Note_on_c, 11, 46, 0
14, 4200, Note_on_c, 11, 46, 31
14, 4255, Note_on_c, 11, 46, 0
14, 4260, Note_on_c, 11, 46, 31
14, 4315, Note_on_c, 11, 46, 0
14, 4320, Note_on_c, 11, 46, 31
14, 4375, Note_on_c, 11, 46, 0
14, 4380, Note_on_c, 11, 46, 31
14, 4435, Note_on_c, 11, 46, 0
14, 4440, Note_on_c, 11, 46, 31
14, 4495, Note_on_c, 11, 46, 0
14, 4500, Note_on_c, 11, 46, 31
14, 4555, Note_on_c, 11, 46, 0
14, 4560, Note_on_c, 11, 41, 31
14, 4615, Note_on_c, 11, 41, 0
14, 4620, Note_on_c, 11, 41, 31
14, 4675, Note_on_c, 11, 41, 0
14, 4680, Note_on_c, 11, 41, 31
14, 4735, Note_on_c, 11, 41, 0
14, 4740, Note_on_c, 11, 41, 31
14, 4795, Note_on_c, 11, 41, 0
14, 4800, Note_on_c, 11, 41, 31
14, 4855, Note_on_c, 11, 41, 0
14, 4860, Note_on_c, 11, 41, 31
14, 4915, Note_on_c, 11, 41, 0
14, 4920, Note_on_c, 11, 41, 31
14, 4975, Note_on_c, 11, 41, 0
14, 4980, Note_on_c, 11, 41, 31
14, 5035, Note_on_c, 11, 41, 0
14, 5040, Note_on_c, 11, 46, 31
14, 5095, Note_on_c, 11, 46, 0
14, 5100, Note_on_c, 11, 46, 31
14, 5155, Note_on_c, 11, 46, 0
14, 5160, Note_on_c, 11, 46, 31
14, 5215, Note_on_c, 11, 46, 0
14, 5220, Note_on_c, 11, 46, 31
14, 5275, Note_on_c, 11, 46, 0
14, 5280, Note_on_c, 11, 46, 31
14, 5335, Note_on_c, 11, 46, 0
14, 5340, Note_on_c, 11, 46, 31
14, 5395, Note_on_c, 11, 46, 0
14, 5400, Note_on_c, 11, 46, 31
14, 5455, Note_on_c, 11, 46, 0
14, 5460, Note_on_c, 11, 46, 31
14, 5515, Note_on_c, 11, 46, 0
14, 5520, Note_on_c, 11, 51, 31
14, 5575, Note_on_c, 11, 51, 0
14, 5580, Note_on_c, 11, 51, 31
14, 5635, Note_on_c, 11, 51, 0
14, 5640, Note_on_c, 11, 51, 31
14, 5695, Note_on_c, 11, 51, 0
14, 5700, Note_on_c, 11, 51, 31
14, 5755, Note_on_c, 11, 51, 0
14, 5760, Note_on_c, 11, 44, 31
14, 5815, Note_on_c, 11, 44, 0
14, 5820, Note_on_c, 11, 44, 31
14, 5875, Note_on_c, 11, 44, 0
14, 5880, Note_on_c, 11, 44, 31
14, 5935, Note_on_c, 11, 44, 0
14, 5940, Note_on_c, 11, 44, 31
14, 5995, Note_on_c, 11, 44, 0
14, 6000, Note_on_c, 11, 46, 31
14, 6055, Note_on_c, 11, 46, 0
14, 6060, Note_on_c, 11, 46, 31
14, 6115, Note_on_c, 11, 46, 0
14, 6120, Note_on_c, 11, 46, 31
14, 6175, Note_on_c, 11, 46, 0
14, 6180, Note_on_c, 11, 46, 31
14, 6235, Note_on_c, 11, 46, 0
14, 6240, Note_on_c, 11, 48, 31
14, 6295, Note_on_c, 11, 48, 0
14, 6300, Note_on_c, 11, 48, 31
14, 6355, Note_on_c, 11, 48, 0
14, 6360, Note_on_c, 11, 48, 31
14, 6415, Note_on_c, 11, 48, 0
14, 6420, Note_on_c, 11, 48, 31
14, 6475, Note_on_c, 11, 48, 0
14, 6480, Note_on_c, 11, 46, 31
14, 6535, Note_on_c, 11, 46, 0
14, 6540, Note_on_c, 11, 46, 31
14, 6595, Note_on_c, 11, 46, 0
14, 6600, Note_on_c, 11, 46, 31
14, 6655, Note_on_c, 11, 46, 0
14, 6660, Note_on_c, 11, 46, 31
14, 6715, Note_on_c, 11, 46, 0
14, 6720, Note_on_c, 11, 46, 31
14, 6775, Note_on_c, 11, 46, 0
14, 6780, Note_on_c, 11, 46, 31
14, 6835, Note_on_c, 11, 46, 0
14, 6840, Note_on_c, 11, 46, 31
14, 6895, Note_on_c, 11, 46, 0
14, 6900, Note_on_c, 11, 46, 31
14, 6955, Note_on_c, 11, 46, 0
14, 6960, Note_on_c, 11, 46, 31
14, 7015, Note_on_c, 11, 46, 0
14, 7020, Note_on_c, 11, 46, 31
14, 7075, Note_on_c, 11, 46, 0
14, 7080, Note_on_c, 11, 46, 31
14, 7135, Note_on_c, 11, 46, 0
14, 7140, Note_on_c, 11, 46, 31
14, 7195, Note_on_c, 11, 46, 0
14, 7200, Note_on_c, 11, 46, 31
14, 7255, Note_on_c, 11, 46, 0
14, 7260, Note_on_c, 11, 46, 31
14, 7315, Note_on_c, 11, 46, 0
14, 7320, Note_on_c, 11, 46, 31
14, 7375, Note_on_c, 11, 46, 0
14, 7380, Note_on_c, 11, 46, 31
14, 7435, Note_on_c, 11, 46, 0
14, 7440, Note_on_c, 11, 46, 31
14, 7495, Note_on_c, 11, 46, 0
14, 7500, Note_on_c, 11, 46, 31
14, 7555, Note_on_c, 11, 46, 0
14, 7560, Note_on_c, 11, 46, 31
14, 7615, Note_on_c, 11, 46, 0
14, 7620, Note_on_c, 11, 46, 31
14, 7675, Note_on_c, 11, 46, 0
14, 7680, Note_on_c, 11, 39, 31
14, 7735, Note_on_c, 11, 39, 0
14, 7740, Note_on_c, 11, 39, 31
14, 7795, Note_on_c, 11, 39, 0
14, 7800, Note_on_c, 11, 46, 31
14, 7855, Note_on_c, 11, 46, 0
14, 7860, Note_on_c, 11, 46, 31
14, 7915, Note_on_c, 11, 46, 0
14, 7920, Note_on_c, 11, 39, 31
14, 7975, Note_on_c, 11, 39, 0
14, 7980, Note_on_c, 11, 39, 31
14, 8035, Note_on_c, 11, 39, 0
14, 8040, Note_on_c, 11, 39, 31
14, 8095, Note_on_c, 11, 39, 0
14, 8100, Note_on_c, 11, 39, 31
14, 8155, Note_on_c, 11, 39, 0
14, 8160, Note_on_c, 11, 39, 31
14, 8215, Note_on_c, 11, 39, 0
14, 8220, Note_on_c, 11, 39, 31
14, 8275, Note_on_c, 11, 39, 0
14, 8280, Note_on_c, 11, 39, 31
14, 8335, Note_on_c, 11, 39, 0
14, 8340, Note_on_c, 11, 39, 31
14, 8395, Note_on_c, 11, 39, 0
14, 8400, Note_on_c, 11, 39, 31
14, 8455, Note_on_c, 11, 39, 0
14, 8460, Note_on_c, 11, 39, 31
14, 8515, Note_on_c, 11, 39, 0
14, 8520, Note_on_c, 11, 39, 31
14, 8575, Note_on_c, 11, 39, 0
14, 8580, Note_on_c, 11, 39, 31
14, 8635, Note_on_c, 11, 39, 0
14, 8640, Note_on_c, 11, 39, 31
14, 9120, Note_on_c, 11, 39, 0
14, 9120, Control_c, 11, 6, 64
14, 9120, Control_c, 11, 91, 40
14, 9120, Control_c, 11, 93, 0
14, 9121, Text_t, "Non Registered Parameter Numbers"
14, 9122, Text_t, "For Roland SC-55 Vibrato"
14, 9123, Text_t, "It is always elegant programming"
14, 9124, Text_t, "practice to put system variables back"
14, 9125, Text_t, "to the way you found them."
14, 9126, Text_t, "I.E.  Return all these NRPN numbers"
14, 9127, Text_t, "back to default, so the next piece"
14, 9128, Text_t, "that is played isn't messed up by "
14, 9129, Text_t, "parameters for this piece."
14, 9130, Text_t, "Set up NRPN for Vibrate Rate"
14, 9132, Control_c, 11, 99, 1
14, 9133, Control_c, 11, 98, 8
14, 9134, Text_t, "Data Entry Command"
14, 9135, Control_c, 11, 6, 64
14, 9136, Text_t, "Set up NRPN for Vibrate Delay"
14, 9137, Control_c, 11, 99, 1
14, 9138, Control_c, 11, 98, 10
14, 9139, Text_t, "Data Entry Command"
14, 9140, Control_c, 11, 6, 64
14, 9141, Text_t, "Set up NRPN for Vibrate Depth"
14, 9142, Control_c, 11, 99, 1
14, 9143, Control_c, 11, 98, 9
14, 9144, Text_t, "Data Entry Command"
14, 9145, Control_c, 11, 6, 64
14, 9600, Program_c, 11, 0
14, 9600, Control_c, 11, 93, 0
14, 9600, Control_c, 11, 91, 40
14, 9600, Control_c, 11, 10, 64
14, 9600, Control_c, 11, 7, 100
14, 9600, End_track
15, 0, Start_track
15, 0, MIDI_port, 0
15, 0, Title_t, "Contrabass"
15, 0, Program_c, 12, 43
15, 0, Control_c, 12, 7, 65
15, 0, Control_c, 12, 10, 64
15, 0, Control_c, 12, 93, 0
15, 0, Control_c, 12, 91, 120
15, 480, Control_c, 12, 91, 120
15, 480, Note_on_c, 12, 39, 31
15, 535, Note_on_c, 12, 39, 0
15, 540, Note_on_c, 12, 39, 31
15, 595, Note_on_c, 12, 39, 0
15, 600, Note_on_c, 12, 39, 31
15, 655, Note_on_c, 12, 39, 0
15, 660, Note_on_c, 12, 39, 31
15, 715, Note_on_c, 12, 39, 0
15, 720, Note_on_c, 12, 34, 31
15, 775, Note_on_c, 12, 34, 0
15, 780, Note_on_c, 12, 34, 31
15, 835, Note_on_c, 12, 34, 0
15, 840, Note_on_c, 12, 34, 31
15, 895, Note_on_c, 12, 34, 0
15, 900, Note_on_c, 12, 34, 31
15, 955, Note_on_c, 12, 34, 0
15, 960, Note_on_c, 12, 34, 31
15, 1015, Note_on_c, 12, 34, 0
15, 1020, Note_on_c, 12, 34, 31
15, 1075, Note_on_c, 12, 34, 0
15, 1080, Note_on_c, 12, 34, 31
15, 1135, Note_on_c, 12, 34, 0
15, 1140, Note_on_c, 12, 34, 31
15, 1195, Note_on_c, 12, 34, 0
15, 1200, Note_on_c, 12, 39, 31
15, 1255, Note_on_c, 12, 39, 0
15, 1260, Note_on_c, 12, 39, 31
15, 1315, Note_on_c, 12, 39, 0
15, 1320, Note_on_c, 12, 39, 31
15, 1375, Note_on_c, 12, 39, 0
15, 1380, Note_on_c, 12, 39, 31
15, 1435, Note_on_c, 12, 39, 0
15, 1440, Note_on_c, 12, 38, 31
15, 1495, Note_on_c, 12, 38, 0
15, 1500, Note_on_c, 12, 38, 31
15, 1555, Note_on_c, 12, 38, 0
15, 1560, Note_on_c, 12, 38, 31
15, 1615, Note_on_c, 12, 38, 0
15, 1620, Note_on_c, 12, 38, 31
15, 1675, Note_on_c, 12, 38, 0
15, 1680, Note_on_c, 12, 36, 31
15, 1735, Note_on_c, 12, 36, 0
15, 1740, Note_on_c, 12, 36, 31
15, 1795, Note_on_c, 12, 36, 0
15, 1800, Note_on_c, 12, 36, 31
15, 1855, Note_on_c, 12, 36, 0
15, 1860, Note_on_c, 12, 36, 31
15, 1915, Note_on_c, 12, 36, 0
15, 1920, Note_on_c, 12, 34, 31
15, 1975, Note_on_c, 12, 34, 0
15, 1980, Note_on_c, 12, 34, 31
15, 2035, Note_on_c, 12, 34, 0
15, 2040, Note_on_c, 12, 34, 31
15, 2095, Note_on_c, 12, 34, 0
15, 2100, Note_on_c, 12, 34, 31
15, 2155, Note_on_c, 12, 34, 0
15, 2160, Note_on_c, 12, 32, 31
15, 2215, Note_on_c, 12, 32, 0
15, 2220, Note_on_c, 12, 32, 31
15, 2275, Note_on_c, 12, 32, 0
15, 2280, Note_on_c, 12, 33, 31
15, 2335, Note_on_c, 12, 33, 0
15, 2340, Note_on_c, 12, 33, 31
15, 2395, Note_on_c, 12, 33, 0
15, 2400, Note_on_c, 12, 34, 31
15, 2455, Note_on_c, 12, 34, 0
15, 2460, Note_on_c, 12, 34, 31
15, 2515, Note_on_c, 12, 34, 0
15, 2520, Note_on_c, 12, 34, 31
15, 2575, Note_on_c, 12, 34, 0
15, 2580, Note_on_c, 12, 34, 31
15, 2635, Note_on_c, 12, 34, 0
15, 2640, Note_on_c, 12, 34, 31
15, 2695, Note_on_c, 12, 34, 0
15, 2700, Note_on_c, 12, 34, 31
15, 2755, Note_on_c, 12, 34, 0
15, 2760, Note_on_c, 12, 34, 31
15, 2815, Note_on_c, 12, 34, 0
15, 2820, Note_on_c, 12, 34, 31
15, 2875, Note_on_c, 12, 34, 0
15, 2880, Note_on_c, 12, 39, 31
15, 2935, Note_on_c, 12, 39, 0
15, 2940, Note_on_c, 12, 39, 31
15, 2995, Note_on_c, 12, 39, 0
15, 3000, Note_on_c, 12, 39, 31
15, 3055, Note_on_c, 12, 39, 0
15, 3060, Note_on_c, 12, 39, 31
15, 3115, Note_on_c, 12, 39, 0
15, 3120, Note_on_c, 12, 39, 31
15, 3175, Note_on_c, 12, 39, 0
15, 3180, Note_on_c, 12, 39, 31
15, 3235, Note_on_c, 12, 39, 0
15, 3240, Note_on_c, 12, 39, 31
15, 3295, Note_on_c, 12, 39, 0
15, 3300, Note_on_c, 12, 39, 31
15, 3355, Note_on_c, 12, 39, 0
15, 3360, Note_on_c, 12, 34, 31
15, 3415, Note_on_c, 12, 34, 0
15, 3420, Note_on_c, 12, 34, 31
15, 3475, Note_on_c, 12, 34, 0
15, 3480, Note_on_c, 12, 34, 31
15, 3535, Note_on_c, 12, 34, 0
15, 3540, Note_on_c, 12, 34, 31
15, 3595, Note_on_c, 12, 34, 0
15, 3600, Note_on_c, 12, 29, 31
15, 3655, Note_on_c, 12, 29, 0
15, 3660, Note_on_c, 12, 29, 31
15, 3715, Note_on_c, 12, 29, 0
15, 3720, Note_on_c, 12, 29, 31
15, 3775, Note_on_c, 12, 29, 0
15, 3780, Note_on_c, 12, 29, 31
15, 3835, Note_on_c, 12, 29, 0
15, 3840, Note_on_c, 12, 29, 31
15, 3895, Note_on_c, 12, 29, 0
15, 3900, Note_on_c, 12, 29, 31
15, 3955, Note_on_c, 12, 29, 0
15, 3960, Note_on_c, 12, 29, 31
15, 4015, Note_on_c, 12, 29, 0
15, 4020, Note_on_c, 12, 29, 31
15, 4075, Note_on_c, 12, 29, 0
15, 4080, Note_on_c, 12, 34, 31
15, 4135, Note_on_c, 12, 34, 0
15, 4140, Note_on_c, 12, 34, 31
15, 4195, Note_on_c, 12, 34, 0
15, 4200, Note_on_c, 12, 34, 31
15, 4255, Note_on_c, 12, 34, 0
15, 4260, Note_on_c, 12, 34, 31
15, 4315, Note_on_c, 12, 34, 0
15, 4320, Note_on_c, 12, 34, 31
15, 4375, Note_on_c, 12, 34, 0
15, 4380, Note_on_c, 12, 34, 31
15, 4435, Note_on_c, 12, 34, 0
15, 4440, Note_on_c, 12, 34, 31
15, 4495, Note_on_c, 12, 34, 0
15, 4500, Note_on_c, 12, 34, 31
15, 4555, Note_on_c, 12, 34, 0
15, 4560, Note_on_c, 12, 29, 31
15, 4615, Note_on_c, 12, 29, 0
15, 4620, Note_on_c, 12, 29, 31
15, 4675, Note_on_c, 12, 29, 0
15, 4680, Note_on_c, 12, 29, 31
15, 4735, Note_on_c, 12, 29, 0
15, 4740, Note_on_c, 12, 29, 31
15, 4795, Note_on_c, 12, 29, 0
15, 4800, Note_on_c, 12, 29, 31
15, 4855, Note_on_c, 12, 29, 0
15, 4860, Note_on_c, 12, 29, 31
15, 4915, Note_on_c, 12, 29, 0
15, 4920, Note_on_c, 12, 29, 31
15, 4975, Note_on_c, 12, 29, 0
15, 4980, Note_on_c, 12, 29, 31
15, 5035, Note_on_c, 12, 29, 0
15, 5040, Note_on_c, 12, 34, 31
15, 5095, Note_on_c, 12, 34, 0
15, 5100, Note_on_c, 12, 34, 31
15, 5155, Note_on_c, 12, 34, 0
15, 5160, Note_on_c, 12, 34, 31
15, 5215, Note_on_c, 12, 34, 0
15, 5220, Note_on_c, 12, 34, 31
15, 5275, Note_on_c, 12, 34, 0
15, 5280, Note_on_c, 12, 34, 31
15, 5335, Note_on_c, 12, 34, 0
15, 5340, Note_on_c, 12, 34, 31
15, 5395, Note_on_c, 12, 34, 0
15, 5400, Note_on_c, 12, 34, 31
15, 5455, Note_on_c, 12, 34, 0
15, 5460, Note_on_c, 12, 34, 31
15, 5515, Note_on_c, 12, 34, 0
15, 5520, Note_on_c, 12, 39, 31
15, 5575, Note_on_c, 12, 39, 0
15, 5580, Note_on_c, 12, 39, 31
15, 5635, Note_on_c, 12, 39, 0
15, 5640, Note_on_c, 12, 39, 31
15, 5695, Note_on_c, 12, 39, 0
15, 5700, Note_on_c, 12, 39, 31
15, 5755, Note_on_c, 12, 39, 0
15, 5760, Note_on_c, 12, 32, 31
15, 5815, Note_on_c, 12, 32, 0
15, 5820, Note_on_c, 12, 32, 31
15, 5875, Note_on_c, 12, 32, 0
15, 5880, Note_on_c, 12, 32, 31
15, 5935, Note_on_c, 12, 32, 0
15, 5940, Note_on_c, 12, 32, 31
15, 5995, Note_on_c, 12, 32, 0
15, 6000, Note_on_c, 12, 34, 31
15, 6055, Note_on_c, 12, 34, 0
15, 6060, Note_on_c, 12, 34, 31
15, 6115, Note_on_c, 12, 34, 0
15, 6120, Note_on_c, 12, 34, 31
15, 6175, Note_on_c, 12, 34, 0
15, 6180, Note_on_c, 12, 34, 31
15, 6235, Note_on_c, 12, 34, 0
15, 6240, Note_on_c, 12, 36, 31
15, 6295, Note_on_c, 12, 36, 0
15, 6300, Note_on_c, 12, 36, 31
15, 6355, Note_on_c, 12, 36, 0
15, 6360, Note_on_c, 12, 36, 31
15, 6415, Note_on_c, 12, 36, 0
15, 6420, Note_on_c, 12, 36, 31
15, 6475, Note_on_c, 12, 36, 0
15, 6480, Note_on_c, 12, 34, 31
15, 6535, Note_on_c, 12, 34, 0
15, 6540, Note_on_c, 12, 34, 31
15, 6595, Note_on_c, 12, 34, 0
15, 6600, Note_on_c, 12, 34, 31
15, 6655, Note_on_c, 12, 34, 0
15, 6660, Note_on_c, 12, 34, 31
15, 6715, Note_on_c, 12, 34, 0
15, 6720, Note_on_c, 12, 34, 31
15, 6775, Note_on_c, 12, 34, 0
15, 6780, Note_on_c, 12, 34, 31
15, 6835, Note_on_c, 12, 34, 0
15, 6840, Note_on_c, 12, 34, 31
15, 6895, Note_on_c, 12, 34, 0
15, 6900, Note_on_c, 12, 34, 31
15, 6955, Note_on_c, 12, 34, 0
15, 6960, Note_on_c, 12, 34, 31
15, 7015, Note_on_c, 12, 34, 0
15, 7020, Note_on_c, 12, 34, 31
15, 7075, Note_on_c, 12, 34, 0
15, 7080, Note_on_c, 12, 34, 31
15, 7135, Note_on_c, 12, 34, 0
15, 7140, Note_on_c, 12, 34, 31
15, 7195, Note_on_c, 12, 34, 0
15, 7200, Note_on_c, 12, 34, 31
15, 7255, Note_on_c, 12, 34, 0
15, 7260, Note_on_c, 12, 34, 31
15, 7315, Note_on_c, 12, 34, 0
15, 7320, Note_on_c, 12, 34, 31
15, 7375, Note_on_c, 12, 34, 0
15, 7380, Note_on_c, 12, 34, 31
15, 7435, Note_on_c, 12, 34, 0
15, 7440, Note_on_c, 12, 34, 31
15, 7495, Note_on_c, 12, 34, 0
15, 7500, Note_on_c, 12, 34, 31
15, 7555, Note_on_c, 12, 34, 0
15, 7560, Note_on_c, 12, 34, 31
15, 7615, Note_on_c, 12, 34, 0
15, 7620, Note_on_c, 12, 34, 31
15, 7675, Note_on_c, 12, 34, 0
15, 7680, Note_on_c, 12, 27, 31
15, 7735, Note_on_c, 12, 27, 0
15, 7740, Note_on_c, 12, 27, 31
15, 7795, Note_on_c, 12, 27, 0
15, 7800, Note_on_c, 12, 34, 31
15, 7855, Note_on_c, 12, 34, 0
15, 7860, Note_on_c, 12, 34, 31
15, 7915, Note_on_c, 12, 34, 0
15, 7920, Note_on_c, 12, 27, 31
15, 7975, Note_on_c, 12, 27, 0
15, 7980, Note_on_c, 12, 27, 31
15, 8035, Note_on_c, 12, 27, 0
15, 8040, Note_on_c, 12, 27, 31
15, 8095, Note_on_c, 12, 27, 0
15, 8100, Note_on_c, 12, 27, 31
15, 8155, Note_on_c, 12, 27, 0
15, 8160, Note_on_c, 12, 27, 31
15, 8215, Note_on_c, 12, 27, 0
15, 8220, Note_on_c, 12, 27, 31
15, 8275, Note_on_c, 12, 27, 0
15, 8280, Note_on_c, 12, 27, 31
15, 8335, Note_on_c, 12, 27, 0
15, 8340, Note_on_c, 12, 27, 31
15, 8395, Note_on_c, 12, 27, 0
15, 8400, Note_on_c, 12, 27, 31
15, 8455, Note_on_c, 12, 27, 0
15, 8460, Note_on_c, 12, 27, 31
15, 8515, Note_on_c, 12, 27, 0
15, 8520, Note_on_c, 12, 27, 31
15, 8575, Note_on_c, 12, 27, 0
15, 8580, Note_on_c, 12, 27, 31
15, 8635, Note_on_c, 12, 27, 0
15, 8640, Note_on_c, 12, 27, 31
15, 9120, Note_on_c, 12, 27, 0
15, 9120, Control_c, 12, 6, 64
15, 9120, Control_c, 12, 91, 40
15, 9120, Control_c, 12, 93, 0
15, 9121, Text_t, "Non Registered Parameter Numbers"
15, 9122, Text_t, "For Roland SC-55 Vibrato"
15, 9123, Text_t, "It is always elegant programming"
15, 9124, Text_t, "practice to put system variables back"
15, 9125, Text_t, "to the way you found them."
15, 9126, Text_t, "I.E.  Return all these NRPN numbers"
15, 9127, Text_t, "back to default, so the next piece"
15, 9128, Text_t, "that is played isn't messed up by "
15, 9129, Text_t, "parameters for this piece."
15, 9130, Text_t, "Set up NRPN for Vibrate Rate"
15, 9132, Control_c, 12, 99, 1
15, 9133, Control_c, 12, 98, 8
15, 9134, Text_t, "Data Entry Command"
15, 9135, Control_c, 12, 6, 64
15, 9136, Text_t, "Set up NRPN for Vibrate Delay"
15, 9137, Control_c, 12, 99, 1
15, 9138, Control_c, 12, 98, 10
15, 9139, Text_t, "Data Entry Command"
15, 9140, Control_c, 12, 6, 64
15, 9141, Text_t, "Set up NRPN for Vibrate Depth"
15, 9142, Control_c, 12, 99, 1
15, 9143, Control_c, 12, 98, 9
15, 9144, Text_t, "Data Entry Command"
15, 9145, Control_c, 12, 6, 64
15, 9600, Program_c, 12, 0
15, 9600, Control_c, 12, 93, 0
15, 9600, Control_c, 12, 91, 40
15, 9600, Control_c, 12, 10, 64
15, 9600, Control_c, 12, 7, 100
15, 9600, End_track
16, 0, Start_track
16, 0, MIDI_port, 0
16, 0, Title_t, "Harpsicord R"
16, 0, Program_c, 13, 6
16, 0, Control_c, 13, 7, 127
16, 0, Control_c, 13, 10, 74
16, 0, Control_c, 13, 93, 0
16, 0, Control_c, 13, 91, 120
16, 480, Note_on_c, 13, 58, 31
16, 480, Control_c, 13, 91, 120
16, 960, Note_on_c, 13, 58, 0
16, 960, Note_on_c, 13, 58, 31
16, 1440, Note_on_c, 13, 58, 0
16, 1440, Note_on_c, 13, 58, 31
16, 1800, Note_on_c, 13, 58, 0
16, 1800, Note_on_c, 13, 56, 31
16, 2040, Note_on_c, 13, 56, 0
16, 2040, Note_on_c, 13, 55, 31
16, 2280, Note_on_c, 13, 55, 0
16, 2280, Note_on_c, 13, 53, 31
16, 2400, Note_on_c, 13, 53, 0
16, 2400, Note_on_c, 13, 53, 31
16, 2760, Note_on_c, 13, 53, 0
16, 2760, Note_on_c, 13, 58, 31
16, 2880, Note_on_c, 13, 58, 0
16, 2880, Note_on_c, 13, 58, 31
16, 3120, Note_on_c, 13, 58, 0
16, 3120, Note_on_c, 13, 60, 31
16, 3300, Note_on_c, 13, 60, 0
16, 3300, Note_on_c, 13, 57, 31
16, 3360, Note_on_c, 13, 57, 0
16, 3360, Note_on_c, 13, 53, 31
16, 3840, Note_on_c, 13, 53, 0
16, 3840, Note_on_c, 13, 53, 31
16, 4320, Note_on_c, 13, 53, 0
16, 4320, Note_on_c, 13, 53, 31
16, 4800, Note_on_c, 13, 53, 0
16, 4800, Note_on_c, 13, 53, 31
16, 5280, Note_on_c, 13, 53, 0
16, 5280, Note_on_c, 13, 53, 31
16, 5400, Note_on_c, 13, 53, 0
16, 5400, Note_on_c, 13, 58, 31
16, 5520, Note_on_c, 13, 58, 0
16, 5520, Note_on_c, 13, 58, 31
16, 5760, Note_on_c, 13, 58, 0
16, 5760, Note_on_c, 13, 60, 31
16, 6000, Note_on_c, 13, 60, 0
16, 6000, Note_on_c, 13, 62, 31
16, 6240, Note_on_c, 13, 62, 0
16, 6240, Note_on_c, 13, 51, 31
16, 6480, Note_on_c, 13, 51, 0
16, 6480, Note_on_c, 13, 53, 31
16, 6720, Note_on_c, 13, 53, 0
16, 6720, Note_on_c, 13, 46, 31
16, 7200, Note_on_c, 13, 46, 0
16, 7200, Note_on_c, 13, 46, 31
16, 7680, Note_on_c, 13, 46, 0
16, 7680, Note_on_c, 13, 46, 31
16, 8160, Note_on_c, 13, 46, 0
16, 8160, Note_on_c, 13, 46, 31
16, 8640, Note_on_c, 13, 46, 0
16, 8640, Note_on_c, 13, 46, 31
16, 9120, Note_on_c, 13, 46, 0
16, 9120, Control_c, 13, 6, 64
16, 9120, Control_c, 13, 91, 40
16, 9120, Control_c, 13, 93, 0
16, 9121, Text_t, "Non Registered Parameter Numbers"
16, 9122, Text_t, "For Roland SC-55 Vibrato"
16, 9123, Text_t, "It is always elegant programming"
16, 9124, Text_t, "practice to put system variables back"
16, 9125, Text_t, "to the way you found them."
16, 9126, Text_t, "I.E.  Return all these NRPN numbers"
16, 9127, Text_t, "back to default, so the next piece"
16, 9128, Text_t, "that is played isn't messed up by "
16, 9129, Text_t, "parameters for this piece."
16, 9130, Text_t, "Set up NRPN for Vibrate Rate"
16, 9132, Control_c, 13, 99, 1
16, 9133, Control_c, 13, 98, 8
16, 9134, Text_t, "Data Entry Command"
16, 9135, Control_c, 13, 6, 64
16, 9136, Text_t, "Set up NRPN for Vibrate Delay"
16, 9137, Control_c, 13, 99, 1
16, 9138, Control_c, 13, 98, 10
16, 9139, Text_t, "Data Entry Command"
16, 9140, Control_c, 13, 6, 64
16, 9141, Text_t, "Set up NRPN for Vibrate Depth"
16, 9142, Control_c, 13, 99, 1
16, 9143, Control_c, 13, 98, 9
16, 9144, Text_t, "Data Entry Command"
16, 9145, Control_c, 13, 6, 64
16, 9600, Program_c, 13, 0
16, 9600, Control_c, 13, 93, 0
16, 9600, Control_c, 13, 91, 40
16, 9600, Control_c, 13, 10, 64
16, 9600, Control_c, 13, 7, 100
16, 9600, End_track
17, 0, Start_track
17, 0, MIDI_port, 0
17, 0, Title_t, "Harpsicord L"
17, 0, Program_c, 14, 6
17, 0, Control_c, 14, 7, 127
17, 0, Control_c, 14, 10, 54
17, 0, Control_c, 14, 93, 0
17, 0, Control_c, 14, 91, 120
17, 480, Note_on_c, 14, 51, 31
17, 720, Note_on_c, 14, 51, 0
17, 720, Note_on_c, 14, 46, 31
17, 960, Note_on_c, 14, 46, 0
17, 960, Note_on_c, 14, 46, 31
17, 1200, Note_on_c, 14, 46, 0
17, 1200, Note_on_c, 14, 51, 31
17, 1440, Note_on_c, 14, 51, 0
17, 1440, Note_on_c, 14, 50, 31
17, 1680, Note_on_c, 14, 50, 0
17, 1680, Note_on_c, 14, 48, 31
17, 1920, Note_on_c, 14, 48, 0
17, 1920, Note_on_c, 14, 46, 31
17, 2160, Note_on_c, 14, 46, 0
17, 2160, Note_on_c, 14, 44, 31
17, 2400, Note_on_c, 14, 44, 0
17, 2400, Note_on_c, 14, 46, 31
17, 2640, Note_on_c, 14, 46, 0
17, 2640, Note_on_c, 14, 46, 31
17, 2880, Note_on_c, 14, 46, 0
17, 2880, Note_on_c, 14, 51, 31
17, 3120, Note_on_c, 14, 51, 0
17, 3120, Note_on_c, 14, 51, 31
17, 3360, Note_on_c, 14, 51, 0
17, 3360, Note_on_c, 14, 46, 31
17, 3600, Note_on_c, 14, 46, 0
17, 3600, Note_on_c, 14, 41, 31
17, 3840, Note_on_c, 14, 41, 0
17, 3840, Note_on_c, 14, 41, 31
17, 4080, Note_on_c, 14, 41, 0
17, 4080, Note_on_c, 14, 46, 31
17, 4320, Note_on_c, 14, 46, 0
17, 4320, Note_on_c, 14, 46, 31
17, 4560, Note_on_c, 14, 46, 0
17, 4560, Note_on_c, 14, 41, 31
17, 4800, Note_on_c, 14, 41, 0
17, 4800, Note_on_c, 14, 41, 31
17, 5040, Note_on_c, 14, 41, 0
17, 5040, Note_on_c, 14, 46, 31
17, 5280, Note_on_c, 14, 46, 0
17, 5280, Note_on_c, 14, 46, 31
17, 5520, Note_on_c, 14, 46, 0
17, 5520, Note_on_c, 14, 51, 31
17, 5760, Note_on_c, 14, 51, 0
17, 5760, Note_on_c, 14, 44, 31
17, 6000, Note_on_c, 14, 44, 0
17, 6000, Note_on_c, 14, 46, 31
17, 6240, Note_on_c, 14, 46, 0
17, 6240, Note_on_c, 14, 48, 31
17, 6480, Note_on_c, 14, 48, 0
17, 6480, Note_on_c, 14, 46, 31
17, 6720, Note_on_c, 14, 46, 0
17, 6720, Note_on_c, 14, 46, 31
17, 6960, Note_on_c, 14, 46, 0
17, 6960, Note_on_c, 14, 46, 31
17, 7200, Note_on_c, 14, 46, 0
17, 7200, Note_on_c, 14, 46, 31
17, 7440, Note_on_c, 14, 46, 0
17, 7440, Note_on_c, 14, 46, 31
17, 7680, Note_on_c, 14, 46, 0
17, 7680, Note_on_c, 14, 39, 31
17, 7800, Note_on_c, 14, 39, 0
17, 7800, Note_on_c, 14, 46, 31
17, 7920, Note_on_c, 14, 46, 0
17, 7920, Note_on_c, 14, 39, 31
17, 8160, Note_on_c, 14, 39, 0
17, 8160, Note_on_c, 14, 39, 31
17, 8400, Note_on_c, 14, 39, 0
17, 8400, Note_on_c, 14, 39, 31
17, 8640, Note_on_c, 14, 39, 0
17, 8640, Note_on_c, 14, 39, 31
17, 9120, Note_on_c, 14, 39, 0
17, 9120, Control_c, 14, 6, 64
17, 9120, Control_c, 14, 91, 40
17, 9120, Control_c, 14, 93, 0
17, 9121, Text_t, "Non Registered Parameter Numbers"
17, 9122, Text_t, "For Roland SC-55 Vibrato"
17, 9123, Text_t, "It is always elegant programming"
17, 9124, Text_t, "practice to put system variables back"
17, 9125, Text_t, "to the way you found them."
17, 9126, Text_t, "I.E.  Return all these NRPN numbers"
17, 9127, Text_t, "back to default, so the next piece"
17, 9128, Text_t, "that is played isn't messed up by "
17, 9129, Text_t, "parameters for this piece."
17, 9130, Text_t, "Set up NRPN for Vibrate Rate"
17, 9132, Control_c, 14, 99, 1
17, 9133, Control_c, 14, 98, 8
17, 9134, Text_t, "Data Entry Command"
17, 9135, Control_c, 14, 6, 64
17, 9136, Text_t, "Set up NRPN for Vibrate Delay"
17, 9137, Control_c, 14, 99, 1
17, 9138, Control_c, 14, 98, 10
17, 9139, Text_t, "Data Entry Command"
17, 9140, Control_c, 14, 6, 64
17, 9141, Text_t, "Set up NRPN for Vibrate Depth"
17, 9142, Control_c, 14, 99, 1
17, 9143, Control_c, 14, 98, 9
17, 9144, Text_t, "Data Entry Command"
17, 9145, Control_c, 14, 6, 64
17, 9600, Program_c, 14, 0
17, 9600, Control_c, 14, 93, 0
17, 9600, Control_c, 14, 91, 40
17, 9600, Control_c, 14, 10, 64
17, 9600, Control_c, 14, 7, 100
17, 9600, End_track
18, 0, Start_track
18, 0, MIDI_port, 0
18, 0, Program_c, 15, 0
18, 0, Control_c, 15, 7, 100
18, 0, Control_c, 15, 10, 64
18, 0, Control_c, 15, 93, 0
18, 0, Control_c, 15, 91, 40
18, 9600, Program_c, 15, 0
18, 9600, Control_c, 15, 93, 0
18, 9600, Control_c, 15, 91, 40
18, 9600, Control_c, 15, 10, 64
18, 9600, Control_c, 15, 7, 100
18, 9600, End_track
19, 0, Start_track
19, 0, MIDI_port, 0
19, 0, Title_t, "+=+=+=+=+=+="
19, 0, End_track
20, 0, Start_track
20, 0, MIDI_port, 0
20, 0, Title_t, "from"
20, 0, End_track
21, 0, Start_track
21, 0, MIDI_port, 0
21, 0, Title_t, "Vivaldi's"
21, 0, End_track
22, 0, Start_track
22, 0, MIDI_port, 0
22, 0, Title_t, "Four Seasons"
22, 0, End_track
23, 0, Start_track
23, 0, MIDI_port, 0
23, 0, Title_t, "Winter "
23, 0, End_track
24, 0, Start_track
24, 0, MIDI_port, 0
24, 0, Title_t, "Opus 8 No. 4"
24, 0, End_track
25, 0, Start_track
25, 0, MIDI_port, 0
25, 0, Title_t, "Largo"
25, 0, End_track
26, 0, Start_track
26, 0, MIDI_port, 0
26, 0, Title_t, "+=+=+=+=+=+="
26, 0, End_track
27, 0, Start_track
27, 0, MIDI_port, 0
27, 0, Title_t, "This Midi File"
27, 0, End_track
28, 0, Start_track
28, 0, MIDI_port, 0
28, 0, Title_t, "Copyright (C) 1995"
28, 0, End_track
29, 0, Start_track
29, 0, MIDI_port, 0
29, 0, Title_t, "by"
29, 0, End_track
30, 0, Start_track
30, 0, MIDI_port, 0
30, 0, Title_t, "Neil B. Sheldon Sr."
30, 0, End_track
31, 0, Start_track
31, 0, MIDI_port, 0
31, 0, Title_t, "neil@netzone.com"
31, 0, End_track
32, 0, Start_track
32, 0, MIDI_port, 0
32, 0, Title_t, "may be freely distributed"
32, 0, End_track
33, 0, Start_track
33, 0, MIDI_port, 0
33, 0, Title_t, "for non-commercial"
33, 0, End_track
34, 0, Start_track
34, 0, MIDI_port, 0
34, 0, Title_t, "non-monetary"
34, 0, End_track
35, 0, Start_track
35, 0, MIDI_port, 0
35, 0, Title_t, "intrests."
35, 0, End_track
36, 0, Start_track
36, 0, MIDI_port, 0
36, 0, Title_t, "+=+=+=+=+=+="
36, 0, End_track
37, 0, Start_track
37, 0, MIDI_port, 0
37, 0, Title_t, "For Roland SC55"
37, 0, End_track
38, 0, Start_track
38, 0, MIDI_port, 0
38, 0, Title_t, "+=+=+=+=+=+="
38, 0, End_track
0, 0, End_of_file
