0, 0, Header, 1, 12, 192
1, 0, Start_track
1, 0, Time_signature, 4, 2, 24, 8
1, 0, Key_signature, 0, "major"
1, 0, Tempo, 1500000
1, 1920, Tempo, 428571
1, 2904, Tempo, 1500000
1, 5760, Tempo, 428571
1, 6744, Tempo, 1500000
1, 11520, Tempo, 428571
1, 12480, Tempo, 1500000
1, 14592, Tempo, 428571
1, 15576, Tempo, 1500000
1, 16896, Tempo, 500000
1, 17664, Tempo, 428571
1, 18432, Time_signature, 3, 2, 24, 8
1, 20736, Tempo, 333333
1, 21312, Tempo, 428571
1, 23472, Tempo, 1200000
1, 23616, Tempo, 428571
1, 40896, Tempo, 923076
1, 41088, Tempo, 428571
1, 43200, Tempo, 666666
1, 43392, Tempo, 428571
1, 45504, Tempo, 666666
1, 45696, Tempo, 428571
1, 92736, Tempo, 272727
1, 92928, Tempo, 750000
1, 92928, End_track
2, 0, Start_track
2, 0, MIDI_port, 0
2, 0, Title_t, "Solo Violin         "
2, 0, Program_c, 0, 40
2, 0, Control_c, 0, 7, 50
2, 0, Note_on_c, 0, 79, 100
2, 672, Note_on_c, 0, 79, 0
2, 672, Note_on_c, 0, 82, 100
2, 768, Note_on_c, 0, 82, 0
2, 768, Note_on_c, 0, 72, 100
2, 1152, Note_on_c, 0, 72, 0
2, 1152, Note_on_c, 0, 81, 100
2, 1440, Note_on_c, 0, 81, 0
2, 1440, Note_on_c, 0, 74, 100
2, 1536, Note_on_c, 0, 74, 0
2, 1536, Note_on_c, 0, 82, 100
2, 1680, Note_on_c, 0, 82, 0
2, 1680, Note_on_c, 0, 81, 100
2, 1728, Note_on_c, 0, 81, 0
2, 1728, Note_on_c, 0, 79, 100
2, 1920, Note_on_c, 0, 79, 0
2, 3072, Note_on_c, 0, 79, 100
2, 3360, Note_on_c, 0, 79, 0
2, 3360, Note_on_c, 0, 82, 100
2, 3456, Note_on_c, 0, 82, 0
2, 3456, Note_on_c, 0, 81, 100
2, 3744, Note_on_c, 0, 81, 0
2, 3744, Note_on_c, 0, 84, 100
2, 3840, Note_on_c, 0, 84, 0
2, 3840, Note_on_c, 0, 75, 100
2, 4128, Note_on_c, 0, 75, 0
2, 4128, Note_on_c, 0, 84, 100
2, 4224, Note_on_c, 0, 84, 0
2, 4224, Note_on_c, 0, 74, 100
2, 4512, Note_on_c, 0, 74, 0
2, 4512, Note_on_c, 0, 70, 100
2, 4608, Note_on_c, 0, 70, 0
2, 4608, Note_on_c, 0, 77, 100
2, 4896, Note_on_c, 0, 77, 0
2, 4896, Note_on_c, 0, 82, 100
2, 4992, Note_on_c, 0, 82, 0
2, 4992, Note_on_c, 0, 79, 100
2, 5280, Note_on_c, 0, 79, 0
2, 5280, Note_on_c, 0, 82, 100
2, 5376, Note_on_c, 0, 82, 0
2, 5376, Note_on_c, 0, 74, 100
2, 5568, Note_on_c, 0, 74, 0
2, 5568, Note_on_c, 0, 72, 100
2, 5568, Pitch_bend_c, 0, 16383
2, 5580, Pitch_bend_c, 0, 8192
2, 5592, Pitch_bend_c, 0, 16383
2, 5604, Pitch_bend_c, 0, 8192
2, 5616, Pitch_bend_c, 0, 16383
2, 5628, Pitch_bend_c, 0, 8192
2, 5640, Pitch_bend_c, 0, 16383
2, 5652, Pitch_bend_c, 0, 8192
2, 5664, Pitch_bend_c, 0, 16383
2, 5676, Pitch_bend_c, 0, 8192
2, 5688, Pitch_bend_c, 0, 16383
2, 5700, Pitch_bend_c, 0, 8192
2, 5712, Pitch_bend_c, 0, 16383
2, 5724, Pitch_bend_c, 0, 8192
2, 5736, Pitch_bend_c, 0, 16383
2, 5748, Pitch_bend_c, 0, 8192
2, 5760, Note_on_c, 0, 72, 0
2, 5760, Note_on_c, 0, 70, 100
2, 6144, Note_on_c, 0, 70, 0
2, 6912, Note_on_c, 0, 77, 100
2, 7200, Note_on_c, 0, 77, 0
2, 7200, Note_on_c, 0, 70, 100
2, 7296, Note_on_c, 0, 70, 0
2, 7296, Note_on_c, 0, 80, 100
2, 7584, Note_on_c, 0, 80, 0
2, 7584, Note_on_c, 0, 77, 100
2, 7680, Note_on_c, 0, 77, 0
2, 7680, Note_on_c, 0, 75, 100
2, 7824, Note_on_c, 0, 75, 0
2, 7824, Note_on_c, 0, 74, 100
2, 7872, Note_on_c, 0, 74, 0
2, 7872, Note_on_c, 0, 72, 100
2, 8064, Note_on_c, 0, 72, 0
2, 8064, Note_on_c, 0, 79, 100
2, 8352, Note_on_c, 0, 79, 0
2, 8352, Note_on_c, 0, 72, 100
2, 8448, Note_on_c, 0, 72, 0
2, 8448, Note_on_c, 0, 82, 100
2, 8736, Note_on_c, 0, 82, 0
2, 8736, Note_on_c, 0, 79, 100
2, 8832, Note_on_c, 0, 79, 0
2, 8832, Note_on_c, 0, 78, 100
2, 8976, Note_on_c, 0, 78, 0
2, 8976, Note_on_c, 0, 75, 100
2, 9024, Note_on_c, 0, 75, 0
2, 9024, Note_on_c, 0, 74, 100
2, 9216, Note_on_c, 0, 74, 0
2, 9216, Note_on_c, 0, 82, 100
2, 9504, Note_on_c, 0, 82, 0
2, 9504, Note_on_c, 0, 79, 100
2, 9600, Note_on_c, 0, 79, 0
2, 9600, Note_on_c, 0, 80, 100
2, 9888, Note_on_c, 0, 80, 0
2, 9888, Note_on_c, 0, 79, 100
2, 9984, Note_on_c, 0, 79, 0
2, 9984, Note_on_c, 0, 78, 100
2, 10272, Note_on_c, 0, 78, 0
2, 10272, Note_on_c, 0, 74, 100
2, 10368, Note_on_c, 0, 74, 0
2, 10368, Note_on_c, 0, 75, 100
2, 10656, Note_on_c, 0, 75, 0
2, 10656, Note_on_c, 0, 74, 100
2, 10752, Note_on_c, 0, 74, 0
2, 10752, Note_on_c, 0, 84, 100
2, 11040, Note_on_c, 0, 84, 0
2, 11040, Note_on_c, 0, 74, 100
2, 11136, Note_on_c, 0, 74, 0
2, 11136, Note_on_c, 0, 82, 100
2, 11232, Note_on_c, 0, 82, 0
2, 11232, Note_on_c, 0, 81, 100
2, 11280, Note_on_c, 0, 81, 0
2, 11280, Note_on_c, 0, 79, 100
2, 11328, Note_on_c, 0, 79, 0
2, 11328, Note_on_c, 0, 78, 100
2, 11328, Pitch_bend_c, 0, 13192
2, 11340, Pitch_bend_c, 0, 8192
2, 11352, Pitch_bend_c, 0, 13192
2, 11364, Pitch_bend_c, 0, 8192
2, 11376, Pitch_bend_c, 0, 13192
2, 11388, Pitch_bend_c, 0, 8192
2, 11400, Pitch_bend_c, 0, 13192
2, 11412, Pitch_bend_c, 0, 8192
2, 11424, Pitch_bend_c, 0, 13192
2, 11436, Pitch_bend_c, 0, 8192
2, 11448, Pitch_bend_c, 0, 13192
2, 11460, Pitch_bend_c, 0, 8192
2, 11472, Note_on_c, 0, 78, 0
2, 11472, Note_on_c, 0, 79, 100
2, 11520, Note_on_c, 0, 79, 0
2, 11520, Note_on_c, 0, 79, 100
2, 11712, Note_on_c, 0, 79, 0
2, 12672, Note_on_c, 0, 74, 100
2, 13440, Note_on_c, 0, 74, 0
2, 13440, Note_on_c, 0, 79, 100
2, 13728, Note_on_c, 0, 79, 0
2, 13728, Note_on_c, 0, 84, 100
2, 13824, Note_on_c, 0, 84, 0
2, 13824, Note_on_c, 0, 72, 100
2, 14112, Note_on_c, 0, 72, 0
2, 14112, Note_on_c, 0, 81, 100
2, 14208, Note_on_c, 0, 81, 0
2, 14208, Note_on_c, 0, 82, 100
2, 14304, Note_on_c, 0, 82, 0
2, 14304, Note_on_c, 0, 81, 100
2, 14352, Note_on_c, 0, 81, 0
2, 14352, Note_on_c, 0, 79, 100
2, 14400, Note_on_c, 0, 79, 0
2, 14400, Note_on_c, 0, 78, 100
2, 14400, Pitch_bend_c, 0, 13192
2, 14412, Pitch_bend_c, 0, 8192
2, 14424, Pitch_bend_c, 0, 13192
2, 14436, Pitch_bend_c, 0, 8192
2, 14448, Pitch_bend_c, 0, 13192
2, 14460, Pitch_bend_c, 0, 8192
2, 14472, Pitch_bend_c, 0, 13192
2, 14484, Pitch_bend_c, 0, 8192
2, 14496, Pitch_bend_c, 0, 13192
2, 14508, Pitch_bend_c, 0, 8192
2, 14520, Pitch_bend_c, 0, 13192
2, 14532, Pitch_bend_c, 0, 8192
2, 14544, Note_on_c, 0, 78, 0
2, 14544, Note_on_c, 0, 79, 100
2, 16896, Note_on_c, 0, 79, 0
2, 17688, Control_c, 0, 7, 100
2, 18432, Note_on_c, 0, 67, 127
2, 18468, Note_on_c, 0, 67, 0
2, 18480, Note_on_c, 0, 55, 127
2, 18516, Note_on_c, 0, 55, 0
2, 18528, Note_on_c, 0, 55, 127
2, 18564, Note_on_c, 0, 55, 0
2, 18576, Note_on_c, 0, 55, 127
2, 18612, Note_on_c, 0, 55, 0
2, 18624, Note_on_c, 0, 55, 127
2, 18660, Note_on_c, 0, 55, 0
2, 18672, Note_on_c, 0, 55, 127
2, 18708, Note_on_c, 0, 55, 0
2, 18720, Note_on_c, 0, 55, 127
2, 18756, Note_on_c, 0, 55, 0
2, 18768, Note_on_c, 0, 55, 127
2, 18804, Note_on_c, 0, 55, 0
2, 18816, Note_on_c, 0, 55, 127
2, 18852, Note_on_c, 0, 55, 0
2, 18864, Note_on_c, 0, 55, 127
2, 18900, Note_on_c, 0, 55, 0
2, 18912, Note_on_c, 0, 55, 127
2, 18948, Note_on_c, 0, 55, 0
2, 18960, Note_on_c, 0, 55, 127
2, 18996, Note_on_c, 0, 55, 0
2, 19008, Note_on_c, 0, 65, 127
2, 19044, Note_on_c, 0, 65, 0
2, 19056, Note_on_c, 0, 55, 127
2, 19092, Note_on_c, 0, 55, 0
2, 19104, Note_on_c, 0, 55, 127
2, 19140, Note_on_c, 0, 55, 0
2, 19152, Note_on_c, 0, 55, 127
2, 19188, Note_on_c, 0, 55, 0
2, 19200, Note_on_c, 0, 55, 127
2, 19236, Note_on_c, 0, 55, 0
2, 19248, Note_on_c, 0, 55, 127
2, 19284, Note_on_c, 0, 55, 0
2, 19296, Note_on_c, 0, 55, 127
2, 19332, Note_on_c, 0, 55, 0
2, 19344, Note_on_c, 0, 55, 127
2, 19380, Note_on_c, 0, 55, 0
2, 19392, Note_on_c, 0, 55, 127
2, 19428, Note_on_c, 0, 55, 0
2, 19440, Note_on_c, 0, 55, 127
2, 19476, Note_on_c, 0, 55, 0
2, 19488, Note_on_c, 0, 55, 127
2, 19524, Note_on_c, 0, 55, 0
2, 19536, Note_on_c, 0, 55, 127
2, 19572, Note_on_c, 0, 55, 0
2, 19584, Note_on_c, 0, 63, 127
2, 19620, Note_on_c, 0, 63, 0
2, 19632, Note_on_c, 0, 55, 127
2, 19668, Note_on_c, 0, 55, 0
2, 19680, Note_on_c, 0, 55, 127
2, 19716, Note_on_c, 0, 55, 0
2, 19728, Note_on_c, 0, 55, 127
2, 19764, Note_on_c, 0, 55, 0
2, 19776, Note_on_c, 0, 55, 127
2, 19812, Note_on_c, 0, 55, 0
2, 19824, Note_on_c, 0, 55, 127
2, 19860, Note_on_c, 0, 55, 0
2, 19872, Note_on_c, 0, 55, 127
2, 19908, Note_on_c, 0, 55, 0
2, 19920, Note_on_c, 0, 55, 127
2, 19956, Note_on_c, 0, 55, 0
2, 19968, Note_on_c, 0, 55, 127
2, 20004, Note_on_c, 0, 55, 0
2, 20016, Note_on_c, 0, 55, 127
2, 20052, Note_on_c, 0, 55, 0
2, 20064, Note_on_c, 0, 55, 127
2, 20100, Note_on_c, 0, 55, 0
2, 20112, Note_on_c, 0, 55, 127
2, 20148, Note_on_c, 0, 55, 0
2, 20160, Note_on_c, 0, 62, 127
2, 20196, Note_on_c, 0, 62, 0
2, 20208, Note_on_c, 0, 55, 127
2, 20244, Note_on_c, 0, 55, 0
2, 20256, Note_on_c, 0, 55, 127
2, 20292, Note_on_c, 0, 55, 0
2, 20304, Note_on_c, 0, 55, 127
2, 20340, Note_on_c, 0, 55, 0
2, 20352, Note_on_c, 0, 55, 127
2, 20388, Note_on_c, 0, 55, 0
2, 20400, Note_on_c, 0, 55, 127
2, 20436, Note_on_c, 0, 55, 0
2, 20448, Note_on_c, 0, 55, 127
2, 20484, Note_on_c, 0, 55, 0
2, 20496, Note_on_c, 0, 55, 127
2, 20532, Note_on_c, 0, 55, 0
2, 20544, Note_on_c, 0, 55, 127
2, 20580, Note_on_c, 0, 55, 0
2, 21312, Note_on_c, 0, 74, 127
2, 21348, Note_on_c, 0, 74, 0
2, 21360, Note_on_c, 0, 62, 127
2, 21396, Note_on_c, 0, 62, 0
2, 21408, Note_on_c, 0, 62, 127
2, 21444, Note_on_c, 0, 62, 0
2, 21456, Note_on_c, 0, 62, 127
2, 21492, Note_on_c, 0, 62, 0
2, 21504, Note_on_c, 0, 62, 127
2, 21540, Note_on_c, 0, 62, 0
2, 21552, Note_on_c, 0, 62, 127
2, 21588, Note_on_c, 0, 62, 0
2, 21600, Note_on_c, 0, 62, 127
2, 21636, Note_on_c, 0, 62, 0
2, 21648, Note_on_c, 0, 62, 127
2, 21684, Note_on_c, 0, 62, 0
2, 21696, Note_on_c, 0, 62, 127
2, 21732, Note_on_c, 0, 62, 0
2, 21744, Note_on_c, 0, 62, 127
2, 21780, Note_on_c, 0, 62, 0
2, 21792, Note_on_c, 0, 62, 127
2, 21828, Note_on_c, 0, 62, 0
2, 21840, Note_on_c, 0, 62, 127
2, 21876, Note_on_c, 0, 62, 0
2, 21888, Note_on_c, 0, 72, 127
2, 21924, Note_on_c, 0, 72, 0
2, 21936, Note_on_c, 0, 62, 127
2, 21972, Note_on_c, 0, 62, 0
2, 21984, Note_on_c, 0, 62, 127
2, 22020, Note_on_c, 0, 62, 0
2, 22032, Note_on_c, 0, 62, 127
2, 22068, Note_on_c, 0, 62, 0
2, 22080, Note_on_c, 0, 62, 127
2, 22116, Note_on_c, 0, 62, 0
2, 22128, Note_on_c, 0, 62, 127
2, 22164, Note_on_c, 0, 62, 0
2, 22176, Note_on_c, 0, 62, 127
2, 22212, Note_on_c, 0, 62, 0
2, 22224, Note_on_c, 0, 62, 127
2, 22260, Note_on_c, 0, 62, 0
2, 22272, Note_on_c, 0, 62, 127
2, 22308, Note_on_c, 0, 62, 0
2, 22320, Note_on_c, 0, 62, 127
2, 22356, Note_on_c, 0, 62, 0
2, 22368, Note_on_c, 0, 62, 127
2, 22404, Note_on_c, 0, 62, 0
2, 22416, Note_on_c, 0, 62, 127
2, 22452, Note_on_c, 0, 62, 0
2, 22464, Note_on_c, 0, 70, 127
2, 22500, Note_on_c, 0, 70, 0
2, 22512, Note_on_c, 0, 62, 127
2, 22548, Note_on_c, 0, 62, 0
2, 22560, Note_on_c, 0, 62, 127
2, 22596, Note_on_c, 0, 62, 0
2, 22608, Note_on_c, 0, 62, 127
2, 22644, Note_on_c, 0, 62, 0
2, 22656, Note_on_c, 0, 62, 127
2, 22692, Note_on_c, 0, 62, 0
2, 22704, Note_on_c, 0, 62, 127
2, 22740, Note_on_c, 0, 62, 0
2, 22752, Note_on_c, 0, 62, 127
2, 22788, Note_on_c, 0, 62, 0
2, 22800, Note_on_c, 0, 62, 127
2, 22836, Note_on_c, 0, 62, 0
2, 22848, Note_on_c, 0, 62, 127
2, 22884, Note_on_c, 0, 62, 0
2, 22896, Note_on_c, 0, 62, 127
2, 22932, Note_on_c, 0, 62, 0
2, 22944, Note_on_c, 0, 62, 127
2, 22980, Note_on_c, 0, 62, 0
2, 22992, Note_on_c, 0, 62, 127
2, 23028, Note_on_c, 0, 62, 0
2, 23040, Note_on_c, 0, 69, 127
2, 23076, Note_on_c, 0, 69, 0
2, 23088, Note_on_c, 0, 62, 127
2, 23124, Note_on_c, 0, 62, 0
2, 23136, Note_on_c, 0, 62, 127
2, 23172, Note_on_c, 0, 62, 0
2, 23184, Note_on_c, 0, 62, 127
2, 23220, Note_on_c, 0, 62, 0
2, 23232, Note_on_c, 0, 62, 127
2, 23268, Note_on_c, 0, 62, 0
2, 23280, Note_on_c, 0, 62, 127
2, 23316, Note_on_c, 0, 62, 0
2, 23328, Note_on_c, 0, 62, 127
2, 23364, Note_on_c, 0, 62, 0
2, 23376, Note_on_c, 0, 62, 127
2, 23412, Note_on_c, 0, 62, 0
2, 23424, Note_on_c, 0, 62, 127
2, 23460, Note_on_c, 0, 62, 0
2, 23664, Note_on_c, 0, 74, 127
2, 23700, Note_on_c, 0, 74, 0
2, 23712, Note_on_c, 0, 72, 127
2, 23748, Note_on_c, 0, 72, 0
2, 23760, Note_on_c, 0, 70, 127
2, 23796, Note_on_c, 0, 70, 0
2, 23808, Note_on_c, 0, 69, 127
2, 23844, Note_on_c, 0, 69, 0
2, 23856, Note_on_c, 0, 67, 127
2, 23892, Note_on_c, 0, 67, 0
2, 23904, Note_on_c, 0, 66, 127
2, 23940, Note_on_c, 0, 66, 0
2, 23952, Note_on_c, 0, 64, 127
2, 23988, Note_on_c, 0, 64, 0
2, 24000, Note_on_c, 0, 62, 127
2, 24036, Note_on_c, 0, 62, 0
2, 24048, Note_on_c, 0, 60, 127
2, 24084, Note_on_c, 0, 60, 0
2, 24096, Note_on_c, 0, 58, 127
2, 24132, Note_on_c, 0, 58, 0
2, 24144, Note_on_c, 0, 57, 127
2, 24180, Note_on_c, 0, 57, 0
2, 24192, Note_on_c, 0, 55, 127
2, 24228, Note_on_c, 0, 55, 0
2, 24240, Note_on_c, 0, 55, 127
2, 24276, Note_on_c, 0, 55, 0
2, 24288, Note_on_c, 0, 55, 127
2, 24324, Note_on_c, 0, 55, 0
2, 24336, Note_on_c, 0, 55, 127
2, 24372, Note_on_c, 0, 55, 0
2, 24384, Note_on_c, 0, 55, 127
2, 24420, Note_on_c, 0, 55, 0
2, 24432, Note_on_c, 0, 55, 127
2, 24468, Note_on_c, 0, 55, 0
2, 24480, Note_on_c, 0, 55, 127
2, 24516, Note_on_c, 0, 55, 0
2, 24528, Note_on_c, 0, 55, 127
2, 24564, Note_on_c, 0, 55, 0
2, 24576, Note_on_c, 0, 55, 127
2, 24612, Note_on_c, 0, 55, 0
2, 24624, Note_on_c, 0, 55, 127
2, 24660, Note_on_c, 0, 55, 0
2, 24672, Note_on_c, 0, 55, 127
2, 24708, Note_on_c, 0, 55, 0
2, 24720, Note_on_c, 0, 55, 127
2, 24756, Note_on_c, 0, 55, 0
2, 24768, Note_on_c, 0, 55, 127
2, 24804, Note_on_c, 0, 55, 0
2, 24816, Note_on_c, 0, 79, 127
2, 24852, Note_on_c, 0, 79, 0
2, 24864, Note_on_c, 0, 77, 127
2, 24900, Note_on_c, 0, 77, 0
2, 24912, Note_on_c, 0, 75, 127
2, 24948, Note_on_c, 0, 75, 0
2, 24960, Note_on_c, 0, 74, 127
2, 24996, Note_on_c, 0, 74, 0
2, 25008, Note_on_c, 0, 72, 127
2, 25044, Note_on_c, 0, 72, 0
2, 25056, Note_on_c, 0, 70, 127
2, 25092, Note_on_c, 0, 70, 0
2, 25104, Note_on_c, 0, 69, 127
2, 25140, Note_on_c, 0, 69, 0
2, 25152, Note_on_c, 0, 67, 127
2, 25188, Note_on_c, 0, 67, 0
2, 25200, Note_on_c, 0, 65, 127
2, 25236, Note_on_c, 0, 65, 0
2, 25248, Note_on_c, 0, 63, 127
2, 25284, Note_on_c, 0, 63, 0
2, 25296, Note_on_c, 0, 62, 127
2, 25332, Note_on_c, 0, 62, 0
2, 25344, Note_on_c, 0, 60, 127
2, 25380, Note_on_c, 0, 60, 0
2, 25392, Note_on_c, 0, 60, 127
2, 25428, Note_on_c, 0, 60, 0
2, 25440, Note_on_c, 0, 60, 127
2, 25476, Note_on_c, 0, 60, 0
2, 25488, Note_on_c, 0, 60, 127
2, 25524, Note_on_c, 0, 60, 0
2, 25536, Note_on_c, 0, 60, 127
2, 25572, Note_on_c, 0, 60, 0
2, 25584, Note_on_c, 0, 60, 127
2, 25620, Note_on_c, 0, 60, 0
2, 25632, Note_on_c, 0, 60, 127
2, 25668, Note_on_c, 0, 60, 0
2, 25680, Note_on_c, 0, 60, 127
2, 25716, Note_on_c, 0, 60, 0
2, 25728, Note_on_c, 0, 60, 127
2, 25764, Note_on_c, 0, 60, 0
2, 25776, Note_on_c, 0, 60, 127
2, 25812, Note_on_c, 0, 60, 0
2, 25824, Note_on_c, 0, 60, 127
2, 25860, Note_on_c, 0, 60, 0
2, 25872, Note_on_c, 0, 60, 127
2, 25908, Note_on_c, 0, 60, 0
2, 25920, Note_on_c, 0, 60, 127
2, 25956, Note_on_c, 0, 60, 0
2, 25968, Note_on_c, 0, 82, 127
2, 26004, Note_on_c, 0, 82, 0
2, 26016, Note_on_c, 0, 81, 127
2, 26052, Note_on_c, 0, 81, 0
2, 26064, Note_on_c, 0, 79, 127
2, 26100, Note_on_c, 0, 79, 0
2, 26112, Note_on_c, 0, 77, 127
2, 26148, Note_on_c, 0, 77, 0
2, 26160, Note_on_c, 0, 75, 127
2, 26196, Note_on_c, 0, 75, 0
2, 26208, Note_on_c, 0, 74, 127
2, 26244, Note_on_c, 0, 74, 0
2, 26256, Note_on_c, 0, 72, 127
2, 26292, Note_on_c, 0, 72, 0
2, 26304, Note_on_c, 0, 70, 127
2, 26340, Note_on_c, 0, 70, 0
2, 26352, Note_on_c, 0, 69, 127
2, 26388, Note_on_c, 0, 69, 0
2, 26400, Note_on_c, 0, 67, 127
2, 26436, Note_on_c, 0, 67, 0
2, 26448, Note_on_c, 0, 65, 127
2, 26484, Note_on_c, 0, 65, 0
2, 26496, Note_on_c, 0, 63, 127
2, 26532, Note_on_c, 0, 63, 0
2, 26544, Note_on_c, 0, 63, 127
2, 26580, Note_on_c, 0, 63, 0
2, 26592, Note_on_c, 0, 63, 127
2, 26628, Note_on_c, 0, 63, 0
2, 26640, Note_on_c, 0, 63, 127
2, 26676, Note_on_c, 0, 63, 0
2, 26688, Note_on_c, 0, 63, 127
2, 26724, Note_on_c, 0, 63, 0
2, 26736, Note_on_c, 0, 63, 127
2, 26772, Note_on_c, 0, 63, 0
2, 26784, Note_on_c, 0, 63, 127
2, 26820, Note_on_c, 0, 63, 0
2, 26832, Note_on_c, 0, 63, 127
2, 26868, Note_on_c, 0, 63, 0
2, 26880, Note_on_c, 0, 63, 127
2, 26916, Note_on_c, 0, 63, 0
2, 26928, Note_on_c, 0, 63, 127
2, 26964, Note_on_c, 0, 63, 0
2, 26976, Note_on_c, 0, 63, 127
2, 27012, Note_on_c, 0, 63, 0
2, 27024, Note_on_c, 0, 63, 127
2, 27060, Note_on_c, 0, 63, 0
2, 27072, Note_on_c, 0, 63, 127
2, 27108, Note_on_c, 0, 63, 0
2, 27120, Note_on_c, 0, 86, 127
2, 27156, Note_on_c, 0, 86, 0
2, 27168, Note_on_c, 0, 84, 127
2, 27204, Note_on_c, 0, 84, 0
2, 27216, Note_on_c, 0, 82, 127
2, 27252, Note_on_c, 0, 82, 0
2, 27264, Note_on_c, 0, 81, 127
2, 27300, Note_on_c, 0, 81, 0
2, 27312, Note_on_c, 0, 79, 127
2, 27348, Note_on_c, 0, 79, 0
2, 27360, Note_on_c, 0, 78, 127
2, 27396, Note_on_c, 0, 78, 0
2, 27408, Note_on_c, 0, 76, 127
2, 27444, Note_on_c, 0, 76, 0
2, 27456, Note_on_c, 0, 74, 127
2, 27492, Note_on_c, 0, 74, 0
2, 27504, Note_on_c, 0, 72, 127
2, 27540, Note_on_c, 0, 72, 0
2, 27552, Note_on_c, 0, 70, 127
2, 27588, Note_on_c, 0, 70, 0
2, 27600, Note_on_c, 0, 69, 127
2, 27636, Note_on_c, 0, 69, 0
2, 27648, Note_on_c, 0, 67, 127
2, 27684, Note_on_c, 0, 67, 0
2, 27696, Note_on_c, 0, 67, 127
2, 27732, Note_on_c, 0, 67, 0
2, 27744, Note_on_c, 0, 67, 127
2, 27780, Note_on_c, 0, 67, 0
2, 27792, Note_on_c, 0, 67, 127
2, 27828, Note_on_c, 0, 67, 0
2, 27840, Note_on_c, 0, 67, 127
2, 27876, Note_on_c, 0, 67, 0
2, 27888, Note_on_c, 0, 67, 127
2, 27924, Note_on_c, 0, 67, 0
2, 27936, Note_on_c, 0, 67, 127
2, 27972, Note_on_c, 0, 67, 0
2, 27984, Note_on_c, 0, 67, 127
2, 28020, Note_on_c, 0, 67, 0
2, 28032, Note_on_c, 0, 67, 127
2, 28068, Note_on_c, 0, 67, 0
2, 28080, Note_on_c, 0, 67, 127
2, 28116, Note_on_c, 0, 67, 0
2, 28128, Note_on_c, 0, 67, 127
2, 28164, Note_on_c, 0, 67, 0
2, 28176, Note_on_c, 0, 67, 127
2, 28212, Note_on_c, 0, 67, 0
2, 28224, Note_on_c, 0, 67, 127
2, 28260, Note_on_c, 0, 67, 0
2, 28272, Note_on_c, 0, 86, 127
2, 28308, Note_on_c, 0, 86, 0
2, 28320, Note_on_c, 0, 84, 127
2, 28356, Note_on_c, 0, 84, 0
2, 28368, Note_on_c, 0, 82, 127
2, 28404, Note_on_c, 0, 82, 0
2, 28416, Note_on_c, 0, 81, 127
2, 28452, Note_on_c, 0, 81, 0
2, 28464, Note_on_c, 0, 79, 127
2, 28500, Note_on_c, 0, 79, 0
2, 28512, Note_on_c, 0, 78, 127
2, 28548, Note_on_c, 0, 78, 0
2, 28560, Note_on_c, 0, 76, 127
2, 28596, Note_on_c, 0, 76, 0
2, 28608, Note_on_c, 0, 74, 127
2, 28644, Note_on_c, 0, 74, 0
2, 28656, Note_on_c, 0, 72, 127
2, 28692, Note_on_c, 0, 72, 0
2, 28704, Note_on_c, 0, 70, 127
2, 28740, Note_on_c, 0, 70, 0
2, 28752, Note_on_c, 0, 69, 127
2, 28788, Note_on_c, 0, 69, 0
2, 28800, Note_on_c, 0, 67, 127
2, 28836, Note_on_c, 0, 67, 0
2, 28848, Note_on_c, 0, 67, 127
2, 28884, Note_on_c, 0, 67, 0
2, 28896, Note_on_c, 0, 67, 127
2, 28932, Note_on_c, 0, 67, 0
2, 28944, Note_on_c, 0, 67, 127
2, 28980, Note_on_c, 0, 67, 0
2, 28992, Note_on_c, 0, 67, 127
2, 29028, Note_on_c, 0, 67, 0
2, 29040, Note_on_c, 0, 67, 127
2, 29076, Note_on_c, 0, 67, 0
2, 29088, Note_on_c, 0, 67, 127
2, 29124, Note_on_c, 0, 67, 0
2, 29136, Note_on_c, 0, 67, 127
2, 29172, Note_on_c, 0, 67, 0
2, 29184, Note_on_c, 0, 67, 127
2, 29220, Note_on_c, 0, 67, 0
2, 29232, Note_on_c, 0, 67, 127
2, 29268, Note_on_c, 0, 67, 0
2, 29280, Note_on_c, 0, 67, 127
2, 29316, Note_on_c, 0, 67, 0
2, 29328, Note_on_c, 0, 67, 127
2, 29364, Note_on_c, 0, 67, 0
2, 29376, Note_on_c, 0, 74, 127
2, 29412, Note_on_c, 0, 74, 0
2, 29424, Note_on_c, 0, 67, 127
2, 29460, Note_on_c, 0, 67, 0
2, 29472, Note_on_c, 0, 67, 127
2, 29508, Note_on_c, 0, 67, 0
2, 29520, Note_on_c, 0, 67, 127
2, 29556, Note_on_c, 0, 67, 0
2, 29568, Note_on_c, 0, 74, 127
2, 29604, Note_on_c, 0, 74, 0
2, 29616, Note_on_c, 0, 67, 127
2, 29652, Note_on_c, 0, 67, 0
2, 29664, Note_on_c, 0, 67, 127
2, 29700, Note_on_c, 0, 67, 0
2, 29712, Note_on_c, 0, 67, 127
2, 29748, Note_on_c, 0, 67, 0
2, 29760, Note_on_c, 0, 74, 127
2, 29796, Note_on_c, 0, 74, 0
2, 29808, Note_on_c, 0, 67, 127
2, 29844, Note_on_c, 0, 67, 0
2, 29856, Note_on_c, 0, 67, 127
2, 29892, Note_on_c, 0, 67, 0
2, 29904, Note_on_c, 0, 67, 127
2, 29940, Note_on_c, 0, 67, 0
2, 29952, Note_on_c, 0, 62, 127
2, 29988, Note_on_c, 0, 62, 0
2, 30000, Note_on_c, 0, 69, 127
2, 30036, Note_on_c, 0, 69, 0
2, 30048, Note_on_c, 0, 70, 127
2, 30084, Note_on_c, 0, 70, 0
2, 30096, Note_on_c, 0, 72, 127
2, 30132, Note_on_c, 0, 72, 0
2, 30144, Note_on_c, 0, 74, 127
2, 30180, Note_on_c, 0, 74, 0
2, 30192, Note_on_c, 0, 76, 127
2, 30228, Note_on_c, 0, 76, 0
2, 30240, Note_on_c, 0, 78, 127
2, 30276, Note_on_c, 0, 78, 0
2, 30288, Note_on_c, 0, 79, 127
2, 30324, Note_on_c, 0, 79, 0
2, 30336, Note_on_c, 0, 81, 127
2, 30432, Note_on_c, 0, 81, 0
2, 30576, Note_on_c, 0, 69, 127
2, 30612, Note_on_c, 0, 69, 0
2, 30624, Note_on_c, 0, 70, 127
2, 30660, Note_on_c, 0, 70, 0
2, 30672, Note_on_c, 0, 72, 127
2, 30708, Note_on_c, 0, 72, 0
2, 30720, Note_on_c, 0, 74, 127
2, 30756, Note_on_c, 0, 74, 0
2, 30768, Note_on_c, 0, 76, 127
2, 30804, Note_on_c, 0, 76, 0
2, 30816, Note_on_c, 0, 78, 127
2, 30852, Note_on_c, 0, 78, 0
2, 30864, Note_on_c, 0, 79, 127
2, 30900, Note_on_c, 0, 79, 0
2, 30912, Note_on_c, 0, 81, 127
2, 31008, Note_on_c, 0, 81, 0
2, 31152, Note_on_c, 0, 70, 127
2, 31188, Note_on_c, 0, 70, 0
2, 31200, Note_on_c, 0, 72, 127
2, 31236, Note_on_c, 0, 72, 0
2, 31248, Note_on_c, 0, 74, 127
2, 31284, Note_on_c, 0, 74, 0
2, 31296, Note_on_c, 0, 75, 127
2, 31332, Note_on_c, 0, 75, 0
2, 31344, Note_on_c, 0, 78, 127
2, 31380, Note_on_c, 0, 78, 0
2, 31392, Note_on_c, 0, 79, 127
2, 31428, Note_on_c, 0, 79, 0
2, 31440, Note_on_c, 0, 81, 127
2, 31476, Note_on_c, 0, 81, 0
2, 31488, Note_on_c, 0, 82, 127
2, 31584, Note_on_c, 0, 82, 0
2, 31728, Note_on_c, 0, 74, 127
2, 31764, Note_on_c, 0, 74, 0
2, 31776, Note_on_c, 0, 76, 127
2, 31812, Note_on_c, 0, 76, 0
2, 31824, Note_on_c, 0, 78, 127
2, 31860, Note_on_c, 0, 78, 0
2, 31872, Note_on_c, 0, 79, 127
2, 31908, Note_on_c, 0, 79, 0
2, 31920, Note_on_c, 0, 81, 127
2, 31956, Note_on_c, 0, 81, 0
2, 31968, Note_on_c, 0, 82, 127
2, 32004, Note_on_c, 0, 82, 0
2, 32016, Note_on_c, 0, 84, 127
2, 32052, Note_on_c, 0, 84, 0
2, 32064, Note_on_c, 0, 86, 127
2, 32160, Note_on_c, 0, 86, 0
2, 32304, Note_on_c, 0, 74, 127
2, 32340, Note_on_c, 0, 74, 0
2, 32352, Note_on_c, 0, 76, 127
2, 32388, Note_on_c, 0, 76, 0
2, 32400, Note_on_c, 0, 78, 127
2, 32436, Note_on_c, 0, 78, 0
2, 32448, Note_on_c, 0, 79, 127
2, 32484, Note_on_c, 0, 79, 0
2, 32496, Note_on_c, 0, 81, 127
2, 32532, Note_on_c, 0, 81, 0
2, 32544, Note_on_c, 0, 82, 127
2, 32580, Note_on_c, 0, 82, 0
2, 32592, Note_on_c, 0, 84, 127
2, 32628, Note_on_c, 0, 84, 0
2, 32640, Note_on_c, 0, 86, 127
2, 32736, Note_on_c, 0, 86, 0
2, 32880, Note_on_c, 0, 69, 127
2, 32916, Note_on_c, 0, 69, 0
2, 32928, Note_on_c, 0, 70, 127
2, 32964, Note_on_c, 0, 70, 0
2, 32976, Note_on_c, 0, 72, 127
2, 33012, Note_on_c, 0, 72, 0
2, 33024, Note_on_c, 0, 74, 127
2, 33060, Note_on_c, 0, 74, 0
2, 33072, Note_on_c, 0, 76, 127
2, 33108, Note_on_c, 0, 76, 0
2, 33120, Note_on_c, 0, 78, 127
2, 33156, Note_on_c, 0, 78, 0
2, 33168, Note_on_c, 0, 79, 127
2, 33204, Note_on_c, 0, 79, 0
2, 33216, Note_on_c, 0, 81, 127
2, 33312, Note_on_c, 0, 81, 0
2, 33456, Note_on_c, 0, 70, 127
2, 33492, Note_on_c, 0, 70, 0
2, 33504, Note_on_c, 0, 72, 127
2, 33540, Note_on_c, 0, 72, 0
2, 33552, Note_on_c, 0, 74, 127
2, 33588, Note_on_c, 0, 74, 0
2, 33600, Note_on_c, 0, 75, 127
2, 33636, Note_on_c, 0, 75, 0
2, 33648, Note_on_c, 0, 78, 127
2, 33684, Note_on_c, 0, 78, 0
2, 33696, Note_on_c, 0, 79, 127
2, 33732, Note_on_c, 0, 79, 0
2, 33744, Note_on_c, 0, 81, 127
2, 33780, Note_on_c, 0, 81, 0
2, 33792, Note_on_c, 0, 82, 127
2, 33888, Note_on_c, 0, 82, 0
2, 34032, Note_on_c, 0, 74, 127
2, 34068, Note_on_c, 0, 74, 0
2, 34080, Note_on_c, 0, 76, 127
2, 34116, Note_on_c, 0, 76, 0
2, 34128, Note_on_c, 0, 78, 127
2, 34164, Note_on_c, 0, 78, 0
2, 34176, Note_on_c, 0, 79, 127
2, 34212, Note_on_c, 0, 79, 0
2, 34224, Note_on_c, 0, 81, 127
2, 34260, Note_on_c, 0, 81, 0
2, 34272, Note_on_c, 0, 82, 127
2, 34308, Note_on_c, 0, 82, 0
2, 34320, Note_on_c, 0, 84, 127
2, 34356, Note_on_c, 0, 84, 0
2, 34368, Note_on_c, 0, 86, 127
2, 34464, Note_on_c, 0, 86, 0
2, 34560, Note_on_c, 0, 82, 127
2, 34596, Note_on_c, 0, 82, 0
2, 34608, Note_on_c, 0, 79, 127
2, 34644, Note_on_c, 0, 79, 0
2, 34656, Note_on_c, 0, 74, 127
2, 34692, Note_on_c, 0, 74, 0
2, 34704, Note_on_c, 0, 70, 126
2, 34740, Note_on_c, 0, 70, 0
2, 34752, Note_on_c, 0, 82, 125
2, 34788, Note_on_c, 0, 82, 0
2, 34800, Note_on_c, 0, 79, 124
2, 34836, Note_on_c, 0, 79, 0
2, 34848, Note_on_c, 0, 74, 124
2, 34884, Note_on_c, 0, 74, 0
2, 34896, Note_on_c, 0, 70, 123
2, 34932, Note_on_c, 0, 70, 0
2, 34944, Note_on_c, 0, 82, 122
2, 34980, Note_on_c, 0, 82, 0
2, 34992, Note_on_c, 0, 79, 121
2, 35028, Note_on_c, 0, 79, 0
2, 35040, Note_on_c, 0, 74, 120
2, 35076, Note_on_c, 0, 74, 0
2, 35088, Note_on_c, 0, 70, 120
2, 35124, Note_on_c, 0, 70, 0
2, 35136, Note_on_c, 0, 74, 119
2, 35172, Note_on_c, 0, 74, 0
2, 35184, Note_on_c, 0, 70, 118
2, 35220, Note_on_c, 0, 70, 0
2, 35232, Note_on_c, 0, 67, 117
2, 35268, Note_on_c, 0, 67, 0
2, 35280, Note_on_c, 0, 62, 116
2, 35316, Note_on_c, 0, 62, 0
2, 35328, Note_on_c, 0, 74, 116
2, 35364, Note_on_c, 0, 74, 0
2, 35376, Note_on_c, 0, 70, 115
2, 35412, Note_on_c, 0, 70, 0
2, 35424, Note_on_c, 0, 67, 114
2, 35460, Note_on_c, 0, 67, 0
2, 35472, Note_on_c, 0, 62, 113
2, 35508, Note_on_c, 0, 62, 0
2, 35520, Note_on_c, 0, 74, 112
2, 35556, Note_on_c, 0, 74, 0
2, 35568, Note_on_c, 0, 70, 112
2, 35604, Note_on_c, 0, 70, 0
2, 35616, Note_on_c, 0, 67, 111
2, 35652, Note_on_c, 0, 67, 0
2, 35664, Note_on_c, 0, 62, 110
2, 35700, Note_on_c, 0, 62, 0
2, 35712, Note_on_c, 0, 67, 109
2, 35748, Note_on_c, 0, 67, 0
2, 35760, Note_on_c, 0, 62, 108
2, 35796, Note_on_c, 0, 62, 0
2, 35808, Note_on_c, 0, 58, 108
2, 35844, Note_on_c, 0, 58, 0
2, 35856, Note_on_c, 0, 55, 107
2, 35892, Note_on_c, 0, 55, 0
2, 35904, Note_on_c, 0, 67, 106
2, 35940, Note_on_c, 0, 67, 0
2, 35952, Note_on_c, 0, 62, 105
2, 35988, Note_on_c, 0, 62, 0
2, 36000, Note_on_c, 0, 58, 104
2, 36036, Note_on_c, 0, 58, 0
2, 36048, Note_on_c, 0, 55, 104
2, 36084, Note_on_c, 0, 55, 0
2, 36096, Note_on_c, 0, 67, 103
2, 36132, Note_on_c, 0, 67, 0
2, 36144, Note_on_c, 0, 62, 102
2, 36180, Note_on_c, 0, 62, 0
2, 36192, Note_on_c, 0, 58, 101
2, 36228, Note_on_c, 0, 58, 0
2, 36240, Note_on_c, 0, 55, 100
2, 36276, Note_on_c, 0, 55, 0
2, 36288, Note_on_c, 0, 67, 127
2, 36324, Note_on_c, 0, 67, 0
2, 36336, Note_on_c, 0, 71, 127
2, 36372, Note_on_c, 0, 71, 0
2, 36384, Note_on_c, 0, 67, 127
2, 36420, Note_on_c, 0, 67, 0
2, 36432, Note_on_c, 0, 71, 127
2, 36468, Note_on_c, 0, 71, 0
2, 36480, Note_on_c, 0, 67, 127
2, 36516, Note_on_c, 0, 67, 0
2, 36528, Note_on_c, 0, 71, 127
2, 36564, Note_on_c, 0, 71, 0
2, 36576, Note_on_c, 0, 67, 127
2, 36612, Note_on_c, 0, 67, 0
2, 36624, Note_on_c, 0, 71, 127
2, 36660, Note_on_c, 0, 71, 0
2, 36672, Note_on_c, 0, 67, 127
2, 36708, Note_on_c, 0, 67, 0
2, 36720, Note_on_c, 0, 71, 127
2, 36756, Note_on_c, 0, 71, 0
2, 36768, Note_on_c, 0, 67, 127
2, 36804, Note_on_c, 0, 67, 0
2, 36816, Note_on_c, 0, 71, 127
2, 36852, Note_on_c, 0, 71, 0
2, 36864, Note_on_c, 0, 67, 127
2, 36900, Note_on_c, 0, 67, 0
2, 36912, Note_on_c, 0, 72, 127
2, 36948, Note_on_c, 0, 72, 0
2, 36960, Note_on_c, 0, 67, 127
2, 36996, Note_on_c, 0, 67, 0
2, 37008, Note_on_c, 0, 72, 127
2, 37044, Note_on_c, 0, 72, 0
2, 37056, Note_on_c, 0, 67, 127
2, 37092, Note_on_c, 0, 67, 0
2, 37104, Note_on_c, 0, 72, 127
2, 37140, Note_on_c, 0, 72, 0
2, 37152, Note_on_c, 0, 67, 127
2, 37188, Note_on_c, 0, 67, 0
2, 37200, Note_on_c, 0, 72, 127
2, 37236, Note_on_c, 0, 72, 0
2, 37248, Note_on_c, 0, 67, 127
2, 37284, Note_on_c, 0, 67, 0
2, 37296, Note_on_c, 0, 72, 127
2, 37332, Note_on_c, 0, 72, 0
2, 37344, Note_on_c, 0, 67, 127
2, 37380, Note_on_c, 0, 67, 0
2, 37392, Note_on_c, 0, 72, 127
2, 37428, Note_on_c, 0, 72, 0
2, 37440, Note_on_c, 0, 67, 127
2, 37476, Note_on_c, 0, 67, 0
2, 37488, Note_on_c, 0, 73, 127
2, 37524, Note_on_c, 0, 73, 0
2, 37536, Note_on_c, 0, 67, 127
2, 37572, Note_on_c, 0, 67, 0
2, 37584, Note_on_c, 0, 73, 127
2, 37620, Note_on_c, 0, 73, 0
2, 37632, Note_on_c, 0, 67, 127
2, 37668, Note_on_c, 0, 67, 0
2, 37680, Note_on_c, 0, 73, 127
2, 37716, Note_on_c, 0, 73, 0
2, 37728, Note_on_c, 0, 67, 127
2, 37764, Note_on_c, 0, 67, 0
2, 37776, Note_on_c, 0, 73, 127
2, 37812, Note_on_c, 0, 73, 0
2, 37824, Note_on_c, 0, 67, 127
2, 37860, Note_on_c, 0, 67, 0
2, 37872, Note_on_c, 0, 73, 127
2, 37908, Note_on_c, 0, 73, 0
2, 37920, Note_on_c, 0, 67, 127
2, 37956, Note_on_c, 0, 67, 0
2, 37968, Note_on_c, 0, 73, 127
2, 38004, Note_on_c, 0, 73, 0
2, 38016, Note_on_c, 0, 69, 127
2, 38052, Note_on_c, 0, 69, 0
2, 38064, Note_on_c, 0, 74, 127
2, 38100, Note_on_c, 0, 74, 0
2, 38112, Note_on_c, 0, 69, 127
2, 38148, Note_on_c, 0, 69, 0
2, 38160, Note_on_c, 0, 74, 127
2, 38196, Note_on_c, 0, 74, 0
2, 38208, Note_on_c, 0, 69, 127
2, 38244, Note_on_c, 0, 69, 0
2, 38256, Note_on_c, 0, 74, 127
2, 38292, Note_on_c, 0, 74, 0
2, 38304, Note_on_c, 0, 69, 127
2, 38340, Note_on_c, 0, 69, 0
2, 38352, Note_on_c, 0, 74, 127
2, 38388, Note_on_c, 0, 74, 0
2, 38400, Note_on_c, 0, 69, 127
2, 38436, Note_on_c, 0, 69, 0
2, 38448, Note_on_c, 0, 74, 127
2, 38484, Note_on_c, 0, 74, 0
2, 38496, Note_on_c, 0, 69, 127
2, 38532, Note_on_c, 0, 69, 0
2, 38544, Note_on_c, 0, 74, 127
2, 38580, Note_on_c, 0, 74, 0
2, 38592, Note_on_c, 0, 69, 127
2, 38628, Note_on_c, 0, 69, 0
2, 38640, Note_on_c, 0, 74, 127
2, 38676, Note_on_c, 0, 74, 0
2, 38688, Note_on_c, 0, 69, 127
2, 38724, Note_on_c, 0, 69, 0
2, 38736, Note_on_c, 0, 74, 127
2, 38772, Note_on_c, 0, 74, 0
2, 38784, Note_on_c, 0, 69, 127
2, 38820, Note_on_c, 0, 69, 0
2, 38832, Note_on_c, 0, 74, 127
2, 38868, Note_on_c, 0, 74, 0
2, 38880, Note_on_c, 0, 69, 127
2, 38916, Note_on_c, 0, 69, 0
2, 38928, Note_on_c, 0, 74, 127
2, 38964, Note_on_c, 0, 74, 0
2, 38976, Note_on_c, 0, 69, 127
2, 39012, Note_on_c, 0, 69, 0
2, 39024, Note_on_c, 0, 74, 127
2, 39060, Note_on_c, 0, 74, 0
2, 39072, Note_on_c, 0, 69, 127
2, 39108, Note_on_c, 0, 69, 0
2, 39120, Note_on_c, 0, 74, 127
2, 39156, Note_on_c, 0, 74, 0
2, 39168, Note_on_c, 0, 69, 127
2, 39204, Note_on_c, 0, 69, 0
2, 39216, Note_on_c, 0, 73, 127
2, 39252, Note_on_c, 0, 73, 0
2, 39264, Note_on_c, 0, 69, 127
2, 39300, Note_on_c, 0, 69, 0
2, 39312, Note_on_c, 0, 73, 127
2, 39348, Note_on_c, 0, 73, 0
2, 39360, Note_on_c, 0, 69, 127
2, 39396, Note_on_c, 0, 69, 0
2, 39408, Note_on_c, 0, 73, 127
2, 39444, Note_on_c, 0, 73, 0
2, 39456, Note_on_c, 0, 69, 127
2, 39492, Note_on_c, 0, 69, 0
2, 39504, Note_on_c, 0, 73, 127
2, 39540, Note_on_c, 0, 73, 0
2, 39552, Note_on_c, 0, 69, 127
2, 39588, Note_on_c, 0, 69, 0
2, 39600, Note_on_c, 0, 73, 127
2, 39636, Note_on_c, 0, 73, 0
2, 39648, Note_on_c, 0, 69, 127
2, 39684, Note_on_c, 0, 69, 0
2, 39696, Note_on_c, 0, 73, 127
2, 39732, Note_on_c, 0, 73, 0
2, 39744, Note_on_c, 0, 74, 127
2, 39780, Note_on_c, 0, 74, 0
2, 39792, Note_on_c, 0, 62, 127
2, 39828, Note_on_c, 0, 62, 0
2, 39840, Note_on_c, 0, 64, 127
2, 39876, Note_on_c, 0, 64, 0
2, 39888, Note_on_c, 0, 65, 127
2, 39924, Note_on_c, 0, 65, 0
2, 39936, Note_on_c, 0, 67, 127
2, 39972, Note_on_c, 0, 67, 0
2, 39984, Note_on_c, 0, 69, 127
2, 40020, Note_on_c, 0, 69, 0
2, 40032, Note_on_c, 0, 71, 127
2, 40068, Note_on_c, 0, 71, 0
2, 40080, Note_on_c, 0, 73, 127
2, 40116, Note_on_c, 0, 73, 0
2, 40128, Note_on_c, 0, 74, 127
2, 40164, Note_on_c, 0, 74, 0
2, 40176, Note_on_c, 0, 69, 127
2, 40212, Note_on_c, 0, 69, 0
2, 40224, Note_on_c, 0, 71, 127
2, 40260, Note_on_c, 0, 71, 0
2, 40272, Note_on_c, 0, 73, 127
2, 40308, Note_on_c, 0, 73, 0
2, 40320, Note_on_c, 0, 74, 127
2, 40356, Note_on_c, 0, 74, 0
2, 40368, Note_on_c, 0, 76, 127
2, 40404, Note_on_c, 0, 76, 0
2, 40416, Note_on_c, 0, 77, 127
2, 40452, Note_on_c, 0, 77, 0
2, 40464, Note_on_c, 0, 79, 127
2, 40500, Note_on_c, 0, 79, 0
2, 40512, Note_on_c, 0, 81, 127
2, 40548, Note_on_c, 0, 81, 0
2, 40560, Note_on_c, 0, 74, 127
2, 40596, Note_on_c, 0, 74, 0
2, 40608, Note_on_c, 0, 76, 127
2, 40644, Note_on_c, 0, 76, 0
2, 40656, Note_on_c, 0, 77, 127
2, 40692, Note_on_c, 0, 77, 0
2, 40704, Note_on_c, 0, 79, 127
2, 40740, Note_on_c, 0, 79, 0
2, 40752, Note_on_c, 0, 81, 127
2, 40788, Note_on_c, 0, 81, 0
2, 40800, Note_on_c, 0, 83, 127
2, 40836, Note_on_c, 0, 83, 0
2, 40848, Note_on_c, 0, 85, 127
2, 40884, Note_on_c, 0, 85, 0
2, 40896, Note_on_c, 0, 86, 127
2, 40992, Note_on_c, 0, 86, 0
2, 41136, Note_on_c, 0, 81, 127
2, 41172, Note_on_c, 0, 81, 0
2, 41184, Note_on_c, 0, 81, 127
2, 41220, Note_on_c, 0, 81, 0
2, 41232, Note_on_c, 0, 85, 127
2, 41268, Note_on_c, 0, 85, 0
2, 41280, Note_on_c, 0, 85, 127
2, 41316, Note_on_c, 0, 85, 0
2, 41328, Note_on_c, 0, 88, 127
2, 41364, Note_on_c, 0, 88, 0
2, 41376, Note_on_c, 0, 88, 127
2, 41412, Note_on_c, 0, 88, 0
2, 41424, Note_on_c, 0, 93, 127
2, 41460, Note_on_c, 0, 93, 0
2, 41472, Note_on_c, 0, 93, 127
2, 41508, Note_on_c, 0, 93, 0
2, 41520, Note_on_c, 0, 69, 127
2, 41556, Note_on_c, 0, 69, 0
2, 41568, Note_on_c, 0, 62, 127
2, 41604, Note_on_c, 0, 62, 0
2, 41616, Note_on_c, 0, 69, 127
2, 41652, Note_on_c, 0, 69, 0
2, 41664, Note_on_c, 0, 91, 127
2, 41700, Note_on_c, 0, 91, 0
2, 41712, Note_on_c, 0, 69, 127
2, 41748, Note_on_c, 0, 69, 0
2, 41760, Note_on_c, 0, 62, 127
2, 41796, Note_on_c, 0, 62, 0
2, 41808, Note_on_c, 0, 69, 127
2, 41844, Note_on_c, 0, 69, 0
2, 41856, Note_on_c, 0, 89, 127
2, 41892, Note_on_c, 0, 89, 0
2, 41904, Note_on_c, 0, 69, 127
2, 41940, Note_on_c, 0, 69, 0
2, 41952, Note_on_c, 0, 62, 127
2, 41988, Note_on_c, 0, 62, 0
2, 42000, Note_on_c, 0, 69, 127
2, 42036, Note_on_c, 0, 69, 0
2, 42048, Note_on_c, 0, 88, 127
2, 42084, Note_on_c, 0, 88, 0
2, 42096, Note_on_c, 0, 69, 127
2, 42132, Note_on_c, 0, 69, 0
2, 42144, Note_on_c, 0, 62, 127
2, 42180, Note_on_c, 0, 62, 0
2, 42192, Note_on_c, 0, 69, 127
2, 42228, Note_on_c, 0, 69, 0
2, 42240, Note_on_c, 0, 89, 127
2, 42276, Note_on_c, 0, 89, 0
2, 42288, Note_on_c, 0, 69, 127
2, 42324, Note_on_c, 0, 69, 0
2, 42336, Note_on_c, 0, 62, 127
2, 42372, Note_on_c, 0, 62, 0
2, 42384, Note_on_c, 0, 69, 127
2, 42420, Note_on_c, 0, 69, 0
2, 42432, Note_on_c, 0, 91, 127
2, 42468, Note_on_c, 0, 91, 0
2, 42480, Note_on_c, 0, 69, 127
2, 42516, Note_on_c, 0, 69, 0
2, 42528, Note_on_c, 0, 62, 127
2, 42564, Note_on_c, 0, 62, 0
2, 42576, Note_on_c, 0, 69, 127
2, 42612, Note_on_c, 0, 69, 0
2, 42624, Note_on_c, 0, 93, 127
2, 42660, Note_on_c, 0, 93, 0
2, 42672, Note_on_c, 0, 69, 127
2, 42708, Note_on_c, 0, 69, 0
2, 42720, Note_on_c, 0, 62, 127
2, 42756, Note_on_c, 0, 62, 0
2, 42768, Note_on_c, 0, 69, 127
2, 42804, Note_on_c, 0, 69, 0
2, 42816, Note_on_c, 0, 91, 127
2, 42852, Note_on_c, 0, 91, 0
2, 42864, Note_on_c, 0, 69, 127
2, 42900, Note_on_c, 0, 69, 0
2, 42912, Note_on_c, 0, 62, 127
2, 42948, Note_on_c, 0, 62, 0
2, 42960, Note_on_c, 0, 69, 127
2, 42996, Note_on_c, 0, 69, 0
2, 43008, Note_on_c, 0, 89, 127
2, 43044, Note_on_c, 0, 89, 0
2, 43056, Note_on_c, 0, 69, 127
2, 43092, Note_on_c, 0, 69, 0
2, 43104, Note_on_c, 0, 62, 127
2, 43140, Note_on_c, 0, 62, 0
2, 43152, Note_on_c, 0, 69, 127
2, 43188, Note_on_c, 0, 69, 0
2, 43200, Note_on_c, 0, 62, 127
2, 43212, Note_on_c, 0, 69, 127
2, 43224, Note_on_c, 0, 88, 127
2, 43392, Note_on_c, 0, 88, 0
2, 43392, Note_on_c, 0, 69, 0
2, 43392, Note_on_c, 0, 62, 0
2, 43440, Note_on_c, 0, 74, 127
2, 43476, Note_on_c, 0, 74, 0
2, 43488, Note_on_c, 0, 74, 127
2, 43524, Note_on_c, 0, 74, 0
2, 43536, Note_on_c, 0, 77, 127
2, 43572, Note_on_c, 0, 77, 0
2, 43584, Note_on_c, 0, 77, 127
2, 43620, Note_on_c, 0, 77, 0
2, 43632, Note_on_c, 0, 81, 127
2, 43668, Note_on_c, 0, 81, 0
2, 43680, Note_on_c, 0, 81, 127
2, 43716, Note_on_c, 0, 81, 0
2, 43728, Note_on_c, 0, 86, 127
2, 43764, Note_on_c, 0, 86, 0
2, 43776, Note_on_c, 0, 86, 127
2, 43812, Note_on_c, 0, 86, 0
2, 43824, Note_on_c, 0, 74, 127
2, 43860, Note_on_c, 0, 74, 0
2, 43872, Note_on_c, 0, 62, 127
2, 43908, Note_on_c, 0, 62, 0
2, 43920, Note_on_c, 0, 74, 127
2, 43956, Note_on_c, 0, 74, 0
2, 43968, Note_on_c, 0, 84, 127
2, 44004, Note_on_c, 0, 84, 0
2, 44016, Note_on_c, 0, 74, 127
2, 44052, Note_on_c, 0, 74, 0
2, 44064, Note_on_c, 0, 62, 127
2, 44100, Note_on_c, 0, 62, 0
2, 44112, Note_on_c, 0, 74, 127
2, 44148, Note_on_c, 0, 74, 0
2, 44160, Note_on_c, 0, 82, 127
2, 44196, Note_on_c, 0, 82, 0
2, 44208, Note_on_c, 0, 74, 127
2, 44244, Note_on_c, 0, 74, 0
2, 44256, Note_on_c, 0, 62, 127
2, 44292, Note_on_c, 0, 62, 0
2, 44304, Note_on_c, 0, 74, 127
2, 44340, Note_on_c, 0, 74, 0
2, 44352, Note_on_c, 0, 81, 127
2, 44388, Note_on_c, 0, 81, 0
2, 44400, Note_on_c, 0, 74, 127
2, 44436, Note_on_c, 0, 74, 0
2, 44448, Note_on_c, 0, 62, 127
2, 44484, Note_on_c, 0, 62, 0
2, 44496, Note_on_c, 0, 74, 127
2, 44532, Note_on_c, 0, 74, 0
2, 44544, Note_on_c, 0, 82, 127
2, 44580, Note_on_c, 0, 82, 0
2, 44592, Note_on_c, 0, 74, 127
2, 44628, Note_on_c, 0, 74, 0
2, 44640, Note_on_c, 0, 62, 127
2, 44676, Note_on_c, 0, 62, 0
2, 44688, Note_on_c, 0, 74, 127
2, 44724, Note_on_c, 0, 74, 0
2, 44736, Note_on_c, 0, 85, 127
2, 44772, Note_on_c, 0, 85, 0
2, 44784, Note_on_c, 0, 74, 127
2, 44820, Note_on_c, 0, 74, 0
2, 44832, Note_on_c, 0, 62, 127
2, 44868, Note_on_c, 0, 62, 0
2, 44880, Note_on_c, 0, 74, 127
2, 44916, Note_on_c, 0, 74, 0
2, 44928, Note_on_c, 0, 86, 127
2, 44964, Note_on_c, 0, 86, 0
2, 44976, Note_on_c, 0, 74, 127
2, 45012, Note_on_c, 0, 74, 0
2, 45024, Note_on_c, 0, 62, 127
2, 45060, Note_on_c, 0, 62, 0
2, 45072, Note_on_c, 0, 74, 127
2, 45108, Note_on_c, 0, 74, 0
2, 45120, Note_on_c, 0, 84, 127
2, 45156, Note_on_c, 0, 84, 0
2, 45168, Note_on_c, 0, 74, 127
2, 45204, Note_on_c, 0, 74, 0
2, 45216, Note_on_c, 0, 62, 127
2, 45252, Note_on_c, 0, 62, 0
2, 45264, Note_on_c, 0, 74, 127
2, 45300, Note_on_c, 0, 74, 0
2, 45312, Note_on_c, 0, 82, 127
2, 45348, Note_on_c, 0, 82, 0
2, 45360, Note_on_c, 0, 74, 127
2, 45396, Note_on_c, 0, 74, 0
2, 45408, Note_on_c, 0, 62, 127
2, 45444, Note_on_c, 0, 62, 0
2, 45456, Note_on_c, 0, 74, 127
2, 45492, Note_on_c, 0, 74, 0
2, 45504, Note_on_c, 0, 62, 127
2, 45516, Note_on_c, 0, 74, 127
2, 45528, Note_on_c, 0, 81, 127
2, 45696, Note_on_c, 0, 81, 0
2, 45696, Note_on_c, 0, 74, 0
2, 45696, Note_on_c, 0, 62, 0
2, 45744, Note_on_c, 0, 93, 127
2, 45780, Note_on_c, 0, 93, 0
2, 45792, Note_on_c, 0, 93, 127
2, 45828, Note_on_c, 0, 93, 0
2, 45840, Note_on_c, 0, 91, 127
2, 45876, Note_on_c, 0, 91, 0
2, 45888, Note_on_c, 0, 91, 127
2, 45924, Note_on_c, 0, 91, 0
2, 45936, Note_on_c, 0, 89, 127
2, 45972, Note_on_c, 0, 89, 0
2, 45984, Note_on_c, 0, 89, 127
2, 46020, Note_on_c, 0, 89, 0
2, 46032, Note_on_c, 0, 88, 127
2, 46068, Note_on_c, 0, 88, 0
2, 46080, Note_on_c, 0, 88, 127
2, 46116, Note_on_c, 0, 88, 0
2, 46128, Note_on_c, 0, 86, 127
2, 46164, Note_on_c, 0, 86, 0
2, 46176, Note_on_c, 0, 86, 127
2, 46212, Note_on_c, 0, 86, 0
2, 46224, Note_on_c, 0, 84, 127
2, 46260, Note_on_c, 0, 84, 0
2, 46272, Note_on_c, 0, 84, 127
2, 46308, Note_on_c, 0, 84, 0
2, 46320, Note_on_c, 0, 82, 127
2, 46356, Note_on_c, 0, 82, 0
2, 46368, Note_on_c, 0, 82, 127
2, 46404, Note_on_c, 0, 82, 0
2, 46416, Note_on_c, 0, 81, 127
2, 46452, Note_on_c, 0, 81, 0
2, 46464, Note_on_c, 0, 81, 127
2, 46500, Note_on_c, 0, 81, 0
2, 46512, Note_on_c, 0, 79, 127
2, 46548, Note_on_c, 0, 79, 0
2, 46560, Note_on_c, 0, 79, 127
2, 46596, Note_on_c, 0, 79, 0
2, 46608, Note_on_c, 0, 77, 127
2, 46644, Note_on_c, 0, 77, 0
2, 46656, Control_c, 0, 7, 126
2, 46656, Note_on_c, 0, 77, 127
2, 46692, Note_on_c, 0, 77, 0
2, 46704, Note_on_c, 0, 76, 127
2, 46740, Note_on_c, 0, 76, 0
2, 46752, Control_c, 0, 7, 125
2, 46752, Note_on_c, 0, 76, 127
2, 46788, Note_on_c, 0, 76, 0
2, 46800, Note_on_c, 0, 74, 127
2, 46824, Control_c, 0, 7, 124
2, 46836, Note_on_c, 0, 74, 0
2, 46848, Note_on_c, 0, 74, 127
2, 46884, Note_on_c, 0, 74, 0
2, 46896, Control_c, 0, 7, 123
2, 46896, Note_on_c, 0, 72, 127
2, 46932, Note_on_c, 0, 72, 0
2, 46944, Note_on_c, 0, 72, 127
2, 46968, Control_c, 0, 7, 122
2, 46980, Note_on_c, 0, 72, 0
2, 46992, Note_on_c, 0, 70, 127
2, 47028, Note_on_c, 0, 70, 0
2, 47040, Note_on_c, 0, 70, 127
2, 47064, Control_c, 0, 7, 121
2, 47076, Note_on_c, 0, 70, 0
2, 47088, Note_on_c, 0, 69, 127
2, 47124, Note_on_c, 0, 69, 0
2, 47136, Control_c, 0, 7, 120
2, 47136, Note_on_c, 0, 69, 127
2, 47172, Note_on_c, 0, 69, 0
2, 47184, Note_on_c, 0, 68, 127
2, 47208, Control_c, 0, 7, 119
2, 47220, Note_on_c, 0, 68, 0
2, 47232, Note_on_c, 0, 69, 127
2, 47232, Note_on_c, 0, 62, 127
2, 47280, Control_c, 0, 7, 118
2, 47328, Note_on_c, 0, 69, 0
2, 47328, Note_on_c, 0, 68, 127
2, 47376, Control_c, 0, 7, 117
2, 47424, Note_on_c, 0, 68, 0
2, 47424, Note_on_c, 0, 69, 127
2, 47448, Control_c, 0, 7, 116
2, 47520, Note_on_c, 0, 69, 0
2, 47520, Control_c, 0, 7, 115
2, 47520, Note_on_c, 0, 68, 127
2, 47592, Control_c, 0, 7, 114
2, 47616, Note_on_c, 0, 68, 0
2, 47616, Note_on_c, 0, 69, 127
2, 47688, Control_c, 0, 7, 113
2, 47712, Note_on_c, 0, 69, 0
2, 47712, Note_on_c, 0, 65, 127
2, 47760, Control_c, 0, 7, 112
2, 47808, Note_on_c, 0, 65, 0
2, 47808, Note_on_c, 0, 67, 127
2, 47832, Control_c, 0, 7, 111
2, 47904, Note_on_c, 0, 67, 0
2, 47904, Control_c, 0, 7, 110
2, 47904, Note_on_c, 0, 64, 127
2, 48000, Note_on_c, 0, 64, 0
2, 48000, Control_c, 0, 7, 109
2, 48000, Note_on_c, 0, 65, 127
2, 48072, Control_c, 0, 7, 108
2, 48096, Note_on_c, 0, 65, 0
2, 48096, Note_on_c, 0, 62, 0
2, 48096, Note_on_c, 0, 62, 127
2, 48144, Control_c, 0, 7, 107
2, 48192, Note_on_c, 0, 62, 0
2, 48192, Note_on_c, 0, 64, 127
2, 48192, Note_on_c, 0, 62, 127
2, 48216, Control_c, 0, 7, 106
2, 48288, Note_on_c, 0, 64, 0
2, 48288, Note_on_c, 0, 61, 127
2, 48312, Control_c, 0, 7, 105
2, 48384, Note_on_c, 0, 61, 0
2, 48384, Note_on_c, 0, 62, 0
2, 48384, Control_c, 0, 7, 104
2, 48384, Note_on_c, 0, 62, 127
2, 48456, Control_c, 0, 7, 103
2, 48480, Note_on_c, 0, 62, 0
2, 48480, Note_on_c, 0, 61, 127
2, 48480, Note_on_c, 0, 62, 127
2, 48528, Control_c, 0, 7, 102
2, 48576, Note_on_c, 0, 62, 0
2, 48576, Note_on_c, 0, 61, 0
2, 48576, Note_on_c, 0, 62, 127
2, 48624, Control_c, 0, 7, 101
2, 48672, Note_on_c, 0, 62, 0
2, 48672, Note_on_c, 0, 61, 127
2, 48672, Note_on_c, 0, 62, 127
2, 48696, Control_c, 0, 7, 100
2, 48768, Note_on_c, 0, 62, 0
2, 48768, Note_on_c, 0, 61, 0
2, 48768, Control_c, 0, 7, 99
2, 48768, Note_on_c, 0, 62, 127
2, 48840, Control_c, 0, 7, 98
2, 48864, Note_on_c, 0, 62, 0
2, 48864, Note_on_c, 0, 61, 127
2, 48864, Note_on_c, 0, 62, 127
2, 48936, Control_c, 0, 7, 97
2, 48960, Note_on_c, 0, 62, 0
2, 48960, Note_on_c, 0, 61, 0
2, 48960, Note_on_c, 0, 62, 127
2, 49008, Control_c, 0, 7, 96
2, 49056, Note_on_c, 0, 62, 0
2, 49056, Note_on_c, 0, 61, 127
2, 49056, Note_on_c, 0, 62, 127
2, 49080, Control_c, 0, 7, 95
2, 49152, Note_on_c, 0, 62, 0
2, 49152, Note_on_c, 0, 61, 0
2, 49152, Control_c, 0, 7, 94
2, 49152, Note_on_c, 0, 62, 127
2, 49224, Control_c, 0, 7, 93
2, 49248, Note_on_c, 0, 62, 0
2, 49248, Note_on_c, 0, 61, 127
2, 49248, Note_on_c, 0, 62, 127
2, 49320, Control_c, 0, 7, 92
2, 49344, Note_on_c, 0, 62, 0
2, 49344, Note_on_c, 0, 61, 0
2, 49344, Note_on_c, 0, 62, 127
2, 49392, Control_c, 0, 7, 91
2, 49440, Note_on_c, 0, 62, 0
2, 49440, Note_on_c, 0, 61, 127
2, 49440, Note_on_c, 0, 62, 127
2, 49464, Control_c, 0, 7, 90
2, 49536, Note_on_c, 0, 62, 0
2, 49536, Note_on_c, 0, 61, 0
2, 49536, Control_c, 0, 7, 127
2, 49536, Note_on_c, 0, 62, 127
2, 49556, Note_on_c, 0, 62, 0
2, 49632, Note_on_c, 0, 62, 127
2, 49652, Note_on_c, 0, 62, 0
2, 49728, Note_on_c, 0, 62, 127
2, 49748, Note_on_c, 0, 62, 0
2, 49824, Note_on_c, 0, 74, 127
2, 49844, Note_on_c, 0, 74, 0
2, 49920, Note_on_c, 0, 77, 127
2, 49940, Note_on_c, 0, 77, 0
2, 50016, Note_on_c, 0, 81, 127
2, 50036, Note_on_c, 0, 81, 0
2, 50112, Note_on_c, 0, 82, 127
2, 50132, Note_on_c, 0, 82, 0
2, 50208, Note_on_c, 0, 62, 127
2, 50228, Note_on_c, 0, 62, 0
2, 50304, Note_on_c, 0, 62, 127
2, 50324, Note_on_c, 0, 62, 0
2, 50400, Note_on_c, 0, 74, 127
2, 50420, Note_on_c, 0, 74, 0
2, 50496, Note_on_c, 0, 79, 127
2, 50516, Note_on_c, 0, 79, 0
2, 50592, Note_on_c, 0, 82, 127
2, 50612, Note_on_c, 0, 82, 0
2, 50688, Note_on_c, 0, 82, 127
2, 50708, Note_on_c, 0, 82, 0
2, 50784, Note_on_c, 0, 64, 127
2, 50804, Note_on_c, 0, 64, 0
2, 50880, Note_on_c, 0, 64, 127
2, 50900, Note_on_c, 0, 64, 0
2, 50976, Note_on_c, 0, 76, 127
2, 50996, Note_on_c, 0, 76, 0
2, 51072, Note_on_c, 0, 79, 127
2, 51092, Note_on_c, 0, 79, 0
2, 51168, Note_on_c, 0, 82, 127
2, 51188, Note_on_c, 0, 82, 0
2, 51264, Note_on_c, 0, 81, 127
2, 51284, Note_on_c, 0, 81, 0
2, 51360, Note_on_c, 0, 65, 127
2, 51380, Note_on_c, 0, 65, 0
2, 51456, Note_on_c, 0, 65, 127
2, 51476, Note_on_c, 0, 65, 0
2, 51552, Note_on_c, 0, 72, 127
2, 51572, Note_on_c, 0, 72, 0
2, 51648, Note_on_c, 0, 77, 127
2, 51668, Note_on_c, 0, 77, 0
2, 51744, Note_on_c, 0, 81, 127
2, 51764, Note_on_c, 0, 81, 0
2, 51840, Note_on_c, 0, 81, 127
2, 51860, Note_on_c, 0, 81, 0
2, 51936, Note_on_c, 0, 62, 127
2, 51956, Note_on_c, 0, 62, 0
2, 52032, Note_on_c, 0, 62, 127
2, 52052, Note_on_c, 0, 62, 0
2, 52128, Note_on_c, 0, 74, 127
2, 52148, Note_on_c, 0, 74, 0
2, 52224, Note_on_c, 0, 77, 127
2, 52244, Note_on_c, 0, 77, 0
2, 52320, Note_on_c, 0, 81, 127
2, 52340, Note_on_c, 0, 81, 0
2, 52416, Note_on_c, 0, 79, 127
2, 52436, Note_on_c, 0, 79, 0
2, 52512, Note_on_c, 0, 63, 127
2, 52532, Note_on_c, 0, 63, 0
2, 52608, Note_on_c, 0, 63, 127
2, 52628, Note_on_c, 0, 63, 0
2, 52704, Note_on_c, 0, 70, 127
2, 52724, Note_on_c, 0, 70, 0
2, 52800, Note_on_c, 0, 75, 127
2, 52820, Note_on_c, 0, 75, 0
2, 52896, Note_on_c, 0, 79, 127
2, 52916, Note_on_c, 0, 79, 0
2, 52992, Note_on_c, 0, 79, 127
2, 53012, Note_on_c, 0, 79, 0
2, 53088, Note_on_c, 0, 60, 127
2, 53108, Note_on_c, 0, 60, 0
2, 53184, Note_on_c, 0, 60, 127
2, 53204, Note_on_c, 0, 60, 0
2, 53280, Note_on_c, 0, 72, 127
2, 53300, Note_on_c, 0, 72, 0
2, 53376, Note_on_c, 0, 75, 127
2, 53396, Note_on_c, 0, 75, 0
2, 53472, Note_on_c, 0, 79, 127
2, 53492, Note_on_c, 0, 79, 0
2, 53568, Note_on_c, 0, 79, 127
2, 53588, Note_on_c, 0, 79, 0
2, 53664, Note_on_c, 0, 62, 127
2, 53684, Note_on_c, 0, 62, 0
2, 53760, Note_on_c, 0, 62, 127
2, 53780, Note_on_c, 0, 62, 0
2, 53856, Note_on_c, 0, 71, 127
2, 53876, Note_on_c, 0, 71, 0
2, 53952, Note_on_c, 0, 74, 127
2, 53972, Note_on_c, 0, 74, 0
2, 54048, Note_on_c, 0, 79, 127
2, 54068, Note_on_c, 0, 79, 0
2, 54144, Note_on_c, 0, 77, 127
2, 54164, Note_on_c, 0, 77, 0
2, 54240, Note_on_c, 0, 62, 127
2, 54260, Note_on_c, 0, 62, 0
2, 54336, Note_on_c, 0, 62, 127
2, 54356, Note_on_c, 0, 62, 0
2, 54432, Note_on_c, 0, 71, 127
2, 54452, Note_on_c, 0, 71, 0
2, 54528, Note_on_c, 0, 74, 127
2, 54548, Note_on_c, 0, 74, 0
2, 54624, Note_on_c, 0, 77, 127
2, 54644, Note_on_c, 0, 77, 0
2, 54720, Note_on_c, 0, 75, 127
2, 54756, Note_on_c, 0, 75, 0
2, 54768, Note_on_c, 0, 63, 127
2, 54804, Note_on_c, 0, 63, 0
2, 54816, Note_on_c, 0, 65, 127
2, 54852, Note_on_c, 0, 65, 0
2, 54864, Note_on_c, 0, 67, 127
2, 54900, Note_on_c, 0, 67, 0
2, 54912, Note_on_c, 0, 68, 127
2, 54948, Note_on_c, 0, 68, 0
2, 54960, Note_on_c, 0, 71, 127
2, 54996, Note_on_c, 0, 71, 0
2, 55008, Note_on_c, 0, 72, 127
2, 55044, Note_on_c, 0, 72, 0
2, 55056, Note_on_c, 0, 74, 127
2, 55092, Note_on_c, 0, 74, 0
2, 55104, Note_on_c, 0, 75, 127
2, 55200, Note_on_c, 0, 75, 0
2, 55344, Note_on_c, 0, 63, 127
2, 55380, Note_on_c, 0, 63, 0
2, 55392, Note_on_c, 0, 65, 127
2, 55428, Note_on_c, 0, 65, 0
2, 55440, Note_on_c, 0, 67, 127
2, 55476, Note_on_c, 0, 67, 0
2, 55488, Note_on_c, 0, 68, 127
2, 55524, Note_on_c, 0, 68, 0
2, 55536, Note_on_c, 0, 71, 127
2, 55572, Note_on_c, 0, 71, 0
2, 55584, Note_on_c, 0, 72, 127
2, 55620, Note_on_c, 0, 72, 0
2, 55632, Note_on_c, 0, 74, 127
2, 55668, Note_on_c, 0, 74, 0
2, 55680, Note_on_c, 0, 75, 127
2, 55776, Note_on_c, 0, 75, 0
2, 55920, Note_on_c, 0, 63, 127
2, 55956, Note_on_c, 0, 63, 0
2, 55968, Note_on_c, 0, 65, 127
2, 56004, Note_on_c, 0, 65, 0
2, 56016, Note_on_c, 0, 67, 127
2, 56052, Note_on_c, 0, 67, 0
2, 56064, Note_on_c, 0, 68, 127
2, 56100, Note_on_c, 0, 68, 0
2, 56112, Note_on_c, 0, 71, 127
2, 56148, Note_on_c, 0, 71, 0
2, 56160, Note_on_c, 0, 72, 127
2, 56196, Note_on_c, 0, 72, 0
2, 56208, Note_on_c, 0, 74, 127
2, 56244, Note_on_c, 0, 74, 0
2, 56256, Note_on_c, 0, 75, 127
2, 56352, Note_on_c, 0, 75, 0
2, 56448, Note_on_c, 0, 63, 97
2, 56484, Note_on_c, 0, 63, 0
2, 56496, Note_on_c, 0, 72, 97
2, 56532, Note_on_c, 0, 72, 0
2, 56544, Note_on_c, 0, 70, 98
2, 56580, Note_on_c, 0, 70, 0
2, 56592, Note_on_c, 0, 72, 99
2, 56628, Note_on_c, 0, 72, 0
2, 56640, Note_on_c, 0, 63, 100
2, 56676, Note_on_c, 0, 63, 0
2, 56688, Note_on_c, 0, 72, 101
2, 56724, Note_on_c, 0, 72, 0
2, 56736, Note_on_c, 0, 70, 102
2, 56772, Note_on_c, 0, 70, 0
2, 56784, Note_on_c, 0, 72, 103
2, 56820, Note_on_c, 0, 72, 0
2, 56832, Note_on_c, 0, 63, 103
2, 56868, Note_on_c, 0, 63, 0
2, 56880, Note_on_c, 0, 72, 104
2, 56916, Note_on_c, 0, 72, 0
2, 56928, Note_on_c, 0, 70, 105
2, 56964, Note_on_c, 0, 70, 0
2, 56976, Note_on_c, 0, 72, 106
2, 57012, Note_on_c, 0, 72, 0
2, 57024, Note_on_c, 0, 65, 107
2, 57060, Note_on_c, 0, 65, 0
2, 57072, Note_on_c, 0, 72, 108
2, 57108, Note_on_c, 0, 72, 0
2, 57120, Note_on_c, 0, 70, 109
2, 57156, Note_on_c, 0, 70, 0
2, 57168, Note_on_c, 0, 72, 109
2, 57204, Note_on_c, 0, 72, 0
2, 57216, Note_on_c, 0, 65, 110
2, 57252, Note_on_c, 0, 65, 0
2, 57264, Note_on_c, 0, 72, 111
2, 57300, Note_on_c, 0, 72, 0
2, 57312, Note_on_c, 0, 70, 112
2, 57348, Note_on_c, 0, 70, 0
2, 57360, Note_on_c, 0, 72, 113
2, 57396, Note_on_c, 0, 72, 0
2, 57408, Note_on_c, 0, 65, 114
2, 57444, Note_on_c, 0, 65, 0
2, 57456, Note_on_c, 0, 72, 115
2, 57492, Note_on_c, 0, 72, 0
2, 57504, Note_on_c, 0, 70, 115
2, 57540, Note_on_c, 0, 70, 0
2, 57552, Note_on_c, 0, 72, 116
2, 57588, Note_on_c, 0, 72, 0
2, 57600, Note_on_c, 0, 67, 117
2, 57636, Note_on_c, 0, 67, 0
2, 57648, Note_on_c, 0, 72, 118
2, 57684, Note_on_c, 0, 72, 0
2, 57696, Note_on_c, 0, 71, 119
2, 57732, Note_on_c, 0, 71, 0
2, 57744, Note_on_c, 0, 72, 120
2, 57780, Note_on_c, 0, 72, 0
2, 57792, Note_on_c, 0, 67, 121
2, 57828, Note_on_c, 0, 67, 0
2, 57840, Note_on_c, 0, 72, 121
2, 57876, Note_on_c, 0, 72, 0
2, 57888, Note_on_c, 0, 71, 122
2, 57924, Note_on_c, 0, 71, 0
2, 57936, Note_on_c, 0, 72, 123
2, 57972, Note_on_c, 0, 72, 0
2, 57984, Note_on_c, 0, 67, 124
2, 58020, Note_on_c, 0, 67, 0
2, 58032, Note_on_c, 0, 71, 125
2, 58068, Note_on_c, 0, 71, 0
2, 58080, Note_on_c, 0, 69, 126
2, 58116, Note_on_c, 0, 69, 0
2, 58128, Note_on_c, 0, 71, 127
2, 58164, Note_on_c, 0, 71, 0
2, 58176, Note_on_c, 0, 72, 127
2, 58212, Note_on_c, 0, 72, 0
2, 58224, Note_on_c, 0, 60, 127
2, 58260, Note_on_c, 0, 60, 0
2, 58272, Note_on_c, 0, 60, 127
2, 58308, Note_on_c, 0, 60, 0
2, 58320, Note_on_c, 0, 60, 127
2, 58356, Note_on_c, 0, 60, 0
2, 58368, Note_on_c, 0, 60, 127
2, 58404, Note_on_c, 0, 60, 0
2, 58416, Note_on_c, 0, 60, 127
2, 58452, Note_on_c, 0, 60, 0
2, 58464, Note_on_c, 0, 60, 127
2, 58500, Note_on_c, 0, 60, 0
2, 58512, Note_on_c, 0, 60, 127
2, 58548, Note_on_c, 0, 60, 0
2, 58560, Note_on_c, 0, 60, 127
2, 58596, Note_on_c, 0, 60, 0
2, 58608, Note_on_c, 0, 60, 127
2, 58644, Note_on_c, 0, 60, 0
2, 58656, Note_on_c, 0, 60, 127
2, 58692, Note_on_c, 0, 60, 0
2, 58704, Note_on_c, 0, 60, 127
2, 58740, Note_on_c, 0, 60, 0
2, 58752, Note_on_c, 0, 70, 127
2, 58788, Note_on_c, 0, 70, 0
2, 58800, Note_on_c, 0, 60, 127
2, 58836, Note_on_c, 0, 60, 0
2, 58848, Note_on_c, 0, 60, 127
2, 58884, Note_on_c, 0, 60, 0
2, 58896, Note_on_c, 0, 60, 127
2, 58932, Note_on_c, 0, 60, 0
2, 58944, Note_on_c, 0, 60, 127
2, 58980, Note_on_c, 0, 60, 0
2, 58992, Note_on_c, 0, 60, 127
2, 59028, Note_on_c, 0, 60, 0
2, 59040, Note_on_c, 0, 60, 127
2, 59076, Note_on_c, 0, 60, 0
2, 59088, Note_on_c, 0, 60, 127
2, 59124, Note_on_c, 0, 60, 0
2, 59136, Note_on_c, 0, 60, 127
2, 59172, Note_on_c, 0, 60, 0
2, 59184, Note_on_c, 0, 60, 127
2, 59220, Note_on_c, 0, 60, 0
2, 59232, Note_on_c, 0, 60, 127
2, 59268, Note_on_c, 0, 60, 0
2, 59280, Note_on_c, 0, 60, 127
2, 59316, Note_on_c, 0, 60, 0
2, 59328, Note_on_c, 0, 68, 127
2, 59364, Note_on_c, 0, 68, 0
2, 59376, Note_on_c, 0, 60, 127
2, 59412, Note_on_c, 0, 60, 0
2, 59424, Note_on_c, 0, 60, 127
2, 59460, Note_on_c, 0, 60, 0
2, 59472, Note_on_c, 0, 60, 127
2, 59508, Note_on_c, 0, 60, 0
2, 59520, Note_on_c, 0, 60, 127
2, 59556, Note_on_c, 0, 60, 0
2, 59568, Note_on_c, 0, 60, 127
2, 59604, Note_on_c, 0, 60, 0
2, 59616, Note_on_c, 0, 60, 127
2, 59652, Note_on_c, 0, 60, 0
2, 59664, Note_on_c, 0, 60, 127
2, 59700, Note_on_c, 0, 60, 0
2, 59712, Note_on_c, 0, 60, 127
2, 59748, Note_on_c, 0, 60, 0
2, 59760, Note_on_c, 0, 60, 127
2, 59796, Note_on_c, 0, 60, 0
2, 59808, Note_on_c, 0, 60, 127
2, 59844, Note_on_c, 0, 60, 0
2, 59856, Note_on_c, 0, 60, 127
2, 59892, Note_on_c, 0, 60, 0
2, 59904, Note_on_c, 0, 67, 127
2, 59940, Note_on_c, 0, 67, 0
2, 59952, Note_on_c, 0, 60, 127
2, 59988, Note_on_c, 0, 60, 0
2, 60000, Note_on_c, 0, 60, 127
2, 60036, Note_on_c, 0, 60, 0
2, 60048, Note_on_c, 0, 60, 127
2, 60084, Note_on_c, 0, 60, 0
2, 60096, Note_on_c, 0, 60, 127
2, 60132, Note_on_c, 0, 60, 0
2, 60144, Note_on_c, 0, 60, 127
2, 60180, Note_on_c, 0, 60, 0
2, 60192, Note_on_c, 0, 60, 127
2, 60228, Note_on_c, 0, 60, 0
2, 60240, Note_on_c, 0, 60, 127
2, 60276, Note_on_c, 0, 60, 0
2, 60288, Note_on_c, 0, 60, 127
2, 60384, Note_on_c, 0, 60, 0
2, 60480, Note_on_c, 0, 75, 127
2, 60480, Note_on_c, 0, 79, 127
2, 60516, Note_on_c, 0, 75, 0
2, 60528, Note_on_c, 0, 72, 127
2, 60564, Note_on_c, 0, 72, 0
2, 60576, Note_on_c, 0, 75, 127
2, 60612, Note_on_c, 0, 75, 0
2, 60624, Note_on_c, 0, 72, 127
2, 60660, Note_on_c, 0, 72, 0
2, 60672, Note_on_c, 0, 75, 127
2, 60708, Note_on_c, 0, 75, 0
2, 60720, Note_on_c, 0, 72, 127
2, 60756, Note_on_c, 0, 72, 0
2, 60768, Note_on_c, 0, 75, 127
2, 60804, Note_on_c, 0, 75, 0
2, 60816, Note_on_c, 0, 72, 127
2, 60852, Note_on_c, 0, 72, 0
2, 60864, Note_on_c, 0, 75, 127
2, 60900, Note_on_c, 0, 75, 0
2, 60912, Note_on_c, 0, 72, 127
2, 60948, Note_on_c, 0, 72, 0
2, 60960, Note_on_c, 0, 75, 127
2, 60996, Note_on_c, 0, 75, 0
2, 61008, Note_on_c, 0, 72, 127
2, 61044, Note_on_c, 0, 72, 0
2, 61056, Note_on_c, 0, 79, 0
2, 61056, Note_on_c, 0, 74, 127
2, 61056, Note_on_c, 0, 79, 127
2, 61092, Note_on_c, 0, 74, 0
2, 61104, Note_on_c, 0, 71, 127
2, 61140, Note_on_c, 0, 71, 0
2, 61152, Note_on_c, 0, 74, 127
2, 61188, Note_on_c, 0, 74, 0
2, 61200, Note_on_c, 0, 71, 127
2, 61236, Note_on_c, 0, 71, 0
2, 61248, Note_on_c, 0, 74, 127
2, 61284, Note_on_c, 0, 74, 0
2, 61296, Note_on_c, 0, 71, 127
2, 61332, Note_on_c, 0, 71, 0
2, 61344, Note_on_c, 0, 74, 127
2, 61380, Note_on_c, 0, 74, 0
2, 61392, Note_on_c, 0, 71, 127
2, 61428, Note_on_c, 0, 71, 0
2, 61440, Note_on_c, 0, 74, 127
2, 61476, Note_on_c, 0, 74, 0
2, 61488, Note_on_c, 0, 71, 127
2, 61524, Note_on_c, 0, 71, 0
2, 61536, Note_on_c, 0, 74, 127
2, 61572, Note_on_c, 0, 74, 0
2, 61584, Note_on_c, 0, 71, 127
2, 61620, Note_on_c, 0, 71, 0
2, 61632, Note_on_c, 0, 79, 0
2, 61632, Note_on_c, 0, 75, 127
2, 61632, Note_on_c, 0, 79, 127
2, 61668, Note_on_c, 0, 75, 0
2, 61680, Note_on_c, 0, 72, 127
2, 61716, Note_on_c, 0, 72, 0
2, 61728, Note_on_c, 0, 75, 127
2, 61764, Note_on_c, 0, 75, 0
2, 61776, Note_on_c, 0, 72, 127
2, 61812, Note_on_c, 0, 72, 0
2, 61824, Note_on_c, 0, 75, 127
2, 61860, Note_on_c, 0, 75, 0
2, 61872, Note_on_c, 0, 72, 127
2, 61908, Note_on_c, 0, 72, 0
2, 61920, Note_on_c, 0, 75, 127
2, 61956, Note_on_c, 0, 75, 0
2, 61968, Note_on_c, 0, 72, 127
2, 62004, Note_on_c, 0, 72, 0
2, 62016, Note_on_c, 0, 75, 127
2, 62052, Note_on_c, 0, 75, 0
2, 62064, Note_on_c, 0, 72, 127
2, 62100, Note_on_c, 0, 72, 0
2, 62112, Note_on_c, 0, 75, 127
2, 62148, Note_on_c, 0, 75, 0
2, 62160, Note_on_c, 0, 72, 127
2, 62196, Note_on_c, 0, 72, 0
2, 62208, Note_on_c, 0, 79, 0
2, 62208, Note_on_c, 0, 74, 127
2, 62208, Note_on_c, 0, 77, 127
2, 62244, Note_on_c, 0, 74, 0
2, 62256, Note_on_c, 0, 70, 127
2, 62292, Note_on_c, 0, 70, 0
2, 62304, Note_on_c, 0, 74, 127
2, 62340, Note_on_c, 0, 74, 0
2, 62352, Note_on_c, 0, 70, 127
2, 62388, Note_on_c, 0, 70, 0
2, 62400, Note_on_c, 0, 74, 127
2, 62436, Note_on_c, 0, 74, 0
2, 62448, Note_on_c, 0, 70, 127
2, 62484, Note_on_c, 0, 70, 0
2, 62496, Note_on_c, 0, 74, 127
2, 62532, Note_on_c, 0, 74, 0
2, 62544, Note_on_c, 0, 70, 127
2, 62580, Note_on_c, 0, 70, 0
2, 62592, Note_on_c, 0, 74, 127
2, 62628, Note_on_c, 0, 74, 0
2, 62640, Note_on_c, 0, 70, 127
2, 62676, Note_on_c, 0, 70, 0
2, 62688, Note_on_c, 0, 74, 127
2, 62724, Note_on_c, 0, 74, 0
2, 62736, Note_on_c, 0, 70, 127
2, 62772, Note_on_c, 0, 70, 0
2, 62784, Note_on_c, 0, 77, 0
2, 62784, Note_on_c, 0, 75, 127
2, 62784, Note_on_c, 0, 79, 127
2, 62820, Note_on_c, 0, 75, 0
2, 62832, Note_on_c, 0, 70, 127
2, 62868, Note_on_c, 0, 70, 0
2, 62880, Note_on_c, 0, 75, 127
2, 62916, Note_on_c, 0, 75, 0
2, 62928, Note_on_c, 0, 70, 127
2, 62964, Note_on_c, 0, 70, 0
2, 62976, Note_on_c, 0, 75, 127
2, 63012, Note_on_c, 0, 75, 0
2, 63024, Note_on_c, 0, 70, 127
2, 63060, Note_on_c, 0, 70, 0
2, 63072, Note_on_c, 0, 75, 127
2, 63108, Note_on_c, 0, 75, 0
2, 63120, Note_on_c, 0, 70, 127
2, 63156, Note_on_c, 0, 70, 0
2, 63168, Note_on_c, 0, 75, 127
2, 63204, Note_on_c, 0, 75, 0
2, 63216, Note_on_c, 0, 70, 127
2, 63252, Note_on_c, 0, 70, 0
2, 63264, Note_on_c, 0, 75, 127
2, 63300, Note_on_c, 0, 75, 0
2, 63312, Note_on_c, 0, 70, 127
2, 63348, Note_on_c, 0, 70, 0
2, 63360, Note_on_c, 0, 79, 0
2, 63360, Note_on_c, 0, 75, 127
2, 63396, Note_on_c, 0, 75, 0
2, 63408, Note_on_c, 0, 79, 127
2, 63444, Note_on_c, 0, 79, 0
2, 63456, Note_on_c, 0, 79, 127
2, 63492, Note_on_c, 0, 79, 0
2, 63504, Note_on_c, 0, 80, 127
2, 63540, Note_on_c, 0, 80, 0
2, 63552, Note_on_c, 0, 80, 127
2, 63588, Note_on_c, 0, 80, 0
2, 63600, Note_on_c, 0, 82, 127
2, 63636, Note_on_c, 0, 82, 0
2, 63648, Note_on_c, 0, 82, 127
2, 63684, Note_on_c, 0, 82, 0
2, 63696, Note_on_c, 0, 84, 127
2, 63732, Note_on_c, 0, 84, 0
2, 63744, Note_on_c, 0, 84, 127
2, 63780, Note_on_c, 0, 84, 0
2, 63792, Note_on_c, 0, 86, 127
2, 63828, Note_on_c, 0, 86, 0
2, 63840, Note_on_c, 0, 86, 127
2, 63876, Note_on_c, 0, 86, 0
2, 63888, Note_on_c, 0, 87, 127
2, 63924, Note_on_c, 0, 87, 0
2, 63936, Note_on_c, 0, 87, 127
2, 63972, Note_on_c, 0, 87, 0
2, 63984, Note_on_c, 0, 82, 127
2, 64020, Note_on_c, 0, 82, 0
2, 64032, Note_on_c, 0, 79, 127
2, 64068, Note_on_c, 0, 79, 0
2, 64080, Note_on_c, 0, 75, 127
2, 64116, Note_on_c, 0, 75, 0
2, 64128, Note_on_c, 0, 87, 127
2, 64164, Note_on_c, 0, 87, 0
2, 64176, Note_on_c, 0, 82, 127
2, 64212, Note_on_c, 0, 82, 0
2, 64224, Note_on_c, 0, 79, 127
2, 64260, Note_on_c, 0, 79, 0
2, 64272, Note_on_c, 0, 75, 127
2, 64308, Note_on_c, 0, 75, 0
2, 64320, Note_on_c, 0, 87, 127
2, 64356, Note_on_c, 0, 87, 0
2, 64368, Note_on_c, 0, 82, 127
2, 64404, Note_on_c, 0, 82, 0
2, 64416, Note_on_c, 0, 79, 127
2, 64452, Note_on_c, 0, 79, 0
2, 64464, Note_on_c, 0, 75, 127
2, 64500, Note_on_c, 0, 75, 0
2, 64512, Note_on_c, 0, 77, 127
2, 64548, Note_on_c, 0, 77, 0
2, 64560, Note_on_c, 0, 80, 127
2, 64596, Note_on_c, 0, 80, 0
2, 64608, Note_on_c, 0, 80, 127
2, 64644, Note_on_c, 0, 80, 0
2, 64656, Note_on_c, 0, 82, 127
2, 64692, Note_on_c, 0, 82, 0
2, 64704, Note_on_c, 0, 82, 127
2, 64740, Note_on_c, 0, 82, 0
2, 64752, Note_on_c, 0, 84, 127
2, 64788, Note_on_c, 0, 84, 0
2, 64800, Note_on_c, 0, 84, 127
2, 64836, Note_on_c, 0, 84, 0
2, 64848, Note_on_c, 0, 86, 127
2, 64884, Note_on_c, 0, 86, 0
2, 64896, Note_on_c, 0, 86, 127
2, 64932, Note_on_c, 0, 86, 0
2, 64944, Note_on_c, 0, 87, 127
2, 64980, Note_on_c, 0, 87, 0
2, 64992, Note_on_c, 0, 87, 127
2, 65028, Note_on_c, 0, 87, 0
2, 65040, Note_on_c, 0, 89, 127
2, 65076, Note_on_c, 0, 89, 0
2, 65088, Note_on_c, 0, 89, 127
2, 65124, Note_on_c, 0, 89, 0
2, 65136, Note_on_c, 0, 84, 127
2, 65172, Note_on_c, 0, 84, 0
2, 65184, Note_on_c, 0, 81, 127
2, 65220, Note_on_c, 0, 81, 0
2, 65232, Note_on_c, 0, 77, 127
2, 65268, Note_on_c, 0, 77, 0
2, 65280, Note_on_c, 0, 89, 127
2, 65316, Note_on_c, 0, 89, 0
2, 65328, Note_on_c, 0, 84, 127
2, 65364, Note_on_c, 0, 84, 0
2, 65376, Note_on_c, 0, 81, 127
2, 65412, Note_on_c, 0, 81, 0
2, 65424, Note_on_c, 0, 77, 127
2, 65460, Note_on_c, 0, 77, 0
2, 65472, Note_on_c, 0, 89, 127
2, 65508, Note_on_c, 0, 89, 0
2, 65520, Note_on_c, 0, 84, 127
2, 65556, Note_on_c, 0, 84, 0
2, 65568, Note_on_c, 0, 81, 127
2, 65604, Note_on_c, 0, 81, 0
2, 65616, Note_on_c, 0, 77, 127
2, 65652, Note_on_c, 0, 77, 0
2, 65664, Note_on_c, 0, 79, 127
2, 65700, Note_on_c, 0, 79, 0
2, 65712, Note_on_c, 0, 82, 127
2, 65748, Note_on_c, 0, 82, 0
2, 65760, Note_on_c, 0, 82, 127
2, 65796, Note_on_c, 0, 82, 0
2, 65808, Note_on_c, 0, 84, 127
2, 65844, Note_on_c, 0, 84, 0
2, 65856, Note_on_c, 0, 84, 127
2, 65892, Note_on_c, 0, 84, 0
2, 65904, Note_on_c, 0, 86, 127
2, 65940, Note_on_c, 0, 86, 0
2, 65952, Note_on_c, 0, 86, 127
2, 65988, Note_on_c, 0, 86, 0
2, 66000, Note_on_c, 0, 87, 127
2, 66036, Note_on_c, 0, 87, 0
2, 66048, Note_on_c, 0, 87, 127
2, 66084, Note_on_c, 0, 87, 0
2, 66096, Note_on_c, 0, 89, 127
2, 66132, Note_on_c, 0, 89, 0
2, 66144, Note_on_c, 0, 89, 127
2, 66180, Note_on_c, 0, 89, 0
2, 66192, Note_on_c, 0, 91, 127
2, 66228, Note_on_c, 0, 91, 0
2, 66240, Note_on_c, 0, 91, 127
2, 66276, Note_on_c, 0, 91, 0
2, 66288, Note_on_c, 0, 86, 127
2, 66324, Note_on_c, 0, 86, 0
2, 66336, Note_on_c, 0, 83, 127
2, 66372, Note_on_c, 0, 83, 0
2, 66384, Note_on_c, 0, 79, 127
2, 66420, Note_on_c, 0, 79, 0
2, 66432, Note_on_c, 0, 91, 127
2, 66468, Note_on_c, 0, 91, 0
2, 66480, Note_on_c, 0, 86, 127
2, 66516, Note_on_c, 0, 86, 0
2, 66528, Note_on_c, 0, 83, 127
2, 66564, Note_on_c, 0, 83, 0
2, 66576, Note_on_c, 0, 79, 127
2, 66612, Note_on_c, 0, 79, 0
2, 66624, Note_on_c, 0, 91, 127
2, 66660, Note_on_c, 0, 91, 0
2, 66672, Note_on_c, 0, 86, 127
2, 66708, Note_on_c, 0, 86, 0
2, 66720, Note_on_c, 0, 83, 127
2, 66756, Note_on_c, 0, 83, 0
2, 66768, Note_on_c, 0, 79, 127
2, 66804, Note_on_c, 0, 79, 0
2, 66816, Note_on_c, 0, 87, 127
2, 66852, Note_on_c, 0, 87, 0
2, 66864, Note_on_c, 0, 60, 127
2, 66900, Note_on_c, 0, 60, 0
2, 66912, Note_on_c, 0, 60, 127
2, 66948, Note_on_c, 0, 60, 0
2, 66960, Note_on_c, 0, 60, 127
2, 66996, Note_on_c, 0, 60, 0
2, 67008, Note_on_c, 0, 60, 127
2, 67044, Note_on_c, 0, 60, 0
2, 67056, Note_on_c, 0, 60, 127
2, 67092, Note_on_c, 0, 60, 0
2, 67104, Note_on_c, 0, 60, 127
2, 67140, Note_on_c, 0, 60, 0
2, 67152, Note_on_c, 0, 60, 127
2, 67188, Note_on_c, 0, 60, 0
2, 67200, Note_on_c, 0, 60, 127
2, 67236, Note_on_c, 0, 60, 0
2, 67248, Note_on_c, 0, 60, 127
2, 67284, Note_on_c, 0, 60, 0
2, 67296, Note_on_c, 0, 60, 127
2, 67332, Note_on_c, 0, 60, 0
2, 67344, Note_on_c, 0, 60, 127
2, 67380, Note_on_c, 0, 60, 0
2, 67392, Note_on_c, 0, 68, 127
2, 67428, Note_on_c, 0, 68, 0
2, 67440, Note_on_c, 0, 60, 127
2, 67476, Note_on_c, 0, 60, 0
2, 67488, Note_on_c, 0, 60, 127
2, 67524, Note_on_c, 0, 60, 0
2, 67536, Note_on_c, 0, 60, 127
2, 67572, Note_on_c, 0, 60, 0
2, 67584, Note_on_c, 0, 68, 127
2, 67620, Note_on_c, 0, 68, 0
2, 67632, Note_on_c, 0, 60, 127
2, 67668, Note_on_c, 0, 60, 0
2, 67680, Note_on_c, 0, 60, 127
2, 67716, Note_on_c, 0, 60, 0
2, 67728, Note_on_c, 0, 60, 127
2, 67764, Note_on_c, 0, 60, 0
2, 67776, Note_on_c, 0, 68, 127
2, 67812, Note_on_c, 0, 68, 0
2, 67824, Note_on_c, 0, 60, 127
2, 67860, Note_on_c, 0, 60, 0
2, 67872, Note_on_c, 0, 60, 127
2, 67908, Note_on_c, 0, 60, 0
2, 67920, Note_on_c, 0, 60, 127
2, 67956, Note_on_c, 0, 60, 0
2, 67968, Note_on_c, 0, 59, 127
2, 68004, Note_on_c, 0, 59, 0
2, 68016, Note_on_c, 0, 59, 127
2, 68052, Note_on_c, 0, 59, 0
2, 68064, Note_on_c, 0, 59, 127
2, 68100, Note_on_c, 0, 59, 0
2, 68112, Note_on_c, 0, 59, 127
2, 68148, Note_on_c, 0, 59, 0
2, 68160, Note_on_c, 0, 59, 127
2, 68196, Note_on_c, 0, 59, 0
2, 68208, Note_on_c, 0, 59, 127
2, 68244, Note_on_c, 0, 59, 0
2, 68256, Note_on_c, 0, 59, 127
2, 68292, Note_on_c, 0, 59, 0
2, 68304, Note_on_c, 0, 59, 127
2, 68340, Note_on_c, 0, 59, 0
2, 68352, Note_on_c, 0, 59, 127
2, 68388, Note_on_c, 0, 59, 0
2, 68400, Note_on_c, 0, 59, 127
2, 68436, Note_on_c, 0, 59, 0
2, 68448, Note_on_c, 0, 59, 127
2, 68484, Note_on_c, 0, 59, 0
2, 68496, Note_on_c, 0, 59, 127
2, 68532, Note_on_c, 0, 59, 0
2, 68544, Note_on_c, 0, 67, 127
2, 68580, Note_on_c, 0, 67, 0
2, 68592, Note_on_c, 0, 58, 127
2, 68628, Note_on_c, 0, 58, 0
2, 68640, Note_on_c, 0, 58, 127
2, 68676, Note_on_c, 0, 58, 0
2, 68688, Note_on_c, 0, 58, 127
2, 68724, Note_on_c, 0, 58, 0
2, 68736, Note_on_c, 0, 67, 127
2, 68772, Note_on_c, 0, 67, 0
2, 68784, Note_on_c, 0, 58, 127
2, 68820, Note_on_c, 0, 58, 0
2, 68832, Note_on_c, 0, 58, 127
2, 68868, Note_on_c, 0, 58, 0
2, 68880, Note_on_c, 0, 58, 127
2, 68916, Note_on_c, 0, 58, 0
2, 68928, Note_on_c, 0, 67, 127
2, 68964, Note_on_c, 0, 67, 0
2, 68976, Note_on_c, 0, 58, 127
2, 69012, Note_on_c, 0, 58, 0
2, 69024, Note_on_c, 0, 58, 127
2, 69060, Note_on_c, 0, 58, 0
2, 69072, Note_on_c, 0, 58, 127
2, 69108, Note_on_c, 0, 58, 0
2, 69120, Note_on_c, 0, 57, 127
2, 69156, Note_on_c, 0, 57, 0
2, 69168, Note_on_c, 0, 57, 127
2, 69204, Note_on_c, 0, 57, 0
2, 69216, Note_on_c, 0, 57, 127
2, 69252, Note_on_c, 0, 57, 0
2, 69264, Note_on_c, 0, 57, 127
2, 69300, Note_on_c, 0, 57, 0
2, 69312, Note_on_c, 0, 57, 127
2, 69348, Note_on_c, 0, 57, 0
2, 69360, Note_on_c, 0, 57, 127
2, 69396, Note_on_c, 0, 57, 0
2, 69408, Note_on_c, 0, 57, 127
2, 69444, Note_on_c, 0, 57, 0
2, 69456, Note_on_c, 0, 57, 127
2, 69492, Note_on_c, 0, 57, 0
2, 69504, Note_on_c, 0, 57, 127
2, 69540, Note_on_c, 0, 57, 0
2, 69552, Note_on_c, 0, 57, 127
2, 69588, Note_on_c, 0, 57, 0
2, 69600, Note_on_c, 0, 57, 127
2, 69636, Note_on_c, 0, 57, 0
2, 69648, Note_on_c, 0, 57, 127
2, 69684, Note_on_c, 0, 57, 0
2, 69696, Note_on_c, 0, 65, 127
2, 69732, Note_on_c, 0, 65, 0
2, 69744, Note_on_c, 0, 56, 127
2, 69780, Note_on_c, 0, 56, 0
2, 69792, Note_on_c, 0, 56, 127
2, 69828, Note_on_c, 0, 56, 0
2, 69840, Note_on_c, 0, 56, 127
2, 69876, Note_on_c, 0, 56, 0
2, 69888, Note_on_c, 0, 65, 127
2, 69924, Note_on_c, 0, 65, 0
2, 69936, Note_on_c, 0, 56, 127
2, 69972, Note_on_c, 0, 56, 0
2, 69984, Note_on_c, 0, 56, 127
2, 70020, Note_on_c, 0, 56, 0
2, 70032, Note_on_c, 0, 56, 127
2, 70068, Note_on_c, 0, 56, 0
2, 70080, Note_on_c, 0, 65, 127
2, 70116, Note_on_c, 0, 65, 0
2, 70128, Note_on_c, 0, 56, 127
2, 70164, Note_on_c, 0, 56, 0
2, 70176, Note_on_c, 0, 56, 127
2, 70212, Note_on_c, 0, 56, 0
2, 70224, Note_on_c, 0, 56, 127
2, 70260, Note_on_c, 0, 56, 0
2, 70272, Note_on_c, 0, 55, 127
2, 70308, Note_on_c, 0, 55, 0
2, 70320, Note_on_c, 0, 67, 127
2, 70356, Note_on_c, 0, 67, 0
2, 70368, Note_on_c, 0, 67, 127
2, 70404, Note_on_c, 0, 67, 0
2, 70416, Note_on_c, 0, 67, 127
2, 70452, Note_on_c, 0, 67, 0
2, 70464, Note_on_c, 0, 67, 127
2, 70500, Note_on_c, 0, 67, 0
2, 70512, Note_on_c, 0, 67, 127
2, 70548, Note_on_c, 0, 67, 0
2, 70560, Note_on_c, 0, 67, 127
2, 70596, Note_on_c, 0, 67, 0
2, 70608, Note_on_c, 0, 67, 127
2, 70644, Note_on_c, 0, 67, 0
2, 70656, Note_on_c, 0, 67, 127
2, 70692, Note_on_c, 0, 67, 0
2, 70704, Note_on_c, 0, 67, 127
2, 70740, Note_on_c, 0, 67, 0
2, 70752, Note_on_c, 0, 67, 127
2, 70788, Note_on_c, 0, 67, 0
2, 70800, Note_on_c, 0, 67, 127
2, 70836, Note_on_c, 0, 67, 0
2, 70848, Note_on_c, 0, 75, 127
2, 70884, Note_on_c, 0, 75, 0
2, 70896, Note_on_c, 0, 67, 127
2, 70932, Note_on_c, 0, 67, 0
2, 70944, Note_on_c, 0, 67, 127
2, 70980, Note_on_c, 0, 67, 0
2, 70992, Note_on_c, 0, 67, 127
2, 71028, Note_on_c, 0, 67, 0
2, 71040, Note_on_c, 0, 75, 127
2, 71076, Note_on_c, 0, 75, 0
2, 71088, Note_on_c, 0, 67, 127
2, 71124, Note_on_c, 0, 67, 0
2, 71136, Note_on_c, 0, 67, 127
2, 71172, Note_on_c, 0, 67, 0
2, 71184, Note_on_c, 0, 67, 127
2, 71220, Note_on_c, 0, 67, 0
2, 71232, Note_on_c, 0, 75, 127
2, 71268, Note_on_c, 0, 75, 0
2, 71280, Note_on_c, 0, 67, 127
2, 71316, Note_on_c, 0, 67, 0
2, 71328, Note_on_c, 0, 67, 127
2, 71364, Note_on_c, 0, 67, 0
2, 71376, Note_on_c, 0, 67, 127
2, 71412, Note_on_c, 0, 67, 0
2, 71424, Note_on_c, 0, 66, 127
2, 71460, Note_on_c, 0, 66, 0
2, 71472, Note_on_c, 0, 66, 127
2, 71508, Note_on_c, 0, 66, 0
2, 71520, Note_on_c, 0, 66, 127
2, 71556, Note_on_c, 0, 66, 0
2, 71568, Note_on_c, 0, 66, 127
2, 71604, Note_on_c, 0, 66, 0
2, 71616, Note_on_c, 0, 66, 127
2, 71652, Note_on_c, 0, 66, 0
2, 71664, Note_on_c, 0, 66, 127
2, 71700, Note_on_c, 0, 66, 0
2, 71712, Note_on_c, 0, 66, 127
2, 71748, Note_on_c, 0, 66, 0
2, 71760, Note_on_c, 0, 66, 127
2, 71796, Note_on_c, 0, 66, 0
2, 71808, Note_on_c, 0, 66, 127
2, 71844, Note_on_c, 0, 66, 0
2, 71856, Note_on_c, 0, 66, 127
2, 71892, Note_on_c, 0, 66, 0
2, 71904, Note_on_c, 0, 66, 127
2, 71940, Note_on_c, 0, 66, 0
2, 71952, Note_on_c, 0, 66, 127
2, 71988, Note_on_c, 0, 66, 0
2, 72000, Note_on_c, 0, 74, 127
2, 72036, Note_on_c, 0, 74, 0
2, 72048, Note_on_c, 0, 65, 127
2, 72084, Note_on_c, 0, 65, 0
2, 72096, Note_on_c, 0, 65, 127
2, 72132, Note_on_c, 0, 65, 0
2, 72144, Note_on_c, 0, 65, 127
2, 72180, Note_on_c, 0, 65, 0
2, 72192, Note_on_c, 0, 74, 127
2, 72228, Note_on_c, 0, 74, 0
2, 72240, Note_on_c, 0, 65, 127
2, 72276, Note_on_c, 0, 65, 0
2, 72288, Note_on_c, 0, 65, 127
2, 72324, Note_on_c, 0, 65, 0
2, 72336, Note_on_c, 0, 65, 127
2, 72372, Note_on_c, 0, 65, 0
2, 72384, Note_on_c, 0, 74, 127
2, 72420, Note_on_c, 0, 74, 0
2, 72432, Note_on_c, 0, 65, 127
2, 72468, Note_on_c, 0, 65, 0
2, 72480, Note_on_c, 0, 65, 127
2, 72516, Note_on_c, 0, 65, 0
2, 72528, Note_on_c, 0, 65, 127
2, 72564, Note_on_c, 0, 65, 0
2, 72576, Note_on_c, 0, 64, 127
2, 72612, Note_on_c, 0, 64, 0
2, 72624, Note_on_c, 0, 64, 127
2, 72660, Note_on_c, 0, 64, 0
2, 72672, Note_on_c, 0, 64, 127
2, 72708, Note_on_c, 0, 64, 0
2, 72720, Note_on_c, 0, 64, 127
2, 72756, Note_on_c, 0, 64, 0
2, 72768, Note_on_c, 0, 64, 127
2, 72804, Note_on_c, 0, 64, 0
2, 72816, Note_on_c, 0, 64, 127
2, 72852, Note_on_c, 0, 64, 0
2, 72864, Note_on_c, 0, 64, 127
2, 72900, Note_on_c, 0, 64, 0
2, 72912, Note_on_c, 0, 64, 127
2, 72948, Note_on_c, 0, 64, 0
2, 72960, Note_on_c, 0, 64, 127
2, 72996, Note_on_c, 0, 64, 0
2, 73008, Note_on_c, 0, 64, 127
2, 73044, Note_on_c, 0, 64, 0
2, 73056, Note_on_c, 0, 64, 127
2, 73092, Note_on_c, 0, 64, 0
2, 73104, Note_on_c, 0, 64, 127
2, 73140, Note_on_c, 0, 64, 0
2, 73152, Note_on_c, 0, 72, 127
2, 73188, Note_on_c, 0, 72, 0
2, 73200, Note_on_c, 0, 63, 127
2, 73236, Note_on_c, 0, 63, 0
2, 73248, Note_on_c, 0, 63, 127
2, 73284, Note_on_c, 0, 63, 0
2, 73296, Note_on_c, 0, 63, 127
2, 73332, Note_on_c, 0, 63, 0
2, 73344, Note_on_c, 0, 72, 127
2, 73380, Note_on_c, 0, 72, 0
2, 73392, Note_on_c, 0, 63, 127
2, 73428, Note_on_c, 0, 63, 0
2, 73440, Note_on_c, 0, 63, 127
2, 73476, Note_on_c, 0, 63, 0
2, 73488, Note_on_c, 0, 63, 127
2, 73524, Note_on_c, 0, 63, 0
2, 73536, Note_on_c, 0, 72, 127
2, 73572, Note_on_c, 0, 72, 0
2, 73584, Note_on_c, 0, 63, 127
2, 73620, Note_on_c, 0, 63, 0
2, 73632, Note_on_c, 0, 63, 127
2, 73668, Note_on_c, 0, 63, 0
2, 73680, Note_on_c, 0, 63, 127
2, 73716, Note_on_c, 0, 63, 0
2, 73728, Note_on_c, 0, 62, 127
2, 73764, Note_on_c, 0, 62, 0
2, 73776, Note_on_c, 0, 62, 127
2, 73812, Note_on_c, 0, 62, 0
2, 73824, Note_on_c, 0, 62, 127
2, 73860, Note_on_c, 0, 62, 0
2, 73872, Note_on_c, 0, 62, 127
2, 73908, Note_on_c, 0, 62, 0
2, 73920, Note_on_c, 0, 66, 127
2, 73956, Note_on_c, 0, 66, 0
2, 73968, Note_on_c, 0, 62, 127
2, 74004, Note_on_c, 0, 62, 0
2, 74016, Note_on_c, 0, 62, 127
2, 74052, Note_on_c, 0, 62, 0
2, 74064, Note_on_c, 0, 62, 127
2, 74100, Note_on_c, 0, 62, 0
2, 74112, Note_on_c, 0, 69, 127
2, 74148, Note_on_c, 0, 69, 0
2, 74160, Note_on_c, 0, 62, 127
2, 74196, Note_on_c, 0, 62, 0
2, 74208, Note_on_c, 0, 62, 127
2, 74244, Note_on_c, 0, 62, 0
2, 74256, Note_on_c, 0, 62, 127
2, 74292, Note_on_c, 0, 62, 0
2, 74304, Note_on_c, 0, 70, 127
2, 74340, Note_on_c, 0, 70, 0
2, 74352, Note_on_c, 0, 62, 127
2, 74388, Note_on_c, 0, 62, 0
2, 74400, Note_on_c, 0, 62, 127
2, 74436, Note_on_c, 0, 62, 0
2, 74448, Note_on_c, 0, 62, 127
2, 74484, Note_on_c, 0, 62, 0
2, 74496, Note_on_c, 0, 72, 127
2, 74532, Note_on_c, 0, 72, 0
2, 74544, Note_on_c, 0, 62, 127
2, 74580, Note_on_c, 0, 62, 0
2, 74592, Note_on_c, 0, 62, 127
2, 74628, Note_on_c, 0, 62, 0
2, 74640, Note_on_c, 0, 62, 127
2, 74676, Note_on_c, 0, 62, 0
2, 74688, Note_on_c, 0, 74, 127
2, 74724, Note_on_c, 0, 74, 0
2, 74736, Note_on_c, 0, 62, 127
2, 74772, Note_on_c, 0, 62, 0
2, 74784, Note_on_c, 0, 62, 127
2, 74820, Note_on_c, 0, 62, 0
2, 74832, Note_on_c, 0, 62, 127
2, 74868, Note_on_c, 0, 62, 0
2, 74880, Note_on_c, 0, 75, 127
2, 74916, Note_on_c, 0, 75, 0
2, 74928, Note_on_c, 0, 62, 127
2, 74964, Note_on_c, 0, 62, 0
2, 74976, Note_on_c, 0, 62, 127
2, 75012, Note_on_c, 0, 62, 0
2, 75024, Note_on_c, 0, 62, 127
2, 75060, Note_on_c, 0, 62, 0
2, 75072, Note_on_c, 0, 78, 127
2, 75108, Note_on_c, 0, 78, 0
2, 75120, Note_on_c, 0, 62, 127
2, 75156, Note_on_c, 0, 62, 0
2, 75168, Note_on_c, 0, 62, 127
2, 75204, Note_on_c, 0, 62, 0
2, 75216, Note_on_c, 0, 62, 127
2, 75252, Note_on_c, 0, 62, 0
2, 75264, Note_on_c, 0, 79, 127
2, 75300, Note_on_c, 0, 79, 0
2, 75312, Note_on_c, 0, 62, 127
2, 75348, Note_on_c, 0, 62, 0
2, 75360, Note_on_c, 0, 62, 127
2, 75396, Note_on_c, 0, 62, 0
2, 75408, Note_on_c, 0, 62, 127
2, 75444, Note_on_c, 0, 62, 0
2, 75456, Note_on_c, 0, 81, 127
2, 75492, Note_on_c, 0, 81, 0
2, 75504, Note_on_c, 0, 62, 127
2, 75540, Note_on_c, 0, 62, 0
2, 75552, Note_on_c, 0, 62, 127
2, 75588, Note_on_c, 0, 62, 0
2, 75600, Note_on_c, 0, 62, 127
2, 75636, Note_on_c, 0, 62, 0
2, 75648, Note_on_c, 0, 82, 127
2, 75684, Note_on_c, 0, 82, 0
2, 75696, Note_on_c, 0, 62, 127
2, 75732, Note_on_c, 0, 62, 0
2, 75744, Note_on_c, 0, 62, 127
2, 75780, Note_on_c, 0, 62, 0
2, 75792, Note_on_c, 0, 62, 127
2, 75828, Note_on_c, 0, 62, 0
2, 75840, Note_on_c, 0, 84, 127
2, 75876, Note_on_c, 0, 84, 0
2, 75888, Note_on_c, 0, 62, 127
2, 75924, Note_on_c, 0, 62, 0
2, 75936, Note_on_c, 0, 62, 127
2, 75972, Note_on_c, 0, 62, 0
2, 75984, Note_on_c, 0, 62, 127
2, 76020, Note_on_c, 0, 62, 0
2, 76032, Note_on_c, 0, 86, 127
2, 76068, Note_on_c, 0, 86, 0
2, 76080, Note_on_c, 0, 74, 127
2, 76116, Note_on_c, 0, 74, 0
2, 76128, Note_on_c, 0, 72, 127
2, 76164, Note_on_c, 0, 72, 0
2, 76176, Note_on_c, 0, 70, 127
2, 76212, Note_on_c, 0, 70, 0
2, 76224, Note_on_c, 0, 69, 127
2, 76260, Note_on_c, 0, 69, 0
2, 76272, Note_on_c, 0, 67, 127
2, 76308, Note_on_c, 0, 67, 0
2, 76320, Note_on_c, 0, 66, 127
2, 76356, Note_on_c, 0, 66, 0
2, 76368, Note_on_c, 0, 64, 127
2, 76404, Note_on_c, 0, 64, 0
2, 76416, Note_on_c, 0, 62, 127
2, 76452, Note_on_c, 0, 62, 0
2, 76464, Note_on_c, 0, 60, 127
2, 76500, Note_on_c, 0, 60, 0
2, 76512, Note_on_c, 0, 58, 127
2, 76548, Note_on_c, 0, 58, 0
2, 76560, Note_on_c, 0, 57, 127
2, 76596, Note_on_c, 0, 57, 0
2, 76608, Note_on_c, 0, 55, 127
2, 76644, Note_on_c, 0, 55, 0
2, 76656, Note_on_c, 0, 55, 127
2, 76692, Note_on_c, 0, 55, 0
2, 76704, Note_on_c, 0, 55, 127
2, 76740, Note_on_c, 0, 55, 0
2, 76752, Note_on_c, 0, 55, 127
2, 76788, Note_on_c, 0, 55, 0
2, 76800, Note_on_c, 0, 55, 127
2, 76836, Note_on_c, 0, 55, 0
2, 76848, Note_on_c, 0, 55, 127
2, 76884, Note_on_c, 0, 55, 0
2, 76896, Note_on_c, 0, 55, 127
2, 76932, Note_on_c, 0, 55, 0
2, 76944, Note_on_c, 0, 55, 127
2, 76980, Note_on_c, 0, 55, 0
2, 76992, Note_on_c, 0, 55, 127
2, 77028, Note_on_c, 0, 55, 0
2, 77040, Note_on_c, 0, 55, 127
2, 77076, Note_on_c, 0, 55, 0
2, 77088, Note_on_c, 0, 55, 127
2, 77124, Note_on_c, 0, 55, 0
2, 77136, Note_on_c, 0, 55, 127
2, 77172, Note_on_c, 0, 55, 0
2, 77184, Note_on_c, 0, 55, 127
2, 77220, Note_on_c, 0, 55, 0
2, 77232, Note_on_c, 0, 79, 127
2, 77268, Note_on_c, 0, 79, 0
2, 77280, Note_on_c, 0, 77, 127
2, 77316, Note_on_c, 0, 77, 0
2, 77328, Note_on_c, 0, 75, 127
2, 77364, Note_on_c, 0, 75, 0
2, 77376, Note_on_c, 0, 74, 127
2, 77412, Note_on_c, 0, 74, 0
2, 77424, Note_on_c, 0, 72, 127
2, 77460, Note_on_c, 0, 72, 0
2, 77472, Note_on_c, 0, 70, 127
2, 77508, Note_on_c, 0, 70, 0
2, 77520, Note_on_c, 0, 69, 127
2, 77556, Note_on_c, 0, 69, 0
2, 77568, Note_on_c, 0, 67, 127
2, 77604, Note_on_c, 0, 67, 0
2, 77616, Note_on_c, 0, 65, 127
2, 77652, Note_on_c, 0, 65, 0
2, 77664, Note_on_c, 0, 63, 127
2, 77700, Note_on_c, 0, 63, 0
2, 77712, Note_on_c, 0, 62, 127
2, 77748, Note_on_c, 0, 62, 0
2, 77760, Note_on_c, 0, 60, 127
2, 77796, Note_on_c, 0, 60, 0
2, 77808, Note_on_c, 0, 60, 127
2, 77844, Note_on_c, 0, 60, 0
2, 77856, Note_on_c, 0, 60, 127
2, 77892, Note_on_c, 0, 60, 0
2, 77904, Note_on_c, 0, 60, 127
2, 77940, Note_on_c, 0, 60, 0
2, 77952, Note_on_c, 0, 60, 127
2, 77988, Note_on_c, 0, 60, 0
2, 78000, Note_on_c, 0, 60, 127
2, 78036, Note_on_c, 0, 60, 0
2, 78048, Note_on_c, 0, 60, 127
2, 78084, Note_on_c, 0, 60, 0
2, 78096, Note_on_c, 0, 60, 127
2, 78132, Note_on_c, 0, 60, 0
2, 78144, Note_on_c, 0, 60, 127
2, 78180, Note_on_c, 0, 60, 0
2, 78192, Note_on_c, 0, 60, 127
2, 78228, Note_on_c, 0, 60, 0
2, 78240, Note_on_c, 0, 60, 127
2, 78276, Note_on_c, 0, 60, 0
2, 78288, Note_on_c, 0, 60, 127
2, 78324, Note_on_c, 0, 60, 0
2, 78336, Note_on_c, 0, 60, 127
2, 78372, Note_on_c, 0, 60, 0
2, 78384, Note_on_c, 0, 82, 127
2, 78420, Note_on_c, 0, 82, 0
2, 78432, Note_on_c, 0, 81, 127
2, 78468, Note_on_c, 0, 81, 0
2, 78480, Note_on_c, 0, 79, 127
2, 78516, Note_on_c, 0, 79, 0
2, 78528, Note_on_c, 0, 77, 127
2, 78564, Note_on_c, 0, 77, 0
2, 78576, Note_on_c, 0, 75, 127
2, 78612, Note_on_c, 0, 75, 0
2, 78624, Note_on_c, 0, 74, 127
2, 78660, Note_on_c, 0, 74, 0
2, 78672, Note_on_c, 0, 72, 127
2, 78708, Note_on_c, 0, 72, 0
2, 78720, Note_on_c, 0, 70, 127
2, 78756, Note_on_c, 0, 70, 0
2, 78768, Note_on_c, 0, 69, 127
2, 78804, Note_on_c, 0, 69, 0
2, 78816, Note_on_c, 0, 67, 127
2, 78852, Note_on_c, 0, 67, 0
2, 78864, Note_on_c, 0, 65, 127
2, 78900, Note_on_c, 0, 65, 0
2, 78912, Note_on_c, 0, 63, 127
2, 78948, Note_on_c, 0, 63, 0
2, 78960, Note_on_c, 0, 63, 127
2, 78996, Note_on_c, 0, 63, 0
2, 79008, Note_on_c, 0, 63, 127
2, 79044, Note_on_c, 0, 63, 0
2, 79056, Note_on_c, 0, 63, 127
2, 79092, Note_on_c, 0, 63, 0
2, 79104, Note_on_c, 0, 63, 127
2, 79140, Note_on_c, 0, 63, 0
2, 79152, Note_on_c, 0, 63, 127
2, 79188, Note_on_c, 0, 63, 0
2, 79200, Note_on_c, 0, 63, 127
2, 79236, Note_on_c, 0, 63, 0
2, 79248, Note_on_c, 0, 63, 127
2, 79284, Note_on_c, 0, 63, 0
2, 79296, Note_on_c, 0, 63, 127
2, 79332, Note_on_c, 0, 63, 0
2, 79344, Note_on_c, 0, 63, 127
2, 79380, Note_on_c, 0, 63, 0
2, 79392, Note_on_c, 0, 63, 127
2, 79428, Note_on_c, 0, 63, 0
2, 79440, Note_on_c, 0, 63, 127
2, 79476, Note_on_c, 0, 63, 0
2, 79488, Note_on_c, 0, 63, 127
2, 79524, Note_on_c, 0, 63, 0
2, 79536, Note_on_c, 0, 86, 127
2, 79572, Note_on_c, 0, 86, 0
2, 79584, Note_on_c, 0, 84, 127
2, 79620, Note_on_c, 0, 84, 0
2, 79632, Note_on_c, 0, 82, 127
2, 79668, Note_on_c, 0, 82, 0
2, 79680, Note_on_c, 0, 81, 127
2, 79716, Note_on_c, 0, 81, 0
2, 79728, Note_on_c, 0, 79, 127
2, 79764, Note_on_c, 0, 79, 0
2, 79776, Note_on_c, 0, 78, 127
2, 79812, Note_on_c, 0, 78, 0
2, 79824, Note_on_c, 0, 76, 127
2, 79860, Note_on_c, 0, 76, 0
2, 79872, Note_on_c, 0, 74, 127
2, 79908, Note_on_c, 0, 74, 0
2, 79920, Note_on_c, 0, 72, 127
2, 79956, Note_on_c, 0, 72, 0
2, 79968, Note_on_c, 0, 70, 127
2, 80004, Note_on_c, 0, 70, 0
2, 80016, Note_on_c, 0, 69, 127
2, 80052, Note_on_c, 0, 69, 0
2, 80064, Note_on_c, 0, 67, 127
2, 80100, Note_on_c, 0, 67, 0
2, 80112, Note_on_c, 0, 67, 127
2, 80148, Note_on_c, 0, 67, 0
2, 80160, Note_on_c, 0, 67, 127
2, 80196, Note_on_c, 0, 67, 0
2, 80208, Note_on_c, 0, 67, 127
2, 80244, Note_on_c, 0, 67, 0
2, 80256, Note_on_c, 0, 67, 127
2, 80292, Note_on_c, 0, 67, 0
2, 80304, Note_on_c, 0, 67, 127
2, 80340, Note_on_c, 0, 67, 0
2, 80352, Note_on_c, 0, 67, 127
2, 80388, Note_on_c, 0, 67, 0
2, 80400, Note_on_c, 0, 67, 127
2, 80436, Note_on_c, 0, 67, 0
2, 80448, Note_on_c, 0, 67, 127
2, 80484, Note_on_c, 0, 67, 0
2, 80496, Note_on_c, 0, 67, 127
2, 80532, Note_on_c, 0, 67, 0
2, 80544, Note_on_c, 0, 67, 127
2, 80580, Note_on_c, 0, 67, 0
2, 80592, Note_on_c, 0, 67, 127
2, 80628, Note_on_c, 0, 67, 0
2, 80640, Note_on_c, 0, 74, 127
2, 80676, Note_on_c, 0, 74, 0
2, 80688, Note_on_c, 0, 67, 127
2, 80724, Note_on_c, 0, 67, 0
2, 80736, Note_on_c, 0, 55, 127
2, 80772, Note_on_c, 0, 55, 0
2, 80784, Note_on_c, 0, 67, 127
2, 80820, Note_on_c, 0, 67, 0
2, 80832, Note_on_c, 0, 75, 127
2, 80868, Note_on_c, 0, 75, 0
2, 80880, Note_on_c, 0, 67, 127
2, 80916, Note_on_c, 0, 67, 0
2, 80928, Note_on_c, 0, 55, 127
2, 80964, Note_on_c, 0, 55, 0
2, 80976, Note_on_c, 0, 67, 127
2, 81012, Note_on_c, 0, 67, 0
2, 81024, Note_on_c, 0, 78, 127
2, 81060, Note_on_c, 0, 78, 0
2, 81072, Note_on_c, 0, 67, 127
2, 81108, Note_on_c, 0, 67, 0
2, 81120, Note_on_c, 0, 55, 127
2, 81156, Note_on_c, 0, 55, 0
2, 81168, Note_on_c, 0, 67, 127
2, 81204, Note_on_c, 0, 67, 0
2, 81216, Note_on_c, 0, 79, 127
2, 81252, Note_on_c, 0, 79, 0
2, 81264, Note_on_c, 0, 67, 127
2, 81300, Note_on_c, 0, 67, 0
2, 81312, Note_on_c, 0, 55, 127
2, 81348, Note_on_c, 0, 55, 0
2, 81360, Note_on_c, 0, 67, 127
2, 81396, Note_on_c, 0, 67, 0
2, 81408, Note_on_c, 0, 77, 127
2, 81444, Note_on_c, 0, 77, 0
2, 81456, Note_on_c, 0, 67, 127
2, 81492, Note_on_c, 0, 67, 0
2, 81504, Note_on_c, 0, 55, 127
2, 81540, Note_on_c, 0, 55, 0
2, 81552, Note_on_c, 0, 67, 127
2, 81588, Note_on_c, 0, 67, 0
2, 81600, Note_on_c, 0, 75, 127
2, 81636, Note_on_c, 0, 75, 0
2, 81648, Note_on_c, 0, 67, 127
2, 81684, Note_on_c, 0, 67, 0
2, 81696, Note_on_c, 0, 55, 127
2, 81732, Note_on_c, 0, 55, 0
2, 81744, Note_on_c, 0, 67, 127
2, 81780, Note_on_c, 0, 67, 0
2, 81792, Note_on_c, 0, 74, 127
2, 81828, Note_on_c, 0, 74, 0
2, 81840, Note_on_c, 0, 67, 127
2, 81876, Note_on_c, 0, 67, 0
2, 81888, Note_on_c, 0, 55, 127
2, 81924, Note_on_c, 0, 55, 0
2, 81936, Note_on_c, 0, 67, 127
2, 81972, Note_on_c, 0, 67, 0
2, 81984, Note_on_c, 0, 76, 127
2, 82020, Note_on_c, 0, 76, 0
2, 82032, Note_on_c, 0, 67, 127
2, 82068, Note_on_c, 0, 67, 0
2, 82080, Note_on_c, 0, 55, 127
2, 82116, Note_on_c, 0, 55, 0
2, 82128, Note_on_c, 0, 67, 127
2, 82164, Note_on_c, 0, 67, 0
2, 82176, Note_on_c, 0, 78, 127
2, 82212, Note_on_c, 0, 78, 0
2, 82224, Note_on_c, 0, 67, 127
2, 82260, Note_on_c, 0, 67, 0
2, 82272, Note_on_c, 0, 55, 127
2, 82308, Note_on_c, 0, 55, 0
2, 82320, Note_on_c, 0, 67, 127
2, 82356, Note_on_c, 0, 67, 0
2, 82368, Note_on_c, 0, 79, 127
2, 82404, Note_on_c, 0, 79, 0
2, 82416, Note_on_c, 0, 67, 127
2, 82452, Note_on_c, 0, 67, 0
2, 82464, Note_on_c, 0, 55, 127
2, 82500, Note_on_c, 0, 55, 0
2, 82512, Note_on_c, 0, 67, 127
2, 82548, Note_on_c, 0, 67, 0
2, 82560, Note_on_c, 0, 77, 127
2, 82596, Note_on_c, 0, 77, 0
2, 82608, Note_on_c, 0, 67, 127
2, 82644, Note_on_c, 0, 67, 0
2, 82656, Note_on_c, 0, 55, 127
2, 82692, Note_on_c, 0, 55, 0
2, 82704, Note_on_c, 0, 67, 127
2, 82740, Note_on_c, 0, 67, 0
2, 82752, Note_on_c, 0, 75, 127
2, 82788, Note_on_c, 0, 75, 0
2, 82800, Note_on_c, 0, 67, 127
2, 82836, Note_on_c, 0, 67, 0
2, 82848, Note_on_c, 0, 55, 127
2, 82884, Note_on_c, 0, 55, 0
2, 82896, Note_on_c, 0, 67, 127
2, 82932, Note_on_c, 0, 67, 0
2, 82944, Note_on_c, 0, 55, 127
2, 82944, Note_on_c, 0, 67, 127
2, 82944, Note_on_c, 0, 74, 127
2, 82980, Note_on_c, 0, 74, 0
2, 82980, Note_on_c, 0, 67, 0
2, 82980, Note_on_c, 0, 55, 0
2, 82992, Note_on_c, 0, 67, 127
2, 83028, Note_on_c, 0, 67, 0
2, 83040, Note_on_c, 0, 69, 127
2, 83076, Note_on_c, 0, 69, 0
2, 83088, Note_on_c, 0, 70, 127
2, 83124, Note_on_c, 0, 70, 0
2, 83136, Note_on_c, 0, 72, 127
2, 83172, Note_on_c, 0, 72, 0
2, 83184, Note_on_c, 0, 74, 127
2, 83220, Note_on_c, 0, 74, 0
2, 83232, Note_on_c, 0, 75, 127
2, 83268, Note_on_c, 0, 75, 0
2, 83280, Note_on_c, 0, 78, 127
2, 83316, Note_on_c, 0, 78, 0
2, 83328, Note_on_c, 0, 79, 127
2, 83364, Note_on_c, 0, 79, 0
2, 83376, Note_on_c, 0, 81, 127
2, 83412, Note_on_c, 0, 81, 0
2, 83424, Note_on_c, 0, 82, 127
2, 83460, Note_on_c, 0, 82, 0
2, 83472, Note_on_c, 0, 81, 127
2, 83508, Note_on_c, 0, 81, 0
2, 83520, Note_on_c, 0, 79, 127
2, 83556, Note_on_c, 0, 79, 0
2, 83568, Note_on_c, 0, 77, 127
2, 83604, Note_on_c, 0, 77, 0
2, 83616, Note_on_c, 0, 75, 127
2, 83652, Note_on_c, 0, 75, 0
2, 83664, Note_on_c, 0, 74, 127
2, 83700, Note_on_c, 0, 74, 0
2, 83712, Note_on_c, 0, 72, 127
2, 83748, Note_on_c, 0, 72, 0
2, 83760, Note_on_c, 0, 70, 127
2, 83796, Note_on_c, 0, 70, 0
2, 83808, Note_on_c, 0, 69, 127
2, 83844, Note_on_c, 0, 69, 0
2, 83856, Note_on_c, 0, 67, 127
2, 83892, Note_on_c, 0, 67, 0
2, 83904, Note_on_c, 0, 66, 127
2, 83940, Note_on_c, 0, 66, 0
2, 83952, Note_on_c, 0, 64, 127
2, 83988, Note_on_c, 0, 64, 0
2, 84000, Note_on_c, 0, 62, 127
2, 84036, Note_on_c, 0, 62, 0
2, 84048, Note_on_c, 0, 60, 127
2, 84084, Note_on_c, 0, 60, 0
2, 84096, Note_on_c, 0, 58, 127
2, 84132, Note_on_c, 0, 58, 0
2, 84144, Note_on_c, 0, 55, 127
2, 84180, Note_on_c, 0, 55, 0
2, 84192, Note_on_c, 0, 58, 127
2, 84228, Note_on_c, 0, 58, 0
2, 84240, Note_on_c, 0, 55, 127
2, 84276, Note_on_c, 0, 55, 0
2, 84288, Note_on_c, 0, 58, 127
2, 84324, Note_on_c, 0, 58, 0
2, 84336, Note_on_c, 0, 55, 127
2, 84372, Note_on_c, 0, 55, 0
2, 84384, Note_on_c, 0, 58, 127
2, 84420, Note_on_c, 0, 58, 0
2, 84432, Note_on_c, 0, 55, 127
2, 84468, Note_on_c, 0, 55, 0
2, 84480, Note_on_c, 0, 58, 127
2, 84516, Note_on_c, 0, 58, 0
2, 84528, Note_on_c, 0, 55, 127
2, 84564, Note_on_c, 0, 55, 0
2, 84576, Note_on_c, 0, 58, 127
2, 84612, Note_on_c, 0, 58, 0
2, 84624, Note_on_c, 0, 55, 127
2, 84660, Note_on_c, 0, 55, 0
2, 84672, Note_on_c, 0, 63, 127
2, 84708, Note_on_c, 0, 63, 0
2, 84720, Note_on_c, 0, 62, 127
2, 84756, Note_on_c, 0, 62, 0
2, 84768, Note_on_c, 0, 66, 127
2, 84804, Note_on_c, 0, 66, 0
2, 84816, Note_on_c, 0, 64, 127
2, 84852, Note_on_c, 0, 64, 0
2, 84864, Note_on_c, 0, 67, 127
2, 84900, Note_on_c, 0, 67, 0
2, 84912, Note_on_c, 0, 66, 127
2, 84948, Note_on_c, 0, 66, 0
2, 84960, Note_on_c, 0, 69, 127
2, 84996, Note_on_c, 0, 69, 0
2, 85008, Note_on_c, 0, 67, 127
2, 85044, Note_on_c, 0, 67, 0
2, 85056, Note_on_c, 0, 70, 127
2, 85092, Note_on_c, 0, 70, 0
2, 85104, Note_on_c, 0, 69, 127
2, 85140, Note_on_c, 0, 69, 0
2, 85152, Note_on_c, 0, 72, 127
2, 85188, Note_on_c, 0, 72, 0
2, 85200, Note_on_c, 0, 70, 127
2, 85236, Note_on_c, 0, 70, 0
2, 85248, Note_on_c, 0, 74, 127
2, 85284, Note_on_c, 0, 74, 0
2, 85296, Note_on_c, 0, 72, 127
2, 85332, Note_on_c, 0, 72, 0
2, 85344, Note_on_c, 0, 75, 127
2, 85380, Note_on_c, 0, 75, 0
2, 85392, Note_on_c, 0, 74, 127
2, 85428, Note_on_c, 0, 74, 0
2, 85440, Note_on_c, 0, 77, 127
2, 85476, Note_on_c, 0, 77, 0
2, 85488, Note_on_c, 0, 76, 127
2, 85524, Note_on_c, 0, 76, 0
2, 85536, Note_on_c, 0, 79, 127
2, 85572, Note_on_c, 0, 79, 0
2, 85584, Note_on_c, 0, 78, 127
2, 85620, Note_on_c, 0, 78, 0
2, 85632, Note_on_c, 0, 81, 127
2, 85668, Note_on_c, 0, 81, 0
2, 85680, Note_on_c, 0, 79, 127
2, 85716, Note_on_c, 0, 79, 0
2, 85728, Note_on_c, 0, 82, 127
2, 85764, Note_on_c, 0, 82, 0
2, 85776, Note_on_c, 0, 81, 127
2, 85812, Note_on_c, 0, 81, 0
2, 85824, Note_on_c, 0, 63, 127
2, 85860, Note_on_c, 0, 63, 0
2, 85872, Note_on_c, 0, 62, 127
2, 85908, Note_on_c, 0, 62, 0
2, 85920, Note_on_c, 0, 66, 127
2, 85956, Note_on_c, 0, 66, 0
2, 85968, Note_on_c, 0, 64, 127
2, 86004, Note_on_c, 0, 64, 0
2, 86016, Note_on_c, 0, 67, 127
2, 86052, Note_on_c, 0, 67, 0
2, 86064, Note_on_c, 0, 66, 127
2, 86100, Note_on_c, 0, 66, 0
2, 86112, Note_on_c, 0, 69, 127
2, 86148, Note_on_c, 0, 69, 0
2, 86160, Note_on_c, 0, 67, 127
2, 86196, Note_on_c, 0, 67, 0
2, 86208, Note_on_c, 0, 70, 127
2, 86244, Note_on_c, 0, 70, 0
2, 86256, Note_on_c, 0, 69, 127
2, 86292, Note_on_c, 0, 69, 0
2, 86304, Note_on_c, 0, 72, 127
2, 86340, Note_on_c, 0, 72, 0
2, 86352, Note_on_c, 0, 70, 127
2, 86388, Note_on_c, 0, 70, 0
2, 86400, Note_on_c, 0, 74, 127
2, 86436, Note_on_c, 0, 74, 0
2, 86448, Note_on_c, 0, 72, 127
2, 86484, Note_on_c, 0, 72, 0
2, 86496, Note_on_c, 0, 75, 127
2, 86532, Note_on_c, 0, 75, 0
2, 86544, Note_on_c, 0, 74, 127
2, 86580, Note_on_c, 0, 74, 0
2, 86592, Note_on_c, 0, 77, 127
2, 86628, Note_on_c, 0, 77, 0
2, 86640, Note_on_c, 0, 76, 127
2, 86676, Note_on_c, 0, 76, 0
2, 86688, Note_on_c, 0, 79, 127
2, 86724, Note_on_c, 0, 79, 0
2, 86736, Note_on_c, 0, 78, 127
2, 86772, Note_on_c, 0, 78, 0
2, 86784, Note_on_c, 0, 81, 127
2, 86820, Note_on_c, 0, 81, 0
2, 86832, Note_on_c, 0, 79, 127
2, 86868, Note_on_c, 0, 79, 0
2, 86880, Note_on_c, 0, 82, 127
2, 86916, Note_on_c, 0, 82, 0
2, 86928, Note_on_c, 0, 81, 127
2, 86964, Note_on_c, 0, 81, 0
2, 86976, Note_on_c, 0, 62, 127
2, 87012, Note_on_c, 0, 62, 0
2, 87024, Note_on_c, 0, 62, 127
2, 87060, Note_on_c, 0, 62, 0
2, 87072, Note_on_c, 0, 62, 127
2, 87108, Note_on_c, 0, 62, 0
2, 87120, Note_on_c, 0, 62, 127
2, 87156, Note_on_c, 0, 62, 0
2, 87168, Note_on_c, 0, 62, 127
2, 87204, Note_on_c, 0, 62, 0
2, 87216, Note_on_c, 0, 62, 127
2, 87252, Note_on_c, 0, 62, 0
2, 87264, Note_on_c, 0, 62, 127
2, 87300, Note_on_c, 0, 62, 0
2, 87312, Note_on_c, 0, 62, 127
2, 87348, Note_on_c, 0, 62, 0
2, 87360, Note_on_c, 0, 62, 127
2, 87396, Note_on_c, 0, 62, 0
2, 87408, Note_on_c, 0, 62, 127
2, 87444, Note_on_c, 0, 62, 0
2, 87456, Note_on_c, 0, 62, 127
2, 87492, Note_on_c, 0, 62, 0
2, 87504, Note_on_c, 0, 62, 127
2, 87540, Note_on_c, 0, 62, 0
2, 87552, Note_on_c, 0, 67, 127
2, 87588, Note_on_c, 0, 67, 0
2, 87600, Note_on_c, 0, 62, 127
2, 87636, Note_on_c, 0, 62, 0
2, 87648, Note_on_c, 0, 58, 127
2, 87684, Note_on_c, 0, 58, 0
2, 87696, Note_on_c, 0, 55, 127
2, 87732, Note_on_c, 0, 55, 0
2, 87744, Note_on_c, 0, 67, 127
2, 87780, Note_on_c, 0, 67, 0
2, 87792, Note_on_c, 0, 62, 127
2, 87828, Note_on_c, 0, 62, 0
2, 87840, Note_on_c, 0, 58, 127
2, 87876, Note_on_c, 0, 58, 0
2, 87888, Note_on_c, 0, 55, 127
2, 87924, Note_on_c, 0, 55, 0
2, 87936, Note_on_c, 0, 67, 127
2, 87972, Note_on_c, 0, 67, 0
2, 87984, Note_on_c, 0, 62, 127
2, 88020, Note_on_c, 0, 62, 0
2, 88032, Note_on_c, 0, 58, 127
2, 88068, Note_on_c, 0, 58, 0
2, 88080, Note_on_c, 0, 55, 127
2, 88116, Note_on_c, 0, 55, 0
2, 88128, Note_on_c, 0, 67, 127
2, 88164, Note_on_c, 0, 67, 0
2, 88176, Note_on_c, 0, 67, 127
2, 88212, Note_on_c, 0, 67, 0
2, 88224, Note_on_c, 0, 67, 127
2, 88260, Note_on_c, 0, 67, 0
2, 88272, Note_on_c, 0, 67, 127
2, 88308, Note_on_c, 0, 67, 0
2, 88320, Note_on_c, 0, 67, 127
2, 88356, Note_on_c, 0, 67, 0
2, 88368, Note_on_c, 0, 67, 127
2, 88404, Note_on_c, 0, 67, 0
2, 88416, Note_on_c, 0, 67, 127
2, 88452, Note_on_c, 0, 67, 0
2, 88464, Note_on_c, 0, 67, 127
2, 88500, Note_on_c, 0, 67, 0
2, 88512, Note_on_c, 0, 67, 127
2, 88548, Note_on_c, 0, 67, 0
2, 88560, Note_on_c, 0, 67, 127
2, 88596, Note_on_c, 0, 67, 0
2, 88608, Note_on_c, 0, 67, 127
2, 88644, Note_on_c, 0, 67, 0
2, 88656, Note_on_c, 0, 67, 127
2, 88692, Note_on_c, 0, 67, 0
2, 88704, Note_on_c, 0, 66, 127
2, 88740, Note_on_c, 0, 66, 0
2, 88752, Note_on_c, 0, 66, 127
2, 88788, Note_on_c, 0, 66, 0
2, 88800, Note_on_c, 0, 66, 127
2, 88836, Note_on_c, 0, 66, 0
2, 88848, Note_on_c, 0, 66, 127
2, 88884, Note_on_c, 0, 66, 0
2, 88896, Note_on_c, 0, 66, 127
2, 88932, Note_on_c, 0, 66, 0
2, 88944, Note_on_c, 0, 66, 127
2, 88980, Note_on_c, 0, 66, 0
2, 88992, Note_on_c, 0, 66, 127
2, 89028, Note_on_c, 0, 66, 0
2, 89040, Note_on_c, 0, 66, 127
2, 89076, Note_on_c, 0, 66, 0
2, 89088, Note_on_c, 0, 66, 127
2, 89124, Note_on_c, 0, 66, 0
2, 89136, Note_on_c, 0, 66, 127
2, 89172, Note_on_c, 0, 66, 0
2, 89184, Note_on_c, 0, 66, 127
2, 89220, Note_on_c, 0, 66, 0
2, 89232, Note_on_c, 0, 66, 127
2, 89268, Note_on_c, 0, 66, 0
2, 89280, Note_on_c, 0, 67, 127
2, 89316, Note_on_c, 0, 67, 0
2, 89328, Note_on_c, 0, 62, 127
2, 89364, Note_on_c, 0, 62, 0
2, 89376, Note_on_c, 0, 58, 127
2, 89412, Note_on_c, 0, 58, 0
2, 89424, Note_on_c, 0, 55, 127
2, 89460, Note_on_c, 0, 55, 0
2, 89472, Note_on_c, 0, 67, 127
2, 89508, Note_on_c, 0, 67, 0
2, 89520, Note_on_c, 0, 62, 127
2, 89556, Note_on_c, 0, 62, 0
2, 89568, Note_on_c, 0, 58, 127
2, 89604, Note_on_c, 0, 58, 0
2, 89616, Note_on_c, 0, 55, 127
2, 89652, Note_on_c, 0, 55, 0
2, 89664, Note_on_c, 0, 67, 127
2, 89700, Note_on_c, 0, 67, 0
2, 89712, Note_on_c, 0, 62, 127
2, 89748, Note_on_c, 0, 62, 0
2, 89760, Note_on_c, 0, 58, 127
2, 89796, Note_on_c, 0, 58, 0
2, 89808, Note_on_c, 0, 55, 127
2, 89844, Note_on_c, 0, 55, 0
2, 89856, Note_on_c, 0, 67, 127
2, 89892, Note_on_c, 0, 67, 0
2, 89904, Note_on_c, 0, 67, 127
2, 89940, Note_on_c, 0, 67, 0
2, 89952, Note_on_c, 0, 67, 127
2, 89988, Note_on_c, 0, 67, 0
2, 90000, Note_on_c, 0, 67, 127
2, 90036, Note_on_c, 0, 67, 0
2, 90048, Note_on_c, 0, 67, 127
2, 90084, Note_on_c, 0, 67, 0
2, 90096, Note_on_c, 0, 67, 127
2, 90132, Note_on_c, 0, 67, 0
2, 90144, Note_on_c, 0, 67, 127
2, 90180, Note_on_c, 0, 67, 0
2, 90192, Note_on_c, 0, 67, 127
2, 90228, Note_on_c, 0, 67, 0
2, 90240, Note_on_c, 0, 67, 127
2, 90276, Note_on_c, 0, 67, 0
2, 90288, Note_on_c, 0, 67, 127
2, 90324, Note_on_c, 0, 67, 0
2, 90336, Note_on_c, 0, 67, 127
2, 90372, Note_on_c, 0, 67, 0
2, 90384, Note_on_c, 0, 67, 127
2, 90420, Note_on_c, 0, 67, 0
2, 90432, Note_on_c, 0, 66, 127
2, 90468, Note_on_c, 0, 66, 0
2, 90480, Note_on_c, 0, 66, 127
2, 90516, Note_on_c, 0, 66, 0
2, 90528, Note_on_c, 0, 66, 127
2, 90564, Note_on_c, 0, 66, 0
2, 90576, Note_on_c, 0, 66, 127
2, 90612, Note_on_c, 0, 66, 0
2, 90624, Note_on_c, 0, 66, 127
2, 90660, Note_on_c, 0, 66, 0
2, 90672, Note_on_c, 0, 66, 127
2, 90708, Note_on_c, 0, 66, 0
2, 90720, Note_on_c, 0, 66, 127
2, 90756, Note_on_c, 0, 66, 0
2, 90768, Note_on_c, 0, 66, 127
2, 90804, Note_on_c, 0, 66, 0
2, 90816, Note_on_c, 0, 66, 127
2, 90852, Note_on_c, 0, 66, 0
2, 90864, Note_on_c, 0, 66, 127
2, 90900, Note_on_c, 0, 66, 0
2, 90912, Note_on_c, 0, 66, 127
2, 90948, Note_on_c, 0, 66, 0
2, 90960, Note_on_c, 0, 66, 127
2, 90996, Note_on_c, 0, 66, 0
2, 91008, Note_on_c, 0, 67, 127
2, 91044, Note_on_c, 0, 67, 0
2, 91056, Note_on_c, 0, 67, 127
2, 91092, Note_on_c, 0, 67, 0
2, 91104, Note_on_c, 0, 67, 127
2, 91140, Note_on_c, 0, 67, 0
2, 91152, Note_on_c, 0, 67, 127
2, 91188, Note_on_c, 0, 67, 0
2, 91200, Note_on_c, 0, 70, 127
2, 91236, Note_on_c, 0, 70, 0
2, 91248, Note_on_c, 0, 70, 127
2, 91284, Note_on_c, 0, 70, 0
2, 91296, Note_on_c, 0, 70, 127
2, 91332, Note_on_c, 0, 70, 0
2, 91344, Note_on_c, 0, 70, 127
2, 91380, Note_on_c, 0, 70, 0
2, 91392, Note_on_c, 0, 74, 127
2, 91428, Note_on_c, 0, 74, 0
2, 91440, Note_on_c, 0, 74, 127
2, 91476, Note_on_c, 0, 74, 0
2, 91488, Note_on_c, 0, 74, 127
2, 91524, Note_on_c, 0, 74, 0
2, 91536, Note_on_c, 0, 74, 127
2, 91572, Note_on_c, 0, 74, 0
2, 91584, Note_on_c, 0, 79, 127
2, 91620, Note_on_c, 0, 79, 0
2, 91632, Note_on_c, 0, 79, 127
2, 91668, Note_on_c, 0, 79, 0
2, 91680, Note_on_c, 0, 79, 127
2, 91716, Note_on_c, 0, 79, 0
2, 91728, Note_on_c, 0, 79, 127
2, 91764, Note_on_c, 0, 79, 0
2, 91776, Note_on_c, 0, 82, 127
2, 91812, Note_on_c, 0, 82, 0
2, 91824, Note_on_c, 0, 82, 127
2, 91860, Note_on_c, 0, 82, 0
2, 91872, Note_on_c, 0, 82, 127
2, 91908, Note_on_c, 0, 82, 0
2, 91920, Note_on_c, 0, 82, 127
2, 91956, Note_on_c, 0, 82, 0
2, 91968, Note_on_c, 0, 79, 127
2, 92004, Note_on_c, 0, 79, 0
2, 92016, Note_on_c, 0, 79, 127
2, 92052, Note_on_c, 0, 79, 0
2, 92064, Note_on_c, 0, 79, 127
2, 92100, Note_on_c, 0, 79, 0
2, 92112, Note_on_c, 0, 79, 127
2, 92148, Note_on_c, 0, 79, 0
2, 92160, Note_on_c, 0, 74, 127
2, 92196, Note_on_c, 0, 74, 0
2, 92208, Note_on_c, 0, 74, 127
2, 92244, Note_on_c, 0, 74, 0
2, 92256, Note_on_c, 0, 74, 127
2, 92292, Note_on_c, 0, 74, 0
2, 92304, Note_on_c, 0, 74, 127
2, 92340, Note_on_c, 0, 74, 0
2, 92352, Note_on_c, 0, 70, 127
2, 92388, Note_on_c, 0, 70, 0
2, 92400, Note_on_c, 0, 70, 127
2, 92436, Note_on_c, 0, 70, 0
2, 92448, Note_on_c, 0, 70, 127
2, 92484, Note_on_c, 0, 70, 0
2, 92496, Note_on_c, 0, 70, 127
2, 92532, Note_on_c, 0, 70, 0
2, 92544, Note_on_c, 0, 67, 127
2, 92580, Note_on_c, 0, 67, 0
2, 92592, Note_on_c, 0, 67, 127
2, 92628, Note_on_c, 0, 67, 0
2, 92640, Note_on_c, 0, 67, 127
2, 92676, Note_on_c, 0, 67, 0
2, 92688, Note_on_c, 0, 67, 127
2, 92724, Note_on_c, 0, 67, 0
2, 92928, Note_on_c, 0, 55, 127
2, 93312, Note_on_c, 0, 55, 0
2, 93312, End_track
3, 0, Start_track
3, 0, MIDI_port, 0
3, 0, Title_t, "Violin 1 Ensemble   "
3, 0, Program_c, 1, 48
3, 0, Control_c, 1, 7, 60
3, 0, Control_c, 1, 10, 84
3, 0, Note_on_c, 1, 58, 127
3, 72, Note_on_c, 1, 58, 0
3, 72, Note_on_c, 1, 58, 127
3, 96, Note_on_c, 1, 58, 0
3, 96, Note_on_c, 1, 58, 127
3, 168, Note_on_c, 1, 58, 0
3, 168, Note_on_c, 1, 58, 127
3, 192, Note_on_c, 1, 58, 0
3, 192, Note_on_c, 1, 58, 127
3, 288, Note_on_c, 1, 58, 0
3, 384, Note_on_c, 1, 58, 127
3, 456, Note_on_c, 1, 58, 0
3, 456, Note_on_c, 1, 58, 127
3, 480, Note_on_c, 1, 58, 0
3, 480, Note_on_c, 1, 58, 127
3, 552, Note_on_c, 1, 58, 0
3, 552, Note_on_c, 1, 58, 127
3, 576, Note_on_c, 1, 58, 0
3, 576, Note_on_c, 1, 58, 127
3, 672, Note_on_c, 1, 58, 0
3, 768, Note_on_c, 1, 66, 127
3, 840, Note_on_c, 1, 66, 0
3, 840, Note_on_c, 1, 66, 127
3, 864, Note_on_c, 1, 66, 0
3, 864, Note_on_c, 1, 66, 127
3, 936, Note_on_c, 1, 66, 0
3, 936, Note_on_c, 1, 66, 127
3, 960, Note_on_c, 1, 66, 0
3, 960, Note_on_c, 1, 66, 127
3, 1056, Note_on_c, 1, 66, 0
3, 1152, Note_on_c, 1, 66, 127
3, 1224, Note_on_c, 1, 66, 0
3, 1224, Note_on_c, 1, 66, 127
3, 1248, Note_on_c, 1, 66, 0
3, 1248, Note_on_c, 1, 66, 127
3, 1320, Note_on_c, 1, 66, 0
3, 1320, Note_on_c, 1, 66, 127
3, 1344, Note_on_c, 1, 66, 0
3, 1344, Note_on_c, 1, 66, 127
3, 1440, Note_on_c, 1, 66, 0
3, 1536, Note_on_c, 1, 58, 127
3, 1608, Note_on_c, 1, 58, 0
3, 1608, Note_on_c, 1, 58, 127
3, 1632, Note_on_c, 1, 58, 0
3, 1632, Note_on_c, 1, 58, 127
3, 1704, Note_on_c, 1, 58, 0
3, 1704, Note_on_c, 1, 58, 127
3, 1728, Note_on_c, 1, 58, 0
3, 1728, Note_on_c, 1, 58, 127
3, 1824, Note_on_c, 1, 58, 0
3, 1920, Control_c, 1, 7, 127
3, 1920, Note_on_c, 1, 55, 127
3, 2016, Note_on_c, 1, 55, 0
3, 2016, Note_on_c, 1, 55, 127
3, 2064, Note_on_c, 1, 55, 0
3, 2064, Note_on_c, 1, 55, 127
3, 2112, Note_on_c, 1, 55, 0
3, 2112, Note_on_c, 1, 55, 127
3, 2160, Note_on_c, 1, 55, 0
3, 2160, Note_on_c, 1, 55, 127
3, 2208, Note_on_c, 1, 55, 0
3, 2208, Note_on_c, 1, 55, 127
3, 2256, Note_on_c, 1, 55, 0
3, 2256, Note_on_c, 1, 55, 127
3, 2304, Note_on_c, 1, 55, 0
3, 2304, Note_on_c, 1, 55, 127
3, 2352, Note_on_c, 1, 55, 0
3, 2352, Note_on_c, 1, 55, 127
3, 2400, Note_on_c, 1, 55, 0
3, 2400, Note_on_c, 1, 55, 127
3, 2448, Note_on_c, 1, 55, 0
3, 2448, Note_on_c, 1, 55, 127
3, 2496, Note_on_c, 1, 55, 0
3, 2496, Note_on_c, 1, 55, 127
3, 2544, Note_on_c, 1, 55, 0
3, 2544, Note_on_c, 1, 55, 127
3, 2592, Note_on_c, 1, 55, 0
3, 2592, Note_on_c, 1, 55, 127
3, 2640, Note_on_c, 1, 55, 0
3, 2640, Note_on_c, 1, 55, 127
3, 2688, Note_on_c, 1, 55, 0
3, 2688, Note_on_c, 1, 55, 127
3, 2880, Note_on_c, 1, 55, 0
3, 3072, Control_c, 1, 7, 60
3, 3072, Note_on_c, 1, 62, 127
3, 3144, Note_on_c, 1, 62, 0
3, 3144, Note_on_c, 1, 62, 127
3, 3168, Note_on_c, 1, 62, 0
3, 3168, Note_on_c, 1, 62, 127
3, 3240, Note_on_c, 1, 62, 0
3, 3240, Note_on_c, 1, 62, 127
3, 3264, Note_on_c, 1, 62, 0
3, 3264, Note_on_c, 1, 62, 127
3, 3360, Note_on_c, 1, 62, 0
3, 3456, Note_on_c, 1, 63, 127
3, 3528, Note_on_c, 1, 63, 0
3, 3528, Note_on_c, 1, 63, 127
3, 3552, Note_on_c, 1, 63, 0
3, 3552, Note_on_c, 1, 63, 127
3, 3624, Note_on_c, 1, 63, 0
3, 3624, Note_on_c, 1, 63, 127
3, 3648, Note_on_c, 1, 63, 0
3, 3648, Note_on_c, 1, 63, 127
3, 3744, Note_on_c, 1, 63, 0
3, 3840, Control_c, 1, 7, 60
3, 3840, Note_on_c, 1, 65, 127
3, 3912, Note_on_c, 1, 65, 0
3, 3912, Note_on_c, 1, 65, 127
3, 3936, Note_on_c, 1, 65, 0
3, 3936, Note_on_c, 1, 65, 127
3, 4008, Note_on_c, 1, 65, 0
3, 4008, Note_on_c, 1, 65, 127
3, 4032, Note_on_c, 1, 65, 0
3, 4032, Note_on_c, 1, 65, 127
3, 4128, Note_on_c, 1, 65, 0
3, 4224, Note_on_c, 1, 65, 127
3, 4296, Note_on_c, 1, 65, 0
3, 4296, Note_on_c, 1, 65, 127
3, 4320, Note_on_c, 1, 65, 0
3, 4320, Note_on_c, 1, 65, 127
3, 4392, Note_on_c, 1, 65, 0
3, 4392, Note_on_c, 1, 65, 127
3, 4416, Note_on_c, 1, 65, 0
3, 4416, Note_on_c, 1, 65, 127
3, 4512, Note_on_c, 1, 65, 0
3, 4608, Control_c, 1, 7, 60
3, 4608, Note_on_c, 1, 62, 127
3, 4680, Note_on_c, 1, 62, 0
3, 4680, Note_on_c, 1, 62, 127
3, 4704, Note_on_c, 1, 62, 0
3, 4704, Note_on_c, 1, 62, 127
3, 4776, Note_on_c, 1, 62, 0
3, 4776, Note_on_c, 1, 62, 127
3, 4800, Note_on_c, 1, 62, 0
3, 4800, Note_on_c, 1, 62, 127
3, 4896, Note_on_c, 1, 62, 0
3, 4992, Note_on_c, 1, 63, 127
3, 5064, Note_on_c, 1, 63, 0
3, 5064, Note_on_c, 1, 63, 127
3, 5088, Note_on_c, 1, 63, 0
3, 5088, Note_on_c, 1, 63, 127
3, 5160, Note_on_c, 1, 63, 0
3, 5160, Note_on_c, 1, 63, 127
3, 5184, Note_on_c, 1, 63, 0
3, 5184, Note_on_c, 1, 58, 127
3, 5280, Note_on_c, 1, 58, 0
3, 5376, Control_c, 1, 7, 60
3, 5376, Note_on_c, 1, 65, 127
3, 5448, Note_on_c, 1, 65, 0
3, 5448, Note_on_c, 1, 65, 127
3, 5472, Note_on_c, 1, 65, 0
3, 5472, Note_on_c, 1, 65, 127
3, 5544, Note_on_c, 1, 65, 0
3, 5544, Note_on_c, 1, 65, 127
3, 5568, Note_on_c, 1, 65, 0
3, 5568, Note_on_c, 1, 65, 127
3, 5664, Note_on_c, 1, 65, 0
3, 5760, Control_c, 1, 7, 127
3, 5760, Note_on_c, 1, 58, 127
3, 5856, Note_on_c, 1, 58, 0
3, 5856, Note_on_c, 1, 58, 127
3, 5904, Note_on_c, 1, 58, 0
3, 5904, Note_on_c, 1, 58, 127
3, 5952, Note_on_c, 1, 58, 0
3, 5952, Note_on_c, 1, 58, 127
3, 6000, Note_on_c, 1, 58, 0
3, 6000, Note_on_c, 1, 58, 127
3, 6048, Note_on_c, 1, 58, 0
3, 6048, Note_on_c, 1, 58, 127
3, 6096, Note_on_c, 1, 58, 0
3, 6096, Note_on_c, 1, 58, 127
3, 6144, Note_on_c, 1, 58, 0
3, 6144, Note_on_c, 1, 58, 127
3, 6192, Note_on_c, 1, 58, 0
3, 6192, Note_on_c, 1, 58, 127
3, 6240, Note_on_c, 1, 58, 0
3, 6240, Note_on_c, 1, 58, 127
3, 6288, Note_on_c, 1, 58, 0
3, 6288, Note_on_c, 1, 58, 127
3, 6336, Note_on_c, 1, 58, 0
3, 6336, Note_on_c, 1, 58, 127
3, 6384, Note_on_c, 1, 58, 0
3, 6384, Note_on_c, 1, 58, 127
3, 6432, Note_on_c, 1, 58, 0
3, 6432, Note_on_c, 1, 58, 127
3, 6480, Note_on_c, 1, 58, 0
3, 6480, Note_on_c, 1, 58, 127
3, 6528, Note_on_c, 1, 58, 0
3, 6528, Note_on_c, 1, 58, 127
3, 6720, Note_on_c, 1, 58, 0
3, 6912, Control_c, 1, 7, 60
3, 6912, Note_on_c, 1, 62, 127
3, 6984, Note_on_c, 1, 62, 0
3, 6984, Note_on_c, 1, 62, 127
3, 7008, Note_on_c, 1, 62, 0
3, 7008, Note_on_c, 1, 62, 127
3, 7080, Note_on_c, 1, 62, 0
3, 7080, Note_on_c, 1, 62, 127
3, 7104, Note_on_c, 1, 62, 0
3, 7104, Note_on_c, 1, 62, 127
3, 7200, Note_on_c, 1, 62, 0
3, 7296, Note_on_c, 1, 62, 127
3, 7368, Note_on_c, 1, 62, 0
3, 7368, Note_on_c, 1, 62, 127
3, 7392, Note_on_c, 1, 62, 0
3, 7392, Note_on_c, 1, 62, 127
3, 7464, Note_on_c, 1, 62, 0
3, 7464, Note_on_c, 1, 62, 127
3, 7488, Note_on_c, 1, 62, 0
3, 7488, Note_on_c, 1, 62, 127
3, 7584, Note_on_c, 1, 62, 0
3, 7680, Control_c, 1, 7, 60
3, 7680, Note_on_c, 1, 63, 127
3, 7752, Note_on_c, 1, 63, 0
3, 7752, Note_on_c, 1, 63, 127
3, 7776, Note_on_c, 1, 63, 0
3, 7776, Note_on_c, 1, 63, 127
3, 7848, Note_on_c, 1, 63, 0
3, 7848, Note_on_c, 1, 63, 127
3, 7872, Note_on_c, 1, 63, 0
3, 7872, Note_on_c, 1, 63, 127
3, 7968, Note_on_c, 1, 63, 0
3, 8064, Note_on_c, 1, 63, 127
3, 8136, Note_on_c, 1, 63, 0
3, 8136, Note_on_c, 1, 63, 127
3, 8160, Note_on_c, 1, 63, 0
3, 8160, Note_on_c, 1, 63, 127
3, 8232, Note_on_c, 1, 63, 0
3, 8232, Note_on_c, 1, 63, 127
3, 8256, Note_on_c, 1, 63, 0
3, 8256, Note_on_c, 1, 63, 127
3, 8352, Note_on_c, 1, 63, 0
3, 8448, Control_c, 1, 7, 60
3, 8448, Note_on_c, 1, 64, 127
3, 8520, Note_on_c, 1, 64, 0
3, 8520, Note_on_c, 1, 64, 127
3, 8544, Note_on_c, 1, 64, 0
3, 8544, Note_on_c, 1, 64, 127
3, 8616, Note_on_c, 1, 64, 0
3, 8616, Note_on_c, 1, 64, 127
3, 8640, Note_on_c, 1, 64, 0
3, 8640, Note_on_c, 1, 64, 127
3, 8736, Note_on_c, 1, 64, 0
3, 8832, Note_on_c, 1, 69, 127
3, 8904, Note_on_c, 1, 69, 0
3, 8904, Note_on_c, 1, 69, 127
3, 8928, Note_on_c, 1, 69, 0
3, 8928, Note_on_c, 1, 69, 127
3, 9000, Note_on_c, 1, 69, 0
3, 9000, Note_on_c, 1, 69, 127
3, 9024, Note_on_c, 1, 69, 0
3, 9024, Note_on_c, 1, 69, 127
3, 9120, Note_on_c, 1, 69, 0
3, 9216, Control_c, 1, 7, 60
3, 9216, Note_on_c, 1, 67, 127
3, 9288, Note_on_c, 1, 67, 0
3, 9288, Note_on_c, 1, 67, 127
3, 9312, Note_on_c, 1, 67, 0
3, 9312, Note_on_c, 1, 67, 127
3, 9384, Note_on_c, 1, 67, 0
3, 9384, Note_on_c, 1, 67, 127
3, 9408, Note_on_c, 1, 67, 0
3, 9408, Note_on_c, 1, 67, 127
3, 9504, Note_on_c, 1, 67, 0
3, 9600, Note_on_c, 1, 63, 127
3, 9672, Note_on_c, 1, 63, 0
3, 9672, Note_on_c, 1, 63, 127
3, 9696, Note_on_c, 1, 63, 0
3, 9696, Note_on_c, 1, 63, 127
3, 9768, Note_on_c, 1, 63, 0
3, 9768, Note_on_c, 1, 63, 127
3, 9792, Note_on_c, 1, 63, 0
3, 9792, Note_on_c, 1, 63, 127
3, 9888, Note_on_c, 1, 63, 0
3, 9984, Control_c, 1, 7, 60
3, 9984, Note_on_c, 1, 62, 127
3, 10056, Note_on_c, 1, 62, 0
3, 10056, Note_on_c, 1, 62, 127
3, 10080, Note_on_c, 1, 62, 0
3, 10080, Note_on_c, 1, 62, 127
3, 10152, Note_on_c, 1, 62, 0
3, 10152, Note_on_c, 1, 62, 127
3, 10176, Note_on_c, 1, 62, 0
3, 10176, Note_on_c, 1, 62, 127
3, 10272, Note_on_c, 1, 62, 0
3, 10368, Note_on_c, 1, 69, 127
3, 10440, Note_on_c, 1, 69, 0
3, 10440, Note_on_c, 1, 69, 127
3, 10464, Note_on_c, 1, 69, 0
3, 10464, Note_on_c, 1, 69, 127
3, 10536, Note_on_c, 1, 69, 0
3, 10536, Note_on_c, 1, 69, 127
3, 10560, Note_on_c, 1, 69, 0
3, 10560, Note_on_c, 1, 69, 127
3, 10656, Note_on_c, 1, 69, 0
3, 10752, Control_c, 1, 7, 60
3, 10752, Note_on_c, 1, 69, 127
3, 10824, Note_on_c, 1, 69, 0
3, 10824, Note_on_c, 1, 69, 127
3, 10848, Note_on_c, 1, 69, 0
3, 10848, Note_on_c, 1, 69, 127
3, 10920, Note_on_c, 1, 69, 0
3, 10920, Note_on_c, 1, 69, 127
3, 10944, Note_on_c, 1, 69, 0
3, 10944, Note_on_c, 1, 69, 127
3, 11040, Note_on_c, 1, 69, 0
3, 11136, Note_on_c, 1, 64, 127
3, 11208, Note_on_c, 1, 64, 0
3, 11208, Note_on_c, 1, 64, 127
3, 11232, Note_on_c, 1, 64, 0
3, 11232, Note_on_c, 1, 64, 127
3, 11304, Note_on_c, 1, 64, 0
3, 11304, Note_on_c, 1, 64, 127
3, 11328, Note_on_c, 1, 64, 0
3, 11328, Note_on_c, 1, 62, 127
3, 11424, Note_on_c, 1, 62, 0
3, 11520, Control_c, 1, 7, 127
3, 11520, Note_on_c, 1, 55, 127
3, 11616, Note_on_c, 1, 55, 0
3, 11616, Note_on_c, 1, 55, 127
3, 11648, Note_on_c, 1, 55, 0
3, 11664, Note_on_c, 1, 55, 127
3, 11696, Note_on_c, 1, 55, 0
3, 11712, Note_on_c, 1, 55, 127
3, 11744, Note_on_c, 1, 55, 0
3, 11760, Note_on_c, 1, 55, 127
3, 11792, Note_on_c, 1, 55, 0
3, 11808, Note_on_c, 1, 55, 127
3, 11840, Note_on_c, 1, 55, 0
3, 11856, Note_on_c, 1, 55, 127
3, 11888, Note_on_c, 1, 55, 0
3, 11904, Note_on_c, 1, 55, 127
3, 11936, Note_on_c, 1, 55, 0
3, 11952, Note_on_c, 1, 55, 127
3, 11984, Note_on_c, 1, 55, 0
3, 12000, Note_on_c, 1, 55, 127
3, 12032, Note_on_c, 1, 55, 0
3, 12048, Note_on_c, 1, 55, 127
3, 12080, Note_on_c, 1, 55, 0
3, 12096, Note_on_c, 1, 55, 127
3, 12128, Note_on_c, 1, 55, 0
3, 12144, Note_on_c, 1, 55, 127
3, 12176, Note_on_c, 1, 55, 0
3, 12192, Note_on_c, 1, 55, 127
3, 12224, Note_on_c, 1, 55, 0
3, 12240, Note_on_c, 1, 55, 127
3, 12272, Note_on_c, 1, 55, 0
3, 12288, Note_on_c, 1, 55, 127
3, 12480, Note_on_c, 1, 55, 0
3, 12648, Control_c, 1, 7, 60
3, 12672, Note_on_c, 1, 70, 127
3, 12744, Note_on_c, 1, 70, 0
3, 12744, Note_on_c, 1, 70, 127
3, 12768, Note_on_c, 1, 70, 0
3, 12768, Note_on_c, 1, 70, 127
3, 12840, Note_on_c, 1, 70, 0
3, 12840, Note_on_c, 1, 70, 127
3, 12864, Note_on_c, 1, 70, 0
3, 12864, Note_on_c, 1, 70, 127
3, 12960, Note_on_c, 1, 70, 0
3, 13056, Control_c, 1, 7, 60
3, 13056, Note_on_c, 1, 69, 127
3, 13128, Note_on_c, 1, 69, 0
3, 13128, Note_on_c, 1, 69, 127
3, 13152, Note_on_c, 1, 69, 0
3, 13152, Note_on_c, 1, 69, 127
3, 13224, Note_on_c, 1, 69, 0
3, 13224, Note_on_c, 1, 69, 127
3, 13248, Note_on_c, 1, 69, 0
3, 13248, Note_on_c, 1, 69, 127
3, 13344, Note_on_c, 1, 69, 0
3, 13440, Note_on_c, 1, 67, 127
3, 13512, Note_on_c, 1, 67, 0
3, 13512, Note_on_c, 1, 67, 127
3, 13536, Note_on_c, 1, 67, 0
3, 13536, Note_on_c, 1, 67, 127
3, 13608, Note_on_c, 1, 67, 0
3, 13608, Note_on_c, 1, 67, 127
3, 13632, Note_on_c, 1, 67, 0
3, 13632, Note_on_c, 1, 67, 127
3, 13728, Note_on_c, 1, 67, 0
3, 13824, Control_c, 1, 7, 60
3, 13824, Note_on_c, 1, 66, 127
3, 13896, Note_on_c, 1, 66, 0
3, 13896, Note_on_c, 1, 66, 127
3, 13920, Note_on_c, 1, 66, 0
3, 13920, Note_on_c, 1, 66, 127
3, 13992, Note_on_c, 1, 66, 0
3, 13992, Note_on_c, 1, 66, 127
3, 14016, Note_on_c, 1, 66, 0
3, 14016, Note_on_c, 1, 66, 127
3, 14112, Note_on_c, 1, 66, 0
3, 14208, Note_on_c, 1, 64, 127
3, 14280, Note_on_c, 1, 64, 0
3, 14280, Note_on_c, 1, 64, 127
3, 14304, Note_on_c, 1, 64, 0
3, 14304, Note_on_c, 1, 64, 127
3, 14376, Note_on_c, 1, 64, 0
3, 14376, Note_on_c, 1, 64, 127
3, 14400, Note_on_c, 1, 64, 0
3, 14400, Note_on_c, 1, 62, 127
3, 14496, Note_on_c, 1, 62, 0
3, 14592, Control_c, 1, 7, 127
3, 14592, Note_on_c, 1, 55, 127
3, 14688, Note_on_c, 1, 55, 0
3, 14688, Note_on_c, 1, 55, 127
3, 14720, Note_on_c, 1, 55, 0
3, 14736, Note_on_c, 1, 55, 127
3, 14768, Note_on_c, 1, 55, 0
3, 14784, Note_on_c, 1, 55, 127
3, 14816, Note_on_c, 1, 55, 0
3, 14832, Note_on_c, 1, 55, 127
3, 14864, Note_on_c, 1, 55, 0
3, 14880, Note_on_c, 1, 55, 127
3, 14912, Note_on_c, 1, 55, 0
3, 14928, Note_on_c, 1, 55, 127
3, 14960, Note_on_c, 1, 55, 0
3, 14976, Note_on_c, 1, 55, 127
3, 15008, Note_on_c, 1, 55, 0
3, 15024, Note_on_c, 1, 55, 127
3, 15056, Note_on_c, 1, 55, 0
3, 15072, Note_on_c, 1, 55, 127
3, 15104, Note_on_c, 1, 55, 0
3, 15120, Note_on_c, 1, 55, 127
3, 15152, Note_on_c, 1, 55, 0
3, 15168, Note_on_c, 1, 55, 127
3, 15200, Note_on_c, 1, 55, 0
3, 15216, Note_on_c, 1, 55, 127
3, 15248, Note_on_c, 1, 55, 0
3, 15264, Note_on_c, 1, 55, 127
3, 15296, Note_on_c, 1, 55, 0
3, 15312, Note_on_c, 1, 55, 127
3, 15344, Note_on_c, 1, 55, 0
3, 15360, Note_on_c, 1, 55, 127
3, 15552, Note_on_c, 1, 55, 0
3, 15720, Control_c, 1, 7, 40
3, 15744, Note_on_c, 1, 58, 127
3, 15816, Note_on_c, 1, 58, 0
3, 15816, Note_on_c, 1, 58, 127
3, 15840, Note_on_c, 1, 58, 0
3, 15840, Note_on_c, 1, 58, 127
3, 15912, Note_on_c, 1, 58, 0
3, 15912, Note_on_c, 1, 58, 127
3, 15936, Note_on_c, 1, 58, 0
3, 15936, Note_on_c, 1, 58, 127
3, 16032, Note_on_c, 1, 58, 0
3, 16128, Note_on_c, 1, 58, 127
3, 16128, Control_c, 1, 7, 30
3, 16200, Note_on_c, 1, 58, 0
3, 16200, Note_on_c, 1, 58, 127
3, 16224, Note_on_c, 1, 58, 0
3, 16224, Note_on_c, 1, 58, 127
3, 16296, Note_on_c, 1, 58, 0
3, 16296, Note_on_c, 1, 58, 127
3, 16320, Note_on_c, 1, 58, 0
3, 16320, Note_on_c, 1, 58, 127
3, 16416, Note_on_c, 1, 58, 0
3, 17688, Control_c, 1, 7, 100
3, 18432, Note_on_c, 1, 67, 127
3, 18468, Note_on_c, 1, 67, 0
3, 18480, Note_on_c, 1, 55, 127
3, 18516, Note_on_c, 1, 55, 0
3, 18528, Note_on_c, 1, 55, 127
3, 18564, Note_on_c, 1, 55, 0
3, 18576, Note_on_c, 1, 55, 127
3, 18612, Note_on_c, 1, 55, 0
3, 18624, Note_on_c, 1, 55, 127
3, 18660, Note_on_c, 1, 55, 0
3, 18672, Note_on_c, 1, 55, 127
3, 18708, Note_on_c, 1, 55, 0
3, 18720, Note_on_c, 1, 55, 127
3, 18756, Note_on_c, 1, 55, 0
3, 18768, Note_on_c, 1, 55, 127
3, 18804, Note_on_c, 1, 55, 0
3, 18816, Note_on_c, 1, 55, 127
3, 18852, Note_on_c, 1, 55, 0
3, 18864, Note_on_c, 1, 55, 127
3, 18900, Note_on_c, 1, 55, 0
3, 18912, Note_on_c, 1, 55, 127
3, 18948, Note_on_c, 1, 55, 0
3, 18960, Note_on_c, 1, 55, 127
3, 18996, Note_on_c, 1, 55, 0
3, 19008, Note_on_c, 1, 65, 127
3, 19044, Note_on_c, 1, 65, 0
3, 19056, Note_on_c, 1, 55, 127
3, 19092, Note_on_c, 1, 55, 0
3, 19104, Note_on_c, 1, 55, 127
3, 19140, Note_on_c, 1, 55, 0
3, 19152, Note_on_c, 1, 55, 127
3, 19188, Note_on_c, 1, 55, 0
3, 19200, Note_on_c, 1, 55, 127
3, 19236, Note_on_c, 1, 55, 0
3, 19248, Note_on_c, 1, 55, 127
3, 19284, Note_on_c, 1, 55, 0
3, 19296, Note_on_c, 1, 55, 127
3, 19332, Note_on_c, 1, 55, 0
3, 19344, Note_on_c, 1, 55, 127
3, 19380, Note_on_c, 1, 55, 0
3, 19392, Note_on_c, 1, 55, 127
3, 19428, Note_on_c, 1, 55, 0
3, 19440, Note_on_c, 1, 55, 127
3, 19476, Note_on_c, 1, 55, 0
3, 19488, Note_on_c, 1, 55, 127
3, 19524, Note_on_c, 1, 55, 0
3, 19536, Note_on_c, 1, 55, 127
3, 19572, Note_on_c, 1, 55, 0
3, 19584, Note_on_c, 1, 63, 127
3, 19620, Note_on_c, 1, 63, 0
3, 19632, Note_on_c, 1, 55, 127
3, 19668, Note_on_c, 1, 55, 0
3, 19680, Note_on_c, 1, 55, 127
3, 19716, Note_on_c, 1, 55, 0
3, 19728, Note_on_c, 1, 55, 127
3, 19764, Note_on_c, 1, 55, 0
3, 19776, Note_on_c, 1, 55, 127
3, 19812, Note_on_c, 1, 55, 0
3, 19824, Note_on_c, 1, 55, 127
3, 19860, Note_on_c, 1, 55, 0
3, 19872, Note_on_c, 1, 55, 127
3, 19908, Note_on_c, 1, 55, 0
3, 19920, Note_on_c, 1, 55, 127
3, 19956, Note_on_c, 1, 55, 0
3, 19968, Note_on_c, 1, 55, 127
3, 20004, Note_on_c, 1, 55, 0
3, 20016, Note_on_c, 1, 55, 127
3, 20052, Note_on_c, 1, 55, 0
3, 20064, Note_on_c, 1, 55, 127
3, 20100, Note_on_c, 1, 55, 0
3, 20112, Note_on_c, 1, 55, 127
3, 20148, Note_on_c, 1, 55, 0
3, 20160, Note_on_c, 1, 62, 127
3, 20196, Note_on_c, 1, 62, 0
3, 20208, Note_on_c, 1, 55, 127
3, 20244, Note_on_c, 1, 55, 0
3, 20256, Note_on_c, 1, 55, 127
3, 20292, Note_on_c, 1, 55, 0
3, 20304, Note_on_c, 1, 55, 127
3, 20340, Note_on_c, 1, 55, 0
3, 20352, Note_on_c, 1, 55, 127
3, 20388, Note_on_c, 1, 55, 0
3, 20400, Note_on_c, 1, 55, 127
3, 20436, Note_on_c, 1, 55, 0
3, 20448, Note_on_c, 1, 55, 127
3, 20484, Note_on_c, 1, 55, 0
3, 20496, Note_on_c, 1, 55, 127
3, 20532, Note_on_c, 1, 55, 0
3, 20544, Note_on_c, 1, 55, 127
3, 20580, Note_on_c, 1, 55, 0
3, 21312, Note_on_c, 1, 74, 127
3, 21348, Note_on_c, 1, 74, 0
3, 21360, Note_on_c, 1, 62, 127
3, 21396, Note_on_c, 1, 62, 0
3, 21408, Note_on_c, 1, 62, 127
3, 21444, Note_on_c, 1, 62, 0
3, 21456, Note_on_c, 1, 62, 127
3, 21492, Note_on_c, 1, 62, 0
3, 21504, Note_on_c, 1, 62, 127
3, 21540, Note_on_c, 1, 62, 0
3, 21552, Note_on_c, 1, 62, 127
3, 21588, Note_on_c, 1, 62, 0
3, 21600, Note_on_c, 1, 62, 127
3, 21636, Note_on_c, 1, 62, 0
3, 21648, Note_on_c, 1, 62, 127
3, 21684, Note_on_c, 1, 62, 0
3, 21696, Note_on_c, 1, 62, 127
3, 21732, Note_on_c, 1, 62, 0
3, 21744, Note_on_c, 1, 62, 127
3, 21780, Note_on_c, 1, 62, 0
3, 21792, Note_on_c, 1, 62, 127
3, 21828, Note_on_c, 1, 62, 0
3, 21840, Note_on_c, 1, 62, 127
3, 21876, Note_on_c, 1, 62, 0
3, 21888, Note_on_c, 1, 72, 127
3, 21924, Note_on_c, 1, 72, 0
3, 21936, Note_on_c, 1, 62, 127
3, 21972, Note_on_c, 1, 62, 0
3, 21984, Note_on_c, 1, 62, 127
3, 22020, Note_on_c, 1, 62, 0
3, 22032, Note_on_c, 1, 62, 127
3, 22068, Note_on_c, 1, 62, 0
3, 22080, Note_on_c, 1, 62, 127
3, 22116, Note_on_c, 1, 62, 0
3, 22128, Note_on_c, 1, 62, 127
3, 22164, Note_on_c, 1, 62, 0
3, 22176, Note_on_c, 1, 62, 127
3, 22212, Note_on_c, 1, 62, 0
3, 22224, Note_on_c, 1, 62, 127
3, 22260, Note_on_c, 1, 62, 0
3, 22272, Note_on_c, 1, 62, 127
3, 22308, Note_on_c, 1, 62, 0
3, 22320, Note_on_c, 1, 62, 127
3, 22356, Note_on_c, 1, 62, 0
3, 22368, Note_on_c, 1, 62, 127
3, 22404, Note_on_c, 1, 62, 0
3, 22416, Note_on_c, 1, 62, 127
3, 22452, Note_on_c, 1, 62, 0
3, 22464, Note_on_c, 1, 70, 127
3, 22500, Note_on_c, 1, 70, 0
3, 22512, Note_on_c, 1, 62, 127
3, 22548, Note_on_c, 1, 62, 0
3, 22560, Note_on_c, 1, 62, 127
3, 22596, Note_on_c, 1, 62, 0
3, 22608, Note_on_c, 1, 62, 127
3, 22644, Note_on_c, 1, 62, 0
3, 22656, Note_on_c, 1, 62, 127
3, 22692, Note_on_c, 1, 62, 0
3, 22704, Note_on_c, 1, 62, 127
3, 22740, Note_on_c, 1, 62, 0
3, 22752, Note_on_c, 1, 62, 127
3, 22788, Note_on_c, 1, 62, 0
3, 22800, Note_on_c, 1, 62, 127
3, 22836, Note_on_c, 1, 62, 0
3, 22848, Note_on_c, 1, 62, 127
3, 22884, Note_on_c, 1, 62, 0
3, 22896, Note_on_c, 1, 62, 127
3, 22932, Note_on_c, 1, 62, 0
3, 22944, Note_on_c, 1, 62, 127
3, 22980, Note_on_c, 1, 62, 0
3, 22992, Note_on_c, 1, 62, 127
3, 23028, Note_on_c, 1, 62, 0
3, 23040, Note_on_c, 1, 69, 127
3, 23076, Note_on_c, 1, 69, 0
3, 23088, Note_on_c, 1, 62, 127
3, 23124, Note_on_c, 1, 62, 0
3, 23136, Note_on_c, 1, 62, 127
3, 23172, Note_on_c, 1, 62, 0
3, 23184, Note_on_c, 1, 62, 127
3, 23220, Note_on_c, 1, 62, 0
3, 23232, Note_on_c, 1, 62, 127
3, 23268, Note_on_c, 1, 62, 0
3, 23280, Note_on_c, 1, 62, 127
3, 23316, Note_on_c, 1, 62, 0
3, 23328, Note_on_c, 1, 62, 127
3, 23364, Note_on_c, 1, 62, 0
3, 23376, Note_on_c, 1, 62, 127
3, 23412, Note_on_c, 1, 62, 0
3, 23424, Note_on_c, 1, 62, 127
3, 23460, Note_on_c, 1, 62, 0
3, 23664, Note_on_c, 1, 74, 127
3, 23700, Note_on_c, 1, 74, 0
3, 23712, Note_on_c, 1, 72, 127
3, 23748, Note_on_c, 1, 72, 0
3, 23760, Note_on_c, 1, 70, 127
3, 23796, Note_on_c, 1, 70, 0
3, 23808, Note_on_c, 1, 69, 127
3, 23844, Note_on_c, 1, 69, 0
3, 23856, Note_on_c, 1, 67, 127
3, 23892, Note_on_c, 1, 67, 0
3, 23904, Note_on_c, 1, 66, 127
3, 23940, Note_on_c, 1, 66, 0
3, 23952, Note_on_c, 1, 64, 127
3, 23988, Note_on_c, 1, 64, 0
3, 24000, Note_on_c, 1, 62, 127
3, 24036, Note_on_c, 1, 62, 0
3, 24048, Note_on_c, 1, 60, 127
3, 24084, Note_on_c, 1, 60, 0
3, 24096, Note_on_c, 1, 58, 127
3, 24132, Note_on_c, 1, 58, 0
3, 24144, Note_on_c, 1, 57, 127
3, 24180, Note_on_c, 1, 57, 0
3, 24192, Note_on_c, 1, 55, 127
3, 24228, Note_on_c, 1, 55, 0
3, 24240, Note_on_c, 1, 55, 127
3, 24276, Note_on_c, 1, 55, 0
3, 24288, Note_on_c, 1, 55, 127
3, 24324, Note_on_c, 1, 55, 0
3, 24336, Note_on_c, 1, 55, 127
3, 24372, Note_on_c, 1, 55, 0
3, 24384, Note_on_c, 1, 55, 127
3, 24420, Note_on_c, 1, 55, 0
3, 24432, Note_on_c, 1, 55, 127
3, 24468, Note_on_c, 1, 55, 0
3, 24480, Note_on_c, 1, 55, 127
3, 24516, Note_on_c, 1, 55, 0
3, 24528, Note_on_c, 1, 55, 127
3, 24564, Note_on_c, 1, 55, 0
3, 24576, Note_on_c, 1, 55, 127
3, 24612, Note_on_c, 1, 55, 0
3, 24624, Note_on_c, 1, 55, 127
3, 24660, Note_on_c, 1, 55, 0
3, 24672, Note_on_c, 1, 55, 127
3, 24708, Note_on_c, 1, 55, 0
3, 24720, Note_on_c, 1, 55, 127
3, 24756, Note_on_c, 1, 55, 0
3, 24768, Note_on_c, 1, 55, 127
3, 24804, Note_on_c, 1, 55, 0
3, 24816, Note_on_c, 1, 79, 127
3, 24852, Note_on_c, 1, 79, 0
3, 24864, Note_on_c, 1, 77, 127
3, 24900, Note_on_c, 1, 77, 0
3, 24912, Note_on_c, 1, 75, 127
3, 24948, Note_on_c, 1, 75, 0
3, 24960, Note_on_c, 1, 74, 127
3, 24996, Note_on_c, 1, 74, 0
3, 25008, Note_on_c, 1, 72, 127
3, 25044, Note_on_c, 1, 72, 0
3, 25056, Note_on_c, 1, 70, 127
3, 25092, Note_on_c, 1, 70, 0
3, 25104, Note_on_c, 1, 69, 127
3, 25140, Note_on_c, 1, 69, 0
3, 25152, Note_on_c, 1, 67, 127
3, 25188, Note_on_c, 1, 67, 0
3, 25200, Note_on_c, 1, 65, 127
3, 25236, Note_on_c, 1, 65, 0
3, 25248, Note_on_c, 1, 63, 127
3, 25284, Note_on_c, 1, 63, 0
3, 25296, Note_on_c, 1, 62, 127
3, 25332, Note_on_c, 1, 62, 0
3, 25344, Note_on_c, 1, 60, 127
3, 25380, Note_on_c, 1, 60, 0
3, 25392, Note_on_c, 1, 60, 127
3, 25428, Note_on_c, 1, 60, 0
3, 25440, Note_on_c, 1, 60, 127
3, 25476, Note_on_c, 1, 60, 0
3, 25488, Note_on_c, 1, 60, 127
3, 25524, Note_on_c, 1, 60, 0
3, 25536, Note_on_c, 1, 60, 127
3, 25572, Note_on_c, 1, 60, 0
3, 25584, Note_on_c, 1, 60, 127
3, 25620, Note_on_c, 1, 60, 0
3, 25632, Note_on_c, 1, 60, 127
3, 25668, Note_on_c, 1, 60, 0
3, 25680, Note_on_c, 1, 60, 127
3, 25716, Note_on_c, 1, 60, 0
3, 25728, Note_on_c, 1, 60, 127
3, 25764, Note_on_c, 1, 60, 0
3, 25776, Note_on_c, 1, 60, 127
3, 25812, Note_on_c, 1, 60, 0
3, 25824, Note_on_c, 1, 60, 127
3, 25860, Note_on_c, 1, 60, 0
3, 25872, Note_on_c, 1, 60, 127
3, 25908, Note_on_c, 1, 60, 0
3, 25920, Note_on_c, 1, 60, 127
3, 25956, Note_on_c, 1, 60, 0
3, 25968, Note_on_c, 1, 82, 127
3, 26004, Note_on_c, 1, 82, 0
3, 26016, Note_on_c, 1, 81, 127
3, 26052, Note_on_c, 1, 81, 0
3, 26064, Note_on_c, 1, 79, 127
3, 26100, Note_on_c, 1, 79, 0
3, 26112, Note_on_c, 1, 77, 127
3, 26148, Note_on_c, 1, 77, 0
3, 26160, Note_on_c, 1, 75, 127
3, 26196, Note_on_c, 1, 75, 0
3, 26208, Note_on_c, 1, 74, 127
3, 26244, Note_on_c, 1, 74, 0
3, 26256, Note_on_c, 1, 72, 127
3, 26292, Note_on_c, 1, 72, 0
3, 26304, Note_on_c, 1, 70, 127
3, 26340, Note_on_c, 1, 70, 0
3, 26352, Note_on_c, 1, 69, 127
3, 26388, Note_on_c, 1, 69, 0
3, 26400, Note_on_c, 1, 67, 127
3, 26436, Note_on_c, 1, 67, 0
3, 26448, Note_on_c, 1, 65, 127
3, 26484, Note_on_c, 1, 65, 0
3, 26496, Note_on_c, 1, 63, 127
3, 26532, Note_on_c, 1, 63, 0
3, 26544, Note_on_c, 1, 63, 127
3, 26580, Note_on_c, 1, 63, 0
3, 26592, Note_on_c, 1, 63, 127
3, 26628, Note_on_c, 1, 63, 0
3, 26640, Note_on_c, 1, 63, 127
3, 26676, Note_on_c, 1, 63, 0
3, 26688, Note_on_c, 1, 63, 127
3, 26724, Note_on_c, 1, 63, 0
3, 26736, Note_on_c, 1, 63, 127
3, 26772, Note_on_c, 1, 63, 0
3, 26784, Note_on_c, 1, 63, 127
3, 26820, Note_on_c, 1, 63, 0
3, 26832, Note_on_c, 1, 63, 127
3, 26868, Note_on_c, 1, 63, 0
3, 26880, Note_on_c, 1, 63, 127
3, 26916, Note_on_c, 1, 63, 0
3, 26928, Note_on_c, 1, 63, 127
3, 26964, Note_on_c, 1, 63, 0
3, 26976, Note_on_c, 1, 63, 127
3, 27012, Note_on_c, 1, 63, 0
3, 27024, Note_on_c, 1, 63, 127
3, 27060, Note_on_c, 1, 63, 0
3, 27072, Note_on_c, 1, 63, 127
3, 27108, Note_on_c, 1, 63, 0
3, 27120, Note_on_c, 1, 86, 127
3, 27156, Note_on_c, 1, 86, 0
3, 27168, Note_on_c, 1, 84, 127
3, 27204, Note_on_c, 1, 84, 0
3, 27216, Note_on_c, 1, 82, 127
3, 27252, Note_on_c, 1, 82, 0
3, 27264, Note_on_c, 1, 81, 127
3, 27300, Note_on_c, 1, 81, 0
3, 27312, Note_on_c, 1, 79, 127
3, 27348, Note_on_c, 1, 79, 0
3, 27360, Note_on_c, 1, 78, 127
3, 27396, Note_on_c, 1, 78, 0
3, 27408, Note_on_c, 1, 76, 127
3, 27444, Note_on_c, 1, 76, 0
3, 27456, Note_on_c, 1, 74, 127
3, 27492, Note_on_c, 1, 74, 0
3, 27504, Note_on_c, 1, 72, 127
3, 27540, Note_on_c, 1, 72, 0
3, 27552, Note_on_c, 1, 70, 127
3, 27588, Note_on_c, 1, 70, 0
3, 27600, Note_on_c, 1, 69, 127
3, 27636, Note_on_c, 1, 69, 0
3, 27648, Note_on_c, 1, 67, 127
3, 27684, Note_on_c, 1, 67, 0
3, 27696, Note_on_c, 1, 67, 127
3, 27732, Note_on_c, 1, 67, 0
3, 27744, Note_on_c, 1, 67, 127
3, 27780, Note_on_c, 1, 67, 0
3, 27792, Note_on_c, 1, 67, 127
3, 27828, Note_on_c, 1, 67, 0
3, 27840, Note_on_c, 1, 67, 127
3, 27876, Note_on_c, 1, 67, 0
3, 27888, Note_on_c, 1, 67, 127
3, 27924, Note_on_c, 1, 67, 0
3, 27936, Note_on_c, 1, 67, 127
3, 27972, Note_on_c, 1, 67, 0
3, 27984, Note_on_c, 1, 67, 127
3, 28020, Note_on_c, 1, 67, 0
3, 28032, Note_on_c, 1, 67, 127
3, 28068, Note_on_c, 1, 67, 0
3, 28080, Note_on_c, 1, 67, 127
3, 28116, Note_on_c, 1, 67, 0
3, 28128, Note_on_c, 1, 67, 127
3, 28164, Note_on_c, 1, 67, 0
3, 28176, Note_on_c, 1, 67, 127
3, 28212, Note_on_c, 1, 67, 0
3, 28224, Note_on_c, 1, 67, 127
3, 28260, Note_on_c, 1, 67, 0
3, 28272, Note_on_c, 1, 86, 127
3, 28308, Note_on_c, 1, 86, 0
3, 28320, Note_on_c, 1, 84, 127
3, 28356, Note_on_c, 1, 84, 0
3, 28368, Note_on_c, 1, 82, 127
3, 28404, Note_on_c, 1, 82, 0
3, 28416, Note_on_c, 1, 81, 127
3, 28452, Note_on_c, 1, 81, 0
3, 28464, Note_on_c, 1, 79, 127
3, 28500, Note_on_c, 1, 79, 0
3, 28512, Note_on_c, 1, 78, 127
3, 28548, Note_on_c, 1, 78, 0
3, 28560, Note_on_c, 1, 76, 127
3, 28596, Note_on_c, 1, 76, 0
3, 28608, Note_on_c, 1, 74, 127
3, 28644, Note_on_c, 1, 74, 0
3, 28656, Note_on_c, 1, 72, 127
3, 28692, Note_on_c, 1, 72, 0
3, 28704, Note_on_c, 1, 70, 127
3, 28740, Note_on_c, 1, 70, 0
3, 28752, Note_on_c, 1, 69, 127
3, 28788, Note_on_c, 1, 69, 0
3, 28800, Note_on_c, 1, 67, 127
3, 28836, Note_on_c, 1, 67, 0
3, 28848, Note_on_c, 1, 67, 127
3, 28884, Note_on_c, 1, 67, 0
3, 28896, Note_on_c, 1, 67, 127
3, 28932, Note_on_c, 1, 67, 0
3, 28944, Note_on_c, 1, 67, 127
3, 28980, Note_on_c, 1, 67, 0
3, 28992, Note_on_c, 1, 67, 127
3, 29028, Note_on_c, 1, 67, 0
3, 29040, Note_on_c, 1, 67, 127
3, 29076, Note_on_c, 1, 67, 0
3, 29088, Note_on_c, 1, 67, 127
3, 29124, Note_on_c, 1, 67, 0
3, 29136, Note_on_c, 1, 67, 127
3, 29172, Note_on_c, 1, 67, 0
3, 29184, Note_on_c, 1, 67, 127
3, 29220, Note_on_c, 1, 67, 0
3, 29232, Note_on_c, 1, 67, 127
3, 29268, Note_on_c, 1, 67, 0
3, 29280, Note_on_c, 1, 67, 127
3, 29316, Note_on_c, 1, 67, 0
3, 29328, Note_on_c, 1, 67, 127
3, 29364, Note_on_c, 1, 67, 0
3, 29376, Note_on_c, 1, 74, 127
3, 29412, Note_on_c, 1, 74, 0
3, 29424, Note_on_c, 1, 67, 127
3, 29460, Note_on_c, 1, 67, 0
3, 29472, Note_on_c, 1, 67, 127
3, 29508, Note_on_c, 1, 67, 0
3, 29520, Note_on_c, 1, 67, 127
3, 29556, Note_on_c, 1, 67, 0
3, 29568, Note_on_c, 1, 74, 127
3, 29604, Note_on_c, 1, 74, 0
3, 29616, Note_on_c, 1, 67, 127
3, 29652, Note_on_c, 1, 67, 0
3, 29664, Note_on_c, 1, 67, 127
3, 29700, Note_on_c, 1, 67, 0
3, 29712, Note_on_c, 1, 67, 127
3, 29748, Note_on_c, 1, 67, 0
3, 29760, Note_on_c, 1, 74, 127
3, 29796, Note_on_c, 1, 74, 0
3, 29808, Note_on_c, 1, 67, 127
3, 29844, Note_on_c, 1, 67, 0
3, 29856, Note_on_c, 1, 67, 127
3, 29892, Note_on_c, 1, 67, 0
3, 29904, Note_on_c, 1, 67, 127
3, 29940, Note_on_c, 1, 67, 0
3, 29952, Note_on_c, 1, 62, 127
3, 29988, Note_on_c, 1, 62, 0
3, 30000, Note_on_c, 1, 69, 127
3, 30036, Note_on_c, 1, 69, 0
3, 30048, Note_on_c, 1, 70, 127
3, 30084, Note_on_c, 1, 70, 0
3, 30096, Note_on_c, 1, 72, 127
3, 30132, Note_on_c, 1, 72, 0
3, 30144, Note_on_c, 1, 74, 127
3, 30180, Note_on_c, 1, 74, 0
3, 30192, Note_on_c, 1, 76, 127
3, 30228, Note_on_c, 1, 76, 0
3, 30240, Note_on_c, 1, 78, 127
3, 30276, Note_on_c, 1, 78, 0
3, 30288, Note_on_c, 1, 79, 127
3, 30324, Note_on_c, 1, 79, 0
3, 30336, Note_on_c, 1, 81, 127
3, 30432, Note_on_c, 1, 81, 0
3, 30576, Note_on_c, 1, 69, 127
3, 30612, Note_on_c, 1, 69, 0
3, 30624, Note_on_c, 1, 70, 127
3, 30660, Note_on_c, 1, 70, 0
3, 30672, Note_on_c, 1, 72, 127
3, 30708, Note_on_c, 1, 72, 0
3, 30720, Note_on_c, 1, 74, 127
3, 30756, Note_on_c, 1, 74, 0
3, 30768, Note_on_c, 1, 76, 127
3, 30804, Note_on_c, 1, 76, 0
3, 30816, Note_on_c, 1, 78, 127
3, 30852, Note_on_c, 1, 78, 0
3, 30864, Note_on_c, 1, 79, 127
3, 30900, Note_on_c, 1, 79, 0
3, 30912, Note_on_c, 1, 81, 127
3, 31008, Note_on_c, 1, 81, 0
3, 31152, Note_on_c, 1, 70, 127
3, 31188, Note_on_c, 1, 70, 0
3, 31200, Note_on_c, 1, 72, 127
3, 31236, Note_on_c, 1, 72, 0
3, 31248, Note_on_c, 1, 74, 127
3, 31284, Note_on_c, 1, 74, 0
3, 31296, Note_on_c, 1, 75, 127
3, 31332, Note_on_c, 1, 75, 0
3, 31344, Note_on_c, 1, 78, 127
3, 31380, Note_on_c, 1, 78, 0
3, 31392, Note_on_c, 1, 79, 127
3, 31428, Note_on_c, 1, 79, 0
3, 31440, Note_on_c, 1, 81, 127
3, 31476, Note_on_c, 1, 81, 0
3, 31488, Note_on_c, 1, 82, 127
3, 31584, Note_on_c, 1, 82, 0
3, 31728, Note_on_c, 1, 74, 127
3, 31764, Note_on_c, 1, 74, 0
3, 31776, Note_on_c, 1, 76, 127
3, 31812, Note_on_c, 1, 76, 0
3, 31824, Note_on_c, 1, 78, 127
3, 31860, Note_on_c, 1, 78, 0
3, 31872, Note_on_c, 1, 79, 127
3, 31908, Note_on_c, 1, 79, 0
3, 31920, Note_on_c, 1, 81, 127
3, 31956, Note_on_c, 1, 81, 0
3, 31968, Note_on_c, 1, 82, 127
3, 32004, Note_on_c, 1, 82, 0
3, 32016, Note_on_c, 1, 84, 127
3, 32052, Note_on_c, 1, 84, 0
3, 32064, Note_on_c, 1, 86, 127
3, 32160, Note_on_c, 1, 86, 0
3, 32304, Note_on_c, 1, 74, 127
3, 32340, Note_on_c, 1, 74, 0
3, 32352, Note_on_c, 1, 76, 127
3, 32388, Note_on_c, 1, 76, 0
3, 32400, Note_on_c, 1, 78, 127
3, 32436, Note_on_c, 1, 78, 0
3, 32448, Note_on_c, 1, 79, 127
3, 32484, Note_on_c, 1, 79, 0
3, 32496, Note_on_c, 1, 81, 127
3, 32532, Note_on_c, 1, 81, 0
3, 32544, Note_on_c, 1, 82, 127
3, 32580, Note_on_c, 1, 82, 0
3, 32592, Note_on_c, 1, 84, 127
3, 32628, Note_on_c, 1, 84, 0
3, 32640, Note_on_c, 1, 86, 127
3, 32736, Note_on_c, 1, 86, 0
3, 32880, Note_on_c, 1, 69, 127
3, 32916, Note_on_c, 1, 69, 0
3, 32928, Note_on_c, 1, 70, 127
3, 32964, Note_on_c, 1, 70, 0
3, 32976, Note_on_c, 1, 72, 127
3, 33012, Note_on_c, 1, 72, 0
3, 33024, Note_on_c, 1, 74, 127
3, 33060, Note_on_c, 1, 74, 0
3, 33072, Note_on_c, 1, 76, 127
3, 33108, Note_on_c, 1, 76, 0
3, 33120, Note_on_c, 1, 78, 127
3, 33156, Note_on_c, 1, 78, 0
3, 33168, Note_on_c, 1, 79, 127
3, 33204, Note_on_c, 1, 79, 0
3, 33216, Note_on_c, 1, 81, 127
3, 33312, Note_on_c, 1, 81, 0
3, 33456, Note_on_c, 1, 70, 127
3, 33492, Note_on_c, 1, 70, 0
3, 33504, Note_on_c, 1, 72, 127
3, 33540, Note_on_c, 1, 72, 0
3, 33552, Note_on_c, 1, 74, 127
3, 33588, Note_on_c, 1, 74, 0
3, 33600, Note_on_c, 1, 75, 127
3, 33636, Note_on_c, 1, 75, 0
3, 33648, Note_on_c, 1, 78, 127
3, 33684, Note_on_c, 1, 78, 0
3, 33696, Note_on_c, 1, 79, 127
3, 33732, Note_on_c, 1, 79, 0
3, 33744, Note_on_c, 1, 81, 127
3, 33780, Note_on_c, 1, 81, 0
3, 33792, Note_on_c, 1, 82, 127
3, 33888, Note_on_c, 1, 82, 0
3, 34032, Note_on_c, 1, 74, 127
3, 34068, Note_on_c, 1, 74, 0
3, 34080, Note_on_c, 1, 76, 127
3, 34116, Note_on_c, 1, 76, 0
3, 34128, Note_on_c, 1, 78, 127
3, 34164, Note_on_c, 1, 78, 0
3, 34176, Note_on_c, 1, 79, 127
3, 34212, Note_on_c, 1, 79, 0
3, 34224, Note_on_c, 1, 81, 127
3, 34260, Note_on_c, 1, 81, 0
3, 34272, Note_on_c, 1, 82, 127
3, 34308, Note_on_c, 1, 82, 0
3, 34320, Note_on_c, 1, 84, 127
3, 34356, Note_on_c, 1, 84, 0
3, 34368, Note_on_c, 1, 86, 127
3, 34464, Note_on_c, 1, 86, 0
3, 34560, Note_on_c, 1, 82, 127
3, 34596, Note_on_c, 1, 82, 0
3, 34608, Note_on_c, 1, 79, 127
3, 34644, Note_on_c, 1, 79, 0
3, 34656, Note_on_c, 1, 74, 127
3, 34692, Note_on_c, 1, 74, 0
3, 34704, Note_on_c, 1, 70, 127
3, 34740, Note_on_c, 1, 70, 0
3, 34752, Note_on_c, 1, 82, 127
3, 34788, Note_on_c, 1, 82, 0
3, 34800, Note_on_c, 1, 79, 127
3, 34836, Note_on_c, 1, 79, 0
3, 34848, Note_on_c, 1, 74, 127
3, 34884, Note_on_c, 1, 74, 0
3, 34896, Note_on_c, 1, 70, 127
3, 34932, Note_on_c, 1, 70, 0
3, 34944, Note_on_c, 1, 82, 127
3, 34980, Note_on_c, 1, 82, 0
3, 34992, Note_on_c, 1, 79, 127
3, 35028, Note_on_c, 1, 79, 0
3, 35040, Note_on_c, 1, 74, 127
3, 35076, Note_on_c, 1, 74, 0
3, 35088, Note_on_c, 1, 70, 127
3, 35124, Note_on_c, 1, 70, 0
3, 35136, Note_on_c, 1, 74, 127
3, 35172, Note_on_c, 1, 74, 0
3, 35184, Note_on_c, 1, 70, 127
3, 35220, Note_on_c, 1, 70, 0
3, 35232, Note_on_c, 1, 67, 127
3, 35268, Note_on_c, 1, 67, 0
3, 35280, Note_on_c, 1, 62, 127
3, 35316, Note_on_c, 1, 62, 0
3, 35328, Note_on_c, 1, 74, 127
3, 35364, Note_on_c, 1, 74, 0
3, 35376, Note_on_c, 1, 70, 127
3, 35412, Note_on_c, 1, 70, 0
3, 35424, Note_on_c, 1, 67, 127
3, 35460, Note_on_c, 1, 67, 0
3, 35472, Note_on_c, 1, 62, 127
3, 35508, Note_on_c, 1, 62, 0
3, 35520, Note_on_c, 1, 74, 127
3, 35556, Note_on_c, 1, 74, 0
3, 35568, Note_on_c, 1, 70, 127
3, 35604, Note_on_c, 1, 70, 0
3, 35616, Note_on_c, 1, 67, 127
3, 35652, Note_on_c, 1, 67, 0
3, 35664, Note_on_c, 1, 62, 127
3, 35700, Note_on_c, 1, 62, 0
3, 35712, Note_on_c, 1, 67, 127
3, 35748, Note_on_c, 1, 67, 0
3, 35760, Note_on_c, 1, 62, 127
3, 35796, Note_on_c, 1, 62, 0
3, 35808, Note_on_c, 1, 58, 127
3, 35844, Note_on_c, 1, 58, 0
3, 35856, Note_on_c, 1, 55, 127
3, 35892, Note_on_c, 1, 55, 0
3, 35904, Note_on_c, 1, 67, 127
3, 35940, Note_on_c, 1, 67, 0
3, 35952, Note_on_c, 1, 62, 127
3, 35988, Note_on_c, 1, 62, 0
3, 36000, Note_on_c, 1, 58, 127
3, 36036, Note_on_c, 1, 58, 0
3, 36048, Note_on_c, 1, 55, 127
3, 36084, Note_on_c, 1, 55, 0
3, 36096, Note_on_c, 1, 67, 127
3, 36132, Note_on_c, 1, 67, 0
3, 36144, Note_on_c, 1, 62, 127
3, 36180, Note_on_c, 1, 62, 0
3, 36192, Note_on_c, 1, 58, 127
3, 36228, Note_on_c, 1, 58, 0
3, 36240, Note_on_c, 1, 55, 127
3, 36276, Note_on_c, 1, 55, 0
3, 36288, Note_on_c, 1, 67, 127
3, 36324, Note_on_c, 1, 67, 0
3, 36336, Note_on_c, 1, 71, 127
3, 36372, Note_on_c, 1, 71, 0
3, 36384, Note_on_c, 1, 67, 127
3, 36420, Note_on_c, 1, 67, 0
3, 36432, Note_on_c, 1, 71, 127
3, 36468, Note_on_c, 1, 71, 0
3, 36480, Note_on_c, 1, 67, 127
3, 36516, Note_on_c, 1, 67, 0
3, 36528, Note_on_c, 1, 71, 127
3, 36564, Note_on_c, 1, 71, 0
3, 36576, Note_on_c, 1, 67, 127
3, 36612, Note_on_c, 1, 67, 0
3, 36624, Note_on_c, 1, 71, 127
3, 36660, Note_on_c, 1, 71, 0
3, 36672, Note_on_c, 1, 67, 127
3, 36708, Note_on_c, 1, 67, 0
3, 36720, Note_on_c, 1, 71, 127
3, 36756, Note_on_c, 1, 71, 0
3, 36768, Note_on_c, 1, 67, 127
3, 36804, Note_on_c, 1, 67, 0
3, 36816, Note_on_c, 1, 71, 127
3, 36852, Note_on_c, 1, 71, 0
3, 36864, Note_on_c, 1, 67, 127
3, 36900, Note_on_c, 1, 67, 0
3, 36912, Note_on_c, 1, 72, 127
3, 36948, Note_on_c, 1, 72, 0
3, 36960, Note_on_c, 1, 67, 127
3, 36996, Note_on_c, 1, 67, 0
3, 37008, Note_on_c, 1, 72, 127
3, 37044, Note_on_c, 1, 72, 0
3, 37056, Note_on_c, 1, 67, 127
3, 37092, Note_on_c, 1, 67, 0
3, 37104, Note_on_c, 1, 72, 127
3, 37140, Note_on_c, 1, 72, 0
3, 37152, Note_on_c, 1, 67, 127
3, 37188, Note_on_c, 1, 67, 0
3, 37200, Note_on_c, 1, 72, 127
3, 37236, Note_on_c, 1, 72, 0
3, 37248, Note_on_c, 1, 67, 127
3, 37284, Note_on_c, 1, 67, 0
3, 37296, Note_on_c, 1, 72, 127
3, 37332, Note_on_c, 1, 72, 0
3, 37344, Note_on_c, 1, 67, 127
3, 37380, Note_on_c, 1, 67, 0
3, 37392, Note_on_c, 1, 72, 127
3, 37428, Note_on_c, 1, 72, 0
3, 37440, Note_on_c, 1, 67, 127
3, 37476, Note_on_c, 1, 67, 0
3, 37488, Note_on_c, 1, 73, 127
3, 37524, Note_on_c, 1, 73, 0
3, 37536, Note_on_c, 1, 67, 127
3, 37572, Note_on_c, 1, 67, 0
3, 37584, Note_on_c, 1, 73, 127
3, 37620, Note_on_c, 1, 73, 0
3, 37632, Note_on_c, 1, 67, 127
3, 37668, Note_on_c, 1, 67, 0
3, 37680, Note_on_c, 1, 73, 127
3, 37716, Note_on_c, 1, 73, 0
3, 37728, Note_on_c, 1, 67, 127
3, 37764, Note_on_c, 1, 67, 0
3, 37776, Note_on_c, 1, 73, 127
3, 37812, Note_on_c, 1, 73, 0
3, 37824, Note_on_c, 1, 67, 127
3, 37860, Note_on_c, 1, 67, 0
3, 37872, Note_on_c, 1, 73, 127
3, 37908, Note_on_c, 1, 73, 0
3, 37920, Note_on_c, 1, 67, 127
3, 37956, Note_on_c, 1, 67, 0
3, 37968, Note_on_c, 1, 73, 127
3, 38004, Note_on_c, 1, 73, 0
3, 38016, Note_on_c, 1, 69, 127
3, 38052, Note_on_c, 1, 69, 0
3, 38064, Note_on_c, 1, 74, 127
3, 38100, Note_on_c, 1, 74, 0
3, 38112, Note_on_c, 1, 69, 127
3, 38148, Note_on_c, 1, 69, 0
3, 38160, Note_on_c, 1, 74, 127
3, 38196, Note_on_c, 1, 74, 0
3, 38208, Note_on_c, 1, 69, 127
3, 38244, Note_on_c, 1, 69, 0
3, 38256, Note_on_c, 1, 74, 127
3, 38292, Note_on_c, 1, 74, 0
3, 38304, Note_on_c, 1, 69, 127
3, 38340, Note_on_c, 1, 69, 0
3, 38352, Note_on_c, 1, 74, 127
3, 38388, Note_on_c, 1, 74, 0
3, 38400, Note_on_c, 1, 69, 127
3, 38436, Note_on_c, 1, 69, 0
3, 38448, Note_on_c, 1, 74, 127
3, 38484, Note_on_c, 1, 74, 0
3, 38496, Note_on_c, 1, 69, 127
3, 38532, Note_on_c, 1, 69, 0
3, 38544, Note_on_c, 1, 74, 127
3, 38580, Note_on_c, 1, 74, 0
3, 38592, Note_on_c, 1, 69, 127
3, 38628, Note_on_c, 1, 69, 0
3, 38640, Note_on_c, 1, 74, 127
3, 38676, Note_on_c, 1, 74, 0
3, 38688, Note_on_c, 1, 69, 127
3, 38724, Note_on_c, 1, 69, 0
3, 38736, Note_on_c, 1, 74, 127
3, 38772, Note_on_c, 1, 74, 0
3, 38784, Note_on_c, 1, 69, 127
3, 38820, Note_on_c, 1, 69, 0
3, 38832, Note_on_c, 1, 74, 127
3, 38868, Note_on_c, 1, 74, 0
3, 38880, Note_on_c, 1, 69, 127
3, 38916, Note_on_c, 1, 69, 0
3, 38928, Note_on_c, 1, 74, 127
3, 38964, Note_on_c, 1, 74, 0
3, 38976, Note_on_c, 1, 69, 127
3, 39012, Note_on_c, 1, 69, 0
3, 39024, Note_on_c, 1, 74, 127
3, 39060, Note_on_c, 1, 74, 0
3, 39072, Note_on_c, 1, 69, 127
3, 39108, Note_on_c, 1, 69, 0
3, 39120, Note_on_c, 1, 74, 127
3, 39156, Note_on_c, 1, 74, 0
3, 39168, Note_on_c, 1, 69, 127
3, 39204, Note_on_c, 1, 69, 0
3, 39216, Note_on_c, 1, 73, 127
3, 39252, Note_on_c, 1, 73, 0
3, 39264, Note_on_c, 1, 69, 127
3, 39300, Note_on_c, 1, 69, 0
3, 39312, Note_on_c, 1, 73, 127
3, 39348, Note_on_c, 1, 73, 0
3, 39360, Note_on_c, 1, 69, 127
3, 39396, Note_on_c, 1, 69, 0
3, 39408, Note_on_c, 1, 73, 127
3, 39444, Note_on_c, 1, 73, 0
3, 39456, Note_on_c, 1, 69, 127
3, 39492, Note_on_c, 1, 69, 0
3, 39504, Note_on_c, 1, 73, 127
3, 39540, Note_on_c, 1, 73, 0
3, 39552, Note_on_c, 1, 69, 127
3, 39588, Note_on_c, 1, 69, 0
3, 39600, Note_on_c, 1, 73, 127
3, 39636, Note_on_c, 1, 73, 0
3, 39648, Note_on_c, 1, 69, 127
3, 39684, Note_on_c, 1, 69, 0
3, 39696, Note_on_c, 1, 73, 127
3, 39732, Note_on_c, 1, 73, 0
3, 39744, Note_on_c, 1, 74, 127
3, 39780, Note_on_c, 1, 74, 0
3, 39792, Note_on_c, 1, 62, 127
3, 39828, Note_on_c, 1, 62, 0
3, 39840, Note_on_c, 1, 64, 127
3, 39876, Note_on_c, 1, 64, 0
3, 39888, Note_on_c, 1, 65, 127
3, 39924, Note_on_c, 1, 65, 0
3, 39936, Note_on_c, 1, 67, 127
3, 39972, Note_on_c, 1, 67, 0
3, 39984, Note_on_c, 1, 69, 127
3, 40020, Note_on_c, 1, 69, 0
3, 40032, Note_on_c, 1, 71, 127
3, 40068, Note_on_c, 1, 71, 0
3, 40080, Note_on_c, 1, 73, 127
3, 40116, Note_on_c, 1, 73, 0
3, 40128, Note_on_c, 1, 74, 127
3, 40164, Note_on_c, 1, 74, 0
3, 40176, Note_on_c, 1, 69, 127
3, 40212, Note_on_c, 1, 69, 0
3, 40224, Note_on_c, 1, 71, 127
3, 40260, Note_on_c, 1, 71, 0
3, 40272, Note_on_c, 1, 73, 127
3, 40308, Note_on_c, 1, 73, 0
3, 40320, Note_on_c, 1, 74, 127
3, 40356, Note_on_c, 1, 74, 0
3, 40368, Note_on_c, 1, 76, 127
3, 40404, Note_on_c, 1, 76, 0
3, 40416, Note_on_c, 1, 77, 127
3, 40452, Note_on_c, 1, 77, 0
3, 40464, Note_on_c, 1, 79, 127
3, 40500, Note_on_c, 1, 79, 0
3, 40512, Note_on_c, 1, 81, 127
3, 40548, Note_on_c, 1, 81, 0
3, 40560, Note_on_c, 1, 74, 127
3, 40596, Note_on_c, 1, 74, 0
3, 40608, Note_on_c, 1, 76, 127
3, 40644, Note_on_c, 1, 76, 0
3, 40656, Note_on_c, 1, 77, 127
3, 40692, Note_on_c, 1, 77, 0
3, 40704, Note_on_c, 1, 79, 127
3, 40740, Note_on_c, 1, 79, 0
3, 40752, Note_on_c, 1, 81, 127
3, 40788, Note_on_c, 1, 81, 0
3, 40800, Note_on_c, 1, 83, 127
3, 40836, Note_on_c, 1, 83, 0
3, 40848, Note_on_c, 1, 85, 127
3, 40884, Note_on_c, 1, 85, 0
3, 40896, Note_on_c, 1, 86, 127
3, 40992, Note_on_c, 1, 86, 0
3, 41472, Note_on_c, 1, 62, 127
3, 41664, Note_on_c, 1, 62, 0
3, 41664, Note_on_c, 1, 62, 127
3, 41856, Note_on_c, 1, 62, 0
3, 41856, Note_on_c, 1, 62, 127
3, 42048, Note_on_c, 1, 62, 0
3, 42048, Note_on_c, 1, 62, 127
3, 42240, Note_on_c, 1, 62, 0
3, 42240, Note_on_c, 1, 62, 127
3, 42432, Note_on_c, 1, 62, 0
3, 42432, Note_on_c, 1, 62, 127
3, 42624, Note_on_c, 1, 62, 0
3, 42624, Note_on_c, 1, 62, 127
3, 42816, Note_on_c, 1, 62, 0
3, 42816, Note_on_c, 1, 62, 127
3, 43008, Note_on_c, 1, 62, 0
3, 43008, Note_on_c, 1, 62, 127
3, 43200, Note_on_c, 1, 62, 0
3, 43200, Note_on_c, 1, 62, 127
3, 43392, Note_on_c, 1, 62, 0
3, 43776, Note_on_c, 1, 62, 127
3, 43968, Note_on_c, 1, 62, 0
3, 43968, Note_on_c, 1, 62, 127
3, 44160, Note_on_c, 1, 62, 0
3, 44160, Note_on_c, 1, 62, 127
3, 44352, Note_on_c, 1, 62, 0
3, 44352, Note_on_c, 1, 62, 127
3, 44544, Note_on_c, 1, 62, 0
3, 44544, Note_on_c, 1, 62, 127
3, 44736, Note_on_c, 1, 62, 0
3, 44736, Note_on_c, 1, 62, 127
3, 44928, Note_on_c, 1, 62, 0
3, 44928, Note_on_c, 1, 62, 127
3, 45120, Note_on_c, 1, 62, 0
3, 45120, Note_on_c, 1, 62, 127
3, 45312, Note_on_c, 1, 62, 0
3, 45312, Note_on_c, 1, 62, 127
3, 45504, Note_on_c, 1, 62, 0
3, 45504, Note_on_c, 1, 62, 127
3, 45696, Note_on_c, 1, 62, 0
3, 49536, Note_on_c, 1, 62, 127
3, 49556, Note_on_c, 1, 62, 0
3, 49632, Note_on_c, 1, 62, 127
3, 49652, Note_on_c, 1, 62, 0
3, 49728, Note_on_c, 1, 62, 127
3, 49748, Note_on_c, 1, 62, 0
3, 49824, Note_on_c, 1, 74, 127
3, 49844, Note_on_c, 1, 74, 0
3, 49920, Note_on_c, 1, 77, 127
3, 49940, Note_on_c, 1, 77, 0
3, 50016, Note_on_c, 1, 81, 127
3, 50036, Note_on_c, 1, 81, 0
3, 50112, Note_on_c, 1, 82, 127
3, 50132, Note_on_c, 1, 82, 0
3, 50208, Note_on_c, 1, 62, 127
3, 50228, Note_on_c, 1, 62, 0
3, 50304, Note_on_c, 1, 62, 127
3, 50324, Note_on_c, 1, 62, 0
3, 50400, Note_on_c, 1, 74, 127
3, 50420, Note_on_c, 1, 74, 0
3, 50496, Note_on_c, 1, 79, 127
3, 50516, Note_on_c, 1, 79, 0
3, 50592, Note_on_c, 1, 82, 127
3, 50612, Note_on_c, 1, 82, 0
3, 50688, Note_on_c, 1, 82, 127
3, 50708, Note_on_c, 1, 82, 0
3, 50784, Note_on_c, 1, 64, 127
3, 50804, Note_on_c, 1, 64, 0
3, 50880, Note_on_c, 1, 64, 127
3, 50900, Note_on_c, 1, 64, 0
3, 50976, Note_on_c, 1, 76, 127
3, 50996, Note_on_c, 1, 76, 0
3, 51072, Note_on_c, 1, 79, 127
3, 51092, Note_on_c, 1, 79, 0
3, 51168, Note_on_c, 1, 82, 127
3, 51188, Note_on_c, 1, 82, 0
3, 51264, Note_on_c, 1, 81, 127
3, 51284, Note_on_c, 1, 81, 0
3, 51360, Note_on_c, 1, 65, 127
3, 51380, Note_on_c, 1, 65, 0
3, 51456, Note_on_c, 1, 65, 127
3, 51476, Note_on_c, 1, 65, 0
3, 51552, Note_on_c, 1, 72, 127
3, 51572, Note_on_c, 1, 72, 0
3, 51648, Note_on_c, 1, 77, 127
3, 51668, Note_on_c, 1, 77, 0
3, 51744, Note_on_c, 1, 81, 127
3, 51764, Note_on_c, 1, 81, 0
3, 51840, Note_on_c, 1, 81, 127
3, 51860, Note_on_c, 1, 81, 0
3, 51936, Note_on_c, 1, 62, 127
3, 51956, Note_on_c, 1, 62, 0
3, 52032, Note_on_c, 1, 62, 127
3, 52052, Note_on_c, 1, 62, 0
3, 52128, Note_on_c, 1, 74, 127
3, 52148, Note_on_c, 1, 74, 0
3, 52224, Note_on_c, 1, 77, 127
3, 52244, Note_on_c, 1, 77, 0
3, 52320, Note_on_c, 1, 81, 127
3, 52340, Note_on_c, 1, 81, 0
3, 52416, Note_on_c, 1, 79, 127
3, 52436, Note_on_c, 1, 79, 0
3, 52512, Note_on_c, 1, 63, 127
3, 52532, Note_on_c, 1, 63, 0
3, 52608, Note_on_c, 1, 63, 127
3, 52628, Note_on_c, 1, 63, 0
3, 52704, Note_on_c, 1, 70, 127
3, 52724, Note_on_c, 1, 70, 0
3, 52800, Note_on_c, 1, 75, 127
3, 52820, Note_on_c, 1, 75, 0
3, 52896, Note_on_c, 1, 79, 127
3, 52916, Note_on_c, 1, 79, 0
3, 52992, Note_on_c, 1, 79, 127
3, 53012, Note_on_c, 1, 79, 0
3, 53088, Note_on_c, 1, 60, 127
3, 53108, Note_on_c, 1, 60, 0
3, 53184, Note_on_c, 1, 60, 127
3, 53204, Note_on_c, 1, 60, 0
3, 53280, Note_on_c, 1, 72, 127
3, 53300, Note_on_c, 1, 72, 0
3, 53376, Note_on_c, 1, 75, 127
3, 53396, Note_on_c, 1, 75, 0
3, 53472, Note_on_c, 1, 79, 127
3, 53492, Note_on_c, 1, 79, 0
3, 53568, Note_on_c, 1, 79, 127
3, 53588, Note_on_c, 1, 79, 0
3, 53664, Note_on_c, 1, 62, 127
3, 53684, Note_on_c, 1, 62, 0
3, 53760, Note_on_c, 1, 62, 127
3, 53780, Note_on_c, 1, 62, 0
3, 53856, Note_on_c, 1, 71, 127
3, 53876, Note_on_c, 1, 71, 0
3, 53952, Note_on_c, 1, 74, 127
3, 53972, Note_on_c, 1, 74, 0
3, 54048, Note_on_c, 1, 79, 127
3, 54068, Note_on_c, 1, 79, 0
3, 54144, Note_on_c, 1, 77, 127
3, 54164, Note_on_c, 1, 77, 0
3, 54240, Note_on_c, 1, 62, 127
3, 54260, Note_on_c, 1, 62, 0
3, 54336, Note_on_c, 1, 62, 127
3, 54356, Note_on_c, 1, 62, 0
3, 54432, Note_on_c, 1, 71, 127
3, 54452, Note_on_c, 1, 71, 0
3, 54528, Note_on_c, 1, 74, 127
3, 54548, Note_on_c, 1, 74, 0
3, 54624, Note_on_c, 1, 77, 127
3, 54644, Note_on_c, 1, 77, 0
3, 54720, Note_on_c, 1, 75, 127
3, 54756, Note_on_c, 1, 75, 0
3, 54768, Note_on_c, 1, 63, 127
3, 54804, Note_on_c, 1, 63, 0
3, 54816, Note_on_c, 1, 65, 127
3, 54852, Note_on_c, 1, 65, 0
3, 54864, Note_on_c, 1, 67, 127
3, 54900, Note_on_c, 1, 67, 0
3, 54912, Note_on_c, 1, 68, 127
3, 54948, Note_on_c, 1, 68, 0
3, 54960, Note_on_c, 1, 71, 127
3, 54996, Note_on_c, 1, 71, 0
3, 55008, Note_on_c, 1, 72, 127
3, 55044, Note_on_c, 1, 72, 0
3, 55056, Note_on_c, 1, 74, 127
3, 55092, Note_on_c, 1, 74, 0
3, 55104, Note_on_c, 1, 75, 127
3, 55200, Note_on_c, 1, 75, 0
3, 55344, Note_on_c, 1, 63, 127
3, 55380, Note_on_c, 1, 63, 0
3, 55392, Note_on_c, 1, 65, 127
3, 55428, Note_on_c, 1, 65, 0
3, 55440, Note_on_c, 1, 67, 127
3, 55476, Note_on_c, 1, 67, 0
3, 55488, Note_on_c, 1, 68, 127
3, 55524, Note_on_c, 1, 68, 0
3, 55536, Note_on_c, 1, 71, 127
3, 55572, Note_on_c, 1, 71, 0
3, 55584, Note_on_c, 1, 72, 127
3, 55620, Note_on_c, 1, 72, 0
3, 55632, Note_on_c, 1, 74, 127
3, 55668, Note_on_c, 1, 74, 0
3, 55680, Note_on_c, 1, 75, 127
3, 55776, Note_on_c, 1, 75, 0
3, 55920, Note_on_c, 1, 63, 127
3, 55956, Note_on_c, 1, 63, 0
3, 55968, Note_on_c, 1, 65, 127
3, 56004, Note_on_c, 1, 65, 0
3, 56016, Note_on_c, 1, 67, 127
3, 56052, Note_on_c, 1, 67, 0
3, 56064, Note_on_c, 1, 68, 127
3, 56100, Note_on_c, 1, 68, 0
3, 56112, Note_on_c, 1, 71, 127
3, 56148, Note_on_c, 1, 71, 0
3, 56160, Note_on_c, 1, 72, 127
3, 56196, Note_on_c, 1, 72, 0
3, 56208, Note_on_c, 1, 74, 127
3, 56244, Note_on_c, 1, 74, 0
3, 56256, Note_on_c, 1, 75, 127
3, 56352, Note_on_c, 1, 75, 0
3, 56448, Note_on_c, 1, 63, 127
3, 56484, Note_on_c, 1, 63, 0
3, 56496, Note_on_c, 1, 72, 127
3, 56532, Note_on_c, 1, 72, 0
3, 56544, Note_on_c, 1, 70, 127
3, 56580, Note_on_c, 1, 70, 0
3, 56592, Note_on_c, 1, 72, 127
3, 56628, Note_on_c, 1, 72, 0
3, 56640, Note_on_c, 1, 63, 127
3, 56676, Note_on_c, 1, 63, 0
3, 56688, Note_on_c, 1, 72, 127
3, 56724, Note_on_c, 1, 72, 0
3, 56736, Note_on_c, 1, 70, 127
3, 56772, Note_on_c, 1, 70, 0
3, 56784, Note_on_c, 1, 72, 127
3, 56820, Note_on_c, 1, 72, 0
3, 56832, Note_on_c, 1, 63, 127
3, 56868, Note_on_c, 1, 63, 0
3, 56880, Note_on_c, 1, 72, 127
3, 56916, Note_on_c, 1, 72, 0
3, 56928, Note_on_c, 1, 70, 127
3, 56964, Note_on_c, 1, 70, 0
3, 56976, Note_on_c, 1, 72, 127
3, 57012, Note_on_c, 1, 72, 0
3, 57024, Note_on_c, 1, 65, 127
3, 57060, Note_on_c, 1, 65, 0
3, 57072, Note_on_c, 1, 72, 127
3, 57108, Note_on_c, 1, 72, 0
3, 57120, Note_on_c, 1, 70, 127
3, 57156, Note_on_c, 1, 70, 0
3, 57168, Note_on_c, 1, 72, 127
3, 57204, Note_on_c, 1, 72, 0
3, 57216, Note_on_c, 1, 65, 127
3, 57252, Note_on_c, 1, 65, 0
3, 57264, Note_on_c, 1, 72, 127
3, 57300, Note_on_c, 1, 72, 0
3, 57312, Note_on_c, 1, 70, 127
3, 57348, Note_on_c, 1, 70, 0
3, 57360, Note_on_c, 1, 72, 127
3, 57396, Note_on_c, 1, 72, 0
3, 57408, Note_on_c, 1, 65, 127
3, 57444, Note_on_c, 1, 65, 0
3, 57456, Note_on_c, 1, 72, 127
3, 57492, Note_on_c, 1, 72, 0
3, 57504, Note_on_c, 1, 70, 127
3, 57540, Note_on_c, 1, 70, 0
3, 57552, Note_on_c, 1, 72, 127
3, 57588, Note_on_c, 1, 72, 0
3, 57600, Note_on_c, 1, 67, 127
3, 57636, Note_on_c, 1, 67, 0
3, 57648, Note_on_c, 1, 72, 127
3, 57684, Note_on_c, 1, 72, 0
3, 57696, Note_on_c, 1, 71, 127
3, 57732, Note_on_c, 1, 71, 0
3, 57744, Note_on_c, 1, 72, 127
3, 57780, Note_on_c, 1, 72, 0
3, 57792, Note_on_c, 1, 67, 127
3, 57828, Note_on_c, 1, 67, 0
3, 57840, Note_on_c, 1, 72, 127
3, 57876, Note_on_c, 1, 72, 0
3, 57888, Note_on_c, 1, 71, 127
3, 57924, Note_on_c, 1, 71, 0
3, 57936, Note_on_c, 1, 72, 127
3, 57972, Note_on_c, 1, 72, 0
3, 57984, Note_on_c, 1, 67, 127
3, 58020, Note_on_c, 1, 67, 0
3, 58032, Note_on_c, 1, 71, 127
3, 58068, Note_on_c, 1, 71, 0
3, 58080, Note_on_c, 1, 69, 127
3, 58116, Note_on_c, 1, 69, 0
3, 58128, Note_on_c, 1, 71, 127
3, 58164, Note_on_c, 1, 71, 0
3, 58176, Note_on_c, 1, 72, 127
3, 58212, Note_on_c, 1, 72, 0
3, 58224, Note_on_c, 1, 60, 127
3, 58260, Note_on_c, 1, 60, 0
3, 58272, Note_on_c, 1, 60, 127
3, 58308, Note_on_c, 1, 60, 0
3, 58320, Note_on_c, 1, 60, 127
3, 58356, Note_on_c, 1, 60, 0
3, 58368, Note_on_c, 1, 60, 127
3, 58404, Note_on_c, 1, 60, 0
3, 58416, Note_on_c, 1, 60, 127
3, 58452, Note_on_c, 1, 60, 0
3, 58464, Note_on_c, 1, 60, 127
3, 58500, Note_on_c, 1, 60, 0
3, 58512, Note_on_c, 1, 60, 127
3, 58548, Note_on_c, 1, 60, 0
3, 58560, Note_on_c, 1, 60, 127
3, 58596, Note_on_c, 1, 60, 0
3, 58608, Note_on_c, 1, 60, 127
3, 58644, Note_on_c, 1, 60, 0
3, 58656, Note_on_c, 1, 60, 127
3, 58692, Note_on_c, 1, 60, 0
3, 58704, Note_on_c, 1, 60, 127
3, 58740, Note_on_c, 1, 60, 0
3, 58752, Note_on_c, 1, 70, 127
3, 58788, Note_on_c, 1, 70, 0
3, 58800, Note_on_c, 1, 60, 127
3, 58836, Note_on_c, 1, 60, 0
3, 58848, Note_on_c, 1, 60, 127
3, 58884, Note_on_c, 1, 60, 0
3, 58896, Note_on_c, 1, 60, 127
3, 58932, Note_on_c, 1, 60, 0
3, 58944, Note_on_c, 1, 60, 127
3, 58980, Note_on_c, 1, 60, 0
3, 58992, Note_on_c, 1, 60, 127
3, 59028, Note_on_c, 1, 60, 0
3, 59040, Note_on_c, 1, 60, 127
3, 59076, Note_on_c, 1, 60, 0
3, 59088, Note_on_c, 1, 60, 127
3, 59124, Note_on_c, 1, 60, 0
3, 59136, Note_on_c, 1, 60, 127
3, 59172, Note_on_c, 1, 60, 0
3, 59184, Note_on_c, 1, 60, 127
3, 59220, Note_on_c, 1, 60, 0
3, 59232, Note_on_c, 1, 60, 127
3, 59268, Note_on_c, 1, 60, 0
3, 59280, Note_on_c, 1, 60, 127
3, 59316, Note_on_c, 1, 60, 0
3, 59328, Note_on_c, 1, 68, 127
3, 59364, Note_on_c, 1, 68, 0
3, 59376, Note_on_c, 1, 60, 127
3, 59412, Note_on_c, 1, 60, 0
3, 59424, Note_on_c, 1, 60, 127
3, 59460, Note_on_c, 1, 60, 0
3, 59472, Note_on_c, 1, 60, 127
3, 59508, Note_on_c, 1, 60, 0
3, 59520, Note_on_c, 1, 60, 127
3, 59556, Note_on_c, 1, 60, 0
3, 59568, Note_on_c, 1, 60, 127
3, 59604, Note_on_c, 1, 60, 0
3, 59616, Note_on_c, 1, 60, 127
3, 59652, Note_on_c, 1, 60, 0
3, 59664, Note_on_c, 1, 60, 127
3, 59700, Note_on_c, 1, 60, 0
3, 59712, Note_on_c, 1, 60, 127
3, 59748, Note_on_c, 1, 60, 0
3, 59760, Note_on_c, 1, 60, 127
3, 59796, Note_on_c, 1, 60, 0
3, 59808, Note_on_c, 1, 60, 127
3, 59844, Note_on_c, 1, 60, 0
3, 59856, Note_on_c, 1, 60, 127
3, 59892, Note_on_c, 1, 60, 0
3, 59904, Note_on_c, 1, 67, 127
3, 59940, Note_on_c, 1, 67, 0
3, 59952, Note_on_c, 1, 60, 127
3, 59988, Note_on_c, 1, 60, 0
3, 60000, Note_on_c, 1, 60, 127
3, 60036, Note_on_c, 1, 60, 0
3, 60048, Note_on_c, 1, 60, 127
3, 60084, Note_on_c, 1, 60, 0
3, 60096, Note_on_c, 1, 60, 127
3, 60132, Note_on_c, 1, 60, 0
3, 60144, Note_on_c, 1, 60, 127
3, 60180, Note_on_c, 1, 60, 0
3, 60192, Note_on_c, 1, 60, 127
3, 60228, Note_on_c, 1, 60, 0
3, 60240, Note_on_c, 1, 60, 127
3, 60276, Note_on_c, 1, 60, 0
3, 60288, Note_on_c, 1, 60, 127
3, 60384, Note_on_c, 1, 60, 0
3, 66816, Note_on_c, 1, 60, 127
3, 66852, Note_on_c, 1, 60, 0
3, 66864, Note_on_c, 1, 60, 127
3, 66900, Note_on_c, 1, 60, 0
3, 66912, Note_on_c, 1, 60, 127
3, 66948, Note_on_c, 1, 60, 0
3, 66960, Note_on_c, 1, 60, 127
3, 66996, Note_on_c, 1, 60, 0
3, 67008, Note_on_c, 1, 60, 127
3, 67044, Note_on_c, 1, 60, 0
3, 67056, Note_on_c, 1, 60, 127
3, 67092, Note_on_c, 1, 60, 0
3, 67104, Note_on_c, 1, 60, 127
3, 67140, Note_on_c, 1, 60, 0
3, 67152, Note_on_c, 1, 60, 127
3, 67188, Note_on_c, 1, 60, 0
3, 67200, Note_on_c, 1, 60, 127
3, 67236, Note_on_c, 1, 60, 0
3, 67248, Note_on_c, 1, 60, 127
3, 67284, Note_on_c, 1, 60, 0
3, 67296, Note_on_c, 1, 60, 127
3, 67332, Note_on_c, 1, 60, 0
3, 67344, Note_on_c, 1, 60, 127
3, 67380, Note_on_c, 1, 60, 0
3, 67392, Note_on_c, 1, 68, 127
3, 67428, Note_on_c, 1, 68, 0
3, 67440, Note_on_c, 1, 60, 127
3, 67476, Note_on_c, 1, 60, 0
3, 67488, Note_on_c, 1, 60, 127
3, 67524, Note_on_c, 1, 60, 0
3, 67536, Note_on_c, 1, 60, 127
3, 67572, Note_on_c, 1, 60, 0
3, 67584, Note_on_c, 1, 68, 127
3, 67620, Note_on_c, 1, 68, 0
3, 67632, Note_on_c, 1, 60, 127
3, 67668, Note_on_c, 1, 60, 0
3, 67680, Note_on_c, 1, 60, 127
3, 67716, Note_on_c, 1, 60, 0
3, 67728, Note_on_c, 1, 60, 127
3, 67764, Note_on_c, 1, 60, 0
3, 67776, Note_on_c, 1, 68, 127
3, 67812, Note_on_c, 1, 68, 0
3, 67824, Note_on_c, 1, 60, 127
3, 67860, Note_on_c, 1, 60, 0
3, 67872, Note_on_c, 1, 60, 127
3, 67908, Note_on_c, 1, 60, 0
3, 67920, Note_on_c, 1, 60, 127
3, 67956, Note_on_c, 1, 60, 0
3, 67968, Note_on_c, 1, 59, 127
3, 68004, Note_on_c, 1, 59, 0
3, 68016, Note_on_c, 1, 59, 127
3, 68052, Note_on_c, 1, 59, 0
3, 68064, Note_on_c, 1, 59, 127
3, 68100, Note_on_c, 1, 59, 0
3, 68112, Note_on_c, 1, 59, 127
3, 68148, Note_on_c, 1, 59, 0
3, 68160, Note_on_c, 1, 59, 127
3, 68196, Note_on_c, 1, 59, 0
3, 68208, Note_on_c, 1, 59, 127
3, 68244, Note_on_c, 1, 59, 0
3, 68256, Note_on_c, 1, 59, 127
3, 68292, Note_on_c, 1, 59, 0
3, 68304, Note_on_c, 1, 59, 127
3, 68340, Note_on_c, 1, 59, 0
3, 68352, Note_on_c, 1, 59, 127
3, 68388, Note_on_c, 1, 59, 0
3, 68400, Note_on_c, 1, 59, 127
3, 68436, Note_on_c, 1, 59, 0
3, 68448, Note_on_c, 1, 59, 127
3, 68484, Note_on_c, 1, 59, 0
3, 68496, Note_on_c, 1, 59, 127
3, 68532, Note_on_c, 1, 59, 0
3, 68544, Note_on_c, 1, 67, 127
3, 68580, Note_on_c, 1, 67, 0
3, 68592, Note_on_c, 1, 58, 127
3, 68628, Note_on_c, 1, 58, 0
3, 68640, Note_on_c, 1, 58, 127
3, 68676, Note_on_c, 1, 58, 0
3, 68688, Note_on_c, 1, 58, 127
3, 68724, Note_on_c, 1, 58, 0
3, 68736, Note_on_c, 1, 67, 127
3, 68772, Note_on_c, 1, 67, 0
3, 68784, Note_on_c, 1, 58, 127
3, 68820, Note_on_c, 1, 58, 0
3, 68832, Note_on_c, 1, 58, 127
3, 68868, Note_on_c, 1, 58, 0
3, 68880, Note_on_c, 1, 58, 127
3, 68916, Note_on_c, 1, 58, 0
3, 68928, Note_on_c, 1, 67, 127
3, 68964, Note_on_c, 1, 67, 0
3, 68976, Note_on_c, 1, 58, 127
3, 69012, Note_on_c, 1, 58, 0
3, 69024, Note_on_c, 1, 58, 127
3, 69060, Note_on_c, 1, 58, 0
3, 69072, Note_on_c, 1, 58, 127
3, 69108, Note_on_c, 1, 58, 0
3, 69120, Note_on_c, 1, 57, 127
3, 69156, Note_on_c, 1, 57, 0
3, 69168, Note_on_c, 1, 57, 127
3, 69204, Note_on_c, 1, 57, 0
3, 69216, Note_on_c, 1, 57, 127
3, 69252, Note_on_c, 1, 57, 0
3, 69264, Note_on_c, 1, 57, 127
3, 69300, Note_on_c, 1, 57, 0
3, 69312, Note_on_c, 1, 57, 127
3, 69348, Note_on_c, 1, 57, 0
3, 69360, Note_on_c, 1, 57, 127
3, 69396, Note_on_c, 1, 57, 0
3, 69408, Note_on_c, 1, 57, 127
3, 69444, Note_on_c, 1, 57, 0
3, 69456, Note_on_c, 1, 57, 127
3, 69492, Note_on_c, 1, 57, 0
3, 69504, Note_on_c, 1, 57, 127
3, 69540, Note_on_c, 1, 57, 0
3, 69552, Note_on_c, 1, 57, 127
3, 69588, Note_on_c, 1, 57, 0
3, 69600, Note_on_c, 1, 57, 127
3, 69636, Note_on_c, 1, 57, 0
3, 69648, Note_on_c, 1, 57, 127
3, 69684, Note_on_c, 1, 57, 0
3, 69696, Note_on_c, 1, 65, 127
3, 69732, Note_on_c, 1, 65, 0
3, 69744, Note_on_c, 1, 56, 127
3, 69780, Note_on_c, 1, 56, 0
3, 69792, Note_on_c, 1, 56, 127
3, 69828, Note_on_c, 1, 56, 0
3, 69840, Note_on_c, 1, 56, 127
3, 69876, Note_on_c, 1, 56, 0
3, 69888, Note_on_c, 1, 65, 127
3, 69924, Note_on_c, 1, 65, 0
3, 69936, Note_on_c, 1, 56, 127
3, 69972, Note_on_c, 1, 56, 0
3, 69984, Note_on_c, 1, 56, 127
3, 70020, Note_on_c, 1, 56, 0
3, 70032, Note_on_c, 1, 56, 127
3, 70068, Note_on_c, 1, 56, 0
3, 70080, Note_on_c, 1, 65, 127
3, 70116, Note_on_c, 1, 65, 0
3, 70128, Note_on_c, 1, 56, 127
3, 70164, Note_on_c, 1, 56, 0
3, 70176, Note_on_c, 1, 56, 127
3, 70212, Note_on_c, 1, 56, 0
3, 70224, Note_on_c, 1, 56, 127
3, 70260, Note_on_c, 1, 56, 0
3, 70272, Note_on_c, 1, 55, 127
3, 70308, Note_on_c, 1, 55, 0
3, 70320, Note_on_c, 1, 67, 127
3, 70356, Note_on_c, 1, 67, 0
3, 70368, Note_on_c, 1, 67, 127
3, 70404, Note_on_c, 1, 67, 0
3, 70416, Note_on_c, 1, 67, 127
3, 70452, Note_on_c, 1, 67, 0
3, 70464, Note_on_c, 1, 67, 127
3, 70500, Note_on_c, 1, 67, 0
3, 70512, Note_on_c, 1, 67, 127
3, 70548, Note_on_c, 1, 67, 0
3, 70560, Note_on_c, 1, 67, 127
3, 70596, Note_on_c, 1, 67, 0
3, 70608, Note_on_c, 1, 67, 127
3, 70644, Note_on_c, 1, 67, 0
3, 70656, Note_on_c, 1, 67, 127
3, 70692, Note_on_c, 1, 67, 0
3, 70704, Note_on_c, 1, 67, 127
3, 70740, Note_on_c, 1, 67, 0
3, 70752, Note_on_c, 1, 67, 127
3, 70788, Note_on_c, 1, 67, 0
3, 70800, Note_on_c, 1, 67, 127
3, 70836, Note_on_c, 1, 67, 0
3, 70848, Note_on_c, 1, 75, 127
3, 70884, Note_on_c, 1, 75, 0
3, 70896, Note_on_c, 1, 67, 127
3, 70932, Note_on_c, 1, 67, 0
3, 70944, Note_on_c, 1, 67, 127
3, 70980, Note_on_c, 1, 67, 0
3, 70992, Note_on_c, 1, 67, 127
3, 71028, Note_on_c, 1, 67, 0
3, 71040, Note_on_c, 1, 75, 127
3, 71076, Note_on_c, 1, 75, 0
3, 71088, Note_on_c, 1, 67, 127
3, 71124, Note_on_c, 1, 67, 0
3, 71136, Note_on_c, 1, 67, 127
3, 71172, Note_on_c, 1, 67, 0
3, 71184, Note_on_c, 1, 67, 127
3, 71220, Note_on_c, 1, 67, 0
3, 71232, Note_on_c, 1, 75, 127
3, 71268, Note_on_c, 1, 75, 0
3, 71280, Note_on_c, 1, 67, 127
3, 71316, Note_on_c, 1, 67, 0
3, 71328, Note_on_c, 1, 67, 127
3, 71364, Note_on_c, 1, 67, 0
3, 71376, Note_on_c, 1, 67, 127
3, 71412, Note_on_c, 1, 67, 0
3, 71424, Note_on_c, 1, 66, 127
3, 71460, Note_on_c, 1, 66, 0
3, 71472, Note_on_c, 1, 66, 127
3, 71508, Note_on_c, 1, 66, 0
3, 71520, Note_on_c, 1, 66, 127
3, 71556, Note_on_c, 1, 66, 0
3, 71568, Note_on_c, 1, 66, 127
3, 71604, Note_on_c, 1, 66, 0
3, 71616, Note_on_c, 1, 66, 127
3, 71652, Note_on_c, 1, 66, 0
3, 71664, Note_on_c, 1, 66, 127
3, 71700, Note_on_c, 1, 66, 0
3, 71712, Note_on_c, 1, 66, 127
3, 71748, Note_on_c, 1, 66, 0
3, 71760, Note_on_c, 1, 66, 127
3, 71796, Note_on_c, 1, 66, 0
3, 71808, Note_on_c, 1, 66, 127
3, 71844, Note_on_c, 1, 66, 0
3, 71856, Note_on_c, 1, 66, 127
3, 71892, Note_on_c, 1, 66, 0
3, 71904, Note_on_c, 1, 66, 127
3, 71940, Note_on_c, 1, 66, 0
3, 71952, Note_on_c, 1, 66, 127
3, 71988, Note_on_c, 1, 66, 0
3, 72000, Note_on_c, 1, 74, 127
3, 72036, Note_on_c, 1, 74, 0
3, 72048, Note_on_c, 1, 65, 127
3, 72084, Note_on_c, 1, 65, 0
3, 72096, Note_on_c, 1, 65, 127
3, 72132, Note_on_c, 1, 65, 0
3, 72144, Note_on_c, 1, 65, 127
3, 72180, Note_on_c, 1, 65, 0
3, 72192, Note_on_c, 1, 74, 127
3, 72228, Note_on_c, 1, 74, 0
3, 72240, Note_on_c, 1, 65, 127
3, 72276, Note_on_c, 1, 65, 0
3, 72288, Note_on_c, 1, 65, 127
3, 72324, Note_on_c, 1, 65, 0
3, 72336, Note_on_c, 1, 65, 127
3, 72372, Note_on_c, 1, 65, 0
3, 72384, Note_on_c, 1, 74, 127
3, 72420, Note_on_c, 1, 74, 0
3, 72432, Note_on_c, 1, 65, 127
3, 72468, Note_on_c, 1, 65, 0
3, 72480, Note_on_c, 1, 65, 127
3, 72516, Note_on_c, 1, 65, 0
3, 72528, Note_on_c, 1, 65, 127
3, 72564, Note_on_c, 1, 65, 0
3, 72576, Note_on_c, 1, 64, 127
3, 72612, Note_on_c, 1, 64, 0
3, 72624, Note_on_c, 1, 64, 127
3, 72660, Note_on_c, 1, 64, 0
3, 72672, Note_on_c, 1, 64, 127
3, 72708, Note_on_c, 1, 64, 0
3, 72720, Note_on_c, 1, 64, 127
3, 72756, Note_on_c, 1, 64, 0
3, 72768, Note_on_c, 1, 64, 127
3, 72804, Note_on_c, 1, 64, 0
3, 72816, Note_on_c, 1, 64, 127
3, 72852, Note_on_c, 1, 64, 0
3, 72864, Note_on_c, 1, 64, 127
3, 72900, Note_on_c, 1, 64, 0
3, 72912, Note_on_c, 1, 64, 127
3, 72948, Note_on_c, 1, 64, 0
3, 72960, Note_on_c, 1, 64, 127
3, 72996, Note_on_c, 1, 64, 0
3, 73008, Note_on_c, 1, 64, 127
3, 73044, Note_on_c, 1, 64, 0
3, 73056, Note_on_c, 1, 64, 127
3, 73092, Note_on_c, 1, 64, 0
3, 73104, Note_on_c, 1, 64, 127
3, 73140, Note_on_c, 1, 64, 0
3, 73152, Note_on_c, 1, 72, 127
3, 73188, Note_on_c, 1, 72, 0
3, 73200, Note_on_c, 1, 63, 127
3, 73236, Note_on_c, 1, 63, 0
3, 73248, Note_on_c, 1, 63, 127
3, 73284, Note_on_c, 1, 63, 0
3, 73296, Note_on_c, 1, 63, 127
3, 73332, Note_on_c, 1, 63, 0
3, 73344, Note_on_c, 1, 72, 127
3, 73380, Note_on_c, 1, 72, 0
3, 73392, Note_on_c, 1, 63, 127
3, 73428, Note_on_c, 1, 63, 0
3, 73440, Note_on_c, 1, 63, 127
3, 73476, Note_on_c, 1, 63, 0
3, 73488, Note_on_c, 1, 63, 127
3, 73524, Note_on_c, 1, 63, 0
3, 73536, Note_on_c, 1, 72, 127
3, 73572, Note_on_c, 1, 72, 0
3, 73584, Note_on_c, 1, 63, 127
3, 73620, Note_on_c, 1, 63, 0
3, 73632, Note_on_c, 1, 63, 127
3, 73668, Note_on_c, 1, 63, 0
3, 73680, Note_on_c, 1, 63, 127
3, 73716, Note_on_c, 1, 63, 0
3, 73728, Note_on_c, 1, 62, 127
3, 73920, Note_on_c, 1, 62, 0
3, 76080, Note_on_c, 1, 74, 127
3, 76116, Note_on_c, 1, 74, 0
3, 76128, Note_on_c, 1, 72, 127
3, 76164, Note_on_c, 1, 72, 0
3, 76176, Note_on_c, 1, 70, 127
3, 76212, Note_on_c, 1, 70, 0
3, 76224, Note_on_c, 1, 69, 127
3, 76260, Note_on_c, 1, 69, 0
3, 76272, Note_on_c, 1, 67, 127
3, 76308, Note_on_c, 1, 67, 0
3, 76320, Note_on_c, 1, 66, 127
3, 76356, Note_on_c, 1, 66, 0
3, 76368, Note_on_c, 1, 64, 127
3, 76404, Note_on_c, 1, 64, 0
3, 76416, Note_on_c, 1, 62, 127
3, 76452, Note_on_c, 1, 62, 0
3, 76464, Note_on_c, 1, 60, 127
3, 76500, Note_on_c, 1, 60, 0
3, 76512, Note_on_c, 1, 58, 127
3, 76548, Note_on_c, 1, 58, 0
3, 76560, Note_on_c, 1, 57, 127
3, 76596, Note_on_c, 1, 57, 0
3, 76608, Note_on_c, 1, 55, 127
3, 76644, Note_on_c, 1, 55, 0
3, 76656, Note_on_c, 1, 55, 127
3, 76692, Note_on_c, 1, 55, 0
3, 76704, Note_on_c, 1, 55, 127
3, 76740, Note_on_c, 1, 55, 0
3, 76752, Note_on_c, 1, 55, 127
3, 76788, Note_on_c, 1, 55, 0
3, 76800, Note_on_c, 1, 55, 127
3, 76836, Note_on_c, 1, 55, 0
3, 76848, Note_on_c, 1, 55, 127
3, 76884, Note_on_c, 1, 55, 0
3, 76896, Note_on_c, 1, 55, 127
3, 76932, Note_on_c, 1, 55, 0
3, 76944, Note_on_c, 1, 55, 127
3, 76980, Note_on_c, 1, 55, 0
3, 76992, Note_on_c, 1, 55, 127
3, 77028, Note_on_c, 1, 55, 0
3, 77040, Note_on_c, 1, 55, 127
3, 77076, Note_on_c, 1, 55, 0
3, 77088, Note_on_c, 1, 55, 127
3, 77124, Note_on_c, 1, 55, 0
3, 77136, Note_on_c, 1, 55, 127
3, 77172, Note_on_c, 1, 55, 0
3, 77184, Note_on_c, 1, 55, 127
3, 77220, Note_on_c, 1, 55, 0
3, 77232, Note_on_c, 1, 79, 127
3, 77268, Note_on_c, 1, 79, 0
3, 77280, Note_on_c, 1, 77, 127
3, 77316, Note_on_c, 1, 77, 0
3, 77328, Note_on_c, 1, 75, 127
3, 77364, Note_on_c, 1, 75, 0
3, 77376, Note_on_c, 1, 74, 127
3, 77412, Note_on_c, 1, 74, 0
3, 77424, Note_on_c, 1, 72, 127
3, 77460, Note_on_c, 1, 72, 0
3, 77472, Note_on_c, 1, 70, 127
3, 77508, Note_on_c, 1, 70, 0
3, 77520, Note_on_c, 1, 69, 127
3, 77556, Note_on_c, 1, 69, 0
3, 77568, Note_on_c, 1, 67, 127
3, 77604, Note_on_c, 1, 67, 0
3, 77616, Note_on_c, 1, 65, 127
3, 77652, Note_on_c, 1, 65, 0
3, 77664, Note_on_c, 1, 63, 127
3, 77700, Note_on_c, 1, 63, 0
3, 77712, Note_on_c, 1, 62, 127
3, 77748, Note_on_c, 1, 62, 0
3, 77760, Note_on_c, 1, 60, 127
3, 77796, Note_on_c, 1, 60, 0
3, 77808, Note_on_c, 1, 60, 127
3, 77844, Note_on_c, 1, 60, 0
3, 77856, Note_on_c, 1, 60, 127
3, 77892, Note_on_c, 1, 60, 0
3, 77904, Note_on_c, 1, 60, 127
3, 77940, Note_on_c, 1, 60, 0
3, 77952, Note_on_c, 1, 60, 127
3, 77988, Note_on_c, 1, 60, 0
3, 78000, Note_on_c, 1, 60, 127
3, 78036, Note_on_c, 1, 60, 0
3, 78048, Note_on_c, 1, 60, 127
3, 78084, Note_on_c, 1, 60, 0
3, 78096, Note_on_c, 1, 60, 127
3, 78132, Note_on_c, 1, 60, 0
3, 78144, Note_on_c, 1, 60, 127
3, 78180, Note_on_c, 1, 60, 0
3, 78192, Note_on_c, 1, 60, 127
3, 78228, Note_on_c, 1, 60, 0
3, 78240, Note_on_c, 1, 60, 127
3, 78276, Note_on_c, 1, 60, 0
3, 78288, Note_on_c, 1, 60, 127
3, 78324, Note_on_c, 1, 60, 0
3, 78336, Note_on_c, 1, 60, 127
3, 78372, Note_on_c, 1, 60, 0
3, 78384, Note_on_c, 1, 82, 127
3, 78420, Note_on_c, 1, 82, 0
3, 78432, Note_on_c, 1, 81, 127
3, 78468, Note_on_c, 1, 81, 0
3, 78480, Note_on_c, 1, 79, 127
3, 78516, Note_on_c, 1, 79, 0
3, 78528, Note_on_c, 1, 77, 127
3, 78564, Note_on_c, 1, 77, 0
3, 78576, Note_on_c, 1, 75, 127
3, 78612, Note_on_c, 1, 75, 0
3, 78624, Note_on_c, 1, 74, 127
3, 78660, Note_on_c, 1, 74, 0
3, 78672, Note_on_c, 1, 72, 127
3, 78708, Note_on_c, 1, 72, 0
3, 78720, Note_on_c, 1, 70, 127
3, 78756, Note_on_c, 1, 70, 0
3, 78768, Note_on_c, 1, 69, 127
3, 78804, Note_on_c, 1, 69, 0
3, 78816, Note_on_c, 1, 67, 127
3, 78852, Note_on_c, 1, 67, 0
3, 78864, Note_on_c, 1, 65, 127
3, 78900, Note_on_c, 1, 65, 0
3, 78912, Note_on_c, 1, 63, 127
3, 78948, Note_on_c, 1, 63, 0
3, 78960, Note_on_c, 1, 63, 127
3, 78996, Note_on_c, 1, 63, 0
3, 79008, Note_on_c, 1, 63, 127
3, 79044, Note_on_c, 1, 63, 0
3, 79056, Note_on_c, 1, 63, 127
3, 79092, Note_on_c, 1, 63, 0
3, 79104, Note_on_c, 1, 63, 127
3, 79140, Note_on_c, 1, 63, 0
3, 79152, Note_on_c, 1, 63, 127
3, 79188, Note_on_c, 1, 63, 0
3, 79200, Note_on_c, 1, 63, 127
3, 79236, Note_on_c, 1, 63, 0
3, 79248, Note_on_c, 1, 63, 127
3, 79284, Note_on_c, 1, 63, 0
3, 79296, Note_on_c, 1, 63, 127
3, 79332, Note_on_c, 1, 63, 0
3, 79344, Note_on_c, 1, 63, 127
3, 79380, Note_on_c, 1, 63, 0
3, 79392, Note_on_c, 1, 63, 127
3, 79428, Note_on_c, 1, 63, 0
3, 79440, Note_on_c, 1, 63, 127
3, 79476, Note_on_c, 1, 63, 0
3, 79488, Note_on_c, 1, 63, 127
3, 79524, Note_on_c, 1, 63, 0
3, 79536, Note_on_c, 1, 86, 127
3, 79572, Note_on_c, 1, 86, 0
3, 79584, Note_on_c, 1, 84, 127
3, 79620, Note_on_c, 1, 84, 0
3, 79632, Note_on_c, 1, 82, 127
3, 79668, Note_on_c, 1, 82, 0
3, 79680, Note_on_c, 1, 81, 127
3, 79716, Note_on_c, 1, 81, 0
3, 79728, Note_on_c, 1, 79, 127
3, 79764, Note_on_c, 1, 79, 0
3, 79776, Note_on_c, 1, 78, 127
3, 79812, Note_on_c, 1, 78, 0
3, 79824, Note_on_c, 1, 76, 127
3, 79860, Note_on_c, 1, 76, 0
3, 79872, Note_on_c, 1, 74, 127
3, 79908, Note_on_c, 1, 74, 0
3, 79920, Note_on_c, 1, 72, 127
3, 79956, Note_on_c, 1, 72, 0
3, 79968, Note_on_c, 1, 70, 127
3, 80004, Note_on_c, 1, 70, 0
3, 80016, Note_on_c, 1, 69, 127
3, 80052, Note_on_c, 1, 69, 0
3, 80064, Note_on_c, 1, 67, 127
3, 80100, Note_on_c, 1, 67, 0
3, 80112, Note_on_c, 1, 67, 127
3, 80148, Note_on_c, 1, 67, 0
3, 80160, Note_on_c, 1, 67, 127
3, 80196, Note_on_c, 1, 67, 0
3, 80208, Note_on_c, 1, 67, 127
3, 80244, Note_on_c, 1, 67, 0
3, 80256, Note_on_c, 1, 67, 127
3, 80292, Note_on_c, 1, 67, 0
3, 80304, Note_on_c, 1, 67, 127
3, 80340, Note_on_c, 1, 67, 0
3, 80352, Note_on_c, 1, 67, 127
3, 80388, Note_on_c, 1, 67, 0
3, 80400, Note_on_c, 1, 67, 127
3, 80436, Note_on_c, 1, 67, 0
3, 80448, Note_on_c, 1, 67, 127
3, 80484, Note_on_c, 1, 67, 0
3, 80496, Note_on_c, 1, 67, 127
3, 80532, Note_on_c, 1, 67, 0
3, 80544, Note_on_c, 1, 67, 127
3, 80580, Note_on_c, 1, 67, 0
3, 80592, Note_on_c, 1, 67, 127
3, 80628, Note_on_c, 1, 67, 0
3, 80640, Note_on_c, 1, 67, 127
3, 80832, Note_on_c, 1, 67, 0
3, 80832, Note_on_c, 1, 55, 127
3, 81024, Note_on_c, 1, 55, 0
3, 81024, Note_on_c, 1, 55, 127
3, 81216, Note_on_c, 1, 55, 0
3, 81216, Note_on_c, 1, 55, 127
3, 81408, Note_on_c, 1, 55, 0
3, 81408, Note_on_c, 1, 55, 127
3, 81600, Note_on_c, 1, 55, 0
3, 81600, Note_on_c, 1, 55, 127
3, 81792, Note_on_c, 1, 55, 0
3, 81792, Note_on_c, 1, 55, 127
3, 81984, Note_on_c, 1, 55, 0
3, 81984, Note_on_c, 1, 55, 127
3, 82176, Note_on_c, 1, 55, 0
3, 82176, Note_on_c, 1, 55, 127
3, 82368, Note_on_c, 1, 55, 0
3, 82368, Note_on_c, 1, 55, 127
3, 82560, Note_on_c, 1, 55, 0
3, 82560, Note_on_c, 1, 55, 127
3, 82752, Note_on_c, 1, 55, 0
3, 82752, Note_on_c, 1, 55, 127
3, 82944, Note_on_c, 1, 55, 0
3, 82944, Note_on_c, 1, 55, 127
3, 82992, Note_on_c, 1, 55, 0
3, 82992, Note_on_c, 1, 67, 127
3, 83028, Note_on_c, 1, 67, 0
3, 83040, Note_on_c, 1, 69, 127
3, 83076, Note_on_c, 1, 69, 0
3, 83088, Note_on_c, 1, 70, 127
3, 83124, Note_on_c, 1, 70, 0
3, 83136, Note_on_c, 1, 72, 127
3, 83172, Note_on_c, 1, 72, 0
3, 83184, Note_on_c, 1, 74, 127
3, 83220, Note_on_c, 1, 74, 0
3, 83232, Note_on_c, 1, 75, 127
3, 83268, Note_on_c, 1, 75, 0
3, 83280, Note_on_c, 1, 78, 127
3, 83316, Note_on_c, 1, 78, 0
3, 83328, Note_on_c, 1, 79, 127
3, 83364, Note_on_c, 1, 79, 0
3, 83376, Note_on_c, 1, 81, 127
3, 83412, Note_on_c, 1, 81, 0
3, 83424, Note_on_c, 1, 82, 127
3, 83460, Note_on_c, 1, 82, 0
3, 83472, Note_on_c, 1, 81, 127
3, 83508, Note_on_c, 1, 81, 0
3, 83520, Note_on_c, 1, 79, 127
3, 83556, Note_on_c, 1, 79, 0
3, 83568, Note_on_c, 1, 77, 127
3, 83604, Note_on_c, 1, 77, 0
3, 83616, Note_on_c, 1, 75, 127
3, 83652, Note_on_c, 1, 75, 0
3, 83664, Note_on_c, 1, 74, 127
3, 83700, Note_on_c, 1, 74, 0
3, 83712, Note_on_c, 1, 72, 127
3, 83748, Note_on_c, 1, 72, 0
3, 83760, Note_on_c, 1, 70, 127
3, 83796, Note_on_c, 1, 70, 0
3, 83808, Note_on_c, 1, 69, 127
3, 83844, Note_on_c, 1, 69, 0
3, 83856, Note_on_c, 1, 67, 127
3, 83892, Note_on_c, 1, 67, 0
3, 83904, Note_on_c, 1, 66, 127
3, 83940, Note_on_c, 1, 66, 0
3, 83952, Note_on_c, 1, 64, 127
3, 83988, Note_on_c, 1, 64, 0
3, 84000, Note_on_c, 1, 62, 127
3, 84036, Note_on_c, 1, 62, 0
3, 84048, Note_on_c, 1, 60, 127
3, 84084, Note_on_c, 1, 60, 0
3, 84096, Note_on_c, 1, 58, 127
3, 84132, Note_on_c, 1, 58, 0
3, 84144, Note_on_c, 1, 55, 127
3, 84180, Note_on_c, 1, 55, 0
3, 84192, Note_on_c, 1, 58, 127
3, 84228, Note_on_c, 1, 58, 0
3, 84240, Note_on_c, 1, 55, 127
3, 84276, Note_on_c, 1, 55, 0
3, 84288, Note_on_c, 1, 58, 127
3, 84324, Note_on_c, 1, 58, 0
3, 84336, Note_on_c, 1, 55, 127
3, 84372, Note_on_c, 1, 55, 0
3, 84384, Note_on_c, 1, 58, 127
3, 84420, Note_on_c, 1, 58, 0
3, 84432, Note_on_c, 1, 55, 127
3, 84468, Note_on_c, 1, 55, 0
3, 84480, Note_on_c, 1, 58, 127
3, 84516, Note_on_c, 1, 58, 0
3, 84528, Note_on_c, 1, 55, 127
3, 84564, Note_on_c, 1, 55, 0
3, 84576, Note_on_c, 1, 58, 127
3, 84612, Note_on_c, 1, 58, 0
3, 84624, Note_on_c, 1, 55, 127
3, 84660, Note_on_c, 1, 55, 0
3, 84672, Note_on_c, 1, 62, 127
3, 84864, Note_on_c, 1, 62, 0
3, 86976, Note_on_c, 1, 62, 127
3, 87012, Note_on_c, 1, 62, 0
3, 87024, Note_on_c, 1, 62, 127
3, 87060, Note_on_c, 1, 62, 0
3, 87072, Note_on_c, 1, 62, 127
3, 87108, Note_on_c, 1, 62, 0
3, 87120, Note_on_c, 1, 62, 127
3, 87156, Note_on_c, 1, 62, 0
3, 87168, Note_on_c, 1, 62, 127
3, 87204, Note_on_c, 1, 62, 0
3, 87216, Note_on_c, 1, 62, 127
3, 87252, Note_on_c, 1, 62, 0
3, 87264, Note_on_c, 1, 62, 127
3, 87300, Note_on_c, 1, 62, 0
3, 87312, Note_on_c, 1, 62, 127
3, 87348, Note_on_c, 1, 62, 0
3, 87360, Note_on_c, 1, 62, 127
3, 87396, Note_on_c, 1, 62, 0
3, 87408, Note_on_c, 1, 62, 127
3, 87444, Note_on_c, 1, 62, 0
3, 87456, Note_on_c, 1, 62, 127
3, 87492, Note_on_c, 1, 62, 0
3, 87504, Note_on_c, 1, 62, 127
3, 87540, Note_on_c, 1, 62, 0
3, 87552, Note_on_c, 1, 67, 127
3, 87588, Note_on_c, 1, 67, 0
3, 87600, Note_on_c, 1, 62, 127
3, 87636, Note_on_c, 1, 62, 0
3, 87648, Note_on_c, 1, 58, 127
3, 87684, Note_on_c, 1, 58, 0
3, 87696, Note_on_c, 1, 55, 127
3, 87732, Note_on_c, 1, 55, 0
3, 87744, Note_on_c, 1, 67, 127
3, 87780, Note_on_c, 1, 67, 0
3, 87792, Note_on_c, 1, 62, 127
3, 87828, Note_on_c, 1, 62, 0
3, 87840, Note_on_c, 1, 58, 127
3, 87876, Note_on_c, 1, 58, 0
3, 87888, Note_on_c, 1, 55, 127
3, 87924, Note_on_c, 1, 55, 0
3, 87936, Note_on_c, 1, 67, 127
3, 87972, Note_on_c, 1, 67, 0
3, 87984, Note_on_c, 1, 62, 127
3, 88020, Note_on_c, 1, 62, 0
3, 88032, Note_on_c, 1, 58, 127
3, 88068, Note_on_c, 1, 58, 0
3, 88080, Note_on_c, 1, 55, 127
3, 88116, Note_on_c, 1, 55, 0
3, 88128, Note_on_c, 1, 67, 127
3, 88164, Note_on_c, 1, 67, 0
3, 88176, Note_on_c, 1, 67, 127
3, 88212, Note_on_c, 1, 67, 0
3, 88224, Note_on_c, 1, 67, 127
3, 88260, Note_on_c, 1, 67, 0
3, 88272, Note_on_c, 1, 67, 127
3, 88308, Note_on_c, 1, 67, 0
3, 88320, Note_on_c, 1, 67, 127
3, 88356, Note_on_c, 1, 67, 0
3, 88368, Note_on_c, 1, 67, 127
3, 88404, Note_on_c, 1, 67, 0
3, 88416, Note_on_c, 1, 67, 127
3, 88452, Note_on_c, 1, 67, 0
3, 88464, Note_on_c, 1, 67, 127
3, 88500, Note_on_c, 1, 67, 0
3, 88512, Note_on_c, 1, 67, 127
3, 88548, Note_on_c, 1, 67, 0
3, 88560, Note_on_c, 1, 67, 127
3, 88596, Note_on_c, 1, 67, 0
3, 88608, Note_on_c, 1, 67, 127
3, 88644, Note_on_c, 1, 67, 0
3, 88656, Note_on_c, 1, 67, 127
3, 88692, Note_on_c, 1, 67, 0
3, 88704, Note_on_c, 1, 66, 127
3, 88740, Note_on_c, 1, 66, 0
3, 88752, Note_on_c, 1, 66, 127
3, 88788, Note_on_c, 1, 66, 0
3, 88800, Note_on_c, 1, 66, 127
3, 88836, Note_on_c, 1, 66, 0
3, 88848, Note_on_c, 1, 66, 127
3, 88884, Note_on_c, 1, 66, 0
3, 88896, Note_on_c, 1, 66, 127
3, 88932, Note_on_c, 1, 66, 0
3, 88944, Note_on_c, 1, 66, 127
3, 88980, Note_on_c, 1, 66, 0
3, 88992, Note_on_c, 1, 66, 127
3, 89028, Note_on_c, 1, 66, 0
3, 89040, Note_on_c, 1, 66, 127
3, 89076, Note_on_c, 1, 66, 0
3, 89088, Note_on_c, 1, 66, 127
3, 89124, Note_on_c, 1, 66, 0
3, 89136, Note_on_c, 1, 66, 127
3, 89172, Note_on_c, 1, 66, 0
3, 89184, Note_on_c, 1, 66, 127
3, 89220, Note_on_c, 1, 66, 0
3, 89232, Note_on_c, 1, 66, 127
3, 89268, Note_on_c, 1, 66, 0
3, 89280, Note_on_c, 1, 67, 127
3, 89316, Note_on_c, 1, 67, 0
3, 89328, Note_on_c, 1, 62, 127
3, 89364, Note_on_c, 1, 62, 0
3, 89376, Note_on_c, 1, 58, 127
3, 89412, Note_on_c, 1, 58, 0
3, 89424, Note_on_c, 1, 55, 127
3, 89460, Note_on_c, 1, 55, 0
3, 89472, Note_on_c, 1, 67, 127
3, 89508, Note_on_c, 1, 67, 0
3, 89520, Note_on_c, 1, 62, 127
3, 89556, Note_on_c, 1, 62, 0
3, 89568, Note_on_c, 1, 58, 127
3, 89604, Note_on_c, 1, 58, 0
3, 89616, Note_on_c, 1, 55, 127
3, 89652, Note_on_c, 1, 55, 0
3, 89664, Note_on_c, 1, 67, 127
3, 89700, Note_on_c, 1, 67, 0
3, 89712, Note_on_c, 1, 62, 127
3, 89748, Note_on_c, 1, 62, 0
3, 89760, Note_on_c, 1, 58, 127
3, 89796, Note_on_c, 1, 58, 0
3, 89808, Note_on_c, 1, 55, 127
3, 89844, Note_on_c, 1, 55, 0
3, 89856, Note_on_c, 1, 67, 127
3, 89892, Note_on_c, 1, 67, 0
3, 89904, Note_on_c, 1, 67, 127
3, 89940, Note_on_c, 1, 67, 0
3, 89952, Note_on_c, 1, 67, 127
3, 89988, Note_on_c, 1, 67, 0
3, 90000, Note_on_c, 1, 67, 127
3, 90036, Note_on_c, 1, 67, 0
3, 90048, Note_on_c, 1, 67, 127
3, 90084, Note_on_c, 1, 67, 0
3, 90096, Note_on_c, 1, 67, 127
3, 90132, Note_on_c, 1, 67, 0
3, 90144, Note_on_c, 1, 67, 127
3, 90180, Note_on_c, 1, 67, 0
3, 90192, Note_on_c, 1, 67, 127
3, 90228, Note_on_c, 1, 67, 0
3, 90240, Note_on_c, 1, 67, 127
3, 90276, Note_on_c, 1, 67, 0
3, 90288, Note_on_c, 1, 67, 127
3, 90324, Note_on_c, 1, 67, 0
3, 90336, Note_on_c, 1, 67, 127
3, 90372, Note_on_c, 1, 67, 0
3, 90384, Note_on_c, 1, 67, 127
3, 90420, Note_on_c, 1, 67, 0
3, 90432, Note_on_c, 1, 66, 127
3, 90468, Note_on_c, 1, 66, 0
3, 90480, Note_on_c, 1, 66, 127
3, 90516, Note_on_c, 1, 66, 0
3, 90528, Note_on_c, 1, 66, 127
3, 90564, Note_on_c, 1, 66, 0
3, 90576, Note_on_c, 1, 66, 127
3, 90612, Note_on_c, 1, 66, 0
3, 90624, Note_on_c, 1, 66, 127
3, 90660, Note_on_c, 1, 66, 0
3, 90672, Note_on_c, 1, 66, 127
3, 90708, Note_on_c, 1, 66, 0
3, 90720, Note_on_c, 1, 66, 127
3, 90756, Note_on_c, 1, 66, 0
3, 90768, Note_on_c, 1, 66, 127
3, 90804, Note_on_c, 1, 66, 0
3, 90816, Note_on_c, 1, 66, 127
3, 90852, Note_on_c, 1, 66, 0
3, 90864, Note_on_c, 1, 66, 127
3, 90900, Note_on_c, 1, 66, 0
3, 90912, Note_on_c, 1, 66, 127
3, 90948, Note_on_c, 1, 66, 0
3, 90960, Note_on_c, 1, 66, 127
3, 90996, Note_on_c, 1, 66, 0
3, 91008, Note_on_c, 1, 67, 127
3, 91044, Note_on_c, 1, 67, 0
3, 91056, Note_on_c, 1, 67, 127
3, 91092, Note_on_c, 1, 67, 0
3, 91104, Note_on_c, 1, 67, 127
3, 91140, Note_on_c, 1, 67, 0
3, 91152, Note_on_c, 1, 67, 127
3, 91188, Note_on_c, 1, 67, 0
3, 91200, Note_on_c, 1, 70, 127
3, 91236, Note_on_c, 1, 70, 0
3, 91248, Note_on_c, 1, 70, 127
3, 91284, Note_on_c, 1, 70, 0
3, 91296, Note_on_c, 1, 70, 127
3, 91332, Note_on_c, 1, 70, 0
3, 91344, Note_on_c, 1, 70, 127
3, 91380, Note_on_c, 1, 70, 0
3, 91392, Note_on_c, 1, 74, 127
3, 91428, Note_on_c, 1, 74, 0
3, 91440, Note_on_c, 1, 74, 127
3, 91476, Note_on_c, 1, 74, 0
3, 91488, Note_on_c, 1, 74, 127
3, 91524, Note_on_c, 1, 74, 0
3, 91536, Note_on_c, 1, 74, 127
3, 91572, Note_on_c, 1, 74, 0
3, 91584, Note_on_c, 1, 79, 127
3, 91620, Note_on_c, 1, 79, 0
3, 91632, Note_on_c, 1, 79, 127
3, 91668, Note_on_c, 1, 79, 0
3, 91680, Note_on_c, 1, 79, 127
3, 91716, Note_on_c, 1, 79, 0
3, 91728, Note_on_c, 1, 79, 127
3, 91764, Note_on_c, 1, 79, 0
3, 91776, Note_on_c, 1, 82, 127
3, 91812, Note_on_c, 1, 82, 0
3, 91824, Note_on_c, 1, 82, 127
3, 91860, Note_on_c, 1, 82, 0
3, 91872, Note_on_c, 1, 82, 127
3, 91908, Note_on_c, 1, 82, 0
3, 91920, Note_on_c, 1, 82, 127
3, 91956, Note_on_c, 1, 82, 0
3, 91968, Note_on_c, 1, 79, 127
3, 92004, Note_on_c, 1, 79, 0
3, 92016, Note_on_c, 1, 79, 127
3, 92052, Note_on_c, 1, 79, 0
3, 92064, Note_on_c, 1, 79, 127
3, 92100, Note_on_c, 1, 79, 0
3, 92112, Note_on_c, 1, 79, 127
3, 92148, Note_on_c, 1, 79, 0
3, 92160, Note_on_c, 1, 74, 127
3, 92196, Note_on_c, 1, 74, 0
3, 92208, Note_on_c, 1, 74, 127
3, 92244, Note_on_c, 1, 74, 0
3, 92256, Note_on_c, 1, 74, 127
3, 92292, Note_on_c, 1, 74, 0
3, 92304, Note_on_c, 1, 74, 127
3, 92340, Note_on_c, 1, 74, 0
3, 92352, Note_on_c, 1, 70, 127
3, 92388, Note_on_c, 1, 70, 0
3, 92400, Note_on_c, 1, 70, 127
3, 92436, Note_on_c, 1, 70, 0
3, 92448, Note_on_c, 1, 70, 127
3, 92484, Note_on_c, 1, 70, 0
3, 92496, Note_on_c, 1, 70, 127
3, 92532, Note_on_c, 1, 70, 0
3, 92544, Note_on_c, 1, 67, 127
3, 92580, Note_on_c, 1, 67, 0
3, 92592, Note_on_c, 1, 67, 127
3, 92628, Note_on_c, 1, 67, 0
3, 92640, Note_on_c, 1, 67, 127
3, 92676, Note_on_c, 1, 67, 0
3, 92688, Note_on_c, 1, 67, 127
3, 92724, Note_on_c, 1, 67, 0
3, 92928, Note_on_c, 1, 55, 127
3, 93312, Note_on_c, 1, 55, 0
3, 93312, End_track
4, 0, Start_track
4, 0, MIDI_port, 0
4, 0, Title_t, "Violin 2 Ensemble   "
4, 0, Program_c, 2, 48
4, 0, Control_c, 2, 7, 60
4, 0, Control_c, 2, 10, 44
4, 0, Note_on_c, 2, 55, 127
4, 72, Note_on_c, 2, 55, 0
4, 72, Note_on_c, 2, 55, 127
4, 96, Note_on_c, 2, 55, 0
4, 96, Note_on_c, 2, 55, 127
4, 168, Note_on_c, 2, 55, 0
4, 168, Note_on_c, 2, 55, 127
4, 192, Note_on_c, 2, 55, 0
4, 192, Note_on_c, 2, 55, 127
4, 288, Note_on_c, 2, 55, 0
4, 384, Note_on_c, 2, 55, 127
4, 456, Note_on_c, 2, 55, 0
4, 456, Note_on_c, 2, 55, 127
4, 480, Note_on_c, 2, 55, 0
4, 480, Note_on_c, 2, 55, 127
4, 552, Note_on_c, 2, 55, 0
4, 552, Note_on_c, 2, 55, 127
4, 576, Note_on_c, 2, 55, 0
4, 576, Note_on_c, 2, 55, 127
4, 672, Note_on_c, 2, 55, 0
4, 768, Note_on_c, 2, 57, 127
4, 840, Note_on_c, 2, 57, 0
4, 840, Note_on_c, 2, 57, 127
4, 864, Note_on_c, 2, 57, 0
4, 864, Note_on_c, 2, 57, 127
4, 936, Note_on_c, 2, 57, 0
4, 936, Note_on_c, 2, 57, 127
4, 960, Note_on_c, 2, 57, 0
4, 960, Note_on_c, 2, 57, 127
4, 1056, Note_on_c, 2, 57, 0
4, 1152, Note_on_c, 2, 62, 127
4, 1224, Note_on_c, 2, 62, 0
4, 1224, Note_on_c, 2, 62, 127
4, 1248, Note_on_c, 2, 62, 0
4, 1248, Note_on_c, 2, 62, 127
4, 1320, Note_on_c, 2, 62, 0
4, 1320, Note_on_c, 2, 62, 127
4, 1344, Note_on_c, 2, 62, 0
4, 1344, Note_on_c, 2, 62, 127
4, 1440, Note_on_c, 2, 62, 0
4, 1536, Note_on_c, 2, 55, 127
4, 1608, Note_on_c, 2, 55, 0
4, 1608, Note_on_c, 2, 55, 127
4, 1632, Note_on_c, 2, 55, 0
4, 1632, Note_on_c, 2, 55, 127
4, 1704, Note_on_c, 2, 55, 0
4, 1704, Note_on_c, 2, 55, 127
4, 1728, Note_on_c, 2, 55, 0
4, 1728, Note_on_c, 2, 55, 127
4, 1824, Note_on_c, 2, 55, 0
4, 1920, Control_c, 2, 7, 127
4, 1920, Note_on_c, 2, 55, 127
4, 2016, Note_on_c, 2, 55, 0
4, 2016, Note_on_c, 2, 55, 127
4, 2064, Note_on_c, 2, 55, 0
4, 2064, Note_on_c, 2, 55, 127
4, 2112, Note_on_c, 2, 55, 0
4, 2112, Note_on_c, 2, 55, 127
4, 2160, Note_on_c, 2, 55, 0
4, 2160, Note_on_c, 2, 55, 127
4, 2208, Note_on_c, 2, 55, 0
4, 2208, Note_on_c, 2, 55, 127
4, 2256, Note_on_c, 2, 55, 0
4, 2256, Note_on_c, 2, 55, 127
4, 2304, Note_on_c, 2, 55, 0
4, 2304, Note_on_c, 2, 55, 127
4, 2352, Note_on_c, 2, 55, 0
4, 2352, Note_on_c, 2, 55, 127
4, 2400, Note_on_c, 2, 55, 0
4, 2400, Note_on_c, 2, 55, 127
4, 2448, Note_on_c, 2, 55, 0
4, 2448, Note_on_c, 2, 55, 127
4, 2496, Note_on_c, 2, 55, 0
4, 2496, Note_on_c, 2, 55, 127
4, 2544, Note_on_c, 2, 55, 0
4, 2544, Note_on_c, 2, 55, 127
4, 2592, Note_on_c, 2, 55, 0
4, 2592, Note_on_c, 2, 55, 127
4, 2640, Note_on_c, 2, 55, 0
4, 2640, Note_on_c, 2, 55, 127
4, 2688, Note_on_c, 2, 55, 0
4, 2688, Note_on_c, 2, 55, 127
4, 2880, Note_on_c, 2, 55, 0
4, 3072, Control_c, 2, 7, 60
4, 3072, Note_on_c, 2, 58, 127
4, 3144, Note_on_c, 2, 58, 0
4, 3144, Note_on_c, 2, 58, 127
4, 3168, Note_on_c, 2, 58, 0
4, 3168, Note_on_c, 2, 58, 127
4, 3240, Note_on_c, 2, 58, 0
4, 3240, Note_on_c, 2, 58, 127
4, 3264, Note_on_c, 2, 58, 0
4, 3264, Note_on_c, 2, 58, 127
4, 3360, Note_on_c, 2, 58, 0
4, 3456, Note_on_c, 2, 60, 127
4, 3528, Note_on_c, 2, 60, 0
4, 3528, Note_on_c, 2, 60, 127
4, 3552, Note_on_c, 2, 60, 0
4, 3552, Note_on_c, 2, 60, 127
4, 3624, Note_on_c, 2, 60, 0
4, 3624, Note_on_c, 2, 60, 127
4, 3648, Note_on_c, 2, 60, 0
4, 3648, Note_on_c, 2, 60, 127
4, 3744, Note_on_c, 2, 60, 0
4, 3840, Control_c, 2, 7, 60
4, 3840, Note_on_c, 2, 57, 127
4, 3912, Note_on_c, 2, 57, 0
4, 3912, Note_on_c, 2, 57, 127
4, 3936, Note_on_c, 2, 57, 0
4, 3936, Note_on_c, 2, 57, 127
4, 4008, Note_on_c, 2, 57, 0
4, 4008, Note_on_c, 2, 57, 127
4, 4032, Note_on_c, 2, 57, 0
4, 4032, Note_on_c, 2, 57, 127
4, 4128, Note_on_c, 2, 57, 0
4, 4224, Note_on_c, 2, 58, 127
4, 4296, Note_on_c, 2, 58, 0
4, 4296, Note_on_c, 2, 58, 127
4, 4320, Note_on_c, 2, 58, 0
4, 4320, Note_on_c, 2, 58, 127
4, 4392, Note_on_c, 2, 58, 0
4, 4392, Note_on_c, 2, 58, 127
4, 4416, Note_on_c, 2, 58, 0
4, 4416, Note_on_c, 2, 58, 127
4, 4512, Note_on_c, 2, 58, 0
4, 4608, Control_c, 2, 7, 60
4, 4608, Note_on_c, 2, 58, 127
4, 4680, Note_on_c, 2, 58, 0
4, 4680, Note_on_c, 2, 58, 127
4, 4704, Note_on_c, 2, 58, 0
4, 4704, Note_on_c, 2, 58, 127
4, 4776, Note_on_c, 2, 58, 0
4, 4776, Note_on_c, 2, 58, 127
4, 4800, Note_on_c, 2, 58, 0
4, 4800, Note_on_c, 2, 58, 127
4, 4896, Note_on_c, 2, 58, 0
4, 4992, Note_on_c, 2, 58, 127
4, 5064, Note_on_c, 2, 58, 0
4, 5064, Note_on_c, 2, 58, 127
4, 5088, Note_on_c, 2, 58, 0
4, 5088, Note_on_c, 2, 58, 127
4, 5160, Note_on_c, 2, 58, 0
4, 5160, Note_on_c, 2, 58, 127
4, 5184, Note_on_c, 2, 58, 0
4, 5184, Note_on_c, 2, 58, 127
4, 5280, Note_on_c, 2, 58, 0
4, 5376, Control_c, 2, 7, 60
4, 5376, Note_on_c, 2, 58, 127
4, 5448, Note_on_c, 2, 58, 0
4, 5448, Note_on_c, 2, 58, 127
4, 5472, Note_on_c, 2, 58, 0
4, 5472, Note_on_c, 2, 58, 127
4, 5544, Note_on_c, 2, 58, 0
4, 5544, Note_on_c, 2, 58, 127
4, 5568, Note_on_c, 2, 58, 0
4, 5568, Note_on_c, 2, 57, 127
4, 5664, Note_on_c, 2, 57, 0
4, 5760, Control_c, 2, 7, 127
4, 5760, Note_on_c, 2, 58, 127
4, 5856, Note_on_c, 2, 58, 0
4, 5856, Note_on_c, 2, 58, 127
4, 5904, Note_on_c, 2, 58, 0
4, 5904, Note_on_c, 2, 58, 127
4, 5952, Note_on_c, 2, 58, 0
4, 5952, Note_on_c, 2, 58, 127
4, 6000, Note_on_c, 2, 58, 0
4, 6000, Note_on_c, 2, 58, 127
4, 6048, Note_on_c, 2, 58, 0
4, 6048, Note_on_c, 2, 58, 127
4, 6096, Note_on_c, 2, 58, 0
4, 6096, Note_on_c, 2, 58, 127
4, 6144, Note_on_c, 2, 58, 0
4, 6144, Note_on_c, 2, 58, 127
4, 6192, Note_on_c, 2, 58, 0
4, 6192, Note_on_c, 2, 58, 127
4, 6240, Note_on_c, 2, 58, 0
4, 6240, Note_on_c, 2, 58, 127
4, 6288, Note_on_c, 2, 58, 0
4, 6288, Note_on_c, 2, 58, 127
4, 6336, Note_on_c, 2, 58, 0
4, 6336, Note_on_c, 2, 58, 127
4, 6384, Note_on_c, 2, 58, 0
4, 6384, Note_on_c, 2, 58, 127
4, 6432, Note_on_c, 2, 58, 0
4, 6432, Note_on_c, 2, 58, 127
4, 6480, Note_on_c, 2, 58, 0
4, 6480, Note_on_c, 2, 58, 127
4, 6528, Note_on_c, 2, 58, 0
4, 6528, Note_on_c, 2, 58, 127
4, 6720, Note_on_c, 2, 58, 0
4, 6912, Control_c, 2, 7, 60
4, 6912, Note_on_c, 2, 58, 127
4, 6984, Note_on_c, 2, 58, 0
4, 6984, Note_on_c, 2, 58, 127
4, 7008, Note_on_c, 2, 58, 0
4, 7008, Note_on_c, 2, 58, 127
4, 7080, Note_on_c, 2, 58, 0
4, 7080, Note_on_c, 2, 58, 127
4, 7104, Note_on_c, 2, 58, 0
4, 7104, Note_on_c, 2, 58, 127
4, 7200, Note_on_c, 2, 58, 0
4, 7296, Note_on_c, 2, 59, 127
4, 7368, Note_on_c, 2, 59, 0
4, 7368, Note_on_c, 2, 59, 127
4, 7392, Note_on_c, 2, 59, 0
4, 7392, Note_on_c, 2, 59, 127
4, 7464, Note_on_c, 2, 59, 0
4, 7464, Note_on_c, 2, 59, 127
4, 7488, Note_on_c, 2, 59, 0
4, 7488, Note_on_c, 2, 59, 127
4, 7584, Note_on_c, 2, 59, 0
4, 7680, Control_c, 2, 7, 60
4, 7680, Note_on_c, 2, 60, 127
4, 7752, Note_on_c, 2, 60, 0
4, 7752, Note_on_c, 2, 60, 127
4, 7776, Note_on_c, 2, 60, 0
4, 7776, Note_on_c, 2, 60, 127
4, 7848, Note_on_c, 2, 60, 0
4, 7848, Note_on_c, 2, 60, 127
4, 7872, Note_on_c, 2, 60, 0
4, 7872, Note_on_c, 2, 60, 127
4, 7968, Note_on_c, 2, 60, 0
4, 8064, Note_on_c, 2, 60, 127
4, 8136, Note_on_c, 2, 60, 0
4, 8136, Note_on_c, 2, 60, 127
4, 8160, Note_on_c, 2, 60, 0
4, 8160, Note_on_c, 2, 60, 127
4, 8232, Note_on_c, 2, 60, 0
4, 8232, Note_on_c, 2, 60, 127
4, 8256, Note_on_c, 2, 60, 0
4, 8256, Note_on_c, 2, 60, 127
4, 8352, Note_on_c, 2, 60, 0
4, 8448, Control_c, 2, 7, 60
4, 8448, Note_on_c, 2, 61, 127
4, 8520, Note_on_c, 2, 61, 0
4, 8520, Note_on_c, 2, 61, 127
4, 8544, Note_on_c, 2, 61, 0
4, 8544, Note_on_c, 2, 61, 127
4, 8616, Note_on_c, 2, 61, 0
4, 8616, Note_on_c, 2, 61, 127
4, 8640, Note_on_c, 2, 61, 0
4, 8640, Note_on_c, 2, 61, 127
4, 8736, Note_on_c, 2, 61, 0
4, 8832, Note_on_c, 2, 62, 127
4, 8904, Note_on_c, 2, 62, 0
4, 8904, Note_on_c, 2, 62, 127
4, 8928, Note_on_c, 2, 62, 0
4, 8928, Note_on_c, 2, 62, 127
4, 9000, Note_on_c, 2, 62, 0
4, 9000, Note_on_c, 2, 62, 127
4, 9024, Note_on_c, 2, 62, 0
4, 9024, Note_on_c, 2, 62, 127
4, 9120, Note_on_c, 2, 62, 0
4, 9216, Control_c, 2, 7, 60
4, 9216, Note_on_c, 2, 55, 127
4, 9288, Note_on_c, 2, 55, 0
4, 9288, Note_on_c, 2, 55, 127
4, 9312, Note_on_c, 2, 55, 0
4, 9312, Note_on_c, 2, 55, 127
4, 9384, Note_on_c, 2, 55, 0
4, 9384, Note_on_c, 2, 55, 127
4, 9408, Note_on_c, 2, 55, 0
4, 9408, Note_on_c, 2, 55, 127
4, 9504, Note_on_c, 2, 55, 0
4, 9600, Note_on_c, 2, 60, 127
4, 9672, Note_on_c, 2, 60, 0
4, 9672, Note_on_c, 2, 60, 127
4, 9696, Note_on_c, 2, 60, 0
4, 9696, Note_on_c, 2, 60, 127
4, 9768, Note_on_c, 2, 60, 0
4, 9768, Note_on_c, 2, 60, 127
4, 9792, Note_on_c, 2, 60, 0
4, 9792, Note_on_c, 2, 60, 127
4, 9888, Note_on_c, 2, 60, 0
4, 9984, Control_c, 2, 7, 60
4, 9984, Note_on_c, 2, 60, 127
4, 10056, Note_on_c, 2, 60, 0
4, 10056, Note_on_c, 2, 60, 127
4, 10080, Note_on_c, 2, 60, 0
4, 10080, Note_on_c, 2, 60, 127
4, 10152, Note_on_c, 2, 60, 0
4, 10152, Note_on_c, 2, 60, 127
4, 10176, Note_on_c, 2, 60, 0
4, 10176, Note_on_c, 2, 60, 127
4, 10272, Note_on_c, 2, 60, 0
4, 10368, Note_on_c, 2, 66, 127
4, 10440, Note_on_c, 2, 66, 0
4, 10440, Note_on_c, 2, 66, 127
4, 10464, Note_on_c, 2, 66, 0
4, 10464, Note_on_c, 2, 66, 127
4, 10536, Note_on_c, 2, 66, 0
4, 10536, Note_on_c, 2, 66, 127
4, 10560, Note_on_c, 2, 66, 0
4, 10560, Note_on_c, 2, 66, 127
4, 10656, Note_on_c, 2, 66, 0
4, 10752, Control_c, 2, 7, 60
4, 10752, Note_on_c, 2, 66, 127
4, 10824, Note_on_c, 2, 66, 0
4, 10824, Note_on_c, 2, 66, 127
4, 10848, Note_on_c, 2, 66, 0
4, 10848, Note_on_c, 2, 66, 127
4, 10920, Note_on_c, 2, 66, 0
4, 10920, Note_on_c, 2, 66, 127
4, 10944, Note_on_c, 2, 66, 0
4, 10944, Note_on_c, 2, 66, 127
4, 11040, Note_on_c, 2, 66, 0
4, 11136, Note_on_c, 2, 61, 127
4, 11208, Note_on_c, 2, 61, 0
4, 11208, Note_on_c, 2, 61, 127
4, 11232, Note_on_c, 2, 61, 0
4, 11232, Note_on_c, 2, 61, 127
4, 11304, Note_on_c, 2, 61, 0
4, 11304, Note_on_c, 2, 61, 127
4, 11328, Note_on_c, 2, 61, 0
4, 11328, Note_on_c, 2, 62, 127
4, 11424, Note_on_c, 2, 62, 0
4, 11520, Control_c, 2, 7, 127
4, 11520, Note_on_c, 2, 55, 127
4, 11616, Note_on_c, 2, 55, 0
4, 11616, Note_on_c, 2, 55, 127
4, 11648, Note_on_c, 2, 55, 0
4, 11664, Note_on_c, 2, 55, 127
4, 11696, Note_on_c, 2, 55, 0
4, 11712, Note_on_c, 2, 55, 127
4, 11744, Note_on_c, 2, 55, 0
4, 11760, Note_on_c, 2, 55, 127
4, 11792, Note_on_c, 2, 55, 0
4, 11808, Note_on_c, 2, 55, 127
4, 11840, Note_on_c, 2, 55, 0
4, 11856, Note_on_c, 2, 55, 127
4, 11888, Note_on_c, 2, 55, 0
4, 11904, Note_on_c, 2, 55, 127
4, 11936, Note_on_c, 2, 55, 0
4, 11952, Note_on_c, 2, 55, 127
4, 11984, Note_on_c, 2, 55, 0
4, 12000, Note_on_c, 2, 55, 127
4, 12032, Note_on_c, 2, 55, 0
4, 12048, Note_on_c, 2, 55, 127
4, 12080, Note_on_c, 2, 55, 0
4, 12096, Note_on_c, 2, 55, 127
4, 12128, Note_on_c, 2, 55, 0
4, 12144, Note_on_c, 2, 55, 127
4, 12176, Note_on_c, 2, 55, 0
4, 12192, Note_on_c, 2, 55, 127
4, 12224, Note_on_c, 2, 55, 0
4, 12240, Note_on_c, 2, 55, 127
4, 12272, Note_on_c, 2, 55, 0
4, 12288, Note_on_c, 2, 55, 127
4, 12480, Note_on_c, 2, 55, 0
4, 12624, Control_c, 2, 7, 60
4, 12672, Note_on_c, 2, 67, 127
4, 12744, Note_on_c, 2, 67, 0
4, 12744, Note_on_c, 2, 67, 127
4, 12768, Note_on_c, 2, 67, 0
4, 12768, Note_on_c, 2, 67, 127
4, 12840, Note_on_c, 2, 67, 0
4, 12840, Note_on_c, 2, 67, 127
4, 12864, Note_on_c, 2, 67, 0
4, 12864, Note_on_c, 2, 67, 127
4, 12960, Note_on_c, 2, 67, 0
4, 13056, Control_c, 2, 7, 60
4, 13056, Note_on_c, 2, 65, 127
4, 13128, Note_on_c, 2, 65, 0
4, 13128, Note_on_c, 2, 65, 127
4, 13152, Note_on_c, 2, 65, 0
4, 13152, Note_on_c, 2, 65, 127
4, 13224, Note_on_c, 2, 65, 0
4, 13224, Note_on_c, 2, 65, 127
4, 13248, Note_on_c, 2, 65, 0
4, 13248, Note_on_c, 2, 65, 127
4, 13344, Note_on_c, 2, 65, 0
4, 13440, Note_on_c, 2, 63, 127
4, 13512, Note_on_c, 2, 63, 0
4, 13512, Note_on_c, 2, 63, 127
4, 13536, Note_on_c, 2, 63, 0
4, 13536, Note_on_c, 2, 63, 127
4, 13608, Note_on_c, 2, 63, 0
4, 13608, Note_on_c, 2, 63, 127
4, 13632, Note_on_c, 2, 63, 0
4, 13632, Note_on_c, 2, 63, 127
4, 13728, Note_on_c, 2, 63, 0
4, 13824, Control_c, 2, 7, 60
4, 13824, Note_on_c, 2, 62, 127
4, 13896, Note_on_c, 2, 62, 0
4, 13896, Note_on_c, 2, 62, 127
4, 13920, Note_on_c, 2, 62, 0
4, 13920, Note_on_c, 2, 62, 127
4, 13992, Note_on_c, 2, 62, 0
4, 13992, Note_on_c, 2, 62, 127
4, 14016, Note_on_c, 2, 62, 0
4, 14016, Note_on_c, 2, 62, 127
4, 14112, Note_on_c, 2, 62, 0
4, 14208, Note_on_c, 2, 61, 127
4, 14280, Note_on_c, 2, 61, 0
4, 14280, Note_on_c, 2, 61, 127
4, 14304, Note_on_c, 2, 61, 0
4, 14304, Note_on_c, 2, 61, 127
4, 14376, Note_on_c, 2, 61, 0
4, 14376, Note_on_c, 2, 61, 127
4, 14400, Note_on_c, 2, 61, 0
4, 14400, Note_on_c, 2, 61, 127
4, 14496, Note_on_c, 2, 61, 0
4, 14592, Control_c, 2, 7, 127
4, 14592, Note_on_c, 2, 55, 127
4, 14688, Note_on_c, 2, 55, 0
4, 14688, Note_on_c, 2, 55, 127
4, 14720, Note_on_c, 2, 55, 0
4, 14736, Note_on_c, 2, 55, 127
4, 14768, Note_on_c, 2, 55, 0
4, 14784, Note_on_c, 2, 55, 127
4, 14816, Note_on_c, 2, 55, 0
4, 14832, Note_on_c, 2, 55, 127
4, 14864, Note_on_c, 2, 55, 0
4, 14880, Note_on_c, 2, 55, 127
4, 14912, Note_on_c, 2, 55, 0
4, 14928, Note_on_c, 2, 55, 127
4, 14960, Note_on_c, 2, 55, 0
4, 14976, Note_on_c, 2, 55, 127
4, 15008, Note_on_c, 2, 55, 0
4, 15024, Note_on_c, 2, 55, 127
4, 15056, Note_on_c, 2, 55, 0
4, 15072, Note_on_c, 2, 55, 127
4, 15104, Note_on_c, 2, 55, 0
4, 15120, Note_on_c, 2, 55, 127
4, 15152, Note_on_c, 2, 55, 0
4, 15168, Note_on_c, 2, 55, 127
4, 15200, Note_on_c, 2, 55, 0
4, 15216, Note_on_c, 2, 55, 127
4, 15248, Note_on_c, 2, 55, 0
4, 15264, Note_on_c, 2, 55, 127
4, 15296, Note_on_c, 2, 55, 0
4, 15312, Note_on_c, 2, 55, 127
4, 15344, Note_on_c, 2, 55, 0
4, 15360, Note_on_c, 2, 55, 127
4, 15552, Note_on_c, 2, 55, 0
4, 15720, Control_c, 2, 7, 40
4, 15744, Note_on_c, 2, 55, 127
4, 15816, Note_on_c, 2, 55, 0
4, 15816, Note_on_c, 2, 55, 127
4, 15840, Note_on_c, 2, 55, 0
4, 15840, Note_on_c, 2, 55, 127
4, 15912, Note_on_c, 2, 55, 0
4, 15912, Note_on_c, 2, 55, 127
4, 15936, Note_on_c, 2, 55, 0
4, 15936, Note_on_c, 2, 55, 127
4, 16032, Note_on_c, 2, 55, 0
4, 16128, Note_on_c, 2, 55, 87
4, 16128, Control_c, 2, 7, 30
4, 16200, Note_on_c, 2, 55, 0
4, 16200, Note_on_c, 2, 55, 87
4, 16224, Note_on_c, 2, 55, 0
4, 16224, Note_on_c, 2, 55, 87
4, 16296, Note_on_c, 2, 55, 0
4, 16296, Note_on_c, 2, 55, 87
4, 16320, Note_on_c, 2, 55, 0
4, 16320, Note_on_c, 2, 55, 87
4, 16416, Note_on_c, 2, 55, 0
4, 17688, Control_c, 2, 7, 100
4, 18432, Note_on_c, 2, 67, 127
4, 18468, Note_on_c, 2, 67, 0
4, 18480, Note_on_c, 2, 55, 127
4, 18516, Note_on_c, 2, 55, 0
4, 18528, Note_on_c, 2, 55, 127
4, 18564, Note_on_c, 2, 55, 0
4, 18576, Note_on_c, 2, 55, 127
4, 18612, Note_on_c, 2, 55, 0
4, 18624, Note_on_c, 2, 55, 127
4, 18660, Note_on_c, 2, 55, 0
4, 18672, Note_on_c, 2, 55, 127
4, 18708, Note_on_c, 2, 55, 0
4, 18720, Note_on_c, 2, 55, 127
4, 18756, Note_on_c, 2, 55, 0
4, 18768, Note_on_c, 2, 55, 127
4, 18804, Note_on_c, 2, 55, 0
4, 18816, Note_on_c, 2, 55, 127
4, 18852, Note_on_c, 2, 55, 0
4, 18864, Note_on_c, 2, 55, 127
4, 18900, Note_on_c, 2, 55, 0
4, 18912, Note_on_c, 2, 55, 127
4, 18948, Note_on_c, 2, 55, 0
4, 18960, Note_on_c, 2, 55, 127
4, 18996, Note_on_c, 2, 55, 0
4, 19008, Note_on_c, 2, 65, 127
4, 19044, Note_on_c, 2, 65, 0
4, 19056, Note_on_c, 2, 55, 127
4, 19092, Note_on_c, 2, 55, 0
4, 19104, Note_on_c, 2, 55, 127
4, 19140, Note_on_c, 2, 55, 0
4, 19152, Note_on_c, 2, 55, 127
4, 19188, Note_on_c, 2, 55, 0
4, 19200, Note_on_c, 2, 55, 127
4, 19236, Note_on_c, 2, 55, 0
4, 19248, Note_on_c, 2, 55, 127
4, 19284, Note_on_c, 2, 55, 0
4, 19296, Note_on_c, 2, 55, 127
4, 19332, Note_on_c, 2, 55, 0
4, 19344, Note_on_c, 2, 55, 127
4, 19380, Note_on_c, 2, 55, 0
4, 19392, Note_on_c, 2, 55, 127
4, 19428, Note_on_c, 2, 55, 0
4, 19440, Note_on_c, 2, 55, 127
4, 19476, Note_on_c, 2, 55, 0
4, 19488, Note_on_c, 2, 55, 127
4, 19524, Note_on_c, 2, 55, 0
4, 19536, Note_on_c, 2, 55, 127
4, 19572, Note_on_c, 2, 55, 0
4, 19584, Note_on_c, 2, 63, 127
4, 19620, Note_on_c, 2, 63, 0
4, 19632, Note_on_c, 2, 55, 127
4, 19668, Note_on_c, 2, 55, 0
4, 19680, Note_on_c, 2, 55, 127
4, 19716, Note_on_c, 2, 55, 0
4, 19728, Note_on_c, 2, 55, 127
4, 19764, Note_on_c, 2, 55, 0
4, 19776, Note_on_c, 2, 55, 127
4, 19812, Note_on_c, 2, 55, 0
4, 19824, Note_on_c, 2, 55, 127
4, 19860, Note_on_c, 2, 55, 0
4, 19872, Note_on_c, 2, 55, 127
4, 19908, Note_on_c, 2, 55, 0
4, 19920, Note_on_c, 2, 55, 127
4, 19956, Note_on_c, 2, 55, 0
4, 19968, Note_on_c, 2, 55, 127
4, 20004, Note_on_c, 2, 55, 0
4, 20016, Note_on_c, 2, 55, 127
4, 20052, Note_on_c, 2, 55, 0
4, 20064, Note_on_c, 2, 55, 127
4, 20100, Note_on_c, 2, 55, 0
4, 20112, Note_on_c, 2, 55, 127
4, 20148, Note_on_c, 2, 55, 0
4, 20160, Note_on_c, 2, 62, 127
4, 20196, Note_on_c, 2, 62, 0
4, 20208, Note_on_c, 2, 55, 127
4, 20244, Note_on_c, 2, 55, 0
4, 20256, Note_on_c, 2, 55, 127
4, 20292, Note_on_c, 2, 55, 0
4, 20304, Note_on_c, 2, 55, 127
4, 20340, Note_on_c, 2, 55, 0
4, 20352, Note_on_c, 2, 55, 127
4, 20388, Note_on_c, 2, 55, 0
4, 20400, Note_on_c, 2, 55, 127
4, 20436, Note_on_c, 2, 55, 0
4, 20448, Note_on_c, 2, 55, 127
4, 20484, Note_on_c, 2, 55, 0
4, 20496, Note_on_c, 2, 55, 127
4, 20532, Note_on_c, 2, 55, 0
4, 20544, Note_on_c, 2, 55, 127
4, 20580, Note_on_c, 2, 55, 0
4, 21312, Note_on_c, 2, 74, 127
4, 21348, Note_on_c, 2, 74, 0
4, 21360, Note_on_c, 2, 62, 127
4, 21396, Note_on_c, 2, 62, 0
4, 21408, Note_on_c, 2, 62, 127
4, 21444, Note_on_c, 2, 62, 0
4, 21456, Note_on_c, 2, 62, 127
4, 21492, Note_on_c, 2, 62, 0
4, 21504, Note_on_c, 2, 62, 127
4, 21540, Note_on_c, 2, 62, 0
4, 21552, Note_on_c, 2, 62, 127
4, 21588, Note_on_c, 2, 62, 0
4, 21600, Note_on_c, 2, 62, 127
4, 21636, Note_on_c, 2, 62, 0
4, 21648, Note_on_c, 2, 62, 127
4, 21684, Note_on_c, 2, 62, 0
4, 21696, Note_on_c, 2, 62, 127
4, 21732, Note_on_c, 2, 62, 0
4, 21744, Note_on_c, 2, 62, 127
4, 21780, Note_on_c, 2, 62, 0
4, 21792, Note_on_c, 2, 62, 127
4, 21828, Note_on_c, 2, 62, 0
4, 21840, Note_on_c, 2, 62, 127
4, 21876, Note_on_c, 2, 62, 0
4, 21888, Note_on_c, 2, 72, 127
4, 21924, Note_on_c, 2, 72, 0
4, 21936, Note_on_c, 2, 62, 127
4, 21972, Note_on_c, 2, 62, 0
4, 21984, Note_on_c, 2, 62, 127
4, 22020, Note_on_c, 2, 62, 0
4, 22032, Note_on_c, 2, 62, 127
4, 22068, Note_on_c, 2, 62, 0
4, 22080, Note_on_c, 2, 62, 127
4, 22116, Note_on_c, 2, 62, 0
4, 22128, Note_on_c, 2, 62, 127
4, 22164, Note_on_c, 2, 62, 0
4, 22176, Note_on_c, 2, 62, 127
4, 22212, Note_on_c, 2, 62, 0
4, 22224, Note_on_c, 2, 62, 127
4, 22260, Note_on_c, 2, 62, 0
4, 22272, Note_on_c, 2, 62, 127
4, 22308, Note_on_c, 2, 62, 0
4, 22320, Note_on_c, 2, 62, 127
4, 22356, Note_on_c, 2, 62, 0
4, 22368, Note_on_c, 2, 62, 127
4, 22404, Note_on_c, 2, 62, 0
4, 22416, Note_on_c, 2, 62, 127
4, 22452, Note_on_c, 2, 62, 0
4, 22464, Note_on_c, 2, 70, 127
4, 22500, Note_on_c, 2, 70, 0
4, 22512, Note_on_c, 2, 62, 127
4, 22548, Note_on_c, 2, 62, 0
4, 22560, Note_on_c, 2, 62, 127
4, 22596, Note_on_c, 2, 62, 0
4, 22608, Note_on_c, 2, 62, 127
4, 22644, Note_on_c, 2, 62, 0
4, 22656, Note_on_c, 2, 62, 127
4, 22692, Note_on_c, 2, 62, 0
4, 22704, Note_on_c, 2, 62, 127
4, 22740, Note_on_c, 2, 62, 0
4, 22752, Note_on_c, 2, 62, 127
4, 22788, Note_on_c, 2, 62, 0
4, 22800, Note_on_c, 2, 62, 127
4, 22836, Note_on_c, 2, 62, 0
4, 22848, Note_on_c, 2, 62, 127
4, 22884, Note_on_c, 2, 62, 0
4, 22896, Note_on_c, 2, 62, 127
4, 22932, Note_on_c, 2, 62, 0
4, 22944, Note_on_c, 2, 62, 127
4, 22980, Note_on_c, 2, 62, 0
4, 22992, Note_on_c, 2, 62, 127
4, 23028, Note_on_c, 2, 62, 0
4, 23040, Note_on_c, 2, 69, 127
4, 23076, Note_on_c, 2, 69, 0
4, 23088, Note_on_c, 2, 62, 127
4, 23124, Note_on_c, 2, 62, 0
4, 23136, Note_on_c, 2, 62, 127
4, 23172, Note_on_c, 2, 62, 0
4, 23184, Note_on_c, 2, 62, 127
4, 23220, Note_on_c, 2, 62, 0
4, 23232, Note_on_c, 2, 62, 127
4, 23268, Note_on_c, 2, 62, 0
4, 23280, Note_on_c, 2, 62, 127
4, 23316, Note_on_c, 2, 62, 0
4, 23328, Note_on_c, 2, 62, 127
4, 23364, Note_on_c, 2, 62, 0
4, 23376, Note_on_c, 2, 62, 127
4, 23412, Note_on_c, 2, 62, 0
4, 23424, Note_on_c, 2, 62, 127
4, 23460, Note_on_c, 2, 62, 0
4, 24240, Note_on_c, 2, 74, 127
4, 24276, Note_on_c, 2, 74, 0
4, 24288, Note_on_c, 2, 72, 127
4, 24324, Note_on_c, 2, 72, 0
4, 24336, Note_on_c, 2, 70, 127
4, 24372, Note_on_c, 2, 70, 0
4, 24384, Note_on_c, 2, 69, 127
4, 24420, Note_on_c, 2, 69, 0
4, 24432, Note_on_c, 2, 67, 127
4, 24468, Note_on_c, 2, 67, 0
4, 24480, Note_on_c, 2, 66, 127
4, 24516, Note_on_c, 2, 66, 0
4, 24528, Note_on_c, 2, 64, 127
4, 24564, Note_on_c, 2, 64, 0
4, 24576, Note_on_c, 2, 62, 127
4, 24612, Note_on_c, 2, 62, 0
4, 24624, Note_on_c, 2, 60, 127
4, 24660, Note_on_c, 2, 60, 0
4, 24672, Note_on_c, 2, 58, 127
4, 24708, Note_on_c, 2, 58, 0
4, 24720, Note_on_c, 2, 57, 127
4, 24756, Note_on_c, 2, 57, 0
4, 24768, Note_on_c, 2, 55, 127
4, 24804, Note_on_c, 2, 55, 0
4, 24816, Note_on_c, 2, 55, 127
4, 24852, Note_on_c, 2, 55, 0
4, 24864, Note_on_c, 2, 55, 127
4, 24900, Note_on_c, 2, 55, 0
4, 24912, Note_on_c, 2, 55, 127
4, 24948, Note_on_c, 2, 55, 0
4, 24960, Note_on_c, 2, 55, 127
4, 24996, Note_on_c, 2, 55, 0
4, 25008, Note_on_c, 2, 55, 127
4, 25044, Note_on_c, 2, 55, 0
4, 25056, Note_on_c, 2, 55, 127
4, 25092, Note_on_c, 2, 55, 0
4, 25104, Note_on_c, 2, 55, 127
4, 25140, Note_on_c, 2, 55, 0
4, 25152, Note_on_c, 2, 55, 127
4, 25188, Note_on_c, 2, 55, 0
4, 25200, Note_on_c, 2, 55, 127
4, 25236, Note_on_c, 2, 55, 0
4, 25248, Note_on_c, 2, 55, 127
4, 25284, Note_on_c, 2, 55, 0
4, 25296, Note_on_c, 2, 55, 127
4, 25332, Note_on_c, 2, 55, 0
4, 25344, Note_on_c, 2, 55, 127
4, 25380, Note_on_c, 2, 55, 0
4, 25392, Note_on_c, 2, 79, 127
4, 25428, Note_on_c, 2, 79, 0
4, 25440, Note_on_c, 2, 77, 127
4, 25476, Note_on_c, 2, 77, 0
4, 25488, Note_on_c, 2, 75, 127
4, 25524, Note_on_c, 2, 75, 0
4, 25536, Note_on_c, 2, 74, 127
4, 25572, Note_on_c, 2, 74, 0
4, 25584, Note_on_c, 2, 72, 127
4, 25620, Note_on_c, 2, 72, 0
4, 25632, Note_on_c, 2, 70, 127
4, 25668, Note_on_c, 2, 70, 0
4, 25680, Note_on_c, 2, 69, 127
4, 25716, Note_on_c, 2, 69, 0
4, 25728, Note_on_c, 2, 67, 127
4, 25764, Note_on_c, 2, 67, 0
4, 25776, Note_on_c, 2, 65, 127
4, 25812, Note_on_c, 2, 65, 0
4, 25824, Note_on_c, 2, 63, 127
4, 25860, Note_on_c, 2, 63, 0
4, 25872, Note_on_c, 2, 62, 127
4, 25908, Note_on_c, 2, 62, 0
4, 25920, Note_on_c, 2, 60, 127
4, 25956, Note_on_c, 2, 60, 0
4, 25968, Note_on_c, 2, 60, 127
4, 26004, Note_on_c, 2, 60, 0
4, 26016, Note_on_c, 2, 60, 127
4, 26052, Note_on_c, 2, 60, 0
4, 26064, Note_on_c, 2, 60, 127
4, 26100, Note_on_c, 2, 60, 0
4, 26112, Note_on_c, 2, 60, 127
4, 26148, Note_on_c, 2, 60, 0
4, 26160, Note_on_c, 2, 60, 127
4, 26196, Note_on_c, 2, 60, 0
4, 26208, Note_on_c, 2, 60, 127
4, 26244, Note_on_c, 2, 60, 0
4, 26256, Note_on_c, 2, 60, 127
4, 26292, Note_on_c, 2, 60, 0
4, 26304, Note_on_c, 2, 60, 127
4, 26340, Note_on_c, 2, 60, 0
4, 26352, Note_on_c, 2, 60, 127
4, 26388, Note_on_c, 2, 60, 0
4, 26400, Note_on_c, 2, 60, 127
4, 26436, Note_on_c, 2, 60, 0
4, 26448, Note_on_c, 2, 60, 127
4, 26484, Note_on_c, 2, 60, 0
4, 26496, Note_on_c, 2, 60, 127
4, 26532, Note_on_c, 2, 60, 0
4, 26544, Note_on_c, 2, 82, 127
4, 26580, Note_on_c, 2, 82, 0
4, 26592, Note_on_c, 2, 81, 127
4, 26628, Note_on_c, 2, 81, 0
4, 26640, Note_on_c, 2, 79, 127
4, 26676, Note_on_c, 2, 79, 0
4, 26688, Note_on_c, 2, 77, 127
4, 26724, Note_on_c, 2, 77, 0
4, 26736, Note_on_c, 2, 75, 127
4, 26772, Note_on_c, 2, 75, 0
4, 26784, Note_on_c, 2, 74, 127
4, 26820, Note_on_c, 2, 74, 0
4, 26832, Note_on_c, 2, 72, 127
4, 26868, Note_on_c, 2, 72, 0
4, 26880, Note_on_c, 2, 70, 127
4, 26916, Note_on_c, 2, 70, 0
4, 26928, Note_on_c, 2, 69, 127
4, 26964, Note_on_c, 2, 69, 0
4, 26976, Note_on_c, 2, 67, 127
4, 27012, Note_on_c, 2, 67, 0
4, 27024, Note_on_c, 2, 65, 127
4, 27060, Note_on_c, 2, 65, 0
4, 27072, Note_on_c, 2, 63, 127
4, 27108, Note_on_c, 2, 63, 0
4, 27120, Note_on_c, 2, 63, 127
4, 27156, Note_on_c, 2, 63, 0
4, 27168, Note_on_c, 2, 63, 127
4, 27204, Note_on_c, 2, 63, 0
4, 27216, Note_on_c, 2, 63, 127
4, 27252, Note_on_c, 2, 63, 0
4, 27264, Note_on_c, 2, 63, 127
4, 27300, Note_on_c, 2, 63, 0
4, 27312, Note_on_c, 2, 63, 127
4, 27348, Note_on_c, 2, 63, 0
4, 27360, Note_on_c, 2, 63, 127
4, 27396, Note_on_c, 2, 63, 0
4, 27408, Note_on_c, 2, 63, 127
4, 27444, Note_on_c, 2, 63, 0
4, 27456, Note_on_c, 2, 63, 127
4, 27492, Note_on_c, 2, 63, 0
4, 27504, Note_on_c, 2, 63, 127
4, 27540, Note_on_c, 2, 63, 0
4, 27552, Note_on_c, 2, 63, 127
4, 27588, Note_on_c, 2, 63, 0
4, 27600, Note_on_c, 2, 63, 127
4, 27636, Note_on_c, 2, 63, 0
4, 27648, Note_on_c, 2, 63, 127
4, 27684, Note_on_c, 2, 63, 0
4, 27696, Note_on_c, 2, 86, 127
4, 27732, Note_on_c, 2, 86, 0
4, 27744, Note_on_c, 2, 84, 127
4, 27780, Note_on_c, 2, 84, 0
4, 27792, Note_on_c, 2, 82, 127
4, 27828, Note_on_c, 2, 82, 0
4, 27840, Note_on_c, 2, 81, 127
4, 27876, Note_on_c, 2, 81, 0
4, 27888, Note_on_c, 2, 79, 127
4, 27924, Note_on_c, 2, 79, 0
4, 27936, Note_on_c, 2, 78, 127
4, 27972, Note_on_c, 2, 78, 0
4, 27984, Note_on_c, 2, 76, 127
4, 28020, Note_on_c, 2, 76, 0
4, 28032, Note_on_c, 2, 74, 127
4, 28068, Note_on_c, 2, 74, 0
4, 28080, Note_on_c, 2, 72, 127
4, 28116, Note_on_c, 2, 72, 0
4, 28128, Note_on_c, 2, 70, 127
4, 28164, Note_on_c, 2, 70, 0
4, 28176, Note_on_c, 2, 69, 127
4, 28212, Note_on_c, 2, 69, 0
4, 28224, Note_on_c, 2, 67, 127
4, 28260, Note_on_c, 2, 67, 0
4, 28272, Note_on_c, 2, 67, 127
4, 28308, Note_on_c, 2, 67, 0
4, 28320, Note_on_c, 2, 67, 127
4, 28356, Note_on_c, 2, 67, 0
4, 28368, Note_on_c, 2, 67, 127
4, 28404, Note_on_c, 2, 67, 0
4, 28416, Note_on_c, 2, 67, 127
4, 28452, Note_on_c, 2, 67, 0
4, 28464, Note_on_c, 2, 67, 127
4, 28500, Note_on_c, 2, 67, 0
4, 28512, Note_on_c, 2, 67, 127
4, 28548, Note_on_c, 2, 67, 0
4, 28560, Note_on_c, 2, 67, 127
4, 28596, Note_on_c, 2, 67, 0
4, 28608, Note_on_c, 2, 67, 127
4, 28644, Note_on_c, 2, 67, 0
4, 28656, Note_on_c, 2, 67, 127
4, 28692, Note_on_c, 2, 67, 0
4, 28704, Note_on_c, 2, 67, 127
4, 28740, Note_on_c, 2, 67, 0
4, 28752, Note_on_c, 2, 67, 127
4, 28788, Note_on_c, 2, 67, 0
4, 28800, Note_on_c, 2, 67, 127
4, 28836, Note_on_c, 2, 67, 0
4, 28848, Note_on_c, 2, 86, 127
4, 28884, Note_on_c, 2, 86, 0
4, 28896, Note_on_c, 2, 84, 127
4, 28932, Note_on_c, 2, 84, 0
4, 28944, Note_on_c, 2, 82, 127
4, 28980, Note_on_c, 2, 82, 0
4, 28992, Note_on_c, 2, 81, 127
4, 29028, Note_on_c, 2, 81, 0
4, 29040, Note_on_c, 2, 79, 127
4, 29076, Note_on_c, 2, 79, 0
4, 29088, Note_on_c, 2, 78, 127
4, 29124, Note_on_c, 2, 78, 0
4, 29136, Note_on_c, 2, 76, 127
4, 29172, Note_on_c, 2, 76, 0
4, 29184, Note_on_c, 2, 74, 127
4, 29220, Note_on_c, 2, 74, 0
4, 29232, Note_on_c, 2, 72, 127
4, 29268, Note_on_c, 2, 72, 0
4, 29280, Note_on_c, 2, 70, 127
4, 29316, Note_on_c, 2, 70, 0
4, 29328, Note_on_c, 2, 69, 127
4, 29364, Note_on_c, 2, 69, 0
4, 29376, Note_on_c, 2, 67, 127
4, 29412, Note_on_c, 2, 67, 0
4, 29424, Note_on_c, 2, 67, 127
4, 29460, Note_on_c, 2, 67, 0
4, 29472, Note_on_c, 2, 67, 127
4, 29508, Note_on_c, 2, 67, 0
4, 29520, Note_on_c, 2, 67, 127
4, 29556, Note_on_c, 2, 67, 0
4, 29568, Note_on_c, 2, 74, 127
4, 29604, Note_on_c, 2, 74, 0
4, 29616, Note_on_c, 2, 67, 127
4, 29652, Note_on_c, 2, 67, 0
4, 29664, Note_on_c, 2, 67, 127
4, 29700, Note_on_c, 2, 67, 0
4, 29712, Note_on_c, 2, 67, 127
4, 29748, Note_on_c, 2, 67, 0
4, 29760, Note_on_c, 2, 74, 127
4, 29796, Note_on_c, 2, 74, 0
4, 29808, Note_on_c, 2, 67, 127
4, 29844, Note_on_c, 2, 67, 0
4, 29856, Note_on_c, 2, 67, 127
4, 29892, Note_on_c, 2, 67, 0
4, 29904, Note_on_c, 2, 67, 127
4, 29940, Note_on_c, 2, 67, 0
4, 29952, Note_on_c, 2, 62, 127
4, 29988, Note_on_c, 2, 62, 0
4, 30000, Note_on_c, 2, 66, 127
4, 30036, Note_on_c, 2, 66, 0
4, 30048, Note_on_c, 2, 67, 127
4, 30084, Note_on_c, 2, 67, 0
4, 30096, Note_on_c, 2, 69, 127
4, 30132, Note_on_c, 2, 69, 0
4, 30144, Note_on_c, 2, 70, 127
4, 30180, Note_on_c, 2, 70, 0
4, 30192, Note_on_c, 2, 72, 127
4, 30228, Note_on_c, 2, 72, 0
4, 30240, Note_on_c, 2, 74, 127
4, 30276, Note_on_c, 2, 74, 0
4, 30288, Note_on_c, 2, 76, 127
4, 30324, Note_on_c, 2, 76, 0
4, 30336, Note_on_c, 2, 78, 127
4, 30432, Note_on_c, 2, 78, 0
4, 30576, Note_on_c, 2, 66, 127
4, 30612, Note_on_c, 2, 66, 0
4, 30624, Note_on_c, 2, 67, 127
4, 30660, Note_on_c, 2, 67, 0
4, 30672, Note_on_c, 2, 69, 127
4, 30708, Note_on_c, 2, 69, 0
4, 30720, Note_on_c, 2, 70, 127
4, 30756, Note_on_c, 2, 70, 0
4, 30768, Note_on_c, 2, 72, 127
4, 30804, Note_on_c, 2, 72, 0
4, 30816, Note_on_c, 2, 74, 127
4, 30852, Note_on_c, 2, 74, 0
4, 30864, Note_on_c, 2, 76, 127
4, 30900, Note_on_c, 2, 76, 0
4, 30912, Note_on_c, 2, 78, 127
4, 31008, Note_on_c, 2, 78, 0
4, 31152, Note_on_c, 2, 67, 127
4, 31188, Note_on_c, 2, 67, 0
4, 31200, Note_on_c, 2, 69, 127
4, 31236, Note_on_c, 2, 69, 0
4, 31248, Note_on_c, 2, 70, 127
4, 31284, Note_on_c, 2, 70, 0
4, 31296, Note_on_c, 2, 72, 127
4, 31332, Note_on_c, 2, 72, 0
4, 31344, Note_on_c, 2, 74, 127
4, 31380, Note_on_c, 2, 74, 0
4, 31392, Note_on_c, 2, 75, 127
4, 31428, Note_on_c, 2, 75, 0
4, 31440, Note_on_c, 2, 78, 127
4, 31476, Note_on_c, 2, 78, 0
4, 31488, Note_on_c, 2, 79, 127
4, 31584, Note_on_c, 2, 79, 0
4, 31728, Note_on_c, 2, 66, 127
4, 31764, Note_on_c, 2, 66, 0
4, 31776, Note_on_c, 2, 67, 127
4, 31812, Note_on_c, 2, 67, 0
4, 31824, Note_on_c, 2, 69, 127
4, 31860, Note_on_c, 2, 69, 0
4, 31872, Note_on_c, 2, 70, 127
4, 31908, Note_on_c, 2, 70, 0
4, 31920, Note_on_c, 2, 72, 127
4, 31956, Note_on_c, 2, 72, 0
4, 31968, Note_on_c, 2, 74, 127
4, 32004, Note_on_c, 2, 74, 0
4, 32016, Note_on_c, 2, 76, 127
4, 32052, Note_on_c, 2, 76, 0
4, 32064, Note_on_c, 2, 78, 127
4, 32160, Note_on_c, 2, 78, 0
4, 32304, Note_on_c, 2, 66, 127
4, 32340, Note_on_c, 2, 66, 0
4, 32352, Note_on_c, 2, 67, 127
4, 32388, Note_on_c, 2, 67, 0
4, 32400, Note_on_c, 2, 69, 127
4, 32436, Note_on_c, 2, 69, 0
4, 32448, Note_on_c, 2, 70, 127
4, 32484, Note_on_c, 2, 70, 0
4, 32496, Note_on_c, 2, 72, 127
4, 32532, Note_on_c, 2, 72, 0
4, 32544, Note_on_c, 2, 74, 127
4, 32580, Note_on_c, 2, 74, 0
4, 32592, Note_on_c, 2, 76, 127
4, 32628, Note_on_c, 2, 76, 0
4, 32640, Note_on_c, 2, 78, 127
4, 32736, Note_on_c, 2, 78, 0
4, 32880, Note_on_c, 2, 66, 127
4, 32916, Note_on_c, 2, 66, 0
4, 32928, Note_on_c, 2, 67, 127
4, 32964, Note_on_c, 2, 67, 0
4, 32976, Note_on_c, 2, 69, 127
4, 33012, Note_on_c, 2, 69, 0
4, 33024, Note_on_c, 2, 70, 127
4, 33060, Note_on_c, 2, 70, 0
4, 33072, Note_on_c, 2, 72, 127
4, 33108, Note_on_c, 2, 72, 0
4, 33120, Note_on_c, 2, 74, 127
4, 33156, Note_on_c, 2, 74, 0
4, 33168, Note_on_c, 2, 76, 127
4, 33204, Note_on_c, 2, 76, 0
4, 33216, Note_on_c, 2, 78, 127
4, 33312, Note_on_c, 2, 78, 0
4, 33456, Note_on_c, 2, 67, 127
4, 33492, Note_on_c, 2, 67, 0
4, 33504, Note_on_c, 2, 69, 127
4, 33540, Note_on_c, 2, 69, 0
4, 33552, Note_on_c, 2, 70, 127
4, 33588, Note_on_c, 2, 70, 0
4, 33600, Note_on_c, 2, 72, 127
4, 33636, Note_on_c, 2, 72, 0
4, 33648, Note_on_c, 2, 74, 127
4, 33684, Note_on_c, 2, 74, 0
4, 33696, Note_on_c, 2, 75, 127
4, 33732, Note_on_c, 2, 75, 0
4, 33744, Note_on_c, 2, 78, 127
4, 33780, Note_on_c, 2, 78, 0
4, 33792, Note_on_c, 2, 79, 127
4, 33888, Note_on_c, 2, 79, 0
4, 34032, Note_on_c, 2, 66, 127
4, 34068, Note_on_c, 2, 66, 0
4, 34080, Note_on_c, 2, 67, 127
4, 34116, Note_on_c, 2, 67, 0
4, 34128, Note_on_c, 2, 69, 127
4, 34164, Note_on_c, 2, 69, 0
4, 34176, Note_on_c, 2, 70, 127
4, 34212, Note_on_c, 2, 70, 0
4, 34224, Note_on_c, 2, 72, 127
4, 34260, Note_on_c, 2, 72, 0
4, 34272, Note_on_c, 2, 74, 127
4, 34308, Note_on_c, 2, 74, 0
4, 34320, Note_on_c, 2, 76, 127
4, 34356, Note_on_c, 2, 76, 0
4, 34368, Note_on_c, 2, 78, 127
4, 34464, Note_on_c, 2, 78, 0
4, 34560, Note_on_c, 2, 70, 127
4, 34596, Note_on_c, 2, 70, 0
4, 34608, Note_on_c, 2, 74, 127
4, 34644, Note_on_c, 2, 74, 0
4, 34656, Note_on_c, 2, 79, 127
4, 34692, Note_on_c, 2, 79, 0
4, 34704, Note_on_c, 2, 82, 126
4, 34740, Note_on_c, 2, 82, 0
4, 34752, Note_on_c, 2, 70, 125
4, 34788, Note_on_c, 2, 70, 0
4, 34800, Note_on_c, 2, 74, 124
4, 34836, Note_on_c, 2, 74, 0
4, 34848, Note_on_c, 2, 79, 124
4, 34884, Note_on_c, 2, 79, 0
4, 34896, Note_on_c, 2, 82, 123
4, 34932, Note_on_c, 2, 82, 0
4, 34944, Note_on_c, 2, 70, 122
4, 34980, Note_on_c, 2, 70, 0
4, 34992, Note_on_c, 2, 74, 121
4, 35028, Note_on_c, 2, 74, 0
4, 35040, Note_on_c, 2, 79, 120
4, 35076, Note_on_c, 2, 79, 0
4, 35088, Note_on_c, 2, 82, 120
4, 35124, Note_on_c, 2, 82, 0
4, 35136, Note_on_c, 2, 62, 119
4, 35172, Note_on_c, 2, 62, 0
4, 35184, Note_on_c, 2, 67, 118
4, 35220, Note_on_c, 2, 67, 0
4, 35232, Note_on_c, 2, 70, 117
4, 35268, Note_on_c, 2, 70, 0
4, 35280, Note_on_c, 2, 74, 116
4, 35316, Note_on_c, 2, 74, 0
4, 35328, Note_on_c, 2, 62, 116
4, 35364, Note_on_c, 2, 62, 0
4, 35376, Note_on_c, 2, 67, 115
4, 35412, Note_on_c, 2, 67, 0
4, 35424, Note_on_c, 2, 70, 114
4, 35460, Note_on_c, 2, 70, 0
4, 35472, Note_on_c, 2, 74, 113
4, 35508, Note_on_c, 2, 74, 0
4, 35520, Note_on_c, 2, 62, 112
4, 35556, Note_on_c, 2, 62, 0
4, 35568, Note_on_c, 2, 67, 112
4, 35604, Note_on_c, 2, 67, 0
4, 35616, Note_on_c, 2, 70, 111
4, 35652, Note_on_c, 2, 70, 0
4, 35664, Note_on_c, 2, 74, 110
4, 35700, Note_on_c, 2, 74, 0
4, 35712, Note_on_c, 2, 55, 109
4, 35748, Note_on_c, 2, 55, 0
4, 35760, Note_on_c, 2, 58, 108
4, 35796, Note_on_c, 2, 58, 0
4, 35808, Note_on_c, 2, 62, 108
4, 35844, Note_on_c, 2, 62, 0
4, 35856, Note_on_c, 2, 67, 107
4, 35892, Note_on_c, 2, 67, 0
4, 35904, Note_on_c, 2, 55, 106
4, 35940, Note_on_c, 2, 55, 0
4, 35952, Note_on_c, 2, 58, 105
4, 35988, Note_on_c, 2, 58, 0
4, 36000, Note_on_c, 2, 62, 104
4, 36036, Note_on_c, 2, 62, 0
4, 36048, Note_on_c, 2, 67, 104
4, 36084, Note_on_c, 2, 67, 0
4, 36096, Note_on_c, 2, 55, 103
4, 36132, Note_on_c, 2, 55, 0
4, 36144, Note_on_c, 2, 58, 102
4, 36180, Note_on_c, 2, 58, 0
4, 36192, Note_on_c, 2, 62, 101
4, 36228, Note_on_c, 2, 62, 0
4, 36240, Note_on_c, 2, 67, 100
4, 36276, Note_on_c, 2, 67, 0
4, 36288, Note_on_c, 2, 62, 127
4, 36324, Note_on_c, 2, 62, 0
4, 36336, Note_on_c, 2, 67, 127
4, 36372, Note_on_c, 2, 67, 0
4, 36384, Note_on_c, 2, 62, 127
4, 36420, Note_on_c, 2, 62, 0
4, 36432, Note_on_c, 2, 67, 127
4, 36468, Note_on_c, 2, 67, 0
4, 36480, Note_on_c, 2, 62, 127
4, 36516, Note_on_c, 2, 62, 0
4, 36528, Note_on_c, 2, 67, 127
4, 36564, Note_on_c, 2, 67, 0
4, 36576, Note_on_c, 2, 62, 127
4, 36612, Note_on_c, 2, 62, 0
4, 36624, Note_on_c, 2, 67, 127
4, 36660, Note_on_c, 2, 67, 0
4, 36672, Note_on_c, 2, 62, 127
4, 36708, Note_on_c, 2, 62, 0
4, 36720, Note_on_c, 2, 67, 127
4, 36756, Note_on_c, 2, 67, 0
4, 36768, Note_on_c, 2, 62, 127
4, 36804, Note_on_c, 2, 62, 0
4, 36816, Note_on_c, 2, 67, 127
4, 36852, Note_on_c, 2, 67, 0
4, 36864, Note_on_c, 2, 63, 127
4, 36900, Note_on_c, 2, 63, 0
4, 36912, Note_on_c, 2, 67, 127
4, 36948, Note_on_c, 2, 67, 0
4, 36960, Note_on_c, 2, 63, 127
4, 36996, Note_on_c, 2, 63, 0
4, 37008, Note_on_c, 2, 67, 127
4, 37044, Note_on_c, 2, 67, 0
4, 37056, Note_on_c, 2, 63, 127
4, 37092, Note_on_c, 2, 63, 0
4, 37104, Note_on_c, 2, 67, 127
4, 37140, Note_on_c, 2, 67, 0
4, 37152, Note_on_c, 2, 63, 127
4, 37188, Note_on_c, 2, 63, 0
4, 37200, Note_on_c, 2, 67, 127
4, 37236, Note_on_c, 2, 67, 0
4, 37248, Note_on_c, 2, 63, 127
4, 37284, Note_on_c, 2, 63, 0
4, 37296, Note_on_c, 2, 60, 127
4, 37332, Note_on_c, 2, 60, 0
4, 37344, Note_on_c, 2, 63, 127
4, 37380, Note_on_c, 2, 63, 0
4, 37392, Note_on_c, 2, 60, 127
4, 37428, Note_on_c, 2, 60, 0
4, 37440, Note_on_c, 2, 64, 127
4, 37476, Note_on_c, 2, 64, 0
4, 37488, Note_on_c, 2, 67, 127
4, 37524, Note_on_c, 2, 67, 0
4, 37536, Note_on_c, 2, 64, 127
4, 37572, Note_on_c, 2, 64, 0
4, 37584, Note_on_c, 2, 67, 127
4, 37620, Note_on_c, 2, 67, 0
4, 37632, Note_on_c, 2, 64, 127
4, 37668, Note_on_c, 2, 64, 0
4, 37680, Note_on_c, 2, 67, 127
4, 37716, Note_on_c, 2, 67, 0
4, 37728, Note_on_c, 2, 64, 127
4, 37764, Note_on_c, 2, 64, 0
4, 37776, Note_on_c, 2, 67, 127
4, 37812, Note_on_c, 2, 67, 0
4, 37824, Note_on_c, 2, 64, 127
4, 37860, Note_on_c, 2, 64, 0
4, 37872, Note_on_c, 2, 67, 127
4, 37908, Note_on_c, 2, 67, 0
4, 37920, Note_on_c, 2, 64, 127
4, 37956, Note_on_c, 2, 64, 0
4, 37968, Note_on_c, 2, 67, 127
4, 38004, Note_on_c, 2, 67, 0
4, 38016, Note_on_c, 2, 65, 127
4, 38052, Note_on_c, 2, 65, 0
4, 38064, Note_on_c, 2, 69, 127
4, 38100, Note_on_c, 2, 69, 0
4, 38112, Note_on_c, 2, 65, 127
4, 38148, Note_on_c, 2, 65, 0
4, 38160, Note_on_c, 2, 69, 127
4, 38196, Note_on_c, 2, 69, 0
4, 38208, Note_on_c, 2, 65, 127
4, 38244, Note_on_c, 2, 65, 0
4, 38256, Note_on_c, 2, 69, 127
4, 38292, Note_on_c, 2, 69, 0
4, 38304, Note_on_c, 2, 65, 127
4, 38340, Note_on_c, 2, 65, 0
4, 38352, Note_on_c, 2, 69, 127
4, 38388, Note_on_c, 2, 69, 0
4, 38400, Note_on_c, 2, 65, 127
4, 38436, Note_on_c, 2, 65, 0
4, 38448, Note_on_c, 2, 62, 127
4, 38484, Note_on_c, 2, 62, 0
4, 38496, Note_on_c, 2, 65, 127
4, 38532, Note_on_c, 2, 65, 0
4, 38544, Note_on_c, 2, 62, 127
4, 38580, Note_on_c, 2, 62, 0
4, 38592, Note_on_c, 2, 64, 127
4, 38628, Note_on_c, 2, 64, 0
4, 38640, Note_on_c, 2, 69, 127
4, 38676, Note_on_c, 2, 69, 0
4, 38688, Note_on_c, 2, 64, 127
4, 38724, Note_on_c, 2, 64, 0
4, 38736, Note_on_c, 2, 69, 127
4, 38772, Note_on_c, 2, 69, 0
4, 38784, Note_on_c, 2, 64, 127
4, 38820, Note_on_c, 2, 64, 0
4, 38832, Note_on_c, 2, 69, 127
4, 38868, Note_on_c, 2, 69, 0
4, 38880, Note_on_c, 2, 64, 127
4, 38916, Note_on_c, 2, 64, 0
4, 38928, Note_on_c, 2, 69, 127
4, 38964, Note_on_c, 2, 69, 0
4, 38976, Note_on_c, 2, 64, 127
4, 39012, Note_on_c, 2, 64, 0
4, 39024, Note_on_c, 2, 69, 127
4, 39060, Note_on_c, 2, 69, 0
4, 39072, Note_on_c, 2, 64, 127
4, 39108, Note_on_c, 2, 64, 0
4, 39120, Note_on_c, 2, 69, 127
4, 39156, Note_on_c, 2, 69, 0
4, 39168, Note_on_c, 2, 64, 127
4, 39204, Note_on_c, 2, 64, 0
4, 39216, Note_on_c, 2, 69, 127
4, 39252, Note_on_c, 2, 69, 0
4, 39264, Note_on_c, 2, 64, 127
4, 39300, Note_on_c, 2, 64, 0
4, 39312, Note_on_c, 2, 69, 127
4, 39348, Note_on_c, 2, 69, 0
4, 39360, Note_on_c, 2, 64, 127
4, 39396, Note_on_c, 2, 64, 0
4, 39408, Note_on_c, 2, 69, 127
4, 39444, Note_on_c, 2, 69, 0
4, 39456, Note_on_c, 2, 64, 127
4, 39492, Note_on_c, 2, 64, 0
4, 39504, Note_on_c, 2, 69, 127
4, 39540, Note_on_c, 2, 69, 0
4, 39552, Note_on_c, 2, 64, 127
4, 39588, Note_on_c, 2, 64, 0
4, 39600, Note_on_c, 2, 69, 127
4, 39636, Note_on_c, 2, 69, 0
4, 39648, Note_on_c, 2, 64, 127
4, 39684, Note_on_c, 2, 64, 0
4, 39696, Note_on_c, 2, 69, 127
4, 39732, Note_on_c, 2, 69, 0
4, 39744, Note_on_c, 2, 65, 127
4, 39780, Note_on_c, 2, 65, 0
4, 39792, Note_on_c, 2, 62, 127
4, 39828, Note_on_c, 2, 62, 0
4, 39840, Note_on_c, 2, 64, 127
4, 39876, Note_on_c, 2, 64, 0
4, 39888, Note_on_c, 2, 65, 127
4, 39924, Note_on_c, 2, 65, 0
4, 39936, Note_on_c, 2, 67, 127
4, 39972, Note_on_c, 2, 67, 0
4, 39984, Note_on_c, 2, 69, 127
4, 40020, Note_on_c, 2, 69, 0
4, 40032, Note_on_c, 2, 71, 127
4, 40068, Note_on_c, 2, 71, 0
4, 40080, Note_on_c, 2, 73, 127
4, 40116, Note_on_c, 2, 73, 0
4, 40128, Note_on_c, 2, 74, 127
4, 40164, Note_on_c, 2, 74, 0
4, 40176, Note_on_c, 2, 69, 127
4, 40212, Note_on_c, 2, 69, 0
4, 40224, Note_on_c, 2, 71, 127
4, 40260, Note_on_c, 2, 71, 0
4, 40272, Note_on_c, 2, 73, 127
4, 40308, Note_on_c, 2, 73, 0
4, 40320, Note_on_c, 2, 74, 127
4, 40356, Note_on_c, 2, 74, 0
4, 40368, Note_on_c, 2, 76, 127
4, 40404, Note_on_c, 2, 76, 0
4, 40416, Note_on_c, 2, 77, 127
4, 40452, Note_on_c, 2, 77, 0
4, 40464, Note_on_c, 2, 79, 127
4, 40500, Note_on_c, 2, 79, 0
4, 40512, Note_on_c, 2, 81, 127
4, 40548, Note_on_c, 2, 81, 0
4, 40560, Note_on_c, 2, 74, 127
4, 40596, Note_on_c, 2, 74, 0
4, 40608, Note_on_c, 2, 76, 127
4, 40644, Note_on_c, 2, 76, 0
4, 40656, Note_on_c, 2, 77, 127
4, 40692, Note_on_c, 2, 77, 0
4, 40704, Note_on_c, 2, 79, 127
4, 40740, Note_on_c, 2, 79, 0
4, 40752, Note_on_c, 2, 81, 127
4, 40788, Note_on_c, 2, 81, 0
4, 40800, Note_on_c, 2, 83, 127
4, 40836, Note_on_c, 2, 83, 0
4, 40848, Note_on_c, 2, 85, 127
4, 40884, Note_on_c, 2, 85, 0
4, 40896, Note_on_c, 2, 86, 127
4, 40992, Note_on_c, 2, 86, 0
4, 41472, Note_on_c, 2, 62, 90
4, 41664, Note_on_c, 2, 62, 0
4, 41664, Note_on_c, 2, 62, 90
4, 41856, Note_on_c, 2, 62, 0
4, 41856, Note_on_c, 2, 62, 90
4, 42048, Note_on_c, 2, 62, 0
4, 42048, Note_on_c, 2, 62, 90
4, 42240, Note_on_c, 2, 62, 0
4, 42240, Note_on_c, 2, 62, 90
4, 42432, Note_on_c, 2, 62, 0
4, 42432, Note_on_c, 2, 62, 90
4, 42624, Note_on_c, 2, 62, 0
4, 42624, Note_on_c, 2, 62, 90
4, 42816, Note_on_c, 2, 62, 0
4, 42816, Note_on_c, 2, 62, 90
4, 43008, Note_on_c, 2, 62, 0
4, 43008, Note_on_c, 2, 62, 90
4, 43200, Note_on_c, 2, 62, 0
4, 43200, Note_on_c, 2, 62, 90
4, 43392, Note_on_c, 2, 62, 0
4, 43776, Note_on_c, 2, 62, 90
4, 43968, Note_on_c, 2, 62, 0
4, 43968, Note_on_c, 2, 62, 90
4, 44160, Note_on_c, 2, 62, 0
4, 44160, Note_on_c, 2, 62, 90
4, 44352, Note_on_c, 2, 62, 0
4, 44352, Note_on_c, 2, 62, 90
4, 44544, Note_on_c, 2, 62, 0
4, 44544, Note_on_c, 2, 62, 90
4, 44736, Note_on_c, 2, 62, 0
4, 44736, Note_on_c, 2, 62, 90
4, 44928, Note_on_c, 2, 62, 0
4, 44928, Note_on_c, 2, 62, 90
4, 45120, Note_on_c, 2, 62, 0
4, 45120, Note_on_c, 2, 62, 90
4, 45312, Note_on_c, 2, 62, 0
4, 45312, Note_on_c, 2, 62, 90
4, 45504, Note_on_c, 2, 62, 0
4, 45504, Note_on_c, 2, 62, 90
4, 45696, Note_on_c, 2, 62, 0
4, 49536, Note_on_c, 2, 77, 110
4, 49608, Note_on_c, 2, 77, 0
4, 49632, Note_on_c, 2, 57, 110
4, 49704, Note_on_c, 2, 57, 0
4, 49728, Note_on_c, 2, 57, 110
4, 49800, Note_on_c, 2, 57, 0
4, 49824, Note_on_c, 2, 69, 110
4, 49896, Note_on_c, 2, 69, 0
4, 49920, Note_on_c, 2, 74, 110
4, 49992, Note_on_c, 2, 74, 0
4, 50016, Note_on_c, 2, 77, 110
4, 50088, Note_on_c, 2, 77, 0
4, 50112, Note_on_c, 2, 79, 110
4, 50184, Note_on_c, 2, 79, 0
4, 50208, Note_on_c, 2, 58, 110
4, 50280, Note_on_c, 2, 58, 0
4, 50304, Note_on_c, 2, 58, 110
4, 50376, Note_on_c, 2, 58, 0
4, 50400, Note_on_c, 2, 70, 110
4, 50472, Note_on_c, 2, 70, 0
4, 50496, Note_on_c, 2, 74, 110
4, 50568, Note_on_c, 2, 74, 0
4, 50592, Note_on_c, 2, 79, 110
4, 50664, Note_on_c, 2, 79, 0
4, 50688, Note_on_c, 2, 79, 110
4, 50760, Note_on_c, 2, 79, 0
4, 50784, Note_on_c, 2, 60, 110
4, 50856, Note_on_c, 2, 60, 0
4, 50880, Note_on_c, 2, 60, 110
4, 50952, Note_on_c, 2, 60, 0
4, 50976, Note_on_c, 2, 72, 110
4, 51048, Note_on_c, 2, 72, 0
4, 51072, Note_on_c, 2, 76, 110
4, 51144, Note_on_c, 2, 76, 0
4, 51168, Note_on_c, 2, 79, 110
4, 51240, Note_on_c, 2, 79, 0
4, 51264, Note_on_c, 2, 77, 110
4, 51336, Note_on_c, 2, 77, 0
4, 51360, Note_on_c, 2, 60, 110
4, 51432, Note_on_c, 2, 60, 0
4, 51456, Note_on_c, 2, 60, 110
4, 51528, Note_on_c, 2, 60, 0
4, 51552, Note_on_c, 2, 69, 110
4, 51624, Note_on_c, 2, 69, 0
4, 51648, Note_on_c, 2, 72, 110
4, 51720, Note_on_c, 2, 72, 0
4, 51744, Note_on_c, 2, 77, 110
4, 51816, Note_on_c, 2, 77, 0
4, 51840, Note_on_c, 2, 77, 110
4, 51912, Note_on_c, 2, 77, 0
4, 51936, Note_on_c, 2, 58, 110
4, 52008, Note_on_c, 2, 58, 0
4, 52032, Note_on_c, 2, 58, 110
4, 52104, Note_on_c, 2, 58, 0
4, 52128, Note_on_c, 2, 70, 110
4, 52200, Note_on_c, 2, 70, 0
4, 52224, Note_on_c, 2, 74, 110
4, 52296, Note_on_c, 2, 74, 0
4, 52320, Note_on_c, 2, 77, 110
4, 52392, Note_on_c, 2, 77, 0
4, 52416, Note_on_c, 2, 75, 110
4, 52488, Note_on_c, 2, 75, 0
4, 52512, Note_on_c, 2, 58, 110
4, 52584, Note_on_c, 2, 58, 0
4, 52608, Note_on_c, 2, 58, 110
4, 52680, Note_on_c, 2, 58, 0
4, 52704, Note_on_c, 2, 67, 110
4, 52776, Note_on_c, 2, 67, 0
4, 52800, Note_on_c, 2, 70, 110
4, 52872, Note_on_c, 2, 70, 0
4, 52896, Note_on_c, 2, 75, 110
4, 52968, Note_on_c, 2, 75, 0
4, 52992, Note_on_c, 2, 75, 110
4, 53064, Note_on_c, 2, 75, 0
4, 53088, Note_on_c, 2, 56, 110
4, 53160, Note_on_c, 2, 56, 0
4, 53184, Note_on_c, 2, 56, 110
4, 53256, Note_on_c, 2, 56, 0
4, 53280, Note_on_c, 2, 68, 110
4, 53352, Note_on_c, 2, 68, 0
4, 53376, Note_on_c, 2, 72, 110
4, 53448, Note_on_c, 2, 72, 0
4, 53472, Note_on_c, 2, 75, 110
4, 53544, Note_on_c, 2, 75, 0
4, 53568, Note_on_c, 2, 74, 110
4, 53640, Note_on_c, 2, 74, 0
4, 53664, Note_on_c, 2, 59, 110
4, 53736, Note_on_c, 2, 59, 0
4, 53760, Note_on_c, 2, 59, 110
4, 53832, Note_on_c, 2, 59, 0
4, 53856, Note_on_c, 2, 67, 110
4, 53928, Note_on_c, 2, 67, 0
4, 53952, Note_on_c, 2, 71, 110
4, 54024, Note_on_c, 2, 71, 0
4, 54048, Note_on_c, 2, 74, 110
4, 54120, Note_on_c, 2, 74, 0
4, 54144, Note_on_c, 2, 74, 110
4, 54216, Note_on_c, 2, 74, 0
4, 54240, Note_on_c, 2, 59, 110
4, 54312, Note_on_c, 2, 59, 0
4, 54336, Note_on_c, 2, 59, 110
4, 54408, Note_on_c, 2, 59, 0
4, 54432, Note_on_c, 2, 67, 110
4, 54504, Note_on_c, 2, 67, 0
4, 54528, Note_on_c, 2, 71, 110
4, 54600, Note_on_c, 2, 71, 0
4, 54624, Note_on_c, 2, 74, 110
4, 54696, Note_on_c, 2, 74, 0
4, 54720, Note_on_c, 2, 72, 110
4, 54756, Note_on_c, 2, 72, 0
4, 54768, Note_on_c, 2, 60, 110
4, 54804, Note_on_c, 2, 60, 0
4, 54816, Note_on_c, 2, 62, 110
4, 54852, Note_on_c, 2, 62, 0
4, 54864, Note_on_c, 2, 63, 110
4, 54900, Note_on_c, 2, 63, 0
4, 54912, Note_on_c, 2, 65, 110
4, 54948, Note_on_c, 2, 65, 0
4, 54960, Note_on_c, 2, 67, 110
4, 54996, Note_on_c, 2, 67, 0
4, 55008, Note_on_c, 2, 68, 110
4, 55044, Note_on_c, 2, 68, 0
4, 55056, Note_on_c, 2, 71, 110
4, 55092, Note_on_c, 2, 71, 0
4, 55104, Note_on_c, 2, 72, 110
4, 55200, Note_on_c, 2, 72, 0
4, 55344, Note_on_c, 2, 60, 110
4, 55380, Note_on_c, 2, 60, 0
4, 55392, Note_on_c, 2, 62, 110
4, 55428, Note_on_c, 2, 62, 0
4, 55440, Note_on_c, 2, 63, 110
4, 55476, Note_on_c, 2, 63, 0
4, 55488, Note_on_c, 2, 65, 110
4, 55524, Note_on_c, 2, 65, 0
4, 55536, Note_on_c, 2, 67, 110
4, 55572, Note_on_c, 2, 67, 0
4, 55584, Note_on_c, 2, 68, 110
4, 55620, Note_on_c, 2, 68, 0
4, 55632, Note_on_c, 2, 71, 110
4, 55668, Note_on_c, 2, 71, 0
4, 55680, Note_on_c, 2, 72, 110
4, 55776, Note_on_c, 2, 72, 0
4, 55920, Note_on_c, 2, 60, 110
4, 55956, Note_on_c, 2, 60, 0
4, 55968, Note_on_c, 2, 62, 110
4, 56004, Note_on_c, 2, 62, 0
4, 56016, Note_on_c, 2, 63, 110
4, 56052, Note_on_c, 2, 63, 0
4, 56064, Note_on_c, 2, 65, 110
4, 56100, Note_on_c, 2, 65, 0
4, 56112, Note_on_c, 2, 67, 110
4, 56148, Note_on_c, 2, 67, 0
4, 56160, Note_on_c, 2, 68, 110
4, 56196, Note_on_c, 2, 68, 0
4, 56208, Note_on_c, 2, 71, 110
4, 56244, Note_on_c, 2, 71, 0
4, 56256, Note_on_c, 2, 72, 110
4, 56352, Note_on_c, 2, 72, 0
4, 56448, Note_on_c, 2, 63, 80
4, 56484, Note_on_c, 2, 63, 0
4, 56496, Note_on_c, 2, 72, 80
4, 56532, Note_on_c, 2, 72, 0
4, 56544, Note_on_c, 2, 70, 81
4, 56580, Note_on_c, 2, 70, 0
4, 56592, Note_on_c, 2, 72, 82
4, 56628, Note_on_c, 2, 72, 0
4, 56640, Note_on_c, 2, 63, 83
4, 56676, Note_on_c, 2, 63, 0
4, 56688, Note_on_c, 2, 72, 84
4, 56724, Note_on_c, 2, 72, 0
4, 56736, Note_on_c, 2, 70, 85
4, 56772, Note_on_c, 2, 70, 0
4, 56784, Note_on_c, 2, 72, 86
4, 56820, Note_on_c, 2, 72, 0
4, 56832, Note_on_c, 2, 63, 86
4, 56868, Note_on_c, 2, 63, 0
4, 56880, Note_on_c, 2, 72, 87
4, 56916, Note_on_c, 2, 72, 0
4, 56928, Note_on_c, 2, 70, 88
4, 56964, Note_on_c, 2, 70, 0
4, 56976, Note_on_c, 2, 72, 89
4, 57012, Note_on_c, 2, 72, 0
4, 57024, Note_on_c, 2, 65, 90
4, 57060, Note_on_c, 2, 65, 0
4, 57072, Note_on_c, 2, 72, 91
4, 57108, Note_on_c, 2, 72, 0
4, 57120, Note_on_c, 2, 70, 92
4, 57156, Note_on_c, 2, 70, 0
4, 57168, Note_on_c, 2, 72, 92
4, 57204, Note_on_c, 2, 72, 0
4, 57216, Note_on_c, 2, 65, 93
4, 57252, Note_on_c, 2, 65, 0
4, 57264, Note_on_c, 2, 72, 94
4, 57300, Note_on_c, 2, 72, 0
4, 57312, Note_on_c, 2, 70, 95
4, 57348, Note_on_c, 2, 70, 0
4, 57360, Note_on_c, 2, 72, 96
4, 57396, Note_on_c, 2, 72, 0
4, 57408, Note_on_c, 2, 65, 97
4, 57444, Note_on_c, 2, 65, 0
4, 57456, Note_on_c, 2, 72, 98
4, 57492, Note_on_c, 2, 72, 0
4, 57504, Note_on_c, 2, 70, 98
4, 57540, Note_on_c, 2, 70, 0
4, 57552, Note_on_c, 2, 72, 99
4, 57588, Note_on_c, 2, 72, 0
4, 57600, Note_on_c, 2, 67, 100
4, 57636, Note_on_c, 2, 67, 0
4, 57648, Note_on_c, 2, 72, 101
4, 57684, Note_on_c, 2, 72, 0
4, 57696, Note_on_c, 2, 71, 102
4, 57732, Note_on_c, 2, 71, 0
4, 57744, Note_on_c, 2, 72, 103
4, 57780, Note_on_c, 2, 72, 0
4, 57792, Note_on_c, 2, 67, 104
4, 57828, Note_on_c, 2, 67, 0
4, 57840, Note_on_c, 2, 72, 104
4, 57876, Note_on_c, 2, 72, 0
4, 57888, Note_on_c, 2, 71, 105
4, 57924, Note_on_c, 2, 71, 0
4, 57936, Note_on_c, 2, 72, 106
4, 57972, Note_on_c, 2, 72, 0
4, 57984, Note_on_c, 2, 67, 107
4, 58020, Note_on_c, 2, 67, 0
4, 58032, Note_on_c, 2, 71, 108
4, 58068, Note_on_c, 2, 71, 0
4, 58080, Note_on_c, 2, 69, 109
4, 58116, Note_on_c, 2, 69, 0
4, 58128, Note_on_c, 2, 71, 110
4, 58164, Note_on_c, 2, 71, 0
4, 58176, Note_on_c, 2, 72, 118
4, 58212, Note_on_c, 2, 72, 0
4, 58224, Note_on_c, 2, 60, 118
4, 58260, Note_on_c, 2, 60, 0
4, 58272, Note_on_c, 2, 60, 118
4, 58308, Note_on_c, 2, 60, 0
4, 58320, Note_on_c, 2, 60, 118
4, 58356, Note_on_c, 2, 60, 0
4, 58368, Note_on_c, 2, 60, 118
4, 58404, Note_on_c, 2, 60, 0
4, 58416, Note_on_c, 2, 60, 118
4, 58452, Note_on_c, 2, 60, 0
4, 58464, Note_on_c, 2, 60, 118
4, 58500, Note_on_c, 2, 60, 0
4, 58512, Note_on_c, 2, 60, 118
4, 58548, Note_on_c, 2, 60, 0
4, 58560, Note_on_c, 2, 60, 118
4, 58596, Note_on_c, 2, 60, 0
4, 58608, Note_on_c, 2, 60, 118
4, 58644, Note_on_c, 2, 60, 0
4, 58656, Note_on_c, 2, 60, 118
4, 58692, Note_on_c, 2, 60, 0
4, 58704, Note_on_c, 2, 60, 118
4, 58740, Note_on_c, 2, 60, 0
4, 58752, Note_on_c, 2, 70, 118
4, 58788, Note_on_c, 2, 70, 0
4, 58800, Note_on_c, 2, 60, 118
4, 58836, Note_on_c, 2, 60, 0
4, 58848, Note_on_c, 2, 60, 118
4, 58884, Note_on_c, 2, 60, 0
4, 58896, Note_on_c, 2, 60, 118
4, 58932, Note_on_c, 2, 60, 0
4, 58944, Note_on_c, 2, 60, 118
4, 58980, Note_on_c, 2, 60, 0
4, 58992, Note_on_c, 2, 60, 118
4, 59028, Note_on_c, 2, 60, 0
4, 59040, Note_on_c, 2, 60, 118
4, 59076, Note_on_c, 2, 60, 0
4, 59088, Note_on_c, 2, 60, 118
4, 59124, Note_on_c, 2, 60, 0
4, 59136, Note_on_c, 2, 60, 118
4, 59172, Note_on_c, 2, 60, 0
4, 59184, Note_on_c, 2, 60, 118
4, 59220, Note_on_c, 2, 60, 0
4, 59232, Note_on_c, 2, 60, 118
4, 59268, Note_on_c, 2, 60, 0
4, 59280, Note_on_c, 2, 60, 118
4, 59316, Note_on_c, 2, 60, 0
4, 59328, Note_on_c, 2, 68, 118
4, 59364, Note_on_c, 2, 68, 0
4, 59376, Note_on_c, 2, 60, 118
4, 59412, Note_on_c, 2, 60, 0
4, 59424, Note_on_c, 2, 60, 118
4, 59460, Note_on_c, 2, 60, 0
4, 59472, Note_on_c, 2, 60, 118
4, 59508, Note_on_c, 2, 60, 0
4, 59520, Note_on_c, 2, 60, 118
4, 59556, Note_on_c, 2, 60, 0
4, 59568, Note_on_c, 2, 60, 118
4, 59604, Note_on_c, 2, 60, 0
4, 59616, Note_on_c, 2, 60, 118
4, 59652, Note_on_c, 2, 60, 0
4, 59664, Note_on_c, 2, 60, 118
4, 59700, Note_on_c, 2, 60, 0
4, 59712, Note_on_c, 2, 60, 118
4, 59748, Note_on_c, 2, 60, 0
4, 59760, Note_on_c, 2, 60, 118
4, 59796, Note_on_c, 2, 60, 0
4, 59808, Note_on_c, 2, 60, 118
4, 59844, Note_on_c, 2, 60, 0
4, 59856, Note_on_c, 2, 60, 118
4, 59892, Note_on_c, 2, 60, 0
4, 59904, Note_on_c, 2, 67, 118
4, 59940, Note_on_c, 2, 67, 0
4, 59952, Note_on_c, 2, 60, 118
4, 59988, Note_on_c, 2, 60, 0
4, 60000, Note_on_c, 2, 60, 118
4, 60036, Note_on_c, 2, 60, 0
4, 60048, Note_on_c, 2, 60, 118
4, 60084, Note_on_c, 2, 60, 0
4, 60096, Note_on_c, 2, 60, 118
4, 60132, Note_on_c, 2, 60, 0
4, 60144, Note_on_c, 2, 60, 118
4, 60180, Note_on_c, 2, 60, 0
4, 60192, Note_on_c, 2, 60, 118
4, 60228, Note_on_c, 2, 60, 0
4, 60240, Note_on_c, 2, 60, 118
4, 60276, Note_on_c, 2, 60, 0
4, 60288, Note_on_c, 2, 60, 118
4, 60384, Note_on_c, 2, 60, 0
4, 66816, Note_on_c, 2, 60, 127
4, 66852, Note_on_c, 2, 60, 0
4, 66864, Note_on_c, 2, 60, 127
4, 66900, Note_on_c, 2, 60, 0
4, 66912, Note_on_c, 2, 60, 127
4, 66948, Note_on_c, 2, 60, 0
4, 66960, Note_on_c, 2, 60, 127
4, 66996, Note_on_c, 2, 60, 0
4, 67008, Note_on_c, 2, 60, 127
4, 67044, Note_on_c, 2, 60, 0
4, 67056, Note_on_c, 2, 60, 127
4, 67092, Note_on_c, 2, 60, 0
4, 67104, Note_on_c, 2, 60, 127
4, 67140, Note_on_c, 2, 60, 0
4, 67152, Note_on_c, 2, 60, 127
4, 67188, Note_on_c, 2, 60, 0
4, 67200, Note_on_c, 2, 60, 127
4, 67236, Note_on_c, 2, 60, 0
4, 67248, Note_on_c, 2, 60, 127
4, 67284, Note_on_c, 2, 60, 0
4, 67296, Note_on_c, 2, 60, 127
4, 67332, Note_on_c, 2, 60, 0
4, 67344, Note_on_c, 2, 60, 127
4, 67380, Note_on_c, 2, 60, 0
4, 67392, Note_on_c, 2, 68, 127
4, 67428, Note_on_c, 2, 68, 0
4, 67440, Note_on_c, 2, 60, 127
4, 67476, Note_on_c, 2, 60, 0
4, 67488, Note_on_c, 2, 60, 127
4, 67524, Note_on_c, 2, 60, 0
4, 67536, Note_on_c, 2, 60, 127
4, 67572, Note_on_c, 2, 60, 0
4, 67584, Note_on_c, 2, 68, 127
4, 67620, Note_on_c, 2, 68, 0
4, 67632, Note_on_c, 2, 60, 127
4, 67668, Note_on_c, 2, 60, 0
4, 67680, Note_on_c, 2, 60, 127
4, 67716, Note_on_c, 2, 60, 0
4, 67728, Note_on_c, 2, 60, 127
4, 67764, Note_on_c, 2, 60, 0
4, 67776, Note_on_c, 2, 68, 127
4, 67812, Note_on_c, 2, 68, 0
4, 67824, Note_on_c, 2, 60, 127
4, 67860, Note_on_c, 2, 60, 0
4, 67872, Note_on_c, 2, 60, 127
4, 67908, Note_on_c, 2, 60, 0
4, 67920, Note_on_c, 2, 60, 127
4, 67956, Note_on_c, 2, 60, 0
4, 67968, Note_on_c, 2, 59, 127
4, 68004, Note_on_c, 2, 59, 0
4, 68016, Note_on_c, 2, 59, 127
4, 68052, Note_on_c, 2, 59, 0
4, 68064, Note_on_c, 2, 59, 127
4, 68100, Note_on_c, 2, 59, 0
4, 68112, Note_on_c, 2, 59, 127
4, 68148, Note_on_c, 2, 59, 0
4, 68160, Note_on_c, 2, 59, 127
4, 68196, Note_on_c, 2, 59, 0
4, 68208, Note_on_c, 2, 59, 127
4, 68244, Note_on_c, 2, 59, 0
4, 68256, Note_on_c, 2, 59, 127
4, 68292, Note_on_c, 2, 59, 0
4, 68304, Note_on_c, 2, 59, 127
4, 68340, Note_on_c, 2, 59, 0
4, 68352, Note_on_c, 2, 59, 127
4, 68388, Note_on_c, 2, 59, 0
4, 68400, Note_on_c, 2, 59, 127
4, 68436, Note_on_c, 2, 59, 0
4, 68448, Note_on_c, 2, 59, 127
4, 68484, Note_on_c, 2, 59, 0
4, 68496, Note_on_c, 2, 59, 127
4, 68532, Note_on_c, 2, 59, 0
4, 68544, Note_on_c, 2, 67, 127
4, 68580, Note_on_c, 2, 67, 0
4, 68592, Note_on_c, 2, 58, 127
4, 68628, Note_on_c, 2, 58, 0
4, 68640, Note_on_c, 2, 58, 127
4, 68676, Note_on_c, 2, 58, 0
4, 68688, Note_on_c, 2, 58, 127
4, 68724, Note_on_c, 2, 58, 0
4, 68736, Note_on_c, 2, 67, 127
4, 68772, Note_on_c, 2, 67, 0
4, 68784, Note_on_c, 2, 58, 127
4, 68820, Note_on_c, 2, 58, 0
4, 68832, Note_on_c, 2, 58, 127
4, 68868, Note_on_c, 2, 58, 0
4, 68880, Note_on_c, 2, 58, 127
4, 68916, Note_on_c, 2, 58, 0
4, 68928, Note_on_c, 2, 67, 127
4, 68964, Note_on_c, 2, 67, 0
4, 68976, Note_on_c, 2, 58, 127
4, 69012, Note_on_c, 2, 58, 0
4, 69024, Note_on_c, 2, 58, 127
4, 69060, Note_on_c, 2, 58, 0
4, 69072, Note_on_c, 2, 58, 127
4, 69108, Note_on_c, 2, 58, 0
4, 69120, Note_on_c, 2, 57, 127
4, 69156, Note_on_c, 2, 57, 0
4, 69168, Note_on_c, 2, 57, 127
4, 69204, Note_on_c, 2, 57, 0
4, 69216, Note_on_c, 2, 57, 127
4, 69252, Note_on_c, 2, 57, 0
4, 69264, Note_on_c, 2, 57, 127
4, 69300, Note_on_c, 2, 57, 0
4, 69312, Note_on_c, 2, 57, 127
4, 69348, Note_on_c, 2, 57, 0
4, 69360, Note_on_c, 2, 57, 127
4, 69396, Note_on_c, 2, 57, 0
4, 69408, Note_on_c, 2, 57, 127
4, 69444, Note_on_c, 2, 57, 0
4, 69456, Note_on_c, 2, 57, 127
4, 69492, Note_on_c, 2, 57, 0
4, 69504, Note_on_c, 2, 57, 127
4, 69540, Note_on_c, 2, 57, 0
4, 69552, Note_on_c, 2, 57, 127
4, 69588, Note_on_c, 2, 57, 0
4, 69600, Note_on_c, 2, 57, 127
4, 69636, Note_on_c, 2, 57, 0
4, 69648, Note_on_c, 2, 57, 127
4, 69684, Note_on_c, 2, 57, 0
4, 69696, Note_on_c, 2, 65, 127
4, 69732, Note_on_c, 2, 65, 0
4, 69744, Note_on_c, 2, 56, 127
4, 69780, Note_on_c, 2, 56, 0
4, 69792, Note_on_c, 2, 56, 127
4, 69828, Note_on_c, 2, 56, 0
4, 69840, Note_on_c, 2, 56, 127
4, 69876, Note_on_c, 2, 56, 0
4, 69888, Note_on_c, 2, 65, 127
4, 69924, Note_on_c, 2, 65, 0
4, 69936, Note_on_c, 2, 56, 127
4, 69972, Note_on_c, 2, 56, 0
4, 69984, Note_on_c, 2, 56, 127
4, 70020, Note_on_c, 2, 56, 0
4, 70032, Note_on_c, 2, 56, 127
4, 70068, Note_on_c, 2, 56, 0
4, 70080, Note_on_c, 2, 65, 127
4, 70116, Note_on_c, 2, 65, 0
4, 70128, Note_on_c, 2, 56, 127
4, 70164, Note_on_c, 2, 56, 0
4, 70176, Note_on_c, 2, 56, 127
4, 70212, Note_on_c, 2, 56, 0
4, 70224, Note_on_c, 2, 56, 127
4, 70260, Note_on_c, 2, 56, 0
4, 70272, Note_on_c, 2, 55, 127
4, 70308, Note_on_c, 2, 55, 0
4, 70320, Note_on_c, 2, 67, 127
4, 70356, Note_on_c, 2, 67, 0
4, 70368, Note_on_c, 2, 67, 127
4, 70404, Note_on_c, 2, 67, 0
4, 70416, Note_on_c, 2, 67, 127
4, 70452, Note_on_c, 2, 67, 0
4, 70464, Note_on_c, 2, 67, 127
4, 70500, Note_on_c, 2, 67, 0
4, 70512, Note_on_c, 2, 67, 127
4, 70548, Note_on_c, 2, 67, 0
4, 70560, Note_on_c, 2, 67, 127
4, 70596, Note_on_c, 2, 67, 0
4, 70608, Note_on_c, 2, 67, 127
4, 70644, Note_on_c, 2, 67, 0
4, 70656, Note_on_c, 2, 67, 127
4, 70692, Note_on_c, 2, 67, 0
4, 70704, Note_on_c, 2, 67, 127
4, 70740, Note_on_c, 2, 67, 0
4, 70752, Note_on_c, 2, 67, 127
4, 70788, Note_on_c, 2, 67, 0
4, 70800, Note_on_c, 2, 67, 127
4, 70836, Note_on_c, 2, 67, 0
4, 70848, Note_on_c, 2, 75, 127
4, 70884, Note_on_c, 2, 75, 0
4, 70896, Note_on_c, 2, 67, 127
4, 70932, Note_on_c, 2, 67, 0
4, 70944, Note_on_c, 2, 67, 127
4, 70980, Note_on_c, 2, 67, 0
4, 70992, Note_on_c, 2, 67, 127
4, 71028, Note_on_c, 2, 67, 0
4, 71040, Note_on_c, 2, 75, 127
4, 71076, Note_on_c, 2, 75, 0
4, 71088, Note_on_c, 2, 67, 127
4, 71124, Note_on_c, 2, 67, 0
4, 71136, Note_on_c, 2, 67, 127
4, 71172, Note_on_c, 2, 67, 0
4, 71184, Note_on_c, 2, 67, 127
4, 71220, Note_on_c, 2, 67, 0
4, 71232, Note_on_c, 2, 75, 127
4, 71268, Note_on_c, 2, 75, 0
4, 71280, Note_on_c, 2, 67, 127
4, 71316, Note_on_c, 2, 67, 0
4, 71328, Note_on_c, 2, 67, 127
4, 71364, Note_on_c, 2, 67, 0
4, 71376, Note_on_c, 2, 67, 127
4, 71412, Note_on_c, 2, 67, 0
4, 71424, Note_on_c, 2, 66, 127
4, 71460, Note_on_c, 2, 66, 0
4, 71472, Note_on_c, 2, 66, 127
4, 71508, Note_on_c, 2, 66, 0
4, 71520, Note_on_c, 2, 66, 127
4, 71556, Note_on_c, 2, 66, 0
4, 71568, Note_on_c, 2, 66, 127
4, 71604, Note_on_c, 2, 66, 0
4, 71616, Note_on_c, 2, 66, 127
4, 71652, Note_on_c, 2, 66, 0
4, 71664, Note_on_c, 2, 66, 127
4, 71700, Note_on_c, 2, 66, 0
4, 71712, Note_on_c, 2, 66, 127
4, 71748, Note_on_c, 2, 66, 0
4, 71760, Note_on_c, 2, 66, 127
4, 71796, Note_on_c, 2, 66, 0
4, 71808, Note_on_c, 2, 66, 127
4, 71844, Note_on_c, 2, 66, 0
4, 71856, Note_on_c, 2, 66, 127
4, 71892, Note_on_c, 2, 66, 0
4, 71904, Note_on_c, 2, 66, 127
4, 71940, Note_on_c, 2, 66, 0
4, 71952, Note_on_c, 2, 66, 127
4, 71988, Note_on_c, 2, 66, 0
4, 72000, Note_on_c, 2, 74, 127
4, 72036, Note_on_c, 2, 74, 0
4, 72048, Note_on_c, 2, 65, 127
4, 72084, Note_on_c, 2, 65, 0
4, 72096, Note_on_c, 2, 65, 127
4, 72132, Note_on_c, 2, 65, 0
4, 72144, Note_on_c, 2, 65, 127
4, 72180, Note_on_c, 2, 65, 0
4, 72192, Note_on_c, 2, 74, 127
4, 72228, Note_on_c, 2, 74, 0
4, 72240, Note_on_c, 2, 65, 127
4, 72276, Note_on_c, 2, 65, 0
4, 72288, Note_on_c, 2, 65, 127
4, 72324, Note_on_c, 2, 65, 0
4, 72336, Note_on_c, 2, 65, 127
4, 72372, Note_on_c, 2, 65, 0
4, 72384, Note_on_c, 2, 74, 127
4, 72420, Note_on_c, 2, 74, 0
4, 72432, Note_on_c, 2, 65, 127
4, 72468, Note_on_c, 2, 65, 0
4, 72480, Note_on_c, 2, 65, 127
4, 72516, Note_on_c, 2, 65, 0
4, 72528, Note_on_c, 2, 65, 127
4, 72564, Note_on_c, 2, 65, 0
4, 72576, Note_on_c, 2, 64, 127
4, 72612, Note_on_c, 2, 64, 0
4, 72624, Note_on_c, 2, 64, 127
4, 72660, Note_on_c, 2, 64, 0
4, 72672, Note_on_c, 2, 64, 127
4, 72708, Note_on_c, 2, 64, 0
4, 72720, Note_on_c, 2, 64, 127
4, 72756, Note_on_c, 2, 64, 0
4, 72768, Note_on_c, 2, 64, 127
4, 72804, Note_on_c, 2, 64, 0
4, 72816, Note_on_c, 2, 64, 127
4, 72852, Note_on_c, 2, 64, 0
4, 72864, Note_on_c, 2, 64, 127
4, 72900, Note_on_c, 2, 64, 0
4, 72912, Note_on_c, 2, 64, 127
4, 72948, Note_on_c, 2, 64, 0
4, 72960, Note_on_c, 2, 64, 127
4, 72996, Note_on_c, 2, 64, 0
4, 73008, Note_on_c, 2, 64, 127
4, 73044, Note_on_c, 2, 64, 0
4, 73056, Note_on_c, 2, 64, 127
4, 73092, Note_on_c, 2, 64, 0
4, 73104, Note_on_c, 2, 64, 127
4, 73140, Note_on_c, 2, 64, 0
4, 73152, Note_on_c, 2, 72, 127
4, 73188, Note_on_c, 2, 72, 0
4, 73200, Note_on_c, 2, 63, 127
4, 73236, Note_on_c, 2, 63, 0
4, 73248, Note_on_c, 2, 63, 127
4, 73284, Note_on_c, 2, 63, 0
4, 73296, Note_on_c, 2, 63, 127
4, 73332, Note_on_c, 2, 63, 0
4, 73344, Note_on_c, 2, 72, 127
4, 73380, Note_on_c, 2, 72, 0
4, 73392, Note_on_c, 2, 63, 127
4, 73428, Note_on_c, 2, 63, 0
4, 73440, Note_on_c, 2, 63, 127
4, 73476, Note_on_c, 2, 63, 0
4, 73488, Note_on_c, 2, 63, 127
4, 73524, Note_on_c, 2, 63, 0
4, 73536, Note_on_c, 2, 72, 127
4, 73572, Note_on_c, 2, 72, 0
4, 73584, Note_on_c, 2, 63, 127
4, 73620, Note_on_c, 2, 63, 0
4, 73632, Note_on_c, 2, 63, 127
4, 73668, Note_on_c, 2, 63, 0
4, 73680, Note_on_c, 2, 63, 127
4, 73716, Note_on_c, 2, 63, 0
4, 73728, Note_on_c, 2, 62, 127
4, 73920, Note_on_c, 2, 62, 0
4, 76656, Note_on_c, 2, 74, 127
4, 76692, Note_on_c, 2, 74, 0
4, 76704, Note_on_c, 2, 72, 127
4, 76740, Note_on_c, 2, 72, 0
4, 76752, Note_on_c, 2, 70, 127
4, 76788, Note_on_c, 2, 70, 0
4, 76800, Note_on_c, 2, 69, 127
4, 76836, Note_on_c, 2, 69, 0
4, 76848, Note_on_c, 2, 67, 127
4, 76884, Note_on_c, 2, 67, 0
4, 76896, Note_on_c, 2, 66, 127
4, 76932, Note_on_c, 2, 66, 0
4, 76944, Note_on_c, 2, 64, 127
4, 76980, Note_on_c, 2, 64, 0
4, 76992, Note_on_c, 2, 62, 127
4, 77028, Note_on_c, 2, 62, 0
4, 77040, Note_on_c, 2, 60, 127
4, 77076, Note_on_c, 2, 60, 0
4, 77088, Note_on_c, 2, 58, 127
4, 77124, Note_on_c, 2, 58, 0
4, 77136, Note_on_c, 2, 57, 127
4, 77172, Note_on_c, 2, 57, 0
4, 77184, Note_on_c, 2, 55, 127
4, 77220, Note_on_c, 2, 55, 0
4, 77232, Note_on_c, 2, 55, 127
4, 77268, Note_on_c, 2, 55, 0
4, 77280, Note_on_c, 2, 55, 127
4, 77316, Note_on_c, 2, 55, 0
4, 77328, Note_on_c, 2, 55, 127
4, 77364, Note_on_c, 2, 55, 0
4, 77376, Note_on_c, 2, 55, 127
4, 77412, Note_on_c, 2, 55, 0
4, 77424, Note_on_c, 2, 55, 127
4, 77460, Note_on_c, 2, 55, 0
4, 77472, Note_on_c, 2, 55, 127
4, 77508, Note_on_c, 2, 55, 0
4, 77520, Note_on_c, 2, 55, 127
4, 77556, Note_on_c, 2, 55, 0
4, 77568, Note_on_c, 2, 55, 127
4, 77604, Note_on_c, 2, 55, 0
4, 77616, Note_on_c, 2, 55, 127
4, 77652, Note_on_c, 2, 55, 0
4, 77664, Note_on_c, 2, 55, 127
4, 77700, Note_on_c, 2, 55, 0
4, 77712, Note_on_c, 2, 55, 127
4, 77748, Note_on_c, 2, 55, 0
4, 77760, Note_on_c, 2, 63, 127
4, 77796, Note_on_c, 2, 63, 0
4, 77808, Note_on_c, 2, 79, 127
4, 77844, Note_on_c, 2, 79, 0
4, 77856, Note_on_c, 2, 77, 127
4, 77892, Note_on_c, 2, 77, 0
4, 77904, Note_on_c, 2, 75, 127
4, 77940, Note_on_c, 2, 75, 0
4, 77952, Note_on_c, 2, 74, 127
4, 77988, Note_on_c, 2, 74, 0
4, 78000, Note_on_c, 2, 72, 127
4, 78036, Note_on_c, 2, 72, 0
4, 78048, Note_on_c, 2, 70, 127
4, 78084, Note_on_c, 2, 70, 0
4, 78096, Note_on_c, 2, 69, 127
4, 78132, Note_on_c, 2, 69, 0
4, 78144, Note_on_c, 2, 67, 127
4, 78180, Note_on_c, 2, 67, 0
4, 78192, Note_on_c, 2, 65, 127
4, 78228, Note_on_c, 2, 65, 0
4, 78240, Note_on_c, 2, 63, 127
4, 78276, Note_on_c, 2, 63, 0
4, 78288, Note_on_c, 2, 62, 127
4, 78324, Note_on_c, 2, 62, 0
4, 78336, Note_on_c, 2, 60, 127
4, 78372, Note_on_c, 2, 60, 0
4, 78384, Note_on_c, 2, 60, 127
4, 78420, Note_on_c, 2, 60, 0
4, 78432, Note_on_c, 2, 60, 127
4, 78468, Note_on_c, 2, 60, 0
4, 78480, Note_on_c, 2, 60, 127
4, 78516, Note_on_c, 2, 60, 0
4, 78528, Note_on_c, 2, 60, 127
4, 78564, Note_on_c, 2, 60, 0
4, 78576, Note_on_c, 2, 60, 127
4, 78612, Note_on_c, 2, 60, 0
4, 78624, Note_on_c, 2, 60, 127
4, 78660, Note_on_c, 2, 60, 0
4, 78672, Note_on_c, 2, 60, 127
4, 78708, Note_on_c, 2, 60, 0
4, 78720, Note_on_c, 2, 60, 127
4, 78756, Note_on_c, 2, 60, 0
4, 78768, Note_on_c, 2, 60, 127
4, 78804, Note_on_c, 2, 60, 0
4, 78816, Note_on_c, 2, 60, 127
4, 78852, Note_on_c, 2, 60, 0
4, 78864, Note_on_c, 2, 60, 127
4, 78900, Note_on_c, 2, 60, 0
4, 78912, Note_on_c, 2, 67, 127
4, 78948, Note_on_c, 2, 67, 0
4, 78960, Note_on_c, 2, 82, 127
4, 78996, Note_on_c, 2, 82, 0
4, 79008, Note_on_c, 2, 81, 127
4, 79044, Note_on_c, 2, 81, 0
4, 79056, Note_on_c, 2, 79, 127
4, 79092, Note_on_c, 2, 79, 0
4, 79104, Note_on_c, 2, 77, 127
4, 79140, Note_on_c, 2, 77, 0
4, 79152, Note_on_c, 2, 75, 127
4, 79188, Note_on_c, 2, 75, 0
4, 79200, Note_on_c, 2, 74, 127
4, 79236, Note_on_c, 2, 74, 0
4, 79248, Note_on_c, 2, 72, 127
4, 79284, Note_on_c, 2, 72, 0
4, 79296, Note_on_c, 2, 70, 127
4, 79332, Note_on_c, 2, 70, 0
4, 79344, Note_on_c, 2, 69, 127
4, 79380, Note_on_c, 2, 69, 0
4, 79392, Note_on_c, 2, 67, 127
4, 79428, Note_on_c, 2, 67, 0
4, 79440, Note_on_c, 2, 65, 127
4, 79476, Note_on_c, 2, 65, 0
4, 79488, Note_on_c, 2, 63, 127
4, 79524, Note_on_c, 2, 63, 0
4, 79536, Note_on_c, 2, 63, 127
4, 79572, Note_on_c, 2, 63, 0
4, 79584, Note_on_c, 2, 63, 127
4, 79620, Note_on_c, 2, 63, 0
4, 79632, Note_on_c, 2, 63, 127
4, 79668, Note_on_c, 2, 63, 0
4, 79680, Note_on_c, 2, 63, 127
4, 79716, Note_on_c, 2, 63, 0
4, 79728, Note_on_c, 2, 63, 127
4, 79764, Note_on_c, 2, 63, 0
4, 79776, Note_on_c, 2, 63, 127
4, 79812, Note_on_c, 2, 63, 0
4, 79824, Note_on_c, 2, 63, 127
4, 79860, Note_on_c, 2, 63, 0
4, 79872, Note_on_c, 2, 63, 127
4, 79908, Note_on_c, 2, 63, 0
4, 79920, Note_on_c, 2, 63, 127
4, 79956, Note_on_c, 2, 63, 0
4, 79968, Note_on_c, 2, 63, 127
4, 80004, Note_on_c, 2, 63, 0
4, 80016, Note_on_c, 2, 63, 127
4, 80052, Note_on_c, 2, 63, 0
4, 80064, Note_on_c, 2, 70, 127
4, 80100, Note_on_c, 2, 70, 0
4, 80112, Note_on_c, 2, 86, 127
4, 80148, Note_on_c, 2, 86, 0
4, 80160, Note_on_c, 2, 84, 127
4, 80196, Note_on_c, 2, 84, 0
4, 80208, Note_on_c, 2, 82, 127
4, 80244, Note_on_c, 2, 82, 0
4, 80256, Note_on_c, 2, 81, 127
4, 80292, Note_on_c, 2, 81, 0
4, 80304, Note_on_c, 2, 79, 127
4, 80340, Note_on_c, 2, 79, 0
4, 80352, Note_on_c, 2, 78, 127
4, 80388, Note_on_c, 2, 78, 0
4, 80400, Note_on_c, 2, 76, 127
4, 80436, Note_on_c, 2, 76, 0
4, 80448, Note_on_c, 2, 74, 127
4, 80484, Note_on_c, 2, 74, 0
4, 80496, Note_on_c, 2, 72, 127
4, 80532, Note_on_c, 2, 72, 0
4, 80544, Note_on_c, 2, 70, 127
4, 80580, Note_on_c, 2, 70, 0
4, 80592, Note_on_c, 2, 69, 127
4, 80628, Note_on_c, 2, 69, 0
4, 80640, Note_on_c, 2, 67, 127
4, 80832, Note_on_c, 2, 67, 0
4, 80832, Note_on_c, 2, 55, 127
4, 81024, Note_on_c, 2, 55, 0
4, 81024, Note_on_c, 2, 55, 127
4, 81216, Note_on_c, 2, 55, 0
4, 81216, Note_on_c, 2, 55, 127
4, 81408, Note_on_c, 2, 55, 0
4, 81408, Note_on_c, 2, 55, 127
4, 81600, Note_on_c, 2, 55, 0
4, 81600, Note_on_c, 2, 55, 127
4, 81792, Note_on_c, 2, 55, 0
4, 81792, Note_on_c, 2, 55, 127
4, 81984, Note_on_c, 2, 55, 0
4, 81984, Note_on_c, 2, 55, 127
4, 82176, Note_on_c, 2, 55, 0
4, 82176, Note_on_c, 2, 55, 127
4, 82368, Note_on_c, 2, 55, 0
4, 82368, Note_on_c, 2, 55, 127
4, 82560, Note_on_c, 2, 55, 0
4, 82560, Note_on_c, 2, 55, 127
4, 82752, Note_on_c, 2, 55, 0
4, 82752, Note_on_c, 2, 55, 127
4, 82944, Note_on_c, 2, 55, 0
4, 82944, Note_on_c, 2, 55, 127
4, 82992, Note_on_c, 2, 55, 0
4, 82992, Note_on_c, 2, 67, 127
4, 83028, Note_on_c, 2, 67, 0
4, 83040, Note_on_c, 2, 69, 127
4, 83076, Note_on_c, 2, 69, 0
4, 83088, Note_on_c, 2, 70, 127
4, 83124, Note_on_c, 2, 70, 0
4, 83136, Note_on_c, 2, 72, 127
4, 83172, Note_on_c, 2, 72, 0
4, 83184, Note_on_c, 2, 74, 127
4, 83220, Note_on_c, 2, 74, 0
4, 83232, Note_on_c, 2, 75, 127
4, 83268, Note_on_c, 2, 75, 0
4, 83280, Note_on_c, 2, 78, 127
4, 83316, Note_on_c, 2, 78, 0
4, 83328, Note_on_c, 2, 79, 127
4, 83364, Note_on_c, 2, 79, 0
4, 83376, Note_on_c, 2, 81, 127
4, 83412, Note_on_c, 2, 81, 0
4, 83424, Note_on_c, 2, 82, 127
4, 83460, Note_on_c, 2, 82, 0
4, 83472, Note_on_c, 2, 81, 127
4, 83508, Note_on_c, 2, 81, 0
4, 83520, Note_on_c, 2, 79, 127
4, 83556, Note_on_c, 2, 79, 0
4, 83568, Note_on_c, 2, 77, 127
4, 83604, Note_on_c, 2, 77, 0
4, 83616, Note_on_c, 2, 75, 127
4, 83652, Note_on_c, 2, 75, 0
4, 83664, Note_on_c, 2, 74, 127
4, 83700, Note_on_c, 2, 74, 0
4, 83712, Note_on_c, 2, 72, 127
4, 83748, Note_on_c, 2, 72, 0
4, 83760, Note_on_c, 2, 70, 127
4, 83796, Note_on_c, 2, 70, 0
4, 83808, Note_on_c, 2, 69, 127
4, 83844, Note_on_c, 2, 69, 0
4, 83856, Note_on_c, 2, 67, 127
4, 83892, Note_on_c, 2, 67, 0
4, 83904, Note_on_c, 2, 66, 127
4, 83940, Note_on_c, 2, 66, 0
4, 83952, Note_on_c, 2, 64, 127
4, 83988, Note_on_c, 2, 64, 0
4, 84000, Note_on_c, 2, 62, 127
4, 84036, Note_on_c, 2, 62, 0
4, 84048, Note_on_c, 2, 60, 127
4, 84084, Note_on_c, 2, 60, 0
4, 84096, Note_on_c, 2, 58, 127
4, 84132, Note_on_c, 2, 58, 0
4, 84144, Note_on_c, 2, 55, 127
4, 84180, Note_on_c, 2, 55, 0
4, 84192, Note_on_c, 2, 58, 127
4, 84228, Note_on_c, 2, 58, 0
4, 84240, Note_on_c, 2, 55, 127
4, 84276, Note_on_c, 2, 55, 0
4, 84288, Note_on_c, 2, 58, 127
4, 84324, Note_on_c, 2, 58, 0
4, 84336, Note_on_c, 2, 55, 127
4, 84372, Note_on_c, 2, 55, 0
4, 84384, Note_on_c, 2, 58, 127
4, 84420, Note_on_c, 2, 58, 0
4, 84432, Note_on_c, 2, 55, 127
4, 84468, Note_on_c, 2, 55, 0
4, 84480, Note_on_c, 2, 58, 127
4, 84516, Note_on_c, 2, 58, 0
4, 84528, Note_on_c, 2, 55, 127
4, 84564, Note_on_c, 2, 55, 0
4, 84576, Note_on_c, 2, 58, 127
4, 84612, Note_on_c, 2, 58, 0
4, 84624, Note_on_c, 2, 55, 127
4, 84660, Note_on_c, 2, 55, 0
4, 84672, Note_on_c, 2, 62, 127
4, 84864, Note_on_c, 2, 62, 0
4, 86976, Note_on_c, 2, 62, 127
4, 87012, Note_on_c, 2, 62, 0
4, 87024, Note_on_c, 2, 62, 127
4, 87060, Note_on_c, 2, 62, 0
4, 87072, Note_on_c, 2, 62, 127
4, 87108, Note_on_c, 2, 62, 0
4, 87120, Note_on_c, 2, 62, 127
4, 87156, Note_on_c, 2, 62, 0
4, 87168, Note_on_c, 2, 62, 127
4, 87204, Note_on_c, 2, 62, 0
4, 87216, Note_on_c, 2, 62, 127
4, 87252, Note_on_c, 2, 62, 0
4, 87264, Note_on_c, 2, 62, 127
4, 87300, Note_on_c, 2, 62, 0
4, 87312, Note_on_c, 2, 62, 127
4, 87348, Note_on_c, 2, 62, 0
4, 87360, Note_on_c, 2, 62, 127
4, 87396, Note_on_c, 2, 62, 0
4, 87408, Note_on_c, 2, 62, 127
4, 87444, Note_on_c, 2, 62, 0
4, 87456, Note_on_c, 2, 62, 127
4, 87492, Note_on_c, 2, 62, 0
4, 87504, Note_on_c, 2, 62, 127
4, 87540, Note_on_c, 2, 62, 0
4, 87552, Note_on_c, 2, 67, 127
4, 87588, Note_on_c, 2, 67, 0
4, 87600, Note_on_c, 2, 62, 127
4, 87636, Note_on_c, 2, 62, 0
4, 87648, Note_on_c, 2, 58, 127
4, 87684, Note_on_c, 2, 58, 0
4, 87696, Note_on_c, 2, 55, 127
4, 87732, Note_on_c, 2, 55, 0
4, 87744, Note_on_c, 2, 67, 127
4, 87780, Note_on_c, 2, 67, 0
4, 87792, Note_on_c, 2, 62, 127
4, 87828, Note_on_c, 2, 62, 0
4, 87840, Note_on_c, 2, 58, 127
4, 87876, Note_on_c, 2, 58, 0
4, 87888, Note_on_c, 2, 55, 127
4, 87924, Note_on_c, 2, 55, 0
4, 87936, Note_on_c, 2, 67, 127
4, 87972, Note_on_c, 2, 67, 0
4, 87984, Note_on_c, 2, 62, 127
4, 88020, Note_on_c, 2, 62, 0
4, 88032, Note_on_c, 2, 58, 127
4, 88068, Note_on_c, 2, 58, 0
4, 88080, Note_on_c, 2, 55, 127
4, 88116, Note_on_c, 2, 55, 0
4, 88128, Note_on_c, 2, 57, 127
4, 88164, Note_on_c, 2, 57, 0
4, 88176, Note_on_c, 2, 57, 127
4, 88212, Note_on_c, 2, 57, 0
4, 88224, Note_on_c, 2, 57, 127
4, 88260, Note_on_c, 2, 57, 0
4, 88272, Note_on_c, 2, 57, 127
4, 88308, Note_on_c, 2, 57, 0
4, 88320, Note_on_c, 2, 57, 127
4, 88356, Note_on_c, 2, 57, 0
4, 88368, Note_on_c, 2, 57, 127
4, 88404, Note_on_c, 2, 57, 0
4, 88416, Note_on_c, 2, 57, 127
4, 88452, Note_on_c, 2, 57, 0
4, 88464, Note_on_c, 2, 57, 127
4, 88500, Note_on_c, 2, 57, 0
4, 88512, Note_on_c, 2, 57, 127
4, 88548, Note_on_c, 2, 57, 0
4, 88560, Note_on_c, 2, 57, 127
4, 88596, Note_on_c, 2, 57, 0
4, 88608, Note_on_c, 2, 57, 127
4, 88644, Note_on_c, 2, 57, 0
4, 88656, Note_on_c, 2, 57, 127
4, 88692, Note_on_c, 2, 57, 0
4, 88704, Note_on_c, 2, 57, 127
4, 88740, Note_on_c, 2, 57, 0
4, 88752, Note_on_c, 2, 57, 127
4, 88788, Note_on_c, 2, 57, 0
4, 88800, Note_on_c, 2, 57, 127
4, 88836, Note_on_c, 2, 57, 0
4, 88848, Note_on_c, 2, 57, 127
4, 88884, Note_on_c, 2, 57, 0
4, 88896, Note_on_c, 2, 57, 127
4, 88932, Note_on_c, 2, 57, 0
4, 88944, Note_on_c, 2, 57, 127
4, 88980, Note_on_c, 2, 57, 0
4, 88992, Note_on_c, 2, 57, 127
4, 89028, Note_on_c, 2, 57, 0
4, 89040, Note_on_c, 2, 57, 127
4, 89076, Note_on_c, 2, 57, 0
4, 89088, Note_on_c, 2, 57, 127
4, 89124, Note_on_c, 2, 57, 0
4, 89136, Note_on_c, 2, 57, 127
4, 89172, Note_on_c, 2, 57, 0
4, 89184, Note_on_c, 2, 57, 127
4, 89220, Note_on_c, 2, 57, 0
4, 89232, Note_on_c, 2, 57, 127
4, 89268, Note_on_c, 2, 57, 0
4, 89280, Note_on_c, 2, 67, 127
4, 89316, Note_on_c, 2, 67, 0
4, 89328, Note_on_c, 2, 62, 127
4, 89364, Note_on_c, 2, 62, 0
4, 89376, Note_on_c, 2, 58, 127
4, 89412, Note_on_c, 2, 58, 0
4, 89424, Note_on_c, 2, 55, 127
4, 89460, Note_on_c, 2, 55, 0
4, 89472, Note_on_c, 2, 67, 127
4, 89508, Note_on_c, 2, 67, 0
4, 89520, Note_on_c, 2, 62, 127
4, 89556, Note_on_c, 2, 62, 0
4, 89568, Note_on_c, 2, 58, 127
4, 89604, Note_on_c, 2, 58, 0
4, 89616, Note_on_c, 2, 55, 127
4, 89652, Note_on_c, 2, 55, 0
4, 89664, Note_on_c, 2, 67, 127
4, 89700, Note_on_c, 2, 67, 0
4, 89712, Note_on_c, 2, 62, 127
4, 89748, Note_on_c, 2, 62, 0
4, 89760, Note_on_c, 2, 58, 127
4, 89796, Note_on_c, 2, 58, 0
4, 89808, Note_on_c, 2, 55, 127
4, 89844, Note_on_c, 2, 55, 0
4, 89856, Note_on_c, 2, 57, 127
4, 89892, Note_on_c, 2, 57, 0
4, 89904, Note_on_c, 2, 57, 127
4, 89940, Note_on_c, 2, 57, 0
4, 89952, Note_on_c, 2, 57, 127
4, 89988, Note_on_c, 2, 57, 0
4, 90000, Note_on_c, 2, 57, 127
4, 90036, Note_on_c, 2, 57, 0
4, 90048, Note_on_c, 2, 57, 127
4, 90084, Note_on_c, 2, 57, 0
4, 90096, Note_on_c, 2, 57, 127
4, 90132, Note_on_c, 2, 57, 0
4, 90144, Note_on_c, 2, 57, 127
4, 90180, Note_on_c, 2, 57, 0
4, 90192, Note_on_c, 2, 57, 127
4, 90228, Note_on_c, 2, 57, 0
4, 90240, Note_on_c, 2, 57, 127
4, 90276, Note_on_c, 2, 57, 0
4, 90288, Note_on_c, 2, 57, 127
4, 90324, Note_on_c, 2, 57, 0
4, 90336, Note_on_c, 2, 57, 127
4, 90372, Note_on_c, 2, 57, 0
4, 90384, Note_on_c, 2, 57, 127
4, 90420, Note_on_c, 2, 57, 0
4, 90432, Note_on_c, 2, 57, 127
4, 90468, Note_on_c, 2, 57, 0
4, 90480, Note_on_c, 2, 57, 127
4, 90516, Note_on_c, 2, 57, 0
4, 90528, Note_on_c, 2, 57, 127
4, 90564, Note_on_c, 2, 57, 0
4, 90576, Note_on_c, 2, 57, 127
4, 90612, Note_on_c, 2, 57, 0
4, 90624, Note_on_c, 2, 57, 127
4, 90660, Note_on_c, 2, 57, 0
4, 90672, Note_on_c, 2, 57, 127
4, 90708, Note_on_c, 2, 57, 0
4, 90720, Note_on_c, 2, 57, 127
4, 90756, Note_on_c, 2, 57, 0
4, 90768, Note_on_c, 2, 57, 127
4, 90804, Note_on_c, 2, 57, 0
4, 90816, Note_on_c, 2, 57, 127
4, 90852, Note_on_c, 2, 57, 0
4, 90864, Note_on_c, 2, 57, 127
4, 90900, Note_on_c, 2, 57, 0
4, 90912, Note_on_c, 2, 57, 127
4, 90948, Note_on_c, 2, 57, 0
4, 90960, Note_on_c, 2, 57, 127
4, 90996, Note_on_c, 2, 57, 0
4, 91008, Note_on_c, 2, 58, 127
4, 91044, Note_on_c, 2, 58, 0
4, 91056, Note_on_c, 2, 62, 127
4, 91092, Note_on_c, 2, 62, 0
4, 91104, Note_on_c, 2, 62, 127
4, 91140, Note_on_c, 2, 62, 0
4, 91152, Note_on_c, 2, 62, 127
4, 91188, Note_on_c, 2, 62, 0
4, 91200, Note_on_c, 2, 67, 127
4, 91236, Note_on_c, 2, 67, 0
4, 91248, Note_on_c, 2, 67, 127
4, 91284, Note_on_c, 2, 67, 0
4, 91296, Note_on_c, 2, 67, 127
4, 91332, Note_on_c, 2, 67, 0
4, 91344, Note_on_c, 2, 67, 127
4, 91380, Note_on_c, 2, 67, 0
4, 91392, Note_on_c, 2, 70, 127
4, 91428, Note_on_c, 2, 70, 0
4, 91440, Note_on_c, 2, 70, 127
4, 91476, Note_on_c, 2, 70, 0
4, 91488, Note_on_c, 2, 70, 127
4, 91524, Note_on_c, 2, 70, 0
4, 91536, Note_on_c, 2, 70, 127
4, 91572, Note_on_c, 2, 70, 0
4, 91584, Note_on_c, 2, 74, 127
4, 91620, Note_on_c, 2, 74, 0
4, 91632, Note_on_c, 2, 74, 127
4, 91668, Note_on_c, 2, 74, 0
4, 91680, Note_on_c, 2, 74, 127
4, 91716, Note_on_c, 2, 74, 0
4, 91728, Note_on_c, 2, 74, 127
4, 91764, Note_on_c, 2, 74, 0
4, 91776, Note_on_c, 2, 79, 127
4, 91812, Note_on_c, 2, 79, 0
4, 91824, Note_on_c, 2, 79, 127
4, 91860, Note_on_c, 2, 79, 0
4, 91872, Note_on_c, 2, 79, 127
4, 91908, Note_on_c, 2, 79, 0
4, 91920, Note_on_c, 2, 79, 127
4, 91956, Note_on_c, 2, 79, 0
4, 91968, Note_on_c, 2, 82, 127
4, 92004, Note_on_c, 2, 82, 0
4, 92016, Note_on_c, 2, 82, 127
4, 92052, Note_on_c, 2, 82, 0
4, 92064, Note_on_c, 2, 82, 127
4, 92100, Note_on_c, 2, 82, 0
4, 92112, Note_on_c, 2, 82, 127
4, 92148, Note_on_c, 2, 82, 0
4, 92160, Note_on_c, 2, 79, 127
4, 92196, Note_on_c, 2, 79, 0
4, 92208, Note_on_c, 2, 79, 127
4, 92244, Note_on_c, 2, 79, 0
4, 92256, Note_on_c, 2, 79, 127
4, 92292, Note_on_c, 2, 79, 0
4, 92304, Note_on_c, 2, 79, 127
4, 92340, Note_on_c, 2, 79, 0
4, 92352, Note_on_c, 2, 74, 127
4, 92388, Note_on_c, 2, 74, 0
4, 92400, Note_on_c, 2, 74, 127
4, 92436, Note_on_c, 2, 74, 0
4, 92448, Note_on_c, 2, 74, 127
4, 92484, Note_on_c, 2, 74, 0
4, 92496, Note_on_c, 2, 74, 127
4, 92532, Note_on_c, 2, 74, 0
4, 92544, Note_on_c, 2, 70, 127
4, 92580, Note_on_c, 2, 70, 0
4, 92592, Note_on_c, 2, 70, 127
4, 92628, Note_on_c, 2, 70, 0
4, 92640, Note_on_c, 2, 70, 127
4, 92676, Note_on_c, 2, 70, 0
4, 92688, Note_on_c, 2, 70, 127
4, 92724, Note_on_c, 2, 70, 0
4, 92928, Note_on_c, 2, 55, 127
4, 93312, Note_on_c, 2, 55, 0
4, 93312, End_track
5, 0, Start_track
5, 0, MIDI_port, 0
5, 0, Title_t, "Viola Ensemble      "
5, 0, Program_c, 3, 48
5, 0, Control_c, 3, 7, 60
5, 0, Control_c, 3, 10, 34
5, 1920, Note_on_c, 3, 55, 127
5, 1920, Control_c, 3, 7, 127
5, 2016, Note_on_c, 3, 55, 0
5, 2016, Note_on_c, 3, 55, 127
5, 2064, Note_on_c, 3, 55, 0
5, 2064, Note_on_c, 3, 55, 127
5, 2112, Note_on_c, 3, 55, 0
5, 2112, Note_on_c, 3, 55, 127
5, 2160, Note_on_c, 3, 55, 0
5, 2160, Note_on_c, 3, 55, 127
5, 2208, Note_on_c, 3, 55, 0
5, 2208, Note_on_c, 3, 55, 127
5, 2256, Note_on_c, 3, 55, 0
5, 2256, Note_on_c, 3, 55, 127
5, 2304, Note_on_c, 3, 55, 0
5, 2304, Note_on_c, 3, 55, 127
5, 2352, Note_on_c, 3, 55, 0
5, 2352, Note_on_c, 3, 55, 127
5, 2400, Note_on_c, 3, 55, 0
5, 2400, Note_on_c, 3, 55, 127
5, 2448, Note_on_c, 3, 55, 0
5, 2448, Note_on_c, 3, 55, 127
5, 2496, Note_on_c, 3, 55, 0
5, 2496, Note_on_c, 3, 55, 127
5, 2544, Note_on_c, 3, 55, 0
5, 2544, Note_on_c, 3, 55, 127
5, 2592, Note_on_c, 3, 55, 0
5, 2592, Note_on_c, 3, 55, 127
5, 2640, Note_on_c, 3, 55, 0
5, 2640, Note_on_c, 3, 55, 127
5, 2688, Note_on_c, 3, 55, 0
5, 2688, Note_on_c, 3, 55, 127
5, 2880, Note_on_c, 3, 55, 0
5, 5760, Control_c, 3, 7, 127
5, 5760, Note_on_c, 3, 58, 127
5, 5856, Note_on_c, 3, 58, 0
5, 5856, Note_on_c, 3, 58, 127
5, 5904, Note_on_c, 3, 58, 0
5, 5904, Note_on_c, 3, 58, 127
5, 5952, Note_on_c, 3, 58, 0
5, 5952, Note_on_c, 3, 58, 127
5, 6000, Note_on_c, 3, 58, 0
5, 6000, Note_on_c, 3, 58, 127
5, 6048, Note_on_c, 3, 58, 0
5, 6048, Note_on_c, 3, 58, 127
5, 6096, Note_on_c, 3, 58, 0
5, 6096, Note_on_c, 3, 58, 127
5, 6144, Note_on_c, 3, 58, 0
5, 6144, Note_on_c, 3, 58, 127
5, 6192, Note_on_c, 3, 58, 0
5, 6192, Note_on_c, 3, 58, 127
5, 6240, Note_on_c, 3, 58, 0
5, 6240, Note_on_c, 3, 58, 127
5, 6288, Note_on_c, 3, 58, 0
5, 6288, Note_on_c, 3, 58, 127
5, 6336, Note_on_c, 3, 58, 0
5, 6336, Note_on_c, 3, 58, 127
5, 6384, Note_on_c, 3, 58, 0
5, 6384, Note_on_c, 3, 58, 127
5, 6432, Note_on_c, 3, 58, 0
5, 6432, Note_on_c, 3, 58, 127
5, 6480, Note_on_c, 3, 58, 0
5, 6480, Note_on_c, 3, 58, 127
5, 6528, Note_on_c, 3, 58, 0
5, 6528, Note_on_c, 3, 58, 127
5, 6720, Note_on_c, 3, 58, 0
5, 11520, Control_c, 3, 7, 127
5, 11520, Note_on_c, 3, 55, 127
5, 11616, Note_on_c, 3, 55, 0
5, 11616, Note_on_c, 3, 55, 127
5, 11648, Note_on_c, 3, 55, 0
5, 11664, Note_on_c, 3, 55, 127
5, 11696, Note_on_c, 3, 55, 0
5, 11712, Note_on_c, 3, 55, 127
5, 11744, Note_on_c, 3, 55, 0
5, 11760, Note_on_c, 3, 55, 127
5, 11792, Note_on_c, 3, 55, 0
5, 11808, Note_on_c, 3, 55, 127
5, 11840, Note_on_c, 3, 55, 0
5, 11856, Note_on_c, 3, 55, 127
5, 11888, Note_on_c, 3, 55, 0
5, 11904, Note_on_c, 3, 55, 127
5, 11936, Note_on_c, 3, 55, 0
5, 11952, Note_on_c, 3, 55, 127
5, 11984, Note_on_c, 3, 55, 0
5, 12000, Note_on_c, 3, 55, 127
5, 12032, Note_on_c, 3, 55, 0
5, 12048, Note_on_c, 3, 55, 127
5, 12080, Note_on_c, 3, 55, 0
5, 12096, Note_on_c, 3, 55, 127
5, 12128, Note_on_c, 3, 55, 0
5, 12144, Note_on_c, 3, 55, 127
5, 12176, Note_on_c, 3, 55, 0
5, 12192, Note_on_c, 3, 55, 127
5, 12224, Note_on_c, 3, 55, 0
5, 12240, Note_on_c, 3, 55, 127
5, 12272, Note_on_c, 3, 55, 0
5, 12288, Note_on_c, 3, 55, 127
5, 12480, Note_on_c, 3, 55, 0
5, 14592, Control_c, 3, 7, 127
5, 14592, Note_on_c, 3, 55, 127
5, 14688, Note_on_c, 3, 55, 0
5, 14688, Note_on_c, 3, 55, 127
5, 14720, Note_on_c, 3, 55, 0
5, 14736, Note_on_c, 3, 55, 127
5, 14768, Note_on_c, 3, 55, 0
5, 14784, Note_on_c, 3, 55, 127
5, 14816, Note_on_c, 3, 55, 0
5, 14832, Note_on_c, 3, 55, 127
5, 14864, Note_on_c, 3, 55, 0
5, 14880, Note_on_c, 3, 55, 127
5, 14912, Note_on_c, 3, 55, 0
5, 14928, Note_on_c, 3, 55, 127
5, 14960, Note_on_c, 3, 55, 0
5, 14976, Note_on_c, 3, 55, 127
5, 15008, Note_on_c, 3, 55, 0
5, 15024, Note_on_c, 3, 55, 127
5, 15056, Note_on_c, 3, 55, 0
5, 15072, Note_on_c, 3, 55, 127
5, 15104, Note_on_c, 3, 55, 0
5, 15120, Note_on_c, 3, 55, 127
5, 15152, Note_on_c, 3, 55, 0
5, 15168, Note_on_c, 3, 55, 127
5, 15200, Note_on_c, 3, 55, 0
5, 15216, Note_on_c, 3, 55, 127
5, 15248, Note_on_c, 3, 55, 0
5, 15264, Note_on_c, 3, 55, 127
5, 15296, Note_on_c, 3, 55, 0
5, 15312, Note_on_c, 3, 55, 127
5, 15344, Note_on_c, 3, 55, 0
5, 15360, Note_on_c, 3, 55, 127
5, 15552, Note_on_c, 3, 55, 0
5, 15720, Control_c, 3, 7, 60
5, 17688, Control_c, 3, 7, 100
5, 18432, Note_on_c, 3, 67, 120
5, 18468, Note_on_c, 3, 67, 0
5, 18480, Note_on_c, 3, 55, 120
5, 18516, Note_on_c, 3, 55, 0
5, 18528, Note_on_c, 3, 55, 120
5, 18564, Note_on_c, 3, 55, 0
5, 18576, Note_on_c, 3, 55, 120
5, 18612, Note_on_c, 3, 55, 0
5, 18624, Note_on_c, 3, 55, 120
5, 18660, Note_on_c, 3, 55, 0
5, 18672, Note_on_c, 3, 55, 120
5, 18708, Note_on_c, 3, 55, 0
5, 18720, Note_on_c, 3, 55, 120
5, 18756, Note_on_c, 3, 55, 0
5, 18768, Note_on_c, 3, 55, 120
5, 18804, Note_on_c, 3, 55, 0
5, 18816, Note_on_c, 3, 55, 120
5, 18852, Note_on_c, 3, 55, 0
5, 18864, Note_on_c, 3, 55, 120
5, 18900, Note_on_c, 3, 55, 0
5, 18912, Note_on_c, 3, 55, 120
5, 18948, Note_on_c, 3, 55, 0
5, 18960, Note_on_c, 3, 55, 120
5, 18996, Note_on_c, 3, 55, 0
5, 19008, Note_on_c, 3, 65, 120
5, 19044, Note_on_c, 3, 65, 0
5, 19056, Note_on_c, 3, 55, 120
5, 19092, Note_on_c, 3, 55, 0
5, 19104, Note_on_c, 3, 55, 120
5, 19140, Note_on_c, 3, 55, 0
5, 19152, Note_on_c, 3, 55, 120
5, 19188, Note_on_c, 3, 55, 0
5, 19200, Note_on_c, 3, 55, 120
5, 19236, Note_on_c, 3, 55, 0
5, 19248, Note_on_c, 3, 55, 120
5, 19284, Note_on_c, 3, 55, 0
5, 19296, Note_on_c, 3, 55, 120
5, 19332, Note_on_c, 3, 55, 0
5, 19344, Note_on_c, 3, 55, 120
5, 19380, Note_on_c, 3, 55, 0
5, 19392, Note_on_c, 3, 55, 120
5, 19428, Note_on_c, 3, 55, 0
5, 19440, Note_on_c, 3, 55, 120
5, 19476, Note_on_c, 3, 55, 0
5, 19488, Note_on_c, 3, 55, 120
5, 19524, Note_on_c, 3, 55, 0
5, 19536, Note_on_c, 3, 55, 120
5, 19572, Note_on_c, 3, 55, 0
5, 19584, Note_on_c, 3, 63, 120
5, 19620, Note_on_c, 3, 63, 0
5, 19632, Note_on_c, 3, 55, 120
5, 19668, Note_on_c, 3, 55, 0
5, 19680, Note_on_c, 3, 55, 120
5, 19716, Note_on_c, 3, 55, 0
5, 19728, Note_on_c, 3, 55, 120
5, 19764, Note_on_c, 3, 55, 0
5, 19776, Note_on_c, 3, 55, 120
5, 19812, Note_on_c, 3, 55, 0
5, 19824, Note_on_c, 3, 55, 120
5, 19860, Note_on_c, 3, 55, 0
5, 19872, Note_on_c, 3, 55, 120
5, 19908, Note_on_c, 3, 55, 0
5, 19920, Note_on_c, 3, 55, 120
5, 19956, Note_on_c, 3, 55, 0
5, 19968, Note_on_c, 3, 55, 120
5, 20004, Note_on_c, 3, 55, 0
5, 20016, Note_on_c, 3, 55, 120
5, 20052, Note_on_c, 3, 55, 0
5, 20064, Note_on_c, 3, 55, 120
5, 20100, Note_on_c, 3, 55, 0
5, 20112, Note_on_c, 3, 55, 120
5, 20148, Note_on_c, 3, 55, 0
5, 20160, Note_on_c, 3, 62, 120
5, 20196, Note_on_c, 3, 62, 0
5, 20208, Note_on_c, 3, 55, 120
5, 20244, Note_on_c, 3, 55, 0
5, 20256, Note_on_c, 3, 55, 120
5, 20292, Note_on_c, 3, 55, 0
5, 20304, Note_on_c, 3, 55, 120
5, 20340, Note_on_c, 3, 55, 0
5, 20352, Note_on_c, 3, 55, 120
5, 20388, Note_on_c, 3, 55, 0
5, 20400, Note_on_c, 3, 55, 120
5, 20436, Note_on_c, 3, 55, 0
5, 20448, Note_on_c, 3, 55, 120
5, 20484, Note_on_c, 3, 55, 0
5, 20496, Note_on_c, 3, 55, 120
5, 20532, Note_on_c, 3, 55, 0
5, 20544, Note_on_c, 3, 55, 120
5, 20580, Note_on_c, 3, 55, 0
5, 21312, Note_on_c, 3, 74, 120
5, 21348, Note_on_c, 3, 74, 0
5, 21360, Note_on_c, 3, 62, 120
5, 21396, Note_on_c, 3, 62, 0
5, 21408, Note_on_c, 3, 62, 120
5, 21444, Note_on_c, 3, 62, 0
5, 21456, Note_on_c, 3, 62, 120
5, 21492, Note_on_c, 3, 62, 0
5, 21504, Note_on_c, 3, 62, 120
5, 21540, Note_on_c, 3, 62, 0
5, 21552, Note_on_c, 3, 62, 120
5, 21588, Note_on_c, 3, 62, 0
5, 21600, Note_on_c, 3, 62, 120
5, 21636, Note_on_c, 3, 62, 0
5, 21648, Note_on_c, 3, 62, 120
5, 21684, Note_on_c, 3, 62, 0
5, 21696, Note_on_c, 3, 62, 120
5, 21732, Note_on_c, 3, 62, 0
5, 21744, Note_on_c, 3, 62, 120
5, 21780, Note_on_c, 3, 62, 0
5, 21792, Note_on_c, 3, 62, 120
5, 21828, Note_on_c, 3, 62, 0
5, 21840, Note_on_c, 3, 62, 120
5, 21876, Note_on_c, 3, 62, 0
5, 21888, Note_on_c, 3, 72, 120
5, 21924, Note_on_c, 3, 72, 0
5, 21936, Note_on_c, 3, 62, 120
5, 21972, Note_on_c, 3, 62, 0
5, 21984, Note_on_c, 3, 62, 120
5, 22020, Note_on_c, 3, 62, 0
5, 22032, Note_on_c, 3, 62, 120
5, 22068, Note_on_c, 3, 62, 0
5, 22080, Note_on_c, 3, 62, 120
5, 22116, Note_on_c, 3, 62, 0
5, 22128, Note_on_c, 3, 62, 120
5, 22164, Note_on_c, 3, 62, 0
5, 22176, Note_on_c, 3, 62, 120
5, 22212, Note_on_c, 3, 62, 0
5, 22224, Note_on_c, 3, 62, 120
5, 22260, Note_on_c, 3, 62, 0
5, 22272, Note_on_c, 3, 62, 120
5, 22308, Note_on_c, 3, 62, 0
5, 22320, Note_on_c, 3, 62, 120
5, 22356, Note_on_c, 3, 62, 0
5, 22368, Note_on_c, 3, 62, 120
5, 22404, Note_on_c, 3, 62, 0
5, 22416, Note_on_c, 3, 62, 120
5, 22452, Note_on_c, 3, 62, 0
5, 22464, Note_on_c, 3, 70, 120
5, 22500, Note_on_c, 3, 70, 0
5, 22512, Note_on_c, 3, 62, 120
5, 22548, Note_on_c, 3, 62, 0
5, 22560, Note_on_c, 3, 62, 120
5, 22596, Note_on_c, 3, 62, 0
5, 22608, Note_on_c, 3, 62, 120
5, 22644, Note_on_c, 3, 62, 0
5, 22656, Note_on_c, 3, 62, 120
5, 22692, Note_on_c, 3, 62, 0
5, 22704, Note_on_c, 3, 62, 120
5, 22740, Note_on_c, 3, 62, 0
5, 22752, Note_on_c, 3, 62, 120
5, 22788, Note_on_c, 3, 62, 0
5, 22800, Note_on_c, 3, 62, 120
5, 22836, Note_on_c, 3, 62, 0
5, 22848, Note_on_c, 3, 62, 120
5, 22884, Note_on_c, 3, 62, 0
5, 22896, Note_on_c, 3, 62, 120
5, 22932, Note_on_c, 3, 62, 0
5, 22944, Note_on_c, 3, 62, 120
5, 22980, Note_on_c, 3, 62, 0
5, 22992, Note_on_c, 3, 62, 120
5, 23028, Note_on_c, 3, 62, 0
5, 23040, Note_on_c, 3, 69, 120
5, 23076, Note_on_c, 3, 69, 0
5, 23088, Note_on_c, 3, 62, 120
5, 23124, Note_on_c, 3, 62, 0
5, 23136, Note_on_c, 3, 62, 120
5, 23172, Note_on_c, 3, 62, 0
5, 23184, Note_on_c, 3, 62, 120
5, 23220, Note_on_c, 3, 62, 0
5, 23232, Note_on_c, 3, 62, 120
5, 23268, Note_on_c, 3, 62, 0
5, 23280, Note_on_c, 3, 62, 120
5, 23316, Note_on_c, 3, 62, 0
5, 23328, Note_on_c, 3, 62, 120
5, 23364, Note_on_c, 3, 62, 0
5, 23376, Note_on_c, 3, 62, 120
5, 23412, Note_on_c, 3, 62, 0
5, 23424, Note_on_c, 3, 62, 120
5, 23460, Note_on_c, 3, 62, 0
5, 24192, Note_on_c, 3, 55, 120
5, 24228, Note_on_c, 3, 55, 0
5, 24240, Note_on_c, 3, 55, 120
5, 24276, Note_on_c, 3, 55, 0
5, 24288, Note_on_c, 3, 55, 120
5, 24324, Note_on_c, 3, 55, 0
5, 24336, Note_on_c, 3, 55, 120
5, 24372, Note_on_c, 3, 55, 0
5, 24384, Note_on_c, 3, 55, 120
5, 24420, Note_on_c, 3, 55, 0
5, 24432, Note_on_c, 3, 55, 120
5, 24468, Note_on_c, 3, 55, 0
5, 24480, Note_on_c, 3, 55, 120
5, 24516, Note_on_c, 3, 55, 0
5, 24528, Note_on_c, 3, 55, 120
5, 24564, Note_on_c, 3, 55, 0
5, 24576, Note_on_c, 3, 55, 120
5, 24612, Note_on_c, 3, 55, 0
5, 24624, Note_on_c, 3, 55, 120
5, 24660, Note_on_c, 3, 55, 0
5, 24672, Note_on_c, 3, 55, 120
5, 24708, Note_on_c, 3, 55, 0
5, 24720, Note_on_c, 3, 55, 120
5, 24756, Note_on_c, 3, 55, 0
5, 24768, Note_on_c, 3, 55, 120
5, 24804, Note_on_c, 3, 55, 0
5, 24816, Note_on_c, 3, 55, 120
5, 24852, Note_on_c, 3, 55, 0
5, 24864, Note_on_c, 3, 55, 120
5, 24900, Note_on_c, 3, 55, 0
5, 24912, Note_on_c, 3, 55, 120
5, 24948, Note_on_c, 3, 55, 0
5, 24960, Note_on_c, 3, 55, 120
5, 24996, Note_on_c, 3, 55, 0
5, 25008, Note_on_c, 3, 55, 120
5, 25044, Note_on_c, 3, 55, 0
5, 25056, Note_on_c, 3, 55, 120
5, 25092, Note_on_c, 3, 55, 0
5, 25104, Note_on_c, 3, 55, 120
5, 25140, Note_on_c, 3, 55, 0
5, 25152, Note_on_c, 3, 55, 120
5, 25188, Note_on_c, 3, 55, 0
5, 25200, Note_on_c, 3, 55, 120
5, 25236, Note_on_c, 3, 55, 0
5, 25248, Note_on_c, 3, 55, 120
5, 25284, Note_on_c, 3, 55, 0
5, 25296, Note_on_c, 3, 55, 120
5, 25332, Note_on_c, 3, 55, 0
5, 25344, Note_on_c, 3, 60, 120
5, 25380, Note_on_c, 3, 60, 0
5, 25392, Note_on_c, 3, 60, 120
5, 25428, Note_on_c, 3, 60, 0
5, 25440, Note_on_c, 3, 60, 120
5, 25476, Note_on_c, 3, 60, 0
5, 25488, Note_on_c, 3, 60, 120
5, 25524, Note_on_c, 3, 60, 0
5, 25536, Note_on_c, 3, 60, 120
5, 25572, Note_on_c, 3, 60, 0
5, 25584, Note_on_c, 3, 60, 120
5, 25620, Note_on_c, 3, 60, 0
5, 25632, Note_on_c, 3, 60, 120
5, 25668, Note_on_c, 3, 60, 0
5, 25680, Note_on_c, 3, 60, 120
5, 25716, Note_on_c, 3, 60, 0
5, 25728, Note_on_c, 3, 60, 120
5, 25764, Note_on_c, 3, 60, 0
5, 25776, Note_on_c, 3, 60, 120
5, 25812, Note_on_c, 3, 60, 0
5, 25824, Note_on_c, 3, 60, 120
5, 25860, Note_on_c, 3, 60, 0
5, 25872, Note_on_c, 3, 60, 120
5, 25908, Note_on_c, 3, 60, 0
5, 25920, Note_on_c, 3, 60, 120
5, 25956, Note_on_c, 3, 60, 0
5, 25968, Note_on_c, 3, 60, 120
5, 26004, Note_on_c, 3, 60, 0
5, 26016, Note_on_c, 3, 60, 120
5, 26052, Note_on_c, 3, 60, 0
5, 26064, Note_on_c, 3, 60, 120
5, 26100, Note_on_c, 3, 60, 0
5, 26112, Note_on_c, 3, 60, 120
5, 26148, Note_on_c, 3, 60, 0
5, 26160, Note_on_c, 3, 60, 120
5, 26196, Note_on_c, 3, 60, 0
5, 26208, Note_on_c, 3, 60, 120
5, 26244, Note_on_c, 3, 60, 0
5, 26256, Note_on_c, 3, 60, 120
5, 26292, Note_on_c, 3, 60, 0
5, 26304, Note_on_c, 3, 60, 120
5, 26340, Note_on_c, 3, 60, 0
5, 26352, Note_on_c, 3, 60, 120
5, 26388, Note_on_c, 3, 60, 0
5, 26400, Note_on_c, 3, 60, 120
5, 26436, Note_on_c, 3, 60, 0
5, 26448, Note_on_c, 3, 60, 120
5, 26484, Note_on_c, 3, 60, 0
5, 26496, Note_on_c, 3, 63, 120
5, 26532, Note_on_c, 3, 63, 0
5, 26544, Note_on_c, 3, 63, 120
5, 26580, Note_on_c, 3, 63, 0
5, 26592, Note_on_c, 3, 63, 120
5, 26628, Note_on_c, 3, 63, 0
5, 26640, Note_on_c, 3, 63, 120
5, 26676, Note_on_c, 3, 63, 0
5, 26688, Note_on_c, 3, 63, 120
5, 26724, Note_on_c, 3, 63, 0
5, 26736, Note_on_c, 3, 63, 120
5, 26772, Note_on_c, 3, 63, 0
5, 26784, Note_on_c, 3, 63, 120
5, 26820, Note_on_c, 3, 63, 0
5, 26832, Note_on_c, 3, 63, 120
5, 26868, Note_on_c, 3, 63, 0
5, 26880, Note_on_c, 3, 63, 120
5, 26916, Note_on_c, 3, 63, 0
5, 26928, Note_on_c, 3, 63, 120
5, 26964, Note_on_c, 3, 63, 0
5, 26976, Note_on_c, 3, 63, 120
5, 27012, Note_on_c, 3, 63, 0
5, 27024, Note_on_c, 3, 63, 120
5, 27060, Note_on_c, 3, 63, 0
5, 27072, Note_on_c, 3, 63, 120
5, 27108, Note_on_c, 3, 63, 0
5, 27120, Note_on_c, 3, 63, 120
5, 27156, Note_on_c, 3, 63, 0
5, 27168, Note_on_c, 3, 63, 120
5, 27204, Note_on_c, 3, 63, 0
5, 27216, Note_on_c, 3, 63, 120
5, 27252, Note_on_c, 3, 63, 0
5, 27264, Note_on_c, 3, 63, 120
5, 27300, Note_on_c, 3, 63, 0
5, 27312, Note_on_c, 3, 63, 120
5, 27348, Note_on_c, 3, 63, 0
5, 27360, Note_on_c, 3, 63, 120
5, 27396, Note_on_c, 3, 63, 0
5, 27408, Note_on_c, 3, 63, 120
5, 27444, Note_on_c, 3, 63, 0
5, 27456, Note_on_c, 3, 63, 120
5, 27492, Note_on_c, 3, 63, 0
5, 27504, Note_on_c, 3, 63, 120
5, 27540, Note_on_c, 3, 63, 0
5, 27552, Note_on_c, 3, 63, 120
5, 27588, Note_on_c, 3, 63, 0
5, 27600, Note_on_c, 3, 63, 120
5, 27636, Note_on_c, 3, 63, 0
5, 27648, Note_on_c, 3, 67, 120
5, 27684, Note_on_c, 3, 67, 0
5, 27696, Note_on_c, 3, 67, 120
5, 27732, Note_on_c, 3, 67, 0
5, 27744, Note_on_c, 3, 67, 120
5, 27780, Note_on_c, 3, 67, 0
5, 27792, Note_on_c, 3, 67, 120
5, 27828, Note_on_c, 3, 67, 0
5, 27840, Note_on_c, 3, 67, 120
5, 27876, Note_on_c, 3, 67, 0
5, 27888, Note_on_c, 3, 67, 120
5, 27924, Note_on_c, 3, 67, 0
5, 27936, Note_on_c, 3, 67, 120
5, 27972, Note_on_c, 3, 67, 0
5, 27984, Note_on_c, 3, 67, 120
5, 28020, Note_on_c, 3, 67, 0
5, 28032, Note_on_c, 3, 67, 120
5, 28068, Note_on_c, 3, 67, 0
5, 28080, Note_on_c, 3, 67, 120
5, 28116, Note_on_c, 3, 67, 0
5, 28128, Note_on_c, 3, 67, 120
5, 28164, Note_on_c, 3, 67, 0
5, 28176, Note_on_c, 3, 67, 120
5, 28212, Note_on_c, 3, 67, 0
5, 28224, Note_on_c, 3, 67, 120
5, 28260, Note_on_c, 3, 67, 0
5, 28272, Note_on_c, 3, 67, 120
5, 28308, Note_on_c, 3, 67, 0
5, 28320, Note_on_c, 3, 67, 120
5, 28356, Note_on_c, 3, 67, 0
5, 28368, Note_on_c, 3, 67, 120
5, 28404, Note_on_c, 3, 67, 0
5, 28416, Note_on_c, 3, 67, 120
5, 28452, Note_on_c, 3, 67, 0
5, 28464, Note_on_c, 3, 67, 120
5, 28500, Note_on_c, 3, 67, 0
5, 28512, Note_on_c, 3, 67, 120
5, 28548, Note_on_c, 3, 67, 0
5, 28560, Note_on_c, 3, 67, 120
5, 28596, Note_on_c, 3, 67, 0
5, 28608, Note_on_c, 3, 67, 120
5, 28644, Note_on_c, 3, 67, 0
5, 28656, Note_on_c, 3, 67, 120
5, 28692, Note_on_c, 3, 67, 0
5, 28704, Note_on_c, 3, 67, 120
5, 28740, Note_on_c, 3, 67, 0
5, 28752, Note_on_c, 3, 67, 120
5, 28788, Note_on_c, 3, 67, 0
5, 28800, Note_on_c, 3, 67, 120
5, 28836, Note_on_c, 3, 67, 0
5, 28848, Note_on_c, 3, 67, 120
5, 28884, Note_on_c, 3, 67, 0
5, 28896, Note_on_c, 3, 67, 120
5, 28932, Note_on_c, 3, 67, 0
5, 28944, Note_on_c, 3, 67, 120
5, 28980, Note_on_c, 3, 67, 0
5, 28992, Note_on_c, 3, 67, 120
5, 29028, Note_on_c, 3, 67, 0
5, 29040, Note_on_c, 3, 67, 120
5, 29076, Note_on_c, 3, 67, 0
5, 29088, Note_on_c, 3, 67, 120
5, 29124, Note_on_c, 3, 67, 0
5, 29136, Note_on_c, 3, 67, 120
5, 29172, Note_on_c, 3, 67, 0
5, 29184, Note_on_c, 3, 67, 120
5, 29220, Note_on_c, 3, 67, 0
5, 29232, Note_on_c, 3, 67, 120
5, 29268, Note_on_c, 3, 67, 0
5, 29280, Note_on_c, 3, 67, 120
5, 29316, Note_on_c, 3, 67, 0
5, 29328, Note_on_c, 3, 67, 120
5, 29364, Note_on_c, 3, 67, 0
5, 29376, Note_on_c, 3, 67, 120
5, 29412, Note_on_c, 3, 67, 0
5, 29424, Note_on_c, 3, 67, 120
5, 29460, Note_on_c, 3, 67, 0
5, 29472, Note_on_c, 3, 67, 120
5, 29508, Note_on_c, 3, 67, 0
5, 29520, Note_on_c, 3, 67, 120
5, 29556, Note_on_c, 3, 67, 0
5, 29568, Note_on_c, 3, 74, 120
5, 29604, Note_on_c, 3, 74, 0
5, 29616, Note_on_c, 3, 67, 120
5, 29652, Note_on_c, 3, 67, 0
5, 29664, Note_on_c, 3, 67, 120
5, 29700, Note_on_c, 3, 67, 0
5, 29712, Note_on_c, 3, 67, 120
5, 29748, Note_on_c, 3, 67, 0
5, 29760, Note_on_c, 3, 74, 120
5, 29796, Note_on_c, 3, 74, 0
5, 29808, Note_on_c, 3, 67, 120
5, 29844, Note_on_c, 3, 67, 0
5, 29856, Note_on_c, 3, 67, 120
5, 29892, Note_on_c, 3, 67, 0
5, 29904, Note_on_c, 3, 67, 120
5, 29940, Note_on_c, 3, 67, 0
5, 29952, Note_on_c, 3, 66, 120
5, 30144, Note_on_c, 3, 66, 0
5, 30384, Note_on_c, 3, 74, 120
5, 30420, Note_on_c, 3, 74, 0
5, 30432, Note_on_c, 3, 69, 120
5, 30468, Note_on_c, 3, 69, 0
5, 30480, Note_on_c, 3, 66, 120
5, 30516, Note_on_c, 3, 66, 0
5, 30528, Note_on_c, 3, 62, 120
5, 30720, Note_on_c, 3, 62, 0
5, 30960, Note_on_c, 3, 74, 120
5, 30996, Note_on_c, 3, 74, 0
5, 31008, Note_on_c, 3, 69, 120
5, 31044, Note_on_c, 3, 69, 0
5, 31056, Note_on_c, 3, 66, 120
5, 31092, Note_on_c, 3, 66, 0
5, 31104, Note_on_c, 3, 67, 120
5, 31296, Note_on_c, 3, 67, 0
5, 31536, Note_on_c, 3, 74, 120
5, 31572, Note_on_c, 3, 74, 0
5, 31584, Note_on_c, 3, 70, 120
5, 31620, Note_on_c, 3, 70, 0
5, 31632, Note_on_c, 3, 67, 120
5, 31668, Note_on_c, 3, 67, 0
5, 31680, Note_on_c, 3, 66, 120
5, 31872, Note_on_c, 3, 66, 0
5, 32112, Note_on_c, 3, 74, 120
5, 32148, Note_on_c, 3, 74, 0
5, 32160, Note_on_c, 3, 69, 120
5, 32196, Note_on_c, 3, 69, 0
5, 32208, Note_on_c, 3, 66, 120
5, 32244, Note_on_c, 3, 66, 0
5, 32256, Note_on_c, 3, 62, 120
5, 32448, Note_on_c, 3, 62, 0
5, 32688, Note_on_c, 3, 74, 120
5, 32724, Note_on_c, 3, 74, 0
5, 32736, Note_on_c, 3, 69, 120
5, 32772, Note_on_c, 3, 69, 0
5, 32784, Note_on_c, 3, 66, 120
5, 32820, Note_on_c, 3, 66, 0
5, 32832, Note_on_c, 3, 62, 120
5, 33024, Note_on_c, 3, 62, 0
5, 33264, Note_on_c, 3, 74, 120
5, 33300, Note_on_c, 3, 74, 0
5, 33312, Note_on_c, 3, 69, 120
5, 33348, Note_on_c, 3, 69, 0
5, 33360, Note_on_c, 3, 66, 120
5, 33396, Note_on_c, 3, 66, 0
5, 33408, Note_on_c, 3, 67, 120
5, 33600, Note_on_c, 3, 67, 0
5, 33840, Note_on_c, 3, 74, 120
5, 33876, Note_on_c, 3, 74, 0
5, 33888, Note_on_c, 3, 70, 120
5, 33924, Note_on_c, 3, 70, 0
5, 33936, Note_on_c, 3, 67, 120
5, 33972, Note_on_c, 3, 67, 0
5, 33984, Note_on_c, 3, 66, 120
5, 34176, Note_on_c, 3, 66, 0
5, 34416, Note_on_c, 3, 74, 120
5, 34452, Note_on_c, 3, 74, 0
5, 34464, Note_on_c, 3, 69, 120
5, 34500, Note_on_c, 3, 69, 0
5, 34512, Note_on_c, 3, 66, 120
5, 34548, Note_on_c, 3, 66, 0
5, 34560, Note_on_c, 3, 62, 121
5, 34632, Note_on_c, 3, 62, 0
5, 34656, Note_on_c, 3, 62, 120
5, 34728, Note_on_c, 3, 62, 0
5, 34752, Note_on_c, 3, 62, 118
5, 34824, Note_on_c, 3, 62, 0
5, 34848, Note_on_c, 3, 62, 117
5, 34920, Note_on_c, 3, 62, 0
5, 34944, Note_on_c, 3, 62, 115
5, 35016, Note_on_c, 3, 62, 0
5, 35040, Note_on_c, 3, 62, 113
5, 35112, Note_on_c, 3, 62, 0
5, 35136, Note_on_c, 3, 62, 112
5, 35208, Note_on_c, 3, 62, 0
5, 35232, Note_on_c, 3, 62, 110
5, 35304, Note_on_c, 3, 62, 0
5, 35328, Note_on_c, 3, 62, 109
5, 35400, Note_on_c, 3, 62, 0
5, 35424, Note_on_c, 3, 62, 107
5, 35496, Note_on_c, 3, 62, 0
5, 35520, Note_on_c, 3, 62, 105
5, 35592, Note_on_c, 3, 62, 0
5, 35616, Note_on_c, 3, 62, 104
5, 35688, Note_on_c, 3, 62, 0
5, 35712, Note_on_c, 3, 62, 102
5, 35784, Note_on_c, 3, 62, 0
5, 35808, Note_on_c, 3, 62, 101
5, 35880, Note_on_c, 3, 62, 0
5, 35904, Note_on_c, 3, 62, 99
5, 35976, Note_on_c, 3, 62, 0
5, 36000, Note_on_c, 3, 62, 97
5, 36072, Note_on_c, 3, 62, 0
5, 36096, Note_on_c, 3, 62, 96
5, 36168, Note_on_c, 3, 62, 0
5, 36192, Note_on_c, 3, 62, 94
5, 36264, Note_on_c, 3, 62, 0
5, 36288, Note_on_c, 3, 59, 121
5, 36324, Note_on_c, 3, 59, 0
5, 36336, Note_on_c, 3, 62, 121
5, 36372, Note_on_c, 3, 62, 0
5, 36384, Note_on_c, 3, 59, 122
5, 36420, Note_on_c, 3, 59, 0
5, 36432, Note_on_c, 3, 62, 122
5, 36468, Note_on_c, 3, 62, 0
5, 36480, Note_on_c, 3, 59, 123
5, 36516, Note_on_c, 3, 59, 0
5, 36528, Note_on_c, 3, 62, 123
5, 36564, Note_on_c, 3, 62, 0
5, 36576, Note_on_c, 3, 59, 124
5, 36612, Note_on_c, 3, 59, 0
5, 36624, Note_on_c, 3, 62, 124
5, 36660, Note_on_c, 3, 62, 0
5, 36672, Note_on_c, 3, 59, 125
5, 36708, Note_on_c, 3, 59, 0
5, 36720, Note_on_c, 3, 62, 126
5, 36756, Note_on_c, 3, 62, 0
5, 36768, Note_on_c, 3, 59, 126
5, 36804, Note_on_c, 3, 59, 0
5, 36816, Note_on_c, 3, 62, 127
5, 36852, Note_on_c, 3, 62, 0
5, 36864, Note_on_c, 3, 60, 127
5, 36900, Note_on_c, 3, 60, 0
5, 36912, Note_on_c, 3, 63, 127
5, 36948, Note_on_c, 3, 63, 0
5, 36960, Note_on_c, 3, 60, 127
5, 36996, Note_on_c, 3, 60, 0
5, 37008, Note_on_c, 3, 63, 127
5, 37044, Note_on_c, 3, 63, 0
5, 37056, Note_on_c, 3, 60, 127
5, 37092, Note_on_c, 3, 60, 0
5, 37104, Note_on_c, 3, 63, 127
5, 37140, Note_on_c, 3, 63, 0
5, 37152, Note_on_c, 3, 60, 127
5, 37188, Note_on_c, 3, 60, 0
5, 37200, Note_on_c, 3, 63, 127
5, 37236, Note_on_c, 3, 63, 0
5, 37248, Note_on_c, 3, 60, 127
5, 37284, Note_on_c, 3, 60, 0
5, 37296, Note_on_c, 3, 63, 127
5, 37332, Note_on_c, 3, 63, 0
5, 37344, Note_on_c, 3, 60, 127
5, 37380, Note_on_c, 3, 60, 0
5, 37392, Note_on_c, 3, 63, 127
5, 37428, Note_on_c, 3, 63, 0
5, 37440, Note_on_c, 3, 61, 127
5, 37476, Note_on_c, 3, 61, 0
5, 37488, Note_on_c, 3, 64, 127
5, 37524, Note_on_c, 3, 64, 0
5, 37536, Note_on_c, 3, 61, 127
5, 37572, Note_on_c, 3, 61, 0
5, 37584, Note_on_c, 3, 64, 127
5, 37620, Note_on_c, 3, 64, 0
5, 37632, Note_on_c, 3, 61, 127
5, 37668, Note_on_c, 3, 61, 0
5, 37680, Note_on_c, 3, 64, 127
5, 37716, Note_on_c, 3, 64, 0
5, 37728, Note_on_c, 3, 61, 127
5, 37764, Note_on_c, 3, 61, 0
5, 37776, Note_on_c, 3, 64, 127
5, 37812, Note_on_c, 3, 64, 0
5, 37824, Note_on_c, 3, 61, 127
5, 37860, Note_on_c, 3, 61, 0
5, 37872, Note_on_c, 3, 64, 127
5, 37908, Note_on_c, 3, 64, 0
5, 37920, Note_on_c, 3, 61, 127
5, 37956, Note_on_c, 3, 61, 0
5, 37968, Note_on_c, 3, 64, 127
5, 38004, Note_on_c, 3, 64, 0
5, 38016, Note_on_c, 3, 62, 127
5, 38052, Note_on_c, 3, 62, 0
5, 38064, Note_on_c, 3, 65, 127
5, 38100, Note_on_c, 3, 65, 0
5, 38112, Note_on_c, 3, 62, 127
5, 38148, Note_on_c, 3, 62, 0
5, 38160, Note_on_c, 3, 65, 127
5, 38196, Note_on_c, 3, 65, 0
5, 38208, Note_on_c, 3, 62, 127
5, 38244, Note_on_c, 3, 62, 0
5, 38256, Note_on_c, 3, 65, 127
5, 38292, Note_on_c, 3, 65, 0
5, 38304, Note_on_c, 3, 62, 127
5, 38340, Note_on_c, 3, 62, 0
5, 38352, Note_on_c, 3, 65, 127
5, 38388, Note_on_c, 3, 65, 0
5, 38400, Note_on_c, 3, 62, 127
5, 38436, Note_on_c, 3, 62, 0
5, 38448, Note_on_c, 3, 65, 127
5, 38484, Note_on_c, 3, 65, 0
5, 38496, Note_on_c, 3, 62, 127
5, 38532, Note_on_c, 3, 62, 0
5, 38544, Note_on_c, 3, 65, 127
5, 38580, Note_on_c, 3, 65, 0
5, 38592, Note_on_c, 3, 62, 120
5, 38628, Note_on_c, 3, 62, 0
5, 38640, Note_on_c, 3, 64, 120
5, 38676, Note_on_c, 3, 64, 0
5, 38688, Note_on_c, 3, 62, 120
5, 38724, Note_on_c, 3, 62, 0
5, 38736, Note_on_c, 3, 64, 120
5, 38772, Note_on_c, 3, 64, 0
5, 38784, Note_on_c, 3, 62, 120
5, 38820, Note_on_c, 3, 62, 0
5, 38832, Note_on_c, 3, 64, 120
5, 38868, Note_on_c, 3, 64, 0
5, 38880, Note_on_c, 3, 62, 120
5, 38916, Note_on_c, 3, 62, 0
5, 38928, Note_on_c, 3, 64, 120
5, 38964, Note_on_c, 3, 64, 0
5, 38976, Note_on_c, 3, 62, 120
5, 39012, Note_on_c, 3, 62, 0
5, 39024, Note_on_c, 3, 64, 120
5, 39060, Note_on_c, 3, 64, 0
5, 39072, Note_on_c, 3, 62, 120
5, 39108, Note_on_c, 3, 62, 0
5, 39120, Note_on_c, 3, 64, 120
5, 39156, Note_on_c, 3, 64, 0
5, 39168, Note_on_c, 3, 61, 120
5, 39204, Note_on_c, 3, 61, 0
5, 39216, Note_on_c, 3, 64, 120
5, 39252, Note_on_c, 3, 64, 0
5, 39264, Note_on_c, 3, 61, 120
5, 39300, Note_on_c, 3, 61, 0
5, 39312, Note_on_c, 3, 64, 120
5, 39348, Note_on_c, 3, 64, 0
5, 39360, Note_on_c, 3, 61, 120
5, 39396, Note_on_c, 3, 61, 0
5, 39408, Note_on_c, 3, 64, 120
5, 39444, Note_on_c, 3, 64, 0
5, 39456, Note_on_c, 3, 61, 120
5, 39492, Note_on_c, 3, 61, 0
5, 39504, Note_on_c, 3, 64, 120
5, 39540, Note_on_c, 3, 64, 0
5, 39552, Note_on_c, 3, 61, 120
5, 39588, Note_on_c, 3, 61, 0
5, 39600, Note_on_c, 3, 64, 120
5, 39636, Note_on_c, 3, 64, 0
5, 39648, Note_on_c, 3, 61, 120
5, 39684, Note_on_c, 3, 61, 0
5, 39696, Note_on_c, 3, 64, 120
5, 39732, Note_on_c, 3, 64, 0
5, 39744, Note_on_c, 3, 62, 120
5, 39936, Note_on_c, 3, 62, 0
5, 41472, Note_on_c, 3, 62, 110
5, 41664, Note_on_c, 3, 62, 0
5, 41664, Note_on_c, 3, 62, 110
5, 41856, Note_on_c, 3, 62, 0
5, 41856, Note_on_c, 3, 62, 110
5, 42048, Note_on_c, 3, 62, 0
5, 42048, Note_on_c, 3, 62, 110
5, 42240, Note_on_c, 3, 62, 0
5, 42240, Note_on_c, 3, 62, 110
5, 42432, Note_on_c, 3, 62, 0
5, 42432, Note_on_c, 3, 62, 110
5, 42624, Note_on_c, 3, 62, 0
5, 42624, Note_on_c, 3, 62, 110
5, 42816, Note_on_c, 3, 62, 0
5, 42816, Note_on_c, 3, 62, 110
5, 43008, Note_on_c, 3, 62, 0
5, 43008, Note_on_c, 3, 62, 110
5, 43200, Note_on_c, 3, 62, 0
5, 43200, Note_on_c, 3, 62, 110
5, 43392, Note_on_c, 3, 62, 0
5, 43776, Note_on_c, 3, 62, 110
5, 43968, Note_on_c, 3, 62, 0
5, 43968, Note_on_c, 3, 62, 110
5, 44160, Note_on_c, 3, 62, 0
5, 44160, Note_on_c, 3, 62, 110
5, 44352, Note_on_c, 3, 62, 0
5, 44352, Note_on_c, 3, 62, 110
5, 44544, Note_on_c, 3, 62, 0
5, 44544, Note_on_c, 3, 62, 110
5, 44736, Note_on_c, 3, 62, 0
5, 44736, Note_on_c, 3, 62, 110
5, 44928, Note_on_c, 3, 62, 0
5, 44928, Note_on_c, 3, 62, 110
5, 45120, Note_on_c, 3, 62, 0
5, 45120, Note_on_c, 3, 62, 110
5, 45312, Note_on_c, 3, 62, 0
5, 45312, Note_on_c, 3, 62, 110
5, 45504, Note_on_c, 3, 62, 0
5, 45504, Note_on_c, 3, 62, 110
5, 45696, Note_on_c, 3, 62, 0
5, 49536, Note_on_c, 3, 62, 127
5, 49728, Note_on_c, 3, 62, 0
5, 49824, Note_on_c, 3, 69, 127
5, 49920, Note_on_c, 3, 69, 0
5, 49920, Note_on_c, 3, 65, 127
5, 49956, Note_on_c, 3, 65, 0
5, 49968, Note_on_c, 3, 67, 127
5, 50004, Note_on_c, 3, 67, 0
5, 50016, Note_on_c, 3, 65, 127
5, 50052, Note_on_c, 3, 65, 0
5, 50064, Note_on_c, 3, 64, 127
5, 50100, Note_on_c, 3, 64, 0
5, 50112, Note_on_c, 3, 62, 127
5, 50304, Note_on_c, 3, 62, 0
5, 50400, Note_on_c, 3, 74, 127
5, 50496, Note_on_c, 3, 74, 0
5, 50496, Note_on_c, 3, 70, 127
5, 50532, Note_on_c, 3, 70, 0
5, 50544, Note_on_c, 3, 69, 127
5, 50580, Note_on_c, 3, 69, 0
5, 50592, Note_on_c, 3, 67, 127
5, 50628, Note_on_c, 3, 67, 0
5, 50640, Note_on_c, 3, 65, 127
5, 50676, Note_on_c, 3, 65, 0
5, 50688, Note_on_c, 3, 64, 127
5, 50880, Note_on_c, 3, 64, 0
5, 50976, Note_on_c, 3, 67, 127
5, 51072, Note_on_c, 3, 67, 0
5, 51072, Note_on_c, 3, 64, 127
5, 51108, Note_on_c, 3, 64, 0
5, 51120, Note_on_c, 3, 62, 127
5, 51156, Note_on_c, 3, 62, 0
5, 51168, Note_on_c, 3, 60, 127
5, 51204, Note_on_c, 3, 60, 0
5, 51216, Note_on_c, 3, 58, 127
5, 51252, Note_on_c, 3, 58, 0
5, 51264, Note_on_c, 3, 60, 127
5, 51456, Note_on_c, 3, 60, 0
5, 51552, Note_on_c, 3, 72, 127
5, 51648, Note_on_c, 3, 72, 0
5, 51648, Note_on_c, 3, 69, 127
5, 51684, Note_on_c, 3, 69, 0
5, 51696, Note_on_c, 3, 67, 127
5, 51732, Note_on_c, 3, 67, 0
5, 51744, Note_on_c, 3, 65, 127
5, 51780, Note_on_c, 3, 65, 0
5, 51792, Note_on_c, 3, 63, 127
5, 51828, Note_on_c, 3, 63, 0
5, 51840, Note_on_c, 3, 62, 127
5, 52032, Note_on_c, 3, 62, 0
5, 52128, Note_on_c, 3, 65, 127
5, 52224, Note_on_c, 3, 65, 0
5, 52224, Note_on_c, 3, 62, 127
5, 52260, Note_on_c, 3, 62, 0
5, 52272, Note_on_c, 3, 60, 127
5, 52308, Note_on_c, 3, 60, 0
5, 52320, Note_on_c, 3, 58, 127
5, 52356, Note_on_c, 3, 58, 0
5, 52368, Note_on_c, 3, 57, 127
5, 52404, Note_on_c, 3, 57, 0
5, 52416, Note_on_c, 3, 58, 127
5, 52608, Note_on_c, 3, 58, 0
5, 52704, Note_on_c, 3, 70, 127
5, 52800, Note_on_c, 3, 70, 0
5, 52800, Note_on_c, 3, 67, 127
5, 52836, Note_on_c, 3, 67, 0
5, 52848, Note_on_c, 3, 65, 127
5, 52884, Note_on_c, 3, 65, 0
5, 52896, Note_on_c, 3, 63, 127
5, 52932, Note_on_c, 3, 63, 0
5, 52944, Note_on_c, 3, 62, 127
5, 52980, Note_on_c, 3, 62, 0
5, 52992, Note_on_c, 3, 60, 127
5, 53184, Note_on_c, 3, 60, 0
5, 53280, Note_on_c, 3, 63, 127
5, 53376, Note_on_c, 3, 63, 0
5, 53376, Note_on_c, 3, 60, 127
5, 53412, Note_on_c, 3, 60, 0
5, 53424, Note_on_c, 3, 58, 127
5, 53460, Note_on_c, 3, 58, 0
5, 53472, Note_on_c, 3, 56, 127
5, 53508, Note_on_c, 3, 56, 0
5, 53520, Note_on_c, 3, 55, 127
5, 53556, Note_on_c, 3, 55, 0
5, 53568, Note_on_c, 3, 62, 127
5, 53760, Note_on_c, 3, 62, 0
5, 53856, Note_on_c, 3, 65, 127
5, 53952, Note_on_c, 3, 65, 0
5, 53952, Note_on_c, 3, 62, 127
5, 53988, Note_on_c, 3, 62, 0
5, 54000, Note_on_c, 3, 60, 127
5, 54036, Note_on_c, 3, 60, 0
5, 54048, Note_on_c, 3, 59, 127
5, 54084, Note_on_c, 3, 59, 0
5, 54096, Note_on_c, 3, 57, 127
5, 54132, Note_on_c, 3, 57, 0
5, 54144, Note_on_c, 3, 59, 127
5, 54336, Note_on_c, 3, 59, 0
5, 54432, Note_on_c, 3, 62, 127
5, 54528, Note_on_c, 3, 62, 0
5, 54528, Note_on_c, 3, 58, 127
5, 54564, Note_on_c, 3, 58, 0
5, 54576, Note_on_c, 3, 57, 127
5, 54612, Note_on_c, 3, 57, 0
5, 54624, Note_on_c, 3, 55, 127
5, 54660, Note_on_c, 3, 55, 0
5, 54672, Note_on_c, 3, 53, 127
5, 54708, Note_on_c, 3, 53, 0
5, 54720, Note_on_c, 3, 55, 127
5, 54912, Note_on_c, 3, 55, 0
5, 55104, Note_on_c, 3, 72, 127
5, 55140, Note_on_c, 3, 72, 0
5, 55152, Note_on_c, 3, 67, 127
5, 55188, Note_on_c, 3, 67, 0
5, 55200, Note_on_c, 3, 63, 127
5, 55236, Note_on_c, 3, 63, 0
5, 55248, Note_on_c, 3, 60, 127
5, 55284, Note_on_c, 3, 60, 0
5, 55296, Note_on_c, 3, 55, 127
5, 55488, Note_on_c, 3, 55, 0
5, 55680, Note_on_c, 3, 72, 127
5, 55716, Note_on_c, 3, 72, 0
5, 55728, Note_on_c, 3, 67, 127
5, 55764, Note_on_c, 3, 67, 0
5, 55776, Note_on_c, 3, 63, 127
5, 55812, Note_on_c, 3, 63, 0
5, 55824, Note_on_c, 3, 60, 127
5, 55860, Note_on_c, 3, 60, 0
5, 55872, Note_on_c, 3, 55, 127
5, 56064, Note_on_c, 3, 55, 0
5, 56256, Note_on_c, 3, 72, 127
5, 56292, Note_on_c, 3, 72, 0
5, 56304, Note_on_c, 3, 67, 127
5, 56340, Note_on_c, 3, 67, 0
5, 56352, Note_on_c, 3, 63, 127
5, 56388, Note_on_c, 3, 63, 0
5, 56400, Note_on_c, 3, 60, 127
5, 56436, Note_on_c, 3, 60, 0
5, 56448, Note_on_c, 3, 55, 100
5, 56520, Note_on_c, 3, 55, 0
5, 56544, Note_on_c, 3, 55, 101
5, 56616, Note_on_c, 3, 55, 0
5, 56640, Note_on_c, 3, 55, 103
5, 56712, Note_on_c, 3, 55, 0
5, 56736, Note_on_c, 3, 55, 105
5, 56808, Note_on_c, 3, 55, 0
5, 56832, Note_on_c, 3, 55, 106
5, 56904, Note_on_c, 3, 55, 0
5, 56928, Note_on_c, 3, 55, 108
5, 57000, Note_on_c, 3, 55, 0
5, 57024, Note_on_c, 3, 56, 110
5, 57096, Note_on_c, 3, 56, 0
5, 57120, Note_on_c, 3, 56, 112
5, 57192, Note_on_c, 3, 56, 0
5, 57216, Note_on_c, 3, 56, 113
5, 57288, Note_on_c, 3, 56, 0
5, 57312, Note_on_c, 3, 56, 115
5, 57384, Note_on_c, 3, 56, 0
5, 57408, Note_on_c, 3, 68, 117
5, 57480, Note_on_c, 3, 68, 0
5, 57504, Note_on_c, 3, 68, 118
5, 57576, Note_on_c, 3, 68, 0
5, 57600, Note_on_c, 3, 62, 120
5, 57672, Note_on_c, 3, 62, 0
5, 57696, Note_on_c, 3, 62, 122
5, 57768, Note_on_c, 3, 62, 0
5, 57792, Note_on_c, 3, 62, 124
5, 57864, Note_on_c, 3, 62, 0
5, 57888, Note_on_c, 3, 62, 125
5, 57960, Note_on_c, 3, 62, 0
5, 57984, Note_on_c, 3, 62, 127
5, 58056, Note_on_c, 3, 62, 0
5, 58080, Note_on_c, 3, 62, 127
5, 58152, Note_on_c, 3, 62, 0
5, 58176, Note_on_c, 3, 72, 127
5, 58212, Note_on_c, 3, 72, 0
5, 58224, Note_on_c, 3, 60, 127
5, 58260, Note_on_c, 3, 60, 0
5, 58272, Note_on_c, 3, 60, 127
5, 58308, Note_on_c, 3, 60, 0
5, 58320, Note_on_c, 3, 60, 127
5, 58356, Note_on_c, 3, 60, 0
5, 58368, Note_on_c, 3, 60, 127
5, 58404, Note_on_c, 3, 60, 0
5, 58416, Note_on_c, 3, 60, 127
5, 58452, Note_on_c, 3, 60, 0
5, 58464, Note_on_c, 3, 60, 127
5, 58500, Note_on_c, 3, 60, 0
5, 58512, Note_on_c, 3, 60, 127
5, 58548, Note_on_c, 3, 60, 0
5, 58560, Note_on_c, 3, 60, 127
5, 58596, Note_on_c, 3, 60, 0
5, 58608, Note_on_c, 3, 60, 127
5, 58644, Note_on_c, 3, 60, 0
5, 58656, Note_on_c, 3, 60, 127
5, 58692, Note_on_c, 3, 60, 0
5, 58704, Note_on_c, 3, 60, 127
5, 58740, Note_on_c, 3, 60, 0
5, 58752, Note_on_c, 3, 70, 127
5, 58788, Note_on_c, 3, 70, 0
5, 58800, Note_on_c, 3, 60, 127
5, 58836, Note_on_c, 3, 60, 0
5, 58848, Note_on_c, 3, 60, 127
5, 58884, Note_on_c, 3, 60, 0
5, 58896, Note_on_c, 3, 60, 127
5, 58932, Note_on_c, 3, 60, 0
5, 58944, Note_on_c, 3, 60, 127
5, 58980, Note_on_c, 3, 60, 0
5, 58992, Note_on_c, 3, 60, 127
5, 59028, Note_on_c, 3, 60, 0
5, 59040, Note_on_c, 3, 60, 127
5, 59076, Note_on_c, 3, 60, 0
5, 59088, Note_on_c, 3, 60, 127
5, 59124, Note_on_c, 3, 60, 0
5, 59136, Note_on_c, 3, 60, 127
5, 59172, Note_on_c, 3, 60, 0
5, 59184, Note_on_c, 3, 60, 127
5, 59220, Note_on_c, 3, 60, 0
5, 59232, Note_on_c, 3, 60, 127
5, 59268, Note_on_c, 3, 60, 0
5, 59280, Note_on_c, 3, 60, 127
5, 59316, Note_on_c, 3, 60, 0
5, 59328, Note_on_c, 3, 68, 127
5, 59364, Note_on_c, 3, 68, 0
5, 59376, Note_on_c, 3, 60, 127
5, 59412, Note_on_c, 3, 60, 0
5, 59424, Note_on_c, 3, 60, 127
5, 59460, Note_on_c, 3, 60, 0
5, 59472, Note_on_c, 3, 60, 127
5, 59508, Note_on_c, 3, 60, 0
5, 59520, Note_on_c, 3, 60, 127
5, 59556, Note_on_c, 3, 60, 0
5, 59568, Note_on_c, 3, 60, 127
5, 59604, Note_on_c, 3, 60, 0
5, 59616, Note_on_c, 3, 60, 127
5, 59652, Note_on_c, 3, 60, 0
5, 59664, Note_on_c, 3, 60, 127
5, 59700, Note_on_c, 3, 60, 0
5, 59712, Note_on_c, 3, 60, 127
5, 59748, Note_on_c, 3, 60, 0
5, 59760, Note_on_c, 3, 60, 127
5, 59796, Note_on_c, 3, 60, 0
5, 59808, Note_on_c, 3, 60, 127
5, 59844, Note_on_c, 3, 60, 0
5, 59856, Note_on_c, 3, 60, 127
5, 59892, Note_on_c, 3, 60, 0
5, 59904, Note_on_c, 3, 67, 127
5, 59940, Note_on_c, 3, 67, 0
5, 59952, Note_on_c, 3, 60, 127
5, 59988, Note_on_c, 3, 60, 0
5, 60000, Note_on_c, 3, 60, 127
5, 60036, Note_on_c, 3, 60, 0
5, 60048, Note_on_c, 3, 60, 127
5, 60084, Note_on_c, 3, 60, 0
5, 60096, Note_on_c, 3, 60, 127
5, 60132, Note_on_c, 3, 60, 0
5, 60144, Note_on_c, 3, 60, 127
5, 60180, Note_on_c, 3, 60, 0
5, 60192, Note_on_c, 3, 60, 127
5, 60228, Note_on_c, 3, 60, 0
5, 60240, Note_on_c, 3, 60, 127
5, 60276, Note_on_c, 3, 60, 0
5, 60288, Note_on_c, 3, 60, 127
5, 60384, Note_on_c, 3, 60, 0
5, 66816, Note_on_c, 3, 60, 120
5, 66852, Note_on_c, 3, 60, 0
5, 66864, Note_on_c, 3, 60, 120
5, 66900, Note_on_c, 3, 60, 0
5, 66912, Note_on_c, 3, 60, 120
5, 66948, Note_on_c, 3, 60, 0
5, 66960, Note_on_c, 3, 60, 120
5, 66996, Note_on_c, 3, 60, 0
5, 67008, Note_on_c, 3, 60, 120
5, 67044, Note_on_c, 3, 60, 0
5, 67056, Note_on_c, 3, 60, 120
5, 67092, Note_on_c, 3, 60, 0
5, 67104, Note_on_c, 3, 60, 120
5, 67140, Note_on_c, 3, 60, 0
5, 67152, Note_on_c, 3, 60, 120
5, 67188, Note_on_c, 3, 60, 0
5, 67200, Note_on_c, 3, 60, 120
5, 67236, Note_on_c, 3, 60, 0
5, 67248, Note_on_c, 3, 60, 120
5, 67284, Note_on_c, 3, 60, 0
5, 67296, Note_on_c, 3, 60, 120
5, 67332, Note_on_c, 3, 60, 0
5, 67344, Note_on_c, 3, 60, 120
5, 67380, Note_on_c, 3, 60, 0
5, 67392, Note_on_c, 3, 68, 120
5, 67428, Note_on_c, 3, 68, 0
5, 67440, Note_on_c, 3, 60, 120
5, 67476, Note_on_c, 3, 60, 0
5, 67488, Note_on_c, 3, 60, 120
5, 67524, Note_on_c, 3, 60, 0
5, 67536, Note_on_c, 3, 60, 120
5, 67572, Note_on_c, 3, 60, 0
5, 67584, Note_on_c, 3, 68, 120
5, 67620, Note_on_c, 3, 68, 0
5, 67632, Note_on_c, 3, 60, 120
5, 67668, Note_on_c, 3, 60, 0
5, 67680, Note_on_c, 3, 60, 120
5, 67716, Note_on_c, 3, 60, 0
5, 67728, Note_on_c, 3, 60, 120
5, 67764, Note_on_c, 3, 60, 0
5, 67776, Note_on_c, 3, 68, 120
5, 67812, Note_on_c, 3, 68, 0
5, 67824, Note_on_c, 3, 60, 120
5, 67860, Note_on_c, 3, 60, 0
5, 67872, Note_on_c, 3, 60, 120
5, 67908, Note_on_c, 3, 60, 0
5, 67920, Note_on_c, 3, 60, 120
5, 67956, Note_on_c, 3, 60, 0
5, 67968, Note_on_c, 3, 59, 120
5, 68004, Note_on_c, 3, 59, 0
5, 68016, Note_on_c, 3, 59, 120
5, 68052, Note_on_c, 3, 59, 0
5, 68064, Note_on_c, 3, 59, 120
5, 68100, Note_on_c, 3, 59, 0
5, 68112, Note_on_c, 3, 59, 120
5, 68148, Note_on_c, 3, 59, 0
5, 68160, Note_on_c, 3, 59, 120
5, 68196, Note_on_c, 3, 59, 0
5, 68208, Note_on_c, 3, 59, 120
5, 68244, Note_on_c, 3, 59, 0
5, 68256, Note_on_c, 3, 59, 120
5, 68292, Note_on_c, 3, 59, 0
5, 68304, Note_on_c, 3, 59, 120
5, 68340, Note_on_c, 3, 59, 0
5, 68352, Note_on_c, 3, 59, 120
5, 68388, Note_on_c, 3, 59, 0
5, 68400, Note_on_c, 3, 59, 120
5, 68436, Note_on_c, 3, 59, 0
5, 68448, Note_on_c, 3, 59, 120
5, 68484, Note_on_c, 3, 59, 0
5, 68496, Note_on_c, 3, 59, 120
5, 68532, Note_on_c, 3, 59, 0
5, 68544, Note_on_c, 3, 67, 120
5, 68580, Note_on_c, 3, 67, 0
5, 68592, Note_on_c, 3, 58, 120
5, 68628, Note_on_c, 3, 58, 0
5, 68640, Note_on_c, 3, 58, 120
5, 68676, Note_on_c, 3, 58, 0
5, 68688, Note_on_c, 3, 58, 120
5, 68724, Note_on_c, 3, 58, 0
5, 68736, Note_on_c, 3, 67, 120
5, 68772, Note_on_c, 3, 67, 0
5, 68784, Note_on_c, 3, 58, 120
5, 68820, Note_on_c, 3, 58, 0
5, 68832, Note_on_c, 3, 58, 120
5, 68868, Note_on_c, 3, 58, 0
5, 68880, Note_on_c, 3, 58, 120
5, 68916, Note_on_c, 3, 58, 0
5, 68928, Note_on_c, 3, 67, 120
5, 68964, Note_on_c, 3, 67, 0
5, 68976, Note_on_c, 3, 58, 120
5, 69012, Note_on_c, 3, 58, 0
5, 69024, Note_on_c, 3, 58, 120
5, 69060, Note_on_c, 3, 58, 0
5, 69072, Note_on_c, 3, 58, 120
5, 69108, Note_on_c, 3, 58, 0
5, 69120, Note_on_c, 3, 57, 120
5, 69156, Note_on_c, 3, 57, 0
5, 69168, Note_on_c, 3, 57, 120
5, 69204, Note_on_c, 3, 57, 0
5, 69216, Note_on_c, 3, 57, 120
5, 69252, Note_on_c, 3, 57, 0
5, 69264, Note_on_c, 3, 57, 120
5, 69300, Note_on_c, 3, 57, 0
5, 69312, Note_on_c, 3, 57, 120
5, 69348, Note_on_c, 3, 57, 0
5, 69360, Note_on_c, 3, 57, 120
5, 69396, Note_on_c, 3, 57, 0
5, 69408, Note_on_c, 3, 57, 120
5, 69444, Note_on_c, 3, 57, 0
5, 69456, Note_on_c, 3, 57, 120
5, 69492, Note_on_c, 3, 57, 0
5, 69504, Note_on_c, 3, 57, 120
5, 69540, Note_on_c, 3, 57, 0
5, 69552, Note_on_c, 3, 57, 120
5, 69588, Note_on_c, 3, 57, 0
5, 69600, Note_on_c, 3, 57, 120
5, 69636, Note_on_c, 3, 57, 0
5, 69648, Note_on_c, 3, 57, 120
5, 69684, Note_on_c, 3, 57, 0
5, 69696, Note_on_c, 3, 65, 120
5, 69732, Note_on_c, 3, 65, 0
5, 69744, Note_on_c, 3, 56, 120
5, 69780, Note_on_c, 3, 56, 0
5, 69792, Note_on_c, 3, 56, 120
5, 69828, Note_on_c, 3, 56, 0
5, 69840, Note_on_c, 3, 56, 120
5, 69876, Note_on_c, 3, 56, 0
5, 69888, Note_on_c, 3, 65, 120
5, 69924, Note_on_c, 3, 65, 0
5, 69936, Note_on_c, 3, 56, 120
5, 69972, Note_on_c, 3, 56, 0
5, 69984, Note_on_c, 3, 56, 120
5, 70020, Note_on_c, 3, 56, 0
5, 70032, Note_on_c, 3, 56, 120
5, 70068, Note_on_c, 3, 56, 0
5, 70080, Note_on_c, 3, 65, 120
5, 70116, Note_on_c, 3, 65, 0
5, 70128, Note_on_c, 3, 56, 120
5, 70164, Note_on_c, 3, 56, 0
5, 70176, Note_on_c, 3, 56, 120
5, 70212, Note_on_c, 3, 56, 0
5, 70224, Note_on_c, 3, 56, 120
5, 70260, Note_on_c, 3, 56, 0
5, 70272, Note_on_c, 3, 55, 120
5, 70308, Note_on_c, 3, 55, 0
5, 70320, Note_on_c, 3, 67, 120
5, 70356, Note_on_c, 3, 67, 0
5, 70368, Note_on_c, 3, 67, 120
5, 70404, Note_on_c, 3, 67, 0
5, 70416, Note_on_c, 3, 67, 120
5, 70452, Note_on_c, 3, 67, 0
5, 70464, Note_on_c, 3, 67, 120
5, 70500, Note_on_c, 3, 67, 0
5, 70512, Note_on_c, 3, 67, 120
5, 70548, Note_on_c, 3, 67, 0
5, 70560, Note_on_c, 3, 67, 120
5, 70596, Note_on_c, 3, 67, 0
5, 70608, Note_on_c, 3, 67, 120
5, 70644, Note_on_c, 3, 67, 0
5, 70656, Note_on_c, 3, 67, 120
5, 70692, Note_on_c, 3, 67, 0
5, 70704, Note_on_c, 3, 67, 120
5, 70740, Note_on_c, 3, 67, 0
5, 70752, Note_on_c, 3, 67, 120
5, 70788, Note_on_c, 3, 67, 0
5, 70800, Note_on_c, 3, 67, 120
5, 70836, Note_on_c, 3, 67, 0
5, 70848, Note_on_c, 3, 75, 120
5, 70884, Note_on_c, 3, 75, 0
5, 70896, Note_on_c, 3, 67, 120
5, 70932, Note_on_c, 3, 67, 0
5, 70944, Note_on_c, 3, 67, 120
5, 70980, Note_on_c, 3, 67, 0
5, 70992, Note_on_c, 3, 67, 120
5, 71028, Note_on_c, 3, 67, 0
5, 71040, Note_on_c, 3, 75, 120
5, 71076, Note_on_c, 3, 75, 0
5, 71088, Note_on_c, 3, 67, 120
5, 71124, Note_on_c, 3, 67, 0
5, 71136, Note_on_c, 3, 67, 120
5, 71172, Note_on_c, 3, 67, 0
5, 71184, Note_on_c, 3, 67, 120
5, 71220, Note_on_c, 3, 67, 0
5, 71232, Note_on_c, 3, 75, 120
5, 71268, Note_on_c, 3, 75, 0
5, 71280, Note_on_c, 3, 67, 120
5, 71316, Note_on_c, 3, 67, 0
5, 71328, Note_on_c, 3, 67, 120
5, 71364, Note_on_c, 3, 67, 0
5, 71376, Note_on_c, 3, 67, 120
5, 71412, Note_on_c, 3, 67, 0
5, 71424, Note_on_c, 3, 66, 120
5, 71460, Note_on_c, 3, 66, 0
5, 71472, Note_on_c, 3, 66, 120
5, 71508, Note_on_c, 3, 66, 0
5, 71520, Note_on_c, 3, 66, 120
5, 71556, Note_on_c, 3, 66, 0
5, 71568, Note_on_c, 3, 66, 120
5, 71604, Note_on_c, 3, 66, 0
5, 71616, Note_on_c, 3, 66, 120
5, 71652, Note_on_c, 3, 66, 0
5, 71664, Note_on_c, 3, 66, 120
5, 71700, Note_on_c, 3, 66, 0
5, 71712, Note_on_c, 3, 66, 120
5, 71748, Note_on_c, 3, 66, 0
5, 71760, Note_on_c, 3, 66, 120
5, 71796, Note_on_c, 3, 66, 0
5, 71808, Note_on_c, 3, 66, 120
5, 71844, Note_on_c, 3, 66, 0
5, 71856, Note_on_c, 3, 66, 120
5, 71892, Note_on_c, 3, 66, 0
5, 71904, Note_on_c, 3, 66, 120
5, 71940, Note_on_c, 3, 66, 0
5, 71952, Note_on_c, 3, 66, 120
5, 71988, Note_on_c, 3, 66, 0
5, 72000, Note_on_c, 3, 74, 120
5, 72036, Note_on_c, 3, 74, 0
5, 72048, Note_on_c, 3, 65, 120
5, 72084, Note_on_c, 3, 65, 0
5, 72096, Note_on_c, 3, 65, 120
5, 72132, Note_on_c, 3, 65, 0
5, 72144, Note_on_c, 3, 65, 120
5, 72180, Note_on_c, 3, 65, 0
5, 72192, Note_on_c, 3, 74, 120
5, 72228, Note_on_c, 3, 74, 0
5, 72240, Note_on_c, 3, 65, 120
5, 72276, Note_on_c, 3, 65, 0
5, 72288, Note_on_c, 3, 65, 120
5, 72324, Note_on_c, 3, 65, 0
5, 72336, Note_on_c, 3, 65, 120
5, 72372, Note_on_c, 3, 65, 0
5, 72384, Note_on_c, 3, 74, 120
5, 72420, Note_on_c, 3, 74, 0
5, 72432, Note_on_c, 3, 65, 120
5, 72468, Note_on_c, 3, 65, 0
5, 72480, Note_on_c, 3, 65, 120
5, 72516, Note_on_c, 3, 65, 0
5, 72528, Note_on_c, 3, 65, 120
5, 72564, Note_on_c, 3, 65, 0
5, 72576, Note_on_c, 3, 64, 120
5, 72612, Note_on_c, 3, 64, 0
5, 72624, Note_on_c, 3, 64, 120
5, 72660, Note_on_c, 3, 64, 0
5, 72672, Note_on_c, 3, 64, 120
5, 72708, Note_on_c, 3, 64, 0
5, 72720, Note_on_c, 3, 64, 120
5, 72756, Note_on_c, 3, 64, 0
5, 72768, Note_on_c, 3, 64, 120
5, 72804, Note_on_c, 3, 64, 0
5, 72816, Note_on_c, 3, 64, 120
5, 72852, Note_on_c, 3, 64, 0
5, 72864, Note_on_c, 3, 64, 120
5, 72900, Note_on_c, 3, 64, 0
5, 72912, Note_on_c, 3, 64, 120
5, 72948, Note_on_c, 3, 64, 0
5, 72960, Note_on_c, 3, 64, 120
5, 72996, Note_on_c, 3, 64, 0
5, 73008, Note_on_c, 3, 64, 120
5, 73044, Note_on_c, 3, 64, 0
5, 73056, Note_on_c, 3, 64, 120
5, 73092, Note_on_c, 3, 64, 0
5, 73104, Note_on_c, 3, 64, 120
5, 73140, Note_on_c, 3, 64, 0
5, 73152, Note_on_c, 3, 72, 120
5, 73188, Note_on_c, 3, 72, 0
5, 73200, Note_on_c, 3, 63, 120
5, 73236, Note_on_c, 3, 63, 0
5, 73248, Note_on_c, 3, 63, 120
5, 73284, Note_on_c, 3, 63, 0
5, 73296, Note_on_c, 3, 63, 120
5, 73332, Note_on_c, 3, 63, 0
5, 73344, Note_on_c, 3, 72, 120
5, 73380, Note_on_c, 3, 72, 0
5, 73392, Note_on_c, 3, 63, 120
5, 73428, Note_on_c, 3, 63, 0
5, 73440, Note_on_c, 3, 63, 120
5, 73476, Note_on_c, 3, 63, 0
5, 73488, Note_on_c, 3, 63, 120
5, 73524, Note_on_c, 3, 63, 0
5, 73536, Note_on_c, 3, 72, 120
5, 73572, Note_on_c, 3, 72, 0
5, 73584, Note_on_c, 3, 63, 120
5, 73620, Note_on_c, 3, 63, 0
5, 73632, Note_on_c, 3, 63, 120
5, 73668, Note_on_c, 3, 63, 0
5, 73680, Note_on_c, 3, 63, 120
5, 73716, Note_on_c, 3, 63, 0
5, 73728, Note_on_c, 3, 62, 120
5, 73920, Note_on_c, 3, 62, 0
5, 76608, Note_on_c, 3, 55, 120
5, 76644, Note_on_c, 3, 55, 0
5, 76656, Note_on_c, 3, 55, 120
5, 76692, Note_on_c, 3, 55, 0
5, 76704, Note_on_c, 3, 55, 120
5, 76740, Note_on_c, 3, 55, 0
5, 76752, Note_on_c, 3, 55, 120
5, 76788, Note_on_c, 3, 55, 0
5, 76800, Note_on_c, 3, 55, 120
5, 76836, Note_on_c, 3, 55, 0
5, 76848, Note_on_c, 3, 55, 120
5, 76884, Note_on_c, 3, 55, 0
5, 76896, Note_on_c, 3, 55, 120
5, 76932, Note_on_c, 3, 55, 0
5, 76944, Note_on_c, 3, 55, 120
5, 76980, Note_on_c, 3, 55, 0
5, 76992, Note_on_c, 3, 55, 120
5, 77028, Note_on_c, 3, 55, 0
5, 77040, Note_on_c, 3, 55, 120
5, 77076, Note_on_c, 3, 55, 0
5, 77088, Note_on_c, 3, 55, 120
5, 77124, Note_on_c, 3, 55, 0
5, 77136, Note_on_c, 3, 55, 120
5, 77172, Note_on_c, 3, 55, 0
5, 77184, Note_on_c, 3, 55, 120
5, 77220, Note_on_c, 3, 55, 0
5, 77232, Note_on_c, 3, 55, 120
5, 77268, Note_on_c, 3, 55, 0
5, 77280, Note_on_c, 3, 55, 120
5, 77316, Note_on_c, 3, 55, 0
5, 77328, Note_on_c, 3, 55, 120
5, 77364, Note_on_c, 3, 55, 0
5, 77376, Note_on_c, 3, 55, 120
5, 77412, Note_on_c, 3, 55, 0
5, 77424, Note_on_c, 3, 55, 120
5, 77460, Note_on_c, 3, 55, 0
5, 77472, Note_on_c, 3, 55, 120
5, 77508, Note_on_c, 3, 55, 0
5, 77520, Note_on_c, 3, 55, 120
5, 77556, Note_on_c, 3, 55, 0
5, 77568, Note_on_c, 3, 55, 120
5, 77604, Note_on_c, 3, 55, 0
5, 77616, Note_on_c, 3, 55, 120
5, 77652, Note_on_c, 3, 55, 0
5, 77664, Note_on_c, 3, 55, 120
5, 77700, Note_on_c, 3, 55, 0
5, 77712, Note_on_c, 3, 55, 120
5, 77748, Note_on_c, 3, 55, 0
5, 77760, Note_on_c, 3, 60, 120
5, 77796, Note_on_c, 3, 60, 0
5, 77808, Note_on_c, 3, 60, 120
5, 77844, Note_on_c, 3, 60, 0
5, 77856, Note_on_c, 3, 60, 120
5, 77892, Note_on_c, 3, 60, 0
5, 77904, Note_on_c, 3, 60, 120
5, 77940, Note_on_c, 3, 60, 0
5, 77952, Note_on_c, 3, 60, 120
5, 77988, Note_on_c, 3, 60, 0
5, 78000, Note_on_c, 3, 60, 120
5, 78036, Note_on_c, 3, 60, 0
5, 78048, Note_on_c, 3, 60, 120
5, 78084, Note_on_c, 3, 60, 0
5, 78096, Note_on_c, 3, 60, 120
5, 78132, Note_on_c, 3, 60, 0
5, 78144, Note_on_c, 3, 60, 120
5, 78180, Note_on_c, 3, 60, 0
5, 78192, Note_on_c, 3, 60, 120
5, 78228, Note_on_c, 3, 60, 0
5, 78240, Note_on_c, 3, 60, 120
5, 78276, Note_on_c, 3, 60, 0
5, 78288, Note_on_c, 3, 60, 120
5, 78324, Note_on_c, 3, 60, 0
5, 78336, Note_on_c, 3, 60, 120
5, 78372, Note_on_c, 3, 60, 0
5, 78384, Note_on_c, 3, 60, 120
5, 78420, Note_on_c, 3, 60, 0
5, 78432, Note_on_c, 3, 60, 120
5, 78468, Note_on_c, 3, 60, 0
5, 78480, Note_on_c, 3, 60, 120
5, 78516, Note_on_c, 3, 60, 0
5, 78528, Note_on_c, 3, 60, 120
5, 78564, Note_on_c, 3, 60, 0
5, 78576, Note_on_c, 3, 60, 120
5, 78612, Note_on_c, 3, 60, 0
5, 78624, Note_on_c, 3, 60, 120
5, 78660, Note_on_c, 3, 60, 0
5, 78672, Note_on_c, 3, 60, 120
5, 78708, Note_on_c, 3, 60, 0
5, 78720, Note_on_c, 3, 60, 120
5, 78756, Note_on_c, 3, 60, 0
5, 78768, Note_on_c, 3, 60, 120
5, 78804, Note_on_c, 3, 60, 0
5, 78816, Note_on_c, 3, 60, 120
5, 78852, Note_on_c, 3, 60, 0
5, 78864, Note_on_c, 3, 60, 120
5, 78900, Note_on_c, 3, 60, 0
5, 78912, Note_on_c, 3, 63, 120
5, 78948, Note_on_c, 3, 63, 0
5, 78960, Note_on_c, 3, 63, 120
5, 78996, Note_on_c, 3, 63, 0
5, 79008, Note_on_c, 3, 63, 120
5, 79044, Note_on_c, 3, 63, 0
5, 79056, Note_on_c, 3, 63, 120
5, 79092, Note_on_c, 3, 63, 0
5, 79104, Note_on_c, 3, 63, 120
5, 79140, Note_on_c, 3, 63, 0
5, 79152, Note_on_c, 3, 63, 120
5, 79188, Note_on_c, 3, 63, 0
5, 79200, Note_on_c, 3, 63, 120
5, 79236, Note_on_c, 3, 63, 0
5, 79248, Note_on_c, 3, 63, 120
5, 79284, Note_on_c, 3, 63, 0
5, 79296, Note_on_c, 3, 63, 120
5, 79332, Note_on_c, 3, 63, 0
5, 79344, Note_on_c, 3, 63, 120
5, 79380, Note_on_c, 3, 63, 0
5, 79392, Note_on_c, 3, 63, 120
5, 79428, Note_on_c, 3, 63, 0
5, 79440, Note_on_c, 3, 63, 120
5, 79476, Note_on_c, 3, 63, 0
5, 79488, Note_on_c, 3, 63, 120
5, 79524, Note_on_c, 3, 63, 0
5, 79536, Note_on_c, 3, 63, 120
5, 79572, Note_on_c, 3, 63, 0
5, 79584, Note_on_c, 3, 63, 120
5, 79620, Note_on_c, 3, 63, 0
5, 79632, Note_on_c, 3, 63, 120
5, 79668, Note_on_c, 3, 63, 0
5, 79680, Note_on_c, 3, 63, 120
5, 79716, Note_on_c, 3, 63, 0
5, 79728, Note_on_c, 3, 63, 120
5, 79764, Note_on_c, 3, 63, 0
5, 79776, Note_on_c, 3, 63, 120
5, 79812, Note_on_c, 3, 63, 0
5, 79824, Note_on_c, 3, 63, 120
5, 79860, Note_on_c, 3, 63, 0
5, 79872, Note_on_c, 3, 63, 120
5, 79908, Note_on_c, 3, 63, 0
5, 79920, Note_on_c, 3, 63, 120
5, 79956, Note_on_c, 3, 63, 0
5, 79968, Note_on_c, 3, 63, 120
5, 80004, Note_on_c, 3, 63, 0
5, 80016, Note_on_c, 3, 63, 120
5, 80052, Note_on_c, 3, 63, 0
5, 80064, Note_on_c, 3, 67, 120
5, 80100, Note_on_c, 3, 67, 0
5, 80112, Note_on_c, 3, 67, 120
5, 80148, Note_on_c, 3, 67, 0
5, 80160, Note_on_c, 3, 67, 120
5, 80196, Note_on_c, 3, 67, 0
5, 80208, Note_on_c, 3, 67, 120
5, 80244, Note_on_c, 3, 67, 0
5, 80256, Note_on_c, 3, 67, 120
5, 80292, Note_on_c, 3, 67, 0
5, 80304, Note_on_c, 3, 67, 120
5, 80340, Note_on_c, 3, 67, 0
5, 80352, Note_on_c, 3, 67, 120
5, 80388, Note_on_c, 3, 67, 0
5, 80400, Note_on_c, 3, 67, 120
5, 80436, Note_on_c, 3, 67, 0
5, 80448, Note_on_c, 3, 67, 120
5, 80484, Note_on_c, 3, 67, 0
5, 80496, Note_on_c, 3, 67, 120
5, 80532, Note_on_c, 3, 67, 0
5, 80544, Note_on_c, 3, 67, 120
5, 80580, Note_on_c, 3, 67, 0
5, 80592, Note_on_c, 3, 67, 120
5, 80628, Note_on_c, 3, 67, 0
5, 80640, Note_on_c, 3, 67, 120
5, 80784, Note_on_c, 3, 67, 0
5, 80832, Note_on_c, 3, 55, 120
5, 80976, Note_on_c, 3, 55, 0
5, 81024, Note_on_c, 3, 55, 120
5, 81168, Note_on_c, 3, 55, 0
5, 81216, Note_on_c, 3, 55, 120
5, 81360, Note_on_c, 3, 55, 0
5, 81408, Note_on_c, 3, 55, 120
5, 81552, Note_on_c, 3, 55, 0
5, 81600, Note_on_c, 3, 55, 120
5, 81744, Note_on_c, 3, 55, 0
5, 81792, Note_on_c, 3, 55, 120
5, 81936, Note_on_c, 3, 55, 0
5, 81984, Note_on_c, 3, 55, 120
5, 82128, Note_on_c, 3, 55, 0
5, 82176, Note_on_c, 3, 55, 120
5, 82320, Note_on_c, 3, 55, 0
5, 82368, Note_on_c, 3, 55, 120
5, 82512, Note_on_c, 3, 55, 0
5, 82560, Note_on_c, 3, 55, 120
5, 82704, Note_on_c, 3, 55, 0
5, 82752, Note_on_c, 3, 55, 120
5, 82896, Note_on_c, 3, 55, 0
5, 82944, Note_on_c, 3, 55, 120
5, 83088, Note_on_c, 3, 55, 0
5, 84096, Note_on_c, 3, 58, 120
5, 84132, Note_on_c, 3, 58, 0
5, 84144, Note_on_c, 3, 55, 120
5, 84180, Note_on_c, 3, 55, 0
5, 84192, Note_on_c, 3, 58, 120
5, 84228, Note_on_c, 3, 58, 0
5, 84240, Note_on_c, 3, 55, 120
5, 84276, Note_on_c, 3, 55, 0
5, 84288, Note_on_c, 3, 58, 120
5, 84324, Note_on_c, 3, 58, 0
5, 84336, Note_on_c, 3, 55, 120
5, 84372, Note_on_c, 3, 55, 0
5, 84384, Note_on_c, 3, 58, 120
5, 84420, Note_on_c, 3, 58, 0
5, 84432, Note_on_c, 3, 55, 120
5, 84468, Note_on_c, 3, 55, 0
5, 84480, Note_on_c, 3, 58, 120
5, 84516, Note_on_c, 3, 58, 0
5, 84528, Note_on_c, 3, 55, 120
5, 84564, Note_on_c, 3, 55, 0
5, 84576, Note_on_c, 3, 58, 120
5, 84612, Note_on_c, 3, 58, 0
5, 84624, Note_on_c, 3, 55, 120
5, 84660, Note_on_c, 3, 55, 0
5, 84672, Note_on_c, 3, 62, 120
5, 84864, Note_on_c, 3, 62, 0
5, 86976, Note_on_c, 3, 62, 120
5, 87168, Note_on_c, 3, 62, 0
5, 87216, Note_on_c, 3, 74, 120
5, 87252, Note_on_c, 3, 74, 0
5, 87264, Note_on_c, 3, 72, 120
5, 87300, Note_on_c, 3, 72, 0
5, 87312, Note_on_c, 3, 70, 120
5, 87348, Note_on_c, 3, 70, 0
5, 87360, Note_on_c, 3, 69, 120
5, 87396, Note_on_c, 3, 69, 0
5, 87408, Note_on_c, 3, 67, 120
5, 87444, Note_on_c, 3, 67, 0
5, 87456, Note_on_c, 3, 66, 120
5, 87492, Note_on_c, 3, 66, 0
5, 87504, Note_on_c, 3, 64, 120
5, 87540, Note_on_c, 3, 64, 0
5, 87552, Note_on_c, 3, 62, 120
5, 87588, Note_on_c, 3, 62, 0
5, 87600, Note_on_c, 3, 62, 120
5, 87636, Note_on_c, 3, 62, 0
5, 87648, Note_on_c, 3, 62, 120
5, 87684, Note_on_c, 3, 62, 0
5, 87696, Note_on_c, 3, 62, 120
5, 87732, Note_on_c, 3, 62, 0
5, 87744, Note_on_c, 3, 62, 120
5, 87780, Note_on_c, 3, 62, 0
5, 87792, Note_on_c, 3, 62, 120
5, 87828, Note_on_c, 3, 62, 0
5, 87840, Note_on_c, 3, 62, 120
5, 87876, Note_on_c, 3, 62, 0
5, 87888, Note_on_c, 3, 62, 120
5, 87924, Note_on_c, 3, 62, 0
5, 87936, Note_on_c, 3, 62, 120
5, 87972, Note_on_c, 3, 62, 0
5, 87984, Note_on_c, 3, 62, 120
5, 88020, Note_on_c, 3, 62, 0
5, 88032, Note_on_c, 3, 62, 120
5, 88068, Note_on_c, 3, 62, 0
5, 88080, Note_on_c, 3, 62, 120
5, 88116, Note_on_c, 3, 62, 0
5, 88128, Note_on_c, 3, 63, 120
5, 88164, Note_on_c, 3, 63, 0
5, 88176, Note_on_c, 3, 63, 120
5, 88212, Note_on_c, 3, 63, 0
5, 88224, Note_on_c, 3, 63, 120
5, 88260, Note_on_c, 3, 63, 0
5, 88272, Note_on_c, 3, 63, 120
5, 88308, Note_on_c, 3, 63, 0
5, 88320, Note_on_c, 3, 63, 120
5, 88356, Note_on_c, 3, 63, 0
5, 88368, Note_on_c, 3, 63, 120
5, 88404, Note_on_c, 3, 63, 0
5, 88416, Note_on_c, 3, 63, 120
5, 88452, Note_on_c, 3, 63, 0
5, 88464, Note_on_c, 3, 63, 120
5, 88500, Note_on_c, 3, 63, 0
5, 88512, Note_on_c, 3, 63, 120
5, 88548, Note_on_c, 3, 63, 0
5, 88560, Note_on_c, 3, 63, 120
5, 88596, Note_on_c, 3, 63, 0
5, 88608, Note_on_c, 3, 63, 120
5, 88644, Note_on_c, 3, 63, 0
5, 88656, Note_on_c, 3, 63, 120
5, 88692, Note_on_c, 3, 63, 0
5, 88704, Note_on_c, 3, 62, 120
5, 88740, Note_on_c, 3, 62, 0
5, 88752, Note_on_c, 3, 62, 120
5, 88788, Note_on_c, 3, 62, 0
5, 88800, Note_on_c, 3, 62, 120
5, 88836, Note_on_c, 3, 62, 0
5, 88848, Note_on_c, 3, 62, 120
5, 88884, Note_on_c, 3, 62, 0
5, 88896, Note_on_c, 3, 62, 120
5, 88932, Note_on_c, 3, 62, 0
5, 88944, Note_on_c, 3, 62, 120
5, 88980, Note_on_c, 3, 62, 0
5, 88992, Note_on_c, 3, 62, 120
5, 89028, Note_on_c, 3, 62, 0
5, 89040, Note_on_c, 3, 62, 120
5, 89076, Note_on_c, 3, 62, 0
5, 89088, Note_on_c, 3, 62, 120
5, 89124, Note_on_c, 3, 62, 0
5, 89136, Note_on_c, 3, 62, 120
5, 89172, Note_on_c, 3, 62, 0
5, 89184, Note_on_c, 3, 62, 120
5, 89220, Note_on_c, 3, 62, 0
5, 89232, Note_on_c, 3, 62, 120
5, 89268, Note_on_c, 3, 62, 0
5, 89280, Note_on_c, 3, 58, 120
5, 89316, Note_on_c, 3, 58, 0
5, 89328, Note_on_c, 3, 58, 120
5, 89364, Note_on_c, 3, 58, 0
5, 89376, Note_on_c, 3, 58, 120
5, 89412, Note_on_c, 3, 58, 0
5, 89424, Note_on_c, 3, 58, 120
5, 89460, Note_on_c, 3, 58, 0
5, 89472, Note_on_c, 3, 62, 120
5, 89508, Note_on_c, 3, 62, 0
5, 89520, Note_on_c, 3, 62, 120
5, 89556, Note_on_c, 3, 62, 0
5, 89568, Note_on_c, 3, 62, 120
5, 89604, Note_on_c, 3, 62, 0
5, 89616, Note_on_c, 3, 62, 120
5, 89652, Note_on_c, 3, 62, 0
5, 89664, Note_on_c, 3, 62, 120
5, 89700, Note_on_c, 3, 62, 0
5, 89712, Note_on_c, 3, 62, 120
5, 89748, Note_on_c, 3, 62, 0
5, 89760, Note_on_c, 3, 62, 120
5, 89796, Note_on_c, 3, 62, 0
5, 89808, Note_on_c, 3, 62, 120
5, 89844, Note_on_c, 3, 62, 0
5, 89856, Note_on_c, 3, 63, 120
5, 89892, Note_on_c, 3, 63, 0
5, 89904, Note_on_c, 3, 63, 120
5, 89940, Note_on_c, 3, 63, 0
5, 89952, Note_on_c, 3, 63, 120
5, 89988, Note_on_c, 3, 63, 0
5, 90000, Note_on_c, 3, 63, 120
5, 90036, Note_on_c, 3, 63, 0
5, 90048, Note_on_c, 3, 63, 120
5, 90084, Note_on_c, 3, 63, 0
5, 90096, Note_on_c, 3, 63, 120
5, 90132, Note_on_c, 3, 63, 0
5, 90144, Note_on_c, 3, 63, 120
5, 90180, Note_on_c, 3, 63, 0
5, 90192, Note_on_c, 3, 63, 120
5, 90228, Note_on_c, 3, 63, 0
5, 90240, Note_on_c, 3, 63, 120
5, 90276, Note_on_c, 3, 63, 0
5, 90288, Note_on_c, 3, 63, 120
5, 90324, Note_on_c, 3, 63, 0
5, 90336, Note_on_c, 3, 63, 120
5, 90372, Note_on_c, 3, 63, 0
5, 90384, Note_on_c, 3, 63, 120
5, 90420, Note_on_c, 3, 63, 0
5, 90432, Note_on_c, 3, 62, 120
5, 90468, Note_on_c, 3, 62, 0
5, 90480, Note_on_c, 3, 62, 120
5, 90516, Note_on_c, 3, 62, 0
5, 90528, Note_on_c, 3, 62, 120
5, 90564, Note_on_c, 3, 62, 0
5, 90576, Note_on_c, 3, 62, 120
5, 90612, Note_on_c, 3, 62, 0
5, 90624, Note_on_c, 3, 62, 120
5, 90660, Note_on_c, 3, 62, 0
5, 90672, Note_on_c, 3, 62, 120
5, 90708, Note_on_c, 3, 62, 0
5, 90720, Note_on_c, 3, 62, 120
5, 90756, Note_on_c, 3, 62, 0
5, 90768, Note_on_c, 3, 62, 120
5, 90804, Note_on_c, 3, 62, 0
5, 90816, Note_on_c, 3, 62, 120
5, 90852, Note_on_c, 3, 62, 0
5, 90864, Note_on_c, 3, 62, 120
5, 90900, Note_on_c, 3, 62, 0
5, 90912, Note_on_c, 3, 62, 120
5, 90948, Note_on_c, 3, 62, 0
5, 90960, Note_on_c, 3, 62, 120
5, 90996, Note_on_c, 3, 62, 0
5, 91008, Note_on_c, 3, 62, 120
5, 91044, Note_on_c, 3, 62, 0
5, 91056, Note_on_c, 3, 58, 120
5, 91092, Note_on_c, 3, 58, 0
5, 91104, Note_on_c, 3, 58, 120
5, 91140, Note_on_c, 3, 58, 0
5, 91152, Note_on_c, 3, 58, 120
5, 91188, Note_on_c, 3, 58, 0
5, 91200, Note_on_c, 3, 62, 120
5, 91236, Note_on_c, 3, 62, 0
5, 91248, Note_on_c, 3, 62, 120
5, 91284, Note_on_c, 3, 62, 0
5, 91296, Note_on_c, 3, 62, 120
5, 91332, Note_on_c, 3, 62, 0
5, 91344, Note_on_c, 3, 62, 120
5, 91380, Note_on_c, 3, 62, 0
5, 91392, Note_on_c, 3, 67, 120
5, 91428, Note_on_c, 3, 67, 0
5, 91440, Note_on_c, 3, 67, 120
5, 91476, Note_on_c, 3, 67, 0
5, 91488, Note_on_c, 3, 67, 120
5, 91524, Note_on_c, 3, 67, 0
5, 91536, Note_on_c, 3, 67, 120
5, 91572, Note_on_c, 3, 67, 0
5, 91584, Note_on_c, 3, 70, 120
5, 91620, Note_on_c, 3, 70, 0
5, 91632, Note_on_c, 3, 70, 120
5, 91668, Note_on_c, 3, 70, 0
5, 91680, Note_on_c, 3, 70, 120
5, 91716, Note_on_c, 3, 70, 0
5, 91728, Note_on_c, 3, 70, 120
5, 91764, Note_on_c, 3, 70, 0
5, 91776, Note_on_c, 3, 74, 120
5, 91812, Note_on_c, 3, 74, 0
5, 91824, Note_on_c, 3, 74, 120
5, 91860, Note_on_c, 3, 74, 0
5, 91872, Note_on_c, 3, 74, 120
5, 91908, Note_on_c, 3, 74, 0
5, 91920, Note_on_c, 3, 74, 120
5, 91956, Note_on_c, 3, 74, 0
5, 91968, Note_on_c, 3, 62, 120
5, 92004, Note_on_c, 3, 62, 0
5, 92016, Note_on_c, 3, 62, 120
5, 92052, Note_on_c, 3, 62, 0
5, 92064, Note_on_c, 3, 62, 120
5, 92100, Note_on_c, 3, 62, 0
5, 92112, Note_on_c, 3, 62, 120
5, 92148, Note_on_c, 3, 62, 0
5, 92160, Note_on_c, 3, 58, 120
5, 92196, Note_on_c, 3, 58, 0
5, 92208, Note_on_c, 3, 58, 120
5, 92244, Note_on_c, 3, 58, 0
5, 92256, Note_on_c, 3, 58, 120
5, 92292, Note_on_c, 3, 58, 0
5, 92304, Note_on_c, 3, 58, 120
5, 92340, Note_on_c, 3, 58, 0
5, 92352, Note_on_c, 3, 55, 120
5, 92388, Note_on_c, 3, 55, 0
5, 92400, Note_on_c, 3, 55, 120
5, 92436, Note_on_c, 3, 55, 0
5, 92448, Note_on_c, 3, 55, 120
5, 92484, Note_on_c, 3, 55, 0
5, 92496, Note_on_c, 3, 55, 120
5, 92532, Note_on_c, 3, 55, 0
5, 92544, Note_on_c, 3, 62, 120
5, 92580, Note_on_c, 3, 62, 0
5, 92592, Note_on_c, 3, 62, 120
5, 92628, Note_on_c, 3, 62, 0
5, 92640, Note_on_c, 3, 62, 120
5, 92676, Note_on_c, 3, 62, 0
5, 92688, Note_on_c, 3, 62, 120
5, 92724, Note_on_c, 3, 62, 0
5, 92928, Note_on_c, 3, 55, 120
5, 93312, Note_on_c, 3, 55, 0
5, 93312, End_track
6, 0, Start_track
6, 0, MIDI_port, 0
6, 0, Title_t, "Cello Ensemble      "
6, 0, Program_c, 4, 48
6, 0, Control_c, 4, 7, 60
6, 0, Control_c, 4, 10, 94
6, 1920, Control_c, 4, 7, 127
6, 1920, Note_on_c, 4, 43, 127
6, 2016, Note_on_c, 4, 43, 0
6, 2016, Note_on_c, 4, 43, 127
6, 2064, Note_on_c, 4, 43, 0
6, 2064, Note_on_c, 4, 43, 127
6, 2112, Note_on_c, 4, 43, 0
6, 2112, Note_on_c, 4, 43, 127
6, 2160, Note_on_c, 4, 43, 0
6, 2160, Note_on_c, 4, 43, 127
6, 2208, Note_on_c, 4, 43, 0
6, 2208, Note_on_c, 4, 43, 127
6, 2256, Note_on_c, 4, 43, 0
6, 2256, Note_on_c, 4, 43, 127
6, 2304, Note_on_c, 4, 43, 0
6, 2304, Note_on_c, 4, 43, 127
6, 2352, Note_on_c, 4, 43, 0
6, 2352, Note_on_c, 4, 43, 127
6, 2400, Note_on_c, 4, 43, 0
6, 2400, Note_on_c, 4, 43, 127
6, 2448, Note_on_c, 4, 43, 0
6, 2448, Note_on_c, 4, 43, 127
6, 2496, Note_on_c, 4, 43, 0
6, 2496, Note_on_c, 4, 43, 127
6, 2544, Note_on_c, 4, 43, 0
6, 2544, Note_on_c, 4, 43, 127
6, 2592, Note_on_c, 4, 43, 0
6, 2592, Note_on_c, 4, 43, 127
6, 2640, Note_on_c, 4, 43, 0
6, 2640, Note_on_c, 4, 43, 127
6, 2688, Note_on_c, 4, 43, 0
6, 2688, Note_on_c, 4, 43, 127
6, 2880, Note_on_c, 4, 43, 0
6, 5760, Control_c, 4, 7, 127
6, 5760, Note_on_c, 4, 46, 127
6, 5856, Note_on_c, 4, 46, 0
6, 5856, Note_on_c, 4, 46, 127
6, 5904, Note_on_c, 4, 46, 0
6, 5904, Note_on_c, 4, 46, 127
6, 5952, Note_on_c, 4, 46, 0
6, 5952, Note_on_c, 4, 46, 127
6, 6000, Note_on_c, 4, 46, 0
6, 6000, Note_on_c, 4, 46, 127
6, 6048, Note_on_c, 4, 46, 0
6, 6048, Note_on_c, 4, 46, 127
6, 6096, Note_on_c, 4, 46, 0
6, 6096, Note_on_c, 4, 46, 127
6, 6144, Note_on_c, 4, 46, 0
6, 6144, Note_on_c, 4, 46, 127
6, 6192, Note_on_c, 4, 46, 0
6, 6192, Note_on_c, 4, 46, 127
6, 6240, Note_on_c, 4, 46, 0
6, 6240, Note_on_c, 4, 46, 127
6, 6288, Note_on_c, 4, 46, 0
6, 6288, Note_on_c, 4, 46, 127
6, 6336, Note_on_c, 4, 46, 0
6, 6336, Note_on_c, 4, 46, 127
6, 6384, Note_on_c, 4, 46, 0
6, 6384, Note_on_c, 4, 46, 127
6, 6432, Note_on_c, 4, 46, 0
6, 6432, Note_on_c, 4, 46, 127
6, 6480, Note_on_c, 4, 46, 0
6, 6480, Note_on_c, 4, 46, 127
6, 6528, Note_on_c, 4, 46, 0
6, 6528, Note_on_c, 4, 46, 127
6, 6720, Note_on_c, 4, 46, 0
6, 11520, Control_c, 4, 7, 127
6, 11520, Note_on_c, 4, 43, 127
6, 11616, Note_on_c, 4, 43, 0
6, 11616, Note_on_c, 4, 43, 127
6, 11648, Note_on_c, 4, 43, 0
6, 11664, Note_on_c, 4, 43, 127
6, 11696, Note_on_c, 4, 43, 0
6, 11712, Note_on_c, 4, 43, 127
6, 11744, Note_on_c, 4, 43, 0
6, 11760, Note_on_c, 4, 43, 127
6, 11792, Note_on_c, 4, 43, 0
6, 11808, Note_on_c, 4, 43, 127
6, 11840, Note_on_c, 4, 43, 0
6, 11856, Note_on_c, 4, 43, 127
6, 11888, Note_on_c, 4, 43, 0
6, 11904, Note_on_c, 4, 43, 127
6, 11936, Note_on_c, 4, 43, 0
6, 11952, Note_on_c, 4, 43, 127
6, 11984, Note_on_c, 4, 43, 0
6, 12000, Note_on_c, 4, 43, 127
6, 12032, Note_on_c, 4, 43, 0
6, 12048, Note_on_c, 4, 43, 127
6, 12080, Note_on_c, 4, 43, 0
6, 12096, Note_on_c, 4, 43, 127
6, 12128, Note_on_c, 4, 43, 0
6, 12144, Note_on_c, 4, 43, 127
6, 12176, Note_on_c, 4, 43, 0
6, 12192, Note_on_c, 4, 43, 127
6, 12224, Note_on_c, 4, 43, 0
6, 12240, Note_on_c, 4, 43, 127
6, 12272, Note_on_c, 4, 43, 0
6, 12288, Note_on_c, 4, 43, 127
6, 12480, Note_on_c, 4, 43, 0
6, 14592, Control_c, 4, 7, 127
6, 14592, Note_on_c, 4, 43, 127
6, 14688, Note_on_c, 4, 43, 0
6, 14688, Note_on_c, 4, 43, 127
6, 14720, Note_on_c, 4, 43, 0
6, 14736, Note_on_c, 4, 43, 127
6, 14768, Note_on_c, 4, 43, 0
6, 14784, Note_on_c, 4, 43, 127
6, 14816, Note_on_c, 4, 43, 0
6, 14832, Note_on_c, 4, 43, 127
6, 14864, Note_on_c, 4, 43, 0
6, 14880, Note_on_c, 4, 43, 127
6, 14912, Note_on_c, 4, 43, 0
6, 14928, Note_on_c, 4, 43, 127
6, 14960, Note_on_c, 4, 43, 0
6, 14976, Note_on_c, 4, 43, 127
6, 15008, Note_on_c, 4, 43, 0
6, 15024, Note_on_c, 4, 43, 127
6, 15056, Note_on_c, 4, 43, 0
6, 15072, Note_on_c, 4, 43, 127
6, 15104, Note_on_c, 4, 43, 0
6, 15120, Note_on_c, 4, 43, 127
6, 15152, Note_on_c, 4, 43, 0
6, 15168, Note_on_c, 4, 43, 127
6, 15200, Note_on_c, 4, 43, 0
6, 15216, Note_on_c, 4, 43, 127
6, 15248, Note_on_c, 4, 43, 0
6, 15264, Note_on_c, 4, 43, 127
6, 15296, Note_on_c, 4, 43, 0
6, 15312, Note_on_c, 4, 43, 127
6, 15344, Note_on_c, 4, 43, 0
6, 15360, Note_on_c, 4, 43, 127
6, 15552, Note_on_c, 4, 43, 0
6, 15720, Control_c, 4, 7, 60
6, 17688, Control_c, 4, 7, 100
6, 18432, Note_on_c, 4, 55, 100
6, 18468, Note_on_c, 4, 55, 0
6, 18480, Note_on_c, 4, 43, 100
6, 18516, Note_on_c, 4, 43, 0
6, 18528, Note_on_c, 4, 43, 100
6, 18564, Note_on_c, 4, 43, 0
6, 18576, Note_on_c, 4, 43, 100
6, 18612, Note_on_c, 4, 43, 0
6, 18624, Note_on_c, 4, 43, 100
6, 18660, Note_on_c, 4, 43, 0
6, 18672, Note_on_c, 4, 43, 100
6, 18708, Note_on_c, 4, 43, 0
6, 18720, Note_on_c, 4, 43, 100
6, 18756, Note_on_c, 4, 43, 0
6, 18768, Note_on_c, 4, 43, 100
6, 18804, Note_on_c, 4, 43, 0
6, 18816, Note_on_c, 4, 43, 100
6, 18852, Note_on_c, 4, 43, 0
6, 18864, Note_on_c, 4, 43, 100
6, 18900, Note_on_c, 4, 43, 0
6, 18912, Note_on_c, 4, 43, 100
6, 18948, Note_on_c, 4, 43, 0
6, 18960, Note_on_c, 4, 43, 100
6, 18996, Note_on_c, 4, 43, 0
6, 19008, Note_on_c, 4, 53, 100
6, 19044, Note_on_c, 4, 53, 0
6, 19056, Note_on_c, 4, 43, 100
6, 19092, Note_on_c, 4, 43, 0
6, 19104, Note_on_c, 4, 43, 100
6, 19140, Note_on_c, 4, 43, 0
6, 19152, Note_on_c, 4, 43, 100
6, 19188, Note_on_c, 4, 43, 0
6, 19200, Note_on_c, 4, 43, 100
6, 19236, Note_on_c, 4, 43, 0
6, 19248, Note_on_c, 4, 43, 100
6, 19284, Note_on_c, 4, 43, 0
6, 19296, Note_on_c, 4, 43, 100
6, 19332, Note_on_c, 4, 43, 0
6, 19344, Note_on_c, 4, 43, 100
6, 19380, Note_on_c, 4, 43, 0
6, 19392, Note_on_c, 4, 43, 100
6, 19428, Note_on_c, 4, 43, 0
6, 19440, Note_on_c, 4, 43, 100
6, 19476, Note_on_c, 4, 43, 0
6, 19488, Note_on_c, 4, 43, 100
6, 19524, Note_on_c, 4, 43, 0
6, 19536, Note_on_c, 4, 43, 100
6, 19572, Note_on_c, 4, 43, 0
6, 19584, Note_on_c, 4, 51, 100
6, 19620, Note_on_c, 4, 51, 0
6, 19632, Note_on_c, 4, 43, 100
6, 19668, Note_on_c, 4, 43, 0
6, 19680, Note_on_c, 4, 43, 100
6, 19716, Note_on_c, 4, 43, 0
6, 19728, Note_on_c, 4, 43, 100
6, 19764, Note_on_c, 4, 43, 0
6, 19776, Note_on_c, 4, 43, 100
6, 19812, Note_on_c, 4, 43, 0
6, 19824, Note_on_c, 4, 43, 100
6, 19860, Note_on_c, 4, 43, 0
6, 19872, Note_on_c, 4, 43, 100
6, 19908, Note_on_c, 4, 43, 0
6, 19920, Note_on_c, 4, 43, 100
6, 19956, Note_on_c, 4, 43, 0
6, 19968, Note_on_c, 4, 43, 100
6, 20004, Note_on_c, 4, 43, 0
6, 20016, Note_on_c, 4, 43, 100
6, 20052, Note_on_c, 4, 43, 0
6, 20064, Note_on_c, 4, 43, 100
6, 20100, Note_on_c, 4, 43, 0
6, 20112, Note_on_c, 4, 43, 100
6, 20148, Note_on_c, 4, 43, 0
6, 20160, Note_on_c, 4, 50, 100
6, 20196, Note_on_c, 4, 50, 0
6, 20208, Note_on_c, 4, 43, 100
6, 20244, Note_on_c, 4, 43, 0
6, 20256, Note_on_c, 4, 43, 100
6, 20292, Note_on_c, 4, 43, 0
6, 20304, Note_on_c, 4, 43, 100
6, 20340, Note_on_c, 4, 43, 0
6, 20352, Note_on_c, 4, 43, 100
6, 20388, Note_on_c, 4, 43, 0
6, 20400, Note_on_c, 4, 43, 100
6, 20436, Note_on_c, 4, 43, 0
6, 20448, Note_on_c, 4, 43, 100
6, 20484, Note_on_c, 4, 43, 0
6, 20496, Note_on_c, 4, 43, 100
6, 20532, Note_on_c, 4, 43, 0
6, 20544, Note_on_c, 4, 43, 100
6, 20580, Note_on_c, 4, 43, 0
6, 21312, Note_on_c, 4, 62, 100
6, 21348, Note_on_c, 4, 62, 0
6, 21360, Note_on_c, 4, 50, 100
6, 21396, Note_on_c, 4, 50, 0
6, 21408, Note_on_c, 4, 50, 100
6, 21444, Note_on_c, 4, 50, 0
6, 21456, Note_on_c, 4, 50, 100
6, 21492, Note_on_c, 4, 50, 0
6, 21504, Note_on_c, 4, 50, 100
6, 21540, Note_on_c, 4, 50, 0
6, 21552, Note_on_c, 4, 50, 100
6, 21588, Note_on_c, 4, 50, 0
6, 21600, Note_on_c, 4, 50, 100
6, 21636, Note_on_c, 4, 50, 0
6, 21648, Note_on_c, 4, 50, 100
6, 21684, Note_on_c, 4, 50, 0
6, 21696, Note_on_c, 4, 50, 100
6, 21732, Note_on_c, 4, 50, 0
6, 21744, Note_on_c, 4, 50, 100
6, 21780, Note_on_c, 4, 50, 0
6, 21792, Note_on_c, 4, 50, 100
6, 21828, Note_on_c, 4, 50, 0
6, 21840, Note_on_c, 4, 50, 100
6, 21876, Note_on_c, 4, 50, 0
6, 21888, Note_on_c, 4, 60, 100
6, 21924, Note_on_c, 4, 60, 0
6, 21936, Note_on_c, 4, 50, 100
6, 21972, Note_on_c, 4, 50, 0
6, 21984, Note_on_c, 4, 50, 100
6, 22020, Note_on_c, 4, 50, 0
6, 22032, Note_on_c, 4, 50, 100
6, 22068, Note_on_c, 4, 50, 0
6, 22080, Note_on_c, 4, 50, 100
6, 22116, Note_on_c, 4, 50, 0
6, 22128, Note_on_c, 4, 50, 100
6, 22164, Note_on_c, 4, 50, 0
6, 22176, Note_on_c, 4, 50, 100
6, 22212, Note_on_c, 4, 50, 0
6, 22224, Note_on_c, 4, 50, 100
6, 22260, Note_on_c, 4, 50, 0
6, 22272, Note_on_c, 4, 50, 100
6, 22308, Note_on_c, 4, 50, 0
6, 22320, Note_on_c, 4, 50, 100
6, 22356, Note_on_c, 4, 50, 0
6, 22368, Note_on_c, 4, 50, 100
6, 22404, Note_on_c, 4, 50, 0
6, 22416, Note_on_c, 4, 50, 100
6, 22452, Note_on_c, 4, 50, 0
6, 22464, Note_on_c, 4, 58, 100
6, 22500, Note_on_c, 4, 58, 0
6, 22512, Note_on_c, 4, 50, 100
6, 22548, Note_on_c, 4, 50, 0
6, 22560, Note_on_c, 4, 50, 100
6, 22596, Note_on_c, 4, 50, 0
6, 22608, Note_on_c, 4, 50, 100
6, 22644, Note_on_c, 4, 50, 0
6, 22656, Note_on_c, 4, 50, 100
6, 22692, Note_on_c, 4, 50, 0
6, 22704, Note_on_c, 4, 50, 100
6, 22740, Note_on_c, 4, 50, 0
6, 22752, Note_on_c, 4, 50, 100
6, 22788, Note_on_c, 4, 50, 0
6, 22800, Note_on_c, 4, 50, 100
6, 22836, Note_on_c, 4, 50, 0
6, 22848, Note_on_c, 4, 50, 100
6, 22884, Note_on_c, 4, 50, 0
6, 22896, Note_on_c, 4, 50, 100
6, 22932, Note_on_c, 4, 50, 0
6, 22944, Note_on_c, 4, 50, 100
6, 22980, Note_on_c, 4, 50, 0
6, 22992, Note_on_c, 4, 50, 100
6, 23028, Note_on_c, 4, 50, 0
6, 23040, Note_on_c, 4, 57, 100
6, 23076, Note_on_c, 4, 57, 0
6, 23088, Note_on_c, 4, 50, 100
6, 23124, Note_on_c, 4, 50, 0
6, 23136, Note_on_c, 4, 50, 100
6, 23172, Note_on_c, 4, 50, 0
6, 23184, Note_on_c, 4, 50, 100
6, 23220, Note_on_c, 4, 50, 0
6, 23232, Note_on_c, 4, 50, 100
6, 23268, Note_on_c, 4, 50, 0
6, 23280, Note_on_c, 4, 50, 100
6, 23316, Note_on_c, 4, 50, 0
6, 23328, Note_on_c, 4, 50, 100
6, 23364, Note_on_c, 4, 50, 0
6, 23376, Note_on_c, 4, 50, 100
6, 23412, Note_on_c, 4, 50, 0
6, 23424, Note_on_c, 4, 50, 100
6, 23460, Note_on_c, 4, 50, 0
6, 24192, Note_on_c, 4, 43, 100
6, 24264, Note_on_c, 4, 43, 0
6, 24288, Note_on_c, 4, 43, 100
6, 24360, Note_on_c, 4, 43, 0
6, 24384, Note_on_c, 4, 43, 100
6, 24456, Note_on_c, 4, 43, 0
6, 24480, Note_on_c, 4, 43, 100
6, 24552, Note_on_c, 4, 43, 0
6, 24576, Note_on_c, 4, 43, 100
6, 24648, Note_on_c, 4, 43, 0
6, 24672, Note_on_c, 4, 43, 100
6, 24744, Note_on_c, 4, 43, 0
6, 24768, Note_on_c, 4, 43, 100
6, 24840, Note_on_c, 4, 43, 0
6, 24864, Note_on_c, 4, 43, 100
6, 24936, Note_on_c, 4, 43, 0
6, 24960, Note_on_c, 4, 43, 100
6, 25032, Note_on_c, 4, 43, 0
6, 25056, Note_on_c, 4, 43, 100
6, 25128, Note_on_c, 4, 43, 0
6, 25152, Note_on_c, 4, 43, 100
6, 25224, Note_on_c, 4, 43, 0
6, 25248, Note_on_c, 4, 43, 100
6, 25320, Note_on_c, 4, 43, 0
6, 25344, Note_on_c, 4, 48, 100
6, 25416, Note_on_c, 4, 48, 0
6, 25440, Note_on_c, 4, 48, 100
6, 25512, Note_on_c, 4, 48, 0
6, 25536, Note_on_c, 4, 48, 100
6, 25608, Note_on_c, 4, 48, 0
6, 25632, Note_on_c, 4, 48, 100
6, 25704, Note_on_c, 4, 48, 0
6, 25728, Note_on_c, 4, 48, 100
6, 25800, Note_on_c, 4, 48, 0
6, 25824, Note_on_c, 4, 48, 100
6, 25896, Note_on_c, 4, 48, 0
6, 25920, Note_on_c, 4, 48, 100
6, 25992, Note_on_c, 4, 48, 0
6, 26016, Note_on_c, 4, 48, 100
6, 26088, Note_on_c, 4, 48, 0
6, 26112, Note_on_c, 4, 48, 100
6, 26184, Note_on_c, 4, 48, 0
6, 26208, Note_on_c, 4, 48, 100
6, 26280, Note_on_c, 4, 48, 0
6, 26304, Note_on_c, 4, 48, 100
6, 26376, Note_on_c, 4, 48, 0
6, 26400, Note_on_c, 4, 48, 100
6, 26472, Note_on_c, 4, 48, 0
6, 26496, Note_on_c, 4, 51, 100
6, 26568, Note_on_c, 4, 51, 0
6, 26592, Note_on_c, 4, 51, 100
6, 26664, Note_on_c, 4, 51, 0
6, 26688, Note_on_c, 4, 51, 100
6, 26760, Note_on_c, 4, 51, 0
6, 26784, Note_on_c, 4, 51, 100
6, 26856, Note_on_c, 4, 51, 0
6, 26880, Note_on_c, 4, 51, 100
6, 26952, Note_on_c, 4, 51, 0
6, 26976, Note_on_c, 4, 51, 100
6, 27048, Note_on_c, 4, 51, 0
6, 27072, Note_on_c, 4, 51, 100
6, 27144, Note_on_c, 4, 51, 0
6, 27168, Note_on_c, 4, 51, 100
6, 27240, Note_on_c, 4, 51, 0
6, 27264, Note_on_c, 4, 51, 100
6, 27336, Note_on_c, 4, 51, 0
6, 27360, Note_on_c, 4, 51, 100
6, 27432, Note_on_c, 4, 51, 0
6, 27456, Note_on_c, 4, 51, 100
6, 27528, Note_on_c, 4, 51, 0
6, 27552, Note_on_c, 4, 51, 100
6, 27624, Note_on_c, 4, 51, 0
6, 27648, Note_on_c, 4, 55, 100
6, 27720, Note_on_c, 4, 55, 0
6, 27744, Note_on_c, 4, 55, 100
6, 27816, Note_on_c, 4, 55, 0
6, 27840, Note_on_c, 4, 55, 100
6, 27912, Note_on_c, 4, 55, 0
6, 27936, Note_on_c, 4, 55, 100
6, 28008, Note_on_c, 4, 55, 0
6, 28032, Note_on_c, 4, 55, 100
6, 28104, Note_on_c, 4, 55, 0
6, 28128, Note_on_c, 4, 55, 100
6, 28200, Note_on_c, 4, 55, 0
6, 28224, Note_on_c, 4, 55, 100
6, 28296, Note_on_c, 4, 55, 0
6, 28320, Note_on_c, 4, 55, 100
6, 28392, Note_on_c, 4, 55, 0
6, 28416, Note_on_c, 4, 55, 100
6, 28488, Note_on_c, 4, 55, 0
6, 28512, Note_on_c, 4, 55, 100
6, 28584, Note_on_c, 4, 55, 0
6, 28608, Note_on_c, 4, 55, 100
6, 28680, Note_on_c, 4, 55, 0
6, 28704, Note_on_c, 4, 55, 100
6, 28776, Note_on_c, 4, 55, 0
6, 28800, Note_on_c, 4, 55, 100
6, 28872, Note_on_c, 4, 55, 0
6, 28896, Note_on_c, 4, 55, 100
6, 28968, Note_on_c, 4, 55, 0
6, 28992, Note_on_c, 4, 55, 100
6, 29064, Note_on_c, 4, 55, 0
6, 29088, Note_on_c, 4, 55, 100
6, 29160, Note_on_c, 4, 55, 0
6, 29184, Note_on_c, 4, 55, 100
6, 29256, Note_on_c, 4, 55, 0
6, 29280, Note_on_c, 4, 55, 100
6, 29352, Note_on_c, 4, 55, 0
6, 29376, Note_on_c, 4, 55, 100
6, 29412, Note_on_c, 4, 55, 0
6, 29424, Note_on_c, 4, 55, 100
6, 29460, Note_on_c, 4, 55, 0
6, 29472, Note_on_c, 4, 55, 100
6, 29508, Note_on_c, 4, 55, 0
6, 29520, Note_on_c, 4, 55, 100
6, 29556, Note_on_c, 4, 55, 0
6, 29568, Note_on_c, 4, 62, 100
6, 29604, Note_on_c, 4, 62, 0
6, 29616, Note_on_c, 4, 55, 100
6, 29652, Note_on_c, 4, 55, 0
6, 29664, Note_on_c, 4, 55, 100
6, 29700, Note_on_c, 4, 55, 0
6, 29712, Note_on_c, 4, 55, 100
6, 29748, Note_on_c, 4, 55, 0
6, 29760, Note_on_c, 4, 62, 100
6, 29796, Note_on_c, 4, 62, 0
6, 29808, Note_on_c, 4, 55, 100
6, 29844, Note_on_c, 4, 55, 0
6, 29856, Note_on_c, 4, 55, 100
6, 29892, Note_on_c, 4, 55, 0
6, 29904, Note_on_c, 4, 55, 100
6, 29940, Note_on_c, 4, 55, 0
6, 29952, Note_on_c, 4, 50, 100
6, 29988, Note_on_c, 4, 50, 0
6, 30000, Note_on_c, 4, 62, 100
6, 30036, Note_on_c, 4, 62, 0
6, 30048, Note_on_c, 4, 50, 100
6, 30084, Note_on_c, 4, 50, 0
6, 30096, Note_on_c, 4, 62, 100
6, 30132, Note_on_c, 4, 62, 0
6, 30144, Note_on_c, 4, 50, 100
6, 30180, Note_on_c, 4, 50, 0
6, 30192, Note_on_c, 4, 62, 100
6, 30228, Note_on_c, 4, 62, 0
6, 30240, Note_on_c, 4, 50, 100
6, 30276, Note_on_c, 4, 50, 0
6, 30288, Note_on_c, 4, 62, 100
6, 30324, Note_on_c, 4, 62, 0
6, 30336, Note_on_c, 4, 50, 100
6, 30372, Note_on_c, 4, 50, 0
6, 30384, Note_on_c, 4, 62, 100
6, 30420, Note_on_c, 4, 62, 0
6, 30432, Note_on_c, 4, 50, 100
6, 30468, Note_on_c, 4, 50, 0
6, 30480, Note_on_c, 4, 62, 100
6, 30516, Note_on_c, 4, 62, 0
6, 30528, Note_on_c, 4, 50, 100
6, 30564, Note_on_c, 4, 50, 0
6, 30576, Note_on_c, 4, 60, 100
6, 30612, Note_on_c, 4, 60, 0
6, 30624, Note_on_c, 4, 50, 100
6, 30660, Note_on_c, 4, 50, 0
6, 30672, Note_on_c, 4, 60, 100
6, 30708, Note_on_c, 4, 60, 0
6, 30720, Note_on_c, 4, 50, 100
6, 30756, Note_on_c, 4, 50, 0
6, 30768, Note_on_c, 4, 60, 100
6, 30804, Note_on_c, 4, 60, 0
6, 30816, Note_on_c, 4, 50, 100
6, 30852, Note_on_c, 4, 50, 0
6, 30864, Note_on_c, 4, 60, 100
6, 30900, Note_on_c, 4, 60, 0
6, 30912, Note_on_c, 4, 50, 100
6, 30948, Note_on_c, 4, 50, 0
6, 30960, Note_on_c, 4, 60, 100
6, 30996, Note_on_c, 4, 60, 0
6, 31008, Note_on_c, 4, 50, 100
6, 31044, Note_on_c, 4, 50, 0
6, 31056, Note_on_c, 4, 60, 100
6, 31092, Note_on_c, 4, 60, 0
6, 31104, Note_on_c, 4, 50, 100
6, 31140, Note_on_c, 4, 50, 0
6, 31152, Note_on_c, 4, 58, 100
6, 31188, Note_on_c, 4, 58, 0
6, 31200, Note_on_c, 4, 50, 100
6, 31236, Note_on_c, 4, 50, 0
6, 31248, Note_on_c, 4, 58, 100
6, 31284, Note_on_c, 4, 58, 0
6, 31296, Note_on_c, 4, 50, 100
6, 31332, Note_on_c, 4, 50, 0
6, 31344, Note_on_c, 4, 58, 100
6, 31380, Note_on_c, 4, 58, 0
6, 31392, Note_on_c, 4, 50, 100
6, 31428, Note_on_c, 4, 50, 0
6, 31440, Note_on_c, 4, 58, 100
6, 31476, Note_on_c, 4, 58, 0
6, 31488, Note_on_c, 4, 50, 100
6, 31524, Note_on_c, 4, 50, 0
6, 31536, Note_on_c, 4, 58, 100
6, 31572, Note_on_c, 4, 58, 0
6, 31584, Note_on_c, 4, 50, 100
6, 31620, Note_on_c, 4, 50, 0
6, 31632, Note_on_c, 4, 58, 100
6, 31668, Note_on_c, 4, 58, 0
6, 31680, Note_on_c, 4, 50, 100
6, 31716, Note_on_c, 4, 50, 0
6, 31728, Note_on_c, 4, 57, 100
6, 31764, Note_on_c, 4, 57, 0
6, 31776, Note_on_c, 4, 50, 100
6, 31812, Note_on_c, 4, 50, 0
6, 31824, Note_on_c, 4, 57, 100
6, 31860, Note_on_c, 4, 57, 0
6, 31872, Note_on_c, 4, 50, 100
6, 31908, Note_on_c, 4, 50, 0
6, 31920, Note_on_c, 4, 57, 100
6, 31956, Note_on_c, 4, 57, 0
6, 31968, Note_on_c, 4, 50, 100
6, 32004, Note_on_c, 4, 50, 0
6, 32016, Note_on_c, 4, 57, 100
6, 32052, Note_on_c, 4, 57, 0
6, 32064, Note_on_c, 4, 50, 100
6, 32100, Note_on_c, 4, 50, 0
6, 32112, Note_on_c, 4, 57, 100
6, 32148, Note_on_c, 4, 57, 0
6, 32160, Note_on_c, 4, 50, 100
6, 32196, Note_on_c, 4, 50, 0
6, 32208, Note_on_c, 4, 57, 100
6, 32244, Note_on_c, 4, 57, 0
6, 32256, Note_on_c, 4, 50, 100
6, 32292, Note_on_c, 4, 50, 0
6, 32304, Note_on_c, 4, 62, 100
6, 32340, Note_on_c, 4, 62, 0
6, 32352, Note_on_c, 4, 50, 100
6, 32388, Note_on_c, 4, 50, 0
6, 32400, Note_on_c, 4, 62, 100
6, 32436, Note_on_c, 4, 62, 0
6, 32448, Note_on_c, 4, 50, 100
6, 32484, Note_on_c, 4, 50, 0
6, 32496, Note_on_c, 4, 62, 100
6, 32532, Note_on_c, 4, 62, 0
6, 32544, Note_on_c, 4, 50, 100
6, 32580, Note_on_c, 4, 50, 0
6, 32592, Note_on_c, 4, 62, 100
6, 32628, Note_on_c, 4, 62, 0
6, 32640, Note_on_c, 4, 50, 100
6, 32676, Note_on_c, 4, 50, 0
6, 32688, Note_on_c, 4, 62, 100
6, 32724, Note_on_c, 4, 62, 0
6, 32736, Note_on_c, 4, 50, 100
6, 32772, Note_on_c, 4, 50, 0
6, 32784, Note_on_c, 4, 62, 100
6, 32820, Note_on_c, 4, 62, 0
6, 32832, Note_on_c, 4, 50, 100
6, 32868, Note_on_c, 4, 50, 0
6, 32880, Note_on_c, 4, 60, 100
6, 32916, Note_on_c, 4, 60, 0
6, 32928, Note_on_c, 4, 50, 100
6, 32964, Note_on_c, 4, 50, 0
6, 32976, Note_on_c, 4, 60, 100
6, 33012, Note_on_c, 4, 60, 0
6, 33024, Note_on_c, 4, 50, 100
6, 33060, Note_on_c, 4, 50, 0
6, 33072, Note_on_c, 4, 60, 100
6, 33108, Note_on_c, 4, 60, 0
6, 33120, Note_on_c, 4, 50, 100
6, 33156, Note_on_c, 4, 50, 0
6, 33168, Note_on_c, 4, 60, 100
6, 33204, Note_on_c, 4, 60, 0
6, 33216, Note_on_c, 4, 50, 100
6, 33252, Note_on_c, 4, 50, 0
6, 33264, Note_on_c, 4, 60, 100
6, 33300, Note_on_c, 4, 60, 0
6, 33312, Note_on_c, 4, 50, 100
6, 33348, Note_on_c, 4, 50, 0
6, 33360, Note_on_c, 4, 60, 100
6, 33396, Note_on_c, 4, 60, 0
6, 33408, Note_on_c, 4, 50, 100
6, 33444, Note_on_c, 4, 50, 0
6, 33456, Note_on_c, 4, 58, 100
6, 33492, Note_on_c, 4, 58, 0
6, 33504, Note_on_c, 4, 50, 100
6, 33540, Note_on_c, 4, 50, 0
6, 33552, Note_on_c, 4, 58, 100
6, 33588, Note_on_c, 4, 58, 0
6, 33600, Note_on_c, 4, 50, 100
6, 33636, Note_on_c, 4, 50, 0
6, 33648, Note_on_c, 4, 58, 100
6, 33684, Note_on_c, 4, 58, 0
6, 33696, Note_on_c, 4, 50, 100
6, 33732, Note_on_c, 4, 50, 0
6, 33744, Note_on_c, 4, 58, 100
6, 33780, Note_on_c, 4, 58, 0
6, 33792, Note_on_c, 4, 50, 100
6, 33828, Note_on_c, 4, 50, 0
6, 33840, Note_on_c, 4, 58, 100
6, 33876, Note_on_c, 4, 58, 0
6, 33888, Note_on_c, 4, 50, 100
6, 33924, Note_on_c, 4, 50, 0
6, 33936, Note_on_c, 4, 58, 100
6, 33972, Note_on_c, 4, 58, 0
6, 33984, Note_on_c, 4, 50, 100
6, 34020, Note_on_c, 4, 50, 0
6, 34032, Note_on_c, 4, 57, 100
6, 34068, Note_on_c, 4, 57, 0
6, 34080, Note_on_c, 4, 50, 100
6, 34116, Note_on_c, 4, 50, 0
6, 34128, Note_on_c, 4, 57, 100
6, 34164, Note_on_c, 4, 57, 0
6, 34176, Note_on_c, 4, 50, 100
6, 34212, Note_on_c, 4, 50, 0
6, 34224, Note_on_c, 4, 57, 100
6, 34260, Note_on_c, 4, 57, 0
6, 34272, Note_on_c, 4, 50, 100
6, 34308, Note_on_c, 4, 50, 0
6, 34320, Note_on_c, 4, 57, 100
6, 34356, Note_on_c, 4, 57, 0
6, 34368, Note_on_c, 4, 50, 100
6, 34404, Note_on_c, 4, 50, 0
6, 34416, Note_on_c, 4, 57, 100
6, 34452, Note_on_c, 4, 57, 0
6, 34464, Note_on_c, 4, 50, 100
6, 34500, Note_on_c, 4, 50, 0
6, 34512, Note_on_c, 4, 57, 100
6, 34548, Note_on_c, 4, 57, 0
6, 34560, Note_on_c, 4, 43, 101
6, 34632, Note_on_c, 4, 43, 0
6, 34656, Note_on_c, 4, 43, 100
6, 34728, Note_on_c, 4, 43, 0
6, 34752, Note_on_c, 4, 43, 98
6, 34824, Note_on_c, 4, 43, 0
6, 34848, Note_on_c, 4, 43, 97
6, 34920, Note_on_c, 4, 43, 0
6, 34944, Note_on_c, 4, 43, 95
6, 35016, Note_on_c, 4, 43, 0
6, 35040, Note_on_c, 4, 43, 93
6, 35112, Note_on_c, 4, 43, 0
6, 35136, Note_on_c, 4, 43, 92
6, 35208, Note_on_c, 4, 43, 0
6, 35232, Note_on_c, 4, 43, 90
6, 35304, Note_on_c, 4, 43, 0
6, 35328, Note_on_c, 4, 43, 89
6, 35400, Note_on_c, 4, 43, 0
6, 35424, Note_on_c, 4, 43, 87
6, 35496, Note_on_c, 4, 43, 0
6, 35520, Note_on_c, 4, 43, 85
6, 35592, Note_on_c, 4, 43, 0
6, 35616, Note_on_c, 4, 43, 84
6, 35688, Note_on_c, 4, 43, 0
6, 35712, Note_on_c, 4, 43, 82
6, 35784, Note_on_c, 4, 43, 0
6, 35808, Note_on_c, 4, 43, 81
6, 35880, Note_on_c, 4, 43, 0
6, 35904, Note_on_c, 4, 43, 79
6, 35976, Note_on_c, 4, 43, 0
6, 36000, Note_on_c, 4, 43, 77
6, 36072, Note_on_c, 4, 43, 0
6, 36096, Note_on_c, 4, 43, 76
6, 36168, Note_on_c, 4, 43, 0
6, 36192, Note_on_c, 4, 43, 74
6, 36264, Note_on_c, 4, 43, 0
6, 36288, Note_on_c, 4, 43, 101
6, 36324, Note_on_c, 4, 43, 0
6, 36336, Note_on_c, 4, 55, 101
6, 36372, Note_on_c, 4, 55, 0
6, 36384, Note_on_c, 4, 43, 102
6, 36420, Note_on_c, 4, 43, 0
6, 36432, Note_on_c, 4, 55, 102
6, 36468, Note_on_c, 4, 55, 0
6, 36480, Note_on_c, 4, 43, 103
6, 36516, Note_on_c, 4, 43, 0
6, 36528, Note_on_c, 4, 55, 103
6, 36564, Note_on_c, 4, 55, 0
6, 36576, Note_on_c, 4, 43, 104
6, 36612, Note_on_c, 4, 43, 0
6, 36624, Note_on_c, 4, 55, 104
6, 36660, Note_on_c, 4, 55, 0
6, 36672, Note_on_c, 4, 43, 105
6, 36708, Note_on_c, 4, 43, 0
6, 36720, Note_on_c, 4, 55, 106
6, 36756, Note_on_c, 4, 55, 0
6, 36768, Note_on_c, 4, 43, 106
6, 36804, Note_on_c, 4, 43, 0
6, 36816, Note_on_c, 4, 55, 107
6, 36852, Note_on_c, 4, 55, 0
6, 36864, Note_on_c, 4, 48, 107
6, 36900, Note_on_c, 4, 48, 0
6, 36912, Note_on_c, 4, 60, 108
6, 36948, Note_on_c, 4, 60, 0
6, 36960, Note_on_c, 4, 48, 108
6, 36996, Note_on_c, 4, 48, 0
6, 37008, Note_on_c, 4, 60, 109
6, 37044, Note_on_c, 4, 60, 0
6, 37056, Note_on_c, 4, 48, 110
6, 37092, Note_on_c, 4, 48, 0
6, 37104, Note_on_c, 4, 60, 110
6, 37140, Note_on_c, 4, 60, 0
6, 37152, Note_on_c, 4, 48, 111
6, 37188, Note_on_c, 4, 48, 0
6, 37200, Note_on_c, 4, 60, 111
6, 37236, Note_on_c, 4, 60, 0
6, 37248, Note_on_c, 4, 48, 112
6, 37284, Note_on_c, 4, 48, 0
6, 37296, Note_on_c, 4, 60, 112
6, 37332, Note_on_c, 4, 60, 0
6, 37344, Note_on_c, 4, 48, 113
6, 37380, Note_on_c, 4, 48, 0
6, 37392, Note_on_c, 4, 60, 113
6, 37428, Note_on_c, 4, 60, 0
6, 37440, Note_on_c, 4, 45, 114
6, 37476, Note_on_c, 4, 45, 0
6, 37488, Note_on_c, 4, 57, 115
6, 37524, Note_on_c, 4, 57, 0
6, 37536, Note_on_c, 4, 45, 115
6, 37572, Note_on_c, 4, 45, 0
6, 37584, Note_on_c, 4, 57, 116
6, 37620, Note_on_c, 4, 57, 0
6, 37632, Note_on_c, 4, 45, 116
6, 37668, Note_on_c, 4, 45, 0
6, 37680, Note_on_c, 4, 57, 117
6, 37716, Note_on_c, 4, 57, 0
6, 37728, Note_on_c, 4, 45, 117
6, 37764, Note_on_c, 4, 45, 0
6, 37776, Note_on_c, 4, 57, 118
6, 37812, Note_on_c, 4, 57, 0
6, 37824, Note_on_c, 4, 45, 119
6, 37860, Note_on_c, 4, 45, 0
6, 37872, Note_on_c, 4, 57, 119
6, 37908, Note_on_c, 4, 57, 0
6, 37920, Note_on_c, 4, 45, 120
6, 37956, Note_on_c, 4, 45, 0
6, 37968, Note_on_c, 4, 57, 120
6, 38004, Note_on_c, 4, 57, 0
6, 38016, Note_on_c, 4, 50, 121
6, 38052, Note_on_c, 4, 50, 0
6, 38064, Note_on_c, 4, 62, 121
6, 38100, Note_on_c, 4, 62, 0
6, 38112, Note_on_c, 4, 50, 122
6, 38148, Note_on_c, 4, 50, 0
6, 38160, Note_on_c, 4, 62, 122
6, 38196, Note_on_c, 4, 62, 0
6, 38208, Note_on_c, 4, 50, 123
6, 38244, Note_on_c, 4, 50, 0
6, 38256, Note_on_c, 4, 62, 124
6, 38292, Note_on_c, 4, 62, 0
6, 38304, Note_on_c, 4, 50, 124
6, 38340, Note_on_c, 4, 50, 0
6, 38352, Note_on_c, 4, 62, 125
6, 38388, Note_on_c, 4, 62, 0
6, 38400, Note_on_c, 4, 50, 125
6, 38436, Note_on_c, 4, 50, 0
6, 38448, Note_on_c, 4, 62, 126
6, 38484, Note_on_c, 4, 62, 0
6, 38496, Note_on_c, 4, 50, 126
6, 38532, Note_on_c, 4, 50, 0
6, 38544, Note_on_c, 4, 62, 127
6, 38580, Note_on_c, 4, 62, 0
6, 38592, Note_on_c, 4, 45, 100
6, 38628, Note_on_c, 4, 45, 0
6, 38640, Note_on_c, 4, 57, 100
6, 38676, Note_on_c, 4, 57, 0
6, 38688, Note_on_c, 4, 45, 100
6, 38724, Note_on_c, 4, 45, 0
6, 38736, Note_on_c, 4, 57, 100
6, 38772, Note_on_c, 4, 57, 0
6, 38784, Note_on_c, 4, 45, 100
6, 38820, Note_on_c, 4, 45, 0
6, 38832, Note_on_c, 4, 57, 100
6, 38868, Note_on_c, 4, 57, 0
6, 38880, Note_on_c, 4, 45, 100
6, 38916, Note_on_c, 4, 45, 0
6, 38928, Note_on_c, 4, 57, 100
6, 38964, Note_on_c, 4, 57, 0
6, 38976, Note_on_c, 4, 45, 100
6, 39012, Note_on_c, 4, 45, 0
6, 39024, Note_on_c, 4, 57, 100
6, 39060, Note_on_c, 4, 57, 0
6, 39072, Note_on_c, 4, 45, 100
6, 39108, Note_on_c, 4, 45, 0
6, 39120, Note_on_c, 4, 57, 100
6, 39156, Note_on_c, 4, 57, 0
6, 39168, Note_on_c, 4, 45, 100
6, 39204, Note_on_c, 4, 45, 0
6, 39216, Note_on_c, 4, 57, 100
6, 39252, Note_on_c, 4, 57, 0
6, 39264, Note_on_c, 4, 45, 100
6, 39300, Note_on_c, 4, 45, 0
6, 39312, Note_on_c, 4, 57, 100
6, 39348, Note_on_c, 4, 57, 0
6, 39360, Note_on_c, 4, 45, 100
6, 39396, Note_on_c, 4, 45, 0
6, 39408, Note_on_c, 4, 57, 100
6, 39444, Note_on_c, 4, 57, 0
6, 39456, Note_on_c, 4, 45, 100
6, 39492, Note_on_c, 4, 45, 0
6, 39504, Note_on_c, 4, 57, 100
6, 39540, Note_on_c, 4, 57, 0
6, 39552, Note_on_c, 4, 45, 100
6, 39588, Note_on_c, 4, 45, 0
6, 39600, Note_on_c, 4, 57, 100
6, 39636, Note_on_c, 4, 57, 0
6, 39648, Note_on_c, 4, 45, 100
6, 39684, Note_on_c, 4, 45, 0
6, 39696, Note_on_c, 4, 57, 100
6, 39732, Note_on_c, 4, 57, 0
6, 39744, Note_on_c, 4, 50, 100
6, 39936, Note_on_c, 4, 50, 0
6, 48384, Note_on_c, 4, 50, 100
6, 48456, Note_on_c, 4, 50, 0
6, 48480, Note_on_c, 4, 45, 100
6, 48552, Note_on_c, 4, 45, 0
6, 48576, Note_on_c, 4, 50, 100
6, 48648, Note_on_c, 4, 50, 0
6, 48672, Note_on_c, 4, 45, 100
6, 48744, Note_on_c, 4, 45, 0
6, 48768, Note_on_c, 4, 50, 100
6, 48840, Note_on_c, 4, 50, 0
6, 48864, Note_on_c, 4, 45, 100
6, 48936, Note_on_c, 4, 45, 0
6, 48960, Note_on_c, 4, 50, 100
6, 49032, Note_on_c, 4, 50, 0
6, 49056, Note_on_c, 4, 45, 100
6, 49128, Note_on_c, 4, 45, 0
6, 49152, Note_on_c, 4, 50, 100
6, 49224, Note_on_c, 4, 50, 0
6, 49248, Note_on_c, 4, 45, 100
6, 49320, Note_on_c, 4, 45, 0
6, 49344, Note_on_c, 4, 50, 100
6, 49416, Note_on_c, 4, 50, 0
6, 49440, Note_on_c, 4, 45, 100
6, 49512, Note_on_c, 4, 45, 0
6, 49536, Note_on_c, 4, 50, 110
6, 49572, Note_on_c, 4, 50, 0
6, 49584, Note_on_c, 4, 62, 110
6, 49620, Note_on_c, 4, 62, 0
6, 49632, Note_on_c, 4, 60, 110
6, 49668, Note_on_c, 4, 60, 0
6, 49680, Note_on_c, 4, 58, 110
6, 49716, Note_on_c, 4, 58, 0
6, 49728, Note_on_c, 4, 57, 110
6, 49764, Note_on_c, 4, 57, 0
6, 49776, Note_on_c, 4, 55, 110
6, 49812, Note_on_c, 4, 55, 0
6, 49824, Note_on_c, 4, 53, 110
6, 49860, Note_on_c, 4, 53, 0
6, 49872, Note_on_c, 4, 52, 110
6, 49908, Note_on_c, 4, 52, 0
6, 49920, Note_on_c, 4, 50, 110
6, 50016, Note_on_c, 4, 50, 0
6, 50112, Note_on_c, 4, 43, 110
6, 50148, Note_on_c, 4, 43, 0
6, 50160, Note_on_c, 4, 55, 110
6, 50196, Note_on_c, 4, 55, 0
6, 50208, Note_on_c, 4, 53, 110
6, 50244, Note_on_c, 4, 53, 0
6, 50256, Note_on_c, 4, 51, 110
6, 50292, Note_on_c, 4, 51, 0
6, 50304, Note_on_c, 4, 50, 110
6, 50340, Note_on_c, 4, 50, 0
6, 50352, Note_on_c, 4, 48, 110
6, 50388, Note_on_c, 4, 48, 0
6, 50400, Note_on_c, 4, 46, 110
6, 50436, Note_on_c, 4, 46, 0
6, 50448, Note_on_c, 4, 45, 110
6, 50484, Note_on_c, 4, 45, 0
6, 50496, Note_on_c, 4, 43, 110
6, 50592, Note_on_c, 4, 43, 0
6, 50688, Note_on_c, 4, 48, 110
6, 50724, Note_on_c, 4, 48, 0
6, 50736, Note_on_c, 4, 60, 110
6, 50772, Note_on_c, 4, 60, 0
6, 50784, Note_on_c, 4, 58, 110
6, 50820, Note_on_c, 4, 58, 0
6, 50832, Note_on_c, 4, 57, 110
6, 50868, Note_on_c, 4, 57, 0
6, 50880, Note_on_c, 4, 55, 110
6, 50916, Note_on_c, 4, 55, 0
6, 50928, Note_on_c, 4, 53, 110
6, 50964, Note_on_c, 4, 53, 0
6, 50976, Note_on_c, 4, 52, 110
6, 51012, Note_on_c, 4, 52, 0
6, 51024, Note_on_c, 4, 50, 110
6, 51060, Note_on_c, 4, 50, 0
6, 51072, Note_on_c, 4, 48, 110
6, 51168, Note_on_c, 4, 48, 0
6, 51264, Note_on_c, 4, 41, 110
6, 51300, Note_on_c, 4, 41, 0
6, 51312, Note_on_c, 4, 53, 110
6, 51348, Note_on_c, 4, 53, 0
6, 51360, Note_on_c, 4, 52, 110
6, 51396, Note_on_c, 4, 52, 0
6, 51408, Note_on_c, 4, 50, 110
6, 51444, Note_on_c, 4, 50, 0
6, 51456, Note_on_c, 4, 48, 110
6, 51492, Note_on_c, 4, 48, 0
6, 51504, Note_on_c, 4, 46, 110
6, 51540, Note_on_c, 4, 46, 0
6, 51552, Note_on_c, 4, 45, 110
6, 51588, Note_on_c, 4, 45, 0
6, 51600, Note_on_c, 4, 43, 110
6, 51636, Note_on_c, 4, 43, 0
6, 51648, Note_on_c, 4, 41, 110
6, 51744, Note_on_c, 4, 41, 0
6, 51840, Note_on_c, 4, 46, 110
6, 51876, Note_on_c, 4, 46, 0
6, 51888, Note_on_c, 4, 58, 110
6, 51924, Note_on_c, 4, 58, 0
6, 51936, Note_on_c, 4, 57, 110
6, 51972, Note_on_c, 4, 57, 0
6, 51984, Note_on_c, 4, 55, 110
6, 52020, Note_on_c, 4, 55, 0
6, 52032, Note_on_c, 4, 53, 110
6, 52032, Note_on_c, 4, 55, 110
6, 52068, Note_on_c, 4, 55, 0
6, 52068, Note_on_c, 4, 53, 0
6, 52080, Note_on_c, 4, 51, 110
6, 52116, Note_on_c, 4, 51, 0
6, 52128, Note_on_c, 4, 50, 110
6, 52164, Note_on_c, 4, 50, 0
6, 52176, Note_on_c, 4, 48, 110
6, 52212, Note_on_c, 4, 48, 0
6, 52224, Note_on_c, 4, 46, 110
6, 52320, Note_on_c, 4, 46, 0
6, 52416, Note_on_c, 4, 39, 110
6, 52452, Note_on_c, 4, 39, 0
6, 52464, Note_on_c, 4, 51, 110
6, 52500, Note_on_c, 4, 51, 0
6, 52512, Note_on_c, 4, 50, 110
6, 52548, Note_on_c, 4, 50, 0
6, 52560, Note_on_c, 4, 48, 110
6, 52596, Note_on_c, 4, 48, 0
6, 52608, Note_on_c, 4, 46, 110
6, 52644, Note_on_c, 4, 46, 0
6, 52656, Note_on_c, 4, 45, 110
6, 52692, Note_on_c, 4, 45, 0
6, 52704, Note_on_c, 4, 43, 110
6, 52740, Note_on_c, 4, 43, 0
6, 52752, Note_on_c, 4, 41, 110
6, 52788, Note_on_c, 4, 41, 0
6, 52800, Note_on_c, 4, 39, 110
6, 52896, Note_on_c, 4, 39, 0
6, 52992, Note_on_c, 4, 44, 110
6, 53028, Note_on_c, 4, 44, 0
6, 53040, Note_on_c, 4, 56, 110
6, 53076, Note_on_c, 4, 56, 0
6, 53088, Note_on_c, 4, 55, 110
6, 53124, Note_on_c, 4, 55, 0
6, 53136, Note_on_c, 4, 53, 110
6, 53172, Note_on_c, 4, 53, 0
6, 53184, Note_on_c, 4, 51, 110
6, 53220, Note_on_c, 4, 51, 0
6, 53232, Note_on_c, 4, 50, 110
6, 53268, Note_on_c, 4, 50, 0
6, 53280, Note_on_c, 4, 48, 110
6, 53316, Note_on_c, 4, 48, 0
6, 53328, Note_on_c, 4, 46, 110
6, 53364, Note_on_c, 4, 46, 0
6, 53376, Note_on_c, 4, 44, 110
6, 53472, Note_on_c, 4, 44, 0
6, 53568, Note_on_c, 4, 47, 110
6, 53604, Note_on_c, 4, 47, 0
6, 53616, Note_on_c, 4, 59, 110
6, 53652, Note_on_c, 4, 59, 0
6, 53664, Note_on_c, 4, 57, 110
6, 53700, Note_on_c, 4, 57, 0
6, 53712, Note_on_c, 4, 55, 110
6, 53748, Note_on_c, 4, 55, 0
6, 53760, Note_on_c, 4, 53, 110
6, 53796, Note_on_c, 4, 53, 0
6, 53808, Note_on_c, 4, 51, 110
6, 53844, Note_on_c, 4, 51, 0
6, 53856, Note_on_c, 4, 50, 110
6, 53892, Note_on_c, 4, 50, 0
6, 53904, Note_on_c, 4, 48, 110
6, 53940, Note_on_c, 4, 48, 0
6, 53952, Note_on_c, 4, 47, 110
6, 54048, Note_on_c, 4, 47, 0
6, 54144, Note_on_c, 4, 43, 110
6, 54180, Note_on_c, 4, 43, 0
6, 54192, Note_on_c, 4, 55, 110
6, 54228, Note_on_c, 4, 55, 0
6, 54240, Note_on_c, 4, 53, 110
6, 54276, Note_on_c, 4, 53, 0
6, 54288, Note_on_c, 4, 51, 110
6, 54324, Note_on_c, 4, 51, 0
6, 54336, Note_on_c, 4, 50, 110
6, 54372, Note_on_c, 4, 50, 0
6, 54384, Note_on_c, 4, 48, 110
6, 54420, Note_on_c, 4, 48, 0
6, 54432, Note_on_c, 4, 47, 110
6, 54468, Note_on_c, 4, 47, 0
6, 54480, Note_on_c, 4, 44, 110
6, 54516, Note_on_c, 4, 44, 0
6, 54528, Note_on_c, 4, 43, 110
6, 54624, Note_on_c, 4, 43, 0
6, 54720, Note_on_c, 4, 48, 110
6, 54756, Note_on_c, 4, 48, 0
6, 54768, Note_on_c, 4, 60, 110
6, 54804, Note_on_c, 4, 60, 0
6, 54816, Note_on_c, 4, 58, 110
6, 54852, Note_on_c, 4, 58, 0
6, 54864, Note_on_c, 4, 56, 110
6, 54900, Note_on_c, 4, 56, 0
6, 54912, Note_on_c, 4, 55, 110
6, 54948, Note_on_c, 4, 55, 0
6, 54960, Note_on_c, 4, 53, 110
6, 54996, Note_on_c, 4, 53, 0
6, 55008, Note_on_c, 4, 51, 110
6, 55044, Note_on_c, 4, 51, 0
6, 55056, Note_on_c, 4, 50, 110
6, 55092, Note_on_c, 4, 50, 0
6, 55104, Note_on_c, 4, 48, 110
6, 55200, Note_on_c, 4, 48, 0
6, 55344, Note_on_c, 4, 60, 110
6, 55380, Note_on_c, 4, 60, 0
6, 55392, Note_on_c, 4, 58, 110
6, 55428, Note_on_c, 4, 58, 0
6, 55440, Note_on_c, 4, 56, 110
6, 55476, Note_on_c, 4, 56, 0
6, 55488, Note_on_c, 4, 55, 110
6, 55524, Note_on_c, 4, 55, 0
6, 55536, Note_on_c, 4, 53, 110
6, 55572, Note_on_c, 4, 53, 0
6, 55584, Note_on_c, 4, 51, 110
6, 55620, Note_on_c, 4, 51, 0
6, 55632, Note_on_c, 4, 50, 110
6, 55668, Note_on_c, 4, 50, 0
6, 55680, Note_on_c, 4, 48, 110
6, 55776, Note_on_c, 4, 48, 0
6, 55920, Note_on_c, 4, 60, 110
6, 55956, Note_on_c, 4, 60, 0
6, 55968, Note_on_c, 4, 58, 110
6, 56004, Note_on_c, 4, 58, 0
6, 56016, Note_on_c, 4, 56, 110
6, 56052, Note_on_c, 4, 56, 0
6, 56064, Note_on_c, 4, 55, 110
6, 56100, Note_on_c, 4, 55, 0
6, 56112, Note_on_c, 4, 53, 110
6, 56148, Note_on_c, 4, 53, 0
6, 56160, Note_on_c, 4, 51, 110
6, 56196, Note_on_c, 4, 51, 0
6, 56208, Note_on_c, 4, 50, 110
6, 56244, Note_on_c, 4, 50, 0
6, 56256, Note_on_c, 4, 48, 110
6, 56352, Note_on_c, 4, 48, 0
6, 56448, Note_on_c, 4, 51, 80
6, 56520, Note_on_c, 4, 51, 0
6, 56544, Note_on_c, 4, 51, 81
6, 56616, Note_on_c, 4, 51, 0
6, 56640, Note_on_c, 4, 51, 83
6, 56712, Note_on_c, 4, 51, 0
6, 56736, Note_on_c, 4, 51, 85
6, 56808, Note_on_c, 4, 51, 0
6, 56832, Note_on_c, 4, 51, 86
6, 56904, Note_on_c, 4, 51, 0
6, 56928, Note_on_c, 4, 51, 88
6, 57000, Note_on_c, 4, 51, 0
6, 57024, Note_on_c, 4, 53, 90
6, 57096, Note_on_c, 4, 53, 0
6, 57120, Note_on_c, 4, 53, 92
6, 57192, Note_on_c, 4, 53, 0
6, 57216, Note_on_c, 4, 53, 93
6, 57288, Note_on_c, 4, 53, 0
6, 57312, Note_on_c, 4, 53, 95
6, 57384, Note_on_c, 4, 53, 0
6, 57408, Note_on_c, 4, 53, 97
6, 57480, Note_on_c, 4, 53, 0
6, 57504, Note_on_c, 4, 53, 98
6, 57576, Note_on_c, 4, 53, 0
6, 57600, Note_on_c, 4, 55, 100
6, 57672, Note_on_c, 4, 55, 0
6, 57696, Note_on_c, 4, 55, 102
6, 57768, Note_on_c, 4, 55, 0
6, 57792, Note_on_c, 4, 55, 104
6, 57864, Note_on_c, 4, 55, 0
6, 57888, Note_on_c, 4, 55, 105
6, 57960, Note_on_c, 4, 55, 0
6, 57984, Note_on_c, 4, 43, 107
6, 58056, Note_on_c, 4, 43, 0
6, 58080, Note_on_c, 4, 43, 109
6, 58152, Note_on_c, 4, 43, 0
6, 58176, Note_on_c, 4, 60, 118
6, 58212, Note_on_c, 4, 60, 0
6, 58224, Note_on_c, 4, 48, 118
6, 58260, Note_on_c, 4, 48, 0
6, 58272, Note_on_c, 4, 48, 118
6, 58308, Note_on_c, 4, 48, 0
6, 58320, Note_on_c, 4, 48, 118
6, 58356, Note_on_c, 4, 48, 0
6, 58368, Note_on_c, 4, 48, 118
6, 58404, Note_on_c, 4, 48, 0
6, 58416, Note_on_c, 4, 48, 118
6, 58452, Note_on_c, 4, 48, 0
6, 58464, Note_on_c, 4, 48, 118
6, 58500, Note_on_c, 4, 48, 0
6, 58512, Note_on_c, 4, 48, 118
6, 58548, Note_on_c, 4, 48, 0
6, 58560, Note_on_c, 4, 48, 118
6, 58596, Note_on_c, 4, 48, 0
6, 58608, Note_on_c, 4, 48, 118
6, 58644, Note_on_c, 4, 48, 0
6, 58656, Note_on_c, 4, 48, 118
6, 58692, Note_on_c, 4, 48, 0
6, 58704, Note_on_c, 4, 48, 118
6, 58740, Note_on_c, 4, 48, 0
6, 58752, Note_on_c, 4, 58, 118
6, 58788, Note_on_c, 4, 58, 0
6, 58800, Note_on_c, 4, 48, 118
6, 58836, Note_on_c, 4, 48, 0
6, 58848, Note_on_c, 4, 48, 118
6, 58884, Note_on_c, 4, 48, 0
6, 58896, Note_on_c, 4, 48, 118
6, 58932, Note_on_c, 4, 48, 0
6, 58944, Note_on_c, 4, 48, 118
6, 58980, Note_on_c, 4, 48, 0
6, 58992, Note_on_c, 4, 48, 118
6, 59028, Note_on_c, 4, 48, 0
6, 59040, Note_on_c, 4, 48, 118
6, 59076, Note_on_c, 4, 48, 0
6, 59088, Note_on_c, 4, 48, 118
6, 59124, Note_on_c, 4, 48, 0
6, 59136, Note_on_c, 4, 48, 118
6, 59172, Note_on_c, 4, 48, 0
6, 59184, Note_on_c, 4, 48, 118
6, 59220, Note_on_c, 4, 48, 0
6, 59232, Note_on_c, 4, 48, 118
6, 59268, Note_on_c, 4, 48, 0
6, 59280, Note_on_c, 4, 48, 118
6, 59316, Note_on_c, 4, 48, 0
6, 59328, Note_on_c, 4, 56, 118
6, 59364, Note_on_c, 4, 56, 0
6, 59376, Note_on_c, 4, 48, 118
6, 59412, Note_on_c, 4, 48, 0
6, 59424, Note_on_c, 4, 48, 118
6, 59460, Note_on_c, 4, 48, 0
6, 59472, Note_on_c, 4, 48, 118
6, 59508, Note_on_c, 4, 48, 0
6, 59520, Note_on_c, 4, 48, 118
6, 59556, Note_on_c, 4, 48, 0
6, 59568, Note_on_c, 4, 48, 118
6, 59604, Note_on_c, 4, 48, 0
6, 59616, Note_on_c, 4, 48, 118
6, 59652, Note_on_c, 4, 48, 0
6, 59664, Note_on_c, 4, 48, 118
6, 59700, Note_on_c, 4, 48, 0
6, 59712, Note_on_c, 4, 48, 118
6, 59748, Note_on_c, 4, 48, 0
6, 59760, Note_on_c, 4, 48, 118
6, 59796, Note_on_c, 4, 48, 0
6, 59808, Note_on_c, 4, 48, 118
6, 59844, Note_on_c, 4, 48, 0
6, 59856, Note_on_c, 4, 48, 118
6, 59892, Note_on_c, 4, 48, 0
6, 59904, Note_on_c, 4, 55, 118
6, 59940, Note_on_c, 4, 55, 0
6, 59952, Note_on_c, 4, 48, 118
6, 59988, Note_on_c, 4, 48, 0
6, 60000, Note_on_c, 4, 48, 118
6, 60036, Note_on_c, 4, 48, 0
6, 60048, Note_on_c, 4, 48, 118
6, 60084, Note_on_c, 4, 48, 0
6, 60096, Note_on_c, 4, 48, 118
6, 60132, Note_on_c, 4, 48, 0
6, 60144, Note_on_c, 4, 48, 118
6, 60180, Note_on_c, 4, 48, 0
6, 60192, Note_on_c, 4, 48, 118
6, 60228, Note_on_c, 4, 48, 0
6, 60240, Note_on_c, 4, 48, 118
6, 60276, Note_on_c, 4, 48, 0
6, 60288, Note_on_c, 4, 48, 118
6, 60384, Note_on_c, 4, 48, 0
6, 66816, Note_on_c, 4, 48, 100
6, 66852, Note_on_c, 4, 48, 0
6, 66864, Note_on_c, 4, 48, 100
6, 66900, Note_on_c, 4, 48, 0
6, 66912, Note_on_c, 4, 48, 100
6, 66948, Note_on_c, 4, 48, 0
6, 66960, Note_on_c, 4, 48, 100
6, 66996, Note_on_c, 4, 48, 0
6, 67008, Note_on_c, 4, 48, 100
6, 67044, Note_on_c, 4, 48, 0
6, 67056, Note_on_c, 4, 48, 100
6, 67092, Note_on_c, 4, 48, 0
6, 67104, Note_on_c, 4, 48, 100
6, 67140, Note_on_c, 4, 48, 0
6, 67152, Note_on_c, 4, 48, 100
6, 67188, Note_on_c, 4, 48, 0
6, 67200, Note_on_c, 4, 48, 100
6, 67236, Note_on_c, 4, 48, 0
6, 67248, Note_on_c, 4, 48, 100
6, 67284, Note_on_c, 4, 48, 0
6, 67296, Note_on_c, 4, 48, 100
6, 67332, Note_on_c, 4, 48, 0
6, 67344, Note_on_c, 4, 48, 100
6, 67380, Note_on_c, 4, 48, 0
6, 67392, Note_on_c, 4, 56, 100
6, 67428, Note_on_c, 4, 56, 0
6, 67440, Note_on_c, 4, 48, 100
6, 67476, Note_on_c, 4, 48, 0
6, 67488, Note_on_c, 4, 48, 100
6, 67524, Note_on_c, 4, 48, 0
6, 67536, Note_on_c, 4, 48, 100
6, 67572, Note_on_c, 4, 48, 0
6, 67584, Note_on_c, 4, 56, 100
6, 67620, Note_on_c, 4, 56, 0
6, 67632, Note_on_c, 4, 48, 100
6, 67668, Note_on_c, 4, 48, 0
6, 67680, Note_on_c, 4, 48, 100
6, 67716, Note_on_c, 4, 48, 0
6, 67728, Note_on_c, 4, 48, 100
6, 67764, Note_on_c, 4, 48, 0
6, 67776, Note_on_c, 4, 56, 100
6, 67812, Note_on_c, 4, 56, 0
6, 67824, Note_on_c, 4, 48, 100
6, 67860, Note_on_c, 4, 48, 0
6, 67872, Note_on_c, 4, 48, 100
6, 67908, Note_on_c, 4, 48, 0
6, 67920, Note_on_c, 4, 48, 100
6, 67956, Note_on_c, 4, 48, 0
6, 67968, Note_on_c, 4, 47, 100
6, 68004, Note_on_c, 4, 47, 0
6, 68016, Note_on_c, 4, 47, 100
6, 68052, Note_on_c, 4, 47, 0
6, 68064, Note_on_c, 4, 47, 100
6, 68100, Note_on_c, 4, 47, 0
6, 68112, Note_on_c, 4, 47, 100
6, 68148, Note_on_c, 4, 47, 0
6, 68160, Note_on_c, 4, 47, 100
6, 68196, Note_on_c, 4, 47, 0
6, 68208, Note_on_c, 4, 47, 100
6, 68244, Note_on_c, 4, 47, 0
6, 68256, Note_on_c, 4, 47, 100
6, 68292, Note_on_c, 4, 47, 0
6, 68304, Note_on_c, 4, 47, 100
6, 68340, Note_on_c, 4, 47, 0
6, 68352, Note_on_c, 4, 47, 100
6, 68388, Note_on_c, 4, 47, 0
6, 68400, Note_on_c, 4, 47, 100
6, 68436, Note_on_c, 4, 47, 0
6, 68448, Note_on_c, 4, 47, 100
6, 68484, Note_on_c, 4, 47, 0
6, 68496, Note_on_c, 4, 47, 100
6, 68532, Note_on_c, 4, 47, 0
6, 68544, Note_on_c, 4, 55, 100
6, 68580, Note_on_c, 4, 55, 0
6, 68592, Note_on_c, 4, 46, 100
6, 68628, Note_on_c, 4, 46, 0
6, 68640, Note_on_c, 4, 46, 100
6, 68676, Note_on_c, 4, 46, 0
6, 68688, Note_on_c, 4, 46, 100
6, 68724, Note_on_c, 4, 46, 0
6, 68736, Note_on_c, 4, 55, 100
6, 68772, Note_on_c, 4, 55, 0
6, 68784, Note_on_c, 4, 46, 100
6, 68820, Note_on_c, 4, 46, 0
6, 68832, Note_on_c, 4, 46, 100
6, 68868, Note_on_c, 4, 46, 0
6, 68880, Note_on_c, 4, 46, 100
6, 68916, Note_on_c, 4, 46, 0
6, 68928, Note_on_c, 4, 55, 100
6, 68964, Note_on_c, 4, 55, 0
6, 68976, Note_on_c, 4, 46, 100
6, 69012, Note_on_c, 4, 46, 0
6, 69024, Note_on_c, 4, 46, 100
6, 69060, Note_on_c, 4, 46, 0
6, 69072, Note_on_c, 4, 46, 100
6, 69108, Note_on_c, 4, 46, 0
6, 69120, Note_on_c, 4, 45, 100
6, 69156, Note_on_c, 4, 45, 0
6, 69168, Note_on_c, 4, 45, 100
6, 69204, Note_on_c, 4, 45, 0
6, 69216, Note_on_c, 4, 45, 100
6, 69252, Note_on_c, 4, 45, 0
6, 69264, Note_on_c, 4, 45, 100
6, 69300, Note_on_c, 4, 45, 0
6, 69312, Note_on_c, 4, 45, 100
6, 69348, Note_on_c, 4, 45, 0
6, 69360, Note_on_c, 4, 45, 100
6, 69396, Note_on_c, 4, 45, 0
6, 69408, Note_on_c, 4, 45, 100
6, 69444, Note_on_c, 4, 45, 0
6, 69456, Note_on_c, 4, 45, 100
6, 69492, Note_on_c, 4, 45, 0
6, 69504, Note_on_c, 4, 45, 100
6, 69540, Note_on_c, 4, 45, 0
6, 69552, Note_on_c, 4, 45, 100
6, 69588, Note_on_c, 4, 45, 0
6, 69600, Note_on_c, 4, 45, 100
6, 69636, Note_on_c, 4, 45, 0
6, 69648, Note_on_c, 4, 45, 100
6, 69684, Note_on_c, 4, 45, 0
6, 69696, Note_on_c, 4, 53, 100
6, 69732, Note_on_c, 4, 53, 0
6, 69744, Note_on_c, 4, 44, 100
6, 69780, Note_on_c, 4, 44, 0
6, 69792, Note_on_c, 4, 44, 100
6, 69828, Note_on_c, 4, 44, 0
6, 69840, Note_on_c, 4, 44, 100
6, 69876, Note_on_c, 4, 44, 0
6, 69888, Note_on_c, 4, 53, 100
6, 69924, Note_on_c, 4, 53, 0
6, 69936, Note_on_c, 4, 44, 100
6, 69972, Note_on_c, 4, 44, 0
6, 69984, Note_on_c, 4, 44, 100
6, 70020, Note_on_c, 4, 44, 0
6, 70032, Note_on_c, 4, 44, 100
6, 70068, Note_on_c, 4, 44, 0
6, 70080, Note_on_c, 4, 53, 100
6, 70116, Note_on_c, 4, 53, 0
6, 70128, Note_on_c, 4, 44, 100
6, 70164, Note_on_c, 4, 44, 0
6, 70176, Note_on_c, 4, 44, 100
6, 70212, Note_on_c, 4, 44, 0
6, 70224, Note_on_c, 4, 44, 100
6, 70260, Note_on_c, 4, 44, 0
6, 70272, Note_on_c, 4, 43, 100
6, 70308, Note_on_c, 4, 43, 0
6, 70320, Note_on_c, 4, 55, 100
6, 70356, Note_on_c, 4, 55, 0
6, 70368, Note_on_c, 4, 55, 100
6, 70404, Note_on_c, 4, 55, 0
6, 70416, Note_on_c, 4, 55, 100
6, 70452, Note_on_c, 4, 55, 0
6, 70464, Note_on_c, 4, 55, 100
6, 70500, Note_on_c, 4, 55, 0
6, 70512, Note_on_c, 4, 55, 100
6, 70548, Note_on_c, 4, 55, 0
6, 70560, Note_on_c, 4, 55, 100
6, 70596, Note_on_c, 4, 55, 0
6, 70608, Note_on_c, 4, 55, 100
6, 70644, Note_on_c, 4, 55, 0
6, 70656, Note_on_c, 4, 55, 100
6, 70692, Note_on_c, 4, 55, 0
6, 70704, Note_on_c, 4, 55, 100
6, 70740, Note_on_c, 4, 55, 0
6, 70752, Note_on_c, 4, 55, 100
6, 70788, Note_on_c, 4, 55, 0
6, 70800, Note_on_c, 4, 55, 100
6, 70836, Note_on_c, 4, 55, 0
6, 70848, Note_on_c, 4, 63, 100
6, 70884, Note_on_c, 4, 63, 0
6, 70896, Note_on_c, 4, 55, 100
6, 70932, Note_on_c, 4, 55, 0
6, 70944, Note_on_c, 4, 55, 100
6, 70980, Note_on_c, 4, 55, 0
6, 70992, Note_on_c, 4, 55, 100
6, 71028, Note_on_c, 4, 55, 0
6, 71040, Note_on_c, 4, 63, 100
6, 71076, Note_on_c, 4, 63, 0
6, 71088, Note_on_c, 4, 55, 100
6, 71124, Note_on_c, 4, 55, 0
6, 71136, Note_on_c, 4, 55, 100
6, 71172, Note_on_c, 4, 55, 0
6, 71184, Note_on_c, 4, 55, 100
6, 71220, Note_on_c, 4, 55, 0
6, 71232, Note_on_c, 4, 63, 100
6, 71268, Note_on_c, 4, 63, 0
6, 71280, Note_on_c, 4, 55, 100
6, 71316, Note_on_c, 4, 55, 0
6, 71328, Note_on_c, 4, 55, 100
6, 71364, Note_on_c, 4, 55, 0
6, 71376, Note_on_c, 4, 55, 100
6, 71412, Note_on_c, 4, 55, 0
6, 71424, Note_on_c, 4, 54, 100
6, 71460, Note_on_c, 4, 54, 0
6, 71472, Note_on_c, 4, 54, 100
6, 71508, Note_on_c, 4, 54, 0
6, 71520, Note_on_c, 4, 54, 100
6, 71556, Note_on_c, 4, 54, 0
6, 71568, Note_on_c, 4, 54, 100
6, 71604, Note_on_c, 4, 54, 0
6, 71616, Note_on_c, 4, 54, 100
6, 71652, Note_on_c, 4, 54, 0
6, 71664, Note_on_c, 4, 54, 100
6, 71700, Note_on_c, 4, 54, 0
6, 71712, Note_on_c, 4, 54, 100
6, 71748, Note_on_c, 4, 54, 0
6, 71760, Note_on_c, 4, 54, 100
6, 71796, Note_on_c, 4, 54, 0
6, 71808, Note_on_c, 4, 54, 100
6, 71844, Note_on_c, 4, 54, 0
6, 71856, Note_on_c, 4, 54, 100
6, 71892, Note_on_c, 4, 54, 0
6, 71904, Note_on_c, 4, 54, 100
6, 71940, Note_on_c, 4, 54, 0
6, 71952, Note_on_c, 4, 54, 100
6, 71988, Note_on_c, 4, 54, 0
6, 72000, Note_on_c, 4, 62, 100
6, 72036, Note_on_c, 4, 62, 0
6, 72048, Note_on_c, 4, 53, 100
6, 72084, Note_on_c, 4, 53, 0
6, 72096, Note_on_c, 4, 53, 100
6, 72132, Note_on_c, 4, 53, 0
6, 72144, Note_on_c, 4, 53, 100
6, 72180, Note_on_c, 4, 53, 0
6, 72192, Note_on_c, 4, 62, 100
6, 72228, Note_on_c, 4, 62, 0
6, 72240, Note_on_c, 4, 53, 100
6, 72276, Note_on_c, 4, 53, 0
6, 72288, Note_on_c, 4, 53, 100
6, 72324, Note_on_c, 4, 53, 0
6, 72336, Note_on_c, 4, 53, 100
6, 72372, Note_on_c, 4, 53, 0
6, 72384, Note_on_c, 4, 62, 100
6, 72420, Note_on_c, 4, 62, 0
6, 72432, Note_on_c, 4, 53, 100
6, 72468, Note_on_c, 4, 53, 0
6, 72480, Note_on_c, 4, 53, 100
6, 72516, Note_on_c, 4, 53, 0
6, 72528, Note_on_c, 4, 53, 100
6, 72564, Note_on_c, 4, 53, 0
6, 72576, Note_on_c, 4, 52, 100
6, 72612, Note_on_c, 4, 52, 0
6, 72624, Note_on_c, 4, 52, 100
6, 72660, Note_on_c, 4, 52, 0
6, 72672, Note_on_c, 4, 52, 100
6, 72708, Note_on_c, 4, 52, 0
6, 72720, Note_on_c, 4, 52, 100
6, 72756, Note_on_c, 4, 52, 0
6, 72768, Note_on_c, 4, 52, 100
6, 72804, Note_on_c, 4, 52, 0
6, 72816, Note_on_c, 4, 52, 100
6, 72852, Note_on_c, 4, 52, 0
6, 72864, Note_on_c, 4, 52, 100
6, 72900, Note_on_c, 4, 52, 0
6, 72912, Note_on_c, 4, 52, 100
6, 72948, Note_on_c, 4, 52, 0
6, 72960, Note_on_c, 4, 52, 100
6, 72996, Note_on_c, 4, 52, 0
6, 73008, Note_on_c, 4, 52, 100
6, 73044, Note_on_c, 4, 52, 0
6, 73056, Note_on_c, 4, 52, 100
6, 73092, Note_on_c, 4, 52, 0
6, 73104, Note_on_c, 4, 52, 100
6, 73140, Note_on_c, 4, 52, 0
6, 73152, Note_on_c, 4, 60, 100
6, 73188, Note_on_c, 4, 60, 0
6, 73200, Note_on_c, 4, 51, 100
6, 73236, Note_on_c, 4, 51, 0
6, 73248, Note_on_c, 4, 51, 100
6, 73284, Note_on_c, 4, 51, 0
6, 73296, Note_on_c, 4, 51, 100
6, 73332, Note_on_c, 4, 51, 0
6, 73344, Note_on_c, 4, 60, 100
6, 73380, Note_on_c, 4, 60, 0
6, 73392, Note_on_c, 4, 51, 100
6, 73428, Note_on_c, 4, 51, 0
6, 73440, Note_on_c, 4, 51, 100
6, 73476, Note_on_c, 4, 51, 0
6, 73488, Note_on_c, 4, 51, 100
6, 73524, Note_on_c, 4, 51, 0
6, 73536, Note_on_c, 4, 60, 100
6, 73572, Note_on_c, 4, 60, 0
6, 73584, Note_on_c, 4, 51, 100
6, 73620, Note_on_c, 4, 51, 0
6, 73632, Note_on_c, 4, 51, 100
6, 73668, Note_on_c, 4, 51, 0
6, 73680, Note_on_c, 4, 51, 100
6, 73716, Note_on_c, 4, 51, 0
6, 73728, Note_on_c, 4, 50, 100
6, 73920, Note_on_c, 4, 50, 0
6, 76608, Note_on_c, 4, 43, 100
6, 76680, Note_on_c, 4, 43, 0
6, 76704, Note_on_c, 4, 43, 100
6, 76776, Note_on_c, 4, 43, 0
6, 76800, Note_on_c, 4, 43, 100
6, 76872, Note_on_c, 4, 43, 0
6, 76896, Note_on_c, 4, 43, 100
6, 76968, Note_on_c, 4, 43, 0
6, 76992, Note_on_c, 4, 43, 100
6, 77064, Note_on_c, 4, 43, 0
6, 77088, Note_on_c, 4, 43, 100
6, 77160, Note_on_c, 4, 43, 0
6, 77184, Note_on_c, 4, 43, 100
6, 77256, Note_on_c, 4, 43, 0
6, 77280, Note_on_c, 4, 43, 100
6, 77352, Note_on_c, 4, 43, 0
6, 77376, Note_on_c, 4, 43, 100
6, 77448, Note_on_c, 4, 43, 0
6, 77472, Note_on_c, 4, 43, 100
6, 77544, Note_on_c, 4, 43, 0
6, 77568, Note_on_c, 4, 43, 100
6, 77640, Note_on_c, 4, 43, 0
6, 77664, Note_on_c, 4, 43, 100
6, 77736, Note_on_c, 4, 43, 0
6, 77760, Note_on_c, 4, 48, 100
6, 77832, Note_on_c, 4, 48, 0
6, 77856, Note_on_c, 4, 48, 100
6, 77928, Note_on_c, 4, 48, 0
6, 77952, Note_on_c, 4, 48, 100
6, 78024, Note_on_c, 4, 48, 0
6, 78048, Note_on_c, 4, 48, 100
6, 78120, Note_on_c, 4, 48, 0
6, 78144, Note_on_c, 4, 48, 100
6, 78216, Note_on_c, 4, 48, 0
6, 78240, Note_on_c, 4, 48, 100
6, 78312, Note_on_c, 4, 48, 0
6, 78336, Note_on_c, 4, 48, 100
6, 78408, Note_on_c, 4, 48, 0
6, 78432, Note_on_c, 4, 48, 100
6, 78504, Note_on_c, 4, 48, 0
6, 78528, Note_on_c, 4, 48, 100
6, 78600, Note_on_c, 4, 48, 0
6, 78624, Note_on_c, 4, 48, 100
6, 78696, Note_on_c, 4, 48, 0
6, 78720, Note_on_c, 4, 48, 100
6, 78792, Note_on_c, 4, 48, 0
6, 78816, Note_on_c, 4, 48, 100
6, 78888, Note_on_c, 4, 48, 0
6, 78912, Note_on_c, 4, 51, 100
6, 78984, Note_on_c, 4, 51, 0
6, 79008, Note_on_c, 4, 51, 100
6, 79080, Note_on_c, 4, 51, 0
6, 79104, Note_on_c, 4, 51, 100
6, 79176, Note_on_c, 4, 51, 0
6, 79200, Note_on_c, 4, 51, 100
6, 79272, Note_on_c, 4, 51, 0
6, 79296, Note_on_c, 4, 51, 100
6, 79368, Note_on_c, 4, 51, 0
6, 79392, Note_on_c, 4, 51, 100
6, 79464, Note_on_c, 4, 51, 0
6, 79488, Note_on_c, 4, 51, 100
6, 79560, Note_on_c, 4, 51, 0
6, 79584, Note_on_c, 4, 51, 100
6, 79656, Note_on_c, 4, 51, 0
6, 79680, Note_on_c, 4, 51, 100
6, 79752, Note_on_c, 4, 51, 0
6, 79776, Note_on_c, 4, 51, 100
6, 79848, Note_on_c, 4, 51, 0
6, 79872, Note_on_c, 4, 51, 100
6, 79944, Note_on_c, 4, 51, 0
6, 79968, Note_on_c, 4, 51, 100
6, 80040, Note_on_c, 4, 51, 0
6, 80064, Note_on_c, 4, 55, 100
6, 80136, Note_on_c, 4, 55, 0
6, 80160, Note_on_c, 4, 55, 100
6, 80232, Note_on_c, 4, 55, 0
6, 80256, Note_on_c, 4, 55, 100
6, 80328, Note_on_c, 4, 55, 0
6, 80352, Note_on_c, 4, 55, 100
6, 80424, Note_on_c, 4, 55, 0
6, 80448, Note_on_c, 4, 55, 100
6, 80520, Note_on_c, 4, 55, 0
6, 80544, Note_on_c, 4, 55, 100
6, 80616, Note_on_c, 4, 55, 0
6, 80640, Note_on_c, 4, 55, 100
6, 80784, Note_on_c, 4, 55, 0
6, 80832, Note_on_c, 4, 43, 100
6, 80976, Note_on_c, 4, 43, 0
6, 81024, Note_on_c, 4, 43, 100
6, 81168, Note_on_c, 4, 43, 0
6, 81216, Note_on_c, 4, 43, 100
6, 81360, Note_on_c, 4, 43, 0
6, 81408, Note_on_c, 4, 43, 100
6, 81552, Note_on_c, 4, 43, 0
6, 81600, Note_on_c, 4, 43, 100
6, 81744, Note_on_c, 4, 43, 0
6, 81792, Note_on_c, 4, 43, 100
6, 81936, Note_on_c, 4, 43, 0
6, 81984, Note_on_c, 4, 43, 100
6, 82128, Note_on_c, 4, 43, 0
6, 82176, Note_on_c, 4, 43, 100
6, 82320, Note_on_c, 4, 43, 0
6, 82368, Note_on_c, 4, 43, 100
6, 82512, Note_on_c, 4, 43, 0
6, 82560, Note_on_c, 4, 43, 100
6, 82704, Note_on_c, 4, 43, 0
6, 82752, Note_on_c, 4, 43, 100
6, 82896, Note_on_c, 4, 43, 0
6, 82944, Note_on_c, 4, 43, 100
6, 83088, Note_on_c, 4, 43, 0
6, 84096, Note_on_c, 4, 46, 100
6, 84132, Note_on_c, 4, 46, 0
6, 84144, Note_on_c, 4, 43, 100
6, 84180, Note_on_c, 4, 43, 0
6, 84192, Note_on_c, 4, 46, 100
6, 84228, Note_on_c, 4, 46, 0
6, 84240, Note_on_c, 4, 43, 100
6, 84276, Note_on_c, 4, 43, 0
6, 84288, Note_on_c, 4, 46, 100
6, 84324, Note_on_c, 4, 46, 0
6, 84336, Note_on_c, 4, 43, 100
6, 84372, Note_on_c, 4, 43, 0
6, 84384, Note_on_c, 4, 46, 100
6, 84420, Note_on_c, 4, 46, 0
6, 84432, Note_on_c, 4, 43, 100
6, 84468, Note_on_c, 4, 43, 0
6, 84480, Note_on_c, 4, 46, 100
6, 84516, Note_on_c, 4, 46, 0
6, 84528, Note_on_c, 4, 43, 100
6, 84564, Note_on_c, 4, 43, 0
6, 84576, Note_on_c, 4, 46, 100
6, 84612, Note_on_c, 4, 46, 0
6, 84624, Note_on_c, 4, 43, 100
6, 84660, Note_on_c, 4, 43, 0
6, 84672, Note_on_c, 4, 50, 100
6, 84864, Note_on_c, 4, 50, 0
6, 86976, Note_on_c, 4, 50, 100
6, 87012, Note_on_c, 4, 50, 0
6, 87024, Note_on_c, 4, 62, 100
6, 87060, Note_on_c, 4, 62, 0
6, 87072, Note_on_c, 4, 60, 100
6, 87108, Note_on_c, 4, 60, 0
6, 87120, Note_on_c, 4, 58, 100
6, 87156, Note_on_c, 4, 58, 0
6, 87168, Note_on_c, 4, 57, 100
6, 87204, Note_on_c, 4, 57, 0
6, 87216, Note_on_c, 4, 58, 100
6, 87252, Note_on_c, 4, 58, 0
6, 87264, Note_on_c, 4, 57, 100
6, 87300, Note_on_c, 4, 57, 0
6, 87312, Note_on_c, 4, 55, 100
6, 87348, Note_on_c, 4, 55, 0
6, 87360, Note_on_c, 4, 54, 100
6, 87396, Note_on_c, 4, 54, 0
6, 87408, Note_on_c, 4, 52, 100
6, 87444, Note_on_c, 4, 52, 0
6, 87456, Note_on_c, 4, 50, 100
6, 87492, Note_on_c, 4, 50, 0
6, 87504, Note_on_c, 4, 48, 100
6, 87540, Note_on_c, 4, 48, 0
6, 87552, Note_on_c, 4, 46, 100
6, 87588, Note_on_c, 4, 46, 0
6, 87600, Note_on_c, 4, 46, 100
6, 87636, Note_on_c, 4, 46, 0
6, 87648, Note_on_c, 4, 46, 100
6, 87684, Note_on_c, 4, 46, 0
6, 87696, Note_on_c, 4, 46, 100
6, 87732, Note_on_c, 4, 46, 0
6, 87744, Note_on_c, 4, 46, 100
6, 87780, Note_on_c, 4, 46, 0
6, 87792, Note_on_c, 4, 46, 100
6, 87828, Note_on_c, 4, 46, 0
6, 87840, Note_on_c, 4, 46, 100
6, 87876, Note_on_c, 4, 46, 0
6, 87888, Note_on_c, 4, 46, 100
6, 87924, Note_on_c, 4, 46, 0
6, 87936, Note_on_c, 4, 46, 100
6, 87972, Note_on_c, 4, 46, 0
6, 87984, Note_on_c, 4, 46, 100
6, 88020, Note_on_c, 4, 46, 0
6, 88032, Note_on_c, 4, 46, 100
6, 88068, Note_on_c, 4, 46, 0
6, 88080, Note_on_c, 4, 46, 100
6, 88116, Note_on_c, 4, 46, 0
6, 88128, Note_on_c, 4, 48, 100
6, 88164, Note_on_c, 4, 48, 0
6, 88176, Note_on_c, 4, 48, 100
6, 88212, Note_on_c, 4, 48, 0
6, 88224, Note_on_c, 4, 48, 100
6, 88260, Note_on_c, 4, 48, 0
6, 88272, Note_on_c, 4, 48, 100
6, 88308, Note_on_c, 4, 48, 0
6, 88320, Note_on_c, 4, 48, 100
6, 88356, Note_on_c, 4, 48, 0
6, 88368, Note_on_c, 4, 48, 100
6, 88404, Note_on_c, 4, 48, 0
6, 88416, Note_on_c, 4, 48, 100
6, 88452, Note_on_c, 4, 48, 0
6, 88464, Note_on_c, 4, 48, 100
6, 88500, Note_on_c, 4, 48, 0
6, 88512, Note_on_c, 4, 48, 100
6, 88548, Note_on_c, 4, 48, 0
6, 88560, Note_on_c, 4, 48, 100
6, 88596, Note_on_c, 4, 48, 0
6, 88608, Note_on_c, 4, 48, 100
6, 88644, Note_on_c, 4, 48, 0
6, 88656, Note_on_c, 4, 48, 100
6, 88692, Note_on_c, 4, 48, 0
6, 88704, Note_on_c, 4, 50, 100
6, 88740, Note_on_c, 4, 50, 0
6, 88752, Note_on_c, 4, 50, 100
6, 88788, Note_on_c, 4, 50, 0
6, 88800, Note_on_c, 4, 50, 100
6, 88836, Note_on_c, 4, 50, 0
6, 88848, Note_on_c, 4, 50, 100
6, 88884, Note_on_c, 4, 50, 0
6, 88896, Note_on_c, 4, 50, 100
6, 88932, Note_on_c, 4, 50, 0
6, 88944, Note_on_c, 4, 50, 100
6, 88980, Note_on_c, 4, 50, 0
6, 88992, Note_on_c, 4, 50, 100
6, 89028, Note_on_c, 4, 50, 0
6, 89040, Note_on_c, 4, 50, 100
6, 89076, Note_on_c, 4, 50, 0
6, 89088, Note_on_c, 4, 50, 100
6, 89124, Note_on_c, 4, 50, 0
6, 89136, Note_on_c, 4, 50, 100
6, 89172, Note_on_c, 4, 50, 0
6, 89184, Note_on_c, 4, 50, 100
6, 89220, Note_on_c, 4, 50, 0
6, 89232, Note_on_c, 4, 50, 100
6, 89268, Note_on_c, 4, 50, 0
6, 89280, Note_on_c, 4, 43, 100
6, 89316, Note_on_c, 4, 43, 0
6, 89328, Note_on_c, 4, 43, 100
6, 89364, Note_on_c, 4, 43, 0
6, 89376, Note_on_c, 4, 43, 100
6, 89412, Note_on_c, 4, 43, 0
6, 89424, Note_on_c, 4, 43, 100
6, 89460, Note_on_c, 4, 43, 0
6, 89472, Note_on_c, 4, 46, 100
6, 89508, Note_on_c, 4, 46, 0
6, 89520, Note_on_c, 4, 46, 100
6, 89556, Note_on_c, 4, 46, 0
6, 89568, Note_on_c, 4, 46, 100
6, 89604, Note_on_c, 4, 46, 0
6, 89616, Note_on_c, 4, 46, 100
6, 89652, Note_on_c, 4, 46, 0
6, 89664, Note_on_c, 4, 46, 100
6, 89700, Note_on_c, 4, 46, 0
6, 89712, Note_on_c, 4, 46, 100
6, 89748, Note_on_c, 4, 46, 0
6, 89760, Note_on_c, 4, 46, 100
6, 89796, Note_on_c, 4, 46, 0
6, 89808, Note_on_c, 4, 46, 100
6, 89844, Note_on_c, 4, 46, 0
6, 89856, Note_on_c, 4, 48, 100
6, 89892, Note_on_c, 4, 48, 0
6, 89904, Note_on_c, 4, 48, 100
6, 89940, Note_on_c, 4, 48, 0
6, 89952, Note_on_c, 4, 48, 100
6, 89988, Note_on_c, 4, 48, 0
6, 90000, Note_on_c, 4, 48, 100
6, 90036, Note_on_c, 4, 48, 0
6, 90048, Note_on_c, 4, 48, 100
6, 90084, Note_on_c, 4, 48, 0
6, 90096, Note_on_c, 4, 48, 100
6, 90132, Note_on_c, 4, 48, 0
6, 90144, Note_on_c, 4, 48, 100
6, 90180, Note_on_c, 4, 48, 0
6, 90192, Note_on_c, 4, 48, 100
6, 90228, Note_on_c, 4, 48, 0
6, 90240, Note_on_c, 4, 48, 100
6, 90276, Note_on_c, 4, 48, 0
6, 90288, Note_on_c, 4, 48, 100
6, 90324, Note_on_c, 4, 48, 0
6, 90336, Note_on_c, 4, 48, 100
6, 90372, Note_on_c, 4, 48, 0
6, 90384, Note_on_c, 4, 48, 100
6, 90420, Note_on_c, 4, 48, 0
6, 90432, Note_on_c, 4, 50, 100
6, 90468, Note_on_c, 4, 50, 0
6, 90480, Note_on_c, 4, 50, 100
6, 90516, Note_on_c, 4, 50, 0
6, 90528, Note_on_c, 4, 50, 100
6, 90564, Note_on_c, 4, 50, 0
6, 90576, Note_on_c, 4, 50, 100
6, 90612, Note_on_c, 4, 50, 0
6, 90624, Note_on_c, 4, 50, 100
6, 90660, Note_on_c, 4, 50, 0
6, 90672, Note_on_c, 4, 50, 100
6, 90708, Note_on_c, 4, 50, 0
6, 90720, Note_on_c, 4, 50, 100
6, 90756, Note_on_c, 4, 50, 0
6, 90768, Note_on_c, 4, 50, 100
6, 90804, Note_on_c, 4, 50, 0
6, 90816, Note_on_c, 4, 50, 100
6, 90852, Note_on_c, 4, 50, 0
6, 90864, Note_on_c, 4, 50, 100
6, 90900, Note_on_c, 4, 50, 0
6, 90912, Note_on_c, 4, 50, 100
6, 90948, Note_on_c, 4, 50, 0
6, 90960, Note_on_c, 4, 50, 100
6, 90996, Note_on_c, 4, 50, 0
6, 91008, Note_on_c, 4, 43, 100
6, 91044, Note_on_c, 4, 43, 0
6, 91056, Note_on_c, 4, 55, 100
6, 91092, Note_on_c, 4, 55, 0
6, 91104, Note_on_c, 4, 43, 100
6, 91140, Note_on_c, 4, 43, 0
6, 91152, Note_on_c, 4, 55, 100
6, 91188, Note_on_c, 4, 55, 0
6, 91200, Note_on_c, 4, 43, 100
6, 91236, Note_on_c, 4, 43, 0
6, 91248, Note_on_c, 4, 55, 100
6, 91284, Note_on_c, 4, 55, 0
6, 91296, Note_on_c, 4, 43, 100
6, 91332, Note_on_c, 4, 43, 0
6, 91344, Note_on_c, 4, 55, 100
6, 91380, Note_on_c, 4, 55, 0
6, 91392, Note_on_c, 4, 43, 100
6, 91428, Note_on_c, 4, 43, 0
6, 91440, Note_on_c, 4, 55, 100
6, 91476, Note_on_c, 4, 55, 0
6, 91488, Note_on_c, 4, 43, 100
6, 91524, Note_on_c, 4, 43, 0
6, 91536, Note_on_c, 4, 55, 100
6, 91572, Note_on_c, 4, 55, 0
6, 91584, Note_on_c, 4, 43, 100
6, 91620, Note_on_c, 4, 43, 0
6, 91632, Note_on_c, 4, 55, 100
6, 91668, Note_on_c, 4, 55, 0
6, 91680, Note_on_c, 4, 43, 100
6, 91716, Note_on_c, 4, 43, 0
6, 91728, Note_on_c, 4, 55, 100
6, 91764, Note_on_c, 4, 55, 0
6, 91776, Note_on_c, 4, 43, 100
6, 91812, Note_on_c, 4, 43, 0
6, 91824, Note_on_c, 4, 55, 100
6, 91860, Note_on_c, 4, 55, 0
6, 91872, Note_on_c, 4, 43, 100
6, 91908, Note_on_c, 4, 43, 0
6, 91920, Note_on_c, 4, 55, 100
6, 91956, Note_on_c, 4, 55, 0
6, 91968, Note_on_c, 4, 43, 100
6, 92004, Note_on_c, 4, 43, 0
6, 92016, Note_on_c, 4, 55, 100
6, 92052, Note_on_c, 4, 55, 0
6, 92064, Note_on_c, 4, 43, 100
6, 92100, Note_on_c, 4, 43, 0
6, 92112, Note_on_c, 4, 55, 100
6, 92148, Note_on_c, 4, 55, 0
6, 92160, Note_on_c, 4, 43, 100
6, 92196, Note_on_c, 4, 43, 0
6, 92208, Note_on_c, 4, 55, 100
6, 92244, Note_on_c, 4, 55, 0
6, 92256, Note_on_c, 4, 43, 100
6, 92292, Note_on_c, 4, 43, 0
6, 92304, Note_on_c, 4, 55, 100
6, 92340, Note_on_c, 4, 55, 0
6, 92352, Note_on_c, 4, 43, 100
6, 92388, Note_on_c, 4, 43, 0
6, 92400, Note_on_c, 4, 55, 100
6, 92436, Note_on_c, 4, 55, 0
6, 92448, Note_on_c, 4, 43, 100
6, 92484, Note_on_c, 4, 43, 0
6, 92496, Note_on_c, 4, 55, 100
6, 92532, Note_on_c, 4, 55, 0
6, 92544, Note_on_c, 4, 43, 100
6, 92580, Note_on_c, 4, 43, 0
6, 92592, Note_on_c, 4, 55, 100
6, 92628, Note_on_c, 4, 55, 0
6, 92640, Note_on_c, 4, 43, 100
6, 92676, Note_on_c, 4, 43, 0
6, 92688, Note_on_c, 4, 55, 100
6, 92724, Note_on_c, 4, 55, 0
6, 92928, Note_on_c, 4, 43, 100
6, 93312, Note_on_c, 4, 43, 0
6, 93312, End_track
7, 0, Start_track
7, 0, MIDI_port, 0
7, 0, Title_t, "Vlc. Solo           "
7, 0, Program_c, 5, 42
7, 0, Control_c, 5, 7, 60
7, 0, Control_c, 5, 10, 82
7, 1920, Control_c, 5, 7, 127
7, 1920, Note_on_c, 5, 43, 127
7, 2016, Note_on_c, 5, 43, 0
7, 2016, Note_on_c, 5, 43, 127
7, 2064, Note_on_c, 5, 43, 0
7, 2064, Note_on_c, 5, 43, 127
7, 2112, Note_on_c, 5, 43, 0
7, 2112, Note_on_c, 5, 43, 127
7, 2160, Note_on_c, 5, 43, 0
7, 2160, Note_on_c, 5, 43, 127
7, 2208, Note_on_c, 5, 43, 0
7, 2208, Note_on_c, 5, 43, 127
7, 2256, Note_on_c, 5, 43, 0
7, 2256, Note_on_c, 5, 43, 127
7, 2304, Note_on_c, 5, 43, 0
7, 2304, Note_on_c, 5, 43, 127
7, 2352, Note_on_c, 5, 43, 0
7, 2352, Note_on_c, 5, 43, 127
7, 2400, Note_on_c, 5, 43, 0
7, 2400, Note_on_c, 5, 43, 127
7, 2448, Note_on_c, 5, 43, 0
7, 2448, Note_on_c, 5, 43, 127
7, 2496, Note_on_c, 5, 43, 0
7, 2496, Note_on_c, 5, 43, 127
7, 2544, Note_on_c, 5, 43, 0
7, 2544, Note_on_c, 5, 43, 127
7, 2592, Note_on_c, 5, 43, 0
7, 2592, Note_on_c, 5, 43, 127
7, 2640, Note_on_c, 5, 43, 0
7, 2640, Note_on_c, 5, 43, 127
7, 2688, Note_on_c, 5, 43, 0
7, 2688, Note_on_c, 5, 43, 127
7, 2880, Note_on_c, 5, 43, 0
7, 5760, Control_c, 5, 7, 127
7, 5760, Note_on_c, 5, 46, 127
7, 5856, Note_on_c, 5, 46, 0
7, 5856, Note_on_c, 5, 46, 127
7, 5904, Note_on_c, 5, 46, 0
7, 5904, Note_on_c, 5, 46, 127
7, 5952, Note_on_c, 5, 46, 0
7, 5952, Note_on_c, 5, 46, 127
7, 6000, Note_on_c, 5, 46, 0
7, 6000, Note_on_c, 5, 46, 127
7, 6048, Note_on_c, 5, 46, 0
7, 6048, Note_on_c, 5, 46, 127
7, 6096, Note_on_c, 5, 46, 0
7, 6096, Note_on_c, 5, 46, 127
7, 6144, Note_on_c, 5, 46, 0
7, 6144, Note_on_c, 5, 46, 127
7, 6192, Note_on_c, 5, 46, 0
7, 6192, Note_on_c, 5, 46, 127
7, 6240, Note_on_c, 5, 46, 0
7, 6240, Note_on_c, 5, 46, 127
7, 6288, Note_on_c, 5, 46, 0
7, 6288, Note_on_c, 5, 46, 127
7, 6336, Note_on_c, 5, 46, 0
7, 6336, Note_on_c, 5, 46, 127
7, 6384, Note_on_c, 5, 46, 0
7, 6384, Note_on_c, 5, 46, 127
7, 6432, Note_on_c, 5, 46, 0
7, 6432, Note_on_c, 5, 46, 127
7, 6480, Note_on_c, 5, 46, 0
7, 6480, Note_on_c, 5, 46, 127
7, 6528, Note_on_c, 5, 46, 0
7, 6528, Note_on_c, 5, 46, 127
7, 6720, Note_on_c, 5, 46, 0
7, 11520, Control_c, 5, 7, 127
7, 11520, Note_on_c, 5, 43, 127
7, 11616, Note_on_c, 5, 43, 0
7, 11616, Note_on_c, 5, 43, 127
7, 11648, Note_on_c, 5, 43, 0
7, 11664, Note_on_c, 5, 43, 127
7, 11696, Note_on_c, 5, 43, 0
7, 11712, Note_on_c, 5, 43, 127
7, 11744, Note_on_c, 5, 43, 0
7, 11760, Note_on_c, 5, 43, 127
7, 11792, Note_on_c, 5, 43, 0
7, 11808, Note_on_c, 5, 43, 127
7, 11840, Note_on_c, 5, 43, 0
7, 11856, Note_on_c, 5, 43, 127
7, 11888, Note_on_c, 5, 43, 0
7, 11904, Note_on_c, 5, 43, 127
7, 11936, Note_on_c, 5, 43, 0
7, 11952, Note_on_c, 5, 43, 127
7, 11984, Note_on_c, 5, 43, 0
7, 12000, Note_on_c, 5, 43, 127
7, 12032, Note_on_c, 5, 43, 0
7, 12048, Note_on_c, 5, 43, 127
7, 12080, Note_on_c, 5, 43, 0
7, 12096, Note_on_c, 5, 43, 127
7, 12128, Note_on_c, 5, 43, 0
7, 12144, Note_on_c, 5, 43, 127
7, 12176, Note_on_c, 5, 43, 0
7, 12192, Note_on_c, 5, 43, 127
7, 12224, Note_on_c, 5, 43, 0
7, 12240, Note_on_c, 5, 43, 127
7, 12272, Note_on_c, 5, 43, 0
7, 12288, Note_on_c, 5, 43, 127
7, 12480, Note_on_c, 5, 43, 0
7, 14592, Control_c, 5, 7, 127
7, 14592, Note_on_c, 5, 55, 127
7, 14688, Note_on_c, 5, 55, 0
7, 14688, Note_on_c, 5, 55, 127
7, 14720, Note_on_c, 5, 55, 0
7, 14736, Note_on_c, 5, 55, 127
7, 14768, Note_on_c, 5, 55, 0
7, 14784, Note_on_c, 5, 55, 127
7, 14816, Note_on_c, 5, 55, 0
7, 14832, Note_on_c, 5, 55, 127
7, 14864, Note_on_c, 5, 55, 0
7, 14880, Note_on_c, 5, 55, 127
7, 14912, Note_on_c, 5, 55, 0
7, 14928, Note_on_c, 5, 55, 127
7, 14960, Note_on_c, 5, 55, 0
7, 14976, Note_on_c, 5, 55, 127
7, 15008, Note_on_c, 5, 55, 0
7, 15024, Note_on_c, 5, 55, 127
7, 15056, Note_on_c, 5, 55, 0
7, 15072, Note_on_c, 5, 55, 127
7, 15104, Note_on_c, 5, 55, 0
7, 15120, Note_on_c, 5, 55, 127
7, 15152, Note_on_c, 5, 55, 0
7, 15168, Note_on_c, 5, 55, 127
7, 15200, Note_on_c, 5, 55, 0
7, 15216, Note_on_c, 5, 55, 127
7, 15248, Note_on_c, 5, 55, 0
7, 15264, Note_on_c, 5, 55, 127
7, 15296, Note_on_c, 5, 55, 0
7, 15312, Note_on_c, 5, 55, 127
7, 15344, Note_on_c, 5, 55, 0
7, 15360, Note_on_c, 5, 55, 127
7, 15552, Note_on_c, 5, 55, 0
7, 15720, Control_c, 5, 7, 60
7, 17688, Control_c, 5, 7, 100
7, 18432, Note_on_c, 5, 55, 100
7, 18468, Note_on_c, 5, 55, 0
7, 18480, Note_on_c, 5, 43, 100
7, 18516, Note_on_c, 5, 43, 0
7, 18528, Note_on_c, 5, 43, 100
7, 18564, Note_on_c, 5, 43, 0
7, 18576, Note_on_c, 5, 43, 100
7, 18612, Note_on_c, 5, 43, 0
7, 18624, Note_on_c, 5, 43, 100
7, 18660, Note_on_c, 5, 43, 0
7, 18672, Note_on_c, 5, 43, 100
7, 18708, Note_on_c, 5, 43, 0
7, 18720, Note_on_c, 5, 43, 100
7, 18756, Note_on_c, 5, 43, 0
7, 18768, Note_on_c, 5, 43, 100
7, 18804, Note_on_c, 5, 43, 0
7, 18816, Note_on_c, 5, 43, 100
7, 18852, Note_on_c, 5, 43, 0
7, 18864, Note_on_c, 5, 43, 100
7, 18900, Note_on_c, 5, 43, 0
7, 18912, Note_on_c, 5, 43, 100
7, 18948, Note_on_c, 5, 43, 0
7, 18960, Note_on_c, 5, 43, 100
7, 18996, Note_on_c, 5, 43, 0
7, 19008, Note_on_c, 5, 53, 100
7, 19044, Note_on_c, 5, 53, 0
7, 19056, Note_on_c, 5, 43, 100
7, 19092, Note_on_c, 5, 43, 0
7, 19104, Note_on_c, 5, 43, 100
7, 19140, Note_on_c, 5, 43, 0
7, 19152, Note_on_c, 5, 43, 100
7, 19188, Note_on_c, 5, 43, 0
7, 19200, Note_on_c, 5, 43, 100
7, 19236, Note_on_c, 5, 43, 0
7, 19248, Note_on_c, 5, 43, 100
7, 19284, Note_on_c, 5, 43, 0
7, 19296, Note_on_c, 5, 43, 100
7, 19332, Note_on_c, 5, 43, 0
7, 19344, Note_on_c, 5, 43, 100
7, 19380, Note_on_c, 5, 43, 0
7, 19392, Note_on_c, 5, 43, 100
7, 19428, Note_on_c, 5, 43, 0
7, 19440, Note_on_c, 5, 43, 100
7, 19476, Note_on_c, 5, 43, 0
7, 19488, Note_on_c, 5, 43, 100
7, 19524, Note_on_c, 5, 43, 0
7, 19536, Note_on_c, 5, 43, 100
7, 19572, Note_on_c, 5, 43, 0
7, 19584, Note_on_c, 5, 51, 100
7, 19620, Note_on_c, 5, 51, 0
7, 19632, Note_on_c, 5, 43, 100
7, 19668, Note_on_c, 5, 43, 0
7, 19680, Note_on_c, 5, 43, 100
7, 19716, Note_on_c, 5, 43, 0
7, 19728, Note_on_c, 5, 43, 100
7, 19764, Note_on_c, 5, 43, 0
7, 19776, Note_on_c, 5, 43, 100
7, 19812, Note_on_c, 5, 43, 0
7, 19824, Note_on_c, 5, 43, 100
7, 19860, Note_on_c, 5, 43, 0
7, 19872, Note_on_c, 5, 43, 100
7, 19908, Note_on_c, 5, 43, 0
7, 19920, Note_on_c, 5, 43, 100
7, 19956, Note_on_c, 5, 43, 0
7, 19968, Note_on_c, 5, 43, 100
7, 20004, Note_on_c, 5, 43, 0
7, 20016, Note_on_c, 5, 43, 100
7, 20052, Note_on_c, 5, 43, 0
7, 20064, Note_on_c, 5, 43, 100
7, 20100, Note_on_c, 5, 43, 0
7, 20112, Note_on_c, 5, 43, 100
7, 20148, Note_on_c, 5, 43, 0
7, 20160, Note_on_c, 5, 50, 100
7, 20196, Note_on_c, 5, 50, 0
7, 20208, Note_on_c, 5, 43, 100
7, 20244, Note_on_c, 5, 43, 0
7, 20256, Note_on_c, 5, 43, 100
7, 20292, Note_on_c, 5, 43, 0
7, 20304, Note_on_c, 5, 43, 100
7, 20340, Note_on_c, 5, 43, 0
7, 20352, Note_on_c, 5, 43, 100
7, 20388, Note_on_c, 5, 43, 0
7, 20400, Note_on_c, 5, 43, 100
7, 20436, Note_on_c, 5, 43, 0
7, 20448, Note_on_c, 5, 43, 100
7, 20484, Note_on_c, 5, 43, 0
7, 20496, Note_on_c, 5, 43, 100
7, 20532, Note_on_c, 5, 43, 0
7, 20544, Note_on_c, 5, 43, 100
7, 20580, Note_on_c, 5, 43, 0
7, 21312, Note_on_c, 5, 62, 100
7, 21348, Note_on_c, 5, 62, 0
7, 21360, Note_on_c, 5, 50, 100
7, 21396, Note_on_c, 5, 50, 0
7, 21408, Note_on_c, 5, 50, 100
7, 21444, Note_on_c, 5, 50, 0
7, 21456, Note_on_c, 5, 50, 100
7, 21492, Note_on_c, 5, 50, 0
7, 21504, Note_on_c, 5, 50, 100
7, 21540, Note_on_c, 5, 50, 0
7, 21552, Note_on_c, 5, 50, 100
7, 21588, Note_on_c, 5, 50, 0
7, 21600, Note_on_c, 5, 50, 100
7, 21636, Note_on_c, 5, 50, 0
7, 21648, Note_on_c, 5, 50, 100
7, 21684, Note_on_c, 5, 50, 0
7, 21696, Note_on_c, 5, 50, 100
7, 21732, Note_on_c, 5, 50, 0
7, 21744, Note_on_c, 5, 50, 100
7, 21780, Note_on_c, 5, 50, 0
7, 21792, Note_on_c, 5, 50, 100
7, 21828, Note_on_c, 5, 50, 0
7, 21840, Note_on_c, 5, 50, 100
7, 21876, Note_on_c, 5, 50, 0
7, 21888, Note_on_c, 5, 60, 100
7, 21924, Note_on_c, 5, 60, 0
7, 21936, Note_on_c, 5, 50, 100
7, 21972, Note_on_c, 5, 50, 0
7, 21984, Note_on_c, 5, 50, 100
7, 22020, Note_on_c, 5, 50, 0
7, 22032, Note_on_c, 5, 50, 100
7, 22068, Note_on_c, 5, 50, 0
7, 22080, Note_on_c, 5, 50, 100
7, 22116, Note_on_c, 5, 50, 0
7, 22128, Note_on_c, 5, 50, 100
7, 22164, Note_on_c, 5, 50, 0
7, 22176, Note_on_c, 5, 50, 100
7, 22212, Note_on_c, 5, 50, 0
7, 22224, Note_on_c, 5, 50, 100
7, 22260, Note_on_c, 5, 50, 0
7, 22272, Note_on_c, 5, 50, 100
7, 22308, Note_on_c, 5, 50, 0
7, 22320, Note_on_c, 5, 50, 100
7, 22356, Note_on_c, 5, 50, 0
7, 22368, Note_on_c, 5, 50, 100
7, 22404, Note_on_c, 5, 50, 0
7, 22416, Note_on_c, 5, 50, 100
7, 22452, Note_on_c, 5, 50, 0
7, 22464, Note_on_c, 5, 58, 100
7, 22500, Note_on_c, 5, 58, 0
7, 22512, Note_on_c, 5, 50, 100
7, 22548, Note_on_c, 5, 50, 0
7, 22560, Note_on_c, 5, 50, 100
7, 22596, Note_on_c, 5, 50, 0
7, 22608, Note_on_c, 5, 50, 100
7, 22644, Note_on_c, 5, 50, 0
7, 22656, Note_on_c, 5, 50, 100
7, 22692, Note_on_c, 5, 50, 0
7, 22704, Note_on_c, 5, 50, 100
7, 22740, Note_on_c, 5, 50, 0
7, 22752, Note_on_c, 5, 50, 100
7, 22788, Note_on_c, 5, 50, 0
7, 22800, Note_on_c, 5, 50, 100
7, 22836, Note_on_c, 5, 50, 0
7, 22848, Note_on_c, 5, 50, 100
7, 22884, Note_on_c, 5, 50, 0
7, 22896, Note_on_c, 5, 50, 100
7, 22932, Note_on_c, 5, 50, 0
7, 22944, Note_on_c, 5, 50, 100
7, 22980, Note_on_c, 5, 50, 0
7, 22992, Note_on_c, 5, 50, 100
7, 23028, Note_on_c, 5, 50, 0
7, 23040, Note_on_c, 5, 57, 100
7, 23076, Note_on_c, 5, 57, 0
7, 23088, Note_on_c, 5, 50, 100
7, 23124, Note_on_c, 5, 50, 0
7, 23136, Note_on_c, 5, 50, 100
7, 23172, Note_on_c, 5, 50, 0
7, 23184, Note_on_c, 5, 50, 100
7, 23220, Note_on_c, 5, 50, 0
7, 23232, Note_on_c, 5, 50, 100
7, 23268, Note_on_c, 5, 50, 0
7, 23280, Note_on_c, 5, 50, 100
7, 23316, Note_on_c, 5, 50, 0
7, 23328, Note_on_c, 5, 50, 100
7, 23364, Note_on_c, 5, 50, 0
7, 23376, Note_on_c, 5, 50, 100
7, 23412, Note_on_c, 5, 50, 0
7, 23424, Note_on_c, 5, 50, 100
7, 23460, Note_on_c, 5, 50, 0
7, 24192, Note_on_c, 5, 43, 100
7, 24264, Note_on_c, 5, 43, 0
7, 24288, Note_on_c, 5, 43, 100
7, 24360, Note_on_c, 5, 43, 0
7, 24384, Note_on_c, 5, 43, 100
7, 24456, Note_on_c, 5, 43, 0
7, 24480, Note_on_c, 5, 43, 100
7, 24552, Note_on_c, 5, 43, 0
7, 24576, Note_on_c, 5, 43, 100
7, 24648, Note_on_c, 5, 43, 0
7, 24672, Note_on_c, 5, 43, 100
7, 24744, Note_on_c, 5, 43, 0
7, 24768, Note_on_c, 5, 43, 100
7, 24840, Note_on_c, 5, 43, 0
7, 24864, Note_on_c, 5, 43, 100
7, 24936, Note_on_c, 5, 43, 0
7, 24960, Note_on_c, 5, 43, 100
7, 25032, Note_on_c, 5, 43, 0
7, 25056, Note_on_c, 5, 43, 100
7, 25128, Note_on_c, 5, 43, 0
7, 25152, Note_on_c, 5, 43, 100
7, 25224, Note_on_c, 5, 43, 0
7, 25248, Note_on_c, 5, 43, 100
7, 25320, Note_on_c, 5, 43, 0
7, 25344, Note_on_c, 5, 48, 100
7, 25416, Note_on_c, 5, 48, 0
7, 25440, Note_on_c, 5, 48, 100
7, 25512, Note_on_c, 5, 48, 0
7, 25536, Note_on_c, 5, 48, 100
7, 25608, Note_on_c, 5, 48, 0
7, 25632, Note_on_c, 5, 48, 100
7, 25704, Note_on_c, 5, 48, 0
7, 25728, Note_on_c, 5, 48, 100
7, 25800, Note_on_c, 5, 48, 0
7, 25824, Note_on_c, 5, 48, 100
7, 25896, Note_on_c, 5, 48, 0
7, 25920, Note_on_c, 5, 48, 100
7, 25992, Note_on_c, 5, 48, 0
7, 26016, Note_on_c, 5, 48, 100
7, 26088, Note_on_c, 5, 48, 0
7, 26112, Note_on_c, 5, 48, 100
7, 26184, Note_on_c, 5, 48, 0
7, 26208, Note_on_c, 5, 48, 100
7, 26280, Note_on_c, 5, 48, 0
7, 26304, Note_on_c, 5, 48, 100
7, 26376, Note_on_c, 5, 48, 0
7, 26400, Note_on_c, 5, 48, 100
7, 26472, Note_on_c, 5, 48, 0
7, 26496, Note_on_c, 5, 51, 100
7, 26568, Note_on_c, 5, 51, 0
7, 26592, Note_on_c, 5, 51, 100
7, 26664, Note_on_c, 5, 51, 0
7, 26688, Note_on_c, 5, 51, 100
7, 26760, Note_on_c, 5, 51, 0
7, 26784, Note_on_c, 5, 51, 100
7, 26856, Note_on_c, 5, 51, 0
7, 26880, Note_on_c, 5, 51, 100
7, 26952, Note_on_c, 5, 51, 0
7, 26976, Note_on_c, 5, 51, 100
7, 27048, Note_on_c, 5, 51, 0
7, 27072, Note_on_c, 5, 51, 100
7, 27144, Note_on_c, 5, 51, 0
7, 27168, Note_on_c, 5, 51, 100
7, 27240, Note_on_c, 5, 51, 0
7, 27264, Note_on_c, 5, 51, 100
7, 27336, Note_on_c, 5, 51, 0
7, 27360, Note_on_c, 5, 51, 100
7, 27432, Note_on_c, 5, 51, 0
7, 27456, Note_on_c, 5, 51, 100
7, 27528, Note_on_c, 5, 51, 0
7, 27552, Note_on_c, 5, 51, 100
7, 27624, Note_on_c, 5, 51, 0
7, 27648, Note_on_c, 5, 55, 100
7, 27720, Note_on_c, 5, 55, 0
7, 27744, Note_on_c, 5, 55, 100
7, 27816, Note_on_c, 5, 55, 0
7, 27840, Note_on_c, 5, 55, 100
7, 27912, Note_on_c, 5, 55, 0
7, 27936, Note_on_c, 5, 55, 100
7, 28008, Note_on_c, 5, 55, 0
7, 28032, Note_on_c, 5, 55, 100
7, 28104, Note_on_c, 5, 55, 0
7, 28128, Note_on_c, 5, 55, 100
7, 28200, Note_on_c, 5, 55, 0
7, 28224, Note_on_c, 5, 55, 100
7, 28296, Note_on_c, 5, 55, 0
7, 28320, Note_on_c, 5, 55, 100
7, 28392, Note_on_c, 5, 55, 0
7, 28416, Note_on_c, 5, 55, 100
7, 28488, Note_on_c, 5, 55, 0
7, 28512, Note_on_c, 5, 55, 100
7, 28584, Note_on_c, 5, 55, 0
7, 28608, Note_on_c, 5, 55, 100
7, 28680, Note_on_c, 5, 55, 0
7, 28704, Note_on_c, 5, 55, 100
7, 28776, Note_on_c, 5, 55, 0
7, 28800, Note_on_c, 5, 55, 100
7, 28872, Note_on_c, 5, 55, 0
7, 28896, Note_on_c, 5, 55, 100
7, 28968, Note_on_c, 5, 55, 0
7, 28992, Note_on_c, 5, 55, 100
7, 29064, Note_on_c, 5, 55, 0
7, 29088, Note_on_c, 5, 55, 100
7, 29160, Note_on_c, 5, 55, 0
7, 29184, Note_on_c, 5, 55, 100
7, 29256, Note_on_c, 5, 55, 0
7, 29280, Note_on_c, 5, 55, 100
7, 29352, Note_on_c, 5, 55, 0
7, 29376, Note_on_c, 5, 55, 100
7, 29412, Note_on_c, 5, 55, 0
7, 29424, Note_on_c, 5, 55, 100
7, 29460, Note_on_c, 5, 55, 0
7, 29472, Note_on_c, 5, 55, 100
7, 29508, Note_on_c, 5, 55, 0
7, 29520, Note_on_c, 5, 55, 100
7, 29556, Note_on_c, 5, 55, 0
7, 29568, Note_on_c, 5, 62, 100
7, 29604, Note_on_c, 5, 62, 0
7, 29616, Note_on_c, 5, 55, 100
7, 29652, Note_on_c, 5, 55, 0
7, 29664, Note_on_c, 5, 55, 100
7, 29700, Note_on_c, 5, 55, 0
7, 29712, Note_on_c, 5, 55, 100
7, 29748, Note_on_c, 5, 55, 0
7, 29760, Note_on_c, 5, 62, 100
7, 29796, Note_on_c, 5, 62, 0
7, 29808, Note_on_c, 5, 55, 100
7, 29844, Note_on_c, 5, 55, 0
7, 29856, Note_on_c, 5, 55, 100
7, 29892, Note_on_c, 5, 55, 0
7, 29904, Note_on_c, 5, 55, 100
7, 29940, Note_on_c, 5, 55, 0
7, 29952, Note_on_c, 5, 50, 100
7, 29988, Note_on_c, 5, 50, 0
7, 30000, Note_on_c, 5, 62, 100
7, 30036, Note_on_c, 5, 62, 0
7, 30048, Note_on_c, 5, 50, 100
7, 30084, Note_on_c, 5, 50, 0
7, 30096, Note_on_c, 5, 62, 100
7, 30132, Note_on_c, 5, 62, 0
7, 30144, Note_on_c, 5, 50, 100
7, 30180, Note_on_c, 5, 50, 0
7, 30192, Note_on_c, 5, 62, 100
7, 30228, Note_on_c, 5, 62, 0
7, 30240, Note_on_c, 5, 50, 100
7, 30276, Note_on_c, 5, 50, 0
7, 30288, Note_on_c, 5, 62, 100
7, 30324, Note_on_c, 5, 62, 0
7, 30336, Note_on_c, 5, 50, 100
7, 30372, Note_on_c, 5, 50, 0
7, 30384, Note_on_c, 5, 62, 100
7, 30420, Note_on_c, 5, 62, 0
7, 30432, Note_on_c, 5, 50, 100
7, 30468, Note_on_c, 5, 50, 0
7, 30480, Note_on_c, 5, 62, 100
7, 30516, Note_on_c, 5, 62, 0
7, 30528, Note_on_c, 5, 50, 100
7, 30564, Note_on_c, 5, 50, 0
7, 30576, Note_on_c, 5, 60, 100
7, 30612, Note_on_c, 5, 60, 0
7, 30624, Note_on_c, 5, 50, 100
7, 30660, Note_on_c, 5, 50, 0
7, 30672, Note_on_c, 5, 60, 100
7, 30708, Note_on_c, 5, 60, 0
7, 30720, Note_on_c, 5, 50, 100
7, 30756, Note_on_c, 5, 50, 0
7, 30768, Note_on_c, 5, 60, 100
7, 30804, Note_on_c, 5, 60, 0
7, 30816, Note_on_c, 5, 50, 100
7, 30852, Note_on_c, 5, 50, 0
7, 30864, Note_on_c, 5, 60, 100
7, 30900, Note_on_c, 5, 60, 0
7, 30912, Note_on_c, 5, 50, 100
7, 30948, Note_on_c, 5, 50, 0
7, 30960, Note_on_c, 5, 60, 100
7, 30996, Note_on_c, 5, 60, 0
7, 31008, Note_on_c, 5, 50, 100
7, 31044, Note_on_c, 5, 50, 0
7, 31056, Note_on_c, 5, 60, 100
7, 31092, Note_on_c, 5, 60, 0
7, 31104, Note_on_c, 5, 50, 100
7, 31140, Note_on_c, 5, 50, 0
7, 31152, Note_on_c, 5, 58, 100
7, 31188, Note_on_c, 5, 58, 0
7, 31200, Note_on_c, 5, 50, 100
7, 31236, Note_on_c, 5, 50, 0
7, 31248, Note_on_c, 5, 58, 100
7, 31284, Note_on_c, 5, 58, 0
7, 31296, Note_on_c, 5, 50, 100
7, 31332, Note_on_c, 5, 50, 0
7, 31344, Note_on_c, 5, 58, 100
7, 31380, Note_on_c, 5, 58, 0
7, 31392, Note_on_c, 5, 50, 100
7, 31428, Note_on_c, 5, 50, 0
7, 31440, Note_on_c, 5, 58, 100
7, 31476, Note_on_c, 5, 58, 0
7, 31488, Note_on_c, 5, 50, 100
7, 31524, Note_on_c, 5, 50, 0
7, 31536, Note_on_c, 5, 58, 100
7, 31572, Note_on_c, 5, 58, 0
7, 31584, Note_on_c, 5, 50, 100
7, 31620, Note_on_c, 5, 50, 0
7, 31632, Note_on_c, 5, 58, 100
7, 31668, Note_on_c, 5, 58, 0
7, 31680, Note_on_c, 5, 50, 100
7, 31716, Note_on_c, 5, 50, 0
7, 31728, Note_on_c, 5, 57, 100
7, 31764, Note_on_c, 5, 57, 0
7, 31776, Note_on_c, 5, 50, 100
7, 31812, Note_on_c, 5, 50, 0
7, 31824, Note_on_c, 5, 57, 100
7, 31860, Note_on_c, 5, 57, 0
7, 31872, Note_on_c, 5, 50, 100
7, 31908, Note_on_c, 5, 50, 0
7, 31920, Note_on_c, 5, 57, 100
7, 31956, Note_on_c, 5, 57, 0
7, 31968, Note_on_c, 5, 50, 100
7, 32004, Note_on_c, 5, 50, 0
7, 32016, Note_on_c, 5, 57, 100
7, 32052, Note_on_c, 5, 57, 0
7, 32064, Note_on_c, 5, 50, 100
7, 32100, Note_on_c, 5, 50, 0
7, 32112, Note_on_c, 5, 57, 100
7, 32148, Note_on_c, 5, 57, 0
7, 32160, Note_on_c, 5, 50, 100
7, 32196, Note_on_c, 5, 50, 0
7, 32208, Note_on_c, 5, 57, 100
7, 32244, Note_on_c, 5, 57, 0
7, 32256, Note_on_c, 5, 50, 100
7, 32292, Note_on_c, 5, 50, 0
7, 32304, Note_on_c, 5, 62, 100
7, 32340, Note_on_c, 5, 62, 0
7, 32352, Note_on_c, 5, 50, 100
7, 32388, Note_on_c, 5, 50, 0
7, 32400, Note_on_c, 5, 62, 100
7, 32436, Note_on_c, 5, 62, 0
7, 32448, Note_on_c, 5, 50, 100
7, 32484, Note_on_c, 5, 50, 0
7, 32496, Note_on_c, 5, 62, 100
7, 32532, Note_on_c, 5, 62, 0
7, 32544, Note_on_c, 5, 50, 100
7, 32580, Note_on_c, 5, 50, 0
7, 32592, Note_on_c, 5, 62, 100
7, 32628, Note_on_c, 5, 62, 0
7, 32640, Note_on_c, 5, 50, 100
7, 32676, Note_on_c, 5, 50, 0
7, 32688, Note_on_c, 5, 62, 100
7, 32724, Note_on_c, 5, 62, 0
7, 32736, Note_on_c, 5, 50, 100
7, 32772, Note_on_c, 5, 50, 0
7, 32784, Note_on_c, 5, 62, 100
7, 32820, Note_on_c, 5, 62, 0
7, 32832, Note_on_c, 5, 50, 100
7, 32868, Note_on_c, 5, 50, 0
7, 32880, Note_on_c, 5, 60, 100
7, 32916, Note_on_c, 5, 60, 0
7, 32928, Note_on_c, 5, 50, 100
7, 32964, Note_on_c, 5, 50, 0
7, 32976, Note_on_c, 5, 60, 100
7, 33012, Note_on_c, 5, 60, 0
7, 33024, Note_on_c, 5, 50, 100
7, 33060, Note_on_c, 5, 50, 0
7, 33072, Note_on_c, 5, 60, 100
7, 33108, Note_on_c, 5, 60, 0
7, 33120, Note_on_c, 5, 50, 100
7, 33156, Note_on_c, 5, 50, 0
7, 33168, Note_on_c, 5, 60, 100
7, 33204, Note_on_c, 5, 60, 0
7, 33216, Note_on_c, 5, 50, 100
7, 33252, Note_on_c, 5, 50, 0
7, 33264, Note_on_c, 5, 60, 100
7, 33300, Note_on_c, 5, 60, 0
7, 33312, Note_on_c, 5, 50, 100
7, 33348, Note_on_c, 5, 50, 0
7, 33360, Note_on_c, 5, 60, 100
7, 33396, Note_on_c, 5, 60, 0
7, 33408, Note_on_c, 5, 50, 100
7, 33444, Note_on_c, 5, 50, 0
7, 33456, Note_on_c, 5, 58, 100
7, 33492, Note_on_c, 5, 58, 0
7, 33504, Note_on_c, 5, 50, 100
7, 33540, Note_on_c, 5, 50, 0
7, 33552, Note_on_c, 5, 58, 100
7, 33588, Note_on_c, 5, 58, 0
7, 33600, Note_on_c, 5, 50, 100
7, 33636, Note_on_c, 5, 50, 0
7, 33648, Note_on_c, 5, 58, 100
7, 33684, Note_on_c, 5, 58, 0
7, 33696, Note_on_c, 5, 50, 100
7, 33732, Note_on_c, 5, 50, 0
7, 33744, Note_on_c, 5, 58, 100
7, 33780, Note_on_c, 5, 58, 0
7, 33792, Note_on_c, 5, 50, 100
7, 33828, Note_on_c, 5, 50, 0
7, 33840, Note_on_c, 5, 58, 100
7, 33876, Note_on_c, 5, 58, 0
7, 33888, Note_on_c, 5, 50, 100
7, 33924, Note_on_c, 5, 50, 0
7, 33936, Note_on_c, 5, 58, 100
7, 33972, Note_on_c, 5, 58, 0
7, 33984, Note_on_c, 5, 50, 100
7, 34020, Note_on_c, 5, 50, 0
7, 34032, Note_on_c, 5, 57, 100
7, 34068, Note_on_c, 5, 57, 0
7, 34080, Note_on_c, 5, 50, 100
7, 34116, Note_on_c, 5, 50, 0
7, 34128, Note_on_c, 5, 57, 100
7, 34164, Note_on_c, 5, 57, 0
7, 34176, Note_on_c, 5, 50, 100
7, 34212, Note_on_c, 5, 50, 0
7, 34224, Note_on_c, 5, 57, 100
7, 34260, Note_on_c, 5, 57, 0
7, 34272, Note_on_c, 5, 50, 100
7, 34308, Note_on_c, 5, 50, 0
7, 34320, Note_on_c, 5, 57, 100
7, 34356, Note_on_c, 5, 57, 0
7, 34368, Note_on_c, 5, 50, 100
7, 34404, Note_on_c, 5, 50, 0
7, 34416, Note_on_c, 5, 57, 100
7, 34452, Note_on_c, 5, 57, 0
7, 34464, Note_on_c, 5, 50, 100
7, 34500, Note_on_c, 5, 50, 0
7, 34512, Note_on_c, 5, 57, 100
7, 34548, Note_on_c, 5, 57, 0
7, 34560, Note_on_c, 5, 43, 101
7, 34632, Note_on_c, 5, 43, 0
7, 34656, Note_on_c, 5, 43, 100
7, 34728, Note_on_c, 5, 43, 0
7, 34752, Note_on_c, 5, 43, 98
7, 34824, Note_on_c, 5, 43, 0
7, 34848, Note_on_c, 5, 43, 97
7, 34920, Note_on_c, 5, 43, 0
7, 34944, Note_on_c, 5, 43, 95
7, 35016, Note_on_c, 5, 43, 0
7, 35040, Note_on_c, 5, 43, 93
7, 35112, Note_on_c, 5, 43, 0
7, 35136, Note_on_c, 5, 43, 92
7, 35208, Note_on_c, 5, 43, 0
7, 35232, Note_on_c, 5, 43, 90
7, 35304, Note_on_c, 5, 43, 0
7, 35328, Note_on_c, 5, 43, 89
7, 35400, Note_on_c, 5, 43, 0
7, 35424, Note_on_c, 5, 43, 87
7, 35496, Note_on_c, 5, 43, 0
7, 35520, Note_on_c, 5, 43, 85
7, 35592, Note_on_c, 5, 43, 0
7, 35616, Note_on_c, 5, 43, 84
7, 35688, Note_on_c, 5, 43, 0
7, 35712, Note_on_c, 5, 43, 82
7, 35784, Note_on_c, 5, 43, 0
7, 35808, Note_on_c, 5, 43, 81
7, 35880, Note_on_c, 5, 43, 0
7, 35904, Note_on_c, 5, 43, 79
7, 35976, Note_on_c, 5, 43, 0
7, 36000, Note_on_c, 5, 43, 77
7, 36072, Note_on_c, 5, 43, 0
7, 36096, Note_on_c, 5, 43, 76
7, 36168, Note_on_c, 5, 43, 0
7, 36192, Note_on_c, 5, 43, 74
7, 36264, Note_on_c, 5, 43, 0
7, 36288, Note_on_c, 5, 43, 101
7, 36324, Note_on_c, 5, 43, 0
7, 36336, Note_on_c, 5, 55, 101
7, 36372, Note_on_c, 5, 55, 0
7, 36384, Note_on_c, 5, 43, 102
7, 36420, Note_on_c, 5, 43, 0
7, 36432, Note_on_c, 5, 55, 102
7, 36468, Note_on_c, 5, 55, 0
7, 36480, Note_on_c, 5, 43, 103
7, 36516, Note_on_c, 5, 43, 0
7, 36528, Note_on_c, 5, 55, 103
7, 36564, Note_on_c, 5, 55, 0
7, 36576, Note_on_c, 5, 43, 104
7, 36612, Note_on_c, 5, 43, 0
7, 36624, Note_on_c, 5, 55, 104
7, 36660, Note_on_c, 5, 55, 0
7, 36672, Note_on_c, 5, 43, 105
7, 36708, Note_on_c, 5, 43, 0
7, 36720, Note_on_c, 5, 55, 106
7, 36756, Note_on_c, 5, 55, 0
7, 36768, Note_on_c, 5, 43, 106
7, 36804, Note_on_c, 5, 43, 0
7, 36816, Note_on_c, 5, 55, 107
7, 36852, Note_on_c, 5, 55, 0
7, 36864, Note_on_c, 5, 48, 107
7, 36900, Note_on_c, 5, 48, 0
7, 36912, Note_on_c, 5, 60, 108
7, 36948, Note_on_c, 5, 60, 0
7, 36960, Note_on_c, 5, 48, 108
7, 36996, Note_on_c, 5, 48, 0
7, 37008, Note_on_c, 5, 60, 109
7, 37044, Note_on_c, 5, 60, 0
7, 37056, Note_on_c, 5, 48, 110
7, 37092, Note_on_c, 5, 48, 0
7, 37104, Note_on_c, 5, 60, 110
7, 37140, Note_on_c, 5, 60, 0
7, 37152, Note_on_c, 5, 48, 111
7, 37188, Note_on_c, 5, 48, 0
7, 37200, Note_on_c, 5, 60, 111
7, 37236, Note_on_c, 5, 60, 0
7, 37248, Note_on_c, 5, 48, 112
7, 37284, Note_on_c, 5, 48, 0
7, 37296, Note_on_c, 5, 60, 112
7, 37332, Note_on_c, 5, 60, 0
7, 37344, Note_on_c, 5, 48, 113
7, 37380, Note_on_c, 5, 48, 0
7, 37392, Note_on_c, 5, 60, 113
7, 37428, Note_on_c, 5, 60, 0
7, 37440, Note_on_c, 5, 45, 114
7, 37476, Note_on_c, 5, 45, 0
7, 37488, Note_on_c, 5, 57, 115
7, 37524, Note_on_c, 5, 57, 0
7, 37536, Note_on_c, 5, 45, 115
7, 37572, Note_on_c, 5, 45, 0
7, 37584, Note_on_c, 5, 57, 116
7, 37620, Note_on_c, 5, 57, 0
7, 37632, Note_on_c, 5, 45, 116
7, 37668, Note_on_c, 5, 45, 0
7, 37680, Note_on_c, 5, 57, 117
7, 37716, Note_on_c, 5, 57, 0
7, 37728, Note_on_c, 5, 45, 117
7, 37764, Note_on_c, 5, 45, 0
7, 37776, Note_on_c, 5, 57, 118
7, 37812, Note_on_c, 5, 57, 0
7, 37824, Note_on_c, 5, 45, 119
7, 37860, Note_on_c, 5, 45, 0
7, 37872, Note_on_c, 5, 57, 119
7, 37908, Note_on_c, 5, 57, 0
7, 37920, Note_on_c, 5, 45, 120
7, 37956, Note_on_c, 5, 45, 0
7, 37968, Note_on_c, 5, 57, 120
7, 38004, Note_on_c, 5, 57, 0
7, 38016, Note_on_c, 5, 50, 121
7, 38052, Note_on_c, 5, 50, 0
7, 38064, Note_on_c, 5, 62, 121
7, 38100, Note_on_c, 5, 62, 0
7, 38112, Note_on_c, 5, 50, 122
7, 38148, Note_on_c, 5, 50, 0
7, 38160, Note_on_c, 5, 62, 122
7, 38196, Note_on_c, 5, 62, 0
7, 38208, Note_on_c, 5, 50, 123
7, 38244, Note_on_c, 5, 50, 0
7, 38256, Note_on_c, 5, 62, 124
7, 38292, Note_on_c, 5, 62, 0
7, 38304, Note_on_c, 5, 50, 124
7, 38340, Note_on_c, 5, 50, 0
7, 38352, Note_on_c, 5, 62, 125
7, 38388, Note_on_c, 5, 62, 0
7, 38400, Note_on_c, 5, 50, 125
7, 38436, Note_on_c, 5, 50, 0
7, 38448, Note_on_c, 5, 62, 126
7, 38484, Note_on_c, 5, 62, 0
7, 38496, Note_on_c, 5, 50, 126
7, 38532, Note_on_c, 5, 50, 0
7, 38544, Note_on_c, 5, 62, 127
7, 38580, Note_on_c, 5, 62, 0
7, 38592, Note_on_c, 5, 45, 100
7, 38628, Note_on_c, 5, 45, 0
7, 38640, Note_on_c, 5, 57, 100
7, 38676, Note_on_c, 5, 57, 0
7, 38688, Note_on_c, 5, 45, 100
7, 38724, Note_on_c, 5, 45, 0
7, 38736, Note_on_c, 5, 57, 100
7, 38772, Note_on_c, 5, 57, 0
7, 38784, Note_on_c, 5, 45, 100
7, 38820, Note_on_c, 5, 45, 0
7, 38832, Note_on_c, 5, 57, 100
7, 38868, Note_on_c, 5, 57, 0
7, 38880, Note_on_c, 5, 45, 100
7, 38916, Note_on_c, 5, 45, 0
7, 38928, Note_on_c, 5, 57, 100
7, 38964, Note_on_c, 5, 57, 0
7, 38976, Note_on_c, 5, 45, 100
7, 39012, Note_on_c, 5, 45, 0
7, 39024, Note_on_c, 5, 57, 100
7, 39060, Note_on_c, 5, 57, 0
7, 39072, Note_on_c, 5, 45, 100
7, 39108, Note_on_c, 5, 45, 0
7, 39120, Note_on_c, 5, 57, 100
7, 39156, Note_on_c, 5, 57, 0
7, 39168, Note_on_c, 5, 45, 100
7, 39204, Note_on_c, 5, 45, 0
7, 39216, Note_on_c, 5, 57, 100
7, 39252, Note_on_c, 5, 57, 0
7, 39264, Note_on_c, 5, 45, 100
7, 39300, Note_on_c, 5, 45, 0
7, 39312, Note_on_c, 5, 57, 100
7, 39348, Note_on_c, 5, 57, 0
7, 39360, Note_on_c, 5, 45, 100
7, 39396, Note_on_c, 5, 45, 0
7, 39408, Note_on_c, 5, 57, 100
7, 39444, Note_on_c, 5, 57, 0
7, 39456, Note_on_c, 5, 45, 100
7, 39492, Note_on_c, 5, 45, 0
7, 39504, Note_on_c, 5, 57, 100
7, 39540, Note_on_c, 5, 57, 0
7, 39552, Note_on_c, 5, 45, 100
7, 39588, Note_on_c, 5, 45, 0
7, 39600, Note_on_c, 5, 57, 100
7, 39636, Note_on_c, 5, 57, 0
7, 39648, Note_on_c, 5, 45, 100
7, 39684, Note_on_c, 5, 45, 0
7, 39696, Note_on_c, 5, 57, 100
7, 39732, Note_on_c, 5, 57, 0
7, 39744, Note_on_c, 5, 50, 100
7, 39936, Note_on_c, 5, 50, 0
7, 48384, Note_on_c, 5, 50, 100
7, 48456, Note_on_c, 5, 50, 0
7, 48480, Note_on_c, 5, 45, 100
7, 48552, Note_on_c, 5, 45, 0
7, 48576, Note_on_c, 5, 50, 100
7, 48648, Note_on_c, 5, 50, 0
7, 48672, Note_on_c, 5, 45, 100
7, 48744, Note_on_c, 5, 45, 0
7, 48768, Note_on_c, 5, 50, 100
7, 48840, Note_on_c, 5, 50, 0
7, 48864, Note_on_c, 5, 45, 100
7, 48936, Note_on_c, 5, 45, 0
7, 48960, Note_on_c, 5, 50, 100
7, 49032, Note_on_c, 5, 50, 0
7, 49056, Note_on_c, 5, 45, 100
7, 49128, Note_on_c, 5, 45, 0
7, 49152, Note_on_c, 5, 50, 100
7, 49224, Note_on_c, 5, 50, 0
7, 49248, Note_on_c, 5, 45, 100
7, 49320, Note_on_c, 5, 45, 0
7, 49344, Note_on_c, 5, 50, 100
7, 49416, Note_on_c, 5, 50, 0
7, 49440, Note_on_c, 5, 45, 100
7, 49512, Note_on_c, 5, 45, 0
7, 49536, Note_on_c, 5, 50, 110
7, 49572, Note_on_c, 5, 50, 0
7, 49584, Note_on_c, 5, 62, 110
7, 49620, Note_on_c, 5, 62, 0
7, 49632, Note_on_c, 5, 60, 110
7, 49668, Note_on_c, 5, 60, 0
7, 49680, Note_on_c, 5, 58, 110
7, 49716, Note_on_c, 5, 58, 0
7, 49728, Note_on_c, 5, 57, 110
7, 49764, Note_on_c, 5, 57, 0
7, 49776, Note_on_c, 5, 55, 110
7, 49812, Note_on_c, 5, 55, 0
7, 49824, Note_on_c, 5, 53, 110
7, 49860, Note_on_c, 5, 53, 0
7, 49872, Note_on_c, 5, 52, 110
7, 49908, Note_on_c, 5, 52, 0
7, 49920, Note_on_c, 5, 50, 110
7, 50016, Note_on_c, 5, 50, 0
7, 50112, Note_on_c, 5, 43, 110
7, 50148, Note_on_c, 5, 43, 0
7, 50160, Note_on_c, 5, 55, 110
7, 50196, Note_on_c, 5, 55, 0
7, 50208, Note_on_c, 5, 53, 110
7, 50244, Note_on_c, 5, 53, 0
7, 50256, Note_on_c, 5, 51, 110
7, 50292, Note_on_c, 5, 51, 0
7, 50304, Note_on_c, 5, 50, 110
7, 50340, Note_on_c, 5, 50, 0
7, 50352, Note_on_c, 5, 48, 110
7, 50388, Note_on_c, 5, 48, 0
7, 50400, Note_on_c, 5, 46, 110
7, 50436, Note_on_c, 5, 46, 0
7, 50448, Note_on_c, 5, 45, 110
7, 50484, Note_on_c, 5, 45, 0
7, 50496, Note_on_c, 5, 43, 110
7, 50592, Note_on_c, 5, 43, 0
7, 50688, Note_on_c, 5, 48, 110
7, 50724, Note_on_c, 5, 48, 0
7, 50736, Note_on_c, 5, 60, 110
7, 50772, Note_on_c, 5, 60, 0
7, 50784, Note_on_c, 5, 58, 110
7, 50820, Note_on_c, 5, 58, 0
7, 50832, Note_on_c, 5, 57, 110
7, 50868, Note_on_c, 5, 57, 0
7, 50880, Note_on_c, 5, 55, 110
7, 50916, Note_on_c, 5, 55, 0
7, 50928, Note_on_c, 5, 53, 110
7, 50964, Note_on_c, 5, 53, 0
7, 50976, Note_on_c, 5, 52, 110
7, 51012, Note_on_c, 5, 52, 0
7, 51024, Note_on_c, 5, 50, 110
7, 51060, Note_on_c, 5, 50, 0
7, 51072, Note_on_c, 5, 48, 110
7, 51168, Note_on_c, 5, 48, 0
7, 51264, Note_on_c, 5, 41, 110
7, 51300, Note_on_c, 5, 41, 0
7, 51312, Note_on_c, 5, 53, 110
7, 51348, Note_on_c, 5, 53, 0
7, 51360, Note_on_c, 5, 52, 110
7, 51396, Note_on_c, 5, 52, 0
7, 51408, Note_on_c, 5, 50, 110
7, 51444, Note_on_c, 5, 50, 0
7, 51456, Note_on_c, 5, 48, 110
7, 51492, Note_on_c, 5, 48, 0
7, 51504, Note_on_c, 5, 46, 110
7, 51540, Note_on_c, 5, 46, 0
7, 51552, Note_on_c, 5, 45, 110
7, 51588, Note_on_c, 5, 45, 0
7, 51600, Note_on_c, 5, 43, 110
7, 51636, Note_on_c, 5, 43, 0
7, 51648, Note_on_c, 5, 41, 110
7, 51744, Note_on_c, 5, 41, 0
7, 51840, Note_on_c, 5, 46, 110
7, 51876, Note_on_c, 5, 46, 0
7, 51888, Note_on_c, 5, 58, 110
7, 51924, Note_on_c, 5, 58, 0
7, 51936, Note_on_c, 5, 57, 110
7, 51972, Note_on_c, 5, 57, 0
7, 51984, Note_on_c, 5, 55, 110
7, 52020, Note_on_c, 5, 55, 0
7, 52032, Note_on_c, 5, 53, 110
7, 52032, Note_on_c, 5, 55, 110
7, 52068, Note_on_c, 5, 55, 0
7, 52068, Note_on_c, 5, 53, 0
7, 52080, Note_on_c, 5, 51, 110
7, 52116, Note_on_c, 5, 51, 0
7, 52128, Note_on_c, 5, 50, 110
7, 52164, Note_on_c, 5, 50, 0
7, 52176, Note_on_c, 5, 48, 110
7, 52212, Note_on_c, 5, 48, 0
7, 52224, Note_on_c, 5, 46, 110
7, 52320, Note_on_c, 5, 46, 0
7, 52416, Note_on_c, 5, 39, 110
7, 52452, Note_on_c, 5, 39, 0
7, 52464, Note_on_c, 5, 51, 110
7, 52500, Note_on_c, 5, 51, 0
7, 52512, Note_on_c, 5, 50, 110
7, 52548, Note_on_c, 5, 50, 0
7, 52560, Note_on_c, 5, 48, 110
7, 52596, Note_on_c, 5, 48, 0
7, 52608, Note_on_c, 5, 46, 110
7, 52644, Note_on_c, 5, 46, 0
7, 52656, Note_on_c, 5, 45, 110
7, 52692, Note_on_c, 5, 45, 0
7, 52704, Note_on_c, 5, 43, 110
7, 52740, Note_on_c, 5, 43, 0
7, 52752, Note_on_c, 5, 41, 110
7, 52788, Note_on_c, 5, 41, 0
7, 52800, Note_on_c, 5, 39, 110
7, 52896, Note_on_c, 5, 39, 0
7, 52992, Note_on_c, 5, 44, 110
7, 53028, Note_on_c, 5, 44, 0
7, 53040, Note_on_c, 5, 56, 110
7, 53076, Note_on_c, 5, 56, 0
7, 53088, Note_on_c, 5, 55, 110
7, 53124, Note_on_c, 5, 55, 0
7, 53136, Note_on_c, 5, 53, 110
7, 53172, Note_on_c, 5, 53, 0
7, 53184, Note_on_c, 5, 51, 110
7, 53220, Note_on_c, 5, 51, 0
7, 53232, Note_on_c, 5, 50, 110
7, 53268, Note_on_c, 5, 50, 0
7, 53280, Note_on_c, 5, 48, 110
7, 53316, Note_on_c, 5, 48, 0
7, 53328, Note_on_c, 5, 46, 110
7, 53364, Note_on_c, 5, 46, 0
7, 53376, Note_on_c, 5, 44, 110
7, 53472, Note_on_c, 5, 44, 0
7, 53568, Note_on_c, 5, 47, 110
7, 53604, Note_on_c, 5, 47, 0
7, 53616, Note_on_c, 5, 59, 110
7, 53652, Note_on_c, 5, 59, 0
7, 53664, Note_on_c, 5, 57, 110
7, 53700, Note_on_c, 5, 57, 0
7, 53712, Note_on_c, 5, 55, 110
7, 53748, Note_on_c, 5, 55, 0
7, 53760, Note_on_c, 5, 53, 110
7, 53796, Note_on_c, 5, 53, 0
7, 53808, Note_on_c, 5, 51, 110
7, 53844, Note_on_c, 5, 51, 0
7, 53856, Note_on_c, 5, 50, 110
7, 53892, Note_on_c, 5, 50, 0
7, 53904, Note_on_c, 5, 48, 110
7, 53940, Note_on_c, 5, 48, 0
7, 53952, Note_on_c, 5, 47, 110
7, 54048, Note_on_c, 5, 47, 0
7, 54144, Note_on_c, 5, 43, 110
7, 54180, Note_on_c, 5, 43, 0
7, 54192, Note_on_c, 5, 55, 110
7, 54228, Note_on_c, 5, 55, 0
7, 54240, Note_on_c, 5, 53, 110
7, 54276, Note_on_c, 5, 53, 0
7, 54288, Note_on_c, 5, 51, 110
7, 54324, Note_on_c, 5, 51, 0
7, 54336, Note_on_c, 5, 50, 110
7, 54372, Note_on_c, 5, 50, 0
7, 54384, Note_on_c, 5, 48, 110
7, 54420, Note_on_c, 5, 48, 0
7, 54432, Note_on_c, 5, 47, 110
7, 54468, Note_on_c, 5, 47, 0
7, 54480, Note_on_c, 5, 44, 110
7, 54516, Note_on_c, 5, 44, 0
7, 54528, Note_on_c, 5, 43, 110
7, 54624, Note_on_c, 5, 43, 0
7, 54720, Note_on_c, 5, 48, 110
7, 54756, Note_on_c, 5, 48, 0
7, 54768, Note_on_c, 5, 60, 110
7, 54804, Note_on_c, 5, 60, 0
7, 54816, Note_on_c, 5, 58, 110
7, 54852, Note_on_c, 5, 58, 0
7, 54864, Note_on_c, 5, 56, 110
7, 54900, Note_on_c, 5, 56, 0
7, 54912, Note_on_c, 5, 55, 110
7, 54948, Note_on_c, 5, 55, 0
7, 54960, Note_on_c, 5, 53, 110
7, 54996, Note_on_c, 5, 53, 0
7, 55008, Note_on_c, 5, 51, 110
7, 55044, Note_on_c, 5, 51, 0
7, 55056, Note_on_c, 5, 50, 110
7, 55092, Note_on_c, 5, 50, 0
7, 55104, Note_on_c, 5, 48, 110
7, 55200, Note_on_c, 5, 48, 0
7, 55344, Note_on_c, 5, 60, 110
7, 55380, Note_on_c, 5, 60, 0
7, 55392, Note_on_c, 5, 58, 110
7, 55428, Note_on_c, 5, 58, 0
7, 55440, Note_on_c, 5, 56, 110
7, 55476, Note_on_c, 5, 56, 0
7, 55488, Note_on_c, 5, 55, 110
7, 55524, Note_on_c, 5, 55, 0
7, 55536, Note_on_c, 5, 53, 110
7, 55572, Note_on_c, 5, 53, 0
7, 55584, Note_on_c, 5, 51, 110
7, 55620, Note_on_c, 5, 51, 0
7, 55632, Note_on_c, 5, 50, 110
7, 55668, Note_on_c, 5, 50, 0
7, 55680, Note_on_c, 5, 48, 110
7, 55776, Note_on_c, 5, 48, 0
7, 55920, Note_on_c, 5, 60, 110
7, 55956, Note_on_c, 5, 60, 0
7, 55968, Note_on_c, 5, 58, 110
7, 56004, Note_on_c, 5, 58, 0
7, 56016, Note_on_c, 5, 56, 110
7, 56052, Note_on_c, 5, 56, 0
7, 56064, Note_on_c, 5, 55, 110
7, 56100, Note_on_c, 5, 55, 0
7, 56112, Note_on_c, 5, 53, 110
7, 56148, Note_on_c, 5, 53, 0
7, 56160, Note_on_c, 5, 51, 110
7, 56196, Note_on_c, 5, 51, 0
7, 56208, Note_on_c, 5, 50, 110
7, 56244, Note_on_c, 5, 50, 0
7, 56256, Note_on_c, 5, 48, 110
7, 56352, Note_on_c, 5, 48, 0
7, 56448, Note_on_c, 5, 51, 80
7, 56520, Note_on_c, 5, 51, 0
7, 56544, Note_on_c, 5, 51, 81
7, 56616, Note_on_c, 5, 51, 0
7, 56640, Note_on_c, 5, 51, 83
7, 56712, Note_on_c, 5, 51, 0
7, 56736, Note_on_c, 5, 51, 85
7, 56808, Note_on_c, 5, 51, 0
7, 56832, Note_on_c, 5, 51, 86
7, 56904, Note_on_c, 5, 51, 0
7, 56928, Note_on_c, 5, 51, 88
7, 57000, Note_on_c, 5, 51, 0
7, 57024, Note_on_c, 5, 53, 90
7, 57096, Note_on_c, 5, 53, 0
7, 57120, Note_on_c, 5, 53, 92
7, 57192, Note_on_c, 5, 53, 0
7, 57216, Note_on_c, 5, 53, 93
7, 57288, Note_on_c, 5, 53, 0
7, 57312, Note_on_c, 5, 53, 95
7, 57384, Note_on_c, 5, 53, 0
7, 57408, Note_on_c, 5, 53, 97
7, 57480, Note_on_c, 5, 53, 0
7, 57504, Note_on_c, 5, 53, 98
7, 57576, Note_on_c, 5, 53, 0
7, 57600, Note_on_c, 5, 55, 100
7, 57672, Note_on_c, 5, 55, 0
7, 57696, Note_on_c, 5, 55, 102
7, 57768, Note_on_c, 5, 55, 0
7, 57792, Note_on_c, 5, 55, 104
7, 57864, Note_on_c, 5, 55, 0
7, 57888, Note_on_c, 5, 55, 105
7, 57960, Note_on_c, 5, 55, 0
7, 57984, Note_on_c, 5, 43, 107
7, 58056, Note_on_c, 5, 43, 0
7, 58080, Note_on_c, 5, 43, 109
7, 58152, Note_on_c, 5, 43, 0
7, 58176, Note_on_c, 5, 60, 118
7, 58212, Note_on_c, 5, 60, 0
7, 58224, Note_on_c, 5, 48, 118
7, 58260, Note_on_c, 5, 48, 0
7, 58272, Note_on_c, 5, 48, 118
7, 58308, Note_on_c, 5, 48, 0
7, 58320, Note_on_c, 5, 48, 118
7, 58356, Note_on_c, 5, 48, 0
7, 58368, Note_on_c, 5, 48, 118
7, 58404, Note_on_c, 5, 48, 0
7, 58416, Note_on_c, 5, 48, 118
7, 58452, Note_on_c, 5, 48, 0
7, 58464, Note_on_c, 5, 48, 118
7, 58500, Note_on_c, 5, 48, 0
7, 58512, Note_on_c, 5, 48, 118
7, 58548, Note_on_c, 5, 48, 0
7, 58560, Note_on_c, 5, 48, 118
7, 58596, Note_on_c, 5, 48, 0
7, 58608, Note_on_c, 5, 48, 118
7, 58644, Note_on_c, 5, 48, 0
7, 58656, Note_on_c, 5, 48, 118
7, 58692, Note_on_c, 5, 48, 0
7, 58704, Note_on_c, 5, 48, 118
7, 58740, Note_on_c, 5, 48, 0
7, 58752, Note_on_c, 5, 58, 118
7, 58788, Note_on_c, 5, 58, 0
7, 58800, Note_on_c, 5, 48, 118
7, 58836, Note_on_c, 5, 48, 0
7, 58848, Note_on_c, 5, 48, 118
7, 58884, Note_on_c, 5, 48, 0
7, 58896, Note_on_c, 5, 48, 118
7, 58932, Note_on_c, 5, 48, 0
7, 58944, Note_on_c, 5, 48, 118
7, 58980, Note_on_c, 5, 48, 0
7, 58992, Note_on_c, 5, 48, 118
7, 59028, Note_on_c, 5, 48, 0
7, 59040, Note_on_c, 5, 48, 118
7, 59076, Note_on_c, 5, 48, 0
7, 59088, Note_on_c, 5, 48, 118
7, 59124, Note_on_c, 5, 48, 0
7, 59136, Note_on_c, 5, 48, 118
7, 59172, Note_on_c, 5, 48, 0
7, 59184, Note_on_c, 5, 48, 118
7, 59220, Note_on_c, 5, 48, 0
7, 59232, Note_on_c, 5, 48, 118
7, 59268, Note_on_c, 5, 48, 0
7, 59280, Note_on_c, 5, 48, 118
7, 59316, Note_on_c, 5, 48, 0
7, 59328, Note_on_c, 5, 56, 118
7, 59364, Note_on_c, 5, 56, 0
7, 59376, Note_on_c, 5, 48, 118
7, 59412, Note_on_c, 5, 48, 0
7, 59424, Note_on_c, 5, 48, 118
7, 59460, Note_on_c, 5, 48, 0
7, 59472, Note_on_c, 5, 48, 118
7, 59508, Note_on_c, 5, 48, 0
7, 59520, Note_on_c, 5, 48, 118
7, 59556, Note_on_c, 5, 48, 0
7, 59568, Note_on_c, 5, 48, 118
7, 59604, Note_on_c, 5, 48, 0
7, 59616, Note_on_c, 5, 48, 118
7, 59652, Note_on_c, 5, 48, 0
7, 59664, Note_on_c, 5, 48, 118
7, 59700, Note_on_c, 5, 48, 0
7, 59712, Note_on_c, 5, 48, 118
7, 59748, Note_on_c, 5, 48, 0
7, 59760, Note_on_c, 5, 48, 118
7, 59796, Note_on_c, 5, 48, 0
7, 59808, Note_on_c, 5, 48, 118
7, 59844, Note_on_c, 5, 48, 0
7, 59856, Note_on_c, 5, 48, 118
7, 59892, Note_on_c, 5, 48, 0
7, 59904, Note_on_c, 5, 55, 118
7, 59940, Note_on_c, 5, 55, 0
7, 59952, Note_on_c, 5, 48, 118
7, 59988, Note_on_c, 5, 48, 0
7, 60000, Note_on_c, 5, 48, 118
7, 60036, Note_on_c, 5, 48, 0
7, 60048, Note_on_c, 5, 48, 118
7, 60084, Note_on_c, 5, 48, 0
7, 60096, Note_on_c, 5, 48, 118
7, 60132, Note_on_c, 5, 48, 0
7, 60144, Note_on_c, 5, 48, 118
7, 60180, Note_on_c, 5, 48, 0
7, 60192, Note_on_c, 5, 48, 118
7, 60228, Note_on_c, 5, 48, 0
7, 60240, Note_on_c, 5, 48, 118
7, 60276, Note_on_c, 5, 48, 0
7, 60288, Note_on_c, 5, 48, 118
7, 60384, Note_on_c, 5, 48, 0
7, 60480, Note_on_c, 5, 48, 127
7, 60552, Note_on_c, 5, 48, 0
7, 60576, Note_on_c, 5, 60, 127
7, 60612, Note_on_c, 5, 60, 0
7, 60624, Note_on_c, 5, 59, 127
7, 60660, Note_on_c, 5, 59, 0
7, 60672, Note_on_c, 5, 60, 127
7, 60744, Note_on_c, 5, 60, 0
7, 60768, Note_on_c, 5, 48, 127
7, 60840, Note_on_c, 5, 48, 0
7, 60864, Note_on_c, 5, 48, 127
7, 60936, Note_on_c, 5, 48, 0
7, 60960, Note_on_c, 5, 60, 127
7, 61032, Note_on_c, 5, 60, 0
7, 61056, Note_on_c, 5, 43, 127
7, 61248, Note_on_c, 5, 43, 0
7, 61632, Note_on_c, 5, 48, 127
7, 61704, Note_on_c, 5, 48, 0
7, 61728, Note_on_c, 5, 60, 127
7, 61764, Note_on_c, 5, 60, 0
7, 61776, Note_on_c, 5, 59, 127
7, 61812, Note_on_c, 5, 59, 0
7, 61824, Note_on_c, 5, 60, 127
7, 61896, Note_on_c, 5, 60, 0
7, 61920, Note_on_c, 5, 48, 127
7, 61992, Note_on_c, 5, 48, 0
7, 62016, Note_on_c, 5, 48, 127
7, 62088, Note_on_c, 5, 48, 0
7, 62112, Note_on_c, 5, 60, 127
7, 62184, Note_on_c, 5, 60, 0
7, 62208, Note_on_c, 5, 46, 127
7, 62400, Note_on_c, 5, 46, 0
7, 62784, Note_on_c, 5, 39, 127
7, 62856, Note_on_c, 5, 39, 0
7, 62880, Note_on_c, 5, 51, 127
7, 62916, Note_on_c, 5, 51, 0
7, 62928, Note_on_c, 5, 50, 127
7, 62964, Note_on_c, 5, 50, 0
7, 62976, Note_on_c, 5, 51, 127
7, 63048, Note_on_c, 5, 51, 0
7, 63072, Note_on_c, 5, 39, 127
7, 63144, Note_on_c, 5, 39, 0
7, 63168, Note_on_c, 5, 39, 127
7, 63240, Note_on_c, 5, 39, 0
7, 63264, Note_on_c, 5, 51, 127
7, 63336, Note_on_c, 5, 51, 0
7, 63360, Note_on_c, 5, 43, 127
7, 63552, Note_on_c, 5, 43, 0
7, 63936, Note_on_c, 5, 43, 127
7, 64008, Note_on_c, 5, 43, 0
7, 64032, Note_on_c, 5, 55, 127
7, 64068, Note_on_c, 5, 55, 0
7, 64080, Note_on_c, 5, 53, 127
7, 64116, Note_on_c, 5, 53, 0
7, 64128, Note_on_c, 5, 55, 127
7, 64200, Note_on_c, 5, 55, 0
7, 64224, Note_on_c, 5, 43, 127
7, 64296, Note_on_c, 5, 43, 0
7, 64320, Note_on_c, 5, 43, 127
7, 64392, Note_on_c, 5, 43, 0
7, 64416, Note_on_c, 5, 55, 127
7, 64488, Note_on_c, 5, 55, 0
7, 64512, Note_on_c, 5, 44, 127
7, 64704, Note_on_c, 5, 44, 0
7, 65088, Note_on_c, 5, 45, 127
7, 65160, Note_on_c, 5, 45, 0
7, 65184, Note_on_c, 5, 57, 127
7, 65220, Note_on_c, 5, 57, 0
7, 65232, Note_on_c, 5, 55, 127
7, 65268, Note_on_c, 5, 55, 0
7, 65280, Note_on_c, 5, 57, 127
7, 65352, Note_on_c, 5, 57, 0
7, 65376, Note_on_c, 5, 45, 127
7, 65448, Note_on_c, 5, 45, 0
7, 65472, Note_on_c, 5, 45, 127
7, 65544, Note_on_c, 5, 45, 0
7, 65568, Note_on_c, 5, 57, 127
7, 65640, Note_on_c, 5, 57, 0
7, 65664, Note_on_c, 5, 46, 127
7, 65856, Note_on_c, 5, 46, 0
7, 66240, Note_on_c, 5, 47, 127
7, 66312, Note_on_c, 5, 47, 0
7, 66336, Note_on_c, 5, 59, 127
7, 66372, Note_on_c, 5, 59, 0
7, 66384, Note_on_c, 5, 57, 127
7, 66420, Note_on_c, 5, 57, 0
7, 66432, Note_on_c, 5, 59, 127
7, 66504, Note_on_c, 5, 59, 0
7, 66528, Note_on_c, 5, 47, 127
7, 66600, Note_on_c, 5, 47, 0
7, 66624, Note_on_c, 5, 47, 127
7, 66696, Note_on_c, 5, 47, 0
7, 66720, Note_on_c, 5, 59, 127
7, 66792, Note_on_c, 5, 59, 0
7, 66816, Note_on_c, 5, 48, 127
7, 66852, Note_on_c, 5, 48, 0
7, 66864, Note_on_c, 5, 48, 127
7, 66900, Note_on_c, 5, 48, 0
7, 66912, Note_on_c, 5, 48, 127
7, 66948, Note_on_c, 5, 48, 0
7, 66960, Note_on_c, 5, 48, 127
7, 66996, Note_on_c, 5, 48, 0
7, 67008, Note_on_c, 5, 48, 127
7, 67044, Note_on_c, 5, 48, 0
7, 67056, Note_on_c, 5, 48, 127
7, 67092, Note_on_c, 5, 48, 0
7, 67104, Note_on_c, 5, 48, 127
7, 67140, Note_on_c, 5, 48, 0
7, 67152, Note_on_c, 5, 48, 127
7, 67188, Note_on_c, 5, 48, 0
7, 67200, Note_on_c, 5, 48, 127
7, 67236, Note_on_c, 5, 48, 0
7, 67248, Note_on_c, 5, 48, 127
7, 67284, Note_on_c, 5, 48, 0
7, 67296, Note_on_c, 5, 48, 127
7, 67332, Note_on_c, 5, 48, 0
7, 67344, Note_on_c, 5, 48, 127
7, 67380, Note_on_c, 5, 48, 0
7, 67392, Note_on_c, 5, 56, 127
7, 67428, Note_on_c, 5, 56, 0
7, 67440, Note_on_c, 5, 48, 127
7, 67476, Note_on_c, 5, 48, 0
7, 67488, Note_on_c, 5, 48, 127
7, 67524, Note_on_c, 5, 48, 0
7, 67536, Note_on_c, 5, 48, 127
7, 67572, Note_on_c, 5, 48, 0
7, 67584, Note_on_c, 5, 56, 127
7, 67620, Note_on_c, 5, 56, 0
7, 67632, Note_on_c, 5, 48, 127
7, 67668, Note_on_c, 5, 48, 0
7, 67680, Note_on_c, 5, 48, 127
7, 67716, Note_on_c, 5, 48, 0
7, 67728, Note_on_c, 5, 48, 127
7, 67764, Note_on_c, 5, 48, 0
7, 67776, Note_on_c, 5, 56, 127
7, 67812, Note_on_c, 5, 56, 0
7, 67824, Note_on_c, 5, 48, 127
7, 67860, Note_on_c, 5, 48, 0
7, 67872, Note_on_c, 5, 48, 127
7, 67908, Note_on_c, 5, 48, 0
7, 67920, Note_on_c, 5, 48, 127
7, 67956, Note_on_c, 5, 48, 0
7, 67968, Note_on_c, 5, 47, 127
7, 68004, Note_on_c, 5, 47, 0
7, 68016, Note_on_c, 5, 47, 127
7, 68052, Note_on_c, 5, 47, 0
7, 68064, Note_on_c, 5, 47, 127
7, 68100, Note_on_c, 5, 47, 0
7, 68112, Note_on_c, 5, 47, 127
7, 68148, Note_on_c, 5, 47, 0
7, 68160, Note_on_c, 5, 47, 127
7, 68196, Note_on_c, 5, 47, 0
7, 68208, Note_on_c, 5, 47, 127
7, 68244, Note_on_c, 5, 47, 0
7, 68256, Note_on_c, 5, 47, 127
7, 68292, Note_on_c, 5, 47, 0
7, 68304, Note_on_c, 5, 47, 127
7, 68340, Note_on_c, 5, 47, 0
7, 68352, Note_on_c, 5, 47, 127
7, 68388, Note_on_c, 5, 47, 0
7, 68400, Note_on_c, 5, 47, 127
7, 68436, Note_on_c, 5, 47, 0
7, 68448, Note_on_c, 5, 47, 127
7, 68484, Note_on_c, 5, 47, 0
7, 68496, Note_on_c, 5, 47, 127
7, 68532, Note_on_c, 5, 47, 0
7, 68544, Note_on_c, 5, 55, 127
7, 68580, Note_on_c, 5, 55, 0
7, 68592, Note_on_c, 5, 46, 127
7, 68628, Note_on_c, 5, 46, 0
7, 68640, Note_on_c, 5, 46, 127
7, 68676, Note_on_c, 5, 46, 0
7, 68688, Note_on_c, 5, 46, 127
7, 68724, Note_on_c, 5, 46, 0
7, 68736, Note_on_c, 5, 55, 127
7, 68772, Note_on_c, 5, 55, 0
7, 68784, Note_on_c, 5, 46, 127
7, 68820, Note_on_c, 5, 46, 0
7, 68832, Note_on_c, 5, 46, 127
7, 68868, Note_on_c, 5, 46, 0
7, 68880, Note_on_c, 5, 46, 127
7, 68916, Note_on_c, 5, 46, 0
7, 68928, Note_on_c, 5, 55, 127
7, 68964, Note_on_c, 5, 55, 0
7, 68976, Note_on_c, 5, 46, 127
7, 69012, Note_on_c, 5, 46, 0
7, 69024, Note_on_c, 5, 46, 127
7, 69060, Note_on_c, 5, 46, 0
7, 69072, Note_on_c, 5, 46, 127
7, 69108, Note_on_c, 5, 46, 0
7, 69120, Note_on_c, 5, 45, 127
7, 69156, Note_on_c, 5, 45, 0
7, 69168, Note_on_c, 5, 45, 127
7, 69204, Note_on_c, 5, 45, 0
7, 69216, Note_on_c, 5, 45, 127
7, 69252, Note_on_c, 5, 45, 0
7, 69264, Note_on_c, 5, 45, 127
7, 69300, Note_on_c, 5, 45, 0
7, 69312, Note_on_c, 5, 45, 127
7, 69348, Note_on_c, 5, 45, 0
7, 69360, Note_on_c, 5, 45, 127
7, 69396, Note_on_c, 5, 45, 0
7, 69408, Note_on_c, 5, 45, 127
7, 69444, Note_on_c, 5, 45, 0
7, 69456, Note_on_c, 5, 45, 127
7, 69492, Note_on_c, 5, 45, 0
7, 69504, Note_on_c, 5, 45, 127
7, 69540, Note_on_c, 5, 45, 0
7, 69552, Note_on_c, 5, 45, 127
7, 69588, Note_on_c, 5, 45, 0
7, 69600, Note_on_c, 5, 45, 127
7, 69636, Note_on_c, 5, 45, 0
7, 69648, Note_on_c, 5, 45, 127
7, 69684, Note_on_c, 5, 45, 0
7, 69696, Note_on_c, 5, 53, 127
7, 69732, Note_on_c, 5, 53, 0
7, 69744, Note_on_c, 5, 44, 127
7, 69780, Note_on_c, 5, 44, 0
7, 69792, Note_on_c, 5, 44, 127
7, 69828, Note_on_c, 5, 44, 0
7, 69840, Note_on_c, 5, 44, 127
7, 69876, Note_on_c, 5, 44, 0
7, 69888, Note_on_c, 5, 53, 127
7, 69924, Note_on_c, 5, 53, 0
7, 69936, Note_on_c, 5, 44, 127
7, 69972, Note_on_c, 5, 44, 0
7, 69984, Note_on_c, 5, 44, 127
7, 70020, Note_on_c, 5, 44, 0
7, 70032, Note_on_c, 5, 44, 127
7, 70068, Note_on_c, 5, 44, 0
7, 70080, Note_on_c, 5, 53, 127
7, 70116, Note_on_c, 5, 53, 0
7, 70128, Note_on_c, 5, 44, 127
7, 70164, Note_on_c, 5, 44, 0
7, 70176, Note_on_c, 5, 44, 127
7, 70212, Note_on_c, 5, 44, 0
7, 70224, Note_on_c, 5, 44, 127
7, 70260, Note_on_c, 5, 44, 0
7, 70272, Note_on_c, 5, 43, 127
7, 70308, Note_on_c, 5, 43, 0
7, 70320, Note_on_c, 5, 55, 127
7, 70356, Note_on_c, 5, 55, 0
7, 70368, Note_on_c, 5, 55, 127
7, 70404, Note_on_c, 5, 55, 0
7, 70416, Note_on_c, 5, 55, 127
7, 70452, Note_on_c, 5, 55, 0
7, 70464, Note_on_c, 5, 55, 127
7, 70500, Note_on_c, 5, 55, 0
7, 70512, Note_on_c, 5, 55, 127
7, 70548, Note_on_c, 5, 55, 0
7, 70560, Note_on_c, 5, 55, 127
7, 70596, Note_on_c, 5, 55, 0
7, 70608, Note_on_c, 5, 55, 127
7, 70644, Note_on_c, 5, 55, 0
7, 70656, Note_on_c, 5, 55, 127
7, 70692, Note_on_c, 5, 55, 0
7, 70704, Note_on_c, 5, 55, 127
7, 70740, Note_on_c, 5, 55, 0
7, 70752, Note_on_c, 5, 55, 127
7, 70788, Note_on_c, 5, 55, 0
7, 70800, Note_on_c, 5, 55, 127
7, 70836, Note_on_c, 5, 55, 0
7, 70848, Note_on_c, 5, 63, 127
7, 70884, Note_on_c, 5, 63, 0
7, 70896, Note_on_c, 5, 55, 127
7, 70932, Note_on_c, 5, 55, 0
7, 70944, Note_on_c, 5, 55, 127
7, 70980, Note_on_c, 5, 55, 0
7, 70992, Note_on_c, 5, 55, 127
7, 71028, Note_on_c, 5, 55, 0
7, 71040, Note_on_c, 5, 63, 127
7, 71076, Note_on_c, 5, 63, 0
7, 71088, Note_on_c, 5, 55, 127
7, 71124, Note_on_c, 5, 55, 0
7, 71136, Note_on_c, 5, 55, 127
7, 71172, Note_on_c, 5, 55, 0
7, 71184, Note_on_c, 5, 55, 127
7, 71220, Note_on_c, 5, 55, 0
7, 71232, Note_on_c, 5, 63, 127
7, 71268, Note_on_c, 5, 63, 0
7, 71280, Note_on_c, 5, 55, 127
7, 71316, Note_on_c, 5, 55, 0
7, 71328, Note_on_c, 5, 55, 127
7, 71364, Note_on_c, 5, 55, 0
7, 71376, Note_on_c, 5, 55, 127
7, 71412, Note_on_c, 5, 55, 0
7, 71424, Note_on_c, 5, 54, 127
7, 71460, Note_on_c, 5, 54, 0
7, 71472, Note_on_c, 5, 54, 127
7, 71508, Note_on_c, 5, 54, 0
7, 71520, Note_on_c, 5, 54, 127
7, 71556, Note_on_c, 5, 54, 0
7, 71568, Note_on_c, 5, 54, 127
7, 71604, Note_on_c, 5, 54, 0
7, 71616, Note_on_c, 5, 54, 127
7, 71652, Note_on_c, 5, 54, 0
7, 71664, Note_on_c, 5, 54, 127
7, 71700, Note_on_c, 5, 54, 0
7, 71712, Note_on_c, 5, 54, 127
7, 71748, Note_on_c, 5, 54, 0
7, 71760, Note_on_c, 5, 54, 127
7, 71796, Note_on_c, 5, 54, 0
7, 71808, Note_on_c, 5, 54, 127
7, 71844, Note_on_c, 5, 54, 0
7, 71856, Note_on_c, 5, 54, 127
7, 71892, Note_on_c, 5, 54, 0
7, 71904, Note_on_c, 5, 54, 127
7, 71940, Note_on_c, 5, 54, 0
7, 71952, Note_on_c, 5, 54, 127
7, 71988, Note_on_c, 5, 54, 0
7, 72000, Note_on_c, 5, 62, 127
7, 72036, Note_on_c, 5, 62, 0
7, 72048, Note_on_c, 5, 53, 127
7, 72084, Note_on_c, 5, 53, 0
7, 72096, Note_on_c, 5, 53, 127
7, 72132, Note_on_c, 5, 53, 0
7, 72144, Note_on_c, 5, 53, 127
7, 72180, Note_on_c, 5, 53, 0
7, 72192, Note_on_c, 5, 62, 127
7, 72228, Note_on_c, 5, 62, 0
7, 72240, Note_on_c, 5, 53, 127
7, 72276, Note_on_c, 5, 53, 0
7, 72288, Note_on_c, 5, 53, 127
7, 72324, Note_on_c, 5, 53, 0
7, 72336, Note_on_c, 5, 53, 127
7, 72372, Note_on_c, 5, 53, 0
7, 72384, Note_on_c, 5, 62, 127
7, 72420, Note_on_c, 5, 62, 0
7, 72432, Note_on_c, 5, 53, 127
7, 72468, Note_on_c, 5, 53, 0
7, 72480, Note_on_c, 5, 53, 127
7, 72516, Note_on_c, 5, 53, 0
7, 72528, Note_on_c, 5, 53, 127
7, 72564, Note_on_c, 5, 53, 0
7, 72576, Note_on_c, 5, 52, 127
7, 72612, Note_on_c, 5, 52, 0
7, 72624, Note_on_c, 5, 52, 127
7, 72660, Note_on_c, 5, 52, 0
7, 72672, Note_on_c, 5, 52, 127
7, 72708, Note_on_c, 5, 52, 0
7, 72720, Note_on_c, 5, 52, 127
7, 72756, Note_on_c, 5, 52, 0
7, 72768, Note_on_c, 5, 52, 127
7, 72804, Note_on_c, 5, 52, 0
7, 72816, Note_on_c, 5, 52, 127
7, 72852, Note_on_c, 5, 52, 0
7, 72864, Note_on_c, 5, 52, 127
7, 72900, Note_on_c, 5, 52, 0
7, 72912, Note_on_c, 5, 52, 127
7, 72948, Note_on_c, 5, 52, 0
7, 72960, Note_on_c, 5, 52, 127
7, 72996, Note_on_c, 5, 52, 0
7, 73008, Note_on_c, 5, 52, 127
7, 73044, Note_on_c, 5, 52, 0
7, 73056, Note_on_c, 5, 52, 127
7, 73092, Note_on_c, 5, 52, 0
7, 73104, Note_on_c, 5, 52, 127
7, 73140, Note_on_c, 5, 52, 0
7, 73152, Note_on_c, 5, 60, 127
7, 73188, Note_on_c, 5, 60, 0
7, 73200, Note_on_c, 5, 51, 127
7, 73236, Note_on_c, 5, 51, 0
7, 73248, Note_on_c, 5, 51, 127
7, 73284, Note_on_c, 5, 51, 0
7, 73296, Note_on_c, 5, 51, 127
7, 73332, Note_on_c, 5, 51, 0
7, 73344, Note_on_c, 5, 60, 127
7, 73380, Note_on_c, 5, 60, 0
7, 73392, Note_on_c, 5, 51, 127
7, 73428, Note_on_c, 5, 51, 0
7, 73440, Note_on_c, 5, 51, 127
7, 73476, Note_on_c, 5, 51, 0
7, 73488, Note_on_c, 5, 51, 127
7, 73524, Note_on_c, 5, 51, 0
7, 73536, Note_on_c, 5, 60, 127
7, 73572, Note_on_c, 5, 60, 0
7, 73584, Note_on_c, 5, 51, 127
7, 73620, Note_on_c, 5, 51, 0
7, 73632, Note_on_c, 5, 51, 127
7, 73668, Note_on_c, 5, 51, 0
7, 73680, Note_on_c, 5, 51, 127
7, 73716, Note_on_c, 5, 51, 0
7, 73728, Note_on_c, 5, 50, 127
7, 76224, Note_on_c, 5, 50, 0
7, 76608, Note_on_c, 5, 43, 127
7, 76680, Note_on_c, 5, 43, 0
7, 76704, Note_on_c, 5, 43, 127
7, 76776, Note_on_c, 5, 43, 0
7, 76800, Note_on_c, 5, 43, 127
7, 76872, Note_on_c, 5, 43, 0
7, 76896, Note_on_c, 5, 43, 127
7, 76968, Note_on_c, 5, 43, 0
7, 76992, Note_on_c, 5, 43, 127
7, 77064, Note_on_c, 5, 43, 0
7, 77088, Note_on_c, 5, 43, 127
7, 77160, Note_on_c, 5, 43, 0
7, 77184, Note_on_c, 5, 43, 127
7, 77256, Note_on_c, 5, 43, 0
7, 77280, Note_on_c, 5, 43, 127
7, 77352, Note_on_c, 5, 43, 0
7, 77376, Note_on_c, 5, 43, 127
7, 77448, Note_on_c, 5, 43, 0
7, 77472, Note_on_c, 5, 43, 127
7, 77544, Note_on_c, 5, 43, 0
7, 77568, Note_on_c, 5, 43, 127
7, 77640, Note_on_c, 5, 43, 0
7, 77664, Note_on_c, 5, 43, 127
7, 77736, Note_on_c, 5, 43, 0
7, 77760, Note_on_c, 5, 48, 127
7, 77832, Note_on_c, 5, 48, 0
7, 77856, Note_on_c, 5, 48, 127
7, 77928, Note_on_c, 5, 48, 0
7, 77952, Note_on_c, 5, 48, 127
7, 78024, Note_on_c, 5, 48, 0
7, 78048, Note_on_c, 5, 48, 127
7, 78120, Note_on_c, 5, 48, 0
7, 78144, Note_on_c, 5, 48, 127
7, 78216, Note_on_c, 5, 48, 0
7, 78240, Note_on_c, 5, 48, 127
7, 78312, Note_on_c, 5, 48, 0
7, 78336, Note_on_c, 5, 48, 127
7, 78408, Note_on_c, 5, 48, 0
7, 78432, Note_on_c, 5, 48, 127
7, 78504, Note_on_c, 5, 48, 0
7, 78528, Note_on_c, 5, 48, 127
7, 78600, Note_on_c, 5, 48, 0
7, 78624, Note_on_c, 5, 48, 127
7, 78696, Note_on_c, 5, 48, 0
7, 78720, Note_on_c, 5, 48, 127
7, 78792, Note_on_c, 5, 48, 0
7, 78816, Note_on_c, 5, 48, 127
7, 78888, Note_on_c, 5, 48, 0
7, 78912, Note_on_c, 5, 51, 127
7, 78984, Note_on_c, 5, 51, 0
7, 79008, Note_on_c, 5, 51, 127
7, 79080, Note_on_c, 5, 51, 0
7, 79104, Note_on_c, 5, 51, 127
7, 79176, Note_on_c, 5, 51, 0
7, 79200, Note_on_c, 5, 51, 127
7, 79272, Note_on_c, 5, 51, 0
7, 79296, Note_on_c, 5, 51, 127
7, 79368, Note_on_c, 5, 51, 0
7, 79392, Note_on_c, 5, 51, 127
7, 79464, Note_on_c, 5, 51, 0
7, 79488, Note_on_c, 5, 51, 127
7, 79560, Note_on_c, 5, 51, 0
7, 79584, Note_on_c, 5, 51, 127
7, 79656, Note_on_c, 5, 51, 0
7, 79680, Note_on_c, 5, 51, 127
7, 79752, Note_on_c, 5, 51, 0
7, 79776, Note_on_c, 5, 51, 127
7, 79848, Note_on_c, 5, 51, 0
7, 79872, Note_on_c, 5, 51, 127
7, 79944, Note_on_c, 5, 51, 0
7, 79968, Note_on_c, 5, 51, 127
7, 80040, Note_on_c, 5, 51, 0
7, 80064, Note_on_c, 5, 55, 127
7, 80136, Note_on_c, 5, 55, 0
7, 80160, Note_on_c, 5, 55, 127
7, 80232, Note_on_c, 5, 55, 0
7, 80256, Note_on_c, 5, 55, 127
7, 80328, Note_on_c, 5, 55, 0
7, 80352, Note_on_c, 5, 55, 127
7, 80424, Note_on_c, 5, 55, 0
7, 80448, Note_on_c, 5, 55, 127
7, 80520, Note_on_c, 5, 55, 0
7, 80544, Note_on_c, 5, 55, 127
7, 80616, Note_on_c, 5, 55, 0
7, 80640, Note_on_c, 5, 55, 127
7, 80784, Note_on_c, 5, 55, 0
7, 80832, Note_on_c, 5, 43, 127
7, 80976, Note_on_c, 5, 43, 0
7, 81024, Note_on_c, 5, 43, 127
7, 81168, Note_on_c, 5, 43, 0
7, 81216, Note_on_c, 5, 43, 127
7, 81360, Note_on_c, 5, 43, 0
7, 81408, Note_on_c, 5, 43, 127
7, 81552, Note_on_c, 5, 43, 0
7, 81600, Note_on_c, 5, 43, 127
7, 81744, Note_on_c, 5, 43, 0
7, 81792, Note_on_c, 5, 43, 127
7, 81936, Note_on_c, 5, 43, 0
7, 81984, Note_on_c, 5, 43, 127
7, 82128, Note_on_c, 5, 43, 0
7, 82176, Note_on_c, 5, 43, 127
7, 82320, Note_on_c, 5, 43, 0
7, 82368, Note_on_c, 5, 43, 127
7, 82512, Note_on_c, 5, 43, 0
7, 82560, Note_on_c, 5, 43, 127
7, 82704, Note_on_c, 5, 43, 0
7, 82752, Note_on_c, 5, 43, 127
7, 82896, Note_on_c, 5, 43, 0
7, 82944, Note_on_c, 5, 43, 127
7, 83088, Note_on_c, 5, 43, 0
7, 84096, Note_on_c, 5, 46, 127
7, 84132, Note_on_c, 5, 46, 0
7, 84144, Note_on_c, 5, 43, 127
7, 84180, Note_on_c, 5, 43, 0
7, 84192, Note_on_c, 5, 46, 127
7, 84228, Note_on_c, 5, 46, 0
7, 84240, Note_on_c, 5, 43, 127
7, 84276, Note_on_c, 5, 43, 0
7, 84288, Note_on_c, 5, 46, 127
7, 84324, Note_on_c, 5, 46, 0
7, 84336, Note_on_c, 5, 43, 127
7, 84372, Note_on_c, 5, 43, 0
7, 84384, Note_on_c, 5, 46, 127
7, 84420, Note_on_c, 5, 46, 0
7, 84432, Note_on_c, 5, 43, 127
7, 84468, Note_on_c, 5, 43, 0
7, 84480, Note_on_c, 5, 46, 127
7, 84516, Note_on_c, 5, 46, 0
7, 84528, Note_on_c, 5, 43, 127
7, 84564, Note_on_c, 5, 43, 0
7, 84576, Note_on_c, 5, 46, 127
7, 84612, Note_on_c, 5, 46, 0
7, 84624, Note_on_c, 5, 43, 127
7, 84660, Note_on_c, 5, 43, 0
7, 84672, Note_on_c, 5, 50, 127
7, 84864, Note_on_c, 5, 50, 0
7, 86976, Note_on_c, 5, 50, 127
7, 87012, Note_on_c, 5, 50, 0
7, 87024, Note_on_c, 5, 62, 127
7, 87060, Note_on_c, 5, 62, 0
7, 87072, Note_on_c, 5, 60, 127
7, 87108, Note_on_c, 5, 60, 0
7, 87120, Note_on_c, 5, 58, 127
7, 87156, Note_on_c, 5, 58, 0
7, 87168, Note_on_c, 5, 57, 127
7, 87204, Note_on_c, 5, 57, 0
7, 87216, Note_on_c, 5, 58, 127
7, 87252, Note_on_c, 5, 58, 0
7, 87264, Note_on_c, 5, 57, 127
7, 87300, Note_on_c, 5, 57, 0
7, 87312, Note_on_c, 5, 55, 127
7, 87348, Note_on_c, 5, 55, 0
7, 87360, Note_on_c, 5, 54, 127
7, 87396, Note_on_c, 5, 54, 0
7, 87408, Note_on_c, 5, 52, 127
7, 87444, Note_on_c, 5, 52, 0
7, 87456, Note_on_c, 5, 50, 127
7, 87492, Note_on_c, 5, 50, 0
7, 87504, Note_on_c, 5, 48, 127
7, 87540, Note_on_c, 5, 48, 0
7, 87552, Note_on_c, 5, 46, 127
7, 87588, Note_on_c, 5, 46, 0
7, 87600, Note_on_c, 5, 46, 127
7, 87636, Note_on_c, 5, 46, 0
7, 87648, Note_on_c, 5, 46, 127
7, 87684, Note_on_c, 5, 46, 0
7, 87696, Note_on_c, 5, 46, 127
7, 87732, Note_on_c, 5, 46, 0
7, 87744, Note_on_c, 5, 46, 127
7, 87780, Note_on_c, 5, 46, 0
7, 87792, Note_on_c, 5, 46, 127
7, 87828, Note_on_c, 5, 46, 0
7, 87840, Note_on_c, 5, 46, 127
7, 87876, Note_on_c, 5, 46, 0
7, 87888, Note_on_c, 5, 46, 127
7, 87924, Note_on_c, 5, 46, 0
7, 87936, Note_on_c, 5, 46, 127
7, 87972, Note_on_c, 5, 46, 0
7, 87984, Note_on_c, 5, 46, 127
7, 88020, Note_on_c, 5, 46, 0
7, 88032, Note_on_c, 5, 46, 127
7, 88068, Note_on_c, 5, 46, 0
7, 88080, Note_on_c, 5, 46, 127
7, 88116, Note_on_c, 5, 46, 0
7, 88128, Note_on_c, 5, 48, 127
7, 88164, Note_on_c, 5, 48, 0
7, 88176, Note_on_c, 5, 48, 127
7, 88212, Note_on_c, 5, 48, 0
7, 88224, Note_on_c, 5, 48, 127
7, 88260, Note_on_c, 5, 48, 0
7, 88272, Note_on_c, 5, 48, 127
7, 88308, Note_on_c, 5, 48, 0
7, 88320, Note_on_c, 5, 48, 127
7, 88356, Note_on_c, 5, 48, 0
7, 88368, Note_on_c, 5, 48, 127
7, 88404, Note_on_c, 5, 48, 0
7, 88416, Note_on_c, 5, 48, 127
7, 88452, Note_on_c, 5, 48, 0
7, 88464, Note_on_c, 5, 48, 127
7, 88500, Note_on_c, 5, 48, 0
7, 88512, Note_on_c, 5, 48, 127
7, 88548, Note_on_c, 5, 48, 0
7, 88560, Note_on_c, 5, 48, 127
7, 88596, Note_on_c, 5, 48, 0
7, 88608, Note_on_c, 5, 48, 127
7, 88644, Note_on_c, 5, 48, 0
7, 88656, Note_on_c, 5, 48, 127
7, 88692, Note_on_c, 5, 48, 0
7, 88704, Note_on_c, 5, 50, 127
7, 88740, Note_on_c, 5, 50, 0
7, 88752, Note_on_c, 5, 50, 127
7, 88788, Note_on_c, 5, 50, 0
7, 88800, Note_on_c, 5, 50, 127
7, 88836, Note_on_c, 5, 50, 0
7, 88848, Note_on_c, 5, 50, 127
7, 88884, Note_on_c, 5, 50, 0
7, 88896, Note_on_c, 5, 50, 127
7, 88932, Note_on_c, 5, 50, 0
7, 88944, Note_on_c, 5, 50, 127
7, 88980, Note_on_c, 5, 50, 0
7, 88992, Note_on_c, 5, 50, 127
7, 89028, Note_on_c, 5, 50, 0
7, 89040, Note_on_c, 5, 50, 127
7, 89076, Note_on_c, 5, 50, 0
7, 89088, Note_on_c, 5, 50, 127
7, 89124, Note_on_c, 5, 50, 0
7, 89136, Note_on_c, 5, 50, 127
7, 89172, Note_on_c, 5, 50, 0
7, 89184, Note_on_c, 5, 50, 127
7, 89220, Note_on_c, 5, 50, 0
7, 89232, Note_on_c, 5, 50, 127
7, 89268, Note_on_c, 5, 50, 0
7, 89280, Note_on_c, 5, 43, 127
7, 89316, Note_on_c, 5, 43, 0
7, 89328, Note_on_c, 5, 43, 127
7, 89364, Note_on_c, 5, 43, 0
7, 89376, Note_on_c, 5, 43, 127
7, 89412, Note_on_c, 5, 43, 0
7, 89424, Note_on_c, 5, 43, 127
7, 89460, Note_on_c, 5, 43, 0
7, 89472, Note_on_c, 5, 46, 127
7, 89508, Note_on_c, 5, 46, 0
7, 89520, Note_on_c, 5, 46, 127
7, 89556, Note_on_c, 5, 46, 0
7, 89568, Note_on_c, 5, 46, 127
7, 89604, Note_on_c, 5, 46, 0
7, 89616, Note_on_c, 5, 46, 127
7, 89652, Note_on_c, 5, 46, 0
7, 89664, Note_on_c, 5, 46, 127
7, 89700, Note_on_c, 5, 46, 0
7, 89712, Note_on_c, 5, 46, 127
7, 89748, Note_on_c, 5, 46, 0
7, 89760, Note_on_c, 5, 46, 127
7, 89796, Note_on_c, 5, 46, 0
7, 89808, Note_on_c, 5, 46, 127
7, 89844, Note_on_c, 5, 46, 0
7, 89856, Note_on_c, 5, 48, 127
7, 89892, Note_on_c, 5, 48, 0
7, 89904, Note_on_c, 5, 48, 127
7, 89940, Note_on_c, 5, 48, 0
7, 89952, Note_on_c, 5, 48, 127
7, 89988, Note_on_c, 5, 48, 0
7, 90000, Note_on_c, 5, 48, 127
7, 90036, Note_on_c, 5, 48, 0
7, 90048, Note_on_c, 5, 48, 127
7, 90084, Note_on_c, 5, 48, 0
7, 90096, Note_on_c, 5, 48, 127
7, 90132, Note_on_c, 5, 48, 0
7, 90144, Note_on_c, 5, 48, 127
7, 90180, Note_on_c, 5, 48, 0
7, 90192, Note_on_c, 5, 48, 127
7, 90228, Note_on_c, 5, 48, 0
7, 90240, Note_on_c, 5, 48, 127
7, 90276, Note_on_c, 5, 48, 0
7, 90288, Note_on_c, 5, 48, 127
7, 90324, Note_on_c, 5, 48, 0
7, 90336, Note_on_c, 5, 48, 127
7, 90372, Note_on_c, 5, 48, 0
7, 90384, Note_on_c, 5, 48, 127
7, 90420, Note_on_c, 5, 48, 0
7, 90432, Note_on_c, 5, 50, 127
7, 90468, Note_on_c, 5, 50, 0
7, 90480, Note_on_c, 5, 50, 127
7, 90516, Note_on_c, 5, 50, 0
7, 90528, Note_on_c, 5, 50, 127
7, 90564, Note_on_c, 5, 50, 0
7, 90576, Note_on_c, 5, 50, 127
7, 90612, Note_on_c, 5, 50, 0
7, 90624, Note_on_c, 5, 50, 127
7, 90660, Note_on_c, 5, 50, 0
7, 90672, Note_on_c, 5, 50, 127
7, 90708, Note_on_c, 5, 50, 0
7, 90720, Note_on_c, 5, 50, 127
7, 90756, Note_on_c, 5, 50, 0
7, 90768, Note_on_c, 5, 50, 127
7, 90804, Note_on_c, 5, 50, 0
7, 90816, Note_on_c, 5, 50, 127
7, 90852, Note_on_c, 5, 50, 0
7, 90864, Note_on_c, 5, 50, 127
7, 90900, Note_on_c, 5, 50, 0
7, 90912, Note_on_c, 5, 50, 127
7, 90948, Note_on_c, 5, 50, 0
7, 90960, Note_on_c, 5, 50, 127
7, 90996, Note_on_c, 5, 50, 0
7, 91008, Note_on_c, 5, 43, 127
7, 91044, Note_on_c, 5, 43, 0
7, 91056, Note_on_c, 5, 55, 127
7, 91092, Note_on_c, 5, 55, 0
7, 91104, Note_on_c, 5, 43, 127
7, 91140, Note_on_c, 5, 43, 0
7, 91152, Note_on_c, 5, 55, 127
7, 91188, Note_on_c, 5, 55, 0
7, 91200, Note_on_c, 5, 43, 127
7, 91236, Note_on_c, 5, 43, 0
7, 91248, Note_on_c, 5, 55, 127
7, 91284, Note_on_c, 5, 55, 0
7, 91296, Note_on_c, 5, 43, 127
7, 91332, Note_on_c, 5, 43, 0
7, 91344, Note_on_c, 5, 55, 127
7, 91380, Note_on_c, 5, 55, 0
7, 91392, Note_on_c, 5, 43, 127
7, 91428, Note_on_c, 5, 43, 0
7, 91440, Note_on_c, 5, 55, 127
7, 91476, Note_on_c, 5, 55, 0
7, 91488, Note_on_c, 5, 43, 127
7, 91524, Note_on_c, 5, 43, 0
7, 91536, Note_on_c, 5, 55, 127
7, 91572, Note_on_c, 5, 55, 0
7, 91584, Note_on_c, 5, 43, 127
7, 91620, Note_on_c, 5, 43, 0
7, 91632, Note_on_c, 5, 55, 127
7, 91668, Note_on_c, 5, 55, 0
7, 91680, Note_on_c, 5, 43, 127
7, 91716, Note_on_c, 5, 43, 0
7, 91728, Note_on_c, 5, 55, 127
7, 91764, Note_on_c, 5, 55, 0
7, 91776, Note_on_c, 5, 43, 127
7, 91812, Note_on_c, 5, 43, 0
7, 91824, Note_on_c, 5, 55, 127
7, 91860, Note_on_c, 5, 55, 0
7, 91872, Note_on_c, 5, 43, 127
7, 91908, Note_on_c, 5, 43, 0
7, 91920, Note_on_c, 5, 55, 127
7, 91956, Note_on_c, 5, 55, 0
7, 91968, Note_on_c, 5, 43, 127
7, 92004, Note_on_c, 5, 43, 0
7, 92016, Note_on_c, 5, 55, 127
7, 92052, Note_on_c, 5, 55, 0
7, 92064, Note_on_c, 5, 43, 127
7, 92100, Note_on_c, 5, 43, 0
7, 92112, Note_on_c, 5, 55, 127
7, 92148, Note_on_c, 5, 55, 0
7, 92160, Note_on_c, 5, 43, 127
7, 92196, Note_on_c, 5, 43, 0
7, 92208, Note_on_c, 5, 55, 127
7, 92244, Note_on_c, 5, 55, 0
7, 92256, Note_on_c, 5, 43, 127
7, 92292, Note_on_c, 5, 43, 0
7, 92304, Note_on_c, 5, 55, 127
7, 92340, Note_on_c, 5, 55, 0
7, 92352, Note_on_c, 5, 43, 127
7, 92388, Note_on_c, 5, 43, 0
7, 92400, Note_on_c, 5, 55, 127
7, 92436, Note_on_c, 5, 55, 0
7, 92448, Note_on_c, 5, 43, 127
7, 92484, Note_on_c, 5, 43, 0
7, 92496, Note_on_c, 5, 55, 127
7, 92532, Note_on_c, 5, 55, 0
7, 92544, Note_on_c, 5, 43, 127
7, 92580, Note_on_c, 5, 43, 0
7, 92592, Note_on_c, 5, 55, 127
7, 92628, Note_on_c, 5, 55, 0
7, 92640, Note_on_c, 5, 43, 127
7, 92676, Note_on_c, 5, 43, 0
7, 92688, Note_on_c, 5, 55, 127
7, 92724, Note_on_c, 5, 55, 0
7, 92928, Note_on_c, 5, 43, 127
7, 93312, Note_on_c, 5, 43, 0
7, 93312, End_track
8, 0, Start_track
8, 0, MIDI_port, 0
8, 0, Title_t, "Continuo RH         "
8, 0, Program_c, 6, 6
8, 0, Control_c, 6, 7, 60
8, 17688, Control_c, 6, 7, 100
8, 18432, Note_on_c, 6, 67, 110
8, 18432, Note_on_c, 6, 62, 110
8, 18432, Note_on_c, 6, 58, 110
8, 18432, Note_on_c, 6, 55, 110
8, 18624, Note_on_c, 6, 55, 0
8, 18624, Note_on_c, 6, 67, 0
8, 18624, Note_on_c, 6, 62, 0
8, 18624, Note_on_c, 6, 58, 0
8, 19008, Note_on_c, 6, 65, 110
8, 19008, Note_on_c, 6, 62, 110
8, 19008, Note_on_c, 6, 58, 110
8, 19008, Note_on_c, 6, 55, 110
8, 19200, Note_on_c, 6, 55, 0
8, 19200, Note_on_c, 6, 65, 0
8, 19200, Note_on_c, 6, 62, 0
8, 19200, Note_on_c, 6, 58, 0
8, 19584, Note_on_c, 6, 63, 110
8, 19584, Note_on_c, 6, 58, 110
8, 19584, Note_on_c, 6, 55, 110
8, 19776, Note_on_c, 6, 55, 0
8, 19776, Note_on_c, 6, 58, 0
8, 19776, Note_on_c, 6, 63, 0
8, 20160, Note_on_c, 6, 62, 110
8, 20160, Note_on_c, 6, 58, 110
8, 20160, Note_on_c, 6, 55, 110
8, 20352, Note_on_c, 6, 55, 0
8, 20352, Note_on_c, 6, 58, 0
8, 20352, Note_on_c, 6, 62, 0
8, 21312, Note_on_c, 6, 74, 110
8, 21312, Note_on_c, 6, 69, 110
8, 21312, Note_on_c, 6, 66, 110
8, 21312, Note_on_c, 6, 62, 110
8, 21504, Note_on_c, 6, 62, 0
8, 21504, Note_on_c, 6, 74, 0
8, 21504, Note_on_c, 6, 69, 0
8, 21504, Note_on_c, 6, 66, 0
8, 21888, Note_on_c, 6, 72, 110
8, 21888, Note_on_c, 6, 66, 110
8, 21888, Note_on_c, 6, 69, 110
8, 21888, Note_on_c, 6, 62, 110
8, 22080, Note_on_c, 6, 62, 0
8, 22080, Note_on_c, 6, 72, 0
8, 22080, Note_on_c, 6, 66, 0
8, 22080, Note_on_c, 6, 69, 0
8, 22464, Note_on_c, 6, 70, 110
8, 22464, Note_on_c, 6, 66, 110
8, 22464, Note_on_c, 6, 62, 110
8, 22656, Note_on_c, 6, 62, 0
8, 22656, Note_on_c, 6, 66, 0
8, 22656, Note_on_c, 6, 70, 0
8, 23040, Note_on_c, 6, 69, 110
8, 23040, Note_on_c, 6, 66, 110
8, 23040, Note_on_c, 6, 62, 110
8, 23232, Note_on_c, 6, 62, 0
8, 23232, Note_on_c, 6, 66, 0
8, 23232, Note_on_c, 6, 69, 0
8, 24192, Note_on_c, 6, 55, 110
8, 24264, Note_on_c, 6, 55, 0
8, 24384, Note_on_c, 6, 55, 110
8, 24456, Note_on_c, 6, 55, 0
8, 24576, Note_on_c, 6, 55, 110
8, 24648, Note_on_c, 6, 55, 0
8, 24768, Note_on_c, 6, 55, 110
8, 24840, Note_on_c, 6, 55, 0
8, 24960, Note_on_c, 6, 55, 110
8, 25032, Note_on_c, 6, 55, 0
8, 25152, Note_on_c, 6, 55, 110
8, 25224, Note_on_c, 6, 55, 0
8, 25344, Note_on_c, 6, 60, 110
8, 25416, Note_on_c, 6, 60, 0
8, 25536, Note_on_c, 6, 60, 110
8, 25608, Note_on_c, 6, 60, 0
8, 25728, Note_on_c, 6, 60, 110
8, 25800, Note_on_c, 6, 60, 0
8, 25920, Note_on_c, 6, 60, 110
8, 25992, Note_on_c, 6, 60, 0
8, 26112, Note_on_c, 6, 60, 110
8, 26184, Note_on_c, 6, 60, 0
8, 26304, Note_on_c, 6, 60, 110
8, 26376, Note_on_c, 6, 60, 0
8, 26496, Note_on_c, 6, 63, 110
8, 26568, Note_on_c, 6, 63, 0
8, 26688, Note_on_c, 6, 63, 110
8, 26760, Note_on_c, 6, 63, 0
8, 26880, Note_on_c, 6, 63, 110
8, 26952, Note_on_c, 6, 63, 0
8, 27072, Note_on_c, 6, 63, 110
8, 27144, Note_on_c, 6, 63, 0
8, 27264, Note_on_c, 6, 63, 110
8, 27336, Note_on_c, 6, 63, 0
8, 27456, Note_on_c, 6, 63, 110
8, 27528, Note_on_c, 6, 63, 0
8, 27648, Note_on_c, 6, 67, 110
8, 27720, Note_on_c, 6, 67, 0
8, 27840, Note_on_c, 6, 67, 110
8, 27912, Note_on_c, 6, 67, 0
8, 28032, Note_on_c, 6, 67, 110
8, 28104, Note_on_c, 6, 67, 0
8, 28224, Note_on_c, 6, 67, 110
8, 28296, Note_on_c, 6, 67, 0
8, 28416, Note_on_c, 6, 67, 110
8, 28488, Note_on_c, 6, 67, 0
8, 28608, Note_on_c, 6, 67, 110
8, 28680, Note_on_c, 6, 67, 0
8, 28800, Note_on_c, 6, 55, 110
8, 28872, Note_on_c, 6, 55, 0
8, 28992, Note_on_c, 6, 55, 110
8, 29064, Note_on_c, 6, 55, 0
8, 29184, Note_on_c, 6, 55, 110
8, 29256, Note_on_c, 6, 55, 0
8, 29376, Note_on_c, 6, 55, 110
8, 29412, Note_on_c, 6, 55, 0
8, 29424, Note_on_c, 6, 55, 110
8, 29460, Note_on_c, 6, 55, 0
8, 29472, Note_on_c, 6, 55, 110
8, 29508, Note_on_c, 6, 55, 0
8, 29520, Note_on_c, 6, 55, 110
8, 29556, Note_on_c, 6, 55, 0
8, 29568, Note_on_c, 6, 62, 110
8, 29604, Note_on_c, 6, 62, 0
8, 29616, Note_on_c, 6, 55, 110
8, 29652, Note_on_c, 6, 55, 0
8, 29664, Note_on_c, 6, 55, 110
8, 29700, Note_on_c, 6, 55, 0
8, 29712, Note_on_c, 6, 55, 110
8, 29748, Note_on_c, 6, 55, 0
8, 29760, Note_on_c, 6, 62, 110
8, 29796, Note_on_c, 6, 62, 0
8, 29808, Note_on_c, 6, 55, 110
8, 29844, Note_on_c, 6, 55, 0
8, 29856, Note_on_c, 6, 55, 110
8, 29892, Note_on_c, 6, 55, 0
8, 29904, Note_on_c, 6, 55, 110
8, 29940, Note_on_c, 6, 55, 0
8, 29952, Note_on_c, 6, 66, 110
8, 30144, Note_on_c, 6, 66, 0
8, 30384, Note_on_c, 6, 74, 110
8, 30420, Note_on_c, 6, 74, 0
8, 30432, Note_on_c, 6, 69, 110
8, 30468, Note_on_c, 6, 69, 0
8, 30480, Note_on_c, 6, 66, 110
8, 30516, Note_on_c, 6, 66, 0
8, 30528, Note_on_c, 6, 62, 110
8, 30720, Note_on_c, 6, 62, 0
8, 30960, Note_on_c, 6, 74, 110
8, 30996, Note_on_c, 6, 74, 0
8, 31008, Note_on_c, 6, 69, 110
8, 31044, Note_on_c, 6, 69, 0
8, 31056, Note_on_c, 6, 66, 110
8, 31092, Note_on_c, 6, 66, 0
8, 31104, Note_on_c, 6, 67, 110
8, 31296, Note_on_c, 6, 67, 0
8, 31536, Note_on_c, 6, 74, 110
8, 31572, Note_on_c, 6, 74, 0
8, 31584, Note_on_c, 6, 70, 110
8, 31620, Note_on_c, 6, 70, 0
8, 31632, Note_on_c, 6, 67, 110
8, 31668, Note_on_c, 6, 67, 0
8, 31680, Note_on_c, 6, 66, 110
8, 31872, Note_on_c, 6, 66, 0
8, 32112, Note_on_c, 6, 74, 110
8, 32148, Note_on_c, 6, 74, 0
8, 32160, Note_on_c, 6, 69, 110
8, 32196, Note_on_c, 6, 69, 0
8, 32208, Note_on_c, 6, 66, 110
8, 32244, Note_on_c, 6, 66, 0
8, 32256, Note_on_c, 6, 62, 110
8, 32448, Note_on_c, 6, 62, 0
8, 32688, Note_on_c, 6, 74, 110
8, 32724, Note_on_c, 6, 74, 0
8, 32736, Note_on_c, 6, 69, 110
8, 32772, Note_on_c, 6, 69, 0
8, 32784, Note_on_c, 6, 66, 110
8, 32820, Note_on_c, 6, 66, 0
8, 32832, Note_on_c, 6, 62, 110
8, 33024, Note_on_c, 6, 62, 0
8, 33264, Note_on_c, 6, 74, 110
8, 33300, Note_on_c, 6, 74, 0
8, 33312, Note_on_c, 6, 69, 110
8, 33348, Note_on_c, 6, 69, 0
8, 33360, Note_on_c, 6, 66, 110
8, 33396, Note_on_c, 6, 66, 0
8, 33408, Note_on_c, 6, 67, 110
8, 33600, Note_on_c, 6, 67, 0
8, 33840, Note_on_c, 6, 74, 110
8, 33876, Note_on_c, 6, 74, 0
8, 33888, Note_on_c, 6, 70, 110
8, 33924, Note_on_c, 6, 70, 0
8, 33936, Note_on_c, 6, 67, 110
8, 33972, Note_on_c, 6, 67, 0
8, 33984, Note_on_c, 6, 66, 110
8, 34176, Note_on_c, 6, 66, 0
8, 34416, Note_on_c, 6, 74, 110
8, 34452, Note_on_c, 6, 74, 0
8, 34464, Note_on_c, 6, 69, 110
8, 34500, Note_on_c, 6, 69, 0
8, 34512, Note_on_c, 6, 66, 110
8, 34548, Note_on_c, 6, 66, 0
8, 34560, Note_on_c, 6, 62, 110
8, 34632, Note_on_c, 6, 62, 0
8, 34752, Note_on_c, 6, 62, 110
8, 34824, Note_on_c, 6, 62, 0
8, 34944, Note_on_c, 6, 62, 110
8, 35016, Note_on_c, 6, 62, 0
8, 35136, Note_on_c, 6, 62, 110
8, 35208, Note_on_c, 6, 62, 0
8, 35328, Note_on_c, 6, 62, 110
8, 35400, Note_on_c, 6, 62, 0
8, 35520, Note_on_c, 6, 62, 110
8, 35592, Note_on_c, 6, 62, 0
8, 35712, Note_on_c, 6, 62, 110
8, 35784, Note_on_c, 6, 62, 0
8, 35904, Note_on_c, 6, 62, 110
8, 35976, Note_on_c, 6, 62, 0
8, 36096, Note_on_c, 6, 62, 110
8, 36168, Note_on_c, 6, 62, 0
8, 36288, Note_on_c, 6, 59, 110
8, 36288, Note_on_c, 6, 62, 110
8, 36324, Note_on_c, 6, 62, 0
8, 36324, Note_on_c, 6, 59, 0
8, 36480, Note_on_c, 6, 59, 110
8, 36480, Note_on_c, 6, 62, 110
8, 36516, Note_on_c, 6, 62, 0
8, 36516, Note_on_c, 6, 59, 0
8, 36672, Note_on_c, 6, 59, 110
8, 36672, Note_on_c, 6, 62, 110
8, 36708, Note_on_c, 6, 62, 0
8, 36708, Note_on_c, 6, 59, 0
8, 36864, Note_on_c, 6, 60, 110
8, 36864, Note_on_c, 6, 63, 110
8, 36900, Note_on_c, 6, 63, 0
8, 36900, Note_on_c, 6, 60, 0
8, 37056, Note_on_c, 6, 60, 110
8, 37056, Note_on_c, 6, 63, 110
8, 37092, Note_on_c, 6, 63, 0
8, 37092, Note_on_c, 6, 60, 0
8, 37248, Note_on_c, 6, 60, 110
8, 37248, Note_on_c, 6, 63, 110
8, 37284, Note_on_c, 6, 63, 0
8, 37284, Note_on_c, 6, 60, 0
8, 37440, Note_on_c, 6, 61, 110
8, 37440, Note_on_c, 6, 64, 110
8, 37476, Note_on_c, 6, 64, 0
8, 37476, Note_on_c, 6, 61, 0
8, 37632, Note_on_c, 6, 61, 110
8, 37632, Note_on_c, 6, 64, 110
8, 37668, Note_on_c, 6, 64, 0
8, 37668, Note_on_c, 6, 61, 0
8, 37824, Note_on_c, 6, 61, 110
8, 37824, Note_on_c, 6, 64, 110
8, 37860, Note_on_c, 6, 64, 0
8, 37860, Note_on_c, 6, 61, 0
8, 38016, Note_on_c, 6, 62, 110
8, 38016, Note_on_c, 6, 65, 110
8, 38052, Note_on_c, 6, 65, 0
8, 38052, Note_on_c, 6, 62, 0
8, 38208, Note_on_c, 6, 62, 110
8, 38208, Note_on_c, 6, 65, 110
8, 38244, Note_on_c, 6, 65, 0
8, 38244, Note_on_c, 6, 62, 0
8, 38400, Note_on_c, 6, 62, 110
8, 38400, Note_on_c, 6, 65, 110
8, 38436, Note_on_c, 6, 65, 0
8, 38436, Note_on_c, 6, 62, 0
8, 38592, Note_on_c, 6, 62, 110
8, 38592, Note_on_c, 6, 64, 110
8, 38628, Note_on_c, 6, 64, 0
8, 38628, Note_on_c, 6, 62, 0
8, 38784, Note_on_c, 6, 62, 110
8, 38784, Note_on_c, 6, 64, 110
8, 38820, Note_on_c, 6, 64, 0
8, 38820, Note_on_c, 6, 62, 0
8, 38976, Note_on_c, 6, 62, 110
8, 38976, Note_on_c, 6, 64, 110
8, 39012, Note_on_c, 6, 64, 0
8, 39012, Note_on_c, 6, 62, 0
8, 39168, Note_on_c, 6, 61, 110
8, 39168, Note_on_c, 6, 64, 110
8, 39204, Note_on_c, 6, 64, 0
8, 39204, Note_on_c, 6, 61, 0
8, 39360, Note_on_c, 6, 61, 110
8, 39360, Note_on_c, 6, 64, 110
8, 39396, Note_on_c, 6, 64, 0
8, 39396, Note_on_c, 6, 61, 0
8, 39552, Note_on_c, 6, 61, 110
8, 39552, Note_on_c, 6, 64, 110
8, 39588, Note_on_c, 6, 64, 0
8, 39588, Note_on_c, 6, 61, 0
8, 39648, Note_on_c, 6, 61, 110
8, 39648, Note_on_c, 6, 64, 110
8, 39684, Note_on_c, 6, 64, 0
8, 39684, Note_on_c, 6, 61, 0
8, 39744, Note_on_c, 6, 62, 110
8, 39744, Note_on_c, 6, 65, 110
8, 39744, Note_on_c, 6, 69, 110
8, 39744, Note_on_c, 6, 74, 110
8, 39936, Note_on_c, 6, 74, 0
8, 39936, Note_on_c, 6, 62, 0
8, 39936, Note_on_c, 6, 65, 0
8, 39936, Note_on_c, 6, 69, 0
8, 49536, Note_on_c, 6, 62, 110
8, 49728, Note_on_c, 6, 62, 0
8, 49824, Note_on_c, 6, 69, 110
8, 49920, Note_on_c, 6, 69, 0
8, 49920, Note_on_c, 6, 65, 110
8, 49956, Note_on_c, 6, 65, 0
8, 49968, Note_on_c, 6, 67, 110
8, 50004, Note_on_c, 6, 67, 0
8, 50016, Note_on_c, 6, 65, 110
8, 50052, Note_on_c, 6, 65, 0
8, 50064, Note_on_c, 6, 64, 110
8, 50100, Note_on_c, 6, 64, 0
8, 50112, Note_on_c, 6, 62, 110
8, 50304, Note_on_c, 6, 62, 0
8, 50400, Note_on_c, 6, 74, 110
8, 50496, Note_on_c, 6, 74, 0
8, 50496, Note_on_c, 6, 70, 110
8, 50532, Note_on_c, 6, 70, 0
8, 50544, Note_on_c, 6, 69, 110
8, 50580, Note_on_c, 6, 69, 0
8, 50592, Note_on_c, 6, 67, 110
8, 50628, Note_on_c, 6, 67, 0
8, 50640, Note_on_c, 6, 65, 110
8, 50676, Note_on_c, 6, 65, 0
8, 50688, Note_on_c, 6, 64, 110
8, 50880, Note_on_c, 6, 64, 0
8, 50976, Note_on_c, 6, 67, 110
8, 51072, Note_on_c, 6, 67, 0
8, 51072, Note_on_c, 6, 64, 110
8, 51108, Note_on_c, 6, 64, 0
8, 51120, Note_on_c, 6, 62, 110
8, 51156, Note_on_c, 6, 62, 0
8, 51168, Note_on_c, 6, 60, 110
8, 51204, Note_on_c, 6, 60, 0
8, 51216, Note_on_c, 6, 58, 110
8, 51252, Note_on_c, 6, 58, 0
8, 51264, Note_on_c, 6, 60, 110
8, 51456, Note_on_c, 6, 60, 0
8, 51552, Note_on_c, 6, 72, 110
8, 51648, Note_on_c, 6, 72, 0
8, 51648, Note_on_c, 6, 69, 110
8, 51684, Note_on_c, 6, 69, 0
8, 51696, Note_on_c, 6, 67, 110
8, 51732, Note_on_c, 6, 67, 0
8, 51744, Note_on_c, 6, 65, 110
8, 51780, Note_on_c, 6, 65, 0
8, 51792, Note_on_c, 6, 63, 110
8, 51828, Note_on_c, 6, 63, 0
8, 51840, Note_on_c, 6, 62, 110
8, 52032, Note_on_c, 6, 62, 0
8, 52128, Note_on_c, 6, 65, 110
8, 52224, Note_on_c, 6, 65, 0
8, 52224, Note_on_c, 6, 62, 110
8, 52260, Note_on_c, 6, 62, 0
8, 52272, Note_on_c, 6, 60, 110
8, 52308, Note_on_c, 6, 60, 0
8, 52320, Note_on_c, 6, 58, 110
8, 52356, Note_on_c, 6, 58, 0
8, 52368, Note_on_c, 6, 57, 110
8, 52404, Note_on_c, 6, 57, 0
8, 52416, Note_on_c, 6, 58, 110
8, 52608, Note_on_c, 6, 58, 0
8, 52704, Note_on_c, 6, 70, 110
8, 52800, Note_on_c, 6, 70, 0
8, 52800, Note_on_c, 6, 67, 110
8, 52836, Note_on_c, 6, 67, 0
8, 52848, Note_on_c, 6, 65, 110
8, 52884, Note_on_c, 6, 65, 0
8, 52896, Note_on_c, 6, 63, 110
8, 52932, Note_on_c, 6, 63, 0
8, 52944, Note_on_c, 6, 62, 110
8, 52980, Note_on_c, 6, 62, 0
8, 52992, Note_on_c, 6, 60, 110
8, 53184, Note_on_c, 6, 60, 0
8, 53280, Note_on_c, 6, 63, 110
8, 53376, Note_on_c, 6, 63, 0
8, 53376, Note_on_c, 6, 60, 110
8, 53412, Note_on_c, 6, 60, 0
8, 53424, Note_on_c, 6, 58, 110
8, 53460, Note_on_c, 6, 58, 0
8, 53472, Note_on_c, 6, 56, 110
8, 53508, Note_on_c, 6, 56, 0
8, 53520, Note_on_c, 6, 55, 110
8, 53556, Note_on_c, 6, 55, 0
8, 53568, Note_on_c, 6, 62, 110
8, 53760, Note_on_c, 6, 62, 0
8, 53856, Note_on_c, 6, 65, 110
8, 53952, Note_on_c, 6, 65, 0
8, 53952, Note_on_c, 6, 62, 110
8, 53988, Note_on_c, 6, 62, 0
8, 54000, Note_on_c, 6, 60, 110
8, 54036, Note_on_c, 6, 60, 0
8, 54048, Note_on_c, 6, 59, 110
8, 54084, Note_on_c, 6, 59, 0
8, 54096, Note_on_c, 6, 57, 110
8, 54132, Note_on_c, 6, 57, 0
8, 54144, Note_on_c, 6, 59, 110
8, 54336, Note_on_c, 6, 59, 0
8, 54432, Note_on_c, 6, 62, 110
8, 54528, Note_on_c, 6, 62, 0
8, 54528, Note_on_c, 6, 58, 110
8, 54564, Note_on_c, 6, 58, 0
8, 54576, Note_on_c, 6, 57, 110
8, 54612, Note_on_c, 6, 57, 0
8, 54624, Note_on_c, 6, 55, 110
8, 54660, Note_on_c, 6, 55, 0
8, 54672, Note_on_c, 6, 53, 110
8, 54708, Note_on_c, 6, 53, 0
8, 54720, Note_on_c, 6, 55, 110
8, 54912, Note_on_c, 6, 55, 0
8, 55104, Note_on_c, 6, 72, 110
8, 55140, Note_on_c, 6, 72, 0
8, 55152, Note_on_c, 6, 67, 110
8, 55188, Note_on_c, 6, 67, 0
8, 55200, Note_on_c, 6, 63, 110
8, 55236, Note_on_c, 6, 63, 0
8, 55248, Note_on_c, 6, 60, 110
8, 55284, Note_on_c, 6, 60, 0
8, 55296, Note_on_c, 6, 55, 110
8, 55488, Note_on_c, 6, 55, 0
8, 55680, Note_on_c, 6, 72, 110
8, 55716, Note_on_c, 6, 72, 0
8, 55728, Note_on_c, 6, 67, 110
8, 55764, Note_on_c, 6, 67, 0
8, 55776, Note_on_c, 6, 63, 110
8, 55812, Note_on_c, 6, 63, 0
8, 55824, Note_on_c, 6, 60, 110
8, 55860, Note_on_c, 6, 60, 0
8, 55872, Note_on_c, 6, 55, 110
8, 56064, Note_on_c, 6, 55, 0
8, 56256, Note_on_c, 6, 72, 110
8, 56292, Note_on_c, 6, 72, 0
8, 56304, Note_on_c, 6, 67, 110
8, 56340, Note_on_c, 6, 67, 0
8, 56352, Note_on_c, 6, 63, 110
8, 56388, Note_on_c, 6, 63, 0
8, 56400, Note_on_c, 6, 60, 110
8, 56436, Note_on_c, 6, 60, 0
8, 56448, Note_on_c, 6, 63, 110
8, 56484, Note_on_c, 6, 63, 0
8, 56496, Note_on_c, 6, 72, 110
8, 56532, Note_on_c, 6, 72, 0
8, 56544, Note_on_c, 6, 70, 110
8, 56580, Note_on_c, 6, 70, 0
8, 56592, Note_on_c, 6, 72, 110
8, 56628, Note_on_c, 6, 72, 0
8, 56640, Note_on_c, 6, 63, 110
8, 56676, Note_on_c, 6, 63, 0
8, 56688, Note_on_c, 6, 72, 110
8, 56724, Note_on_c, 6, 72, 0
8, 56736, Note_on_c, 6, 70, 110
8, 56772, Note_on_c, 6, 70, 0
8, 56784, Note_on_c, 6, 72, 110
8, 56820, Note_on_c, 6, 72, 0
8, 56832, Note_on_c, 6, 63, 110
8, 56868, Note_on_c, 6, 63, 0
8, 56880, Note_on_c, 6, 72, 110
8, 56916, Note_on_c, 6, 72, 0
8, 56928, Note_on_c, 6, 70, 110
8, 56964, Note_on_c, 6, 70, 0
8, 56976, Note_on_c, 6, 72, 110
8, 57012, Note_on_c, 6, 72, 0
8, 57024, Note_on_c, 6, 65, 110
8, 57060, Note_on_c, 6, 65, 0
8, 57072, Note_on_c, 6, 72, 110
8, 57108, Note_on_c, 6, 72, 0
8, 57120, Note_on_c, 6, 70, 110
8, 57156, Note_on_c, 6, 70, 0
8, 57168, Note_on_c, 6, 72, 110
8, 57204, Note_on_c, 6, 72, 0
8, 57216, Note_on_c, 6, 65, 110
8, 57252, Note_on_c, 6, 65, 0
8, 57264, Note_on_c, 6, 72, 110
8, 57300, Note_on_c, 6, 72, 0
8, 57312, Note_on_c, 6, 70, 110
8, 57348, Note_on_c, 6, 70, 0
8, 57360, Note_on_c, 6, 72, 110
8, 57396, Note_on_c, 6, 72, 0
8, 57408, Note_on_c, 6, 65, 110
8, 57444, Note_on_c, 6, 65, 0
8, 57456, Note_on_c, 6, 72, 110
8, 57492, Note_on_c, 6, 72, 0
8, 57504, Note_on_c, 6, 70, 110
8, 57540, Note_on_c, 6, 70, 0
8, 57552, Note_on_c, 6, 72, 110
8, 57588, Note_on_c, 6, 72, 0
8, 57600, Note_on_c, 6, 67, 110
8, 57636, Note_on_c, 6, 67, 0
8, 57648, Note_on_c, 6, 72, 110
8, 57684, Note_on_c, 6, 72, 0
8, 57696, Note_on_c, 6, 71, 110
8, 57732, Note_on_c, 6, 71, 0
8, 57744, Note_on_c, 6, 72, 110
8, 57780, Note_on_c, 6, 72, 0
8, 57792, Note_on_c, 6, 67, 110
8, 57828, Note_on_c, 6, 67, 0
8, 57840, Note_on_c, 6, 72, 110
8, 57876, Note_on_c, 6, 72, 0
8, 57888, Note_on_c, 6, 71, 110
8, 57924, Note_on_c, 6, 71, 0
8, 57936, Note_on_c, 6, 72, 110
8, 57972, Note_on_c, 6, 72, 0
8, 57984, Note_on_c, 6, 67, 110
8, 58020, Note_on_c, 6, 67, 0
8, 58032, Note_on_c, 6, 71, 110
8, 58068, Note_on_c, 6, 71, 0
8, 58080, Note_on_c, 6, 69, 110
8, 58116, Note_on_c, 6, 69, 0
8, 58128, Note_on_c, 6, 71, 110
8, 58164, Note_on_c, 6, 71, 0
8, 58176, Note_on_c, 6, 72, 110
8, 58212, Note_on_c, 6, 72, 0
8, 58212, End_track
9, 0, Start_track
9, 0, MIDI_port, 0
9, 0, Title_t, "Continuo LH         "
9, 0, Program_c, 6, 6
9, 0, Control_c, 6, 7, 60
9, 17688, Control_c, 6, 7, 100
9, 18432, Note_on_c, 6, 55, 110
9, 18528, Note_on_c, 6, 55, 0
9, 18624, Note_on_c, 6, 43, 110
9, 18720, Note_on_c, 6, 43, 0
9, 18816, Note_on_c, 6, 43, 110
9, 18912, Note_on_c, 6, 43, 0
9, 19008, Note_on_c, 6, 53, 110
9, 19104, Note_on_c, 6, 53, 0
9, 19200, Note_on_c, 6, 43, 110
9, 19296, Note_on_c, 6, 43, 0
9, 19392, Note_on_c, 6, 43, 110
9, 19488, Note_on_c, 6, 43, 0
9, 19584, Note_on_c, 6, 51, 110
9, 19680, Note_on_c, 6, 51, 0
9, 19776, Note_on_c, 6, 43, 110
9, 19872, Note_on_c, 6, 43, 0
9, 19968, Note_on_c, 6, 43, 110
9, 20064, Note_on_c, 6, 43, 0
9, 20160, Note_on_c, 6, 50, 110
9, 20256, Note_on_c, 6, 50, 0
9, 20352, Note_on_c, 6, 43, 110
9, 20448, Note_on_c, 6, 43, 0
9, 20544, Note_on_c, 6, 43, 110
9, 20640, Note_on_c, 6, 43, 0
9, 21312, Note_on_c, 6, 62, 110
9, 21408, Note_on_c, 6, 62, 0
9, 21504, Note_on_c, 6, 50, 110
9, 21600, Note_on_c, 6, 50, 0
9, 21696, Note_on_c, 6, 50, 110
9, 21792, Note_on_c, 6, 50, 0
9, 21888, Note_on_c, 6, 60, 110
9, 21984, Note_on_c, 6, 60, 0
9, 22080, Note_on_c, 6, 50, 110
9, 22176, Note_on_c, 6, 50, 0
9, 22272, Note_on_c, 6, 50, 110
9, 22368, Note_on_c, 6, 50, 0
9, 22464, Note_on_c, 6, 58, 110
9, 22560, Note_on_c, 6, 58, 0
9, 22656, Note_on_c, 6, 50, 110
9, 22752, Note_on_c, 6, 50, 0
9, 22848, Note_on_c, 6, 50, 110
9, 22944, Note_on_c, 6, 50, 0
9, 23040, Note_on_c, 6, 57, 110
9, 23136, Note_on_c, 6, 57, 0
9, 23232, Note_on_c, 6, 50, 110
9, 23328, Note_on_c, 6, 50, 0
9, 23424, Note_on_c, 6, 50, 110
9, 23520, Note_on_c, 6, 50, 0
9, 24192, Note_on_c, 6, 43, 110
9, 24264, Note_on_c, 6, 43, 0
9, 24384, Note_on_c, 6, 43, 110
9, 24456, Note_on_c, 6, 43, 0
9, 24576, Note_on_c, 6, 43, 110
9, 24648, Note_on_c, 6, 43, 0
9, 24768, Note_on_c, 6, 43, 110
9, 24840, Note_on_c, 6, 43, 0
9, 24960, Note_on_c, 6, 43, 110
9, 25032, Note_on_c, 6, 43, 0
9, 25152, Note_on_c, 6, 43, 110
9, 25224, Note_on_c, 6, 43, 0
9, 25344, Note_on_c, 6, 48, 110
9, 25416, Note_on_c, 6, 48, 0
9, 25536, Note_on_c, 6, 48, 110
9, 25608, Note_on_c, 6, 48, 0
9, 25728, Note_on_c, 6, 48, 110
9, 25800, Note_on_c, 6, 48, 0
9, 25920, Note_on_c, 6, 48, 110
9, 25992, Note_on_c, 6, 48, 0
9, 26112, Note_on_c, 6, 48, 110
9, 26184, Note_on_c, 6, 48, 0
9, 26304, Note_on_c, 6, 48, 110
9, 26376, Note_on_c, 6, 48, 0
9, 26496, Note_on_c, 6, 51, 110
9, 26568, Note_on_c, 6, 51, 0
9, 26688, Note_on_c, 6, 51, 110
9, 26760, Note_on_c, 6, 51, 0
9, 26880, Note_on_c, 6, 51, 110
9, 26952, Note_on_c, 6, 51, 0
9, 27072, Note_on_c, 6, 51, 110
9, 27144, Note_on_c, 6, 51, 0
9, 27264, Note_on_c, 6, 51, 110
9, 27336, Note_on_c, 6, 51, 0
9, 27456, Note_on_c, 6, 51, 110
9, 27528, Note_on_c, 6, 51, 0
9, 27648, Note_on_c, 6, 55, 110
9, 27720, Note_on_c, 6, 55, 0
9, 27840, Note_on_c, 6, 55, 110
9, 27912, Note_on_c, 6, 55, 0
9, 28032, Note_on_c, 6, 55, 110
9, 28104, Note_on_c, 6, 55, 0
9, 28224, Note_on_c, 6, 55, 110
9, 28296, Note_on_c, 6, 55, 0
9, 28416, Note_on_c, 6, 55, 110
9, 28488, Note_on_c, 6, 55, 0
9, 28608, Note_on_c, 6, 55, 110
9, 28680, Note_on_c, 6, 55, 0
9, 28800, Note_on_c, 6, 55, 110
9, 28872, Note_on_c, 6, 55, 0
9, 28992, Note_on_c, 6, 55, 110
9, 29064, Note_on_c, 6, 55, 0
9, 29184, Note_on_c, 6, 55, 110
9, 29256, Note_on_c, 6, 55, 0
9, 29376, Note_on_c, 6, 55, 110
9, 29412, Note_on_c, 6, 55, 0
9, 29568, Note_on_c, 6, 62, 110
9, 29604, Note_on_c, 6, 62, 0
9, 29760, Note_on_c, 6, 62, 110
9, 29796, Note_on_c, 6, 62, 0
9, 29952, Note_on_c, 6, 50, 110
9, 29988, Note_on_c, 6, 50, 0
9, 30000, Note_on_c, 6, 62, 110
9, 30036, Note_on_c, 6, 62, 0
9, 30048, Note_on_c, 6, 50, 110
9, 30084, Note_on_c, 6, 50, 0
9, 30096, Note_on_c, 6, 62, 110
9, 30132, Note_on_c, 6, 62, 0
9, 30144, Note_on_c, 6, 50, 110
9, 30180, Note_on_c, 6, 50, 0
9, 30192, Note_on_c, 6, 62, 110
9, 30228, Note_on_c, 6, 62, 0
9, 30240, Note_on_c, 6, 50, 110
9, 30276, Note_on_c, 6, 50, 0
9, 30288, Note_on_c, 6, 62, 110
9, 30324, Note_on_c, 6, 62, 0
9, 30336, Note_on_c, 6, 50, 110
9, 30372, Note_on_c, 6, 50, 0
9, 30384, Note_on_c, 6, 62, 110
9, 30420, Note_on_c, 6, 62, 0
9, 30432, Note_on_c, 6, 50, 110
9, 30468, Note_on_c, 6, 50, 0
9, 30480, Note_on_c, 6, 62, 110
9, 30516, Note_on_c, 6, 62, 0
9, 30528, Note_on_c, 6, 50, 110
9, 30564, Note_on_c, 6, 50, 0
9, 30576, Note_on_c, 6, 60, 110
9, 30612, Note_on_c, 6, 60, 0
9, 30624, Note_on_c, 6, 50, 110
9, 30660, Note_on_c, 6, 50, 0
9, 30672, Note_on_c, 6, 60, 110
9, 30708, Note_on_c, 6, 60, 0
9, 30720, Note_on_c, 6, 50, 110
9, 30756, Note_on_c, 6, 50, 0
9, 30768, Note_on_c, 6, 60, 110
9, 30804, Note_on_c, 6, 60, 0
9, 30816, Note_on_c, 6, 50, 110
9, 30852, Note_on_c, 6, 50, 0
9, 30864, Note_on_c, 6, 60, 110
9, 30900, Note_on_c, 6, 60, 0
9, 30912, Note_on_c, 6, 50, 110
9, 30948, Note_on_c, 6, 50, 0
9, 30960, Note_on_c, 6, 60, 110
9, 30996, Note_on_c, 6, 60, 0
9, 31008, Note_on_c, 6, 50, 110
9, 31044, Note_on_c, 6, 50, 0
9, 31056, Note_on_c, 6, 60, 110
9, 31092, Note_on_c, 6, 60, 0
9, 31104, Note_on_c, 6, 50, 110
9, 31140, Note_on_c, 6, 50, 0
9, 31152, Note_on_c, 6, 58, 110
9, 31188, Note_on_c, 6, 58, 0
9, 31200, Note_on_c, 6, 50, 110
9, 31236, Note_on_c, 6, 50, 0
9, 31248, Note_on_c, 6, 58, 110
9, 31284, Note_on_c, 6, 58, 0
9, 31296, Note_on_c, 6, 50, 110
9, 31332, Note_on_c, 6, 50, 0
9, 31344, Note_on_c, 6, 58, 110
9, 31380, Note_on_c, 6, 58, 0
9, 31392, Note_on_c, 6, 50, 110
9, 31428, Note_on_c, 6, 50, 0
9, 31440, Note_on_c, 6, 58, 110
9, 31476, Note_on_c, 6, 58, 0
9, 31488, Note_on_c, 6, 50, 110
9, 31524, Note_on_c, 6, 50, 0
9, 31536, Note_on_c, 6, 58, 110
9, 31572, Note_on_c, 6, 58, 0
9, 31584, Note_on_c, 6, 50, 110
9, 31620, Note_on_c, 6, 50, 0
9, 31632, Note_on_c, 6, 58, 110
9, 31668, Note_on_c, 6, 58, 0
9, 31680, Note_on_c, 6, 50, 110
9, 31716, Note_on_c, 6, 50, 0
9, 31728, Note_on_c, 6, 57, 110
9, 31764, Note_on_c, 6, 57, 0
9, 31776, Note_on_c, 6, 50, 110
9, 31812, Note_on_c, 6, 50, 0
9, 31824, Note_on_c, 6, 57, 110
9, 31860, Note_on_c, 6, 57, 0
9, 31872, Note_on_c, 6, 50, 110
9, 31908, Note_on_c, 6, 50, 0
9, 31920, Note_on_c, 6, 57, 110
9, 31956, Note_on_c, 6, 57, 0
9, 31968, Note_on_c, 6, 50, 110
9, 32004, Note_on_c, 6, 50, 0
9, 32016, Note_on_c, 6, 57, 110
9, 32052, Note_on_c, 6, 57, 0
9, 32064, Note_on_c, 6, 50, 110
9, 32100, Note_on_c, 6, 50, 0
9, 32112, Note_on_c, 6, 57, 110
9, 32148, Note_on_c, 6, 57, 0
9, 32160, Note_on_c, 6, 50, 110
9, 32196, Note_on_c, 6, 50, 0
9, 32208, Note_on_c, 6, 57, 110
9, 32244, Note_on_c, 6, 57, 0
9, 32256, Note_on_c, 6, 50, 110
9, 32292, Note_on_c, 6, 50, 0
9, 32304, Note_on_c, 6, 62, 110
9, 32340, Note_on_c, 6, 62, 0
9, 32352, Note_on_c, 6, 50, 110
9, 32388, Note_on_c, 6, 50, 0
9, 32400, Note_on_c, 6, 62, 110
9, 32436, Note_on_c, 6, 62, 0
9, 32448, Note_on_c, 6, 50, 110
9, 32484, Note_on_c, 6, 50, 0
9, 32496, Note_on_c, 6, 62, 110
9, 32532, Note_on_c, 6, 62, 0
9, 32544, Note_on_c, 6, 50, 110
9, 32580, Note_on_c, 6, 50, 0
9, 32592, Note_on_c, 6, 62, 110
9, 32628, Note_on_c, 6, 62, 0
9, 32640, Note_on_c, 6, 50, 110
9, 32676, Note_on_c, 6, 50, 0
9, 32688, Note_on_c, 6, 62, 110
9, 32724, Note_on_c, 6, 62, 0
9, 32736, Note_on_c, 6, 50, 110
9, 32772, Note_on_c, 6, 50, 0
9, 32784, Note_on_c, 6, 62, 110
9, 32820, Note_on_c, 6, 62, 0
9, 32832, Note_on_c, 6, 50, 110
9, 32868, Note_on_c, 6, 50, 0
9, 32880, Note_on_c, 6, 60, 110
9, 32916, Note_on_c, 6, 60, 0
9, 32928, Note_on_c, 6, 50, 110
9, 32964, Note_on_c, 6, 50, 0
9, 32976, Note_on_c, 6, 60, 110
9, 33012, Note_on_c, 6, 60, 0
9, 33024, Note_on_c, 6, 50, 110
9, 33060, Note_on_c, 6, 50, 0
9, 33072, Note_on_c, 6, 60, 110
9, 33108, Note_on_c, 6, 60, 0
9, 33120, Note_on_c, 6, 50, 110
9, 33156, Note_on_c, 6, 50, 0
9, 33168, Note_on_c, 6, 60, 110
9, 33204, Note_on_c, 6, 60, 0
9, 33216, Note_on_c, 6, 50, 110
9, 33252, Note_on_c, 6, 50, 0
9, 33264, Note_on_c, 6, 60, 110
9, 33300, Note_on_c, 6, 60, 0
9, 33312, Note_on_c, 6, 50, 110
9, 33348, Note_on_c, 6, 50, 0
9, 33360, Note_on_c, 6, 60, 110
9, 33396, Note_on_c, 6, 60, 0
9, 33408, Note_on_c, 6, 50, 110
9, 33444, Note_on_c, 6, 50, 0
9, 33456, Note_on_c, 6, 58, 110
9, 33492, Note_on_c, 6, 58, 0
9, 33504, Note_on_c, 6, 50, 110
9, 33540, Note_on_c, 6, 50, 0
9, 33552, Note_on_c, 6, 58, 110
9, 33588, Note_on_c, 6, 58, 0
9, 33600, Note_on_c, 6, 50, 110
9, 33636, Note_on_c, 6, 50, 0
9, 33648, Note_on_c, 6, 58, 110
9, 33684, Note_on_c, 6, 58, 0
9, 33696, Note_on_c, 6, 50, 110
9, 33732, Note_on_c, 6, 50, 0
9, 33744, Note_on_c, 6, 58, 110
9, 33780, Note_on_c, 6, 58, 0
9, 33792, Note_on_c, 6, 50, 110
9, 33828, Note_on_c, 6, 50, 0
9, 33840, Note_on_c, 6, 58, 110
9, 33876, Note_on_c, 6, 58, 0
9, 33888, Note_on_c, 6, 50, 110
9, 33924, Note_on_c, 6, 50, 0
9, 33936, Note_on_c, 6, 58, 110
9, 33972, Note_on_c, 6, 58, 0
9, 33984, Note_on_c, 6, 50, 110
9, 34020, Note_on_c, 6, 50, 0
9, 34032, Note_on_c, 6, 57, 110
9, 34068, Note_on_c, 6, 57, 0
9, 34080, Note_on_c, 6, 50, 110
9, 34116, Note_on_c, 6, 50, 0
9, 34128, Note_on_c, 6, 57, 110
9, 34164, Note_on_c, 6, 57, 0
9, 34176, Note_on_c, 6, 50, 110
9, 34212, Note_on_c, 6, 50, 0
9, 34224, Note_on_c, 6, 57, 110
9, 34260, Note_on_c, 6, 57, 0
9, 34272, Note_on_c, 6, 50, 110
9, 34308, Note_on_c, 6, 50, 0
9, 34320, Note_on_c, 6, 57, 110
9, 34356, Note_on_c, 6, 57, 0
9, 34368, Note_on_c, 6, 50, 110
9, 34404, Note_on_c, 6, 50, 0
9, 34416, Note_on_c, 6, 57, 110
9, 34452, Note_on_c, 6, 57, 0
9, 34464, Note_on_c, 6, 50, 110
9, 34500, Note_on_c, 6, 50, 0
9, 34512, Note_on_c, 6, 57, 110
9, 34548, Note_on_c, 6, 57, 0
9, 34560, Note_on_c, 6, 43, 110
9, 34632, Note_on_c, 6, 43, 0
9, 34656, Note_on_c, 6, 43, 110
9, 34728, Note_on_c, 6, 43, 0
9, 34752, Note_on_c, 6, 43, 110
9, 34824, Note_on_c, 6, 43, 0
9, 34848, Note_on_c, 6, 43, 110
9, 34920, Note_on_c, 6, 43, 0
9, 34944, Note_on_c, 6, 43, 110
9, 35016, Note_on_c, 6, 43, 0
9, 35040, Note_on_c, 6, 43, 110
9, 35112, Note_on_c, 6, 43, 0
9, 35136, Note_on_c, 6, 43, 110
9, 35208, Note_on_c, 6, 43, 0
9, 35232, Note_on_c, 6, 43, 110
9, 35304, Note_on_c, 6, 43, 0
9, 35328, Note_on_c, 6, 43, 110
9, 35400, Note_on_c, 6, 43, 0
9, 35424, Note_on_c, 6, 43, 110
9, 35496, Note_on_c, 6, 43, 0
9, 35520, Note_on_c, 6, 43, 110
9, 35592, Note_on_c, 6, 43, 0
9, 35616, Note_on_c, 6, 43, 110
9, 35688, Note_on_c, 6, 43, 0
9, 35712, Note_on_c, 6, 43, 110
9, 35784, Note_on_c, 6, 43, 0
9, 35808, Note_on_c, 6, 43, 110
9, 35880, Note_on_c, 6, 43, 0
9, 35904, Note_on_c, 6, 43, 110
9, 35976, Note_on_c, 6, 43, 0
9, 36000, Note_on_c, 6, 43, 110
9, 36072, Note_on_c, 6, 43, 0
9, 36096, Note_on_c, 6, 43, 110
9, 36168, Note_on_c, 6, 43, 0
9, 36192, Note_on_c, 6, 43, 110
9, 36264, Note_on_c, 6, 43, 0
9, 36288, Note_on_c, 6, 43, 110
9, 36324, Note_on_c, 6, 43, 0
9, 36336, Note_on_c, 6, 55, 110
9, 36372, Note_on_c, 6, 55, 0
9, 36384, Note_on_c, 6, 43, 110
9, 36420, Note_on_c, 6, 43, 0
9, 36432, Note_on_c, 6, 55, 110
9, 36468, Note_on_c, 6, 55, 0
9, 36480, Note_on_c, 6, 43, 110
9, 36516, Note_on_c, 6, 43, 0
9, 36528, Note_on_c, 6, 55, 110
9, 36564, Note_on_c, 6, 55, 0
9, 36576, Note_on_c, 6, 43, 110
9, 36612, Note_on_c, 6, 43, 0
9, 36624, Note_on_c, 6, 55, 110
9, 36660, Note_on_c, 6, 55, 0
9, 36672, Note_on_c, 6, 43, 110
9, 36708, Note_on_c, 6, 43, 0
9, 36720, Note_on_c, 6, 55, 110
9, 36756, Note_on_c, 6, 55, 0
9, 36768, Note_on_c, 6, 43, 110
9, 36804, Note_on_c, 6, 43, 0
9, 36816, Note_on_c, 6, 55, 110
9, 36852, Note_on_c, 6, 55, 0
9, 36864, Note_on_c, 6, 48, 110
9, 36900, Note_on_c, 6, 48, 0
9, 36912, Note_on_c, 6, 60, 110
9, 36948, Note_on_c, 6, 60, 0
9, 36960, Note_on_c, 6, 48, 110
9, 36996, Note_on_c, 6, 48, 0
9, 37008, Note_on_c, 6, 60, 110
9, 37044, Note_on_c, 6, 60, 0
9, 37056, Note_on_c, 6, 48, 110
9, 37092, Note_on_c, 6, 48, 0
9, 37104, Note_on_c, 6, 60, 110
9, 37140, Note_on_c, 6, 60, 0
9, 37152, Note_on_c, 6, 48, 110
9, 37188, Note_on_c, 6, 48, 0
9, 37200, Note_on_c, 6, 60, 110
9, 37236, Note_on_c, 6, 60, 0
9, 37248, Note_on_c, 6, 48, 110
9, 37284, Note_on_c, 6, 48, 0
9, 37296, Note_on_c, 6, 60, 110
9, 37332, Note_on_c, 6, 60, 0
9, 37344, Note_on_c, 6, 48, 110
9, 37380, Note_on_c, 6, 48, 0
9, 37392, Note_on_c, 6, 60, 110
9, 37428, Note_on_c, 6, 60, 0
9, 37440, Note_on_c, 6, 45, 110
9, 37476, Note_on_c, 6, 45, 0
9, 37488, Note_on_c, 6, 57, 110
9, 37524, Note_on_c, 6, 57, 0
9, 37536, Note_on_c, 6, 45, 110
9, 37572, Note_on_c, 6, 45, 0
9, 37584, Note_on_c, 6, 57, 110
9, 37620, Note_on_c, 6, 57, 0
9, 37632, Note_on_c, 6, 45, 110
9, 37668, Note_on_c, 6, 45, 0
9, 37680, Note_on_c, 6, 57, 110
9, 37716, Note_on_c, 6, 57, 0
9, 37728, Note_on_c, 6, 45, 110
9, 37764, Note_on_c, 6, 45, 0
9, 37776, Note_on_c, 6, 57, 110
9, 37812, Note_on_c, 6, 57, 0
9, 37824, Note_on_c, 6, 45, 110
9, 37860, Note_on_c, 6, 45, 0
9, 37872, Note_on_c, 6, 57, 110
9, 37908, Note_on_c, 6, 57, 0
9, 37920, Note_on_c, 6, 45, 110
9, 37956, Note_on_c, 6, 45, 0
9, 37968, Note_on_c, 6, 57, 110
9, 38004, Note_on_c, 6, 57, 0
9, 38016, Note_on_c, 6, 50, 110
9, 38052, Note_on_c, 6, 50, 0
9, 38064, Note_on_c, 6, 62, 110
9, 38100, Note_on_c, 6, 62, 0
9, 38112, Note_on_c, 6, 50, 110
9, 38148, Note_on_c, 6, 50, 0
9, 38160, Note_on_c, 6, 62, 110
9, 38196, Note_on_c, 6, 62, 0
9, 38208, Note_on_c, 6, 50, 110
9, 38244, Note_on_c, 6, 50, 0
9, 38256, Note_on_c, 6, 62, 110
9, 38292, Note_on_c, 6, 62, 0
9, 38304, Note_on_c, 6, 50, 110
9, 38340, Note_on_c, 6, 50, 0
9, 38352, Note_on_c, 6, 62, 110
9, 38388, Note_on_c, 6, 62, 0
9, 38400, Note_on_c, 6, 50, 110
9, 38436, Note_on_c, 6, 50, 0
9, 38448, Note_on_c, 6, 62, 110
9, 38484, Note_on_c, 6, 62, 0
9, 38496, Note_on_c, 6, 50, 110
9, 38532, Note_on_c, 6, 50, 0
9, 38544, Note_on_c, 6, 62, 110
9, 38580, Note_on_c, 6, 62, 0
9, 38592, Note_on_c, 6, 45, 110
9, 38628, Note_on_c, 6, 45, 0
9, 38640, Note_on_c, 6, 57, 110
9, 38676, Note_on_c, 6, 57, 0
9, 38688, Note_on_c, 6, 45, 110
9, 38724, Note_on_c, 6, 45, 0
9, 38736, Note_on_c, 6, 57, 110
9, 38772, Note_on_c, 6, 57, 0
9, 38784, Note_on_c, 6, 45, 110
9, 38820, Note_on_c, 6, 45, 0
9, 38832, Note_on_c, 6, 57, 110
9, 38868, Note_on_c, 6, 57, 0
9, 38880, Note_on_c, 6, 45, 110
9, 38916, Note_on_c, 6, 45, 0
9, 38928, Note_on_c, 6, 57, 110
9, 38964, Note_on_c, 6, 57, 0
9, 38976, Note_on_c, 6, 45, 110
9, 39012, Note_on_c, 6, 45, 0
9, 39024, Note_on_c, 6, 57, 110
9, 39060, Note_on_c, 6, 57, 0
9, 39072, Note_on_c, 6, 45, 110
9, 39108, Note_on_c, 6, 45, 0
9, 39120, Note_on_c, 6, 57, 110
9, 39156, Note_on_c, 6, 57, 0
9, 39168, Note_on_c, 6, 45, 110
9, 39204, Note_on_c, 6, 45, 0
9, 39216, Note_on_c, 6, 57, 110
9, 39252, Note_on_c, 6, 57, 0
9, 39264, Note_on_c, 6, 45, 110
9, 39300, Note_on_c, 6, 45, 0
9, 39312, Note_on_c, 6, 57, 110
9, 39348, Note_on_c, 6, 57, 0
9, 39360, Note_on_c, 6, 45, 110
9, 39396, Note_on_c, 6, 45, 0
9, 39408, Note_on_c, 6, 57, 110
9, 39444, Note_on_c, 6, 57, 0
9, 39456, Note_on_c, 6, 45, 110
9, 39492, Note_on_c, 6, 45, 0
9, 39504, Note_on_c, 6, 57, 110
9, 39540, Note_on_c, 6, 57, 0
9, 39552, Note_on_c, 6, 45, 110
9, 39588, Note_on_c, 6, 45, 0
9, 39600, Note_on_c, 6, 57, 110
9, 39636, Note_on_c, 6, 57, 0
9, 39648, Note_on_c, 6, 45, 110
9, 39684, Note_on_c, 6, 45, 0
9, 39696, Note_on_c, 6, 57, 110
9, 39732, Note_on_c, 6, 57, 0
9, 39744, Note_on_c, 6, 50, 110
9, 39936, Note_on_c, 6, 50, 0
9, 49536, Note_on_c, 6, 50, 110
9, 49572, Note_on_c, 6, 50, 0
9, 49584, Note_on_c, 6, 62, 110
9, 49620, Note_on_c, 6, 62, 0
9, 49632, Note_on_c, 6, 60, 110
9, 49668, Note_on_c, 6, 60, 0
9, 49680, Note_on_c, 6, 58, 110
9, 49716, Note_on_c, 6, 58, 0
9, 49728, Note_on_c, 6, 57, 110
9, 49764, Note_on_c, 6, 57, 0
9, 49776, Note_on_c, 6, 55, 110
9, 49812, Note_on_c, 6, 55, 0
9, 49824, Note_on_c, 6, 53, 110
9, 49860, Note_on_c, 6, 53, 0
9, 49872, Note_on_c, 6, 52, 110
9, 49908, Note_on_c, 6, 52, 0
9, 49920, Note_on_c, 6, 50, 110
9, 50016, Note_on_c, 6, 50, 0
9, 50112, Note_on_c, 6, 43, 110
9, 50148, Note_on_c, 6, 43, 0
9, 50160, Note_on_c, 6, 55, 110
9, 50196, Note_on_c, 6, 55, 0
9, 50208, Note_on_c, 6, 53, 110
9, 50244, Note_on_c, 6, 53, 0
9, 50256, Note_on_c, 6, 51, 110
9, 50292, Note_on_c, 6, 51, 0
9, 50304, Note_on_c, 6, 50, 110
9, 50340, Note_on_c, 6, 50, 0
9, 50352, Note_on_c, 6, 48, 110
9, 50388, Note_on_c, 6, 48, 0
9, 50400, Note_on_c, 6, 46, 110
9, 50436, Note_on_c, 6, 46, 0
9, 50448, Note_on_c, 6, 45, 110
9, 50484, Note_on_c, 6, 45, 0
9, 50496, Note_on_c, 6, 43, 110
9, 50592, Note_on_c, 6, 43, 0
9, 50688, Note_on_c, 6, 48, 110
9, 50724, Note_on_c, 6, 48, 0
9, 50736, Note_on_c, 6, 60, 110
9, 50772, Note_on_c, 6, 60, 0
9, 50784, Note_on_c, 6, 58, 110
9, 50820, Note_on_c, 6, 58, 0
9, 50832, Note_on_c, 6, 57, 110
9, 50868, Note_on_c, 6, 57, 0
9, 50880, Note_on_c, 6, 55, 110
9, 50916, Note_on_c, 6, 55, 0
9, 50928, Note_on_c, 6, 53, 110
9, 50964, Note_on_c, 6, 53, 0
9, 50976, Note_on_c, 6, 52, 110
9, 51012, Note_on_c, 6, 52, 0
9, 51024, Note_on_c, 6, 50, 110
9, 51060, Note_on_c, 6, 50, 0
9, 51072, Note_on_c, 6, 48, 110
9, 51168, Note_on_c, 6, 48, 0
9, 51264, Note_on_c, 6, 41, 110
9, 51300, Note_on_c, 6, 41, 0
9, 51312, Note_on_c, 6, 53, 110
9, 51348, Note_on_c, 6, 53, 0
9, 51360, Note_on_c, 6, 52, 110
9, 51396, Note_on_c, 6, 52, 0
9, 51408, Note_on_c, 6, 50, 110
9, 51444, Note_on_c, 6, 50, 0
9, 51456, Note_on_c, 6, 48, 110
9, 51492, Note_on_c, 6, 48, 0
9, 51504, Note_on_c, 6, 46, 110
9, 51540, Note_on_c, 6, 46, 0
9, 51552, Note_on_c, 6, 45, 110
9, 51588, Note_on_c, 6, 45, 0
9, 51600, Note_on_c, 6, 43, 110
9, 51636, Note_on_c, 6, 43, 0
9, 51648, Note_on_c, 6, 41, 110
9, 51744, Note_on_c, 6, 41, 0
9, 51840, Note_on_c, 6, 46, 110
9, 51876, Note_on_c, 6, 46, 0
9, 51888, Note_on_c, 6, 58, 110
9, 51924, Note_on_c, 6, 58, 0
9, 51936, Note_on_c, 6, 57, 110
9, 51972, Note_on_c, 6, 57, 0
9, 51984, Note_on_c, 6, 55, 110
9, 52020, Note_on_c, 6, 55, 0
9, 52032, Note_on_c, 6, 53, 110
9, 52032, Note_on_c, 6, 55, 110
9, 52068, Note_on_c, 6, 55, 0
9, 52068, Note_on_c, 6, 53, 0
9, 52080, Note_on_c, 6, 51, 110
9, 52116, Note_on_c, 6, 51, 0
9, 52128, Note_on_c, 6, 50, 110
9, 52164, Note_on_c, 6, 50, 0
9, 52176, Note_on_c, 6, 48, 110
9, 52212, Note_on_c, 6, 48, 0
9, 52224, Note_on_c, 6, 46, 110
9, 52320, Note_on_c, 6, 46, 0
9, 52416, Note_on_c, 6, 39, 110
9, 52452, Note_on_c, 6, 39, 0
9, 52464, Note_on_c, 6, 51, 110
9, 52500, Note_on_c, 6, 51, 0
9, 52512, Note_on_c, 6, 50, 110
9, 52548, Note_on_c, 6, 50, 0
9, 52560, Note_on_c, 6, 48, 110
9, 52596, Note_on_c, 6, 48, 0
9, 52608, Note_on_c, 6, 46, 110
9, 52644, Note_on_c, 6, 46, 0
9, 52656, Note_on_c, 6, 45, 110
9, 52692, Note_on_c, 6, 45, 0
9, 52704, Note_on_c, 6, 43, 110
9, 52740, Note_on_c, 6, 43, 0
9, 52752, Note_on_c, 6, 41, 110
9, 52788, Note_on_c, 6, 41, 0
9, 52800, Note_on_c, 6, 39, 110
9, 52896, Note_on_c, 6, 39, 0
9, 52992, Note_on_c, 6, 44, 110
9, 53028, Note_on_c, 6, 44, 0
9, 53040, Note_on_c, 6, 56, 110
9, 53076, Note_on_c, 6, 56, 0
9, 53088, Note_on_c, 6, 55, 110
9, 53124, Note_on_c, 6, 55, 0
9, 53136, Note_on_c, 6, 53, 110
9, 53172, Note_on_c, 6, 53, 0
9, 53184, Note_on_c, 6, 51, 110
9, 53220, Note_on_c, 6, 51, 0
9, 53232, Note_on_c, 6, 50, 110
9, 53268, Note_on_c, 6, 50, 0
9, 53280, Note_on_c, 6, 48, 110
9, 53316, Note_on_c, 6, 48, 0
9, 53328, Note_on_c, 6, 46, 110
9, 53364, Note_on_c, 6, 46, 0
9, 53376, Note_on_c, 6, 44, 110
9, 53472, Note_on_c, 6, 44, 0
9, 53568, Note_on_c, 6, 47, 110
9, 53604, Note_on_c, 6, 47, 0
9, 53616, Note_on_c, 6, 59, 110
9, 53652, Note_on_c, 6, 59, 0
9, 53664, Note_on_c, 6, 57, 110
9, 53700, Note_on_c, 6, 57, 0
9, 53712, Note_on_c, 6, 55, 110
9, 53748, Note_on_c, 6, 55, 0
9, 53760, Note_on_c, 6, 53, 110
9, 53796, Note_on_c, 6, 53, 0
9, 53808, Note_on_c, 6, 51, 110
9, 53844, Note_on_c, 6, 51, 0
9, 53856, Note_on_c, 6, 50, 110
9, 53892, Note_on_c, 6, 50, 0
9, 53904, Note_on_c, 6, 48, 110
9, 53940, Note_on_c, 6, 48, 0
9, 53952, Note_on_c, 6, 47, 110
9, 54048, Note_on_c, 6, 47, 0
9, 54144, Note_on_c, 6, 43, 110
9, 54180, Note_on_c, 6, 43, 0
9, 54192, Note_on_c, 6, 55, 110
9, 54228, Note_on_c, 6, 55, 0
9, 54240, Note_on_c, 6, 53, 110
9, 54276, Note_on_c, 6, 53, 0
9, 54288, Note_on_c, 6, 51, 110
9, 54324, Note_on_c, 6, 51, 0
9, 54336, Note_on_c, 6, 50, 110
9, 54372, Note_on_c, 6, 50, 0
9, 54384, Note_on_c, 6, 48, 110
9, 54420, Note_on_c, 6, 48, 0
9, 54432, Note_on_c, 6, 47, 110
9, 54468, Note_on_c, 6, 47, 0
9, 54480, Note_on_c, 6, 44, 110
9, 54516, Note_on_c, 6, 44, 0
9, 54528, Note_on_c, 6, 43, 110
9, 54624, Note_on_c, 6, 43, 0
9, 54720, Note_on_c, 6, 48, 110
9, 54756, Note_on_c, 6, 48, 0
9, 54768, Note_on_c, 6, 60, 110
9, 54804, Note_on_c, 6, 60, 0
9, 54816, Note_on_c, 6, 58, 110
9, 54852, Note_on_c, 6, 58, 0
9, 54864, Note_on_c, 6, 56, 110
9, 54900, Note_on_c, 6, 56, 0
9, 54912, Note_on_c, 6, 55, 110
9, 54948, Note_on_c, 6, 55, 0
9, 54960, Note_on_c, 6, 53, 110
9, 54996, Note_on_c, 6, 53, 0
9, 55008, Note_on_c, 6, 51, 110
9, 55044, Note_on_c, 6, 51, 0
9, 55056, Note_on_c, 6, 50, 110
9, 55092, Note_on_c, 6, 50, 0
9, 55104, Note_on_c, 6, 48, 110
9, 55200, Note_on_c, 6, 48, 0
9, 55344, Note_on_c, 6, 60, 110
9, 55380, Note_on_c, 6, 60, 0
9, 55392, Note_on_c, 6, 58, 110
9, 55428, Note_on_c, 6, 58, 0
9, 55440, Note_on_c, 6, 56, 110
9, 55476, Note_on_c, 6, 56, 0
9, 55488, Note_on_c, 6, 55, 110
9, 55524, Note_on_c, 6, 55, 0
9, 55536, Note_on_c, 6, 53, 110
9, 55572, Note_on_c, 6, 53, 0
9, 55584, Note_on_c, 6, 51, 110
9, 55620, Note_on_c, 6, 51, 0
9, 55632, Note_on_c, 6, 50, 110
9, 55668, Note_on_c, 6, 50, 0
9, 55680, Note_on_c, 6, 48, 110
9, 55776, Note_on_c, 6, 48, 0
9, 55920, Note_on_c, 6, 60, 110
9, 55956, Note_on_c, 6, 60, 0
9, 55968, Note_on_c, 6, 58, 110
9, 56004, Note_on_c, 6, 58, 0
9, 56016, Note_on_c, 6, 56, 110
9, 56052, Note_on_c, 6, 56, 0
9, 56064, Note_on_c, 6, 55, 110
9, 56100, Note_on_c, 6, 55, 0
9, 56112, Note_on_c, 6, 53, 110
9, 56148, Note_on_c, 6, 53, 0
9, 56160, Note_on_c, 6, 51, 110
9, 56196, Note_on_c, 6, 51, 0
9, 56208, Note_on_c, 6, 50, 110
9, 56244, Note_on_c, 6, 50, 0
9, 56256, Note_on_c, 6, 48, 110
9, 56352, Note_on_c, 6, 48, 0
9, 56448, Note_on_c, 6, 51, 110
9, 56520, Note_on_c, 6, 51, 0
9, 56544, Note_on_c, 6, 51, 110
9, 56616, Note_on_c, 6, 51, 0
9, 56640, Note_on_c, 6, 51, 110
9, 56712, Note_on_c, 6, 51, 0
9, 56736, Note_on_c, 6, 51, 110
9, 56808, Note_on_c, 6, 51, 0
9, 56832, Note_on_c, 6, 51, 110
9, 56904, Note_on_c, 6, 51, 0
9, 56928, Note_on_c, 6, 51, 110
9, 57000, Note_on_c, 6, 51, 0
9, 57024, Note_on_c, 6, 53, 110
9, 57096, Note_on_c, 6, 53, 0
9, 57120, Note_on_c, 6, 53, 110
9, 57192, Note_on_c, 6, 53, 0
9, 57216, Note_on_c, 6, 53, 110
9, 57288, Note_on_c, 6, 53, 0
9, 57312, Note_on_c, 6, 53, 110
9, 57384, Note_on_c, 6, 53, 0
9, 57408, Note_on_c, 6, 53, 110
9, 57480, Note_on_c, 6, 53, 0
9, 57504, Note_on_c, 6, 53, 110
9, 57576, Note_on_c, 6, 53, 0
9, 57600, Note_on_c, 6, 55, 110
9, 57672, Note_on_c, 6, 55, 0
9, 57696, Note_on_c, 6, 55, 110
9, 57768, Note_on_c, 6, 55, 0
9, 57792, Note_on_c, 6, 55, 110
9, 57864, Note_on_c, 6, 55, 0
9, 57888, Note_on_c, 6, 55, 110
9, 57960, Note_on_c, 6, 55, 0
9, 57984, Note_on_c, 6, 43, 110
9, 58056, Note_on_c, 6, 43, 0
9, 58080, Note_on_c, 6, 43, 110
9, 58152, Note_on_c, 6, 43, 0
9, 58176, Note_on_c, 6, 60, 110
9, 58212, Note_on_c, 6, 60, 0
9, 60480, Note_on_c, 6, 48, 110
9, 60552, Note_on_c, 6, 48, 0
9, 60576, Note_on_c, 6, 60, 110
9, 60612, Note_on_c, 6, 60, 0
9, 60624, Note_on_c, 6, 59, 110
9, 60660, Note_on_c, 6, 59, 0
9, 60672, Note_on_c, 6, 60, 110
9, 60744, Note_on_c, 6, 60, 0
9, 60768, Note_on_c, 6, 48, 110
9, 60840, Note_on_c, 6, 48, 0
9, 60864, Note_on_c, 6, 48, 110
9, 60936, Note_on_c, 6, 48, 0
9, 60960, Note_on_c, 6, 60, 110
9, 61032, Note_on_c, 6, 60, 0
9, 61056, Note_on_c, 6, 43, 110
9, 61248, Note_on_c, 6, 43, 0
9, 61632, Note_on_c, 6, 48, 110
9, 61704, Note_on_c, 6, 48, 0
9, 61728, Note_on_c, 6, 60, 110
9, 61764, Note_on_c, 6, 60, 0
9, 61776, Note_on_c, 6, 59, 110
9, 61812, Note_on_c, 6, 59, 0
9, 61824, Note_on_c, 6, 60, 110
9, 61896, Note_on_c, 6, 60, 0
9, 61920, Note_on_c, 6, 48, 110
9, 61992, Note_on_c, 6, 48, 0
9, 62016, Note_on_c, 6, 48, 110
9, 62088, Note_on_c, 6, 48, 0
9, 62112, Note_on_c, 6, 60, 110
9, 62184, Note_on_c, 6, 60, 0
9, 62208, Note_on_c, 6, 46, 110
9, 62400, Note_on_c, 6, 46, 0
9, 62784, Note_on_c, 6, 39, 110
9, 62856, Note_on_c, 6, 39, 0
9, 62880, Note_on_c, 6, 51, 110
9, 62916, Note_on_c, 6, 51, 0
9, 62928, Note_on_c, 6, 50, 110
9, 62964, Note_on_c, 6, 50, 0
9, 62976, Note_on_c, 6, 51, 110
9, 63048, Note_on_c, 6, 51, 0
9, 63072, Note_on_c, 6, 39, 110
9, 63144, Note_on_c, 6, 39, 0
9, 63168, Note_on_c, 6, 39, 110
9, 63240, Note_on_c, 6, 39, 0
9, 63264, Note_on_c, 6, 51, 110
9, 63336, Note_on_c, 6, 51, 0
9, 63360, Note_on_c, 6, 43, 110
9, 63552, Note_on_c, 6, 43, 0
9, 63936, Note_on_c, 6, 43, 110
9, 64008, Note_on_c, 6, 43, 0
9, 64032, Note_on_c, 6, 55, 110
9, 64068, Note_on_c, 6, 55, 0
9, 64080, Note_on_c, 6, 53, 110
9, 64116, Note_on_c, 6, 53, 0
9, 64128, Note_on_c, 6, 55, 110
9, 64200, Note_on_c, 6, 55, 0
9, 64224, Note_on_c, 6, 43, 110
9, 64296, Note_on_c, 6, 43, 0
9, 64320, Note_on_c, 6, 43, 110
9, 64392, Note_on_c, 6, 43, 0
9, 64416, Note_on_c, 6, 55, 110
9, 64488, Note_on_c, 6, 55, 0
9, 64512, Note_on_c, 6, 44, 110
9, 64704, Note_on_c, 6, 44, 0
9, 65088, Note_on_c, 6, 45, 110
9, 65160, Note_on_c, 6, 45, 0
9, 65184, Note_on_c, 6, 57, 110
9, 65220, Note_on_c, 6, 57, 0
9, 65232, Note_on_c, 6, 55, 110
9, 65268, Note_on_c, 6, 55, 0
9, 65280, Note_on_c, 6, 57, 110
9, 65352, Note_on_c, 6, 57, 0
9, 65376, Note_on_c, 6, 45, 110
9, 65448, Note_on_c, 6, 45, 0
9, 65472, Note_on_c, 6, 45, 110
9, 65544, Note_on_c, 6, 45, 0
9, 65568, Note_on_c, 6, 57, 110
9, 65640, Note_on_c, 6, 57, 0
9, 65664, Note_on_c, 6, 46, 110
9, 65856, Note_on_c, 6, 46, 0
9, 66240, Note_on_c, 6, 47, 110
9, 66312, Note_on_c, 6, 47, 0
9, 66336, Note_on_c, 6, 59, 110
9, 66372, Note_on_c, 6, 59, 0
9, 66384, Note_on_c, 6, 57, 110
9, 66420, Note_on_c, 6, 57, 0
9, 66432, Note_on_c, 6, 59, 110
9, 66504, Note_on_c, 6, 59, 0
9, 66528, Note_on_c, 6, 47, 110
9, 66600, Note_on_c, 6, 47, 0
9, 66624, Note_on_c, 6, 47, 110
9, 66696, Note_on_c, 6, 47, 0
9, 66720, Note_on_c, 6, 59, 110
9, 66792, Note_on_c, 6, 59, 0
9, 86976, Note_on_c, 6, 50, 110
9, 87012, Note_on_c, 6, 50, 0
9, 87024, Note_on_c, 6, 62, 110
9, 87060, Note_on_c, 6, 62, 0
9, 87072, Note_on_c, 6, 60, 110
9, 87108, Note_on_c, 6, 60, 0
9, 87120, Note_on_c, 6, 58, 110
9, 87156, Note_on_c, 6, 58, 0
9, 87168, Note_on_c, 6, 57, 110
9, 87204, Note_on_c, 6, 57, 0
9, 87216, Note_on_c, 6, 58, 110
9, 87252, Note_on_c, 6, 58, 0
9, 87264, Note_on_c, 6, 57, 110
9, 87300, Note_on_c, 6, 57, 0
9, 87312, Note_on_c, 6, 55, 110
9, 87348, Note_on_c, 6, 55, 0
9, 87360, Note_on_c, 6, 54, 110
9, 87396, Note_on_c, 6, 54, 0
9, 87408, Note_on_c, 6, 52, 110
9, 87444, Note_on_c, 6, 52, 0
9, 87456, Note_on_c, 6, 50, 110
9, 87492, Note_on_c, 6, 50, 0
9, 87504, Note_on_c, 6, 48, 110
9, 87540, Note_on_c, 6, 48, 0
9, 87552, Note_on_c, 6, 46, 110
9, 87588, Note_on_c, 6, 46, 0
9, 87744, Note_on_c, 6, 46, 110
9, 87780, Note_on_c, 6, 46, 0
9, 87936, Note_on_c, 6, 46, 110
9, 87972, Note_on_c, 6, 46, 0
9, 88128, Note_on_c, 6, 48, 110
9, 88164, Note_on_c, 6, 48, 0
9, 88320, Note_on_c, 6, 48, 110
9, 88356, Note_on_c, 6, 48, 0
9, 88512, Note_on_c, 6, 48, 110
9, 88548, Note_on_c, 6, 48, 0
9, 88704, Note_on_c, 6, 50, 110
9, 88740, Note_on_c, 6, 50, 0
9, 88896, Note_on_c, 6, 50, 110
9, 88932, Note_on_c, 6, 50, 0
9, 89088, Note_on_c, 6, 50, 110
9, 89124, Note_on_c, 6, 50, 0
9, 89280, Note_on_c, 6, 43, 110
9, 89316, Note_on_c, 6, 43, 0
9, 89472, Note_on_c, 6, 46, 110
9, 89508, Note_on_c, 6, 46, 0
9, 89664, Note_on_c, 6, 46, 110
9, 89700, Note_on_c, 6, 46, 0
9, 89856, Note_on_c, 6, 48, 110
9, 89892, Note_on_c, 6, 48, 0
9, 90048, Note_on_c, 6, 48, 110
9, 90084, Note_on_c, 6, 48, 0
9, 90240, Note_on_c, 6, 48, 110
9, 90276, Note_on_c, 6, 48, 0
9, 90432, Note_on_c, 6, 50, 110
9, 90468, Note_on_c, 6, 50, 0
9, 90624, Note_on_c, 6, 50, 110
9, 90660, Note_on_c, 6, 50, 0
9, 90816, Note_on_c, 6, 50, 110
9, 90852, Note_on_c, 6, 50, 0
9, 91008, Note_on_c, 6, 43, 110
9, 91044, Note_on_c, 6, 43, 0
9, 91104, Note_on_c, 6, 43, 110
9, 91140, Note_on_c, 6, 43, 0
9, 91200, Note_on_c, 6, 43, 110
9, 91236, Note_on_c, 6, 43, 0
9, 91296, Note_on_c, 6, 43, 110
9, 91332, Note_on_c, 6, 43, 0
9, 91392, Note_on_c, 6, 43, 110
9, 91428, Note_on_c, 6, 43, 0
9, 91488, Note_on_c, 6, 43, 110
9, 91524, Note_on_c, 6, 43, 0
9, 91584, Note_on_c, 6, 43, 110
9, 91620, Note_on_c, 6, 43, 0
9, 91680, Note_on_c, 6, 43, 110
9, 91716, Note_on_c, 6, 43, 0
9, 91776, Note_on_c, 6, 43, 110
9, 91812, Note_on_c, 6, 43, 0
9, 91872, Note_on_c, 6, 43, 110
9, 91908, Note_on_c, 6, 43, 0
9, 91968, Note_on_c, 6, 43, 110
9, 92004, Note_on_c, 6, 43, 0
9, 92064, Note_on_c, 6, 43, 110
9, 92100, Note_on_c, 6, 43, 0
9, 92160, Note_on_c, 6, 43, 110
9, 92196, Note_on_c, 6, 43, 0
9, 92256, Note_on_c, 6, 43, 110
9, 92292, Note_on_c, 6, 43, 0
9, 92352, Note_on_c, 6, 43, 110
9, 92388, Note_on_c, 6, 43, 0
9, 92448, Note_on_c, 6, 43, 110
9, 92484, Note_on_c, 6, 43, 0
9, 92544, Note_on_c, 6, 43, 110
9, 92580, Note_on_c, 6, 43, 0
9, 92640, Note_on_c, 6, 43, 110
9, 92676, Note_on_c, 6, 43, 0
9, 92928, Note_on_c, 6, 43, 110
9, 93312, Note_on_c, 6, 43, 0
9, 93312, End_track
10, 0, Start_track
10, 0, MIDI_port, 0
10, 0, Title_t, "V2 Bite             "
10, 0, Program_c, 7, 40
10, 0, Control_c, 7, 7, 60
10, 0, Control_c, 7, 10, 44
10, 1920, Note_on_c, 7, 55, 127
10, 1920, Control_c, 7, 7, 127
10, 2016, Note_on_c, 7, 55, 0
10, 2016, Note_on_c, 7, 55, 127
10, 2064, Note_on_c, 7, 55, 0
10, 2064, Note_on_c, 7, 55, 127
10, 2112, Note_on_c, 7, 55, 0
10, 2112, Note_on_c, 7, 55, 127
10, 2160, Note_on_c, 7, 55, 0
10, 2160, Note_on_c, 7, 55, 127
10, 2208, Note_on_c, 7, 55, 0
10, 2208, Note_on_c, 7, 55, 127
10, 2256, Note_on_c, 7, 55, 0
10, 2256, Note_on_c, 7, 55, 127
10, 2304, Note_on_c, 7, 55, 0
10, 2304, Note_on_c, 7, 55, 127
10, 2352, Note_on_c, 7, 55, 0
10, 2352, Note_on_c, 7, 55, 127
10, 2400, Note_on_c, 7, 55, 0
10, 2400, Note_on_c, 7, 55, 127
10, 2448, Note_on_c, 7, 55, 0
10, 2448, Note_on_c, 7, 55, 127
10, 2496, Note_on_c, 7, 55, 0
10, 2496, Note_on_c, 7, 55, 127
10, 2544, Note_on_c, 7, 55, 0
10, 2544, Note_on_c, 7, 55, 127
10, 2592, Note_on_c, 7, 55, 0
10, 2592, Note_on_c, 7, 55, 127
10, 2640, Note_on_c, 7, 55, 0
10, 2640, Note_on_c, 7, 55, 127
10, 2688, Note_on_c, 7, 55, 0
10, 2688, Note_on_c, 7, 55, 127
10, 2880, Note_on_c, 7, 55, 0
10, 5376, Note_on_c, 7, 58, 127
10, 5376, Control_c, 7, 7, 50
10, 5448, Note_on_c, 7, 58, 0
10, 5448, Note_on_c, 7, 58, 127
10, 5472, Note_on_c, 7, 58, 0
10, 5472, Note_on_c, 7, 58, 127
10, 5544, Note_on_c, 7, 58, 0
10, 5544, Note_on_c, 7, 58, 127
10, 5568, Note_on_c, 7, 58, 0
10, 5568, Note_on_c, 7, 57, 127
10, 5664, Note_on_c, 7, 57, 0
10, 5760, Control_c, 7, 7, 127
10, 5760, Note_on_c, 7, 58, 127
10, 5856, Note_on_c, 7, 58, 0
10, 5856, Note_on_c, 7, 58, 127
10, 5904, Note_on_c, 7, 58, 0
10, 5904, Note_on_c, 7, 58, 127
10, 5952, Note_on_c, 7, 58, 0
10, 5952, Note_on_c, 7, 58, 127
10, 6000, Note_on_c, 7, 58, 0
10, 6000, Note_on_c, 7, 58, 127
10, 6048, Note_on_c, 7, 58, 0
10, 6048, Note_on_c, 7, 58, 127
10, 6096, Note_on_c, 7, 58, 0
10, 6096, Note_on_c, 7, 58, 127
10, 6144, Note_on_c, 7, 58, 0
10, 6144, Note_on_c, 7, 58, 127
10, 6192, Note_on_c, 7, 58, 0
10, 6192, Note_on_c, 7, 58, 127
10, 6240, Note_on_c, 7, 58, 0
10, 6240, Note_on_c, 7, 58, 127
10, 6288, Note_on_c, 7, 58, 0
10, 6288, Note_on_c, 7, 58, 127
10, 6336, Note_on_c, 7, 58, 0
10, 6336, Note_on_c, 7, 58, 127
10, 6384, Note_on_c, 7, 58, 0
10, 6384, Note_on_c, 7, 58, 127
10, 6432, Note_on_c, 7, 58, 0
10, 6432, Note_on_c, 7, 58, 127
10, 6480, Note_on_c, 7, 58, 0
10, 6480, Note_on_c, 7, 58, 127
10, 6528, Note_on_c, 7, 58, 0
10, 6528, Note_on_c, 7, 58, 127
10, 6720, Note_on_c, 7, 58, 0
10, 11520, Control_c, 7, 7, 127
10, 11520, Note_on_c, 7, 55, 127
10, 11616, Note_on_c, 7, 55, 0
10, 11616, Note_on_c, 7, 55, 127
10, 11648, Note_on_c, 7, 55, 0
10, 11664, Note_on_c, 7, 55, 127
10, 11696, Note_on_c, 7, 55, 0
10, 11712, Note_on_c, 7, 55, 127
10, 11744, Note_on_c, 7, 55, 0
10, 11760, Note_on_c, 7, 55, 127
10, 11792, Note_on_c, 7, 55, 0
10, 11808, Note_on_c, 7, 55, 127
10, 11840, Note_on_c, 7, 55, 0
10, 11856, Note_on_c, 7, 55, 127
10, 11888, Note_on_c, 7, 55, 0
10, 11904, Note_on_c, 7, 55, 127
10, 11936, Note_on_c, 7, 55, 0
10, 11952, Note_on_c, 7, 55, 127
10, 11984, Note_on_c, 7, 55, 0
10, 12000, Note_on_c, 7, 55, 127
10, 12032, Note_on_c, 7, 55, 0
10, 12048, Note_on_c, 7, 55, 127
10, 12080, Note_on_c, 7, 55, 0
10, 12096, Note_on_c, 7, 55, 127
10, 12128, Note_on_c, 7, 55, 0
10, 12144, Note_on_c, 7, 55, 127
10, 12176, Note_on_c, 7, 55, 0
10, 12192, Note_on_c, 7, 55, 127
10, 12224, Note_on_c, 7, 55, 0
10, 12240, Note_on_c, 7, 55, 127
10, 12272, Note_on_c, 7, 55, 0
10, 12288, Note_on_c, 7, 55, 127
10, 12480, Note_on_c, 7, 55, 0
10, 14592, Control_c, 7, 7, 127
10, 14592, Note_on_c, 7, 55, 127
10, 14688, Note_on_c, 7, 55, 0
10, 14688, Note_on_c, 7, 55, 127
10, 14720, Note_on_c, 7, 55, 0
10, 14736, Note_on_c, 7, 55, 127
10, 14768, Note_on_c, 7, 55, 0
10, 14784, Note_on_c, 7, 55, 127
10, 14816, Note_on_c, 7, 55, 0
10, 14832, Note_on_c, 7, 55, 127
10, 14864, Note_on_c, 7, 55, 0
10, 14880, Note_on_c, 7, 55, 127
10, 14912, Note_on_c, 7, 55, 0
10, 14928, Note_on_c, 7, 55, 127
10, 14960, Note_on_c, 7, 55, 0
10, 14976, Note_on_c, 7, 55, 127
10, 15008, Note_on_c, 7, 55, 0
10, 15024, Note_on_c, 7, 55, 127
10, 15056, Note_on_c, 7, 55, 0
10, 15072, Note_on_c, 7, 55, 127
10, 15104, Note_on_c, 7, 55, 0
10, 15120, Note_on_c, 7, 55, 127
10, 15152, Note_on_c, 7, 55, 0
10, 15168, Note_on_c, 7, 55, 127
10, 15200, Note_on_c, 7, 55, 0
10, 15216, Note_on_c, 7, 55, 127
10, 15248, Note_on_c, 7, 55, 0
10, 15264, Note_on_c, 7, 55, 127
10, 15296, Note_on_c, 7, 55, 0
10, 15312, Note_on_c, 7, 55, 127
10, 15344, Note_on_c, 7, 55, 0
10, 15360, Note_on_c, 7, 55, 127
10, 15552, Note_on_c, 7, 55, 0
10, 15720, Control_c, 7, 7, 60
10, 17688, Control_c, 7, 7, 100
10, 18432, Note_on_c, 7, 67, 127
10, 18468, Note_on_c, 7, 67, 0
10, 18480, Note_on_c, 7, 55, 127
10, 18516, Note_on_c, 7, 55, 0
10, 18528, Note_on_c, 7, 55, 127
10, 18564, Note_on_c, 7, 55, 0
10, 18576, Note_on_c, 7, 55, 127
10, 18612, Note_on_c, 7, 55, 0
10, 18624, Note_on_c, 7, 55, 127
10, 18660, Note_on_c, 7, 55, 0
10, 18672, Note_on_c, 7, 55, 127
10, 18708, Note_on_c, 7, 55, 0
10, 18720, Note_on_c, 7, 55, 127
10, 18756, Note_on_c, 7, 55, 0
10, 18768, Note_on_c, 7, 55, 127
10, 18804, Note_on_c, 7, 55, 0
10, 18816, Note_on_c, 7, 55, 127
10, 18852, Note_on_c, 7, 55, 0
10, 18864, Note_on_c, 7, 55, 127
10, 18900, Note_on_c, 7, 55, 0
10, 18912, Note_on_c, 7, 55, 127
10, 18948, Note_on_c, 7, 55, 0
10, 18960, Note_on_c, 7, 55, 127
10, 18996, Note_on_c, 7, 55, 0
10, 19008, Note_on_c, 7, 65, 127
10, 19044, Note_on_c, 7, 65, 0
10, 19056, Note_on_c, 7, 55, 127
10, 19092, Note_on_c, 7, 55, 0
10, 19104, Note_on_c, 7, 55, 127
10, 19140, Note_on_c, 7, 55, 0
10, 19152, Note_on_c, 7, 55, 127
10, 19188, Note_on_c, 7, 55, 0
10, 19200, Note_on_c, 7, 55, 127
10, 19236, Note_on_c, 7, 55, 0
10, 19248, Note_on_c, 7, 55, 127
10, 19284, Note_on_c, 7, 55, 0
10, 19296, Note_on_c, 7, 55, 127
10, 19332, Note_on_c, 7, 55, 0
10, 19344, Note_on_c, 7, 55, 127
10, 19380, Note_on_c, 7, 55, 0
10, 19392, Note_on_c, 7, 55, 127
10, 19428, Note_on_c, 7, 55, 0
10, 19440, Note_on_c, 7, 55, 127
10, 19476, Note_on_c, 7, 55, 0
10, 19488, Note_on_c, 7, 55, 127
10, 19524, Note_on_c, 7, 55, 0
10, 19536, Note_on_c, 7, 55, 127
10, 19572, Note_on_c, 7, 55, 0
10, 19584, Note_on_c, 7, 63, 127
10, 19620, Note_on_c, 7, 63, 0
10, 19632, Note_on_c, 7, 55, 127
10, 19668, Note_on_c, 7, 55, 0
10, 19680, Note_on_c, 7, 55, 127
10, 19716, Note_on_c, 7, 55, 0
10, 19728, Note_on_c, 7, 55, 127
10, 19764, Note_on_c, 7, 55, 0
10, 19776, Note_on_c, 7, 55, 127
10, 19812, Note_on_c, 7, 55, 0
10, 19824, Note_on_c, 7, 55, 127
10, 19860, Note_on_c, 7, 55, 0
10, 19872, Note_on_c, 7, 55, 127
10, 19908, Note_on_c, 7, 55, 0
10, 19920, Note_on_c, 7, 55, 127
10, 19956, Note_on_c, 7, 55, 0
10, 19968, Note_on_c, 7, 55, 127
10, 20004, Note_on_c, 7, 55, 0
10, 20016, Note_on_c, 7, 55, 127
10, 20052, Note_on_c, 7, 55, 0
10, 20064, Note_on_c, 7, 55, 127
10, 20100, Note_on_c, 7, 55, 0
10, 20112, Note_on_c, 7, 55, 127
10, 20148, Note_on_c, 7, 55, 0
10, 20160, Note_on_c, 7, 62, 127
10, 20196, Note_on_c, 7, 62, 0
10, 20208, Note_on_c, 7, 55, 127
10, 20244, Note_on_c, 7, 55, 0
10, 20256, Note_on_c, 7, 55, 127
10, 20292, Note_on_c, 7, 55, 0
10, 20304, Note_on_c, 7, 55, 127
10, 20340, Note_on_c, 7, 55, 0
10, 20352, Note_on_c, 7, 55, 127
10, 20388, Note_on_c, 7, 55, 0
10, 20400, Note_on_c, 7, 55, 127
10, 20436, Note_on_c, 7, 55, 0
10, 20448, Note_on_c, 7, 55, 127
10, 20484, Note_on_c, 7, 55, 0
10, 20496, Note_on_c, 7, 55, 127
10, 20532, Note_on_c, 7, 55, 0
10, 20544, Note_on_c, 7, 55, 127
10, 20580, Note_on_c, 7, 55, 0
10, 21312, Note_on_c, 7, 74, 127
10, 21348, Note_on_c, 7, 74, 0
10, 21360, Note_on_c, 7, 62, 127
10, 21396, Note_on_c, 7, 62, 0
10, 21408, Note_on_c, 7, 62, 127
10, 21444, Note_on_c, 7, 62, 0
10, 21456, Note_on_c, 7, 62, 127
10, 21492, Note_on_c, 7, 62, 0
10, 21504, Note_on_c, 7, 62, 127
10, 21540, Note_on_c, 7, 62, 0
10, 21552, Note_on_c, 7, 62, 127
10, 21588, Note_on_c, 7, 62, 0
10, 21600, Note_on_c, 7, 62, 127
10, 21636, Note_on_c, 7, 62, 0
10, 21648, Note_on_c, 7, 62, 127
10, 21684, Note_on_c, 7, 62, 0
10, 21696, Note_on_c, 7, 62, 127
10, 21732, Note_on_c, 7, 62, 0
10, 21744, Note_on_c, 7, 62, 127
10, 21780, Note_on_c, 7, 62, 0
10, 21792, Note_on_c, 7, 62, 127
10, 21828, Note_on_c, 7, 62, 0
10, 21840, Note_on_c, 7, 62, 127
10, 21876, Note_on_c, 7, 62, 0
10, 21888, Note_on_c, 7, 72, 127
10, 21924, Note_on_c, 7, 72, 0
10, 21936, Note_on_c, 7, 62, 127
10, 21972, Note_on_c, 7, 62, 0
10, 21984, Note_on_c, 7, 62, 127
10, 22020, Note_on_c, 7, 62, 0
10, 22032, Note_on_c, 7, 62, 127
10, 22068, Note_on_c, 7, 62, 0
10, 22080, Note_on_c, 7, 62, 127
10, 22116, Note_on_c, 7, 62, 0
10, 22128, Note_on_c, 7, 62, 127
10, 22164, Note_on_c, 7, 62, 0
10, 22176, Note_on_c, 7, 62, 127
10, 22212, Note_on_c, 7, 62, 0
10, 22224, Note_on_c, 7, 62, 127
10, 22260, Note_on_c, 7, 62, 0
10, 22272, Note_on_c, 7, 62, 127
10, 22308, Note_on_c, 7, 62, 0
10, 22320, Note_on_c, 7, 62, 127
10, 22356, Note_on_c, 7, 62, 0
10, 22368, Note_on_c, 7, 62, 127
10, 22404, Note_on_c, 7, 62, 0
10, 22416, Note_on_c, 7, 62, 127
10, 22452, Note_on_c, 7, 62, 0
10, 22464, Note_on_c, 7, 70, 127
10, 22500, Note_on_c, 7, 70, 0
10, 22512, Note_on_c, 7, 62, 127
10, 22548, Note_on_c, 7, 62, 0
10, 22560, Note_on_c, 7, 62, 127
10, 22596, Note_on_c, 7, 62, 0
10, 22608, Note_on_c, 7, 62, 127
10, 22644, Note_on_c, 7, 62, 0
10, 22656, Note_on_c, 7, 62, 127
10, 22692, Note_on_c, 7, 62, 0
10, 22704, Note_on_c, 7, 62, 127
10, 22740, Note_on_c, 7, 62, 0
10, 22752, Note_on_c, 7, 62, 127
10, 22788, Note_on_c, 7, 62, 0
10, 22800, Note_on_c, 7, 62, 127
10, 22836, Note_on_c, 7, 62, 0
10, 22848, Note_on_c, 7, 62, 127
10, 22884, Note_on_c, 7, 62, 0
10, 22896, Note_on_c, 7, 62, 127
10, 22932, Note_on_c, 7, 62, 0
10, 22944, Note_on_c, 7, 62, 127
10, 22980, Note_on_c, 7, 62, 0
10, 22992, Note_on_c, 7, 62, 127
10, 23028, Note_on_c, 7, 62, 0
10, 23040, Note_on_c, 7, 69, 127
10, 23076, Note_on_c, 7, 69, 0
10, 23088, Note_on_c, 7, 62, 127
10, 23124, Note_on_c, 7, 62, 0
10, 23136, Note_on_c, 7, 62, 127
10, 23172, Note_on_c, 7, 62, 0
10, 23184, Note_on_c, 7, 62, 127
10, 23220, Note_on_c, 7, 62, 0
10, 23232, Note_on_c, 7, 62, 127
10, 23268, Note_on_c, 7, 62, 0
10, 23280, Note_on_c, 7, 62, 127
10, 23316, Note_on_c, 7, 62, 0
10, 23328, Note_on_c, 7, 62, 127
10, 23364, Note_on_c, 7, 62, 0
10, 23376, Note_on_c, 7, 62, 127
10, 23412, Note_on_c, 7, 62, 0
10, 23424, Note_on_c, 7, 62, 127
10, 23460, Note_on_c, 7, 62, 0
10, 24240, Note_on_c, 7, 74, 127
10, 24276, Note_on_c, 7, 74, 0
10, 24288, Note_on_c, 7, 72, 127
10, 24324, Note_on_c, 7, 72, 0
10, 24336, Note_on_c, 7, 70, 127
10, 24372, Note_on_c, 7, 70, 0
10, 24384, Note_on_c, 7, 69, 127
10, 24420, Note_on_c, 7, 69, 0
10, 24432, Note_on_c, 7, 67, 127
10, 24468, Note_on_c, 7, 67, 0
10, 24480, Note_on_c, 7, 66, 127
10, 24516, Note_on_c, 7, 66, 0
10, 24528, Note_on_c, 7, 64, 127
10, 24564, Note_on_c, 7, 64, 0
10, 24576, Note_on_c, 7, 62, 127
10, 24612, Note_on_c, 7, 62, 0
10, 24624, Note_on_c, 7, 60, 127
10, 24660, Note_on_c, 7, 60, 0
10, 24672, Note_on_c, 7, 58, 127
10, 24708, Note_on_c, 7, 58, 0
10, 24720, Note_on_c, 7, 57, 127
10, 24756, Note_on_c, 7, 57, 0
10, 24768, Note_on_c, 7, 55, 127
10, 24804, Note_on_c, 7, 55, 0
10, 24816, Note_on_c, 7, 55, 127
10, 24852, Note_on_c, 7, 55, 0
10, 24864, Note_on_c, 7, 55, 127
10, 24900, Note_on_c, 7, 55, 0
10, 24912, Note_on_c, 7, 55, 127
10, 24948, Note_on_c, 7, 55, 0
10, 24960, Note_on_c, 7, 55, 127
10, 24996, Note_on_c, 7, 55, 0
10, 25008, Note_on_c, 7, 55, 127
10, 25044, Note_on_c, 7, 55, 0
10, 25056, Note_on_c, 7, 55, 127
10, 25092, Note_on_c, 7, 55, 0
10, 25104, Note_on_c, 7, 55, 127
10, 25140, Note_on_c, 7, 55, 0
10, 25152, Note_on_c, 7, 55, 127
10, 25188, Note_on_c, 7, 55, 0
10, 25200, Note_on_c, 7, 55, 127
10, 25236, Note_on_c, 7, 55, 0
10, 25248, Note_on_c, 7, 55, 127
10, 25284, Note_on_c, 7, 55, 0
10, 25296, Note_on_c, 7, 55, 127
10, 25332, Note_on_c, 7, 55, 0
10, 25344, Note_on_c, 7, 55, 127
10, 25380, Note_on_c, 7, 55, 0
10, 25392, Note_on_c, 7, 79, 127
10, 25428, Note_on_c, 7, 79, 0
10, 25440, Note_on_c, 7, 77, 127
10, 25476, Note_on_c, 7, 77, 0
10, 25488, Note_on_c, 7, 75, 127
10, 25524, Note_on_c, 7, 75, 0
10, 25536, Note_on_c, 7, 74, 127
10, 25572, Note_on_c, 7, 74, 0
10, 25584, Note_on_c, 7, 72, 127
10, 25620, Note_on_c, 7, 72, 0
10, 25632, Note_on_c, 7, 70, 127
10, 25668, Note_on_c, 7, 70, 0
10, 25680, Note_on_c, 7, 69, 127
10, 25716, Note_on_c, 7, 69, 0
10, 25728, Note_on_c, 7, 67, 127
10, 25764, Note_on_c, 7, 67, 0
10, 25776, Note_on_c, 7, 65, 127
10, 25812, Note_on_c, 7, 65, 0
10, 25824, Note_on_c, 7, 63, 127
10, 25860, Note_on_c, 7, 63, 0
10, 25872, Note_on_c, 7, 62, 127
10, 25908, Note_on_c, 7, 62, 0
10, 25920, Note_on_c, 7, 60, 127
10, 25956, Note_on_c, 7, 60, 0
10, 25968, Note_on_c, 7, 60, 127
10, 26004, Note_on_c, 7, 60, 0
10, 26016, Note_on_c, 7, 60, 127
10, 26052, Note_on_c, 7, 60, 0
10, 26064, Note_on_c, 7, 60, 127
10, 26100, Note_on_c, 7, 60, 0
10, 26112, Note_on_c, 7, 60, 127
10, 26148, Note_on_c, 7, 60, 0
10, 26160, Note_on_c, 7, 60, 127
10, 26196, Note_on_c, 7, 60, 0
10, 26208, Note_on_c, 7, 60, 127
10, 26244, Note_on_c, 7, 60, 0
10, 26256, Note_on_c, 7, 60, 127
10, 26292, Note_on_c, 7, 60, 0
10, 26304, Note_on_c, 7, 60, 127
10, 26340, Note_on_c, 7, 60, 0
10, 26352, Note_on_c, 7, 60, 127
10, 26388, Note_on_c, 7, 60, 0
10, 26400, Note_on_c, 7, 60, 127
10, 26436, Note_on_c, 7, 60, 0
10, 26448, Note_on_c, 7, 60, 127
10, 26484, Note_on_c, 7, 60, 0
10, 26496, Note_on_c, 7, 60, 127
10, 26532, Note_on_c, 7, 60, 0
10, 26544, Note_on_c, 7, 82, 127
10, 26580, Note_on_c, 7, 82, 0
10, 26592, Note_on_c, 7, 81, 127
10, 26628, Note_on_c, 7, 81, 0
10, 26640, Note_on_c, 7, 79, 127
10, 26676, Note_on_c, 7, 79, 0
10, 26688, Note_on_c, 7, 77, 127
10, 26724, Note_on_c, 7, 77, 0
10, 26736, Note_on_c, 7, 75, 127
10, 26772, Note_on_c, 7, 75, 0
10, 26784, Note_on_c, 7, 74, 127
10, 26820, Note_on_c, 7, 74, 0
10, 26832, Note_on_c, 7, 72, 127
10, 26868, Note_on_c, 7, 72, 0
10, 26880, Note_on_c, 7, 70, 127
10, 26916, Note_on_c, 7, 70, 0
10, 26928, Note_on_c, 7, 69, 127
10, 26964, Note_on_c, 7, 69, 0
10, 26976, Note_on_c, 7, 67, 127
10, 27012, Note_on_c, 7, 67, 0
10, 27024, Note_on_c, 7, 65, 127
10, 27060, Note_on_c, 7, 65, 0
10, 27072, Note_on_c, 7, 63, 127
10, 27108, Note_on_c, 7, 63, 0
10, 27120, Note_on_c, 7, 63, 127
10, 27156, Note_on_c, 7, 63, 0
10, 27168, Note_on_c, 7, 63, 127
10, 27204, Note_on_c, 7, 63, 0
10, 27216, Note_on_c, 7, 63, 127
10, 27252, Note_on_c, 7, 63, 0
10, 27264, Note_on_c, 7, 63, 127
10, 27300, Note_on_c, 7, 63, 0
10, 27312, Note_on_c, 7, 63, 127
10, 27348, Note_on_c, 7, 63, 0
10, 27360, Note_on_c, 7, 63, 127
10, 27396, Note_on_c, 7, 63, 0
10, 27408, Note_on_c, 7, 63, 127
10, 27444, Note_on_c, 7, 63, 0
10, 27456, Note_on_c, 7, 63, 127
10, 27492, Note_on_c, 7, 63, 0
10, 27504, Note_on_c, 7, 63, 127
10, 27540, Note_on_c, 7, 63, 0
10, 27552, Note_on_c, 7, 63, 127
10, 27588, Note_on_c, 7, 63, 0
10, 27600, Note_on_c, 7, 63, 127
10, 27636, Note_on_c, 7, 63, 0
10, 27648, Note_on_c, 7, 63, 127
10, 27684, Note_on_c, 7, 63, 0
10, 27696, Note_on_c, 7, 86, 127
10, 27732, Note_on_c, 7, 86, 0
10, 27744, Note_on_c, 7, 84, 127
10, 27780, Note_on_c, 7, 84, 0
10, 27792, Note_on_c, 7, 82, 127
10, 27828, Note_on_c, 7, 82, 0
10, 27840, Note_on_c, 7, 81, 127
10, 27876, Note_on_c, 7, 81, 0
10, 27888, Note_on_c, 7, 79, 127
10, 27924, Note_on_c, 7, 79, 0
10, 27936, Note_on_c, 7, 78, 127
10, 27972, Note_on_c, 7, 78, 0
10, 27984, Note_on_c, 7, 76, 127
10, 28020, Note_on_c, 7, 76, 0
10, 28032, Note_on_c, 7, 74, 127
10, 28068, Note_on_c, 7, 74, 0
10, 28080, Note_on_c, 7, 72, 127
10, 28116, Note_on_c, 7, 72, 0
10, 28128, Note_on_c, 7, 70, 127
10, 28164, Note_on_c, 7, 70, 0
10, 28176, Note_on_c, 7, 69, 127
10, 28212, Note_on_c, 7, 69, 0
10, 28224, Note_on_c, 7, 67, 127
10, 28260, Note_on_c, 7, 67, 0
10, 28272, Note_on_c, 7, 67, 127
10, 28308, Note_on_c, 7, 67, 0
10, 28320, Note_on_c, 7, 67, 127
10, 28356, Note_on_c, 7, 67, 0
10, 28368, Note_on_c, 7, 67, 127
10, 28404, Note_on_c, 7, 67, 0
10, 28416, Note_on_c, 7, 67, 127
10, 28452, Note_on_c, 7, 67, 0
10, 28464, Note_on_c, 7, 67, 127
10, 28500, Note_on_c, 7, 67, 0
10, 28512, Note_on_c, 7, 67, 127
10, 28548, Note_on_c, 7, 67, 0
10, 28560, Note_on_c, 7, 67, 127
10, 28596, Note_on_c, 7, 67, 0
10, 28608, Note_on_c, 7, 67, 127
10, 28644, Note_on_c, 7, 67, 0
10, 28656, Note_on_c, 7, 67, 127
10, 28692, Note_on_c, 7, 67, 0
10, 28704, Note_on_c, 7, 67, 127
10, 28740, Note_on_c, 7, 67, 0
10, 28752, Note_on_c, 7, 67, 127
10, 28788, Note_on_c, 7, 67, 0
10, 28800, Note_on_c, 7, 67, 127
10, 28836, Note_on_c, 7, 67, 0
10, 28848, Note_on_c, 7, 86, 127
10, 28884, Note_on_c, 7, 86, 0
10, 28896, Note_on_c, 7, 84, 127
10, 28932, Note_on_c, 7, 84, 0
10, 28944, Note_on_c, 7, 82, 127
10, 28980, Note_on_c, 7, 82, 0
10, 28992, Note_on_c, 7, 81, 127
10, 29028, Note_on_c, 7, 81, 0
10, 29040, Note_on_c, 7, 79, 127
10, 29076, Note_on_c, 7, 79, 0
10, 29088, Note_on_c, 7, 78, 127
10, 29124, Note_on_c, 7, 78, 0
10, 29136, Note_on_c, 7, 76, 127
10, 29172, Note_on_c, 7, 76, 0
10, 29184, Note_on_c, 7, 74, 127
10, 29220, Note_on_c, 7, 74, 0
10, 29232, Note_on_c, 7, 72, 127
10, 29268, Note_on_c, 7, 72, 0
10, 29280, Note_on_c, 7, 70, 127
10, 29316, Note_on_c, 7, 70, 0
10, 29328, Note_on_c, 7, 69, 127
10, 29364, Note_on_c, 7, 69, 0
10, 29376, Note_on_c, 7, 67, 127
10, 29412, Note_on_c, 7, 67, 0
10, 29424, Note_on_c, 7, 67, 127
10, 29460, Note_on_c, 7, 67, 0
10, 29472, Note_on_c, 7, 67, 127
10, 29508, Note_on_c, 7, 67, 0
10, 29520, Note_on_c, 7, 67, 127
10, 29556, Note_on_c, 7, 67, 0
10, 29568, Note_on_c, 7, 74, 127
10, 29604, Note_on_c, 7, 74, 0
10, 29616, Note_on_c, 7, 67, 127
10, 29652, Note_on_c, 7, 67, 0
10, 29664, Note_on_c, 7, 67, 127
10, 29700, Note_on_c, 7, 67, 0
10, 29712, Note_on_c, 7, 67, 127
10, 29748, Note_on_c, 7, 67, 0
10, 29760, Note_on_c, 7, 74, 127
10, 29796, Note_on_c, 7, 74, 0
10, 29808, Note_on_c, 7, 67, 127
10, 29844, Note_on_c, 7, 67, 0
10, 29856, Note_on_c, 7, 67, 127
10, 29892, Note_on_c, 7, 67, 0
10, 29904, Note_on_c, 7, 67, 127
10, 29940, Note_on_c, 7, 67, 0
10, 29952, Note_on_c, 7, 62, 127
10, 29988, Note_on_c, 7, 62, 0
10, 30000, Note_on_c, 7, 66, 127
10, 30036, Note_on_c, 7, 66, 0
10, 30048, Note_on_c, 7, 67, 127
10, 30084, Note_on_c, 7, 67, 0
10, 30096, Note_on_c, 7, 69, 127
10, 30132, Note_on_c, 7, 69, 0
10, 30144, Note_on_c, 7, 70, 127
10, 30180, Note_on_c, 7, 70, 0
10, 30192, Note_on_c, 7, 72, 127
10, 30228, Note_on_c, 7, 72, 0
10, 30240, Note_on_c, 7, 74, 127
10, 30276, Note_on_c, 7, 74, 0
10, 30288, Note_on_c, 7, 76, 127
10, 30324, Note_on_c, 7, 76, 0
10, 30336, Note_on_c, 7, 78, 127
10, 30432, Note_on_c, 7, 78, 0
10, 30576, Note_on_c, 7, 66, 127
10, 30612, Note_on_c, 7, 66, 0
10, 30624, Note_on_c, 7, 67, 127
10, 30660, Note_on_c, 7, 67, 0
10, 30672, Note_on_c, 7, 69, 127
10, 30708, Note_on_c, 7, 69, 0
10, 30720, Note_on_c, 7, 70, 127
10, 30756, Note_on_c, 7, 70, 0
10, 30768, Note_on_c, 7, 72, 127
10, 30804, Note_on_c, 7, 72, 0
10, 30816, Note_on_c, 7, 74, 127
10, 30852, Note_on_c, 7, 74, 0
10, 30864, Note_on_c, 7, 76, 127
10, 30900, Note_on_c, 7, 76, 0
10, 30912, Note_on_c, 7, 78, 127
10, 31008, Note_on_c, 7, 78, 0
10, 31152, Note_on_c, 7, 67, 127
10, 31188, Note_on_c, 7, 67, 0
10, 31200, Note_on_c, 7, 69, 127
10, 31236, Note_on_c, 7, 69, 0
10, 31248, Note_on_c, 7, 70, 127
10, 31284, Note_on_c, 7, 70, 0
10, 31296, Note_on_c, 7, 72, 127
10, 31332, Note_on_c, 7, 72, 0
10, 31344, Note_on_c, 7, 74, 127
10, 31380, Note_on_c, 7, 74, 0
10, 31392, Note_on_c, 7, 75, 127
10, 31428, Note_on_c, 7, 75, 0
10, 31440, Note_on_c, 7, 78, 127
10, 31476, Note_on_c, 7, 78, 0
10, 31488, Note_on_c, 7, 79, 127
10, 31584, Note_on_c, 7, 79, 0
10, 31728, Note_on_c, 7, 66, 127
10, 31764, Note_on_c, 7, 66, 0
10, 31776, Note_on_c, 7, 67, 127
10, 31812, Note_on_c, 7, 67, 0
10, 31824, Note_on_c, 7, 69, 127
10, 31860, Note_on_c, 7, 69, 0
10, 31872, Note_on_c, 7, 70, 127
10, 31908, Note_on_c, 7, 70, 0
10, 31920, Note_on_c, 7, 72, 127
10, 31956, Note_on_c, 7, 72, 0
10, 31968, Note_on_c, 7, 74, 127
10, 32004, Note_on_c, 7, 74, 0
10, 32016, Note_on_c, 7, 76, 127
10, 32052, Note_on_c, 7, 76, 0
10, 32064, Note_on_c, 7, 78, 127
10, 32160, Note_on_c, 7, 78, 0
10, 32304, Note_on_c, 7, 66, 127
10, 32340, Note_on_c, 7, 66, 0
10, 32352, Note_on_c, 7, 67, 127
10, 32388, Note_on_c, 7, 67, 0
10, 32400, Note_on_c, 7, 69, 127
10, 32436, Note_on_c, 7, 69, 0
10, 32448, Note_on_c, 7, 70, 127
10, 32484, Note_on_c, 7, 70, 0
10, 32496, Note_on_c, 7, 72, 127
10, 32532, Note_on_c, 7, 72, 0
10, 32544, Note_on_c, 7, 74, 127
10, 32580, Note_on_c, 7, 74, 0
10, 32592, Note_on_c, 7, 76, 127
10, 32628, Note_on_c, 7, 76, 0
10, 32640, Note_on_c, 7, 78, 127
10, 32736, Note_on_c, 7, 78, 0
10, 32880, Note_on_c, 7, 66, 127
10, 32916, Note_on_c, 7, 66, 0
10, 32928, Note_on_c, 7, 67, 127
10, 32964, Note_on_c, 7, 67, 0
10, 32976, Note_on_c, 7, 69, 127
10, 33012, Note_on_c, 7, 69, 0
10, 33024, Note_on_c, 7, 70, 127
10, 33060, Note_on_c, 7, 70, 0
10, 33072, Note_on_c, 7, 72, 127
10, 33108, Note_on_c, 7, 72, 0
10, 33120, Note_on_c, 7, 74, 127
10, 33156, Note_on_c, 7, 74, 0
10, 33168, Note_on_c, 7, 76, 127
10, 33204, Note_on_c, 7, 76, 0
10, 33216, Note_on_c, 7, 78, 127
10, 33312, Note_on_c, 7, 78, 0
10, 33456, Note_on_c, 7, 67, 127
10, 33492, Note_on_c, 7, 67, 0
10, 33504, Note_on_c, 7, 69, 127
10, 33540, Note_on_c, 7, 69, 0
10, 33552, Note_on_c, 7, 70, 127
10, 33588, Note_on_c, 7, 70, 0
10, 33600, Note_on_c, 7, 72, 127
10, 33636, Note_on_c, 7, 72, 0
10, 33648, Note_on_c, 7, 74, 127
10, 33684, Note_on_c, 7, 74, 0
10, 33696, Note_on_c, 7, 75, 127
10, 33732, Note_on_c, 7, 75, 0
10, 33744, Note_on_c, 7, 78, 127
10, 33780, Note_on_c, 7, 78, 0
10, 33792, Note_on_c, 7, 79, 127
10, 33888, Note_on_c, 7, 79, 0
10, 34032, Note_on_c, 7, 66, 127
10, 34068, Note_on_c, 7, 66, 0
10, 34080, Note_on_c, 7, 67, 127
10, 34116, Note_on_c, 7, 67, 0
10, 34128, Note_on_c, 7, 69, 127
10, 34164, Note_on_c, 7, 69, 0
10, 34176, Note_on_c, 7, 70, 127
10, 34212, Note_on_c, 7, 70, 0
10, 34224, Note_on_c, 7, 72, 127
10, 34260, Note_on_c, 7, 72, 0
10, 34272, Note_on_c, 7, 74, 127
10, 34308, Note_on_c, 7, 74, 0
10, 34320, Note_on_c, 7, 76, 127
10, 34356, Note_on_c, 7, 76, 0
10, 34368, Note_on_c, 7, 78, 127
10, 34464, Note_on_c, 7, 78, 0
10, 34560, Note_on_c, 7, 70, 127
10, 34596, Note_on_c, 7, 70, 0
10, 34608, Note_on_c, 7, 74, 127
10, 34644, Note_on_c, 7, 74, 0
10, 34656, Note_on_c, 7, 79, 127
10, 34692, Note_on_c, 7, 79, 0
10, 34704, Note_on_c, 7, 82, 126
10, 34740, Note_on_c, 7, 82, 0
10, 34752, Note_on_c, 7, 70, 125
10, 34788, Note_on_c, 7, 70, 0
10, 34800, Note_on_c, 7, 74, 124
10, 34836, Note_on_c, 7, 74, 0
10, 34848, Note_on_c, 7, 79, 124
10, 34884, Note_on_c, 7, 79, 0
10, 34896, Note_on_c, 7, 82, 123
10, 34932, Note_on_c, 7, 82, 0
10, 34944, Note_on_c, 7, 70, 122
10, 34980, Note_on_c, 7, 70, 0
10, 34992, Note_on_c, 7, 74, 121
10, 35028, Note_on_c, 7, 74, 0
10, 35040, Note_on_c, 7, 79, 120
10, 35076, Note_on_c, 7, 79, 0
10, 35088, Note_on_c, 7, 82, 120
10, 35124, Note_on_c, 7, 82, 0
10, 35136, Note_on_c, 7, 62, 119
10, 35172, Note_on_c, 7, 62, 0
10, 35184, Note_on_c, 7, 67, 118
10, 35220, Note_on_c, 7, 67, 0
10, 35232, Note_on_c, 7, 70, 117
10, 35268, Note_on_c, 7, 70, 0
10, 35280, Note_on_c, 7, 74, 116
10, 35316, Note_on_c, 7, 74, 0
10, 35328, Note_on_c, 7, 62, 116
10, 35364, Note_on_c, 7, 62, 0
10, 35376, Note_on_c, 7, 67, 115
10, 35412, Note_on_c, 7, 67, 0
10, 35424, Note_on_c, 7, 70, 114
10, 35460, Note_on_c, 7, 70, 0
10, 35472, Note_on_c, 7, 74, 113
10, 35508, Note_on_c, 7, 74, 0
10, 35520, Note_on_c, 7, 62, 112
10, 35556, Note_on_c, 7, 62, 0
10, 35568, Note_on_c, 7, 67, 112
10, 35604, Note_on_c, 7, 67, 0
10, 35616, Note_on_c, 7, 70, 111
10, 35652, Note_on_c, 7, 70, 0
10, 35664, Note_on_c, 7, 74, 110
10, 35700, Note_on_c, 7, 74, 0
10, 35712, Note_on_c, 7, 55, 109
10, 35748, Note_on_c, 7, 55, 0
10, 35760, Note_on_c, 7, 58, 108
10, 35796, Note_on_c, 7, 58, 0
10, 35808, Note_on_c, 7, 62, 108
10, 35844, Note_on_c, 7, 62, 0
10, 35856, Note_on_c, 7, 67, 107
10, 35892, Note_on_c, 7, 67, 0
10, 35904, Note_on_c, 7, 55, 106
10, 35940, Note_on_c, 7, 55, 0
10, 35952, Note_on_c, 7, 58, 105
10, 35988, Note_on_c, 7, 58, 0
10, 36000, Note_on_c, 7, 62, 104
10, 36036, Note_on_c, 7, 62, 0
10, 36048, Note_on_c, 7, 67, 104
10, 36084, Note_on_c, 7, 67, 0
10, 36096, Note_on_c, 7, 55, 103
10, 36132, Note_on_c, 7, 55, 0
10, 36144, Note_on_c, 7, 58, 102
10, 36180, Note_on_c, 7, 58, 0
10, 36192, Note_on_c, 7, 62, 101
10, 36228, Note_on_c, 7, 62, 0
10, 36240, Note_on_c, 7, 67, 100
10, 36276, Note_on_c, 7, 67, 0
10, 36288, Note_on_c, 7, 62, 127
10, 36324, Note_on_c, 7, 62, 0
10, 36336, Note_on_c, 7, 67, 127
10, 36372, Note_on_c, 7, 67, 0
10, 36384, Note_on_c, 7, 62, 127
10, 36420, Note_on_c, 7, 62, 0
10, 36432, Note_on_c, 7, 67, 127
10, 36468, Note_on_c, 7, 67, 0
10, 36480, Note_on_c, 7, 62, 127
10, 36516, Note_on_c, 7, 62, 0
10, 36528, Note_on_c, 7, 67, 127
10, 36564, Note_on_c, 7, 67, 0
10, 36576, Note_on_c, 7, 62, 127
10, 36612, Note_on_c, 7, 62, 0
10, 36624, Note_on_c, 7, 67, 127
10, 36660, Note_on_c, 7, 67, 0
10, 36672, Note_on_c, 7, 62, 127
10, 36708, Note_on_c, 7, 62, 0
10, 36720, Note_on_c, 7, 67, 127
10, 36756, Note_on_c, 7, 67, 0
10, 36768, Note_on_c, 7, 62, 127
10, 36804, Note_on_c, 7, 62, 0
10, 36816, Note_on_c, 7, 67, 127
10, 36852, Note_on_c, 7, 67, 0
10, 36864, Note_on_c, 7, 63, 127
10, 36900, Note_on_c, 7, 63, 0
10, 36912, Note_on_c, 7, 67, 127
10, 36948, Note_on_c, 7, 67, 0
10, 36960, Note_on_c, 7, 63, 127
10, 36996, Note_on_c, 7, 63, 0
10, 37008, Note_on_c, 7, 67, 127
10, 37044, Note_on_c, 7, 67, 0
10, 37056, Note_on_c, 7, 63, 127
10, 37092, Note_on_c, 7, 63, 0
10, 37104, Note_on_c, 7, 67, 127
10, 37140, Note_on_c, 7, 67, 0
10, 37152, Note_on_c, 7, 63, 127
10, 37188, Note_on_c, 7, 63, 0
10, 37200, Note_on_c, 7, 67, 127
10, 37236, Note_on_c, 7, 67, 0
10, 37248, Note_on_c, 7, 63, 127
10, 37284, Note_on_c, 7, 63, 0
10, 37296, Note_on_c, 7, 60, 127
10, 37332, Note_on_c, 7, 60, 0
10, 37344, Note_on_c, 7, 63, 127
10, 37380, Note_on_c, 7, 63, 0
10, 37392, Note_on_c, 7, 60, 127
10, 37428, Note_on_c, 7, 60, 0
10, 37440, Note_on_c, 7, 64, 127
10, 37476, Note_on_c, 7, 64, 0
10, 37488, Note_on_c, 7, 67, 127
10, 37524, Note_on_c, 7, 67, 0
10, 37536, Note_on_c, 7, 64, 127
10, 37572, Note_on_c, 7, 64, 0
10, 37584, Note_on_c, 7, 67, 127
10, 37620, Note_on_c, 7, 67, 0
10, 37632, Note_on_c, 7, 64, 127
10, 37668, Note_on_c, 7, 64, 0
10, 37680, Note_on_c, 7, 67, 127
10, 37716, Note_on_c, 7, 67, 0
10, 37728, Note_on_c, 7, 64, 127
10, 37764, Note_on_c, 7, 64, 0
10, 37776, Note_on_c, 7, 67, 127
10, 37812, Note_on_c, 7, 67, 0
10, 37824, Note_on_c, 7, 64, 127
10, 37860, Note_on_c, 7, 64, 0
10, 37872, Note_on_c, 7, 67, 127
10, 37908, Note_on_c, 7, 67, 0
10, 37920, Note_on_c, 7, 64, 127
10, 37956, Note_on_c, 7, 64, 0
10, 37968, Note_on_c, 7, 67, 127
10, 38004, Note_on_c, 7, 67, 0
10, 38016, Note_on_c, 7, 65, 127
10, 38052, Note_on_c, 7, 65, 0
10, 38064, Note_on_c, 7, 69, 127
10, 38100, Note_on_c, 7, 69, 0
10, 38112, Note_on_c, 7, 65, 127
10, 38148, Note_on_c, 7, 65, 0
10, 38160, Note_on_c, 7, 69, 127
10, 38196, Note_on_c, 7, 69, 0
10, 38208, Note_on_c, 7, 65, 127
10, 38244, Note_on_c, 7, 65, 0
10, 38256, Note_on_c, 7, 69, 127
10, 38292, Note_on_c, 7, 69, 0
10, 38304, Note_on_c, 7, 65, 127
10, 38340, Note_on_c, 7, 65, 0
10, 38352, Note_on_c, 7, 69, 127
10, 38388, Note_on_c, 7, 69, 0
10, 38400, Note_on_c, 7, 65, 127
10, 38436, Note_on_c, 7, 65, 0
10, 38448, Note_on_c, 7, 62, 127
10, 38484, Note_on_c, 7, 62, 0
10, 38496, Note_on_c, 7, 65, 127
10, 38532, Note_on_c, 7, 65, 0
10, 38544, Note_on_c, 7, 62, 127
10, 38580, Note_on_c, 7, 62, 0
10, 38592, Note_on_c, 7, 64, 127
10, 38628, Note_on_c, 7, 64, 0
10, 38640, Note_on_c, 7, 69, 127
10, 38676, Note_on_c, 7, 69, 0
10, 38688, Note_on_c, 7, 64, 127
10, 38724, Note_on_c, 7, 64, 0
10, 38736, Note_on_c, 7, 69, 127
10, 38772, Note_on_c, 7, 69, 0
10, 38784, Note_on_c, 7, 64, 127
10, 38820, Note_on_c, 7, 64, 0
10, 38832, Note_on_c, 7, 69, 127
10, 38868, Note_on_c, 7, 69, 0
10, 38880, Note_on_c, 7, 64, 127
10, 38916, Note_on_c, 7, 64, 0
10, 38928, Note_on_c, 7, 69, 127
10, 38964, Note_on_c, 7, 69, 0
10, 38976, Note_on_c, 7, 64, 127
10, 39012, Note_on_c, 7, 64, 0
10, 39024, Note_on_c, 7, 69, 127
10, 39060, Note_on_c, 7, 69, 0
10, 39072, Note_on_c, 7, 64, 127
10, 39108, Note_on_c, 7, 64, 0
10, 39120, Note_on_c, 7, 69, 127
10, 39156, Note_on_c, 7, 69, 0
10, 39168, Note_on_c, 7, 64, 127
10, 39204, Note_on_c, 7, 64, 0
10, 39216, Note_on_c, 7, 69, 127
10, 39252, Note_on_c, 7, 69, 0
10, 39264, Note_on_c, 7, 64, 127
10, 39300, Note_on_c, 7, 64, 0
10, 39312, Note_on_c, 7, 69, 127
10, 39348, Note_on_c, 7, 69, 0
10, 39360, Note_on_c, 7, 64, 127
10, 39396, Note_on_c, 7, 64, 0
10, 39408, Note_on_c, 7, 69, 127
10, 39444, Note_on_c, 7, 69, 0
10, 39456, Note_on_c, 7, 64, 127
10, 39492, Note_on_c, 7, 64, 0
10, 39504, Note_on_c, 7, 69, 127
10, 39540, Note_on_c, 7, 69, 0
10, 39552, Note_on_c, 7, 64, 127
10, 39588, Note_on_c, 7, 64, 0
10, 39600, Note_on_c, 7, 69, 127
10, 39636, Note_on_c, 7, 69, 0
10, 39648, Note_on_c, 7, 64, 127
10, 39684, Note_on_c, 7, 64, 0
10, 39696, Note_on_c, 7, 69, 127
10, 39732, Note_on_c, 7, 69, 0
10, 39744, Note_on_c, 7, 65, 127
10, 39780, Note_on_c, 7, 65, 0
10, 39792, Note_on_c, 7, 62, 127
10, 39828, Note_on_c, 7, 62, 0
10, 39840, Note_on_c, 7, 64, 127
10, 39876, Note_on_c, 7, 64, 0
10, 39888, Note_on_c, 7, 65, 127
10, 39924, Note_on_c, 7, 65, 0
10, 39936, Note_on_c, 7, 67, 127
10, 39972, Note_on_c, 7, 67, 0
10, 39984, Note_on_c, 7, 69, 127
10, 40020, Note_on_c, 7, 69, 0
10, 40032, Note_on_c, 7, 71, 127
10, 40068, Note_on_c, 7, 71, 0
10, 40080, Note_on_c, 7, 73, 127
10, 40116, Note_on_c, 7, 73, 0
10, 40128, Note_on_c, 7, 74, 127
10, 40164, Note_on_c, 7, 74, 0
10, 40176, Note_on_c, 7, 69, 127
10, 40212, Note_on_c, 7, 69, 0
10, 40224, Note_on_c, 7, 71, 127
10, 40260, Note_on_c, 7, 71, 0
10, 40272, Note_on_c, 7, 73, 127
10, 40308, Note_on_c, 7, 73, 0
10, 40320, Note_on_c, 7, 74, 127
10, 40356, Note_on_c, 7, 74, 0
10, 40368, Note_on_c, 7, 76, 127
10, 40404, Note_on_c, 7, 76, 0
10, 40416, Note_on_c, 7, 77, 127
10, 40452, Note_on_c, 7, 77, 0
10, 40464, Note_on_c, 7, 79, 127
10, 40500, Note_on_c, 7, 79, 0
10, 40512, Note_on_c, 7, 81, 127
10, 40548, Note_on_c, 7, 81, 0
10, 40560, Note_on_c, 7, 74, 127
10, 40596, Note_on_c, 7, 74, 0
10, 40608, Note_on_c, 7, 76, 127
10, 40644, Note_on_c, 7, 76, 0
10, 40656, Note_on_c, 7, 77, 127
10, 40692, Note_on_c, 7, 77, 0
10, 40704, Note_on_c, 7, 79, 127
10, 40740, Note_on_c, 7, 79, 0
10, 40752, Note_on_c, 7, 81, 127
10, 40788, Note_on_c, 7, 81, 0
10, 40800, Note_on_c, 7, 83, 127
10, 40836, Note_on_c, 7, 83, 0
10, 40848, Note_on_c, 7, 85, 127
10, 40884, Note_on_c, 7, 85, 0
10, 40896, Note_on_c, 7, 86, 127
10, 40992, Note_on_c, 7, 86, 0
10, 49536, Note_on_c, 7, 77, 110
10, 49608, Note_on_c, 7, 77, 0
10, 49632, Note_on_c, 7, 57, 110
10, 49704, Note_on_c, 7, 57, 0
10, 49728, Note_on_c, 7, 57, 110
10, 49800, Note_on_c, 7, 57, 0
10, 49824, Note_on_c, 7, 69, 110
10, 49896, Note_on_c, 7, 69, 0
10, 49920, Note_on_c, 7, 74, 110
10, 49992, Note_on_c, 7, 74, 0
10, 50016, Note_on_c, 7, 77, 110
10, 50088, Note_on_c, 7, 77, 0
10, 50112, Note_on_c, 7, 79, 110
10, 50184, Note_on_c, 7, 79, 0
10, 50208, Note_on_c, 7, 58, 110
10, 50280, Note_on_c, 7, 58, 0
10, 50304, Note_on_c, 7, 58, 110
10, 50376, Note_on_c, 7, 58, 0
10, 50400, Note_on_c, 7, 70, 110
10, 50472, Note_on_c, 7, 70, 0
10, 50496, Note_on_c, 7, 74, 110
10, 50568, Note_on_c, 7, 74, 0
10, 50592, Note_on_c, 7, 79, 110
10, 50664, Note_on_c, 7, 79, 0
10, 50688, Note_on_c, 7, 79, 110
10, 50760, Note_on_c, 7, 79, 0
10, 50784, Note_on_c, 7, 60, 110
10, 50856, Note_on_c, 7, 60, 0
10, 50880, Note_on_c, 7, 60, 110
10, 50952, Note_on_c, 7, 60, 0
10, 50976, Note_on_c, 7, 72, 110
10, 51048, Note_on_c, 7, 72, 0
10, 51072, Note_on_c, 7, 76, 110
10, 51144, Note_on_c, 7, 76, 0
10, 51168, Note_on_c, 7, 79, 110
10, 51240, Note_on_c, 7, 79, 0
10, 51264, Note_on_c, 7, 77, 110
10, 51336, Note_on_c, 7, 77, 0
10, 51360, Note_on_c, 7, 60, 110
10, 51432, Note_on_c, 7, 60, 0
10, 51456, Note_on_c, 7, 60, 110
10, 51528, Note_on_c, 7, 60, 0
10, 51552, Note_on_c, 7, 69, 110
10, 51624, Note_on_c, 7, 69, 0
10, 51648, Note_on_c, 7, 72, 110
10, 51720, Note_on_c, 7, 72, 0
10, 51744, Note_on_c, 7, 77, 110
10, 51816, Note_on_c, 7, 77, 0
10, 51840, Note_on_c, 7, 77, 110
10, 51912, Note_on_c, 7, 77, 0
10, 51936, Note_on_c, 7, 58, 110
10, 52008, Note_on_c, 7, 58, 0
10, 52032, Note_on_c, 7, 58, 110
10, 52104, Note_on_c, 7, 58, 0
10, 52128, Note_on_c, 7, 70, 110
10, 52200, Note_on_c, 7, 70, 0
10, 52224, Note_on_c, 7, 74, 110
10, 52296, Note_on_c, 7, 74, 0
10, 52320, Note_on_c, 7, 77, 110
10, 52392, Note_on_c, 7, 77, 0
10, 52416, Note_on_c, 7, 75, 110
10, 52488, Note_on_c, 7, 75, 0
10, 52512, Note_on_c, 7, 58, 110
10, 52584, Note_on_c, 7, 58, 0
10, 52608, Note_on_c, 7, 58, 110
10, 52680, Note_on_c, 7, 58, 0
10, 52704, Note_on_c, 7, 67, 110
10, 52776, Note_on_c, 7, 67, 0
10, 52800, Note_on_c, 7, 70, 110
10, 52872, Note_on_c, 7, 70, 0
10, 52896, Note_on_c, 7, 75, 110
10, 52968, Note_on_c, 7, 75, 0
10, 52992, Note_on_c, 7, 75, 110
10, 53064, Note_on_c, 7, 75, 0
10, 53088, Note_on_c, 7, 56, 110
10, 53160, Note_on_c, 7, 56, 0
10, 53184, Note_on_c, 7, 56, 110
10, 53256, Note_on_c, 7, 56, 0
10, 53280, Note_on_c, 7, 68, 110
10, 53352, Note_on_c, 7, 68, 0
10, 53376, Note_on_c, 7, 72, 110
10, 53448, Note_on_c, 7, 72, 0
10, 53472, Note_on_c, 7, 75, 110
10, 53544, Note_on_c, 7, 75, 0
10, 53568, Note_on_c, 7, 74, 110
10, 53640, Note_on_c, 7, 74, 0
10, 53664, Note_on_c, 7, 59, 110
10, 53736, Note_on_c, 7, 59, 0
10, 53760, Note_on_c, 7, 59, 110
10, 53832, Note_on_c, 7, 59, 0
10, 53856, Note_on_c, 7, 67, 110
10, 53928, Note_on_c, 7, 67, 0
10, 53952, Note_on_c, 7, 71, 110
10, 54024, Note_on_c, 7, 71, 0
10, 54048, Note_on_c, 7, 74, 110
10, 54120, Note_on_c, 7, 74, 0
10, 54144, Note_on_c, 7, 74, 110
10, 54216, Note_on_c, 7, 74, 0
10, 54240, Note_on_c, 7, 59, 110
10, 54312, Note_on_c, 7, 59, 0
10, 54336, Note_on_c, 7, 59, 110
10, 54408, Note_on_c, 7, 59, 0
10, 54432, Note_on_c, 7, 67, 110
10, 54504, Note_on_c, 7, 67, 0
10, 54528, Note_on_c, 7, 71, 110
10, 54600, Note_on_c, 7, 71, 0
10, 54624, Note_on_c, 7, 74, 110
10, 54696, Note_on_c, 7, 74, 0
10, 54720, Note_on_c, 7, 72, 110
10, 54756, Note_on_c, 7, 72, 0
10, 54768, Note_on_c, 7, 60, 110
10, 54804, Note_on_c, 7, 60, 0
10, 54816, Note_on_c, 7, 62, 110
10, 54852, Note_on_c, 7, 62, 0
10, 54864, Note_on_c, 7, 63, 110
10, 54900, Note_on_c, 7, 63, 0
10, 54912, Note_on_c, 7, 65, 110
10, 54948, Note_on_c, 7, 65, 0
10, 54960, Note_on_c, 7, 67, 110
10, 54996, Note_on_c, 7, 67, 0
10, 55008, Note_on_c, 7, 68, 110
10, 55044, Note_on_c, 7, 68, 0
10, 55056, Note_on_c, 7, 71, 110
10, 55092, Note_on_c, 7, 71, 0
10, 55104, Note_on_c, 7, 72, 110
10, 55200, Note_on_c, 7, 72, 0
10, 55344, Note_on_c, 7, 60, 110
10, 55380, Note_on_c, 7, 60, 0
10, 55392, Note_on_c, 7, 62, 110
10, 55428, Note_on_c, 7, 62, 0
10, 55440, Note_on_c, 7, 63, 110
10, 55476, Note_on_c, 7, 63, 0
10, 55488, Note_on_c, 7, 65, 110
10, 55524, Note_on_c, 7, 65, 0
10, 55536, Note_on_c, 7, 67, 110
10, 55572, Note_on_c, 7, 67, 0
10, 55584, Note_on_c, 7, 68, 110
10, 55620, Note_on_c, 7, 68, 0
10, 55632, Note_on_c, 7, 71, 110
10, 55668, Note_on_c, 7, 71, 0
10, 55680, Note_on_c, 7, 72, 110
10, 55776, Note_on_c, 7, 72, 0
10, 55920, Note_on_c, 7, 60, 110
10, 55956, Note_on_c, 7, 60, 0
10, 55968, Note_on_c, 7, 62, 110
10, 56004, Note_on_c, 7, 62, 0
10, 56016, Note_on_c, 7, 63, 110
10, 56052, Note_on_c, 7, 63, 0
10, 56064, Note_on_c, 7, 65, 110
10, 56100, Note_on_c, 7, 65, 0
10, 56112, Note_on_c, 7, 67, 110
10, 56148, Note_on_c, 7, 67, 0
10, 56160, Note_on_c, 7, 68, 110
10, 56196, Note_on_c, 7, 68, 0
10, 56208, Note_on_c, 7, 71, 110
10, 56244, Note_on_c, 7, 71, 0
10, 56256, Note_on_c, 7, 72, 110
10, 56352, Note_on_c, 7, 72, 0
10, 56448, Note_on_c, 7, 63, 80
10, 56484, Note_on_c, 7, 63, 0
10, 56496, Note_on_c, 7, 72, 80
10, 56532, Note_on_c, 7, 72, 0
10, 56544, Note_on_c, 7, 70, 81
10, 56580, Note_on_c, 7, 70, 0
10, 56592, Note_on_c, 7, 72, 82
10, 56628, Note_on_c, 7, 72, 0
10, 56640, Note_on_c, 7, 63, 83
10, 56676, Note_on_c, 7, 63, 0
10, 56688, Note_on_c, 7, 72, 84
10, 56724, Note_on_c, 7, 72, 0
10, 56736, Note_on_c, 7, 70, 85
10, 56772, Note_on_c, 7, 70, 0
10, 56784, Note_on_c, 7, 72, 86
10, 56820, Note_on_c, 7, 72, 0
10, 56832, Note_on_c, 7, 63, 86
10, 56868, Note_on_c, 7, 63, 0
10, 56880, Note_on_c, 7, 72, 87
10, 56916, Note_on_c, 7, 72, 0
10, 56928, Note_on_c, 7, 70, 88
10, 56964, Note_on_c, 7, 70, 0
10, 56976, Note_on_c, 7, 72, 89
10, 57012, Note_on_c, 7, 72, 0
10, 57024, Note_on_c, 7, 65, 90
10, 57060, Note_on_c, 7, 65, 0
10, 57072, Note_on_c, 7, 72, 91
10, 57108, Note_on_c, 7, 72, 0
10, 57120, Note_on_c, 7, 70, 92
10, 57156, Note_on_c, 7, 70, 0
10, 57168, Note_on_c, 7, 72, 92
10, 57204, Note_on_c, 7, 72, 0
10, 57216, Note_on_c, 7, 65, 93
10, 57252, Note_on_c, 7, 65, 0
10, 57264, Note_on_c, 7, 72, 94
10, 57300, Note_on_c, 7, 72, 0
10, 57312, Note_on_c, 7, 70, 95
10, 57348, Note_on_c, 7, 70, 0
10, 57360, Note_on_c, 7, 72, 96
10, 57396, Note_on_c, 7, 72, 0
10, 57408, Note_on_c, 7, 65, 97
10, 57444, Note_on_c, 7, 65, 0
10, 57456, Note_on_c, 7, 72, 98
10, 57492, Note_on_c, 7, 72, 0
10, 57504, Note_on_c, 7, 70, 98
10, 57540, Note_on_c, 7, 70, 0
10, 57552, Note_on_c, 7, 72, 99
10, 57588, Note_on_c, 7, 72, 0
10, 57600, Note_on_c, 7, 67, 100
10, 57636, Note_on_c, 7, 67, 0
10, 57648, Note_on_c, 7, 72, 101
10, 57684, Note_on_c, 7, 72, 0
10, 57696, Note_on_c, 7, 71, 102
10, 57732, Note_on_c, 7, 71, 0
10, 57744, Note_on_c, 7, 72, 103
10, 57780, Note_on_c, 7, 72, 0
10, 57792, Note_on_c, 7, 67, 104
10, 57828, Note_on_c, 7, 67, 0
10, 57840, Note_on_c, 7, 72, 104
10, 57876, Note_on_c, 7, 72, 0
10, 57888, Note_on_c, 7, 71, 105
10, 57924, Note_on_c, 7, 71, 0
10, 57936, Note_on_c, 7, 72, 106
10, 57972, Note_on_c, 7, 72, 0
10, 57984, Note_on_c, 7, 67, 107
10, 58020, Note_on_c, 7, 67, 0
10, 58032, Note_on_c, 7, 71, 108
10, 58068, Note_on_c, 7, 71, 0
10, 58080, Note_on_c, 7, 69, 109
10, 58116, Note_on_c, 7, 69, 0
10, 58128, Note_on_c, 7, 71, 110
10, 58164, Note_on_c, 7, 71, 0
10, 58176, Note_on_c, 7, 72, 118
10, 58212, Note_on_c, 7, 72, 0
10, 58224, Note_on_c, 7, 60, 118
10, 58260, Note_on_c, 7, 60, 0
10, 58272, Note_on_c, 7, 60, 118
10, 58308, Note_on_c, 7, 60, 0
10, 58320, Note_on_c, 7, 60, 118
10, 58356, Note_on_c, 7, 60, 0
10, 58368, Note_on_c, 7, 60, 118
10, 58404, Note_on_c, 7, 60, 0
10, 58416, Note_on_c, 7, 60, 118
10, 58452, Note_on_c, 7, 60, 0
10, 58464, Note_on_c, 7, 60, 118
10, 58500, Note_on_c, 7, 60, 0
10, 58512, Note_on_c, 7, 60, 118
10, 58548, Note_on_c, 7, 60, 0
10, 58560, Note_on_c, 7, 60, 118
10, 58596, Note_on_c, 7, 60, 0
10, 58608, Note_on_c, 7, 60, 118
10, 58644, Note_on_c, 7, 60, 0
10, 58656, Note_on_c, 7, 60, 118
10, 58692, Note_on_c, 7, 60, 0
10, 58704, Note_on_c, 7, 60, 118
10, 58740, Note_on_c, 7, 60, 0
10, 58752, Note_on_c, 7, 70, 118
10, 58788, Note_on_c, 7, 70, 0
10, 58800, Note_on_c, 7, 60, 118
10, 58836, Note_on_c, 7, 60, 0
10, 58848, Note_on_c, 7, 60, 118
10, 58884, Note_on_c, 7, 60, 0
10, 58896, Note_on_c, 7, 60, 118
10, 58932, Note_on_c, 7, 60, 0
10, 58944, Note_on_c, 7, 60, 118
10, 58980, Note_on_c, 7, 60, 0
10, 58992, Note_on_c, 7, 60, 118
10, 59028, Note_on_c, 7, 60, 0
10, 59040, Note_on_c, 7, 60, 118
10, 59076, Note_on_c, 7, 60, 0
10, 59088, Note_on_c, 7, 60, 118
10, 59124, Note_on_c, 7, 60, 0
10, 59136, Note_on_c, 7, 60, 118
10, 59172, Note_on_c, 7, 60, 0
10, 59184, Note_on_c, 7, 60, 118
10, 59220, Note_on_c, 7, 60, 0
10, 59232, Note_on_c, 7, 60, 118
10, 59268, Note_on_c, 7, 60, 0
10, 59280, Note_on_c, 7, 60, 118
10, 59316, Note_on_c, 7, 60, 0
10, 59328, Note_on_c, 7, 68, 118
10, 59364, Note_on_c, 7, 68, 0
10, 59376, Note_on_c, 7, 60, 118
10, 59412, Note_on_c, 7, 60, 0
10, 59424, Note_on_c, 7, 60, 118
10, 59460, Note_on_c, 7, 60, 0
10, 59472, Note_on_c, 7, 60, 118
10, 59508, Note_on_c, 7, 60, 0
10, 59520, Note_on_c, 7, 60, 118
10, 59556, Note_on_c, 7, 60, 0
10, 59568, Note_on_c, 7, 60, 118
10, 59604, Note_on_c, 7, 60, 0
10, 59616, Note_on_c, 7, 60, 118
10, 59652, Note_on_c, 7, 60, 0
10, 59664, Note_on_c, 7, 60, 118
10, 59700, Note_on_c, 7, 60, 0
10, 59712, Note_on_c, 7, 60, 118
10, 59748, Note_on_c, 7, 60, 0
10, 59760, Note_on_c, 7, 60, 118
10, 59796, Note_on_c, 7, 60, 0
10, 59808, Note_on_c, 7, 60, 118
10, 59844, Note_on_c, 7, 60, 0
10, 59856, Note_on_c, 7, 60, 118
10, 59892, Note_on_c, 7, 60, 0
10, 59904, Note_on_c, 7, 67, 118
10, 59940, Note_on_c, 7, 67, 0
10, 59952, Note_on_c, 7, 60, 118
10, 59988, Note_on_c, 7, 60, 0
10, 60000, Note_on_c, 7, 60, 118
10, 60036, Note_on_c, 7, 60, 0
10, 60048, Note_on_c, 7, 60, 118
10, 60084, Note_on_c, 7, 60, 0
10, 60096, Note_on_c, 7, 60, 118
10, 60132, Note_on_c, 7, 60, 0
10, 60144, Note_on_c, 7, 60, 118
10, 60180, Note_on_c, 7, 60, 0
10, 60192, Note_on_c, 7, 60, 118
10, 60228, Note_on_c, 7, 60, 0
10, 60240, Note_on_c, 7, 60, 118
10, 60276, Note_on_c, 7, 60, 0
10, 60288, Note_on_c, 7, 60, 118
10, 60384, Note_on_c, 7, 60, 0
10, 66816, Note_on_c, 7, 60, 127
10, 66852, Note_on_c, 7, 60, 0
10, 66864, Note_on_c, 7, 60, 127
10, 66900, Note_on_c, 7, 60, 0
10, 66912, Note_on_c, 7, 60, 127
10, 66948, Note_on_c, 7, 60, 0
10, 66960, Note_on_c, 7, 60, 127
10, 66996, Note_on_c, 7, 60, 0
10, 67008, Note_on_c, 7, 60, 127
10, 67044, Note_on_c, 7, 60, 0
10, 67056, Note_on_c, 7, 60, 127
10, 67092, Note_on_c, 7, 60, 0
10, 67104, Note_on_c, 7, 60, 127
10, 67140, Note_on_c, 7, 60, 0
10, 67152, Note_on_c, 7, 60, 127
10, 67188, Note_on_c, 7, 60, 0
10, 67200, Note_on_c, 7, 60, 127
10, 67236, Note_on_c, 7, 60, 0
10, 67248, Note_on_c, 7, 60, 127
10, 67284, Note_on_c, 7, 60, 0
10, 67296, Note_on_c, 7, 60, 127
10, 67332, Note_on_c, 7, 60, 0
10, 67344, Note_on_c, 7, 60, 127
10, 67380, Note_on_c, 7, 60, 0
10, 67392, Note_on_c, 7, 68, 127
10, 67428, Note_on_c, 7, 68, 0
10, 67440, Note_on_c, 7, 60, 127
10, 67476, Note_on_c, 7, 60, 0
10, 67488, Note_on_c, 7, 60, 127
10, 67524, Note_on_c, 7, 60, 0
10, 67536, Note_on_c, 7, 60, 127
10, 67572, Note_on_c, 7, 60, 0
10, 67584, Note_on_c, 7, 68, 127
10, 67620, Note_on_c, 7, 68, 0
10, 67632, Note_on_c, 7, 60, 127
10, 67668, Note_on_c, 7, 60, 0
10, 67680, Note_on_c, 7, 60, 127
10, 67716, Note_on_c, 7, 60, 0
10, 67728, Note_on_c, 7, 60, 127
10, 67764, Note_on_c, 7, 60, 0
10, 67776, Note_on_c, 7, 68, 127
10, 67812, Note_on_c, 7, 68, 0
10, 67824, Note_on_c, 7, 60, 127
10, 67860, Note_on_c, 7, 60, 0
10, 67872, Note_on_c, 7, 60, 127
10, 67908, Note_on_c, 7, 60, 0
10, 67920, Note_on_c, 7, 60, 127
10, 67956, Note_on_c, 7, 60, 0
10, 67968, Note_on_c, 7, 59, 127
10, 68004, Note_on_c, 7, 59, 0
10, 68016, Note_on_c, 7, 59, 127
10, 68052, Note_on_c, 7, 59, 0
10, 68064, Note_on_c, 7, 59, 127
10, 68100, Note_on_c, 7, 59, 0
10, 68112, Note_on_c, 7, 59, 127
10, 68148, Note_on_c, 7, 59, 0
10, 68160, Note_on_c, 7, 59, 127
10, 68196, Note_on_c, 7, 59, 0
10, 68208, Note_on_c, 7, 59, 127
10, 68244, Note_on_c, 7, 59, 0
10, 68256, Note_on_c, 7, 59, 127
10, 68292, Note_on_c, 7, 59, 0
10, 68304, Note_on_c, 7, 59, 127
10, 68340, Note_on_c, 7, 59, 0
10, 68352, Note_on_c, 7, 59, 127
10, 68388, Note_on_c, 7, 59, 0
10, 68400, Note_on_c, 7, 59, 127
10, 68436, Note_on_c, 7, 59, 0
10, 68448, Note_on_c, 7, 59, 127
10, 68484, Note_on_c, 7, 59, 0
10, 68496, Note_on_c, 7, 59, 127
10, 68532, Note_on_c, 7, 59, 0
10, 68544, Note_on_c, 7, 67, 127
10, 68580, Note_on_c, 7, 67, 0
10, 68592, Note_on_c, 7, 58, 127
10, 68628, Note_on_c, 7, 58, 0
10, 68640, Note_on_c, 7, 58, 127
10, 68676, Note_on_c, 7, 58, 0
10, 68688, Note_on_c, 7, 58, 127
10, 68724, Note_on_c, 7, 58, 0
10, 68736, Note_on_c, 7, 67, 127
10, 68772, Note_on_c, 7, 67, 0
10, 68784, Note_on_c, 7, 58, 127
10, 68820, Note_on_c, 7, 58, 0
10, 68832, Note_on_c, 7, 58, 127
10, 68868, Note_on_c, 7, 58, 0
10, 68880, Note_on_c, 7, 58, 127
10, 68916, Note_on_c, 7, 58, 0
10, 68928, Note_on_c, 7, 67, 127
10, 68964, Note_on_c, 7, 67, 0
10, 68976, Note_on_c, 7, 58, 127
10, 69012, Note_on_c, 7, 58, 0
10, 69024, Note_on_c, 7, 58, 127
10, 69060, Note_on_c, 7, 58, 0
10, 69072, Note_on_c, 7, 58, 127
10, 69108, Note_on_c, 7, 58, 0
10, 69120, Note_on_c, 7, 57, 127
10, 69156, Note_on_c, 7, 57, 0
10, 69168, Note_on_c, 7, 57, 127
10, 69204, Note_on_c, 7, 57, 0
10, 69216, Note_on_c, 7, 57, 127
10, 69252, Note_on_c, 7, 57, 0
10, 69264, Note_on_c, 7, 57, 127
10, 69300, Note_on_c, 7, 57, 0
10, 69312, Note_on_c, 7, 57, 127
10, 69348, Note_on_c, 7, 57, 0
10, 69360, Note_on_c, 7, 57, 127
10, 69396, Note_on_c, 7, 57, 0
10, 69408, Note_on_c, 7, 57, 127
10, 69444, Note_on_c, 7, 57, 0
10, 69456, Note_on_c, 7, 57, 127
10, 69492, Note_on_c, 7, 57, 0
10, 69504, Note_on_c, 7, 57, 127
10, 69540, Note_on_c, 7, 57, 0
10, 69552, Note_on_c, 7, 57, 127
10, 69588, Note_on_c, 7, 57, 0
10, 69600, Note_on_c, 7, 57, 127
10, 69636, Note_on_c, 7, 57, 0
10, 69648, Note_on_c, 7, 57, 127
10, 69684, Note_on_c, 7, 57, 0
10, 69696, Note_on_c, 7, 65, 127
10, 69732, Note_on_c, 7, 65, 0
10, 69744, Note_on_c, 7, 56, 127
10, 69780, Note_on_c, 7, 56, 0
10, 69792, Note_on_c, 7, 56, 127
10, 69828, Note_on_c, 7, 56, 0
10, 69840, Note_on_c, 7, 56, 127
10, 69876, Note_on_c, 7, 56, 0
10, 69888, Note_on_c, 7, 65, 127
10, 69924, Note_on_c, 7, 65, 0
10, 69936, Note_on_c, 7, 56, 127
10, 69972, Note_on_c, 7, 56, 0
10, 69984, Note_on_c, 7, 56, 127
10, 70020, Note_on_c, 7, 56, 0
10, 70032, Note_on_c, 7, 56, 127
10, 70068, Note_on_c, 7, 56, 0
10, 70080, Note_on_c, 7, 65, 127
10, 70116, Note_on_c, 7, 65, 0
10, 70128, Note_on_c, 7, 56, 127
10, 70164, Note_on_c, 7, 56, 0
10, 70176, Note_on_c, 7, 56, 127
10, 70212, Note_on_c, 7, 56, 0
10, 70224, Note_on_c, 7, 56, 127
10, 70260, Note_on_c, 7, 56, 0
10, 70272, Note_on_c, 7, 55, 127
10, 70308, Note_on_c, 7, 55, 0
10, 70320, Note_on_c, 7, 67, 127
10, 70356, Note_on_c, 7, 67, 0
10, 70368, Note_on_c, 7, 67, 127
10, 70404, Note_on_c, 7, 67, 0
10, 70416, Note_on_c, 7, 67, 127
10, 70452, Note_on_c, 7, 67, 0
10, 70464, Note_on_c, 7, 67, 127
10, 70500, Note_on_c, 7, 67, 0
10, 70512, Note_on_c, 7, 67, 127
10, 70548, Note_on_c, 7, 67, 0
10, 70560, Note_on_c, 7, 67, 127
10, 70596, Note_on_c, 7, 67, 0
10, 70608, Note_on_c, 7, 67, 127
10, 70644, Note_on_c, 7, 67, 0
10, 70656, Note_on_c, 7, 67, 127
10, 70692, Note_on_c, 7, 67, 0
10, 70704, Note_on_c, 7, 67, 127
10, 70740, Note_on_c, 7, 67, 0
10, 70752, Note_on_c, 7, 67, 127
10, 70788, Note_on_c, 7, 67, 0
10, 70800, Note_on_c, 7, 67, 127
10, 70836, Note_on_c, 7, 67, 0
10, 70848, Note_on_c, 7, 75, 127
10, 70884, Note_on_c, 7, 75, 0
10, 70896, Note_on_c, 7, 67, 127
10, 70932, Note_on_c, 7, 67, 0
10, 70944, Note_on_c, 7, 67, 127
10, 70980, Note_on_c, 7, 67, 0
10, 70992, Note_on_c, 7, 67, 127
10, 71028, Note_on_c, 7, 67, 0
10, 71040, Note_on_c, 7, 75, 127
10, 71076, Note_on_c, 7, 75, 0
10, 71088, Note_on_c, 7, 67, 127
10, 71124, Note_on_c, 7, 67, 0
10, 71136, Note_on_c, 7, 67, 127
10, 71172, Note_on_c, 7, 67, 0
10, 71184, Note_on_c, 7, 67, 127
10, 71220, Note_on_c, 7, 67, 0
10, 71232, Note_on_c, 7, 75, 127
10, 71268, Note_on_c, 7, 75, 0
10, 71280, Note_on_c, 7, 67, 127
10, 71316, Note_on_c, 7, 67, 0
10, 71328, Note_on_c, 7, 67, 127
10, 71364, Note_on_c, 7, 67, 0
10, 71376, Note_on_c, 7, 67, 127
10, 71412, Note_on_c, 7, 67, 0
10, 71424, Note_on_c, 7, 66, 127
10, 71460, Note_on_c, 7, 66, 0
10, 71472, Note_on_c, 7, 66, 127
10, 71508, Note_on_c, 7, 66, 0
10, 71520, Note_on_c, 7, 66, 127
10, 71556, Note_on_c, 7, 66, 0
10, 71568, Note_on_c, 7, 66, 127
10, 71604, Note_on_c, 7, 66, 0
10, 71616, Note_on_c, 7, 66, 127
10, 71652, Note_on_c, 7, 66, 0
10, 71664, Note_on_c, 7, 66, 127
10, 71700, Note_on_c, 7, 66, 0
10, 71712, Note_on_c, 7, 66, 127
10, 71748, Note_on_c, 7, 66, 0
10, 71760, Note_on_c, 7, 66, 127
10, 71796, Note_on_c, 7, 66, 0
10, 71808, Note_on_c, 7, 66, 127
10, 71844, Note_on_c, 7, 66, 0
10, 71856, Note_on_c, 7, 66, 127
10, 71892, Note_on_c, 7, 66, 0
10, 71904, Note_on_c, 7, 66, 127
10, 71940, Note_on_c, 7, 66, 0
10, 71952, Note_on_c, 7, 66, 127
10, 71988, Note_on_c, 7, 66, 0
10, 72000, Note_on_c, 7, 74, 127
10, 72036, Note_on_c, 7, 74, 0
10, 72048, Note_on_c, 7, 65, 127
10, 72084, Note_on_c, 7, 65, 0
10, 72096, Note_on_c, 7, 65, 127
10, 72132, Note_on_c, 7, 65, 0
10, 72144, Note_on_c, 7, 65, 127
10, 72180, Note_on_c, 7, 65, 0
10, 72192, Note_on_c, 7, 74, 127
10, 72228, Note_on_c, 7, 74, 0
10, 72240, Note_on_c, 7, 65, 127
10, 72276, Note_on_c, 7, 65, 0
10, 72288, Note_on_c, 7, 65, 127
10, 72324, Note_on_c, 7, 65, 0
10, 72336, Note_on_c, 7, 65, 127
10, 72372, Note_on_c, 7, 65, 0
10, 72384, Note_on_c, 7, 74, 127
10, 72420, Note_on_c, 7, 74, 0
10, 72432, Note_on_c, 7, 65, 127
10, 72468, Note_on_c, 7, 65, 0
10, 72480, Note_on_c, 7, 65, 127
10, 72516, Note_on_c, 7, 65, 0
10, 72528, Note_on_c, 7, 65, 127
10, 72564, Note_on_c, 7, 65, 0
10, 72576, Note_on_c, 7, 64, 127
10, 72612, Note_on_c, 7, 64, 0
10, 72624, Note_on_c, 7, 64, 127
10, 72660, Note_on_c, 7, 64, 0
10, 72672, Note_on_c, 7, 64, 127
10, 72708, Note_on_c, 7, 64, 0
10, 72720, Note_on_c, 7, 64, 127
10, 72756, Note_on_c, 7, 64, 0
10, 72768, Note_on_c, 7, 64, 127
10, 72804, Note_on_c, 7, 64, 0
10, 72816, Note_on_c, 7, 64, 127
10, 72852, Note_on_c, 7, 64, 0
10, 72864, Note_on_c, 7, 64, 127
10, 72900, Note_on_c, 7, 64, 0
10, 72912, Note_on_c, 7, 64, 127
10, 72948, Note_on_c, 7, 64, 0
10, 72960, Note_on_c, 7, 64, 127
10, 72996, Note_on_c, 7, 64, 0
10, 73008, Note_on_c, 7, 64, 127
10, 73044, Note_on_c, 7, 64, 0
10, 73056, Note_on_c, 7, 64, 127
10, 73092, Note_on_c, 7, 64, 0
10, 73104, Note_on_c, 7, 64, 127
10, 73140, Note_on_c, 7, 64, 0
10, 73152, Note_on_c, 7, 72, 127
10, 73188, Note_on_c, 7, 72, 0
10, 73200, Note_on_c, 7, 63, 127
10, 73236, Note_on_c, 7, 63, 0
10, 73248, Note_on_c, 7, 63, 127
10, 73284, Note_on_c, 7, 63, 0
10, 73296, Note_on_c, 7, 63, 127
10, 73332, Note_on_c, 7, 63, 0
10, 73344, Note_on_c, 7, 72, 127
10, 73380, Note_on_c, 7, 72, 0
10, 73392, Note_on_c, 7, 63, 127
10, 73428, Note_on_c, 7, 63, 0
10, 73440, Note_on_c, 7, 63, 127
10, 73476, Note_on_c, 7, 63, 0
10, 73488, Note_on_c, 7, 63, 127
10, 73524, Note_on_c, 7, 63, 0
10, 73536, Note_on_c, 7, 72, 127
10, 73572, Note_on_c, 7, 72, 0
10, 73584, Note_on_c, 7, 63, 127
10, 73620, Note_on_c, 7, 63, 0
10, 73632, Note_on_c, 7, 63, 127
10, 73668, Note_on_c, 7, 63, 0
10, 73680, Note_on_c, 7, 63, 127
10, 73716, Note_on_c, 7, 63, 0
10, 73728, Note_on_c, 7, 62, 127
10, 73920, Note_on_c, 7, 62, 0
10, 76656, Note_on_c, 7, 74, 127
10, 76692, Note_on_c, 7, 74, 0
10, 76704, Note_on_c, 7, 72, 127
10, 76740, Note_on_c, 7, 72, 0
10, 76752, Note_on_c, 7, 70, 127
10, 76788, Note_on_c, 7, 70, 0
10, 76800, Note_on_c, 7, 69, 127
10, 76836, Note_on_c, 7, 69, 0
10, 76848, Note_on_c, 7, 67, 127
10, 76884, Note_on_c, 7, 67, 0
10, 76896, Note_on_c, 7, 66, 127
10, 76932, Note_on_c, 7, 66, 0
10, 76944, Note_on_c, 7, 64, 127
10, 76980, Note_on_c, 7, 64, 0
10, 76992, Note_on_c, 7, 62, 127
10, 77028, Note_on_c, 7, 62, 0
10, 77040, Note_on_c, 7, 60, 127
10, 77076, Note_on_c, 7, 60, 0
10, 77088, Note_on_c, 7, 58, 127
10, 77124, Note_on_c, 7, 58, 0
10, 77136, Note_on_c, 7, 57, 127
10, 77172, Note_on_c, 7, 57, 0
10, 77184, Note_on_c, 7, 55, 127
10, 77220, Note_on_c, 7, 55, 0
10, 77232, Note_on_c, 7, 55, 127
10, 77268, Note_on_c, 7, 55, 0
10, 77280, Note_on_c, 7, 55, 127
10, 77316, Note_on_c, 7, 55, 0
10, 77328, Note_on_c, 7, 55, 127
10, 77364, Note_on_c, 7, 55, 0
10, 77376, Note_on_c, 7, 55, 127
10, 77412, Note_on_c, 7, 55, 0
10, 77424, Note_on_c, 7, 55, 127
10, 77460, Note_on_c, 7, 55, 0
10, 77472, Note_on_c, 7, 55, 127
10, 77508, Note_on_c, 7, 55, 0
10, 77520, Note_on_c, 7, 55, 127
10, 77556, Note_on_c, 7, 55, 0
10, 77568, Note_on_c, 7, 55, 127
10, 77604, Note_on_c, 7, 55, 0
10, 77616, Note_on_c, 7, 55, 127
10, 77652, Note_on_c, 7, 55, 0
10, 77664, Note_on_c, 7, 55, 127
10, 77700, Note_on_c, 7, 55, 0
10, 77712, Note_on_c, 7, 55, 127
10, 77748, Note_on_c, 7, 55, 0
10, 77760, Note_on_c, 7, 63, 127
10, 77796, Note_on_c, 7, 63, 0
10, 77808, Note_on_c, 7, 79, 127
10, 77844, Note_on_c, 7, 79, 0
10, 77856, Note_on_c, 7, 77, 127
10, 77892, Note_on_c, 7, 77, 0
10, 77904, Note_on_c, 7, 75, 127
10, 77940, Note_on_c, 7, 75, 0
10, 77952, Note_on_c, 7, 74, 127
10, 77988, Note_on_c, 7, 74, 0
10, 78000, Note_on_c, 7, 72, 127
10, 78036, Note_on_c, 7, 72, 0
10, 78048, Note_on_c, 7, 70, 127
10, 78084, Note_on_c, 7, 70, 0
10, 78096, Note_on_c, 7, 69, 127
10, 78132, Note_on_c, 7, 69, 0
10, 78144, Note_on_c, 7, 67, 127
10, 78180, Note_on_c, 7, 67, 0
10, 78192, Note_on_c, 7, 65, 127
10, 78228, Note_on_c, 7, 65, 0
10, 78240, Note_on_c, 7, 63, 127
10, 78276, Note_on_c, 7, 63, 0
10, 78288, Note_on_c, 7, 62, 127
10, 78324, Note_on_c, 7, 62, 0
10, 78336, Note_on_c, 7, 60, 127
10, 78372, Note_on_c, 7, 60, 0
10, 78384, Note_on_c, 7, 60, 127
10, 78420, Note_on_c, 7, 60, 0
10, 78432, Note_on_c, 7, 60, 127
10, 78468, Note_on_c, 7, 60, 0
10, 78480, Note_on_c, 7, 60, 127
10, 78516, Note_on_c, 7, 60, 0
10, 78528, Note_on_c, 7, 60, 127
10, 78564, Note_on_c, 7, 60, 0
10, 78576, Note_on_c, 7, 60, 127
10, 78612, Note_on_c, 7, 60, 0
10, 78624, Note_on_c, 7, 60, 127
10, 78660, Note_on_c, 7, 60, 0
10, 78672, Note_on_c, 7, 60, 127
10, 78708, Note_on_c, 7, 60, 0
10, 78720, Note_on_c, 7, 60, 127
10, 78756, Note_on_c, 7, 60, 0
10, 78768, Note_on_c, 7, 60, 127
10, 78804, Note_on_c, 7, 60, 0
10, 78816, Note_on_c, 7, 60, 127
10, 78852, Note_on_c, 7, 60, 0
10, 78864, Note_on_c, 7, 60, 127
10, 78900, Note_on_c, 7, 60, 0
10, 78912, Note_on_c, 7, 67, 127
10, 78948, Note_on_c, 7, 67, 0
10, 78960, Note_on_c, 7, 82, 127
10, 78996, Note_on_c, 7, 82, 0
10, 79008, Note_on_c, 7, 81, 127
10, 79044, Note_on_c, 7, 81, 0
10, 79056, Note_on_c, 7, 79, 127
10, 79092, Note_on_c, 7, 79, 0
10, 79104, Note_on_c, 7, 77, 127
10, 79140, Note_on_c, 7, 77, 0
10, 79152, Note_on_c, 7, 75, 127
10, 79188, Note_on_c, 7, 75, 0
10, 79200, Note_on_c, 7, 74, 127
10, 79236, Note_on_c, 7, 74, 0
10, 79248, Note_on_c, 7, 72, 127
10, 79284, Note_on_c, 7, 72, 0
10, 79296, Note_on_c, 7, 70, 127
10, 79332, Note_on_c, 7, 70, 0
10, 79344, Note_on_c, 7, 69, 127
10, 79380, Note_on_c, 7, 69, 0
10, 79392, Note_on_c, 7, 67, 127
10, 79428, Note_on_c, 7, 67, 0
10, 79440, Note_on_c, 7, 65, 127
10, 79476, Note_on_c, 7, 65, 0
10, 79488, Note_on_c, 7, 63, 127
10, 79524, Note_on_c, 7, 63, 0
10, 79536, Note_on_c, 7, 63, 127
10, 79572, Note_on_c, 7, 63, 0
10, 79584, Note_on_c, 7, 63, 127
10, 79620, Note_on_c, 7, 63, 0
10, 79632, Note_on_c, 7, 63, 127
10, 79668, Note_on_c, 7, 63, 0
10, 79680, Note_on_c, 7, 63, 127
10, 79716, Note_on_c, 7, 63, 0
10, 79728, Note_on_c, 7, 63, 127
10, 79764, Note_on_c, 7, 63, 0
10, 79776, Note_on_c, 7, 63, 127
10, 79812, Note_on_c, 7, 63, 0
10, 79824, Note_on_c, 7, 63, 127
10, 79860, Note_on_c, 7, 63, 0
10, 79872, Note_on_c, 7, 63, 127
10, 79908, Note_on_c, 7, 63, 0
10, 79920, Note_on_c, 7, 63, 127
10, 79956, Note_on_c, 7, 63, 0
10, 79968, Note_on_c, 7, 63, 127
10, 80004, Note_on_c, 7, 63, 0
10, 80016, Note_on_c, 7, 63, 127
10, 80052, Note_on_c, 7, 63, 0
10, 80064, Note_on_c, 7, 70, 127
10, 80100, Note_on_c, 7, 70, 0
10, 80112, Note_on_c, 7, 86, 127
10, 80148, Note_on_c, 7, 86, 0
10, 80160, Note_on_c, 7, 84, 127
10, 80196, Note_on_c, 7, 84, 0
10, 80208, Note_on_c, 7, 82, 127
10, 80244, Note_on_c, 7, 82, 0
10, 80256, Note_on_c, 7, 81, 127
10, 80292, Note_on_c, 7, 81, 0
10, 80304, Note_on_c, 7, 79, 127
10, 80340, Note_on_c, 7, 79, 0
10, 80352, Note_on_c, 7, 78, 127
10, 80388, Note_on_c, 7, 78, 0
10, 80400, Note_on_c, 7, 76, 127
10, 80436, Note_on_c, 7, 76, 0
10, 80448, Note_on_c, 7, 74, 127
10, 80484, Note_on_c, 7, 74, 0
10, 80496, Note_on_c, 7, 72, 127
10, 80532, Note_on_c, 7, 72, 0
10, 80544, Note_on_c, 7, 70, 127
10, 80580, Note_on_c, 7, 70, 0
10, 80592, Note_on_c, 7, 69, 127
10, 80628, Note_on_c, 7, 69, 0
10, 80640, Note_on_c, 7, 67, 127
10, 80832, Note_on_c, 7, 67, 0
10, 80832, Note_on_c, 7, 55, 127
10, 81024, Note_on_c, 7, 55, 0
10, 81024, Note_on_c, 7, 55, 127
10, 81216, Note_on_c, 7, 55, 0
10, 81216, Note_on_c, 7, 55, 127
10, 81408, Note_on_c, 7, 55, 0
10, 81408, Note_on_c, 7, 55, 127
10, 81600, Note_on_c, 7, 55, 0
10, 81600, Note_on_c, 7, 55, 127
10, 81792, Note_on_c, 7, 55, 0
10, 81792, Note_on_c, 7, 55, 127
10, 81984, Note_on_c, 7, 55, 0
10, 81984, Note_on_c, 7, 55, 127
10, 82176, Note_on_c, 7, 55, 0
10, 82176, Note_on_c, 7, 55, 127
10, 82368, Note_on_c, 7, 55, 0
10, 82368, Note_on_c, 7, 55, 127
10, 82560, Note_on_c, 7, 55, 0
10, 82560, Note_on_c, 7, 55, 127
10, 82752, Note_on_c, 7, 55, 0
10, 82752, Note_on_c, 7, 55, 127
10, 82944, Note_on_c, 7, 55, 0
10, 82944, Note_on_c, 7, 55, 127
10, 82992, Note_on_c, 7, 55, 0
10, 82992, Note_on_c, 7, 67, 127
10, 83028, Note_on_c, 7, 67, 0
10, 83040, Note_on_c, 7, 69, 127
10, 83076, Note_on_c, 7, 69, 0
10, 83088, Note_on_c, 7, 70, 127
10, 83124, Note_on_c, 7, 70, 0
10, 83136, Note_on_c, 7, 72, 127
10, 83172, Note_on_c, 7, 72, 0
10, 83184, Note_on_c, 7, 74, 127
10, 83220, Note_on_c, 7, 74, 0
10, 83232, Note_on_c, 7, 75, 127
10, 83268, Note_on_c, 7, 75, 0
10, 83280, Note_on_c, 7, 78, 127
10, 83316, Note_on_c, 7, 78, 0
10, 83328, Note_on_c, 7, 79, 127
10, 83364, Note_on_c, 7, 79, 0
10, 83376, Note_on_c, 7, 81, 127
10, 83412, Note_on_c, 7, 81, 0
10, 83424, Note_on_c, 7, 82, 127
10, 83460, Note_on_c, 7, 82, 0
10, 83472, Note_on_c, 7, 81, 127
10, 83508, Note_on_c, 7, 81, 0
10, 83520, Note_on_c, 7, 79, 127
10, 83556, Note_on_c, 7, 79, 0
10, 83568, Note_on_c, 7, 77, 127
10, 83604, Note_on_c, 7, 77, 0
10, 83616, Note_on_c, 7, 75, 127
10, 83652, Note_on_c, 7, 75, 0
10, 83664, Note_on_c, 7, 74, 127
10, 83700, Note_on_c, 7, 74, 0
10, 83712, Note_on_c, 7, 72, 127
10, 83748, Note_on_c, 7, 72, 0
10, 83760, Note_on_c, 7, 70, 127
10, 83796, Note_on_c, 7, 70, 0
10, 83808, Note_on_c, 7, 69, 127
10, 83844, Note_on_c, 7, 69, 0
10, 83856, Note_on_c, 7, 67, 127
10, 83892, Note_on_c, 7, 67, 0
10, 83904, Note_on_c, 7, 66, 127
10, 83940, Note_on_c, 7, 66, 0
10, 83952, Note_on_c, 7, 64, 127
10, 83988, Note_on_c, 7, 64, 0
10, 84000, Note_on_c, 7, 62, 127
10, 84036, Note_on_c, 7, 62, 0
10, 84048, Note_on_c, 7, 60, 127
10, 84084, Note_on_c, 7, 60, 0
10, 84096, Note_on_c, 7, 58, 127
10, 84132, Note_on_c, 7, 58, 0
10, 84144, Note_on_c, 7, 55, 127
10, 84180, Note_on_c, 7, 55, 0
10, 84192, Note_on_c, 7, 58, 127
10, 84228, Note_on_c, 7, 58, 0
10, 84240, Note_on_c, 7, 55, 127
10, 84276, Note_on_c, 7, 55, 0
10, 84288, Note_on_c, 7, 58, 127
10, 84324, Note_on_c, 7, 58, 0
10, 84336, Note_on_c, 7, 55, 127
10, 84372, Note_on_c, 7, 55, 0
10, 84384, Note_on_c, 7, 58, 127
10, 84420, Note_on_c, 7, 58, 0
10, 84432, Note_on_c, 7, 55, 127
10, 84468, Note_on_c, 7, 55, 0
10, 84480, Note_on_c, 7, 58, 127
10, 84516, Note_on_c, 7, 58, 0
10, 84528, Note_on_c, 7, 55, 127
10, 84564, Note_on_c, 7, 55, 0
10, 84576, Note_on_c, 7, 58, 127
10, 84612, Note_on_c, 7, 58, 0
10, 84624, Note_on_c, 7, 55, 127
10, 84660, Note_on_c, 7, 55, 0
10, 84672, Note_on_c, 7, 62, 127
10, 84864, Note_on_c, 7, 62, 0
10, 86976, Note_on_c, 7, 62, 127
10, 87012, Note_on_c, 7, 62, 0
10, 87024, Note_on_c, 7, 62, 127
10, 87060, Note_on_c, 7, 62, 0
10, 87072, Note_on_c, 7, 62, 127
10, 87108, Note_on_c, 7, 62, 0
10, 87120, Note_on_c, 7, 62, 127
10, 87156, Note_on_c, 7, 62, 0
10, 87168, Note_on_c, 7, 62, 127
10, 87204, Note_on_c, 7, 62, 0
10, 87216, Note_on_c, 7, 62, 127
10, 87252, Note_on_c, 7, 62, 0
10, 87264, Note_on_c, 7, 62, 127
10, 87300, Note_on_c, 7, 62, 0
10, 87312, Note_on_c, 7, 62, 127
10, 87348, Note_on_c, 7, 62, 0
10, 87360, Note_on_c, 7, 62, 127
10, 87396, Note_on_c, 7, 62, 0
10, 87408, Note_on_c, 7, 62, 127
10, 87444, Note_on_c, 7, 62, 0
10, 87456, Note_on_c, 7, 62, 127
10, 87492, Note_on_c, 7, 62, 0
10, 87504, Note_on_c, 7, 62, 127
10, 87540, Note_on_c, 7, 62, 0
10, 87552, Note_on_c, 7, 67, 127
10, 87588, Note_on_c, 7, 67, 0
10, 87600, Note_on_c, 7, 62, 127
10, 87636, Note_on_c, 7, 62, 0
10, 87648, Note_on_c, 7, 58, 127
10, 87684, Note_on_c, 7, 58, 0
10, 87696, Note_on_c, 7, 55, 127
10, 87732, Note_on_c, 7, 55, 0
10, 87744, Note_on_c, 7, 67, 127
10, 87780, Note_on_c, 7, 67, 0
10, 87792, Note_on_c, 7, 62, 127
10, 87828, Note_on_c, 7, 62, 0
10, 87840, Note_on_c, 7, 58, 127
10, 87876, Note_on_c, 7, 58, 0
10, 87888, Note_on_c, 7, 55, 127
10, 87924, Note_on_c, 7, 55, 0
10, 87936, Note_on_c, 7, 67, 127
10, 87972, Note_on_c, 7, 67, 0
10, 87984, Note_on_c, 7, 62, 127
10, 88020, Note_on_c, 7, 62, 0
10, 88032, Note_on_c, 7, 58, 127
10, 88068, Note_on_c, 7, 58, 0
10, 88080, Note_on_c, 7, 55, 127
10, 88116, Note_on_c, 7, 55, 0
10, 88128, Note_on_c, 7, 57, 127
10, 88164, Note_on_c, 7, 57, 0
10, 88176, Note_on_c, 7, 57, 127
10, 88212, Note_on_c, 7, 57, 0
10, 88224, Note_on_c, 7, 57, 127
10, 88260, Note_on_c, 7, 57, 0
10, 88272, Note_on_c, 7, 57, 127
10, 88308, Note_on_c, 7, 57, 0
10, 88320, Note_on_c, 7, 57, 127
10, 88356, Note_on_c, 7, 57, 0
10, 88368, Note_on_c, 7, 57, 127
10, 88404, Note_on_c, 7, 57, 0
10, 88416, Note_on_c, 7, 57, 127
10, 88452, Note_on_c, 7, 57, 0
10, 88464, Note_on_c, 7, 57, 127
10, 88500, Note_on_c, 7, 57, 0
10, 88512, Note_on_c, 7, 57, 127
10, 88548, Note_on_c, 7, 57, 0
10, 88560, Note_on_c, 7, 57, 127
10, 88596, Note_on_c, 7, 57, 0
10, 88608, Note_on_c, 7, 57, 127
10, 88644, Note_on_c, 7, 57, 0
10, 88656, Note_on_c, 7, 57, 127
10, 88692, Note_on_c, 7, 57, 0
10, 88704, Note_on_c, 7, 57, 127
10, 88740, Note_on_c, 7, 57, 0
10, 88752, Note_on_c, 7, 57, 127
10, 88788, Note_on_c, 7, 57, 0
10, 88800, Note_on_c, 7, 57, 127
10, 88836, Note_on_c, 7, 57, 0
10, 88848, Note_on_c, 7, 57, 127
10, 88884, Note_on_c, 7, 57, 0
10, 88896, Note_on_c, 7, 57, 127
10, 88932, Note_on_c, 7, 57, 0
10, 88944, Note_on_c, 7, 57, 127
10, 88980, Note_on_c, 7, 57, 0
10, 88992, Note_on_c, 7, 57, 127
10, 89028, Note_on_c, 7, 57, 0
10, 89040, Note_on_c, 7, 57, 127
10, 89076, Note_on_c, 7, 57, 0
10, 89088, Note_on_c, 7, 57, 127
10, 89124, Note_on_c, 7, 57, 0
10, 89136, Note_on_c, 7, 57, 127
10, 89172, Note_on_c, 7, 57, 0
10, 89184, Note_on_c, 7, 57, 127
10, 89220, Note_on_c, 7, 57, 0
10, 89232, Note_on_c, 7, 57, 127
10, 89268, Note_on_c, 7, 57, 0
10, 89280, Note_on_c, 7, 67, 127
10, 89316, Note_on_c, 7, 67, 0
10, 89328, Note_on_c, 7, 62, 127
10, 89364, Note_on_c, 7, 62, 0
10, 89376, Note_on_c, 7, 58, 127
10, 89412, Note_on_c, 7, 58, 0
10, 89424, Note_on_c, 7, 55, 127
10, 89460, Note_on_c, 7, 55, 0
10, 89472, Note_on_c, 7, 67, 127
10, 89508, Note_on_c, 7, 67, 0
10, 89520, Note_on_c, 7, 62, 127
10, 89556, Note_on_c, 7, 62, 0
10, 89568, Note_on_c, 7, 58, 127
10, 89604, Note_on_c, 7, 58, 0
10, 89616, Note_on_c, 7, 55, 127
10, 89652, Note_on_c, 7, 55, 0
10, 89664, Note_on_c, 7, 67, 127
10, 89700, Note_on_c, 7, 67, 0
10, 89712, Note_on_c, 7, 62, 127
10, 89748, Note_on_c, 7, 62, 0
10, 89760, Note_on_c, 7, 58, 127
10, 89796, Note_on_c, 7, 58, 0
10, 89808, Note_on_c, 7, 55, 127
10, 89844, Note_on_c, 7, 55, 0
10, 89856, Note_on_c, 7, 57, 127
10, 89892, Note_on_c, 7, 57, 0
10, 89904, Note_on_c, 7, 57, 127
10, 89940, Note_on_c, 7, 57, 0
10, 89952, Note_on_c, 7, 57, 127
10, 89988, Note_on_c, 7, 57, 0
10, 90000, Note_on_c, 7, 57, 127
10, 90036, Note_on_c, 7, 57, 0
10, 90048, Note_on_c, 7, 57, 127
10, 90084, Note_on_c, 7, 57, 0
10, 90096, Note_on_c, 7, 57, 127
10, 90132, Note_on_c, 7, 57, 0
10, 90144, Note_on_c, 7, 57, 127
10, 90180, Note_on_c, 7, 57, 0
10, 90192, Note_on_c, 7, 57, 127
10, 90228, Note_on_c, 7, 57, 0
10, 90240, Note_on_c, 7, 57, 127
10, 90276, Note_on_c, 7, 57, 0
10, 90288, Note_on_c, 7, 57, 127
10, 90324, Note_on_c, 7, 57, 0
10, 90336, Note_on_c, 7, 57, 127
10, 90372, Note_on_c, 7, 57, 0
10, 90384, Note_on_c, 7, 57, 127
10, 90420, Note_on_c, 7, 57, 0
10, 90432, Note_on_c, 7, 57, 127
10, 90468, Note_on_c, 7, 57, 0
10, 90480, Note_on_c, 7, 57, 127
10, 90516, Note_on_c, 7, 57, 0
10, 90528, Note_on_c, 7, 57, 127
10, 90564, Note_on_c, 7, 57, 0
10, 90576, Note_on_c, 7, 57, 127
10, 90612, Note_on_c, 7, 57, 0
10, 90624, Note_on_c, 7, 57, 127
10, 90660, Note_on_c, 7, 57, 0
10, 90672, Note_on_c, 7, 57, 127
10, 90708, Note_on_c, 7, 57, 0
10, 90720, Note_on_c, 7, 57, 127
10, 90756, Note_on_c, 7, 57, 0
10, 90768, Note_on_c, 7, 57, 127
10, 90804, Note_on_c, 7, 57, 0
10, 90816, Note_on_c, 7, 57, 127
10, 90852, Note_on_c, 7, 57, 0
10, 90864, Note_on_c, 7, 57, 127
10, 90900, Note_on_c, 7, 57, 0
10, 90912, Note_on_c, 7, 57, 127
10, 90948, Note_on_c, 7, 57, 0
10, 90960, Note_on_c, 7, 57, 127
10, 90996, Note_on_c, 7, 57, 0
10, 91008, Note_on_c, 7, 58, 127
10, 91044, Note_on_c, 7, 58, 0
10, 91056, Note_on_c, 7, 62, 127
10, 91092, Note_on_c, 7, 62, 0
10, 91104, Note_on_c, 7, 62, 127
10, 91140, Note_on_c, 7, 62, 0
10, 91152, Note_on_c, 7, 62, 127
10, 91188, Note_on_c, 7, 62, 0
10, 91200, Note_on_c, 7, 67, 127
10, 91236, Note_on_c, 7, 67, 0
10, 91248, Note_on_c, 7, 67, 127
10, 91284, Note_on_c, 7, 67, 0
10, 91296, Note_on_c, 7, 67, 127
10, 91332, Note_on_c, 7, 67, 0
10, 91344, Note_on_c, 7, 67, 127
10, 91380, Note_on_c, 7, 67, 0
10, 91392, Note_on_c, 7, 70, 127
10, 91428, Note_on_c, 7, 70, 0
10, 91440, Note_on_c, 7, 70, 127
10, 91476, Note_on_c, 7, 70, 0
10, 91488, Note_on_c, 7, 70, 127
10, 91524, Note_on_c, 7, 70, 0
10, 91536, Note_on_c, 7, 70, 127
10, 91572, Note_on_c, 7, 70, 0
10, 91584, Note_on_c, 7, 74, 127
10, 91620, Note_on_c, 7, 74, 0
10, 91632, Note_on_c, 7, 74, 127
10, 91668, Note_on_c, 7, 74, 0
10, 91680, Note_on_c, 7, 74, 127
10, 91716, Note_on_c, 7, 74, 0
10, 91728, Note_on_c, 7, 74, 127
10, 91764, Note_on_c, 7, 74, 0
10, 91776, Note_on_c, 7, 79, 127
10, 91812, Note_on_c, 7, 79, 0
10, 91824, Note_on_c, 7, 79, 127
10, 91860, Note_on_c, 7, 79, 0
10, 91872, Note_on_c, 7, 79, 127
10, 91908, Note_on_c, 7, 79, 0
10, 91920, Note_on_c, 7, 79, 127
10, 91956, Note_on_c, 7, 79, 0
10, 91968, Note_on_c, 7, 82, 127
10, 92004, Note_on_c, 7, 82, 0
10, 92016, Note_on_c, 7, 82, 127
10, 92052, Note_on_c, 7, 82, 0
10, 92064, Note_on_c, 7, 82, 127
10, 92100, Note_on_c, 7, 82, 0
10, 92112, Note_on_c, 7, 82, 127
10, 92148, Note_on_c, 7, 82, 0
10, 92160, Note_on_c, 7, 79, 127
10, 92196, Note_on_c, 7, 79, 0
10, 92208, Note_on_c, 7, 79, 127
10, 92244, Note_on_c, 7, 79, 0
10, 92256, Note_on_c, 7, 79, 127
10, 92292, Note_on_c, 7, 79, 0
10, 92304, Note_on_c, 7, 79, 127
10, 92340, Note_on_c, 7, 79, 0
10, 92352, Note_on_c, 7, 74, 127
10, 92388, Note_on_c, 7, 74, 0
10, 92400, Note_on_c, 7, 74, 127
10, 92436, Note_on_c, 7, 74, 0
10, 92448, Note_on_c, 7, 74, 127
10, 92484, Note_on_c, 7, 74, 0
10, 92496, Note_on_c, 7, 74, 127
10, 92532, Note_on_c, 7, 74, 0
10, 92544, Note_on_c, 7, 70, 127
10, 92580, Note_on_c, 7, 70, 0
10, 92592, Note_on_c, 7, 70, 127
10, 92628, Note_on_c, 7, 70, 0
10, 92640, Note_on_c, 7, 70, 127
10, 92676, Note_on_c, 7, 70, 0
10, 92688, Note_on_c, 7, 70, 127
10, 92724, Note_on_c, 7, 70, 0
10, 92928, Note_on_c, 7, 55, 127
10, 93312, Note_on_c, 7, 55, 0
10, 93312, End_track
11, 0, Start_track
11, 0, MIDI_port, 0
11, 0, Title_t, "viola Bite          "
11, 0, Program_c, 8, 41
11, 0, Control_c, 8, 7, 60
11, 0, Control_c, 8, 10, 34
11, 1920, Note_on_c, 8, 55, 127
11, 1920, Control_c, 8, 7, 127
11, 2016, Note_on_c, 8, 55, 0
11, 2016, Note_on_c, 8, 55, 127
11, 2064, Note_on_c, 8, 55, 0
11, 2064, Note_on_c, 8, 55, 127
11, 2112, Note_on_c, 8, 55, 0
11, 2112, Note_on_c, 8, 55, 127
11, 2160, Note_on_c, 8, 55, 0
11, 2160, Note_on_c, 8, 55, 127
11, 2208, Note_on_c, 8, 55, 0
11, 2208, Note_on_c, 8, 55, 127
11, 2256, Note_on_c, 8, 55, 0
11, 2256, Note_on_c, 8, 55, 127
11, 2304, Note_on_c, 8, 55, 0
11, 2304, Note_on_c, 8, 55, 127
11, 2352, Note_on_c, 8, 55, 0
11, 2352, Note_on_c, 8, 55, 127
11, 2400, Note_on_c, 8, 55, 0
11, 2400, Note_on_c, 8, 55, 127
11, 2448, Note_on_c, 8, 55, 0
11, 2448, Note_on_c, 8, 55, 127
11, 2496, Note_on_c, 8, 55, 0
11, 2496, Note_on_c, 8, 55, 127
11, 2544, Note_on_c, 8, 55, 0
11, 2544, Note_on_c, 8, 55, 127
11, 2592, Note_on_c, 8, 55, 0
11, 2592, Note_on_c, 8, 55, 127
11, 2640, Note_on_c, 8, 55, 0
11, 2640, Note_on_c, 8, 55, 127
11, 2688, Note_on_c, 8, 55, 0
11, 2688, Note_on_c, 8, 55, 127
11, 2880, Note_on_c, 8, 55, 0
11, 5760, Control_c, 8, 7, 127
11, 5760, Note_on_c, 8, 58, 127
11, 5856, Note_on_c, 8, 58, 0
11, 5856, Note_on_c, 8, 58, 127
11, 5904, Note_on_c, 8, 58, 0
11, 5904, Note_on_c, 8, 58, 127
11, 5952, Note_on_c, 8, 58, 0
11, 5952, Note_on_c, 8, 58, 127
11, 6000, Note_on_c, 8, 58, 0
11, 6000, Note_on_c, 8, 58, 127
11, 6048, Note_on_c, 8, 58, 0
11, 6048, Note_on_c, 8, 58, 127
11, 6096, Note_on_c, 8, 58, 0
11, 6096, Note_on_c, 8, 58, 127
11, 6144, Note_on_c, 8, 58, 0
11, 6144, Note_on_c, 8, 58, 127
11, 6192, Note_on_c, 8, 58, 0
11, 6192, Note_on_c, 8, 58, 127
11, 6240, Note_on_c, 8, 58, 0
11, 6240, Note_on_c, 8, 58, 127
11, 6288, Note_on_c, 8, 58, 0
11, 6288, Note_on_c, 8, 58, 127
11, 6336, Note_on_c, 8, 58, 0
11, 6336, Note_on_c, 8, 58, 127
11, 6384, Note_on_c, 8, 58, 0
11, 6384, Note_on_c, 8, 58, 127
11, 6432, Note_on_c, 8, 58, 0
11, 6432, Note_on_c, 8, 58, 127
11, 6480, Note_on_c, 8, 58, 0
11, 6480, Note_on_c, 8, 58, 127
11, 6528, Note_on_c, 8, 58, 0
11, 6528, Note_on_c, 8, 58, 127
11, 6720, Note_on_c, 8, 58, 0
11, 11520, Control_c, 8, 7, 127
11, 11520, Note_on_c, 8, 55, 127
11, 11616, Note_on_c, 8, 55, 0
11, 11616, Note_on_c, 8, 55, 127
11, 11648, Note_on_c, 8, 55, 0
11, 11664, Note_on_c, 8, 55, 127
11, 11696, Note_on_c, 8, 55, 0
11, 11712, Note_on_c, 8, 55, 127
11, 11744, Note_on_c, 8, 55, 0
11, 11760, Note_on_c, 8, 55, 127
11, 11792, Note_on_c, 8, 55, 0
11, 11808, Note_on_c, 8, 55, 127
11, 11840, Note_on_c, 8, 55, 0
11, 11856, Note_on_c, 8, 55, 127
11, 11888, Note_on_c, 8, 55, 0
11, 11904, Note_on_c, 8, 55, 127
11, 11936, Note_on_c, 8, 55, 0
11, 11952, Note_on_c, 8, 55, 127
11, 11984, Note_on_c, 8, 55, 0
11, 12000, Note_on_c, 8, 55, 127
11, 12032, Note_on_c, 8, 55, 0
11, 12048, Note_on_c, 8, 55, 127
11, 12080, Note_on_c, 8, 55, 0
11, 12096, Note_on_c, 8, 55, 127
11, 12128, Note_on_c, 8, 55, 0
11, 12144, Note_on_c, 8, 55, 127
11, 12176, Note_on_c, 8, 55, 0
11, 12192, Note_on_c, 8, 55, 127
11, 12224, Note_on_c, 8, 55, 0
11, 12240, Note_on_c, 8, 55, 127
11, 12272, Note_on_c, 8, 55, 0
11, 12288, Note_on_c, 8, 55, 127
11, 12480, Note_on_c, 8, 55, 0
11, 14592, Control_c, 8, 7, 127
11, 14592, Note_on_c, 8, 55, 127
11, 14688, Note_on_c, 8, 55, 0
11, 14688, Note_on_c, 8, 55, 127
11, 14720, Note_on_c, 8, 55, 0
11, 14736, Note_on_c, 8, 55, 127
11, 14768, Note_on_c, 8, 55, 0
11, 14784, Note_on_c, 8, 55, 127
11, 14816, Note_on_c, 8, 55, 0
11, 14832, Note_on_c, 8, 55, 127
11, 14864, Note_on_c, 8, 55, 0
11, 14880, Note_on_c, 8, 55, 127
11, 14912, Note_on_c, 8, 55, 0
11, 14928, Note_on_c, 8, 55, 127
11, 14960, Note_on_c, 8, 55, 0
11, 14976, Note_on_c, 8, 55, 127
11, 15008, Note_on_c, 8, 55, 0
11, 15024, Note_on_c, 8, 55, 127
11, 15056, Note_on_c, 8, 55, 0
11, 15072, Note_on_c, 8, 55, 127
11, 15104, Note_on_c, 8, 55, 0
11, 15120, Note_on_c, 8, 55, 127
11, 15152, Note_on_c, 8, 55, 0
11, 15168, Note_on_c, 8, 55, 127
11, 15200, Note_on_c, 8, 55, 0
11, 15216, Note_on_c, 8, 55, 127
11, 15248, Note_on_c, 8, 55, 0
11, 15264, Note_on_c, 8, 55, 127
11, 15296, Note_on_c, 8, 55, 0
11, 15312, Note_on_c, 8, 55, 127
11, 15344, Note_on_c, 8, 55, 0
11, 15360, Note_on_c, 8, 55, 127
11, 15552, Note_on_c, 8, 55, 0
11, 15720, Control_c, 8, 7, 60
11, 17688, Control_c, 8, 7, 100
11, 18432, Note_on_c, 8, 67, 127
11, 18468, Note_on_c, 8, 67, 0
11, 18480, Note_on_c, 8, 55, 127
11, 18516, Note_on_c, 8, 55, 0
11, 18528, Note_on_c, 8, 55, 127
11, 18564, Note_on_c, 8, 55, 0
11, 18576, Note_on_c, 8, 55, 127
11, 18612, Note_on_c, 8, 55, 0
11, 18624, Note_on_c, 8, 55, 127
11, 18660, Note_on_c, 8, 55, 0
11, 18672, Note_on_c, 8, 55, 127
11, 18708, Note_on_c, 8, 55, 0
11, 18720, Note_on_c, 8, 55, 127
11, 18756, Note_on_c, 8, 55, 0
11, 18768, Note_on_c, 8, 55, 127
11, 18804, Note_on_c, 8, 55, 0
11, 18816, Note_on_c, 8, 55, 127
11, 18852, Note_on_c, 8, 55, 0
11, 18864, Note_on_c, 8, 55, 127
11, 18900, Note_on_c, 8, 55, 0
11, 18912, Note_on_c, 8, 55, 127
11, 18948, Note_on_c, 8, 55, 0
11, 18960, Note_on_c, 8, 55, 127
11, 18996, Note_on_c, 8, 55, 0
11, 19008, Note_on_c, 8, 65, 127
11, 19044, Note_on_c, 8, 65, 0
11, 19056, Note_on_c, 8, 55, 127
11, 19092, Note_on_c, 8, 55, 0
11, 19104, Note_on_c, 8, 55, 127
11, 19140, Note_on_c, 8, 55, 0
11, 19152, Note_on_c, 8, 55, 127
11, 19188, Note_on_c, 8, 55, 0
11, 19200, Note_on_c, 8, 55, 127
11, 19236, Note_on_c, 8, 55, 0
11, 19248, Note_on_c, 8, 55, 127
11, 19284, Note_on_c, 8, 55, 0
11, 19296, Note_on_c, 8, 55, 127
11, 19332, Note_on_c, 8, 55, 0
11, 19344, Note_on_c, 8, 55, 127
11, 19380, Note_on_c, 8, 55, 0
11, 19392, Note_on_c, 8, 55, 127
11, 19428, Note_on_c, 8, 55, 0
11, 19440, Note_on_c, 8, 55, 127
11, 19476, Note_on_c, 8, 55, 0
11, 19488, Note_on_c, 8, 55, 127
11, 19524, Note_on_c, 8, 55, 0
11, 19536, Note_on_c, 8, 55, 127
11, 19572, Note_on_c, 8, 55, 0
11, 19584, Note_on_c, 8, 63, 127
11, 19620, Note_on_c, 8, 63, 0
11, 19632, Note_on_c, 8, 55, 127
11, 19668, Note_on_c, 8, 55, 0
11, 19680, Note_on_c, 8, 55, 127
11, 19716, Note_on_c, 8, 55, 0
11, 19728, Note_on_c, 8, 55, 127
11, 19764, Note_on_c, 8, 55, 0
11, 19776, Note_on_c, 8, 55, 127
11, 19812, Note_on_c, 8, 55, 0
11, 19824, Note_on_c, 8, 55, 127
11, 19860, Note_on_c, 8, 55, 0
11, 19872, Note_on_c, 8, 55, 127
11, 19908, Note_on_c, 8, 55, 0
11, 19920, Note_on_c, 8, 55, 127
11, 19956, Note_on_c, 8, 55, 0
11, 19968, Note_on_c, 8, 55, 127
11, 20004, Note_on_c, 8, 55, 0
11, 20016, Note_on_c, 8, 55, 127
11, 20052, Note_on_c, 8, 55, 0
11, 20064, Note_on_c, 8, 55, 127
11, 20100, Note_on_c, 8, 55, 0
11, 20112, Note_on_c, 8, 55, 127
11, 20148, Note_on_c, 8, 55, 0
11, 20160, Note_on_c, 8, 62, 127
11, 20196, Note_on_c, 8, 62, 0
11, 20208, Note_on_c, 8, 55, 127
11, 20244, Note_on_c, 8, 55, 0
11, 20256, Note_on_c, 8, 55, 127
11, 20292, Note_on_c, 8, 55, 0
11, 20304, Note_on_c, 8, 55, 127
11, 20340, Note_on_c, 8, 55, 0
11, 20352, Note_on_c, 8, 55, 127
11, 20388, Note_on_c, 8, 55, 0
11, 20400, Note_on_c, 8, 55, 127
11, 20436, Note_on_c, 8, 55, 0
11, 20448, Note_on_c, 8, 55, 127
11, 20484, Note_on_c, 8, 55, 0
11, 20496, Note_on_c, 8, 55, 127
11, 20532, Note_on_c, 8, 55, 0
11, 20544, Note_on_c, 8, 55, 127
11, 20580, Note_on_c, 8, 55, 0
11, 21312, Note_on_c, 8, 74, 127
11, 21348, Note_on_c, 8, 74, 0
11, 21360, Note_on_c, 8, 62, 127
11, 21396, Note_on_c, 8, 62, 0
11, 21408, Note_on_c, 8, 62, 127
11, 21444, Note_on_c, 8, 62, 0
11, 21456, Note_on_c, 8, 62, 127
11, 21492, Note_on_c, 8, 62, 0
11, 21504, Note_on_c, 8, 62, 127
11, 21540, Note_on_c, 8, 62, 0
11, 21552, Note_on_c, 8, 62, 127
11, 21588, Note_on_c, 8, 62, 0
11, 21600, Note_on_c, 8, 62, 127
11, 21636, Note_on_c, 8, 62, 0
11, 21648, Note_on_c, 8, 62, 127
11, 21684, Note_on_c, 8, 62, 0
11, 21696, Note_on_c, 8, 62, 127
11, 21732, Note_on_c, 8, 62, 0
11, 21744, Note_on_c, 8, 62, 127
11, 21780, Note_on_c, 8, 62, 0
11, 21792, Note_on_c, 8, 62, 127
11, 21828, Note_on_c, 8, 62, 0
11, 21840, Note_on_c, 8, 62, 127
11, 21876, Note_on_c, 8, 62, 0
11, 21888, Note_on_c, 8, 72, 127
11, 21924, Note_on_c, 8, 72, 0
11, 21936, Note_on_c, 8, 62, 127
11, 21972, Note_on_c, 8, 62, 0
11, 21984, Note_on_c, 8, 62, 127
11, 22020, Note_on_c, 8, 62, 0
11, 22032, Note_on_c, 8, 62, 127
11, 22068, Note_on_c, 8, 62, 0
11, 22080, Note_on_c, 8, 62, 127
11, 22116, Note_on_c, 8, 62, 0
11, 22128, Note_on_c, 8, 62, 127
11, 22164, Note_on_c, 8, 62, 0
11, 22176, Note_on_c, 8, 62, 127
11, 22212, Note_on_c, 8, 62, 0
11, 22224, Note_on_c, 8, 62, 127
11, 22260, Note_on_c, 8, 62, 0
11, 22272, Note_on_c, 8, 62, 127
11, 22308, Note_on_c, 8, 62, 0
11, 22320, Note_on_c, 8, 62, 127
11, 22356, Note_on_c, 8, 62, 0
11, 22368, Note_on_c, 8, 62, 127
11, 22404, Note_on_c, 8, 62, 0
11, 22416, Note_on_c, 8, 62, 127
11, 22452, Note_on_c, 8, 62, 0
11, 22464, Note_on_c, 8, 70, 127
11, 22500, Note_on_c, 8, 70, 0
11, 22512, Note_on_c, 8, 62, 127
11, 22548, Note_on_c, 8, 62, 0
11, 22560, Note_on_c, 8, 62, 127
11, 22596, Note_on_c, 8, 62, 0
11, 22608, Note_on_c, 8, 62, 127
11, 22644, Note_on_c, 8, 62, 0
11, 22656, Note_on_c, 8, 62, 127
11, 22692, Note_on_c, 8, 62, 0
11, 22704, Note_on_c, 8, 62, 127
11, 22740, Note_on_c, 8, 62, 0
11, 22752, Note_on_c, 8, 62, 127
11, 22788, Note_on_c, 8, 62, 0
11, 22800, Note_on_c, 8, 62, 127
11, 22836, Note_on_c, 8, 62, 0
11, 22848, Note_on_c, 8, 62, 127
11, 22884, Note_on_c, 8, 62, 0
11, 22896, Note_on_c, 8, 62, 127
11, 22932, Note_on_c, 8, 62, 0
11, 22944, Note_on_c, 8, 62, 127
11, 22980, Note_on_c, 8, 62, 0
11, 22992, Note_on_c, 8, 62, 127
11, 23028, Note_on_c, 8, 62, 0
11, 23040, Note_on_c, 8, 69, 127
11, 23076, Note_on_c, 8, 69, 0
11, 23088, Note_on_c, 8, 62, 127
11, 23124, Note_on_c, 8, 62, 0
11, 23136, Note_on_c, 8, 62, 127
11, 23172, Note_on_c, 8, 62, 0
11, 23184, Note_on_c, 8, 62, 127
11, 23220, Note_on_c, 8, 62, 0
11, 23232, Note_on_c, 8, 62, 127
11, 23268, Note_on_c, 8, 62, 0
11, 23280, Note_on_c, 8, 62, 127
11, 23316, Note_on_c, 8, 62, 0
11, 23328, Note_on_c, 8, 62, 127
11, 23364, Note_on_c, 8, 62, 0
11, 23376, Note_on_c, 8, 62, 127
11, 23412, Note_on_c, 8, 62, 0
11, 23424, Note_on_c, 8, 62, 127
11, 23460, Note_on_c, 8, 62, 0
11, 24192, Note_on_c, 8, 55, 127
11, 24228, Note_on_c, 8, 55, 0
11, 24240, Note_on_c, 8, 55, 127
11, 24276, Note_on_c, 8, 55, 0
11, 24288, Note_on_c, 8, 55, 127
11, 24324, Note_on_c, 8, 55, 0
11, 24336, Note_on_c, 8, 55, 127
11, 24372, Note_on_c, 8, 55, 0
11, 24384, Note_on_c, 8, 55, 127
11, 24420, Note_on_c, 8, 55, 0
11, 24432, Note_on_c, 8, 55, 127
11, 24468, Note_on_c, 8, 55, 0
11, 24480, Note_on_c, 8, 55, 127
11, 24516, Note_on_c, 8, 55, 0
11, 24528, Note_on_c, 8, 55, 127
11, 24564, Note_on_c, 8, 55, 0
11, 24576, Note_on_c, 8, 55, 127
11, 24612, Note_on_c, 8, 55, 0
11, 24624, Note_on_c, 8, 55, 127
11, 24660, Note_on_c, 8, 55, 0
11, 24672, Note_on_c, 8, 55, 127
11, 24708, Note_on_c, 8, 55, 0
11, 24720, Note_on_c, 8, 55, 127
11, 24756, Note_on_c, 8, 55, 0
11, 24768, Note_on_c, 8, 55, 127
11, 24804, Note_on_c, 8, 55, 0
11, 24816, Note_on_c, 8, 55, 127
11, 24852, Note_on_c, 8, 55, 0
11, 24864, Note_on_c, 8, 55, 127
11, 24900, Note_on_c, 8, 55, 0
11, 24912, Note_on_c, 8, 55, 127
11, 24948, Note_on_c, 8, 55, 0
11, 24960, Note_on_c, 8, 55, 127
11, 24996, Note_on_c, 8, 55, 0
11, 25008, Note_on_c, 8, 55, 127
11, 25044, Note_on_c, 8, 55, 0
11, 25056, Note_on_c, 8, 55, 127
11, 25092, Note_on_c, 8, 55, 0
11, 25104, Note_on_c, 8, 55, 127
11, 25140, Note_on_c, 8, 55, 0
11, 25152, Note_on_c, 8, 55, 127
11, 25188, Note_on_c, 8, 55, 0
11, 25200, Note_on_c, 8, 55, 127
11, 25236, Note_on_c, 8, 55, 0
11, 25248, Note_on_c, 8, 55, 127
11, 25284, Note_on_c, 8, 55, 0
11, 25296, Note_on_c, 8, 55, 127
11, 25332, Note_on_c, 8, 55, 0
11, 25344, Note_on_c, 8, 60, 127
11, 25380, Note_on_c, 8, 60, 0
11, 25392, Note_on_c, 8, 60, 127
11, 25428, Note_on_c, 8, 60, 0
11, 25440, Note_on_c, 8, 60, 127
11, 25476, Note_on_c, 8, 60, 0
11, 25488, Note_on_c, 8, 60, 127
11, 25524, Note_on_c, 8, 60, 0
11, 25536, Note_on_c, 8, 60, 127
11, 25572, Note_on_c, 8, 60, 0
11, 25584, Note_on_c, 8, 60, 127
11, 25620, Note_on_c, 8, 60, 0
11, 25632, Note_on_c, 8, 60, 127
11, 25668, Note_on_c, 8, 60, 0
11, 25680, Note_on_c, 8, 60, 127
11, 25716, Note_on_c, 8, 60, 0
11, 25728, Note_on_c, 8, 60, 127
11, 25764, Note_on_c, 8, 60, 0
11, 25776, Note_on_c, 8, 60, 127
11, 25812, Note_on_c, 8, 60, 0
11, 25824, Note_on_c, 8, 60, 127
11, 25860, Note_on_c, 8, 60, 0
11, 25872, Note_on_c, 8, 60, 127
11, 25908, Note_on_c, 8, 60, 0
11, 25920, Note_on_c, 8, 60, 127
11, 25956, Note_on_c, 8, 60, 0
11, 25968, Note_on_c, 8, 60, 127
11, 26004, Note_on_c, 8, 60, 0
11, 26016, Note_on_c, 8, 60, 127
11, 26052, Note_on_c, 8, 60, 0
11, 26064, Note_on_c, 8, 60, 127
11, 26100, Note_on_c, 8, 60, 0
11, 26112, Note_on_c, 8, 60, 127
11, 26148, Note_on_c, 8, 60, 0
11, 26160, Note_on_c, 8, 60, 127
11, 26196, Note_on_c, 8, 60, 0
11, 26208, Note_on_c, 8, 60, 127
11, 26244, Note_on_c, 8, 60, 0
11, 26256, Note_on_c, 8, 60, 127
11, 26292, Note_on_c, 8, 60, 0
11, 26304, Note_on_c, 8, 60, 127
11, 26340, Note_on_c, 8, 60, 0
11, 26352, Note_on_c, 8, 60, 127
11, 26388, Note_on_c, 8, 60, 0
11, 26400, Note_on_c, 8, 60, 127
11, 26436, Note_on_c, 8, 60, 0
11, 26448, Note_on_c, 8, 60, 127
11, 26484, Note_on_c, 8, 60, 0
11, 26496, Note_on_c, 8, 63, 127
11, 26532, Note_on_c, 8, 63, 0
11, 26544, Note_on_c, 8, 63, 127
11, 26580, Note_on_c, 8, 63, 0
11, 26592, Note_on_c, 8, 63, 127
11, 26628, Note_on_c, 8, 63, 0
11, 26640, Note_on_c, 8, 63, 127
11, 26676, Note_on_c, 8, 63, 0
11, 26688, Note_on_c, 8, 63, 127
11, 26724, Note_on_c, 8, 63, 0
11, 26736, Note_on_c, 8, 63, 127
11, 26772, Note_on_c, 8, 63, 0
11, 26784, Note_on_c, 8, 63, 127
11, 26820, Note_on_c, 8, 63, 0
11, 26832, Note_on_c, 8, 63, 127
11, 26868, Note_on_c, 8, 63, 0
11, 26880, Note_on_c, 8, 63, 127
11, 26916, Note_on_c, 8, 63, 0
11, 26928, Note_on_c, 8, 63, 127
11, 26964, Note_on_c, 8, 63, 0
11, 26976, Note_on_c, 8, 63, 127
11, 27012, Note_on_c, 8, 63, 0
11, 27024, Note_on_c, 8, 63, 127
11, 27060, Note_on_c, 8, 63, 0
11, 27072, Note_on_c, 8, 63, 127
11, 27108, Note_on_c, 8, 63, 0
11, 27120, Note_on_c, 8, 63, 127
11, 27156, Note_on_c, 8, 63, 0
11, 27168, Note_on_c, 8, 63, 127
11, 27204, Note_on_c, 8, 63, 0
11, 27216, Note_on_c, 8, 63, 127
11, 27252, Note_on_c, 8, 63, 0
11, 27264, Note_on_c, 8, 63, 127
11, 27300, Note_on_c, 8, 63, 0
11, 27312, Note_on_c, 8, 63, 127
11, 27348, Note_on_c, 8, 63, 0
11, 27360, Note_on_c, 8, 63, 127
11, 27396, Note_on_c, 8, 63, 0
11, 27408, Note_on_c, 8, 63, 127
11, 27444, Note_on_c, 8, 63, 0
11, 27456, Note_on_c, 8, 63, 127
11, 27492, Note_on_c, 8, 63, 0
11, 27504, Note_on_c, 8, 63, 127
11, 27540, Note_on_c, 8, 63, 0
11, 27552, Note_on_c, 8, 63, 127
11, 27588, Note_on_c, 8, 63, 0
11, 27600, Note_on_c, 8, 63, 127
11, 27636, Note_on_c, 8, 63, 0
11, 27648, Note_on_c, 8, 67, 127
11, 27684, Note_on_c, 8, 67, 0
11, 27696, Note_on_c, 8, 67, 127
11, 27732, Note_on_c, 8, 67, 0
11, 27744, Note_on_c, 8, 67, 127
11, 27780, Note_on_c, 8, 67, 0
11, 27792, Note_on_c, 8, 67, 127
11, 27828, Note_on_c, 8, 67, 0
11, 27840, Note_on_c, 8, 67, 127
11, 27876, Note_on_c, 8, 67, 0
11, 27888, Note_on_c, 8, 67, 127
11, 27924, Note_on_c, 8, 67, 0
11, 27936, Note_on_c, 8, 67, 127
11, 27972, Note_on_c, 8, 67, 0
11, 27984, Note_on_c, 8, 67, 127
11, 28020, Note_on_c, 8, 67, 0
11, 28032, Note_on_c, 8, 67, 127
11, 28068, Note_on_c, 8, 67, 0
11, 28080, Note_on_c, 8, 67, 127
11, 28116, Note_on_c, 8, 67, 0
11, 28128, Note_on_c, 8, 67, 127
11, 28164, Note_on_c, 8, 67, 0
11, 28176, Note_on_c, 8, 67, 127
11, 28212, Note_on_c, 8, 67, 0
11, 28224, Note_on_c, 8, 67, 127
11, 28260, Note_on_c, 8, 67, 0
11, 28272, Note_on_c, 8, 67, 127
11, 28308, Note_on_c, 8, 67, 0
11, 28320, Note_on_c, 8, 67, 127
11, 28356, Note_on_c, 8, 67, 0
11, 28368, Note_on_c, 8, 67, 127
11, 28404, Note_on_c, 8, 67, 0
11, 28416, Note_on_c, 8, 67, 127
11, 28452, Note_on_c, 8, 67, 0
11, 28464, Note_on_c, 8, 67, 127
11, 28500, Note_on_c, 8, 67, 0
11, 28512, Note_on_c, 8, 67, 127
11, 28548, Note_on_c, 8, 67, 0
11, 28560, Note_on_c, 8, 67, 127
11, 28596, Note_on_c, 8, 67, 0
11, 28608, Note_on_c, 8, 67, 127
11, 28644, Note_on_c, 8, 67, 0
11, 28656, Note_on_c, 8, 67, 127
11, 28692, Note_on_c, 8, 67, 0
11, 28704, Note_on_c, 8, 67, 127
11, 28740, Note_on_c, 8, 67, 0
11, 28752, Note_on_c, 8, 67, 127
11, 28788, Note_on_c, 8, 67, 0
11, 28800, Note_on_c, 8, 67, 127
11, 28836, Note_on_c, 8, 67, 0
11, 28848, Note_on_c, 8, 67, 127
11, 28884, Note_on_c, 8, 67, 0
11, 28896, Note_on_c, 8, 67, 127
11, 28932, Note_on_c, 8, 67, 0
11, 28944, Note_on_c, 8, 67, 127
11, 28980, Note_on_c, 8, 67, 0
11, 28992, Note_on_c, 8, 67, 127
11, 29028, Note_on_c, 8, 67, 0
11, 29040, Note_on_c, 8, 67, 127
11, 29076, Note_on_c, 8, 67, 0
11, 29088, Note_on_c, 8, 67, 127
11, 29124, Note_on_c, 8, 67, 0
11, 29136, Note_on_c, 8, 67, 127
11, 29172, Note_on_c, 8, 67, 0
11, 29184, Note_on_c, 8, 67, 127
11, 29220, Note_on_c, 8, 67, 0
11, 29232, Note_on_c, 8, 67, 127
11, 29268, Note_on_c, 8, 67, 0
11, 29280, Note_on_c, 8, 67, 127
11, 29316, Note_on_c, 8, 67, 0
11, 29328, Note_on_c, 8, 67, 127
11, 29364, Note_on_c, 8, 67, 0
11, 29376, Note_on_c, 8, 67, 127
11, 29412, Note_on_c, 8, 67, 0
11, 29424, Note_on_c, 8, 67, 127
11, 29460, Note_on_c, 8, 67, 0
11, 29472, Note_on_c, 8, 67, 127
11, 29508, Note_on_c, 8, 67, 0
11, 29520, Note_on_c, 8, 67, 127
11, 29556, Note_on_c, 8, 67, 0
11, 29568, Note_on_c, 8, 74, 127
11, 29604, Note_on_c, 8, 74, 0
11, 29616, Note_on_c, 8, 67, 127
11, 29652, Note_on_c, 8, 67, 0
11, 29664, Note_on_c, 8, 67, 127
11, 29700, Note_on_c, 8, 67, 0
11, 29712, Note_on_c, 8, 67, 127
11, 29748, Note_on_c, 8, 67, 0
11, 29760, Note_on_c, 8, 74, 127
11, 29796, Note_on_c, 8, 74, 0
11, 29808, Note_on_c, 8, 67, 127
11, 29844, Note_on_c, 8, 67, 0
11, 29856, Note_on_c, 8, 67, 127
11, 29892, Note_on_c, 8, 67, 0
11, 29904, Note_on_c, 8, 67, 127
11, 29940, Note_on_c, 8, 67, 0
11, 29952, Note_on_c, 8, 66, 127
11, 30144, Note_on_c, 8, 66, 0
11, 30384, Note_on_c, 8, 74, 127
11, 30420, Note_on_c, 8, 74, 0
11, 30432, Note_on_c, 8, 69, 127
11, 30468, Note_on_c, 8, 69, 0
11, 30480, Note_on_c, 8, 66, 127
11, 30516, Note_on_c, 8, 66, 0
11, 30528, Note_on_c, 8, 62, 127
11, 30720, Note_on_c, 8, 62, 0
11, 30960, Note_on_c, 8, 74, 127
11, 30996, Note_on_c, 8, 74, 0
11, 31008, Note_on_c, 8, 69, 127
11, 31044, Note_on_c, 8, 69, 0
11, 31056, Note_on_c, 8, 66, 127
11, 31092, Note_on_c, 8, 66, 0
11, 31104, Note_on_c, 8, 67, 127
11, 31296, Note_on_c, 8, 67, 0
11, 31536, Note_on_c, 8, 74, 127
11, 31572, Note_on_c, 8, 74, 0
11, 31584, Note_on_c, 8, 70, 127
11, 31620, Note_on_c, 8, 70, 0
11, 31632, Note_on_c, 8, 67, 127
11, 31668, Note_on_c, 8, 67, 0
11, 31680, Note_on_c, 8, 66, 127
11, 31872, Note_on_c, 8, 66, 0
11, 32112, Note_on_c, 8, 74, 127
11, 32148, Note_on_c, 8, 74, 0
11, 32160, Note_on_c, 8, 69, 127
11, 32196, Note_on_c, 8, 69, 0
11, 32208, Note_on_c, 8, 66, 127
11, 32244, Note_on_c, 8, 66, 0
11, 32256, Note_on_c, 8, 62, 127
11, 32448, Note_on_c, 8, 62, 0
11, 32688, Note_on_c, 8, 74, 127
11, 32724, Note_on_c, 8, 74, 0
11, 32736, Note_on_c, 8, 69, 127
11, 32772, Note_on_c, 8, 69, 0
11, 32784, Note_on_c, 8, 66, 127
11, 32820, Note_on_c, 8, 66, 0
11, 32832, Note_on_c, 8, 62, 127
11, 33024, Note_on_c, 8, 62, 0
11, 33264, Note_on_c, 8, 74, 127
11, 33300, Note_on_c, 8, 74, 0
11, 33312, Note_on_c, 8, 69, 127
11, 33348, Note_on_c, 8, 69, 0
11, 33360, Note_on_c, 8, 66, 127
11, 33396, Note_on_c, 8, 66, 0
11, 33408, Note_on_c, 8, 67, 127
11, 33600, Note_on_c, 8, 67, 0
11, 33840, Note_on_c, 8, 74, 127
11, 33876, Note_on_c, 8, 74, 0
11, 33888, Note_on_c, 8, 70, 127
11, 33924, Note_on_c, 8, 70, 0
11, 33936, Note_on_c, 8, 67, 127
11, 33972, Note_on_c, 8, 67, 0
11, 33984, Note_on_c, 8, 66, 127
11, 34176, Note_on_c, 8, 66, 0
11, 34416, Note_on_c, 8, 74, 127
11, 34452, Note_on_c, 8, 74, 0
11, 34464, Note_on_c, 8, 69, 127
11, 34500, Note_on_c, 8, 69, 0
11, 34512, Note_on_c, 8, 66, 127
11, 34548, Note_on_c, 8, 66, 0
11, 34560, Note_on_c, 8, 62, 127
11, 34632, Note_on_c, 8, 62, 0
11, 34656, Note_on_c, 8, 62, 127
11, 34728, Note_on_c, 8, 62, 0
11, 34752, Note_on_c, 8, 62, 127
11, 34824, Note_on_c, 8, 62, 0
11, 34848, Note_on_c, 8, 62, 127
11, 34920, Note_on_c, 8, 62, 0
11, 34944, Note_on_c, 8, 62, 127
11, 35016, Note_on_c, 8, 62, 0
11, 35040, Note_on_c, 8, 62, 127
11, 35112, Note_on_c, 8, 62, 0
11, 35136, Note_on_c, 8, 62, 127
11, 35208, Note_on_c, 8, 62, 0
11, 35232, Note_on_c, 8, 62, 127
11, 35304, Note_on_c, 8, 62, 0
11, 35328, Note_on_c, 8, 62, 127
11, 35400, Note_on_c, 8, 62, 0
11, 35424, Note_on_c, 8, 62, 127
11, 35496, Note_on_c, 8, 62, 0
11, 35520, Note_on_c, 8, 62, 127
11, 35592, Note_on_c, 8, 62, 0
11, 35616, Note_on_c, 8, 62, 127
11, 35688, Note_on_c, 8, 62, 0
11, 35712, Note_on_c, 8, 62, 127
11, 35784, Note_on_c, 8, 62, 0
11, 35808, Note_on_c, 8, 62, 127
11, 35880, Note_on_c, 8, 62, 0
11, 35904, Note_on_c, 8, 62, 127
11, 35976, Note_on_c, 8, 62, 0
11, 36000, Note_on_c, 8, 62, 127
11, 36072, Note_on_c, 8, 62, 0
11, 36096, Note_on_c, 8, 62, 127
11, 36168, Note_on_c, 8, 62, 0
11, 36192, Note_on_c, 8, 62, 127
11, 36264, Note_on_c, 8, 62, 0
11, 36288, Note_on_c, 8, 59, 127
11, 36324, Note_on_c, 8, 59, 0
11, 36336, Note_on_c, 8, 62, 127
11, 36372, Note_on_c, 8, 62, 0
11, 36384, Note_on_c, 8, 59, 127
11, 36420, Note_on_c, 8, 59, 0
11, 36432, Note_on_c, 8, 62, 127
11, 36468, Note_on_c, 8, 62, 0
11, 36480, Note_on_c, 8, 59, 127
11, 36516, Note_on_c, 8, 59, 0
11, 36528, Note_on_c, 8, 62, 127
11, 36564, Note_on_c, 8, 62, 0
11, 36576, Note_on_c, 8, 59, 127
11, 36612, Note_on_c, 8, 59, 0
11, 36624, Note_on_c, 8, 62, 127
11, 36660, Note_on_c, 8, 62, 0
11, 36672, Note_on_c, 8, 59, 127
11, 36708, Note_on_c, 8, 59, 0
11, 36720, Note_on_c, 8, 62, 127
11, 36756, Note_on_c, 8, 62, 0
11, 36768, Note_on_c, 8, 59, 127
11, 36804, Note_on_c, 8, 59, 0
11, 36816, Note_on_c, 8, 62, 127
11, 36852, Note_on_c, 8, 62, 0
11, 36864, Note_on_c, 8, 60, 127
11, 36900, Note_on_c, 8, 60, 0
11, 36912, Note_on_c, 8, 63, 127
11, 36948, Note_on_c, 8, 63, 0
11, 36960, Note_on_c, 8, 60, 127
11, 36996, Note_on_c, 8, 60, 0
11, 37008, Note_on_c, 8, 63, 127
11, 37044, Note_on_c, 8, 63, 0
11, 37056, Note_on_c, 8, 60, 127
11, 37092, Note_on_c, 8, 60, 0
11, 37104, Note_on_c, 8, 63, 127
11, 37140, Note_on_c, 8, 63, 0
11, 37152, Note_on_c, 8, 60, 127
11, 37188, Note_on_c, 8, 60, 0
11, 37200, Note_on_c, 8, 63, 127
11, 37236, Note_on_c, 8, 63, 0
11, 37248, Note_on_c, 8, 60, 127
11, 37284, Note_on_c, 8, 60, 0
11, 37296, Note_on_c, 8, 63, 127
11, 37332, Note_on_c, 8, 63, 0
11, 37344, Note_on_c, 8, 60, 127
11, 37380, Note_on_c, 8, 60, 0
11, 37392, Note_on_c, 8, 63, 127
11, 37428, Note_on_c, 8, 63, 0
11, 37440, Note_on_c, 8, 61, 127
11, 37476, Note_on_c, 8, 61, 0
11, 37488, Note_on_c, 8, 64, 127
11, 37524, Note_on_c, 8, 64, 0
11, 37536, Note_on_c, 8, 61, 127
11, 37572, Note_on_c, 8, 61, 0
11, 37584, Note_on_c, 8, 64, 127
11, 37620, Note_on_c, 8, 64, 0
11, 37632, Note_on_c, 8, 61, 127
11, 37668, Note_on_c, 8, 61, 0
11, 37680, Note_on_c, 8, 64, 127
11, 37716, Note_on_c, 8, 64, 0
11, 37728, Note_on_c, 8, 61, 127
11, 37764, Note_on_c, 8, 61, 0
11, 37776, Note_on_c, 8, 64, 127
11, 37812, Note_on_c, 8, 64, 0
11, 37824, Note_on_c, 8, 61, 127
11, 37860, Note_on_c, 8, 61, 0
11, 37872, Note_on_c, 8, 64, 127
11, 37908, Note_on_c, 8, 64, 0
11, 37920, Note_on_c, 8, 61, 127
11, 37956, Note_on_c, 8, 61, 0
11, 37968, Note_on_c, 8, 64, 127
11, 38004, Note_on_c, 8, 64, 0
11, 38016, Note_on_c, 8, 62, 127
11, 38052, Note_on_c, 8, 62, 0
11, 38064, Note_on_c, 8, 65, 127
11, 38100, Note_on_c, 8, 65, 0
11, 38112, Note_on_c, 8, 62, 127
11, 38148, Note_on_c, 8, 62, 0
11, 38160, Note_on_c, 8, 65, 127
11, 38196, Note_on_c, 8, 65, 0
11, 38208, Note_on_c, 8, 62, 127
11, 38244, Note_on_c, 8, 62, 0
11, 38256, Note_on_c, 8, 65, 127
11, 38292, Note_on_c, 8, 65, 0
11, 38304, Note_on_c, 8, 62, 127
11, 38340, Note_on_c, 8, 62, 0
11, 38352, Note_on_c, 8, 65, 127
11, 38388, Note_on_c, 8, 65, 0
11, 38400, Note_on_c, 8, 62, 127
11, 38436, Note_on_c, 8, 62, 0
11, 38448, Note_on_c, 8, 65, 127
11, 38484, Note_on_c, 8, 65, 0
11, 38496, Note_on_c, 8, 62, 127
11, 38532, Note_on_c, 8, 62, 0
11, 38544, Note_on_c, 8, 65, 127
11, 38580, Note_on_c, 8, 65, 0
11, 38592, Note_on_c, 8, 62, 127
11, 38628, Note_on_c, 8, 62, 0
11, 38640, Note_on_c, 8, 64, 127
11, 38676, Note_on_c, 8, 64, 0
11, 38688, Note_on_c, 8, 62, 127
11, 38724, Note_on_c, 8, 62, 0
11, 38736, Note_on_c, 8, 64, 127
11, 38772, Note_on_c, 8, 64, 0
11, 38784, Note_on_c, 8, 62, 127
11, 38820, Note_on_c, 8, 62, 0
11, 38832, Note_on_c, 8, 64, 127
11, 38868, Note_on_c, 8, 64, 0
11, 38880, Note_on_c, 8, 62, 127
11, 38916, Note_on_c, 8, 62, 0
11, 38928, Note_on_c, 8, 64, 127
11, 38964, Note_on_c, 8, 64, 0
11, 38976, Note_on_c, 8, 62, 127
11, 39012, Note_on_c, 8, 62, 0
11, 39024, Note_on_c, 8, 64, 127
11, 39060, Note_on_c, 8, 64, 0
11, 39072, Note_on_c, 8, 62, 127
11, 39108, Note_on_c, 8, 62, 0
11, 39120, Note_on_c, 8, 64, 127
11, 39156, Note_on_c, 8, 64, 0
11, 39168, Note_on_c, 8, 61, 127
11, 39204, Note_on_c, 8, 61, 0
11, 39216, Note_on_c, 8, 64, 127
11, 39252, Note_on_c, 8, 64, 0
11, 39264, Note_on_c, 8, 61, 127
11, 39300, Note_on_c, 8, 61, 0
11, 39312, Note_on_c, 8, 64, 127
11, 39348, Note_on_c, 8, 64, 0
11, 39360, Note_on_c, 8, 61, 127
11, 39396, Note_on_c, 8, 61, 0
11, 39408, Note_on_c, 8, 64, 127
11, 39444, Note_on_c, 8, 64, 0
11, 39456, Note_on_c, 8, 61, 127
11, 39492, Note_on_c, 8, 61, 0
11, 39504, Note_on_c, 8, 64, 127
11, 39540, Note_on_c, 8, 64, 0
11, 39552, Note_on_c, 8, 61, 127
11, 39588, Note_on_c, 8, 61, 0
11, 39600, Note_on_c, 8, 64, 127
11, 39636, Note_on_c, 8, 64, 0
11, 39648, Note_on_c, 8, 61, 127
11, 39684, Note_on_c, 8, 61, 0
11, 39696, Note_on_c, 8, 64, 127
11, 39732, Note_on_c, 8, 64, 0
11, 39744, Note_on_c, 8, 62, 127
11, 39936, Note_on_c, 8, 62, 0
11, 49536, Note_on_c, 8, 62, 127
11, 49728, Note_on_c, 8, 62, 0
11, 49824, Note_on_c, 8, 69, 127
11, 49920, Note_on_c, 8, 69, 0
11, 49920, Note_on_c, 8, 65, 127
11, 49956, Note_on_c, 8, 65, 0
11, 49968, Note_on_c, 8, 67, 127
11, 50004, Note_on_c, 8, 67, 0
11, 50016, Note_on_c, 8, 65, 127
11, 50052, Note_on_c, 8, 65, 0
11, 50064, Note_on_c, 8, 64, 127
11, 50100, Note_on_c, 8, 64, 0
11, 50112, Note_on_c, 8, 62, 127
11, 50304, Note_on_c, 8, 62, 0
11, 50400, Note_on_c, 8, 74, 127
11, 50496, Note_on_c, 8, 74, 0
11, 50496, Note_on_c, 8, 70, 127
11, 50532, Note_on_c, 8, 70, 0
11, 50544, Note_on_c, 8, 69, 127
11, 50580, Note_on_c, 8, 69, 0
11, 50592, Note_on_c, 8, 67, 127
11, 50628, Note_on_c, 8, 67, 0
11, 50640, Note_on_c, 8, 65, 127
11, 50676, Note_on_c, 8, 65, 0
11, 50688, Note_on_c, 8, 64, 127
11, 50880, Note_on_c, 8, 64, 0
11, 50976, Note_on_c, 8, 67, 127
11, 51072, Note_on_c, 8, 67, 0
11, 51072, Note_on_c, 8, 64, 127
11, 51108, Note_on_c, 8, 64, 0
11, 51120, Note_on_c, 8, 62, 127
11, 51156, Note_on_c, 8, 62, 0
11, 51168, Note_on_c, 8, 60, 127
11, 51204, Note_on_c, 8, 60, 0
11, 51216, Note_on_c, 8, 58, 127
11, 51252, Note_on_c, 8, 58, 0
11, 51264, Note_on_c, 8, 60, 127
11, 51456, Note_on_c, 8, 60, 0
11, 51552, Note_on_c, 8, 72, 127
11, 51648, Note_on_c, 8, 72, 0
11, 51648, Note_on_c, 8, 69, 127
11, 51684, Note_on_c, 8, 69, 0
11, 51696, Note_on_c, 8, 67, 127
11, 51732, Note_on_c, 8, 67, 0
11, 51744, Note_on_c, 8, 65, 127
11, 51780, Note_on_c, 8, 65, 0
11, 51792, Note_on_c, 8, 63, 127
11, 51828, Note_on_c, 8, 63, 0
11, 51840, Note_on_c, 8, 62, 127
11, 52032, Note_on_c, 8, 62, 0
11, 52128, Note_on_c, 8, 65, 127
11, 52224, Note_on_c, 8, 65, 0
11, 52224, Note_on_c, 8, 62, 127
11, 52260, Note_on_c, 8, 62, 0
11, 52272, Note_on_c, 8, 60, 127
11, 52308, Note_on_c, 8, 60, 0
11, 52320, Note_on_c, 8, 58, 127
11, 52356, Note_on_c, 8, 58, 0
11, 52368, Note_on_c, 8, 57, 127
11, 52404, Note_on_c, 8, 57, 0
11, 52416, Note_on_c, 8, 58, 127
11, 52608, Note_on_c, 8, 58, 0
11, 52704, Note_on_c, 8, 70, 127
11, 52800, Note_on_c, 8, 70, 0
11, 52800, Note_on_c, 8, 67, 127
11, 52836, Note_on_c, 8, 67, 0
11, 52848, Note_on_c, 8, 65, 127
11, 52884, Note_on_c, 8, 65, 0
11, 52896, Note_on_c, 8, 63, 127
11, 52932, Note_on_c, 8, 63, 0
11, 52944, Note_on_c, 8, 62, 127
11, 52980, Note_on_c, 8, 62, 0
11, 52992, Note_on_c, 8, 60, 127
11, 53184, Note_on_c, 8, 60, 0
11, 53280, Note_on_c, 8, 63, 127
11, 53376, Note_on_c, 8, 63, 0
11, 53376, Note_on_c, 8, 60, 127
11, 53412, Note_on_c, 8, 60, 0
11, 53424, Note_on_c, 8, 58, 127
11, 53460, Note_on_c, 8, 58, 0
11, 53472, Note_on_c, 8, 56, 127
11, 53508, Note_on_c, 8, 56, 0
11, 53520, Note_on_c, 8, 55, 127
11, 53556, Note_on_c, 8, 55, 0
11, 53568, Note_on_c, 8, 62, 127
11, 53760, Note_on_c, 8, 62, 0
11, 53856, Note_on_c, 8, 65, 127
11, 53952, Note_on_c, 8, 65, 0
11, 53952, Note_on_c, 8, 62, 127
11, 53988, Note_on_c, 8, 62, 0
11, 54000, Note_on_c, 8, 60, 127
11, 54036, Note_on_c, 8, 60, 0
11, 54048, Note_on_c, 8, 59, 127
11, 54084, Note_on_c, 8, 59, 0
11, 54096, Note_on_c, 8, 57, 127
11, 54132, Note_on_c, 8, 57, 0
11, 54144, Note_on_c, 8, 59, 127
11, 54336, Note_on_c, 8, 59, 0
11, 54432, Note_on_c, 8, 62, 127
11, 54528, Note_on_c, 8, 62, 0
11, 54528, Note_on_c, 8, 58, 127
11, 54564, Note_on_c, 8, 58, 0
11, 54576, Note_on_c, 8, 57, 127
11, 54612, Note_on_c, 8, 57, 0
11, 54624, Note_on_c, 8, 55, 127
11, 54660, Note_on_c, 8, 55, 0
11, 54672, Note_on_c, 8, 53, 127
11, 54708, Note_on_c, 8, 53, 0
11, 54720, Note_on_c, 8, 55, 127
11, 54912, Note_on_c, 8, 55, 0
11, 55104, Note_on_c, 8, 72, 127
11, 55140, Note_on_c, 8, 72, 0
11, 55152, Note_on_c, 8, 67, 127
11, 55188, Note_on_c, 8, 67, 0
11, 55200, Note_on_c, 8, 63, 127
11, 55236, Note_on_c, 8, 63, 0
11, 55248, Note_on_c, 8, 60, 127
11, 55284, Note_on_c, 8, 60, 0
11, 55296, Note_on_c, 8, 55, 127
11, 55488, Note_on_c, 8, 55, 0
11, 55680, Note_on_c, 8, 72, 127
11, 55716, Note_on_c, 8, 72, 0
11, 55728, Note_on_c, 8, 67, 127
11, 55764, Note_on_c, 8, 67, 0
11, 55776, Note_on_c, 8, 63, 127
11, 55812, Note_on_c, 8, 63, 0
11, 55824, Note_on_c, 8, 60, 127
11, 55860, Note_on_c, 8, 60, 0
11, 55872, Note_on_c, 8, 55, 127
11, 56064, Note_on_c, 8, 55, 0
11, 56256, Note_on_c, 8, 72, 127
11, 56292, Note_on_c, 8, 72, 0
11, 56304, Note_on_c, 8, 67, 127
11, 56340, Note_on_c, 8, 67, 0
11, 56352, Note_on_c, 8, 63, 127
11, 56388, Note_on_c, 8, 63, 0
11, 56400, Note_on_c, 8, 60, 127
11, 56436, Note_on_c, 8, 60, 0
11, 56448, Note_on_c, 8, 55, 127
11, 56520, Note_on_c, 8, 55, 0
11, 56544, Note_on_c, 8, 55, 127
11, 56616, Note_on_c, 8, 55, 0
11, 56640, Note_on_c, 8, 55, 127
11, 56712, Note_on_c, 8, 55, 0
11, 56736, Note_on_c, 8, 55, 127
11, 56808, Note_on_c, 8, 55, 0
11, 56832, Note_on_c, 8, 55, 127
11, 56904, Note_on_c, 8, 55, 0
11, 56928, Note_on_c, 8, 55, 127
11, 57000, Note_on_c, 8, 55, 0
11, 57024, Note_on_c, 8, 56, 127
11, 57096, Note_on_c, 8, 56, 0
11, 57120, Note_on_c, 8, 56, 127
11, 57192, Note_on_c, 8, 56, 0
11, 57216, Note_on_c, 8, 56, 127
11, 57288, Note_on_c, 8, 56, 0
11, 57312, Note_on_c, 8, 56, 127
11, 57384, Note_on_c, 8, 56, 0
11, 57408, Note_on_c, 8, 68, 127
11, 57480, Note_on_c, 8, 68, 0
11, 57504, Note_on_c, 8, 68, 127
11, 57576, Note_on_c, 8, 68, 0
11, 57600, Note_on_c, 8, 62, 127
11, 57672, Note_on_c, 8, 62, 0
11, 57696, Note_on_c, 8, 62, 127
11, 57768, Note_on_c, 8, 62, 0
11, 57792, Note_on_c, 8, 62, 127
11, 57864, Note_on_c, 8, 62, 0
11, 57888, Note_on_c, 8, 62, 127
11, 57960, Note_on_c, 8, 62, 0
11, 57984, Note_on_c, 8, 62, 127
11, 58056, Note_on_c, 8, 62, 0
11, 58080, Note_on_c, 8, 62, 127
11, 58152, Note_on_c, 8, 62, 0
11, 58176, Note_on_c, 8, 72, 127
11, 58212, Note_on_c, 8, 72, 0
11, 58224, Note_on_c, 8, 60, 127
11, 58260, Note_on_c, 8, 60, 0
11, 58272, Note_on_c, 8, 60, 127
11, 58308, Note_on_c, 8, 60, 0
11, 58320, Note_on_c, 8, 60, 127
11, 58356, Note_on_c, 8, 60, 0
11, 58368, Note_on_c, 8, 60, 127
11, 58404, Note_on_c, 8, 60, 0
11, 58416, Note_on_c, 8, 60, 127
11, 58452, Note_on_c, 8, 60, 0
11, 58464, Note_on_c, 8, 60, 127
11, 58500, Note_on_c, 8, 60, 0
11, 58512, Note_on_c, 8, 60, 127
11, 58548, Note_on_c, 8, 60, 0
11, 58560, Note_on_c, 8, 60, 127
11, 58596, Note_on_c, 8, 60, 0
11, 58608, Note_on_c, 8, 60, 127
11, 58644, Note_on_c, 8, 60, 0
11, 58656, Note_on_c, 8, 60, 127
11, 58692, Note_on_c, 8, 60, 0
11, 58704, Note_on_c, 8, 60, 127
11, 58740, Note_on_c, 8, 60, 0
11, 58752, Note_on_c, 8, 70, 127
11, 58788, Note_on_c, 8, 70, 0
11, 58800, Note_on_c, 8, 60, 127
11, 58836, Note_on_c, 8, 60, 0
11, 58848, Note_on_c, 8, 60, 127
11, 58884, Note_on_c, 8, 60, 0
11, 58896, Note_on_c, 8, 60, 127
11, 58932, Note_on_c, 8, 60, 0
11, 58944, Note_on_c, 8, 60, 127
11, 58980, Note_on_c, 8, 60, 0
11, 58992, Note_on_c, 8, 60, 127
11, 59028, Note_on_c, 8, 60, 0
11, 59040, Note_on_c, 8, 60, 127
11, 59076, Note_on_c, 8, 60, 0
11, 59088, Note_on_c, 8, 60, 127
11, 59124, Note_on_c, 8, 60, 0
11, 59136, Note_on_c, 8, 60, 127
11, 59172, Note_on_c, 8, 60, 0
11, 59184, Note_on_c, 8, 60, 127
11, 59220, Note_on_c, 8, 60, 0
11, 59232, Note_on_c, 8, 60, 127
11, 59268, Note_on_c, 8, 60, 0
11, 59280, Note_on_c, 8, 60, 127
11, 59316, Note_on_c, 8, 60, 0
11, 59328, Note_on_c, 8, 68, 127
11, 59364, Note_on_c, 8, 68, 0
11, 59376, Note_on_c, 8, 60, 127
11, 59412, Note_on_c, 8, 60, 0
11, 59424, Note_on_c, 8, 60, 127
11, 59460, Note_on_c, 8, 60, 0
11, 59472, Note_on_c, 8, 60, 127
11, 59508, Note_on_c, 8, 60, 0
11, 59520, Note_on_c, 8, 60, 127
11, 59556, Note_on_c, 8, 60, 0
11, 59568, Note_on_c, 8, 60, 127
11, 59604, Note_on_c, 8, 60, 0
11, 59616, Note_on_c, 8, 60, 127
11, 59652, Note_on_c, 8, 60, 0
11, 59664, Note_on_c, 8, 60, 127
11, 59700, Note_on_c, 8, 60, 0
11, 59712, Note_on_c, 8, 60, 127
11, 59748, Note_on_c, 8, 60, 0
11, 59760, Note_on_c, 8, 60, 127
11, 59796, Note_on_c, 8, 60, 0
11, 59808, Note_on_c, 8, 60, 127
11, 59844, Note_on_c, 8, 60, 0
11, 59856, Note_on_c, 8, 60, 127
11, 59892, Note_on_c, 8, 60, 0
11, 59904, Note_on_c, 8, 67, 127
11, 59940, Note_on_c, 8, 67, 0
11, 59952, Note_on_c, 8, 60, 127
11, 59988, Note_on_c, 8, 60, 0
11, 60000, Note_on_c, 8, 60, 127
11, 60036, Note_on_c, 8, 60, 0
11, 60048, Note_on_c, 8, 60, 127
11, 60084, Note_on_c, 8, 60, 0
11, 60096, Note_on_c, 8, 60, 127
11, 60132, Note_on_c, 8, 60, 0
11, 60144, Note_on_c, 8, 60, 127
11, 60180, Note_on_c, 8, 60, 0
11, 60192, Note_on_c, 8, 60, 127
11, 60228, Note_on_c, 8, 60, 0
11, 60240, Note_on_c, 8, 60, 127
11, 60276, Note_on_c, 8, 60, 0
11, 60288, Note_on_c, 8, 60, 127
11, 60384, Note_on_c, 8, 60, 0
11, 66816, Note_on_c, 8, 60, 127
11, 66852, Note_on_c, 8, 60, 0
11, 66864, Note_on_c, 8, 60, 127
11, 66900, Note_on_c, 8, 60, 0
11, 66912, Note_on_c, 8, 60, 127
11, 66948, Note_on_c, 8, 60, 0
11, 66960, Note_on_c, 8, 60, 127
11, 66996, Note_on_c, 8, 60, 0
11, 67008, Note_on_c, 8, 60, 127
11, 67044, Note_on_c, 8, 60, 0
11, 67056, Note_on_c, 8, 60, 127
11, 67092, Note_on_c, 8, 60, 0
11, 67104, Note_on_c, 8, 60, 127
11, 67140, Note_on_c, 8, 60, 0
11, 67152, Note_on_c, 8, 60, 127
11, 67188, Note_on_c, 8, 60, 0
11, 67200, Note_on_c, 8, 60, 127
11, 67236, Note_on_c, 8, 60, 0
11, 67248, Note_on_c, 8, 60, 127
11, 67284, Note_on_c, 8, 60, 0
11, 67296, Note_on_c, 8, 60, 127
11, 67332, Note_on_c, 8, 60, 0
11, 67344, Note_on_c, 8, 60, 127
11, 67380, Note_on_c, 8, 60, 0
11, 67392, Note_on_c, 8, 68, 127
11, 67428, Note_on_c, 8, 68, 0
11, 67440, Note_on_c, 8, 60, 127
11, 67476, Note_on_c, 8, 60, 0
11, 67488, Note_on_c, 8, 60, 127
11, 67524, Note_on_c, 8, 60, 0
11, 67536, Note_on_c, 8, 60, 127
11, 67572, Note_on_c, 8, 60, 0
11, 67584, Note_on_c, 8, 68, 127
11, 67620, Note_on_c, 8, 68, 0
11, 67632, Note_on_c, 8, 60, 127
11, 67668, Note_on_c, 8, 60, 0
11, 67680, Note_on_c, 8, 60, 127
11, 67716, Note_on_c, 8, 60, 0
11, 67728, Note_on_c, 8, 60, 127
11, 67764, Note_on_c, 8, 60, 0
11, 67776, Note_on_c, 8, 68, 127
11, 67812, Note_on_c, 8, 68, 0
11, 67824, Note_on_c, 8, 60, 127
11, 67860, Note_on_c, 8, 60, 0
11, 67872, Note_on_c, 8, 60, 127
11, 67908, Note_on_c, 8, 60, 0
11, 67920, Note_on_c, 8, 60, 127
11, 67956, Note_on_c, 8, 60, 0
11, 67968, Note_on_c, 8, 59, 127
11, 68004, Note_on_c, 8, 59, 0
11, 68016, Note_on_c, 8, 59, 127
11, 68052, Note_on_c, 8, 59, 0
11, 68064, Note_on_c, 8, 59, 127
11, 68100, Note_on_c, 8, 59, 0
11, 68112, Note_on_c, 8, 59, 127
11, 68148, Note_on_c, 8, 59, 0
11, 68160, Note_on_c, 8, 59, 127
11, 68196, Note_on_c, 8, 59, 0
11, 68208, Note_on_c, 8, 59, 127
11, 68244, Note_on_c, 8, 59, 0
11, 68256, Note_on_c, 8, 59, 127
11, 68292, Note_on_c, 8, 59, 0
11, 68304, Note_on_c, 8, 59, 127
11, 68340, Note_on_c, 8, 59, 0
11, 68352, Note_on_c, 8, 59, 127
11, 68388, Note_on_c, 8, 59, 0
11, 68400, Note_on_c, 8, 59, 127
11, 68436, Note_on_c, 8, 59, 0
11, 68448, Note_on_c, 8, 59, 127
11, 68484, Note_on_c, 8, 59, 0
11, 68496, Note_on_c, 8, 59, 127
11, 68532, Note_on_c, 8, 59, 0
11, 68544, Note_on_c, 8, 67, 127
11, 68580, Note_on_c, 8, 67, 0
11, 68592, Note_on_c, 8, 58, 127
11, 68628, Note_on_c, 8, 58, 0
11, 68640, Note_on_c, 8, 58, 127
11, 68676, Note_on_c, 8, 58, 0
11, 68688, Note_on_c, 8, 58, 127
11, 68724, Note_on_c, 8, 58, 0
11, 68736, Note_on_c, 8, 67, 127
11, 68772, Note_on_c, 8, 67, 0
11, 68784, Note_on_c, 8, 58, 127
11, 68820, Note_on_c, 8, 58, 0
11, 68832, Note_on_c, 8, 58, 127
11, 68868, Note_on_c, 8, 58, 0
11, 68880, Note_on_c, 8, 58, 127
11, 68916, Note_on_c, 8, 58, 0
11, 68928, Note_on_c, 8, 67, 127
11, 68964, Note_on_c, 8, 67, 0
11, 68976, Note_on_c, 8, 58, 127
11, 69012, Note_on_c, 8, 58, 0
11, 69024, Note_on_c, 8, 58, 127
11, 69060, Note_on_c, 8, 58, 0
11, 69072, Note_on_c, 8, 58, 127
11, 69108, Note_on_c, 8, 58, 0
11, 69120, Note_on_c, 8, 57, 127
11, 69156, Note_on_c, 8, 57, 0
11, 69168, Note_on_c, 8, 57, 127
11, 69204, Note_on_c, 8, 57, 0
11, 69216, Note_on_c, 8, 57, 127
11, 69252, Note_on_c, 8, 57, 0
11, 69264, Note_on_c, 8, 57, 127
11, 69300, Note_on_c, 8, 57, 0
11, 69312, Note_on_c, 8, 57, 127
11, 69348, Note_on_c, 8, 57, 0
11, 69360, Note_on_c, 8, 57, 127
11, 69396, Note_on_c, 8, 57, 0
11, 69408, Note_on_c, 8, 57, 127
11, 69444, Note_on_c, 8, 57, 0
11, 69456, Note_on_c, 8, 57, 127
11, 69492, Note_on_c, 8, 57, 0
11, 69504, Note_on_c, 8, 57, 127
11, 69540, Note_on_c, 8, 57, 0
11, 69552, Note_on_c, 8, 57, 127
11, 69588, Note_on_c, 8, 57, 0
11, 69600, Note_on_c, 8, 57, 127
11, 69636, Note_on_c, 8, 57, 0
11, 69648, Note_on_c, 8, 57, 127
11, 69684, Note_on_c, 8, 57, 0
11, 69696, Note_on_c, 8, 65, 127
11, 69732, Note_on_c, 8, 65, 0
11, 69744, Note_on_c, 8, 56, 127
11, 69780, Note_on_c, 8, 56, 0
11, 69792, Note_on_c, 8, 56, 127
11, 69828, Note_on_c, 8, 56, 0
11, 69840, Note_on_c, 8, 56, 127
11, 69876, Note_on_c, 8, 56, 0
11, 69888, Note_on_c, 8, 65, 127
11, 69924, Note_on_c, 8, 65, 0
11, 69936, Note_on_c, 8, 56, 127
11, 69972, Note_on_c, 8, 56, 0
11, 69984, Note_on_c, 8, 56, 127
11, 70020, Note_on_c, 8, 56, 0
11, 70032, Note_on_c, 8, 56, 127
11, 70068, Note_on_c, 8, 56, 0
11, 70080, Note_on_c, 8, 65, 127
11, 70116, Note_on_c, 8, 65, 0
11, 70128, Note_on_c, 8, 56, 127
11, 70164, Note_on_c, 8, 56, 0
11, 70176, Note_on_c, 8, 56, 127
11, 70212, Note_on_c, 8, 56, 0
11, 70224, Note_on_c, 8, 56, 127
11, 70260, Note_on_c, 8, 56, 0
11, 70272, Note_on_c, 8, 55, 127
11, 70308, Note_on_c, 8, 55, 0
11, 70320, Note_on_c, 8, 67, 127
11, 70356, Note_on_c, 8, 67, 0
11, 70368, Note_on_c, 8, 67, 127
11, 70404, Note_on_c, 8, 67, 0
11, 70416, Note_on_c, 8, 67, 127
11, 70452, Note_on_c, 8, 67, 0
11, 70464, Note_on_c, 8, 67, 127
11, 70500, Note_on_c, 8, 67, 0
11, 70512, Note_on_c, 8, 67, 127
11, 70548, Note_on_c, 8, 67, 0
11, 70560, Note_on_c, 8, 67, 127
11, 70596, Note_on_c, 8, 67, 0
11, 70608, Note_on_c, 8, 67, 127
11, 70644, Note_on_c, 8, 67, 0
11, 70656, Note_on_c, 8, 67, 127
11, 70692, Note_on_c, 8, 67, 0
11, 70704, Note_on_c, 8, 67, 127
11, 70740, Note_on_c, 8, 67, 0
11, 70752, Note_on_c, 8, 67, 127
11, 70788, Note_on_c, 8, 67, 0
11, 70800, Note_on_c, 8, 67, 127
11, 70836, Note_on_c, 8, 67, 0
11, 70848, Note_on_c, 8, 75, 127
11, 70884, Note_on_c, 8, 75, 0
11, 70896, Note_on_c, 8, 67, 127
11, 70932, Note_on_c, 8, 67, 0
11, 70944, Note_on_c, 8, 67, 127
11, 70980, Note_on_c, 8, 67, 0
11, 70992, Note_on_c, 8, 67, 127
11, 71028, Note_on_c, 8, 67, 0
11, 71040, Note_on_c, 8, 75, 127
11, 71076, Note_on_c, 8, 75, 0
11, 71088, Note_on_c, 8, 67, 127
11, 71124, Note_on_c, 8, 67, 0
11, 71136, Note_on_c, 8, 67, 127
11, 71172, Note_on_c, 8, 67, 0
11, 71184, Note_on_c, 8, 67, 127
11, 71220, Note_on_c, 8, 67, 0
11, 71232, Note_on_c, 8, 75, 127
11, 71268, Note_on_c, 8, 75, 0
11, 71280, Note_on_c, 8, 67, 127
11, 71316, Note_on_c, 8, 67, 0
11, 71328, Note_on_c, 8, 67, 127
11, 71364, Note_on_c, 8, 67, 0
11, 71376, Note_on_c, 8, 67, 127
11, 71412, Note_on_c, 8, 67, 0
11, 71424, Note_on_c, 8, 66, 127
11, 71460, Note_on_c, 8, 66, 0
11, 71472, Note_on_c, 8, 66, 127
11, 71508, Note_on_c, 8, 66, 0
11, 71520, Note_on_c, 8, 66, 127
11, 71556, Note_on_c, 8, 66, 0
11, 71568, Note_on_c, 8, 66, 127
11, 71604, Note_on_c, 8, 66, 0
11, 71616, Note_on_c, 8, 66, 127
11, 71652, Note_on_c, 8, 66, 0
11, 71664, Note_on_c, 8, 66, 127
11, 71700, Note_on_c, 8, 66, 0
11, 71712, Note_on_c, 8, 66, 127
11, 71748, Note_on_c, 8, 66, 0
11, 71760, Note_on_c, 8, 66, 127
11, 71796, Note_on_c, 8, 66, 0
11, 71808, Note_on_c, 8, 66, 127
11, 71844, Note_on_c, 8, 66, 0
11, 71856, Note_on_c, 8, 66, 127
11, 71892, Note_on_c, 8, 66, 0
11, 71904, Note_on_c, 8, 66, 127
11, 71940, Note_on_c, 8, 66, 0
11, 71952, Note_on_c, 8, 66, 127
11, 71988, Note_on_c, 8, 66, 0
11, 72000, Note_on_c, 8, 74, 127
11, 72036, Note_on_c, 8, 74, 0
11, 72048, Note_on_c, 8, 65, 127
11, 72084, Note_on_c, 8, 65, 0
11, 72096, Note_on_c, 8, 65, 127
11, 72132, Note_on_c, 8, 65, 0
11, 72144, Note_on_c, 8, 65, 127
11, 72180, Note_on_c, 8, 65, 0
11, 72192, Note_on_c, 8, 74, 127
11, 72228, Note_on_c, 8, 74, 0
11, 72240, Note_on_c, 8, 65, 127
11, 72276, Note_on_c, 8, 65, 0
11, 72288, Note_on_c, 8, 65, 127
11, 72324, Note_on_c, 8, 65, 0
11, 72336, Note_on_c, 8, 65, 127
11, 72372, Note_on_c, 8, 65, 0
11, 72384, Note_on_c, 8, 74, 127
11, 72420, Note_on_c, 8, 74, 0
11, 72432, Note_on_c, 8, 65, 127
11, 72468, Note_on_c, 8, 65, 0
11, 72480, Note_on_c, 8, 65, 127
11, 72516, Note_on_c, 8, 65, 0
11, 72528, Note_on_c, 8, 65, 127
11, 72564, Note_on_c, 8, 65, 0
11, 72576, Note_on_c, 8, 64, 127
11, 72612, Note_on_c, 8, 64, 0
11, 72624, Note_on_c, 8, 64, 127
11, 72660, Note_on_c, 8, 64, 0
11, 72672, Note_on_c, 8, 64, 127
11, 72708, Note_on_c, 8, 64, 0
11, 72720, Note_on_c, 8, 64, 127
11, 72756, Note_on_c, 8, 64, 0
11, 72768, Note_on_c, 8, 64, 127
11, 72804, Note_on_c, 8, 64, 0
11, 72816, Note_on_c, 8, 64, 127
11, 72852, Note_on_c, 8, 64, 0
11, 72864, Note_on_c, 8, 64, 127
11, 72900, Note_on_c, 8, 64, 0
11, 72912, Note_on_c, 8, 64, 127
11, 72948, Note_on_c, 8, 64, 0
11, 72960, Note_on_c, 8, 64, 127
11, 72996, Note_on_c, 8, 64, 0
11, 73008, Note_on_c, 8, 64, 127
11, 73044, Note_on_c, 8, 64, 0
11, 73056, Note_on_c, 8, 64, 127
11, 73092, Note_on_c, 8, 64, 0
11, 73104, Note_on_c, 8, 64, 127
11, 73140, Note_on_c, 8, 64, 0
11, 73152, Note_on_c, 8, 72, 127
11, 73188, Note_on_c, 8, 72, 0
11, 73200, Note_on_c, 8, 63, 127
11, 73236, Note_on_c, 8, 63, 0
11, 73248, Note_on_c, 8, 63, 127
11, 73284, Note_on_c, 8, 63, 0
11, 73296, Note_on_c, 8, 63, 127
11, 73332, Note_on_c, 8, 63, 0
11, 73344, Note_on_c, 8, 72, 127
11, 73380, Note_on_c, 8, 72, 0
11, 73392, Note_on_c, 8, 63, 127
11, 73428, Note_on_c, 8, 63, 0
11, 73440, Note_on_c, 8, 63, 127
11, 73476, Note_on_c, 8, 63, 0
11, 73488, Note_on_c, 8, 63, 127
11, 73524, Note_on_c, 8, 63, 0
11, 73536, Note_on_c, 8, 72, 127
11, 73572, Note_on_c, 8, 72, 0
11, 73584, Note_on_c, 8, 63, 127
11, 73620, Note_on_c, 8, 63, 0
11, 73632, Note_on_c, 8, 63, 127
11, 73668, Note_on_c, 8, 63, 0
11, 73680, Note_on_c, 8, 63, 127
11, 73716, Note_on_c, 8, 63, 0
11, 73728, Note_on_c, 8, 62, 127
11, 73920, Note_on_c, 8, 62, 0
11, 76608, Note_on_c, 8, 55, 127
11, 76644, Note_on_c, 8, 55, 0
11, 76656, Note_on_c, 8, 55, 127
11, 76692, Note_on_c, 8, 55, 0
11, 76704, Note_on_c, 8, 55, 127
11, 76740, Note_on_c, 8, 55, 0
11, 76752, Note_on_c, 8, 55, 127
11, 76788, Note_on_c, 8, 55, 0
11, 76800, Note_on_c, 8, 55, 127
11, 76836, Note_on_c, 8, 55, 0
11, 76848, Note_on_c, 8, 55, 127
11, 76884, Note_on_c, 8, 55, 0
11, 76896, Note_on_c, 8, 55, 127
11, 76932, Note_on_c, 8, 55, 0
11, 76944, Note_on_c, 8, 55, 127
11, 76980, Note_on_c, 8, 55, 0
11, 76992, Note_on_c, 8, 55, 127
11, 77028, Note_on_c, 8, 55, 0
11, 77040, Note_on_c, 8, 55, 127
11, 77076, Note_on_c, 8, 55, 0
11, 77088, Note_on_c, 8, 55, 127
11, 77124, Note_on_c, 8, 55, 0
11, 77136, Note_on_c, 8, 55, 127
11, 77172, Note_on_c, 8, 55, 0
11, 77184, Note_on_c, 8, 55, 127
11, 77220, Note_on_c, 8, 55, 0
11, 77232, Note_on_c, 8, 55, 127
11, 77268, Note_on_c, 8, 55, 0
11, 77280, Note_on_c, 8, 55, 127
11, 77316, Note_on_c, 8, 55, 0
11, 77328, Note_on_c, 8, 55, 127
11, 77364, Note_on_c, 8, 55, 0
11, 77376, Note_on_c, 8, 55, 127
11, 77412, Note_on_c, 8, 55, 0
11, 77424, Note_on_c, 8, 55, 127
11, 77460, Note_on_c, 8, 55, 0
11, 77472, Note_on_c, 8, 55, 127
11, 77508, Note_on_c, 8, 55, 0
11, 77520, Note_on_c, 8, 55, 127
11, 77556, Note_on_c, 8, 55, 0
11, 77568, Note_on_c, 8, 55, 127
11, 77604, Note_on_c, 8, 55, 0
11, 77616, Note_on_c, 8, 55, 127
11, 77652, Note_on_c, 8, 55, 0
11, 77664, Note_on_c, 8, 55, 127
11, 77700, Note_on_c, 8, 55, 0
11, 77712, Note_on_c, 8, 55, 127
11, 77748, Note_on_c, 8, 55, 0
11, 77760, Note_on_c, 8, 60, 127
11, 77796, Note_on_c, 8, 60, 0
11, 77808, Note_on_c, 8, 60, 127
11, 77844, Note_on_c, 8, 60, 0
11, 77856, Note_on_c, 8, 60, 127
11, 77892, Note_on_c, 8, 60, 0
11, 77904, Note_on_c, 8, 60, 127
11, 77940, Note_on_c, 8, 60, 0
11, 77952, Note_on_c, 8, 60, 127
11, 77988, Note_on_c, 8, 60, 0
11, 78000, Note_on_c, 8, 60, 127
11, 78036, Note_on_c, 8, 60, 0
11, 78048, Note_on_c, 8, 60, 127
11, 78084, Note_on_c, 8, 60, 0
11, 78096, Note_on_c, 8, 60, 127
11, 78132, Note_on_c, 8, 60, 0
11, 78144, Note_on_c, 8, 60, 127
11, 78180, Note_on_c, 8, 60, 0
11, 78192, Note_on_c, 8, 60, 127
11, 78228, Note_on_c, 8, 60, 0
11, 78240, Note_on_c, 8, 60, 127
11, 78276, Note_on_c, 8, 60, 0
11, 78288, Note_on_c, 8, 60, 127
11, 78324, Note_on_c, 8, 60, 0
11, 78336, Note_on_c, 8, 60, 127
11, 78372, Note_on_c, 8, 60, 0
11, 78384, Note_on_c, 8, 60, 127
11, 78420, Note_on_c, 8, 60, 0
11, 78432, Note_on_c, 8, 60, 127
11, 78468, Note_on_c, 8, 60, 0
11, 78480, Note_on_c, 8, 60, 127
11, 78516, Note_on_c, 8, 60, 0
11, 78528, Note_on_c, 8, 60, 127
11, 78564, Note_on_c, 8, 60, 0
11, 78576, Note_on_c, 8, 60, 127
11, 78612, Note_on_c, 8, 60, 0
11, 78624, Note_on_c, 8, 60, 127
11, 78660, Note_on_c, 8, 60, 0
11, 78672, Note_on_c, 8, 60, 127
11, 78708, Note_on_c, 8, 60, 0
11, 78720, Note_on_c, 8, 60, 127
11, 78756, Note_on_c, 8, 60, 0
11, 78768, Note_on_c, 8, 60, 127
11, 78804, Note_on_c, 8, 60, 0
11, 78816, Note_on_c, 8, 60, 127
11, 78852, Note_on_c, 8, 60, 0
11, 78864, Note_on_c, 8, 60, 127
11, 78900, Note_on_c, 8, 60, 0
11, 78912, Note_on_c, 8, 63, 127
11, 78948, Note_on_c, 8, 63, 0
11, 78960, Note_on_c, 8, 63, 127
11, 78996, Note_on_c, 8, 63, 0
11, 79008, Note_on_c, 8, 63, 127
11, 79044, Note_on_c, 8, 63, 0
11, 79056, Note_on_c, 8, 63, 127
11, 79092, Note_on_c, 8, 63, 0
11, 79104, Note_on_c, 8, 63, 127
11, 79140, Note_on_c, 8, 63, 0
11, 79152, Note_on_c, 8, 63, 127
11, 79188, Note_on_c, 8, 63, 0
11, 79200, Note_on_c, 8, 63, 127
11, 79236, Note_on_c, 8, 63, 0
11, 79248, Note_on_c, 8, 63, 127
11, 79284, Note_on_c, 8, 63, 0
11, 79296, Note_on_c, 8, 63, 127
11, 79332, Note_on_c, 8, 63, 0
11, 79344, Note_on_c, 8, 63, 127
11, 79380, Note_on_c, 8, 63, 0
11, 79392, Note_on_c, 8, 63, 127
11, 79428, Note_on_c, 8, 63, 0
11, 79440, Note_on_c, 8, 63, 127
11, 79476, Note_on_c, 8, 63, 0
11, 79488, Note_on_c, 8, 63, 127
11, 79524, Note_on_c, 8, 63, 0
11, 79536, Note_on_c, 8, 63, 127
11, 79572, Note_on_c, 8, 63, 0
11, 79584, Note_on_c, 8, 63, 127
11, 79620, Note_on_c, 8, 63, 0
11, 79632, Note_on_c, 8, 63, 127
11, 79668, Note_on_c, 8, 63, 0
11, 79680, Note_on_c, 8, 63, 127
11, 79716, Note_on_c, 8, 63, 0
11, 79728, Note_on_c, 8, 63, 127
11, 79764, Note_on_c, 8, 63, 0
11, 79776, Note_on_c, 8, 63, 127
11, 79812, Note_on_c, 8, 63, 0
11, 79824, Note_on_c, 8, 63, 127
11, 79860, Note_on_c, 8, 63, 0
11, 79872, Note_on_c, 8, 63, 127
11, 79908, Note_on_c, 8, 63, 0
11, 79920, Note_on_c, 8, 63, 127
11, 79956, Note_on_c, 8, 63, 0
11, 79968, Note_on_c, 8, 63, 127
11, 80004, Note_on_c, 8, 63, 0
11, 80016, Note_on_c, 8, 63, 127
11, 80052, Note_on_c, 8, 63, 0
11, 80064, Note_on_c, 8, 67, 127
11, 80100, Note_on_c, 8, 67, 0
11, 80112, Note_on_c, 8, 67, 127
11, 80148, Note_on_c, 8, 67, 0
11, 80160, Note_on_c, 8, 67, 127
11, 80196, Note_on_c, 8, 67, 0
11, 80208, Note_on_c, 8, 67, 127
11, 80244, Note_on_c, 8, 67, 0
11, 80256, Note_on_c, 8, 67, 127
11, 80292, Note_on_c, 8, 67, 0
11, 80304, Note_on_c, 8, 67, 127
11, 80340, Note_on_c, 8, 67, 0
11, 80352, Note_on_c, 8, 67, 127
11, 80388, Note_on_c, 8, 67, 0
11, 80400, Note_on_c, 8, 67, 127
11, 80436, Note_on_c, 8, 67, 0
11, 80448, Note_on_c, 8, 67, 127
11, 80484, Note_on_c, 8, 67, 0
11, 80496, Note_on_c, 8, 67, 127
11, 80532, Note_on_c, 8, 67, 0
11, 80544, Note_on_c, 8, 67, 127
11, 80580, Note_on_c, 8, 67, 0
11, 80592, Note_on_c, 8, 67, 127
11, 80628, Note_on_c, 8, 67, 0
11, 80640, Note_on_c, 8, 67, 127
11, 80784, Note_on_c, 8, 67, 0
11, 80832, Note_on_c, 8, 55, 127
11, 80976, Note_on_c, 8, 55, 0
11, 81024, Note_on_c, 8, 55, 127
11, 81168, Note_on_c, 8, 55, 0
11, 81216, Note_on_c, 8, 55, 127
11, 81360, Note_on_c, 8, 55, 0
11, 81408, Note_on_c, 8, 55, 127
11, 81552, Note_on_c, 8, 55, 0
11, 81600, Note_on_c, 8, 55, 127
11, 81744, Note_on_c, 8, 55, 0
11, 81792, Note_on_c, 8, 55, 127
11, 81936, Note_on_c, 8, 55, 0
11, 81984, Note_on_c, 8, 55, 127
11, 82128, Note_on_c, 8, 55, 0
11, 82176, Note_on_c, 8, 55, 127
11, 82320, Note_on_c, 8, 55, 0
11, 82368, Note_on_c, 8, 55, 127
11, 82512, Note_on_c, 8, 55, 0
11, 82560, Note_on_c, 8, 55, 127
11, 82704, Note_on_c, 8, 55, 0
11, 82752, Note_on_c, 8, 55, 127
11, 82896, Note_on_c, 8, 55, 0
11, 82944, Note_on_c, 8, 55, 127
11, 83088, Note_on_c, 8, 55, 0
11, 84096, Note_on_c, 8, 58, 127
11, 84132, Note_on_c, 8, 58, 0
11, 84144, Note_on_c, 8, 55, 127
11, 84180, Note_on_c, 8, 55, 0
11, 84192, Note_on_c, 8, 58, 127
11, 84228, Note_on_c, 8, 58, 0
11, 84240, Note_on_c, 8, 55, 127
11, 84276, Note_on_c, 8, 55, 0
11, 84288, Note_on_c, 8, 58, 127
11, 84324, Note_on_c, 8, 58, 0
11, 84336, Note_on_c, 8, 55, 127
11, 84372, Note_on_c, 8, 55, 0
11, 84384, Note_on_c, 8, 58, 127
11, 84420, Note_on_c, 8, 58, 0
11, 84432, Note_on_c, 8, 55, 127
11, 84468, Note_on_c, 8, 55, 0
11, 84480, Note_on_c, 8, 58, 127
11, 84516, Note_on_c, 8, 58, 0
11, 84528, Note_on_c, 8, 55, 127
11, 84564, Note_on_c, 8, 55, 0
11, 84576, Note_on_c, 8, 58, 127
11, 84612, Note_on_c, 8, 58, 0
11, 84624, Note_on_c, 8, 55, 127
11, 84660, Note_on_c, 8, 55, 0
11, 84672, Note_on_c, 8, 62, 127
11, 84864, Note_on_c, 8, 62, 0
11, 86976, Note_on_c, 8, 62, 127
11, 87168, Note_on_c, 8, 62, 0
11, 87216, Note_on_c, 8, 74, 127
11, 87252, Note_on_c, 8, 74, 0
11, 87264, Note_on_c, 8, 72, 127
11, 87300, Note_on_c, 8, 72, 0
11, 87312, Note_on_c, 8, 70, 127
11, 87348, Note_on_c, 8, 70, 0
11, 87360, Note_on_c, 8, 69, 127
11, 87396, Note_on_c, 8, 69, 0
11, 87408, Note_on_c, 8, 67, 127
11, 87444, Note_on_c, 8, 67, 0
11, 87456, Note_on_c, 8, 66, 127
11, 87492, Note_on_c, 8, 66, 0
11, 87504, Note_on_c, 8, 64, 127
11, 87540, Note_on_c, 8, 64, 0
11, 87552, Note_on_c, 8, 62, 127
11, 87588, Note_on_c, 8, 62, 0
11, 87600, Note_on_c, 8, 62, 127
11, 87636, Note_on_c, 8, 62, 0
11, 87648, Note_on_c, 8, 62, 127
11, 87684, Note_on_c, 8, 62, 0
11, 87696, Note_on_c, 8, 62, 127
11, 87732, Note_on_c, 8, 62, 0
11, 87744, Note_on_c, 8, 62, 127
11, 87780, Note_on_c, 8, 62, 0
11, 87792, Note_on_c, 8, 62, 127
11, 87828, Note_on_c, 8, 62, 0
11, 87840, Note_on_c, 8, 62, 127
11, 87876, Note_on_c, 8, 62, 0
11, 87888, Note_on_c, 8, 62, 127
11, 87924, Note_on_c, 8, 62, 0
11, 87936, Note_on_c, 8, 62, 127
11, 87972, Note_on_c, 8, 62, 0
11, 87984, Note_on_c, 8, 62, 127
11, 88020, Note_on_c, 8, 62, 0
11, 88032, Note_on_c, 8, 62, 127
11, 88068, Note_on_c, 8, 62, 0
11, 88080, Note_on_c, 8, 62, 127
11, 88116, Note_on_c, 8, 62, 0
11, 88128, Note_on_c, 8, 63, 127
11, 88164, Note_on_c, 8, 63, 0
11, 88176, Note_on_c, 8, 63, 127
11, 88212, Note_on_c, 8, 63, 0
11, 88224, Note_on_c, 8, 63, 127
11, 88260, Note_on_c, 8, 63, 0
11, 88272, Note_on_c, 8, 63, 127
11, 88308, Note_on_c, 8, 63, 0
11, 88320, Note_on_c, 8, 63, 127
11, 88356, Note_on_c, 8, 63, 0
11, 88368, Note_on_c, 8, 63, 127
11, 88404, Note_on_c, 8, 63, 0
11, 88416, Note_on_c, 8, 63, 127
11, 88452, Note_on_c, 8, 63, 0
11, 88464, Note_on_c, 8, 63, 127
11, 88500, Note_on_c, 8, 63, 0
11, 88512, Note_on_c, 8, 63, 127
11, 88548, Note_on_c, 8, 63, 0
11, 88560, Note_on_c, 8, 63, 127
11, 88596, Note_on_c, 8, 63, 0
11, 88608, Note_on_c, 8, 63, 127
11, 88644, Note_on_c, 8, 63, 0
11, 88656, Note_on_c, 8, 63, 127
11, 88692, Note_on_c, 8, 63, 0
11, 88704, Note_on_c, 8, 62, 127
11, 88740, Note_on_c, 8, 62, 0
11, 88752, Note_on_c, 8, 62, 127
11, 88788, Note_on_c, 8, 62, 0
11, 88800, Note_on_c, 8, 62, 127
11, 88836, Note_on_c, 8, 62, 0
11, 88848, Note_on_c, 8, 62, 127
11, 88884, Note_on_c, 8, 62, 0
11, 88896, Note_on_c, 8, 62, 127
11, 88932, Note_on_c, 8, 62, 0
11, 88944, Note_on_c, 8, 62, 127
11, 88980, Note_on_c, 8, 62, 0
11, 88992, Note_on_c, 8, 62, 127
11, 89028, Note_on_c, 8, 62, 0
11, 89040, Note_on_c, 8, 62, 127
11, 89076, Note_on_c, 8, 62, 0
11, 89088, Note_on_c, 8, 62, 127
11, 89124, Note_on_c, 8, 62, 0
11, 89136, Note_on_c, 8, 62, 127
11, 89172, Note_on_c, 8, 62, 0
11, 89184, Note_on_c, 8, 62, 127
11, 89220, Note_on_c, 8, 62, 0
11, 89232, Note_on_c, 8, 62, 127
11, 89268, Note_on_c, 8, 62, 0
11, 89280, Note_on_c, 8, 58, 127
11, 89316, Note_on_c, 8, 58, 0
11, 89328, Note_on_c, 8, 58, 127
11, 89364, Note_on_c, 8, 58, 0
11, 89376, Note_on_c, 8, 58, 127
11, 89412, Note_on_c, 8, 58, 0
11, 89424, Note_on_c, 8, 58, 127
11, 89460, Note_on_c, 8, 58, 0
11, 89472, Note_on_c, 8, 62, 127
11, 89508, Note_on_c, 8, 62, 0
11, 89520, Note_on_c, 8, 62, 127
11, 89556, Note_on_c, 8, 62, 0
11, 89568, Note_on_c, 8, 62, 127
11, 89604, Note_on_c, 8, 62, 0
11, 89616, Note_on_c, 8, 62, 127
11, 89652, Note_on_c, 8, 62, 0
11, 89664, Note_on_c, 8, 62, 127
11, 89700, Note_on_c, 8, 62, 0
11, 89712, Note_on_c, 8, 62, 127
11, 89748, Note_on_c, 8, 62, 0
11, 89760, Note_on_c, 8, 62, 127
11, 89796, Note_on_c, 8, 62, 0
11, 89808, Note_on_c, 8, 62, 127
11, 89844, Note_on_c, 8, 62, 0
11, 89856, Note_on_c, 8, 63, 127
11, 89892, Note_on_c, 8, 63, 0
11, 89904, Note_on_c, 8, 63, 127
11, 89940, Note_on_c, 8, 63, 0
11, 89952, Note_on_c, 8, 63, 127
11, 89988, Note_on_c, 8, 63, 0
11, 90000, Note_on_c, 8, 63, 127
11, 90036, Note_on_c, 8, 63, 0
11, 90048, Note_on_c, 8, 63, 127
11, 90084, Note_on_c, 8, 63, 0
11, 90096, Note_on_c, 8, 63, 127
11, 90132, Note_on_c, 8, 63, 0
11, 90144, Note_on_c, 8, 63, 127
11, 90180, Note_on_c, 8, 63, 0
11, 90192, Note_on_c, 8, 63, 127
11, 90228, Note_on_c, 8, 63, 0
11, 90240, Note_on_c, 8, 63, 127
11, 90276, Note_on_c, 8, 63, 0
11, 90288, Note_on_c, 8, 63, 127
11, 90324, Note_on_c, 8, 63, 0
11, 90336, Note_on_c, 8, 63, 127
11, 90372, Note_on_c, 8, 63, 0
11, 90384, Note_on_c, 8, 63, 127
11, 90420, Note_on_c, 8, 63, 0
11, 90432, Note_on_c, 8, 62, 127
11, 90468, Note_on_c, 8, 62, 0
11, 90480, Note_on_c, 8, 62, 127
11, 90516, Note_on_c, 8, 62, 0
11, 90528, Note_on_c, 8, 62, 127
11, 90564, Note_on_c, 8, 62, 0
11, 90576, Note_on_c, 8, 62, 127
11, 90612, Note_on_c, 8, 62, 0
11, 90624, Note_on_c, 8, 62, 127
11, 90660, Note_on_c, 8, 62, 0
11, 90672, Note_on_c, 8, 62, 127
11, 90708, Note_on_c, 8, 62, 0
11, 90720, Note_on_c, 8, 62, 127
11, 90756, Note_on_c, 8, 62, 0
11, 90768, Note_on_c, 8, 62, 127
11, 90804, Note_on_c, 8, 62, 0
11, 90816, Note_on_c, 8, 62, 127
11, 90852, Note_on_c, 8, 62, 0
11, 90864, Note_on_c, 8, 62, 127
11, 90900, Note_on_c, 8, 62, 0
11, 90912, Note_on_c, 8, 62, 127
11, 90948, Note_on_c, 8, 62, 0
11, 90960, Note_on_c, 8, 62, 127
11, 90996, Note_on_c, 8, 62, 0
11, 91008, Note_on_c, 8, 62, 127
11, 91044, Note_on_c, 8, 62, 0
11, 91056, Note_on_c, 8, 58, 127
11, 91092, Note_on_c, 8, 58, 0
11, 91104, Note_on_c, 8, 58, 127
11, 91140, Note_on_c, 8, 58, 0
11, 91152, Note_on_c, 8, 58, 127
11, 91188, Note_on_c, 8, 58, 0
11, 91200, Note_on_c, 8, 62, 127
11, 91236, Note_on_c, 8, 62, 0
11, 91248, Note_on_c, 8, 62, 127
11, 91284, Note_on_c, 8, 62, 0
11, 91296, Note_on_c, 8, 62, 127
11, 91332, Note_on_c, 8, 62, 0
11, 91344, Note_on_c, 8, 62, 127
11, 91380, Note_on_c, 8, 62, 0
11, 91392, Note_on_c, 8, 67, 127
11, 91428, Note_on_c, 8, 67, 0
11, 91440, Note_on_c, 8, 67, 127
11, 91476, Note_on_c, 8, 67, 0
11, 91488, Note_on_c, 8, 67, 127
11, 91524, Note_on_c, 8, 67, 0
11, 91536, Note_on_c, 8, 67, 127
11, 91572, Note_on_c, 8, 67, 0
11, 91584, Note_on_c, 8, 70, 127
11, 91620, Note_on_c, 8, 70, 0
11, 91632, Note_on_c, 8, 70, 127
11, 91668, Note_on_c, 8, 70, 0
11, 91680, Note_on_c, 8, 70, 127
11, 91716, Note_on_c, 8, 70, 0
11, 91728, Note_on_c, 8, 70, 127
11, 91764, Note_on_c, 8, 70, 0
11, 91776, Note_on_c, 8, 74, 127
11, 91812, Note_on_c, 8, 74, 0
11, 91824, Note_on_c, 8, 74, 127
11, 91860, Note_on_c, 8, 74, 0
11, 91872, Note_on_c, 8, 74, 127
11, 91908, Note_on_c, 8, 74, 0
11, 91920, Note_on_c, 8, 74, 127
11, 91956, Note_on_c, 8, 74, 0
11, 91968, Note_on_c, 8, 62, 127
11, 92004, Note_on_c, 8, 62, 0
11, 92016, Note_on_c, 8, 62, 127
11, 92052, Note_on_c, 8, 62, 0
11, 92064, Note_on_c, 8, 62, 127
11, 92100, Note_on_c, 8, 62, 0
11, 92112, Note_on_c, 8, 62, 127
11, 92148, Note_on_c, 8, 62, 0
11, 92160, Note_on_c, 8, 58, 127
11, 92196, Note_on_c, 8, 58, 0
11, 92208, Note_on_c, 8, 58, 127
11, 92244, Note_on_c, 8, 58, 0
11, 92256, Note_on_c, 8, 58, 127
11, 92292, Note_on_c, 8, 58, 0
11, 92304, Note_on_c, 8, 58, 127
11, 92340, Note_on_c, 8, 58, 0
11, 92352, Note_on_c, 8, 55, 127
11, 92388, Note_on_c, 8, 55, 0
11, 92400, Note_on_c, 8, 55, 127
11, 92436, Note_on_c, 8, 55, 0
11, 92448, Note_on_c, 8, 55, 127
11, 92484, Note_on_c, 8, 55, 0
11, 92496, Note_on_c, 8, 55, 127
11, 92532, Note_on_c, 8, 55, 0
11, 92544, Note_on_c, 8, 62, 127
11, 92580, Note_on_c, 8, 62, 0
11, 92592, Note_on_c, 8, 62, 127
11, 92628, Note_on_c, 8, 62, 0
11, 92640, Note_on_c, 8, 62, 127
11, 92676, Note_on_c, 8, 62, 0
11, 92688, Note_on_c, 8, 62, 127
11, 92724, Note_on_c, 8, 62, 0
11, 92928, Note_on_c, 8, 55, 127
11, 93312, Note_on_c, 8, 55, 0
11, 93312, End_track
12, 0, Start_track
12, 0, MIDI_port, 0
12, 0, Title_t, "Slow Attack Violin S"
12, 0, Program_c, 10, 40
12, 0, Control_c, 10, 7, 127
12, 0, Note_on_c, 10, 79, 100
12, 672, Note_on_c, 10, 79, 0
12, 672, Note_on_c, 10, 82, 100
12, 768, Note_on_c, 10, 82, 0
12, 768, Note_on_c, 10, 72, 100
12, 1152, Note_on_c, 10, 72, 0
12, 1152, Note_on_c, 10, 81, 100
12, 1440, Note_on_c, 10, 81, 0
12, 1440, Note_on_c, 10, 74, 100
12, 1536, Note_on_c, 10, 74, 0
12, 1536, Note_on_c, 10, 82, 100
12, 1680, Note_on_c, 10, 82, 0
12, 1680, Note_on_c, 10, 81, 100
12, 1728, Note_on_c, 10, 81, 0
12, 1728, Note_on_c, 10, 79, 100
12, 1920, Note_on_c, 10, 79, 0
12, 3072, Note_on_c, 10, 79, 100
12, 3360, Note_on_c, 10, 79, 0
12, 3360, Note_on_c, 10, 82, 100
12, 3456, Note_on_c, 10, 82, 0
12, 3456, Note_on_c, 10, 81, 100
12, 3744, Note_on_c, 10, 81, 0
12, 3744, Note_on_c, 10, 84, 100
12, 3840, Note_on_c, 10, 84, 0
12, 3840, Note_on_c, 10, 75, 100
12, 4128, Note_on_c, 10, 75, 0
12, 4128, Note_on_c, 10, 84, 100
12, 4224, Note_on_c, 10, 84, 0
12, 4224, Note_on_c, 10, 74, 100
12, 4512, Note_on_c, 10, 74, 0
12, 4512, Note_on_c, 10, 70, 100
12, 4608, Note_on_c, 10, 70, 0
12, 4608, Note_on_c, 10, 77, 100
12, 4896, Note_on_c, 10, 77, 0
12, 4896, Note_on_c, 10, 82, 100
12, 4992, Note_on_c, 10, 82, 0
12, 4992, Note_on_c, 10, 79, 100
12, 5280, Note_on_c, 10, 79, 0
12, 5280, Note_on_c, 10, 82, 100
12, 5376, Note_on_c, 10, 82, 0
12, 5376, Note_on_c, 10, 74, 100
12, 5568, Note_on_c, 10, 74, 0
12, 5568, Note_on_c, 10, 72, 100
12, 5568, Pitch_bend_c, 10, 16383
12, 5580, Pitch_bend_c, 10, 8192
12, 5592, Pitch_bend_c, 10, 16383
12, 5604, Pitch_bend_c, 10, 8192
12, 5616, Pitch_bend_c, 10, 16383
12, 5628, Pitch_bend_c, 10, 8192
12, 5640, Pitch_bend_c, 10, 16383
12, 5652, Pitch_bend_c, 10, 8192
12, 5664, Pitch_bend_c, 10, 16383
12, 5676, Pitch_bend_c, 10, 8192
12, 5688, Pitch_bend_c, 10, 16383
12, 5700, Pitch_bend_c, 10, 8192
12, 5712, Pitch_bend_c, 10, 16383
12, 5724, Pitch_bend_c, 10, 8192
12, 5736, Pitch_bend_c, 10, 16383
12, 5748, Pitch_bend_c, 10, 8192
12, 5760, Note_on_c, 10, 72, 0
12, 5760, Note_on_c, 10, 70, 100
12, 6144, Note_on_c, 10, 70, 0
12, 6912, Note_on_c, 10, 77, 100
12, 7200, Note_on_c, 10, 77, 0
12, 7200, Note_on_c, 10, 70, 100
12, 7296, Note_on_c, 10, 70, 0
12, 7296, Note_on_c, 10, 80, 100
12, 7584, Note_on_c, 10, 80, 0
12, 7584, Note_on_c, 10, 77, 100
12, 7680, Note_on_c, 10, 77, 0
12, 7680, Note_on_c, 10, 75, 100
12, 7824, Note_on_c, 10, 75, 0
12, 7824, Note_on_c, 10, 74, 100
12, 7872, Note_on_c, 10, 74, 0
12, 7872, Note_on_c, 10, 72, 100
12, 8064, Note_on_c, 10, 72, 0
12, 8064, Note_on_c, 10, 79, 100
12, 8352, Note_on_c, 10, 79, 0
12, 8352, Note_on_c, 10, 72, 100
12, 8448, Note_on_c, 10, 72, 0
12, 8448, Note_on_c, 10, 82, 100
12, 8736, Note_on_c, 10, 82, 0
12, 8736, Note_on_c, 10, 79, 100
12, 8832, Note_on_c, 10, 79, 0
12, 8832, Note_on_c, 10, 78, 100
12, 8976, Note_on_c, 10, 78, 0
12, 8976, Note_on_c, 10, 75, 100
12, 9024, Note_on_c, 10, 75, 0
12, 9024, Note_on_c, 10, 74, 100
12, 9216, Note_on_c, 10, 74, 0
12, 9216, Note_on_c, 10, 82, 100
12, 9504, Note_on_c, 10, 82, 0
12, 9504, Note_on_c, 10, 79, 100
12, 9600, Note_on_c, 10, 79, 0
12, 9600, Note_on_c, 10, 80, 100
12, 9888, Note_on_c, 10, 80, 0
12, 9888, Note_on_c, 10, 79, 100
12, 9984, Note_on_c, 10, 79, 0
12, 9984, Note_on_c, 10, 78, 100
12, 10272, Note_on_c, 10, 78, 0
12, 10272, Note_on_c, 10, 74, 100
12, 10368, Note_on_c, 10, 74, 0
12, 10368, Note_on_c, 10, 75, 100
12, 10656, Note_on_c, 10, 75, 0
12, 10656, Note_on_c, 10, 74, 100
12, 10752, Note_on_c, 10, 74, 0
12, 10752, Note_on_c, 10, 84, 100
12, 11040, Note_on_c, 10, 84, 0
12, 11040, Note_on_c, 10, 74, 100
12, 11136, Note_on_c, 10, 74, 0
12, 11136, Note_on_c, 10, 82, 100
12, 11232, Note_on_c, 10, 82, 0
12, 11232, Note_on_c, 10, 81, 100
12, 11280, Note_on_c, 10, 81, 0
12, 11280, Note_on_c, 10, 79, 100
12, 11328, Note_on_c, 10, 79, 0
12, 11328, Note_on_c, 10, 78, 100
12, 11328, Pitch_bend_c, 10, 13192
12, 11340, Pitch_bend_c, 10, 8192
12, 11352, Pitch_bend_c, 10, 13192
12, 11364, Pitch_bend_c, 10, 8192
12, 11376, Pitch_bend_c, 10, 13192
12, 11388, Pitch_bend_c, 10, 8192
12, 11400, Pitch_bend_c, 10, 13192
12, 11412, Pitch_bend_c, 10, 8192
12, 11424, Pitch_bend_c, 10, 13192
12, 11436, Pitch_bend_c, 10, 8192
12, 11448, Pitch_bend_c, 10, 13192
12, 11460, Pitch_bend_c, 10, 8192
12, 11472, Note_on_c, 10, 78, 0
12, 11472, Note_on_c, 10, 79, 100
12, 11520, Note_on_c, 10, 79, 0
12, 11520, Note_on_c, 10, 79, 100
12, 11712, Note_on_c, 10, 79, 0
12, 12672, Note_on_c, 10, 74, 100
12, 13440, Note_on_c, 10, 74, 0
12, 13440, Note_on_c, 10, 79, 100
12, 13728, Note_on_c, 10, 79, 0
12, 13728, Note_on_c, 10, 84, 100
12, 13824, Note_on_c, 10, 84, 0
12, 13824, Note_on_c, 10, 72, 100
12, 14112, Note_on_c, 10, 72, 0
12, 14112, Note_on_c, 10, 81, 100
12, 14208, Note_on_c, 10, 81, 0
12, 14208, Note_on_c, 10, 82, 100
12, 14304, Note_on_c, 10, 82, 0
12, 14304, Note_on_c, 10, 81, 100
12, 14352, Note_on_c, 10, 81, 0
12, 14352, Note_on_c, 10, 79, 100
12, 14400, Note_on_c, 10, 79, 0
12, 14400, Note_on_c, 10, 78, 100
12, 14400, Pitch_bend_c, 10, 13192
12, 14412, Pitch_bend_c, 10, 8192
12, 14424, Pitch_bend_c, 10, 13192
12, 14436, Pitch_bend_c, 10, 8192
12, 14448, Pitch_bend_c, 10, 13192
12, 14460, Pitch_bend_c, 10, 8192
12, 14472, Pitch_bend_c, 10, 13192
12, 14484, Pitch_bend_c, 10, 8192
12, 14496, Pitch_bend_c, 10, 13192
12, 14508, Pitch_bend_c, 10, 8192
12, 14520, Pitch_bend_c, 10, 13192
12, 14532, Pitch_bend_c, 10, 8192
12, 14544, Note_on_c, 10, 78, 0
12, 14544, Note_on_c, 10, 79, 100
12, 16896, Note_on_c, 10, 79, 0
12, 17688, Control_c, 10, 7, 100
12, 17688, End_track
0, 0, End_of_file
