0, 0, Header, 1, 31, 480
1, 0, Start_track
1, 0, Title_t, "The Imperial March (Star Wars)"
1, 0, Copyright_t, "Copyright ©1998 by Blue Max Distribution"
1, 0, Text_t, "The Imperial March (Star Wars)"
1, 0, SMPTE_offset, 96, 0, 0, 0, 0
1, 0, Time_signature, 4, 2, 24, 8
1, 0, Key_signature, 0, "major"
1, 0, Tempo, 571428
1, 5760, Text_t, """The Imperial March"" from ""The Empire Strikes Back"""
1, 5760, Text_t, "Part III  of VI from the ""Star Wars Suite"""
1, 5760, Text_t, "Sequenced for General MIDI by GaryW0001@AOL.com"
1, 5760, Text_t, "Composed & Arranged by John Williams"
1, 5760, Text_t, "Sequence Copyright ©1998 by Blue Max Distribution"
1, 5760, Text_t, "All Rights Reserved - Make No Alterations!"
1, 5760, Text_t, "For Private/Non-Commercial Purposes Only!!"
1, 5760, Text_t, "All Other Uses Require the Author's Permission"
1, 5760, Text_t, "Send Requests Via E-Mail to GaryW0001@AOL.com"
1, 5760, Text_t, "Please be sure to visit my Official MIDI Homepage @"
1, 5760, Text_t, "http://garyw0001.simplenet.com/index.html"
1, 5760, End_track
2, 0, Start_track
2, 0, Text_t, "Flutes/Piccolo"
2, 0, Program_c, 0, 72
2, 0, Control_c, 0, 10, 42
2, 0, Control_c, 0, 93, 5
2, 0, Control_c, 0, 91, 127
2, 0, Control_c, 0, 11, 127
2, 0, Control_c, 0, 7, 69
2, 0, Control_c, 0, 123, 0
2, 21124, Note_on_c, 0, 91, 110
2, 21204, Note_on_c, 0, 79, 85
2, 21215, Note_off_c, 0, 91, 64
2, 21282, Note_on_c, 0, 78, 84
2, 21295, Note_off_c, 0, 79, 64
2, 21368, Note_on_c, 0, 79, 98
2, 21372, Note_off_c, 0, 78, 64
2, 21438, Note_off_c, 0, 79, 64
2, 23039, Note_on_c, 0, 88, 110
2, 23128, Note_on_c, 0, 76, 84
2, 23129, Note_off_c, 0, 88, 64
2, 23203, Note_on_c, 0, 75, 85
2, 23219, Note_off_c, 0, 76, 64
2, 23285, Note_on_c, 0, 76, 96
2, 23294, Note_off_c, 0, 75, 64
2, 23355, Note_off_c, 0, 76, 64
2, 24966, Note_on_c, 0, 82, 109
2, 25049, Note_on_c, 0, 70, 84
2, 25058, Note_off_c, 0, 82, 64
2, 25127, Note_on_c, 0, 69, 84
2, 25139, Note_off_c, 0, 70, 64
2, 25208, Note_on_c, 0, 70, 97
2, 25218, Note_off_c, 0, 69, 64
2, 25279, Note_off_c, 0, 70, 64
2, 26885, Note_on_c, 0, 82, 110
2, 26966, Note_on_c, 0, 70, 85
2, 26977, Note_off_c, 0, 82, 64
2, 27048, Note_on_c, 0, 69, 81
2, 27056, Note_off_c, 0, 70, 64
2, 27129, Note_on_c, 0, 70, 98
2, 27140, Note_off_c, 0, 69, 64
2, 27199, Note_off_c, 0, 70, 64
2, 27844, Note_on_c, 0, 79, 110
2, 27926, Note_on_c, 0, 67, 84
2, 27936, Note_off_c, 0, 79, 64
2, 28005, Note_on_c, 0, 66, 85
2, 28016, Note_off_c, 0, 67, 64
2, 28086, Note_on_c, 0, 67, 99
2, 28095, Note_off_c, 0, 66, 64
2, 28156, Note_off_c, 0, 67, 64
2, 28328, Note_on_c, 0, 86, 110
2, 28408, Note_on_c, 0, 74, 84
2, 28418, Note_off_c, 0, 86, 64
2, 28487, Note_on_c, 0, 73, 84
2, 28500, Note_off_c, 0, 74, 64
2, 28566, Note_on_c, 0, 74, 98
2, 28578, Note_off_c, 0, 73, 64
2, 28636, Note_off_c, 0, 74, 64
2, 28809, Note_on_c, 0, 91, 107
2, 28885, Note_on_c, 0, 79, 85
2, 28901, Note_off_c, 0, 91, 64
2, 28968, Note_on_c, 0, 78, 84
2, 28976, Note_off_c, 0, 79, 64
2, 29046, Note_on_c, 0, 79, 96
2, 29058, Note_off_c, 0, 78, 64
2, 29116, Note_off_c, 0, 79, 64
2, 30240, Note_on_c, 0, 90, 101
2, 30514, Note_off_c, 0, 90, 64
2, 30609, Note_on_c, 0, 89, 102
2, 30656, Note_off_c, 0, 89, 64
2, 30729, Note_on_c, 0, 88, 110
2, 30802, Note_on_c, 0, 76, 85
2, 30819, Note_off_c, 0, 88, 64
2, 30884, Note_on_c, 0, 75, 82
2, 30892, Note_off_c, 0, 76, 64
2, 30969, Note_on_c, 0, 76, 96
2, 30975, Note_off_c, 0, 75, 64
2, 31039, Note_off_c, 0, 76, 64
2, 31448, Note_on_c, 0, 80, 103
2, 31506, Note_off_c, 0, 80, 64
2, 31688, Note_on_c, 0, 85, 101
2, 32107, Note_off_c, 0, 85, 64
2, 32168, Note_on_c, 0, 84, 102
2, 32443, Note_off_c, 0, 84, 64
2, 32527, Note_on_c, 0, 83, 104
2, 32573, Note_off_c, 0, 83, 64
2, 32648, Note_on_c, 0, 82, 110
2, 32726, Note_on_c, 0, 70, 84
2, 32739, Note_off_c, 0, 82, 64
2, 32808, Note_on_c, 0, 69, 85
2, 32816, Note_off_c, 0, 70, 64
2, 32888, Note_on_c, 0, 70, 96
2, 32900, Note_off_c, 0, 69, 64
2, 32959, Note_off_c, 0, 70, 64
2, 33369, Note_on_c, 0, 75, 110
2, 33428, Note_off_c, 0, 75, 64
2, 33605, Note_on_c, 0, 78, 104
2, 34025, Note_off_c, 0, 78, 64
2, 34087, Note_on_c, 0, 75, 107
2, 34361, Note_off_c, 0, 75, 64
2, 34449, Note_on_c, 0, 82, 100
2, 34496, Note_off_c, 0, 82, 64
2, 34568, Note_on_c, 0, 79, 104
2, 34916, Note_off_c, 0, 79, 64
2, 35049, Note_on_c, 0, 87, 109
2, 35323, Note_off_c, 0, 87, 64
2, 35407, Note_on_c, 0, 94, 98
2, 35453, Note_off_c, 0, 94, 64
2, 35520, Control_c, 0, 11, 127
2, 35529, Note_on_c, 0, 91, 103
2, 35568, Control_c, 0, 11, 124
2, 35616, Control_c, 0, 11, 121
2, 35688, Control_c, 0, 11, 118
2, 35736, Control_c, 0, 11, 115
2, 35784, Control_c, 0, 11, 111
2, 35856, Control_c, 0, 11, 108
2, 35904, Control_c, 0, 11, 105
2, 35976, Control_c, 0, 11, 101
2, 36000, Control_c, 0, 11, 99
2, 36000, Control_c, 0, 11, 99
2, 36072, Control_c, 0, 11, 103
2, 36120, Control_c, 0, 11, 106
2, 36168, Control_c, 0, 11, 109
2, 36216, Control_c, 0, 11, 113
2, 36288, Control_c, 0, 11, 116
2, 36336, Control_c, 0, 11, 120
2, 36384, Control_c, 0, 11, 123
2, 36405, Note_off_c, 0, 91, 64
2, 36432, Control_c, 0, 11, 127
2, 42240, Program_c, 0, 73
2, 42246, Note_on_c, 0, 82, 104
2, 42248, Note_on_c, 0, 86, 104
2, 42249, Note_on_c, 0, 98, 101
2, 42304, Note_off_c, 0, 82, 64
2, 42308, Note_off_c, 0, 98, 64
2, 42308, Note_off_c, 0, 86, 64
2, 42482, Note_on_c, 0, 98, 100
2, 42484, Note_on_c, 0, 86, 100
2, 42486, Note_on_c, 0, 82, 104
2, 42526, Note_off_c, 0, 98, 64
2, 42526, Note_off_c, 0, 86, 64
2, 42529, Note_off_c, 0, 82, 64
2, 42565, Note_on_c, 0, 86, 101
2, 42569, Note_on_c, 0, 98, 104
2, 42569, Note_on_c, 0, 82, 103
2, 42607, Note_off_c, 0, 86, 64
2, 42612, Note_off_c, 0, 98, 64
2, 42613, Note_off_c, 0, 82, 64
2, 42648, Note_on_c, 0, 98, 97
2, 42648, Note_on_c, 0, 86, 99
2, 42648, Note_on_c, 0, 82, 99
2, 42690, Note_off_c, 0, 98, 64
2, 42690, Note_off_c, 0, 86, 64
2, 42692, Note_off_c, 0, 82, 64
2, 42722, Note_on_c, 0, 99, 109
2, 42726, Note_on_c, 0, 83, 105
2, 42727, Note_on_c, 0, 87, 107
2, 42764, Note_off_c, 0, 99, 64
2, 42768, Note_off_c, 0, 83, 64
2, 42771, Note_off_c, 0, 87, 64
2, 42805, Note_on_c, 0, 83, 99
2, 42806, Note_on_c, 0, 99, 104
2, 42808, Note_on_c, 0, 87, 101
2, 42848, Note_off_c, 0, 83, 64
2, 42850, Note_off_c, 0, 87, 64
2, 42850, Note_off_c, 0, 99, 64
2, 42886, Note_on_c, 0, 99, 100
2, 42888, Note_on_c, 0, 87, 107
2, 42889, Note_on_c, 0, 83, 107
2, 42928, Note_off_c, 0, 99, 64
2, 42931, Note_off_c, 0, 83, 64
2, 42933, Note_off_c, 0, 87, 64
2, 42961, Note_on_c, 0, 85, 108
2, 42963, Note_on_c, 0, 101, 109
2, 42967, Note_on_c, 0, 89, 108
2, 43019, Note_off_c, 0, 85, 64
2, 43022, Note_off_c, 0, 101, 64
2, 43026, Note_off_c, 0, 89, 64
2, 43208, Note_on_c, 0, 103, 110
2, 43209, Note_on_c, 0, 91, 106
2, 43209, Note_on_c, 0, 87, 108
2, 43267, Note_off_c, 0, 91, 64
2, 43269, Note_off_c, 0, 87, 64
2, 43269, Note_off_c, 0, 103, 64
2, 43448, Note_on_c, 0, 87, 109
2, 43449, Note_on_c, 0, 103, 109
2, 43449, Note_on_c, 0, 91, 108
2, 43490, Note_off_c, 0, 87, 64
2, 43491, Note_off_c, 0, 91, 64
2, 43492, Note_off_c, 0, 103, 64
2, 43519, Note_on_c, 0, 103, 109
2, 43521, Note_on_c, 0, 87, 110
2, 43528, Note_on_c, 0, 91, 108
2, 43561, Note_off_c, 0, 103, 64
2, 43566, Note_off_c, 0, 87, 64
2, 43570, Note_off_c, 0, 91, 64
2, 43605, Note_on_c, 0, 91, 104
2, 43606, Note_on_c, 0, 87, 101
2, 43607, Note_on_c, 0, 103, 101
2, 43649, Note_off_c, 0, 91, 64
2, 43649, Note_off_c, 0, 87, 64
2, 43652, Note_off_c, 0, 103, 64
2, 43687, Note_on_c, 0, 88, 118
2, 43687, Note_on_c, 0, 92, 115
2, 43688, Note_on_c, 0, 104, 117
2, 43729, Note_off_c, 0, 92, 64
2, 43731, Note_off_c, 0, 104, 64
2, 43732, Note_off_c, 0, 88, 64
2, 43765, Note_on_c, 0, 92, 109
2, 43767, Note_on_c, 0, 104, 103
2, 43769, Note_on_c, 0, 88, 110
2, 43807, Note_off_c, 0, 92, 64
2, 43811, Note_off_c, 0, 104, 64
2, 43813, Note_off_c, 0, 88, 64
2, 43843, Note_on_c, 0, 92, 104
2, 43847, Note_on_c, 0, 104, 103
2, 43849, Note_on_c, 0, 88, 104
2, 43885, Note_off_c, 0, 92, 64
2, 43889, Note_off_c, 0, 104, 64
2, 43891, Note_off_c, 0, 88, 64
2, 43924, Note_on_c, 0, 94, 109
2, 43926, Note_on_c, 0, 106, 106
2, 43926, Note_on_c, 0, 90, 110
2, 43982, Note_off_c, 0, 94, 64
2, 43984, Note_off_c, 0, 106, 64
2, 43985, Note_off_c, 0, 90, 64
2, 44404, Note_on_c, 0, 74, 64
2, 44408, Note_on_c, 0, 70, 60
2, 44448, Note_off_c, 0, 74, 64
2, 44451, Note_off_c, 0, 70, 64
2, 44487, Note_on_c, 0, 74, 64
2, 44489, Note_on_c, 0, 70, 56
2, 44529, Note_off_c, 0, 74, 64
2, 44531, Note_off_c, 0, 70, 64
2, 44568, Note_on_c, 0, 74, 59
2, 44568, Note_on_c, 0, 70, 52
2, 44610, Note_off_c, 0, 74, 64
2, 44610, Note_off_c, 0, 70, 64
2, 44647, Note_on_c, 0, 66, 66
2, 44649, Note_on_c, 0, 75, 73
2, 44691, Note_off_c, 0, 66, 64
2, 44692, Note_off_c, 0, 75, 64
2, 44728, Note_on_c, 0, 66, 58
2, 44729, Note_on_c, 0, 75, 66
2, 44770, Note_off_c, 0, 66, 64
2, 44772, Note_off_c, 0, 75, 64
2, 44808, Note_on_c, 0, 66, 51
2, 44809, Note_on_c, 0, 75, 54
2, 44851, Note_off_c, 0, 75, 64
2, 44852, Note_off_c, 0, 66, 64
2, 44887, Note_on_c, 0, 69, 60
2, 44888, Note_on_c, 0, 72, 63
2, 44945, Note_off_c, 0, 69, 64
2, 44946, Note_off_c, 0, 72, 64
2, 45360, Note_on_c, 0, 82, 66
2, 45364, Note_on_c, 0, 74, 60
2, 45402, Note_off_c, 0, 82, 64
2, 45406, Note_off_c, 0, 74, 64
2, 45446, Note_on_c, 0, 74, 59
2, 45448, Note_on_c, 0, 82, 66
2, 45488, Note_off_c, 0, 74, 64
2, 45491, Note_off_c, 0, 82, 64
2, 45526, Note_on_c, 0, 74, 53
2, 45527, Note_on_c, 0, 82, 60
2, 45568, Note_off_c, 0, 74, 64
2, 45569, Note_off_c, 0, 82, 64
2, 45607, Note_on_c, 0, 81, 68
2, 45609, Note_on_c, 0, 70, 64
2, 45649, Note_off_c, 0, 81, 64
2, 45651, Note_off_c, 0, 70, 64
2, 45678, Note_on_c, 0, 81, 59
2, 45681, Note_on_c, 0, 70, 50
2, 45722, Note_off_c, 0, 81, 64
2, 45724, Note_off_c, 0, 70, 64
2, 45765, Note_on_c, 0, 81, 65
2, 45766, Note_on_c, 0, 70, 59
2, 45807, Note_off_c, 0, 81, 64
2, 45808, Note_off_c, 0, 70, 64
2, 45848, Note_on_c, 0, 78, 65
2, 45849, Note_on_c, 0, 73, 57
2, 45890, Note_off_c, 0, 78, 64
2, 45891, Note_off_c, 0, 73, 64
2, 45924, Note_on_c, 0, 78, 59
2, 45925, Note_on_c, 0, 73, 55
2, 45966, Note_off_c, 0, 78, 64
2, 45967, Note_off_c, 0, 73, 64
2, 46005, Note_on_c, 0, 78, 62
2, 46007, Note_on_c, 0, 73, 58
2, 46047, Note_off_c, 0, 78, 64
2, 46049, Note_off_c, 0, 73, 64
2, 46328, Note_on_c, 0, 78, 60
2, 46328, Note_on_c, 0, 86, 66
2, 46370, Note_off_c, 0, 86, 64
2, 46371, Note_off_c, 0, 78, 64
2, 46407, Note_on_c, 0, 86, 65
2, 46408, Note_on_c, 0, 78, 59
2, 46450, Note_off_c, 0, 86, 64
2, 46450, Note_off_c, 0, 78, 64
2, 46480, Note_on_c, 0, 86, 60
2, 46488, Note_on_c, 0, 78, 52
2, 46522, Note_off_c, 0, 86, 64
2, 46531, Note_off_c, 0, 78, 64
2, 46564, Note_on_c, 0, 85, 73
2, 46566, Note_on_c, 0, 79, 66
2, 46607, Note_off_c, 0, 85, 64
2, 46609, Note_off_c, 0, 79, 64
2, 46648, Note_on_c, 0, 79, 52
2, 46648, Note_on_c, 0, 85, 60
2, 46690, Note_off_c, 0, 85, 64
2, 46692, Note_off_c, 0, 79, 64
2, 46727, Note_on_c, 0, 85, 66
2, 46729, Note_on_c, 0, 79, 60
2, 46771, Note_off_c, 0, 85, 64
2, 46771, Note_off_c, 0, 79, 64
2, 46807, Note_on_c, 0, 81, 66
2, 46809, Note_on_c, 0, 73, 58
2, 46850, Note_off_c, 0, 81, 64
2, 46851, Note_off_c, 0, 73, 64
2, 46889, Note_on_c, 0, 73, 55
2, 46889, Note_on_c, 0, 81, 58
2, 46932, Note_off_c, 0, 73, 64
2, 46933, Note_off_c, 0, 81, 64
2, 46969, Note_on_c, 0, 73, 60
2, 46969, Note_on_c, 0, 81, 66
2, 47011, Note_off_c, 0, 73, 64
2, 47011, Note_off_c, 0, 81, 64
2, 47045, Note_on_c, 0, 75, 60
2, 47049, Note_on_c, 0, 84, 65
2, 47087, Note_off_c, 0, 75, 64
2, 47091, Note_off_c, 0, 84, 64
2, 47125, Note_on_c, 0, 84, 58
2, 47128, Note_on_c, 0, 75, 53
2, 47167, Note_off_c, 0, 84, 64
2, 47172, Note_off_c, 0, 75, 64
2, 47208, Note_on_c, 0, 75, 54
2, 47209, Note_on_c, 0, 84, 66
2, 47250, Note_off_c, 0, 75, 64
2, 47251, Note_off_c, 0, 84, 64
2, 47285, Note_on_c, 0, 82, 60
2, 47286, Note_on_c, 0, 74, 59
2, 47327, Note_off_c, 0, 82, 64
2, 47328, Note_off_c, 0, 74, 64
2, 47366, Note_on_c, 0, 74, 55
2, 47367, Note_on_c, 0, 82, 57
2, 47409, Note_off_c, 0, 74, 64
2, 47410, Note_off_c, 0, 82, 64
2, 47444, Note_on_c, 0, 74, 60
2, 47449, Note_on_c, 0, 82, 66
2, 47486, Note_off_c, 0, 74, 64
2, 47491, Note_off_c, 0, 82, 64
2, 47527, Note_on_c, 0, 78, 62
2, 47527, Note_on_c, 0, 70, 59
2, 47569, Note_off_c, 0, 78, 64
2, 47570, Note_off_c, 0, 70, 64
2, 47608, Note_on_c, 0, 78, 60
2, 47608, Note_on_c, 0, 70, 55
2, 47650, Note_off_c, 0, 78, 64
2, 47650, Note_off_c, 0, 70, 64
2, 47688, Note_on_c, 0, 70, 60
2, 47689, Note_on_c, 0, 78, 66
2, 47730, Note_off_c, 0, 70, 64
2, 47731, Note_off_c, 0, 78, 64
2, 47766, Note_on_c, 0, 66, 53
2, 47767, Note_on_c, 0, 75, 65
2, 47809, Note_off_c, 0, 66, 64
2, 47809, Note_off_c, 0, 75, 64
2, 47839, Note_on_c, 0, 75, 58
2, 47844, Note_on_c, 0, 66, 53
2, 47881, Note_off_c, 0, 75, 64
2, 47887, Note_off_c, 0, 66, 64
2, 47927, Note_on_c, 0, 66, 59
2, 47929, Note_on_c, 0, 75, 61
2, 47969, Note_off_c, 0, 66, 64
2, 47971, Note_off_c, 0, 75, 64
2, 48246, Note_on_c, 0, 70, 60
2, 48247, Note_on_c, 0, 74, 64
2, 48289, Note_off_c, 0, 70, 64
2, 48291, Note_off_c, 0, 74, 64
2, 48325, Note_on_c, 0, 74, 63
2, 48329, Note_on_c, 0, 70, 59
2, 48368, Note_off_c, 0, 74, 64
2, 48372, Note_off_c, 0, 70, 64
2, 48406, Note_on_c, 0, 74, 60
2, 48408, Note_on_c, 0, 70, 53
2, 48448, Note_off_c, 0, 74, 64
2, 48450, Note_off_c, 0, 70, 64
2, 48484, Note_on_c, 0, 66, 65
2, 48489, Note_on_c, 0, 75, 70
2, 48526, Note_off_c, 0, 66, 64
2, 48531, Note_off_c, 0, 75, 64
2, 48567, Note_on_c, 0, 75, 60
2, 48568, Note_on_c, 0, 66, 52
2, 48610, Note_off_c, 0, 75, 64
2, 48610, Note_off_c, 0, 66, 64
2, 48647, Note_on_c, 0, 66, 59
2, 48649, Note_on_c, 0, 75, 64
2, 48690, Note_off_c, 0, 66, 64
2, 48691, Note_off_c, 0, 75, 64
2, 48720, Note_on_c, 0, 72, 63
2, 48728, Note_on_c, 0, 69, 58
2, 48762, Note_off_c, 0, 72, 64
2, 48770, Note_off_c, 0, 69, 64
2, 48809, Note_on_c, 0, 72, 59
2, 48809, Note_on_c, 0, 69, 52
2, 48852, Note_off_c, 0, 72, 64
2, 48852, Note_off_c, 0, 69, 64
2, 48882, Note_on_c, 0, 72, 65
2, 48887, Note_on_c, 0, 69, 57
2, 48924, Note_off_c, 0, 72, 64
2, 48930, Note_off_c, 0, 69, 64
2, 49207, Note_on_c, 0, 74, 60
2, 49209, Note_on_c, 0, 82, 65
2, 49249, Note_off_c, 0, 74, 64
2, 49252, Note_off_c, 0, 82, 64
2, 49288, Note_on_c, 0, 82, 66
2, 49288, Note_on_c, 0, 74, 57
2, 49330, Note_off_c, 0, 74, 64
2, 49331, Note_off_c, 0, 82, 64
2, 49368, Note_on_c, 0, 74, 50
2, 49369, Note_on_c, 0, 82, 56
2, 49411, Note_off_c, 0, 74, 64
2, 49412, Note_off_c, 0, 82, 64
2, 49448, Note_on_c, 0, 81, 71
2, 49448, Note_on_c, 0, 70, 66
2, 49492, Note_off_c, 0, 70, 64
2, 49493, Note_off_c, 0, 81, 64
2, 49528, Note_on_c, 0, 81, 60
2, 49528, Note_on_c, 0, 70, 51
2, 49570, Note_off_c, 0, 81, 64
2, 49570, Note_off_c, 0, 70, 64
2, 49601, Note_on_c, 0, 81, 65
2, 49609, Note_on_c, 0, 70, 59
2, 49646, Note_off_c, 0, 81, 64
2, 49652, Note_off_c, 0, 70, 64
2, 49687, Note_on_c, 0, 78, 65
2, 49689, Note_on_c, 0, 73, 58
2, 49730, Note_off_c, 0, 78, 64
2, 49733, Note_off_c, 0, 73, 64
2, 49766, Note_on_c, 0, 78, 60
2, 49767, Note_on_c, 0, 73, 55
2, 49809, Note_off_c, 0, 78, 64
2, 49809, Note_off_c, 0, 73, 64
2, 49847, Note_on_c, 0, 78, 63
2, 49849, Note_on_c, 0, 73, 60
2, 49891, Note_off_c, 0, 73, 64
2, 49892, Note_off_c, 0, 78, 64
2, 50167, Note_on_c, 0, 82, 59
2, 50169, Note_on_c, 0, 88, 63
2, 50209, Note_off_c, 0, 82, 64
2, 50211, Note_off_c, 0, 88, 64
2, 50246, Note_on_c, 0, 88, 64
2, 50246, Note_on_c, 0, 82, 56
2, 50289, Note_off_c, 0, 88, 64
2, 50290, Note_off_c, 0, 82, 64
2, 50329, Note_on_c, 0, 88, 59
2, 50329, Note_on_c, 0, 82, 54
2, 50372, Note_off_c, 0, 88, 64
2, 50372, Note_off_c, 0, 82, 64
2, 50405, Note_on_c, 0, 79, 61
2, 50408, Note_on_c, 0, 86, 73
2, 50448, Note_off_c, 0, 79, 64
2, 50452, Note_off_c, 0, 86, 64
2, 50485, Note_on_c, 0, 79, 54
2, 50488, Note_on_c, 0, 86, 60
2, 50528, Note_off_c, 0, 79, 64
2, 50530, Note_off_c, 0, 86, 64
2, 50563, Note_on_c, 0, 79, 59
2, 50569, Note_on_c, 0, 86, 64
2, 50607, Note_off_c, 0, 79, 64
2, 50612, Note_off_c, 0, 86, 64
2, 50647, Note_on_c, 0, 82, 59
2, 50647, Note_on_c, 0, 74, 57
2, 50689, Note_off_c, 0, 82, 64
2, 50689, Note_off_c, 0, 74, 64
2, 50727, Note_on_c, 0, 74, 55
2, 50728, Note_on_c, 0, 82, 60
2, 50770, Note_off_c, 0, 74, 64
2, 50771, Note_off_c, 0, 82, 64
2, 50807, Note_on_c, 0, 74, 60
2, 50809, Note_on_c, 0, 82, 64
2, 50849, Note_off_c, 0, 74, 64
2, 50851, Note_off_c, 0, 82, 64
2, 50884, Note_on_c, 0, 72, 60
2, 50887, Note_on_c, 0, 80, 64
2, 50927, Note_off_c, 0, 72, 64
2, 50930, Note_off_c, 0, 80, 64
2, 50968, Note_on_c, 0, 80, 60
2, 50969, Note_on_c, 0, 72, 52
2, 51011, Note_off_c, 0, 72, 64
2, 51012, Note_off_c, 0, 80, 64
2, 51047, Note_on_c, 0, 72, 60
2, 51049, Note_on_c, 0, 80, 65
2, 51090, Note_off_c, 0, 72, 64
2, 51091, Note_off_c, 0, 80, 64
2, 51124, Note_on_c, 0, 75, 62
2, 51125, Note_on_c, 0, 68, 54
2, 51166, Note_off_c, 0, 75, 64
2, 51167, Note_off_c, 0, 68, 64
2, 51207, Note_on_c, 0, 68, 55
2, 51208, Note_on_c, 0, 75, 58
2, 51251, Note_off_c, 0, 68, 64
2, 51251, Note_off_c, 0, 75, 64
2, 51288, Note_on_c, 0, 68, 60
2, 51289, Note_on_c, 0, 75, 63
2, 51332, Note_off_c, 0, 68, 64
2, 51332, Note_off_c, 0, 75, 64
2, 51361, Note_on_c, 0, 71, 66
2, 51366, Note_on_c, 0, 63, 59
2, 51404, Note_off_c, 0, 71, 64
2, 51409, Note_off_c, 0, 63, 64
2, 51448, Note_on_c, 0, 63, 52
2, 51449, Note_on_c, 0, 71, 58
2, 51491, Note_off_c, 0, 71, 64
2, 51492, Note_off_c, 0, 63, 64
2, 51520, Note_on_c, 0, 63, 60
2, 51525, Note_on_c, 0, 71, 64
2, 51562, Note_off_c, 0, 63, 64
2, 51568, Note_off_c, 0, 71, 64
2, 51605, Note_on_c, 0, 68, 66
2, 51609, Note_on_c, 0, 65, 60
2, 51647, Note_off_c, 0, 68, 64
2, 51652, Note_off_c, 0, 65, 64
2, 51684, Note_on_c, 0, 68, 57
2, 51687, Note_on_c, 0, 65, 53
2, 51726, Note_off_c, 0, 68, 64
2, 51731, Note_off_c, 0, 65, 64
2, 51768, Note_on_c, 0, 68, 65
2, 51769, Note_on_c, 0, 65, 60
2, 51810, Note_off_c, 0, 68, 64
2, 51812, Note_off_c, 0, 65, 64
2, 59496, Control_c, 0, 11, 109
2, 59768, Note_on_c, 0, 76, 71
2, 59769, Note_on_c, 0, 72, 61
2, 59811, Note_off_c, 0, 76, 64
2, 59812, Note_off_c, 0, 72, 64
2, 59846, Note_on_c, 0, 76, 67
2, 59846, Note_on_c, 0, 72, 65
2, 59888, Note_off_c, 0, 76, 64
2, 59888, Note_off_c, 0, 72, 64
2, 59926, Note_on_c, 0, 76, 66
2, 59928, Note_on_c, 0, 72, 54
2, 59968, Note_off_c, 0, 76, 64
2, 59971, Note_off_c, 0, 72, 64
2, 60005, Note_on_c, 0, 68, 70
2, 60007, Note_on_c, 0, 77, 79
2, 60047, Note_off_c, 0, 68, 64
2, 60051, Note_off_c, 0, 77, 64
2, 60086, Note_on_c, 0, 68, 56
2, 60088, Note_on_c, 0, 77, 64
2, 60128, Note_off_c, 0, 68, 64
2, 60132, Note_off_c, 0, 77, 64
2, 60167, Note_on_c, 0, 68, 66
2, 60169, Note_on_c, 0, 77, 71
2, 60209, Note_off_c, 0, 68, 64
2, 60211, Note_off_c, 0, 77, 64
2, 60246, Note_on_c, 0, 74, 65
2, 60247, Note_on_c, 0, 71, 56
2, 60289, Note_off_c, 0, 74, 64
2, 60289, Note_off_c, 0, 71, 64
2, 60325, Note_on_c, 0, 71, 62
2, 60329, Note_on_c, 0, 74, 73
2, 60367, Note_off_c, 0, 71, 64
2, 60371, Note_off_c, 0, 74, 64
2, 60404, Note_on_c, 0, 71, 60
2, 60408, Note_on_c, 0, 74, 63
2, 60446, Note_off_c, 0, 71, 64
2, 60450, Note_off_c, 0, 74, 64
2, 60727, Note_on_c, 0, 76, 60
2, 60727, Note_on_c, 0, 84, 72
2, 60769, Note_off_c, 0, 76, 64
2, 60771, Note_off_c, 0, 84, 64
2, 60804, Note_on_c, 0, 84, 73
2, 60809, Note_on_c, 0, 76, 66
2, 60846, Note_off_c, 0, 84, 64
2, 60852, Note_off_c, 0, 76, 64
2, 60887, Note_on_c, 0, 76, 58
2, 60889, Note_on_c, 0, 84, 66
2, 60929, Note_off_c, 0, 76, 64
2, 60931, Note_off_c, 0, 84, 64
2, 60964, Note_on_c, 0, 83, 78
2, 60968, Note_on_c, 0, 72, 73
2, 61007, Note_off_c, 0, 83, 64
2, 61011, Note_off_c, 0, 72, 64
2, 61046, Note_on_c, 0, 83, 66
2, 61049, Note_on_c, 0, 72, 58
2, 61090, Note_off_c, 0, 83, 64
2, 61092, Note_off_c, 0, 72, 64
2, 61128, Note_on_c, 0, 72, 66
2, 61129, Note_on_c, 0, 83, 72
2, 61170, Note_off_c, 0, 72, 64
2, 61171, Note_off_c, 0, 83, 64
2, 61207, Note_on_c, 0, 80, 65
2, 61208, Note_on_c, 0, 75, 56
2, 61249, Note_off_c, 0, 80, 64
2, 61251, Note_off_c, 0, 75, 64
2, 61287, Note_on_c, 0, 80, 73
2, 61288, Note_on_c, 0, 75, 64
2, 61329, Note_off_c, 0, 80, 64
2, 61331, Note_off_c, 0, 75, 64
2, 61368, Note_on_c, 0, 75, 59
2, 61368, Note_on_c, 0, 80, 65
2, 61410, Note_off_c, 0, 75, 64
2, 61411, Note_off_c, 0, 80, 64
2, 61686, Note_on_c, 0, 88, 72
2, 61687, Note_on_c, 0, 80, 65
2, 61728, Note_off_c, 0, 88, 64
2, 61729, Note_off_c, 0, 80, 64
2, 61767, Note_on_c, 0, 80, 64
2, 61768, Note_on_c, 0, 88, 71
2, 61810, Note_off_c, 0, 80, 64
2, 61811, Note_off_c, 0, 88, 64
2, 61845, Note_on_c, 0, 80, 60
2, 61849, Note_on_c, 0, 88, 61
2, 61887, Note_off_c, 0, 80, 64
2, 61891, Note_off_c, 0, 88, 64
2, 61927, Note_on_c, 0, 87, 76
2, 61928, Note_on_c, 0, 81, 72
2, 61970, Note_off_c, 0, 87, 64
2, 61971, Note_off_c, 0, 81, 64
2, 62009, Note_on_c, 0, 81, 60
2, 62009, Note_on_c, 0, 87, 64
2, 62052, Note_off_c, 0, 81, 64
2, 62052, Note_off_c, 0, 87, 64
2, 62082, Note_on_c, 0, 87, 73
2, 62089, Note_on_c, 0, 81, 65
2, 62125, Note_off_c, 0, 87, 64
2, 62132, Note_off_c, 0, 81, 64
2, 62168, Note_on_c, 0, 75, 54
2, 62169, Note_on_c, 0, 84, 61
2, 62211, Note_off_c, 0, 75, 64
2, 62211, Note_off_c, 0, 84, 64
2, 62240, Note_on_c, 0, 84, 72
2, 62243, Note_on_c, 0, 75, 65
2, 62283, Note_off_c, 0, 84, 64
2, 62285, Note_off_c, 0, 75, 64
2, 62327, Note_on_c, 0, 84, 65
2, 62329, Note_on_c, 0, 75, 60
2, 62371, Note_off_c, 0, 84, 64
2, 62372, Note_off_c, 0, 75, 64
2, 62616, Control_c, 0, 11, 109
2, 62648, Note_on_c, 0, 72, 66
2, 62648, Note_on_c, 0, 76, 70
2, 62690, Note_off_c, 0, 72, 64
2, 62690, Note_off_c, 0, 76, 64
2, 62727, Note_on_c, 0, 72, 62
2, 62729, Note_on_c, 0, 76, 70
2, 62736, Control_c, 0, 11, 110
2, 62769, Note_off_c, 0, 72, 64
2, 62772, Note_off_c, 0, 76, 64
2, 62807, Note_on_c, 0, 76, 64
2, 62809, Note_on_c, 0, 72, 54
2, 62850, Note_off_c, 0, 76, 64
2, 62852, Note_off_c, 0, 72, 64
2, 62856, Control_c, 0, 11, 111
2, 62888, Note_on_c, 0, 74, 70
2, 62889, Note_on_c, 0, 77, 79
2, 62930, Note_off_c, 0, 74, 64
2, 62931, Note_off_c, 0, 77, 64
2, 62966, Note_on_c, 0, 74, 58
2, 62968, Note_on_c, 0, 77, 65
2, 62976, Control_c, 0, 11, 113
2, 63008, Note_off_c, 0, 74, 64
2, 63010, Note_off_c, 0, 77, 64
2, 63048, Note_on_c, 0, 74, 64
2, 63049, Note_on_c, 0, 77, 71
2, 63090, Note_off_c, 0, 74, 64
2, 63092, Note_off_c, 0, 77, 64
2, 63096, Control_c, 0, 11, 115
2, 63125, Note_on_c, 0, 74, 66
2, 63129, Note_on_c, 0, 71, 57
2, 63167, Note_off_c, 0, 74, 64
2, 63171, Note_off_c, 0, 71, 64
2, 63208, Note_on_c, 0, 74, 71
2, 63209, Note_on_c, 0, 71, 66
2, 63216, Control_c, 0, 11, 116
2, 63250, Note_off_c, 0, 74, 64
2, 63251, Note_off_c, 0, 71, 64
2, 63287, Note_on_c, 0, 74, 65
2, 63289, Note_on_c, 0, 71, 58
2, 63331, Note_off_c, 0, 74, 64
2, 63331, Note_off_c, 0, 71, 64
2, 63336, Control_c, 0, 11, 118
2, 63384, Control_c, 0, 11, 119
2, 63604, Note_on_c, 0, 81, 70
2, 63606, Note_on_c, 0, 77, 66
2, 63647, Note_off_c, 0, 81, 64
2, 63649, Note_off_c, 0, 77, 64
2, 63685, Note_on_c, 0, 81, 73
2, 63689, Note_on_c, 0, 77, 65
2, 63728, Note_off_c, 0, 81, 64
2, 63732, Note_off_c, 0, 77, 64
2, 63768, Note_on_c, 0, 77, 60
2, 63768, Note_on_c, 0, 81, 65
2, 63810, Note_off_c, 0, 77, 64
2, 63811, Note_off_c, 0, 81, 64
2, 63837, Note_on_c, 0, 74, 72
2, 63845, Note_on_c, 0, 83, 79
2, 63879, Note_off_c, 0, 74, 64
2, 63887, Note_off_c, 0, 83, 64
2, 63924, Note_on_c, 0, 74, 57
2, 63927, Note_on_c, 0, 83, 66
2, 63966, Note_off_c, 0, 74, 64
2, 63970, Note_off_c, 0, 83, 64
2, 64004, Note_on_c, 0, 83, 73
2, 64007, Note_on_c, 0, 74, 62
2, 64047, Note_off_c, 0, 83, 64
2, 64051, Note_off_c, 0, 74, 64
2, 64085, Note_on_c, 0, 80, 66
2, 64089, Note_on_c, 0, 71, 57
2, 64128, Note_off_c, 0, 80, 64
2, 64131, Note_off_c, 0, 71, 64
2, 64167, Note_on_c, 0, 71, 62
2, 64167, Note_on_c, 0, 80, 72
2, 64210, Note_off_c, 0, 71, 64
2, 64210, Note_off_c, 0, 80, 64
2, 64248, Note_on_c, 0, 80, 65
2, 64249, Note_on_c, 0, 71, 58
2, 64291, Note_off_c, 0, 80, 64
2, 64292, Note_off_c, 0, 71, 64
2, 64568, Note_on_c, 0, 93, 72
2, 64569, Note_on_c, 0, 84, 66
2, 64610, Note_off_c, 0, 93, 64
2, 64611, Note_off_c, 0, 84, 64
2, 64645, Note_on_c, 0, 84, 62
2, 64647, Note_on_c, 0, 93, 72
2, 64687, Note_off_c, 0, 84, 64
2, 64689, Note_off_c, 0, 93, 64
2, 64726, Note_on_c, 0, 84, 56
2, 64729, Note_on_c, 0, 93, 65
2, 64768, Note_off_c, 0, 84, 64
2, 64771, Note_off_c, 0, 93, 64
2, 64807, Note_on_c, 0, 92, 79
2, 64809, Note_on_c, 0, 83, 73
2, 64851, Note_off_c, 0, 92, 64
2, 64851, Note_off_c, 0, 83, 64
2, 64889, Note_on_c, 0, 92, 65
2, 64889, Note_on_c, 0, 83, 53
2, 64931, Note_off_c, 0, 92, 64
2, 64932, Note_off_c, 0, 83, 64
2, 64967, Note_on_c, 0, 92, 70
2, 64968, Note_on_c, 0, 83, 66
2, 65012, Note_off_c, 0, 92, 64
2, 65012, Note_off_c, 0, 83, 64
2, 65049, Note_on_c, 0, 89, 65
2, 65049, Note_on_c, 0, 81, 60
2, 65091, Note_off_c, 0, 89, 64
2, 65092, Note_off_c, 0, 81, 64
2, 65128, Note_on_c, 0, 89, 71
2, 65128, Note_on_c, 0, 81, 65
2, 65170, Note_off_c, 0, 81, 64
2, 65171, Note_off_c, 0, 89, 64
2, 65205, Note_on_c, 0, 81, 57
2, 65207, Note_on_c, 0, 89, 62
2, 65248, Note_off_c, 0, 81, 64
2, 65250, Note_off_c, 0, 89, 64
2, 65287, Note_on_c, 0, 86, 73
2, 65287, Note_on_c, 0, 77, 62
2, 65329, Note_off_c, 0, 86, 64
2, 65329, Note_off_c, 0, 77, 64
2, 65363, Note_on_c, 0, 86, 72
2, 65369, Note_on_c, 0, 77, 66
2, 65407, Note_off_c, 0, 86, 64
2, 65411, Note_off_c, 0, 77, 64
2, 65436, Note_on_c, 0, 77, 56
2, 65448, Note_on_c, 0, 86, 63
2, 65478, Note_off_c, 0, 77, 64
2, 65492, Note_off_c, 0, 86, 64
2, 65496, Control_c, 0, 11, 119
2, 65524, Note_on_c, 0, 83, 79
2, 65526, Note_on_c, 0, 74, 71
2, 65566, Note_off_c, 0, 83, 64
2, 65570, Note_off_c, 0, 74, 64
2, 65604, Note_on_c, 0, 83, 63
2, 65606, Note_on_c, 0, 74, 53
2, 65616, Control_c, 0, 11, 118
2, 65646, Note_off_c, 0, 83, 64
2, 65648, Note_off_c, 0, 74, 64
2, 65684, Note_on_c, 0, 83, 71
2, 65686, Note_on_c, 0, 74, 66
2, 65728, Note_off_c, 0, 83, 64
2, 65728, Note_off_c, 0, 74, 64
2, 65736, Control_c, 0, 11, 116
2, 65757, Note_on_c, 0, 72, 66
2, 65768, Note_on_c, 0, 80, 71
2, 65799, Note_off_c, 0, 72, 64
2, 65810, Note_off_c, 0, 80, 64
2, 65843, Note_on_c, 0, 80, 68
2, 65846, Note_on_c, 0, 72, 66
2, 65856, Control_c, 0, 11, 115
2, 65887, Note_off_c, 0, 80, 64
2, 65889, Note_off_c, 0, 72, 64
2, 65926, Note_on_c, 0, 80, 64
2, 65929, Note_on_c, 0, 72, 58
2, 65968, Note_off_c, 0, 80, 64
2, 65974, Note_off_c, 0, 72, 64
2, 65976, Control_c, 0, 11, 113
2, 66004, Note_on_c, 0, 77, 78
2, 66007, Note_on_c, 0, 68, 70
2, 66046, Note_off_c, 0, 77, 64
2, 66050, Note_off_c, 0, 68, 64
2, 66086, Note_on_c, 0, 77, 63
2, 66088, Note_on_c, 0, 68, 59
2, 66096, Control_c, 0, 11, 111
2, 66129, Note_off_c, 0, 77, 64
2, 66130, Note_off_c, 0, 68, 64
2, 66165, Note_on_c, 0, 68, 60
2, 66166, Note_on_c, 0, 77, 71
2, 66208, Note_off_c, 0, 68, 64
2, 66208, Note_off_c, 0, 77, 64
2, 66216, Control_c, 0, 11, 110
2, 66240, Control_c, 0, 11, 109
2, 66480, Note_on_c, 0, 84, 72
2, 66485, Note_on_c, 0, 81, 63
2, 66523, Note_off_c, 0, 84, 64
2, 66528, Note_off_c, 0, 81, 64
2, 66566, Note_on_c, 0, 81, 63
2, 66568, Note_on_c, 0, 84, 69
2, 66608, Note_off_c, 0, 81, 64
2, 66611, Note_off_c, 0, 84, 64
2, 66648, Note_on_c, 0, 81, 60
2, 66649, Note_on_c, 0, 84, 65
2, 66690, Note_off_c, 0, 81, 64
2, 66692, Note_off_c, 0, 84, 64
2, 66724, Note_on_c, 0, 76, 67
2, 66726, Note_on_c, 0, 86, 77
2, 66768, Note_off_c, 0, 76, 64
2, 66770, Note_off_c, 0, 86, 64
2, 66806, Note_on_c, 0, 76, 59
2, 66807, Note_on_c, 0, 86, 64
2, 66848, Note_off_c, 0, 76, 64
2, 66849, Note_off_c, 0, 86, 64
2, 66888, Note_on_c, 0, 86, 71
2, 66889, Note_on_c, 0, 76, 64
2, 66930, Note_off_c, 0, 86, 64
2, 66931, Note_off_c, 0, 76, 64
2, 66964, Note_on_c, 0, 80, 57
2, 66968, Note_on_c, 0, 83, 66
2, 67006, Note_off_c, 0, 80, 64
2, 67010, Note_off_c, 0, 83, 64
2, 67047, Note_on_c, 0, 80, 63
2, 67049, Note_on_c, 0, 83, 69
2, 67090, Note_off_c, 0, 80, 64
2, 67091, Note_off_c, 0, 83, 64
2, 67128, Note_on_c, 0, 80, 60
2, 67129, Note_on_c, 0, 83, 63
2, 67170, Note_off_c, 0, 80, 64
2, 67171, Note_off_c, 0, 83, 64
2, 67444, Note_on_c, 0, 76, 73
2, 67446, Note_on_c, 0, 72, 65
2, 67486, Note_off_c, 0, 76, 64
2, 67490, Note_off_c, 0, 72, 64
2, 67528, Note_on_c, 0, 76, 70
2, 67529, Note_on_c, 0, 72, 65
2, 67571, Note_off_c, 0, 76, 64
2, 67571, Note_off_c, 0, 72, 64
2, 67608, Note_on_c, 0, 72, 59
2, 67609, Note_on_c, 0, 76, 66
2, 67650, Note_off_c, 0, 72, 64
2, 67651, Note_off_c, 0, 76, 64
2, 67682, Note_on_c, 0, 84, 77
2, 67685, Note_on_c, 0, 80, 73
2, 67724, Note_off_c, 0, 84, 64
2, 67727, Note_off_c, 0, 80, 64
2, 67768, Note_on_c, 0, 84, 66
2, 67769, Note_on_c, 0, 80, 57
2, 67810, Note_off_c, 0, 84, 64
2, 67811, Note_off_c, 0, 80, 64
2, 67846, Note_on_c, 0, 84, 73
2, 67849, Note_on_c, 0, 80, 63
2, 67888, Note_off_c, 0, 84, 64
2, 67893, Note_off_c, 0, 80, 64
2, 67926, Note_on_c, 0, 77, 66
2, 67929, Note_on_c, 0, 72, 59
2, 67971, Note_off_c, 0, 77, 64
2, 67971, Note_off_c, 0, 72, 64
2, 68005, Note_on_c, 0, 77, 71
2, 68006, Note_on_c, 0, 72, 61
2, 68047, Note_off_c, 0, 77, 64
2, 68048, Note_off_c, 0, 72, 64
2, 68086, Note_on_c, 0, 77, 63
2, 68089, Note_on_c, 0, 72, 59
2, 68128, Note_off_c, 0, 77, 64
2, 68131, Note_off_c, 0, 72, 64
2, 68401, Note_on_c, 0, 84, 68
2, 68409, Note_on_c, 0, 80, 63
2, 68443, Note_off_c, 0, 84, 64
2, 68452, Note_off_c, 0, 80, 64
2, 68484, Note_on_c, 0, 80, 66
2, 68486, Note_on_c, 0, 84, 71
2, 68526, Note_off_c, 0, 80, 64
2, 68528, Note_off_c, 0, 84, 64
2, 68561, Note_on_c, 0, 80, 58
2, 68567, Note_on_c, 0, 84, 63
2, 68603, Note_off_c, 0, 80, 64
2, 68611, Note_off_c, 0, 84, 64
2, 68645, Note_on_c, 0, 86, 75
2, 68648, Note_on_c, 0, 79, 68
2, 68688, Note_off_c, 0, 86, 64
2, 68690, Note_off_c, 0, 79, 64
2, 68719, Note_on_c, 0, 86, 66
2, 68726, Note_on_c, 0, 79, 59
2, 68762, Note_off_c, 0, 86, 64
2, 68768, Note_off_c, 0, 79, 64
2, 68807, Note_on_c, 0, 79, 66
2, 68808, Note_on_c, 0, 86, 70
2, 68849, Note_off_c, 0, 79, 64
2, 68851, Note_off_c, 0, 86, 64
2, 68884, Note_on_c, 0, 84, 66
2, 68888, Note_on_c, 0, 80, 60
2, 68926, Note_off_c, 0, 84, 64
2, 68930, Note_off_c, 0, 80, 64
2, 68965, Note_on_c, 0, 80, 66
2, 68969, Note_on_c, 0, 84, 68
2, 69009, Note_off_c, 0, 80, 64
2, 69012, Note_off_c, 0, 84, 64
2, 69047, Note_on_c, 0, 80, 60
2, 69049, Note_on_c, 0, 84, 65
2, 69090, Note_off_c, 0, 80, 64
2, 69092, Note_off_c, 0, 84, 64
2, 69336, Control_c, 0, 11, 109
2, 69367, Note_on_c, 0, 84, 62
2, 69368, Note_on_c, 0, 88, 73
2, 69409, Note_off_c, 0, 84, 64
2, 69410, Note_off_c, 0, 88, 64
2, 69448, Note_on_c, 0, 84, 66
2, 69449, Note_on_c, 0, 88, 71
2, 69456, Control_c, 0, 11, 110
2, 69491, Note_off_c, 0, 84, 64
2, 69492, Note_off_c, 0, 88, 64
2, 69524, Note_on_c, 0, 84, 60
2, 69527, Note_on_c, 0, 88, 62
2, 69567, Note_off_c, 0, 84, 64
2, 69571, Note_off_c, 0, 88, 64
2, 69576, Control_c, 0, 11, 111
2, 69609, Note_on_c, 0, 89, 77
2, 69609, Note_on_c, 0, 80, 70
2, 69651, Note_off_c, 0, 89, 64
2, 69652, Note_off_c, 0, 80, 64
2, 69683, Note_on_c, 0, 89, 66
2, 69688, Note_on_c, 0, 80, 60
2, 69696, Control_c, 0, 11, 113
2, 69725, Note_off_c, 0, 89, 64
2, 69730, Note_off_c, 0, 80, 64
2, 69763, Note_on_c, 0, 89, 72
2, 69765, Note_on_c, 0, 80, 64
2, 69805, Note_off_c, 0, 89, 64
2, 69808, Note_off_c, 0, 80, 64
2, 69816, Control_c, 0, 11, 115
2, 69847, Note_on_c, 0, 83, 53
2, 69849, Note_on_c, 0, 86, 66
2, 69889, Note_off_c, 0, 83, 64
2, 69892, Note_off_c, 0, 86, 64
2, 69924, Note_on_c, 0, 83, 66
2, 69928, Note_on_c, 0, 86, 73
2, 69936, Control_c, 0, 11, 116
2, 69966, Note_off_c, 0, 83, 64
2, 69970, Note_off_c, 0, 86, 64
2, 70007, Note_on_c, 0, 86, 66
2, 70008, Note_on_c, 0, 83, 60
2, 70050, Note_off_c, 0, 86, 64
2, 70050, Note_off_c, 0, 83, 64
2, 70056, Control_c, 0, 11, 118
2, 70080, Control_c, 0, 11, 119
2, 70323, Note_on_c, 0, 84, 73
2, 70328, Note_on_c, 0, 76, 63
2, 70365, Note_off_c, 0, 84, 64
2, 70370, Note_off_c, 0, 76, 64
2, 70406, Note_on_c, 0, 76, 64
2, 70407, Note_on_c, 0, 84, 73
2, 70449, Note_off_c, 0, 76, 64
2, 70449, Note_off_c, 0, 84, 64
2, 70484, Note_on_c, 0, 84, 66
2, 70489, Note_on_c, 0, 76, 56
2, 70526, Note_off_c, 0, 84, 64
2, 70532, Note_off_c, 0, 76, 64
2, 70565, Note_on_c, 0, 72, 71
2, 70567, Note_on_c, 0, 83, 79
2, 70607, Note_off_c, 0, 72, 64
2, 70609, Note_off_c, 0, 83, 64
2, 70639, Note_on_c, 0, 83, 66
2, 70648, Note_on_c, 0, 72, 60
2, 70684, Note_off_c, 0, 83, 64
2, 70692, Note_off_c, 0, 72, 64
2, 70725, Note_on_c, 0, 72, 66
2, 70726, Note_on_c, 0, 83, 71
2, 70768, Note_off_c, 0, 72, 64
2, 70768, Note_off_c, 0, 83, 64
2, 70808, Note_on_c, 0, 80, 66
2, 70809, Note_on_c, 0, 75, 60
2, 70850, Note_off_c, 0, 80, 64
2, 70852, Note_off_c, 0, 75, 64
2, 70886, Note_on_c, 0, 75, 61
2, 70889, Note_on_c, 0, 80, 66
2, 70928, Note_off_c, 0, 75, 64
2, 70933, Note_off_c, 0, 80, 64
2, 70962, Note_on_c, 0, 75, 55
2, 70966, Note_on_c, 0, 80, 66
2, 71004, Note_off_c, 0, 75, 64
2, 71008, Note_off_c, 0, 80, 64
2, 71289, Note_on_c, 0, 84, 62
2, 71289, Note_on_c, 0, 93, 71
2, 71331, Note_off_c, 0, 84, 64
2, 71331, Note_off_c, 0, 93, 64
2, 71366, Note_on_c, 0, 93, 73
2, 71369, Note_on_c, 0, 84, 64
2, 71408, Note_off_c, 0, 93, 64
2, 71411, Note_off_c, 0, 84, 64
2, 71445, Note_on_c, 0, 84, 57
2, 71445, Note_on_c, 0, 93, 61
2, 71487, Note_off_c, 0, 84, 64
2, 71488, Note_off_c, 0, 93, 64
2, 71528, Note_on_c, 0, 83, 68
2, 71528, Note_on_c, 0, 92, 78
2, 71570, Note_off_c, 0, 83, 64
2, 71570, Note_off_c, 0, 92, 64
2, 71600, Note_on_c, 0, 92, 66
2, 71606, Note_on_c, 0, 83, 60
2, 71644, Note_off_c, 0, 92, 64
2, 71649, Note_off_c, 0, 83, 64
2, 71689, Note_on_c, 0, 83, 65
2, 71689, Note_on_c, 0, 92, 71
2, 71731, Note_off_c, 0, 83, 64
2, 71731, Note_off_c, 0, 92, 64
2, 71767, Note_on_c, 0, 83, 62
2, 71768, Note_on_c, 0, 80, 57
2, 71809, Note_off_c, 0, 83, 64
2, 71810, Note_off_c, 0, 80, 64
2, 71845, Note_on_c, 0, 80, 66
2, 71849, Note_on_c, 0, 83, 67
2, 71887, Note_off_c, 0, 80, 64
2, 71892, Note_off_c, 0, 83, 64
2, 71924, Note_on_c, 0, 83, 63
2, 71929, Note_on_c, 0, 80, 59
2, 71968, Note_off_c, 0, 83, 64
2, 71971, Note_off_c, 0, 80, 64
2, 72004, Note_on_c, 0, 89, 71
2, 72006, Note_on_c, 0, 81, 66
2, 72046, Note_off_c, 0, 89, 64
2, 72048, Note_off_c, 0, 81, 64
2, 72085, Note_on_c, 0, 89, 67
2, 72088, Note_on_c, 0, 81, 66
2, 72127, Note_off_c, 0, 89, 64
2, 72130, Note_off_c, 0, 81, 64
2, 72165, Note_on_c, 0, 81, 59
2, 72166, Note_on_c, 0, 89, 65
2, 72207, Note_off_c, 0, 81, 64
2, 72208, Note_off_c, 0, 89, 64
2, 72240, Control_c, 0, 11, 119
2, 72246, Note_on_c, 0, 80, 73
2, 72249, Note_on_c, 0, 86, 79
2, 72288, Note_off_c, 0, 80, 64
2, 72291, Note_off_c, 0, 86, 64
2, 72326, Note_on_c, 0, 80, 56
2, 72329, Note_on_c, 0, 86, 61
2, 72360, Control_c, 0, 11, 118
2, 72370, Note_off_c, 0, 80, 64
2, 72371, Note_off_c, 0, 86, 64
2, 72404, Note_on_c, 0, 80, 66
2, 72405, Note_on_c, 0, 86, 73
2, 72446, Note_off_c, 0, 80, 64
2, 72447, Note_off_c, 0, 86, 64
2, 72480, Control_c, 0, 11, 116
2, 72487, Note_on_c, 0, 84, 71
2, 72488, Note_on_c, 0, 76, 62
2, 72529, Note_off_c, 0, 84, 64
2, 72532, Note_off_c, 0, 76, 64
2, 72563, Note_on_c, 0, 84, 71
2, 72568, Note_on_c, 0, 76, 65
2, 72600, Control_c, 0, 11, 114
2, 72606, Note_off_c, 0, 84, 64
2, 72611, Note_off_c, 0, 76, 64
2, 72643, Note_on_c, 0, 84, 66
2, 72645, Note_on_c, 0, 76, 59
2, 72685, Note_off_c, 0, 84, 64
2, 72688, Note_off_c, 0, 76, 64
2, 72720, Control_c, 0, 11, 113
2, 72720, Note_on_c, 0, 81, 76
2, 72728, Note_on_c, 0, 72, 72
2, 72764, Note_off_c, 0, 81, 64
2, 72770, Note_off_c, 0, 72, 64
2, 72807, Note_on_c, 0, 81, 62
2, 72808, Note_on_c, 0, 72, 59
2, 72840, Control_c, 0, 11, 111
2, 72849, Note_off_c, 0, 81, 64
2, 72851, Note_off_c, 0, 72, 64
2, 72887, Note_on_c, 0, 81, 72
2, 72888, Note_on_c, 0, 72, 60
2, 72929, Note_off_c, 0, 81, 64
2, 72930, Note_off_c, 0, 72, 64
2, 72960, Control_c, 0, 11, 109
2, 72969, Note_on_c, 0, 82, 76
2, 73036, Note_off_c, 0, 82, 64
2, 73209, Note_on_c, 0, 70, 68
2, 73251, Note_off_c, 0, 70, 64
2, 73287, Note_on_c, 0, 70, 68
2, 73331, Note_off_c, 0, 70, 64
2, 73368, Note_on_c, 0, 70, 66
2, 73410, Note_off_c, 0, 70, 64
2, 73446, Note_on_c, 0, 82, 72
2, 73512, Note_off_c, 0, 82, 64
2, 74880, Note_on_c, 0, 88, 79
2, 74946, Note_off_c, 0, 88, 64
2, 75129, Note_on_c, 0, 76, 67
2, 75171, Note_off_c, 0, 76, 64
2, 75209, Note_on_c, 0, 76, 65
2, 75251, Note_off_c, 0, 76, 64
2, 75286, Note_on_c, 0, 76, 66
2, 75328, Note_off_c, 0, 76, 64
2, 75366, Note_on_c, 0, 88, 79
2, 75433, Note_off_c, 0, 88, 64
2, 76776, Control_c, 0, 11, 127
2, 77046, Note_on_c, 0, 83, 66
2, 77047, Note_on_c, 0, 95, 69
2, 77049, Note_on_c, 0, 91, 72
2, 77088, Note_off_c, 0, 83, 64
2, 77089, Note_off_c, 0, 95, 64
2, 77091, Note_off_c, 0, 91, 64
2, 77125, Note_on_c, 0, 83, 64
2, 77126, Note_on_c, 0, 91, 73
2, 77127, Note_on_c, 0, 95, 69
2, 77168, Note_off_c, 0, 83, 64
2, 77168, Note_off_c, 0, 91, 64
2, 77169, Note_off_c, 0, 95, 64
2, 77205, Note_on_c, 0, 95, 65
2, 77209, Note_on_c, 0, 83, 54
2, 77209, Note_on_c, 0, 91, 66
2, 77248, Note_off_c, 0, 95, 64
2, 77251, Note_off_c, 0, 91, 64
2, 77251, Note_off_c, 0, 83, 64
2, 77286, Note_on_c, 0, 93, 77
2, 77286, Note_on_c, 0, 96, 79
2, 77289, Note_on_c, 0, 84, 73
2, 77328, Note_off_c, 0, 96, 64
2, 77329, Note_off_c, 0, 93, 64
2, 77331, Note_off_c, 0, 84, 64
2, 77362, Note_on_c, 0, 84, 60
2, 77369, Note_on_c, 0, 96, 66
2, 77369, Note_on_c, 0, 93, 66
2, 77404, Note_off_c, 0, 84, 64
2, 77412, Note_off_c, 0, 93, 64
2, 77412, Note_off_c, 0, 96, 64
2, 77446, Note_on_c, 0, 93, 70
2, 77449, Note_on_c, 0, 96, 73
2, 77449, Note_on_c, 0, 84, 66
2, 77488, Note_off_c, 0, 93, 64
2, 77491, Note_off_c, 0, 84, 64
2, 77492, Note_off_c, 0, 96, 64
2, 77525, Note_on_c, 0, 81, 59
2, 77528, Note_on_c, 0, 93, 66
2, 77529, Note_on_c, 0, 90, 63
2, 77567, Note_off_c, 0, 81, 64
2, 77570, Note_off_c, 0, 93, 64
2, 77571, Note_off_c, 0, 90, 64
2, 77600, Note_on_c, 0, 93, 72
2, 77607, Note_on_c, 0, 90, 70
2, 77609, Note_on_c, 0, 81, 65
2, 77643, Note_off_c, 0, 93, 64
2, 77651, Note_off_c, 0, 90, 64
2, 77652, Note_off_c, 0, 81, 64
2, 77685, Note_on_c, 0, 93, 66
2, 77687, Note_on_c, 0, 81, 59
2, 77688, Note_on_c, 0, 90, 65
2, 77727, Note_off_c, 0, 93, 64
2, 77729, Note_off_c, 0, 81, 64
2, 77730, Note_off_c, 0, 90, 64
2, 78005, Note_on_c, 0, 93, 73
2, 78008, Note_on_c, 0, 88, 66
2, 78009, Note_on_c, 0, 100, 73
2, 78048, Note_off_c, 0, 93, 64
2, 78050, Note_off_c, 0, 88, 64
2, 78052, Note_off_c, 0, 100, 64
2, 78088, Note_on_c, 0, 93, 73
2, 78089, Note_on_c, 0, 100, 70
2, 78089, Note_on_c, 0, 88, 64
2, 78130, Note_off_c, 0, 93, 64
2, 78131, Note_off_c, 0, 88, 64
2, 78131, Note_off_c, 0, 100, 64
2, 78163, Note_on_c, 0, 88, 60
2, 78165, Note_on_c, 0, 100, 64
2, 78167, Note_on_c, 0, 93, 63
2, 78205, Note_off_c, 0, 88, 64
2, 78208, Note_off_c, 0, 100, 64
2, 78209, Note_off_c, 0, 93, 64
2, 78244, Note_on_c, 0, 96, 77
2, 78247, Note_on_c, 0, 84, 72
2, 78249, Note_on_c, 0, 90, 79
2, 78286, Note_off_c, 0, 96, 64
2, 78290, Note_off_c, 0, 84, 64
2, 78291, Note_off_c, 0, 90, 64
2, 78326, Note_on_c, 0, 96, 66
2, 78327, Note_on_c, 0, 90, 64
2, 78328, Note_on_c, 0, 84, 58
2, 78368, Note_off_c, 0, 96, 64
2, 78369, Note_off_c, 0, 90, 64
2, 78372, Note_off_c, 0, 84, 64
2, 78407, Note_on_c, 0, 84, 64
2, 78408, Note_on_c, 0, 96, 72
2, 78408, Note_on_c, 0, 90, 72
2, 78449, Note_off_c, 0, 84, 64
2, 78450, Note_off_c, 0, 90, 64
2, 78452, Note_off_c, 0, 96, 64
2, 78482, Note_on_c, 0, 93, 63
2, 78483, Note_on_c, 0, 81, 56
2, 78489, Note_on_c, 0, 84, 66
2, 78525, Note_off_c, 0, 93, 64
2, 78525, Note_off_c, 0, 81, 64
2, 78531, Note_off_c, 0, 84, 64
2, 78567, Note_on_c, 0, 93, 72
2, 78568, Note_on_c, 0, 84, 73
2, 78568, Note_on_c, 0, 81, 65
2, 78610, Note_off_c, 0, 93, 64
2, 78610, Note_off_c, 0, 81, 64
2, 78610, Note_off_c, 0, 84, 64
2, 78644, Note_on_c, 0, 81, 60
2, 78646, Note_on_c, 0, 93, 66
2, 78649, Note_on_c, 0, 84, 62
2, 78687, Note_off_c, 0, 81, 64
2, 78688, Note_off_c, 0, 93, 64
2, 78692, Note_off_c, 0, 84, 64
2, 78727, Note_on_c, 0, 90, 75
2, 78728, Note_on_c, 0, 102, 78
2, 78794, Note_off_c, 0, 90, 64
2, 78796, Note_off_c, 0, 102, 64
2, 78963, Note_on_c, 0, 90, 68
2, 78968, Note_on_c, 0, 78, 69
2, 79005, Note_off_c, 0, 90, 64
2, 79011, Note_off_c, 0, 78, 64
2, 79048, Note_on_c, 0, 90, 69
2, 79049, Note_on_c, 0, 78, 69
2, 79091, Note_off_c, 0, 90, 64
2, 79092, Note_off_c, 0, 78, 64
2, 79128, Note_on_c, 0, 78, 63
2, 79129, Note_on_c, 0, 90, 64
2, 79172, Note_off_c, 0, 78, 64
2, 79173, Note_off_c, 0, 90, 64
2, 79204, Note_on_c, 0, 102, 77
2, 79209, Note_on_c, 0, 90, 78
2, 79270, Note_off_c, 0, 102, 64
2, 79275, Note_off_c, 0, 90, 64
2, 80647, Note_on_c, 0, 78, 66
2, 80975, Note_off_c, 0, 78, 64
2, 81006, Note_on_c, 0, 81, 59
2, 81069, Note_on_c, 0, 85, 65
2, 81070, Note_off_c, 0, 81, 64
2, 81129, Note_on_c, 0, 90, 71
2, 81133, Note_off_c, 0, 85, 64
2, 81200, Note_off_c, 0, 90, 64
2, 81368, Note_on_c, 0, 78, 73
2, 81439, Note_off_c, 0, 78, 64
2, 81608, Note_on_c, 0, 69, 65
2, 81936, Note_off_c, 0, 69, 64
2, 81962, Note_on_c, 0, 73, 66
2, 82026, Note_on_c, 0, 78, 73
2, 82027, Note_off_c, 0, 73, 64
2, 82089, Note_on_c, 0, 81, 85
2, 82090, Note_off_c, 0, 78, 64
2, 82147, Note_off_c, 0, 81, 64
2, 82808, Note_on_c, 0, 82, 65
2, 82809, Note_on_c, 0, 85, 72
2, 82851, Note_off_c, 0, 82, 64
2, 82851, Note_off_c, 0, 85, 64
2, 82886, Note_on_c, 0, 82, 65
2, 82889, Note_on_c, 0, 85, 73
2, 82928, Note_off_c, 0, 82, 64
2, 82931, Note_off_c, 0, 85, 64
2, 82963, Note_on_c, 0, 85, 63
2, 82967, Note_on_c, 0, 82, 60
2, 83006, Note_off_c, 0, 85, 64
2, 83009, Note_off_c, 0, 82, 64
2, 83043, Note_on_c, 0, 87, 79
2, 83045, Note_on_c, 0, 81, 73
2, 83085, Note_off_c, 0, 87, 64
2, 83087, Note_off_c, 0, 81, 64
2, 83125, Note_on_c, 0, 81, 59
2, 83128, Note_on_c, 0, 87, 64
2, 83167, Note_off_c, 0, 81, 64
2, 83172, Note_off_c, 0, 87, 64
2, 83206, Note_on_c, 0, 81, 66
2, 83208, Note_on_c, 0, 87, 68
2, 83250, Note_off_c, 0, 81, 64
2, 83250, Note_off_c, 0, 87, 64
2, 83287, Note_on_c, 0, 78, 58
2, 83289, Note_on_c, 0, 84, 64
2, 83330, Note_off_c, 0, 78, 64
2, 83331, Note_off_c, 0, 84, 64
2, 83368, Note_on_c, 0, 84, 73
2, 83369, Note_on_c, 0, 78, 65
2, 83410, Note_off_c, 0, 84, 64
2, 83411, Note_off_c, 0, 78, 64
2, 83441, Note_on_c, 0, 78, 59
2, 83443, Note_on_c, 0, 84, 65
2, 83483, Note_off_c, 0, 78, 64
2, 83486, Note_off_c, 0, 84, 64
2, 83761, Note_on_c, 0, 73, 64
2, 83768, Note_on_c, 0, 82, 73
2, 83804, Note_off_c, 0, 73, 64
2, 83812, Note_off_c, 0, 82, 64
2, 83846, Note_on_c, 0, 73, 65
2, 83847, Note_on_c, 0, 82, 71
2, 83888, Note_off_c, 0, 73, 64
2, 83889, Note_off_c, 0, 82, 64
2, 83922, Note_on_c, 0, 73, 58
2, 83925, Note_on_c, 0, 82, 66
2, 83964, Note_off_c, 0, 73, 64
2, 83968, Note_off_c, 0, 82, 64
2, 84006, Note_on_c, 0, 75, 69
2, 84007, Note_on_c, 0, 84, 78
2, 84048, Note_off_c, 0, 75, 64
2, 84049, Note_off_c, 0, 84, 64
2, 84083, Note_on_c, 0, 84, 65
2, 84089, Note_on_c, 0, 75, 60
2, 84126, Note_off_c, 0, 84, 64
2, 84132, Note_off_c, 0, 75, 64
2, 84167, Note_on_c, 0, 75, 63
2, 84167, Note_on_c, 0, 84, 73
2, 84210, Note_off_c, 0, 75, 64
2, 84210, Note_off_c, 0, 84, 64
2, 84244, Note_on_c, 0, 72, 60
2, 84247, Note_on_c, 0, 81, 65
2, 84287, Note_off_c, 0, 72, 64
2, 84289, Note_off_c, 0, 81, 64
2, 84327, Note_on_c, 0, 72, 65
2, 84327, Note_on_c, 0, 81, 71
2, 84369, Note_off_c, 0, 81, 64
2, 84370, Note_off_c, 0, 72, 64
2, 84406, Note_on_c, 0, 72, 60
2, 84409, Note_on_c, 0, 81, 66
2, 84450, Note_off_c, 0, 72, 64
2, 84451, Note_off_c, 0, 81, 64
2, 84724, Note_on_c, 0, 77, 73
2, 84728, Note_on_c, 0, 73, 66
2, 84766, Note_off_c, 0, 77, 64
2, 84770, Note_off_c, 0, 73, 64
2, 84809, Note_on_c, 0, 73, 66
2, 84809, Note_on_c, 0, 77, 72
2, 84852, Note_off_c, 0, 77, 64
2, 84853, Note_off_c, 0, 73, 64
2, 84888, Note_on_c, 0, 73, 58
2, 84889, Note_on_c, 0, 77, 65
2, 84930, Note_off_c, 0, 73, 64
2, 84931, Note_off_c, 0, 77, 64
2, 84966, Note_on_c, 0, 72, 69
2, 84969, Note_on_c, 0, 78, 79
2, 85010, Note_off_c, 0, 72, 64
2, 85011, Note_off_c, 0, 78, 64
2, 85042, Note_on_c, 0, 78, 66
2, 85047, Note_on_c, 0, 72, 60
2, 85084, Note_off_c, 0, 78, 64
2, 85089, Note_off_c, 0, 72, 64
2, 85122, Note_on_c, 0, 78, 69
2, 85129, Note_on_c, 0, 72, 66
2, 85164, Note_off_c, 0, 78, 64
2, 85171, Note_off_c, 0, 72, 64
2, 85205, Note_on_c, 0, 69, 55
2, 85208, Note_on_c, 0, 75, 64
2, 85247, Note_off_c, 0, 69, 64
2, 85252, Note_off_c, 0, 75, 64
2, 85282, Note_on_c, 0, 75, 67
2, 85287, Note_on_c, 0, 69, 63
2, 85324, Note_off_c, 0, 75, 64
2, 85332, Note_off_c, 0, 69, 64
2, 85366, Note_on_c, 0, 69, 55
2, 85369, Note_on_c, 0, 75, 64
2, 85410, Note_off_c, 0, 69, 64
2, 85411, Note_off_c, 0, 75, 64
2, 85448, Note_on_c, 0, 65, 59
2, 85448, Note_on_c, 0, 73, 64
2, 85776, Note_off_c, 0, 65, 64
2, 85776, Note_off_c, 0, 73, 64
2, 85806, Note_on_c, 0, 70, 60
2, 85808, Note_on_c, 0, 77, 60
2, 85863, Note_on_c, 0, 82, 71
2, 85865, Note_on_c, 0, 74, 67
2, 85870, Note_off_c, 0, 70, 64
2, 85872, Note_off_c, 0, 77, 64
2, 85919, Note_on_c, 0, 85, 85
2, 85923, Note_on_c, 0, 77, 79
2, 85928, Note_off_c, 0, 82, 64
2, 85929, Note_off_c, 0, 74, 64
2, 85978, Note_off_c, 0, 85, 64
2, 85982, Note_off_c, 0, 77, 64
2, 88320, Program_c, 0, 72
2, 90248, Note_on_c, 0, 84, 91
2, 90325, Note_on_c, 0, 72, 73
2, 90338, Note_off_c, 0, 84, 64
2, 90407, Note_on_c, 0, 71, 73
2, 90415, Note_off_c, 0, 72, 64
2, 90488, Note_on_c, 0, 72, 75
2, 90499, Note_off_c, 0, 71, 64
2, 90558, Note_off_c, 0, 72, 64
2, 91688, Note_on_c, 0, 92, 91
2, 91769, Note_on_c, 0, 80, 72
2, 91778, Note_off_c, 0, 92, 64
2, 91848, Note_on_c, 0, 79, 70
2, 91860, Note_off_c, 0, 80, 64
2, 91925, Note_on_c, 0, 80, 79
2, 91939, Note_off_c, 0, 79, 64
2, 91995, Note_off_c, 0, 80, 64
2, 92169, Note_on_c, 0, 84, 91
2, 92248, Note_on_c, 0, 72, 73
2, 92260, Note_off_c, 0, 84, 64
2, 92324, Note_on_c, 0, 71, 69
2, 92340, Note_off_c, 0, 72, 64
2, 92407, Note_on_c, 0, 72, 79
2, 92414, Note_off_c, 0, 71, 64
2, 92477, Note_off_c, 0, 72, 64
2, 93607, Note_on_c, 0, 92, 87
2, 93689, Note_on_c, 0, 80, 73
2, 93698, Note_off_c, 0, 92, 64
2, 93769, Note_on_c, 0, 79, 73
2, 93779, Note_off_c, 0, 80, 64
2, 93847, Note_on_c, 0, 80, 78
2, 93859, Note_off_c, 0, 79, 64
2, 93917, Note_off_c, 0, 80, 64
2, 94087, Note_on_c, 0, 91, 92
2, 94167, Note_on_c, 0, 79, 73
2, 94179, Note_off_c, 0, 91, 64
2, 94247, Note_on_c, 0, 78, 73
2, 94257, Note_off_c, 0, 79, 64
2, 94329, Note_on_c, 0, 79, 79
2, 94337, Note_off_c, 0, 78, 64
2, 94400, Note_off_c, 0, 79, 64
2, 95529, Note_on_c, 0, 87, 88
2, 95605, Note_on_c, 0, 75, 72
2, 95620, Note_off_c, 0, 87, 64
2, 95682, Note_on_c, 0, 74, 68
2, 95696, Note_off_c, 0, 75, 64
2, 95769, Note_on_c, 0, 75, 77
2, 95772, Note_off_c, 0, 74, 64
2, 95839, Note_off_c, 0, 75, 64
2, 96005, Note_on_c, 0, 91, 91
2, 96089, Note_on_c, 0, 79, 71
2, 96095, Note_off_c, 0, 91, 64
2, 96164, Note_on_c, 0, 78, 71
2, 96179, Note_off_c, 0, 79, 64
2, 96249, Note_on_c, 0, 79, 78
2, 96254, Note_off_c, 0, 78, 64
2, 96319, Note_off_c, 0, 79, 64
2, 97448, Note_on_c, 0, 91, 92
2, 97528, Note_on_c, 0, 79, 73
2, 97539, Note_off_c, 0, 91, 64
2, 97607, Note_on_c, 0, 78, 70
2, 97618, Note_off_c, 0, 79, 64
2, 97685, Note_on_c, 0, 79, 78
2, 97697, Note_off_c, 0, 78, 64
2, 97755, Note_off_c, 0, 79, 64
2, 97921, Note_on_c, 0, 86, 91
2, 98008, Note_on_c, 0, 74, 73
2, 98011, Note_off_c, 0, 86, 64
2, 98088, Note_on_c, 0, 73, 69
2, 98098, Note_off_c, 0, 74, 64
2, 98166, Note_on_c, 0, 74, 74
2, 98178, Note_off_c, 0, 73, 64
2, 98237, Note_off_c, 0, 74, 64
2, 99368, Note_on_c, 0, 87, 90
2, 99442, Note_on_c, 0, 75, 71
2, 99458, Note_off_c, 0, 87, 64
2, 99529, Note_on_c, 0, 74, 73
2, 99533, Note_off_c, 0, 75, 64
2, 99607, Note_on_c, 0, 75, 74
2, 99621, Note_off_c, 0, 74, 64
2, 99677, Note_off_c, 0, 75, 64
2, 99849, Note_on_c, 0, 90, 92
2, 99926, Note_on_c, 0, 78, 72
2, 99941, Note_off_c, 0, 90, 64
2, 100009, Note_on_c, 0, 77, 72
2, 100017, Note_off_c, 0, 78, 64
2, 100087, Note_on_c, 0, 78, 78
2, 100100, Note_off_c, 0, 77, 64
2, 100158, Note_off_c, 0, 78, 64
2, 101288, Note_on_c, 0, 91, 88
2, 101369, Note_on_c, 0, 79, 70
2, 101378, Note_off_c, 0, 91, 64
2, 101448, Note_on_c, 0, 78, 72
2, 101459, Note_off_c, 0, 79, 64
2, 101529, Note_on_c, 0, 79, 76
2, 101539, Note_off_c, 0, 78, 64
2, 101599, Note_off_c, 0, 79, 64
2, 101769, Note_on_c, 0, 91, 92
2, 101847, Note_on_c, 0, 79, 69
2, 101860, Note_off_c, 0, 91, 64
2, 101927, Note_on_c, 0, 78, 72
2, 101939, Note_off_c, 0, 79, 64
2, 102009, Note_on_c, 0, 79, 79
2, 102017, Note_off_c, 0, 78, 64
2, 102080, Note_off_c, 0, 79, 64
2, 103207, Note_on_c, 0, 86, 90
2, 103289, Note_on_c, 0, 74, 71
2, 103297, Note_off_c, 0, 86, 64
2, 103369, Note_on_c, 0, 73, 70
2, 103379, Note_off_c, 0, 74, 64
2, 103448, Note_on_c, 0, 74, 77
2, 103460, Note_off_c, 0, 73, 64
2, 103518, Note_off_c, 0, 74, 64
2, 103680, Note_on_c, 0, 92, 92
2, 103768, Note_on_c, 0, 80, 73
2, 103771, Note_off_c, 0, 92, 64
2, 103838, Note_on_c, 0, 79, 69
2, 103858, Note_off_c, 0, 80, 64
2, 103928, Note_off_c, 0, 79, 64
2, 103929, Note_on_c, 0, 80, 79
2, 104000, Note_off_c, 0, 80, 64
2, 105126, Note_on_c, 0, 80, 89
2, 105209, Note_on_c, 0, 68, 71
2, 105217, Note_off_c, 0, 80, 64
2, 105279, Note_on_c, 0, 67, 71
2, 105299, Note_off_c, 0, 68, 64
2, 105366, Note_on_c, 0, 68, 75
2, 105370, Note_off_c, 0, 67, 64
2, 105436, Note_off_c, 0, 68, 64
2, 105609, Note_on_c, 0, 90, 89
2, 105681, Note_on_c, 0, 78, 72
2, 105699, Note_off_c, 0, 90, 64
2, 105758, Note_on_c, 0, 77, 71
2, 105772, Note_off_c, 0, 78, 64
2, 105847, Note_on_c, 0, 78, 76
2, 105848, Note_off_c, 0, 77, 64
2, 105917, Note_off_c, 0, 78, 64
2, 107045, Note_on_c, 0, 90, 89
2, 107127, Note_on_c, 0, 78, 71
2, 107137, Note_off_c, 0, 90, 64
2, 107203, Note_on_c, 0, 77, 71
2, 107217, Note_off_c, 0, 78, 64
2, 107288, Note_on_c, 0, 78, 79
2, 107293, Note_off_c, 0, 77, 64
2, 107358, Note_off_c, 0, 78, 64
2, 107528, Note_on_c, 0, 91, 92
2, 107598, Note_on_c, 0, 79, 71
2, 107618, Note_off_c, 0, 91, 64
2, 107689, Note_off_c, 0, 79, 64
2, 107689, Note_on_c, 0, 78, 73
2, 107769, Note_on_c, 0, 79, 79
2, 107779, Note_off_c, 0, 78, 64
2, 107839, Note_off_c, 0, 79, 64
2, 108724, Note_on_c, 0, 79, 66
2, 108729, Note_on_c, 0, 67, 61
2, 108786, Note_on_c, 0, 81, 66
2, 108787, Note_on_c, 0, 69, 67
2, 108808, Note_off_c, 0, 79, 64
2, 108814, Note_off_c, 0, 67, 64
2, 108848, Note_on_c, 0, 82, 68
2, 108849, Note_on_c, 0, 70, 68
2, 108869, Note_off_c, 0, 81, 64
2, 108870, Note_off_c, 0, 69, 64
2, 108901, Note_on_c, 0, 72, 65
2, 108908, Note_on_c, 0, 84, 66
2, 108931, Note_off_c, 0, 82, 64
2, 108932, Note_off_c, 0, 70, 64
2, 108966, Note_on_c, 0, 86, 67
2, 108969, Note_on_c, 0, 74, 70
2, 108984, Note_off_c, 0, 72, 64
2, 108991, Note_off_c, 0, 84, 64
2, 109014, Note_on_c, 0, 87, 69
2, 109014, Note_on_c, 0, 75, 66
2, 109026, Note_off_c, 0, 86, 64
2, 109029, Note_off_c, 0, 74, 64
2, 109057, Note_on_c, 0, 90, 68
2, 109059, Note_on_c, 0, 78, 69
2, 109074, Note_off_c, 0, 87, 64
2, 109074, Note_off_c, 0, 75, 64
2, 109099, Note_on_c, 0, 91, 71
2, 109100, Note_on_c, 0, 79, 73
2, 109117, Note_off_c, 0, 90, 64
2, 109120, Note_off_c, 0, 78, 64
2, 109147, Note_on_c, 0, 81, 74
2, 109148, Note_on_c, 0, 93, 73
2, 109159, Note_off_c, 0, 91, 64
2, 109160, Note_off_c, 0, 79, 64
2, 109193, Note_on_c, 0, 94, 75
2, 109194, Note_on_c, 0, 82, 75
2, 109208, Note_off_c, 0, 81, 64
2, 109210, Note_off_c, 0, 93, 64
2, 109238, Note_on_c, 0, 84, 78
2, 109239, Note_on_c, 0, 96, 78
2, 109253, Note_off_c, 0, 94, 64
2, 109254, Note_off_c, 0, 82, 64
2, 109281, Note_on_c, 0, 98, 79
2, 109282, Note_on_c, 0, 86, 79
2, 109298, Note_off_c, 0, 84, 64
2, 109299, Note_off_c, 0, 96, 64
2, 109327, Note_on_c, 0, 87, 79
2, 109329, Note_on_c, 0, 99, 81
2, 109341, Note_off_c, 0, 98, 64
2, 109345, Note_off_c, 0, 86, 64
2, 109374, Note_on_c, 0, 102, 84
2, 109374, Note_on_c, 0, 90, 80
2, 109389, Note_off_c, 0, 87, 64
2, 109391, Note_off_c, 0, 99, 64
2, 109435, Note_off_c, 0, 102, 64
2, 109435, Note_off_c, 0, 90, 64
2, 109449, Note_on_c, 0, 103, 98
2, 109449, Note_on_c, 0, 91, 93
2, 109539, Note_off_c, 0, 103, 64
2, 109539, Note_off_c, 0, 91, 64
2, 109927, Note_on_c, 0, 79, 92
2, 109927, Note_on_c, 0, 91, 91
2, 110213, Note_off_c, 0, 79, 64
2, 110214, Note_off_c, 0, 91, 64
2, 110286, Note_on_c, 0, 79, 89
2, 110288, Note_on_c, 0, 91, 92
2, 110345, Note_off_c, 0, 79, 64
2, 110347, Note_off_c, 0, 91, 64
2, 110409, Note_on_c, 0, 91, 92
2, 110409, Note_on_c, 0, 103, 88
2, 110839, Note_off_c, 0, 91, 64
2, 110839, Note_off_c, 0, 103, 64
2, 110883, Note_on_c, 0, 102, 89
2, 110885, Note_on_c, 0, 90, 92
2, 111171, Note_off_c, 0, 102, 64
2, 111171, Note_off_c, 0, 90, 64
2, 111247, Note_on_c, 0, 101, 92
2, 111248, Note_on_c, 0, 89, 92
2, 111305, Note_off_c, 0, 101, 64
2, 111307, Note_off_c, 0, 89, 64
2, 111355, Note_on_c, 0, 100, 98
2, 111363, Note_on_c, 0, 88, 98
2, 111413, Note_off_c, 0, 100, 64
2, 111421, Note_off_c, 0, 88, 64
2, 111482, Note_on_c, 0, 99, 86
2, 111487, Note_on_c, 0, 87, 92
2, 111528, Note_off_c, 0, 99, 64
2, 111533, Note_off_c, 0, 87, 64
2, 111609, Note_on_c, 0, 88, 89
2, 111609, Note_on_c, 0, 100, 92
2, 111691, Note_off_c, 0, 88, 64
2, 111693, Note_off_c, 0, 100, 64
2, 112085, Note_on_c, 0, 92, 92
2, 112089, Note_on_c, 0, 80, 88
2, 112155, Note_off_c, 0, 92, 64
2, 112159, Note_off_c, 0, 80, 64
2, 112322, Note_on_c, 0, 85, 92
2, 112329, Note_on_c, 0, 97, 91
2, 112754, Note_off_c, 0, 85, 64
2, 112759, Note_off_c, 0, 97, 64
2, 112805, Note_on_c, 0, 84, 92
2, 112809, Note_on_c, 0, 96, 92
2, 113093, Note_off_c, 0, 84, 64
2, 113095, Note_off_c, 0, 96, 64
2, 113165, Note_on_c, 0, 83, 90
2, 113166, Note_on_c, 0, 95, 87
2, 113224, Note_off_c, 0, 95, 64
2, 113225, Note_off_c, 0, 83, 64
2, 113284, Note_on_c, 0, 82, 96
2, 113289, Note_on_c, 0, 94, 97
2, 113342, Note_off_c, 0, 82, 64
2, 113347, Note_off_c, 0, 94, 64
2, 113405, Note_on_c, 0, 93, 91
2, 113409, Note_on_c, 0, 81, 88
2, 113451, Note_off_c, 0, 93, 64
2, 113455, Note_off_c, 0, 81, 64
2, 113525, Note_on_c, 0, 82, 89
2, 113528, Note_on_c, 0, 94, 91
2, 113609, Note_off_c, 0, 82, 64
2, 113612, Note_off_c, 0, 94, 64
2, 114008, Note_on_c, 0, 75, 89
2, 114009, Note_on_c, 0, 87, 90
2, 114078, Note_off_c, 0, 75, 64
2, 114079, Note_off_c, 0, 87, 64
2, 114246, Note_on_c, 0, 78, 92
2, 114247, Note_on_c, 0, 90, 91
2, 114653, Note_off_c, 0, 78, 64
2, 114653, Note_off_c, 0, 90, 64
2, 114723, Note_on_c, 0, 75, 97
2, 114724, Note_on_c, 0, 87, 98
2, 115010, Note_off_c, 0, 87, 64
2, 115011, Note_off_c, 0, 75, 64
2, 115089, Note_on_c, 0, 82, 89
2, 115089, Note_on_c, 0, 94, 91
2, 115148, Note_off_c, 0, 94, 64
2, 115149, Note_off_c, 0, 82, 64
2, 115199, Note_on_c, 0, 79, 91
2, 115209, Note_on_c, 0, 91, 90
2, 115317, Note_off_c, 0, 79, 64
2, 115327, Note_off_c, 0, 91, 64
2, 115687, Note_on_c, 0, 87, 72
2, 115689, Note_on_c, 0, 75, 69
2, 115743, Note_on_c, 0, 77, 68
2, 115748, Note_on_c, 0, 89, 73
2, 115757, Note_off_c, 0, 87, 64
2, 115759, Note_off_c, 0, 75, 64
2, 115808, Note_on_c, 0, 90, 73
2, 115809, Note_on_c, 0, 78, 73
2, 115813, Note_off_c, 0, 77, 64
2, 115819, Note_off_c, 0, 89, 64
2, 115869, Note_on_c, 0, 80, 75
2, 115869, Note_on_c, 0, 92, 74
2, 115878, Note_off_c, 0, 90, 64
2, 115880, Note_off_c, 0, 78, 64
2, 115922, Note_on_c, 0, 94, 76
2, 115925, Note_on_c, 0, 82, 70
2, 115939, Note_off_c, 0, 92, 64
2, 115940, Note_off_c, 0, 80, 64
2, 115986, Note_on_c, 0, 96, 79
2, 115989, Note_on_c, 0, 84, 79
2, 115992, Note_off_c, 0, 94, 64
2, 115995, Note_off_c, 0, 82, 64
2, 116048, Note_on_c, 0, 98, 83
2, 116049, Note_on_c, 0, 86, 83
2, 116057, Note_off_c, 0, 96, 64
2, 116060, Note_off_c, 0, 84, 64
2, 116080, Note_on_c, 0, 87, 86
2, 116087, Note_on_c, 0, 99, 83
2, 116119, Note_off_c, 0, 98, 64
2, 116119, Note_off_c, 0, 86, 64
2, 116125, Note_on_c, 0, 101, 85
2, 116129, Note_on_c, 0, 89, 88
2, 116130, Note_off_c, 0, 87, 64
2, 116137, Note_off_c, 0, 99, 64
2, 116168, Note_on_c, 0, 103, 96
2, 116169, Note_on_c, 0, 91, 96
2, 116175, Note_off_c, 0, 101, 64
2, 116180, Note_off_c, 0, 89, 64
2, 116239, Note_off_c, 0, 103, 64
2, 116239, Note_off_c, 0, 91, 64
2, 116406, Note_on_c, 0, 79, 95
2, 116409, Note_on_c, 0, 91, 95
2, 116476, Note_off_c, 0, 79, 64
2, 116479, Note_off_c, 0, 91, 64
2, 116644, Note_on_c, 0, 91, 98
2, 116644, Note_on_c, 0, 103, 98
2, 116686, Note_off_c, 0, 91, 64
2, 116686, Note_off_c, 0, 103, 64
2, 116728, Note_on_c, 0, 91, 90
2, 116729, Note_on_c, 0, 103, 92
2, 116770, Note_off_c, 0, 91, 64
2, 116771, Note_off_c, 0, 103, 64
2, 116808, Note_on_c, 0, 103, 84
2, 116809, Note_on_c, 0, 91, 82
2, 116851, Note_off_c, 0, 103, 64
2, 116852, Note_off_c, 0, 91, 64
2, 116885, Note_on_c, 0, 103, 89
2, 116889, Note_on_c, 0, 91, 92
2, 116944, Note_off_c, 0, 103, 64
2, 116948, Note_off_c, 0, 91, 64
2, 117576, Control_c, 0, 11, 109
2, 117606, Note_on_c, 0, 82, 103
2, 117609, Note_on_c, 0, 91, 102
2, 117609, Note_on_c, 0, 79, 103
2, 117648, Note_off_c, 0, 82, 64
2, 117651, Note_off_c, 0, 79, 64
2, 117652, Note_off_c, 0, 91, 64
2, 117688, Note_on_c, 0, 91, 101
2, 117688, Note_on_c, 0, 79, 102
2, 117689, Note_on_c, 0, 82, 98
2, 117730, Note_off_c, 0, 91, 64
2, 117730, Note_off_c, 0, 79, 64
2, 117731, Note_off_c, 0, 82, 64
2, 117767, Note_on_c, 0, 82, 94
2, 117767, Note_on_c, 0, 91, 95
2, 117768, Note_on_c, 0, 79, 95
2, 117809, Note_off_c, 0, 82, 64
2, 117809, Note_off_c, 0, 91, 64
2, 117812, Note_off_c, 0, 79, 64
2, 117844, Note_on_c, 0, 79, 100
2, 117847, Note_on_c, 0, 91, 104
2, 117848, Note_on_c, 0, 82, 96
2, 117926, Note_off_c, 0, 79, 64
2, 117929, Note_off_c, 0, 91, 64
2, 117932, Note_off_c, 0, 82, 64
2, 118327, Note_on_c, 0, 91, 102
2, 118329, Note_on_c, 0, 79, 101
2, 118329, Note_on_c, 0, 82, 104
2, 118409, Note_off_c, 0, 91, 64
2, 118411, Note_off_c, 0, 82, 64
2, 118413, Note_off_c, 0, 79, 64
2, 118806, Note_on_c, 0, 90, 104
2, 118809, Note_on_c, 0, 87, 103
2, 118809, Note_on_c, 0, 78, 103
2, 118889, Note_off_c, 0, 90, 64
2, 118892, Note_off_c, 0, 78, 64
2, 118893, Note_off_c, 0, 87, 64
2, 119284, Note_on_c, 0, 91, 104
2, 119286, Note_on_c, 0, 82, 102
2, 119288, Note_on_c, 0, 79, 102
2, 119368, Note_off_c, 0, 91, 64
2, 119368, Note_off_c, 0, 82, 64
2, 119371, Note_off_c, 0, 79, 64
2, 119768, Note_on_c, 0, 87, 104
2, 119769, Note_on_c, 0, 90, 104
2, 119769, Note_on_c, 0, 78, 103
2, 119851, Note_off_c, 0, 90, 64
2, 119851, Note_off_c, 0, 78, 64
2, 119852, Note_off_c, 0, 87, 64
2, 120241, Note_on_c, 0, 91, 100
2, 120244, Note_on_c, 0, 79, 102
2, 120247, Note_on_c, 0, 82, 102
2, 120283, Note_off_c, 0, 91, 64
2, 120288, Note_off_c, 0, 79, 64
2, 120290, Note_off_c, 0, 82, 64
2, 120318, Note_on_c, 0, 82, 104
2, 120325, Note_on_c, 0, 91, 100
2, 120328, Note_on_c, 0, 79, 100
2, 120360, Note_off_c, 0, 82, 64
2, 120367, Note_off_c, 0, 91, 64
2, 120370, Note_off_c, 0, 79, 64
2, 120402, Note_on_c, 0, 79, 95
2, 120406, Note_on_c, 0, 82, 96
2, 120409, Note_on_c, 0, 91, 97
2, 120445, Note_off_c, 0, 79, 64
2, 120448, Note_off_c, 0, 82, 64
2, 120453, Note_off_c, 0, 91, 64
2, 120483, Note_on_c, 0, 82, 108
2, 120488, Note_on_c, 0, 91, 108
2, 120488, Note_on_c, 0, 79, 108
2, 120525, Note_off_c, 0, 82, 64
2, 120530, Note_off_c, 0, 79, 64
2, 120532, Note_off_c, 0, 91, 64
2, 120566, Note_on_c, 0, 82, 104
2, 120568, Note_on_c, 0, 79, 100
2, 120569, Note_on_c, 0, 91, 103
2, 120609, Note_off_c, 0, 82, 64
2, 120610, Note_off_c, 0, 79, 64
2, 120613, Note_off_c, 0, 91, 64
2, 120647, Note_on_c, 0, 91, 95
2, 120649, Note_on_c, 0, 79, 96
2, 120649, Note_on_c, 0, 82, 96
2, 120689, Note_off_c, 0, 91, 64
2, 120691, Note_off_c, 0, 79, 64
2, 120692, Note_off_c, 0, 82, 64
2, 120724, Note_on_c, 0, 79, 104
2, 120726, Note_on_c, 0, 91, 104
2, 120728, Note_on_c, 0, 82, 104
2, 120783, Note_off_c, 0, 79, 64
2, 120785, Note_off_c, 0, 91, 64
2, 120786, Note_off_c, 0, 82, 64
2, 121204, Note_on_c, 0, 82, 104
2, 121205, Note_on_c, 0, 79, 104
2, 121209, Note_on_c, 0, 86, 104
2, 121287, Note_off_c, 0, 82, 64
2, 121287, Note_off_c, 0, 79, 64
2, 121292, Note_off_c, 0, 86, 64
2, 121687, Note_on_c, 0, 82, 104
2, 121688, Note_on_c, 0, 86, 102
2, 121689, Note_on_c, 0, 79, 104
2, 121731, Note_off_c, 0, 82, 64
2, 121731, Note_off_c, 0, 79, 64
2, 121731, Note_off_c, 0, 86, 64
2, 121764, Note_on_c, 0, 79, 104
2, 121769, Note_on_c, 0, 86, 104
2, 121769, Note_on_c, 0, 82, 104
2, 121806, Note_off_c, 0, 79, 64
2, 121811, Note_off_c, 0, 86, 64
2, 121812, Note_off_c, 0, 82, 64
2, 121845, Note_on_c, 0, 79, 98
2, 121847, Note_on_c, 0, 82, 97
2, 121848, Note_on_c, 0, 86, 93
2, 121887, Note_off_c, 0, 79, 64
2, 121890, Note_off_c, 0, 82, 64
2, 121891, Note_off_c, 0, 86, 64
2, 122163, Note_on_c, 0, 79, 104
2, 122164, Note_on_c, 0, 82, 104
2, 122166, Note_on_c, 0, 86, 104
2, 122247, Note_off_c, 0, 82, 64
2, 122248, Note_off_c, 0, 86, 64
2, 122248, Note_off_c, 0, 79, 64
2, 122643, Note_on_c, 0, 82, 104
2, 122648, Note_on_c, 0, 78, 104
2, 122649, Note_on_c, 0, 87, 104
2, 122726, Note_off_c, 0, 82, 64
2, 122730, Note_off_c, 0, 78, 64
2, 122731, Note_off_c, 0, 87, 64
2, 123125, Note_on_c, 0, 82, 100
2, 123125, Note_on_c, 0, 78, 104
2, 123129, Note_on_c, 0, 87, 103
2, 123207, Note_off_c, 0, 82, 64
2, 123207, Note_off_c, 0, 78, 64
2, 123211, Note_off_c, 0, 87, 64
2, 123602, Note_on_c, 0, 78, 104
2, 123603, Note_on_c, 0, 75, 102
2, 123607, Note_on_c, 0, 70, 103
2, 123684, Note_off_c, 0, 78, 64
2, 123686, Note_off_c, 0, 75, 64
2, 123689, Note_off_c, 0, 70, 64
2, 124085, Note_on_c, 0, 91, 101
2, 124089, Note_on_c, 0, 79, 104
2, 124089, Note_on_c, 0, 82, 102
2, 124127, Note_off_c, 0, 91, 64
2, 124132, Note_off_c, 0, 82, 64
2, 124132, Note_off_c, 0, 79, 64
2, 124161, Note_on_c, 0, 91, 102
2, 124166, Note_on_c, 0, 79, 103
2, 124169, Note_on_c, 0, 82, 103
2, 124203, Note_off_c, 0, 91, 64
2, 124210, Note_off_c, 0, 79, 64
2, 124211, Note_off_c, 0, 82, 64
2, 124244, Note_on_c, 0, 79, 97
2, 124248, Note_on_c, 0, 82, 97
2, 124249, Note_on_c, 0, 91, 96
2, 124286, Note_off_c, 0, 79, 64
2, 124290, Note_off_c, 0, 82, 64
2, 124291, Note_off_c, 0, 91, 64
2, 124320, Control_c, 0, 11, 109
2, 124326, Note_on_c, 0, 91, 108
2, 124327, Note_on_c, 0, 82, 106
2, 124329, Note_on_c, 0, 79, 110
2, 124369, Note_off_c, 0, 91, 64
2, 124369, Note_off_c, 0, 82, 64
2, 124372, Note_off_c, 0, 79, 64
2, 124406, Note_on_c, 0, 82, 104
2, 124407, Note_on_c, 0, 91, 102
2, 124409, Note_on_c, 0, 79, 104
2, 124440, Control_c, 0, 11, 113
2, 124449, Note_off_c, 0, 82, 64
2, 124450, Note_off_c, 0, 91, 64
2, 124452, Note_off_c, 0, 79, 64
2, 124487, Note_on_c, 0, 82, 96
2, 124487, Note_on_c, 0, 91, 96
2, 124489, Note_on_c, 0, 79, 97
2, 124529, Note_off_c, 0, 82, 64
2, 124531, Note_off_c, 0, 79, 64
2, 124532, Note_off_c, 0, 91, 64
2, 124536, Control_c, 0, 11, 116
2, 124567, Note_on_c, 0, 82, 104
2, 124569, Note_on_c, 0, 91, 103
2, 124569, Note_on_c, 0, 79, 101
2, 124584, Control_c, 0, 11, 119
2, 124626, Note_off_c, 0, 82, 64
2, 124627, Note_off_c, 0, 79, 64
2, 124627, Note_off_c, 0, 91, 64
2, 124680, Control_c, 0, 11, 123
2, 124776, Control_c, 0, 11, 127
2, 124806, Note_on_c, 0, 91, 106
2, 124808, Note_on_c, 0, 103, 108
2, 125236, Note_off_c, 0, 91, 64
2, 125239, Note_off_c, 0, 103, 64
2, 125285, Note_on_c, 0, 79, 101
2, 125288, Note_on_c, 0, 91, 101
2, 125572, Note_off_c, 0, 79, 64
2, 125575, Note_off_c, 0, 91, 64
2, 125644, Note_on_c, 0, 91, 104
2, 125649, Note_on_c, 0, 79, 103
2, 125702, Note_off_c, 0, 91, 64
2, 125707, Note_off_c, 0, 79, 64
2, 125768, Note_on_c, 0, 103, 103
2, 125768, Note_on_c, 0, 91, 103
2, 126198, Note_off_c, 0, 103, 64
2, 126198, Note_off_c, 0, 91, 64
2, 126246, Note_on_c, 0, 102, 100
2, 126249, Note_on_c, 0, 90, 102
2, 126533, Note_off_c, 0, 102, 64
2, 126535, Note_off_c, 0, 90, 64
2, 126608, Note_on_c, 0, 101, 104
2, 126609, Note_on_c, 0, 89, 102
2, 126667, Note_off_c, 0, 101, 64
2, 126667, Note_off_c, 0, 89, 64
2, 126726, Note_on_c, 0, 100, 110
2, 126729, Note_on_c, 0, 88, 109
2, 126784, Note_off_c, 0, 100, 64
2, 126787, Note_off_c, 0, 88, 64
2, 126845, Note_on_c, 0, 99, 100
2, 126849, Note_on_c, 0, 87, 104
2, 126892, Note_off_c, 0, 99, 64
2, 126898, Note_off_c, 0, 87, 64
2, 126964, Note_on_c, 0, 100, 102
2, 126968, Note_on_c, 0, 88, 104
2, 127047, Note_off_c, 0, 100, 64
2, 127050, Note_off_c, 0, 88, 64
2, 127448, Note_on_c, 0, 80, 104
2, 127449, Note_on_c, 0, 92, 104
2, 127518, Note_off_c, 0, 80, 64
2, 127519, Note_off_c, 0, 92, 64
2, 127688, Note_on_c, 0, 97, 99
2, 127689, Note_on_c, 0, 85, 102
2, 128119, Note_off_c, 0, 97, 64
2, 128119, Note_off_c, 0, 85, 64
2, 128165, Note_on_c, 0, 96, 97
2, 128167, Note_on_c, 0, 84, 104
2, 128452, Note_off_c, 0, 96, 64
2, 128454, Note_off_c, 0, 84, 64
2, 128525, Note_on_c, 0, 95, 104
2, 128529, Note_on_c, 0, 83, 102
2, 128583, Note_off_c, 0, 95, 64
2, 128588, Note_off_c, 0, 83, 64
2, 128649, Note_on_c, 0, 94, 107
2, 128649, Note_on_c, 0, 82, 110
2, 128707, Note_off_c, 0, 94, 64
2, 128707, Note_off_c, 0, 82, 64
2, 128769, Note_on_c, 0, 93, 102
2, 128769, Note_on_c, 0, 81, 104
2, 128816, Note_off_c, 0, 81, 64
2, 128817, Note_off_c, 0, 93, 64
2, 128881, Note_on_c, 0, 94, 104
2, 128888, Note_on_c, 0, 82, 102
2, 128964, Note_off_c, 0, 94, 64
2, 128972, Note_off_c, 0, 82, 64
2, 129368, Note_on_c, 0, 87, 104
2, 129368, Note_on_c, 0, 75, 104
2, 129438, Note_off_c, 0, 87, 64
2, 129438, Note_off_c, 0, 75, 64
2, 129601, Note_on_c, 0, 78, 104
2, 129607, Note_on_c, 0, 90, 102
2, 130007, Note_off_c, 0, 78, 64
2, 130013, Note_off_c, 0, 90, 64
2, 130084, Note_on_c, 0, 75, 104
2, 130085, Note_on_c, 0, 87, 104
2, 130372, Note_off_c, 0, 75, 64
2, 130372, Note_off_c, 0, 87, 64
2, 130445, Note_on_c, 0, 82, 103
2, 130446, Note_on_c, 0, 94, 102
2, 130503, Note_off_c, 0, 82, 64
2, 130504, Note_off_c, 0, 94, 64
2, 130566, Note_on_c, 0, 79, 101
2, 130568, Note_on_c, 0, 91, 102
2, 130685, Note_off_c, 0, 79, 64
2, 130688, Note_off_c, 0, 91, 64
2, 131046, Note_on_c, 0, 87, 78
2, 131048, Note_on_c, 0, 75, 78
2, 131105, Note_on_c, 0, 89, 75
2, 131107, Note_on_c, 0, 77, 78
2, 131117, Note_off_c, 0, 87, 64
2, 131118, Note_off_c, 0, 75, 64
2, 131167, Note_on_c, 0, 78, 79
2, 131169, Note_on_c, 0, 90, 80
2, 131175, Note_off_c, 0, 89, 64
2, 131177, Note_off_c, 0, 77, 64
2, 131221, Note_on_c, 0, 80, 81
2, 131223, Note_on_c, 0, 92, 78
2, 131239, Note_off_c, 0, 78, 64
2, 131239, Note_off_c, 0, 90, 64
2, 131287, Note_on_c, 0, 94, 79
2, 131289, Note_on_c, 0, 82, 81
2, 131291, Note_off_c, 0, 80, 64
2, 131293, Note_off_c, 0, 92, 64
2, 131345, Note_on_c, 0, 96, 82
2, 131348, Note_on_c, 0, 84, 85
2, 131360, Note_off_c, 0, 94, 64
2, 131360, Note_off_c, 0, 82, 64
2, 131402, Note_on_c, 0, 98, 90
2, 131408, Note_on_c, 0, 86, 90
2, 131415, Note_off_c, 0, 96, 64
2, 131420, Note_off_c, 0, 84, 64
2, 131447, Note_on_c, 0, 87, 90
2, 131448, Note_on_c, 0, 99, 94
2, 131473, Note_off_c, 0, 98, 64
2, 131478, Note_off_c, 0, 86, 64
2, 131481, Note_on_c, 0, 101, 98
2, 131488, Note_on_c, 0, 89, 98
2, 131497, Note_off_c, 0, 87, 64
2, 131498, Note_off_c, 0, 99, 64
2, 131524, Note_on_c, 0, 103, 106
2, 131525, Note_on_c, 0, 91, 109
2, 131531, Note_off_c, 0, 101, 64
2, 131539, Note_off_c, 0, 89, 64
2, 131594, Note_off_c, 0, 103, 64
2, 131596, Note_off_c, 0, 91, 64
2, 131765, Note_on_c, 0, 79, 104
2, 131769, Note_on_c, 0, 91, 104
2, 131835, Note_off_c, 0, 79, 64
2, 131839, Note_off_c, 0, 91, 64
2, 132000, Note_on_c, 0, 91, 108
2, 132043, Note_off_c, 0, 91, 64
2, 132087, Note_on_c, 0, 91, 104
2, 132130, Note_off_c, 0, 91, 64
2, 132169, Note_on_c, 0, 91, 98
2, 132212, Note_off_c, 0, 91, 64
2, 132248, Note_on_c, 0, 91, 104
2, 132306, Note_off_c, 0, 91, 64
2, 136296, Control_c, 0, 11, 114
2, 136320, Note_on_c, 0, 103, 93
2, 136326, Note_on_c, 0, 91, 94
2, 136405, Note_on_c, 0, 91, 72
2, 136409, Note_on_c, 0, 79, 72
2, 136411, Note_off_c, 0, 103, 64
2, 136418, Note_off_c, 0, 91, 64
2, 136486, Note_on_c, 0, 78, 66
2, 136486, Note_on_c, 0, 90, 66
2, 136497, Note_off_c, 0, 91, 64
2, 136499, Note_off_c, 0, 79, 64
2, 136566, Note_on_c, 0, 91, 92
2, 136567, Note_on_c, 0, 79, 92
2, 136576, Note_off_c, 0, 78, 64
2, 136577, Note_off_c, 0, 90, 64
2, 136636, Note_off_c, 0, 91, 64
2, 136639, Note_off_c, 0, 79, 64
2, 136680, Control_c, 0, 11, 115
2, 137064, Control_c, 0, 11, 116
2, 137448, Control_c, 0, 11, 118
2, 137765, Note_on_c, 0, 106, 96
2, 137769, Note_on_c, 0, 94, 98
2, 137832, Control_c, 0, 11, 119
2, 137846, Note_on_c, 0, 82, 73
2, 137856, Note_off_c, 0, 106, 64
2, 137860, Note_off_c, 0, 94, 64
2, 137926, Note_on_c, 0, 81, 61
2, 137937, Note_off_c, 0, 82, 64
2, 138004, Note_on_c, 0, 82, 92
2, 138009, Note_on_c, 0, 94, 91
2, 138016, Note_off_c, 0, 81, 64
2, 138074, Note_off_c, 0, 82, 64
2, 138079, Note_off_c, 0, 94, 64
2, 138216, Control_c, 0, 11, 120
2, 138246, Note_on_c, 0, 91, 96
2, 138248, Note_on_c, 0, 103, 95
2, 138320, Note_on_c, 0, 79, 72
2, 138326, Note_on_c, 0, 91, 73
2, 138336, Note_off_c, 0, 91, 64
2, 138339, Note_off_c, 0, 103, 64
2, 138401, Note_on_c, 0, 90, 64
2, 138406, Note_on_c, 0, 78, 66
2, 138410, Note_off_c, 0, 79, 64
2, 138416, Note_off_c, 0, 91, 64
2, 138483, Note_on_c, 0, 91, 88
2, 138488, Note_on_c, 0, 79, 90
2, 138491, Note_off_c, 0, 90, 64
2, 138499, Note_off_c, 0, 78, 64
2, 138553, Note_off_c, 0, 91, 64
2, 138559, Note_off_c, 0, 79, 64
2, 138600, Control_c, 0, 11, 121
2, 138984, Control_c, 0, 11, 123
2, 139368, Control_c, 0, 11, 124
2, 139684, Note_on_c, 0, 106, 97
2, 139688, Note_on_c, 0, 94, 98
2, 139752, Control_c, 0, 11, 125
2, 139767, Note_on_c, 0, 82, 71
2, 139775, Note_off_c, 0, 106, 64
2, 139778, Note_off_c, 0, 94, 64
2, 139847, Note_on_c, 0, 81, 65
2, 139858, Note_off_c, 0, 82, 64
2, 139925, Note_on_c, 0, 94, 92
2, 139929, Note_on_c, 0, 82, 92
2, 139937, Note_off_c, 0, 81, 64
2, 139995, Note_off_c, 0, 94, 64
2, 139999, Note_off_c, 0, 82, 64
2, 140136, Control_c, 0, 11, 127
2, 140165, Note_on_c, 0, 91, 98
2, 140169, Note_on_c, 0, 103, 98
2, 140256, Note_off_c, 0, 91, 64
2, 140260, Note_off_c, 0, 103, 64
2, 143525, Note_on_c, 0, 87, 84
2, 143528, Note_on_c, 0, 75, 82
2, 143584, Note_on_c, 0, 90, 85
2, 143589, Note_on_c, 0, 78, 82
2, 143621, Note_off_c, 0, 87, 64
2, 143623, Note_off_c, 0, 75, 64
2, 143646, Note_on_c, 0, 79, 82
2, 143649, Note_on_c, 0, 91, 81
2, 143678, Note_off_c, 0, 90, 64
2, 143683, Note_off_c, 0, 78, 64
2, 143707, Note_on_c, 0, 93, 83
2, 143708, Note_on_c, 0, 81, 84
2, 143740, Note_off_c, 0, 79, 64
2, 143743, Note_off_c, 0, 91, 64
2, 143766, Note_on_c, 0, 94, 86
2, 143769, Note_on_c, 0, 82, 85
2, 143803, Note_off_c, 0, 93, 64
2, 143803, Note_off_c, 0, 81, 64
2, 143820, Note_on_c, 0, 86, 92
2, 143824, Note_on_c, 0, 98, 90
2, 143860, Note_off_c, 0, 94, 64
2, 143863, Note_off_c, 0, 82, 64
2, 143889, Note_on_c, 0, 87, 90
2, 143889, Note_on_c, 0, 99, 94
2, 143914, Note_off_c, 0, 86, 64
2, 143918, Note_off_c, 0, 98, 64
2, 143944, Note_on_c, 0, 90, 98
2, 143949, Note_on_c, 0, 102, 97
2, 143983, Note_off_c, 0, 99, 64
2, 143985, Note_off_c, 0, 87, 64
2, 144005, Note_on_c, 0, 91, 107
2, 144006, Note_on_c, 0, 103, 108
2, 144038, Note_off_c, 0, 90, 64
2, 144043, Note_off_c, 0, 102, 64
2, 144111, Note_off_c, 0, 91, 64
2, 144112, Note_off_c, 0, 103, 64
2, 144488, Note_on_c, 0, 91, 104
2, 144488, Note_on_c, 0, 103, 102
2, 144547, Note_off_c, 0, 103, 64
2, 144549, Note_off_c, 0, 91, 64
2, 144727, Note_on_c, 0, 91, 104
2, 144727, Note_on_c, 0, 103, 104
2, 144769, Note_off_c, 0, 91, 64
2, 144770, Note_off_c, 0, 103, 64
2, 144803, Note_on_c, 0, 103, 104
2, 144807, Note_on_c, 0, 91, 103
2, 144845, Note_off_c, 0, 103, 64
2, 144850, Note_off_c, 0, 91, 64
2, 144887, Note_on_c, 0, 103, 97
2, 144888, Note_on_c, 0, 91, 95
2, 144931, Note_off_c, 0, 103, 64
2, 144931, Note_off_c, 0, 91, 64
2, 144967, Note_on_c, 0, 103, 104
2, 144969, Note_on_c, 0, 91, 104
2, 145025, Note_off_c, 0, 103, 64
2, 145027, Note_off_c, 0, 91, 64
2, 145204, Note_on_c, 0, 91, 103
2, 145204, Note_on_c, 0, 103, 104
2, 145246, Note_off_c, 0, 91, 64
2, 145246, Note_off_c, 0, 103, 64
2, 145284, Note_on_c, 0, 103, 101
2, 145286, Note_on_c, 0, 91, 104
2, 145327, Note_off_c, 0, 103, 64
2, 145328, Note_off_c, 0, 91, 64
2, 145365, Note_on_c, 0, 103, 93
2, 145369, Note_on_c, 0, 91, 98
2, 145407, Note_off_c, 0, 103, 64
2, 145411, Note_off_c, 0, 91, 64
2, 145447, Note_on_c, 0, 91, 118
2, 145449, Note_on_c, 0, 103, 119
2, 145489, Note_off_c, 0, 91, 64
2, 145492, Note_off_c, 0, 103, 64
2, 145527, Note_on_c, 0, 91, 102
2, 145527, Note_on_c, 0, 103, 100
2, 145569, Note_off_c, 0, 91, 64
2, 145569, Note_off_c, 0, 103, 64
2, 145608, Note_on_c, 0, 91, 97
2, 145609, Note_on_c, 0, 103, 97
2, 145650, Note_off_c, 0, 91, 64
2, 145652, Note_off_c, 0, 103, 64
2, 145683, Note_on_c, 0, 91, 104
2, 145685, Note_on_c, 0, 103, 104
2, 145741, Note_off_c, 0, 91, 64
2, 145744, Note_off_c, 0, 103, 64
2, 145924, Note_on_c, 0, 91, 99
2, 145929, Note_on_c, 0, 103, 104
2, 146042, Note_off_c, 0, 91, 64
2, 146047, Note_off_c, 0, 103, 64
2, 146405, Note_on_c, 0, 91, 102
2, 146408, Note_on_c, 0, 103, 101
2, 146463, Note_off_c, 0, 91, 64
2, 146466, Note_off_c, 0, 103, 64
2, 146647, Note_on_c, 0, 91, 102
2, 146649, Note_on_c, 0, 103, 103
2, 146689, Note_off_c, 0, 91, 64
2, 146691, Note_off_c, 0, 103, 64
2, 146728, Note_on_c, 0, 91, 102
2, 146728, Note_on_c, 0, 103, 104
2, 146770, Note_off_c, 0, 103, 64
2, 146771, Note_off_c, 0, 91, 64
2, 146804, Note_on_c, 0, 91, 95
2, 146806, Note_on_c, 0, 103, 96
2, 146846, Note_off_c, 0, 91, 64
2, 146849, Note_off_c, 0, 103, 64
2, 146879, Note_on_c, 0, 103, 103
2, 146887, Note_on_c, 0, 91, 100
2, 146939, Note_off_c, 0, 103, 64
2, 146947, Note_off_c, 0, 91, 64
2, 147125, Note_on_c, 0, 103, 104
2, 147129, Note_on_c, 0, 91, 102
2, 147168, Note_off_c, 0, 103, 64
2, 147171, Note_off_c, 0, 91, 64
2, 147204, Note_on_c, 0, 103, 100
2, 147208, Note_on_c, 0, 91, 104
2, 147248, Note_off_c, 0, 103, 64
2, 147250, Note_off_c, 0, 91, 64
2, 147287, Note_on_c, 0, 91, 98
2, 147287, Note_on_c, 0, 103, 98
2, 147329, Note_off_c, 0, 91, 64
2, 147330, Note_off_c, 0, 103, 64
2, 147369, Note_on_c, 0, 91, 117
2, 147369, Note_on_c, 0, 103, 118
2, 147411, Note_off_c, 0, 91, 64
2, 147412, Note_off_c, 0, 103, 64
2, 147443, Note_on_c, 0, 91, 102
2, 147448, Note_on_c, 0, 103, 104
2, 147486, Note_off_c, 0, 91, 64
2, 147492, Note_off_c, 0, 103, 64
2, 147527, Note_on_c, 0, 91, 94
2, 147529, Note_on_c, 0, 103, 92
2, 147569, Note_off_c, 0, 91, 64
2, 147571, Note_off_c, 0, 103, 64
2, 147607, Note_on_c, 0, 103, 102
2, 147608, Note_on_c, 0, 91, 100
2, 147665, Note_off_c, 0, 103, 64
2, 147666, Note_off_c, 0, 91, 64
2, 147849, Note_on_c, 0, 103, 119
2, 147849, Note_on_c, 0, 91, 117
2, 147891, Note_off_c, 0, 91, 64
2, 147894, Note_off_c, 0, 103, 64
2, 147927, Note_on_c, 0, 91, 99
2, 147929, Note_on_c, 0, 103, 103
2, 147971, Note_off_c, 0, 91, 64
2, 147971, Note_off_c, 0, 103, 64
2, 148006, Note_on_c, 0, 91, 98
2, 148008, Note_on_c, 0, 103, 98
2, 148048, Note_off_c, 0, 91, 64
2, 148050, Note_off_c, 0, 103, 64
2, 148087, Note_on_c, 0, 103, 104
2, 148087, Note_on_c, 0, 91, 104
2, 148146, Note_off_c, 0, 103, 64
2, 148146, Note_off_c, 0, 91, 64
2, 149736, Control_c, 0, 11, 114
2, 149763, Note_on_c, 0, 74, 99
2, 149848, Note_on_c, 0, 65, 103
2, 149853, Note_off_c, 0, 74, 64
2, 149927, Note_on_c, 0, 67, 94
2, 149928, Control_c, 0, 11, 115
2, 149938, Note_off_c, 0, 65, 64
2, 150006, Note_on_c, 0, 68, 103
2, 150017, Note_off_c, 0, 67, 64
2, 150085, Note_on_c, 0, 70, 100
2, 150096, Note_off_c, 0, 68, 64
2, 150120, Control_c, 0, 11, 116
2, 150167, Note_on_c, 0, 72, 96
2, 150175, Note_off_c, 0, 70, 64
2, 150245, Note_on_c, 0, 74, 104
2, 150258, Note_off_c, 0, 72, 64
2, 150312, Control_c, 0, 11, 118
2, 150329, Note_on_c, 0, 75, 104
2, 150335, Note_off_c, 0, 74, 64
2, 150408, Note_on_c, 0, 77, 98
2, 150419, Note_off_c, 0, 75, 64
2, 150486, Note_on_c, 0, 79, 101
2, 150499, Note_off_c, 0, 77, 64
2, 150504, Control_c, 0, 11, 119
2, 150565, Note_on_c, 0, 80, 103
2, 150577, Note_off_c, 0, 79, 64
2, 150649, Note_on_c, 0, 82, 95
2, 150656, Note_off_c, 0, 80, 64
2, 150696, Control_c, 0, 11, 120
2, 150725, Note_on_c, 0, 96, 104
2, 150728, Note_on_c, 0, 84, 104
2, 150739, Note_off_c, 0, 82, 64
2, 150806, Note_on_c, 0, 84, 104
2, 150809, Note_on_c, 0, 72, 102
2, 150815, Note_off_c, 0, 96, 64
2, 150818, Note_off_c, 0, 84, 64
2, 150887, Note_on_c, 0, 86, 98
2, 150888, Control_c, 0, 11, 121
2, 150889, Note_on_c, 0, 74, 98
2, 150897, Note_off_c, 0, 84, 64
2, 150899, Note_off_c, 0, 72, 64
2, 150965, Note_on_c, 0, 87, 103
2, 150966, Note_on_c, 0, 75, 100
2, 150977, Note_off_c, 0, 86, 64
2, 150979, Note_off_c, 0, 74, 64
2, 151046, Note_on_c, 0, 77, 104
2, 151046, Note_on_c, 0, 89, 100
2, 151056, Note_off_c, 0, 87, 64
2, 151056, Note_off_c, 0, 75, 64
2, 151080, Control_c, 0, 11, 123
2, 151119, Note_on_c, 0, 91, 94
2, 151128, Note_on_c, 0, 79, 97
2, 151136, Note_off_c, 0, 77, 64
2, 151137, Note_off_c, 0, 89, 64
2, 151206, Note_on_c, 0, 92, 104
2, 151208, Note_on_c, 0, 80, 104
2, 151209, Note_off_c, 0, 91, 64
2, 151218, Note_off_c, 0, 79, 64
2, 151272, Control_c, 0, 11, 124
2, 151284, Note_on_c, 0, 82, 104
2, 151287, Note_on_c, 0, 94, 102
2, 151296, Note_off_c, 0, 92, 64
2, 151298, Note_off_c, 0, 80, 64
2, 151368, Note_on_c, 0, 84, 96
2, 151368, Note_on_c, 0, 96, 97
2, 151375, Note_off_c, 0, 82, 64
2, 151378, Note_off_c, 0, 94, 64
2, 151447, Note_on_c, 0, 86, 100
2, 151449, Note_on_c, 0, 98, 103
2, 151458, Note_off_c, 0, 84, 64
2, 151458, Note_off_c, 0, 96, 64
2, 151464, Control_c, 0, 11, 125
2, 151519, Note_on_c, 0, 99, 100
2, 151520, Note_on_c, 0, 87, 100
2, 151539, Note_off_c, 0, 86, 64
2, 151539, Note_off_c, 0, 98, 64
2, 151607, Note_on_c, 0, 101, 95
2, 151608, Note_on_c, 0, 89, 95
2, 151610, Note_off_c, 0, 99, 64
2, 151610, Note_off_c, 0, 87, 64
2, 151656, Control_c, 0, 11, 127
2, 151685, Note_on_c, 0, 91, 109
2, 151687, Note_on_c, 0, 103, 107
2, 151697, Note_off_c, 0, 101, 64
2, 151698, Note_off_c, 0, 89, 64
2, 151804, Note_off_c, 0, 91, 64
2, 151805, Note_off_c, 0, 103, 64
2, 152164, Note_on_c, 0, 91, 104
2, 152169, Note_on_c, 0, 103, 102
2, 152223, Note_off_c, 0, 91, 64
2, 152227, Note_off_c, 0, 103, 64
2, 152401, Note_on_c, 0, 103, 104
2, 152407, Note_on_c, 0, 91, 103
2, 152443, Note_off_c, 0, 103, 64
2, 152450, Note_off_c, 0, 91, 64
2, 152484, Note_on_c, 0, 91, 102
2, 152484, Note_on_c, 0, 103, 104
2, 152526, Note_off_c, 0, 103, 64
2, 152528, Note_off_c, 0, 91, 64
2, 152567, Note_on_c, 0, 91, 98
2, 152568, Note_on_c, 0, 103, 97
2, 152609, Note_off_c, 0, 91, 64
2, 152611, Note_off_c, 0, 103, 64
2, 152645, Note_on_c, 0, 87, 102
2, 152645, Note_on_c, 0, 99, 103
2, 152688, Note_off_c, 0, 87, 64
2, 152688, Note_off_c, 0, 99, 64
2, 152725, Note_on_c, 0, 87, 103
2, 152729, Note_on_c, 0, 99, 104
2, 152768, Note_off_c, 0, 87, 64
2, 152771, Note_off_c, 0, 99, 64
2, 152804, Note_on_c, 0, 99, 97
2, 152808, Note_on_c, 0, 87, 98
2, 152846, Note_off_c, 0, 99, 64
2, 152850, Note_off_c, 0, 87, 64
2, 152884, Note_on_c, 0, 103, 104
2, 152888, Note_on_c, 0, 91, 104
2, 152943, Note_off_c, 0, 103, 64
2, 152948, Note_off_c, 0, 91, 64
2, 153366, Note_on_c, 0, 99, 103
2, 153368, Note_on_c, 0, 87, 102
2, 153408, Note_off_c, 0, 99, 64
2, 153410, Note_off_c, 0, 87, 64
2, 153448, Note_on_c, 0, 99, 102
2, 153449, Note_on_c, 0, 87, 103
2, 153490, Note_off_c, 0, 99, 64
2, 153491, Note_off_c, 0, 87, 64
2, 153521, Note_on_c, 0, 99, 96
2, 153527, Note_on_c, 0, 87, 96
2, 153563, Note_off_c, 0, 99, 64
2, 153569, Note_off_c, 0, 87, 64
2, 153606, Note_on_c, 0, 99, 102
2, 153609, Note_on_c, 0, 87, 99
2, 153648, Note_off_c, 0, 99, 64
2, 153651, Note_off_c, 0, 87, 64
2, 153688, Note_on_c, 0, 99, 104
2, 153689, Note_on_c, 0, 87, 104
2, 153731, Note_off_c, 0, 99, 64
2, 153731, Note_off_c, 0, 87, 64
2, 153764, Note_on_c, 0, 99, 95
2, 153766, Note_on_c, 0, 87, 95
2, 153806, Note_off_c, 0, 99, 64
2, 153810, Note_off_c, 0, 87, 64
2, 153847, Note_on_c, 0, 91, 100
2, 153848, Note_on_c, 0, 103, 103
2, 153905, Note_off_c, 0, 91, 64
2, 153908, Note_off_c, 0, 103, 64
2, 154326, Note_on_c, 0, 99, 104
2, 154329, Note_on_c, 0, 87, 100
2, 154368, Note_off_c, 0, 99, 64
2, 154371, Note_off_c, 0, 87, 64
2, 154404, Note_on_c, 0, 99, 99
2, 154408, Note_on_c, 0, 87, 102
2, 154447, Note_off_c, 0, 99, 64
2, 154451, Note_off_c, 0, 87, 64
2, 154488, Note_on_c, 0, 99, 98
2, 154489, Note_on_c, 0, 87, 97
2, 154531, Note_off_c, 0, 99, 64
2, 154532, Note_off_c, 0, 87, 64
2, 154565, Note_on_c, 0, 91, 104
2, 154568, Note_on_c, 0, 103, 104
2, 154623, Note_off_c, 0, 91, 64
2, 154627, Note_off_c, 0, 103, 64
2, 154809, Note_on_c, 0, 67, 110
2, 154809, Note_on_c, 0, 79, 108
2, 154852, Note_off_c, 0, 67, 64
2, 154852, Note_off_c, 0, 79, 64
2, 154882, Note_on_c, 0, 79, 109
2, 154883, Note_on_c, 0, 67, 109
2, 154925, Note_off_c, 0, 79, 64
2, 154926, Note_off_c, 0, 67, 64
2, 154968, Note_on_c, 0, 67, 99
2, 154969, Note_on_c, 0, 79, 103
2, 155011, Note_off_c, 0, 79, 64
2, 155012, Note_off_c, 0, 67, 64
2, 155048, Note_on_c, 0, 67, 115
2, 155049, Note_on_c, 0, 79, 119
2, 155106, Note_off_c, 0, 67, 64
2, 155107, Note_off_c, 0, 79, 64
2, 159360, Control_c, 0, 123, 0
2, 159360, End_track
3, 0, Start_track
3, 0, Text_t, "Oboes/English Horn"
3, 0, Program_c, 1, 68
3, 0, Control_c, 1, 10, 84
3, 0, Control_c, 1, 7, 69
3, 0, Control_c, 1, 91, 127
3, 0, Control_c, 1, 93, 5
3, 0, Control_c, 1, 11, 127
3, 0, Control_c, 1, 123, 0
3, 31447, Note_on_c, 1, 68, 106
3, 31505, Note_off_c, 1, 68, 64
3, 31679, Note_on_c, 1, 73, 101
3, 32098, Note_off_c, 1, 73, 64
3, 32166, Note_on_c, 1, 72, 102
3, 32440, Note_off_c, 1, 72, 64
3, 32527, Note_on_c, 1, 71, 99
3, 32575, Note_off_c, 1, 71, 64
3, 32649, Note_on_c, 1, 70, 110
3, 32696, Note_off_c, 1, 70, 64
3, 32769, Note_on_c, 1, 69, 96
3, 32803, Note_off_c, 1, 69, 64
3, 32889, Note_on_c, 1, 70, 103
3, 32959, Note_off_c, 1, 70, 64
3, 33369, Note_on_c, 1, 63, 108
3, 33429, Note_off_c, 1, 63, 64
3, 33606, Note_on_c, 1, 66, 104
3, 34024, Note_off_c, 1, 66, 64
3, 34086, Note_on_c, 1, 63, 109
3, 34361, Note_off_c, 1, 63, 64
3, 34447, Note_on_c, 1, 70, 102
3, 34493, Note_off_c, 1, 70, 64
3, 34567, Note_on_c, 1, 67, 103
3, 34913, Note_off_c, 1, 67, 64
3, 35048, Note_on_c, 1, 75, 110
3, 35322, Note_off_c, 1, 75, 64
3, 35403, Note_on_c, 1, 82, 101
3, 35449, Note_off_c, 1, 82, 64
3, 35472, Control_c, 1, 11, 127
3, 35520, Control_c, 1, 11, 127
3, 35524, Note_on_c, 1, 79, 104
3, 35568, Control_c, 1, 11, 124
3, 35616, Control_c, 1, 11, 121
3, 35688, Control_c, 1, 11, 118
3, 35736, Control_c, 1, 11, 115
3, 35784, Control_c, 1, 11, 111
3, 35856, Control_c, 1, 11, 108
3, 35904, Control_c, 1, 11, 105
3, 35976, Control_c, 1, 11, 101
3, 36000, Control_c, 1, 11, 99
3, 36000, Control_c, 1, 11, 99
3, 36072, Control_c, 1, 11, 103
3, 36120, Control_c, 1, 11, 106
3, 36168, Control_c, 1, 11, 109
3, 36216, Control_c, 1, 11, 113
3, 36288, Control_c, 1, 11, 116
3, 36336, Control_c, 1, 11, 120
3, 36384, Control_c, 1, 11, 123
3, 36398, Note_off_c, 1, 79, 64
3, 37392, Control_c, 1, 11, 127
3, 72968, Note_on_c, 1, 70, 89
3, 73368, Note_off_c, 1, 70, 64
3, 73442, Note_on_c, 1, 58, 85
3, 73566, Note_off_c, 1, 58, 64
3, 73806, Note_on_c, 1, 58, 81
3, 73858, Note_off_c, 1, 58, 64
3, 73929, Note_on_c, 1, 70, 83
3, 74353, Note_off_c, 1, 70, 64
3, 74406, Note_on_c, 1, 69, 85
3, 74687, Note_off_c, 1, 69, 64
3, 74769, Note_on_c, 1, 68, 85
3, 74822, Note_off_c, 1, 68, 64
3, 74888, Note_on_c, 1, 67, 93
3, 74940, Note_off_c, 1, 67, 64
3, 75008, Note_on_c, 1, 66, 84
3, 75049, Note_off_c, 1, 66, 64
3, 75127, Note_on_c, 1, 67, 84
3, 75203, Note_off_c, 1, 67, 64
3, 75605, Note_on_c, 1, 59, 83
3, 75669, Note_off_c, 1, 59, 64
3, 75846, Note_on_c, 1, 64, 73
3, 77047, Note_on_c, 1, 79, 72
3, 77103, Note_off_c, 1, 79, 64
3, 77288, Note_on_c, 1, 81, 79
3, 77354, Note_off_c, 1, 81, 64
3, 77527, Note_on_c, 1, 78, 67
3, 77581, Note_off_c, 1, 78, 64
3, 77831, Note_off_c, 1, 64, 64
3, 78008, Note_on_c, 1, 81, 70
3, 78062, Note_off_c, 1, 81, 64
3, 78248, Note_on_c, 1, 75, 77
3, 78249, Note_on_c, 1, 63, 84
3, 78314, Note_off_c, 1, 75, 64
3, 78489, Note_on_c, 1, 72, 73
3, 78531, Note_off_c, 1, 63, 64
3, 78543, Note_off_c, 1, 72, 64
3, 78601, Note_on_c, 1, 62, 85
3, 78653, Note_off_c, 1, 62, 64
3, 78728, Note_on_c, 1, 78, 72
3, 78728, Note_on_c, 1, 61, 88
3, 78780, Note_off_c, 1, 61, 64
3, 78782, Note_off_c, 1, 78, 64
3, 78846, Note_on_c, 1, 60, 85
3, 78886, Note_off_c, 1, 60, 64
3, 78958, Note_on_c, 1, 61, 83
3, 78962, Note_on_c, 1, 66, 73
3, 79016, Note_off_c, 1, 66, 64
3, 79034, Note_off_c, 1, 61, 64
3, 79209, Note_on_c, 1, 78, 72
3, 79264, Note_off_c, 1, 78, 64
3, 79448, Note_on_c, 1, 54, 85
3, 79513, Note_off_c, 1, 54, 64
3, 79687, Note_on_c, 1, 57, 79
3, 80160, Control_c, 1, 11, 127
3, 80304, Control_c, 1, 11, 127
3, 80424, Control_c, 1, 11, 125
3, 80544, Control_c, 1, 11, 123
3, 80592, Control_c, 1, 11, 120
3, 80688, Control_c, 1, 11, 116
3, 80784, Control_c, 1, 11, 113
3, 80832, Control_c, 1, 11, 110
3, 80904, Control_c, 1, 11, 106
3, 80952, Control_c, 1, 11, 103
3, 81000, Control_c, 1, 11, 99
3, 81048, Control_c, 1, 11, 95
3, 81096, Control_c, 1, 11, 91
3, 81144, Control_c, 1, 11, 86
3, 81192, Control_c, 1, 11, 81
3, 81216, Control_c, 1, 11, 77
3, 81264, Control_c, 1, 11, 71
3, 81288, Control_c, 1, 11, 67
3, 81312, Control_c, 1, 11, 64
3, 81336, Control_c, 1, 11, 60
3, 81360, Control_c, 1, 11, 56
3, 81384, Control_c, 1, 11, 51
3, 81408, Control_c, 1, 11, 45
3, 81432, Note_off_c, 1, 57, 64
3, 81432, Control_c, 1, 11, 38
3, 81456, Control_c, 1, 11, 30
3, 81480, Control_c, 1, 11, 17
3, 81576, Control_c, 1, 11, 114
3, 81608, Note_on_c, 1, 54, 76
3, 81864, Control_c, 1, 11, 115
3, 82052, Note_off_c, 1, 54, 64
3, 82080, Control_c, 1, 11, 116
3, 82089, Note_on_c, 1, 61, 84
3, 82200, Control_c, 1, 11, 118
3, 82320, Control_c, 1, 11, 119
3, 82440, Control_c, 1, 11, 121
3, 82488, Control_c, 1, 11, 124
3, 82512, Control_c, 1, 11, 127
3, 82555, Note_off_c, 1, 61, 64
3, 82568, Note_on_c, 1, 58, 78
3, 82939, Note_off_c, 1, 58, 64
3, 83048, Note_on_c, 1, 54, 91
3, 83335, Note_off_c, 1, 54, 64
3, 83404, Note_on_c, 1, 61, 83
3, 83501, Note_off_c, 1, 61, 64
3, 83526, Note_on_c, 1, 58, 75
3, 84480, Control_c, 1, 11, 127
3, 84624, Control_c, 1, 11, 127
3, 84744, Control_c, 1, 11, 125
3, 84864, Control_c, 1, 11, 124
3, 84936, Control_c, 1, 11, 121
3, 85056, Control_c, 1, 11, 119
3, 85104, Control_c, 1, 11, 116
3, 85200, Control_c, 1, 11, 113
3, 85248, Control_c, 1, 11, 110
3, 85344, Control_c, 1, 11, 106
3, 85392, Control_c, 1, 11, 103
3, 85440, Control_c, 1, 11, 100
3, 85488, Control_c, 1, 11, 96
3, 85560, Control_c, 1, 11, 91
3, 85608, Control_c, 1, 11, 88
3, 85632, Control_c, 1, 11, 85
3, 85656, Control_c, 1, 11, 82
3, 85704, Control_c, 1, 11, 79
3, 85728, Control_c, 1, 11, 76
3, 85752, Control_c, 1, 11, 72
3, 85800, Control_c, 1, 11, 67
3, 85824, Control_c, 1, 11, 64
3, 85848, Control_c, 1, 11, 60
3, 85872, Control_c, 1, 11, 56
3, 85896, Control_c, 1, 11, 52
3, 85920, Control_c, 1, 11, 47
3, 85944, Control_c, 1, 11, 42
3, 85968, Control_c, 1, 11, 36
3, 85992, Control_c, 1, 11, 28
3, 85996, Note_off_c, 1, 58, 64
3, 86016, Control_c, 1, 11, 17
3, 86376, Control_c, 1, 11, 127
3, 94083, Note_on_c, 1, 79, 85
3, 94089, Note_on_c, 1, 67, 83
3, 94174, Note_off_c, 1, 79, 64
3, 94180, Note_off_c, 1, 67, 64
3, 95524, Note_on_c, 1, 63, 85
3, 95528, Note_on_c, 1, 75, 85
3, 95614, Note_off_c, 1, 63, 64
3, 95618, Note_off_c, 1, 75, 64
3, 96004, Note_on_c, 1, 67, 80
3, 96009, Note_on_c, 1, 79, 84
3, 96095, Note_off_c, 1, 67, 64
3, 96100, Note_off_c, 1, 79, 64
3, 97445, Note_on_c, 1, 67, 82
3, 97449, Note_on_c, 1, 79, 80
3, 97538, Note_off_c, 1, 67, 64
3, 97539, Note_off_c, 1, 79, 64
3, 97927, Note_on_c, 1, 74, 83
3, 97928, Note_on_c, 1, 62, 82
3, 98017, Note_off_c, 1, 74, 64
3, 98019, Note_off_c, 1, 62, 64
3, 99363, Note_on_c, 1, 75, 84
3, 99369, Note_on_c, 1, 63, 80
3, 99453, Note_off_c, 1, 75, 64
3, 99459, Note_off_c, 1, 63, 64
3, 99845, Note_on_c, 1, 66, 82
3, 99847, Note_on_c, 1, 78, 81
3, 99936, Note_off_c, 1, 66, 64
3, 99938, Note_off_c, 1, 78, 64
3, 101287, Note_on_c, 1, 79, 83
3, 101289, Note_on_c, 1, 67, 84
3, 101377, Note_off_c, 1, 79, 64
3, 101379, Note_off_c, 1, 67, 64
3, 101768, Note_on_c, 1, 79, 82
3, 101862, Note_off_c, 1, 79, 64
3, 101884, Note_on_c, 1, 78, 70
3, 101966, Note_off_c, 1, 78, 64
3, 102004, Note_on_c, 1, 79, 78
3, 102064, Note_off_c, 1, 79, 64
3, 103209, Note_on_c, 1, 74, 82
3, 103304, Note_off_c, 1, 74, 64
3, 103327, Note_on_c, 1, 73, 72
3, 103410, Note_off_c, 1, 73, 64
3, 103447, Note_on_c, 1, 74, 75
3, 103506, Note_off_c, 1, 74, 64
3, 108968, Note_on_c, 1, 62, 70
3, 109007, Note_on_c, 1, 63, 70
3, 109028, Note_off_c, 1, 62, 64
3, 109059, Note_on_c, 1, 66, 69
3, 109069, Note_off_c, 1, 63, 64
3, 109102, Note_on_c, 1, 67, 72
3, 109119, Note_off_c, 1, 66, 64
3, 109136, Note_on_c, 1, 69, 74
3, 109163, Note_off_c, 1, 67, 64
3, 109193, Note_on_c, 1, 70, 74
3, 109196, Note_off_c, 1, 69, 64
3, 109238, Note_on_c, 1, 72, 78
3, 109253, Note_off_c, 1, 70, 64
3, 109284, Note_on_c, 1, 74, 78
3, 109298, Note_off_c, 1, 72, 64
3, 109328, Note_on_c, 1, 75, 79
3, 109344, Note_off_c, 1, 74, 64
3, 109374, Note_on_c, 1, 78, 84
3, 109389, Note_off_c, 1, 75, 64
3, 109434, Note_off_c, 1, 78, 64
3, 109445, Note_on_c, 1, 79, 91
3, 109537, Note_off_c, 1, 79, 64
3, 109924, Note_on_c, 1, 67, 90
3, 110210, Note_off_c, 1, 67, 64
3, 110289, Note_on_c, 1, 67, 89
3, 110347, Note_off_c, 1, 67, 64
3, 110409, Note_on_c, 1, 79, 91
3, 110840, Note_off_c, 1, 79, 64
3, 110880, Note_on_c, 1, 78, 89
3, 111167, Note_off_c, 1, 78, 64
3, 111249, Note_on_c, 1, 77, 87
3, 111308, Note_off_c, 1, 77, 64
3, 111363, Note_on_c, 1, 76, 91
3, 111421, Note_off_c, 1, 76, 64
3, 111487, Note_on_c, 1, 75, 92
3, 111535, Note_off_c, 1, 75, 64
3, 111604, Note_on_c, 1, 76, 87
3, 111687, Note_off_c, 1, 76, 64
3, 112089, Note_on_c, 1, 68, 90
3, 112159, Note_off_c, 1, 68, 64
3, 112326, Note_on_c, 1, 73, 92
3, 112756, Note_off_c, 1, 73, 64
3, 112809, Note_on_c, 1, 72, 92
3, 113095, Note_off_c, 1, 72, 64
3, 113168, Note_on_c, 1, 71, 91
3, 113226, Note_off_c, 1, 71, 64
3, 113286, Note_on_c, 1, 70, 96
3, 113344, Note_off_c, 1, 70, 64
3, 113406, Note_on_c, 1, 69, 90
3, 113453, Note_off_c, 1, 69, 64
3, 113529, Note_on_c, 1, 70, 90
3, 113611, Note_off_c, 1, 70, 64
3, 114003, Note_on_c, 1, 63, 88
3, 114073, Note_off_c, 1, 63, 64
3, 114248, Note_on_c, 1, 66, 91
3, 114654, Note_off_c, 1, 66, 64
3, 114729, Note_on_c, 1, 63, 96
3, 115018, Note_off_c, 1, 63, 64
3, 115087, Note_on_c, 1, 70, 92
3, 115145, Note_off_c, 1, 70, 64
3, 115207, Note_on_c, 1, 67, 88
3, 115325, Note_off_c, 1, 67, 64
3, 115689, Note_on_c, 1, 63, 73
3, 115749, Note_on_c, 1, 65, 72
3, 115759, Note_off_c, 1, 63, 64
3, 115801, Note_on_c, 1, 66, 73
3, 115819, Note_off_c, 1, 65, 64
3, 115869, Note_on_c, 1, 68, 73
3, 115872, Note_off_c, 1, 66, 64
3, 115924, Note_on_c, 1, 70, 74
3, 115939, Note_off_c, 1, 68, 64
3, 115989, Note_on_c, 1, 72, 78
3, 115996, Note_off_c, 1, 70, 64
3, 116048, Note_on_c, 1, 74, 82
3, 116059, Note_off_c, 1, 72, 64
3, 116087, Note_on_c, 1, 75, 84
3, 116118, Note_off_c, 1, 74, 64
3, 116123, Note_on_c, 1, 77, 84
3, 116138, Note_off_c, 1, 75, 64
3, 116169, Note_on_c, 1, 79, 98
3, 116173, Note_off_c, 1, 77, 64
3, 116240, Note_off_c, 1, 79, 64
3, 116409, Note_on_c, 1, 67, 92
3, 116480, Note_off_c, 1, 67, 64
3, 116647, Note_on_c, 1, 79, 98
3, 116690, Note_off_c, 1, 79, 64
3, 116726, Note_on_c, 1, 79, 92
3, 116769, Note_off_c, 1, 79, 64
3, 116806, Note_on_c, 1, 79, 85
3, 116849, Note_off_c, 1, 79, 64
3, 116885, Note_on_c, 1, 79, 92
3, 116945, Note_off_c, 1, 79, 64
3, 117576, Control_c, 1, 11, 109
3, 124089, Note_on_c, 1, 79, 103
3, 124134, Note_off_c, 1, 79, 64
3, 124166, Note_on_c, 1, 79, 103
3, 124208, Note_off_c, 1, 79, 64
3, 124248, Note_on_c, 1, 79, 95
3, 124291, Note_off_c, 1, 79, 64
3, 124320, Control_c, 1, 11, 109
3, 124327, Note_on_c, 1, 79, 110
3, 124393, Note_off_c, 1, 79, 64
3, 124440, Control_c, 1, 11, 113
3, 124536, Control_c, 1, 11, 116
3, 124567, Note_on_c, 1, 79, 104
3, 124584, Control_c, 1, 11, 119
3, 124649, Note_off_c, 1, 79, 64
3, 124680, Control_c, 1, 11, 123
3, 124776, Control_c, 1, 11, 127
3, 124808, Note_on_c, 1, 79, 110
3, 125239, Note_off_c, 1, 79, 64
3, 125286, Note_on_c, 1, 67, 103
3, 125572, Note_off_c, 1, 67, 64
3, 125649, Note_on_c, 1, 67, 104
3, 125708, Note_off_c, 1, 67, 64
3, 125764, Note_on_c, 1, 79, 101
3, 126194, Note_off_c, 1, 79, 64
3, 126248, Note_on_c, 1, 78, 104
3, 126535, Note_off_c, 1, 78, 64
3, 126607, Note_on_c, 1, 77, 103
3, 126665, Note_off_c, 1, 77, 64
3, 126724, Note_on_c, 1, 76, 108
3, 126784, Note_off_c, 1, 76, 64
3, 126845, Note_on_c, 1, 75, 103
3, 126893, Note_off_c, 1, 75, 64
3, 126966, Note_on_c, 1, 76, 104
3, 127048, Note_off_c, 1, 76, 64
3, 127449, Note_on_c, 1, 68, 103
3, 127519, Note_off_c, 1, 68, 64
3, 127689, Note_on_c, 1, 73, 102
3, 128120, Note_off_c, 1, 73, 64
3, 128166, Note_on_c, 1, 72, 101
3, 128452, Note_off_c, 1, 72, 64
3, 128528, Note_on_c, 1, 71, 104
3, 128586, Note_off_c, 1, 71, 64
3, 128644, Note_on_c, 1, 70, 107
3, 128704, Note_off_c, 1, 70, 64
3, 128768, Note_on_c, 1, 69, 104
3, 128814, Note_off_c, 1, 69, 64
3, 128886, Note_on_c, 1, 70, 102
3, 128969, Note_off_c, 1, 70, 64
3, 129369, Note_on_c, 1, 63, 103
3, 129439, Note_off_c, 1, 63, 64
3, 129609, Note_on_c, 1, 66, 102
3, 130015, Note_off_c, 1, 66, 64
3, 130083, Note_on_c, 1, 63, 104
3, 130369, Note_off_c, 1, 63, 64
3, 130448, Note_on_c, 1, 70, 100
3, 130508, Note_off_c, 1, 70, 64
3, 130562, Note_on_c, 1, 67, 104
3, 130681, Note_off_c, 1, 67, 64
3, 131048, Note_on_c, 1, 63, 79
3, 131108, Note_on_c, 1, 65, 75
3, 131119, Note_off_c, 1, 63, 64
3, 131169, Note_on_c, 1, 66, 78
3, 131179, Note_off_c, 1, 65, 64
3, 131221, Note_on_c, 1, 68, 81
3, 131239, Note_off_c, 1, 66, 64
3, 131280, Note_on_c, 1, 70, 81
3, 131291, Note_off_c, 1, 68, 64
3, 131344, Note_on_c, 1, 72, 86
3, 131351, Note_off_c, 1, 70, 64
3, 131406, Note_on_c, 1, 74, 89
3, 131414, Note_off_c, 1, 72, 64
3, 131449, Note_on_c, 1, 75, 95
3, 131478, Note_off_c, 1, 74, 64
3, 131489, Note_on_c, 1, 77, 102
3, 131499, Note_off_c, 1, 75, 64
3, 131528, Note_on_c, 1, 79, 110
3, 131539, Note_off_c, 1, 77, 64
3, 131601, Note_off_c, 1, 79, 64
3, 131762, Note_on_c, 1, 67, 102
3, 131768, Note_on_c, 1, 79, 100
3, 131833, Note_off_c, 1, 67, 64
3, 131839, Note_off_c, 1, 79, 64
3, 132009, Note_on_c, 1, 67, 106
3, 132052, Note_off_c, 1, 67, 64
3, 132089, Note_on_c, 1, 67, 104
3, 132131, Note_off_c, 1, 67, 64
3, 132169, Note_on_c, 1, 67, 95
3, 132211, Note_off_c, 1, 67, 64
3, 132244, Note_on_c, 1, 67, 101
3, 132302, Note_off_c, 1, 67, 64
3, 136296, Control_c, 1, 11, 114
3, 136326, Note_on_c, 1, 79, 93
3, 136408, Note_on_c, 1, 67, 73
3, 136416, Note_off_c, 1, 79, 64
3, 136487, Note_on_c, 1, 66, 61
3, 136498, Note_off_c, 1, 67, 64
3, 136569, Note_on_c, 1, 67, 91
3, 136579, Note_off_c, 1, 66, 64
3, 136639, Note_off_c, 1, 67, 64
3, 136680, Control_c, 1, 11, 115
3, 137064, Control_c, 1, 11, 116
3, 137448, Control_c, 1, 11, 118
3, 137762, Note_on_c, 1, 82, 98
3, 137832, Control_c, 1, 11, 119
3, 137849, Note_on_c, 1, 70, 73
3, 137853, Note_off_c, 1, 82, 64
3, 137929, Note_on_c, 1, 69, 63
3, 137939, Note_off_c, 1, 70, 64
3, 138008, Note_on_c, 1, 70, 87
3, 138019, Note_off_c, 1, 69, 64
3, 138078, Note_off_c, 1, 70, 64
3, 138216, Control_c, 1, 11, 120
3, 138244, Note_on_c, 1, 79, 96
3, 138329, Note_on_c, 1, 67, 69
3, 138334, Note_off_c, 1, 79, 64
3, 138408, Note_on_c, 1, 66, 65
3, 138419, Note_off_c, 1, 67, 64
3, 138488, Note_on_c, 1, 67, 91
3, 138500, Note_off_c, 1, 66, 64
3, 138558, Note_off_c, 1, 67, 64
3, 138600, Control_c, 1, 11, 121
3, 138984, Control_c, 1, 11, 123
3, 139368, Control_c, 1, 11, 124
3, 139689, Note_on_c, 1, 82, 98
3, 139752, Control_c, 1, 11, 125
3, 139769, Note_on_c, 1, 70, 73
3, 139779, Note_off_c, 1, 82, 64
3, 139845, Note_on_c, 1, 69, 65
3, 139859, Note_off_c, 1, 70, 64
3, 139929, Note_on_c, 1, 70, 89
3, 139936, Note_off_c, 1, 69, 64
3, 140000, Note_off_c, 1, 70, 64
3, 140136, Control_c, 1, 11, 127
3, 140169, Note_on_c, 1, 79, 95
3, 140259, Note_off_c, 1, 79, 64
3, 143528, Note_on_c, 1, 63, 85
3, 143589, Note_on_c, 1, 66, 81
3, 143623, Note_off_c, 1, 63, 64
3, 143648, Note_on_c, 1, 67, 83
3, 143684, Note_off_c, 1, 66, 64
3, 143707, Note_on_c, 1, 69, 84
3, 143742, Note_off_c, 1, 67, 64
3, 143764, Note_on_c, 1, 70, 84
3, 143802, Note_off_c, 1, 69, 64
3, 143826, Note_on_c, 1, 74, 92
3, 143859, Note_off_c, 1, 70, 64
3, 143888, Note_on_c, 1, 75, 94
3, 143921, Note_off_c, 1, 74, 64
3, 143948, Note_on_c, 1, 78, 99
3, 143982, Note_off_c, 1, 75, 64
3, 143999, Note_on_c, 1, 79, 108
3, 144043, Note_off_c, 1, 78, 64
3, 144106, Note_off_c, 1, 79, 64
3, 144488, Note_on_c, 1, 79, 101
3, 144488, Note_on_c, 1, 67, 104
3, 144570, Note_off_c, 1, 79, 64
3, 144571, Note_off_c, 1, 67, 64
3, 144727, Note_on_c, 1, 67, 95
3, 144728, Note_on_c, 1, 79, 97
3, 144793, Note_off_c, 1, 67, 64
3, 144794, Note_off_c, 1, 79, 64
3, 144964, Note_on_c, 1, 79, 101
3, 144969, Note_on_c, 1, 67, 103
3, 145048, Note_off_c, 1, 79, 64
3, 145051, Note_off_c, 1, 67, 64
3, 145445, Note_on_c, 1, 67, 107
3, 145449, Note_on_c, 1, 79, 108
3, 145524, Note_off_c, 1, 67, 64
3, 145528, Note_off_c, 1, 79, 64
3, 145927, Note_on_c, 1, 79, 109
3, 145927, Note_on_c, 1, 67, 106
3, 146009, Note_off_c, 1, 79, 64
3, 146009, Note_off_c, 1, 67, 64
3, 146409, Note_on_c, 1, 79, 103
3, 146409, Note_on_c, 1, 67, 102
3, 146491, Note_off_c, 1, 79, 64
3, 146492, Note_off_c, 1, 67, 64
3, 146648, Note_on_c, 1, 79, 97
3, 146648, Note_on_c, 1, 67, 94
3, 146726, Note_off_c, 1, 67, 64
3, 146728, Note_off_c, 1, 79, 64
3, 146882, Note_on_c, 1, 79, 103
3, 146882, Note_on_c, 1, 67, 101
3, 146964, Note_off_c, 1, 79, 64
3, 146964, Note_off_c, 1, 67, 64
3, 147364, Note_on_c, 1, 79, 110
3, 147367, Note_on_c, 1, 67, 106
3, 147443, Note_off_c, 1, 79, 64
3, 147445, Note_off_c, 1, 67, 64
3, 147606, Note_on_c, 1, 67, 102
3, 147609, Note_on_c, 1, 79, 101
3, 147696, Note_off_c, 1, 67, 64
3, 147699, Note_off_c, 1, 79, 64
3, 147837, Note_on_c, 1, 67, 108
3, 147849, Note_on_c, 1, 79, 109
3, 147879, Note_off_c, 1, 67, 64
3, 147891, Note_off_c, 1, 79, 64
3, 147924, Note_on_c, 1, 79, 104
3, 147928, Note_on_c, 1, 67, 103
3, 147966, Note_off_c, 1, 79, 64
3, 147970, Note_off_c, 1, 67, 64
3, 148003, Note_on_c, 1, 67, 98
3, 148007, Note_on_c, 1, 79, 98
3, 148045, Note_off_c, 1, 67, 64
3, 148049, Note_off_c, 1, 79, 64
3, 148086, Note_on_c, 1, 79, 102
3, 148089, Note_on_c, 1, 67, 104
3, 148144, Note_off_c, 1, 79, 64
3, 148147, Note_off_c, 1, 67, 64
3, 149736, Control_c, 1, 11, 114
3, 149763, Note_on_c, 1, 74, 102
3, 149840, Note_on_c, 1, 65, 102
3, 149853, Note_off_c, 1, 74, 64
3, 149928, Control_c, 1, 11, 115
3, 149928, Note_on_c, 1, 67, 98
3, 149930, Note_off_c, 1, 65, 64
3, 150009, Note_on_c, 1, 68, 104
3, 150018, Note_off_c, 1, 67, 64
3, 150086, Note_on_c, 1, 70, 103
3, 150099, Note_off_c, 1, 68, 64
3, 150120, Control_c, 1, 11, 116
3, 150169, Note_on_c, 1, 72, 96
3, 150176, Note_off_c, 1, 70, 64
3, 150249, Note_on_c, 1, 74, 104
3, 150259, Note_off_c, 1, 72, 64
3, 150312, Control_c, 1, 11, 118
3, 150328, Note_on_c, 1, 75, 103
3, 150363, Note_off_c, 1, 74, 64
3, 150406, Note_on_c, 1, 77, 95
3, 150418, Note_off_c, 1, 75, 64
3, 150484, Note_on_c, 1, 79, 104
3, 150497, Note_off_c, 1, 77, 64
3, 150504, Control_c, 1, 11, 119
3, 150504, Control_c, 1, 11, 119
3, 150568, Note_on_c, 1, 80, 103
3, 150576, Note_off_c, 1, 79, 64
3, 150646, Note_on_c, 1, 82, 98
3, 150658, Note_off_c, 1, 80, 64
3, 150696, Control_c, 1, 11, 120
3, 150724, Note_on_c, 1, 84, 101
3, 150736, Note_off_c, 1, 82, 64
3, 150806, Note_on_c, 1, 72, 104
3, 150815, Note_off_c, 1, 84, 64
3, 150888, Control_c, 1, 11, 121
3, 150888, Note_on_c, 1, 74, 97
3, 150898, Note_off_c, 1, 72, 64
3, 150966, Note_on_c, 1, 75, 103
3, 150978, Note_off_c, 1, 74, 64
3, 151045, Note_on_c, 1, 77, 103
3, 151056, Note_off_c, 1, 75, 64
3, 151080, Control_c, 1, 11, 123
3, 151124, Note_on_c, 1, 79, 96
3, 151136, Note_off_c, 1, 77, 64
3, 151208, Note_on_c, 1, 68, 103
3, 151209, Note_on_c, 1, 80, 103
3, 151214, Note_off_c, 1, 79, 64
3, 151272, Control_c, 1, 11, 124
3, 151272, Control_c, 1, 11, 124
3, 151289, Note_on_c, 1, 70, 103
3, 151299, Note_off_c, 1, 68, 64
3, 151323, Note_off_c, 1, 80, 64
3, 151367, Note_on_c, 1, 72, 92
3, 151380, Note_off_c, 1, 70, 64
3, 151449, Note_on_c, 1, 74, 102
3, 151459, Note_off_c, 1, 72, 64
3, 151464, Control_c, 1, 11, 125
3, 151523, Note_on_c, 1, 75, 104
3, 151539, Note_off_c, 1, 74, 64
3, 151601, Note_on_c, 1, 77, 95
3, 151613, Note_off_c, 1, 75, 64
3, 151656, Control_c, 1, 11, 127
3, 151684, Note_on_c, 1, 79, 110
3, 151693, Note_off_c, 1, 77, 64
3, 151802, Note_off_c, 1, 79, 64
3, 152165, Note_on_c, 1, 67, 103
3, 152167, Note_on_c, 1, 79, 100
3, 152225, Note_off_c, 1, 79, 64
3, 152247, Note_off_c, 1, 67, 64
3, 152400, Note_on_c, 1, 67, 96
3, 152405, Note_on_c, 1, 79, 100
3, 152448, Note_off_c, 1, 79, 64
3, 152466, Note_off_c, 1, 67, 64
3, 152489, Note_on_c, 1, 79, 103
3, 152531, Note_off_c, 1, 79, 64
3, 152569, Note_on_c, 1, 79, 91
3, 152611, Note_off_c, 1, 79, 64
3, 152646, Note_on_c, 1, 75, 100
3, 152649, Note_on_c, 1, 70, 101
3, 152689, Note_off_c, 1, 75, 64
3, 152727, Note_on_c, 1, 75, 104
3, 152731, Note_off_c, 1, 70, 64
3, 152771, Note_off_c, 1, 75, 64
3, 152806, Note_on_c, 1, 75, 92
3, 152848, Note_off_c, 1, 75, 64
3, 152886, Note_on_c, 1, 67, 98
3, 152888, Note_on_c, 1, 79, 103
3, 152947, Note_off_c, 1, 79, 64
3, 152952, Note_off_c, 1, 67, 64
3, 153364, Note_on_c, 1, 69, 103
3, 153369, Note_on_c, 1, 75, 102
3, 153407, Note_off_c, 1, 69, 64
3, 153413, Note_off_c, 1, 75, 64
3, 153448, Note_on_c, 1, 75, 103
3, 153449, Note_on_c, 1, 69, 103
3, 153490, Note_off_c, 1, 75, 64
3, 153491, Note_off_c, 1, 69, 64
3, 153526, Note_on_c, 1, 69, 98
3, 153529, Note_on_c, 1, 75, 96
3, 153570, Note_off_c, 1, 69, 64
3, 153571, Note_off_c, 1, 75, 64
3, 153606, Note_on_c, 1, 69, 102
3, 153607, Note_on_c, 1, 75, 99
3, 153649, Note_off_c, 1, 75, 64
3, 153650, Note_off_c, 1, 69, 64
3, 153684, Note_on_c, 1, 69, 103
3, 153689, Note_on_c, 1, 75, 102
3, 153727, Note_off_c, 1, 69, 64
3, 153731, Note_off_c, 1, 75, 64
3, 153767, Note_on_c, 1, 75, 96
3, 153769, Note_on_c, 1, 69, 98
3, 153809, Note_off_c, 1, 75, 64
3, 153812, Note_off_c, 1, 69, 64
3, 153847, Note_on_c, 1, 79, 100
3, 153848, Note_on_c, 1, 67, 100
3, 153905, Note_off_c, 1, 79, 64
3, 153907, Note_off_c, 1, 67, 64
3, 154320, Note_on_c, 1, 75, 103
3, 154325, Note_on_c, 1, 69, 102
3, 154362, Note_off_c, 1, 75, 64
3, 154367, Note_off_c, 1, 69, 64
3, 154403, Note_on_c, 1, 75, 103
3, 154408, Note_on_c, 1, 69, 98
3, 154445, Note_off_c, 1, 75, 64
3, 154450, Note_off_c, 1, 69, 64
3, 154486, Note_on_c, 1, 75, 95
3, 154489, Note_on_c, 1, 69, 96
3, 154529, Note_off_c, 1, 75, 64
3, 154531, Note_off_c, 1, 69, 64
3, 154569, Note_on_c, 1, 67, 102
3, 154569, Note_on_c, 1, 79, 99
3, 154628, Note_off_c, 1, 67, 64
3, 154628, Note_off_c, 1, 79, 64
3, 154804, Note_on_c, 1, 67, 109
3, 154846, Note_off_c, 1, 67, 64
3, 154887, Note_on_c, 1, 67, 110
3, 154930, Note_off_c, 1, 67, 64
3, 154966, Note_on_c, 1, 67, 102
3, 155008, Note_off_c, 1, 67, 64
3, 155049, Note_on_c, 1, 67, 116
3, 155108, Note_off_c, 1, 67, 64
3, 159360, Control_c, 1, 123, 0
3, 159360, End_track
4, 0, Start_track
4, 0, Text_t, "Clarinets"
4, 0, Program_c, 2, 71
4, 0, Control_c, 2, 10, 54
4, 0, Control_c, 2, 91, 127
4, 0, Control_c, 2, 93, 5
4, 0, Control_c, 2, 11, 127
4, 0, Control_c, 2, 7, 69
4, 0, Control_c, 2, 123, 0
4, 21129, Note_on_c, 2, 79, 109
4, 21207, Note_on_c, 2, 79, 83
4, 21220, Note_off_c, 2, 79, 64
4, 21286, Note_on_c, 2, 78, 83
4, 21298, Note_off_c, 2, 79, 64
4, 21365, Note_on_c, 2, 79, 98
4, 21378, Note_off_c, 2, 78, 64
4, 21435, Note_off_c, 2, 79, 64
4, 23046, Note_on_c, 2, 76, 106
4, 23128, Note_on_c, 2, 76, 81
4, 23137, Note_off_c, 2, 76, 64
4, 23206, Note_on_c, 2, 75, 85
4, 23220, Note_off_c, 2, 76, 64
4, 23287, Note_on_c, 2, 76, 97
4, 23296, Note_off_c, 2, 75, 64
4, 23359, Note_off_c, 2, 76, 64
4, 24969, Note_on_c, 2, 82, 107
4, 25047, Note_on_c, 2, 70, 85
4, 25059, Note_off_c, 2, 82, 64
4, 25129, Note_on_c, 2, 69, 85
4, 25138, Note_off_c, 2, 70, 64
4, 25206, Note_on_c, 2, 70, 92
4, 25219, Note_off_c, 2, 69, 64
4, 25276, Note_off_c, 2, 70, 64
4, 26887, Note_on_c, 2, 82, 109
4, 26968, Note_on_c, 2, 70, 84
4, 26977, Note_off_c, 2, 82, 64
4, 27046, Note_on_c, 2, 69, 84
4, 27058, Note_off_c, 2, 70, 64
4, 27126, Note_on_c, 2, 70, 96
4, 27136, Note_off_c, 2, 69, 64
4, 27197, Note_off_c, 2, 70, 64
4, 27848, Note_on_c, 2, 79, 106
4, 27923, Note_on_c, 2, 67, 84
4, 27939, Note_off_c, 2, 79, 64
4, 28007, Note_on_c, 2, 66, 82
4, 28014, Note_off_c, 2, 67, 64
4, 28088, Note_on_c, 2, 67, 97
4, 28097, Note_off_c, 2, 66, 64
4, 28159, Note_off_c, 2, 67, 64
4, 28324, Note_on_c, 2, 86, 107
4, 28409, Note_on_c, 2, 74, 83
4, 28414, Note_off_c, 2, 86, 64
4, 28486, Note_on_c, 2, 73, 84
4, 28500, Note_off_c, 2, 74, 64
4, 28568, Note_on_c, 2, 74, 95
4, 28577, Note_off_c, 2, 73, 64
4, 28638, Note_off_c, 2, 74, 64
4, 28808, Note_on_c, 2, 79, 106
4, 28888, Note_on_c, 2, 79, 84
4, 28898, Note_off_c, 2, 79, 64
4, 28966, Note_on_c, 2, 78, 83
4, 28980, Note_off_c, 2, 79, 64
4, 29046, Note_on_c, 2, 79, 98
4, 29056, Note_off_c, 2, 78, 64
4, 29116, Note_off_c, 2, 79, 64
4, 59496, Control_c, 2, 11, 109
4, 62616, Control_c, 2, 11, 109
4, 62643, Note_on_c, 2, 60, 65
4, 62649, Note_on_c, 2, 64, 65
4, 62697, Note_off_c, 2, 60, 64
4, 62703, Note_off_c, 2, 64, 64
4, 62736, Control_c, 2, 11, 110
4, 62856, Control_c, 2, 11, 111
4, 62886, Note_on_c, 2, 62, 66
4, 62889, Note_on_c, 2, 65, 69
4, 62952, Note_off_c, 2, 62, 64
4, 62955, Note_off_c, 2, 65, 64
4, 62976, Control_c, 2, 11, 113
4, 63096, Control_c, 2, 11, 115
4, 63119, Note_on_c, 2, 59, 64
4, 63126, Note_on_c, 2, 62, 66
4, 63173, Note_off_c, 2, 59, 64
4, 63180, Note_off_c, 2, 62, 64
4, 63216, Control_c, 2, 11, 116
4, 63336, Control_c, 2, 11, 118
4, 63384, Control_c, 2, 11, 119
4, 63607, Note_on_c, 2, 65, 64
4, 63608, Note_on_c, 2, 69, 64
4, 63661, Note_off_c, 2, 65, 64
4, 63662, Note_off_c, 2, 69, 64
4, 63847, Note_on_c, 2, 62, 69
4, 63849, Note_on_c, 2, 71, 69
4, 63914, Note_off_c, 2, 62, 64
4, 63915, Note_off_c, 2, 71, 64
4, 64085, Note_on_c, 2, 68, 62
4, 64087, Note_on_c, 2, 59, 66
4, 64140, Note_off_c, 2, 68, 64
4, 64144, Note_off_c, 2, 59, 64
4, 64561, Note_on_c, 2, 72, 66
4, 64566, Note_on_c, 2, 81, 66
4, 64616, Note_off_c, 2, 72, 64
4, 64621, Note_off_c, 2, 81, 64
4, 64808, Note_on_c, 2, 71, 66
4, 64808, Note_on_c, 2, 80, 69
4, 64874, Note_off_c, 2, 80, 64
4, 64875, Note_off_c, 2, 71, 64
4, 65044, Note_on_c, 2, 69, 66
4, 65049, Note_on_c, 2, 77, 65
4, 65098, Note_off_c, 2, 69, 64
4, 65103, Note_off_c, 2, 77, 64
4, 65280, Note_on_c, 2, 65, 69
4, 65289, Note_on_c, 2, 74, 68
4, 65346, Note_off_c, 2, 65, 64
4, 65356, Note_off_c, 2, 74, 64
4, 65496, Control_c, 2, 11, 119
4, 65527, Note_on_c, 2, 71, 65
4, 65528, Note_on_c, 2, 62, 66
4, 65582, Note_off_c, 2, 71, 64
4, 65582, Note_off_c, 2, 62, 64
4, 65616, Control_c, 2, 11, 118
4, 65736, Control_c, 2, 11, 116
4, 65768, Note_on_c, 2, 68, 67
4, 65769, Note_on_c, 2, 60, 69
4, 65834, Note_off_c, 2, 68, 64
4, 65835, Note_off_c, 2, 60, 64
4, 65856, Control_c, 2, 11, 115
4, 65976, Control_c, 2, 11, 113
4, 66008, Note_on_c, 2, 56, 66
4, 66009, Note_on_c, 2, 65, 66
4, 66062, Note_off_c, 2, 56, 64
4, 66063, Note_off_c, 2, 65, 64
4, 66096, Control_c, 2, 11, 111
4, 66216, Control_c, 2, 11, 110
4, 66240, Control_c, 2, 11, 109
4, 69336, Control_c, 2, 11, 109
4, 69366, Note_on_c, 2, 72, 61
4, 69369, Note_on_c, 2, 76, 66
4, 69422, Note_off_c, 2, 72, 64
4, 69424, Note_off_c, 2, 76, 64
4, 69456, Control_c, 2, 11, 110
4, 69576, Control_c, 2, 11, 111
4, 69604, Note_on_c, 2, 68, 66
4, 69609, Note_on_c, 2, 77, 68
4, 69670, Note_off_c, 2, 68, 64
4, 69675, Note_off_c, 2, 77, 64
4, 69696, Control_c, 2, 11, 113
4, 69816, Control_c, 2, 11, 115
4, 69842, Note_on_c, 2, 74, 66
4, 69849, Note_on_c, 2, 71, 65
4, 69896, Note_off_c, 2, 74, 64
4, 69903, Note_off_c, 2, 71, 64
4, 69936, Control_c, 2, 11, 116
4, 70056, Control_c, 2, 11, 118
4, 70080, Control_c, 2, 11, 119
4, 70325, Note_on_c, 2, 72, 66
4, 70329, Note_on_c, 2, 64, 65
4, 70380, Note_off_c, 2, 72, 64
4, 70383, Note_off_c, 2, 64, 64
4, 70566, Note_on_c, 2, 60, 67
4, 70568, Note_on_c, 2, 71, 69
4, 70632, Note_off_c, 2, 60, 64
4, 70634, Note_off_c, 2, 71, 64
4, 70804, Note_on_c, 2, 68, 64
4, 70805, Note_on_c, 2, 63, 63
4, 70858, Note_off_c, 2, 68, 64
4, 70860, Note_off_c, 2, 63, 64
4, 71287, Note_on_c, 2, 81, 65
4, 71289, Note_on_c, 2, 72, 64
4, 71343, Note_off_c, 2, 81, 64
4, 71343, Note_off_c, 2, 72, 64
4, 71521, Note_on_c, 2, 80, 68
4, 71526, Note_on_c, 2, 71, 66
4, 71588, Note_off_c, 2, 80, 64
4, 71593, Note_off_c, 2, 71, 64
4, 71762, Note_on_c, 2, 68, 64
4, 71769, Note_on_c, 2, 71, 66
4, 71816, Note_off_c, 2, 68, 64
4, 71823, Note_off_c, 2, 71, 64
4, 72007, Note_on_c, 2, 77, 69
4, 72009, Note_on_c, 2, 72, 69
4, 72074, Note_off_c, 2, 77, 64
4, 72076, Note_off_c, 2, 72, 64
4, 72240, Control_c, 2, 11, 119
4, 72248, Note_on_c, 2, 76, 63
4, 72249, Note_on_c, 2, 71, 62
4, 72302, Note_off_c, 2, 76, 64
4, 72304, Note_off_c, 2, 71, 64
4, 72360, Control_c, 2, 11, 118
4, 72480, Control_c, 2, 11, 116
4, 72487, Note_on_c, 2, 72, 65
4, 72487, Note_on_c, 2, 64, 67
4, 72553, Note_off_c, 2, 72, 64
4, 72555, Note_off_c, 2, 64, 64
4, 72600, Control_c, 2, 11, 114
4, 72720, Control_c, 2, 11, 113
4, 72722, Note_on_c, 2, 60, 60
4, 72728, Note_on_c, 2, 69, 65
4, 72777, Note_off_c, 2, 60, 64
4, 72782, Note_off_c, 2, 69, 64
4, 72840, Control_c, 2, 11, 111
4, 72960, Control_c, 2, 11, 109
4, 76776, Control_c, 2, 11, 127
4, 82808, Note_on_c, 2, 85, 66
4, 82809, Note_on_c, 2, 82, 65
4, 82863, Note_off_c, 2, 85, 64
4, 82863, Note_off_c, 2, 82, 64
4, 83042, Note_on_c, 2, 87, 68
4, 83049, Note_on_c, 2, 81, 67
4, 83108, Note_off_c, 2, 87, 64
4, 83117, Note_off_c, 2, 81, 64
4, 83286, Note_on_c, 2, 78, 66
4, 83287, Note_on_c, 2, 84, 63
4, 83341, Note_off_c, 2, 78, 64
4, 83341, Note_off_c, 2, 84, 64
4, 83765, Note_on_c, 2, 82, 62
4, 83767, Note_on_c, 2, 73, 62
4, 83820, Note_off_c, 2, 82, 64
4, 83823, Note_off_c, 2, 73, 64
4, 84004, Note_on_c, 2, 84, 68
4, 84009, Note_on_c, 2, 75, 69
4, 84071, Note_off_c, 2, 84, 64
4, 84075, Note_off_c, 2, 75, 64
4, 84245, Note_on_c, 2, 81, 66
4, 84248, Note_on_c, 2, 72, 66
4, 84299, Note_off_c, 2, 81, 64
4, 84303, Note_off_c, 2, 72, 64
4, 84718, Note_on_c, 2, 77, 64
4, 84726, Note_on_c, 2, 73, 65
4, 84772, Note_off_c, 2, 77, 64
4, 84780, Note_off_c, 2, 73, 64
4, 84964, Note_on_c, 2, 72, 69
4, 84968, Note_on_c, 2, 78, 63
4, 85030, Note_off_c, 2, 72, 64
4, 85034, Note_off_c, 2, 78, 64
4, 85206, Note_on_c, 2, 75, 65
4, 85209, Note_on_c, 2, 69, 65
4, 85260, Note_off_c, 2, 75, 64
4, 85264, Note_off_c, 2, 69, 64
4, 85445, Note_on_c, 2, 73, 66
4, 85447, Note_on_c, 2, 65, 60
4, 85773, Note_off_c, 2, 73, 64
4, 85776, Note_off_c, 2, 65, 64
4, 85803, Note_on_c, 2, 70, 56
4, 85806, Note_on_c, 2, 77, 62
4, 85867, Note_off_c, 2, 70, 64
4, 85869, Note_on_c, 2, 74, 67
4, 85869, Note_on_c, 2, 82, 72
4, 85870, Note_off_c, 2, 77, 64
4, 85920, Note_on_c, 2, 77, 78
4, 85928, Note_on_c, 2, 85, 81
4, 85933, Note_off_c, 2, 82, 64
4, 85933, Note_off_c, 2, 74, 64
4, 85978, Note_off_c, 2, 77, 64
4, 85986, Note_off_c, 2, 85, 64
4, 90239, Note_on_c, 2, 60, 85
4, 90246, Note_on_c, 2, 72, 83
4, 90331, Note_off_c, 2, 60, 64
4, 90338, Note_off_c, 2, 72, 64
4, 91686, Note_on_c, 2, 68, 81
4, 91687, Note_on_c, 2, 80, 84
4, 91776, Note_off_c, 2, 68, 64
4, 91778, Note_off_c, 2, 80, 64
4, 92167, Note_on_c, 2, 60, 84
4, 92167, Note_on_c, 2, 72, 85
4, 92257, Note_off_c, 2, 60, 64
4, 92257, Note_off_c, 2, 72, 64
4, 93606, Note_on_c, 2, 80, 85
4, 93608, Note_on_c, 2, 68, 85
4, 93697, Note_off_c, 2, 80, 64
4, 93698, Note_off_c, 2, 68, 64
4, 94084, Note_on_c, 2, 67, 83
4, 94087, Note_on_c, 2, 79, 85
4, 94174, Note_off_c, 2, 67, 64
4, 94177, Note_off_c, 2, 79, 64
4, 101764, Note_on_c, 2, 79, 80
4, 101854, Note_off_c, 2, 79, 64
4, 102002, Note_on_c, 2, 67, 77
4, 102092, Note_off_c, 2, 67, 64
4, 103209, Note_on_c, 2, 74, 83
4, 103299, Note_off_c, 2, 74, 64
4, 103441, Note_on_c, 2, 62, 77
4, 103532, Note_off_c, 2, 62, 64
4, 103688, Note_on_c, 2, 80, 79
4, 103779, Note_off_c, 2, 80, 64
4, 103928, Note_on_c, 2, 68, 76
4, 104019, Note_off_c, 2, 68, 64
4, 105126, Note_on_c, 2, 80, 78
4, 105217, Note_off_c, 2, 80, 64
4, 105369, Note_on_c, 2, 68, 79
4, 105459, Note_off_c, 2, 68, 64
4, 105603, Note_on_c, 2, 78, 78
4, 105694, Note_off_c, 2, 78, 64
4, 105848, Note_on_c, 2, 66, 77
4, 105938, Note_off_c, 2, 66, 64
4, 107047, Note_on_c, 2, 78, 79
4, 107139, Note_off_c, 2, 78, 64
4, 107284, Note_on_c, 2, 66, 76
4, 107374, Note_off_c, 2, 66, 64
4, 107529, Note_on_c, 2, 79, 77
4, 107621, Note_off_c, 2, 79, 64
4, 107765, Note_on_c, 2, 67, 74
4, 107855, Note_off_c, 2, 67, 64
4, 108723, Note_on_c, 2, 55, 63
4, 108786, Note_on_c, 2, 57, 66
4, 108806, Note_off_c, 2, 55, 64
4, 108846, Note_on_c, 2, 58, 68
4, 108869, Note_off_c, 2, 57, 64
4, 108909, Note_on_c, 2, 60, 69
4, 108930, Note_off_c, 2, 58, 64
4, 108965, Note_on_c, 2, 62, 70
4, 108993, Note_off_c, 2, 60, 64
4, 109012, Note_on_c, 2, 63, 70
4, 109025, Note_off_c, 2, 62, 64
4, 109054, Note_on_c, 2, 66, 71
4, 109072, Note_off_c, 2, 63, 64
4, 109102, Note_on_c, 2, 67, 69
4, 109114, Note_off_c, 2, 66, 64
4, 109149, Note_on_c, 2, 69, 72
4, 109162, Note_off_c, 2, 67, 64
4, 109193, Note_on_c, 2, 70, 73
4, 109209, Note_off_c, 2, 69, 64
4, 109238, Note_on_c, 2, 72, 73
4, 109253, Note_off_c, 2, 70, 64
4, 109283, Note_on_c, 2, 74, 79
4, 109298, Note_off_c, 2, 72, 64
4, 109328, Note_on_c, 2, 75, 76
4, 109344, Note_off_c, 2, 74, 64
4, 109364, Note_on_c, 2, 78, 82
4, 109389, Note_off_c, 2, 75, 64
4, 109425, Note_off_c, 2, 78, 64
4, 109449, Note_on_c, 2, 79, 92
4, 109539, Note_off_c, 2, 79, 64
4, 109929, Note_on_c, 2, 67, 91
4, 110215, Note_off_c, 2, 67, 64
4, 110288, Note_on_c, 2, 67, 91
4, 110346, Note_off_c, 2, 67, 64
4, 110408, Note_on_c, 2, 79, 91
4, 110839, Note_off_c, 2, 79, 64
4, 110887, Note_on_c, 2, 78, 92
4, 111173, Note_off_c, 2, 78, 64
4, 111241, Note_on_c, 2, 77, 92
4, 111299, Note_off_c, 2, 77, 64
4, 111365, Note_on_c, 2, 76, 97
4, 111424, Note_off_c, 2, 76, 64
4, 111486, Note_on_c, 2, 75, 92
4, 111532, Note_off_c, 2, 75, 64
4, 111608, Note_on_c, 2, 76, 92
4, 111690, Note_off_c, 2, 76, 64
4, 112088, Note_on_c, 2, 68, 90
4, 112158, Note_off_c, 2, 68, 64
4, 112329, Note_on_c, 2, 73, 92
4, 112759, Note_off_c, 2, 73, 64
4, 112803, Note_on_c, 2, 72, 89
4, 113090, Note_off_c, 2, 72, 64
4, 113166, Note_on_c, 2, 71, 92
4, 113225, Note_off_c, 2, 71, 64
4, 113288, Note_on_c, 2, 70, 95
4, 113346, Note_off_c, 2, 70, 64
4, 113406, Note_on_c, 2, 69, 91
4, 113453, Note_off_c, 2, 69, 64
4, 113529, Note_on_c, 2, 70, 90
4, 113612, Note_off_c, 2, 70, 64
4, 114002, Note_on_c, 2, 63, 89
4, 114073, Note_off_c, 2, 63, 64
4, 114247, Note_on_c, 2, 66, 91
4, 114653, Note_off_c, 2, 66, 64
4, 114729, Note_on_c, 2, 63, 97
4, 115015, Note_off_c, 2, 63, 64
4, 115088, Note_on_c, 2, 70, 87
4, 115146, Note_off_c, 2, 70, 64
4, 115209, Note_on_c, 2, 67, 89
4, 115328, Note_off_c, 2, 67, 64
4, 115687, Note_on_c, 2, 63, 70
4, 115744, Note_on_c, 2, 65, 69
4, 115757, Note_off_c, 2, 63, 64
4, 115809, Note_on_c, 2, 66, 74
4, 115815, Note_off_c, 2, 65, 64
4, 115862, Note_on_c, 2, 68, 74
4, 115879, Note_off_c, 2, 66, 64
4, 115928, Note_on_c, 2, 70, 73
4, 115934, Note_off_c, 2, 68, 64
4, 115988, Note_on_c, 2, 72, 79
4, 115998, Note_off_c, 2, 70, 64
4, 116048, Note_on_c, 2, 74, 83
4, 116059, Note_off_c, 2, 72, 64
4, 116087, Note_on_c, 2, 75, 86
4, 116118, Note_off_c, 2, 74, 64
4, 116128, Note_on_c, 2, 77, 89
4, 116137, Note_off_c, 2, 75, 64
4, 116169, Note_on_c, 2, 79, 97
4, 116178, Note_off_c, 2, 77, 64
4, 116239, Note_off_c, 2, 79, 64
4, 116403, Note_on_c, 2, 67, 95
4, 116473, Note_off_c, 2, 67, 64
4, 116647, Note_on_c, 2, 79, 98
4, 116690, Note_off_c, 2, 79, 64
4, 116726, Note_on_c, 2, 79, 91
4, 116768, Note_off_c, 2, 79, 64
4, 116807, Note_on_c, 2, 79, 85
4, 116849, Note_off_c, 2, 79, 64
4, 116889, Note_on_c, 2, 79, 92
4, 116947, Note_off_c, 2, 79, 64
4, 117576, Control_c, 2, 11, 109
4, 117606, Note_on_c, 2, 74, 104
4, 117607, Note_on_c, 2, 70, 96
4, 117648, Note_off_c, 2, 74, 64
4, 117649, Note_off_c, 2, 70, 64
4, 117681, Note_on_c, 2, 74, 101
4, 117689, Note_on_c, 2, 70, 98
4, 117724, Note_off_c, 2, 74, 64
4, 117731, Note_off_c, 2, 70, 64
4, 117765, Note_on_c, 2, 74, 96
4, 117769, Note_on_c, 2, 70, 88
4, 117808, Note_off_c, 2, 74, 64
4, 117812, Note_off_c, 2, 70, 64
4, 117848, Note_on_c, 2, 74, 104
4, 117849, Note_on_c, 2, 70, 95
4, 117931, Note_off_c, 2, 74, 64
4, 117931, Note_off_c, 2, 70, 64
4, 118322, Note_on_c, 2, 70, 98
4, 118323, Note_on_c, 2, 74, 104
4, 118405, Note_off_c, 2, 70, 64
4, 118405, Note_off_c, 2, 74, 64
4, 118800, Note_on_c, 2, 70, 94
4, 118804, Note_on_c, 2, 75, 104
4, 118882, Note_off_c, 2, 70, 64
4, 118886, Note_off_c, 2, 75, 64
4, 119280, Note_on_c, 2, 74, 103
4, 119286, Note_on_c, 2, 70, 98
4, 119364, Note_off_c, 2, 74, 64
4, 119368, Note_off_c, 2, 70, 64
4, 119768, Note_on_c, 2, 75, 103
4, 119769, Note_on_c, 2, 70, 96
4, 119850, Note_off_c, 2, 75, 64
4, 119851, Note_off_c, 2, 70, 64
4, 120249, Note_on_c, 2, 74, 104
4, 120249, Note_on_c, 2, 70, 96
4, 120291, Note_off_c, 2, 74, 64
4, 120292, Note_off_c, 2, 70, 64
4, 120325, Note_on_c, 2, 70, 94
4, 120328, Note_on_c, 2, 74, 104
4, 120368, Note_off_c, 2, 70, 64
4, 120370, Note_off_c, 2, 74, 64
4, 120407, Note_on_c, 2, 74, 96
4, 120407, Note_on_c, 2, 70, 91
4, 120449, Note_off_c, 2, 74, 64
4, 120449, Note_off_c, 2, 70, 64
4, 120488, Note_on_c, 2, 74, 108
4, 120489, Note_on_c, 2, 70, 103
4, 120531, Note_off_c, 2, 74, 64
4, 120532, Note_off_c, 2, 70, 64
4, 120568, Note_on_c, 2, 74, 103
4, 120568, Note_on_c, 2, 70, 96
4, 120610, Note_off_c, 2, 74, 64
4, 120611, Note_off_c, 2, 70, 64
4, 120646, Note_on_c, 2, 70, 92
4, 120647, Note_on_c, 2, 74, 98
4, 120689, Note_off_c, 2, 70, 64
4, 120689, Note_off_c, 2, 74, 64
4, 120727, Note_on_c, 2, 70, 97
4, 120728, Note_on_c, 2, 74, 104
4, 120785, Note_off_c, 2, 70, 64
4, 120786, Note_off_c, 2, 74, 64
4, 121209, Note_on_c, 2, 74, 102
4, 121209, Note_on_c, 2, 70, 97
4, 121291, Note_off_c, 2, 74, 64
4, 121291, Note_off_c, 2, 70, 64
4, 121688, Note_on_c, 2, 70, 94
4, 121689, Note_on_c, 2, 74, 103
4, 121731, Note_off_c, 2, 74, 64
4, 121733, Note_off_c, 2, 70, 64
4, 121766, Note_on_c, 2, 70, 92
4, 121768, Note_on_c, 2, 74, 98
4, 121809, Note_off_c, 2, 70, 64
4, 121811, Note_off_c, 2, 74, 64
4, 121847, Note_on_c, 2, 70, 92
4, 121848, Note_on_c, 2, 74, 98
4, 121890, Note_off_c, 2, 70, 64
4, 121893, Note_off_c, 2, 74, 64
4, 122165, Note_on_c, 2, 70, 98
4, 122169, Note_on_c, 2, 74, 104
4, 122250, Note_off_c, 2, 70, 64
4, 122252, Note_off_c, 2, 74, 64
4, 122647, Note_on_c, 2, 75, 104
4, 122648, Note_on_c, 2, 70, 98
4, 122730, Note_off_c, 2, 75, 64
4, 122730, Note_off_c, 2, 70, 64
4, 123127, Note_on_c, 2, 66, 95
4, 123129, Note_on_c, 2, 70, 103
4, 123209, Note_off_c, 2, 66, 64
4, 123211, Note_off_c, 2, 70, 64
4, 123604, Note_on_c, 2, 58, 98
4, 123605, Note_on_c, 2, 63, 98
4, 123687, Note_off_c, 2, 58, 64
4, 123688, Note_off_c, 2, 63, 64
4, 124088, Note_on_c, 2, 74, 100
4, 124089, Note_on_c, 2, 70, 98
4, 124130, Note_off_c, 2, 74, 64
4, 124131, Note_off_c, 2, 70, 64
4, 124163, Note_on_c, 2, 70, 94
4, 124167, Note_on_c, 2, 74, 103
4, 124207, Note_off_c, 2, 70, 64
4, 124210, Note_off_c, 2, 74, 64
4, 124245, Note_on_c, 2, 74, 96
4, 124248, Note_on_c, 2, 70, 91
4, 124287, Note_off_c, 2, 74, 64
4, 124291, Note_off_c, 2, 70, 64
4, 124320, Control_c, 2, 11, 109
4, 124329, Note_on_c, 2, 74, 105
4, 124329, Note_on_c, 2, 70, 104
4, 124396, Note_off_c, 2, 74, 64
4, 124396, Note_off_c, 2, 70, 64
4, 124440, Control_c, 2, 11, 113
4, 124536, Control_c, 2, 11, 116
4, 124566, Note_on_c, 2, 70, 96
4, 124567, Note_on_c, 2, 74, 102
4, 124584, Control_c, 2, 11, 119
4, 124649, Note_off_c, 2, 70, 64
4, 124650, Note_off_c, 2, 74, 64
4, 124680, Control_c, 2, 11, 123
4, 124776, Control_c, 2, 11, 127
4, 124806, Note_on_c, 2, 79, 106
4, 125237, Note_off_c, 2, 79, 64
4, 125288, Note_on_c, 2, 67, 103
4, 125574, Note_off_c, 2, 67, 64
4, 125647, Note_on_c, 2, 67, 103
4, 125706, Note_off_c, 2, 67, 64
4, 125769, Note_on_c, 2, 79, 104
4, 126199, Note_off_c, 2, 79, 64
4, 126248, Note_on_c, 2, 78, 102
4, 126534, Note_off_c, 2, 78, 64
4, 126600, Note_on_c, 2, 77, 104
4, 126658, Note_off_c, 2, 77, 64
4, 126728, Note_on_c, 2, 76, 109
4, 126786, Note_off_c, 2, 76, 64
4, 126848, Note_on_c, 2, 75, 101
4, 126894, Note_off_c, 2, 75, 64
4, 126969, Note_on_c, 2, 76, 101
4, 127052, Note_off_c, 2, 76, 64
4, 127446, Note_on_c, 2, 68, 104
4, 127516, Note_off_c, 2, 68, 64
4, 127686, Note_on_c, 2, 73, 100
4, 128116, Note_off_c, 2, 73, 64
4, 128169, Note_on_c, 2, 72, 101
4, 128455, Note_off_c, 2, 72, 64
4, 128523, Note_on_c, 2, 71, 104
4, 128583, Note_off_c, 2, 71, 64
4, 128645, Note_on_c, 2, 70, 110
4, 128703, Note_off_c, 2, 70, 64
4, 128766, Note_on_c, 2, 69, 104
4, 128812, Note_off_c, 2, 69, 64
4, 128887, Note_on_c, 2, 70, 104
4, 128970, Note_off_c, 2, 70, 64
4, 129368, Note_on_c, 2, 63, 101
4, 129438, Note_off_c, 2, 63, 64
4, 129605, Note_on_c, 2, 66, 104
4, 130012, Note_off_c, 2, 66, 64
4, 130085, Note_on_c, 2, 63, 103
4, 130371, Note_off_c, 2, 63, 64
4, 130444, Note_on_c, 2, 70, 103
4, 130502, Note_off_c, 2, 70, 64
4, 130568, Note_on_c, 2, 67, 103
4, 130687, Note_off_c, 2, 67, 64
4, 131047, Note_on_c, 2, 63, 74
4, 131100, Note_on_c, 2, 65, 79
4, 131118, Note_off_c, 2, 63, 64
4, 131169, Note_on_c, 2, 66, 80
4, 131170, Note_off_c, 2, 65, 64
4, 131226, Note_on_c, 2, 68, 79
4, 131240, Note_off_c, 2, 66, 64
4, 131287, Note_on_c, 2, 70, 83
4, 131297, Note_off_c, 2, 68, 64
4, 131349, Note_on_c, 2, 72, 85
4, 131358, Note_off_c, 2, 70, 64
4, 131408, Note_on_c, 2, 74, 85
4, 131420, Note_off_c, 2, 72, 64
4, 131448, Note_on_c, 2, 75, 92
4, 131480, Note_off_c, 2, 74, 64
4, 131483, Note_on_c, 2, 77, 101
4, 131499, Note_off_c, 2, 75, 64
4, 131529, Note_on_c, 2, 79, 110
4, 131533, Note_off_c, 2, 77, 64
4, 131599, Note_off_c, 2, 79, 64
4, 131769, Note_on_c, 2, 67, 103
4, 131840, Note_off_c, 2, 67, 64
4, 132003, Note_on_c, 2, 67, 110
4, 132045, Note_off_c, 2, 67, 64
4, 132086, Note_on_c, 2, 67, 102
4, 132128, Note_off_c, 2, 67, 64
4, 132168, Note_on_c, 2, 67, 98
4, 132210, Note_off_c, 2, 67, 64
4, 132247, Note_on_c, 2, 67, 102
4, 132306, Note_off_c, 2, 67, 64
4, 136296, Control_c, 2, 11, 114
4, 136326, Note_on_c, 2, 79, 98
4, 136417, Note_off_c, 2, 79, 64
4, 136569, Note_on_c, 2, 67, 88
4, 136640, Note_off_c, 2, 67, 64
4, 136680, Control_c, 2, 11, 115
4, 137064, Control_c, 2, 11, 116
4, 137448, Control_c, 2, 11, 118
4, 137766, Note_on_c, 2, 82, 93
4, 137832, Control_c, 2, 11, 119
4, 137856, Note_off_c, 2, 82, 64
4, 138009, Note_on_c, 2, 70, 90
4, 138079, Note_off_c, 2, 70, 64
4, 138216, Control_c, 2, 11, 120
4, 138247, Note_on_c, 2, 79, 97
4, 138337, Note_off_c, 2, 79, 64
4, 138487, Note_on_c, 2, 67, 92
4, 138557, Note_off_c, 2, 67, 64
4, 138600, Control_c, 2, 11, 121
4, 138984, Control_c, 2, 11, 123
4, 139368, Control_c, 2, 11, 124
4, 139688, Note_on_c, 2, 82, 98
4, 139752, Control_c, 2, 11, 125
4, 139778, Note_off_c, 2, 82, 64
4, 139928, Note_on_c, 2, 70, 91
4, 139998, Note_off_c, 2, 70, 64
4, 140136, Control_c, 2, 11, 127
4, 140168, Note_on_c, 2, 79, 98
4, 140258, Note_off_c, 2, 79, 64
4, 143524, Note_on_c, 2, 63, 82
4, 143584, Note_on_c, 2, 66, 84
4, 143620, Note_off_c, 2, 63, 64
4, 143647, Note_on_c, 2, 67, 84
4, 143678, Note_off_c, 2, 66, 64
4, 143707, Note_on_c, 2, 69, 86
4, 143742, Note_off_c, 2, 67, 64
4, 143769, Note_on_c, 2, 70, 83
4, 143802, Note_off_c, 2, 69, 64
4, 143829, Note_on_c, 2, 74, 92
4, 143863, Note_off_c, 2, 70, 64
4, 143889, Note_on_c, 2, 75, 93
4, 143923, Note_off_c, 2, 74, 64
4, 143945, Note_on_c, 2, 78, 99
4, 143983, Note_off_c, 2, 75, 64
4, 144005, Note_on_c, 2, 79, 104
4, 144040, Note_off_c, 2, 78, 64
4, 144111, Note_off_c, 2, 79, 64
4, 144486, Note_on_c, 2, 79, 102
4, 144489, Note_on_c, 2, 67, 104
4, 144568, Note_off_c, 2, 79, 64
4, 144572, Note_off_c, 2, 67, 64
4, 144729, Note_on_c, 2, 79, 97
4, 144729, Note_on_c, 2, 67, 97
4, 144795, Note_off_c, 2, 67, 64
4, 144796, Note_off_c, 2, 79, 64
4, 144963, Note_on_c, 2, 68, 103
4, 144967, Note_on_c, 2, 72, 103
4, 145046, Note_off_c, 2, 68, 64
4, 145050, Note_off_c, 2, 72, 64
4, 145445, Note_on_c, 2, 73, 108
4, 145446, Note_on_c, 2, 68, 109
4, 145524, Note_off_c, 2, 68, 64
4, 145525, Note_off_c, 2, 73, 64
4, 145925, Note_on_c, 2, 68, 110
4, 145928, Note_on_c, 2, 75, 110
4, 146007, Note_off_c, 2, 68, 64
4, 146010, Note_off_c, 2, 75, 64
4, 146404, Note_on_c, 2, 76, 104
4, 146409, Note_on_c, 2, 68, 102
4, 146486, Note_off_c, 2, 76, 64
4, 146492, Note_off_c, 2, 68, 64
4, 146649, Note_on_c, 2, 76, 98
4, 146649, Note_on_c, 2, 68, 94
4, 146728, Note_off_c, 2, 76, 64
4, 146728, Note_off_c, 2, 68, 64
4, 146887, Note_on_c, 2, 77, 104
4, 146889, Note_on_c, 2, 68, 104
4, 146969, Note_off_c, 2, 77, 64
4, 146973, Note_off_c, 2, 68, 64
4, 147367, Note_on_c, 2, 78, 109
4, 147367, Note_on_c, 2, 68, 108
4, 147445, Note_off_c, 2, 78, 64
4, 147446, Note_off_c, 2, 68, 64
4, 147607, Note_on_c, 2, 68, 100
4, 147609, Note_on_c, 2, 78, 101
4, 147698, Note_off_c, 2, 68, 64
4, 147700, Note_off_c, 2, 78, 64
4, 147846, Note_on_c, 2, 79, 108
4, 147849, Note_on_c, 2, 67, 108
4, 147889, Note_off_c, 2, 79, 64
4, 147892, Note_off_c, 2, 67, 64
4, 147929, Note_on_c, 2, 79, 103
4, 147929, Note_on_c, 2, 67, 104
4, 147971, Note_off_c, 2, 79, 64
4, 147971, Note_off_c, 2, 67, 64
4, 148009, Note_on_c, 2, 79, 97
4, 148009, Note_on_c, 2, 67, 97
4, 148051, Note_off_c, 2, 67, 64
4, 148052, Note_off_c, 2, 79, 64
4, 148088, Note_on_c, 2, 79, 104
4, 148089, Note_on_c, 2, 67, 102
4, 148146, Note_off_c, 2, 79, 64
4, 148148, Note_off_c, 2, 67, 64
4, 151684, Note_on_c, 2, 67, 107
4, 151687, Note_on_c, 2, 79, 110
4, 151802, Note_off_c, 2, 67, 64
4, 151806, Note_off_c, 2, 79, 64
4, 152163, Note_on_c, 2, 67, 104
4, 152169, Note_on_c, 2, 79, 99
4, 152245, Note_off_c, 2, 67, 64
4, 152251, Note_off_c, 2, 79, 64
4, 152409, Note_on_c, 2, 67, 104
4, 152409, Note_on_c, 2, 79, 103
4, 152475, Note_off_c, 2, 67, 64
4, 152476, Note_off_c, 2, 79, 64
4, 152640, Note_on_c, 2, 68, 99
4, 152646, Note_on_c, 2, 70, 102
4, 152723, Note_off_c, 2, 68, 64
4, 152729, Note_off_c, 2, 70, 64
4, 152884, Note_on_c, 2, 67, 104
4, 152888, Note_on_c, 2, 79, 102
4, 152951, Note_off_c, 2, 67, 64
4, 152956, Note_off_c, 2, 79, 64
4, 153367, Note_on_c, 2, 70, 102
4, 153369, Note_on_c, 2, 68, 104
4, 153450, Note_off_c, 2, 70, 64
4, 153452, Note_off_c, 2, 68, 64
4, 153606, Note_on_c, 2, 68, 104
4, 153607, Note_on_c, 2, 70, 104
4, 153689, Note_off_c, 2, 68, 64
4, 153689, Note_off_c, 2, 70, 64
4, 153846, Note_on_c, 2, 79, 104
4, 153848, Note_on_c, 2, 67, 101
4, 153912, Note_off_c, 2, 79, 64
4, 153914, Note_off_c, 2, 67, 64
4, 154327, Note_on_c, 2, 70, 104
4, 154329, Note_on_c, 2, 68, 102
4, 154393, Note_off_c, 2, 70, 64
4, 154395, Note_off_c, 2, 68, 64
4, 154564, Note_on_c, 2, 67, 104
4, 154569, Note_on_c, 2, 79, 101
4, 154622, Note_off_c, 2, 67, 64
4, 154627, Note_off_c, 2, 79, 64
4, 154805, Note_on_c, 2, 67, 107
4, 154847, Note_off_c, 2, 67, 64
4, 154883, Note_on_c, 2, 67, 107
4, 154925, Note_off_c, 2, 67, 64
4, 154965, Note_on_c, 2, 67, 104
4, 155009, Note_off_c, 2, 67, 64
4, 155046, Note_on_c, 2, 67, 118
4, 155104, Note_off_c, 2, 67, 64
4, 159360, Control_c, 2, 123, 0
4, 159360, End_track
5, 0, Start_track
5, 0, Text_t, "Bassoons"
5, 0, Program_c, 3, 70
5, 0, Control_c, 3, 10, 94
5, 0, Control_c, 3, 7, 62
5, 0, Control_c, 3, 91, 127
5, 0, Control_c, 3, 93, 5
5, 0, Control_c, 3, 11, 127
5, 0, Control_c, 3, 123, 0
5, 109444, Note_on_c, 3, 51, 85
5, 109447, Note_on_c, 3, 39, 75
5, 109576, Note_off_c, 3, 51, 64
5, 109579, Note_off_c, 3, 39, 64
5, 109926, Note_on_c, 3, 51, 79
5, 109929, Note_on_c, 3, 39, 75
5, 110056, Note_off_c, 3, 51, 64
5, 110059, Note_off_c, 3, 39, 64
5, 110409, Note_on_c, 3, 43, 82
5, 110541, Note_off_c, 3, 43, 64
5, 110887, Note_on_c, 3, 43, 91
5, 110994, Note_off_c, 3, 43, 64
5, 111367, Note_on_c, 3, 49, 85
5, 111369, Note_on_c, 3, 37, 77
5, 111497, Note_off_c, 3, 49, 64
5, 111501, Note_off_c, 3, 37, 64
5, 111845, Note_on_c, 3, 49, 85
5, 111848, Note_on_c, 3, 37, 79
5, 111976, Note_off_c, 3, 49, 64
5, 111978, Note_off_c, 3, 37, 64
5, 112323, Note_on_c, 3, 37, 77
5, 112326, Note_on_c, 3, 49, 83
5, 112454, Note_off_c, 3, 37, 64
5, 112456, Note_off_c, 3, 49, 64
5, 112809, Note_on_c, 3, 37, 85
5, 112809, Note_on_c, 3, 49, 91
5, 112911, Note_off_c, 3, 49, 64
5, 112912, Note_off_c, 3, 37, 64
5, 113048, Note_on_c, 3, 37, 75
5, 113048, Note_on_c, 3, 49, 82
5, 113142, Note_off_c, 3, 37, 64
5, 113142, Note_off_c, 3, 49, 64
5, 113287, Note_on_c, 3, 51, 83
5, 113289, Note_on_c, 3, 39, 76
5, 113417, Note_off_c, 3, 51, 64
5, 113421, Note_off_c, 3, 39, 64
5, 113762, Note_on_c, 3, 51, 84
5, 113763, Note_on_c, 3, 39, 76
5, 113892, Note_off_c, 3, 51, 64
5, 113893, Note_off_c, 3, 39, 64
5, 114249, Note_on_c, 3, 51, 82
5, 114249, Note_on_c, 3, 39, 79
5, 114379, Note_off_c, 3, 51, 64
5, 114379, Note_off_c, 3, 39, 64
5, 114724, Note_on_c, 3, 48, 91
5, 114729, Note_on_c, 3, 36, 80
5, 114854, Note_off_c, 3, 48, 64
5, 114860, Note_off_c, 3, 36, 64
5, 115207, Note_on_c, 3, 43, 75
5, 115207, Note_on_c, 3, 31, 71
5, 115337, Note_off_c, 3, 43, 64
5, 115338, Note_off_c, 3, 31, 64
5, 115686, Note_on_c, 3, 48, 83
5, 115688, Note_on_c, 3, 36, 75
5, 116104, Note_off_c, 3, 48, 64
5, 116107, Note_off_c, 3, 36, 64
5, 116161, Note_on_c, 3, 55, 81
5, 116169, Note_on_c, 3, 43, 77
5, 116268, Note_off_c, 3, 55, 64
5, 116277, Note_off_c, 3, 43, 64
5, 116644, Note_on_c, 3, 43, 85
5, 116647, Note_on_c, 3, 31, 79
5, 116774, Note_off_c, 3, 43, 64
5, 116777, Note_off_c, 3, 31, 64
5, 117576, Control_c, 3, 11, 109
5, 117600, Note_on_c, 3, 62, 96
5, 117609, Note_on_c, 3, 55, 92
5, 117643, Note_off_c, 3, 62, 64
5, 117651, Note_off_c, 3, 55, 64
5, 117684, Note_on_c, 3, 55, 92
5, 117685, Note_on_c, 3, 62, 97
5, 117727, Note_off_c, 3, 62, 64
5, 117728, Note_off_c, 3, 55, 64
5, 117763, Note_on_c, 3, 55, 83
5, 117767, Note_on_c, 3, 62, 91
5, 117806, Note_off_c, 3, 55, 64
5, 117809, Note_off_c, 3, 62, 64
5, 117845, Note_on_c, 3, 62, 97
5, 117848, Note_on_c, 3, 55, 91
5, 117927, Note_off_c, 3, 62, 64
5, 117930, Note_off_c, 3, 55, 64
5, 118326, Note_on_c, 3, 62, 95
5, 118328, Note_on_c, 3, 55, 92
5, 118408, Note_off_c, 3, 62, 64
5, 118411, Note_off_c, 3, 55, 64
5, 118807, Note_on_c, 3, 54, 91
5, 118809, Note_on_c, 3, 63, 97
5, 118890, Note_off_c, 3, 54, 64
5, 118891, Note_off_c, 3, 63, 64
5, 119288, Note_on_c, 3, 55, 88
5, 119289, Note_on_c, 3, 62, 96
5, 119371, Note_off_c, 3, 55, 64
5, 119372, Note_off_c, 3, 62, 64
5, 119764, Note_on_c, 3, 63, 98
5, 119769, Note_on_c, 3, 54, 88
5, 119846, Note_off_c, 3, 63, 64
5, 119852, Note_off_c, 3, 54, 64
5, 120245, Note_on_c, 3, 62, 95
5, 120247, Note_on_c, 3, 55, 90
5, 120287, Note_off_c, 3, 62, 64
5, 120290, Note_off_c, 3, 55, 64
5, 120324, Note_on_c, 3, 62, 95
5, 120328, Note_on_c, 3, 55, 92
5, 120366, Note_off_c, 3, 62, 64
5, 120370, Note_off_c, 3, 55, 64
5, 120405, Note_on_c, 3, 55, 83
5, 120409, Note_on_c, 3, 62, 92
5, 120447, Note_off_c, 3, 55, 64
5, 120451, Note_off_c, 3, 62, 64
5, 120482, Note_on_c, 3, 62, 100
5, 120488, Note_on_c, 3, 55, 97
5, 120525, Note_off_c, 3, 62, 64
5, 120532, Note_off_c, 3, 55, 64
5, 120565, Note_on_c, 3, 62, 96
5, 120568, Note_on_c, 3, 55, 89
5, 120609, Note_off_c, 3, 62, 64
5, 120610, Note_off_c, 3, 55, 64
5, 120648, Note_on_c, 3, 62, 90
5, 120648, Note_on_c, 3, 55, 85
5, 120690, Note_off_c, 3, 62, 64
5, 120691, Note_off_c, 3, 55, 64
5, 120719, Note_on_c, 3, 62, 94
5, 120729, Note_on_c, 3, 55, 89
5, 120778, Note_off_c, 3, 62, 64
5, 120787, Note_off_c, 3, 55, 64
5, 121205, Note_on_c, 3, 62, 98
5, 121207, Note_on_c, 3, 55, 91
5, 121289, Note_off_c, 3, 62, 64
5, 121289, Note_off_c, 3, 55, 64
5, 121684, Note_on_c, 3, 62, 97
5, 121689, Note_on_c, 3, 55, 88
5, 121727, Note_off_c, 3, 62, 64
5, 121731, Note_off_c, 3, 55, 64
5, 121767, Note_on_c, 3, 55, 89
5, 121768, Note_on_c, 3, 62, 98
5, 121809, Note_off_c, 3, 55, 64
5, 121811, Note_off_c, 3, 62, 64
5, 121846, Note_on_c, 3, 55, 84
5, 121847, Note_on_c, 3, 62, 89
5, 121888, Note_off_c, 3, 55, 64
5, 121889, Note_off_c, 3, 62, 64
5, 122161, Note_on_c, 3, 55, 92
5, 122169, Note_on_c, 3, 62, 98
5, 122244, Note_off_c, 3, 55, 64
5, 122251, Note_off_c, 3, 62, 64
5, 122647, Note_on_c, 3, 58, 96
5, 122649, Note_on_c, 3, 54, 91
5, 122731, Note_off_c, 3, 58, 64
5, 122731, Note_off_c, 3, 54, 64
5, 123126, Note_on_c, 3, 58, 98
5, 123129, Note_on_c, 3, 54, 92
5, 123208, Note_off_c, 3, 58, 64
5, 123211, Note_off_c, 3, 54, 64
5, 123605, Note_on_c, 3, 51, 90
5, 123607, Note_on_c, 3, 54, 96
5, 123687, Note_off_c, 3, 51, 64
5, 123690, Note_off_c, 3, 54, 64
5, 124085, Note_on_c, 3, 62, 98
5, 124086, Note_on_c, 3, 58, 89
5, 124127, Note_off_c, 3, 62, 64
5, 124128, Note_off_c, 3, 58, 64
5, 124162, Note_on_c, 3, 62, 94
5, 124165, Note_on_c, 3, 58, 91
5, 124204, Note_off_c, 3, 62, 64
5, 124208, Note_off_c, 3, 58, 64
5, 124248, Note_on_c, 3, 62, 92
5, 124248, Note_on_c, 3, 58, 82
5, 124290, Note_off_c, 3, 62, 64
5, 124291, Note_off_c, 3, 58, 64
5, 124320, Control_c, 3, 11, 109
5, 124323, Note_on_c, 3, 58, 91
5, 124327, Note_on_c, 3, 62, 102
5, 124389, Note_off_c, 3, 58, 64
5, 124393, Note_off_c, 3, 62, 64
5, 124440, Control_c, 3, 11, 113
5, 124536, Control_c, 3, 11, 116
5, 124565, Note_on_c, 3, 55, 98
5, 124584, Control_c, 3, 11, 119
5, 124648, Note_off_c, 3, 55, 64
5, 124680, Control_c, 3, 11, 123
5, 124776, Control_c, 3, 11, 127
5, 132485, Note_on_c, 3, 43, 79
5, 132489, Note_on_c, 3, 55, 75
5, 132592, Note_off_c, 3, 43, 64
5, 132595, Note_off_c, 3, 55, 64
5, 133922, Note_on_c, 3, 39, 85
5, 133929, Note_on_c, 3, 51, 81
5, 134005, Note_off_c, 3, 39, 64
5, 134011, Note_off_c, 3, 51, 64
5, 134402, Note_on_c, 3, 55, 76
5, 134408, Note_on_c, 3, 43, 77
5, 134508, Note_off_c, 3, 55, 64
5, 134514, Note_off_c, 3, 43, 64
5, 135847, Note_on_c, 3, 51, 81
5, 135848, Note_on_c, 3, 39, 85
5, 135929, Note_off_c, 3, 51, 64
5, 135931, Note_off_c, 3, 39, 64
5, 136328, Note_on_c, 3, 43, 79
5, 136329, Note_on_c, 3, 55, 77
5, 136434, Note_off_c, 3, 43, 64
5, 136436, Note_off_c, 3, 55, 64
5, 137762, Note_on_c, 3, 51, 85
5, 137766, Note_on_c, 3, 39, 85
5, 137844, Note_off_c, 3, 51, 64
5, 137848, Note_off_c, 3, 39, 64
5, 138247, Note_on_c, 3, 55, 78
5, 138249, Note_on_c, 3, 43, 77
5, 138354, Note_off_c, 3, 55, 64
5, 138355, Note_off_c, 3, 43, 64
5, 139682, Note_on_c, 3, 39, 82
5, 139688, Note_on_c, 3, 51, 81
5, 139764, Note_off_c, 3, 39, 64
5, 139770, Note_off_c, 3, 51, 64
5, 140168, Note_on_c, 3, 43, 90
5, 140274, Note_off_c, 3, 43, 64
5, 144007, Note_on_c, 3, 43, 98
5, 144008, Note_on_c, 3, 55, 97
5, 144113, Note_off_c, 3, 43, 64
5, 144114, Note_off_c, 3, 55, 64
5, 144489, Note_on_c, 3, 55, 96
5, 144572, Note_off_c, 3, 55, 64
5, 144727, Note_on_c, 3, 55, 93
5, 144794, Note_off_c, 3, 55, 64
5, 144966, Note_on_c, 3, 55, 98
5, 145048, Note_off_c, 3, 55, 64
5, 145447, Note_on_c, 3, 43, 102
5, 145448, Note_on_c, 3, 55, 103
5, 145526, Note_off_c, 3, 43, 64
5, 145526, Note_off_c, 3, 55, 64
5, 145928, Note_on_c, 3, 43, 97
5, 145929, Note_on_c, 3, 55, 96
5, 146013, Note_off_c, 3, 55, 64
5, 146035, Note_off_c, 3, 43, 64
5, 146408, Note_on_c, 3, 55, 97
5, 146490, Note_off_c, 3, 55, 64
5, 146646, Note_on_c, 3, 55, 88
5, 146724, Note_off_c, 3, 55, 64
5, 146888, Note_on_c, 3, 55, 97
5, 146970, Note_off_c, 3, 55, 64
5, 147369, Note_on_c, 3, 55, 104
5, 147369, Note_on_c, 3, 43, 101
5, 147447, Note_off_c, 3, 43, 64
5, 147449, Note_off_c, 3, 55, 64
5, 147605, Note_on_c, 3, 55, 98
5, 147695, Note_off_c, 3, 55, 64
5, 147848, Note_on_c, 3, 55, 102
5, 147849, Note_on_c, 3, 43, 103
5, 147890, Note_off_c, 3, 55, 64
5, 147891, Note_off_c, 3, 43, 64
5, 147924, Note_on_c, 3, 43, 96
5, 147966, Note_off_c, 3, 43, 64
5, 148009, Note_on_c, 3, 43, 91
5, 148052, Note_off_c, 3, 43, 64
5, 148088, Note_on_c, 3, 50, 97
5, 148089, Note_on_c, 3, 48, 97
5, 148146, Note_off_c, 3, 50, 64
5, 148148, Note_off_c, 3, 48, 64
5, 151689, Note_on_c, 3, 43, 109
5, 151808, Note_off_c, 3, 43, 64
5, 152161, Note_on_c, 3, 55, 103
5, 152243, Note_off_c, 3, 55, 64
5, 152409, Note_on_c, 3, 55, 103
5, 152475, Note_off_c, 3, 55, 64
5, 152647, Note_on_c, 3, 54, 102
5, 152729, Note_off_c, 3, 54, 64
5, 152889, Note_on_c, 3, 43, 99
5, 152956, Note_off_c, 3, 43, 64
5, 153369, Note_on_c, 3, 54, 104
5, 153451, Note_off_c, 3, 54, 64
5, 153608, Note_on_c, 3, 54, 104
5, 153693, Note_off_c, 3, 54, 64
5, 153846, Note_on_c, 3, 43, 101
5, 153912, Note_off_c, 3, 43, 64
5, 154326, Note_on_c, 3, 54, 101
5, 154392, Note_off_c, 3, 54, 64
5, 154560, Note_on_c, 3, 51, 104
5, 154619, Note_off_c, 3, 51, 64
5, 154809, Note_on_c, 3, 38, 104
5, 154891, Note_off_c, 3, 38, 64
5, 155049, Note_on_c, 3, 43, 119
5, 155107, Note_off_c, 3, 43, 64
5, 159360, Control_c, 3, 123, 0
5, 159360, End_track
6, 0, Start_track
6, 0, Text_t, "French Horns"
6, 0, Program_c, 4, 60
6, 0, Control_c, 4, 10, 30
6, 0, Control_c, 4, 7, 87
6, 0, Control_c, 4, 91, 115
6, 0, Control_c, 4, 93, 10
6, 0, Control_c, 4, 11, 127
6, 0, Control_c, 4, 123, 0
6, 5767, Note_on_c, 4, 55, 95
6, 6114, Note_off_c, 4, 55, 64
6, 6248, Note_on_c, 4, 55, 96
6, 6318, Note_off_c, 4, 55, 64
6, 6488, Note_on_c, 4, 55, 97
6, 6542, Note_off_c, 4, 55, 64
6, 6565, Note_on_c, 4, 55, 98
6, 6619, Note_off_c, 4, 55, 64
6, 6643, Note_on_c, 4, 55, 90
6, 6697, Note_off_c, 4, 55, 64
6, 6728, Note_on_c, 4, 55, 98
6, 6798, Note_off_c, 4, 55, 64
6, 6963, Note_on_c, 4, 55, 98
6, 7017, Note_off_c, 4, 55, 64
6, 7048, Note_on_c, 4, 55, 98
6, 7103, Note_off_c, 4, 55, 64
6, 7127, Note_on_c, 4, 55, 91
6, 7181, Note_off_c, 4, 55, 64
6, 7204, Note_on_c, 4, 63, 96
6, 7207, Note_on_c, 4, 58, 87
6, 7209, Note_on_c, 4, 54, 90
6, 7258, Note_off_c, 4, 63, 64
6, 7262, Note_off_c, 4, 58, 64
6, 7263, Note_off_c, 4, 54, 64
6, 7283, Note_on_c, 4, 58, 81
6, 7287, Note_on_c, 4, 63, 92
6, 7289, Note_on_c, 4, 54, 85
6, 7337, Note_off_c, 4, 58, 64
6, 7341, Note_off_c, 4, 63, 64
6, 7344, Note_off_c, 4, 54, 64
6, 7369, Note_on_c, 4, 63, 91
6, 7369, Note_on_c, 4, 54, 84
6, 7369, Note_on_c, 4, 58, 82
6, 7423, Note_off_c, 4, 63, 64
6, 7424, Note_off_c, 4, 58, 64
6, 7424, Note_off_c, 4, 54, 64
6, 7444, Note_on_c, 4, 63, 91
6, 7448, Note_on_c, 4, 58, 83
6, 7449, Note_on_c, 4, 54, 85
6, 7514, Note_off_c, 4, 63, 64
6, 7518, Note_off_c, 4, 58, 64
6, 7520, Note_off_c, 4, 54, 64
6, 7683, Note_on_c, 4, 55, 95
6, 8029, Note_off_c, 4, 55, 64
6, 8165, Note_on_c, 4, 55, 98
6, 8235, Note_off_c, 4, 55, 64
6, 8408, Note_on_c, 4, 55, 96
6, 8462, Note_off_c, 4, 55, 64
6, 8487, Note_on_c, 4, 55, 94
6, 8542, Note_off_c, 4, 55, 64
6, 8564, Note_on_c, 4, 55, 88
6, 8618, Note_off_c, 4, 55, 64
6, 8644, Note_on_c, 4, 55, 97
6, 8714, Note_off_c, 4, 55, 64
6, 8888, Note_on_c, 4, 55, 96
6, 8942, Note_off_c, 4, 55, 64
6, 8969, Note_on_c, 4, 55, 98
6, 9023, Note_off_c, 4, 55, 64
6, 9047, Note_on_c, 4, 55, 92
6, 9101, Note_off_c, 4, 55, 64
6, 9127, Note_on_c, 4, 63, 98
6, 9128, Note_on_c, 4, 54, 85
6, 9128, Note_on_c, 4, 58, 91
6, 9181, Note_off_c, 4, 63, 64
6, 9182, Note_off_c, 4, 58, 64
6, 9182, Note_off_c, 4, 54, 64
6, 9206, Note_on_c, 4, 54, 85
6, 9209, Note_on_c, 4, 63, 90
6, 9209, Note_on_c, 4, 58, 83
6, 9260, Note_off_c, 4, 54, 64
6, 9263, Note_off_c, 4, 58, 64
6, 9264, Note_off_c, 4, 63, 64
6, 9286, Note_on_c, 4, 58, 82
6, 9289, Note_on_c, 4, 63, 89
6, 9289, Note_on_c, 4, 54, 81
6, 9342, Note_off_c, 4, 58, 64
6, 9344, Note_off_c, 4, 54, 64
6, 9345, Note_off_c, 4, 63, 64
6, 9363, Note_on_c, 4, 63, 92
6, 9365, Note_on_c, 4, 58, 85
6, 9367, Note_on_c, 4, 54, 85
6, 9433, Note_off_c, 4, 63, 64
6, 9435, Note_off_c, 4, 58, 64
6, 9438, Note_off_c, 4, 54, 64
6, 9607, Note_on_c, 4, 55, 98
6, 9953, Note_off_c, 4, 55, 64
6, 10088, Note_on_c, 4, 55, 97
6, 10160, Note_off_c, 4, 55, 64
6, 10322, Note_on_c, 4, 55, 96
6, 10376, Note_off_c, 4, 55, 64
6, 10405, Note_on_c, 4, 55, 96
6, 10459, Note_off_c, 4, 55, 64
6, 10487, Note_on_c, 4, 55, 91
6, 10542, Note_off_c, 4, 55, 64
6, 10569, Note_on_c, 4, 55, 98
6, 10639, Note_off_c, 4, 55, 64
6, 10809, Note_on_c, 4, 55, 97
6, 10864, Note_off_c, 4, 55, 64
6, 10881, Note_on_c, 4, 55, 98
6, 10937, Note_off_c, 4, 55, 64
6, 10969, Note_on_c, 4, 55, 91
6, 11025, Note_off_c, 4, 55, 64
6, 11043, Note_on_c, 4, 66, 97
6, 11049, Note_on_c, 4, 63, 89
6, 11049, Note_on_c, 4, 58, 92
6, 11049, Note_on_c, 4, 57, 91
6, 11098, Note_off_c, 4, 66, 64
6, 11103, Note_off_c, 4, 63, 64
6, 11103, Note_off_c, 4, 58, 64
6, 11104, Note_off_c, 4, 57, 64
6, 11124, Note_on_c, 4, 57, 82
6, 11124, Note_on_c, 4, 58, 85
6, 11126, Note_on_c, 4, 66, 91
6, 11129, Note_on_c, 4, 63, 85
6, 11178, Note_off_c, 4, 57, 64
6, 11178, Note_off_c, 4, 58, 64
6, 11180, Note_off_c, 4, 66, 64
6, 11184, Note_off_c, 4, 63, 64
6, 11202, Note_on_c, 4, 66, 90
6, 11202, Note_on_c, 4, 63, 84
6, 11207, Note_on_c, 4, 57, 82
6, 11208, Note_on_c, 4, 58, 81
6, 11256, Note_off_c, 4, 66, 64
6, 11256, Note_off_c, 4, 63, 64
6, 11262, Note_off_c, 4, 58, 64
6, 11263, Note_off_c, 4, 57, 64
6, 11286, Note_on_c, 4, 58, 84
6, 11287, Note_on_c, 4, 66, 91
6, 11288, Note_on_c, 4, 57, 82
6, 11289, Note_on_c, 4, 63, 83
6, 11358, Note_off_c, 4, 58, 64
6, 11358, Note_off_c, 4, 66, 64
6, 11359, Note_off_c, 4, 57, 64
6, 11362, Note_off_c, 4, 63, 64
6, 11528, Note_on_c, 4, 55, 98
6, 11875, Note_off_c, 4, 55, 64
6, 12009, Note_on_c, 4, 55, 98
6, 12079, Note_off_c, 4, 55, 64
6, 12249, Note_on_c, 4, 55, 97
6, 12306, Note_off_c, 4, 55, 64
6, 12328, Note_on_c, 4, 55, 97
6, 12382, Note_off_c, 4, 55, 64
6, 12409, Note_on_c, 4, 55, 87
6, 12463, Note_off_c, 4, 55, 64
6, 12486, Note_on_c, 4, 55, 97
6, 12557, Note_off_c, 4, 55, 64
6, 12728, Note_on_c, 4, 55, 98
6, 12783, Note_off_c, 4, 55, 64
6, 12807, Note_on_c, 4, 55, 97
6, 12861, Note_off_c, 4, 55, 64
6, 12889, Note_on_c, 4, 55, 91
6, 12944, Note_off_c, 4, 55, 64
6, 12964, Note_on_c, 4, 57, 91
6, 12965, Note_on_c, 4, 58, 92
6, 12967, Note_on_c, 4, 63, 91
6, 12969, Note_on_c, 4, 66, 95
6, 13019, Note_off_c, 4, 57, 64
6, 13020, Note_off_c, 4, 58, 64
6, 13021, Note_off_c, 4, 63, 64
6, 13025, Note_off_c, 4, 66, 64
6, 13046, Note_on_c, 4, 57, 82
6, 13048, Note_on_c, 4, 63, 85
6, 13048, Note_on_c, 4, 66, 91
6, 13049, Note_on_c, 4, 58, 81
6, 13100, Note_off_c, 4, 57, 64
6, 13102, Note_off_c, 4, 63, 64
6, 13102, Note_off_c, 4, 66, 64
6, 13103, Note_off_c, 4, 58, 64
6, 13127, Note_on_c, 4, 58, 82
6, 13128, Note_on_c, 4, 57, 85
6, 13128, Note_on_c, 4, 66, 91
6, 13129, Note_on_c, 4, 63, 81
6, 13182, Note_off_c, 4, 58, 64
6, 13182, Note_off_c, 4, 57, 64
6, 13184, Note_off_c, 4, 66, 64
6, 13185, Note_off_c, 4, 63, 64
6, 13201, Note_on_c, 4, 57, 80
6, 13203, Note_on_c, 4, 66, 89
6, 13207, Note_on_c, 4, 58, 84
6, 13208, Note_on_c, 4, 63, 85
6, 13271, Note_off_c, 4, 57, 64
6, 13273, Note_off_c, 4, 66, 64
6, 13277, Note_off_c, 4, 58, 64
6, 13278, Note_off_c, 4, 63, 64
6, 13446, Note_on_c, 4, 55, 104
6, 13576, Note_off_c, 4, 55, 64
6, 16329, Note_on_c, 4, 55, 97
6, 16399, Note_off_c, 4, 55, 64
6, 16568, Note_on_c, 4, 55, 95
6, 16622, Note_off_c, 4, 55, 64
6, 16646, Note_on_c, 4, 55, 97
6, 16702, Note_off_c, 4, 55, 64
6, 16728, Note_on_c, 4, 55, 88
6, 16783, Note_off_c, 4, 55, 64
6, 16801, Note_on_c, 4, 58, 92
6, 16804, Note_on_c, 4, 66, 97
6, 16807, Note_on_c, 4, 57, 92
6, 16809, Note_on_c, 4, 63, 89
6, 16855, Note_off_c, 4, 58, 64
6, 16858, Note_off_c, 4, 66, 64
6, 16861, Note_off_c, 4, 57, 64
6, 16863, Note_off_c, 4, 63, 64
6, 16881, Note_on_c, 4, 57, 81
6, 16886, Note_on_c, 4, 58, 83
6, 16887, Note_on_c, 4, 66, 88
6, 16889, Note_on_c, 4, 63, 81
6, 16935, Note_off_c, 4, 57, 64
6, 16940, Note_off_c, 4, 58, 64
6, 16942, Note_off_c, 4, 66, 64
6, 16943, Note_off_c, 4, 63, 64
6, 16960, Note_on_c, 4, 57, 85
6, 16966, Note_on_c, 4, 66, 91
6, 16967, Note_on_c, 4, 58, 82
6, 16969, Note_on_c, 4, 63, 83
6, 17014, Note_off_c, 4, 57, 64
6, 17020, Note_off_c, 4, 66, 64
6, 17021, Note_off_c, 4, 58, 64
6, 17025, Note_off_c, 4, 63, 64
6, 17046, Note_on_c, 4, 63, 84
6, 17046, Note_on_c, 4, 58, 83
6, 17048, Note_on_c, 4, 66, 91
6, 17049, Note_on_c, 4, 57, 82
6, 17116, Note_off_c, 4, 63, 64
6, 17116, Note_off_c, 4, 58, 64
6, 17119, Note_off_c, 4, 66, 64
6, 17120, Note_off_c, 4, 57, 64
6, 20165, Note_on_c, 4, 55, 96
6, 20235, Note_off_c, 4, 55, 64
6, 20407, Note_on_c, 4, 62, 92
6, 20408, Note_on_c, 4, 58, 92
6, 20462, Note_off_c, 4, 62, 64
6, 20463, Note_off_c, 4, 58, 64
6, 20488, Note_on_c, 4, 62, 94
6, 20488, Note_on_c, 4, 58, 98
6, 20542, Note_off_c, 4, 62, 64
6, 20545, Note_off_c, 4, 58, 64
6, 20564, Note_on_c, 4, 58, 91
6, 20567, Note_on_c, 4, 62, 92
6, 20618, Note_off_c, 4, 58, 64
6, 20621, Note_off_c, 4, 62, 64
6, 20647, Note_on_c, 4, 63, 97
6, 20649, Note_on_c, 4, 59, 92
6, 20701, Note_off_c, 4, 63, 64
6, 20703, Note_off_c, 4, 59, 64
6, 20729, Note_on_c, 4, 63, 88
6, 20729, Note_on_c, 4, 59, 85
6, 20784, Note_off_c, 4, 63, 64
6, 20785, Note_off_c, 4, 59, 64
6, 20803, Note_on_c, 4, 59, 84
6, 20809, Note_on_c, 4, 63, 92
6, 20858, Note_off_c, 4, 59, 64
6, 20864, Note_off_c, 4, 63, 64
6, 20881, Note_on_c, 4, 65, 91
6, 20887, Note_on_c, 4, 61, 82
6, 20952, Note_off_c, 4, 65, 64
6, 20958, Note_off_c, 4, 61, 64
6, 36487, Note_on_c, 4, 55, 102
6, 36834, Note_off_c, 4, 55, 64
6, 36966, Note_on_c, 4, 55, 103
6, 37036, Note_off_c, 4, 55, 64
6, 37208, Note_on_c, 4, 55, 103
6, 37262, Note_off_c, 4, 55, 64
6, 37288, Note_on_c, 4, 55, 104
6, 37342, Note_off_c, 4, 55, 64
6, 37367, Note_on_c, 4, 55, 97
6, 37421, Note_off_c, 4, 55, 64
6, 37441, Note_on_c, 4, 55, 103
6, 37512, Note_off_c, 4, 55, 64
6, 37689, Note_on_c, 4, 55, 103
6, 37743, Note_off_c, 4, 55, 64
6, 37768, Note_on_c, 4, 55, 104
6, 37825, Note_off_c, 4, 55, 64
6, 37845, Note_on_c, 4, 55, 94
6, 37899, Note_off_c, 4, 55, 64
6, 37925, Note_on_c, 4, 63, 91
6, 37926, Note_on_c, 4, 57, 90
6, 37926, Note_on_c, 4, 66, 96
6, 37929, Note_on_c, 4, 58, 92
6, 37979, Note_off_c, 4, 63, 64
6, 37980, Note_off_c, 4, 57, 64
6, 37980, Note_off_c, 4, 66, 64
6, 37984, Note_off_c, 4, 58, 64
6, 38005, Note_on_c, 4, 57, 84
6, 38007, Note_on_c, 4, 63, 85
6, 38009, Note_on_c, 4, 66, 90
6, 38009, Note_on_c, 4, 58, 85
6, 38059, Note_off_c, 4, 57, 64
6, 38062, Note_off_c, 4, 63, 64
6, 38063, Note_off_c, 4, 66, 64
6, 38066, Note_off_c, 4, 58, 64
6, 38086, Note_on_c, 4, 63, 82
6, 38087, Note_on_c, 4, 58, 81
6, 38087, Note_on_c, 4, 66, 90
6, 38089, Note_on_c, 4, 57, 84
6, 38140, Note_off_c, 4, 63, 64
6, 38142, Note_off_c, 4, 66, 64
6, 38143, Note_off_c, 4, 58, 64
6, 38146, Note_off_c, 4, 57, 64
6, 38163, Note_on_c, 4, 58, 85
6, 38164, Note_on_c, 4, 57, 85
6, 38169, Note_on_c, 4, 66, 92
6, 38169, Note_on_c, 4, 63, 85
6, 38233, Note_off_c, 4, 58, 64
6, 38236, Note_off_c, 4, 57, 64
6, 38239, Note_off_c, 4, 63, 64
6, 38242, Note_off_c, 4, 66, 64
6, 38409, Note_on_c, 4, 55, 102
6, 38756, Note_off_c, 4, 55, 64
6, 38889, Note_on_c, 4, 55, 104
6, 38959, Note_off_c, 4, 55, 64
6, 39127, Note_on_c, 4, 55, 102
6, 39182, Note_off_c, 4, 55, 64
6, 39205, Note_on_c, 4, 55, 104
6, 39260, Note_off_c, 4, 55, 64
6, 39288, Note_on_c, 4, 55, 96
6, 39342, Note_off_c, 4, 55, 64
6, 39369, Note_on_c, 4, 55, 104
6, 39439, Note_off_c, 4, 55, 64
6, 39606, Note_on_c, 4, 55, 103
6, 39660, Note_off_c, 4, 55, 64
6, 39683, Note_on_c, 4, 55, 101
6, 39737, Note_off_c, 4, 55, 64
6, 39769, Note_on_c, 4, 55, 97
6, 39823, Note_off_c, 4, 55, 64
6, 39841, Note_on_c, 4, 57, 92
6, 39845, Note_on_c, 4, 63, 90
6, 39849, Note_on_c, 4, 58, 90
6, 39849, Note_on_c, 4, 66, 97
6, 39896, Note_off_c, 4, 57, 64
6, 39899, Note_off_c, 4, 63, 64
6, 39903, Note_off_c, 4, 66, 64
6, 39904, Note_off_c, 4, 58, 64
6, 39919, Note_on_c, 4, 58, 81
6, 39925, Note_on_c, 4, 63, 85
6, 39927, Note_on_c, 4, 66, 92
6, 39929, Note_on_c, 4, 57, 85
6, 39975, Note_off_c, 4, 58, 64
6, 39981, Note_off_c, 4, 63, 64
6, 39981, Note_off_c, 4, 66, 64
6, 39985, Note_off_c, 4, 57, 64
6, 40004, Note_on_c, 4, 63, 82
6, 40006, Note_on_c, 4, 57, 84
6, 40006, Note_on_c, 4, 66, 87
6, 40009, Note_on_c, 4, 58, 82
6, 40060, Note_off_c, 4, 63, 64
6, 40060, Note_off_c, 4, 66, 64
6, 40062, Note_off_c, 4, 57, 64
6, 40063, Note_off_c, 4, 58, 64
6, 40083, Note_on_c, 4, 66, 88
6, 40087, Note_on_c, 4, 63, 85
6, 40089, Note_on_c, 4, 58, 84
6, 40089, Note_on_c, 4, 57, 85
6, 40154, Note_off_c, 4, 66, 64
6, 40159, Note_off_c, 4, 63, 64
6, 40160, Note_off_c, 4, 58, 64
6, 40160, Note_off_c, 4, 57, 64
6, 44136, Control_c, 4, 11, 114
6, 44168, Note_on_c, 4, 62, 45
6, 45091, Note_off_c, 4, 62, 64
6, 45125, Note_on_c, 4, 62, 49
6, 46050, Note_off_c, 4, 62, 64
6, 46088, Note_on_c, 4, 62, 49
6, 47011, Note_off_c, 4, 62, 64
6, 47040, Control_c, 4, 11, 114
6, 47044, Note_on_c, 4, 62, 46
6, 47160, Control_c, 4, 11, 115
6, 47280, Control_c, 4, 11, 116
6, 47400, Control_c, 4, 11, 118
6, 47488, Note_off_c, 4, 62, 64
6, 47520, Control_c, 4, 11, 120
6, 47529, Note_on_c, 4, 62, 46
6, 47640, Control_c, 4, 11, 121
6, 47760, Control_c, 4, 11, 123
6, 47880, Control_c, 4, 11, 124
6, 47971, Note_off_c, 4, 62, 64
6, 47976, Control_c, 4, 11, 127
6, 48006, Note_on_c, 4, 62, 46
6, 48929, Note_off_c, 4, 62, 64
6, 48966, Note_on_c, 4, 62, 49
6, 49888, Note_off_c, 4, 62, 64
6, 49923, Note_on_c, 4, 62, 46
6, 50845, Note_off_c, 4, 62, 64
6, 50887, Note_on_c, 4, 62, 49
6, 51810, Note_off_c, 4, 62, 64
6, 59526, Note_on_c, 4, 57, 97
6, 59920, Note_off_c, 4, 57, 64
6, 60009, Note_on_c, 4, 57, 95
6, 60404, Note_off_c, 4, 57, 64
6, 60484, Note_on_c, 4, 57, 97
6, 60878, Note_off_c, 4, 57, 64
6, 60969, Note_on_c, 4, 53, 101
6, 61245, Note_off_c, 4, 53, 64
6, 61327, Note_on_c, 4, 60, 95
6, 61362, Note_off_c, 4, 60, 64
6, 61447, Note_on_c, 4, 57, 92
6, 61841, Note_off_c, 4, 57, 64
6, 61929, Note_on_c, 4, 53, 104
6, 62203, Note_off_c, 4, 53, 64
6, 62287, Note_on_c, 4, 60, 97
6, 62322, Note_off_c, 4, 60, 64
6, 62400, Control_c, 4, 11, 127
6, 62409, Note_on_c, 4, 57, 85
6, 62520, Control_c, 4, 11, 125
6, 62640, Control_c, 4, 11, 123
6, 62760, Control_c, 4, 11, 121
6, 62880, Control_c, 4, 11, 119
6, 63000, Control_c, 4, 11, 116
6, 63120, Control_c, 4, 11, 115
6, 63240, Control_c, 4, 11, 113
6, 63360, Control_c, 4, 11, 111
6, 63480, Control_c, 4, 11, 109
6, 63600, Control_c, 4, 11, 106
6, 63720, Control_c, 4, 11, 105
6, 63840, Control_c, 4, 11, 103
6, 63960, Control_c, 4, 11, 101
6, 64080, Control_c, 4, 11, 99
6, 64200, Control_c, 4, 11, 96
6, 64320, Control_c, 4, 11, 95
6, 64344, Control_c, 4, 11, 94
6, 65760, Control_c, 4, 11, 94
6, 65827, Note_off_c, 4, 57, 64
6, 65832, Control_c, 4, 11, 99
6, 65904, Control_c, 4, 11, 104
6, 65976, Control_c, 4, 11, 109
6, 66024, Control_c, 4, 11, 113
6, 66096, Control_c, 4, 11, 118
6, 66168, Control_c, 4, 11, 123
6, 66216, Control_c, 4, 11, 127
6, 66249, Note_on_c, 4, 64, 104
6, 66643, Note_off_c, 4, 64, 64
6, 66727, Note_on_c, 4, 64, 103
6, 67122, Note_off_c, 4, 64, 64
6, 67207, Note_on_c, 4, 64, 102
6, 67602, Note_off_c, 4, 64, 64
6, 67686, Note_on_c, 4, 65, 109
6, 67960, Note_off_c, 4, 65, 64
6, 68046, Note_on_c, 4, 60, 102
6, 68081, Note_off_c, 4, 60, 64
6, 68160, Note_on_c, 4, 56, 96
6, 68554, Note_off_c, 4, 56, 64
6, 68647, Note_on_c, 4, 53, 110
6, 68921, Note_off_c, 4, 53, 64
6, 69001, Note_on_c, 4, 60, 102
6, 69037, Note_off_c, 4, 60, 64
6, 69120, Control_c, 4, 11, 127
6, 69129, Note_on_c, 4, 57, 96
6, 69240, Control_c, 4, 11, 125
6, 69360, Control_c, 4, 11, 123
6, 69456, Control_c, 4, 11, 120
6, 69576, Control_c, 4, 11, 118
6, 69696, Control_c, 4, 11, 115
6, 69816, Control_c, 4, 11, 114
6, 69888, Control_c, 4, 11, 111
6, 70008, Control_c, 4, 11, 110
6, 70128, Control_c, 4, 11, 108
6, 70224, Control_c, 4, 11, 105
6, 70344, Control_c, 4, 11, 103
6, 70464, Control_c, 4, 11, 100
6, 70584, Control_c, 4, 11, 99
6, 70656, Control_c, 4, 11, 96
6, 70776, Control_c, 4, 11, 95
6, 70896, Control_c, 4, 11, 93
6, 70992, Control_c, 4, 11, 90
6, 71040, Control_c, 4, 11, 89
6, 72548, Note_off_c, 4, 57, 64
6, 72576, Control_c, 4, 11, 93
6, 72624, Control_c, 4, 11, 96
6, 72648, Control_c, 4, 11, 99
6, 72696, Control_c, 4, 11, 104
6, 72744, Control_c, 4, 11, 108
6, 72792, Control_c, 4, 11, 113
6, 72840, Control_c, 4, 11, 116
6, 72864, Control_c, 4, 11, 119
6, 72912, Control_c, 4, 11, 124
6, 72936, Control_c, 4, 11, 127
6, 72965, Note_on_c, 4, 70, 103
6, 73360, Note_off_c, 4, 70, 64
6, 73449, Note_on_c, 4, 58, 96
6, 73567, Note_off_c, 4, 58, 64
6, 73807, Note_on_c, 4, 58, 96
6, 73853, Note_off_c, 4, 58, 64
6, 73929, Note_on_c, 4, 70, 98
6, 74350, Note_off_c, 4, 70, 64
6, 74408, Note_on_c, 4, 69, 96
6, 74682, Note_off_c, 4, 69, 64
6, 74769, Note_on_c, 4, 68, 98
6, 74817, Note_off_c, 4, 68, 64
6, 74887, Note_on_c, 4, 67, 103
6, 74933, Note_off_c, 4, 67, 64
6, 75009, Note_on_c, 4, 66, 98
6, 75043, Note_off_c, 4, 66, 64
6, 75122, Note_on_c, 4, 67, 98
6, 75193, Note_off_c, 4, 67, 64
6, 75607, Note_on_c, 4, 59, 98
6, 75665, Note_off_c, 4, 59, 64
6, 75849, Note_on_c, 4, 64, 91
6, 76320, Control_c, 4, 11, 127
6, 76464, Control_c, 4, 11, 127
6, 76584, Control_c, 4, 11, 125
6, 76704, Control_c, 4, 11, 124
6, 76776, Control_c, 4, 11, 121
6, 76896, Control_c, 4, 11, 119
6, 76944, Control_c, 4, 11, 116
6, 77040, Control_c, 4, 11, 113
6, 77088, Control_c, 4, 11, 110
6, 77184, Control_c, 4, 11, 106
6, 77232, Control_c, 4, 11, 103
6, 77280, Control_c, 4, 11, 100
6, 77328, Control_c, 4, 11, 96
6, 77400, Control_c, 4, 11, 91
6, 77448, Control_c, 4, 11, 88
6, 77472, Control_c, 4, 11, 85
6, 77496, Control_c, 4, 11, 82
6, 77544, Control_c, 4, 11, 79
6, 77568, Control_c, 4, 11, 76
6, 77592, Control_c, 4, 11, 72
6, 77640, Control_c, 4, 11, 67
6, 77664, Control_c, 4, 11, 64
6, 77688, Control_c, 4, 11, 60
6, 77712, Control_c, 4, 11, 56
6, 77736, Control_c, 4, 11, 52
6, 77760, Control_c, 4, 11, 47
6, 77784, Control_c, 4, 11, 42
6, 77808, Control_c, 4, 11, 36
6, 77827, Note_off_c, 4, 64, 64
6, 77832, Control_c, 4, 11, 28
6, 77856, Control_c, 4, 11, 17
6, 78192, Control_c, 4, 11, 127
6, 78242, Note_on_c, 4, 63, 96
6, 78516, Note_off_c, 4, 63, 64
6, 78607, Note_on_c, 4, 62, 97
6, 78653, Note_off_c, 4, 62, 64
6, 78726, Note_on_c, 4, 61, 104
6, 78773, Note_off_c, 4, 61, 64
6, 78844, Note_on_c, 4, 60, 97
6, 78880, Note_off_c, 4, 60, 64
6, 78965, Note_on_c, 4, 61, 96
6, 79035, Note_off_c, 4, 61, 64
6, 79449, Note_on_c, 4, 54, 97
6, 79507, Note_off_c, 4, 54, 64
6, 79689, Note_on_c, 4, 57, 92
6, 80160, Control_c, 4, 11, 127
6, 80304, Control_c, 4, 11, 127
6, 80424, Control_c, 4, 11, 125
6, 80544, Control_c, 4, 11, 123
6, 80592, Control_c, 4, 11, 120
6, 80688, Control_c, 4, 11, 116
6, 80784, Control_c, 4, 11, 113
6, 80832, Control_c, 4, 11, 110
6, 80904, Control_c, 4, 11, 106
6, 80952, Control_c, 4, 11, 103
6, 81000, Control_c, 4, 11, 99
6, 81048, Control_c, 4, 11, 95
6, 81096, Control_c, 4, 11, 91
6, 81144, Control_c, 4, 11, 86
6, 81192, Control_c, 4, 11, 81
6, 81216, Control_c, 4, 11, 77
6, 81264, Control_c, 4, 11, 71
6, 81288, Control_c, 4, 11, 67
6, 81312, Control_c, 4, 11, 64
6, 81336, Control_c, 4, 11, 60
6, 81360, Control_c, 4, 11, 56
6, 81384, Control_c, 4, 11, 51
6, 81408, Control_c, 4, 11, 45
6, 81428, Note_off_c, 4, 57, 64
6, 81432, Control_c, 4, 11, 38
6, 81456, Control_c, 4, 11, 30
6, 81480, Control_c, 4, 11, 17
6, 81576, Control_c, 4, 11, 114
6, 81609, Note_on_c, 4, 54, 92
6, 81864, Control_c, 4, 11, 115
6, 82039, Note_off_c, 4, 54, 64
6, 82080, Control_c, 4, 11, 116
6, 82089, Note_on_c, 4, 61, 95
6, 82200, Control_c, 4, 11, 118
6, 82320, Control_c, 4, 11, 119
6, 82440, Control_c, 4, 11, 121
6, 82488, Control_c, 4, 11, 124
6, 82512, Control_c, 4, 11, 127
6, 82543, Note_off_c, 4, 61, 64
6, 82559, Note_on_c, 4, 58, 91
6, 82919, Note_off_c, 4, 58, 64
6, 83048, Note_on_c, 4, 54, 100
6, 83322, Note_off_c, 4, 54, 64
6, 83408, Note_on_c, 4, 61, 98
6, 83491, Note_off_c, 4, 61, 64
6, 83529, Note_on_c, 4, 58, 92
6, 84480, Control_c, 4, 11, 127
6, 84624, Control_c, 4, 11, 127
6, 84744, Control_c, 4, 11, 125
6, 84864, Control_c, 4, 11, 124
6, 84936, Control_c, 4, 11, 121
6, 85056, Control_c, 4, 11, 119
6, 85104, Control_c, 4, 11, 116
6, 85200, Control_c, 4, 11, 113
6, 85248, Control_c, 4, 11, 110
6, 85344, Control_c, 4, 11, 106
6, 85392, Control_c, 4, 11, 103
6, 85440, Control_c, 4, 11, 100
6, 85488, Control_c, 4, 11, 96
6, 85560, Control_c, 4, 11, 91
6, 85608, Control_c, 4, 11, 88
6, 85632, Control_c, 4, 11, 85
6, 85656, Control_c, 4, 11, 82
6, 85704, Control_c, 4, 11, 79
6, 85728, Control_c, 4, 11, 76
6, 85752, Control_c, 4, 11, 72
6, 85800, Control_c, 4, 11, 67
6, 85824, Control_c, 4, 11, 64
6, 85848, Control_c, 4, 11, 60
6, 85872, Control_c, 4, 11, 56
6, 85896, Control_c, 4, 11, 52
6, 85920, Control_c, 4, 11, 47
6, 85944, Control_c, 4, 11, 42
6, 85968, Control_c, 4, 11, 36
6, 85988, Note_off_c, 4, 58, 64
6, 85992, Control_c, 4, 11, 28
6, 86016, Control_c, 4, 11, 17
6, 86376, Control_c, 4, 11, 127
6, 101766, Note_on_c, 4, 67, 71
6, 101766, Note_on_c, 4, 55, 64
6, 101767, Note_on_c, 4, 63, 60
6, 101769, Note_on_c, 4, 58, 66
6, 102112, Note_off_c, 4, 67, 64
6, 102112, Note_off_c, 4, 55, 64
6, 102113, Note_off_c, 4, 63, 64
6, 102116, Note_off_c, 4, 58, 64
6, 102724, Note_on_c, 4, 67, 74
6, 102727, Note_on_c, 4, 62, 61
6, 102727, Note_on_c, 4, 58, 66
6, 102727, Note_on_c, 4, 55, 66
6, 103070, Note_off_c, 4, 67, 64
6, 103073, Note_off_c, 4, 55, 64
6, 103073, Note_off_c, 4, 62, 64
6, 103074, Note_off_c, 4, 58, 64
6, 103685, Note_on_c, 4, 64, 74
6, 103686, Note_on_c, 4, 61, 62
6, 103688, Note_on_c, 4, 56, 66
6, 103689, Note_on_c, 4, 52, 63
6, 104032, Note_off_c, 4, 64, 64
6, 104034, Note_off_c, 4, 61, 64
6, 104034, Note_off_c, 4, 56, 64
6, 104035, Note_off_c, 4, 52, 64
6, 104645, Note_on_c, 4, 52, 66
6, 104646, Note_on_c, 4, 56, 64
6, 104648, Note_on_c, 4, 61, 73
6, 104991, Note_off_c, 4, 52, 64
6, 104994, Note_off_c, 4, 56, 64
6, 104995, Note_off_c, 4, 61, 64
6, 117129, Note_on_c, 4, 67, 120
6, 117524, Note_off_c, 4, 67, 64
6, 117608, Note_on_c, 4, 67, 114
6, 118002, Note_off_c, 4, 67, 64
6, 118087, Note_on_c, 4, 67, 118
6, 118483, Note_off_c, 4, 67, 64
6, 118569, Note_on_c, 4, 63, 122
6, 118843, Note_off_c, 4, 63, 64
6, 118929, Note_on_c, 4, 70, 117
6, 118964, Note_off_c, 4, 70, 64
6, 119049, Note_on_c, 4, 67, 119
6, 119444, Note_off_c, 4, 67, 64
6, 119528, Note_on_c, 4, 63, 124
6, 119802, Note_off_c, 4, 63, 64
6, 119888, Note_on_c, 4, 70, 118
6, 119923, Note_off_c, 4, 70, 64
6, 120009, Note_on_c, 4, 67, 111
6, 120884, Note_off_c, 4, 67, 64
6, 120967, Note_on_c, 4, 74, 119
6, 121362, Note_off_c, 4, 74, 64
6, 121441, Note_on_c, 4, 74, 114
6, 121835, Note_off_c, 4, 74, 64
6, 121929, Note_on_c, 4, 74, 117
6, 122323, Note_off_c, 4, 74, 64
6, 122403, Note_on_c, 4, 75, 124
6, 122678, Note_off_c, 4, 75, 64
6, 122766, Note_on_c, 4, 70, 119
6, 122800, Note_off_c, 4, 70, 64
6, 122888, Note_on_c, 4, 66, 112
6, 123282, Note_off_c, 4, 66, 64
6, 123368, Note_on_c, 4, 63, 124
6, 123642, Note_off_c, 4, 63, 64
6, 123728, Note_on_c, 4, 70, 119
6, 123762, Note_off_c, 4, 70, 64
6, 123840, Control_c, 4, 11, 127
6, 123844, Note_on_c, 4, 67, 112
6, 123888, Control_c, 4, 11, 124
6, 123936, Control_c, 4, 11, 121
6, 124008, Control_c, 4, 11, 118
6, 124056, Control_c, 4, 11, 115
6, 124104, Control_c, 4, 11, 111
6, 124176, Control_c, 4, 11, 108
6, 124224, Control_c, 4, 11, 105
6, 124296, Control_c, 4, 11, 101
6, 124320, Control_c, 4, 11, 99
6, 124392, Control_c, 4, 11, 103
6, 124464, Control_c, 4, 11, 106
6, 124488, Control_c, 4, 11, 109
6, 124560, Control_c, 4, 11, 113
6, 124632, Control_c, 4, 11, 118
6, 124704, Control_c, 4, 11, 121
6, 124718, Note_off_c, 4, 67, 64
6, 124752, Control_c, 4, 11, 124
6, 124776, Control_c, 4, 11, 127
6, 124806, Note_on_c, 4, 67, 123
6, 124960, Note_off_c, 4, 67, 64
6, 125280, Note_on_c, 4, 55, 119
6, 125555, Note_off_c, 4, 55, 64
6, 125649, Note_on_c, 4, 55, 119
6, 125695, Note_off_c, 4, 55, 64
6, 125768, Note_on_c, 4, 67, 112
6, 126187, Note_off_c, 4, 67, 64
6, 126246, Note_on_c, 4, 66, 119
6, 126520, Note_off_c, 4, 66, 64
6, 126606, Note_on_c, 4, 65, 113
6, 126653, Note_off_c, 4, 65, 64
6, 126725, Note_on_c, 4, 64, 123
6, 126771, Note_off_c, 4, 64, 64
6, 126844, Note_on_c, 4, 63, 113
6, 126878, Note_off_c, 4, 63, 64
6, 126965, Note_on_c, 4, 64, 117
6, 127035, Note_off_c, 4, 64, 64
6, 127449, Note_on_c, 4, 56, 118
6, 127507, Note_off_c, 4, 56, 64
6, 127680, Note_on_c, 4, 61, 112
6, 128098, Note_off_c, 4, 61, 64
6, 128167, Note_on_c, 4, 60, 118
6, 128443, Note_off_c, 4, 60, 64
6, 128525, Note_on_c, 4, 59, 119
6, 128573, Note_off_c, 4, 59, 64
6, 128639, Note_on_c, 4, 58, 125
6, 128685, Note_off_c, 4, 58, 64
6, 128769, Note_on_c, 4, 57, 114
6, 128804, Note_off_c, 4, 57, 64
6, 128889, Note_on_c, 4, 58, 119
6, 128960, Note_off_c, 4, 58, 64
6, 129366, Note_on_c, 4, 51, 117
6, 129424, Note_off_c, 4, 51, 64
6, 129609, Note_on_c, 4, 54, 112
6, 130003, Note_off_c, 4, 54, 64
6, 130087, Note_on_c, 4, 51, 126
6, 130363, Note_off_c, 4, 51, 64
6, 130444, Note_on_c, 4, 58, 116
6, 130491, Note_off_c, 4, 58, 64
6, 130569, Note_on_c, 4, 55, 114
6, 130724, Note_off_c, 4, 55, 64
6, 131047, Note_on_c, 4, 51, 123
6, 131323, Note_off_c, 4, 51, 64
6, 131409, Note_on_c, 4, 58, 116
6, 131455, Note_off_c, 4, 58, 64
6, 131520, Control_c, 4, 11, 127
6, 131524, Note_on_c, 4, 55, 108
6, 131640, Control_c, 4, 11, 124
6, 131736, Control_c, 4, 11, 121
6, 131856, Control_c, 4, 11, 119
6, 131928, Control_c, 4, 11, 116
6, 132048, Control_c, 4, 11, 114
6, 132120, Control_c, 4, 11, 111
6, 132240, Control_c, 4, 11, 109
6, 132312, Control_c, 4, 11, 106
6, 132398, Note_off_c, 4, 55, 64
6, 132408, Control_c, 4, 11, 104
6, 132456, Control_c, 4, 11, 127
6, 132485, Note_on_c, 4, 55, 96
6, 132832, Note_off_c, 4, 55, 64
6, 132969, Note_on_c, 4, 55, 93
6, 133039, Note_off_c, 4, 55, 64
6, 133196, Note_on_c, 4, 55, 96
6, 133252, Note_off_c, 4, 55, 64
6, 133286, Note_on_c, 4, 55, 97
6, 133340, Note_off_c, 4, 55, 64
6, 133364, Note_on_c, 4, 55, 90
6, 133419, Note_off_c, 4, 55, 64
6, 133449, Note_on_c, 4, 55, 97
6, 133519, Note_off_c, 4, 55, 64
6, 133684, Note_on_c, 4, 55, 98
6, 133739, Note_off_c, 4, 55, 64
6, 133769, Note_on_c, 4, 55, 98
6, 133823, Note_off_c, 4, 55, 64
6, 133848, Note_on_c, 4, 55, 90
6, 133902, Note_off_c, 4, 55, 64
6, 133925, Note_on_c, 4, 57, 92
6, 133926, Note_on_c, 4, 58, 92
6, 133927, Note_on_c, 4, 66, 98
6, 133928, Note_on_c, 4, 63, 92
6, 133979, Note_off_c, 4, 57, 64
6, 133981, Note_off_c, 4, 58, 64
6, 133982, Note_off_c, 4, 66, 64
6, 133982, Note_off_c, 4, 63, 64
6, 134005, Note_on_c, 4, 58, 85
6, 134006, Note_on_c, 4, 63, 83
6, 134009, Note_on_c, 4, 66, 92
6, 134009, Note_on_c, 4, 57, 84
6, 134059, Note_off_c, 4, 58, 64
6, 134060, Note_off_c, 4, 63, 64
6, 134064, Note_off_c, 4, 66, 64
6, 134064, Note_off_c, 4, 57, 64
6, 134086, Note_on_c, 4, 66, 92
6, 134086, Note_on_c, 4, 58, 84
6, 134087, Note_on_c, 4, 63, 84
6, 134087, Note_on_c, 4, 57, 84
6, 134140, Note_off_c, 4, 58, 64
6, 134141, Note_off_c, 4, 57, 64
6, 134142, Note_off_c, 4, 63, 64
6, 134142, Note_off_c, 4, 66, 64
6, 134165, Note_on_c, 4, 66, 90
6, 134165, Note_on_c, 4, 63, 85
6, 134167, Note_on_c, 4, 58, 83
6, 134168, Note_on_c, 4, 57, 84
6, 134236, Note_off_c, 4, 66, 64
6, 134236, Note_off_c, 4, 63, 64
6, 134238, Note_off_c, 4, 57, 64
6, 134239, Note_off_c, 4, 58, 64
6, 134404, Note_on_c, 4, 55, 94
6, 134751, Note_off_c, 4, 55, 64
6, 134887, Note_on_c, 4, 55, 96
6, 134959, Note_off_c, 4, 55, 64
6, 135123, Note_on_c, 4, 55, 98
6, 135177, Note_off_c, 4, 55, 64
6, 135208, Note_on_c, 4, 55, 93
6, 135263, Note_off_c, 4, 55, 64
6, 135283, Note_on_c, 4, 55, 90
6, 135337, Note_off_c, 4, 55, 64
6, 135368, Note_on_c, 4, 55, 94
6, 135438, Note_off_c, 4, 55, 64
6, 135609, Note_on_c, 4, 55, 94
6, 135665, Note_off_c, 4, 55, 64
6, 135688, Note_on_c, 4, 55, 97
6, 135743, Note_off_c, 4, 55, 64
6, 135768, Note_on_c, 4, 55, 91
6, 135824, Note_off_c, 4, 55, 64
6, 135843, Note_on_c, 4, 57, 92
6, 135844, Note_on_c, 4, 58, 88
6, 135846, Note_on_c, 4, 66, 94
6, 135849, Note_on_c, 4, 63, 91
6, 135897, Note_off_c, 4, 57, 64
6, 135898, Note_off_c, 4, 58, 64
6, 135901, Note_off_c, 4, 66, 64
6, 135903, Note_off_c, 4, 63, 64
6, 135925, Note_on_c, 4, 63, 85
6, 135927, Note_on_c, 4, 57, 85
6, 135927, Note_on_c, 4, 66, 92
6, 135929, Note_on_c, 4, 58, 84
6, 135980, Note_off_c, 4, 63, 64
6, 135982, Note_off_c, 4, 57, 64
6, 135982, Note_off_c, 4, 66, 64
6, 135985, Note_off_c, 4, 58, 64
6, 135999, Note_on_c, 4, 66, 87
6, 136004, Note_on_c, 4, 58, 84
6, 136007, Note_on_c, 4, 57, 85
6, 136009, Note_on_c, 4, 63, 81
6, 136054, Note_off_c, 4, 66, 64
6, 136058, Note_off_c, 4, 58, 64
6, 136061, Note_off_c, 4, 57, 64
6, 136064, Note_off_c, 4, 63, 64
6, 136083, Note_on_c, 4, 57, 82
6, 136085, Note_on_c, 4, 66, 90
6, 136086, Note_on_c, 4, 58, 82
6, 136086, Note_on_c, 4, 63, 84
6, 136154, Note_off_c, 4, 57, 64
6, 136155, Note_off_c, 4, 66, 64
6, 136156, Note_off_c, 4, 58, 64
6, 136156, Note_off_c, 4, 63, 64
6, 136329, Note_on_c, 4, 55, 96
6, 136676, Note_off_c, 4, 55, 64
6, 136803, Note_on_c, 4, 55, 96
6, 136874, Note_off_c, 4, 55, 64
6, 137049, Note_on_c, 4, 55, 98
6, 137105, Note_off_c, 4, 55, 64
6, 137128, Note_on_c, 4, 55, 98
6, 137184, Note_off_c, 4, 55, 64
6, 137208, Note_on_c, 4, 55, 92
6, 137262, Note_off_c, 4, 55, 64
6, 137289, Note_on_c, 4, 55, 96
6, 137359, Note_off_c, 4, 55, 64
6, 137528, Note_on_c, 4, 55, 98
6, 137582, Note_off_c, 4, 55, 64
6, 137606, Note_on_c, 4, 55, 97
6, 137660, Note_off_c, 4, 55, 64
6, 137683, Note_on_c, 4, 55, 91
6, 137737, Note_off_c, 4, 55, 64
6, 137765, Note_on_c, 4, 66, 98
6, 137766, Note_on_c, 4, 57, 89
6, 137768, Note_on_c, 4, 58, 86
6, 137768, Note_on_c, 4, 63, 90
6, 137819, Note_off_c, 4, 66, 64
6, 137821, Note_off_c, 4, 57, 64
6, 137823, Note_off_c, 4, 58, 64
6, 137823, Note_off_c, 4, 63, 64
6, 137845, Note_on_c, 4, 66, 91
6, 137847, Note_on_c, 4, 57, 83
6, 137848, Note_on_c, 4, 63, 85
6, 137849, Note_on_c, 4, 58, 85
6, 137900, Note_off_c, 4, 66, 64
6, 137901, Note_off_c, 4, 57, 64
6, 137903, Note_off_c, 4, 58, 64
6, 137904, Note_off_c, 4, 63, 64
6, 137925, Note_on_c, 4, 57, 85
6, 137926, Note_on_c, 4, 66, 90
6, 137928, Note_on_c, 4, 58, 80
6, 137928, Note_on_c, 4, 63, 82
6, 137979, Note_off_c, 4, 57, 64
6, 137981, Note_off_c, 4, 66, 64
6, 137982, Note_off_c, 4, 58, 64
6, 137983, Note_off_c, 4, 63, 64
6, 138000, Note_on_c, 4, 63, 84
6, 138003, Note_on_c, 4, 57, 84
6, 138006, Note_on_c, 4, 58, 85
6, 138009, Note_on_c, 4, 66, 91
6, 138070, Note_off_c, 4, 63, 64
6, 138073, Note_off_c, 4, 57, 64
6, 138076, Note_off_c, 4, 58, 64
6, 138079, Note_off_c, 4, 66, 64
6, 138249, Note_on_c, 4, 55, 98
6, 138595, Note_off_c, 4, 55, 64
6, 138726, Note_on_c, 4, 55, 98
6, 138796, Note_off_c, 4, 55, 64
6, 138967, Note_on_c, 4, 55, 97
6, 139021, Note_off_c, 4, 55, 64
6, 139049, Note_on_c, 4, 55, 98
6, 139103, Note_off_c, 4, 55, 64
6, 139128, Note_on_c, 4, 55, 89
6, 139182, Note_off_c, 4, 55, 64
6, 139209, Note_on_c, 4, 55, 93
6, 139281, Note_off_c, 4, 55, 64
6, 139447, Note_on_c, 4, 55, 95
6, 139502, Note_off_c, 4, 55, 64
6, 139522, Note_on_c, 4, 55, 92
6, 139577, Note_off_c, 4, 55, 64
6, 139605, Note_on_c, 4, 55, 91
6, 139660, Note_off_c, 4, 55, 64
6, 139682, Note_on_c, 4, 66, 93
6, 139686, Note_on_c, 4, 57, 86
6, 139687, Note_on_c, 4, 63, 89
6, 139688, Note_on_c, 4, 58, 90
6, 139736, Note_off_c, 4, 66, 64
6, 139740, Note_off_c, 4, 57, 64
6, 139742, Note_off_c, 4, 63, 64
6, 139742, Note_off_c, 4, 58, 64
6, 139763, Note_on_c, 4, 63, 85
6, 139766, Note_on_c, 4, 58, 85
6, 139766, Note_on_c, 4, 57, 85
6, 139768, Note_on_c, 4, 66, 89
6, 139818, Note_off_c, 4, 63, 64
6, 139820, Note_off_c, 4, 57, 64
6, 139821, Note_off_c, 4, 58, 64
6, 139822, Note_off_c, 4, 66, 64
6, 139842, Note_on_c, 4, 57, 85
6, 139845, Note_on_c, 4, 58, 83
6, 139847, Note_on_c, 4, 63, 84
6, 139849, Note_on_c, 4, 66, 90
6, 139896, Note_off_c, 4, 57, 64
6, 139899, Note_off_c, 4, 58, 64
6, 139901, Note_off_c, 4, 63, 64
6, 139904, Note_off_c, 4, 66, 64
6, 139924, Note_on_c, 4, 66, 91
6, 139925, Note_on_c, 4, 63, 83
6, 139925, Note_on_c, 4, 58, 83
6, 139928, Note_on_c, 4, 57, 84
6, 139994, Note_off_c, 4, 66, 64
6, 139995, Note_off_c, 4, 63, 64
6, 139995, Note_off_c, 4, 58, 64
6, 139998, Note_off_c, 4, 57, 64
6, 140169, Note_on_c, 4, 55, 101
6, 140275, Note_off_c, 4, 55, 64
6, 143496, Control_c, 4, 11, 104
6, 143523, Note_on_c, 4, 63, 108
6, 143528, Note_on_c, 4, 55, 104
6, 143529, Note_on_c, 4, 58, 104
6, 143616, Control_c, 4, 11, 105
6, 143736, Control_c, 4, 11, 108
6, 143797, Note_off_c, 4, 63, 64
6, 143832, Control_c, 4, 11, 111
6, 143856, Control_c, 4, 11, 114
6, 143884, Note_on_c, 4, 70, 109
6, 143904, Control_c, 4, 11, 118
6, 143923, Note_off_c, 4, 55, 64
6, 143924, Note_off_c, 4, 58, 64
6, 143928, Control_c, 4, 11, 121
6, 143942, Note_off_c, 4, 70, 64
6, 143952, Control_c, 4, 11, 127
6, 144004, Note_on_c, 4, 67, 119
6, 144006, Note_on_c, 4, 55, 119
6, 144099, Note_off_c, 4, 67, 64
6, 144100, Note_off_c, 4, 55, 64
6, 144487, Note_on_c, 4, 55, 104
6, 144488, Note_on_c, 4, 67, 114
6, 144546, Note_off_c, 4, 55, 64
6, 144548, Note_off_c, 4, 67, 64
6, 144729, Note_on_c, 4, 67, 119
6, 144729, Note_on_c, 4, 55, 104
6, 144771, Note_off_c, 4, 55, 64
6, 144772, Note_off_c, 4, 67, 64
6, 144801, Note_on_c, 4, 67, 119
6, 144808, Note_on_c, 4, 55, 103
6, 144843, Note_off_c, 4, 67, 64
6, 144851, Note_off_c, 4, 55, 64
6, 144887, Note_on_c, 4, 55, 95
6, 144889, Note_on_c, 4, 67, 107
6, 144929, Note_off_c, 4, 55, 64
6, 144931, Note_off_c, 4, 67, 64
6, 144961, Note_on_c, 4, 60, 104
6, 144964, Note_on_c, 4, 56, 103
6, 144969, Note_on_c, 4, 67, 107
6, 145019, Note_off_c, 4, 60, 64
6, 145022, Note_off_c, 4, 56, 64
6, 145027, Note_off_c, 4, 67, 64
6, 145205, Note_on_c, 4, 67, 110
6, 145205, Note_on_c, 4, 60, 104
6, 145209, Note_on_c, 4, 56, 104
6, 145247, Note_off_c, 4, 60, 64
6, 145248, Note_off_c, 4, 67, 64
6, 145251, Note_off_c, 4, 56, 64
6, 145285, Note_on_c, 4, 56, 102
6, 145286, Note_on_c, 4, 60, 103
6, 145287, Note_on_c, 4, 67, 107
6, 145328, Note_off_c, 4, 56, 64
6, 145328, Note_off_c, 4, 60, 64
6, 145329, Note_off_c, 4, 67, 64
6, 145360, Note_on_c, 4, 67, 102
6, 145364, Note_on_c, 4, 60, 96
6, 145368, Note_on_c, 4, 56, 96
6, 145403, Note_off_c, 4, 67, 64
6, 145406, Note_off_c, 4, 60, 64
6, 145410, Note_off_c, 4, 56, 64
6, 145438, Note_on_c, 4, 56, 109
6, 145444, Note_on_c, 4, 61, 109
6, 145449, Note_on_c, 4, 67, 117
6, 145481, Note_off_c, 4, 56, 64
6, 145488, Note_off_c, 4, 61, 64
6, 145491, Note_off_c, 4, 67, 64
6, 145523, Note_on_c, 4, 67, 106
6, 145525, Note_on_c, 4, 56, 103
6, 145526, Note_on_c, 4, 61, 103
6, 145565, Note_off_c, 4, 67, 64
6, 145568, Note_off_c, 4, 61, 64
6, 145568, Note_off_c, 4, 56, 64
6, 145604, Note_on_c, 4, 56, 94
6, 145607, Note_on_c, 4, 61, 94
6, 145609, Note_on_c, 4, 67, 98
6, 145646, Note_off_c, 4, 56, 64
6, 145651, Note_off_c, 4, 67, 64
6, 145652, Note_off_c, 4, 61, 64
6, 145688, Note_on_c, 4, 67, 110
6, 145689, Note_on_c, 4, 61, 104
6, 145689, Note_on_c, 4, 56, 104
6, 145747, Note_off_c, 4, 67, 64
6, 145747, Note_off_c, 4, 56, 64
6, 145749, Note_off_c, 4, 61, 64
6, 145922, Note_on_c, 4, 56, 103
6, 145928, Note_on_c, 4, 63, 103
6, 145929, Note_on_c, 4, 67, 109
6, 146017, Note_off_c, 4, 56, 64
6, 146023, Note_off_c, 4, 63, 64
6, 146024, Note_off_c, 4, 67, 64
6, 146406, Note_on_c, 4, 64, 103
6, 146408, Note_on_c, 4, 67, 110
6, 146409, Note_on_c, 4, 56, 104
6, 146464, Note_off_c, 4, 64, 64
6, 146467, Note_off_c, 4, 56, 64
6, 146467, Note_off_c, 4, 67, 64
6, 146645, Note_on_c, 4, 56, 103
6, 146649, Note_on_c, 4, 64, 104
6, 146649, Note_on_c, 4, 67, 110
6, 146688, Note_off_c, 4, 56, 64
6, 146691, Note_off_c, 4, 64, 64
6, 146692, Note_off_c, 4, 67, 64
6, 146723, Note_on_c, 4, 67, 108
6, 146724, Note_on_c, 4, 64, 104
6, 146727, Note_on_c, 4, 56, 104
6, 146765, Note_off_c, 4, 67, 64
6, 146766, Note_off_c, 4, 64, 64
6, 146769, Note_off_c, 4, 56, 64
6, 146805, Note_on_c, 4, 64, 97
6, 146806, Note_on_c, 4, 67, 100
6, 146809, Note_on_c, 4, 56, 97
6, 146847, Note_off_c, 4, 64, 64
6, 146848, Note_off_c, 4, 67, 64
6, 146851, Note_off_c, 4, 56, 64
6, 146885, Note_on_c, 4, 67, 107
6, 146886, Note_on_c, 4, 65, 103
6, 146886, Note_on_c, 4, 56, 102
6, 146944, Note_off_c, 4, 67, 64
6, 146945, Note_off_c, 4, 56, 64
6, 146945, Note_off_c, 4, 65, 64
6, 147123, Note_on_c, 4, 56, 103
6, 147125, Note_on_c, 4, 65, 104
6, 147125, Note_on_c, 4, 67, 109
6, 147167, Note_off_c, 4, 56, 64
6, 147167, Note_off_c, 4, 67, 64
6, 147167, Note_off_c, 4, 65, 64
6, 147203, Note_on_c, 4, 67, 108
6, 147209, Note_on_c, 4, 65, 102
6, 147209, Note_on_c, 4, 56, 101
6, 147246, Note_off_c, 4, 67, 64
6, 147251, Note_off_c, 4, 56, 64
6, 147251, Note_off_c, 4, 65, 64
6, 147286, Note_on_c, 4, 56, 98
6, 147287, Note_on_c, 4, 65, 95
6, 147288, Note_on_c, 4, 67, 100
6, 147328, Note_off_c, 4, 56, 64
6, 147329, Note_off_c, 4, 65, 64
6, 147331, Note_off_c, 4, 67, 64
6, 147366, Note_on_c, 4, 67, 119
6, 147368, Note_on_c, 4, 66, 109
6, 147368, Note_on_c, 4, 56, 110
6, 147409, Note_off_c, 4, 67, 64
6, 147410, Note_off_c, 4, 56, 64
6, 147411, Note_off_c, 4, 66, 64
6, 147444, Note_on_c, 4, 66, 99
6, 147446, Note_on_c, 4, 56, 103
6, 147449, Note_on_c, 4, 67, 108
6, 147487, Note_off_c, 4, 66, 64
6, 147489, Note_off_c, 4, 56, 64
6, 147491, Note_off_c, 4, 67, 64
6, 147524, Note_on_c, 4, 56, 98
6, 147529, Note_on_c, 4, 66, 94
6, 147529, Note_on_c, 4, 67, 102
6, 147567, Note_off_c, 4, 56, 64
6, 147571, Note_off_c, 4, 66, 64
6, 147573, Note_off_c, 4, 67, 64
6, 147601, Note_on_c, 4, 56, 102
6, 147602, Note_on_c, 4, 67, 110
6, 147608, Note_on_c, 4, 66, 102
6, 147661, Note_off_c, 4, 56, 64
6, 147662, Note_off_c, 4, 67, 64
6, 147667, Note_off_c, 4, 66, 64
6, 147844, Note_on_c, 4, 67, 119
6, 147848, Note_on_c, 4, 55, 105
6, 147887, Note_off_c, 4, 67, 64
6, 147890, Note_off_c, 4, 55, 64
6, 147926, Note_on_c, 4, 55, 103
6, 147929, Note_on_c, 4, 67, 110
6, 147968, Note_off_c, 4, 55, 64
6, 147971, Note_off_c, 4, 67, 64
6, 148008, Note_on_c, 4, 67, 104
6, 148009, Note_on_c, 4, 55, 96
6, 148050, Note_off_c, 4, 67, 64
6, 148051, Note_off_c, 4, 55, 64
6, 148085, Note_on_c, 4, 62, 104
6, 148086, Note_on_c, 4, 60, 98
6, 148296, Control_c, 4, 11, 127
6, 148320, Control_c, 4, 11, 104
6, 148344, Control_c, 4, 11, 98
6, 148368, Control_c, 4, 11, 93
6, 148392, Control_c, 4, 11, 89
6, 148416, Control_c, 4, 11, 85
6, 148440, Control_c, 4, 11, 82
6, 148488, Control_c, 4, 11, 77
6, 148536, Control_c, 4, 11, 74
6, 148560, Control_c, 4, 11, 71
6, 148632, Control_c, 4, 11, 67
6, 148752, Control_c, 4, 11, 66
6, 148776, Control_c, 4, 11, 66
6, 148776, Control_c, 4, 11, 67
6, 148800, Control_c, 4, 11, 64
6, 148800, Control_c, 4, 11, 65
6, 149208, Control_c, 4, 11, 65
6, 149760, Control_c, 4, 11, 64
6, 149825, Note_off_c, 4, 62, 64
6, 149826, Note_off_c, 4, 60, 64
6, 150024, Control_c, 4, 11, 65
6, 150216, Control_c, 4, 11, 66
6, 150336, Control_c, 4, 11, 67
6, 150456, Control_c, 4, 11, 69
6, 150576, Control_c, 4, 11, 70
6, 150696, Control_c, 4, 11, 72
6, 150816, Control_c, 4, 11, 75
6, 150936, Control_c, 4, 11, 77
6, 151008, Control_c, 4, 11, 80
6, 151104, Control_c, 4, 11, 84
6, 151224, Control_c, 4, 11, 88
6, 151296, Control_c, 4, 11, 91
6, 151344, Control_c, 4, 11, 94
6, 151416, Control_c, 4, 11, 98
6, 151464, Control_c, 4, 11, 101
6, 151488, Control_c, 4, 11, 104
6, 151536, Control_c, 4, 11, 108
6, 151584, Control_c, 4, 11, 114
6, 151608, Control_c, 4, 11, 119
6, 151656, Control_c, 4, 11, 127
6, 151685, Note_on_c, 4, 67, 114
6, 151689, Note_on_c, 4, 55, 117
6, 151803, Note_off_c, 4, 67, 64
6, 151807, Note_off_c, 4, 55, 64
6, 154806, Note_on_c, 4, 62, 106
6, 154807, Note_on_c, 4, 67, 107
6, 154849, Note_off_c, 4, 62, 64
6, 154849, Note_off_c, 4, 67, 64
6, 154888, Note_on_c, 4, 62, 104
6, 154888, Note_on_c, 4, 67, 110
6, 154931, Note_off_c, 4, 62, 64
6, 154931, Note_off_c, 4, 67, 64
6, 154966, Note_on_c, 4, 67, 104
6, 154968, Note_on_c, 4, 62, 104
6, 155008, Note_off_c, 4, 67, 64
6, 155010, Note_off_c, 4, 62, 64
6, 155047, Note_on_c, 4, 55, 119
6, 155048, Note_on_c, 4, 67, 113
6, 155105, Note_off_c, 4, 55, 64
6, 155107, Note_off_c, 4, 67, 64
6, 159360, Control_c, 4, 123, 0
6, 159360, End_track
7, 0, Start_track
7, 0, Text_t, "Trumpets"
7, 0, Program_c, 5, 56
7, 0, Control_c, 5, 93, 70
7, 0, Control_c, 5, 10, 54
7, 0, Control_c, 5, 91, 127
7, 0, Control_c, 5, 11, 127
7, 0, Control_c, 5, 7, 127
7, 0, Control_c, 5, 123, 0
7, 13449, Note_on_c, 5, 67, 125
7, 13843, Note_off_c, 5, 67, 64
7, 13929, Note_on_c, 5, 67, 123
7, 14323, Note_off_c, 5, 67, 64
7, 14409, Note_on_c, 5, 67, 124
7, 14803, Note_off_c, 5, 67, 64
7, 14888, Note_on_c, 5, 63, 127
7, 15162, Note_off_c, 5, 63, 64
7, 15244, Note_on_c, 5, 70, 125
7, 15291, Note_off_c, 5, 70, 64
7, 15368, Note_on_c, 5, 67, 122
7, 15764, Note_off_c, 5, 67, 64
7, 15849, Note_on_c, 5, 63, 127
7, 16124, Note_off_c, 5, 63, 64
7, 16208, Note_on_c, 5, 70, 125
7, 16254, Note_off_c, 5, 70, 64
7, 16324, Note_on_c, 5, 67, 125
7, 17200, Note_off_c, 5, 67, 64
7, 17289, Note_on_c, 5, 74, 125
7, 17683, Note_off_c, 5, 74, 64
7, 17769, Note_on_c, 5, 74, 125
7, 18163, Note_off_c, 5, 74, 64
7, 18248, Note_on_c, 5, 74, 125
7, 18642, Note_off_c, 5, 74, 64
7, 18726, Note_on_c, 5, 75, 127
7, 19001, Note_off_c, 5, 75, 64
7, 19089, Note_on_c, 5, 70, 124
7, 19135, Note_off_c, 5, 70, 64
7, 19207, Note_on_c, 5, 66, 122
7, 19602, Note_off_c, 5, 66, 64
7, 19689, Note_on_c, 5, 63, 127
7, 19965, Note_off_c, 5, 63, 64
7, 20049, Note_on_c, 5, 70, 124
7, 20095, Note_off_c, 5, 70, 64
7, 20165, Note_on_c, 5, 67, 124
7, 21039, Note_off_c, 5, 67, 64
7, 21123, Note_on_c, 5, 79, 127
7, 21518, Note_off_c, 5, 79, 64
7, 21606, Note_on_c, 5, 67, 125
7, 21881, Note_off_c, 5, 67, 64
7, 21967, Note_on_c, 5, 67, 120
7, 22013, Note_off_c, 5, 67, 64
7, 22082, Note_on_c, 5, 79, 123
7, 22500, Note_off_c, 5, 79, 64
7, 22561, Note_on_c, 5, 78, 124
7, 22836, Note_off_c, 5, 78, 64
7, 22926, Note_on_c, 5, 77, 125
7, 22972, Note_off_c, 5, 77, 64
7, 23046, Note_on_c, 5, 76, 127
7, 23092, Note_off_c, 5, 76, 64
7, 23166, Note_on_c, 5, 75, 122
7, 23200, Note_off_c, 5, 75, 64
7, 23285, Note_on_c, 5, 76, 121
7, 23355, Note_off_c, 5, 76, 64
7, 23768, Note_on_c, 5, 68, 124
7, 23827, Note_off_c, 5, 68, 64
7, 24008, Note_on_c, 5, 73, 119
7, 24426, Note_off_c, 5, 73, 64
7, 24487, Note_on_c, 5, 72, 120
7, 24761, Note_off_c, 5, 72, 64
7, 24845, Note_on_c, 5, 71, 125
7, 24891, Note_off_c, 5, 71, 64
7, 24965, Note_on_c, 5, 70, 127
7, 25011, Note_off_c, 5, 70, 64
7, 25087, Note_on_c, 5, 69, 125
7, 25121, Note_off_c, 5, 69, 64
7, 25207, Note_on_c, 5, 70, 124
7, 25278, Note_off_c, 5, 70, 64
7, 25689, Note_on_c, 5, 63, 124
7, 25747, Note_off_c, 5, 63, 64
7, 25925, Note_on_c, 5, 66, 118
7, 26344, Note_off_c, 5, 66, 64
7, 26409, Note_on_c, 5, 63, 127
7, 26683, Note_off_c, 5, 63, 64
7, 26763, Note_on_c, 5, 67, 124
7, 26809, Note_off_c, 5, 67, 64
7, 26889, Note_on_c, 5, 70, 125
7, 27283, Note_off_c, 5, 70, 64
7, 27365, Note_on_c, 5, 67, 127
7, 27639, Note_off_c, 5, 67, 64
7, 27729, Note_on_c, 5, 70, 125
7, 27776, Note_off_c, 5, 70, 64
7, 27849, Note_on_c, 5, 74, 123
7, 28723, Note_off_c, 5, 74, 64
7, 28806, Note_on_c, 5, 79, 127
7, 29200, Note_off_c, 5, 79, 64
7, 29288, Note_on_c, 5, 67, 124
7, 29562, Note_off_c, 5, 67, 64
7, 29649, Note_on_c, 5, 67, 125
7, 29695, Note_off_c, 5, 67, 64
7, 29761, Note_on_c, 5, 79, 119
7, 30181, Note_off_c, 5, 79, 64
7, 30248, Note_on_c, 5, 78, 125
7, 30522, Note_off_c, 5, 78, 64
7, 30608, Note_on_c, 5, 77, 124
7, 30654, Note_off_c, 5, 77, 64
7, 30729, Note_on_c, 5, 76, 127
7, 30775, Note_off_c, 5, 76, 64
7, 30847, Note_on_c, 5, 75, 122
7, 30883, Note_off_c, 5, 75, 64
7, 30961, Note_on_c, 5, 76, 122
7, 31032, Note_off_c, 5, 76, 64
7, 31445, Note_on_c, 5, 68, 123
7, 31504, Note_off_c, 5, 68, 64
7, 31680, Note_on_c, 5, 64, 96
7, 31686, Note_on_c, 5, 73, 116
7, 31687, Note_on_c, 5, 68, 97
7, 32098, Note_off_c, 5, 64, 64
7, 32105, Note_off_c, 5, 68, 64
7, 32105, Note_off_c, 5, 73, 64
7, 32166, Note_on_c, 5, 64, 104
7, 32169, Note_on_c, 5, 68, 103
7, 32169, Note_on_c, 5, 72, 125
7, 32441, Note_off_c, 5, 64, 64
7, 32443, Note_off_c, 5, 68, 64
7, 32444, Note_off_c, 5, 72, 64
7, 32521, Note_on_c, 5, 71, 125
7, 32528, Note_on_c, 5, 68, 104
7, 32528, Note_on_c, 5, 64, 102
7, 32567, Note_off_c, 5, 71, 64
7, 32575, Note_off_c, 5, 68, 64
7, 32576, Note_off_c, 5, 64, 64
7, 32646, Note_on_c, 5, 66, 110
7, 32646, Note_on_c, 5, 63, 105
7, 32648, Note_on_c, 5, 70, 127
7, 32692, Note_off_c, 5, 66, 64
7, 32694, Note_off_c, 5, 70, 64
7, 32694, Note_off_c, 5, 63, 64
7, 32767, Note_on_c, 5, 63, 103
7, 32768, Note_on_c, 5, 69, 125
7, 32769, Note_on_c, 5, 66, 102
7, 32801, Note_off_c, 5, 63, 64
7, 32802, Note_off_c, 5, 69, 64
7, 32806, Note_off_c, 5, 66, 64
7, 32887, Note_on_c, 5, 63, 104
7, 32888, Note_on_c, 5, 66, 102
7, 32889, Note_on_c, 5, 70, 125
7, 32958, Note_off_c, 5, 63, 64
7, 32959, Note_off_c, 5, 66, 64
7, 32960, Note_off_c, 5, 70, 64
7, 33366, Note_on_c, 5, 63, 122
7, 33425, Note_off_c, 5, 63, 64
7, 33605, Note_on_c, 5, 58, 98
7, 33609, Note_on_c, 5, 63, 97
7, 33609, Note_on_c, 5, 66, 118
7, 34023, Note_off_c, 5, 58, 64
7, 34027, Note_off_c, 5, 66, 64
7, 34027, Note_off_c, 5, 63, 64
7, 34086, Note_on_c, 5, 63, 127
7, 34360, Note_off_c, 5, 63, 64
7, 34447, Note_on_c, 5, 70, 122
7, 34496, Note_off_c, 5, 70, 64
7, 34568, Note_on_c, 5, 67, 125
7, 34916, Note_off_c, 5, 67, 64
7, 35048, Note_on_c, 5, 63, 123
7, 35323, Note_off_c, 5, 63, 64
7, 35402, Note_on_c, 5, 70, 125
7, 35449, Note_off_c, 5, 70, 64
7, 35520, Control_c, 5, 11, 127
7, 35528, Note_on_c, 5, 67, 125
7, 35568, Control_c, 5, 11, 124
7, 35616, Control_c, 5, 11, 121
7, 35688, Control_c, 5, 11, 118
7, 35736, Control_c, 5, 11, 115
7, 35784, Control_c, 5, 11, 111
7, 35856, Control_c, 5, 11, 108
7, 35904, Control_c, 5, 11, 105
7, 35976, Control_c, 5, 11, 101
7, 36000, Control_c, 5, 11, 99
7, 36000, Control_c, 5, 11, 99
7, 36072, Control_c, 5, 11, 103
7, 36120, Control_c, 5, 11, 106
7, 36168, Control_c, 5, 11, 109
7, 36216, Control_c, 5, 11, 113
7, 36288, Control_c, 5, 11, 116
7, 36336, Control_c, 5, 11, 120
7, 36384, Control_c, 5, 11, 123
7, 36402, Note_off_c, 5, 67, 64
7, 36432, Control_c, 5, 11, 127
7, 40328, Note_on_c, 5, 67, 124
7, 40665, Note_off_c, 5, 67, 64
7, 40809, Note_on_c, 5, 67, 125
7, 40867, Note_off_c, 5, 67, 64
7, 41049, Note_on_c, 5, 67, 122
7, 41091, Note_off_c, 5, 67, 64
7, 41129, Note_on_c, 5, 67, 122
7, 41171, Note_off_c, 5, 67, 64
7, 41205, Note_on_c, 5, 67, 119
7, 41248, Note_off_c, 5, 67, 64
7, 41286, Note_on_c, 5, 67, 124
7, 41346, Note_off_c, 5, 67, 64
7, 41528, Note_on_c, 5, 67, 123
7, 41571, Note_off_c, 5, 67, 64
7, 41604, Note_on_c, 5, 67, 125
7, 41646, Note_off_c, 5, 67, 64
7, 41689, Note_on_c, 5, 67, 119
7, 41733, Note_off_c, 5, 67, 64
7, 41765, Note_on_c, 5, 78, 124
7, 41767, Note_on_c, 5, 75, 118
7, 41767, Note_on_c, 5, 70, 119
7, 41808, Note_off_c, 5, 78, 64
7, 41809, Note_off_c, 5, 70, 64
7, 41811, Note_off_c, 5, 75, 64
7, 41838, Note_on_c, 5, 70, 114
7, 41848, Note_on_c, 5, 75, 114
7, 41848, Note_on_c, 5, 78, 124
7, 41881, Note_off_c, 5, 70, 64
7, 41891, Note_off_c, 5, 78, 64
7, 41891, Note_off_c, 5, 75, 64
7, 41918, Note_on_c, 5, 70, 110
7, 41925, Note_on_c, 5, 75, 110
7, 41929, Note_on_c, 5, 78, 116
7, 41960, Note_off_c, 5, 70, 64
7, 41967, Note_off_c, 5, 75, 64
7, 41973, Note_off_c, 5, 78, 64
7, 42003, Note_on_c, 5, 78, 125
7, 42009, Note_on_c, 5, 75, 109
7, 42009, Note_on_c, 5, 70, 109
7, 42061, Note_off_c, 5, 78, 64
7, 42067, Note_off_c, 5, 70, 64
7, 42069, Note_off_c, 5, 75, 64
7, 42247, Note_on_c, 5, 70, 106
7, 42248, Note_on_c, 5, 74, 124
7, 42307, Note_off_c, 5, 70, 64
7, 42308, Note_off_c, 5, 74, 64
7, 42484, Note_on_c, 5, 70, 107
7, 42489, Note_on_c, 5, 74, 123
7, 42526, Note_off_c, 5, 70, 64
7, 42532, Note_off_c, 5, 74, 64
7, 42565, Note_on_c, 5, 74, 121
7, 42569, Note_on_c, 5, 70, 109
7, 42607, Note_off_c, 5, 74, 64
7, 42613, Note_off_c, 5, 70, 64
7, 42642, Note_on_c, 5, 74, 118
7, 42646, Note_on_c, 5, 70, 104
7, 42684, Note_off_c, 5, 74, 64
7, 42690, Note_off_c, 5, 70, 64
7, 42726, Note_on_c, 5, 75, 127
7, 42726, Note_on_c, 5, 71, 119
7, 42729, Note_on_c, 5, 68, 119
7, 42768, Note_off_c, 5, 71, 64
7, 42769, Note_off_c, 5, 75, 64
7, 42772, Note_off_c, 5, 68, 64
7, 42803, Note_on_c, 5, 71, 105
7, 42807, Note_on_c, 5, 68, 105
7, 42808, Note_on_c, 5, 75, 125
7, 42845, Note_off_c, 5, 71, 64
7, 42850, Note_off_c, 5, 75, 64
7, 42851, Note_off_c, 5, 68, 64
7, 42881, Note_on_c, 5, 71, 115
7, 42886, Note_on_c, 5, 68, 115
7, 42886, Note_on_c, 5, 75, 126
7, 42923, Note_off_c, 5, 71, 64
7, 42928, Note_off_c, 5, 75, 64
7, 42928, Note_off_c, 5, 68, 64
7, 42964, Note_on_c, 5, 77, 127
7, 42967, Note_on_c, 5, 73, 116
7, 42969, Note_on_c, 5, 70, 118
7, 43022, Note_off_c, 5, 77, 64
7, 43025, Note_off_c, 5, 73, 64
7, 43028, Note_off_c, 5, 70, 64
7, 43207, Note_on_c, 5, 72, 118
7, 43209, Note_on_c, 5, 75, 117
7, 43209, Note_on_c, 5, 79, 125
7, 43266, Note_off_c, 5, 72, 64
7, 43267, Note_off_c, 5, 79, 64
7, 43267, Note_off_c, 5, 75, 64
7, 43445, Note_on_c, 5, 79, 126
7, 43448, Note_on_c, 5, 75, 116
7, 43448, Note_on_c, 5, 72, 119
7, 43487, Note_off_c, 5, 79, 64
7, 43490, Note_off_c, 5, 72, 64
7, 43490, Note_off_c, 5, 75, 64
7, 43521, Note_on_c, 5, 75, 118
7, 43528, Note_on_c, 5, 79, 125
7, 43529, Note_on_c, 5, 72, 119
7, 43563, Note_off_c, 5, 75, 64
7, 43570, Note_off_c, 5, 79, 64
7, 43571, Note_off_c, 5, 72, 64
7, 43605, Note_on_c, 5, 79, 127
7, 43605, Note_on_c, 5, 75, 113
7, 43608, Note_on_c, 5, 72, 112
7, 43647, Note_off_c, 5, 79, 64
7, 43649, Note_off_c, 5, 75, 64
7, 43650, Note_off_c, 5, 72, 64
7, 43688, Note_on_c, 5, 80, 127
7, 43688, Note_on_c, 5, 76, 120
7, 43689, Note_on_c, 5, 73, 125
7, 43730, Note_off_c, 5, 76, 64
7, 43731, Note_off_c, 5, 73, 64
7, 43731, Note_off_c, 5, 80, 64
7, 43761, Note_on_c, 5, 76, 119
7, 43764, Note_on_c, 5, 80, 124
7, 43768, Note_on_c, 5, 73, 117
7, 43804, Note_off_c, 5, 76, 64
7, 43807, Note_off_c, 5, 80, 64
7, 43810, Note_off_c, 5, 73, 64
7, 43846, Note_on_c, 5, 76, 112
7, 43849, Note_on_c, 5, 73, 112
7, 43849, Note_on_c, 5, 80, 127
7, 43888, Note_off_c, 5, 76, 64
7, 43891, Note_off_c, 5, 80, 64
7, 43892, Note_off_c, 5, 73, 64
7, 43925, Note_on_c, 5, 75, 119
7, 43926, Note_on_c, 5, 82, 127
7, 43928, Note_on_c, 5, 78, 119
7, 43983, Note_off_c, 5, 75, 64
7, 43986, Note_off_c, 5, 78, 64
7, 43987, Note_off_c, 5, 82, 64
7, 72967, Note_on_c, 5, 70, 104
7, 73364, Note_off_c, 5, 70, 64
7, 73446, Note_on_c, 5, 58, 97
7, 73564, Note_off_c, 5, 58, 64
7, 73807, Note_on_c, 5, 58, 96
7, 73855, Note_off_c, 5, 58, 64
7, 73928, Note_on_c, 5, 70, 97
7, 74346, Note_off_c, 5, 70, 64
7, 74404, Note_on_c, 5, 69, 96
7, 74678, Note_off_c, 5, 69, 64
7, 74764, Note_on_c, 5, 68, 98
7, 74810, Note_off_c, 5, 68, 64
7, 74883, Note_on_c, 5, 67, 101
7, 74929, Note_off_c, 5, 67, 64
7, 75007, Note_on_c, 5, 66, 96
7, 75042, Note_off_c, 5, 66, 64
7, 75125, Note_on_c, 5, 67, 97
7, 75195, Note_off_c, 5, 67, 64
7, 75608, Note_on_c, 5, 59, 98
7, 75666, Note_off_c, 5, 59, 64
7, 75847, Note_on_c, 5, 64, 90
7, 76320, Control_c, 5, 11, 127
7, 76464, Control_c, 5, 11, 127
7, 76584, Control_c, 5, 11, 125
7, 76704, Control_c, 5, 11, 124
7, 76776, Control_c, 5, 11, 121
7, 76896, Control_c, 5, 11, 119
7, 76944, Control_c, 5, 11, 116
7, 77040, Control_c, 5, 11, 113
7, 77088, Control_c, 5, 11, 110
7, 77184, Control_c, 5, 11, 106
7, 77232, Control_c, 5, 11, 103
7, 77280, Control_c, 5, 11, 100
7, 77328, Control_c, 5, 11, 96
7, 77400, Control_c, 5, 11, 91
7, 77448, Control_c, 5, 11, 88
7, 77472, Control_c, 5, 11, 85
7, 77496, Control_c, 5, 11, 82
7, 77544, Control_c, 5, 11, 79
7, 77568, Control_c, 5, 11, 76
7, 77592, Control_c, 5, 11, 72
7, 77640, Control_c, 5, 11, 67
7, 77664, Control_c, 5, 11, 64
7, 77688, Control_c, 5, 11, 60
7, 77712, Control_c, 5, 11, 56
7, 77736, Control_c, 5, 11, 52
7, 77760, Control_c, 5, 11, 47
7, 77784, Control_c, 5, 11, 42
7, 77808, Control_c, 5, 11, 36
7, 77825, Note_off_c, 5, 64, 64
7, 77832, Control_c, 5, 11, 28
7, 77856, Control_c, 5, 11, 17
7, 78192, Control_c, 5, 11, 127
7, 78238, Note_on_c, 5, 63, 98
7, 78513, Note_off_c, 5, 63, 64
7, 78607, Note_on_c, 5, 62, 96
7, 78653, Note_off_c, 5, 62, 64
7, 78727, Note_on_c, 5, 61, 104
7, 78773, Note_off_c, 5, 61, 64
7, 78849, Note_on_c, 5, 60, 98
7, 78883, Note_off_c, 5, 60, 64
7, 78969, Note_on_c, 5, 61, 96
7, 79041, Note_off_c, 5, 61, 64
7, 79446, Note_on_c, 5, 54, 93
7, 79504, Note_off_c, 5, 54, 64
7, 79688, Note_on_c, 5, 57, 92
7, 80160, Control_c, 5, 11, 127
7, 80304, Control_c, 5, 11, 127
7, 80424, Control_c, 5, 11, 125
7, 80544, Control_c, 5, 11, 123
7, 80592, Control_c, 5, 11, 120
7, 80688, Control_c, 5, 11, 116
7, 80784, Control_c, 5, 11, 113
7, 80832, Control_c, 5, 11, 110
7, 80904, Control_c, 5, 11, 106
7, 80952, Control_c, 5, 11, 103
7, 81000, Control_c, 5, 11, 99
7, 81048, Control_c, 5, 11, 95
7, 81096, Control_c, 5, 11, 91
7, 81144, Control_c, 5, 11, 86
7, 81192, Control_c, 5, 11, 81
7, 81216, Control_c, 5, 11, 77
7, 81264, Control_c, 5, 11, 71
7, 81288, Control_c, 5, 11, 67
7, 81312, Control_c, 5, 11, 64
7, 81336, Control_c, 5, 11, 60
7, 81360, Control_c, 5, 11, 56
7, 81384, Control_c, 5, 11, 51
7, 81408, Control_c, 5, 11, 45
7, 81426, Note_off_c, 5, 57, 64
7, 81432, Control_c, 5, 11, 38
7, 81456, Control_c, 5, 11, 30
7, 81480, Control_c, 5, 11, 17
7, 81576, Control_c, 5, 11, 114
7, 81607, Note_on_c, 5, 54, 85
7, 81864, Control_c, 5, 11, 115
7, 82037, Note_off_c, 5, 54, 64
7, 82080, Control_c, 5, 11, 116
7, 82089, Note_on_c, 5, 61, 97
7, 82200, Control_c, 5, 11, 118
7, 82320, Control_c, 5, 11, 119
7, 82440, Control_c, 5, 11, 121
7, 82488, Control_c, 5, 11, 124
7, 82512, Control_c, 5, 11, 127
7, 82543, Note_off_c, 5, 61, 64
7, 82569, Note_on_c, 5, 58, 98
7, 82927, Note_off_c, 5, 58, 64
7, 83049, Note_on_c, 5, 54, 100
7, 83323, Note_off_c, 5, 54, 64
7, 83405, Note_on_c, 5, 61, 98
7, 83488, Note_off_c, 5, 61, 64
7, 83526, Note_on_c, 5, 58, 92
7, 84480, Control_c, 5, 11, 127
7, 84624, Control_c, 5, 11, 127
7, 84744, Control_c, 5, 11, 125
7, 84864, Control_c, 5, 11, 124
7, 84936, Control_c, 5, 11, 121
7, 85056, Control_c, 5, 11, 119
7, 85104, Control_c, 5, 11, 116
7, 85200, Control_c, 5, 11, 113
7, 85248, Control_c, 5, 11, 110
7, 85344, Control_c, 5, 11, 106
7, 85392, Control_c, 5, 11, 103
7, 85440, Control_c, 5, 11, 100
7, 85488, Control_c, 5, 11, 96
7, 85560, Control_c, 5, 11, 91
7, 85608, Control_c, 5, 11, 88
7, 85632, Control_c, 5, 11, 85
7, 85656, Control_c, 5, 11, 82
7, 85704, Control_c, 5, 11, 79
7, 85728, Control_c, 5, 11, 76
7, 85752, Control_c, 5, 11, 72
7, 85800, Control_c, 5, 11, 67
7, 85824, Control_c, 5, 11, 64
7, 85848, Control_c, 5, 11, 60
7, 85872, Control_c, 5, 11, 56
7, 85896, Control_c, 5, 11, 52
7, 85920, Control_c, 5, 11, 47
7, 85944, Control_c, 5, 11, 42
7, 85968, Control_c, 5, 11, 36
7, 85984, Note_off_c, 5, 58, 64
7, 85992, Control_c, 5, 11, 28
7, 86016, Control_c, 5, 11, 17
7, 86376, Control_c, 5, 11, 127
7, 94084, Note_on_c, 5, 67, 124
7, 94478, Note_off_c, 5, 67, 64
7, 94569, Note_on_c, 5, 67, 124
7, 94963, Note_off_c, 5, 67, 64
7, 95046, Note_on_c, 5, 67, 123
7, 95440, Note_off_c, 5, 67, 64
7, 95525, Note_on_c, 5, 63, 127
7, 95799, Note_off_c, 5, 63, 64
7, 95888, Note_on_c, 5, 70, 123
7, 95934, Note_off_c, 5, 70, 64
7, 96009, Note_on_c, 5, 67, 124
7, 96403, Note_off_c, 5, 67, 64
7, 96485, Note_on_c, 5, 63, 127
7, 96759, Note_off_c, 5, 63, 64
7, 96849, Note_on_c, 5, 70, 124
7, 96895, Note_off_c, 5, 70, 64
7, 96968, Note_on_c, 5, 67, 120
7, 97843, Note_off_c, 5, 67, 64
7, 97925, Note_on_c, 5, 74, 124
7, 98320, Note_off_c, 5, 74, 64
7, 98404, Note_on_c, 5, 74, 125
7, 98800, Note_off_c, 5, 74, 64
7, 98887, Note_on_c, 5, 74, 124
7, 99282, Note_off_c, 5, 74, 64
7, 99367, Note_on_c, 5, 75, 127
7, 99644, Note_off_c, 5, 75, 64
7, 99726, Note_on_c, 5, 70, 123
7, 99774, Note_off_c, 5, 70, 64
7, 99844, Note_on_c, 5, 66, 120
7, 100238, Note_off_c, 5, 66, 64
7, 100324, Note_on_c, 5, 63, 127
7, 100598, Note_off_c, 5, 63, 64
7, 100686, Note_on_c, 5, 70, 123
7, 100732, Note_off_c, 5, 70, 64
7, 100805, Note_on_c, 5, 67, 125
7, 101680, Note_off_c, 5, 67, 64
7, 101769, Note_on_c, 5, 79, 125
7, 102163, Note_off_c, 5, 79, 64
7, 102245, Note_on_c, 5, 67, 120
7, 102520, Note_off_c, 5, 67, 64
7, 102609, Note_on_c, 5, 67, 125
7, 102655, Note_off_c, 5, 67, 64
7, 102728, Note_on_c, 5, 79, 125
7, 103146, Note_off_c, 5, 79, 64
7, 103209, Note_on_c, 5, 78, 125
7, 103483, Note_off_c, 5, 78, 64
7, 103565, Note_on_c, 5, 77, 125
7, 103611, Note_off_c, 5, 77, 64
7, 103687, Note_on_c, 5, 76, 123
7, 103733, Note_off_c, 5, 76, 64
7, 103809, Note_on_c, 5, 75, 125
7, 103844, Note_off_c, 5, 75, 64
7, 103922, Note_on_c, 5, 76, 122
7, 103992, Note_off_c, 5, 76, 64
7, 104405, Note_on_c, 5, 68, 122
7, 104463, Note_off_c, 5, 68, 64
7, 104646, Note_on_c, 5, 73, 117
7, 104646, Note_on_c, 5, 68, 95
7, 104647, Note_on_c, 5, 64, 95
7, 105065, Note_off_c, 5, 68, 64
7, 105065, Note_off_c, 5, 64, 64
7, 105067, Note_off_c, 5, 73, 64
7, 105129, Note_on_c, 5, 68, 104
7, 105129, Note_on_c, 5, 64, 99
7, 105129, Note_on_c, 5, 72, 121
7, 105403, Note_off_c, 5, 64, 64
7, 105403, Note_off_c, 5, 72, 64
7, 105404, Note_off_c, 5, 68, 64
7, 105482, Note_on_c, 5, 64, 103
7, 105487, Note_on_c, 5, 71, 124
7, 105489, Note_on_c, 5, 68, 103
7, 105528, Note_off_c, 5, 64, 64
7, 105533, Note_off_c, 5, 71, 64
7, 105535, Note_off_c, 5, 68, 64
7, 105607, Note_on_c, 5, 66, 107
7, 105607, Note_on_c, 5, 63, 109
7, 105609, Note_on_c, 5, 70, 127
7, 105653, Note_off_c, 5, 63, 64
7, 105654, Note_off_c, 5, 66, 64
7, 105656, Note_off_c, 5, 70, 64
7, 105721, Note_on_c, 5, 69, 124
7, 105727, Note_on_c, 5, 66, 103
7, 105729, Note_on_c, 5, 63, 100
7, 105755, Note_off_c, 5, 69, 64
7, 105763, Note_off_c, 5, 63, 64
7, 105763, Note_off_c, 5, 66, 64
7, 105844, Note_on_c, 5, 70, 125
7, 105847, Note_on_c, 5, 63, 97
7, 105849, Note_on_c, 5, 66, 104
7, 105914, Note_off_c, 5, 70, 64
7, 105918, Note_off_c, 5, 63, 64
7, 105919, Note_off_c, 5, 66, 64
7, 106329, Note_on_c, 5, 63, 123
7, 106387, Note_off_c, 5, 63, 64
7, 106565, Note_on_c, 5, 66, 115
7, 106569, Note_on_c, 5, 63, 97
7, 106569, Note_on_c, 5, 58, 97
7, 106960, Note_off_c, 5, 66, 64
7, 106964, Note_off_c, 5, 58, 64
7, 106965, Note_off_c, 5, 63, 64
7, 107045, Note_on_c, 5, 63, 127
7, 107320, Note_off_c, 5, 63, 64
7, 107404, Note_on_c, 5, 70, 124
7, 107450, Note_off_c, 5, 70, 64
7, 107522, Note_on_c, 5, 70, 118
7, 107524, Note_on_c, 5, 62, 109
7, 107526, Note_on_c, 5, 67, 107
7, 107917, Note_off_c, 5, 70, 64
7, 107918, Note_off_c, 5, 62, 64
7, 107920, Note_off_c, 5, 67, 64
7, 108007, Note_on_c, 5, 67, 127
7, 108283, Note_off_c, 5, 67, 64
7, 108369, Note_on_c, 5, 70, 125
7, 108417, Note_off_c, 5, 70, 64
7, 108480, Control_c, 5, 11, 127
7, 108481, Note_on_c, 5, 74, 118
7, 108487, Note_on_c, 5, 67, 106
7, 108487, Note_on_c, 5, 70, 106
7, 108528, Control_c, 5, 11, 124
7, 108576, Control_c, 5, 11, 121
7, 108648, Control_c, 5, 11, 118
7, 108696, Control_c, 5, 11, 115
7, 108744, Control_c, 5, 11, 111
7, 108816, Control_c, 5, 11, 108
7, 108864, Control_c, 5, 11, 105
7, 108936, Control_c, 5, 11, 101
7, 108960, Control_c, 5, 11, 99
7, 109032, Control_c, 5, 11, 103
7, 109104, Control_c, 5, 11, 106
7, 109128, Control_c, 5, 11, 109
7, 109200, Control_c, 5, 11, 113
7, 109272, Control_c, 5, 11, 118
7, 109344, Control_c, 5, 11, 121
7, 109356, Note_off_c, 5, 74, 64
7, 109361, Note_off_c, 5, 70, 64
7, 109363, Note_off_c, 5, 67, 64
7, 109392, Control_c, 5, 11, 124
7, 109416, Control_c, 5, 11, 127
7, 109447, Note_on_c, 5, 79, 127
7, 109842, Note_off_c, 5, 79, 64
7, 109928, Note_on_c, 5, 67, 125
7, 110202, Note_off_c, 5, 67, 64
7, 110281, Note_on_c, 5, 67, 124
7, 110328, Note_off_c, 5, 67, 64
7, 110407, Note_on_c, 5, 79, 125
7, 110825, Note_off_c, 5, 79, 64
7, 110889, Note_on_c, 5, 78, 125
7, 111163, Note_off_c, 5, 78, 64
7, 111249, Note_on_c, 5, 77, 124
7, 111295, Note_off_c, 5, 77, 64
7, 111366, Note_on_c, 5, 76, 126
7, 111413, Note_off_c, 5, 76, 64
7, 111489, Note_on_c, 5, 75, 125
7, 111523, Note_off_c, 5, 75, 64
7, 111609, Note_on_c, 5, 76, 125
7, 111680, Note_off_c, 5, 76, 64
7, 112089, Note_on_c, 5, 68, 125
7, 112148, Note_off_c, 5, 68, 64
7, 112328, Note_on_c, 5, 68, 94
7, 112328, Note_on_c, 5, 64, 93
7, 112329, Note_on_c, 5, 73, 119
7, 112746, Note_off_c, 5, 68, 64
7, 112746, Note_off_c, 5, 64, 64
7, 112747, Note_off_c, 5, 73, 64
7, 112805, Note_on_c, 5, 64, 103
7, 112807, Note_on_c, 5, 68, 103
7, 112808, Note_on_c, 5, 72, 124
7, 113080, Note_off_c, 5, 64, 64
7, 113082, Note_off_c, 5, 72, 64
7, 113082, Note_off_c, 5, 68, 64
7, 113159, Note_on_c, 5, 64, 100
7, 113162, Note_on_c, 5, 68, 103
7, 113169, Note_on_c, 5, 71, 124
7, 113205, Note_off_c, 5, 64, 64
7, 113209, Note_off_c, 5, 68, 64
7, 113215, Note_off_c, 5, 71, 64
7, 113286, Note_on_c, 5, 63, 109
7, 113287, Note_on_c, 5, 70, 127
7, 113289, Note_on_c, 5, 66, 107
7, 113333, Note_off_c, 5, 63, 64
7, 113334, Note_off_c, 5, 70, 64
7, 113336, Note_off_c, 5, 66, 64
7, 113404, Note_on_c, 5, 63, 103
7, 113407, Note_on_c, 5, 66, 104
7, 113408, Note_on_c, 5, 69, 124
7, 113439, Note_off_c, 5, 63, 64
7, 113441, Note_off_c, 5, 66, 64
7, 113442, Note_off_c, 5, 69, 64
7, 113521, Note_on_c, 5, 66, 103
7, 113528, Note_on_c, 5, 70, 122
7, 113528, Note_on_c, 5, 63, 104
7, 113591, Note_off_c, 5, 66, 64
7, 113598, Note_off_c, 5, 63, 64
7, 113598, Note_off_c, 5, 70, 64
7, 114009, Note_on_c, 5, 63, 125
7, 114067, Note_off_c, 5, 63, 64
7, 114248, Note_on_c, 5, 66, 117
7, 114248, Note_on_c, 5, 63, 92
7, 114642, Note_off_c, 5, 66, 64
7, 114642, Note_off_c, 5, 63, 64
7, 114725, Note_on_c, 5, 63, 122
7, 115000, Note_off_c, 5, 63, 64
7, 115089, Note_on_c, 5, 70, 121
7, 115136, Note_off_c, 5, 70, 64
7, 115205, Note_on_c, 5, 67, 114
7, 115600, Note_off_c, 5, 67, 64
7, 115689, Note_on_c, 5, 63, 125
7, 115963, Note_off_c, 5, 63, 64
7, 116047, Note_on_c, 5, 70, 121
7, 116094, Note_off_c, 5, 70, 64
7, 116168, Note_on_c, 5, 67, 117
7, 117043, Note_off_c, 5, 67, 64
7, 117126, Note_on_c, 5, 67, 125
7, 117521, Note_off_c, 5, 67, 64
7, 117606, Note_on_c, 5, 67, 123
7, 118002, Note_off_c, 5, 67, 64
7, 118089, Note_on_c, 5, 67, 123
7, 118483, Note_off_c, 5, 67, 64
7, 118567, Note_on_c, 5, 63, 127
7, 118841, Note_off_c, 5, 63, 64
7, 118924, Note_on_c, 5, 70, 125
7, 118970, Note_off_c, 5, 70, 64
7, 119045, Note_on_c, 5, 67, 124
7, 119440, Note_off_c, 5, 67, 64
7, 119528, Note_on_c, 5, 63, 127
7, 119803, Note_off_c, 5, 63, 64
7, 119888, Note_on_c, 5, 70, 117
7, 119935, Note_off_c, 5, 70, 64
7, 120004, Note_on_c, 5, 67, 125
7, 120878, Note_off_c, 5, 67, 64
7, 120965, Note_on_c, 5, 74, 124
7, 121359, Note_off_c, 5, 74, 64
7, 121448, Note_on_c, 5, 74, 124
7, 121842, Note_off_c, 5, 74, 64
7, 121928, Note_on_c, 5, 74, 123
7, 122322, Note_off_c, 5, 74, 64
7, 122409, Note_on_c, 5, 75, 127
7, 122683, Note_off_c, 5, 75, 64
7, 122769, Note_on_c, 5, 70, 124
7, 122816, Note_off_c, 5, 70, 64
7, 122885, Note_on_c, 5, 66, 125
7, 123280, Note_off_c, 5, 66, 64
7, 123368, Note_on_c, 5, 63, 127
7, 123642, Note_off_c, 5, 63, 64
7, 123729, Note_on_c, 5, 70, 125
7, 123775, Note_off_c, 5, 70, 64
7, 123840, Control_c, 5, 11, 127
7, 123844, Note_on_c, 5, 67, 125
7, 123888, Control_c, 5, 11, 124
7, 123936, Control_c, 5, 11, 121
7, 124008, Control_c, 5, 11, 118
7, 124056, Control_c, 5, 11, 115
7, 124104, Control_c, 5, 11, 111
7, 124176, Control_c, 5, 11, 108
7, 124224, Control_c, 5, 11, 105
7, 124296, Control_c, 5, 11, 101
7, 124320, Control_c, 5, 11, 99
7, 124392, Control_c, 5, 11, 103
7, 124464, Control_c, 5, 11, 106
7, 124488, Control_c, 5, 11, 109
7, 124560, Control_c, 5, 11, 113
7, 124632, Control_c, 5, 11, 118
7, 124704, Control_c, 5, 11, 121
7, 124718, Note_off_c, 5, 67, 64
7, 124752, Control_c, 5, 11, 124
7, 124776, Control_c, 5, 11, 127
7, 124808, Note_on_c, 5, 79, 127
7, 125203, Note_off_c, 5, 79, 64
7, 125286, Note_on_c, 5, 67, 125
7, 125561, Note_off_c, 5, 67, 64
7, 125646, Note_on_c, 5, 67, 123
7, 125692, Note_off_c, 5, 67, 64
7, 125764, Note_on_c, 5, 79, 125
7, 126182, Note_off_c, 5, 79, 64
7, 126248, Note_on_c, 5, 78, 124
7, 126522, Note_off_c, 5, 78, 64
7, 126609, Note_on_c, 5, 77, 125
7, 126656, Note_off_c, 5, 77, 64
7, 126728, Note_on_c, 5, 76, 127
7, 126775, Note_off_c, 5, 76, 64
7, 126847, Note_on_c, 5, 75, 120
7, 126883, Note_off_c, 5, 75, 64
7, 126965, Note_on_c, 5, 76, 124
7, 127036, Note_off_c, 5, 76, 64
7, 127447, Note_on_c, 5, 68, 120
7, 127506, Note_off_c, 5, 68, 64
7, 127686, Note_on_c, 5, 73, 119
7, 127686, Note_on_c, 5, 64, 95
7, 127688, Note_on_c, 5, 68, 97
7, 128104, Note_off_c, 5, 64, 64
7, 128106, Note_off_c, 5, 68, 64
7, 128106, Note_off_c, 5, 73, 64
7, 128164, Note_on_c, 5, 68, 104
7, 128167, Note_on_c, 5, 72, 125
7, 128168, Note_on_c, 5, 64, 104
7, 128438, Note_off_c, 5, 68, 64
7, 128441, Note_off_c, 5, 72, 64
7, 128442, Note_off_c, 5, 64, 64
7, 128528, Note_on_c, 5, 68, 102
7, 128528, Note_on_c, 5, 64, 101
7, 128529, Note_on_c, 5, 71, 125
7, 128574, Note_off_c, 5, 68, 64
7, 128574, Note_off_c, 5, 64, 64
7, 128575, Note_off_c, 5, 71, 64
7, 128647, Note_on_c, 5, 70, 127
7, 128649, Note_on_c, 5, 63, 107
7, 128649, Note_on_c, 5, 66, 109
7, 128694, Note_off_c, 5, 70, 64
7, 128695, Note_off_c, 5, 66, 64
7, 128696, Note_off_c, 5, 63, 64
7, 128768, Note_on_c, 5, 66, 104
7, 128768, Note_on_c, 5, 63, 102
7, 128769, Note_on_c, 5, 69, 123
7, 128802, Note_off_c, 5, 66, 64
7, 128803, Note_off_c, 5, 69, 64
7, 128803, Note_off_c, 5, 63, 64
7, 128880, Note_on_c, 5, 63, 103
7, 128886, Note_on_c, 5, 66, 103
7, 128887, Note_on_c, 5, 70, 124
7, 128950, Note_off_c, 5, 63, 64
7, 128957, Note_off_c, 5, 66, 64
7, 128958, Note_off_c, 5, 70, 64
7, 129365, Note_on_c, 5, 63, 125
7, 129423, Note_off_c, 5, 63, 64
7, 129606, Note_on_c, 5, 58, 97
7, 129608, Note_on_c, 5, 66, 116
7, 129609, Note_on_c, 5, 63, 97
7, 130002, Note_off_c, 5, 58, 64
7, 130003, Note_off_c, 5, 63, 64
7, 130003, Note_off_c, 5, 66, 64
7, 130086, Note_on_c, 5, 63, 127
7, 130360, Note_off_c, 5, 63, 64
7, 130447, Note_on_c, 5, 70, 125
7, 130494, Note_off_c, 5, 70, 64
7, 130567, Note_on_c, 5, 67, 116
7, 130961, Note_off_c, 5, 67, 64
7, 131048, Note_on_c, 5, 63, 127
7, 131322, Note_off_c, 5, 63, 64
7, 131409, Note_on_c, 5, 70, 123
7, 131455, Note_off_c, 5, 70, 64
7, 131529, Note_on_c, 5, 67, 117
7, 131544, Control_c, 5, 11, 127
7, 131712, Control_c, 5, 11, 125
7, 131808, Control_c, 5, 11, 121
7, 131880, Control_c, 5, 11, 118
7, 131928, Control_c, 5, 11, 115
7, 131976, Control_c, 5, 11, 111
7, 132024, Control_c, 5, 11, 108
7, 132048, Control_c, 5, 11, 105
7, 132096, Control_c, 5, 11, 100
7, 132144, Control_c, 5, 11, 95
7, 132168, Control_c, 5, 11, 91
7, 132216, Control_c, 5, 11, 85
7, 132240, Control_c, 5, 11, 81
7, 132264, Control_c, 5, 11, 76
7, 132288, Control_c, 5, 11, 71
7, 132312, Control_c, 5, 11, 66
7, 132336, Control_c, 5, 11, 61
7, 132360, Control_c, 5, 11, 54
7, 132384, Control_c, 5, 11, 46
7, 132403, Note_off_c, 5, 67, 64
7, 132408, Control_c, 5, 11, 36
7, 132432, Control_c, 5, 11, 21
7, 132480, Control_c, 5, 11, 127
7, 140164, Note_on_c, 5, 79, 118
7, 140167, Note_on_c, 5, 67, 108
7, 140559, Note_off_c, 5, 79, 64
7, 140562, Note_off_c, 5, 67, 64
7, 140643, Note_on_c, 5, 79, 119
7, 140646, Note_on_c, 5, 67, 109
7, 141037, Note_off_c, 5, 79, 64
7, 141041, Note_off_c, 5, 67, 64
7, 141128, Note_on_c, 5, 79, 117
7, 141129, Note_on_c, 5, 67, 105
7, 141523, Note_off_c, 5, 79, 64
7, 141523, Note_off_c, 5, 67, 64
7, 141607, Note_on_c, 5, 63, 119
7, 141607, Note_on_c, 5, 75, 120
7, 141882, Note_off_c, 5, 63, 64
7, 141882, Note_off_c, 5, 75, 64
7, 141968, Note_on_c, 5, 70, 110
7, 141969, Note_on_c, 5, 82, 115
7, 142026, Note_off_c, 5, 70, 64
7, 142028, Note_off_c, 5, 82, 64
7, 142087, Note_on_c, 5, 67, 110
7, 142087, Note_on_c, 5, 79, 118
7, 142481, Note_off_c, 5, 79, 64
7, 142482, Note_off_c, 5, 67, 64
7, 142567, Note_on_c, 5, 75, 122
7, 142569, Note_on_c, 5, 63, 119
7, 142843, Note_off_c, 5, 75, 64
7, 142843, Note_off_c, 5, 63, 64
7, 142927, Note_on_c, 5, 70, 110
7, 142928, Note_on_c, 5, 82, 119
7, 142985, Note_off_c, 5, 70, 64
7, 142988, Note_off_c, 5, 82, 64
7, 143043, Note_on_c, 5, 67, 107
7, 143049, Note_on_c, 5, 79, 119
7, 143438, Note_off_c, 5, 67, 64
7, 143444, Note_off_c, 5, 79, 64
7, 143521, Note_on_c, 5, 75, 123
7, 143526, Note_on_c, 5, 63, 118
7, 143796, Note_off_c, 5, 75, 64
7, 143800, Note_off_c, 5, 63, 64
7, 143886, Note_on_c, 5, 82, 125
7, 143887, Note_on_c, 5, 70, 119
7, 143944, Note_off_c, 5, 82, 64
7, 143946, Note_off_c, 5, 70, 64
7, 144009, Note_on_c, 5, 67, 124
7, 144009, Note_on_c, 5, 79, 127
7, 144103, Note_off_c, 5, 67, 64
7, 144103, Note_off_c, 5, 79, 64
7, 144479, Note_on_c, 5, 79, 125
7, 144485, Note_on_c, 5, 67, 124
7, 144539, Note_off_c, 5, 79, 64
7, 144543, Note_off_c, 5, 67, 64
7, 144725, Note_on_c, 5, 79, 125
7, 144726, Note_on_c, 5, 67, 123
7, 144768, Note_off_c, 5, 67, 64
7, 144769, Note_off_c, 5, 79, 64
7, 144808, Note_on_c, 5, 79, 124
7, 144809, Note_on_c, 5, 67, 125
7, 144850, Note_off_c, 5, 79, 64
7, 144851, Note_off_c, 5, 67, 64
7, 144888, Note_on_c, 5, 79, 117
7, 144889, Note_on_c, 5, 67, 118
7, 144930, Note_off_c, 5, 79, 64
7, 144933, Note_off_c, 5, 67, 64
7, 144963, Note_on_c, 5, 68, 118
7, 144968, Note_on_c, 5, 72, 119
7, 144969, Note_on_c, 5, 79, 122
7, 145021, Note_off_c, 5, 68, 64
7, 145026, Note_off_c, 5, 72, 64
7, 145027, Note_off_c, 5, 79, 64
7, 145208, Note_on_c, 5, 68, 118
7, 145209, Note_on_c, 5, 72, 117
7, 145209, Note_on_c, 5, 79, 125
7, 145251, Note_off_c, 5, 68, 64
7, 145251, Note_off_c, 5, 79, 64
7, 145251, Note_off_c, 5, 72, 64
7, 145285, Note_on_c, 5, 72, 119
7, 145287, Note_on_c, 5, 68, 119
7, 145289, Note_on_c, 5, 79, 125
7, 145328, Note_off_c, 5, 72, 64
7, 145331, Note_off_c, 5, 68, 64
7, 145332, Note_off_c, 5, 79, 64
7, 145366, Note_on_c, 5, 68, 112
7, 145366, Note_on_c, 5, 72, 112
7, 145369, Note_on_c, 5, 79, 117
7, 145408, Note_off_c, 5, 68, 64
7, 145408, Note_off_c, 5, 72, 64
7, 145412, Note_off_c, 5, 79, 64
7, 145439, Note_on_c, 5, 73, 122
7, 145445, Note_on_c, 5, 79, 127
7, 145449, Note_on_c, 5, 68, 124
7, 145481, Note_off_c, 5, 73, 64
7, 145487, Note_off_c, 5, 79, 64
7, 145493, Note_off_c, 5, 68, 64
7, 145521, Note_on_c, 5, 79, 124
7, 145528, Note_on_c, 5, 68, 118
7, 145529, Note_on_c, 5, 73, 116
7, 145564, Note_off_c, 5, 79, 64
7, 145570, Note_off_c, 5, 68, 64
7, 145571, Note_off_c, 5, 73, 64
7, 145603, Note_on_c, 5, 79, 119
7, 145608, Note_on_c, 5, 73, 111
7, 145609, Note_on_c, 5, 68, 109
7, 145645, Note_off_c, 5, 79, 64
7, 145650, Note_off_c, 5, 73, 64
7, 145652, Note_off_c, 5, 68, 64
7, 145686, Note_on_c, 5, 73, 114
7, 145689, Note_on_c, 5, 68, 119
7, 145689, Note_on_c, 5, 79, 125
7, 145744, Note_off_c, 5, 73, 64
7, 145747, Note_off_c, 5, 79, 64
7, 145747, Note_off_c, 5, 68, 64
7, 145925, Note_on_c, 5, 75, 119
7, 145927, Note_on_c, 5, 68, 119
7, 145928, Note_on_c, 5, 79, 125
7, 146019, Note_off_c, 5, 75, 64
7, 146021, Note_off_c, 5, 68, 64
7, 146022, Note_off_c, 5, 79, 64
7, 146405, Note_on_c, 5, 76, 119
7, 146405, Note_on_c, 5, 79, 122
7, 146409, Note_on_c, 5, 68, 117
7, 146463, Note_off_c, 5, 76, 64
7, 146464, Note_off_c, 5, 79, 64
7, 146468, Note_off_c, 5, 68, 64
7, 146645, Note_on_c, 5, 68, 117
7, 146648, Note_on_c, 5, 76, 119
7, 146649, Note_on_c, 5, 79, 119
7, 146687, Note_off_c, 5, 68, 64
7, 146690, Note_off_c, 5, 76, 64
7, 146691, Note_off_c, 5, 79, 64
7, 146728, Note_on_c, 5, 76, 118
7, 146729, Note_on_c, 5, 79, 122
7, 146729, Note_on_c, 5, 68, 118
7, 146770, Note_off_c, 5, 76, 64
7, 146771, Note_off_c, 5, 68, 64
7, 146772, Note_off_c, 5, 79, 64
7, 146804, Note_on_c, 5, 79, 115
7, 146806, Note_on_c, 5, 68, 112
7, 146806, Note_on_c, 5, 76, 113
7, 146847, Note_off_c, 5, 79, 64
7, 146848, Note_off_c, 5, 76, 64
7, 146848, Note_off_c, 5, 68, 64
7, 146888, Note_on_c, 5, 68, 115
7, 146888, Note_on_c, 5, 77, 117
7, 146889, Note_on_c, 5, 79, 124
7, 146946, Note_off_c, 5, 68, 64
7, 146946, Note_off_c, 5, 77, 64
7, 146947, Note_off_c, 5, 79, 64
7, 147125, Note_on_c, 5, 79, 125
7, 147127, Note_on_c, 5, 77, 117
7, 147128, Note_on_c, 5, 68, 119
7, 147168, Note_off_c, 5, 79, 64
7, 147169, Note_off_c, 5, 77, 64
7, 147171, Note_off_c, 5, 68, 64
7, 147206, Note_on_c, 5, 77, 114
7, 147208, Note_on_c, 5, 79, 121
7, 147209, Note_on_c, 5, 68, 116
7, 147248, Note_off_c, 5, 77, 64
7, 147250, Note_off_c, 5, 79, 64
7, 147252, Note_off_c, 5, 68, 64
7, 147286, Note_on_c, 5, 68, 109
7, 147289, Note_on_c, 5, 79, 119
7, 147289, Note_on_c, 5, 77, 112
7, 147329, Note_off_c, 5, 68, 64
7, 147331, Note_off_c, 5, 77, 64
7, 147331, Note_off_c, 5, 79, 64
7, 147358, Note_on_c, 5, 78, 125
7, 147368, Note_on_c, 5, 79, 127
7, 147368, Note_on_c, 5, 68, 125
7, 147402, Note_off_c, 5, 78, 64
7, 147410, Note_off_c, 5, 68, 64
7, 147410, Note_off_c, 5, 79, 64
7, 147447, Note_on_c, 5, 68, 114
7, 147448, Note_on_c, 5, 78, 118
7, 147449, Note_on_c, 5, 79, 124
7, 147489, Note_off_c, 5, 68, 64
7, 147491, Note_off_c, 5, 79, 64
7, 147491, Note_off_c, 5, 78, 64
7, 147521, Note_on_c, 5, 68, 110
7, 147529, Note_on_c, 5, 79, 118
7, 147529, Note_on_c, 5, 78, 108
7, 147563, Note_off_c, 5, 68, 64
7, 147572, Note_off_c, 5, 78, 64
7, 147572, Note_off_c, 5, 79, 64
7, 147608, Note_on_c, 5, 78, 117
7, 147608, Note_on_c, 5, 68, 116
7, 147609, Note_on_c, 5, 79, 123
7, 147666, Note_off_c, 5, 68, 64
7, 147667, Note_off_c, 5, 79, 64
7, 147667, Note_off_c, 5, 78, 64
7, 147844, Note_on_c, 5, 67, 122
7, 147845, Note_on_c, 5, 79, 127
7, 147887, Note_off_c, 5, 79, 64
7, 147889, Note_off_c, 5, 67, 64
7, 147918, Note_on_c, 5, 67, 119
7, 147929, Note_on_c, 5, 79, 122
7, 147960, Note_off_c, 5, 67, 64
7, 147972, Note_off_c, 5, 79, 64
7, 148000, Note_on_c, 5, 79, 114
7, 148004, Note_on_c, 5, 67, 112
7, 148043, Note_off_c, 5, 79, 64
7, 148046, Note_off_c, 5, 67, 64
7, 148089, Note_on_c, 5, 67, 117
7, 148089, Note_on_c, 5, 79, 125
7, 148147, Note_off_c, 5, 67, 64
7, 148149, Note_off_c, 5, 79, 64
7, 151684, Note_on_c, 5, 67, 121
7, 151686, Note_on_c, 5, 79, 127
7, 151778, Note_off_c, 5, 67, 64
7, 151781, Note_off_c, 5, 79, 64
7, 152168, Note_on_c, 5, 67, 123
7, 152169, Note_on_c, 5, 79, 127
7, 152227, Note_off_c, 5, 67, 64
7, 152228, Note_off_c, 5, 79, 64
7, 152406, Note_on_c, 5, 67, 124
7, 152407, Note_on_c, 5, 79, 127
7, 152449, Note_off_c, 5, 79, 64
7, 152450, Note_off_c, 5, 67, 64
7, 152486, Note_on_c, 5, 79, 124
7, 152486, Note_on_c, 5, 67, 121
7, 152528, Note_off_c, 5, 67, 64
7, 152530, Note_off_c, 5, 79, 64
7, 152568, Note_on_c, 5, 79, 122
7, 152569, Note_on_c, 5, 67, 119
7, 152611, Note_off_c, 5, 67, 64
7, 152612, Note_off_c, 5, 79, 64
7, 152646, Note_on_c, 5, 68, 119
7, 152646, Note_on_c, 5, 75, 125
7, 152649, Note_on_c, 5, 70, 120
7, 152688, Note_off_c, 5, 75, 64
7, 152690, Note_off_c, 5, 68, 64
7, 152691, Note_off_c, 5, 70, 64
7, 152725, Note_on_c, 5, 68, 119
7, 152728, Note_on_c, 5, 75, 124
7, 152729, Note_on_c, 5, 70, 120
7, 152767, Note_off_c, 5, 68, 64
7, 152771, Note_off_c, 5, 70, 64
7, 152771, Note_off_c, 5, 75, 64
7, 152797, Note_on_c, 5, 70, 110
7, 152804, Note_on_c, 5, 68, 112
7, 152809, Note_on_c, 5, 75, 118
7, 152840, Note_off_c, 5, 70, 64
7, 152847, Note_off_c, 5, 68, 64
7, 152851, Note_off_c, 5, 75, 64
7, 152882, Note_on_c, 5, 79, 127
7, 152889, Note_on_c, 5, 67, 123
7, 152941, Note_off_c, 5, 79, 64
7, 152947, Note_off_c, 5, 67, 64
7, 153361, Note_on_c, 5, 70, 119
7, 153368, Note_on_c, 5, 68, 120
7, 153368, Note_on_c, 5, 75, 124
7, 153404, Note_off_c, 5, 70, 64
7, 153411, Note_off_c, 5, 68, 64
7, 153412, Note_off_c, 5, 75, 64
7, 153443, Note_on_c, 5, 68, 117
7, 153447, Note_on_c, 5, 70, 119
7, 153448, Note_on_c, 5, 75, 124
7, 153485, Note_off_c, 5, 68, 64
7, 153489, Note_off_c, 5, 70, 64
7, 153490, Note_off_c, 5, 75, 64
7, 153518, Note_on_c, 5, 68, 112
7, 153526, Note_on_c, 5, 70, 113
7, 153529, Note_on_c, 5, 75, 117
7, 153560, Note_off_c, 5, 68, 64
7, 153570, Note_off_c, 5, 70, 64
7, 153571, Note_off_c, 5, 75, 64
7, 153603, Note_on_c, 5, 75, 125
7, 153605, Note_on_c, 5, 68, 120
7, 153608, Note_on_c, 5, 70, 115
7, 153646, Note_off_c, 5, 75, 64
7, 153648, Note_off_c, 5, 68, 64
7, 153650, Note_off_c, 5, 70, 64
7, 153687, Note_on_c, 5, 75, 125
7, 153688, Note_on_c, 5, 68, 116
7, 153688, Note_on_c, 5, 70, 120
7, 153729, Note_off_c, 5, 75, 64
7, 153730, Note_off_c, 5, 70, 64
7, 153731, Note_off_c, 5, 68, 64
7, 153768, Note_on_c, 5, 68, 112
7, 153769, Note_on_c, 5, 75, 117
7, 153769, Note_on_c, 5, 70, 109
7, 153811, Note_off_c, 5, 68, 64
7, 153811, Note_off_c, 5, 70, 64
7, 153812, Note_off_c, 5, 75, 64
7, 153846, Note_on_c, 5, 67, 125
7, 153849, Note_on_c, 5, 79, 127
7, 153906, Note_off_c, 5, 67, 64
7, 153908, Note_off_c, 5, 79, 64
7, 154322, Note_on_c, 5, 68, 118
7, 154324, Note_on_c, 5, 75, 124
7, 154329, Note_on_c, 5, 70, 117
7, 154364, Note_off_c, 5, 68, 64
7, 154366, Note_off_c, 5, 75, 64
7, 154372, Note_off_c, 5, 70, 64
7, 154407, Note_on_c, 5, 68, 116
7, 154408, Note_on_c, 5, 75, 124
7, 154409, Note_on_c, 5, 70, 117
7, 154450, Note_off_c, 5, 68, 64
7, 154450, Note_off_c, 5, 75, 64
7, 154451, Note_off_c, 5, 70, 64
7, 154485, Note_on_c, 5, 70, 113
7, 154488, Note_on_c, 5, 75, 119
7, 154489, Note_on_c, 5, 68, 112
7, 154529, Note_off_c, 5, 70, 64
7, 154531, Note_off_c, 5, 68, 64
7, 154531, Note_off_c, 5, 75, 64
7, 154569, Note_on_c, 5, 67, 122
7, 154569, Note_on_c, 5, 79, 127
7, 154627, Note_off_c, 5, 79, 64
7, 154628, Note_off_c, 5, 67, 64
7, 154807, Note_on_c, 5, 67, 125
7, 154809, Note_on_c, 5, 79, 127
7, 154849, Note_off_c, 5, 67, 64
7, 154852, Note_off_c, 5, 79, 64
7, 154886, Note_on_c, 5, 67, 124
7, 154889, Note_on_c, 5, 79, 125
7, 154929, Note_off_c, 5, 67, 64
7, 154931, Note_off_c, 5, 79, 64
7, 154961, Note_on_c, 5, 67, 119
7, 154969, Note_on_c, 5, 79, 123
7, 155003, Note_off_c, 5, 67, 64
7, 155012, Note_off_c, 5, 79, 64
7, 155047, Note_on_c, 5, 79, 127
7, 155049, Note_on_c, 5, 67, 127
7, 155106, Note_off_c, 5, 79, 64
7, 155107, Note_off_c, 5, 67, 64
7, 159360, Control_c, 5, 123, 0
7, 159360, End_track
8, 0, Start_track
8, 0, Text_t, "Trombones"
8, 0, Program_c, 6, 57
8, 0, Control_c, 6, 7, 106
8, 0, Control_c, 6, 10, 94
8, 0, Control_c, 6, 91, 127
8, 0, Control_c, 6, 93, 5
8, 0, Control_c, 6, 11, 127
8, 0, Control_c, 6, 123, 0
8, 13416, Control_c, 6, 93, 55
8, 13447, Note_on_c, 6, 55, 120
8, 13841, Note_off_c, 6, 55, 64
8, 13929, Note_on_c, 6, 55, 125
8, 14323, Note_off_c, 6, 55, 64
8, 14408, Note_on_c, 6, 55, 122
8, 14803, Note_off_c, 6, 55, 64
8, 14887, Note_on_c, 6, 51, 127
8, 15162, Note_off_c, 6, 51, 64
8, 15247, Note_on_c, 6, 58, 124
8, 15281, Note_off_c, 6, 58, 64
8, 15363, Note_on_c, 6, 55, 123
8, 15758, Note_off_c, 6, 55, 64
8, 15845, Note_on_c, 6, 51, 126
8, 16121, Note_off_c, 6, 51, 64
8, 16204, Note_on_c, 6, 58, 125
8, 16238, Note_off_c, 6, 58, 64
8, 16325, Note_on_c, 6, 55, 122
8, 17200, Note_off_c, 6, 55, 64
8, 17287, Note_on_c, 6, 62, 125
8, 17683, Note_off_c, 6, 62, 64
8, 17769, Note_on_c, 6, 62, 125
8, 18163, Note_off_c, 6, 62, 64
8, 18246, Note_on_c, 6, 62, 124
8, 18640, Note_off_c, 6, 62, 64
8, 18729, Note_on_c, 6, 63, 124
8, 19004, Note_off_c, 6, 63, 64
8, 19082, Note_on_c, 6, 58, 123
8, 19116, Note_off_c, 6, 58, 64
8, 19203, Note_on_c, 6, 54, 125
8, 19597, Note_off_c, 6, 54, 64
8, 19689, Note_on_c, 6, 51, 127
8, 19963, Note_off_c, 6, 51, 64
8, 20046, Note_on_c, 6, 58, 124
8, 20082, Note_off_c, 6, 58, 64
8, 20163, Note_on_c, 6, 55, 123
8, 21039, Note_off_c, 6, 55, 64
8, 21127, Note_on_c, 6, 67, 125
8, 21523, Note_off_c, 6, 67, 64
8, 21608, Note_on_c, 6, 55, 125
8, 21884, Note_off_c, 6, 55, 64
8, 21964, Note_on_c, 6, 55, 122
8, 22010, Note_off_c, 6, 55, 64
8, 22088, Note_on_c, 6, 67, 125
8, 22506, Note_off_c, 6, 67, 64
8, 22568, Note_on_c, 6, 66, 124
8, 22843, Note_off_c, 6, 66, 64
8, 22926, Note_on_c, 6, 65, 124
8, 22973, Note_off_c, 6, 65, 64
8, 23049, Note_on_c, 6, 64, 127
8, 23096, Note_off_c, 6, 64, 64
8, 23164, Note_on_c, 6, 63, 125
8, 23199, Note_off_c, 6, 63, 64
8, 23286, Note_on_c, 6, 64, 125
8, 23356, Note_off_c, 6, 64, 64
8, 23768, Note_on_c, 6, 56, 124
8, 23826, Note_off_c, 6, 56, 64
8, 24008, Note_on_c, 6, 61, 117
8, 24427, Note_off_c, 6, 61, 64
8, 24486, Note_on_c, 6, 60, 125
8, 24760, Note_off_c, 6, 60, 64
8, 24849, Note_on_c, 6, 59, 123
8, 24897, Note_off_c, 6, 59, 64
8, 24962, Note_on_c, 6, 58, 127
8, 25009, Note_off_c, 6, 58, 64
8, 25088, Note_on_c, 6, 57, 123
8, 25123, Note_off_c, 6, 57, 64
8, 25207, Note_on_c, 6, 58, 124
8, 25278, Note_off_c, 6, 58, 64
8, 25685, Note_on_c, 6, 51, 123
8, 25743, Note_off_c, 6, 51, 64
8, 25929, Note_on_c, 6, 54, 118
8, 26348, Note_off_c, 6, 54, 64
8, 26404, Note_on_c, 6, 51, 127
8, 26679, Note_off_c, 6, 51, 64
8, 26765, Note_on_c, 6, 55, 123
8, 26811, Note_off_c, 6, 55, 64
8, 26886, Note_on_c, 6, 58, 125
8, 27282, Note_off_c, 6, 58, 64
8, 27365, Note_on_c, 6, 55, 127
8, 27639, Note_off_c, 6, 55, 64
8, 27724, Note_on_c, 6, 58, 119
8, 27770, Note_off_c, 6, 58, 64
8, 27847, Note_on_c, 6, 62, 123
8, 28721, Note_off_c, 6, 62, 64
8, 28803, Note_on_c, 6, 67, 127
8, 29197, Note_off_c, 6, 67, 64
8, 29287, Note_on_c, 6, 55, 121
8, 29561, Note_off_c, 6, 55, 64
8, 29646, Note_on_c, 6, 55, 125
8, 29692, Note_off_c, 6, 55, 64
8, 29762, Note_on_c, 6, 67, 121
8, 30180, Note_off_c, 6, 67, 64
8, 30249, Note_on_c, 6, 66, 124
8, 30523, Note_off_c, 6, 66, 64
8, 30603, Note_on_c, 6, 65, 124
8, 30649, Note_off_c, 6, 65, 64
8, 30727, Note_on_c, 6, 64, 125
8, 30773, Note_off_c, 6, 64, 64
8, 30848, Note_on_c, 6, 63, 123
8, 30883, Note_off_c, 6, 63, 64
8, 30964, Note_on_c, 6, 64, 123
8, 31037, Note_off_c, 6, 64, 64
8, 31447, Note_on_c, 6, 56, 124
8, 31505, Note_off_c, 6, 56, 64
8, 31656, Control_c, 6, 93, 5
8, 31678, Note_on_c, 6, 52, 96
8, 31685, Note_on_c, 6, 61, 117
8, 31685, Note_on_c, 6, 56, 96
8, 32097, Note_off_c, 6, 52, 64
8, 32103, Note_off_c, 6, 56, 64
8, 32104, Note_off_c, 6, 61, 64
8, 32167, Note_on_c, 6, 56, 100
8, 32168, Note_on_c, 6, 60, 124
8, 32168, Note_on_c, 6, 52, 104
8, 32441, Note_off_c, 6, 56, 64
8, 32442, Note_off_c, 6, 52, 64
8, 32442, Note_off_c, 6, 60, 64
8, 32522, Note_on_c, 6, 56, 101
8, 32522, Note_on_c, 6, 52, 99
8, 32529, Note_on_c, 6, 59, 125
8, 32568, Note_off_c, 6, 56, 64
8, 32569, Note_off_c, 6, 52, 64
8, 32575, Note_off_c, 6, 59, 64
8, 32647, Note_on_c, 6, 54, 109
8, 32648, Note_on_c, 6, 51, 110
8, 32649, Note_on_c, 6, 58, 127
8, 32693, Note_off_c, 6, 54, 64
8, 32695, Note_off_c, 6, 58, 64
8, 32695, Note_off_c, 6, 51, 64
8, 32768, Note_on_c, 6, 54, 102
8, 32768, Note_on_c, 6, 51, 101
8, 32769, Note_on_c, 6, 57, 123
8, 32802, Note_off_c, 6, 54, 64
8, 32802, Note_off_c, 6, 51, 64
8, 32803, Note_off_c, 6, 57, 64
8, 32887, Note_on_c, 6, 58, 123
8, 32888, Note_on_c, 6, 51, 102
8, 32889, Note_on_c, 6, 54, 103
8, 32957, Note_off_c, 6, 58, 64
8, 32959, Note_off_c, 6, 54, 64
8, 32959, Note_off_c, 6, 51, 64
8, 33366, Note_on_c, 6, 51, 124
8, 33427, Note_off_c, 6, 51, 64
8, 33606, Note_on_c, 6, 51, 98
8, 33608, Note_on_c, 6, 54, 119
8, 33609, Note_on_c, 6, 46, 98
8, 34026, Note_off_c, 6, 51, 64
8, 34026, Note_off_c, 6, 54, 64
8, 34027, Note_off_c, 6, 46, 64
8, 34084, Note_on_c, 6, 63, 125
8, 34087, Note_on_c, 6, 54, 108
8, 34088, Note_on_c, 6, 58, 110
8, 34214, Note_off_c, 6, 63, 64
8, 34217, Note_off_c, 6, 54, 64
8, 34218, Note_off_c, 6, 58, 64
8, 34569, Note_on_c, 6, 55, 125
8, 34916, Note_off_c, 6, 55, 64
8, 35036, Note_on_c, 6, 48, 105
8, 35046, Note_on_c, 6, 54, 109
8, 35047, Note_on_c, 6, 63, 127
8, 35166, Note_off_c, 6, 48, 64
8, 35177, Note_off_c, 6, 63, 64
8, 35177, Note_off_c, 6, 54, 64
8, 35520, Control_c, 6, 11, 127
8, 35525, Note_on_c, 6, 43, 110
8, 35526, Note_on_c, 6, 55, 125
8, 35568, Control_c, 6, 11, 124
8, 35616, Control_c, 6, 11, 121
8, 35688, Control_c, 6, 11, 118
8, 35736, Control_c, 6, 11, 115
8, 35784, Control_c, 6, 11, 111
8, 35856, Control_c, 6, 11, 108
8, 35904, Control_c, 6, 11, 105
8, 35976, Control_c, 6, 11, 101
8, 36000, Control_c, 6, 11, 99
8, 36000, Control_c, 6, 11, 99
8, 36072, Control_c, 6, 11, 103
8, 36120, Control_c, 6, 11, 106
8, 36168, Control_c, 6, 11, 109
8, 36216, Control_c, 6, 11, 113
8, 36288, Control_c, 6, 11, 116
8, 36336, Control_c, 6, 11, 120
8, 36384, Control_c, 6, 11, 123
8, 36400, Note_off_c, 6, 43, 64
8, 36401, Note_off_c, 6, 55, 64
8, 36432, Control_c, 6, 11, 127
8, 40325, Note_on_c, 6, 55, 123
8, 40659, Note_off_c, 6, 55, 64
8, 40802, Note_on_c, 6, 55, 125
8, 40860, Note_off_c, 6, 55, 64
8, 41042, Note_on_c, 6, 55, 122
8, 41084, Note_off_c, 6, 55, 64
8, 41127, Note_on_c, 6, 55, 122
8, 41169, Note_off_c, 6, 55, 64
8, 41209, Note_on_c, 6, 55, 118
8, 41251, Note_off_c, 6, 55, 64
8, 41288, Note_on_c, 6, 55, 123
8, 41349, Note_off_c, 6, 55, 64
8, 41528, Note_on_c, 6, 55, 125
8, 41572, Note_off_c, 6, 55, 64
8, 41609, Note_on_c, 6, 55, 122
8, 41651, Note_off_c, 6, 55, 64
8, 41688, Note_on_c, 6, 55, 114
8, 41730, Note_off_c, 6, 55, 64
8, 41767, Note_on_c, 6, 54, 119
8, 41769, Note_on_c, 6, 58, 127
8, 41769, Note_on_c, 6, 51, 119
8, 41809, Note_off_c, 6, 54, 64
8, 41811, Note_off_c, 6, 58, 64
8, 41812, Note_off_c, 6, 51, 64
8, 41847, Note_on_c, 6, 58, 125
8, 41848, Note_on_c, 6, 51, 111
8, 41849, Note_on_c, 6, 54, 110
8, 41890, Note_off_c, 6, 58, 64
8, 41891, Note_off_c, 6, 54, 64
8, 41891, Note_off_c, 6, 51, 64
8, 41925, Note_on_c, 6, 54, 109
8, 41929, Note_on_c, 6, 58, 115
8, 41929, Note_on_c, 6, 51, 110
8, 41967, Note_off_c, 6, 54, 64
8, 41971, Note_off_c, 6, 51, 64
8, 41971, Note_off_c, 6, 58, 64
8, 42008, Note_on_c, 6, 58, 123
8, 42008, Note_on_c, 6, 51, 108
8, 42009, Note_on_c, 6, 54, 109
8, 42066, Note_off_c, 6, 58, 64
8, 42067, Note_off_c, 6, 51, 64
8, 42069, Note_off_c, 6, 54, 64
8, 42243, Note_on_c, 6, 50, 109
8, 42247, Note_on_c, 6, 62, 122
8, 42247, Note_on_c, 6, 58, 103
8, 42302, Note_off_c, 6, 50, 64
8, 42305, Note_off_c, 6, 58, 64
8, 42306, Note_off_c, 6, 62, 64
8, 42483, Note_on_c, 6, 58, 109
8, 42487, Note_on_c, 6, 62, 123
8, 42487, Note_on_c, 6, 50, 108
8, 42526, Note_off_c, 6, 58, 64
8, 42529, Note_off_c, 6, 50, 64
8, 42529, Note_off_c, 6, 62, 64
8, 42564, Note_on_c, 6, 50, 109
8, 42569, Note_on_c, 6, 62, 124
8, 42569, Note_on_c, 6, 58, 110
8, 42606, Note_off_c, 6, 50, 64
8, 42611, Note_off_c, 6, 58, 64
8, 42612, Note_off_c, 6, 62, 64
8, 42640, Note_on_c, 6, 58, 102
8, 42649, Note_on_c, 6, 62, 119
8, 42649, Note_on_c, 6, 50, 104
8, 42682, Note_off_c, 6, 58, 64
8, 42691, Note_off_c, 6, 50, 64
8, 42691, Note_off_c, 6, 62, 64
8, 42727, Note_on_c, 6, 59, 116
8, 42727, Note_on_c, 6, 63, 127
8, 42729, Note_on_c, 6, 51, 117
8, 42769, Note_off_c, 6, 63, 64
8, 42770, Note_off_c, 6, 59, 64
8, 42772, Note_off_c, 6, 51, 64
8, 42802, Note_on_c, 6, 63, 120
8, 42806, Note_on_c, 6, 51, 105
8, 42807, Note_on_c, 6, 59, 110
8, 42844, Note_off_c, 6, 63, 64
8, 42848, Note_off_c, 6, 51, 64
8, 42849, Note_off_c, 6, 59, 64
8, 42883, Note_on_c, 6, 59, 110
8, 42889, Note_on_c, 6, 63, 126
8, 42889, Note_on_c, 6, 51, 114
8, 42925, Note_off_c, 6, 59, 64
8, 42931, Note_off_c, 6, 51, 64
8, 42932, Note_off_c, 6, 63, 64
8, 42965, Note_on_c, 6, 53, 117
8, 42966, Note_on_c, 6, 61, 117
8, 42967, Note_on_c, 6, 65, 127
8, 43023, Note_off_c, 6, 53, 64
8, 43024, Note_off_c, 6, 61, 64
8, 43025, Note_off_c, 6, 65, 64
8, 43207, Note_on_c, 6, 67, 127
8, 43207, Note_on_c, 6, 55, 118
8, 43208, Note_on_c, 6, 63, 119
8, 43265, Note_off_c, 6, 67, 64
8, 43265, Note_off_c, 6, 55, 64
8, 43267, Note_off_c, 6, 63, 64
8, 43442, Note_on_c, 6, 63, 119
8, 43449, Note_on_c, 6, 67, 127
8, 43449, Note_on_c, 6, 55, 117
8, 43486, Note_off_c, 6, 63, 64
8, 43492, Note_off_c, 6, 55, 64
8, 43493, Note_off_c, 6, 67, 64
8, 43528, Note_on_c, 6, 67, 127
8, 43528, Note_on_c, 6, 55, 114
8, 43529, Note_on_c, 6, 63, 116
8, 43570, Note_off_c, 6, 55, 64
8, 43571, Note_off_c, 6, 63, 64
8, 43572, Note_off_c, 6, 67, 64
8, 43604, Note_on_c, 6, 67, 127
8, 43607, Note_on_c, 6, 55, 112
8, 43607, Note_on_c, 6, 63, 108
8, 43648, Note_off_c, 6, 67, 64
8, 43649, Note_off_c, 6, 63, 64
8, 43650, Note_off_c, 6, 55, 64
8, 43687, Note_on_c, 6, 56, 123
8, 43689, Note_on_c, 6, 68, 127
8, 43689, Note_on_c, 6, 64, 120
8, 43730, Note_off_c, 6, 56, 64
8, 43732, Note_off_c, 6, 64, 64
8, 43732, Note_off_c, 6, 68, 64
8, 43763, Note_on_c, 6, 64, 116
8, 43767, Note_on_c, 6, 68, 127
8, 43769, Note_on_c, 6, 56, 119
8, 43807, Note_off_c, 6, 64, 64
8, 43810, Note_off_c, 6, 68, 64
8, 43811, Note_off_c, 6, 56, 64
8, 43847, Note_on_c, 6, 64, 111
8, 43847, Note_on_c, 6, 68, 125
8, 43848, Note_on_c, 6, 56, 111
8, 43889, Note_off_c, 6, 64, 64
8, 43889, Note_off_c, 6, 68, 64
8, 43891, Note_off_c, 6, 56, 64
8, 43928, Note_on_c, 6, 58, 119
8, 43929, Note_on_c, 6, 70, 127
8, 43929, Note_on_c, 6, 66, 119
8, 43986, Note_off_c, 6, 58, 64
8, 43987, Note_off_c, 6, 66, 64
8, 43987, Note_off_c, 6, 70, 64
8, 72962, Note_on_c, 6, 53, 53
8, 72963, Note_on_c, 6, 58, 60
8, 72965, Note_on_c, 6, 49, 54
8, 73068, Note_off_c, 6, 53, 64
8, 73069, Note_off_c, 6, 58, 64
8, 73071, Note_off_c, 6, 49, 64
8, 73925, Note_on_c, 6, 49, 53
8, 73926, Note_on_c, 6, 58, 60
8, 73927, Note_on_c, 6, 53, 52
8, 74032, Note_off_c, 6, 49, 64
8, 74032, Note_off_c, 6, 58, 64
8, 74035, Note_off_c, 6, 53, 64
8, 74883, Note_on_c, 6, 52, 48
8, 74884, Note_on_c, 6, 55, 47
8, 74889, Note_on_c, 6, 59, 54
8, 74978, Note_off_c, 6, 52, 64
8, 74979, Note_off_c, 6, 55, 64
8, 74983, Note_off_c, 6, 59, 64
8, 75096, Control_c, 6, 11, 113
8, 75127, Note_on_c, 6, 55, 48
8, 75128, Note_on_c, 6, 59, 58
8, 75129, Note_on_c, 6, 52, 49
8, 75216, Control_c, 6, 11, 114
8, 75336, Control_c, 6, 11, 116
8, 75432, Control_c, 6, 11, 119
8, 75552, Control_c, 6, 11, 121
8, 75672, Control_c, 6, 11, 124
8, 75773, Note_off_c, 6, 55, 64
8, 75775, Note_off_c, 6, 52, 64
8, 75775, Note_off_c, 6, 59, 64
8, 75792, Control_c, 6, 11, 127
8, 75845, Note_on_c, 6, 55, 45
8, 75849, Note_on_c, 6, 59, 51
8, 75849, Note_on_c, 6, 52, 49
8, 76320, Control_c, 6, 11, 127
8, 76464, Control_c, 6, 11, 127
8, 76584, Control_c, 6, 11, 125
8, 76704, Control_c, 6, 11, 124
8, 76776, Control_c, 6, 11, 121
8, 76896, Control_c, 6, 11, 119
8, 76944, Control_c, 6, 11, 116
8, 77040, Control_c, 6, 11, 113
8, 77088, Control_c, 6, 11, 110
8, 77184, Control_c, 6, 11, 106
8, 77232, Control_c, 6, 11, 103
8, 77280, Control_c, 6, 11, 100
8, 77328, Control_c, 6, 11, 96
8, 77400, Control_c, 6, 11, 91
8, 77448, Control_c, 6, 11, 88
8, 77472, Control_c, 6, 11, 85
8, 77496, Control_c, 6, 11, 82
8, 77544, Control_c, 6, 11, 79
8, 77568, Control_c, 6, 11, 76
8, 77592, Control_c, 6, 11, 72
8, 77640, Control_c, 6, 11, 67
8, 77664, Control_c, 6, 11, 64
8, 77688, Control_c, 6, 11, 60
8, 77712, Control_c, 6, 11, 56
8, 77736, Control_c, 6, 11, 52
8, 77760, Control_c, 6, 11, 47
8, 77784, Control_c, 6, 11, 42
8, 77808, Control_c, 6, 11, 36
8, 77825, Note_off_c, 6, 55, 64
8, 77827, Note_off_c, 6, 52, 64
8, 77828, Note_off_c, 6, 59, 64
8, 77832, Control_c, 6, 11, 28
8, 77856, Control_c, 6, 11, 17
8, 78192, Control_c, 6, 11, 127
8, 78216, Control_c, 6, 11, 127
8, 78243, Note_on_c, 6, 55, 53
8, 78247, Note_on_c, 6, 52, 54
8, 78249, Note_on_c, 6, 59, 60
8, 78312, Control_c, 6, 11, 124
8, 78408, Control_c, 6, 11, 121
8, 78516, Control_c, 6, 11, 119
8, 78600, Control_c, 6, 11, 116
8, 78637, Note_off_c, 6, 55, 64
8, 78642, Note_off_c, 6, 52, 64
8, 78643, Note_off_c, 6, 59, 64
8, 78696, Control_c, 6, 11, 114
8, 78696, Control_c, 6, 11, 114
8, 78725, Note_on_c, 6, 54, 45
8, 78729, Note_on_c, 6, 57, 51
8, 78729, Note_on_c, 6, 49, 49
8, 78804, Control_c, 6, 11, 115
8, 78831, Note_off_c, 6, 54, 64
8, 78835, Note_off_c, 6, 49, 64
8, 78835, Note_off_c, 6, 57, 64
8, 78912, Control_c, 6, 11, 116
8, 78966, Note_on_c, 6, 57, 57
8, 78967, Note_on_c, 6, 54, 54
8, 78969, Note_on_c, 6, 49, 48
8, 79020, Control_c, 6, 11, 118
8, 79084, Note_off_c, 6, 57, 64
8, 79086, Note_off_c, 6, 54, 64
8, 79087, Note_off_c, 6, 49, 64
8, 79128, Control_c, 6, 11, 119
8, 79236, Control_c, 6, 11, 120
8, 79344, Control_c, 6, 11, 121
8, 79445, Note_on_c, 6, 54, 54
8, 79446, Note_on_c, 6, 49, 51
8, 79448, Note_on_c, 6, 57, 56
8, 79452, Control_c, 6, 11, 123
8, 79539, Note_off_c, 6, 54, 64
8, 79540, Note_off_c, 6, 49, 64
8, 79543, Note_off_c, 6, 57, 64
8, 79560, Control_c, 6, 11, 125
8, 79656, Control_c, 6, 11, 127
8, 79684, Note_on_c, 6, 61, 52
8, 79685, Note_on_c, 6, 57, 44
8, 79685, Note_on_c, 6, 54, 48
8, 80160, Control_c, 6, 11, 127
8, 80304, Control_c, 6, 11, 127
8, 80424, Control_c, 6, 11, 125
8, 80544, Control_c, 6, 11, 123
8, 80592, Control_c, 6, 11, 120
8, 80688, Control_c, 6, 11, 116
8, 80784, Control_c, 6, 11, 113
8, 80832, Control_c, 6, 11, 110
8, 80904, Control_c, 6, 11, 106
8, 80952, Control_c, 6, 11, 103
8, 81000, Control_c, 6, 11, 99
8, 81048, Control_c, 6, 11, 95
8, 81096, Control_c, 6, 11, 91
8, 81144, Control_c, 6, 11, 86
8, 81192, Control_c, 6, 11, 81
8, 81216, Control_c, 6, 11, 77
8, 81264, Control_c, 6, 11, 71
8, 81288, Control_c, 6, 11, 67
8, 81312, Control_c, 6, 11, 64
8, 81336, Control_c, 6, 11, 60
8, 81360, Control_c, 6, 11, 56
8, 81384, Control_c, 6, 11, 51
8, 81408, Control_c, 6, 11, 45
8, 81422, Note_off_c, 6, 61, 64
8, 81423, Note_off_c, 6, 54, 64
8, 81425, Note_off_c, 6, 57, 64
8, 81432, Control_c, 6, 11, 38
8, 81456, Control_c, 6, 11, 30
8, 81480, Control_c, 6, 11, 17
8, 81576, Control_c, 6, 11, 114
8, 81607, Note_on_c, 6, 57, 55
8, 81607, Note_on_c, 6, 61, 55
8, 81609, Note_on_c, 6, 54, 50
8, 81888, Control_c, 6, 11, 115
8, 82080, Control_c, 6, 11, 116
8, 82224, Control_c, 6, 11, 118
8, 82344, Control_c, 6, 11, 119
8, 82464, Control_c, 6, 11, 121
8, 82512, Control_c, 6, 11, 124
8, 82536, Control_c, 6, 11, 127
8, 82565, Note_off_c, 6, 57, 64
8, 82565, Note_on_c, 6, 53, 52
8, 82565, Note_on_c, 6, 49, 54
8, 82567, Note_off_c, 6, 61, 64
8, 82568, Note_off_c, 6, 54, 64
8, 82569, Note_on_c, 6, 58, 58
8, 82656, Control_c, 6, 11, 124
8, 82752, Control_c, 6, 11, 121
8, 82872, Control_c, 6, 11, 119
8, 82923, Note_off_c, 6, 53, 64
8, 82924, Note_off_c, 6, 49, 64
8, 82928, Note_off_c, 6, 58, 64
8, 82944, Control_c, 6, 11, 116
8, 83040, Control_c, 6, 11, 114
8, 83047, Note_on_c, 6, 54, 57
8, 83049, Note_on_c, 6, 48, 53
8, 83049, Note_on_c, 6, 51, 54
8, 83160, Control_c, 6, 11, 116
8, 83232, Control_c, 6, 11, 119
8, 83352, Control_c, 6, 11, 121
8, 83424, Control_c, 6, 11, 124
8, 83478, Note_off_c, 6, 54, 64
8, 83480, Note_off_c, 6, 48, 64
8, 83481, Note_off_c, 6, 51, 64
8, 83496, Control_c, 6, 11, 127
8, 83516, Note_on_c, 6, 53, 47
8, 83526, Note_on_c, 6, 58, 52
8, 83527, Note_on_c, 6, 49, 48
8, 84210, Note_off_c, 6, 53, 64
8, 84220, Note_off_c, 6, 58, 64
8, 84222, Note_off_c, 6, 49, 64
8, 84242, Note_on_c, 6, 49, 54
8, 84246, Note_on_c, 6, 46, 52
8, 84248, Note_on_c, 6, 53, 60
8, 84312, Note_off_c, 6, 49, 64
8, 84316, Note_off_c, 6, 46, 64
8, 84318, Note_off_c, 6, 53, 64
8, 84481, Note_on_c, 6, 53, 51
8, 84484, Note_on_c, 6, 58, 60
8, 84488, Note_on_c, 6, 49, 54
8, 84815, Note_off_c, 6, 53, 64
8, 84818, Note_off_c, 6, 58, 64
8, 84822, Note_off_c, 6, 49, 64
8, 84960, Control_c, 6, 11, 127
8, 84967, Note_on_c, 6, 51, 52
8, 84967, Note_on_c, 6, 58, 59
8, 84969, Note_on_c, 6, 48, 54
8, 85056, Control_c, 6, 11, 124
8, 85152, Control_c, 6, 11, 121
8, 85272, Control_c, 6, 11, 119
8, 85344, Control_c, 6, 11, 116
8, 85373, Note_off_c, 6, 51, 64
8, 85373, Note_off_c, 6, 58, 64
8, 85375, Note_off_c, 6, 48, 64
8, 85440, Control_c, 6, 11, 114
8, 85442, Note_on_c, 6, 53, 48
8, 85446, Note_on_c, 6, 49, 50
8, 85449, Note_on_c, 6, 58, 54
8, 85656, Control_c, 6, 11, 115
8, 85800, Control_c, 6, 11, 116
8, 85872, Note_off_c, 6, 53, 64
8, 85876, Note_off_c, 6, 49, 64
8, 85879, Note_off_c, 6, 58, 64
8, 85920, Control_c, 6, 11, 118
8, 85927, Note_on_c, 6, 58, 64
8, 85927, Note_on_c, 6, 49, 64
8, 85927, Note_on_c, 6, 53, 61
8, 85997, Note_off_c, 6, 53, 64
8, 85998, Note_off_c, 6, 58, 64
8, 85999, Note_off_c, 6, 49, 64
8, 86040, Control_c, 6, 11, 120
8, 86088, Control_c, 6, 11, 123
8, 86112, Control_c, 6, 11, 124
8, 86136, Control_c, 6, 11, 125
8, 86160, Control_c, 6, 11, 127
8, 86167, Note_on_c, 6, 49, 71
8, 86169, Note_on_c, 6, 58, 73
8, 86169, Note_on_c, 6, 53, 70
8, 86237, Note_off_c, 6, 49, 64
8, 86239, Note_off_c, 6, 58, 64
8, 86240, Note_off_c, 6, 53, 64
8, 86406, Note_on_c, 6, 47, 84
8, 86408, Note_on_c, 6, 59, 85
8, 86717, Note_off_c, 6, 47, 64
8, 86720, Note_off_c, 6, 59, 64
8, 86886, Note_on_c, 6, 59, 90
8, 86889, Note_on_c, 6, 47, 91
8, 86944, Note_off_c, 6, 59, 64
8, 86947, Note_off_c, 6, 47, 64
8, 87127, Note_on_c, 6, 59, 91
8, 87128, Note_on_c, 6, 47, 91
8, 87169, Note_off_c, 6, 59, 64
8, 87170, Note_off_c, 6, 47, 64
8, 87201, Note_on_c, 6, 59, 88
8, 87208, Note_on_c, 6, 47, 89
8, 87246, Note_off_c, 6, 59, 64
8, 87250, Note_off_c, 6, 47, 64
8, 87285, Note_on_c, 6, 59, 85
8, 87286, Note_on_c, 6, 47, 82
8, 87328, Note_off_c, 6, 47, 64
8, 87330, Note_off_c, 6, 59, 64
8, 87360, Control_c, 6, 11, 118
8, 87363, Note_on_c, 6, 47, 88
8, 87369, Note_on_c, 6, 59, 91
8, 87428, Note_off_c, 6, 59, 64
8, 87434, Note_off_c, 6, 47, 64
8, 87480, Control_c, 6, 11, 120
8, 87528, Control_c, 6, 11, 123
8, 87552, Control_c, 6, 11, 124
8, 87576, Control_c, 6, 11, 125
8, 87600, Control_c, 6, 11, 127
8, 87608, Note_on_c, 6, 47, 92
8, 87609, Note_on_c, 6, 59, 91
8, 87651, Note_off_c, 6, 59, 64
8, 87679, Note_off_c, 6, 47, 64
8, 87686, Note_on_c, 6, 59, 90
8, 87729, Note_off_c, 6, 59, 64
8, 87769, Note_on_c, 6, 59, 85
8, 87813, Note_off_c, 6, 59, 64
8, 87846, Note_on_c, 6, 55, 91
8, 87846, Note_on_c, 6, 59, 98
8, 87847, Note_on_c, 6, 58, 92
8, 87888, Note_off_c, 6, 59, 64
8, 87889, Note_off_c, 6, 58, 64
8, 87890, Note_off_c, 6, 55, 64
8, 87922, Note_on_c, 6, 55, 84
8, 87924, Note_on_c, 6, 58, 85
8, 87927, Note_on_c, 6, 59, 92
8, 87964, Note_off_c, 6, 55, 64
8, 87967, Note_off_c, 6, 58, 64
8, 87971, Note_off_c, 6, 59, 64
8, 88003, Note_on_c, 6, 55, 79
8, 88006, Note_on_c, 6, 59, 85
8, 88007, Note_on_c, 6, 58, 79
8, 88045, Note_off_c, 6, 55, 64
8, 88048, Note_off_c, 6, 59, 64
8, 88050, Note_off_c, 6, 58, 64
8, 88086, Note_on_c, 6, 58, 82
8, 88089, Note_on_c, 6, 59, 88
8, 88089, Note_on_c, 6, 55, 80
8, 88144, Note_off_c, 6, 58, 64
8, 88148, Note_off_c, 6, 55, 64
8, 88149, Note_off_c, 6, 59, 64
8, 88326, Note_on_c, 6, 59, 84
8, 88329, Note_on_c, 6, 47, 85
8, 88636, Note_off_c, 6, 59, 64
8, 88639, Note_off_c, 6, 47, 64
8, 88807, Note_on_c, 6, 47, 88
8, 88809, Note_on_c, 6, 59, 89
8, 88865, Note_off_c, 6, 47, 64
8, 88869, Note_off_c, 6, 59, 64
8, 89045, Note_on_c, 6, 47, 92
8, 89045, Note_on_c, 6, 59, 91
8, 89088, Note_off_c, 6, 47, 64
8, 89088, Note_off_c, 6, 59, 64
8, 89127, Note_on_c, 6, 47, 92
8, 89128, Note_on_c, 6, 59, 91
8, 89170, Note_off_c, 6, 47, 64
8, 89170, Note_off_c, 6, 59, 64
8, 89205, Note_on_c, 6, 47, 82
8, 89205, Note_on_c, 6, 59, 85
8, 89247, Note_off_c, 6, 47, 64
8, 89248, Note_off_c, 6, 59, 64
8, 89274, Note_on_c, 6, 47, 91
8, 89280, Control_c, 6, 11, 118
8, 89288, Note_on_c, 6, 59, 92
8, 89345, Note_off_c, 6, 47, 64
8, 89346, Note_off_c, 6, 59, 64
8, 89400, Control_c, 6, 11, 120
8, 89448, Control_c, 6, 11, 123
8, 89472, Control_c, 6, 11, 124
8, 89496, Control_c, 6, 11, 125
8, 89518, Note_on_c, 6, 47, 89
8, 89520, Control_c, 6, 11, 127
8, 89525, Note_on_c, 6, 59, 91
8, 89567, Note_off_c, 6, 59, 64
8, 89589, Note_off_c, 6, 47, 64
8, 89604, Note_on_c, 6, 59, 91
8, 89648, Note_off_c, 6, 59, 64
8, 89686, Note_on_c, 6, 59, 82
8, 89728, Note_off_c, 6, 59, 64
8, 89762, Note_on_c, 6, 59, 92
8, 89763, Note_on_c, 6, 58, 92
8, 89765, Note_on_c, 6, 55, 92
8, 89804, Note_off_c, 6, 59, 64
8, 89805, Note_off_c, 6, 58, 64
8, 89809, Note_off_c, 6, 55, 64
8, 89840, Note_on_c, 6, 58, 85
8, 89846, Note_on_c, 6, 55, 85
8, 89847, Note_on_c, 6, 59, 91
8, 89882, Note_off_c, 6, 58, 64
8, 89888, Note_off_c, 6, 55, 64
8, 89889, Note_off_c, 6, 59, 64
8, 89920, Note_on_c, 6, 59, 79
8, 89926, Note_on_c, 6, 55, 79
8, 89929, Note_on_c, 6, 58, 79
8, 89962, Note_off_c, 6, 59, 64
8, 89968, Note_off_c, 6, 55, 64
8, 89971, Note_off_c, 6, 58, 64
8, 90008, Note_on_c, 6, 59, 91
8, 90009, Note_on_c, 6, 55, 85
8, 90009, Note_on_c, 6, 58, 85
8, 90066, Note_off_c, 6, 59, 64
8, 90067, Note_off_c, 6, 58, 64
8, 90067, Note_off_c, 6, 55, 64
8, 90248, Note_on_c, 6, 60, 85
8, 90249, Note_on_c, 6, 48, 85
8, 90558, Note_off_c, 6, 60, 64
8, 90559, Note_off_c, 6, 48, 64
8, 90729, Note_on_c, 6, 60, 90
8, 90729, Note_on_c, 6, 48, 86
8, 90787, Note_off_c, 6, 60, 64
8, 90788, Note_off_c, 6, 48, 64
8, 90968, Note_on_c, 6, 60, 92
8, 90968, Note_on_c, 6, 48, 90
8, 91010, Note_off_c, 6, 60, 64
8, 91011, Note_off_c, 6, 48, 64
8, 91045, Note_on_c, 6, 48, 86
8, 91048, Note_on_c, 6, 60, 91
8, 91089, Note_off_c, 6, 48, 64
8, 91091, Note_off_c, 6, 60, 64
8, 91121, Note_on_c, 6, 60, 85
8, 91128, Note_on_c, 6, 48, 81
8, 91163, Note_off_c, 6, 60, 64
8, 91172, Note_off_c, 6, 48, 64
8, 91200, Control_c, 6, 11, 118
8, 91200, Note_on_c, 6, 48, 92
8, 91208, Note_on_c, 6, 60, 92
8, 91267, Note_off_c, 6, 60, 64
8, 91272, Note_off_c, 6, 48, 64
8, 91320, Control_c, 6, 11, 120
8, 91368, Control_c, 6, 11, 123
8, 91392, Control_c, 6, 11, 124
8, 91416, Control_c, 6, 11, 125
8, 91440, Control_c, 6, 11, 127
8, 91442, Note_on_c, 6, 48, 92
8, 91443, Note_on_c, 6, 60, 92
8, 91487, Note_off_c, 6, 60, 64
8, 91514, Note_off_c, 6, 48, 64
8, 91523, Note_on_c, 6, 60, 91
8, 91566, Note_off_c, 6, 60, 64
8, 91609, Note_on_c, 6, 60, 84
8, 91653, Note_off_c, 6, 60, 64
8, 91683, Note_on_c, 6, 59, 92
8, 91687, Note_on_c, 6, 56, 90
8, 91688, Note_on_c, 6, 60, 98
8, 91725, Note_off_c, 6, 59, 64
8, 91729, Note_off_c, 6, 56, 64
8, 91731, Note_off_c, 6, 60, 64
8, 91760, Note_on_c, 6, 60, 92
8, 91769, Note_on_c, 6, 59, 81
8, 91769, Note_on_c, 6, 56, 80
8, 91802, Note_off_c, 6, 60, 64
8, 91811, Note_off_c, 6, 56, 64
8, 91811, Note_off_c, 6, 59, 64
8, 91844, Note_on_c, 6, 60, 84
8, 91847, Note_on_c, 6, 59, 79
8, 91848, Note_on_c, 6, 56, 75
8, 91888, Note_off_c, 6, 60, 64
8, 91889, Note_off_c, 6, 59, 64
8, 91890, Note_off_c, 6, 56, 64
8, 91924, Note_on_c, 6, 59, 85
8, 91926, Note_on_c, 6, 60, 87
8, 91927, Note_on_c, 6, 56, 84
8, 91982, Note_off_c, 6, 59, 64
8, 91985, Note_off_c, 6, 56, 64
8, 91986, Note_off_c, 6, 60, 64
8, 92165, Note_on_c, 6, 60, 85
8, 92168, Note_on_c, 6, 48, 83
8, 92475, Note_off_c, 6, 60, 64
8, 92479, Note_off_c, 6, 48, 64
8, 92646, Note_on_c, 6, 48, 89
8, 92649, Note_on_c, 6, 60, 91
8, 92704, Note_off_c, 6, 48, 64
8, 92707, Note_off_c, 6, 60, 64
8, 92887, Note_on_c, 6, 60, 90
8, 92889, Note_on_c, 6, 48, 92
8, 92930, Note_off_c, 6, 60, 64
8, 92932, Note_off_c, 6, 48, 64
8, 92967, Note_on_c, 6, 60, 91
8, 92969, Note_on_c, 6, 48, 91
8, 93009, Note_off_c, 6, 60, 64
8, 93011, Note_off_c, 6, 48, 64
8, 93044, Note_on_c, 6, 60, 84
8, 93046, Note_on_c, 6, 48, 85
8, 93087, Note_off_c, 6, 60, 64
8, 93088, Note_off_c, 6, 48, 64
8, 93120, Control_c, 6, 11, 118
8, 93123, Note_on_c, 6, 60, 92
8, 93129, Note_on_c, 6, 48, 89
8, 93181, Note_off_c, 6, 60, 64
8, 93199, Note_off_c, 6, 48, 64
8, 93240, Control_c, 6, 11, 120
8, 93288, Control_c, 6, 11, 123
8, 93312, Control_c, 6, 11, 124
8, 93336, Control_c, 6, 11, 125
8, 93360, Control_c, 6, 11, 127
8, 93366, Note_on_c, 6, 60, 90
8, 93369, Note_on_c, 6, 48, 90
8, 93408, Note_off_c, 6, 60, 64
8, 93439, Note_off_c, 6, 48, 64
8, 93449, Note_on_c, 6, 60, 91
8, 93491, Note_off_c, 6, 60, 64
8, 93524, Note_on_c, 6, 60, 83
8, 93566, Note_off_c, 6, 60, 64
8, 93606, Note_on_c, 6, 56, 92
8, 93609, Note_on_c, 6, 59, 92
8, 93609, Note_on_c, 6, 60, 93
8, 93648, Note_off_c, 6, 56, 64
8, 93652, Note_off_c, 6, 59, 64
8, 93653, Note_off_c, 6, 60, 64
8, 93687, Note_on_c, 6, 56, 85
8, 93688, Note_on_c, 6, 59, 84
8, 93688, Note_on_c, 6, 60, 92
8, 93730, Note_off_c, 6, 56, 64
8, 93732, Note_off_c, 6, 60, 64
8, 93732, Note_off_c, 6, 59, 64
8, 93763, Note_on_c, 6, 56, 76
8, 93767, Note_on_c, 6, 59, 77
8, 93769, Note_on_c, 6, 60, 85
8, 93805, Note_off_c, 6, 56, 64
8, 93809, Note_off_c, 6, 59, 64
8, 93813, Note_off_c, 6, 60, 64
8, 93845, Note_on_c, 6, 56, 85
8, 93848, Note_on_c, 6, 59, 85
8, 93848, Note_on_c, 6, 60, 90
8, 93903, Note_off_c, 6, 56, 64
8, 93906, Note_off_c, 6, 60, 64
8, 93908, Note_off_c, 6, 59, 64
8, 94056, Control_c, 6, 93, 50
8, 94087, Note_on_c, 6, 55, 125
8, 94481, Note_off_c, 6, 55, 64
8, 94568, Note_on_c, 6, 55, 125
8, 94962, Note_off_c, 6, 55, 64
8, 95046, Note_on_c, 6, 55, 118
8, 95440, Note_off_c, 6, 55, 64
8, 95526, Note_on_c, 6, 51, 127
8, 95800, Note_off_c, 6, 51, 64
8, 95888, Note_on_c, 6, 58, 125
8, 95922, Note_off_c, 6, 58, 64
8, 96002, Note_on_c, 6, 55, 125
8, 96397, Note_off_c, 6, 55, 64
8, 96486, Note_on_c, 6, 51, 127
8, 96760, Note_off_c, 6, 51, 64
8, 96849, Note_on_c, 6, 58, 125
8, 96883, Note_off_c, 6, 58, 64
8, 96959, Note_on_c, 6, 55, 121
8, 97834, Note_off_c, 6, 55, 64
8, 97928, Note_on_c, 6, 62, 124
8, 98322, Note_off_c, 6, 62, 64
8, 98406, Note_on_c, 6, 62, 119
8, 98800, Note_off_c, 6, 62, 64
8, 98883, Note_on_c, 6, 62, 125
8, 99278, Note_off_c, 6, 62, 64
8, 99367, Note_on_c, 6, 63, 127
8, 99642, Note_off_c, 6, 63, 64
8, 99726, Note_on_c, 6, 58, 124
8, 99760, Note_off_c, 6, 58, 64
8, 99847, Note_on_c, 6, 54, 124
8, 100241, Note_off_c, 6, 54, 64
8, 100319, Note_on_c, 6, 51, 127
8, 100593, Note_off_c, 6, 51, 64
8, 100688, Note_on_c, 6, 58, 124
8, 100723, Note_off_c, 6, 58, 64
8, 100805, Note_on_c, 6, 55, 122
8, 101680, Note_off_c, 6, 55, 64
8, 101761, Note_on_c, 6, 67, 127
8, 102155, Note_off_c, 6, 67, 64
8, 102249, Note_on_c, 6, 55, 125
8, 102525, Note_off_c, 6, 55, 64
8, 102608, Note_on_c, 6, 55, 122
8, 102654, Note_off_c, 6, 55, 64
8, 102727, Note_on_c, 6, 67, 124
8, 103145, Note_off_c, 6, 67, 64
8, 103207, Note_on_c, 6, 66, 124
8, 103482, Note_off_c, 6, 66, 64
8, 103568, Note_on_c, 6, 65, 121
8, 103614, Note_off_c, 6, 65, 64
8, 103682, Note_on_c, 6, 64, 127
8, 103728, Note_off_c, 6, 64, 64
8, 103802, Note_on_c, 6, 63, 122
8, 103836, Note_off_c, 6, 63, 64
8, 103927, Note_on_c, 6, 64, 125
8, 103997, Note_off_c, 6, 64, 64
8, 104407, Note_on_c, 6, 56, 121
8, 104465, Note_off_c, 6, 56, 64
8, 104616, Control_c, 6, 93, 5
8, 104648, Note_on_c, 6, 52, 97
8, 104649, Note_on_c, 6, 61, 119
8, 104649, Note_on_c, 6, 56, 94
8, 105066, Note_off_c, 6, 52, 64
8, 105067, Note_off_c, 6, 56, 64
8, 105067, Note_off_c, 6, 61, 64
8, 105124, Note_on_c, 6, 56, 104
8, 105128, Note_on_c, 6, 60, 124
8, 105128, Note_on_c, 6, 52, 104
8, 105398, Note_off_c, 6, 56, 64
8, 105402, Note_off_c, 6, 52, 64
8, 105403, Note_off_c, 6, 60, 64
8, 105486, Note_on_c, 6, 56, 98
8, 105487, Note_on_c, 6, 59, 124
8, 105488, Note_on_c, 6, 52, 99
8, 105534, Note_off_c, 6, 56, 64
8, 105534, Note_off_c, 6, 52, 64
8, 105534, Note_off_c, 6, 59, 64
8, 105607, Note_on_c, 6, 58, 127
8, 105607, Note_on_c, 6, 51, 109
8, 105609, Note_on_c, 6, 54, 106
8, 105653, Note_off_c, 6, 58, 64
8, 105653, Note_off_c, 6, 51, 64
8, 105655, Note_off_c, 6, 54, 64
8, 105726, Note_on_c, 6, 57, 123
8, 105727, Note_on_c, 6, 51, 102
8, 105728, Note_on_c, 6, 54, 103
8, 105762, Note_off_c, 6, 57, 64
8, 105762, Note_off_c, 6, 54, 64
8, 105762, Note_off_c, 6, 51, 64
8, 105847, Note_on_c, 6, 58, 119
8, 105849, Note_on_c, 6, 51, 100
8, 105849, Note_on_c, 6, 54, 101
8, 105917, Note_off_c, 6, 58, 64
8, 105919, Note_off_c, 6, 54, 64
8, 105919, Note_off_c, 6, 51, 64
8, 106329, Note_on_c, 6, 51, 125
8, 106387, Note_off_c, 6, 51, 64
8, 106565, Note_on_c, 6, 46, 97
8, 106566, Note_on_c, 6, 51, 96
8, 106567, Note_on_c, 6, 54, 119
8, 106959, Note_off_c, 6, 46, 64
8, 106960, Note_off_c, 6, 51, 64
8, 106961, Note_off_c, 6, 54, 64
8, 107049, Note_on_c, 6, 51, 126
8, 107325, Note_off_c, 6, 51, 64
8, 107407, Note_on_c, 6, 55, 125
8, 107454, Note_off_c, 6, 55, 64
8, 107523, Note_on_c, 6, 58, 117
8, 107529, Note_on_c, 6, 50, 98
8, 107529, Note_on_c, 6, 55, 95
8, 107917, Note_off_c, 6, 58, 64
8, 107923, Note_off_c, 6, 50, 64
8, 107924, Note_off_c, 6, 55, 64
8, 107999, Note_on_c, 6, 55, 125
8, 108273, Note_off_c, 6, 55, 64
8, 108358, Note_on_c, 6, 58, 125
8, 108404, Note_off_c, 6, 58, 64
8, 108480, Control_c, 6, 11, 127
8, 108486, Note_on_c, 6, 58, 102
8, 108489, Note_on_c, 6, 55, 104
8, 108489, Note_on_c, 6, 62, 110
8, 108528, Control_c, 6, 11, 124
8, 108576, Control_c, 6, 11, 121
8, 108648, Control_c, 6, 11, 118
8, 108696, Control_c, 6, 11, 115
8, 108744, Control_c, 6, 11, 111
8, 108816, Control_c, 6, 11, 108
8, 108864, Control_c, 6, 11, 105
8, 108936, Control_c, 6, 11, 101
8, 108960, Control_c, 6, 11, 99
8, 109032, Control_c, 6, 11, 103
8, 109104, Control_c, 6, 11, 106
8, 109128, Control_c, 6, 11, 109
8, 109200, Control_c, 6, 11, 113
8, 109272, Control_c, 6, 11, 118
8, 109344, Control_c, 6, 11, 121
8, 109362, Note_off_c, 6, 58, 64
8, 109363, Note_off_c, 6, 62, 64
8, 109364, Note_off_c, 6, 55, 64
8, 109392, Control_c, 6, 11, 124
8, 109416, Control_c, 6, 11, 127
8, 109447, Note_on_c, 6, 67, 127
8, 109842, Note_off_c, 6, 67, 64
8, 109928, Note_on_c, 6, 55, 123
8, 110202, Note_off_c, 6, 55, 64
8, 110289, Note_on_c, 6, 55, 119
8, 110336, Note_off_c, 6, 55, 64
8, 110408, Note_on_c, 6, 67, 122
8, 110828, Note_off_c, 6, 67, 64
8, 110886, Note_on_c, 6, 66, 123
8, 111161, Note_off_c, 6, 66, 64
8, 111246, Note_on_c, 6, 65, 122
8, 111292, Note_off_c, 6, 65, 64
8, 111369, Note_on_c, 6, 64, 127
8, 111415, Note_off_c, 6, 64, 64
8, 111489, Note_on_c, 6, 63, 125
8, 111523, Note_off_c, 6, 63, 64
8, 111609, Note_on_c, 6, 64, 118
8, 111679, Note_off_c, 6, 64, 64
8, 112089, Note_on_c, 6, 56, 124
8, 112147, Note_off_c, 6, 56, 64
8, 112296, Control_c, 6, 93, 5
8, 112328, Note_on_c, 6, 52, 96
8, 112329, Note_on_c, 6, 56, 97
8, 112329, Note_on_c, 6, 61, 118
8, 112747, Note_off_c, 6, 52, 64
8, 112747, Note_off_c, 6, 61, 64
8, 112748, Note_off_c, 6, 56, 64
8, 112808, Note_on_c, 6, 56, 102
8, 112809, Note_on_c, 6, 52, 104
8, 112809, Note_on_c, 6, 60, 125
8, 113083, Note_off_c, 6, 56, 64
8, 113084, Note_off_c, 6, 52, 64
8, 113086, Note_off_c, 6, 60, 64
8, 113160, Note_on_c, 6, 52, 103
8, 113165, Note_on_c, 6, 56, 98
8, 113168, Note_on_c, 6, 59, 125
8, 113206, Note_off_c, 6, 52, 64
8, 113211, Note_off_c, 6, 56, 64
8, 113214, Note_off_c, 6, 59, 64
8, 113288, Note_on_c, 6, 54, 110
8, 113289, Note_on_c, 6, 51, 107
8, 113289, Note_on_c, 6, 58, 127
8, 113334, Note_off_c, 6, 54, 64
8, 113335, Note_off_c, 6, 58, 64
8, 113335, Note_off_c, 6, 51, 64
8, 113408, Note_on_c, 6, 57, 123
8, 113408, Note_on_c, 6, 54, 103
8, 113409, Note_on_c, 6, 51, 104
8, 113442, Note_off_c, 6, 54, 64
8, 113443, Note_off_c, 6, 51, 64
8, 113443, Note_off_c, 6, 57, 64
8, 113527, Note_on_c, 6, 54, 103
8, 113528, Note_on_c, 6, 51, 104
8, 113529, Note_on_c, 6, 58, 125
8, 113597, Note_off_c, 6, 54, 64
8, 113599, Note_off_c, 6, 58, 64
8, 113599, Note_off_c, 6, 51, 64
8, 114008, Note_on_c, 6, 51, 122
8, 114068, Note_off_c, 6, 51, 64
8, 114249, Note_on_c, 6, 54, 119
8, 114643, Note_off_c, 6, 54, 64
8, 114720, Note_on_c, 6, 63, 110
8, 114727, Note_on_c, 6, 54, 95
8, 114729, Note_on_c, 6, 58, 98
8, 115114, Note_off_c, 6, 63, 64
8, 115121, Note_off_c, 6, 54, 64
8, 115123, Note_off_c, 6, 58, 64
8, 115207, Note_on_c, 6, 55, 115
8, 115602, Note_off_c, 6, 55, 64
8, 115684, Note_on_c, 6, 58, 97
8, 115686, Note_on_c, 6, 63, 110
8, 115689, Note_on_c, 6, 54, 99
8, 116079, Note_off_c, 6, 58, 64
8, 116083, Note_off_c, 6, 63, 64
8, 116084, Note_off_c, 6, 54, 64
8, 116167, Note_on_c, 6, 55, 110
8, 117042, Note_off_c, 6, 55, 64
8, 117576, Control_c, 6, 11, 114
8, 117604, Note_on_c, 6, 58, 104
8, 117605, Note_on_c, 6, 55, 103
8, 117607, Note_on_c, 6, 62, 109
8, 117646, Note_off_c, 6, 58, 64
8, 117648, Note_off_c, 6, 55, 64
8, 117650, Note_off_c, 6, 62, 64
8, 117688, Note_on_c, 6, 58, 104
8, 117688, Note_on_c, 6, 55, 104
8, 117689, Note_on_c, 6, 62, 109
8, 117730, Note_off_c, 6, 55, 64
8, 117732, Note_off_c, 6, 62, 64
8, 117732, Note_off_c, 6, 58, 64
8, 117765, Note_on_c, 6, 58, 96
8, 117765, Note_on_c, 6, 55, 98
8, 117769, Note_on_c, 6, 62, 103
8, 117807, Note_off_c, 6, 55, 64
8, 117809, Note_off_c, 6, 58, 64
8, 117812, Note_off_c, 6, 62, 64
8, 117838, Note_on_c, 6, 62, 110
8, 117848, Note_on_c, 6, 55, 103
8, 117849, Note_on_c, 6, 58, 102
8, 117921, Note_off_c, 6, 62, 64
8, 117930, Note_off_c, 6, 55, 64
8, 117931, Note_off_c, 6, 58, 64
8, 118324, Note_on_c, 6, 62, 106
8, 118327, Note_on_c, 6, 58, 104
8, 118329, Note_on_c, 6, 55, 103
8, 118406, Note_off_c, 6, 62, 64
8, 118410, Note_off_c, 6, 58, 64
8, 118412, Note_off_c, 6, 55, 64
8, 118805, Note_on_c, 6, 58, 104
8, 118807, Note_on_c, 6, 54, 101
8, 118808, Note_on_c, 6, 63, 107
8, 118888, Note_off_c, 6, 58, 64
8, 118889, Note_off_c, 6, 54, 64
8, 118890, Note_off_c, 6, 63, 64
8, 119281, Note_on_c, 6, 58, 101
8, 119287, Note_on_c, 6, 62, 107
8, 119288, Note_on_c, 6, 55, 103
8, 119363, Note_off_c, 6, 58, 64
8, 119370, Note_off_c, 6, 55, 64
8, 119370, Note_off_c, 6, 62, 64
8, 119763, Note_on_c, 6, 58, 101
8, 119766, Note_on_c, 6, 63, 108
8, 119768, Note_on_c, 6, 54, 104
8, 119846, Note_off_c, 6, 58, 64
8, 119849, Note_off_c, 6, 63, 64
8, 119850, Note_off_c, 6, 54, 64
8, 120248, Note_on_c, 6, 62, 106
8, 120248, Note_on_c, 6, 58, 104
8, 120249, Note_on_c, 6, 55, 101
8, 120290, Note_off_c, 6, 62, 64
8, 120290, Note_off_c, 6, 58, 64
8, 120291, Note_off_c, 6, 55, 64
8, 120321, Note_on_c, 6, 62, 110
8, 120326, Note_on_c, 6, 58, 104
8, 120328, Note_on_c, 6, 55, 99
8, 120363, Note_off_c, 6, 62, 64
8, 120368, Note_off_c, 6, 58, 64
8, 120370, Note_off_c, 6, 55, 64
8, 120402, Note_on_c, 6, 55, 95
8, 120409, Note_on_c, 6, 58, 97
8, 120409, Note_on_c, 6, 62, 103
8, 120445, Note_off_c, 6, 55, 64
8, 120451, Note_off_c, 6, 62, 64
8, 120453, Note_off_c, 6, 58, 64
8, 120485, Note_on_c, 6, 62, 119
8, 120487, Note_on_c, 6, 58, 105
8, 120489, Note_on_c, 6, 55, 110
8, 120527, Note_off_c, 6, 62, 64
8, 120530, Note_off_c, 6, 58, 64
8, 120531, Note_off_c, 6, 55, 64
8, 120564, Note_on_c, 6, 55, 101
8, 120567, Note_on_c, 6, 62, 110
8, 120569, Note_on_c, 6, 58, 101
8, 120606, Note_off_c, 6, 55, 64
8, 120609, Note_off_c, 6, 62, 64
8, 120613, Note_off_c, 6, 58, 64
8, 120644, Note_on_c, 6, 62, 103
8, 120648, Note_on_c, 6, 58, 98
8, 120648, Note_on_c, 6, 55, 98
8, 120686, Note_off_c, 6, 62, 64
8, 120691, Note_off_c, 6, 55, 64
8, 120691, Note_off_c, 6, 58, 64
8, 120725, Note_on_c, 6, 55, 104
8, 120727, Note_on_c, 6, 62, 110
8, 120729, Note_on_c, 6, 58, 102
8, 120783, Note_off_c, 6, 55, 64
8, 120785, Note_off_c, 6, 62, 64
8, 120787, Note_off_c, 6, 58, 64
8, 121203, Note_on_c, 6, 62, 110
8, 121209, Note_on_c, 6, 55, 103
8, 121209, Note_on_c, 6, 58, 102
8, 121286, Note_off_c, 6, 62, 64
8, 121291, Note_off_c, 6, 58, 64
8, 121291, Note_off_c, 6, 55, 64
8, 121685, Note_on_c, 6, 58, 104
8, 121685, Note_on_c, 6, 55, 98
8, 121686, Note_on_c, 6, 62, 110
8, 121727, Note_off_c, 6, 55, 64
8, 121728, Note_off_c, 6, 62, 64
8, 121728, Note_off_c, 6, 58, 64
8, 121767, Note_on_c, 6, 62, 108
8, 121768, Note_on_c, 6, 55, 102
8, 121769, Note_on_c, 6, 58, 103
8, 121809, Note_off_c, 6, 62, 64
8, 121810, Note_off_c, 6, 55, 64
8, 121812, Note_off_c, 6, 58, 64
8, 121841, Note_on_c, 6, 58, 94
8, 121843, Note_on_c, 6, 62, 103
8, 121849, Note_on_c, 6, 55, 97
8, 121884, Note_off_c, 6, 58, 64
8, 121885, Note_off_c, 6, 62, 64
8, 121892, Note_off_c, 6, 55, 64
8, 122168, Note_on_c, 6, 58, 104
8, 122169, Note_on_c, 6, 62, 110
8, 122169, Note_on_c, 6, 55, 104
8, 122251, Note_off_c, 6, 58, 64
8, 122251, Note_off_c, 6, 62, 64
8, 122252, Note_off_c, 6, 55, 64
8, 122644, Note_on_c, 6, 58, 101
8, 122646, Note_on_c, 6, 54, 101
8, 122649, Note_on_c, 6, 63, 110
8, 122727, Note_off_c, 6, 58, 64
8, 122728, Note_off_c, 6, 54, 64
8, 122731, Note_off_c, 6, 63, 64
8, 123125, Note_on_c, 6, 58, 104
8, 123126, Note_on_c, 6, 63, 108
8, 123128, Note_on_c, 6, 54, 104
8, 123208, Note_off_c, 6, 58, 64
8, 123208, Note_off_c, 6, 63, 64
8, 123210, Note_off_c, 6, 54, 64
8, 123604, Note_on_c, 6, 58, 108
8, 123608, Note_on_c, 6, 51, 102
8, 123608, Note_on_c, 6, 54, 102
8, 123686, Note_off_c, 6, 58, 64
8, 123690, Note_off_c, 6, 54, 64
8, 123690, Note_off_c, 6, 51, 64
8, 124085, Note_on_c, 6, 58, 98
8, 124088, Note_on_c, 6, 55, 101
8, 124089, Note_on_c, 6, 62, 110
8, 124128, Note_off_c, 6, 58, 64
8, 124131, Note_off_c, 6, 62, 64
8, 124131, Note_off_c, 6, 55, 64
8, 124160, Note_on_c, 6, 62, 110
8, 124162, Note_on_c, 6, 55, 103
8, 124168, Note_on_c, 6, 58, 104
8, 124203, Note_off_c, 6, 62, 64
8, 124204, Note_off_c, 6, 55, 64
8, 124211, Note_off_c, 6, 58, 64
8, 124245, Note_on_c, 6, 62, 103
8, 124246, Note_on_c, 6, 55, 95
8, 124246, Note_on_c, 6, 58, 95
8, 124288, Note_off_c, 6, 62, 64
8, 124288, Note_off_c, 6, 55, 64
8, 124289, Note_off_c, 6, 58, 64
8, 124320, Control_c, 6, 11, 114
8, 124326, Note_on_c, 6, 55, 105
8, 124328, Note_on_c, 6, 62, 119
8, 124329, Note_on_c, 6, 58, 104
8, 124368, Note_off_c, 6, 55, 64
8, 124370, Note_off_c, 6, 62, 64
8, 124372, Note_off_c, 6, 58, 64
8, 124404, Note_on_c, 6, 62, 108
8, 124405, Note_on_c, 6, 58, 103
8, 124409, Note_on_c, 6, 55, 104
8, 124440, Control_c, 6, 11, 116
8, 124448, Note_off_c, 6, 62, 64
8, 124448, Note_off_c, 6, 58, 64
8, 124452, Note_off_c, 6, 55, 64
8, 124486, Note_on_c, 6, 62, 103
8, 124487, Note_on_c, 6, 55, 98
8, 124487, Note_on_c, 6, 58, 98
8, 124512, Control_c, 6, 11, 119
8, 124529, Note_off_c, 6, 55, 64
8, 124530, Note_off_c, 6, 58, 64
8, 124530, Note_off_c, 6, 62, 64
8, 124558, Note_on_c, 6, 62, 107
8, 124564, Note_on_c, 6, 55, 99
8, 124568, Note_on_c, 6, 58, 104
8, 124616, Note_off_c, 6, 62, 64
8, 124622, Note_off_c, 6, 55, 64
8, 124627, Note_off_c, 6, 58, 64
8, 124632, Control_c, 6, 11, 121
8, 124704, Control_c, 6, 11, 124
8, 124776, Control_c, 6, 11, 127
8, 124803, Note_on_c, 6, 58, 109
8, 124803, Note_on_c, 6, 55, 110
8, 124808, Note_on_c, 6, 63, 119
8, 125197, Note_off_c, 6, 58, 64
8, 125199, Note_off_c, 6, 55, 64
8, 125203, Note_off_c, 6, 63, 64
8, 125284, Note_on_c, 6, 55, 124
8, 125558, Note_off_c, 6, 55, 64
8, 125649, Note_on_c, 6, 55, 124
8, 125696, Note_off_c, 6, 55, 64
8, 125760, Note_on_c, 6, 55, 108
8, 125769, Note_on_c, 6, 58, 106
8, 126178, Note_off_c, 6, 55, 64
8, 126187, Note_off_c, 6, 58, 64
8, 126246, Note_on_c, 6, 66, 120
8, 126248, Note_on_c, 6, 54, 116
8, 126520, Note_off_c, 6, 66, 64
8, 126523, Note_off_c, 6, 54, 64
8, 126603, Note_on_c, 6, 65, 119
8, 126604, Note_on_c, 6, 53, 119
8, 126650, Note_off_c, 6, 65, 64
8, 126650, Note_off_c, 6, 53, 64
8, 126722, Note_on_c, 6, 64, 123
8, 126725, Note_on_c, 6, 52, 121
8, 126768, Note_off_c, 6, 64, 64
8, 126772, Note_off_c, 6, 52, 64
8, 126845, Note_on_c, 6, 51, 115
8, 126849, Note_on_c, 6, 63, 114
8, 126879, Note_off_c, 6, 51, 64
8, 126884, Note_off_c, 6, 63, 64
8, 126955, Note_on_c, 6, 64, 119
8, 126967, Note_on_c, 6, 52, 119
8, 127026, Note_off_c, 6, 64, 64
8, 127037, Note_off_c, 6, 52, 64
8, 127448, Note_on_c, 6, 56, 124
8, 127508, Note_off_c, 6, 56, 64
8, 127656, Control_c, 6, 93, 5
8, 127688, Note_on_c, 6, 56, 97
8, 127689, Note_on_c, 6, 52, 91
8, 127689, Note_on_c, 6, 61, 116
8, 128107, Note_off_c, 6, 56, 64
8, 128108, Note_off_c, 6, 61, 64
8, 128109, Note_off_c, 6, 52, 64
8, 128164, Note_on_c, 6, 56, 102
8, 128166, Note_on_c, 6, 60, 123
8, 128167, Note_on_c, 6, 52, 101
8, 128440, Note_off_c, 6, 56, 64
8, 128442, Note_off_c, 6, 52, 64
8, 128442, Note_off_c, 6, 60, 64
8, 128526, Note_on_c, 6, 52, 100
8, 128528, Note_on_c, 6, 59, 124
8, 128529, Note_on_c, 6, 56, 104
8, 128573, Note_off_c, 6, 52, 64
8, 128575, Note_off_c, 6, 56, 64
8, 128575, Note_off_c, 6, 59, 64
8, 128648, Note_on_c, 6, 51, 108
8, 128649, Note_on_c, 6, 54, 110
8, 128649, Note_on_c, 6, 58, 127
8, 128695, Note_off_c, 6, 51, 64
8, 128695, Note_off_c, 6, 58, 64
8, 128697, Note_off_c, 6, 54, 64
8, 128766, Note_on_c, 6, 51, 102
8, 128769, Note_on_c, 6, 54, 103
8, 128769, Note_on_c, 6, 57, 125
8, 128802, Note_off_c, 6, 51, 64
8, 128804, Note_off_c, 6, 57, 64
8, 128804, Note_off_c, 6, 54, 64
8, 128885, Note_on_c, 6, 58, 122
8, 128886, Note_on_c, 6, 51, 102
8, 128889, Note_on_c, 6, 54, 99
8, 128955, Note_off_c, 6, 58, 64
8, 128956, Note_off_c, 6, 51, 64
8, 128960, Note_off_c, 6, 54, 64
8, 129367, Note_on_c, 6, 51, 123
8, 129425, Note_off_c, 6, 51, 64
8, 129606, Note_on_c, 6, 54, 125
8, 129606, Note_on_c, 6, 51, 97
8, 129608, Note_on_c, 6, 46, 98
8, 129609, Note_on_c, 6, 54, 113
8, 130000, Note_off_c, 6, 54, 64
8, 130000, Note_off_c, 6, 51, 64
8, 130004, Note_off_c, 6, 46, 64
8, 130004, Note_off_c, 6, 54, 64
8, 130080, Note_on_c, 6, 54, 94
8, 130087, Note_on_c, 6, 58, 98
8, 130089, Note_on_c, 6, 63, 119
8, 130475, Note_off_c, 6, 54, 64
8, 130481, Note_off_c, 6, 58, 64
8, 130483, Note_off_c, 6, 63, 64
8, 130568, Note_on_c, 6, 55, 124
8, 130962, Note_off_c, 6, 55, 64
8, 131048, Note_on_c, 6, 58, 97
8, 131049, Note_on_c, 6, 63, 119
8, 131049, Note_on_c, 6, 54, 98
8, 131442, Note_off_c, 6, 58, 64
8, 131443, Note_off_c, 6, 54, 64
8, 131444, Note_off_c, 6, 63, 64
8, 131528, Note_on_c, 6, 55, 110
8, 131544, Control_c, 6, 11, 127
8, 131712, Control_c, 6, 11, 125
8, 131808, Control_c, 6, 11, 121
8, 131880, Control_c, 6, 11, 118
8, 131928, Control_c, 6, 11, 115
8, 131976, Control_c, 6, 11, 111
8, 132024, Control_c, 6, 11, 108
8, 132048, Control_c, 6, 11, 105
8, 132096, Control_c, 6, 11, 100
8, 132144, Control_c, 6, 11, 95
8, 132168, Control_c, 6, 11, 91
8, 132216, Control_c, 6, 11, 85
8, 132240, Control_c, 6, 11, 81
8, 132264, Control_c, 6, 11, 76
8, 132288, Control_c, 6, 11, 71
8, 132312, Control_c, 6, 11, 66
8, 132336, Control_c, 6, 11, 61
8, 132360, Control_c, 6, 11, 54
8, 132384, Control_c, 6, 11, 46
8, 132403, Note_off_c, 6, 55, 64
8, 132408, Control_c, 6, 11, 36
8, 132432, Control_c, 6, 11, 21
8, 132480, Control_c, 6, 11, 127
8, 140136, Control_c, 6, 11, 114
8, 140163, Note_on_c, 6, 67, 97
8, 140166, Note_on_c, 6, 55, 92
8, 140584, Note_off_c, 6, 67, 64
8, 140584, Note_off_c, 6, 55, 64
8, 140646, Note_on_c, 6, 55, 92
8, 140649, Note_on_c, 6, 66, 98
8, 141064, Note_off_c, 6, 55, 64
8, 141067, Note_off_c, 6, 66, 64
8, 141126, Note_on_c, 6, 63, 95
8, 141128, Note_on_c, 6, 55, 88
8, 141545, Note_off_c, 6, 63, 64
8, 141546, Note_off_c, 6, 55, 64
8, 141606, Note_on_c, 6, 51, 97
8, 141609, Note_on_c, 6, 62, 103
8, 142026, Note_off_c, 6, 51, 64
8, 142027, Note_off_c, 6, 62, 64
8, 142087, Note_on_c, 6, 50, 91
8, 142089, Note_on_c, 6, 61, 91
8, 142505, Note_off_c, 6, 50, 64
8, 142508, Note_off_c, 6, 61, 64
8, 142567, Note_on_c, 6, 49, 98
8, 142568, Note_on_c, 6, 60, 102
8, 142986, Note_off_c, 6, 49, 64
8, 142986, Note_off_c, 6, 60, 64
8, 143044, Note_on_c, 6, 56, 92
8, 143047, Note_on_c, 6, 67, 103
8, 143049, Note_on_c, 6, 48, 96
8, 143462, Note_off_c, 6, 56, 64
8, 143467, Note_off_c, 6, 48, 64
8, 143467, Note_off_c, 6, 67, 64
8, 143496, Control_c, 6, 11, 114
8, 143527, Note_on_c, 6, 54, 97
8, 143528, Note_on_c, 6, 55, 98
8, 143529, Note_on_c, 6, 58, 100
8, 143616, Control_c, 6, 11, 116
8, 143688, Control_c, 6, 11, 119
8, 143808, Control_c, 6, 11, 121
8, 143880, Control_c, 6, 11, 124
8, 143921, Note_off_c, 6, 54, 64
8, 143922, Note_off_c, 6, 55, 64
8, 143923, Note_off_c, 6, 58, 64
8, 143976, Control_c, 6, 11, 127
8, 144008, Note_on_c, 6, 43, 119
8, 144009, Note_on_c, 6, 55, 119
8, 144102, Note_off_c, 6, 43, 64
8, 144104, Note_off_c, 6, 55, 64
8, 144486, Note_on_c, 6, 55, 115
8, 144545, Note_off_c, 6, 55, 64
8, 144725, Note_on_c, 6, 55, 115
8, 144767, Note_off_c, 6, 55, 64
8, 144807, Note_on_c, 6, 55, 117
8, 144849, Note_off_c, 6, 55, 64
8, 144887, Note_on_c, 6, 55, 110
8, 144930, Note_off_c, 6, 55, 64
8, 144964, Note_on_c, 6, 56, 101
8, 144966, Note_on_c, 6, 55, 103
8, 144969, Note_on_c, 6, 60, 109
8, 145022, Note_off_c, 6, 56, 64
8, 145024, Note_off_c, 6, 55, 64
8, 145028, Note_off_c, 6, 60, 64
8, 145205, Note_on_c, 6, 55, 103
8, 145206, Note_on_c, 6, 56, 99
8, 145207, Note_on_c, 6, 60, 109
8, 145247, Note_off_c, 6, 55, 64
8, 145248, Note_off_c, 6, 56, 64
8, 145250, Note_off_c, 6, 60, 64
8, 145279, Note_on_c, 6, 55, 103
8, 145286, Note_on_c, 6, 56, 104
8, 145289, Note_on_c, 6, 60, 109
8, 145323, Note_off_c, 6, 55, 64
8, 145329, Note_off_c, 6, 56, 64
8, 145333, Note_off_c, 6, 60, 64
8, 145365, Note_on_c, 6, 55, 95
8, 145366, Note_on_c, 6, 60, 104
8, 145366, Note_on_c, 6, 56, 98
8, 145407, Note_off_c, 6, 55, 64
8, 145409, Note_off_c, 6, 56, 64
8, 145409, Note_off_c, 6, 60, 64
8, 145442, Note_on_c, 6, 61, 119
8, 145447, Note_on_c, 6, 55, 105
8, 145448, Note_on_c, 6, 56, 110
8, 145484, Note_off_c, 6, 61, 64
8, 145490, Note_off_c, 6, 56, 64
8, 145490, Note_off_c, 6, 55, 64
8, 145525, Note_on_c, 6, 56, 100
8, 145525, Note_on_c, 6, 61, 109
8, 145527, Note_on_c, 6, 55, 104
8, 145567, Note_off_c, 6, 56, 64
8, 145568, Note_off_c, 6, 61, 64
8, 145569, Note_off_c, 6, 55, 64
8, 145605, Note_on_c, 6, 56, 93
8, 145609, Note_on_c, 6, 61, 99
8, 145609, Note_on_c, 6, 55, 96
8, 145648, Note_off_c, 6, 56, 64
8, 145651, Note_off_c, 6, 55, 64
8, 145651, Note_off_c, 6, 61, 64
8, 145682, Note_on_c, 6, 61, 109
8, 145684, Note_on_c, 6, 56, 104
8, 145685, Note_on_c, 6, 55, 100
8, 145741, Note_off_c, 6, 61, 64
8, 145743, Note_off_c, 6, 55, 64
8, 145743, Note_off_c, 6, 56, 64
8, 145925, Note_on_c, 6, 63, 110
8, 145926, Note_on_c, 6, 56, 104
8, 145927, Note_on_c, 6, 55, 103
8, 146019, Note_off_c, 6, 63, 64
8, 146021, Note_off_c, 6, 56, 64
8, 146022, Note_off_c, 6, 55, 64
8, 146407, Note_on_c, 6, 64, 108
8, 146409, Note_on_c, 6, 55, 103
8, 146409, Note_on_c, 6, 56, 103
8, 146465, Note_off_c, 6, 64, 64
8, 146468, Note_off_c, 6, 56, 64
8, 146469, Note_off_c, 6, 55, 64
8, 146646, Note_on_c, 6, 56, 103
8, 146648, Note_on_c, 6, 64, 107
8, 146649, Note_on_c, 6, 55, 102
8, 146688, Note_off_c, 6, 56, 64
8, 146691, Note_off_c, 6, 64, 64
8, 146692, Note_off_c, 6, 55, 64
8, 146723, Note_on_c, 6, 55, 101
8, 146725, Note_on_c, 6, 56, 104
8, 146728, Note_on_c, 6, 64, 110
8, 146766, Note_off_c, 6, 55, 64
8, 146768, Note_off_c, 6, 56, 64
8, 146771, Note_off_c, 6, 64, 64
8, 146805, Note_on_c, 6, 55, 96
8, 146807, Note_on_c, 6, 64, 103
8, 146808, Note_on_c, 6, 56, 96
8, 146847, Note_off_c, 6, 55, 64
8, 146850, Note_off_c, 6, 64, 64
8, 146851, Note_off_c, 6, 56, 64
8, 146888, Note_on_c, 6, 56, 102
8, 146889, Note_on_c, 6, 65, 108
8, 146889, Note_on_c, 6, 55, 103
8, 146946, Note_off_c, 6, 56, 64
8, 146947, Note_off_c, 6, 55, 64
8, 146949, Note_off_c, 6, 65, 64
8, 147123, Note_on_c, 6, 56, 101
8, 147127, Note_on_c, 6, 65, 105
8, 147129, Note_on_c, 6, 55, 104
8, 147166, Note_off_c, 6, 56, 64
8, 147169, Note_off_c, 6, 65, 64
8, 147171, Note_off_c, 6, 55, 64
8, 147206, Note_on_c, 6, 65, 109
8, 147208, Note_on_c, 6, 55, 104
8, 147208, Note_on_c, 6, 56, 104
8, 147248, Note_off_c, 6, 65, 64
8, 147250, Note_off_c, 6, 55, 64
8, 147251, Note_off_c, 6, 56, 64
8, 147286, Note_on_c, 6, 65, 103
8, 147286, Note_on_c, 6, 55, 96
8, 147286, Note_on_c, 6, 56, 99
8, 147328, Note_off_c, 6, 65, 64
8, 147329, Note_off_c, 6, 56, 64
8, 147329, Note_off_c, 6, 55, 64
8, 147368, Note_on_c, 6, 56, 108
8, 147369, Note_on_c, 6, 66, 118
8, 147369, Note_on_c, 6, 55, 109
8, 147410, Note_off_c, 6, 56, 64
8, 147412, Note_off_c, 6, 55, 64
8, 147412, Note_off_c, 6, 66, 64
8, 147447, Note_on_c, 6, 56, 102
8, 147449, Note_on_c, 6, 66, 107
8, 147449, Note_on_c, 6, 55, 104
8, 147491, Note_off_c, 6, 56, 64
8, 147491, Note_off_c, 6, 55, 64
8, 147492, Note_off_c, 6, 66, 64
8, 147528, Note_on_c, 6, 56, 96
8, 147528, Note_on_c, 6, 55, 94
8, 147529, Note_on_c, 6, 66, 104
8, 147570, Note_off_c, 6, 56, 64
8, 147570, Note_off_c, 6, 55, 64
8, 147572, Note_off_c, 6, 66, 64
8, 147607, Note_on_c, 6, 66, 110
8, 147607, Note_on_c, 6, 55, 104
8, 147608, Note_on_c, 6, 56, 104
8, 147665, Note_off_c, 6, 66, 64
8, 147666, Note_off_c, 6, 55, 64
8, 147667, Note_off_c, 6, 56, 64
8, 147845, Note_on_c, 6, 67, 119
8, 147845, Note_on_c, 6, 55, 106
8, 147887, Note_off_c, 6, 67, 64
8, 147887, Note_off_c, 6, 55, 64
8, 147927, Note_on_c, 6, 67, 110
8, 147929, Note_on_c, 6, 55, 100
8, 147971, Note_off_c, 6, 67, 64
8, 147971, Note_off_c, 6, 55, 64
8, 148008, Note_on_c, 6, 55, 96
8, 148009, Note_on_c, 6, 67, 103
8, 148050, Note_off_c, 6, 55, 64
8, 148053, Note_off_c, 6, 67, 64
8, 148087, Note_on_c, 6, 50, 96
8, 148087, Note_on_c, 6, 62, 104
8, 148089, Note_on_c, 6, 60, 98
8, 148296, Control_c, 6, 11, 127
8, 148320, Control_c, 6, 11, 104
8, 148344, Control_c, 6, 11, 98
8, 148368, Control_c, 6, 11, 93
8, 148392, Control_c, 6, 11, 89
8, 148416, Control_c, 6, 11, 85
8, 148440, Control_c, 6, 11, 82
8, 148488, Control_c, 6, 11, 77
8, 148536, Control_c, 6, 11, 74
8, 148560, Control_c, 6, 11, 71
8, 148632, Control_c, 6, 11, 67
8, 148752, Control_c, 6, 11, 66
8, 148776, Control_c, 6, 11, 67
8, 148776, Control_c, 6, 11, 66
8, 148800, Control_c, 6, 11, 65
8, 148800, Control_c, 6, 11, 64
8, 149208, Control_c, 6, 11, 65
8, 149760, Control_c, 6, 11, 64
8, 150024, Control_c, 6, 11, 65
8, 150216, Control_c, 6, 11, 66
8, 150336, Control_c, 6, 11, 67
8, 150456, Control_c, 6, 11, 69
8, 150576, Control_c, 6, 11, 70
8, 150696, Control_c, 6, 11, 72
8, 150816, Control_c, 6, 11, 75
8, 150936, Control_c, 6, 11, 77
8, 151008, Control_c, 6, 11, 80
8, 151104, Control_c, 6, 11, 84
8, 151224, Control_c, 6, 11, 88
8, 151296, Control_c, 6, 11, 91
8, 151344, Control_c, 6, 11, 94
8, 151416, Control_c, 6, 11, 98
8, 151464, Control_c, 6, 11, 101
8, 151488, Control_c, 6, 11, 104
8, 151536, Control_c, 6, 11, 108
8, 151584, Control_c, 6, 11, 114
8, 151608, Control_c, 6, 11, 119
8, 151627, Note_off_c, 6, 50, 64
8, 151627, Note_off_c, 6, 62, 64
8, 151629, Note_off_c, 6, 60, 64
8, 151656, Control_c, 6, 11, 127
8, 151688, Note_on_c, 6, 55, 126
8, 151783, Note_off_c, 6, 55, 64
8, 152164, Note_on_c, 6, 55, 125
8, 152222, Note_off_c, 6, 55, 64
8, 152408, Note_on_c, 6, 55, 109
8, 152409, Note_on_c, 6, 67, 108
8, 152451, Note_off_c, 6, 67, 64
8, 152452, Note_off_c, 6, 55, 64
8, 152487, Note_on_c, 6, 67, 109
8, 152488, Note_on_c, 6, 55, 107
8, 152530, Note_off_c, 6, 67, 64
8, 152531, Note_off_c, 6, 55, 64
8, 152567, Note_on_c, 6, 55, 99
8, 152567, Note_on_c, 6, 67, 102
8, 152609, Note_off_c, 6, 55, 64
8, 152609, Note_off_c, 6, 67, 64
8, 152642, Note_on_c, 6, 54, 104
8, 152649, Note_on_c, 6, 66, 109
8, 152684, Note_off_c, 6, 54, 64
8, 152691, Note_off_c, 6, 66, 64
8, 152724, Note_on_c, 6, 54, 110
8, 152729, Note_on_c, 6, 66, 109
8, 152766, Note_off_c, 6, 54, 64
8, 152771, Note_off_c, 6, 66, 64
8, 152806, Note_on_c, 6, 66, 101
8, 152809, Note_on_c, 6, 54, 103
8, 152851, Note_off_c, 6, 66, 64
8, 152852, Note_off_c, 6, 54, 64
8, 152888, Note_on_c, 6, 43, 109
8, 152889, Note_on_c, 6, 55, 107
8, 152947, Note_off_c, 6, 43, 64
8, 152947, Note_off_c, 6, 55, 64
8, 153361, Note_on_c, 6, 66, 107
8, 153369, Note_on_c, 6, 54, 110
8, 153403, Note_off_c, 6, 66, 64
8, 153412, Note_off_c, 6, 54, 64
8, 153443, Note_on_c, 6, 54, 109
8, 153446, Note_on_c, 6, 66, 104
8, 153486, Note_off_c, 6, 54, 64
8, 153488, Note_off_c, 6, 66, 64
8, 153522, Note_on_c, 6, 66, 104
8, 153525, Note_on_c, 6, 54, 102
8, 153565, Note_off_c, 6, 66, 64
8, 153567, Note_off_c, 6, 54, 64
8, 153602, Note_on_c, 6, 54, 108
8, 153609, Note_on_c, 6, 66, 109
8, 153644, Note_off_c, 6, 54, 64
8, 153651, Note_off_c, 6, 66, 64
8, 153688, Note_on_c, 6, 54, 107
8, 153689, Note_on_c, 6, 66, 108
8, 153731, Note_off_c, 6, 54, 64
8, 153732, Note_off_c, 6, 66, 64
8, 153765, Note_on_c, 6, 54, 104
8, 153769, Note_on_c, 6, 66, 105
8, 153809, Note_off_c, 6, 54, 64
8, 153811, Note_off_c, 6, 66, 64
8, 153840, Note_on_c, 6, 43, 110
8, 153847, Note_on_c, 6, 55, 110
8, 153898, Note_off_c, 6, 43, 64
8, 153905, Note_off_c, 6, 55, 64
8, 154328, Note_on_c, 6, 54, 108
8, 154329, Note_on_c, 6, 66, 107
8, 154373, Note_off_c, 6, 54, 64
8, 154373, Note_off_c, 6, 66, 64
8, 154399, Note_on_c, 6, 66, 110
8, 154405, Note_on_c, 6, 54, 109
8, 154443, Note_off_c, 6, 66, 64
8, 154449, Note_off_c, 6, 54, 64
8, 154487, Note_on_c, 6, 54, 101
8, 154488, Note_on_c, 6, 66, 101
8, 154529, Note_off_c, 6, 54, 64
8, 154530, Note_off_c, 6, 66, 64
8, 154567, Note_on_c, 6, 51, 116
8, 154567, Note_on_c, 6, 63, 117
8, 154625, Note_off_c, 6, 51, 64
8, 154627, Note_off_c, 6, 63, 64
8, 154808, Note_on_c, 6, 50, 107
8, 154809, Note_on_c, 6, 62, 110
8, 154850, Note_off_c, 6, 50, 64
8, 154851, Note_off_c, 6, 62, 64
8, 154881, Note_on_c, 6, 50, 110
8, 154889, Note_on_c, 6, 62, 105
8, 154923, Note_off_c, 6, 50, 64
8, 154931, Note_off_c, 6, 62, 64
8, 154965, Note_on_c, 6, 62, 103
8, 154967, Note_on_c, 6, 50, 104
8, 155008, Note_off_c, 6, 62, 64
8, 155010, Note_off_c, 6, 50, 64
8, 155046, Note_on_c, 6, 43, 119
8, 155049, Note_on_c, 6, 55, 115
8, 155104, Note_off_c, 6, 43, 64
8, 155107, Note_off_c, 6, 55, 64
8, 159360, Control_c, 6, 123, 0
8, 159360, End_track
9, 0, Start_track
9, 0, Text_t, "Tuba"
9, 0, Program_c, 7, 58
9, 0, Control_c, 7, 10, 109
9, 0, Control_c, 7, 91, 127
9, 0, Control_c, 7, 93, 5
9, 0, Control_c, 7, 11, 127
9, 0, Control_c, 7, 7, 69
9, 0, Control_c, 7, 123, 0
9, 34089, Note_on_c, 7, 48, 110
9, 34219, Note_off_c, 7, 48, 64
9, 34561, Note_on_c, 7, 43, 100
9, 34907, Note_off_c, 7, 43, 64
9, 35045, Note_on_c, 7, 36, 108
9, 35175, Note_off_c, 7, 36, 64
9, 35520, Control_c, 7, 11, 127
9, 35527, Note_on_c, 7, 31, 100
9, 35568, Control_c, 7, 11, 124
9, 35616, Control_c, 7, 11, 121
9, 35688, Control_c, 7, 11, 118
9, 35736, Control_c, 7, 11, 115
9, 35784, Control_c, 7, 11, 111
9, 35856, Control_c, 7, 11, 108
9, 35904, Control_c, 7, 11, 105
9, 35976, Control_c, 7, 11, 101
9, 36000, Control_c, 7, 11, 99
9, 36000, Control_c, 7, 11, 99
9, 36072, Control_c, 7, 11, 103
9, 36120, Control_c, 7, 11, 106
9, 36168, Control_c, 7, 11, 109
9, 36216, Control_c, 7, 11, 113
9, 36288, Control_c, 7, 11, 116
9, 36336, Control_c, 7, 11, 120
9, 36384, Control_c, 7, 11, 123
9, 36402, Note_off_c, 7, 31, 64
9, 36432, Control_c, 7, 11, 127
9, 40325, Note_on_c, 7, 43, 103
9, 40659, Note_off_c, 7, 43, 64
9, 40806, Note_on_c, 7, 43, 101
9, 40864, Note_off_c, 7, 43, 64
9, 41046, Note_on_c, 7, 43, 103
9, 41089, Note_off_c, 7, 43, 64
9, 41127, Note_on_c, 7, 43, 102
9, 41169, Note_off_c, 7, 43, 64
9, 41204, Note_on_c, 7, 43, 98
9, 41247, Note_off_c, 7, 43, 64
9, 41289, Note_on_c, 7, 43, 104
9, 41348, Note_off_c, 7, 43, 64
9, 41527, Note_on_c, 7, 43, 102
9, 41569, Note_off_c, 7, 43, 64
9, 41604, Note_on_c, 7, 43, 101
9, 41647, Note_off_c, 7, 43, 64
9, 41688, Note_on_c, 7, 43, 97
9, 41730, Note_off_c, 7, 43, 64
9, 41767, Note_on_c, 7, 39, 108
9, 41810, Note_off_c, 7, 39, 64
9, 41847, Note_on_c, 7, 39, 99
9, 41889, Note_off_c, 7, 39, 64
9, 41924, Note_on_c, 7, 39, 103
9, 41967, Note_off_c, 7, 39, 64
9, 42008, Note_on_c, 7, 39, 104
9, 42067, Note_off_c, 7, 39, 64
9, 42248, Note_on_c, 7, 43, 102
9, 42308, Note_off_c, 7, 43, 64
9, 42488, Note_on_c, 7, 43, 104
9, 42530, Note_off_c, 7, 43, 64
9, 42562, Note_on_c, 7, 43, 103
9, 42605, Note_off_c, 7, 43, 64
9, 42645, Note_on_c, 7, 43, 95
9, 42688, Note_off_c, 7, 43, 64
9, 42729, Note_on_c, 7, 43, 110
9, 42771, Note_off_c, 7, 43, 64
9, 42808, Note_on_c, 7, 43, 101
9, 42851, Note_off_c, 7, 43, 64
9, 42882, Note_on_c, 7, 43, 101
9, 42924, Note_off_c, 7, 43, 64
9, 42967, Note_on_c, 7, 43, 108
9, 43025, Note_off_c, 7, 43, 64
9, 43203, Note_on_c, 7, 43, 109
9, 43261, Note_off_c, 7, 43, 64
9, 43442, Note_on_c, 7, 43, 110
9, 43484, Note_off_c, 7, 43, 64
9, 43525, Note_on_c, 7, 43, 109
9, 43569, Note_off_c, 7, 43, 64
9, 43607, Note_on_c, 7, 43, 104
9, 43649, Note_off_c, 7, 43, 64
9, 43684, Note_on_c, 7, 43, 118
9, 43726, Note_off_c, 7, 43, 64
9, 43767, Note_on_c, 7, 43, 108
9, 43811, Note_off_c, 7, 43, 64
9, 43845, Note_on_c, 7, 43, 104
9, 43887, Note_off_c, 7, 43, 64
9, 43927, Note_on_c, 7, 43, 110
9, 43985, Note_off_c, 7, 43, 64
9, 72969, Note_on_c, 7, 34, 65
9, 73076, Note_off_c, 7, 34, 64
9, 73928, Note_on_c, 7, 34, 64
9, 74034, Note_off_c, 7, 34, 64
9, 74883, Note_on_c, 7, 40, 65
9, 74978, Note_off_c, 7, 40, 64
9, 78729, Note_on_c, 7, 42, 65
9, 78835, Note_off_c, 7, 42, 64
9, 79206, Note_on_c, 7, 42, 66
9, 79314, Note_off_c, 7, 42, 64
9, 80646, Note_on_c, 7, 42, 63
9, 80752, Note_off_c, 7, 42, 64
9, 81126, Note_on_c, 7, 42, 66
9, 81232, Note_off_c, 7, 42, 64
9, 86406, Note_on_c, 7, 35, 85
9, 86716, Note_off_c, 7, 35, 64
9, 86885, Note_on_c, 7, 35, 85
9, 86944, Note_off_c, 7, 35, 64
9, 87122, Note_on_c, 7, 35, 82
9, 87164, Note_off_c, 7, 35, 64
9, 87208, Note_on_c, 7, 35, 83
9, 87250, Note_off_c, 7, 35, 64
9, 87284, Note_on_c, 7, 35, 76
9, 87326, Note_off_c, 7, 35, 64
9, 87365, Note_on_c, 7, 35, 83
9, 87435, Note_off_c, 7, 35, 64
9, 87603, Note_on_c, 7, 35, 85
9, 87673, Note_off_c, 7, 35, 64
9, 87843, Note_on_c, 7, 46, 91
9, 87885, Note_off_c, 7, 46, 64
9, 87925, Note_on_c, 7, 46, 83
9, 87967, Note_off_c, 7, 46, 64
9, 88007, Note_on_c, 7, 46, 79
9, 88049, Note_off_c, 7, 46, 64
9, 88086, Note_on_c, 7, 46, 84
9, 88144, Note_off_c, 7, 46, 64
9, 88329, Note_on_c, 7, 35, 80
9, 88639, Note_off_c, 7, 35, 64
9, 88807, Note_on_c, 7, 35, 85
9, 88866, Note_off_c, 7, 35, 64
9, 89048, Note_on_c, 7, 35, 84
9, 89090, Note_off_c, 7, 35, 64
9, 89127, Note_on_c, 7, 35, 83
9, 89169, Note_off_c, 7, 35, 64
9, 89206, Note_on_c, 7, 35, 79
9, 89250, Note_off_c, 7, 35, 64
9, 89285, Note_on_c, 7, 35, 85
9, 89355, Note_off_c, 7, 35, 64
9, 89528, Note_on_c, 7, 35, 83
9, 89599, Note_off_c, 7, 35, 64
9, 89767, Note_on_c, 7, 46, 90
9, 89809, Note_off_c, 7, 46, 64
9, 89849, Note_on_c, 7, 46, 81
9, 89891, Note_off_c, 7, 46, 64
9, 89925, Note_on_c, 7, 46, 79
9, 89967, Note_off_c, 7, 46, 64
9, 90006, Note_on_c, 7, 46, 82
9, 90064, Note_off_c, 7, 46, 64
9, 90249, Note_on_c, 7, 36, 85
9, 90559, Note_off_c, 7, 36, 64
9, 90728, Note_on_c, 7, 36, 85
9, 90786, Note_off_c, 7, 36, 64
9, 90969, Note_on_c, 7, 36, 83
9, 91013, Note_off_c, 7, 36, 64
9, 91045, Note_on_c, 7, 36, 84
9, 91088, Note_off_c, 7, 36, 64
9, 91129, Note_on_c, 7, 36, 78
9, 91171, Note_off_c, 7, 36, 64
9, 91209, Note_on_c, 7, 36, 84
9, 91279, Note_off_c, 7, 36, 64
9, 91448, Note_on_c, 7, 36, 84
9, 91519, Note_off_c, 7, 36, 64
9, 91689, Note_on_c, 7, 47, 91
9, 91732, Note_off_c, 7, 47, 64
9, 91769, Note_on_c, 7, 47, 84
9, 91813, Note_off_c, 7, 47, 64
9, 91847, Note_on_c, 7, 47, 75
9, 91891, Note_off_c, 7, 47, 64
9, 91928, Note_on_c, 7, 47, 85
9, 91986, Note_off_c, 7, 47, 64
9, 92168, Note_on_c, 7, 36, 84
9, 92478, Note_off_c, 7, 36, 64
9, 92645, Note_on_c, 7, 36, 84
9, 92705, Note_off_c, 7, 36, 64
9, 92888, Note_on_c, 7, 36, 83
9, 92932, Note_off_c, 7, 36, 64
9, 92969, Note_on_c, 7, 36, 83
9, 93011, Note_off_c, 7, 36, 64
9, 93049, Note_on_c, 7, 36, 78
9, 93091, Note_off_c, 7, 36, 64
9, 93126, Note_on_c, 7, 36, 82
9, 93196, Note_off_c, 7, 36, 64
9, 93366, Note_on_c, 7, 36, 85
9, 93439, Note_off_c, 7, 36, 64
9, 93604, Note_on_c, 7, 47, 90
9, 93648, Note_off_c, 7, 47, 64
9, 93683, Note_on_c, 7, 47, 84
9, 93725, Note_off_c, 7, 47, 64
9, 93768, Note_on_c, 7, 47, 78
9, 93810, Note_off_c, 7, 47, 64
9, 93848, Note_on_c, 7, 47, 83
9, 93906, Note_off_c, 7, 47, 64
9, 94088, Note_on_c, 7, 43, 87
9, 94230, Note_off_c, 7, 43, 64
9, 108456, Control_c, 7, 11, 99
9, 108481, Note_on_c, 7, 43, 98
9, 108576, Control_c, 7, 11, 101
9, 108648, Control_c, 7, 11, 104
9, 108768, Control_c, 7, 11, 108
9, 108888, Control_c, 7, 11, 111
9, 108984, Control_c, 7, 11, 114
9, 109104, Control_c, 7, 11, 118
9, 109224, Control_c, 7, 11, 121
9, 109320, Control_c, 7, 11, 124
9, 109356, Note_off_c, 7, 43, 64
9, 109392, Control_c, 7, 11, 127
9, 109447, Note_on_c, 7, 39, 96
9, 109566, Note_off_c, 7, 39, 64
9, 109928, Note_on_c, 7, 39, 96
9, 110046, Note_off_c, 7, 39, 64
9, 110402, Note_on_c, 7, 43, 97
9, 110520, Note_off_c, 7, 43, 64
9, 110887, Note_on_c, 7, 43, 103
9, 111005, Note_off_c, 7, 43, 64
9, 111368, Note_on_c, 7, 37, 97
9, 111488, Note_off_c, 7, 37, 64
9, 111848, Note_on_c, 7, 37, 97
9, 111967, Note_off_c, 7, 37, 64
9, 112328, Note_on_c, 7, 37, 93
9, 112446, Note_off_c, 7, 37, 64
9, 112807, Note_on_c, 7, 37, 98
9, 112850, Note_off_c, 7, 37, 64
9, 112888, Note_on_c, 7, 37, 86
9, 112930, Note_off_c, 7, 37, 64
9, 112963, Note_on_c, 7, 37, 81
9, 113006, Note_off_c, 7, 37, 64
9, 113045, Note_on_c, 7, 37, 92
9, 113151, Note_off_c, 7, 37, 64
9, 113284, Note_on_c, 7, 39, 96
9, 113403, Note_off_c, 7, 39, 64
9, 113764, Note_on_c, 7, 39, 94
9, 113885, Note_off_c, 7, 39, 64
9, 114247, Note_on_c, 7, 39, 97
9, 114366, Note_off_c, 7, 39, 64
9, 114728, Note_on_c, 7, 48, 92
9, 114846, Note_off_c, 7, 48, 64
9, 115209, Note_on_c, 7, 43, 91
9, 115605, Note_off_c, 7, 43, 64
9, 115689, Note_on_c, 7, 48, 94
9, 116084, Note_off_c, 7, 48, 64
9, 116166, Note_on_c, 7, 43, 92
9, 117041, Note_off_c, 7, 43, 64
9, 117576, Control_c, 7, 11, 114
9, 117603, Note_on_c, 7, 43, 102
9, 117646, Note_off_c, 7, 43, 64
9, 117687, Note_on_c, 7, 43, 103
9, 117730, Note_off_c, 7, 43, 64
9, 117769, Note_on_c, 7, 43, 95
9, 117811, Note_off_c, 7, 43, 64
9, 117841, Note_on_c, 7, 43, 103
9, 117923, Note_off_c, 7, 43, 64
9, 118328, Note_on_c, 7, 43, 104
9, 118411, Note_off_c, 7, 43, 64
9, 118808, Note_on_c, 7, 51, 101
9, 118892, Note_off_c, 7, 51, 64
9, 119285, Note_on_c, 7, 43, 104
9, 119369, Note_off_c, 7, 43, 64
9, 119767, Note_on_c, 7, 51, 104
9, 119850, Note_off_c, 7, 51, 64
9, 120246, Note_on_c, 7, 43, 104
9, 120289, Note_off_c, 7, 43, 64
9, 120319, Note_on_c, 7, 43, 103
9, 120361, Note_off_c, 7, 43, 64
9, 120405, Note_on_c, 7, 43, 95
9, 120447, Note_off_c, 7, 43, 64
9, 120488, Note_on_c, 7, 43, 104
9, 120530, Note_off_c, 7, 43, 64
9, 120563, Note_on_c, 7, 43, 103
9, 120605, Note_off_c, 7, 43, 64
9, 120645, Note_on_c, 7, 43, 98
9, 120688, Note_off_c, 7, 43, 64
9, 120729, Note_on_c, 7, 43, 104
9, 120787, Note_off_c, 7, 43, 64
9, 121208, Note_on_c, 7, 43, 103
9, 121290, Note_off_c, 7, 43, 64
9, 121681, Note_on_c, 7, 43, 100
9, 121763, Note_off_c, 7, 43, 64
9, 122163, Note_on_c, 7, 43, 102
9, 122245, Note_off_c, 7, 43, 64
9, 122646, Note_on_c, 7, 42, 100
9, 122728, Note_off_c, 7, 42, 64
9, 123127, Note_on_c, 7, 51, 102
9, 123210, Note_off_c, 7, 51, 64
9, 123605, Note_on_c, 7, 48, 102
9, 123687, Note_off_c, 7, 48, 64
9, 124086, Note_on_c, 7, 43, 98
9, 124129, Note_off_c, 7, 43, 64
9, 124168, Note_on_c, 7, 43, 104
9, 124213, Note_off_c, 7, 43, 64
9, 124249, Note_on_c, 7, 43, 95
9, 124291, Note_off_c, 7, 43, 64
9, 124320, Control_c, 7, 11, 114
9, 124323, Note_on_c, 7, 43, 110
9, 124365, Note_off_c, 7, 43, 64
9, 124409, Note_on_c, 7, 43, 100
9, 124440, Control_c, 7, 11, 116
9, 124451, Note_off_c, 7, 43, 64
9, 124484, Note_on_c, 7, 43, 98
9, 124512, Control_c, 7, 11, 119
9, 124527, Note_off_c, 7, 43, 64
9, 124568, Note_on_c, 7, 43, 102
9, 124626, Note_off_c, 7, 43, 64
9, 124632, Control_c, 7, 11, 121
9, 124704, Control_c, 7, 11, 124
9, 124776, Control_c, 7, 11, 127
9, 124807, Note_on_c, 7, 51, 109
9, 124922, Note_off_c, 7, 51, 64
9, 125288, Note_on_c, 7, 51, 110
9, 125403, Note_off_c, 7, 51, 64
9, 125768, Note_on_c, 7, 43, 109
9, 125883, Note_off_c, 7, 43, 64
9, 126247, Note_on_c, 7, 43, 110
9, 126362, Note_off_c, 7, 43, 64
9, 126728, Note_on_c, 7, 49, 110
9, 126843, Note_off_c, 7, 49, 64
9, 127201, Note_on_c, 7, 49, 109
9, 127317, Note_off_c, 7, 49, 64
9, 127686, Note_on_c, 7, 49, 109
9, 127802, Note_off_c, 7, 49, 64
9, 128168, Note_on_c, 7, 37, 110
9, 128283, Note_off_c, 7, 37, 64
9, 128646, Note_on_c, 7, 39, 109
9, 128761, Note_off_c, 7, 39, 64
9, 129128, Note_on_c, 7, 39, 109
9, 129243, Note_off_c, 7, 39, 64
9, 129605, Note_on_c, 7, 51, 102
9, 129999, Note_off_c, 7, 51, 64
9, 130088, Note_on_c, 7, 48, 109
9, 130482, Note_off_c, 7, 48, 64
9, 130568, Note_on_c, 7, 43, 102
9, 130963, Note_off_c, 7, 43, 64
9, 131049, Note_on_c, 7, 48, 105
9, 131444, Note_off_c, 7, 48, 64
9, 131522, Note_on_c, 7, 43, 103
9, 131544, Control_c, 7, 11, 127
9, 131712, Control_c, 7, 11, 125
9, 131808, Control_c, 7, 11, 121
9, 131880, Control_c, 7, 11, 118
9, 131928, Control_c, 7, 11, 115
9, 131976, Control_c, 7, 11, 111
9, 132024, Control_c, 7, 11, 108
9, 132048, Control_c, 7, 11, 105
9, 132096, Control_c, 7, 11, 100
9, 132144, Control_c, 7, 11, 95
9, 132168, Control_c, 7, 11, 91
9, 132216, Control_c, 7, 11, 85
9, 132240, Control_c, 7, 11, 81
9, 132264, Control_c, 7, 11, 76
9, 132288, Control_c, 7, 11, 71
9, 132312, Control_c, 7, 11, 66
9, 132336, Control_c, 7, 11, 61
9, 132360, Control_c, 7, 11, 54
9, 132384, Control_c, 7, 11, 46
9, 132396, Note_off_c, 7, 43, 64
9, 132408, Control_c, 7, 11, 36
9, 132432, Control_c, 7, 11, 21
9, 132480, Control_c, 7, 11, 127
9, 140136, Control_c, 7, 11, 114
9, 140167, Note_on_c, 7, 31, 104
9, 140299, Note_off_c, 7, 31, 64
9, 141608, Note_on_c, 7, 51, 98
9, 142026, Note_off_c, 7, 51, 64
9, 142089, Note_on_c, 7, 50, 91
9, 142507, Note_off_c, 7, 50, 64
9, 142567, Note_on_c, 7, 49, 95
9, 142985, Note_off_c, 7, 49, 64
9, 143049, Note_on_c, 7, 36, 96
9, 143468, Note_off_c, 7, 36, 64
9, 143496, Control_c, 7, 11, 114
9, 143525, Note_on_c, 7, 31, 97
9, 143616, Control_c, 7, 11, 116
9, 143688, Control_c, 7, 11, 119
9, 143808, Control_c, 7, 11, 121
9, 143880, Control_c, 7, 11, 124
9, 143919, Note_off_c, 7, 31, 64
9, 143976, Control_c, 7, 11, 127
9, 144007, Note_on_c, 7, 31, 97
9, 144125, Note_off_c, 7, 31, 64
9, 144485, Note_on_c, 7, 31, 95
9, 144567, Note_off_c, 7, 31, 64
9, 144727, Note_on_c, 7, 31, 98
9, 144795, Note_off_c, 7, 31, 64
9, 145446, Note_on_c, 7, 31, 108
9, 145489, Note_off_c, 7, 31, 64
9, 145527, Note_on_c, 7, 31, 98
9, 145571, Note_off_c, 7, 31, 64
9, 145606, Note_on_c, 7, 31, 88
9, 145648, Note_off_c, 7, 31, 64
9, 145687, Note_on_c, 7, 31, 97
9, 145746, Note_off_c, 7, 31, 64
9, 145927, Note_on_c, 7, 31, 97
9, 146045, Note_off_c, 7, 31, 64
9, 146409, Note_on_c, 7, 31, 96
9, 146491, Note_off_c, 7, 31, 64
9, 146649, Note_on_c, 7, 31, 93
9, 146715, Note_off_c, 7, 31, 64
9, 147366, Note_on_c, 7, 31, 109
9, 147409, Note_off_c, 7, 31, 64
9, 147449, Note_on_c, 7, 31, 95
9, 147491, Note_off_c, 7, 31, 64
9, 147522, Note_on_c, 7, 31, 93
9, 147564, Note_off_c, 7, 31, 64
9, 147608, Note_on_c, 7, 31, 95
9, 147666, Note_off_c, 7, 31, 64
9, 147849, Note_on_c, 7, 43, 109
9, 147891, Note_off_c, 7, 43, 64
9, 147922, Note_on_c, 7, 43, 103
9, 147964, Note_off_c, 7, 43, 64
9, 148008, Note_on_c, 7, 43, 97
9, 148050, Note_off_c, 7, 43, 64
9, 148088, Note_on_c, 7, 48, 94
9, 148296, Control_c, 7, 11, 127
9, 148320, Control_c, 7, 11, 104
9, 148344, Control_c, 7, 11, 98
9, 148368, Control_c, 7, 11, 93
9, 148392, Control_c, 7, 11, 89
9, 148416, Control_c, 7, 11, 85
9, 148440, Control_c, 7, 11, 82
9, 148488, Control_c, 7, 11, 77
9, 148536, Control_c, 7, 11, 74
9, 148560, Control_c, 7, 11, 71
9, 148632, Control_c, 7, 11, 67
9, 148752, Control_c, 7, 11, 66
9, 148776, Control_c, 7, 11, 66
9, 148776, Control_c, 7, 11, 67
9, 148800, Control_c, 7, 11, 64
9, 148800, Control_c, 7, 11, 65
9, 149208, Control_c, 7, 11, 65
9, 149760, Control_c, 7, 11, 64
9, 150024, Control_c, 7, 11, 65
9, 150216, Control_c, 7, 11, 66
9, 150336, Control_c, 7, 11, 67
9, 150456, Control_c, 7, 11, 69
9, 150576, Control_c, 7, 11, 70
9, 150696, Control_c, 7, 11, 72
9, 150816, Control_c, 7, 11, 75
9, 150936, Control_c, 7, 11, 77
9, 151008, Control_c, 7, 11, 80
9, 151104, Control_c, 7, 11, 84
9, 151224, Control_c, 7, 11, 88
9, 151296, Control_c, 7, 11, 91
9, 151344, Control_c, 7, 11, 94
9, 151416, Control_c, 7, 11, 98
9, 151464, Control_c, 7, 11, 101
9, 151488, Control_c, 7, 11, 104
9, 151536, Control_c, 7, 11, 108
9, 151579, Note_off_c, 7, 48, 64
9, 151584, Control_c, 7, 11, 114
9, 151608, Control_c, 7, 11, 119
9, 151656, Control_c, 7, 11, 127
9, 151687, Note_on_c, 7, 31, 119
9, 151781, Note_off_c, 7, 31, 64
9, 154805, Note_on_c, 7, 38, 109
9, 154847, Note_off_c, 7, 38, 64
9, 154886, Note_on_c, 7, 38, 109
9, 154929, Note_off_c, 7, 38, 64
9, 154968, Note_on_c, 7, 38, 101
9, 155010, Note_off_c, 7, 38, 64
9, 155044, Note_on_c, 7, 31, 118
9, 155104, Note_off_c, 7, 31, 64
9, 159360, Control_c, 7, 123, 0
9, 159360, End_track
10, 0, Start_track
10, 0, Text_t, "Percussion"
10, 0, Program_c, 9, 48
10, 0, Control_c, 9, 10, 57
10, 0, Control_c, 9, 7, 94
10, 0, Control_c, 9, 93, 5
10, 0, Control_c, 9, 91, 127
10, 0, Control_c, 9, 11, 127
10, 0, Control_c, 9, 123, 0
10, 1920, Note_on_c, 9, 37, 71
10, 2040, Note_off_c, 9, 37, 64
10, 2880, Note_on_c, 9, 37, 78
10, 3000, Note_off_c, 9, 37, 64
10, 3840, Note_on_c, 9, 37, 71
10, 3960, Note_off_c, 9, 37, 64
10, 4800, Note_on_c, 9, 37, 77
10, 4920, Note_off_c, 9, 37, 64
10, 5760, Note_on_c, 9, 43, 83
10, 5760, Note_on_c, 9, 38, 58
10, 5796, Note_off_c, 9, 38, 64
10, 5868, Note_off_c, 9, 43, 64
10, 6120, Note_on_c, 9, 38, 36
10, 6156, Note_off_c, 9, 38, 64
10, 6180, Note_on_c, 9, 38, 41
10, 6216, Note_off_c, 9, 38, 64
10, 6240, Note_on_c, 9, 43, 83
10, 6240, Note_on_c, 9, 38, 58
10, 6276, Note_off_c, 9, 38, 64
10, 6288, Note_off_c, 9, 43, 64
10, 6480, Note_on_c, 9, 43, 83
10, 6480, Note_on_c, 9, 38, 52
10, 6512, Note_off_c, 9, 43, 64
10, 6512, Note_off_c, 9, 38, 64
10, 6560, Note_on_c, 9, 43, 83
10, 6560, Note_on_c, 9, 38, 58
10, 6592, Note_off_c, 9, 43, 64
10, 6592, Note_off_c, 9, 38, 64
10, 6640, Note_on_c, 9, 43, 83
10, 6640, Note_on_c, 9, 38, 52
10, 6672, Note_off_c, 9, 43, 64
10, 6672, Note_off_c, 9, 38, 64
10, 6720, Note_on_c, 9, 43, 83
10, 6720, Note_on_c, 9, 38, 58
10, 6756, Note_off_c, 9, 38, 64
10, 6768, Note_off_c, 9, 43, 64
10, 6960, Note_on_c, 9, 43, 83
10, 6960, Note_on_c, 9, 38, 52
10, 6992, Note_off_c, 9, 43, 64
10, 6992, Note_off_c, 9, 38, 64
10, 7040, Note_on_c, 9, 43, 83
10, 7040, Note_on_c, 9, 38, 58
10, 7072, Note_off_c, 9, 43, 64
10, 7072, Note_off_c, 9, 38, 64
10, 7120, Note_on_c, 9, 43, 83
10, 7120, Note_on_c, 9, 38, 52
10, 7152, Note_off_c, 9, 43, 64
10, 7152, Note_off_c, 9, 38, 64
10, 7200, Note_on_c, 9, 51, 91
10, 7200, Note_on_c, 9, 59, 109
10, 7200, Note_on_c, 9, 38, 64
10, 7232, Note_off_c, 9, 51, 64
10, 7232, Note_off_c, 9, 38, 64
10, 7256, Note_off_c, 9, 59, 64
10, 7280, Note_on_c, 9, 51, 83
10, 7280, Note_on_c, 9, 38, 52
10, 7312, Note_off_c, 9, 51, 64
10, 7312, Note_off_c, 9, 38, 64
10, 7360, Note_on_c, 9, 51, 83
10, 7360, Note_on_c, 9, 38, 59
10, 7392, Note_off_c, 9, 51, 64
10, 7392, Note_off_c, 9, 38, 64
10, 7440, Note_on_c, 9, 51, 83
10, 7440, Note_on_c, 9, 36, 52
10, 7440, Note_on_c, 9, 38, 52
10, 7476, Note_off_c, 9, 36, 64
10, 7476, Note_off_c, 9, 38, 64
10, 7488, Note_off_c, 9, 51, 64
10, 7680, Note_on_c, 9, 43, 83
10, 7680, Note_on_c, 9, 38, 58
10, 7716, Note_off_c, 9, 38, 64
10, 7788, Note_off_c, 9, 43, 64
10, 8040, Note_on_c, 9, 38, 36
10, 8076, Note_off_c, 9, 38, 64
10, 8100, Note_on_c, 9, 38, 41
10, 8136, Note_off_c, 9, 38, 64
10, 8160, Note_on_c, 9, 43, 83
10, 8160, Note_on_c, 9, 38, 58
10, 8196, Note_off_c, 9, 38, 64
10, 8208, Note_off_c, 9, 43, 64
10, 8400, Note_on_c, 9, 43, 83
10, 8400, Note_on_c, 9, 38, 52
10, 8432, Note_off_c, 9, 43, 64
10, 8432, Note_off_c, 9, 38, 64
10, 8480, Note_on_c, 9, 43, 83
10, 8480, Note_on_c, 9, 38, 58
10, 8512, Note_off_c, 9, 43, 64
10, 8512, Note_off_c, 9, 38, 64
10, 8560, Note_on_c, 9, 43, 83
10, 8560, Note_on_c, 9, 38, 52
10, 8592, Note_off_c, 9, 43, 64
10, 8592, Note_off_c, 9, 38, 64
10, 8640, Note_on_c, 9, 43, 83
10, 8640, Note_on_c, 9, 38, 58
10, 8676, Note_off_c, 9, 38, 64
10, 8688, Note_off_c, 9, 43, 64
10, 8880, Note_on_c, 9, 43, 83
10, 8880, Note_on_c, 9, 38, 52
10, 8912, Note_off_c, 9, 43, 64
10, 8912, Note_off_c, 9, 38, 64
10, 8960, Note_on_c, 9, 43, 83
10, 8960, Note_on_c, 9, 38, 58
10, 8992, Note_off_c, 9, 43, 64
10, 8992, Note_off_c, 9, 38, 64
10, 9040, Note_on_c, 9, 43, 83
10, 9040, Note_on_c, 9, 38, 52
10, 9072, Note_off_c, 9, 43, 64
10, 9072, Note_off_c, 9, 38, 64
10, 9120, Note_on_c, 9, 51, 91
10, 9120, Note_on_c, 9, 59, 109
10, 9120, Note_on_c, 9, 38, 64
10, 9152, Note_off_c, 9, 51, 64
10, 9152, Note_off_c, 9, 38, 64
10, 9176, Note_off_c, 9, 59, 64
10, 9200, Note_on_c, 9, 51, 83
10, 9200, Note_on_c, 9, 38, 52
10, 9232, Note_off_c, 9, 51, 64
10, 9232, Note_off_c, 9, 38, 64
10, 9280, Note_on_c, 9, 51, 83
10, 9280, Note_on_c, 9, 38, 59
10, 9312, Note_off_c, 9, 51, 64
10, 9312, Note_off_c, 9, 38, 64
10, 9360, Note_on_c, 9, 51, 83
10, 9360, Note_on_c, 9, 38, 52
10, 9360, Note_on_c, 9, 36, 52
10, 9396, Note_off_c, 9, 38, 64
10, 9396, Note_off_c, 9, 36, 64
10, 9408, Note_off_c, 9, 51, 64
10, 9600, Note_on_c, 9, 43, 83
10, 9600, Note_on_c, 9, 38, 58
10, 9636, Note_off_c, 9, 38, 64
10, 9708, Note_off_c, 9, 43, 64
10, 9960, Note_on_c, 9, 38, 36
10, 9996, Note_off_c, 9, 38, 64
10, 10020, Note_on_c, 9, 38, 41
10, 10056, Note_off_c, 9, 38, 64
10, 10080, Note_on_c, 9, 43, 83
10, 10080, Note_on_c, 9, 38, 58
10, 10116, Note_off_c, 9, 38, 64
10, 10128, Note_off_c, 9, 43, 64
10, 10320, Note_on_c, 9, 43, 83
10, 10320, Note_on_c, 9, 38, 52
10, 10352, Note_off_c, 9, 43, 64
10, 10352, Note_off_c, 9, 38, 64
10, 10400, Note_on_c, 9, 43, 83
10, 10400, Note_on_c, 9, 38, 58
10, 10432, Note_off_c, 9, 43, 64
10, 10432, Note_off_c, 9, 38, 64
10, 10480, Note_on_c, 9, 43, 83
10, 10480, Note_on_c, 9, 38, 52
10, 10512, Note_off_c, 9, 43, 64
10, 10512, Note_off_c, 9, 38, 64
10, 10560, Note_on_c, 9, 43, 83
10, 10560, Note_on_c, 9, 38, 58
10, 10596, Note_off_c, 9, 38, 64
10, 10608, Note_off_c, 9, 43, 64
10, 10800, Note_on_c, 9, 43, 83
10, 10800, Note_on_c, 9, 38, 52
10, 10832, Note_off_c, 9, 43, 64
10, 10832, Note_off_c, 9, 38, 64
10, 10880, Note_on_c, 9, 43, 83
10, 10880, Note_on_c, 9, 38, 58
10, 10912, Note_off_c, 9, 43, 64
10, 10912, Note_off_c, 9, 38, 64
10, 10960, Note_on_c, 9, 43, 83
10, 10960, Note_on_c, 9, 38, 52
10, 10992, Note_off_c, 9, 43, 64
10, 10992, Note_off_c, 9, 38, 64
10, 11040, Note_on_c, 9, 43, 91
10, 11040, Note_on_c, 9, 59, 109
10, 11040, Note_on_c, 9, 38, 64
10, 11072, Note_off_c, 9, 43, 64
10, 11072, Note_off_c, 9, 38, 64
10, 11096, Note_off_c, 9, 59, 64
10, 11120, Note_on_c, 9, 43, 83
10, 11120, Note_on_c, 9, 38, 52
10, 11152, Note_off_c, 9, 43, 64
10, 11152, Note_off_c, 9, 38, 64
10, 11200, Note_on_c, 9, 43, 83
10, 11200, Note_on_c, 9, 38, 59
10, 11232, Note_off_c, 9, 43, 64
10, 11232, Note_off_c, 9, 38, 64
10, 11280, Note_on_c, 9, 43, 83
10, 11280, Note_on_c, 9, 38, 52
10, 11280, Note_on_c, 9, 36, 52
10, 11316, Note_off_c, 9, 38, 64
10, 11316, Note_off_c, 9, 36, 64
10, 11328, Note_off_c, 9, 43, 64
10, 11520, Note_on_c, 9, 43, 83
10, 11520, Note_on_c, 9, 38, 58
10, 11556, Note_off_c, 9, 38, 64
10, 11628, Note_off_c, 9, 43, 64
10, 11880, Note_on_c, 9, 38, 36
10, 11916, Note_off_c, 9, 38, 64
10, 11940, Note_on_c, 9, 38, 41
10, 11976, Note_off_c, 9, 38, 64
10, 12000, Note_on_c, 9, 43, 83
10, 12000, Note_on_c, 9, 38, 58
10, 12036, Note_off_c, 9, 38, 64
10, 12048, Note_off_c, 9, 43, 64
10, 12240, Note_on_c, 9, 43, 83
10, 12240, Note_on_c, 9, 38, 52
10, 12272, Note_off_c, 9, 43, 64
10, 12272, Note_off_c, 9, 38, 64
10, 12320, Note_on_c, 9, 43, 83
10, 12320, Note_on_c, 9, 38, 58
10, 12352, Note_off_c, 9, 43, 64
10, 12352, Note_off_c, 9, 38, 64
10, 12400, Note_on_c, 9, 43, 83
10, 12400, Note_on_c, 9, 38, 52
10, 12432, Note_off_c, 9, 43, 64
10, 12432, Note_off_c, 9, 38, 64
10, 12480, Note_on_c, 9, 43, 83
10, 12480, Note_on_c, 9, 38, 58
10, 12516, Note_off_c, 9, 38, 64
10, 12528, Note_off_c, 9, 43, 64
10, 12720, Note_on_c, 9, 43, 83
10, 12720, Note_on_c, 9, 38, 52
10, 12752, Note_off_c, 9, 43, 64
10, 12752, Note_off_c, 9, 38, 64
10, 12800, Note_on_c, 9, 43, 83
10, 12800, Note_on_c, 9, 38, 58
10, 12832, Note_off_c, 9, 43, 64
10, 12832, Note_off_c, 9, 38, 64
10, 12880, Note_on_c, 9, 43, 83
10, 12880, Note_on_c, 9, 38, 52
10, 12912, Note_off_c, 9, 43, 64
10, 12912, Note_off_c, 9, 38, 64
10, 12960, Note_on_c, 9, 43, 91
10, 12960, Note_on_c, 9, 59, 109
10, 12960, Note_on_c, 9, 38, 64
10, 12992, Note_off_c, 9, 43, 64
10, 12992, Note_off_c, 9, 38, 64
10, 13016, Note_off_c, 9, 59, 64
10, 13040, Note_on_c, 9, 43, 83
10, 13040, Note_on_c, 9, 38, 52
10, 13072, Note_off_c, 9, 43, 64
10, 13072, Note_off_c, 9, 38, 64
10, 13120, Note_on_c, 9, 43, 83
10, 13120, Note_on_c, 9, 38, 59
10, 13152, Note_off_c, 9, 43, 64
10, 13152, Note_off_c, 9, 38, 64
10, 13200, Note_on_c, 9, 43, 83
10, 13200, Note_on_c, 9, 38, 52
10, 13200, Note_on_c, 9, 36, 52
10, 13236, Note_off_c, 9, 38, 64
10, 13236, Note_off_c, 9, 36, 64
10, 13248, Note_off_c, 9, 43, 64
10, 13440, Note_on_c, 9, 43, 83
10, 13440, Note_on_c, 9, 38, 58
10, 13476, Note_off_c, 9, 38, 64
10, 13548, Note_off_c, 9, 43, 64
10, 13800, Note_on_c, 9, 38, 36
10, 13836, Note_off_c, 9, 38, 64
10, 13860, Note_on_c, 9, 38, 41
10, 13896, Note_off_c, 9, 38, 64
10, 13920, Note_on_c, 9, 43, 83
10, 13920, Note_on_c, 9, 38, 58
10, 13956, Note_off_c, 9, 38, 64
10, 13968, Note_off_c, 9, 43, 64
10, 14160, Note_on_c, 9, 43, 83
10, 14160, Note_on_c, 9, 38, 52
10, 14192, Note_off_c, 9, 43, 64
10, 14192, Note_off_c, 9, 38, 64
10, 14240, Note_on_c, 9, 43, 83
10, 14240, Note_on_c, 9, 38, 58
10, 14272, Note_off_c, 9, 43, 64
10, 14272, Note_off_c, 9, 38, 64
10, 14320, Note_on_c, 9, 43, 83
10, 14320, Note_on_c, 9, 38, 52
10, 14352, Note_off_c, 9, 43, 64
10, 14352, Note_off_c, 9, 38, 64
10, 14400, Note_on_c, 9, 43, 83
10, 14400, Note_on_c, 9, 38, 58
10, 14436, Note_off_c, 9, 38, 64
10, 14448, Note_off_c, 9, 43, 64
10, 14640, Note_on_c, 9, 43, 83
10, 14640, Note_on_c, 9, 38, 52
10, 14672, Note_off_c, 9, 43, 64
10, 14672, Note_off_c, 9, 38, 64
10, 14720, Note_on_c, 9, 43, 83
10, 14720, Note_on_c, 9, 38, 58
10, 14752, Note_off_c, 9, 43, 64
10, 14752, Note_off_c, 9, 38, 64
10, 14800, Note_on_c, 9, 43, 83
10, 14800, Note_on_c, 9, 38, 52
10, 14832, Note_off_c, 9, 43, 64
10, 14832, Note_off_c, 9, 38, 64
10, 14880, Note_on_c, 9, 43, 91
10, 14880, Note_on_c, 9, 38, 64
10, 14912, Note_off_c, 9, 43, 64
10, 14912, Note_off_c, 9, 38, 64
10, 14960, Note_on_c, 9, 43, 83
10, 14960, Note_on_c, 9, 38, 52
10, 14992, Note_off_c, 9, 43, 64
10, 14992, Note_off_c, 9, 38, 64
10, 15040, Note_on_c, 9, 43, 83
10, 15040, Note_on_c, 9, 38, 59
10, 15072, Note_off_c, 9, 43, 64
10, 15072, Note_off_c, 9, 38, 64
10, 15120, Note_on_c, 9, 43, 83
10, 15120, Note_on_c, 9, 36, 52
10, 15120, Note_on_c, 9, 38, 52
10, 15156, Note_off_c, 9, 36, 64
10, 15156, Note_off_c, 9, 38, 64
10, 15168, Note_off_c, 9, 43, 64
10, 15360, Note_on_c, 9, 43, 83
10, 15360, Note_on_c, 9, 38, 58
10, 15396, Note_off_c, 9, 38, 64
10, 15468, Note_off_c, 9, 43, 64
10, 15720, Note_on_c, 9, 38, 36
10, 15756, Note_off_c, 9, 38, 64
10, 15780, Note_on_c, 9, 38, 41
10, 15816, Note_off_c, 9, 38, 64
10, 15840, Note_on_c, 9, 43, 83
10, 15840, Note_on_c, 9, 38, 58
10, 15876, Note_off_c, 9, 38, 64
10, 15888, Note_off_c, 9, 43, 64
10, 16080, Note_on_c, 9, 43, 83
10, 16080, Note_on_c, 9, 38, 52
10, 16112, Note_off_c, 9, 43, 64
10, 16112, Note_off_c, 9, 38, 64
10, 16160, Note_on_c, 9, 43, 83
10, 16160, Note_on_c, 9, 38, 58
10, 16192, Note_off_c, 9, 43, 64
10, 16192, Note_off_c, 9, 38, 64
10, 16240, Note_on_c, 9, 43, 83
10, 16240, Note_on_c, 9, 38, 52
10, 16272, Note_off_c, 9, 43, 64
10, 16272, Note_off_c, 9, 38, 64
10, 16320, Note_on_c, 9, 43, 83
10, 16320, Note_on_c, 9, 38, 58
10, 16356, Note_off_c, 9, 38, 64
10, 16368, Note_off_c, 9, 43, 64
10, 16560, Note_on_c, 9, 43, 83
10, 16560, Note_on_c, 9, 38, 52
10, 16592, Note_off_c, 9, 43, 64
10, 16592, Note_off_c, 9, 38, 64
10, 16640, Note_on_c, 9, 43, 83
10, 16640, Note_on_c, 9, 38, 58
10, 16672, Note_off_c, 9, 43, 64
10, 16672, Note_off_c, 9, 38, 64
10, 16720, Note_on_c, 9, 43, 83
10, 16720, Note_on_c, 9, 38, 52
10, 16752, Note_off_c, 9, 43, 64
10, 16752, Note_off_c, 9, 38, 64
10, 16800, Note_on_c, 9, 43, 91
10, 16800, Note_on_c, 9, 38, 64
10, 16832, Note_off_c, 9, 43, 64
10, 16832, Note_off_c, 9, 38, 64
10, 16880, Note_on_c, 9, 43, 83
10, 16880, Note_on_c, 9, 38, 52
10, 16912, Note_off_c, 9, 43, 64
10, 16912, Note_off_c, 9, 38, 64
10, 16960, Note_on_c, 9, 43, 83
10, 16960, Note_on_c, 9, 38, 59
10, 16992, Note_off_c, 9, 43, 64
10, 16992, Note_off_c, 9, 38, 64
10, 17040, Note_on_c, 9, 43, 83
10, 17040, Note_on_c, 9, 36, 52
10, 17040, Note_on_c, 9, 38, 52
10, 17076, Note_off_c, 9, 36, 64
10, 17076, Note_off_c, 9, 38, 64
10, 17088, Note_off_c, 9, 43, 64
10, 17280, Note_on_c, 9, 43, 83
10, 17280, Note_on_c, 9, 38, 58
10, 17316, Note_off_c, 9, 38, 64
10, 17388, Note_off_c, 9, 43, 64
10, 17640, Note_on_c, 9, 38, 36
10, 17676, Note_off_c, 9, 38, 64
10, 17700, Note_on_c, 9, 38, 41
10, 17736, Note_off_c, 9, 38, 64
10, 17760, Note_on_c, 9, 43, 83
10, 17760, Note_on_c, 9, 38, 58
10, 17796, Note_off_c, 9, 38, 64
10, 17808, Note_off_c, 9, 43, 64
10, 18000, Note_on_c, 9, 43, 83
10, 18000, Note_on_c, 9, 38, 52
10, 18032, Note_off_c, 9, 43, 64
10, 18032, Note_off_c, 9, 38, 64
10, 18080, Note_on_c, 9, 43, 83
10, 18080, Note_on_c, 9, 38, 58
10, 18112, Note_off_c, 9, 43, 64
10, 18112, Note_off_c, 9, 38, 64
10, 18160, Note_on_c, 9, 43, 83
10, 18160, Note_on_c, 9, 38, 52
10, 18192, Note_off_c, 9, 43, 64
10, 18192, Note_off_c, 9, 38, 64
10, 18240, Note_on_c, 9, 43, 83
10, 18240, Note_on_c, 9, 38, 58
10, 18276, Note_off_c, 9, 38, 64
10, 18288, Note_off_c, 9, 43, 64
10, 18480, Note_on_c, 9, 43, 83
10, 18480, Note_on_c, 9, 38, 52
10, 18512, Note_off_c, 9, 43, 64
10, 18512, Note_off_c, 9, 38, 64
10, 18560, Note_on_c, 9, 43, 83
10, 18560, Note_on_c, 9, 38, 58
10, 18592, Note_off_c, 9, 43, 64
10, 18592, Note_off_c, 9, 38, 64
10, 18640, Note_on_c, 9, 43, 83
10, 18640, Note_on_c, 9, 38, 52
10, 18672, Note_off_c, 9, 43, 64
10, 18672, Note_off_c, 9, 38, 64
10, 18720, Note_on_c, 9, 43, 91
10, 18720, Note_on_c, 9, 38, 64
10, 18752, Note_off_c, 9, 43, 64
10, 18752, Note_off_c, 9, 38, 64
10, 18800, Note_on_c, 9, 43, 83
10, 18800, Note_on_c, 9, 38, 52
10, 18832, Note_off_c, 9, 43, 64
10, 18832, Note_off_c, 9, 38, 64
10, 18880, Note_on_c, 9, 43, 83
10, 18880, Note_on_c, 9, 38, 59
10, 18912, Note_off_c, 9, 43, 64
10, 18912, Note_off_c, 9, 38, 64
10, 18960, Note_on_c, 9, 43, 83
10, 18960, Note_on_c, 9, 36, 52
10, 18960, Note_on_c, 9, 38, 52
10, 18996, Note_off_c, 9, 36, 64
10, 18996, Note_off_c, 9, 38, 64
10, 19008, Note_off_c, 9, 43, 64
10, 19200, Note_on_c, 9, 51, 83
10, 19200, Note_on_c, 9, 38, 58
10, 19236, Note_off_c, 9, 38, 64
10, 19308, Note_off_c, 9, 51, 64
10, 19560, Note_on_c, 9, 38, 36
10, 19596, Note_off_c, 9, 38, 64
10, 19620, Note_on_c, 9, 38, 41
10, 19656, Note_off_c, 9, 38, 64
10, 19680, Note_on_c, 9, 48, 83
10, 19680, Note_on_c, 9, 38, 58
10, 19716, Note_off_c, 9, 38, 64
10, 19788, Note_off_c, 9, 48, 64
10, 19920, Note_on_c, 9, 38, 52
10, 19952, Note_off_c, 9, 38, 64
10, 20000, Note_on_c, 9, 38, 58
10, 20032, Note_off_c, 9, 38, 64
10, 20080, Note_on_c, 9, 38, 52
10, 20112, Note_off_c, 9, 38, 64
10, 20160, Note_on_c, 9, 43, 83
10, 20160, Note_on_c, 9, 38, 58
10, 20196, Note_off_c, 9, 38, 64
10, 20208, Note_off_c, 9, 43, 64
10, 20400, Note_on_c, 9, 43, 83
10, 20400, Note_on_c, 9, 38, 52
10, 20432, Note_off_c, 9, 43, 64
10, 20432, Note_off_c, 9, 38, 64
10, 20480, Note_on_c, 9, 43, 83
10, 20480, Note_on_c, 9, 38, 58
10, 20512, Note_off_c, 9, 43, 64
10, 20512, Note_off_c, 9, 38, 64
10, 20560, Note_on_c, 9, 43, 83
10, 20560, Note_on_c, 9, 38, 52
10, 20592, Note_off_c, 9, 43, 64
10, 20592, Note_off_c, 9, 38, 64
10, 20640, Note_on_c, 9, 43, 91
10, 20640, Note_on_c, 9, 38, 64
10, 20672, Note_off_c, 9, 43, 64
10, 20672, Note_off_c, 9, 38, 64
10, 20720, Note_on_c, 9, 43, 83
10, 20720, Note_on_c, 9, 38, 52
10, 20752, Note_off_c, 9, 43, 64
10, 20752, Note_off_c, 9, 38, 64
10, 20800, Note_on_c, 9, 43, 83
10, 20800, Note_on_c, 9, 38, 59
10, 20832, Note_off_c, 9, 43, 64
10, 20832, Note_off_c, 9, 38, 64
10, 20880, Note_on_c, 9, 43, 83
10, 20880, Note_on_c, 9, 38, 52
10, 20880, Note_on_c, 9, 36, 52
10, 20916, Note_off_c, 9, 38, 64
10, 20916, Note_off_c, 9, 36, 64
10, 20928, Note_off_c, 9, 43, 64
10, 21120, Note_on_c, 9, 81, 52
10, 21120, Note_on_c, 9, 43, 83
10, 21120, Note_on_c, 9, 38, 58
10, 21156, Note_off_c, 9, 38, 64
10, 21228, Note_off_c, 9, 43, 64
10, 21480, Note_on_c, 9, 38, 36
10, 21516, Note_off_c, 9, 38, 64
10, 21540, Note_on_c, 9, 38, 41
10, 21576, Note_off_c, 9, 38, 64
10, 21600, Note_on_c, 9, 43, 83
10, 21600, Note_on_c, 9, 38, 58
10, 21636, Note_off_c, 9, 38, 64
10, 21648, Note_off_c, 9, 43, 64
10, 21840, Note_on_c, 9, 43, 83
10, 21840, Note_on_c, 9, 38, 52
10, 21872, Note_off_c, 9, 43, 64
10, 21872, Note_off_c, 9, 38, 64
10, 21920, Note_on_c, 9, 43, 83
10, 21920, Note_on_c, 9, 38, 58
10, 21952, Note_off_c, 9, 43, 64
10, 21952, Note_off_c, 9, 38, 64
10, 22000, Note_on_c, 9, 43, 83
10, 22000, Note_on_c, 9, 38, 52
10, 22032, Note_off_c, 9, 43, 64
10, 22032, Note_off_c, 9, 38, 64
10, 22080, Note_on_c, 9, 43, 83
10, 22080, Note_on_c, 9, 38, 58
10, 22116, Note_off_c, 9, 38, 64
10, 22128, Note_off_c, 9, 43, 64
10, 22320, Note_on_c, 9, 43, 83
10, 22320, Note_on_c, 9, 38, 52
10, 22352, Note_off_c, 9, 43, 64
10, 22352, Note_off_c, 9, 38, 64
10, 22400, Note_on_c, 9, 43, 83
10, 22400, Note_on_c, 9, 38, 58
10, 22432, Note_off_c, 9, 43, 64
10, 22432, Note_off_c, 9, 38, 64
10, 22480, Note_on_c, 9, 43, 83
10, 22480, Note_on_c, 9, 38, 52
10, 22512, Note_off_c, 9, 43, 64
10, 22512, Note_off_c, 9, 38, 64
10, 22560, Note_on_c, 9, 43, 91
10, 22560, Note_on_c, 9, 38, 64
10, 22592, Note_off_c, 9, 43, 64
10, 22592, Note_off_c, 9, 38, 64
10, 22640, Note_on_c, 9, 43, 83
10, 22640, Note_on_c, 9, 38, 52
10, 22672, Note_off_c, 9, 43, 64
10, 22672, Note_off_c, 9, 38, 64
10, 22720, Note_on_c, 9, 43, 83
10, 22720, Note_on_c, 9, 38, 59
10, 22752, Note_off_c, 9, 43, 64
10, 22752, Note_off_c, 9, 38, 64
10, 22800, Note_on_c, 9, 43, 83
10, 22800, Note_on_c, 9, 38, 52
10, 22836, Note_off_c, 9, 38, 64
10, 22848, Note_off_c, 9, 43, 64
10, 22908, Note_off_c, 9, 81, 64
10, 23040, Note_on_c, 9, 38, 58
10, 23040, Note_on_c, 9, 49, 83
10, 23076, Note_off_c, 9, 38, 64
10, 23400, Note_on_c, 9, 38, 36
10, 23436, Note_off_c, 9, 49, 64
10, 23436, Note_off_c, 9, 38, 64
10, 23460, Note_on_c, 9, 38, 41
10, 23496, Note_off_c, 9, 38, 64
10, 23520, Note_on_c, 9, 38, 58
10, 23556, Note_off_c, 9, 38, 64
10, 23760, Note_on_c, 9, 38, 52
10, 23792, Note_off_c, 9, 38, 64
10, 23840, Note_on_c, 9, 38, 58
10, 23872, Note_off_c, 9, 38, 64
10, 23920, Note_on_c, 9, 38, 52
10, 23952, Note_off_c, 9, 38, 64
10, 24000, Note_on_c, 9, 38, 58
10, 24036, Note_off_c, 9, 38, 64
10, 24240, Note_on_c, 9, 38, 52
10, 24272, Note_off_c, 9, 38, 64
10, 24320, Note_on_c, 9, 38, 58
10, 24352, Note_off_c, 9, 38, 64
10, 24400, Note_on_c, 9, 38, 52
10, 24432, Note_off_c, 9, 38, 64
10, 24480, Note_on_c, 9, 38, 64
10, 24512, Note_off_c, 9, 38, 64
10, 24560, Note_on_c, 9, 38, 52
10, 24592, Note_off_c, 9, 38, 64
10, 24640, Note_on_c, 9, 38, 59
10, 24672, Note_off_c, 9, 38, 64
10, 24720, Note_on_c, 9, 38, 52
10, 24756, Note_off_c, 9, 38, 64
10, 24960, Note_on_c, 9, 38, 58
10, 24996, Note_off_c, 9, 38, 64
10, 25320, Note_on_c, 9, 38, 36
10, 25356, Note_off_c, 9, 38, 64
10, 25380, Note_on_c, 9, 38, 41
10, 25416, Note_off_c, 9, 38, 64
10, 25440, Note_on_c, 9, 38, 58
10, 25476, Note_off_c, 9, 38, 64
10, 25680, Note_on_c, 9, 38, 52
10, 25712, Note_off_c, 9, 38, 64
10, 25760, Note_on_c, 9, 38, 58
10, 25792, Note_off_c, 9, 38, 64
10, 25840, Note_on_c, 9, 38, 52
10, 25872, Note_off_c, 9, 38, 64
10, 25920, Note_on_c, 9, 38, 58
10, 25956, Note_off_c, 9, 38, 64
10, 26280, Note_on_c, 9, 38, 36
10, 26316, Note_off_c, 9, 38, 64
10, 26340, Note_on_c, 9, 38, 41
10, 26376, Note_off_c, 9, 38, 64
10, 26400, Note_on_c, 9, 38, 58
10, 26436, Note_off_c, 9, 38, 64
10, 26640, Note_on_c, 9, 38, 52
10, 26672, Note_off_c, 9, 38, 64
10, 26720, Note_on_c, 9, 38, 58
10, 26752, Note_off_c, 9, 38, 64
10, 26800, Note_on_c, 9, 38, 52
10, 26832, Note_off_c, 9, 38, 64
10, 26880, Note_on_c, 9, 43, 83
10, 26880, Note_on_c, 9, 38, 58
10, 26916, Note_off_c, 9, 38, 64
10, 26988, Note_off_c, 9, 43, 64
10, 27240, Note_on_c, 9, 38, 36
10, 27276, Note_off_c, 9, 38, 64
10, 27300, Note_on_c, 9, 38, 41
10, 27336, Note_off_c, 9, 38, 64
10, 27360, Note_on_c, 9, 38, 58
10, 27396, Note_off_c, 9, 38, 64
10, 27600, Note_on_c, 9, 38, 52
10, 27632, Note_off_c, 9, 38, 64
10, 27680, Note_on_c, 9, 38, 58
10, 27712, Note_off_c, 9, 38, 64
10, 27760, Note_on_c, 9, 38, 52
10, 27792, Note_off_c, 9, 38, 64
10, 27840, Note_on_c, 9, 43, 83
10, 27840, Note_on_c, 9, 38, 58
10, 27876, Note_off_c, 9, 38, 64
10, 27888, Note_off_c, 9, 43, 64
10, 28080, Note_on_c, 9, 43, 83
10, 28080, Note_on_c, 9, 38, 52
10, 28112, Note_off_c, 9, 43, 64
10, 28112, Note_off_c, 9, 38, 64
10, 28160, Note_on_c, 9, 43, 83
10, 28160, Note_on_c, 9, 38, 58
10, 28192, Note_off_c, 9, 43, 64
10, 28192, Note_off_c, 9, 38, 64
10, 28240, Note_on_c, 9, 43, 83
10, 28240, Note_on_c, 9, 38, 52
10, 28272, Note_off_c, 9, 43, 64
10, 28272, Note_off_c, 9, 38, 64
10, 28320, Note_on_c, 9, 43, 91
10, 28320, Note_on_c, 9, 38, 64
10, 28352, Note_off_c, 9, 43, 64
10, 28352, Note_off_c, 9, 38, 64
10, 28400, Note_on_c, 9, 43, 83
10, 28400, Note_on_c, 9, 38, 52
10, 28432, Note_off_c, 9, 43, 64
10, 28432, Note_off_c, 9, 38, 64
10, 28480, Note_on_c, 9, 43, 83
10, 28480, Note_on_c, 9, 38, 59
10, 28512, Note_off_c, 9, 43, 64
10, 28512, Note_off_c, 9, 38, 64
10, 28560, Note_on_c, 9, 43, 83
10, 28560, Note_on_c, 9, 38, 52
10, 28596, Note_off_c, 9, 38, 64
10, 28608, Note_off_c, 9, 43, 64
10, 28800, Note_on_c, 9, 59, 118
10, 28800, Note_on_c, 9, 51, 83
10, 28800, Note_on_c, 9, 38, 58
10, 28836, Note_off_c, 9, 38, 64
10, 28908, Note_off_c, 9, 51, 64
10, 29160, Note_on_c, 9, 38, 36
10, 29196, Note_off_c, 9, 38, 64
10, 29220, Note_on_c, 9, 38, 41
10, 29256, Note_off_c, 9, 38, 64
10, 29280, Note_on_c, 9, 38, 58
10, 29316, Note_off_c, 9, 38, 64
10, 29520, Note_on_c, 9, 38, 52
10, 29552, Note_off_c, 9, 38, 64
10, 29600, Note_on_c, 9, 38, 58
10, 29632, Note_off_c, 9, 38, 64
10, 29680, Note_on_c, 9, 38, 52
10, 29712, Note_off_c, 9, 38, 64
10, 29760, Note_on_c, 9, 43, 83
10, 29760, Note_on_c, 9, 38, 58
10, 29796, Note_off_c, 9, 38, 64
10, 29868, Note_off_c, 9, 43, 64
10, 30000, Note_on_c, 9, 38, 52
10, 30032, Note_off_c, 9, 38, 64
10, 30080, Note_on_c, 9, 38, 58
10, 30112, Note_off_c, 9, 38, 64
10, 30160, Note_on_c, 9, 38, 52
10, 30192, Note_off_c, 9, 38, 64
10, 30240, Note_on_c, 9, 38, 64
10, 30272, Note_off_c, 9, 38, 64
10, 30320, Note_on_c, 9, 38, 52
10, 30352, Note_off_c, 9, 38, 64
10, 30400, Note_on_c, 9, 38, 59
10, 30432, Note_off_c, 9, 38, 64
10, 30480, Note_on_c, 9, 38, 52
10, 30516, Note_off_c, 9, 38, 64
10, 30564, Note_off_c, 9, 59, 64
10, 30720, Note_on_c, 9, 59, 118
10, 30720, Note_on_c, 9, 49, 83
10, 30720, Note_on_c, 9, 38, 58
10, 30756, Note_off_c, 9, 38, 64
10, 30828, Note_off_c, 9, 49, 64
10, 31080, Note_on_c, 9, 38, 36
10, 31116, Note_off_c, 9, 38, 64
10, 31140, Note_on_c, 9, 38, 41
10, 31176, Note_off_c, 9, 38, 64
10, 31200, Note_on_c, 9, 38, 58
10, 31236, Note_off_c, 9, 38, 64
10, 31440, Note_on_c, 9, 38, 52
10, 31472, Note_off_c, 9, 38, 64
10, 31520, Note_on_c, 9, 38, 58
10, 31552, Note_off_c, 9, 38, 64
10, 31600, Note_on_c, 9, 38, 52
10, 31632, Note_off_c, 9, 38, 64
10, 31680, Note_on_c, 9, 38, 58
10, 31716, Note_off_c, 9, 38, 64
10, 31920, Note_on_c, 9, 38, 52
10, 31952, Note_off_c, 9, 38, 64
10, 32000, Note_on_c, 9, 38, 58
10, 32032, Note_off_c, 9, 38, 64
10, 32080, Note_on_c, 9, 38, 52
10, 32112, Note_off_c, 9, 38, 64
10, 32160, Note_on_c, 9, 38, 64
10, 32192, Note_off_c, 9, 38, 64
10, 32240, Note_on_c, 9, 38, 52
10, 32272, Note_off_c, 9, 38, 64
10, 32320, Note_on_c, 9, 38, 59
10, 32352, Note_off_c, 9, 38, 64
10, 32400, Note_on_c, 9, 38, 52
10, 32436, Note_off_c, 9, 38, 64
10, 32484, Note_off_c, 9, 59, 64
10, 32640, Note_on_c, 9, 59, 118
10, 32640, Note_on_c, 9, 38, 58
10, 32676, Note_off_c, 9, 38, 64
10, 33000, Note_on_c, 9, 38, 36
10, 33036, Note_off_c, 9, 38, 64
10, 33060, Note_on_c, 9, 38, 41
10, 33096, Note_off_c, 9, 38, 64
10, 33120, Note_on_c, 9, 38, 58
10, 33156, Note_off_c, 9, 38, 64
10, 33360, Note_on_c, 9, 38, 52
10, 33392, Note_off_c, 9, 38, 64
10, 33440, Note_on_c, 9, 38, 58
10, 33472, Note_off_c, 9, 38, 64
10, 33520, Note_on_c, 9, 38, 52
10, 33552, Note_off_c, 9, 38, 64
10, 33600, Note_on_c, 9, 38, 58
10, 33636, Note_off_c, 9, 38, 64
10, 33840, Note_on_c, 9, 38, 52
10, 33872, Note_off_c, 9, 38, 64
10, 33920, Note_on_c, 9, 38, 58
10, 33952, Note_off_c, 9, 38, 64
10, 34000, Note_on_c, 9, 38, 52
10, 34032, Note_off_c, 9, 38, 64
10, 34080, Note_on_c, 9, 48, 97
10, 34080, Note_on_c, 9, 38, 64
10, 34112, Note_off_c, 9, 38, 64
10, 34160, Note_on_c, 9, 38, 52
10, 34192, Note_off_c, 9, 38, 64
10, 34212, Note_off_c, 9, 48, 64
10, 34240, Note_on_c, 9, 38, 59
10, 34272, Note_off_c, 9, 38, 64
10, 34320, Note_on_c, 9, 38, 52
10, 34356, Note_off_c, 9, 38, 64
10, 34404, Note_off_c, 9, 59, 64
10, 34560, Note_on_c, 9, 59, 118
10, 34560, Note_on_c, 9, 43, 83
10, 34560, Note_on_c, 9, 38, 58
10, 34596, Note_off_c, 9, 38, 64
10, 34668, Note_off_c, 9, 43, 64
10, 34920, Note_on_c, 9, 38, 36
10, 34956, Note_off_c, 9, 38, 64
10, 34980, Note_on_c, 9, 38, 41
10, 35016, Note_off_c, 9, 38, 64
10, 35040, Note_on_c, 9, 48, 83
10, 35040, Note_on_c, 9, 38, 58
10, 35076, Note_off_c, 9, 38, 64
10, 35148, Note_off_c, 9, 48, 64
10, 35280, Note_on_c, 9, 38, 52
10, 35312, Note_off_c, 9, 38, 64
10, 35360, Note_on_c, 9, 38, 58
10, 35392, Note_off_c, 9, 38, 64
10, 35412, Note_off_c, 9, 59, 64
10, 35440, Note_on_c, 9, 38, 52
10, 35472, Note_off_c, 9, 38, 64
10, 35520, Note_on_c, 9, 59, 118
10, 35520, Note_on_c, 9, 43, 83
10, 35520, Note_on_c, 9, 38, 58
10, 35556, Note_off_c, 9, 38, 64
10, 35628, Note_off_c, 9, 43, 64
10, 35760, Note_on_c, 9, 38, 52
10, 35792, Note_off_c, 9, 38, 64
10, 35840, Note_on_c, 9, 38, 58
10, 35872, Note_off_c, 9, 38, 64
10, 35920, Note_on_c, 9, 38, 52
10, 35940, Note_off_c, 9, 59, 64
10, 35952, Note_off_c, 9, 38, 64
10, 36000, Note_on_c, 9, 59, 118
10, 36000, Note_on_c, 9, 43, 91
10, 36000, Note_on_c, 9, 38, 64
10, 36032, Note_off_c, 9, 43, 64
10, 36032, Note_off_c, 9, 38, 64
10, 36080, Note_on_c, 9, 43, 83
10, 36080, Note_on_c, 9, 38, 52
10, 36112, Note_off_c, 9, 43, 64
10, 36112, Note_off_c, 9, 38, 64
10, 36160, Note_on_c, 9, 43, 83
10, 36160, Note_on_c, 9, 38, 59
10, 36192, Note_off_c, 9, 43, 64
10, 36192, Note_off_c, 9, 38, 64
10, 36240, Note_on_c, 9, 43, 83
10, 36240, Note_on_c, 9, 38, 52
10, 36276, Note_off_c, 9, 38, 64
10, 36288, Note_off_c, 9, 43, 64
10, 36420, Note_off_c, 9, 59, 64
10, 36480, Note_on_c, 9, 38, 58
10, 36516, Note_off_c, 9, 38, 64
10, 36840, Note_on_c, 9, 38, 36
10, 36876, Note_off_c, 9, 38, 64
10, 36900, Note_on_c, 9, 38, 41
10, 36936, Note_off_c, 9, 38, 64
10, 36960, Note_on_c, 9, 38, 58
10, 36996, Note_off_c, 9, 38, 64
10, 37200, Note_on_c, 9, 38, 52
10, 37232, Note_off_c, 9, 38, 64
10, 37280, Note_on_c, 9, 38, 58
10, 37312, Note_off_c, 9, 38, 64
10, 37360, Note_on_c, 9, 38, 52
10, 37392, Note_off_c, 9, 38, 64
10, 37440, Note_on_c, 9, 38, 58
10, 37476, Note_off_c, 9, 38, 64
10, 37680, Note_on_c, 9, 38, 52
10, 37712, Note_off_c, 9, 38, 64
10, 37760, Note_on_c, 9, 38, 58
10, 37792, Note_off_c, 9, 38, 64
10, 37840, Note_on_c, 9, 38, 52
10, 37872, Note_off_c, 9, 38, 64
10, 37920, Note_on_c, 9, 38, 64
10, 37920, Note_on_c, 9, 59, 109
10, 37952, Note_off_c, 9, 38, 64
10, 37976, Note_off_c, 9, 59, 64
10, 38000, Note_on_c, 9, 38, 52
10, 38032, Note_off_c, 9, 38, 64
10, 38080, Note_on_c, 9, 38, 59
10, 38112, Note_off_c, 9, 38, 64
10, 38160, Note_on_c, 9, 38, 52
10, 38160, Note_on_c, 9, 36, 52
10, 38196, Note_off_c, 9, 38, 64
10, 38196, Note_off_c, 9, 36, 64
10, 38400, Note_on_c, 9, 38, 58
10, 38436, Note_off_c, 9, 38, 64
10, 38760, Note_on_c, 9, 38, 36
10, 38796, Note_off_c, 9, 38, 64
10, 38820, Note_on_c, 9, 38, 41
10, 38856, Note_off_c, 9, 38, 64
10, 38880, Note_on_c, 9, 38, 58
10, 38916, Note_off_c, 9, 38, 64
10, 39120, Note_on_c, 9, 38, 52
10, 39152, Note_off_c, 9, 38, 64
10, 39200, Note_on_c, 9, 38, 58
10, 39232, Note_off_c, 9, 38, 64
10, 39280, Note_on_c, 9, 38, 52
10, 39312, Note_off_c, 9, 38, 64
10, 39360, Note_on_c, 9, 38, 58
10, 39396, Note_off_c, 9, 38, 64
10, 39600, Note_on_c, 9, 38, 52
10, 39632, Note_off_c, 9, 38, 64
10, 39680, Note_on_c, 9, 38, 58
10, 39712, Note_off_c, 9, 38, 64
10, 39760, Note_on_c, 9, 38, 52
10, 39792, Note_off_c, 9, 38, 64
10, 39840, Note_on_c, 9, 38, 64
10, 39840, Note_on_c, 9, 59, 109
10, 39872, Note_off_c, 9, 38, 64
10, 39896, Note_off_c, 9, 59, 64
10, 39920, Note_on_c, 9, 38, 52
10, 39952, Note_off_c, 9, 38, 64
10, 40000, Note_on_c, 9, 38, 59
10, 40032, Note_off_c, 9, 38, 64
10, 40080, Note_on_c, 9, 36, 52
10, 40080, Note_on_c, 9, 38, 52
10, 40116, Note_off_c, 9, 36, 64
10, 40116, Note_off_c, 9, 38, 64
10, 40320, Note_on_c, 9, 38, 58
10, 40356, Note_off_c, 9, 38, 64
10, 40680, Note_on_c, 9, 38, 36
10, 40716, Note_off_c, 9, 38, 64
10, 40740, Note_on_c, 9, 38, 41
10, 40776, Note_off_c, 9, 38, 64
10, 40800, Note_on_c, 9, 38, 58
10, 40836, Note_off_c, 9, 38, 64
10, 41040, Note_on_c, 9, 38, 52
10, 41072, Note_off_c, 9, 38, 64
10, 41120, Note_on_c, 9, 38, 58
10, 41152, Note_off_c, 9, 38, 64
10, 41200, Note_on_c, 9, 38, 52
10, 41232, Note_off_c, 9, 38, 64
10, 41280, Note_on_c, 9, 38, 58
10, 41316, Note_off_c, 9, 38, 64
10, 41520, Note_on_c, 9, 38, 52
10, 41552, Note_off_c, 9, 38, 64
10, 41600, Note_on_c, 9, 38, 58
10, 41632, Note_off_c, 9, 38, 64
10, 41680, Note_on_c, 9, 38, 52
10, 41712, Note_off_c, 9, 38, 64
10, 41760, Note_on_c, 9, 38, 64
10, 41760, Note_on_c, 9, 59, 109
10, 41792, Note_off_c, 9, 38, 64
10, 41816, Note_off_c, 9, 59, 64
10, 41840, Note_on_c, 9, 38, 52
10, 41872, Note_off_c, 9, 38, 64
10, 41920, Note_on_c, 9, 38, 59
10, 41952, Note_off_c, 9, 38, 64
10, 42000, Note_on_c, 9, 36, 52
10, 42000, Note_on_c, 9, 38, 52
10, 42036, Note_off_c, 9, 36, 64
10, 42036, Note_off_c, 9, 38, 64
10, 42240, Note_on_c, 9, 38, 58
10, 42276, Note_off_c, 9, 38, 64
10, 42720, Note_on_c, 9, 38, 64
10, 42720, Note_on_c, 9, 36, 64
10, 42752, Note_off_c, 9, 38, 64
10, 42752, Note_off_c, 9, 36, 64
10, 42800, Note_on_c, 9, 38, 58
10, 42832, Note_off_c, 9, 38, 64
10, 42880, Note_on_c, 9, 38, 61
10, 42912, Note_off_c, 9, 38, 64
10, 42960, Note_on_c, 9, 38, 71
10, 42996, Note_off_c, 9, 38, 64
10, 43200, Note_on_c, 9, 38, 71
10, 43200, Note_on_c, 9, 43, 83
10, 43236, Note_off_c, 9, 38, 64
10, 43248, Note_off_c, 9, 43, 64
10, 43440, Note_on_c, 9, 38, 64
10, 43440, Note_on_c, 9, 43, 83
10, 43472, Note_off_c, 9, 38, 64
10, 43472, Note_off_c, 9, 43, 64
10, 43520, Note_on_c, 9, 38, 71
10, 43520, Note_on_c, 9, 43, 87
10, 43552, Note_off_c, 9, 38, 64
10, 43552, Note_off_c, 9, 43, 64
10, 43600, Note_on_c, 9, 38, 64
10, 43600, Note_on_c, 9, 43, 89
10, 43632, Note_off_c, 9, 38, 64
10, 43632, Note_off_c, 9, 43, 64
10, 43680, Note_on_c, 9, 38, 77
10, 43680, Note_on_c, 9, 43, 97
10, 43712, Note_off_c, 9, 38, 64
10, 43712, Note_off_c, 9, 43, 64
10, 43760, Note_on_c, 9, 38, 71
10, 43760, Note_on_c, 9, 43, 91
10, 43792, Note_off_c, 9, 38, 64
10, 43792, Note_off_c, 9, 43, 64
10, 43840, Note_on_c, 9, 38, 64
10, 43840, Note_on_c, 9, 43, 91
10, 43872, Note_off_c, 9, 38, 64
10, 43872, Note_off_c, 9, 43, 64
10, 43920, Note_on_c, 9, 43, 91
10, 43920, Note_on_c, 9, 38, 83
10, 43920, Note_on_c, 9, 36, 83
10, 43956, Note_off_c, 9, 38, 64
10, 43956, Note_off_c, 9, 36, 64
10, 43968, Note_off_c, 9, 43, 64
10, 44160, Note_on_c, 9, 81, 26
10, 45756, Note_off_c, 9, 81, 64
10, 46080, Note_on_c, 9, 81, 26
10, 47676, Note_off_c, 9, 81, 64
10, 48000, Note_on_c, 9, 81, 26
10, 49596, Note_off_c, 9, 81, 64
10, 49920, Note_on_c, 9, 81, 26
10, 51516, Note_off_c, 9, 81, 64
10, 51840, Note_on_c, 9, 43, 58
10, 51948, Note_off_c, 9, 43, 64
10, 52800, Note_on_c, 9, 43, 58
10, 52908, Note_off_c, 9, 43, 64
10, 53760, Note_on_c, 9, 43, 58
10, 53868, Note_off_c, 9, 43, 64
10, 54720, Note_on_c, 9, 43, 58
10, 54828, Note_off_c, 9, 43, 64
10, 55680, Note_on_c, 9, 44, 58
10, 55788, Note_off_c, 9, 44, 64
10, 56640, Note_on_c, 9, 44, 58
10, 56748, Note_off_c, 9, 44, 64
10, 57600, Note_on_c, 9, 44, 58
10, 57708, Note_off_c, 9, 44, 64
10, 58560, Note_on_c, 9, 51, 21
10, 58596, Note_off_c, 9, 51, 64
10, 58620, Note_on_c, 9, 51, 21
10, 58656, Note_off_c, 9, 51, 64
10, 58680, Note_on_c, 9, 51, 22
10, 58716, Note_off_c, 9, 51, 64
10, 58740, Note_on_c, 9, 51, 22
10, 58776, Note_off_c, 9, 51, 64
10, 58800, Note_on_c, 9, 51, 23
10, 58836, Note_off_c, 9, 51, 64
10, 58860, Note_on_c, 9, 51, 23
10, 58896, Note_off_c, 9, 51, 64
10, 58920, Note_on_c, 9, 51, 24
10, 58956, Note_off_c, 9, 51, 64
10, 58980, Note_on_c, 9, 51, 26
10, 59016, Note_off_c, 9, 51, 64
10, 59040, Note_on_c, 9, 51, 27
10, 59076, Note_off_c, 9, 51, 64
10, 59100, Note_on_c, 9, 51, 28
10, 59136, Note_off_c, 9, 51, 64
10, 59160, Note_on_c, 9, 51, 31
10, 59196, Note_off_c, 9, 51, 64
10, 59220, Note_on_c, 9, 51, 33
10, 59256, Note_off_c, 9, 51, 64
10, 59280, Note_on_c, 9, 51, 36
10, 59316, Note_off_c, 9, 51, 64
10, 59340, Note_on_c, 9, 51, 39
10, 59376, Note_off_c, 9, 51, 64
10, 59400, Note_on_c, 9, 51, 42
10, 59436, Note_off_c, 9, 51, 64
10, 59460, Note_on_c, 9, 51, 53
10, 59496, Note_off_c, 9, 51, 64
10, 59520, Note_on_c, 9, 45, 64
10, 59628, Note_off_c, 9, 45, 64
10, 62400, Note_on_c, 9, 45, 58
10, 62844, Note_off_c, 9, 45, 64
10, 63360, Note_on_c, 9, 45, 61
10, 63804, Note_off_c, 9, 45, 64
10, 64320, Note_on_c, 9, 45, 64
10, 64764, Note_off_c, 9, 45, 64
10, 65280, Note_on_c, 9, 45, 58
10, 65724, Note_off_c, 9, 45, 64
10, 66240, Note_on_c, 9, 45, 53
10, 66348, Note_off_c, 9, 45, 64
10, 69120, Note_on_c, 9, 45, 58
10, 69564, Note_off_c, 9, 45, 64
10, 70080, Note_on_c, 9, 45, 61
10, 70524, Note_off_c, 9, 45, 64
10, 71040, Note_on_c, 9, 45, 64
10, 71484, Note_off_c, 9, 45, 64
10, 72000, Note_on_c, 9, 45, 58
10, 72444, Note_off_c, 9, 45, 64
10, 72960, Note_on_c, 9, 46, 77
10, 73788, Note_off_c, 9, 46, 64
10, 76320, Note_on_c, 9, 52, 71
10, 76320, Note_on_c, 9, 38, 41
10, 76374, Note_off_c, 9, 52, 64
10, 76374, Note_off_c, 9, 38, 64
10, 76536, Control_c, 9, 11, 104
10, 76560, Note_on_c, 9, 38, 26
10, 76560, Note_on_c, 9, 52, 64
10, 76584, Control_c, 9, 11, 108
10, 76586, Note_off_c, 9, 52, 64
10, 76600, Note_off_c, 9, 38, 64
10, 76600, Note_on_c, 9, 38, 27
10, 76632, Control_c, 9, 11, 113
10, 76640, Note_off_c, 9, 38, 64
10, 76640, Note_on_c, 9, 38, 29
10, 76640, Note_on_c, 9, 52, 69
10, 76666, Note_off_c, 9, 52, 64
10, 76680, Note_off_c, 9, 38, 64
10, 76680, Control_c, 9, 11, 116
10, 76680, Note_on_c, 9, 38, 31
10, 76704, Control_c, 9, 11, 119
10, 76720, Note_off_c, 9, 38, 64
10, 76720, Note_on_c, 9, 38, 36
10, 76720, Note_on_c, 9, 52, 72
10, 76746, Note_off_c, 9, 52, 64
10, 76752, Control_c, 9, 11, 124
10, 76760, Note_off_c, 9, 38, 64
10, 76760, Note_on_c, 9, 38, 42
10, 76776, Control_c, 9, 11, 127
10, 76800, Note_off_c, 9, 38, 64
10, 76800, Note_on_c, 9, 38, 59
10, 76800, Note_on_c, 9, 52, 76
10, 76866, Note_off_c, 9, 52, 64
10, 76884, Note_off_c, 9, 38, 64
10, 77280, Note_on_c, 9, 81, 36
10, 77640, Note_on_c, 9, 38, 31
10, 77676, Note_off_c, 9, 38, 64
10, 77700, Note_on_c, 9, 38, 36
10, 77724, Note_off_c, 9, 81, 64
10, 77736, Note_off_c, 9, 38, 64
10, 77760, Note_on_c, 9, 38, 52
10, 77796, Note_off_c, 9, 38, 64
10, 78240, Note_on_c, 9, 81, 36
10, 78600, Note_on_c, 9, 38, 31
10, 78636, Note_off_c, 9, 38, 64
10, 78660, Note_on_c, 9, 38, 36
10, 78684, Note_off_c, 9, 81, 64
10, 78696, Note_off_c, 9, 38, 64
10, 78720, Note_on_c, 9, 38, 52
10, 78756, Note_off_c, 9, 38, 64
10, 84000, Note_on_c, 9, 46, 71
10, 84000, Note_on_c, 9, 38, 41
10, 84054, Note_off_c, 9, 46, 64
10, 84054, Note_off_c, 9, 38, 64
10, 84216, Control_c, 9, 11, 104
10, 84240, Note_on_c, 9, 38, 26
10, 84240, Note_on_c, 9, 46, 64
10, 84264, Control_c, 9, 11, 108
10, 84266, Note_off_c, 9, 46, 64
10, 84280, Note_off_c, 9, 38, 64
10, 84280, Note_on_c, 9, 38, 27
10, 84312, Control_c, 9, 11, 113
10, 84320, Note_off_c, 9, 38, 64
10, 84320, Note_on_c, 9, 38, 29
10, 84320, Note_on_c, 9, 46, 69
10, 84346, Note_off_c, 9, 46, 64
10, 84360, Note_off_c, 9, 38, 64
10, 84360, Control_c, 9, 11, 116
10, 84360, Note_on_c, 9, 38, 31
10, 84384, Control_c, 9, 11, 119
10, 84400, Note_off_c, 9, 38, 64
10, 84400, Note_on_c, 9, 38, 36
10, 84400, Note_on_c, 9, 46, 72
10, 84426, Note_off_c, 9, 46, 64
10, 84432, Control_c, 9, 11, 124
10, 84440, Note_off_c, 9, 38, 64
10, 84440, Note_on_c, 9, 38, 42
10, 84456, Control_c, 9, 11, 127
10, 84480, Note_off_c, 9, 38, 64
10, 84480, Note_on_c, 9, 38, 59
10, 84480, Note_on_c, 9, 46, 76
10, 84546, Note_off_c, 9, 46, 64
10, 84564, Note_off_c, 9, 38, 64
10, 85440, Note_on_c, 9, 46, 67
10, 85494, Note_off_c, 9, 46, 64
10, 85920, Note_on_c, 9, 46, 71
10, 85974, Note_off_c, 9, 46, 64
10, 86136, Control_c, 9, 11, 104
10, 86160, Note_on_c, 9, 46, 64
10, 86184, Control_c, 9, 11, 108
10, 86186, Note_off_c, 9, 46, 64
10, 86232, Control_c, 9, 11, 113
10, 86240, Note_on_c, 9, 46, 69
10, 86266, Note_off_c, 9, 46, 64
10, 86280, Control_c, 9, 11, 116
10, 86304, Control_c, 9, 11, 119
10, 86320, Note_on_c, 9, 46, 72
10, 86346, Note_off_c, 9, 46, 64
10, 86352, Control_c, 9, 11, 124
10, 86376, Control_c, 9, 11, 127
10, 86400, Note_on_c, 9, 47, 83
10, 86400, Note_on_c, 9, 81, 46
10, 86400, Note_on_c, 9, 38, 58
10, 86436, Note_off_c, 9, 38, 64
10, 86760, Note_on_c, 9, 38, 36
10, 86796, Note_off_c, 9, 38, 64
10, 86820, Note_on_c, 9, 38, 41
10, 86856, Note_off_c, 9, 38, 64
10, 86880, Note_on_c, 9, 38, 58
10, 86916, Note_off_c, 9, 38, 64
10, 87120, Note_on_c, 9, 38, 52
10, 87152, Note_off_c, 9, 38, 64
10, 87200, Note_on_c, 9, 38, 58
10, 87232, Note_off_c, 9, 38, 64
10, 87280, Note_on_c, 9, 38, 52
10, 87306, Note_off_c, 9, 47, 64
10, 87306, Note_off_c, 9, 81, 64
10, 87312, Note_off_c, 9, 38, 64
10, 87360, Note_on_c, 9, 38, 58
10, 87396, Note_off_c, 9, 38, 64
10, 87600, Note_on_c, 9, 38, 52
10, 87632, Note_off_c, 9, 38, 64
10, 87680, Note_on_c, 9, 38, 58
10, 87712, Note_off_c, 9, 38, 64
10, 87760, Note_on_c, 9, 38, 52
10, 87792, Note_off_c, 9, 38, 64
10, 87840, Note_on_c, 9, 59, 103
10, 87840, Note_on_c, 9, 38, 64
10, 87840, Note_on_c, 9, 47, 97
10, 87866, Note_off_c, 9, 47, 64
10, 87872, Note_off_c, 9, 38, 64
10, 87906, Note_off_c, 9, 59, 64
10, 87920, Note_on_c, 9, 38, 52
10, 87920, Note_on_c, 9, 47, 72
10, 87946, Note_off_c, 9, 47, 64
10, 87952, Note_off_c, 9, 38, 64
10, 88000, Note_on_c, 9, 38, 59
10, 88000, Note_on_c, 9, 47, 77
10, 88026, Note_off_c, 9, 47, 64
10, 88032, Note_off_c, 9, 38, 64
10, 88080, Note_on_c, 9, 38, 64
10, 88080, Note_on_c, 9, 36, 64
10, 88080, Note_on_c, 9, 47, 82
10, 88116, Note_off_c, 9, 38, 64
10, 88116, Note_off_c, 9, 36, 64
10, 88134, Note_off_c, 9, 47, 64
10, 88320, Note_on_c, 9, 38, 58
10, 88320, Note_on_c, 9, 47, 83
10, 88356, Note_off_c, 9, 38, 64
10, 88680, Note_on_c, 9, 38, 36
10, 88716, Note_off_c, 9, 38, 64
10, 88740, Note_on_c, 9, 38, 41
10, 88776, Note_off_c, 9, 38, 64
10, 88800, Note_on_c, 9, 38, 58
10, 88836, Note_off_c, 9, 38, 64
10, 89040, Note_on_c, 9, 38, 52
10, 89072, Note_off_c, 9, 38, 64
10, 89120, Note_on_c, 9, 38, 58
10, 89152, Note_off_c, 9, 38, 64
10, 89200, Note_on_c, 9, 38, 52
10, 89226, Note_off_c, 9, 47, 64
10, 89232, Note_off_c, 9, 38, 64
10, 89280, Note_on_c, 9, 38, 58
10, 89316, Note_off_c, 9, 38, 64
10, 89520, Note_on_c, 9, 38, 52
10, 89552, Note_off_c, 9, 38, 64
10, 89600, Note_on_c, 9, 38, 58
10, 89632, Note_off_c, 9, 38, 64
10, 89680, Note_on_c, 9, 38, 52
10, 89712, Note_off_c, 9, 38, 64
10, 89760, Note_on_c, 9, 59, 103
10, 89760, Note_on_c, 9, 38, 64
10, 89760, Note_on_c, 9, 47, 97
10, 89786, Note_off_c, 9, 47, 64
10, 89792, Note_off_c, 9, 38, 64
10, 89826, Note_off_c, 9, 59, 64
10, 89840, Note_on_c, 9, 38, 52
10, 89840, Note_on_c, 9, 47, 72
10, 89866, Note_off_c, 9, 47, 64
10, 89872, Note_off_c, 9, 38, 64
10, 89920, Note_on_c, 9, 38, 59
10, 89920, Note_on_c, 9, 47, 77
10, 89946, Note_off_c, 9, 47, 64
10, 89952, Note_off_c, 9, 38, 64
10, 90000, Note_on_c, 9, 36, 64
10, 90000, Note_on_c, 9, 38, 64
10, 90000, Note_on_c, 9, 47, 82
10, 90036, Note_off_c, 9, 36, 64
10, 90036, Note_off_c, 9, 38, 64
10, 90054, Note_off_c, 9, 47, 64
10, 90240, Note_on_c, 9, 38, 64
10, 90240, Note_on_c, 9, 48, 83
10, 90240, Note_on_c, 9, 81, 46
10, 90276, Note_off_c, 9, 38, 64
10, 90720, Note_on_c, 9, 38, 58
10, 90756, Note_off_c, 9, 38, 64
10, 90960, Note_on_c, 9, 38, 52
10, 90992, Note_off_c, 9, 38, 64
10, 91040, Note_on_c, 9, 38, 58
10, 91072, Note_off_c, 9, 38, 64
10, 91120, Note_on_c, 9, 38, 52
10, 91146, Note_off_c, 9, 81, 64
10, 91146, Note_off_c, 9, 48, 64
10, 91152, Note_off_c, 9, 38, 64
10, 91200, Note_on_c, 9, 38, 58
10, 91236, Note_off_c, 9, 38, 64
10, 91440, Note_on_c, 9, 38, 52
10, 91472, Note_off_c, 9, 38, 64
10, 91520, Note_on_c, 9, 38, 58
10, 91552, Note_off_c, 9, 38, 64
10, 91600, Note_on_c, 9, 38, 52
10, 91632, Note_off_c, 9, 38, 64
10, 91680, Note_on_c, 9, 38, 64
10, 91680, Note_on_c, 9, 47, 97
10, 91680, Note_on_c, 9, 59, 103
10, 91680, Note_on_c, 9, 81, 46
10, 91706, Note_off_c, 9, 47, 64
10, 91712, Note_off_c, 9, 38, 64
10, 91746, Note_off_c, 9, 59, 64
10, 91760, Note_on_c, 9, 38, 52
10, 91760, Note_on_c, 9, 47, 72
10, 91786, Note_off_c, 9, 47, 64
10, 91792, Note_off_c, 9, 38, 64
10, 91840, Note_on_c, 9, 38, 59
10, 91840, Note_on_c, 9, 47, 77
10, 91866, Note_off_c, 9, 47, 64
10, 91872, Note_off_c, 9, 38, 64
10, 91920, Note_on_c, 9, 38, 64
10, 91920, Note_on_c, 9, 47, 82
10, 91920, Note_on_c, 9, 36, 64
10, 91956, Note_off_c, 9, 38, 64
10, 91956, Note_off_c, 9, 36, 64
10, 91974, Note_off_c, 9, 47, 64
10, 92034, Note_off_c, 9, 81, 64
10, 92160, Note_on_c, 9, 38, 64
10, 92160, Note_on_c, 9, 48, 83
10, 92160, Note_on_c, 9, 81, 46
10, 92196, Note_off_c, 9, 38, 64
10, 92640, Note_on_c, 9, 38, 58
10, 92676, Note_off_c, 9, 38, 64
10, 92880, Note_on_c, 9, 38, 52
10, 92912, Note_off_c, 9, 38, 64
10, 92960, Note_on_c, 9, 38, 58
10, 92992, Note_off_c, 9, 38, 64
10, 93040, Note_on_c, 9, 38, 52
10, 93066, Note_off_c, 9, 81, 64
10, 93066, Note_off_c, 9, 48, 64
10, 93072, Note_off_c, 9, 38, 64
10, 93120, Note_on_c, 9, 38, 58
10, 93156, Note_off_c, 9, 38, 64
10, 93360, Note_on_c, 9, 38, 52
10, 93392, Note_off_c, 9, 38, 64
10, 93440, Note_on_c, 9, 38, 58
10, 93472, Note_off_c, 9, 38, 64
10, 93520, Note_on_c, 9, 38, 52
10, 93552, Note_off_c, 9, 38, 64
10, 93600, Note_on_c, 9, 38, 64
10, 93600, Note_on_c, 9, 47, 97
10, 93600, Note_on_c, 9, 59, 103
10, 93600, Note_on_c, 9, 81, 46
10, 93626, Note_off_c, 9, 47, 64
10, 93632, Note_off_c, 9, 38, 64
10, 93666, Note_off_c, 9, 59, 64
10, 93680, Note_on_c, 9, 38, 52
10, 93680, Note_on_c, 9, 47, 72
10, 93706, Note_off_c, 9, 47, 64
10, 93712, Note_off_c, 9, 38, 64
10, 93760, Note_on_c, 9, 38, 59
10, 93760, Note_on_c, 9, 47, 77
10, 93786, Note_off_c, 9, 47, 64
10, 93792, Note_off_c, 9, 38, 64
10, 93840, Note_on_c, 9, 38, 64
10, 93840, Note_on_c, 9, 47, 82
10, 93840, Note_on_c, 9, 36, 64
10, 93876, Note_off_c, 9, 38, 64
10, 93876, Note_off_c, 9, 36, 64
10, 93894, Note_off_c, 9, 47, 64
10, 93954, Note_off_c, 9, 81, 64
10, 94080, Note_on_c, 9, 43, 91
10, 94080, Note_on_c, 9, 36, 64
10, 94080, Note_on_c, 9, 38, 64
10, 94116, Note_off_c, 9, 36, 64
10, 94116, Note_off_c, 9, 38, 64
10, 94194, Note_off_c, 9, 43, 64
10, 94560, Note_on_c, 9, 38, 58
10, 94596, Note_off_c, 9, 38, 64
10, 94800, Note_on_c, 9, 38, 52
10, 94832, Note_off_c, 9, 38, 64
10, 94880, Note_on_c, 9, 38, 58
10, 94912, Note_off_c, 9, 38, 64
10, 94960, Note_on_c, 9, 38, 52
10, 94992, Note_off_c, 9, 38, 64
10, 95040, Note_on_c, 9, 38, 58
10, 95076, Note_off_c, 9, 38, 64
10, 95280, Note_on_c, 9, 38, 52
10, 95312, Note_off_c, 9, 38, 64
10, 95360, Note_on_c, 9, 38, 58
10, 95392, Note_off_c, 9, 38, 64
10, 95440, Note_on_c, 9, 38, 52
10, 95472, Note_off_c, 9, 38, 64
10, 95520, Note_on_c, 9, 38, 64
10, 95552, Note_off_c, 9, 38, 64
10, 95600, Note_on_c, 9, 38, 52
10, 95632, Note_off_c, 9, 38, 64
10, 95680, Note_on_c, 9, 38, 59
10, 95712, Note_off_c, 9, 38, 64
10, 95760, Note_on_c, 9, 38, 64
10, 95796, Note_off_c, 9, 38, 64
10, 96000, Note_on_c, 9, 38, 64
10, 96000, Note_on_c, 9, 36, 64
10, 96036, Note_off_c, 9, 38, 64
10, 96036, Note_off_c, 9, 36, 64
10, 96480, Note_on_c, 9, 38, 58
10, 96516, Note_off_c, 9, 38, 64
10, 96720, Note_on_c, 9, 38, 52
10, 96752, Note_off_c, 9, 38, 64
10, 96800, Note_on_c, 9, 38, 58
10, 96832, Note_off_c, 9, 38, 64
10, 96880, Note_on_c, 9, 38, 52
10, 96912, Note_off_c, 9, 38, 64
10, 96960, Note_on_c, 9, 38, 58
10, 96996, Note_off_c, 9, 38, 64
10, 97200, Note_on_c, 9, 38, 52
10, 97232, Note_off_c, 9, 38, 64
10, 97280, Note_on_c, 9, 38, 58
10, 97312, Note_off_c, 9, 38, 64
10, 97360, Note_on_c, 9, 38, 52
10, 97392, Note_off_c, 9, 38, 64
10, 97440, Note_on_c, 9, 38, 64
10, 97472, Note_off_c, 9, 38, 64
10, 97520, Note_on_c, 9, 38, 52
10, 97552, Note_off_c, 9, 38, 64
10, 97600, Note_on_c, 9, 38, 59
10, 97632, Note_off_c, 9, 38, 64
10, 97680, Note_on_c, 9, 38, 64
10, 97716, Note_off_c, 9, 38, 64
10, 97920, Note_on_c, 9, 38, 64
10, 97956, Note_off_c, 9, 38, 64
10, 98400, Note_on_c, 9, 38, 58
10, 98436, Note_off_c, 9, 38, 64
10, 98640, Note_on_c, 9, 38, 52
10, 98672, Note_off_c, 9, 38, 64
10, 98720, Note_on_c, 9, 38, 58
10, 98752, Note_off_c, 9, 38, 64
10, 98800, Note_on_c, 9, 38, 52
10, 98832, Note_off_c, 9, 38, 64
10, 98880, Note_on_c, 9, 38, 58
10, 98916, Note_off_c, 9, 38, 64
10, 99120, Note_on_c, 9, 38, 52
10, 99152, Note_off_c, 9, 38, 64
10, 99200, Note_on_c, 9, 38, 58
10, 99232, Note_off_c, 9, 38, 64
10, 99280, Note_on_c, 9, 38, 52
10, 99312, Note_off_c, 9, 38, 64
10, 99360, Note_on_c, 9, 38, 64
10, 99392, Note_off_c, 9, 38, 64
10, 99440, Note_on_c, 9, 38, 52
10, 99472, Note_off_c, 9, 38, 64
10, 99520, Note_on_c, 9, 38, 59
10, 99552, Note_off_c, 9, 38, 64
10, 99600, Note_on_c, 9, 38, 64
10, 99636, Note_off_c, 9, 38, 64
10, 99840, Note_on_c, 9, 38, 64
10, 99876, Note_off_c, 9, 38, 64
10, 100320, Note_on_c, 9, 38, 58
10, 100356, Note_off_c, 9, 38, 64
10, 100560, Note_on_c, 9, 38, 52
10, 100592, Note_off_c, 9, 38, 64
10, 100640, Note_on_c, 9, 38, 58
10, 100672, Note_off_c, 9, 38, 64
10, 100720, Note_on_c, 9, 38, 52
10, 100752, Note_off_c, 9, 38, 64
10, 100800, Note_on_c, 9, 38, 58
10, 100836, Note_off_c, 9, 38, 64
10, 101040, Note_on_c, 9, 38, 52
10, 101072, Note_off_c, 9, 38, 64
10, 101120, Note_on_c, 9, 38, 58
10, 101152, Note_off_c, 9, 38, 64
10, 101200, Note_on_c, 9, 38, 52
10, 101232, Note_off_c, 9, 38, 64
10, 101280, Note_on_c, 9, 38, 64
10, 101312, Note_off_c, 9, 38, 64
10, 101360, Note_on_c, 9, 38, 52
10, 101392, Note_off_c, 9, 38, 64
10, 101440, Note_on_c, 9, 38, 59
10, 101472, Note_off_c, 9, 38, 64
10, 101520, Note_on_c, 9, 38, 64
10, 101556, Note_off_c, 9, 38, 64
10, 101760, Note_on_c, 9, 43, 91
10, 101760, Note_on_c, 9, 38, 64
10, 101796, Note_off_c, 9, 38, 64
10, 102240, Note_on_c, 9, 38, 58
10, 102276, Note_off_c, 9, 38, 64
10, 102480, Note_on_c, 9, 38, 52
10, 102512, Note_off_c, 9, 38, 64
10, 102560, Note_on_c, 9, 38, 58
10, 102592, Note_off_c, 9, 38, 64
10, 102640, Note_on_c, 9, 38, 52
10, 102666, Note_off_c, 9, 43, 64
10, 102672, Note_off_c, 9, 38, 64
10, 102720, Note_on_c, 9, 38, 58
10, 102756, Note_off_c, 9, 38, 64
10, 102960, Note_on_c, 9, 38, 52
10, 102992, Note_off_c, 9, 38, 64
10, 103040, Note_on_c, 9, 38, 58
10, 103072, Note_off_c, 9, 38, 64
10, 103120, Note_on_c, 9, 38, 52
10, 103152, Note_off_c, 9, 38, 64
10, 103200, Note_on_c, 9, 43, 91
10, 103200, Note_on_c, 9, 38, 64
10, 103226, Note_off_c, 9, 43, 64
10, 103232, Note_off_c, 9, 38, 64
10, 103280, Note_on_c, 9, 43, 78
10, 103280, Note_on_c, 9, 38, 52
10, 103306, Note_off_c, 9, 43, 64
10, 103312, Note_off_c, 9, 38, 64
10, 103360, Note_on_c, 9, 43, 81
10, 103360, Note_on_c, 9, 38, 59
10, 103386, Note_off_c, 9, 43, 64
10, 103392, Note_off_c, 9, 38, 64
10, 103440, Note_on_c, 9, 43, 83
10, 103440, Note_on_c, 9, 38, 64
10, 103476, Note_off_c, 9, 38, 64
10, 103494, Note_off_c, 9, 43, 64
10, 103680, Note_on_c, 9, 49, 91
10, 103680, Note_on_c, 9, 38, 64
10, 103716, Note_off_c, 9, 38, 64
10, 104160, Note_on_c, 9, 38, 58
10, 104196, Note_off_c, 9, 38, 64
10, 104400, Note_on_c, 9, 38, 52
10, 104432, Note_off_c, 9, 38, 64
10, 104480, Note_on_c, 9, 38, 58
10, 104512, Note_off_c, 9, 38, 64
10, 104560, Note_on_c, 9, 38, 52
10, 104586, Note_off_c, 9, 49, 64
10, 104592, Note_off_c, 9, 38, 64
10, 104640, Note_on_c, 9, 38, 58
10, 104676, Note_off_c, 9, 38, 64
10, 104880, Note_on_c, 9, 38, 52
10, 104912, Note_off_c, 9, 38, 64
10, 104960, Note_on_c, 9, 38, 58
10, 104992, Note_off_c, 9, 38, 64
10, 105040, Note_on_c, 9, 38, 52
10, 105072, Note_off_c, 9, 38, 64
10, 105120, Note_on_c, 9, 49, 91
10, 105120, Note_on_c, 9, 38, 64
10, 105146, Note_off_c, 9, 49, 64
10, 105152, Note_off_c, 9, 38, 64
10, 105200, Note_on_c, 9, 49, 78
10, 105200, Note_on_c, 9, 38, 52
10, 105226, Note_off_c, 9, 49, 64
10, 105232, Note_off_c, 9, 38, 64
10, 105280, Note_on_c, 9, 49, 81
10, 105280, Note_on_c, 9, 38, 59
10, 105306, Note_off_c, 9, 49, 64
10, 105312, Note_off_c, 9, 38, 64
10, 105360, Note_on_c, 9, 49, 83
10, 105360, Note_on_c, 9, 38, 64
10, 105396, Note_off_c, 9, 38, 64
10, 105414, Note_off_c, 9, 49, 64
10, 105600, Note_on_c, 9, 38, 64
10, 105636, Note_off_c, 9, 38, 64
10, 106080, Note_on_c, 9, 38, 58
10, 106116, Note_off_c, 9, 38, 64
10, 106320, Note_on_c, 9, 38, 52
10, 106352, Note_off_c, 9, 38, 64
10, 106400, Note_on_c, 9, 38, 58
10, 106432, Note_off_c, 9, 38, 64
10, 106480, Note_on_c, 9, 38, 52
10, 106512, Note_off_c, 9, 38, 64
10, 106560, Note_on_c, 9, 38, 58
10, 106596, Note_off_c, 9, 38, 64
10, 106800, Note_on_c, 9, 38, 52
10, 106832, Note_off_c, 9, 38, 64
10, 106880, Note_on_c, 9, 38, 58
10, 106912, Note_off_c, 9, 38, 64
10, 106960, Note_on_c, 9, 38, 52
10, 106992, Note_off_c, 9, 38, 64
10, 107040, Note_on_c, 9, 51, 91
10, 107040, Note_on_c, 9, 38, 64
10, 107066, Note_off_c, 9, 51, 64
10, 107072, Note_off_c, 9, 38, 64
10, 107120, Note_on_c, 9, 51, 78
10, 107120, Note_on_c, 9, 38, 52
10, 107146, Note_off_c, 9, 51, 64
10, 107152, Note_off_c, 9, 38, 64
10, 107200, Note_on_c, 9, 51, 81
10, 107200, Note_on_c, 9, 38, 59
10, 107226, Note_off_c, 9, 51, 64
10, 107232, Note_off_c, 9, 38, 64
10, 107280, Note_on_c, 9, 51, 83
10, 107280, Note_on_c, 9, 38, 64
10, 107316, Note_off_c, 9, 38, 64
10, 107334, Note_off_c, 9, 51, 64
10, 107520, Note_on_c, 9, 38, 64
10, 107556, Note_off_c, 9, 38, 64
10, 108000, Note_on_c, 9, 38, 58
10, 108036, Note_off_c, 9, 38, 64
10, 108240, Note_on_c, 9, 38, 52
10, 108272, Note_off_c, 9, 38, 64
10, 108320, Note_on_c, 9, 38, 58
10, 108352, Note_off_c, 9, 38, 64
10, 108400, Note_on_c, 9, 38, 52
10, 108432, Note_off_c, 9, 38, 64
10, 108480, Note_on_c, 9, 38, 58
10, 108516, Note_off_c, 9, 38, 64
10, 108720, Note_on_c, 9, 38, 52
10, 108752, Note_off_c, 9, 38, 64
10, 108800, Note_on_c, 9, 38, 58
10, 108832, Note_off_c, 9, 38, 64
10, 108880, Note_on_c, 9, 38, 52
10, 108912, Note_off_c, 9, 38, 64
10, 108960, Note_on_c, 9, 43, 91
10, 108960, Note_on_c, 9, 38, 64
10, 108986, Note_off_c, 9, 43, 64
10, 108992, Note_off_c, 9, 38, 64
10, 109040, Note_on_c, 9, 43, 78
10, 109040, Note_on_c, 9, 38, 52
10, 109066, Note_off_c, 9, 43, 64
10, 109072, Note_off_c, 9, 38, 64
10, 109120, Note_on_c, 9, 43, 81
10, 109120, Note_on_c, 9, 38, 59
10, 109146, Note_off_c, 9, 43, 64
10, 109152, Note_off_c, 9, 38, 64
10, 109200, Note_on_c, 9, 43, 83
10, 109200, Note_on_c, 9, 38, 64
10, 109236, Note_off_c, 9, 38, 64
10, 109254, Note_off_c, 9, 43, 64
10, 109440, Note_on_c, 9, 81, 52
10, 109440, Note_on_c, 9, 59, 109
10, 109440, Note_on_c, 9, 38, 64
10, 109440, Note_on_c, 9, 36, 64
10, 109476, Note_off_c, 9, 38, 64
10, 109476, Note_off_c, 9, 36, 64
10, 109920, Note_on_c, 9, 38, 58
10, 109956, Note_off_c, 9, 38, 64
10, 110160, Note_on_c, 9, 38, 52
10, 110192, Note_off_c, 9, 38, 64
10, 110240, Note_on_c, 9, 38, 58
10, 110244, Note_off_c, 9, 59, 64
10, 110272, Note_off_c, 9, 38, 64
10, 110320, Note_on_c, 9, 38, 52
10, 110346, Note_off_c, 9, 81, 64
10, 110352, Note_off_c, 9, 38, 64
10, 110400, Note_on_c, 9, 38, 58
10, 110436, Note_off_c, 9, 38, 64
10, 110640, Note_on_c, 9, 38, 52
10, 110672, Note_off_c, 9, 38, 64
10, 110720, Note_on_c, 9, 38, 58
10, 110752, Note_off_c, 9, 38, 64
10, 110800, Note_on_c, 9, 38, 52
10, 110832, Note_off_c, 9, 38, 64
10, 110880, Note_on_c, 9, 38, 64
10, 110912, Note_off_c, 9, 38, 64
10, 110960, Note_on_c, 9, 38, 52
10, 110992, Note_off_c, 9, 38, 64
10, 111040, Note_on_c, 9, 38, 59
10, 111072, Note_off_c, 9, 38, 64
10, 111120, Note_on_c, 9, 38, 52
10, 111156, Note_off_c, 9, 38, 64
10, 111360, Note_on_c, 9, 36, 64
10, 111360, Note_on_c, 9, 38, 64
10, 111396, Note_off_c, 9, 36, 64
10, 111396, Note_off_c, 9, 38, 64
10, 111840, Note_on_c, 9, 38, 58
10, 111876, Note_off_c, 9, 38, 64
10, 112080, Note_on_c, 9, 38, 52
10, 112112, Note_off_c, 9, 38, 64
10, 112160, Note_on_c, 9, 38, 58
10, 112192, Note_off_c, 9, 38, 64
10, 112240, Note_on_c, 9, 38, 52
10, 112272, Note_off_c, 9, 38, 64
10, 112320, Note_on_c, 9, 38, 58
10, 112356, Note_off_c, 9, 38, 64
10, 112560, Note_on_c, 9, 38, 52
10, 112592, Note_off_c, 9, 38, 64
10, 112640, Note_on_c, 9, 38, 58
10, 112672, Note_off_c, 9, 38, 64
10, 112720, Note_on_c, 9, 38, 52
10, 112752, Note_off_c, 9, 38, 64
10, 112800, Note_on_c, 9, 38, 64
10, 112800, Note_on_c, 9, 49, 91
10, 112826, Note_off_c, 9, 49, 64
10, 112832, Note_off_c, 9, 38, 64
10, 112880, Note_on_c, 9, 38, 52
10, 112880, Note_on_c, 9, 49, 78
10, 112906, Note_off_c, 9, 49, 64
10, 112912, Note_off_c, 9, 38, 64
10, 112960, Note_on_c, 9, 38, 59
10, 112960, Note_on_c, 9, 49, 81
10, 112986, Note_off_c, 9, 49, 64
10, 112992, Note_off_c, 9, 38, 64
10, 113040, Note_on_c, 9, 38, 52
10, 113040, Note_on_c, 9, 49, 83
10, 113076, Note_off_c, 9, 38, 64
10, 113094, Note_off_c, 9, 49, 64
10, 113280, Note_on_c, 9, 38, 64
10, 113280, Note_on_c, 9, 36, 64
10, 113316, Note_off_c, 9, 38, 64
10, 113316, Note_off_c, 9, 36, 64
10, 113760, Note_on_c, 9, 38, 58
10, 113796, Note_off_c, 9, 38, 64
10, 114000, Note_on_c, 9, 38, 52
10, 114032, Note_off_c, 9, 38, 64
10, 114080, Note_on_c, 9, 38, 58
10, 114112, Note_off_c, 9, 38, 64
10, 114160, Note_on_c, 9, 38, 52
10, 114192, Note_off_c, 9, 38, 64
10, 114240, Note_on_c, 9, 38, 58
10, 114276, Note_off_c, 9, 38, 64
10, 114480, Note_on_c, 9, 38, 52
10, 114512, Note_off_c, 9, 38, 64
10, 114560, Note_on_c, 9, 38, 58
10, 114592, Note_off_c, 9, 38, 64
10, 114640, Note_on_c, 9, 38, 52
10, 114672, Note_off_c, 9, 38, 64
10, 114720, Note_on_c, 9, 38, 64
10, 114720, Note_on_c, 9, 48, 91
10, 114746, Note_off_c, 9, 48, 64
10, 114752, Note_off_c, 9, 38, 64
10, 114800, Note_on_c, 9, 38, 52
10, 114800, Note_on_c, 9, 48, 78
10, 114826, Note_off_c, 9, 48, 64
10, 114832, Note_off_c, 9, 38, 64
10, 114880, Note_on_c, 9, 38, 59
10, 114880, Note_on_c, 9, 48, 81
10, 114906, Note_off_c, 9, 48, 64
10, 114912, Note_off_c, 9, 38, 64
10, 114960, Note_on_c, 9, 38, 58
10, 114960, Note_on_c, 9, 48, 83
10, 114996, Note_off_c, 9, 38, 64
10, 115014, Note_off_c, 9, 48, 64
10, 115080, Note_on_c, 9, 38, 34
10, 115120, Note_off_c, 9, 38, 64
10, 115120, Note_on_c, 9, 38, 41
10, 115160, Note_off_c, 9, 38, 64
10, 115160, Note_on_c, 9, 38, 45
10, 115200, Note_off_c, 9, 38, 64
10, 115200, Note_on_c, 9, 38, 58
10, 115200, Note_on_c, 9, 43, 83
10, 115236, Note_off_c, 9, 38, 64
10, 115314, Note_off_c, 9, 43, 64
10, 115560, Note_on_c, 9, 38, 34
10, 115600, Note_off_c, 9, 38, 64
10, 115600, Note_on_c, 9, 38, 41
10, 115640, Note_off_c, 9, 38, 64
10, 115640, Note_on_c, 9, 38, 45
10, 115680, Note_off_c, 9, 38, 64
10, 115680, Note_on_c, 9, 36, 58
10, 115680, Note_on_c, 9, 38, 58
10, 115680, Note_on_c, 9, 48, 91
10, 115680, Note_on_c, 9, 59, 109
10, 115716, Note_off_c, 9, 36, 64
10, 115716, Note_off_c, 9, 38, 64
10, 115794, Note_off_c, 9, 48, 64
10, 115794, Note_off_c, 9, 59, 64
10, 116040, Note_on_c, 9, 38, 36
10, 116076, Note_off_c, 9, 38, 64
10, 116100, Note_on_c, 9, 38, 41
10, 116136, Note_off_c, 9, 38, 64
10, 116160, Note_on_c, 9, 38, 58
10, 116160, Note_on_c, 9, 36, 58
10, 116160, Note_on_c, 9, 43, 91
10, 116160, Note_on_c, 9, 59, 109
10, 116196, Note_off_c, 9, 38, 64
10, 116196, Note_off_c, 9, 36, 64
10, 116274, Note_off_c, 9, 43, 64
10, 116274, Note_off_c, 9, 59, 64
10, 116400, Note_on_c, 9, 38, 52
10, 116432, Note_off_c, 9, 38, 64
10, 116480, Note_on_c, 9, 38, 58
10, 116512, Note_off_c, 9, 38, 64
10, 116560, Note_on_c, 9, 38, 52
10, 116592, Note_off_c, 9, 38, 64
10, 116640, Note_on_c, 9, 38, 64
10, 116640, Note_on_c, 9, 43, 91
10, 116666, Note_off_c, 9, 43, 64
10, 116672, Note_off_c, 9, 38, 64
10, 116720, Note_on_c, 9, 38, 52
10, 116720, Note_on_c, 9, 43, 78
10, 116746, Note_off_c, 9, 43, 64
10, 116752, Note_off_c, 9, 38, 64
10, 116800, Note_on_c, 9, 38, 59
10, 116800, Note_on_c, 9, 43, 81
10, 116826, Note_off_c, 9, 43, 64
10, 116832, Note_off_c, 9, 38, 64
10, 116880, Note_on_c, 9, 38, 58
10, 116880, Note_on_c, 9, 43, 83
10, 116916, Note_off_c, 9, 38, 64
10, 116934, Note_off_c, 9, 43, 64
10, 117600, Note_on_c, 9, 59, 103
10, 117600, Note_on_c, 9, 38, 52
10, 117632, Note_off_c, 9, 38, 64
10, 117680, Note_on_c, 9, 38, 58
10, 117712, Note_off_c, 9, 38, 64
10, 117714, Note_off_c, 9, 59, 64
10, 117760, Note_on_c, 9, 38, 52
10, 117792, Note_off_c, 9, 38, 64
10, 117840, Note_on_c, 9, 38, 58
10, 117876, Note_off_c, 9, 38, 64
10, 118320, Note_on_c, 9, 59, 103
10, 118320, Note_on_c, 9, 38, 58
10, 118356, Note_off_c, 9, 38, 64
10, 118434, Note_off_c, 9, 59, 64
10, 118800, Note_on_c, 9, 59, 103
10, 118800, Note_on_c, 9, 38, 58
10, 118836, Note_off_c, 9, 38, 64
10, 118914, Note_off_c, 9, 59, 64
10, 119280, Note_on_c, 9, 59, 103
10, 119280, Note_on_c, 9, 38, 58
10, 119316, Note_off_c, 9, 38, 64
10, 119394, Note_off_c, 9, 59, 64
10, 119760, Note_on_c, 9, 59, 103
10, 119760, Note_on_c, 9, 38, 58
10, 119796, Note_off_c, 9, 38, 64
10, 119874, Note_off_c, 9, 59, 64
10, 120240, Note_on_c, 9, 38, 52
10, 120240, Note_on_c, 9, 59, 103
10, 120272, Note_off_c, 9, 38, 64
10, 120320, Note_on_c, 9, 38, 58
10, 120352, Note_off_c, 9, 38, 64
10, 120354, Note_off_c, 9, 59, 64
10, 120400, Note_on_c, 9, 38, 52
10, 120432, Note_off_c, 9, 38, 64
10, 120480, Note_on_c, 9, 38, 64
10, 120480, Note_on_c, 9, 59, 103
10, 120512, Note_off_c, 9, 38, 64
10, 120560, Note_on_c, 9, 38, 52
10, 120592, Note_off_c, 9, 38, 64
10, 120594, Note_off_c, 9, 59, 64
10, 120640, Note_on_c, 9, 38, 59
10, 120672, Note_off_c, 9, 38, 64
10, 120720, Note_on_c, 9, 38, 58
10, 120756, Note_off_c, 9, 38, 64
10, 121200, Note_on_c, 9, 38, 58
10, 121200, Note_on_c, 9, 59, 103
10, 121236, Note_off_c, 9, 38, 64
10, 121314, Note_off_c, 9, 59, 64
10, 121680, Note_on_c, 9, 38, 52
10, 121680, Note_on_c, 9, 59, 103
10, 121712, Note_off_c, 9, 38, 64
10, 121760, Note_on_c, 9, 38, 58
10, 121792, Note_off_c, 9, 38, 64
10, 121794, Note_off_c, 9, 59, 64
10, 121840, Note_on_c, 9, 38, 52
10, 121872, Note_off_c, 9, 38, 64
10, 122160, Note_on_c, 9, 38, 58
10, 122160, Note_on_c, 9, 59, 103
10, 122196, Note_off_c, 9, 38, 64
10, 122274, Note_off_c, 9, 59, 64
10, 122640, Note_on_c, 9, 38, 58
10, 122640, Note_on_c, 9, 59, 103
10, 122676, Note_off_c, 9, 38, 64
10, 122754, Note_off_c, 9, 59, 64
10, 123120, Note_on_c, 9, 38, 58
10, 123120, Note_on_c, 9, 59, 103
10, 123156, Note_off_c, 9, 38, 64
10, 123234, Note_off_c, 9, 59, 64
10, 123600, Note_on_c, 9, 38, 58
10, 123600, Note_on_c, 9, 59, 103
10, 123636, Note_off_c, 9, 38, 64
10, 123714, Note_off_c, 9, 59, 64
10, 124080, Note_on_c, 9, 38, 52
10, 124080, Note_on_c, 9, 59, 103
10, 124112, Note_off_c, 9, 38, 64
10, 124160, Note_on_c, 9, 38, 58
10, 124192, Note_off_c, 9, 38, 64
10, 124194, Note_off_c, 9, 59, 64
10, 124240, Note_on_c, 9, 38, 52
10, 124272, Note_off_c, 9, 38, 64
10, 124320, Note_on_c, 9, 38, 64
10, 124320, Note_on_c, 9, 59, 103
10, 124352, Note_off_c, 9, 38, 64
10, 124400, Note_on_c, 9, 38, 52
10, 124432, Note_off_c, 9, 38, 64
10, 124434, Note_off_c, 9, 59, 64
10, 124480, Note_on_c, 9, 38, 59
10, 124512, Note_off_c, 9, 38, 64
10, 124560, Note_on_c, 9, 38, 58
10, 124596, Note_off_c, 9, 38, 64
10, 124800, Note_on_c, 9, 38, 71
10, 124800, Note_on_c, 9, 36, 71
10, 124800, Note_on_c, 9, 59, 118
10, 124800, Note_on_c, 9, 81, 58
10, 124836, Note_off_c, 9, 38, 64
10, 124836, Note_off_c, 9, 36, 64
10, 125160, Note_on_c, 9, 38, 36
10, 125196, Note_off_c, 9, 38, 64
10, 125220, Note_on_c, 9, 38, 41
10, 125256, Note_off_c, 9, 38, 64
10, 125280, Note_on_c, 9, 38, 58
10, 125316, Note_off_c, 9, 38, 64
10, 125520, Note_on_c, 9, 38, 52
10, 125552, Note_off_c, 9, 38, 64
10, 125600, Note_on_c, 9, 38, 58
10, 125604, Note_off_c, 9, 59, 64
10, 125632, Note_off_c, 9, 38, 64
10, 125680, Note_on_c, 9, 38, 52
10, 125706, Note_off_c, 9, 81, 64
10, 125712, Note_off_c, 9, 38, 64
10, 125760, Note_on_c, 9, 38, 58
10, 125796, Note_off_c, 9, 38, 64
10, 126000, Note_on_c, 9, 38, 52
10, 126032, Note_off_c, 9, 38, 64
10, 126080, Note_on_c, 9, 38, 58
10, 126112, Note_off_c, 9, 38, 64
10, 126160, Note_on_c, 9, 38, 52
10, 126192, Note_off_c, 9, 38, 64
10, 126240, Note_on_c, 9, 38, 64
10, 126272, Note_off_c, 9, 38, 64
10, 126320, Note_on_c, 9, 38, 52
10, 126352, Note_off_c, 9, 38, 64
10, 126400, Note_on_c, 9, 38, 59
10, 126432, Note_off_c, 9, 38, 64
10, 126480, Note_on_c, 9, 38, 52
10, 126516, Note_off_c, 9, 38, 64
10, 126720, Note_on_c, 9, 36, 71
10, 126720, Note_on_c, 9, 38, 71
10, 126756, Note_off_c, 9, 36, 64
10, 126756, Note_off_c, 9, 38, 64
10, 127080, Note_on_c, 9, 38, 36
10, 127116, Note_off_c, 9, 38, 64
10, 127140, Note_on_c, 9, 38, 41
10, 127176, Note_off_c, 9, 38, 64
10, 127200, Note_on_c, 9, 38, 58
10, 127236, Note_off_c, 9, 38, 64
10, 127440, Note_on_c, 9, 38, 52
10, 127472, Note_off_c, 9, 38, 64
10, 127520, Note_on_c, 9, 38, 58
10, 127552, Note_off_c, 9, 38, 64
10, 127600, Note_on_c, 9, 38, 52
10, 127632, Note_off_c, 9, 38, 64
10, 127680, Note_on_c, 9, 38, 58
10, 127716, Note_off_c, 9, 38, 64
10, 127920, Note_on_c, 9, 38, 52
10, 127952, Note_off_c, 9, 38, 64
10, 128000, Note_on_c, 9, 38, 58
10, 128032, Note_off_c, 9, 38, 64
10, 128080, Note_on_c, 9, 38, 52
10, 128112, Note_off_c, 9, 38, 64
10, 128160, Note_on_c, 9, 49, 109
10, 128160, Note_on_c, 9, 38, 64
10, 128186, Note_off_c, 9, 49, 64
10, 128192, Note_off_c, 9, 38, 64
10, 128240, Note_on_c, 9, 49, 97
10, 128240, Note_on_c, 9, 38, 52
10, 128266, Note_off_c, 9, 49, 64
10, 128272, Note_off_c, 9, 38, 64
10, 128320, Note_on_c, 9, 49, 99
10, 128320, Note_on_c, 9, 38, 59
10, 128346, Note_off_c, 9, 49, 64
10, 128352, Note_off_c, 9, 38, 64
10, 128400, Note_on_c, 9, 49, 102
10, 128400, Note_on_c, 9, 38, 52
10, 128436, Note_off_c, 9, 38, 64
10, 128454, Note_off_c, 9, 49, 64
10, 128640, Note_on_c, 9, 38, 71
10, 128676, Note_off_c, 9, 38, 64
10, 129000, Note_on_c, 9, 38, 36
10, 129036, Note_off_c, 9, 38, 64
10, 129060, Note_on_c, 9, 38, 41
10, 129096, Note_off_c, 9, 38, 64
10, 129120, Note_on_c, 9, 38, 58
10, 129156, Note_off_c, 9, 38, 64
10, 129360, Note_on_c, 9, 38, 52
10, 129392, Note_off_c, 9, 38, 64
10, 129440, Note_on_c, 9, 38, 58
10, 129472, Note_off_c, 9, 38, 64
10, 129520, Note_on_c, 9, 38, 52
10, 129552, Note_off_c, 9, 38, 64
10, 129600, Note_on_c, 9, 38, 58
10, 129636, Note_off_c, 9, 38, 64
10, 129840, Note_on_c, 9, 38, 52
10, 129872, Note_off_c, 9, 38, 64
10, 129920, Note_on_c, 9, 38, 58
10, 129952, Note_off_c, 9, 38, 64
10, 130000, Note_on_c, 9, 38, 52
10, 130032, Note_off_c, 9, 38, 64
10, 130080, Note_on_c, 9, 48, 109
10, 130080, Note_on_c, 9, 38, 64
10, 130106, Note_off_c, 9, 48, 64
10, 130112, Note_off_c, 9, 38, 64
10, 130160, Note_on_c, 9, 48, 97
10, 130160, Note_on_c, 9, 38, 52
10, 130186, Note_off_c, 9, 48, 64
10, 130192, Note_off_c, 9, 38, 64
10, 130240, Note_on_c, 9, 48, 99
10, 130240, Note_on_c, 9, 38, 59
10, 130266, Note_off_c, 9, 48, 64
10, 130272, Note_off_c, 9, 38, 64
10, 130320, Note_on_c, 9, 48, 102
10, 130320, Note_on_c, 9, 38, 52
10, 130356, Note_off_c, 9, 38, 64
10, 130374, Note_off_c, 9, 48, 64
10, 130440, Note_on_c, 9, 38, 34
10, 130480, Note_off_c, 9, 38, 64
10, 130480, Note_on_c, 9, 38, 41
10, 130520, Note_off_c, 9, 38, 64
10, 130520, Note_on_c, 9, 38, 45
10, 130560, Note_off_c, 9, 38, 64
10, 130560, Note_on_c, 9, 43, 103
10, 130560, Note_on_c, 9, 38, 58
10, 130596, Note_off_c, 9, 38, 64
10, 130674, Note_off_c, 9, 43, 64
10, 130920, Note_on_c, 9, 38, 34
10, 130960, Note_off_c, 9, 38, 64
10, 130960, Note_on_c, 9, 38, 41
10, 131000, Note_off_c, 9, 38, 64
10, 131000, Note_on_c, 9, 38, 45
10, 131040, Note_off_c, 9, 38, 64
10, 131040, Note_on_c, 9, 48, 109
10, 131040, Note_on_c, 9, 59, 109
10, 131040, Note_on_c, 9, 38, 58
10, 131040, Note_on_c, 9, 36, 58
10, 131076, Note_off_c, 9, 38, 64
10, 131076, Note_off_c, 9, 36, 64
10, 131154, Note_off_c, 9, 48, 64
10, 131154, Note_off_c, 9, 59, 64
10, 131400, Note_on_c, 9, 38, 36
10, 131436, Note_off_c, 9, 38, 64
10, 131460, Note_on_c, 9, 38, 41
10, 131496, Note_off_c, 9, 38, 64
10, 131520, Note_on_c, 9, 43, 109
10, 131520, Note_on_c, 9, 59, 118
10, 131520, Note_on_c, 9, 36, 71
10, 131520, Note_on_c, 9, 38, 71
10, 131556, Note_off_c, 9, 36, 64
10, 131556, Note_off_c, 9, 38, 64
10, 131634, Note_off_c, 9, 43, 64
10, 131634, Note_off_c, 9, 59, 64
10, 131760, Note_on_c, 9, 38, 52
10, 131792, Note_off_c, 9, 38, 64
10, 131840, Note_on_c, 9, 38, 58
10, 131872, Note_off_c, 9, 38, 64
10, 131920, Note_on_c, 9, 38, 52
10, 131952, Note_off_c, 9, 38, 64
10, 132000, Note_on_c, 9, 43, 109
10, 132000, Note_on_c, 9, 38, 64
10, 132026, Note_off_c, 9, 43, 64
10, 132032, Note_off_c, 9, 38, 64
10, 132080, Note_on_c, 9, 43, 97
10, 132080, Note_on_c, 9, 38, 52
10, 132106, Note_off_c, 9, 43, 64
10, 132112, Note_off_c, 9, 38, 64
10, 132160, Note_on_c, 9, 43, 99
10, 132160, Note_on_c, 9, 38, 59
10, 132186, Note_off_c, 9, 43, 64
10, 132192, Note_off_c, 9, 38, 64
10, 132240, Note_on_c, 9, 43, 103
10, 132240, Note_on_c, 9, 38, 58
10, 132276, Note_off_c, 9, 38, 64
10, 132294, Note_off_c, 9, 43, 64
10, 132480, Note_on_c, 9, 38, 58
10, 132480, Note_on_c, 9, 43, 83
10, 132516, Note_off_c, 9, 38, 64
10, 132588, Note_off_c, 9, 43, 64
10, 132840, Note_on_c, 9, 38, 36
10, 132876, Note_off_c, 9, 38, 64
10, 132900, Note_on_c, 9, 38, 41
10, 132936, Note_off_c, 9, 38, 64
10, 132960, Note_on_c, 9, 38, 58
10, 132960, Note_on_c, 9, 43, 83
10, 132996, Note_off_c, 9, 38, 64
10, 133008, Note_off_c, 9, 43, 64
10, 133200, Note_on_c, 9, 38, 52
10, 133200, Note_on_c, 9, 43, 83
10, 133232, Note_off_c, 9, 38, 64
10, 133232, Note_off_c, 9, 43, 64
10, 133280, Note_on_c, 9, 38, 58
10, 133280, Note_on_c, 9, 43, 83
10, 133312, Note_off_c, 9, 38, 64
10, 133312, Note_off_c, 9, 43, 64
10, 133360, Note_on_c, 9, 38, 52
10, 133360, Note_on_c, 9, 43, 83
10, 133392, Note_off_c, 9, 38, 64
10, 133392, Note_off_c, 9, 43, 64
10, 133440, Note_on_c, 9, 38, 58
10, 133440, Note_on_c, 9, 43, 83
10, 133476, Note_off_c, 9, 38, 64
10, 133488, Note_off_c, 9, 43, 64
10, 133680, Note_on_c, 9, 38, 52
10, 133680, Note_on_c, 9, 43, 83
10, 133712, Note_off_c, 9, 38, 64
10, 133712, Note_off_c, 9, 43, 64
10, 133760, Note_on_c, 9, 38, 58
10, 133760, Note_on_c, 9, 43, 83
10, 133792, Note_off_c, 9, 38, 64
10, 133792, Note_off_c, 9, 43, 64
10, 133840, Note_on_c, 9, 38, 52
10, 133840, Note_on_c, 9, 43, 83
10, 133872, Note_off_c, 9, 38, 64
10, 133872, Note_off_c, 9, 43, 64
10, 133920, Note_on_c, 9, 38, 64
10, 133920, Note_on_c, 9, 59, 109
10, 133920, Note_on_c, 9, 51, 91
10, 133920, Note_on_c, 9, 36, 64
10, 133952, Note_off_c, 9, 38, 64
10, 133952, Note_off_c, 9, 36, 64
10, 133952, Note_off_c, 9, 51, 64
10, 134000, Note_on_c, 9, 38, 52
10, 134000, Note_on_c, 9, 51, 83
10, 134032, Note_off_c, 9, 38, 64
10, 134032, Note_off_c, 9, 51, 64
10, 134080, Note_on_c, 9, 38, 59
10, 134080, Note_on_c, 9, 51, 83
10, 134112, Note_off_c, 9, 38, 64
10, 134112, Note_off_c, 9, 51, 64
10, 134160, Note_on_c, 9, 38, 52
10, 134160, Note_on_c, 9, 51, 83
10, 134196, Note_off_c, 9, 38, 64
10, 134208, Note_off_c, 9, 51, 64
10, 134264, Note_off_c, 9, 59, 64
10, 134400, Note_on_c, 9, 38, 58
10, 134400, Note_on_c, 9, 43, 83
10, 134436, Note_off_c, 9, 38, 64
10, 134508, Note_off_c, 9, 43, 64
10, 134760, Note_on_c, 9, 38, 36
10, 134796, Note_off_c, 9, 38, 64
10, 134820, Note_on_c, 9, 38, 41
10, 134856, Note_off_c, 9, 38, 64
10, 134880, Note_on_c, 9, 38, 58
10, 134880, Note_on_c, 9, 43, 83
10, 134916, Note_off_c, 9, 38, 64
10, 134928, Note_off_c, 9, 43, 64
10, 135120, Note_on_c, 9, 38, 52
10, 135120, Note_on_c, 9, 43, 83
10, 135152, Note_off_c, 9, 38, 64
10, 135152, Note_off_c, 9, 43, 64
10, 135200, Note_on_c, 9, 38, 58
10, 135200, Note_on_c, 9, 43, 83
10, 135232, Note_off_c, 9, 38, 64
10, 135232, Note_off_c, 9, 43, 64
10, 135280, Note_on_c, 9, 38, 52
10, 135280, Note_on_c, 9, 43, 83
10, 135312, Note_off_c, 9, 38, 64
10, 135312, Note_off_c, 9, 43, 64
10, 135360, Note_on_c, 9, 38, 58
10, 135360, Note_on_c, 9, 43, 83
10, 135396, Note_off_c, 9, 38, 64
10, 135408, Note_off_c, 9, 43, 64
10, 135600, Note_on_c, 9, 38, 52
10, 135600, Note_on_c, 9, 43, 83
10, 135632, Note_off_c, 9, 38, 64
10, 135632, Note_off_c, 9, 43, 64
10, 135680, Note_on_c, 9, 38, 58
10, 135680, Note_on_c, 9, 43, 83
10, 135712, Note_off_c, 9, 38, 64
10, 135712, Note_off_c, 9, 43, 64
10, 135760, Note_on_c, 9, 38, 52
10, 135760, Note_on_c, 9, 43, 83
10, 135792, Note_off_c, 9, 38, 64
10, 135792, Note_off_c, 9, 43, 64
10, 135840, Note_on_c, 9, 38, 64
10, 135840, Note_on_c, 9, 59, 109
10, 135840, Note_on_c, 9, 51, 91
10, 135840, Note_on_c, 9, 36, 64
10, 135872, Note_off_c, 9, 38, 64
10, 135872, Note_off_c, 9, 36, 64
10, 135872, Note_off_c, 9, 51, 64
10, 135920, Note_on_c, 9, 38, 52
10, 135920, Note_on_c, 9, 51, 83
10, 135952, Note_off_c, 9, 38, 64
10, 135952, Note_off_c, 9, 51, 64
10, 136000, Note_on_c, 9, 38, 59
10, 136000, Note_on_c, 9, 51, 83
10, 136032, Note_off_c, 9, 38, 64
10, 136032, Note_off_c, 9, 51, 64
10, 136080, Note_on_c, 9, 38, 52
10, 136080, Note_on_c, 9, 51, 83
10, 136116, Note_off_c, 9, 38, 64
10, 136128, Note_off_c, 9, 51, 64
10, 136184, Note_off_c, 9, 59, 64
10, 136320, Note_on_c, 9, 38, 58
10, 136320, Note_on_c, 9, 43, 83
10, 136320, Note_on_c, 9, 81, 46
10, 136356, Note_off_c, 9, 38, 64
10, 136428, Note_off_c, 9, 43, 64
10, 136680, Note_on_c, 9, 38, 36
10, 136716, Note_off_c, 9, 38, 64
10, 136740, Note_on_c, 9, 38, 41
10, 136776, Note_off_c, 9, 38, 64
10, 136800, Note_on_c, 9, 38, 58
10, 136800, Note_on_c, 9, 43, 83
10, 136836, Note_off_c, 9, 38, 64
10, 136848, Note_off_c, 9, 43, 64
10, 137040, Note_on_c, 9, 38, 52
10, 137040, Note_on_c, 9, 43, 83
10, 137072, Note_off_c, 9, 38, 64
10, 137072, Note_off_c, 9, 43, 64
10, 137120, Note_on_c, 9, 38, 58
10, 137120, Note_on_c, 9, 43, 83
10, 137152, Note_off_c, 9, 38, 64
10, 137152, Note_off_c, 9, 43, 64
10, 137200, Note_on_c, 9, 38, 52
10, 137200, Note_on_c, 9, 43, 83
10, 137232, Note_off_c, 9, 38, 64
10, 137232, Note_off_c, 9, 43, 64
10, 137280, Note_on_c, 9, 38, 58
10, 137280, Note_on_c, 9, 43, 83
10, 137316, Note_off_c, 9, 38, 64
10, 137328, Note_off_c, 9, 43, 64
10, 137520, Note_on_c, 9, 38, 52
10, 137520, Note_on_c, 9, 43, 83
10, 137552, Note_off_c, 9, 38, 64
10, 137552, Note_off_c, 9, 43, 64
10, 137600, Note_on_c, 9, 38, 58
10, 137600, Note_on_c, 9, 43, 83
10, 137632, Note_off_c, 9, 38, 64
10, 137632, Note_off_c, 9, 43, 64
10, 137634, Note_off_c, 9, 81, 64
10, 137680, Note_on_c, 9, 38, 52
10, 137680, Note_on_c, 9, 43, 83
10, 137712, Note_off_c, 9, 38, 64
10, 137712, Note_off_c, 9, 43, 64
10, 137760, Note_on_c, 9, 38, 64
10, 137760, Note_on_c, 9, 59, 109
10, 137760, Note_on_c, 9, 51, 91
10, 137760, Note_on_c, 9, 81, 46
10, 137760, Note_on_c, 9, 36, 64
10, 137792, Note_off_c, 9, 38, 64
10, 137792, Note_off_c, 9, 36, 64
10, 137792, Note_off_c, 9, 51, 64
10, 137840, Note_on_c, 9, 38, 52
10, 137840, Note_on_c, 9, 51, 83
10, 137872, Note_off_c, 9, 38, 64
10, 137872, Note_off_c, 9, 51, 64
10, 137920, Note_on_c, 9, 38, 59
10, 137920, Note_on_c, 9, 51, 83
10, 137952, Note_off_c, 9, 38, 64
10, 137952, Note_off_c, 9, 51, 64
10, 138000, Note_on_c, 9, 38, 52
10, 138000, Note_on_c, 9, 51, 83
10, 138036, Note_off_c, 9, 38, 64
10, 138048, Note_off_c, 9, 51, 64
10, 138104, Note_off_c, 9, 59, 64
10, 138114, Note_off_c, 9, 81, 64
10, 138240, Note_on_c, 9, 38, 58
10, 138240, Note_on_c, 9, 43, 83
10, 138240, Note_on_c, 9, 81, 46
10, 138276, Note_off_c, 9, 38, 64
10, 138348, Note_off_c, 9, 43, 64
10, 138600, Note_on_c, 9, 38, 36
10, 138636, Note_off_c, 9, 38, 64
10, 138660, Note_on_c, 9, 38, 41
10, 138696, Note_off_c, 9, 38, 64
10, 138720, Note_on_c, 9, 38, 58
10, 138720, Note_on_c, 9, 43, 83
10, 138756, Note_off_c, 9, 38, 64
10, 138768, Note_off_c, 9, 43, 64
10, 138960, Note_on_c, 9, 38, 52
10, 138960, Note_on_c, 9, 43, 83
10, 138992, Note_off_c, 9, 38, 64
10, 138992, Note_off_c, 9, 43, 64
10, 139040, Note_on_c, 9, 38, 58
10, 139040, Note_on_c, 9, 43, 83
10, 139072, Note_off_c, 9, 38, 64
10, 139072, Note_off_c, 9, 43, 64
10, 139120, Note_on_c, 9, 38, 52
10, 139120, Note_on_c, 9, 43, 83
10, 139152, Note_off_c, 9, 38, 64
10, 139152, Note_off_c, 9, 43, 64
10, 139200, Note_on_c, 9, 38, 58
10, 139200, Note_on_c, 9, 43, 83
10, 139236, Note_off_c, 9, 38, 64
10, 139248, Note_off_c, 9, 43, 64
10, 139440, Note_on_c, 9, 38, 52
10, 139440, Note_on_c, 9, 43, 83
10, 139472, Note_off_c, 9, 38, 64
10, 139472, Note_off_c, 9, 43, 64
10, 139520, Note_on_c, 9, 38, 58
10, 139520, Note_on_c, 9, 43, 83
10, 139552, Note_off_c, 9, 38, 64
10, 139552, Note_off_c, 9, 43, 64
10, 139554, Note_off_c, 9, 81, 64
10, 139600, Note_on_c, 9, 38, 52
10, 139600, Note_on_c, 9, 43, 83
10, 139632, Note_off_c, 9, 38, 64
10, 139632, Note_off_c, 9, 43, 64
10, 139680, Note_on_c, 9, 38, 64
10, 139680, Note_on_c, 9, 59, 109
10, 139680, Note_on_c, 9, 51, 91
10, 139680, Note_on_c, 9, 81, 46
10, 139680, Note_on_c, 9, 36, 64
10, 139712, Note_off_c, 9, 38, 64
10, 139712, Note_off_c, 9, 36, 64
10, 139712, Note_off_c, 9, 51, 64
10, 139760, Note_on_c, 9, 38, 52
10, 139760, Note_on_c, 9, 51, 83
10, 139792, Note_off_c, 9, 38, 64
10, 139792, Note_off_c, 9, 51, 64
10, 139840, Note_on_c, 9, 38, 59
10, 139840, Note_on_c, 9, 51, 83
10, 139872, Note_off_c, 9, 38, 64
10, 139872, Note_off_c, 9, 51, 64
10, 139920, Note_on_c, 9, 38, 52
10, 139920, Note_on_c, 9, 51, 83
10, 139956, Note_off_c, 9, 38, 64
10, 139968, Note_off_c, 9, 51, 64
10, 140024, Note_off_c, 9, 59, 64
10, 140034, Note_off_c, 9, 81, 64
10, 140160, Note_on_c, 9, 81, 46
10, 140160, Note_on_c, 9, 59, 109
10, 140160, Note_on_c, 9, 43, 91
10, 140160, Note_on_c, 9, 38, 73
10, 140188, Note_off_c, 9, 38, 64
10, 140200, Note_on_c, 9, 38, 45
10, 140216, Note_off_c, 9, 59, 64
10, 140228, Note_off_c, 9, 38, 64
10, 140240, Note_on_c, 9, 38, 37
10, 140268, Note_off_c, 9, 43, 64
10, 140268, Note_off_c, 9, 38, 64
10, 140280, Note_on_c, 9, 38, 32
10, 140308, Note_off_c, 9, 38, 64
10, 140320, Note_on_c, 9, 38, 28
10, 140348, Note_off_c, 9, 38, 64
10, 140360, Note_on_c, 9, 38, 28
10, 140388, Note_off_c, 9, 38, 64
10, 140400, Note_on_c, 9, 38, 26
10, 140428, Note_off_c, 9, 38, 64
10, 140440, Note_on_c, 9, 38, 26
10, 140468, Note_off_c, 9, 38, 64
10, 140480, Note_on_c, 9, 38, 26
10, 140508, Note_off_c, 9, 38, 64
10, 140520, Note_on_c, 9, 38, 26
10, 140548, Note_off_c, 9, 38, 64
10, 140560, Note_on_c, 9, 38, 26
10, 140588, Note_off_c, 9, 38, 64
10, 140600, Note_on_c, 9, 38, 26
10, 140628, Note_off_c, 9, 38, 64
10, 140640, Note_on_c, 9, 38, 26
10, 140668, Note_off_c, 9, 38, 64
10, 140680, Note_on_c, 9, 38, 26
10, 140708, Note_off_c, 9, 38, 64
10, 140720, Note_on_c, 9, 38, 26
10, 140748, Note_off_c, 9, 38, 64
10, 140760, Note_on_c, 9, 38, 26
10, 140788, Note_off_c, 9, 38, 64
10, 140800, Note_on_c, 9, 38, 26
10, 140828, Note_off_c, 9, 38, 64
10, 140840, Note_on_c, 9, 38, 26
10, 140868, Note_off_c, 9, 38, 64
10, 140880, Note_on_c, 9, 38, 26
10, 140908, Note_off_c, 9, 38, 64
10, 140920, Note_on_c, 9, 38, 26
10, 140948, Note_off_c, 9, 38, 64
10, 140960, Note_on_c, 9, 38, 26
10, 140988, Note_off_c, 9, 38, 64
10, 141000, Note_on_c, 9, 38, 27
10, 141028, Note_off_c, 9, 38, 64
10, 141040, Note_on_c, 9, 38, 27
10, 141068, Note_off_c, 9, 38, 64
10, 141080, Note_on_c, 9, 38, 27
10, 141108, Note_off_c, 9, 38, 64
10, 141120, Note_on_c, 9, 38, 27
10, 141148, Note_off_c, 9, 38, 64
10, 141160, Note_on_c, 9, 38, 27
10, 141188, Note_off_c, 9, 38, 64
10, 141200, Note_on_c, 9, 38, 27
10, 141228, Note_off_c, 9, 38, 64
10, 141240, Note_on_c, 9, 38, 27
10, 141268, Note_off_c, 9, 38, 64
10, 141280, Note_on_c, 9, 38, 27
10, 141308, Note_off_c, 9, 38, 64
10, 141320, Note_on_c, 9, 38, 27
10, 141348, Note_off_c, 9, 38, 64
10, 141360, Note_on_c, 9, 38, 27
10, 141388, Note_off_c, 9, 38, 64
10, 141400, Note_on_c, 9, 38, 27
10, 141428, Note_off_c, 9, 38, 64
10, 141440, Note_on_c, 9, 38, 28
10, 141468, Note_off_c, 9, 38, 64
10, 141474, Note_off_c, 9, 81, 64
10, 141480, Note_on_c, 9, 38, 28
10, 141508, Note_off_c, 9, 38, 64
10, 141520, Note_on_c, 9, 38, 28
10, 141548, Note_off_c, 9, 38, 64
10, 141560, Note_on_c, 9, 38, 28
10, 141588, Note_off_c, 9, 38, 64
10, 141600, Note_on_c, 9, 38, 28
10, 141628, Note_off_c, 9, 38, 64
10, 141640, Note_on_c, 9, 38, 28
10, 141668, Note_off_c, 9, 38, 64
10, 141680, Note_on_c, 9, 38, 28
10, 141708, Note_off_c, 9, 38, 64
10, 141720, Note_on_c, 9, 38, 28
10, 141748, Note_off_c, 9, 38, 64
10, 141760, Note_on_c, 9, 38, 29
10, 141788, Note_off_c, 9, 38, 64
10, 141800, Note_on_c, 9, 38, 29
10, 141828, Note_off_c, 9, 38, 64
10, 141840, Note_on_c, 9, 38, 29
10, 141868, Note_off_c, 9, 38, 64
10, 141880, Note_on_c, 9, 38, 29
10, 141908, Note_off_c, 9, 38, 64
10, 141920, Note_on_c, 9, 38, 29
10, 141948, Note_off_c, 9, 38, 64
10, 141960, Note_on_c, 9, 38, 31
10, 141988, Note_off_c, 9, 38, 64
10, 142000, Note_on_c, 9, 38, 31
10, 142028, Note_off_c, 9, 38, 64
10, 142040, Note_on_c, 9, 38, 31
10, 142068, Note_off_c, 9, 38, 64
10, 142080, Note_on_c, 9, 38, 31
10, 142108, Note_off_c, 9, 38, 64
10, 142120, Note_on_c, 9, 38, 31
10, 142148, Note_off_c, 9, 38, 64
10, 142160, Note_on_c, 9, 38, 32
10, 142188, Note_off_c, 9, 38, 64
10, 142200, Note_on_c, 9, 38, 32
10, 142228, Note_off_c, 9, 38, 64
10, 142240, Note_on_c, 9, 38, 32
10, 142268, Note_off_c, 9, 38, 64
10, 142280, Note_on_c, 9, 38, 32
10, 142308, Note_off_c, 9, 38, 64
10, 142320, Note_on_c, 9, 38, 33
10, 142348, Note_off_c, 9, 38, 64
10, 142360, Note_on_c, 9, 38, 33
10, 142388, Note_off_c, 9, 38, 64
10, 142400, Note_on_c, 9, 38, 33
10, 142428, Note_off_c, 9, 38, 64
10, 142440, Note_on_c, 9, 38, 33
10, 142468, Note_off_c, 9, 38, 64
10, 142480, Note_on_c, 9, 38, 34
10, 142508, Note_off_c, 9, 38, 64
10, 142520, Note_on_c, 9, 38, 34
10, 142548, Note_off_c, 9, 38, 64
10, 142560, Note_on_c, 9, 38, 34
10, 142588, Note_off_c, 9, 38, 64
10, 142600, Note_on_c, 9, 38, 34
10, 142628, Note_off_c, 9, 38, 64
10, 142640, Note_on_c, 9, 38, 36
10, 142668, Note_off_c, 9, 38, 64
10, 142680, Note_on_c, 9, 38, 36
10, 142708, Note_off_c, 9, 38, 64
10, 142720, Note_on_c, 9, 38, 36
10, 142748, Note_off_c, 9, 38, 64
10, 142760, Note_on_c, 9, 38, 37
10, 142788, Note_off_c, 9, 38, 64
10, 142800, Note_on_c, 9, 38, 37
10, 142828, Note_off_c, 9, 38, 64
10, 142840, Note_on_c, 9, 38, 38
10, 142868, Note_off_c, 9, 38, 64
10, 142880, Note_on_c, 9, 38, 38
10, 142908, Note_off_c, 9, 38, 64
10, 142920, Note_on_c, 9, 38, 38
10, 142948, Note_off_c, 9, 38, 64
10, 142960, Note_on_c, 9, 38, 39
10, 142988, Note_off_c, 9, 38, 64
10, 143000, Note_on_c, 9, 38, 39
10, 143028, Note_off_c, 9, 38, 64
10, 143040, Note_on_c, 9, 57, 27
10, 143040, Note_on_c, 9, 38, 39
10, 143068, Note_off_c, 9, 38, 64
10, 143070, Note_off_c, 9, 57, 64
10, 143070, Note_on_c, 9, 57, 27
10, 143080, Note_on_c, 9, 38, 41
10, 143100, Note_off_c, 9, 57, 64
10, 143100, Note_on_c, 9, 57, 27
10, 143108, Note_off_c, 9, 38, 64
10, 143120, Note_on_c, 9, 38, 41
10, 143130, Note_off_c, 9, 57, 64
10, 143130, Note_on_c, 9, 57, 28
10, 143148, Note_off_c, 9, 38, 64
10, 143160, Note_off_c, 9, 57, 64
10, 143160, Note_on_c, 9, 57, 28
10, 143160, Note_on_c, 9, 38, 42
10, 143188, Note_off_c, 9, 38, 64
10, 143190, Note_off_c, 9, 57, 64
10, 143190, Note_on_c, 9, 57, 29
10, 143200, Note_on_c, 9, 38, 42
10, 143220, Note_off_c, 9, 57, 64
10, 143220, Note_on_c, 9, 57, 29
10, 143228, Note_off_c, 9, 38, 64
10, 143240, Note_on_c, 9, 38, 43
10, 143250, Note_off_c, 9, 57, 64
10, 143250, Note_on_c, 9, 57, 31
10, 143268, Note_off_c, 9, 38, 64
10, 143280, Note_off_c, 9, 57, 64
10, 143280, Note_on_c, 9, 57, 31
10, 143280, Note_on_c, 9, 38, 43
10, 143308, Note_off_c, 9, 38, 64
10, 143310, Note_off_c, 9, 57, 64
10, 143310, Note_on_c, 9, 57, 32
10, 143320, Note_on_c, 9, 38, 45
10, 143340, Note_off_c, 9, 57, 64
10, 143340, Note_on_c, 9, 57, 33
10, 143348, Note_off_c, 9, 38, 64
10, 143360, Note_on_c, 9, 38, 45
10, 143370, Note_off_c, 9, 57, 64
10, 143370, Note_on_c, 9, 57, 34
10, 143388, Note_off_c, 9, 38, 64
10, 143400, Note_off_c, 9, 57, 64
10, 143400, Note_on_c, 9, 57, 36
10, 143400, Note_on_c, 9, 38, 46
10, 143428, Note_off_c, 9, 38, 64
10, 143430, Note_off_c, 9, 57, 64
10, 143430, Note_on_c, 9, 57, 37
10, 143440, Note_on_c, 9, 38, 47
10, 143460, Note_off_c, 9, 57, 64
10, 143460, Note_on_c, 9, 57, 38
10, 143468, Note_off_c, 9, 38, 64
10, 143480, Note_on_c, 9, 38, 47
10, 143490, Note_off_c, 9, 57, 64
10, 143490, Note_on_c, 9, 57, 41
10, 143508, Note_off_c, 9, 38, 64
10, 143520, Note_off_c, 9, 57, 64
10, 143520, Note_on_c, 9, 57, 42
10, 143520, Note_on_c, 9, 38, 48
10, 143548, Note_off_c, 9, 38, 64
10, 143550, Note_off_c, 9, 57, 64
10, 143550, Note_on_c, 9, 57, 43
10, 143560, Note_on_c, 9, 38, 50
10, 143580, Note_off_c, 9, 57, 64
10, 143580, Note_on_c, 9, 57, 46
10, 143588, Note_off_c, 9, 38, 64
10, 143600, Note_on_c, 9, 38, 50
10, 143610, Note_off_c, 9, 57, 64
10, 143610, Note_on_c, 9, 57, 48
10, 143628, Note_off_c, 9, 38, 64
10, 143640, Note_off_c, 9, 57, 64
10, 143640, Note_on_c, 9, 57, 50
10, 143640, Note_on_c, 9, 38, 52
10, 143668, Note_off_c, 9, 38, 64
10, 143670, Note_off_c, 9, 57, 64
10, 143670, Note_on_c, 9, 57, 54
10, 143680, Note_on_c, 9, 38, 53
10, 143700, Note_off_c, 9, 57, 64
10, 143700, Note_on_c, 9, 57, 57
10, 143708, Note_off_c, 9, 38, 64
10, 143720, Note_on_c, 9, 38, 54
10, 143730, Note_off_c, 9, 57, 64
10, 143730, Note_on_c, 9, 57, 59
10, 143748, Note_off_c, 9, 38, 64
10, 143760, Note_off_c, 9, 57, 64
10, 143760, Note_on_c, 9, 57, 63
10, 143760, Note_on_c, 9, 38, 56
10, 143788, Note_off_c, 9, 38, 64
10, 143790, Note_off_c, 9, 57, 64
10, 143790, Note_on_c, 9, 57, 67
10, 143800, Note_on_c, 9, 38, 57
10, 143820, Note_off_c, 9, 57, 64
10, 143820, Note_on_c, 9, 57, 71
10, 143828, Note_off_c, 9, 38, 64
10, 143840, Note_on_c, 9, 38, 58
10, 143850, Note_off_c, 9, 57, 64
10, 143850, Note_on_c, 9, 57, 76
10, 143868, Note_off_c, 9, 38, 64
10, 143880, Note_off_c, 9, 57, 64
10, 143880, Note_on_c, 9, 57, 79
10, 143880, Note_on_c, 9, 38, 59
10, 143908, Note_off_c, 9, 38, 64
10, 143910, Note_off_c, 9, 57, 64
10, 143910, Note_on_c, 9, 57, 88
10, 143920, Note_on_c, 9, 38, 62
10, 143940, Note_off_c, 9, 57, 64
10, 143940, Note_on_c, 9, 57, 93
10, 143948, Note_off_c, 9, 38, 64
10, 143960, Note_on_c, 9, 38, 64
10, 143970, Note_off_c, 9, 57, 64
10, 143970, Note_on_c, 9, 57, 104
10, 143988, Note_off_c, 9, 38, 64
10, 144000, Note_off_c, 9, 57, 64
10, 144000, Note_on_c, 9, 59, 117
10, 144000, Note_on_c, 9, 38, 71
10, 144000, Note_on_c, 9, 43, 109
10, 144108, Note_off_c, 9, 38, 64
10, 144108, Note_off_c, 9, 43, 64
10, 144480, Note_on_c, 9, 43, 104
10, 144528, Note_off_c, 9, 43, 64
10, 144720, Note_on_c, 9, 43, 104
10, 144752, Note_off_c, 9, 43, 64
10, 144800, Note_on_c, 9, 43, 104
10, 144832, Note_off_c, 9, 43, 64
10, 144880, Note_on_c, 9, 43, 104
10, 144888, Note_off_c, 9, 59, 64
10, 144912, Note_off_c, 9, 43, 64
10, 144960, Note_on_c, 9, 43, 104
10, 145008, Note_off_c, 9, 43, 64
10, 145200, Note_on_c, 9, 43, 104
10, 145232, Note_off_c, 9, 43, 64
10, 145280, Note_on_c, 9, 43, 104
10, 145312, Note_off_c, 9, 43, 64
10, 145360, Note_on_c, 9, 43, 104
10, 145392, Note_off_c, 9, 43, 64
10, 145440, Note_on_c, 9, 43, 109
10, 145440, Note_on_c, 9, 59, 125
10, 145472, Note_off_c, 9, 43, 64
10, 145520, Note_on_c, 9, 43, 104
10, 145552, Note_off_c, 9, 43, 64
10, 145600, Note_on_c, 9, 43, 104
10, 145632, Note_off_c, 9, 43, 64
10, 145680, Note_on_c, 9, 43, 104
10, 145728, Note_off_c, 9, 43, 64
10, 145808, Note_off_c, 9, 59, 64
10, 145920, Note_on_c, 9, 43, 109
10, 146028, Note_off_c, 9, 43, 64
10, 146400, Note_on_c, 9, 43, 104
10, 146448, Note_off_c, 9, 43, 64
10, 146640, Note_on_c, 9, 43, 104
10, 146672, Note_off_c, 9, 43, 64
10, 146720, Note_on_c, 9, 43, 104
10, 146752, Note_off_c, 9, 43, 64
10, 146800, Note_on_c, 9, 43, 104
10, 146832, Note_off_c, 9, 43, 64
10, 146880, Note_on_c, 9, 43, 104
10, 146928, Note_off_c, 9, 43, 64
10, 147120, Note_on_c, 9, 43, 104
10, 147152, Note_off_c, 9, 43, 64
10, 147200, Note_on_c, 9, 43, 104
10, 147232, Note_off_c, 9, 43, 64
10, 147280, Note_on_c, 9, 43, 104
10, 147312, Note_off_c, 9, 43, 64
10, 147360, Note_on_c, 9, 43, 109
10, 147360, Note_on_c, 9, 59, 125
10, 147392, Note_off_c, 9, 43, 64
10, 147440, Note_on_c, 9, 43, 102
10, 147472, Note_off_c, 9, 43, 64
10, 147520, Note_on_c, 9, 43, 107
10, 147552, Note_off_c, 9, 43, 64
10, 147600, Note_on_c, 9, 43, 112
10, 147648, Note_off_c, 9, 43, 64
10, 147728, Note_off_c, 9, 59, 64
10, 147840, Note_on_c, 9, 43, 109
10, 147840, Note_on_c, 9, 59, 125
10, 147872, Note_off_c, 9, 43, 64
10, 147896, Note_off_c, 9, 59, 64
10, 147920, Note_on_c, 9, 43, 104
10, 147952, Note_off_c, 9, 43, 64
10, 148000, Note_on_c, 9, 43, 104
10, 148032, Note_off_c, 9, 43, 64
10, 148080, Note_on_c, 9, 48, 104
10, 148128, Note_off_c, 9, 48, 64
10, 150720, Note_on_c, 9, 38, 26
10, 150748, Note_off_c, 9, 38, 64
10, 150760, Note_on_c, 9, 38, 26
10, 150788, Note_off_c, 9, 38, 64
10, 150800, Note_on_c, 9, 38, 26
10, 150828, Note_off_c, 9, 38, 64
10, 150840, Note_on_c, 9, 38, 26
10, 150868, Note_off_c, 9, 38, 64
10, 150880, Note_on_c, 9, 38, 26
10, 150908, Note_off_c, 9, 38, 64
10, 150920, Note_on_c, 9, 38, 27
10, 150948, Note_off_c, 9, 38, 64
10, 150960, Note_on_c, 9, 38, 27
10, 150988, Note_off_c, 9, 38, 64
10, 151000, Note_on_c, 9, 38, 27
10, 151028, Note_off_c, 9, 38, 64
10, 151040, Note_on_c, 9, 38, 28
10, 151068, Note_off_c, 9, 38, 64
10, 151080, Note_on_c, 9, 38, 28
10, 151108, Note_off_c, 9, 38, 64
10, 151120, Note_on_c, 9, 38, 28
10, 151148, Note_off_c, 9, 38, 64
10, 151160, Note_on_c, 9, 38, 29
10, 151188, Note_off_c, 9, 38, 64
10, 151200, Note_on_c, 9, 38, 29
10, 151200, Note_on_c, 9, 81, 27
10, 151228, Note_off_c, 9, 38, 64
10, 151236, Note_off_c, 9, 81, 64
10, 151240, Note_on_c, 9, 38, 31
10, 151260, Note_on_c, 9, 81, 28
10, 151268, Note_off_c, 9, 38, 64
10, 151280, Note_on_c, 9, 38, 32
10, 151296, Note_off_c, 9, 81, 64
10, 151308, Note_off_c, 9, 38, 64
10, 151320, Note_on_c, 9, 38, 33
10, 151320, Note_on_c, 9, 81, 31
10, 151348, Note_off_c, 9, 38, 64
10, 151356, Note_off_c, 9, 81, 64
10, 151360, Note_on_c, 9, 38, 34
10, 151380, Note_on_c, 9, 81, 33
10, 151388, Note_off_c, 9, 38, 64
10, 151400, Note_on_c, 9, 38, 36
10, 151416, Note_off_c, 9, 81, 64
10, 151428, Note_off_c, 9, 38, 64
10, 151440, Note_on_c, 9, 38, 37
10, 151440, Note_on_c, 9, 81, 36
10, 151468, Note_off_c, 9, 38, 64
10, 151476, Note_off_c, 9, 81, 64
10, 151480, Note_on_c, 9, 38, 38
10, 151500, Note_on_c, 9, 81, 39
10, 151508, Note_off_c, 9, 38, 64
10, 151520, Note_on_c, 9, 38, 41
10, 151536, Note_off_c, 9, 81, 64
10, 151548, Note_off_c, 9, 38, 64
10, 151560, Note_on_c, 9, 38, 42
10, 151560, Note_on_c, 9, 81, 42
10, 151588, Note_off_c, 9, 38, 64
10, 151596, Note_off_c, 9, 81, 64
10, 151600, Note_on_c, 9, 38, 46
10, 151620, Note_on_c, 9, 81, 53
10, 151628, Note_off_c, 9, 38, 64
10, 151640, Note_on_c, 9, 38, 50
10, 151656, Note_off_c, 9, 81, 64
10, 151668, Note_off_c, 9, 38, 64
10, 151680, Note_on_c, 9, 38, 58
10, 151680, Note_on_c, 9, 81, 52
10, 151680, Note_on_c, 9, 43, 109
10, 151716, Note_off_c, 9, 38, 64
10, 151800, Note_off_c, 9, 43, 64
10, 152160, Note_on_c, 9, 38, 58
10, 152196, Note_off_c, 9, 38, 64
10, 152400, Note_on_c, 9, 38, 52
10, 152432, Note_off_c, 9, 38, 64
10, 152480, Note_on_c, 9, 38, 58
10, 152512, Note_off_c, 9, 38, 64
10, 152514, Note_off_c, 9, 81, 64
10, 152560, Note_on_c, 9, 38, 52
10, 152592, Note_off_c, 9, 38, 64
10, 152640, Note_on_c, 9, 38, 52
10, 152640, Note_on_c, 9, 81, 41
10, 152640, Note_on_c, 9, 42, 103
10, 152672, Note_off_c, 9, 38, 64
10, 152720, Note_on_c, 9, 38, 58
10, 152732, Note_off_c, 9, 42, 64
10, 152752, Note_off_c, 9, 38, 64
10, 152754, Note_off_c, 9, 81, 64
10, 152800, Note_on_c, 9, 38, 52
10, 152832, Note_off_c, 9, 38, 64
10, 152880, Note_on_c, 9, 38, 58
10, 152880, Note_on_c, 9, 81, 46
10, 152880, Note_on_c, 9, 43, 103
10, 152916, Note_off_c, 9, 38, 64
10, 152964, Note_off_c, 9, 43, 64
10, 152994, Note_off_c, 9, 81, 64
10, 153120, Note_on_c, 9, 59, 127
10, 153360, Note_on_c, 9, 38, 52
10, 153392, Note_off_c, 9, 38, 64
10, 153440, Note_on_c, 9, 38, 58
10, 153472, Note_off_c, 9, 38, 64
10, 153488, Note_off_c, 9, 59, 64
10, 153520, Note_on_c, 9, 38, 52
10, 153552, Note_off_c, 9, 38, 64
10, 153600, Note_on_c, 9, 38, 52
10, 153600, Note_on_c, 9, 81, 41
10, 153600, Note_on_c, 9, 42, 103
10, 153632, Note_off_c, 9, 38, 64
10, 153680, Note_on_c, 9, 38, 58
10, 153692, Note_off_c, 9, 42, 64
10, 153712, Note_off_c, 9, 38, 64
10, 153714, Note_off_c, 9, 81, 64
10, 153760, Note_on_c, 9, 38, 52
10, 153792, Note_off_c, 9, 38, 64
10, 153840, Note_on_c, 9, 38, 52
10, 153840, Note_on_c, 9, 81, 46
10, 153840, Note_on_c, 9, 43, 97
10, 153872, Note_off_c, 9, 38, 64
10, 153924, Note_off_c, 9, 43, 64
10, 153954, Note_off_c, 9, 81, 64
10, 154080, Note_on_c, 9, 59, 127
10, 154320, Note_on_c, 9, 38, 52
10, 154352, Note_off_c, 9, 38, 64
10, 154400, Note_on_c, 9, 38, 58
10, 154432, Note_off_c, 9, 38, 64
10, 154448, Note_off_c, 9, 59, 64
10, 154480, Note_on_c, 9, 38, 52
10, 154512, Note_off_c, 9, 38, 64
10, 154560, Note_on_c, 9, 38, 52
10, 154560, Note_on_c, 9, 81, 46
10, 154592, Note_off_c, 9, 38, 64
10, 154800, Note_on_c, 9, 38, 52
10, 154800, Note_on_c, 9, 50, 83
10, 154832, Note_off_c, 9, 38, 64
10, 154832, Note_off_c, 9, 50, 64
10, 154880, Note_on_c, 9, 38, 58
10, 154880, Note_on_c, 9, 50, 96
10, 154912, Note_off_c, 9, 38, 64
10, 154912, Note_off_c, 9, 50, 64
10, 154960, Note_on_c, 9, 38, 64
10, 154960, Note_on_c, 9, 50, 104
10, 154992, Note_off_c, 9, 38, 64
10, 154992, Note_off_c, 9, 50, 64
10, 155040, Note_on_c, 9, 59, 127
10, 155040, Note_on_c, 9, 43, 109
10, 155040, Note_on_c, 9, 38, 71
10, 155072, Note_off_c, 9, 38, 64
10, 155088, Note_off_c, 9, 43, 64
10, 155144, Note_off_c, 9, 59, 64
10, 155394, Note_off_c, 9, 81, 64
10, 155520, Control_c, 9, 99, 7
10, 155521, Control_c, 9, 99, 2
10, 155522, Control_c, 9, 99, 23
10, 159360, Control_c, 9, 123, 0
10, 159360, End_track
11, 0, Start_track
11, 0, Text_t, "Glockenspiel"
11, 0, Program_c, 8, 9
11, 0, Control_c, 8, 10, 25
11, 0, Control_c, 8, 93, 5
11, 0, Control_c, 8, 91, 127
11, 0, Control_c, 8, 11, 127
11, 0, Control_c, 8, 7, 69
11, 0, Control_c, 8, 123, 0
11, 64567, Note_on_c, 8, 93, 67
11, 64622, Note_off_c, 8, 93, 64
11, 64806, Note_on_c, 8, 92, 68
11, 64874, Note_off_c, 8, 92, 64
11, 65046, Note_on_c, 8, 89, 68
11, 65100, Note_off_c, 8, 89, 64
11, 65289, Note_on_c, 8, 86, 69
11, 65355, Note_off_c, 8, 86, 64
11, 65528, Note_on_c, 8, 83, 66
11, 65583, Note_off_c, 8, 83, 64
11, 65769, Note_on_c, 8, 80, 64
11, 65837, Note_off_c, 8, 80, 64
11, 66009, Note_on_c, 8, 77, 59
11, 66063, Note_off_c, 8, 77, 64
11, 71285, Note_on_c, 8, 93, 69
11, 71340, Note_off_c, 8, 93, 64
11, 71526, Note_on_c, 8, 92, 65
11, 71593, Note_off_c, 8, 92, 64
11, 71763, Note_on_c, 8, 83, 68
11, 71817, Note_off_c, 8, 83, 64
11, 72009, Note_on_c, 8, 89, 68
11, 72075, Note_off_c, 8, 89, 64
11, 72248, Note_on_c, 8, 88, 69
11, 72302, Note_off_c, 8, 88, 64
11, 72484, Note_on_c, 8, 84, 66
11, 72552, Note_off_c, 8, 84, 64
11, 72727, Note_on_c, 8, 81, 59
11, 72782, Note_off_c, 8, 81, 64
11, 109446, Note_on_c, 8, 91, 96
11, 109841, Note_off_c, 8, 91, 64
11, 109928, Note_on_c, 8, 79, 96
11, 110322, Note_off_c, 8, 79, 64
11, 110409, Note_on_c, 8, 91, 98
11, 110827, Note_off_c, 8, 91, 64
11, 110889, Note_on_c, 8, 90, 98
11, 111164, Note_off_c, 8, 90, 64
11, 111246, Note_on_c, 8, 89, 94
11, 111292, Note_off_c, 8, 89, 64
11, 111369, Note_on_c, 8, 88, 104
11, 111415, Note_off_c, 8, 88, 64
11, 111489, Note_on_c, 8, 87, 96
11, 111524, Note_off_c, 8, 87, 64
11, 111608, Note_on_c, 8, 88, 98
11, 111678, Note_off_c, 8, 88, 64
11, 112089, Note_on_c, 8, 80, 96
11, 112148, Note_off_c, 8, 80, 64
11, 112327, Note_on_c, 8, 85, 97
11, 112745, Note_off_c, 8, 85, 64
11, 112806, Note_on_c, 8, 84, 98
11, 113080, Note_off_c, 8, 84, 64
11, 113168, Note_on_c, 8, 83, 98
11, 113214, Note_off_c, 8, 83, 64
11, 113287, Note_on_c, 8, 82, 101
11, 113333, Note_off_c, 8, 82, 64
11, 113406, Note_on_c, 8, 81, 97
11, 113440, Note_off_c, 8, 81, 64
11, 113524, Note_on_c, 8, 82, 98
11, 113594, Note_off_c, 8, 82, 64
11, 114005, Note_on_c, 8, 75, 98
11, 114063, Note_off_c, 8, 75, 64
11, 114249, Note_on_c, 8, 78, 98
11, 114644, Note_off_c, 8, 78, 64
11, 114729, Note_on_c, 8, 75, 103
11, 115005, Note_off_c, 8, 75, 64
11, 115088, Note_on_c, 8, 82, 96
11, 115134, Note_off_c, 8, 82, 64
11, 115207, Note_on_c, 8, 79, 95
11, 115601, Note_off_c, 8, 79, 64
11, 115682, Note_on_c, 8, 75, 102
11, 115956, Note_off_c, 8, 75, 64
11, 116046, Note_on_c, 8, 82, 98
11, 116092, Note_off_c, 8, 82, 64
11, 116169, Note_on_c, 8, 79, 97
11, 117043, Note_off_c, 8, 79, 64
11, 124809, Note_on_c, 8, 91, 104
11, 125204, Note_off_c, 8, 91, 64
11, 125282, Note_on_c, 8, 79, 99
11, 125677, Note_off_c, 8, 79, 64
11, 125769, Note_on_c, 8, 91, 103
11, 126187, Note_off_c, 8, 91, 64
11, 126248, Note_on_c, 8, 90, 104
11, 126522, Note_off_c, 8, 90, 64
11, 126605, Note_on_c, 8, 89, 104
11, 126651, Note_off_c, 8, 89, 64
11, 126723, Note_on_c, 8, 88, 107
11, 126769, Note_off_c, 8, 88, 64
11, 126843, Note_on_c, 8, 87, 104
11, 126877, Note_off_c, 8, 87, 64
11, 126966, Note_on_c, 8, 88, 103
11, 127036, Note_off_c, 8, 88, 64
11, 127448, Note_on_c, 8, 80, 102
11, 127506, Note_off_c, 8, 80, 64
11, 127688, Note_on_c, 8, 85, 100
11, 128107, Note_off_c, 8, 85, 64
11, 128168, Note_on_c, 8, 84, 102
11, 128445, Note_off_c, 8, 84, 64
11, 128519, Note_on_c, 8, 83, 101
11, 128566, Note_off_c, 8, 83, 64
11, 128648, Note_on_c, 8, 82, 106
11, 128694, Note_off_c, 8, 82, 64
11, 128768, Note_on_c, 8, 81, 104
11, 128802, Note_off_c, 8, 81, 64
11, 128885, Note_on_c, 8, 82, 104
11, 128957, Note_off_c, 8, 82, 64
11, 129364, Note_on_c, 8, 75, 104
11, 129422, Note_off_c, 8, 75, 64
11, 129605, Note_on_c, 8, 78, 104
11, 129999, Note_off_c, 8, 78, 64
11, 130088, Note_on_c, 8, 75, 108
11, 130363, Note_off_c, 8, 75, 64
11, 130447, Note_on_c, 8, 82, 101
11, 130493, Note_off_c, 8, 82, 64
11, 130556, Note_on_c, 8, 79, 103
11, 130952, Note_off_c, 8, 79, 64
11, 131048, Note_on_c, 8, 75, 107
11, 131323, Note_off_c, 8, 75, 64
11, 131405, Note_on_c, 8, 82, 104
11, 131451, Note_off_c, 8, 82, 64
11, 131529, Note_on_c, 8, 79, 104
11, 131923, Note_off_c, 8, 79, 64
11, 151686, Note_on_c, 8, 79, 99
11, 151689, Note_on_c, 8, 91, 104
11, 151780, Note_off_c, 8, 79, 64
11, 151784, Note_off_c, 8, 91, 64
11, 152644, Note_on_c, 8, 75, 91
11, 152646, Note_on_c, 8, 87, 91
11, 152711, Note_off_c, 8, 75, 64
11, 152713, Note_off_c, 8, 87, 64
11, 152888, Note_on_c, 8, 91, 97
11, 152889, Note_on_c, 8, 79, 98
11, 152947, Note_off_c, 8, 91, 64
11, 152947, Note_off_c, 8, 79, 64
11, 153606, Note_on_c, 8, 87, 86
11, 153606, Note_on_c, 8, 75, 91
11, 153672, Note_off_c, 8, 87, 64
11, 153672, Note_off_c, 8, 75, 64
11, 153848, Note_on_c, 8, 91, 93
11, 153849, Note_on_c, 8, 79, 97
11, 153906, Note_off_c, 8, 91, 64
11, 153908, Note_off_c, 8, 79, 64
11, 154565, Note_on_c, 8, 91, 101
11, 154568, Note_on_c, 8, 79, 97
11, 154659, Note_off_c, 8, 91, 64
11, 154662, Note_off_c, 8, 79, 64
11, 159360, Control_c, 8, 123, 0
11, 159360, End_track
12, 0, Start_track
12, 0, Text_t, "Harp"
12, 0, Program_c, 12, 46
12, 0, Control_c, 12, 93, 5
12, 0, Control_c, 12, 91, 127
12, 0, Control_c, 12, 11, 127
12, 0, Control_c, 12, 10, 20
12, 0, Control_c, 12, 7, 69
12, 0, Control_c, 12, 123, 0
12, 35622, Note_on_c, 12, 43, 63
12, 35679, Note_on_c, 12, 45, 63
12, 35701, Note_off_c, 12, 43, 64
12, 35708, Note_on_c, 12, 46, 61
12, 35734, Note_off_c, 12, 45, 64
12, 35736, Note_on_c, 12, 48, 62
12, 35764, Note_off_c, 12, 46, 64
12, 35764, Note_on_c, 12, 50, 62
12, 35791, Note_off_c, 12, 48, 64
12, 35797, Note_on_c, 12, 51, 60
12, 35819, Note_off_c, 12, 50, 64
12, 35828, Note_on_c, 12, 54, 64
12, 35852, Note_off_c, 12, 51, 64
12, 35854, Note_on_c, 12, 55, 63
12, 35884, Note_off_c, 12, 54, 64
12, 35887, Note_on_c, 12, 57, 64
12, 35909, Note_off_c, 12, 55, 64
12, 35912, Note_on_c, 12, 58, 64
12, 35943, Note_off_c, 12, 57, 64
12, 35946, Note_on_c, 12, 60, 65
12, 35967, Note_off_c, 12, 58, 64
12, 35973, Note_on_c, 12, 62, 63
12, 36001, Note_off_c, 12, 60, 64
12, 36005, Note_on_c, 12, 63, 62
12, 36028, Note_off_c, 12, 62, 64
12, 36039, Note_on_c, 12, 66, 60
12, 36060, Note_off_c, 12, 63, 64
12, 36062, Note_on_c, 12, 67, 67
12, 36097, Note_off_c, 12, 66, 64
12, 36098, Note_on_c, 12, 69, 64
12, 36118, Note_off_c, 12, 67, 64
12, 36128, Note_on_c, 12, 70, 68
12, 36155, Note_off_c, 12, 69, 64
12, 36157, Note_on_c, 12, 72, 68
12, 36184, Note_off_c, 12, 70, 64
12, 36186, Note_on_c, 12, 74, 66
12, 36213, Note_off_c, 12, 72, 64
12, 36219, Note_on_c, 12, 75, 70
12, 36241, Note_off_c, 12, 74, 64
12, 36249, Note_on_c, 12, 78, 71
12, 36275, Note_off_c, 12, 75, 64
12, 36279, Note_on_c, 12, 79, 73
12, 36303, Note_on_c, 12, 81, 72
12, 36304, Note_off_c, 12, 78, 64
12, 36334, Note_off_c, 12, 79, 64
12, 36336, Note_on_c, 12, 82, 74
12, 36358, Note_off_c, 12, 81, 64
12, 36364, Note_on_c, 12, 84, 73
12, 36391, Note_off_c, 12, 82, 64
12, 36398, Note_on_c, 12, 86, 77
12, 36419, Note_off_c, 12, 84, 64
12, 36428, Note_on_c, 12, 87, 79
12, 36453, Note_off_c, 12, 86, 64
12, 36458, Note_on_c, 12, 90, 81
12, 36483, Note_off_c, 12, 87, 64
12, 36486, Note_on_c, 12, 91, 84
12, 36513, Note_off_c, 12, 90, 64
12, 36570, Note_off_c, 12, 91, 64
12, 48000, Control_c, 12, 64, 127
12, 48003, Note_on_c, 12, 62, 49
12, 48085, Note_on_c, 12, 74, 54
12, 48095, Note_off_c, 12, 62, 64
12, 48165, Note_on_c, 12, 86, 58
12, 48176, Note_off_c, 12, 74, 64
12, 48244, Note_on_c, 12, 62, 52
12, 48255, Note_off_c, 12, 86, 64
12, 48314, Note_off_c, 12, 62, 64
12, 51840, Control_c, 12, 64, 0
12, 108488, Note_on_c, 12, 62, 45
12, 108546, Note_off_c, 12, 62, 64
12, 108546, Note_on_c, 12, 63, 47
12, 108605, Note_off_c, 12, 63, 64
12, 108606, Note_on_c, 12, 66, 45
12, 108659, Note_on_c, 12, 67, 47
12, 108666, Note_off_c, 12, 66, 64
12, 108720, Note_off_c, 12, 67, 64
12, 108728, Note_on_c, 12, 69, 49
12, 108786, Note_off_c, 12, 69, 64
12, 108789, Note_on_c, 12, 70, 51
12, 108847, Note_off_c, 12, 70, 64
12, 108848, Note_on_c, 12, 72, 50
12, 108907, Note_off_c, 12, 72, 64
12, 108909, Note_on_c, 12, 74, 53
12, 108962, Note_on_c, 12, 75, 54
12, 108968, Note_off_c, 12, 74, 64
12, 109020, Note_off_c, 12, 75, 64
12, 109027, Note_on_c, 12, 78, 50
12, 109083, Note_on_c, 12, 79, 56
12, 109087, Note_off_c, 12, 78, 64
12, 109141, Note_off_c, 12, 79, 64
12, 109144, Note_on_c, 12, 81, 56
12, 109204, Note_off_c, 12, 81, 64
12, 109205, Note_on_c, 12, 82, 58
12, 109263, Note_off_c, 12, 82, 64
12, 109269, Note_on_c, 12, 84, 64
12, 109328, Note_off_c, 12, 84, 64
12, 109328, Note_on_c, 12, 86, 66
12, 109389, Note_off_c, 12, 86, 64
12, 109389, Note_on_c, 12, 87, 69
12, 109447, Note_off_c, 12, 87, 64
12, 109448, Note_on_c, 12, 91, 78
12, 110251, Note_off_c, 12, 91, 64
12, 115684, Note_on_c, 12, 63, 46
12, 115727, Note_on_c, 12, 66, 52
12, 115746, Note_off_c, 12, 63, 64
12, 115765, Note_on_c, 12, 67, 50
12, 115791, Note_off_c, 12, 66, 64
12, 115807, Note_on_c, 12, 68, 54
12, 115828, Note_off_c, 12, 67, 64
12, 115848, Note_on_c, 12, 70, 56
12, 115869, Note_off_c, 12, 68, 64
12, 115878, Note_on_c, 12, 72, 58
12, 115910, Note_off_c, 12, 70, 64
12, 115925, Note_on_c, 12, 74, 57
12, 115940, Note_off_c, 12, 72, 64
12, 115968, Note_on_c, 12, 75, 63
12, 115989, Note_off_c, 12, 74, 64
12, 116005, Note_on_c, 12, 78, 64
12, 116032, Note_off_c, 12, 75, 64
12, 116049, Note_on_c, 12, 79, 66
12, 116068, Note_off_c, 12, 78, 64
12, 116084, Note_on_c, 12, 80, 73
12, 116111, Note_off_c, 12, 79, 64
12, 116127, Note_on_c, 12, 82, 76
12, 116146, Note_off_c, 12, 80, 64
12, 116169, Note_on_c, 12, 91, 78
12, 116190, Note_off_c, 12, 82, 64
12, 116288, Note_off_c, 12, 91, 64
12, 124329, Note_on_c, 12, 62, 59
12, 124357, Note_on_c, 12, 63, 59
12, 124372, Note_off_c, 12, 62, 64
12, 124389, Note_on_c, 12, 66, 60
12, 124400, Note_off_c, 12, 63, 64
12, 124419, Note_on_c, 12, 67, 60
12, 124433, Note_off_c, 12, 66, 64
12, 124447, Note_on_c, 12, 69, 58
12, 124462, Note_off_c, 12, 67, 64
12, 124477, Note_on_c, 12, 70, 59
12, 124490, Note_off_c, 12, 69, 64
12, 124505, Note_on_c, 12, 72, 63
12, 124520, Note_off_c, 12, 70, 64
12, 124539, Note_on_c, 12, 74, 61
12, 124548, Note_off_c, 12, 72, 64
12, 124567, Note_on_c, 12, 75, 65
12, 124583, Note_off_c, 12, 74, 64
12, 124599, Note_on_c, 12, 78, 63
12, 124610, Note_off_c, 12, 75, 64
12, 124629, Note_on_c, 12, 79, 68
12, 124642, Note_off_c, 12, 78, 64
12, 124659, Note_on_c, 12, 81, 69
12, 124672, Note_off_c, 12, 79, 64
12, 124686, Note_on_c, 12, 82, 69
12, 124703, Note_off_c, 12, 81, 64
12, 124716, Note_on_c, 12, 84, 74
12, 124730, Note_off_c, 12, 82, 64
12, 124749, Note_on_c, 12, 86, 77
12, 124761, Note_off_c, 12, 84, 64
12, 124773, Note_on_c, 12, 87, 82
12, 124793, Note_off_c, 12, 86, 64
12, 124809, Note_on_c, 12, 91, 88
12, 124816, Note_off_c, 12, 87, 64
12, 124927, Note_off_c, 12, 91, 64
12, 131049, Note_on_c, 12, 63, 49
12, 131089, Note_on_c, 12, 66, 53
12, 131112, Note_off_c, 12, 63, 64
12, 131128, Note_on_c, 12, 67, 51
12, 131152, Note_off_c, 12, 66, 64
12, 131166, Note_on_c, 12, 68, 54
12, 131190, Note_off_c, 12, 67, 64
12, 131204, Note_on_c, 12, 70, 56
12, 131228, Note_off_c, 12, 68, 64
12, 131249, Note_on_c, 12, 72, 58
12, 131269, Note_off_c, 12, 70, 64
12, 131288, Note_on_c, 12, 74, 55
12, 131313, Note_off_c, 12, 72, 64
12, 131326, Note_on_c, 12, 75, 61
12, 131350, Note_off_c, 12, 74, 64
12, 131368, Note_on_c, 12, 78, 65
12, 131388, Note_off_c, 12, 75, 64
12, 131408, Note_on_c, 12, 79, 68
12, 131430, Note_off_c, 12, 78, 64
12, 131442, Note_on_c, 12, 80, 69
12, 131471, Note_off_c, 12, 79, 64
12, 131488, Note_on_c, 12, 82, 79
12, 131506, Note_off_c, 12, 80, 64
12, 131550, Note_off_c, 12, 82, 64
12, 136329, Note_on_c, 12, 79, 85
12, 136419, Note_off_c, 12, 79, 64
12, 136560, Note_on_c, 12, 67, 78
12, 136630, Note_off_c, 12, 67, 64
12, 137769, Note_on_c, 12, 82, 89
12, 137860, Note_off_c, 12, 82, 64
12, 138009, Note_on_c, 12, 70, 79
12, 138081, Note_off_c, 12, 70, 64
12, 138249, Note_on_c, 12, 79, 85
12, 138340, Note_off_c, 12, 79, 64
12, 138486, Note_on_c, 12, 67, 80
12, 138556, Note_off_c, 12, 67, 64
12, 139684, Note_on_c, 12, 82, 85
12, 139774, Note_off_c, 12, 82, 64
12, 139928, Note_on_c, 12, 70, 78
12, 140000, Note_off_c, 12, 70, 64
12, 140168, Note_on_c, 12, 79, 85
12, 140169, Note_on_c, 12, 67, 85
12, 140169, Note_on_c, 12, 55, 83
12, 140258, Note_off_c, 12, 79, 64
12, 140259, Note_off_c, 12, 55, 64
12, 140260, Note_off_c, 12, 67, 64
12, 143524, Note_on_c, 12, 43, 60
12, 143545, Note_on_c, 12, 45, 58
12, 143564, Note_off_c, 12, 43, 64
12, 143567, Note_on_c, 12, 46, 59
12, 143585, Note_off_c, 12, 45, 64
12, 143586, Note_on_c, 12, 49, 59
12, 143607, Note_off_c, 12, 46, 64
12, 143607, Note_on_c, 12, 50, 61
12, 143626, Note_off_c, 12, 49, 64
12, 143627, Note_on_c, 12, 51, 63
12, 143641, Note_on_c, 12, 54, 63
12, 143647, Note_off_c, 12, 50, 64
12, 143667, Note_off_c, 12, 51, 64
12, 143669, Note_on_c, 12, 55, 61
12, 143683, Note_off_c, 12, 54, 64
12, 143683, Note_on_c, 12, 57, 62
12, 143705, Note_on_c, 12, 58, 65
12, 143709, Note_off_c, 12, 55, 64
12, 143723, Note_off_c, 12, 57, 64
12, 143726, Note_on_c, 12, 61, 66
12, 143741, Note_on_c, 12, 62, 67
12, 143745, Note_off_c, 12, 58, 64
12, 143762, Note_on_c, 12, 63, 68
12, 143768, Note_off_c, 12, 61, 64
12, 143782, Note_off_c, 12, 62, 64
12, 143789, Note_on_c, 12, 66, 66
12, 143802, Note_off_c, 12, 63, 64
12, 143806, Note_on_c, 12, 67, 71
12, 143821, Note_on_c, 12, 69, 73
12, 143829, Note_off_c, 12, 66, 64
12, 143847, Note_off_c, 12, 67, 64
12, 143847, Note_on_c, 12, 70, 73
12, 143862, Note_off_c, 12, 69, 64
12, 143864, Note_on_c, 12, 73, 77
12, 143888, Note_off_c, 12, 70, 64
12, 143888, Note_on_c, 12, 74, 77
12, 143904, Note_off_c, 12, 73, 64
12, 143909, Note_on_c, 12, 75, 79
12, 143922, Note_on_c, 12, 78, 80
12, 143928, Note_off_c, 12, 74, 64
12, 143947, Note_on_c, 12, 79, 88
12, 143949, Note_off_c, 12, 75, 64
12, 143962, Note_off_c, 12, 78, 64
12, 143968, Note_on_c, 12, 81, 93
12, 143987, Note_off_c, 12, 79, 64
12, 143989, Note_on_c, 12, 82, 100
12, 144007, Note_off_c, 12, 82, 64
12, 144008, Note_off_c, 12, 81, 64
12, 144008, Note_on_c, 12, 91, 97
12, 144126, Note_off_c, 12, 91, 64
12, 150727, Note_on_c, 12, 50, 61
12, 150764, Note_on_c, 12, 51, 65
12, 150789, Note_off_c, 12, 50, 64
12, 150806, Note_on_c, 12, 53, 64
12, 150827, Note_off_c, 12, 51, 64
12, 150843, Note_on_c, 12, 55, 63
12, 150870, Note_off_c, 12, 53, 64
12, 150886, Note_on_c, 12, 57, 68
12, 150905, Note_off_c, 12, 55, 64
12, 150923, Note_on_c, 12, 58, 68
12, 150951, Note_off_c, 12, 57, 64
12, 150968, Note_on_c, 12, 60, 62
12, 150985, Note_off_c, 12, 58, 64
12, 151009, Note_on_c, 12, 62, 69
12, 151032, Note_off_c, 12, 60, 64
12, 151048, Note_on_c, 12, 63, 67
12, 151071, Note_off_c, 12, 62, 64
12, 151089, Note_on_c, 12, 65, 67
12, 151110, Note_off_c, 12, 63, 64
12, 151129, Note_on_c, 12, 67, 69
12, 151151, Note_off_c, 12, 65, 64
12, 151166, Note_on_c, 12, 69, 70
12, 151191, Note_off_c, 12, 67, 64
12, 151198, Note_on_c, 12, 70, 69
12, 151229, Note_off_c, 12, 69, 64
12, 151245, Note_on_c, 12, 72, 70
12, 151260, Note_off_c, 12, 70, 64
12, 151288, Note_on_c, 12, 74, 74
12, 151307, Note_off_c, 12, 72, 64
12, 151328, Note_on_c, 12, 75, 74
12, 151350, Note_off_c, 12, 74, 64
12, 151368, Note_on_c, 12, 77, 73
12, 151390, Note_off_c, 12, 75, 64
12, 151407, Note_on_c, 12, 79, 74
12, 151431, Note_off_c, 12, 77, 64
12, 151444, Note_on_c, 12, 81, 78
12, 151469, Note_off_c, 12, 79, 64
12, 151487, Note_on_c, 12, 82, 75
12, 151506, Note_off_c, 12, 81, 64
12, 151528, Note_on_c, 12, 84, 82
12, 151549, Note_off_c, 12, 82, 64
12, 151566, Note_on_c, 12, 86, 84
12, 151590, Note_off_c, 12, 84, 64
12, 151605, Note_on_c, 12, 87, 87
12, 151629, Note_off_c, 12, 86, 64
12, 151649, Note_on_c, 12, 89, 88
12, 151667, Note_off_c, 12, 87, 64
12, 151688, Note_on_c, 12, 91, 96
12, 151712, Note_off_c, 12, 89, 64
12, 151770, Note_off_c, 12, 91, 64
12, 159360, Control_c, 12, 123, 0
12, 159360, End_track
13, 0, Start_track
13, 0, Text_t, "Piano/Celeste"
13, 0, Program_c, 10, 8
13, 0, Control_c, 10, 10, 113
13, 0, Control_c, 10, 7, 81
13, 0, Control_c, 10, 93, 5
13, 0, Control_c, 10, 91, 127
13, 0, Control_c, 10, 11, 127
13, 0, Control_c, 10, 123, 0
13, 47999, Note_on_c, 10, 62, 47
13, 48000, Control_c, 10, 64, 127
13, 48086, Note_on_c, 10, 74, 52
13, 48090, Note_off_c, 10, 62, 64
13, 48168, Note_on_c, 10, 86, 59
13, 48176, Note_off_c, 10, 74, 64
13, 48249, Note_on_c, 10, 62, 53
13, 48258, Note_off_c, 10, 86, 64
13, 48319, Note_off_c, 10, 62, 64
13, 51840, Control_c, 10, 64, 0
13, 86400, Program_c, 10, 0
13, 90216, Control_c, 10, 11, 114
13, 90245, Note_on_c, 10, 60, 79
13, 90248, Note_on_c, 10, 72, 76
13, 90248, Note_on_c, 10, 84, 88
13, 90312, Note_off_c, 10, 60, 64
13, 90316, Note_off_c, 10, 72, 64
13, 90328, Note_on_c, 10, 72, 68
13, 90340, Note_off_c, 10, 84, 64
13, 90409, Note_on_c, 10, 71, 73
13, 90419, Note_off_c, 10, 72, 64
13, 90488, Note_on_c, 10, 72, 79
13, 90499, Note_off_c, 10, 71, 64
13, 90558, Note_off_c, 10, 72, 64
13, 91683, Note_on_c, 10, 80, 79
13, 91684, Note_on_c, 10, 92, 92
13, 91689, Note_on_c, 10, 68, 78
13, 91749, Note_off_c, 10, 80, 64
13, 91756, Note_off_c, 10, 68, 64
13, 91767, Note_on_c, 10, 80, 72
13, 91775, Note_off_c, 10, 92, 64
13, 91847, Note_on_c, 10, 79, 73
13, 91858, Note_off_c, 10, 80, 64
13, 91922, Note_on_c, 10, 80, 76
13, 91937, Note_off_c, 10, 79, 64
13, 91993, Note_off_c, 10, 80, 64
13, 92163, Note_on_c, 10, 72, 78
13, 92165, Note_on_c, 10, 84, 92
13, 92168, Note_on_c, 10, 60, 79
13, 92229, Note_off_c, 10, 72, 64
13, 92235, Note_off_c, 10, 60, 64
13, 92249, Note_on_c, 10, 72, 71
13, 92256, Note_off_c, 10, 84, 64
13, 92323, Note_on_c, 10, 71, 71
13, 92339, Note_off_c, 10, 72, 64
13, 92408, Note_on_c, 10, 72, 79
13, 92413, Note_off_c, 10, 71, 64
13, 92478, Note_off_c, 10, 72, 64
13, 93601, Note_on_c, 10, 92, 91
13, 93603, Note_on_c, 10, 80, 77
13, 93605, Note_on_c, 10, 68, 79
13, 93672, Note_off_c, 10, 80, 64
13, 93672, Note_off_c, 10, 68, 64
13, 93683, Note_on_c, 10, 80, 73
13, 93693, Note_off_c, 10, 92, 64
13, 93769, Note_on_c, 10, 79, 73
13, 93774, Note_off_c, 10, 80, 64
13, 93849, Note_on_c, 10, 80, 79
13, 93861, Note_off_c, 10, 79, 64
13, 93919, Note_off_c, 10, 80, 64
13, 94085, Note_on_c, 10, 67, 72
13, 94088, Note_on_c, 10, 91, 90
13, 94089, Note_on_c, 10, 79, 79
13, 94153, Note_off_c, 10, 67, 64
13, 94155, Note_off_c, 10, 79, 64
13, 94168, Note_on_c, 10, 79, 69
13, 94180, Note_off_c, 10, 91, 64
13, 94244, Note_on_c, 10, 78, 70
13, 94258, Note_off_c, 10, 79, 64
13, 94329, Note_on_c, 10, 79, 77
13, 94334, Note_off_c, 10, 78, 64
13, 94399, Note_off_c, 10, 79, 64
13, 95524, Note_on_c, 10, 75, 76
13, 95528, Note_on_c, 10, 63, 76
13, 95529, Note_on_c, 10, 87, 92
13, 95590, Note_off_c, 10, 75, 64
13, 95594, Note_off_c, 10, 63, 64
13, 95606, Note_on_c, 10, 75, 71
13, 95620, Note_off_c, 10, 87, 64
13, 95687, Note_on_c, 10, 74, 73
13, 95696, Note_off_c, 10, 75, 64
13, 95765, Note_on_c, 10, 75, 78
13, 95777, Note_off_c, 10, 74, 64
13, 95835, Note_off_c, 10, 75, 64
13, 96007, Note_on_c, 10, 67, 79
13, 96008, Note_on_c, 10, 79, 76
13, 96009, Note_on_c, 10, 91, 92
13, 96074, Note_off_c, 10, 67, 64
13, 96074, Note_off_c, 10, 79, 64
13, 96081, Note_on_c, 10, 79, 69
13, 96100, Note_off_c, 10, 91, 64
13, 96169, Note_on_c, 10, 78, 72
13, 96171, Note_off_c, 10, 79, 64
13, 96248, Note_on_c, 10, 79, 79
13, 96259, Note_off_c, 10, 78, 64
13, 96318, Note_off_c, 10, 79, 64
13, 97444, Note_on_c, 10, 79, 79
13, 97445, Note_on_c, 10, 91, 92
13, 97447, Note_on_c, 10, 67, 79
13, 97510, Note_off_c, 10, 79, 64
13, 97513, Note_off_c, 10, 67, 64
13, 97528, Note_on_c, 10, 79, 72
13, 97535, Note_off_c, 10, 91, 64
13, 97609, Note_on_c, 10, 78, 67
13, 97619, Note_off_c, 10, 79, 64
13, 97689, Note_on_c, 10, 79, 77
13, 97701, Note_off_c, 10, 78, 64
13, 97759, Note_off_c, 10, 79, 64
13, 97924, Note_on_c, 10, 62, 78
13, 97926, Note_on_c, 10, 86, 91
13, 97927, Note_on_c, 10, 74, 72
13, 97990, Note_off_c, 10, 62, 64
13, 97994, Note_off_c, 10, 74, 64
13, 98008, Note_on_c, 10, 74, 71
13, 98016, Note_off_c, 10, 86, 64
13, 98088, Note_on_c, 10, 73, 70
13, 98100, Note_off_c, 10, 74, 64
13, 98165, Note_on_c, 10, 74, 78
13, 98178, Note_off_c, 10, 73, 64
13, 98235, Note_off_c, 10, 74, 64
13, 99361, Note_on_c, 10, 63, 78
13, 99363, Note_on_c, 10, 75, 78
13, 99369, Note_on_c, 10, 87, 92
13, 99427, Note_off_c, 10, 63, 64
13, 99429, Note_off_c, 10, 75, 64
13, 99448, Note_on_c, 10, 75, 69
13, 99459, Note_off_c, 10, 87, 64
13, 99528, Note_on_c, 10, 74, 69
13, 99539, Note_off_c, 10, 75, 64
13, 99609, Note_on_c, 10, 75, 77
13, 99619, Note_off_c, 10, 74, 64
13, 99681, Note_off_c, 10, 75, 64
13, 99847, Note_on_c, 10, 66, 78
13, 99849, Note_on_c, 10, 90, 89
13, 99849, Note_on_c, 10, 78, 79
13, 99913, Note_off_c, 10, 66, 64
13, 99917, Note_off_c, 10, 78, 64
13, 99927, Note_on_c, 10, 78, 73
13, 99939, Note_off_c, 10, 90, 64
13, 100002, Note_on_c, 10, 77, 72
13, 100017, Note_off_c, 10, 78, 64
13, 100086, Note_on_c, 10, 78, 77
13, 100092, Note_off_c, 10, 77, 64
13, 100157, Note_off_c, 10, 78, 64
13, 101288, Note_on_c, 10, 91, 92
13, 101288, Note_on_c, 10, 79, 75
13, 101289, Note_on_c, 10, 67, 79
13, 101354, Note_off_c, 10, 79, 64
13, 101356, Note_off_c, 10, 67, 64
13, 101368, Note_on_c, 10, 79, 72
13, 101378, Note_off_c, 10, 91, 64
13, 101449, Note_on_c, 10, 78, 73
13, 101459, Note_off_c, 10, 79, 64
13, 101528, Note_on_c, 10, 79, 76
13, 101539, Note_off_c, 10, 78, 64
13, 101598, Note_off_c, 10, 79, 64
13, 101768, Note_on_c, 10, 91, 90
13, 101768, Note_on_c, 10, 79, 79
13, 101768, Note_on_c, 10, 67, 79
13, 101834, Note_off_c, 10, 79, 64
13, 101834, Note_off_c, 10, 67, 64
13, 101847, Note_on_c, 10, 79, 73
13, 101858, Note_off_c, 10, 91, 64
13, 101925, Note_on_c, 10, 78, 69
13, 101937, Note_off_c, 10, 79, 64
13, 102007, Note_on_c, 10, 79, 79
13, 102015, Note_off_c, 10, 78, 64
13, 102077, Note_off_c, 10, 79, 64
13, 103205, Note_on_c, 10, 62, 75
13, 103207, Note_on_c, 10, 86, 89
13, 103209, Note_on_c, 10, 74, 79
13, 103271, Note_off_c, 10, 62, 64
13, 103275, Note_off_c, 10, 74, 64
13, 103287, Note_on_c, 10, 74, 72
13, 103300, Note_off_c, 10, 86, 64
13, 103369, Note_on_c, 10, 73, 73
13, 103377, Note_off_c, 10, 74, 64
13, 103448, Note_on_c, 10, 74, 79
13, 103461, Note_off_c, 10, 73, 64
13, 103518, Note_off_c, 10, 74, 64
13, 103686, Note_on_c, 10, 80, 77
13, 103687, Note_on_c, 10, 92, 89
13, 103687, Note_on_c, 10, 68, 76
13, 103752, Note_off_c, 10, 80, 64
13, 103754, Note_off_c, 10, 68, 64
13, 103769, Note_on_c, 10, 80, 71
13, 103777, Note_off_c, 10, 92, 64
13, 103846, Note_on_c, 10, 79, 68
13, 103861, Note_off_c, 10, 80, 64
13, 103925, Note_on_c, 10, 80, 78
13, 103936, Note_off_c, 10, 79, 64
13, 103995, Note_off_c, 10, 80, 64
13, 105119, Note_on_c, 10, 92, 87
13, 105125, Note_on_c, 10, 80, 78
13, 105128, Note_on_c, 10, 68, 76
13, 105192, Note_off_c, 10, 80, 64
13, 105195, Note_off_c, 10, 68, 64
13, 105208, Note_on_c, 10, 80, 72
13, 105211, Note_off_c, 10, 92, 64
13, 105287, Note_on_c, 10, 79, 71
13, 105298, Note_off_c, 10, 80, 64
13, 105369, Note_on_c, 10, 80, 79
13, 105377, Note_off_c, 10, 79, 64
13, 105440, Note_off_c, 10, 80, 64
13, 105608, Note_on_c, 10, 66, 76
13, 105608, Note_on_c, 10, 78, 79
13, 105609, Note_on_c, 10, 90, 92
13, 105674, Note_off_c, 10, 78, 64
13, 105676, Note_off_c, 10, 66, 64
13, 105689, Note_on_c, 10, 78, 69
13, 105699, Note_off_c, 10, 90, 64
13, 105765, Note_on_c, 10, 77, 70
13, 105780, Note_off_c, 10, 78, 64
13, 105848, Note_on_c, 10, 78, 79
13, 105855, Note_off_c, 10, 77, 64
13, 105918, Note_off_c, 10, 78, 64
13, 107048, Note_on_c, 10, 90, 91
13, 107048, Note_on_c, 10, 78, 78
13, 107049, Note_on_c, 10, 66, 78
13, 107116, Note_off_c, 10, 78, 64
13, 107116, Note_off_c, 10, 66, 64
13, 107118, Note_on_c, 10, 78, 73
13, 107139, Note_off_c, 10, 90, 64
13, 107205, Note_on_c, 10, 77, 72
13, 107208, Note_off_c, 10, 78, 64
13, 107289, Note_on_c, 10, 78, 79
13, 107295, Note_off_c, 10, 77, 64
13, 107359, Note_off_c, 10, 78, 64
13, 107524, Note_on_c, 10, 67, 79
13, 107524, Note_on_c, 10, 79, 79
13, 107529, Note_on_c, 10, 91, 88
13, 107590, Note_off_c, 10, 67, 64
13, 107590, Note_off_c, 10, 79, 64
13, 107609, Note_on_c, 10, 79, 71
13, 107620, Note_off_c, 10, 91, 64
13, 107689, Note_on_c, 10, 78, 69
13, 107699, Note_off_c, 10, 79, 64
13, 107768, Note_on_c, 10, 79, 79
13, 107779, Note_off_c, 10, 78, 64
13, 107838, Note_off_c, 10, 79, 64
13, 108480, Control_c, 10, 11, 114
13, 108600, Control_c, 10, 11, 115
13, 108720, Control_c, 10, 11, 116
13, 108724, Note_on_c, 10, 67, 58
13, 108729, Note_on_c, 10, 55, 59
13, 108788, Note_on_c, 10, 69, 58
13, 108788, Note_on_c, 10, 57, 59
13, 108807, Note_off_c, 10, 67, 64
13, 108814, Note_off_c, 10, 55, 64
13, 108840, Control_c, 10, 11, 118
13, 108841, Note_on_c, 10, 70, 58
13, 108846, Note_on_c, 10, 58, 60
13, 108871, Note_off_c, 10, 69, 64
13, 108871, Note_off_c, 10, 57, 64
13, 108901, Note_on_c, 10, 72, 60
13, 108909, Note_on_c, 10, 60, 61
13, 108924, Note_off_c, 10, 70, 64
13, 108930, Note_off_c, 10, 58, 64
13, 108960, Control_c, 10, 11, 120
13, 108969, Note_on_c, 10, 74, 58
13, 108969, Note_on_c, 10, 62, 60
13, 108986, Note_off_c, 10, 72, 64
13, 108992, Note_off_c, 10, 60, 64
13, 109007, Note_on_c, 10, 63, 59
13, 109013, Note_on_c, 10, 75, 61
13, 109029, Note_off_c, 10, 74, 64
13, 109029, Note_off_c, 10, 62, 64
13, 109051, Note_on_c, 10, 78, 63
13, 109057, Note_on_c, 10, 66, 62
13, 109069, Note_off_c, 10, 63, 64
13, 109073, Note_off_c, 10, 75, 64
13, 109080, Control_c, 10, 11, 121
13, 109095, Note_on_c, 10, 79, 63
13, 109103, Note_on_c, 10, 67, 65
13, 109112, Note_off_c, 10, 78, 64
13, 109117, Note_off_c, 10, 66, 64
13, 109147, Note_on_c, 10, 69, 67
13, 109149, Note_on_c, 10, 81, 67
13, 109156, Note_off_c, 10, 79, 64
13, 109165, Note_off_c, 10, 67, 64
13, 109193, Note_on_c, 10, 70, 69
13, 109194, Note_on_c, 10, 82, 66
13, 109200, Control_c, 10, 11, 123
13, 109207, Note_off_c, 10, 69, 64
13, 109210, Note_off_c, 10, 81, 64
13, 109237, Note_on_c, 10, 84, 68
13, 109238, Note_on_c, 10, 72, 71
13, 109254, Note_off_c, 10, 82, 64
13, 109255, Note_off_c, 10, 70, 64
13, 109271, Note_on_c, 10, 74, 71
13, 109281, Note_on_c, 10, 86, 75
13, 109297, Note_off_c, 10, 84, 64
13, 109300, Note_off_c, 10, 72, 64
13, 109320, Control_c, 10, 11, 125
13, 109326, Note_on_c, 10, 75, 72
13, 109328, Note_on_c, 10, 87, 74
13, 109331, Note_off_c, 10, 74, 64
13, 109341, Note_off_c, 10, 86, 64
13, 109374, Note_on_c, 10, 90, 73
13, 109374, Note_on_c, 10, 78, 80
13, 109386, Note_off_c, 10, 75, 64
13, 109388, Note_off_c, 10, 87, 64
13, 109392, Control_c, 10, 11, 127
13, 109434, Note_off_c, 10, 90, 64
13, 109434, Note_off_c, 10, 78, 64
13, 109440, Note_on_c, 10, 91, 96
13, 109449, Note_on_c, 10, 79, 95
13, 109530, Note_off_c, 10, 91, 64
13, 109539, Note_off_c, 10, 79, 64
13, 109928, Note_on_c, 10, 67, 92
13, 109928, Note_on_c, 10, 79, 91
13, 110190, Note_off_c, 10, 67, 64
13, 110190, Note_off_c, 10, 79, 64
13, 110286, Note_on_c, 10, 67, 90
13, 110287, Note_on_c, 10, 79, 91
13, 110320, Note_off_c, 10, 67, 64
13, 110321, Note_off_c, 10, 79, 64
13, 110401, Note_on_c, 10, 91, 91
13, 110409, Note_on_c, 10, 79, 91
13, 110807, Note_off_c, 10, 91, 64
13, 110815, Note_off_c, 10, 79, 64
13, 110886, Note_on_c, 10, 78, 91
13, 110886, Note_on_c, 10, 90, 89
13, 111148, Note_off_c, 10, 78, 64
13, 111149, Note_off_c, 10, 90, 64
13, 111246, Note_on_c, 10, 89, 92
13, 111248, Note_on_c, 10, 77, 89
13, 111280, Note_off_c, 10, 89, 64
13, 111282, Note_off_c, 10, 77, 64
13, 111369, Note_on_c, 10, 76, 95
13, 111369, Note_on_c, 10, 88, 98
13, 111427, Note_off_c, 10, 76, 64
13, 111429, Note_off_c, 10, 88, 64
13, 111485, Note_on_c, 10, 87, 91
13, 111486, Note_on_c, 10, 75, 91
13, 111532, Note_off_c, 10, 87, 64
13, 111532, Note_off_c, 10, 75, 64
13, 111603, Note_on_c, 10, 76, 92
13, 111609, Note_on_c, 10, 88, 92
13, 111661, Note_off_c, 10, 76, 64
13, 111667, Note_off_c, 10, 88, 64
13, 112082, Note_on_c, 10, 68, 91
13, 112086, Note_on_c, 10, 80, 90
13, 112129, Note_off_c, 10, 68, 64
13, 112132, Note_off_c, 10, 80, 64
13, 112329, Note_on_c, 10, 73, 92
13, 112329, Note_on_c, 10, 85, 91
13, 112735, Note_off_c, 10, 73, 64
13, 112735, Note_off_c, 10, 85, 64
13, 112808, Note_on_c, 10, 72, 90
13, 112808, Note_on_c, 10, 84, 92
13, 113070, Note_off_c, 10, 72, 64
13, 113071, Note_off_c, 10, 84, 64
13, 113162, Note_on_c, 10, 83, 89
13, 113169, Note_on_c, 10, 71, 90
13, 113197, Note_off_c, 10, 83, 64
13, 113203, Note_off_c, 10, 71, 64
13, 113288, Note_on_c, 10, 70, 98
13, 113289, Note_on_c, 10, 82, 96
13, 113347, Note_off_c, 10, 70, 64
13, 113349, Note_off_c, 10, 82, 64
13, 113407, Note_on_c, 10, 81, 89
13, 113409, Note_on_c, 10, 69, 90
13, 113454, Note_off_c, 10, 81, 64
13, 113456, Note_off_c, 10, 69, 64
13, 113524, Note_on_c, 10, 70, 92
13, 113529, Note_on_c, 10, 82, 92
13, 113582, Note_off_c, 10, 70, 64
13, 113588, Note_off_c, 10, 82, 64
13, 114006, Note_on_c, 10, 75, 91
13, 114007, Note_on_c, 10, 63, 88
13, 114052, Note_off_c, 10, 75, 64
13, 114053, Note_off_c, 10, 63, 64
13, 114244, Note_on_c, 10, 66, 91
13, 114245, Note_on_c, 10, 78, 92
13, 114628, Note_off_c, 10, 66, 64
13, 114628, Note_off_c, 10, 78, 64
13, 114727, Note_on_c, 10, 63, 98
13, 114729, Note_on_c, 10, 75, 97
13, 114990, Note_off_c, 10, 63, 64
13, 114991, Note_off_c, 10, 75, 64
13, 115084, Note_on_c, 10, 70, 92
13, 115089, Note_on_c, 10, 82, 91
13, 115118, Note_off_c, 10, 70, 64
13, 115123, Note_off_c, 10, 82, 64
13, 115205, Note_on_c, 10, 79, 83
13, 115209, Note_on_c, 10, 67, 81
13, 115299, Note_off_c, 10, 79, 64
13, 115305, Note_off_c, 10, 67, 64
13, 115686, Note_on_c, 10, 75, 68
13, 115689, Note_on_c, 10, 63, 67
13, 115745, Note_on_c, 10, 77, 67
13, 115747, Note_on_c, 10, 65, 68
13, 115758, Note_off_c, 10, 75, 64
13, 115760, Note_off_c, 10, 63, 64
13, 115809, Note_on_c, 10, 66, 70
13, 115809, Note_on_c, 10, 78, 68
13, 115815, Note_off_c, 10, 77, 64
13, 115817, Note_off_c, 10, 65, 64
13, 115866, Note_on_c, 10, 80, 71
13, 115869, Note_on_c, 10, 68, 70
13, 115880, Note_off_c, 10, 66, 64
13, 115880, Note_off_c, 10, 78, 64
13, 115923, Note_on_c, 10, 82, 73
13, 115929, Note_on_c, 10, 70, 73
13, 115936, Note_off_c, 10, 80, 64
13, 115940, Note_off_c, 10, 68, 64
13, 115989, Note_on_c, 10, 72, 74
13, 115989, Note_on_c, 10, 84, 73
13, 115993, Note_off_c, 10, 82, 64
13, 115999, Note_off_c, 10, 70, 64
13, 116049, Note_on_c, 10, 74, 78
13, 116049, Note_on_c, 10, 86, 78
13, 116061, Note_off_c, 10, 72, 64
13, 116061, Note_off_c, 10, 84, 64
13, 116088, Note_on_c, 10, 75, 81
13, 116088, Note_on_c, 10, 87, 80
13, 116119, Note_off_c, 10, 86, 64
13, 116120, Note_off_c, 10, 74, 64
13, 116125, Note_on_c, 10, 77, 88
13, 116127, Note_on_c, 10, 89, 87
13, 116139, Note_off_c, 10, 75, 64
13, 116139, Note_off_c, 10, 87, 64
13, 116168, Note_on_c, 10, 79, 98
13, 116169, Note_on_c, 10, 91, 97
13, 116176, Note_off_c, 10, 77, 64
13, 116177, Note_off_c, 10, 89, 64
13, 116238, Note_off_c, 10, 79, 64
13, 116240, Note_off_c, 10, 91, 64
13, 116404, Note_on_c, 10, 67, 95
13, 116405, Note_on_c, 10, 79, 89
13, 116475, Note_off_c, 10, 79, 64
13, 116476, Note_off_c, 10, 67, 64
13, 116648, Note_on_c, 10, 91, 97
13, 116649, Note_on_c, 10, 79, 94
13, 116691, Note_off_c, 10, 79, 64
13, 116692, Note_off_c, 10, 91, 64
13, 116724, Note_on_c, 10, 79, 89
13, 116729, Note_on_c, 10, 91, 91
13, 116767, Note_off_c, 10, 79, 64
13, 116771, Note_off_c, 10, 91, 64
13, 116807, Note_on_c, 10, 79, 85
13, 116807, Note_on_c, 10, 91, 85
13, 116849, Note_off_c, 10, 79, 64
13, 116849, Note_off_c, 10, 91, 64
13, 116884, Note_on_c, 10, 79, 86
13, 116884, Note_on_c, 10, 91, 92
13, 116942, Note_off_c, 10, 79, 64
13, 116944, Note_off_c, 10, 91, 64
13, 124809, Note_on_c, 10, 79, 102
13, 124809, Note_on_c, 10, 91, 104
13, 125215, Note_off_c, 10, 79, 64
13, 125215, Note_off_c, 10, 91, 64
13, 125285, Note_on_c, 10, 67, 98
13, 125287, Note_on_c, 10, 79, 97
13, 125547, Note_off_c, 10, 67, 64
13, 125549, Note_off_c, 10, 79, 64
13, 125644, Note_on_c, 10, 79, 97
13, 125645, Note_on_c, 10, 67, 98
13, 125678, Note_off_c, 10, 79, 64
13, 125679, Note_off_c, 10, 67, 64
13, 125766, Note_on_c, 10, 79, 92
13, 125768, Note_on_c, 10, 91, 94
13, 126173, Note_off_c, 10, 79, 64
13, 126174, Note_off_c, 10, 91, 64
13, 126242, Note_on_c, 10, 78, 98
13, 126245, Note_on_c, 10, 90, 97
13, 126505, Note_off_c, 10, 78, 64
13, 126507, Note_off_c, 10, 90, 64
13, 126607, Note_on_c, 10, 89, 97
13, 126607, Note_on_c, 10, 77, 95
13, 126641, Note_off_c, 10, 77, 64
13, 126643, Note_off_c, 10, 89, 64
13, 126724, Note_on_c, 10, 76, 102
13, 126728, Note_on_c, 10, 88, 104
13, 126782, Note_off_c, 10, 76, 64
13, 126787, Note_off_c, 10, 88, 64
13, 126841, Note_on_c, 10, 87, 94
13, 126848, Note_on_c, 10, 75, 94
13, 126888, Note_off_c, 10, 87, 64
13, 126896, Note_off_c, 10, 75, 64
13, 126967, Note_on_c, 10, 88, 97
13, 126969, Note_on_c, 10, 76, 98
13, 127026, Note_off_c, 10, 88, 64
13, 127028, Note_off_c, 10, 76, 64
13, 127446, Note_on_c, 10, 80, 97
13, 127448, Note_on_c, 10, 68, 98
13, 127494, Note_off_c, 10, 80, 64
13, 127494, Note_off_c, 10, 68, 64
13, 127682, Note_on_c, 10, 73, 91
13, 127685, Note_on_c, 10, 85, 98
13, 128088, Note_off_c, 10, 73, 64
13, 128091, Note_off_c, 10, 85, 64
13, 128169, Note_on_c, 10, 84, 96
13, 128169, Note_on_c, 10, 72, 95
13, 128432, Note_off_c, 10, 84, 64
13, 128432, Note_off_c, 10, 72, 64
13, 128526, Note_on_c, 10, 83, 96
13, 128529, Note_on_c, 10, 71, 97
13, 128561, Note_off_c, 10, 83, 64
13, 128563, Note_off_c, 10, 71, 64
13, 128642, Note_on_c, 10, 82, 103
13, 128642, Note_on_c, 10, 70, 103
13, 128700, Note_off_c, 10, 82, 64
13, 128700, Note_off_c, 10, 70, 64
13, 128763, Note_on_c, 10, 81, 95
13, 128767, Note_on_c, 10, 69, 94
13, 128810, Note_off_c, 10, 81, 64
13, 128813, Note_off_c, 10, 69, 64
13, 128885, Note_on_c, 10, 82, 98
13, 128888, Note_on_c, 10, 70, 98
13, 128944, Note_off_c, 10, 82, 64
13, 128946, Note_off_c, 10, 70, 64
13, 129367, Note_on_c, 10, 75, 98
13, 129367, Note_on_c, 10, 63, 98
13, 129413, Note_off_c, 10, 75, 64
13, 129413, Note_off_c, 10, 63, 64
13, 129604, Note_on_c, 10, 66, 98
13, 129607, Note_on_c, 10, 78, 98
13, 129986, Note_off_c, 10, 66, 64
13, 129991, Note_off_c, 10, 78, 64
13, 130086, Note_on_c, 10, 75, 98
13, 130089, Note_on_c, 10, 63, 98
13, 130350, Note_off_c, 10, 75, 64
13, 130351, Note_off_c, 10, 63, 64
13, 130439, Note_on_c, 10, 82, 98
13, 130449, Note_on_c, 10, 70, 98
13, 130475, Note_off_c, 10, 82, 64
13, 130484, Note_off_c, 10, 70, 64
13, 130563, Note_on_c, 10, 67, 93
13, 130567, Note_on_c, 10, 79, 88
13, 130657, Note_off_c, 10, 67, 64
13, 130661, Note_off_c, 10, 79, 64
13, 131047, Note_on_c, 10, 75, 62
13, 131047, Note_on_c, 10, 63, 66
13, 131104, Note_on_c, 10, 65, 66
13, 131109, Note_on_c, 10, 77, 66
13, 131117, Note_off_c, 10, 75, 64
13, 131119, Note_off_c, 10, 63, 64
13, 131167, Note_on_c, 10, 78, 68
13, 131168, Note_on_c, 10, 66, 64
13, 131174, Note_off_c, 10, 65, 64
13, 131179, Note_off_c, 10, 77, 64
13, 131222, Note_on_c, 10, 68, 65
13, 131227, Note_on_c, 10, 80, 66
13, 131237, Note_off_c, 10, 78, 64
13, 131240, Note_off_c, 10, 66, 64
13, 131286, Note_on_c, 10, 70, 66
13, 131289, Note_on_c, 10, 82, 67
13, 131292, Note_off_c, 10, 68, 64
13, 131297, Note_off_c, 10, 80, 64
13, 131349, Note_on_c, 10, 84, 73
13, 131349, Note_on_c, 10, 72, 74
13, 131357, Note_off_c, 10, 70, 64
13, 131359, Note_off_c, 10, 82, 64
13, 131409, Note_on_c, 10, 86, 78
13, 131409, Note_on_c, 10, 74, 78
13, 131419, Note_off_c, 10, 84, 64
13, 131419, Note_off_c, 10, 72, 64
13, 131442, Note_on_c, 10, 87, 80
13, 131445, Note_on_c, 10, 75, 80
13, 131480, Note_off_c, 10, 86, 64
13, 131480, Note_off_c, 10, 74, 64
13, 131486, Note_on_c, 10, 89, 85
13, 131489, Note_on_c, 10, 77, 86
13, 131493, Note_off_c, 10, 87, 64
13, 131495, Note_off_c, 10, 75, 64
13, 131527, Note_on_c, 10, 79, 100
13, 131529, Note_on_c, 10, 91, 100
13, 131537, Note_off_c, 10, 89, 64
13, 131539, Note_off_c, 10, 77, 64
13, 131597, Note_off_c, 10, 79, 64
13, 131600, Note_off_c, 10, 91, 64
13, 132480, Control_c, 10, 11, 114
13, 136296, Control_c, 10, 11, 114
13, 136324, Note_on_c, 10, 67, 75
13, 136327, Note_on_c, 10, 91, 92
13, 136327, Note_on_c, 10, 79, 77
13, 136390, Note_off_c, 10, 67, 64
13, 136393, Note_off_c, 10, 79, 64
13, 136409, Note_on_c, 10, 79, 72
13, 136418, Note_off_c, 10, 91, 64
13, 136489, Note_on_c, 10, 78, 72
13, 136500, Note_off_c, 10, 79, 64
13, 136567, Note_on_c, 10, 79, 79
13, 136579, Note_off_c, 10, 78, 64
13, 136637, Note_off_c, 10, 79, 64
13, 136680, Control_c, 10, 11, 115
13, 137064, Control_c, 10, 11, 116
13, 137448, Control_c, 10, 11, 118
13, 137764, Note_on_c, 10, 82, 76
13, 137766, Note_on_c, 10, 94, 90
13, 137768, Note_on_c, 10, 70, 78
13, 137831, Note_off_c, 10, 82, 64
13, 137832, Control_c, 10, 11, 119
13, 137834, Note_off_c, 10, 70, 64
13, 137839, Note_on_c, 10, 82, 72
13, 137858, Note_off_c, 10, 94, 64
13, 137929, Note_off_c, 10, 82, 64
13, 137929, Note_on_c, 10, 81, 72
13, 138006, Note_on_c, 10, 82, 72
13, 138019, Note_off_c, 10, 81, 64
13, 138078, Note_off_c, 10, 82, 64
13, 138216, Control_c, 10, 11, 120
13, 138244, Note_on_c, 10, 67, 77
13, 138248, Note_on_c, 10, 91, 90
13, 138248, Note_on_c, 10, 79, 79
13, 138310, Note_off_c, 10, 67, 64
13, 138316, Note_off_c, 10, 79, 64
13, 138325, Note_on_c, 10, 79, 72
13, 138339, Note_off_c, 10, 91, 64
13, 138409, Note_on_c, 10, 78, 73
13, 138415, Note_off_c, 10, 79, 64
13, 138487, Note_on_c, 10, 79, 77
13, 138500, Note_off_c, 10, 78, 64
13, 138557, Note_off_c, 10, 79, 64
13, 138600, Control_c, 10, 11, 121
13, 138984, Control_c, 10, 11, 123
13, 139368, Control_c, 10, 11, 124
13, 139680, Note_on_c, 10, 70, 75
13, 139684, Note_on_c, 10, 94, 90
13, 139686, Note_on_c, 10, 82, 79
13, 139747, Note_off_c, 10, 70, 64
13, 139752, Control_c, 10, 11, 125
13, 139753, Note_off_c, 10, 82, 64
13, 139764, Note_on_c, 10, 82, 70
13, 139777, Note_off_c, 10, 94, 64
13, 139843, Note_on_c, 10, 81, 72
13, 139855, Note_off_c, 10, 82, 64
13, 139929, Note_on_c, 10, 82, 77
13, 139933, Note_off_c, 10, 81, 64
13, 139999, Note_off_c, 10, 82, 64
13, 140136, Control_c, 10, 11, 127
13, 140164, Note_on_c, 10, 91, 93
13, 140166, Note_on_c, 10, 79, 93
13, 140168, Note_on_c, 10, 67, 92
13, 140232, Note_off_c, 10, 79, 64
13, 140234, Note_off_c, 10, 67, 64
13, 140254, Note_off_c, 10, 91, 64
13, 151684, Note_on_c, 10, 79, 103
13, 151687, Note_on_c, 10, 91, 101
13, 151689, Note_on_c, 10, 67, 101
13, 151779, Note_off_c, 10, 79, 64
13, 151781, Note_off_c, 10, 91, 64
13, 151783, Note_off_c, 10, 67, 64
13, 152646, Note_on_c, 10, 63, 91
13, 152646, Note_on_c, 10, 75, 91
13, 152646, Note_on_c, 10, 87, 89
13, 152712, Note_off_c, 10, 63, 64
13, 152712, Note_off_c, 10, 87, 64
13, 152712, Note_off_c, 10, 75, 64
13, 152884, Note_on_c, 10, 67, 97
13, 152888, Note_on_c, 10, 79, 98
13, 152889, Note_on_c, 10, 91, 96
13, 152943, Note_off_c, 10, 67, 64
13, 152947, Note_off_c, 10, 91, 64
13, 152947, Note_off_c, 10, 79, 64
13, 153604, Note_on_c, 10, 87, 89
13, 153607, Note_on_c, 10, 75, 92
13, 153607, Note_on_c, 10, 63, 90
13, 153671, Note_off_c, 10, 87, 64
13, 153674, Note_off_c, 10, 75, 64
13, 153675, Note_off_c, 10, 63, 64
13, 153843, Note_on_c, 10, 67, 93
13, 153844, Note_on_c, 10, 79, 97
13, 153846, Note_on_c, 10, 91, 98
13, 153902, Note_off_c, 10, 67, 64
13, 153903, Note_off_c, 10, 79, 64
13, 153905, Note_off_c, 10, 91, 64
13, 154561, Note_on_c, 10, 67, 102
13, 154564, Note_on_c, 10, 91, 101
13, 154566, Note_on_c, 10, 79, 103
13, 154656, Note_off_c, 10, 67, 64
13, 154659, Note_off_c, 10, 91, 64
13, 154663, Note_off_c, 10, 79, 64
13, 155043, Note_on_c, 10, 31, 103
13, 155049, Note_on_c, 10, 43, 104
13, 155138, Note_off_c, 10, 31, 64
13, 155143, Note_off_c, 10, 43, 64
13, 159360, Control_c, 10, 123, 0
13, 159360, End_track
14, 0, Start_track
14, 0, Text_t, "Violins I & II"
14, 0, Program_c, 11, 48
14, 0, Control_c, 11, 93, 5
14, 0, Control_c, 11, 91, 127
14, 0, Control_c, 11, 11, 127
14, 0, Control_c, 11, 7, 115
14, 0, Control_c, 11, 10, 35
14, 0, Control_c, 11, 123, 0
14, 5765, Note_on_c, 11, 55, 96
14, 6099, Note_off_c, 11, 55, 64
14, 6248, Note_on_c, 11, 55, 96
14, 6306, Note_off_c, 11, 55, 64
14, 6484, Note_on_c, 11, 55, 97
14, 6526, Note_off_c, 11, 55, 64
14, 6569, Note_on_c, 11, 55, 96
14, 6611, Note_off_c, 11, 55, 64
14, 6648, Note_on_c, 11, 55, 91
14, 6691, Note_off_c, 11, 55, 64
14, 6729, Note_on_c, 11, 55, 98
14, 6787, Note_off_c, 11, 55, 64
14, 6966, Note_on_c, 11, 55, 96
14, 7008, Note_off_c, 11, 55, 64
14, 7047, Note_on_c, 11, 55, 94
14, 7090, Note_off_c, 11, 55, 64
14, 7129, Note_on_c, 11, 55, 90
14, 7172, Note_off_c, 11, 55, 64
14, 7207, Note_on_c, 11, 58, 97
14, 7209, Note_on_c, 11, 63, 104
14, 7249, Note_off_c, 11, 58, 64
14, 7251, Note_off_c, 11, 63, 64
14, 7284, Note_on_c, 11, 63, 91
14, 7288, Note_on_c, 11, 58, 90
14, 7326, Note_off_c, 11, 63, 64
14, 7332, Note_off_c, 11, 58, 64
14, 7362, Note_on_c, 11, 58, 92
14, 7368, Note_on_c, 11, 63, 96
14, 7404, Note_off_c, 11, 58, 64
14, 7410, Note_off_c, 11, 63, 64
14, 7445, Note_on_c, 11, 58, 91
14, 7447, Note_on_c, 11, 63, 96
14, 7503, Note_off_c, 11, 58, 64
14, 7507, Note_off_c, 11, 63, 64
14, 7684, Note_on_c, 11, 55, 92
14, 8019, Note_off_c, 11, 55, 64
14, 8168, Note_on_c, 11, 55, 97
14, 8226, Note_off_c, 11, 55, 64
14, 8409, Note_on_c, 11, 55, 96
14, 8451, Note_off_c, 11, 55, 64
14, 8486, Note_on_c, 11, 55, 98
14, 8528, Note_off_c, 11, 55, 64
14, 8565, Note_on_c, 11, 55, 91
14, 8608, Note_off_c, 11, 55, 64
14, 8649, Note_on_c, 11, 55, 98
14, 8708, Note_off_c, 11, 55, 64
14, 8880, Note_on_c, 11, 55, 97
14, 8922, Note_off_c, 11, 55, 64
14, 8965, Note_on_c, 11, 55, 98
14, 9007, Note_off_c, 11, 55, 64
14, 9048, Note_on_c, 11, 55, 88
14, 9091, Note_off_c, 11, 55, 64
14, 9128, Note_on_c, 11, 58, 97
14, 9128, Note_on_c, 11, 63, 100
14, 9170, Note_off_c, 11, 58, 64
14, 9171, Note_off_c, 11, 63, 64
14, 9205, Note_on_c, 11, 58, 91
14, 9209, Note_on_c, 11, 63, 96
14, 9247, Note_off_c, 11, 58, 64
14, 9251, Note_off_c, 11, 63, 64
14, 9279, Note_on_c, 11, 63, 97
14, 9285, Note_on_c, 11, 58, 90
14, 9321, Note_off_c, 11, 63, 64
14, 9328, Note_off_c, 11, 58, 64
14, 9365, Note_on_c, 11, 58, 90
14, 9367, Note_on_c, 11, 63, 95
14, 9423, Note_off_c, 11, 58, 64
14, 9425, Note_off_c, 11, 63, 64
14, 9603, Note_on_c, 11, 55, 93
14, 9938, Note_off_c, 11, 55, 64
14, 10087, Note_on_c, 11, 55, 98
14, 10147, Note_off_c, 11, 55, 64
14, 10327, Note_on_c, 11, 55, 98
14, 10370, Note_off_c, 11, 55, 64
14, 10409, Note_on_c, 11, 55, 97
14, 10451, Note_off_c, 11, 55, 64
14, 10486, Note_on_c, 11, 55, 85
14, 10528, Note_off_c, 11, 55, 64
14, 10568, Note_on_c, 11, 55, 98
14, 10628, Note_off_c, 11, 55, 64
14, 10805, Note_on_c, 11, 55, 96
14, 10848, Note_off_c, 11, 55, 64
14, 10889, Note_on_c, 11, 55, 98
14, 10931, Note_off_c, 11, 55, 64
14, 10964, Note_on_c, 11, 55, 91
14, 11006, Note_off_c, 11, 55, 64
14, 11044, Note_on_c, 11, 58, 95
14, 11046, Note_on_c, 11, 57, 104
14, 11047, Note_on_c, 11, 63, 98
14, 11049, Note_on_c, 11, 66, 98
14, 11086, Note_off_c, 11, 58, 64
14, 11088, Note_off_c, 11, 57, 64
14, 11089, Note_off_c, 11, 63, 64
14, 11093, Note_off_c, 11, 66, 64
14, 11122, Note_on_c, 11, 58, 89
14, 11128, Note_on_c, 11, 66, 96
14, 11129, Note_on_c, 11, 63, 91
14, 11129, Note_on_c, 11, 57, 97
14, 11164, Note_off_c, 11, 58, 64
14, 11171, Note_off_c, 11, 57, 64
14, 11171, Note_off_c, 11, 63, 64
14, 11171, Note_off_c, 11, 66, 64
14, 11205, Note_on_c, 11, 58, 92
14, 11206, Note_on_c, 11, 57, 97
14, 11207, Note_on_c, 11, 63, 87
14, 11209, Note_on_c, 11, 66, 98
14, 11247, Note_off_c, 11, 58, 64
14, 11248, Note_off_c, 11, 57, 64
14, 11249, Note_off_c, 11, 63, 64
14, 11251, Note_off_c, 11, 66, 64
14, 11283, Note_on_c, 11, 57, 98
14, 11284, Note_on_c, 11, 63, 89
14, 11286, Note_on_c, 11, 66, 98
14, 11287, Note_on_c, 11, 58, 92
14, 11341, Note_off_c, 11, 57, 64
14, 11342, Note_off_c, 11, 63, 64
14, 11344, Note_off_c, 11, 66, 64
14, 11346, Note_off_c, 11, 58, 64
14, 11521, Note_on_c, 11, 55, 97
14, 11857, Note_off_c, 11, 55, 64
14, 12003, Note_on_c, 11, 55, 97
14, 12061, Note_off_c, 11, 55, 64
14, 12248, Note_on_c, 11, 55, 97
14, 12290, Note_off_c, 11, 55, 64
14, 12328, Note_on_c, 11, 55, 96
14, 12370, Note_off_c, 11, 55, 64
14, 12396, Note_on_c, 11, 55, 92
14, 12439, Note_off_c, 11, 55, 64
14, 12488, Note_on_c, 11, 55, 97
14, 12549, Note_off_c, 11, 55, 64
14, 12720, Control_c, 11, 11, 127
14, 12727, Note_on_c, 11, 55, 98
14, 12769, Note_off_c, 11, 55, 64
14, 12804, Note_on_c, 11, 55, 96
14, 12816, Control_c, 11, 11, 124
14, 12847, Note_off_c, 11, 55, 64
14, 12888, Control_c, 11, 11, 121
14, 12889, Note_on_c, 11, 55, 91
14, 12931, Note_off_c, 11, 55, 64
14, 12968, Note_on_c, 11, 57, 104
14, 12968, Note_on_c, 11, 66, 104
14, 12968, Note_on_c, 11, 63, 97
14, 12969, Note_on_c, 11, 58, 97
14, 13008, Control_c, 11, 11, 118
14, 13011, Note_off_c, 11, 66, 64
14, 13011, Note_off_c, 11, 58, 64
14, 13012, Note_off_c, 11, 63, 64
14, 13012, Note_off_c, 11, 57, 64
14, 13041, Note_on_c, 11, 66, 96
14, 13047, Note_on_c, 11, 58, 90
14, 13048, Note_on_c, 11, 63, 84
14, 13049, Note_on_c, 11, 57, 96
14, 13080, Control_c, 11, 11, 115
14, 13083, Note_off_c, 11, 66, 64
14, 13090, Note_off_c, 11, 58, 64
14, 13090, Note_off_c, 11, 63, 64
14, 13092, Note_off_c, 11, 57, 64
14, 13124, Note_on_c, 11, 57, 98
14, 13128, Note_on_c, 11, 66, 98
14, 13129, Note_on_c, 11, 58, 91
14, 13129, Note_on_c, 11, 63, 91
14, 13166, Note_off_c, 11, 57, 64
14, 13170, Note_off_c, 11, 66, 64
14, 13171, Note_off_c, 11, 58, 64
14, 13172, Note_off_c, 11, 63, 64
14, 13200, Control_c, 11, 11, 111
14, 13203, Note_on_c, 11, 63, 90
14, 13206, Note_on_c, 11, 66, 94
14, 13208, Note_on_c, 11, 58, 87
14, 13209, Note_on_c, 11, 57, 94
14, 13262, Note_off_c, 11, 63, 64
14, 13265, Note_off_c, 11, 66, 64
14, 13267, Note_off_c, 11, 58, 64
14, 13267, Note_off_c, 11, 57, 64
14, 13320, Control_c, 11, 11, 108
14, 13392, Control_c, 11, 11, 105
14, 13416, Control_c, 11, 11, 104
14, 13445, Note_on_c, 11, 55, 97
14, 13780, Note_off_c, 11, 55, 64
14, 13928, Note_on_c, 11, 55, 97
14, 13987, Note_off_c, 11, 55, 64
14, 14165, Note_on_c, 11, 55, 97
14, 14209, Note_off_c, 11, 55, 64
14, 14245, Note_on_c, 11, 55, 97
14, 14287, Note_off_c, 11, 55, 64
14, 14329, Note_on_c, 11, 55, 92
14, 14371, Note_off_c, 11, 55, 64
14, 14401, Note_on_c, 11, 55, 95
14, 14459, Note_off_c, 11, 55, 64
14, 14648, Note_on_c, 11, 55, 93
14, 14690, Note_off_c, 11, 55, 64
14, 14726, Note_on_c, 11, 55, 97
14, 14768, Note_off_c, 11, 55, 64
14, 14809, Note_on_c, 11, 55, 91
14, 14851, Note_off_c, 11, 55, 64
14, 14886, Note_on_c, 11, 58, 93
14, 14886, Note_on_c, 11, 57, 101
14, 14888, Note_on_c, 11, 66, 103
14, 14888, Note_on_c, 11, 63, 98
14, 14928, Note_off_c, 11, 57, 64
14, 14929, Note_off_c, 11, 58, 64
14, 14930, Note_off_c, 11, 66, 64
14, 14930, Note_off_c, 11, 63, 64
14, 14965, Note_on_c, 11, 63, 87
14, 14967, Note_on_c, 11, 66, 97
14, 14967, Note_on_c, 11, 57, 95
14, 14969, Note_on_c, 11, 58, 90
14, 15009, Note_off_c, 11, 63, 64
14, 15010, Note_off_c, 11, 66, 64
14, 15010, Note_off_c, 11, 57, 64
14, 15011, Note_off_c, 11, 58, 64
14, 15044, Note_on_c, 11, 63, 89
14, 15045, Note_on_c, 11, 57, 98
14, 15047, Note_on_c, 11, 66, 97
14, 15048, Note_on_c, 11, 58, 91
14, 15086, Note_off_c, 11, 63, 64
14, 15087, Note_off_c, 11, 57, 64
14, 15091, Note_off_c, 11, 66, 64
14, 15092, Note_off_c, 11, 58, 64
14, 15124, Note_on_c, 11, 58, 91
14, 15125, Note_on_c, 11, 66, 96
14, 15126, Note_on_c, 11, 57, 96
14, 15129, Note_on_c, 11, 63, 91
14, 15183, Note_off_c, 11, 58, 64
14, 15184, Note_off_c, 11, 66, 64
14, 15184, Note_off_c, 11, 57, 64
14, 15187, Note_off_c, 11, 63, 64
14, 15366, Note_on_c, 11, 55, 97
14, 15700, Note_off_c, 11, 55, 64
14, 15846, Note_on_c, 11, 55, 97
14, 15905, Note_off_c, 11, 55, 64
14, 16087, Note_on_c, 11, 55, 97
14, 16131, Note_off_c, 11, 55, 64
14, 16163, Note_on_c, 11, 55, 97
14, 16206, Note_off_c, 11, 55, 64
14, 16249, Note_on_c, 11, 55, 88
14, 16291, Note_off_c, 11, 55, 64
14, 16329, Note_on_c, 11, 55, 93
14, 16388, Note_off_c, 11, 55, 64
14, 16566, Note_on_c, 11, 55, 97
14, 16608, Note_off_c, 11, 55, 64
14, 16648, Note_on_c, 11, 55, 98
14, 16690, Note_off_c, 11, 55, 64
14, 16725, Note_on_c, 11, 55, 88
14, 16767, Note_off_c, 11, 55, 64
14, 16802, Note_on_c, 11, 58, 95
14, 16805, Note_on_c, 11, 66, 102
14, 16807, Note_on_c, 11, 57, 103
14, 16807, Note_on_c, 11, 63, 95
14, 16844, Note_off_c, 11, 58, 64
14, 16849, Note_off_c, 11, 66, 64
14, 16849, Note_off_c, 11, 57, 64
14, 16850, Note_off_c, 11, 63, 64
14, 16881, Note_on_c, 11, 58, 90
14, 16882, Note_on_c, 11, 57, 98
14, 16889, Note_on_c, 11, 66, 98
14, 16889, Note_on_c, 11, 63, 92
14, 16923, Note_off_c, 11, 58, 64
14, 16924, Note_off_c, 11, 57, 64
14, 16931, Note_off_c, 11, 66, 64
14, 16933, Note_off_c, 11, 63, 64
14, 16961, Note_on_c, 11, 66, 93
14, 16968, Note_on_c, 11, 57, 97
14, 16968, Note_on_c, 11, 63, 89
14, 16969, Note_on_c, 11, 58, 92
14, 17004, Note_off_c, 11, 66, 64
14, 17010, Note_off_c, 11, 57, 64
14, 17010, Note_off_c, 11, 63, 64
14, 17011, Note_off_c, 11, 58, 64
14, 17044, Note_on_c, 11, 57, 95
14, 17046, Note_on_c, 11, 63, 91
14, 17048, Note_on_c, 11, 58, 91
14, 17049, Note_on_c, 11, 66, 97
14, 17103, Note_off_c, 11, 57, 64
14, 17105, Note_off_c, 11, 63, 64
14, 17106, Note_off_c, 11, 58, 64
14, 17107, Note_off_c, 11, 66, 64
14, 17284, Note_on_c, 11, 55, 97
14, 17618, Note_off_c, 11, 55, 64
14, 17768, Note_on_c, 11, 55, 95
14, 17826, Note_off_c, 11, 55, 64
14, 18009, Note_on_c, 11, 55, 97
14, 18051, Note_off_c, 11, 55, 64
14, 18078, Note_on_c, 11, 55, 94
14, 18120, Note_off_c, 11, 55, 64
14, 18168, Note_on_c, 11, 55, 91
14, 18210, Note_off_c, 11, 55, 64
14, 18245, Note_on_c, 11, 55, 98
14, 18303, Note_off_c, 11, 55, 64
14, 18487, Note_on_c, 11, 55, 95
14, 18530, Note_off_c, 11, 55, 64
14, 18568, Note_on_c, 11, 55, 98
14, 18611, Note_off_c, 11, 55, 64
14, 18649, Note_on_c, 11, 55, 92
14, 18691, Note_off_c, 11, 55, 64
14, 18724, Note_on_c, 11, 58, 95
14, 18725, Note_on_c, 11, 63, 98
14, 18725, Note_on_c, 11, 57, 102
14, 18726, Note_on_c, 11, 66, 104
14, 18766, Note_off_c, 11, 58, 64
14, 18767, Note_off_c, 11, 63, 64
14, 18768, Note_off_c, 11, 57, 64
14, 18768, Note_off_c, 11, 66, 64
14, 18806, Note_on_c, 11, 57, 98
14, 18807, Note_on_c, 11, 66, 98
14, 18808, Note_on_c, 11, 63, 91
14, 18809, Note_on_c, 11, 58, 88
14, 18849, Note_off_c, 11, 57, 64
14, 18849, Note_off_c, 11, 66, 64
14, 18850, Note_off_c, 11, 63, 64
14, 18852, Note_off_c, 11, 58, 64
14, 18883, Note_on_c, 11, 58, 92
14, 18885, Note_on_c, 11, 66, 97
14, 18886, Note_on_c, 11, 57, 96
14, 18889, Note_on_c, 11, 63, 91
14, 18925, Note_off_c, 11, 58, 64
14, 18927, Note_off_c, 11, 66, 64
14, 18930, Note_off_c, 11, 57, 64
14, 18931, Note_off_c, 11, 63, 64
14, 18964, Note_on_c, 11, 66, 98
14, 18965, Note_on_c, 11, 58, 92
14, 18967, Note_on_c, 11, 63, 90
14, 18968, Note_on_c, 11, 57, 98
14, 19022, Note_off_c, 11, 66, 64
14, 19023, Note_off_c, 11, 58, 64
14, 19026, Note_off_c, 11, 63, 64
14, 19027, Note_off_c, 11, 57, 64
14, 19209, Note_on_c, 11, 63, 98
14, 19209, Note_on_c, 11, 66, 95
14, 19543, Note_off_c, 11, 66, 64
14, 19544, Note_off_c, 11, 63, 64
14, 19684, Note_on_c, 11, 66, 97
14, 19686, Note_on_c, 11, 63, 98
14, 19742, Note_off_c, 11, 66, 64
14, 19745, Note_off_c, 11, 63, 64
14, 19923, Note_on_c, 11, 63, 96
14, 19928, Note_on_c, 11, 66, 98
14, 19967, Note_off_c, 11, 63, 64
14, 19970, Note_off_c, 11, 66, 64
14, 20003, Note_on_c, 11, 66, 95
14, 20008, Note_on_c, 11, 63, 96
14, 20047, Note_off_c, 11, 66, 64
14, 20050, Note_off_c, 11, 63, 64
14, 20086, Note_on_c, 11, 63, 92
14, 20088, Note_on_c, 11, 66, 92
14, 20128, Note_off_c, 11, 63, 64
14, 20130, Note_off_c, 11, 66, 64
14, 20163, Note_on_c, 11, 62, 95
14, 20169, Note_on_c, 11, 67, 97
14, 20221, Note_off_c, 11, 62, 64
14, 20228, Note_off_c, 11, 67, 64
14, 20402, Note_on_c, 11, 58, 96
14, 20409, Note_on_c, 11, 62, 96
14, 20446, Note_off_c, 11, 58, 64
14, 20451, Note_off_c, 11, 62, 64
14, 20483, Note_on_c, 11, 58, 97
14, 20485, Note_on_c, 11, 62, 98
14, 20525, Note_off_c, 11, 58, 64
14, 20528, Note_off_c, 11, 62, 64
14, 20564, Note_on_c, 11, 58, 91
14, 20568, Note_on_c, 11, 62, 91
14, 20606, Note_off_c, 11, 58, 64
14, 20612, Note_off_c, 11, 62, 64
14, 20645, Note_on_c, 11, 63, 102
14, 20649, Note_on_c, 11, 59, 98
14, 20688, Note_off_c, 11, 63, 64
14, 20692, Note_off_c, 11, 59, 64
14, 20724, Note_on_c, 11, 59, 91
14, 20728, Note_on_c, 11, 63, 96
14, 20766, Note_off_c, 11, 59, 64
14, 20771, Note_off_c, 11, 63, 64
14, 20806, Note_on_c, 11, 59, 92
14, 20807, Note_on_c, 11, 63, 96
14, 20848, Note_off_c, 11, 59, 64
14, 20850, Note_off_c, 11, 63, 64
14, 20885, Note_on_c, 11, 61, 91
14, 20889, Note_on_c, 11, 65, 95
14, 20943, Note_off_c, 11, 61, 64
14, 20948, Note_off_c, 11, 65, 64
14, 21126, Note_on_c, 11, 67, 96
14, 21461, Note_off_c, 11, 67, 64
14, 21609, Note_on_c, 11, 67, 94
14, 21667, Note_off_c, 11, 67, 64
14, 21848, Note_on_c, 11, 67, 97
14, 21890, Note_off_c, 11, 67, 64
14, 21929, Note_on_c, 11, 67, 98
14, 21971, Note_off_c, 11, 67, 64
14, 22009, Note_on_c, 11, 67, 89
14, 22053, Note_off_c, 11, 67, 64
14, 22089, Note_on_c, 11, 67, 97
14, 22147, Note_off_c, 11, 67, 64
14, 22328, Note_on_c, 11, 67, 95
14, 22370, Note_off_c, 11, 67, 64
14, 22408, Note_on_c, 11, 67, 94
14, 22450, Note_off_c, 11, 67, 64
14, 22485, Note_on_c, 11, 67, 91
14, 22528, Note_off_c, 11, 67, 64
14, 22568, Note_on_c, 11, 66, 97
14, 22568, Note_on_c, 11, 67, 102
14, 22610, Note_off_c, 11, 67, 64
14, 22611, Note_off_c, 11, 66, 64
14, 22646, Note_on_c, 11, 66, 92
14, 22649, Note_on_c, 11, 67, 98
14, 22688, Note_off_c, 11, 66, 64
14, 22692, Note_off_c, 11, 67, 64
14, 22722, Note_on_c, 11, 67, 97
14, 22726, Note_on_c, 11, 66, 91
14, 22765, Note_off_c, 11, 67, 64
14, 22768, Note_off_c, 11, 66, 64
14, 22808, Note_on_c, 11, 67, 98
14, 22809, Note_on_c, 11, 65, 88
14, 22867, Note_off_c, 11, 67, 64
14, 22867, Note_off_c, 11, 65, 64
14, 23045, Note_on_c, 11, 68, 98
14, 23049, Note_on_c, 11, 64, 88
14, 23380, Note_off_c, 11, 68, 64
14, 23383, Note_off_c, 11, 64, 64
14, 23522, Note_on_c, 11, 64, 92
14, 23529, Note_on_c, 11, 68, 98
14, 23580, Note_off_c, 11, 64, 64
14, 23588, Note_off_c, 11, 68, 64
14, 23765, Note_on_c, 11, 64, 93
14, 23769, Note_on_c, 11, 61, 90
14, 23807, Note_off_c, 11, 64, 64
14, 23811, Note_off_c, 11, 61, 64
14, 23845, Note_on_c, 11, 61, 89
14, 23845, Note_on_c, 11, 64, 96
14, 23887, Note_off_c, 11, 61, 64
14, 23887, Note_off_c, 11, 64, 64
14, 23921, Note_on_c, 11, 61, 85
14, 23925, Note_on_c, 11, 64, 90
14, 23963, Note_off_c, 11, 61, 64
14, 23967, Note_off_c, 11, 64, 64
14, 24007, Note_on_c, 11, 64, 98
14, 24009, Note_on_c, 11, 61, 90
14, 24065, Note_off_c, 11, 64, 64
14, 24067, Note_off_c, 11, 61, 64
14, 24244, Note_on_c, 11, 61, 86
14, 24248, Note_on_c, 11, 64, 96
14, 24286, Note_off_c, 11, 61, 64
14, 24291, Note_off_c, 11, 64, 64
14, 24328, Note_on_c, 11, 61, 91
14, 24329, Note_on_c, 11, 64, 98
14, 24371, Note_off_c, 11, 61, 64
14, 24371, Note_off_c, 11, 64, 64
14, 24403, Note_on_c, 11, 61, 85
14, 24407, Note_on_c, 11, 64, 89
14, 24445, Note_off_c, 11, 61, 64
14, 24449, Note_off_c, 11, 64, 64
14, 24483, Note_on_c, 11, 56, 98
14, 24488, Note_on_c, 11, 55, 97
14, 24489, Note_on_c, 11, 64, 104
14, 24526, Note_off_c, 11, 56, 64
14, 24531, Note_off_c, 11, 64, 64
14, 24531, Note_off_c, 11, 55, 64
14, 24566, Note_on_c, 11, 64, 93
14, 24568, Note_on_c, 11, 55, 92
14, 24568, Note_on_c, 11, 56, 87
14, 24608, Note_off_c, 11, 64, 64
14, 24610, Note_off_c, 11, 56, 64
14, 24610, Note_off_c, 11, 55, 64
14, 24647, Note_on_c, 11, 56, 92
14, 24647, Note_on_c, 11, 55, 92
14, 24648, Note_on_c, 11, 64, 96
14, 24689, Note_off_c, 11, 56, 64
14, 24690, Note_off_c, 11, 55, 64
14, 24691, Note_off_c, 11, 64, 64
14, 24724, Note_on_c, 11, 56, 89
14, 24725, Note_on_c, 11, 64, 94
14, 24728, Note_on_c, 11, 59, 85
14, 24782, Note_off_c, 11, 56, 64
14, 24783, Note_off_c, 11, 64, 64
14, 24787, Note_off_c, 11, 59, 64
14, 24964, Note_on_c, 11, 66, 96
14, 24969, Note_on_c, 11, 58, 90
14, 25298, Note_off_c, 11, 66, 64
14, 25303, Note_off_c, 11, 58, 64
14, 25448, Note_on_c, 11, 66, 96
14, 25448, Note_on_c, 11, 58, 92
14, 25506, Note_off_c, 11, 66, 64
14, 25506, Note_off_c, 11, 58, 64
14, 25688, Note_on_c, 11, 66, 98
14, 25688, Note_on_c, 11, 58, 91
14, 25730, Note_off_c, 11, 66, 64
14, 25732, Note_off_c, 11, 58, 64
14, 25768, Note_on_c, 11, 66, 95
14, 25769, Note_on_c, 11, 58, 89
14, 25810, Note_off_c, 11, 66, 64
14, 25812, Note_off_c, 11, 58, 64
14, 25847, Note_on_c, 11, 58, 83
14, 25848, Note_on_c, 11, 66, 90
14, 25891, Note_off_c, 11, 58, 64
14, 25891, Note_off_c, 11, 66, 64
14, 25924, Note_on_c, 11, 66, 97
14, 25929, Note_on_c, 11, 63, 87
14, 26343, Note_off_c, 11, 66, 64
14, 26347, Note_off_c, 11, 63, 64
14, 26408, Note_on_c, 11, 58, 97
14, 26409, Note_on_c, 11, 66, 104
14, 26467, Note_off_c, 11, 58, 64
14, 26469, Note_off_c, 11, 66, 64
14, 26646, Note_on_c, 11, 58, 91
14, 26649, Note_on_c, 11, 66, 96
14, 26688, Note_off_c, 11, 58, 64
14, 26691, Note_off_c, 11, 66, 64
14, 26729, Note_on_c, 11, 58, 90
14, 26729, Note_on_c, 11, 66, 98
14, 26771, Note_off_c, 11, 58, 64
14, 26772, Note_off_c, 11, 66, 64
14, 26808, Note_on_c, 11, 58, 86
14, 26809, Note_on_c, 11, 66, 92
14, 26850, Note_off_c, 11, 58, 64
14, 26853, Note_off_c, 11, 66, 64
14, 26888, Note_on_c, 11, 67, 95
14, 26888, Note_on_c, 11, 55, 92
14, 27223, Note_off_c, 11, 67, 64
14, 27223, Note_off_c, 11, 55, 64
14, 27369, Note_on_c, 11, 67, 98
14, 27369, Note_on_c, 11, 55, 92
14, 27428, Note_off_c, 11, 67, 64
14, 27429, Note_off_c, 11, 55, 64
14, 27607, Note_on_c, 11, 67, 96
14, 27607, Note_on_c, 11, 58, 92
14, 27649, Note_off_c, 11, 67, 64
14, 27649, Note_off_c, 11, 58, 64
14, 27682, Note_on_c, 11, 67, 90
14, 27688, Note_on_c, 11, 58, 92
14, 27726, Note_off_c, 11, 67, 64
14, 27731, Note_off_c, 11, 58, 64
14, 27759, Note_on_c, 11, 58, 86
14, 27769, Note_on_c, 11, 67, 90
14, 27802, Note_off_c, 11, 58, 64
14, 27811, Note_off_c, 11, 67, 64
14, 27842, Note_on_c, 11, 67, 94
14, 27848, Note_on_c, 11, 55, 87
14, 27900, Note_off_c, 11, 67, 64
14, 27907, Note_off_c, 11, 55, 64
14, 28085, Note_on_c, 11, 67, 98
14, 28088, Note_on_c, 11, 55, 92
14, 28127, Note_off_c, 11, 67, 64
14, 28132, Note_off_c, 11, 55, 64
14, 28166, Note_on_c, 11, 67, 92
14, 28168, Note_on_c, 11, 55, 87
14, 28210, Note_off_c, 11, 55, 64
14, 28211, Note_off_c, 11, 67, 64
14, 28248, Note_on_c, 11, 55, 82
14, 28249, Note_on_c, 11, 67, 90
14, 28290, Note_off_c, 11, 55, 64
14, 28291, Note_off_c, 11, 67, 64
14, 28322, Note_on_c, 11, 67, 104
14, 28326, Note_on_c, 11, 55, 98
14, 28329, Note_on_c, 11, 66, 98
14, 28365, Note_off_c, 11, 67, 64
14, 28369, Note_off_c, 11, 55, 64
14, 28371, Note_off_c, 11, 66, 64
14, 28405, Note_on_c, 11, 55, 89
14, 28406, Note_on_c, 11, 67, 95
14, 28407, Note_on_c, 11, 66, 92
14, 28448, Note_off_c, 11, 55, 64
14, 28448, Note_off_c, 11, 67, 64
14, 28449, Note_off_c, 11, 66, 64
14, 28482, Note_on_c, 11, 67, 98
14, 28487, Note_on_c, 11, 55, 91
14, 28489, Note_on_c, 11, 66, 91
14, 28524, Note_off_c, 11, 67, 64
14, 28530, Note_off_c, 11, 55, 64
14, 28532, Note_off_c, 11, 66, 64
14, 28566, Note_on_c, 11, 67, 97
14, 28568, Note_on_c, 11, 55, 90
14, 28625, Note_off_c, 11, 67, 64
14, 28626, Note_off_c, 11, 55, 64
14, 28807, Note_on_c, 11, 67, 92
14, 28808, Note_on_c, 11, 63, 84
14, 28809, Note_on_c, 11, 55, 87
14, 29141, Note_off_c, 11, 67, 64
14, 29142, Note_off_c, 11, 63, 64
14, 29145, Note_off_c, 11, 55, 64
14, 29289, Note_on_c, 11, 67, 98
14, 29347, Note_off_c, 11, 67, 64
14, 29524, Note_on_c, 11, 67, 97
14, 29566, Note_off_c, 11, 67, 64
14, 29609, Note_on_c, 11, 67, 97
14, 29651, Note_off_c, 11, 67, 64
14, 29688, Note_on_c, 11, 67, 90
14, 29730, Note_off_c, 11, 67, 64
14, 29766, Note_on_c, 11, 67, 94
14, 29824, Note_off_c, 11, 67, 64
14, 30008, Note_on_c, 11, 67, 98
14, 30050, Note_off_c, 11, 67, 64
14, 30085, Note_on_c, 11, 67, 98
14, 30128, Note_off_c, 11, 67, 64
14, 30165, Note_on_c, 11, 67, 89
14, 30208, Note_off_c, 11, 67, 64
14, 30242, Note_on_c, 11, 67, 104
14, 30247, Note_on_c, 11, 66, 95
14, 30284, Note_off_c, 11, 67, 64
14, 30289, Note_off_c, 11, 66, 64
14, 30321, Note_on_c, 11, 66, 90
14, 30329, Note_on_c, 11, 67, 98
14, 30363, Note_off_c, 11, 66, 64
14, 30372, Note_off_c, 11, 67, 64
14, 30406, Note_on_c, 11, 67, 97
14, 30408, Note_on_c, 11, 66, 90
14, 30449, Note_off_c, 11, 67, 64
14, 30450, Note_off_c, 11, 66, 64
14, 30486, Note_on_c, 11, 65, 91
14, 30488, Note_on_c, 11, 67, 98
14, 30544, Note_off_c, 11, 65, 64
14, 30546, Note_off_c, 11, 67, 64
14, 30721, Note_on_c, 11, 68, 97
14, 30728, Note_on_c, 11, 64, 91
14, 31055, Note_off_c, 11, 68, 64
14, 31062, Note_off_c, 11, 64, 64
14, 31202, Note_on_c, 11, 68, 97
14, 31203, Note_on_c, 11, 64, 90
14, 31260, Note_off_c, 11, 68, 64
14, 31262, Note_off_c, 11, 64, 64
14, 31447, Note_on_c, 11, 61, 92
14, 31448, Note_on_c, 11, 68, 97
14, 31489, Note_off_c, 11, 61, 64
14, 31490, Note_off_c, 11, 68, 64
14, 31524, Note_on_c, 11, 61, 92
14, 31529, Note_on_c, 11, 68, 92
14, 31568, Note_off_c, 11, 61, 64
14, 31572, Note_off_c, 11, 68, 64
14, 31604, Note_on_c, 11, 68, 89
14, 31608, Note_on_c, 11, 61, 81
14, 31646, Note_off_c, 11, 68, 64
14, 31652, Note_off_c, 11, 61, 64
14, 31682, Note_on_c, 11, 61, 92
14, 31685, Note_on_c, 11, 64, 96
14, 31741, Note_off_c, 11, 61, 64
14, 31745, Note_off_c, 11, 64, 64
14, 31927, Note_on_c, 11, 61, 91
14, 31927, Note_on_c, 11, 64, 98
14, 31969, Note_off_c, 11, 61, 64
14, 31971, Note_off_c, 11, 64, 64
14, 32005, Note_on_c, 11, 64, 98
14, 32009, Note_on_c, 11, 61, 89
14, 32048, Note_off_c, 11, 64, 64
14, 32051, Note_off_c, 11, 61, 64
14, 32087, Note_on_c, 11, 64, 91
14, 32088, Note_on_c, 11, 61, 85
14, 32129, Note_off_c, 11, 64, 64
14, 32130, Note_off_c, 11, 61, 64
14, 32159, Note_on_c, 11, 60, 98
14, 32168, Note_on_c, 11, 64, 104
14, 32202, Note_off_c, 11, 60, 64
14, 32210, Note_off_c, 11, 64, 64
14, 32244, Note_on_c, 11, 64, 97
14, 32249, Note_on_c, 11, 60, 89
14, 32289, Note_off_c, 11, 64, 64
14, 32291, Note_off_c, 11, 60, 64
14, 32324, Note_on_c, 11, 64, 93
14, 32324, Note_on_c, 11, 60, 91
14, 32366, Note_off_c, 11, 64, 64
14, 32366, Note_off_c, 11, 60, 64
14, 32404, Note_on_c, 11, 59, 91
14, 32409, Note_on_c, 11, 64, 96
14, 32463, Note_off_c, 11, 59, 64
14, 32468, Note_off_c, 11, 64, 64
14, 32647, Note_on_c, 11, 58, 88
14, 32648, Note_on_c, 11, 66, 94
14, 32981, Note_off_c, 11, 58, 64
14, 32982, Note_off_c, 11, 66, 64
14, 33120, Note_on_c, 11, 63, 89
14, 33125, Note_on_c, 11, 66, 94
14, 33178, Note_off_c, 11, 63, 64
14, 33183, Note_off_c, 11, 66, 64
14, 33366, Note_on_c, 11, 66, 98
14, 33367, Note_on_c, 11, 63, 92
14, 33410, Note_off_c, 11, 66, 64
14, 33410, Note_off_c, 11, 63, 64
14, 33445, Note_on_c, 11, 66, 95
14, 33449, Note_on_c, 11, 63, 91
14, 33487, Note_off_c, 11, 66, 64
14, 33492, Note_off_c, 11, 63, 64
14, 33526, Note_on_c, 11, 63, 86
14, 33529, Note_on_c, 11, 66, 92
14, 33568, Note_off_c, 11, 63, 64
14, 33571, Note_off_c, 11, 66, 64
14, 33607, Note_on_c, 11, 63, 92
14, 33609, Note_on_c, 11, 66, 97
14, 33666, Note_off_c, 11, 63, 64
14, 33668, Note_off_c, 11, 66, 64
14, 33844, Note_on_c, 11, 63, 92
14, 33848, Note_on_c, 11, 66, 97
14, 33886, Note_off_c, 11, 63, 64
14, 33891, Note_off_c, 11, 66, 64
14, 33926, Note_on_c, 11, 66, 98
14, 33927, Note_on_c, 11, 63, 92
14, 33968, Note_off_c, 11, 66, 64
14, 33969, Note_off_c, 11, 63, 64
14, 34009, Note_on_c, 11, 66, 92
14, 34009, Note_on_c, 11, 63, 85
14, 34051, Note_off_c, 11, 63, 64
14, 34052, Note_off_c, 11, 66, 64
14, 34077, Note_on_c, 11, 58, 94
14, 34086, Note_on_c, 11, 63, 100
14, 34120, Note_off_c, 11, 58, 64
14, 34128, Note_off_c, 11, 63, 64
14, 34163, Note_on_c, 11, 63, 98
14, 34168, Note_on_c, 11, 58, 92
14, 34207, Note_off_c, 11, 63, 64
14, 34211, Note_off_c, 11, 58, 64
14, 34247, Note_on_c, 11, 63, 95
14, 34249, Note_on_c, 11, 58, 86
14, 34290, Note_off_c, 11, 63, 64
14, 34291, Note_off_c, 11, 58, 64
14, 34318, Note_on_c, 11, 63, 97
14, 34328, Note_on_c, 11, 58, 91
14, 34376, Note_off_c, 11, 63, 64
14, 34386, Note_off_c, 11, 58, 64
14, 34569, Note_on_c, 11, 67, 98
14, 34903, Note_off_c, 11, 67, 64
14, 35045, Note_on_c, 11, 66, 98
14, 35045, Note_on_c, 11, 58, 90
14, 35103, Note_off_c, 11, 66, 64
14, 35104, Note_off_c, 11, 58, 64
14, 35288, Note_on_c, 11, 66, 98
14, 35288, Note_on_c, 11, 58, 87
14, 35330, Note_off_c, 11, 66, 64
14, 35330, Note_off_c, 11, 58, 64
14, 35366, Note_on_c, 11, 66, 94
14, 35369, Note_on_c, 11, 58, 92
14, 35408, Note_off_c, 11, 66, 64
14, 35411, Note_off_c, 11, 58, 64
14, 35446, Note_on_c, 11, 66, 92
14, 35448, Note_on_c, 11, 58, 86
14, 35488, Note_off_c, 11, 66, 64
14, 35490, Note_off_c, 11, 58, 64
14, 35529, Note_on_c, 11, 67, 98
14, 35587, Note_off_c, 11, 67, 64
14, 35768, Note_on_c, 11, 67, 94
14, 35811, Note_off_c, 11, 67, 64
14, 35848, Note_on_c, 11, 67, 96
14, 35891, Note_off_c, 11, 67, 64
14, 35929, Note_on_c, 11, 67, 91
14, 35971, Note_off_c, 11, 67, 64
14, 36000, Control_c, 11, 11, 104
14, 36007, Note_on_c, 11, 67, 104
14, 36049, Note_off_c, 11, 67, 64
14, 36084, Control_c, 11, 11, 108
14, 36087, Note_on_c, 11, 67, 99
14, 36129, Note_off_c, 11, 67, 64
14, 36156, Control_c, 11, 11, 111
14, 36169, Note_on_c, 11, 67, 102
14, 36204, Control_c, 11, 11, 114
14, 36211, Note_off_c, 11, 67, 64
14, 36245, Note_on_c, 11, 67, 102
14, 36288, Control_c, 11, 11, 118
14, 36304, Note_off_c, 11, 67, 64
14, 36360, Control_c, 11, 11, 121
14, 36408, Control_c, 11, 11, 124
14, 36456, Control_c, 11, 11, 127
14, 36487, Note_on_c, 11, 55, 98
14, 36822, Note_off_c, 11, 55, 64
14, 36962, Note_on_c, 11, 55, 98
14, 37020, Note_off_c, 11, 55, 64
14, 37208, Note_on_c, 11, 55, 98
14, 37250, Note_off_c, 11, 55, 64
14, 37285, Note_on_c, 11, 55, 96
14, 37327, Note_off_c, 11, 55, 64
14, 37365, Note_on_c, 11, 55, 91
14, 37409, Note_off_c, 11, 55, 64
14, 37445, Note_on_c, 11, 55, 95
14, 37505, Note_off_c, 11, 55, 64
14, 37688, Note_on_c, 11, 55, 98
14, 37730, Note_off_c, 11, 55, 64
14, 37767, Note_on_c, 11, 55, 97
14, 37810, Note_off_c, 11, 55, 64
14, 37849, Note_on_c, 11, 55, 92
14, 37893, Note_off_c, 11, 55, 64
14, 37928, Note_on_c, 11, 58, 93
14, 37928, Note_on_c, 11, 63, 97
14, 37929, Note_on_c, 11, 66, 102
14, 37929, Note_on_c, 11, 57, 104
14, 37970, Note_off_c, 11, 63, 64
14, 37971, Note_off_c, 11, 58, 64
14, 37971, Note_off_c, 11, 66, 64
14, 37972, Note_off_c, 11, 57, 64
14, 38003, Note_on_c, 11, 63, 91
14, 38003, Note_on_c, 11, 57, 97
14, 38009, Note_on_c, 11, 66, 98
14, 38009, Note_on_c, 11, 58, 92
14, 38045, Note_off_c, 11, 57, 64
14, 38048, Note_off_c, 11, 63, 64
14, 38051, Note_off_c, 11, 58, 64
14, 38052, Note_off_c, 11, 66, 64
14, 38086, Note_on_c, 11, 57, 97
14, 38087, Note_on_c, 11, 66, 97
14, 38089, Note_on_c, 11, 63, 90
14, 38089, Note_on_c, 11, 58, 89
14, 38130, Note_off_c, 11, 57, 64
14, 38130, Note_off_c, 11, 66, 64
14, 38131, Note_off_c, 11, 63, 64
14, 38132, Note_off_c, 11, 58, 64
14, 38162, Note_on_c, 11, 66, 97
14, 38166, Note_on_c, 11, 58, 89
14, 38166, Note_on_c, 11, 63, 92
14, 38169, Note_on_c, 11, 57, 96
14, 38220, Note_off_c, 11, 66, 64
14, 38224, Note_off_c, 11, 58, 64
14, 38224, Note_off_c, 11, 63, 64
14, 38228, Note_off_c, 11, 57, 64
14, 38408, Note_on_c, 11, 55, 97
14, 38742, Note_off_c, 11, 55, 64
14, 38879, Note_on_c, 11, 55, 95
14, 38938, Note_off_c, 11, 55, 64
14, 39124, Note_on_c, 11, 55, 98
14, 39166, Note_off_c, 11, 55, 64
14, 39209, Note_on_c, 11, 55, 93
14, 39252, Note_off_c, 11, 55, 64
14, 39289, Note_on_c, 11, 55, 92
14, 39331, Note_off_c, 11, 55, 64
14, 39367, Note_on_c, 11, 55, 92
14, 39426, Note_off_c, 11, 55, 64
14, 39609, Note_on_c, 11, 55, 92
14, 39651, Note_off_c, 11, 55, 64
14, 39686, Note_on_c, 11, 55, 93
14, 39728, Note_off_c, 11, 55, 64
14, 39768, Note_on_c, 11, 55, 89
14, 39810, Note_off_c, 11, 55, 64
14, 39847, Note_on_c, 11, 57, 103
14, 39847, Note_on_c, 11, 66, 101
14, 39849, Note_on_c, 11, 63, 97
14, 39849, Note_on_c, 11, 58, 96
14, 39890, Note_off_c, 11, 57, 64
14, 39890, Note_off_c, 11, 66, 64
14, 39891, Note_off_c, 11, 58, 64
14, 39892, Note_off_c, 11, 63, 64
14, 39924, Note_on_c, 11, 58, 92
14, 39925, Note_on_c, 11, 66, 93
14, 39928, Note_on_c, 11, 57, 97
14, 39928, Note_on_c, 11, 63, 91
14, 39966, Note_off_c, 11, 58, 64
14, 39967, Note_off_c, 11, 66, 64
14, 39970, Note_off_c, 11, 57, 64
14, 39970, Note_off_c, 11, 63, 64
14, 40002, Note_on_c, 11, 66, 97
14, 40004, Note_on_c, 11, 58, 92
14, 40005, Note_on_c, 11, 63, 92
14, 40007, Note_on_c, 11, 57, 91
14, 40044, Note_off_c, 11, 66, 64
14, 40047, Note_off_c, 11, 58, 64
14, 40047, Note_off_c, 11, 63, 64
14, 40049, Note_off_c, 11, 57, 64
14, 40086, Note_on_c, 11, 58, 90
14, 40087, Note_on_c, 11, 66, 97
14, 40088, Note_on_c, 11, 63, 87
14, 40089, Note_on_c, 11, 57, 96
14, 40144, Note_off_c, 11, 58, 64
14, 40145, Note_off_c, 11, 66, 64
14, 40147, Note_off_c, 11, 63, 64
14, 40147, Note_off_c, 11, 57, 64
14, 40323, Note_on_c, 11, 67, 98
14, 40657, Note_off_c, 11, 67, 64
14, 40802, Note_on_c, 11, 67, 97
14, 40860, Note_off_c, 11, 67, 64
14, 41046, Note_on_c, 11, 67, 97
14, 41088, Note_off_c, 11, 67, 64
14, 41128, Note_on_c, 11, 67, 98
14, 41170, Note_off_c, 11, 67, 64
14, 41205, Note_on_c, 11, 67, 92
14, 41247, Note_off_c, 11, 67, 64
14, 41279, Note_on_c, 11, 79, 98
14, 41287, Note_on_c, 11, 67, 98
14, 41337, Note_off_c, 11, 79, 64
14, 41345, Note_off_c, 11, 67, 64
14, 41524, Note_on_c, 11, 67, 97
14, 41529, Note_on_c, 11, 79, 95
14, 41566, Note_off_c, 11, 67, 64
14, 41571, Note_off_c, 11, 79, 64
14, 41603, Note_on_c, 11, 79, 94
14, 41608, Note_on_c, 11, 67, 95
14, 41646, Note_off_c, 11, 79, 64
14, 41651, Note_off_c, 11, 67, 64
14, 41685, Note_on_c, 11, 67, 92
14, 41687, Note_on_c, 11, 79, 90
14, 41729, Note_off_c, 11, 67, 64
14, 41729, Note_off_c, 11, 79, 64
14, 41764, Note_on_c, 11, 78, 100
14, 41767, Note_on_c, 11, 66, 98
14, 41806, Note_off_c, 11, 78, 64
14, 41809, Note_off_c, 11, 66, 64
14, 41844, Note_on_c, 11, 66, 91
14, 41848, Note_on_c, 11, 78, 97
14, 41887, Note_off_c, 11, 66, 64
14, 41890, Note_off_c, 11, 78, 64
14, 41924, Note_on_c, 11, 66, 91
14, 41929, Note_on_c, 11, 78, 98
14, 41967, Note_off_c, 11, 66, 64
14, 41971, Note_off_c, 11, 78, 64
14, 42003, Note_on_c, 11, 66, 91
14, 42006, Note_on_c, 11, 78, 97
14, 42061, Note_off_c, 11, 66, 64
14, 42067, Note_off_c, 11, 78, 64
14, 42247, Note_on_c, 11, 70, 91
14, 42247, Note_on_c, 11, 62, 90
14, 42247, Note_on_c, 11, 74, 98
14, 42248, Note_on_c, 11, 86, 97
14, 42305, Note_off_c, 11, 74, 64
14, 42306, Note_off_c, 11, 86, 64
14, 42306, Note_off_c, 11, 70, 64
14, 42306, Note_off_c, 11, 62, 64
14, 42485, Note_on_c, 11, 62, 92
14, 42486, Note_on_c, 11, 70, 92
14, 42488, Note_on_c, 11, 86, 97
14, 42488, Note_on_c, 11, 74, 97
14, 42527, Note_off_c, 11, 62, 64
14, 42529, Note_off_c, 11, 70, 64
14, 42530, Note_off_c, 11, 74, 64
14, 42532, Note_off_c, 11, 86, 64
14, 42562, Note_on_c, 11, 74, 97
14, 42565, Note_on_c, 11, 62, 91
14, 42568, Note_on_c, 11, 86, 95
14, 42568, Note_on_c, 11, 70, 90
14, 42606, Note_off_c, 11, 74, 64
14, 42609, Note_off_c, 11, 62, 64
14, 42610, Note_off_c, 11, 70, 64
14, 42611, Note_off_c, 11, 86, 64
14, 42645, Note_on_c, 11, 70, 84
14, 42646, Note_on_c, 11, 62, 85
14, 42646, Note_on_c, 11, 74, 92
14, 42648, Note_on_c, 11, 86, 90
14, 42687, Note_off_c, 11, 70, 64
14, 42689, Note_off_c, 11, 62, 64
14, 42689, Note_off_c, 11, 74, 64
14, 42690, Note_off_c, 11, 86, 64
14, 42724, Note_on_c, 11, 87, 101
14, 42728, Note_on_c, 11, 71, 95
14, 42728, Note_on_c, 11, 63, 98
14, 42729, Note_on_c, 11, 75, 100
14, 42768, Note_off_c, 11, 87, 64
14, 42770, Note_off_c, 11, 71, 64
14, 42770, Note_off_c, 11, 63, 64
14, 42771, Note_off_c, 11, 75, 64
14, 42801, Note_on_c, 11, 63, 92
14, 42804, Note_on_c, 11, 71, 92
14, 42804, Note_on_c, 11, 87, 97
14, 42808, Note_on_c, 11, 75, 96
14, 42843, Note_off_c, 11, 63, 64
14, 42847, Note_off_c, 11, 71, 64
14, 42847, Note_off_c, 11, 87, 64
14, 42852, Note_off_c, 11, 75, 64
14, 42880, Note_on_c, 11, 63, 95
14, 42883, Note_on_c, 11, 87, 100
14, 42889, Note_on_c, 11, 75, 100
14, 42889, Note_on_c, 11, 71, 94
14, 42923, Note_off_c, 11, 63, 64
14, 42926, Note_off_c, 11, 87, 64
14, 42932, Note_off_c, 11, 71, 64
14, 42933, Note_off_c, 11, 75, 64
14, 42968, Note_on_c, 11, 65, 95
14, 42969, Note_on_c, 11, 89, 101
14, 42969, Note_on_c, 11, 77, 100
14, 42969, Note_on_c, 11, 73, 95
14, 43026, Note_off_c, 11, 65, 64
14, 43027, Note_off_c, 11, 89, 64
14, 43028, Note_off_c, 11, 77, 64
14, 43028, Note_off_c, 11, 73, 64
14, 43204, Note_on_c, 11, 75, 98
14, 43207, Note_on_c, 11, 67, 97
14, 43208, Note_on_c, 11, 91, 104
14, 43209, Note_on_c, 11, 79, 104
14, 43263, Note_off_c, 11, 75, 64
14, 43266, Note_off_c, 11, 67, 64
14, 43266, Note_off_c, 11, 91, 64
14, 43267, Note_off_c, 11, 79, 64
14, 43445, Note_on_c, 11, 67, 98
14, 43446, Note_on_c, 11, 91, 104
14, 43448, Note_on_c, 11, 75, 95
14, 43449, Note_on_c, 11, 79, 104
14, 43487, Note_off_c, 11, 67, 64
14, 43488, Note_off_c, 11, 91, 64
14, 43490, Note_off_c, 11, 75, 64
14, 43491, Note_off_c, 11, 79, 64
14, 43525, Note_on_c, 11, 91, 103
14, 43528, Note_on_c, 11, 75, 98
14, 43528, Note_on_c, 11, 67, 94
14, 43529, Note_on_c, 11, 79, 104
14, 43568, Note_off_c, 11, 91, 64
14, 43570, Note_off_c, 11, 75, 64
14, 43571, Note_off_c, 11, 67, 64
14, 43571, Note_off_c, 11, 79, 64
14, 43604, Note_on_c, 11, 91, 98
14, 43607, Note_on_c, 11, 67, 92
14, 43608, Note_on_c, 11, 75, 92
14, 43609, Note_on_c, 11, 79, 98
14, 43647, Note_off_c, 11, 91, 64
14, 43649, Note_off_c, 11, 67, 64
14, 43650, Note_off_c, 11, 75, 64
14, 43651, Note_off_c, 11, 79, 64
14, 43682, Note_on_c, 11, 92, 108
14, 43689, Note_on_c, 11, 80, 107
14, 43689, Note_on_c, 11, 68, 103
14, 43689, Note_on_c, 11, 76, 104
14, 43724, Note_off_c, 11, 92, 64
14, 43732, Note_off_c, 11, 76, 64
14, 43732, Note_off_c, 11, 80, 64
14, 43733, Note_off_c, 11, 68, 64
14, 43759, Note_on_c, 11, 68, 98
14, 43761, Note_on_c, 11, 80, 101
14, 43764, Note_on_c, 11, 92, 104
14, 43769, Note_on_c, 11, 76, 98
14, 43802, Note_off_c, 11, 68, 64
14, 43804, Note_off_c, 11, 80, 64
14, 43806, Note_off_c, 11, 92, 64
14, 43811, Note_off_c, 11, 76, 64
14, 43839, Note_on_c, 11, 80, 104
14, 43847, Note_on_c, 11, 76, 98
14, 43848, Note_on_c, 11, 68, 93
14, 43849, Note_on_c, 11, 92, 103
14, 43882, Note_off_c, 11, 80, 64
14, 43889, Note_off_c, 11, 76, 64
14, 43890, Note_off_c, 11, 68, 64
14, 43891, Note_off_c, 11, 92, 64
14, 43924, Note_on_c, 11, 94, 99
14, 43928, Note_on_c, 11, 82, 101
14, 43928, Note_on_c, 11, 70, 97
14, 43928, Note_on_c, 11, 78, 97
14, 43982, Note_off_c, 11, 94, 64
14, 43986, Note_off_c, 11, 70, 64
14, 43987, Note_off_c, 11, 78, 64
14, 43987, Note_off_c, 11, 82, 64
14, 51816, Control_c, 11, 11, 114
14, 52087, Note_on_c, 11, 62, 65
14, 52089, Note_on_c, 11, 58, 59
14, 52123, Note_off_c, 11, 62, 64
14, 52125, Note_off_c, 11, 58, 64
14, 52164, Note_on_c, 11, 58, 58
14, 52169, Note_on_c, 11, 62, 64
14, 52200, Note_off_c, 11, 58, 64
14, 52205, Note_off_c, 11, 62, 64
14, 52249, Note_on_c, 11, 58, 52
14, 52249, Note_on_c, 11, 62, 60
14, 52285, Note_off_c, 11, 58, 64
14, 52286, Note_off_c, 11, 62, 64
14, 52328, Note_on_c, 11, 60, 65
14, 52328, Note_on_c, 11, 63, 71
14, 52364, Note_off_c, 11, 60, 64
14, 52364, Note_off_c, 11, 63, 64
14, 52404, Note_on_c, 11, 60, 58
14, 52409, Note_on_c, 11, 63, 64
14, 52441, Note_off_c, 11, 60, 64
14, 52445, Note_off_c, 11, 63, 64
14, 52485, Note_on_c, 11, 63, 59
14, 52489, Note_on_c, 11, 60, 55
14, 52522, Note_off_c, 11, 63, 64
14, 52525, Note_off_c, 11, 60, 64
14, 52566, Note_on_c, 11, 57, 59
14, 52567, Note_on_c, 11, 60, 66
14, 52603, Note_off_c, 11, 60, 64
14, 52604, Note_off_c, 11, 57, 64
14, 52646, Note_on_c, 11, 60, 59
14, 52647, Note_on_c, 11, 57, 55
14, 52682, Note_off_c, 11, 60, 64
14, 52683, Note_off_c, 11, 57, 64
14, 52725, Note_on_c, 11, 57, 58
14, 52729, Note_on_c, 11, 60, 65
14, 52761, Note_off_c, 11, 57, 64
14, 52766, Note_off_c, 11, 60, 64
14, 53048, Note_on_c, 11, 62, 59
14, 53048, Note_on_c, 11, 70, 59
14, 53084, Note_off_c, 11, 62, 64
14, 53085, Note_off_c, 11, 70, 64
14, 53128, Note_on_c, 11, 62, 58
14, 53129, Note_on_c, 11, 70, 64
14, 53165, Note_off_c, 11, 70, 64
14, 53166, Note_off_c, 11, 62, 64
14, 53199, Note_on_c, 11, 62, 48
14, 53206, Note_on_c, 11, 70, 60
14, 53235, Note_off_c, 11, 62, 64
14, 53242, Note_off_c, 11, 70, 64
14, 53286, Note_on_c, 11, 69, 70
14, 53288, Note_on_c, 11, 58, 61
14, 53322, Note_off_c, 11, 69, 64
14, 53324, Note_off_c, 11, 58, 64
14, 53363, Note_on_c, 11, 58, 52
14, 53369, Note_on_c, 11, 69, 57
14, 53400, Note_off_c, 11, 58, 64
14, 53406, Note_off_c, 11, 69, 64
14, 53444, Note_on_c, 11, 58, 56
14, 53446, Note_on_c, 11, 69, 63
14, 53481, Note_off_c, 11, 58, 64
14, 53482, Note_off_c, 11, 69, 64
14, 53526, Note_on_c, 11, 61, 59
14, 53529, Note_on_c, 11, 66, 60
14, 53562, Note_off_c, 11, 61, 64
14, 53565, Note_off_c, 11, 66, 64
14, 53606, Note_on_c, 11, 61, 54
14, 53607, Note_on_c, 11, 66, 60
14, 53643, Note_off_c, 11, 66, 64
14, 53644, Note_off_c, 11, 61, 64
14, 53686, Note_on_c, 11, 61, 59
14, 53688, Note_on_c, 11, 66, 64
14, 53722, Note_off_c, 11, 61, 64
14, 53724, Note_off_c, 11, 66, 64
14, 54008, Note_on_c, 11, 66, 59
14, 54009, Note_on_c, 11, 74, 65
14, 54044, Note_off_c, 11, 66, 64
14, 54047, Note_off_c, 11, 74, 64
14, 54087, Note_on_c, 11, 74, 64
14, 54088, Note_on_c, 11, 66, 57
14, 54123, Note_off_c, 11, 74, 64
14, 54125, Note_off_c, 11, 66, 64
14, 54165, Note_on_c, 11, 66, 52
14, 54166, Note_on_c, 11, 74, 57
14, 54201, Note_off_c, 11, 66, 64
14, 54203, Note_off_c, 11, 74, 64
14, 54246, Note_on_c, 11, 67, 65
14, 54249, Note_on_c, 11, 73, 72
14, 54283, Note_off_c, 11, 67, 64
14, 54285, Note_off_c, 11, 73, 64
14, 54325, Note_on_c, 11, 67, 49
14, 54329, Note_on_c, 11, 73, 56
14, 54363, Note_off_c, 11, 67, 64
14, 54365, Note_off_c, 11, 73, 64
14, 54409, Note_on_c, 11, 73, 65
14, 54409, Note_on_c, 11, 67, 57
14, 54445, Note_off_c, 11, 67, 64
14, 54446, Note_off_c, 11, 73, 64
14, 54489, Note_on_c, 11, 69, 64
14, 54489, Note_on_c, 11, 61, 59
14, 54525, Note_off_c, 11, 69, 64
14, 54527, Note_off_c, 11, 61, 64
14, 54568, Note_on_c, 11, 69, 60
14, 54569, Note_on_c, 11, 61, 53
14, 54604, Note_off_c, 11, 69, 64
14, 54606, Note_off_c, 11, 61, 64
14, 54647, Note_on_c, 11, 69, 65
14, 54649, Note_on_c, 11, 61, 55
14, 54685, Note_off_c, 11, 69, 64
14, 54685, Note_off_c, 11, 61, 64
14, 54717, Note_on_c, 11, 72, 72
14, 54725, Note_on_c, 11, 63, 64
14, 54753, Note_off_c, 11, 72, 64
14, 54761, Note_off_c, 11, 63, 64
14, 54807, Note_on_c, 11, 72, 57
14, 54808, Note_on_c, 11, 63, 53
14, 54845, Note_off_c, 11, 72, 64
14, 54846, Note_off_c, 11, 63, 64
14, 54887, Note_on_c, 11, 72, 66
14, 54889, Note_on_c, 11, 63, 58
14, 54924, Note_off_c, 11, 72, 64
14, 54927, Note_off_c, 11, 63, 64
14, 54966, Note_on_c, 11, 62, 60
14, 54969, Note_on_c, 11, 70, 64
14, 55002, Note_off_c, 11, 62, 64
14, 55006, Note_off_c, 11, 70, 64
14, 55044, Note_on_c, 11, 62, 55
14, 55049, Note_on_c, 11, 70, 58
14, 55080, Note_off_c, 11, 62, 64
14, 55087, Note_off_c, 11, 70, 64
14, 55127, Note_on_c, 11, 70, 65
14, 55129, Note_on_c, 11, 62, 58
14, 55164, Note_off_c, 11, 70, 64
14, 55165, Note_off_c, 11, 62, 64
14, 55207, Note_on_c, 11, 66, 71
14, 55208, Note_on_c, 11, 58, 66
14, 55243, Note_off_c, 11, 66, 64
14, 55244, Note_off_c, 11, 58, 64
14, 55285, Note_on_c, 11, 58, 54
14, 55288, Note_on_c, 11, 66, 60
14, 55321, Note_off_c, 11, 58, 64
14, 55324, Note_off_c, 11, 66, 64
14, 55366, Note_on_c, 11, 66, 66
14, 55367, Note_on_c, 11, 58, 58
14, 55403, Note_off_c, 11, 66, 64
14, 55403, Note_off_c, 11, 58, 64
14, 55444, Note_on_c, 11, 55, 58
14, 55445, Note_on_c, 11, 63, 65
14, 55482, Note_off_c, 11, 55, 64
14, 55482, Note_off_c, 11, 63, 64
14, 55525, Note_on_c, 11, 63, 60
14, 55527, Note_on_c, 11, 55, 52
14, 55561, Note_off_c, 11, 63, 64
14, 55563, Note_off_c, 11, 55, 64
14, 55605, Note_on_c, 11, 63, 63
14, 55608, Note_on_c, 11, 55, 60
14, 55641, Note_off_c, 11, 63, 64
14, 55644, Note_off_c, 11, 55, 64
14, 55928, Note_on_c, 11, 71, 66
14, 55929, Note_on_c, 11, 56, 60
14, 55964, Note_off_c, 11, 71, 64
14, 55965, Note_off_c, 11, 56, 64
14, 56006, Note_on_c, 11, 56, 59
14, 56008, Note_on_c, 11, 71, 66
14, 56042, Note_off_c, 11, 56, 64
14, 56046, Note_off_c, 11, 71, 64
14, 56081, Note_on_c, 11, 56, 54
14, 56089, Note_on_c, 11, 71, 57
14, 56117, Note_off_c, 11, 56, 64
14, 56126, Note_off_c, 11, 71, 64
14, 56167, Note_on_c, 11, 59, 65
14, 56168, Note_on_c, 11, 70, 73
14, 56203, Note_off_c, 11, 59, 64
14, 56204, Note_off_c, 11, 70, 64
14, 56241, Note_on_c, 11, 59, 54
14, 56249, Note_on_c, 11, 70, 60
14, 56278, Note_off_c, 11, 59, 64
14, 56286, Note_off_c, 11, 70, 64
14, 56328, Note_on_c, 11, 59, 59
14, 56329, Note_on_c, 11, 70, 66
14, 56364, Note_off_c, 11, 59, 64
14, 56366, Note_off_c, 11, 70, 64
14, 56406, Note_on_c, 11, 62, 58
14, 56409, Note_on_c, 11, 67, 63
14, 56443, Note_off_c, 11, 62, 64
14, 56446, Note_off_c, 11, 67, 64
14, 56484, Note_on_c, 11, 62, 54
14, 56489, Note_on_c, 11, 67, 57
14, 56522, Note_off_c, 11, 62, 64
14, 56525, Note_off_c, 11, 67, 64
14, 56560, Note_on_c, 11, 67, 63
14, 56564, Note_on_c, 11, 62, 59
14, 56596, Note_off_c, 11, 67, 64
14, 56600, Note_off_c, 11, 62, 64
14, 56886, Note_on_c, 11, 59, 58
14, 56888, Note_on_c, 11, 75, 65
14, 56924, Note_off_c, 11, 59, 64
14, 56927, Note_off_c, 11, 75, 64
14, 56967, Note_on_c, 11, 75, 63
14, 56969, Note_on_c, 11, 59, 60
14, 57003, Note_off_c, 11, 75, 64
14, 57005, Note_off_c, 11, 59, 64
14, 57043, Note_on_c, 11, 59, 54
14, 57047, Note_on_c, 11, 75, 59
14, 57081, Note_off_c, 11, 59, 64
14, 57084, Note_off_c, 11, 75, 64
14, 57126, Note_on_c, 11, 74, 71
14, 57129, Note_on_c, 11, 63, 63
14, 57162, Note_off_c, 11, 74, 64
14, 57166, Note_off_c, 11, 63, 64
14, 57207, Note_on_c, 11, 63, 48
14, 57209, Note_on_c, 11, 74, 60
14, 57243, Note_off_c, 11, 63, 64
14, 57245, Note_off_c, 11, 74, 64
14, 57283, Note_on_c, 11, 63, 57
14, 57288, Note_on_c, 11, 74, 63
14, 57319, Note_off_c, 11, 63, 64
14, 57324, Note_off_c, 11, 74, 64
14, 57367, Note_on_c, 11, 71, 66
14, 57369, Note_on_c, 11, 67, 55
14, 57404, Note_off_c, 11, 71, 64
14, 57405, Note_off_c, 11, 67, 64
14, 57440, Note_on_c, 11, 71, 59
14, 57447, Note_on_c, 11, 67, 55
14, 57477, Note_off_c, 11, 71, 64
14, 57484, Note_off_c, 11, 67, 64
14, 57527, Note_on_c, 11, 67, 58
14, 57527, Note_on_c, 11, 71, 63
14, 57563, Note_off_c, 11, 71, 64
14, 57564, Note_off_c, 11, 67, 64
14, 57847, Note_on_c, 11, 83, 65
14, 57848, Note_on_c, 11, 63, 60
14, 57883, Note_off_c, 11, 83, 64
14, 57884, Note_off_c, 11, 63, 64
14, 57925, Note_on_c, 11, 63, 60
14, 57929, Note_on_c, 11, 83, 62
14, 57963, Note_off_c, 11, 63, 64
14, 57965, Note_off_c, 11, 83, 64
14, 58006, Note_on_c, 11, 83, 60
14, 58007, Note_on_c, 11, 63, 50
14, 58043, Note_off_c, 11, 83, 64
14, 58043, Note_off_c, 11, 63, 64
14, 58088, Note_on_c, 11, 67, 64
14, 58089, Note_on_c, 11, 82, 72
14, 58124, Note_off_c, 11, 67, 64
14, 58125, Note_off_c, 11, 82, 64
14, 58159, Note_on_c, 11, 67, 48
14, 58168, Note_on_c, 11, 82, 57
14, 58196, Note_off_c, 11, 67, 64
14, 58204, Note_off_c, 11, 82, 64
14, 58249, Note_on_c, 11, 67, 56
14, 58249, Note_on_c, 11, 82, 61
14, 58285, Note_off_c, 11, 67, 64
14, 58285, Note_off_c, 11, 82, 64
14, 58326, Note_on_c, 11, 74, 65
14, 58329, Note_on_c, 11, 71, 59
14, 58365, Note_off_c, 11, 74, 64
14, 58367, Note_off_c, 11, 71, 64
14, 58407, Note_on_c, 11, 71, 52
14, 58409, Note_on_c, 11, 74, 60
14, 58444, Note_off_c, 11, 71, 64
14, 58446, Note_off_c, 11, 74, 64
14, 58478, Note_on_c, 11, 74, 64
14, 58488, Note_on_c, 11, 71, 60
14, 58514, Note_off_c, 11, 74, 64
14, 58524, Note_off_c, 11, 71, 64
14, 58536, Control_c, 11, 11, 114
14, 58566, Note_on_c, 11, 80, 71
14, 58569, Note_on_c, 11, 60, 65
14, 58603, Note_off_c, 11, 80, 64
14, 58605, Note_off_c, 11, 60, 64
14, 58647, Note_on_c, 11, 80, 53
14, 58649, Note_on_c, 11, 60, 53
14, 58656, Control_c, 11, 11, 113
14, 58684, Note_off_c, 11, 80, 64
14, 58685, Note_off_c, 11, 60, 64
14, 58727, Note_on_c, 11, 80, 62
14, 58727, Note_on_c, 11, 60, 59
14, 58763, Note_off_c, 11, 80, 64
14, 58763, Note_off_c, 11, 60, 64
14, 58776, Control_c, 11, 11, 111
14, 58805, Note_on_c, 11, 79, 66
14, 58805, Note_on_c, 11, 68, 60
14, 58841, Note_off_c, 11, 79, 64
14, 58842, Note_off_c, 11, 68, 64
14, 58880, Note_on_c, 11, 79, 59
14, 58888, Note_on_c, 11, 68, 51
14, 58896, Control_c, 11, 11, 110
14, 58917, Note_off_c, 11, 79, 64
14, 58924, Note_off_c, 11, 68, 64
14, 58963, Note_on_c, 11, 79, 65
14, 58968, Note_on_c, 11, 68, 59
14, 58999, Note_off_c, 11, 79, 64
14, 59005, Note_off_c, 11, 68, 64
14, 59016, Control_c, 11, 11, 109
14, 59039, Note_on_c, 11, 56, 66
14, 59043, Note_on_c, 11, 76, 73
14, 59075, Note_off_c, 11, 56, 64
14, 59080, Note_off_c, 11, 76, 64
14, 59124, Note_on_c, 11, 76, 60
14, 59127, Note_on_c, 11, 56, 50
14, 59136, Control_c, 11, 11, 108
14, 59162, Note_off_c, 11, 76, 64
14, 59163, Note_off_c, 11, 56, 64
14, 59206, Note_on_c, 11, 76, 66
14, 59206, Note_on_c, 11, 56, 60
14, 59242, Note_off_c, 11, 76, 64
14, 59244, Note_off_c, 11, 56, 64
14, 59256, Control_c, 11, 11, 106
14, 59286, Note_on_c, 11, 68, 64
14, 59289, Note_on_c, 11, 65, 59
14, 59323, Note_off_c, 11, 68, 64
14, 59327, Note_off_c, 11, 65, 64
14, 59369, Note_on_c, 11, 65, 55
14, 59369, Note_on_c, 11, 68, 59
14, 59376, Control_c, 11, 11, 105
14, 59405, Note_off_c, 11, 68, 64
14, 59407, Note_off_c, 11, 65, 64
14, 59448, Note_on_c, 11, 68, 66
14, 59449, Note_on_c, 11, 65, 60
14, 59484, Note_off_c, 11, 68, 64
14, 59487, Note_off_c, 11, 65, 64
14, 59496, Control_c, 11, 11, 104
14, 59520, Control_c, 11, 11, 104
14, 59761, Note_on_c, 11, 60, 59
14, 59768, Note_on_c, 11, 64, 66
14, 59797, Note_off_c, 11, 60, 64
14, 59805, Note_off_c, 11, 64, 64
14, 59849, Note_on_c, 11, 64, 65
14, 59849, Note_on_c, 11, 60, 58
14, 59885, Note_off_c, 11, 64, 64
14, 59886, Note_off_c, 11, 60, 64
14, 59929, Note_on_c, 11, 64, 58
14, 59929, Note_on_c, 11, 60, 53
14, 59966, Note_off_c, 11, 64, 64
14, 59966, Note_off_c, 11, 60, 64
14, 60006, Note_on_c, 11, 56, 64
14, 60009, Note_on_c, 11, 65, 73
14, 60042, Note_off_c, 11, 56, 64
14, 60046, Note_off_c, 11, 65, 64
14, 60088, Note_on_c, 11, 65, 59
14, 60089, Note_on_c, 11, 56, 54
14, 60124, Note_off_c, 11, 65, 64
14, 60125, Note_off_c, 11, 56, 64
14, 60162, Note_on_c, 11, 65, 60
14, 60169, Note_on_c, 11, 56, 60
14, 60199, Note_off_c, 11, 65, 64
14, 60207, Note_off_c, 11, 56, 64
14, 60245, Note_on_c, 11, 59, 59
14, 60246, Note_on_c, 11, 62, 66
14, 60282, Note_off_c, 11, 59, 64
14, 60283, Note_off_c, 11, 62, 64
14, 60326, Note_on_c, 11, 62, 57
14, 60329, Note_on_c, 11, 59, 53
14, 60362, Note_off_c, 11, 62, 64
14, 60367, Note_off_c, 11, 59, 64
14, 60402, Note_on_c, 11, 62, 66
14, 60408, Note_on_c, 11, 59, 58
14, 60438, Note_off_c, 11, 62, 64
14, 60444, Note_off_c, 11, 59, 64
14, 60722, Note_on_c, 11, 72, 63
14, 60724, Note_on_c, 11, 64, 58
14, 60758, Note_off_c, 11, 72, 64
14, 60761, Note_off_c, 11, 64, 64
14, 60808, Note_on_c, 11, 64, 60
14, 60809, Note_on_c, 11, 72, 66
14, 60845, Note_off_c, 11, 64, 64
14, 60847, Note_off_c, 11, 72, 64
14, 60883, Note_on_c, 11, 72, 60
14, 60886, Note_on_c, 11, 64, 51
14, 60919, Note_off_c, 11, 72, 64
14, 60924, Note_off_c, 11, 64, 64
14, 60969, Note_on_c, 11, 71, 73
14, 60969, Note_on_c, 11, 60, 65
14, 61005, Note_off_c, 11, 60, 64
14, 61006, Note_off_c, 11, 71, 64
14, 61046, Note_on_c, 11, 60, 52
14, 61049, Note_on_c, 11, 71, 58
14, 61082, Note_off_c, 11, 60, 64
14, 61086, Note_off_c, 11, 71, 64
14, 61128, Note_on_c, 11, 71, 66
14, 61129, Note_on_c, 11, 60, 58
14, 61164, Note_off_c, 11, 71, 64
14, 61165, Note_off_c, 11, 60, 64
14, 61207, Note_on_c, 11, 63, 59
14, 61208, Note_on_c, 11, 68, 63
14, 61243, Note_off_c, 11, 63, 64
14, 61244, Note_off_c, 11, 68, 64
14, 61282, Note_on_c, 11, 63, 53
14, 61286, Note_on_c, 11, 68, 59
14, 61319, Note_off_c, 11, 63, 64
14, 61323, Note_off_c, 11, 68, 64
14, 61365, Note_on_c, 11, 63, 60
14, 61369, Note_on_c, 11, 68, 61
14, 61402, Note_off_c, 11, 63, 64
14, 61406, Note_off_c, 11, 68, 64
14, 61689, Note_on_c, 11, 68, 60
14, 61689, Note_on_c, 11, 76, 65
14, 61725, Note_off_c, 11, 76, 64
14, 61726, Note_off_c, 11, 68, 64
14, 61767, Note_on_c, 11, 76, 64
14, 61768, Note_on_c, 11, 68, 57
14, 61803, Note_off_c, 11, 76, 64
14, 61806, Note_off_c, 11, 68, 64
14, 61843, Note_on_c, 11, 68, 48
14, 61847, Note_on_c, 11, 76, 59
14, 61879, Note_off_c, 11, 68, 64
14, 61885, Note_off_c, 11, 76, 64
14, 61917, Note_on_c, 11, 75, 67
14, 61929, Note_on_c, 11, 69, 65
14, 61953, Note_off_c, 11, 75, 64
14, 61965, Note_off_c, 11, 69, 64
14, 62001, Note_on_c, 11, 69, 54
14, 62006, Note_on_c, 11, 75, 60
14, 62037, Note_off_c, 11, 69, 64
14, 62042, Note_off_c, 11, 75, 64
14, 62086, Note_on_c, 11, 69, 56
14, 62089, Note_on_c, 11, 75, 65
14, 62124, Note_off_c, 11, 69, 64
14, 62125, Note_off_c, 11, 75, 64
14, 62164, Note_on_c, 11, 72, 66
14, 62169, Note_on_c, 11, 63, 60
14, 62202, Note_off_c, 11, 72, 64
14, 62205, Note_off_c, 11, 63, 64
14, 62241, Note_on_c, 11, 63, 54
14, 62247, Note_on_c, 11, 72, 60
14, 62277, Note_off_c, 11, 63, 64
14, 62283, Note_off_c, 11, 72, 64
14, 62324, Note_on_c, 11, 63, 60
14, 62327, Note_on_c, 11, 72, 66
14, 62360, Note_off_c, 11, 63, 64
14, 62363, Note_off_c, 11, 72, 64
14, 62640, Control_c, 11, 11, 104
14, 62645, Note_on_c, 11, 64, 65
14, 62646, Note_on_c, 11, 60, 59
14, 62681, Note_off_c, 11, 64, 64
14, 62683, Note_off_c, 11, 60, 64
14, 62727, Note_on_c, 11, 64, 65
14, 62728, Note_on_c, 11, 60, 57
14, 62760, Control_c, 11, 11, 105
14, 62764, Note_off_c, 11, 64, 64
14, 62764, Note_off_c, 11, 60, 64
14, 62809, Note_on_c, 11, 60, 54
14, 62809, Note_on_c, 11, 64, 60
14, 62845, Note_off_c, 11, 60, 64
14, 62846, Note_off_c, 11, 64, 64
14, 62880, Control_c, 11, 11, 106
14, 62885, Note_on_c, 11, 65, 71
14, 62888, Note_on_c, 11, 62, 65
14, 62921, Note_off_c, 11, 65, 64
14, 62926, Note_off_c, 11, 62, 64
14, 62965, Note_on_c, 11, 62, 51
14, 62967, Note_on_c, 11, 65, 60
14, 63000, Control_c, 11, 11, 109
14, 63001, Note_off_c, 11, 62, 64
14, 63003, Note_off_c, 11, 65, 64
14, 63048, Note_on_c, 11, 62, 59
14, 63049, Note_on_c, 11, 65, 66
14, 63084, Note_off_c, 11, 62, 64
14, 63086, Note_off_c, 11, 65, 64
14, 63120, Control_c, 11, 11, 110
14, 63125, Note_on_c, 11, 59, 59
14, 63127, Note_on_c, 11, 62, 61
14, 63161, Note_off_c, 11, 59, 64
14, 63163, Note_off_c, 11, 62, 64
14, 63200, Note_on_c, 11, 59, 51
14, 63205, Note_on_c, 11, 62, 58
14, 63239, Note_off_c, 11, 59, 64
14, 63240, Control_c, 11, 11, 111
14, 63243, Note_off_c, 11, 62, 64
14, 63287, Note_on_c, 11, 62, 61
14, 63289, Note_on_c, 11, 59, 58
14, 63324, Note_off_c, 11, 62, 64
14, 63325, Note_off_c, 11, 59, 64
14, 63360, Control_c, 11, 11, 114
14, 63604, Note_on_c, 11, 65, 60
14, 63605, Note_on_c, 11, 69, 63
14, 63641, Note_off_c, 11, 69, 64
14, 63642, Note_off_c, 11, 65, 64
14, 63686, Note_on_c, 11, 65, 60
14, 63689, Note_on_c, 11, 69, 66
14, 63722, Note_off_c, 11, 65, 64
14, 63725, Note_off_c, 11, 69, 64
14, 63766, Note_on_c, 11, 69, 57
14, 63767, Note_on_c, 11, 65, 50
14, 63802, Note_off_c, 11, 69, 64
14, 63803, Note_off_c, 11, 65, 64
14, 63846, Note_on_c, 11, 62, 66
14, 63849, Note_on_c, 11, 71, 73
14, 63884, Note_off_c, 11, 62, 64
14, 63885, Note_off_c, 11, 71, 64
14, 63922, Note_on_c, 11, 71, 60
14, 63923, Note_on_c, 11, 62, 54
14, 63959, Note_off_c, 11, 71, 64
14, 63960, Note_off_c, 11, 62, 64
14, 64009, Note_on_c, 11, 71, 66
14, 64009, Note_on_c, 11, 62, 60
14, 64045, Note_off_c, 11, 71, 64
14, 64045, Note_off_c, 11, 62, 64
14, 64081, Note_on_c, 11, 68, 66
14, 64088, Note_on_c, 11, 59, 58
14, 64117, Note_off_c, 11, 68, 64
14, 64124, Note_off_c, 11, 59, 64
14, 64169, Note_on_c, 11, 68, 59
14, 64169, Note_on_c, 11, 59, 55
14, 64205, Note_off_c, 11, 59, 64
14, 64206, Note_off_c, 11, 68, 64
14, 64245, Note_on_c, 11, 59, 60
14, 64246, Note_on_c, 11, 68, 61
14, 64281, Note_off_c, 11, 59, 64
14, 64283, Note_off_c, 11, 68, 64
14, 64569, Note_on_c, 11, 81, 66
14, 64569, Note_on_c, 11, 72, 60
14, 64606, Note_off_c, 11, 81, 64
14, 64606, Note_off_c, 11, 72, 64
14, 64637, Note_on_c, 11, 72, 57
14, 64647, Note_on_c, 11, 81, 66
14, 64673, Note_off_c, 11, 72, 64
14, 64683, Note_off_c, 11, 81, 64
14, 64716, Note_on_c, 11, 81, 55
14, 64726, Note_on_c, 11, 72, 52
14, 64753, Note_off_c, 11, 81, 64
14, 64762, Note_off_c, 11, 72, 64
14, 64807, Note_on_c, 11, 80, 72
14, 64809, Note_on_c, 11, 71, 64
14, 64843, Note_off_c, 11, 80, 64
14, 64847, Note_off_c, 11, 71, 64
14, 64888, Note_on_c, 11, 71, 53
14, 64889, Note_on_c, 11, 80, 60
14, 64924, Note_off_c, 11, 71, 64
14, 64925, Note_off_c, 11, 80, 64
14, 64967, Note_on_c, 11, 80, 64
14, 64969, Note_on_c, 11, 71, 60
14, 65003, Note_off_c, 11, 80, 64
14, 65005, Note_off_c, 11, 71, 64
14, 65044, Note_on_c, 11, 77, 64
14, 65048, Note_on_c, 11, 69, 59
14, 65080, Note_off_c, 11, 77, 64
14, 65084, Note_off_c, 11, 69, 64
14, 65129, Note_on_c, 11, 77, 56
14, 65129, Note_on_c, 11, 69, 52
14, 65165, Note_off_c, 11, 77, 64
14, 65166, Note_off_c, 11, 69, 64
14, 65203, Note_on_c, 11, 77, 64
14, 65209, Note_on_c, 11, 69, 60
14, 65240, Note_off_c, 11, 77, 64
14, 65245, Note_off_c, 11, 69, 64
14, 65286, Note_on_c, 11, 65, 64
14, 65289, Note_on_c, 11, 74, 73
14, 65323, Note_off_c, 11, 65, 64
14, 65325, Note_off_c, 11, 74, 64
14, 65366, Note_on_c, 11, 74, 59
14, 65369, Note_on_c, 11, 65, 53
14, 65402, Note_off_c, 11, 74, 64
14, 65405, Note_off_c, 11, 65, 64
14, 65448, Note_on_c, 11, 65, 59
14, 65448, Note_on_c, 11, 74, 65
14, 65484, Note_off_c, 11, 65, 64
14, 65485, Note_off_c, 11, 74, 64
14, 65520, Control_c, 11, 11, 114
14, 65524, Note_on_c, 11, 62, 59
14, 65528, Note_on_c, 11, 71, 66
14, 65562, Note_off_c, 11, 62, 64
14, 65564, Note_off_c, 11, 71, 64
14, 65608, Note_on_c, 11, 71, 58
14, 65609, Note_on_c, 11, 62, 52
14, 65640, Control_c, 11, 11, 113
14, 65644, Note_off_c, 11, 71, 64
14, 65646, Note_off_c, 11, 62, 64
14, 65687, Note_on_c, 11, 62, 59
14, 65688, Note_on_c, 11, 71, 65
14, 65724, Note_off_c, 11, 62, 64
14, 65724, Note_off_c, 11, 71, 64
14, 65760, Control_c, 11, 11, 111
14, 65768, Note_on_c, 11, 60, 66
14, 65768, Note_on_c, 11, 68, 72
14, 65804, Note_off_c, 11, 68, 64
14, 65805, Note_off_c, 11, 60, 64
14, 65840, Note_on_c, 11, 68, 56
14, 65843, Note_on_c, 11, 60, 53
14, 65876, Note_off_c, 11, 68, 64
14, 65879, Note_off_c, 11, 60, 64
14, 65880, Control_c, 11, 11, 109
14, 65928, Note_on_c, 11, 68, 66
14, 65929, Note_on_c, 11, 60, 55
14, 65964, Note_off_c, 11, 68, 64
14, 65965, Note_off_c, 11, 60, 64
14, 66000, Control_c, 11, 11, 108
14, 66005, Note_on_c, 11, 65, 66
14, 66009, Note_on_c, 11, 56, 56
14, 66042, Note_off_c, 11, 65, 64
14, 66047, Note_off_c, 11, 56, 64
14, 66089, Note_on_c, 11, 56, 52
14, 66089, Note_on_c, 11, 65, 59
14, 66120, Control_c, 11, 11, 106
14, 66125, Note_off_c, 11, 56, 64
14, 66125, Note_off_c, 11, 65, 64
14, 66159, Note_on_c, 11, 56, 60
14, 66165, Note_on_c, 11, 65, 65
14, 66197, Note_off_c, 11, 56, 64
14, 66201, Note_off_c, 11, 65, 64
14, 66240, Control_c, 11, 11, 104
14, 66486, Note_on_c, 11, 69, 58
14, 66487, Note_on_c, 11, 72, 64
14, 66523, Note_off_c, 11, 69, 64
14, 66524, Note_off_c, 11, 72, 64
14, 66566, Note_on_c, 11, 72, 66
14, 66569, Note_on_c, 11, 69, 59
14, 66604, Note_off_c, 11, 72, 64
14, 66606, Note_off_c, 11, 69, 64
14, 66643, Note_on_c, 11, 72, 60
14, 66649, Note_on_c, 11, 69, 49
14, 66679, Note_off_c, 11, 72, 64
14, 66685, Note_off_c, 11, 69, 64
14, 66726, Note_on_c, 11, 64, 62
14, 66727, Note_on_c, 11, 74, 72
14, 66763, Note_off_c, 11, 64, 64
14, 66764, Note_off_c, 11, 74, 64
14, 66807, Note_on_c, 11, 64, 53
14, 66809, Note_on_c, 11, 74, 58
14, 66844, Note_off_c, 11, 64, 64
14, 66845, Note_off_c, 11, 74, 64
14, 66886, Note_on_c, 11, 74, 64
14, 66889, Note_on_c, 11, 64, 59
14, 66923, Note_off_c, 11, 74, 64
14, 66925, Note_off_c, 11, 64, 64
14, 66968, Note_on_c, 11, 68, 60
14, 66969, Note_on_c, 11, 71, 64
14, 67004, Note_off_c, 11, 68, 64
14, 67005, Note_off_c, 11, 71, 64
14, 67043, Note_on_c, 11, 68, 55
14, 67047, Note_on_c, 11, 71, 60
14, 67079, Note_off_c, 11, 68, 64
14, 67083, Note_off_c, 11, 71, 64
14, 67123, Note_on_c, 11, 68, 59
14, 67129, Note_on_c, 11, 71, 66
14, 67159, Note_off_c, 11, 68, 64
14, 67165, Note_off_c, 11, 71, 64
14, 67447, Note_on_c, 11, 60, 59
14, 67449, Note_on_c, 11, 64, 61
14, 67483, Note_off_c, 11, 60, 64
14, 67485, Note_off_c, 11, 64, 64
14, 67525, Note_on_c, 11, 64, 66
14, 67528, Note_on_c, 11, 60, 55
14, 67563, Note_off_c, 11, 64, 64
14, 67564, Note_off_c, 11, 60, 64
14, 67607, Note_on_c, 11, 64, 60
14, 67609, Note_on_c, 11, 60, 47
14, 67644, Note_off_c, 11, 64, 64
14, 67645, Note_off_c, 11, 60, 64
14, 67684, Note_on_c, 11, 68, 65
14, 67689, Note_on_c, 11, 72, 73
14, 67721, Note_off_c, 11, 68, 64
14, 67725, Note_off_c, 11, 72, 64
14, 67760, Note_on_c, 11, 68, 50
14, 67762, Note_on_c, 11, 72, 59
14, 67797, Note_off_c, 11, 68, 64
14, 67799, Note_off_c, 11, 72, 64
14, 67847, Note_on_c, 11, 68, 59
14, 67849, Note_on_c, 11, 72, 62
14, 67883, Note_off_c, 11, 68, 64
14, 67885, Note_off_c, 11, 72, 64
14, 67922, Note_on_c, 11, 60, 57
14, 67925, Note_on_c, 11, 65, 64
14, 67958, Note_off_c, 11, 60, 64
14, 67964, Note_off_c, 11, 65, 64
14, 68008, Note_on_c, 11, 60, 53
14, 68008, Note_on_c, 11, 65, 60
14, 68044, Note_off_c, 11, 60, 64
14, 68044, Note_off_c, 11, 65, 64
14, 68086, Note_on_c, 11, 65, 66
14, 68087, Note_on_c, 11, 60, 58
14, 68122, Note_off_c, 11, 65, 64
14, 68124, Note_off_c, 11, 60, 64
14, 68408, Note_on_c, 11, 68, 60
14, 68409, Note_on_c, 11, 76, 64
14, 68445, Note_off_c, 11, 68, 64
14, 68447, Note_off_c, 11, 76, 64
14, 68487, Note_on_c, 11, 68, 60
14, 68487, Note_on_c, 11, 76, 62
14, 68523, Note_off_c, 11, 76, 64
14, 68525, Note_off_c, 11, 68, 64
14, 68567, Note_on_c, 11, 68, 51
14, 68569, Note_on_c, 11, 76, 57
14, 68603, Note_off_c, 11, 68, 64
14, 68605, Note_off_c, 11, 76, 64
14, 68645, Note_on_c, 11, 67, 61
14, 68647, Note_on_c, 11, 77, 73
14, 68681, Note_off_c, 11, 67, 64
14, 68684, Note_off_c, 11, 77, 64
14, 68720, Note_on_c, 11, 67, 50
14, 68720, Note_on_c, 11, 77, 59
14, 68756, Note_off_c, 11, 77, 64
14, 68757, Note_off_c, 11, 67, 64
14, 68806, Note_on_c, 11, 67, 60
14, 68809, Note_on_c, 11, 77, 66
14, 68842, Note_off_c, 11, 67, 64
14, 68846, Note_off_c, 11, 77, 64
14, 68888, Note_on_c, 11, 68, 59
14, 68889, Note_on_c, 11, 72, 64
14, 68925, Note_off_c, 11, 68, 64
14, 68925, Note_off_c, 11, 72, 64
14, 68967, Note_on_c, 11, 72, 58
14, 68969, Note_on_c, 11, 68, 54
14, 69005, Note_off_c, 11, 72, 64
14, 69007, Note_off_c, 11, 68, 64
14, 69047, Note_on_c, 11, 72, 66
14, 69048, Note_on_c, 11, 68, 60
14, 69083, Note_off_c, 11, 72, 64
14, 69085, Note_off_c, 11, 68, 64
14, 69360, Control_c, 11, 11, 104
14, 69367, Note_on_c, 11, 76, 65
14, 69369, Note_on_c, 11, 72, 56
14, 69405, Note_off_c, 11, 76, 64
14, 69405, Note_off_c, 11, 72, 64
14, 69444, Note_on_c, 11, 72, 55
14, 69448, Note_on_c, 11, 76, 66
14, 69480, Note_off_c, 11, 72, 64
14, 69480, Control_c, 11, 11, 105
14, 69484, Note_off_c, 11, 76, 64
14, 69527, Note_on_c, 11, 72, 54
14, 69528, Note_on_c, 11, 76, 54
14, 69563, Note_off_c, 11, 72, 64
14, 69564, Note_off_c, 11, 76, 64
14, 69600, Control_c, 11, 11, 106
14, 69605, Note_on_c, 11, 68, 66
14, 69608, Note_on_c, 11, 77, 72
14, 69641, Note_off_c, 11, 68, 64
14, 69646, Note_off_c, 11, 77, 64
14, 69688, Note_on_c, 11, 77, 59
14, 69688, Note_on_c, 11, 68, 54
14, 69720, Control_c, 11, 11, 109
14, 69724, Note_off_c, 11, 77, 64
14, 69724, Note_off_c, 11, 68, 64
14, 69765, Note_on_c, 11, 68, 56
14, 69769, Note_on_c, 11, 77, 64
14, 69801, Note_off_c, 11, 68, 64
14, 69805, Note_off_c, 11, 77, 64
14, 69840, Control_c, 11, 11, 110
14, 69846, Note_on_c, 11, 71, 56
14, 69847, Note_on_c, 11, 74, 66
14, 69882, Note_off_c, 11, 71, 64
14, 69886, Note_off_c, 11, 74, 64
14, 69927, Note_on_c, 11, 74, 60
14, 69927, Note_on_c, 11, 71, 54
14, 69960, Control_c, 11, 11, 111
14, 69963, Note_off_c, 11, 74, 64
14, 69964, Note_off_c, 11, 71, 64
14, 70007, Note_on_c, 11, 71, 59
14, 70009, Note_on_c, 11, 74, 65
14, 70043, Note_off_c, 11, 71, 64
14, 70047, Note_off_c, 11, 74, 64
14, 70080, Control_c, 11, 11, 114
14, 70327, Note_on_c, 11, 64, 59
14, 70328, Note_on_c, 11, 72, 65
14, 70364, Note_off_c, 11, 64, 64
14, 70364, Note_off_c, 11, 72, 64
14, 70405, Note_on_c, 11, 72, 66
14, 70406, Note_on_c, 11, 64, 59
14, 70442, Note_off_c, 11, 72, 64
14, 70442, Note_off_c, 11, 64, 64
14, 70484, Note_on_c, 11, 64, 52
14, 70484, Note_on_c, 11, 72, 60
14, 70520, Note_off_c, 11, 64, 64
14, 70520, Note_off_c, 11, 72, 64
14, 70568, Note_on_c, 11, 71, 70
14, 70569, Note_on_c, 11, 60, 65
14, 70604, Note_off_c, 11, 71, 64
14, 70605, Note_off_c, 11, 60, 64
14, 70643, Note_on_c, 11, 71, 60
14, 70648, Note_on_c, 11, 60, 54
14, 70679, Note_off_c, 11, 71, 64
14, 70684, Note_off_c, 11, 60, 64
14, 70729, Note_on_c, 11, 60, 59
14, 70729, Note_on_c, 11, 71, 66
14, 70765, Note_off_c, 11, 60, 64
14, 70767, Note_off_c, 11, 71, 64
14, 70808, Note_on_c, 11, 63, 59
14, 70809, Note_on_c, 11, 68, 65
14, 70844, Note_off_c, 11, 63, 64
14, 70845, Note_off_c, 11, 68, 64
14, 70882, Note_on_c, 11, 63, 52
14, 70888, Note_on_c, 11, 68, 60
14, 70919, Note_off_c, 11, 63, 64
14, 70924, Note_off_c, 11, 68, 64
14, 70968, Note_on_c, 11, 63, 59
14, 70969, Note_on_c, 11, 68, 60
14, 71004, Note_off_c, 11, 63, 64
14, 71006, Note_off_c, 11, 68, 64
14, 71288, Note_on_c, 11, 81, 66
14, 71289, Note_on_c, 11, 72, 55
14, 71324, Note_off_c, 11, 81, 64
14, 71325, Note_off_c, 11, 72, 64
14, 71367, Note_on_c, 11, 81, 64
14, 71368, Note_on_c, 11, 72, 60
14, 71403, Note_off_c, 11, 81, 64
14, 71404, Note_off_c, 11, 72, 64
14, 71441, Note_on_c, 11, 81, 58
14, 71447, Note_on_c, 11, 72, 54
14, 71480, Note_off_c, 11, 81, 64
14, 71485, Note_off_c, 11, 72, 64
14, 71529, Note_on_c, 11, 71, 62
14, 71529, Note_on_c, 11, 80, 70
14, 71565, Note_off_c, 11, 71, 64
14, 71566, Note_off_c, 11, 80, 64
14, 71607, Note_on_c, 11, 71, 53
14, 71608, Note_on_c, 11, 80, 56
14, 71644, Note_off_c, 11, 71, 64
14, 71646, Note_off_c, 11, 80, 64
14, 71683, Note_on_c, 11, 80, 63
14, 71689, Note_on_c, 11, 71, 57
14, 71719, Note_off_c, 11, 80, 64
14, 71725, Note_off_c, 11, 71, 64
14, 71764, Note_on_c, 11, 71, 64
14, 71767, Note_on_c, 11, 68, 58
14, 71800, Note_off_c, 11, 71, 64
14, 71805, Note_off_c, 11, 68, 64
14, 71847, Note_on_c, 11, 71, 59
14, 71848, Note_on_c, 11, 68, 55
14, 71883, Note_off_c, 11, 71, 64
14, 71884, Note_off_c, 11, 68, 64
14, 71918, Note_on_c, 11, 68, 60
14, 71926, Note_on_c, 11, 71, 66
14, 71956, Note_off_c, 11, 68, 64
14, 71962, Note_off_c, 11, 71, 64
14, 72007, Note_on_c, 11, 69, 64
14, 72008, Note_on_c, 11, 77, 71
14, 72043, Note_off_c, 11, 69, 64
14, 72044, Note_off_c, 11, 77, 64
14, 72085, Note_on_c, 11, 77, 59
14, 72089, Note_on_c, 11, 69, 53
14, 72121, Note_off_c, 11, 77, 64
14, 72125, Note_off_c, 11, 69, 64
14, 72166, Note_on_c, 11, 69, 60
14, 72167, Note_on_c, 11, 77, 66
14, 72202, Note_off_c, 11, 69, 64
14, 72206, Note_off_c, 11, 77, 64
14, 72240, Control_c, 11, 11, 114
14, 72247, Note_on_c, 11, 68, 59
14, 72248, Note_on_c, 11, 76, 66
14, 72284, Note_off_c, 11, 68, 64
14, 72284, Note_off_c, 11, 76, 64
14, 72325, Note_on_c, 11, 68, 55
14, 72329, Note_on_c, 11, 76, 58
14, 72360, Control_c, 11, 11, 113
14, 72361, Note_off_c, 11, 68, 64
14, 72365, Note_off_c, 11, 76, 64
14, 72408, Note_on_c, 11, 76, 66
14, 72409, Note_on_c, 11, 68, 60
14, 72446, Note_off_c, 11, 76, 64
14, 72446, Note_off_c, 11, 68, 64
14, 72480, Control_c, 11, 11, 111
14, 72485, Note_on_c, 11, 72, 72
14, 72488, Note_on_c, 11, 64, 66
14, 72522, Note_off_c, 11, 72, 64
14, 72524, Note_off_c, 11, 64, 64
14, 72559, Note_on_c, 11, 72, 59
14, 72569, Note_on_c, 11, 64, 54
14, 72595, Note_off_c, 11, 72, 64
14, 72600, Control_c, 11, 11, 109
14, 72605, Note_off_c, 11, 64, 64
14, 72644, Note_on_c, 11, 64, 57
14, 72649, Note_on_c, 11, 72, 66
14, 72680, Note_off_c, 11, 64, 64
14, 72687, Note_off_c, 11, 72, 64
14, 72720, Control_c, 11, 11, 108
14, 72727, Note_on_c, 11, 60, 60
14, 72729, Note_on_c, 11, 69, 65
14, 72764, Note_off_c, 11, 60, 64
14, 72765, Note_off_c, 11, 69, 64
14, 72807, Note_on_c, 11, 60, 53
14, 72808, Note_on_c, 11, 69, 60
14, 72840, Control_c, 11, 11, 106
14, 72844, Note_off_c, 11, 60, 64
14, 72845, Note_off_c, 11, 69, 64
14, 72888, Note_on_c, 11, 60, 60
14, 72889, Note_on_c, 11, 69, 65
14, 72925, Note_off_c, 11, 60, 64
14, 72925, Note_off_c, 11, 69, 64
14, 72960, Control_c, 11, 11, 104
14, 73080, Control_c, 11, 11, 106
14, 73200, Control_c, 11, 11, 109
14, 73206, Note_on_c, 11, 58, 78
14, 73242, Note_off_c, 11, 58, 64
14, 73285, Note_on_c, 11, 58, 66
14, 73320, Control_c, 11, 11, 111
14, 73321, Note_off_c, 11, 58, 64
14, 73369, Note_on_c, 11, 58, 69
14, 73407, Note_off_c, 11, 58, 64
14, 73416, Control_c, 11, 11, 114
14, 73441, Note_on_c, 11, 61, 73
14, 73477, Note_off_c, 11, 61, 64
14, 73527, Note_on_c, 11, 61, 65
14, 73563, Note_off_c, 11, 61, 64
14, 73606, Note_on_c, 11, 61, 73
14, 73643, Note_off_c, 11, 61, 64
14, 73688, Note_on_c, 11, 70, 65
14, 73726, Note_off_c, 11, 70, 64
14, 73759, Note_on_c, 11, 70, 73
14, 73795, Note_off_c, 11, 70, 64
14, 73843, Note_on_c, 11, 70, 71
14, 73880, Note_off_c, 11, 70, 64
14, 73924, Note_on_c, 11, 73, 65
14, 74272, Note_off_c, 11, 73, 64
14, 74284, Note_on_c, 11, 77, 66
14, 74343, Note_off_c, 11, 77, 64
14, 74343, Note_on_c, 11, 82, 67
14, 74401, Note_on_c, 11, 85, 82
14, 74403, Note_off_c, 11, 82, 64
14, 74454, Note_off_c, 11, 85, 64
14, 75127, Note_on_c, 11, 59, 79
14, 75164, Note_off_c, 11, 59, 64
14, 75205, Note_on_c, 11, 59, 63
14, 75242, Note_off_c, 11, 59, 64
14, 75289, Note_on_c, 11, 59, 73
14, 75325, Note_off_c, 11, 59, 64
14, 75359, Note_on_c, 11, 64, 71
14, 75396, Note_off_c, 11, 64, 64
14, 75444, Note_on_c, 11, 64, 65
14, 75481, Note_off_c, 11, 64, 64
14, 75528, Note_on_c, 11, 64, 72
14, 75565, Note_off_c, 11, 64, 64
14, 75606, Note_on_c, 11, 67, 63
14, 75642, Note_off_c, 11, 67, 64
14, 75683, Note_on_c, 11, 67, 71
14, 75721, Note_off_c, 11, 67, 64
14, 75766, Note_on_c, 11, 67, 73
14, 75802, Note_off_c, 11, 67, 64
14, 75848, Note_on_c, 11, 71, 66
14, 76194, Note_off_c, 11, 71, 64
14, 76209, Note_on_c, 11, 76, 66
14, 76268, Note_off_c, 11, 76, 64
14, 76269, Note_on_c, 11, 79, 72
14, 76327, Note_off_c, 11, 79, 64
14, 76329, Note_on_c, 11, 83, 75
14, 76550, Note_off_c, 11, 83, 64
14, 76569, Note_on_c, 11, 71, 78
14, 76624, Note_off_c, 11, 71, 64
14, 77016, Control_c, 11, 11, 127
14, 77048, Note_on_c, 11, 83, 66
14, 77086, Note_off_c, 11, 83, 64
14, 77127, Note_on_c, 11, 83, 64
14, 77163, Note_off_c, 11, 83, 64
14, 77209, Note_on_c, 11, 83, 60
14, 77245, Note_off_c, 11, 83, 64
14, 77284, Note_on_c, 11, 84, 72
14, 77323, Note_off_c, 11, 84, 64
14, 77368, Note_on_c, 11, 84, 55
14, 77404, Note_off_c, 11, 84, 64
14, 77446, Note_on_c, 11, 84, 65
14, 77482, Note_off_c, 11, 84, 64
14, 77529, Note_on_c, 11, 81, 64
14, 77565, Note_off_c, 11, 81, 64
14, 77605, Note_on_c, 11, 81, 59
14, 77641, Note_off_c, 11, 81, 64
14, 77688, Note_on_c, 11, 81, 63
14, 77724, Note_off_c, 11, 81, 64
14, 78005, Note_on_c, 11, 88, 64
14, 78041, Note_off_c, 11, 88, 64
14, 78088, Note_on_c, 11, 88, 63
14, 78124, Note_off_c, 11, 88, 64
14, 78169, Note_on_c, 11, 88, 59
14, 78206, Note_off_c, 11, 88, 64
14, 78243, Note_on_c, 11, 84, 73
14, 78279, Note_off_c, 11, 84, 64
14, 78328, Note_on_c, 11, 84, 60
14, 78364, Note_off_c, 11, 84, 64
14, 78409, Note_on_c, 11, 84, 63
14, 78445, Note_off_c, 11, 84, 64
14, 78487, Note_on_c, 11, 81, 65
14, 78524, Note_off_c, 11, 81, 64
14, 78569, Note_on_c, 11, 81, 57
14, 78605, Note_off_c, 11, 81, 64
14, 78649, Note_on_c, 11, 81, 66
14, 78685, Note_off_c, 11, 81, 64
14, 78966, Note_on_c, 11, 57, 78
14, 79002, Note_off_c, 11, 57, 64
14, 79041, Note_on_c, 11, 57, 65
14, 79077, Note_off_c, 11, 57, 64
14, 79129, Note_on_c, 11, 57, 73
14, 79165, Note_off_c, 11, 57, 64
14, 79176, Control_c, 11, 11, 114
14, 79200, Note_on_c, 11, 61, 73
14, 79236, Note_off_c, 11, 61, 64
14, 79287, Note_on_c, 11, 61, 66
14, 79324, Note_off_c, 11, 61, 64
14, 79369, Note_on_c, 11, 61, 73
14, 79405, Note_off_c, 11, 61, 64
14, 79448, Note_on_c, 11, 69, 65
14, 79484, Note_off_c, 11, 69, 64
14, 79526, Note_on_c, 11, 69, 73
14, 79562, Note_off_c, 11, 69, 64
14, 79609, Note_on_c, 11, 69, 70
14, 79646, Note_off_c, 11, 69, 64
14, 79689, Note_on_c, 11, 73, 66
14, 80011, Note_off_c, 11, 73, 64
14, 80045, Note_on_c, 11, 78, 66
14, 80103, Note_off_c, 11, 78, 64
14, 80108, Note_on_c, 11, 81, 73
14, 80168, Note_off_c, 11, 81, 64
14, 80169, Note_on_c, 11, 85, 78
14, 80389, Note_off_c, 11, 85, 64
14, 80409, Note_on_c, 11, 73, 85
14, 80461, Note_off_c, 11, 73, 64
14, 80647, Note_on_c, 11, 78, 63
14, 80969, Note_off_c, 11, 78, 64
14, 81007, Note_on_c, 11, 81, 58
14, 81066, Note_off_c, 11, 81, 64
14, 81069, Note_on_c, 11, 85, 63
14, 81126, Note_on_c, 11, 90, 73
14, 81127, Note_off_c, 11, 85, 64
14, 81310, Note_off_c, 11, 90, 64
14, 81364, Note_on_c, 11, 78, 71
14, 81428, Note_off_c, 11, 78, 64
14, 81609, Note_on_c, 11, 69, 66
14, 81933, Note_off_c, 11, 69, 64
14, 81966, Note_on_c, 11, 73, 60
14, 82024, Note_off_c, 11, 73, 64
14, 82029, Note_on_c, 11, 78, 67
14, 82086, Note_on_c, 11, 81, 85
14, 82087, Note_off_c, 11, 78, 64
14, 82138, Note_off_c, 11, 81, 64
14, 82803, Note_on_c, 11, 85, 60
14, 82809, Note_on_c, 11, 82, 58
14, 82839, Note_off_c, 11, 85, 64
14, 82846, Note_off_c, 11, 82, 64
14, 82886, Note_on_c, 11, 82, 59
14, 82888, Note_on_c, 11, 85, 63
14, 82924, Note_off_c, 11, 82, 64
14, 82925, Note_off_c, 11, 85, 64
14, 82962, Note_on_c, 11, 82, 52
14, 82966, Note_on_c, 11, 85, 57
14, 83000, Note_off_c, 11, 82, 64
14, 83004, Note_off_c, 11, 85, 64
14, 83042, Note_on_c, 11, 87, 73
14, 83048, Note_on_c, 11, 81, 63
14, 83079, Note_off_c, 11, 87, 64
14, 83085, Note_off_c, 11, 81, 64
14, 83123, Note_on_c, 11, 81, 52
14, 83127, Note_on_c, 11, 87, 60
14, 83161, Note_off_c, 11, 81, 64
14, 83164, Note_off_c, 11, 87, 64
14, 83206, Note_on_c, 11, 87, 65
14, 83207, Note_on_c, 11, 81, 55
14, 83242, Note_off_c, 11, 87, 64
14, 83243, Note_off_c, 11, 81, 64
14, 83282, Note_on_c, 11, 78, 60
14, 83289, Note_on_c, 11, 84, 66
14, 83320, Note_off_c, 11, 78, 64
14, 83325, Note_off_c, 11, 84, 64
14, 83363, Note_on_c, 11, 84, 59
14, 83369, Note_on_c, 11, 78, 55
14, 83399, Note_off_c, 11, 84, 64
14, 83405, Note_off_c, 11, 78, 64
14, 83448, Note_on_c, 11, 84, 66
14, 83449, Note_on_c, 11, 78, 56
14, 83485, Note_off_c, 11, 84, 64
14, 83485, Note_off_c, 11, 78, 64
14, 83767, Note_on_c, 11, 73, 58
14, 83769, Note_on_c, 11, 82, 66
14, 83803, Note_off_c, 11, 73, 64
14, 83805, Note_off_c, 11, 82, 64
14, 83842, Note_on_c, 11, 82, 66
14, 83849, Note_on_c, 11, 73, 60
14, 83878, Note_off_c, 11, 82, 64
14, 83885, Note_off_c, 11, 73, 64
14, 83926, Note_on_c, 11, 73, 54
14, 83928, Note_on_c, 11, 82, 60
14, 83962, Note_off_c, 11, 73, 64
14, 83965, Note_off_c, 11, 82, 64
14, 84005, Note_on_c, 11, 84, 70
14, 84009, Note_on_c, 11, 75, 66
14, 84042, Note_off_c, 11, 84, 64
14, 84045, Note_off_c, 11, 75, 64
14, 84082, Note_on_c, 11, 84, 59
14, 84088, Note_on_c, 11, 75, 47
14, 84118, Note_off_c, 11, 84, 64
14, 84125, Note_off_c, 11, 75, 64
14, 84163, Note_on_c, 11, 75, 58
14, 84169, Note_on_c, 11, 84, 66
14, 84200, Note_off_c, 11, 75, 64
14, 84206, Note_off_c, 11, 84, 64
14, 84246, Note_on_c, 11, 72, 59
14, 84248, Note_on_c, 11, 81, 66
14, 84282, Note_off_c, 11, 72, 64
14, 84284, Note_off_c, 11, 81, 64
14, 84328, Note_on_c, 11, 81, 60
14, 84329, Note_on_c, 11, 72, 52
14, 84364, Note_off_c, 11, 81, 64
14, 84366, Note_off_c, 11, 72, 64
14, 84407, Note_on_c, 11, 81, 66
14, 84407, Note_on_c, 11, 72, 60
14, 84443, Note_off_c, 11, 81, 64
14, 84444, Note_off_c, 11, 72, 64
14, 84727, Note_on_c, 11, 77, 60
14, 84728, Note_on_c, 11, 73, 60
14, 84765, Note_off_c, 11, 73, 64
14, 84766, Note_off_c, 11, 77, 64
14, 84809, Note_on_c, 11, 73, 60
14, 84809, Note_on_c, 11, 77, 64
14, 84845, Note_off_c, 11, 73, 64
14, 84846, Note_off_c, 11, 77, 64
14, 84883, Note_on_c, 11, 77, 60
14, 84888, Note_on_c, 11, 73, 54
14, 84920, Note_off_c, 11, 77, 64
14, 84925, Note_off_c, 11, 73, 64
14, 84965, Note_on_c, 11, 72, 65
14, 84967, Note_on_c, 11, 78, 73
14, 85001, Note_off_c, 11, 72, 64
14, 85004, Note_off_c, 11, 78, 64
14, 85045, Note_on_c, 11, 78, 60
14, 85049, Note_on_c, 11, 72, 53
14, 85081, Note_off_c, 11, 78, 64
14, 85086, Note_off_c, 11, 72, 64
14, 85129, Note_on_c, 11, 72, 59
14, 85129, Note_on_c, 11, 78, 61
14, 85165, Note_off_c, 11, 72, 64
14, 85165, Note_off_c, 11, 78, 64
14, 85203, Note_on_c, 11, 75, 63
14, 85205, Note_on_c, 11, 69, 60
14, 85241, Note_off_c, 11, 75, 64
14, 85243, Note_off_c, 11, 69, 64
14, 85286, Note_on_c, 11, 69, 57
14, 85288, Note_on_c, 11, 75, 64
14, 85323, Note_off_c, 11, 69, 64
14, 85326, Note_off_c, 11, 75, 64
14, 85369, Note_on_c, 11, 69, 53
14, 85369, Note_on_c, 11, 75, 60
14, 85405, Note_off_c, 11, 69, 64
14, 85405, Note_off_c, 11, 75, 64
14, 85440, Control_c, 11, 11, 114
14, 85446, Note_on_c, 11, 65, 64
14, 85449, Note_on_c, 11, 73, 65
14, 85560, Control_c, 11, 11, 115
14, 85680, Control_c, 11, 11, 116
14, 85768, Note_off_c, 11, 65, 64
14, 85772, Note_off_c, 11, 73, 64
14, 85800, Control_c, 11, 11, 118
14, 85808, Note_on_c, 11, 70, 65
14, 85809, Note_on_c, 11, 77, 66
14, 85866, Note_off_c, 11, 70, 64
14, 85868, Note_off_c, 11, 77, 64
14, 85868, Note_on_c, 11, 82, 73
14, 85868, Note_on_c, 11, 73, 70
14, 85920, Control_c, 11, 11, 120
14, 85927, Note_off_c, 11, 82, 64
14, 85927, Note_off_c, 11, 73, 64
14, 85929, Note_on_c, 11, 85, 85
14, 85929, Note_on_c, 11, 77, 85
14, 85981, Note_off_c, 11, 85, 64
14, 85981, Note_off_c, 11, 77, 64
14, 86040, Control_c, 11, 11, 121
14, 86160, Control_c, 11, 11, 123
14, 86280, Control_c, 11, 11, 124
14, 86376, Control_c, 11, 11, 127
14, 86407, Note_on_c, 11, 59, 90
14, 86741, Note_off_c, 11, 59, 64
14, 86886, Note_on_c, 11, 59, 91
14, 86945, Note_off_c, 11, 59, 64
14, 87126, Note_on_c, 11, 59, 88
14, 87168, Note_off_c, 11, 59, 64
14, 87208, Note_on_c, 11, 59, 91
14, 87252, Note_off_c, 11, 59, 64
14, 87283, Note_on_c, 11, 59, 83
14, 87326, Note_off_c, 11, 59, 64
14, 87369, Note_on_c, 11, 59, 89
14, 87428, Note_off_c, 11, 59, 64
14, 87606, Note_on_c, 11, 59, 91
14, 87649, Note_off_c, 11, 59, 64
14, 87681, Note_on_c, 11, 59, 92
14, 87724, Note_off_c, 11, 59, 64
14, 87765, Note_on_c, 11, 59, 84
14, 87807, Note_off_c, 11, 59, 64
14, 87848, Note_on_c, 11, 59, 98
14, 87848, Note_on_c, 11, 58, 90
14, 87890, Note_off_c, 11, 59, 64
14, 87890, Note_off_c, 11, 58, 64
14, 87924, Note_on_c, 11, 59, 92
14, 87926, Note_on_c, 11, 58, 85
14, 87966, Note_off_c, 11, 59, 64
14, 87968, Note_off_c, 11, 58, 64
14, 88004, Note_on_c, 11, 58, 79
14, 88008, Note_on_c, 11, 59, 84
14, 88047, Note_off_c, 11, 58, 64
14, 88050, Note_off_c, 11, 59, 64
14, 88082, Note_on_c, 11, 59, 91
14, 88088, Note_on_c, 11, 58, 81
14, 88141, Note_off_c, 11, 59, 64
14, 88146, Note_off_c, 11, 58, 64
14, 88324, Note_on_c, 11, 59, 92
14, 88658, Note_off_c, 11, 59, 64
14, 88808, Note_on_c, 11, 59, 90
14, 88866, Note_off_c, 11, 59, 64
14, 89047, Note_on_c, 11, 59, 92
14, 89089, Note_off_c, 11, 59, 64
14, 89128, Note_on_c, 11, 59, 92
14, 89170, Note_off_c, 11, 59, 64
14, 89209, Note_on_c, 11, 59, 84
14, 89251, Note_off_c, 11, 59, 64
14, 89288, Note_on_c, 11, 59, 89
14, 89346, Note_off_c, 11, 59, 64
14, 89527, Note_on_c, 11, 59, 92
14, 89571, Note_off_c, 11, 59, 64
14, 89604, Note_on_c, 11, 59, 92
14, 89646, Note_off_c, 11, 59, 64
14, 89687, Note_on_c, 11, 59, 85
14, 89729, Note_off_c, 11, 59, 64
14, 89767, Note_on_c, 11, 59, 98
14, 89768, Note_on_c, 11, 58, 92
14, 89809, Note_off_c, 11, 59, 64
14, 89810, Note_off_c, 11, 58, 64
14, 89839, Note_on_c, 11, 59, 92
14, 89843, Note_on_c, 11, 58, 85
14, 89881, Note_off_c, 11, 59, 64
14, 89885, Note_off_c, 11, 58, 64
14, 89927, Note_on_c, 11, 58, 78
14, 89929, Note_on_c, 11, 59, 83
14, 89970, Note_off_c, 11, 58, 64
14, 89973, Note_off_c, 11, 59, 64
14, 90007, Note_on_c, 11, 59, 92
14, 90008, Note_on_c, 11, 58, 85
14, 90065, Note_off_c, 11, 59, 64
14, 90067, Note_off_c, 11, 58, 64
14, 90245, Note_on_c, 11, 60, 92
14, 90580, Note_off_c, 11, 60, 64
14, 90724, Note_on_c, 11, 60, 92
14, 90784, Note_off_c, 11, 60, 64
14, 90967, Note_on_c, 11, 60, 92
14, 91009, Note_off_c, 11, 60, 64
14, 91046, Note_on_c, 11, 60, 92
14, 91088, Note_off_c, 11, 60, 64
14, 91124, Note_on_c, 11, 60, 81
14, 91166, Note_off_c, 11, 60, 64
14, 91203, Note_on_c, 11, 60, 91
14, 91263, Note_off_c, 11, 60, 64
14, 91449, Note_on_c, 11, 60, 92
14, 91492, Note_off_c, 11, 60, 64
14, 91521, Note_on_c, 11, 60, 89
14, 91563, Note_off_c, 11, 60, 64
14, 91608, Note_on_c, 11, 60, 84
14, 91651, Note_off_c, 11, 60, 64
14, 91687, Note_on_c, 11, 59, 91
14, 91688, Note_on_c, 11, 60, 98
14, 91730, Note_off_c, 11, 59, 64
14, 91731, Note_off_c, 11, 60, 64
14, 91763, Note_on_c, 11, 59, 83
14, 91763, Note_on_c, 11, 60, 84
14, 91805, Note_off_c, 11, 59, 64
14, 91807, Note_off_c, 11, 60, 64
14, 91847, Note_on_c, 11, 59, 78
14, 91848, Note_on_c, 11, 60, 84
14, 91890, Note_off_c, 11, 59, 64
14, 91891, Note_off_c, 11, 60, 64
14, 91927, Note_on_c, 11, 59, 84
14, 91928, Note_on_c, 11, 60, 92
14, 91985, Note_off_c, 11, 59, 64
14, 91987, Note_off_c, 11, 60, 64
14, 92161, Note_on_c, 11, 60, 88
14, 92495, Note_off_c, 11, 60, 64
14, 92649, Note_on_c, 11, 60, 91
14, 92708, Note_off_c, 11, 60, 64
14, 92888, Note_on_c, 11, 60, 91
14, 92931, Note_off_c, 11, 60, 64
14, 92963, Note_on_c, 11, 60, 91
14, 93006, Note_off_c, 11, 60, 64
14, 93046, Note_on_c, 11, 60, 85
14, 93088, Note_off_c, 11, 60, 64
14, 93123, Note_on_c, 11, 60, 92
14, 93181, Note_off_c, 11, 60, 64
14, 93360, Control_c, 11, 11, 127
14, 93363, Note_on_c, 11, 60, 87
14, 93405, Note_off_c, 11, 60, 64
14, 93449, Note_on_c, 11, 60, 90
14, 93480, Control_c, 11, 11, 125
14, 93491, Note_off_c, 11, 60, 64
14, 93528, Note_on_c, 11, 60, 85
14, 93572, Note_off_c, 11, 60, 64
14, 93600, Control_c, 11, 11, 123
14, 93605, Note_on_c, 11, 60, 98
14, 93606, Note_on_c, 11, 59, 88
14, 93647, Note_off_c, 11, 60, 64
14, 93649, Note_off_c, 11, 59, 64
14, 93682, Note_on_c, 11, 59, 80
14, 93687, Note_on_c, 11, 60, 91
14, 93720, Control_c, 11, 11, 120
14, 93726, Note_off_c, 11, 59, 64
14, 93730, Note_off_c, 11, 60, 64
14, 93766, Note_on_c, 11, 60, 85
14, 93769, Note_on_c, 11, 59, 79
14, 93809, Note_off_c, 11, 60, 64
14, 93811, Note_off_c, 11, 59, 64
14, 93840, Control_c, 11, 11, 119
14, 93841, Note_on_c, 11, 60, 92
14, 93846, Note_on_c, 11, 59, 82
14, 93899, Note_off_c, 11, 60, 64
14, 93906, Note_off_c, 11, 59, 64
14, 93936, Control_c, 11, 11, 116
14, 94056, Control_c, 11, 11, 115
14, 94080, Control_c, 11, 11, 114
14, 94084, Note_on_c, 11, 67, 92
14, 94418, Note_off_c, 11, 67, 64
14, 94566, Note_on_c, 11, 67, 91
14, 94624, Note_off_c, 11, 67, 64
14, 94805, Note_on_c, 11, 67, 90
14, 94847, Note_off_c, 11, 67, 64
14, 94887, Note_on_c, 11, 67, 90
14, 94929, Note_off_c, 11, 67, 64
14, 94967, Note_on_c, 11, 67, 85
14, 95010, Note_off_c, 11, 67, 64
14, 95043, Note_on_c, 11, 67, 89
14, 95101, Note_off_c, 11, 67, 64
14, 95289, Note_on_c, 11, 67, 92
14, 95331, Note_off_c, 11, 67, 64
14, 95361, Note_on_c, 11, 67, 89
14, 95403, Note_off_c, 11, 67, 64
14, 95448, Note_on_c, 11, 67, 81
14, 95490, Note_off_c, 11, 67, 64
14, 95529, Note_on_c, 11, 55, 91
14, 95529, Note_on_c, 11, 67, 95
14, 95529, Note_on_c, 11, 63, 91
14, 95571, Note_off_c, 11, 55, 64
14, 95571, Note_off_c, 11, 63, 64
14, 95571, Note_off_c, 11, 67, 64
14, 95605, Note_on_c, 11, 55, 85
14, 95605, Note_on_c, 11, 67, 92
14, 95608, Note_on_c, 11, 63, 82
14, 95647, Note_off_c, 11, 67, 64
14, 95648, Note_off_c, 11, 55, 64
14, 95650, Note_off_c, 11, 63, 64
14, 95684, Note_on_c, 11, 63, 75
14, 95687, Note_on_c, 11, 55, 79
14, 95689, Note_on_c, 11, 67, 83
14, 95726, Note_off_c, 11, 63, 64
14, 95730, Note_off_c, 11, 55, 64
14, 95732, Note_off_c, 11, 67, 64
14, 95766, Note_on_c, 11, 55, 85
14, 95769, Note_on_c, 11, 67, 91
14, 95769, Note_on_c, 11, 63, 85
14, 95825, Note_off_c, 11, 55, 64
14, 95827, Note_off_c, 11, 67, 64
14, 95828, Note_off_c, 11, 63, 64
14, 96005, Note_on_c, 11, 67, 92
14, 96341, Note_off_c, 11, 67, 64
14, 96484, Note_on_c, 11, 55, 83
14, 96484, Note_on_c, 11, 62, 84
14, 96486, Note_on_c, 11, 67, 91
14, 96542, Note_off_c, 11, 55, 64
14, 96544, Note_off_c, 11, 67, 64
14, 96544, Note_off_c, 11, 62, 64
14, 96727, Note_on_c, 11, 62, 84
14, 96729, Note_on_c, 11, 55, 84
14, 96729, Note_on_c, 11, 67, 91
14, 96769, Note_off_c, 11, 62, 64
14, 96771, Note_off_c, 11, 67, 64
14, 96772, Note_off_c, 11, 55, 64
14, 96801, Note_on_c, 11, 67, 87
14, 96808, Note_on_c, 11, 62, 84
14, 96809, Note_on_c, 11, 55, 85
14, 96843, Note_off_c, 11, 67, 64
14, 96850, Note_off_c, 11, 62, 64
14, 96851, Note_off_c, 11, 55, 64
14, 96881, Note_on_c, 11, 55, 77
14, 96886, Note_on_c, 11, 67, 79
14, 96889, Note_on_c, 11, 62, 76
14, 96923, Note_off_c, 11, 55, 64
14, 96928, Note_off_c, 11, 67, 64
14, 96933, Note_off_c, 11, 62, 64
14, 96969, Note_on_c, 11, 67, 90
14, 97027, Note_off_c, 11, 67, 64
14, 97209, Note_on_c, 11, 67, 91
14, 97251, Note_off_c, 11, 67, 64
14, 97281, Note_on_c, 11, 67, 89
14, 97323, Note_off_c, 11, 67, 64
14, 97366, Note_on_c, 11, 67, 84
14, 97408, Note_off_c, 11, 67, 64
14, 97448, Note_on_c, 11, 67, 96
14, 97490, Note_off_c, 11, 67, 64
14, 97525, Note_on_c, 11, 67, 87
14, 97568, Note_off_c, 11, 67, 64
14, 97608, Note_on_c, 11, 67, 78
14, 97650, Note_off_c, 11, 67, 64
14, 97687, Note_on_c, 11, 67, 87
14, 97745, Note_off_c, 11, 67, 64
14, 97921, Note_on_c, 11, 74, 88
14, 97927, Note_on_c, 11, 62, 84
14, 97928, Note_on_c, 11, 70, 82
14, 98256, Note_off_c, 11, 74, 64
14, 98261, Note_off_c, 11, 62, 64
14, 98262, Note_off_c, 11, 70, 64
14, 98406, Note_on_c, 11, 74, 90
14, 98407, Note_on_c, 11, 70, 85
14, 98408, Note_on_c, 11, 62, 84
14, 98465, Note_off_c, 11, 74, 64
14, 98465, Note_off_c, 11, 70, 64
14, 98466, Note_off_c, 11, 62, 64
14, 98644, Note_on_c, 11, 74, 92
14, 98644, Note_on_c, 11, 62, 85
14, 98647, Note_on_c, 11, 70, 81
14, 98686, Note_off_c, 11, 74, 64
14, 98687, Note_off_c, 11, 62, 64
14, 98689, Note_off_c, 11, 70, 64
14, 98724, Note_on_c, 11, 74, 91
14, 98725, Note_on_c, 11, 70, 81
14, 98728, Note_on_c, 11, 62, 83
14, 98767, Note_off_c, 11, 74, 64
14, 98767, Note_off_c, 11, 70, 64
14, 98770, Note_off_c, 11, 62, 64
14, 98803, Note_on_c, 11, 74, 85
14, 98808, Note_on_c, 11, 62, 78
14, 98809, Note_on_c, 11, 70, 75
14, 98846, Note_off_c, 11, 74, 64
14, 98850, Note_off_c, 11, 62, 64
14, 98851, Note_off_c, 11, 70, 64
14, 98878, Note_on_c, 11, 62, 85
14, 98885, Note_on_c, 11, 74, 92
14, 98886, Note_on_c, 11, 70, 80
14, 98936, Note_off_c, 11, 62, 64
14, 98944, Note_off_c, 11, 74, 64
14, 98945, Note_off_c, 11, 70, 64
14, 99126, Note_on_c, 11, 62, 83
14, 99128, Note_on_c, 11, 70, 85
14, 99129, Note_on_c, 11, 74, 92
14, 99168, Note_off_c, 11, 62, 64
14, 99170, Note_off_c, 11, 70, 64
14, 99172, Note_off_c, 11, 74, 64
14, 99203, Note_on_c, 11, 70, 85
14, 99206, Note_on_c, 11, 62, 80
14, 99206, Note_on_c, 11, 74, 91
14, 99245, Note_off_c, 11, 70, 64
14, 99248, Note_off_c, 11, 74, 64
14, 99249, Note_off_c, 11, 62, 64
14, 99285, Note_on_c, 11, 70, 79
14, 99288, Note_on_c, 11, 62, 79
14, 99288, Note_on_c, 11, 74, 85
14, 99327, Note_off_c, 11, 70, 64
14, 99331, Note_off_c, 11, 74, 64
14, 99331, Note_off_c, 11, 62, 64
14, 99363, Note_on_c, 11, 70, 87
14, 99368, Note_on_c, 11, 63, 90
14, 99369, Note_on_c, 11, 75, 98
14, 99407, Note_off_c, 11, 70, 64
14, 99410, Note_off_c, 11, 63, 64
14, 99413, Note_off_c, 11, 75, 64
14, 99443, Note_on_c, 11, 75, 92
14, 99447, Note_on_c, 11, 70, 85
14, 99448, Note_on_c, 11, 63, 84
14, 99485, Note_off_c, 11, 75, 64
14, 99489, Note_off_c, 11, 70, 64
14, 99491, Note_off_c, 11, 63, 64
14, 99526, Note_on_c, 11, 63, 79
14, 99527, Note_on_c, 11, 70, 79
14, 99528, Note_on_c, 11, 75, 85
14, 99568, Note_off_c, 11, 63, 64
14, 99569, Note_off_c, 11, 70, 64
14, 99571, Note_off_c, 11, 75, 64
14, 99602, Note_on_c, 11, 75, 92
14, 99609, Note_on_c, 11, 63, 83
14, 99609, Note_on_c, 11, 70, 85
14, 99660, Note_off_c, 11, 75, 64
14, 99668, Note_off_c, 11, 63, 64
14, 99669, Note_off_c, 11, 70, 64
14, 99838, Note_on_c, 11, 78, 92
14, 99849, Note_on_c, 11, 75, 84
14, 100172, Note_off_c, 11, 78, 64
14, 100183, Note_off_c, 11, 75, 64
14, 100325, Note_on_c, 11, 78, 85
14, 100329, Note_on_c, 11, 82, 91
14, 100384, Note_off_c, 11, 78, 64
14, 100387, Note_off_c, 11, 82, 64
14, 100567, Note_on_c, 11, 82, 91
14, 100569, Note_on_c, 11, 78, 83
14, 100609, Note_off_c, 11, 82, 64
14, 100612, Note_off_c, 11, 78, 64
14, 100648, Note_on_c, 11, 78, 79
14, 100649, Note_on_c, 11, 82, 91
14, 100690, Note_off_c, 11, 78, 64
14, 100691, Note_off_c, 11, 82, 64
14, 100725, Note_on_c, 11, 82, 84
14, 100725, Note_on_c, 11, 78, 79
14, 100767, Note_off_c, 11, 78, 64
14, 100769, Note_off_c, 11, 82, 64
14, 100801, Note_on_c, 11, 82, 79
14, 100808, Note_on_c, 11, 86, 89
14, 100860, Note_off_c, 11, 82, 64
14, 100866, Note_off_c, 11, 86, 64
14, 101046, Note_on_c, 11, 82, 85
14, 101048, Note_on_c, 11, 86, 92
14, 101088, Note_off_c, 11, 82, 64
14, 101091, Note_off_c, 11, 86, 64
14, 101122, Note_on_c, 11, 82, 82
14, 101128, Note_on_c, 11, 86, 88
14, 101166, Note_off_c, 11, 82, 64
14, 101171, Note_off_c, 11, 86, 64
14, 101208, Note_on_c, 11, 86, 83
14, 101208, Note_on_c, 11, 82, 79
14, 101251, Note_off_c, 11, 86, 64
14, 101253, Note_off_c, 11, 82, 64
14, 101288, Note_on_c, 11, 86, 98
14, 101289, Note_on_c, 11, 82, 91
14, 101331, Note_off_c, 11, 86, 64
14, 101331, Note_off_c, 11, 82, 64
14, 101363, Note_on_c, 11, 82, 82
14, 101365, Note_on_c, 11, 86, 92
14, 101405, Note_off_c, 11, 82, 64
14, 101408, Note_off_c, 11, 86, 64
14, 101444, Note_on_c, 11, 86, 85
14, 101448, Note_on_c, 11, 82, 77
14, 101487, Note_off_c, 11, 86, 64
14, 101490, Note_off_c, 11, 82, 64
14, 101524, Note_on_c, 11, 86, 89
14, 101528, Note_on_c, 11, 82, 83
14, 101582, Note_off_c, 11, 86, 64
14, 101589, Note_off_c, 11, 82, 64
14, 101768, Note_on_c, 11, 91, 88
14, 101769, Note_on_c, 11, 79, 85
14, 102102, Note_off_c, 11, 91, 64
14, 102103, Note_off_c, 11, 79, 64
14, 102244, Note_on_c, 11, 79, 85
14, 102248, Note_on_c, 11, 91, 90
14, 102302, Note_off_c, 11, 79, 64
14, 102306, Note_off_c, 11, 91, 64
14, 102481, Note_on_c, 11, 79, 82
14, 102488, Note_on_c, 11, 91, 86
14, 102523, Note_off_c, 11, 79, 64
14, 102530, Note_off_c, 11, 91, 64
14, 102565, Note_on_c, 11, 91, 90
14, 102565, Note_on_c, 11, 79, 84
14, 102607, Note_off_c, 11, 91, 64
14, 102607, Note_off_c, 11, 79, 64
14, 102644, Note_on_c, 11, 79, 79
14, 102649, Note_on_c, 11, 91, 85
14, 102686, Note_off_c, 11, 79, 64
14, 102691, Note_off_c, 11, 91, 64
14, 102728, Note_on_c, 11, 79, 83
14, 102729, Note_on_c, 11, 91, 90
14, 102788, Note_off_c, 11, 79, 64
14, 102788, Note_off_c, 11, 91, 64
14, 102967, Note_on_c, 11, 91, 91
14, 102968, Note_on_c, 11, 79, 84
14, 103010, Note_off_c, 11, 91, 64
14, 103010, Note_off_c, 11, 79, 64
14, 103048, Note_on_c, 11, 91, 92
14, 103048, Note_on_c, 11, 79, 82
14, 103090, Note_off_c, 11, 91, 64
14, 103090, Note_off_c, 11, 79, 64
14, 103122, Note_on_c, 11, 91, 85
14, 103127, Note_on_c, 11, 79, 78
14, 103164, Note_off_c, 11, 91, 64
14, 103170, Note_off_c, 11, 79, 64
14, 103205, Note_on_c, 11, 79, 92
14, 103208, Note_on_c, 11, 91, 96
14, 103247, Note_off_c, 11, 79, 64
14, 103250, Note_off_c, 11, 91, 64
14, 103288, Note_on_c, 11, 91, 89
14, 103289, Note_on_c, 11, 79, 83
14, 103330, Note_off_c, 11, 91, 64
14, 103331, Note_off_c, 11, 79, 64
14, 103361, Note_on_c, 11, 91, 82
14, 103366, Note_on_c, 11, 79, 79
14, 103406, Note_off_c, 11, 91, 64
14, 103409, Note_off_c, 11, 79, 64
14, 103449, Note_on_c, 11, 91, 91
14, 103449, Note_on_c, 11, 79, 84
14, 103507, Note_off_c, 11, 91, 64
14, 103507, Note_off_c, 11, 79, 64
14, 103681, Note_on_c, 11, 88, 84
14, 103686, Note_on_c, 11, 80, 84
14, 103689, Note_on_c, 11, 92, 90
14, 104015, Note_off_c, 11, 88, 64
14, 104021, Note_off_c, 11, 80, 64
14, 104025, Note_off_c, 11, 92, 64
14, 104163, Note_on_c, 11, 80, 83
14, 104167, Note_on_c, 11, 88, 83
14, 104168, Note_on_c, 11, 92, 88
14, 104221, Note_off_c, 11, 80, 64
14, 104226, Note_off_c, 11, 88, 64
14, 104227, Note_off_c, 11, 92, 64
14, 104402, Note_on_c, 11, 92, 92
14, 104403, Note_on_c, 11, 88, 83
14, 104403, Note_on_c, 11, 80, 85
14, 104444, Note_off_c, 11, 92, 64
14, 104445, Note_off_c, 11, 80, 64
14, 104446, Note_off_c, 11, 88, 64
14, 104486, Note_on_c, 11, 88, 84
14, 104486, Note_on_c, 11, 80, 84
14, 104487, Note_on_c, 11, 92, 91
14, 104529, Note_off_c, 11, 92, 64
14, 104530, Note_off_c, 11, 88, 64
14, 104530, Note_off_c, 11, 80, 64
14, 104562, Note_on_c, 11, 92, 83
14, 104565, Note_on_c, 11, 80, 78
14, 104567, Note_on_c, 11, 88, 79
14, 104604, Note_off_c, 11, 92, 64
14, 104607, Note_off_c, 11, 80, 64
14, 104611, Note_off_c, 11, 88, 64
14, 104643, Note_on_c, 11, 80, 81
14, 104647, Note_on_c, 11, 88, 84
14, 104648, Note_on_c, 11, 92, 90
14, 104702, Note_off_c, 11, 80, 64
14, 104705, Note_off_c, 11, 88, 64
14, 104706, Note_off_c, 11, 92, 64
14, 104884, Note_on_c, 11, 80, 85
14, 104888, Note_on_c, 11, 88, 85
14, 104889, Note_on_c, 11, 92, 91
14, 104927, Note_off_c, 11, 80, 64
14, 104930, Note_off_c, 11, 88, 64
14, 104932, Note_off_c, 11, 92, 64
14, 104967, Note_on_c, 11, 92, 91
14, 104967, Note_on_c, 11, 80, 83
14, 104969, Note_on_c, 11, 88, 81
14, 105010, Note_off_c, 11, 80, 64
14, 105011, Note_off_c, 11, 92, 64
14, 105012, Note_off_c, 11, 88, 64
14, 105040, Note_on_c, 11, 80, 79
14, 105046, Note_on_c, 11, 88, 78
14, 105047, Note_on_c, 11, 92, 80
14, 105083, Note_off_c, 11, 80, 64
14, 105089, Note_off_c, 11, 92, 64
14, 105089, Note_off_c, 11, 88, 64
14, 105127, Note_on_c, 11, 92, 97
14, 105127, Note_on_c, 11, 88, 92
14, 105129, Note_on_c, 11, 80, 89
14, 105169, Note_off_c, 11, 88, 64
14, 105171, Note_off_c, 11, 80, 64
14, 105171, Note_off_c, 11, 92, 64
14, 105202, Note_on_c, 11, 92, 90
14, 105207, Note_on_c, 11, 80, 80
14, 105208, Note_on_c, 11, 88, 83
14, 105244, Note_off_c, 11, 92, 64
14, 105249, Note_off_c, 11, 80, 64
14, 105250, Note_off_c, 11, 88, 64
14, 105283, Note_on_c, 11, 92, 85
14, 105287, Note_on_c, 11, 80, 78
14, 105288, Note_on_c, 11, 88, 77
14, 105327, Note_off_c, 11, 92, 64
14, 105331, Note_off_c, 11, 88, 64
14, 105331, Note_off_c, 11, 80, 64
14, 105362, Note_on_c, 11, 80, 81
14, 105366, Note_on_c, 11, 88, 85
14, 105369, Note_on_c, 11, 92, 92
14, 105420, Note_off_c, 11, 80, 64
14, 105424, Note_off_c, 11, 88, 64
14, 105427, Note_off_c, 11, 92, 64
14, 105600, Note_on_c, 11, 94, 89
14, 105607, Note_on_c, 11, 82, 82
14, 105607, Note_on_c, 11, 90, 79
14, 105934, Note_off_c, 11, 94, 64
14, 105941, Note_off_c, 11, 90, 64
14, 105943, Note_off_c, 11, 82, 64
14, 106086, Note_on_c, 11, 94, 92
14, 106088, Note_on_c, 11, 82, 85
14, 106088, Note_on_c, 11, 90, 85
14, 106144, Note_off_c, 11, 94, 64
14, 106146, Note_off_c, 11, 82, 64
14, 106147, Note_off_c, 11, 90, 64
14, 106325, Note_on_c, 11, 94, 91
14, 106325, Note_on_c, 11, 82, 85
14, 106328, Note_on_c, 11, 90, 82
14, 106367, Note_off_c, 11, 82, 64
14, 106368, Note_off_c, 11, 94, 64
14, 106370, Note_off_c, 11, 90, 64
14, 106406, Note_on_c, 11, 82, 81
14, 106408, Note_on_c, 11, 90, 80
14, 106409, Note_on_c, 11, 94, 92
14, 106448, Note_off_c, 11, 82, 64
14, 106450, Note_off_c, 11, 90, 64
14, 106453, Note_off_c, 11, 94, 64
14, 106483, Note_on_c, 11, 94, 80
14, 106484, Note_on_c, 11, 82, 78
14, 106489, Note_on_c, 11, 90, 75
14, 106526, Note_off_c, 11, 94, 64
14, 106527, Note_off_c, 11, 82, 64
14, 106531, Note_off_c, 11, 90, 64
14, 106566, Note_on_c, 11, 90, 84
14, 106569, Note_on_c, 11, 94, 91
14, 106569, Note_on_c, 11, 82, 83
14, 106624, Note_off_c, 11, 90, 64
14, 106627, Note_off_c, 11, 82, 64
14, 106629, Note_off_c, 11, 94, 64
14, 106805, Note_on_c, 11, 94, 92
14, 106805, Note_on_c, 11, 82, 84
14, 106808, Note_on_c, 11, 90, 83
14, 106847, Note_off_c, 11, 94, 64
14, 106847, Note_off_c, 11, 82, 64
14, 106850, Note_off_c, 11, 90, 64
14, 106886, Note_on_c, 11, 90, 84
14, 106888, Note_on_c, 11, 82, 80
14, 106889, Note_on_c, 11, 94, 92
14, 106928, Note_off_c, 11, 90, 64
14, 106931, Note_off_c, 11, 82, 64
14, 106932, Note_off_c, 11, 94, 64
14, 106964, Note_on_c, 11, 90, 77
14, 106965, Note_on_c, 11, 94, 84
14, 106969, Note_on_c, 11, 82, 79
14, 107006, Note_off_c, 11, 90, 64
14, 107007, Note_off_c, 11, 94, 64
14, 107012, Note_off_c, 11, 82, 64
14, 107045, Note_on_c, 11, 94, 97
14, 107046, Note_on_c, 11, 90, 90
14, 107047, Note_on_c, 11, 82, 91
14, 107087, Note_off_c, 11, 94, 64
14, 107088, Note_off_c, 11, 90, 64
14, 107089, Note_off_c, 11, 82, 64
14, 107125, Note_on_c, 11, 82, 83
14, 107126, Note_on_c, 11, 90, 85
14, 107128, Note_on_c, 11, 94, 92
14, 107167, Note_off_c, 11, 82, 64
14, 107169, Note_off_c, 11, 90, 64
14, 107170, Note_off_c, 11, 94, 64
14, 107204, Note_on_c, 11, 90, 77
14, 107206, Note_on_c, 11, 94, 82
14, 107207, Note_on_c, 11, 82, 77
14, 107246, Note_off_c, 11, 90, 64
14, 107248, Note_off_c, 11, 94, 64
14, 107249, Note_off_c, 11, 82, 64
14, 107286, Note_on_c, 11, 82, 82
14, 107288, Note_on_c, 11, 94, 88
14, 107289, Note_on_c, 11, 90, 83
14, 107344, Note_off_c, 11, 82, 64
14, 107346, Note_off_c, 11, 94, 64
14, 107347, Note_off_c, 11, 90, 64
14, 107521, Note_on_c, 11, 82, 84
14, 107527, Note_on_c, 11, 91, 90
14, 107529, Note_on_c, 11, 79, 84
14, 107855, Note_off_c, 11, 82, 64
14, 107861, Note_off_c, 11, 91, 64
14, 107864, Note_off_c, 11, 79, 64
14, 108007, Note_on_c, 11, 79, 85
14, 108009, Note_on_c, 11, 91, 92
14, 108009, Note_on_c, 11, 82, 85
14, 108065, Note_off_c, 11, 79, 64
14, 108067, Note_off_c, 11, 82, 64
14, 108067, Note_off_c, 11, 91, 64
14, 108242, Note_on_c, 11, 79, 85
14, 108248, Note_on_c, 11, 82, 84
14, 108249, Note_on_c, 11, 91, 91
14, 108284, Note_off_c, 11, 79, 64
14, 108292, Note_off_c, 11, 91, 64
14, 108292, Note_off_c, 11, 82, 64
14, 108329, Note_on_c, 11, 91, 86
14, 108329, Note_on_c, 11, 79, 83
14, 108329, Note_on_c, 11, 82, 85
14, 108371, Note_off_c, 11, 91, 64
14, 108371, Note_off_c, 11, 82, 64
14, 108371, Note_off_c, 11, 79, 64
14, 108408, Note_on_c, 11, 91, 85
14, 108408, Note_on_c, 11, 79, 78
14, 108408, Note_on_c, 11, 82, 77
14, 108450, Note_off_c, 11, 91, 64
14, 108450, Note_off_c, 11, 79, 64
14, 108451, Note_off_c, 11, 82, 64
14, 108486, Note_on_c, 11, 79, 85
14, 108487, Note_on_c, 11, 82, 82
14, 108489, Note_on_c, 11, 91, 89
14, 108544, Note_off_c, 11, 79, 64
14, 108547, Note_off_c, 11, 82, 64
14, 108548, Note_off_c, 11, 91, 64
14, 108720, Control_c, 11, 11, 114
14, 108728, Note_on_c, 11, 82, 83
14, 108728, Note_on_c, 11, 91, 90
14, 108729, Note_on_c, 11, 79, 82
14, 108770, Note_off_c, 11, 91, 64
14, 108771, Note_off_c, 11, 79, 64
14, 108772, Note_off_c, 11, 82, 64
14, 108806, Note_on_c, 11, 91, 89
14, 108807, Note_on_c, 11, 82, 84
14, 108808, Note_on_c, 11, 79, 85
14, 108840, Control_c, 11, 11, 115
14, 108849, Note_off_c, 11, 91, 64
14, 108850, Note_off_c, 11, 79, 64
14, 108850, Note_off_c, 11, 82, 64
14, 108877, Note_on_c, 11, 82, 77
14, 108883, Note_on_c, 11, 91, 85
14, 108886, Note_on_c, 11, 79, 73
14, 108919, Note_off_c, 11, 82, 64
14, 108925, Note_off_c, 11, 91, 64
14, 108928, Note_off_c, 11, 79, 64
14, 108936, Control_c, 11, 11, 118
14, 108962, Note_on_c, 11, 79, 92
14, 108968, Note_on_c, 11, 82, 86
14, 108969, Note_on_c, 11, 91, 98
14, 109005, Note_off_c, 11, 79, 64
14, 109012, Note_off_c, 11, 82, 64
14, 109013, Note_off_c, 11, 91, 64
14, 109045, Note_on_c, 11, 82, 83
14, 109049, Note_on_c, 11, 91, 89
14, 109049, Note_on_c, 11, 79, 85
14, 109056, Control_c, 11, 11, 119
14, 109087, Note_off_c, 11, 82, 64
14, 109091, Note_off_c, 11, 79, 64
14, 109091, Note_off_c, 11, 91, 64
14, 109124, Note_on_c, 11, 79, 73
14, 109128, Note_on_c, 11, 91, 83
14, 109128, Note_on_c, 11, 82, 79
14, 109168, Note_off_c, 11, 79, 64
14, 109170, Note_off_c, 11, 91, 64
14, 109171, Note_off_c, 11, 82, 64
14, 109176, Control_c, 11, 11, 121
14, 109207, Note_on_c, 11, 91, 91
14, 109208, Note_on_c, 11, 79, 84
14, 109209, Note_on_c, 11, 82, 79
14, 109265, Note_off_c, 11, 91, 64
14, 109266, Note_off_c, 11, 79, 64
14, 109268, Note_off_c, 11, 82, 64
14, 109296, Control_c, 11, 11, 124
14, 109416, Control_c, 11, 11, 127
14, 109443, Note_on_c, 11, 82, 83
14, 109448, Note_on_c, 11, 91, 92
14, 109449, Note_on_c, 11, 79, 84
14, 109777, Note_off_c, 11, 82, 64
14, 109782, Note_off_c, 11, 91, 64
14, 109784, Note_off_c, 11, 79, 64
14, 109927, Note_on_c, 11, 82, 84
14, 109927, Note_on_c, 11, 79, 84
14, 109927, Note_on_c, 11, 91, 89
14, 109986, Note_off_c, 11, 82, 64
14, 109986, Note_off_c, 11, 79, 64
14, 109987, Note_off_c, 11, 91, 64
14, 110166, Note_on_c, 11, 79, 84
14, 110168, Note_on_c, 11, 91, 91
14, 110169, Note_on_c, 11, 82, 85
14, 110210, Note_off_c, 11, 91, 64
14, 110211, Note_off_c, 11, 82, 64
14, 110211, Note_off_c, 11, 79, 64
14, 110240, Note_on_c, 11, 82, 85
14, 110248, Note_on_c, 11, 79, 85
14, 110249, Note_on_c, 11, 91, 89
14, 110285, Note_off_c, 11, 82, 64
14, 110290, Note_off_c, 11, 79, 64
14, 110292, Note_off_c, 11, 91, 64
14, 110318, Note_on_c, 11, 91, 82
14, 110323, Note_on_c, 11, 82, 77
14, 110325, Note_on_c, 11, 79, 76
14, 110360, Note_off_c, 11, 91, 64
14, 110365, Note_off_c, 11, 82, 64
14, 110367, Note_off_c, 11, 79, 64
14, 110406, Note_on_c, 11, 91, 90
14, 110409, Note_on_c, 11, 82, 82
14, 110409, Note_on_c, 11, 79, 83
14, 110465, Note_off_c, 11, 91, 64
14, 110468, Note_off_c, 11, 79, 64
14, 110469, Note_off_c, 11, 82, 64
14, 110644, Note_on_c, 11, 79, 85
14, 110648, Note_on_c, 11, 82, 84
14, 110648, Note_on_c, 11, 91, 92
14, 110688, Note_off_c, 11, 79, 64
14, 110690, Note_off_c, 11, 82, 64
14, 110691, Note_off_c, 11, 91, 64
14, 110724, Note_on_c, 11, 91, 92
14, 110729, Note_on_c, 11, 82, 83
14, 110729, Note_on_c, 11, 79, 81
14, 110766, Note_off_c, 11, 91, 64
14, 110771, Note_off_c, 11, 79, 64
14, 110772, Note_off_c, 11, 82, 64
14, 110800, Note_on_c, 11, 79, 78
14, 110801, Note_on_c, 11, 91, 85
14, 110803, Note_on_c, 11, 82, 79
14, 110842, Note_off_c, 11, 79, 64
14, 110843, Note_off_c, 11, 91, 64
14, 110846, Note_off_c, 11, 82, 64
14, 110887, Note_on_c, 11, 79, 91
14, 110889, Note_on_c, 11, 82, 90
14, 110889, Note_on_c, 11, 91, 98
14, 110929, Note_off_c, 11, 79, 64
14, 110931, Note_off_c, 11, 91, 64
14, 110934, Note_off_c, 11, 82, 64
14, 110961, Note_on_c, 11, 82, 82
14, 110966, Note_on_c, 11, 91, 92
14, 110969, Note_on_c, 11, 79, 84
14, 111003, Note_off_c, 11, 82, 64
14, 111008, Note_off_c, 11, 91, 64
14, 111011, Note_off_c, 11, 79, 64
14, 111049, Note_on_c, 11, 82, 79
14, 111049, Note_on_c, 11, 79, 78
14, 111049, Note_on_c, 11, 91, 84
14, 111091, Note_off_c, 11, 82, 64
14, 111092, Note_off_c, 11, 79, 64
14, 111093, Note_off_c, 11, 91, 64
14, 111121, Note_on_c, 11, 82, 85
14, 111128, Note_on_c, 11, 91, 92
14, 111129, Note_on_c, 11, 79, 80
14, 111179, Note_off_c, 11, 82, 64
14, 111186, Note_off_c, 11, 91, 64
14, 111187, Note_off_c, 11, 79, 64
14, 111366, Note_on_c, 11, 88, 85
14, 111367, Note_on_c, 11, 80, 82
14, 111369, Note_on_c, 11, 92, 90
14, 111700, Note_off_c, 11, 88, 64
14, 111701, Note_off_c, 11, 80, 64
14, 111705, Note_off_c, 11, 92, 64
14, 111842, Note_on_c, 11, 80, 85
14, 111846, Note_on_c, 11, 92, 90
14, 111848, Note_on_c, 11, 88, 84
14, 111900, Note_off_c, 11, 80, 64
14, 111904, Note_off_c, 11, 92, 64
14, 111909, Note_off_c, 11, 88, 64
14, 112079, Note_on_c, 11, 80, 78
14, 112084, Note_on_c, 11, 88, 85
14, 112086, Note_on_c, 11, 92, 92
14, 112121, Note_off_c, 11, 80, 64
14, 112126, Note_off_c, 11, 88, 64
14, 112128, Note_off_c, 11, 92, 64
14, 112167, Note_on_c, 11, 92, 92
14, 112167, Note_on_c, 11, 80, 81
14, 112169, Note_on_c, 11, 88, 84
14, 112209, Note_off_c, 11, 92, 64
14, 112209, Note_off_c, 11, 80, 64
14, 112211, Note_off_c, 11, 88, 64
14, 112249, Note_on_c, 11, 88, 78
14, 112249, Note_on_c, 11, 80, 79
14, 112249, Note_on_c, 11, 92, 85
14, 112291, Note_off_c, 11, 80, 64
14, 112291, Note_off_c, 11, 92, 64
14, 112293, Note_off_c, 11, 88, 64
14, 112327, Note_on_c, 11, 88, 84
14, 112328, Note_on_c, 11, 80, 84
14, 112328, Note_on_c, 11, 92, 91
14, 112386, Note_off_c, 11, 80, 64
14, 112388, Note_off_c, 11, 92, 64
14, 112388, Note_off_c, 11, 88, 64
14, 112563, Note_on_c, 11, 88, 79
14, 112564, Note_on_c, 11, 80, 82
14, 112567, Note_on_c, 11, 92, 92
14, 112605, Note_off_c, 11, 88, 64
14, 112608, Note_off_c, 11, 80, 64
14, 112609, Note_off_c, 11, 92, 64
14, 112649, Note_on_c, 11, 88, 82
14, 112649, Note_on_c, 11, 80, 85
14, 112649, Note_on_c, 11, 92, 89
14, 112691, Note_off_c, 11, 88, 64
14, 112691, Note_off_c, 11, 92, 64
14, 112691, Note_off_c, 11, 80, 64
14, 112726, Note_on_c, 11, 88, 78
14, 112726, Note_on_c, 11, 80, 79
14, 112729, Note_on_c, 11, 92, 83
14, 112768, Note_off_c, 11, 88, 64
14, 112768, Note_off_c, 11, 80, 64
14, 112771, Note_off_c, 11, 92, 64
14, 112809, Note_on_c, 11, 88, 92
14, 112809, Note_on_c, 11, 80, 88
14, 112809, Note_on_c, 11, 92, 98
14, 112851, Note_off_c, 11, 88, 64
14, 112851, Note_off_c, 11, 92, 64
14, 112851, Note_off_c, 11, 80, 64
14, 112886, Note_on_c, 11, 80, 83
14, 112888, Note_on_c, 11, 88, 85
14, 112888, Note_on_c, 11, 92, 89
14, 112928, Note_off_c, 11, 80, 64
14, 112930, Note_off_c, 11, 92, 64
14, 112931, Note_off_c, 11, 88, 64
14, 112964, Note_on_c, 11, 80, 79
14, 112968, Note_on_c, 11, 88, 76
14, 112968, Note_on_c, 11, 92, 85
14, 113007, Note_off_c, 11, 80, 64
14, 113010, Note_off_c, 11, 92, 64
14, 113010, Note_off_c, 11, 88, 64
14, 113043, Note_on_c, 11, 88, 83
14, 113046, Note_on_c, 11, 80, 82
14, 113048, Note_on_c, 11, 92, 89
14, 113101, Note_off_c, 11, 88, 64
14, 113105, Note_off_c, 11, 80, 64
14, 113106, Note_off_c, 11, 92, 64
14, 113287, Note_on_c, 11, 94, 87
14, 113287, Note_on_c, 11, 90, 83
14, 113289, Note_on_c, 11, 82, 82
14, 113621, Note_off_c, 11, 94, 64
14, 113621, Note_off_c, 11, 90, 64
14, 113623, Note_off_c, 11, 82, 64
14, 113763, Note_on_c, 11, 94, 92
14, 113764, Note_on_c, 11, 82, 85
14, 113767, Note_on_c, 11, 90, 85
14, 113822, Note_off_c, 11, 94, 64
14, 113823, Note_off_c, 11, 82, 64
14, 113825, Note_off_c, 11, 90, 64
14, 114002, Note_on_c, 11, 82, 82
14, 114003, Note_on_c, 11, 94, 87
14, 114009, Note_on_c, 11, 90, 84
14, 114044, Note_off_c, 11, 82, 64
14, 114045, Note_off_c, 11, 94, 64
14, 114052, Note_off_c, 11, 90, 64
14, 114084, Note_on_c, 11, 90, 84
14, 114087, Note_on_c, 11, 94, 92
14, 114088, Note_on_c, 11, 82, 83
14, 114126, Note_off_c, 11, 90, 64
14, 114130, Note_off_c, 11, 82, 64
14, 114130, Note_off_c, 11, 94, 64
14, 114165, Note_on_c, 11, 90, 79
14, 114168, Note_on_c, 11, 82, 78
14, 114169, Note_on_c, 11, 94, 81
14, 114207, Note_off_c, 11, 90, 64
14, 114210, Note_off_c, 11, 82, 64
14, 114211, Note_off_c, 11, 94, 64
14, 114242, Note_on_c, 11, 82, 81
14, 114246, Note_on_c, 11, 90, 84
14, 114249, Note_on_c, 11, 94, 88
14, 114300, Note_off_c, 11, 82, 64
14, 114304, Note_off_c, 11, 90, 64
14, 114307, Note_off_c, 11, 94, 64
14, 114486, Note_on_c, 11, 94, 92
14, 114488, Note_on_c, 11, 90, 85
14, 114488, Note_on_c, 11, 82, 80
14, 114529, Note_off_c, 11, 94, 64
14, 114532, Note_off_c, 11, 82, 64
14, 114532, Note_off_c, 11, 90, 64
14, 114566, Note_on_c, 11, 94, 91
14, 114567, Note_on_c, 11, 82, 82
14, 114569, Note_on_c, 11, 90, 81
14, 114609, Note_off_c, 11, 94, 64
14, 114610, Note_off_c, 11, 82, 64
14, 114612, Note_off_c, 11, 90, 64
14, 114646, Note_on_c, 11, 82, 77
14, 114648, Note_on_c, 11, 90, 78
14, 114648, Note_on_c, 11, 94, 83
14, 114690, Note_off_c, 11, 82, 64
14, 114690, Note_off_c, 11, 94, 64
14, 114690, Note_off_c, 11, 90, 64
14, 114723, Note_on_c, 11, 78, 89
14, 114725, Note_on_c, 11, 75, 88
14, 114729, Note_on_c, 11, 87, 98
14, 114766, Note_off_c, 11, 78, 64
14, 114767, Note_off_c, 11, 75, 64
14, 114771, Note_off_c, 11, 87, 64
14, 114802, Note_on_c, 11, 78, 83
14, 114809, Note_on_c, 11, 75, 85
14, 114809, Note_on_c, 11, 87, 92
14, 114845, Note_off_c, 11, 78, 64
14, 114851, Note_off_c, 11, 75, 64
14, 114852, Note_off_c, 11, 87, 64
14, 114883, Note_on_c, 11, 78, 79
14, 114885, Note_on_c, 11, 75, 78
14, 114886, Note_on_c, 11, 87, 85
14, 114925, Note_off_c, 11, 78, 64
14, 114927, Note_off_c, 11, 75, 64
14, 114928, Note_off_c, 11, 87, 64
14, 114963, Note_on_c, 11, 75, 84
14, 114966, Note_on_c, 11, 87, 92
14, 114968, Note_on_c, 11, 78, 84
14, 115022, Note_off_c, 11, 75, 64
14, 115025, Note_off_c, 11, 87, 64
14, 115026, Note_off_c, 11, 78, 64
14, 115206, Note_on_c, 11, 70, 82
14, 115208, Note_on_c, 11, 67, 82
14, 115208, Note_on_c, 11, 79, 93
14, 115601, Note_off_c, 11, 70, 64
14, 115603, Note_off_c, 11, 79, 64
14, 115604, Note_off_c, 11, 67, 64
14, 115684, Note_on_c, 11, 66, 91
14, 115687, Note_on_c, 11, 75, 98
14, 115688, Note_on_c, 11, 63, 91
14, 115958, Note_off_c, 11, 66, 64
14, 115962, Note_off_c, 11, 63, 64
14, 115963, Note_off_c, 11, 75, 64
14, 116169, Note_on_c, 11, 67, 88
14, 116227, Note_off_c, 11, 67, 64
14, 116408, Note_on_c, 11, 67, 91
14, 116452, Note_off_c, 11, 67, 64
14, 116483, Note_on_c, 11, 67, 92
14, 116525, Note_off_c, 11, 67, 64
14, 116564, Note_on_c, 11, 67, 82
14, 116606, Note_off_c, 11, 67, 64
14, 116641, Note_on_c, 11, 67, 97
14, 116685, Note_off_c, 11, 67, 64
14, 116729, Note_on_c, 11, 67, 91
14, 116771, Note_off_c, 11, 67, 64
14, 116804, Note_on_c, 11, 67, 84
14, 116846, Note_off_c, 11, 67, 64
14, 116886, Note_on_c, 11, 67, 92
14, 116945, Note_off_c, 11, 67, 64
14, 117576, Control_c, 11, 11, 104
14, 117600, Note_on_c, 11, 74, 109
14, 117603, Note_on_c, 11, 79, 101
14, 117608, Note_on_c, 11, 82, 103
14, 117609, Note_on_c, 11, 91, 109
14, 117643, Note_off_c, 11, 74, 64
14, 117645, Note_off_c, 11, 79, 64
14, 117652, Note_off_c, 11, 82, 64
14, 117653, Note_off_c, 11, 91, 64
14, 117685, Note_on_c, 11, 82, 96
14, 117687, Note_on_c, 11, 74, 93
14, 117687, Note_on_c, 11, 79, 104
14, 117689, Note_on_c, 11, 91, 102
14, 117727, Note_off_c, 11, 82, 64
14, 117730, Note_off_c, 11, 74, 64
14, 117730, Note_off_c, 11, 79, 64
14, 117732, Note_off_c, 11, 91, 64
14, 117757, Note_on_c, 11, 82, 92
14, 117765, Note_on_c, 11, 79, 93
14, 117766, Note_on_c, 11, 74, 88
14, 117768, Note_on_c, 11, 91, 98
14, 117799, Note_off_c, 11, 82, 64
14, 117807, Note_off_c, 11, 79, 64
14, 117810, Note_off_c, 11, 74, 64
14, 117810, Note_off_c, 11, 91, 64
14, 117848, Note_on_c, 11, 91, 103
14, 117849, Note_on_c, 11, 82, 97
14, 117849, Note_on_c, 11, 74, 97
14, 117849, Note_on_c, 11, 79, 102
14, 117930, Note_off_c, 11, 91, 64
14, 117931, Note_off_c, 11, 82, 64
14, 117932, Note_off_c, 11, 74, 64
14, 117932, Note_off_c, 11, 79, 64
14, 118325, Note_on_c, 11, 91, 104
14, 118327, Note_on_c, 11, 82, 95
14, 118328, Note_on_c, 11, 74, 95
14, 118328, Note_on_c, 11, 79, 103
14, 118407, Note_off_c, 11, 91, 64
14, 118409, Note_off_c, 11, 82, 64
14, 118410, Note_off_c, 11, 74, 64
14, 118411, Note_off_c, 11, 79, 64
14, 118807, Note_on_c, 11, 90, 104
14, 118807, Note_on_c, 11, 78, 100
14, 118809, Note_on_c, 11, 75, 95
14, 118890, Note_off_c, 11, 90, 64
14, 118891, Note_off_c, 11, 78, 64
14, 118894, Note_off_c, 11, 75, 64
14, 119286, Note_on_c, 11, 82, 97
14, 119286, Note_on_c, 11, 74, 98
14, 119289, Note_on_c, 11, 79, 103
14, 119289, Note_on_c, 11, 91, 99
14, 119368, Note_off_c, 11, 82, 64
14, 119368, Note_off_c, 11, 74, 64
14, 119371, Note_off_c, 11, 79, 64
14, 119372, Note_off_c, 11, 91, 64
14, 119767, Note_on_c, 11, 75, 96
14, 119769, Note_on_c, 11, 78, 103
14, 119769, Note_on_c, 11, 90, 103
14, 119849, Note_off_c, 11, 75, 64
14, 119851, Note_off_c, 11, 78, 64
14, 119852, Note_off_c, 11, 90, 64
14, 120248, Note_on_c, 11, 79, 99
14, 120249, Note_on_c, 11, 82, 98
14, 120249, Note_on_c, 11, 74, 98
14, 120249, Note_on_c, 11, 91, 101
14, 120290, Note_off_c, 11, 79, 64
14, 120291, Note_off_c, 11, 91, 64
14, 120291, Note_off_c, 11, 82, 64
14, 120292, Note_off_c, 11, 74, 64
14, 120322, Note_on_c, 11, 74, 97
14, 120327, Note_on_c, 11, 82, 97
14, 120328, Note_on_c, 11, 79, 103
14, 120329, Note_on_c, 11, 91, 103
14, 120364, Note_off_c, 11, 74, 64
14, 120371, Note_off_c, 11, 91, 64
14, 120371, Note_off_c, 11, 82, 64
14, 120372, Note_off_c, 11, 79, 64
14, 120398, Note_on_c, 11, 91, 97
14, 120405, Note_on_c, 11, 82, 90
14, 120408, Note_on_c, 11, 74, 88
14, 120408, Note_on_c, 11, 79, 95
14, 120440, Note_off_c, 11, 91, 64
14, 120447, Note_off_c, 11, 82, 64
14, 120450, Note_off_c, 11, 74, 64
14, 120452, Note_off_c, 11, 79, 64
14, 120483, Note_on_c, 11, 74, 104
14, 120486, Note_on_c, 11, 82, 101
14, 120487, Note_on_c, 11, 79, 110
14, 120489, Note_on_c, 11, 91, 110
14, 120525, Note_off_c, 11, 74, 64
14, 120529, Note_off_c, 11, 82, 64
14, 120529, Note_off_c, 11, 79, 64
14, 120532, Note_off_c, 11, 91, 64
14, 120561, Note_on_c, 11, 79, 103
14, 120565, Note_on_c, 11, 74, 94
14, 120568, Note_on_c, 11, 82, 98
14, 120568, Note_on_c, 11, 91, 103
14, 120603, Note_off_c, 11, 79, 64
14, 120608, Note_off_c, 11, 74, 64
14, 120610, Note_off_c, 11, 82, 64
14, 120610, Note_off_c, 11, 91, 64
14, 120645, Note_on_c, 11, 79, 98
14, 120648, Note_on_c, 11, 74, 92
14, 120649, Note_on_c, 11, 82, 86
14, 120649, Note_on_c, 11, 91, 94
14, 120688, Note_off_c, 11, 79, 64
14, 120690, Note_off_c, 11, 74, 64
14, 120692, Note_off_c, 11, 82, 64
14, 120693, Note_off_c, 11, 91, 64
14, 120724, Note_on_c, 11, 74, 97
14, 120725, Note_on_c, 11, 91, 104
14, 120727, Note_on_c, 11, 79, 102
14, 120728, Note_on_c, 11, 82, 95
14, 120783, Note_off_c, 11, 74, 64
14, 120783, Note_off_c, 11, 91, 64
14, 120786, Note_off_c, 11, 79, 64
14, 120786, Note_off_c, 11, 82, 64
14, 121204, Note_on_c, 11, 86, 102
14, 121206, Note_on_c, 11, 82, 98
14, 121206, Note_on_c, 11, 74, 98
14, 121206, Note_on_c, 11, 74, 103
14, 121287, Note_off_c, 11, 86, 64
14, 121288, Note_off_c, 11, 74, 64
14, 121288, Note_off_c, 11, 74, 64
14, 121288, Note_off_c, 11, 82, 64
14, 121687, Note_on_c, 11, 74, 104
14, 121688, Note_on_c, 11, 86, 102
14, 121688, Note_on_c, 11, 74, 93
14, 121689, Note_on_c, 11, 82, 96
14, 121729, Note_off_c, 11, 74, 64
14, 121730, Note_off_c, 11, 86, 64
14, 121730, Note_off_c, 11, 74, 64
14, 121732, Note_off_c, 11, 82, 64
14, 121766, Note_on_c, 11, 86, 102
14, 121766, Note_on_c, 11, 74, 93
14, 121767, Note_on_c, 11, 82, 97
14, 121769, Note_on_c, 11, 74, 104
14, 121808, Note_off_c, 11, 74, 64
14, 121809, Note_off_c, 11, 82, 64
14, 121810, Note_off_c, 11, 86, 64
14, 121811, Note_off_c, 11, 74, 64
14, 121844, Note_on_c, 11, 74, 92
14, 121845, Note_on_c, 11, 82, 92
14, 121847, Note_on_c, 11, 74, 95
14, 121848, Note_on_c, 11, 86, 98
14, 121886, Note_off_c, 11, 74, 64
14, 121887, Note_off_c, 11, 82, 64
14, 121889, Note_off_c, 11, 74, 64
14, 121890, Note_off_c, 11, 86, 64
14, 122163, Note_on_c, 11, 74, 95
14, 122166, Note_on_c, 11, 86, 104
14, 122168, Note_on_c, 11, 74, 104
14, 122169, Note_on_c, 11, 82, 98
14, 122247, Note_off_c, 11, 74, 64
14, 122248, Note_off_c, 11, 86, 64
14, 122250, Note_off_c, 11, 74, 64
14, 122251, Note_off_c, 11, 82, 64
14, 122642, Note_on_c, 11, 74, 97
14, 122646, Note_on_c, 11, 75, 103
14, 122647, Note_on_c, 11, 82, 98
14, 122648, Note_on_c, 11, 87, 104
14, 122725, Note_off_c, 11, 74, 64
14, 122728, Note_off_c, 11, 75, 64
14, 122730, Note_off_c, 11, 82, 64
14, 122731, Note_off_c, 11, 87, 64
14, 123126, Note_on_c, 11, 82, 101
14, 123128, Note_on_c, 11, 70, 104
14, 123128, Note_on_c, 11, 75, 98
14, 123129, Note_on_c, 11, 78, 95
14, 123210, Note_off_c, 11, 82, 64
14, 123210, Note_off_c, 11, 70, 64
14, 123210, Note_off_c, 11, 75, 64
14, 123212, Note_off_c, 11, 78, 64
14, 123598, Note_on_c, 11, 66, 100
14, 123607, Note_on_c, 11, 75, 98
14, 123608, Note_on_c, 11, 78, 104
14, 123609, Note_on_c, 11, 70, 98
14, 123681, Note_off_c, 11, 66, 64
14, 123690, Note_off_c, 11, 78, 64
14, 123691, Note_off_c, 11, 70, 64
14, 123692, Note_off_c, 11, 75, 64
14, 124084, Note_on_c, 11, 82, 98
14, 124085, Note_on_c, 11, 91, 101
14, 124086, Note_on_c, 11, 79, 104
14, 124089, Note_on_c, 11, 74, 96
14, 124126, Note_off_c, 11, 82, 64
14, 124128, Note_off_c, 11, 91, 64
14, 124128, Note_off_c, 11, 79, 64
14, 124133, Note_off_c, 11, 74, 64
14, 124165, Note_on_c, 11, 91, 104
14, 124168, Note_on_c, 11, 82, 96
14, 124169, Note_on_c, 11, 74, 97
14, 124169, Note_on_c, 11, 79, 104
14, 124208, Note_off_c, 11, 91, 64
14, 124210, Note_off_c, 11, 82, 64
14, 124211, Note_off_c, 11, 74, 64
14, 124212, Note_off_c, 11, 79, 64
14, 124246, Note_on_c, 11, 79, 93
14, 124247, Note_on_c, 11, 91, 97
14, 124247, Note_on_c, 11, 74, 92
14, 124249, Note_on_c, 11, 82, 91
14, 124288, Note_off_c, 11, 79, 64
14, 124289, Note_off_c, 11, 91, 64
14, 124289, Note_off_c, 11, 74, 64
14, 124291, Note_off_c, 11, 82, 64
14, 124320, Control_c, 11, 11, 104
14, 124320, Note_on_c, 11, 79, 107
14, 124327, Note_on_c, 11, 82, 101
14, 124329, Note_on_c, 11, 74, 104
14, 124329, Note_on_c, 11, 91, 108
14, 124362, Note_off_c, 11, 79, 64
14, 124370, Note_off_c, 11, 82, 64
14, 124371, Note_off_c, 11, 91, 64
14, 124373, Note_off_c, 11, 74, 64
14, 124405, Note_on_c, 11, 91, 102
14, 124408, Note_on_c, 11, 74, 97
14, 124409, Note_on_c, 11, 82, 97
14, 124409, Note_on_c, 11, 79, 104
14, 124416, Control_c, 11, 11, 108
14, 124447, Note_off_c, 11, 91, 64
14, 124451, Note_off_c, 11, 74, 64
14, 124452, Note_off_c, 11, 82, 64
14, 124452, Note_off_c, 11, 79, 64
14, 124488, Control_c, 11, 11, 111
14, 124488, Note_on_c, 11, 82, 89
14, 124489, Note_on_c, 11, 74, 88
14, 124489, Note_on_c, 11, 79, 98
14, 124489, Note_on_c, 11, 91, 95
14, 124531, Note_off_c, 11, 82, 64
14, 124532, Note_off_c, 11, 74, 64
14, 124532, Note_off_c, 11, 79, 64
14, 124533, Note_off_c, 11, 91, 64
14, 124536, Control_c, 11, 11, 114
14, 124565, Note_on_c, 11, 82, 98
14, 124568, Note_on_c, 11, 91, 101
14, 124569, Note_on_c, 11, 74, 98
14, 124569, Note_on_c, 11, 79, 102
14, 124608, Control_c, 11, 11, 118
14, 124626, Note_off_c, 11, 82, 64
14, 124626, Note_off_c, 11, 91, 64
14, 124627, Note_off_c, 11, 74, 64
14, 124627, Note_off_c, 11, 79, 64
14, 124680, Control_c, 11, 11, 121
14, 124728, Control_c, 11, 11, 124
14, 124776, Control_c, 11, 11, 127
14, 124805, Note_on_c, 11, 82, 102
14, 124807, Note_on_c, 11, 79, 100
14, 124809, Note_on_c, 11, 91, 108
14, 125139, Note_off_c, 11, 82, 64
14, 125141, Note_off_c, 11, 79, 64
14, 125143, Note_off_c, 11, 91, 64
14, 125280, Note_on_c, 11, 79, 98
14, 125282, Note_on_c, 11, 82, 96
14, 125287, Note_on_c, 11, 91, 100
14, 125338, Note_off_c, 11, 79, 64
14, 125340, Note_off_c, 11, 82, 64
14, 125347, Note_off_c, 11, 91, 64
14, 125524, Note_on_c, 11, 82, 97
14, 125525, Note_on_c, 11, 79, 94
14, 125526, Note_on_c, 11, 91, 104
14, 125567, Note_off_c, 11, 82, 64
14, 125567, Note_off_c, 11, 79, 64
14, 125569, Note_off_c, 11, 91, 64
14, 125605, Note_on_c, 11, 91, 104
14, 125605, Note_on_c, 11, 82, 94
14, 125606, Note_on_c, 11, 79, 97
14, 125647, Note_off_c, 11, 91, 64
14, 125647, Note_off_c, 11, 82, 64
14, 125649, Note_off_c, 11, 79, 64
14, 125683, Note_on_c, 11, 82, 90
14, 125684, Note_on_c, 11, 91, 98
14, 125685, Note_on_c, 11, 79, 87
14, 125725, Note_off_c, 11, 82, 64
14, 125726, Note_off_c, 11, 91, 64
14, 125728, Note_off_c, 11, 79, 64
14, 125765, Note_on_c, 11, 82, 98
14, 125767, Note_on_c, 11, 79, 95
14, 125768, Note_on_c, 11, 91, 99
14, 125824, Note_off_c, 11, 82, 64
14, 125825, Note_off_c, 11, 79, 64
14, 125828, Note_off_c, 11, 91, 64
14, 126005, Note_on_c, 11, 82, 98
14, 126007, Note_on_c, 11, 91, 103
14, 126009, Note_on_c, 11, 79, 98
14, 126049, Note_off_c, 11, 82, 64
14, 126050, Note_off_c, 11, 91, 64
14, 126051, Note_off_c, 11, 79, 64
14, 126083, Note_on_c, 11, 82, 97
14, 126086, Note_on_c, 11, 79, 96
14, 126088, Note_on_c, 11, 91, 104
14, 126126, Note_off_c, 11, 82, 64
14, 126128, Note_off_c, 11, 79, 64
14, 126130, Note_off_c, 11, 91, 64
14, 126169, Note_on_c, 11, 79, 92
14, 126169, Note_on_c, 11, 82, 91
14, 126169, Note_on_c, 11, 91, 96
14, 126211, Note_off_c, 11, 79, 64
14, 126211, Note_off_c, 11, 82, 64
14, 126213, Note_off_c, 11, 91, 64
14, 126248, Note_on_c, 11, 91, 109
14, 126248, Note_on_c, 11, 82, 97
14, 126249, Note_on_c, 11, 79, 104
14, 126290, Note_off_c, 11, 91, 64
14, 126290, Note_off_c, 11, 82, 64
14, 126291, Note_off_c, 11, 79, 64
14, 126322, Note_on_c, 11, 79, 98
14, 126324, Note_on_c, 11, 82, 98
14, 126325, Note_on_c, 11, 91, 102
14, 126364, Note_off_c, 11, 79, 64
14, 126366, Note_off_c, 11, 82, 64
14, 126367, Note_off_c, 11, 91, 64
14, 126404, Note_on_c, 11, 82, 93
14, 126406, Note_on_c, 11, 79, 93
14, 126407, Note_on_c, 11, 91, 97
14, 126446, Note_off_c, 11, 82, 64
14, 126449, Note_off_c, 11, 91, 64
14, 126450, Note_off_c, 11, 79, 64
14, 126479, Note_on_c, 11, 79, 98
14, 126488, Note_on_c, 11, 91, 102
14, 126489, Note_on_c, 11, 82, 95
14, 126537, Note_off_c, 11, 79, 64
14, 126546, Note_off_c, 11, 91, 64
14, 126547, Note_off_c, 11, 82, 64
14, 126725, Note_on_c, 11, 88, 104
14, 126727, Note_on_c, 11, 92, 110
14, 126729, Note_on_c, 11, 80, 102
14, 127059, Note_off_c, 11, 88, 64
14, 127061, Note_off_c, 11, 92, 64
14, 127064, Note_off_c, 11, 80, 64
14, 127205, Note_on_c, 11, 88, 98
14, 127209, Note_on_c, 11, 92, 104
14, 127209, Note_on_c, 11, 80, 94
14, 127263, Note_off_c, 11, 88, 64
14, 127267, Note_off_c, 11, 80, 64
14, 127267, Note_off_c, 11, 92, 64
14, 127446, Note_on_c, 11, 88, 98
14, 127447, Note_on_c, 11, 80, 98
14, 127449, Note_on_c, 11, 92, 103
14, 127490, Note_off_c, 11, 88, 64
14, 127490, Note_off_c, 11, 80, 64
14, 127491, Note_off_c, 11, 92, 64
14, 127529, Note_on_c, 11, 92, 99
14, 127529, Note_on_c, 11, 88, 97
14, 127529, Note_on_c, 11, 80, 95
14, 127571, Note_off_c, 11, 80, 64
14, 127572, Note_off_c, 11, 92, 64
14, 127572, Note_off_c, 11, 88, 64
14, 127604, Note_on_c, 11, 92, 96
14, 127607, Note_on_c, 11, 88, 92
14, 127609, Note_on_c, 11, 80, 92
14, 127646, Note_off_c, 11, 92, 64
14, 127650, Note_off_c, 11, 88, 64
14, 127651, Note_off_c, 11, 80, 64
14, 127685, Note_on_c, 11, 92, 101
14, 127687, Note_on_c, 11, 80, 97
14, 127688, Note_on_c, 11, 88, 97
14, 127743, Note_off_c, 11, 92, 64
14, 127746, Note_off_c, 11, 80, 64
14, 127747, Note_off_c, 11, 88, 64
14, 127925, Note_on_c, 11, 92, 103
14, 127926, Note_on_c, 11, 88, 98
14, 127926, Note_on_c, 11, 80, 97
14, 127967, Note_off_c, 11, 92, 64
14, 127968, Note_off_c, 11, 80, 64
14, 127968, Note_off_c, 11, 88, 64
14, 128005, Note_on_c, 11, 92, 102
14, 128008, Note_on_c, 11, 88, 98
14, 128009, Note_on_c, 11, 80, 98
14, 128047, Note_off_c, 11, 92, 64
14, 128050, Note_off_c, 11, 88, 64
14, 128051, Note_off_c, 11, 80, 64
14, 128086, Note_on_c, 11, 92, 98
14, 128087, Note_on_c, 11, 88, 92
14, 128087, Note_on_c, 11, 80, 89
14, 128128, Note_off_c, 11, 92, 64
14, 128129, Note_off_c, 11, 80, 64
14, 128132, Note_off_c, 11, 88, 64
14, 128165, Note_on_c, 11, 80, 103
14, 128168, Note_on_c, 11, 92, 108
14, 128169, Note_on_c, 11, 85, 101
14, 128207, Note_off_c, 11, 80, 64
14, 128211, Note_off_c, 11, 85, 64
14, 128211, Note_off_c, 11, 92, 64
14, 128242, Note_on_c, 11, 80, 91
14, 128247, Note_on_c, 11, 85, 96
14, 128248, Note_on_c, 11, 92, 97
14, 128284, Note_off_c, 11, 80, 64
14, 128289, Note_off_c, 11, 85, 64
14, 128291, Note_off_c, 11, 92, 64
14, 128319, Note_on_c, 11, 85, 92
14, 128327, Note_on_c, 11, 80, 93
14, 128329, Note_on_c, 11, 92, 98
14, 128362, Note_off_c, 11, 85, 64
14, 128369, Note_off_c, 11, 80, 64
14, 128372, Note_off_c, 11, 92, 64
14, 128407, Note_on_c, 11, 92, 100
14, 128408, Note_on_c, 11, 80, 97
14, 128409, Note_on_c, 11, 85, 98
14, 128466, Note_off_c, 11, 92, 64
14, 128468, Note_off_c, 11, 80, 64
14, 128470, Note_off_c, 11, 85, 64
14, 128646, Note_on_c, 11, 94, 108
14, 128646, Note_on_c, 11, 82, 103
14, 128648, Note_on_c, 11, 90, 103
14, 128981, Note_off_c, 11, 94, 64
14, 128983, Note_off_c, 11, 90, 64
14, 128983, Note_off_c, 11, 82, 64
14, 129124, Note_on_c, 11, 94, 103
14, 129127, Note_on_c, 11, 90, 97
14, 129129, Note_on_c, 11, 82, 95
14, 129182, Note_off_c, 11, 94, 64
14, 129185, Note_off_c, 11, 90, 64
14, 129187, Note_off_c, 11, 82, 64
14, 129360, Note_on_c, 11, 90, 95
14, 129367, Note_on_c, 11, 94, 104
14, 129369, Note_on_c, 11, 82, 97
14, 129402, Note_off_c, 11, 90, 64
14, 129411, Note_off_c, 11, 82, 64
14, 129411, Note_off_c, 11, 94, 64
14, 129438, Note_on_c, 11, 82, 98
14, 129447, Note_on_c, 11, 90, 97
14, 129449, Note_on_c, 11, 94, 102
14, 129481, Note_off_c, 11, 82, 64
14, 129490, Note_off_c, 11, 90, 64
14, 129491, Note_off_c, 11, 94, 64
14, 129523, Note_on_c, 11, 82, 89
14, 129525, Note_on_c, 11, 94, 97
14, 129527, Note_on_c, 11, 90, 91
14, 129566, Note_off_c, 11, 82, 64
14, 129568, Note_off_c, 11, 94, 64
14, 129570, Note_off_c, 11, 90, 64
14, 129606, Note_on_c, 11, 94, 104
14, 129607, Note_on_c, 11, 90, 98
14, 129608, Note_on_c, 11, 82, 94
14, 129664, Note_off_c, 11, 94, 64
14, 129666, Note_off_c, 11, 82, 64
14, 129667, Note_off_c, 11, 90, 64
14, 129847, Note_on_c, 11, 82, 98
14, 129848, Note_on_c, 11, 90, 98
14, 129849, Note_on_c, 11, 94, 103
14, 129890, Note_off_c, 11, 90, 64
14, 129891, Note_off_c, 11, 82, 64
14, 129892, Note_off_c, 11, 94, 64
14, 129925, Note_on_c, 11, 90, 97
14, 129928, Note_on_c, 11, 94, 99
14, 129929, Note_on_c, 11, 82, 98
14, 129967, Note_off_c, 11, 90, 64
14, 129970, Note_off_c, 11, 94, 64
14, 129971, Note_off_c, 11, 82, 64
14, 130006, Note_on_c, 11, 90, 91
14, 130007, Note_on_c, 11, 82, 89
14, 130008, Note_on_c, 11, 94, 97
14, 130049, Note_off_c, 11, 90, 64
14, 130049, Note_off_c, 11, 82, 64
14, 130050, Note_off_c, 11, 94, 64
14, 130083, Note_on_c, 11, 87, 107
14, 130087, Note_on_c, 11, 75, 104
14, 130088, Note_on_c, 11, 78, 104
14, 130125, Note_off_c, 11, 87, 64
14, 130131, Note_off_c, 11, 75, 64
14, 130132, Note_off_c, 11, 78, 64
14, 130168, Note_on_c, 11, 75, 94
14, 130168, Note_on_c, 11, 78, 93
14, 130168, Note_on_c, 11, 87, 100
14, 130210, Note_off_c, 11, 75, 64
14, 130210, Note_off_c, 11, 87, 64
14, 130211, Note_off_c, 11, 78, 64
14, 130240, Note_on_c, 11, 87, 94
14, 130247, Note_on_c, 11, 78, 90
14, 130249, Note_on_c, 11, 75, 90
14, 130283, Note_off_c, 11, 87, 64
14, 130289, Note_off_c, 11, 78, 64
14, 130291, Note_off_c, 11, 75, 64
14, 130323, Note_on_c, 11, 78, 93
14, 130324, Note_on_c, 11, 75, 96
14, 130329, Note_on_c, 11, 87, 104
14, 130381, Note_off_c, 11, 78, 64
14, 130382, Note_off_c, 11, 75, 64
14, 130388, Note_off_c, 11, 87, 64
14, 130562, Note_on_c, 11, 67, 85
14, 130565, Note_on_c, 11, 70, 84
14, 130566, Note_on_c, 11, 79, 93
14, 130958, Note_off_c, 11, 67, 64
14, 130959, Note_off_c, 11, 70, 64
14, 130961, Note_off_c, 11, 79, 64
14, 131043, Note_on_c, 11, 66, 93
14, 131044, Note_on_c, 11, 75, 96
14, 131048, Note_on_c, 11, 63, 90
14, 131318, Note_off_c, 11, 66, 64
14, 131318, Note_off_c, 11, 75, 64
14, 131322, Note_off_c, 11, 63, 64
14, 131528, Note_on_c, 11, 67, 100
14, 131586, Note_off_c, 11, 67, 64
14, 131766, Note_on_c, 11, 67, 102
14, 131808, Note_off_c, 11, 67, 64
14, 131849, Note_on_c, 11, 67, 103
14, 131891, Note_off_c, 11, 67, 64
14, 131928, Note_on_c, 11, 67, 94
14, 131971, Note_off_c, 11, 67, 64
14, 132009, Note_on_c, 11, 67, 110
14, 132052, Note_off_c, 11, 67, 64
14, 132084, Note_on_c, 11, 67, 104
14, 132127, Note_off_c, 11, 67, 64
14, 132166, Note_on_c, 11, 67, 98
14, 132208, Note_off_c, 11, 67, 64
14, 132240, Control_c, 11, 11, 127
14, 132249, Note_on_c, 11, 67, 104
14, 132288, Control_c, 11, 11, 124
14, 132307, Note_off_c, 11, 67, 64
14, 132336, Control_c, 11, 11, 121
14, 132408, Control_c, 11, 11, 118
14, 132456, Control_c, 11, 11, 114
14, 132487, Note_on_c, 11, 55, 96
14, 132822, Note_off_c, 11, 55, 64
14, 132967, Note_on_c, 11, 55, 97
14, 133027, Note_off_c, 11, 55, 64
14, 133203, Note_on_c, 11, 55, 97
14, 133246, Note_off_c, 11, 55, 64
14, 133285, Note_on_c, 11, 55, 96
14, 133327, Note_off_c, 11, 55, 64
14, 133368, Note_on_c, 11, 55, 92
14, 133412, Note_off_c, 11, 55, 64
14, 133444, Note_on_c, 11, 55, 96
14, 133503, Note_off_c, 11, 55, 64
14, 133689, Note_on_c, 11, 55, 97
14, 133731, Note_off_c, 11, 55, 64
14, 133767, Note_on_c, 11, 55, 94
14, 133810, Note_off_c, 11, 55, 64
14, 133847, Note_on_c, 11, 55, 92
14, 133889, Note_off_c, 11, 55, 64
14, 133927, Note_on_c, 11, 63, 104
14, 133929, Note_on_c, 11, 58, 97
14, 133970, Note_off_c, 11, 63, 64
14, 133971, Note_off_c, 11, 58, 64
14, 134005, Note_on_c, 11, 58, 90
14, 134006, Note_on_c, 11, 63, 98
14, 134047, Note_off_c, 11, 58, 64
14, 134048, Note_off_c, 11, 63, 64
14, 134082, Note_on_c, 11, 58, 91
14, 134088, Note_on_c, 11, 63, 98
14, 134124, Note_off_c, 11, 58, 64
14, 134130, Note_off_c, 11, 63, 64
14, 134165, Note_on_c, 11, 58, 91
14, 134168, Note_on_c, 11, 63, 98
14, 134223, Note_off_c, 11, 58, 64
14, 134226, Note_off_c, 11, 63, 64
14, 134405, Note_on_c, 11, 55, 93
14, 134740, Note_off_c, 11, 55, 64
14, 134889, Note_on_c, 11, 55, 96
14, 134949, Note_off_c, 11, 55, 64
14, 135128, Note_on_c, 11, 55, 98
14, 135171, Note_off_c, 11, 55, 64
14, 135209, Note_on_c, 11, 55, 97
14, 135251, Note_off_c, 11, 55, 64
14, 135281, Note_on_c, 11, 55, 87
14, 135323, Note_off_c, 11, 55, 64
14, 135363, Note_on_c, 11, 55, 96
14, 135421, Note_off_c, 11, 55, 64
14, 135607, Note_on_c, 11, 55, 94
14, 135650, Note_off_c, 11, 55, 64
14, 135685, Note_on_c, 11, 55, 98
14, 135727, Note_off_c, 11, 55, 64
14, 135765, Note_on_c, 11, 55, 91
14, 135807, Note_off_c, 11, 55, 64
14, 135840, Control_c, 11, 11, 114
14, 135846, Note_on_c, 11, 58, 95
14, 135848, Note_on_c, 11, 63, 101
14, 135888, Note_off_c, 11, 58, 64
14, 135890, Note_off_c, 11, 63, 64
14, 135923, Note_on_c, 11, 63, 96
14, 135928, Note_on_c, 11, 58, 92
14, 135960, Control_c, 11, 11, 116
14, 135967, Note_off_c, 11, 63, 64
14, 135971, Note_off_c, 11, 58, 64
14, 136006, Note_on_c, 11, 58, 92
14, 136008, Note_on_c, 11, 63, 96
14, 136032, Control_c, 11, 11, 119
14, 136048, Note_off_c, 11, 58, 64
14, 136050, Note_off_c, 11, 63, 64
14, 136088, Note_on_c, 11, 63, 97
14, 136088, Note_on_c, 11, 58, 92
14, 136146, Note_off_c, 11, 63, 64
14, 136147, Note_off_c, 11, 58, 64
14, 136152, Control_c, 11, 11, 121
14, 136224, Control_c, 11, 11, 124
14, 136296, Control_c, 11, 11, 127
14, 136327, Note_on_c, 11, 55, 97
14, 136662, Note_off_c, 11, 55, 64
14, 136808, Note_on_c, 11, 55, 95
14, 136866, Note_off_c, 11, 55, 64
14, 137044, Note_on_c, 11, 55, 98
14, 137086, Note_off_c, 11, 55, 64
14, 137128, Note_on_c, 11, 55, 98
14, 137171, Note_off_c, 11, 55, 64
14, 137209, Note_on_c, 11, 55, 89
14, 137251, Note_off_c, 11, 55, 64
14, 137286, Note_on_c, 11, 55, 98
14, 137344, Note_off_c, 11, 55, 64
14, 137526, Note_on_c, 11, 55, 98
14, 137569, Note_off_c, 11, 55, 64
14, 137608, Note_on_c, 11, 55, 98
14, 137653, Note_off_c, 11, 55, 64
14, 137682, Note_on_c, 11, 55, 92
14, 137724, Note_off_c, 11, 55, 64
14, 137762, Note_on_c, 11, 58, 98
14, 137764, Note_on_c, 11, 63, 100
14, 137804, Note_off_c, 11, 58, 64
14, 137806, Note_off_c, 11, 63, 64
14, 137843, Note_on_c, 11, 63, 98
14, 137844, Note_on_c, 11, 58, 92
14, 137887, Note_off_c, 11, 63, 64
14, 137887, Note_off_c, 11, 58, 64
14, 137924, Note_on_c, 11, 58, 89
14, 137929, Note_on_c, 11, 63, 98
14, 137968, Note_off_c, 11, 58, 64
14, 137972, Note_off_c, 11, 63, 64
14, 138004, Note_on_c, 11, 63, 98
14, 138007, Note_on_c, 11, 58, 87
14, 138063, Note_off_c, 11, 63, 64
14, 138065, Note_off_c, 11, 58, 64
14, 138249, Note_on_c, 11, 55, 94
14, 138584, Note_off_c, 11, 55, 64
14, 138726, Note_on_c, 11, 55, 97
14, 138785, Note_off_c, 11, 55, 64
14, 138968, Note_on_c, 11, 55, 97
14, 139010, Note_off_c, 11, 55, 64
14, 139048, Note_on_c, 11, 55, 97
14, 139091, Note_off_c, 11, 55, 64
14, 139128, Note_on_c, 11, 55, 92
14, 139170, Note_off_c, 11, 55, 64
14, 139198, Note_on_c, 11, 55, 93
14, 139256, Note_off_c, 11, 55, 64
14, 139449, Note_on_c, 11, 55, 98
14, 139491, Note_off_c, 11, 55, 64
14, 139528, Note_on_c, 11, 55, 96
14, 139570, Note_off_c, 11, 55, 64
14, 139602, Note_on_c, 11, 55, 92
14, 139644, Note_off_c, 11, 55, 64
14, 139686, Note_on_c, 11, 63, 102
14, 139689, Note_on_c, 11, 58, 98
14, 139728, Note_off_c, 11, 63, 64
14, 139732, Note_off_c, 11, 58, 64
14, 139768, Note_on_c, 11, 58, 92
14, 139769, Note_on_c, 11, 63, 96
14, 139811, Note_off_c, 11, 58, 64
14, 139812, Note_off_c, 11, 63, 64
14, 139843, Note_on_c, 11, 63, 98
14, 139848, Note_on_c, 11, 58, 92
14, 139885, Note_off_c, 11, 63, 64
14, 139890, Note_off_c, 11, 58, 64
14, 139927, Note_on_c, 11, 58, 88
14, 139928, Note_on_c, 11, 63, 98
14, 139985, Note_off_c, 11, 58, 64
14, 139986, Note_off_c, 11, 63, 64
14, 140167, Note_on_c, 11, 55, 103
14, 140239, Note_off_c, 11, 55, 64
14, 144005, Note_on_c, 11, 91, 99
14, 144007, Note_on_c, 11, 79, 103
14, 144124, Note_off_c, 11, 91, 64
14, 144125, Note_off_c, 11, 79, 64
14, 144484, Note_on_c, 11, 79, 104
14, 144488, Note_on_c, 11, 91, 101
14, 144542, Note_off_c, 11, 79, 64
14, 144546, Note_off_c, 11, 91, 64
14, 144727, Note_on_c, 11, 91, 104
14, 144729, Note_on_c, 11, 79, 103
14, 144769, Note_off_c, 11, 91, 64
14, 144773, Note_off_c, 11, 79, 64
14, 144805, Note_on_c, 11, 91, 102
14, 144805, Note_on_c, 11, 79, 102
14, 144847, Note_off_c, 11, 79, 64
14, 144848, Note_off_c, 11, 91, 64
14, 144886, Note_on_c, 11, 91, 96
14, 144889, Note_on_c, 11, 79, 92
14, 144929, Note_off_c, 11, 91, 64
14, 144933, Note_off_c, 11, 79, 64
14, 144966, Note_on_c, 11, 91, 103
14, 144966, Note_on_c, 11, 79, 103
14, 145024, Note_off_c, 11, 91, 64
14, 145024, Note_off_c, 11, 79, 64
14, 145208, Note_on_c, 11, 91, 103
14, 145208, Note_on_c, 11, 79, 101
14, 145250, Note_off_c, 11, 91, 64
14, 145252, Note_off_c, 11, 79, 64
14, 145287, Note_on_c, 11, 91, 102
14, 145288, Note_on_c, 11, 79, 102
14, 145329, Note_off_c, 11, 91, 64
14, 145331, Note_off_c, 11, 79, 64
14, 145363, Note_on_c, 11, 79, 98
14, 145367, Note_on_c, 11, 91, 98
14, 145406, Note_off_c, 11, 79, 64
14, 145412, Note_off_c, 11, 91, 64
14, 145443, Note_on_c, 11, 79, 115
14, 145445, Note_on_c, 11, 91, 117
14, 145485, Note_off_c, 11, 79, 64
14, 145487, Note_off_c, 11, 91, 64
14, 145528, Note_on_c, 11, 79, 100
14, 145529, Note_on_c, 11, 91, 104
14, 145570, Note_off_c, 11, 79, 64
14, 145571, Note_off_c, 11, 91, 64
14, 145608, Note_on_c, 11, 91, 97
14, 145609, Note_on_c, 11, 79, 97
14, 145651, Note_off_c, 11, 91, 64
14, 145651, Note_off_c, 11, 79, 64
14, 145679, Note_on_c, 11, 79, 104
14, 145680, Note_on_c, 11, 91, 101
14, 145737, Note_off_c, 11, 79, 64
14, 145738, Note_off_c, 11, 91, 64
14, 145928, Note_on_c, 11, 91, 104
14, 145929, Note_on_c, 11, 79, 103
14, 146047, Note_off_c, 11, 91, 64
14, 146047, Note_off_c, 11, 79, 64
14, 146407, Note_on_c, 11, 91, 103
14, 146408, Note_on_c, 11, 79, 102
14, 146465, Note_off_c, 11, 91, 64
14, 146466, Note_off_c, 11, 79, 64
14, 146643, Note_on_c, 11, 79, 102
14, 146649, Note_on_c, 11, 91, 104
14, 146685, Note_off_c, 11, 79, 64
14, 146693, Note_off_c, 11, 91, 64
14, 146727, Note_on_c, 11, 79, 102
14, 146729, Note_on_c, 11, 91, 104
14, 146770, Note_off_c, 11, 79, 64
14, 146772, Note_off_c, 11, 91, 64
14, 146808, Note_on_c, 11, 79, 98
14, 146808, Note_on_c, 11, 91, 97
14, 146850, Note_off_c, 11, 79, 64
14, 146850, Note_off_c, 11, 91, 64
14, 146884, Note_on_c, 11, 79, 102
14, 146887, Note_on_c, 11, 91, 102
14, 146943, Note_off_c, 11, 79, 64
14, 146945, Note_off_c, 11, 91, 64
14, 147122, Note_on_c, 11, 91, 103
14, 147125, Note_on_c, 11, 79, 103
14, 147164, Note_off_c, 11, 91, 64
14, 147167, Note_off_c, 11, 79, 64
14, 147208, Note_on_c, 11, 79, 100
14, 147209, Note_on_c, 11, 91, 98
14, 147250, Note_off_c, 11, 79, 64
14, 147251, Note_off_c, 11, 91, 64
14, 147288, Note_on_c, 11, 79, 98
14, 147289, Note_on_c, 11, 91, 98
14, 147330, Note_off_c, 11, 79, 64
14, 147331, Note_off_c, 11, 91, 64
14, 147360, Note_on_c, 11, 91, 118
14, 147368, Note_on_c, 11, 79, 119
14, 147404, Note_off_c, 11, 91, 64
14, 147410, Note_off_c, 11, 79, 64
14, 147446, Note_on_c, 11, 79, 104
14, 147446, Note_on_c, 11, 91, 104
14, 147488, Note_off_c, 11, 79, 64
14, 147490, Note_off_c, 11, 91, 64
14, 147529, Note_on_c, 11, 79, 98
14, 147529, Note_on_c, 11, 91, 97
14, 147571, Note_off_c, 11, 79, 64
14, 147571, Note_off_c, 11, 91, 64
14, 147609, Note_on_c, 11, 79, 103
14, 147609, Note_on_c, 11, 91, 102
14, 147667, Note_off_c, 11, 79, 64
14, 147667, Note_off_c, 11, 91, 64
14, 147846, Note_on_c, 11, 79, 110
14, 147847, Note_on_c, 11, 91, 110
14, 147964, Note_off_c, 11, 79, 64
14, 147965, Note_off_c, 11, 91, 64
14, 148089, Note_on_c, 11, 62, 104
14, 148143, Note_off_c, 11, 62, 64
14, 148164, Note_on_c, 11, 60, 99
14, 148218, Note_off_c, 11, 60, 64
14, 148245, Note_on_c, 11, 62, 98
14, 148301, Note_off_c, 11, 62, 64
14, 148329, Note_on_c, 11, 63, 100
14, 148384, Note_off_c, 11, 63, 64
14, 148409, Note_on_c, 11, 62, 104
14, 148465, Note_off_c, 11, 62, 64
14, 148489, Note_on_c, 11, 63, 98
14, 148543, Note_off_c, 11, 63, 64
14, 148561, Note_on_c, 11, 65, 101
14, 148615, Note_off_c, 11, 65, 64
14, 148645, Note_on_c, 11, 63, 102
14, 148700, Note_off_c, 11, 63, 64
14, 148727, Note_on_c, 11, 65, 97
14, 148782, Note_off_c, 11, 65, 64
14, 148809, Note_on_c, 11, 67, 101
14, 148864, Note_off_c, 11, 67, 64
14, 148884, Note_on_c, 11, 65, 103
14, 148939, Note_off_c, 11, 65, 64
14, 148969, Note_on_c, 11, 67, 98
14, 149023, Note_off_c, 11, 67, 64
14, 149049, Note_on_c, 11, 68, 104
14, 149103, Note_off_c, 11, 68, 64
14, 149128, Note_on_c, 11, 67, 104
14, 149182, Note_off_c, 11, 67, 64
14, 149202, Note_on_c, 11, 68, 97
14, 149258, Note_off_c, 11, 68, 64
14, 149285, Note_on_c, 11, 70, 104
14, 149339, Note_off_c, 11, 70, 64
14, 149369, Note_on_c, 11, 68, 103
14, 149423, Note_off_c, 11, 68, 64
14, 149438, Note_on_c, 11, 70, 92
14, 149494, Note_off_c, 11, 70, 64
14, 149528, Note_on_c, 11, 72, 104
14, 149583, Note_off_c, 11, 72, 64
14, 149606, Note_on_c, 11, 70, 104
14, 149661, Note_off_c, 11, 70, 64
14, 149685, Note_on_c, 11, 72, 97
14, 149740, Note_off_c, 11, 72, 64
14, 149769, Note_on_c, 11, 74, 99
14, 149826, Note_off_c, 11, 74, 64
14, 149848, Note_on_c, 11, 65, 101
14, 149902, Note_off_c, 11, 65, 64
14, 149928, Note_on_c, 11, 67, 98
14, 149982, Note_off_c, 11, 67, 64
14, 150005, Note_on_c, 11, 68, 104
14, 150059, Note_off_c, 11, 68, 64
14, 150087, Note_on_c, 11, 70, 103
14, 150142, Note_off_c, 11, 70, 64
14, 150169, Note_on_c, 11, 72, 97
14, 150225, Note_off_c, 11, 72, 64
14, 150244, Note_on_c, 11, 74, 102
14, 150244, Note_on_c, 11, 62, 103
14, 150298, Note_off_c, 11, 74, 64
14, 150298, Note_off_c, 11, 62, 64
14, 150328, Note_on_c, 11, 75, 104
14, 150329, Note_on_c, 11, 63, 102
14, 150382, Note_off_c, 11, 75, 64
14, 150384, Note_off_c, 11, 63, 64
14, 150405, Note_on_c, 11, 77, 96
14, 150409, Note_on_c, 11, 65, 97
14, 150459, Note_off_c, 11, 77, 64
14, 150464, Note_off_c, 11, 65, 64
14, 150489, Note_on_c, 11, 79, 99
14, 150489, Note_on_c, 11, 67, 102
14, 150543, Note_off_c, 11, 79, 64
14, 150544, Note_off_c, 11, 67, 64
14, 150566, Note_on_c, 11, 80, 103
14, 150569, Note_on_c, 11, 68, 104
14, 150621, Note_off_c, 11, 80, 64
14, 150624, Note_off_c, 11, 68, 64
14, 150648, Note_on_c, 11, 82, 96
14, 150649, Note_on_c, 11, 70, 97
14, 150702, Note_off_c, 11, 82, 64
14, 150705, Note_off_c, 11, 70, 64
14, 150729, Note_on_c, 11, 84, 103
14, 150729, Note_on_c, 11, 72, 103
14, 150783, Note_off_c, 11, 84, 64
14, 150783, Note_off_c, 11, 72, 64
14, 150805, Note_on_c, 11, 60, 103
14, 150807, Note_on_c, 11, 72, 103
14, 150860, Note_off_c, 11, 60, 64
14, 150861, Note_off_c, 11, 72, 64
14, 150886, Note_on_c, 11, 74, 94
14, 150889, Note_on_c, 11, 62, 93
14, 150941, Note_off_c, 11, 74, 64
14, 150944, Note_off_c, 11, 62, 64
14, 150966, Note_on_c, 11, 75, 103
14, 150969, Note_on_c, 11, 63, 102
14, 151020, Note_off_c, 11, 75, 64
14, 151025, Note_off_c, 11, 63, 64
14, 151042, Note_on_c, 11, 65, 104
14, 151046, Note_on_c, 11, 77, 103
14, 151097, Note_off_c, 11, 65, 64
14, 151102, Note_off_c, 11, 77, 64
14, 151125, Note_on_c, 11, 79, 96
14, 151129, Note_on_c, 11, 67, 98
14, 151179, Note_off_c, 11, 79, 64
14, 151183, Note_off_c, 11, 67, 64
14, 151207, Note_on_c, 11, 80, 99
14, 151209, Note_on_c, 11, 68, 102
14, 151261, Note_off_c, 11, 80, 64
14, 151265, Note_off_c, 11, 68, 64
14, 151287, Note_on_c, 11, 82, 104
14, 151287, Note_on_c, 11, 70, 104
14, 151341, Note_off_c, 11, 70, 64
14, 151342, Note_off_c, 11, 82, 64
14, 151366, Note_on_c, 11, 84, 94
14, 151366, Note_on_c, 11, 72, 96
14, 151420, Note_off_c, 11, 84, 64
14, 151421, Note_off_c, 11, 72, 64
14, 151449, Note_on_c, 11, 86, 102
14, 151449, Note_on_c, 11, 74, 103
14, 151503, Note_off_c, 11, 86, 64
14, 151503, Note_off_c, 11, 74, 64
14, 151522, Note_on_c, 11, 75, 100
14, 151526, Note_on_c, 11, 87, 100
14, 151576, Note_off_c, 11, 75, 64
14, 151582, Note_off_c, 11, 87, 64
14, 151604, Note_on_c, 11, 77, 97
14, 151609, Note_on_c, 11, 89, 97
14, 151658, Note_off_c, 11, 77, 64
14, 151663, Note_off_c, 11, 89, 64
14, 151685, Note_on_c, 11, 79, 110
14, 151688, Note_on_c, 11, 91, 116
14, 151803, Note_off_c, 11, 79, 64
14, 151806, Note_off_c, 11, 91, 64
14, 152166, Note_on_c, 11, 91, 108
14, 152168, Note_on_c, 11, 79, 102
14, 152225, Note_off_c, 11, 91, 64
14, 152226, Note_off_c, 11, 79, 64
14, 152405, Note_on_c, 11, 91, 110
14, 152409, Note_on_c, 11, 79, 100
14, 152447, Note_off_c, 11, 91, 64
14, 152452, Note_off_c, 11, 79, 64
14, 152489, Note_on_c, 11, 79, 102
14, 152489, Note_on_c, 11, 91, 110
14, 152531, Note_off_c, 11, 79, 64
14, 152531, Note_off_c, 11, 91, 64
14, 152567, Note_on_c, 11, 91, 104
14, 152569, Note_on_c, 11, 79, 98
14, 152610, Note_off_c, 11, 91, 64
14, 152611, Note_off_c, 11, 79, 64
14, 152646, Note_on_c, 11, 87, 110
14, 152649, Note_on_c, 11, 75, 103
14, 152688, Note_off_c, 11, 87, 64
14, 152691, Note_off_c, 11, 75, 64
14, 152725, Note_on_c, 11, 75, 103
14, 152726, Note_on_c, 11, 87, 109
14, 152767, Note_off_c, 11, 75, 64
14, 152769, Note_off_c, 11, 87, 64
14, 152806, Note_on_c, 11, 75, 95
14, 152807, Note_on_c, 11, 87, 103
14, 152849, Note_off_c, 11, 75, 64
14, 152849, Note_off_c, 11, 87, 64
14, 152885, Note_on_c, 11, 91, 109
14, 152889, Note_on_c, 11, 79, 104
14, 152943, Note_off_c, 11, 91, 64
14, 152948, Note_off_c, 11, 79, 64
14, 153366, Note_on_c, 11, 75, 104
14, 153369, Note_on_c, 11, 87, 108
14, 153409, Note_off_c, 11, 75, 64
14, 153411, Note_off_c, 11, 87, 64
14, 153446, Note_on_c, 11, 87, 110
14, 153448, Note_on_c, 11, 75, 103
14, 153488, Note_off_c, 11, 87, 64
14, 153490, Note_off_c, 11, 75, 64
14, 153527, Note_on_c, 11, 75, 97
14, 153529, Note_on_c, 11, 87, 104
14, 153570, Note_off_c, 11, 75, 64
14, 153572, Note_off_c, 11, 87, 64
14, 153605, Note_on_c, 11, 87, 109
14, 153607, Note_on_c, 11, 75, 104
14, 153648, Note_off_c, 11, 87, 64
14, 153649, Note_off_c, 11, 75, 64
14, 153688, Note_on_c, 11, 75, 102
14, 153688, Note_on_c, 11, 87, 106
14, 153730, Note_off_c, 11, 75, 64
14, 153731, Note_off_c, 11, 87, 64
14, 153759, Note_on_c, 11, 87, 105
14, 153769, Note_on_c, 11, 75, 96
14, 153801, Note_off_c, 11, 87, 64
14, 153811, Note_off_c, 11, 75, 64
14, 153844, Note_on_c, 11, 91, 109
14, 153846, Note_on_c, 11, 79, 101
14, 153902, Note_off_c, 11, 91, 64
14, 153904, Note_off_c, 11, 79, 64
14, 154327, Note_on_c, 11, 75, 96
14, 154328, Note_on_c, 11, 87, 107
14, 154369, Note_off_c, 11, 75, 64
14, 154370, Note_off_c, 11, 87, 64
14, 154408, Note_on_c, 11, 75, 103
14, 154409, Note_on_c, 11, 87, 109
14, 154451, Note_off_c, 11, 75, 64
14, 154452, Note_off_c, 11, 87, 64
14, 154488, Note_on_c, 11, 75, 95
14, 154489, Note_on_c, 11, 87, 103
14, 154530, Note_off_c, 11, 75, 64
14, 154531, Note_off_c, 11, 87, 64
14, 154568, Note_on_c, 11, 79, 104
14, 154568, Note_on_c, 11, 91, 110
14, 154626, Note_off_c, 11, 79, 64
14, 154628, Note_off_c, 11, 91, 64
14, 154806, Note_on_c, 11, 55, 108
14, 154848, Note_off_c, 11, 55, 64
14, 154888, Note_on_c, 11, 55, 109
14, 154930, Note_off_c, 11, 55, 64
14, 154966, Note_on_c, 11, 55, 101
14, 155009, Note_off_c, 11, 55, 64
14, 155047, Note_on_c, 11, 55, 116
14, 155107, Note_off_c, 11, 55, 64
14, 159360, Control_c, 11, 123, 0
14, 159360, End_track
15, 0, Start_track
15, 0, Text_t, "Violas"
15, 0, Program_c, 13, 48
15, 0, Control_c, 13, 10, 81
15, 0, Control_c, 13, 93, 5
15, 0, Control_c, 13, 7, 100
15, 0, Control_c, 13, 91, 127
15, 0, Control_c, 13, 11, 127
15, 0, Control_c, 13, 123, 0
15, 7207, Note_on_c, 13, 54, 97
15, 7249, Note_off_c, 13, 54, 64
15, 7288, Note_on_c, 13, 54, 90
15, 7330, Note_off_c, 13, 54, 64
15, 7367, Note_on_c, 13, 54, 88
15, 7409, Note_off_c, 13, 54, 64
15, 7449, Note_on_c, 13, 54, 88
15, 7508, Note_off_c, 13, 54, 64
15, 9129, Note_on_c, 13, 54, 95
15, 9172, Note_off_c, 13, 54, 64
15, 9206, Note_on_c, 13, 54, 92
15, 9248, Note_off_c, 13, 54, 64
15, 9282, Note_on_c, 13, 54, 92
15, 9324, Note_off_c, 13, 54, 64
15, 9367, Note_on_c, 13, 54, 92
15, 9425, Note_off_c, 13, 54, 64
15, 12720, Control_c, 13, 11, 127
15, 12816, Control_c, 13, 11, 124
15, 12888, Control_c, 13, 11, 121
15, 13008, Control_c, 13, 11, 118
15, 13080, Control_c, 13, 11, 115
15, 13200, Control_c, 13, 11, 111
15, 13320, Control_c, 13, 11, 108
15, 13392, Control_c, 13, 11, 105
15, 13416, Control_c, 13, 11, 104
15, 19208, Note_on_c, 13, 58, 98
15, 19542, Note_off_c, 13, 58, 64
15, 19689, Note_on_c, 13, 58, 98
15, 19747, Note_off_c, 13, 58, 64
15, 19925, Note_on_c, 13, 58, 98
15, 19970, Note_off_c, 13, 58, 64
15, 20007, Note_on_c, 13, 58, 92
15, 20051, Note_off_c, 13, 58, 64
15, 20089, Note_on_c, 13, 58, 92
15, 20131, Note_off_c, 13, 58, 64
15, 20169, Note_on_c, 13, 58, 97
15, 20228, Note_off_c, 13, 58, 64
15, 21129, Note_on_c, 13, 55, 90
15, 21463, Note_off_c, 13, 55, 64
15, 21607, Note_on_c, 13, 55, 90
15, 21666, Note_off_c, 13, 55, 64
15, 21848, Note_on_c, 13, 55, 92
15, 21890, Note_off_c, 13, 55, 64
15, 21929, Note_on_c, 13, 55, 92
15, 21971, Note_off_c, 13, 55, 64
15, 22009, Note_on_c, 13, 55, 86
15, 22051, Note_off_c, 13, 55, 64
15, 22088, Note_on_c, 13, 55, 89
15, 22147, Note_off_c, 13, 55, 64
15, 22326, Note_on_c, 13, 55, 87
15, 22368, Note_off_c, 13, 55, 64
15, 22409, Note_on_c, 13, 55, 90
15, 22451, Note_off_c, 13, 55, 64
15, 22479, Note_on_c, 13, 55, 85
15, 22522, Note_off_c, 13, 55, 64
15, 22564, Note_on_c, 13, 55, 95
15, 22606, Note_off_c, 13, 55, 64
15, 22646, Note_on_c, 13, 55, 91
15, 22689, Note_off_c, 13, 55, 64
15, 22722, Note_on_c, 13, 55, 90
15, 22764, Note_off_c, 13, 55, 64
15, 22808, Note_on_c, 13, 55, 91
15, 22869, Note_off_c, 13, 55, 64
15, 23048, Note_on_c, 13, 56, 87
15, 23382, Note_off_c, 13, 56, 64
15, 23527, Note_on_c, 13, 56, 92
15, 23586, Note_off_c, 13, 56, 64
15, 23767, Note_on_c, 13, 56, 90
15, 23811, Note_off_c, 13, 56, 64
15, 23848, Note_on_c, 13, 56, 92
15, 23890, Note_off_c, 13, 56, 64
15, 23923, Note_on_c, 13, 56, 85
15, 23966, Note_off_c, 13, 56, 64
15, 24009, Note_on_c, 13, 56, 92
15, 24067, Note_off_c, 13, 56, 64
15, 24249, Note_on_c, 13, 56, 92
15, 24291, Note_off_c, 13, 56, 64
15, 24328, Note_on_c, 13, 56, 92
15, 24370, Note_off_c, 13, 56, 64
15, 24406, Note_on_c, 13, 56, 83
15, 24448, Note_off_c, 13, 56, 64
15, 24489, Note_on_c, 13, 60, 95
15, 24531, Note_off_c, 13, 60, 64
15, 24566, Note_on_c, 13, 60, 92
15, 24608, Note_off_c, 13, 60, 64
15, 24649, Note_on_c, 13, 60, 89
15, 24691, Note_off_c, 13, 60, 64
15, 24724, Note_on_c, 13, 59, 92
15, 24728, Note_on_c, 13, 56, 90
15, 24784, Note_off_c, 13, 59, 64
15, 24786, Note_off_c, 13, 56, 64
15, 24968, Note_on_c, 13, 54, 87
15, 25303, Note_off_c, 13, 54, 64
15, 25445, Note_on_c, 13, 54, 90
15, 25504, Note_off_c, 13, 54, 64
15, 25688, Note_on_c, 13, 54, 87
15, 25730, Note_off_c, 13, 54, 64
15, 25767, Note_on_c, 13, 54, 92
15, 25810, Note_off_c, 13, 54, 64
15, 25849, Note_on_c, 13, 54, 85
15, 25891, Note_off_c, 13, 54, 64
15, 25929, Note_on_c, 13, 54, 90
15, 26347, Note_off_c, 13, 54, 64
15, 26407, Note_on_c, 13, 54, 98
15, 26465, Note_off_c, 13, 54, 64
15, 26648, Note_on_c, 13, 54, 85
15, 26690, Note_off_c, 13, 54, 64
15, 26728, Note_on_c, 13, 54, 89
15, 26770, Note_off_c, 13, 54, 64
15, 26809, Note_on_c, 13, 54, 84
15, 26851, Note_off_c, 13, 54, 64
15, 26888, Note_on_c, 13, 55, 91
15, 27223, Note_off_c, 13, 55, 64
15, 27369, Note_on_c, 13, 55, 91
15, 27428, Note_off_c, 13, 55, 64
15, 27607, Note_on_c, 13, 55, 91
15, 27652, Note_off_c, 13, 55, 64
15, 27689, Note_on_c, 13, 55, 92
15, 27732, Note_off_c, 13, 55, 64
15, 27768, Note_on_c, 13, 55, 86
15, 27810, Note_off_c, 13, 55, 64
15, 27849, Note_on_c, 13, 55, 89
15, 27909, Note_off_c, 13, 55, 64
15, 28086, Note_on_c, 13, 55, 91
15, 28128, Note_off_c, 13, 55, 64
15, 28162, Note_on_c, 13, 55, 92
15, 28204, Note_off_c, 13, 55, 64
15, 28247, Note_on_c, 13, 55, 79
15, 28289, Note_off_c, 13, 55, 64
15, 28325, Note_on_c, 13, 62, 93
15, 28367, Note_off_c, 13, 62, 64
15, 28406, Note_on_c, 13, 62, 91
15, 28448, Note_off_c, 13, 62, 64
15, 28488, Note_on_c, 13, 62, 92
15, 28531, Note_off_c, 13, 62, 64
15, 28567, Note_on_c, 13, 55, 88
15, 28626, Note_off_c, 13, 55, 64
15, 28809, Note_on_c, 13, 58, 86
15, 29143, Note_off_c, 13, 58, 64
15, 29288, Note_on_c, 13, 55, 88
15, 29347, Note_off_c, 13, 55, 64
15, 29526, Note_on_c, 13, 55, 92
15, 29569, Note_off_c, 13, 55, 64
15, 29607, Note_on_c, 13, 55, 92
15, 29649, Note_off_c, 13, 55, 64
15, 29685, Note_on_c, 13, 55, 85
15, 29727, Note_off_c, 13, 55, 64
15, 29765, Note_on_c, 13, 55, 92
15, 29824, Note_off_c, 13, 55, 64
15, 30004, Note_on_c, 13, 55, 92
15, 30046, Note_off_c, 13, 55, 64
15, 30087, Note_on_c, 13, 55, 91
15, 30129, Note_off_c, 13, 55, 64
15, 30164, Note_on_c, 13, 55, 79
15, 30208, Note_off_c, 13, 55, 64
15, 30248, Note_on_c, 13, 55, 96
15, 30291, Note_off_c, 13, 55, 64
15, 30325, Note_on_c, 13, 55, 88
15, 30368, Note_off_c, 13, 55, 64
15, 30407, Note_on_c, 13, 55, 88
15, 30449, Note_off_c, 13, 55, 64
15, 30484, Note_on_c, 13, 55, 89
15, 30542, Note_off_c, 13, 55, 64
15, 30722, Note_on_c, 13, 56, 88
15, 31056, Note_off_c, 13, 56, 64
15, 31207, Note_on_c, 13, 56, 92
15, 31266, Note_off_c, 13, 56, 64
15, 31449, Note_on_c, 13, 56, 88
15, 31491, Note_off_c, 13, 56, 64
15, 31524, Note_on_c, 13, 56, 92
15, 31566, Note_off_c, 13, 56, 64
15, 31607, Note_on_c, 13, 56, 84
15, 31649, Note_off_c, 13, 56, 64
15, 31683, Note_on_c, 13, 56, 90
15, 31741, Note_off_c, 13, 56, 64
15, 31929, Note_on_c, 13, 56, 89
15, 31971, Note_off_c, 13, 56, 64
15, 32006, Note_on_c, 13, 56, 91
15, 32048, Note_off_c, 13, 56, 64
15, 32089, Note_on_c, 13, 56, 85
15, 32131, Note_off_c, 13, 56, 64
15, 32168, Note_on_c, 13, 56, 98
15, 32212, Note_off_c, 13, 56, 64
15, 32249, Note_on_c, 13, 56, 88
15, 32294, Note_off_c, 13, 56, 64
15, 32326, Note_on_c, 13, 56, 92
15, 32368, Note_off_c, 13, 56, 64
15, 32397, Note_on_c, 13, 56, 92
15, 32457, Note_off_c, 13, 56, 64
15, 32649, Note_on_c, 13, 54, 89
15, 32983, Note_off_c, 13, 54, 64
15, 33127, Note_on_c, 13, 54, 91
15, 33185, Note_off_c, 13, 54, 64
15, 33368, Note_on_c, 13, 54, 92
15, 33411, Note_off_c, 13, 54, 64
15, 33449, Note_on_c, 13, 54, 92
15, 33491, Note_off_c, 13, 54, 64
15, 33523, Note_on_c, 13, 54, 86
15, 33565, Note_off_c, 13, 54, 64
15, 33609, Note_on_c, 13, 54, 89
15, 33667, Note_off_c, 13, 54, 64
15, 33849, Note_on_c, 13, 54, 90
15, 33891, Note_off_c, 13, 54, 64
15, 33926, Note_on_c, 13, 54, 88
15, 33968, Note_off_c, 13, 54, 64
15, 34009, Note_on_c, 13, 54, 81
15, 34051, Note_off_c, 13, 54, 64
15, 34087, Note_on_c, 13, 54, 98
15, 34130, Note_off_c, 13, 54, 64
15, 34168, Note_on_c, 13, 54, 90
15, 34210, Note_off_c, 13, 54, 64
15, 34248, Note_on_c, 13, 54, 87
15, 34290, Note_off_c, 13, 54, 64
15, 34326, Note_on_c, 13, 54, 87
15, 34384, Note_off_c, 13, 54, 64
15, 34565, Note_on_c, 13, 55, 88
15, 34900, Note_off_c, 13, 55, 64
15, 35048, Note_on_c, 13, 54, 89
15, 35107, Note_off_c, 13, 54, 64
15, 35281, Note_on_c, 13, 54, 92
15, 35323, Note_off_c, 13, 54, 64
15, 35368, Note_on_c, 13, 54, 87
15, 35411, Note_off_c, 13, 54, 64
15, 35448, Note_on_c, 13, 54, 86
15, 35490, Note_off_c, 13, 54, 64
15, 35526, Note_on_c, 13, 55, 92
15, 35584, Note_off_c, 13, 55, 64
15, 35761, Note_on_c, 13, 55, 92
15, 35803, Note_off_c, 13, 55, 64
15, 35849, Note_on_c, 13, 55, 89
15, 35893, Note_off_c, 13, 55, 64
15, 35929, Note_on_c, 13, 55, 83
15, 35972, Note_off_c, 13, 55, 64
15, 36000, Control_c, 13, 11, 104
15, 36008, Note_on_c, 13, 55, 98
15, 36051, Note_off_c, 13, 55, 64
15, 36084, Control_c, 13, 11, 108
15, 36088, Note_on_c, 13, 55, 91
15, 36130, Note_off_c, 13, 55, 64
15, 36156, Control_c, 13, 11, 111
15, 36166, Note_on_c, 13, 55, 95
15, 36204, Control_c, 13, 11, 114
15, 36209, Note_off_c, 13, 55, 64
15, 36245, Note_on_c, 13, 55, 94
15, 36288, Control_c, 13, 11, 118
15, 36304, Note_off_c, 13, 55, 64
15, 36360, Control_c, 13, 11, 121
15, 36408, Control_c, 13, 11, 124
15, 36456, Control_c, 13, 11, 127
15, 40324, Note_on_c, 13, 55, 97
15, 40658, Note_off_c, 13, 55, 64
15, 40808, Note_on_c, 13, 55, 96
15, 40866, Note_off_c, 13, 55, 64
15, 41049, Note_on_c, 13, 55, 97
15, 41092, Note_off_c, 13, 55, 64
15, 41129, Note_on_c, 13, 55, 97
15, 41172, Note_off_c, 13, 55, 64
15, 41208, Note_on_c, 13, 55, 90
15, 41250, Note_off_c, 13, 55, 64
15, 41287, Note_on_c, 13, 55, 94
15, 41347, Note_off_c, 13, 55, 64
15, 41529, Note_on_c, 13, 55, 97
15, 41572, Note_off_c, 13, 55, 64
15, 41609, Note_on_c, 13, 55, 98
15, 41652, Note_off_c, 13, 55, 64
15, 41686, Note_on_c, 13, 55, 89
15, 41728, Note_off_c, 13, 55, 64
15, 41768, Note_on_c, 13, 58, 98
15, 41810, Note_off_c, 13, 58, 64
15, 41846, Note_on_c, 13, 58, 87
15, 41889, Note_off_c, 13, 58, 64
15, 41921, Note_on_c, 13, 58, 92
15, 41963, Note_off_c, 13, 58, 64
15, 41998, Note_on_c, 13, 58, 88
15, 42058, Note_off_c, 13, 58, 64
15, 42249, Note_on_c, 13, 58, 91
15, 42307, Note_off_c, 13, 58, 64
15, 42489, Note_on_c, 13, 58, 91
15, 42533, Note_off_c, 13, 58, 64
15, 42568, Note_on_c, 13, 58, 91
15, 42611, Note_off_c, 13, 58, 64
15, 42645, Note_on_c, 13, 58, 79
15, 42687, Note_off_c, 13, 58, 64
15, 42724, Note_on_c, 13, 59, 93
15, 42766, Note_off_c, 13, 59, 64
15, 42806, Note_on_c, 13, 59, 91
15, 42848, Note_off_c, 13, 59, 64
15, 42887, Note_on_c, 13, 59, 95
15, 42929, Note_off_c, 13, 59, 64
15, 42962, Note_on_c, 13, 61, 97
15, 43022, Note_off_c, 13, 61, 64
15, 43208, Note_on_c, 13, 63, 93
15, 43266, Note_off_c, 13, 63, 64
15, 43447, Note_on_c, 13, 63, 93
15, 43489, Note_off_c, 13, 63, 64
15, 43529, Note_on_c, 13, 63, 95
15, 43571, Note_off_c, 13, 63, 64
15, 43609, Note_on_c, 13, 63, 90
15, 43652, Note_off_c, 13, 63, 64
15, 43682, Note_on_c, 13, 64, 102
15, 43724, Note_off_c, 13, 64, 64
15, 43769, Note_on_c, 13, 64, 98
15, 43811, Note_off_c, 13, 64, 64
15, 43847, Note_on_c, 13, 64, 97
15, 43889, Note_off_c, 13, 64, 64
15, 43925, Note_on_c, 13, 66, 98
15, 43983, Note_off_c, 13, 66, 64
15, 51816, Control_c, 13, 11, 114
15, 52084, Note_on_c, 13, 50, 60
15, 52120, Note_off_c, 13, 50, 64
15, 52169, Note_on_c, 13, 50, 57
15, 52205, Note_off_c, 13, 50, 64
15, 52247, Note_on_c, 13, 50, 52
15, 52283, Note_off_c, 13, 50, 64
15, 52329, Note_on_c, 13, 51, 61
15, 52365, Note_off_c, 13, 51, 64
15, 52409, Note_on_c, 13, 51, 58
15, 52447, Note_off_c, 13, 51, 64
15, 52487, Note_on_c, 13, 51, 52
15, 52524, Note_off_c, 13, 51, 64
15, 52569, Note_on_c, 13, 48, 58
15, 52605, Note_off_c, 13, 48, 64
15, 52649, Note_on_c, 13, 48, 54
15, 52685, Note_off_c, 13, 48, 64
15, 52729, Note_on_c, 13, 48, 60
15, 52765, Note_off_c, 13, 48, 64
15, 53046, Note_on_c, 13, 58, 58
15, 53084, Note_off_c, 13, 58, 64
15, 53127, Note_on_c, 13, 58, 60
15, 53164, Note_off_c, 13, 58, 64
15, 53205, Note_on_c, 13, 58, 52
15, 53241, Note_off_c, 13, 58, 64
15, 53288, Note_on_c, 13, 57, 63
15, 53326, Note_off_c, 13, 57, 64
15, 53366, Note_on_c, 13, 57, 54
15, 53402, Note_off_c, 13, 57, 64
15, 53448, Note_on_c, 13, 57, 60
15, 53484, Note_off_c, 13, 57, 64
15, 53527, Note_on_c, 13, 54, 57
15, 53564, Note_off_c, 13, 54, 64
15, 53609, Note_on_c, 13, 54, 55
15, 53647, Note_off_c, 13, 54, 64
15, 53685, Note_on_c, 13, 54, 58
15, 53721, Note_off_c, 13, 54, 64
15, 54009, Note_on_c, 13, 62, 60
15, 54046, Note_off_c, 13, 62, 64
15, 54088, Note_on_c, 13, 62, 60
15, 54124, Note_off_c, 13, 62, 64
15, 54169, Note_on_c, 13, 62, 51
15, 54205, Note_off_c, 13, 62, 64
15, 54244, Note_on_c, 13, 61, 62
15, 54280, Note_off_c, 13, 61, 64
15, 54327, Note_on_c, 13, 61, 53
15, 54364, Note_off_c, 13, 61, 64
15, 54402, Note_on_c, 13, 61, 60
15, 54438, Note_off_c, 13, 61, 64
15, 54484, Note_on_c, 13, 57, 60
15, 54520, Note_off_c, 13, 57, 64
15, 54569, Note_on_c, 13, 57, 55
15, 54607, Note_off_c, 13, 57, 64
15, 54645, Note_on_c, 13, 57, 60
15, 54681, Note_off_c, 13, 57, 64
15, 54727, Note_on_c, 13, 60, 65
15, 54764, Note_off_c, 13, 60, 64
15, 54807, Note_on_c, 13, 60, 51
15, 54844, Note_off_c, 13, 60, 64
15, 54887, Note_on_c, 13, 60, 60
15, 54923, Note_off_c, 13, 60, 64
15, 54963, Note_on_c, 13, 58, 60
15, 54999, Note_off_c, 13, 58, 64
15, 55047, Note_on_c, 13, 58, 52
15, 55085, Note_off_c, 13, 58, 64
15, 55129, Note_on_c, 13, 58, 60
15, 55168, Note_off_c, 13, 58, 64
15, 55208, Note_on_c, 13, 54, 65
15, 55246, Note_off_c, 13, 54, 64
15, 55288, Note_on_c, 13, 54, 55
15, 55325, Note_off_c, 13, 54, 64
15, 55366, Note_on_c, 13, 54, 57
15, 55403, Note_off_c, 13, 54, 64
15, 55438, Note_on_c, 13, 51, 59
15, 55475, Note_off_c, 13, 51, 64
15, 55528, Note_on_c, 13, 51, 55
15, 55565, Note_off_c, 13, 51, 64
15, 55609, Note_on_c, 13, 51, 59
15, 55645, Note_off_c, 13, 51, 64
15, 55927, Note_on_c, 13, 59, 60
15, 55963, Note_off_c, 13, 59, 64
15, 56005, Note_on_c, 13, 59, 60
15, 56041, Note_off_c, 13, 59, 64
15, 56081, Note_on_c, 13, 59, 54
15, 56119, Note_off_c, 13, 59, 64
15, 56162, Note_on_c, 13, 58, 66
15, 56200, Note_off_c, 13, 58, 64
15, 56249, Note_on_c, 13, 58, 54
15, 56285, Note_off_c, 13, 58, 64
15, 56329, Note_on_c, 13, 58, 60
15, 56366, Note_off_c, 13, 58, 64
15, 56407, Note_on_c, 13, 55, 59
15, 56443, Note_off_c, 13, 55, 64
15, 56489, Note_on_c, 13, 55, 53
15, 56526, Note_off_c, 13, 55, 64
15, 56566, Note_on_c, 13, 55, 57
15, 56603, Note_off_c, 13, 55, 64
15, 56883, Note_on_c, 13, 63, 59
15, 56919, Note_off_c, 13, 63, 64
15, 56969, Note_on_c, 13, 63, 58
15, 57005, Note_off_c, 13, 63, 64
15, 57046, Note_on_c, 13, 63, 53
15, 57082, Note_off_c, 13, 63, 64
15, 57124, Note_on_c, 13, 62, 66
15, 57162, Note_off_c, 13, 62, 64
15, 57207, Note_on_c, 13, 62, 54
15, 57245, Note_off_c, 13, 62, 64
15, 57286, Note_on_c, 13, 62, 59
15, 57322, Note_off_c, 13, 62, 64
15, 57369, Note_on_c, 13, 59, 59
15, 57407, Note_off_c, 13, 59, 64
15, 57444, Note_on_c, 13, 59, 54
15, 57481, Note_off_c, 13, 59, 64
15, 57528, Note_on_c, 13, 59, 57
15, 57565, Note_off_c, 13, 59, 64
15, 57848, Note_on_c, 13, 71, 57
15, 57884, Note_off_c, 13, 71, 64
15, 57927, Note_on_c, 13, 71, 60
15, 57963, Note_off_c, 13, 71, 64
15, 58006, Note_on_c, 13, 71, 54
15, 58043, Note_off_c, 13, 71, 64
15, 58080, Note_on_c, 13, 70, 65
15, 58118, Note_off_c, 13, 70, 64
15, 58162, Note_on_c, 13, 70, 54
15, 58198, Note_off_c, 13, 70, 64
15, 58247, Note_on_c, 13, 70, 54
15, 58284, Note_off_c, 13, 70, 64
15, 58327, Note_on_c, 13, 62, 59
15, 58363, Note_off_c, 13, 62, 64
15, 58409, Note_on_c, 13, 62, 49
15, 58445, Note_off_c, 13, 62, 64
15, 58487, Note_on_c, 13, 62, 58
15, 58523, Note_off_c, 13, 62, 64
15, 58536, Control_c, 13, 11, 114
15, 58569, Note_on_c, 13, 68, 66
15, 58605, Note_off_c, 13, 68, 64
15, 58649, Note_on_c, 13, 68, 54
15, 58656, Control_c, 13, 11, 113
15, 58685, Note_off_c, 13, 68, 64
15, 58729, Note_on_c, 13, 68, 60
15, 58766, Note_off_c, 13, 68, 64
15, 58776, Control_c, 13, 11, 111
15, 58809, Note_on_c, 13, 60, 56
15, 58847, Note_off_c, 13, 60, 64
15, 58889, Note_on_c, 13, 60, 55
15, 58896, Control_c, 13, 11, 110
15, 58926, Note_off_c, 13, 60, 64
15, 58969, Note_on_c, 13, 60, 60
15, 59005, Note_off_c, 13, 60, 64
15, 59016, Control_c, 13, 11, 109
15, 59049, Note_on_c, 13, 64, 65
15, 59085, Note_off_c, 13, 64, 64
15, 59128, Note_on_c, 13, 64, 53
15, 59136, Control_c, 13, 11, 108
15, 59164, Note_off_c, 13, 64, 64
15, 59209, Note_on_c, 13, 64, 60
15, 59248, Note_off_c, 13, 64, 64
15, 59256, Control_c, 13, 11, 106
15, 59287, Note_on_c, 13, 53, 56
15, 59324, Note_off_c, 13, 53, 64
15, 59368, Note_on_c, 13, 53, 55
15, 59376, Control_c, 13, 11, 105
15, 59405, Note_off_c, 13, 53, 64
15, 59443, Note_on_c, 13, 53, 60
15, 59481, Note_off_c, 13, 53, 64
15, 59496, Control_c, 13, 11, 104
15, 59520, Control_c, 13, 11, 104
15, 59768, Note_on_c, 13, 52, 60
15, 59828, Note_off_c, 13, 52, 64
15, 60007, Note_on_c, 13, 56, 66
15, 60069, Note_off_c, 13, 56, 64
15, 60248, Note_on_c, 13, 62, 60
15, 60308, Note_off_c, 13, 62, 64
15, 60726, Note_on_c, 13, 52, 59
15, 60787, Note_off_c, 13, 52, 64
15, 60968, Note_on_c, 13, 60, 63
15, 61029, Note_off_c, 13, 60, 64
15, 61202, Note_on_c, 13, 63, 58
15, 61262, Note_off_c, 13, 63, 64
15, 61687, Note_on_c, 13, 52, 60
15, 61748, Note_off_c, 13, 52, 64
15, 61925, Note_on_c, 13, 57, 65
15, 61985, Note_off_c, 13, 57, 64
15, 62169, Note_on_c, 13, 63, 54
15, 62229, Note_off_c, 13, 63, 64
15, 62640, Control_c, 13, 11, 104
15, 62648, Note_on_c, 13, 52, 58
15, 62708, Note_off_c, 13, 52, 64
15, 62760, Control_c, 13, 11, 105
15, 62880, Control_c, 13, 11, 106
15, 62883, Note_on_c, 13, 57, 64
15, 62943, Note_off_c, 13, 57, 64
15, 63000, Control_c, 13, 11, 109
15, 63120, Control_c, 13, 11, 110
15, 63126, Note_on_c, 13, 62, 56
15, 63188, Note_off_c, 13, 62, 64
15, 63240, Control_c, 13, 11, 111
15, 63360, Control_c, 13, 11, 114
15, 63609, Note_on_c, 13, 57, 57
15, 63669, Note_off_c, 13, 57, 64
15, 63842, Note_on_c, 13, 62, 64
15, 63902, Note_off_c, 13, 62, 64
15, 64088, Note_on_c, 13, 68, 55
15, 64150, Note_off_c, 13, 68, 64
15, 64568, Note_on_c, 13, 57, 58
15, 64628, Note_off_c, 13, 57, 64
15, 64806, Note_on_c, 13, 59, 66
15, 64868, Note_off_c, 13, 59, 64
15, 65049, Note_on_c, 13, 62, 60
15, 65109, Note_off_c, 13, 62, 64
15, 65520, Control_c, 13, 11, 114
15, 65525, Note_on_c, 13, 57, 55
15, 65586, Note_off_c, 13, 57, 64
15, 65640, Control_c, 13, 11, 113
15, 65760, Control_c, 13, 11, 111
15, 65769, Note_on_c, 13, 59, 66
15, 65829, Note_off_c, 13, 59, 64
15, 65880, Control_c, 13, 11, 109
15, 66000, Control_c, 13, 11, 108
15, 66009, Note_on_c, 13, 65, 57
15, 66071, Note_off_c, 13, 65, 64
15, 66120, Control_c, 13, 11, 106
15, 66240, Control_c, 13, 11, 104
15, 66464, Note_on_c, 13, 52, 60
15, 66526, Note_off_c, 13, 52, 64
15, 66702, Note_on_c, 13, 57, 66
15, 66764, Note_off_c, 13, 57, 64
15, 66944, Note_on_c, 13, 62, 58
15, 67005, Note_off_c, 13, 62, 64
15, 67422, Note_on_c, 13, 57, 60
15, 67483, Note_off_c, 13, 57, 64
15, 67662, Note_on_c, 13, 60, 66
15, 67723, Note_off_c, 13, 60, 64
15, 67904, Note_on_c, 13, 65, 59
15, 67966, Note_off_c, 13, 65, 64
15, 68383, Note_on_c, 13, 53, 60
15, 68443, Note_off_c, 13, 53, 64
15, 68625, Note_on_c, 13, 60, 65
15, 68685, Note_off_c, 13, 60, 64
15, 68864, Note_on_c, 13, 65, 60
15, 68924, Note_off_c, 13, 65, 64
15, 69360, Control_c, 13, 11, 104
15, 69367, Note_on_c, 13, 57, 60
15, 69427, Note_off_c, 13, 57, 64
15, 69480, Control_c, 13, 11, 105
15, 69600, Control_c, 13, 11, 106
15, 69602, Note_on_c, 13, 59, 63
15, 69662, Note_off_c, 13, 59, 64
15, 69720, Control_c, 13, 11, 109
15, 69840, Control_c, 13, 11, 110
15, 69849, Note_on_c, 13, 62, 59
15, 69909, Note_off_c, 13, 62, 64
15, 69960, Control_c, 13, 11, 111
15, 70080, Control_c, 13, 11, 114
15, 70324, Note_on_c, 13, 52, 60
15, 70385, Note_off_c, 13, 52, 64
15, 70568, Note_on_c, 13, 60, 63
15, 70628, Note_off_c, 13, 60, 64
15, 70808, Note_on_c, 13, 63, 60
15, 70868, Note_off_c, 13, 63, 64
15, 71286, Note_on_c, 13, 57, 56
15, 71346, Note_off_c, 13, 57, 64
15, 71525, Note_on_c, 13, 59, 66
15, 71585, Note_off_c, 13, 59, 64
15, 71767, Note_on_c, 13, 62, 58
15, 71827, Note_off_c, 13, 62, 64
15, 72240, Control_c, 13, 11, 114
15, 72247, Note_on_c, 13, 52, 55
15, 72307, Note_off_c, 13, 52, 64
15, 72360, Control_c, 13, 11, 113
15, 72480, Control_c, 13, 11, 111
15, 72485, Note_on_c, 13, 57, 66
15, 72546, Note_off_c, 13, 57, 64
15, 72600, Control_c, 13, 11, 109
15, 72720, Control_c, 13, 11, 108
15, 72729, Note_on_c, 13, 60, 59
15, 72789, Note_off_c, 13, 60, 64
15, 72840, Control_c, 13, 11, 106
15, 72960, Control_c, 13, 11, 104
15, 73202, Note_on_c, 13, 58, 66
15, 73264, Note_off_c, 13, 58, 64
15, 73446, Note_on_c, 13, 61, 67
15, 73506, Note_off_c, 13, 61, 64
15, 73689, Note_on_c, 13, 70, 70
15, 73749, Note_off_c, 13, 70, 64
15, 73928, Note_on_c, 13, 73, 69
15, 73989, Note_off_c, 13, 73, 64
15, 75126, Note_on_c, 13, 59, 66
15, 75186, Note_off_c, 13, 59, 64
15, 75368, Note_on_c, 13, 64, 66
15, 75429, Note_off_c, 13, 64, 64
15, 75609, Note_on_c, 13, 67, 68
15, 75670, Note_off_c, 13, 67, 64
15, 75849, Note_on_c, 13, 71, 73
15, 75909, Note_off_c, 13, 71, 64
15, 78966, Note_on_c, 13, 57, 64
15, 79026, Note_off_c, 13, 57, 64
15, 79209, Note_on_c, 13, 61, 68
15, 79270, Note_off_c, 13, 61, 64
15, 79448, Note_on_c, 13, 69, 70
15, 79508, Note_off_c, 13, 69, 64
15, 79682, Note_on_c, 13, 73, 70
15, 79742, Note_off_c, 13, 73, 64
15, 86376, Control_c, 13, 11, 127
15, 87849, Note_on_c, 13, 55, 83
15, 87891, Note_off_c, 13, 55, 64
15, 87926, Note_on_c, 13, 55, 84
15, 87969, Note_off_c, 13, 55, 64
15, 88007, Note_on_c, 13, 55, 79
15, 88050, Note_off_c, 13, 55, 64
15, 88088, Note_on_c, 13, 55, 85
15, 88147, Note_off_c, 13, 55, 64
15, 89763, Note_on_c, 13, 55, 92
15, 89806, Note_off_c, 13, 55, 64
15, 89847, Note_on_c, 13, 55, 83
15, 89889, Note_off_c, 13, 55, 64
15, 89922, Note_on_c, 13, 55, 77
15, 89965, Note_off_c, 13, 55, 64
15, 90008, Note_on_c, 13, 55, 84
15, 90066, Note_off_c, 13, 55, 64
15, 91683, Note_on_c, 13, 56, 91
15, 91727, Note_off_c, 13, 56, 64
15, 91769, Note_on_c, 13, 56, 84
15, 91813, Note_off_c, 13, 56, 64
15, 91838, Note_on_c, 13, 56, 77
15, 91880, Note_off_c, 13, 56, 64
15, 91924, Note_on_c, 13, 56, 82
15, 91983, Note_off_c, 13, 56, 64
15, 93360, Control_c, 13, 11, 127
15, 93480, Control_c, 13, 11, 125
15, 93600, Control_c, 13, 11, 123
15, 93609, Note_on_c, 13, 56, 92
15, 93651, Note_off_c, 13, 56, 64
15, 93683, Note_on_c, 13, 56, 81
15, 93720, Control_c, 13, 11, 120
15, 93725, Note_off_c, 13, 56, 64
15, 93769, Note_on_c, 13, 56, 76
15, 93811, Note_off_c, 13, 56, 64
15, 93840, Control_c, 13, 11, 119
15, 93849, Note_on_c, 13, 56, 85
15, 93907, Note_off_c, 13, 56, 64
15, 93936, Control_c, 13, 11, 116
15, 94056, Control_c, 13, 11, 115
15, 94080, Control_c, 13, 11, 114
15, 94080, Control_c, 13, 11, 114
15, 94087, Note_on_c, 13, 55, 91
15, 94421, Note_off_c, 13, 55, 64
15, 94568, Note_on_c, 13, 55, 89
15, 94626, Note_off_c, 13, 55, 64
15, 94808, Note_on_c, 13, 55, 92
15, 94851, Note_off_c, 13, 55, 64
15, 94885, Note_on_c, 13, 55, 85
15, 94929, Note_off_c, 13, 55, 64
15, 94964, Note_on_c, 13, 55, 82
15, 95007, Note_off_c, 13, 55, 64
15, 95047, Note_on_c, 13, 55, 92
15, 95105, Note_off_c, 13, 55, 64
15, 95528, Note_on_c, 13, 66, 87
15, 95571, Note_off_c, 13, 66, 64
15, 95609, Note_on_c, 13, 66, 82
15, 95652, Note_off_c, 13, 66, 64
15, 95687, Note_on_c, 13, 66, 78
15, 95730, Note_off_c, 13, 66, 64
15, 95769, Note_on_c, 13, 66, 84
15, 95827, Note_off_c, 13, 66, 64
15, 96006, Note_on_c, 13, 55, 91
15, 96340, Note_off_c, 13, 55, 64
15, 96489, Note_on_c, 13, 66, 85
15, 96548, Note_off_c, 13, 66, 64
15, 96721, Note_on_c, 13, 66, 83
15, 96763, Note_off_c, 13, 66, 64
15, 96807, Note_on_c, 13, 66, 81
15, 96849, Note_off_c, 13, 66, 64
15, 96887, Note_on_c, 13, 66, 79
15, 96929, Note_off_c, 13, 66, 64
15, 96966, Note_on_c, 13, 55, 84
15, 97024, Note_off_c, 13, 55, 64
15, 97209, Note_on_c, 13, 55, 82
15, 97252, Note_off_c, 13, 55, 64
15, 97287, Note_on_c, 13, 55, 85
15, 97331, Note_off_c, 13, 55, 64
15, 97364, Note_on_c, 13, 55, 79
15, 97406, Note_off_c, 13, 55, 64
15, 97448, Note_on_c, 13, 55, 92
15, 97490, Note_off_c, 13, 55, 64
15, 97526, Note_on_c, 13, 55, 84
15, 97569, Note_off_c, 13, 55, 64
15, 97607, Note_on_c, 13, 55, 77
15, 97649, Note_off_c, 13, 55, 64
15, 97689, Note_on_c, 13, 55, 84
15, 97749, Note_off_c, 13, 55, 64
15, 97929, Note_on_c, 13, 55, 80
15, 98263, Note_off_c, 13, 55, 64
15, 98408, Note_on_c, 13, 55, 84
15, 98467, Note_off_c, 13, 55, 64
15, 98646, Note_on_c, 13, 55, 84
15, 98688, Note_off_c, 13, 55, 64
15, 98722, Note_on_c, 13, 55, 84
15, 98764, Note_off_c, 13, 55, 64
15, 98806, Note_on_c, 13, 55, 78
15, 98848, Note_off_c, 13, 55, 64
15, 98887, Note_on_c, 13, 55, 84
15, 98945, Note_off_c, 13, 55, 64
15, 99123, Note_on_c, 13, 55, 84
15, 99167, Note_off_c, 13, 55, 64
15, 99208, Note_on_c, 13, 55, 84
15, 99251, Note_off_c, 13, 55, 64
15, 99288, Note_on_c, 13, 55, 78
15, 99330, Note_off_c, 13, 55, 64
15, 99369, Note_on_c, 13, 56, 90
15, 99411, Note_off_c, 13, 56, 64
15, 99446, Note_on_c, 13, 56, 81
15, 99489, Note_off_c, 13, 56, 64
15, 99528, Note_on_c, 13, 56, 78
15, 99570, Note_off_c, 13, 56, 64
15, 99608, Note_on_c, 13, 56, 85
15, 99666, Note_off_c, 13, 56, 64
15, 99848, Note_on_c, 13, 66, 81
15, 100184, Note_off_c, 13, 66, 64
15, 100326, Note_on_c, 13, 70, 81
15, 100386, Note_off_c, 13, 70, 64
15, 100569, Note_on_c, 13, 70, 85
15, 100611, Note_off_c, 13, 70, 64
15, 100641, Note_on_c, 13, 70, 84
15, 100683, Note_off_c, 13, 70, 64
15, 100727, Note_on_c, 13, 70, 79
15, 100769, Note_off_c, 13, 70, 64
15, 100802, Note_on_c, 13, 74, 85
15, 100860, Note_off_c, 13, 74, 64
15, 101048, Note_on_c, 13, 74, 84
15, 101090, Note_off_c, 13, 74, 64
15, 101127, Note_on_c, 13, 74, 84
15, 101170, Note_off_c, 13, 74, 64
15, 101209, Note_on_c, 13, 74, 76
15, 101252, Note_off_c, 13, 74, 64
15, 101287, Note_on_c, 13, 74, 92
15, 101332, Note_off_c, 13, 74, 64
15, 101368, Note_on_c, 13, 74, 82
15, 101410, Note_off_c, 13, 74, 64
15, 101445, Note_on_c, 13, 74, 76
15, 101488, Note_off_c, 13, 74, 64
15, 101528, Note_on_c, 13, 74, 85
15, 101587, Note_off_c, 13, 74, 64
15, 101767, Note_on_c, 13, 67, 82
15, 102102, Note_off_c, 13, 67, 64
15, 102245, Note_on_c, 13, 67, 83
15, 102304, Note_off_c, 13, 67, 64
15, 102489, Note_on_c, 13, 67, 82
15, 102532, Note_off_c, 13, 67, 64
15, 102569, Note_on_c, 13, 67, 83
15, 102612, Note_off_c, 13, 67, 64
15, 102648, Note_on_c, 13, 67, 78
15, 102690, Note_off_c, 13, 67, 64
15, 102727, Note_on_c, 13, 67, 82
15, 102785, Note_off_c, 13, 67, 64
15, 102966, Note_on_c, 13, 67, 82
15, 103010, Note_off_c, 13, 67, 64
15, 103040, Note_on_c, 13, 67, 83
15, 103083, Note_off_c, 13, 67, 64
15, 103123, Note_on_c, 13, 67, 79
15, 103165, Note_off_c, 13, 67, 64
15, 103208, Note_on_c, 13, 67, 92
15, 103250, Note_off_c, 13, 67, 64
15, 103288, Note_on_c, 13, 67, 83
15, 103330, Note_off_c, 13, 67, 64
15, 103367, Note_on_c, 13, 67, 78
15, 103409, Note_off_c, 13, 67, 64
15, 103447, Note_on_c, 13, 67, 81
15, 103505, Note_off_c, 13, 67, 64
15, 103688, Note_on_c, 13, 76, 80
15, 103689, Note_on_c, 13, 68, 84
15, 104023, Note_off_c, 13, 76, 64
15, 104023, Note_off_c, 13, 68, 64
15, 104166, Note_on_c, 13, 68, 85
15, 104167, Note_on_c, 13, 76, 83
15, 104224, Note_off_c, 13, 68, 64
15, 104227, Note_off_c, 13, 76, 64
15, 104405, Note_on_c, 13, 76, 84
15, 104407, Note_on_c, 13, 68, 84
15, 104447, Note_off_c, 13, 76, 64
15, 104449, Note_off_c, 13, 68, 64
15, 104488, Note_on_c, 13, 68, 82
15, 104488, Note_on_c, 13, 76, 83
15, 104530, Note_off_c, 13, 68, 64
15, 104530, Note_off_c, 13, 76, 64
15, 104567, Note_on_c, 13, 68, 74
15, 104567, Note_on_c, 13, 76, 79
15, 104611, Note_off_c, 13, 68, 64
15, 104611, Note_off_c, 13, 76, 64
15, 104646, Note_on_c, 13, 68, 81
15, 104649, Note_on_c, 13, 76, 83
15, 104705, Note_off_c, 13, 68, 64
15, 104708, Note_off_c, 13, 76, 64
15, 104888, Note_on_c, 13, 68, 85
15, 104889, Note_on_c, 13, 76, 83
15, 104931, Note_off_c, 13, 68, 64
15, 104931, Note_off_c, 13, 76, 64
15, 104968, Note_on_c, 13, 76, 81
15, 104969, Note_on_c, 13, 68, 84
15, 105011, Note_off_c, 13, 68, 64
15, 105012, Note_off_c, 13, 76, 64
15, 105047, Note_on_c, 13, 76, 79
15, 105049, Note_on_c, 13, 68, 79
15, 105090, Note_off_c, 13, 76, 64
15, 105092, Note_off_c, 13, 68, 64
15, 105122, Note_on_c, 13, 76, 91
15, 105129, Note_on_c, 13, 68, 89
15, 105164, Note_off_c, 13, 76, 64
15, 105173, Note_off_c, 13, 68, 64
15, 105205, Note_on_c, 13, 68, 85
15, 105205, Note_on_c, 13, 76, 85
15, 105247, Note_off_c, 13, 68, 64
15, 105247, Note_off_c, 13, 76, 64
15, 105285, Note_on_c, 13, 76, 77
15, 105286, Note_on_c, 13, 68, 74
15, 105327, Note_off_c, 13, 76, 64
15, 105328, Note_off_c, 13, 68, 64
15, 105365, Note_on_c, 13, 68, 83
15, 105369, Note_on_c, 13, 76, 78
15, 105424, Note_off_c, 13, 68, 64
15, 105428, Note_off_c, 13, 76, 64
15, 105605, Note_on_c, 13, 66, 85
15, 105609, Note_on_c, 13, 75, 82
15, 105940, Note_off_c, 13, 66, 64
15, 105943, Note_off_c, 13, 75, 64
15, 106084, Note_on_c, 13, 66, 85
15, 106087, Note_on_c, 13, 75, 82
15, 106142, Note_off_c, 13, 66, 64
15, 106145, Note_off_c, 13, 75, 64
15, 106320, Note_on_c, 13, 75, 82
15, 106328, Note_on_c, 13, 66, 84
15, 106362, Note_off_c, 13, 75, 64
15, 106370, Note_off_c, 13, 66, 64
15, 106406, Note_on_c, 13, 66, 84
15, 106408, Note_on_c, 13, 75, 85
15, 106450, Note_off_c, 13, 66, 64
15, 106450, Note_off_c, 13, 75, 64
15, 106485, Note_on_c, 13, 66, 79
15, 106486, Note_on_c, 13, 75, 75
15, 106527, Note_off_c, 13, 66, 64
15, 106529, Note_off_c, 13, 75, 64
15, 106566, Note_on_c, 13, 66, 80
15, 106568, Note_on_c, 13, 75, 82
15, 106626, Note_off_c, 13, 66, 64
15, 106628, Note_off_c, 13, 75, 64
15, 106807, Note_on_c, 13, 66, 84
15, 106808, Note_on_c, 13, 75, 85
15, 106851, Note_off_c, 13, 75, 64
15, 106852, Note_off_c, 13, 66, 64
15, 106888, Note_on_c, 13, 66, 83
15, 106889, Note_on_c, 13, 75, 81
15, 106931, Note_off_c, 13, 66, 64
15, 106931, Note_off_c, 13, 75, 64
15, 106966, Note_on_c, 13, 75, 78
15, 106968, Note_on_c, 13, 66, 79
15, 107008, Note_off_c, 13, 75, 64
15, 107010, Note_off_c, 13, 66, 64
15, 107046, Note_on_c, 13, 66, 89
15, 107049, Note_on_c, 13, 75, 89
15, 107088, Note_off_c, 13, 66, 64
15, 107093, Note_off_c, 13, 75, 64
15, 107125, Note_on_c, 13, 66, 84
15, 107127, Note_on_c, 13, 75, 84
15, 107167, Note_off_c, 13, 66, 64
15, 107171, Note_off_c, 13, 75, 64
15, 107207, Note_on_c, 13, 66, 79
15, 107208, Note_on_c, 13, 75, 78
15, 107250, Note_off_c, 13, 66, 64
15, 107250, Note_off_c, 13, 75, 64
15, 107285, Note_on_c, 13, 66, 82
15, 107288, Note_on_c, 13, 75, 80
15, 107345, Note_off_c, 13, 66, 64
15, 107348, Note_off_c, 13, 75, 64
15, 107524, Note_on_c, 13, 74, 83
15, 107524, Note_on_c, 13, 67, 83
15, 107859, Note_off_c, 13, 67, 64
15, 107860, Note_off_c, 13, 74, 64
15, 108008, Note_on_c, 13, 74, 83
15, 108009, Note_on_c, 13, 67, 84
15, 108067, Note_off_c, 13, 74, 64
15, 108067, Note_off_c, 13, 67, 64
15, 108245, Note_on_c, 13, 74, 82
15, 108247, Note_on_c, 13, 67, 80
15, 108287, Note_off_c, 13, 74, 64
15, 108289, Note_off_c, 13, 67, 64
15, 108321, Note_on_c, 13, 74, 80
15, 108329, Note_on_c, 13, 67, 84
15, 108363, Note_off_c, 13, 74, 64
15, 108372, Note_off_c, 13, 67, 64
15, 108406, Note_on_c, 13, 74, 76
15, 108409, Note_on_c, 13, 67, 79
15, 108448, Note_off_c, 13, 74, 64
15, 108453, Note_off_c, 13, 67, 64
15, 108487, Note_on_c, 13, 74, 84
15, 108487, Note_on_c, 13, 67, 84
15, 108545, Note_off_c, 13, 67, 64
15, 108547, Note_off_c, 13, 74, 64
15, 108720, Control_c, 13, 11, 114
15, 108727, Note_on_c, 13, 74, 83
15, 108727, Note_on_c, 13, 67, 80
15, 108770, Note_off_c, 13, 74, 64
15, 108770, Note_off_c, 13, 67, 64
15, 108806, Note_on_c, 13, 67, 83
15, 108808, Note_on_c, 13, 74, 85
15, 108840, Control_c, 13, 11, 115
15, 108848, Note_off_c, 13, 67, 64
15, 108851, Note_off_c, 13, 74, 64
15, 108886, Note_on_c, 13, 74, 79
15, 108887, Note_on_c, 13, 67, 77
15, 108929, Note_off_c, 13, 74, 64
15, 108929, Note_off_c, 13, 67, 64
15, 108936, Control_c, 13, 11, 118
15, 108969, Note_on_c, 13, 74, 87
15, 108969, Note_on_c, 13, 67, 92
15, 109012, Note_off_c, 13, 74, 64
15, 109012, Note_off_c, 13, 67, 64
15, 109043, Note_on_c, 13, 67, 85
15, 109049, Note_on_c, 13, 74, 83
15, 109056, Control_c, 13, 11, 119
15, 109085, Note_off_c, 13, 67, 64
15, 109092, Note_off_c, 13, 74, 64
15, 109121, Note_on_c, 13, 67, 74
15, 109126, Note_on_c, 13, 74, 76
15, 109163, Note_off_c, 13, 67, 64
15, 109168, Note_off_c, 13, 74, 64
15, 109176, Control_c, 13, 11, 121
15, 109200, Note_on_c, 13, 74, 85
15, 109205, Note_on_c, 13, 67, 81
15, 109260, Note_off_c, 13, 74, 64
15, 109263, Note_off_c, 13, 67, 64
15, 109296, Control_c, 13, 11, 124
15, 109416, Control_c, 13, 11, 127
15, 109444, Note_on_c, 13, 75, 84
15, 109447, Note_on_c, 13, 67, 83
15, 109779, Note_off_c, 13, 75, 64
15, 109782, Note_off_c, 13, 67, 64
15, 109929, Note_on_c, 13, 67, 85
15, 109929, Note_on_c, 13, 75, 81
15, 109988, Note_off_c, 13, 75, 64
15, 109989, Note_off_c, 13, 67, 64
15, 110167, Note_on_c, 13, 75, 81
15, 110169, Note_on_c, 13, 67, 83
15, 110210, Note_off_c, 13, 75, 64
15, 110212, Note_off_c, 13, 67, 64
15, 110248, Note_on_c, 13, 75, 82
15, 110249, Note_on_c, 13, 67, 83
15, 110290, Note_off_c, 13, 75, 64
15, 110291, Note_off_c, 13, 67, 64
15, 110329, Note_on_c, 13, 67, 77
15, 110329, Note_on_c, 13, 75, 78
15, 110371, Note_off_c, 13, 75, 64
15, 110372, Note_off_c, 13, 67, 64
15, 110406, Note_on_c, 13, 67, 85
15, 110407, Note_on_c, 13, 74, 81
15, 110466, Note_off_c, 13, 67, 64
15, 110467, Note_off_c, 13, 74, 64
15, 110645, Note_on_c, 13, 74, 84
15, 110646, Note_on_c, 13, 67, 85
15, 110688, Note_off_c, 13, 74, 64
15, 110688, Note_off_c, 13, 67, 64
15, 110728, Note_on_c, 13, 67, 85
15, 110729, Note_on_c, 13, 74, 84
15, 110770, Note_off_c, 13, 67, 64
15, 110772, Note_off_c, 13, 74, 64
15, 110808, Note_on_c, 13, 67, 77
15, 110809, Note_on_c, 13, 74, 78
15, 110851, Note_off_c, 13, 74, 64
15, 110852, Note_off_c, 13, 67, 64
15, 110887, Note_on_c, 13, 67, 90
15, 110888, Note_on_c, 13, 74, 85
15, 110929, Note_off_c, 13, 67, 64
15, 110931, Note_off_c, 13, 74, 64
15, 110962, Note_on_c, 13, 67, 85
15, 110966, Note_on_c, 13, 74, 83
15, 111005, Note_off_c, 13, 67, 64
15, 111008, Note_off_c, 13, 74, 64
15, 111041, Note_on_c, 13, 67, 79
15, 111043, Note_on_c, 13, 74, 79
15, 111083, Note_off_c, 13, 67, 64
15, 111085, Note_off_c, 13, 74, 64
15, 111124, Note_on_c, 13, 67, 80
15, 111129, Note_on_c, 13, 74, 85
15, 111182, Note_off_c, 13, 67, 64
15, 111187, Note_off_c, 13, 74, 64
15, 111367, Note_on_c, 13, 68, 85
15, 111367, Note_on_c, 13, 73, 85
15, 111701, Note_off_c, 13, 68, 64
15, 111703, Note_off_c, 13, 73, 64
15, 111846, Note_on_c, 13, 73, 83
15, 111849, Note_on_c, 13, 68, 83
15, 111904, Note_off_c, 13, 73, 64
15, 111907, Note_off_c, 13, 68, 64
15, 112082, Note_on_c, 13, 73, 85
15, 112086, Note_on_c, 13, 68, 85
15, 112124, Note_off_c, 13, 73, 64
15, 112128, Note_off_c, 13, 68, 64
15, 112168, Note_on_c, 13, 68, 84
15, 112169, Note_on_c, 13, 73, 83
15, 112210, Note_off_c, 13, 68, 64
15, 112211, Note_off_c, 13, 73, 64
15, 112246, Note_on_c, 13, 68, 78
15, 112247, Note_on_c, 13, 73, 79
15, 112288, Note_off_c, 13, 68, 64
15, 112290, Note_off_c, 13, 73, 64
15, 112326, Note_on_c, 13, 68, 85
15, 112329, Note_on_c, 13, 76, 85
15, 112385, Note_off_c, 13, 68, 64
15, 112388, Note_off_c, 13, 76, 64
15, 112565, Note_on_c, 13, 68, 85
15, 112567, Note_on_c, 13, 76, 84
15, 112607, Note_off_c, 13, 68, 64
15, 112609, Note_off_c, 13, 76, 64
15, 112648, Note_on_c, 13, 68, 84
15, 112648, Note_on_c, 13, 76, 84
15, 112690, Note_off_c, 13, 68, 64
15, 112690, Note_off_c, 13, 76, 64
15, 112721, Note_on_c, 13, 68, 78
15, 112728, Note_on_c, 13, 76, 78
15, 112763, Note_off_c, 13, 68, 64
15, 112772, Note_off_c, 13, 76, 64
15, 112808, Note_on_c, 13, 76, 89
15, 112809, Note_on_c, 13, 68, 91
15, 112850, Note_off_c, 13, 76, 64
15, 112851, Note_off_c, 13, 68, 64
15, 112887, Note_on_c, 13, 68, 85
15, 112887, Note_on_c, 13, 76, 83
15, 112929, Note_off_c, 13, 68, 64
15, 112929, Note_off_c, 13, 76, 64
15, 112968, Note_on_c, 13, 68, 76
15, 112969, Note_on_c, 13, 76, 76
15, 113011, Note_off_c, 13, 76, 64
15, 113012, Note_off_c, 13, 68, 64
15, 113044, Note_on_c, 13, 76, 84
15, 113045, Note_on_c, 13, 68, 82
15, 113103, Note_off_c, 13, 68, 64
15, 113105, Note_off_c, 13, 76, 64
15, 113285, Note_on_c, 13, 75, 84
15, 113288, Note_on_c, 13, 66, 85
15, 113620, Note_off_c, 13, 75, 64
15, 113622, Note_off_c, 13, 66, 64
15, 113766, Note_on_c, 13, 75, 84
15, 113769, Note_on_c, 13, 66, 85
15, 113824, Note_off_c, 13, 75, 64
15, 113828, Note_off_c, 13, 66, 64
15, 114007, Note_on_c, 13, 66, 85
15, 114007, Note_on_c, 13, 75, 84
15, 114049, Note_off_c, 13, 75, 64
15, 114050, Note_off_c, 13, 66, 64
15, 114087, Note_on_c, 13, 66, 85
15, 114089, Note_on_c, 13, 75, 83
15, 114131, Note_off_c, 13, 66, 64
15, 114131, Note_off_c, 13, 75, 64
15, 114163, Note_on_c, 13, 66, 77
15, 114166, Note_on_c, 13, 75, 76
15, 114205, Note_off_c, 13, 66, 64
15, 114208, Note_off_c, 13, 75, 64
15, 114245, Note_on_c, 13, 66, 85
15, 114247, Note_on_c, 13, 75, 85
15, 114304, Note_off_c, 13, 66, 64
15, 114305, Note_off_c, 13, 75, 64
15, 114486, Note_on_c, 13, 66, 80
15, 114489, Note_on_c, 13, 75, 85
15, 114529, Note_off_c, 13, 66, 64
15, 114532, Note_off_c, 13, 75, 64
15, 114568, Note_on_c, 13, 66, 84
15, 114569, Note_on_c, 13, 75, 82
15, 114610, Note_off_c, 13, 66, 64
15, 114611, Note_off_c, 13, 75, 64
15, 114648, Note_on_c, 13, 66, 79
15, 114649, Note_on_c, 13, 75, 78
15, 114691, Note_off_c, 13, 66, 64
15, 114691, Note_off_c, 13, 75, 64
15, 114726, Note_on_c, 13, 66, 92
15, 114728, Note_on_c, 13, 75, 90
15, 115105, Note_off_c, 13, 66, 64
15, 115106, Note_off_c, 13, 75, 64
15, 115204, Note_on_c, 13, 62, 81
15, 115206, Note_on_c, 13, 55, 85
15, 115598, Note_off_c, 13, 62, 64
15, 115601, Note_off_c, 13, 55, 64
15, 115688, Note_on_c, 13, 58, 91
15, 115964, Note_off_c, 13, 58, 64
15, 116169, Note_on_c, 13, 55, 80
15, 116229, Note_off_c, 13, 55, 64
15, 116404, Note_on_c, 13, 55, 84
15, 116449, Note_off_c, 13, 55, 64
15, 116484, Note_on_c, 13, 55, 85
15, 116527, Note_off_c, 13, 55, 64
15, 116566, Note_on_c, 13, 55, 75
15, 116609, Note_off_c, 13, 55, 64
15, 116643, Note_on_c, 13, 55, 91
15, 116685, Note_off_c, 13, 55, 64
15, 116728, Note_on_c, 13, 55, 81
15, 116770, Note_off_c, 13, 55, 64
15, 116809, Note_on_c, 13, 55, 78
15, 116851, Note_off_c, 13, 55, 64
15, 116888, Note_on_c, 13, 55, 84
15, 116946, Note_off_c, 13, 55, 64
15, 117576, Control_c, 13, 11, 104
15, 117608, Note_on_c, 13, 70, 101
15, 117609, Note_on_c, 13, 62, 104
15, 117650, Note_off_c, 13, 70, 64
15, 117653, Note_off_c, 13, 62, 64
15, 117688, Note_on_c, 13, 70, 98
15, 117689, Note_on_c, 13, 62, 98
15, 117730, Note_off_c, 13, 70, 64
15, 117732, Note_off_c, 13, 62, 64
15, 117757, Note_on_c, 13, 62, 92
15, 117769, Note_on_c, 13, 70, 91
15, 117799, Note_off_c, 13, 62, 64
15, 117811, Note_off_c, 13, 70, 64
15, 117844, Note_on_c, 13, 62, 96
15, 117849, Note_on_c, 13, 70, 98
15, 117926, Note_off_c, 13, 62, 64
15, 117933, Note_off_c, 13, 70, 64
15, 118328, Note_on_c, 13, 62, 96
15, 118328, Note_on_c, 13, 70, 96
15, 118410, Note_off_c, 13, 62, 64
15, 118410, Note_off_c, 13, 70, 64
15, 118807, Note_on_c, 13, 63, 97
15, 118809, Note_on_c, 13, 70, 96
15, 118889, Note_off_c, 13, 63, 64
15, 118891, Note_off_c, 13, 70, 64
15, 119282, Note_on_c, 13, 62, 94
15, 119288, Note_on_c, 13, 70, 97
15, 119365, Note_off_c, 13, 62, 64
15, 119371, Note_off_c, 13, 70, 64
15, 119765, Note_on_c, 13, 70, 97
15, 119767, Note_on_c, 13, 63, 96
15, 119847, Note_off_c, 13, 70, 64
15, 119849, Note_off_c, 13, 63, 64
15, 120249, Note_on_c, 13, 67, 96
15, 120249, Note_on_c, 13, 70, 98
15, 120292, Note_off_c, 13, 67, 64
15, 120292, Note_off_c, 13, 70, 64
15, 120325, Note_on_c, 13, 70, 98
15, 120328, Note_on_c, 13, 67, 97
15, 120367, Note_off_c, 13, 70, 64
15, 120370, Note_off_c, 13, 67, 64
15, 120407, Note_on_c, 13, 70, 92
15, 120409, Note_on_c, 13, 67, 91
15, 120450, Note_off_c, 13, 70, 64
15, 120451, Note_off_c, 13, 67, 64
15, 120483, Note_on_c, 13, 70, 102
15, 120488, Note_on_c, 13, 67, 101
15, 120525, Note_off_c, 13, 70, 64
15, 120531, Note_off_c, 13, 67, 64
15, 120563, Note_on_c, 13, 67, 97
15, 120568, Note_on_c, 13, 70, 98
15, 120606, Note_off_c, 13, 67, 64
15, 120610, Note_off_c, 13, 70, 64
15, 120644, Note_on_c, 13, 70, 91
15, 120649, Note_on_c, 13, 67, 91
15, 120686, Note_off_c, 13, 70, 64
15, 120693, Note_off_c, 13, 67, 64
15, 120724, Note_on_c, 13, 70, 97
15, 120725, Note_on_c, 13, 67, 98
15, 120782, Note_off_c, 13, 70, 64
15, 120783, Note_off_c, 13, 67, 64
15, 121207, Note_on_c, 13, 62, 94
15, 121207, Note_on_c, 13, 70, 98
15, 121289, Note_off_c, 13, 62, 64
15, 121290, Note_off_c, 13, 70, 64
15, 121683, Note_on_c, 13, 70, 97
15, 121689, Note_on_c, 13, 62, 98
15, 121726, Note_off_c, 13, 70, 64
15, 121731, Note_off_c, 13, 62, 64
15, 121765, Note_on_c, 13, 62, 96
15, 121769, Note_on_c, 13, 70, 95
15, 121808, Note_off_c, 13, 62, 64
15, 121811, Note_off_c, 13, 70, 64
15, 121847, Note_on_c, 13, 70, 92
15, 121849, Note_on_c, 13, 62, 92
15, 121889, Note_off_c, 13, 70, 64
15, 121891, Note_off_c, 13, 62, 64
15, 122168, Note_on_c, 13, 62, 97
15, 122169, Note_on_c, 13, 70, 98
15, 122250, Note_off_c, 13, 62, 64
15, 122252, Note_off_c, 13, 70, 64
15, 122647, Note_on_c, 13, 58, 97
15, 122649, Note_on_c, 13, 63, 98
15, 122730, Note_off_c, 13, 58, 64
15, 122731, Note_off_c, 13, 63, 64
15, 123125, Note_on_c, 13, 66, 98
15, 123127, Note_on_c, 13, 58, 98
15, 123207, Note_off_c, 13, 66, 64
15, 123209, Note_off_c, 13, 58, 64
15, 123608, Note_on_c, 13, 54, 98
15, 123609, Note_on_c, 13, 63, 97
15, 123691, Note_off_c, 13, 54, 64
15, 123691, Note_off_c, 13, 63, 64
15, 124087, Note_on_c, 13, 55, 96
15, 124087, Note_on_c, 13, 67, 98
15, 124129, Note_off_c, 13, 55, 64
15, 124131, Note_off_c, 13, 67, 64
15, 124164, Note_on_c, 13, 55, 98
15, 124167, Note_on_c, 13, 67, 98
15, 124207, Note_off_c, 13, 55, 64
15, 124209, Note_off_c, 13, 67, 64
15, 124245, Note_on_c, 13, 55, 91
15, 124248, Note_on_c, 13, 67, 91
15, 124287, Note_off_c, 13, 55, 64
15, 124291, Note_off_c, 13, 67, 64
15, 124320, Control_c, 13, 11, 104
15, 124320, Note_on_c, 13, 55, 102
15, 124327, Note_on_c, 13, 67, 103
15, 124363, Note_off_c, 13, 55, 64
15, 124370, Note_off_c, 13, 67, 64
15, 124400, Note_on_c, 13, 55, 94
15, 124409, Note_on_c, 13, 67, 94
15, 124416, Control_c, 13, 11, 108
15, 124442, Note_off_c, 13, 55, 64
15, 124453, Note_off_c, 13, 67, 64
15, 124487, Note_on_c, 13, 67, 89
15, 124488, Control_c, 13, 11, 111
15, 124488, Note_on_c, 13, 55, 91
15, 124529, Note_off_c, 13, 67, 64
15, 124532, Note_off_c, 13, 55, 64
15, 124536, Control_c, 13, 11, 114
15, 124569, Note_on_c, 13, 55, 97
15, 124569, Note_on_c, 13, 67, 96
15, 124608, Control_c, 13, 11, 118
15, 124628, Note_off_c, 13, 55, 64
15, 124630, Note_off_c, 13, 67, 64
15, 124680, Control_c, 13, 11, 121
15, 124728, Control_c, 13, 11, 124
15, 124776, Control_c, 13, 11, 127
15, 124806, Note_on_c, 13, 67, 104
15, 124808, Note_on_c, 13, 75, 103
15, 125140, Note_off_c, 13, 67, 64
15, 125143, Note_off_c, 13, 75, 64
15, 125286, Note_on_c, 13, 67, 98
15, 125288, Note_on_c, 13, 75, 98
15, 125344, Note_off_c, 13, 67, 64
15, 125347, Note_off_c, 13, 75, 64
15, 125526, Note_on_c, 13, 75, 98
15, 125528, Note_on_c, 13, 67, 98
15, 125569, Note_off_c, 13, 75, 64
15, 125571, Note_off_c, 13, 67, 64
15, 125608, Note_on_c, 13, 67, 96
15, 125609, Note_on_c, 13, 75, 97
15, 125651, Note_off_c, 13, 67, 64
15, 125651, Note_off_c, 13, 75, 64
15, 125687, Note_on_c, 13, 75, 88
15, 125689, Note_on_c, 13, 67, 92
15, 125732, Note_off_c, 13, 75, 64
15, 125733, Note_off_c, 13, 67, 64
15, 125762, Note_on_c, 13, 67, 98
15, 125766, Note_on_c, 13, 74, 98
15, 125820, Note_off_c, 13, 67, 64
15, 125824, Note_off_c, 13, 74, 64
15, 126009, Note_on_c, 13, 74, 96
15, 126009, Note_on_c, 13, 67, 96
15, 126052, Note_off_c, 13, 74, 64
15, 126052, Note_off_c, 13, 67, 64
15, 126083, Note_on_c, 13, 74, 94
15, 126087, Note_on_c, 13, 67, 98
15, 126127, Note_off_c, 13, 74, 64
15, 126129, Note_off_c, 13, 67, 64
15, 126167, Note_on_c, 13, 74, 90
15, 126167, Note_on_c, 13, 67, 91
15, 126209, Note_off_c, 13, 67, 64
15, 126211, Note_off_c, 13, 74, 64
15, 126245, Note_on_c, 13, 67, 104
15, 126248, Note_on_c, 13, 74, 103
15, 126288, Note_off_c, 13, 67, 64
15, 126291, Note_off_c, 13, 74, 64
15, 126324, Note_on_c, 13, 67, 98
15, 126328, Note_on_c, 13, 74, 98
15, 126366, Note_off_c, 13, 67, 64
15, 126371, Note_off_c, 13, 74, 64
15, 126403, Note_on_c, 13, 67, 93
15, 126409, Note_on_c, 13, 74, 92
15, 126446, Note_off_c, 13, 67, 64
15, 126451, Note_off_c, 13, 74, 64
15, 126484, Note_on_c, 13, 67, 93
15, 126488, Note_on_c, 13, 74, 95
15, 126542, Note_off_c, 13, 67, 64
15, 126546, Note_off_c, 13, 74, 64
15, 126727, Note_on_c, 13, 76, 102
15, 126727, Note_on_c, 13, 68, 102
15, 127061, Note_off_c, 13, 76, 64
15, 127061, Note_off_c, 13, 68, 64
15, 127204, Note_on_c, 13, 76, 97
15, 127206, Note_on_c, 13, 68, 97
15, 127263, Note_off_c, 13, 76, 64
15, 127264, Note_off_c, 13, 68, 64
15, 127446, Note_on_c, 13, 76, 98
15, 127449, Note_on_c, 13, 68, 98
15, 127489, Note_off_c, 13, 76, 64
15, 127491, Note_off_c, 13, 68, 64
15, 127529, Note_on_c, 13, 76, 97
15, 127529, Note_on_c, 13, 68, 94
15, 127571, Note_off_c, 13, 76, 64
15, 127573, Note_off_c, 13, 68, 64
15, 127607, Note_on_c, 13, 68, 88
15, 127609, Note_on_c, 13, 76, 91
15, 127649, Note_off_c, 13, 68, 64
15, 127652, Note_off_c, 13, 76, 64
15, 127687, Note_on_c, 13, 68, 96
15, 127689, Note_on_c, 13, 76, 96
15, 127746, Note_off_c, 13, 68, 64
15, 127747, Note_off_c, 13, 76, 64
15, 127925, Note_on_c, 13, 68, 98
15, 127929, Note_on_c, 13, 76, 95
15, 127967, Note_off_c, 13, 68, 64
15, 127971, Note_off_c, 13, 76, 64
15, 128003, Note_on_c, 13, 76, 98
15, 128006, Note_on_c, 13, 68, 98
15, 128046, Note_off_c, 13, 76, 64
15, 128048, Note_off_c, 13, 68, 64
15, 128083, Note_on_c, 13, 68, 89
15, 128089, Note_on_c, 13, 76, 86
15, 128126, Note_off_c, 13, 68, 64
15, 128131, Note_off_c, 13, 76, 64
15, 128164, Note_on_c, 13, 68, 99
15, 128166, Note_on_c, 13, 76, 102
15, 128206, Note_off_c, 13, 68, 64
15, 128208, Note_off_c, 13, 76, 64
15, 128247, Note_on_c, 13, 76, 97
15, 128248, Note_on_c, 13, 68, 98
15, 128290, Note_off_c, 13, 76, 64
15, 128290, Note_off_c, 13, 68, 64
15, 128329, Note_on_c, 13, 76, 90
15, 128329, Note_on_c, 13, 68, 93
15, 128371, Note_off_c, 13, 76, 64
15, 128371, Note_off_c, 13, 68, 64
15, 128406, Note_on_c, 13, 68, 98
15, 128409, Note_on_c, 13, 76, 96
15, 128464, Note_off_c, 13, 68, 64
15, 128467, Note_off_c, 13, 76, 64
15, 128648, Note_on_c, 13, 75, 102
15, 128649, Note_on_c, 13, 66, 104
15, 128982, Note_off_c, 13, 75, 64
15, 128983, Note_off_c, 13, 66, 64
15, 129125, Note_on_c, 13, 75, 95
15, 129127, Note_on_c, 13, 66, 97
15, 129184, Note_off_c, 13, 75, 64
15, 129186, Note_off_c, 13, 66, 64
15, 129365, Note_on_c, 13, 75, 96
15, 129367, Note_on_c, 13, 66, 94
15, 129408, Note_off_c, 13, 75, 64
15, 129409, Note_off_c, 13, 66, 64
15, 129447, Note_on_c, 13, 75, 97
15, 129448, Note_on_c, 13, 66, 96
15, 129490, Note_off_c, 13, 75, 64
15, 129490, Note_off_c, 13, 66, 64
15, 129527, Note_on_c, 13, 66, 92
15, 129528, Note_on_c, 13, 75, 92
15, 129569, Note_off_c, 13, 66, 64
15, 129570, Note_off_c, 13, 75, 64
15, 129608, Note_on_c, 13, 66, 96
15, 129609, Note_on_c, 13, 75, 95
15, 129666, Note_off_c, 13, 66, 64
15, 129667, Note_off_c, 13, 75, 64
15, 129846, Note_on_c, 13, 75, 96
15, 129848, Note_on_c, 13, 66, 98
15, 129888, Note_off_c, 13, 75, 64
15, 129891, Note_off_c, 13, 66, 64
15, 129928, Note_on_c, 13, 66, 96
15, 129928, Note_on_c, 13, 75, 98
15, 129970, Note_off_c, 13, 66, 64
15, 129970, Note_off_c, 13, 75, 64
15, 130008, Note_on_c, 13, 66, 90
15, 130009, Note_on_c, 13, 75, 92
15, 130051, Note_off_c, 13, 66, 64
15, 130051, Note_off_c, 13, 75, 64
15, 130080, Note_on_c, 13, 63, 104
15, 130089, Note_on_c, 13, 70, 100
15, 130122, Note_off_c, 13, 63, 64
15, 130131, Note_off_c, 13, 70, 64
15, 130165, Note_on_c, 13, 63, 98
15, 130166, Note_on_c, 13, 70, 94
15, 130208, Note_off_c, 13, 63, 64
15, 130209, Note_off_c, 13, 70, 64
15, 130246, Note_on_c, 13, 63, 92
15, 130247, Note_on_c, 13, 70, 87
15, 130288, Note_off_c, 13, 63, 64
15, 130290, Note_off_c, 13, 70, 64
15, 130327, Note_on_c, 13, 70, 97
15, 130328, Note_on_c, 13, 63, 98
15, 130385, Note_off_c, 13, 70, 64
15, 130387, Note_off_c, 13, 63, 64
15, 130567, Note_on_c, 13, 62, 85
15, 130568, Note_on_c, 13, 55, 85
15, 130961, Note_off_c, 13, 62, 64
15, 130964, Note_off_c, 13, 55, 64
15, 131046, Note_on_c, 13, 58, 90
15, 131321, Note_off_c, 13, 58, 64
15, 131518, Note_on_c, 13, 55, 98
15, 131576, Note_off_c, 13, 55, 64
15, 131769, Note_on_c, 13, 55, 96
15, 131811, Note_off_c, 13, 55, 64
15, 131847, Note_on_c, 13, 55, 98
15, 131890, Note_off_c, 13, 55, 64
15, 131929, Note_on_c, 13, 55, 92
15, 131973, Note_off_c, 13, 55, 64
15, 132007, Note_on_c, 13, 55, 103
15, 132049, Note_off_c, 13, 55, 64
15, 132089, Note_on_c, 13, 55, 97
15, 132131, Note_off_c, 13, 55, 64
15, 132166, Note_on_c, 13, 55, 91
15, 132208, Note_off_c, 13, 55, 64
15, 132240, Control_c, 13, 11, 127
15, 132241, Note_on_c, 13, 55, 95
15, 132288, Control_c, 13, 11, 124
15, 132301, Note_off_c, 13, 55, 64
15, 132336, Control_c, 13, 11, 121
15, 132408, Control_c, 13, 11, 118
15, 132456, Control_c, 13, 11, 114
15, 133924, Note_on_c, 13, 54, 98
15, 133966, Note_off_c, 13, 54, 64
15, 134006, Note_on_c, 13, 54, 91
15, 134048, Note_off_c, 13, 54, 64
15, 134088, Note_on_c, 13, 54, 89
15, 134130, Note_off_c, 13, 54, 64
15, 134168, Note_on_c, 13, 54, 88
15, 134226, Note_off_c, 13, 54, 64
15, 135840, Control_c, 13, 11, 114
15, 135842, Note_on_c, 13, 54, 96
15, 135884, Note_off_c, 13, 54, 64
15, 135920, Note_on_c, 13, 54, 87
15, 135960, Control_c, 13, 11, 116
15, 135963, Note_off_c, 13, 54, 64
15, 136006, Note_on_c, 13, 54, 91
15, 136032, Control_c, 13, 11, 119
15, 136048, Note_off_c, 13, 54, 64
15, 136086, Note_on_c, 13, 54, 92
15, 136146, Note_off_c, 13, 54, 64
15, 136152, Control_c, 13, 11, 121
15, 136224, Control_c, 13, 11, 124
15, 136296, Control_c, 13, 11, 127
15, 137765, Note_on_c, 13, 54, 98
15, 137808, Note_off_c, 13, 54, 64
15, 137848, Note_on_c, 13, 54, 89
15, 137892, Note_off_c, 13, 54, 64
15, 137928, Note_on_c, 13, 54, 91
15, 137971, Note_off_c, 13, 54, 64
15, 138006, Note_on_c, 13, 54, 89
15, 138064, Note_off_c, 13, 54, 64
15, 139685, Note_on_c, 13, 54, 96
15, 139729, Note_off_c, 13, 54, 64
15, 139769, Note_on_c, 13, 54, 92
15, 139811, Note_off_c, 13, 54, 64
15, 139846, Note_on_c, 13, 54, 92
15, 139888, Note_off_c, 13, 54, 64
15, 139928, Note_on_c, 13, 54, 91
15, 139987, Note_off_c, 13, 54, 64
15, 144009, Note_on_c, 13, 67, 93
15, 144128, Note_off_c, 13, 67, 64
15, 144485, Note_on_c, 13, 67, 95
15, 144543, Note_off_c, 13, 67, 64
15, 144725, Note_on_c, 13, 67, 92
15, 144769, Note_off_c, 13, 67, 64
15, 144808, Note_on_c, 13, 67, 97
15, 144850, Note_off_c, 13, 67, 64
15, 144889, Note_on_c, 13, 67, 92
15, 144933, Note_off_c, 13, 67, 64
15, 144964, Note_on_c, 13, 67, 96
15, 145024, Note_off_c, 13, 67, 64
15, 145205, Note_on_c, 13, 67, 97
15, 145248, Note_off_c, 13, 67, 64
15, 145287, Note_on_c, 13, 67, 98
15, 145329, Note_off_c, 13, 67, 64
15, 145362, Note_on_c, 13, 67, 91
15, 145405, Note_off_c, 13, 67, 64
15, 145449, Note_on_c, 13, 67, 106
15, 145491, Note_off_c, 13, 67, 64
15, 145529, Note_on_c, 13, 67, 97
15, 145572, Note_off_c, 13, 67, 64
15, 145608, Note_on_c, 13, 67, 91
15, 145650, Note_off_c, 13, 67, 64
15, 145689, Note_on_c, 13, 67, 98
15, 145748, Note_off_c, 13, 67, 64
15, 145929, Note_on_c, 13, 67, 97
15, 146047, Note_off_c, 13, 67, 64
15, 146408, Note_on_c, 13, 67, 96
15, 146466, Note_off_c, 13, 67, 64
15, 146648, Note_on_c, 13, 67, 97
15, 146692, Note_off_c, 13, 67, 64
15, 146729, Note_on_c, 13, 67, 95
15, 146773, Note_off_c, 13, 67, 64
15, 146808, Note_on_c, 13, 67, 91
15, 146850, Note_off_c, 13, 67, 64
15, 146886, Note_on_c, 13, 67, 98
15, 146944, Note_off_c, 13, 67, 64
15, 147129, Note_on_c, 13, 67, 97
15, 147172, Note_off_c, 13, 67, 64
15, 147206, Note_on_c, 13, 67, 97
15, 147248, Note_off_c, 13, 67, 64
15, 147288, Note_on_c, 13, 67, 92
15, 147330, Note_off_c, 13, 67, 64
15, 147367, Note_on_c, 13, 67, 108
15, 147410, Note_off_c, 13, 67, 64
15, 147446, Note_on_c, 13, 67, 95
15, 147488, Note_off_c, 13, 67, 64
15, 147526, Note_on_c, 13, 67, 93
15, 147568, Note_off_c, 13, 67, 64
15, 147608, Note_on_c, 13, 67, 98
15, 147667, Note_off_c, 13, 67, 64
15, 147848, Note_on_c, 13, 67, 102
15, 147966, Note_off_c, 13, 67, 64
15, 159360, Control_c, 13, 123, 0
15, 159360, End_track
16, 0, Start_track
16, 0, Text_t, "Cellos"
16, 0, Program_c, 14, 48
16, 0, Control_c, 14, 10, 96
16, 0, Control_c, 14, 7, 106
16, 0, Control_c, 14, 93, 5
16, 0, Control_c, 14, 91, 127
16, 0, Control_c, 14, 11, 127
16, 0, Control_c, 14, 123, 0
16, 5768, Note_on_c, 14, 43, 92
16, 6102, Note_off_c, 14, 43, 64
16, 6247, Note_on_c, 14, 43, 92
16, 6305, Note_off_c, 14, 43, 64
16, 6482, Note_on_c, 14, 43, 91
16, 6524, Note_off_c, 14, 43, 64
16, 6568, Note_on_c, 14, 43, 86
16, 6610, Note_off_c, 14, 43, 64
16, 6649, Note_on_c, 14, 43, 85
16, 6692, Note_off_c, 14, 43, 64
16, 6725, Note_on_c, 14, 43, 92
16, 6783, Note_off_c, 14, 43, 64
16, 6969, Note_on_c, 14, 43, 92
16, 7011, Note_off_c, 14, 43, 64
16, 7049, Note_on_c, 14, 43, 90
16, 7092, Note_off_c, 14, 43, 64
16, 7128, Note_on_c, 14, 43, 89
16, 7171, Note_off_c, 14, 43, 64
16, 7208, Note_on_c, 14, 51, 98
16, 7251, Note_off_c, 14, 51, 64
16, 7288, Note_on_c, 14, 51, 89
16, 7332, Note_off_c, 14, 51, 64
16, 7368, Note_on_c, 14, 51, 92
16, 7411, Note_off_c, 14, 51, 64
16, 7449, Note_on_c, 14, 51, 92
16, 7508, Note_off_c, 14, 51, 64
16, 7683, Note_on_c, 14, 43, 92
16, 8018, Note_off_c, 14, 43, 64
16, 8169, Note_on_c, 14, 43, 91
16, 8227, Note_off_c, 14, 43, 64
16, 8409, Note_on_c, 14, 43, 91
16, 8452, Note_off_c, 14, 43, 64
16, 8487, Note_on_c, 14, 43, 91
16, 8530, Note_off_c, 14, 43, 64
16, 8567, Note_on_c, 14, 43, 85
16, 8610, Note_off_c, 14, 43, 64
16, 8644, Note_on_c, 14, 43, 92
16, 8703, Note_off_c, 14, 43, 64
16, 8889, Note_on_c, 14, 43, 91
16, 8931, Note_off_c, 14, 43, 64
16, 8968, Note_on_c, 14, 43, 92
16, 9010, Note_off_c, 14, 43, 64
16, 9044, Note_on_c, 14, 43, 84
16, 9086, Note_off_c, 14, 43, 64
16, 9123, Note_on_c, 14, 51, 98
16, 9165, Note_off_c, 14, 51, 64
16, 9208, Note_on_c, 14, 51, 92
16, 9251, Note_off_c, 14, 51, 64
16, 9289, Note_on_c, 14, 51, 92
16, 9332, Note_off_c, 14, 51, 64
16, 9365, Note_on_c, 14, 51, 88
16, 9424, Note_off_c, 14, 51, 64
16, 9609, Note_on_c, 14, 43, 92
16, 9943, Note_off_c, 14, 43, 64
16, 10083, Note_on_c, 14, 43, 92
16, 10141, Note_off_c, 14, 43, 64
16, 10325, Note_on_c, 14, 43, 87
16, 10367, Note_off_c, 14, 43, 64
16, 10409, Note_on_c, 14, 43, 90
16, 10452, Note_off_c, 14, 43, 64
16, 10484, Note_on_c, 14, 43, 82
16, 10528, Note_off_c, 14, 43, 64
16, 10567, Note_on_c, 14, 43, 90
16, 10625, Note_off_c, 14, 43, 64
16, 10807, Note_on_c, 14, 43, 92
16, 10849, Note_off_c, 14, 43, 64
16, 10879, Note_on_c, 14, 43, 90
16, 10922, Note_off_c, 14, 43, 64
16, 10967, Note_on_c, 14, 43, 85
16, 11010, Note_off_c, 14, 43, 64
16, 11042, Note_on_c, 14, 43, 98
16, 11084, Note_off_c, 14, 43, 64
16, 11128, Note_on_c, 14, 43, 89
16, 11171, Note_off_c, 14, 43, 64
16, 11207, Note_on_c, 14, 43, 92
16, 11249, Note_off_c, 14, 43, 64
16, 11285, Note_on_c, 14, 43, 92
16, 11343, Note_off_c, 14, 43, 64
16, 11529, Note_on_c, 14, 43, 90
16, 11864, Note_off_c, 14, 43, 64
16, 12009, Note_on_c, 14, 43, 92
16, 12068, Note_off_c, 14, 43, 64
16, 12249, Note_on_c, 14, 43, 89
16, 12292, Note_off_c, 14, 43, 64
16, 12328, Note_on_c, 14, 43, 90
16, 12370, Note_off_c, 14, 43, 64
16, 12409, Note_on_c, 14, 43, 82
16, 12451, Note_off_c, 14, 43, 64
16, 12487, Note_on_c, 14, 43, 89
16, 12546, Note_off_c, 14, 43, 64
16, 12720, Control_c, 14, 11, 127
16, 12729, Note_on_c, 14, 43, 86
16, 12771, Note_off_c, 14, 43, 64
16, 12807, Note_on_c, 14, 43, 89
16, 12816, Control_c, 14, 11, 124
16, 12849, Note_off_c, 14, 43, 64
16, 12887, Note_on_c, 14, 43, 83
16, 12888, Control_c, 14, 11, 121
16, 12931, Note_off_c, 14, 43, 64
16, 12966, Note_on_c, 14, 43, 97
16, 13008, Note_off_c, 14, 43, 64
16, 13008, Control_c, 14, 11, 118
16, 13049, Note_on_c, 14, 43, 92
16, 13080, Control_c, 14, 11, 115
16, 13091, Note_off_c, 14, 43, 64
16, 13126, Note_on_c, 14, 43, 91
16, 13169, Note_off_c, 14, 43, 64
16, 13200, Control_c, 14, 11, 111
16, 13208, Note_on_c, 14, 43, 88
16, 13267, Note_off_c, 14, 43, 64
16, 13320, Control_c, 14, 11, 108
16, 13392, Control_c, 14, 11, 105
16, 13416, Control_c, 14, 11, 104
16, 13449, Note_on_c, 14, 43, 92
16, 13784, Note_off_c, 14, 43, 64
16, 13928, Note_on_c, 14, 43, 89
16, 13987, Note_off_c, 14, 43, 64
16, 14168, Note_on_c, 14, 43, 92
16, 14212, Note_off_c, 14, 43, 64
16, 14244, Note_on_c, 14, 43, 89
16, 14286, Note_off_c, 14, 43, 64
16, 14325, Note_on_c, 14, 43, 82
16, 14367, Note_off_c, 14, 43, 64
16, 14409, Note_on_c, 14, 43, 84
16, 14467, Note_off_c, 14, 43, 64
16, 14649, Note_on_c, 14, 43, 92
16, 14691, Note_off_c, 14, 43, 64
16, 14727, Note_on_c, 14, 43, 89
16, 14772, Note_off_c, 14, 43, 64
16, 14809, Note_on_c, 14, 43, 79
16, 14853, Note_off_c, 14, 43, 64
16, 14887, Note_on_c, 14, 43, 97
16, 14930, Note_off_c, 14, 43, 64
16, 14967, Note_on_c, 14, 43, 91
16, 15010, Note_off_c, 14, 43, 64
16, 15048, Note_on_c, 14, 43, 92
16, 15090, Note_off_c, 14, 43, 64
16, 15129, Note_on_c, 14, 43, 92
16, 15187, Note_off_c, 14, 43, 64
16, 15368, Note_on_c, 14, 43, 92
16, 15703, Note_off_c, 14, 43, 64
16, 15845, Note_on_c, 14, 43, 92
16, 15905, Note_off_c, 14, 43, 64
16, 16087, Note_on_c, 14, 43, 90
16, 16129, Note_off_c, 14, 43, 64
16, 16169, Note_on_c, 14, 43, 92
16, 16211, Note_off_c, 14, 43, 64
16, 16246, Note_on_c, 14, 43, 85
16, 16288, Note_off_c, 14, 43, 64
16, 16325, Note_on_c, 14, 43, 90
16, 16383, Note_off_c, 14, 43, 64
16, 16568, Note_on_c, 14, 43, 92
16, 16611, Note_off_c, 14, 43, 64
16, 16646, Note_on_c, 14, 43, 92
16, 16688, Note_off_c, 14, 43, 64
16, 16729, Note_on_c, 14, 43, 83
16, 16771, Note_off_c, 14, 43, 64
16, 16805, Note_on_c, 14, 43, 97
16, 16848, Note_off_c, 14, 43, 64
16, 16888, Note_on_c, 14, 43, 91
16, 16931, Note_off_c, 14, 43, 64
16, 16964, Note_on_c, 14, 43, 91
16, 17006, Note_off_c, 14, 43, 64
16, 17049, Note_on_c, 14, 43, 92
16, 17108, Note_off_c, 14, 43, 64
16, 17289, Note_on_c, 14, 43, 91
16, 17623, Note_off_c, 14, 43, 64
16, 17767, Note_on_c, 14, 43, 90
16, 17826, Note_off_c, 14, 43, 64
16, 18009, Note_on_c, 14, 43, 91
16, 18053, Note_off_c, 14, 43, 64
16, 18089, Note_on_c, 14, 43, 92
16, 18131, Note_off_c, 14, 43, 64
16, 18167, Note_on_c, 14, 43, 85
16, 18210, Note_off_c, 14, 43, 64
16, 18240, Note_on_c, 14, 43, 92
16, 18298, Note_off_c, 14, 43, 64
16, 18489, Note_on_c, 14, 43, 89
16, 18531, Note_off_c, 14, 43, 64
16, 18566, Note_on_c, 14, 43, 91
16, 18608, Note_off_c, 14, 43, 64
16, 18648, Note_on_c, 14, 43, 84
16, 18691, Note_off_c, 14, 43, 64
16, 18724, Note_on_c, 14, 43, 97
16, 18766, Note_off_c, 14, 43, 64
16, 18809, Note_on_c, 14, 43, 88
16, 18852, Note_off_c, 14, 43, 64
16, 18888, Note_on_c, 14, 43, 90
16, 18930, Note_off_c, 14, 43, 64
16, 18967, Note_on_c, 14, 43, 92
16, 19026, Note_off_c, 14, 43, 64
16, 19209, Note_on_c, 14, 51, 90
16, 19546, Note_off_c, 14, 51, 64
16, 19689, Note_on_c, 14, 51, 92
16, 19747, Note_off_c, 14, 51, 64
16, 19928, Note_on_c, 14, 51, 91
16, 19971, Note_off_c, 14, 51, 64
16, 20007, Note_on_c, 14, 51, 91
16, 20051, Note_off_c, 14, 51, 64
16, 20084, Note_on_c, 14, 51, 83
16, 20126, Note_off_c, 14, 51, 64
16, 20167, Note_on_c, 14, 43, 91
16, 20225, Note_off_c, 14, 43, 64
16, 20409, Note_on_c, 14, 43, 91
16, 20451, Note_off_c, 14, 43, 64
16, 20487, Note_on_c, 14, 43, 89
16, 20529, Note_off_c, 14, 43, 64
16, 20569, Note_on_c, 14, 43, 85
16, 20611, Note_off_c, 14, 43, 64
16, 20649, Note_on_c, 14, 43, 98
16, 20691, Note_off_c, 14, 43, 64
16, 20726, Note_on_c, 14, 43, 92
16, 20769, Note_off_c, 14, 43, 64
16, 20809, Note_on_c, 14, 43, 90
16, 20852, Note_off_c, 14, 43, 64
16, 20883, Note_on_c, 14, 43, 91
16, 20941, Note_off_c, 14, 43, 64
16, 21128, Note_on_c, 14, 43, 92
16, 21464, Note_off_c, 14, 43, 64
16, 21607, Note_on_c, 14, 43, 89
16, 21665, Note_off_c, 14, 43, 64
16, 21845, Note_on_c, 14, 43, 90
16, 21888, Note_off_c, 14, 43, 64
16, 21926, Note_on_c, 14, 43, 91
16, 21968, Note_off_c, 14, 43, 64
16, 22006, Note_on_c, 14, 43, 83
16, 22049, Note_off_c, 14, 43, 64
16, 22084, Note_on_c, 14, 43, 92
16, 22143, Note_off_c, 14, 43, 64
16, 22324, Note_on_c, 14, 43, 91
16, 22367, Note_off_c, 14, 43, 64
16, 22409, Note_on_c, 14, 43, 90
16, 22451, Note_off_c, 14, 43, 64
16, 22484, Note_on_c, 14, 43, 82
16, 22527, Note_off_c, 14, 43, 64
16, 22569, Note_on_c, 14, 43, 98
16, 22611, Note_off_c, 14, 43, 64
16, 22648, Note_on_c, 14, 43, 91
16, 22690, Note_off_c, 14, 43, 64
16, 22726, Note_on_c, 14, 43, 90
16, 22770, Note_off_c, 14, 43, 64
16, 22809, Note_on_c, 14, 43, 92
16, 22868, Note_off_c, 14, 43, 64
16, 23049, Note_on_c, 14, 49, 89
16, 23384, Note_off_c, 14, 49, 64
16, 23523, Note_on_c, 14, 49, 91
16, 23583, Note_off_c, 14, 49, 64
16, 23768, Note_on_c, 14, 49, 91
16, 23811, Note_off_c, 14, 49, 64
16, 23848, Note_on_c, 14, 49, 90
16, 23890, Note_off_c, 14, 49, 64
16, 23929, Note_on_c, 14, 49, 85
16, 23973, Note_off_c, 14, 49, 64
16, 24008, Note_on_c, 14, 49, 88
16, 24066, Note_off_c, 14, 49, 64
16, 24248, Note_on_c, 14, 49, 91
16, 24291, Note_off_c, 14, 49, 64
16, 24323, Note_on_c, 14, 49, 92
16, 24365, Note_off_c, 14, 49, 64
16, 24409, Note_on_c, 14, 49, 82
16, 24451, Note_off_c, 14, 49, 64
16, 24488, Note_on_c, 14, 55, 97
16, 24531, Note_off_c, 14, 55, 64
16, 24568, Note_on_c, 14, 55, 90
16, 24610, Note_off_c, 14, 55, 64
16, 24648, Note_on_c, 14, 55, 90
16, 24690, Note_off_c, 14, 55, 64
16, 24724, Note_on_c, 14, 49, 92
16, 24782, Note_off_c, 14, 49, 64
16, 24967, Note_on_c, 14, 51, 87
16, 25301, Note_off_c, 14, 51, 64
16, 25442, Note_on_c, 14, 51, 92
16, 25501, Note_off_c, 14, 51, 64
16, 25680, Note_on_c, 14, 51, 92
16, 25724, Note_off_c, 14, 51, 64
16, 25765, Note_on_c, 14, 51, 90
16, 25807, Note_off_c, 14, 51, 64
16, 25848, Note_on_c, 14, 51, 85
16, 25890, Note_off_c, 14, 51, 64
16, 25929, Note_on_c, 14, 51, 90
16, 26349, Note_off_c, 14, 51, 64
16, 26406, Note_on_c, 14, 51, 98
16, 26465, Note_off_c, 14, 51, 64
16, 26645, Note_on_c, 14, 51, 90
16, 26687, Note_off_c, 14, 51, 64
16, 26728, Note_on_c, 14, 51, 91
16, 26771, Note_off_c, 14, 51, 64
16, 26809, Note_on_c, 14, 51, 82
16, 26851, Note_off_c, 14, 51, 64
16, 26884, Note_on_c, 14, 43, 89
16, 27219, Note_off_c, 14, 43, 64
16, 27365, Note_on_c, 14, 51, 89
16, 27424, Note_off_c, 14, 51, 64
16, 27609, Note_on_c, 14, 51, 88
16, 27652, Note_off_c, 14, 51, 64
16, 27689, Note_on_c, 14, 51, 92
16, 27731, Note_off_c, 14, 51, 64
16, 27768, Note_on_c, 14, 51, 83
16, 27810, Note_off_c, 14, 51, 64
16, 27845, Note_on_c, 14, 43, 90
16, 27905, Note_off_c, 14, 43, 64
16, 28085, Note_on_c, 14, 43, 91
16, 28127, Note_off_c, 14, 43, 64
16, 28169, Note_on_c, 14, 43, 89
16, 28211, Note_off_c, 14, 43, 64
16, 28248, Note_on_c, 14, 43, 85
16, 28291, Note_off_c, 14, 43, 64
16, 28327, Note_on_c, 14, 55, 93
16, 28370, Note_off_c, 14, 55, 64
16, 28409, Note_on_c, 14, 55, 88
16, 28451, Note_off_c, 14, 55, 64
16, 28489, Note_on_c, 14, 55, 91
16, 28531, Note_off_c, 14, 55, 64
16, 28568, Note_on_c, 14, 43, 90
16, 28626, Note_off_c, 14, 43, 64
16, 28809, Note_on_c, 14, 51, 87
16, 29144, Note_off_c, 14, 51, 64
16, 29286, Note_on_c, 14, 51, 92
16, 29344, Note_off_c, 14, 51, 64
16, 29525, Note_on_c, 14, 51, 91
16, 29568, Note_off_c, 14, 51, 64
16, 29606, Note_on_c, 14, 51, 89
16, 29649, Note_off_c, 14, 51, 64
16, 29687, Note_on_c, 14, 51, 84
16, 29730, Note_off_c, 14, 51, 64
16, 29768, Note_on_c, 14, 43, 87
16, 29826, Note_off_c, 14, 43, 64
16, 30009, Note_on_c, 14, 43, 92
16, 30051, Note_off_c, 14, 43, 64
16, 30089, Note_on_c, 14, 43, 91
16, 30131, Note_off_c, 14, 43, 64
16, 30164, Note_on_c, 14, 43, 81
16, 30206, Note_off_c, 14, 43, 64
16, 30247, Note_on_c, 14, 43, 97
16, 30290, Note_off_c, 14, 43, 64
16, 30324, Note_on_c, 14, 43, 91
16, 30366, Note_off_c, 14, 43, 64
16, 30409, Note_on_c, 14, 43, 90
16, 30451, Note_off_c, 14, 43, 64
16, 30487, Note_on_c, 14, 43, 90
16, 30545, Note_off_c, 14, 43, 64
16, 30727, Note_on_c, 14, 49, 91
16, 31061, Note_off_c, 14, 49, 64
16, 31207, Note_on_c, 14, 49, 92
16, 31265, Note_off_c, 14, 49, 64
16, 31447, Note_on_c, 14, 49, 89
16, 31490, Note_off_c, 14, 49, 64
16, 31521, Note_on_c, 14, 49, 92
16, 31563, Note_off_c, 14, 49, 64
16, 31605, Note_on_c, 14, 49, 82
16, 31647, Note_off_c, 14, 49, 64
16, 31684, Note_on_c, 14, 49, 90
16, 31742, Note_off_c, 14, 49, 64
16, 31929, Note_on_c, 14, 49, 90
16, 31971, Note_off_c, 14, 49, 64
16, 32009, Note_on_c, 14, 49, 90
16, 32051, Note_off_c, 14, 49, 64
16, 32089, Note_on_c, 14, 49, 85
16, 32131, Note_off_c, 14, 49, 64
16, 32166, Note_on_c, 14, 49, 98
16, 32208, Note_off_c, 14, 49, 64
16, 32249, Note_on_c, 14, 49, 92
16, 32291, Note_off_c, 14, 49, 64
16, 32328, Note_on_c, 14, 49, 91
16, 32370, Note_off_c, 14, 49, 64
16, 32408, Note_on_c, 14, 49, 89
16, 32467, Note_off_c, 14, 49, 64
16, 32647, Note_on_c, 14, 51, 92
16, 32981, Note_off_c, 14, 51, 64
16, 33126, Note_on_c, 14, 51, 87
16, 33184, Note_off_c, 14, 51, 64
16, 33369, Note_on_c, 14, 51, 90
16, 33411, Note_off_c, 14, 51, 64
16, 33443, Note_on_c, 14, 51, 89
16, 33485, Note_off_c, 14, 51, 64
16, 33522, Note_on_c, 14, 51, 85
16, 33564, Note_off_c, 14, 51, 64
16, 33606, Note_on_c, 14, 51, 90
16, 33664, Note_off_c, 14, 51, 64
16, 33848, Note_on_c, 14, 51, 87
16, 33890, Note_off_c, 14, 51, 64
16, 33926, Note_on_c, 14, 51, 90
16, 33969, Note_off_c, 14, 51, 64
16, 34009, Note_on_c, 14, 51, 83
16, 34053, Note_off_c, 14, 51, 64
16, 34088, Note_on_c, 14, 48, 98
16, 34130, Note_off_c, 14, 48, 64
16, 34168, Note_on_c, 14, 48, 91
16, 34210, Note_off_c, 14, 48, 64
16, 34245, Note_on_c, 14, 48, 89
16, 34289, Note_off_c, 14, 48, 64
16, 34328, Note_on_c, 14, 48, 87
16, 34386, Note_off_c, 14, 48, 64
16, 34569, Note_on_c, 14, 43, 89
16, 34903, Note_off_c, 14, 43, 64
16, 35049, Note_on_c, 14, 48, 92
16, 35109, Note_off_c, 14, 48, 64
16, 35288, Note_on_c, 14, 48, 87
16, 35330, Note_off_c, 14, 48, 64
16, 35364, Note_on_c, 14, 48, 86
16, 35406, Note_off_c, 14, 48, 64
16, 35447, Note_on_c, 14, 48, 84
16, 35489, Note_off_c, 14, 48, 64
16, 35528, Note_on_c, 14, 43, 92
16, 35587, Note_off_c, 14, 43, 64
16, 35768, Note_on_c, 14, 43, 87
16, 35811, Note_off_c, 14, 43, 64
16, 35849, Note_on_c, 14, 43, 89
16, 35892, Note_off_c, 14, 43, 64
16, 35928, Note_on_c, 14, 43, 84
16, 35970, Note_off_c, 14, 43, 64
16, 36000, Control_c, 14, 11, 104
16, 36008, Note_on_c, 14, 43, 97
16, 36050, Note_off_c, 14, 43, 64
16, 36084, Control_c, 14, 11, 108
16, 36085, Note_on_c, 14, 43, 94
16, 36127, Note_off_c, 14, 43, 64
16, 36156, Control_c, 14, 11, 111
16, 36160, Note_on_c, 14, 43, 97
16, 36203, Note_off_c, 14, 43, 64
16, 36204, Control_c, 14, 11, 114
16, 36244, Note_on_c, 14, 43, 98
16, 36288, Control_c, 14, 11, 118
16, 36302, Note_off_c, 14, 43, 64
16, 36360, Control_c, 14, 11, 121
16, 36408, Control_c, 14, 11, 124
16, 36456, Control_c, 14, 11, 127
16, 36488, Note_on_c, 14, 43, 89
16, 36822, Note_off_c, 14, 43, 64
16, 36961, Note_on_c, 14, 43, 91
16, 37020, Note_off_c, 14, 43, 64
16, 37206, Note_on_c, 14, 43, 92
16, 37249, Note_off_c, 14, 43, 64
16, 37289, Note_on_c, 14, 43, 91
16, 37331, Note_off_c, 14, 43, 64
16, 37369, Note_on_c, 14, 43, 85
16, 37413, Note_off_c, 14, 43, 64
16, 37448, Note_on_c, 14, 43, 92
16, 37506, Note_off_c, 14, 43, 64
16, 37688, Note_on_c, 14, 43, 92
16, 37731, Note_off_c, 14, 43, 64
16, 37769, Note_on_c, 14, 43, 91
16, 37811, Note_off_c, 14, 43, 64
16, 37846, Note_on_c, 14, 43, 92
16, 37888, Note_off_c, 14, 43, 64
16, 37926, Note_on_c, 14, 39, 98
16, 37969, Note_off_c, 14, 39, 64
16, 38009, Note_on_c, 14, 39, 91
16, 38051, Note_off_c, 14, 39, 64
16, 38086, Note_on_c, 14, 39, 91
16, 38128, Note_off_c, 14, 39, 64
16, 38168, Note_on_c, 14, 39, 85
16, 38226, Note_off_c, 14, 39, 64
16, 38401, Note_on_c, 14, 43, 92
16, 38735, Note_off_c, 14, 43, 64
16, 38885, Note_on_c, 14, 43, 92
16, 38943, Note_off_c, 14, 43, 64
16, 39129, Note_on_c, 14, 43, 92
16, 39172, Note_off_c, 14, 43, 64
16, 39209, Note_on_c, 14, 43, 92
16, 39251, Note_off_c, 14, 43, 64
16, 39288, Note_on_c, 14, 43, 83
16, 39330, Note_off_c, 14, 43, 64
16, 39366, Note_on_c, 14, 43, 92
16, 39426, Note_off_c, 14, 43, 64
16, 39603, Note_on_c, 14, 43, 88
16, 39645, Note_off_c, 14, 43, 64
16, 39687, Note_on_c, 14, 43, 92
16, 39730, Note_off_c, 14, 43, 64
16, 39767, Note_on_c, 14, 43, 83
16, 39809, Note_off_c, 14, 43, 64
16, 39849, Note_on_c, 14, 39, 98
16, 39891, Note_off_c, 14, 39, 64
16, 39929, Note_on_c, 14, 39, 91
16, 39971, Note_off_c, 14, 39, 64
16, 40008, Note_on_c, 14, 39, 90
16, 40052, Note_off_c, 14, 39, 64
16, 40087, Note_on_c, 14, 39, 92
16, 40145, Note_off_c, 14, 39, 64
16, 40329, Note_on_c, 14, 43, 91
16, 40663, Note_off_c, 14, 43, 64
16, 40802, Note_on_c, 14, 43, 92
16, 40861, Note_off_c, 14, 43, 64
16, 41045, Note_on_c, 14, 43, 91
16, 41087, Note_off_c, 14, 43, 64
16, 41126, Note_on_c, 14, 43, 91
16, 41168, Note_off_c, 14, 43, 64
16, 41209, Note_on_c, 14, 43, 84
16, 41252, Note_off_c, 14, 43, 64
16, 41286, Note_on_c, 14, 43, 91
16, 41344, Note_off_c, 14, 43, 64
16, 41524, Note_on_c, 14, 43, 91
16, 41567, Note_off_c, 14, 43, 64
16, 41609, Note_on_c, 14, 43, 90
16, 41651, Note_off_c, 14, 43, 64
16, 41687, Note_on_c, 14, 43, 89
16, 41730, Note_off_c, 14, 43, 64
16, 41767, Note_on_c, 14, 51, 97
16, 41809, Note_off_c, 14, 51, 64
16, 41849, Note_on_c, 14, 51, 92
16, 41891, Note_off_c, 14, 51, 64
16, 41929, Note_on_c, 14, 51, 84
16, 41971, Note_off_c, 14, 51, 64
16, 42009, Note_on_c, 14, 51, 89
16, 42067, Note_off_c, 14, 51, 64
16, 42246, Note_on_c, 14, 43, 91
16, 42304, Note_off_c, 14, 43, 64
16, 42487, Note_on_c, 14, 43, 92
16, 42530, Note_off_c, 14, 43, 64
16, 42568, Note_on_c, 14, 43, 91
16, 42611, Note_off_c, 14, 43, 64
16, 42647, Note_on_c, 14, 43, 81
16, 42689, Note_off_c, 14, 43, 64
16, 42729, Note_on_c, 14, 43, 97
16, 42771, Note_off_c, 14, 43, 64
16, 42809, Note_on_c, 14, 43, 91
16, 42853, Note_off_c, 14, 43, 64
16, 42888, Note_on_c, 14, 43, 91
16, 42933, Note_off_c, 14, 43, 64
16, 42965, Note_on_c, 14, 43, 98
16, 43023, Note_off_c, 14, 43, 64
16, 43209, Note_on_c, 14, 43, 98
16, 43268, Note_off_c, 14, 43, 64
16, 43448, Note_on_c, 14, 43, 96
16, 43491, Note_off_c, 14, 43, 64
16, 43529, Note_on_c, 14, 43, 98
16, 43571, Note_off_c, 14, 43, 64
16, 43608, Note_on_c, 14, 43, 92
16, 43650, Note_off_c, 14, 43, 64
16, 43687, Note_on_c, 14, 43, 100
16, 43730, Note_off_c, 14, 43, 64
16, 44160, Program_c, 14, 45
16, 44165, Note_on_c, 14, 62, 48
16, 45042, Note_off_c, 14, 62, 64
16, 45127, Note_on_c, 14, 62, 47
16, 46001, Note_off_c, 14, 62, 64
16, 46088, Note_on_c, 14, 62, 49
16, 46963, Note_off_c, 14, 62, 64
16, 47049, Note_on_c, 14, 62, 48
16, 47444, Note_off_c, 14, 62, 64
16, 47529, Note_on_c, 14, 62, 47
16, 47923, Note_off_c, 14, 62, 64
16, 48005, Note_on_c, 14, 62, 48
16, 48880, Note_off_c, 14, 62, 64
16, 48965, Note_on_c, 14, 62, 49
16, 49841, Note_off_c, 14, 62, 64
16, 49927, Note_on_c, 14, 62, 44
16, 50802, Note_off_c, 14, 62, 64
16, 50884, Note_on_c, 14, 62, 44
16, 51759, Note_off_c, 14, 62, 64
16, 51816, Control_c, 14, 11, 114
16, 51840, Program_c, 14, 48
16, 51848, Note_on_c, 14, 43, 56
16, 51925, Note_off_c, 14, 43, 64
16, 52806, Note_on_c, 14, 43, 59
16, 52882, Note_off_c, 14, 43, 64
16, 53768, Note_on_c, 14, 43, 58
16, 53845, Note_off_c, 14, 43, 64
16, 54729, Note_on_c, 14, 43, 56
16, 54806, Note_off_c, 14, 43, 64
16, 55207, Note_on_c, 14, 43, 60
16, 55284, Note_off_c, 14, 43, 64
16, 55688, Note_on_c, 14, 44, 60
16, 55765, Note_off_c, 14, 44, 64
16, 56641, Note_on_c, 14, 44, 59
16, 56717, Note_off_c, 14, 44, 64
16, 57609, Note_on_c, 14, 44, 58
16, 57685, Note_off_c, 14, 44, 64
16, 58568, Note_on_c, 14, 45, 59
16, 58644, Note_off_c, 14, 45, 64
16, 59046, Note_on_c, 14, 40, 60
16, 59123, Note_off_c, 14, 40, 64
16, 59527, Note_on_c, 14, 45, 60
16, 59579, Note_off_c, 14, 45, 64
16, 60249, Note_on_c, 14, 45, 59
16, 60274, Note_off_c, 14, 45, 64
16, 60322, Note_on_c, 14, 45, 58
16, 60346, Note_off_c, 14, 45, 64
16, 60409, Note_on_c, 14, 45, 52
16, 60434, Note_off_c, 14, 45, 64
16, 60484, Note_on_c, 14, 45, 59
16, 60536, Note_off_c, 14, 45, 64
16, 61208, Note_on_c, 14, 45, 60
16, 61234, Note_off_c, 14, 45, 64
16, 61286, Note_on_c, 14, 45, 59
16, 61311, Note_off_c, 14, 45, 64
16, 61369, Note_on_c, 14, 45, 53
16, 61393, Note_off_c, 14, 45, 64
16, 61447, Note_on_c, 14, 45, 60
16, 61499, Note_off_c, 14, 45, 64
16, 61929, Note_on_c, 14, 41, 58
16, 61982, Note_off_c, 14, 41, 64
16, 62407, Note_on_c, 14, 45, 58
16, 62459, Note_off_c, 14, 45, 64
16, 63121, Note_on_c, 14, 45, 56
16, 63145, Note_off_c, 14, 45, 64
16, 63208, Note_on_c, 14, 45, 59
16, 63232, Note_off_c, 14, 45, 64
16, 63283, Note_on_c, 14, 45, 53
16, 63308, Note_off_c, 14, 45, 64
16, 63368, Note_on_c, 14, 45, 60
16, 63420, Note_off_c, 14, 45, 64
16, 64088, Note_on_c, 14, 45, 57
16, 64112, Note_off_c, 14, 45, 64
16, 64169, Note_on_c, 14, 45, 59
16, 64193, Note_off_c, 14, 45, 64
16, 64249, Note_on_c, 14, 45, 54
16, 64273, Note_off_c, 14, 45, 64
16, 64320, Control_c, 14, 11, 114
16, 64328, Note_on_c, 14, 45, 60
16, 64380, Note_off_c, 14, 45, 64
16, 64440, Control_c, 14, 11, 116
16, 64512, Control_c, 14, 11, 119
16, 64632, Control_c, 14, 11, 121
16, 64704, Control_c, 14, 11, 124
16, 64776, Control_c, 14, 11, 127
16, 64805, Note_on_c, 14, 45, 57
16, 64858, Note_off_c, 14, 45, 64
16, 65284, Note_on_c, 14, 45, 59
16, 65338, Note_off_c, 14, 45, 64
16, 65760, Control_c, 14, 11, 127
16, 65767, Note_on_c, 14, 45, 60
16, 65821, Note_off_c, 14, 45, 64
16, 65856, Control_c, 14, 11, 124
16, 65952, Control_c, 14, 11, 121
16, 66008, Note_on_c, 14, 45, 58
16, 66033, Note_off_c, 14, 45, 64
16, 66072, Control_c, 14, 11, 119
16, 66083, Note_on_c, 14, 45, 57
16, 66107, Note_off_c, 14, 45, 64
16, 66144, Control_c, 14, 11, 116
16, 66169, Note_on_c, 14, 45, 54
16, 66193, Note_off_c, 14, 45, 64
16, 66240, Control_c, 14, 11, 114
16, 66246, Note_on_c, 14, 45, 60
16, 66298, Note_off_c, 14, 45, 64
16, 66968, Note_on_c, 14, 45, 56
16, 66992, Note_off_c, 14, 45, 64
16, 67047, Note_on_c, 14, 45, 59
16, 67072, Note_off_c, 14, 45, 64
16, 67128, Note_on_c, 14, 45, 52
16, 67152, Note_off_c, 14, 45, 64
16, 67209, Note_on_c, 14, 45, 59
16, 67263, Note_off_c, 14, 45, 64
16, 67687, Note_on_c, 14, 56, 58
16, 68166, Note_off_c, 14, 56, 64
16, 68166, Note_on_c, 14, 53, 55
16, 68646, Note_off_c, 14, 53, 64
16, 68649, Note_on_c, 14, 50, 57
16, 69081, Note_off_c, 14, 50, 64
16, 69129, Note_on_c, 14, 45, 59
16, 69181, Note_off_c, 14, 45, 64
16, 69849, Note_on_c, 14, 45, 60
16, 69873, Note_off_c, 14, 45, 64
16, 69929, Note_on_c, 14, 45, 60
16, 69954, Note_off_c, 14, 45, 64
16, 70008, Note_on_c, 14, 45, 54
16, 70032, Note_off_c, 14, 45, 64
16, 70086, Note_on_c, 14, 45, 57
16, 70140, Note_off_c, 14, 45, 64
16, 70807, Note_on_c, 14, 45, 55
16, 70831, Note_off_c, 14, 45, 64
16, 70886, Note_on_c, 14, 45, 59
16, 70910, Note_off_c, 14, 45, 64
16, 70958, Note_on_c, 14, 45, 54
16, 70983, Note_off_c, 14, 45, 64
16, 71048, Note_on_c, 14, 45, 60
16, 71100, Note_off_c, 14, 45, 64
16, 71529, Note_on_c, 14, 45, 60
16, 71594, Note_off_c, 14, 45, 64
16, 72007, Note_on_c, 14, 45, 59
16, 72071, Note_off_c, 14, 45, 64
16, 72484, Note_on_c, 14, 45, 58
16, 72549, Note_off_c, 14, 45, 64
16, 72728, Note_on_c, 14, 45, 60
16, 72752, Note_off_c, 14, 45, 64
16, 72807, Note_on_c, 14, 45, 59
16, 72833, Note_off_c, 14, 45, 64
16, 72886, Note_on_c, 14, 45, 54
16, 72910, Note_off_c, 14, 45, 64
16, 72965, Note_on_c, 14, 46, 60
16, 73030, Note_off_c, 14, 46, 64
16, 73449, Note_on_c, 14, 46, 57
16, 73501, Note_off_c, 14, 46, 64
16, 73684, Note_on_c, 14, 46, 56
16, 73708, Note_off_c, 14, 46, 64
16, 73760, Note_on_c, 14, 46, 57
16, 73784, Note_off_c, 14, 46, 64
16, 73849, Note_on_c, 14, 46, 53
16, 73873, Note_off_c, 14, 46, 64
16, 73928, Note_on_c, 14, 46, 58
16, 73992, Note_off_c, 14, 46, 64
16, 74400, Control_c, 14, 11, 114
16, 74407, Note_on_c, 14, 46, 56
16, 74461, Note_off_c, 14, 46, 64
16, 74520, Control_c, 14, 11, 116
16, 74592, Control_c, 14, 11, 119
16, 74647, Note_on_c, 14, 46, 54
16, 74672, Note_off_c, 14, 46, 64
16, 74712, Control_c, 14, 11, 121
16, 74725, Note_on_c, 14, 46, 60
16, 74749, Note_off_c, 14, 46, 64
16, 74784, Control_c, 14, 11, 124
16, 74806, Note_on_c, 14, 46, 53
16, 74831, Note_off_c, 14, 46, 64
16, 74856, Control_c, 14, 11, 127
16, 74883, Note_on_c, 14, 52, 65
16, 74948, Note_off_c, 14, 52, 64
16, 75367, Note_on_c, 14, 52, 56
16, 75432, Note_off_c, 14, 52, 64
16, 75842, Note_on_c, 14, 52, 60
16, 75906, Note_off_c, 14, 52, 64
16, 76323, Note_on_c, 14, 52, 56
16, 76375, Note_off_c, 14, 52, 64
16, 76564, Note_on_c, 14, 52, 58
16, 76588, Note_off_c, 14, 52, 64
16, 76642, Note_on_c, 14, 52, 59
16, 76666, Note_off_c, 14, 52, 64
16, 76728, Note_on_c, 14, 52, 52
16, 76752, Note_off_c, 14, 52, 64
16, 76807, Note_on_c, 14, 52, 59
16, 76872, Note_off_c, 14, 52, 64
16, 77289, Note_on_c, 14, 40, 58
16, 77353, Note_off_c, 14, 40, 64
16, 77767, Note_on_c, 14, 52, 60
16, 77832, Note_off_c, 14, 52, 64
16, 78249, Note_on_c, 14, 52, 60
16, 78303, Note_off_c, 14, 52, 64
16, 78482, Note_on_c, 14, 52, 60
16, 78508, Note_off_c, 14, 52, 64
16, 78569, Note_on_c, 14, 52, 59
16, 78593, Note_off_c, 14, 52, 64
16, 78647, Note_on_c, 14, 52, 51
16, 78673, Note_off_c, 14, 52, 64
16, 78724, Note_on_c, 14, 54, 60
16, 78788, Note_off_c, 14, 54, 64
16, 79208, Note_on_c, 14, 42, 58
16, 79273, Note_off_c, 14, 42, 64
16, 80161, Note_on_c, 14, 54, 56
16, 80214, Note_off_c, 14, 54, 64
16, 80409, Note_on_c, 14, 54, 60
16, 80435, Note_off_c, 14, 54, 64
16, 80485, Note_on_c, 14, 54, 58
16, 80509, Note_off_c, 14, 54, 64
16, 80569, Note_on_c, 14, 54, 52
16, 80593, Note_off_c, 14, 54, 64
16, 80649, Note_on_c, 14, 54, 59
16, 80713, Note_off_c, 14, 54, 64
16, 81128, Note_on_c, 14, 42, 56
16, 81193, Note_off_c, 14, 42, 64
16, 82088, Note_on_c, 14, 54, 58
16, 82142, Note_off_c, 14, 54, 64
16, 82326, Note_on_c, 14, 54, 59
16, 82350, Note_off_c, 14, 54, 64
16, 82408, Note_on_c, 14, 54, 56
16, 82433, Note_off_c, 14, 54, 64
16, 82485, Note_on_c, 14, 54, 54
16, 82510, Note_off_c, 14, 54, 64
16, 82568, Note_on_c, 14, 46, 59
16, 82632, Note_off_c, 14, 46, 64
16, 83047, Note_on_c, 14, 48, 64
16, 83124, Note_off_c, 14, 48, 64
16, 83529, Note_on_c, 14, 46, 60
16, 83593, Note_off_c, 14, 46, 64
16, 84007, Note_on_c, 14, 46, 59
16, 84059, Note_off_c, 14, 46, 64
16, 84244, Note_on_c, 14, 46, 59
16, 84268, Note_off_c, 14, 46, 64
16, 84327, Note_on_c, 14, 46, 56
16, 84352, Note_off_c, 14, 46, 64
16, 84409, Note_on_c, 14, 46, 53
16, 84434, Note_off_c, 14, 46, 64
16, 84482, Note_on_c, 14, 46, 58
16, 84546, Note_off_c, 14, 46, 64
16, 84968, Note_on_c, 14, 42, 65
16, 85044, Note_off_c, 14, 42, 64
16, 85449, Note_on_c, 14, 46, 60
16, 85513, Note_off_c, 14, 46, 64
16, 85927, Note_on_c, 14, 46, 59
16, 85979, Note_off_c, 14, 46, 64
16, 86168, Note_on_c, 14, 46, 60
16, 86192, Note_off_c, 14, 46, 64
16, 86248, Note_on_c, 14, 46, 68
16, 86272, Note_off_c, 14, 46, 64
16, 86328, Note_on_c, 14, 46, 80
16, 86352, Note_off_c, 14, 46, 64
16, 86409, Note_on_c, 14, 47, 80
16, 86743, Note_off_c, 14, 47, 64
16, 86884, Note_on_c, 14, 47, 83
16, 86943, Note_off_c, 14, 47, 64
16, 87129, Note_on_c, 14, 47, 83
16, 87172, Note_off_c, 14, 47, 64
16, 87206, Note_on_c, 14, 47, 85
16, 87249, Note_off_c, 14, 47, 64
16, 87289, Note_on_c, 14, 47, 78
16, 87333, Note_off_c, 14, 47, 64
16, 87368, Note_on_c, 14, 47, 84
16, 87428, Note_off_c, 14, 47, 64
16, 87598, Note_on_c, 14, 47, 82
16, 87641, Note_off_c, 14, 47, 64
16, 87686, Note_on_c, 14, 47, 85
16, 87730, Note_off_c, 14, 47, 64
16, 87764, Note_on_c, 14, 47, 78
16, 87807, Note_off_c, 14, 47, 64
16, 87847, Note_on_c, 14, 47, 88
16, 87890, Note_off_c, 14, 47, 64
16, 87925, Note_on_c, 14, 47, 82
16, 87967, Note_off_c, 14, 47, 64
16, 88008, Note_on_c, 14, 47, 79
16, 88050, Note_off_c, 14, 47, 64
16, 88087, Note_on_c, 14, 47, 83
16, 88146, Note_off_c, 14, 47, 64
16, 88320, Note_on_c, 14, 47, 84
16, 88654, Note_off_c, 14, 47, 64
16, 88806, Note_on_c, 14, 47, 84
16, 88866, Note_off_c, 14, 47, 64
16, 89049, Note_on_c, 14, 47, 84
16, 89092, Note_off_c, 14, 47, 64
16, 89124, Note_on_c, 14, 47, 84
16, 89166, Note_off_c, 14, 47, 64
16, 89207, Note_on_c, 14, 47, 77
16, 89249, Note_off_c, 14, 47, 64
16, 89289, Note_on_c, 14, 47, 84
16, 89348, Note_off_c, 14, 47, 64
16, 89528, Note_on_c, 14, 47, 85
16, 89570, Note_off_c, 14, 47, 64
16, 89609, Note_on_c, 14, 47, 84
16, 89651, Note_off_c, 14, 47, 64
16, 89687, Note_on_c, 14, 47, 76
16, 89730, Note_off_c, 14, 47, 64
16, 89769, Note_on_c, 14, 47, 92
16, 89811, Note_off_c, 14, 47, 64
16, 89841, Note_on_c, 14, 47, 85
16, 89885, Note_off_c, 14, 47, 64
16, 89927, Note_on_c, 14, 47, 79
16, 89969, Note_off_c, 14, 47, 64
16, 90007, Note_on_c, 14, 47, 81
16, 90067, Note_off_c, 14, 47, 64
16, 90249, Note_on_c, 14, 48, 82
16, 90583, Note_off_c, 14, 48, 64
16, 90727, Note_on_c, 14, 48, 85
16, 90785, Note_off_c, 14, 48, 64
16, 90962, Note_on_c, 14, 48, 83
16, 91004, Note_off_c, 14, 48, 64
16, 91048, Note_on_c, 14, 48, 84
16, 91092, Note_off_c, 14, 48, 64
16, 91115, Note_on_c, 14, 48, 77
16, 91157, Note_off_c, 14, 48, 64
16, 91205, Note_on_c, 14, 48, 85
16, 91264, Note_off_c, 14, 48, 64
16, 91449, Note_on_c, 14, 48, 85
16, 91491, Note_off_c, 14, 48, 64
16, 91527, Note_on_c, 14, 48, 85
16, 91572, Note_off_c, 14, 48, 64
16, 91609, Note_on_c, 14, 48, 78
16, 91651, Note_off_c, 14, 48, 64
16, 91682, Note_on_c, 14, 59, 92
16, 91725, Note_off_c, 14, 59, 64
16, 91768, Note_on_c, 14, 59, 84
16, 91810, Note_off_c, 14, 59, 64
16, 91848, Note_on_c, 14, 59, 79
16, 91890, Note_off_c, 14, 59, 64
16, 91925, Note_on_c, 14, 59, 83
16, 91984, Note_off_c, 14, 59, 64
16, 92162, Note_on_c, 14, 48, 84
16, 92496, Note_off_c, 14, 48, 64
16, 92649, Note_on_c, 14, 48, 83
16, 92707, Note_off_c, 14, 48, 64
16, 92889, Note_on_c, 14, 48, 84
16, 92932, Note_off_c, 14, 48, 64
16, 92966, Note_on_c, 14, 48, 84
16, 93008, Note_off_c, 14, 48, 64
16, 93049, Note_on_c, 14, 48, 79
16, 93091, Note_off_c, 14, 48, 64
16, 93126, Note_on_c, 14, 48, 80
16, 93184, Note_off_c, 14, 48, 64
16, 93360, Control_c, 14, 11, 127
16, 93361, Note_on_c, 14, 48, 82
16, 93403, Note_off_c, 14, 48, 64
16, 93449, Note_on_c, 14, 48, 84
16, 93480, Control_c, 14, 11, 125
16, 93492, Note_off_c, 14, 48, 64
16, 93526, Note_on_c, 14, 48, 78
16, 93569, Note_off_c, 14, 48, 64
16, 93600, Control_c, 14, 11, 123
16, 93607, Note_on_c, 14, 59, 92
16, 93650, Note_off_c, 14, 59, 64
16, 93688, Note_on_c, 14, 59, 81
16, 93720, Control_c, 14, 11, 120
16, 93731, Note_off_c, 14, 59, 64
16, 93765, Note_on_c, 14, 59, 73
16, 93807, Note_off_c, 14, 59, 64
16, 93840, Control_c, 14, 11, 119
16, 93847, Note_on_c, 14, 59, 82
16, 93905, Note_off_c, 14, 59, 64
16, 93936, Control_c, 14, 11, 116
16, 94056, Control_c, 14, 11, 115
16, 94080, Control_c, 14, 11, 114
16, 94088, Note_on_c, 14, 43, 81
16, 94422, Note_off_c, 14, 43, 64
16, 94565, Note_on_c, 14, 43, 84
16, 94624, Note_off_c, 14, 43, 64
16, 94806, Note_on_c, 14, 43, 83
16, 94848, Note_off_c, 14, 43, 64
16, 94888, Note_on_c, 14, 43, 85
16, 94930, Note_off_c, 14, 43, 64
16, 94968, Note_on_c, 14, 43, 77
16, 95011, Note_off_c, 14, 43, 64
16, 95045, Note_on_c, 14, 43, 85
16, 95103, Note_off_c, 14, 43, 64
16, 95286, Note_on_c, 14, 43, 84
16, 95329, Note_off_c, 14, 43, 64
16, 95366, Note_on_c, 14, 43, 83
16, 95408, Note_off_c, 14, 43, 64
16, 95449, Note_on_c, 14, 43, 79
16, 95491, Note_off_c, 14, 43, 64
16, 95525, Note_on_c, 14, 54, 87
16, 95569, Note_off_c, 14, 54, 64
16, 95607, Note_on_c, 14, 54, 84
16, 95649, Note_off_c, 14, 54, 64
16, 95689, Note_on_c, 14, 54, 77
16, 95731, Note_off_c, 14, 54, 64
16, 95762, Note_on_c, 14, 54, 84
16, 95821, Note_off_c, 14, 54, 64
16, 96009, Note_on_c, 14, 43, 82
16, 96343, Note_off_c, 14, 43, 64
16, 96487, Note_on_c, 14, 54, 83
16, 96547, Note_off_c, 14, 54, 64
16, 96728, Note_on_c, 14, 54, 85
16, 96771, Note_off_c, 14, 54, 64
16, 96809, Note_on_c, 14, 54, 85
16, 96851, Note_off_c, 14, 54, 64
16, 96887, Note_on_c, 14, 54, 78
16, 96929, Note_off_c, 14, 54, 64
16, 96965, Note_on_c, 14, 43, 85
16, 97023, Note_off_c, 14, 43, 64
16, 97209, Note_on_c, 14, 43, 83
16, 97251, Note_off_c, 14, 43, 64
16, 97284, Note_on_c, 14, 43, 84
16, 97326, Note_off_c, 14, 43, 64
16, 97361, Note_on_c, 14, 43, 75
16, 97404, Note_off_c, 14, 43, 64
16, 97446, Note_on_c, 14, 43, 91
16, 97489, Note_off_c, 14, 43, 64
16, 97522, Note_on_c, 14, 43, 85
16, 97565, Note_off_c, 14, 43, 64
16, 97605, Note_on_c, 14, 43, 79
16, 97647, Note_off_c, 14, 43, 64
16, 97687, Note_on_c, 14, 43, 85
16, 97745, Note_off_c, 14, 43, 64
16, 97924, Note_on_c, 14, 43, 80
16, 98259, Note_off_c, 14, 43, 64
16, 98405, Note_on_c, 14, 43, 85
16, 98463, Note_off_c, 14, 43, 64
16, 98648, Note_on_c, 14, 43, 85
16, 98690, Note_off_c, 14, 43, 64
16, 98729, Note_on_c, 14, 43, 81
16, 98771, Note_off_c, 14, 43, 64
16, 98806, Note_on_c, 14, 43, 76
16, 98848, Note_off_c, 14, 43, 64
16, 98888, Note_on_c, 14, 43, 85
16, 98947, Note_off_c, 14, 43, 64
16, 99126, Note_on_c, 14, 43, 85
16, 99169, Note_off_c, 14, 43, 64
16, 99203, Note_on_c, 14, 43, 84
16, 99245, Note_off_c, 14, 43, 64
16, 99289, Note_on_c, 14, 43, 75
16, 99331, Note_off_c, 14, 43, 64
16, 99365, Note_on_c, 14, 42, 91
16, 99409, Note_off_c, 14, 42, 64
16, 99449, Note_on_c, 14, 42, 85
16, 99491, Note_off_c, 14, 42, 64
16, 99520, Note_on_c, 14, 42, 79
16, 99563, Note_off_c, 14, 42, 64
16, 99609, Note_on_c, 14, 42, 85
16, 99667, Note_off_c, 14, 42, 64
16, 99848, Note_on_c, 14, 51, 85
16, 100183, Note_off_c, 14, 51, 64
16, 100323, Note_on_c, 14, 48, 85
16, 100382, Note_off_c, 14, 48, 64
16, 100566, Note_on_c, 14, 48, 84
16, 100608, Note_off_c, 14, 48, 64
16, 100649, Note_on_c, 14, 48, 82
16, 100692, Note_off_c, 14, 48, 64
16, 100723, Note_on_c, 14, 48, 77
16, 100765, Note_off_c, 14, 48, 64
16, 100805, Note_on_c, 14, 43, 85
16, 100863, Note_off_c, 14, 43, 64
16, 101046, Note_on_c, 14, 43, 85
16, 101089, Note_off_c, 14, 43, 64
16, 101128, Note_on_c, 14, 43, 85
16, 101172, Note_off_c, 14, 43, 64
16, 101209, Note_on_c, 14, 43, 78
16, 101251, Note_off_c, 14, 43, 64
16, 101289, Note_on_c, 14, 43, 89
16, 101331, Note_off_c, 14, 43, 64
16, 101369, Note_on_c, 14, 43, 85
16, 101413, Note_off_c, 14, 43, 64
16, 101441, Note_on_c, 14, 43, 77
16, 101483, Note_off_c, 14, 43, 64
16, 101528, Note_on_c, 14, 43, 85
16, 101589, Note_off_c, 14, 43, 64
16, 101767, Note_on_c, 14, 43, 84
16, 102104, Note_off_c, 14, 43, 64
16, 102242, Note_on_c, 14, 43, 84
16, 102300, Note_off_c, 14, 43, 64
16, 102485, Note_on_c, 14, 43, 85
16, 102528, Note_off_c, 14, 43, 64
16, 102567, Note_on_c, 14, 43, 84
16, 102611, Note_off_c, 14, 43, 64
16, 102648, Note_on_c, 14, 43, 78
16, 102692, Note_off_c, 14, 43, 64
16, 102726, Note_on_c, 14, 43, 84
16, 102784, Note_off_c, 14, 43, 64
16, 102964, Note_on_c, 14, 43, 81
16, 103006, Note_off_c, 14, 43, 64
16, 103046, Note_on_c, 14, 43, 85
16, 103088, Note_off_c, 14, 43, 64
16, 103125, Note_on_c, 14, 43, 79
16, 103168, Note_off_c, 14, 43, 64
16, 103207, Note_on_c, 14, 43, 90
16, 103250, Note_off_c, 14, 43, 64
16, 103285, Note_on_c, 14, 43, 85
16, 103328, Note_off_c, 14, 43, 64
16, 103362, Note_on_c, 14, 43, 75
16, 103405, Note_off_c, 14, 43, 64
16, 103449, Note_on_c, 14, 43, 85
16, 103507, Note_off_c, 14, 43, 64
16, 103688, Note_on_c, 14, 49, 84
16, 104022, Note_off_c, 14, 49, 64
16, 104169, Note_on_c, 14, 49, 85
16, 104229, Note_off_c, 14, 49, 64
16, 104404, Note_on_c, 14, 49, 85
16, 104447, Note_off_c, 14, 49, 64
16, 104489, Note_on_c, 14, 49, 82
16, 104531, Note_off_c, 14, 49, 64
16, 104561, Note_on_c, 14, 49, 79
16, 104603, Note_off_c, 14, 49, 64
16, 104647, Note_on_c, 14, 49, 85
16, 104705, Note_off_c, 14, 49, 64
16, 104887, Note_on_c, 14, 49, 85
16, 104931, Note_off_c, 14, 49, 64
16, 104964, Note_on_c, 14, 49, 85
16, 105007, Note_off_c, 14, 49, 64
16, 105048, Note_on_c, 14, 49, 79
16, 105091, Note_off_c, 14, 49, 64
16, 105122, Note_on_c, 14, 49, 92
16, 105164, Note_off_c, 14, 49, 64
16, 105208, Note_on_c, 14, 49, 82
16, 105250, Note_off_c, 14, 49, 64
16, 105289, Note_on_c, 14, 49, 79
16, 105332, Note_off_c, 14, 49, 64
16, 105366, Note_on_c, 14, 49, 85
16, 105424, Note_off_c, 14, 49, 64
16, 105606, Note_on_c, 14, 51, 85
16, 105941, Note_off_c, 14, 51, 64
16, 106082, Note_on_c, 14, 51, 82
16, 106143, Note_off_c, 14, 51, 64
16, 106329, Note_on_c, 14, 51, 80
16, 106371, Note_off_c, 14, 51, 64
16, 106407, Note_on_c, 14, 51, 85
16, 106449, Note_off_c, 14, 51, 64
16, 106489, Note_on_c, 14, 51, 74
16, 106531, Note_off_c, 14, 51, 64
16, 106569, Note_on_c, 14, 51, 76
16, 106627, Note_off_c, 14, 51, 64
16, 106808, Note_on_c, 14, 51, 85
16, 106853, Note_off_c, 14, 51, 64
16, 106887, Note_on_c, 14, 51, 84
16, 106929, Note_off_c, 14, 51, 64
16, 106965, Note_on_c, 14, 51, 79
16, 107007, Note_off_c, 14, 51, 64
16, 107049, Note_on_c, 14, 51, 90
16, 107091, Note_off_c, 14, 51, 64
16, 107122, Note_on_c, 14, 51, 83
16, 107164, Note_off_c, 14, 51, 64
16, 107209, Note_on_c, 14, 51, 71
16, 107252, Note_off_c, 14, 51, 64
16, 107289, Note_on_c, 14, 51, 83
16, 107348, Note_off_c, 14, 51, 64
16, 107525, Note_on_c, 14, 43, 85
16, 107859, Note_off_c, 14, 43, 64
16, 108008, Note_on_c, 14, 43, 85
16, 108067, Note_off_c, 14, 43, 64
16, 108248, Note_on_c, 14, 43, 82
16, 108290, Note_off_c, 14, 43, 64
16, 108326, Note_on_c, 14, 43, 81
16, 108368, Note_off_c, 14, 43, 64
16, 108407, Note_on_c, 14, 43, 78
16, 108449, Note_off_c, 14, 43, 64
16, 108486, Note_on_c, 14, 43, 83
16, 108544, Note_off_c, 14, 43, 64
16, 108720, Control_c, 14, 11, 114
16, 108726, Note_on_c, 14, 43, 84
16, 108768, Note_off_c, 14, 43, 64
16, 108808, Note_on_c, 14, 43, 81
16, 108840, Control_c, 14, 11, 115
16, 108850, Note_off_c, 14, 43, 64
16, 108889, Note_on_c, 14, 43, 79
16, 108933, Note_off_c, 14, 43, 64
16, 108936, Control_c, 14, 11, 118
16, 108962, Note_on_c, 14, 43, 89
16, 109007, Note_off_c, 14, 43, 64
16, 109049, Note_on_c, 14, 43, 82
16, 109056, Control_c, 14, 11, 119
16, 109092, Note_off_c, 14, 43, 64
16, 109121, Note_on_c, 14, 43, 77
16, 109164, Note_off_c, 14, 43, 64
16, 109176, Control_c, 14, 11, 121
16, 109207, Note_on_c, 14, 43, 85
16, 109265, Note_off_c, 14, 43, 64
16, 109296, Control_c, 14, 11, 124
16, 109416, Control_c, 14, 11, 127
16, 109448, Note_on_c, 14, 51, 85
16, 109782, Note_off_c, 14, 51, 64
16, 109928, Note_on_c, 14, 51, 81
16, 109986, Note_off_c, 14, 51, 64
16, 110167, Note_on_c, 14, 51, 81
16, 110210, Note_off_c, 14, 51, 64
16, 110247, Note_on_c, 14, 51, 83
16, 110291, Note_off_c, 14, 51, 64
16, 110325, Note_on_c, 14, 51, 78
16, 110370, Note_off_c, 14, 51, 64
16, 110409, Note_on_c, 14, 43, 85
16, 110468, Note_off_c, 14, 43, 64
16, 110649, Note_on_c, 14, 43, 85
16, 110691, Note_off_c, 14, 43, 64
16, 110728, Note_on_c, 14, 43, 84
16, 110771, Note_off_c, 14, 43, 64
16, 110808, Note_on_c, 14, 43, 79
16, 110850, Note_off_c, 14, 43, 64
16, 110889, Note_on_c, 14, 43, 88
16, 110931, Note_off_c, 14, 43, 64
16, 110967, Note_on_c, 14, 43, 81
16, 111009, Note_off_c, 14, 43, 64
16, 111047, Note_on_c, 14, 43, 79
16, 111089, Note_off_c, 14, 43, 64
16, 111126, Note_on_c, 14, 43, 85
16, 111185, Note_off_c, 14, 43, 64
16, 111366, Note_on_c, 14, 49, 85
16, 111700, Note_off_c, 14, 49, 64
16, 111849, Note_on_c, 14, 49, 83
16, 111907, Note_off_c, 14, 49, 64
16, 112086, Note_on_c, 14, 49, 80
16, 112128, Note_off_c, 14, 49, 64
16, 112169, Note_on_c, 14, 49, 83
16, 112211, Note_off_c, 14, 49, 64
16, 112248, Note_on_c, 14, 49, 78
16, 112291, Note_off_c, 14, 49, 64
16, 112328, Note_on_c, 14, 49, 85
16, 112386, Note_off_c, 14, 49, 64
16, 112568, Note_on_c, 14, 49, 85
16, 112611, Note_off_c, 14, 49, 64
16, 112649, Note_on_c, 14, 49, 85
16, 112691, Note_off_c, 14, 49, 64
16, 112729, Note_on_c, 14, 49, 78
16, 112771, Note_off_c, 14, 49, 64
16, 112805, Note_on_c, 14, 49, 92
16, 112848, Note_off_c, 14, 49, 64
16, 112884, Note_on_c, 14, 49, 84
16, 112926, Note_off_c, 14, 49, 64
16, 112968, Note_on_c, 14, 49, 78
16, 113010, Note_off_c, 14, 49, 64
16, 113047, Note_on_c, 14, 49, 83
16, 113105, Note_off_c, 14, 49, 64
16, 113281, Note_on_c, 14, 51, 85
16, 113618, Note_off_c, 14, 51, 64
16, 113769, Note_on_c, 14, 51, 84
16, 113827, Note_off_c, 14, 51, 64
16, 114008, Note_on_c, 14, 51, 82
16, 114050, Note_off_c, 14, 51, 64
16, 114085, Note_on_c, 14, 51, 85
16, 114128, Note_off_c, 14, 51, 64
16, 114159, Note_on_c, 14, 51, 77
16, 114201, Note_off_c, 14, 51, 64
16, 114240, Note_on_c, 14, 51, 83
16, 114298, Note_off_c, 14, 51, 64
16, 114482, Note_on_c, 14, 51, 84
16, 114524, Note_off_c, 14, 51, 64
16, 114568, Note_on_c, 14, 51, 85
16, 114610, Note_off_c, 14, 51, 64
16, 114640, Note_on_c, 14, 51, 79
16, 114683, Note_off_c, 14, 51, 64
16, 114725, Note_on_c, 14, 48, 91
16, 114767, Note_off_c, 14, 48, 64
16, 114806, Note_on_c, 14, 48, 84
16, 114848, Note_off_c, 14, 48, 64
16, 114888, Note_on_c, 14, 48, 76
16, 114930, Note_off_c, 14, 48, 64
16, 114968, Note_on_c, 14, 48, 85
16, 115027, Note_off_c, 14, 48, 64
16, 115209, Note_on_c, 14, 43, 85
16, 115603, Note_off_c, 14, 43, 64
16, 115687, Note_on_c, 14, 48, 88
16, 115961, Note_off_c, 14, 48, 64
16, 116164, Note_on_c, 14, 43, 85
16, 116223, Note_off_c, 14, 43, 64
16, 116409, Note_on_c, 14, 43, 81
16, 116451, Note_off_c, 14, 43, 64
16, 116484, Note_on_c, 14, 43, 82
16, 116526, Note_off_c, 14, 43, 64
16, 116569, Note_on_c, 14, 43, 79
16, 116611, Note_off_c, 14, 43, 64
16, 116646, Note_on_c, 14, 43, 90
16, 116689, Note_off_c, 14, 43, 64
16, 116725, Note_on_c, 14, 43, 81
16, 116767, Note_off_c, 14, 43, 64
16, 116804, Note_on_c, 14, 43, 74
16, 116846, Note_off_c, 14, 43, 64
16, 116887, Note_on_c, 14, 43, 84
16, 116945, Note_off_c, 14, 43, 64
16, 117576, Control_c, 14, 11, 104
16, 117606, Note_on_c, 14, 43, 102
16, 117609, Note_on_c, 14, 55, 104
16, 117648, Note_off_c, 14, 43, 64
16, 117652, Note_off_c, 14, 55, 64
16, 117684, Note_on_c, 14, 55, 98
16, 117684, Note_on_c, 14, 43, 95
16, 117726, Note_off_c, 14, 55, 64
16, 117726, Note_off_c, 14, 43, 64
16, 117768, Note_on_c, 14, 43, 92
16, 117769, Note_on_c, 14, 55, 92
16, 117811, Note_off_c, 14, 43, 64
16, 117811, Note_off_c, 14, 55, 64
16, 117847, Note_on_c, 14, 43, 95
16, 117849, Note_on_c, 14, 55, 94
16, 117929, Note_off_c, 14, 43, 64
16, 117931, Note_off_c, 14, 55, 64
16, 118328, Note_on_c, 14, 43, 97
16, 118329, Note_on_c, 14, 55, 96
16, 118410, Note_off_c, 14, 43, 64
16, 118413, Note_off_c, 14, 55, 64
16, 118806, Note_on_c, 14, 54, 98
16, 118806, Note_on_c, 14, 51, 96
16, 118888, Note_off_c, 14, 54, 64
16, 118888, Note_off_c, 14, 51, 64
16, 119286, Note_on_c, 14, 55, 97
16, 119289, Note_on_c, 14, 43, 97
16, 119368, Note_off_c, 14, 55, 64
16, 119371, Note_off_c, 14, 43, 64
16, 119765, Note_on_c, 14, 58, 98
16, 119767, Note_on_c, 14, 54, 95
16, 119768, Note_on_c, 14, 51, 95
16, 119849, Note_off_c, 14, 58, 64
16, 119849, Note_off_c, 14, 54, 64
16, 119850, Note_off_c, 14, 51, 64
16, 120245, Note_on_c, 14, 43, 97
16, 120247, Note_on_c, 14, 55, 97
16, 120287, Note_off_c, 14, 43, 64
16, 120289, Note_off_c, 14, 55, 64
16, 120318, Note_on_c, 14, 43, 94
16, 120329, Note_on_c, 14, 55, 97
16, 120361, Note_off_c, 14, 43, 64
16, 120372, Note_off_c, 14, 55, 64
16, 120405, Note_on_c, 14, 43, 92
16, 120407, Note_on_c, 14, 55, 90
16, 120447, Note_off_c, 14, 43, 64
16, 120450, Note_off_c, 14, 55, 64
16, 120485, Note_on_c, 14, 55, 100
16, 120486, Note_on_c, 14, 43, 104
16, 120528, Note_off_c, 14, 55, 64
16, 120528, Note_off_c, 14, 43, 64
16, 120555, Note_on_c, 14, 55, 97
16, 120565, Note_on_c, 14, 43, 96
16, 120598, Note_off_c, 14, 55, 64
16, 120607, Note_off_c, 14, 43, 64
16, 120648, Note_on_c, 14, 55, 90
16, 120648, Note_on_c, 14, 43, 87
16, 120690, Note_off_c, 14, 43, 64
16, 120693, Note_off_c, 14, 55, 64
16, 120722, Note_on_c, 14, 55, 96
16, 120729, Note_on_c, 14, 43, 95
16, 120780, Note_off_c, 14, 55, 64
16, 120788, Note_off_c, 14, 43, 64
16, 121207, Note_on_c, 14, 43, 98
16, 121209, Note_on_c, 14, 55, 92
16, 121289, Note_off_c, 14, 43, 64
16, 121291, Note_off_c, 14, 55, 64
16, 121683, Note_on_c, 14, 43, 97
16, 121687, Note_on_c, 14, 55, 95
16, 121725, Note_off_c, 14, 43, 64
16, 121730, Note_off_c, 14, 55, 64
16, 121766, Note_on_c, 14, 55, 97
16, 121769, Note_on_c, 14, 43, 97
16, 121808, Note_off_c, 14, 55, 64
16, 121811, Note_off_c, 14, 43, 64
16, 121845, Note_on_c, 14, 43, 93
16, 121849, Note_on_c, 14, 55, 92
16, 121888, Note_off_c, 14, 43, 64
16, 121891, Note_off_c, 14, 55, 64
16, 122167, Note_on_c, 14, 43, 97
16, 122168, Note_on_c, 14, 55, 93
16, 122250, Note_off_c, 14, 55, 64
16, 122251, Note_off_c, 14, 43, 64
16, 122645, Note_on_c, 14, 42, 98
16, 122648, Note_on_c, 14, 54, 98
16, 122727, Note_off_c, 14, 42, 64
16, 122730, Note_off_c, 14, 54, 64
16, 123128, Note_on_c, 14, 51, 95
16, 123210, Note_off_c, 14, 51, 64
16, 123605, Note_on_c, 14, 48, 97
16, 123687, Note_off_c, 14, 48, 64
16, 124080, Note_on_c, 14, 43, 97
16, 124122, Note_off_c, 14, 43, 64
16, 124165, Note_on_c, 14, 43, 98
16, 124208, Note_off_c, 14, 43, 64
16, 124246, Note_on_c, 14, 43, 92
16, 124290, Note_off_c, 14, 43, 64
16, 124320, Control_c, 14, 11, 104
16, 124328, Note_on_c, 14, 43, 104
16, 124371, Note_off_c, 14, 43, 64
16, 124406, Note_on_c, 14, 43, 98
16, 124416, Control_c, 14, 11, 108
16, 124450, Note_off_c, 14, 43, 64
16, 124488, Control_c, 14, 11, 111
16, 124489, Note_on_c, 14, 43, 91
16, 124531, Note_off_c, 14, 43, 64
16, 124536, Control_c, 14, 11, 114
16, 124568, Note_on_c, 14, 43, 97
16, 124608, Control_c, 14, 11, 118
16, 124626, Note_off_c, 14, 43, 64
16, 124680, Control_c, 14, 11, 121
16, 124728, Control_c, 14, 11, 124
16, 124776, Control_c, 14, 11, 127
16, 124805, Note_on_c, 14, 51, 100
16, 125139, Note_off_c, 14, 51, 64
16, 125288, Note_on_c, 14, 51, 97
16, 125346, Note_off_c, 14, 51, 64
16, 125527, Note_on_c, 14, 51, 97
16, 125571, Note_off_c, 14, 51, 64
16, 125608, Note_on_c, 14, 51, 98
16, 125652, Note_off_c, 14, 51, 64
16, 125687, Note_on_c, 14, 51, 90
16, 125729, Note_off_c, 14, 51, 64
16, 125764, Note_on_c, 14, 43, 98
16, 125822, Note_off_c, 14, 43, 64
16, 126008, Note_on_c, 14, 43, 97
16, 126051, Note_off_c, 14, 43, 64
16, 126082, Note_on_c, 14, 43, 96
16, 126125, Note_off_c, 14, 43, 64
16, 126168, Note_on_c, 14, 43, 91
16, 126210, Note_off_c, 14, 43, 64
16, 126245, Note_on_c, 14, 43, 104
16, 126288, Note_off_c, 14, 43, 64
16, 126329, Note_on_c, 14, 43, 98
16, 126371, Note_off_c, 14, 43, 64
16, 126408, Note_on_c, 14, 43, 88
16, 126450, Note_off_c, 14, 43, 64
16, 126488, Note_on_c, 14, 43, 96
16, 126546, Note_off_c, 14, 43, 64
16, 126729, Note_on_c, 14, 49, 103
16, 127063, Note_off_c, 14, 49, 64
16, 127209, Note_on_c, 14, 49, 94
16, 127270, Note_off_c, 14, 49, 64
16, 127448, Note_on_c, 14, 49, 97
16, 127492, Note_off_c, 14, 49, 64
16, 127522, Note_on_c, 14, 49, 98
16, 127564, Note_off_c, 14, 49, 64
16, 127608, Note_on_c, 14, 49, 92
16, 127651, Note_off_c, 14, 49, 64
16, 127686, Note_on_c, 14, 49, 95
16, 127744, Note_off_c, 14, 49, 64
16, 127929, Note_on_c, 14, 49, 98
16, 127972, Note_off_c, 14, 49, 64
16, 128008, Note_on_c, 14, 49, 96
16, 128050, Note_off_c, 14, 49, 64
16, 128089, Note_on_c, 14, 49, 92
16, 128131, Note_off_c, 14, 49, 64
16, 128165, Note_on_c, 14, 49, 104
16, 128207, Note_off_c, 14, 49, 64
16, 128246, Note_on_c, 14, 49, 97
16, 128288, Note_off_c, 14, 49, 64
16, 128321, Note_on_c, 14, 49, 93
16, 128363, Note_off_c, 14, 49, 64
16, 128406, Note_on_c, 14, 49, 98
16, 128464, Note_off_c, 14, 49, 64
16, 128649, Note_on_c, 14, 51, 102
16, 128983, Note_off_c, 14, 51, 64
16, 129127, Note_on_c, 14, 51, 98
16, 129185, Note_off_c, 14, 51, 64
16, 129369, Note_on_c, 14, 51, 96
16, 129412, Note_off_c, 14, 51, 64
16, 129441, Note_on_c, 14, 51, 98
16, 129484, Note_off_c, 14, 51, 64
16, 129529, Note_on_c, 14, 51, 91
16, 129571, Note_off_c, 14, 51, 64
16, 129605, Note_on_c, 14, 51, 96
16, 129663, Note_off_c, 14, 51, 64
16, 129849, Note_on_c, 14, 51, 98
16, 129891, Note_off_c, 14, 51, 64
16, 129928, Note_on_c, 14, 51, 98
16, 129970, Note_off_c, 14, 51, 64
16, 130008, Note_on_c, 14, 51, 92
16, 130050, Note_off_c, 14, 51, 64
16, 130087, Note_on_c, 14, 48, 103
16, 130130, Note_off_c, 14, 48, 64
16, 130169, Note_on_c, 14, 48, 97
16, 130211, Note_off_c, 14, 48, 64
16, 130244, Note_on_c, 14, 48, 91
16, 130286, Note_off_c, 14, 48, 64
16, 130326, Note_on_c, 14, 48, 98
16, 130384, Note_off_c, 14, 48, 64
16, 130568, Note_on_c, 14, 43, 85
16, 130963, Note_off_c, 14, 43, 64
16, 131049, Note_on_c, 14, 48, 93
16, 131323, Note_off_c, 14, 48, 64
16, 131529, Note_on_c, 14, 43, 97
16, 131588, Note_off_c, 14, 43, 64
16, 131769, Note_on_c, 14, 43, 98
16, 131811, Note_off_c, 14, 43, 64
16, 131845, Note_on_c, 14, 43, 94
16, 131887, Note_off_c, 14, 43, 64
16, 131926, Note_on_c, 14, 43, 92
16, 131969, Note_off_c, 14, 43, 64
16, 132006, Note_on_c, 14, 43, 102
16, 132048, Note_off_c, 14, 43, 64
16, 132088, Note_on_c, 14, 43, 95
16, 132132, Note_off_c, 14, 43, 64
16, 132162, Note_on_c, 14, 43, 93
16, 132206, Note_off_c, 14, 43, 64
16, 132240, Control_c, 14, 11, 127
16, 132244, Note_on_c, 14, 43, 95
16, 132288, Control_c, 14, 11, 124
16, 132302, Note_off_c, 14, 43, 64
16, 132336, Control_c, 14, 11, 121
16, 132408, Control_c, 14, 11, 118
16, 132456, Control_c, 14, 11, 114
16, 132488, Note_on_c, 14, 43, 88
16, 132822, Note_off_c, 14, 43, 64
16, 132969, Note_on_c, 14, 43, 91
16, 133028, Note_off_c, 14, 43, 64
16, 133205, Note_on_c, 14, 43, 90
16, 133247, Note_off_c, 14, 43, 64
16, 133287, Note_on_c, 14, 43, 90
16, 133329, Note_off_c, 14, 43, 64
16, 133367, Note_on_c, 14, 43, 81
16, 133411, Note_off_c, 14, 43, 64
16, 133449, Note_on_c, 14, 43, 92
16, 133507, Note_off_c, 14, 43, 64
16, 133688, Note_on_c, 14, 43, 92
16, 133730, Note_off_c, 14, 43, 64
16, 133769, Note_on_c, 14, 43, 87
16, 133811, Note_off_c, 14, 43, 64
16, 133848, Note_on_c, 14, 43, 89
16, 133891, Note_off_c, 14, 43, 64
16, 133928, Note_on_c, 14, 51, 97
16, 133971, Note_off_c, 14, 51, 64
16, 134004, Note_on_c, 14, 51, 92
16, 134046, Note_off_c, 14, 51, 64
16, 134089, Note_on_c, 14, 51, 92
16, 134133, Note_off_c, 14, 51, 64
16, 134169, Note_on_c, 14, 51, 92
16, 134229, Note_off_c, 14, 51, 64
16, 134409, Note_on_c, 14, 43, 90
16, 134745, Note_off_c, 14, 43, 64
16, 134889, Note_on_c, 14, 43, 90
16, 134947, Note_off_c, 14, 43, 64
16, 135127, Note_on_c, 14, 43, 92
16, 135170, Note_off_c, 14, 43, 64
16, 135206, Note_on_c, 14, 43, 92
16, 135250, Note_off_c, 14, 43, 64
16, 135288, Note_on_c, 14, 43, 85
16, 135332, Note_off_c, 14, 43, 64
16, 135367, Note_on_c, 14, 43, 91
16, 135425, Note_off_c, 14, 43, 64
16, 135605, Note_on_c, 14, 43, 91
16, 135647, Note_off_c, 14, 43, 64
16, 135689, Note_on_c, 14, 43, 91
16, 135731, Note_off_c, 14, 43, 64
16, 135762, Note_on_c, 14, 43, 78
16, 135804, Note_off_c, 14, 43, 64
16, 135840, Control_c, 14, 11, 114
16, 135842, Note_on_c, 14, 51, 98
16, 135884, Note_off_c, 14, 51, 64
16, 135924, Note_on_c, 14, 51, 86
16, 135960, Control_c, 14, 11, 116
16, 135966, Note_off_c, 14, 51, 64
16, 136007, Note_on_c, 14, 51, 91
16, 136032, Control_c, 14, 11, 119
16, 136049, Note_off_c, 14, 51, 64
16, 136089, Note_on_c, 14, 51, 89
16, 136147, Note_off_c, 14, 51, 64
16, 136152, Control_c, 14, 11, 121
16, 136224, Control_c, 14, 11, 124
16, 136296, Control_c, 14, 11, 127
16, 136326, Note_on_c, 14, 43, 91
16, 136662, Note_off_c, 14, 43, 64
16, 136807, Note_on_c, 14, 43, 91
16, 136865, Note_off_c, 14, 43, 64
16, 137049, Note_on_c, 14, 43, 92
16, 137091, Note_off_c, 14, 43, 64
16, 137126, Note_on_c, 14, 43, 92
16, 137168, Note_off_c, 14, 43, 64
16, 137205, Note_on_c, 14, 43, 84
16, 137247, Note_off_c, 14, 43, 64
16, 137276, Note_on_c, 14, 43, 88
16, 137336, Note_off_c, 14, 43, 64
16, 137526, Note_on_c, 14, 43, 88
16, 137569, Note_off_c, 14, 43, 64
16, 137609, Note_on_c, 14, 43, 91
16, 137652, Note_off_c, 14, 43, 64
16, 137685, Note_on_c, 14, 43, 91
16, 137727, Note_off_c, 14, 43, 64
16, 137769, Note_on_c, 14, 51, 98
16, 137813, Note_off_c, 14, 51, 64
16, 137845, Note_on_c, 14, 51, 92
16, 137889, Note_off_c, 14, 51, 64
16, 137929, Note_on_c, 14, 51, 90
16, 137971, Note_off_c, 14, 51, 64
16, 138008, Note_on_c, 14, 51, 89
16, 138066, Note_off_c, 14, 51, 64
16, 138248, Note_on_c, 14, 43, 92
16, 138582, Note_off_c, 14, 43, 64
16, 138726, Note_on_c, 14, 43, 90
16, 138784, Note_off_c, 14, 43, 64
16, 138966, Note_on_c, 14, 43, 91
16, 139008, Note_off_c, 14, 43, 64
16, 139049, Note_on_c, 14, 43, 92
16, 139091, Note_off_c, 14, 43, 64
16, 139129, Note_on_c, 14, 43, 85
16, 139173, Note_off_c, 14, 43, 64
16, 139209, Note_on_c, 14, 43, 92
16, 139267, Note_off_c, 14, 43, 64
16, 139446, Note_on_c, 14, 43, 91
16, 139489, Note_off_c, 14, 43, 64
16, 139529, Note_on_c, 14, 43, 89
16, 139571, Note_off_c, 14, 43, 64
16, 139606, Note_on_c, 14, 43, 84
16, 139649, Note_off_c, 14, 43, 64
16, 139689, Note_on_c, 14, 51, 97
16, 139731, Note_off_c, 14, 51, 64
16, 139769, Note_on_c, 14, 51, 92
16, 139811, Note_off_c, 14, 51, 64
16, 139840, Note_on_c, 14, 51, 91
16, 139883, Note_off_c, 14, 51, 64
16, 139929, Note_on_c, 14, 51, 90
16, 139988, Note_off_c, 14, 51, 64
16, 140164, Note_on_c, 14, 43, 98
16, 140234, Note_off_c, 14, 43, 64
16, 144008, Note_on_c, 14, 43, 94
16, 144127, Note_off_c, 14, 43, 64
16, 144484, Note_on_c, 14, 43, 97
16, 144542, Note_off_c, 14, 43, 64
16, 144728, Note_on_c, 14, 43, 97
16, 144771, Note_off_c, 14, 43, 64
16, 144807, Note_on_c, 14, 43, 93
16, 144851, Note_off_c, 14, 43, 64
16, 144884, Note_on_c, 14, 43, 89
16, 144927, Note_off_c, 14, 43, 64
16, 144963, Note_on_c, 14, 43, 96
16, 145021, Note_off_c, 14, 43, 64
16, 145209, Note_on_c, 14, 43, 98
16, 145252, Note_off_c, 14, 43, 64
16, 145287, Note_on_c, 14, 43, 97
16, 145329, Note_off_c, 14, 43, 64
16, 145367, Note_on_c, 14, 43, 90
16, 145410, Note_off_c, 14, 43, 64
16, 145448, Note_on_c, 14, 43, 110
16, 145491, Note_off_c, 14, 43, 64
16, 145520, Note_on_c, 14, 43, 94
16, 145563, Note_off_c, 14, 43, 64
16, 145609, Note_on_c, 14, 43, 92
16, 145653, Note_off_c, 14, 43, 64
16, 145688, Note_on_c, 14, 43, 97
16, 145747, Note_off_c, 14, 43, 64
16, 145926, Note_on_c, 14, 43, 94
16, 146044, Note_off_c, 14, 43, 64
16, 146406, Note_on_c, 14, 43, 98
16, 146466, Note_off_c, 14, 43, 64
16, 146642, Note_on_c, 14, 43, 95
16, 146684, Note_off_c, 14, 43, 64
16, 146726, Note_on_c, 14, 43, 94
16, 146768, Note_off_c, 14, 43, 64
16, 146809, Note_on_c, 14, 43, 89
16, 146852, Note_off_c, 14, 43, 64
16, 146887, Note_on_c, 14, 43, 94
16, 146945, Note_off_c, 14, 43, 64
16, 147129, Note_on_c, 14, 43, 96
16, 147171, Note_off_c, 14, 43, 64
16, 147206, Note_on_c, 14, 43, 96
16, 147248, Note_off_c, 14, 43, 64
16, 147289, Note_on_c, 14, 43, 91
16, 147331, Note_off_c, 14, 43, 64
16, 147369, Note_on_c, 14, 43, 109
16, 147412, Note_off_c, 14, 43, 64
16, 147447, Note_on_c, 14, 43, 97
16, 147489, Note_off_c, 14, 43, 64
16, 147528, Note_on_c, 14, 43, 93
16, 147571, Note_off_c, 14, 43, 64
16, 147604, Note_on_c, 14, 43, 98
16, 147662, Note_off_c, 14, 43, 64
16, 147845, Note_on_c, 14, 43, 95
16, 147887, Note_off_c, 14, 43, 64
16, 147928, Note_on_c, 14, 43, 98
16, 147970, Note_off_c, 14, 43, 64
16, 148006, Note_on_c, 14, 43, 90
16, 148048, Note_off_c, 14, 43, 64
16, 148082, Note_on_c, 14, 50, 104
16, 148136, Note_off_c, 14, 50, 64
16, 148167, Note_on_c, 14, 48, 104
16, 148221, Note_off_c, 14, 48, 64
16, 148246, Note_on_c, 14, 50, 94
16, 148301, Note_off_c, 14, 50, 64
16, 148329, Note_on_c, 14, 51, 102
16, 148383, Note_off_c, 14, 51, 64
16, 148397, Note_on_c, 14, 50, 103
16, 148453, Note_off_c, 14, 50, 64
16, 148488, Note_on_c, 14, 51, 98
16, 148542, Note_off_c, 14, 51, 64
16, 148566, Note_on_c, 14, 53, 101
16, 148623, Note_off_c, 14, 53, 64
16, 148647, Note_on_c, 14, 51, 102
16, 148703, Note_off_c, 14, 51, 64
16, 148729, Note_on_c, 14, 53, 97
16, 148783, Note_off_c, 14, 53, 64
16, 148809, Note_on_c, 14, 55, 102
16, 148863, Note_off_c, 14, 55, 64
16, 148886, Note_on_c, 14, 53, 103
16, 148942, Note_off_c, 14, 53, 64
16, 148968, Note_on_c, 14, 55, 97
16, 149022, Note_off_c, 14, 55, 64
16, 149049, Note_on_c, 14, 56, 104
16, 149104, Note_off_c, 14, 56, 64
16, 149124, Note_on_c, 14, 55, 103
16, 149178, Note_off_c, 14, 55, 64
16, 149206, Note_on_c, 14, 56, 96
16, 149260, Note_off_c, 14, 56, 64
16, 149287, Note_on_c, 14, 58, 103
16, 149342, Note_off_c, 14, 58, 64
16, 149368, Note_on_c, 14, 56, 104
16, 149422, Note_off_c, 14, 56, 64
16, 149449, Note_on_c, 14, 58, 92
16, 149503, Note_off_c, 14, 58, 64
16, 149528, Note_on_c, 14, 60, 103
16, 149582, Note_off_c, 14, 60, 64
16, 149608, Note_on_c, 14, 58, 104
16, 149662, Note_off_c, 14, 58, 64
16, 149689, Note_on_c, 14, 60, 92
16, 149743, Note_off_c, 14, 60, 64
16, 149769, Note_on_c, 14, 62, 104
16, 149823, Note_off_c, 14, 62, 64
16, 150728, Note_on_c, 14, 48, 104
16, 150782, Note_off_c, 14, 48, 64
16, 150809, Note_on_c, 14, 48, 104
16, 150863, Note_off_c, 14, 48, 64
16, 150885, Note_on_c, 14, 50, 98
16, 150939, Note_off_c, 14, 50, 64
16, 150969, Note_on_c, 14, 51, 103
16, 151025, Note_off_c, 14, 51, 64
16, 151048, Note_on_c, 14, 53, 102
16, 151102, Note_off_c, 14, 53, 64
16, 151124, Note_on_c, 14, 55, 95
16, 151179, Note_off_c, 14, 55, 64
16, 151208, Note_on_c, 14, 56, 101
16, 151262, Note_off_c, 14, 56, 64
16, 151289, Note_on_c, 14, 58, 100
16, 151343, Note_off_c, 14, 58, 64
16, 151368, Note_on_c, 14, 60, 96
16, 151423, Note_off_c, 14, 60, 64
16, 151449, Note_on_c, 14, 62, 103
16, 151503, Note_off_c, 14, 62, 64
16, 151529, Note_on_c, 14, 63, 102
16, 151583, Note_off_c, 14, 63, 64
16, 151609, Note_on_c, 14, 65, 97
16, 151663, Note_off_c, 14, 65, 64
16, 151684, Note_on_c, 14, 67, 104
16, 151802, Note_off_c, 14, 67, 64
16, 152169, Note_on_c, 14, 55, 103
16, 152228, Note_off_c, 14, 55, 64
16, 152408, Note_on_c, 14, 55, 103
16, 152451, Note_off_c, 14, 55, 64
16, 152489, Note_on_c, 14, 55, 102
16, 152531, Note_off_c, 14, 55, 64
16, 152568, Note_on_c, 14, 55, 96
16, 152611, Note_off_c, 14, 55, 64
16, 152649, Note_on_c, 14, 54, 102
16, 152691, Note_off_c, 14, 54, 64
16, 152728, Note_on_c, 14, 54, 99
16, 152770, Note_off_c, 14, 54, 64
16, 152807, Note_on_c, 14, 54, 98
16, 152849, Note_off_c, 14, 54, 64
16, 152886, Note_on_c, 14, 55, 104
16, 152889, Note_on_c, 14, 43, 99
16, 152944, Note_off_c, 14, 55, 64
16, 152948, Note_off_c, 14, 43, 64
16, 153369, Note_on_c, 14, 54, 104
16, 153411, Note_off_c, 14, 54, 64
16, 153445, Note_on_c, 14, 54, 103
16, 153487, Note_off_c, 14, 54, 64
16, 153526, Note_on_c, 14, 54, 98
16, 153569, Note_off_c, 14, 54, 64
16, 153606, Note_on_c, 14, 54, 101
16, 153648, Note_off_c, 14, 54, 64
16, 153688, Note_on_c, 14, 54, 101
16, 153730, Note_off_c, 14, 54, 64
16, 153768, Note_on_c, 14, 54, 94
16, 153810, Note_off_c, 14, 54, 64
16, 153846, Note_on_c, 14, 43, 100
16, 153849, Note_on_c, 14, 55, 104
16, 153905, Note_off_c, 14, 43, 64
16, 153907, Note_off_c, 14, 55, 64
16, 154327, Note_on_c, 14, 54, 103
16, 154369, Note_off_c, 14, 54, 64
16, 154404, Note_on_c, 14, 54, 102
16, 154446, Note_off_c, 14, 54, 64
16, 154489, Note_on_c, 14, 54, 92
16, 154531, Note_off_c, 14, 54, 64
16, 154569, Note_on_c, 14, 51, 103
16, 154627, Note_off_c, 14, 51, 64
16, 154805, Note_on_c, 14, 50, 100
16, 154847, Note_off_c, 14, 50, 64
16, 154888, Note_on_c, 14, 50, 102
16, 154931, Note_off_c, 14, 50, 64
16, 154963, Note_on_c, 14, 50, 92
16, 155006, Note_off_c, 14, 50, 64
16, 155048, Note_on_c, 14, 43, 110
16, 155107, Note_off_c, 14, 43, 64
16, 159360, Control_c, 14, 123, 0
16, 159360, End_track
17, 0, Start_track
17, 0, Text_t, "Basses"
17, 0, Program_c, 15, 48
17, 0, Control_c, 15, 10, 119
17, 0, Control_c, 15, 7, 106
17, 0, Control_c, 15, 93, 5
17, 0, Control_c, 15, 91, 127
17, 0, Control_c, 15, 11, 127
17, 0, Control_c, 15, 123, 0
17, 5768, Note_on_c, 15, 31, 92
17, 6102, Note_off_c, 15, 31, 64
17, 6244, Note_on_c, 15, 31, 87
17, 6302, Note_off_c, 15, 31, 64
17, 6481, Note_on_c, 15, 31, 92
17, 6524, Note_off_c, 15, 31, 64
17, 6567, Note_on_c, 15, 31, 89
17, 6609, Note_off_c, 15, 31, 64
17, 6649, Note_on_c, 15, 31, 84
17, 6691, Note_off_c, 15, 31, 64
17, 6725, Note_on_c, 15, 31, 90
17, 6784, Note_off_c, 15, 31, 64
17, 6968, Note_on_c, 15, 31, 92
17, 7010, Note_off_c, 15, 31, 64
17, 7046, Note_on_c, 15, 31, 88
17, 7090, Note_off_c, 15, 31, 64
17, 7127, Note_on_c, 15, 31, 90
17, 7169, Note_off_c, 15, 31, 64
17, 7204, Note_on_c, 15, 39, 94
17, 7246, Note_off_c, 15, 39, 64
17, 7287, Note_on_c, 15, 39, 91
17, 7329, Note_off_c, 15, 39, 64
17, 7369, Note_on_c, 15, 39, 91
17, 7411, Note_off_c, 15, 39, 64
17, 7447, Note_on_c, 15, 39, 91
17, 7505, Note_off_c, 15, 39, 64
17, 7686, Note_on_c, 15, 31, 90
17, 8020, Note_off_c, 15, 31, 64
17, 8169, Note_on_c, 15, 31, 92
17, 8227, Note_off_c, 15, 31, 64
17, 8406, Note_on_c, 15, 31, 91
17, 8448, Note_off_c, 15, 31, 64
17, 8489, Note_on_c, 15, 31, 92
17, 8531, Note_off_c, 15, 31, 64
17, 8569, Note_on_c, 15, 31, 82
17, 8611, Note_off_c, 15, 31, 64
17, 8648, Note_on_c, 15, 31, 89
17, 8707, Note_off_c, 15, 31, 64
17, 8879, Note_on_c, 15, 31, 92
17, 8923, Note_off_c, 15, 31, 64
17, 8968, Note_on_c, 15, 31, 92
17, 9011, Note_off_c, 15, 31, 64
17, 9046, Note_on_c, 15, 31, 82
17, 9088, Note_off_c, 15, 31, 64
17, 9128, Note_on_c, 15, 39, 96
17, 9170, Note_off_c, 15, 39, 64
17, 9208, Note_on_c, 15, 39, 92
17, 9252, Note_off_c, 15, 39, 64
17, 9287, Note_on_c, 15, 39, 90
17, 9331, Note_off_c, 15, 39, 64
17, 9367, Note_on_c, 15, 39, 92
17, 9426, Note_off_c, 15, 39, 64
17, 9605, Note_on_c, 15, 31, 88
17, 9940, Note_off_c, 15, 31, 64
17, 10086, Note_on_c, 15, 31, 90
17, 10144, Note_off_c, 15, 31, 64
17, 10326, Note_on_c, 15, 31, 92
17, 10368, Note_off_c, 15, 31, 64
17, 10406, Note_on_c, 15, 31, 92
17, 10449, Note_off_c, 15, 31, 64
17, 10488, Note_on_c, 15, 31, 83
17, 10530, Note_off_c, 15, 31, 64
17, 10568, Note_on_c, 15, 31, 91
17, 10627, Note_off_c, 15, 31, 64
17, 10808, Note_on_c, 15, 31, 92
17, 10852, Note_off_c, 15, 31, 64
17, 10889, Note_on_c, 15, 31, 90
17, 10932, Note_off_c, 15, 31, 64
17, 10965, Note_on_c, 15, 31, 84
17, 11007, Note_off_c, 15, 31, 64
17, 11048, Note_on_c, 15, 31, 93
17, 11092, Note_off_c, 15, 31, 64
17, 11128, Note_on_c, 15, 31, 91
17, 11170, Note_off_c, 15, 31, 64
17, 11209, Note_on_c, 15, 31, 92
17, 11251, Note_off_c, 15, 31, 64
17, 11288, Note_on_c, 15, 31, 89
17, 11347, Note_off_c, 15, 31, 64
17, 11529, Note_on_c, 15, 31, 92
17, 11864, Note_off_c, 15, 31, 64
17, 12006, Note_on_c, 15, 31, 88
17, 12065, Note_off_c, 15, 31, 64
17, 12249, Note_on_c, 15, 31, 92
17, 12291, Note_off_c, 15, 31, 64
17, 12327, Note_on_c, 15, 31, 92
17, 12369, Note_off_c, 15, 31, 64
17, 12408, Note_on_c, 15, 31, 83
17, 12450, Note_off_c, 15, 31, 64
17, 12489, Note_on_c, 15, 31, 91
17, 12549, Note_off_c, 15, 31, 64
17, 12720, Control_c, 15, 11, 127
17, 12728, Note_on_c, 15, 31, 91
17, 12770, Note_off_c, 15, 31, 64
17, 12808, Note_on_c, 15, 31, 90
17, 12816, Control_c, 15, 11, 124
17, 12850, Note_off_c, 15, 31, 64
17, 12885, Note_on_c, 15, 31, 85
17, 12888, Control_c, 15, 11, 121
17, 12929, Note_off_c, 15, 31, 64
17, 12966, Note_on_c, 15, 31, 96
17, 13008, Note_off_c, 15, 31, 64
17, 13008, Control_c, 15, 11, 118
17, 13048, Note_on_c, 15, 31, 92
17, 13080, Control_c, 15, 11, 115
17, 13091, Note_off_c, 15, 31, 64
17, 13123, Note_on_c, 15, 31, 91
17, 13165, Note_off_c, 15, 31, 64
17, 13200, Control_c, 15, 11, 111
17, 13208, Note_on_c, 15, 31, 88
17, 13266, Note_off_c, 15, 31, 64
17, 13320, Control_c, 15, 11, 108
17, 13392, Control_c, 15, 11, 105
17, 13416, Control_c, 15, 11, 104
17, 13445, Note_on_c, 15, 31, 91
17, 13780, Note_off_c, 15, 31, 64
17, 13921, Note_on_c, 15, 31, 92
17, 13979, Note_off_c, 15, 31, 64
17, 14166, Note_on_c, 15, 31, 90
17, 14208, Note_off_c, 15, 31, 64
17, 14246, Note_on_c, 15, 31, 92
17, 14288, Note_off_c, 15, 31, 64
17, 14324, Note_on_c, 15, 31, 80
17, 14366, Note_off_c, 15, 31, 64
17, 14409, Note_on_c, 15, 31, 92
17, 14467, Note_off_c, 15, 31, 64
17, 14649, Note_on_c, 15, 31, 92
17, 14691, Note_off_c, 15, 31, 64
17, 14726, Note_on_c, 15, 31, 92
17, 14769, Note_off_c, 15, 31, 64
17, 14807, Note_on_c, 15, 31, 82
17, 14850, Note_off_c, 15, 31, 64
17, 14886, Note_on_c, 15, 31, 96
17, 14928, Note_off_c, 15, 31, 64
17, 14969, Note_on_c, 15, 31, 90
17, 15013, Note_off_c, 15, 31, 64
17, 15046, Note_on_c, 15, 31, 92
17, 15088, Note_off_c, 15, 31, 64
17, 15124, Note_on_c, 15, 31, 87
17, 15182, Note_off_c, 15, 31, 64
17, 15367, Note_on_c, 15, 31, 92
17, 15703, Note_off_c, 15, 31, 64
17, 15848, Note_on_c, 15, 31, 92
17, 15906, Note_off_c, 15, 31, 64
17, 16086, Note_on_c, 15, 31, 92
17, 16129, Note_off_c, 15, 31, 64
17, 16169, Note_on_c, 15, 31, 88
17, 16212, Note_off_c, 15, 31, 64
17, 16248, Note_on_c, 15, 31, 78
17, 16291, Note_off_c, 15, 31, 64
17, 16325, Note_on_c, 15, 31, 92
17, 16383, Note_off_c, 15, 31, 64
17, 16567, Note_on_c, 15, 31, 91
17, 16609, Note_off_c, 15, 31, 64
17, 16648, Note_on_c, 15, 31, 87
17, 16690, Note_off_c, 15, 31, 64
17, 16725, Note_on_c, 15, 31, 79
17, 16767, Note_off_c, 15, 31, 64
17, 16805, Note_on_c, 15, 31, 96
17, 16847, Note_off_c, 15, 31, 64
17, 16887, Note_on_c, 15, 31, 92
17, 16930, Note_off_c, 15, 31, 64
17, 16969, Note_on_c, 15, 31, 90
17, 17014, Note_off_c, 15, 31, 64
17, 17049, Note_on_c, 15, 31, 91
17, 17107, Note_off_c, 15, 31, 64
17, 17287, Note_on_c, 15, 31, 92
17, 17621, Note_off_c, 15, 31, 64
17, 17767, Note_on_c, 15, 31, 92
17, 17827, Note_off_c, 15, 31, 64
17, 18009, Note_on_c, 15, 31, 92
17, 18051, Note_off_c, 15, 31, 64
17, 18084, Note_on_c, 15, 31, 91
17, 18126, Note_off_c, 15, 31, 64
17, 18169, Note_on_c, 15, 31, 85
17, 18211, Note_off_c, 15, 31, 64
17, 18249, Note_on_c, 15, 31, 92
17, 18307, Note_off_c, 15, 31, 64
17, 18488, Note_on_c, 15, 31, 89
17, 18530, Note_off_c, 15, 31, 64
17, 18569, Note_on_c, 15, 31, 91
17, 18611, Note_off_c, 15, 31, 64
17, 18647, Note_on_c, 15, 31, 85
17, 18689, Note_off_c, 15, 31, 64
17, 18728, Note_on_c, 15, 31, 96
17, 18770, Note_off_c, 15, 31, 64
17, 18809, Note_on_c, 15, 31, 92
17, 18851, Note_off_c, 15, 31, 64
17, 18889, Note_on_c, 15, 31, 91
17, 18931, Note_off_c, 15, 31, 64
17, 18967, Note_on_c, 15, 31, 91
17, 19025, Note_off_c, 15, 31, 64
17, 19209, Note_on_c, 15, 39, 90
17, 19543, Note_off_c, 15, 39, 64
17, 19689, Note_on_c, 15, 39, 86
17, 19747, Note_off_c, 15, 39, 64
17, 19929, Note_on_c, 15, 39, 90
17, 19972, Note_off_c, 15, 39, 64
17, 20002, Note_on_c, 15, 39, 92
17, 20045, Note_off_c, 15, 39, 64
17, 20088, Note_on_c, 15, 39, 85
17, 20131, Note_off_c, 15, 39, 64
17, 20169, Note_on_c, 15, 31, 91
17, 20227, Note_off_c, 15, 31, 64
17, 20406, Note_on_c, 15, 31, 89
17, 20449, Note_off_c, 15, 31, 64
17, 20482, Note_on_c, 15, 31, 91
17, 20524, Note_off_c, 15, 31, 64
17, 20566, Note_on_c, 15, 31, 80
17, 20608, Note_off_c, 15, 31, 64
17, 20646, Note_on_c, 15, 31, 94
17, 20689, Note_off_c, 15, 31, 64
17, 20726, Note_on_c, 15, 31, 91
17, 20769, Note_off_c, 15, 31, 64
17, 20808, Note_on_c, 15, 31, 87
17, 20850, Note_off_c, 15, 31, 64
17, 20885, Note_on_c, 15, 31, 91
17, 20944, Note_off_c, 15, 31, 64
17, 21127, Note_on_c, 15, 31, 92
17, 21463, Note_off_c, 15, 31, 64
17, 21607, Note_on_c, 15, 31, 90
17, 21665, Note_off_c, 15, 31, 64
17, 21849, Note_on_c, 15, 31, 91
17, 21892, Note_off_c, 15, 31, 64
17, 21929, Note_on_c, 15, 31, 92
17, 21971, Note_off_c, 15, 31, 64
17, 22009, Note_on_c, 15, 31, 84
17, 22051, Note_off_c, 15, 31, 64
17, 22087, Note_on_c, 15, 31, 91
17, 22145, Note_off_c, 15, 31, 64
17, 22327, Note_on_c, 15, 31, 92
17, 22369, Note_off_c, 15, 31, 64
17, 22409, Note_on_c, 15, 31, 85
17, 22452, Note_off_c, 15, 31, 64
17, 22488, Note_on_c, 15, 31, 85
17, 22530, Note_off_c, 15, 31, 64
17, 22569, Note_on_c, 15, 31, 97
17, 22611, Note_off_c, 15, 31, 64
17, 22648, Note_on_c, 15, 31, 88
17, 22690, Note_off_c, 15, 31, 64
17, 22728, Note_on_c, 15, 31, 91
17, 22770, Note_off_c, 15, 31, 64
17, 22809, Note_on_c, 15, 31, 91
17, 22867, Note_off_c, 15, 31, 64
17, 23046, Note_on_c, 15, 37, 91
17, 23380, Note_off_c, 15, 37, 64
17, 23528, Note_on_c, 15, 37, 92
17, 23587, Note_off_c, 15, 37, 64
17, 23766, Note_on_c, 15, 37, 89
17, 23808, Note_off_c, 15, 37, 64
17, 23847, Note_on_c, 15, 37, 91
17, 23890, Note_off_c, 15, 37, 64
17, 23926, Note_on_c, 15, 37, 83
17, 23968, Note_off_c, 15, 37, 64
17, 24003, Note_on_c, 15, 37, 90
17, 24061, Note_off_c, 15, 37, 64
17, 24245, Note_on_c, 15, 37, 90
17, 24288, Note_off_c, 15, 37, 64
17, 24326, Note_on_c, 15, 37, 90
17, 24368, Note_off_c, 15, 37, 64
17, 24408, Note_on_c, 15, 37, 83
17, 24451, Note_off_c, 15, 37, 64
17, 24488, Note_on_c, 15, 43, 97
17, 24532, Note_off_c, 15, 43, 64
17, 24569, Note_on_c, 15, 43, 92
17, 24611, Note_off_c, 15, 43, 64
17, 24648, Note_on_c, 15, 43, 89
17, 24690, Note_off_c, 15, 43, 64
17, 24728, Note_on_c, 15, 37, 91
17, 24786, Note_off_c, 15, 37, 64
17, 24965, Note_on_c, 15, 39, 92
17, 25299, Note_off_c, 15, 39, 64
17, 25449, Note_on_c, 15, 39, 90
17, 25507, Note_off_c, 15, 39, 64
17, 25689, Note_on_c, 15, 39, 91
17, 25732, Note_off_c, 15, 39, 64
17, 25766, Note_on_c, 15, 39, 92
17, 25808, Note_off_c, 15, 39, 64
17, 25848, Note_on_c, 15, 39, 85
17, 25890, Note_off_c, 15, 39, 64
17, 25929, Note_on_c, 15, 39, 92
17, 26347, Note_off_c, 15, 39, 64
17, 26408, Note_on_c, 15, 39, 97
17, 26466, Note_off_c, 15, 39, 64
17, 26648, Note_on_c, 15, 39, 92
17, 26690, Note_off_c, 15, 39, 64
17, 26727, Note_on_c, 15, 39, 92
17, 26770, Note_off_c, 15, 39, 64
17, 26805, Note_on_c, 15, 39, 85
17, 26847, Note_off_c, 15, 39, 64
17, 26889, Note_on_c, 15, 31, 92
17, 27223, Note_off_c, 15, 31, 64
17, 27369, Note_on_c, 15, 39, 91
17, 27427, Note_off_c, 15, 39, 64
17, 27609, Note_on_c, 15, 39, 92
17, 27652, Note_off_c, 15, 39, 64
17, 27684, Note_on_c, 15, 39, 91
17, 27729, Note_off_c, 15, 39, 64
17, 27768, Note_on_c, 15, 39, 82
17, 27810, Note_off_c, 15, 39, 64
17, 27842, Note_on_c, 15, 31, 92
17, 27900, Note_off_c, 15, 31, 64
17, 28089, Note_on_c, 15, 31, 89
17, 28131, Note_off_c, 15, 31, 64
17, 28169, Note_on_c, 15, 31, 91
17, 28212, Note_off_c, 15, 31, 64
17, 28249, Note_on_c, 15, 31, 83
17, 28292, Note_off_c, 15, 31, 64
17, 28322, Note_on_c, 15, 43, 94
17, 28364, Note_off_c, 15, 43, 64
17, 28404, Note_on_c, 15, 43, 89
17, 28447, Note_off_c, 15, 43, 64
17, 28482, Note_on_c, 15, 43, 90
17, 28524, Note_off_c, 15, 43, 64
17, 28569, Note_on_c, 15, 31, 91
17, 28628, Note_off_c, 15, 31, 64
17, 28808, Note_on_c, 15, 39, 92
17, 29142, Note_off_c, 15, 39, 64
17, 29288, Note_on_c, 15, 39, 90
17, 29346, Note_off_c, 15, 39, 64
17, 29526, Note_on_c, 15, 39, 92
17, 29568, Note_off_c, 15, 39, 64
17, 29608, Note_on_c, 15, 39, 92
17, 29651, Note_off_c, 15, 39, 64
17, 29683, Note_on_c, 15, 39, 85
17, 29726, Note_off_c, 15, 39, 64
17, 29769, Note_on_c, 15, 31, 92
17, 29827, Note_off_c, 15, 31, 64
17, 30006, Note_on_c, 15, 31, 91
17, 30048, Note_off_c, 15, 31, 64
17, 30089, Note_on_c, 15, 31, 92
17, 30131, Note_off_c, 15, 31, 64
17, 30166, Note_on_c, 15, 31, 85
17, 30210, Note_off_c, 15, 31, 64
17, 30245, Note_on_c, 15, 31, 97
17, 30289, Note_off_c, 15, 31, 64
17, 30325, Note_on_c, 15, 31, 91
17, 30368, Note_off_c, 15, 31, 64
17, 30408, Note_on_c, 15, 31, 89
17, 30450, Note_off_c, 15, 31, 64
17, 30488, Note_on_c, 15, 31, 91
17, 30547, Note_off_c, 15, 31, 64
17, 30726, Note_on_c, 15, 37, 92
17, 31061, Note_off_c, 15, 37, 64
17, 31208, Note_on_c, 15, 37, 91
17, 31266, Note_off_c, 15, 37, 64
17, 31449, Note_on_c, 15, 37, 91
17, 31491, Note_off_c, 15, 37, 64
17, 31527, Note_on_c, 15, 37, 92
17, 31569, Note_off_c, 15, 37, 64
17, 31609, Note_on_c, 15, 37, 85
17, 31651, Note_off_c, 15, 37, 64
17, 31689, Note_on_c, 15, 37, 92
17, 31748, Note_off_c, 15, 37, 64
17, 31929, Note_on_c, 15, 37, 88
17, 31971, Note_off_c, 15, 37, 64
17, 32009, Note_on_c, 15, 37, 92
17, 32051, Note_off_c, 15, 37, 64
17, 32084, Note_on_c, 15, 37, 85
17, 32126, Note_off_c, 15, 37, 64
17, 32164, Note_on_c, 15, 37, 93
17, 32207, Note_off_c, 15, 37, 64
17, 32246, Note_on_c, 15, 37, 91
17, 32288, Note_off_c, 15, 37, 64
17, 32329, Note_on_c, 15, 37, 88
17, 32372, Note_off_c, 15, 37, 64
17, 32409, Note_on_c, 15, 37, 85
17, 32467, Note_off_c, 15, 37, 64
17, 32644, Note_on_c, 15, 39, 92
17, 32978, Note_off_c, 15, 39, 64
17, 33125, Note_on_c, 15, 39, 92
17, 33184, Note_off_c, 15, 39, 64
17, 33368, Note_on_c, 15, 39, 90
17, 33410, Note_off_c, 15, 39, 64
17, 33449, Note_on_c, 15, 39, 88
17, 33491, Note_off_c, 15, 39, 64
17, 33526, Note_on_c, 15, 39, 84
17, 33568, Note_off_c, 15, 39, 64
17, 33603, Note_on_c, 15, 39, 88
17, 33661, Note_off_c, 15, 39, 64
17, 33846, Note_on_c, 15, 39, 91
17, 33889, Note_off_c, 15, 39, 64
17, 33927, Note_on_c, 15, 39, 89
17, 33969, Note_off_c, 15, 39, 64
17, 34007, Note_on_c, 15, 39, 83
17, 34051, Note_off_c, 15, 39, 64
17, 34088, Note_on_c, 15, 36, 95
17, 34130, Note_off_c, 15, 36, 64
17, 34169, Note_on_c, 15, 36, 90
17, 34211, Note_off_c, 15, 36, 64
17, 34247, Note_on_c, 15, 36, 87
17, 34291, Note_off_c, 15, 36, 64
17, 34324, Note_on_c, 15, 36, 91
17, 34383, Note_off_c, 15, 36, 64
17, 34569, Note_on_c, 15, 31, 90
17, 34903, Note_off_c, 15, 31, 64
17, 35047, Note_on_c, 15, 36, 89
17, 35105, Note_off_c, 15, 36, 64
17, 35285, Note_on_c, 15, 36, 89
17, 35329, Note_off_c, 15, 36, 64
17, 35369, Note_on_c, 15, 36, 88
17, 35411, Note_off_c, 15, 36, 64
17, 35447, Note_on_c, 15, 36, 84
17, 35491, Note_off_c, 15, 36, 64
17, 35528, Note_on_c, 15, 31, 90
17, 35587, Note_off_c, 15, 31, 64
17, 35762, Note_on_c, 15, 31, 92
17, 35804, Note_off_c, 15, 31, 64
17, 35849, Note_on_c, 15, 31, 91
17, 35892, Note_off_c, 15, 31, 64
17, 35920, Note_on_c, 15, 31, 83
17, 35964, Note_off_c, 15, 31, 64
17, 36000, Control_c, 15, 11, 104
17, 36007, Note_on_c, 15, 31, 97
17, 36050, Note_off_c, 15, 31, 64
17, 36084, Control_c, 15, 11, 108
17, 36086, Note_on_c, 15, 31, 92
17, 36128, Note_off_c, 15, 31, 64
17, 36156, Control_c, 15, 11, 111
17, 36168, Note_on_c, 15, 31, 95
17, 36204, Control_c, 15, 11, 114
17, 36211, Note_off_c, 15, 31, 64
17, 36242, Note_on_c, 15, 31, 99
17, 36288, Control_c, 15, 11, 118
17, 36300, Note_off_c, 15, 31, 64
17, 36360, Control_c, 15, 11, 121
17, 36408, Control_c, 15, 11, 124
17, 36456, Control_c, 15, 11, 127
17, 36489, Note_on_c, 15, 31, 89
17, 36824, Note_off_c, 15, 31, 64
17, 36962, Note_on_c, 15, 31, 92
17, 37020, Note_off_c, 15, 31, 64
17, 37209, Note_on_c, 15, 31, 88
17, 37251, Note_off_c, 15, 31, 64
17, 37288, Note_on_c, 15, 31, 87
17, 37330, Note_off_c, 15, 31, 64
17, 37368, Note_on_c, 15, 31, 82
17, 37410, Note_off_c, 15, 31, 64
17, 37449, Note_on_c, 15, 31, 89
17, 37509, Note_off_c, 15, 31, 64
17, 37688, Note_on_c, 15, 31, 90
17, 37730, Note_off_c, 15, 31, 64
17, 37769, Note_on_c, 15, 31, 91
17, 37811, Note_off_c, 15, 31, 64
17, 37843, Note_on_c, 15, 31, 92
17, 37885, Note_off_c, 15, 31, 64
17, 37929, Note_on_c, 15, 27, 94
17, 37972, Note_off_c, 15, 27, 64
17, 38007, Note_on_c, 15, 27, 88
17, 38049, Note_off_c, 15, 27, 64
17, 38086, Note_on_c, 15, 27, 92
17, 38128, Note_off_c, 15, 27, 64
17, 38165, Note_on_c, 15, 27, 89
17, 38223, Note_off_c, 15, 27, 64
17, 38409, Note_on_c, 15, 31, 91
17, 38744, Note_off_c, 15, 31, 64
17, 38886, Note_on_c, 15, 31, 92
17, 38946, Note_off_c, 15, 31, 64
17, 39124, Note_on_c, 15, 31, 90
17, 39166, Note_off_c, 15, 31, 64
17, 39200, Note_on_c, 15, 31, 88
17, 39242, Note_off_c, 15, 31, 64
17, 39287, Note_on_c, 15, 31, 85
17, 39330, Note_off_c, 15, 31, 64
17, 39368, Note_on_c, 15, 31, 91
17, 39426, Note_off_c, 15, 31, 64
17, 39602, Note_on_c, 15, 31, 92
17, 39644, Note_off_c, 15, 31, 64
17, 39687, Note_on_c, 15, 31, 91
17, 39729, Note_off_c, 15, 31, 64
17, 39766, Note_on_c, 15, 31, 84
17, 39808, Note_off_c, 15, 31, 64
17, 39846, Note_on_c, 15, 27, 97
17, 39889, Note_off_c, 15, 27, 64
17, 39928, Note_on_c, 15, 27, 88
17, 39972, Note_off_c, 15, 27, 64
17, 40009, Note_on_c, 15, 27, 92
17, 40051, Note_off_c, 15, 27, 64
17, 40086, Note_on_c, 15, 27, 92
17, 40144, Note_off_c, 15, 27, 64
17, 40325, Note_on_c, 15, 31, 88
17, 40659, Note_off_c, 15, 31, 64
17, 40808, Note_on_c, 15, 31, 90
17, 40866, Note_off_c, 15, 31, 64
17, 41049, Note_on_c, 15, 31, 92
17, 41091, Note_off_c, 15, 31, 64
17, 41128, Note_on_c, 15, 31, 89
17, 41170, Note_off_c, 15, 31, 64
17, 41208, Note_on_c, 15, 31, 83
17, 41250, Note_off_c, 15, 31, 64
17, 41285, Note_on_c, 15, 31, 89
17, 41345, Note_off_c, 15, 31, 64
17, 41528, Note_on_c, 15, 31, 92
17, 41570, Note_off_c, 15, 31, 64
17, 41605, Note_on_c, 15, 31, 90
17, 41647, Note_off_c, 15, 31, 64
17, 41686, Note_on_c, 15, 31, 91
17, 41730, Note_off_c, 15, 31, 64
17, 41759, Note_on_c, 15, 39, 98
17, 41801, Note_off_c, 15, 39, 64
17, 41842, Note_on_c, 15, 39, 91
17, 41884, Note_off_c, 15, 39, 64
17, 41925, Note_on_c, 15, 39, 91
17, 41967, Note_off_c, 15, 39, 64
17, 42006, Note_on_c, 15, 39, 91
17, 42064, Note_off_c, 15, 39, 64
17, 42249, Note_on_c, 15, 31, 92
17, 42307, Note_off_c, 15, 31, 64
17, 42488, Note_on_c, 15, 31, 90
17, 42531, Note_off_c, 15, 31, 64
17, 42565, Note_on_c, 15, 31, 92
17, 42608, Note_off_c, 15, 31, 64
17, 42646, Note_on_c, 15, 31, 85
17, 42689, Note_off_c, 15, 31, 64
17, 42728, Note_on_c, 15, 31, 96
17, 42770, Note_off_c, 15, 31, 64
17, 42809, Note_on_c, 15, 31, 90
17, 42853, Note_off_c, 15, 31, 64
17, 42886, Note_on_c, 15, 31, 94
17, 42928, Note_off_c, 15, 31, 64
17, 42967, Note_on_c, 15, 31, 97
17, 43025, Note_off_c, 15, 31, 64
17, 43209, Note_on_c, 15, 31, 95
17, 43268, Note_off_c, 15, 31, 64
17, 43449, Note_on_c, 15, 31, 97
17, 43492, Note_off_c, 15, 31, 64
17, 43528, Note_on_c, 15, 31, 97
17, 43572, Note_off_c, 15, 31, 64
17, 43604, Note_on_c, 15, 31, 90
17, 43647, Note_off_c, 15, 31, 64
17, 43688, Note_on_c, 15, 31, 103
17, 43730, Note_off_c, 15, 31, 64
17, 51816, Control_c, 15, 11, 114
17, 51849, Note_on_c, 15, 31, 59
17, 51927, Note_off_c, 15, 31, 64
17, 52805, Note_on_c, 15, 31, 59
17, 52881, Note_off_c, 15, 31, 64
17, 53762, Note_on_c, 15, 31, 60
17, 53840, Note_off_c, 15, 31, 64
17, 54727, Note_on_c, 15, 31, 59
17, 54803, Note_off_c, 15, 31, 64
17, 55208, Note_on_c, 15, 31, 59
17, 55284, Note_off_c, 15, 31, 64
17, 55688, Note_on_c, 15, 32, 60
17, 55765, Note_off_c, 15, 32, 64
17, 56647, Note_on_c, 15, 32, 57
17, 56724, Note_off_c, 15, 32, 64
17, 57606, Note_on_c, 15, 32, 57
17, 57682, Note_off_c, 15, 32, 64
17, 58569, Note_on_c, 15, 33, 60
17, 58646, Note_off_c, 15, 33, 64
17, 59042, Note_on_c, 15, 28, 55
17, 59118, Note_off_c, 15, 28, 64
17, 59524, Note_on_c, 15, 33, 60
17, 59576, Note_off_c, 15, 33, 64
17, 60248, Note_on_c, 15, 33, 60
17, 60272, Note_off_c, 15, 33, 64
17, 60329, Note_on_c, 15, 33, 56
17, 60355, Note_off_c, 15, 33, 64
17, 60407, Note_on_c, 15, 33, 54
17, 60431, Note_off_c, 15, 33, 64
17, 60483, Note_on_c, 15, 33, 60
17, 60536, Note_off_c, 15, 33, 64
17, 61209, Note_on_c, 15, 33, 58
17, 61235, Note_off_c, 15, 33, 64
17, 61289, Note_on_c, 15, 33, 60
17, 61314, Note_off_c, 15, 33, 64
17, 61367, Note_on_c, 15, 33, 53
17, 61391, Note_off_c, 15, 33, 64
17, 61449, Note_on_c, 15, 33, 56
17, 61501, Note_off_c, 15, 33, 64
17, 61927, Note_on_c, 15, 29, 57
17, 61980, Note_off_c, 15, 29, 64
17, 62404, Note_on_c, 15, 33, 58
17, 62456, Note_off_c, 15, 33, 64
17, 63128, Note_on_c, 15, 33, 60
17, 63154, Note_off_c, 15, 33, 64
17, 63208, Note_on_c, 15, 33, 60
17, 63232, Note_off_c, 15, 33, 64
17, 63289, Note_on_c, 15, 33, 54
17, 63313, Note_off_c, 15, 33, 64
17, 63362, Note_on_c, 15, 33, 60
17, 63415, Note_off_c, 15, 33, 64
17, 64085, Note_on_c, 15, 33, 60
17, 64110, Note_off_c, 15, 33, 64
17, 64167, Note_on_c, 15, 33, 57
17, 64192, Note_off_c, 15, 33, 64
17, 64249, Note_on_c, 15, 33, 53
17, 64273, Note_off_c, 15, 33, 64
17, 64320, Control_c, 15, 11, 114
17, 64329, Note_on_c, 15, 33, 54
17, 64381, Note_off_c, 15, 33, 64
17, 64440, Control_c, 15, 11, 116
17, 64512, Control_c, 15, 11, 119
17, 64632, Control_c, 15, 11, 121
17, 64704, Control_c, 15, 11, 124
17, 64776, Control_c, 15, 11, 127
17, 64804, Note_on_c, 15, 33, 59
17, 64856, Note_off_c, 15, 33, 64
17, 65286, Note_on_c, 15, 33, 59
17, 65339, Note_off_c, 15, 33, 64
17, 65759, Note_on_c, 15, 33, 56
17, 65760, Control_c, 15, 11, 127
17, 65812, Note_off_c, 15, 33, 64
17, 65856, Control_c, 15, 11, 124
17, 65952, Control_c, 15, 11, 121
17, 66008, Note_on_c, 15, 33, 58
17, 66032, Note_off_c, 15, 33, 64
17, 66072, Control_c, 15, 11, 119
17, 66088, Note_on_c, 15, 33, 59
17, 66114, Note_off_c, 15, 33, 64
17, 66144, Control_c, 15, 11, 116
17, 66165, Note_on_c, 15, 33, 54
17, 66189, Note_off_c, 15, 33, 64
17, 66240, Control_c, 15, 11, 114
17, 66248, Note_on_c, 15, 33, 58
17, 66300, Note_off_c, 15, 33, 64
17, 66965, Note_on_c, 15, 33, 55
17, 66991, Note_off_c, 15, 33, 64
17, 67039, Note_on_c, 15, 33, 56
17, 67064, Note_off_c, 15, 33, 64
17, 67129, Note_on_c, 15, 33, 52
17, 67155, Note_off_c, 15, 33, 64
17, 67209, Note_on_c, 15, 33, 60
17, 67262, Note_off_c, 15, 33, 64
17, 67689, Note_on_c, 15, 44, 60
17, 68161, Note_on_c, 15, 41, 58
17, 68168, Note_off_c, 15, 44, 64
17, 68641, Note_off_c, 15, 41, 64
17, 68648, Note_on_c, 15, 38, 58
17, 69081, Note_off_c, 15, 38, 64
17, 69129, Note_on_c, 15, 33, 59
17, 69182, Note_off_c, 15, 33, 64
17, 69843, Note_on_c, 15, 33, 56
17, 69867, Note_off_c, 15, 33, 64
17, 69929, Note_on_c, 15, 33, 59
17, 69953, Note_off_c, 15, 33, 64
17, 70008, Note_on_c, 15, 33, 52
17, 70032, Note_off_c, 15, 33, 64
17, 70089, Note_on_c, 15, 33, 58
17, 70141, Note_off_c, 15, 33, 64
17, 70805, Note_on_c, 15, 33, 60
17, 70829, Note_off_c, 15, 33, 64
17, 70889, Note_on_c, 15, 33, 57
17, 70914, Note_off_c, 15, 33, 64
17, 70968, Note_on_c, 15, 33, 54
17, 70993, Note_off_c, 15, 33, 64
17, 71044, Note_on_c, 15, 33, 60
17, 71096, Note_off_c, 15, 33, 64
17, 71528, Note_on_c, 15, 33, 59
17, 71592, Note_off_c, 15, 33, 64
17, 72006, Note_on_c, 15, 33, 57
17, 72071, Note_off_c, 15, 33, 64
17, 72486, Note_on_c, 15, 33, 59
17, 72550, Note_off_c, 15, 33, 64
17, 72727, Note_on_c, 15, 33, 54
17, 72752, Note_off_c, 15, 33, 64
17, 72809, Note_on_c, 15, 33, 55
17, 72833, Note_off_c, 15, 33, 64
17, 72888, Note_on_c, 15, 33, 50
17, 72912, Note_off_c, 15, 33, 64
17, 72969, Note_on_c, 15, 34, 56
17, 73033, Note_off_c, 15, 34, 64
17, 73449, Note_on_c, 15, 34, 58
17, 73502, Note_off_c, 15, 34, 64
17, 73684, Note_on_c, 15, 34, 57
17, 73708, Note_off_c, 15, 34, 64
17, 73765, Note_on_c, 15, 34, 60
17, 73790, Note_off_c, 15, 34, 64
17, 73842, Note_on_c, 15, 34, 53
17, 73867, Note_off_c, 15, 34, 64
17, 73922, Note_on_c, 15, 34, 59
17, 73987, Note_off_c, 15, 34, 64
17, 74400, Control_c, 15, 11, 114
17, 74408, Note_on_c, 15, 34, 60
17, 74461, Note_off_c, 15, 34, 64
17, 74520, Control_c, 15, 11, 116
17, 74592, Control_c, 15, 11, 119
17, 74645, Note_on_c, 15, 34, 53
17, 74671, Note_off_c, 15, 34, 64
17, 74712, Control_c, 15, 11, 121
17, 74727, Note_on_c, 15, 34, 56
17, 74751, Note_off_c, 15, 34, 64
17, 74784, Control_c, 15, 11, 124
17, 74808, Note_on_c, 15, 34, 54
17, 74832, Note_off_c, 15, 34, 64
17, 74856, Control_c, 15, 11, 127
17, 74882, Note_on_c, 15, 40, 63
17, 74946, Note_off_c, 15, 40, 64
17, 75366, Note_on_c, 15, 40, 60
17, 75431, Note_off_c, 15, 40, 64
17, 75848, Note_on_c, 15, 40, 56
17, 75912, Note_off_c, 15, 40, 64
17, 76328, Note_on_c, 15, 40, 60
17, 76380, Note_off_c, 15, 40, 64
17, 76569, Note_on_c, 15, 40, 60
17, 76593, Note_off_c, 15, 40, 64
17, 76645, Note_on_c, 15, 40, 60
17, 76671, Note_off_c, 15, 40, 64
17, 76729, Note_on_c, 15, 40, 50
17, 76754, Note_off_c, 15, 40, 64
17, 76803, Note_on_c, 15, 40, 60
17, 76867, Note_off_c, 15, 40, 64
17, 77287, Note_on_c, 15, 28, 57
17, 77351, Note_off_c, 15, 28, 64
17, 77766, Note_on_c, 15, 40, 59
17, 77831, Note_off_c, 15, 40, 64
17, 78249, Note_on_c, 15, 40, 60
17, 78301, Note_off_c, 15, 40, 64
17, 78483, Note_on_c, 15, 40, 57
17, 78507, Note_off_c, 15, 40, 64
17, 78568, Note_on_c, 15, 40, 58
17, 78592, Note_off_c, 15, 40, 64
17, 78641, Note_on_c, 15, 40, 50
17, 78665, Note_off_c, 15, 40, 64
17, 78728, Note_on_c, 15, 42, 59
17, 78792, Note_off_c, 15, 42, 64
17, 79209, Note_on_c, 15, 30, 59
17, 79273, Note_off_c, 15, 30, 64
17, 80165, Note_on_c, 15, 42, 55
17, 80219, Note_off_c, 15, 42, 64
17, 80409, Note_on_c, 15, 42, 59
17, 80433, Note_off_c, 15, 42, 64
17, 80488, Note_on_c, 15, 42, 60
17, 80512, Note_off_c, 15, 42, 64
17, 80569, Note_on_c, 15, 42, 54
17, 80593, Note_off_c, 15, 42, 64
17, 80648, Note_on_c, 15, 42, 60
17, 80713, Note_off_c, 15, 42, 64
17, 81126, Note_on_c, 15, 30, 57
17, 81190, Note_off_c, 15, 30, 64
17, 82083, Note_on_c, 15, 42, 59
17, 82135, Note_off_c, 15, 42, 64
17, 82328, Note_on_c, 15, 42, 59
17, 82352, Note_off_c, 15, 42, 64
17, 82407, Note_on_c, 15, 42, 60
17, 82432, Note_off_c, 15, 42, 64
17, 82488, Note_on_c, 15, 42, 54
17, 82512, Note_off_c, 15, 42, 64
17, 82562, Note_on_c, 15, 34, 59
17, 82626, Note_off_c, 15, 34, 64
17, 83048, Note_on_c, 15, 36, 66
17, 83125, Note_off_c, 15, 36, 64
17, 83525, Note_on_c, 15, 34, 59
17, 83591, Note_off_c, 15, 34, 64
17, 84008, Note_on_c, 15, 34, 58
17, 84060, Note_off_c, 15, 34, 64
17, 84240, Note_on_c, 15, 34, 59
17, 84264, Note_off_c, 15, 34, 64
17, 84329, Note_on_c, 15, 34, 59
17, 84354, Note_off_c, 15, 34, 64
17, 84407, Note_on_c, 15, 34, 50
17, 84432, Note_off_c, 15, 34, 64
17, 84485, Note_on_c, 15, 34, 59
17, 84549, Note_off_c, 15, 34, 64
17, 84969, Note_on_c, 15, 30, 64
17, 85045, Note_off_c, 15, 30, 64
17, 85439, Note_on_c, 15, 34, 58
17, 85503, Note_off_c, 15, 34, 64
17, 85928, Note_on_c, 15, 34, 58
17, 85980, Note_off_c, 15, 34, 64
17, 86169, Note_on_c, 15, 34, 61
17, 86193, Note_off_c, 15, 34, 64
17, 86242, Note_on_c, 15, 34, 70
17, 86266, Note_off_c, 15, 34, 64
17, 86327, Note_on_c, 15, 34, 80
17, 86351, Note_off_c, 15, 34, 64
17, 86406, Note_on_c, 15, 35, 83
17, 86741, Note_off_c, 15, 35, 64
17, 86887, Note_on_c, 15, 35, 85
17, 86945, Note_off_c, 15, 35, 64
17, 87127, Note_on_c, 15, 35, 84
17, 87169, Note_off_c, 15, 35, 64
17, 87209, Note_on_c, 15, 35, 82
17, 87251, Note_off_c, 15, 35, 64
17, 87288, Note_on_c, 15, 35, 77
17, 87332, Note_off_c, 15, 35, 64
17, 87363, Note_on_c, 15, 35, 85
17, 87421, Note_off_c, 15, 35, 64
17, 87607, Note_on_c, 15, 35, 83
17, 87651, Note_off_c, 15, 35, 64
17, 87685, Note_on_c, 15, 35, 80
17, 87727, Note_off_c, 15, 35, 64
17, 87764, Note_on_c, 15, 35, 77
17, 87806, Note_off_c, 15, 35, 64
17, 87845, Note_on_c, 15, 35, 89
17, 87888, Note_off_c, 15, 35, 64
17, 87921, Note_on_c, 15, 35, 84
17, 87963, Note_off_c, 15, 35, 64
17, 88007, Note_on_c, 15, 35, 78
17, 88049, Note_off_c, 15, 35, 64
17, 88087, Note_on_c, 15, 35, 85
17, 88147, Note_off_c, 15, 35, 64
17, 88326, Note_on_c, 15, 35, 83
17, 88661, Note_off_c, 15, 35, 64
17, 88807, Note_on_c, 15, 35, 84
17, 88865, Note_off_c, 15, 35, 64
17, 89049, Note_on_c, 15, 35, 85
17, 89091, Note_off_c, 15, 35, 64
17, 89125, Note_on_c, 15, 35, 84
17, 89168, Note_off_c, 15, 35, 64
17, 89206, Note_on_c, 15, 35, 79
17, 89248, Note_off_c, 15, 35, 64
17, 89285, Note_on_c, 15, 35, 84
17, 89346, Note_off_c, 15, 35, 64
17, 89526, Note_on_c, 15, 35, 85
17, 89568, Note_off_c, 15, 35, 64
17, 89606, Note_on_c, 15, 35, 84
17, 89648, Note_off_c, 15, 35, 64
17, 89688, Note_on_c, 15, 35, 76
17, 89730, Note_off_c, 15, 35, 64
17, 89760, Note_on_c, 15, 35, 89
17, 89802, Note_off_c, 15, 35, 64
17, 89840, Note_on_c, 15, 35, 85
17, 89883, Note_off_c, 15, 35, 64
17, 89929, Note_on_c, 15, 35, 78
17, 89971, Note_off_c, 15, 35, 64
17, 90006, Note_on_c, 15, 35, 85
17, 90064, Note_off_c, 15, 35, 64
17, 90248, Note_on_c, 15, 36, 83
17, 90584, Note_off_c, 15, 36, 64
17, 90725, Note_on_c, 15, 36, 85
17, 90784, Note_off_c, 15, 36, 64
17, 90966, Note_on_c, 15, 36, 84
17, 91010, Note_off_c, 15, 36, 64
17, 91044, Note_on_c, 15, 36, 84
17, 91086, Note_off_c, 15, 36, 64
17, 91129, Note_on_c, 15, 36, 77
17, 91171, Note_off_c, 15, 36, 64
17, 91203, Note_on_c, 15, 36, 85
17, 91263, Note_off_c, 15, 36, 64
17, 91442, Note_on_c, 15, 36, 81
17, 91485, Note_off_c, 15, 36, 64
17, 91519, Note_on_c, 15, 36, 84
17, 91563, Note_off_c, 15, 36, 64
17, 91607, Note_on_c, 15, 36, 77
17, 91650, Note_off_c, 15, 36, 64
17, 91686, Note_on_c, 15, 47, 91
17, 91729, Note_off_c, 15, 47, 64
17, 91762, Note_on_c, 15, 47, 85
17, 91805, Note_off_c, 15, 47, 64
17, 91849, Note_on_c, 15, 47, 76
17, 91893, Note_off_c, 15, 47, 64
17, 91929, Note_on_c, 15, 47, 85
17, 91987, Note_off_c, 15, 47, 64
17, 92165, Note_on_c, 15, 36, 81
17, 92500, Note_off_c, 15, 36, 64
17, 92649, Note_on_c, 15, 36, 84
17, 92707, Note_off_c, 15, 36, 64
17, 92889, Note_on_c, 15, 36, 82
17, 92931, Note_off_c, 15, 36, 64
17, 92968, Note_on_c, 15, 36, 85
17, 93010, Note_off_c, 15, 36, 64
17, 93046, Note_on_c, 15, 36, 76
17, 93089, Note_off_c, 15, 36, 64
17, 93122, Note_on_c, 15, 36, 83
17, 93180, Note_off_c, 15, 36, 64
17, 93360, Control_c, 15, 11, 127
17, 93369, Note_on_c, 15, 36, 85
17, 93411, Note_off_c, 15, 36, 64
17, 93442, Note_on_c, 15, 36, 80
17, 93480, Control_c, 15, 11, 125
17, 93484, Note_off_c, 15, 36, 64
17, 93526, Note_on_c, 15, 36, 79
17, 93569, Note_off_c, 15, 36, 64
17, 93600, Control_c, 15, 11, 123
17, 93609, Note_on_c, 15, 47, 92
17, 93652, Note_off_c, 15, 47, 64
17, 93683, Note_on_c, 15, 47, 84
17, 93720, Control_c, 15, 11, 120
17, 93726, Note_off_c, 15, 47, 64
17, 93767, Note_on_c, 15, 47, 77
17, 93809, Note_off_c, 15, 47, 64
17, 93840, Control_c, 15, 11, 119
17, 93848, Note_on_c, 15, 47, 82
17, 93907, Note_off_c, 15, 47, 64
17, 93936, Control_c, 15, 11, 116
17, 94056, Control_c, 15, 11, 115
17, 94080, Control_c, 15, 11, 114
17, 94082, Note_on_c, 15, 31, 82
17, 94416, Note_off_c, 15, 31, 64
17, 94568, Note_on_c, 15, 31, 84
17, 94626, Note_off_c, 15, 31, 64
17, 94807, Note_on_c, 15, 31, 83
17, 94849, Note_off_c, 15, 31, 64
17, 94883, Note_on_c, 15, 31, 84
17, 94925, Note_off_c, 15, 31, 64
17, 94969, Note_on_c, 15, 31, 76
17, 95012, Note_off_c, 15, 31, 64
17, 95044, Note_on_c, 15, 31, 84
17, 95102, Note_off_c, 15, 31, 64
17, 95285, Note_on_c, 15, 31, 84
17, 95327, Note_off_c, 15, 31, 64
17, 95359, Note_on_c, 15, 31, 85
17, 95402, Note_off_c, 15, 31, 64
17, 95449, Note_on_c, 15, 31, 78
17, 95491, Note_off_c, 15, 31, 64
17, 95529, Note_on_c, 15, 42, 90
17, 95571, Note_off_c, 15, 42, 64
17, 95608, Note_on_c, 15, 42, 84
17, 95650, Note_off_c, 15, 42, 64
17, 95686, Note_on_c, 15, 42, 78
17, 95728, Note_off_c, 15, 42, 64
17, 95767, Note_on_c, 15, 42, 84
17, 95825, Note_off_c, 15, 42, 64
17, 96007, Note_on_c, 15, 31, 79
17, 96341, Note_off_c, 15, 31, 64
17, 96487, Note_on_c, 15, 42, 85
17, 96546, Note_off_c, 15, 42, 64
17, 96729, Note_on_c, 15, 42, 85
17, 96772, Note_off_c, 15, 42, 64
17, 96807, Note_on_c, 15, 42, 85
17, 96849, Note_off_c, 15, 42, 64
17, 96887, Note_on_c, 15, 42, 79
17, 96929, Note_off_c, 15, 42, 64
17, 96968, Note_on_c, 15, 31, 81
17, 97026, Note_off_c, 15, 31, 64
17, 97208, Note_on_c, 15, 31, 82
17, 97251, Note_off_c, 15, 31, 64
17, 97284, Note_on_c, 15, 31, 84
17, 97326, Note_off_c, 15, 31, 64
17, 97366, Note_on_c, 15, 31, 77
17, 97408, Note_off_c, 15, 31, 64
17, 97448, Note_on_c, 15, 31, 92
17, 97491, Note_off_c, 15, 31, 64
17, 97523, Note_on_c, 15, 31, 82
17, 97565, Note_off_c, 15, 31, 64
17, 97609, Note_on_c, 15, 31, 79
17, 97651, Note_off_c, 15, 31, 64
17, 97689, Note_on_c, 15, 31, 81
17, 97747, Note_off_c, 15, 31, 64
17, 97925, Note_on_c, 15, 31, 85
17, 98259, Note_off_c, 15, 31, 64
17, 98409, Note_on_c, 15, 31, 84
17, 98468, Note_off_c, 15, 31, 64
17, 98649, Note_on_c, 15, 31, 84
17, 98691, Note_off_c, 15, 31, 64
17, 98729, Note_on_c, 15, 31, 84
17, 98772, Note_off_c, 15, 31, 64
17, 98808, Note_on_c, 15, 31, 77
17, 98850, Note_off_c, 15, 31, 64
17, 98886, Note_on_c, 15, 31, 84
17, 98944, Note_off_c, 15, 31, 64
17, 99129, Note_on_c, 15, 31, 84
17, 99171, Note_off_c, 15, 31, 64
17, 99209, Note_on_c, 15, 31, 82
17, 99251, Note_off_c, 15, 31, 64
17, 99286, Note_on_c, 15, 31, 78
17, 99328, Note_off_c, 15, 31, 64
17, 99368, Note_on_c, 15, 30, 92
17, 99411, Note_off_c, 15, 30, 64
17, 99448, Note_on_c, 15, 30, 85
17, 99490, Note_off_c, 15, 30, 64
17, 99526, Note_on_c, 15, 30, 77
17, 99569, Note_off_c, 15, 30, 64
17, 99609, Note_on_c, 15, 30, 84
17, 99668, Note_off_c, 15, 30, 64
17, 99847, Note_on_c, 15, 39, 85
17, 100181, Note_off_c, 15, 39, 64
17, 100329, Note_on_c, 15, 36, 84
17, 100389, Note_off_c, 15, 36, 64
17, 100569, Note_on_c, 15, 36, 83
17, 100611, Note_off_c, 15, 36, 64
17, 100649, Note_on_c, 15, 36, 83
17, 100691, Note_off_c, 15, 36, 64
17, 100728, Note_on_c, 15, 36, 76
17, 100771, Note_off_c, 15, 36, 64
17, 100807, Note_on_c, 15, 31, 82
17, 100865, Note_off_c, 15, 31, 64
17, 101045, Note_on_c, 15, 31, 85
17, 101087, Note_off_c, 15, 31, 64
17, 101124, Note_on_c, 15, 31, 85
17, 101167, Note_off_c, 15, 31, 64
17, 101207, Note_on_c, 15, 31, 78
17, 101249, Note_off_c, 15, 31, 64
17, 101287, Note_on_c, 15, 31, 91
17, 101330, Note_off_c, 15, 31, 64
17, 101367, Note_on_c, 15, 31, 84
17, 101409, Note_off_c, 15, 31, 64
17, 101448, Note_on_c, 15, 31, 79
17, 101491, Note_off_c, 15, 31, 64
17, 101526, Note_on_c, 15, 31, 83
17, 101586, Note_off_c, 15, 31, 64
17, 101769, Note_on_c, 15, 31, 85
17, 102105, Note_off_c, 15, 31, 64
17, 102247, Note_on_c, 15, 31, 81
17, 102305, Note_off_c, 15, 31, 64
17, 102486, Note_on_c, 15, 31, 85
17, 102528, Note_off_c, 15, 31, 64
17, 102568, Note_on_c, 15, 31, 85
17, 102610, Note_off_c, 15, 31, 64
17, 102647, Note_on_c, 15, 31, 75
17, 102692, Note_off_c, 15, 31, 64
17, 102727, Note_on_c, 15, 31, 83
17, 102786, Note_off_c, 15, 31, 64
17, 102963, Note_on_c, 15, 31, 83
17, 103005, Note_off_c, 15, 31, 64
17, 103048, Note_on_c, 15, 31, 84
17, 103090, Note_off_c, 15, 31, 64
17, 103129, Note_on_c, 15, 31, 78
17, 103171, Note_off_c, 15, 31, 64
17, 103201, Note_on_c, 15, 31, 91
17, 103244, Note_off_c, 15, 31, 64
17, 103287, Note_on_c, 15, 31, 85
17, 103329, Note_off_c, 15, 31, 64
17, 103365, Note_on_c, 15, 31, 78
17, 103407, Note_off_c, 15, 31, 64
17, 103449, Note_on_c, 15, 31, 78
17, 103507, Note_off_c, 15, 31, 64
17, 103686, Note_on_c, 15, 37, 84
17, 104020, Note_off_c, 15, 37, 64
17, 104169, Note_on_c, 15, 37, 84
17, 104228, Note_off_c, 15, 37, 64
17, 104406, Note_on_c, 15, 37, 85
17, 104449, Note_off_c, 15, 37, 64
17, 104487, Note_on_c, 15, 37, 84
17, 104530, Note_off_c, 15, 37, 64
17, 104563, Note_on_c, 15, 37, 78
17, 104605, Note_off_c, 15, 37, 64
17, 104649, Note_on_c, 15, 37, 81
17, 104708, Note_off_c, 15, 37, 64
17, 104888, Note_on_c, 15, 37, 84
17, 104930, Note_off_c, 15, 37, 64
17, 104968, Note_on_c, 15, 37, 85
17, 105011, Note_off_c, 15, 37, 64
17, 105049, Note_on_c, 15, 37, 79
17, 105091, Note_off_c, 15, 37, 64
17, 105128, Note_on_c, 15, 37, 89
17, 105172, Note_off_c, 15, 37, 64
17, 105208, Note_on_c, 15, 37, 83
17, 105250, Note_off_c, 15, 37, 64
17, 105287, Note_on_c, 15, 37, 78
17, 105331, Note_off_c, 15, 37, 64
17, 105360, Note_on_c, 15, 37, 82
17, 105418, Note_off_c, 15, 37, 64
17, 105605, Note_on_c, 15, 39, 85
17, 105941, Note_off_c, 15, 39, 64
17, 106089, Note_on_c, 15, 39, 84
17, 106147, Note_off_c, 15, 39, 64
17, 106327, Note_on_c, 15, 39, 84
17, 106369, Note_off_c, 15, 39, 64
17, 106407, Note_on_c, 15, 39, 83
17, 106452, Note_off_c, 15, 39, 64
17, 106478, Note_on_c, 15, 39, 77
17, 106520, Note_off_c, 15, 39, 64
17, 106567, Note_on_c, 15, 39, 83
17, 106625, Note_off_c, 15, 39, 64
17, 106808, Note_on_c, 15, 39, 85
17, 106850, Note_off_c, 15, 39, 64
17, 106887, Note_on_c, 15, 39, 84
17, 106929, Note_off_c, 15, 39, 64
17, 106969, Note_on_c, 15, 39, 79
17, 107011, Note_off_c, 15, 39, 64
17, 107048, Note_on_c, 15, 39, 88
17, 107091, Note_off_c, 15, 39, 64
17, 107128, Note_on_c, 15, 39, 80
17, 107170, Note_off_c, 15, 39, 64
17, 107209, Note_on_c, 15, 39, 76
17, 107253, Note_off_c, 15, 39, 64
17, 107288, Note_on_c, 15, 39, 79
17, 107347, Note_off_c, 15, 39, 64
17, 107527, Note_on_c, 15, 31, 85
17, 107862, Note_off_c, 15, 31, 64
17, 108009, Note_on_c, 15, 31, 85
17, 108068, Note_off_c, 15, 31, 64
17, 108249, Note_on_c, 15, 31, 82
17, 108292, Note_off_c, 15, 31, 64
17, 108321, Note_on_c, 15, 31, 84
17, 108363, Note_off_c, 15, 31, 64
17, 108409, Note_on_c, 15, 31, 76
17, 108451, Note_off_c, 15, 31, 64
17, 108489, Note_on_c, 15, 31, 85
17, 108548, Note_off_c, 15, 31, 64
17, 108720, Control_c, 15, 11, 114
17, 108729, Note_on_c, 15, 31, 85
17, 108773, Note_off_c, 15, 31, 64
17, 108809, Note_on_c, 15, 31, 81
17, 108840, Control_c, 15, 11, 115
17, 108851, Note_off_c, 15, 31, 64
17, 108886, Note_on_c, 15, 31, 79
17, 108928, Note_off_c, 15, 31, 64
17, 108936, Control_c, 15, 11, 118
17, 108965, Note_on_c, 15, 31, 90
17, 109007, Note_off_c, 15, 31, 64
17, 109046, Note_on_c, 15, 31, 85
17, 109056, Control_c, 15, 11, 119
17, 109088, Note_off_c, 15, 31, 64
17, 109129, Note_on_c, 15, 31, 79
17, 109172, Note_off_c, 15, 31, 64
17, 109176, Control_c, 15, 11, 121
17, 109202, Note_on_c, 15, 31, 83
17, 109260, Note_off_c, 15, 31, 64
17, 109296, Control_c, 15, 11, 124
17, 109416, Control_c, 15, 11, 127
17, 109448, Note_on_c, 15, 39, 85
17, 109782, Note_off_c, 15, 39, 64
17, 109927, Note_on_c, 15, 39, 82
17, 109986, Note_off_c, 15, 39, 64
17, 110167, Note_on_c, 15, 39, 83
17, 110209, Note_off_c, 15, 39, 64
17, 110246, Note_on_c, 15, 39, 85
17, 110288, Note_off_c, 15, 39, 64
17, 110327, Note_on_c, 15, 39, 77
17, 110369, Note_off_c, 15, 39, 64
17, 110409, Note_on_c, 15, 31, 82
17, 110467, Note_off_c, 15, 31, 64
17, 110648, Note_on_c, 15, 31, 85
17, 110693, Note_off_c, 15, 31, 64
17, 110727, Note_on_c, 15, 31, 84
17, 110770, Note_off_c, 15, 31, 64
17, 110808, Note_on_c, 15, 31, 77
17, 110851, Note_off_c, 15, 31, 64
17, 110888, Note_on_c, 15, 31, 92
17, 110931, Note_off_c, 15, 31, 64
17, 110969, Note_on_c, 15, 31, 83
17, 111012, Note_off_c, 15, 31, 64
17, 111044, Note_on_c, 15, 31, 79
17, 111086, Note_off_c, 15, 31, 64
17, 111126, Note_on_c, 15, 31, 84
17, 111185, Note_off_c, 15, 31, 64
17, 111366, Note_on_c, 15, 37, 85
17, 111700, Note_off_c, 15, 37, 64
17, 111847, Note_on_c, 15, 37, 83
17, 111905, Note_off_c, 15, 37, 64
17, 112088, Note_on_c, 15, 37, 85
17, 112131, Note_off_c, 15, 37, 64
17, 112169, Note_on_c, 15, 37, 79
17, 112211, Note_off_c, 15, 37, 64
17, 112246, Note_on_c, 15, 37, 77
17, 112289, Note_off_c, 15, 37, 64
17, 112328, Note_on_c, 15, 37, 83
17, 112388, Note_off_c, 15, 37, 64
17, 112568, Note_on_c, 15, 37, 84
17, 112610, Note_off_c, 15, 37, 64
17, 112646, Note_on_c, 15, 37, 83
17, 112688, Note_off_c, 15, 37, 64
17, 112729, Note_on_c, 15, 37, 75
17, 112772, Note_off_c, 15, 37, 64
17, 112808, Note_on_c, 15, 37, 88
17, 112851, Note_off_c, 15, 37, 64
17, 112889, Note_on_c, 15, 37, 83
17, 112932, Note_off_c, 15, 37, 64
17, 112963, Note_on_c, 15, 37, 78
17, 113005, Note_off_c, 15, 37, 64
17, 113045, Note_on_c, 15, 37, 84
17, 113103, Note_off_c, 15, 37, 64
17, 113281, Note_on_c, 15, 39, 84
17, 113615, Note_off_c, 15, 39, 64
17, 113768, Note_on_c, 15, 39, 83
17, 113826, Note_off_c, 15, 39, 64
17, 114004, Note_on_c, 15, 39, 83
17, 114046, Note_off_c, 15, 39, 64
17, 114089, Note_on_c, 15, 39, 84
17, 114131, Note_off_c, 15, 39, 64
17, 114168, Note_on_c, 15, 39, 78
17, 114211, Note_off_c, 15, 39, 64
17, 114248, Note_on_c, 15, 39, 78
17, 114306, Note_off_c, 15, 39, 64
17, 114488, Note_on_c, 15, 39, 84
17, 114530, Note_off_c, 15, 39, 64
17, 114564, Note_on_c, 15, 39, 81
17, 114606, Note_off_c, 15, 39, 64
17, 114644, Note_on_c, 15, 39, 77
17, 114687, Note_off_c, 15, 39, 64
17, 114722, Note_on_c, 15, 36, 91
17, 114767, Note_off_c, 15, 36, 64
17, 114801, Note_on_c, 15, 36, 82
17, 114843, Note_off_c, 15, 36, 64
17, 114889, Note_on_c, 15, 36, 77
17, 114931, Note_off_c, 15, 36, 64
17, 114961, Note_on_c, 15, 36, 85
17, 115019, Note_off_c, 15, 36, 64
17, 115206, Note_on_c, 15, 31, 85
17, 115601, Note_off_c, 15, 31, 64
17, 115689, Note_on_c, 15, 36, 90
17, 115965, Note_off_c, 15, 36, 64
17, 116164, Note_on_c, 15, 31, 83
17, 116222, Note_off_c, 15, 31, 64
17, 116409, Note_on_c, 15, 31, 85
17, 116452, Note_off_c, 15, 31, 64
17, 116487, Note_on_c, 15, 31, 83
17, 116529, Note_off_c, 15, 31, 64
17, 116566, Note_on_c, 15, 31, 74
17, 116609, Note_off_c, 15, 31, 64
17, 116645, Note_on_c, 15, 31, 90
17, 116689, Note_off_c, 15, 31, 64
17, 116726, Note_on_c, 15, 31, 85
17, 116768, Note_off_c, 15, 31, 64
17, 116805, Note_on_c, 15, 31, 78
17, 116847, Note_off_c, 15, 31, 64
17, 116889, Note_on_c, 15, 31, 80
17, 116947, Note_off_c, 15, 31, 64
17, 117576, Control_c, 15, 11, 104
17, 117609, Note_on_c, 15, 31, 102
17, 117652, Note_off_c, 15, 31, 64
17, 117687, Note_on_c, 15, 31, 96
17, 117729, Note_off_c, 15, 31, 64
17, 117766, Note_on_c, 15, 31, 90
17, 117808, Note_off_c, 15, 31, 64
17, 117847, Note_on_c, 15, 31, 97
17, 117929, Note_off_c, 15, 31, 64
17, 118329, Note_on_c, 15, 31, 94
17, 118412, Note_off_c, 15, 31, 64
17, 118807, Note_on_c, 15, 39, 96
17, 118889, Note_off_c, 15, 39, 64
17, 119289, Note_on_c, 15, 31, 97
17, 119371, Note_off_c, 15, 31, 64
17, 119769, Note_on_c, 15, 39, 97
17, 119851, Note_off_c, 15, 39, 64
17, 120245, Note_on_c, 15, 31, 97
17, 120288, Note_off_c, 15, 31, 64
17, 120327, Note_on_c, 15, 31, 98
17, 120370, Note_off_c, 15, 31, 64
17, 120408, Note_on_c, 15, 31, 91
17, 120451, Note_off_c, 15, 31, 64
17, 120488, Note_on_c, 15, 31, 102
17, 120530, Note_off_c, 15, 31, 64
17, 120562, Note_on_c, 15, 31, 97
17, 120604, Note_off_c, 15, 31, 64
17, 120649, Note_on_c, 15, 31, 90
17, 120692, Note_off_c, 15, 31, 64
17, 120726, Note_on_c, 15, 31, 98
17, 120784, Note_off_c, 15, 31, 64
17, 121203, Note_on_c, 15, 31, 97
17, 121285, Note_off_c, 15, 31, 64
17, 121689, Note_on_c, 15, 31, 98
17, 121731, Note_off_c, 15, 31, 64
17, 121767, Note_on_c, 15, 31, 98
17, 121809, Note_off_c, 15, 31, 64
17, 121848, Note_on_c, 15, 31, 93
17, 121891, Note_off_c, 15, 31, 64
17, 122168, Note_on_c, 15, 31, 95
17, 122251, Note_off_c, 15, 31, 64
17, 122646, Note_on_c, 15, 30, 98
17, 122729, Note_off_c, 15, 30, 64
17, 123127, Note_on_c, 15, 39, 93
17, 123210, Note_off_c, 15, 39, 64
17, 123608, Note_on_c, 15, 36, 95
17, 123692, Note_off_c, 15, 36, 64
17, 124089, Note_on_c, 15, 31, 96
17, 124132, Note_off_c, 15, 31, 64
17, 124161, Note_on_c, 15, 31, 95
17, 124203, Note_off_c, 15, 31, 64
17, 124249, Note_on_c, 15, 31, 87
17, 124291, Note_off_c, 15, 31, 64
17, 124320, Control_c, 15, 11, 104
17, 124328, Note_on_c, 15, 31, 104
17, 124370, Note_off_c, 15, 31, 64
17, 124408, Note_on_c, 15, 31, 98
17, 124416, Control_c, 15, 11, 108
17, 124450, Note_off_c, 15, 31, 64
17, 124488, Control_c, 15, 11, 111
17, 124488, Note_on_c, 15, 31, 89
17, 124531, Note_off_c, 15, 31, 64
17, 124536, Control_c, 15, 11, 114
17, 124569, Note_on_c, 15, 31, 95
17, 124608, Control_c, 15, 11, 118
17, 124627, Note_off_c, 15, 31, 64
17, 124680, Control_c, 15, 11, 121
17, 124728, Control_c, 15, 11, 124
17, 124776, Control_c, 15, 11, 127
17, 124809, Note_on_c, 15, 39, 103
17, 125143, Note_off_c, 15, 39, 64
17, 125287, Note_on_c, 15, 39, 98
17, 125346, Note_off_c, 15, 39, 64
17, 125525, Note_on_c, 15, 39, 94
17, 125567, Note_off_c, 15, 39, 64
17, 125609, Note_on_c, 15, 39, 97
17, 125651, Note_off_c, 15, 39, 64
17, 125689, Note_on_c, 15, 39, 89
17, 125733, Note_off_c, 15, 39, 64
17, 125769, Note_on_c, 15, 31, 98
17, 125827, Note_off_c, 15, 31, 64
17, 126009, Note_on_c, 15, 31, 97
17, 126053, Note_off_c, 15, 31, 64
17, 126089, Note_on_c, 15, 31, 98
17, 126133, Note_off_c, 15, 31, 64
17, 126169, Note_on_c, 15, 31, 89
17, 126211, Note_off_c, 15, 31, 64
17, 126248, Note_on_c, 15, 31, 103
17, 126290, Note_off_c, 15, 31, 64
17, 126328, Note_on_c, 15, 31, 93
17, 126370, Note_off_c, 15, 31, 64
17, 126405, Note_on_c, 15, 31, 88
17, 126447, Note_off_c, 15, 31, 64
17, 126486, Note_on_c, 15, 31, 98
17, 126544, Note_off_c, 15, 31, 64
17, 126728, Note_on_c, 15, 37, 104
17, 127062, Note_off_c, 15, 37, 64
17, 127208, Note_on_c, 15, 37, 98
17, 127266, Note_off_c, 15, 37, 64
17, 127449, Note_on_c, 15, 37, 98
17, 127491, Note_off_c, 15, 37, 64
17, 127528, Note_on_c, 15, 37, 97
17, 127570, Note_off_c, 15, 37, 64
17, 127609, Note_on_c, 15, 37, 88
17, 127651, Note_off_c, 15, 37, 64
17, 127681, Note_on_c, 15, 37, 95
17, 127739, Note_off_c, 15, 37, 64
17, 127928, Note_on_c, 15, 37, 98
17, 127970, Note_off_c, 15, 37, 64
17, 128008, Note_on_c, 15, 37, 97
17, 128050, Note_off_c, 15, 37, 64
17, 128088, Note_on_c, 15, 37, 89
17, 128130, Note_off_c, 15, 37, 64
17, 128169, Note_on_c, 15, 37, 102
17, 128212, Note_off_c, 15, 37, 64
17, 128244, Note_on_c, 15, 37, 93
17, 128287, Note_off_c, 15, 37, 64
17, 128329, Note_on_c, 15, 37, 91
17, 128371, Note_off_c, 15, 37, 64
17, 128409, Note_on_c, 15, 37, 98
17, 128467, Note_off_c, 15, 37, 64
17, 128649, Note_on_c, 15, 39, 102
17, 128984, Note_off_c, 15, 39, 64
17, 129122, Note_on_c, 15, 39, 98
17, 129180, Note_off_c, 15, 39, 64
17, 129369, Note_on_c, 15, 39, 95
17, 129411, Note_off_c, 15, 39, 64
17, 129447, Note_on_c, 15, 39, 97
17, 129490, Note_off_c, 15, 39, 64
17, 129528, Note_on_c, 15, 39, 92
17, 129570, Note_off_c, 15, 39, 64
17, 129608, Note_on_c, 15, 39, 97
17, 129667, Note_off_c, 15, 39, 64
17, 129844, Note_on_c, 15, 39, 94
17, 129888, Note_off_c, 15, 39, 64
17, 129929, Note_on_c, 15, 39, 98
17, 129973, Note_off_c, 15, 39, 64
17, 130006, Note_on_c, 15, 39, 90
17, 130049, Note_off_c, 15, 39, 64
17, 130084, Note_on_c, 15, 36, 104
17, 130128, Note_off_c, 15, 36, 64
17, 130166, Note_on_c, 15, 36, 91
17, 130209, Note_off_c, 15, 36, 64
17, 130247, Note_on_c, 15, 36, 91
17, 130290, Note_off_c, 15, 36, 64
17, 130329, Note_on_c, 15, 36, 95
17, 130388, Note_off_c, 15, 36, 64
17, 130565, Note_on_c, 15, 31, 85
17, 130959, Note_off_c, 15, 31, 64
17, 131048, Note_on_c, 15, 36, 91
17, 131324, Note_off_c, 15, 36, 64
17, 131527, Note_on_c, 15, 31, 98
17, 131585, Note_off_c, 15, 31, 64
17, 131759, Note_on_c, 15, 31, 95
17, 131801, Note_off_c, 15, 31, 64
17, 131849, Note_on_c, 15, 31, 98
17, 131891, Note_off_c, 15, 31, 64
17, 131929, Note_on_c, 15, 31, 89
17, 131973, Note_off_c, 15, 31, 64
17, 132006, Note_on_c, 15, 31, 103
17, 132049, Note_off_c, 15, 31, 64
17, 132088, Note_on_c, 15, 31, 97
17, 132130, Note_off_c, 15, 31, 64
17, 132169, Note_on_c, 15, 31, 89
17, 132211, Note_off_c, 15, 31, 64
17, 132240, Control_c, 15, 11, 127
17, 132247, Note_on_c, 15, 31, 98
17, 132288, Control_c, 15, 11, 124
17, 132305, Note_off_c, 15, 31, 64
17, 132336, Control_c, 15, 11, 121
17, 132408, Control_c, 15, 11, 118
17, 132456, Control_c, 15, 11, 114
17, 132487, Note_on_c, 15, 31, 90
17, 132821, Note_off_c, 15, 31, 64
17, 132969, Note_on_c, 15, 31, 91
17, 133028, Note_off_c, 15, 31, 64
17, 133206, Note_on_c, 15, 31, 92
17, 133248, Note_off_c, 15, 31, 64
17, 133288, Note_on_c, 15, 31, 89
17, 133330, Note_off_c, 15, 31, 64
17, 133364, Note_on_c, 15, 31, 82
17, 133406, Note_off_c, 15, 31, 64
17, 133448, Note_on_c, 15, 31, 92
17, 133506, Note_off_c, 15, 31, 64
17, 133686, Note_on_c, 15, 31, 92
17, 133728, Note_off_c, 15, 31, 64
17, 133767, Note_on_c, 15, 31, 91
17, 133811, Note_off_c, 15, 31, 64
17, 133848, Note_on_c, 15, 31, 92
17, 133893, Note_off_c, 15, 31, 64
17, 133928, Note_on_c, 15, 39, 94
17, 133970, Note_off_c, 15, 39, 64
17, 134001, Note_on_c, 15, 39, 92
17, 134043, Note_off_c, 15, 39, 64
17, 134085, Note_on_c, 15, 39, 92
17, 134129, Note_off_c, 15, 39, 64
17, 134168, Note_on_c, 15, 39, 89
17, 134226, Note_off_c, 15, 39, 64
17, 134406, Note_on_c, 15, 31, 92
17, 134740, Note_off_c, 15, 31, 64
17, 134887, Note_on_c, 15, 31, 92
17, 134945, Note_off_c, 15, 31, 64
17, 135122, Note_on_c, 15, 31, 91
17, 135164, Note_off_c, 15, 31, 64
17, 135208, Note_on_c, 15, 31, 87
17, 135250, Note_off_c, 15, 31, 64
17, 135289, Note_on_c, 15, 31, 85
17, 135332, Note_off_c, 15, 31, 64
17, 135367, Note_on_c, 15, 31, 89
17, 135425, Note_off_c, 15, 31, 64
17, 135609, Note_on_c, 15, 31, 90
17, 135651, Note_off_c, 15, 31, 64
17, 135686, Note_on_c, 15, 31, 91
17, 135730, Note_off_c, 15, 31, 64
17, 135767, Note_on_c, 15, 31, 83
17, 135809, Note_off_c, 15, 31, 64
17, 135840, Control_c, 15, 11, 114
17, 135847, Note_on_c, 15, 39, 98
17, 135891, Note_off_c, 15, 39, 64
17, 135928, Note_on_c, 15, 39, 91
17, 135960, Control_c, 15, 11, 116
17, 135970, Note_off_c, 15, 39, 64
17, 136009, Note_on_c, 15, 39, 89
17, 136032, Control_c, 15, 11, 119
17, 136052, Note_off_c, 15, 39, 64
17, 136089, Note_on_c, 15, 39, 92
17, 136147, Note_off_c, 15, 39, 64
17, 136152, Control_c, 15, 11, 121
17, 136224, Control_c, 15, 11, 124
17, 136296, Control_c, 15, 11, 127
17, 136324, Note_on_c, 15, 31, 92
17, 136658, Note_off_c, 15, 31, 64
17, 136809, Note_on_c, 15, 31, 91
17, 136867, Note_off_c, 15, 31, 64
17, 137049, Note_on_c, 15, 31, 92
17, 137091, Note_off_c, 15, 31, 64
17, 137129, Note_on_c, 15, 31, 91
17, 137171, Note_off_c, 15, 31, 64
17, 137209, Note_on_c, 15, 31, 85
17, 137252, Note_off_c, 15, 31, 64
17, 137287, Note_on_c, 15, 31, 90
17, 137346, Note_off_c, 15, 31, 64
17, 137529, Note_on_c, 15, 31, 91
17, 137573, Note_off_c, 15, 31, 64
17, 137605, Note_on_c, 15, 31, 91
17, 137647, Note_off_c, 15, 31, 64
17, 137689, Note_on_c, 15, 31, 90
17, 137732, Note_off_c, 15, 31, 64
17, 137761, Note_on_c, 15, 39, 93
17, 137803, Note_off_c, 15, 39, 64
17, 137845, Note_on_c, 15, 39, 89
17, 137888, Note_off_c, 15, 39, 64
17, 137928, Note_on_c, 15, 39, 90
17, 137972, Note_off_c, 15, 39, 64
17, 138003, Note_on_c, 15, 39, 92
17, 138063, Note_off_c, 15, 39, 64
17, 138245, Note_on_c, 15, 31, 92
17, 138579, Note_off_c, 15, 31, 64
17, 138729, Note_on_c, 15, 31, 92
17, 138788, Note_off_c, 15, 31, 64
17, 138968, Note_on_c, 15, 31, 90
17, 139010, Note_off_c, 15, 31, 64
17, 139049, Note_on_c, 15, 31, 91
17, 139092, Note_off_c, 15, 31, 64
17, 139126, Note_on_c, 15, 31, 85
17, 139168, Note_off_c, 15, 31, 64
17, 139209, Note_on_c, 15, 31, 91
17, 139267, Note_off_c, 15, 31, 64
17, 139447, Note_on_c, 15, 31, 92
17, 139489, Note_off_c, 15, 31, 64
17, 139524, Note_on_c, 15, 31, 91
17, 139566, Note_off_c, 15, 31, 64
17, 139606, Note_on_c, 15, 31, 83
17, 139648, Note_off_c, 15, 31, 64
17, 139688, Note_on_c, 15, 39, 96
17, 139730, Note_off_c, 15, 39, 64
17, 139767, Note_on_c, 15, 39, 92
17, 139810, Note_off_c, 15, 39, 64
17, 139848, Note_on_c, 15, 39, 92
17, 139891, Note_off_c, 15, 39, 64
17, 139928, Note_on_c, 15, 39, 91
17, 139986, Note_off_c, 15, 39, 64
17, 140166, Note_on_c, 15, 31, 95
17, 140236, Note_off_c, 15, 31, 64
17, 144001, Note_on_c, 15, 31, 98
17, 144119, Note_off_c, 15, 31, 64
17, 144486, Note_on_c, 15, 31, 98
17, 144544, Note_off_c, 15, 31, 64
17, 144722, Note_on_c, 15, 31, 98
17, 144764, Note_off_c, 15, 31, 64
17, 144809, Note_on_c, 15, 31, 96
17, 144851, Note_off_c, 15, 31, 64
17, 144884, Note_on_c, 15, 31, 91
17, 144927, Note_off_c, 15, 31, 64
17, 144967, Note_on_c, 15, 31, 97
17, 145026, Note_off_c, 15, 31, 64
17, 145205, Note_on_c, 15, 31, 97
17, 145247, Note_off_c, 15, 31, 64
17, 145285, Note_on_c, 15, 31, 97
17, 145327, Note_off_c, 15, 31, 64
17, 145365, Note_on_c, 15, 31, 91
17, 145408, Note_off_c, 15, 31, 64
17, 145445, Note_on_c, 15, 31, 109
17, 145487, Note_off_c, 15, 31, 64
17, 145526, Note_on_c, 15, 31, 97
17, 145568, Note_off_c, 15, 31, 64
17, 145609, Note_on_c, 15, 31, 91
17, 145651, Note_off_c, 15, 31, 64
17, 145688, Note_on_c, 15, 31, 98
17, 145746, Note_off_c, 15, 31, 64
17, 145921, Note_on_c, 15, 31, 96
17, 146040, Note_off_c, 15, 31, 64
17, 146409, Note_on_c, 15, 31, 98
17, 146467, Note_off_c, 15, 31, 64
17, 146647, Note_on_c, 15, 31, 98
17, 146690, Note_off_c, 15, 31, 64
17, 146724, Note_on_c, 15, 31, 98
17, 146769, Note_off_c, 15, 31, 64
17, 146807, Note_on_c, 15, 31, 89
17, 146849, Note_off_c, 15, 31, 64
17, 146884, Note_on_c, 15, 31, 98
17, 146942, Note_off_c, 15, 31, 64
17, 147120, Note_on_c, 15, 31, 96
17, 147163, Note_off_c, 15, 31, 64
17, 147208, Note_on_c, 15, 31, 95
17, 147250, Note_off_c, 15, 31, 64
17, 147288, Note_on_c, 15, 31, 88
17, 147330, Note_off_c, 15, 31, 64
17, 147369, Note_on_c, 15, 31, 110
17, 147411, Note_off_c, 15, 31, 64
17, 147449, Note_on_c, 15, 31, 98
17, 147492, Note_off_c, 15, 31, 64
17, 147528, Note_on_c, 15, 31, 93
17, 147570, Note_off_c, 15, 31, 64
17, 147602, Note_on_c, 15, 31, 94
17, 147662, Note_off_c, 15, 31, 64
17, 147843, Note_on_c, 15, 31, 97
17, 147886, Note_off_c, 15, 31, 64
17, 147927, Note_on_c, 15, 31, 97
17, 147969, Note_off_c, 15, 31, 64
17, 148008, Note_on_c, 15, 31, 88
17, 148050, Note_off_c, 15, 31, 64
17, 148087, Note_on_c, 15, 36, 103
17, 148143, Note_off_c, 15, 36, 64
17, 151687, Note_on_c, 15, 31, 109
17, 151805, Note_off_c, 15, 31, 64
17, 152160, Program_c, 15, 32
17, 152640, Note_on_c, 15, 54, 98
17, 152780, Note_off_c, 15, 54, 64
17, 152888, Note_on_c, 15, 43, 92
17, 152994, Note_off_c, 15, 43, 64
17, 153605, Note_on_c, 15, 54, 97
17, 153743, Note_off_c, 15, 54, 64
17, 153848, Note_on_c, 15, 43, 91
17, 153956, Note_off_c, 15, 43, 64
17, 154080, Program_c, 15, 48
17, 154804, Note_on_c, 15, 38, 99
17, 154846, Note_off_c, 15, 38, 64
17, 154886, Note_on_c, 15, 38, 104
17, 154928, Note_off_c, 15, 38, 64
17, 154968, Note_on_c, 15, 38, 97
17, 155010, Note_off_c, 15, 38, 64
17, 155049, Note_on_c, 15, 31, 110
17, 155109, Note_off_c, 15, 31, 64
17, 159360, Control_c, 15, 123, 0
17, 159360, End_track
18, 0, Start_track
18, 0, Text_t, "<>-<>-<>-<>-<>-<>-<>-<>-<>-<>-<>-<>-<>-<>"
18, 0, Channel_prefix, 0
18, 0, End_track
19, 0, Start_track
19, 0, Text_t, """The Imperial March"" from"
19, 0, Channel_prefix, 0
19, 0, End_track
20, 0, Start_track
20, 0, Text_t, """The Empire Strikes Back"""
20, 0, Channel_prefix, 0
20, 0, End_track
21, 0, Start_track
21, 0, Text_t, "Sequenced for General MIDI "
21, 0, Channel_prefix, 0
21, 0, End_track
22, 0, Start_track
22, 0, Text_t, "by GaryW0001@AOL.com"
22, 0, Channel_prefix, 0
22, 0, End_track
23, 0, Start_track
23, 0, Text_t, "Composed & Arranged by John Williams"
23, 0, Channel_prefix, 0
23, 0, End_track
24, 0, Start_track
24, 0, Text_t, "Sequence Copyright ©1998"
24, 0, Channel_prefix, 0
24, 0, End_track
25, 0, Start_track
25, 0, Text_t, "by Blue Max Distribution"
25, 0, Channel_prefix, 0
25, 0, End_track
26, 0, Start_track
26, 0, Text_t, "All Rights Reserved"
26, 0, Channel_prefix, 0
26, 0, End_track
27, 0, Start_track
27, 0, Text_t, "Make NO Alterations!"
27, 0, Channel_prefix, 0
27, 0, End_track
28, 0, Start_track
28, 0, Text_t, "E-Mail: GaryW0001@AOL.com"
28, 0, Channel_prefix, 0
28, 0, End_track
29, 0, Start_track
29, 0, Text_t, "For a COMPLETE Archive of my files,"
29, 0, Channel_prefix, 0
29, 0, End_track
30, 0, Start_track
30, 0, Text_t, "visit my Official MIDI Homepage @"
30, 0, Channel_prefix, 0
30, 0, End_track
31, 0, Start_track
31, 0, Text_t, "http://garyw0001.simplenet.com/index.html"
31, 0, Channel_prefix, 0
31, 0, End_track
0, 0, End_of_file
