0, 0, Header, 1, 8, 240
1, 0, Start_track
1, 0, Time_signature, 4, 2, 24, 8
1, 0, Tempo, 491803
1, 0, SMPTE_offset, 64, 0, 0, 0, 0
1, 0, End_track
2, 0, Start_track
2, 0, Title_t, "Oboe      This sequence"
2, 0, Program_c, 0, 68
2, 0, Note_on_c, 0, 66, 100
2, 0, Note_on_c, 0, 69, 126
2, 0, Control_c, 0, 7, 83
2, 96, Note_off_c, 0, 69, 64
2, 240, Note_off_c, 0, 66, 64
2, 240, Note_on_c, 0, 66, 100
2, 240, Note_on_c, 0, 69, 126
2, 720, Note_off_c, 0, 69, 64
2, 720, Note_off_c, 0, 66, 64
2, 720, Note_on_c, 0, 69, 100
2, 720, Note_on_c, 0, 67, 100
2, 780, Note_off_c, 0, 67, 64
2, 780, Note_on_c, 0, 66, 100
2, 840, Note_off_c, 0, 66, 64
2, 840, Note_on_c, 0, 67, 100
2, 900, Note_off_c, 0, 67, 64
2, 900, Note_on_c, 0, 66, 100
2, 960, Note_off_c, 0, 66, 64
2, 960, Note_off_c, 0, 69, 64
2, 960, Note_on_c, 0, 67, 100
2, 960, Note_on_c, 0, 71, 126
2, 1200, Note_off_c, 0, 71, 64
2, 1200, Note_on_c, 0, 67, 100
2, 1380, Note_off_c, 0, 67, 64
2, 1380, Note_off_c, 0, 67, 64
2, 1380, Note_on_c, 0, 69, 100
2, 1440, Note_off_c, 0, 69, 64
2, 1440, Note_on_c, 0, 71, 126
2, 1680, Note_off_c, 0, 71, 64
2, 1680, Note_on_c, 0, 64, 100
2, 1680, Note_on_c, 0, 73, 126
2, 1920, Note_off_c, 0, 73, 64
2, 1920, Note_off_c, 0, 64, 64
2, 1920, Note_on_c, 0, 69, 100
2, 1920, Note_on_c, 0, 73, 126
2, 2040, Note_off_c, 0, 73, 64
2, 2040, Note_on_c, 0, 74, 100
2, 2088, Note_off_c, 0, 74, 64
2, 2160, Note_off_c, 0, 69, 64
2, 2160, Note_on_c, 0, 69, 100
2, 2160, Note_on_c, 0, 74, 100
2, 2640, Note_off_c, 0, 74, 64
2, 2640, Note_off_c, 0, 69, 64
2, 2640, Note_on_c, 0, 69, 100
2, 2640, Note_on_c, 0, 73, 100
2, 2700, Note_off_c, 0, 73, 64
2, 2700, Note_on_c, 0, 74, 100
2, 2760, Note_off_c, 0, 74, 64
2, 2760, Note_on_c, 0, 73, 100
2, 2820, Note_off_c, 0, 73, 64
2, 2820, Note_on_c, 0, 74, 100
2, 2880, Note_off_c, 0, 74, 64
2, 2880, Note_off_c, 0, 69, 64
2, 2880, Note_on_c, 0, 71, 100
2, 2880, Note_on_c, 0, 79, 100
2, 3120, Note_off_c, 0, 71, 64
2, 3120, Note_on_c, 0, 67, 100
2, 3300, Note_off_c, 0, 67, 64
2, 3300, Note_on_c, 0, 69, 100
2, 3360, Note_off_c, 0, 69, 64
2, 3360, Note_on_c, 0, 71, 100
2, 3600, Note_off_c, 0, 71, 64
2, 3600, Note_off_c, 0, 79, 64
2, 3600, Note_on_c, 0, 73, 100
2, 3600, Note_on_c, 0, 76, 100
2, 3840, Note_off_c, 0, 76, 64
2, 3840, Note_off_c, 0, 73, 64
2, 3840, Note_on_c, 0, 74, 100
2, 3840, Note_on_c, 0, 77, 126
2, 3960, Note_off_c, 0, 77, 64
2, 3960, Note_off_c, 0, 74, 64
2, 3960, Note_on_c, 0, 69, 100
2, 3960, Note_on_c, 0, 78, 100
2, 4008, Note_off_c, 0, 78, 64
2, 4080, Note_off_c, 0, 69, 64
2, 4080, Note_on_c, 0, 78, 100
2, 4080, Note_on_c, 0, 78, 100
2, 4128, Note_off_c, 0, 78, 64
2, 4128, Note_off_c, 0, 78, 64
2, 4200, Note_on_c, 0, 78, 100
2, 4200, Note_on_c, 0, 78, 100
2, 4201, Note_off_c, 0, 78, 64
2, 4201, Note_off_c, 0, 78, 64
2, 4320, Note_on_c, 0, 78, 100
2, 4320, Note_on_c, 0, 78, 100
2, 4321, Note_off_c, 0, 78, 64
2, 4321, Note_off_c, 0, 78, 64
2, 6720, Note_on_c, 0, 76, 100
2, 6720, Note_on_c, 0, 79, 100
2, 6960, Note_off_c, 0, 79, 64
2, 6960, Note_on_c, 0, 73, 100
2, 7200, Note_off_c, 0, 73, 64
2, 7200, Note_off_c, 0, 76, 64
2, 7200, Note_on_c, 0, 78, 100
2, 7200, Note_on_c, 0, 81, 100
2, 7440, Note_off_c, 0, 81, 64
2, 7440, Note_on_c, 0, 74, 100
2, 7680, Note_off_c, 0, 74, 64
2, 7680, Note_off_c, 0, 78, 64
2, 7680, Note_on_c, 0, 76, 100
2, 7680, Note_on_c, 0, 79, 100
2, 7920, Note_off_c, 0, 79, 64
2, 7920, Note_off_c, 0, 76, 64
2, 7920, Note_on_c, 0, 74, 100
2, 7920, Note_on_c, 0, 78, 100
2, 8160, Note_off_c, 0, 78, 64
2, 8160, Note_off_c, 0, 74, 64
2, 8160, Note_on_c, 0, 76, 100
2, 8160, Note_on_c, 0, 73, 100
2, 8400, Note_off_c, 0, 73, 64
2, 8400, Note_on_c, 0, 85, 100
2, 8640, Note_off_c, 0, 85, 64
2, 8640, Note_off_c, 0, 76, 64
2, 8640, Note_on_c, 0, 86, 100
2, 8640, Note_on_c, 0, 74, 100
2, 8730, Note_on_c, 0, 76, 100
2, 8760, Note_off_c, 0, 76, 64
2, 8820, Note_off_c, 0, 74, 64
2, 8820, Note_on_c, 0, 73, 100
2, 8880, Note_off_c, 0, 73, 64
2, 8880, Note_on_c, 0, 74, 100
2, 8928, Note_off_c, 0, 74, 64
2, 9000, Note_on_c, 0, 76, 100
2, 9048, Note_off_c, 0, 76, 64
2, 9120, Note_on_c, 0, 78, 100
2, 9210, Note_on_c, 0, 79, 100
2, 9240, Note_off_c, 0, 79, 64
2, 9300, Note_off_c, 0, 78, 64
2, 9300, Note_on_c, 0, 76, 100
2, 9360, Note_off_c, 0, 76, 64
2, 9360, Note_on_c, 0, 78, 100
2, 9408, Note_off_c, 0, 78, 64
2, 9480, Note_on_c, 0, 80, 100
2, 9528, Note_off_c, 0, 80, 64
2, 9600, Note_off_c, 0, 86, 64
2, 9600, Note_on_c, 0, 81, 100
2, 9600, Note_on_c, 0, 85, 100
2, 9763, Note_off_c, 0, 85, 64
2, 9763, Note_off_c, 0, 81, 64
2, 9840, Note_on_c, 0, 76, 100
2, 9840, Note_on_c, 0, 85, 100
2, 10003, Note_off_c, 0, 85, 64
2, 10003, Note_off_c, 0, 76, 64
2, 10080, Note_on_c, 0, 73, 100
2, 10080, Note_on_c, 0, 81, 100
2, 10373, Note_off_c, 0, 81, 64
2, 10373, Note_off_c, 0, 73, 64
2, 21120, Note_on_c, 0, 81, 100
2, 21120, Note_on_c, 0, 85, 100
2, 22080, Note_off_c, 0, 85, 64
2, 22080, Note_off_c, 0, 81, 64
2, 22080, Note_on_c, 0, 79, 100
2, 22080, Note_on_c, 0, 83, 100
2, 22320, Note_off_c, 0, 79, 64
2, 22320, Note_on_c, 0, 86, 100
2, 22560, Note_off_c, 0, 86, 64
2, 22560, Note_off_c, 0, 83, 64
2, 22560, Note_on_c, 0, 79, 100
2, 22560, Note_on_c, 0, 83, 100
2, 22800, Note_off_c, 0, 83, 64
2, 22800, Note_on_c, 0, 76, 100
2, 23040, Note_off_c, 0, 76, 64
2, 23040, Note_off_c, 0, 79, 64
2, 23040, Note_on_c, 0, 74, 100
2, 23040, Note_on_c, 0, 78, 100
2, 23280, Note_off_c, 0, 78, 64
2, 23280, Note_off_c, 0, 74, 64
2, 23280, Note_on_c, 0, 78, 100
2, 23280, Note_on_c, 0, 81, 100
2, 23303, Note_off_c, 0, 78, 64
2, 23328, Note_off_c, 0, 81, 64
2, 23400, Note_on_c, 0, 78, 100
2, 23400, Note_on_c, 0, 81, 100
2, 23423, Note_off_c, 0, 78, 64
2, 23448, Note_off_c, 0, 81, 64
2, 23520, Note_on_c, 0, 78, 100
2, 23520, Note_on_c, 0, 81, 100
2, 23640, Note_off_c, 0, 81, 64
2, 23640, Note_on_c, 0, 74, 100
2, 23663, Note_off_c, 0, 74, 64
2, 23688, Note_off_c, 0, 78, 64
2, 23760, Note_on_c, 0, 76, 100
2, 23760, Note_on_c, 0, 79, 100
2, 23880, Note_off_c, 0, 79, 64
2, 23880, Note_on_c, 0, 73, 100
2, 23903, Note_off_c, 0, 73, 64
2, 23928, Note_off_c, 0, 76, 64
2, 24000, Note_on_c, 0, 74, 100
2, 24240, Note_off_c, 0, 74, 64
2, 25200, Note_on_c, 0, 74, 100
2, 25200, Note_on_c, 0, 86, 100
2, 25223, Note_off_c, 0, 74, 64
2, 25248, Note_off_c, 0, 86, 64
2, 25320, Note_on_c, 0, 69, 100
2, 25320, Note_on_c, 0, 81, 100
2, 25343, Note_off_c, 0, 69, 64
2, 25368, Note_off_c, 0, 81, 64
2, 25440, Note_on_c, 0, 74, 100
2, 25440, Note_on_c, 0, 78, 100
2, 25620, Note_off_c, 0, 78, 64
2, 25620, Note_off_c, 0, 74, 64
2, 25620, Note_on_c, 0, 78, 100
2, 25620, Note_on_c, 0, 81, 100
2, 25680, Note_off_c, 0, 81, 64
2, 25680, Note_off_c, 0, 78, 64
2, 25680, Note_on_c, 0, 78, 100
2, 25680, Note_on_c, 0, 81, 100
2, 25740, Note_off_c, 0, 81, 64
2, 25740, Note_off_c, 0, 78, 64
2, 25740, Note_on_c, 0, 76, 100
2, 25740, Note_on_c, 0, 79, 100
2, 25800, Note_off_c, 0, 79, 64
2, 25800, Note_off_c, 0, 76, 64
2, 25800, Note_on_c, 0, 74, 100
2, 25800, Note_on_c, 0, 78, 100
2, 25860, Note_off_c, 0, 78, 64
2, 25860, Note_off_c, 0, 74, 64
2, 25860, Note_on_c, 0, 73, 100
2, 25860, Note_on_c, 0, 76, 100
2, 25920, Note_off_c, 0, 76, 64
2, 25920, Note_off_c, 0, 73, 64
2, 25920, Note_on_c, 0, 74, 100
2, 26040, Note_off_c, 0, 74, 64
2, 27120, Note_on_c, 0, 74, 100
2, 27120, Note_on_c, 0, 86, 100
2, 27143, Note_off_c, 0, 74, 64
2, 27168, Note_off_c, 0, 86, 64
2, 27240, Note_on_c, 0, 69, 100
2, 27240, Note_on_c, 0, 81, 100
2, 27263, Note_off_c, 0, 69, 64
2, 27288, Note_off_c, 0, 81, 64
2, 27360, Note_on_c, 0, 74, 100
2, 27360, Note_on_c, 0, 78, 100
2, 27540, Note_off_c, 0, 78, 64
2, 27540, Note_off_c, 0, 74, 64
2, 27540, Note_on_c, 0, 78, 100
2, 27540, Note_on_c, 0, 81, 100
2, 27600, Note_off_c, 0, 81, 64
2, 27600, Note_off_c, 0, 78, 64
2, 27600, Note_on_c, 0, 78, 100
2, 27600, Note_on_c, 0, 81, 100
2, 27660, Note_off_c, 0, 81, 64
2, 27660, Note_off_c, 0, 78, 64
2, 27660, Note_on_c, 0, 76, 100
2, 27660, Note_on_c, 0, 79, 100
2, 27720, Note_off_c, 0, 79, 64
2, 27720, Note_off_c, 0, 76, 64
2, 27720, Note_on_c, 0, 74, 100
2, 27720, Note_on_c, 0, 78, 100
2, 27780, Note_off_c, 0, 78, 64
2, 27780, Note_off_c, 0, 74, 64
2, 27780, Note_on_c, 0, 73, 100
2, 27780, Note_on_c, 0, 76, 100
2, 27840, Note_off_c, 0, 76, 64
2, 27840, Note_off_c, 0, 73, 64
2, 27840, Note_on_c, 0, 74, 100
2, 28080, Note_off_c, 0, 74, 64
2, 28080, Note_on_c, 0, 62, 100
2, 28128, Note_off_c, 0, 62, 64
2, 28200, Note_on_c, 0, 66, 100
2, 28248, Note_off_c, 0, 66, 64
2, 28320, Note_on_c, 0, 69, 100
2, 28368, Note_off_c, 0, 69, 64
2, 28440, Note_on_c, 0, 69, 100
2, 28488, Note_off_c, 0, 69, 64
2, 28560, Note_on_c, 0, 69, 100
2, 28608, Note_off_c, 0, 69, 64
2, 28680, Note_on_c, 0, 69, 100
2, 28728, Note_off_c, 0, 69, 64
2, 28800, Note_on_c, 0, 66, 100
2, 28800, Note_on_c, 0, 69, 100
2, 29040, Note_off_c, 0, 69, 64
2, 29040, Note_off_c, 0, 66, 64
2, 29760, Note_on_c, 0, 69, 100
2, 29760, Note_on_c, 0, 81, 100
2, 30240, Note_off_c, 0, 81, 64
2, 30240, Note_on_c, 0, 79, 100
2, 30720, Note_off_c, 0, 79, 64
2, 30720, Note_on_c, 0, 78, 100
2, 30960, Note_off_c, 0, 78, 64
2, 30960, Note_off_c, 0, 69, 64
2, 44400, Note_on_c, 0, 74, 100
2, 44400, Note_on_c, 0, 86, 100
2, 44423, Note_off_c, 0, 74, 64
2, 44448, Note_off_c, 0, 86, 64
2, 44520, Note_on_c, 0, 69, 100
2, 44520, Note_on_c, 0, 81, 100
2, 44543, Note_off_c, 0, 69, 64
2, 44568, Note_off_c, 0, 81, 64
2, 44640, Note_on_c, 0, 74, 100
2, 44640, Note_on_c, 0, 78, 100
2, 44820, Note_off_c, 0, 78, 64
2, 44820, Note_off_c, 0, 74, 64
2, 44820, Note_on_c, 0, 78, 100
2, 44820, Note_on_c, 0, 81, 100
2, 44880, Note_off_c, 0, 81, 64
2, 44880, Note_off_c, 0, 78, 64
2, 44880, Note_on_c, 0, 78, 100
2, 44880, Note_on_c, 0, 81, 100
2, 44940, Note_off_c, 0, 81, 64
2, 44940, Note_off_c, 0, 78, 64
2, 44940, Note_on_c, 0, 76, 100
2, 44940, Note_on_c, 0, 79, 100
2, 45000, Note_off_c, 0, 79, 64
2, 45000, Note_off_c, 0, 76, 64
2, 45000, Note_on_c, 0, 74, 100
2, 45000, Note_on_c, 0, 78, 100
2, 45060, Note_off_c, 0, 78, 64
2, 45060, Note_off_c, 0, 74, 64
2, 45060, Note_on_c, 0, 73, 100
2, 45060, Note_on_c, 0, 76, 100
2, 45120, Note_off_c, 0, 76, 64
2, 45120, Note_off_c, 0, 73, 64
2, 45120, Note_on_c, 0, 74, 100
2, 45360, Note_off_c, 0, 74, 64
2, 45360, Note_on_c, 0, 62, 100
2, 45408, Note_off_c, 0, 62, 64
2, 45480, Note_on_c, 0, 66, 100
2, 45528, Note_off_c, 0, 66, 64
2, 45600, Note_on_c, 0, 69, 100
2, 45648, Note_off_c, 0, 69, 64
2, 45720, Note_on_c, 0, 69, 100
2, 45768, Note_off_c, 0, 69, 64
2, 45840, Note_on_c, 0, 69, 100
2, 45888, Note_off_c, 0, 69, 64
2, 45960, Note_on_c, 0, 69, 100
2, 46008, Note_off_c, 0, 69, 64
2, 46080, Note_on_c, 0, 66, 100
2, 46080, Note_on_c, 0, 69, 100
2, 46320, Note_off_c, 0, 69, 64
2, 46320, Note_off_c, 0, 66, 64
2, 61920, Note_on_c, 0, 68, 36
2, 61920, Note_on_c, 0, 74, 36
2, 61943, Note_off_c, 0, 68, 64
2, 61968, Note_off_c, 0, 74, 64
2, 62040, Note_on_c, 0, 68, 36
2, 62040, Note_on_c, 0, 74, 36
2, 62063, Note_off_c, 0, 68, 64
2, 62088, Note_off_c, 0, 74, 64
2, 62160, Note_on_c, 0, 68, 36
2, 62160, Note_on_c, 0, 74, 36
2, 62183, Note_off_c, 0, 68, 64
2, 62208, Note_off_c, 0, 74, 64
2, 62280, Note_on_c, 0, 68, 36
2, 62280, Note_on_c, 0, 74, 36
2, 62303, Note_off_c, 0, 68, 64
2, 62328, Note_off_c, 0, 74, 64
2, 62400, Note_on_c, 0, 68, 36
2, 62400, Note_on_c, 0, 74, 36
2, 62640, Note_off_c, 0, 74, 64
2, 62640, Note_off_c, 0, 68, 64
2, 62880, Note_on_c, 0, 74, 36
2, 62880, Note_on_c, 0, 80, 36
2, 62903, Note_off_c, 0, 74, 64
2, 62928, Note_off_c, 0, 80, 64
2, 63000, Note_on_c, 0, 74, 36
2, 63000, Note_on_c, 0, 80, 36
2, 63023, Note_off_c, 0, 74, 64
2, 63048, Note_off_c, 0, 80, 64
2, 63120, Note_on_c, 0, 74, 36
2, 63120, Note_on_c, 0, 80, 36
2, 63143, Note_off_c, 0, 74, 64
2, 63168, Note_off_c, 0, 80, 64
2, 63240, Note_on_c, 0, 74, 36
2, 63240, Note_on_c, 0, 80, 36
2, 63263, Note_off_c, 0, 74, 64
2, 63288, Note_off_c, 0, 80, 64
2, 63360, Note_on_c, 0, 74, 36
2, 63360, Note_on_c, 0, 80, 36
2, 64320, Note_off_c, 0, 80, 64
2, 64320, Note_off_c, 0, 74, 64
2, 64320, Note_on_c, 0, 76, 36
2, 64320, Note_on_c, 0, 81, 36
2, 64560, Note_off_c, 0, 81, 64
2, 64560, Note_off_c, 0, 76, 64
2, 72000, Note_on_c, 0, 69, 36
2, 72090, Note_on_c, 0, 83, 100
2, 72120, Note_off_c, 0, 83, 64
2, 72120, Note_on_c, 0, 81, 100
2, 72180, Note_off_c, 0, 81, 64
2, 72180, Note_on_c, 0, 80, 100
2, 72240, Note_off_c, 0, 80, 64
2, 72240, Note_on_c, 0, 81, 100
2, 72288, Note_off_c, 0, 81, 64
2, 72360, Note_off_c, 0, 69, 64
2, 72360, Note_on_c, 0, 76, 100
2, 72360, Note_on_c, 0, 83, 100
2, 72367, Note_off_c, 0, 83, 64
2, 72480, Note_off_c, 0, 76, 64
2, 72480, Note_on_c, 0, 81, 100
2, 72480, Note_on_c, 0, 85, 100
2, 72570, Note_on_c, 0, 74, 100
2, 72600, Note_off_c, 0, 74, 64
2, 72600, Note_off_c, 0, 85, 64
2, 72600, Note_on_c, 0, 73, 100
2, 72660, Note_off_c, 0, 73, 64
2, 72660, Note_on_c, 0, 71, 100
2, 72720, Note_off_c, 0, 71, 64
2, 72720, Note_on_c, 0, 73, 100
2, 72768, Note_off_c, 0, 73, 64
2, 72840, Note_on_c, 0, 75, 100
2, 72888, Note_off_c, 0, 75, 64
2, 72960, Note_off_c, 0, 81, 64
2, 72960, Note_on_c, 0, 76, 100
2, 72960, Note_on_c, 0, 80, 100
2, 73113, Note_off_c, 0, 80, 64
2, 73113, Note_off_c, 0, 76, 64
2, 73200, Note_on_c, 0, 64, 100
2, 73200, Note_on_c, 0, 76, 100
2, 73353, Note_off_c, 0, 76, 64
2, 73353, Note_off_c, 0, 64, 64
2, 73440, Note_on_c, 0, 64, 100
2, 73800, Note_off_c, 0, 64, 64
2, 88440, Note_on_c, 0, 69, 100
2, 88440, Note_on_c, 0, 73, 100
2, 88463, Note_off_c, 0, 69, 64
2, 88488, Note_off_c, 0, 73, 64
2, 88560, Note_on_c, 0, 69, 100
2, 88560, Note_on_c, 0, 73, 100
2, 88583, Note_off_c, 0, 69, 64
2, 88608, Note_off_c, 0, 73, 64
2, 88680, Note_on_c, 0, 69, 100
2, 88680, Note_on_c, 0, 73, 100
2, 88703, Note_off_c, 0, 69, 64
2, 88728, Note_off_c, 0, 73, 64
2, 88800, Note_on_c, 0, 69, 100
2, 88800, Note_on_c, 0, 73, 100
2, 89040, Note_off_c, 0, 73, 64
2, 89040, Note_off_c, 0, 69, 64
2, 89400, Note_on_c, 0, 69, 100
2, 89400, Note_on_c, 0, 71, 100
2, 89423, Note_off_c, 0, 69, 64
2, 89448, Note_off_c, 0, 71, 64
2, 89520, Note_on_c, 0, 69, 100
2, 89520, Note_on_c, 0, 71, 100
2, 89543, Note_off_c, 0, 69, 64
2, 89568, Note_off_c, 0, 71, 64
2, 89640, Note_on_c, 0, 69, 100
2, 89640, Note_on_c, 0, 71, 100
2, 89663, Note_off_c, 0, 69, 64
2, 89688, Note_off_c, 0, 71, 64
2, 89760, Note_on_c, 0, 69, 100
2, 89760, Note_on_c, 0, 71, 100
2, 90000, Note_off_c, 0, 71, 64
2, 90000, Note_off_c, 0, 69, 64
2, 91680, Note_on_c, 0, 74, 75
2, 91680, Note_on_c, 0, 80, 75
2, 92160, Note_off_c, 0, 80, 64
2, 92160, Note_off_c, 0, 74, 64
2, 92160, Note_on_c, 0, 73, 100
2, 92160, Note_on_c, 0, 81, 100
2, 92640, Note_off_c, 0, 81, 64
2, 92640, Note_off_c, 0, 73, 64
2, 92640, Note_on_c, 0, 76, 100
2, 92640, Note_on_c, 0, 79, 100
2, 93120, Note_off_c, 0, 79, 64
2, 93120, Note_off_c, 0, 76, 64
2, 93120, Note_on_c, 0, 74, 100
2, 93120, Note_on_c, 0, 78, 100
2, 93360, Note_off_c, 0, 74, 64
2, 93360, Note_on_c, 0, 81, 100
2, 93600, Note_off_c, 0, 81, 64
2, 93600, Note_off_c, 0, 78, 64
2, 93600, Note_on_c, 0, 74, 100
2, 93600, Note_on_c, 0, 78, 100
2, 93840, Note_off_c, 0, 78, 64
2, 93840, Note_on_c, 0, 71, 100
2, 94080, Note_off_c, 0, 71, 64
2, 94080, Note_off_c, 0, 74, 64
2, 94080, Note_on_c, 0, 69, 100
2, 94080, Note_on_c, 0, 73, 100
2, 94320, Note_off_c, 0, 73, 64
2, 94320, Note_off_c, 0, 69, 64
2, 94320, Note_on_c, 0, 73, 100
2, 94320, Note_on_c, 0, 76, 100
2, 94343, Note_off_c, 0, 73, 64
2, 94368, Note_off_c, 0, 76, 64
2, 94440, Note_on_c, 0, 73, 100
2, 94440, Note_on_c, 0, 76, 100
2, 94463, Note_off_c, 0, 73, 64
2, 94488, Note_off_c, 0, 76, 64
2, 94560, Note_on_c, 0, 73, 100
2, 94560, Note_on_c, 0, 76, 100
2, 94680, Note_off_c, 0, 76, 64
2, 94680, Note_on_c, 0, 69, 100
2, 94703, Note_off_c, 0, 69, 64
2, 94728, Note_off_c, 0, 73, 64
2, 94800, Note_on_c, 0, 71, 100
2, 94800, Note_on_c, 0, 74, 100
2, 94920, Note_off_c, 0, 74, 64
2, 94920, Note_on_c, 0, 68, 100
2, 94943, Note_off_c, 0, 68, 64
2, 94968, Note_off_c, 0, 71, 64
2, 95040, Note_on_c, 0, 69, 100
2, 95280, Note_off_c, 0, 69, 64
2, 96240, Note_on_c, 0, 69, 100
2, 96240, Note_on_c, 0, 81, 100
2, 96263, Note_off_c, 0, 69, 64
2, 96288, Note_off_c, 0, 81, 64
2, 96360, Note_on_c, 0, 64, 100
2, 96360, Note_on_c, 0, 76, 100
2, 96383, Note_off_c, 0, 64, 64
2, 96408, Note_off_c, 0, 76, 64
2, 96480, Note_on_c, 0, 69, 100
2, 96480, Note_on_c, 0, 73, 100
2, 96660, Note_off_c, 0, 73, 64
2, 96660, Note_off_c, 0, 69, 64
2, 96660, Note_on_c, 0, 73, 100
2, 96660, Note_on_c, 0, 76, 100
2, 96720, Note_off_c, 0, 76, 64
2, 96720, Note_off_c, 0, 73, 64
2, 96720, Note_on_c, 0, 73, 100
2, 96720, Note_on_c, 0, 76, 100
2, 96780, Note_off_c, 0, 76, 64
2, 96780, Note_off_c, 0, 73, 64
2, 96780, Note_on_c, 0, 71, 100
2, 96780, Note_on_c, 0, 74, 100
2, 96840, Note_off_c, 0, 74, 64
2, 96840, Note_off_c, 0, 71, 64
2, 96840, Note_on_c, 0, 69, 100
2, 96840, Note_on_c, 0, 73, 100
2, 96900, Note_off_c, 0, 73, 64
2, 96900, Note_off_c, 0, 69, 64
2, 96900, Note_on_c, 0, 68, 100
2, 96900, Note_on_c, 0, 71, 100
2, 96960, Note_off_c, 0, 71, 64
2, 96960, Note_off_c, 0, 68, 64
2, 96960, Note_on_c, 0, 69, 100
2, 97080, Note_off_c, 0, 69, 64
2, 98160, Note_on_c, 0, 69, 100
2, 98160, Note_on_c, 0, 81, 100
2, 98183, Note_off_c, 0, 69, 64
2, 98208, Note_off_c, 0, 81, 64
2, 98280, Note_on_c, 0, 64, 100
2, 98280, Note_on_c, 0, 76, 100
2, 98303, Note_off_c, 0, 64, 64
2, 98328, Note_off_c, 0, 76, 64
2, 98400, Note_on_c, 0, 69, 100
2, 98400, Note_on_c, 0, 73, 100
2, 98580, Note_off_c, 0, 73, 64
2, 98580, Note_off_c, 0, 69, 64
2, 98580, Note_on_c, 0, 73, 100
2, 98580, Note_on_c, 0, 76, 100
2, 98640, Note_off_c, 0, 76, 64
2, 98640, Note_off_c, 0, 73, 64
2, 98640, Note_on_c, 0, 73, 100
2, 98640, Note_on_c, 0, 76, 100
2, 98700, Note_off_c, 0, 76, 64
2, 98700, Note_off_c, 0, 73, 64
2, 98700, Note_on_c, 0, 71, 100
2, 98700, Note_on_c, 0, 74, 100
2, 98760, Note_off_c, 0, 74, 64
2, 98760, Note_off_c, 0, 71, 64
2, 98760, Note_on_c, 0, 69, 100
2, 98760, Note_on_c, 0, 73, 100
2, 98820, Note_off_c, 0, 73, 64
2, 98820, Note_off_c, 0, 69, 64
2, 98820, Note_on_c, 0, 68, 100
2, 98820, Note_on_c, 0, 71, 100
2, 98880, Note_off_c, 0, 71, 64
2, 98880, Note_off_c, 0, 68, 64
2, 98880, Note_on_c, 0, 69, 100
2, 98880, Note_on_c, 0, 73, 100
2, 99120, Note_off_c, 0, 73, 64
2, 99120, Note_off_c, 0, 69, 64
2, 99120, Note_on_c, 0, 73, 100
2, 99120, Note_on_c, 0, 76, 100
2, 99143, Note_off_c, 0, 73, 64
2, 99168, Note_off_c, 0, 76, 64
2, 99240, Note_on_c, 0, 76, 100
2, 99240, Note_on_c, 0, 81, 100
2, 99263, Note_off_c, 0, 76, 64
2, 99288, Note_off_c, 0, 81, 64
2, 99360, Note_on_c, 0, 69, 100
2, 99360, Note_on_c, 0, 73, 100
2, 99600, Note_off_c, 0, 73, 64
2, 99600, Note_off_c, 0, 69, 64
2, 99600, Note_on_c, 0, 73, 100
2, 99600, Note_on_c, 0, 76, 100
2, 99660, Note_off_c, 0, 76, 64
2, 99660, Note_off_c, 0, 73, 64
2, 99660, Note_on_c, 0, 71, 100
2, 99660, Note_on_c, 0, 74, 100
2, 99720, Note_off_c, 0, 74, 64
2, 99720, Note_off_c, 0, 71, 64
2, 99720, Note_on_c, 0, 69, 100
2, 99720, Note_on_c, 0, 73, 100
2, 99780, Note_off_c, 0, 73, 64
2, 99780, Note_off_c, 0, 69, 64
2, 99780, Note_on_c, 0, 68, 100
2, 99780, Note_on_c, 0, 71, 100
2, 99840, Note_off_c, 0, 71, 64
2, 99840, Note_off_c, 0, 68, 64
2, 99840, Note_on_c, 0, 69, 100
2, 100080, Note_off_c, 0, 69, 64
2, 112320, Note_on_c, 0, 69, 36
2, 112320, Note_on_c, 0, 81, 36
2, 113520, Note_off_c, 0, 81, 64
2, 113520, Note_off_c, 0, 69, 64
2, 114240, Note_on_c, 0, 66, 100
2, 114240, Note_on_c, 0, 69, 100
2, 114480, Note_off_c, 0, 69, 64
2, 114480, Note_off_c, 0, 66, 64
2, 114480, Note_on_c, 0, 66, 100
2, 114480, Note_on_c, 0, 69, 100
2, 114960, Note_off_c, 0, 69, 64
2, 114960, Note_off_c, 0, 66, 64
2, 114960, Note_on_c, 0, 69, 100
2, 114960, Note_on_c, 0, 67, 100
2, 115020, Note_off_c, 0, 67, 64
2, 115020, Note_on_c, 0, 66, 100
2, 115080, Note_off_c, 0, 66, 64
2, 115080, Note_on_c, 0, 67, 100
2, 115140, Note_off_c, 0, 67, 64
2, 115140, Note_on_c, 0, 66, 100
2, 115200, Note_off_c, 0, 66, 64
2, 115200, Note_off_c, 0, 69, 64
2, 115200, Note_on_c, 0, 67, 100
2, 115200, Note_on_c, 0, 71, 100
2, 115440, Note_off_c, 0, 71, 64
2, 115440, Note_on_c, 0, 67, 100
2, 115620, Note_off_c, 0, 67, 64
2, 115620, Note_off_c, 0, 67, 64
2, 115620, Note_on_c, 0, 69, 100
2, 115680, Note_off_c, 0, 69, 64
2, 115680, Note_on_c, 0, 71, 100
2, 115920, Note_off_c, 0, 71, 64
2, 115920, Note_on_c, 0, 64, 100
2, 115920, Note_on_c, 0, 73, 100
2, 116160, Note_off_c, 0, 73, 64
2, 116160, Note_off_c, 0, 64, 64
2, 116160, Note_on_c, 0, 69, 36
2, 116160, Note_on_c, 0, 73, 36
2, 116280, Note_off_c, 0, 73, 64
2, 116280, Note_on_c, 0, 71, 36
2, 116280, Note_on_c, 0, 74, 36
2, 116303, Note_off_c, 0, 71, 64
2, 116328, Note_off_c, 0, 74, 64
2, 116400, Note_off_c, 0, 69, 64
2, 130560, Note_on_c, 0, 73, 36
2, 130560, Note_on_c, 0, 76, 36
2, 130800, Note_off_c, 0, 76, 64
2, 130800, Note_off_c, 0, 73, 64
2, 130800, Note_on_c, 0, 74, 36
2, 130800, Note_on_c, 0, 78, 36
2, 131040, Note_off_c, 0, 78, 64
2, 131040, Note_off_c, 0, 74, 64
2, 131040, Note_on_c, 0, 73, 36
2, 131040, Note_on_c, 0, 76, 36
2, 131280, Note_off_c, 0, 76, 64
2, 131280, Note_off_c, 0, 73, 64
2, 131280, Note_on_c, 0, 74, 36
2, 131280, Note_on_c, 0, 78, 36
2, 131520, Note_off_c, 0, 78, 64
2, 131520, Note_off_c, 0, 74, 64
2, 131520, Note_on_c, 0, 73, 36
2, 131520, Note_on_c, 0, 76, 36
2, 131760, Note_off_c, 0, 76, 64
2, 131760, Note_off_c, 0, 73, 64
2, 132480, Note_on_c, 0, 74, 36
2, 132480, Note_on_c, 0, 78, 36
2, 132720, Note_off_c, 0, 78, 64
2, 132720, Note_off_c, 0, 74, 64
2, 132720, Note_on_c, 0, 73, 36
2, 132720, Note_on_c, 0, 76, 36
2, 132960, Note_off_c, 0, 76, 64
2, 132960, Note_off_c, 0, 73, 64
2, 132960, Note_on_c, 0, 74, 36
2, 132960, Note_on_c, 0, 78, 36
2, 133200, Note_off_c, 0, 78, 64
2, 133200, Note_off_c, 0, 74, 64
2, 133200, Note_on_c, 0, 73, 36
2, 133200, Note_on_c, 0, 76, 36
2, 133440, Note_off_c, 0, 76, 64
2, 133440, Note_off_c, 0, 73, 64
2, 133440, Note_on_c, 0, 74, 36
2, 133440, Note_on_c, 0, 78, 36
2, 133680, Note_off_c, 0, 78, 64
2, 133680, Note_off_c, 0, 74, 64
2, 134400, Note_on_c, 0, 73, 36
2, 134400, Note_on_c, 0, 76, 36
2, 134640, Note_off_c, 0, 76, 64
2, 134640, Note_off_c, 0, 73, 64
2, 134640, Note_on_c, 0, 74, 36
2, 134640, Note_on_c, 0, 78, 36
2, 134880, Note_off_c, 0, 78, 64
2, 134880, Note_off_c, 0, 74, 64
2, 134880, Note_on_c, 0, 73, 36
2, 134880, Note_on_c, 0, 76, 36
2, 135120, Note_off_c, 0, 76, 64
2, 135120, Note_off_c, 0, 73, 64
2, 135120, Note_on_c, 0, 74, 36
2, 135120, Note_on_c, 0, 78, 36
2, 135360, Note_off_c, 0, 78, 64
2, 135360, Note_off_c, 0, 74, 64
2, 135360, Note_on_c, 0, 73, 36
2, 135360, Note_on_c, 0, 76, 36
2, 135600, Note_off_c, 0, 76, 64
2, 135600, Note_off_c, 0, 73, 64
2, 144000, Note_on_c, 0, 86, 100
2, 144000, Note_on_c, 0, 74, 100
2, 144090, Note_on_c, 0, 76, 100
2, 144120, Note_off_c, 0, 76, 64
2, 144120, Note_off_c, 0, 74, 64
2, 144120, Note_on_c, 0, 74, 100
2, 144180, Note_off_c, 0, 74, 64
2, 144180, Note_on_c, 0, 73, 100
2, 144240, Note_off_c, 0, 73, 64
2, 144240, Note_on_c, 0, 74, 100
2, 144288, Note_off_c, 0, 74, 64
2, 144360, Note_on_c, 0, 76, 100
2, 144408, Note_off_c, 0, 76, 64
2, 144480, Note_on_c, 0, 78, 100
2, 144570, Note_on_c, 0, 79, 100
2, 144600, Note_off_c, 0, 79, 64
2, 144600, Note_off_c, 0, 78, 64
2, 144600, Note_on_c, 0, 78, 100
2, 144660, Note_off_c, 0, 78, 64
2, 144660, Note_on_c, 0, 76, 100
2, 144720, Note_off_c, 0, 76, 64
2, 144720, Note_on_c, 0, 78, 100
2, 144768, Note_off_c, 0, 78, 64
2, 144840, Note_on_c, 0, 80, 100
2, 144888, Note_off_c, 0, 80, 64
2, 144960, Note_off_c, 0, 86, 64
2, 144960, Note_on_c, 0, 81, 100
2, 144960, Note_on_c, 0, 85, 100
2, 145140, Note_off_c, 0, 85, 64
2, 145140, Note_off_c, 0, 81, 64
2, 145200, Note_on_c, 0, 76, 100
2, 145200, Note_on_c, 0, 85, 100
2, 145380, Note_off_c, 0, 85, 64
2, 145380, Note_off_c, 0, 76, 64
2, 145440, Note_on_c, 0, 73, 100
2, 145440, Note_on_c, 0, 81, 100
2, 145680, Note_off_c, 0, 81, 64
2, 145680, Note_off_c, 0, 73, 64
2, 162360, Note_on_c, 0, 69, 49
2, 162360, Note_on_c, 0, 74, 49
2, 162383, Note_off_c, 0, 69, 64
2, 162408, Note_off_c, 0, 74, 64
2, 162480, Note_on_c, 0, 69, 49
2, 162480, Note_on_c, 0, 74, 49
2, 162503, Note_off_c, 0, 69, 64
2, 162528, Note_off_c, 0, 74, 64
2, 162600, Note_on_c, 0, 69, 49
2, 162600, Note_on_c, 0, 74, 49
2, 162623, Note_off_c, 0, 69, 64
2, 162648, Note_off_c, 0, 74, 64
2, 162720, Note_on_c, 0, 69, 49
2, 162720, Note_on_c, 0, 74, 49
2, 162960, Note_off_c, 0, 74, 64
2, 162960, Note_off_c, 0, 69, 64
2, 163320, Note_on_c, 0, 67, 49
2, 163320, Note_on_c, 0, 71, 49
2, 163343, Note_off_c, 0, 67, 64
2, 163368, Note_off_c, 0, 71, 64
2, 163440, Note_on_c, 0, 67, 49
2, 163440, Note_on_c, 0, 71, 49
2, 163463, Note_off_c, 0, 67, 64
2, 163488, Note_off_c, 0, 71, 64
2, 163560, Note_on_c, 0, 67, 49
2, 163560, Note_on_c, 0, 71, 49
2, 163583, Note_off_c, 0, 67, 64
2, 163608, Note_off_c, 0, 71, 64
2, 163680, Note_on_c, 0, 67, 49
2, 163680, Note_on_c, 0, 71, 49
2, 163920, Note_off_c, 0, 71, 64
2, 163920, Note_off_c, 0, 67, 64
2, 165600, Note_on_c, 0, 67, 49
2, 165600, Note_on_c, 0, 73, 49
2, 166080, Note_off_c, 0, 73, 64
2, 166080, Note_off_c, 0, 67, 64
2, 166080, Note_on_c, 0, 86, 100
2, 166080, Note_on_c, 0, 66, 100
2, 166080, Note_on_c, 0, 74, 100
2, 166320, Note_off_c, 0, 74, 64
2, 166320, Note_off_c, 0, 66, 64
2, 166320, Note_on_c, 0, 69, 100
2, 166800, Note_off_c, 0, 69, 64
2, 166800, Note_on_c, 0, 67, 100
2, 166860, Note_off_c, 0, 67, 64
2, 166860, Note_on_c, 0, 66, 100
2, 166920, Note_off_c, 0, 66, 64
2, 166920, Note_on_c, 0, 67, 100
2, 166980, Note_off_c, 0, 67, 64
2, 166980, Note_on_c, 0, 66, 100
2, 167040, Note_off_c, 0, 66, 64
2, 167040, Note_on_c, 0, 67, 100
2, 167160, Note_off_c, 0, 67, 64
2, 167160, Note_on_c, 0, 71, 100
2, 167280, Note_off_c, 0, 71, 64
2, 167280, Note_on_c, 0, 74, 100
2, 167760, Note_off_c, 0, 74, 64
2, 167760, Note_on_c, 0, 67, 100
2, 167820, Note_off_c, 0, 67, 64
2, 167820, Note_on_c, 0, 66, 100
2, 167880, Note_off_c, 0, 66, 64
2, 167880, Note_on_c, 0, 67, 100
2, 167940, Note_off_c, 0, 67, 64
2, 167940, Note_on_c, 0, 66, 100
2, 168000, Note_off_c, 0, 66, 64
2, 168000, Note_on_c, 0, 69, 100
2, 168120, Note_off_c, 0, 69, 64
2, 168120, Note_on_c, 0, 66, 100
2, 168240, Note_off_c, 0, 66, 64
2, 168240, Note_on_c, 0, 74, 100
2, 168720, Note_off_c, 0, 74, 64
2, 168720, Note_on_c, 0, 73, 100
2, 168780, Note_off_c, 0, 73, 64
2, 168780, Note_on_c, 0, 74, 100
2, 168840, Note_off_c, 0, 74, 64
2, 168840, Note_on_c, 0, 73, 100
2, 168900, Note_off_c, 0, 73, 64
2, 168900, Note_on_c, 0, 74, 100
2, 168960, Note_off_c, 0, 74, 64
2, 168960, Note_off_c, 0, 86, 64
2, 168960, Note_on_c, 0, 78, 100
2, 168960, Note_on_c, 0, 86, 100
2, 169200, Note_off_c, 0, 86, 64
2, 169200, Note_off_c, 0, 78, 64
2, 169200, Note_on_c, 0, 78, 100
2, 169380, Note_off_c, 0, 78, 64
2, 169380, Note_on_c, 0, 78, 100
2, 169440, Note_off_c, 0, 78, 64
2, 169440, Note_on_c, 0, 78, 100
2, 169680, Note_off_c, 0, 78, 64
2, 169680, Note_on_c, 0, 78, 100
2, 169920, Note_off_c, 0, 78, 64
2, 169920, Note_on_c, 0, 69, 100
2, 170400, Note_off_c, 0, 69, 64
2, 170880, Note_on_c, 0, 66, 100
2, 170880, Note_on_c, 0, 74, 100
2, 171360, Note_off_c, 0, 74, 64
2, 171360, Note_off_c, 0, 66, 64
2, 171360, Note_on_c, 0, 81, 100
2, 171360, Note_on_c, 0, 84, 100
2, 171840, Note_off_c, 0, 84, 64
2, 171840, Note_off_c, 0, 81, 64
2, 171840, Note_on_c, 0, 79, 100
2, 171840, Note_on_c, 0, 83, 100
2, 172080, Note_off_c, 0, 79, 64
2, 172080, Note_on_c, 0, 86, 100
2, 172320, Note_off_c, 0, 86, 64
2, 172320, Note_off_c, 0, 83, 64
2, 172320, Note_on_c, 0, 79, 100
2, 172320, Note_on_c, 0, 83, 100
2, 172560, Note_off_c, 0, 83, 64
2, 172560, Note_on_c, 0, 76, 100
2, 172800, Note_off_c, 0, 76, 64
2, 172800, Note_off_c, 0, 79, 64
2, 172800, Note_on_c, 0, 74, 100
2, 172800, Note_on_c, 0, 78, 100
2, 173040, Note_off_c, 0, 78, 64
2, 173040, Note_off_c, 0, 74, 64
2, 173040, Note_on_c, 0, 78, 100
2, 173040, Note_on_c, 0, 81, 100
2, 173063, Note_off_c, 0, 78, 64
2, 173088, Note_off_c, 0, 81, 64
2, 173160, Note_on_c, 0, 78, 100
2, 173160, Note_on_c, 0, 81, 100
2, 173183, Note_off_c, 0, 78, 64
2, 173208, Note_off_c, 0, 81, 64
2, 173280, Note_on_c, 0, 78, 100
2, 173280, Note_on_c, 0, 81, 100
2, 173400, Note_off_c, 0, 81, 64
2, 173400, Note_on_c, 0, 74, 100
2, 173520, Note_off_c, 0, 74, 64
2, 173520, Note_off_c, 0, 78, 64
2, 173520, Note_on_c, 0, 76, 100
2, 173520, Note_on_c, 0, 79, 100
2, 173640, Note_off_c, 0, 79, 64
2, 173640, Note_on_c, 0, 73, 100
2, 173760, Note_off_c, 0, 73, 64
2, 173760, Note_off_c, 0, 76, 64
2, 173760, Note_on_c, 0, 74, 100
2, 174000, Note_off_c, 0, 74, 64
2, 174960, Note_on_c, 0, 74, 100
2, 174960, Note_on_c, 0, 86, 100
2, 174983, Note_off_c, 0, 74, 64
2, 175008, Note_off_c, 0, 86, 64
2, 175080, Note_on_c, 0, 69, 100
2, 175080, Note_on_c, 0, 81, 100
2, 175103, Note_off_c, 0, 69, 64
2, 175128, Note_off_c, 0, 81, 64
2, 175200, Note_on_c, 0, 74, 100
2, 175200, Note_on_c, 0, 78, 100
2, 175380, Note_off_c, 0, 78, 64
2, 175380, Note_off_c, 0, 74, 64
2, 175380, Note_on_c, 0, 78, 100
2, 175380, Note_on_c, 0, 81, 100
2, 175440, Note_off_c, 0, 81, 64
2, 175440, Note_off_c, 0, 78, 64
2, 175440, Note_on_c, 0, 78, 100
2, 175440, Note_on_c, 0, 81, 100
2, 175500, Note_off_c, 0, 81, 64
2, 175500, Note_off_c, 0, 78, 64
2, 175500, Note_on_c, 0, 76, 100
2, 175500, Note_on_c, 0, 79, 100
2, 175560, Note_off_c, 0, 79, 64
2, 175560, Note_off_c, 0, 76, 64
2, 175560, Note_on_c, 0, 74, 100
2, 175560, Note_on_c, 0, 78, 100
2, 175620, Note_off_c, 0, 78, 64
2, 175620, Note_off_c, 0, 74, 64
2, 175620, Note_on_c, 0, 73, 100
2, 175620, Note_on_c, 0, 76, 100
2, 175680, Note_off_c, 0, 76, 64
2, 175680, Note_off_c, 0, 73, 64
2, 175680, Note_on_c, 0, 74, 100
2, 175800, Note_off_c, 0, 74, 64
2, 176880, Note_on_c, 0, 74, 100
2, 176880, Note_on_c, 0, 86, 100
2, 176903, Note_off_c, 0, 74, 64
2, 176928, Note_off_c, 0, 86, 64
2, 177000, Note_on_c, 0, 69, 100
2, 177000, Note_on_c, 0, 81, 100
2, 177023, Note_off_c, 0, 69, 64
2, 177048, Note_off_c, 0, 81, 64
2, 177120, Note_on_c, 0, 74, 100
2, 177120, Note_on_c, 0, 78, 100
2, 177300, Note_off_c, 0, 78, 64
2, 177300, Note_off_c, 0, 74, 64
2, 177300, Note_on_c, 0, 78, 100
2, 177300, Note_on_c, 0, 81, 100
2, 177360, Note_off_c, 0, 81, 64
2, 177360, Note_off_c, 0, 78, 64
2, 177360, Note_on_c, 0, 78, 100
2, 177360, Note_on_c, 0, 81, 100
2, 177420, Note_off_c, 0, 81, 64
2, 177420, Note_off_c, 0, 78, 64
2, 177420, Note_on_c, 0, 76, 100
2, 177420, Note_on_c, 0, 79, 100
2, 177480, Note_off_c, 0, 79, 64
2, 177480, Note_off_c, 0, 76, 64
2, 177480, Note_on_c, 0, 74, 100
2, 177480, Note_on_c, 0, 78, 100
2, 177540, Note_off_c, 0, 78, 64
2, 177540, Note_off_c, 0, 74, 64
2, 177540, Note_on_c, 0, 73, 100
2, 177540, Note_on_c, 0, 76, 100
2, 177600, Note_off_c, 0, 76, 64
2, 177600, Note_off_c, 0, 73, 64
2, 177600, Note_on_c, 0, 74, 100
2, 177840, Note_off_c, 0, 74, 64
2, 177840, Note_on_c, 0, 62, 100
2, 177888, Note_off_c, 0, 62, 64
2, 177960, Note_on_c, 0, 66, 100
2, 178008, Note_off_c, 0, 66, 64
2, 178080, Note_on_c, 0, 69, 100
2, 178128, Note_off_c, 0, 69, 64
2, 178200, Note_on_c, 0, 69, 100
2, 178248, Note_off_c, 0, 69, 64
2, 178320, Note_on_c, 0, 69, 100
2, 178368, Note_off_c, 0, 69, 64
2, 178440, Note_on_c, 0, 69, 100
2, 178488, Note_off_c, 0, 69, 64
2, 178560, Note_on_c, 0, 66, 100
2, 178560, Note_on_c, 0, 69, 100
2, 178800, Note_off_c, 0, 69, 64
2, 178800, Note_off_c, 0, 66, 64
2, 179160, Note_on_c, 0, 74, 100
2, 179208, Note_off_c, 0, 74, 64
2, 179280, Note_on_c, 0, 74, 100
2, 179310, Note_off_c, 0, 74, 64
2, 179310, Note_on_c, 0, 76, 100
2, 179340, Note_off_c, 0, 76, 64
2, 179340, Note_on_c, 0, 74, 100
2, 179370, Note_off_c, 0, 74, 64
2, 179370, Note_on_c, 0, 76, 100
2, 179400, Note_off_c, 0, 76, 64
2, 179400, Note_on_c, 0, 74, 100
2, 179430, Note_off_c, 0, 74, 64
2, 179430, Note_on_c, 0, 76, 100
2, 179460, Note_off_c, 0, 76, 64
2, 179460, Note_on_c, 0, 73, 100
2, 179490, Note_off_c, 0, 73, 64
2, 179490, Note_on_c, 0, 74, 100
2, 179520, Note_off_c, 0, 74, 64
2, 179520, Note_on_c, 0, 78, 100
2, 179568, Note_off_c, 0, 78, 64
2, 179640, Note_on_c, 0, 74, 100
2, 179688, Note_off_c, 0, 74, 64
2, 179760, Note_on_c, 0, 69, 100
2, 179808, Note_off_c, 0, 69, 64
2, 179880, Note_on_c, 0, 66, 100
2, 179928, Note_off_c, 0, 66, 64
2, 180000, Note_on_c, 0, 62, 100
2, 180240, Note_off_c, 0, 62, 64
2, 180351, End_track
3, 0, Start_track
3, 0, Title_t, "French horn       is made for"
3, 0, Program_c, 1, 60
3, 0, Note_on_c, 1, 62, 127
3, 0, Note_on_c, 1, 74, 127
3, 0, Control_c, 1, 7, 89
3, 1200, Note_off_c, 1, 74, 64
3, 1200, Note_off_c, 1, 62, 64
3, 1200, Note_on_c, 1, 62, 100
3, 1200, Note_on_c, 1, 74, 100
3, 1440, Note_off_c, 1, 74, 64
3, 1440, Note_off_c, 1, 62, 64
3, 1440, Note_on_c, 1, 62, 100
3, 1440, Note_on_c, 1, 74, 100
3, 1680, Note_off_c, 1, 74, 64
3, 1680, Note_off_c, 1, 62, 64
3, 1680, Note_on_c, 1, 62, 100
3, 1680, Note_on_c, 1, 74, 100
3, 1920, Note_off_c, 1, 74, 64
3, 1920, Note_off_c, 1, 62, 64
3, 1920, Note_on_c, 1, 62, 100
3, 1920, Note_on_c, 1, 74, 100
3, 3120, Note_off_c, 1, 74, 64
3, 3120, Note_off_c, 1, 62, 64
3, 3120, Note_on_c, 1, 62, 100
3, 3120, Note_on_c, 1, 74, 100
3, 3360, Note_off_c, 1, 74, 64
3, 3360, Note_off_c, 1, 62, 64
3, 3360, Note_on_c, 1, 62, 100
3, 3360, Note_on_c, 1, 74, 100
3, 3600, Note_off_c, 1, 74, 64
3, 3600, Note_off_c, 1, 62, 64
3, 3600, Note_on_c, 1, 62, 100
3, 3600, Note_on_c, 1, 74, 100
3, 3840, Note_off_c, 1, 74, 64
3, 3840, Note_off_c, 1, 62, 64
3, 3840, Note_on_c, 1, 62, 126
3, 3840, Note_on_c, 1, 74, 126
3, 3960, Note_off_c, 1, 74, 64
3, 3960, Note_off_c, 1, 62, 64
3, 3960, Note_on_c, 1, 74, 100
3, 3960, Note_on_c, 1, 78, 100
3, 3983, Note_off_c, 1, 74, 64
3, 4008, Note_off_c, 1, 78, 64
3, 4080, Note_on_c, 1, 74, 100
3, 4080, Note_on_c, 1, 78, 100
3, 4103, Note_off_c, 1, 74, 64
3, 4128, Note_off_c, 1, 78, 64
3, 4200, Note_on_c, 1, 74, 100
3, 4200, Note_on_c, 1, 78, 100
3, 4223, Note_off_c, 1, 74, 64
3, 4248, Note_off_c, 1, 78, 64
3, 4320, Note_on_c, 1, 74, 100
3, 4320, Note_on_c, 1, 78, 100
3, 4560, Note_off_c, 1, 78, 64
3, 4560, Note_off_c, 1, 74, 64
3, 6720, Note_on_c, 1, 69, 100
3, 6720, Note_on_c, 1, 76, 100
3, 6960, Note_off_c, 1, 76, 64
3, 6960, Note_off_c, 1, 69, 64
3, 6960, Note_on_c, 1, 76, 100
3, 6960, Note_on_c, 1, 79, 100
3, 7200, Note_off_c, 1, 79, 64
3, 7200, Note_off_c, 1, 76, 64
3, 7200, Note_on_c, 1, 74, 100
3, 7200, Note_on_c, 1, 78, 100
3, 7440, Note_off_c, 1, 78, 64
3, 7440, Note_off_c, 1, 74, 64
3, 7440, Note_on_c, 1, 78, 100
3, 7440, Note_on_c, 1, 81, 100
3, 7680, Note_off_c, 1, 81, 64
3, 7680, Note_off_c, 1, 78, 64
3, 7680, Note_on_c, 1, 69, 100
3, 7680, Note_on_c, 1, 76, 100
3, 7920, Note_off_c, 1, 76, 64
3, 7920, Note_off_c, 1, 69, 64
3, 7920, Note_on_c, 1, 74, 100
3, 7920, Note_on_c, 1, 78, 100
3, 8160, Note_off_c, 1, 78, 64
3, 8160, Note_off_c, 1, 74, 64
3, 8160, Note_on_c, 1, 76, 100
3, 8160, Note_on_c, 1, 79, 100
3, 8400, Note_off_c, 1, 79, 64
3, 8400, Note_off_c, 1, 76, 64
3, 8400, Note_on_c, 1, 69, 100
3, 8400, Note_on_c, 1, 76, 100
3, 8640, Note_off_c, 1, 76, 64
3, 8640, Note_off_c, 1, 69, 64
3, 8640, Note_on_c, 1, 62, 100
3, 8640, Note_on_c, 1, 74, 100
3, 9600, Note_off_c, 1, 74, 64
3, 9600, Note_off_c, 1, 62, 64
3, 9600, Note_on_c, 1, 69, 100
3, 9600, Note_on_c, 1, 76, 100
3, 9763, Note_off_c, 1, 76, 64
3, 9763, Note_off_c, 1, 69, 64
3, 9840, Note_on_c, 1, 69, 100
3, 9840, Note_on_c, 1, 76, 100
3, 10003, Note_off_c, 1, 76, 64
3, 10003, Note_off_c, 1, 69, 64
3, 10080, Note_on_c, 1, 69, 100
3, 10080, Note_on_c, 1, 76, 100
3, 10373, Note_off_c, 1, 76, 64
3, 10373, Note_off_c, 1, 69, 64
3, 13440, Note_on_c, 1, 62, 26
3, 13440, Note_on_c, 1, 74, 26
3, 15480, Note_off_c, 1, 74, 64
3, 15480, Note_off_c, 1, 62, 64
3, 19200, Note_on_c, 1, 62, 49
3, 19200, Note_on_c, 1, 74, 49
3, 21360, Note_off_c, 1, 74, 64
3, 21360, Note_off_c, 1, 62, 64
3, 21360, Note_on_c, 1, 62, 49
3, 21360, Note_on_c, 1, 74, 49
3, 21540, Note_off_c, 1, 74, 64
3, 21540, Note_off_c, 1, 62, 64
3, 21540, Note_on_c, 1, 62, 49
3, 21540, Note_on_c, 1, 74, 49
3, 21600, Note_off_c, 1, 74, 64
3, 21600, Note_off_c, 1, 62, 64
3, 21600, Note_on_c, 1, 62, 49
3, 21600, Note_on_c, 1, 74, 49
3, 21840, Note_off_c, 1, 74, 64
3, 21840, Note_off_c, 1, 62, 64
3, 21840, Note_on_c, 1, 62, 49
3, 21840, Note_on_c, 1, 74, 49
3, 22080, Note_off_c, 1, 74, 64
3, 22080, Note_off_c, 1, 62, 64
3, 22080, Note_on_c, 1, 62, 49
3, 22080, Note_on_c, 1, 74, 49
3, 22560, Note_off_c, 1, 74, 64
3, 22560, Note_off_c, 1, 62, 64
3, 22560, Note_on_c, 1, 74, 49
3, 22560, Note_on_c, 1, 76, 49
3, 22800, Note_off_c, 1, 76, 64
3, 22800, Note_off_c, 1, 74, 64
3, 22800, Note_on_c, 1, 74, 49
3, 22800, Note_on_c, 1, 76, 49
3, 22823, Note_off_c, 1, 74, 64
3, 22848, Note_off_c, 1, 76, 64
3, 22920, Note_on_c, 1, 74, 49
3, 22920, Note_on_c, 1, 76, 49
3, 22943, Note_off_c, 1, 74, 64
3, 22968, Note_off_c, 1, 76, 64
3, 23040, Note_on_c, 1, 74, 49
3, 23040, Note_on_c, 1, 78, 49
3, 23280, Note_off_c, 1, 78, 64
3, 23280, Note_off_c, 1, 74, 64
3, 23280, Note_on_c, 1, 74, 49
3, 23280, Note_on_c, 1, 78, 49
3, 23303, Note_off_c, 1, 74, 64
3, 23328, Note_off_c, 1, 78, 64
3, 23400, Note_on_c, 1, 74, 49
3, 23400, Note_on_c, 1, 78, 49
3, 23423, Note_off_c, 1, 74, 64
3, 23448, Note_off_c, 1, 78, 64
3, 23520, Note_on_c, 1, 74, 49
3, 23520, Note_on_c, 1, 78, 49
3, 23760, Note_off_c, 1, 78, 64
3, 23760, Note_off_c, 1, 74, 64
3, 23760, Note_on_c, 1, 69, 49
3, 23760, Note_on_c, 1, 76, 49
3, 24000, Note_off_c, 1, 76, 64
3, 24000, Note_off_c, 1, 69, 64
3, 24000, Note_on_c, 1, 66, 49
3, 24000, Note_on_c, 1, 74, 49
3, 24240, Note_off_c, 1, 74, 64
3, 24240, Note_off_c, 1, 66, 64
3, 25200, Note_on_c, 1, 62, 100
3, 25248, Note_off_c, 1, 62, 64
3, 25320, Note_on_c, 1, 66, 100
3, 25368, Note_off_c, 1, 66, 64
3, 25440, Note_on_c, 1, 69, 100
3, 25488, Note_off_c, 1, 69, 64
3, 25560, Note_on_c, 1, 69, 100
3, 25608, Note_off_c, 1, 69, 64
3, 25680, Note_on_c, 1, 69, 100
3, 25728, Note_off_c, 1, 69, 64
3, 25800, Note_on_c, 1, 69, 100
3, 25848, Note_off_c, 1, 69, 64
3, 25920, Note_on_c, 1, 66, 100
3, 25920, Note_on_c, 1, 74, 100
3, 26040, Note_off_c, 1, 74, 64
3, 26040, Note_off_c, 1, 66, 64
3, 27120, Note_on_c, 1, 62, 100
3, 27168, Note_off_c, 1, 62, 64
3, 27240, Note_on_c, 1, 66, 100
3, 27288, Note_off_c, 1, 66, 64
3, 27360, Note_on_c, 1, 69, 100
3, 27408, Note_off_c, 1, 69, 64
3, 27480, Note_on_c, 1, 69, 100
3, 27528, Note_off_c, 1, 69, 64
3, 27600, Note_on_c, 1, 69, 100
3, 27648, Note_off_c, 1, 69, 64
3, 27720, Note_on_c, 1, 69, 100
3, 27768, Note_off_c, 1, 69, 64
3, 27840, Note_on_c, 1, 66, 100
3, 27840, Note_on_c, 1, 74, 100
3, 28080, Note_off_c, 1, 74, 64
3, 28080, Note_off_c, 1, 66, 64
3, 28080, Note_on_c, 1, 74, 100
3, 28080, Note_on_c, 1, 78, 100
3, 28103, Note_off_c, 1, 74, 64
3, 28128, Note_off_c, 1, 78, 64
3, 28200, Note_on_c, 1, 74, 100
3, 28200, Note_on_c, 1, 78, 100
3, 28223, Note_off_c, 1, 74, 64
3, 28248, Note_off_c, 1, 78, 64
3, 28320, Note_on_c, 1, 74, 100
3, 28320, Note_on_c, 1, 78, 100
3, 28440, Note_off_c, 1, 78, 64
3, 28440, Note_on_c, 1, 81, 100
3, 28463, Note_off_c, 1, 74, 64
3, 28488, Note_off_c, 1, 81, 64
3, 28560, Note_on_c, 1, 81, 100
3, 28620, Note_off_c, 1, 81, 64
3, 28620, Note_on_c, 1, 79, 100
3, 28680, Note_off_c, 1, 79, 64
3, 28680, Note_on_c, 1, 78, 100
3, 28740, Note_off_c, 1, 78, 64
3, 28740, Note_on_c, 1, 76, 100
3, 28800, Note_off_c, 1, 76, 64
3, 28800, Note_on_c, 1, 66, 100
3, 28800, Note_on_c, 1, 74, 100
3, 29040, Note_off_c, 1, 74, 64
3, 29040, Note_off_c, 1, 66, 64
3, 29760, Note_on_c, 1, 74, 100
3, 29760, Note_on_c, 1, 78, 100
3, 30240, Note_off_c, 1, 78, 64
3, 30240, Note_off_c, 1, 74, 64
3, 30240, Note_on_c, 1, 69, 100
3, 30240, Note_on_c, 1, 76, 100
3, 30720, Note_off_c, 1, 76, 64
3, 30720, Note_off_c, 1, 69, 64
3, 30720, Note_on_c, 1, 62, 100
3, 30720, Note_on_c, 1, 74, 100
3, 30960, Note_off_c, 1, 74, 64
3, 30960, Note_off_c, 1, 62, 64
3, 44400, Note_on_c, 1, 62, 100
3, 44448, Note_off_c, 1, 62, 64
3, 44520, Note_on_c, 1, 66, 100
3, 44568, Note_off_c, 1, 66, 64
3, 44640, Note_on_c, 1, 69, 100
3, 44688, Note_off_c, 1, 69, 64
3, 44760, Note_on_c, 1, 69, 100
3, 44808, Note_off_c, 1, 69, 64
3, 44880, Note_on_c, 1, 69, 100
3, 44928, Note_off_c, 1, 69, 64
3, 45000, Note_on_c, 1, 69, 100
3, 45048, Note_off_c, 1, 69, 64
3, 45120, Note_on_c, 1, 74, 100
3, 45360, Note_off_c, 1, 74, 64
3, 45360, Note_on_c, 1, 74, 100
3, 45360, Note_on_c, 1, 78, 100
3, 45383, Note_off_c, 1, 74, 64
3, 45408, Note_off_c, 1, 78, 64
3, 45480, Note_on_c, 1, 74, 100
3, 45480, Note_on_c, 1, 78, 100
3, 45503, Note_off_c, 1, 74, 64
3, 45528, Note_off_c, 1, 78, 64
3, 45600, Note_on_c, 1, 74, 100
3, 45600, Note_on_c, 1, 78, 100
3, 45840, Note_off_c, 1, 78, 64
3, 45840, Note_off_c, 1, 74, 64
3, 45840, Note_on_c, 1, 81, 100
3, 45900, Note_off_c, 1, 81, 64
3, 45900, Note_on_c, 1, 79, 100
3, 45960, Note_off_c, 1, 79, 64
3, 45960, Note_on_c, 1, 78, 100
3, 46020, Note_off_c, 1, 78, 64
3, 46020, Note_on_c, 1, 76, 100
3, 46080, Note_off_c, 1, 76, 64
3, 46080, Note_on_c, 1, 66, 100
3, 46080, Note_on_c, 1, 74, 100
3, 46320, Note_off_c, 1, 74, 64
3, 46320, Note_off_c, 1, 66, 64
3, 61920, Note_on_c, 1, 76, 36
3, 61968, Note_off_c, 1, 76, 64
3, 62040, Note_on_c, 1, 76, 36
3, 62088, Note_off_c, 1, 76, 64
3, 62160, Note_on_c, 1, 76, 36
3, 62208, Note_off_c, 1, 76, 64
3, 62280, Note_on_c, 1, 76, 36
3, 62328, Note_off_c, 1, 76, 64
3, 62400, Note_on_c, 1, 76, 36
3, 62640, Note_off_c, 1, 76, 64
3, 62880, Note_on_c, 1, 76, 36
3, 62928, Note_off_c, 1, 76, 64
3, 63000, Note_on_c, 1, 76, 36
3, 63048, Note_off_c, 1, 76, 64
3, 63120, Note_on_c, 1, 76, 36
3, 63168, Note_off_c, 1, 76, 64
3, 63240, Note_on_c, 1, 76, 36
3, 63288, Note_off_c, 1, 76, 64
3, 63360, Note_on_c, 1, 76, 36
3, 64320, Note_off_c, 1, 76, 64
3, 64320, Note_on_c, 1, 69, 36
3, 65280, Note_on_c, 1, 57, 36
3, 67440, Note_off_c, 1, 57, 64
3, 67440, Note_off_c, 1, 69, 64
3, 72000, Note_on_c, 1, 69, 100
3, 72000, Note_on_c, 1, 76, 100
3, 72360, Note_off_c, 1, 76, 64
3, 72360, Note_off_c, 1, 69, 64
3, 72360, Note_on_c, 1, 76, 100
3, 72480, Note_off_c, 1, 76, 64
3, 72480, Note_on_c, 1, 69, 100
3, 72480, Note_on_c, 1, 81, 100
3, 72960, Note_off_c, 1, 81, 64
3, 72960, Note_off_c, 1, 69, 64
3, 72960, Note_on_c, 1, 76, 100
3, 73103, Note_off_c, 1, 76, 64
3, 73200, Note_on_c, 1, 76, 100
3, 73343, Note_off_c, 1, 76, 64
3, 73440, Note_on_c, 1, 76, 100
3, 73800, Note_off_c, 1, 76, 64
3, 76800, Note_on_c, 1, 57, 36
3, 76800, Note_on_c, 1, 69, 36
3, 78960, Note_off_c, 1, 69, 64
3, 78960, Note_off_c, 1, 57, 64
3, 88440, Note_on_c, 1, 69, 36
3, 88440, Note_on_c, 1, 76, 36
3, 88463, Note_off_c, 1, 69, 64
3, 88488, Note_off_c, 1, 76, 64
3, 88560, Note_on_c, 1, 69, 36
3, 88560, Note_on_c, 1, 76, 36
3, 88583, Note_off_c, 1, 69, 64
3, 88608, Note_off_c, 1, 76, 64
3, 88680, Note_on_c, 1, 69, 36
3, 88680, Note_on_c, 1, 76, 36
3, 88703, Note_off_c, 1, 69, 64
3, 88728, Note_off_c, 1, 76, 64
3, 88800, Note_on_c, 1, 69, 36
3, 88800, Note_on_c, 1, 76, 36
3, 89040, Note_off_c, 1, 76, 64
3, 89040, Note_off_c, 1, 69, 64
3, 89400, Note_on_c, 1, 74, 36
3, 89400, Note_on_c, 1, 78, 36
3, 89423, Note_off_c, 1, 74, 64
3, 89448, Note_off_c, 1, 78, 64
3, 89520, Note_on_c, 1, 74, 36
3, 89520, Note_on_c, 1, 78, 36
3, 89543, Note_off_c, 1, 74, 64
3, 89568, Note_off_c, 1, 78, 64
3, 89640, Note_on_c, 1, 74, 36
3, 89640, Note_on_c, 1, 78, 36
3, 89663, Note_off_c, 1, 74, 64
3, 89688, Note_off_c, 1, 78, 64
3, 89760, Note_on_c, 1, 74, 36
3, 89760, Note_on_c, 1, 78, 36
3, 90000, Note_off_c, 1, 78, 64
3, 90000, Note_off_c, 1, 74, 64
3, 90240, Note_on_c, 1, 76, 36
3, 92160, Note_off_c, 1, 76, 64
3, 92160, Note_on_c, 1, 69, 100
3, 92160, Note_on_c, 1, 76, 100
3, 92400, Note_off_c, 1, 76, 64
3, 92400, Note_off_c, 1, 69, 64
3, 92400, Note_on_c, 1, 69, 100
3, 92400, Note_on_c, 1, 76, 100
3, 92580, Note_off_c, 1, 76, 64
3, 92580, Note_off_c, 1, 69, 64
3, 92580, Note_on_c, 1, 69, 100
3, 92580, Note_on_c, 1, 76, 100
3, 92640, Note_off_c, 1, 76, 64
3, 92640, Note_off_c, 1, 69, 64
3, 92640, Note_on_c, 1, 69, 100
3, 92640, Note_on_c, 1, 76, 100
3, 92880, Note_off_c, 1, 76, 64
3, 92880, Note_off_c, 1, 69, 64
3, 92880, Note_on_c, 1, 69, 100
3, 92880, Note_on_c, 1, 76, 100
3, 93120, Note_off_c, 1, 76, 64
3, 93120, Note_off_c, 1, 69, 64
3, 93120, Note_on_c, 1, 74, 100
3, 93120, Note_on_c, 1, 78, 100
3, 93600, Note_off_c, 1, 78, 64
3, 93600, Note_off_c, 1, 74, 64
3, 93600, Note_on_c, 1, 74, 100
3, 93600, Note_on_c, 1, 78, 100
3, 93840, Note_off_c, 1, 78, 64
3, 93840, Note_off_c, 1, 74, 64
3, 93840, Note_on_c, 1, 74, 100
3, 93840, Note_on_c, 1, 78, 100
3, 93863, Note_off_c, 1, 74, 64
3, 93888, Note_off_c, 1, 78, 64
3, 93960, Note_on_c, 1, 74, 100
3, 93960, Note_on_c, 1, 78, 100
3, 93983, Note_off_c, 1, 74, 64
3, 94008, Note_off_c, 1, 78, 64
3, 94080, Note_on_c, 1, 76, 100
3, 94320, Note_off_c, 1, 76, 64
3, 94320, Note_on_c, 1, 76, 100
3, 94368, Note_off_c, 1, 76, 64
3, 94440, Note_on_c, 1, 76, 100
3, 94488, Note_off_c, 1, 76, 64
3, 94560, Note_on_c, 1, 76, 100
3, 94800, Note_off_c, 1, 76, 64
3, 94800, Note_on_c, 1, 76, 100
3, 95040, Note_off_c, 1, 76, 64
3, 95040, Note_on_c, 1, 69, 100
3, 95040, Note_on_c, 1, 76, 100
3, 95280, Note_off_c, 1, 76, 64
3, 95280, Note_off_c, 1, 69, 64
3, 96240, Note_on_c, 1, 69, 100
3, 96288, Note_off_c, 1, 69, 64
3, 96360, Note_on_c, 1, 69, 100
3, 96408, Note_off_c, 1, 69, 64
3, 96480, Note_on_c, 1, 76, 100
3, 96528, Note_off_c, 1, 76, 64
3, 96600, Note_on_c, 1, 76, 100
3, 96648, Note_off_c, 1, 76, 64
3, 96720, Note_on_c, 1, 76, 100
3, 96768, Note_off_c, 1, 76, 64
3, 96840, Note_on_c, 1, 76, 100
3, 96888, Note_off_c, 1, 76, 64
3, 96960, Note_on_c, 1, 69, 100
3, 96960, Note_on_c, 1, 76, 100
3, 97080, Note_off_c, 1, 76, 64
3, 97080, Note_off_c, 1, 69, 64
3, 98160, Note_on_c, 1, 69, 100
3, 98208, Note_off_c, 1, 69, 64
3, 98280, Note_on_c, 1, 69, 100
3, 98328, Note_off_c, 1, 69, 64
3, 98400, Note_on_c, 1, 76, 100
3, 98448, Note_off_c, 1, 76, 64
3, 98520, Note_on_c, 1, 76, 100
3, 98568, Note_off_c, 1, 76, 64
3, 98640, Note_on_c, 1, 76, 100
3, 98688, Note_off_c, 1, 76, 64
3, 98760, Note_on_c, 1, 76, 100
3, 98808, Note_off_c, 1, 76, 64
3, 98880, Note_on_c, 1, 69, 100
3, 98880, Note_on_c, 1, 76, 100
3, 99120, Note_off_c, 1, 76, 64
3, 99120, Note_off_c, 1, 69, 64
3, 99120, Note_on_c, 1, 69, 100
3, 99120, Note_on_c, 1, 81, 100
3, 99143, Note_off_c, 1, 69, 64
3, 99168, Note_off_c, 1, 81, 64
3, 99240, Note_on_c, 1, 69, 100
3, 99240, Note_on_c, 1, 81, 100
3, 99263, Note_off_c, 1, 69, 64
3, 99288, Note_off_c, 1, 81, 64
3, 99360, Note_on_c, 1, 76, 100
3, 99408, Note_off_c, 1, 76, 64
3, 99480, Note_on_c, 1, 76, 100
3, 99528, Note_off_c, 1, 76, 64
3, 99600, Note_on_c, 1, 76, 100
3, 99648, Note_off_c, 1, 76, 64
3, 99720, Note_on_c, 1, 76, 100
3, 99768, Note_off_c, 1, 76, 64
3, 99840, Note_on_c, 1, 69, 100
3, 99840, Note_on_c, 1, 76, 100
3, 100080, Note_off_c, 1, 76, 64
3, 100080, Note_off_c, 1, 69, 64
3, 100800, Note_on_c, 1, 57, 36
3, 100800, Note_on_c, 1, 69, 36
3, 106800, Note_off_c, 1, 69, 64
3, 106800, Note_off_c, 1, 57, 64
3, 110400, Note_on_c, 1, 69, 36
3, 114240, Note_off_c, 1, 69, 64
3, 114240, Note_on_c, 1, 62, 100
3, 114240, Note_on_c, 1, 74, 100
3, 115440, Note_off_c, 1, 74, 64
3, 115440, Note_off_c, 1, 62, 64
3, 115440, Note_on_c, 1, 62, 100
3, 115440, Note_on_c, 1, 74, 100
3, 116160, Note_off_c, 1, 74, 64
3, 116160, Note_off_c, 1, 62, 64
3, 116160, Note_on_c, 1, 62, 49
3, 116160, Note_on_c, 1, 74, 49
3, 117360, Note_off_c, 1, 74, 64
3, 117360, Note_off_c, 1, 62, 64
3, 117360, Note_on_c, 1, 62, 49
3, 117360, Note_on_c, 1, 74, 49
3, 118080, Note_off_c, 1, 74, 64
3, 118080, Note_off_c, 1, 62, 64
3, 130560, Note_on_c, 1, 57, 49
3, 130560, Note_on_c, 1, 69, 49
3, 131760, Note_off_c, 1, 69, 64
3, 131760, Note_off_c, 1, 57, 64
3, 132480, Note_on_c, 1, 57, 49
3, 132480, Note_on_c, 1, 69, 49
3, 133680, Note_off_c, 1, 69, 64
3, 133680, Note_off_c, 1, 57, 64
3, 134400, Note_on_c, 1, 57, 49
3, 134400, Note_on_c, 1, 69, 49
3, 135600, Note_off_c, 1, 69, 64
3, 135600, Note_off_c, 1, 57, 64
3, 136320, Note_on_c, 1, 62, 49
3, 136320, Note_on_c, 1, 74, 49
3, 141120, Note_off_c, 1, 74, 64
3, 141120, Note_off_c, 1, 62, 64
3, 141120, Note_on_c, 1, 57, 49
3, 141120, Note_on_c, 1, 69, 49
3, 141420, Note_off_c, 1, 69, 64
3, 141420, Note_off_c, 1, 57, 64
3, 144000, Note_on_c, 1, 62, 100
3, 144000, Note_on_c, 1, 74, 100
3, 144960, Note_off_c, 1, 74, 64
3, 144960, Note_off_c, 1, 62, 64
3, 144960, Note_on_c, 1, 69, 100
3, 144960, Note_on_c, 1, 76, 100
3, 145140, Note_off_c, 1, 76, 64
3, 145140, Note_off_c, 1, 69, 64
3, 145200, Note_on_c, 1, 69, 100
3, 145200, Note_on_c, 1, 76, 100
3, 145380, Note_off_c, 1, 76, 64
3, 145380, Note_off_c, 1, 69, 64
3, 145440, Note_on_c, 1, 69, 100
3, 145440, Note_on_c, 1, 76, 100
3, 145680, Note_off_c, 1, 76, 64
3, 145680, Note_off_c, 1, 69, 64
3, 148800, Note_on_c, 1, 62, 36
3, 148800, Note_on_c, 1, 74, 36
3, 150960, Note_off_c, 1, 74, 64
3, 150960, Note_off_c, 1, 62, 64
3, 162360, Note_on_c, 1, 74, 36
3, 162360, Note_on_c, 1, 78, 36
3, 162383, Note_off_c, 1, 74, 64
3, 162408, Note_off_c, 1, 78, 64
3, 162480, Note_on_c, 1, 74, 36
3, 162480, Note_on_c, 1, 78, 36
3, 162503, Note_off_c, 1, 74, 64
3, 162528, Note_off_c, 1, 78, 64
3, 162600, Note_on_c, 1, 74, 36
3, 162600, Note_on_c, 1, 78, 36
3, 162623, Note_off_c, 1, 74, 64
3, 162648, Note_off_c, 1, 78, 64
3, 162720, Note_on_c, 1, 74, 36
3, 162720, Note_on_c, 1, 78, 36
3, 162960, Note_off_c, 1, 78, 64
3, 162960, Note_off_c, 1, 74, 64
3, 163320, Note_on_c, 1, 74, 36
3, 163320, Note_on_c, 1, 76, 36
3, 163343, Note_off_c, 1, 74, 64
3, 163368, Note_off_c, 1, 76, 64
3, 163440, Note_on_c, 1, 74, 36
3, 163440, Note_on_c, 1, 76, 36
3, 163463, Note_off_c, 1, 74, 64
3, 163488, Note_off_c, 1, 76, 64
3, 163560, Note_on_c, 1, 74, 36
3, 163560, Note_on_c, 1, 76, 36
3, 163583, Note_off_c, 1, 74, 64
3, 163608, Note_off_c, 1, 76, 64
3, 163680, Note_on_c, 1, 74, 36
3, 163680, Note_on_c, 1, 76, 36
3, 163920, Note_off_c, 1, 76, 64
3, 163920, Note_off_c, 1, 74, 64
3, 164160, Note_on_c, 1, 69, 36
3, 165120, Note_off_c, 1, 69, 64
3, 165120, Note_on_c, 1, 69, 36
3, 165600, Note_off_c, 1, 69, 64
3, 165600, Note_on_c, 1, 69, 36
3, 165648, Note_off_c, 1, 69, 64
3, 165720, Note_on_c, 1, 69, 36
3, 165768, Note_off_c, 1, 69, 64
3, 165840, Note_on_c, 1, 69, 36
3, 165888, Note_off_c, 1, 69, 64
3, 165960, Note_on_c, 1, 69, 36
3, 166008, Note_off_c, 1, 69, 64
3, 166080, Note_on_c, 1, 62, 36
3, 166080, Note_on_c, 1, 74, 36
3, 166320, Note_off_c, 1, 74, 64
3, 166320, Note_off_c, 1, 62, 64
3, 166320, Note_on_c, 1, 62, 36
3, 166320, Note_on_c, 1, 74, 36
3, 167040, Note_off_c, 1, 74, 64
3, 167040, Note_off_c, 1, 62, 64
3, 167040, Note_on_c, 1, 62, 36
3, 167040, Note_on_c, 1, 74, 36
3, 167280, Note_off_c, 1, 74, 64
3, 167280, Note_off_c, 1, 62, 64
3, 167280, Note_on_c, 1, 62, 36
3, 167280, Note_on_c, 1, 74, 36
3, 168000, Note_off_c, 1, 74, 64
3, 168000, Note_off_c, 1, 62, 64
3, 168000, Note_on_c, 1, 62, 36
3, 168000, Note_on_c, 1, 74, 36
3, 168240, Note_off_c, 1, 74, 64
3, 168240, Note_off_c, 1, 62, 64
3, 168240, Note_on_c, 1, 62, 36
3, 168240, Note_on_c, 1, 74, 36
3, 168960, Note_off_c, 1, 74, 64
3, 168960, Note_off_c, 1, 62, 64
3, 168960, Note_on_c, 1, 74, 36
3, 168960, Note_on_c, 1, 78, 36
3, 169200, Note_off_c, 1, 78, 64
3, 169200, Note_off_c, 1, 74, 64
3, 169200, Note_on_c, 1, 74, 36
3, 169200, Note_on_c, 1, 78, 36
3, 169920, Note_off_c, 1, 78, 64
3, 169920, Note_off_c, 1, 74, 64
3, 169920, Note_on_c, 1, 74, 36
3, 169920, Note_on_c, 1, 78, 36
3, 170400, Note_off_c, 1, 78, 64
3, 170400, Note_off_c, 1, 74, 64
3, 170880, Note_on_c, 1, 62, 100
3, 170880, Note_on_c, 1, 74, 100
3, 171120, Note_off_c, 1, 74, 64
3, 171120, Note_off_c, 1, 62, 64
3, 171120, Note_on_c, 1, 62, 100
3, 171120, Note_on_c, 1, 74, 100
3, 171300, Note_off_c, 1, 74, 64
3, 171300, Note_off_c, 1, 62, 64
3, 171300, Note_on_c, 1, 62, 100
3, 171300, Note_on_c, 1, 74, 100
3, 171360, Note_off_c, 1, 74, 64
3, 171360, Note_off_c, 1, 62, 64
3, 171360, Note_on_c, 1, 62, 100
3, 171360, Note_on_c, 1, 74, 100
3, 171600, Note_off_c, 1, 74, 64
3, 171600, Note_off_c, 1, 62, 64
3, 171600, Note_on_c, 1, 62, 100
3, 171600, Note_on_c, 1, 74, 100
3, 171840, Note_off_c, 1, 74, 64
3, 171840, Note_off_c, 1, 62, 64
3, 171840, Note_on_c, 1, 62, 100
3, 171840, Note_on_c, 1, 74, 100
3, 172320, Note_off_c, 1, 74, 64
3, 172320, Note_off_c, 1, 62, 64
3, 172320, Note_on_c, 1, 74, 100
3, 172320, Note_on_c, 1, 76, 100
3, 172560, Note_off_c, 1, 76, 64
3, 172560, Note_off_c, 1, 74, 64
3, 172560, Note_on_c, 1, 74, 100
3, 172560, Note_on_c, 1, 76, 100
3, 172583, Note_off_c, 1, 74, 64
3, 172608, Note_off_c, 1, 76, 64
3, 172680, Note_on_c, 1, 74, 100
3, 172680, Note_on_c, 1, 76, 100
3, 172703, Note_off_c, 1, 74, 64
3, 172728, Note_off_c, 1, 76, 64
3, 172800, Note_on_c, 1, 74, 100
3, 172800, Note_on_c, 1, 78, 100
3, 173040, Note_off_c, 1, 78, 64
3, 173040, Note_off_c, 1, 74, 64
3, 173040, Note_on_c, 1, 74, 100
3, 173040, Note_on_c, 1, 78, 100
3, 173063, Note_off_c, 1, 74, 64
3, 173088, Note_off_c, 1, 78, 64
3, 173160, Note_on_c, 1, 74, 100
3, 173160, Note_on_c, 1, 78, 100
3, 173183, Note_off_c, 1, 74, 64
3, 173208, Note_off_c, 1, 78, 64
3, 173280, Note_on_c, 1, 74, 100
3, 173280, Note_on_c, 1, 78, 100
3, 173520, Note_off_c, 1, 78, 64
3, 173520, Note_off_c, 1, 74, 64
3, 173520, Note_on_c, 1, 69, 100
3, 173520, Note_on_c, 1, 76, 100
3, 173663, Note_off_c, 1, 69, 64
3, 173688, Note_off_c, 1, 76, 64
3, 173760, Note_on_c, 1, 66, 100
3, 173760, Note_on_c, 1, 74, 100
3, 174000, Note_off_c, 1, 74, 64
3, 174000, Note_off_c, 1, 66, 64
3, 174960, Note_on_c, 1, 62, 100
3, 175008, Note_off_c, 1, 62, 64
3, 175080, Note_on_c, 1, 66, 100
3, 175128, Note_off_c, 1, 66, 64
3, 175200, Note_on_c, 1, 69, 100
3, 175248, Note_off_c, 1, 69, 64
3, 175320, Note_on_c, 1, 69, 100
3, 175368, Note_off_c, 1, 69, 64
3, 175440, Note_on_c, 1, 69, 100
3, 175488, Note_off_c, 1, 69, 64
3, 175560, Note_on_c, 1, 69, 100
3, 175608, Note_off_c, 1, 69, 64
3, 175680, Note_on_c, 1, 66, 100
3, 175680, Note_on_c, 1, 74, 100
3, 175800, Note_off_c, 1, 74, 64
3, 175800, Note_off_c, 1, 66, 64
3, 176880, Note_on_c, 1, 62, 100
3, 176928, Note_off_c, 1, 62, 64
3, 177000, Note_on_c, 1, 66, 100
3, 177048, Note_off_c, 1, 66, 64
3, 177120, Note_on_c, 1, 69, 100
3, 177168, Note_off_c, 1, 69, 64
3, 177240, Note_on_c, 1, 69, 100
3, 177288, Note_off_c, 1, 69, 64
3, 177360, Note_on_c, 1, 69, 100
3, 177408, Note_off_c, 1, 69, 64
3, 177480, Note_on_c, 1, 69, 100
3, 177528, Note_off_c, 1, 69, 64
3, 177600, Note_on_c, 1, 66, 100
3, 177600, Note_on_c, 1, 74, 100
3, 177840, Note_off_c, 1, 74, 64
3, 177840, Note_off_c, 1, 66, 64
3, 177840, Note_on_c, 1, 74, 100
3, 177840, Note_on_c, 1, 78, 100
3, 177863, Note_off_c, 1, 74, 64
3, 177888, Note_off_c, 1, 78, 64
3, 177960, Note_on_c, 1, 74, 100
3, 177960, Note_on_c, 1, 78, 100
3, 177983, Note_off_c, 1, 74, 64
3, 178008, Note_off_c, 1, 78, 64
3, 178080, Note_on_c, 1, 74, 100
3, 178080, Note_on_c, 1, 78, 100
3, 178320, Note_off_c, 1, 78, 64
3, 178320, Note_off_c, 1, 74, 64
3, 178320, Note_on_c, 1, 76, 100
3, 178320, Note_on_c, 1, 81, 100
3, 178343, Note_off_c, 1, 76, 64
3, 178368, Note_off_c, 1, 81, 64
3, 178440, Note_on_c, 1, 67, 100
3, 178440, Note_on_c, 1, 78, 100
3, 178463, Note_off_c, 1, 67, 64
3, 178488, Note_off_c, 1, 78, 64
3, 178560, Note_on_c, 1, 66, 100
3, 178560, Note_on_c, 1, 74, 100
3, 178800, Note_off_c, 1, 74, 64
3, 178800, Note_off_c, 1, 66, 64
3, 179160, Note_on_c, 1, 74, 100
3, 179208, Note_off_c, 1, 74, 64
3, 179280, Note_on_c, 1, 74, 100
3, 179448, Note_off_c, 1, 74, 64
3, 179520, Note_on_c, 1, 78, 100
3, 179568, Note_off_c, 1, 78, 64
3, 179640, Note_on_c, 1, 74, 100
3, 179688, Note_off_c, 1, 74, 64
3, 179760, Note_on_c, 1, 69, 100
3, 179808, Note_off_c, 1, 69, 64
3, 179880, Note_on_c, 1, 66, 100
3, 179928, Note_off_c, 1, 66, 64
3, 180000, Note_on_c, 1, 62, 100
3, 180240, Note_off_c, 1, 62, 64
3, 180240, End_track
4, 0, Start_track
4, 0, Title_t, "Violin 1     Proteus2/XR"
4, 0, Program_c, 2, 48
4, 0, Note_on_c, 2, 57, 126
4, 0, Note_on_c, 2, 66, 126
4, 0, Note_on_c, 2, 74, 126
4, 0, Control_c, 2, 7, 104
4, 240, Note_off_c, 2, 74, 64
4, 240, Note_off_c, 2, 66, 64
4, 240, Note_off_c, 2, 57, 64
4, 240, Note_on_c, 2, 74, 100
4, 720, Note_off_c, 2, 74, 64
4, 720, Note_on_c, 2, 73, 100
4, 780, Note_off_c, 2, 73, 64
4, 780, Note_on_c, 2, 74, 100
4, 840, Note_off_c, 2, 74, 64
4, 840, Note_on_c, 2, 73, 100
4, 900, Note_off_c, 2, 73, 64
4, 900, Note_on_c, 2, 74, 100
4, 960, Note_off_c, 2, 74, 64
4, 960, Note_on_c, 2, 79, 126
4, 1200, Note_off_c, 2, 79, 64
4, 1200, Note_on_c, 2, 79, 100
4, 1680, Note_off_c, 2, 79, 64
4, 1680, Note_on_c, 2, 79, 100
4, 1920, Note_off_c, 2, 79, 64
4, 1920, Note_on_c, 2, 77, 126
4, 2040, Note_off_c, 2, 77, 64
4, 2040, Note_on_c, 2, 78, 100
4, 2088, Note_off_c, 2, 78, 64
4, 2160, Note_on_c, 2, 78, 100
4, 2640, Note_off_c, 2, 78, 64
4, 2640, Note_on_c, 2, 79, 100
4, 2700, Note_off_c, 2, 79, 64
4, 2700, Note_on_c, 2, 78, 100
4, 2760, Note_off_c, 2, 78, 64
4, 2760, Note_on_c, 2, 79, 100
4, 2820, Note_off_c, 2, 79, 64
4, 2820, Note_on_c, 2, 78, 100
4, 2880, Note_off_c, 2, 78, 64
4, 2880, Note_on_c, 2, 83, 126
4, 3120, Note_off_c, 2, 83, 64
4, 3120, Note_on_c, 2, 83, 100
4, 3600, Note_off_c, 2, 83, 64
4, 3600, Note_on_c, 2, 83, 100
4, 3840, Note_off_c, 2, 83, 64
4, 3840, Note_on_c, 2, 80, 126
4, 3960, Note_off_c, 2, 80, 64
4, 3960, Note_on_c, 2, 81, 100
4, 4080, Note_off_c, 2, 81, 64
4, 4080, Note_on_c, 2, 81, 100
4, 4320, Note_off_c, 2, 81, 64
4, 4440, Note_on_c, 2, 81, 36
4, 4488, Note_off_c, 2, 81, 64
4, 4560, Note_on_c, 2, 83, 36
4, 4608, Note_off_c, 2, 83, 64
4, 4680, Note_on_c, 2, 85, 36
4, 4728, Note_off_c, 2, 85, 64
4, 4800, Note_on_c, 2, 86, 62
4, 5280, Note_off_c, 2, 86, 64
4, 5280, Note_on_c, 2, 81, 36
4, 5520, Note_off_c, 2, 81, 64
4, 5520, Note_on_c, 2, 78, 36
4, 5760, Note_off_c, 2, 78, 64
4, 5760, Note_on_c, 2, 78, 36
4, 5880, Note_off_c, 2, 78, 64
4, 5880, Note_on_c, 2, 79, 36
4, 6000, Note_off_c, 2, 79, 64
4, 6000, Note_on_c, 2, 75, 39
4, 6120, Note_off_c, 2, 75, 64
4, 6120, Note_on_c, 2, 76, 42
4, 6240, Note_off_c, 2, 76, 64
4, 6240, Note_on_c, 2, 76, 45
4, 6540, Note_off_c, 2, 76, 64
4, 6600, Note_on_c, 2, 83, 55
4, 6720, Note_off_c, 2, 83, 64
4, 6720, Note_on_c, 2, 83, 127
4, 6840, Note_off_c, 2, 83, 64
4, 6840, Note_on_c, 2, 81, 104
4, 7200, Note_off_c, 2, 81, 64
4, 7200, Note_on_c, 2, 83, 127
4, 7320, Note_off_c, 2, 83, 64
4, 7320, Note_on_c, 2, 81, 104
4, 7680, Note_off_c, 2, 81, 64
4, 7680, Note_on_c, 2, 83, 104
4, 7800, Note_off_c, 2, 83, 64
4, 7800, Note_on_c, 2, 81, 104
4, 7920, Note_off_c, 2, 81, 64
4, 7920, Note_on_c, 2, 81, 104
4, 8220, Note_off_c, 2, 81, 64
4, 8220, Note_on_c, 2, 83, 104
4, 8280, Note_off_c, 2, 83, 64
4, 8280, Note_on_c, 2, 81, 104
4, 8340, Note_off_c, 2, 81, 64
4, 8340, Note_on_c, 2, 83, 104
4, 8400, Note_off_c, 2, 83, 64
4, 8400, Note_on_c, 2, 81, 104
4, 8460, Note_off_c, 2, 81, 64
4, 8460, Note_on_c, 2, 79, 104
4, 8520, Note_off_c, 2, 79, 64
4, 8520, Note_on_c, 2, 78, 104
4, 8580, Note_off_c, 2, 78, 64
4, 8580, Note_on_c, 2, 76, 104
4, 8640, Note_off_c, 2, 76, 64
4, 8640, Note_on_c, 2, 74, 104
4, 8730, Note_on_c, 2, 76, 104
4, 8760, Note_off_c, 2, 76, 64
4, 8820, Note_off_c, 2, 74, 64
4, 8820, Note_on_c, 2, 73, 104
4, 8880, Note_off_c, 2, 73, 64
4, 8880, Note_on_c, 2, 74, 104
4, 8928, Note_off_c, 2, 74, 64
4, 9000, Note_on_c, 2, 76, 104
4, 9048, Note_off_c, 2, 76, 64
4, 9120, Note_on_c, 2, 78, 104
4, 9210, Note_on_c, 2, 79, 104
4, 9240, Note_off_c, 2, 79, 64
4, 9300, Note_off_c, 2, 78, 64
4, 9300, Note_on_c, 2, 76, 104
4, 9360, Note_off_c, 2, 76, 64
4, 9360, Note_on_c, 2, 78, 104
4, 9408, Note_off_c, 2, 78, 64
4, 9480, Note_on_c, 2, 80, 104
4, 9528, Note_off_c, 2, 80, 64
4, 9600, Note_on_c, 2, 81, 104
4, 9763, Note_off_c, 2, 81, 64
4, 9840, Note_on_c, 2, 76, 104
4, 9840, Note_on_c, 2, 85, 104
4, 10003, Note_off_c, 2, 85, 64
4, 10003, Note_off_c, 2, 76, 64
4, 10080, Note_on_c, 2, 73, 104
4, 10080, Note_on_c, 2, 81, 104
4, 10373, Note_off_c, 2, 81, 64
4, 10373, Note_off_c, 2, 73, 64
4, 10560, Note_on_c, 2, 81, 36
4, 11040, Note_off_c, 2, 81, 64
4, 11040, Note_on_c, 2, 83, 36
4, 11160, Note_off_c, 2, 83, 64
4, 11160, Note_on_c, 2, 81, 36
4, 11520, Note_off_c, 2, 81, 64
4, 11520, Note_on_c, 2, 83, 36
4, 11640, Note_off_c, 2, 83, 64
4, 11640, Note_on_c, 2, 81, 36
4, 11880, Note_off_c, 2, 81, 64
4, 12480, Note_on_c, 2, 86, 62
4, 12600, Note_off_c, 2, 86, 64
4, 12600, Note_on_c, 2, 83, 36
4, 12720, Note_off_c, 2, 83, 64
4, 12720, Note_on_c, 2, 79, 36
4, 13080, Note_off_c, 2, 79, 64
4, 13080, Note_on_c, 2, 81, 36
4, 13140, Note_off_c, 2, 81, 64
4, 13140, Note_on_c, 2, 79, 36
4, 13200, Note_off_c, 2, 79, 64
4, 13200, Note_on_c, 2, 78, 36
4, 13248, Note_off_c, 2, 78, 64
4, 13320, Note_on_c, 2, 79, 36
4, 13368, Note_off_c, 2, 79, 64
4, 13440, Note_on_c, 2, 81, 36
4, 13560, Note_off_c, 2, 81, 64
4, 13560, Note_on_c, 2, 78, 36
4, 13680, Note_off_c, 2, 78, 64
4, 13680, Note_on_c, 2, 74, 36
4, 13920, Note_off_c, 2, 74, 64
4, 14400, Note_on_c, 2, 86, 36
4, 14520, Note_off_c, 2, 86, 64
4, 14520, Note_on_c, 2, 83, 36
4, 14640, Note_off_c, 2, 83, 64
4, 14640, Note_on_c, 2, 79, 36
4, 15000, Note_off_c, 2, 79, 64
4, 15000, Note_on_c, 2, 81, 36
4, 15060, Note_off_c, 2, 81, 64
4, 15060, Note_on_c, 2, 79, 36
4, 15120, Note_off_c, 2, 79, 64
4, 15120, Note_on_c, 2, 78, 36
4, 15168, Note_off_c, 2, 78, 64
4, 15240, Note_on_c, 2, 79, 36
4, 15288, Note_off_c, 2, 79, 64
4, 15360, Note_on_c, 2, 81, 36
4, 15600, Note_off_c, 2, 81, 64
4, 15840, Note_on_c, 2, 81, 36
4, 16200, Note_off_c, 2, 81, 64
4, 16200, Note_on_c, 2, 73, 36
4, 16248, Note_off_c, 2, 73, 64
4, 16320, Note_on_c, 2, 76, 62
4, 16440, Note_off_c, 2, 76, 64
4, 16440, Note_on_c, 2, 74, 36
4, 16560, Note_off_c, 2, 74, 64
4, 16680, Note_on_c, 2, 78, 36
4, 16728, Note_off_c, 2, 78, 64
4, 16800, Note_on_c, 2, 75, 62
4, 16920, Note_off_c, 2, 75, 64
4, 16920, Note_on_c, 2, 76, 36
4, 17040, Note_off_c, 2, 76, 64
4, 17160, Note_on_c, 2, 79, 36
4, 17208, Note_off_c, 2, 79, 64
4, 17280, Note_on_c, 2, 77, 62
4, 17400, Note_off_c, 2, 77, 64
4, 17400, Note_on_c, 2, 78, 36
4, 17520, Note_off_c, 2, 78, 64
4, 17760, Note_on_c, 2, 81, 36
4, 17808, Note_off_c, 2, 81, 64
4, 17880, Note_on_c, 2, 81, 36
4, 18120, Note_off_c, 2, 81, 64
4, 18120, Note_on_c, 2, 73, 36
4, 18168, Note_off_c, 2, 73, 64
4, 18240, Note_on_c, 2, 76, 36
4, 18360, Note_off_c, 2, 76, 64
4, 18360, Note_on_c, 2, 74, 36
4, 18600, Note_off_c, 2, 74, 64
4, 18600, Note_on_c, 2, 78, 36
4, 18648, Note_off_c, 2, 78, 64
4, 18720, Note_on_c, 2, 75, 62
4, 18840, Note_off_c, 2, 75, 64
4, 18840, Note_on_c, 2, 76, 36
4, 18960, Note_off_c, 2, 76, 64
4, 18960, Note_on_c, 2, 78, 36
4, 19080, Note_off_c, 2, 78, 64
4, 19080, Note_on_c, 2, 79, 36
4, 19200, Note_off_c, 2, 79, 64
4, 19200, Note_on_c, 2, 77, 17
4, 19248, Note_off_c, 2, 77, 64
4, 19320, Note_on_c, 2, 78, 19
4, 19560, Note_off_c, 2, 78, 64
4, 19560, Note_on_c, 2, 81, 21
4, 19680, Note_off_c, 2, 81, 64
4, 19680, Note_on_c, 2, 78, 22
4, 19800, Note_off_c, 2, 78, 64
4, 19800, Note_on_c, 2, 79, 23
4, 19920, Note_off_c, 2, 79, 64
4, 19920, Note_on_c, 2, 81, 25
4, 20040, Note_off_c, 2, 81, 64
4, 20040, Note_on_c, 2, 83, 26
4, 20160, Note_off_c, 2, 83, 64
4, 20160, Note_on_c, 2, 80, 27
4, 20280, Note_off_c, 2, 80, 64
4, 20280, Note_on_c, 2, 81, 28
4, 20400, Note_off_c, 2, 81, 64
4, 20400, Note_on_c, 2, 83, 30
4, 20520, Note_off_c, 2, 83, 64
4, 20520, Note_on_c, 2, 84, 31
4, 20640, Note_off_c, 2, 84, 64
4, 20640, Note_on_c, 2, 82, 32
4, 20760, Note_off_c, 2, 82, 64
4, 20760, Note_on_c, 2, 83, 34
4, 20880, Note_off_c, 2, 83, 64
4, 20880, Note_on_c, 2, 84, 34
4, 21000, Note_off_c, 2, 84, 64
4, 21000, Note_on_c, 2, 86, 36
4, 21090, Note_on_c, 2, 86, 38
4, 21120, Note_off_c, 2, 86, 64
4, 21120, Note_off_c, 2, 86, 64
4, 21120, Note_on_c, 2, 84, 38
4, 21168, Note_off_c, 2, 84, 64
4, 21240, Note_on_c, 2, 84, 38
4, 21480, Note_off_c, 2, 84, 64
4, 21480, Note_on_c, 2, 84, 41
4, 21720, Note_off_c, 2, 84, 64
4, 21720, Note_on_c, 2, 84, 44
4, 21960, Note_off_c, 2, 84, 64
4, 21960, Note_on_c, 2, 84, 36
4, 22008, Note_off_c, 2, 84, 64
4, 22080, Note_on_c, 2, 83, 36
4, 22140, Note_off_c, 2, 83, 64
4, 22140, Note_on_c, 2, 85, 36
4, 22200, Note_off_c, 2, 85, 64
4, 22200, Note_on_c, 2, 86, 36
4, 22260, Note_off_c, 2, 86, 64
4, 22260, Note_on_c, 2, 85, 36
4, 22320, Note_off_c, 2, 85, 64
4, 22320, Note_on_c, 2, 86, 36
4, 22440, Note_off_c, 2, 86, 64
4, 22560, Note_on_c, 2, 79, 36
4, 22620, Note_off_c, 2, 79, 64
4, 22620, Note_on_c, 2, 81, 36
4, 22680, Note_off_c, 2, 81, 64
4, 22680, Note_on_c, 2, 83, 36
4, 22740, Note_off_c, 2, 83, 64
4, 22740, Note_on_c, 2, 81, 36
4, 22800, Note_off_c, 2, 81, 64
4, 22800, Note_on_c, 2, 83, 36
4, 22848, Note_off_c, 2, 83, 64
4, 22920, Note_on_c, 2, 79, 36
4, 22968, Note_off_c, 2, 79, 64
4, 23040, Note_on_c, 2, 78, 36
4, 23088, Note_off_c, 2, 78, 64
4, 23160, Note_on_c, 2, 81, 36
4, 23220, Note_off_c, 2, 81, 64
4, 23220, Note_on_c, 2, 78, 36
4, 23280, Note_off_c, 2, 78, 64
4, 23280, Note_on_c, 2, 74, 36
4, 23328, Note_off_c, 2, 74, 64
4, 23400, Note_on_c, 2, 78, 36
4, 23460, Note_off_c, 2, 78, 64
4, 23460, Note_on_c, 2, 74, 36
4, 23520, Note_off_c, 2, 74, 64
4, 23520, Note_on_c, 2, 69, 36
4, 23760, Note_off_c, 2, 69, 64
4, 23760, Note_on_c, 2, 57, 36
4, 23760, Note_on_c, 2, 64, 36
4, 23760, Note_on_c, 2, 73, 36
4, 24000, Note_off_c, 2, 73, 64
4, 24000, Note_off_c, 2, 64, 64
4, 24000, Note_off_c, 2, 57, 64
4, 24000, Note_on_c, 2, 57, 36
4, 24000, Note_on_c, 2, 66, 36
4, 24000, Note_on_c, 2, 74, 36
4, 24240, Note_off_c, 2, 74, 64
4, 24240, Note_off_c, 2, 66, 64
4, 24240, Note_off_c, 2, 57, 64
4, 24240, Note_on_c, 2, 74, 36
4, 24300, Note_off_c, 2, 74, 64
4, 24300, Note_on_c, 2, 76, 36
4, 24360, Note_off_c, 2, 76, 64
4, 24360, Note_on_c, 2, 78, 36
4, 24420, Note_off_c, 2, 78, 64
4, 24420, Note_on_c, 2, 79, 36
4, 24480, Note_off_c, 2, 79, 64
4, 24480, Note_on_c, 2, 81, 36
4, 24528, Note_off_c, 2, 81, 64
4, 24600, Note_on_c, 2, 81, 36
4, 24648, Note_off_c, 2, 81, 64
4, 24720, Note_on_c, 2, 81, 36
4, 24768, Note_off_c, 2, 81, 64
4, 24840, Note_on_c, 2, 81, 36
4, 24888, Note_off_c, 2, 81, 64
4, 24960, Note_on_c, 2, 81, 36
4, 25080, Note_off_c, 2, 81, 64
4, 25200, Note_on_c, 2, 86, 100
4, 25248, Note_off_c, 2, 86, 64
4, 25320, Note_on_c, 2, 81, 100
4, 25368, Note_off_c, 2, 81, 64
4, 25440, Note_on_c, 2, 78, 100
4, 25620, Note_off_c, 2, 78, 64
4, 25620, Note_on_c, 2, 81, 100
4, 25680, Note_off_c, 2, 81, 64
4, 25680, Note_on_c, 2, 81, 100
4, 25740, Note_off_c, 2, 81, 64
4, 25740, Note_on_c, 2, 79, 100
4, 25800, Note_off_c, 2, 79, 64
4, 25800, Note_on_c, 2, 78, 100
4, 25860, Note_off_c, 2, 78, 64
4, 25860, Note_on_c, 2, 76, 100
4, 25920, Note_off_c, 2, 76, 64
4, 25920, Note_on_c, 2, 74, 100
4, 26040, Note_off_c, 2, 74, 64
4, 26160, Note_on_c, 2, 74, 36
4, 26220, Note_off_c, 2, 74, 64
4, 26220, Note_on_c, 2, 76, 36
4, 26280, Note_off_c, 2, 76, 64
4, 26280, Note_on_c, 2, 78, 36
4, 26340, Note_off_c, 2, 78, 64
4, 26340, Note_on_c, 2, 79, 36
4, 26400, Note_off_c, 2, 79, 64
4, 26400, Note_on_c, 2, 81, 36
4, 26460, Note_off_c, 2, 81, 64
4, 26460, Note_on_c, 2, 81, 36
4, 26520, Note_off_c, 2, 81, 64
4, 26520, Note_on_c, 2, 81, 33
4, 26580, Note_off_c, 2, 81, 64
4, 26580, Note_on_c, 2, 81, 33
4, 26640, Note_off_c, 2, 81, 64
4, 26640, Note_on_c, 2, 81, 30
4, 26700, Note_off_c, 2, 81, 64
4, 26700, Note_on_c, 2, 81, 30
4, 26760, Note_off_c, 2, 81, 64
4, 26760, Note_on_c, 2, 81, 27
4, 26820, Note_off_c, 2, 81, 64
4, 26820, Note_on_c, 2, 81, 27
4, 26880, Note_off_c, 2, 81, 64
4, 26880, Note_on_c, 2, 81, 23
4, 27000, Note_off_c, 2, 81, 64
4, 27120, Note_on_c, 2, 86, 97
4, 27168, Note_off_c, 2, 86, 64
4, 27240, Note_on_c, 2, 81, 94
4, 27288, Note_off_c, 2, 81, 64
4, 27360, Note_on_c, 2, 78, 90
4, 27420, Note_off_c, 2, 78, 64
4, 27420, Note_on_c, 2, 81, 90
4, 27480, Note_off_c, 2, 81, 64
4, 27480, Note_on_c, 2, 78, 90
4, 27540, Note_off_c, 2, 78, 64
4, 27540, Note_on_c, 2, 81, 90
4, 27600, Note_off_c, 2, 81, 64
4, 27600, Note_on_c, 2, 81, 90
4, 27660, Note_off_c, 2, 81, 64
4, 27660, Note_on_c, 2, 79, 90
4, 27720, Note_off_c, 2, 79, 64
4, 27720, Note_on_c, 2, 78, 90
4, 27780, Note_off_c, 2, 78, 64
4, 27780, Note_on_c, 2, 76, 90
4, 27840, Note_off_c, 2, 76, 64
4, 27840, Note_on_c, 2, 78, 90
4, 27900, Note_off_c, 2, 78, 64
4, 27900, Note_on_c, 2, 74, 90
4, 27960, Note_off_c, 2, 74, 64
4, 27960, Note_on_c, 2, 81, 90
4, 28020, Note_off_c, 2, 81, 64
4, 28020, Note_on_c, 2, 78, 90
4, 28080, Note_off_c, 2, 78, 64
4, 28080, Note_on_c, 2, 86, 90
4, 28140, Note_off_c, 2, 86, 64
4, 28140, Note_on_c, 2, 81, 90
4, 28200, Note_off_c, 2, 81, 64
4, 28200, Note_on_c, 2, 86, 90
4, 28260, Note_off_c, 2, 86, 64
4, 28260, Note_on_c, 2, 81, 90
4, 28320, Note_off_c, 2, 81, 64
4, 28320, Note_on_c, 2, 78, 90
4, 28380, Note_off_c, 2, 78, 64
4, 28380, Note_on_c, 2, 81, 90
4, 28440, Note_off_c, 2, 81, 64
4, 28440, Note_on_c, 2, 78, 90
4, 28500, Note_off_c, 2, 78, 64
4, 28500, Note_on_c, 2, 81, 90
4, 28560, Note_off_c, 2, 81, 64
4, 28560, Note_on_c, 2, 81, 90
4, 28620, Note_off_c, 2, 81, 64
4, 28620, Note_on_c, 2, 79, 90
4, 28680, Note_off_c, 2, 79, 64
4, 28680, Note_on_c, 2, 78, 90
4, 28740, Note_off_c, 2, 78, 64
4, 28740, Note_on_c, 2, 76, 90
4, 28800, Note_off_c, 2, 76, 64
4, 28800, Note_on_c, 2, 74, 90
4, 28848, Note_off_c, 2, 74, 64
4, 28920, Note_on_c, 2, 74, 90
4, 28968, Note_off_c, 2, 74, 64
4, 29040, Note_on_c, 2, 74, 90
4, 29070, Note_off_c, 2, 74, 64
4, 29070, Note_on_c, 2, 76, 90
4, 29100, Note_off_c, 2, 76, 64
4, 29100, Note_on_c, 2, 74, 90
4, 29130, Note_off_c, 2, 74, 64
4, 29130, Note_on_c, 2, 76, 90
4, 29160, Note_off_c, 2, 76, 64
4, 29160, Note_on_c, 2, 74, 90
4, 29190, Note_off_c, 2, 74, 64
4, 29190, Note_on_c, 2, 76, 90
4, 29220, Note_off_c, 2, 76, 64
4, 29220, Note_on_c, 2, 73, 90
4, 29250, Note_off_c, 2, 73, 64
4, 29250, Note_on_c, 2, 74, 90
4, 29280, Note_off_c, 2, 74, 64
4, 29280, Note_on_c, 2, 78, 90
4, 29328, Note_off_c, 2, 78, 64
4, 29400, Note_on_c, 2, 74, 90
4, 29448, Note_off_c, 2, 74, 64
4, 29520, Note_on_c, 2, 69, 90
4, 29568, Note_off_c, 2, 69, 64
4, 29640, Note_on_c, 2, 66, 90
4, 29688, Note_off_c, 2, 66, 64
4, 29760, Note_on_c, 2, 62, 90
4, 30000, Note_off_c, 2, 62, 64
4, 30720, Note_on_c, 2, 74, 62
4, 30960, Note_off_c, 2, 74, 64
4, 30960, Note_on_c, 2, 74, 36
4, 31440, Note_off_c, 2, 74, 64
4, 31440, Note_on_c, 2, 73, 36
4, 31500, Note_off_c, 2, 73, 64
4, 31500, Note_on_c, 2, 74, 36
4, 31560, Note_off_c, 2, 74, 64
4, 31560, Note_on_c, 2, 73, 36
4, 31620, Note_off_c, 2, 73, 64
4, 31620, Note_on_c, 2, 74, 36
4, 31680, Note_off_c, 2, 74, 64
4, 31680, Note_on_c, 2, 79, 62
4, 31920, Note_off_c, 2, 79, 64
4, 31920, Note_on_c, 2, 79, 36
4, 32400, Note_off_c, 2, 79, 64
4, 32400, Note_on_c, 2, 79, 36
4, 32640, Note_off_c, 2, 79, 64
4, 32640, Note_on_c, 2, 77, 62
4, 32760, Note_off_c, 2, 77, 64
4, 32760, Note_on_c, 2, 78, 36
4, 32808, Note_off_c, 2, 78, 64
4, 32880, Note_on_c, 2, 78, 36
4, 33360, Note_off_c, 2, 78, 64
4, 33360, Note_on_c, 2, 79, 36
4, 33420, Note_off_c, 2, 79, 64
4, 33420, Note_on_c, 2, 78, 36
4, 33480, Note_off_c, 2, 78, 64
4, 33480, Note_on_c, 2, 79, 36
4, 33540, Note_off_c, 2, 79, 64
4, 33540, Note_on_c, 2, 78, 36
4, 33600, Note_off_c, 2, 78, 64
4, 33600, Note_on_c, 2, 83, 62
4, 33840, Note_off_c, 2, 83, 64
4, 33840, Note_on_c, 2, 83, 36
4, 34320, Note_off_c, 2, 83, 64
4, 34320, Note_on_c, 2, 83, 36
4, 34560, Note_off_c, 2, 83, 64
4, 34560, Note_on_c, 2, 81, 49
4, 34680, Note_off_c, 2, 81, 64
4, 34680, Note_on_c, 2, 78, 49
4, 34728, Note_off_c, 2, 78, 64
4, 34800, Note_on_c, 2, 78, 49
4, 34848, Note_off_c, 2, 78, 64
4, 34920, Note_on_c, 2, 78, 49
4, 34968, Note_off_c, 2, 78, 64
4, 35040, Note_on_c, 2, 78, 49
4, 35088, Note_off_c, 2, 78, 64
4, 35160, Note_on_c, 2, 78, 49
4, 35208, Note_off_c, 2, 78, 64
4, 35280, Note_on_c, 2, 78, 49
4, 35328, Note_off_c, 2, 78, 64
4, 35400, Note_on_c, 2, 78, 49
4, 35448, Note_off_c, 2, 78, 64
4, 35520, Note_on_c, 2, 76, 49
4, 35640, Note_off_c, 2, 76, 64
4, 35640, Note_on_c, 2, 76, 49
4, 35688, Note_off_c, 2, 76, 64
4, 35760, Note_on_c, 2, 76, 49
4, 35808, Note_off_c, 2, 76, 64
4, 35880, Note_on_c, 2, 76, 49
4, 35928, Note_off_c, 2, 76, 64
4, 36000, Note_on_c, 2, 76, 49
4, 36048, Note_off_c, 2, 76, 64
4, 36120, Note_on_c, 2, 76, 49
4, 36168, Note_off_c, 2, 76, 64
4, 36240, Note_on_c, 2, 76, 49
4, 36288, Note_off_c, 2, 76, 64
4, 36360, Note_on_c, 2, 76, 49
4, 36408, Note_off_c, 2, 76, 64
4, 36480, Note_on_c, 2, 74, 49
4, 36600, Note_off_c, 2, 74, 64
4, 36600, Note_on_c, 2, 74, 49
4, 36648, Note_off_c, 2, 74, 64
4, 36720, Note_on_c, 2, 74, 49
4, 36768, Note_off_c, 2, 74, 64
4, 36840, Note_on_c, 2, 74, 49
4, 36888, Note_off_c, 2, 74, 64
4, 36960, Note_on_c, 2, 74, 49
4, 37008, Note_off_c, 2, 74, 64
4, 37080, Note_on_c, 2, 74, 49
4, 37128, Note_off_c, 2, 74, 64
4, 37200, Note_on_c, 2, 74, 49
4, 37248, Note_off_c, 2, 74, 64
4, 37320, Note_on_c, 2, 74, 49
4, 37368, Note_off_c, 2, 74, 64
4, 37440, Note_on_c, 2, 74, 49
4, 37560, Note_off_c, 2, 74, 64
4, 37560, Note_on_c, 2, 74, 49
4, 37608, Note_off_c, 2, 74, 64
4, 37680, Note_on_c, 2, 74, 49
4, 37728, Note_off_c, 2, 74, 64
4, 37800, Note_on_c, 2, 74, 49
4, 37848, Note_off_c, 2, 74, 64
4, 37920, Note_on_c, 2, 74, 49
4, 37968, Note_off_c, 2, 74, 64
4, 38040, Note_on_c, 2, 74, 49
4, 38088, Note_off_c, 2, 74, 64
4, 38160, Note_on_c, 2, 74, 49
4, 38208, Note_off_c, 2, 74, 64
4, 38280, Note_on_c, 2, 74, 49
4, 38328, Note_off_c, 2, 74, 64
4, 38400, Note_on_c, 2, 74, 49
4, 38640, Note_off_c, 2, 74, 64
4, 38640, Note_on_c, 2, 71, 49
4, 38736, Note_off_c, 2, 71, 64
4, 39000, Note_on_c, 2, 71, 49
4, 39048, Note_off_c, 2, 71, 64
4, 39120, Note_on_c, 2, 71, 49
4, 39168, Note_off_c, 2, 71, 64
4, 39240, Note_on_c, 2, 71, 49
4, 39288, Note_off_c, 2, 71, 64
4, 39360, Note_on_c, 2, 74, 49
4, 39600, Note_off_c, 2, 74, 64
4, 39600, Note_on_c, 2, 69, 49
4, 39696, Note_off_c, 2, 69, 64
4, 39960, Note_on_c, 2, 69, 49
4, 40008, Note_off_c, 2, 69, 64
4, 40080, Note_on_c, 2, 69, 49
4, 40128, Note_off_c, 2, 69, 64
4, 40200, Note_on_c, 2, 74, 49
4, 40248, Note_off_c, 2, 74, 64
4, 40320, Note_on_c, 2, 71, 49
4, 40560, Note_off_c, 2, 71, 64
4, 40560, Note_on_c, 2, 76, 49
4, 41040, Note_off_c, 2, 76, 64
4, 41040, Note_on_c, 2, 67, 49
4, 41280, Note_off_c, 2, 67, 64
4, 41280, Note_on_c, 2, 66, 49
4, 41520, Note_off_c, 2, 66, 64
4, 41520, Note_on_c, 2, 67, 49
4, 41760, Note_off_c, 2, 67, 64
4, 41760, Note_on_c, 2, 66, 49
4, 42000, Note_off_c, 2, 66, 64
4, 42000, Note_on_c, 2, 64, 49
4, 42240, Note_off_c, 2, 64, 64
4, 42240, Note_on_c, 2, 62, 49
4, 42480, Note_off_c, 2, 62, 64
4, 42480, Note_on_c, 2, 67, 49
4, 42720, Note_off_c, 2, 67, 64
4, 42720, Note_on_c, 2, 66, 49
4, 42960, Note_off_c, 2, 66, 64
4, 42960, Note_on_c, 2, 64, 49
4, 43200, Note_off_c, 2, 64, 64
4, 43200, Note_on_c, 2, 62, 49
4, 43440, Note_off_c, 2, 62, 64
4, 43440, Note_on_c, 2, 74, 49
4, 43920, Note_off_c, 2, 74, 64
4, 43920, Note_on_c, 2, 73, 49
4, 43950, Note_off_c, 2, 73, 64
4, 43950, Note_on_c, 2, 74, 49
4, 43980, Note_off_c, 2, 74, 64
4, 43980, Note_on_c, 2, 73, 49
4, 44010, Note_off_c, 2, 73, 64
4, 44010, Note_on_c, 2, 74, 49
4, 44040, Note_off_c, 2, 74, 64
4, 44040, Note_on_c, 2, 73, 49
4, 44070, Note_off_c, 2, 73, 64
4, 44070, Note_on_c, 2, 74, 49
4, 44100, Note_off_c, 2, 74, 64
4, 44100, Note_on_c, 2, 71, 49
4, 44130, Note_off_c, 2, 71, 64
4, 44130, Note_on_c, 2, 73, 49
4, 44160, Note_off_c, 2, 73, 64
4, 44160, Note_on_c, 2, 74, 49
4, 44280, Note_off_c, 2, 74, 64
4, 44400, Note_on_c, 2, 86, 100
4, 44448, Note_off_c, 2, 86, 64
4, 44520, Note_on_c, 2, 81, 100
4, 44568, Note_off_c, 2, 81, 64
4, 44640, Note_on_c, 2, 78, 100
4, 44820, Note_off_c, 2, 78, 64
4, 44820, Note_on_c, 2, 81, 100
4, 44880, Note_off_c, 2, 81, 64
4, 44880, Note_on_c, 2, 81, 100
4, 44940, Note_off_c, 2, 81, 64
4, 44940, Note_on_c, 2, 79, 100
4, 45000, Note_off_c, 2, 79, 64
4, 45000, Note_on_c, 2, 78, 100
4, 45060, Note_off_c, 2, 78, 64
4, 45060, Note_on_c, 2, 76, 100
4, 45120, Note_off_c, 2, 76, 64
4, 45120, Note_on_c, 2, 78, 100
4, 45180, Note_off_c, 2, 78, 64
4, 45180, Note_on_c, 2, 74, 100
4, 45240, Note_off_c, 2, 74, 64
4, 45240, Note_on_c, 2, 81, 100
4, 45300, Note_off_c, 2, 81, 64
4, 45300, Note_on_c, 2, 78, 100
4, 45360, Note_off_c, 2, 78, 64
4, 45360, Note_on_c, 2, 86, 100
4, 45420, Note_off_c, 2, 86, 64
4, 45420, Note_on_c, 2, 81, 100
4, 45480, Note_off_c, 2, 81, 64
4, 45480, Note_on_c, 2, 86, 100
4, 45540, Note_off_c, 2, 86, 64
4, 45540, Note_on_c, 2, 81, 100
4, 45600, Note_off_c, 2, 81, 64
4, 45600, Note_on_c, 2, 78, 100
4, 45660, Note_off_c, 2, 78, 64
4, 45660, Note_on_c, 2, 81, 100
4, 45720, Note_off_c, 2, 81, 64
4, 45720, Note_on_c, 2, 78, 100
4, 45780, Note_off_c, 2, 78, 64
4, 45780, Note_on_c, 2, 81, 100
4, 45840, Note_off_c, 2, 81, 64
4, 45840, Note_on_c, 2, 81, 100
4, 45900, Note_off_c, 2, 81, 64
4, 45900, Note_on_c, 2, 79, 100
4, 45960, Note_off_c, 2, 79, 64
4, 45960, Note_on_c, 2, 78, 100
4, 46020, Note_off_c, 2, 78, 64
4, 46020, Note_on_c, 2, 76, 100
4, 46080, Note_off_c, 2, 76, 64
4, 46080, Note_on_c, 2, 74, 100
4, 46128, Note_off_c, 2, 74, 64
4, 46200, Note_on_c, 2, 74, 100
4, 46248, Note_off_c, 2, 74, 64
4, 46320, Note_on_c, 2, 74, 100
4, 46350, Note_off_c, 2, 74, 64
4, 46350, Note_on_c, 2, 76, 100
4, 46380, Note_off_c, 2, 76, 64
4, 46380, Note_on_c, 2, 74, 100
4, 46410, Note_off_c, 2, 74, 64
4, 46410, Note_on_c, 2, 76, 100
4, 46440, Note_off_c, 2, 76, 64
4, 46440, Note_on_c, 2, 74, 100
4, 46470, Note_off_c, 2, 74, 64
4, 46470, Note_on_c, 2, 76, 100
4, 46500, Note_off_c, 2, 76, 64
4, 46500, Note_on_c, 2, 73, 100
4, 46530, Note_off_c, 2, 73, 64
4, 46530, Note_on_c, 2, 74, 100
4, 46560, Note_off_c, 2, 74, 64
4, 46560, Note_on_c, 2, 78, 100
4, 46608, Note_off_c, 2, 78, 64
4, 46680, Note_on_c, 2, 74, 100
4, 46728, Note_off_c, 2, 74, 64
4, 46800, Note_on_c, 2, 69, 100
4, 46848, Note_off_c, 2, 69, 64
4, 46920, Note_on_c, 2, 66, 100
4, 46968, Note_off_c, 2, 66, 64
4, 47040, Note_on_c, 2, 62, 100
4, 47280, Note_off_c, 2, 62, 64
4, 48240, Note_on_c, 2, 69, 36
4, 48480, Note_off_c, 2, 69, 64
4, 48480, Note_on_c, 2, 73, 36
4, 48720, Note_off_c, 2, 73, 64
4, 48720, Note_on_c, 2, 74, 49
4, 48960, Note_off_c, 2, 74, 64
4, 48960, Note_on_c, 2, 72, 62
4, 49320, Note_off_c, 2, 72, 64
4, 49320, Note_on_c, 2, 73, 36
4, 49440, Note_off_c, 2, 73, 64
4, 49440, Note_on_c, 2, 73, 36
4, 49680, Note_off_c, 2, 73, 64
4, 51120, Note_on_c, 2, 73, 36
4, 51360, Note_off_c, 2, 73, 64
4, 51360, Note_on_c, 2, 74, 36
4, 51600, Note_off_c, 2, 74, 64
4, 51600, Note_on_c, 2, 76, 36
4, 51840, Note_off_c, 2, 76, 64
4, 51840, Note_on_c, 2, 73, 36
4, 52200, Note_off_c, 2, 73, 64
4, 52200, Note_on_c, 2, 74, 36
4, 52320, Note_off_c, 2, 74, 64
4, 52320, Note_on_c, 2, 74, 23
4, 52560, Note_off_c, 2, 74, 64
4, 53760, Note_on_c, 2, 76, 23
4, 53880, Note_off_c, 2, 76, 64
4, 53880, Note_on_c, 2, 76, 23
4, 53928, Note_off_c, 2, 76, 64
4, 54000, Note_on_c, 2, 76, 23
4, 54048, Note_off_c, 2, 76, 64
4, 54120, Note_on_c, 2, 76, 23
4, 54168, Note_off_c, 2, 76, 64
4, 54240, Note_on_c, 2, 76, 23
4, 54288, Note_off_c, 2, 76, 64
4, 54360, Note_on_c, 2, 76, 23
4, 54408, Note_off_c, 2, 76, 64
4, 54480, Note_on_c, 2, 76, 23
4, 54528, Note_off_c, 2, 76, 64
4, 54600, Note_on_c, 2, 76, 23
4, 54648, Note_off_c, 2, 76, 64
4, 54720, Note_on_c, 2, 76, 23
4, 54768, Note_off_c, 2, 76, 64
4, 54840, Note_on_c, 2, 76, 23
4, 54888, Note_off_c, 2, 76, 64
4, 54960, Note_on_c, 2, 76, 23
4, 55008, Note_off_c, 2, 76, 64
4, 55080, Note_on_c, 2, 76, 23
4, 55128, Note_off_c, 2, 76, 64
4, 55200, Note_on_c, 2, 76, 23
4, 55248, Note_off_c, 2, 76, 64
4, 55320, Note_on_c, 2, 76, 23
4, 55368, Note_off_c, 2, 76, 64
4, 55440, Note_on_c, 2, 76, 23
4, 55488, Note_off_c, 2, 76, 64
4, 55560, Note_on_c, 2, 76, 23
4, 55608, Note_off_c, 2, 76, 64
4, 55680, Note_on_c, 2, 76, 23
4, 55800, Note_off_c, 2, 76, 64
4, 55800, Note_on_c, 2, 76, 23
4, 55848, Note_off_c, 2, 76, 64
4, 55920, Note_on_c, 2, 76, 23
4, 55968, Note_off_c, 2, 76, 64
4, 56040, Note_on_c, 2, 76, 23
4, 56088, Note_off_c, 2, 76, 64
4, 56160, Note_on_c, 2, 76, 23
4, 56208, Note_off_c, 2, 76, 64
4, 56280, Note_on_c, 2, 76, 23
4, 56328, Note_off_c, 2, 76, 64
4, 56400, Note_on_c, 2, 76, 23
4, 56448, Note_off_c, 2, 76, 64
4, 56520, Note_on_c, 2, 76, 23
4, 56568, Note_off_c, 2, 76, 64
4, 56640, Note_on_c, 2, 76, 23
4, 56688, Note_off_c, 2, 76, 64
4, 56760, Note_on_c, 2, 76, 23
4, 56808, Note_off_c, 2, 76, 64
4, 56880, Note_on_c, 2, 76, 23
4, 56928, Note_off_c, 2, 76, 64
4, 57000, Note_on_c, 2, 76, 23
4, 57048, Note_off_c, 2, 76, 64
4, 57120, Note_on_c, 2, 76, 23
4, 57168, Note_off_c, 2, 76, 64
4, 57240, Note_on_c, 2, 73, 23
4, 57360, Note_off_c, 2, 73, 64
4, 57360, Note_on_c, 2, 74, 23
4, 57480, Note_off_c, 2, 74, 64
4, 57480, Note_on_c, 2, 76, 23
4, 57528, Note_off_c, 2, 76, 64
4, 57600, Note_on_c, 2, 78, 23
4, 57720, Note_off_c, 2, 78, 64
4, 57720, Note_on_c, 2, 78, 23
4, 57768, Note_off_c, 2, 78, 64
4, 57840, Note_on_c, 2, 78, 23
4, 57888, Note_off_c, 2, 78, 64
4, 57960, Note_on_c, 2, 78, 23
4, 58008, Note_off_c, 2, 78, 64
4, 58080, Note_on_c, 2, 79, 36
4, 58200, Note_off_c, 2, 79, 64
4, 58200, Note_on_c, 2, 79, 23
4, 58248, Note_off_c, 2, 79, 64
4, 58320, Note_on_c, 2, 79, 23
4, 58368, Note_off_c, 2, 79, 64
4, 58440, Note_on_c, 2, 79, 23
4, 58488, Note_off_c, 2, 79, 64
4, 58560, Note_on_c, 2, 78, 23
4, 58608, Note_off_c, 2, 78, 64
4, 58680, Note_on_c, 2, 78, 23
4, 58728, Note_off_c, 2, 78, 64
4, 58800, Note_on_c, 2, 78, 23
4, 58848, Note_off_c, 2, 78, 64
4, 58920, Note_on_c, 2, 78, 23
4, 58968, Note_off_c, 2, 78, 64
4, 59040, Note_on_c, 2, 79, 36
4, 59160, Note_off_c, 2, 79, 64
4, 59160, Note_on_c, 2, 79, 23
4, 59208, Note_off_c, 2, 79, 64
4, 59280, Note_on_c, 2, 79, 23
4, 59328, Note_off_c, 2, 79, 64
4, 59400, Note_on_c, 2, 79, 23
4, 59448, Note_off_c, 2, 79, 64
4, 59520, Note_on_c, 2, 78, 23
4, 59640, Note_off_c, 2, 78, 64
4, 59640, Note_on_c, 2, 78, 23
4, 59688, Note_off_c, 2, 78, 64
4, 59760, Note_on_c, 2, 78, 23
4, 59808, Note_off_c, 2, 78, 64
4, 59880, Note_on_c, 2, 78, 23
4, 59928, Note_off_c, 2, 78, 64
4, 60000, Note_on_c, 2, 78, 23
4, 60048, Note_off_c, 2, 78, 64
4, 60120, Note_on_c, 2, 78, 23
4, 60168, Note_off_c, 2, 78, 64
4, 60240, Note_on_c, 2, 78, 23
4, 60288, Note_off_c, 2, 78, 64
4, 60360, Note_on_c, 2, 78, 23
4, 60408, Note_off_c, 2, 78, 64
4, 60480, Note_on_c, 2, 71, 23
4, 60576, Note_off_c, 2, 71, 64
4, 61200, Note_on_c, 2, 68, 23
4, 61200, Note_on_c, 2, 71, 23
4, 61248, Note_off_c, 2, 68, 64
4, 61296, Note_off_c, 2, 71, 64
4, 61440, Note_on_c, 2, 68, 23
4, 61440, Note_on_c, 2, 71, 23
4, 61463, Note_off_c, 2, 68, 64
4, 61488, Note_off_c, 2, 71, 64
4, 61560, Note_on_c, 2, 68, 23
4, 61560, Note_on_c, 2, 71, 23
4, 61583, Note_off_c, 2, 68, 64
4, 61608, Note_off_c, 2, 71, 64
4, 61680, Note_on_c, 2, 68, 23
4, 61680, Note_on_c, 2, 71, 23
4, 61703, Note_off_c, 2, 68, 64
4, 61728, Note_off_c, 2, 71, 64
4, 61800, Note_on_c, 2, 68, 23
4, 61800, Note_on_c, 2, 71, 23
4, 61823, Note_off_c, 2, 68, 64
4, 61848, Note_off_c, 2, 71, 64
4, 61920, Note_on_c, 2, 68, 23
4, 61920, Note_on_c, 2, 71, 23
4, 62160, Note_off_c, 2, 71, 64
4, 62160, Note_off_c, 2, 68, 64
4, 62400, Note_on_c, 2, 64, 23
4, 62400, Note_on_c, 2, 74, 23
4, 62423, Note_off_c, 2, 64, 64
4, 62448, Note_off_c, 2, 74, 64
4, 62520, Note_on_c, 2, 64, 23
4, 62520, Note_on_c, 2, 74, 23
4, 62543, Note_off_c, 2, 64, 64
4, 62568, Note_off_c, 2, 74, 64
4, 62640, Note_on_c, 2, 64, 23
4, 62640, Note_on_c, 2, 74, 23
4, 62663, Note_off_c, 2, 64, 64
4, 62688, Note_off_c, 2, 74, 64
4, 62760, Note_on_c, 2, 64, 23
4, 62760, Note_on_c, 2, 74, 23
4, 62783, Note_off_c, 2, 64, 64
4, 62808, Note_off_c, 2, 74, 64
4, 62880, Note_on_c, 2, 64, 23
4, 62880, Note_on_c, 2, 74, 23
4, 63120, Note_off_c, 2, 74, 64
4, 63120, Note_off_c, 2, 64, 64
4, 63360, Note_on_c, 2, 74, 23
4, 63480, Note_off_c, 2, 74, 64
4, 63600, Note_on_c, 2, 74, 26
4, 63720, Note_off_c, 2, 74, 64
4, 63840, Note_on_c, 2, 74, 32
4, 63960, Note_off_c, 2, 74, 64
4, 64080, Note_on_c, 2, 74, 39
4, 64200, Note_off_c, 2, 74, 64
4, 64320, Note_on_c, 2, 73, 45
4, 64440, Note_off_c, 2, 73, 64
4, 64560, Note_on_c, 2, 73, 45
4, 64620, Note_off_c, 2, 73, 64
4, 64620, Note_on_c, 2, 76, 45
4, 64680, Note_off_c, 2, 76, 64
4, 64680, Note_on_c, 2, 74, 45
4, 64740, Note_off_c, 2, 74, 64
4, 64740, Note_on_c, 2, 78, 45
4, 64800, Note_off_c, 2, 78, 64
4, 64800, Note_on_c, 2, 76, 45
4, 64920, Note_off_c, 2, 76, 64
4, 65280, Note_on_c, 2, 74, 45
4, 65400, Note_off_c, 2, 74, 64
4, 65520, Note_on_c, 2, 74, 45
4, 65580, Note_off_c, 2, 74, 64
4, 65580, Note_on_c, 2, 78, 45
4, 65640, Note_off_c, 2, 78, 64
4, 65640, Note_on_c, 2, 76, 45
4, 65700, Note_off_c, 2, 76, 64
4, 65700, Note_on_c, 2, 79, 45
4, 65760, Note_off_c, 2, 79, 64
4, 65760, Note_on_c, 2, 78, 45
4, 65880, Note_off_c, 2, 78, 64
4, 66240, Note_on_c, 2, 76, 45
4, 66360, Note_off_c, 2, 76, 64
4, 66480, Note_on_c, 2, 76, 45
4, 66540, Note_off_c, 2, 76, 64
4, 66540, Note_on_c, 2, 79, 45
4, 66600, Note_off_c, 2, 79, 64
4, 66600, Note_on_c, 2, 78, 45
4, 66660, Note_off_c, 2, 78, 64
4, 66660, Note_on_c, 2, 81, 45
4, 66720, Note_off_c, 2, 81, 64
4, 66720, Note_on_c, 2, 79, 45
4, 66840, Note_off_c, 2, 79, 64
4, 67260, Note_on_c, 2, 78, 45
4, 67320, Note_off_c, 2, 78, 64
4, 67320, Note_on_c, 2, 76, 45
4, 67380, Note_off_c, 2, 76, 64
4, 67380, Note_on_c, 2, 78, 45
4, 67440, Note_off_c, 2, 78, 64
4, 67440, Note_on_c, 2, 79, 45
4, 67500, Note_off_c, 2, 79, 64
4, 67500, Note_on_c, 2, 78, 45
4, 67560, Note_off_c, 2, 78, 64
4, 67560, Note_on_c, 2, 76, 45
4, 67620, Note_off_c, 2, 76, 64
4, 67620, Note_on_c, 2, 78, 45
4, 67680, Note_off_c, 2, 78, 64
4, 67740, Note_on_c, 2, 76, 45
4, 67800, Note_off_c, 2, 76, 64
4, 67800, Note_on_c, 2, 74, 45
4, 67860, Note_off_c, 2, 74, 64
4, 67860, Note_on_c, 2, 76, 45
4, 67920, Note_off_c, 2, 76, 64
4, 67920, Note_on_c, 2, 78, 45
4, 67980, Note_off_c, 2, 78, 64
4, 67980, Note_on_c, 2, 76, 45
4, 68040, Note_off_c, 2, 76, 64
4, 68040, Note_on_c, 2, 74, 45
4, 68100, Note_off_c, 2, 74, 64
4, 68100, Note_on_c, 2, 76, 45
4, 68160, Note_off_c, 2, 76, 64
4, 68160, Note_on_c, 2, 75, 49
4, 68208, Note_off_c, 2, 75, 64
4, 68280, Note_on_c, 2, 75, 23
4, 68328, Note_off_c, 2, 75, 64
4, 68400, Note_on_c, 2, 75, 23
4, 68448, Note_off_c, 2, 75, 64
4, 68520, Note_on_c, 2, 75, 23
4, 68568, Note_off_c, 2, 75, 64
4, 68640, Note_on_c, 2, 75, 23
4, 68688, Note_off_c, 2, 75, 64
4, 68760, Note_on_c, 2, 75, 23
4, 68808, Note_off_c, 2, 75, 64
4, 68880, Note_on_c, 2, 75, 23
4, 68928, Note_off_c, 2, 75, 64
4, 69000, Note_on_c, 2, 75, 23
4, 69048, Note_off_c, 2, 75, 64
4, 69240, Note_on_c, 2, 76, 23
4, 69360, Note_off_c, 2, 76, 64
4, 69360, Note_on_c, 2, 80, 23
4, 69408, Note_off_c, 2, 80, 64
4, 69480, Note_on_c, 2, 80, 23
4, 69528, Note_off_c, 2, 80, 64
4, 69720, Note_on_c, 2, 71, 23
4, 69840, Note_off_c, 2, 71, 64
4, 69840, Note_on_c, 2, 78, 23
4, 69888, Note_off_c, 2, 78, 64
4, 69960, Note_on_c, 2, 78, 23
4, 70008, Note_off_c, 2, 78, 64
4, 70200, Note_on_c, 2, 76, 23
4, 70248, Note_off_c, 2, 76, 64
4, 70440, Note_on_c, 2, 76, 26
4, 70488, Note_off_c, 2, 76, 64
4, 70680, Note_on_c, 2, 78, 32
4, 70728, Note_off_c, 2, 78, 64
4, 70920, Note_on_c, 2, 74, 39
4, 70968, Note_off_c, 2, 74, 64
4, 71040, Note_on_c, 2, 73, 42
4, 71088, Note_off_c, 2, 73, 64
4, 71160, Note_on_c, 2, 73, 45
4, 71208, Note_off_c, 2, 73, 64
4, 71280, Note_on_c, 2, 73, 48
4, 71328, Note_off_c, 2, 73, 64
4, 71400, Note_on_c, 2, 73, 51
4, 71448, Note_off_c, 2, 73, 64
4, 71520, Note_on_c, 2, 74, 54
4, 71640, Note_off_c, 2, 74, 64
4, 71640, Note_on_c, 2, 71, 58
4, 71688, Note_off_c, 2, 71, 64
4, 71760, Note_on_c, 2, 71, 61
4, 71880, Note_off_c, 2, 71, 64
4, 71880, Note_on_c, 2, 68, 64
4, 71928, Note_off_c, 2, 68, 64
4, 72000, Note_on_c, 2, 69, 103
4, 72090, Note_on_c, 2, 71, 103
4, 72120, Note_off_c, 2, 71, 64
4, 72120, Note_off_c, 2, 69, 64
4, 72120, Note_on_c, 2, 69, 103
4, 72180, Note_off_c, 2, 69, 64
4, 72180, Note_on_c, 2, 68, 103
4, 72240, Note_off_c, 2, 68, 64
4, 72240, Note_on_c, 2, 69, 103
4, 72288, Note_off_c, 2, 69, 64
4, 72360, Note_on_c, 2, 71, 103
4, 72408, Note_off_c, 2, 71, 64
4, 72480, Note_on_c, 2, 73, 103
4, 72570, Note_on_c, 2, 74, 103
4, 72600, Note_off_c, 2, 74, 64
4, 72600, Note_off_c, 2, 73, 64
4, 72600, Note_on_c, 2, 73, 103
4, 72660, Note_off_c, 2, 73, 64
4, 72660, Note_on_c, 2, 71, 103
4, 72720, Note_off_c, 2, 71, 64
4, 72720, Note_on_c, 2, 73, 103
4, 72768, Note_off_c, 2, 73, 64
4, 72840, Note_on_c, 2, 75, 103
4, 72888, Note_off_c, 2, 75, 64
4, 72960, Note_on_c, 2, 76, 103
4, 73103, Note_off_c, 2, 76, 64
4, 73200, Note_on_c, 2, 64, 103
4, 73200, Note_on_c, 2, 71, 103
4, 73200, Note_on_c, 2, 76, 103
4, 73343, Note_off_c, 2, 76, 64
4, 73343, Note_off_c, 2, 71, 64
4, 73343, Note_off_c, 2, 64, 64
4, 73440, Note_on_c, 2, 64, 103
4, 73800, Note_off_c, 2, 64, 64
4, 74880, Note_on_c, 2, 69, 36
4, 74940, Note_off_c, 2, 69, 64
4, 74940, Note_on_c, 2, 71, 36
4, 75000, Note_off_c, 2, 71, 64
4, 75000, Note_on_c, 2, 69, 36
4, 75060, Note_off_c, 2, 69, 64
4, 75060, Note_on_c, 2, 71, 36
4, 75120, Note_off_c, 2, 71, 64
4, 75120, Note_on_c, 2, 69, 36
4, 75180, Note_off_c, 2, 69, 64
4, 75180, Note_on_c, 2, 71, 36
4, 75240, Note_off_c, 2, 71, 64
4, 75240, Note_on_c, 2, 69, 36
4, 75300, Note_off_c, 2, 69, 64
4, 75300, Note_on_c, 2, 71, 36
4, 75360, Note_off_c, 2, 71, 64
4, 75360, Note_on_c, 2, 67, 36
4, 75420, Note_off_c, 2, 67, 64
4, 75420, Note_on_c, 2, 69, 36
4, 75480, Note_off_c, 2, 69, 64
4, 75480, Note_on_c, 2, 67, 36
4, 75540, Note_off_c, 2, 67, 64
4, 75540, Note_on_c, 2, 69, 36
4, 75600, Note_off_c, 2, 69, 64
4, 75600, Note_on_c, 2, 67, 36
4, 75660, Note_off_c, 2, 67, 64
4, 75660, Note_on_c, 2, 69, 36
4, 75720, Note_off_c, 2, 69, 64
4, 75720, Note_on_c, 2, 67, 36
4, 75780, Note_off_c, 2, 67, 64
4, 75780, Note_on_c, 2, 69, 36
4, 75840, Note_off_c, 2, 69, 64
4, 75840, Note_on_c, 2, 66, 62
4, 75900, Note_off_c, 2, 66, 64
4, 75900, Note_on_c, 2, 67, 62
4, 75960, Note_off_c, 2, 67, 64
4, 75960, Note_on_c, 2, 66, 36
4, 76020, Note_off_c, 2, 66, 64
4, 76020, Note_on_c, 2, 67, 36
4, 76080, Note_off_c, 2, 67, 64
4, 76080, Note_on_c, 2, 66, 36
4, 76140, Note_off_c, 2, 66, 64
4, 76140, Note_on_c, 2, 67, 36
4, 76200, Note_off_c, 2, 67, 64
4, 76200, Note_on_c, 2, 66, 36
4, 76260, Note_off_c, 2, 66, 64
4, 76260, Note_on_c, 2, 69, 36
4, 76320, Note_off_c, 2, 69, 64
4, 76320, Note_on_c, 2, 68, 36
4, 76380, Note_off_c, 2, 68, 64
4, 76380, Note_on_c, 2, 69, 36
4, 76440, Note_off_c, 2, 69, 64
4, 76440, Note_on_c, 2, 68, 36
4, 76500, Note_off_c, 2, 68, 64
4, 76500, Note_on_c, 2, 69, 36
4, 76560, Note_off_c, 2, 69, 64
4, 76560, Note_on_c, 2, 68, 36
4, 76620, Note_off_c, 2, 68, 64
4, 76620, Note_on_c, 2, 69, 36
4, 76680, Note_off_c, 2, 69, 64
4, 76680, Note_on_c, 2, 68, 36
4, 76740, Note_off_c, 2, 68, 64
4, 76740, Note_on_c, 2, 71, 36
4, 76800, Note_off_c, 2, 71, 64
4, 76800, Note_on_c, 2, 69, 36
4, 76860, Note_off_c, 2, 69, 64
4, 76860, Note_on_c, 2, 71, 36
4, 76920, Note_off_c, 2, 71, 64
4, 76920, Note_on_c, 2, 69, 36
4, 76980, Note_off_c, 2, 69, 64
4, 76980, Note_on_c, 2, 71, 36
4, 77040, Note_off_c, 2, 71, 64
4, 77040, Note_on_c, 2, 69, 36
4, 77100, Note_off_c, 2, 69, 64
4, 77100, Note_on_c, 2, 71, 36
4, 77160, Note_off_c, 2, 71, 64
4, 77160, Note_on_c, 2, 69, 36
4, 77220, Note_off_c, 2, 69, 64
4, 77220, Note_on_c, 2, 71, 36
4, 77280, Note_off_c, 2, 71, 64
4, 77280, Note_on_c, 2, 67, 36
4, 77340, Note_off_c, 2, 67, 64
4, 77340, Note_on_c, 2, 69, 36
4, 77400, Note_off_c, 2, 69, 64
4, 77400, Note_on_c, 2, 67, 36
4, 77460, Note_off_c, 2, 67, 64
4, 77460, Note_on_c, 2, 69, 36
4, 77520, Note_off_c, 2, 69, 64
4, 77520, Note_on_c, 2, 67, 36
4, 77580, Note_off_c, 2, 67, 64
4, 77580, Note_on_c, 2, 69, 36
4, 77640, Note_off_c, 2, 69, 64
4, 77640, Note_on_c, 2, 67, 36
4, 77700, Note_off_c, 2, 67, 64
4, 77700, Note_on_c, 2, 69, 36
4, 77760, Note_off_c, 2, 69, 64
4, 77760, Note_on_c, 2, 66, 62
4, 77820, Note_off_c, 2, 66, 64
4, 77820, Note_on_c, 2, 67, 62
4, 77880, Note_off_c, 2, 67, 64
4, 77880, Note_on_c, 2, 66, 36
4, 77940, Note_off_c, 2, 66, 64
4, 77940, Note_on_c, 2, 67, 36
4, 78000, Note_off_c, 2, 67, 64
4, 78000, Note_on_c, 2, 66, 36
4, 78060, Note_off_c, 2, 66, 64
4, 78060, Note_on_c, 2, 67, 36
4, 78120, Note_off_c, 2, 67, 64
4, 78120, Note_on_c, 2, 66, 36
4, 78180, Note_off_c, 2, 66, 64
4, 78180, Note_on_c, 2, 69, 36
4, 78240, Note_off_c, 2, 69, 64
4, 78240, Note_on_c, 2, 68, 36
4, 78300, Note_off_c, 2, 68, 64
4, 78300, Note_on_c, 2, 69, 36
4, 78360, Note_off_c, 2, 69, 64
4, 78360, Note_on_c, 2, 68, 36
4, 78420, Note_off_c, 2, 68, 64
4, 78420, Note_on_c, 2, 69, 36
4, 78480, Note_off_c, 2, 69, 64
4, 78480, Note_on_c, 2, 68, 36
4, 78540, Note_off_c, 2, 68, 64
4, 78540, Note_on_c, 2, 69, 36
4, 78600, Note_off_c, 2, 69, 64
4, 78600, Note_on_c, 2, 68, 36
4, 78660, Note_off_c, 2, 68, 64
4, 78660, Note_on_c, 2, 71, 36
4, 78720, Note_off_c, 2, 71, 64
4, 78720, Note_on_c, 2, 73, 36
4, 78960, Note_off_c, 2, 73, 64
4, 79200, Note_on_c, 2, 76, 36
4, 79248, Note_off_c, 2, 76, 64
4, 79320, Note_on_c, 2, 76, 36
4, 79368, Note_off_c, 2, 76, 64
4, 79440, Note_on_c, 2, 76, 36
4, 79488, Note_off_c, 2, 76, 64
4, 79560, Note_on_c, 2, 76, 36
4, 79608, Note_off_c, 2, 76, 64
4, 79680, Note_on_c, 2, 76, 36
4, 79728, Note_off_c, 2, 76, 64
4, 79800, Note_on_c, 2, 76, 36
4, 79848, Note_off_c, 2, 76, 64
4, 79920, Note_on_c, 2, 76, 36
4, 79968, Note_off_c, 2, 76, 64
4, 80040, Note_on_c, 2, 76, 36
4, 80088, Note_off_c, 2, 76, 64
4, 80160, Note_on_c, 2, 76, 36
4, 80208, Note_off_c, 2, 76, 64
4, 80280, Note_on_c, 2, 76, 36
4, 80328, Note_off_c, 2, 76, 64
4, 80400, Note_on_c, 2, 76, 36
4, 80448, Note_off_c, 2, 76, 64
4, 80520, Note_on_c, 2, 76, 36
4, 80568, Note_off_c, 2, 76, 64
4, 80640, Note_on_c, 2, 76, 36
4, 80688, Note_off_c, 2, 76, 64
4, 80760, Note_on_c, 2, 76, 36
4, 80808, Note_off_c, 2, 76, 64
4, 80880, Note_on_c, 2, 76, 36
4, 80928, Note_off_c, 2, 76, 64
4, 81000, Note_on_c, 2, 76, 36
4, 81048, Note_off_c, 2, 76, 64
4, 81120, Note_on_c, 2, 76, 36
4, 81168, Note_off_c, 2, 76, 64
4, 81240, Note_on_c, 2, 76, 36
4, 81288, Note_off_c, 2, 76, 64
4, 81360, Note_on_c, 2, 76, 36
4, 81408, Note_off_c, 2, 76, 64
4, 81480, Note_on_c, 2, 76, 36
4, 81528, Note_off_c, 2, 76, 64
4, 81600, Note_on_c, 2, 76, 36
4, 81648, Note_off_c, 2, 76, 64
4, 81720, Note_on_c, 2, 76, 36
4, 81768, Note_off_c, 2, 76, 64
4, 81840, Note_on_c, 2, 76, 36
4, 81888, Note_off_c, 2, 76, 64
4, 81960, Note_on_c, 2, 76, 36
4, 82008, Note_off_c, 2, 76, 64
4, 82080, Note_on_c, 2, 76, 36
4, 82128, Note_off_c, 2, 76, 64
4, 82200, Note_on_c, 2, 76, 36
4, 82248, Note_off_c, 2, 76, 64
4, 82320, Note_on_c, 2, 76, 36
4, 82368, Note_off_c, 2, 76, 64
4, 82440, Note_on_c, 2, 76, 36
4, 82488, Note_off_c, 2, 76, 64
4, 82560, Note_on_c, 2, 76, 36
4, 82608, Note_off_c, 2, 76, 64
4, 82680, Note_on_c, 2, 77, 36
4, 82800, Note_off_c, 2, 77, 64
4, 82800, Note_on_c, 2, 78, 36
4, 82848, Note_off_c, 2, 78, 64
4, 82920, Note_on_c, 2, 73, 36
4, 83040, Note_off_c, 2, 73, 64
4, 83040, Note_on_c, 2, 74, 36
4, 83088, Note_off_c, 2, 74, 64
4, 83160, Note_on_c, 2, 70, 36
4, 83280, Note_off_c, 2, 70, 64
4, 83280, Note_on_c, 2, 71, 36
4, 83328, Note_off_c, 2, 71, 64
4, 83400, Note_on_c, 2, 67, 36
4, 83448, Note_off_c, 2, 67, 64
4, 83520, Note_on_c, 2, 66, 36
4, 83568, Note_off_c, 2, 66, 64
4, 83640, Note_on_c, 2, 66, 36
4, 83688, Note_off_c, 2, 66, 64
4, 83760, Note_on_c, 2, 66, 36
4, 83808, Note_off_c, 2, 66, 64
4, 83880, Note_on_c, 2, 66, 36
4, 83928, Note_off_c, 2, 66, 64
4, 84000, Note_on_c, 2, 68, 36
4, 84048, Note_off_c, 2, 68, 64
4, 84120, Note_on_c, 2, 68, 36
4, 84168, Note_off_c, 2, 68, 64
4, 84240, Note_on_c, 2, 68, 36
4, 84288, Note_off_c, 2, 68, 64
4, 84360, Note_on_c, 2, 68, 36
4, 84408, Note_off_c, 2, 68, 64
4, 84480, Note_on_c, 2, 69, 36
4, 84528, Note_off_c, 2, 69, 64
4, 84600, Note_on_c, 2, 69, 36
4, 84648, Note_off_c, 2, 69, 64
4, 84720, Note_on_c, 2, 69, 36
4, 84768, Note_off_c, 2, 69, 64
4, 84840, Note_on_c, 2, 69, 36
4, 84888, Note_off_c, 2, 69, 64
4, 84960, Note_on_c, 2, 69, 36
4, 85008, Note_off_c, 2, 69, 64
4, 85080, Note_on_c, 2, 69, 36
4, 85128, Note_off_c, 2, 69, 64
4, 85200, Note_on_c, 2, 68, 36
4, 85248, Note_off_c, 2, 68, 64
4, 85320, Note_on_c, 2, 68, 36
4, 85368, Note_off_c, 2, 68, 64
4, 85440, Note_on_c, 2, 69, 36
4, 85680, Note_off_c, 2, 69, 64
4, 86040, Note_on_c, 2, 69, 36
4, 86088, Note_off_c, 2, 69, 64
4, 86160, Note_on_c, 2, 69, 36
4, 86208, Note_off_c, 2, 69, 64
4, 86280, Note_on_c, 2, 69, 36
4, 86328, Note_off_c, 2, 69, 64
4, 86400, Note_on_c, 2, 71, 36
4, 86640, Note_off_c, 2, 71, 64
4, 87000, Note_on_c, 2, 71, 36
4, 87048, Note_off_c, 2, 71, 64
4, 87120, Note_on_c, 2, 71, 36
4, 87168, Note_off_c, 2, 71, 64
4, 87240, Note_on_c, 2, 71, 36
4, 87288, Note_off_c, 2, 71, 64
4, 87360, Note_on_c, 2, 73, 36
4, 87408, Note_off_c, 2, 73, 64
4, 87480, Note_on_c, 2, 73, 36
4, 87528, Note_off_c, 2, 73, 64
4, 87600, Note_on_c, 2, 73, 36
4, 87648, Note_off_c, 2, 73, 64
4, 87720, Note_on_c, 2, 73, 36
4, 87768, Note_off_c, 2, 73, 64
4, 87840, Note_on_c, 2, 71, 36
4, 87888, Note_off_c, 2, 71, 64
4, 87960, Note_on_c, 2, 71, 36
4, 88008, Note_off_c, 2, 71, 64
4, 88080, Note_on_c, 2, 71, 36
4, 88128, Note_off_c, 2, 71, 64
4, 88200, Note_on_c, 2, 71, 36
4, 88248, Note_off_c, 2, 71, 64
4, 88320, Note_on_c, 2, 69, 36
4, 88560, Note_off_c, 2, 69, 64
4, 88920, Note_on_c, 2, 69, 36
4, 88968, Note_off_c, 2, 69, 64
4, 89040, Note_on_c, 2, 69, 36
4, 89088, Note_off_c, 2, 69, 64
4, 89160, Note_on_c, 2, 69, 36
4, 89208, Note_off_c, 2, 69, 64
4, 89280, Note_on_c, 2, 69, 36
4, 89520, Note_off_c, 2, 69, 64
4, 89880, Note_on_c, 2, 74, 36
4, 89928, Note_off_c, 2, 74, 64
4, 90000, Note_on_c, 2, 74, 36
4, 90048, Note_off_c, 2, 74, 64
4, 90120, Note_on_c, 2, 74, 36
4, 90168, Note_off_c, 2, 74, 64
4, 90240, Note_on_c, 2, 73, 62
4, 90288, Note_off_c, 2, 73, 64
4, 90360, Note_on_c, 2, 73, 36
4, 90408, Note_off_c, 2, 73, 64
4, 90480, Note_on_c, 2, 73, 36
4, 90528, Note_off_c, 2, 73, 64
4, 90600, Note_on_c, 2, 73, 36
4, 90648, Note_off_c, 2, 73, 64
4, 90720, Note_on_c, 2, 73, 36
4, 90768, Note_off_c, 2, 73, 64
4, 90840, Note_on_c, 2, 73, 36
4, 90888, Note_off_c, 2, 73, 64
4, 90960, Note_on_c, 2, 73, 36
4, 91008, Note_off_c, 2, 73, 64
4, 91080, Note_on_c, 2, 73, 36
4, 91128, Note_off_c, 2, 73, 64
4, 91200, Note_on_c, 2, 74, 36
4, 91260, Note_off_c, 2, 74, 64
4, 91260, Note_on_c, 2, 74, 36
4, 91320, Note_off_c, 2, 74, 64
4, 91320, Note_on_c, 2, 74, 36
4, 91380, Note_off_c, 2, 74, 64
4, 91380, Note_on_c, 2, 74, 36
4, 91440, Note_off_c, 2, 74, 64
4, 91440, Note_on_c, 2, 71, 39
4, 91500, Note_off_c, 2, 71, 64
4, 91500, Note_on_c, 2, 71, 39
4, 91560, Note_off_c, 2, 71, 64
4, 91560, Note_on_c, 2, 71, 42
4, 91620, Note_off_c, 2, 71, 64
4, 91620, Note_on_c, 2, 71, 42
4, 91680, Note_off_c, 2, 71, 64
4, 91680, Note_on_c, 2, 86, 45
4, 91740, Note_off_c, 2, 86, 64
4, 91740, Note_on_c, 2, 86, 45
4, 91800, Note_off_c, 2, 86, 64
4, 91800, Note_on_c, 2, 86, 49
4, 91860, Note_off_c, 2, 86, 64
4, 91860, Note_on_c, 2, 86, 49
4, 91920, Note_off_c, 2, 86, 64
4, 91920, Note_on_c, 2, 80, 52
4, 91980, Note_off_c, 2, 80, 64
4, 91980, Note_on_c, 2, 80, 52
4, 92040, Note_off_c, 2, 80, 64
4, 92040, Note_on_c, 2, 80, 55
4, 92100, Note_off_c, 2, 80, 64
4, 92100, Note_on_c, 2, 80, 55
4, 92160, Note_off_c, 2, 80, 64
4, 92160, Note_on_c, 2, 81, 103
4, 92208, Note_off_c, 2, 81, 64
4, 92280, Note_on_c, 2, 81, 103
4, 92520, Note_off_c, 2, 81, 64
4, 92520, Note_on_c, 2, 81, 103
4, 92568, Note_off_c, 2, 81, 64
4, 92640, Note_on_c, 2, 79, 103
4, 92688, Note_off_c, 2, 79, 64
4, 92760, Note_on_c, 2, 79, 103
4, 93000, Note_off_c, 2, 79, 64
4, 93000, Note_on_c, 2, 79, 103
4, 93048, Note_off_c, 2, 79, 64
4, 93120, Note_on_c, 2, 78, 103
4, 93180, Note_off_c, 2, 78, 64
4, 93180, Note_on_c, 2, 80, 103
4, 93240, Note_off_c, 2, 80, 64
4, 93240, Note_on_c, 2, 81, 103
4, 93300, Note_off_c, 2, 81, 64
4, 93300, Note_on_c, 2, 80, 103
4, 93360, Note_off_c, 2, 80, 64
4, 93360, Note_on_c, 2, 81, 103
4, 93480, Note_off_c, 2, 81, 64
4, 93600, Note_on_c, 2, 83, 103
4, 93660, Note_off_c, 2, 83, 64
4, 93660, Note_on_c, 2, 85, 103
4, 93720, Note_off_c, 2, 85, 64
4, 93720, Note_on_c, 2, 86, 103
4, 93780, Note_off_c, 2, 86, 64
4, 93780, Note_on_c, 2, 85, 103
4, 93840, Note_off_c, 2, 85, 64
4, 93840, Note_on_c, 2, 86, 103
4, 93960, Note_off_c, 2, 86, 64
4, 93960, Note_on_c, 2, 83, 103
4, 94080, Note_off_c, 2, 83, 64
4, 94080, Note_on_c, 2, 85, 103
4, 94128, Note_off_c, 2, 85, 64
4, 94200, Note_on_c, 2, 88, 103
4, 94260, Note_off_c, 2, 88, 64
4, 94260, Note_on_c, 2, 85, 103
4, 94320, Note_off_c, 2, 85, 64
4, 94320, Note_on_c, 2, 81, 103
4, 94368, Note_off_c, 2, 81, 64
4, 94440, Note_on_c, 2, 85, 103
4, 94500, Note_off_c, 2, 85, 64
4, 94500, Note_on_c, 2, 81, 103
4, 94560, Note_off_c, 2, 81, 64
4, 94560, Note_on_c, 2, 76, 103
4, 94800, Note_off_c, 2, 76, 64
4, 94800, Note_on_c, 2, 64, 103
4, 94800, Note_on_c, 2, 71, 103
4, 94800, Note_on_c, 2, 80, 103
4, 95040, Note_off_c, 2, 80, 64
4, 95040, Note_off_c, 2, 71, 64
4, 95040, Note_off_c, 2, 64, 64
4, 95040, Note_on_c, 2, 64, 103
4, 95040, Note_on_c, 2, 73, 103
4, 95040, Note_on_c, 2, 81, 103
4, 95280, Note_off_c, 2, 81, 64
4, 95280, Note_off_c, 2, 73, 64
4, 95280, Note_off_c, 2, 64, 64
4, 95280, Note_on_c, 2, 69, 36
4, 95340, Note_off_c, 2, 69, 64
4, 95340, Note_on_c, 2, 71, 36
4, 95400, Note_off_c, 2, 71, 64
4, 95400, Note_on_c, 2, 73, 36
4, 95460, Note_off_c, 2, 73, 64
4, 95460, Note_on_c, 2, 74, 36
4, 95520, Note_off_c, 2, 74, 64
4, 95520, Note_on_c, 2, 76, 36
4, 95568, Note_off_c, 2, 76, 64
4, 95640, Note_on_c, 2, 76, 36
4, 95688, Note_off_c, 2, 76, 64
4, 95760, Note_on_c, 2, 76, 36
4, 95808, Note_off_c, 2, 76, 64
4, 95880, Note_on_c, 2, 76, 36
4, 95928, Note_off_c, 2, 76, 64
4, 96000, Note_on_c, 2, 76, 36
4, 96120, Note_off_c, 2, 76, 64
4, 96240, Note_on_c, 2, 81, 100
4, 96288, Note_off_c, 2, 81, 64
4, 96360, Note_on_c, 2, 76, 100
4, 96408, Note_off_c, 2, 76, 64
4, 96480, Note_on_c, 2, 73, 100
4, 96660, Note_off_c, 2, 73, 64
4, 96660, Note_on_c, 2, 76, 100
4, 96720, Note_off_c, 2, 76, 64
4, 96720, Note_on_c, 2, 76, 100
4, 96780, Note_off_c, 2, 76, 64
4, 96780, Note_on_c, 2, 74, 100
4, 96840, Note_off_c, 2, 74, 64
4, 96840, Note_on_c, 2, 73, 100
4, 96900, Note_off_c, 2, 73, 64
4, 96900, Note_on_c, 2, 71, 100
4, 96960, Note_off_c, 2, 71, 64
4, 96960, Note_on_c, 2, 69, 100
4, 97080, Note_off_c, 2, 69, 64
4, 97200, Note_on_c, 2, 69, 36
4, 97260, Note_off_c, 2, 69, 64
4, 97260, Note_on_c, 2, 71, 36
4, 97320, Note_off_c, 2, 71, 64
4, 97320, Note_on_c, 2, 73, 36
4, 97380, Note_off_c, 2, 73, 64
4, 97380, Note_on_c, 2, 74, 36
4, 97440, Note_off_c, 2, 74, 64
4, 97440, Note_on_c, 2, 76, 36
4, 97500, Note_off_c, 2, 76, 64
4, 97500, Note_on_c, 2, 76, 36
4, 97560, Note_off_c, 2, 76, 64
4, 97560, Note_on_c, 2, 76, 36
4, 97620, Note_off_c, 2, 76, 64
4, 97620, Note_on_c, 2, 76, 36
4, 97680, Note_off_c, 2, 76, 64
4, 97680, Note_on_c, 2, 76, 36
4, 97740, Note_off_c, 2, 76, 64
4, 97740, Note_on_c, 2, 76, 36
4, 97800, Note_off_c, 2, 76, 64
4, 97800, Note_on_c, 2, 76, 36
4, 97860, Note_off_c, 2, 76, 64
4, 97860, Note_on_c, 2, 76, 36
4, 97920, Note_off_c, 2, 76, 64
4, 97920, Note_on_c, 2, 76, 36
4, 98040, Note_off_c, 2, 76, 64
4, 98160, Note_on_c, 2, 81, 100
4, 98208, Note_off_c, 2, 81, 64
4, 98280, Note_on_c, 2, 76, 100
4, 98328, Note_off_c, 2, 76, 64
4, 98400, Note_on_c, 2, 73, 100
4, 98460, Note_off_c, 2, 73, 64
4, 98460, Note_on_c, 2, 76, 100
4, 98520, Note_off_c, 2, 76, 64
4, 98520, Note_on_c, 2, 73, 100
4, 98580, Note_off_c, 2, 73, 64
4, 98580, Note_on_c, 2, 76, 100
4, 98640, Note_off_c, 2, 76, 64
4, 98640, Note_on_c, 2, 76, 100
4, 98700, Note_off_c, 2, 76, 64
4, 98700, Note_on_c, 2, 74, 100
4, 98760, Note_off_c, 2, 74, 64
4, 98760, Note_on_c, 2, 73, 100
4, 98820, Note_off_c, 2, 73, 64
4, 98820, Note_on_c, 2, 71, 100
4, 98880, Note_off_c, 2, 71, 64
4, 98880, Note_on_c, 2, 73, 100
4, 98940, Note_off_c, 2, 73, 64
4, 98940, Note_on_c, 2, 69, 100
4, 99000, Note_off_c, 2, 69, 64
4, 99000, Note_on_c, 2, 76, 100
4, 99060, Note_off_c, 2, 76, 64
4, 99060, Note_on_c, 2, 73, 100
4, 99120, Note_off_c, 2, 73, 64
4, 99120, Note_on_c, 2, 81, 100
4, 99180, Note_off_c, 2, 81, 64
4, 99180, Note_on_c, 2, 76, 100
4, 99240, Note_off_c, 2, 76, 64
4, 99240, Note_on_c, 2, 81, 100
4, 99300, Note_off_c, 2, 81, 64
4, 99300, Note_on_c, 2, 76, 100
4, 99360, Note_off_c, 2, 76, 64
4, 99360, Note_on_c, 2, 85, 100
4, 99420, Note_off_c, 2, 85, 64
4, 99420, Note_on_c, 2, 88, 100
4, 99480, Note_off_c, 2, 88, 64
4, 99480, Note_on_c, 2, 85, 100
4, 99540, Note_off_c, 2, 85, 64
4, 99540, Note_on_c, 2, 88, 100
4, 99600, Note_off_c, 2, 88, 64
4, 99600, Note_on_c, 2, 88, 100
4, 99660, Note_off_c, 2, 88, 64
4, 99660, Note_on_c, 2, 86, 100
4, 99720, Note_off_c, 2, 86, 64
4, 99720, Note_on_c, 2, 85, 100
4, 99780, Note_off_c, 2, 85, 64
4, 99780, Note_on_c, 2, 83, 100
4, 99840, Note_off_c, 2, 83, 64
4, 99840, Note_on_c, 2, 81, 100
4, 99888, Note_off_c, 2, 81, 64
4, 99960, Note_on_c, 2, 69, 100
4, 100008, Note_off_c, 2, 69, 64
4, 100080, Note_on_c, 2, 69, 100
4, 100110, Note_off_c, 2, 69, 64
4, 100110, Note_on_c, 2, 71, 100
4, 100140, Note_off_c, 2, 71, 64
4, 100140, Note_on_c, 2, 69, 100
4, 100170, Note_off_c, 2, 69, 64
4, 100170, Note_on_c, 2, 71, 100
4, 100200, Note_off_c, 2, 71, 64
4, 100200, Note_on_c, 2, 69, 100
4, 100230, Note_off_c, 2, 69, 64
4, 100230, Note_on_c, 2, 71, 100
4, 100260, Note_off_c, 2, 71, 64
4, 100260, Note_on_c, 2, 68, 100
4, 100290, Note_off_c, 2, 68, 64
4, 100290, Note_on_c, 2, 69, 100
4, 100320, Note_off_c, 2, 69, 64
4, 100320, Note_on_c, 2, 73, 100
4, 100368, Note_off_c, 2, 73, 64
4, 100440, Note_on_c, 2, 69, 100
4, 100488, Note_off_c, 2, 69, 64
4, 100560, Note_on_c, 2, 64, 100
4, 100608, Note_off_c, 2, 64, 64
4, 100680, Note_on_c, 2, 61, 100
4, 100728, Note_off_c, 2, 61, 64
4, 100800, Note_on_c, 2, 57, 100
4, 101040, Note_off_c, 2, 57, 64
4, 101760, Note_on_c, 2, 61, 36
4, 101808, Note_off_c, 2, 61, 64
4, 101880, Note_on_c, 2, 61, 36
4, 101928, Note_off_c, 2, 61, 64
4, 102000, Note_on_c, 2, 61, 36
4, 102048, Note_off_c, 2, 61, 64
4, 102120, Note_on_c, 2, 61, 36
4, 102168, Note_off_c, 2, 61, 64
4, 102240, Note_on_c, 2, 61, 36
4, 102288, Note_off_c, 2, 61, 64
4, 102360, Note_on_c, 2, 61, 36
4, 102408, Note_off_c, 2, 61, 64
4, 102480, Note_on_c, 2, 61, 36
4, 102528, Note_off_c, 2, 61, 64
4, 102600, Note_on_c, 2, 61, 36
4, 102648, Note_off_c, 2, 61, 64
4, 102720, Note_on_c, 2, 62, 36
4, 102768, Note_off_c, 2, 62, 64
4, 102840, Note_on_c, 2, 62, 36
4, 102888, Note_off_c, 2, 62, 64
4, 102960, Note_on_c, 2, 62, 36
4, 103008, Note_off_c, 2, 62, 64
4, 103080, Note_on_c, 2, 62, 36
4, 103128, Note_off_c, 2, 62, 64
4, 103200, Note_on_c, 2, 62, 36
4, 103248, Note_off_c, 2, 62, 64
4, 103320, Note_on_c, 2, 62, 36
4, 103368, Note_off_c, 2, 62, 64
4, 103440, Note_on_c, 2, 62, 36
4, 103488, Note_off_c, 2, 62, 64
4, 103560, Note_on_c, 2, 62, 36
4, 103608, Note_off_c, 2, 62, 64
4, 103680, Note_on_c, 2, 67, 36
4, 103728, Note_off_c, 2, 67, 64
4, 103800, Note_on_c, 2, 67, 36
4, 103848, Note_off_c, 2, 67, 64
4, 103920, Note_on_c, 2, 67, 36
4, 103968, Note_off_c, 2, 67, 64
4, 104040, Note_on_c, 2, 67, 36
4, 104088, Note_off_c, 2, 67, 64
4, 104160, Note_on_c, 2, 67, 36
4, 104208, Note_off_c, 2, 67, 64
4, 104280, Note_on_c, 2, 67, 36
4, 104328, Note_off_c, 2, 67, 64
4, 104400, Note_on_c, 2, 67, 36
4, 104448, Note_off_c, 2, 67, 64
4, 104520, Note_on_c, 2, 67, 36
4, 104568, Note_off_c, 2, 67, 64
4, 104640, Note_on_c, 2, 67, 36
4, 104688, Note_off_c, 2, 67, 64
4, 104760, Note_on_c, 2, 67, 36
4, 104808, Note_off_c, 2, 67, 64
4, 104880, Note_on_c, 2, 67, 36
4, 104928, Note_off_c, 2, 67, 64
4, 105000, Note_on_c, 2, 67, 36
4, 105048, Note_off_c, 2, 67, 64
4, 105120, Note_on_c, 2, 67, 36
4, 105168, Note_off_c, 2, 67, 64
4, 105240, Note_on_c, 2, 67, 36
4, 105288, Note_off_c, 2, 67, 64
4, 105360, Note_on_c, 2, 73, 36
4, 105408, Note_off_c, 2, 73, 64
4, 105480, Note_on_c, 2, 73, 36
4, 105528, Note_off_c, 2, 73, 64
4, 105600, Note_on_c, 2, 74, 36
4, 105720, Note_off_c, 2, 74, 64
4, 105720, Note_on_c, 2, 69, 36
4, 105768, Note_off_c, 2, 69, 64
4, 105840, Note_on_c, 2, 69, 36
4, 105888, Note_off_c, 2, 69, 64
4, 105960, Note_on_c, 2, 69, 36
4, 106008, Note_off_c, 2, 69, 64
4, 106080, Note_on_c, 2, 69, 36
4, 106128, Note_off_c, 2, 69, 64
4, 106200, Note_on_c, 2, 69, 36
4, 106248, Note_off_c, 2, 69, 64
4, 106320, Note_on_c, 2, 69, 36
4, 106368, Note_off_c, 2, 69, 64
4, 106440, Note_on_c, 2, 69, 36
4, 106488, Note_off_c, 2, 69, 64
4, 106560, Note_on_c, 2, 62, 36
4, 106560, Note_on_c, 2, 66, 36
4, 106583, Note_off_c, 2, 62, 64
4, 106608, Note_off_c, 2, 66, 64
4, 106680, Note_on_c, 2, 62, 36
4, 106680, Note_on_c, 2, 66, 36
4, 106703, Note_off_c, 2, 62, 64
4, 106728, Note_off_c, 2, 66, 64
4, 106800, Note_on_c, 2, 62, 36
4, 106800, Note_on_c, 2, 66, 36
4, 106823, Note_off_c, 2, 62, 64
4, 106848, Note_off_c, 2, 66, 64
4, 106920, Note_on_c, 2, 62, 36
4, 106920, Note_on_c, 2, 66, 36
4, 106943, Note_off_c, 2, 62, 64
4, 106968, Note_off_c, 2, 66, 64
4, 107040, Note_on_c, 2, 62, 36
4, 107040, Note_on_c, 2, 66, 36
4, 107063, Note_off_c, 2, 62, 64
4, 107088, Note_off_c, 2, 66, 64
4, 107160, Note_on_c, 2, 62, 36
4, 107160, Note_on_c, 2, 66, 36
4, 107183, Note_off_c, 2, 62, 64
4, 107208, Note_off_c, 2, 66, 64
4, 107280, Note_on_c, 2, 62, 36
4, 107280, Note_on_c, 2, 66, 36
4, 107303, Note_off_c, 2, 62, 64
4, 107328, Note_off_c, 2, 66, 64
4, 107400, Note_on_c, 2, 62, 36
4, 107400, Note_on_c, 2, 66, 36
4, 107423, Note_off_c, 2, 62, 64
4, 107448, Note_off_c, 2, 66, 64
4, 107520, Note_on_c, 2, 65, 36
4, 107568, Note_off_c, 2, 65, 64
4, 107640, Note_on_c, 2, 65, 36
4, 107688, Note_off_c, 2, 65, 64
4, 107760, Note_on_c, 2, 62, 36
4, 107808, Note_off_c, 2, 62, 64
4, 107880, Note_on_c, 2, 62, 36
4, 107928, Note_off_c, 2, 62, 64
4, 108000, Note_on_c, 2, 64, 36
4, 108048, Note_off_c, 2, 64, 64
4, 108120, Note_on_c, 2, 64, 36
4, 108168, Note_off_c, 2, 64, 64
4, 108240, Note_on_c, 2, 65, 36
4, 108288, Note_off_c, 2, 65, 64
4, 108360, Note_on_c, 2, 65, 36
4, 108408, Note_off_c, 2, 65, 64
4, 108480, Note_on_c, 2, 64, 36
4, 108720, Note_off_c, 2, 64, 64
4, 109320, Note_on_c, 2, 74, 23
4, 109440, Note_off_c, 2, 74, 64
4, 109440, Note_on_c, 2, 73, 23
4, 109680, Note_off_c, 2, 73, 64
4, 110280, Note_on_c, 2, 74, 36
4, 110400, Note_off_c, 2, 74, 64
4, 110400, Note_on_c, 2, 73, 36
4, 110448, Note_off_c, 2, 73, 64
4, 110520, Note_on_c, 2, 73, 36
4, 110568, Note_off_c, 2, 73, 64
4, 110640, Note_on_c, 2, 73, 36
4, 110688, Note_off_c, 2, 73, 64
4, 110760, Note_on_c, 2, 73, 36
4, 110808, Note_off_c, 2, 73, 64
4, 110880, Note_on_c, 2, 74, 36
4, 110928, Note_off_c, 2, 74, 64
4, 111000, Note_on_c, 2, 74, 36
4, 111048, Note_off_c, 2, 74, 64
4, 111120, Note_on_c, 2, 74, 36
4, 111168, Note_off_c, 2, 74, 64
4, 111240, Note_on_c, 2, 74, 36
4, 111288, Note_off_c, 2, 74, 64
4, 111360, Note_on_c, 2, 76, 36
4, 111408, Note_off_c, 2, 76, 64
4, 111480, Note_on_c, 2, 76, 36
4, 111528, Note_off_c, 2, 76, 64
4, 111600, Note_on_c, 2, 76, 36
4, 111648, Note_off_c, 2, 76, 64
4, 111720, Note_on_c, 2, 76, 36
4, 111768, Note_off_c, 2, 76, 64
4, 111840, Note_on_c, 2, 78, 36
4, 111888, Note_off_c, 2, 78, 64
4, 111960, Note_on_c, 2, 78, 36
4, 112008, Note_off_c, 2, 78, 64
4, 112080, Note_on_c, 2, 78, 36
4, 112128, Note_off_c, 2, 78, 64
4, 112200, Note_on_c, 2, 78, 36
4, 112248, Note_off_c, 2, 78, 64
4, 112320, Note_on_c, 2, 79, 36
4, 112440, Note_off_c, 2, 79, 64
4, 112560, Note_on_c, 2, 64, 42
4, 112608, Note_off_c, 2, 64, 64
4, 112680, Note_on_c, 2, 66, 45
4, 112728, Note_off_c, 2, 66, 64
4, 112800, Note_on_c, 2, 67, 49
4, 112848, Note_off_c, 2, 67, 64
4, 113040, Note_on_c, 2, 64, 55
4, 113088, Note_off_c, 2, 64, 64
4, 113160, Note_on_c, 2, 66, 58
4, 113208, Note_off_c, 2, 66, 64
4, 113280, Note_on_c, 2, 67, 58
4, 113328, Note_off_c, 2, 67, 64
4, 113520, Note_on_c, 2, 76, 58
4, 113568, Note_off_c, 2, 76, 64
4, 113760, Note_on_c, 2, 79, 61
4, 113808, Note_off_c, 2, 79, 64
4, 114000, Note_on_c, 2, 73, 67
4, 114048, Note_off_c, 2, 73, 64
4, 114240, Note_on_c, 2, 57, 103
4, 114240, Note_on_c, 2, 66, 103
4, 114240, Note_on_c, 2, 74, 103
4, 114480, Note_off_c, 2, 74, 64
4, 114480, Note_off_c, 2, 66, 64
4, 114480, Note_off_c, 2, 57, 64
4, 114480, Note_on_c, 2, 74, 109
4, 114960, Note_off_c, 2, 74, 64
4, 114960, Note_on_c, 2, 73, 109
4, 115020, Note_off_c, 2, 73, 64
4, 115020, Note_on_c, 2, 74, 109
4, 115080, Note_off_c, 2, 74, 64
4, 115080, Note_on_c, 2, 73, 109
4, 115140, Note_off_c, 2, 73, 64
4, 115140, Note_on_c, 2, 74, 109
4, 115200, Note_off_c, 2, 74, 64
4, 115200, Note_on_c, 2, 79, 109
4, 115440, Note_off_c, 2, 79, 64
4, 115440, Note_on_c, 2, 79, 109
4, 115920, Note_off_c, 2, 79, 64
4, 115920, Note_on_c, 2, 79, 109
4, 116160, Note_off_c, 2, 79, 64
4, 116160, Note_on_c, 2, 77, 36
4, 116280, Note_off_c, 2, 77, 64
4, 116280, Note_on_c, 2, 78, 36
4, 116328, Note_off_c, 2, 78, 64
4, 116400, Note_on_c, 2, 78, 36
4, 116880, Note_off_c, 2, 78, 64
4, 116880, Note_on_c, 2, 79, 36
4, 116940, Note_off_c, 2, 79, 64
4, 116940, Note_on_c, 2, 78, 36
4, 117000, Note_off_c, 2, 78, 64
4, 117000, Note_on_c, 2, 79, 36
4, 117060, Note_off_c, 2, 79, 64
4, 117060, Note_on_c, 2, 78, 36
4, 117120, Note_off_c, 2, 78, 64
4, 117120, Note_on_c, 2, 83, 36
4, 117360, Note_off_c, 2, 83, 64
4, 117360, Note_on_c, 2, 83, 36
4, 117840, Note_off_c, 2, 83, 64
4, 117840, Note_on_c, 2, 83, 36
4, 118080, Note_off_c, 2, 83, 64
4, 118080, Note_on_c, 2, 80, 36
4, 118200, Note_off_c, 2, 80, 64
4, 118200, Note_on_c, 2, 81, 36
4, 118248, Note_off_c, 2, 81, 64
4, 118320, Note_on_c, 2, 81, 36
4, 118368, Note_off_c, 2, 81, 64
4, 118440, Note_on_c, 2, 81, 36
4, 118488, Note_off_c, 2, 81, 64
4, 118680, Note_on_c, 2, 81, 36
4, 118728, Note_off_c, 2, 81, 64
4, 118800, Note_on_c, 2, 81, 36
4, 118848, Note_off_c, 2, 81, 64
4, 118920, Note_on_c, 2, 81, 36
4, 118968, Note_off_c, 2, 81, 64
4, 119160, Note_on_c, 2, 79, 36
4, 119208, Note_off_c, 2, 79, 64
4, 119280, Note_on_c, 2, 79, 36
4, 119328, Note_off_c, 2, 79, 64
4, 119400, Note_on_c, 2, 79, 36
4, 119448, Note_off_c, 2, 79, 64
4, 119640, Note_on_c, 2, 78, 36
4, 119688, Note_off_c, 2, 78, 64
4, 119760, Note_on_c, 2, 78, 36
4, 119808, Note_off_c, 2, 78, 64
4, 119880, Note_on_c, 2, 78, 36
4, 119928, Note_off_c, 2, 78, 64
4, 120120, Note_on_c, 2, 71, 36
4, 120168, Note_off_c, 2, 71, 64
4, 120240, Note_on_c, 2, 71, 36
4, 120288, Note_off_c, 2, 71, 64
4, 120360, Note_on_c, 2, 71, 36
4, 120408, Note_off_c, 2, 71, 64
4, 120600, Note_on_c, 2, 72, 36
4, 120648, Note_off_c, 2, 72, 64
4, 120720, Note_on_c, 2, 72, 36
4, 120768, Note_off_c, 2, 72, 64
4, 120840, Note_on_c, 2, 72, 36
4, 120888, Note_off_c, 2, 72, 64
4, 121080, Note_on_c, 2, 71, 36
4, 121128, Note_off_c, 2, 71, 64
4, 121200, Note_on_c, 2, 71, 36
4, 121248, Note_off_c, 2, 71, 64
4, 121320, Note_on_c, 2, 71, 36
4, 121368, Note_off_c, 2, 71, 64
4, 121440, Note_on_c, 2, 69, 36
4, 121488, Note_off_c, 2, 69, 64
4, 121560, Note_on_c, 2, 69, 36
4, 121608, Note_off_c, 2, 69, 64
4, 121680, Note_on_c, 2, 69, 36
4, 121728, Note_off_c, 2, 69, 64
4, 121800, Note_on_c, 2, 69, 36
4, 121848, Note_off_c, 2, 69, 64
4, 122040, Note_on_c, 2, 67, 36
4, 122088, Note_off_c, 2, 67, 64
4, 122160, Note_on_c, 2, 71, 36
4, 122208, Note_off_c, 2, 71, 64
4, 122280, Note_on_c, 2, 76, 36
4, 122328, Note_off_c, 2, 76, 64
4, 122400, Note_on_c, 2, 79, 36
4, 122520, Note_off_c, 2, 79, 64
4, 122520, Note_on_c, 2, 83, 36
4, 122568, Note_off_c, 2, 83, 64
4, 122640, Note_on_c, 2, 83, 36
4, 122688, Note_off_c, 2, 83, 64
4, 122760, Note_on_c, 2, 83, 36
4, 122808, Note_off_c, 2, 83, 64
4, 123000, Note_on_c, 2, 81, 36
4, 123048, Note_off_c, 2, 81, 64
4, 123120, Note_on_c, 2, 81, 36
4, 123168, Note_off_c, 2, 81, 64
4, 123240, Note_on_c, 2, 81, 36
4, 123288, Note_off_c, 2, 81, 64
4, 123480, Note_on_c, 2, 79, 36
4, 123528, Note_off_c, 2, 79, 64
4, 123600, Note_on_c, 2, 79, 36
4, 123648, Note_off_c, 2, 79, 64
4, 123720, Note_on_c, 2, 79, 36
4, 123768, Note_off_c, 2, 79, 64
4, 123960, Note_on_c, 2, 78, 36
4, 124008, Note_off_c, 2, 78, 64
4, 124080, Note_on_c, 2, 78, 36
4, 124128, Note_off_c, 2, 78, 64
4, 124200, Note_on_c, 2, 78, 36
4, 124248, Note_off_c, 2, 78, 64
4, 124440, Note_on_c, 2, 76, 36
4, 124488, Note_off_c, 2, 76, 64
4, 124560, Note_on_c, 2, 76, 36
4, 124608, Note_off_c, 2, 76, 64
4, 124680, Note_on_c, 2, 76, 36
4, 124728, Note_off_c, 2, 76, 64
4, 124800, Note_on_c, 2, 74, 36
4, 124920, Note_off_c, 2, 74, 64
4, 124920, Note_on_c, 2, 69, 36
4, 124968, Note_off_c, 2, 69, 64
4, 125040, Note_on_c, 2, 69, 36
4, 125088, Note_off_c, 2, 69, 64
4, 125160, Note_on_c, 2, 69, 36
4, 125208, Note_off_c, 2, 69, 64
4, 125280, Note_on_c, 2, 69, 36
4, 125400, Note_off_c, 2, 69, 64
4, 125400, Note_on_c, 2, 66, 36
4, 125448, Note_off_c, 2, 66, 64
4, 125520, Note_on_c, 2, 67, 36
4, 125640, Note_off_c, 2, 67, 64
4, 125640, Note_on_c, 2, 64, 36
4, 125688, Note_off_c, 2, 64, 64
4, 125760, Note_on_c, 2, 62, 36
4, 126000, Note_off_c, 2, 62, 64
4, 126360, Note_on_c, 2, 66, 36
4, 126480, Note_off_c, 2, 66, 64
4, 126480, Note_on_c, 2, 67, 36
4, 126600, Note_off_c, 2, 67, 64
4, 126600, Note_on_c, 2, 69, 36
4, 126720, Note_off_c, 2, 69, 64
4, 126720, Note_on_c, 2, 71, 36
4, 126768, Note_off_c, 2, 71, 64
4, 126840, Note_on_c, 2, 71, 36
4, 126888, Note_off_c, 2, 71, 64
4, 126960, Note_on_c, 2, 71, 36
4, 127008, Note_off_c, 2, 71, 64
4, 127080, Note_on_c, 2, 71, 36
4, 127128, Note_off_c, 2, 71, 64
4, 127200, Note_on_c, 2, 72, 62
4, 127248, Note_off_c, 2, 72, 64
4, 127320, Note_on_c, 2, 72, 36
4, 127368, Note_off_c, 2, 72, 64
4, 127440, Note_on_c, 2, 72, 36
4, 127488, Note_off_c, 2, 72, 64
4, 127560, Note_on_c, 2, 72, 36
4, 127608, Note_off_c, 2, 72, 64
4, 127680, Note_on_c, 2, 71, 36
4, 127728, Note_off_c, 2, 71, 64
4, 127800, Note_on_c, 2, 71, 36
4, 127848, Note_off_c, 2, 71, 64
4, 127920, Note_on_c, 2, 71, 36
4, 127968, Note_off_c, 2, 71, 64
4, 128040, Note_on_c, 2, 71, 36
4, 128088, Note_off_c, 2, 71, 64
4, 128160, Note_on_c, 2, 72, 62
4, 128208, Note_off_c, 2, 72, 64
4, 128280, Note_on_c, 2, 72, 36
4, 128328, Note_off_c, 2, 72, 64
4, 128400, Note_on_c, 2, 72, 36
4, 128448, Note_off_c, 2, 72, 64
4, 128520, Note_on_c, 2, 72, 36
4, 128568, Note_off_c, 2, 72, 64
4, 128640, Note_on_c, 2, 71, 36
4, 128688, Note_off_c, 2, 71, 64
4, 128760, Note_on_c, 2, 71, 36
4, 128808, Note_off_c, 2, 71, 64
4, 128880, Note_on_c, 2, 71, 36
4, 128928, Note_off_c, 2, 71, 64
4, 129000, Note_on_c, 2, 71, 36
4, 129048, Note_off_c, 2, 71, 64
4, 129120, Note_on_c, 2, 71, 36
4, 129168, Note_off_c, 2, 71, 64
4, 129240, Note_on_c, 2, 71, 36
4, 129288, Note_off_c, 2, 71, 64
4, 129360, Note_on_c, 2, 71, 36
4, 129408, Note_off_c, 2, 71, 64
4, 129480, Note_on_c, 2, 71, 36
4, 129528, Note_off_c, 2, 71, 64
4, 129600, Note_on_c, 2, 64, 36
4, 129840, Note_off_c, 2, 64, 64
4, 131640, Note_on_c, 2, 67, 36
4, 131688, Note_off_c, 2, 67, 64
4, 131760, Note_on_c, 2, 67, 36
4, 131808, Note_off_c, 2, 67, 64
4, 131880, Note_on_c, 2, 67, 36
4, 131928, Note_off_c, 2, 67, 64
4, 132000, Note_on_c, 2, 67, 36
4, 132048, Note_off_c, 2, 67, 64
4, 132120, Note_on_c, 2, 67, 36
4, 132168, Note_off_c, 2, 67, 64
4, 132240, Note_on_c, 2, 67, 36
4, 132288, Note_off_c, 2, 67, 64
4, 132360, Note_on_c, 2, 67, 36
4, 132408, Note_off_c, 2, 67, 64
4, 132480, Note_on_c, 2, 66, 36
4, 132720, Note_off_c, 2, 66, 64
4, 133560, Note_on_c, 2, 66, 36
4, 133608, Note_off_c, 2, 66, 64
4, 133680, Note_on_c, 2, 66, 36
4, 133728, Note_off_c, 2, 66, 64
4, 133800, Note_on_c, 2, 66, 36
4, 133848, Note_off_c, 2, 66, 64
4, 133920, Note_on_c, 2, 66, 36
4, 133968, Note_off_c, 2, 66, 64
4, 134040, Note_on_c, 2, 66, 36
4, 134088, Note_off_c, 2, 66, 64
4, 134160, Note_on_c, 2, 66, 36
4, 134208, Note_off_c, 2, 66, 64
4, 134280, Note_on_c, 2, 66, 36
4, 134328, Note_off_c, 2, 66, 64
4, 134400, Note_on_c, 2, 67, 36
4, 134640, Note_off_c, 2, 67, 64
4, 135480, Note_on_c, 2, 67, 36
4, 135528, Note_off_c, 2, 67, 64
4, 135600, Note_on_c, 2, 67, 36
4, 135648, Note_off_c, 2, 67, 64
4, 135720, Note_on_c, 2, 67, 36
4, 135768, Note_off_c, 2, 67, 64
4, 135840, Note_on_c, 2, 67, 36
4, 135888, Note_off_c, 2, 67, 64
4, 135960, Note_on_c, 2, 67, 36
4, 136008, Note_off_c, 2, 67, 64
4, 136080, Note_on_c, 2, 67, 36
4, 136128, Note_off_c, 2, 67, 64
4, 136200, Note_on_c, 2, 67, 36
4, 136248, Note_off_c, 2, 67, 64
4, 136320, Note_on_c, 2, 66, 36
4, 136440, Note_off_c, 2, 66, 64
4, 136560, Note_on_c, 2, 78, 36
4, 136620, Note_off_c, 2, 78, 64
4, 136620, Note_on_c, 2, 81, 36
4, 136680, Note_off_c, 2, 81, 64
4, 136680, Note_on_c, 2, 79, 36
4, 136740, Note_off_c, 2, 79, 64
4, 136740, Note_on_c, 2, 83, 36
4, 136800, Note_off_c, 2, 83, 64
4, 136800, Note_on_c, 2, 81, 36
4, 136920, Note_off_c, 2, 81, 64
4, 137280, Note_on_c, 2, 79, 36
4, 137400, Note_off_c, 2, 79, 64
4, 137520, Note_on_c, 2, 79, 36
4, 137580, Note_off_c, 2, 79, 64
4, 137580, Note_on_c, 2, 83, 36
4, 137640, Note_off_c, 2, 83, 64
4, 137640, Note_on_c, 2, 81, 36
4, 137700, Note_off_c, 2, 81, 64
4, 137700, Note_on_c, 2, 84, 36
4, 137760, Note_off_c, 2, 84, 64
4, 137760, Note_on_c, 2, 83, 36
4, 137880, Note_off_c, 2, 83, 64
4, 138240, Note_on_c, 2, 81, 36
4, 138360, Note_off_c, 2, 81, 64
4, 138480, Note_on_c, 2, 69, 36
4, 138540, Note_off_c, 2, 69, 64
4, 138540, Note_on_c, 2, 72, 36
4, 138600, Note_off_c, 2, 72, 64
4, 138600, Note_on_c, 2, 71, 36
4, 138660, Note_off_c, 2, 71, 64
4, 138660, Note_on_c, 2, 74, 36
4, 138720, Note_off_c, 2, 74, 64
4, 138720, Note_on_c, 2, 72, 36
4, 138840, Note_off_c, 2, 72, 64
4, 139260, Note_on_c, 2, 71, 36
4, 139320, Note_off_c, 2, 71, 64
4, 139320, Note_on_c, 2, 69, 36
4, 139380, Note_off_c, 2, 69, 64
4, 139380, Note_on_c, 2, 71, 36
4, 139440, Note_off_c, 2, 71, 64
4, 139440, Note_on_c, 2, 72, 36
4, 139500, Note_off_c, 2, 72, 64
4, 139500, Note_on_c, 2, 71, 36
4, 139560, Note_off_c, 2, 71, 64
4, 139560, Note_on_c, 2, 69, 36
4, 139620, Note_off_c, 2, 69, 64
4, 139620, Note_on_c, 2, 71, 36
4, 139680, Note_off_c, 2, 71, 64
4, 139740, Note_on_c, 2, 69, 36
4, 139800, Note_off_c, 2, 69, 64
4, 139800, Note_on_c, 2, 67, 36
4, 139860, Note_off_c, 2, 67, 64
4, 139860, Note_on_c, 2, 69, 36
4, 139920, Note_off_c, 2, 69, 64
4, 139920, Note_on_c, 2, 71, 36
4, 139980, Note_off_c, 2, 71, 64
4, 139980, Note_on_c, 2, 69, 36
4, 140040, Note_off_c, 2, 69, 64
4, 140040, Note_on_c, 2, 67, 36
4, 140100, Note_off_c, 2, 67, 64
4, 140160, Note_on_c, 2, 68, 62
4, 140208, Note_off_c, 2, 68, 64
4, 140280, Note_on_c, 2, 68, 36
4, 140328, Note_off_c, 2, 68, 64
4, 140400, Note_on_c, 2, 68, 36
4, 140448, Note_off_c, 2, 68, 64
4, 140520, Note_on_c, 2, 68, 36
4, 140568, Note_off_c, 2, 68, 64
4, 140640, Note_on_c, 2, 77, 36
4, 140688, Note_off_c, 2, 77, 64
4, 140760, Note_on_c, 2, 77, 36
4, 140808, Note_off_c, 2, 77, 64
4, 140880, Note_on_c, 2, 77, 36
4, 140928, Note_off_c, 2, 77, 64
4, 141000, Note_on_c, 2, 77, 36
4, 141048, Note_off_c, 2, 77, 64
4, 141120, Note_on_c, 2, 77, 36
4, 141240, Note_off_c, 2, 77, 64
4, 141240, Note_on_c, 2, 76, 36
4, 141288, Note_off_c, 2, 76, 64
4, 141360, Note_on_c, 2, 76, 36
4, 141408, Note_off_c, 2, 76, 64
4, 141480, Note_on_c, 2, 76, 36
4, 141528, Note_off_c, 2, 76, 64
4, 141720, Note_on_c, 2, 76, 36
4, 141840, Note_off_c, 2, 76, 64
4, 141840, Note_on_c, 2, 83, 36
4, 141888, Note_off_c, 2, 83, 64
4, 141960, Note_on_c, 2, 83, 36
4, 142008, Note_off_c, 2, 83, 64
4, 142200, Note_on_c, 2, 81, 36
4, 142248, Note_off_c, 2, 81, 64
4, 142440, Note_on_c, 2, 74, 36
4, 142488, Note_off_c, 2, 74, 64
4, 142680, Note_on_c, 2, 74, 39
4, 142728, Note_off_c, 2, 74, 64
4, 142920, Note_on_c, 2, 79, 45
4, 142968, Note_off_c, 2, 79, 64
4, 143040, Note_on_c, 2, 78, 49
4, 143088, Note_off_c, 2, 78, 64
4, 143160, Note_on_c, 2, 78, 52
4, 143208, Note_off_c, 2, 78, 64
4, 143280, Note_on_c, 2, 78, 58
4, 143328, Note_off_c, 2, 78, 64
4, 143400, Note_on_c, 2, 78, 64
4, 143448, Note_off_c, 2, 78, 64
4, 143520, Note_on_c, 2, 79, 67
4, 143640, Note_off_c, 2, 79, 64
4, 143640, Note_on_c, 2, 76, 71
4, 143688, Note_off_c, 2, 76, 64
4, 143760, Note_on_c, 2, 76, 74
4, 143880, Note_off_c, 2, 76, 64
4, 143880, Note_on_c, 2, 73, 77
4, 143928, Note_off_c, 2, 73, 64
4, 144000, Note_on_c, 2, 74, 103
4, 144090, Note_on_c, 2, 76, 103
4, 144120, Note_off_c, 2, 76, 64
4, 144120, Note_off_c, 2, 74, 64
4, 144120, Note_on_c, 2, 74, 103
4, 144180, Note_off_c, 2, 74, 64
4, 144180, Note_on_c, 2, 73, 103
4, 144240, Note_off_c, 2, 73, 64
4, 144240, Note_on_c, 2, 74, 103
4, 144288, Note_off_c, 2, 74, 64
4, 144360, Note_on_c, 2, 76, 103
4, 144408, Note_off_c, 2, 76, 64
4, 144480, Note_on_c, 2, 78, 103
4, 144570, Note_on_c, 2, 79, 103
4, 144600, Note_off_c, 2, 79, 64
4, 144600, Note_off_c, 2, 78, 64
4, 144600, Note_on_c, 2, 78, 103
4, 144660, Note_off_c, 2, 78, 64
4, 144660, Note_on_c, 2, 76, 103
4, 144720, Note_off_c, 2, 76, 64
4, 144720, Note_on_c, 2, 78, 103
4, 144768, Note_off_c, 2, 78, 64
4, 144840, Note_on_c, 2, 80, 103
4, 144888, Note_off_c, 2, 80, 64
4, 144960, Note_on_c, 2, 81, 103
4, 145140, Note_off_c, 2, 81, 64
4, 145200, Note_on_c, 2, 76, 103
4, 145200, Note_on_c, 2, 85, 103
4, 145380, Note_off_c, 2, 85, 64
4, 145380, Note_off_c, 2, 76, 64
4, 145440, Note_on_c, 2, 64, 103
4, 145440, Note_on_c, 2, 73, 103
4, 145440, Note_on_c, 2, 81, 103
4, 145680, Note_off_c, 2, 81, 64
4, 145680, Note_off_c, 2, 73, 64
4, 145680, Note_off_c, 2, 64, 64
4, 146880, Note_on_c, 2, 62, 36
4, 146940, Note_off_c, 2, 62, 64
4, 146940, Note_on_c, 2, 64, 36
4, 147000, Note_off_c, 2, 64, 64
4, 147000, Note_on_c, 2, 62, 36
4, 147060, Note_off_c, 2, 62, 64
4, 147060, Note_on_c, 2, 64, 36
4, 147120, Note_off_c, 2, 64, 64
4, 147120, Note_on_c, 2, 62, 36
4, 147180, Note_off_c, 2, 62, 64
4, 147180, Note_on_c, 2, 64, 36
4, 147240, Note_off_c, 2, 64, 64
4, 147240, Note_on_c, 2, 62, 36
4, 147300, Note_off_c, 2, 62, 64
4, 147300, Note_on_c, 2, 64, 36
4, 147360, Note_off_c, 2, 64, 64
4, 147360, Note_on_c, 2, 60, 36
4, 147420, Note_off_c, 2, 60, 64
4, 147420, Note_on_c, 2, 62, 36
4, 147480, Note_off_c, 2, 62, 64
4, 147480, Note_on_c, 2, 60, 36
4, 147540, Note_off_c, 2, 60, 64
4, 147540, Note_on_c, 2, 62, 36
4, 147600, Note_off_c, 2, 62, 64
4, 147600, Note_on_c, 2, 60, 36
4, 147660, Note_off_c, 2, 60, 64
4, 147660, Note_on_c, 2, 62, 36
4, 147720, Note_off_c, 2, 62, 64
4, 147720, Note_on_c, 2, 60, 36
4, 147780, Note_off_c, 2, 60, 64
4, 147780, Note_on_c, 2, 62, 36
4, 147840, Note_off_c, 2, 62, 64
4, 147840, Note_on_c, 2, 59, 62
4, 147900, Note_off_c, 2, 59, 64
4, 147900, Note_on_c, 2, 60, 62
4, 147960, Note_off_c, 2, 60, 64
4, 147960, Note_on_c, 2, 59, 36
4, 148020, Note_off_c, 2, 59, 64
4, 148020, Note_on_c, 2, 60, 36
4, 148080, Note_off_c, 2, 60, 64
4, 148080, Note_on_c, 2, 59, 36
4, 148140, Note_off_c, 2, 59, 64
4, 148140, Note_on_c, 2, 60, 36
4, 148200, Note_off_c, 2, 60, 64
4, 148200, Note_on_c, 2, 59, 36
4, 148260, Note_off_c, 2, 59, 64
4, 148260, Note_on_c, 2, 62, 36
4, 148320, Note_off_c, 2, 62, 64
4, 148320, Note_on_c, 2, 61, 36
4, 148380, Note_off_c, 2, 61, 64
4, 148380, Note_on_c, 2, 62, 36
4, 148440, Note_off_c, 2, 62, 64
4, 148440, Note_on_c, 2, 61, 36
4, 148500, Note_off_c, 2, 61, 64
4, 148500, Note_on_c, 2, 62, 36
4, 148560, Note_off_c, 2, 62, 64
4, 148560, Note_on_c, 2, 61, 36
4, 148620, Note_off_c, 2, 61, 64
4, 148620, Note_on_c, 2, 62, 36
4, 148680, Note_off_c, 2, 62, 64
4, 148680, Note_on_c, 2, 64, 36
4, 148740, Note_off_c, 2, 64, 64
4, 148800, Note_on_c, 2, 62, 36
4, 148860, Note_off_c, 2, 62, 64
4, 148860, Note_on_c, 2, 64, 36
4, 148920, Note_off_c, 2, 64, 64
4, 148920, Note_on_c, 2, 62, 36
4, 148980, Note_off_c, 2, 62, 64
4, 148980, Note_on_c, 2, 64, 36
4, 149040, Note_off_c, 2, 64, 64
4, 149040, Note_on_c, 2, 62, 36
4, 149100, Note_off_c, 2, 62, 64
4, 149100, Note_on_c, 2, 64, 36
4, 149160, Note_off_c, 2, 64, 64
4, 149160, Note_on_c, 2, 62, 36
4, 149220, Note_off_c, 2, 62, 64
4, 149220, Note_on_c, 2, 64, 36
4, 149280, Note_off_c, 2, 64, 64
4, 149280, Note_on_c, 2, 60, 36
4, 149340, Note_off_c, 2, 60, 64
4, 149340, Note_on_c, 2, 62, 36
4, 149400, Note_off_c, 2, 62, 64
4, 149400, Note_on_c, 2, 60, 36
4, 149460, Note_off_c, 2, 60, 64
4, 149460, Note_on_c, 2, 62, 36
4, 149520, Note_off_c, 2, 62, 64
4, 149520, Note_on_c, 2, 60, 36
4, 149580, Note_off_c, 2, 60, 64
4, 149580, Note_on_c, 2, 62, 36
4, 149640, Note_off_c, 2, 62, 64
4, 149640, Note_on_c, 2, 60, 36
4, 149700, Note_off_c, 2, 60, 64
4, 149700, Note_on_c, 2, 62, 36
4, 149760, Note_off_c, 2, 62, 64
4, 149760, Note_on_c, 2, 59, 62
4, 149820, Note_off_c, 2, 59, 64
4, 149820, Note_on_c, 2, 60, 62
4, 149880, Note_off_c, 2, 60, 64
4, 149880, Note_on_c, 2, 59, 36
4, 149940, Note_off_c, 2, 59, 64
4, 149940, Note_on_c, 2, 60, 36
4, 150000, Note_off_c, 2, 60, 64
4, 150000, Note_on_c, 2, 59, 36
4, 150060, Note_off_c, 2, 59, 64
4, 150060, Note_on_c, 2, 60, 36
4, 150120, Note_off_c, 2, 60, 64
4, 150120, Note_on_c, 2, 59, 36
4, 150180, Note_off_c, 2, 59, 64
4, 150180, Note_on_c, 2, 62, 36
4, 150240, Note_off_c, 2, 62, 64
4, 150240, Note_on_c, 2, 61, 36
4, 150300, Note_off_c, 2, 61, 64
4, 150300, Note_on_c, 2, 62, 36
4, 150360, Note_off_c, 2, 62, 64
4, 150360, Note_on_c, 2, 61, 36
4, 150420, Note_off_c, 2, 61, 64
4, 150420, Note_on_c, 2, 62, 36
4, 150480, Note_off_c, 2, 62, 64
4, 150480, Note_on_c, 2, 61, 36
4, 150540, Note_off_c, 2, 61, 64
4, 150540, Note_on_c, 2, 62, 36
4, 150600, Note_off_c, 2, 62, 64
4, 150600, Note_on_c, 2, 64, 36
4, 150660, Note_off_c, 2, 64, 64
4, 150720, Note_on_c, 2, 66, 36
4, 150960, Note_off_c, 2, 66, 64
4, 151200, Note_on_c, 2, 69, 36
4, 151248, Note_off_c, 2, 69, 64
4, 151320, Note_on_c, 2, 69, 36
4, 151368, Note_off_c, 2, 69, 64
4, 151440, Note_on_c, 2, 69, 36
4, 151488, Note_off_c, 2, 69, 64
4, 151560, Note_on_c, 2, 69, 36
4, 151608, Note_off_c, 2, 69, 64
4, 151680, Note_on_c, 2, 69, 36
4, 151728, Note_off_c, 2, 69, 64
4, 151800, Note_on_c, 2, 69, 36
4, 151848, Note_off_c, 2, 69, 64
4, 151920, Note_on_c, 2, 69, 36
4, 151968, Note_off_c, 2, 69, 64
4, 152040, Note_on_c, 2, 69, 36
4, 152088, Note_off_c, 2, 69, 64
4, 152160, Note_on_c, 2, 69, 36
4, 152208, Note_off_c, 2, 69, 64
4, 152280, Note_on_c, 2, 69, 36
4, 152328, Note_off_c, 2, 69, 64
4, 152400, Note_on_c, 2, 69, 36
4, 152448, Note_off_c, 2, 69, 64
4, 152520, Note_on_c, 2, 69, 36
4, 152568, Note_off_c, 2, 69, 64
4, 152640, Note_on_c, 2, 69, 36
4, 152688, Note_off_c, 2, 69, 64
4, 152760, Note_on_c, 2, 69, 36
4, 152808, Note_off_c, 2, 69, 64
4, 152880, Note_on_c, 2, 69, 36
4, 152928, Note_off_c, 2, 69, 64
4, 153000, Note_on_c, 2, 69, 36
4, 153048, Note_off_c, 2, 69, 64
4, 153120, Note_on_c, 2, 69, 36
4, 153168, Note_off_c, 2, 69, 64
4, 153240, Note_on_c, 2, 69, 36
4, 153288, Note_off_c, 2, 69, 64
4, 153360, Note_on_c, 2, 69, 36
4, 153408, Note_off_c, 2, 69, 64
4, 153480, Note_on_c, 2, 69, 36
4, 153528, Note_off_c, 2, 69, 64
4, 153600, Note_on_c, 2, 69, 36
4, 153648, Note_off_c, 2, 69, 64
4, 153720, Note_on_c, 2, 69, 36
4, 153768, Note_off_c, 2, 69, 64
4, 153840, Note_on_c, 2, 69, 36
4, 153888, Note_off_c, 2, 69, 64
4, 153960, Note_on_c, 2, 69, 36
4, 154008, Note_off_c, 2, 69, 64
4, 154080, Note_on_c, 2, 69, 36
4, 154128, Note_off_c, 2, 69, 64
4, 154200, Note_on_c, 2, 69, 36
4, 154248, Note_off_c, 2, 69, 64
4, 154320, Note_on_c, 2, 69, 36
4, 154368, Note_off_c, 2, 69, 64
4, 154440, Note_on_c, 2, 69, 36
4, 154488, Note_off_c, 2, 69, 64
4, 154560, Note_on_c, 2, 69, 36
4, 154608, Note_off_c, 2, 69, 64
4, 154680, Note_on_c, 2, 66, 36
4, 154728, Note_off_c, 2, 66, 64
4, 154800, Note_on_c, 2, 66, 36
4, 154848, Note_off_c, 2, 66, 64
4, 154920, Note_on_c, 2, 66, 36
4, 154968, Note_off_c, 2, 66, 64
4, 155160, Note_on_c, 2, 67, 36
4, 155208, Note_off_c, 2, 67, 64
4, 155280, Note_on_c, 2, 67, 36
4, 155328, Note_off_c, 2, 67, 64
4, 155400, Note_on_c, 2, 67, 36
4, 155448, Note_off_c, 2, 67, 64
4, 155640, Note_on_c, 2, 69, 36
4, 155688, Note_off_c, 2, 69, 64
4, 155760, Note_on_c, 2, 69, 36
4, 155808, Note_off_c, 2, 69, 64
4, 155880, Note_on_c, 2, 69, 36
4, 155928, Note_off_c, 2, 69, 64
4, 156120, Note_on_c, 2, 71, 36
4, 156168, Note_off_c, 2, 71, 64
4, 156240, Note_on_c, 2, 71, 36
4, 156288, Note_off_c, 2, 71, 64
4, 156360, Note_on_c, 2, 71, 36
4, 156408, Note_off_c, 2, 71, 64
4, 156480, Note_on_c, 2, 72, 36
4, 156528, Note_off_c, 2, 72, 64
4, 156600, Note_on_c, 2, 71, 36
4, 156648, Note_off_c, 2, 71, 64
4, 156720, Note_on_c, 2, 69, 36
4, 156768, Note_off_c, 2, 69, 64
4, 156840, Note_on_c, 2, 67, 36
4, 156888, Note_off_c, 2, 67, 64
4, 156960, Note_on_c, 2, 66, 36
4, 157008, Note_off_c, 2, 66, 64
4, 157080, Note_on_c, 2, 64, 36
4, 157128, Note_off_c, 2, 64, 64
4, 157200, Note_on_c, 2, 62, 36
4, 157248, Note_off_c, 2, 62, 64
4, 157320, Note_on_c, 2, 60, 36
4, 157368, Note_off_c, 2, 60, 64
4, 157440, Note_on_c, 2, 59, 36
4, 157488, Note_off_c, 2, 59, 64
4, 157560, Note_on_c, 2, 71, 36
4, 157608, Note_off_c, 2, 71, 64
4, 157680, Note_on_c, 2, 71, 36
4, 157728, Note_off_c, 2, 71, 64
4, 157800, Note_on_c, 2, 71, 36
4, 157848, Note_off_c, 2, 71, 64
4, 157920, Note_on_c, 2, 73, 36
4, 157968, Note_off_c, 2, 73, 64
4, 158040, Note_on_c, 2, 73, 36
4, 158088, Note_off_c, 2, 73, 64
4, 158160, Note_on_c, 2, 73, 36
4, 158208, Note_off_c, 2, 73, 64
4, 158280, Note_on_c, 2, 73, 36
4, 158328, Note_off_c, 2, 73, 64
4, 158400, Note_on_c, 2, 74, 36
4, 158448, Note_off_c, 2, 74, 64
4, 158520, Note_on_c, 2, 74, 36
4, 158568, Note_off_c, 2, 74, 64
4, 158640, Note_on_c, 2, 74, 36
4, 158688, Note_off_c, 2, 74, 64
4, 158760, Note_on_c, 2, 74, 36
4, 158808, Note_off_c, 2, 74, 64
4, 158880, Note_on_c, 2, 74, 36
4, 158928, Note_off_c, 2, 74, 64
4, 159000, Note_on_c, 2, 74, 36
4, 159048, Note_off_c, 2, 74, 64
4, 159120, Note_on_c, 2, 73, 36
4, 159168, Note_off_c, 2, 73, 64
4, 159240, Note_on_c, 2, 73, 36
4, 159288, Note_off_c, 2, 73, 64
4, 159360, Note_on_c, 2, 74, 36
4, 159600, Note_off_c, 2, 74, 64
4, 159960, Note_on_c, 2, 74, 36
4, 160008, Note_off_c, 2, 74, 64
4, 160080, Note_on_c, 2, 74, 36
4, 160128, Note_off_c, 2, 74, 64
4, 160200, Note_on_c, 2, 74, 36
4, 160248, Note_off_c, 2, 74, 64
4, 160320, Note_on_c, 2, 74, 36
4, 160560, Note_off_c, 2, 74, 64
4, 160920, Note_on_c, 2, 74, 36
4, 160968, Note_off_c, 2, 74, 64
4, 161040, Note_on_c, 2, 74, 36
4, 161088, Note_off_c, 2, 74, 64
4, 161160, Note_on_c, 2, 74, 36
4, 161208, Note_off_c, 2, 74, 64
4, 161280, Note_on_c, 2, 74, 36
4, 161328, Note_off_c, 2, 74, 64
4, 161400, Note_on_c, 2, 74, 36
4, 161448, Note_off_c, 2, 74, 64
4, 161520, Note_on_c, 2, 74, 36
4, 161568, Note_off_c, 2, 74, 64
4, 161640, Note_on_c, 2, 74, 36
4, 161688, Note_off_c, 2, 74, 64
4, 161760, Note_on_c, 2, 74, 36
4, 161808, Note_off_c, 2, 74, 64
4, 161880, Note_on_c, 2, 74, 36
4, 161928, Note_off_c, 2, 74, 64
4, 162000, Note_on_c, 2, 73, 36
4, 162048, Note_off_c, 2, 73, 64
4, 162120, Note_on_c, 2, 73, 36
4, 162168, Note_off_c, 2, 73, 64
4, 162240, Note_on_c, 2, 74, 36
4, 162480, Note_off_c, 2, 74, 64
4, 162840, Note_on_c, 2, 74, 36
4, 162888, Note_off_c, 2, 74, 64
4, 162960, Note_on_c, 2, 74, 36
4, 163008, Note_off_c, 2, 74, 64
4, 163080, Note_on_c, 2, 74, 36
4, 163128, Note_off_c, 2, 74, 64
4, 163200, Note_on_c, 2, 74, 36
4, 163440, Note_off_c, 2, 74, 64
4, 163800, Note_on_c, 2, 74, 36
4, 163848, Note_off_c, 2, 74, 64
4, 163920, Note_on_c, 2, 74, 36
4, 163968, Note_off_c, 2, 74, 64
4, 164040, Note_on_c, 2, 74, 36
4, 164088, Note_off_c, 2, 74, 64
4, 164160, Note_on_c, 2, 74, 62
4, 164208, Note_off_c, 2, 74, 64
4, 164280, Note_on_c, 2, 74, 36
4, 164328, Note_off_c, 2, 74, 64
4, 164400, Note_on_c, 2, 74, 36
4, 164448, Note_off_c, 2, 74, 64
4, 164520, Note_on_c, 2, 74, 36
4, 164568, Note_off_c, 2, 74, 64
4, 164640, Note_on_c, 2, 74, 36
4, 164688, Note_off_c, 2, 74, 64
4, 164760, Note_on_c, 2, 74, 36
4, 164808, Note_off_c, 2, 74, 64
4, 164880, Note_on_c, 2, 74, 36
4, 164928, Note_off_c, 2, 74, 64
4, 165000, Note_on_c, 2, 74, 36
4, 165048, Note_off_c, 2, 74, 64
4, 165120, Note_on_c, 2, 73, 36
4, 165180, Note_off_c, 2, 73, 64
4, 165180, Note_on_c, 2, 73, 36
4, 165240, Note_off_c, 2, 73, 64
4, 165240, Note_on_c, 2, 73, 36
4, 165300, Note_off_c, 2, 73, 64
4, 165300, Note_on_c, 2, 73, 36
4, 165360, Note_off_c, 2, 73, 64
4, 165360, Note_on_c, 2, 76, 39
4, 165420, Note_off_c, 2, 76, 64
4, 165420, Note_on_c, 2, 76, 39
4, 165480, Note_off_c, 2, 76, 64
4, 165480, Note_on_c, 2, 76, 42
4, 165540, Note_off_c, 2, 76, 64
4, 165540, Note_on_c, 2, 76, 42
4, 165600, Note_off_c, 2, 76, 64
4, 165600, Note_on_c, 2, 79, 45
4, 165660, Note_off_c, 2, 79, 64
4, 165660, Note_on_c, 2, 79, 45
4, 165720, Note_off_c, 2, 79, 64
4, 165720, Note_on_c, 2, 79, 49
4, 165780, Note_off_c, 2, 79, 64
4, 165780, Note_on_c, 2, 79, 49
4, 165840, Note_off_c, 2, 79, 64
4, 165840, Note_on_c, 2, 85, 52
4, 165900, Note_off_c, 2, 85, 64
4, 165900, Note_on_c, 2, 85, 52
4, 165960, Note_off_c, 2, 85, 64
4, 165960, Note_on_c, 2, 85, 55
4, 166020, Note_off_c, 2, 85, 64
4, 166020, Note_on_c, 2, 85, 55
4, 166080, Note_off_c, 2, 85, 64
4, 166080, Note_on_c, 2, 86, 103
4, 166320, Note_off_c, 2, 86, 64
4, 166320, Note_on_c, 2, 74, 103
4, 166800, Note_off_c, 2, 74, 64
4, 166800, Note_on_c, 2, 73, 103
4, 166860, Note_off_c, 2, 73, 64
4, 166860, Note_on_c, 2, 74, 103
4, 166920, Note_off_c, 2, 74, 64
4, 166920, Note_on_c, 2, 73, 103
4, 166980, Note_off_c, 2, 73, 64
4, 166980, Note_on_c, 2, 74, 103
4, 167040, Note_off_c, 2, 74, 64
4, 167040, Note_on_c, 2, 79, 103
4, 167280, Note_off_c, 2, 79, 64
4, 167280, Note_on_c, 2, 78, 103
4, 167760, Note_off_c, 2, 78, 64
4, 167760, Note_on_c, 2, 73, 103
4, 167820, Note_off_c, 2, 73, 64
4, 167820, Note_on_c, 2, 74, 103
4, 167880, Note_off_c, 2, 74, 64
4, 167880, Note_on_c, 2, 73, 103
4, 167940, Note_off_c, 2, 73, 64
4, 167940, Note_on_c, 2, 74, 103
4, 168000, Note_off_c, 2, 74, 64
4, 168000, Note_on_c, 2, 84, 103
4, 168240, Note_off_c, 2, 84, 64
4, 168240, Note_on_c, 2, 83, 103
4, 168720, Note_off_c, 2, 83, 64
4, 168720, Note_on_c, 2, 73, 103
4, 168780, Note_off_c, 2, 73, 64
4, 168780, Note_on_c, 2, 74, 103
4, 168840, Note_off_c, 2, 74, 64
4, 168840, Note_on_c, 2, 73, 103
4, 168900, Note_off_c, 2, 73, 64
4, 168900, Note_on_c, 2, 74, 103
4, 168960, Note_off_c, 2, 74, 64
4, 168960, Note_on_c, 2, 86, 103
4, 169080, Note_off_c, 2, 86, 64
4, 169080, Note_on_c, 2, 74, 103
4, 169200, Note_off_c, 2, 74, 64
4, 169200, Note_on_c, 2, 74, 103
4, 169230, Note_off_c, 2, 74, 64
4, 169230, Note_on_c, 2, 76, 103
4, 169260, Note_off_c, 2, 76, 64
4, 169260, Note_on_c, 2, 74, 103
4, 169290, Note_off_c, 2, 74, 64
4, 169290, Note_on_c, 2, 76, 103
4, 169320, Note_off_c, 2, 76, 64
4, 169320, Note_on_c, 2, 74, 103
4, 169350, Note_off_c, 2, 74, 64
4, 169350, Note_on_c, 2, 76, 103
4, 169380, Note_off_c, 2, 76, 64
4, 169380, Note_on_c, 2, 73, 103
4, 169410, Note_off_c, 2, 73, 64
4, 169410, Note_on_c, 2, 74, 103
4, 169440, Note_off_c, 2, 74, 64
4, 169440, Note_on_c, 2, 78, 103
4, 169488, Note_off_c, 2, 78, 64
4, 169560, Note_on_c, 2, 74, 103
4, 169608, Note_off_c, 2, 74, 64
4, 169680, Note_on_c, 2, 71, 103
4, 169728, Note_off_c, 2, 71, 64
4, 169800, Note_on_c, 2, 68, 103
4, 169848, Note_off_c, 2, 68, 64
4, 169920, Note_on_c, 2, 57, 103
4, 169920, Note_on_c, 2, 69, 103
4, 170400, Note_off_c, 2, 69, 64
4, 170400, Note_off_c, 2, 57, 64
4, 170880, Note_on_c, 2, 66, 103
4, 170880, Note_on_c, 2, 74, 103
4, 170903, Note_off_c, 2, 66, 64
4, 170928, Note_off_c, 2, 74, 64
4, 171000, Note_on_c, 2, 66, 103
4, 171000, Note_on_c, 2, 74, 103
4, 171240, Note_off_c, 2, 74, 64
4, 171240, Note_off_c, 2, 66, 64
4, 171240, Note_on_c, 2, 74, 103
4, 171288, Note_off_c, 2, 74, 64
4, 171360, Note_on_c, 2, 74, 103
4, 171360, Note_on_c, 2, 84, 103
4, 171383, Note_off_c, 2, 74, 64
4, 171408, Note_off_c, 2, 84, 64
4, 171480, Note_on_c, 2, 74, 103
4, 171480, Note_on_c, 2, 84, 103
4, 171720, Note_off_c, 2, 84, 64
4, 171720, Note_off_c, 2, 74, 64
4, 171720, Note_on_c, 2, 74, 103
4, 171720, Note_on_c, 2, 84, 103
4, 171743, Note_off_c, 2, 74, 64
4, 171768, Note_off_c, 2, 84, 64
4, 171840, Note_on_c, 2, 83, 103
4, 171900, Note_off_c, 2, 83, 64
4, 171900, Note_on_c, 2, 85, 103
4, 171960, Note_off_c, 2, 85, 64
4, 171960, Note_on_c, 2, 86, 103
4, 172020, Note_off_c, 2, 86, 64
4, 172020, Note_on_c, 2, 85, 103
4, 172080, Note_off_c, 2, 85, 64
4, 172080, Note_on_c, 2, 86, 103
4, 172200, Note_off_c, 2, 86, 64
4, 172320, Note_on_c, 2, 79, 103
4, 172380, Note_off_c, 2, 79, 64
4, 172380, Note_on_c, 2, 81, 103
4, 172440, Note_off_c, 2, 81, 64
4, 172440, Note_on_c, 2, 83, 103
4, 172500, Note_off_c, 2, 83, 64
4, 172500, Note_on_c, 2, 81, 103
4, 172560, Note_off_c, 2, 81, 64
4, 172560, Note_on_c, 2, 83, 103
4, 172608, Note_off_c, 2, 83, 64
4, 172680, Note_on_c, 2, 79, 103
4, 172728, Note_off_c, 2, 79, 64
4, 172800, Note_on_c, 2, 78, 103
4, 172848, Note_off_c, 2, 78, 64
4, 172920, Note_on_c, 2, 81, 103
4, 172980, Note_off_c, 2, 81, 64
4, 172980, Note_on_c, 2, 78, 103
4, 173040, Note_off_c, 2, 78, 64
4, 173040, Note_on_c, 2, 74, 103
4, 173088, Note_off_c, 2, 74, 64
4, 173160, Note_on_c, 2, 78, 103
4, 173220, Note_off_c, 2, 78, 64
4, 173220, Note_on_c, 2, 74, 103
4, 173280, Note_off_c, 2, 74, 64
4, 173280, Note_on_c, 2, 69, 103
4, 173520, Note_off_c, 2, 69, 64
4, 173520, Note_on_c, 2, 57, 103
4, 173520, Note_on_c, 2, 64, 103
4, 173520, Note_on_c, 2, 73, 103
4, 173760, Note_off_c, 2, 73, 64
4, 173760, Note_off_c, 2, 64, 64
4, 173760, Note_off_c, 2, 57, 64
4, 173760, Note_on_c, 2, 57, 103
4, 173760, Note_on_c, 2, 66, 103
4, 173760, Note_on_c, 2, 74, 103
4, 174000, Note_off_c, 2, 74, 64
4, 174000, Note_off_c, 2, 66, 64
4, 174000, Note_off_c, 2, 57, 64
4, 174000, Note_on_c, 2, 74, 36
4, 174060, Note_off_c, 2, 74, 64
4, 174060, Note_on_c, 2, 76, 36
4, 174120, Note_off_c, 2, 76, 64
4, 174120, Note_on_c, 2, 78, 36
4, 174180, Note_off_c, 2, 78, 64
4, 174180, Note_on_c, 2, 79, 36
4, 174240, Note_off_c, 2, 79, 64
4, 174240, Note_on_c, 2, 81, 36
4, 174288, Note_off_c, 2, 81, 64
4, 174360, Note_on_c, 2, 81, 36
4, 174408, Note_off_c, 2, 81, 64
4, 174480, Note_on_c, 2, 81, 36
4, 174528, Note_off_c, 2, 81, 64
4, 174600, Note_on_c, 2, 81, 36
4, 174648, Note_off_c, 2, 81, 64
4, 174720, Note_on_c, 2, 81, 36
4, 174840, Note_off_c, 2, 81, 64
4, 174960, Note_on_c, 2, 86, 100
4, 175080, Note_off_c, 2, 86, 64
4, 175080, Note_on_c, 2, 81, 100
4, 175128, Note_off_c, 2, 81, 64
4, 175200, Note_on_c, 2, 78, 100
4, 175380, Note_off_c, 2, 78, 64
4, 175380, Note_on_c, 2, 81, 100
4, 175440, Note_off_c, 2, 81, 64
4, 175440, Note_on_c, 2, 81, 100
4, 175500, Note_off_c, 2, 81, 64
4, 175500, Note_on_c, 2, 79, 100
4, 175560, Note_off_c, 2, 79, 64
4, 175560, Note_on_c, 2, 78, 100
4, 175620, Note_off_c, 2, 78, 64
4, 175620, Note_on_c, 2, 76, 100
4, 175680, Note_off_c, 2, 76, 64
4, 175680, Note_on_c, 2, 74, 100
4, 175800, Note_off_c, 2, 74, 64
4, 175920, Note_on_c, 2, 74, 36
4, 175980, Note_off_c, 2, 74, 64
4, 175980, Note_on_c, 2, 76, 36
4, 176040, Note_off_c, 2, 76, 64
4, 176040, Note_on_c, 2, 78, 36
4, 176100, Note_off_c, 2, 78, 64
4, 176100, Note_on_c, 2, 79, 36
4, 176160, Note_off_c, 2, 79, 64
4, 176160, Note_on_c, 2, 81, 36
4, 176220, Note_off_c, 2, 81, 64
4, 176220, Note_on_c, 2, 81, 36
4, 176280, Note_off_c, 2, 81, 64
4, 176280, Note_on_c, 2, 81, 36
4, 176340, Note_off_c, 2, 81, 64
4, 176340, Note_on_c, 2, 81, 36
4, 176400, Note_off_c, 2, 81, 64
4, 176400, Note_on_c, 2, 81, 36
4, 176460, Note_off_c, 2, 81, 64
4, 176460, Note_on_c, 2, 81, 36
4, 176520, Note_off_c, 2, 81, 64
4, 176520, Note_on_c, 2, 81, 36
4, 176580, Note_off_c, 2, 81, 64
4, 176580, Note_on_c, 2, 81, 36
4, 176640, Note_off_c, 2, 81, 64
4, 176640, Note_on_c, 2, 81, 36
4, 176760, Note_off_c, 2, 81, 64
4, 176880, Note_on_c, 2, 86, 100
4, 176928, Note_off_c, 2, 86, 64
4, 177000, Note_on_c, 2, 81, 100
4, 177048, Note_off_c, 2, 81, 64
4, 177120, Note_on_c, 2, 78, 100
4, 177180, Note_off_c, 2, 78, 64
4, 177180, Note_on_c, 2, 81, 100
4, 177240, Note_off_c, 2, 81, 64
4, 177240, Note_on_c, 2, 78, 100
4, 177300, Note_off_c, 2, 78, 64
4, 177300, Note_on_c, 2, 81, 100
4, 177360, Note_off_c, 2, 81, 64
4, 177360, Note_on_c, 2, 81, 100
4, 177420, Note_off_c, 2, 81, 64
4, 177420, Note_on_c, 2, 79, 100
4, 177480, Note_off_c, 2, 79, 64
4, 177480, Note_on_c, 2, 78, 100
4, 177540, Note_off_c, 2, 78, 64
4, 177540, Note_on_c, 2, 76, 100
4, 177600, Note_off_c, 2, 76, 64
4, 177600, Note_on_c, 2, 78, 100
4, 177660, Note_off_c, 2, 78, 64
4, 177660, Note_on_c, 2, 74, 100
4, 177720, Note_off_c, 2, 74, 64
4, 177720, Note_on_c, 2, 81, 100
4, 177780, Note_off_c, 2, 81, 64
4, 177780, Note_on_c, 2, 78, 100
4, 177840, Note_off_c, 2, 78, 64
4, 177840, Note_on_c, 2, 86, 100
4, 177900, Note_off_c, 2, 86, 64
4, 177900, Note_on_c, 2, 81, 100
4, 177960, Note_off_c, 2, 81, 64
4, 177960, Note_on_c, 2, 86, 100
4, 178020, Note_off_c, 2, 86, 64
4, 178020, Note_on_c, 2, 81, 100
4, 178080, Note_off_c, 2, 81, 64
4, 178080, Note_on_c, 2, 78, 100
4, 178140, Note_off_c, 2, 78, 64
4, 178140, Note_on_c, 2, 81, 100
4, 178200, Note_off_c, 2, 81, 64
4, 178200, Note_on_c, 2, 78, 100
4, 178260, Note_off_c, 2, 78, 64
4, 178260, Note_on_c, 2, 81, 100
4, 178320, Note_off_c, 2, 81, 64
4, 178320, Note_on_c, 2, 81, 100
4, 178380, Note_off_c, 2, 81, 64
4, 178380, Note_on_c, 2, 79, 100
4, 178440, Note_off_c, 2, 79, 64
4, 178440, Note_on_c, 2, 78, 100
4, 178500, Note_off_c, 2, 78, 64
4, 178500, Note_on_c, 2, 76, 100
4, 178560, Note_off_c, 2, 76, 64
4, 178560, Note_on_c, 2, 74, 100
4, 178608, Note_off_c, 2, 74, 64
4, 178680, Note_on_c, 2, 74, 100
4, 178728, Note_off_c, 2, 74, 64
4, 178800, Note_on_c, 2, 74, 100
4, 178830, Note_off_c, 2, 74, 64
4, 178830, Note_on_c, 2, 76, 100
4, 178860, Note_off_c, 2, 76, 64
4, 178860, Note_on_c, 2, 74, 100
4, 178890, Note_off_c, 2, 74, 64
4, 178890, Note_on_c, 2, 76, 100
4, 178920, Note_off_c, 2, 76, 64
4, 178920, Note_on_c, 2, 74, 100
4, 178950, Note_off_c, 2, 74, 64
4, 178950, Note_on_c, 2, 76, 100
4, 178980, Note_off_c, 2, 76, 64
4, 178980, Note_on_c, 2, 73, 100
4, 179010, Note_off_c, 2, 73, 64
4, 179010, Note_on_c, 2, 74, 100
4, 179040, Note_off_c, 2, 74, 64
4, 179040, Note_on_c, 2, 78, 100
4, 179088, Note_off_c, 2, 78, 64
4, 179160, Note_on_c, 2, 74, 100
4, 179208, Note_off_c, 2, 74, 64
4, 179280, Note_on_c, 2, 69, 100
4, 179328, Note_off_c, 2, 69, 64
4, 179400, Note_on_c, 2, 66, 100
4, 179448, Note_off_c, 2, 66, 64
4, 179520, Note_on_c, 2, 62, 100
4, 179616, Note_off_c, 2, 62, 64
4, 179760, Note_on_c, 2, 78, 100
4, 179760, Note_on_c, 2, 86, 100
4, 179940, Note_off_c, 2, 86, 64
4, 179940, Note_off_c, 2, 78, 64
4, 180000, Note_on_c, 2, 78, 100
4, 180000, Note_on_c, 2, 86, 100
4, 180240, Note_off_c, 2, 86, 64
4, 180240, Note_off_c, 2, 78, 64
4, 180240, End_track
5, 0, Start_track
5, 0, Title_t, "Violin 2     Try it,"
5, 0, Program_c, 3, 48
5, 0, Note_on_c, 3, 57, 100
5, 0, Note_on_c, 3, 66, 100
5, 0, Control_c, 3, 7, 97
5, 240, Note_off_c, 3, 66, 64
5, 240, Note_off_c, 3, 57, 64
5, 240, Note_on_c, 3, 57, 100
5, 240, Note_on_c, 3, 66, 100
5, 720, Note_off_c, 3, 66, 64
5, 720, Note_off_c, 3, 57, 64
5, 720, Note_on_c, 3, 64, 100
5, 780, Note_off_c, 3, 64, 64
5, 780, Note_on_c, 3, 66, 100
5, 840, Note_off_c, 3, 66, 64
5, 840, Note_on_c, 3, 64, 100
5, 900, Note_off_c, 3, 64, 64
5, 900, Note_on_c, 3, 66, 100
5, 960, Note_off_c, 3, 66, 64
5, 960, Note_on_c, 3, 71, 126
5, 1200, Note_off_c, 3, 71, 64
5, 1200, Note_on_c, 3, 67, 100
5, 1380, Note_off_c, 3, 67, 64
5, 1380, Note_on_c, 3, 69, 100
5, 1440, Note_off_c, 3, 69, 64
5, 1440, Note_on_c, 3, 71, 100
5, 1680, Note_off_c, 3, 71, 64
5, 1680, Note_on_c, 3, 73, 100
5, 1920, Note_off_c, 3, 73, 64
5, 1920, Note_on_c, 3, 73, 100
5, 2040, Note_off_c, 3, 73, 64
5, 2040, Note_on_c, 3, 74, 100
5, 2088, Note_off_c, 3, 74, 64
5, 2160, Note_on_c, 3, 74, 100
5, 2640, Note_off_c, 3, 74, 64
5, 2640, Note_on_c, 3, 76, 100
5, 2700, Note_off_c, 3, 76, 64
5, 2700, Note_on_c, 3, 74, 100
5, 2760, Note_off_c, 3, 74, 64
5, 2760, Note_on_c, 3, 76, 100
5, 2820, Note_off_c, 3, 76, 64
5, 2820, Note_on_c, 3, 74, 100
5, 2880, Note_off_c, 3, 74, 64
5, 2880, Note_on_c, 3, 79, 126
5, 3120, Note_off_c, 3, 79, 64
5, 3120, Note_on_c, 3, 79, 100
5, 3600, Note_off_c, 3, 79, 64
5, 3600, Note_on_c, 3, 79, 100
5, 3840, Note_off_c, 3, 79, 64
5, 3840, Note_on_c, 3, 77, 126
5, 3960, Note_off_c, 3, 77, 64
5, 3960, Note_on_c, 3, 78, 100
5, 4080, Note_off_c, 3, 78, 64
5, 4080, Note_on_c, 3, 78, 100
5, 4320, Note_off_c, 3, 78, 64
5, 4440, Note_on_c, 3, 69, 36
5, 4488, Note_off_c, 3, 69, 64
5, 4560, Note_on_c, 3, 71, 36
5, 4608, Note_off_c, 3, 71, 64
5, 4680, Note_on_c, 3, 73, 36
5, 4728, Note_off_c, 3, 73, 64
5, 4800, Note_on_c, 3, 74, 62
5, 5280, Note_off_c, 3, 74, 64
5, 5280, Note_on_c, 3, 69, 36
5, 5520, Note_off_c, 3, 69, 64
5, 5520, Note_on_c, 3, 66, 36
5, 5760, Note_off_c, 3, 66, 64
5, 5760, Note_on_c, 3, 66, 36
5, 5880, Note_off_c, 3, 66, 64
5, 5880, Note_on_c, 3, 67, 36
5, 6000, Note_off_c, 3, 67, 64
5, 6000, Note_on_c, 3, 63, 39
5, 6120, Note_off_c, 3, 63, 64
5, 6120, Note_on_c, 3, 64, 42
5, 6240, Note_off_c, 3, 64, 64
5, 6240, Note_on_c, 3, 64, 45
5, 6480, Note_off_c, 3, 64, 64
5, 6720, Note_on_c, 3, 73, 103
5, 6780, Note_off_c, 3, 73, 64
5, 6780, Note_on_c, 3, 73, 103
5, 6840, Note_off_c, 3, 73, 64
5, 6840, Note_on_c, 3, 73, 103
5, 6900, Note_off_c, 3, 73, 64
5, 6900, Note_on_c, 3, 73, 103
5, 6960, Note_off_c, 3, 73, 64
5, 6960, Note_on_c, 3, 73, 103
5, 7008, Note_off_c, 3, 73, 64
5, 7080, Note_on_c, 3, 76, 103
5, 7128, Note_off_c, 3, 76, 64
5, 7200, Note_on_c, 3, 74, 103
5, 7260, Note_off_c, 3, 74, 64
5, 7260, Note_on_c, 3, 74, 103
5, 7320, Note_off_c, 3, 74, 64
5, 7320, Note_on_c, 3, 74, 103
5, 7380, Note_off_c, 3, 74, 64
5, 7380, Note_on_c, 3, 74, 103
5, 7440, Note_off_c, 3, 74, 64
5, 7440, Note_on_c, 3, 74, 103
5, 7488, Note_off_c, 3, 74, 64
5, 7560, Note_on_c, 3, 78, 103
5, 7608, Note_off_c, 3, 78, 64
5, 7680, Note_on_c, 3, 76, 101
5, 7740, Note_off_c, 3, 76, 64
5, 7740, Note_on_c, 3, 76, 100
5, 7800, Note_off_c, 3, 76, 64
5, 7800, Note_on_c, 3, 76, 100
5, 7860, Note_off_c, 3, 76, 64
5, 7860, Note_on_c, 3, 76, 100
5, 7920, Note_off_c, 3, 76, 64
5, 7920, Note_on_c, 3, 78, 100
5, 7980, Note_off_c, 3, 78, 64
5, 7980, Note_on_c, 3, 78, 100
5, 8040, Note_off_c, 3, 78, 64
5, 8040, Note_on_c, 3, 78, 100
5, 8100, Note_off_c, 3, 78, 64
5, 8100, Note_on_c, 3, 78, 100
5, 8160, Note_off_c, 3, 78, 64
5, 8160, Note_on_c, 3, 79, 100
5, 8220, Note_off_c, 3, 79, 64
5, 8220, Note_on_c, 3, 79, 100
5, 8280, Note_off_c, 3, 79, 64
5, 8280, Note_on_c, 3, 79, 100
5, 8340, Note_off_c, 3, 79, 64
5, 8340, Note_on_c, 3, 79, 100
5, 8400, Note_off_c, 3, 79, 64
5, 8400, Note_on_c, 3, 73, 100
5, 8460, Note_off_c, 3, 73, 64
5, 8460, Note_on_c, 3, 73, 100
5, 8520, Note_off_c, 3, 73, 64
5, 8520, Note_on_c, 3, 73, 100
5, 8580, Note_off_c, 3, 73, 64
5, 8580, Note_on_c, 3, 73, 100
5, 8640, Note_off_c, 3, 73, 64
5, 8640, Note_on_c, 3, 74, 100
5, 8730, Note_on_c, 3, 76, 100
5, 8760, Note_off_c, 3, 76, 64
5, 8820, Note_off_c, 3, 74, 64
5, 8820, Note_on_c, 3, 73, 100
5, 8880, Note_off_c, 3, 73, 64
5, 8880, Note_on_c, 3, 74, 100
5, 8928, Note_off_c, 3, 74, 64
5, 9000, Note_on_c, 3, 76, 100
5, 9048, Note_off_c, 3, 76, 64
5, 9120, Note_on_c, 3, 78, 100
5, 9210, Note_on_c, 3, 79, 100
5, 9240, Note_off_c, 3, 79, 64
5, 9300, Note_off_c, 3, 78, 64
5, 9300, Note_on_c, 3, 76, 100
5, 9360, Note_off_c, 3, 76, 64
5, 9360, Note_on_c, 3, 78, 100
5, 9408, Note_off_c, 3, 78, 64
5, 9480, Note_on_c, 3, 80, 100
5, 9528, Note_off_c, 3, 80, 64
5, 9600, Note_on_c, 3, 81, 100
5, 9763, Note_off_c, 3, 81, 64
5, 9840, Note_on_c, 3, 64, 100
5, 9840, Note_on_c, 3, 73, 100
5, 9840, Note_on_c, 3, 81, 100
5, 10003, Note_off_c, 3, 81, 64
5, 10003, Note_off_c, 3, 73, 64
5, 10003, Note_off_c, 3, 64, 64
5, 10080, Note_on_c, 3, 64, 100
5, 10080, Note_on_c, 3, 73, 100
5, 10080, Note_on_c, 3, 81, 100
5, 10373, Note_off_c, 3, 81, 64
5, 10373, Note_off_c, 3, 73, 64
5, 10373, Note_off_c, 3, 64, 64
5, 11520, Note_on_c, 3, 62, 19
5, 11580, Note_off_c, 3, 62, 64
5, 11580, Note_on_c, 3, 64, 19
5, 11640, Note_off_c, 3, 64, 64
5, 11640, Note_on_c, 3, 62, 19
5, 11700, Note_off_c, 3, 62, 64
5, 11700, Note_on_c, 3, 64, 19
5, 11760, Note_off_c, 3, 64, 64
5, 11760, Note_on_c, 3, 62, 19
5, 11820, Note_off_c, 3, 62, 64
5, 11820, Note_on_c, 3, 64, 19
5, 11880, Note_off_c, 3, 64, 64
5, 11880, Note_on_c, 3, 62, 19
5, 11940, Note_off_c, 3, 62, 64
5, 11940, Note_on_c, 3, 64, 19
5, 12000, Note_off_c, 3, 64, 64
5, 12000, Note_on_c, 3, 60, 19
5, 12060, Note_off_c, 3, 60, 64
5, 12060, Note_on_c, 3, 62, 19
5, 12120, Note_off_c, 3, 62, 64
5, 12120, Note_on_c, 3, 60, 19
5, 12180, Note_off_c, 3, 60, 64
5, 12180, Note_on_c, 3, 62, 19
5, 12240, Note_off_c, 3, 62, 64
5, 12240, Note_on_c, 3, 60, 19
5, 12300, Note_off_c, 3, 60, 64
5, 12300, Note_on_c, 3, 62, 19
5, 12360, Note_off_c, 3, 62, 64
5, 12360, Note_on_c, 3, 60, 19
5, 12420, Note_off_c, 3, 60, 64
5, 12420, Note_on_c, 3, 62, 19
5, 12480, Note_off_c, 3, 62, 64
5, 12480, Note_on_c, 3, 59, 19
5, 12540, Note_off_c, 3, 59, 64
5, 12540, Note_on_c, 3, 60, 19
5, 12600, Note_off_c, 3, 60, 64
5, 12600, Note_on_c, 3, 59, 19
5, 12660, Note_off_c, 3, 59, 64
5, 12660, Note_on_c, 3, 60, 19
5, 12720, Note_off_c, 3, 60, 64
5, 12720, Note_on_c, 3, 59, 19
5, 12780, Note_off_c, 3, 59, 64
5, 12780, Note_on_c, 3, 60, 19
5, 12840, Note_off_c, 3, 60, 64
5, 12840, Note_on_c, 3, 59, 19
5, 12900, Note_off_c, 3, 59, 64
5, 12900, Note_on_c, 3, 62, 19
5, 12960, Note_off_c, 3, 62, 64
5, 12960, Note_on_c, 3, 61, 19
5, 13020, Note_off_c, 3, 61, 64
5, 13020, Note_on_c, 3, 62, 19
5, 13080, Note_off_c, 3, 62, 64
5, 13080, Note_on_c, 3, 61, 19
5, 13140, Note_off_c, 3, 61, 64
5, 13140, Note_on_c, 3, 62, 19
5, 13200, Note_off_c, 3, 62, 64
5, 13200, Note_on_c, 3, 61, 19
5, 13260, Note_off_c, 3, 61, 64
5, 13260, Note_on_c, 3, 62, 19
5, 13320, Note_off_c, 3, 62, 64
5, 13320, Note_on_c, 3, 61, 19
5, 13380, Note_off_c, 3, 61, 64
5, 13380, Note_on_c, 3, 64, 19
5, 13440, Note_off_c, 3, 64, 64
5, 13440, Note_on_c, 3, 62, 19
5, 13500, Note_off_c, 3, 62, 64
5, 13500, Note_on_c, 3, 64, 19
5, 13560, Note_off_c, 3, 64, 64
5, 13560, Note_on_c, 3, 62, 19
5, 13620, Note_off_c, 3, 62, 64
5, 13620, Note_on_c, 3, 64, 19
5, 13680, Note_off_c, 3, 64, 64
5, 13680, Note_on_c, 3, 62, 19
5, 13740, Note_off_c, 3, 62, 64
5, 13740, Note_on_c, 3, 64, 19
5, 13800, Note_off_c, 3, 64, 64
5, 13800, Note_on_c, 3, 62, 19
5, 13860, Note_off_c, 3, 62, 64
5, 13860, Note_on_c, 3, 64, 19
5, 13920, Note_off_c, 3, 64, 64
5, 13920, Note_on_c, 3, 60, 19
5, 13980, Note_off_c, 3, 60, 64
5, 13980, Note_on_c, 3, 62, 19
5, 14040, Note_off_c, 3, 62, 64
5, 14040, Note_on_c, 3, 60, 19
5, 14100, Note_off_c, 3, 60, 64
5, 14100, Note_on_c, 3, 62, 19
5, 14160, Note_off_c, 3, 62, 64
5, 14160, Note_on_c, 3, 60, 19
5, 14220, Note_off_c, 3, 60, 64
5, 14220, Note_on_c, 3, 62, 19
5, 14280, Note_off_c, 3, 62, 64
5, 14280, Note_on_c, 3, 60, 19
5, 14340, Note_off_c, 3, 60, 64
5, 14340, Note_on_c, 3, 62, 19
5, 14400, Note_off_c, 3, 62, 64
5, 14400, Note_on_c, 3, 59, 19
5, 14460, Note_off_c, 3, 59, 64
5, 14460, Note_on_c, 3, 60, 19
5, 14520, Note_off_c, 3, 60, 64
5, 14520, Note_on_c, 3, 59, 19
5, 14580, Note_off_c, 3, 59, 64
5, 14580, Note_on_c, 3, 60, 19
5, 14640, Note_off_c, 3, 60, 64
5, 14640, Note_on_c, 3, 59, 19
5, 14700, Note_off_c, 3, 59, 64
5, 14700, Note_on_c, 3, 60, 19
5, 14760, Note_off_c, 3, 60, 64
5, 14760, Note_on_c, 3, 59, 19
5, 14820, Note_off_c, 3, 59, 64
5, 14820, Note_on_c, 3, 62, 19
5, 14880, Note_off_c, 3, 62, 64
5, 14880, Note_on_c, 3, 61, 19
5, 14940, Note_off_c, 3, 61, 64
5, 14940, Note_on_c, 3, 62, 19
5, 15000, Note_off_c, 3, 62, 64
5, 15000, Note_on_c, 3, 61, 19
5, 15060, Note_off_c, 3, 61, 64
5, 15060, Note_on_c, 3, 62, 19
5, 15120, Note_off_c, 3, 62, 64
5, 15120, Note_on_c, 3, 61, 19
5, 15180, Note_off_c, 3, 61, 64
5, 15180, Note_on_c, 3, 62, 19
5, 15240, Note_off_c, 3, 62, 64
5, 15240, Note_on_c, 3, 61, 19
5, 15300, Note_off_c, 3, 61, 64
5, 15300, Note_on_c, 3, 64, 19
5, 15360, Note_off_c, 3, 64, 64
5, 15360, Note_on_c, 3, 62, 19
5, 15420, Note_off_c, 3, 62, 64
5, 15420, Note_on_c, 3, 62, 19
5, 15480, Note_off_c, 3, 62, 64
5, 15480, Note_on_c, 3, 62, 19
5, 15540, Note_off_c, 3, 62, 64
5, 15540, Note_on_c, 3, 62, 19
5, 15600, Note_off_c, 3, 62, 64
5, 15600, Note_on_c, 3, 66, 19
5, 15648, Note_off_c, 3, 66, 64
5, 15720, Note_on_c, 3, 69, 19
5, 15768, Note_off_c, 3, 69, 64
5, 15840, Note_on_c, 3, 61, 19
5, 15900, Note_off_c, 3, 61, 64
5, 15900, Note_on_c, 3, 61, 19
5, 15960, Note_off_c, 3, 61, 64
5, 15960, Note_on_c, 3, 61, 19
5, 16020, Note_off_c, 3, 61, 64
5, 16020, Note_on_c, 3, 61, 19
5, 16080, Note_off_c, 3, 61, 64
5, 16080, Note_on_c, 3, 64, 19
5, 16128, Note_off_c, 3, 64, 64
5, 16200, Note_on_c, 3, 67, 19
5, 16248, Note_off_c, 3, 67, 64
5, 16320, Note_on_c, 3, 69, 19
5, 16380, Note_off_c, 3, 69, 64
5, 16380, Note_on_c, 3, 69, 19
5, 16440, Note_off_c, 3, 69, 64
5, 16440, Note_on_c, 3, 69, 19
5, 16500, Note_off_c, 3, 69, 64
5, 16500, Note_on_c, 3, 69, 19
5, 16560, Note_off_c, 3, 69, 64
5, 16560, Note_on_c, 3, 66, 19
5, 16608, Note_off_c, 3, 66, 64
5, 16680, Note_on_c, 3, 62, 19
5, 16728, Note_off_c, 3, 62, 64
5, 16800, Note_on_c, 3, 69, 19
5, 16860, Note_off_c, 3, 69, 64
5, 16860, Note_on_c, 3, 69, 19
5, 16920, Note_off_c, 3, 69, 64
5, 16920, Note_on_c, 3, 69, 19
5, 16980, Note_off_c, 3, 69, 64
5, 16980, Note_on_c, 3, 69, 19
5, 17040, Note_off_c, 3, 69, 64
5, 17040, Note_on_c, 3, 67, 19
5, 17088, Note_off_c, 3, 67, 64
5, 17160, Note_on_c, 3, 64, 19
5, 17208, Note_off_c, 3, 64, 64
5, 17280, Note_on_c, 3, 69, 22
5, 17340, Note_off_c, 3, 69, 64
5, 17340, Note_on_c, 3, 69, 22
5, 17400, Note_off_c, 3, 69, 64
5, 17400, Note_on_c, 3, 69, 22
5, 17460, Note_off_c, 3, 69, 64
5, 17460, Note_on_c, 3, 69, 22
5, 17520, Note_off_c, 3, 69, 64
5, 17520, Note_on_c, 3, 66, 22
5, 17640, Note_off_c, 3, 66, 64
5, 17640, Note_on_c, 3, 62, 22
5, 17760, Note_off_c, 3, 62, 64
5, 17760, Note_on_c, 3, 61, 22
5, 17820, Note_off_c, 3, 61, 64
5, 17820, Note_on_c, 3, 61, 22
5, 17880, Note_off_c, 3, 61, 64
5, 17880, Note_on_c, 3, 61, 22
5, 17940, Note_off_c, 3, 61, 64
5, 17940, Note_on_c, 3, 61, 22
5, 18000, Note_off_c, 3, 61, 64
5, 18000, Note_on_c, 3, 64, 22
5, 18060, Note_off_c, 3, 64, 64
5, 18060, Note_on_c, 3, 64, 22
5, 18120, Note_off_c, 3, 64, 64
5, 18120, Note_on_c, 3, 67, 22
5, 18180, Note_off_c, 3, 67, 64
5, 18180, Note_on_c, 3, 67, 49
5, 18240, Note_off_c, 3, 67, 64
5, 18240, Note_on_c, 3, 69, 22
5, 18300, Note_off_c, 3, 69, 64
5, 18300, Note_on_c, 3, 69, 22
5, 18360, Note_off_c, 3, 69, 64
5, 18360, Note_on_c, 3, 69, 22
5, 18420, Note_off_c, 3, 69, 64
5, 18420, Note_on_c, 3, 69, 22
5, 18480, Note_off_c, 3, 69, 64
5, 18480, Note_on_c, 3, 66, 22
5, 18540, Note_off_c, 3, 66, 64
5, 18540, Note_on_c, 3, 66, 22
5, 18600, Note_off_c, 3, 66, 64
5, 18600, Note_on_c, 3, 62, 22
5, 18660, Note_off_c, 3, 62, 64
5, 18660, Note_on_c, 3, 62, 22
5, 18720, Note_off_c, 3, 62, 64
5, 18720, Note_on_c, 3, 67, 22
5, 18780, Note_off_c, 3, 67, 64
5, 18780, Note_on_c, 3, 67, 22
5, 18840, Note_off_c, 3, 67, 64
5, 18840, Note_on_c, 3, 64, 22
5, 18900, Note_off_c, 3, 64, 64
5, 18900, Note_on_c, 3, 64, 22
5, 18960, Note_off_c, 3, 64, 64
5, 18960, Note_on_c, 3, 62, 22
5, 19020, Note_off_c, 3, 62, 64
5, 19020, Note_on_c, 3, 62, 22
5, 19080, Note_off_c, 3, 62, 64
5, 19080, Note_on_c, 3, 61, 22
5, 19140, Note_off_c, 3, 61, 64
5, 19140, Note_on_c, 3, 61, 22
5, 19200, Note_off_c, 3, 61, 64
5, 19200, Note_on_c, 3, 61, 26
5, 19320, Note_off_c, 3, 61, 64
5, 19320, Note_on_c, 3, 62, 28
5, 19560, Note_off_c, 3, 62, 64
5, 19560, Note_on_c, 3, 66, 31
5, 19680, Note_off_c, 3, 66, 64
5, 19680, Note_on_c, 3, 63, 32
5, 19800, Note_off_c, 3, 63, 64
5, 19800, Note_on_c, 3, 64, 34
5, 19920, Note_off_c, 3, 64, 64
5, 19920, Note_on_c, 3, 66, 35
5, 20040, Note_off_c, 3, 66, 64
5, 20040, Note_on_c, 3, 67, 36
5, 20160, Note_off_c, 3, 67, 64
5, 20160, Note_on_c, 3, 65, 38
5, 20280, Note_off_c, 3, 65, 64
5, 20280, Note_on_c, 3, 66, 39
5, 20400, Note_off_c, 3, 66, 64
5, 20400, Note_on_c, 3, 68, 41
5, 20520, Note_off_c, 3, 68, 64
5, 20520, Note_on_c, 3, 69, 42
5, 20640, Note_off_c, 3, 69, 64
5, 20640, Note_on_c, 3, 66, 44
5, 20760, Note_off_c, 3, 66, 64
5, 20760, Note_on_c, 3, 67, 45
5, 20880, Note_off_c, 3, 67, 64
5, 20880, Note_on_c, 3, 69, 47
5, 21000, Note_off_c, 3, 69, 64
5, 21000, Note_on_c, 3, 71, 48
5, 21120, Note_off_c, 3, 71, 64
5, 21120, Note_on_c, 3, 74, 100
5, 21120, Note_on_c, 3, 81, 100
5, 21143, Note_off_c, 3, 74, 64
5, 21168, Note_off_c, 3, 81, 64
5, 21240, Note_on_c, 3, 74, 102
5, 21240, Note_on_c, 3, 81, 102
5, 21480, Note_off_c, 3, 81, 64
5, 21480, Note_off_c, 3, 74, 64
5, 21480, Note_on_c, 3, 74, 105
5, 21480, Note_on_c, 3, 81, 105
5, 21720, Note_off_c, 3, 81, 64
5, 21720, Note_off_c, 3, 74, 64
5, 21720, Note_on_c, 3, 74, 108
5, 21720, Note_on_c, 3, 81, 108
5, 21960, Note_off_c, 3, 81, 64
5, 21960, Note_off_c, 3, 74, 64
5, 21960, Note_on_c, 3, 74, 100
5, 21960, Note_on_c, 3, 81, 100
5, 21983, Note_off_c, 3, 74, 64
5, 22008, Note_off_c, 3, 81, 64
5, 22080, Note_on_c, 3, 79, 100
5, 22140, Note_off_c, 3, 79, 64
5, 22140, Note_on_c, 3, 81, 100
5, 22200, Note_off_c, 3, 81, 64
5, 22200, Note_on_c, 3, 83, 100
5, 22260, Note_off_c, 3, 83, 64
5, 22260, Note_on_c, 3, 81, 100
5, 22320, Note_off_c, 3, 81, 64
5, 22320, Note_on_c, 3, 83, 100
5, 22440, Note_off_c, 3, 83, 64
5, 22560, Note_on_c, 3, 76, 100
5, 22620, Note_off_c, 3, 76, 64
5, 22620, Note_on_c, 3, 78, 100
5, 22680, Note_off_c, 3, 78, 64
5, 22680, Note_on_c, 3, 79, 100
5, 22740, Note_off_c, 3, 79, 64
5, 22740, Note_on_c, 3, 78, 100
5, 22800, Note_off_c, 3, 78, 64
5, 22800, Note_on_c, 3, 79, 100
5, 22848, Note_off_c, 3, 79, 64
5, 22920, Note_on_c, 3, 76, 100
5, 22968, Note_off_c, 3, 76, 64
5, 23040, Note_on_c, 3, 74, 100
5, 23088, Note_off_c, 3, 74, 64
5, 23160, Note_on_c, 3, 81, 100
5, 23220, Note_off_c, 3, 81, 64
5, 23220, Note_on_c, 3, 78, 100
5, 23280, Note_off_c, 3, 78, 64
5, 23280, Note_on_c, 3, 74, 100
5, 23328, Note_off_c, 3, 74, 64
5, 23400, Note_on_c, 3, 78, 100
5, 23460, Note_off_c, 3, 78, 64
5, 23460, Note_on_c, 3, 74, 100
5, 23520, Note_off_c, 3, 74, 64
5, 23520, Note_on_c, 3, 69, 100
5, 23568, Note_off_c, 3, 69, 64
5, 23640, Note_on_c, 3, 69, 100
5, 23700, Note_off_c, 3, 69, 64
5, 23700, Note_on_c, 3, 66, 100
5, 23760, Note_off_c, 3, 66, 64
5, 23760, Note_on_c, 3, 67, 100
5, 23808, Note_off_c, 3, 67, 64
5, 23880, Note_on_c, 3, 67, 100
5, 23940, Note_off_c, 3, 67, 64
5, 23940, Note_on_c, 3, 64, 100
5, 24000, Note_off_c, 3, 64, 64
5, 24000, Note_on_c, 3, 62, 100
5, 24240, Note_off_c, 3, 62, 64
5, 25200, Note_on_c, 3, 66, 100
5, 25248, Note_off_c, 3, 66, 64
5, 25320, Note_on_c, 3, 62, 100
5, 25368, Note_off_c, 3, 62, 64
5, 25440, Note_on_c, 3, 74, 100
5, 25620, Note_off_c, 3, 74, 64
5, 25620, Note_on_c, 3, 78, 100
5, 25680, Note_off_c, 3, 78, 64
5, 25680, Note_on_c, 3, 78, 100
5, 25740, Note_off_c, 3, 78, 64
5, 25740, Note_on_c, 3, 76, 100
5, 25800, Note_off_c, 3, 76, 64
5, 25800, Note_on_c, 3, 74, 100
5, 25860, Note_off_c, 3, 74, 64
5, 25860, Note_on_c, 3, 73, 100
5, 25920, Note_off_c, 3, 73, 64
5, 25920, Note_on_c, 3, 74, 100
5, 26040, Note_off_c, 3, 74, 64
5, 27120, Note_on_c, 3, 66, 100
5, 27168, Note_off_c, 3, 66, 64
5, 27240, Note_on_c, 3, 62, 100
5, 27288, Note_off_c, 3, 62, 64
5, 27360, Note_on_c, 3, 74, 100
5, 27420, Note_off_c, 3, 74, 64
5, 27420, Note_on_c, 3, 78, 100
5, 27480, Note_off_c, 3, 78, 64
5, 27480, Note_on_c, 3, 74, 100
5, 27540, Note_off_c, 3, 74, 64
5, 27540, Note_on_c, 3, 78, 100
5, 27600, Note_off_c, 3, 78, 64
5, 27600, Note_on_c, 3, 78, 100
5, 27660, Note_off_c, 3, 78, 64
5, 27660, Note_on_c, 3, 76, 100
5, 27720, Note_off_c, 3, 76, 64
5, 27720, Note_on_c, 3, 74, 100
5, 27780, Note_off_c, 3, 74, 64
5, 27780, Note_on_c, 3, 73, 100
5, 27840, Note_off_c, 3, 73, 64
5, 27840, Note_on_c, 3, 74, 100
5, 27960, Note_off_c, 3, 74, 64
5, 27960, Note_on_c, 3, 78, 100
5, 28020, Note_off_c, 3, 78, 64
5, 28020, Note_on_c, 3, 74, 100
5, 28080, Note_off_c, 3, 74, 64
5, 28080, Note_on_c, 3, 81, 100
5, 28140, Note_off_c, 3, 81, 64
5, 28140, Note_on_c, 3, 78, 100
5, 28200, Note_off_c, 3, 78, 64
5, 28200, Note_on_c, 3, 81, 100
5, 28260, Note_off_c, 3, 81, 64
5, 28260, Note_on_c, 3, 78, 100
5, 28320, Note_off_c, 3, 78, 64
5, 28320, Note_on_c, 3, 74, 100
5, 28380, Note_off_c, 3, 74, 64
5, 28380, Note_on_c, 3, 78, 100
5, 28440, Note_off_c, 3, 78, 64
5, 28440, Note_on_c, 3, 74, 100
5, 28500, Note_off_c, 3, 74, 64
5, 28500, Note_on_c, 3, 78, 100
5, 28560, Note_off_c, 3, 78, 64
5, 28560, Note_on_c, 3, 78, 100
5, 28620, Note_off_c, 3, 78, 64
5, 28620, Note_on_c, 3, 76, 100
5, 28680, Note_off_c, 3, 76, 64
5, 28680, Note_on_c, 3, 74, 100
5, 28740, Note_off_c, 3, 74, 64
5, 28740, Note_on_c, 3, 73, 100
5, 28800, Note_off_c, 3, 73, 64
5, 28800, Note_on_c, 3, 74, 100
5, 28848, Note_off_c, 3, 74, 64
5, 28920, Note_on_c, 3, 74, 100
5, 28968, Note_off_c, 3, 74, 64
5, 29040, Note_on_c, 3, 74, 100
5, 29070, Note_off_c, 3, 74, 64
5, 29070, Note_on_c, 3, 76, 100
5, 29100, Note_off_c, 3, 76, 64
5, 29100, Note_on_c, 3, 74, 100
5, 29130, Note_off_c, 3, 74, 64
5, 29130, Note_on_c, 3, 76, 100
5, 29160, Note_off_c, 3, 76, 64
5, 29160, Note_on_c, 3, 74, 100
5, 29190, Note_off_c, 3, 74, 64
5, 29190, Note_on_c, 3, 76, 100
5, 29220, Note_off_c, 3, 76, 64
5, 29220, Note_on_c, 3, 73, 100
5, 29250, Note_off_c, 3, 73, 64
5, 29250, Note_on_c, 3, 74, 100
5, 29280, Note_off_c, 3, 74, 64
5, 29280, Note_on_c, 3, 78, 100
5, 29328, Note_off_c, 3, 78, 64
5, 29400, Note_on_c, 3, 74, 100
5, 29448, Note_off_c, 3, 74, 64
5, 29520, Note_on_c, 3, 69, 100
5, 29568, Note_off_c, 3, 69, 64
5, 29640, Note_on_c, 3, 66, 100
5, 29688, Note_off_c, 3, 66, 64
5, 29760, Note_on_c, 3, 62, 100
5, 30000, Note_off_c, 3, 62, 64
5, 30720, Note_on_c, 3, 57, 62
5, 30720, Note_on_c, 3, 66, 62
5, 30960, Note_off_c, 3, 66, 64
5, 30960, Note_off_c, 3, 57, 64
5, 30960, Note_on_c, 3, 57, 36
5, 30960, Note_on_c, 3, 66, 36
5, 31440, Note_off_c, 3, 66, 64
5, 31440, Note_off_c, 3, 57, 64
5, 31440, Note_on_c, 3, 64, 36
5, 31500, Note_off_c, 3, 64, 64
5, 31500, Note_on_c, 3, 66, 36
5, 31560, Note_off_c, 3, 66, 64
5, 31560, Note_on_c, 3, 64, 36
5, 31620, Note_off_c, 3, 64, 64
5, 31620, Note_on_c, 3, 66, 36
5, 31680, Note_off_c, 3, 66, 64
5, 31680, Note_on_c, 3, 71, 62
5, 31920, Note_off_c, 3, 71, 64
5, 31920, Note_on_c, 3, 67, 36
5, 32100, Note_off_c, 3, 67, 64
5, 32100, Note_on_c, 3, 69, 36
5, 32160, Note_off_c, 3, 69, 64
5, 32160, Note_on_c, 3, 71, 36
5, 32400, Note_off_c, 3, 71, 64
5, 32400, Note_on_c, 3, 73, 36
5, 32640, Note_off_c, 3, 73, 64
5, 32640, Note_on_c, 3, 73, 62
5, 32760, Note_off_c, 3, 73, 64
5, 32760, Note_on_c, 3, 74, 36
5, 32808, Note_off_c, 3, 74, 64
5, 32880, Note_on_c, 3, 74, 36
5, 33360, Note_off_c, 3, 74, 64
5, 33360, Note_on_c, 3, 76, 36
5, 33420, Note_off_c, 3, 76, 64
5, 33420, Note_on_c, 3, 74, 36
5, 33480, Note_off_c, 3, 74, 64
5, 33480, Note_on_c, 3, 76, 36
5, 33540, Note_off_c, 3, 76, 64
5, 33540, Note_on_c, 3, 74, 36
5, 33600, Note_off_c, 3, 74, 64
5, 33600, Note_on_c, 3, 79, 62
5, 33840, Note_off_c, 3, 79, 64
5, 33840, Note_on_c, 3, 79, 36
5, 34320, Note_off_c, 3, 79, 64
5, 34320, Note_on_c, 3, 79, 36
5, 34560, Note_off_c, 3, 79, 64
5, 34560, Note_on_c, 3, 78, 36
5, 34608, Note_off_c, 3, 78, 64
5, 34680, Note_on_c, 3, 74, 36
5, 34728, Note_off_c, 3, 74, 64
5, 34800, Note_on_c, 3, 74, 36
5, 34848, Note_off_c, 3, 74, 64
5, 34920, Note_on_c, 3, 74, 36
5, 34968, Note_off_c, 3, 74, 64
5, 35040, Note_on_c, 3, 74, 36
5, 35088, Note_off_c, 3, 74, 64
5, 35160, Note_on_c, 3, 74, 36
5, 35208, Note_off_c, 3, 74, 64
5, 35280, Note_on_c, 3, 74, 36
5, 35328, Note_off_c, 3, 74, 64
5, 35400, Note_on_c, 3, 74, 36
5, 35448, Note_off_c, 3, 74, 64
5, 35520, Note_on_c, 3, 73, 36
5, 35568, Note_off_c, 3, 73, 64
5, 35640, Note_on_c, 3, 73, 36
5, 35688, Note_off_c, 3, 73, 64
5, 35760, Note_on_c, 3, 73, 36
5, 35808, Note_off_c, 3, 73, 64
5, 35880, Note_on_c, 3, 73, 36
5, 35928, Note_off_c, 3, 73, 64
5, 36000, Note_on_c, 3, 73, 36
5, 36048, Note_off_c, 3, 73, 64
5, 36120, Note_on_c, 3, 73, 36
5, 36168, Note_off_c, 3, 73, 64
5, 36240, Note_on_c, 3, 73, 36
5, 36288, Note_off_c, 3, 73, 64
5, 36360, Note_on_c, 3, 73, 36
5, 36408, Note_off_c, 3, 73, 64
5, 36480, Note_on_c, 3, 71, 36
5, 36528, Note_off_c, 3, 71, 64
5, 36600, Note_on_c, 3, 71, 36
5, 36648, Note_off_c, 3, 71, 64
5, 36720, Note_on_c, 3, 71, 36
5, 36768, Note_off_c, 3, 71, 64
5, 36840, Note_on_c, 3, 71, 36
5, 36888, Note_off_c, 3, 71, 64
5, 36960, Note_on_c, 3, 71, 36
5, 37008, Note_off_c, 3, 71, 64
5, 37080, Note_on_c, 3, 71, 36
5, 37128, Note_off_c, 3, 71, 64
5, 37200, Note_on_c, 3, 71, 36
5, 37248, Note_off_c, 3, 71, 64
5, 37320, Note_on_c, 3, 71, 36
5, 37368, Note_off_c, 3, 71, 64
5, 37440, Note_on_c, 3, 69, 36
5, 37488, Note_off_c, 3, 69, 64
5, 37560, Note_on_c, 3, 69, 36
5, 37608, Note_off_c, 3, 69, 64
5, 37680, Note_on_c, 3, 69, 36
5, 37728, Note_off_c, 3, 69, 64
5, 37800, Note_on_c, 3, 69, 36
5, 37848, Note_off_c, 3, 69, 64
5, 37920, Note_on_c, 3, 69, 36
5, 37968, Note_off_c, 3, 69, 64
5, 38040, Note_on_c, 3, 69, 36
5, 38088, Note_off_c, 3, 69, 64
5, 38160, Note_on_c, 3, 69, 36
5, 38208, Note_off_c, 3, 69, 64
5, 38280, Note_on_c, 3, 69, 36
5, 38328, Note_off_c, 3, 69, 64
5, 38400, Note_on_c, 3, 67, 36
5, 38448, Note_off_c, 3, 67, 64
5, 38520, Note_on_c, 3, 67, 36
5, 38568, Note_off_c, 3, 67, 64
5, 38640, Note_on_c, 3, 67, 36
5, 38688, Note_off_c, 3, 67, 64
5, 38760, Note_on_c, 3, 67, 36
5, 38808, Note_off_c, 3, 67, 64
5, 38880, Note_on_c, 3, 67, 36
5, 38928, Note_off_c, 3, 67, 64
5, 39000, Note_on_c, 3, 67, 36
5, 39048, Note_off_c, 3, 67, 64
5, 39120, Note_on_c, 3, 67, 36
5, 39168, Note_off_c, 3, 67, 64
5, 39240, Note_on_c, 3, 67, 36
5, 39288, Note_off_c, 3, 67, 64
5, 39360, Note_on_c, 3, 66, 36
5, 39408, Note_off_c, 3, 66, 64
5, 39480, Note_on_c, 3, 66, 36
5, 39528, Note_off_c, 3, 66, 64
5, 39600, Note_on_c, 3, 66, 36
5, 39648, Note_off_c, 3, 66, 64
5, 39720, Note_on_c, 3, 66, 36
5, 39768, Note_off_c, 3, 66, 64
5, 39840, Note_on_c, 3, 66, 36
5, 39888, Note_off_c, 3, 66, 64
5, 39960, Note_on_c, 3, 66, 36
5, 40008, Note_off_c, 3, 66, 64
5, 40080, Note_on_c, 3, 66, 36
5, 40128, Note_off_c, 3, 66, 64
5, 40200, Note_on_c, 3, 66, 36
5, 40248, Note_off_c, 3, 66, 64
5, 40320, Note_on_c, 3, 67, 36
5, 40800, Note_off_c, 3, 67, 64
5, 40800, Note_on_c, 3, 61, 36
5, 40800, Note_on_c, 3, 64, 36
5, 41280, Note_off_c, 3, 64, 64
5, 41280, Note_off_c, 3, 61, 64
5, 41280, Note_on_c, 3, 62, 36
5, 41520, Note_off_c, 3, 62, 64
5, 41520, Note_on_c, 3, 61, 36
5, 41760, Note_off_c, 3, 61, 64
5, 41760, Note_on_c, 3, 62, 36
5, 42000, Note_off_c, 3, 62, 64
5, 42000, Note_on_c, 3, 67, 36
5, 42240, Note_off_c, 3, 67, 64
5, 42240, Note_on_c, 3, 66, 36
5, 42480, Note_off_c, 3, 66, 64
5, 42480, Note_on_c, 3, 61, 36
5, 42720, Note_off_c, 3, 61, 64
5, 42720, Note_on_c, 3, 62, 36
5, 42960, Note_off_c, 3, 62, 64
5, 42960, Note_on_c, 3, 67, 36
5, 43200, Note_off_c, 3, 67, 64
5, 43200, Note_on_c, 3, 66, 36
5, 43248, Note_off_c, 3, 66, 64
5, 43320, Note_on_c, 3, 66, 36
5, 43368, Note_off_c, 3, 66, 64
5, 43440, Note_on_c, 3, 69, 36
5, 43488, Note_off_c, 3, 69, 64
5, 43560, Note_on_c, 3, 69, 36
5, 43608, Note_off_c, 3, 69, 64
5, 43680, Note_on_c, 3, 71, 36
5, 43728, Note_off_c, 3, 71, 64
5, 43800, Note_on_c, 3, 71, 36
5, 43848, Note_off_c, 3, 71, 64
5, 43920, Note_on_c, 3, 69, 36
5, 43968, Note_off_c, 3, 69, 64
5, 44040, Note_on_c, 3, 67, 36
5, 44088, Note_off_c, 3, 67, 64
5, 44160, Note_on_c, 3, 66, 36
5, 44280, Note_off_c, 3, 66, 64
5, 44400, Note_on_c, 3, 66, 100
5, 44448, Note_off_c, 3, 66, 64
5, 44520, Note_on_c, 3, 62, 100
5, 44568, Note_off_c, 3, 62, 64
5, 44640, Note_on_c, 3, 74, 100
5, 44820, Note_off_c, 3, 74, 64
5, 44820, Note_on_c, 3, 78, 100
5, 44880, Note_off_c, 3, 78, 64
5, 44880, Note_on_c, 3, 78, 100
5, 44940, Note_off_c, 3, 78, 64
5, 44940, Note_on_c, 3, 76, 100
5, 45000, Note_off_c, 3, 76, 64
5, 45000, Note_on_c, 3, 74, 100
5, 45060, Note_off_c, 3, 74, 64
5, 45060, Note_on_c, 3, 73, 100
5, 45120, Note_off_c, 3, 73, 64
5, 45120, Note_on_c, 3, 74, 100
5, 45240, Note_off_c, 3, 74, 64
5, 45240, Note_on_c, 3, 78, 100
5, 45300, Note_off_c, 3, 78, 64
5, 45300, Note_on_c, 3, 74, 100
5, 45360, Note_off_c, 3, 74, 64
5, 45360, Note_on_c, 3, 81, 100
5, 45420, Note_off_c, 3, 81, 64
5, 45420, Note_on_c, 3, 78, 100
5, 45480, Note_off_c, 3, 78, 64
5, 45480, Note_on_c, 3, 81, 100
5, 45540, Note_off_c, 3, 81, 64
5, 45540, Note_on_c, 3, 78, 100
5, 45600, Note_off_c, 3, 78, 64
5, 45600, Note_on_c, 3, 74, 100
5, 45660, Note_off_c, 3, 74, 64
5, 45660, Note_on_c, 3, 78, 100
5, 45720, Note_off_c, 3, 78, 64
5, 45720, Note_on_c, 3, 74, 100
5, 45780, Note_off_c, 3, 74, 64
5, 45780, Note_on_c, 3, 78, 100
5, 45840, Note_off_c, 3, 78, 64
5, 45840, Note_on_c, 3, 78, 100
5, 45900, Note_off_c, 3, 78, 64
5, 45900, Note_on_c, 3, 76, 100
5, 45960, Note_off_c, 3, 76, 64
5, 45960, Note_on_c, 3, 74, 100
5, 46020, Note_off_c, 3, 74, 64
5, 46020, Note_on_c, 3, 73, 100
5, 46080, Note_off_c, 3, 73, 64
5, 46080, Note_on_c, 3, 74, 100
5, 46128, Note_off_c, 3, 74, 64
5, 46200, Note_on_c, 3, 74, 100
5, 46248, Note_off_c, 3, 74, 64
5, 46320, Note_on_c, 3, 74, 100
5, 46350, Note_off_c, 3, 74, 64
5, 46350, Note_on_c, 3, 76, 100
5, 46380, Note_off_c, 3, 76, 64
5, 46380, Note_on_c, 3, 74, 100
5, 46410, Note_off_c, 3, 74, 64
5, 46410, Note_on_c, 3, 76, 100
5, 46440, Note_off_c, 3, 76, 64
5, 46440, Note_on_c, 3, 74, 100
5, 46470, Note_off_c, 3, 74, 64
5, 46470, Note_on_c, 3, 76, 100
5, 46500, Note_off_c, 3, 76, 64
5, 46500, Note_on_c, 3, 73, 100
5, 46530, Note_off_c, 3, 73, 64
5, 46530, Note_on_c, 3, 74, 100
5, 46560, Note_off_c, 3, 74, 64
5, 46560, Note_on_c, 3, 66, 100
5, 46608, Note_off_c, 3, 66, 64
5, 46680, Note_on_c, 3, 62, 100
5, 46728, Note_off_c, 3, 62, 64
5, 46800, Note_on_c, 3, 57, 100
5, 46848, Note_off_c, 3, 57, 64
5, 46920, Note_on_c, 3, 66, 100
5, 46968, Note_off_c, 3, 66, 64
5, 48000, Note_on_c, 3, 69, 36
5, 50160, Note_off_c, 3, 69, 64
5, 50880, Note_on_c, 3, 69, 36
5, 53040, Note_off_c, 3, 69, 64
5, 53760, Note_on_c, 3, 74, 23
5, 53808, Note_off_c, 3, 74, 64
5, 53880, Note_on_c, 3, 74, 23
5, 53928, Note_off_c, 3, 74, 64
5, 54000, Note_on_c, 3, 74, 23
5, 54048, Note_off_c, 3, 74, 64
5, 54120, Note_on_c, 3, 74, 23
5, 54168, Note_off_c, 3, 74, 64
5, 54240, Note_on_c, 3, 73, 23
5, 54288, Note_off_c, 3, 73, 64
5, 54360, Note_on_c, 3, 73, 23
5, 54408, Note_off_c, 3, 73, 64
5, 54480, Note_on_c, 3, 73, 23
5, 54528, Note_off_c, 3, 73, 64
5, 54600, Note_on_c, 3, 73, 23
5, 54648, Note_off_c, 3, 73, 64
5, 54720, Note_on_c, 3, 68, 23
5, 54768, Note_off_c, 3, 68, 64
5, 54840, Note_on_c, 3, 68, 23
5, 54888, Note_off_c, 3, 68, 64
5, 54960, Note_on_c, 3, 68, 23
5, 55008, Note_off_c, 3, 68, 64
5, 55080, Note_on_c, 3, 68, 23
5, 55128, Note_off_c, 3, 68, 64
5, 55200, Note_on_c, 3, 69, 23
5, 55248, Note_off_c, 3, 69, 64
5, 55320, Note_on_c, 3, 69, 23
5, 55368, Note_off_c, 3, 69, 64
5, 55440, Note_on_c, 3, 69, 23
5, 55488, Note_off_c, 3, 69, 64
5, 55560, Note_on_c, 3, 73, 23
5, 55608, Note_off_c, 3, 73, 64
5, 55680, Note_on_c, 3, 74, 23
5, 55728, Note_off_c, 3, 74, 64
5, 55800, Note_on_c, 3, 74, 23
5, 55848, Note_off_c, 3, 74, 64
5, 55920, Note_on_c, 3, 74, 23
5, 55968, Note_off_c, 3, 74, 64
5, 56040, Note_on_c, 3, 74, 23
5, 56088, Note_off_c, 3, 74, 64
5, 56160, Note_on_c, 3, 73, 23
5, 56208, Note_off_c, 3, 73, 64
5, 56280, Note_on_c, 3, 73, 23
5, 56328, Note_off_c, 3, 73, 64
5, 56400, Note_on_c, 3, 73, 23
5, 56448, Note_off_c, 3, 73, 64
5, 56520, Note_on_c, 3, 73, 23
5, 56568, Note_off_c, 3, 73, 64
5, 56640, Note_on_c, 3, 68, 23
5, 56688, Note_off_c, 3, 68, 64
5, 56760, Note_on_c, 3, 68, 23
5, 56808, Note_off_c, 3, 68, 64
5, 56880, Note_on_c, 3, 68, 23
5, 56928, Note_off_c, 3, 68, 64
5, 57000, Note_on_c, 3, 68, 23
5, 57048, Note_off_c, 3, 68, 64
5, 57120, Note_on_c, 3, 69, 23
5, 57168, Note_off_c, 3, 69, 64
5, 57240, Note_on_c, 3, 69, 23
5, 57360, Note_off_c, 3, 69, 64
5, 57360, Note_on_c, 3, 71, 23
5, 57480, Note_off_c, 3, 71, 64
5, 57480, Note_on_c, 3, 73, 23
5, 57528, Note_off_c, 3, 73, 64
5, 57600, Note_on_c, 3, 74, 23
5, 57648, Note_off_c, 3, 74, 64
5, 57720, Note_on_c, 3, 74, 23
5, 57768, Note_off_c, 3, 74, 64
5, 57840, Note_on_c, 3, 74, 23
5, 57888, Note_off_c, 3, 74, 64
5, 57960, Note_on_c, 3, 74, 23
5, 58008, Note_off_c, 3, 74, 64
5, 58080, Note_on_c, 3, 76, 36
5, 58200, Note_off_c, 3, 76, 64
5, 58200, Note_on_c, 3, 76, 23
5, 58248, Note_off_c, 3, 76, 64
5, 58320, Note_on_c, 3, 76, 23
5, 58368, Note_off_c, 3, 76, 64
5, 58440, Note_on_c, 3, 76, 23
5, 58488, Note_off_c, 3, 76, 64
5, 58560, Note_on_c, 3, 74, 23
5, 58608, Note_off_c, 3, 74, 64
5, 58680, Note_on_c, 3, 74, 23
5, 58728, Note_off_c, 3, 74, 64
5, 58800, Note_on_c, 3, 74, 23
5, 58848, Note_off_c, 3, 74, 64
5, 58920, Note_on_c, 3, 74, 23
5, 58968, Note_off_c, 3, 74, 64
5, 59040, Note_on_c, 3, 76, 36
5, 59160, Note_off_c, 3, 76, 64
5, 59160, Note_on_c, 3, 76, 23
5, 59208, Note_off_c, 3, 76, 64
5, 59280, Note_on_c, 3, 76, 23
5, 59328, Note_off_c, 3, 76, 64
5, 59400, Note_on_c, 3, 76, 23
5, 59448, Note_off_c, 3, 76, 64
5, 59520, Note_on_c, 3, 74, 23
5, 59568, Note_off_c, 3, 74, 64
5, 59640, Note_on_c, 3, 74, 23
5, 59688, Note_off_c, 3, 74, 64
5, 59760, Note_on_c, 3, 74, 23
5, 59808, Note_off_c, 3, 74, 64
5, 59880, Note_on_c, 3, 74, 23
5, 59928, Note_off_c, 3, 74, 64
5, 60000, Note_on_c, 3, 62, 23
5, 60048, Note_off_c, 3, 62, 64
5, 60120, Note_on_c, 3, 62, 23
5, 60168, Note_off_c, 3, 62, 64
5, 60240, Note_on_c, 3, 63, 23
5, 60288, Note_off_c, 3, 63, 64
5, 60360, Note_on_c, 3, 63, 23
5, 60408, Note_off_c, 3, 63, 64
5, 60480, Note_on_c, 3, 64, 23
5, 60576, Note_off_c, 3, 64, 64
5, 61200, Note_on_c, 3, 59, 23
5, 61296, Note_off_c, 3, 59, 64
5, 61440, Note_on_c, 3, 59, 23
5, 61488, Note_off_c, 3, 59, 64
5, 61560, Note_on_c, 3, 59, 23
5, 61608, Note_off_c, 3, 59, 64
5, 61680, Note_on_c, 3, 59, 23
5, 61728, Note_off_c, 3, 59, 64
5, 61800, Note_on_c, 3, 59, 23
5, 61848, Note_off_c, 3, 59, 64
5, 61920, Note_on_c, 3, 59, 23
5, 62160, Note_off_c, 3, 59, 64
5, 62400, Note_on_c, 3, 68, 23
5, 62400, Note_on_c, 3, 71, 23
5, 62423, Note_off_c, 3, 68, 64
5, 62448, Note_off_c, 3, 71, 64
5, 62520, Note_on_c, 3, 68, 23
5, 62520, Note_on_c, 3, 71, 23
5, 62543, Note_off_c, 3, 68, 64
5, 62568, Note_off_c, 3, 71, 64
5, 62640, Note_on_c, 3, 68, 23
5, 62640, Note_on_c, 3, 71, 23
5, 62663, Note_off_c, 3, 68, 64
5, 62688, Note_off_c, 3, 71, 64
5, 62760, Note_on_c, 3, 68, 23
5, 62760, Note_on_c, 3, 71, 23
5, 62783, Note_off_c, 3, 68, 64
5, 62808, Note_off_c, 3, 71, 64
5, 62880, Note_on_c, 3, 68, 23
5, 62880, Note_on_c, 3, 71, 23
5, 63120, Note_off_c, 3, 71, 64
5, 63120, Note_off_c, 3, 68, 64
5, 63360, Note_on_c, 3, 68, 23
5, 63360, Note_on_c, 3, 71, 23
5, 63480, Note_off_c, 3, 71, 64
5, 63480, Note_off_c, 3, 68, 64
5, 63600, Note_on_c, 3, 68, 26
5, 63600, Note_on_c, 3, 71, 26
5, 63720, Note_off_c, 3, 71, 64
5, 63720, Note_off_c, 3, 68, 64
5, 63840, Note_on_c, 3, 68, 32
5, 63840, Note_on_c, 3, 71, 32
5, 63960, Note_off_c, 3, 71, 64
5, 63960, Note_off_c, 3, 68, 64
5, 64080, Note_on_c, 3, 68, 39
5, 64080, Note_on_c, 3, 71, 39
5, 64200, Note_off_c, 3, 71, 64
5, 64200, Note_off_c, 3, 68, 64
5, 64320, Note_on_c, 3, 69, 45
5, 64440, Note_off_c, 3, 69, 64
5, 64560, Note_on_c, 3, 69, 45
5, 64620, Note_off_c, 3, 69, 64
5, 64620, Note_on_c, 3, 73, 45
5, 64680, Note_off_c, 3, 73, 64
5, 64680, Note_on_c, 3, 71, 45
5, 64740, Note_off_c, 3, 71, 64
5, 64740, Note_on_c, 3, 74, 45
5, 64800, Note_off_c, 3, 74, 64
5, 64800, Note_on_c, 3, 73, 45
5, 64920, Note_off_c, 3, 73, 64
5, 65280, Note_on_c, 3, 69, 45
5, 65400, Note_off_c, 3, 69, 64
5, 65520, Note_on_c, 3, 69, 45
5, 65580, Note_off_c, 3, 69, 64
5, 65580, Note_on_c, 3, 74, 45
5, 65640, Note_off_c, 3, 74, 64
5, 65640, Note_on_c, 3, 73, 45
5, 65700, Note_off_c, 3, 73, 64
5, 65700, Note_on_c, 3, 76, 45
5, 65760, Note_off_c, 3, 76, 64
5, 65760, Note_on_c, 3, 74, 45
5, 65880, Note_off_c, 3, 74, 64
5, 66240, Note_on_c, 3, 69, 45
5, 66360, Note_off_c, 3, 69, 64
5, 66480, Note_on_c, 3, 69, 45
5, 66540, Note_off_c, 3, 69, 64
5, 66540, Note_on_c, 3, 76, 45
5, 66600, Note_off_c, 3, 76, 64
5, 66600, Note_on_c, 3, 74, 45
5, 66660, Note_off_c, 3, 74, 64
5, 66660, Note_on_c, 3, 78, 45
5, 66720, Note_off_c, 3, 78, 64
5, 66720, Note_on_c, 3, 76, 45
5, 66840, Note_off_c, 3, 76, 64
5, 67260, Note_on_c, 3, 74, 45
5, 67320, Note_off_c, 3, 74, 64
5, 67320, Note_on_c, 3, 73, 45
5, 67380, Note_off_c, 3, 73, 64
5, 67380, Note_on_c, 3, 74, 45
5, 67440, Note_off_c, 3, 74, 64
5, 67440, Note_on_c, 3, 76, 45
5, 67500, Note_off_c, 3, 76, 64
5, 67500, Note_on_c, 3, 74, 45
5, 67560, Note_off_c, 3, 74, 64
5, 67560, Note_on_c, 3, 73, 45
5, 67620, Note_off_c, 3, 73, 64
5, 67620, Note_on_c, 3, 74, 45
5, 67680, Note_off_c, 3, 74, 64
5, 67740, Note_on_c, 3, 73, 45
5, 67800, Note_off_c, 3, 73, 64
5, 67800, Note_on_c, 3, 71, 45
5, 67860, Note_off_c, 3, 71, 64
5, 67860, Note_on_c, 3, 73, 45
5, 67920, Note_off_c, 3, 73, 64
5, 67920, Note_on_c, 3, 74, 45
5, 67980, Note_off_c, 3, 74, 64
5, 67980, Note_on_c, 3, 73, 45
5, 68040, Note_off_c, 3, 73, 64
5, 68040, Note_on_c, 3, 71, 45
5, 68100, Note_off_c, 3, 71, 64
5, 68100, Note_on_c, 3, 73, 45
5, 68160, Note_off_c, 3, 73, 64
5, 68160, Note_on_c, 3, 72, 49
5, 68208, Note_off_c, 3, 72, 64
5, 68280, Note_on_c, 3, 69, 23
5, 68328, Note_off_c, 3, 69, 64
5, 68400, Note_on_c, 3, 69, 23
5, 68448, Note_off_c, 3, 69, 64
5, 68520, Note_on_c, 3, 69, 23
5, 68568, Note_off_c, 3, 69, 64
5, 68640, Note_on_c, 3, 69, 23
5, 68760, Note_off_c, 3, 69, 64
5, 68760, Note_on_c, 3, 71, 23
5, 68808, Note_off_c, 3, 71, 64
5, 68880, Note_on_c, 3, 71, 23
5, 69000, Note_off_c, 3, 71, 64
5, 69000, Note_on_c, 3, 72, 23
5, 69048, Note_off_c, 3, 72, 64
5, 69240, Note_on_c, 3, 71, 23
5, 69288, Note_off_c, 3, 71, 64
5, 69360, Note_on_c, 3, 71, 23
5, 69408, Note_off_c, 3, 71, 64
5, 69480, Note_on_c, 3, 71, 23
5, 69528, Note_off_c, 3, 71, 64
5, 69720, Note_on_c, 3, 68, 23
5, 69768, Note_off_c, 3, 68, 64
5, 69840, Note_on_c, 3, 68, 23
5, 69888, Note_off_c, 3, 68, 64
5, 69960, Note_on_c, 3, 68, 23
5, 70008, Note_off_c, 3, 68, 64
5, 70200, Note_on_c, 3, 69, 23
5, 70248, Note_off_c, 3, 69, 64
5, 70440, Note_on_c, 3, 73, 26
5, 70488, Note_off_c, 3, 73, 64
5, 70680, Note_on_c, 3, 74, 32
5, 70728, Note_off_c, 3, 74, 64
5, 70920, Note_on_c, 3, 71, 39
5, 70968, Note_off_c, 3, 71, 64
5, 71040, Note_on_c, 3, 69, 42
5, 71088, Note_off_c, 3, 69, 64
5, 71160, Note_on_c, 3, 69, 45
5, 71208, Note_off_c, 3, 69, 64
5, 71280, Note_on_c, 3, 69, 48
5, 71328, Note_off_c, 3, 69, 64
5, 71400, Note_on_c, 3, 69, 51
5, 71448, Note_off_c, 3, 69, 64
5, 71520, Note_on_c, 3, 71, 54
5, 71640, Note_off_c, 3, 71, 64
5, 71640, Note_on_c, 3, 68, 58
5, 71688, Note_off_c, 3, 68, 64
5, 71760, Note_on_c, 3, 68, 61
5, 71880, Note_off_c, 3, 68, 64
5, 71880, Note_on_c, 3, 62, 64
5, 71928, Note_off_c, 3, 62, 64
5, 72000, Note_on_c, 3, 61, 103
5, 72090, Note_on_c, 3, 74, 103
5, 72120, Note_off_c, 3, 74, 64
5, 72120, Note_off_c, 3, 61, 64
5, 72120, Note_on_c, 3, 73, 103
5, 72180, Note_off_c, 3, 73, 64
5, 72180, Note_on_c, 3, 71, 103
5, 72240, Note_off_c, 3, 71, 64
5, 72240, Note_on_c, 3, 73, 103
5, 72288, Note_off_c, 3, 73, 64
5, 72360, Note_on_c, 3, 76, 103
5, 72408, Note_off_c, 3, 76, 64
5, 72480, Note_on_c, 3, 81, 103
5, 72570, Note_on_c, 3, 83, 103
5, 72600, Note_off_c, 3, 83, 64
5, 72600, Note_off_c, 3, 81, 64
5, 72600, Note_on_c, 3, 81, 103
5, 72660, Note_off_c, 3, 81, 64
5, 72660, Note_on_c, 3, 80, 103
5, 72720, Note_off_c, 3, 80, 64
5, 72720, Note_on_c, 3, 81, 103
5, 72768, Note_off_c, 3, 81, 64
5, 72840, Note_on_c, 3, 81, 103
5, 72888, Note_off_c, 3, 81, 64
5, 72960, Note_on_c, 3, 80, 103
5, 73103, Note_off_c, 3, 80, 64
5, 73200, Note_on_c, 3, 64, 103
5, 73200, Note_on_c, 3, 71, 103
5, 73200, Note_on_c, 3, 80, 103
5, 73343, Note_off_c, 3, 80, 64
5, 73343, Note_off_c, 3, 71, 64
5, 73343, Note_off_c, 3, 64, 64
5, 73440, Note_on_c, 3, 64, 103
5, 73800, Note_off_c, 3, 64, 64
5, 74880, Note_on_c, 3, 61, 36
5, 74880, Note_on_c, 3, 64, 36
5, 75840, Note_off_c, 3, 64, 64
5, 75840, Note_off_c, 3, 61, 64
5, 75840, Note_on_c, 3, 62, 36
5, 76320, Note_off_c, 3, 62, 64
5, 76320, Note_on_c, 3, 59, 36
5, 76560, Note_off_c, 3, 59, 64
5, 76560, Note_on_c, 3, 64, 36
5, 76800, Note_off_c, 3, 64, 64
5, 76800, Note_on_c, 3, 61, 36
5, 76800, Note_on_c, 3, 64, 36
5, 77760, Note_off_c, 3, 64, 64
5, 77760, Note_off_c, 3, 61, 64
5, 77760, Note_on_c, 3, 62, 36
5, 78240, Note_off_c, 3, 62, 64
5, 78240, Note_on_c, 3, 59, 36
5, 78480, Note_off_c, 3, 59, 64
5, 78480, Note_on_c, 3, 64, 36
5, 78720, Note_off_c, 3, 64, 64
5, 78720, Note_on_c, 3, 64, 36
5, 78960, Note_off_c, 3, 64, 64
5, 79200, Note_on_c, 3, 74, 36
5, 79248, Note_off_c, 3, 74, 64
5, 79320, Note_on_c, 3, 74, 36
5, 79368, Note_off_c, 3, 74, 64
5, 79440, Note_on_c, 3, 74, 36
5, 79488, Note_off_c, 3, 74, 64
5, 79560, Note_on_c, 3, 74, 36
5, 79608, Note_off_c, 3, 74, 64
5, 79680, Note_on_c, 3, 73, 36
5, 79728, Note_off_c, 3, 73, 64
5, 79800, Note_on_c, 3, 73, 36
5, 79848, Note_off_c, 3, 73, 64
5, 79920, Note_on_c, 3, 73, 36
5, 79968, Note_off_c, 3, 73, 64
5, 80040, Note_on_c, 3, 73, 36
5, 80088, Note_off_c, 3, 73, 64
5, 80160, Note_on_c, 3, 68, 36
5, 80208, Note_off_c, 3, 68, 64
5, 80280, Note_on_c, 3, 68, 36
5, 80328, Note_off_c, 3, 68, 64
5, 80400, Note_on_c, 3, 68, 36
5, 80448, Note_off_c, 3, 68, 64
5, 80520, Note_on_c, 3, 68, 36
5, 80568, Note_off_c, 3, 68, 64
5, 80640, Note_on_c, 3, 69, 36
5, 80688, Note_off_c, 3, 69, 64
5, 80760, Note_on_c, 3, 69, 36
5, 80808, Note_off_c, 3, 69, 64
5, 80880, Note_on_c, 3, 69, 36
5, 80928, Note_off_c, 3, 69, 64
5, 81000, Note_on_c, 3, 69, 36
5, 81048, Note_off_c, 3, 69, 64
5, 81120, Note_on_c, 3, 74, 36
5, 81168, Note_off_c, 3, 74, 64
5, 81240, Note_on_c, 3, 74, 36
5, 81288, Note_off_c, 3, 74, 64
5, 81360, Note_on_c, 3, 74, 36
5, 81408, Note_off_c, 3, 74, 64
5, 81480, Note_on_c, 3, 74, 36
5, 81528, Note_off_c, 3, 74, 64
5, 81600, Note_on_c, 3, 73, 36
5, 81648, Note_off_c, 3, 73, 64
5, 81720, Note_on_c, 3, 73, 36
5, 81768, Note_off_c, 3, 73, 64
5, 81840, Note_on_c, 3, 73, 36
5, 81888, Note_off_c, 3, 73, 64
5, 81960, Note_on_c, 3, 73, 36
5, 82008, Note_off_c, 3, 73, 64
5, 82080, Note_on_c, 3, 68, 36
5, 82128, Note_off_c, 3, 68, 64
5, 82200, Note_on_c, 3, 68, 36
5, 82248, Note_off_c, 3, 68, 64
5, 82320, Note_on_c, 3, 68, 36
5, 82368, Note_off_c, 3, 68, 64
5, 82440, Note_on_c, 3, 68, 36
5, 82488, Note_off_c, 3, 68, 64
5, 82560, Note_on_c, 3, 69, 36
5, 82800, Note_off_c, 3, 69, 64
5, 83400, Note_on_c, 3, 64, 36
5, 83448, Note_off_c, 3, 64, 64
5, 83520, Note_on_c, 3, 62, 36
5, 83568, Note_off_c, 3, 62, 64
5, 83640, Note_on_c, 3, 62, 36
5, 83688, Note_off_c, 3, 62, 64
5, 83760, Note_on_c, 3, 62, 36
5, 83808, Note_off_c, 3, 62, 64
5, 83880, Note_on_c, 3, 62, 36
5, 83928, Note_off_c, 3, 62, 64
5, 84000, Note_on_c, 3, 62, 36
5, 84048, Note_off_c, 3, 62, 64
5, 84120, Note_on_c, 3, 62, 36
5, 84168, Note_off_c, 3, 62, 64
5, 84240, Note_on_c, 3, 62, 36
5, 84288, Note_off_c, 3, 62, 64
5, 84360, Note_on_c, 3, 62, 36
5, 84408, Note_off_c, 3, 62, 64
5, 84480, Note_on_c, 3, 61, 36
5, 84528, Note_off_c, 3, 61, 64
5, 84600, Note_on_c, 3, 61, 36
5, 84648, Note_off_c, 3, 61, 64
5, 84720, Note_on_c, 3, 66, 36
5, 84768, Note_off_c, 3, 66, 64
5, 84840, Note_on_c, 3, 66, 36
5, 84888, Note_off_c, 3, 66, 64
5, 84960, Note_on_c, 3, 62, 36
5, 85008, Note_off_c, 3, 62, 64
5, 85080, Note_on_c, 3, 62, 36
5, 85128, Note_off_c, 3, 62, 64
5, 85200, Note_on_c, 3, 64, 36
5, 85248, Note_off_c, 3, 64, 64
5, 85320, Note_on_c, 3, 64, 36
5, 85368, Note_off_c, 3, 64, 64
5, 85440, Note_on_c, 3, 64, 36
5, 85680, Note_off_c, 3, 64, 64
5, 86040, Note_on_c, 3, 64, 36
5, 86088, Note_off_c, 3, 64, 64
5, 86160, Note_on_c, 3, 64, 36
5, 86208, Note_off_c, 3, 64, 64
5, 86280, Note_on_c, 3, 69, 36
5, 86328, Note_off_c, 3, 69, 64
5, 86400, Note_on_c, 3, 69, 36
5, 86640, Note_off_c, 3, 69, 64
5, 87000, Note_on_c, 3, 69, 36
5, 87048, Note_off_c, 3, 69, 64
5, 87120, Note_on_c, 3, 69, 36
5, 87168, Note_off_c, 3, 69, 64
5, 87240, Note_on_c, 3, 69, 36
5, 87288, Note_off_c, 3, 69, 64
5, 87360, Note_on_c, 3, 69, 36
5, 87408, Note_off_c, 3, 69, 64
5, 87480, Note_on_c, 3, 69, 36
5, 87528, Note_off_c, 3, 69, 64
5, 87600, Note_on_c, 3, 69, 36
5, 87648, Note_off_c, 3, 69, 64
5, 87720, Note_on_c, 3, 69, 36
5, 87768, Note_off_c, 3, 69, 64
5, 87840, Note_on_c, 3, 69, 36
5, 87888, Note_off_c, 3, 69, 64
5, 87960, Note_on_c, 3, 69, 36
5, 88008, Note_off_c, 3, 69, 64
5, 88080, Note_on_c, 3, 68, 36
5, 88128, Note_off_c, 3, 68, 64
5, 88200, Note_on_c, 3, 68, 36
5, 88248, Note_off_c, 3, 68, 64
5, 88320, Note_on_c, 3, 69, 36
5, 88560, Note_off_c, 3, 69, 64
5, 88920, Note_on_c, 3, 64, 36
5, 88968, Note_off_c, 3, 64, 64
5, 89040, Note_on_c, 3, 64, 36
5, 89088, Note_off_c, 3, 64, 64
5, 89160, Note_on_c, 3, 64, 36
5, 89208, Note_off_c, 3, 64, 64
5, 89280, Note_on_c, 3, 66, 36
5, 89520, Note_off_c, 3, 66, 64
5, 89880, Note_on_c, 3, 69, 36
5, 89928, Note_off_c, 3, 69, 64
5, 90000, Note_on_c, 3, 69, 36
5, 90048, Note_off_c, 3, 69, 64
5, 90120, Note_on_c, 3, 69, 36
5, 90168, Note_off_c, 3, 69, 64
5, 90240, Note_on_c, 3, 69, 62
5, 90288, Note_off_c, 3, 69, 64
5, 90360, Note_on_c, 3, 69, 36
5, 90408, Note_off_c, 3, 69, 64
5, 90480, Note_on_c, 3, 69, 36
5, 90528, Note_off_c, 3, 69, 64
5, 90600, Note_on_c, 3, 69, 36
5, 90648, Note_off_c, 3, 69, 64
5, 90720, Note_on_c, 3, 69, 36
5, 90768, Note_off_c, 3, 69, 64
5, 90840, Note_on_c, 3, 69, 36
5, 90888, Note_off_c, 3, 69, 64
5, 90960, Note_on_c, 3, 69, 36
5, 91008, Note_off_c, 3, 69, 64
5, 91080, Note_on_c, 3, 69, 36
5, 91128, Note_off_c, 3, 69, 64
5, 91200, Note_on_c, 3, 68, 36
5, 91260, Note_off_c, 3, 68, 64
5, 91260, Note_on_c, 3, 68, 36
5, 91320, Note_off_c, 3, 68, 64
5, 91320, Note_on_c, 3, 68, 36
5, 91380, Note_off_c, 3, 68, 64
5, 91380, Note_on_c, 3, 68, 36
5, 91440, Note_off_c, 3, 68, 64
5, 91440, Note_on_c, 3, 62, 39
5, 91500, Note_off_c, 3, 62, 64
5, 91500, Note_on_c, 3, 62, 39
5, 91560, Note_off_c, 3, 62, 64
5, 91560, Note_on_c, 3, 62, 42
5, 91620, Note_off_c, 3, 62, 64
5, 91620, Note_on_c, 3, 62, 42
5, 91680, Note_off_c, 3, 62, 64
5, 91680, Note_on_c, 3, 71, 45
5, 91740, Note_off_c, 3, 71, 64
5, 91740, Note_on_c, 3, 71, 45
5, 91800, Note_off_c, 3, 71, 64
5, 91800, Note_on_c, 3, 71, 49
5, 91860, Note_off_c, 3, 71, 64
5, 91860, Note_on_c, 3, 71, 49
5, 91920, Note_off_c, 3, 71, 64
5, 91920, Note_on_c, 3, 74, 52
5, 91980, Note_off_c, 3, 74, 64
5, 91980, Note_on_c, 3, 74, 52
5, 92040, Note_off_c, 3, 74, 64
5, 92040, Note_on_c, 3, 74, 55
5, 92100, Note_off_c, 3, 74, 64
5, 92100, Note_on_c, 3, 74, 55
5, 92160, Note_off_c, 3, 74, 64
5, 92160, Note_on_c, 3, 64, 103
5, 92160, Note_on_c, 3, 73, 103
5, 92183, Note_off_c, 3, 64, 64
5, 92208, Note_off_c, 3, 73, 64
5, 92280, Note_on_c, 3, 64, 103
5, 92280, Note_on_c, 3, 73, 103
5, 92520, Note_off_c, 3, 73, 64
5, 92520, Note_off_c, 3, 64, 64
5, 92520, Note_on_c, 3, 64, 103
5, 92520, Note_on_c, 3, 73, 103
5, 92760, Note_off_c, 3, 73, 64
5, 92760, Note_off_c, 3, 64, 64
5, 92760, Note_on_c, 3, 64, 103
5, 92760, Note_on_c, 3, 73, 103
5, 93000, Note_off_c, 3, 73, 64
5, 93000, Note_off_c, 3, 64, 64
5, 93000, Note_on_c, 3, 64, 103
5, 93000, Note_on_c, 3, 73, 103
5, 93023, Note_off_c, 3, 64, 64
5, 93048, Note_off_c, 3, 73, 64
5, 93120, Note_on_c, 3, 69, 103
5, 93180, Note_off_c, 3, 69, 64
5, 93180, Note_on_c, 3, 68, 103
5, 93240, Note_off_c, 3, 68, 64
5, 93240, Note_on_c, 3, 66, 103
5, 93300, Note_off_c, 3, 66, 64
5, 93300, Note_on_c, 3, 65, 103
5, 93360, Note_off_c, 3, 65, 64
5, 93360, Note_on_c, 3, 66, 103
5, 93480, Note_off_c, 3, 66, 64
5, 93600, Note_on_c, 3, 74, 103
5, 93660, Note_off_c, 3, 74, 64
5, 93660, Note_on_c, 3, 76, 103
5, 93720, Note_off_c, 3, 76, 64
5, 93720, Note_on_c, 3, 78, 103
5, 93780, Note_off_c, 3, 78, 64
5, 93780, Note_on_c, 3, 76, 103
5, 93840, Note_off_c, 3, 76, 64
5, 93840, Note_on_c, 3, 78, 103
5, 93960, Note_off_c, 3, 78, 64
5, 93960, Note_on_c, 3, 74, 103
5, 94080, Note_off_c, 3, 74, 64
5, 94080, Note_on_c, 3, 73, 103
5, 94128, Note_off_c, 3, 73, 64
5, 94200, Note_on_c, 3, 76, 103
5, 94260, Note_off_c, 3, 76, 64
5, 94260, Note_on_c, 3, 73, 103
5, 94320, Note_off_c, 3, 73, 64
5, 94320, Note_on_c, 3, 69, 103
5, 94368, Note_off_c, 3, 69, 64
5, 94440, Note_on_c, 3, 73, 103
5, 94500, Note_off_c, 3, 73, 64
5, 94500, Note_on_c, 3, 69, 103
5, 94560, Note_off_c, 3, 69, 64
5, 94560, Note_on_c, 3, 76, 103
5, 94608, Note_off_c, 3, 76, 64
5, 94680, Note_on_c, 3, 76, 103
5, 94740, Note_off_c, 3, 76, 64
5, 94740, Note_on_c, 3, 73, 103
5, 94800, Note_off_c, 3, 73, 64
5, 94800, Note_on_c, 3, 74, 103
5, 94848, Note_off_c, 3, 74, 64
5, 94920, Note_on_c, 3, 74, 103
5, 94980, Note_off_c, 3, 74, 64
5, 94980, Note_on_c, 3, 71, 103
5, 95040, Note_off_c, 3, 71, 64
5, 95040, Note_on_c, 3, 69, 103
5, 95280, Note_off_c, 3, 69, 64
5, 96240, Note_on_c, 3, 61, 103
5, 96288, Note_off_c, 3, 61, 64
5, 96360, Note_on_c, 3, 57, 103
5, 96408, Note_off_c, 3, 57, 64
5, 96480, Note_on_c, 3, 69, 103
5, 96660, Note_off_c, 3, 69, 64
5, 96660, Note_on_c, 3, 73, 103
5, 96720, Note_off_c, 3, 73, 64
5, 96720, Note_on_c, 3, 73, 103
5, 96780, Note_off_c, 3, 73, 64
5, 96780, Note_on_c, 3, 71, 103
5, 96840, Note_off_c, 3, 71, 64
5, 96840, Note_on_c, 3, 69, 103
5, 96900, Note_off_c, 3, 69, 64
5, 96900, Note_on_c, 3, 68, 103
5, 96960, Note_off_c, 3, 68, 64
5, 96960, Note_on_c, 3, 69, 103
5, 97080, Note_off_c, 3, 69, 64
5, 98160, Note_on_c, 3, 61, 103
5, 98208, Note_off_c, 3, 61, 64
5, 98280, Note_on_c, 3, 57, 103
5, 98328, Note_off_c, 3, 57, 64
5, 98400, Note_on_c, 3, 69, 103
5, 98460, Note_off_c, 3, 69, 64
5, 98460, Note_on_c, 3, 73, 103
5, 98520, Note_off_c, 3, 73, 64
5, 98520, Note_on_c, 3, 69, 103
5, 98580, Note_off_c, 3, 69, 64
5, 98580, Note_on_c, 3, 73, 103
5, 98640, Note_off_c, 3, 73, 64
5, 98640, Note_on_c, 3, 73, 103
5, 98700, Note_off_c, 3, 73, 64
5, 98700, Note_on_c, 3, 71, 103
5, 98760, Note_off_c, 3, 71, 64
5, 98760, Note_on_c, 3, 69, 103
5, 98820, Note_off_c, 3, 69, 64
5, 98820, Note_on_c, 3, 68, 103
5, 98880, Note_off_c, 3, 68, 64
5, 98880, Note_on_c, 3, 69, 103
5, 98928, Note_off_c, 3, 69, 64
5, 99000, Note_on_c, 3, 73, 103
5, 99060, Note_off_c, 3, 73, 64
5, 99060, Note_on_c, 3, 69, 103
5, 99120, Note_off_c, 3, 69, 64
5, 99120, Note_on_c, 3, 76, 103
5, 99180, Note_off_c, 3, 76, 64
5, 99180, Note_on_c, 3, 73, 103
5, 99240, Note_off_c, 3, 73, 64
5, 99240, Note_on_c, 3, 76, 103
5, 99300, Note_off_c, 3, 76, 64
5, 99300, Note_on_c, 3, 73, 103
5, 99360, Note_off_c, 3, 73, 64
5, 99360, Note_on_c, 3, 81, 103
5, 99420, Note_off_c, 3, 81, 64
5, 99420, Note_on_c, 3, 85, 103
5, 99480, Note_off_c, 3, 85, 64
5, 99480, Note_on_c, 3, 81, 103
5, 99540, Note_off_c, 3, 81, 64
5, 99540, Note_on_c, 3, 85, 103
5, 99600, Note_off_c, 3, 85, 64
5, 99600, Note_on_c, 3, 85, 103
5, 99660, Note_off_c, 3, 85, 64
5, 99660, Note_on_c, 3, 83, 103
5, 99720, Note_off_c, 3, 83, 64
5, 99720, Note_on_c, 3, 81, 103
5, 99780, Note_off_c, 3, 81, 64
5, 99780, Note_on_c, 3, 80, 103
5, 99840, Note_off_c, 3, 80, 64
5, 99840, Note_on_c, 3, 81, 103
5, 99888, Note_off_c, 3, 81, 64
5, 99960, Note_on_c, 3, 69, 103
5, 100008, Note_off_c, 3, 69, 64
5, 100080, Note_on_c, 3, 69, 103
5, 100110, Note_off_c, 3, 69, 64
5, 100110, Note_on_c, 3, 71, 103
5, 100140, Note_off_c, 3, 71, 64
5, 100140, Note_on_c, 3, 69, 103
5, 100170, Note_off_c, 3, 69, 64
5, 100170, Note_on_c, 3, 71, 103
5, 100200, Note_off_c, 3, 71, 64
5, 100200, Note_on_c, 3, 69, 103
5, 100230, Note_off_c, 3, 69, 64
5, 100230, Note_on_c, 3, 71, 103
5, 100260, Note_off_c, 3, 71, 64
5, 100260, Note_on_c, 3, 68, 103
5, 100290, Note_off_c, 3, 68, 64
5, 100290, Note_on_c, 3, 69, 103
5, 100320, Note_off_c, 3, 69, 64
5, 102840, Note_on_c, 3, 71, 39
5, 102888, Note_off_c, 3, 71, 64
5, 102960, Note_on_c, 3, 71, 39
5, 102990, Note_off_c, 3, 71, 64
5, 102990, Note_on_c, 3, 73, 39
5, 103020, Note_off_c, 3, 73, 64
5, 103020, Note_on_c, 3, 71, 39
5, 103050, Note_off_c, 3, 71, 64
5, 103050, Note_on_c, 3, 73, 39
5, 103080, Note_off_c, 3, 73, 64
5, 103080, Note_on_c, 3, 71, 39
5, 103110, Note_off_c, 3, 71, 64
5, 103110, Note_on_c, 3, 73, 39
5, 103140, Note_off_c, 3, 73, 64
5, 103140, Note_on_c, 3, 69, 39
5, 103170, Note_off_c, 3, 69, 64
5, 103170, Note_on_c, 3, 71, 39
5, 103200, Note_off_c, 3, 71, 64
5, 103200, Note_on_c, 3, 74, 39
5, 103248, Note_off_c, 3, 74, 64
5, 103320, Note_on_c, 3, 71, 39
5, 103368, Note_off_c, 3, 71, 64
5, 103440, Note_on_c, 3, 68, 39
5, 103488, Note_off_c, 3, 68, 64
5, 103560, Note_on_c, 3, 62, 39
5, 103608, Note_off_c, 3, 62, 64
5, 103680, Note_on_c, 3, 61, 36
5, 103920, Note_off_c, 3, 61, 64
5, 105720, Note_on_c, 3, 74, 36
5, 105768, Note_off_c, 3, 74, 64
5, 105840, Note_on_c, 3, 74, 36
5, 105870, Note_off_c, 3, 74, 64
5, 105870, Note_on_c, 3, 76, 36
5, 105900, Note_off_c, 3, 76, 64
5, 105900, Note_on_c, 3, 74, 36
5, 105930, Note_off_c, 3, 74, 64
5, 105930, Note_on_c, 3, 76, 36
5, 105960, Note_off_c, 3, 76, 64
5, 105960, Note_on_c, 3, 74, 36
5, 105990, Note_off_c, 3, 74, 64
5, 105990, Note_on_c, 3, 76, 36
5, 106020, Note_off_c, 3, 76, 64
5, 106020, Note_on_c, 3, 73, 36
5, 106050, Note_off_c, 3, 73, 64
5, 106050, Note_on_c, 3, 74, 36
5, 106080, Note_off_c, 3, 74, 64
5, 106080, Note_on_c, 3, 78, 36
5, 106128, Note_off_c, 3, 78, 64
5, 106200, Note_on_c, 3, 74, 36
5, 106248, Note_off_c, 3, 74, 64
5, 106320, Note_on_c, 3, 69, 36
5, 106368, Note_off_c, 3, 69, 64
5, 106440, Note_on_c, 3, 66, 36
5, 106488, Note_off_c, 3, 66, 64
5, 106560, Note_on_c, 3, 62, 36
5, 106800, Note_off_c, 3, 62, 64
5, 107520, Note_on_c, 3, 59, 36
5, 107568, Note_off_c, 3, 59, 64
5, 107640, Note_on_c, 3, 59, 36
5, 107688, Note_off_c, 3, 59, 64
5, 107760, Note_on_c, 3, 59, 36
5, 107808, Note_off_c, 3, 59, 64
5, 107880, Note_on_c, 3, 59, 36
5, 107928, Note_off_c, 3, 59, 64
5, 108000, Note_on_c, 3, 59, 36
5, 108048, Note_off_c, 3, 59, 64
5, 108120, Note_on_c, 3, 59, 36
5, 108168, Note_off_c, 3, 59, 64
5, 108240, Note_on_c, 3, 59, 36
5, 108288, Note_off_c, 3, 59, 64
5, 108360, Note_on_c, 3, 59, 36
5, 108408, Note_off_c, 3, 59, 64
5, 108480, Note_on_c, 3, 61, 36
5, 108720, Note_off_c, 3, 61, 64
5, 109320, Note_on_c, 3, 71, 23
5, 109440, Note_off_c, 3, 71, 64
5, 109440, Note_on_c, 3, 69, 23
5, 109680, Note_off_c, 3, 69, 64
5, 110280, Note_on_c, 3, 71, 36
5, 110400, Note_off_c, 3, 71, 64
5, 110400, Note_on_c, 3, 69, 36
5, 110448, Note_off_c, 3, 69, 64
5, 110520, Note_on_c, 3, 69, 36
5, 110568, Note_off_c, 3, 69, 64
5, 110640, Note_on_c, 3, 69, 36
5, 110688, Note_off_c, 3, 69, 64
5, 110760, Note_on_c, 3, 69, 36
5, 110808, Note_off_c, 3, 69, 64
5, 110880, Note_on_c, 3, 71, 36
5, 110928, Note_off_c, 3, 71, 64
5, 111000, Note_on_c, 3, 71, 36
5, 111048, Note_off_c, 3, 71, 64
5, 111120, Note_on_c, 3, 71, 36
5, 111168, Note_off_c, 3, 71, 64
5, 111240, Note_on_c, 3, 71, 36
5, 111288, Note_off_c, 3, 71, 64
5, 111360, Note_on_c, 3, 73, 36
5, 111408, Note_off_c, 3, 73, 64
5, 111480, Note_on_c, 3, 73, 36
5, 111528, Note_off_c, 3, 73, 64
5, 111600, Note_on_c, 3, 73, 36
5, 111648, Note_off_c, 3, 73, 64
5, 111720, Note_on_c, 3, 73, 36
5, 111768, Note_off_c, 3, 73, 64
5, 111840, Note_on_c, 3, 74, 36
5, 111888, Note_off_c, 3, 74, 64
5, 111960, Note_on_c, 3, 74, 36
5, 112008, Note_off_c, 3, 74, 64
5, 112080, Note_on_c, 3, 74, 36
5, 112128, Note_off_c, 3, 74, 64
5, 112200, Note_on_c, 3, 74, 36
5, 112248, Note_off_c, 3, 74, 64
5, 112320, Note_on_c, 3, 76, 36
5, 112440, Note_off_c, 3, 76, 64
5, 112560, Note_on_c, 3, 61, 42
5, 112608, Note_off_c, 3, 61, 64
5, 112680, Note_on_c, 3, 63, 45
5, 112728, Note_off_c, 3, 63, 64
5, 112800, Note_on_c, 3, 64, 49
5, 112848, Note_off_c, 3, 64, 64
5, 113040, Note_on_c, 3, 61, 55
5, 113088, Note_off_c, 3, 61, 64
5, 113160, Note_on_c, 3, 63, 58
5, 113208, Note_off_c, 3, 63, 64
5, 113280, Note_on_c, 3, 64, 58
5, 113328, Note_off_c, 3, 64, 64
5, 113520, Note_on_c, 3, 67, 58
5, 113568, Note_off_c, 3, 67, 64
5, 113760, Note_on_c, 3, 76, 61
5, 113808, Note_off_c, 3, 76, 64
5, 114000, Note_on_c, 3, 67, 67
5, 114048, Note_off_c, 3, 67, 64
5, 114240, Note_on_c, 3, 57, 103
5, 114240, Note_on_c, 3, 66, 103
5, 114480, Note_off_c, 3, 66, 64
5, 114480, Note_off_c, 3, 57, 64
5, 114480, Note_on_c, 3, 57, 109
5, 114480, Note_on_c, 3, 66, 109
5, 114960, Note_off_c, 3, 66, 64
5, 114960, Note_off_c, 3, 57, 64
5, 114960, Note_on_c, 3, 64, 109
5, 115020, Note_off_c, 3, 64, 64
5, 115020, Note_on_c, 3, 66, 109
5, 115080, Note_off_c, 3, 66, 64
5, 115080, Note_on_c, 3, 64, 109
5, 115140, Note_off_c, 3, 64, 64
5, 115140, Note_on_c, 3, 66, 109
5, 115200, Note_off_c, 3, 66, 64
5, 115200, Note_on_c, 3, 71, 109
5, 115440, Note_off_c, 3, 71, 64
5, 115440, Note_on_c, 3, 67, 109
5, 115620, Note_off_c, 3, 67, 64
5, 115620, Note_on_c, 3, 69, 109
5, 115680, Note_off_c, 3, 69, 64
5, 115680, Note_on_c, 3, 71, 109
5, 115920, Note_off_c, 3, 71, 64
5, 115920, Note_on_c, 3, 73, 109
5, 116160, Note_off_c, 3, 73, 64
5, 116160, Note_on_c, 3, 73, 36
5, 116280, Note_off_c, 3, 73, 64
5, 116280, Note_on_c, 3, 74, 36
5, 116328, Note_off_c, 3, 74, 64
5, 116400, Note_on_c, 3, 74, 36
5, 116880, Note_off_c, 3, 74, 64
5, 116880, Note_on_c, 3, 76, 36
5, 116940, Note_off_c, 3, 76, 64
5, 116940, Note_on_c, 3, 74, 36
5, 117000, Note_off_c, 3, 74, 64
5, 117000, Note_on_c, 3, 76, 36
5, 117060, Note_off_c, 3, 76, 64
5, 117060, Note_on_c, 3, 74, 36
5, 117120, Note_off_c, 3, 74, 64
5, 117120, Note_on_c, 3, 79, 36
5, 117360, Note_off_c, 3, 79, 64
5, 117360, Note_on_c, 3, 79, 36
5, 117840, Note_off_c, 3, 79, 64
5, 117840, Note_on_c, 3, 79, 36
5, 118080, Note_off_c, 3, 79, 64
5, 118080, Note_on_c, 3, 77, 36
5, 118200, Note_off_c, 3, 77, 64
5, 118200, Note_on_c, 3, 78, 36
5, 118248, Note_off_c, 3, 78, 64
5, 118320, Note_on_c, 3, 78, 36
5, 118368, Note_off_c, 3, 78, 64
5, 118440, Note_on_c, 3, 78, 36
5, 118488, Note_off_c, 3, 78, 64
5, 118680, Note_on_c, 3, 78, 36
5, 118728, Note_off_c, 3, 78, 64
5, 118800, Note_on_c, 3, 78, 36
5, 118848, Note_off_c, 3, 78, 64
5, 118920, Note_on_c, 3, 78, 36
5, 118968, Note_off_c, 3, 78, 64
5, 119160, Note_on_c, 3, 71, 36
5, 119208, Note_off_c, 3, 71, 64
5, 119280, Note_on_c, 3, 71, 36
5, 119328, Note_off_c, 3, 71, 64
5, 119400, Note_on_c, 3, 71, 36
5, 119448, Note_off_c, 3, 71, 64
5, 119640, Note_on_c, 3, 75, 36
5, 119688, Note_off_c, 3, 75, 64
5, 119760, Note_on_c, 3, 75, 36
5, 119808, Note_off_c, 3, 75, 64
5, 119880, Note_on_c, 3, 75, 36
5, 119928, Note_off_c, 3, 75, 64
5, 120120, Note_on_c, 3, 76, 36
5, 120168, Note_off_c, 3, 76, 64
5, 120240, Note_on_c, 3, 76, 36
5, 120288, Note_off_c, 3, 76, 64
5, 120360, Note_on_c, 3, 76, 36
5, 120408, Note_off_c, 3, 76, 64
5, 120600, Note_on_c, 3, 69, 36
5, 120648, Note_off_c, 3, 69, 64
5, 120720, Note_on_c, 3, 69, 36
5, 120768, Note_off_c, 3, 69, 64
5, 120840, Note_on_c, 3, 69, 36
5, 120888, Note_off_c, 3, 69, 64
5, 121080, Note_on_c, 3, 67, 36
5, 121128, Note_off_c, 3, 67, 64
5, 121200, Note_on_c, 3, 67, 36
5, 121248, Note_off_c, 3, 67, 64
5, 121320, Note_on_c, 3, 67, 36
5, 121368, Note_off_c, 3, 67, 64
5, 121440, Note_on_c, 3, 66, 36
5, 121488, Note_off_c, 3, 66, 64
5, 121560, Note_on_c, 3, 66, 36
5, 121608, Note_off_c, 3, 66, 64
5, 121680, Note_on_c, 3, 66, 36
5, 121728, Note_off_c, 3, 66, 64
5, 121800, Note_on_c, 3, 66, 36
5, 121848, Note_off_c, 3, 66, 64
5, 122040, Note_on_c, 3, 64, 36
5, 122088, Note_off_c, 3, 64, 64
5, 122160, Note_on_c, 3, 67, 36
5, 122208, Note_off_c, 3, 67, 64
5, 122280, Note_on_c, 3, 71, 36
5, 122328, Note_off_c, 3, 71, 64
5, 122400, Note_on_c, 3, 76, 36
5, 122520, Note_off_c, 3, 76, 64
5, 122520, Note_on_c, 3, 79, 36
5, 122568, Note_off_c, 3, 79, 64
5, 122640, Note_on_c, 3, 79, 36
5, 122688, Note_off_c, 3, 79, 64
5, 122760, Note_on_c, 3, 79, 36
5, 122808, Note_off_c, 3, 79, 64
5, 123000, Note_on_c, 3, 78, 36
5, 123048, Note_off_c, 3, 78, 64
5, 123120, Note_on_c, 3, 78, 36
5, 123168, Note_off_c, 3, 78, 64
5, 123240, Note_on_c, 3, 78, 36
5, 123288, Note_off_c, 3, 78, 64
5, 123480, Note_on_c, 3, 73, 36
5, 123528, Note_off_c, 3, 73, 64
5, 123600, Note_on_c, 3, 73, 36
5, 123648, Note_off_c, 3, 73, 64
5, 123720, Note_on_c, 3, 73, 36
5, 123768, Note_off_c, 3, 73, 64
5, 123960, Note_on_c, 3, 74, 36
5, 124008, Note_off_c, 3, 74, 64
5, 124080, Note_on_c, 3, 74, 36
5, 124128, Note_off_c, 3, 74, 64
5, 124200, Note_on_c, 3, 74, 36
5, 124248, Note_off_c, 3, 74, 64
5, 124440, Note_on_c, 3, 71, 36
5, 124488, Note_off_c, 3, 71, 64
5, 124560, Note_on_c, 3, 71, 36
5, 124608, Note_off_c, 3, 71, 64
5, 124680, Note_on_c, 3, 71, 36
5, 124728, Note_off_c, 3, 71, 64
5, 124800, Note_on_c, 3, 66, 36
5, 125040, Note_off_c, 3, 66, 64
5, 125040, Note_on_c, 3, 66, 36
5, 125088, Note_off_c, 3, 66, 64
5, 125160, Note_on_c, 3, 66, 36
5, 125208, Note_off_c, 3, 66, 64
5, 125280, Note_on_c, 3, 66, 36
5, 125400, Note_off_c, 3, 66, 64
5, 125400, Note_on_c, 3, 62, 36
5, 125448, Note_off_c, 3, 62, 64
5, 125520, Note_on_c, 3, 64, 36
5, 125640, Note_off_c, 3, 64, 64
5, 125640, Note_on_c, 3, 61, 36
5, 125688, Note_off_c, 3, 61, 64
5, 126360, Note_on_c, 3, 62, 36
5, 126480, Note_off_c, 3, 62, 64
5, 126480, Note_on_c, 3, 64, 36
5, 126600, Note_off_c, 3, 64, 64
5, 126600, Note_on_c, 3, 66, 36
5, 126720, Note_off_c, 3, 66, 64
5, 126720, Note_on_c, 3, 67, 36
5, 126768, Note_off_c, 3, 67, 64
5, 126840, Note_on_c, 3, 67, 36
5, 126888, Note_off_c, 3, 67, 64
5, 126960, Note_on_c, 3, 67, 36
5, 127008, Note_off_c, 3, 67, 64
5, 127080, Note_on_c, 3, 67, 36
5, 127128, Note_off_c, 3, 67, 64
5, 127200, Note_on_c, 3, 69, 62
5, 127248, Note_off_c, 3, 69, 64
5, 127320, Note_on_c, 3, 69, 36
5, 127368, Note_off_c, 3, 69, 64
5, 127440, Note_on_c, 3, 69, 36
5, 127488, Note_off_c, 3, 69, 64
5, 127560, Note_on_c, 3, 69, 36
5, 127608, Note_off_c, 3, 69, 64
5, 127680, Note_on_c, 3, 67, 36
5, 127728, Note_off_c, 3, 67, 64
5, 127800, Note_on_c, 3, 67, 36
5, 127848, Note_off_c, 3, 67, 64
5, 127920, Note_on_c, 3, 67, 36
5, 127968, Note_off_c, 3, 67, 64
5, 128040, Note_on_c, 3, 67, 36
5, 128088, Note_off_c, 3, 67, 64
5, 128160, Note_on_c, 3, 69, 62
5, 128208, Note_off_c, 3, 69, 64
5, 128280, Note_on_c, 3, 69, 36
5, 128328, Note_off_c, 3, 69, 64
5, 128400, Note_on_c, 3, 69, 36
5, 128448, Note_off_c, 3, 69, 64
5, 128520, Note_on_c, 3, 69, 36
5, 128568, Note_off_c, 3, 69, 64
5, 128640, Note_on_c, 3, 67, 36
5, 128688, Note_off_c, 3, 67, 64
5, 128760, Note_on_c, 3, 67, 36
5, 128808, Note_off_c, 3, 67, 64
5, 128880, Note_on_c, 3, 67, 36
5, 128928, Note_off_c, 3, 67, 64
5, 129000, Note_on_c, 3, 67, 36
5, 129048, Note_off_c, 3, 67, 64
5, 129120, Note_on_c, 3, 67, 36
5, 129168, Note_off_c, 3, 67, 64
5, 129240, Note_on_c, 3, 67, 36
5, 129288, Note_off_c, 3, 67, 64
5, 129360, Note_on_c, 3, 67, 36
5, 129408, Note_off_c, 3, 67, 64
5, 129480, Note_on_c, 3, 67, 36
5, 129528, Note_off_c, 3, 67, 64
5, 129600, Note_on_c, 3, 57, 36
5, 129600, Note_on_c, 3, 69, 36
5, 129840, Note_off_c, 3, 69, 64
5, 129840, Note_off_c, 3, 57, 64
5, 131640, Note_on_c, 3, 61, 36
5, 131640, Note_on_c, 3, 64, 36
5, 131663, Note_off_c, 3, 61, 64
5, 131688, Note_off_c, 3, 64, 64
5, 131760, Note_on_c, 3, 61, 36
5, 131760, Note_on_c, 3, 64, 36
5, 131783, Note_off_c, 3, 61, 64
5, 131808, Note_off_c, 3, 64, 64
5, 131880, Note_on_c, 3, 61, 36
5, 131880, Note_on_c, 3, 64, 36
5, 131903, Note_off_c, 3, 61, 64
5, 131928, Note_off_c, 3, 64, 64
5, 132000, Note_on_c, 3, 61, 36
5, 132000, Note_on_c, 3, 64, 36
5, 132023, Note_off_c, 3, 61, 64
5, 132048, Note_off_c, 3, 64, 64
5, 132120, Note_on_c, 3, 61, 36
5, 132120, Note_on_c, 3, 64, 36
5, 132143, Note_off_c, 3, 61, 64
5, 132168, Note_off_c, 3, 64, 64
5, 132240, Note_on_c, 3, 61, 36
5, 132240, Note_on_c, 3, 64, 36
5, 132263, Note_off_c, 3, 61, 64
5, 132288, Note_off_c, 3, 64, 64
5, 132360, Note_on_c, 3, 61, 36
5, 132360, Note_on_c, 3, 64, 36
5, 132383, Note_off_c, 3, 61, 64
5, 132408, Note_off_c, 3, 64, 64
5, 132480, Note_on_c, 3, 62, 36
5, 132720, Note_off_c, 3, 62, 64
5, 133560, Note_on_c, 3, 62, 36
5, 133608, Note_off_c, 3, 62, 64
5, 133680, Note_on_c, 3, 62, 36
5, 133728, Note_off_c, 3, 62, 64
5, 133800, Note_on_c, 3, 62, 36
5, 133848, Note_off_c, 3, 62, 64
5, 133920, Note_on_c, 3, 62, 36
5, 133968, Note_off_c, 3, 62, 64
5, 134040, Note_on_c, 3, 62, 36
5, 134088, Note_off_c, 3, 62, 64
5, 134160, Note_on_c, 3, 62, 36
5, 134208, Note_off_c, 3, 62, 64
5, 134280, Note_on_c, 3, 62, 36
5, 134328, Note_off_c, 3, 62, 64
5, 134400, Note_on_c, 3, 61, 36
5, 134400, Note_on_c, 3, 64, 36
5, 134640, Note_off_c, 3, 64, 64
5, 134640, Note_off_c, 3, 61, 64
5, 135480, Note_on_c, 3, 61, 36
5, 135480, Note_on_c, 3, 64, 36
5, 135503, Note_off_c, 3, 61, 64
5, 135528, Note_off_c, 3, 64, 64
5, 135600, Note_on_c, 3, 61, 36
5, 135600, Note_on_c, 3, 64, 36
5, 135623, Note_off_c, 3, 61, 64
5, 135648, Note_off_c, 3, 64, 64
5, 135720, Note_on_c, 3, 61, 36
5, 135720, Note_on_c, 3, 64, 36
5, 135743, Note_off_c, 3, 61, 64
5, 135768, Note_off_c, 3, 64, 64
5, 135840, Note_on_c, 3, 61, 36
5, 135840, Note_on_c, 3, 64, 36
5, 135863, Note_off_c, 3, 61, 64
5, 135888, Note_off_c, 3, 64, 64
5, 135960, Note_on_c, 3, 61, 36
5, 135960, Note_on_c, 3, 64, 36
5, 135983, Note_off_c, 3, 61, 64
5, 136008, Note_off_c, 3, 64, 64
5, 136080, Note_on_c, 3, 61, 36
5, 136080, Note_on_c, 3, 64, 36
5, 136103, Note_off_c, 3, 61, 64
5, 136128, Note_off_c, 3, 64, 64
5, 136200, Note_on_c, 3, 61, 36
5, 136200, Note_on_c, 3, 64, 36
5, 136223, Note_off_c, 3, 61, 64
5, 136248, Note_off_c, 3, 64, 64
5, 136320, Note_on_c, 3, 62, 36
5, 136440, Note_off_c, 3, 62, 64
5, 136560, Note_on_c, 3, 74, 36
5, 136620, Note_off_c, 3, 74, 64
5, 136620, Note_on_c, 3, 78, 36
5, 136680, Note_off_c, 3, 78, 64
5, 136680, Note_on_c, 3, 76, 36
5, 136740, Note_off_c, 3, 76, 64
5, 136740, Note_on_c, 3, 79, 36
5, 136800, Note_off_c, 3, 79, 64
5, 136800, Note_on_c, 3, 78, 36
5, 136920, Note_off_c, 3, 78, 64
5, 137280, Note_on_c, 3, 74, 36
5, 137400, Note_off_c, 3, 74, 64
5, 137520, Note_on_c, 3, 74, 36
5, 137580, Note_off_c, 3, 74, 64
5, 137580, Note_on_c, 3, 79, 36
5, 137640, Note_off_c, 3, 79, 64
5, 137640, Note_on_c, 3, 78, 36
5, 137700, Note_off_c, 3, 78, 64
5, 137700, Note_on_c, 3, 81, 36
5, 137760, Note_off_c, 3, 81, 64
5, 137760, Note_on_c, 3, 79, 36
5, 137880, Note_off_c, 3, 79, 64
5, 138240, Note_on_c, 3, 74, 36
5, 138360, Note_off_c, 3, 74, 64
5, 138480, Note_on_c, 3, 62, 36
5, 138540, Note_off_c, 3, 62, 64
5, 138540, Note_on_c, 3, 69, 36
5, 138600, Note_off_c, 3, 69, 64
5, 138600, Note_on_c, 3, 67, 36
5, 138660, Note_off_c, 3, 67, 64
5, 138660, Note_on_c, 3, 71, 36
5, 138720, Note_off_c, 3, 71, 64
5, 138720, Note_on_c, 3, 69, 36
5, 138840, Note_off_c, 3, 69, 64
5, 139260, Note_on_c, 3, 67, 36
5, 139320, Note_off_c, 3, 67, 64
5, 139320, Note_on_c, 3, 66, 36
5, 139380, Note_off_c, 3, 66, 64
5, 139380, Note_on_c, 3, 67, 36
5, 139440, Note_off_c, 3, 67, 64
5, 139440, Note_on_c, 3, 69, 36
5, 139500, Note_off_c, 3, 69, 64
5, 139500, Note_on_c, 3, 67, 36
5, 139560, Note_off_c, 3, 67, 64
5, 139560, Note_on_c, 3, 66, 36
5, 139620, Note_off_c, 3, 66, 64
5, 139620, Note_on_c, 3, 67, 36
5, 139680, Note_off_c, 3, 67, 64
5, 139740, Note_on_c, 3, 66, 36
5, 139800, Note_off_c, 3, 66, 64
5, 139800, Note_on_c, 3, 64, 36
5, 139860, Note_off_c, 3, 64, 64
5, 139860, Note_on_c, 3, 66, 36
5, 139920, Note_off_c, 3, 66, 64
5, 139920, Note_on_c, 3, 67, 36
5, 139980, Note_off_c, 3, 67, 64
5, 139980, Note_on_c, 3, 66, 36
5, 140040, Note_off_c, 3, 66, 64
5, 140040, Note_on_c, 3, 64, 36
5, 140100, Note_off_c, 3, 64, 64
5, 140100, Note_on_c, 3, 66, 36
5, 140160, Note_off_c, 3, 66, 64
5, 140160, Note_on_c, 3, 65, 62
5, 140208, Note_off_c, 3, 65, 64
5, 140280, Note_on_c, 3, 65, 36
5, 140328, Note_off_c, 3, 65, 64
5, 140400, Note_on_c, 3, 65, 36
5, 140448, Note_off_c, 3, 65, 64
5, 140520, Note_on_c, 3, 65, 36
5, 140568, Note_off_c, 3, 65, 64
5, 140640, Note_on_c, 3, 68, 36
5, 140688, Note_off_c, 3, 68, 64
5, 140760, Note_on_c, 3, 68, 36
5, 140808, Note_off_c, 3, 68, 64
5, 140880, Note_on_c, 3, 68, 36
5, 140928, Note_off_c, 3, 68, 64
5, 141000, Note_on_c, 3, 68, 36
5, 141048, Note_off_c, 3, 68, 64
5, 141120, Note_on_c, 3, 68, 36
5, 141240, Note_off_c, 3, 68, 64
5, 141240, Note_on_c, 3, 69, 36
5, 141288, Note_off_c, 3, 69, 64
5, 141360, Note_on_c, 3, 73, 36
5, 141408, Note_off_c, 3, 73, 64
5, 141480, Note_on_c, 3, 73, 36
5, 141528, Note_off_c, 3, 73, 64
5, 141720, Note_on_c, 3, 73, 36
5, 141768, Note_off_c, 3, 73, 64
5, 141840, Note_on_c, 3, 73, 36
5, 141888, Note_off_c, 3, 73, 64
5, 141960, Note_on_c, 3, 73, 36
5, 142008, Note_off_c, 3, 73, 64
5, 142200, Note_on_c, 3, 74, 36
5, 142248, Note_off_c, 3, 74, 64
5, 142440, Note_on_c, 3, 70, 36
5, 142488, Note_off_c, 3, 70, 64
5, 142680, Note_on_c, 3, 71, 39
5, 142728, Note_off_c, 3, 71, 64
5, 142920, Note_on_c, 3, 71, 45
5, 142968, Note_off_c, 3, 71, 64
5, 143040, Note_on_c, 3, 74, 49
5, 143088, Note_off_c, 3, 74, 64
5, 143160, Note_on_c, 3, 74, 52
5, 143208, Note_off_c, 3, 74, 64
5, 143280, Note_on_c, 3, 74, 58
5, 143328, Note_off_c, 3, 74, 64
5, 143400, Note_on_c, 3, 74, 64
5, 143448, Note_off_c, 3, 74, 64
5, 143520, Note_on_c, 3, 76, 67
5, 143640, Note_off_c, 3, 76, 64
5, 143640, Note_on_c, 3, 73, 71
5, 143688, Note_off_c, 3, 73, 64
5, 143760, Note_on_c, 3, 73, 74
5, 143880, Note_off_c, 3, 73, 64
5, 143880, Note_on_c, 3, 67, 77
5, 143928, Note_off_c, 3, 67, 64
5, 144000, Note_on_c, 3, 66, 103
5, 144090, Note_on_c, 3, 67, 103
5, 144120, Note_off_c, 3, 67, 64
5, 144120, Note_off_c, 3, 66, 64
5, 144120, Note_on_c, 3, 66, 103
5, 144180, Note_off_c, 3, 66, 64
5, 144180, Note_on_c, 3, 64, 103
5, 144240, Note_off_c, 3, 64, 64
5, 144240, Note_on_c, 3, 66, 103
5, 144360, Note_off_c, 3, 66, 64
5, 144360, Note_on_c, 3, 61, 103
5, 144480, Note_off_c, 3, 61, 64
5, 144480, Note_on_c, 3, 62, 103
5, 144570, Note_on_c, 3, 76, 103
5, 144600, Note_off_c, 3, 76, 64
5, 144600, Note_off_c, 3, 62, 64
5, 144600, Note_on_c, 3, 74, 103
5, 144660, Note_off_c, 3, 74, 64
5, 144660, Note_on_c, 3, 73, 103
5, 144720, Note_off_c, 3, 73, 64
5, 144720, Note_on_c, 3, 74, 103
5, 144768, Note_off_c, 3, 74, 64
5, 144840, Note_on_c, 3, 74, 103
5, 144888, Note_off_c, 3, 74, 64
5, 144960, Note_on_c, 3, 73, 103
5, 145140, Note_off_c, 3, 73, 64
5, 145200, Note_on_c, 3, 64, 103
5, 145200, Note_on_c, 3, 73, 103
5, 145200, Note_on_c, 3, 81, 103
5, 145380, Note_off_c, 3, 81, 64
5, 145380, Note_off_c, 3, 73, 64
5, 145380, Note_off_c, 3, 64, 64
5, 145440, Note_on_c, 3, 61, 103
5, 145440, Note_on_c, 3, 69, 103
5, 145440, Note_on_c, 3, 76, 103
5, 145680, Note_off_c, 3, 76, 64
5, 145680, Note_off_c, 3, 69, 64
5, 145680, Note_off_c, 3, 61, 64
5, 146880, Note_on_c, 3, 57, 36
5, 146880, Note_on_c, 3, 66, 36
5, 147840, Note_off_c, 3, 66, 64
5, 147840, Note_off_c, 3, 57, 64
5, 147840, Note_on_c, 3, 67, 36
5, 148320, Note_off_c, 3, 67, 64
5, 148320, Note_on_c, 3, 64, 36
5, 148560, Note_off_c, 3, 64, 64
5, 148560, Note_on_c, 3, 69, 36
5, 148800, Note_off_c, 3, 69, 64
5, 148800, Note_on_c, 3, 57, 36
5, 148800, Note_on_c, 3, 66, 36
5, 149760, Note_off_c, 3, 66, 64
5, 149760, Note_off_c, 3, 57, 64
5, 149760, Note_on_c, 3, 67, 36
5, 150240, Note_off_c, 3, 67, 64
5, 150240, Note_on_c, 3, 64, 36
5, 150480, Note_off_c, 3, 64, 64
5, 150480, Note_on_c, 3, 69, 36
5, 150720, Note_off_c, 3, 69, 64
5, 150720, Note_on_c, 3, 69, 36
5, 150960, Note_off_c, 3, 69, 64
5, 151200, Note_on_c, 3, 67, 36
5, 151248, Note_off_c, 3, 67, 64
5, 151320, Note_on_c, 3, 67, 36
5, 151368, Note_off_c, 3, 67, 64
5, 151440, Note_on_c, 3, 67, 36
5, 151488, Note_off_c, 3, 67, 64
5, 151560, Note_on_c, 3, 67, 36
5, 151608, Note_off_c, 3, 67, 64
5, 151680, Note_on_c, 3, 66, 36
5, 151728, Note_off_c, 3, 66, 64
5, 151800, Note_on_c, 3, 66, 36
5, 151848, Note_off_c, 3, 66, 64
5, 151920, Note_on_c, 3, 66, 36
5, 151968, Note_off_c, 3, 66, 64
5, 152040, Note_on_c, 3, 66, 36
5, 152088, Note_off_c, 3, 66, 64
5, 152160, Note_on_c, 3, 61, 36
5, 152208, Note_off_c, 3, 61, 64
5, 152280, Note_on_c, 3, 61, 36
5, 152328, Note_off_c, 3, 61, 64
5, 152400, Note_on_c, 3, 61, 36
5, 152448, Note_off_c, 3, 61, 64
5, 152520, Note_on_c, 3, 61, 36
5, 152568, Note_off_c, 3, 61, 64
5, 152640, Note_on_c, 3, 62, 36
5, 152688, Note_off_c, 3, 62, 64
5, 152760, Note_on_c, 3, 62, 36
5, 152808, Note_off_c, 3, 62, 64
5, 152880, Note_on_c, 3, 62, 36
5, 152928, Note_off_c, 3, 62, 64
5, 153000, Note_on_c, 3, 62, 36
5, 153048, Note_off_c, 3, 62, 64
5, 153120, Note_on_c, 3, 67, 36
5, 153168, Note_off_c, 3, 67, 64
5, 153240, Note_on_c, 3, 67, 36
5, 153288, Note_off_c, 3, 67, 64
5, 153360, Note_on_c, 3, 67, 36
5, 153408, Note_off_c, 3, 67, 64
5, 153480, Note_on_c, 3, 67, 36
5, 153528, Note_off_c, 3, 67, 64
5, 153600, Note_on_c, 3, 66, 36
5, 153648, Note_off_c, 3, 66, 64
5, 153720, Note_on_c, 3, 66, 36
5, 153768, Note_off_c, 3, 66, 64
5, 153840, Note_on_c, 3, 66, 36
5, 153888, Note_off_c, 3, 66, 64
5, 153960, Note_on_c, 3, 66, 36
5, 154008, Note_off_c, 3, 66, 64
5, 154080, Note_on_c, 3, 61, 36
5, 154128, Note_off_c, 3, 61, 64
5, 154200, Note_on_c, 3, 61, 36
5, 154248, Note_off_c, 3, 61, 64
5, 154320, Note_on_c, 3, 61, 36
5, 154368, Note_off_c, 3, 61, 64
5, 154440, Note_on_c, 3, 61, 36
5, 154488, Note_off_c, 3, 61, 64
5, 154560, Note_on_c, 3, 62, 36
5, 154608, Note_off_c, 3, 62, 64
5, 154680, Note_on_c, 3, 62, 36
5, 154728, Note_off_c, 3, 62, 64
5, 154800, Note_on_c, 3, 62, 36
5, 154848, Note_off_c, 3, 62, 64
5, 154920, Note_on_c, 3, 62, 36
5, 154968, Note_off_c, 3, 62, 64
5, 155160, Note_on_c, 3, 62, 36
5, 155208, Note_off_c, 3, 62, 64
5, 155280, Note_on_c, 3, 62, 36
5, 155328, Note_off_c, 3, 62, 64
5, 155400, Note_on_c, 3, 62, 36
5, 155448, Note_off_c, 3, 62, 64
5, 155640, Note_on_c, 3, 66, 36
5, 155688, Note_off_c, 3, 66, 64
5, 155760, Note_on_c, 3, 66, 36
5, 155808, Note_off_c, 3, 66, 64
5, 155880, Note_on_c, 3, 66, 36
5, 155928, Note_off_c, 3, 66, 64
5, 156120, Note_on_c, 3, 67, 36
5, 156168, Note_off_c, 3, 67, 64
5, 156240, Note_on_c, 3, 67, 36
5, 156288, Note_off_c, 3, 67, 64
5, 156360, Note_on_c, 3, 67, 36
5, 156408, Note_off_c, 3, 67, 64
5, 156480, Note_on_c, 3, 69, 36
5, 156528, Note_off_c, 3, 69, 64
5, 156600, Note_on_c, 3, 67, 36
5, 156648, Note_off_c, 3, 67, 64
5, 156720, Note_on_c, 3, 66, 36
5, 156768, Note_off_c, 3, 66, 64
5, 156840, Note_on_c, 3, 64, 36
5, 156888, Note_off_c, 3, 64, 64
5, 156960, Note_on_c, 3, 62, 36
5, 157008, Note_off_c, 3, 62, 64
5, 157080, Note_on_c, 3, 60, 36
5, 157128, Note_off_c, 3, 60, 64
5, 157200, Note_on_c, 3, 59, 36
5, 157248, Note_off_c, 3, 59, 64
5, 157320, Note_on_c, 3, 57, 36
5, 157368, Note_off_c, 3, 57, 64
5, 157440, Note_on_c, 3, 62, 36
5, 157488, Note_off_c, 3, 62, 64
5, 157560, Note_on_c, 3, 67, 36
5, 157608, Note_off_c, 3, 67, 64
5, 157680, Note_on_c, 3, 67, 36
5, 157728, Note_off_c, 3, 67, 64
5, 157800, Note_on_c, 3, 67, 36
5, 157848, Note_off_c, 3, 67, 64
5, 157920, Note_on_c, 3, 67, 36
5, 157968, Note_off_c, 3, 67, 64
5, 158040, Note_on_c, 3, 67, 36
5, 158088, Note_off_c, 3, 67, 64
5, 158160, Note_on_c, 3, 67, 36
5, 158208, Note_off_c, 3, 67, 64
5, 158280, Note_on_c, 3, 67, 36
5, 158328, Note_off_c, 3, 67, 64
5, 158400, Note_on_c, 3, 66, 36
5, 158448, Note_off_c, 3, 66, 64
5, 158520, Note_on_c, 3, 66, 36
5, 158568, Note_off_c, 3, 66, 64
5, 158640, Note_on_c, 3, 71, 36
5, 158688, Note_off_c, 3, 71, 64
5, 158760, Note_on_c, 3, 71, 36
5, 158808, Note_off_c, 3, 71, 64
5, 158880, Note_on_c, 3, 67, 36
5, 158928, Note_off_c, 3, 67, 64
5, 159000, Note_on_c, 3, 67, 36
5, 159048, Note_off_c, 3, 67, 64
5, 159120, Note_on_c, 3, 69, 36
5, 159168, Note_off_c, 3, 69, 64
5, 159240, Note_on_c, 3, 69, 36
5, 159288, Note_off_c, 3, 69, 64
5, 159360, Note_on_c, 3, 69, 36
5, 159600, Note_off_c, 3, 69, 64
5, 159960, Note_on_c, 3, 69, 36
5, 160008, Note_off_c, 3, 69, 64
5, 160080, Note_on_c, 3, 69, 36
5, 160128, Note_off_c, 3, 69, 64
5, 160200, Note_on_c, 3, 69, 36
5, 160248, Note_off_c, 3, 69, 64
5, 160320, Note_on_c, 3, 71, 36
5, 160560, Note_off_c, 3, 71, 64
5, 160920, Note_on_c, 3, 71, 36
5, 160968, Note_off_c, 3, 71, 64
5, 161040, Note_on_c, 3, 71, 36
5, 161088, Note_off_c, 3, 71, 64
5, 161160, Note_on_c, 3, 71, 36
5, 161208, Note_off_c, 3, 71, 64
5, 161280, Note_on_c, 3, 69, 36
5, 161400, Note_off_c, 3, 69, 64
5, 161400, Note_on_c, 3, 66, 36
5, 161448, Note_off_c, 3, 66, 64
5, 161520, Note_on_c, 3, 66, 36
5, 161568, Note_off_c, 3, 66, 64
5, 161640, Note_on_c, 3, 66, 36
5, 161688, Note_off_c, 3, 66, 64
5, 161760, Note_on_c, 3, 64, 36
5, 161808, Note_off_c, 3, 64, 64
5, 161880, Note_on_c, 3, 64, 36
5, 161928, Note_off_c, 3, 64, 64
5, 162000, Note_on_c, 3, 64, 36
5, 162048, Note_off_c, 3, 64, 64
5, 162120, Note_on_c, 3, 64, 36
5, 162168, Note_off_c, 3, 64, 64
5, 162240, Note_on_c, 3, 62, 36
5, 162480, Note_off_c, 3, 62, 64
5, 162840, Note_on_c, 3, 69, 36
5, 162888, Note_off_c, 3, 69, 64
5, 162960, Note_on_c, 3, 69, 36
5, 163008, Note_off_c, 3, 69, 64
5, 163080, Note_on_c, 3, 69, 36
5, 163128, Note_off_c, 3, 69, 64
5, 163200, Note_on_c, 3, 71, 36
5, 163440, Note_off_c, 3, 71, 64
5, 163800, Note_on_c, 3, 74, 36
5, 163848, Note_off_c, 3, 74, 64
5, 163920, Note_on_c, 3, 74, 36
5, 163968, Note_off_c, 3, 74, 64
5, 164040, Note_on_c, 3, 74, 36
5, 164088, Note_off_c, 3, 74, 64
5, 164160, Note_on_c, 3, 66, 62
5, 164208, Note_off_c, 3, 66, 64
5, 164280, Note_on_c, 3, 66, 36
5, 164328, Note_off_c, 3, 66, 64
5, 164400, Note_on_c, 3, 66, 36
5, 164448, Note_off_c, 3, 66, 64
5, 164520, Note_on_c, 3, 66, 36
5, 164568, Note_off_c, 3, 66, 64
5, 164640, Note_on_c, 3, 66, 36
5, 164688, Note_off_c, 3, 66, 64
5, 164760, Note_on_c, 3, 66, 36
5, 164808, Note_off_c, 3, 66, 64
5, 164880, Note_on_c, 3, 66, 36
5, 164928, Note_off_c, 3, 66, 64
5, 165000, Note_on_c, 3, 66, 36
5, 165048, Note_off_c, 3, 66, 64
5, 165120, Note_on_c, 3, 67, 36
5, 165180, Note_off_c, 3, 67, 64
5, 165180, Note_on_c, 3, 67, 36
5, 165240, Note_off_c, 3, 67, 64
5, 165240, Note_on_c, 3, 67, 36
5, 165300, Note_off_c, 3, 67, 64
5, 165300, Note_on_c, 3, 67, 36
5, 165360, Note_off_c, 3, 67, 64
5, 165360, Note_on_c, 3, 61, 39
5, 165420, Note_off_c, 3, 61, 64
5, 165420, Note_on_c, 3, 61, 39
5, 165480, Note_off_c, 3, 61, 64
5, 165480, Note_on_c, 3, 61, 42
5, 165540, Note_off_c, 3, 61, 64
5, 165540, Note_on_c, 3, 61, 42
5, 165600, Note_off_c, 3, 61, 64
5, 165600, Note_on_c, 3, 64, 45
5, 165660, Note_off_c, 3, 64, 64
5, 165660, Note_on_c, 3, 64, 45
5, 165720, Note_off_c, 3, 64, 64
5, 165720, Note_on_c, 3, 64, 49
5, 165780, Note_off_c, 3, 64, 64
5, 165780, Note_on_c, 3, 64, 49
5, 165840, Note_off_c, 3, 64, 64
5, 165840, Note_on_c, 3, 79, 52
5, 165900, Note_off_c, 3, 79, 64
5, 165900, Note_on_c, 3, 79, 52
5, 165960, Note_off_c, 3, 79, 64
5, 165960, Note_on_c, 3, 79, 55
5, 166020, Note_off_c, 3, 79, 64
5, 166020, Note_on_c, 3, 79, 55
5, 166080, Note_off_c, 3, 79, 64
5, 166080, Note_on_c, 3, 78, 103
5, 166320, Note_off_c, 3, 78, 64
5, 166320, Note_on_c, 3, 57, 103
5, 166320, Note_on_c, 3, 66, 103
5, 166800, Note_off_c, 3, 66, 64
5, 166800, Note_off_c, 3, 57, 64
5, 166800, Note_on_c, 3, 64, 103
5, 166860, Note_off_c, 3, 64, 64
5, 166860, Note_on_c, 3, 66, 103
5, 166920, Note_off_c, 3, 66, 64
5, 166920, Note_on_c, 3, 64, 103
5, 166980, Note_off_c, 3, 64, 64
5, 166980, Note_on_c, 3, 66, 103
5, 167040, Note_off_c, 3, 66, 64
5, 167040, Note_on_c, 3, 74, 103
5, 167280, Note_off_c, 3, 74, 64
5, 167280, Note_on_c, 3, 62, 103
5, 167760, Note_off_c, 3, 62, 64
5, 167760, Note_on_c, 3, 64, 103
5, 167820, Note_off_c, 3, 64, 64
5, 167820, Note_on_c, 3, 66, 103
5, 167880, Note_off_c, 3, 66, 64
5, 167880, Note_on_c, 3, 64, 103
5, 167940, Note_off_c, 3, 64, 64
5, 167940, Note_on_c, 3, 66, 103
5, 168000, Note_off_c, 3, 66, 64
5, 168000, Note_on_c, 3, 74, 103
5, 168240, Note_off_c, 3, 74, 64
5, 168240, Note_on_c, 3, 62, 103
5, 168720, Note_off_c, 3, 62, 64
5, 168720, Note_on_c, 3, 73, 103
5, 168780, Note_off_c, 3, 73, 64
5, 168780, Note_on_c, 3, 74, 103
5, 168840, Note_off_c, 3, 74, 64
5, 168840, Note_on_c, 3, 73, 103
5, 168900, Note_off_c, 3, 73, 64
5, 168900, Note_on_c, 3, 74, 103
5, 168960, Note_off_c, 3, 74, 64
5, 168960, Note_on_c, 3, 78, 103
5, 169080, Note_off_c, 3, 78, 64
5, 169080, Note_on_c, 3, 74, 103
5, 169200, Note_off_c, 3, 74, 64
5, 169200, Note_on_c, 3, 74, 103
5, 169230, Note_off_c, 3, 74, 64
5, 169230, Note_on_c, 3, 76, 103
5, 169260, Note_off_c, 3, 76, 64
5, 169260, Note_on_c, 3, 74, 103
5, 169290, Note_off_c, 3, 74, 64
5, 169290, Note_on_c, 3, 76, 103
5, 169320, Note_off_c, 3, 76, 64
5, 169320, Note_on_c, 3, 74, 103
5, 169350, Note_off_c, 3, 74, 64
5, 169350, Note_on_c, 3, 76, 103
5, 169380, Note_off_c, 3, 76, 64
5, 169380, Note_on_c, 3, 73, 103
5, 169410, Note_off_c, 3, 73, 64
5, 169410, Note_on_c, 3, 74, 103
5, 169440, Note_off_c, 3, 74, 64
5, 169440, Note_on_c, 3, 78, 103
5, 169488, Note_off_c, 3, 78, 64
5, 169560, Note_on_c, 3, 74, 103
5, 169608, Note_off_c, 3, 74, 64
5, 169680, Note_on_c, 3, 71, 103
5, 169728, Note_off_c, 3, 71, 64
5, 169800, Note_on_c, 3, 68, 103
5, 169848, Note_off_c, 3, 68, 64
5, 169920, Note_on_c, 3, 57, 103
5, 169920, Note_on_c, 3, 69, 103
5, 170400, Note_off_c, 3, 69, 64
5, 170400, Note_off_c, 3, 57, 64
5, 170880, Note_on_c, 3, 57, 103
5, 170880, Note_on_c, 3, 66, 103
5, 170903, Note_off_c, 3, 57, 64
5, 170928, Note_off_c, 3, 66, 64
5, 171000, Note_on_c, 3, 57, 103
5, 171000, Note_on_c, 3, 66, 103
5, 171240, Note_off_c, 3, 66, 64
5, 171240, Note_off_c, 3, 57, 64
5, 171240, Note_on_c, 3, 57, 103
5, 171240, Note_on_c, 3, 66, 103
5, 171263, Note_off_c, 3, 57, 64
5, 171288, Note_off_c, 3, 66, 64
5, 171360, Note_on_c, 3, 74, 103
5, 171360, Note_on_c, 3, 81, 103
5, 171383, Note_off_c, 3, 74, 64
5, 171408, Note_off_c, 3, 81, 64
5, 171480, Note_on_c, 3, 74, 103
5, 171480, Note_on_c, 3, 81, 103
5, 171720, Note_off_c, 3, 81, 64
5, 171720, Note_off_c, 3, 74, 64
5, 171720, Note_on_c, 3, 74, 103
5, 171720, Note_on_c, 3, 81, 103
5, 171743, Note_off_c, 3, 74, 64
5, 171768, Note_off_c, 3, 81, 64
5, 171840, Note_on_c, 3, 79, 103
5, 171900, Note_off_c, 3, 79, 64
5, 171900, Note_on_c, 3, 81, 103
5, 171960, Note_off_c, 3, 81, 64
5, 171960, Note_on_c, 3, 83, 103
5, 172020, Note_off_c, 3, 83, 64
5, 172020, Note_on_c, 3, 81, 103
5, 172080, Note_off_c, 3, 81, 64
5, 172080, Note_on_c, 3, 83, 103
5, 172200, Note_off_c, 3, 83, 64
5, 172320, Note_on_c, 3, 76, 103
5, 172380, Note_off_c, 3, 76, 64
5, 172380, Note_on_c, 3, 78, 103
5, 172440, Note_off_c, 3, 78, 64
5, 172440, Note_on_c, 3, 79, 103
5, 172500, Note_off_c, 3, 79, 64
5, 172500, Note_on_c, 3, 78, 103
5, 172560, Note_off_c, 3, 78, 64
5, 172560, Note_on_c, 3, 79, 103
5, 172608, Note_off_c, 3, 79, 64
5, 172680, Note_on_c, 3, 76, 103
5, 172728, Note_off_c, 3, 76, 64
5, 172800, Note_on_c, 3, 74, 103
5, 172848, Note_off_c, 3, 74, 64
5, 172920, Note_on_c, 3, 78, 103
5, 172980, Note_off_c, 3, 78, 64
5, 172980, Note_on_c, 3, 74, 103
5, 173040, Note_off_c, 3, 74, 64
5, 173040, Note_on_c, 3, 69, 103
5, 173088, Note_off_c, 3, 69, 64
5, 173160, Note_on_c, 3, 74, 103
5, 173220, Note_off_c, 3, 74, 64
5, 173220, Note_on_c, 3, 69, 103
5, 173280, Note_off_c, 3, 69, 64
5, 173280, Note_on_c, 3, 66, 103
5, 173328, Note_off_c, 3, 66, 64
5, 173400, Note_on_c, 3, 69, 103
5, 173460, Note_off_c, 3, 69, 64
5, 173460, Note_on_c, 3, 66, 103
5, 173520, Note_off_c, 3, 66, 64
5, 173520, Note_on_c, 3, 67, 103
5, 173568, Note_off_c, 3, 67, 64
5, 173640, Note_on_c, 3, 67, 103
5, 173700, Note_off_c, 3, 67, 64
5, 173700, Note_on_c, 3, 66, 103
5, 173760, Note_off_c, 3, 66, 64
5, 173760, Note_on_c, 3, 62, 103
5, 174000, Note_off_c, 3, 62, 64
5, 174960, Note_on_c, 3, 66, 103
5, 175008, Note_off_c, 3, 66, 64
5, 175080, Note_on_c, 3, 62, 103
5, 175128, Note_off_c, 3, 62, 64
5, 175200, Note_on_c, 3, 74, 103
5, 175380, Note_off_c, 3, 74, 64
5, 175380, Note_on_c, 3, 78, 103
5, 175440, Note_off_c, 3, 78, 64
5, 175440, Note_on_c, 3, 78, 103
5, 175500, Note_off_c, 3, 78, 64
5, 175500, Note_on_c, 3, 76, 103
5, 175560, Note_off_c, 3, 76, 64
5, 175560, Note_on_c, 3, 74, 103
5, 175620, Note_off_c, 3, 74, 64
5, 175620, Note_on_c, 3, 73, 103
5, 175680, Note_off_c, 3, 73, 64
5, 175680, Note_on_c, 3, 74, 103
5, 175800, Note_off_c, 3, 74, 64
5, 176880, Note_on_c, 3, 66, 103
5, 176928, Note_off_c, 3, 66, 64
5, 177000, Note_on_c, 3, 62, 103
5, 177048, Note_off_c, 3, 62, 64
5, 177120, Note_on_c, 3, 74, 103
5, 177180, Note_off_c, 3, 74, 64
5, 177180, Note_on_c, 3, 78, 103
5, 177240, Note_off_c, 3, 78, 64
5, 177240, Note_on_c, 3, 74, 103
5, 177300, Note_off_c, 3, 74, 64
5, 177300, Note_on_c, 3, 78, 103
5, 177360, Note_off_c, 3, 78, 64
5, 177360, Note_on_c, 3, 78, 103
5, 177420, Note_off_c, 3, 78, 64
5, 177420, Note_on_c, 3, 76, 103
5, 177480, Note_off_c, 3, 76, 64
5, 177480, Note_on_c, 3, 74, 103
5, 177540, Note_off_c, 3, 74, 64
5, 177540, Note_on_c, 3, 73, 103
5, 177600, Note_off_c, 3, 73, 64
5, 177600, Note_on_c, 3, 74, 103
5, 177648, Note_off_c, 3, 74, 64
5, 177720, Note_on_c, 3, 78, 103
5, 177780, Note_off_c, 3, 78, 64
5, 177780, Note_on_c, 3, 74, 103
5, 177840, Note_off_c, 3, 74, 64
5, 177840, Note_on_c, 3, 81, 103
5, 177900, Note_off_c, 3, 81, 64
5, 177900, Note_on_c, 3, 78, 103
5, 177960, Note_off_c, 3, 78, 64
5, 177960, Note_on_c, 3, 81, 103
5, 178020, Note_off_c, 3, 81, 64
5, 178020, Note_on_c, 3, 78, 103
5, 178080, Note_off_c, 3, 78, 64
5, 178080, Note_on_c, 3, 74, 103
5, 178140, Note_off_c, 3, 74, 64
5, 178140, Note_on_c, 3, 78, 103
5, 178200, Note_off_c, 3, 78, 64
5, 178200, Note_on_c, 3, 74, 103
5, 178260, Note_off_c, 3, 74, 64
5, 178260, Note_on_c, 3, 78, 103
5, 178320, Note_off_c, 3, 78, 64
5, 178320, Note_on_c, 3, 78, 103
5, 178380, Note_off_c, 3, 78, 64
5, 178380, Note_on_c, 3, 76, 103
5, 178440, Note_off_c, 3, 76, 64
5, 178440, Note_on_c, 3, 74, 103
5, 178500, Note_off_c, 3, 74, 64
5, 178500, Note_on_c, 3, 73, 103
5, 178560, Note_off_c, 3, 73, 64
5, 178560, Note_on_c, 3, 74, 103
5, 178608, Note_off_c, 3, 74, 64
5, 178680, Note_on_c, 3, 74, 103
5, 178728, Note_off_c, 3, 74, 64
5, 178800, Note_on_c, 3, 74, 103
5, 178830, Note_off_c, 3, 74, 64
5, 178830, Note_on_c, 3, 76, 103
5, 178860, Note_off_c, 3, 76, 64
5, 178860, Note_on_c, 3, 74, 103
5, 178890, Note_off_c, 3, 74, 64
5, 178890, Note_on_c, 3, 76, 103
5, 178920, Note_off_c, 3, 76, 64
5, 178920, Note_on_c, 3, 74, 103
5, 178950, Note_off_c, 3, 74, 64
5, 178950, Note_on_c, 3, 76, 103
5, 178980, Note_off_c, 3, 76, 64
5, 178980, Note_on_c, 3, 73, 103
5, 179010, Note_off_c, 3, 73, 64
5, 179010, Note_on_c, 3, 74, 103
5, 179040, Note_off_c, 3, 74, 64
5, 179040, Note_on_c, 3, 78, 103
5, 179088, Note_off_c, 3, 78, 64
5, 179160, Note_on_c, 3, 69, 103
5, 179208, Note_off_c, 3, 69, 64
5, 179280, Note_on_c, 3, 66, 103
5, 179328, Note_off_c, 3, 66, 64
5, 179400, Note_on_c, 3, 62, 103
5, 179448, Note_off_c, 3, 62, 64
5, 179520, Note_on_c, 3, 62, 103
5, 179616, Note_off_c, 3, 62, 64
5, 179760, Note_on_c, 3, 69, 103
5, 179760, Note_on_c, 3, 78, 103
5, 179940, Note_off_c, 3, 78, 64
5, 179940, Note_off_c, 3, 69, 64
5, 180000, Note_on_c, 3, 69, 103
5, 180000, Note_on_c, 3, 78, 103
5, 180240, Note_off_c, 3, 78, 64
5, 180240, Note_off_c, 3, 69, 64
5, 180240, End_track
6, 0, Start_track
6, 0, Title_t, "Viola     Youll like it !"
6, 0, Program_c, 4, 49
6, 0, Note_on_c, 4, 50, 100
6, 0, Note_on_c, 4, 62, 100
6, 0, Control_c, 4, 7, 85
6, 23, Note_off_c, 4, 50, 64
6, 48, Note_off_c, 4, 62, 64
6, 120, Note_on_c, 4, 50, 100
6, 120, Note_on_c, 4, 62, 100
6, 143, Note_off_c, 4, 50, 64
6, 168, Note_off_c, 4, 62, 64
6, 240, Note_on_c, 4, 50, 100
6, 240, Note_on_c, 4, 62, 100
6, 263, Note_off_c, 4, 50, 64
6, 288, Note_off_c, 4, 62, 64
6, 360, Note_on_c, 4, 50, 100
6, 360, Note_on_c, 4, 62, 100
6, 383, Note_off_c, 4, 50, 64
6, 408, Note_off_c, 4, 62, 64
6, 480, Note_on_c, 4, 50, 100
6, 480, Note_on_c, 4, 62, 100
6, 503, Note_off_c, 4, 50, 64
6, 528, Note_off_c, 4, 62, 64
6, 600, Note_on_c, 4, 50, 100
6, 600, Note_on_c, 4, 62, 100
6, 623, Note_off_c, 4, 50, 64
6, 648, Note_off_c, 4, 62, 64
6, 720, Note_on_c, 4, 50, 100
6, 720, Note_on_c, 4, 62, 100
6, 743, Note_off_c, 4, 50, 64
6, 768, Note_off_c, 4, 62, 64
6, 840, Note_on_c, 4, 50, 100
6, 840, Note_on_c, 4, 62, 100
6, 863, Note_off_c, 4, 50, 64
6, 888, Note_off_c, 4, 62, 64
6, 960, Note_on_c, 4, 50, 100
6, 960, Note_on_c, 4, 62, 100
6, 983, Note_off_c, 4, 50, 64
6, 1008, Note_off_c, 4, 62, 64
6, 1080, Note_on_c, 4, 50, 100
6, 1080, Note_on_c, 4, 62, 100
6, 1103, Note_off_c, 4, 50, 64
6, 1128, Note_off_c, 4, 62, 64
6, 1200, Note_on_c, 4, 50, 100
6, 1200, Note_on_c, 4, 62, 100
6, 1223, Note_off_c, 4, 50, 64
6, 1248, Note_off_c, 4, 62, 64
6, 1320, Note_on_c, 4, 50, 100
6, 1320, Note_on_c, 4, 62, 100
6, 1343, Note_off_c, 4, 50, 64
6, 1368, Note_off_c, 4, 62, 64
6, 1440, Note_on_c, 4, 50, 100
6, 1440, Note_on_c, 4, 62, 100
6, 1463, Note_off_c, 4, 50, 64
6, 1488, Note_off_c, 4, 62, 64
6, 1560, Note_on_c, 4, 50, 100
6, 1560, Note_on_c, 4, 62, 100
6, 1583, Note_off_c, 4, 50, 64
6, 1608, Note_off_c, 4, 62, 64
6, 1680, Note_on_c, 4, 50, 100
6, 1680, Note_on_c, 4, 62, 100
6, 1703, Note_off_c, 4, 50, 64
6, 1728, Note_off_c, 4, 62, 64
6, 1800, Note_on_c, 4, 50, 100
6, 1800, Note_on_c, 4, 62, 100
6, 1823, Note_off_c, 4, 50, 64
6, 1848, Note_off_c, 4, 62, 64
6, 1920, Note_on_c, 4, 50, 100
6, 1920, Note_on_c, 4, 62, 100
6, 1943, Note_off_c, 4, 50, 64
6, 1968, Note_off_c, 4, 62, 64
6, 2040, Note_on_c, 4, 50, 100
6, 2040, Note_on_c, 4, 62, 100
6, 2063, Note_off_c, 4, 50, 64
6, 2088, Note_off_c, 4, 62, 64
6, 2160, Note_on_c, 4, 50, 100
6, 2160, Note_on_c, 4, 62, 100
6, 2183, Note_off_c, 4, 50, 64
6, 2208, Note_off_c, 4, 62, 64
6, 2280, Note_on_c, 4, 50, 100
6, 2280, Note_on_c, 4, 62, 100
6, 2303, Note_off_c, 4, 50, 64
6, 2328, Note_off_c, 4, 62, 64
6, 2400, Note_on_c, 4, 62, 100
6, 2448, Note_off_c, 4, 62, 64
6, 2520, Note_on_c, 4, 62, 100
6, 2568, Note_off_c, 4, 62, 64
6, 2640, Note_on_c, 4, 62, 100
6, 2688, Note_off_c, 4, 62, 64
6, 2760, Note_on_c, 4, 62, 100
6, 2808, Note_off_c, 4, 62, 64
6, 2880, Note_on_c, 4, 71, 100
6, 3120, Note_off_c, 4, 71, 64
6, 3120, Note_on_c, 4, 67, 100
6, 3300, Note_off_c, 4, 67, 64
6, 3300, Note_on_c, 4, 69, 100
6, 3360, Note_off_c, 4, 69, 64
6, 3360, Note_on_c, 4, 71, 100
6, 3600, Note_off_c, 4, 71, 64
6, 3600, Note_on_c, 4, 73, 100
6, 3840, Note_off_c, 4, 73, 64
6, 3840, Note_on_c, 4, 74, 126
6, 3960, Note_off_c, 4, 74, 64
6, 3960, Note_on_c, 4, 54, 100
6, 3960, Note_on_c, 4, 62, 100
6, 3983, Note_off_c, 4, 54, 64
6, 4008, Note_off_c, 4, 62, 64
6, 4080, Note_on_c, 4, 54, 100
6, 4080, Note_on_c, 4, 62, 100
6, 4103, Note_off_c, 4, 54, 64
6, 4128, Note_off_c, 4, 62, 64
6, 4200, Note_on_c, 4, 54, 100
6, 4200, Note_on_c, 4, 62, 100
6, 4223, Note_off_c, 4, 54, 64
6, 4248, Note_off_c, 4, 62, 64
6, 4320, Note_on_c, 4, 54, 100
6, 4320, Note_on_c, 4, 62, 100
6, 4560, Note_off_c, 4, 62, 64
6, 4560, Note_off_c, 4, 54, 64
6, 4800, Note_on_c, 4, 57, 36
6, 4848, Note_off_c, 4, 57, 64
6, 4920, Note_on_c, 4, 57, 36
6, 4968, Note_off_c, 4, 57, 64
6, 5040, Note_on_c, 4, 57, 36
6, 5088, Note_off_c, 4, 57, 64
6, 5160, Note_on_c, 4, 57, 36
6, 5208, Note_off_c, 4, 57, 64
6, 5280, Note_on_c, 4, 57, 36
6, 5328, Note_off_c, 4, 57, 64
6, 5400, Note_on_c, 4, 57, 36
6, 5448, Note_off_c, 4, 57, 64
6, 5520, Note_on_c, 4, 57, 36
6, 5568, Note_off_c, 4, 57, 64
6, 5640, Note_on_c, 4, 57, 36
6, 5688, Note_off_c, 4, 57, 64
6, 5760, Note_on_c, 4, 59, 36
6, 5808, Note_off_c, 4, 59, 64
6, 5880, Note_on_c, 4, 59, 36
6, 5928, Note_off_c, 4, 59, 64
6, 6000, Note_on_c, 4, 59, 39
6, 6048, Note_off_c, 4, 59, 64
6, 6120, Note_on_c, 4, 59, 42
6, 6168, Note_off_c, 4, 59, 64
6, 6240, Note_on_c, 4, 59, 45
6, 6288, Note_off_c, 4, 59, 64
6, 6360, Note_on_c, 4, 59, 49
6, 6408, Note_off_c, 4, 59, 64
6, 6480, Note_on_c, 4, 59, 52
6, 6528, Note_off_c, 4, 59, 64
6, 6600, Note_on_c, 4, 59, 55
6, 6648, Note_off_c, 4, 59, 64
6, 6720, Note_on_c, 4, 64, 103
6, 6780, Note_off_c, 4, 64, 64
6, 6780, Note_on_c, 4, 64, 103
6, 6840, Note_off_c, 4, 64, 64
6, 6840, Note_on_c, 4, 64, 103
6, 6900, Note_off_c, 4, 64, 64
6, 6900, Note_on_c, 4, 64, 103
6, 6960, Note_off_c, 4, 64, 64
6, 6960, Note_on_c, 4, 64, 103
6, 7008, Note_off_c, 4, 64, 64
6, 7080, Note_on_c, 4, 67, 103
6, 7128, Note_off_c, 4, 67, 64
6, 7200, Note_on_c, 4, 66, 103
6, 7260, Note_off_c, 4, 66, 64
6, 7260, Note_on_c, 4, 66, 103
6, 7320, Note_off_c, 4, 66, 64
6, 7320, Note_on_c, 4, 66, 103
6, 7380, Note_off_c, 4, 66, 64
6, 7380, Note_on_c, 4, 66, 103
6, 7440, Note_off_c, 4, 66, 64
6, 7440, Note_on_c, 4, 66, 103
6, 7488, Note_off_c, 4, 66, 64
6, 7560, Note_on_c, 4, 74, 103
6, 7608, Note_off_c, 4, 74, 64
6, 7680, Note_on_c, 4, 73, 101
6, 7740, Note_off_c, 4, 73, 64
6, 7740, Note_on_c, 4, 73, 100
6, 7800, Note_off_c, 4, 73, 64
6, 7800, Note_on_c, 4, 73, 100
6, 7860, Note_off_c, 4, 73, 64
6, 7860, Note_on_c, 4, 73, 100
6, 7920, Note_off_c, 4, 73, 64
6, 7920, Note_on_c, 4, 74, 100
6, 7980, Note_off_c, 4, 74, 64
6, 7980, Note_on_c, 4, 74, 100
6, 8040, Note_off_c, 4, 74, 64
6, 8040, Note_on_c, 4, 74, 100
6, 8100, Note_off_c, 4, 74, 64
6, 8100, Note_on_c, 4, 74, 100
6, 8160, Note_off_c, 4, 74, 64
6, 8160, Note_on_c, 4, 76, 100
6, 8220, Note_off_c, 4, 76, 64
6, 8220, Note_on_c, 4, 76, 100
6, 8280, Note_off_c, 4, 76, 64
6, 8280, Note_on_c, 4, 76, 100
6, 8340, Note_off_c, 4, 76, 64
6, 8340, Note_on_c, 4, 76, 100
6, 8400, Note_off_c, 4, 76, 64
6, 8400, Note_on_c, 4, 67, 100
6, 8460, Note_off_c, 4, 67, 64
6, 8460, Note_on_c, 4, 67, 100
6, 8520, Note_off_c, 4, 67, 64
6, 8520, Note_on_c, 4, 67, 100
6, 8580, Note_off_c, 4, 67, 64
6, 8580, Note_on_c, 4, 67, 100
6, 8640, Note_off_c, 4, 67, 64
6, 8640, Note_on_c, 4, 66, 100
6, 9000, Note_off_c, 4, 66, 64
6, 9000, Note_on_c, 4, 61, 100
6, 9048, Note_off_c, 4, 61, 64
6, 9120, Note_on_c, 4, 62, 100
6, 9480, Note_off_c, 4, 62, 64
6, 9480, Note_on_c, 4, 74, 100
6, 9528, Note_off_c, 4, 74, 64
6, 9600, Note_on_c, 4, 73, 100
6, 9763, Note_off_c, 4, 73, 64
6, 9840, Note_on_c, 4, 69, 100
6, 10003, Note_off_c, 4, 69, 64
6, 10080, Note_on_c, 4, 57, 100
6, 10373, Note_off_c, 4, 57, 64
6, 11520, Note_on_c, 4, 66, 26
6, 12480, Note_off_c, 4, 66, 64
6, 12480, Note_on_c, 4, 67, 26
6, 12960, Note_off_c, 4, 67, 64
6, 12960, Note_on_c, 4, 64, 26
6, 13200, Note_off_c, 4, 64, 64
6, 13200, Note_on_c, 4, 69, 26
6, 13440, Note_off_c, 4, 69, 64
6, 13440, Note_on_c, 4, 66, 26
6, 13680, Note_off_c, 4, 66, 64
6, 13680, Note_on_c, 4, 66, 26
6, 14160, Note_off_c, 4, 66, 64
6, 14160, Note_on_c, 4, 66, 26
6, 14400, Note_off_c, 4, 66, 64
6, 14400, Note_on_c, 4, 67, 26
6, 14880, Note_off_c, 4, 67, 64
6, 14880, Note_on_c, 4, 64, 26
6, 15120, Note_off_c, 4, 64, 64
6, 15120, Note_on_c, 4, 69, 26
6, 15360, Note_off_c, 4, 69, 64
6, 15360, Note_on_c, 4, 66, 26
6, 15840, Note_off_c, 4, 66, 64
6, 15840, Note_on_c, 4, 67, 26
6, 16320, Note_off_c, 4, 67, 64
6, 16320, Note_on_c, 4, 69, 26
6, 17280, Note_off_c, 4, 69, 64
6, 17280, Note_on_c, 4, 69, 26
6, 17640, Note_off_c, 4, 69, 64
6, 17640, Note_on_c, 4, 66, 30
6, 17760, Note_off_c, 4, 66, 64
6, 17760, Note_on_c, 4, 67, 30
6, 18120, Note_off_c, 4, 67, 64
6, 18120, Note_on_c, 4, 64, 30
6, 18240, Note_off_c, 4, 64, 64
6, 18240, Note_on_c, 4, 66, 30
6, 18480, Note_off_c, 4, 66, 64
6, 18480, Note_on_c, 4, 69, 30
6, 18960, Note_off_c, 4, 69, 64
6, 18960, Note_on_c, 4, 69, 30
6, 19200, Note_off_c, 4, 69, 64
6, 19200, Note_on_c, 4, 74, 11
6, 19260, Note_off_c, 4, 74, 64
6, 19260, Note_on_c, 4, 74, 11
6, 19320, Note_off_c, 4, 74, 64
6, 19320, Note_on_c, 4, 74, 12
6, 19380, Note_off_c, 4, 74, 64
6, 19380, Note_on_c, 4, 74, 12
6, 19440, Note_off_c, 4, 74, 64
6, 19440, Note_on_c, 4, 74, 15
6, 19560, Note_off_c, 4, 74, 64
6, 19680, Note_on_c, 4, 74, 19
6, 19740, Note_off_c, 4, 74, 64
6, 19740, Note_on_c, 4, 74, 19
6, 19800, Note_off_c, 4, 74, 64
6, 19800, Note_on_c, 4, 74, 19
6, 19860, Note_off_c, 4, 74, 64
6, 19860, Note_on_c, 4, 74, 19
6, 19920, Note_off_c, 4, 74, 64
6, 19920, Note_on_c, 4, 74, 49
6, 20040, Note_off_c, 4, 74, 64
6, 20160, Note_on_c, 4, 74, 26
6, 20220, Note_off_c, 4, 74, 64
6, 20220, Note_on_c, 4, 74, 26
6, 20280, Note_off_c, 4, 74, 64
6, 20280, Note_on_c, 4, 74, 27
6, 20340, Note_off_c, 4, 74, 64
6, 20340, Note_on_c, 4, 74, 27
6, 20400, Note_off_c, 4, 74, 64
6, 20400, Note_on_c, 4, 74, 30
6, 20520, Note_off_c, 4, 74, 64
6, 20640, Note_on_c, 4, 74, 34
6, 20700, Note_off_c, 4, 74, 64
6, 20700, Note_on_c, 4, 74, 34
6, 20760, Note_off_c, 4, 74, 64
6, 20760, Note_on_c, 4, 74, 35
6, 20820, Note_off_c, 4, 74, 64
6, 20820, Note_on_c, 4, 74, 35
6, 20880, Note_off_c, 4, 74, 64
6, 20880, Note_on_c, 4, 74, 38
6, 21000, Note_off_c, 4, 74, 64
6, 21120, Note_on_c, 4, 66, 100
6, 21168, Note_off_c, 4, 66, 64
6, 21240, Note_on_c, 4, 69, 100
6, 21288, Note_off_c, 4, 69, 64
6, 21360, Note_on_c, 4, 66, 100
6, 21408, Note_off_c, 4, 66, 64
6, 21480, Note_on_c, 4, 69, 100
6, 21528, Note_off_c, 4, 69, 64
6, 21600, Note_on_c, 4, 66, 100
6, 21648, Note_off_c, 4, 66, 64
6, 21720, Note_on_c, 4, 69, 100
6, 21768, Note_off_c, 4, 69, 64
6, 21840, Note_on_c, 4, 66, 100
6, 21888, Note_off_c, 4, 66, 64
6, 21960, Note_on_c, 4, 69, 100
6, 22008, Note_off_c, 4, 69, 64
6, 22080, Note_on_c, 4, 62, 100
6, 22128, Note_off_c, 4, 62, 64
6, 22200, Note_on_c, 4, 62, 100
6, 22248, Note_off_c, 4, 62, 64
6, 22320, Note_on_c, 4, 62, 100
6, 22368, Note_off_c, 4, 62, 64
6, 22440, Note_on_c, 4, 62, 100
6, 22488, Note_off_c, 4, 62, 64
6, 22560, Note_on_c, 4, 71, 100
6, 22608, Note_off_c, 4, 71, 64
6, 22680, Note_on_c, 4, 71, 100
6, 22728, Note_off_c, 4, 71, 64
6, 22800, Note_on_c, 4, 71, 100
6, 22848, Note_off_c, 4, 71, 64
6, 22920, Note_on_c, 4, 71, 100
6, 22968, Note_off_c, 4, 71, 64
6, 23040, Note_on_c, 4, 69, 100
6, 23160, Note_off_c, 4, 69, 64
6, 23160, Note_on_c, 4, 74, 100
6, 23208, Note_off_c, 4, 74, 64
6, 23280, Note_on_c, 4, 66, 100
6, 23400, Note_off_c, 4, 66, 64
6, 23400, Note_on_c, 4, 69, 100
6, 23448, Note_off_c, 4, 69, 64
6, 23520, Note_on_c, 4, 66, 100
6, 23568, Note_off_c, 4, 66, 64
6, 23640, Note_on_c, 4, 66, 100
6, 23700, Note_off_c, 4, 66, 64
6, 23700, Note_on_c, 4, 62, 100
6, 23760, Note_off_c, 4, 62, 64
6, 23760, Note_on_c, 4, 64, 100
6, 23808, Note_off_c, 4, 64, 64
6, 23880, Note_on_c, 4, 64, 100
6, 23940, Note_off_c, 4, 64, 64
6, 23940, Note_on_c, 4, 61, 100
6, 24000, Note_off_c, 4, 61, 64
6, 24000, Note_on_c, 4, 62, 100
6, 24240, Note_off_c, 4, 62, 64
6, 25200, Note_on_c, 4, 57, 100
6, 25248, Note_off_c, 4, 57, 64
6, 25320, Note_on_c, 4, 69, 100
6, 25368, Note_off_c, 4, 69, 64
6, 25440, Note_on_c, 4, 69, 100
6, 25488, Note_off_c, 4, 69, 64
6, 25560, Note_on_c, 4, 69, 100
6, 25608, Note_off_c, 4, 69, 64
6, 25680, Note_on_c, 4, 69, 100
6, 25728, Note_off_c, 4, 69, 64
6, 25800, Note_on_c, 4, 69, 100
6, 25848, Note_off_c, 4, 69, 64
6, 25920, Note_on_c, 4, 57, 100
6, 25920, Note_on_c, 4, 66, 100
6, 26040, Note_off_c, 4, 66, 64
6, 26040, Note_off_c, 4, 57, 64
6, 27120, Note_on_c, 4, 57, 100
6, 27168, Note_off_c, 4, 57, 64
6, 27240, Note_on_c, 4, 69, 100
6, 27288, Note_off_c, 4, 69, 64
6, 27360, Note_on_c, 4, 69, 100
6, 27408, Note_off_c, 4, 69, 64
6, 27480, Note_on_c, 4, 69, 100
6, 27528, Note_off_c, 4, 69, 64
6, 27600, Note_on_c, 4, 69, 100
6, 27648, Note_off_c, 4, 69, 64
6, 27720, Note_on_c, 4, 69, 100
6, 27768, Note_off_c, 4, 69, 64
6, 27840, Note_on_c, 4, 69, 100
6, 27888, Note_off_c, 4, 69, 64
6, 27960, Note_on_c, 4, 69, 100
6, 28008, Note_off_c, 4, 69, 64
6, 28080, Note_on_c, 4, 69, 100
6, 28128, Note_off_c, 4, 69, 64
6, 28200, Note_on_c, 4, 69, 100
6, 28248, Note_off_c, 4, 69, 64
6, 28320, Note_on_c, 4, 57, 100
6, 28320, Note_on_c, 4, 69, 100
6, 28343, Note_off_c, 4, 57, 64
6, 28368, Note_off_c, 4, 69, 64
6, 28440, Note_on_c, 4, 57, 100
6, 28440, Note_on_c, 4, 69, 100
6, 28463, Note_off_c, 4, 57, 64
6, 28488, Note_off_c, 4, 69, 64
6, 28560, Note_on_c, 4, 57, 100
6, 28560, Note_on_c, 4, 69, 100
6, 28583, Note_off_c, 4, 57, 64
6, 28608, Note_off_c, 4, 69, 64
6, 28680, Note_on_c, 4, 57, 100
6, 28680, Note_on_c, 4, 69, 100
6, 28703, Note_off_c, 4, 57, 64
6, 28728, Note_off_c, 4, 69, 64
6, 28800, Note_on_c, 4, 57, 100
6, 28800, Note_on_c, 4, 66, 100
6, 28823, Note_off_c, 4, 57, 64
6, 28848, Note_off_c, 4, 66, 64
6, 28920, Note_on_c, 4, 62, 100
6, 28968, Note_off_c, 4, 62, 64
6, 29040, Note_on_c, 4, 62, 100
6, 29070, Note_off_c, 4, 62, 64
6, 29070, Note_on_c, 4, 64, 100
6, 29100, Note_off_c, 4, 64, 64
6, 29100, Note_on_c, 4, 62, 100
6, 29130, Note_off_c, 4, 62, 64
6, 29130, Note_on_c, 4, 64, 100
6, 29160, Note_off_c, 4, 64, 64
6, 29160, Note_on_c, 4, 62, 100
6, 29190, Note_off_c, 4, 62, 64
6, 29190, Note_on_c, 4, 64, 100
6, 29220, Note_off_c, 4, 64, 64
6, 29220, Note_on_c, 4, 61, 100
6, 29250, Note_off_c, 4, 61, 64
6, 29250, Note_on_c, 4, 62, 100
6, 29280, Note_off_c, 4, 62, 64
6, 29280, Note_on_c, 4, 66, 100
6, 29328, Note_off_c, 4, 66, 64
6, 29400, Note_on_c, 4, 62, 100
6, 29448, Note_off_c, 4, 62, 64
6, 29520, Note_on_c, 4, 57, 100
6, 29568, Note_off_c, 4, 57, 64
6, 29640, Note_on_c, 4, 54, 100
6, 29688, Note_off_c, 4, 54, 64
6, 29760, Note_on_c, 4, 50, 100
6, 30000, Note_off_c, 4, 50, 64
6, 30720, Note_on_c, 4, 62, 36
6, 30768, Note_off_c, 4, 62, 64
6, 30840, Note_on_c, 4, 62, 36
6, 30888, Note_off_c, 4, 62, 64
6, 30960, Note_on_c, 4, 62, 36
6, 31008, Note_off_c, 4, 62, 64
6, 31080, Note_on_c, 4, 62, 36
6, 31128, Note_off_c, 4, 62, 64
6, 31200, Note_on_c, 4, 62, 36
6, 31248, Note_off_c, 4, 62, 64
6, 31320, Note_on_c, 4, 62, 36
6, 31368, Note_off_c, 4, 62, 64
6, 31440, Note_on_c, 4, 62, 36
6, 31488, Note_off_c, 4, 62, 64
6, 31560, Note_on_c, 4, 62, 36
6, 31608, Note_off_c, 4, 62, 64
6, 31680, Note_on_c, 4, 62, 36
6, 31728, Note_off_c, 4, 62, 64
6, 31800, Note_on_c, 4, 62, 36
6, 31848, Note_off_c, 4, 62, 64
6, 31920, Note_on_c, 4, 62, 36
6, 31968, Note_off_c, 4, 62, 64
6, 32040, Note_on_c, 4, 62, 36
6, 32088, Note_off_c, 4, 62, 64
6, 32160, Note_on_c, 4, 62, 36
6, 32208, Note_off_c, 4, 62, 64
6, 32280, Note_on_c, 4, 62, 36
6, 32328, Note_off_c, 4, 62, 64
6, 32400, Note_on_c, 4, 64, 36
6, 32448, Note_off_c, 4, 64, 64
6, 32520, Note_on_c, 4, 64, 36
6, 32568, Note_off_c, 4, 64, 64
6, 32640, Note_on_c, 4, 57, 36
6, 32760, Note_off_c, 4, 57, 64
6, 32760, Note_on_c, 4, 62, 36
6, 32808, Note_off_c, 4, 62, 64
6, 32880, Note_on_c, 4, 62, 36
6, 32928, Note_off_c, 4, 62, 64
6, 33000, Note_on_c, 4, 62, 36
6, 33048, Note_off_c, 4, 62, 64
6, 33120, Note_on_c, 4, 69, 36
6, 33168, Note_off_c, 4, 69, 64
6, 33240, Note_on_c, 4, 69, 36
6, 33288, Note_off_c, 4, 69, 64
6, 33360, Note_on_c, 4, 69, 36
6, 33408, Note_off_c, 4, 69, 64
6, 33480, Note_on_c, 4, 69, 36
6, 33528, Note_off_c, 4, 69, 64
6, 33600, Note_on_c, 4, 71, 36
6, 33840, Note_off_c, 4, 71, 64
6, 33840, Note_on_c, 4, 67, 36
6, 33911, Note_off_c, 4, 67, 64
6, 34020, Note_on_c, 4, 69, 36
6, 34080, Note_off_c, 4, 69, 64
6, 34080, Note_on_c, 4, 71, 36
6, 34320, Note_off_c, 4, 71, 64
6, 34320, Note_on_c, 4, 73, 36
6, 34560, Note_off_c, 4, 73, 64
6, 34560, Note_on_c, 4, 74, 36
6, 34800, Note_off_c, 4, 74, 64
6, 40320, Note_on_c, 4, 64, 36
6, 40800, Note_off_c, 4, 64, 64
6, 40800, Note_on_c, 4, 57, 36
6, 41280, Note_off_c, 4, 57, 64
6, 41280, Note_on_c, 4, 57, 36
6, 41280, Note_on_c, 4, 69, 36
6, 43440, Note_off_c, 4, 69, 64
6, 43440, Note_off_c, 4, 57, 64
6, 43440, Note_on_c, 4, 66, 36
6, 43680, Note_off_c, 4, 66, 64
6, 43680, Note_on_c, 4, 67, 36
6, 43920, Note_off_c, 4, 67, 64
6, 43920, Note_on_c, 4, 69, 36
6, 44160, Note_off_c, 4, 69, 64
6, 44160, Note_on_c, 4, 69, 36
6, 44280, Note_off_c, 4, 69, 64
6, 44400, Note_on_c, 4, 57, 100
6, 44448, Note_off_c, 4, 57, 64
6, 44520, Note_on_c, 4, 69, 100
6, 44568, Note_off_c, 4, 69, 64
6, 44640, Note_on_c, 4, 69, 100
6, 44688, Note_off_c, 4, 69, 64
6, 44760, Note_on_c, 4, 69, 100
6, 44808, Note_off_c, 4, 69, 64
6, 44880, Note_on_c, 4, 69, 100
6, 44928, Note_off_c, 4, 69, 64
6, 45000, Note_on_c, 4, 69, 100
6, 45048, Note_off_c, 4, 69, 64
6, 45120, Note_on_c, 4, 69, 100
6, 45168, Note_off_c, 4, 69, 64
6, 45240, Note_on_c, 4, 69, 100
6, 45288, Note_off_c, 4, 69, 64
6, 45360, Note_on_c, 4, 69, 100
6, 45408, Note_off_c, 4, 69, 64
6, 45480, Note_on_c, 4, 69, 100
6, 45528, Note_off_c, 4, 69, 64
6, 45600, Note_on_c, 4, 57, 100
6, 45600, Note_on_c, 4, 69, 100
6, 45623, Note_off_c, 4, 57, 64
6, 45648, Note_off_c, 4, 69, 64
6, 45720, Note_on_c, 4, 57, 100
6, 45720, Note_on_c, 4, 69, 100
6, 45743, Note_off_c, 4, 57, 64
6, 45768, Note_off_c, 4, 69, 64
6, 45840, Note_on_c, 4, 57, 100
6, 45840, Note_on_c, 4, 69, 100
6, 45863, Note_off_c, 4, 57, 64
6, 45888, Note_off_c, 4, 69, 64
6, 45960, Note_on_c, 4, 57, 100
6, 45960, Note_on_c, 4, 69, 100
6, 45983, Note_off_c, 4, 57, 64
6, 46008, Note_off_c, 4, 69, 64
6, 46080, Note_on_c, 4, 57, 100
6, 46080, Note_on_c, 4, 66, 100
6, 46103, Note_off_c, 4, 57, 64
6, 46128, Note_off_c, 4, 66, 64
6, 46200, Note_on_c, 4, 62, 100
6, 46248, Note_off_c, 4, 62, 64
6, 46320, Note_on_c, 4, 62, 100
6, 46350, Note_off_c, 4, 62, 64
6, 46350, Note_on_c, 4, 64, 100
6, 46380, Note_off_c, 4, 64, 64
6, 46380, Note_on_c, 4, 62, 100
6, 46410, Note_off_c, 4, 62, 64
6, 46410, Note_on_c, 4, 64, 100
6, 46440, Note_off_c, 4, 64, 64
6, 46440, Note_on_c, 4, 62, 100
6, 46470, Note_off_c, 4, 62, 64
6, 46470, Note_on_c, 4, 64, 100
6, 46500, Note_off_c, 4, 64, 64
6, 46500, Note_on_c, 4, 61, 100
6, 46530, Note_off_c, 4, 61, 64
6, 46530, Note_on_c, 4, 62, 100
6, 46560, Note_off_c, 4, 62, 64
6, 46560, Note_on_c, 4, 66, 100
6, 46608, Note_off_c, 4, 66, 64
6, 46680, Note_on_c, 4, 62, 100
6, 46728, Note_off_c, 4, 62, 64
6, 46800, Note_on_c, 4, 57, 100
6, 46848, Note_off_c, 4, 57, 64
6, 46920, Note_on_c, 4, 54, 100
6, 46968, Note_off_c, 4, 54, 64
6, 47040, Note_on_c, 4, 50, 100
6, 47280, Note_off_c, 4, 50, 64
6, 48240, Note_on_c, 4, 66, 36
6, 48480, Note_off_c, 4, 66, 64
6, 48480, Note_on_c, 4, 64, 36
6, 48720, Note_off_c, 4, 64, 64
6, 48720, Note_on_c, 4, 62, 36
6, 48960, Note_off_c, 4, 62, 64
6, 49080, Note_on_c, 4, 69, 36
6, 49200, Note_off_c, 4, 69, 64
6, 49200, Note_on_c, 4, 69, 36
6, 49230, Note_off_c, 4, 69, 64
6, 49230, Note_on_c, 4, 71, 36
6, 49260, Note_off_c, 4, 71, 64
6, 49260, Note_on_c, 4, 69, 36
6, 49290, Note_off_c, 4, 69, 64
6, 49290, Note_on_c, 4, 71, 36
6, 49320, Note_off_c, 4, 71, 64
6, 49320, Note_on_c, 4, 69, 36
6, 49350, Note_off_c, 4, 69, 64
6, 49350, Note_on_c, 4, 71, 36
6, 49380, Note_off_c, 4, 71, 64
6, 49380, Note_on_c, 4, 68, 36
6, 49410, Note_off_c, 4, 68, 64
6, 49410, Note_on_c, 4, 69, 36
6, 49440, Note_off_c, 4, 69, 64
6, 49440, Note_on_c, 4, 73, 36
6, 49488, Note_off_c, 4, 73, 64
6, 49560, Note_on_c, 4, 69, 36
6, 49608, Note_off_c, 4, 69, 64
6, 49680, Note_on_c, 4, 64, 36
6, 49728, Note_off_c, 4, 64, 64
6, 49800, Note_on_c, 4, 61, 36
6, 49848, Note_off_c, 4, 61, 64
6, 49920, Note_on_c, 4, 57, 36
6, 50160, Note_off_c, 4, 57, 64
6, 51120, Note_on_c, 4, 67, 36
6, 51360, Note_off_c, 4, 67, 64
6, 51360, Note_on_c, 4, 66, 36
6, 51600, Note_off_c, 4, 66, 64
6, 51600, Note_on_c, 4, 61, 36
6, 51840, Note_off_c, 4, 61, 64
6, 51960, Note_on_c, 4, 62, 36
6, 52020, Note_off_c, 4, 62, 64
6, 52080, Note_on_c, 4, 62, 36
6, 52110, Note_off_c, 4, 62, 64
6, 52110, Note_on_c, 4, 64, 36
6, 52140, Note_off_c, 4, 64, 64
6, 52140, Note_on_c, 4, 62, 36
6, 52170, Note_off_c, 4, 62, 64
6, 52170, Note_on_c, 4, 64, 36
6, 52200, Note_off_c, 4, 64, 64
6, 52200, Note_on_c, 4, 62, 36
6, 52230, Note_off_c, 4, 62, 64
6, 52230, Note_on_c, 4, 64, 36
6, 52260, Note_off_c, 4, 64, 64
6, 52260, Note_on_c, 4, 61, 36
6, 52290, Note_off_c, 4, 61, 64
6, 52290, Note_on_c, 4, 62, 36
6, 52320, Note_off_c, 4, 62, 64
6, 52320, Note_on_c, 4, 66, 36
6, 52368, Note_off_c, 4, 66, 64
6, 52440, Note_on_c, 4, 62, 36
6, 52488, Note_off_c, 4, 62, 64
6, 52560, Note_on_c, 4, 57, 36
6, 52608, Note_off_c, 4, 57, 64
6, 52680, Note_on_c, 4, 54, 36
6, 52728, Note_off_c, 4, 54, 64
6, 52800, Note_on_c, 4, 50, 36
6, 53040, Note_off_c, 4, 50, 64
6, 61200, Note_on_c, 4, 64, 36
6, 61296, Note_off_c, 4, 64, 64
6, 61440, Note_on_c, 4, 64, 36
6, 61488, Note_off_c, 4, 64, 64
6, 61560, Note_on_c, 4, 64, 36
6, 61608, Note_off_c, 4, 64, 64
6, 61680, Note_on_c, 4, 64, 36
6, 61728, Note_off_c, 4, 64, 64
6, 61800, Note_on_c, 4, 64, 36
6, 61848, Note_off_c, 4, 64, 64
6, 61920, Note_on_c, 4, 64, 36
6, 62160, Note_off_c, 4, 64, 64
6, 62400, Note_on_c, 4, 59, 36
6, 62448, Note_off_c, 4, 59, 64
6, 62520, Note_on_c, 4, 59, 36
6, 62568, Note_off_c, 4, 59, 64
6, 62640, Note_on_c, 4, 59, 36
6, 62688, Note_off_c, 4, 59, 64
6, 62760, Note_on_c, 4, 59, 36
6, 62808, Note_off_c, 4, 59, 64
6, 62880, Note_on_c, 4, 59, 36
6, 63120, Note_off_c, 4, 59, 64
6, 63360, Note_on_c, 4, 64, 36
6, 63480, Note_off_c, 4, 64, 64
6, 63600, Note_on_c, 4, 64, 39
6, 63720, Note_off_c, 4, 64, 64
6, 63840, Note_on_c, 4, 64, 45
6, 63960, Note_off_c, 4, 64, 64
6, 64080, Note_on_c, 4, 64, 52
6, 64200, Note_off_c, 4, 64, 64
6, 64320, Note_on_c, 4, 64, 58
6, 64560, Note_off_c, 4, 64, 64
6, 64560, Note_on_c, 4, 57, 58
6, 64800, Note_off_c, 4, 57, 64
6, 65280, Note_on_c, 4, 66, 58
6, 65520, Note_off_c, 4, 66, 64
6, 65520, Note_on_c, 4, 57, 58
6, 65760, Note_off_c, 4, 57, 64
6, 66240, Note_on_c, 4, 67, 58
6, 66480, Note_off_c, 4, 67, 64
6, 66480, Note_on_c, 4, 57, 58
6, 66720, Note_off_c, 4, 57, 64
6, 67200, Note_on_c, 4, 62, 58
6, 67680, Note_off_c, 4, 62, 64
6, 67680, Note_on_c, 4, 64, 58
6, 68160, Note_off_c, 4, 64, 64
6, 68160, Note_on_c, 4, 65, 49
6, 68208, Note_off_c, 4, 65, 64
6, 68280, Note_on_c, 4, 65, 23
6, 68328, Note_off_c, 4, 65, 64
6, 68400, Note_on_c, 4, 65, 23
6, 68448, Note_off_c, 4, 65, 64
6, 68520, Note_on_c, 4, 65, 23
6, 68568, Note_off_c, 4, 65, 64
6, 68640, Note_on_c, 4, 65, 23
6, 68688, Note_off_c, 4, 65, 64
6, 68760, Note_on_c, 4, 65, 23
6, 68808, Note_off_c, 4, 65, 64
6, 68880, Note_on_c, 4, 65, 23
6, 68928, Note_off_c, 4, 65, 64
6, 69000, Note_on_c, 4, 65, 23
6, 69048, Note_off_c, 4, 65, 64
6, 69240, Note_on_c, 4, 59, 23
6, 69360, Note_off_c, 4, 59, 64
6, 69360, Note_on_c, 4, 64, 23
6, 69408, Note_off_c, 4, 64, 64
6, 69480, Note_on_c, 4, 64, 23
6, 69528, Note_off_c, 4, 64, 64
6, 69720, Note_on_c, 4, 62, 23
6, 69768, Note_off_c, 4, 62, 64
6, 69840, Note_on_c, 4, 62, 23
6, 69888, Note_off_c, 4, 62, 64
6, 69960, Note_on_c, 4, 62, 23
6, 70008, Note_off_c, 4, 62, 64
6, 70200, Note_on_c, 4, 61, 23
6, 70248, Note_off_c, 4, 61, 64
6, 70440, Note_on_c, 4, 57, 26
6, 70488, Note_off_c, 4, 57, 64
6, 70680, Note_on_c, 4, 62, 32
6, 70728, Note_off_c, 4, 62, 64
6, 70920, Note_on_c, 4, 66, 39
6, 70968, Note_off_c, 4, 66, 64
6, 71040, Note_on_c, 4, 64, 42
6, 71088, Note_off_c, 4, 64, 64
6, 71160, Note_on_c, 4, 64, 45
6, 71208, Note_off_c, 4, 64, 64
6, 71280, Note_on_c, 4, 64, 48
6, 71328, Note_off_c, 4, 64, 64
6, 71400, Note_on_c, 4, 64, 51
6, 71448, Note_off_c, 4, 64, 64
6, 71520, Note_on_c, 4, 64, 54
6, 71568, Note_off_c, 4, 64, 64
6, 71640, Note_on_c, 4, 64, 58
6, 71688, Note_off_c, 4, 64, 64
6, 71760, Note_on_c, 4, 64, 61
6, 71808, Note_off_c, 4, 64, 64
6, 71880, Note_on_c, 4, 64, 64
6, 71928, Note_off_c, 4, 64, 64
6, 72000, Note_on_c, 4, 64, 103
6, 72048, Note_off_c, 4, 64, 64
6, 72120, Note_on_c, 4, 64, 103
6, 72168, Note_off_c, 4, 64, 64
6, 72240, Note_on_c, 4, 64, 103
6, 72288, Note_off_c, 4, 64, 64
6, 72360, Note_on_c, 4, 64, 103
6, 72408, Note_off_c, 4, 64, 64
6, 72480, Note_on_c, 4, 66, 103
6, 72528, Note_off_c, 4, 66, 64
6, 72600, Note_on_c, 4, 69, 103
6, 72648, Note_off_c, 4, 69, 64
6, 72720, Note_on_c, 4, 69, 103
6, 72768, Note_off_c, 4, 69, 64
6, 72840, Note_on_c, 4, 69, 103
6, 72888, Note_off_c, 4, 69, 64
6, 72960, Note_on_c, 4, 71, 103
6, 73103, Note_off_c, 4, 71, 64
6, 73200, Note_on_c, 4, 64, 103
6, 73200, Note_on_c, 4, 71, 103
6, 73343, Note_off_c, 4, 71, 64
6, 73343, Note_off_c, 4, 64, 64
6, 73440, Note_on_c, 4, 64, 103
6, 73800, Note_off_c, 4, 64, 64
6, 74880, Note_on_c, 4, 57, 36
6, 76800, Note_off_c, 4, 57, 64
6, 76800, Note_on_c, 4, 69, 36
6, 78960, Note_off_c, 4, 69, 64
6, 85440, Note_on_c, 4, 61, 36
6, 85680, Note_off_c, 4, 61, 64
6, 86040, Note_on_c, 4, 61, 36
6, 86088, Note_off_c, 4, 61, 64
6, 86160, Note_on_c, 4, 61, 36
6, 86208, Note_off_c, 4, 61, 64
6, 86280, Note_on_c, 4, 64, 36
6, 86328, Note_off_c, 4, 64, 64
6, 86400, Note_on_c, 4, 66, 36
6, 86640, Note_off_c, 4, 66, 64
6, 87000, Note_on_c, 4, 66, 36
6, 87048, Note_off_c, 4, 66, 64
6, 87120, Note_on_c, 4, 66, 36
6, 87168, Note_off_c, 4, 66, 64
6, 87240, Note_on_c, 4, 66, 36
6, 87288, Note_off_c, 4, 66, 64
6, 87360, Note_on_c, 4, 64, 36
6, 87408, Note_off_c, 4, 64, 64
6, 87480, Note_on_c, 4, 64, 36
6, 87528, Note_off_c, 4, 64, 64
6, 87600, Note_on_c, 4, 61, 36
6, 87648, Note_off_c, 4, 61, 64
6, 87720, Note_on_c, 4, 61, 36
6, 87768, Note_off_c, 4, 61, 64
6, 87840, Note_on_c, 4, 66, 36
6, 87888, Note_off_c, 4, 66, 64
6, 87960, Note_on_c, 4, 66, 36
6, 88008, Note_off_c, 4, 66, 64
6, 88080, Note_on_c, 4, 64, 36
6, 88128, Note_off_c, 4, 64, 64
6, 88200, Note_on_c, 4, 64, 36
6, 88248, Note_off_c, 4, 64, 64
6, 88320, Note_on_c, 4, 64, 36
6, 88560, Note_off_c, 4, 64, 64
6, 88920, Note_on_c, 4, 61, 36
6, 88968, Note_off_c, 4, 61, 64
6, 89040, Note_on_c, 4, 61, 36
6, 89088, Note_off_c, 4, 61, 64
6, 89160, Note_on_c, 4, 61, 36
6, 89208, Note_off_c, 4, 61, 64
6, 89280, Note_on_c, 4, 59, 36
6, 89520, Note_off_c, 4, 59, 64
6, 89880, Note_on_c, 4, 59, 36
6, 89928, Note_off_c, 4, 59, 64
6, 90000, Note_on_c, 4, 59, 36
6, 90048, Note_off_c, 4, 59, 64
6, 90120, Note_on_c, 4, 59, 36
6, 90168, Note_off_c, 4, 59, 64
6, 90240, Note_on_c, 4, 64, 62
6, 90288, Note_off_c, 4, 64, 64
6, 90360, Note_on_c, 4, 64, 36
6, 90408, Note_off_c, 4, 64, 64
6, 90480, Note_on_c, 4, 64, 36
6, 90528, Note_off_c, 4, 64, 64
6, 90600, Note_on_c, 4, 64, 36
6, 90648, Note_off_c, 4, 64, 64
6, 90720, Note_on_c, 4, 64, 36
6, 90768, Note_off_c, 4, 64, 64
6, 90840, Note_on_c, 4, 64, 36
6, 90888, Note_off_c, 4, 64, 64
6, 90960, Note_on_c, 4, 64, 36
6, 91008, Note_off_c, 4, 64, 64
6, 91080, Note_on_c, 4, 64, 36
6, 91128, Note_off_c, 4, 64, 64
6, 91200, Note_on_c, 4, 64, 36
6, 91260, Note_off_c, 4, 64, 64
6, 91260, Note_on_c, 4, 64, 36
6, 91320, Note_off_c, 4, 64, 64
6, 91320, Note_on_c, 4, 64, 36
6, 91380, Note_off_c, 4, 64, 64
6, 91380, Note_on_c, 4, 64, 36
6, 91440, Note_off_c, 4, 64, 64
6, 91440, Note_on_c, 4, 64, 39
6, 91500, Note_off_c, 4, 64, 64
6, 91500, Note_on_c, 4, 64, 39
6, 91560, Note_off_c, 4, 64, 64
6, 91560, Note_on_c, 4, 64, 42
6, 91620, Note_off_c, 4, 64, 64
6, 91620, Note_on_c, 4, 64, 42
6, 91680, Note_off_c, 4, 64, 64
6, 91680, Note_on_c, 4, 64, 45
6, 91740, Note_off_c, 4, 64, 64
6, 91740, Note_on_c, 4, 64, 45
6, 91800, Note_off_c, 4, 64, 64
6, 91800, Note_on_c, 4, 64, 49
6, 91860, Note_off_c, 4, 64, 64
6, 91860, Note_on_c, 4, 64, 49
6, 91920, Note_off_c, 4, 64, 64
6, 91920, Note_on_c, 4, 64, 52
6, 91980, Note_off_c, 4, 64, 64
6, 91980, Note_on_c, 4, 64, 52
6, 92040, Note_off_c, 4, 64, 64
6, 92040, Note_on_c, 4, 64, 55
6, 92100, Note_off_c, 4, 64, 64
6, 92100, Note_on_c, 4, 64, 55
6, 92160, Note_off_c, 4, 64, 64
6, 92160, Note_on_c, 4, 64, 103
6, 92208, Note_off_c, 4, 64, 64
6, 92280, Note_on_c, 4, 69, 103
6, 92328, Note_off_c, 4, 69, 64
6, 92400, Note_on_c, 4, 73, 103
6, 92448, Note_off_c, 4, 73, 64
6, 92520, Note_on_c, 4, 69, 103
6, 92568, Note_off_c, 4, 69, 64
6, 92640, Note_on_c, 4, 64, 103
6, 92688, Note_off_c, 4, 64, 64
6, 92760, Note_on_c, 4, 69, 103
6, 92808, Note_off_c, 4, 69, 64
6, 92880, Note_on_c, 4, 73, 103
6, 92928, Note_off_c, 4, 73, 64
6, 93000, Note_on_c, 4, 69, 103
6, 93048, Note_off_c, 4, 69, 64
6, 93120, Note_on_c, 4, 69, 103
6, 93168, Note_off_c, 4, 69, 64
6, 93240, Note_on_c, 4, 69, 103
6, 93288, Note_off_c, 4, 69, 64
6, 93360, Note_on_c, 4, 69, 103
6, 93408, Note_off_c, 4, 69, 64
6, 93480, Note_on_c, 4, 69, 103
6, 93528, Note_off_c, 4, 69, 64
6, 93600, Note_on_c, 4, 66, 103
6, 93648, Note_off_c, 4, 66, 64
6, 93720, Note_on_c, 4, 66, 103
6, 93768, Note_off_c, 4, 66, 64
6, 93840, Note_on_c, 4, 66, 103
6, 93888, Note_off_c, 4, 66, 64
6, 93960, Note_on_c, 4, 66, 103
6, 94008, Note_off_c, 4, 66, 64
6, 94080, Note_on_c, 4, 64, 103
6, 94128, Note_off_c, 4, 64, 64
6, 94200, Note_on_c, 4, 69, 103
6, 94248, Note_off_c, 4, 69, 64
6, 94320, Note_on_c, 4, 73, 103
6, 94368, Note_off_c, 4, 73, 64
6, 94440, Note_on_c, 4, 76, 103
6, 94488, Note_off_c, 4, 76, 64
6, 94560, Note_on_c, 4, 73, 103
6, 94680, Note_off_c, 4, 73, 64
6, 94680, Note_on_c, 4, 73, 103
6, 94740, Note_off_c, 4, 73, 64
6, 94740, Note_on_c, 4, 69, 103
6, 94800, Note_off_c, 4, 69, 64
6, 94800, Note_on_c, 4, 71, 103
6, 94920, Note_off_c, 4, 71, 64
6, 94920, Note_on_c, 4, 71, 103
6, 94980, Note_off_c, 4, 71, 64
6, 94980, Note_on_c, 4, 68, 103
6, 95040, Note_off_c, 4, 68, 64
6, 95040, Note_on_c, 4, 69, 103
6, 95280, Note_off_c, 4, 69, 64
6, 96240, Note_on_c, 4, 52, 103
6, 96288, Note_off_c, 4, 52, 64
6, 96360, Note_on_c, 4, 64, 103
6, 96408, Note_off_c, 4, 64, 64
6, 96480, Note_on_c, 4, 64, 103
6, 96528, Note_off_c, 4, 64, 64
6, 96600, Note_on_c, 4, 64, 103
6, 96648, Note_off_c, 4, 64, 64
6, 96720, Note_on_c, 4, 64, 103
6, 96768, Note_off_c, 4, 64, 64
6, 96840, Note_on_c, 4, 64, 103
6, 96888, Note_off_c, 4, 64, 64
6, 96960, Note_on_c, 4, 61, 103
6, 96960, Note_on_c, 4, 64, 103
6, 97080, Note_off_c, 4, 64, 64
6, 97080, Note_off_c, 4, 61, 64
6, 98160, Note_on_c, 4, 52, 103
6, 98208, Note_off_c, 4, 52, 64
6, 98280, Note_on_c, 4, 64, 103
6, 98328, Note_off_c, 4, 64, 64
6, 98400, Note_on_c, 4, 64, 103
6, 98448, Note_off_c, 4, 64, 64
6, 98520, Note_on_c, 4, 64, 103
6, 98568, Note_off_c, 4, 64, 64
6, 98640, Note_on_c, 4, 64, 103
6, 98688, Note_off_c, 4, 64, 64
6, 98760, Note_on_c, 4, 64, 103
6, 98808, Note_off_c, 4, 64, 64
6, 98880, Note_on_c, 4, 64, 103
6, 98928, Note_off_c, 4, 64, 64
6, 99000, Note_on_c, 4, 64, 103
6, 99048, Note_off_c, 4, 64, 64
6, 99120, Note_on_c, 4, 64, 103
6, 99168, Note_off_c, 4, 64, 64
6, 99240, Note_on_c, 4, 64, 103
6, 99288, Note_off_c, 4, 64, 64
6, 99360, Note_on_c, 4, 64, 103
6, 99360, Note_on_c, 4, 76, 103
6, 99383, Note_off_c, 4, 64, 64
6, 99408, Note_off_c, 4, 76, 64
6, 99480, Note_on_c, 4, 64, 103
6, 99480, Note_on_c, 4, 76, 103
6, 99503, Note_off_c, 4, 64, 64
6, 99528, Note_off_c, 4, 76, 64
6, 99600, Note_on_c, 4, 64, 103
6, 99600, Note_on_c, 4, 76, 103
6, 99623, Note_off_c, 4, 64, 64
6, 99648, Note_off_c, 4, 76, 64
6, 99720, Note_on_c, 4, 64, 103
6, 99720, Note_on_c, 4, 76, 103
6, 99743, Note_off_c, 4, 64, 64
6, 99768, Note_off_c, 4, 76, 64
6, 99840, Note_on_c, 4, 64, 103
6, 99840, Note_on_c, 4, 73, 103
6, 99863, Note_off_c, 4, 64, 64
6, 99888, Note_off_c, 4, 73, 64
6, 99960, Note_on_c, 4, 69, 103
6, 100008, Note_off_c, 4, 69, 64
6, 100080, Note_on_c, 4, 69, 103
6, 100110, Note_off_c, 4, 69, 64
6, 100110, Note_on_c, 4, 71, 103
6, 100140, Note_off_c, 4, 71, 64
6, 100140, Note_on_c, 4, 69, 103
6, 100170, Note_off_c, 4, 69, 64
6, 100170, Note_on_c, 4, 71, 103
6, 100200, Note_off_c, 4, 71, 64
6, 100200, Note_on_c, 4, 69, 103
6, 100230, Note_off_c, 4, 69, 64
6, 100230, Note_on_c, 4, 71, 103
6, 100260, Note_off_c, 4, 71, 64
6, 100260, Note_on_c, 4, 68, 103
6, 100290, Note_off_c, 4, 68, 64
6, 100290, Note_on_c, 4, 69, 103
6, 100320, Note_off_c, 4, 69, 64
6, 100320, Note_on_c, 4, 73, 103
6, 100368, Note_off_c, 4, 73, 64
6, 100440, Note_on_c, 4, 69, 103
6, 100488, Note_off_c, 4, 69, 64
6, 100560, Note_on_c, 4, 64, 103
6, 100608, Note_off_c, 4, 64, 64
6, 100680, Note_on_c, 4, 61, 103
6, 100728, Note_off_c, 4, 61, 64
6, 100800, Note_on_c, 4, 57, 103
6, 101040, Note_off_c, 4, 57, 64
6, 101760, Note_on_c, 4, 57, 36
6, 101808, Note_off_c, 4, 57, 64
6, 101880, Note_on_c, 4, 57, 36
6, 101928, Note_off_c, 4, 57, 64
6, 102000, Note_on_c, 4, 57, 36
6, 102048, Note_off_c, 4, 57, 64
6, 102120, Note_on_c, 4, 57, 36
6, 102168, Note_off_c, 4, 57, 64
6, 102240, Note_on_c, 4, 57, 36
6, 102288, Note_off_c, 4, 57, 64
6, 102360, Note_on_c, 4, 57, 36
6, 102408, Note_off_c, 4, 57, 64
6, 102480, Note_on_c, 4, 57, 36
6, 102528, Note_off_c, 4, 57, 64
6, 102600, Note_on_c, 4, 57, 36
6, 102648, Note_off_c, 4, 57, 64
6, 102720, Note_on_c, 4, 59, 36
6, 102768, Note_off_c, 4, 59, 64
6, 102840, Note_on_c, 4, 59, 36
6, 102888, Note_off_c, 4, 59, 64
6, 102960, Note_on_c, 4, 59, 36
6, 103008, Note_off_c, 4, 59, 64
6, 103080, Note_on_c, 4, 59, 36
6, 103128, Note_off_c, 4, 59, 64
6, 103200, Note_on_c, 4, 59, 36
6, 103248, Note_off_c, 4, 59, 64
6, 103320, Note_on_c, 4, 59, 36
6, 103368, Note_off_c, 4, 59, 64
6, 103440, Note_on_c, 4, 59, 36
6, 103488, Note_off_c, 4, 59, 64
6, 103560, Note_on_c, 4, 59, 36
6, 103608, Note_off_c, 4, 59, 64
6, 103680, Note_on_c, 4, 61, 36
6, 103680, Note_on_c, 4, 64, 36
6, 103703, Note_off_c, 4, 61, 64
6, 103728, Note_off_c, 4, 64, 64
6, 103800, Note_on_c, 4, 61, 36
6, 103800, Note_on_c, 4, 64, 36
6, 103823, Note_off_c, 4, 61, 64
6, 103848, Note_off_c, 4, 64, 64
6, 103920, Note_on_c, 4, 61, 36
6, 103920, Note_on_c, 4, 64, 36
6, 103943, Note_off_c, 4, 61, 64
6, 103968, Note_off_c, 4, 64, 64
6, 104040, Note_on_c, 4, 61, 36
6, 104040, Note_on_c, 4, 64, 36
6, 104063, Note_off_c, 4, 61, 64
6, 104088, Note_off_c, 4, 64, 64
6, 104160, Note_on_c, 4, 61, 36
6, 104160, Note_on_c, 4, 64, 36
6, 104183, Note_off_c, 4, 61, 64
6, 104208, Note_off_c, 4, 64, 64
6, 104280, Note_on_c, 4, 61, 36
6, 104280, Note_on_c, 4, 64, 36
6, 104303, Note_off_c, 4, 61, 64
6, 104328, Note_off_c, 4, 64, 64
6, 104400, Note_on_c, 4, 61, 36
6, 104400, Note_on_c, 4, 64, 36
6, 104423, Note_off_c, 4, 61, 64
6, 104448, Note_off_c, 4, 64, 64
6, 104520, Note_on_c, 4, 61, 36
6, 104520, Note_on_c, 4, 64, 36
6, 104543, Note_off_c, 4, 61, 64
6, 104568, Note_off_c, 4, 64, 64
6, 104640, Note_on_c, 4, 61, 36
6, 104640, Note_on_c, 4, 64, 36
6, 104663, Note_off_c, 4, 61, 64
6, 104688, Note_off_c, 4, 64, 64
6, 104760, Note_on_c, 4, 61, 36
6, 104760, Note_on_c, 4, 64, 36
6, 104783, Note_off_c, 4, 61, 64
6, 104808, Note_off_c, 4, 64, 64
6, 104880, Note_on_c, 4, 61, 36
6, 104880, Note_on_c, 4, 64, 36
6, 104903, Note_off_c, 4, 61, 64
6, 104928, Note_off_c, 4, 64, 64
6, 105000, Note_on_c, 4, 61, 36
6, 105000, Note_on_c, 4, 64, 36
6, 105023, Note_off_c, 4, 61, 64
6, 105048, Note_off_c, 4, 64, 64
6, 105120, Note_on_c, 4, 57, 36
6, 105120, Note_on_c, 4, 64, 36
6, 105143, Note_off_c, 4, 57, 64
6, 105168, Note_off_c, 4, 64, 64
6, 105240, Note_on_c, 4, 57, 36
6, 105240, Note_on_c, 4, 64, 36
6, 105263, Note_off_c, 4, 57, 64
6, 105288, Note_off_c, 4, 64, 64
6, 105360, Note_on_c, 4, 57, 36
6, 105360, Note_on_c, 4, 64, 36
6, 105383, Note_off_c, 4, 57, 64
6, 105408, Note_off_c, 4, 64, 64
6, 105480, Note_on_c, 4, 57, 36
6, 105480, Note_on_c, 4, 64, 36
6, 105503, Note_off_c, 4, 57, 64
6, 105528, Note_off_c, 4, 64, 64
6, 105600, Note_on_c, 4, 62, 36
6, 105648, Note_off_c, 4, 62, 64
6, 105720, Note_on_c, 4, 62, 36
6, 105768, Note_off_c, 4, 62, 64
6, 105840, Note_on_c, 4, 62, 36
6, 105888, Note_off_c, 4, 62, 64
6, 105960, Note_on_c, 4, 62, 36
6, 106008, Note_off_c, 4, 62, 64
6, 106080, Note_on_c, 4, 62, 36
6, 106128, Note_off_c, 4, 62, 64
6, 106200, Note_on_c, 4, 62, 36
6, 106248, Note_off_c, 4, 62, 64
6, 106320, Note_on_c, 4, 62, 36
6, 106368, Note_off_c, 4, 62, 64
6, 106440, Note_on_c, 4, 62, 36
6, 106488, Note_off_c, 4, 62, 64
6, 106560, Note_on_c, 4, 57, 36
6, 106608, Note_off_c, 4, 57, 64
6, 106680, Note_on_c, 4, 57, 36
6, 106728, Note_off_c, 4, 57, 64
6, 106800, Note_on_c, 4, 57, 36
6, 106848, Note_off_c, 4, 57, 64
6, 106920, Note_on_c, 4, 57, 36
6, 106968, Note_off_c, 4, 57, 64
6, 107040, Note_on_c, 4, 57, 36
6, 107088, Note_off_c, 4, 57, 64
6, 107160, Note_on_c, 4, 57, 36
6, 107208, Note_off_c, 4, 57, 64
6, 107280, Note_on_c, 4, 57, 36
6, 107328, Note_off_c, 4, 57, 64
6, 107400, Note_on_c, 4, 57, 36
6, 107448, Note_off_c, 4, 57, 64
6, 107520, Note_on_c, 4, 56, 36
6, 107568, Note_off_c, 4, 56, 64
6, 107640, Note_on_c, 4, 56, 36
6, 107688, Note_off_c, 4, 56, 64
6, 107760, Note_on_c, 4, 56, 36
6, 107808, Note_off_c, 4, 56, 64
6, 107880, Note_on_c, 4, 56, 36
6, 107928, Note_off_c, 4, 56, 64
6, 108000, Note_on_c, 4, 56, 36
6, 108048, Note_off_c, 4, 56, 64
6, 108120, Note_on_c, 4, 56, 36
6, 108168, Note_off_c, 4, 56, 64
6, 108240, Note_on_c, 4, 56, 36
6, 108288, Note_off_c, 4, 56, 64
6, 108360, Note_on_c, 4, 56, 36
6, 108408, Note_off_c, 4, 56, 64
6, 108480, Note_on_c, 4, 57, 36
6, 108720, Note_off_c, 4, 57, 64
6, 109320, Note_on_c, 4, 65, 23
6, 109440, Note_off_c, 4, 65, 64
6, 109440, Note_on_c, 4, 64, 23
6, 109680, Note_off_c, 4, 64, 64
6, 110280, Note_on_c, 4, 65, 36
6, 110400, Note_off_c, 4, 65, 64
6, 110400, Note_on_c, 4, 64, 36
6, 110496, Note_off_c, 4, 64, 64
6, 112320, Note_on_c, 4, 69, 36
6, 112368, Note_off_c, 4, 69, 64
6, 112440, Note_on_c, 4, 69, 36
6, 112488, Note_off_c, 4, 69, 64
6, 112560, Note_on_c, 4, 69, 39
6, 112608, Note_off_c, 4, 69, 64
6, 112680, Note_on_c, 4, 69, 42
6, 112728, Note_off_c, 4, 69, 64
6, 112800, Note_on_c, 4, 69, 45
6, 112848, Note_off_c, 4, 69, 64
6, 112920, Note_on_c, 4, 69, 49
6, 112968, Note_off_c, 4, 69, 64
6, 113040, Note_on_c, 4, 69, 52
6, 113088, Note_off_c, 4, 69, 64
6, 113160, Note_on_c, 4, 69, 55
6, 113208, Note_off_c, 4, 69, 64
6, 113280, Note_on_c, 4, 69, 58
6, 113328, Note_off_c, 4, 69, 64
6, 113400, Note_on_c, 4, 69, 58
6, 113448, Note_off_c, 4, 69, 64
6, 113520, Note_on_c, 4, 69, 58
6, 113568, Note_off_c, 4, 69, 64
6, 113640, Note_on_c, 4, 69, 58
6, 113688, Note_off_c, 4, 69, 64
6, 113760, Note_on_c, 4, 69, 61
6, 113808, Note_off_c, 4, 69, 64
6, 113880, Note_on_c, 4, 69, 64
6, 113928, Note_off_c, 4, 69, 64
6, 114000, Note_on_c, 4, 69, 67
6, 114048, Note_off_c, 4, 69, 64
6, 114120, Note_on_c, 4, 69, 71
6, 114168, Note_off_c, 4, 69, 64
6, 114240, Note_on_c, 4, 50, 103
6, 114240, Note_on_c, 4, 62, 103
6, 114263, Note_off_c, 4, 50, 64
6, 114288, Note_off_c, 4, 62, 64
6, 114360, Note_on_c, 4, 50, 106
6, 114360, Note_on_c, 4, 62, 106
6, 114383, Note_off_c, 4, 50, 64
6, 114408, Note_off_c, 4, 62, 64
6, 114480, Note_on_c, 4, 50, 109
6, 114480, Note_on_c, 4, 62, 109
6, 114503, Note_off_c, 4, 50, 64
6, 114528, Note_off_c, 4, 62, 64
6, 114600, Note_on_c, 4, 50, 109
6, 114600, Note_on_c, 4, 62, 109
6, 114623, Note_off_c, 4, 50, 64
6, 114648, Note_off_c, 4, 62, 64
6, 114720, Note_on_c, 4, 50, 109
6, 114720, Note_on_c, 4, 62, 109
6, 114743, Note_off_c, 4, 50, 64
6, 114768, Note_off_c, 4, 62, 64
6, 114840, Note_on_c, 4, 50, 109
6, 114840, Note_on_c, 4, 62, 109
6, 114863, Note_off_c, 4, 50, 64
6, 114888, Note_off_c, 4, 62, 64
6, 114960, Note_on_c, 4, 50, 109
6, 114960, Note_on_c, 4, 62, 109
6, 114983, Note_off_c, 4, 50, 64
6, 115008, Note_off_c, 4, 62, 64
6, 115080, Note_on_c, 4, 50, 109
6, 115080, Note_on_c, 4, 62, 109
6, 115103, Note_off_c, 4, 50, 64
6, 115128, Note_off_c, 4, 62, 64
6, 115200, Note_on_c, 4, 50, 109
6, 115200, Note_on_c, 4, 62, 109
6, 115223, Note_off_c, 4, 50, 64
6, 115248, Note_off_c, 4, 62, 64
6, 115320, Note_on_c, 4, 50, 109
6, 115320, Note_on_c, 4, 62, 109
6, 115343, Note_off_c, 4, 50, 64
6, 115368, Note_off_c, 4, 62, 64
6, 115440, Note_on_c, 4, 50, 109
6, 115440, Note_on_c, 4, 62, 109
6, 115463, Note_off_c, 4, 50, 64
6, 115488, Note_off_c, 4, 62, 64
6, 115560, Note_on_c, 4, 50, 109
6, 115560, Note_on_c, 4, 62, 109
6, 115583, Note_off_c, 4, 50, 64
6, 115608, Note_off_c, 4, 62, 64
6, 115680, Note_on_c, 4, 50, 109
6, 115680, Note_on_c, 4, 62, 109
6, 115703, Note_off_c, 4, 50, 64
6, 115728, Note_off_c, 4, 62, 64
6, 115800, Note_on_c, 4, 50, 109
6, 115800, Note_on_c, 4, 62, 109
6, 115823, Note_off_c, 4, 50, 64
6, 115848, Note_off_c, 4, 62, 64
6, 115920, Note_on_c, 4, 50, 109
6, 115920, Note_on_c, 4, 62, 109
6, 115943, Note_off_c, 4, 50, 64
6, 115968, Note_off_c, 4, 62, 64
6, 116040, Note_on_c, 4, 50, 109
6, 116040, Note_on_c, 4, 62, 109
6, 116063, Note_off_c, 4, 50, 64
6, 116088, Note_off_c, 4, 62, 64
6, 116160, Note_on_c, 4, 50, 36
6, 116160, Note_on_c, 4, 62, 36
6, 116183, Note_off_c, 4, 50, 64
6, 116208, Note_off_c, 4, 62, 64
6, 116280, Note_on_c, 4, 50, 36
6, 116280, Note_on_c, 4, 62, 36
6, 116303, Note_off_c, 4, 50, 64
6, 116328, Note_off_c, 4, 62, 64
6, 116400, Note_on_c, 4, 50, 36
6, 116400, Note_on_c, 4, 62, 36
6, 116423, Note_off_c, 4, 50, 64
6, 116448, Note_off_c, 4, 62, 64
6, 116520, Note_on_c, 4, 50, 36
6, 116520, Note_on_c, 4, 62, 36
6, 116543, Note_off_c, 4, 50, 64
6, 116568, Note_off_c, 4, 62, 64
6, 116640, Note_on_c, 4, 62, 36
6, 116880, Note_off_c, 4, 62, 64
6, 116880, Note_on_c, 4, 61, 36
6, 116940, Note_off_c, 4, 61, 64
6, 116940, Note_on_c, 4, 62, 36
6, 117000, Note_off_c, 4, 62, 64
6, 117000, Note_on_c, 4, 61, 36
6, 117060, Note_off_c, 4, 61, 64
6, 117060, Note_on_c, 4, 62, 36
6, 117120, Note_off_c, 4, 62, 64
6, 117120, Note_on_c, 4, 71, 36
6, 117360, Note_off_c, 4, 71, 64
6, 117360, Note_on_c, 4, 67, 36
6, 117540, Note_off_c, 4, 67, 64
6, 117540, Note_on_c, 4, 69, 36
6, 117600, Note_off_c, 4, 69, 64
6, 117600, Note_on_c, 4, 71, 36
6, 117840, Note_off_c, 4, 71, 64
6, 117840, Note_on_c, 4, 73, 36
6, 118080, Note_off_c, 4, 73, 64
6, 118080, Note_on_c, 4, 74, 36
6, 118128, Note_off_c, 4, 74, 64
6, 118200, Note_on_c, 4, 66, 36
6, 118320, Note_off_c, 4, 66, 64
6, 118320, Note_on_c, 4, 69, 36
6, 118440, Note_off_c, 4, 69, 64
6, 118440, Note_on_c, 4, 66, 36
6, 118488, Note_off_c, 4, 66, 64
6, 118680, Note_on_c, 4, 63, 36
6, 118728, Note_off_c, 4, 63, 64
6, 118800, Note_on_c, 4, 63, 36
6, 118848, Note_off_c, 4, 63, 64
6, 118920, Note_on_c, 4, 63, 36
6, 118968, Note_off_c, 4, 63, 64
6, 119160, Note_on_c, 4, 64, 36
6, 119208, Note_off_c, 4, 64, 64
6, 119280, Note_on_c, 4, 64, 36
6, 119328, Note_off_c, 4, 64, 64
6, 119400, Note_on_c, 4, 64, 36
6, 119448, Note_off_c, 4, 64, 64
6, 119640, Note_on_c, 4, 72, 36
6, 119688, Note_off_c, 4, 72, 64
6, 119760, Note_on_c, 4, 72, 36
6, 119808, Note_off_c, 4, 72, 64
6, 119880, Note_on_c, 4, 72, 36
6, 119928, Note_off_c, 4, 72, 64
6, 120120, Note_on_c, 4, 71, 36
6, 120240, Note_off_c, 4, 71, 64
6, 120240, Note_on_c, 4, 67, 36
6, 120360, Note_off_c, 4, 67, 64
6, 120360, Note_on_c, 4, 64, 36
6, 120408, Note_off_c, 4, 64, 64
6, 120600, Note_on_c, 4, 57, 36
6, 120648, Note_off_c, 4, 57, 64
6, 120720, Note_on_c, 4, 57, 36
6, 120768, Note_off_c, 4, 57, 64
6, 120840, Note_on_c, 4, 57, 36
6, 120888, Note_off_c, 4, 57, 64
6, 121080, Note_on_c, 4, 59, 36
6, 121128, Note_off_c, 4, 59, 64
6, 121200, Note_on_c, 4, 59, 36
6, 121248, Note_off_c, 4, 59, 64
6, 121320, Note_on_c, 4, 59, 36
6, 121368, Note_off_c, 4, 59, 64
6, 121440, Note_on_c, 4, 59, 36
6, 121488, Note_off_c, 4, 59, 64
6, 121560, Note_on_c, 4, 59, 36
6, 121608, Note_off_c, 4, 59, 64
6, 121680, Note_on_c, 4, 59, 36
6, 121728, Note_off_c, 4, 59, 64
6, 121800, Note_on_c, 4, 59, 36
6, 121848, Note_off_c, 4, 59, 64
6, 122040, Note_on_c, 4, 59, 36
6, 122088, Note_off_c, 4, 59, 64
6, 122160, Note_on_c, 4, 55, 36
6, 122208, Note_off_c, 4, 55, 64
6, 122280, Note_on_c, 4, 52, 36
6, 122328, Note_off_c, 4, 52, 64
6, 122520, Note_on_c, 4, 61, 36
6, 122568, Note_off_c, 4, 61, 64
6, 122640, Note_on_c, 4, 61, 36
6, 122688, Note_off_c, 4, 61, 64
6, 122760, Note_on_c, 4, 61, 36
6, 122808, Note_off_c, 4, 61, 64
6, 123000, Note_on_c, 4, 62, 36
6, 123048, Note_off_c, 4, 62, 64
6, 123120, Note_on_c, 4, 62, 36
6, 123168, Note_off_c, 4, 62, 64
6, 123240, Note_on_c, 4, 62, 36
6, 123288, Note_off_c, 4, 62, 64
6, 123480, Note_on_c, 4, 57, 36
6, 123528, Note_off_c, 4, 57, 64
6, 123600, Note_on_c, 4, 57, 36
6, 123648, Note_off_c, 4, 57, 64
6, 123720, Note_on_c, 4, 57, 36
6, 123768, Note_off_c, 4, 57, 64
6, 123960, Note_on_c, 4, 59, 36
6, 124008, Note_off_c, 4, 59, 64
6, 124080, Note_on_c, 4, 59, 36
6, 124128, Note_off_c, 4, 59, 64
6, 124200, Note_on_c, 4, 59, 36
6, 124248, Note_off_c, 4, 59, 64
6, 124440, Note_on_c, 4, 67, 36
6, 124488, Note_off_c, 4, 67, 64
6, 124560, Note_on_c, 4, 67, 36
6, 124608, Note_off_c, 4, 67, 64
6, 124680, Note_on_c, 4, 67, 36
6, 124728, Note_off_c, 4, 67, 64
6, 124800, Note_on_c, 4, 69, 36
6, 125280, Note_off_c, 4, 69, 64
6, 125280, Note_on_c, 4, 57, 36
6, 125760, Note_off_c, 4, 57, 64
6, 125760, Note_on_c, 4, 57, 36
6, 126000, Note_off_c, 4, 57, 64
6, 129720, Note_on_c, 4, 69, 36
6, 129840, Note_off_c, 4, 69, 64
6, 129840, Note_on_c, 4, 68, 36
6, 129960, Note_off_c, 4, 68, 64
6, 129960, Note_on_c, 4, 69, 36
6, 130080, Note_off_c, 4, 69, 64
6, 130080, Note_on_c, 4, 57, 36
6, 130128, Note_off_c, 4, 57, 64
6, 130200, Note_on_c, 4, 61, 36
6, 130248, Note_off_c, 4, 61, 64
6, 130320, Note_on_c, 4, 64, 36
6, 130368, Note_off_c, 4, 64, 64
6, 130440, Note_on_c, 4, 61, 36
6, 130488, Note_off_c, 4, 61, 64
6, 130560, Note_on_c, 4, 57, 36
6, 130800, Note_off_c, 4, 57, 64
6, 131640, Note_on_c, 4, 57, 36
6, 131688, Note_off_c, 4, 57, 64
6, 131760, Note_on_c, 4, 57, 36
6, 131808, Note_off_c, 4, 57, 64
6, 131880, Note_on_c, 4, 57, 36
6, 131928, Note_off_c, 4, 57, 64
6, 132000, Note_on_c, 4, 57, 36
6, 132048, Note_off_c, 4, 57, 64
6, 132120, Note_on_c, 4, 57, 36
6, 132168, Note_off_c, 4, 57, 64
6, 132240, Note_on_c, 4, 57, 36
6, 132288, Note_off_c, 4, 57, 64
6, 132360, Note_on_c, 4, 57, 36
6, 132408, Note_off_c, 4, 57, 64
6, 132480, Note_on_c, 4, 57, 36
6, 132720, Note_off_c, 4, 57, 64
6, 133560, Note_on_c, 4, 57, 36
6, 133608, Note_off_c, 4, 57, 64
6, 133680, Note_on_c, 4, 57, 36
6, 133728, Note_off_c, 4, 57, 64
6, 133800, Note_on_c, 4, 57, 36
6, 133848, Note_off_c, 4, 57, 64
6, 133920, Note_on_c, 4, 57, 36
6, 133968, Note_off_c, 4, 57, 64
6, 134040, Note_on_c, 4, 57, 36
6, 134088, Note_off_c, 4, 57, 64
6, 134160, Note_on_c, 4, 57, 36
6, 134208, Note_off_c, 4, 57, 64
6, 134280, Note_on_c, 4, 57, 36
6, 134328, Note_off_c, 4, 57, 64
6, 134400, Note_on_c, 4, 57, 36
6, 134640, Note_off_c, 4, 57, 64
6, 135480, Note_on_c, 4, 57, 36
6, 135528, Note_off_c, 4, 57, 64
6, 135600, Note_on_c, 4, 57, 36
6, 135648, Note_off_c, 4, 57, 64
6, 135720, Note_on_c, 4, 57, 36
6, 135768, Note_off_c, 4, 57, 64
6, 135840, Note_on_c, 4, 57, 36
6, 135888, Note_off_c, 4, 57, 64
6, 135960, Note_on_c, 4, 57, 36
6, 136008, Note_off_c, 4, 57, 64
6, 136080, Note_on_c, 4, 57, 36
6, 136128, Note_off_c, 4, 57, 64
6, 136200, Note_on_c, 4, 57, 36
6, 136248, Note_off_c, 4, 57, 64
6, 136320, Note_on_c, 4, 57, 36
6, 136560, Note_off_c, 4, 57, 64
6, 136560, Note_on_c, 4, 50, 36
6, 136800, Note_off_c, 4, 50, 64
6, 137280, Note_on_c, 4, 71, 36
6, 137520, Note_off_c, 4, 71, 64
6, 137520, Note_on_c, 4, 62, 36
6, 137760, Note_off_c, 4, 62, 64
6, 138240, Note_on_c, 4, 60, 36
6, 138480, Note_off_c, 4, 60, 64
6, 138480, Note_on_c, 4, 50, 36
6, 138720, Note_off_c, 4, 50, 64
6, 139200, Note_on_c, 4, 55, 36
6, 139680, Note_off_c, 4, 55, 64
6, 139680, Note_on_c, 4, 57, 36
6, 140160, Note_off_c, 4, 57, 64
6, 140160, Note_on_c, 4, 58, 62
6, 140208, Note_off_c, 4, 58, 64
6, 140280, Note_on_c, 4, 62, 36
6, 140328, Note_off_c, 4, 62, 64
6, 140400, Note_on_c, 4, 62, 36
6, 140448, Note_off_c, 4, 62, 64
6, 140520, Note_on_c, 4, 62, 36
6, 140568, Note_off_c, 4, 62, 64
6, 140640, Note_on_c, 4, 62, 36
6, 140688, Note_off_c, 4, 62, 64
6, 140760, Note_on_c, 4, 62, 36
6, 140808, Note_off_c, 4, 62, 64
6, 140880, Note_on_c, 4, 62, 36
6, 140928, Note_off_c, 4, 62, 64
6, 141000, Note_on_c, 4, 62, 36
6, 141048, Note_off_c, 4, 62, 64
6, 141240, Note_on_c, 4, 57, 36
6, 141288, Note_off_c, 4, 57, 64
6, 141360, Note_on_c, 4, 69, 36
6, 141408, Note_off_c, 4, 69, 64
6, 141480, Note_on_c, 4, 69, 36
6, 141528, Note_off_c, 4, 69, 64
6, 141720, Note_on_c, 4, 67, 36
6, 141768, Note_off_c, 4, 67, 64
6, 141840, Note_on_c, 4, 67, 36
6, 141888, Note_off_c, 4, 67, 64
6, 141960, Note_on_c, 4, 67, 36
6, 142008, Note_off_c, 4, 67, 64
6, 142200, Note_on_c, 4, 66, 36
6, 142248, Note_off_c, 4, 66, 64
6, 142440, Note_on_c, 4, 66, 36
6, 142488, Note_off_c, 4, 66, 64
6, 142680, Note_on_c, 4, 67, 39
6, 142728, Note_off_c, 4, 67, 64
6, 142920, Note_on_c, 4, 64, 45
6, 142968, Note_off_c, 4, 64, 64
6, 143040, Note_on_c, 4, 69, 49
6, 143088, Note_off_c, 4, 69, 64
6, 143160, Note_on_c, 4, 69, 52
6, 143208, Note_off_c, 4, 69, 64
6, 143280, Note_on_c, 4, 69, 58
6, 143328, Note_off_c, 4, 69, 64
6, 143400, Note_on_c, 4, 69, 64
6, 143448, Note_off_c, 4, 69, 64
6, 143520, Note_on_c, 4, 57, 67
6, 143568, Note_off_c, 4, 57, 64
6, 143640, Note_on_c, 4, 57, 71
6, 143688, Note_off_c, 4, 57, 64
6, 143760, Note_on_c, 4, 57, 74
6, 143808, Note_off_c, 4, 57, 64
6, 143880, Note_on_c, 4, 57, 77
6, 143928, Note_off_c, 4, 57, 64
6, 144000, Note_on_c, 4, 59, 103
6, 144048, Note_off_c, 4, 59, 64
6, 144120, Note_on_c, 4, 59, 103
6, 144168, Note_off_c, 4, 59, 64
6, 144240, Note_on_c, 4, 59, 103
6, 144288, Note_off_c, 4, 59, 64
6, 144360, Note_on_c, 4, 59, 103
6, 144408, Note_off_c, 4, 59, 64
6, 144480, Note_on_c, 4, 59, 103
6, 144528, Note_off_c, 4, 59, 64
6, 144600, Note_on_c, 4, 59, 103
6, 144648, Note_off_c, 4, 59, 64
6, 144720, Note_on_c, 4, 62, 103
6, 144768, Note_off_c, 4, 62, 64
6, 144840, Note_on_c, 4, 62, 103
6, 144888, Note_off_c, 4, 62, 64
6, 144960, Note_on_c, 4, 64, 103
6, 145140, Note_off_c, 4, 64, 64
6, 145200, Note_on_c, 4, 69, 103
6, 145380, Note_off_c, 4, 69, 64
6, 145440, Note_on_c, 4, 57, 103
6, 145620, Note_off_c, 4, 57, 64
6, 146880, Note_on_c, 4, 50, 36
6, 146880, Note_on_c, 4, 62, 36
6, 148800, Note_off_c, 4, 62, 64
6, 148800, Note_off_c, 4, 50, 64
6, 148800, Note_on_c, 4, 74, 36
6, 150960, Note_off_c, 4, 74, 64
6, 154560, Note_on_c, 4, 62, 36
6, 155040, Note_off_c, 4, 62, 64
6, 155040, Note_on_c, 4, 61, 36
6, 155520, Note_off_c, 4, 61, 64
6, 155520, Note_on_c, 4, 60, 36
6, 156000, Note_off_c, 4, 60, 64
6, 156000, Note_on_c, 4, 59, 36
6, 156480, Note_off_c, 4, 59, 64
6, 156480, Note_on_c, 4, 54, 36
6, 156840, Note_off_c, 4, 54, 64
6, 157440, Note_on_c, 4, 55, 36
6, 157800, Note_off_c, 4, 55, 64
6, 159360, Note_on_c, 4, 66, 36
6, 159600, Note_off_c, 4, 66, 64
6, 159960, Note_on_c, 4, 66, 36
6, 160008, Note_off_c, 4, 66, 64
6, 160080, Note_on_c, 4, 66, 36
6, 160128, Note_off_c, 4, 66, 64
6, 160200, Note_on_c, 4, 66, 36
6, 160248, Note_off_c, 4, 66, 64
6, 160320, Note_on_c, 4, 64, 36
6, 160560, Note_off_c, 4, 64, 64
6, 160920, Note_on_c, 4, 64, 36
6, 160968, Note_off_c, 4, 64, 64
6, 161040, Note_on_c, 4, 64, 36
6, 161088, Note_off_c, 4, 64, 64
6, 161160, Note_on_c, 4, 64, 36
6, 161208, Note_off_c, 4, 64, 64
6, 161280, Note_on_c, 4, 66, 36
6, 161328, Note_off_c, 4, 66, 64
6, 161400, Note_on_c, 4, 69, 36
6, 161448, Note_off_c, 4, 69, 64
6, 161520, Note_on_c, 4, 69, 36
6, 161568, Note_off_c, 4, 69, 64
6, 161640, Note_on_c, 4, 69, 36
6, 161688, Note_off_c, 4, 69, 64
6, 161760, Note_on_c, 4, 69, 36
6, 161808, Note_off_c, 4, 69, 64
6, 161880, Note_on_c, 4, 69, 36
6, 161928, Note_off_c, 4, 69, 64
6, 162000, Note_on_c, 4, 69, 36
6, 162048, Note_off_c, 4, 69, 64
6, 162120, Note_on_c, 4, 69, 36
6, 162168, Note_off_c, 4, 69, 64
6, 162240, Note_on_c, 4, 69, 36
6, 162480, Note_off_c, 4, 69, 64
6, 162840, Note_on_c, 4, 66, 36
6, 162888, Note_off_c, 4, 66, 64
6, 162960, Note_on_c, 4, 66, 36
6, 163008, Note_off_c, 4, 66, 64
6, 163080, Note_on_c, 4, 66, 36
6, 163128, Note_off_c, 4, 66, 64
6, 163200, Note_on_c, 4, 64, 36
6, 163440, Note_off_c, 4, 64, 64
6, 163800, Note_on_c, 4, 64, 36
6, 163848, Note_off_c, 4, 64, 64
6, 163920, Note_on_c, 4, 64, 36
6, 163968, Note_off_c, 4, 64, 64
6, 164040, Note_on_c, 4, 64, 36
6, 164088, Note_off_c, 4, 64, 64
6, 164160, Note_on_c, 4, 69, 62
6, 164208, Note_off_c, 4, 69, 64
6, 164280, Note_on_c, 4, 69, 36
6, 164328, Note_off_c, 4, 69, 64
6, 164400, Note_on_c, 4, 69, 36
6, 164448, Note_off_c, 4, 69, 64
6, 164520, Note_on_c, 4, 69, 36
6, 164568, Note_off_c, 4, 69, 64
6, 164640, Note_on_c, 4, 69, 36
6, 164688, Note_off_c, 4, 69, 64
6, 164760, Note_on_c, 4, 69, 36
6, 164808, Note_off_c, 4, 69, 64
6, 164880, Note_on_c, 4, 69, 36
6, 164928, Note_off_c, 4, 69, 64
6, 165000, Note_on_c, 4, 69, 36
6, 165048, Note_off_c, 4, 69, 64
6, 165120, Note_on_c, 4, 69, 36
6, 165180, Note_off_c, 4, 69, 64
6, 165180, Note_on_c, 4, 69, 36
6, 165240, Note_off_c, 4, 69, 64
6, 165240, Note_on_c, 4, 69, 36
6, 165300, Note_off_c, 4, 69, 64
6, 165300, Note_on_c, 4, 69, 36
6, 165360, Note_off_c, 4, 69, 64
6, 165360, Note_on_c, 4, 69, 39
6, 165420, Note_off_c, 4, 69, 64
6, 165420, Note_on_c, 4, 69, 39
6, 165480, Note_off_c, 4, 69, 64
6, 165480, Note_on_c, 4, 69, 42
6, 165540, Note_off_c, 4, 69, 64
6, 165540, Note_on_c, 4, 69, 42
6, 165600, Note_off_c, 4, 69, 64
6, 165600, Note_on_c, 4, 69, 45
6, 165660, Note_off_c, 4, 69, 64
6, 165660, Note_on_c, 4, 69, 45
6, 165720, Note_off_c, 4, 69, 64
6, 165720, Note_on_c, 4, 69, 49
6, 165780, Note_off_c, 4, 69, 64
6, 165780, Note_on_c, 4, 69, 49
6, 165840, Note_off_c, 4, 69, 64
6, 165840, Note_on_c, 4, 69, 52
6, 165900, Note_off_c, 4, 69, 64
6, 165900, Note_on_c, 4, 69, 52
6, 165960, Note_off_c, 4, 69, 64
6, 165960, Note_on_c, 4, 69, 55
6, 166020, Note_off_c, 4, 69, 64
6, 166020, Note_on_c, 4, 69, 55
6, 166080, Note_off_c, 4, 69, 64
6, 166080, Note_on_c, 4, 69, 103
6, 166200, Note_off_c, 4, 69, 64
6, 166200, Note_on_c, 4, 66, 103
6, 166248, Note_off_c, 4, 66, 64
6, 166320, Note_on_c, 4, 62, 103
6, 166368, Note_off_c, 4, 62, 64
6, 166440, Note_on_c, 4, 62, 103
6, 166488, Note_off_c, 4, 62, 64
6, 166560, Note_on_c, 4, 62, 103
6, 166608, Note_off_c, 4, 62, 64
6, 166680, Note_on_c, 4, 69, 103
6, 166920, Note_off_c, 4, 69, 64
6, 166920, Note_on_c, 4, 69, 103
6, 166968, Note_off_c, 4, 69, 64
6, 167040, Note_on_c, 4, 67, 103
6, 167160, Note_off_c, 4, 67, 64
6, 167160, Note_on_c, 4, 71, 103
6, 167208, Note_off_c, 4, 71, 64
6, 167280, Note_on_c, 4, 69, 103
6, 167328, Note_off_c, 4, 69, 64
6, 167400, Note_on_c, 4, 69, 103
6, 167448, Note_off_c, 4, 69, 64
6, 167520, Note_on_c, 4, 69, 103
6, 167568, Note_off_c, 4, 69, 64
6, 167640, Note_on_c, 4, 69, 103
6, 167880, Note_off_c, 4, 69, 64
6, 167880, Note_on_c, 4, 69, 103
6, 167928, Note_off_c, 4, 69, 64
6, 168000, Note_on_c, 4, 66, 103
6, 168120, Note_off_c, 4, 66, 64
6, 168120, Note_on_c, 4, 69, 103
6, 168168, Note_off_c, 4, 69, 64
6, 168240, Note_on_c, 4, 67, 103
6, 168288, Note_off_c, 4, 67, 64
6, 168360, Note_on_c, 4, 67, 103
6, 168600, Note_off_c, 4, 67, 64
6, 168600, Note_on_c, 4, 67, 103
6, 168840, Note_off_c, 4, 67, 64
6, 168840, Note_on_c, 4, 67, 103
6, 168888, Note_off_c, 4, 67, 64
6, 168960, Note_on_c, 4, 68, 103
6, 169080, Note_off_c, 4, 68, 64
6, 169080, Note_on_c, 4, 74, 103
6, 169200, Note_off_c, 4, 74, 64
6, 169200, Note_on_c, 4, 74, 103
6, 169230, Note_off_c, 4, 74, 64
6, 169230, Note_on_c, 4, 76, 103
6, 169260, Note_off_c, 4, 76, 64
6, 169260, Note_on_c, 4, 74, 103
6, 169290, Note_off_c, 4, 74, 64
6, 169290, Note_on_c, 4, 76, 103
6, 169320, Note_off_c, 4, 76, 64
6, 169320, Note_on_c, 4, 74, 103
6, 169350, Note_off_c, 4, 74, 64
6, 169350, Note_on_c, 4, 76, 103
6, 169380, Note_off_c, 4, 76, 64
6, 169380, Note_on_c, 4, 73, 103
6, 169410, Note_off_c, 4, 73, 64
6, 169410, Note_on_c, 4, 74, 103
6, 169440, Note_off_c, 4, 74, 64
6, 169440, Note_on_c, 4, 78, 103
6, 169488, Note_off_c, 4, 78, 64
6, 169560, Note_on_c, 4, 74, 103
6, 169608, Note_off_c, 4, 74, 64
6, 169680, Note_on_c, 4, 71, 103
6, 169728, Note_off_c, 4, 71, 64
6, 169800, Note_on_c, 4, 68, 103
6, 169848, Note_off_c, 4, 68, 64
6, 169920, Note_on_c, 4, 57, 103
6, 169920, Note_on_c, 4, 69, 103
6, 170400, Note_off_c, 4, 69, 64
6, 170400, Note_off_c, 4, 57, 64
6, 170880, Note_on_c, 4, 66, 103
6, 170928, Note_off_c, 4, 66, 64
6, 171000, Note_on_c, 4, 69, 103
6, 171048, Note_off_c, 4, 69, 64
6, 171120, Note_on_c, 4, 66, 103
6, 171168, Note_off_c, 4, 66, 64
6, 171240, Note_on_c, 4, 69, 103
6, 171288, Note_off_c, 4, 69, 64
6, 171360, Note_on_c, 4, 66, 103
6, 171408, Note_off_c, 4, 66, 64
6, 171480, Note_on_c, 4, 69, 103
6, 171528, Note_off_c, 4, 69, 64
6, 171600, Note_on_c, 4, 66, 103
6, 171648, Note_off_c, 4, 66, 64
6, 171720, Note_on_c, 4, 69, 103
6, 171768, Note_off_c, 4, 69, 64
6, 171840, Note_on_c, 4, 62, 103
6, 171888, Note_off_c, 4, 62, 64
6, 171960, Note_on_c, 4, 62, 103
6, 172008, Note_off_c, 4, 62, 64
6, 172080, Note_on_c, 4, 62, 103
6, 172128, Note_off_c, 4, 62, 64
6, 172200, Note_on_c, 4, 62, 103
6, 172248, Note_off_c, 4, 62, 64
6, 172320, Note_on_c, 4, 71, 103
6, 172368, Note_off_c, 4, 71, 64
6, 172440, Note_on_c, 4, 71, 103
6, 172488, Note_off_c, 4, 71, 64
6, 172560, Note_on_c, 4, 71, 103
6, 172608, Note_off_c, 4, 71, 64
6, 172680, Note_on_c, 4, 71, 103
6, 172728, Note_off_c, 4, 71, 64
6, 172800, Note_on_c, 4, 69, 103
6, 172920, Note_off_c, 4, 69, 64
6, 172920, Note_on_c, 4, 74, 103
6, 172968, Note_off_c, 4, 74, 64
6, 173040, Note_on_c, 4, 66, 103
6, 173160, Note_off_c, 4, 66, 64
6, 173160, Note_on_c, 4, 69, 103
6, 173208, Note_off_c, 4, 69, 64
6, 173280, Note_on_c, 4, 66, 103
6, 173328, Note_off_c, 4, 66, 64
6, 173400, Note_on_c, 4, 66, 103
6, 173460, Note_off_c, 4, 66, 64
6, 173460, Note_on_c, 4, 62, 103
6, 173520, Note_off_c, 4, 62, 64
6, 173520, Note_on_c, 4, 64, 103
6, 173700, Note_off_c, 4, 64, 64
6, 173700, Note_on_c, 4, 61, 103
6, 173760, Note_off_c, 4, 61, 64
6, 173760, Note_on_c, 4, 62, 103
6, 174000, Note_off_c, 4, 62, 64
6, 174960, Note_on_c, 4, 57, 103
6, 175008, Note_off_c, 4, 57, 64
6, 175080, Note_on_c, 4, 69, 103
6, 175128, Note_off_c, 4, 69, 64
6, 175200, Note_on_c, 4, 69, 103
6, 175248, Note_off_c, 4, 69, 64
6, 175320, Note_on_c, 4, 69, 103
6, 175368, Note_off_c, 4, 69, 64
6, 175440, Note_on_c, 4, 69, 103
6, 175488, Note_off_c, 4, 69, 64
6, 175560, Note_on_c, 4, 69, 103
6, 175608, Note_off_c, 4, 69, 64
6, 175680, Note_on_c, 4, 57, 103
6, 175680, Note_on_c, 4, 66, 103
6, 175800, Note_off_c, 4, 66, 64
6, 175800, Note_off_c, 4, 57, 64
6, 176880, Note_on_c, 4, 57, 103
6, 176928, Note_off_c, 4, 57, 64
6, 177000, Note_on_c, 4, 69, 103
6, 177048, Note_off_c, 4, 69, 64
6, 177120, Note_on_c, 4, 69, 103
6, 177168, Note_off_c, 4, 69, 64
6, 177240, Note_on_c, 4, 69, 103
6, 177288, Note_off_c, 4, 69, 64
6, 177360, Note_on_c, 4, 69, 103
6, 177408, Note_off_c, 4, 69, 64
6, 177480, Note_on_c, 4, 69, 103
6, 177528, Note_off_c, 4, 69, 64
6, 177600, Note_on_c, 4, 69, 103
6, 177648, Note_off_c, 4, 69, 64
6, 177720, Note_on_c, 4, 69, 103
6, 177768, Note_off_c, 4, 69, 64
6, 177840, Note_on_c, 4, 69, 103
6, 177888, Note_off_c, 4, 69, 64
6, 177960, Note_on_c, 4, 69, 103
6, 178008, Note_off_c, 4, 69, 64
6, 178080, Note_on_c, 4, 57, 103
6, 178080, Note_on_c, 4, 69, 103
6, 178103, Note_off_c, 4, 57, 64
6, 178128, Note_off_c, 4, 69, 64
6, 178200, Note_on_c, 4, 57, 103
6, 178200, Note_on_c, 4, 69, 103
6, 178223, Note_off_c, 4, 57, 64
6, 178248, Note_off_c, 4, 69, 64
6, 178320, Note_on_c, 4, 57, 103
6, 178320, Note_on_c, 4, 69, 103
6, 178343, Note_off_c, 4, 57, 64
6, 178368, Note_off_c, 4, 69, 64
6, 178440, Note_on_c, 4, 57, 103
6, 178440, Note_on_c, 4, 69, 103
6, 178463, Note_off_c, 4, 57, 64
6, 178488, Note_off_c, 4, 69, 64
6, 178560, Note_on_c, 4, 57, 103
6, 178560, Note_on_c, 4, 66, 103
6, 178583, Note_off_c, 4, 57, 64
6, 178608, Note_off_c, 4, 66, 64
6, 178680, Note_on_c, 4, 62, 103
6, 178728, Note_off_c, 4, 62, 64
6, 178800, Note_on_c, 4, 62, 103
6, 178830, Note_off_c, 4, 62, 64
6, 178830, Note_on_c, 4, 64, 103
6, 178860, Note_off_c, 4, 64, 64
6, 178860, Note_on_c, 4, 62, 103
6, 178890, Note_off_c, 4, 62, 64
6, 178890, Note_on_c, 4, 64, 103
6, 178920, Note_off_c, 4, 64, 64
6, 178920, Note_on_c, 4, 62, 103
6, 178950, Note_off_c, 4, 62, 64
6, 178950, Note_on_c, 4, 64, 103
6, 178980, Note_off_c, 4, 64, 64
6, 178980, Note_on_c, 4, 61, 103
6, 179010, Note_off_c, 4, 61, 64
6, 179010, Note_on_c, 4, 62, 103
6, 179040, Note_off_c, 4, 62, 64
6, 179040, Note_on_c, 4, 66, 103
6, 179088, Note_off_c, 4, 66, 64
6, 179160, Note_on_c, 4, 62, 103
6, 179208, Note_off_c, 4, 62, 64
6, 179280, Note_on_c, 4, 57, 103
6, 179328, Note_off_c, 4, 57, 64
6, 179400, Note_on_c, 4, 54, 103
6, 179448, Note_off_c, 4, 54, 64
6, 179520, Note_on_c, 4, 50, 103
6, 179760, Note_off_c, 4, 50, 64
6, 179760, Note_on_c, 4, 50, 103
6, 179760, Note_on_c, 4, 62, 103
6, 179940, Note_off_c, 4, 62, 64
6, 179940, Note_off_c, 4, 50, 64
6, 180000, Note_on_c, 4, 50, 103
6, 180000, Note_on_c, 4, 62, 103
6, 180240, Note_off_c, 4, 62, 64
6, 180240, Note_off_c, 4, 50, 64
6, 180240, End_track
7, 0, Start_track
7, 0, Title_t, "Cello     Pick your flute"
7, 0, Program_c, 5, 42
7, 0, Note_on_c, 5, 50, 100
7, 0, Control_c, 5, 7, 75
7, 48, Note_off_c, 5, 50, 64
7, 120, Note_on_c, 5, 50, 100
7, 168, Note_off_c, 5, 50, 64
7, 240, Note_on_c, 5, 50, 100
7, 288, Note_off_c, 5, 50, 64
7, 360, Note_on_c, 5, 50, 100
7, 408, Note_off_c, 5, 50, 64
7, 480, Note_on_c, 5, 50, 100
7, 528, Note_off_c, 5, 50, 64
7, 600, Note_on_c, 5, 50, 100
7, 648, Note_off_c, 5, 50, 64
7, 720, Note_on_c, 5, 50, 100
7, 768, Note_off_c, 5, 50, 64
7, 840, Note_on_c, 5, 50, 100
7, 888, Note_off_c, 5, 50, 64
7, 960, Note_on_c, 5, 50, 100
7, 1008, Note_off_c, 5, 50, 64
7, 1080, Note_on_c, 5, 50, 100
7, 1128, Note_off_c, 5, 50, 64
7, 1200, Note_on_c, 5, 50, 100
7, 1248, Note_off_c, 5, 50, 64
7, 1320, Note_on_c, 5, 50, 100
7, 1368, Note_off_c, 5, 50, 64
7, 1440, Note_on_c, 5, 50, 100
7, 1488, Note_off_c, 5, 50, 64
7, 1560, Note_on_c, 5, 50, 100
7, 1608, Note_off_c, 5, 50, 64
7, 1680, Note_on_c, 5, 50, 100
7, 1728, Note_off_c, 5, 50, 64
7, 1800, Note_on_c, 5, 50, 100
7, 1848, Note_off_c, 5, 50, 64
7, 1920, Note_on_c, 5, 50, 100
7, 1968, Note_off_c, 5, 50, 64
7, 2040, Note_on_c, 5, 50, 100
7, 2088, Note_off_c, 5, 50, 64
7, 2160, Note_on_c, 5, 50, 100
7, 2208, Note_off_c, 5, 50, 64
7, 2280, Note_on_c, 5, 50, 100
7, 2328, Note_off_c, 5, 50, 64
7, 2400, Note_on_c, 5, 50, 100
7, 2448, Note_off_c, 5, 50, 64
7, 2520, Note_on_c, 5, 50, 100
7, 2568, Note_off_c, 5, 50, 64
7, 2640, Note_on_c, 5, 50, 100
7, 2688, Note_off_c, 5, 50, 64
7, 2760, Note_on_c, 5, 50, 100
7, 2808, Note_off_c, 5, 50, 64
7, 2880, Note_on_c, 5, 50, 100
7, 2928, Note_off_c, 5, 50, 64
7, 3000, Note_on_c, 5, 50, 100
7, 3048, Note_off_c, 5, 50, 64
7, 3120, Note_on_c, 5, 50, 100
7, 3168, Note_off_c, 5, 50, 64
7, 3240, Note_on_c, 5, 50, 100
7, 3288, Note_off_c, 5, 50, 64
7, 3360, Note_on_c, 5, 50, 100
7, 3408, Note_off_c, 5, 50, 64
7, 3480, Note_on_c, 5, 50, 100
7, 3528, Note_off_c, 5, 50, 64
7, 3600, Note_on_c, 5, 50, 100
7, 3648, Note_off_c, 5, 50, 64
7, 3720, Note_on_c, 5, 50, 100
7, 3768, Note_off_c, 5, 50, 64
7, 3840, Note_on_c, 5, 50, 100
7, 3888, Note_off_c, 5, 50, 64
7, 3960, Note_on_c, 5, 62, 100
7, 4008, Note_off_c, 5, 62, 64
7, 4080, Note_on_c, 5, 50, 100
7, 4128, Note_off_c, 5, 50, 64
7, 4200, Note_on_c, 5, 50, 100
7, 4248, Note_off_c, 5, 50, 64
7, 4320, Note_on_c, 5, 50, 100
7, 4560, Note_off_c, 5, 50, 64
7, 4800, Note_on_c, 5, 54, 36
7, 4848, Note_off_c, 5, 54, 64
7, 4920, Note_on_c, 5, 54, 36
7, 4968, Note_off_c, 5, 54, 64
7, 5040, Note_on_c, 5, 54, 36
7, 5088, Note_off_c, 5, 54, 64
7, 5160, Note_on_c, 5, 54, 36
7, 5208, Note_off_c, 5, 54, 64
7, 5280, Note_on_c, 5, 54, 36
7, 5328, Note_off_c, 5, 54, 64
7, 5400, Note_on_c, 5, 54, 36
7, 5448, Note_off_c, 5, 54, 64
7, 5520, Note_on_c, 5, 54, 36
7, 5568, Note_off_c, 5, 54, 64
7, 5640, Note_on_c, 5, 54, 36
7, 5688, Note_off_c, 5, 54, 64
7, 5760, Note_on_c, 5, 55, 36
7, 5808, Note_off_c, 5, 55, 64
7, 5880, Note_on_c, 5, 55, 36
7, 5928, Note_off_c, 5, 55, 64
7, 6000, Note_on_c, 5, 55, 39
7, 6048, Note_off_c, 5, 55, 64
7, 6120, Note_on_c, 5, 55, 42
7, 6168, Note_off_c, 5, 55, 64
7, 6240, Note_on_c, 5, 55, 45
7, 6288, Note_off_c, 5, 55, 64
7, 6360, Note_on_c, 5, 55, 49
7, 6408, Note_off_c, 5, 55, 64
7, 6480, Note_on_c, 5, 55, 52
7, 6528, Note_off_c, 5, 55, 64
7, 6600, Note_on_c, 5, 55, 55
7, 6648, Note_off_c, 5, 55, 64
7, 6720, Note_on_c, 5, 57, 103
7, 6768, Note_off_c, 5, 57, 64
7, 6840, Note_on_c, 5, 57, 103
7, 6888, Note_off_c, 5, 57, 64
7, 6960, Note_on_c, 5, 57, 103
7, 7008, Note_off_c, 5, 57, 64
7, 7080, Note_on_c, 5, 57, 103
7, 7128, Note_off_c, 5, 57, 64
7, 7200, Note_on_c, 5, 57, 103
7, 7248, Note_off_c, 5, 57, 64
7, 7320, Note_on_c, 5, 57, 103
7, 7368, Note_off_c, 5, 57, 64
7, 7440, Note_on_c, 5, 57, 103
7, 7488, Note_off_c, 5, 57, 64
7, 7560, Note_on_c, 5, 57, 103
7, 7608, Note_off_c, 5, 57, 64
7, 7680, Note_on_c, 5, 57, 103
7, 7728, Note_off_c, 5, 57, 64
7, 7800, Note_on_c, 5, 57, 103
7, 7848, Note_off_c, 5, 57, 64
7, 7920, Note_on_c, 5, 57, 103
7, 7968, Note_off_c, 5, 57, 64
7, 8040, Note_on_c, 5, 57, 103
7, 8088, Note_off_c, 5, 57, 64
7, 8160, Note_on_c, 5, 57, 103
7, 8208, Note_off_c, 5, 57, 64
7, 8280, Note_on_c, 5, 57, 103
7, 8328, Note_off_c, 5, 57, 64
7, 8400, Note_on_c, 5, 57, 103
7, 8448, Note_off_c, 5, 57, 64
7, 8520, Note_on_c, 5, 57, 103
7, 8568, Note_off_c, 5, 57, 64
7, 8640, Note_on_c, 5, 59, 103
7, 8688, Note_off_c, 5, 59, 64
7, 8760, Note_on_c, 5, 59, 103
7, 8808, Note_off_c, 5, 59, 64
7, 8880, Note_on_c, 5, 59, 103
7, 8928, Note_off_c, 5, 59, 64
7, 9000, Note_on_c, 5, 59, 103
7, 9048, Note_off_c, 5, 59, 64
7, 9120, Note_on_c, 5, 59, 103
7, 9168, Note_off_c, 5, 59, 64
7, 9240, Note_on_c, 5, 59, 103
7, 9288, Note_off_c, 5, 59, 64
7, 9360, Note_on_c, 5, 59, 103
7, 9408, Note_off_c, 5, 59, 64
7, 9480, Note_on_c, 5, 59, 103
7, 9528, Note_off_c, 5, 59, 64
7, 9600, Note_on_c, 5, 57, 103
7, 9763, Note_off_c, 5, 57, 64
7, 9840, Note_on_c, 5, 57, 103
7, 10003, Note_off_c, 5, 57, 64
7, 10080, Note_on_c, 5, 45, 103
7, 10373, Note_off_c, 5, 45, 64
7, 11520, Note_on_c, 5, 50, 49
7, 11568, Note_off_c, 5, 50, 64
7, 11640, Note_on_c, 5, 50, 49
7, 11688, Note_off_c, 5, 50, 64
7, 11760, Note_on_c, 5, 50, 49
7, 11808, Note_off_c, 5, 50, 64
7, 11880, Note_on_c, 5, 50, 49
7, 11928, Note_off_c, 5, 50, 64
7, 12000, Note_on_c, 5, 50, 49
7, 12048, Note_off_c, 5, 50, 64
7, 12120, Note_on_c, 5, 50, 49
7, 12168, Note_off_c, 5, 50, 64
7, 12240, Note_on_c, 5, 50, 49
7, 12288, Note_off_c, 5, 50, 64
7, 12360, Note_on_c, 5, 50, 49
7, 12408, Note_off_c, 5, 50, 64
7, 12480, Note_on_c, 5, 50, 49
7, 12528, Note_off_c, 5, 50, 64
7, 12600, Note_on_c, 5, 50, 49
7, 12648, Note_off_c, 5, 50, 64
7, 12720, Note_on_c, 5, 50, 49
7, 12768, Note_off_c, 5, 50, 64
7, 12840, Note_on_c, 5, 50, 49
7, 12888, Note_off_c, 5, 50, 64
7, 12960, Note_on_c, 5, 50, 49
7, 13008, Note_off_c, 5, 50, 64
7, 13080, Note_on_c, 5, 50, 49
7, 13128, Note_off_c, 5, 50, 64
7, 13200, Note_on_c, 5, 50, 49
7, 13248, Note_off_c, 5, 50, 64
7, 13320, Note_on_c, 5, 50, 49
7, 13368, Note_off_c, 5, 50, 64
7, 13440, Note_on_c, 5, 50, 49
7, 13488, Note_off_c, 5, 50, 64
7, 13560, Note_on_c, 5, 50, 49
7, 13608, Note_off_c, 5, 50, 64
7, 13680, Note_on_c, 5, 50, 49
7, 13728, Note_off_c, 5, 50, 64
7, 13800, Note_on_c, 5, 50, 49
7, 13848, Note_off_c, 5, 50, 64
7, 13920, Note_on_c, 5, 50, 49
7, 13968, Note_off_c, 5, 50, 64
7, 14040, Note_on_c, 5, 50, 49
7, 14088, Note_off_c, 5, 50, 64
7, 14160, Note_on_c, 5, 50, 49
7, 14208, Note_off_c, 5, 50, 64
7, 14280, Note_on_c, 5, 50, 49
7, 14328, Note_off_c, 5, 50, 64
7, 14400, Note_on_c, 5, 50, 49
7, 14448, Note_off_c, 5, 50, 64
7, 14520, Note_on_c, 5, 50, 49
7, 14568, Note_off_c, 5, 50, 64
7, 14640, Note_on_c, 5, 50, 49
7, 14688, Note_off_c, 5, 50, 64
7, 14760, Note_on_c, 5, 50, 49
7, 14808, Note_off_c, 5, 50, 64
7, 14880, Note_on_c, 5, 50, 49
7, 14928, Note_off_c, 5, 50, 64
7, 15000, Note_on_c, 5, 50, 49
7, 15048, Note_off_c, 5, 50, 64
7, 15120, Note_on_c, 5, 50, 49
7, 15168, Note_off_c, 5, 50, 64
7, 15240, Note_on_c, 5, 50, 49
7, 15288, Note_off_c, 5, 50, 64
7, 15360, Note_on_c, 5, 50, 49
7, 15840, Note_off_c, 5, 50, 64
7, 15840, Note_on_c, 5, 52, 49
7, 16320, Note_off_c, 5, 52, 64
7, 16320, Note_on_c, 5, 54, 49
7, 16800, Note_off_c, 5, 54, 64
7, 16800, Note_on_c, 5, 49, 49
7, 17280, Note_off_c, 5, 49, 64
7, 17280, Note_on_c, 5, 50, 49
7, 17760, Note_off_c, 5, 50, 64
7, 17760, Note_on_c, 5, 52, 49
7, 18240, Note_off_c, 5, 52, 64
7, 18240, Note_on_c, 5, 54, 49
7, 18480, Note_off_c, 5, 54, 64
7, 18480, Note_on_c, 5, 50, 49
7, 18720, Note_off_c, 5, 50, 64
7, 18720, Note_on_c, 5, 49, 49
7, 18960, Note_off_c, 5, 49, 64
7, 18960, Note_on_c, 5, 57, 49
7, 19200, Note_off_c, 5, 57, 64
7, 19200, Note_on_c, 5, 50, 49
7, 19248, Note_off_c, 5, 50, 64
7, 19320, Note_on_c, 5, 50, 49
7, 19368, Note_off_c, 5, 50, 64
7, 19440, Note_on_c, 5, 50, 49
7, 19488, Note_off_c, 5, 50, 64
7, 19560, Note_on_c, 5, 50, 49
7, 19608, Note_off_c, 5, 50, 64
7, 19680, Note_on_c, 5, 50, 49
7, 19728, Note_off_c, 5, 50, 64
7, 19800, Note_on_c, 5, 50, 49
7, 19848, Note_off_c, 5, 50, 64
7, 19920, Note_on_c, 5, 50, 49
7, 19968, Note_off_c, 5, 50, 64
7, 20040, Note_on_c, 5, 50, 49
7, 20088, Note_off_c, 5, 50, 64
7, 20160, Note_on_c, 5, 50, 19
7, 20208, Note_off_c, 5, 50, 64
7, 20280, Note_on_c, 5, 50, 24
7, 20328, Note_off_c, 5, 50, 64
7, 20400, Note_on_c, 5, 50, 29
7, 20448, Note_off_c, 5, 50, 64
7, 20520, Note_on_c, 5, 50, 35
7, 20568, Note_off_c, 5, 50, 64
7, 20640, Note_on_c, 5, 50, 41
7, 20688, Note_off_c, 5, 50, 64
7, 20760, Note_on_c, 5, 50, 46
7, 20808, Note_off_c, 5, 50, 64
7, 20880, Note_on_c, 5, 50, 51
7, 20928, Note_off_c, 5, 50, 64
7, 21000, Note_on_c, 5, 50, 57
7, 21048, Note_off_c, 5, 50, 64
7, 21120, Note_on_c, 5, 50, 63
7, 21168, Note_off_c, 5, 50, 64
7, 21240, Note_on_c, 5, 54, 63
7, 21288, Note_off_c, 5, 54, 64
7, 21360, Note_on_c, 5, 57, 63
7, 21408, Note_off_c, 5, 57, 64
7, 21480, Note_on_c, 5, 54, 63
7, 21528, Note_off_c, 5, 54, 64
7, 21600, Note_on_c, 5, 50, 63
7, 21648, Note_off_c, 5, 50, 64
7, 21720, Note_on_c, 5, 54, 63
7, 21768, Note_off_c, 5, 54, 64
7, 21840, Note_on_c, 5, 57, 63
7, 21888, Note_off_c, 5, 57, 64
7, 21960, Note_on_c, 5, 54, 63
7, 22008, Note_off_c, 5, 54, 64
7, 22080, Note_on_c, 5, 55, 114
7, 22128, Note_off_c, 5, 55, 64
7, 22200, Note_on_c, 5, 55, 114
7, 22248, Note_off_c, 5, 55, 64
7, 22320, Note_on_c, 5, 55, 114
7, 22368, Note_off_c, 5, 55, 64
7, 22440, Note_on_c, 5, 55, 114
7, 22488, Note_off_c, 5, 55, 64
7, 22560, Note_on_c, 5, 55, 114
7, 22608, Note_off_c, 5, 55, 64
7, 22680, Note_on_c, 5, 55, 114
7, 22728, Note_off_c, 5, 55, 64
7, 22800, Note_on_c, 5, 55, 114
7, 22848, Note_off_c, 5, 55, 64
7, 22920, Note_on_c, 5, 55, 114
7, 22968, Note_off_c, 5, 55, 64
7, 23040, Note_on_c, 5, 57, 114
7, 23088, Note_off_c, 5, 57, 64
7, 23160, Note_on_c, 5, 57, 114
7, 23208, Note_off_c, 5, 57, 64
7, 23280, Note_on_c, 5, 57, 114
7, 23328, Note_off_c, 5, 57, 64
7, 23400, Note_on_c, 5, 57, 114
7, 23448, Note_off_c, 5, 57, 64
7, 23520, Note_on_c, 5, 45, 114
7, 23568, Note_off_c, 5, 45, 64
7, 23640, Note_on_c, 5, 45, 114
7, 23688, Note_off_c, 5, 45, 64
7, 23760, Note_on_c, 5, 45, 114
7, 23808, Note_off_c, 5, 45, 64
7, 23880, Note_on_c, 5, 45, 114
7, 23928, Note_off_c, 5, 45, 64
7, 24000, Note_on_c, 5, 50, 114
7, 24240, Note_off_c, 5, 50, 64
7, 25200, Note_on_c, 5, 50, 100
7, 25248, Note_off_c, 5, 50, 64
7, 25320, Note_on_c, 5, 54, 100
7, 25368, Note_off_c, 5, 54, 64
7, 25440, Note_on_c, 5, 57, 100
7, 25488, Note_off_c, 5, 57, 64
7, 25560, Note_on_c, 5, 57, 100
7, 25608, Note_off_c, 5, 57, 64
7, 25680, Note_on_c, 5, 57, 100
7, 25728, Note_off_c, 5, 57, 64
7, 25800, Note_on_c, 5, 57, 100
7, 25848, Note_off_c, 5, 57, 64
7, 25920, Note_on_c, 5, 62, 100
7, 26040, Note_off_c, 5, 62, 64
7, 27120, Note_on_c, 5, 50, 100
7, 27168, Note_off_c, 5, 50, 64
7, 27240, Note_on_c, 5, 54, 100
7, 27288, Note_off_c, 5, 54, 64
7, 27360, Note_on_c, 5, 57, 100
7, 27408, Note_off_c, 5, 57, 64
7, 27480, Note_on_c, 5, 57, 100
7, 27528, Note_off_c, 5, 57, 64
7, 27600, Note_on_c, 5, 57, 100
7, 27648, Note_off_c, 5, 57, 64
7, 27720, Note_on_c, 5, 57, 100
7, 27768, Note_off_c, 5, 57, 64
7, 27840, Note_on_c, 5, 62, 100
7, 27888, Note_off_c, 5, 62, 64
7, 27960, Note_on_c, 5, 57, 100
7, 28008, Note_off_c, 5, 57, 64
7, 28080, Note_on_c, 5, 54, 100
7, 28128, Note_off_c, 5, 54, 64
7, 28200, Note_on_c, 5, 50, 100
7, 28248, Note_off_c, 5, 50, 64
7, 28320, Note_on_c, 5, 45, 100
7, 28368, Note_off_c, 5, 45, 64
7, 28440, Note_on_c, 5, 45, 100
7, 28488, Note_off_c, 5, 45, 64
7, 28560, Note_on_c, 5, 57, 100
7, 28608, Note_off_c, 5, 57, 64
7, 28680, Note_on_c, 5, 57, 100
7, 28728, Note_off_c, 5, 57, 64
7, 28800, Note_on_c, 5, 50, 100
7, 28848, Note_off_c, 5, 50, 64
7, 28920, Note_on_c, 5, 62, 100
7, 28968, Note_off_c, 5, 62, 64
7, 29040, Note_on_c, 5, 62, 100
7, 29070, Note_off_c, 5, 62, 64
7, 29070, Note_on_c, 5, 64, 100
7, 29100, Note_off_c, 5, 64, 64
7, 29100, Note_on_c, 5, 62, 100
7, 29130, Note_off_c, 5, 62, 64
7, 29130, Note_on_c, 5, 64, 100
7, 29160, Note_off_c, 5, 64, 64
7, 29160, Note_on_c, 5, 62, 100
7, 29190, Note_off_c, 5, 62, 64
7, 29190, Note_on_c, 5, 64, 100
7, 29220, Note_off_c, 5, 64, 64
7, 29220, Note_on_c, 5, 61, 100
7, 29250, Note_off_c, 5, 61, 64
7, 29250, Note_on_c, 5, 62, 100
7, 29280, Note_off_c, 5, 62, 64
7, 29280, Note_on_c, 5, 66, 100
7, 29328, Note_off_c, 5, 66, 64
7, 29400, Note_on_c, 5, 62, 100
7, 29448, Note_off_c, 5, 62, 64
7, 29520, Note_on_c, 5, 57, 100
7, 29568, Note_off_c, 5, 57, 64
7, 29640, Note_on_c, 5, 54, 100
7, 29688, Note_off_c, 5, 54, 64
7, 29760, Note_on_c, 5, 50, 100
7, 30000, Note_off_c, 5, 50, 64
7, 30720, Note_on_c, 5, 50, 36
7, 30768, Note_off_c, 5, 50, 64
7, 30840, Note_on_c, 5, 50, 36
7, 30888, Note_off_c, 5, 50, 64
7, 30960, Note_on_c, 5, 50, 36
7, 31008, Note_off_c, 5, 50, 64
7, 31080, Note_on_c, 5, 50, 36
7, 31128, Note_off_c, 5, 50, 64
7, 31200, Note_on_c, 5, 50, 36
7, 31248, Note_off_c, 5, 50, 64
7, 31320, Note_on_c, 5, 50, 36
7, 31368, Note_off_c, 5, 50, 64
7, 31440, Note_on_c, 5, 50, 36
7, 31488, Note_off_c, 5, 50, 64
7, 31560, Note_on_c, 5, 50, 36
7, 31608, Note_off_c, 5, 50, 64
7, 31680, Note_on_c, 5, 50, 36
7, 31728, Note_off_c, 5, 50, 64
7, 31800, Note_on_c, 5, 50, 36
7, 31848, Note_off_c, 5, 50, 64
7, 31920, Note_on_c, 5, 50, 36
7, 31968, Note_off_c, 5, 50, 64
7, 32040, Note_on_c, 5, 50, 36
7, 32088, Note_off_c, 5, 50, 64
7, 32160, Note_on_c, 5, 50, 36
7, 32208, Note_off_c, 5, 50, 64
7, 32280, Note_on_c, 5, 50, 36
7, 32328, Note_off_c, 5, 50, 64
7, 32400, Note_on_c, 5, 50, 36
7, 32448, Note_off_c, 5, 50, 64
7, 32520, Note_on_c, 5, 50, 36
7, 32568, Note_off_c, 5, 50, 64
7, 32640, Note_on_c, 5, 50, 36
7, 32688, Note_off_c, 5, 50, 64
7, 32760, Note_on_c, 5, 50, 36
7, 32808, Note_off_c, 5, 50, 64
7, 32880, Note_on_c, 5, 50, 36
7, 32928, Note_off_c, 5, 50, 64
7, 33000, Note_on_c, 5, 50, 36
7, 33048, Note_off_c, 5, 50, 64
7, 33120, Note_on_c, 5, 50, 36
7, 33168, Note_off_c, 5, 50, 64
7, 33240, Note_on_c, 5, 50, 36
7, 33288, Note_off_c, 5, 50, 64
7, 33360, Note_on_c, 5, 50, 36
7, 33408, Note_off_c, 5, 50, 64
7, 33480, Note_on_c, 5, 50, 36
7, 33528, Note_off_c, 5, 50, 64
7, 33600, Note_on_c, 5, 50, 36
7, 33648, Note_off_c, 5, 50, 64
7, 33720, Note_on_c, 5, 50, 36
7, 33768, Note_off_c, 5, 50, 64
7, 33840, Note_on_c, 5, 50, 36
7, 33888, Note_off_c, 5, 50, 64
7, 33960, Note_on_c, 5, 50, 36
7, 34008, Note_off_c, 5, 50, 64
7, 34080, Note_on_c, 5, 50, 36
7, 34128, Note_off_c, 5, 50, 64
7, 34200, Note_on_c, 5, 50, 36
7, 34248, Note_off_c, 5, 50, 64
7, 34320, Note_on_c, 5, 50, 36
7, 34368, Note_off_c, 5, 50, 64
7, 34440, Note_on_c, 5, 50, 36
7, 34488, Note_off_c, 5, 50, 64
7, 34560, Note_on_c, 5, 50, 36
7, 34800, Note_off_c, 5, 50, 64
7, 41280, Note_on_c, 5, 50, 36
7, 41520, Note_off_c, 5, 50, 64
7, 41520, Note_on_c, 5, 52, 36
7, 41760, Note_off_c, 5, 52, 64
7, 41760, Note_on_c, 5, 50, 36
7, 42000, Note_off_c, 5, 50, 64
7, 42000, Note_on_c, 5, 49, 36
7, 42240, Note_off_c, 5, 49, 64
7, 42240, Note_on_c, 5, 50, 36
7, 42480, Note_off_c, 5, 50, 64
7, 42480, Note_on_c, 5, 52, 36
7, 42720, Note_off_c, 5, 52, 64
7, 42720, Note_on_c, 5, 50, 36
7, 42960, Note_off_c, 5, 50, 64
7, 42960, Note_on_c, 5, 49, 36
7, 43200, Note_off_c, 5, 49, 64
7, 43200, Note_on_c, 5, 50, 36
7, 43248, Note_off_c, 5, 50, 64
7, 43320, Note_on_c, 5, 50, 36
7, 43368, Note_off_c, 5, 50, 64
7, 43440, Note_on_c, 5, 54, 36
7, 43488, Note_off_c, 5, 54, 64
7, 43560, Note_on_c, 5, 54, 36
7, 43608, Note_off_c, 5, 54, 64
7, 43680, Note_on_c, 5, 55, 36
7, 43728, Note_off_c, 5, 55, 64
7, 43800, Note_on_c, 5, 55, 36
7, 43848, Note_off_c, 5, 55, 64
7, 43920, Note_on_c, 5, 57, 36
7, 43968, Note_off_c, 5, 57, 64
7, 44040, Note_on_c, 5, 57, 36
7, 44088, Note_off_c, 5, 57, 64
7, 44160, Note_on_c, 5, 62, 36
7, 44280, Note_off_c, 5, 62, 64
7, 44400, Note_on_c, 5, 50, 100
7, 44448, Note_off_c, 5, 50, 64
7, 44520, Note_on_c, 5, 54, 100
7, 44568, Note_off_c, 5, 54, 64
7, 44640, Note_on_c, 5, 57, 100
7, 44688, Note_off_c, 5, 57, 64
7, 44760, Note_on_c, 5, 57, 100
7, 44808, Note_off_c, 5, 57, 64
7, 44880, Note_on_c, 5, 57, 100
7, 44928, Note_off_c, 5, 57, 64
7, 45000, Note_on_c, 5, 57, 100
7, 45048, Note_off_c, 5, 57, 64
7, 45120, Note_on_c, 5, 62, 100
7, 45168, Note_off_c, 5, 62, 64
7, 45240, Note_on_c, 5, 57, 100
7, 45288, Note_off_c, 5, 57, 64
7, 45360, Note_on_c, 5, 54, 100
7, 45408, Note_off_c, 5, 54, 64
7, 45480, Note_on_c, 5, 50, 100
7, 45528, Note_off_c, 5, 50, 64
7, 45600, Note_on_c, 5, 45, 100
7, 45648, Note_off_c, 5, 45, 64
7, 45720, Note_on_c, 5, 45, 100
7, 45768, Note_off_c, 5, 45, 64
7, 45840, Note_on_c, 5, 57, 100
7, 45888, Note_off_c, 5, 57, 64
7, 45960, Note_on_c, 5, 57, 100
7, 46008, Note_off_c, 5, 57, 64
7, 46080, Note_on_c, 5, 50, 100
7, 46128, Note_off_c, 5, 50, 64
7, 46200, Note_on_c, 5, 62, 100
7, 46248, Note_off_c, 5, 62, 64
7, 46320, Note_on_c, 5, 62, 100
7, 46350, Note_off_c, 5, 62, 64
7, 46350, Note_on_c, 5, 64, 100
7, 46380, Note_off_c, 5, 64, 64
7, 46380, Note_on_c, 5, 62, 100
7, 46410, Note_off_c, 5, 62, 64
7, 46410, Note_on_c, 5, 64, 100
7, 46440, Note_off_c, 5, 64, 64
7, 46440, Note_on_c, 5, 62, 100
7, 46470, Note_off_c, 5, 62, 64
7, 46470, Note_on_c, 5, 64, 100
7, 46500, Note_off_c, 5, 64, 64
7, 46500, Note_on_c, 5, 61, 100
7, 46530, Note_off_c, 5, 61, 64
7, 46530, Note_on_c, 5, 62, 100
7, 46560, Note_off_c, 5, 62, 64
7, 46560, Note_on_c, 5, 66, 100
7, 46608, Note_off_c, 5, 66, 64
7, 46680, Note_on_c, 5, 62, 100
7, 46728, Note_off_c, 5, 62, 64
7, 46800, Note_on_c, 5, 57, 100
7, 46848, Note_off_c, 5, 57, 64
7, 46920, Note_on_c, 5, 54, 100
7, 46968, Note_off_c, 5, 54, 64
7, 47040, Note_on_c, 5, 50, 100
7, 47280, Note_off_c, 5, 50, 64
7, 49080, Note_on_c, 5, 57, 36
7, 49200, Note_off_c, 5, 57, 64
7, 49200, Note_on_c, 5, 57, 36
7, 49230, Note_off_c, 5, 57, 64
7, 49230, Note_on_c, 5, 59, 36
7, 49260, Note_off_c, 5, 59, 64
7, 49260, Note_on_c, 5, 57, 36
7, 49290, Note_off_c, 5, 57, 64
7, 49290, Note_on_c, 5, 59, 36
7, 49320, Note_off_c, 5, 59, 64
7, 49320, Note_on_c, 5, 57, 36
7, 49350, Note_off_c, 5, 57, 64
7, 49350, Note_on_c, 5, 59, 36
7, 49380, Note_off_c, 5, 59, 64
7, 49380, Note_on_c, 5, 56, 36
7, 49410, Note_off_c, 5, 56, 64
7, 49410, Note_on_c, 5, 57, 36
7, 49440, Note_off_c, 5, 57, 64
7, 49440, Note_on_c, 5, 61, 36
7, 49488, Note_off_c, 5, 61, 64
7, 49560, Note_on_c, 5, 57, 36
7, 49608, Note_off_c, 5, 57, 64
7, 49680, Note_on_c, 5, 52, 36
7, 49728, Note_off_c, 5, 52, 64
7, 49800, Note_on_c, 5, 49, 36
7, 49848, Note_off_c, 5, 49, 64
7, 49920, Note_on_c, 5, 45, 36
7, 50160, Note_off_c, 5, 45, 64
7, 51960, Note_on_c, 5, 62, 36
7, 52020, Note_off_c, 5, 62, 64
7, 52080, Note_on_c, 5, 62, 36
7, 52110, Note_off_c, 5, 62, 64
7, 52110, Note_on_c, 5, 64, 36
7, 52140, Note_off_c, 5, 64, 64
7, 52140, Note_on_c, 5, 62, 36
7, 52170, Note_off_c, 5, 62, 64
7, 52170, Note_on_c, 5, 64, 36
7, 52200, Note_off_c, 5, 64, 64
7, 52200, Note_on_c, 5, 62, 36
7, 52230, Note_off_c, 5, 62, 64
7, 52230, Note_on_c, 5, 64, 36
7, 52260, Note_off_c, 5, 64, 64
7, 52260, Note_on_c, 5, 61, 36
7, 52290, Note_off_c, 5, 61, 64
7, 52290, Note_on_c, 5, 62, 36
7, 52320, Note_off_c, 5, 62, 64
7, 52320, Note_on_c, 5, 66, 36
7, 52368, Note_off_c, 5, 66, 64
7, 52440, Note_on_c, 5, 62, 36
7, 52488, Note_off_c, 5, 62, 64
7, 52560, Note_on_c, 5, 57, 36
7, 52608, Note_off_c, 5, 57, 64
7, 52680, Note_on_c, 5, 54, 36
7, 52728, Note_off_c, 5, 54, 64
7, 52800, Note_on_c, 5, 50, 36
7, 53040, Note_off_c, 5, 50, 64
7, 60600, Note_on_c, 5, 64, 36
7, 60720, Note_off_c, 5, 64, 64
7, 60720, Note_on_c, 5, 63, 36
7, 60840, Note_off_c, 5, 63, 64
7, 60840, Note_on_c, 5, 64, 36
7, 60888, Note_off_c, 5, 64, 64
7, 60960, Note_on_c, 5, 52, 36
7, 61008, Note_off_c, 5, 52, 64
7, 61080, Note_on_c, 5, 56, 36
7, 61128, Note_off_c, 5, 56, 64
7, 61200, Note_on_c, 5, 59, 36
7, 61248, Note_off_c, 5, 59, 64
7, 61320, Note_on_c, 5, 56, 36
7, 61368, Note_off_c, 5, 56, 64
7, 61440, Note_on_c, 5, 52, 36
7, 61488, Note_off_c, 5, 52, 64
7, 61560, Note_on_c, 5, 52, 36
7, 61608, Note_off_c, 5, 52, 64
7, 61680, Note_on_c, 5, 52, 36
7, 61728, Note_off_c, 5, 52, 64
7, 61800, Note_on_c, 5, 52, 36
7, 61848, Note_off_c, 5, 52, 64
7, 61920, Note_on_c, 5, 52, 36
7, 62160, Note_off_c, 5, 52, 64
7, 62400, Note_on_c, 5, 52, 36
7, 62448, Note_off_c, 5, 52, 64
7, 62520, Note_on_c, 5, 52, 36
7, 62568, Note_off_c, 5, 52, 64
7, 62640, Note_on_c, 5, 52, 36
7, 62688, Note_off_c, 5, 52, 64
7, 62760, Note_on_c, 5, 52, 36
7, 62808, Note_off_c, 5, 52, 64
7, 62880, Note_on_c, 5, 52, 36
7, 63120, Note_off_c, 5, 52, 64
7, 63360, Note_on_c, 5, 52, 36
7, 63480, Note_off_c, 5, 52, 64
7, 63600, Note_on_c, 5, 52, 39
7, 63720, Note_off_c, 5, 52, 64
7, 63840, Note_on_c, 5, 52, 45
7, 63960, Note_off_c, 5, 52, 64
7, 64080, Note_on_c, 5, 52, 52
7, 64200, Note_off_c, 5, 52, 64
7, 64320, Note_on_c, 5, 57, 58
7, 64368, Note_off_c, 5, 57, 64
7, 64440, Note_on_c, 5, 57, 58
7, 64488, Note_off_c, 5, 57, 64
7, 64560, Note_on_c, 5, 57, 58
7, 64608, Note_off_c, 5, 57, 64
7, 64680, Note_on_c, 5, 57, 58
7, 64728, Note_off_c, 5, 57, 64
7, 64800, Note_on_c, 5, 57, 58
7, 64848, Note_off_c, 5, 57, 64
7, 64920, Note_on_c, 5, 57, 58
7, 64968, Note_off_c, 5, 57, 64
7, 65040, Note_on_c, 5, 57, 58
7, 65088, Note_off_c, 5, 57, 64
7, 65160, Note_on_c, 5, 57, 58
7, 65208, Note_off_c, 5, 57, 64
7, 65280, Note_on_c, 5, 54, 58
7, 65328, Note_off_c, 5, 54, 64
7, 65400, Note_on_c, 5, 54, 58
7, 65448, Note_off_c, 5, 54, 64
7, 65520, Note_on_c, 5, 54, 58
7, 65568, Note_off_c, 5, 54, 64
7, 65640, Note_on_c, 5, 54, 58
7, 65688, Note_off_c, 5, 54, 64
7, 65760, Note_on_c, 5, 54, 58
7, 65808, Note_off_c, 5, 54, 64
7, 65880, Note_on_c, 5, 54, 58
7, 65928, Note_off_c, 5, 54, 64
7, 66000, Note_on_c, 5, 54, 58
7, 66048, Note_off_c, 5, 54, 64
7, 66120, Note_on_c, 5, 54, 58
7, 66168, Note_off_c, 5, 54, 64
7, 66240, Note_on_c, 5, 49, 58
7, 66288, Note_off_c, 5, 49, 64
7, 66360, Note_on_c, 5, 49, 58
7, 66408, Note_off_c, 5, 49, 64
7, 66480, Note_on_c, 5, 49, 58
7, 66528, Note_off_c, 5, 49, 64
7, 66600, Note_on_c, 5, 49, 58
7, 66648, Note_off_c, 5, 49, 64
7, 66720, Note_on_c, 5, 49, 58
7, 66768, Note_off_c, 5, 49, 64
7, 66840, Note_on_c, 5, 49, 58
7, 66888, Note_off_c, 5, 49, 64
7, 66960, Note_on_c, 5, 49, 58
7, 67008, Note_off_c, 5, 49, 64
7, 67080, Note_on_c, 5, 49, 58
7, 67128, Note_off_c, 5, 49, 64
7, 67200, Note_on_c, 5, 50, 58
7, 67680, Note_off_c, 5, 50, 64
7, 67680, Note_on_c, 5, 52, 58
7, 68160, Note_off_c, 5, 52, 64
7, 68160, Note_on_c, 5, 53, 49
7, 68208, Note_off_c, 5, 53, 64
7, 68280, Note_on_c, 5, 53, 23
7, 68328, Note_off_c, 5, 53, 64
7, 68400, Note_on_c, 5, 53, 23
7, 68448, Note_off_c, 5, 53, 64
7, 68520, Note_on_c, 5, 53, 23
7, 68568, Note_off_c, 5, 53, 64
7, 68640, Note_on_c, 5, 53, 23
7, 68688, Note_off_c, 5, 53, 64
7, 68760, Note_on_c, 5, 53, 23
7, 68808, Note_off_c, 5, 53, 64
7, 68880, Note_on_c, 5, 53, 23
7, 68928, Note_off_c, 5, 53, 64
7, 69000, Note_on_c, 5, 53, 23
7, 69048, Note_off_c, 5, 53, 64
7, 69120, Note_on_c, 5, 52, 23
7, 69360, Note_off_c, 5, 52, 64
7, 69600, Note_on_c, 5, 50, 23
7, 69840, Note_off_c, 5, 50, 64
7, 70080, Note_on_c, 5, 49, 23
7, 70200, Note_off_c, 5, 49, 64
7, 70320, Note_on_c, 5, 45, 26
7, 70440, Note_off_c, 5, 45, 64
7, 70560, Note_on_c, 5, 50, 32
7, 70680, Note_off_c, 5, 50, 64
7, 70800, Note_on_c, 5, 50, 39
7, 70920, Note_off_c, 5, 50, 64
7, 71040, Note_on_c, 5, 52, 45
7, 71088, Note_off_c, 5, 52, 64
7, 71160, Note_on_c, 5, 52, 45
7, 71208, Note_off_c, 5, 52, 64
7, 71280, Note_on_c, 5, 52, 48
7, 71328, Note_off_c, 5, 52, 64
7, 71400, Note_on_c, 5, 52, 51
7, 71448, Note_off_c, 5, 52, 64
7, 71520, Note_on_c, 5, 52, 54
7, 71568, Note_off_c, 5, 52, 64
7, 71640, Note_on_c, 5, 52, 58
7, 71688, Note_off_c, 5, 52, 64
7, 71760, Note_on_c, 5, 52, 61
7, 71808, Note_off_c, 5, 52, 64
7, 71880, Note_on_c, 5, 52, 64
7, 71928, Note_off_c, 5, 52, 64
7, 72000, Note_on_c, 5, 57, 103
7, 72048, Note_off_c, 5, 57, 64
7, 72120, Note_on_c, 5, 57, 103
7, 72168, Note_off_c, 5, 57, 64
7, 72240, Note_on_c, 5, 57, 103
7, 72288, Note_off_c, 5, 57, 64
7, 72360, Note_on_c, 5, 56, 103
7, 72408, Note_off_c, 5, 56, 64
7, 72480, Note_on_c, 5, 54, 103
7, 72528, Note_off_c, 5, 54, 64
7, 72600, Note_on_c, 5, 54, 103
7, 72648, Note_off_c, 5, 54, 64
7, 72720, Note_on_c, 5, 54, 103
7, 72768, Note_off_c, 5, 54, 64
7, 72840, Note_on_c, 5, 54, 103
7, 72888, Note_off_c, 5, 54, 64
7, 72960, Note_on_c, 5, 52, 103
7, 73103, Note_off_c, 5, 52, 64
7, 73200, Note_on_c, 5, 52, 103
7, 73343, Note_off_c, 5, 52, 64
7, 73440, Note_on_c, 5, 52, 103
7, 73800, Note_off_c, 5, 52, 64
7, 74880, Note_on_c, 5, 57, 36
7, 74928, Note_off_c, 5, 57, 64
7, 75000, Note_on_c, 5, 57, 36
7, 75048, Note_off_c, 5, 57, 64
7, 75120, Note_on_c, 5, 57, 36
7, 75168, Note_off_c, 5, 57, 64
7, 75240, Note_on_c, 5, 57, 36
7, 75288, Note_off_c, 5, 57, 64
7, 75360, Note_on_c, 5, 57, 36
7, 75408, Note_off_c, 5, 57, 64
7, 75480, Note_on_c, 5, 57, 36
7, 75528, Note_off_c, 5, 57, 64
7, 75600, Note_on_c, 5, 57, 36
7, 75648, Note_off_c, 5, 57, 64
7, 75720, Note_on_c, 5, 57, 36
7, 75768, Note_off_c, 5, 57, 64
7, 75840, Note_on_c, 5, 57, 36
7, 75888, Note_off_c, 5, 57, 64
7, 75960, Note_on_c, 5, 57, 36
7, 76008, Note_off_c, 5, 57, 64
7, 76080, Note_on_c, 5, 57, 36
7, 76128, Note_off_c, 5, 57, 64
7, 76200, Note_on_c, 5, 57, 36
7, 76248, Note_off_c, 5, 57, 64
7, 76320, Note_on_c, 5, 57, 36
7, 76368, Note_off_c, 5, 57, 64
7, 76440, Note_on_c, 5, 57, 36
7, 76488, Note_off_c, 5, 57, 64
7, 76560, Note_on_c, 5, 57, 36
7, 76608, Note_off_c, 5, 57, 64
7, 76680, Note_on_c, 5, 57, 36
7, 76728, Note_off_c, 5, 57, 64
7, 76800, Note_on_c, 5, 57, 36
7, 76848, Note_off_c, 5, 57, 64
7, 76920, Note_on_c, 5, 57, 36
7, 76968, Note_off_c, 5, 57, 64
7, 77040, Note_on_c, 5, 57, 36
7, 77088, Note_off_c, 5, 57, 64
7, 77160, Note_on_c, 5, 57, 36
7, 77208, Note_off_c, 5, 57, 64
7, 77280, Note_on_c, 5, 57, 36
7, 77328, Note_off_c, 5, 57, 64
7, 77400, Note_on_c, 5, 57, 36
7, 77448, Note_off_c, 5, 57, 64
7, 77520, Note_on_c, 5, 57, 36
7, 77568, Note_off_c, 5, 57, 64
7, 77640, Note_on_c, 5, 57, 36
7, 77688, Note_off_c, 5, 57, 64
7, 77760, Note_on_c, 5, 57, 36
7, 77808, Note_off_c, 5, 57, 64
7, 77880, Note_on_c, 5, 57, 36
7, 77928, Note_off_c, 5, 57, 64
7, 78000, Note_on_c, 5, 57, 36
7, 78048, Note_off_c, 5, 57, 64
7, 78120, Note_on_c, 5, 57, 36
7, 78168, Note_off_c, 5, 57, 64
7, 78240, Note_on_c, 5, 57, 36
7, 78288, Note_off_c, 5, 57, 64
7, 78360, Note_on_c, 5, 57, 36
7, 78408, Note_off_c, 5, 57, 64
7, 78480, Note_on_c, 5, 57, 36
7, 78528, Note_off_c, 5, 57, 64
7, 78600, Note_on_c, 5, 57, 36
7, 78648, Note_off_c, 5, 57, 64
7, 78720, Note_on_c, 5, 57, 36
7, 78960, Note_off_c, 5, 57, 64
7, 85440, Note_on_c, 5, 49, 36
7, 85680, Note_off_c, 5, 49, 64
7, 86040, Note_on_c, 5, 49, 36
7, 86088, Note_off_c, 5, 49, 64
7, 86160, Note_on_c, 5, 49, 36
7, 86208, Note_off_c, 5, 49, 64
7, 86280, Note_on_c, 5, 49, 36
7, 86328, Note_off_c, 5, 49, 64
7, 86400, Note_on_c, 5, 50, 36
7, 86640, Note_off_c, 5, 50, 64
7, 87000, Note_on_c, 5, 50, 36
7, 87048, Note_off_c, 5, 50, 64
7, 87120, Note_on_c, 5, 50, 36
7, 87168, Note_off_c, 5, 50, 64
7, 87240, Note_on_c, 5, 50, 36
7, 87288, Note_off_c, 5, 50, 64
7, 87360, Note_on_c, 5, 52, 36
7, 87408, Note_off_c, 5, 52, 64
7, 87480, Note_on_c, 5, 52, 36
7, 87528, Note_off_c, 5, 52, 64
7, 87600, Note_on_c, 5, 54, 36
7, 87648, Note_off_c, 5, 54, 64
7, 87720, Note_on_c, 5, 54, 36
7, 87768, Note_off_c, 5, 54, 64
7, 87840, Note_on_c, 5, 50, 36
7, 87888, Note_off_c, 5, 50, 64
7, 87960, Note_on_c, 5, 50, 36
7, 88008, Note_off_c, 5, 50, 64
7, 88080, Note_on_c, 5, 52, 36
7, 88128, Note_off_c, 5, 52, 64
7, 88200, Note_on_c, 5, 50, 36
7, 88248, Note_off_c, 5, 50, 64
7, 88320, Note_on_c, 5, 49, 36
7, 88560, Note_off_c, 5, 49, 64
7, 88920, Note_on_c, 5, 49, 36
7, 88968, Note_off_c, 5, 49, 64
7, 89040, Note_on_c, 5, 49, 36
7, 89088, Note_off_c, 5, 49, 64
7, 89160, Note_on_c, 5, 49, 36
7, 89208, Note_off_c, 5, 49, 64
7, 89280, Note_on_c, 5, 50, 36
7, 89520, Note_off_c, 5, 50, 64
7, 89880, Note_on_c, 5, 54, 36
7, 89928, Note_off_c, 5, 54, 64
7, 90000, Note_on_c, 5, 54, 36
7, 90048, Note_off_c, 5, 54, 64
7, 90120, Note_on_c, 5, 54, 36
7, 90168, Note_off_c, 5, 54, 64
7, 90240, Note_on_c, 5, 52, 62
7, 90288, Note_off_c, 5, 52, 64
7, 90360, Note_on_c, 5, 52, 36
7, 90408, Note_off_c, 5, 52, 64
7, 90480, Note_on_c, 5, 52, 36
7, 90528, Note_off_c, 5, 52, 64
7, 90600, Note_on_c, 5, 52, 36
7, 90648, Note_off_c, 5, 52, 64
7, 90720, Note_on_c, 5, 52, 36
7, 90768, Note_off_c, 5, 52, 64
7, 90840, Note_on_c, 5, 52, 36
7, 90888, Note_off_c, 5, 52, 64
7, 90960, Note_on_c, 5, 52, 36
7, 91008, Note_off_c, 5, 52, 64
7, 91080, Note_on_c, 5, 52, 36
7, 91128, Note_off_c, 5, 52, 64
7, 91200, Note_on_c, 5, 52, 36
7, 91320, Note_off_c, 5, 52, 64
7, 91320, Note_on_c, 5, 52, 36
7, 91440, Note_off_c, 5, 52, 64
7, 91440, Note_on_c, 5, 52, 39
7, 91560, Note_off_c, 5, 52, 64
7, 91560, Note_on_c, 5, 52, 42
7, 91680, Note_off_c, 5, 52, 64
7, 91680, Note_on_c, 5, 52, 45
7, 91800, Note_off_c, 5, 52, 64
7, 91800, Note_on_c, 5, 52, 49
7, 91920, Note_off_c, 5, 52, 64
7, 91920, Note_on_c, 5, 52, 52
7, 92040, Note_off_c, 5, 52, 64
7, 92040, Note_on_c, 5, 52, 55
7, 92160, Note_off_c, 5, 52, 64
7, 92160, Note_on_c, 5, 57, 103
7, 92208, Note_off_c, 5, 57, 64
7, 92280, Note_on_c, 5, 61, 103
7, 92328, Note_off_c, 5, 61, 64
7, 92400, Note_on_c, 5, 64, 103
7, 92448, Note_off_c, 5, 64, 64
7, 92520, Note_on_c, 5, 61, 103
7, 92568, Note_off_c, 5, 61, 64
7, 92640, Note_on_c, 5, 57, 103
7, 92688, Note_off_c, 5, 57, 64
7, 92760, Note_on_c, 5, 61, 103
7, 92808, Note_off_c, 5, 61, 64
7, 92880, Note_on_c, 5, 64, 103
7, 92928, Note_off_c, 5, 64, 64
7, 93000, Note_on_c, 5, 61, 103
7, 93048, Note_off_c, 5, 61, 64
7, 93120, Note_on_c, 5, 62, 103
7, 93168, Note_off_c, 5, 62, 64
7, 93240, Note_on_c, 5, 62, 103
7, 93288, Note_off_c, 5, 62, 64
7, 93360, Note_on_c, 5, 62, 103
7, 93408, Note_off_c, 5, 62, 64
7, 93480, Note_on_c, 5, 62, 103
7, 93528, Note_off_c, 5, 62, 64
7, 93600, Note_on_c, 5, 62, 103
7, 93648, Note_off_c, 5, 62, 64
7, 93720, Note_on_c, 5, 62, 103
7, 93768, Note_off_c, 5, 62, 64
7, 93840, Note_on_c, 5, 62, 103
7, 93888, Note_off_c, 5, 62, 64
7, 93960, Note_on_c, 5, 62, 103
7, 94008, Note_off_c, 5, 62, 64
7, 94080, Note_on_c, 5, 64, 103
7, 94128, Note_off_c, 5, 64, 64
7, 94200, Note_on_c, 5, 64, 103
7, 94248, Note_off_c, 5, 64, 64
7, 94320, Note_on_c, 5, 64, 103
7, 94368, Note_off_c, 5, 64, 64
7, 94440, Note_on_c, 5, 64, 103
7, 94488, Note_off_c, 5, 64, 64
7, 94560, Note_on_c, 5, 52, 103
7, 94608, Note_off_c, 5, 52, 64
7, 94680, Note_on_c, 5, 52, 103
7, 94728, Note_off_c, 5, 52, 64
7, 94800, Note_on_c, 5, 52, 103
7, 94848, Note_off_c, 5, 52, 64
7, 94920, Note_on_c, 5, 52, 103
7, 94968, Note_off_c, 5, 52, 64
7, 95040, Note_on_c, 5, 57, 103
7, 95280, Note_off_c, 5, 57, 64
7, 96240, Note_on_c, 5, 57, 103
7, 96288, Note_off_c, 5, 57, 64
7, 96360, Note_on_c, 5, 61, 103
7, 96408, Note_off_c, 5, 61, 64
7, 96480, Note_on_c, 5, 64, 103
7, 96528, Note_off_c, 5, 64, 64
7, 96600, Note_on_c, 5, 64, 103
7, 96648, Note_off_c, 5, 64, 64
7, 96720, Note_on_c, 5, 64, 103
7, 96768, Note_off_c, 5, 64, 64
7, 96840, Note_on_c, 5, 64, 103
7, 96888, Note_off_c, 5, 64, 64
7, 96960, Note_on_c, 5, 57, 103
7, 97080, Note_off_c, 5, 57, 64
7, 98160, Note_on_c, 5, 57, 103
7, 98208, Note_off_c, 5, 57, 64
7, 98280, Note_on_c, 5, 61, 103
7, 98328, Note_off_c, 5, 61, 64
7, 98400, Note_on_c, 5, 64, 103
7, 98448, Note_off_c, 5, 64, 64
7, 98520, Note_on_c, 5, 64, 103
7, 98568, Note_off_c, 5, 64, 64
7, 98640, Note_on_c, 5, 64, 103
7, 98688, Note_off_c, 5, 64, 64
7, 98760, Note_on_c, 5, 64, 103
7, 98808, Note_off_c, 5, 64, 64
7, 98880, Note_on_c, 5, 57, 103
7, 98928, Note_off_c, 5, 57, 64
7, 99000, Note_on_c, 5, 52, 103
7, 99048, Note_off_c, 5, 52, 64
7, 99120, Note_on_c, 5, 49, 103
7, 99168, Note_off_c, 5, 49, 64
7, 99240, Note_on_c, 5, 45, 103
7, 99288, Note_off_c, 5, 45, 64
7, 99360, Note_on_c, 5, 52, 103
7, 99408, Note_off_c, 5, 52, 64
7, 99480, Note_on_c, 5, 52, 103
7, 99528, Note_off_c, 5, 52, 64
7, 99600, Note_on_c, 5, 52, 103
7, 99648, Note_off_c, 5, 52, 64
7, 99720, Note_on_c, 5, 52, 103
7, 99768, Note_off_c, 5, 52, 64
7, 99840, Note_on_c, 5, 45, 103
7, 99888, Note_off_c, 5, 45, 64
7, 99960, Note_on_c, 5, 57, 103
7, 100008, Note_off_c, 5, 57, 64
7, 100080, Note_on_c, 5, 57, 103
7, 100110, Note_off_c, 5, 57, 64
7, 100110, Note_on_c, 5, 59, 103
7, 100140, Note_off_c, 5, 59, 64
7, 100140, Note_on_c, 5, 57, 103
7, 100170, Note_off_c, 5, 57, 64
7, 100170, Note_on_c, 5, 59, 103
7, 100200, Note_off_c, 5, 59, 64
7, 100200, Note_on_c, 5, 57, 103
7, 100230, Note_off_c, 5, 57, 64
7, 100230, Note_on_c, 5, 59, 103
7, 100260, Note_off_c, 5, 59, 64
7, 100260, Note_on_c, 5, 56, 103
7, 100290, Note_off_c, 5, 56, 64
7, 100290, Note_on_c, 5, 57, 103
7, 100320, Note_off_c, 5, 57, 64
7, 100320, Note_on_c, 5, 61, 103
7, 100368, Note_off_c, 5, 61, 64
7, 100440, Note_on_c, 5, 57, 103
7, 100488, Note_off_c, 5, 57, 64
7, 100560, Note_on_c, 5, 52, 103
7, 100608, Note_off_c, 5, 52, 64
7, 100680, Note_on_c, 5, 49, 103
7, 100728, Note_off_c, 5, 49, 64
7, 100800, Note_on_c, 5, 45, 103
7, 101040, Note_off_c, 5, 45, 64
7, 101760, Note_on_c, 5, 45, 36
7, 101808, Note_off_c, 5, 45, 64
7, 101880, Note_on_c, 5, 45, 36
7, 101928, Note_off_c, 5, 45, 64
7, 102000, Note_on_c, 5, 45, 36
7, 102048, Note_off_c, 5, 45, 64
7, 102120, Note_on_c, 5, 45, 36
7, 102168, Note_off_c, 5, 45, 64
7, 102240, Note_on_c, 5, 45, 36
7, 102288, Note_off_c, 5, 45, 64
7, 102360, Note_on_c, 5, 45, 36
7, 102408, Note_off_c, 5, 45, 64
7, 102480, Note_on_c, 5, 45, 36
7, 102528, Note_off_c, 5, 45, 64
7, 102600, Note_on_c, 5, 45, 36
7, 102648, Note_off_c, 5, 45, 64
7, 102720, Note_on_c, 5, 45, 36
7, 102768, Note_off_c, 5, 45, 64
7, 102840, Note_on_c, 5, 45, 36
7, 102888, Note_off_c, 5, 45, 64
7, 102960, Note_on_c, 5, 45, 36
7, 103008, Note_off_c, 5, 45, 64
7, 103080, Note_on_c, 5, 45, 36
7, 103128, Note_off_c, 5, 45, 64
7, 103200, Note_on_c, 5, 45, 36
7, 103248, Note_off_c, 5, 45, 64
7, 103320, Note_on_c, 5, 45, 36
7, 103368, Note_off_c, 5, 45, 64
7, 103440, Note_on_c, 5, 45, 36
7, 103488, Note_off_c, 5, 45, 64
7, 103560, Note_on_c, 5, 45, 36
7, 103608, Note_off_c, 5, 45, 64
7, 103680, Note_on_c, 5, 45, 36
7, 103728, Note_off_c, 5, 45, 64
7, 103800, Note_on_c, 5, 45, 36
7, 103848, Note_off_c, 5, 45, 64
7, 103920, Note_on_c, 5, 45, 36
7, 103968, Note_off_c, 5, 45, 64
7, 104040, Note_on_c, 5, 45, 36
7, 104088, Note_off_c, 5, 45, 64
7, 104160, Note_on_c, 5, 45, 36
7, 104208, Note_off_c, 5, 45, 64
7, 104280, Note_on_c, 5, 45, 36
7, 104328, Note_off_c, 5, 45, 64
7, 104400, Note_on_c, 5, 45, 36
7, 104448, Note_off_c, 5, 45, 64
7, 104520, Note_on_c, 5, 45, 36
7, 104568, Note_off_c, 5, 45, 64
7, 104640, Note_on_c, 5, 45, 36
7, 104688, Note_off_c, 5, 45, 64
7, 104760, Note_on_c, 5, 45, 36
7, 104808, Note_off_c, 5, 45, 64
7, 104880, Note_on_c, 5, 45, 36
7, 104928, Note_off_c, 5, 45, 64
7, 105000, Note_on_c, 5, 45, 36
7, 105048, Note_off_c, 5, 45, 64
7, 105120, Note_on_c, 5, 45, 36
7, 105168, Note_off_c, 5, 45, 64
7, 105240, Note_on_c, 5, 45, 36
7, 105288, Note_off_c, 5, 45, 64
7, 105360, Note_on_c, 5, 45, 36
7, 105408, Note_off_c, 5, 45, 64
7, 105480, Note_on_c, 5, 45, 36
7, 105528, Note_off_c, 5, 45, 64
7, 105600, Note_on_c, 5, 45, 36
7, 105648, Note_off_c, 5, 45, 64
7, 105720, Note_on_c, 5, 45, 36
7, 105768, Note_off_c, 5, 45, 64
7, 105840, Note_on_c, 5, 45, 36
7, 105888, Note_off_c, 5, 45, 64
7, 105960, Note_on_c, 5, 45, 36
7, 106008, Note_off_c, 5, 45, 64
7, 106080, Note_on_c, 5, 45, 36
7, 106128, Note_off_c, 5, 45, 64
7, 106200, Note_on_c, 5, 45, 36
7, 106248, Note_off_c, 5, 45, 64
7, 106320, Note_on_c, 5, 45, 36
7, 106368, Note_off_c, 5, 45, 64
7, 106440, Note_on_c, 5, 45, 36
7, 106488, Note_off_c, 5, 45, 64
7, 106560, Note_on_c, 5, 45, 36
7, 106608, Note_off_c, 5, 45, 64
7, 106680, Note_on_c, 5, 45, 36
7, 106728, Note_off_c, 5, 45, 64
7, 106800, Note_on_c, 5, 45, 36
7, 106848, Note_off_c, 5, 45, 64
7, 106920, Note_on_c, 5, 45, 36
7, 106968, Note_off_c, 5, 45, 64
7, 107040, Note_on_c, 5, 57, 36
7, 107088, Note_off_c, 5, 57, 64
7, 107160, Note_on_c, 5, 57, 36
7, 107208, Note_off_c, 5, 57, 64
7, 107280, Note_on_c, 5, 57, 36
7, 107328, Note_off_c, 5, 57, 64
7, 107400, Note_on_c, 5, 57, 36
7, 107448, Note_off_c, 5, 57, 64
7, 107520, Note_on_c, 5, 56, 36
7, 107568, Note_off_c, 5, 56, 64
7, 107640, Note_on_c, 5, 56, 36
7, 107688, Note_off_c, 5, 56, 64
7, 107760, Note_on_c, 5, 56, 36
7, 107808, Note_off_c, 5, 56, 64
7, 107880, Note_on_c, 5, 56, 36
7, 107928, Note_off_c, 5, 56, 64
7, 108000, Note_on_c, 5, 56, 36
7, 108048, Note_off_c, 5, 56, 64
7, 108120, Note_on_c, 5, 56, 36
7, 108168, Note_off_c, 5, 56, 64
7, 108240, Note_on_c, 5, 56, 36
7, 108288, Note_off_c, 5, 56, 64
7, 108360, Note_on_c, 5, 56, 36
7, 108408, Note_off_c, 5, 56, 64
7, 108480, Note_on_c, 5, 57, 36
7, 108720, Note_off_c, 5, 57, 64
7, 109320, Note_on_c, 5, 56, 23
7, 109440, Note_off_c, 5, 56, 64
7, 109440, Note_on_c, 5, 57, 23
7, 109680, Note_off_c, 5, 57, 64
7, 110280, Note_on_c, 5, 56, 36
7, 110400, Note_off_c, 5, 56, 64
7, 110400, Note_on_c, 5, 57, 36
7, 110448, Note_off_c, 5, 57, 64
7, 110520, Note_on_c, 5, 57, 36
7, 110568, Note_off_c, 5, 57, 64
7, 110640, Note_on_c, 5, 57, 36
7, 110688, Note_off_c, 5, 57, 64
7, 110760, Note_on_c, 5, 57, 36
7, 110808, Note_off_c, 5, 57, 64
7, 110880, Note_on_c, 5, 57, 36
7, 110928, Note_off_c, 5, 57, 64
7, 111000, Note_on_c, 5, 57, 36
7, 111048, Note_off_c, 5, 57, 64
7, 111120, Note_on_c, 5, 57, 36
7, 111168, Note_off_c, 5, 57, 64
7, 111240, Note_on_c, 5, 57, 36
7, 111288, Note_off_c, 5, 57, 64
7, 111360, Note_on_c, 5, 57, 36
7, 111408, Note_off_c, 5, 57, 64
7, 111480, Note_on_c, 5, 57, 36
7, 111528, Note_off_c, 5, 57, 64
7, 111600, Note_on_c, 5, 57, 36
7, 111648, Note_off_c, 5, 57, 64
7, 111720, Note_on_c, 5, 57, 36
7, 111768, Note_off_c, 5, 57, 64
7, 111840, Note_on_c, 5, 57, 36
7, 111888, Note_off_c, 5, 57, 64
7, 111960, Note_on_c, 5, 57, 36
7, 112008, Note_off_c, 5, 57, 64
7, 112080, Note_on_c, 5, 57, 36
7, 112128, Note_off_c, 5, 57, 64
7, 112200, Note_on_c, 5, 57, 36
7, 112248, Note_off_c, 5, 57, 64
7, 112320, Note_on_c, 5, 57, 36
7, 112560, Note_off_c, 5, 57, 64
7, 114240, Note_on_c, 5, 50, 100
7, 114288, Note_off_c, 5, 50, 64
7, 114360, Note_on_c, 5, 50, 100
7, 114408, Note_off_c, 5, 50, 64
7, 114480, Note_on_c, 5, 50, 100
7, 114528, Note_off_c, 5, 50, 64
7, 114600, Note_on_c, 5, 50, 100
7, 114648, Note_off_c, 5, 50, 64
7, 114720, Note_on_c, 5, 50, 100
7, 114768, Note_off_c, 5, 50, 64
7, 114840, Note_on_c, 5, 50, 100
7, 114888, Note_off_c, 5, 50, 64
7, 114960, Note_on_c, 5, 50, 100
7, 115008, Note_off_c, 5, 50, 64
7, 115080, Note_on_c, 5, 50, 100
7, 115128, Note_off_c, 5, 50, 64
7, 115200, Note_on_c, 5, 50, 100
7, 115248, Note_off_c, 5, 50, 64
7, 115320, Note_on_c, 5, 50, 100
7, 115368, Note_off_c, 5, 50, 64
7, 115440, Note_on_c, 5, 50, 100
7, 115488, Note_off_c, 5, 50, 64
7, 115560, Note_on_c, 5, 50, 100
7, 115608, Note_off_c, 5, 50, 64
7, 115680, Note_on_c, 5, 50, 100
7, 115728, Note_off_c, 5, 50, 64
7, 115800, Note_on_c, 5, 50, 100
7, 115848, Note_off_c, 5, 50, 64
7, 115920, Note_on_c, 5, 50, 100
7, 115968, Note_off_c, 5, 50, 64
7, 116040, Note_on_c, 5, 50, 100
7, 116088, Note_off_c, 5, 50, 64
7, 116160, Note_on_c, 5, 50, 36
7, 116208, Note_off_c, 5, 50, 64
7, 116280, Note_on_c, 5, 50, 36
7, 116328, Note_off_c, 5, 50, 64
7, 116400, Note_on_c, 5, 50, 36
7, 116448, Note_off_c, 5, 50, 64
7, 116520, Note_on_c, 5, 50, 36
7, 116568, Note_off_c, 5, 50, 64
7, 116640, Note_on_c, 5, 50, 36
7, 116688, Note_off_c, 5, 50, 64
7, 116760, Note_on_c, 5, 50, 36
7, 116808, Note_off_c, 5, 50, 64
7, 116880, Note_on_c, 5, 50, 36
7, 116928, Note_off_c, 5, 50, 64
7, 117000, Note_on_c, 5, 50, 36
7, 117048, Note_off_c, 5, 50, 64
7, 117120, Note_on_c, 5, 50, 36
7, 117168, Note_off_c, 5, 50, 64
7, 117240, Note_on_c, 5, 50, 36
7, 117288, Note_off_c, 5, 50, 64
7, 117360, Note_on_c, 5, 50, 36
7, 117408, Note_off_c, 5, 50, 64
7, 117480, Note_on_c, 5, 50, 36
7, 117528, Note_off_c, 5, 50, 64
7, 117600, Note_on_c, 5, 50, 36
7, 117648, Note_off_c, 5, 50, 64
7, 117720, Note_on_c, 5, 50, 36
7, 117768, Note_off_c, 5, 50, 64
7, 117840, Note_on_c, 5, 50, 36
7, 117888, Note_off_c, 5, 50, 64
7, 117960, Note_on_c, 5, 50, 36
7, 118008, Note_off_c, 5, 50, 64
7, 118080, Note_on_c, 5, 50, 36
7, 118128, Note_off_c, 5, 50, 64
7, 118200, Note_on_c, 5, 51, 36
7, 118248, Note_off_c, 5, 51, 64
7, 118320, Note_on_c, 5, 51, 36
7, 118368, Note_off_c, 5, 51, 64
7, 118440, Note_on_c, 5, 51, 36
7, 118488, Note_off_c, 5, 51, 64
7, 118560, Note_on_c, 5, 51, 36
7, 118800, Note_off_c, 5, 51, 64
7, 119040, Note_on_c, 5, 52, 36
7, 119280, Note_off_c, 5, 52, 64
7, 119520, Note_on_c, 5, 54, 36
7, 119760, Note_off_c, 5, 54, 64
7, 120000, Note_on_c, 5, 55, 36
7, 120240, Note_off_c, 5, 55, 64
7, 120480, Note_on_c, 5, 57, 36
7, 120720, Note_off_c, 5, 57, 64
7, 120960, Note_on_c, 5, 59, 36
7, 121200, Note_off_c, 5, 59, 64
7, 121440, Note_on_c, 5, 47, 36
7, 121680, Note_off_c, 5, 47, 64
7, 121920, Note_on_c, 5, 52, 36
7, 122400, Note_off_c, 5, 52, 64
7, 122400, Note_on_c, 5, 49, 36
7, 122640, Note_off_c, 5, 49, 64
7, 122880, Note_on_c, 5, 50, 36
7, 123120, Note_off_c, 5, 50, 64
7, 123360, Note_on_c, 5, 57, 36
7, 123600, Note_off_c, 5, 57, 64
7, 123840, Note_on_c, 5, 59, 36
7, 124080, Note_off_c, 5, 59, 64
7, 124320, Note_on_c, 5, 55, 36
7, 124560, Note_off_c, 5, 55, 64
7, 124800, Note_on_c, 5, 57, 36
7, 125280, Note_off_c, 5, 57, 64
7, 125280, Note_on_c, 5, 45, 36
7, 125760, Note_off_c, 5, 45, 64
7, 125760, Note_on_c, 5, 50, 36
7, 126000, Note_off_c, 5, 50, 64
7, 129720, Note_on_c, 5, 57, 36
7, 129840, Note_off_c, 5, 57, 64
7, 129840, Note_on_c, 5, 56, 36
7, 129960, Note_off_c, 5, 56, 64
7, 129960, Note_on_c, 5, 57, 36
7, 130080, Note_off_c, 5, 57, 64
7, 130080, Note_on_c, 5, 45, 36
7, 130128, Note_off_c, 5, 45, 64
7, 130200, Note_on_c, 5, 49, 36
7, 130248, Note_off_c, 5, 49, 64
7, 130320, Note_on_c, 5, 52, 36
7, 130368, Note_off_c, 5, 52, 64
7, 130440, Note_on_c, 5, 49, 36
7, 130488, Note_off_c, 5, 49, 64
7, 130560, Note_on_c, 5, 45, 36
7, 130800, Note_off_c, 5, 45, 64
7, 131640, Note_on_c, 5, 57, 36
7, 131688, Note_off_c, 5, 57, 64
7, 131760, Note_on_c, 5, 57, 36
7, 131808, Note_off_c, 5, 57, 64
7, 131880, Note_on_c, 5, 57, 36
7, 131928, Note_off_c, 5, 57, 64
7, 132000, Note_on_c, 5, 57, 36
7, 132048, Note_off_c, 5, 57, 64
7, 132120, Note_on_c, 5, 57, 36
7, 132168, Note_off_c, 5, 57, 64
7, 132240, Note_on_c, 5, 57, 36
7, 132288, Note_off_c, 5, 57, 64
7, 132360, Note_on_c, 5, 57, 36
7, 132408, Note_off_c, 5, 57, 64
7, 132480, Note_on_c, 5, 45, 36
7, 132720, Note_off_c, 5, 45, 64
7, 133560, Note_on_c, 5, 57, 36
7, 133608, Note_off_c, 5, 57, 64
7, 133680, Note_on_c, 5, 57, 36
7, 133728, Note_off_c, 5, 57, 64
7, 133800, Note_on_c, 5, 57, 36
7, 133848, Note_off_c, 5, 57, 64
7, 133920, Note_on_c, 5, 57, 36
7, 133968, Note_off_c, 5, 57, 64
7, 134040, Note_on_c, 5, 57, 36
7, 134088, Note_off_c, 5, 57, 64
7, 134160, Note_on_c, 5, 57, 36
7, 134208, Note_off_c, 5, 57, 64
7, 134280, Note_on_c, 5, 57, 36
7, 134328, Note_off_c, 5, 57, 64
7, 134400, Note_on_c, 5, 45, 36
7, 134640, Note_off_c, 5, 45, 64
7, 135480, Note_on_c, 5, 57, 36
7, 135528, Note_off_c, 5, 57, 64
7, 135600, Note_on_c, 5, 57, 36
7, 135648, Note_off_c, 5, 57, 64
7, 135720, Note_on_c, 5, 57, 36
7, 135768, Note_off_c, 5, 57, 64
7, 135840, Note_on_c, 5, 57, 36
7, 135888, Note_off_c, 5, 57, 64
7, 135960, Note_on_c, 5, 57, 36
7, 136008, Note_off_c, 5, 57, 64
7, 136080, Note_on_c, 5, 57, 36
7, 136128, Note_off_c, 5, 57, 64
7, 136200, Note_on_c, 5, 57, 36
7, 136248, Note_off_c, 5, 57, 64
7, 136320, Note_on_c, 5, 62, 36
7, 136368, Note_off_c, 5, 62, 64
7, 136440, Note_on_c, 5, 62, 36
7, 136488, Note_off_c, 5, 62, 64
7, 136560, Note_on_c, 5, 62, 36
7, 136608, Note_off_c, 5, 62, 64
7, 136680, Note_on_c, 5, 62, 36
7, 136728, Note_off_c, 5, 62, 64
7, 136800, Note_on_c, 5, 62, 36
7, 136848, Note_off_c, 5, 62, 64
7, 136920, Note_on_c, 5, 62, 36
7, 136968, Note_off_c, 5, 62, 64
7, 137040, Note_on_c, 5, 62, 36
7, 137088, Note_off_c, 5, 62, 64
7, 137160, Note_on_c, 5, 62, 36
7, 137208, Note_off_c, 5, 62, 64
7, 137280, Note_on_c, 5, 59, 36
7, 137328, Note_off_c, 5, 59, 64
7, 137400, Note_on_c, 5, 59, 36
7, 137448, Note_off_c, 5, 59, 64
7, 137520, Note_on_c, 5, 59, 36
7, 137568, Note_off_c, 5, 59, 64
7, 137640, Note_on_c, 5, 59, 36
7, 137688, Note_off_c, 5, 59, 64
7, 137760, Note_on_c, 5, 59, 36
7, 137808, Note_off_c, 5, 59, 64
7, 137880, Note_on_c, 5, 59, 36
7, 137928, Note_off_c, 5, 59, 64
7, 138000, Note_on_c, 5, 59, 36
7, 138048, Note_off_c, 5, 59, 64
7, 138120, Note_on_c, 5, 59, 36
7, 138168, Note_off_c, 5, 59, 64
7, 138240, Note_on_c, 5, 54, 36
7, 138288, Note_off_c, 5, 54, 64
7, 138360, Note_on_c, 5, 54, 36
7, 138408, Note_off_c, 5, 54, 64
7, 138480, Note_on_c, 5, 54, 36
7, 138528, Note_off_c, 5, 54, 64
7, 138600, Note_on_c, 5, 54, 36
7, 138648, Note_off_c, 5, 54, 64
7, 138720, Note_on_c, 5, 54, 36
7, 138768, Note_off_c, 5, 54, 64
7, 138840, Note_on_c, 5, 54, 36
7, 138888, Note_off_c, 5, 54, 64
7, 138960, Note_on_c, 5, 54, 36
7, 139008, Note_off_c, 5, 54, 64
7, 139080, Note_on_c, 5, 54, 36
7, 139128, Note_off_c, 5, 54, 64
7, 139200, Note_on_c, 5, 55, 36
7, 139680, Note_off_c, 5, 55, 64
7, 139680, Note_on_c, 5, 57, 36
7, 140160, Note_off_c, 5, 57, 64
7, 140160, Note_on_c, 5, 58, 62
7, 140208, Note_off_c, 5, 58, 64
7, 140280, Note_on_c, 5, 58, 36
7, 140328, Note_off_c, 5, 58, 64
7, 140400, Note_on_c, 5, 58, 36
7, 140448, Note_off_c, 5, 58, 64
7, 140520, Note_on_c, 5, 58, 36
7, 140568, Note_off_c, 5, 58, 64
7, 140640, Note_on_c, 5, 58, 36
7, 140688, Note_off_c, 5, 58, 64
7, 140760, Note_on_c, 5, 58, 36
7, 140808, Note_off_c, 5, 58, 64
7, 140880, Note_on_c, 5, 58, 36
7, 140928, Note_off_c, 5, 58, 64
7, 141000, Note_on_c, 5, 58, 36
7, 141048, Note_off_c, 5, 58, 64
7, 141120, Note_on_c, 5, 57, 36
7, 141360, Note_off_c, 5, 57, 64
7, 141600, Note_on_c, 5, 55, 36
7, 141840, Note_off_c, 5, 55, 64
7, 142080, Note_on_c, 5, 54, 36
7, 142128, Note_off_c, 5, 54, 64
7, 142320, Note_on_c, 5, 54, 36
7, 142368, Note_off_c, 5, 54, 64
7, 142560, Note_on_c, 5, 55, 39
7, 142608, Note_off_c, 5, 55, 64
7, 142800, Note_on_c, 5, 55, 45
7, 142848, Note_off_c, 5, 55, 64
7, 143040, Note_on_c, 5, 57, 52
7, 143088, Note_off_c, 5, 57, 64
7, 143160, Note_on_c, 5, 57, 55
7, 143208, Note_off_c, 5, 57, 64
7, 143280, Note_on_c, 5, 57, 61
7, 143328, Note_off_c, 5, 57, 64
7, 143400, Note_on_c, 5, 57, 64
7, 143448, Note_off_c, 5, 57, 64
7, 143520, Note_on_c, 5, 57, 67
7, 143568, Note_off_c, 5, 57, 64
7, 143640, Note_on_c, 5, 57, 71
7, 143688, Note_off_c, 5, 57, 64
7, 143760, Note_on_c, 5, 57, 74
7, 143808, Note_off_c, 5, 57, 64
7, 143880, Note_on_c, 5, 57, 77
7, 143928, Note_off_c, 5, 57, 64
7, 144000, Note_on_c, 5, 59, 103
7, 144048, Note_off_c, 5, 59, 64
7, 144120, Note_on_c, 5, 59, 103
7, 144168, Note_off_c, 5, 59, 64
7, 144240, Note_on_c, 5, 59, 103
7, 144288, Note_off_c, 5, 59, 64
7, 144360, Note_on_c, 5, 59, 103
7, 144408, Note_off_c, 5, 59, 64
7, 144480, Note_on_c, 5, 59, 103
7, 144528, Note_off_c, 5, 59, 64
7, 144600, Note_on_c, 5, 59, 103
7, 144648, Note_off_c, 5, 59, 64
7, 144720, Note_on_c, 5, 59, 103
7, 144768, Note_off_c, 5, 59, 64
7, 144840, Note_on_c, 5, 59, 103
7, 144888, Note_off_c, 5, 59, 64
7, 144960, Note_on_c, 5, 57, 103
7, 145140, Note_off_c, 5, 57, 64
7, 145200, Note_on_c, 5, 57, 103
7, 145380, Note_off_c, 5, 57, 64
7, 145440, Note_on_c, 5, 45, 103
7, 145620, Note_off_c, 5, 45, 64
7, 146880, Note_on_c, 5, 50, 36
7, 146928, Note_off_c, 5, 50, 64
7, 147000, Note_on_c, 5, 50, 36
7, 147048, Note_off_c, 5, 50, 64
7, 147120, Note_on_c, 5, 50, 36
7, 147168, Note_off_c, 5, 50, 64
7, 147240, Note_on_c, 5, 50, 36
7, 147288, Note_off_c, 5, 50, 64
7, 147360, Note_on_c, 5, 50, 36
7, 147408, Note_off_c, 5, 50, 64
7, 147480, Note_on_c, 5, 50, 36
7, 147528, Note_off_c, 5, 50, 64
7, 147600, Note_on_c, 5, 50, 36
7, 147648, Note_off_c, 5, 50, 64
7, 147720, Note_on_c, 5, 50, 36
7, 147768, Note_off_c, 5, 50, 64
7, 147840, Note_on_c, 5, 50, 36
7, 147888, Note_off_c, 5, 50, 64
7, 147960, Note_on_c, 5, 50, 36
7, 148008, Note_off_c, 5, 50, 64
7, 148080, Note_on_c, 5, 50, 36
7, 148128, Note_off_c, 5, 50, 64
7, 148200, Note_on_c, 5, 50, 36
7, 148248, Note_off_c, 5, 50, 64
7, 148320, Note_on_c, 5, 50, 36
7, 148368, Note_off_c, 5, 50, 64
7, 148440, Note_on_c, 5, 50, 36
7, 148488, Note_off_c, 5, 50, 64
7, 148560, Note_on_c, 5, 50, 36
7, 148608, Note_off_c, 5, 50, 64
7, 148680, Note_on_c, 5, 50, 36
7, 148728, Note_off_c, 5, 50, 64
7, 148800, Note_on_c, 5, 50, 36
7, 148848, Note_off_c, 5, 50, 64
7, 148920, Note_on_c, 5, 50, 36
7, 148968, Note_off_c, 5, 50, 64
7, 149040, Note_on_c, 5, 50, 36
7, 149088, Note_off_c, 5, 50, 64
7, 149160, Note_on_c, 5, 50, 36
7, 149208, Note_off_c, 5, 50, 64
7, 149280, Note_on_c, 5, 50, 36
7, 149328, Note_off_c, 5, 50, 64
7, 149400, Note_on_c, 5, 50, 36
7, 149448, Note_off_c, 5, 50, 64
7, 149520, Note_on_c, 5, 50, 36
7, 149568, Note_off_c, 5, 50, 64
7, 149640, Note_on_c, 5, 50, 36
7, 149688, Note_off_c, 5, 50, 64
7, 149760, Note_on_c, 5, 50, 36
7, 149808, Note_off_c, 5, 50, 64
7, 149880, Note_on_c, 5, 50, 36
7, 149928, Note_off_c, 5, 50, 64
7, 150000, Note_on_c, 5, 50, 36
7, 150048, Note_off_c, 5, 50, 64
7, 150120, Note_on_c, 5, 50, 36
7, 150168, Note_off_c, 5, 50, 64
7, 150240, Note_on_c, 5, 50, 36
7, 150288, Note_off_c, 5, 50, 64
7, 150360, Note_on_c, 5, 50, 36
7, 150408, Note_off_c, 5, 50, 64
7, 150480, Note_on_c, 5, 50, 36
7, 150528, Note_off_c, 5, 50, 64
7, 150600, Note_on_c, 5, 50, 36
7, 150648, Note_off_c, 5, 50, 64
7, 150720, Note_on_c, 5, 50, 36
7, 150960, Note_off_c, 5, 50, 64
7, 154560, Note_on_c, 5, 50, 36
7, 154608, Note_off_c, 5, 50, 64
7, 154680, Note_on_c, 5, 50, 36
7, 154728, Note_off_c, 5, 50, 64
7, 154800, Note_on_c, 5, 50, 36
7, 154848, Note_off_c, 5, 50, 64
7, 154920, Note_on_c, 5, 50, 36
7, 154968, Note_off_c, 5, 50, 64
7, 155040, Note_on_c, 5, 50, 36
7, 155088, Note_off_c, 5, 50, 64
7, 155160, Note_on_c, 5, 50, 36
7, 155208, Note_off_c, 5, 50, 64
7, 155280, Note_on_c, 5, 50, 36
7, 155328, Note_off_c, 5, 50, 64
7, 155400, Note_on_c, 5, 50, 36
7, 155448, Note_off_c, 5, 50, 64
7, 155520, Note_on_c, 5, 50, 36
7, 155568, Note_off_c, 5, 50, 64
7, 155640, Note_on_c, 5, 50, 36
7, 155688, Note_off_c, 5, 50, 64
7, 155760, Note_on_c, 5, 50, 36
7, 155808, Note_off_c, 5, 50, 64
7, 155880, Note_on_c, 5, 50, 36
7, 155928, Note_off_c, 5, 50, 64
7, 156000, Note_on_c, 5, 50, 36
7, 156048, Note_off_c, 5, 50, 64
7, 156120, Note_on_c, 5, 50, 36
7, 156168, Note_off_c, 5, 50, 64
7, 156240, Note_on_c, 5, 50, 36
7, 156288, Note_off_c, 5, 50, 64
7, 156360, Note_on_c, 5, 50, 36
7, 156408, Note_off_c, 5, 50, 64
7, 156480, Note_on_c, 5, 50, 36
7, 156720, Note_off_c, 5, 50, 64
7, 159360, Note_on_c, 5, 54, 36
7, 159600, Note_off_c, 5, 54, 64
7, 159960, Note_on_c, 5, 54, 36
7, 160008, Note_off_c, 5, 54, 64
7, 160080, Note_on_c, 5, 54, 36
7, 160128, Note_off_c, 5, 54, 64
7, 160200, Note_on_c, 5, 54, 36
7, 160248, Note_off_c, 5, 54, 64
7, 160320, Note_on_c, 5, 55, 36
7, 160560, Note_off_c, 5, 55, 64
7, 160920, Note_on_c, 5, 55, 36
7, 160968, Note_off_c, 5, 55, 64
7, 161040, Note_on_c, 5, 55, 36
7, 161088, Note_off_c, 5, 55, 64
7, 161160, Note_on_c, 5, 55, 36
7, 161208, Note_off_c, 5, 55, 64
7, 161280, Note_on_c, 5, 57, 36
7, 161328, Note_off_c, 5, 57, 64
7, 161400, Note_on_c, 5, 57, 36
7, 161448, Note_off_c, 5, 57, 64
7, 161520, Note_on_c, 5, 57, 36
7, 161568, Note_off_c, 5, 57, 64
7, 161640, Note_on_c, 5, 57, 36
7, 161688, Note_off_c, 5, 57, 64
7, 161760, Note_on_c, 5, 57, 36
7, 161808, Note_off_c, 5, 57, 64
7, 161880, Note_on_c, 5, 57, 36
7, 161928, Note_off_c, 5, 57, 64
7, 162000, Note_on_c, 5, 55, 36
7, 162048, Note_off_c, 5, 55, 64
7, 162120, Note_on_c, 5, 55, 36
7, 162168, Note_off_c, 5, 55, 64
7, 162240, Note_on_c, 5, 54, 36
7, 162480, Note_off_c, 5, 54, 64
7, 162840, Note_on_c, 5, 54, 36
7, 162888, Note_off_c, 5, 54, 64
7, 162960, Note_on_c, 5, 54, 36
7, 163008, Note_off_c, 5, 54, 64
7, 163080, Note_on_c, 5, 54, 36
7, 163128, Note_off_c, 5, 54, 64
7, 163200, Note_on_c, 5, 55, 36
7, 163440, Note_off_c, 5, 55, 64
7, 163800, Note_on_c, 5, 55, 36
7, 163848, Note_off_c, 5, 55, 64
7, 163920, Note_on_c, 5, 55, 36
7, 163968, Note_off_c, 5, 55, 64
7, 164040, Note_on_c, 5, 56, 36
7, 164088, Note_off_c, 5, 56, 64
7, 164160, Note_on_c, 5, 57, 62
7, 164208, Note_off_c, 5, 57, 64
7, 164280, Note_on_c, 5, 57, 36
7, 164328, Note_off_c, 5, 57, 64
7, 164400, Note_on_c, 5, 57, 36
7, 164448, Note_off_c, 5, 57, 64
7, 164520, Note_on_c, 5, 57, 36
7, 164568, Note_off_c, 5, 57, 64
7, 164640, Note_on_c, 5, 57, 36
7, 164688, Note_off_c, 5, 57, 64
7, 164760, Note_on_c, 5, 57, 36
7, 164808, Note_off_c, 5, 57, 64
7, 164880, Note_on_c, 5, 57, 36
7, 164928, Note_off_c, 5, 57, 64
7, 165000, Note_on_c, 5, 57, 36
7, 165048, Note_off_c, 5, 57, 64
7, 165120, Note_on_c, 5, 57, 36
7, 165168, Note_off_c, 5, 57, 64
7, 165240, Note_on_c, 5, 57, 36
7, 165288, Note_off_c, 5, 57, 64
7, 165360, Note_on_c, 5, 57, 39
7, 165408, Note_off_c, 5, 57, 64
7, 165480, Note_on_c, 5, 57, 42
7, 165528, Note_off_c, 5, 57, 64
7, 165600, Note_on_c, 5, 57, 45
7, 165648, Note_off_c, 5, 57, 64
7, 165720, Note_on_c, 5, 57, 49
7, 165768, Note_off_c, 5, 57, 64
7, 165840, Note_on_c, 5, 57, 52
7, 165888, Note_off_c, 5, 57, 64
7, 165960, Note_on_c, 5, 57, 55
7, 166008, Note_off_c, 5, 57, 64
7, 166080, Note_on_c, 5, 50, 103
7, 166128, Note_off_c, 5, 50, 64
7, 166200, Note_on_c, 5, 50, 103
7, 166248, Note_off_c, 5, 50, 64
7, 166320, Note_on_c, 5, 50, 103
7, 166368, Note_off_c, 5, 50, 64
7, 166440, Note_on_c, 5, 62, 103
7, 166488, Note_off_c, 5, 62, 64
7, 166560, Note_on_c, 5, 61, 103
7, 166680, Note_off_c, 5, 61, 64
7, 166680, Note_on_c, 5, 62, 103
7, 166728, Note_off_c, 5, 62, 64
7, 166800, Note_on_c, 5, 62, 103
7, 166848, Note_off_c, 5, 62, 64
7, 166920, Note_on_c, 5, 62, 103
7, 166968, Note_off_c, 5, 62, 64
7, 167040, Note_on_c, 5, 59, 103
7, 167088, Note_off_c, 5, 59, 64
7, 167160, Note_on_c, 5, 62, 103
7, 167208, Note_off_c, 5, 62, 64
7, 167280, Note_on_c, 5, 57, 103
7, 167328, Note_off_c, 5, 57, 64
7, 167400, Note_on_c, 5, 62, 103
7, 167448, Note_off_c, 5, 62, 64
7, 167520, Note_on_c, 5, 61, 103
7, 167640, Note_off_c, 5, 61, 64
7, 167640, Note_on_c, 5, 62, 103
7, 167688, Note_off_c, 5, 62, 64
7, 167760, Note_on_c, 5, 62, 103
7, 167808, Note_off_c, 5, 62, 64
7, 167880, Note_on_c, 5, 62, 103
7, 167928, Note_off_c, 5, 62, 64
7, 168000, Note_on_c, 5, 54, 103
7, 168048, Note_off_c, 5, 54, 64
7, 168120, Note_on_c, 5, 62, 103
7, 168168, Note_off_c, 5, 62, 64
7, 168240, Note_on_c, 5, 55, 103
7, 168288, Note_off_c, 5, 55, 64
7, 168360, Note_on_c, 5, 62, 103
7, 168408, Note_off_c, 5, 62, 64
7, 168480, Note_on_c, 5, 61, 103
7, 168600, Note_off_c, 5, 61, 64
7, 168600, Note_on_c, 5, 62, 103
7, 168648, Note_off_c, 5, 62, 64
7, 168720, Note_on_c, 5, 62, 103
7, 168768, Note_off_c, 5, 62, 64
7, 168840, Note_on_c, 5, 62, 103
7, 168888, Note_off_c, 5, 62, 64
7, 168960, Note_on_c, 5, 56, 103
7, 169080, Note_off_c, 5, 56, 64
7, 169080, Note_on_c, 5, 62, 103
7, 169200, Note_off_c, 5, 62, 64
7, 169200, Note_on_c, 5, 62, 103
7, 169230, Note_off_c, 5, 62, 64
7, 169230, Note_on_c, 5, 64, 103
7, 169260, Note_off_c, 5, 64, 64
7, 169260, Note_on_c, 5, 62, 103
7, 169290, Note_off_c, 5, 62, 64
7, 169290, Note_on_c, 5, 64, 103
7, 169320, Note_off_c, 5, 64, 64
7, 169320, Note_on_c, 5, 62, 103
7, 169350, Note_off_c, 5, 62, 64
7, 169350, Note_on_c, 5, 64, 103
7, 169380, Note_off_c, 5, 64, 64
7, 169380, Note_on_c, 5, 61, 103
7, 169410, Note_off_c, 5, 61, 64
7, 169410, Note_on_c, 5, 62, 103
7, 169440, Note_off_c, 5, 62, 64
7, 169440, Note_on_c, 5, 66, 103
7, 169488, Note_off_c, 5, 66, 64
7, 169560, Note_on_c, 5, 62, 103
7, 169608, Note_off_c, 5, 62, 64
7, 169680, Note_on_c, 5, 59, 103
7, 169728, Note_off_c, 5, 59, 64
7, 169800, Note_on_c, 5, 56, 103
7, 169848, Note_off_c, 5, 56, 64
7, 169920, Note_on_c, 5, 57, 103
7, 170400, Note_off_c, 5, 57, 64
7, 170880, Note_on_c, 5, 50, 103
7, 170928, Note_off_c, 5, 50, 64
7, 171000, Note_on_c, 5, 54, 103
7, 171048, Note_off_c, 5, 54, 64
7, 171120, Note_on_c, 5, 57, 103
7, 171168, Note_off_c, 5, 57, 64
7, 171240, Note_on_c, 5, 54, 103
7, 171288, Note_off_c, 5, 54, 64
7, 171360, Note_on_c, 5, 50, 103
7, 171408, Note_off_c, 5, 50, 64
7, 171480, Note_on_c, 5, 54, 103
7, 171528, Note_off_c, 5, 54, 64
7, 171600, Note_on_c, 5, 57, 103
7, 171648, Note_off_c, 5, 57, 64
7, 171720, Note_on_c, 5, 54, 103
7, 171768, Note_off_c, 5, 54, 64
7, 171840, Note_on_c, 5, 55, 103
7, 171888, Note_off_c, 5, 55, 64
7, 171960, Note_on_c, 5, 55, 103
7, 172008, Note_off_c, 5, 55, 64
7, 172080, Note_on_c, 5, 55, 103
7, 172128, Note_off_c, 5, 55, 64
7, 172200, Note_on_c, 5, 55, 103
7, 172248, Note_off_c, 5, 55, 64
7, 172320, Note_on_c, 5, 55, 103
7, 172368, Note_off_c, 5, 55, 64
7, 172440, Note_on_c, 5, 55, 103
7, 172488, Note_off_c, 5, 55, 64
7, 172560, Note_on_c, 5, 55, 103
7, 172608, Note_off_c, 5, 55, 64
7, 172680, Note_on_c, 5, 55, 103
7, 172728, Note_off_c, 5, 55, 64
7, 172800, Note_on_c, 5, 57, 103
7, 172848, Note_off_c, 5, 57, 64
7, 172920, Note_on_c, 5, 57, 103
7, 172968, Note_off_c, 5, 57, 64
7, 173040, Note_on_c, 5, 57, 103
7, 173088, Note_off_c, 5, 57, 64
7, 173160, Note_on_c, 5, 57, 103
7, 173208, Note_off_c, 5, 57, 64
7, 173280, Note_on_c, 5, 45, 103
7, 173328, Note_off_c, 5, 45, 64
7, 173400, Note_on_c, 5, 45, 103
7, 173448, Note_off_c, 5, 45, 64
7, 173520, Note_on_c, 5, 45, 103
7, 173568, Note_off_c, 5, 45, 64
7, 173640, Note_on_c, 5, 45, 103
7, 173688, Note_off_c, 5, 45, 64
7, 173760, Note_on_c, 5, 50, 103
7, 174000, Note_off_c, 5, 50, 64
7, 174960, Note_on_c, 5, 50, 103
7, 175008, Note_off_c, 5, 50, 64
7, 175080, Note_on_c, 5, 54, 103
7, 175200, Note_off_c, 5, 54, 64
7, 175200, Note_on_c, 5, 57, 103
7, 175248, Note_off_c, 5, 57, 64
7, 175320, Note_on_c, 5, 57, 103
7, 175368, Note_off_c, 5, 57, 64
7, 175440, Note_on_c, 5, 57, 103
7, 175488, Note_off_c, 5, 57, 64
7, 175560, Note_on_c, 5, 57, 103
7, 175608, Note_off_c, 5, 57, 64
7, 175680, Note_on_c, 5, 62, 103
7, 175800, Note_off_c, 5, 62, 64
7, 176880, Note_on_c, 5, 50, 103
7, 176928, Note_off_c, 5, 50, 64
7, 177000, Note_on_c, 5, 54, 103
7, 177048, Note_off_c, 5, 54, 64
7, 177120, Note_on_c, 5, 57, 103
7, 177168, Note_off_c, 5, 57, 64
7, 177240, Note_on_c, 5, 57, 103
7, 177288, Note_off_c, 5, 57, 64
7, 177360, Note_on_c, 5, 57, 103
7, 177408, Note_off_c, 5, 57, 64
7, 177480, Note_on_c, 5, 57, 103
7, 177528, Note_off_c, 5, 57, 64
7, 177600, Note_on_c, 5, 62, 103
7, 177648, Note_off_c, 5, 62, 64
7, 177720, Note_on_c, 5, 57, 103
7, 177768, Note_off_c, 5, 57, 64
7, 177840, Note_on_c, 5, 54, 103
7, 177888, Note_off_c, 5, 54, 64
7, 177960, Note_on_c, 5, 50, 103
7, 178008, Note_off_c, 5, 50, 64
7, 178080, Note_on_c, 5, 45, 103
7, 178128, Note_off_c, 5, 45, 64
7, 178200, Note_on_c, 5, 45, 103
7, 178248, Note_off_c, 5, 45, 64
7, 178320, Note_on_c, 5, 57, 103
7, 178368, Note_off_c, 5, 57, 64
7, 178440, Note_on_c, 5, 57, 103
7, 178488, Note_off_c, 5, 57, 64
7, 178560, Note_on_c, 5, 50, 103
7, 178608, Note_off_c, 5, 50, 64
7, 178680, Note_on_c, 5, 62, 103
7, 178728, Note_off_c, 5, 62, 64
7, 178800, Note_on_c, 5, 62, 103
7, 178830, Note_off_c, 5, 62, 64
7, 178830, Note_on_c, 5, 64, 103
7, 178860, Note_off_c, 5, 64, 64
7, 178860, Note_on_c, 5, 62, 103
7, 178890, Note_off_c, 5, 62, 64
7, 178890, Note_on_c, 5, 64, 103
7, 178920, Note_off_c, 5, 64, 64
7, 178920, Note_on_c, 5, 62, 103
7, 178950, Note_off_c, 5, 62, 64
7, 178950, Note_on_c, 5, 64, 103
7, 178980, Note_off_c, 5, 64, 64
7, 178980, Note_on_c, 5, 61, 103
7, 179010, Note_off_c, 5, 61, 64
7, 179010, Note_on_c, 5, 62, 103
7, 179040, Note_off_c, 5, 62, 64
7, 179040, Note_on_c, 5, 66, 103
7, 179088, Note_off_c, 5, 66, 64
7, 179160, Note_on_c, 5, 62, 103
7, 179208, Note_off_c, 5, 62, 64
7, 179280, Note_on_c, 5, 57, 103
7, 179328, Note_off_c, 5, 57, 64
7, 179400, Note_on_c, 5, 54, 103
7, 179448, Note_off_c, 5, 54, 64
7, 179520, Note_on_c, 5, 50, 103
7, 179760, Note_off_c, 5, 50, 64
7, 179760, Note_on_c, 5, 50, 103
7, 179940, Note_off_c, 5, 50, 64
7, 180000, Note_on_c, 5, 50, 103
7, 180240, Note_off_c, 5, 50, 64
7, 180240, End_track
8, 0, Start_track
8, 0, Title_t, "Doublebass  and play along !"
8, 0, Program_c, 6, 43
8, 0, Note_on_c, 6, 50, 100
8, 0, Control_c, 6, 7, 65
8, 48, Note_off_c, 6, 50, 64
8, 120, Note_on_c, 6, 50, 100
8, 168, Note_off_c, 6, 50, 64
8, 240, Note_on_c, 6, 50, 100
8, 288, Note_off_c, 6, 50, 64
8, 360, Note_on_c, 6, 50, 100
8, 408, Note_off_c, 6, 50, 64
8, 480, Note_on_c, 6, 50, 100
8, 528, Note_off_c, 6, 50, 64
8, 600, Note_on_c, 6, 50, 100
8, 648, Note_off_c, 6, 50, 64
8, 720, Note_on_c, 6, 50, 100
8, 768, Note_off_c, 6, 50, 64
8, 840, Note_on_c, 6, 50, 100
8, 888, Note_off_c, 6, 50, 64
8, 960, Note_on_c, 6, 50, 100
8, 1008, Note_off_c, 6, 50, 64
8, 1080, Note_on_c, 6, 50, 100
8, 1128, Note_off_c, 6, 50, 64
8, 1200, Note_on_c, 6, 50, 100
8, 1248, Note_off_c, 6, 50, 64
8, 1320, Note_on_c, 6, 50, 100
8, 1368, Note_off_c, 6, 50, 64
8, 1440, Note_on_c, 6, 50, 100
8, 1488, Note_off_c, 6, 50, 64
8, 1560, Note_on_c, 6, 50, 100
8, 1608, Note_off_c, 6, 50, 64
8, 1680, Note_on_c, 6, 50, 100
8, 1728, Note_off_c, 6, 50, 64
8, 1800, Note_on_c, 6, 50, 100
8, 1848, Note_off_c, 6, 50, 64
8, 1920, Note_on_c, 6, 50, 100
8, 1968, Note_off_c, 6, 50, 64
8, 2040, Note_on_c, 6, 50, 100
8, 2088, Note_off_c, 6, 50, 64
8, 2160, Note_on_c, 6, 50, 100
8, 2208, Note_off_c, 6, 50, 64
8, 2280, Note_on_c, 6, 50, 100
8, 2328, Note_off_c, 6, 50, 64
8, 2400, Note_on_c, 6, 50, 100
8, 2448, Note_off_c, 6, 50, 64
8, 2520, Note_on_c, 6, 50, 100
8, 2568, Note_off_c, 6, 50, 64
8, 2640, Note_on_c, 6, 50, 100
8, 2688, Note_off_c, 6, 50, 64
8, 2760, Note_on_c, 6, 50, 100
8, 2808, Note_off_c, 6, 50, 64
8, 2880, Note_on_c, 6, 50, 100
8, 2928, Note_off_c, 6, 50, 64
8, 3000, Note_on_c, 6, 50, 100
8, 3048, Note_off_c, 6, 50, 64
8, 3120, Note_on_c, 6, 50, 100
8, 3168, Note_off_c, 6, 50, 64
8, 3240, Note_on_c, 6, 50, 100
8, 3288, Note_off_c, 6, 50, 64
8, 3360, Note_on_c, 6, 50, 100
8, 3408, Note_off_c, 6, 50, 64
8, 3480, Note_on_c, 6, 50, 100
8, 3528, Note_off_c, 6, 50, 64
8, 3600, Note_on_c, 6, 50, 100
8, 3648, Note_off_c, 6, 50, 64
8, 3720, Note_on_c, 6, 50, 100
8, 3768, Note_off_c, 6, 50, 64
8, 3840, Note_on_c, 6, 50, 100
8, 3888, Note_off_c, 6, 50, 64
8, 3960, Note_on_c, 6, 62, 100
8, 4008, Note_off_c, 6, 62, 64
8, 4080, Note_on_c, 6, 50, 100
8, 4128, Note_off_c, 6, 50, 64
8, 4200, Note_on_c, 6, 50, 100
8, 4248, Note_off_c, 6, 50, 64
8, 4320, Note_on_c, 6, 50, 100
8, 4560, Note_off_c, 6, 50, 64
8, 4800, Note_on_c, 6, 54, 36
8, 4848, Note_off_c, 6, 54, 64
8, 4920, Note_on_c, 6, 54, 36
8, 4968, Note_off_c, 6, 54, 64
8, 5040, Note_on_c, 6, 54, 36
8, 5088, Note_off_c, 6, 54, 64
8, 5160, Note_on_c, 6, 54, 36
8, 5208, Note_off_c, 6, 54, 64
8, 5280, Note_on_c, 6, 54, 36
8, 5328, Note_off_c, 6, 54, 64
8, 5400, Note_on_c, 6, 54, 36
8, 5448, Note_off_c, 6, 54, 64
8, 5520, Note_on_c, 6, 54, 36
8, 5568, Note_off_c, 6, 54, 64
8, 5640, Note_on_c, 6, 54, 36
8, 5688, Note_off_c, 6, 54, 64
8, 5760, Note_on_c, 6, 55, 36
8, 5808, Note_off_c, 6, 55, 64
8, 5880, Note_on_c, 6, 55, 36
8, 5928, Note_off_c, 6, 55, 64
8, 6000, Note_on_c, 6, 55, 39
8, 6048, Note_off_c, 6, 55, 64
8, 6120, Note_on_c, 6, 55, 42
8, 6168, Note_off_c, 6, 55, 64
8, 6240, Note_on_c, 6, 55, 45
8, 6288, Note_off_c, 6, 55, 64
8, 6360, Note_on_c, 6, 55, 49
8, 6408, Note_off_c, 6, 55, 64
8, 6480, Note_on_c, 6, 55, 52
8, 6528, Note_off_c, 6, 55, 64
8, 6600, Note_on_c, 6, 55, 55
8, 6648, Note_off_c, 6, 55, 64
8, 6720, Note_on_c, 6, 57, 103
8, 6768, Note_off_c, 6, 57, 64
8, 6840, Note_on_c, 6, 57, 103
8, 6888, Note_off_c, 6, 57, 64
8, 6960, Note_on_c, 6, 57, 103
8, 7008, Note_off_c, 6, 57, 64
8, 7080, Note_on_c, 6, 57, 103
8, 7128, Note_off_c, 6, 57, 64
8, 7200, Note_on_c, 6, 57, 103
8, 7248, Note_off_c, 6, 57, 64
8, 7320, Note_on_c, 6, 57, 103
8, 7368, Note_off_c, 6, 57, 64
8, 7440, Note_on_c, 6, 57, 103
8, 7488, Note_off_c, 6, 57, 64
8, 7560, Note_on_c, 6, 57, 103
8, 7608, Note_off_c, 6, 57, 64
8, 7680, Note_on_c, 6, 57, 103
8, 7728, Note_off_c, 6, 57, 64
8, 7800, Note_on_c, 6, 57, 103
8, 7848, Note_off_c, 6, 57, 64
8, 7920, Note_on_c, 6, 57, 103
8, 7968, Note_off_c, 6, 57, 64
8, 8040, Note_on_c, 6, 57, 103
8, 8088, Note_off_c, 6, 57, 64
8, 8160, Note_on_c, 6, 57, 103
8, 8208, Note_off_c, 6, 57, 64
8, 8280, Note_on_c, 6, 57, 103
8, 8328, Note_off_c, 6, 57, 64
8, 8400, Note_on_c, 6, 57, 103
8, 8448, Note_off_c, 6, 57, 64
8, 8520, Note_on_c, 6, 57, 103
8, 8568, Note_off_c, 6, 57, 64
8, 8640, Note_on_c, 6, 59, 103
8, 8688, Note_off_c, 6, 59, 64
8, 8760, Note_on_c, 6, 59, 103
8, 8808, Note_off_c, 6, 59, 64
8, 8880, Note_on_c, 6, 59, 103
8, 8928, Note_off_c, 6, 59, 64
8, 9000, Note_on_c, 6, 59, 103
8, 9048, Note_off_c, 6, 59, 64
8, 9120, Note_on_c, 6, 59, 103
8, 9168, Note_off_c, 6, 59, 64
8, 9240, Note_on_c, 6, 59, 103
8, 9288, Note_off_c, 6, 59, 64
8, 9360, Note_on_c, 6, 59, 103
8, 9408, Note_off_c, 6, 59, 64
8, 9480, Note_on_c, 6, 59, 103
8, 9528, Note_off_c, 6, 59, 64
8, 9600, Note_on_c, 6, 57, 103
8, 9763, Note_off_c, 6, 57, 64
8, 9840, Note_on_c, 6, 57, 103
8, 10003, Note_off_c, 6, 57, 64
8, 10080, Note_on_c, 6, 45, 103
8, 10373, Note_off_c, 6, 45, 64
8, 11520, Note_on_c, 6, 50, 49
8, 11568, Note_off_c, 6, 50, 64
8, 11640, Note_on_c, 6, 50, 49
8, 11688, Note_off_c, 6, 50, 64
8, 11760, Note_on_c, 6, 50, 49
8, 11808, Note_off_c, 6, 50, 64
8, 11880, Note_on_c, 6, 50, 49
8, 11928, Note_off_c, 6, 50, 64
8, 12000, Note_on_c, 6, 50, 49
8, 12048, Note_off_c, 6, 50, 64
8, 12120, Note_on_c, 6, 50, 49
8, 12168, Note_off_c, 6, 50, 64
8, 12240, Note_on_c, 6, 50, 49
8, 12288, Note_off_c, 6, 50, 64
8, 12360, Note_on_c, 6, 50, 49
8, 12408, Note_off_c, 6, 50, 64
8, 12480, Note_on_c, 6, 50, 49
8, 12528, Note_off_c, 6, 50, 64
8, 12600, Note_on_c, 6, 50, 49
8, 12648, Note_off_c, 6, 50, 64
8, 12720, Note_on_c, 6, 50, 49
8, 12768, Note_off_c, 6, 50, 64
8, 12840, Note_on_c, 6, 50, 49
8, 12888, Note_off_c, 6, 50, 64
8, 12960, Note_on_c, 6, 50, 49
8, 13008, Note_off_c, 6, 50, 64
8, 13080, Note_on_c, 6, 50, 49
8, 13128, Note_off_c, 6, 50, 64
8, 13200, Note_on_c, 6, 50, 49
8, 13248, Note_off_c, 6, 50, 64
8, 13320, Note_on_c, 6, 50, 49
8, 13368, Note_off_c, 6, 50, 64
8, 13440, Note_on_c, 6, 50, 49
8, 13488, Note_off_c, 6, 50, 64
8, 13560, Note_on_c, 6, 50, 49
8, 13608, Note_off_c, 6, 50, 64
8, 13680, Note_on_c, 6, 50, 49
8, 13728, Note_off_c, 6, 50, 64
8, 13800, Note_on_c, 6, 50, 49
8, 13848, Note_off_c, 6, 50, 64
8, 13920, Note_on_c, 6, 50, 49
8, 13968, Note_off_c, 6, 50, 64
8, 14040, Note_on_c, 6, 50, 49
8, 14088, Note_off_c, 6, 50, 64
8, 14160, Note_on_c, 6, 50, 49
8, 14208, Note_off_c, 6, 50, 64
8, 14280, Note_on_c, 6, 50, 49
8, 14328, Note_off_c, 6, 50, 64
8, 14400, Note_on_c, 6, 50, 49
8, 14448, Note_off_c, 6, 50, 64
8, 14520, Note_on_c, 6, 50, 49
8, 14568, Note_off_c, 6, 50, 64
8, 14640, Note_on_c, 6, 50, 49
8, 14688, Note_off_c, 6, 50, 64
8, 14760, Note_on_c, 6, 50, 49
8, 14808, Note_off_c, 6, 50, 64
8, 14880, Note_on_c, 6, 50, 49
8, 14928, Note_off_c, 6, 50, 64
8, 15000, Note_on_c, 6, 50, 49
8, 15048, Note_off_c, 6, 50, 64
8, 15120, Note_on_c, 6, 50, 49
8, 15168, Note_off_c, 6, 50, 64
8, 15240, Note_on_c, 6, 50, 49
8, 15288, Note_off_c, 6, 50, 64
8, 15360, Note_on_c, 6, 50, 49
8, 15840, Note_off_c, 6, 50, 64
8, 15840, Note_on_c, 6, 52, 49
8, 16320, Note_off_c, 6, 52, 64
8, 16320, Note_on_c, 6, 54, 49
8, 16800, Note_off_c, 6, 54, 64
8, 16800, Note_on_c, 6, 49, 49
8, 17280, Note_off_c, 6, 49, 64
8, 17280, Note_on_c, 6, 50, 49
8, 17760, Note_off_c, 6, 50, 64
8, 17760, Note_on_c, 6, 52, 49
8, 18240, Note_off_c, 6, 52, 64
8, 18240, Note_on_c, 6, 54, 49
8, 18480, Note_off_c, 6, 54, 64
8, 18480, Note_on_c, 6, 50, 49
8, 18720, Note_off_c, 6, 50, 64
8, 18720, Note_on_c, 6, 49, 49
8, 18960, Note_off_c, 6, 49, 64
8, 18960, Note_on_c, 6, 57, 49
8, 19200, Note_off_c, 6, 57, 64
8, 19200, Note_on_c, 6, 50, 49
8, 19248, Note_off_c, 6, 50, 64
8, 19320, Note_on_c, 6, 50, 49
8, 19368, Note_off_c, 6, 50, 64
8, 19440, Note_on_c, 6, 50, 49
8, 19488, Note_off_c, 6, 50, 64
8, 19560, Note_on_c, 6, 50, 49
8, 19608, Note_off_c, 6, 50, 64
8, 19680, Note_on_c, 6, 50, 49
8, 19728, Note_off_c, 6, 50, 64
8, 19800, Note_on_c, 6, 50, 49
8, 19848, Note_off_c, 6, 50, 64
8, 19920, Note_on_c, 6, 50, 49
8, 19968, Note_off_c, 6, 50, 64
8, 20040, Note_on_c, 6, 50, 49
8, 20088, Note_off_c, 6, 50, 64
8, 20160, Note_on_c, 6, 50, 19
8, 20208, Note_off_c, 6, 50, 64
8, 20280, Note_on_c, 6, 50, 24
8, 20328, Note_off_c, 6, 50, 64
8, 20400, Note_on_c, 6, 50, 29
8, 20448, Note_off_c, 6, 50, 64
8, 20520, Note_on_c, 6, 50, 35
8, 20568, Note_off_c, 6, 50, 64
8, 20640, Note_on_c, 6, 50, 41
8, 20688, Note_off_c, 6, 50, 64
8, 20760, Note_on_c, 6, 50, 46
8, 20808, Note_off_c, 6, 50, 64
8, 20880, Note_on_c, 6, 50, 51
8, 20928, Note_off_c, 6, 50, 64
8, 21000, Note_on_c, 6, 50, 57
8, 21048, Note_off_c, 6, 50, 64
8, 21120, Note_on_c, 6, 50, 63
8, 21168, Note_off_c, 6, 50, 64
8, 21240, Note_on_c, 6, 54, 63
8, 21288, Note_off_c, 6, 54, 64
8, 21360, Note_on_c, 6, 57, 63
8, 21408, Note_off_c, 6, 57, 64
8, 21480, Note_on_c, 6, 54, 63
8, 21528, Note_off_c, 6, 54, 64
8, 21600, Note_on_c, 6, 50, 63
8, 21648, Note_off_c, 6, 50, 64
8, 21720, Note_on_c, 6, 54, 63
8, 21768, Note_off_c, 6, 54, 64
8, 21840, Note_on_c, 6, 57, 63
8, 21888, Note_off_c, 6, 57, 64
8, 21960, Note_on_c, 6, 54, 63
8, 22008, Note_off_c, 6, 54, 64
8, 22080, Note_on_c, 6, 55, 114
8, 22128, Note_off_c, 6, 55, 64
8, 22200, Note_on_c, 6, 55, 114
8, 22248, Note_off_c, 6, 55, 64
8, 22320, Note_on_c, 6, 55, 114
8, 22368, Note_off_c, 6, 55, 64
8, 22440, Note_on_c, 6, 55, 114
8, 22488, Note_off_c, 6, 55, 64
8, 22560, Note_on_c, 6, 55, 114
8, 22608, Note_off_c, 6, 55, 64
8, 22680, Note_on_c, 6, 55, 114
8, 22728, Note_off_c, 6, 55, 64
8, 22800, Note_on_c, 6, 55, 114
8, 22848, Note_off_c, 6, 55, 64
8, 22920, Note_on_c, 6, 55, 114
8, 22968, Note_off_c, 6, 55, 64
8, 23040, Note_on_c, 6, 57, 114
8, 23088, Note_off_c, 6, 57, 64
8, 23160, Note_on_c, 6, 57, 114
8, 23208, Note_off_c, 6, 57, 64
8, 23280, Note_on_c, 6, 57, 114
8, 23328, Note_off_c, 6, 57, 64
8, 23400, Note_on_c, 6, 57, 114
8, 23448, Note_off_c, 6, 57, 64
8, 23520, Note_on_c, 6, 45, 114
8, 23568, Note_off_c, 6, 45, 64
8, 23640, Note_on_c, 6, 45, 114
8, 23688, Note_off_c, 6, 45, 64
8, 23760, Note_on_c, 6, 45, 114
8, 23808, Note_off_c, 6, 45, 64
8, 23880, Note_on_c, 6, 45, 114
8, 23928, Note_off_c, 6, 45, 64
8, 24000, Note_on_c, 6, 50, 114
8, 24240, Note_off_c, 6, 50, 64
8, 25200, Note_on_c, 6, 50, 100
8, 25248, Note_off_c, 6, 50, 64
8, 25320, Note_on_c, 6, 54, 100
8, 25368, Note_off_c, 6, 54, 64
8, 25440, Note_on_c, 6, 57, 100
8, 25488, Note_off_c, 6, 57, 64
8, 25560, Note_on_c, 6, 57, 100
8, 25608, Note_off_c, 6, 57, 64
8, 25680, Note_on_c, 6, 57, 100
8, 25728, Note_off_c, 6, 57, 64
8, 25800, Note_on_c, 6, 57, 100
8, 25848, Note_off_c, 6, 57, 64
8, 25920, Note_on_c, 6, 62, 100
8, 26040, Note_off_c, 6, 62, 64
8, 27120, Note_on_c, 6, 50, 100
8, 27168, Note_off_c, 6, 50, 64
8, 27240, Note_on_c, 6, 54, 100
8, 27288, Note_off_c, 6, 54, 64
8, 27360, Note_on_c, 6, 57, 100
8, 27408, Note_off_c, 6, 57, 64
8, 27480, Note_on_c, 6, 57, 100
8, 27528, Note_off_c, 6, 57, 64
8, 27600, Note_on_c, 6, 57, 106
8, 27648, Note_off_c, 6, 57, 64
8, 27720, Note_on_c, 6, 57, 100
8, 27768, Note_off_c, 6, 57, 64
8, 27840, Note_on_c, 6, 62, 100
8, 27888, Note_off_c, 6, 62, 64
8, 27960, Note_on_c, 6, 57, 100
8, 28008, Note_off_c, 6, 57, 64
8, 28080, Note_on_c, 6, 54, 100
8, 28128, Note_off_c, 6, 54, 64
8, 28200, Note_on_c, 6, 50, 100
8, 28248, Note_off_c, 6, 50, 64
8, 28320, Note_on_c, 6, 45, 100
8, 28368, Note_off_c, 6, 45, 64
8, 28440, Note_on_c, 6, 45, 100
8, 28488, Note_off_c, 6, 45, 64
8, 28560, Note_on_c, 6, 57, 100
8, 28608, Note_off_c, 6, 57, 64
8, 28680, Note_on_c, 6, 57, 100
8, 28728, Note_off_c, 6, 57, 64
8, 28800, Note_on_c, 6, 50, 100
8, 28848, Note_off_c, 6, 50, 64
8, 28920, Note_on_c, 6, 62, 100
8, 28968, Note_off_c, 6, 62, 64
8, 29040, Note_on_c, 6, 62, 100
8, 29070, Note_off_c, 6, 62, 64
8, 29070, Note_on_c, 6, 64, 100
8, 29100, Note_off_c, 6, 64, 64
8, 29100, Note_on_c, 6, 62, 100
8, 29130, Note_off_c, 6, 62, 64
8, 29130, Note_on_c, 6, 64, 100
8, 29160, Note_off_c, 6, 64, 64
8, 29160, Note_on_c, 6, 62, 100
8, 29190, Note_off_c, 6, 62, 64
8, 29190, Note_on_c, 6, 64, 100
8, 29220, Note_off_c, 6, 64, 64
8, 29220, Note_on_c, 6, 61, 100
8, 29250, Note_off_c, 6, 61, 64
8, 29250, Note_on_c, 6, 62, 100
8, 29280, Note_off_c, 6, 62, 64
8, 29280, Note_on_c, 6, 66, 100
8, 29328, Note_off_c, 6, 66, 64
8, 29400, Note_on_c, 6, 62, 100
8, 29448, Note_off_c, 6, 62, 64
8, 29520, Note_on_c, 6, 57, 100
8, 29568, Note_off_c, 6, 57, 64
8, 29640, Note_on_c, 6, 54, 100
8, 29688, Note_off_c, 6, 54, 64
8, 29760, Note_on_c, 6, 50, 100
8, 30000, Note_off_c, 6, 50, 64
8, 30720, Note_on_c, 6, 50, 36
8, 30768, Note_off_c, 6, 50, 64
8, 30840, Note_on_c, 6, 50, 36
8, 30888, Note_off_c, 6, 50, 64
8, 30960, Note_on_c, 6, 50, 36
8, 31008, Note_off_c, 6, 50, 64
8, 31080, Note_on_c, 6, 50, 36
8, 31128, Note_off_c, 6, 50, 64
8, 31200, Note_on_c, 6, 50, 36
8, 31248, Note_off_c, 6, 50, 64
8, 31320, Note_on_c, 6, 50, 36
8, 31368, Note_off_c, 6, 50, 64
8, 31440, Note_on_c, 6, 50, 36
8, 31488, Note_off_c, 6, 50, 64
8, 31560, Note_on_c, 6, 50, 36
8, 31608, Note_off_c, 6, 50, 64
8, 31680, Note_on_c, 6, 50, 36
8, 31728, Note_off_c, 6, 50, 64
8, 31800, Note_on_c, 6, 50, 36
8, 31848, Note_off_c, 6, 50, 64
8, 31920, Note_on_c, 6, 50, 36
8, 31968, Note_off_c, 6, 50, 64
8, 32040, Note_on_c, 6, 50, 36
8, 32088, Note_off_c, 6, 50, 64
8, 32160, Note_on_c, 6, 50, 36
8, 32208, Note_off_c, 6, 50, 64
8, 32280, Note_on_c, 6, 50, 36
8, 32328, Note_off_c, 6, 50, 64
8, 32400, Note_on_c, 6, 50, 36
8, 32448, Note_off_c, 6, 50, 64
8, 32520, Note_on_c, 6, 50, 36
8, 32568, Note_off_c, 6, 50, 64
8, 32640, Note_on_c, 6, 50, 36
8, 32688, Note_off_c, 6, 50, 64
8, 32760, Note_on_c, 6, 50, 36
8, 32808, Note_off_c, 6, 50, 64
8, 32880, Note_on_c, 6, 50, 36
8, 32928, Note_off_c, 6, 50, 64
8, 33000, Note_on_c, 6, 50, 36
8, 33048, Note_off_c, 6, 50, 64
8, 33120, Note_on_c, 6, 50, 36
8, 33168, Note_off_c, 6, 50, 64
8, 33240, Note_on_c, 6, 50, 36
8, 33288, Note_off_c, 6, 50, 64
8, 33360, Note_on_c, 6, 50, 36
8, 33408, Note_off_c, 6, 50, 64
8, 33480, Note_on_c, 6, 50, 36
8, 33528, Note_off_c, 6, 50, 64
8, 33600, Note_on_c, 6, 50, 36
8, 33648, Note_off_c, 6, 50, 64
8, 33720, Note_on_c, 6, 50, 36
8, 33768, Note_off_c, 6, 50, 64
8, 33840, Note_on_c, 6, 50, 36
8, 33888, Note_off_c, 6, 50, 64
8, 33960, Note_on_c, 6, 50, 36
8, 34008, Note_off_c, 6, 50, 64
8, 34080, Note_on_c, 6, 50, 36
8, 34128, Note_off_c, 6, 50, 64
8, 34200, Note_on_c, 6, 50, 36
8, 34248, Note_off_c, 6, 50, 64
8, 34320, Note_on_c, 6, 50, 36
8, 34368, Note_off_c, 6, 50, 64
8, 34440, Note_on_c, 6, 50, 36
8, 34488, Note_off_c, 6, 50, 64
8, 34560, Note_on_c, 6, 50, 36
8, 34800, Note_off_c, 6, 50, 64
8, 41280, Note_on_c, 6, 50, 36
8, 41520, Note_off_c, 6, 50, 64
8, 41520, Note_on_c, 6, 52, 36
8, 41760, Note_off_c, 6, 52, 64
8, 41760, Note_on_c, 6, 50, 36
8, 42000, Note_off_c, 6, 50, 64
8, 42000, Note_on_c, 6, 49, 36
8, 42240, Note_off_c, 6, 49, 64
8, 42240, Note_on_c, 6, 50, 36
8, 42480, Note_off_c, 6, 50, 64
8, 42480, Note_on_c, 6, 52, 36
8, 42720, Note_off_c, 6, 52, 64
8, 42720, Note_on_c, 6, 50, 36
8, 42960, Note_off_c, 6, 50, 64
8, 42960, Note_on_c, 6, 49, 36
8, 43200, Note_off_c, 6, 49, 64
8, 43200, Note_on_c, 6, 50, 36
8, 43248, Note_off_c, 6, 50, 64
8, 43320, Note_on_c, 6, 50, 36
8, 43368, Note_off_c, 6, 50, 64
8, 43440, Note_on_c, 6, 54, 36
8, 43488, Note_off_c, 6, 54, 64
8, 43560, Note_on_c, 6, 54, 36
8, 43608, Note_off_c, 6, 54, 64
8, 43680, Note_on_c, 6, 55, 36
8, 43728, Note_off_c, 6, 55, 64
8, 43800, Note_on_c, 6, 55, 36
8, 43848, Note_off_c, 6, 55, 64
8, 43920, Note_on_c, 6, 57, 36
8, 43968, Note_off_c, 6, 57, 64
8, 44040, Note_on_c, 6, 57, 36
8, 44088, Note_off_c, 6, 57, 64
8, 44160, Note_on_c, 6, 62, 36
8, 44280, Note_off_c, 6, 62, 64
8, 44400, Note_on_c, 6, 50, 100
8, 44448, Note_off_c, 6, 50, 64
8, 44520, Note_on_c, 6, 54, 100
8, 44568, Note_off_c, 6, 54, 64
8, 44640, Note_on_c, 6, 57, 100
8, 44688, Note_off_c, 6, 57, 64
8, 44760, Note_on_c, 6, 57, 100
8, 44808, Note_off_c, 6, 57, 64
8, 44880, Note_on_c, 6, 57, 100
8, 44928, Note_off_c, 6, 57, 64
8, 45000, Note_on_c, 6, 57, 100
8, 45048, Note_off_c, 6, 57, 64
8, 45120, Note_on_c, 6, 62, 100
8, 45168, Note_off_c, 6, 62, 64
8, 45240, Note_on_c, 6, 57, 100
8, 45288, Note_off_c, 6, 57, 64
8, 45360, Note_on_c, 6, 54, 100
8, 45408, Note_off_c, 6, 54, 64
8, 45480, Note_on_c, 6, 50, 100
8, 45528, Note_off_c, 6, 50, 64
8, 45600, Note_on_c, 6, 45, 100
8, 45648, Note_off_c, 6, 45, 64
8, 45720, Note_on_c, 6, 45, 100
8, 45768, Note_off_c, 6, 45, 64
8, 45840, Note_on_c, 6, 57, 100
8, 45888, Note_off_c, 6, 57, 64
8, 45960, Note_on_c, 6, 57, 100
8, 46008, Note_off_c, 6, 57, 64
8, 46080, Note_on_c, 6, 50, 100
8, 46128, Note_off_c, 6, 50, 64
8, 46200, Note_on_c, 6, 62, 100
8, 46248, Note_off_c, 6, 62, 64
8, 46320, Note_on_c, 6, 62, 100
8, 46350, Note_off_c, 6, 62, 64
8, 46350, Note_on_c, 6, 64, 100
8, 46380, Note_off_c, 6, 64, 64
8, 46380, Note_on_c, 6, 62, 100
8, 46410, Note_off_c, 6, 62, 64
8, 46410, Note_on_c, 6, 64, 100
8, 46440, Note_off_c, 6, 64, 64
8, 46440, Note_on_c, 6, 62, 100
8, 46470, Note_off_c, 6, 62, 64
8, 46470, Note_on_c, 6, 64, 100
8, 46500, Note_off_c, 6, 64, 64
8, 46500, Note_on_c, 6, 61, 100
8, 46530, Note_off_c, 6, 61, 64
8, 46530, Note_on_c, 6, 62, 100
8, 46560, Note_off_c, 6, 62, 64
8, 46560, Note_on_c, 6, 66, 100
8, 46608, Note_off_c, 6, 66, 64
8, 46680, Note_on_c, 6, 62, 100
8, 46728, Note_off_c, 6, 62, 64
8, 46800, Note_on_c, 6, 57, 100
8, 46848, Note_off_c, 6, 57, 64
8, 46920, Note_on_c, 6, 54, 100
8, 46968, Note_off_c, 6, 54, 64
8, 47040, Note_on_c, 6, 50, 100
8, 47280, Note_off_c, 6, 50, 64
8, 49080, Note_on_c, 6, 57, 36
8, 49200, Note_off_c, 6, 57, 64
8, 49200, Note_on_c, 6, 57, 36
8, 49230, Note_off_c, 6, 57, 64
8, 49230, Note_on_c, 6, 59, 36
8, 49260, Note_off_c, 6, 59, 64
8, 49260, Note_on_c, 6, 57, 36
8, 49290, Note_off_c, 6, 57, 64
8, 49290, Note_on_c, 6, 59, 36
8, 49320, Note_off_c, 6, 59, 64
8, 49320, Note_on_c, 6, 57, 36
8, 49350, Note_off_c, 6, 57, 64
8, 49350, Note_on_c, 6, 59, 36
8, 49380, Note_off_c, 6, 59, 64
8, 49380, Note_on_c, 6, 56, 36
8, 49410, Note_off_c, 6, 56, 64
8, 49410, Note_on_c, 6, 57, 36
8, 49440, Note_off_c, 6, 57, 64
8, 49440, Note_on_c, 6, 61, 36
8, 49488, Note_off_c, 6, 61, 64
8, 49560, Note_on_c, 6, 57, 36
8, 49608, Note_off_c, 6, 57, 64
8, 49680, Note_on_c, 6, 52, 36
8, 49728, Note_off_c, 6, 52, 64
8, 49800, Note_on_c, 6, 49, 36
8, 49848, Note_off_c, 6, 49, 64
8, 49920, Note_on_c, 6, 45, 36
8, 50160, Note_off_c, 6, 45, 64
8, 51960, Note_on_c, 6, 62, 36
8, 52020, Note_off_c, 6, 62, 64
8, 52080, Note_on_c, 6, 62, 36
8, 52110, Note_off_c, 6, 62, 64
8, 52110, Note_on_c, 6, 64, 36
8, 52140, Note_off_c, 6, 64, 64
8, 52140, Note_on_c, 6, 62, 36
8, 52170, Note_off_c, 6, 62, 64
8, 52170, Note_on_c, 6, 64, 36
8, 52200, Note_off_c, 6, 64, 64
8, 52200, Note_on_c, 6, 62, 36
8, 52230, Note_off_c, 6, 62, 64
8, 52230, Note_on_c, 6, 64, 36
8, 52260, Note_off_c, 6, 64, 64
8, 52260, Note_on_c, 6, 61, 36
8, 52290, Note_off_c, 6, 61, 64
8, 52290, Note_on_c, 6, 62, 36
8, 52320, Note_off_c, 6, 62, 64
8, 52320, Note_on_c, 6, 66, 36
8, 52368, Note_off_c, 6, 66, 64
8, 52440, Note_on_c, 6, 62, 36
8, 52488, Note_off_c, 6, 62, 64
8, 52560, Note_on_c, 6, 57, 36
8, 52608, Note_off_c, 6, 57, 64
8, 52680, Note_on_c, 6, 54, 36
8, 52728, Note_off_c, 6, 54, 64
8, 52800, Note_on_c, 6, 50, 36
8, 53040, Note_off_c, 6, 50, 64
8, 60600, Note_on_c, 6, 64, 36
8, 60720, Note_off_c, 6, 64, 64
8, 60720, Note_on_c, 6, 63, 36
8, 60840, Note_off_c, 6, 63, 64
8, 60840, Note_on_c, 6, 64, 36
8, 60888, Note_off_c, 6, 64, 64
8, 60960, Note_on_c, 6, 52, 36
8, 61008, Note_off_c, 6, 52, 64
8, 61080, Note_on_c, 6, 56, 36
8, 61128, Note_off_c, 6, 56, 64
8, 61200, Note_on_c, 6, 59, 36
8, 61248, Note_off_c, 6, 59, 64
8, 61320, Note_on_c, 6, 56, 36
8, 61368, Note_off_c, 6, 56, 64
8, 61440, Note_on_c, 6, 52, 36
8, 61488, Note_off_c, 6, 52, 64
8, 61560, Note_on_c, 6, 52, 36
8, 61608, Note_off_c, 6, 52, 64
8, 61680, Note_on_c, 6, 52, 36
8, 61728, Note_off_c, 6, 52, 64
8, 61800, Note_on_c, 6, 52, 36
8, 61848, Note_off_c, 6, 52, 64
8, 61920, Note_on_c, 6, 52, 36
8, 62160, Note_off_c, 6, 52, 64
8, 62400, Note_on_c, 6, 52, 36
8, 62448, Note_off_c, 6, 52, 64
8, 62520, Note_on_c, 6, 52, 36
8, 62568, Note_off_c, 6, 52, 64
8, 62640, Note_on_c, 6, 52, 36
8, 62688, Note_off_c, 6, 52, 64
8, 62760, Note_on_c, 6, 52, 36
8, 62808, Note_off_c, 6, 52, 64
8, 62880, Note_on_c, 6, 52, 36
8, 63120, Note_off_c, 6, 52, 64
8, 63360, Note_on_c, 6, 52, 36
8, 63480, Note_off_c, 6, 52, 64
8, 63600, Note_on_c, 6, 52, 39
8, 63720, Note_off_c, 6, 52, 64
8, 63840, Note_on_c, 6, 52, 45
8, 63960, Note_off_c, 6, 52, 64
8, 64080, Note_on_c, 6, 52, 52
8, 64200, Note_off_c, 6, 52, 64
8, 64320, Note_on_c, 6, 57, 58
8, 64368, Note_off_c, 6, 57, 64
8, 64440, Note_on_c, 6, 57, 58
8, 64488, Note_off_c, 6, 57, 64
8, 64560, Note_on_c, 6, 57, 58
8, 64608, Note_off_c, 6, 57, 64
8, 64680, Note_on_c, 6, 57, 58
8, 64728, Note_off_c, 6, 57, 64
8, 64800, Note_on_c, 6, 57, 58
8, 64848, Note_off_c, 6, 57, 64
8, 64920, Note_on_c, 6, 57, 58
8, 64968, Note_off_c, 6, 57, 64
8, 65040, Note_on_c, 6, 57, 58
8, 65088, Note_off_c, 6, 57, 64
8, 65160, Note_on_c, 6, 57, 58
8, 65208, Note_off_c, 6, 57, 64
8, 65280, Note_on_c, 6, 54, 58
8, 65328, Note_off_c, 6, 54, 64
8, 65400, Note_on_c, 6, 54, 58
8, 65448, Note_off_c, 6, 54, 64
8, 65520, Note_on_c, 6, 54, 58
8, 65568, Note_off_c, 6, 54, 64
8, 65640, Note_on_c, 6, 54, 58
8, 65688, Note_off_c, 6, 54, 64
8, 65760, Note_on_c, 6, 54, 58
8, 65808, Note_off_c, 6, 54, 64
8, 65880, Note_on_c, 6, 54, 58
8, 65928, Note_off_c, 6, 54, 64
8, 66000, Note_on_c, 6, 54, 58
8, 66048, Note_off_c, 6, 54, 64
8, 66120, Note_on_c, 6, 54, 58
8, 66168, Note_off_c, 6, 54, 64
8, 66240, Note_on_c, 6, 49, 58
8, 66288, Note_off_c, 6, 49, 64
8, 66360, Note_on_c, 6, 49, 58
8, 66408, Note_off_c, 6, 49, 64
8, 66480, Note_on_c, 6, 49, 58
8, 66528, Note_off_c, 6, 49, 64
8, 66600, Note_on_c, 6, 49, 58
8, 66648, Note_off_c, 6, 49, 64
8, 66720, Note_on_c, 6, 49, 58
8, 66768, Note_off_c, 6, 49, 64
8, 66840, Note_on_c, 6, 49, 58
8, 66888, Note_off_c, 6, 49, 64
8, 66960, Note_on_c, 6, 49, 58
8, 67008, Note_off_c, 6, 49, 64
8, 67080, Note_on_c, 6, 49, 58
8, 67128, Note_off_c, 6, 49, 64
8, 67200, Note_on_c, 6, 50, 58
8, 67680, Note_off_c, 6, 50, 64
8, 67680, Note_on_c, 6, 52, 58
8, 68160, Note_off_c, 6, 52, 64
8, 68160, Note_on_c, 6, 53, 49
8, 68208, Note_off_c, 6, 53, 64
8, 68280, Note_on_c, 6, 53, 23
8, 68328, Note_off_c, 6, 53, 64
8, 68400, Note_on_c, 6, 53, 23
8, 68448, Note_off_c, 6, 53, 64
8, 68520, Note_on_c, 6, 53, 23
8, 68568, Note_off_c, 6, 53, 64
8, 68640, Note_on_c, 6, 53, 23
8, 68688, Note_off_c, 6, 53, 64
8, 68760, Note_on_c, 6, 53, 23
8, 68808, Note_off_c, 6, 53, 64
8, 68880, Note_on_c, 6, 53, 23
8, 68928, Note_off_c, 6, 53, 64
8, 69000, Note_on_c, 6, 53, 23
8, 69048, Note_off_c, 6, 53, 64
8, 69120, Note_on_c, 6, 52, 23
8, 69360, Note_off_c, 6, 52, 64
8, 69600, Note_on_c, 6, 50, 23
8, 69840, Note_off_c, 6, 50, 64
8, 70080, Note_on_c, 6, 49, 23
8, 70200, Note_off_c, 6, 49, 64
8, 70320, Note_on_c, 6, 45, 26
8, 70440, Note_off_c, 6, 45, 64
8, 70560, Note_on_c, 6, 50, 32
8, 70680, Note_off_c, 6, 50, 64
8, 70800, Note_on_c, 6, 50, 39
8, 70920, Note_off_c, 6, 50, 64
8, 71040, Note_on_c, 6, 52, 45
8, 71088, Note_off_c, 6, 52, 64
8, 71160, Note_on_c, 6, 52, 45
8, 71208, Note_off_c, 6, 52, 64
8, 71280, Note_on_c, 6, 52, 48
8, 71328, Note_off_c, 6, 52, 64
8, 71400, Note_on_c, 6, 52, 51
8, 71448, Note_off_c, 6, 52, 64
8, 71520, Note_on_c, 6, 52, 54
8, 71568, Note_off_c, 6, 52, 64
8, 71640, Note_on_c, 6, 52, 58
8, 71688, Note_off_c, 6, 52, 64
8, 71760, Note_on_c, 6, 52, 61
8, 71808, Note_off_c, 6, 52, 64
8, 71880, Note_on_c, 6, 52, 64
8, 71928, Note_off_c, 6, 52, 64
8, 72000, Note_on_c, 6, 57, 103
8, 72048, Note_off_c, 6, 57, 64
8, 72120, Note_on_c, 6, 57, 103
8, 72168, Note_off_c, 6, 57, 64
8, 72240, Note_on_c, 6, 57, 103
8, 72288, Note_off_c, 6, 57, 64
8, 72360, Note_on_c, 6, 56, 103
8, 72408, Note_off_c, 6, 56, 64
8, 72480, Note_on_c, 6, 54, 103
8, 72528, Note_off_c, 6, 54, 64
8, 72600, Note_on_c, 6, 54, 103
8, 72648, Note_off_c, 6, 54, 64
8, 72720, Note_on_c, 6, 54, 103
8, 72768, Note_off_c, 6, 54, 64
8, 72840, Note_on_c, 6, 54, 103
8, 72888, Note_off_c, 6, 54, 64
8, 72960, Note_on_c, 6, 52, 103
8, 73103, Note_off_c, 6, 52, 64
8, 73200, Note_on_c, 6, 52, 103
8, 73343, Note_off_c, 6, 52, 64
8, 73440, Note_on_c, 6, 52, 103
8, 73800, Note_off_c, 6, 52, 64
8, 74880, Note_on_c, 6, 57, 36
8, 74928, Note_off_c, 6, 57, 64
8, 75000, Note_on_c, 6, 57, 36
8, 75048, Note_off_c, 6, 57, 64
8, 75120, Note_on_c, 6, 57, 36
8, 75168, Note_off_c, 6, 57, 64
8, 75240, Note_on_c, 6, 57, 36
8, 75288, Note_off_c, 6, 57, 64
8, 75360, Note_on_c, 6, 57, 36
8, 75408, Note_off_c, 6, 57, 64
8, 75480, Note_on_c, 6, 57, 36
8, 75528, Note_off_c, 6, 57, 64
8, 75600, Note_on_c, 6, 57, 36
8, 75648, Note_off_c, 6, 57, 64
8, 75720, Note_on_c, 6, 57, 36
8, 75768, Note_off_c, 6, 57, 64
8, 75840, Note_on_c, 6, 57, 36
8, 75888, Note_off_c, 6, 57, 64
8, 75960, Note_on_c, 6, 57, 36
8, 76008, Note_off_c, 6, 57, 64
8, 76080, Note_on_c, 6, 57, 36
8, 76128, Note_off_c, 6, 57, 64
8, 76200, Note_on_c, 6, 57, 36
8, 76248, Note_off_c, 6, 57, 64
8, 76320, Note_on_c, 6, 57, 36
8, 76368, Note_off_c, 6, 57, 64
8, 76440, Note_on_c, 6, 57, 36
8, 76488, Note_off_c, 6, 57, 64
8, 76560, Note_on_c, 6, 57, 36
8, 76608, Note_off_c, 6, 57, 64
8, 76680, Note_on_c, 6, 57, 36
8, 76728, Note_off_c, 6, 57, 64
8, 76800, Note_on_c, 6, 57, 36
8, 76848, Note_off_c, 6, 57, 64
8, 76920, Note_on_c, 6, 57, 36
8, 76968, Note_off_c, 6, 57, 64
8, 77040, Note_on_c, 6, 57, 36
8, 77088, Note_off_c, 6, 57, 64
8, 77160, Note_on_c, 6, 57, 36
8, 77208, Note_off_c, 6, 57, 64
8, 77280, Note_on_c, 6, 57, 36
8, 77328, Note_off_c, 6, 57, 64
8, 77400, Note_on_c, 6, 57, 36
8, 77448, Note_off_c, 6, 57, 64
8, 77520, Note_on_c, 6, 57, 36
8, 77568, Note_off_c, 6, 57, 64
8, 77640, Note_on_c, 6, 57, 36
8, 77688, Note_off_c, 6, 57, 64
8, 77760, Note_on_c, 6, 57, 36
8, 77808, Note_off_c, 6, 57, 64
8, 77880, Note_on_c, 6, 57, 36
8, 77928, Note_off_c, 6, 57, 64
8, 78000, Note_on_c, 6, 57, 36
8, 78048, Note_off_c, 6, 57, 64
8, 78120, Note_on_c, 6, 57, 36
8, 78168, Note_off_c, 6, 57, 64
8, 78240, Note_on_c, 6, 57, 36
8, 78288, Note_off_c, 6, 57, 64
8, 78360, Note_on_c, 6, 57, 36
8, 78408, Note_off_c, 6, 57, 64
8, 78480, Note_on_c, 6, 57, 36
8, 78528, Note_off_c, 6, 57, 64
8, 78600, Note_on_c, 6, 57, 36
8, 78648, Note_off_c, 6, 57, 64
8, 78720, Note_on_c, 6, 57, 36
8, 78960, Note_off_c, 6, 57, 64
8, 85440, Note_on_c, 6, 49, 36
8, 85680, Note_off_c, 6, 49, 64
8, 86040, Note_on_c, 6, 49, 36
8, 86088, Note_off_c, 6, 49, 64
8, 86160, Note_on_c, 6, 49, 36
8, 86208, Note_off_c, 6, 49, 64
8, 86280, Note_on_c, 6, 49, 36
8, 86328, Note_off_c, 6, 49, 64
8, 86400, Note_on_c, 6, 50, 36
8, 86640, Note_off_c, 6, 50, 64
8, 87000, Note_on_c, 6, 50, 36
8, 87048, Note_off_c, 6, 50, 64
8, 87120, Note_on_c, 6, 50, 36
8, 87168, Note_off_c, 6, 50, 64
8, 87240, Note_on_c, 6, 50, 36
8, 87288, Note_off_c, 6, 50, 64
8, 87360, Note_on_c, 6, 52, 36
8, 87408, Note_off_c, 6, 52, 64
8, 87480, Note_on_c, 6, 52, 36
8, 87528, Note_off_c, 6, 52, 64
8, 87600, Note_on_c, 6, 54, 36
8, 87648, Note_off_c, 6, 54, 64
8, 87720, Note_on_c, 6, 54, 36
8, 87768, Note_off_c, 6, 54, 64
8, 87840, Note_on_c, 6, 50, 36
8, 87888, Note_off_c, 6, 50, 64
8, 87960, Note_on_c, 6, 50, 36
8, 88008, Note_off_c, 6, 50, 64
8, 88080, Note_on_c, 6, 52, 36
8, 88128, Note_off_c, 6, 52, 64
8, 88200, Note_on_c, 6, 50, 36
8, 88248, Note_off_c, 6, 50, 64
8, 88320, Note_on_c, 6, 49, 36
8, 88560, Note_off_c, 6, 49, 64
8, 88920, Note_on_c, 6, 49, 36
8, 88968, Note_off_c, 6, 49, 64
8, 89040, Note_on_c, 6, 49, 36
8, 89088, Note_off_c, 6, 49, 64
8, 89160, Note_on_c, 6, 49, 36
8, 89208, Note_off_c, 6, 49, 64
8, 89280, Note_on_c, 6, 50, 36
8, 89520, Note_off_c, 6, 50, 64
8, 89880, Note_on_c, 6, 54, 36
8, 89928, Note_off_c, 6, 54, 64
8, 90000, Note_on_c, 6, 54, 36
8, 90048, Note_off_c, 6, 54, 64
8, 90120, Note_on_c, 6, 54, 36
8, 90168, Note_off_c, 6, 54, 64
8, 90240, Note_on_c, 6, 52, 62
8, 90288, Note_off_c, 6, 52, 64
8, 90360, Note_on_c, 6, 52, 36
8, 90408, Note_off_c, 6, 52, 64
8, 90480, Note_on_c, 6, 52, 36
8, 90528, Note_off_c, 6, 52, 64
8, 90600, Note_on_c, 6, 52, 36
8, 90648, Note_off_c, 6, 52, 64
8, 90720, Note_on_c, 6, 52, 36
8, 90768, Note_off_c, 6, 52, 64
8, 90840, Note_on_c, 6, 52, 36
8, 90888, Note_off_c, 6, 52, 64
8, 90960, Note_on_c, 6, 52, 36
8, 91008, Note_off_c, 6, 52, 64
8, 91080, Note_on_c, 6, 52, 36
8, 91128, Note_off_c, 6, 52, 64
8, 91200, Note_on_c, 6, 52, 36
8, 91320, Note_off_c, 6, 52, 64
8, 91320, Note_on_c, 6, 52, 36
8, 91440, Note_off_c, 6, 52, 64
8, 91440, Note_on_c, 6, 52, 39
8, 91560, Note_off_c, 6, 52, 64
8, 91560, Note_on_c, 6, 52, 42
8, 91680, Note_off_c, 6, 52, 64
8, 91680, Note_on_c, 6, 52, 45
8, 91800, Note_off_c, 6, 52, 64
8, 91800, Note_on_c, 6, 52, 49
8, 91920, Note_off_c, 6, 52, 64
8, 91920, Note_on_c, 6, 52, 52
8, 92040, Note_off_c, 6, 52, 64
8, 92040, Note_on_c, 6, 52, 55
8, 92160, Note_off_c, 6, 52, 64
8, 92160, Note_on_c, 6, 57, 103
8, 92208, Note_off_c, 6, 57, 64
8, 92280, Note_on_c, 6, 61, 103
8, 92328, Note_off_c, 6, 61, 64
8, 92400, Note_on_c, 6, 64, 103
8, 92448, Note_off_c, 6, 64, 64
8, 92520, Note_on_c, 6, 61, 103
8, 92568, Note_off_c, 6, 61, 64
8, 92640, Note_on_c, 6, 57, 103
8, 92688, Note_off_c, 6, 57, 64
8, 92760, Note_on_c, 6, 61, 103
8, 92808, Note_off_c, 6, 61, 64
8, 92880, Note_on_c, 6, 64, 103
8, 92928, Note_off_c, 6, 64, 64
8, 93000, Note_on_c, 6, 61, 103
8, 93048, Note_off_c, 6, 61, 64
8, 93120, Note_on_c, 6, 62, 103
8, 93168, Note_off_c, 6, 62, 64
8, 93240, Note_on_c, 6, 62, 103
8, 93288, Note_off_c, 6, 62, 64
8, 93360, Note_on_c, 6, 62, 103
8, 93408, Note_off_c, 6, 62, 64
8, 93480, Note_on_c, 6, 62, 103
8, 93528, Note_off_c, 6, 62, 64
8, 93600, Note_on_c, 6, 62, 103
8, 93648, Note_off_c, 6, 62, 64
8, 93720, Note_on_c, 6, 62, 103
8, 93768, Note_off_c, 6, 62, 64
8, 93840, Note_on_c, 6, 62, 103
8, 93888, Note_off_c, 6, 62, 64
8, 93960, Note_on_c, 6, 62, 103
8, 94008, Note_off_c, 6, 62, 64
8, 94080, Note_on_c, 6, 64, 103
8, 94128, Note_off_c, 6, 64, 64
8, 94200, Note_on_c, 6, 64, 103
8, 94248, Note_off_c, 6, 64, 64
8, 94320, Note_on_c, 6, 64, 103
8, 94368, Note_off_c, 6, 64, 64
8, 94440, Note_on_c, 6, 64, 103
8, 94488, Note_off_c, 6, 64, 64
8, 94560, Note_on_c, 6, 52, 103
8, 94608, Note_off_c, 6, 52, 64
8, 94680, Note_on_c, 6, 52, 103
8, 94728, Note_off_c, 6, 52, 64
8, 94800, Note_on_c, 6, 52, 103
8, 94848, Note_off_c, 6, 52, 64
8, 94920, Note_on_c, 6, 52, 103
8, 94968, Note_off_c, 6, 52, 64
8, 95040, Note_on_c, 6, 57, 103
8, 95280, Note_off_c, 6, 57, 64
8, 96240, Note_on_c, 6, 57, 103
8, 96288, Note_off_c, 6, 57, 64
8, 96360, Note_on_c, 6, 61, 103
8, 96408, Note_off_c, 6, 61, 64
8, 96480, Note_on_c, 6, 64, 103
8, 96528, Note_off_c, 6, 64, 64
8, 96600, Note_on_c, 6, 64, 103
8, 96648, Note_off_c, 6, 64, 64
8, 96720, Note_on_c, 6, 64, 103
8, 96768, Note_off_c, 6, 64, 64
8, 96840, Note_on_c, 6, 64, 103
8, 96888, Note_off_c, 6, 64, 64
8, 96960, Note_on_c, 6, 57, 103
8, 97080, Note_off_c, 6, 57, 64
8, 98160, Note_on_c, 6, 57, 103
8, 98208, Note_off_c, 6, 57, 64
8, 98280, Note_on_c, 6, 61, 103
8, 98328, Note_off_c, 6, 61, 64
8, 98400, Note_on_c, 6, 64, 103
8, 98448, Note_off_c, 6, 64, 64
8, 98520, Note_on_c, 6, 64, 103
8, 98568, Note_off_c, 6, 64, 64
8, 98640, Note_on_c, 6, 64, 103
8, 98688, Note_off_c, 6, 64, 64
8, 98760, Note_on_c, 6, 64, 103
8, 98808, Note_off_c, 6, 64, 64
8, 98880, Note_on_c, 6, 57, 103
8, 98928, Note_off_c, 6, 57, 64
8, 99000, Note_on_c, 6, 52, 103
8, 99048, Note_off_c, 6, 52, 64
8, 99120, Note_on_c, 6, 49, 103
8, 99168, Note_off_c, 6, 49, 64
8, 99240, Note_on_c, 6, 45, 103
8, 99288, Note_off_c, 6, 45, 64
8, 99360, Note_on_c, 6, 52, 103
8, 99408, Note_off_c, 6, 52, 64
8, 99480, Note_on_c, 6, 52, 103
8, 99528, Note_off_c, 6, 52, 64
8, 99600, Note_on_c, 6, 52, 103
8, 99648, Note_off_c, 6, 52, 64
8, 99720, Note_on_c, 6, 52, 103
8, 99768, Note_off_c, 6, 52, 64
8, 99840, Note_on_c, 6, 45, 103
8, 99888, Note_off_c, 6, 45, 64
8, 99960, Note_on_c, 6, 57, 103
8, 100008, Note_off_c, 6, 57, 64
8, 100080, Note_on_c, 6, 57, 103
8, 100110, Note_off_c, 6, 57, 64
8, 100110, Note_on_c, 6, 59, 103
8, 100140, Note_off_c, 6, 59, 64
8, 100140, Note_on_c, 6, 57, 103
8, 100170, Note_off_c, 6, 57, 64
8, 100170, Note_on_c, 6, 59, 103
8, 100200, Note_off_c, 6, 59, 64
8, 100200, Note_on_c, 6, 57, 103
8, 100230, Note_off_c, 6, 57, 64
8, 100230, Note_on_c, 6, 59, 103
8, 100260, Note_off_c, 6, 59, 64
8, 100260, Note_on_c, 6, 56, 103
8, 100290, Note_off_c, 6, 56, 64
8, 100290, Note_on_c, 6, 57, 103
8, 100320, Note_off_c, 6, 57, 64
8, 100320, Note_on_c, 6, 61, 103
8, 100368, Note_off_c, 6, 61, 64
8, 100440, Note_on_c, 6, 57, 103
8, 100488, Note_off_c, 6, 57, 64
8, 100560, Note_on_c, 6, 52, 103
8, 100608, Note_off_c, 6, 52, 64
8, 100680, Note_on_c, 6, 49, 103
8, 100728, Note_off_c, 6, 49, 64
8, 100800, Note_on_c, 6, 45, 103
8, 101040, Note_off_c, 6, 45, 64
8, 101760, Note_on_c, 6, 45, 36
8, 101808, Note_off_c, 6, 45, 64
8, 101880, Note_on_c, 6, 45, 36
8, 101928, Note_off_c, 6, 45, 64
8, 102000, Note_on_c, 6, 45, 36
8, 102048, Note_off_c, 6, 45, 64
8, 102120, Note_on_c, 6, 45, 36
8, 102168, Note_off_c, 6, 45, 64
8, 102240, Note_on_c, 6, 45, 36
8, 102288, Note_off_c, 6, 45, 64
8, 102360, Note_on_c, 6, 45, 36
8, 102408, Note_off_c, 6, 45, 64
8, 102480, Note_on_c, 6, 45, 36
8, 102528, Note_off_c, 6, 45, 64
8, 102600, Note_on_c, 6, 45, 36
8, 102648, Note_off_c, 6, 45, 64
8, 102720, Note_on_c, 6, 45, 36
8, 102768, Note_off_c, 6, 45, 64
8, 102840, Note_on_c, 6, 45, 36
8, 102888, Note_off_c, 6, 45, 64
8, 102960, Note_on_c, 6, 45, 36
8, 103008, Note_off_c, 6, 45, 64
8, 103080, Note_on_c, 6, 45, 36
8, 103128, Note_off_c, 6, 45, 64
8, 103200, Note_on_c, 6, 45, 36
8, 103248, Note_off_c, 6, 45, 64
8, 103320, Note_on_c, 6, 45, 36
8, 103368, Note_off_c, 6, 45, 64
8, 103440, Note_on_c, 6, 45, 36
8, 103488, Note_off_c, 6, 45, 64
8, 103560, Note_on_c, 6, 45, 36
8, 103608, Note_off_c, 6, 45, 64
8, 103680, Note_on_c, 6, 45, 36
8, 103728, Note_off_c, 6, 45, 64
8, 103800, Note_on_c, 6, 45, 36
8, 103848, Note_off_c, 6, 45, 64
8, 103920, Note_on_c, 6, 45, 36
8, 103968, Note_off_c, 6, 45, 64
8, 104040, Note_on_c, 6, 45, 36
8, 104088, Note_off_c, 6, 45, 64
8, 104160, Note_on_c, 6, 45, 36
8, 104208, Note_off_c, 6, 45, 64
8, 104280, Note_on_c, 6, 45, 36
8, 104328, Note_off_c, 6, 45, 64
8, 104400, Note_on_c, 6, 45, 36
8, 104448, Note_off_c, 6, 45, 64
8, 104520, Note_on_c, 6, 45, 36
8, 104568, Note_off_c, 6, 45, 64
8, 104640, Note_on_c, 6, 45, 36
8, 104688, Note_off_c, 6, 45, 64
8, 104760, Note_on_c, 6, 45, 36
8, 104808, Note_off_c, 6, 45, 64
8, 104880, Note_on_c, 6, 45, 36
8, 104928, Note_off_c, 6, 45, 64
8, 105000, Note_on_c, 6, 45, 36
8, 105048, Note_off_c, 6, 45, 64
8, 105120, Note_on_c, 6, 45, 36
8, 105168, Note_off_c, 6, 45, 64
8, 105240, Note_on_c, 6, 45, 36
8, 105288, Note_off_c, 6, 45, 64
8, 105360, Note_on_c, 6, 45, 36
8, 105408, Note_off_c, 6, 45, 64
8, 105480, Note_on_c, 6, 45, 36
8, 105528, Note_off_c, 6, 45, 64
8, 105600, Note_on_c, 6, 45, 36
8, 105648, Note_off_c, 6, 45, 64
8, 105720, Note_on_c, 6, 45, 36
8, 105768, Note_off_c, 6, 45, 64
8, 105840, Note_on_c, 6, 45, 36
8, 105888, Note_off_c, 6, 45, 64
8, 105960, Note_on_c, 6, 45, 36
8, 106008, Note_off_c, 6, 45, 64
8, 106080, Note_on_c, 6, 45, 36
8, 106128, Note_off_c, 6, 45, 64
8, 106200, Note_on_c, 6, 45, 36
8, 106248, Note_off_c, 6, 45, 64
8, 106320, Note_on_c, 6, 45, 36
8, 106368, Note_off_c, 6, 45, 64
8, 106440, Note_on_c, 6, 45, 36
8, 106488, Note_off_c, 6, 45, 64
8, 106560, Note_on_c, 6, 45, 36
8, 106608, Note_off_c, 6, 45, 64
8, 106680, Note_on_c, 6, 45, 36
8, 106728, Note_off_c, 6, 45, 64
8, 106800, Note_on_c, 6, 45, 36
8, 106848, Note_off_c, 6, 45, 64
8, 106920, Note_on_c, 6, 45, 36
8, 106968, Note_off_c, 6, 45, 64
8, 107040, Note_on_c, 6, 57, 36
8, 107088, Note_off_c, 6, 57, 64
8, 107160, Note_on_c, 6, 57, 36
8, 107208, Note_off_c, 6, 57, 64
8, 107280, Note_on_c, 6, 57, 36
8, 107328, Note_off_c, 6, 57, 64
8, 107400, Note_on_c, 6, 57, 36
8, 107448, Note_off_c, 6, 57, 64
8, 107520, Note_on_c, 6, 56, 36
8, 107568, Note_off_c, 6, 56, 64
8, 107640, Note_on_c, 6, 56, 36
8, 107688, Note_off_c, 6, 56, 64
8, 107760, Note_on_c, 6, 56, 36
8, 107808, Note_off_c, 6, 56, 64
8, 107880, Note_on_c, 6, 56, 36
8, 107928, Note_off_c, 6, 56, 64
8, 108000, Note_on_c, 6, 56, 36
8, 108048, Note_off_c, 6, 56, 64
8, 108120, Note_on_c, 6, 56, 36
8, 108168, Note_off_c, 6, 56, 64
8, 108240, Note_on_c, 6, 56, 36
8, 108288, Note_off_c, 6, 56, 64
8, 108360, Note_on_c, 6, 56, 36
8, 108408, Note_off_c, 6, 56, 64
8, 108480, Note_on_c, 6, 57, 36
8, 108720, Note_off_c, 6, 57, 64
8, 109320, Note_on_c, 6, 56, 23
8, 109440, Note_off_c, 6, 56, 64
8, 109440, Note_on_c, 6, 57, 23
8, 109680, Note_off_c, 6, 57, 64
8, 110280, Note_on_c, 6, 56, 36
8, 110400, Note_off_c, 6, 56, 64
8, 110400, Note_on_c, 6, 57, 36
8, 110448, Note_off_c, 6, 57, 64
8, 110520, Note_on_c, 6, 57, 36
8, 110568, Note_off_c, 6, 57, 64
8, 110640, Note_on_c, 6, 57, 36
8, 110688, Note_off_c, 6, 57, 64
8, 110760, Note_on_c, 6, 57, 36
8, 110808, Note_off_c, 6, 57, 64
8, 110880, Note_on_c, 6, 57, 36
8, 110928, Note_off_c, 6, 57, 64
8, 111000, Note_on_c, 6, 57, 36
8, 111048, Note_off_c, 6, 57, 64
8, 111120, Note_on_c, 6, 57, 36
8, 111168, Note_off_c, 6, 57, 64
8, 111240, Note_on_c, 6, 57, 36
8, 111288, Note_off_c, 6, 57, 64
8, 111360, Note_on_c, 6, 57, 36
8, 111408, Note_off_c, 6, 57, 64
8, 111480, Note_on_c, 6, 57, 36
8, 111528, Note_off_c, 6, 57, 64
8, 111600, Note_on_c, 6, 57, 36
8, 111648, Note_off_c, 6, 57, 64
8, 111720, Note_on_c, 6, 57, 36
8, 111768, Note_off_c, 6, 57, 64
8, 111840, Note_on_c, 6, 57, 36
8, 111888, Note_off_c, 6, 57, 64
8, 111960, Note_on_c, 6, 57, 36
8, 112008, Note_off_c, 6, 57, 64
8, 112080, Note_on_c, 6, 57, 36
8, 112128, Note_off_c, 6, 57, 64
8, 112200, Note_on_c, 6, 57, 36
8, 112248, Note_off_c, 6, 57, 64
8, 112320, Note_on_c, 6, 57, 36
8, 112560, Note_off_c, 6, 57, 64
8, 114240, Note_on_c, 6, 50, 100
8, 114288, Note_off_c, 6, 50, 64
8, 114360, Note_on_c, 6, 50, 100
8, 114408, Note_off_c, 6, 50, 64
8, 114480, Note_on_c, 6, 50, 100
8, 114528, Note_off_c, 6, 50, 64
8, 114600, Note_on_c, 6, 50, 100
8, 114648, Note_off_c, 6, 50, 64
8, 114720, Note_on_c, 6, 50, 100
8, 114768, Note_off_c, 6, 50, 64
8, 114840, Note_on_c, 6, 50, 100
8, 114888, Note_off_c, 6, 50, 64
8, 114960, Note_on_c, 6, 50, 100
8, 115008, Note_off_c, 6, 50, 64
8, 115080, Note_on_c, 6, 50, 100
8, 115128, Note_off_c, 6, 50, 64
8, 115200, Note_on_c, 6, 50, 100
8, 115248, Note_off_c, 6, 50, 64
8, 115320, Note_on_c, 6, 50, 100
8, 115368, Note_off_c, 6, 50, 64
8, 115440, Note_on_c, 6, 50, 100
8, 115488, Note_off_c, 6, 50, 64
8, 115560, Note_on_c, 6, 50, 100
8, 115608, Note_off_c, 6, 50, 64
8, 115680, Note_on_c, 6, 50, 100
8, 115728, Note_off_c, 6, 50, 64
8, 115800, Note_on_c, 6, 50, 100
8, 115848, Note_off_c, 6, 50, 64
8, 115920, Note_on_c, 6, 50, 100
8, 115968, Note_off_c, 6, 50, 64
8, 116040, Note_on_c, 6, 50, 100
8, 116088, Note_off_c, 6, 50, 64
8, 116160, Note_on_c, 6, 50, 36
8, 116208, Note_off_c, 6, 50, 64
8, 116280, Note_on_c, 6, 50, 36
8, 116328, Note_off_c, 6, 50, 64
8, 116400, Note_on_c, 6, 50, 36
8, 116448, Note_off_c, 6, 50, 64
8, 116520, Note_on_c, 6, 50, 36
8, 116568, Note_off_c, 6, 50, 64
8, 116640, Note_on_c, 6, 50, 36
8, 116688, Note_off_c, 6, 50, 64
8, 116760, Note_on_c, 6, 50, 36
8, 116808, Note_off_c, 6, 50, 64
8, 116880, Note_on_c, 6, 50, 36
8, 116928, Note_off_c, 6, 50, 64
8, 117000, Note_on_c, 6, 50, 36
8, 117048, Note_off_c, 6, 50, 64
8, 117120, Note_on_c, 6, 50, 36
8, 117168, Note_off_c, 6, 50, 64
8, 117240, Note_on_c, 6, 50, 36
8, 117288, Note_off_c, 6, 50, 64
8, 117360, Note_on_c, 6, 50, 36
8, 117408, Note_off_c, 6, 50, 64
8, 117480, Note_on_c, 6, 50, 36
8, 117528, Note_off_c, 6, 50, 64
8, 117600, Note_on_c, 6, 50, 36
8, 117648, Note_off_c, 6, 50, 64
8, 117720, Note_on_c, 6, 50, 36
8, 117768, Note_off_c, 6, 50, 64
8, 117840, Note_on_c, 6, 50, 36
8, 117888, Note_off_c, 6, 50, 64
8, 117960, Note_on_c, 6, 50, 36
8, 118008, Note_off_c, 6, 50, 64
8, 118080, Note_on_c, 6, 50, 36
8, 118128, Note_off_c, 6, 50, 64
8, 118200, Note_on_c, 6, 51, 36
8, 118248, Note_off_c, 6, 51, 64
8, 118320, Note_on_c, 6, 51, 36
8, 118368, Note_off_c, 6, 51, 64
8, 118440, Note_on_c, 6, 51, 36
8, 118488, Note_off_c, 6, 51, 64
8, 118560, Note_on_c, 6, 51, 36
8, 118800, Note_off_c, 6, 51, 64
8, 119040, Note_on_c, 6, 52, 36
8, 119280, Note_off_c, 6, 52, 64
8, 119520, Note_on_c, 6, 54, 36
8, 119760, Note_off_c, 6, 54, 64
8, 120000, Note_on_c, 6, 55, 36
8, 120240, Note_off_c, 6, 55, 64
8, 120480, Note_on_c, 6, 57, 36
8, 120720, Note_off_c, 6, 57, 64
8, 120960, Note_on_c, 6, 59, 36
8, 121200, Note_off_c, 6, 59, 64
8, 121440, Note_on_c, 6, 47, 36
8, 121680, Note_off_c, 6, 47, 64
8, 121920, Note_on_c, 6, 52, 36
8, 122400, Note_off_c, 6, 52, 64
8, 122400, Note_on_c, 6, 49, 36
8, 122640, Note_off_c, 6, 49, 64
8, 122880, Note_on_c, 6, 50, 36
8, 123120, Note_off_c, 6, 50, 64
8, 123360, Note_on_c, 6, 57, 36
8, 123600, Note_off_c, 6, 57, 64
8, 123840, Note_on_c, 6, 59, 36
8, 124080, Note_off_c, 6, 59, 64
8, 124320, Note_on_c, 6, 55, 36
8, 124560, Note_off_c, 6, 55, 64
8, 124800, Note_on_c, 6, 57, 36
8, 125280, Note_off_c, 6, 57, 64
8, 125280, Note_on_c, 6, 45, 36
8, 125760, Note_off_c, 6, 45, 64
8, 125760, Note_on_c, 6, 50, 36
8, 126000, Note_off_c, 6, 50, 64
8, 129720, Note_on_c, 6, 57, 36
8, 129840, Note_off_c, 6, 57, 64
8, 129840, Note_on_c, 6, 56, 36
8, 129960, Note_off_c, 6, 56, 64
8, 129960, Note_on_c, 6, 57, 36
8, 130080, Note_off_c, 6, 57, 64
8, 130080, Note_on_c, 6, 45, 36
8, 130128, Note_off_c, 6, 45, 64
8, 130200, Note_on_c, 6, 49, 36
8, 130248, Note_off_c, 6, 49, 64
8, 130320, Note_on_c, 6, 52, 36
8, 130368, Note_off_c, 6, 52, 64
8, 130440, Note_on_c, 6, 49, 36
8, 130488, Note_off_c, 6, 49, 64
8, 130560, Note_on_c, 6, 45, 36
8, 130800, Note_off_c, 6, 45, 64
8, 131640, Note_on_c, 6, 57, 36
8, 131688, Note_off_c, 6, 57, 64
8, 131760, Note_on_c, 6, 57, 36
8, 131808, Note_off_c, 6, 57, 64
8, 131880, Note_on_c, 6, 57, 36
8, 131928, Note_off_c, 6, 57, 64
8, 132000, Note_on_c, 6, 57, 36
8, 132048, Note_off_c, 6, 57, 64
8, 132120, Note_on_c, 6, 57, 36
8, 132168, Note_off_c, 6, 57, 64
8, 132240, Note_on_c, 6, 57, 36
8, 132288, Note_off_c, 6, 57, 64
8, 132360, Note_on_c, 6, 57, 36
8, 132408, Note_off_c, 6, 57, 64
8, 132480, Note_on_c, 6, 45, 36
8, 132720, Note_off_c, 6, 45, 64
8, 133560, Note_on_c, 6, 57, 36
8, 133608, Note_off_c, 6, 57, 64
8, 133680, Note_on_c, 6, 57, 36
8, 133728, Note_off_c, 6, 57, 64
8, 133800, Note_on_c, 6, 57, 36
8, 133848, Note_off_c, 6, 57, 64
8, 133920, Note_on_c, 6, 57, 36
8, 133968, Note_off_c, 6, 57, 64
8, 134040, Note_on_c, 6, 57, 36
8, 134088, Note_off_c, 6, 57, 64
8, 134160, Note_on_c, 6, 57, 36
8, 134208, Note_off_c, 6, 57, 64
8, 134280, Note_on_c, 6, 57, 36
8, 134328, Note_off_c, 6, 57, 64
8, 134400, Note_on_c, 6, 45, 36
8, 134640, Note_off_c, 6, 45, 64
8, 135480, Note_on_c, 6, 57, 36
8, 135528, Note_off_c, 6, 57, 64
8, 135600, Note_on_c, 6, 57, 36
8, 135648, Note_off_c, 6, 57, 64
8, 135720, Note_on_c, 6, 57, 36
8, 135768, Note_off_c, 6, 57, 64
8, 135840, Note_on_c, 6, 57, 36
8, 135888, Note_off_c, 6, 57, 64
8, 135960, Note_on_c, 6, 57, 36
8, 136008, Note_off_c, 6, 57, 64
8, 136080, Note_on_c, 6, 57, 36
8, 136128, Note_off_c, 6, 57, 64
8, 136200, Note_on_c, 6, 57, 36
8, 136248, Note_off_c, 6, 57, 64
8, 136320, Note_on_c, 6, 62, 36
8, 136368, Note_off_c, 6, 62, 64
8, 136440, Note_on_c, 6, 62, 36
8, 136488, Note_off_c, 6, 62, 64
8, 136560, Note_on_c, 6, 62, 36
8, 136608, Note_off_c, 6, 62, 64
8, 136680, Note_on_c, 6, 62, 36
8, 136728, Note_off_c, 6, 62, 64
8, 136800, Note_on_c, 6, 62, 36
8, 136848, Note_off_c, 6, 62, 64
8, 136920, Note_on_c, 6, 62, 36
8, 136968, Note_off_c, 6, 62, 64
8, 137040, Note_on_c, 6, 62, 36
8, 137088, Note_off_c, 6, 62, 64
8, 137160, Note_on_c, 6, 62, 36
8, 137208, Note_off_c, 6, 62, 64
8, 137280, Note_on_c, 6, 59, 36
8, 137328, Note_off_c, 6, 59, 64
8, 137400, Note_on_c, 6, 59, 36
8, 137448, Note_off_c, 6, 59, 64
8, 137520, Note_on_c, 6, 59, 36
8, 137568, Note_off_c, 6, 59, 64
8, 137640, Note_on_c, 6, 59, 36
8, 137688, Note_off_c, 6, 59, 64
8, 137760, Note_on_c, 6, 59, 36
8, 137808, Note_off_c, 6, 59, 64
8, 137880, Note_on_c, 6, 59, 36
8, 137928, Note_off_c, 6, 59, 64
8, 138000, Note_on_c, 6, 59, 36
8, 138048, Note_off_c, 6, 59, 64
8, 138120, Note_on_c, 6, 59, 36
8, 138168, Note_off_c, 6, 59, 64
8, 138240, Note_on_c, 6, 54, 36
8, 138288, Note_off_c, 6, 54, 64
8, 138360, Note_on_c, 6, 54, 36
8, 138408, Note_off_c, 6, 54, 64
8, 138480, Note_on_c, 6, 54, 36
8, 138528, Note_off_c, 6, 54, 64
8, 138600, Note_on_c, 6, 54, 36
8, 138648, Note_off_c, 6, 54, 64
8, 138720, Note_on_c, 6, 54, 36
8, 138768, Note_off_c, 6, 54, 64
8, 138840, Note_on_c, 6, 54, 36
8, 138888, Note_off_c, 6, 54, 64
8, 138960, Note_on_c, 6, 54, 36
8, 139008, Note_off_c, 6, 54, 64
8, 139080, Note_on_c, 6, 54, 36
8, 139128, Note_off_c, 6, 54, 64
8, 139200, Note_on_c, 6, 55, 36
8, 139680, Note_off_c, 6, 55, 64
8, 139680, Note_on_c, 6, 57, 36
8, 140160, Note_off_c, 6, 57, 64
8, 140160, Note_on_c, 6, 58, 62
8, 140208, Note_off_c, 6, 58, 64
8, 140280, Note_on_c, 6, 58, 36
8, 140328, Note_off_c, 6, 58, 64
8, 140400, Note_on_c, 6, 58, 36
8, 140448, Note_off_c, 6, 58, 64
8, 140520, Note_on_c, 6, 58, 36
8, 140568, Note_off_c, 6, 58, 64
8, 140640, Note_on_c, 6, 58, 36
8, 140688, Note_off_c, 6, 58, 64
8, 140760, Note_on_c, 6, 58, 36
8, 140808, Note_off_c, 6, 58, 64
8, 140880, Note_on_c, 6, 58, 36
8, 140928, Note_off_c, 6, 58, 64
8, 141000, Note_on_c, 6, 58, 36
8, 141048, Note_off_c, 6, 58, 64
8, 141120, Note_on_c, 6, 57, 36
8, 141360, Note_off_c, 6, 57, 64
8, 141600, Note_on_c, 6, 55, 36
8, 141840, Note_off_c, 6, 55, 64
8, 142080, Note_on_c, 6, 54, 36
8, 142128, Note_off_c, 6, 54, 64
8, 142320, Note_on_c, 6, 54, 36
8, 142368, Note_off_c, 6, 54, 64
8, 142560, Note_on_c, 6, 55, 39
8, 142608, Note_off_c, 6, 55, 64
8, 142800, Note_on_c, 6, 55, 45
8, 142848, Note_off_c, 6, 55, 64
8, 143040, Note_on_c, 6, 57, 52
8, 143088, Note_off_c, 6, 57, 64
8, 143160, Note_on_c, 6, 57, 55
8, 143208, Note_off_c, 6, 57, 64
8, 143280, Note_on_c, 6, 57, 61
8, 143328, Note_off_c, 6, 57, 64
8, 143400, Note_on_c, 6, 57, 64
8, 143448, Note_off_c, 6, 57, 64
8, 143520, Note_on_c, 6, 57, 67
8, 143568, Note_off_c, 6, 57, 64
8, 143640, Note_on_c, 6, 57, 71
8, 143688, Note_off_c, 6, 57, 64
8, 143760, Note_on_c, 6, 57, 74
8, 143808, Note_off_c, 6, 57, 64
8, 143880, Note_on_c, 6, 57, 77
8, 143928, Note_off_c, 6, 57, 64
8, 144000, Note_on_c, 6, 59, 103
8, 144048, Note_off_c, 6, 59, 64
8, 144120, Note_on_c, 6, 59, 103
8, 144168, Note_off_c, 6, 59, 64
8, 144240, Note_on_c, 6, 59, 103
8, 144288, Note_off_c, 6, 59, 64
8, 144360, Note_on_c, 6, 59, 103
8, 144408, Note_off_c, 6, 59, 64
8, 144480, Note_on_c, 6, 59, 103
8, 144528, Note_off_c, 6, 59, 64
8, 144600, Note_on_c, 6, 59, 103
8, 144648, Note_off_c, 6, 59, 64
8, 144720, Note_on_c, 6, 59, 103
8, 144768, Note_off_c, 6, 59, 64
8, 144840, Note_on_c, 6, 59, 103
8, 144888, Note_off_c, 6, 59, 64
8, 144960, Note_on_c, 6, 57, 103
8, 145140, Note_off_c, 6, 57, 64
8, 145200, Note_on_c, 6, 57, 103
8, 145380, Note_off_c, 6, 57, 64
8, 145440, Note_on_c, 6, 45, 103
8, 145620, Note_off_c, 6, 45, 64
8, 146880, Note_on_c, 6, 50, 36
8, 146928, Note_off_c, 6, 50, 64
8, 147000, Note_on_c, 6, 50, 36
8, 147048, Note_off_c, 6, 50, 64
8, 147120, Note_on_c, 6, 50, 36
8, 147168, Note_off_c, 6, 50, 64
8, 147240, Note_on_c, 6, 50, 36
8, 147288, Note_off_c, 6, 50, 64
8, 147360, Note_on_c, 6, 50, 36
8, 147408, Note_off_c, 6, 50, 64
8, 147480, Note_on_c, 6, 50, 36
8, 147528, Note_off_c, 6, 50, 64
8, 147600, Note_on_c, 6, 50, 36
8, 147648, Note_off_c, 6, 50, 64
8, 147720, Note_on_c, 6, 50, 36
8, 147768, Note_off_c, 6, 50, 64
8, 147840, Note_on_c, 6, 50, 36
8, 147888, Note_off_c, 6, 50, 64
8, 147960, Note_on_c, 6, 50, 36
8, 148008, Note_off_c, 6, 50, 64
8, 148080, Note_on_c, 6, 50, 36
8, 148128, Note_off_c, 6, 50, 64
8, 148200, Note_on_c, 6, 50, 36
8, 148248, Note_off_c, 6, 50, 64
8, 148320, Note_on_c, 6, 50, 36
8, 148368, Note_off_c, 6, 50, 64
8, 148440, Note_on_c, 6, 50, 36
8, 148488, Note_off_c, 6, 50, 64
8, 148560, Note_on_c, 6, 50, 36
8, 148608, Note_off_c, 6, 50, 64
8, 148680, Note_on_c, 6, 50, 36
8, 148728, Note_off_c, 6, 50, 64
8, 148800, Note_on_c, 6, 50, 36
8, 148848, Note_off_c, 6, 50, 64
8, 148920, Note_on_c, 6, 50, 36
8, 148968, Note_off_c, 6, 50, 64
8, 149040, Note_on_c, 6, 50, 36
8, 149088, Note_off_c, 6, 50, 64
8, 149160, Note_on_c, 6, 50, 36
8, 149208, Note_off_c, 6, 50, 64
8, 149280, Note_on_c, 6, 50, 36
8, 149328, Note_off_c, 6, 50, 64
8, 149400, Note_on_c, 6, 50, 36
8, 149448, Note_off_c, 6, 50, 64
8, 149520, Note_on_c, 6, 50, 36
8, 149568, Note_off_c, 6, 50, 64
8, 149640, Note_on_c, 6, 50, 36
8, 149688, Note_off_c, 6, 50, 64
8, 149760, Note_on_c, 6, 50, 36
8, 149808, Note_off_c, 6, 50, 64
8, 149880, Note_on_c, 6, 50, 36
8, 149928, Note_off_c, 6, 50, 64
8, 150000, Note_on_c, 6, 50, 36
8, 150048, Note_off_c, 6, 50, 64
8, 150120, Note_on_c, 6, 50, 36
8, 150168, Note_off_c, 6, 50, 64
8, 150240, Note_on_c, 6, 50, 36
8, 150288, Note_off_c, 6, 50, 64
8, 150360, Note_on_c, 6, 50, 36
8, 150408, Note_off_c, 6, 50, 64
8, 150480, Note_on_c, 6, 50, 36
8, 150528, Note_off_c, 6, 50, 64
8, 150600, Note_on_c, 6, 50, 36
8, 150648, Note_off_c, 6, 50, 64
8, 150720, Note_on_c, 6, 50, 36
8, 150960, Note_off_c, 6, 50, 64
8, 154560, Note_on_c, 6, 50, 36
8, 154608, Note_off_c, 6, 50, 64
8, 154680, Note_on_c, 6, 50, 36
8, 154728, Note_off_c, 6, 50, 64
8, 154800, Note_on_c, 6, 50, 36
8, 154848, Note_off_c, 6, 50, 64
8, 154920, Note_on_c, 6, 50, 36
8, 154968, Note_off_c, 6, 50, 64
8, 155040, Note_on_c, 6, 50, 36
8, 155088, Note_off_c, 6, 50, 64
8, 155160, Note_on_c, 6, 50, 36
8, 155208, Note_off_c, 6, 50, 64
8, 155280, Note_on_c, 6, 50, 36
8, 155328, Note_off_c, 6, 50, 64
8, 155400, Note_on_c, 6, 50, 36
8, 155448, Note_off_c, 6, 50, 64
8, 155520, Note_on_c, 6, 50, 36
8, 155568, Note_off_c, 6, 50, 64
8, 155640, Note_on_c, 6, 50, 36
8, 155688, Note_off_c, 6, 50, 64
8, 155760, Note_on_c, 6, 50, 36
8, 155808, Note_off_c, 6, 50, 64
8, 155880, Note_on_c, 6, 50, 36
8, 155928, Note_off_c, 6, 50, 64
8, 156000, Note_on_c, 6, 50, 36
8, 156048, Note_off_c, 6, 50, 64
8, 156120, Note_on_c, 6, 50, 36
8, 156168, Note_off_c, 6, 50, 64
8, 156240, Note_on_c, 6, 50, 36
8, 156288, Note_off_c, 6, 50, 64
8, 156360, Note_on_c, 6, 50, 36
8, 156408, Note_off_c, 6, 50, 64
8, 156480, Note_on_c, 6, 50, 36
8, 156720, Note_off_c, 6, 50, 64
8, 159360, Note_on_c, 6, 54, 36
8, 159600, Note_off_c, 6, 54, 64
8, 159960, Note_on_c, 6, 54, 36
8, 160008, Note_off_c, 6, 54, 64
8, 160080, Note_on_c, 6, 54, 36
8, 160128, Note_off_c, 6, 54, 64
8, 160200, Note_on_c, 6, 54, 36
8, 160248, Note_off_c, 6, 54, 64
8, 160320, Note_on_c, 6, 55, 36
8, 160560, Note_off_c, 6, 55, 64
8, 160920, Note_on_c, 6, 55, 36
8, 160968, Note_off_c, 6, 55, 64
8, 161040, Note_on_c, 6, 55, 36
8, 161088, Note_off_c, 6, 55, 64
8, 161160, Note_on_c, 6, 55, 36
8, 161208, Note_off_c, 6, 55, 64
8, 161280, Note_on_c, 6, 57, 36
8, 161328, Note_off_c, 6, 57, 64
8, 161400, Note_on_c, 6, 57, 36
8, 161448, Note_off_c, 6, 57, 64
8, 161520, Note_on_c, 6, 57, 36
8, 161568, Note_off_c, 6, 57, 64
8, 161640, Note_on_c, 6, 57, 36
8, 161688, Note_off_c, 6, 57, 64
8, 161760, Note_on_c, 6, 57, 36
8, 161808, Note_off_c, 6, 57, 64
8, 161880, Note_on_c, 6, 57, 36
8, 161928, Note_off_c, 6, 57, 64
8, 162000, Note_on_c, 6, 55, 36
8, 162048, Note_off_c, 6, 55, 64
8, 162120, Note_on_c, 6, 55, 36
8, 162168, Note_off_c, 6, 55, 64
8, 162240, Note_on_c, 6, 54, 36
8, 162480, Note_off_c, 6, 54, 64
8, 162840, Note_on_c, 6, 54, 36
8, 162888, Note_off_c, 6, 54, 64
8, 162960, Note_on_c, 6, 54, 36
8, 163008, Note_off_c, 6, 54, 64
8, 163080, Note_on_c, 6, 54, 36
8, 163128, Note_off_c, 6, 54, 64
8, 163200, Note_on_c, 6, 55, 36
8, 163440, Note_off_c, 6, 55, 64
8, 163800, Note_on_c, 6, 55, 36
8, 163848, Note_off_c, 6, 55, 64
8, 163920, Note_on_c, 6, 55, 36
8, 163968, Note_off_c, 6, 55, 64
8, 164040, Note_on_c, 6, 56, 36
8, 164088, Note_off_c, 6, 56, 64
8, 164160, Note_on_c, 6, 57, 62
8, 164208, Note_off_c, 6, 57, 64
8, 164280, Note_on_c, 6, 57, 36
8, 164328, Note_off_c, 6, 57, 64
8, 164400, Note_on_c, 6, 57, 36
8, 164448, Note_off_c, 6, 57, 64
8, 164520, Note_on_c, 6, 57, 36
8, 164568, Note_off_c, 6, 57, 64
8, 164640, Note_on_c, 6, 57, 36
8, 164688, Note_off_c, 6, 57, 64
8, 164760, Note_on_c, 6, 57, 36
8, 164808, Note_off_c, 6, 57, 64
8, 164880, Note_on_c, 6, 57, 36
8, 164928, Note_off_c, 6, 57, 64
8, 165000, Note_on_c, 6, 57, 36
8, 165048, Note_off_c, 6, 57, 64
8, 165120, Note_on_c, 6, 57, 36
8, 165168, Note_off_c, 6, 57, 64
8, 165240, Note_on_c, 6, 57, 36
8, 165288, Note_off_c, 6, 57, 64
8, 165360, Note_on_c, 6, 57, 39
8, 165408, Note_off_c, 6, 57, 64
8, 165480, Note_on_c, 6, 57, 42
8, 165528, Note_off_c, 6, 57, 64
8, 165600, Note_on_c, 6, 57, 45
8, 165648, Note_off_c, 6, 57, 64
8, 165720, Note_on_c, 6, 57, 49
8, 165768, Note_off_c, 6, 57, 64
8, 165840, Note_on_c, 6, 57, 52
8, 165888, Note_off_c, 6, 57, 64
8, 165960, Note_on_c, 6, 57, 55
8, 166008, Note_off_c, 6, 57, 64
8, 166080, Note_on_c, 6, 50, 103
8, 166128, Note_off_c, 6, 50, 64
8, 166200, Note_on_c, 6, 50, 103
8, 166248, Note_off_c, 6, 50, 64
8, 166320, Note_on_c, 6, 50, 103
8, 166368, Note_off_c, 6, 50, 64
8, 166440, Note_on_c, 6, 62, 103
8, 166488, Note_off_c, 6, 62, 64
8, 166560, Note_on_c, 6, 61, 103
8, 166680, Note_off_c, 6, 61, 64
8, 166680, Note_on_c, 6, 62, 103
8, 166728, Note_off_c, 6, 62, 64
8, 166800, Note_on_c, 6, 62, 103
8, 166848, Note_off_c, 6, 62, 64
8, 166920, Note_on_c, 6, 62, 103
8, 166968, Note_off_c, 6, 62, 64
8, 167040, Note_on_c, 6, 59, 103
8, 167088, Note_off_c, 6, 59, 64
8, 167160, Note_on_c, 6, 62, 103
8, 167208, Note_off_c, 6, 62, 64
8, 167280, Note_on_c, 6, 57, 103
8, 167328, Note_off_c, 6, 57, 64
8, 167400, Note_on_c, 6, 62, 103
8, 167448, Note_off_c, 6, 62, 64
8, 167520, Note_on_c, 6, 61, 103
8, 167640, Note_off_c, 6, 61, 64
8, 167640, Note_on_c, 6, 62, 103
8, 167688, Note_off_c, 6, 62, 64
8, 167760, Note_on_c, 6, 62, 103
8, 167808, Note_off_c, 6, 62, 64
8, 167880, Note_on_c, 6, 62, 103
8, 167928, Note_off_c, 6, 62, 64
8, 168000, Note_on_c, 6, 54, 103
8, 168048, Note_off_c, 6, 54, 64
8, 168120, Note_on_c, 6, 62, 103
8, 168168, Note_off_c, 6, 62, 64
8, 168240, Note_on_c, 6, 55, 103
8, 168288, Note_off_c, 6, 55, 64
8, 168360, Note_on_c, 6, 62, 103
8, 168408, Note_off_c, 6, 62, 64
8, 168480, Note_on_c, 6, 61, 103
8, 168600, Note_off_c, 6, 61, 64
8, 168600, Note_on_c, 6, 62, 103
8, 168648, Note_off_c, 6, 62, 64
8, 168720, Note_on_c, 6, 62, 103
8, 168768, Note_off_c, 6, 62, 64
8, 168840, Note_on_c, 6, 62, 103
8, 168888, Note_off_c, 6, 62, 64
8, 168960, Note_on_c, 6, 56, 103
8, 169080, Note_off_c, 6, 56, 64
8, 169080, Note_on_c, 6, 62, 103
8, 169200, Note_off_c, 6, 62, 64
8, 169200, Note_on_c, 6, 62, 103
8, 169230, Note_off_c, 6, 62, 64
8, 169230, Note_on_c, 6, 64, 103
8, 169260, Note_off_c, 6, 64, 64
8, 169260, Note_on_c, 6, 62, 103
8, 169290, Note_off_c, 6, 62, 64
8, 169290, Note_on_c, 6, 64, 103
8, 169320, Note_off_c, 6, 64, 64
8, 169320, Note_on_c, 6, 62, 103
8, 169350, Note_off_c, 6, 62, 64
8, 169350, Note_on_c, 6, 64, 103
8, 169380, Note_off_c, 6, 64, 64
8, 169380, Note_on_c, 6, 61, 103
8, 169410, Note_off_c, 6, 61, 64
8, 169410, Note_on_c, 6, 62, 103
8, 169440, Note_off_c, 6, 62, 64
8, 169440, Note_on_c, 6, 66, 103
8, 169488, Note_off_c, 6, 66, 64
8, 169560, Note_on_c, 6, 62, 103
8, 169608, Note_off_c, 6, 62, 64
8, 169680, Note_on_c, 6, 59, 103
8, 169728, Note_off_c, 6, 59, 64
8, 169800, Note_on_c, 6, 56, 103
8, 169848, Note_off_c, 6, 56, 64
8, 169920, Note_on_c, 6, 57, 103
8, 170400, Note_off_c, 6, 57, 64
8, 170880, Note_on_c, 6, 50, 103
8, 170928, Note_off_c, 6, 50, 64
8, 171000, Note_on_c, 6, 54, 103
8, 171048, Note_off_c, 6, 54, 64
8, 171120, Note_on_c, 6, 57, 103
8, 171168, Note_off_c, 6, 57, 64
8, 171240, Note_on_c, 6, 54, 103
8, 171288, Note_off_c, 6, 54, 64
8, 171360, Note_on_c, 6, 50, 103
8, 171408, Note_off_c, 6, 50, 64
8, 171480, Note_on_c, 6, 54, 103
8, 171528, Note_off_c, 6, 54, 64
8, 171600, Note_on_c, 6, 57, 103
8, 171648, Note_off_c, 6, 57, 64
8, 171720, Note_on_c, 6, 54, 103
8, 171768, Note_off_c, 6, 54, 64
8, 171840, Note_on_c, 6, 55, 103
8, 171888, Note_off_c, 6, 55, 64
8, 171960, Note_on_c, 6, 55, 103
8, 172008, Note_off_c, 6, 55, 64
8, 172080, Note_on_c, 6, 55, 103
8, 172128, Note_off_c, 6, 55, 64
8, 172200, Note_on_c, 6, 55, 103
8, 172248, Note_off_c, 6, 55, 64
8, 172320, Note_on_c, 6, 55, 103
8, 172368, Note_off_c, 6, 55, 64
8, 172440, Note_on_c, 6, 55, 103
8, 172488, Note_off_c, 6, 55, 64
8, 172560, Note_on_c, 6, 55, 103
8, 172608, Note_off_c, 6, 55, 64
8, 172680, Note_on_c, 6, 55, 103
8, 172728, Note_off_c, 6, 55, 64
8, 172800, Note_on_c, 6, 57, 103
8, 172848, Note_off_c, 6, 57, 64
8, 172920, Note_on_c, 6, 57, 103
8, 172968, Note_off_c, 6, 57, 64
8, 173040, Note_on_c, 6, 57, 103
8, 173088, Note_off_c, 6, 57, 64
8, 173160, Note_on_c, 6, 57, 103
8, 173208, Note_off_c, 6, 57, 64
8, 173280, Note_on_c, 6, 45, 103
8, 173328, Note_off_c, 6, 45, 64
8, 173400, Note_on_c, 6, 45, 103
8, 173448, Note_off_c, 6, 45, 64
8, 173520, Note_on_c, 6, 45, 103
8, 173568, Note_off_c, 6, 45, 64
8, 173640, Note_on_c, 6, 45, 103
8, 173688, Note_off_c, 6, 45, 64
8, 173760, Note_on_c, 6, 50, 103
8, 174000, Note_off_c, 6, 50, 64
8, 174960, Note_on_c, 6, 50, 103
8, 175008, Note_off_c, 6, 50, 64
8, 175080, Note_on_c, 6, 54, 103
8, 175200, Note_off_c, 6, 54, 64
8, 175200, Note_on_c, 6, 57, 103
8, 175248, Note_off_c, 6, 57, 64
8, 175320, Note_on_c, 6, 57, 103
8, 175368, Note_off_c, 6, 57, 64
8, 175440, Note_on_c, 6, 57, 103
8, 175488, Note_off_c, 6, 57, 64
8, 175560, Note_on_c, 6, 57, 103
8, 175608, Note_off_c, 6, 57, 64
8, 175680, Note_on_c, 6, 62, 103
8, 175800, Note_off_c, 6, 62, 64
8, 176880, Note_on_c, 6, 50, 103
8, 176928, Note_off_c, 6, 50, 64
8, 177000, Note_on_c, 6, 54, 103
8, 177048, Note_off_c, 6, 54, 64
8, 177120, Note_on_c, 6, 57, 103
8, 177168, Note_off_c, 6, 57, 64
8, 177240, Note_on_c, 6, 57, 103
8, 177288, Note_off_c, 6, 57, 64
8, 177360, Note_on_c, 6, 57, 103
8, 177408, Note_off_c, 6, 57, 64
8, 177480, Note_on_c, 6, 57, 103
8, 177528, Note_off_c, 6, 57, 64
8, 177600, Note_on_c, 6, 62, 103
8, 177648, Note_off_c, 6, 62, 64
8, 177720, Note_on_c, 6, 57, 103
8, 177768, Note_off_c, 6, 57, 64
8, 177840, Note_on_c, 6, 54, 103
8, 177888, Note_off_c, 6, 54, 64
8, 177960, Note_on_c, 6, 50, 103
8, 178008, Note_off_c, 6, 50, 64
8, 178080, Note_on_c, 6, 45, 103
8, 178128, Note_off_c, 6, 45, 64
8, 178200, Note_on_c, 6, 45, 103
8, 178248, Note_off_c, 6, 45, 64
8, 178320, Note_on_c, 6, 57, 103
8, 178368, Note_off_c, 6, 57, 64
8, 178440, Note_on_c, 6, 57, 103
8, 178488, Note_off_c, 6, 57, 64
8, 178560, Note_on_c, 6, 50, 103
8, 178608, Note_off_c, 6, 50, 64
8, 178680, Note_on_c, 6, 62, 103
8, 178728, Note_off_c, 6, 62, 64
8, 178800, Note_on_c, 6, 62, 103
8, 178830, Note_off_c, 6, 62, 64
8, 178830, Note_on_c, 6, 64, 103
8, 178860, Note_off_c, 6, 64, 64
8, 178860, Note_on_c, 6, 62, 103
8, 178890, Note_off_c, 6, 62, 64
8, 178890, Note_on_c, 6, 64, 103
8, 178920, Note_off_c, 6, 64, 64
8, 178920, Note_on_c, 6, 62, 103
8, 178950, Note_off_c, 6, 62, 64
8, 178950, Note_on_c, 6, 64, 103
8, 178980, Note_off_c, 6, 64, 64
8, 178980, Note_on_c, 6, 61, 103
8, 179010, Note_off_c, 6, 61, 64
8, 179010, Note_on_c, 6, 62, 103
8, 179040, Note_off_c, 6, 62, 64
8, 179040, Note_on_c, 6, 66, 103
8, 179088, Note_off_c, 6, 66, 64
8, 179160, Note_on_c, 6, 62, 103
8, 179208, Note_off_c, 6, 62, 64
8, 179280, Note_on_c, 6, 57, 103
8, 179328, Note_off_c, 6, 57, 64
8, 179400, Note_on_c, 6, 54, 103
8, 179448, Note_off_c, 6, 54, 64
8, 179520, Note_on_c, 6, 50, 103
8, 179760, Note_off_c, 6, 50, 64
8, 179760, Note_on_c, 6, 50, 103
8, 179940, Note_off_c, 6, 50, 64
8, 180000, Note_on_c, 6, 50, 103
8, 180240, Note_off_c, 6, 50, 64
8, 180240, End_track
0, 0, End_of_file
