0, 0, Header, 1, 17, 192
1, 0, Start_track
1, 0, Time_signature, 4, 2, 24, 8
1, 0, Tempo, 500000
1, 190464, Tempo, 600000
1, 192000, Tempo, 500000
1, 194496, Tempo, 600000
1, 194712, Tempo, 666666
1, 194736, Tempo, 750000
1, 194760, Tempo, 800000
1, 194784, Tempo, 857142
1, 194880, Tempo, 1090909
1, 195072, Tempo, 500000
1, 195072, End_track
2, 0, Start_track
2, 0, MIDI_port, 0
2, 0, Title_t, "Flute               "
2, 0, Program_c, 0, 73
2, 0, Control_c, 0, 10, 64
2, 0, Program_c, 0, 73
2, 0, Note_on_c, 0, 84, 80
2, 282, Note_off_c, 0, 84, 0
2, 288, Note_on_c, 0, 79, 80
2, 378, Note_off_c, 0, 79, 0
2, 384, Note_on_c, 0, 76, 80
2, 474, Note_off_c, 0, 76, 0
2, 480, Note_on_c, 0, 72, 80
2, 570, Note_off_c, 0, 72, 0
2, 576, Note_on_c, 0, 76, 80
2, 666, Note_off_c, 0, 76, 0
2, 672, Note_on_c, 0, 79, 80
2, 762, Note_off_c, 0, 79, 0
2, 768, Note_on_c, 0, 84, 80
2, 1050, Note_off_c, 0, 84, 0
2, 33024, Note_on_c, 0, 84, 80
2, 33260, Note_off_c, 0, 84, 0
2, 33312, Note_on_c, 0, 79, 80
2, 33402, Note_off_c, 0, 79, 0
2, 33408, Note_on_c, 0, 76, 80
2, 33498, Note_off_c, 0, 76, 0
2, 33504, Note_on_c, 0, 72, 80
2, 33594, Note_off_c, 0, 72, 0
2, 33600, Note_on_c, 0, 76, 80
2, 33690, Note_off_c, 0, 76, 0
2, 33696, Note_on_c, 0, 79, 80
2, 33786, Note_off_c, 0, 79, 0
2, 33792, Note_on_c, 0, 84, 80
2, 34074, Note_off_c, 0, 84, 0
2, 34080, Note_on_c, 0, 79, 80
2, 34170, Note_off_c, 0, 79, 0
2, 34176, Note_on_c, 0, 76, 80
2, 34266, Note_off_c, 0, 76, 0
2, 34272, Note_on_c, 0, 72, 80
2, 34362, Note_off_c, 0, 72, 0
2, 34368, Note_on_c, 0, 76, 80
2, 34458, Note_off_c, 0, 76, 0
2, 34464, Note_on_c, 0, 79, 80
2, 34554, Note_off_c, 0, 79, 0
2, 34560, Note_on_c, 0, 84, 80
2, 34740, Note_off_c, 0, 84, 0
2, 34752, Note_on_c, 0, 72, 80
2, 34932, Note_off_c, 0, 72, 0
2, 34944, Note_on_c, 0, 71, 80
2, 35124, Note_off_c, 0, 71, 0
2, 35136, Note_on_c, 0, 72, 80
2, 35316, Note_off_c, 0, 72, 0
2, 35328, Note_on_c, 0, 74, 80
2, 35508, Note_off_c, 0, 74, 0
2, 35520, Note_on_c, 0, 74, 80
2, 35700, Note_off_c, 0, 74, 0
2, 35712, Note_on_c, 0, 73, 80
2, 35892, Note_off_c, 0, 73, 0
2, 35904, Note_on_c, 0, 74, 80
2, 36084, Note_off_c, 0, 74, 0
2, 36096, Note_on_c, 0, 76, 80
2, 36276, Note_off_c, 0, 76, 0
2, 36288, Note_on_c, 0, 76, 80
2, 36468, Note_off_c, 0, 76, 0
2, 36480, Note_on_c, 0, 75, 80
2, 36660, Note_off_c, 0, 75, 0
2, 36672, Note_on_c, 0, 76, 80
2, 36852, Note_off_c, 0, 76, 0
2, 36864, Note_on_c, 0, 77, 80
2, 37044, Note_off_c, 0, 77, 0
2, 37056, Note_on_c, 0, 79, 80
2, 37236, Note_off_c, 0, 79, 0
2, 37248, Note_on_c, 0, 81, 80
2, 37428, Note_off_c, 0, 81, 0
2, 37440, Note_on_c, 0, 83, 80
2, 37620, Note_off_c, 0, 83, 0
2, 37632, Note_on_c, 0, 84, 80
2, 38388, Note_off_c, 0, 84, 0
2, 38400, Note_on_c, 0, 79, 80
2, 39156, Note_off_c, 0, 79, 0
2, 39168, Note_on_c, 0, 72, 80
2, 39924, Note_off_c, 0, 72, 0
2, 39936, Note_on_c, 0, 67, 80
2, 40692, Note_off_c, 0, 67, 0
2, 40704, Note_on_c, 0, 72, 80
2, 40788, Note_off_c, 0, 72, 0
2, 40800, Note_on_c, 0, 74, 80
2, 40844, Note_off_c, 0, 74, 0
2, 40848, Note_on_c, 0, 76, 80
2, 40892, Note_off_c, 0, 76, 0
2, 40896, Note_on_c, 0, 77, 80
2, 40940, Note_off_c, 0, 77, 0
2, 40944, Note_on_c, 0, 79, 80
2, 40988, Note_off_c, 0, 79, 0
2, 40992, Note_on_c, 0, 81, 80
2, 41036, Note_off_c, 0, 81, 0
2, 41040, Note_on_c, 0, 83, 80
2, 41084, Note_off_c, 0, 83, 0
2, 41088, Note_on_c, 0, 84, 80
2, 41132, Note_off_c, 0, 84, 0
2, 41136, Note_on_c, 0, 83, 80
2, 41180, Note_off_c, 0, 83, 0
2, 41184, Note_on_c, 0, 84, 80
2, 41228, Note_off_c, 0, 84, 0
2, 41232, Note_on_c, 0, 83, 80
2, 41276, Note_off_c, 0, 83, 0
2, 41280, Note_on_c, 0, 84, 80
2, 41324, Note_off_c, 0, 84, 0
2, 41328, Note_on_c, 0, 83, 80
2, 41372, Note_off_c, 0, 83, 0
2, 41376, Note_on_c, 0, 81, 80
2, 41420, Note_off_c, 0, 81, 0
2, 41424, Note_on_c, 0, 79, 80
2, 41468, Note_off_c, 0, 79, 0
2, 41472, Note_on_c, 0, 81, 80
2, 41516, Note_off_c, 0, 81, 0
2, 41520, Note_on_c, 0, 72, 80
2, 41564, Note_off_c, 0, 72, 0
2, 41568, Note_on_c, 0, 74, 80
2, 41612, Note_off_c, 0, 74, 0
2, 41616, Note_on_c, 0, 76, 80
2, 41660, Note_off_c, 0, 76, 0
2, 41664, Note_on_c, 0, 77, 80
2, 41708, Note_off_c, 0, 77, 0
2, 41712, Note_on_c, 0, 79, 80
2, 41756, Note_off_c, 0, 79, 0
2, 41760, Note_on_c, 0, 81, 80
2, 41804, Note_off_c, 0, 81, 0
2, 41808, Note_on_c, 0, 83, 80
2, 41852, Note_off_c, 0, 83, 0
2, 41856, Note_on_c, 0, 84, 80
2, 41900, Note_off_c, 0, 84, 0
2, 41904, Note_on_c, 0, 83, 80
2, 41948, Note_off_c, 0, 83, 0
2, 41952, Note_on_c, 0, 84, 80
2, 41996, Note_off_c, 0, 84, 0
2, 42000, Note_on_c, 0, 83, 80
2, 42044, Note_off_c, 0, 83, 0
2, 42048, Note_on_c, 0, 86, 80
2, 42092, Note_off_c, 0, 86, 0
2, 42096, Note_on_c, 0, 84, 80
2, 42140, Note_off_c, 0, 84, 0
2, 42144, Note_on_c, 0, 83, 80
2, 42188, Note_off_c, 0, 83, 0
2, 42192, Note_on_c, 0, 81, 80
2, 42236, Note_off_c, 0, 81, 0
2, 42240, Note_on_c, 0, 79, 80
2, 42284, Note_off_c, 0, 79, 0
2, 42288, Note_on_c, 0, 72, 80
2, 42332, Note_off_c, 0, 72, 0
2, 42336, Note_on_c, 0, 74, 80
2, 42380, Note_off_c, 0, 74, 0
2, 42384, Note_on_c, 0, 76, 80
2, 42428, Note_off_c, 0, 76, 0
2, 42432, Note_on_c, 0, 77, 80
2, 42476, Note_off_c, 0, 77, 0
2, 42480, Note_on_c, 0, 79, 80
2, 42524, Note_off_c, 0, 79, 0
2, 42528, Note_on_c, 0, 81, 80
2, 42572, Note_off_c, 0, 81, 0
2, 42576, Note_on_c, 0, 83, 80
2, 42620, Note_off_c, 0, 83, 0
2, 42624, Note_on_c, 0, 84, 80
2, 42668, Note_off_c, 0, 84, 0
2, 42672, Note_on_c, 0, 86, 80
2, 42716, Note_off_c, 0, 86, 0
2, 42720, Note_on_c, 0, 88, 80
2, 42764, Note_off_c, 0, 88, 0
2, 42768, Note_on_c, 0, 86, 80
2, 42812, Note_off_c, 0, 86, 0
2, 42816, Note_on_c, 0, 84, 80
2, 42860, Note_off_c, 0, 84, 0
2, 42864, Note_on_c, 0, 83, 80
2, 42908, Note_off_c, 0, 83, 0
2, 42912, Note_on_c, 0, 81, 80
2, 42956, Note_off_c, 0, 81, 0
2, 42960, Note_on_c, 0, 79, 80
2, 43004, Note_off_c, 0, 79, 0
2, 43008, Note_on_c, 0, 79, 80
2, 43052, Note_off_c, 0, 79, 0
2, 43056, Note_on_c, 0, 77, 80
2, 43100, Note_off_c, 0, 77, 0
2, 43104, Note_on_c, 0, 81, 80
2, 43148, Note_off_c, 0, 81, 0
2, 43152, Note_on_c, 0, 77, 80
2, 43196, Note_off_c, 0, 77, 0
2, 43200, Note_on_c, 0, 76, 80
2, 43572, Note_off_c, 0, 76, 0
2, 43584, Note_on_c, 0, 74, 80
2, 43604, Note_off_c, 0, 74, 0
2, 43608, Note_on_c, 0, 76, 80
2, 43624, Note_on_c, 0, 74, 80
2, 43628, Note_off_c, 0, 76, 0
2, 43644, Note_off_c, 0, 74, 0
2, 43648, Note_on_c, 0, 76, 80
2, 43668, Note_off_c, 0, 76, 0
2, 43680, Note_on_c, 0, 72, 80
2, 43724, Note_off_c, 0, 72, 0
2, 43728, Note_on_c, 0, 74, 80
2, 43772, Note_off_c, 0, 74, 0
2, 43776, Note_on_c, 0, 72, 80
2, 44058, Note_off_c, 0, 72, 0
2, 46848, Note_on_c, 0, 72, 80
2, 46938, Note_off_c, 0, 72, 0
2, 46944, Note_on_c, 0, 88, 80
2, 47124, Note_off_c, 0, 88, 0
2, 47136, Note_on_c, 0, 86, 80
2, 47226, Note_off_c, 0, 86, 0
2, 47232, Note_on_c, 0, 69, 80
2, 47322, Note_off_c, 0, 69, 0
2, 47328, Note_on_c, 0, 84, 80
2, 47518, Note_off_c, 0, 84, 0
2, 47520, Note_on_c, 0, 83, 80
2, 47610, Note_off_c, 0, 83, 0
2, 47616, Note_on_c, 0, 65, 80
2, 47706, Note_off_c, 0, 65, 0
2, 47712, Note_on_c, 0, 81, 80
2, 47892, Note_off_c, 0, 81, 0
2, 47904, Note_on_c, 0, 79, 80
2, 47994, Note_off_c, 0, 79, 0
2, 48000, Note_on_c, 0, 77, 80
2, 48090, Note_off_c, 0, 77, 0
2, 48096, Note_on_c, 0, 76, 80
2, 48186, Note_off_c, 0, 76, 0
2, 48192, Note_on_c, 0, 74, 80
2, 48282, Note_off_c, 0, 74, 0
2, 48288, Note_on_c, 0, 72, 80
2, 48378, Note_off_c, 0, 72, 0
2, 48384, Note_on_c, 0, 79, 80
2, 49140, Note_off_c, 0, 79, 0
2, 49152, Note_on_c, 0, 79, 80
2, 49242, Note_off_c, 0, 79, 0
2, 49248, Note_on_c, 0, 79, 80
2, 49338, Note_off_c, 0, 79, 0
2, 49344, Note_on_c, 0, 81, 80
2, 49434, Note_off_c, 0, 81, 0
2, 49440, Note_on_c, 0, 83, 80
2, 49530, Note_off_c, 0, 83, 0
2, 49536, Note_on_c, 0, 84, 80
2, 49626, Note_off_c, 0, 84, 0
2, 49632, Note_on_c, 0, 86, 80
2, 49722, Note_off_c, 0, 86, 0
2, 49728, Note_on_c, 0, 88, 80
2, 49818, Note_off_c, 0, 88, 0
2, 49824, Note_on_c, 0, 90, 80
2, 49914, Note_off_c, 0, 90, 0
2, 49920, Note_on_c, 0, 91, 80
2, 50202, Note_off_c, 0, 91, 0
2, 51456, Note_on_c, 0, 74, 80
2, 51546, Note_off_c, 0, 74, 0
2, 51552, Note_on_c, 0, 86, 80
2, 51834, Note_off_c, 0, 86, 0
2, 51840, Note_on_c, 0, 83, 80
2, 51884, Note_off_c, 0, 83, 0
2, 51888, Note_on_c, 0, 86, 80
2, 51932, Note_off_c, 0, 86, 0
2, 51936, Note_on_c, 0, 83, 80
2, 51980, Note_off_c, 0, 83, 0
2, 51984, Note_on_c, 0, 81, 80
2, 52028, Note_off_c, 0, 81, 0
2, 52032, Note_on_c, 0, 83, 80
2, 52122, Note_off_c, 0, 83, 0
2, 52128, Note_on_c, 0, 84, 80
2, 52218, Note_off_c, 0, 84, 0
2, 52224, Note_on_c, 0, 88, 80
2, 52314, Note_off_c, 0, 88, 0
2, 52320, Note_on_c, 0, 86, 80
2, 52410, Note_off_c, 0, 86, 0
2, 52416, Note_on_c, 0, 86, 80
2, 52788, Note_off_c, 0, 86, 0
2, 52800, Note_on_c, 0, 84, 80
2, 52844, Note_off_c, 0, 84, 0
2, 52848, Note_on_c, 0, 83, 80
2, 52892, Note_off_c, 0, 83, 0
2, 52896, Note_on_c, 0, 81, 80
2, 52940, Note_off_c, 0, 81, 0
2, 52944, Note_on_c, 0, 79, 80
2, 52988, Note_off_c, 0, 79, 0
2, 52992, Note_on_c, 0, 79, 80
2, 53082, Note_off_c, 0, 79, 0
2, 53088, Note_on_c, 0, 88, 80
2, 53178, Note_off_c, 0, 88, 0
2, 53184, Note_on_c, 0, 88, 80
2, 53748, Note_off_c, 0, 88, 0
2, 53760, Note_on_c, 0, 86, 80
2, 53940, Note_off_c, 0, 86, 0
2, 53952, Note_on_c, 0, 79, 80
2, 54132, Note_off_c, 0, 79, 0
2, 54144, Note_on_c, 0, 81, 80
2, 54324, Note_off_c, 0, 81, 0
2, 54336, Note_on_c, 0, 81, 80
2, 54426, Note_off_c, 0, 81, 0
2, 54432, Note_on_c, 0, 83, 80
2, 54476, Note_off_c, 0, 83, 0
2, 54480, Note_on_c, 0, 84, 80
2, 54524, Note_off_c, 0, 84, 0
2, 54528, Note_on_c, 0, 83, 80
2, 54708, Note_off_c, 0, 83, 0
2, 55296, Note_on_c, 0, 74, 80
2, 55668, Note_off_c, 0, 74, 0
2, 55680, Note_on_c, 0, 74, 80
2, 55770, Note_off_c, 0, 74, 0
2, 55776, Note_on_c, 0, 76, 80
2, 55820, Note_off_c, 0, 76, 0
2, 55824, Note_on_c, 0, 74, 80
2, 55868, Note_off_c, 0, 74, 0
2, 55872, Note_on_c, 0, 72, 80
2, 55916, Note_off_c, 0, 72, 0
2, 55920, Note_on_c, 0, 71, 80
2, 55964, Note_off_c, 0, 71, 0
2, 55968, Note_on_c, 0, 69, 80
2, 56012, Note_off_c, 0, 69, 0
2, 56016, Note_on_c, 0, 67, 80
2, 56060, Note_off_c, 0, 67, 0
2, 56064, Note_on_c, 0, 67, 80
2, 56154, Note_off_c, 0, 67, 0
2, 56160, Note_on_c, 0, 76, 80
2, 56250, Note_off_c, 0, 76, 0
2, 56256, Note_on_c, 0, 76, 80
2, 56436, Note_off_c, 0, 76, 0
2, 56448, Note_on_c, 0, 76, 80
2, 56538, Note_off_c, 0, 76, 0
2, 56544, Note_on_c, 0, 79, 80
2, 56634, Note_off_c, 0, 79, 0
2, 56640, Note_on_c, 0, 78, 80
2, 56730, Note_off_c, 0, 78, 0
2, 56736, Note_on_c, 0, 76, 80
2, 56826, Note_off_c, 0, 76, 0
2, 56832, Note_on_c, 0, 76, 80
2, 56922, Note_off_c, 0, 76, 0
2, 56928, Note_on_c, 0, 74, 80
2, 57018, Note_off_c, 0, 74, 0
2, 57024, Note_on_c, 0, 72, 80
2, 57068, Note_off_c, 0, 72, 0
2, 57072, Note_on_c, 0, 71, 80
2, 57116, Note_off_c, 0, 71, 0
2, 57120, Note_on_c, 0, 69, 80
2, 57164, Note_off_c, 0, 69, 0
2, 57168, Note_on_c, 0, 67, 80
2, 57212, Note_off_c, 0, 67, 0
2, 57216, Note_on_c, 0, 69, 80
2, 57396, Note_off_c, 0, 69, 0
2, 57408, Note_on_c, 0, 69, 80
2, 57498, Note_off_c, 0, 69, 0
2, 57504, Note_on_c, 0, 71, 80
2, 57548, Note_off_c, 0, 71, 0
2, 57552, Note_on_c, 0, 72, 80
2, 57596, Note_off_c, 0, 72, 0
2, 57600, Note_on_c, 0, 71, 80
2, 57644, Note_off_c, 0, 71, 0
2, 57648, Note_on_c, 0, 74, 80
2, 57692, Note_off_c, 0, 74, 0
2, 57696, Note_on_c, 0, 76, 80
2, 57740, Note_off_c, 0, 76, 0
2, 57744, Note_on_c, 0, 78, 80
2, 57788, Note_off_c, 0, 78, 0
2, 57792, Note_on_c, 0, 79, 80
2, 57836, Note_off_c, 0, 79, 0
2, 57840, Note_on_c, 0, 81, 80
2, 57884, Note_off_c, 0, 81, 0
2, 57888, Note_on_c, 0, 83, 80
2, 57932, Note_off_c, 0, 83, 0
2, 57936, Note_on_c, 0, 84, 80
2, 57980, Note_off_c, 0, 84, 0
2, 57984, Note_on_c, 0, 86, 80
2, 58074, Note_off_c, 0, 86, 0
2, 58080, Note_on_c, 0, 86, 80
2, 58260, Note_off_c, 0, 86, 0
2, 58272, Note_on_c, 0, 84, 80
2, 58316, Note_off_c, 0, 84, 0
2, 58320, Note_on_c, 0, 83, 80
2, 58364, Note_off_c, 0, 83, 0
2, 58368, Note_on_c, 0, 83, 80
2, 58458, Note_off_c, 0, 83, 0
2, 58464, Note_on_c, 0, 81, 80
2, 58554, Note_off_c, 0, 81, 0
2, 58560, Note_on_c, 0, 81, 80
2, 58740, Note_off_c, 0, 81, 0
2, 58752, Note_on_c, 0, 81, 80
2, 58842, Note_off_c, 0, 81, 0
2, 58848, Note_on_c, 0, 83, 80
2, 58892, Note_off_c, 0, 83, 0
2, 58896, Note_on_c, 0, 81, 80
2, 58940, Note_off_c, 0, 81, 0
2, 58944, Note_on_c, 0, 81, 80
2, 58988, Note_off_c, 0, 81, 0
2, 58992, Note_on_c, 0, 79, 80
2, 59036, Note_off_c, 0, 79, 0
2, 59040, Note_on_c, 0, 78, 80
2, 59084, Note_off_c, 0, 78, 0
2, 59088, Note_on_c, 0, 79, 80
2, 59132, Note_off_c, 0, 79, 0
2, 59136, Note_on_c, 0, 78, 80
2, 59418, Note_off_c, 0, 78, 0
2, 60576, Note_on_c, 0, 62, 80
2, 60666, Note_off_c, 0, 62, 0
2, 60672, Note_on_c, 0, 86, 80
2, 60852, Note_off_c, 0, 86, 0
2, 60864, Note_on_c, 0, 83, 80
2, 60954, Note_off_c, 0, 83, 0
2, 61056, Note_on_c, 0, 83, 80
2, 61236, Note_off_c, 0, 83, 0
2, 61248, Note_on_c, 0, 79, 80
2, 61338, Note_off_c, 0, 79, 0
2, 61440, Note_on_c, 0, 79, 80
2, 61620, Note_off_c, 0, 79, 0
2, 61632, Note_on_c, 0, 74, 80
2, 61722, Note_off_c, 0, 74, 0
2, 61824, Note_on_c, 0, 71, 80
2, 62004, Note_off_c, 0, 71, 0
2, 62016, Note_on_c, 0, 67, 80
2, 62106, Note_off_c, 0, 67, 0
2, 62208, Note_on_c, 0, 62, 80
2, 62490, Note_off_c, 0, 62, 0
2, 63168, Note_on_c, 0, 62, 80
2, 63348, Note_off_c, 0, 62, 0
2, 63360, Note_on_c, 0, 62, 80
2, 63404, Note_off_c, 0, 62, 0
2, 63408, Note_on_c, 0, 74, 80
2, 63452, Note_off_c, 0, 74, 0
2, 63456, Note_on_c, 0, 76, 80
2, 63500, Note_off_c, 0, 76, 0
2, 63504, Note_on_c, 0, 78, 80
2, 63548, Note_off_c, 0, 78, 0
2, 63552, Note_on_c, 0, 79, 80
2, 63596, Note_off_c, 0, 79, 0
2, 63600, Note_on_c, 0, 81, 80
2, 63644, Note_off_c, 0, 81, 0
2, 63648, Note_on_c, 0, 83, 80
2, 63692, Note_off_c, 0, 83, 0
2, 63696, Note_on_c, 0, 84, 80
2, 63740, Note_off_c, 0, 84, 0
2, 63744, Note_on_c, 0, 86, 80
2, 63924, Note_off_c, 0, 86, 0
2, 63936, Note_on_c, 0, 83, 80
2, 64026, Note_off_c, 0, 83, 0
2, 64128, Note_on_c, 0, 83, 80
2, 64308, Note_off_c, 0, 83, 0
2, 64320, Note_on_c, 0, 79, 80
2, 64410, Note_off_c, 0, 79, 0
2, 64512, Note_on_c, 0, 79, 80
2, 64692, Note_off_c, 0, 79, 0
2, 64704, Note_on_c, 0, 74, 80
2, 64794, Note_off_c, 0, 74, 0
2, 64896, Note_on_c, 0, 71, 80
2, 65076, Note_off_c, 0, 71, 0
2, 65088, Note_on_c, 0, 67, 80
2, 65178, Note_off_c, 0, 67, 0
2, 65280, Note_on_c, 0, 62, 80
2, 65562, Note_off_c, 0, 62, 0
2, 67584, Note_on_c, 0, 79, 80
2, 68340, Note_off_c, 0, 79, 0
2, 68352, Note_on_c, 0, 74, 80
2, 69108, Note_off_c, 0, 74, 0
2, 69120, Note_on_c, 0, 67, 80
2, 69402, Note_off_c, 0, 67, 0
2, 69504, Note_on_c, 0, 74, 80
2, 69594, Note_off_c, 0, 74, 0
2, 69600, Note_on_c, 0, 76, 80
2, 69690, Note_off_c, 0, 76, 0
2, 69696, Note_on_c, 0, 78, 80
2, 69786, Note_off_c, 0, 78, 0
2, 69792, Note_on_c, 0, 79, 80
2, 69882, Note_off_c, 0, 79, 0
2, 69888, Note_on_c, 0, 79, 80
2, 69978, Note_off_c, 0, 79, 0
2, 69984, Note_on_c, 0, 78, 80
2, 70074, Note_off_c, 0, 78, 0
2, 70080, Note_on_c, 0, 76, 80
2, 70170, Note_off_c, 0, 76, 0
2, 70176, Note_on_c, 0, 74, 80
2, 70266, Note_off_c, 0, 74, 0
2, 70272, Note_on_c, 0, 74, 80
2, 70316, Note_off_c, 0, 74, 0
2, 70320, Note_on_c, 0, 72, 80
2, 70364, Note_off_c, 0, 72, 0
2, 70368, Note_on_c, 0, 71, 80
2, 70412, Note_off_c, 0, 71, 0
2, 70416, Note_on_c, 0, 72, 80
2, 70460, Note_off_c, 0, 72, 0
2, 70464, Note_on_c, 0, 76, 80
2, 70554, Note_off_c, 0, 76, 0
2, 70560, Note_on_c, 0, 72, 80
2, 70650, Note_off_c, 0, 72, 0
2, 70656, Note_on_c, 0, 70, 80
2, 70746, Note_off_c, 0, 70, 0
2, 70752, Note_on_c, 0, 71, 80
2, 70842, Note_off_c, 0, 71, 0
2, 70944, Note_on_c, 0, 71, 80
2, 70988, Note_off_c, 0, 71, 0
2, 70992, Note_on_c, 0, 72, 80
2, 71036, Note_off_c, 0, 72, 0
2, 71040, Note_on_c, 0, 74, 80
2, 71130, Note_off_c, 0, 74, 0
2, 71136, Note_on_c, 0, 76, 80
2, 71226, Note_off_c, 0, 76, 0
2, 71232, Note_on_c, 0, 78, 80
2, 71322, Note_off_c, 0, 78, 0
2, 71328, Note_on_c, 0, 79, 80
2, 71418, Note_off_c, 0, 79, 0
2, 71424, Note_on_c, 0, 79, 80
2, 71514, Note_off_c, 0, 79, 0
2, 71520, Note_on_c, 0, 78, 80
2, 71610, Note_off_c, 0, 78, 0
2, 71616, Note_on_c, 0, 76, 80
2, 71706, Note_off_c, 0, 76, 0
2, 71712, Note_on_c, 0, 74, 80
2, 71802, Note_off_c, 0, 74, 0
2, 71808, Note_on_c, 0, 74, 80
2, 71852, Note_off_c, 0, 74, 0
2, 71856, Note_on_c, 0, 72, 80
2, 71900, Note_off_c, 0, 72, 0
2, 71904, Note_on_c, 0, 71, 80
2, 71948, Note_off_c, 0, 71, 0
2, 71952, Note_on_c, 0, 72, 80
2, 71996, Note_off_c, 0, 72, 0
2, 72000, Note_on_c, 0, 76, 80
2, 72090, Note_off_c, 0, 76, 0
2, 72096, Note_on_c, 0, 72, 80
2, 72186, Note_off_c, 0, 72, 0
2, 72192, Note_on_c, 0, 71, 80
2, 72282, Note_off_c, 0, 71, 0
2, 72288, Note_on_c, 0, 79, 80
2, 72468, Note_off_c, 0, 79, 0
2, 72480, Note_on_c, 0, 77, 80
2, 72570, Note_off_c, 0, 77, 0
2, 72576, Note_on_c, 0, 77, 80
2, 72666, Note_off_c, 0, 77, 0
2, 72672, Note_on_c, 0, 76, 80
2, 72852, Note_off_c, 0, 76, 0
2, 72864, Note_on_c, 0, 74, 80
2, 72954, Note_off_c, 0, 74, 0
2, 72960, Note_on_c, 0, 74, 80
2, 73050, Note_off_c, 0, 74, 0
2, 73056, Note_on_c, 0, 72, 80
2, 73236, Note_off_c, 0, 72, 0
2, 73248, Note_on_c, 0, 79, 80
2, 73338, Note_off_c, 0, 79, 0
2, 73344, Note_on_c, 0, 79, 80
2, 73434, Note_off_c, 0, 79, 0
2, 73440, Note_on_c, 0, 77, 80
2, 73620, Note_off_c, 0, 77, 0
2, 73632, Note_on_c, 0, 76, 80
2, 73722, Note_off_c, 0, 76, 0
2, 73728, Note_on_c, 0, 76, 80
2, 73818, Note_off_c, 0, 76, 0
2, 73824, Note_on_c, 0, 74, 80
2, 74004, Note_off_c, 0, 74, 0
2, 74016, Note_on_c, 0, 79, 80
2, 74106, Note_off_c, 0, 79, 0
2, 74112, Note_on_c, 0, 79, 80
2, 74200, Note_on_c, 0, 77, 80
2, 74202, Note_off_c, 0, 79, 0
2, 74380, Note_off_c, 0, 77, 0
2, 74400, Note_on_c, 0, 75, 80
2, 74490, Note_off_c, 0, 75, 0
2, 74496, Note_on_c, 0, 76, 80
2, 74516, Note_off_c, 0, 76, 0
2, 74520, Note_on_c, 0, 78, 80
2, 74540, Note_off_c, 0, 78, 0
2, 74552, Note_on_c, 0, 79, 80
2, 74648, Note_off_c, 0, 79, 64
2, 74688, Note_on_c, 0, 79, 80
2, 74736, Note_off_c, 0, 79, 0
2, 74784, Note_on_c, 0, 79, 80
2, 74832, Note_off_c, 0, 79, 0
2, 74880, Note_on_c, 0, 79, 80
2, 75024, Note_off_c, 0, 79, 0
2, 75264, Note_on_c, 0, 76, 80
2, 75284, Note_off_c, 0, 76, 0
2, 75288, Note_on_c, 0, 78, 80
2, 75308, Note_off_c, 0, 78, 0
2, 75312, Note_on_c, 0, 79, 80
2, 75408, Note_off_c, 0, 79, 0
2, 75456, Note_on_c, 0, 79, 80
2, 75504, Note_off_c, 0, 79, 0
2, 75552, Note_on_c, 0, 79, 80
2, 75600, Note_off_c, 0, 79, 0
2, 75648, Note_on_c, 0, 79, 80
2, 75792, Note_off_c, 0, 79, 0
2, 76032, Note_on_c, 0, 69, 80
2, 76404, Note_off_c, 0, 69, 0
2, 76416, Note_on_c, 0, 84, 80
2, 76788, Note_off_c, 0, 84, 0
2, 76800, Note_on_c, 0, 67, 80
2, 77172, Note_off_c, 0, 67, 0
2, 77184, Note_on_c, 0, 83, 80
2, 77556, Note_off_c, 0, 83, 0
2, 77568, Note_on_c, 0, 81, 80
2, 77658, Note_off_c, 0, 81, 0
2, 77664, Note_on_c, 0, 83, 80
2, 77680, Note_on_c, 0, 81, 80
2, 77684, Note_off_c, 0, 83, 0
2, 77712, Note_on_c, 0, 80, 80
2, 77724, Note_off_c, 0, 81, 0
2, 77756, Note_off_c, 0, 80, 0
2, 77760, Note_on_c, 0, 81, 80
2, 77850, Note_off_c, 0, 81, 0
2, 77856, Note_on_c, 0, 84, 80
2, 77946, Note_off_c, 0, 84, 0
2, 77952, Note_on_c, 0, 83, 80
2, 78042, Note_off_c, 0, 83, 0
2, 78048, Note_on_c, 0, 81, 80
2, 78138, Note_off_c, 0, 81, 0
2, 78144, Note_on_c, 0, 79, 80
2, 78234, Note_off_c, 0, 79, 0
2, 78240, Note_on_c, 0, 78, 80
2, 78330, Note_off_c, 0, 78, 0
2, 78336, Note_on_c, 0, 79, 80
2, 78426, Note_off_c, 0, 79, 0
2, 78432, Note_on_c, 0, 81, 80
2, 78522, Note_off_c, 0, 81, 0
2, 78528, Note_on_c, 0, 83, 80
2, 78618, Note_off_c, 0, 83, 0
2, 78624, Note_on_c, 0, 84, 80
2, 78714, Note_off_c, 0, 84, 0
2, 78720, Note_on_c, 0, 86, 80
2, 79002, Note_off_c, 0, 86, 0
2, 79104, Note_on_c, 0, 72, 80
2, 79194, Note_off_c, 0, 72, 0
2, 79200, Note_on_c, 0, 84, 80
2, 79244, Note_off_c, 0, 84, 0
2, 79248, Note_on_c, 0, 86, 80
2, 79292, Note_off_c, 0, 86, 0
2, 79296, Note_on_c, 0, 88, 80
2, 79340, Note_off_c, 0, 88, 0
2, 79344, Note_on_c, 0, 86, 80
2, 79388, Note_off_c, 0, 86, 0
2, 79392, Note_on_c, 0, 84, 80
2, 79436, Note_off_c, 0, 84, 0
2, 79440, Note_on_c, 0, 83, 80
2, 79484, Note_off_c, 0, 83, 0
2, 79488, Note_on_c, 0, 81, 80
2, 79532, Note_off_c, 0, 81, 0
2, 79536, Note_on_c, 0, 79, 80
2, 79580, Note_off_c, 0, 79, 0
2, 79584, Note_on_c, 0, 81, 80
2, 79628, Note_off_c, 0, 81, 0
2, 79632, Note_on_c, 0, 79, 80
2, 79676, Note_off_c, 0, 79, 0
2, 79680, Note_on_c, 0, 78, 80
2, 79724, Note_off_c, 0, 78, 0
2, 79728, Note_on_c, 0, 76, 80
2, 79772, Note_off_c, 0, 76, 0
2, 79776, Note_on_c, 0, 74, 80
2, 79820, Note_off_c, 0, 74, 0
2, 79824, Note_on_c, 0, 72, 80
2, 79868, Note_off_c, 0, 72, 0
2, 79872, Note_on_c, 0, 71, 80
2, 79962, Note_off_c, 0, 71, 0
2, 79968, Note_on_c, 0, 83, 80
2, 80012, Note_off_c, 0, 83, 0
2, 80016, Note_on_c, 0, 84, 80
2, 80060, Note_off_c, 0, 84, 0
2, 80064, Note_on_c, 0, 86, 80
2, 80108, Note_off_c, 0, 86, 0
2, 80112, Note_on_c, 0, 84, 80
2, 80156, Note_off_c, 0, 84, 0
2, 80160, Note_on_c, 0, 83, 80
2, 80204, Note_off_c, 0, 83, 0
2, 80208, Note_on_c, 0, 81, 80
2, 80252, Note_off_c, 0, 81, 0
2, 80256, Note_on_c, 0, 79, 80
2, 80300, Note_off_c, 0, 79, 0
2, 80304, Note_on_c, 0, 78, 80
2, 80348, Note_off_c, 0, 78, 0
2, 80352, Note_on_c, 0, 79, 80
2, 80396, Note_off_c, 0, 79, 0
2, 80400, Note_on_c, 0, 78, 80
2, 80444, Note_off_c, 0, 78, 0
2, 80448, Note_on_c, 0, 76, 80
2, 80492, Note_off_c, 0, 76, 0
2, 80496, Note_on_c, 0, 74, 80
2, 80540, Note_off_c, 0, 74, 0
2, 80544, Note_on_c, 0, 72, 80
2, 80588, Note_off_c, 0, 72, 0
2, 80592, Note_on_c, 0, 71, 80
2, 80636, Note_off_c, 0, 71, 0
2, 80640, Note_on_c, 0, 69, 80
2, 80922, Note_off_c, 0, 69, 0
2, 80928, Note_on_c, 0, 84, 80
2, 81018, Note_off_c, 0, 84, 0
2, 81024, Note_on_c, 0, 83, 80
2, 81114, Note_off_c, 0, 83, 0
2, 81120, Note_on_c, 0, 81, 80
2, 81210, Note_off_c, 0, 81, 0
2, 81216, Note_on_c, 0, 79, 80
2, 81306, Note_off_c, 0, 79, 0
2, 81312, Note_on_c, 0, 78, 80
2, 81402, Note_off_c, 0, 78, 0
2, 81408, Note_on_c, 0, 79, 80
2, 81690, Note_off_c, 0, 79, 0
2, 81792, Note_on_c, 0, 84, 80
2, 81836, Note_off_c, 0, 84, 0
2, 81840, Note_on_c, 0, 83, 80
2, 81884, Note_off_c, 0, 83, 0
2, 81888, Note_on_c, 0, 81, 80
2, 81932, Note_off_c, 0, 81, 0
2, 81936, Note_on_c, 0, 83, 80
2, 81980, Note_off_c, 0, 83, 0
2, 81984, Note_on_c, 0, 86, 80
2, 82028, Note_off_c, 0, 86, 0
2, 82032, Note_on_c, 0, 84, 80
2, 82076, Note_off_c, 0, 84, 0
2, 82080, Note_on_c, 0, 83, 80
2, 82124, Note_off_c, 0, 83, 0
2, 82128, Note_on_c, 0, 84, 80
2, 82172, Note_off_c, 0, 84, 0
2, 82176, Note_on_c, 0, 86, 80
2, 82266, Note_off_c, 0, 86, 0
2, 82272, Note_on_c, 0, 83, 80
2, 82362, Note_off_c, 0, 83, 0
2, 82368, Note_on_c, 0, 79, 80
2, 82458, Note_off_c, 0, 79, 0
2, 82464, Note_on_c, 0, 79, 80
2, 82554, Note_off_c, 0, 79, 0
2, 82560, Note_on_c, 0, 84, 80
2, 82604, Note_off_c, 0, 84, 0
2, 82608, Note_on_c, 0, 83, 80
2, 82652, Note_off_c, 0, 83, 0
2, 82656, Note_on_c, 0, 81, 80
2, 82700, Note_off_c, 0, 81, 0
2, 82704, Note_on_c, 0, 83, 80
2, 82748, Note_off_c, 0, 83, 0
2, 82752, Note_on_c, 0, 86, 80
2, 82796, Note_off_c, 0, 86, 0
2, 82800, Note_on_c, 0, 84, 80
2, 82844, Note_off_c, 0, 84, 0
2, 82848, Note_on_c, 0, 83, 80
2, 82892, Note_off_c, 0, 83, 0
2, 82896, Note_on_c, 0, 84, 80
2, 82940, Note_off_c, 0, 84, 0
2, 82944, Note_on_c, 0, 86, 80
2, 83034, Note_off_c, 0, 86, 0
2, 83040, Note_on_c, 0, 83, 80
2, 83130, Note_off_c, 0, 83, 0
2, 83136, Note_on_c, 0, 79, 80
2, 83226, Note_off_c, 0, 79, 0
2, 83232, Note_on_c, 0, 79, 80
2, 83322, Note_off_c, 0, 79, 0
2, 83328, Note_on_c, 0, 84, 80
2, 83372, Note_off_c, 0, 84, 0
2, 83376, Note_on_c, 0, 83, 80
2, 83420, Note_off_c, 0, 83, 0
2, 83424, Note_on_c, 0, 81, 80
2, 83468, Note_off_c, 0, 81, 0
2, 83472, Note_on_c, 0, 83, 80
2, 83516, Note_off_c, 0, 83, 0
2, 83520, Note_on_c, 0, 86, 80
2, 83564, Note_off_c, 0, 86, 0
2, 83568, Note_on_c, 0, 84, 80
2, 83612, Note_off_c, 0, 84, 0
2, 83616, Note_on_c, 0, 83, 80
2, 83660, Note_off_c, 0, 83, 0
2, 83664, Note_on_c, 0, 84, 80
2, 83708, Note_off_c, 0, 84, 0
2, 83712, Note_on_c, 0, 86, 80
2, 83802, Note_off_c, 0, 86, 0
2, 83808, Note_on_c, 0, 86, 80
2, 83852, Note_off_c, 0, 86, 0
2, 83856, Note_on_c, 0, 88, 80
2, 83900, Note_off_c, 0, 88, 0
2, 83904, Note_on_c, 0, 84, 80
2, 83994, Note_off_c, 0, 84, 0
2, 84000, Note_on_c, 0, 84, 80
2, 84044, Note_off_c, 0, 84, 0
2, 84048, Note_on_c, 0, 86, 80
2, 84092, Note_off_c, 0, 86, 0
2, 84096, Note_on_c, 0, 83, 80
2, 84186, Note_off_c, 0, 83, 0
2, 84192, Note_on_c, 0, 83, 80
2, 84236, Note_off_c, 0, 83, 0
2, 84240, Note_on_c, 0, 84, 80
2, 84284, Note_off_c, 0, 84, 0
2, 84288, Note_on_c, 0, 81, 80
2, 84378, Note_off_c, 0, 81, 0
2, 84384, Note_on_c, 0, 81, 80
2, 84428, Note_off_c, 0, 81, 0
2, 84432, Note_on_c, 0, 83, 80
2, 84476, Note_off_c, 0, 83, 0
2, 84480, Note_on_c, 0, 79, 80
2, 84524, Note_off_c, 0, 79, 0
2, 84528, Note_on_c, 0, 74, 80
2, 84572, Note_off_c, 0, 74, 0
2, 84576, Note_on_c, 0, 76, 80
2, 84620, Note_off_c, 0, 76, 0
2, 84624, Note_on_c, 0, 78, 80
2, 84668, Note_off_c, 0, 78, 0
2, 84672, Note_on_c, 0, 79, 80
2, 84716, Note_off_c, 0, 79, 0
2, 84720, Note_on_c, 0, 81, 80
2, 84764, Note_off_c, 0, 81, 0
2, 84768, Note_on_c, 0, 83, 80
2, 84812, Note_off_c, 0, 83, 0
2, 84816, Note_on_c, 0, 84, 80
2, 84860, Note_off_c, 0, 84, 0
2, 84864, Note_on_c, 0, 86, 80
2, 87732, Note_off_c, 0, 86, 0
2, 87744, Note_on_c, 0, 71, 80
2, 87924, Note_off_c, 0, 71, 0
2, 87936, Note_on_c, 0, 72, 80
2, 88116, Note_off_c, 0, 72, 0
2, 88128, Note_on_c, 0, 88, 80
2, 88308, Note_off_c, 0, 88, 0
2, 88320, Note_on_c, 0, 86, 80
2, 88410, Note_off_c, 0, 86, 0
2, 88416, Note_on_c, 0, 83, 80
2, 88596, Note_off_c, 0, 83, 0
2, 88608, Note_on_c, 0, 79, 80
2, 88698, Note_off_c, 0, 79, 0
2, 88704, Note_on_c, 0, 84, 80
2, 88794, Note_off_c, 0, 84, 0
2, 88800, Note_on_c, 0, 81, 80
2, 88980, Note_off_c, 0, 81, 0
2, 88992, Note_on_c, 0, 78, 80
2, 89082, Note_off_c, 0, 78, 0
2, 89088, Note_on_c, 0, 86, 80
2, 89132, Note_off_c, 0, 86, 0
2, 89136, Note_on_c, 0, 84, 80
2, 89180, Note_off_c, 0, 84, 0
2, 89184, Note_on_c, 0, 83, 80
2, 89228, Note_off_c, 0, 83, 0
2, 89232, Note_on_c, 0, 81, 80
2, 89276, Note_off_c, 0, 81, 0
2, 89280, Note_on_c, 0, 79, 80
2, 89324, Note_off_c, 0, 79, 0
2, 89328, Note_on_c, 0, 78, 80
2, 89372, Note_off_c, 0, 78, 0
2, 89376, Note_on_c, 0, 76, 80
2, 89420, Note_off_c, 0, 76, 0
2, 89424, Note_on_c, 0, 74, 80
2, 89468, Note_off_c, 0, 74, 0
2, 89472, Note_on_c, 0, 76, 80
2, 89516, Note_off_c, 0, 76, 0
2, 89520, Note_on_c, 0, 78, 80
2, 89564, Note_off_c, 0, 78, 0
2, 89568, Note_on_c, 0, 79, 80
2, 89612, Note_off_c, 0, 79, 0
2, 89616, Note_on_c, 0, 81, 80
2, 89660, Note_off_c, 0, 81, 0
2, 89664, Note_on_c, 0, 83, 80
2, 89708, Note_off_c, 0, 83, 0
2, 89712, Note_on_c, 0, 84, 80
2, 89756, Note_off_c, 0, 84, 0
2, 89760, Note_on_c, 0, 86, 80
2, 89804, Note_off_c, 0, 86, 0
2, 89808, Note_on_c, 0, 88, 80
2, 89852, Note_off_c, 0, 88, 0
2, 89856, Note_on_c, 0, 62, 80
2, 89918, Note_off_c, 0, 62, 0
2, 89920, Note_on_c, 0, 67, 80
2, 89982, Note_off_c, 0, 67, 0
2, 89984, Note_on_c, 0, 71, 80
2, 90046, Note_off_c, 0, 71, 0
2, 90048, Note_on_c, 0, 74, 80
2, 90110, Note_off_c, 0, 74, 0
2, 90112, Note_on_c, 0, 79, 80
2, 90174, Note_off_c, 0, 79, 0
2, 90176, Note_on_c, 0, 83, 80
2, 90238, Note_off_c, 0, 83, 0
2, 90240, Note_on_c, 0, 86, 80
2, 90430, Note_off_c, 0, 86, 0
2, 90432, Note_on_c, 0, 84, 80
2, 90478, Note_off_c, 0, 84, 0
2, 90480, Note_on_c, 0, 83, 80
2, 90526, Note_off_c, 0, 83, 0
2, 90528, Note_on_c, 0, 81, 80
2, 90574, Note_off_c, 0, 81, 0
2, 90576, Note_on_c, 0, 79, 80
2, 90622, Note_off_c, 0, 79, 0
2, 90624, Note_on_c, 0, 81, 80
2, 90648, Note_off_c, 0, 81, 0
2, 90648, Note_on_c, 0, 83, 80
2, 90672, Note_off_c, 0, 83, 0
2, 90672, Note_on_c, 0, 81, 80
2, 90696, Note_off_c, 0, 81, 0
2, 90696, Note_on_c, 0, 83, 80
2, 90720, Note_off_c, 0, 83, 0
2, 90720, Note_on_c, 0, 81, 80
2, 90744, Note_off_c, 0, 81, 0
2, 90744, Note_on_c, 0, 83, 80
2, 90768, Note_off_c, 0, 83, 0
2, 90768, Note_on_c, 0, 81, 80
2, 90792, Note_off_c, 0, 81, 0
2, 90792, Note_on_c, 0, 83, 80
2, 90816, Note_off_c, 0, 83, 0
2, 90816, Note_on_c, 0, 81, 80
2, 90840, Note_off_c, 0, 81, 0
2, 90840, Note_on_c, 0, 83, 80
2, 90864, Note_off_c, 0, 83, 0
2, 90864, Note_on_c, 0, 81, 80
2, 90888, Note_off_c, 0, 81, 0
2, 90888, Note_on_c, 0, 83, 80
2, 90912, Note_off_c, 0, 83, 0
2, 90912, Note_on_c, 0, 81, 80
2, 90936, Note_off_c, 0, 81, 0
2, 90936, Note_on_c, 0, 83, 80
2, 90960, Note_off_c, 0, 83, 0
2, 90960, Note_on_c, 0, 81, 80
2, 90984, Note_off_c, 0, 81, 0
2, 90984, Note_on_c, 0, 83, 80
2, 91008, Note_off_c, 0, 83, 0
2, 91008, Note_on_c, 0, 81, 80
2, 91032, Note_off_c, 0, 81, 0
2, 91032, Note_on_c, 0, 83, 80
2, 91056, Note_off_c, 0, 83, 0
2, 91056, Note_on_c, 0, 81, 80
2, 91080, Note_off_c, 0, 81, 0
2, 91080, Note_on_c, 0, 83, 80
2, 91104, Note_off_c, 0, 83, 0
2, 91104, Note_on_c, 0, 81, 80
2, 91128, Note_off_c, 0, 81, 0
2, 91128, Note_on_c, 0, 83, 80
2, 91152, Note_off_c, 0, 83, 0
2, 91152, Note_on_c, 0, 81, 80
2, 91176, Note_off_c, 0, 81, 0
2, 91176, Note_on_c, 0, 83, 80
2, 91200, Note_off_c, 0, 83, 0
2, 91200, Note_on_c, 0, 81, 80
2, 91224, Note_off_c, 0, 81, 0
2, 91224, Note_on_c, 0, 83, 80
2, 91248, Note_off_c, 0, 83, 0
2, 91248, Note_on_c, 0, 81, 80
2, 91272, Note_off_c, 0, 81, 0
2, 91272, Note_on_c, 0, 83, 80
2, 91296, Note_off_c, 0, 83, 0
2, 91296, Note_on_c, 0, 79, 80
2, 91342, Note_off_c, 0, 79, 0
2, 91344, Note_on_c, 0, 81, 80
2, 91390, Note_off_c, 0, 81, 0
2, 91392, Note_on_c, 0, 79, 80
2, 91582, Note_off_c, 0, 79, 0
2, 101376, Note_on_c, 0, 76, 80
2, 101658, Note_off_c, 0, 76, 0
2, 101664, Note_on_c, 0, 77, 80
2, 101708, Note_off_c, 0, 77, 0
2, 101712, Note_on_c, 0, 76, 80
2, 101756, Note_off_c, 0, 76, 0
2, 101760, Note_on_c, 0, 71, 80
2, 102042, Note_off_c, 0, 71, 0
2, 102048, Note_on_c, 0, 74, 80
2, 102138, Note_off_c, 0, 74, 0
2, 102144, Note_on_c, 0, 72, 80
2, 102234, Note_off_c, 0, 72, 0
2, 102240, Note_on_c, 0, 76, 80
2, 102330, Note_off_c, 0, 76, 0
2, 102336, Note_on_c, 0, 81, 80
2, 102426, Note_off_c, 0, 81, 0
2, 102432, Note_on_c, 0, 84, 80
2, 102522, Note_off_c, 0, 84, 0
2, 102528, Note_on_c, 0, 88, 80
2, 102810, Note_off_c, 0, 88, 0
2, 102816, Note_on_c, 0, 88, 80
2, 102906, Note_off_c, 0, 88, 0
2, 102912, Note_on_c, 0, 88, 80
2, 103002, Note_off_c, 0, 88, 0
2, 103008, Note_on_c, 0, 80, 80
2, 103098, Note_off_c, 0, 80, 0
2, 103104, Note_on_c, 0, 80, 80
2, 103284, Note_off_c, 0, 80, 0
2, 103296, Note_on_c, 0, 80, 80
2, 103386, Note_off_c, 0, 80, 0
2, 103392, Note_on_c, 0, 88, 80
2, 103482, Note_off_c, 0, 88, 0
2, 103488, Note_on_c, 0, 87, 80
2, 103578, Note_off_c, 0, 87, 0
2, 103584, Note_on_c, 0, 88, 80
2, 103674, Note_off_c, 0, 88, 0
2, 103680, Note_on_c, 0, 88, 80
2, 103770, Note_off_c, 0, 88, 0
2, 103776, Note_on_c, 0, 81, 80
2, 103866, Note_off_c, 0, 81, 0
2, 103872, Note_on_c, 0, 81, 80
2, 104052, Note_off_c, 0, 81, 0
2, 104064, Note_on_c, 0, 81, 80
2, 104154, Note_off_c, 0, 81, 0
2, 104160, Note_on_c, 0, 84, 80
2, 104250, Note_off_c, 0, 84, 0
2, 104256, Note_on_c, 0, 80, 80
2, 104346, Note_off_c, 0, 80, 0
2, 104352, Note_on_c, 0, 81, 80
2, 104442, Note_off_c, 0, 81, 0
2, 104448, Note_on_c, 0, 79, 80
2, 104492, Note_off_c, 0, 79, 0
2, 104496, Note_on_c, 0, 77, 80
2, 104540, Note_off_c, 0, 77, 0
2, 104544, Note_on_c, 0, 76, 80
2, 104588, Note_off_c, 0, 76, 0
2, 104592, Note_on_c, 0, 77, 80
2, 104636, Note_off_c, 0, 77, 0
2, 104640, Note_on_c, 0, 79, 80
2, 104684, Note_off_c, 0, 79, 0
2, 104688, Note_on_c, 0, 77, 80
2, 104732, Note_off_c, 0, 77, 0
2, 104736, Note_on_c, 0, 76, 80
2, 104780, Note_off_c, 0, 76, 0
2, 104784, Note_on_c, 0, 74, 80
2, 104828, Note_off_c, 0, 74, 0
2, 104832, Note_on_c, 0, 72, 80
2, 105012, Note_off_c, 0, 72, 0
2, 105024, Note_on_c, 0, 71, 80
2, 105044, Note_off_c, 0, 71, 0
2, 105048, Note_on_c, 0, 72, 80
2, 105068, Note_off_c, 0, 72, 0
2, 105072, Note_on_c, 0, 71, 80
2, 105092, Note_off_c, 0, 71, 0
2, 105096, Note_on_c, 0, 72, 80
2, 105116, Note_off_c, 0, 72, 0
2, 105120, Note_on_c, 0, 71, 80
2, 105140, Note_off_c, 0, 71, 0
2, 105144, Note_on_c, 0, 72, 80
2, 105164, Note_off_c, 0, 72, 0
2, 105168, Note_on_c, 0, 69, 80
2, 105188, Note_off_c, 0, 69, 0
2, 105192, Note_on_c, 0, 71, 80
2, 105212, Note_off_c, 0, 71, 0
2, 105216, Note_on_c, 0, 69, 80
2, 105306, Note_off_c, 0, 69, 0
2, 105312, Note_on_c, 0, 84, 80
2, 105402, Note_off_c, 0, 84, 0
2, 105408, Note_on_c, 0, 71, 80
2, 105498, Note_off_c, 0, 71, 0
2, 105504, Note_on_c, 0, 86, 80
2, 105594, Note_off_c, 0, 86, 0
2, 105600, Note_on_c, 0, 72, 80
2, 105690, Note_off_c, 0, 72, 0
2, 105696, Note_on_c, 0, 88, 80
2, 105786, Note_off_c, 0, 88, 0
2, 105792, Note_on_c, 0, 86, 80
2, 105836, Note_off_c, 0, 86, 0
2, 105840, Note_on_c, 0, 84, 80
2, 105884, Note_off_c, 0, 84, 0
2, 105888, Note_on_c, 0, 83, 80
2, 105932, Note_off_c, 0, 83, 0
2, 105936, Note_on_c, 0, 81, 80
2, 105980, Note_off_c, 0, 81, 0
2, 105984, Note_on_c, 0, 80, 80
2, 106028, Note_off_c, 0, 80, 0
2, 106032, Note_on_c, 0, 81, 80
2, 106076, Note_off_c, 0, 81, 0
2, 106080, Note_on_c, 0, 80, 80
2, 106124, Note_off_c, 0, 80, 0
2, 106128, Note_on_c, 0, 81, 80
2, 106172, Note_off_c, 0, 81, 0
2, 106176, Note_on_c, 0, 79, 80
2, 106220, Note_off_c, 0, 79, 0
2, 106224, Note_on_c, 0, 77, 80
2, 106268, Note_off_c, 0, 77, 0
2, 106272, Note_on_c, 0, 76, 80
2, 106316, Note_off_c, 0, 76, 0
2, 106320, Note_on_c, 0, 74, 80
2, 106364, Note_off_c, 0, 74, 0
2, 106368, Note_on_c, 0, 72, 80
2, 106548, Note_off_c, 0, 72, 0
2, 106560, Note_on_c, 0, 71, 80
2, 106580, Note_off_c, 0, 71, 0
2, 106584, Note_on_c, 0, 72, 80
2, 106604, Note_off_c, 0, 72, 0
2, 106608, Note_on_c, 0, 71, 80
2, 106628, Note_off_c, 0, 71, 0
2, 106632, Note_on_c, 0, 72, 80
2, 106652, Note_off_c, 0, 72, 0
2, 106656, Note_on_c, 0, 71, 80
2, 106676, Note_off_c, 0, 71, 0
2, 106680, Note_on_c, 0, 72, 80
2, 106700, Note_off_c, 0, 72, 0
2, 106704, Note_on_c, 0, 69, 80
2, 106724, Note_off_c, 0, 69, 0
2, 106728, Note_on_c, 0, 71, 80
2, 106748, Note_off_c, 0, 71, 0
2, 106752, Note_on_c, 0, 69, 80
2, 106932, Note_off_c, 0, 69, 0
2, 109056, Note_on_c, 0, 81, 80
2, 109338, Note_off_c, 0, 81, 0
2, 109344, Note_on_c, 0, 82, 80
2, 109388, Note_off_c, 0, 82, 0
2, 109392, Note_on_c, 0, 81, 80
2, 109436, Note_off_c, 0, 81, 0
2, 109440, Note_on_c, 0, 76, 80
2, 109722, Note_off_c, 0, 76, 0
2, 109728, Note_on_c, 0, 79, 80
2, 109818, Note_off_c, 0, 79, 0
2, 109824, Note_on_c, 0, 77, 80
2, 109868, Note_off_c, 0, 77, 0
2, 109872, Note_on_c, 0, 81, 80
2, 109916, Note_off_c, 0, 81, 0
2, 109920, Note_on_c, 0, 80, 80
2, 109964, Note_off_c, 0, 80, 0
2, 109968, Note_on_c, 0, 81, 80
2, 110012, Note_off_c, 0, 81, 0
2, 110016, Note_on_c, 0, 80, 80
2, 110060, Note_off_c, 0, 80, 0
2, 110064, Note_on_c, 0, 81, 80
2, 110108, Note_off_c, 0, 81, 0
2, 110112, Note_on_c, 0, 80, 80
2, 110156, Note_off_c, 0, 80, 0
2, 110160, Note_on_c, 0, 81, 80
2, 110204, Note_off_c, 0, 81, 0
2, 110208, Note_on_c, 0, 80, 80
2, 110252, Note_off_c, 0, 80, 0
2, 110256, Note_on_c, 0, 81, 80
2, 110300, Note_off_c, 0, 81, 0
2, 110304, Note_on_c, 0, 80, 80
2, 110348, Note_off_c, 0, 80, 0
2, 110352, Note_on_c, 0, 81, 80
2, 110396, Note_off_c, 0, 81, 0
2, 110400, Note_on_c, 0, 80, 80
2, 110444, Note_off_c, 0, 80, 0
2, 110448, Note_on_c, 0, 77, 80
2, 110492, Note_off_c, 0, 77, 0
2, 110496, Note_on_c, 0, 76, 80
2, 110540, Note_off_c, 0, 76, 0
2, 110544, Note_on_c, 0, 74, 80
2, 110588, Note_off_c, 0, 74, 0
2, 110592, Note_on_c, 0, 74, 80
2, 110682, Note_off_c, 0, 74, 0
2, 110688, Note_on_c, 0, 73, 80
2, 110778, Note_off_c, 0, 73, 0
2, 110784, Note_on_c, 0, 73, 80
2, 110964, Note_off_c, 0, 73, 0
2, 110976, Note_on_c, 0, 73, 80
2, 111066, Note_off_c, 0, 73, 0
2, 111072, Note_on_c, 0, 82, 80
2, 111162, Note_off_c, 0, 82, 0
2, 111168, Note_on_c, 0, 81, 80
2, 111258, Note_off_c, 0, 81, 0
2, 111264, Note_on_c, 0, 73, 80
2, 111354, Note_off_c, 0, 73, 0
2, 111360, Note_on_c, 0, 74, 80
2, 111450, Note_off_c, 0, 74, 0
2, 111456, Note_on_c, 0, 76, 80
2, 111500, Note_off_c, 0, 76, 0
2, 111504, Note_on_c, 0, 77, 80
2, 111548, Note_off_c, 0, 77, 0
2, 111552, Note_on_c, 0, 79, 80
2, 111596, Note_off_c, 0, 79, 0
2, 111600, Note_on_c, 0, 81, 80
2, 111644, Note_off_c, 0, 81, 0
2, 111648, Note_on_c, 0, 83, 80
2, 111692, Note_off_c, 0, 83, 0
2, 111696, Note_on_c, 0, 85, 80
2, 111740, Note_off_c, 0, 85, 0
2, 111744, Note_on_c, 0, 86, 80
2, 111834, Note_off_c, 0, 86, 0
2, 111840, Note_on_c, 0, 86, 80
2, 111930, Note_off_c, 0, 86, 0
2, 111936, Note_on_c, 0, 86, 80
2, 112026, Note_off_c, 0, 86, 0
2, 112032, Note_on_c, 0, 86, 80
2, 112122, Note_off_c, 0, 86, 0
2, 112128, Note_on_c, 0, 76, 80
2, 112308, Note_off_c, 0, 76, 0
2, 112320, Note_on_c, 0, 81, 80
2, 112364, Note_off_c, 0, 81, 0
2, 112368, Note_on_c, 0, 79, 80
2, 112412, Note_off_c, 0, 79, 0
2, 112416, Note_on_c, 0, 77, 80
2, 112460, Note_off_c, 0, 77, 0
2, 112464, Note_on_c, 0, 76, 80
2, 112508, Note_off_c, 0, 76, 0
2, 112512, Note_on_c, 0, 74, 80
2, 112692, Note_off_c, 0, 74, 0
2, 112704, Note_on_c, 0, 73, 80
2, 112884, Note_off_c, 0, 73, 0
2, 112896, Note_on_c, 0, 62, 80
2, 112986, Note_off_c, 0, 62, 0
2, 112992, Note_on_c, 0, 77, 80
2, 113082, Note_off_c, 0, 77, 0
2, 113088, Note_on_c, 0, 64, 80
2, 113178, Note_off_c, 0, 64, 0
2, 113184, Note_on_c, 0, 79, 80
2, 113274, Note_off_c, 0, 79, 0
2, 113280, Note_on_c, 0, 65, 80
2, 113370, Note_off_c, 0, 65, 0
2, 113376, Note_on_c, 0, 81, 80
2, 113466, Note_off_c, 0, 81, 0
2, 113472, Note_on_c, 0, 79, 80
2, 113516, Note_off_c, 0, 79, 0
2, 113520, Note_on_c, 0, 77, 80
2, 113564, Note_off_c, 0, 77, 0
2, 113568, Note_on_c, 0, 76, 80
2, 113612, Note_off_c, 0, 76, 0
2, 113616, Note_on_c, 0, 74, 80
2, 113660, Note_off_c, 0, 74, 0
2, 113664, Note_on_c, 0, 67, 80
2, 113754, Note_off_c, 0, 67, 0
2, 113760, Note_on_c, 0, 86, 80
2, 113850, Note_off_c, 0, 86, 0
2, 113856, Note_on_c, 0, 84, 80
2, 113900, Note_off_c, 0, 84, 0
2, 113904, Note_on_c, 0, 82, 80
2, 113948, Note_off_c, 0, 82, 0
2, 113952, Note_on_c, 0, 81, 80
2, 113996, Note_off_c, 0, 81, 0
2, 114000, Note_on_c, 0, 79, 80
2, 114044, Note_off_c, 0, 79, 0
2, 114048, Note_on_c, 0, 77, 80
2, 114228, Note_off_c, 0, 77, 0
2, 114240, Note_on_c, 0, 76, 80
2, 114264, Note_off_c, 0, 76, 0
2, 114264, Note_on_c, 0, 77, 80
2, 114288, Note_off_c, 0, 77, 0
2, 114288, Note_on_c, 0, 76, 80
2, 114312, Note_off_c, 0, 76, 0
2, 114312, Note_on_c, 0, 77, 80
2, 114336, Note_off_c, 0, 77, 0
2, 114336, Note_on_c, 0, 76, 80
2, 114360, Note_off_c, 0, 76, 0
2, 114360, Note_on_c, 0, 77, 80
2, 114384, Note_off_c, 0, 77, 0
2, 114384, Note_on_c, 0, 74, 80
2, 114408, Note_off_c, 0, 74, 0
2, 114408, Note_on_c, 0, 76, 80
2, 114432, Note_off_c, 0, 76, 0
2, 114432, Note_on_c, 0, 74, 80
2, 114804, Note_off_c, 0, 74, 0
2, 114808, Note_on_c, 0, 62, 80
2, 115564, Note_off_c, 0, 62, 0
2, 115584, Note_on_c, 0, 61, 80
2, 115956, Note_off_c, 0, 61, 0
2, 115968, Note_on_c, 0, 60, 80
2, 116724, Note_off_c, 0, 60, 0
2, 116832, Note_on_c, 0, 81, 80
2, 116922, Note_off_c, 0, 81, 0
2, 116928, Note_on_c, 0, 81, 80
2, 117018, Note_off_c, 0, 81, 0
2, 117024, Note_on_c, 0, 81, 80
2, 117114, Note_off_c, 0, 81, 0
2, 117120, Note_on_c, 0, 83, 80
2, 117164, Note_off_c, 0, 83, 0
2, 117168, Note_on_c, 0, 81, 80
2, 117212, Note_off_c, 0, 81, 0
2, 117216, Note_on_c, 0, 80, 80
2, 117260, Note_off_c, 0, 80, 0
2, 117264, Note_on_c, 0, 81, 80
2, 117308, Note_off_c, 0, 81, 0
2, 117312, Note_on_c, 0, 83, 80
2, 117356, Note_off_c, 0, 83, 0
2, 117360, Note_on_c, 0, 81, 80
2, 117404, Note_off_c, 0, 81, 0
2, 117408, Note_on_c, 0, 80, 80
2, 117452, Note_off_c, 0, 80, 0
2, 117456, Note_on_c, 0, 81, 80
2, 117500, Note_off_c, 0, 81, 0
2, 117504, Note_on_c, 0, 80, 80
2, 117594, Note_off_c, 0, 80, 0
2, 117600, Note_on_c, 0, 80, 80
2, 117690, Note_off_c, 0, 80, 0
2, 117696, Note_on_c, 0, 80, 80
2, 117786, Note_off_c, 0, 80, 0
2, 117792, Note_on_c, 0, 80, 80
2, 117882, Note_off_c, 0, 80, 0
2, 117888, Note_on_c, 0, 80, 80
2, 117932, Note_off_c, 0, 80, 0
2, 117936, Note_on_c, 0, 81, 80
2, 117980, Note_off_c, 0, 81, 0
2, 117984, Note_on_c, 0, 83, 80
2, 118028, Note_off_c, 0, 83, 0
2, 118032, Note_on_c, 0, 81, 80
2, 118076, Note_off_c, 0, 81, 0
2, 118080, Note_on_c, 0, 80, 80
2, 118124, Note_off_c, 0, 80, 0
2, 118128, Note_on_c, 0, 81, 80
2, 118172, Note_off_c, 0, 81, 0
2, 118176, Note_on_c, 0, 83, 80
2, 118220, Note_off_c, 0, 83, 0
2, 118224, Note_on_c, 0, 81, 80
2, 118268, Note_off_c, 0, 81, 0
2, 118272, Note_on_c, 0, 80, 80
2, 118362, Note_off_c, 0, 80, 0
2, 118368, Note_on_c, 0, 86, 80
2, 118458, Note_off_c, 0, 86, 0
2, 118464, Note_on_c, 0, 86, 80
2, 118554, Note_off_c, 0, 86, 0
2, 118560, Note_on_c, 0, 86, 80
2, 118650, Note_off_c, 0, 86, 0
2, 118656, Note_on_c, 0, 86, 80
2, 118700, Note_off_c, 0, 86, 0
2, 118704, Note_on_c, 0, 85, 80
2, 118748, Note_off_c, 0, 85, 0
2, 118752, Note_on_c, 0, 86, 80
2, 118796, Note_off_c, 0, 86, 0
2, 118800, Note_on_c, 0, 85, 80
2, 118844, Note_off_c, 0, 85, 0
2, 118848, Note_on_c, 0, 86, 80
2, 118892, Note_off_c, 0, 86, 0
2, 118896, Note_on_c, 0, 83, 80
2, 118940, Note_off_c, 0, 83, 0
2, 118944, Note_on_c, 0, 81, 80
2, 118988, Note_off_c, 0, 81, 0
2, 118992, Note_on_c, 0, 80, 80
2, 119036, Note_off_c, 0, 80, 0
2, 119040, Note_on_c, 0, 81, 80
2, 119412, Note_off_c, 0, 81, 0
2, 119424, Note_on_c, 0, 69, 80
2, 120180, Note_off_c, 0, 69, 0
2, 120192, Note_on_c, 0, 68, 80
2, 120564, Note_off_c, 0, 68, 0
2, 120576, Note_on_c, 0, 67, 80
2, 122100, Note_off_c, 0, 67, 0
2, 122112, Note_on_c, 0, 67, 80
2, 122156, Note_off_c, 0, 67, 0
2, 122160, Note_on_c, 0, 79, 80
2, 123644, Note_off_c, 0, 79, 0
2, 123696, Note_on_c, 0, 79, 80
2, 123740, Note_off_c, 0, 79, 0
2, 123744, Note_on_c, 0, 78, 80
2, 123788, Note_off_c, 0, 78, 0
2, 123792, Note_on_c, 0, 79, 80
2, 123836, Note_off_c, 0, 79, 0
2, 123840, Note_on_c, 0, 80, 80
2, 123884, Note_off_c, 0, 80, 0
2, 123888, Note_on_c, 0, 79, 80
2, 123932, Note_off_c, 0, 79, 0
2, 123936, Note_on_c, 0, 78, 80
2, 123980, Note_off_c, 0, 78, 0
2, 123984, Note_on_c, 0, 79, 80
2, 124028, Note_off_c, 0, 79, 0
2, 124032, Note_on_c, 0, 77, 80
2, 124076, Note_off_c, 0, 77, 0
2, 124080, Note_on_c, 0, 75, 80
2, 124124, Note_off_c, 0, 75, 0
2, 124128, Note_on_c, 0, 74, 80
2, 124172, Note_off_c, 0, 74, 0
2, 124176, Note_on_c, 0, 75, 80
2, 124220, Note_off_c, 0, 75, 0
2, 124224, Note_on_c, 0, 74, 80
2, 124268, Note_off_c, 0, 74, 0
2, 124272, Note_on_c, 0, 72, 80
2, 124316, Note_off_c, 0, 72, 0
2, 124320, Note_on_c, 0, 71, 80
2, 124364, Note_off_c, 0, 71, 0
2, 124368, Note_on_c, 0, 72, 80
2, 124412, Note_off_c, 0, 72, 0
2, 124416, Note_on_c, 0, 71, 80
2, 124460, Note_off_c, 0, 71, 0
2, 124464, Note_on_c, 0, 79, 80
2, 124508, Note_off_c, 0, 79, 0
2, 124512, Note_on_c, 0, 78, 80
2, 124556, Note_off_c, 0, 78, 0
2, 124560, Note_on_c, 0, 79, 80
2, 124604, Note_off_c, 0, 79, 0
2, 124608, Note_on_c, 0, 80, 80
2, 124652, Note_off_c, 0, 80, 0
2, 124656, Note_on_c, 0, 79, 80
2, 124700, Note_off_c, 0, 79, 0
2, 124704, Note_on_c, 0, 78, 80
2, 124748, Note_off_c, 0, 78, 0
2, 124752, Note_on_c, 0, 79, 80
2, 124796, Note_off_c, 0, 79, 0
2, 124800, Note_on_c, 0, 77, 80
2, 124844, Note_off_c, 0, 77, 0
2, 124848, Note_on_c, 0, 75, 80
2, 124892, Note_off_c, 0, 75, 0
2, 124896, Note_on_c, 0, 74, 80
2, 124940, Note_off_c, 0, 74, 0
2, 124944, Note_on_c, 0, 75, 80
2, 124988, Note_off_c, 0, 75, 0
2, 124992, Note_on_c, 0, 74, 80
2, 125036, Note_off_c, 0, 74, 0
2, 125040, Note_on_c, 0, 72, 80
2, 125084, Note_off_c, 0, 72, 0
2, 125088, Note_on_c, 0, 71, 80
2, 125132, Note_off_c, 0, 71, 0
2, 125136, Note_on_c, 0, 72, 80
2, 125180, Note_off_c, 0, 72, 0
2, 125184, Note_on_c, 0, 71, 80
2, 125364, Note_off_c, 0, 71, 0
2, 125568, Note_on_c, 0, 72, 80
2, 125614, Note_off_c, 0, 72, 0
2, 125616, Note_on_c, 0, 84, 80
2, 125854, Note_off_c, 0, 84, 0
2, 125856, Note_on_c, 0, 75, 80
2, 125950, Note_off_c, 0, 75, 0
2, 125952, Note_on_c, 0, 74, 80
2, 126142, Note_off_c, 0, 74, 0
2, 126336, Note_on_c, 0, 72, 80
2, 126382, Note_off_c, 0, 72, 0
2, 126384, Note_on_c, 0, 84, 80
2, 126622, Note_off_c, 0, 84, 0
2, 126624, Note_on_c, 0, 75, 80
2, 126718, Note_off_c, 0, 75, 0
2, 126720, Note_on_c, 0, 74, 80
2, 126744, Note_off_c, 0, 74, 0
2, 126744, Note_on_c, 0, 76, 80
2, 126768, Note_off_c, 0, 76, 0
2, 126768, Note_on_c, 0, 74, 80
2, 126792, Note_off_c, 0, 74, 0
2, 126792, Note_on_c, 0, 76, 80
2, 126816, Note_off_c, 0, 76, 0
2, 126816, Note_on_c, 0, 74, 80
2, 126840, Note_off_c, 0, 74, 0
2, 126840, Note_on_c, 0, 76, 80
2, 126864, Note_off_c, 0, 76, 0
2, 126864, Note_on_c, 0, 74, 80
2, 126888, Note_off_c, 0, 74, 0
2, 126888, Note_on_c, 0, 76, 80
2, 126912, Note_off_c, 0, 76, 0
2, 126912, Note_on_c, 0, 74, 80
2, 126936, Note_off_c, 0, 74, 0
2, 126936, Note_on_c, 0, 76, 80
2, 126960, Note_off_c, 0, 76, 0
2, 126960, Note_on_c, 0, 74, 80
2, 126984, Note_off_c, 0, 74, 0
2, 126984, Note_on_c, 0, 76, 80
2, 127008, Note_off_c, 0, 76, 0
2, 127008, Note_on_c, 0, 72, 80
2, 127054, Note_off_c, 0, 72, 0
2, 127056, Note_on_c, 0, 74, 80
2, 127102, Note_off_c, 0, 74, 0
2, 127104, Note_on_c, 0, 76, 80
2, 127128, Note_off_c, 0, 76, 0
2, 127128, Note_on_c, 0, 77, 80
2, 127152, Note_off_c, 0, 77, 0
2, 127152, Note_on_c, 0, 76, 80
2, 127176, Note_off_c, 0, 76, 0
2, 127176, Note_on_c, 0, 77, 80
2, 127200, Note_off_c, 0, 77, 0
2, 127200, Note_on_c, 0, 76, 80
2, 127224, Note_off_c, 0, 76, 0
2, 127224, Note_on_c, 0, 77, 80
2, 127248, Note_off_c, 0, 77, 0
2, 127248, Note_on_c, 0, 76, 80
2, 127272, Note_off_c, 0, 76, 0
2, 127272, Note_on_c, 0, 77, 80
2, 127296, Note_off_c, 0, 77, 0
2, 127296, Note_on_c, 0, 76, 80
2, 127320, Note_off_c, 0, 76, 0
2, 127320, Note_on_c, 0, 77, 80
2, 127344, Note_off_c, 0, 77, 0
2, 127344, Note_on_c, 0, 76, 80
2, 127368, Note_off_c, 0, 76, 0
2, 127368, Note_on_c, 0, 77, 80
2, 127392, Note_off_c, 0, 77, 0
2, 127392, Note_on_c, 0, 74, 80
2, 127438, Note_off_c, 0, 74, 0
2, 127440, Note_on_c, 0, 76, 80
2, 127486, Note_off_c, 0, 76, 0
2, 127488, Note_on_c, 0, 77, 80
2, 127512, Note_off_c, 0, 77, 0
2, 127512, Note_on_c, 0, 79, 80
2, 127536, Note_off_c, 0, 79, 0
2, 127536, Note_on_c, 0, 77, 80
2, 127560, Note_off_c, 0, 77, 0
2, 127560, Note_on_c, 0, 79, 80
2, 127584, Note_off_c, 0, 79, 0
2, 127584, Note_on_c, 0, 77, 80
2, 127608, Note_off_c, 0, 77, 0
2, 127608, Note_on_c, 0, 79, 80
2, 127632, Note_off_c, 0, 79, 0
2, 127632, Note_on_c, 0, 77, 80
2, 127656, Note_off_c, 0, 77, 0
2, 127656, Note_on_c, 0, 79, 80
2, 127680, Note_off_c, 0, 79, 0
2, 127680, Note_on_c, 0, 77, 80
2, 127704, Note_off_c, 0, 77, 0
2, 127704, Note_on_c, 0, 79, 80
2, 127728, Note_off_c, 0, 79, 0
2, 127728, Note_on_c, 0, 77, 80
2, 127752, Note_off_c, 0, 77, 0
2, 127752, Note_on_c, 0, 79, 80
2, 127776, Note_off_c, 0, 79, 0
2, 127776, Note_on_c, 0, 76, 80
2, 127822, Note_off_c, 0, 76, 0
2, 127824, Note_on_c, 0, 77, 80
2, 127870, Note_off_c, 0, 77, 0
2, 127872, Note_on_c, 0, 79, 80
2, 127896, Note_off_c, 0, 79, 0
2, 127896, Note_on_c, 0, 81, 80
2, 127920, Note_off_c, 0, 81, 0
2, 127920, Note_on_c, 0, 79, 80
2, 127944, Note_off_c, 0, 79, 0
2, 127944, Note_on_c, 0, 81, 80
2, 127968, Note_off_c, 0, 81, 0
2, 127968, Note_on_c, 0, 79, 80
2, 127992, Note_off_c, 0, 79, 0
2, 127992, Note_on_c, 0, 81, 80
2, 128016, Note_off_c, 0, 81, 0
2, 128016, Note_on_c, 0, 79, 80
2, 128040, Note_off_c, 0, 79, 0
2, 128040, Note_on_c, 0, 81, 80
2, 128064, Note_off_c, 0, 81, 0
2, 128064, Note_on_c, 0, 79, 80
2, 128088, Note_off_c, 0, 79, 0
2, 128088, Note_on_c, 0, 81, 80
2, 128112, Note_off_c, 0, 81, 0
2, 128112, Note_on_c, 0, 79, 80
2, 128136, Note_off_c, 0, 79, 0
2, 128136, Note_on_c, 0, 81, 80
2, 128160, Note_off_c, 0, 81, 0
2, 128160, Note_on_c, 0, 77, 80
2, 128206, Note_off_c, 0, 77, 0
2, 128208, Note_on_c, 0, 79, 80
2, 128254, Note_off_c, 0, 79, 0
2, 128256, Note_on_c, 0, 81, 80
2, 128280, Note_off_c, 0, 81, 0
2, 128280, Note_on_c, 0, 83, 80
2, 128304, Note_off_c, 0, 83, 0
2, 128304, Note_on_c, 0, 81, 80
2, 128328, Note_off_c, 0, 81, 0
2, 128328, Note_on_c, 0, 83, 80
2, 128352, Note_off_c, 0, 83, 0
2, 128352, Note_on_c, 0, 81, 80
2, 128376, Note_off_c, 0, 81, 0
2, 128376, Note_on_c, 0, 83, 80
2, 128400, Note_off_c, 0, 83, 0
2, 128400, Note_on_c, 0, 81, 80
2, 128424, Note_off_c, 0, 81, 0
2, 128424, Note_on_c, 0, 83, 80
2, 128448, Note_off_c, 0, 83, 0
2, 128448, Note_on_c, 0, 81, 80
2, 128472, Note_off_c, 0, 81, 0
2, 128472, Note_on_c, 0, 83, 80
2, 128496, Note_off_c, 0, 83, 0
2, 128496, Note_on_c, 0, 81, 80
2, 128520, Note_off_c, 0, 81, 0
2, 128520, Note_on_c, 0, 83, 80
2, 128544, Note_off_c, 0, 83, 0
2, 128544, Note_on_c, 0, 79, 80
2, 128590, Note_off_c, 0, 79, 0
2, 128592, Note_on_c, 0, 81, 80
2, 128638, Note_off_c, 0, 81, 0
2, 128640, Note_on_c, 0, 83, 80
2, 128664, Note_off_c, 0, 83, 0
2, 128664, Note_on_c, 0, 84, 80
2, 128688, Note_off_c, 0, 84, 0
2, 128688, Note_on_c, 0, 83, 80
2, 128712, Note_off_c, 0, 83, 0
2, 128712, Note_on_c, 0, 84, 80
2, 128736, Note_off_c, 0, 84, 0
2, 128736, Note_on_c, 0, 83, 80
2, 128760, Note_off_c, 0, 83, 0
2, 128760, Note_on_c, 0, 84, 80
2, 128784, Note_off_c, 0, 84, 0
2, 128784, Note_on_c, 0, 83, 80
2, 128808, Note_off_c, 0, 83, 0
2, 128808, Note_on_c, 0, 84, 80
2, 128832, Note_off_c, 0, 84, 0
2, 128832, Note_on_c, 0, 83, 80
2, 128856, Note_off_c, 0, 83, 0
2, 128856, Note_on_c, 0, 84, 80
2, 128880, Note_off_c, 0, 84, 0
2, 128880, Note_on_c, 0, 83, 80
2, 128904, Note_off_c, 0, 83, 0
2, 128904, Note_on_c, 0, 84, 80
2, 128928, Note_off_c, 0, 84, 0
2, 128928, Note_on_c, 0, 81, 80
2, 128974, Note_off_c, 0, 81, 0
2, 128976, Note_on_c, 0, 83, 80
2, 129022, Note_off_c, 0, 83, 0
2, 129024, Note_on_c, 0, 84, 80
2, 129310, Note_off_c, 0, 84, 0
2, 133824, Note_on_c, 0, 72, 80
2, 133914, Note_off_c, 0, 72, 0
2, 133920, Note_on_c, 0, 84, 80
2, 134010, Note_off_c, 0, 84, 0
2, 134016, Note_on_c, 0, 71, 80
2, 134106, Note_off_c, 0, 71, 0
2, 134112, Note_on_c, 0, 83, 80
2, 134202, Note_off_c, 0, 83, 0
2, 134208, Note_on_c, 0, 72, 80
2, 134298, Note_off_c, 0, 72, 0
2, 134304, Note_on_c, 0, 84, 80
2, 134394, Note_off_c, 0, 84, 0
2, 134400, Note_on_c, 0, 86, 80
2, 134580, Note_off_c, 0, 86, 0
2, 134592, Note_on_c, 0, 74, 80
2, 134682, Note_off_c, 0, 74, 0
2, 134688, Note_on_c, 0, 86, 80
2, 134778, Note_off_c, 0, 86, 0
2, 134784, Note_on_c, 0, 73, 80
2, 134874, Note_off_c, 0, 73, 0
2, 134880, Note_on_c, 0, 85, 80
2, 134970, Note_off_c, 0, 85, 0
2, 134976, Note_on_c, 0, 74, 80
2, 135066, Note_off_c, 0, 74, 0
2, 135072, Note_on_c, 0, 86, 80
2, 135162, Note_off_c, 0, 86, 0
2, 135168, Note_on_c, 0, 88, 80
2, 135348, Note_off_c, 0, 88, 0
2, 135360, Note_on_c, 0, 64, 80
2, 135450, Note_off_c, 0, 64, 0
2, 135456, Note_on_c, 0, 76, 80
2, 135546, Note_off_c, 0, 76, 0
2, 135552, Note_on_c, 0, 63, 80
2, 135642, Note_off_c, 0, 63, 0
2, 135648, Note_on_c, 0, 75, 80
2, 135738, Note_off_c, 0, 75, 0
2, 135744, Note_on_c, 0, 64, 80
2, 135834, Note_off_c, 0, 64, 0
2, 135840, Note_on_c, 0, 76, 80
2, 135930, Note_off_c, 0, 76, 0
2, 135936, Note_on_c, 0, 65, 80
2, 136026, Note_off_c, 0, 65, 0
2, 136032, Note_on_c, 0, 77, 80
2, 136122, Note_off_c, 0, 77, 0
2, 136128, Note_on_c, 0, 67, 80
2, 136218, Note_off_c, 0, 67, 0
2, 136224, Note_on_c, 0, 79, 80
2, 136314, Note_off_c, 0, 79, 0
2, 136320, Note_on_c, 0, 69, 80
2, 136410, Note_off_c, 0, 69, 0
2, 136416, Note_on_c, 0, 81, 80
2, 136506, Note_off_c, 0, 81, 0
2, 136512, Note_on_c, 0, 71, 80
2, 136602, Note_off_c, 0, 71, 0
2, 136608, Note_on_c, 0, 83, 80
2, 136698, Note_off_c, 0, 83, 0
2, 136704, Note_on_c, 0, 84, 80
2, 137460, Note_off_c, 0, 84, 0
2, 137472, Note_on_c, 0, 79, 80
2, 138228, Note_off_c, 0, 79, 0
2, 138240, Note_on_c, 0, 72, 80
2, 138996, Note_off_c, 0, 72, 0
2, 139008, Note_on_c, 0, 67, 80
2, 139764, Note_off_c, 0, 67, 0
2, 139776, Note_on_c, 0, 72, 80
2, 139866, Note_off_c, 0, 72, 0
2, 139872, Note_on_c, 0, 88, 80
2, 140052, Note_off_c, 0, 88, 0
2, 140064, Note_on_c, 0, 86, 80
2, 140154, Note_off_c, 0, 86, 0
2, 140160, Note_on_c, 0, 69, 80
2, 140250, Note_off_c, 0, 69, 0
2, 140264, Note_on_c, 0, 84, 80
2, 140444, Note_off_c, 0, 84, 0
2, 140448, Note_on_c, 0, 83, 80
2, 140538, Note_off_c, 0, 83, 0
2, 140544, Note_on_c, 0, 65, 80
2, 140634, Note_off_c, 0, 65, 0
2, 140640, Note_on_c, 0, 81, 80
2, 140820, Note_off_c, 0, 81, 0
2, 140832, Note_on_c, 0, 79, 80
2, 140922, Note_off_c, 0, 79, 0
2, 140928, Note_on_c, 0, 77, 80
2, 141018, Note_off_c, 0, 77, 0
2, 141024, Note_on_c, 0, 76, 80
2, 141114, Note_off_c, 0, 76, 0
2, 141120, Note_on_c, 0, 74, 80
2, 141210, Note_off_c, 0, 74, 0
2, 141216, Note_on_c, 0, 72, 80
2, 141306, Note_off_c, 0, 72, 0
2, 141312, Note_on_c, 0, 79, 80
2, 142068, Note_off_c, 0, 79, 0
2, 142080, Note_on_c, 0, 79, 80
2, 142170, Note_off_c, 0, 79, 0
2, 142176, Note_on_c, 0, 79, 80
2, 142266, Note_off_c, 0, 79, 0
2, 142272, Note_on_c, 0, 81, 80
2, 142362, Note_off_c, 0, 81, 0
2, 142368, Note_on_c, 0, 83, 80
2, 142458, Note_off_c, 0, 83, 0
2, 142464, Note_on_c, 0, 84, 80
2, 142554, Note_off_c, 0, 84, 0
2, 142560, Note_on_c, 0, 86, 80
2, 142650, Note_off_c, 0, 86, 0
2, 142656, Note_on_c, 0, 88, 80
2, 142746, Note_off_c, 0, 88, 0
2, 142752, Note_on_c, 0, 90, 80
2, 142842, Note_off_c, 0, 90, 0
2, 142848, Note_on_c, 0, 91, 80
2, 143130, Note_off_c, 0, 91, 0
2, 144384, Note_on_c, 0, 67, 80
2, 144474, Note_off_c, 0, 67, 0
2, 144480, Note_on_c, 0, 79, 80
2, 144762, Note_off_c, 0, 79, 0
2, 144768, Note_on_c, 0, 76, 80
2, 144812, Note_off_c, 0, 76, 0
2, 144816, Note_on_c, 0, 77, 80
2, 144860, Note_off_c, 0, 77, 0
2, 144864, Note_on_c, 0, 76, 80
2, 144908, Note_off_c, 0, 76, 0
2, 144912, Note_on_c, 0, 74, 80
2, 144956, Note_off_c, 0, 74, 0
2, 144960, Note_on_c, 0, 76, 80
2, 145050, Note_off_c, 0, 76, 0
2, 145056, Note_on_c, 0, 77, 80
2, 145146, Note_off_c, 0, 77, 0
2, 145152, Note_on_c, 0, 81, 80
2, 145242, Note_off_c, 0, 81, 0
2, 145248, Note_on_c, 0, 79, 80
2, 145338, Note_off_c, 0, 79, 0
2, 145344, Note_on_c, 0, 79, 80
2, 145716, Note_off_c, 0, 79, 0
2, 145728, Note_on_c, 0, 77, 80
2, 145772, Note_off_c, 0, 77, 0
2, 145776, Note_on_c, 0, 76, 80
2, 145820, Note_off_c, 0, 76, 0
2, 145824, Note_on_c, 0, 74, 80
2, 145868, Note_off_c, 0, 74, 0
2, 145872, Note_on_c, 0, 72, 80
2, 145916, Note_off_c, 0, 72, 0
2, 145920, Note_on_c, 0, 72, 80
2, 146010, Note_off_c, 0, 72, 0
2, 146016, Note_on_c, 0, 81, 80
2, 146106, Note_off_c, 0, 81, 0
2, 146112, Note_on_c, 0, 81, 80
2, 146292, Note_off_c, 0, 81, 0
2, 146304, Note_on_c, 0, 81, 80
2, 146394, Note_off_c, 0, 81, 0
2, 146400, Note_on_c, 0, 83, 80
2, 146444, Note_off_c, 0, 83, 0
2, 146448, Note_on_c, 0, 84, 80
2, 146492, Note_off_c, 0, 84, 0
2, 146496, Note_on_c, 0, 83, 80
2, 146586, Note_off_c, 0, 83, 0
2, 146592, Note_on_c, 0, 81, 80
2, 146682, Note_off_c, 0, 81, 0
2, 146688, Note_on_c, 0, 79, 80
2, 146868, Note_off_c, 0, 79, 0
2, 146880, Note_on_c, 0, 72, 80
2, 147060, Note_off_c, 0, 72, 0
2, 147072, Note_on_c, 0, 74, 80
2, 147252, Note_off_c, 0, 74, 0
2, 147264, Note_on_c, 0, 74, 80
2, 147354, Note_off_c, 0, 74, 0
2, 147360, Note_on_c, 0, 76, 80
2, 147404, Note_off_c, 0, 76, 0
2, 147408, Note_on_c, 0, 77, 80
2, 147452, Note_off_c, 0, 77, 0
2, 147456, Note_on_c, 0, 76, 80
2, 147636, Note_off_c, 0, 76, 0
2, 148224, Note_on_c, 0, 79, 80
2, 148596, Note_off_c, 0, 79, 0
2, 148608, Note_on_c, 0, 79, 80
2, 148698, Note_off_c, 0, 79, 0
2, 148704, Note_on_c, 0, 81, 80
2, 148748, Note_off_c, 0, 81, 0
2, 148752, Note_on_c, 0, 79, 80
2, 148796, Note_off_c, 0, 79, 0
2, 148800, Note_on_c, 0, 77, 80
2, 148844, Note_off_c, 0, 77, 0
2, 148848, Note_on_c, 0, 76, 80
2, 148892, Note_off_c, 0, 76, 0
2, 148896, Note_on_c, 0, 74, 80
2, 148940, Note_off_c, 0, 74, 0
2, 148944, Note_on_c, 0, 72, 80
2, 148988, Note_off_c, 0, 72, 0
2, 148992, Note_on_c, 0, 72, 80
2, 149082, Note_off_c, 0, 72, 0
2, 149088, Note_on_c, 0, 74, 80
2, 149132, Note_off_c, 0, 74, 0
2, 149136, Note_on_c, 0, 76, 80
2, 149180, Note_off_c, 0, 76, 0
2, 149184, Note_on_c, 0, 77, 80
2, 149228, Note_off_c, 0, 77, 0
2, 149232, Note_on_c, 0, 79, 80
2, 149276, Note_off_c, 0, 79, 0
2, 149280, Note_on_c, 0, 81, 80
2, 149324, Note_off_c, 0, 81, 0
2, 149328, Note_on_c, 0, 83, 80
2, 149372, Note_off_c, 0, 83, 0
2, 149376, Note_on_c, 0, 84, 80
2, 149420, Note_off_c, 0, 84, 0
2, 149424, Note_on_c, 0, 83, 80
2, 149468, Note_off_c, 0, 83, 0
2, 149472, Note_on_c, 0, 84, 80
2, 149516, Note_off_c, 0, 84, 0
2, 149520, Note_on_c, 0, 83, 80
2, 149564, Note_off_c, 0, 83, 0
2, 149568, Note_on_c, 0, 86, 80
2, 149612, Note_off_c, 0, 86, 0
2, 149616, Note_on_c, 0, 84, 80
2, 149660, Note_off_c, 0, 84, 0
2, 149664, Note_on_c, 0, 83, 80
2, 149708, Note_off_c, 0, 83, 0
2, 149712, Note_on_c, 0, 81, 80
2, 149756, Note_off_c, 0, 81, 0
2, 149760, Note_on_c, 0, 79, 80
2, 149940, Note_off_c, 0, 79, 0
2, 149952, Note_on_c, 0, 84, 80
2, 150132, Note_off_c, 0, 84, 0
2, 150144, Note_on_c, 0, 86, 80
2, 150324, Note_off_c, 0, 86, 0
2, 150336, Note_on_c, 0, 86, 80
2, 150426, Note_off_c, 0, 86, 0
2, 150432, Note_on_c, 0, 88, 80
2, 150476, Note_off_c, 0, 88, 0
2, 150480, Note_on_c, 0, 89, 80
2, 150524, Note_off_c, 0, 89, 0
2, 150528, Note_on_c, 0, 88, 80
2, 150572, Note_off_c, 0, 88, 0
2, 150576, Note_on_c, 0, 84, 80
2, 150620, Note_off_c, 0, 84, 0
2, 150624, Note_on_c, 0, 79, 80
2, 150668, Note_off_c, 0, 79, 0
2, 150672, Note_on_c, 0, 76, 80
2, 150716, Note_off_c, 0, 76, 0
2, 150720, Note_on_c, 0, 72, 80
2, 150764, Note_off_c, 0, 72, 0
2, 150768, Note_on_c, 0, 76, 80
2, 150812, Note_off_c, 0, 76, 0
2, 150816, Note_on_c, 0, 79, 80
2, 150860, Note_off_c, 0, 79, 0
2, 150872, Note_on_c, 0, 84, 80
2, 150912, Note_on_c, 0, 88, 80
2, 150916, Note_off_c, 0, 84, 0
2, 151002, Note_off_c, 0, 88, 0
2, 151008, Note_on_c, 0, 72, 80
2, 151098, Note_off_c, 0, 72, 0
2, 151104, Note_on_c, 0, 71, 80
2, 151194, Note_off_c, 0, 71, 0
2, 151200, Note_on_c, 0, 86, 80
2, 151290, Note_off_c, 0, 86, 0
2, 151296, Note_on_c, 0, 84, 80
2, 151340, Note_off_c, 0, 84, 0
2, 151344, Note_on_c, 0, 81, 80
2, 151388, Note_off_c, 0, 81, 0
2, 151392, Note_on_c, 0, 76, 80
2, 151436, Note_off_c, 0, 76, 0
2, 151440, Note_on_c, 0, 72, 80
2, 151484, Note_off_c, 0, 72, 0
2, 151488, Note_on_c, 0, 69, 80
2, 151532, Note_off_c, 0, 69, 0
2, 151536, Note_on_c, 0, 72, 80
2, 151580, Note_off_c, 0, 72, 0
2, 151584, Note_on_c, 0, 76, 80
2, 151628, Note_off_c, 0, 76, 0
2, 151632, Note_on_c, 0, 81, 80
2, 151676, Note_off_c, 0, 81, 0
2, 151680, Note_on_c, 0, 84, 80
2, 151770, Note_off_c, 0, 84, 0
2, 151776, Note_on_c, 0, 69, 80
2, 151866, Note_off_c, 0, 69, 0
2, 151872, Note_on_c, 0, 67, 80
2, 151962, Note_off_c, 0, 67, 0
2, 151968, Note_on_c, 0, 82, 80
2, 152058, Note_off_c, 0, 82, 0
2, 152064, Note_on_c, 0, 81, 80
2, 152108, Note_off_c, 0, 81, 0
2, 152112, Note_on_c, 0, 77, 80
2, 152156, Note_off_c, 0, 77, 0
2, 152160, Note_on_c, 0, 72, 80
2, 152204, Note_off_c, 0, 72, 0
2, 152208, Note_on_c, 0, 69, 80
2, 152252, Note_off_c, 0, 69, 0
2, 152256, Note_on_c, 0, 65, 80
2, 152300, Note_off_c, 0, 65, 0
2, 152304, Note_on_c, 0, 69, 80
2, 152348, Note_off_c, 0, 69, 0
2, 152352, Note_on_c, 0, 72, 80
2, 152396, Note_off_c, 0, 72, 0
2, 152400, Note_on_c, 0, 77, 80
2, 152444, Note_off_c, 0, 77, 0
2, 152448, Note_on_c, 0, 81, 80
2, 152538, Note_off_c, 0, 81, 0
2, 152544, Note_on_c, 0, 65, 80
2, 152634, Note_off_c, 0, 65, 0
2, 152640, Note_on_c, 0, 64, 80
2, 152730, Note_off_c, 0, 64, 0
2, 152736, Note_on_c, 0, 79, 80
2, 152826, Note_off_c, 0, 79, 0
2, 152832, Note_on_c, 0, 79, 80
2, 152876, Note_off_c, 0, 79, 0
2, 152880, Note_on_c, 0, 77, 80
2, 152924, Note_off_c, 0, 77, 0
2, 152928, Note_on_c, 0, 76, 80
2, 152972, Note_off_c, 0, 76, 0
2, 152976, Note_on_c, 0, 77, 80
2, 153020, Note_off_c, 0, 77, 0
2, 153024, Note_on_c, 0, 77, 80
2, 153068, Note_off_c, 0, 77, 0
2, 153072, Note_on_c, 0, 76, 80
2, 153116, Note_off_c, 0, 76, 0
2, 153120, Note_on_c, 0, 74, 80
2, 153164, Note_off_c, 0, 74, 0
2, 153168, Note_on_c, 0, 76, 80
2, 153212, Note_off_c, 0, 76, 0
2, 153216, Note_on_c, 0, 76, 80
2, 153260, Note_off_c, 0, 76, 0
2, 153264, Note_on_c, 0, 74, 80
2, 153308, Note_off_c, 0, 74, 0
2, 153312, Note_on_c, 0, 73, 80
2, 153356, Note_off_c, 0, 73, 0
2, 153360, Note_on_c, 0, 74, 80
2, 153404, Note_off_c, 0, 74, 0
2, 153408, Note_on_c, 0, 74, 80
2, 153452, Note_off_c, 0, 74, 0
2, 153456, Note_on_c, 0, 72, 80
2, 153500, Note_off_c, 0, 72, 0
2, 153504, Note_on_c, 0, 71, 80
2, 153548, Note_off_c, 0, 71, 0
2, 153552, Note_on_c, 0, 72, 80
2, 153596, Note_off_c, 0, 72, 0
2, 153600, Note_on_c, 0, 71, 80
2, 153780, Note_off_c, 0, 71, 0
2, 155040, Note_on_c, 0, 67, 80
2, 155130, Note_off_c, 0, 67, 0
2, 155136, Note_on_c, 0, 88, 80
2, 155316, Note_off_c, 0, 88, 0
2, 155328, Note_on_c, 0, 84, 80
2, 155418, Note_off_c, 0, 84, 0
2, 155520, Note_on_c, 0, 84, 80
2, 155700, Note_off_c, 0, 84, 0
2, 155712, Note_on_c, 0, 79, 80
2, 155802, Note_off_c, 0, 79, 0
2, 155904, Note_on_c, 0, 79, 80
2, 156084, Note_off_c, 0, 79, 0
2, 156096, Note_on_c, 0, 76, 80
2, 156186, Note_off_c, 0, 76, 0
2, 156288, Note_on_c, 0, 76, 80
2, 156468, Note_off_c, 0, 76, 0
2, 156480, Note_on_c, 0, 72, 80
2, 156570, Note_off_c, 0, 72, 0
2, 156672, Note_on_c, 0, 67, 80
2, 156852, Note_off_c, 0, 67, 0
2, 157440, Note_on_c, 0, 67, 80
2, 157530, Note_off_c, 0, 67, 0
2, 157536, Note_on_c, 0, 69, 80
2, 157580, Note_off_c, 0, 69, 0
2, 157584, Note_on_c, 0, 71, 80
2, 157628, Note_off_c, 0, 71, 0
2, 157632, Note_on_c, 0, 72, 80
2, 157676, Note_off_c, 0, 72, 0
2, 157680, Note_on_c, 0, 74, 80
2, 157724, Note_off_c, 0, 74, 0
2, 157728, Note_on_c, 0, 76, 80
2, 157772, Note_off_c, 0, 76, 0
2, 157776, Note_on_c, 0, 77, 80
2, 157820, Note_off_c, 0, 77, 0
2, 157824, Note_on_c, 0, 79, 80
2, 157868, Note_off_c, 0, 79, 0
2, 157872, Note_on_c, 0, 81, 80
2, 157916, Note_off_c, 0, 81, 0
2, 157920, Note_on_c, 0, 83, 80
2, 157964, Note_off_c, 0, 83, 0
2, 157968, Note_on_c, 0, 84, 80
2, 158012, Note_off_c, 0, 84, 0
2, 158016, Note_on_c, 0, 86, 80
2, 158106, Note_off_c, 0, 86, 0
2, 158112, Note_on_c, 0, 86, 80
2, 158202, Note_off_c, 0, 86, 0
2, 158208, Note_on_c, 0, 88, 80
2, 158388, Note_off_c, 0, 88, 0
2, 158400, Note_on_c, 0, 84, 80
2, 158490, Note_off_c, 0, 84, 0
2, 158592, Note_on_c, 0, 84, 80
2, 158682, Note_off_c, 0, 84, 0
2, 158784, Note_on_c, 0, 79, 80
2, 158874, Note_off_c, 0, 79, 0
2, 158976, Note_on_c, 0, 79, 80
2, 159156, Note_off_c, 0, 79, 0
2, 159168, Note_on_c, 0, 76, 80
2, 159258, Note_off_c, 0, 76, 0
2, 159360, Note_on_c, 0, 76, 80
2, 159540, Note_off_c, 0, 76, 0
2, 159552, Note_on_c, 0, 72, 80
2, 159642, Note_off_c, 0, 72, 0
2, 159744, Note_on_c, 0, 79, 80
2, 159924, Note_off_c, 0, 79, 0
2, 162048, Note_on_c, 0, 84, 80
2, 162804, Note_off_c, 0, 84, 0
2, 162816, Note_on_c, 0, 79, 80
2, 163572, Note_off_c, 0, 79, 0
2, 163584, Note_on_c, 0, 72, 80
2, 163764, Note_off_c, 0, 72, 0
2, 163968, Note_on_c, 0, 79, 80
2, 164058, Note_off_c, 0, 79, 0
2, 164064, Note_on_c, 0, 81, 80
2, 164154, Note_off_c, 0, 81, 0
2, 164160, Note_on_c, 0, 83, 80
2, 164250, Note_off_c, 0, 83, 0
2, 164256, Note_on_c, 0, 84, 80
2, 164346, Note_off_c, 0, 84, 0
2, 164352, Note_on_c, 0, 84, 80
2, 164442, Note_off_c, 0, 84, 0
2, 164448, Note_on_c, 0, 83, 80
2, 164538, Note_off_c, 0, 83, 0
2, 164544, Note_on_c, 0, 81, 80
2, 164634, Note_off_c, 0, 81, 0
2, 164640, Note_on_c, 0, 79, 80
2, 164730, Note_off_c, 0, 79, 0
2, 164736, Note_on_c, 0, 79, 80
2, 164780, Note_off_c, 0, 79, 0
2, 164784, Note_on_c, 0, 77, 80
2, 164828, Note_off_c, 0, 77, 0
2, 164832, Note_on_c, 0, 76, 80
2, 164876, Note_off_c, 0, 76, 0
2, 164880, Note_on_c, 0, 77, 80
2, 164924, Note_off_c, 0, 77, 0
2, 164928, Note_on_c, 0, 81, 80
2, 165018, Note_off_c, 0, 81, 0
2, 165024, Note_on_c, 0, 77, 80
2, 165114, Note_off_c, 0, 77, 0
2, 165120, Note_on_c, 0, 75, 80
2, 165210, Note_off_c, 0, 75, 0
2, 165216, Note_on_c, 0, 76, 80
2, 165306, Note_off_c, 0, 76, 0
2, 165408, Note_on_c, 0, 76, 80
2, 165452, Note_off_c, 0, 76, 0
2, 165456, Note_on_c, 0, 77, 80
2, 165500, Note_off_c, 0, 77, 0
2, 165504, Note_on_c, 0, 79, 80
2, 165594, Note_off_c, 0, 79, 0
2, 165600, Note_on_c, 0, 81, 80
2, 165690, Note_off_c, 0, 81, 0
2, 165696, Note_on_c, 0, 83, 80
2, 165786, Note_off_c, 0, 83, 0
2, 165792, Note_on_c, 0, 84, 80
2, 165882, Note_off_c, 0, 84, 0
2, 165888, Note_on_c, 0, 84, 80
2, 165978, Note_off_c, 0, 84, 0
2, 165984, Note_on_c, 0, 83, 80
2, 166074, Note_off_c, 0, 83, 0
2, 166080, Note_on_c, 0, 81, 80
2, 166170, Note_off_c, 0, 81, 0
2, 166176, Note_on_c, 0, 79, 80
2, 166266, Note_off_c, 0, 79, 0
2, 166272, Note_on_c, 0, 79, 80
2, 166316, Note_off_c, 0, 79, 0
2, 166320, Note_on_c, 0, 77, 80
2, 166364, Note_off_c, 0, 77, 0
2, 166368, Note_on_c, 0, 76, 80
2, 166412, Note_off_c, 0, 76, 0
2, 166416, Note_on_c, 0, 77, 80
2, 166460, Note_off_c, 0, 77, 0
2, 166464, Note_on_c, 0, 81, 80
2, 166554, Note_off_c, 0, 81, 0
2, 166560, Note_on_c, 0, 77, 80
2, 166650, Note_off_c, 0, 77, 0
2, 166656, Note_on_c, 0, 76, 80
2, 166746, Note_off_c, 0, 76, 0
2, 166752, Note_on_c, 0, 84, 80
2, 166932, Note_off_c, 0, 84, 0
2, 166944, Note_on_c, 0, 82, 80
2, 167034, Note_off_c, 0, 82, 0
2, 167040, Note_on_c, 0, 82, 80
2, 167130, Note_off_c, 0, 82, 0
2, 167136, Note_on_c, 0, 81, 80
2, 167316, Note_off_c, 0, 81, 0
2, 167328, Note_on_c, 0, 79, 80
2, 167418, Note_off_c, 0, 79, 0
2, 167424, Note_on_c, 0, 79, 80
2, 167514, Note_off_c, 0, 79, 0
2, 167520, Note_on_c, 0, 77, 80
2, 167700, Note_off_c, 0, 77, 0
2, 167712, Note_on_c, 0, 84, 80
2, 167802, Note_off_c, 0, 84, 0
2, 167808, Note_on_c, 0, 84, 80
2, 167898, Note_off_c, 0, 84, 0
2, 167904, Note_on_c, 0, 82, 80
2, 168084, Note_off_c, 0, 82, 0
2, 168096, Note_on_c, 0, 81, 80
2, 168186, Note_off_c, 0, 81, 0
2, 168192, Note_on_c, 0, 81, 80
2, 168282, Note_off_c, 0, 81, 0
2, 168288, Note_on_c, 0, 79, 80
2, 168468, Note_off_c, 0, 79, 0
2, 168480, Note_on_c, 0, 84, 80
2, 168570, Note_off_c, 0, 84, 0
2, 168576, Note_on_c, 0, 84, 80
2, 168666, Note_off_c, 0, 84, 0
2, 168672, Note_on_c, 0, 82, 80
2, 168852, Note_off_c, 0, 82, 0
2, 168864, Note_on_c, 0, 80, 80
2, 168954, Note_off_c, 0, 80, 0
2, 168960, Note_on_c, 0, 81, 80
2, 168980, Note_off_c, 0, 81, 0
2, 168984, Note_on_c, 0, 83, 80
2, 169004, Note_off_c, 0, 83, 0
2, 169008, Note_on_c, 0, 84, 80
2, 169148, Note_off_c, 0, 84, 0
2, 169152, Note_on_c, 0, 84, 80
2, 169242, Note_off_c, 0, 84, 0
2, 169248, Note_on_c, 0, 84, 80
2, 169338, Note_off_c, 0, 84, 0
2, 169344, Note_on_c, 0, 84, 80
2, 169524, Note_off_c, 0, 84, 0
2, 169728, Note_on_c, 0, 81, 80
2, 169748, Note_off_c, 0, 81, 0
2, 169752, Note_on_c, 0, 83, 80
2, 169772, Note_off_c, 0, 83, 0
2, 169776, Note_on_c, 0, 84, 80
2, 169916, Note_off_c, 0, 84, 0
2, 169920, Note_on_c, 0, 84, 80
2, 170010, Note_off_c, 0, 84, 0
2, 170016, Note_on_c, 0, 84, 80
2, 170106, Note_off_c, 0, 84, 0
2, 170112, Note_on_c, 0, 84, 80
2, 170292, Note_off_c, 0, 84, 0
2, 170496, Note_on_c, 0, 74, 80
2, 170868, Note_off_c, 0, 74, 0
2, 170880, Note_on_c, 0, 89, 80
2, 171252, Note_off_c, 0, 89, 0
2, 171264, Note_on_c, 0, 72, 80
2, 171636, Note_off_c, 0, 72, 0
2, 171648, Note_on_c, 0, 88, 80
2, 172020, Note_off_c, 0, 88, 0
2, 172032, Note_on_c, 0, 74, 80
2, 172122, Note_off_c, 0, 74, 0
2, 172128, Note_on_c, 0, 79, 80
2, 172148, Note_off_c, 0, 79, 0
2, 172152, Note_on_c, 0, 77, 80
2, 172172, Note_off_c, 0, 77, 0
2, 172176, Note_on_c, 0, 76, 80
2, 172220, Note_off_c, 0, 76, 0
2, 172224, Note_on_c, 0, 77, 80
2, 172314, Note_off_c, 0, 77, 0
2, 172320, Note_on_c, 0, 81, 80
2, 172410, Note_off_c, 0, 81, 0
2, 172416, Note_on_c, 0, 79, 80
2, 172506, Note_off_c, 0, 79, 0
2, 172512, Note_on_c, 0, 77, 80
2, 172602, Note_off_c, 0, 77, 0
2, 172608, Note_on_c, 0, 76, 80
2, 172698, Note_off_c, 0, 76, 0
2, 172704, Note_on_c, 0, 74, 80
2, 172794, Note_off_c, 0, 74, 0
2, 172800, Note_on_c, 0, 72, 80
2, 172890, Note_off_c, 0, 72, 0
2, 172896, Note_on_c, 0, 74, 80
2, 172986, Note_off_c, 0, 74, 0
2, 172992, Note_on_c, 0, 76, 80
2, 173082, Note_off_c, 0, 76, 0
2, 173088, Note_on_c, 0, 77, 80
2, 173178, Note_off_c, 0, 77, 0
2, 173184, Note_on_c, 0, 79, 80
2, 173364, Note_off_c, 0, 79, 0
2, 173568, Note_on_c, 0, 74, 80
2, 173658, Note_off_c, 0, 74, 0
2, 173664, Note_on_c, 0, 86, 80
2, 173708, Note_off_c, 0, 86, 0
2, 173712, Note_on_c, 0, 88, 80
2, 173756, Note_off_c, 0, 88, 0
2, 173760, Note_on_c, 0, 89, 80
2, 173804, Note_off_c, 0, 89, 0
2, 173808, Note_on_c, 0, 88, 80
2, 173852, Note_off_c, 0, 88, 0
2, 173856, Note_on_c, 0, 86, 80
2, 173900, Note_off_c, 0, 86, 0
2, 173904, Note_on_c, 0, 84, 80
2, 173948, Note_off_c, 0, 84, 0
2, 173952, Note_on_c, 0, 83, 80
2, 173996, Note_off_c, 0, 83, 0
2, 174000, Note_on_c, 0, 84, 80
2, 174044, Note_off_c, 0, 84, 0
2, 174048, Note_on_c, 0, 86, 80
2, 174092, Note_off_c, 0, 86, 0
2, 174096, Note_on_c, 0, 84, 80
2, 174140, Note_off_c, 0, 84, 0
2, 174144, Note_on_c, 0, 83, 80
2, 174188, Note_off_c, 0, 83, 0
2, 174192, Note_on_c, 0, 81, 80
2, 174236, Note_off_c, 0, 81, 0
2, 174240, Note_on_c, 0, 79, 80
2, 174284, Note_off_c, 0, 79, 0
2, 174288, Note_on_c, 0, 77, 80
2, 174332, Note_off_c, 0, 77, 0
2, 174336, Note_on_c, 0, 76, 80
2, 174426, Note_off_c, 0, 76, 0
2, 174432, Note_on_c, 0, 88, 80
2, 174476, Note_off_c, 0, 88, 0
2, 174480, Note_on_c, 0, 87, 80
2, 174524, Note_off_c, 0, 87, 0
2, 174528, Note_on_c, 0, 88, 80
2, 174572, Note_off_c, 0, 88, 0
2, 174576, Note_on_c, 0, 86, 80
2, 174620, Note_off_c, 0, 86, 0
2, 174624, Note_on_c, 0, 84, 80
2, 174668, Note_off_c, 0, 84, 0
2, 174672, Note_on_c, 0, 83, 80
2, 174716, Note_off_c, 0, 83, 0
2, 174720, Note_on_c, 0, 81, 80
2, 174764, Note_off_c, 0, 81, 0
2, 174768, Note_on_c, 0, 83, 80
2, 174812, Note_off_c, 0, 83, 0
2, 174816, Note_on_c, 0, 84, 80
2, 174860, Note_off_c, 0, 84, 0
2, 174864, Note_on_c, 0, 83, 80
2, 174908, Note_off_c, 0, 83, 0
2, 174912, Note_on_c, 0, 81, 80
2, 174956, Note_off_c, 0, 81, 0
2, 174960, Note_on_c, 0, 79, 80
2, 175004, Note_off_c, 0, 79, 0
2, 175008, Note_on_c, 0, 77, 80
2, 175052, Note_off_c, 0, 77, 0
2, 175056, Note_on_c, 0, 76, 80
2, 175100, Note_off_c, 0, 76, 0
2, 175104, Note_on_c, 0, 74, 80
2, 175386, Note_off_c, 0, 74, 0
2, 175392, Note_on_c, 0, 89, 80
2, 175482, Note_off_c, 0, 89, 0
2, 175488, Note_on_c, 0, 88, 80
2, 175578, Note_off_c, 0, 88, 0
2, 175584, Note_on_c, 0, 86, 80
2, 175674, Note_off_c, 0, 86, 0
2, 175680, Note_on_c, 0, 84, 80
2, 175770, Note_off_c, 0, 84, 0
2, 175776, Note_on_c, 0, 83, 80
2, 175866, Note_off_c, 0, 83, 0
2, 175872, Note_on_c, 0, 84, 80
2, 176052, Note_off_c, 0, 84, 0
2, 176256, Note_on_c, 0, 77, 80
2, 176300, Note_off_c, 0, 77, 0
2, 176304, Note_on_c, 0, 76, 80
2, 176348, Note_off_c, 0, 76, 0
2, 176352, Note_on_c, 0, 74, 80
2, 176396, Note_off_c, 0, 74, 0
2, 176400, Note_on_c, 0, 76, 80
2, 176444, Note_off_c, 0, 76, 0
2, 176448, Note_on_c, 0, 79, 80
2, 176492, Note_off_c, 0, 79, 0
2, 176496, Note_on_c, 0, 77, 80
2, 176540, Note_off_c, 0, 77, 0
2, 176544, Note_on_c, 0, 76, 80
2, 176588, Note_off_c, 0, 76, 0
2, 176592, Note_on_c, 0, 77, 80
2, 176636, Note_off_c, 0, 77, 0
2, 176640, Note_on_c, 0, 79, 80
2, 176730, Note_off_c, 0, 79, 0
2, 176736, Note_on_c, 0, 84, 80
2, 176826, Note_off_c, 0, 84, 0
2, 176832, Note_on_c, 0, 79, 80
2, 176922, Note_off_c, 0, 79, 0
2, 176928, Note_on_c, 0, 79, 80
2, 177018, Note_off_c, 0, 79, 0
2, 177024, Note_on_c, 0, 77, 80
2, 177068, Note_off_c, 0, 77, 0
2, 177072, Note_on_c, 0, 76, 80
2, 177116, Note_off_c, 0, 76, 0
2, 177120, Note_on_c, 0, 74, 80
2, 177164, Note_off_c, 0, 74, 0
2, 177168, Note_on_c, 0, 76, 80
2, 177212, Note_off_c, 0, 76, 0
2, 177216, Note_on_c, 0, 79, 80
2, 177260, Note_off_c, 0, 79, 0
2, 177264, Note_on_c, 0, 77, 80
2, 177308, Note_off_c, 0, 77, 0
2, 177312, Note_on_c, 0, 76, 80
2, 177356, Note_off_c, 0, 76, 0
2, 177360, Note_on_c, 0, 77, 80
2, 177404, Note_off_c, 0, 77, 0
2, 177408, Note_on_c, 0, 79, 80
2, 177498, Note_off_c, 0, 79, 0
2, 177504, Note_on_c, 0, 84, 80
2, 177594, Note_off_c, 0, 84, 0
2, 177600, Note_on_c, 0, 79, 80
2, 177690, Note_off_c, 0, 79, 0
2, 177696, Note_on_c, 0, 79, 80
2, 177786, Note_off_c, 0, 79, 0
2, 177792, Note_on_c, 0, 77, 80
2, 177836, Note_off_c, 0, 77, 0
2, 177840, Note_on_c, 0, 76, 80
2, 177884, Note_off_c, 0, 76, 0
2, 177888, Note_on_c, 0, 74, 80
2, 177932, Note_off_c, 0, 74, 0
2, 177936, Note_on_c, 0, 76, 80
2, 177980, Note_off_c, 0, 76, 0
2, 177984, Note_on_c, 0, 79, 80
2, 178028, Note_off_c, 0, 79, 0
2, 178032, Note_on_c, 0, 77, 80
2, 178076, Note_off_c, 0, 77, 0
2, 178080, Note_on_c, 0, 76, 80
2, 178124, Note_off_c, 0, 76, 0
2, 178128, Note_on_c, 0, 77, 80
2, 178172, Note_off_c, 0, 77, 0
2, 178176, Note_on_c, 0, 79, 80
2, 178266, Note_off_c, 0, 79, 0
2, 178272, Note_on_c, 0, 79, 80
2, 178316, Note_off_c, 0, 79, 0
2, 178320, Note_on_c, 0, 81, 80
2, 178364, Note_off_c, 0, 81, 0
2, 178368, Note_on_c, 0, 77, 80
2, 178458, Note_off_c, 0, 77, 0
2, 178464, Note_on_c, 0, 77, 80
2, 178508, Note_off_c, 0, 77, 0
2, 178512, Note_on_c, 0, 79, 80
2, 178556, Note_off_c, 0, 79, 0
2, 178560, Note_on_c, 0, 76, 80
2, 178650, Note_off_c, 0, 76, 0
2, 178656, Note_on_c, 0, 76, 80
2, 178700, Note_off_c, 0, 76, 0
2, 178704, Note_on_c, 0, 77, 80
2, 178748, Note_off_c, 0, 77, 0
2, 178752, Note_on_c, 0, 74, 80
2, 178842, Note_off_c, 0, 74, 0
2, 178848, Note_on_c, 0, 74, 80
2, 178892, Note_off_c, 0, 74, 0
2, 178896, Note_on_c, 0, 76, 80
2, 178940, Note_off_c, 0, 76, 0
2, 178944, Note_on_c, 0, 72, 80
2, 178988, Note_off_c, 0, 72, 0
2, 178992, Note_on_c, 0, 67, 80
2, 179036, Note_off_c, 0, 67, 0
2, 179040, Note_on_c, 0, 69, 80
2, 179084, Note_off_c, 0, 69, 0
2, 179088, Note_on_c, 0, 71, 80
2, 179132, Note_off_c, 0, 71, 0
2, 179136, Note_on_c, 0, 72, 80
2, 179180, Note_off_c, 0, 72, 0
2, 179184, Note_on_c, 0, 74, 80
2, 179228, Note_off_c, 0, 74, 0
2, 179232, Note_on_c, 0, 76, 80
2, 179276, Note_off_c, 0, 76, 0
2, 179280, Note_on_c, 0, 77, 80
2, 179324, Note_off_c, 0, 77, 0
2, 179328, Note_on_c, 0, 79, 80
2, 181236, Note_off_c, 0, 79, 0
2, 181248, Note_on_c, 0, 91, 80
2, 181428, Note_off_c, 0, 91, 0
2, 181440, Note_on_c, 0, 89, 80
2, 181620, Note_off_c, 0, 89, 0
2, 181632, Note_on_c, 0, 88, 80
2, 181812, Note_off_c, 0, 88, 0
2, 181824, Note_on_c, 0, 86, 80
2, 182004, Note_off_c, 0, 86, 0
2, 182016, Note_on_c, 0, 84, 80
2, 182196, Note_off_c, 0, 84, 0
2, 182208, Note_on_c, 0, 64, 80
2, 182388, Note_off_c, 0, 64, 0
2, 182400, Note_on_c, 0, 65, 80
2, 182580, Note_off_c, 0, 65, 0
2, 182592, Note_on_c, 0, 81, 80
2, 182772, Note_off_c, 0, 81, 0
2, 182784, Note_on_c, 0, 79, 80
2, 182874, Note_off_c, 0, 79, 0
2, 182880, Note_on_c, 0, 76, 80
2, 183060, Note_off_c, 0, 76, 0
2, 183072, Note_on_c, 0, 72, 80
2, 183162, Note_off_c, 0, 72, 0
2, 183168, Note_on_c, 0, 77, 80
2, 183258, Note_off_c, 0, 77, 0
2, 183264, Note_on_c, 0, 74, 80
2, 183444, Note_off_c, 0, 74, 0
2, 183456, Note_on_c, 0, 71, 80
2, 183546, Note_off_c, 0, 71, 0
2, 183552, Note_on_c, 0, 84, 80
2, 183596, Note_off_c, 0, 84, 0
2, 183600, Note_on_c, 0, 83, 80
2, 183644, Note_off_c, 0, 83, 0
2, 183648, Note_on_c, 0, 81, 80
2, 183692, Note_off_c, 0, 81, 0
2, 183696, Note_on_c, 0, 79, 80
2, 183740, Note_off_c, 0, 79, 0
2, 183744, Note_on_c, 0, 77, 80
2, 183788, Note_off_c, 0, 77, 0
2, 183792, Note_on_c, 0, 76, 80
2, 183836, Note_off_c, 0, 76, 0
2, 183840, Note_on_c, 0, 74, 80
2, 183884, Note_off_c, 0, 74, 0
2, 183888, Note_on_c, 0, 72, 80
2, 183932, Note_off_c, 0, 72, 0
2, 183936, Note_on_c, 0, 81, 80
2, 183980, Note_off_c, 0, 81, 0
2, 183984, Note_on_c, 0, 79, 80
2, 184028, Note_off_c, 0, 79, 0
2, 184032, Note_on_c, 0, 77, 80
2, 184076, Note_off_c, 0, 77, 0
2, 184080, Note_on_c, 0, 76, 80
2, 184124, Note_off_c, 0, 76, 0
2, 184128, Note_on_c, 0, 74, 80
2, 184172, Note_off_c, 0, 74, 0
2, 184176, Note_on_c, 0, 72, 80
2, 184220, Note_off_c, 0, 72, 0
2, 184224, Note_on_c, 0, 71, 80
2, 184268, Note_off_c, 0, 71, 0
2, 184272, Note_on_c, 0, 69, 80
2, 184316, Note_off_c, 0, 69, 0
2, 184320, Note_on_c, 0, 67, 80
2, 184500, Note_off_c, 0, 67, 0
2, 184512, Note_on_c, 0, 67, 80
2, 184602, Note_off_c, 0, 67, 0
2, 184608, Note_on_c, 0, 69, 80
2, 184652, Note_off_c, 0, 69, 0
2, 184656, Note_on_c, 0, 71, 80
2, 184700, Note_off_c, 0, 71, 0
2, 184704, Note_on_c, 0, 72, 80
2, 184748, Note_off_c, 0, 72, 0
2, 184752, Note_on_c, 0, 74, 80
2, 184796, Note_off_c, 0, 74, 0
2, 184800, Note_on_c, 0, 76, 80
2, 184844, Note_off_c, 0, 76, 0
2, 184848, Note_on_c, 0, 77, 80
2, 184892, Note_off_c, 0, 77, 0
2, 184896, Note_on_c, 0, 79, 80
2, 184942, Note_off_c, 0, 79, 0
2, 184944, Note_on_c, 0, 81, 80
2, 184990, Note_off_c, 0, 81, 0
2, 184992, Note_on_c, 0, 83, 80
2, 185038, Note_off_c, 0, 83, 0
2, 185040, Note_on_c, 0, 84, 80
2, 185086, Note_off_c, 0, 84, 0
2, 185088, Note_on_c, 0, 86, 80
2, 185112, Note_off_c, 0, 86, 0
2, 185112, Note_on_c, 0, 88, 80
2, 185136, Note_off_c, 0, 88, 0
2, 185136, Note_on_c, 0, 86, 80
2, 185160, Note_off_c, 0, 86, 0
2, 185160, Note_on_c, 0, 88, 80
2, 185184, Note_off_c, 0, 88, 0
2, 185184, Note_on_c, 0, 86, 80
2, 185208, Note_off_c, 0, 86, 0
2, 185208, Note_on_c, 0, 88, 80
2, 185232, Note_off_c, 0, 88, 0
2, 185232, Note_on_c, 0, 86, 80
2, 185256, Note_off_c, 0, 86, 0
2, 185256, Note_on_c, 0, 88, 80
2, 185280, Note_off_c, 0, 88, 0
2, 185280, Note_on_c, 0, 86, 80
2, 185304, Note_off_c, 0, 86, 0
2, 185304, Note_on_c, 0, 88, 80
2, 185328, Note_off_c, 0, 88, 0
2, 185328, Note_on_c, 0, 86, 80
2, 185352, Note_off_c, 0, 86, 0
2, 185352, Note_on_c, 0, 88, 80
2, 185376, Note_off_c, 0, 88, 0
2, 185376, Note_on_c, 0, 86, 80
2, 185400, Note_off_c, 0, 86, 0
2, 185400, Note_on_c, 0, 88, 80
2, 185424, Note_off_c, 0, 88, 0
2, 185424, Note_on_c, 0, 86, 80
2, 185448, Note_off_c, 0, 86, 0
2, 185448, Note_on_c, 0, 88, 80
2, 185472, Note_off_c, 0, 88, 0
2, 185472, Note_on_c, 0, 86, 80
2, 185496, Note_off_c, 0, 86, 0
2, 185496, Note_on_c, 0, 88, 80
2, 185520, Note_off_c, 0, 88, 0
2, 185520, Note_on_c, 0, 86, 80
2, 185544, Note_off_c, 0, 86, 0
2, 185544, Note_on_c, 0, 88, 80
2, 185568, Note_off_c, 0, 88, 0
2, 185568, Note_on_c, 0, 86, 80
2, 185592, Note_off_c, 0, 86, 0
2, 185592, Note_on_c, 0, 88, 80
2, 185616, Note_off_c, 0, 88, 0
2, 185616, Note_on_c, 0, 86, 80
2, 185640, Note_off_c, 0, 86, 0
2, 185640, Note_on_c, 0, 88, 80
2, 185664, Note_off_c, 0, 88, 0
2, 185664, Note_on_c, 0, 86, 80
2, 185688, Note_off_c, 0, 86, 0
2, 185688, Note_on_c, 0, 88, 80
2, 185712, Note_off_c, 0, 88, 0
2, 185712, Note_on_c, 0, 86, 80
2, 185736, Note_off_c, 0, 86, 0
2, 185736, Note_on_c, 0, 88, 80
2, 185760, Note_off_c, 0, 88, 0
2, 185760, Note_on_c, 0, 84, 80
2, 185806, Note_off_c, 0, 84, 0
2, 185808, Note_on_c, 0, 86, 80
2, 185854, Note_off_c, 0, 86, 0
2, 185856, Note_on_c, 0, 84, 80
2, 186142, Note_off_c, 0, 84, 0
2, 192000, Note_on_c, 0, 72, 80
2, 192072, Note_off_c, 0, 72, 64
2, 192096, Note_on_c, 0, 74, 80
2, 192132, Note_off_c, 0, 74, 64
2, 192144, Note_on_c, 0, 76, 80
2, 192180, Note_off_c, 0, 76, 64
2, 192192, Note_on_c, 0, 77, 80
2, 192228, Note_off_c, 0, 77, 64
2, 192240, Note_on_c, 0, 79, 80
2, 192276, Note_off_c, 0, 79, 64
2, 192288, Note_on_c, 0, 81, 80
2, 192324, Note_off_c, 0, 81, 64
2, 192336, Note_on_c, 0, 83, 80
2, 192372, Note_off_c, 0, 83, 64
2, 192384, Note_on_c, 0, 84, 80
2, 192420, Note_off_c, 0, 84, 64
2, 192432, Note_on_c, 0, 83, 80
2, 192468, Note_off_c, 0, 83, 64
2, 192480, Note_on_c, 0, 84, 80
2, 192516, Note_off_c, 0, 84, 64
2, 192528, Note_on_c, 0, 83, 80
2, 192564, Note_off_c, 0, 83, 64
2, 192576, Note_on_c, 0, 84, 80
2, 192612, Note_off_c, 0, 84, 64
2, 192624, Note_on_c, 0, 83, 80
2, 192660, Note_off_c, 0, 83, 64
2, 192672, Note_on_c, 0, 81, 80
2, 192708, Note_off_c, 0, 81, 64
2, 192720, Note_on_c, 0, 79, 80
2, 192756, Note_off_c, 0, 79, 64
2, 192768, Note_on_c, 0, 81, 80
2, 192804, Note_off_c, 0, 81, 64
2, 192816, Note_on_c, 0, 72, 80
2, 192852, Note_off_c, 0, 72, 64
2, 192864, Note_on_c, 0, 74, 80
2, 192900, Note_off_c, 0, 74, 64
2, 192912, Note_on_c, 0, 76, 80
2, 192948, Note_off_c, 0, 76, 64
2, 192960, Note_on_c, 0, 77, 80
2, 192996, Note_off_c, 0, 77, 64
2, 193008, Note_on_c, 0, 79, 80
2, 193044, Note_off_c, 0, 79, 64
2, 193056, Note_on_c, 0, 81, 80
2, 193092, Note_off_c, 0, 81, 64
2, 193104, Note_on_c, 0, 83, 80
2, 193140, Note_off_c, 0, 83, 64
2, 193152, Note_on_c, 0, 84, 80
2, 193188, Note_off_c, 0, 84, 64
2, 193200, Note_on_c, 0, 83, 80
2, 193236, Note_off_c, 0, 83, 64
2, 193248, Note_on_c, 0, 84, 80
2, 193284, Note_off_c, 0, 84, 64
2, 193296, Note_on_c, 0, 83, 80
2, 193332, Note_off_c, 0, 83, 64
2, 193344, Note_on_c, 0, 86, 80
2, 193380, Note_off_c, 0, 86, 64
2, 193392, Note_on_c, 0, 84, 80
2, 193428, Note_off_c, 0, 84, 64
2, 193440, Note_on_c, 0, 83, 80
2, 193476, Note_off_c, 0, 83, 64
2, 193488, Note_on_c, 0, 81, 80
2, 193524, Note_off_c, 0, 81, 64
2, 193536, Note_on_c, 0, 79, 80
2, 193572, Note_off_c, 0, 79, 64
2, 193632, Note_on_c, 0, 81, 80
2, 193668, Note_off_c, 0, 81, 64
2, 193680, Note_on_c, 0, 83, 80
2, 193716, Note_off_c, 0, 83, 64
2, 193728, Note_on_c, 0, 84, 80
2, 193764, Note_off_c, 0, 84, 64
2, 193776, Note_on_c, 0, 86, 80
2, 193812, Note_off_c, 0, 86, 64
2, 193824, Note_on_c, 0, 88, 80
2, 193860, Note_off_c, 0, 88, 64
2, 193872, Note_on_c, 0, 86, 80
2, 193908, Note_off_c, 0, 86, 64
2, 193920, Note_on_c, 0, 84, 80
2, 193956, Note_off_c, 0, 84, 64
2, 193968, Note_on_c, 0, 83, 80
2, 194004, Note_off_c, 0, 83, 64
2, 194016, Note_on_c, 0, 81, 80
2, 194052, Note_off_c, 0, 81, 64
2, 194064, Note_on_c, 0, 79, 80
2, 194100, Note_off_c, 0, 79, 64
2, 194112, Note_on_c, 0, 79, 80
2, 194148, Note_off_c, 0, 79, 64
2, 194160, Note_on_c, 0, 77, 80
2, 194196, Note_off_c, 0, 77, 64
2, 194208, Note_on_c, 0, 76, 80
2, 194244, Note_off_c, 0, 76, 64
2, 194256, Note_on_c, 0, 77, 80
2, 194292, Note_off_c, 0, 77, 64
2, 194304, Note_on_c, 0, 79, 80
2, 194340, Note_off_c, 0, 79, 64
2, 194352, Note_on_c, 0, 77, 80
2, 194388, Note_off_c, 0, 77, 64
2, 194400, Note_on_c, 0, 81, 80
2, 194436, Note_off_c, 0, 81, 64
2, 194448, Note_on_c, 0, 77, 80
2, 194484, Note_off_c, 0, 77, 64
2, 194496, Note_on_c, 0, 76, 80
2, 194532, Note_off_c, 0, 76, 64
2, 194688, Note_on_c, 0, 74, 80
2, 194706, Note_off_c, 0, 74, 64
2, 194712, Note_on_c, 0, 76, 80
2, 194730, Note_off_c, 0, 76, 64
2, 194736, Note_on_c, 0, 74, 80
2, 194754, Note_off_c, 0, 74, 64
2, 194760, Note_on_c, 0, 76, 80
2, 194778, Note_off_c, 0, 76, 64
2, 194784, Note_on_c, 0, 74, 80
2, 194802, Note_off_c, 0, 74, 64
2, 194808, Note_on_c, 0, 76, 80
2, 194826, Note_off_c, 0, 76, 64
2, 194832, Note_on_c, 0, 74, 80
2, 194850, Note_off_c, 0, 74, 64
2, 194856, Note_on_c, 0, 76, 80
2, 194874, Note_off_c, 0, 76, 64
2, 194880, Note_on_c, 0, 74, 80
2, 194952, Note_off_c, 0, 74, 64
2, 194976, Note_on_c, 0, 72, 80
2, 195012, Note_off_c, 0, 72, 64
2, 195024, Note_on_c, 0, 74, 80
2, 195060, Note_off_c, 0, 74, 64
2, 195072, Note_on_c, 0, 72, 80
2, 195216, Note_off_c, 0, 72, 64
2, 203520, Note_on_c, 0, 84, 80
2, 205224, Note_off_c, 0, 84, 0
2, 205248, Note_on_c, 0, 84, 80
2, 205416, Note_off_c, 0, 84, 0
2, 205440, Note_on_c, 0, 84, 80
2, 205608, Note_off_c, 0, 84, 0
2, 205632, Note_on_c, 0, 84, 80
2, 205800, Note_off_c, 0, 84, 0
2, 205824, Note_on_c, 0, 84, 80
2, 205992, Note_off_c, 0, 84, 0
2, 205992, End_track
3, 0, Start_track
3, 0, MIDI_port, 0
3, 0, Title_t, "Oboes               "
3, 0, Program_c, 1, 68
3, 0, Control_c, 1, 10, 64
3, 0, Note_on_c, 1, 84, 82
3, 0, Program_c, 1, 68
3, 192, Note_off_c, 1, 84, 17
3, 288, Note_on_c, 1, 79, 82
3, 336, Note_off_c, 1, 79, 74
3, 384, Note_on_c, 1, 76, 82
3, 432, Note_off_c, 1, 76, 40
3, 480, Note_on_c, 1, 72, 82
3, 528, Note_off_c, 1, 72, 51
3, 576, Note_on_c, 1, 76, 82
3, 624, Note_off_c, 1, 76, 36
3, 672, Note_on_c, 1, 79, 82
3, 720, Note_off_c, 1, 79, 38
3, 768, Note_on_c, 1, 84, 82
3, 1056, Note_off_c, 1, 84, 13
3, 1056, Note_on_c, 1, 79, 82
3, 1104, Note_off_c, 1, 79, 69
3, 1152, Note_on_c, 1, 76, 82
3, 1200, Note_off_c, 1, 76, 49
3, 1248, Note_on_c, 1, 72, 82
3, 1296, Note_off_c, 1, 72, 42
3, 1344, Note_on_c, 1, 76, 82
3, 1392, Note_off_c, 1, 76, 22
3, 1440, Note_on_c, 1, 79, 82
3, 1488, Note_off_c, 1, 79, 17
3, 1536, Note_on_c, 1, 84, 82
3, 1728, Note_off_c, 1, 84, 57
3, 1728, Note_on_c, 1, 72, 62
3, 1920, Note_off_c, 1, 72, 1
3, 1920, Note_on_c, 1, 71, 62
3, 2112, Note_off_c, 1, 71, 34
3, 2112, Note_on_c, 1, 72, 62
3, 2304, Note_off_c, 1, 72, 28
3, 2304, Note_on_c, 1, 74, 82
3, 2400, Note_off_c, 1, 74, 56
3, 2496, Note_on_c, 1, 74, 62
3, 2688, Note_off_c, 1, 74, 31
3, 2688, Note_on_c, 1, 73, 62
3, 2880, Note_off_c, 1, 73, 25
3, 2880, Note_on_c, 1, 74, 62
3, 3072, Note_off_c, 1, 74, 5
3, 3072, Note_on_c, 1, 76, 82
3, 3168, Note_off_c, 1, 76, 59
3, 3264, Note_on_c, 1, 76, 62
3, 3456, Note_off_c, 1, 76, 59
3, 3456, Note_on_c, 1, 75, 62
3, 3648, Note_off_c, 1, 75, 22
3, 3648, Note_on_c, 1, 76, 62
3, 3840, Note_off_c, 1, 76, 35
3, 3840, Note_on_c, 1, 77, 62
3, 4032, Note_off_c, 1, 77, 58
3, 4032, Note_on_c, 1, 79, 72
3, 4224, Note_off_c, 1, 79, 67
3, 4224, Note_on_c, 1, 81, 82
3, 4416, Note_off_c, 1, 81, 65
3, 4416, Note_on_c, 1, 83, 92
3, 4608, Note_off_c, 1, 83, 27
3, 4608, Note_on_c, 1, 84, 92
3, 4800, Note_on_c, 1, 72, 92
3, 5712, Note_off_c, 1, 72, 2
3, 5760, Note_off_c, 1, 84, 4
3, 5952, Note_on_c, 1, 72, 82
3, 5952, Note_on_c, 1, 76, 82
3, 6000, Note_off_c, 1, 72, 31
3, 6000, Note_off_c, 1, 76, 30
3, 6000, Note_on_c, 1, 74, 82
3, 6000, Note_on_c, 1, 77, 82
3, 6048, Note_off_c, 1, 74, 5
3, 6048, Note_off_c, 1, 77, 61
3, 6048, Note_on_c, 1, 79, 82
3, 6096, Note_off_c, 1, 79, 33
3, 6096, Note_on_c, 1, 76, 82
3, 6096, Note_on_c, 1, 72, 82
3, 6144, Note_off_c, 1, 76, 71
3, 6144, Note_off_c, 1, 72, 46
3, 6144, Note_on_c, 1, 77, 82
3, 6144, Note_on_c, 1, 81, 82
3, 6240, Note_off_c, 1, 77, 27
3, 6240, Note_off_c, 1, 81, 8
3, 7488, Note_on_c, 1, 72, 82
3, 7536, Note_off_c, 1, 72, 24
3, 7536, Note_on_c, 1, 74, 82
3, 7536, Note_on_c, 1, 71, 82
3, 7584, Note_off_c, 1, 74, 62
3, 7584, Note_off_c, 1, 71, 64
3, 7584, Note_on_c, 1, 76, 82
3, 7584, Note_on_c, 1, 72, 82
3, 7632, Note_off_c, 1, 76, 58
3, 7632, Note_off_c, 1, 72, 52
3, 7632, Note_on_c, 1, 72, 82
3, 7632, Note_on_c, 1, 76, 82
3, 7680, Note_off_c, 1, 72, 50
3, 7680, Note_off_c, 1, 76, 53
3, 7680, Note_on_c, 1, 77, 82
3, 7680, Note_on_c, 1, 74, 82
3, 8448, Note_off_c, 1, 77, 22
3, 8448, Note_off_c, 1, 74, 70
3, 8448, Note_on_c, 1, 72, 82
3, 8448, Note_on_c, 1, 76, 82
3, 9168, Note_off_c, 1, 72, 55
3, 9216, Note_off_c, 1, 76, 54
3, 9216, Note_on_c, 1, 74, 82
3, 9216, Note_on_c, 1, 69, 82
3, 9504, Note_off_c, 1, 74, 49
3, 9504, Note_on_c, 1, 76, 82
3, 9552, Note_off_c, 1, 69, 80
3, 9552, Note_off_c, 1, 76, 62
3, 9552, Note_on_c, 1, 77, 82
3, 9600, Note_off_c, 1, 77, 81
3, 9600, Note_on_c, 1, 72, 82
3, 9600, Note_on_c, 1, 64, 82
3, 9744, Note_off_c, 1, 72, 6
3, 9744, Note_off_c, 1, 64, 33
3, 9792, Note_on_c, 1, 62, 82
3, 9792, Note_on_c, 1, 71, 82
3, 9936, Note_off_c, 1, 62, 63
3, 9936, Note_off_c, 1, 71, 58
3, 10752, Note_on_c, 1, 74, 82
3, 10752, Note_on_c, 1, 77, 82
3, 11520, Note_off_c, 1, 74, 27
3, 11520, Note_off_c, 1, 77, 57
3, 11520, Note_on_c, 1, 76, 82
3, 11520, Note_on_c, 1, 72, 82
3, 12288, Note_off_c, 1, 76, 61
3, 12288, Note_off_c, 1, 72, 25
3, 12288, Note_on_c, 1, 74, 82
3, 12288, Note_on_c, 1, 72, 82
3, 12336, Note_off_c, 1, 74, 31
3, 12384, Note_on_c, 1, 76, 82
3, 12432, Note_off_c, 1, 76, 34
3, 12480, Note_on_c, 1, 77, 82
3, 12528, Note_off_c, 1, 77, 63
3, 12576, Note_on_c, 1, 79, 82
3, 12624, Note_off_c, 1, 79, 40
3, 12672, Note_on_c, 1, 81, 82
3, 12720, Note_off_c, 1, 81, 59
3, 12720, Note_on_c, 1, 79, 82
3, 12768, Note_off_c, 1, 79, 44
3, 12768, Note_on_c, 1, 77, 82
3, 12816, Note_off_c, 1, 77, 70
3, 12816, Note_on_c, 1, 76, 82
3, 12864, Note_off_c, 1, 72, 56
3, 12864, Note_off_c, 1, 76, 80
3, 12864, Note_on_c, 1, 69, 82
3, 12864, Note_on_c, 1, 74, 82
3, 12912, Note_off_c, 1, 74, 82
3, 12912, Note_on_c, 1, 72, 82
3, 12960, Note_off_c, 1, 72, 79
3, 12960, Note_on_c, 1, 71, 82
3, 13008, Note_off_c, 1, 71, 10
3, 13020, Note_on_c, 1, 72, 82
3, 13052, Note_off_c, 1, 72, 64
3, 13056, Note_off_c, 1, 69, 2
3, 13056, Note_on_c, 1, 67, 82
3, 13056, Note_on_c, 1, 71, 82
3, 13152, Note_off_c, 1, 67, 36
3, 13152, Note_off_c, 1, 71, 63
3, 13152, Note_on_c, 1, 74, 82
3, 13248, Note_off_c, 1, 74, 77
3, 13248, Note_on_c, 1, 77, 92
3, 13248, Note_on_c, 1, 71, 92
3, 13272, Note_off_c, 1, 77, 63
3, 13272, Note_off_c, 1, 71, 51
3, 13344, Note_on_c, 1, 77, 92
3, 13344, Note_on_c, 1, 71, 92
3, 13368, Note_off_c, 1, 77, 56
3, 13368, Note_off_c, 1, 71, 48
3, 13440, Note_on_c, 1, 76, 82
3, 13440, Note_on_c, 1, 72, 82
3, 13632, Note_off_c, 1, 76, 70
3, 13632, Note_off_c, 1, 72, 54
3, 13728, Note_on_c, 1, 76, 82
3, 13728, Note_on_c, 1, 72, 82
3, 13824, Note_off_c, 1, 76, 28
3, 13824, Note_off_c, 1, 72, 34
3, 13824, Note_on_c, 1, 74, 82
3, 13824, Note_on_c, 1, 71, 82
3, 13920, Note_off_c, 1, 74, 68
3, 13920, Note_off_c, 1, 71, 47
3, 13920, Note_on_c, 1, 74, 82
3, 14016, Note_off_c, 1, 74, 47
3, 14016, Note_on_c, 1, 71, 92
3, 14016, Note_on_c, 1, 77, 92
3, 14040, Note_off_c, 1, 71, 53
3, 14040, Note_off_c, 1, 77, 64
3, 14112, Note_on_c, 1, 77, 92
3, 14112, Note_on_c, 1, 71, 92
3, 14136, Note_off_c, 1, 77, 64
3, 14136, Note_off_c, 1, 71, 26
3, 14208, Note_on_c, 1, 76, 82
3, 14208, Note_on_c, 1, 72, 82
3, 14400, Note_off_c, 1, 76, 70
3, 14400, Note_off_c, 1, 72, 71
3, 14496, Note_on_c, 1, 76, 82
3, 14496, Note_on_c, 1, 72, 82
3, 14592, Note_off_c, 1, 76, 31
3, 14592, Note_off_c, 1, 72, 40
3, 14592, Note_on_c, 1, 74, 82
3, 14592, Note_on_c, 1, 71, 82
3, 14736, Note_off_c, 1, 74, 58
3, 14736, Note_off_c, 1, 71, 14
3, 14784, Note_on_c, 1, 79, 102
3, 14976, Note_off_c, 1, 79, 66
3, 14976, Note_on_c, 1, 67, 102
3, 15061, Channel_aftertouch_c, 1, 2
3, 15075, Channel_aftertouch_c, 1, 4
3, 15089, Channel_aftertouch_c, 1, 6
3, 15123, Channel_aftertouch_c, 1, 4
3, 15130, Channel_aftertouch_c, 1, 0
3, 15168, Note_off_c, 1, 67, 96
3, 16896, Note_on_c, 1, 79, 62
3, 16896, Note_on_c, 1, 76, 62
3, 16944, Note_off_c, 1, 79, 63
3, 16944, Note_off_c, 1, 76, 18
3, 16944, Note_on_c, 1, 81, 62
3, 16944, Note_on_c, 1, 77, 62
3, 16992, Note_off_c, 1, 81, 14
3, 16992, Note_off_c, 1, 77, 63
3, 16992, Note_on_c, 1, 79, 62
3, 16992, Note_on_c, 1, 76, 62
3, 17040, Note_off_c, 1, 79, 42
3, 17040, Note_off_c, 1, 76, 45
3, 17040, Note_on_c, 1, 74, 62
3, 17040, Note_on_c, 1, 77, 62
3, 17088, Note_off_c, 1, 74, 80
3, 17088, Note_off_c, 1, 77, 11
3, 17088, Note_on_c, 1, 72, 62
3, 17088, Note_on_c, 1, 76, 62
3, 17232, Note_off_c, 1, 72, 44
3, 17232, Note_off_c, 1, 76, 66
3, 18432, Note_on_c, 1, 79, 62
3, 18432, Note_on_c, 1, 76, 62
3, 18480, Note_off_c, 1, 79, 73
3, 18480, Note_off_c, 1, 76, 54
3, 18480, Note_on_c, 1, 81, 62
3, 18480, Note_on_c, 1, 77, 62
3, 18528, Note_off_c, 1, 81, 52
3, 18528, Note_off_c, 1, 77, 27
3, 18528, Note_on_c, 1, 79, 62
3, 18528, Note_on_c, 1, 76, 62
3, 18576, Note_off_c, 1, 79, 41
3, 18576, Note_off_c, 1, 76, 42
3, 18576, Note_on_c, 1, 74, 62
3, 18576, Note_on_c, 1, 77, 62
3, 18624, Note_off_c, 1, 74, 85
3, 18624, Note_off_c, 1, 77, 66
3, 18624, Note_on_c, 1, 76, 62
3, 18624, Note_on_c, 1, 72, 62
3, 18816, Note_off_c, 1, 76, 23
3, 18816, Note_off_c, 1, 72, 20
3, 19968, Note_on_c, 1, 79, 62
3, 19968, Note_on_c, 1, 76, 62
3, 20016, Note_off_c, 1, 79, 72
3, 20016, Note_off_c, 1, 76, 34
3, 20016, Note_on_c, 1, 77, 62
3, 20016, Note_on_c, 1, 81, 62
3, 20064, Note_off_c, 1, 77, 32
3, 20064, Note_off_c, 1, 81, 43
3, 20064, Note_on_c, 1, 79, 62
3, 20064, Note_on_c, 1, 76, 62
3, 20112, Note_off_c, 1, 79, 23
3, 20112, Note_off_c, 1, 76, 60
3, 20112, Note_on_c, 1, 77, 62
3, 20112, Note_on_c, 1, 74, 82
3, 20160, Note_off_c, 1, 77, 74
3, 20160, Note_off_c, 1, 74, 64
3, 20160, Note_on_c, 1, 76, 62
3, 20160, Note_on_c, 1, 72, 62
3, 20352, Note_off_c, 1, 76, 61
3, 20352, Note_off_c, 1, 72, 39
3, 20736, Note_on_c, 1, 84, 62
3, 20736, Note_on_c, 1, 81, 62
3, 20784, Note_off_c, 1, 84, 17
3, 20784, Note_off_c, 1, 81, 20
3, 20784, Note_on_c, 1, 86, 62
3, 20784, Note_on_c, 1, 82, 62
3, 20832, Note_off_c, 1, 86, 32
3, 20832, Note_off_c, 1, 82, 58
3, 20832, Note_on_c, 1, 81, 62
3, 20832, Note_on_c, 1, 84, 62
3, 20880, Note_off_c, 1, 81, 32
3, 20880, Note_off_c, 1, 84, 41
3, 20880, Note_on_c, 1, 82, 62
3, 20880, Note_on_c, 1, 79, 62
3, 20928, Note_off_c, 1, 82, 48
3, 20928, Note_off_c, 1, 79, 57
3, 20928, Note_on_c, 1, 77, 62
3, 20928, Note_on_c, 1, 81, 62
3, 21072, Note_off_c, 1, 77, 44
3, 21072, Note_off_c, 1, 81, 64
3, 21504, Note_on_c, 1, 82, 62
3, 21504, Note_on_c, 1, 79, 62
3, 21552, Note_off_c, 1, 82, 55
3, 21552, Note_off_c, 1, 79, 13
3, 21552, Note_on_c, 1, 81, 62
3, 21552, Note_on_c, 1, 84, 62
3, 21600, Note_off_c, 1, 81, 19
3, 21600, Note_off_c, 1, 84, 1
3, 21600, Note_on_c, 1, 82, 62
3, 21600, Note_on_c, 1, 79, 62
3, 21648, Note_off_c, 1, 82, 52
3, 21648, Note_off_c, 1, 79, 68
3, 21648, Note_on_c, 1, 81, 62
3, 21648, Note_on_c, 1, 77, 62
3, 21696, Note_off_c, 1, 81, 68
3, 21696, Note_off_c, 1, 77, 64
3, 21696, Note_on_c, 1, 79, 62
3, 21696, Note_on_c, 1, 76, 62
3, 21888, Note_off_c, 1, 79, 56
3, 21888, Note_off_c, 1, 76, 16
3, 23808, Note_on_c, 1, 79, 82
3, 23808, Note_on_c, 1, 76, 82
3, 23952, Note_off_c, 1, 79, 39
3, 23952, Note_off_c, 1, 76, 19
3, 24000, Note_on_c, 1, 79, 82
3, 24000, Note_on_c, 1, 76, 82
3, 24240, Note_off_c, 1, 79, 47
3, 24240, Note_off_c, 1, 76, 4
3, 24288, Note_on_c, 1, 77, 82
3, 24288, Note_on_c, 1, 81, 82
3, 24336, Note_off_c, 1, 77, 55
3, 24336, Note_off_c, 1, 81, 2
3, 24336, Note_on_c, 1, 76, 82
3, 24336, Note_on_c, 1, 79, 82
3, 24384, Note_off_c, 1, 76, 59
3, 24384, Note_off_c, 1, 79, 61
3, 24384, Note_on_c, 1, 77, 82
3, 24384, Note_on_c, 1, 74, 82
3, 24456, Note_off_c, 1, 77, 68
3, 24456, Note_off_c, 1, 74, 54
3, 24480, Note_on_c, 1, 76, 82
3, 24480, Note_on_c, 1, 72, 82
3, 24552, Note_off_c, 1, 76, 78
3, 24552, Note_off_c, 1, 72, 58
3, 24576, Note_on_c, 1, 67, 82
3, 24576, Note_on_c, 1, 76, 82
3, 24720, Note_off_c, 1, 67, 33
3, 24720, Note_off_c, 1, 76, 26
3, 24720, Note_on_c, 1, 74, 82
3, 24720, Note_on_c, 1, 65, 82
3, 24768, Note_off_c, 1, 74, 41
3, 24768, Note_off_c, 1, 65, 64
3, 24768, Note_on_c, 1, 64, 82
3, 24768, Note_on_c, 1, 72, 82
3, 25152, Note_off_c, 1, 64, 1
3, 25152, Note_off_c, 1, 72, 1
3, 25152, Note_on_c, 1, 62, 82
3, 25152, Note_on_c, 1, 71, 82
3, 25320, Note_off_c, 1, 62, 46
3, 25320, Note_off_c, 1, 71, 60
3, 25344, Note_on_c, 1, 72, 82
3, 25344, Note_on_c, 1, 64, 82
3, 25536, Note_off_c, 1, 72, 42
3, 25536, Note_off_c, 1, 64, 39
3, 27264, Note_on_c, 1, 72, 82
3, 27264, Note_on_c, 1, 76, 82
3, 27312, Note_off_c, 1, 72, 38
3, 27312, Note_off_c, 1, 76, 25
3, 27456, Note_on_c, 1, 74, 82
3, 27456, Note_on_c, 1, 77, 82
3, 27504, Note_off_c, 1, 74, 46
3, 27504, Note_off_c, 1, 77, 50
3, 27648, Note_on_c, 1, 79, 82
3, 27648, Note_on_c, 1, 76, 82
3, 27696, Note_off_c, 1, 79, 54
3, 27696, Note_off_c, 1, 76, 52
3, 27840, Note_on_c, 1, 77, 82
3, 27840, Note_on_c, 1, 74, 82
3, 27888, Note_off_c, 1, 77, 53
3, 27888, Note_off_c, 1, 74, 64
3, 28032, Note_on_c, 1, 76, 82
3, 28032, Note_on_c, 1, 72, 82
3, 28080, Note_off_c, 1, 76, 55
3, 28080, Note_off_c, 1, 72, 42
3, 28224, Note_on_c, 1, 74, 82
3, 28224, Note_on_c, 1, 71, 82
3, 28272, Note_off_c, 1, 74, 44
3, 28272, Note_off_c, 1, 71, 37
3, 28416, Note_on_c, 1, 72, 82
3, 28800, Note_on_c, 1, 81, 82
3, 29184, Note_off_c, 1, 72, 6
3, 29184, Note_off_c, 1, 81, 28
3, 29184, Note_on_c, 1, 72, 82
3, 29184, Note_on_c, 1, 76, 82
3, 29424, Note_off_c, 1, 72, 2
3, 29424, Note_off_c, 1, 76, 36
3, 29472, Note_on_c, 1, 77, 82
3, 29472, Note_on_c, 1, 74, 82
3, 29520, Note_off_c, 1, 77, 72
3, 29520, Note_off_c, 1, 74, 49
3, 29520, Note_on_c, 1, 79, 82
3, 29520, Note_on_c, 1, 76, 82
3, 29568, Note_off_c, 1, 79, 50
3, 29568, Note_off_c, 1, 76, 62
3, 29568, Note_on_c, 1, 76, 82
3, 29568, Note_on_c, 1, 79, 82
3, 29664, Note_off_c, 1, 76, 51
3, 29664, Note_off_c, 1, 79, 6
3, 29664, Note_on_c, 1, 74, 82
3, 29664, Note_on_c, 1, 77, 82
3, 29760, Note_off_c, 1, 74, 72
3, 29760, Note_off_c, 1, 77, 68
3, 29760, Note_on_c, 1, 76, 82
3, 29760, Note_on_c, 1, 72, 82
3, 29808, Note_off_c, 1, 76, 78
3, 29808, Note_off_c, 1, 72, 47
3, 29856, Note_on_c, 1, 74, 82
3, 29856, Note_on_c, 1, 71, 82
3, 29904, Note_off_c, 1, 74, 80
3, 29904, Note_off_c, 1, 71, 35
3, 29952, Note_on_c, 1, 72, 82
3, 30048, Note_off_c, 1, 72, 42
3, 30144, Note_on_c, 1, 72, 82
3, 30144, Note_on_c, 1, 67, 82
3, 30192, Note_off_c, 1, 72, 35
3, 30192, Note_off_c, 1, 67, 64
3, 30288, Note_on_c, 1, 67, 82
3, 30288, Note_on_c, 1, 72, 82
3, 30336, Note_off_c, 1, 67, 63
3, 30336, Note_off_c, 1, 72, 53
3, 30336, Note_on_c, 1, 72, 82
3, 30336, Note_on_c, 1, 67, 82
3, 30432, Note_off_c, 1, 72, 31
3, 30432, Note_off_c, 1, 67, 38
3, 30528, Note_on_c, 1, 72, 82
3, 30528, Note_on_c, 1, 76, 82
3, 30576, Note_off_c, 1, 72, 25
3, 30576, Note_off_c, 1, 76, 30
3, 30672, Note_on_c, 1, 76, 82
3, 30672, Note_on_c, 1, 72, 82
3, 30720, Note_off_c, 1, 76, 50
3, 30720, Note_off_c, 1, 72, 28
3, 30720, Note_on_c, 1, 76, 82
3, 30720, Note_on_c, 1, 72, 82
3, 30816, Note_off_c, 1, 76, 2
3, 30816, Note_off_c, 1, 72, 14
3, 30912, Note_on_c, 1, 79, 82
3, 30912, Note_on_c, 1, 76, 82
3, 30960, Note_off_c, 1, 79, 56
3, 30960, Note_off_c, 1, 76, 54
3, 31056, Note_on_c, 1, 79, 82
3, 31104, Note_off_c, 1, 79, 63
3, 31104, Note_on_c, 1, 79, 82
3, 31104, Note_on_c, 1, 76, 82
3, 31200, Note_off_c, 1, 79, 1
3, 31200, Note_off_c, 1, 76, 4
3, 31296, Note_on_c, 1, 84, 82
3, 31296, Note_on_c, 1, 76, 82
3, 31344, Note_off_c, 1, 84, 20
3, 31344, Note_off_c, 1, 76, 32
3, 31440, Note_on_c, 1, 76, 82
3, 31440, Note_on_c, 1, 84, 82
3, 31488, Note_off_c, 1, 76, 64
3, 31488, Note_off_c, 1, 84, 21
3, 31488, Note_on_c, 1, 76, 82
3, 31488, Note_on_c, 1, 84, 82
3, 31608, Note_off_c, 1, 76, 30
3, 31632, Note_off_c, 1, 84, 9
3, 31680, Note_on_c, 1, 84, 72
3, 31872, Note_off_c, 1, 84, 4
3, 31872, Note_on_c, 1, 83, 72
3, 32064, Note_off_c, 1, 83, 1
3, 32064, Note_on_c, 1, 81, 72
3, 32232, Note_off_c, 1, 81, 34
3, 32256, Note_on_c, 1, 79, 92
3, 32352, Note_off_c, 1, 79, 70
3, 32448, Note_on_c, 1, 77, 72
3, 32640, Note_off_c, 1, 77, 62
3, 32640, Note_on_c, 1, 76, 72
3, 32832, Note_off_c, 1, 76, 1
3, 32832, Note_on_c, 1, 74, 72
3, 33000, Note_off_c, 1, 74, 50
3, 33024, Note_on_c, 1, 72, 92
3, 33168, Note_off_c, 1, 72, 71
3, 65280, Note_on_c, 1, 74, 63
3, 65315, Note_off_c, 1, 74, 70
3, 65376, Note_on_c, 1, 81, 63
3, 65414, Note_off_c, 1, 81, 52
3, 65472, Note_on_c, 1, 78, 63
3, 65472, Note_on_c, 1, 84, 63
3, 65498, Note_off_c, 1, 84, 9
3, 65504, Note_off_c, 1, 78, 72
3, 65568, Note_on_c, 1, 78, 63
3, 65568, Note_on_c, 1, 84, 63
3, 65594, Note_off_c, 1, 84, 35
3, 65599, Note_off_c, 1, 78, 67
3, 65664, Note_on_c, 1, 83, 63
3, 65664, Note_on_c, 1, 79, 63
3, 65841, Note_off_c, 1, 79, 60
3, 65842, Note_off_c, 1, 83, 47
3, 65952, Note_on_c, 1, 79, 63
3, 65952, Note_on_c, 1, 83, 63
3, 65986, Note_off_c, 1, 83, 16
3, 65995, Note_off_c, 1, 79, 68
3, 66048, Note_on_c, 1, 78, 63
3, 66048, Note_on_c, 1, 81, 63
3, 66074, Note_off_c, 1, 81, 68
3, 66077, Note_off_c, 1, 78, 55
3, 66144, Note_on_c, 1, 81, 63
3, 66179, Note_off_c, 1, 81, 77
3, 66240, Note_on_c, 1, 78, 63
3, 66240, Note_on_c, 1, 84, 63
3, 66261, Note_off_c, 1, 84, 39
3, 66274, Note_off_c, 1, 78, 55
3, 66336, Note_on_c, 1, 84, 63
3, 66368, Note_off_c, 1, 84, 70
3, 66432, Note_on_c, 1, 79, 63
3, 66432, Note_on_c, 1, 83, 63
3, 66591, Note_off_c, 1, 83, 50
3, 66602, Note_off_c, 1, 79, 52
3, 66720, Note_on_c, 1, 79, 63
3, 66720, Note_on_c, 1, 83, 63
3, 66766, Note_off_c, 1, 79, 67
3, 66773, Note_off_c, 1, 83, 29
3, 66816, Note_on_c, 1, 78, 63
3, 66816, Note_on_c, 1, 81, 63
3, 66867, Note_off_c, 1, 81, 65
3, 66876, Note_off_c, 1, 78, 40
3, 67008, Note_on_c, 1, 86, 63
3, 67008, Note_on_c, 1, 74, 63
3, 67042, Note_off_c, 1, 74, 82
3, 67064, Note_off_c, 1, 86, 35
3, 67200, Note_on_c, 1, 74, 63
3, 67200, Note_on_c, 1, 62, 63
3, 67261, Channel_aftertouch_c, 1, 12
3, 67272, Channel_aftertouch_c, 1, 8
3, 67284, Channel_aftertouch_c, 1, 12
3, 67307, Channel_aftertouch_c, 1, 17
3, 67320, Channel_aftertouch_c, 1, 21
3, 67331, Channel_aftertouch_c, 1, 25
3, 67343, Channel_aftertouch_c, 1, 28
3, 67355, Channel_aftertouch_c, 1, 31
3, 67367, Channel_aftertouch_c, 1, 34
3, 67403, Note_off_c, 1, 62, 97
3, 67412, Note_off_c, 1, 74, 92
3, 67426, Channel_aftertouch_c, 1, 12
3, 67437, Channel_aftertouch_c, 1, 0
3, 91392, Note_on_c, 1, 79, 72
3, 91392, Note_on_c, 1, 67, 72
3, 92522, Note_off_c, 1, 79, 12
3, 92525, Note_off_c, 1, 67, 68
3, 92736, Note_on_c, 1, 67, 72
3, 92736, Note_on_c, 1, 71, 72
3, 92784, Note_on_c, 1, 69, 72
3, 92784, Note_on_c, 1, 72, 72
3, 92790, Note_off_c, 1, 71, 34
3, 92793, Note_off_c, 1, 67, 34
3, 92832, Note_on_c, 1, 74, 72
3, 92832, Note_on_c, 1, 71, 72
3, 92849, Note_off_c, 1, 72, 59
3, 92858, Note_off_c, 1, 69, 1
3, 92880, Note_on_c, 1, 67, 72
3, 92893, Note_off_c, 1, 71, 73
3, 92896, Note_off_c, 1, 74, 71
3, 92916, Note_off_c, 1, 67, 52
3, 92928, Note_on_c, 1, 72, 72
3, 92928, Note_on_c, 1, 76, 72
3, 93144, Note_off_c, 1, 72, 78
3, 93144, Note_off_c, 1, 76, 21
3, 94272, Note_on_c, 1, 79, 72
3, 94320, Note_on_c, 1, 81, 72
3, 94320, Note_on_c, 1, 78, 72
3, 94340, Note_off_c, 1, 79, 54
3, 94368, Note_off_c, 1, 81, 68
3, 94368, Note_on_c, 1, 79, 72
3, 94368, Note_on_c, 1, 83, 72
3, 94377, Note_off_c, 1, 78, 31
3, 94405, Note_off_c, 1, 79, 73
3, 94416, Note_off_c, 1, 83, 4
3, 94416, Note_on_c, 1, 79, 76
3, 94416, Note_on_c, 1, 83, 76
3, 94464, Note_off_c, 1, 79, 64
3, 94464, Note_off_c, 1, 83, 64
3, 94464, Note_on_c, 1, 84, 72
3, 94464, Note_on_c, 1, 81, 72
3, 95208, Note_off_c, 1, 84, 1
3, 95208, Note_off_c, 1, 81, 71
3, 95232, Note_on_c, 1, 79, 72
3, 95232, Note_on_c, 1, 83, 72
3, 95952, Note_off_c, 1, 79, 59
3, 95952, Note_off_c, 1, 83, 12
3, 96000, Note_on_c, 1, 81, 72
3, 96000, Note_on_c, 1, 76, 72
3, 96264, Note_off_c, 1, 81, 51
3, 96288, Note_on_c, 1, 83, 72
3, 96336, Note_off_c, 1, 83, 34
3, 96336, Note_on_c, 1, 84, 72
3, 96361, Note_off_c, 1, 76, 71
3, 96380, Note_off_c, 1, 84, 35
3, 96384, Note_on_c, 1, 71, 72
3, 96384, Note_on_c, 1, 79, 72
3, 96528, Note_off_c, 1, 71, 49
3, 96528, Note_off_c, 1, 79, 43
3, 96576, Note_on_c, 1, 78, 72
3, 96576, Note_on_c, 1, 69, 72
3, 96720, Note_off_c, 1, 78, 38
3, 96720, Note_off_c, 1, 69, 4
3, 96768, Note_on_c, 1, 67, 72
3, 96768, Note_on_c, 1, 79, 72
3, 97129, Note_off_c, 1, 67, 56
3, 97152, Note_on_c, 1, 76, 72
3, 97512, Note_off_c, 1, 79, 34
3, 97526, Note_off_c, 1, 76, 18
3, 97536, Note_on_c, 1, 74, 72
3, 97651, Note_off_c, 1, 74, 34
3, 97728, Note_on_c, 1, 74, 72
3, 97728, Note_on_c, 1, 71, 72
3, 97968, Note_off_c, 1, 71, 1
3, 97969, Note_off_c, 1, 74, 58
3, 98016, Note_on_c, 1, 72, 72
3, 98016, Note_on_c, 1, 76, 72
3, 98055, Note_off_c, 1, 72, 52
3, 98064, Note_on_c, 1, 71, 72
3, 98064, Note_on_c, 1, 74, 72
3, 98071, Note_off_c, 1, 76, 65
3, 98094, Note_off_c, 1, 71, 59
3, 98100, Note_off_c, 1, 74, 45
3, 98112, Note_on_c, 1, 72, 72
3, 98112, Note_on_c, 1, 69, 72
3, 98145, Note_off_c, 1, 72, 55
3, 98145, Note_off_c, 1, 69, 64
3, 98208, Note_on_c, 1, 67, 72
3, 98208, Note_on_c, 1, 71, 72
3, 98240, Note_off_c, 1, 67, 77
3, 98242, Note_off_c, 1, 71, 63
3, 98304, Note_on_c, 1, 71, 72
3, 98304, Note_on_c, 1, 74, 72
3, 98415, Note_off_c, 1, 74, 16
3, 98443, Note_off_c, 1, 71, 43
3, 98448, Note_on_c, 1, 69, 72
3, 98448, Note_on_c, 1, 72, 72
3, 98496, Note_off_c, 1, 69, 71
3, 98496, Note_on_c, 1, 67, 72
3, 98496, Note_on_c, 1, 71, 72
3, 98511, Note_off_c, 1, 72, 58
3, 98856, Note_off_c, 1, 67, 3
3, 98856, Note_off_c, 1, 71, 56
3, 98880, Note_on_c, 1, 66, 72
3, 98880, Note_on_c, 1, 69, 72
3, 99024, Note_off_c, 1, 66, 127
3, 99024, Note_off_c, 1, 69, 97
3, 99072, Note_on_c, 1, 67, 72
3, 99323, Note_off_c, 1, 67, 74
3, 129024, Note_on_c, 1, 84, 82
3, 129216, Note_off_c, 1, 84, 17
3, 129312, Note_on_c, 1, 79, 82
3, 129360, Note_off_c, 1, 79, 74
3, 129408, Note_on_c, 1, 76, 82
3, 129456, Note_off_c, 1, 76, 40
3, 129504, Note_on_c, 1, 72, 82
3, 129552, Note_off_c, 1, 72, 51
3, 129600, Note_on_c, 1, 76, 82
3, 129648, Note_off_c, 1, 76, 36
3, 129696, Note_on_c, 1, 79, 82
3, 129744, Note_off_c, 1, 79, 38
3, 129792, Note_on_c, 1, 84, 82
3, 130080, Note_off_c, 1, 84, 13
3, 130080, Note_on_c, 1, 79, 82
3, 130128, Note_off_c, 1, 79, 69
3, 130176, Note_on_c, 1, 76, 82
3, 130224, Note_off_c, 1, 76, 49
3, 130272, Note_on_c, 1, 72, 82
3, 130320, Note_off_c, 1, 72, 42
3, 130368, Note_on_c, 1, 76, 82
3, 130416, Note_off_c, 1, 76, 22
3, 130464, Note_on_c, 1, 79, 82
3, 130512, Note_off_c, 1, 79, 17
3, 130560, Note_on_c, 1, 84, 82
3, 130752, Note_off_c, 1, 84, 57
3, 130752, Note_on_c, 1, 72, 62
3, 130944, Note_off_c, 1, 72, 1
3, 130944, Note_on_c, 1, 71, 62
3, 131136, Note_off_c, 1, 71, 34
3, 131136, Note_on_c, 1, 72, 62
3, 131328, Note_off_c, 1, 72, 28
3, 131328, Note_on_c, 1, 74, 82
3, 131424, Note_off_c, 1, 74, 56
3, 131520, Note_on_c, 1, 74, 62
3, 131712, Note_off_c, 1, 74, 31
3, 131712, Note_on_c, 1, 73, 62
3, 131904, Note_off_c, 1, 73, 25
3, 131904, Note_on_c, 1, 74, 62
3, 132096, Note_off_c, 1, 74, 5
3, 132096, Note_on_c, 1, 76, 82
3, 132192, Note_off_c, 1, 76, 59
3, 132288, Note_on_c, 1, 76, 62
3, 132480, Note_off_c, 1, 76, 59
3, 132480, Note_on_c, 1, 75, 62
3, 132672, Note_off_c, 1, 75, 22
3, 132672, Note_on_c, 1, 76, 62
3, 132864, Note_off_c, 1, 76, 35
3, 132864, Note_on_c, 1, 77, 62
3, 133056, Note_off_c, 1, 77, 58
3, 133056, Note_on_c, 1, 79, 72
3, 133248, Note_off_c, 1, 79, 67
3, 133248, Note_on_c, 1, 81, 82
3, 133440, Note_off_c, 1, 81, 65
3, 133440, Note_on_c, 1, 83, 92
3, 133632, Note_off_c, 1, 83, 27
3, 133632, Note_on_c, 1, 84, 90
3, 133824, Note_off_c, 1, 84, 8
3, 156672, Note_on_c, 1, 77, 78
3, 156672, Note_on_c, 1, 71, 84
3, 158121, Note_off_c, 1, 71, 32
3, 158124, Note_off_c, 1, 77, 13
3, 158208, Note_on_c, 1, 76, 82
3, 158208, Note_on_c, 1, 72, 79
3, 159546, Note_off_c, 1, 72, 13
3, 159549, Note_off_c, 1, 76, 64
3, 159744, Note_on_c, 1, 74, 88
3, 159744, Note_on_c, 1, 71, 82
3, 159792, Note_off_c, 1, 74, 69
3, 159840, Note_on_c, 1, 74, 96
3, 159856, Note_off_c, 1, 71, 8
3, 159882, Note_off_c, 1, 74, 68
3, 159936, Note_on_c, 1, 71, 78
3, 159936, Note_on_c, 1, 77, 84
3, 159967, Note_off_c, 1, 77, 65
3, 159970, Note_off_c, 1, 71, 51
3, 160032, Note_on_c, 1, 71, 72
3, 160032, Note_on_c, 1, 77, 86
3, 160060, Note_off_c, 1, 77, 71
3, 160065, Note_off_c, 1, 71, 52
3, 160128, Note_on_c, 1, 72, 59
3, 160128, Note_on_c, 1, 76, 84
3, 160337, Note_off_c, 1, 76, 20
3, 160343, Note_off_c, 1, 72, 48
3, 160416, Note_on_c, 1, 72, 82
3, 160416, Note_on_c, 1, 76, 92
3, 160448, Note_off_c, 1, 76, 37
3, 160457, Note_off_c, 1, 72, 36
3, 160512, Note_on_c, 1, 74, 90
3, 160512, Note_on_c, 1, 71, 65
3, 160541, Note_off_c, 1, 71, 27
3, 160550, Note_off_c, 1, 74, 72
3, 160608, Note_on_c, 1, 74, 88
3, 160640, Note_off_c, 1, 74, 74
3, 160704, Note_on_c, 1, 71, 72
3, 160704, Note_on_c, 1, 77, 96
3, 160730, Note_off_c, 1, 77, 68
3, 160732, Note_off_c, 1, 71, 50
3, 160800, Note_on_c, 1, 77, 78
3, 160800, Note_on_c, 1, 71, 68
3, 160827, Note_off_c, 1, 77, 67
3, 160829, Note_off_c, 1, 71, 51
3, 160896, Note_on_c, 1, 72, 70
3, 160896, Note_on_c, 1, 76, 88
3, 161089, Note_off_c, 1, 76, 47
3, 161098, Note_off_c, 1, 72, 47
3, 161184, Note_on_c, 1, 72, 86
3, 161184, Note_on_c, 1, 76, 104
3, 161224, Note_off_c, 1, 72, 29
3, 161229, Note_off_c, 1, 76, 43
3, 161280, Note_on_c, 1, 74, 98
3, 161280, Note_on_c, 1, 71, 74
3, 161341, Note_off_c, 1, 71, 33
3, 161353, Note_off_c, 1, 74, 58
3, 161472, Note_on_c, 1, 79, 92
3, 161664, Note_on_c, 1, 67, 86
3, 161688, Note_off_c, 1, 79, 76
3, 161904, Note_off_c, 1, 67, 86
3, 180864, Note_on_c, 1, 76, 72
3, 180864, Note_on_c, 1, 72, 72
3, 180944, Note_off_c, 1, 76, 74
3, 180944, Note_off_c, 1, 72, 45
3, 181056, Note_on_c, 1, 74, 72
3, 181056, Note_on_c, 1, 77, 72
3, 181136, Note_off_c, 1, 74, 74
3, 181136, Note_off_c, 1, 77, 70
3, 181248, Note_on_c, 1, 76, 72
3, 181248, Note_on_c, 1, 79, 72
3, 181328, Note_off_c, 1, 76, 73
3, 181328, Note_off_c, 1, 79, 70
3, 181440, Note_on_c, 1, 74, 72
3, 181440, Note_on_c, 1, 77, 72
3, 181520, Note_off_c, 1, 74, 60
3, 181520, Note_off_c, 1, 77, 76
3, 181632, Note_on_c, 1, 76, 72
3, 181632, Note_on_c, 1, 72, 72
3, 181712, Note_off_c, 1, 76, 81
3, 181712, Note_off_c, 1, 72, 59
3, 181824, Note_on_c, 1, 74, 72
3, 181824, Note_on_c, 1, 71, 72
3, 181904, Note_off_c, 1, 74, 85
3, 181904, Note_off_c, 1, 71, 55
3, 183552, Note_on_c, 1, 76, 72
3, 183552, Note_on_c, 1, 79, 72
3, 183936, Note_off_c, 1, 79, 12
3, 183936, Note_on_c, 1, 74, 72
3, 183936, Note_on_c, 1, 77, 72
3, 183944, Note_off_c, 1, 76, 8
3, 184296, Note_off_c, 1, 77, 59
3, 184320, Note_off_c, 1, 74, 50
3, 184320, Note_on_c, 1, 76, 72
3, 184320, Note_on_c, 1, 72, 72
3, 184440, Note_off_c, 1, 76, 59
3, 184440, Note_off_c, 1, 72, 40
3, 184512, Note_on_c, 1, 76, 72
3, 184512, Note_on_c, 1, 72, 72
3, 184584, Note_off_c, 1, 76, 64
3, 184584, Note_off_c, 1, 72, 55
3, 184704, Note_on_c, 1, 76, 72
3, 184704, Note_on_c, 1, 79, 72
3, 184896, Note_off_c, 1, 76, 22
3, 184896, Note_on_c, 1, 72, 72
3, 184896, Note_on_c, 1, 76, 72
3, 184920, Note_off_c, 1, 79, 21
3, 185088, Note_off_c, 1, 72, 47
3, 185088, Note_off_c, 1, 76, 66
3, 185280, Note_on_c, 1, 74, 72
3, 185280, Note_on_c, 1, 71, 72
3, 185376, Note_off_c, 1, 74, 71
3, 185376, Note_off_c, 1, 71, 58
3, 185472, Note_on_c, 1, 74, 72
3, 185472, Note_on_c, 1, 77, 72
3, 185664, Note_off_c, 1, 74, 33
3, 185664, Note_on_c, 1, 74, 72
3, 185664, Note_on_c, 1, 71, 72
3, 185688, Note_off_c, 1, 77, 60
3, 185856, Note_off_c, 1, 74, 69
3, 185856, Note_off_c, 1, 71, 51
3, 185856, Note_on_c, 1, 72, 80
3, 186069, Note_off_c, 1, 72, 48
3, 186144, Note_on_c, 1, 79, 116
3, 186175, Note_off_c, 1, 79, 56
3, 186240, Note_on_c, 1, 76, 96
3, 186270, Note_off_c, 1, 76, 74
3, 186336, Note_on_c, 1, 72, 80
3, 186373, Note_off_c, 1, 72, 48
3, 186432, Note_on_c, 1, 76, 94
3, 186459, Note_off_c, 1, 76, 66
3, 186528, Note_on_c, 1, 79, 90
3, 186564, Note_off_c, 1, 79, 60
3, 186624, Note_on_c, 1, 84, 94
3, 186823, Note_off_c, 1, 84, 34
3, 186912, Note_on_c, 1, 79, 116
3, 186940, Note_off_c, 1, 79, 56
3, 187008, Note_on_c, 1, 76, 104
3, 187039, Note_off_c, 1, 76, 71
3, 187104, Note_on_c, 1, 72, 86
3, 187141, Note_off_c, 1, 72, 60
3, 187200, Note_on_c, 1, 76, 96
3, 187227, Note_off_c, 1, 76, 60
3, 187296, Note_on_c, 1, 79, 96
3, 187335, Note_off_c, 1, 79, 56
3, 187392, Note_on_c, 1, 76, 104
3, 187392, Note_on_c, 1, 84, 92
3, 187580, Note_off_c, 1, 84, 21
3, 187595, Note_off_c, 1, 76, 58
3, 187680, Note_on_c, 1, 74, 90
3, 187680, Note_on_c, 1, 83, 86
3, 187713, Note_off_c, 1, 83, 47
3, 187726, Note_off_c, 1, 74, 55
3, 187776, Note_on_c, 1, 72, 74
3, 187776, Note_on_c, 1, 81, 92
3, 187983, Note_off_c, 1, 72, 47
3, 188001, Note_off_c, 1, 81, 61
3, 188064, Note_on_c, 1, 79, 96
3, 188064, Note_on_c, 1, 71, 59
3, 188093, Note_off_c, 1, 71, 42
3, 188096, Note_off_c, 1, 79, 77
3, 188160, Note_on_c, 1, 77, 94
3, 188160, Note_on_c, 1, 69, 66
3, 188329, Note_off_c, 1, 69, 12
3, 188395, Note_off_c, 1, 77, 68
3, 188448, Note_on_c, 1, 76, 98
3, 188448, Note_on_c, 1, 67, 90
3, 188520, Note_off_c, 1, 76, 76
3, 188520, Note_off_c, 1, 67, 79
3, 188544, Note_on_c, 1, 74, 96
3, 188544, Note_on_c, 1, 65, 82
3, 188777, Note_off_c, 1, 65, 51
3, 188784, Note_off_c, 1, 74, 48
3, 188832, Note_on_c, 1, 73, 76
3, 188832, Note_on_c, 1, 64, 94
3, 188896, Note_off_c, 1, 73, 32
3, 188904, Note_off_c, 1, 64, 49
3, 188928, Note_on_c, 1, 74, 110
3, 188928, Note_on_c, 1, 69, 116
3, 188977, Note_off_c, 1, 74, 79
3, 189024, Note_on_c, 1, 76, 104
3, 189053, Note_off_c, 1, 76, 73
3, 189120, Note_on_c, 1, 77, 98
3, 189150, Note_off_c, 1, 77, 80
3, 189216, Note_on_c, 1, 79, 110
3, 189253, Note_off_c, 1, 79, 44
3, 189312, Note_on_c, 1, 81, 116
3, 189352, Note_off_c, 1, 81, 47
3, 189360, Note_on_c, 1, 79, 1
3, 189397, Note_off_c, 1, 79, 61
3, 189408, Note_on_c, 1, 77, 1
3, 189452, Note_off_c, 1, 77, 76
3, 189456, Note_on_c, 1, 76, 1
3, 189504, Note_off_c, 1, 76, 81
3, 189504, Note_on_c, 1, 74, 1
3, 189552, Note_on_c, 1, 72, 104
3, 189555, Note_off_c, 1, 74, 29
3, 189576, Note_off_c, 1, 72, 80
3, 189600, Note_on_c, 1, 71, 92
3, 189627, Note_off_c, 1, 71, 29
3, 189632, Note_off_c, 1, 69, 74
3, 189648, Note_on_c, 1, 72, 102
3, 189680, Note_off_c, 1, 72, 64
3, 189696, Note_on_c, 1, 71, 74
3, 189696, Note_on_c, 1, 67, 98
3, 189754, Note_off_c, 1, 67, 23
3, 189760, Note_off_c, 1, 71, 19
3, 189792, Note_on_c, 1, 74, 114
3, 189888, Note_off_c, 1, 74, 33
3, 189888, Note_on_c, 1, 71, 104
3, 189888, Note_on_c, 1, 77, 116
3, 189936, Note_off_c, 1, 71, 83
3, 189936, Note_off_c, 1, 77, 79
3, 189984, Note_on_c, 1, 77, 1
3, 189984, Note_on_c, 1, 71, 116
3, 190032, Note_off_c, 1, 77, 79
3, 190032, Note_off_c, 1, 71, 72
3, 190080, Note_on_c, 1, 72, 1
3, 190080, Note_on_c, 1, 76, 1
3, 190248, Note_off_c, 1, 72, 56
3, 190248, Note_off_c, 1, 76, 44
3, 190368, Note_on_c, 1, 72, 110
3, 190368, Note_on_c, 1, 76, 116
3, 190416, Note_off_c, 1, 72, 47
3, 190416, Note_off_c, 1, 76, 60
3, 190464, Note_on_c, 1, 71, 92
3, 190464, Note_on_c, 1, 74, 1
3, 190488, Note_off_c, 1, 74, 83
3, 190494, Note_off_c, 1, 71, 76
3, 190560, Note_on_c, 1, 74, 1
3, 190656, Note_off_c, 1, 74, 87
3, 190656, Note_on_c, 1, 71, 90
3, 190656, Note_on_c, 1, 77, 84
3, 190704, Note_off_c, 1, 71, 81
3, 190704, Note_off_c, 1, 77, 67
3, 190752, Note_on_c, 1, 71, 96
3, 190752, Note_on_c, 1, 77, 1
3, 190774, Note_off_c, 1, 77, 89
3, 190776, Note_off_c, 1, 71, 71
3, 190848, Note_on_c, 1, 76, 1
3, 190848, Note_on_c, 1, 72, 104
3, 190992, Note_off_c, 1, 76, 67
3, 190992, Note_off_c, 1, 72, 68
3, 191136, Note_on_c, 1, 84, 1
3, 191136, Note_on_c, 1, 76, 1
3, 191164, Note_off_c, 1, 76, 92
3, 191165, Note_off_c, 1, 84, 76
3, 191232, Note_on_c, 1, 67, 1
3, 191492, Note_off_c, 1, 67, 65
3, 195072, Note_on_c, 1, 84, 92
3, 195264, Note_on_c, 1, 72, 92
3, 196176, Note_off_c, 1, 72, 2
3, 196224, Note_off_c, 1, 84, 4
3, 196416, Note_on_c, 1, 72, 82
3, 196416, Note_on_c, 1, 76, 82
3, 196464, Note_off_c, 1, 72, 31
3, 196464, Note_off_c, 1, 76, 30
3, 196464, Note_on_c, 1, 74, 82
3, 196464, Note_on_c, 1, 77, 82
3, 196512, Note_off_c, 1, 74, 5
3, 196512, Note_off_c, 1, 77, 61
3, 196512, Note_on_c, 1, 79, 82
3, 196560, Note_off_c, 1, 79, 33
3, 196560, Note_on_c, 1, 76, 82
3, 196560, Note_on_c, 1, 72, 82
3, 196608, Note_off_c, 1, 76, 71
3, 196608, Note_off_c, 1, 72, 46
3, 196608, Note_on_c, 1, 77, 82
3, 196608, Note_on_c, 1, 81, 82
3, 196704, Note_off_c, 1, 77, 27
3, 196704, Note_off_c, 1, 81, 8
3, 197952, Note_on_c, 1, 72, 82
3, 198000, Note_off_c, 1, 72, 24
3, 198000, Note_on_c, 1, 74, 82
3, 198000, Note_on_c, 1, 71, 82
3, 198048, Note_off_c, 1, 74, 62
3, 198048, Note_off_c, 1, 71, 64
3, 198048, Note_on_c, 1, 76, 82
3, 198048, Note_on_c, 1, 72, 82
3, 198096, Note_off_c, 1, 76, 58
3, 198096, Note_off_c, 1, 72, 52
3, 198096, Note_on_c, 1, 72, 82
3, 198096, Note_on_c, 1, 76, 82
3, 198144, Note_off_c, 1, 72, 50
3, 198144, Note_off_c, 1, 76, 53
3, 198144, Note_on_c, 1, 77, 82
3, 198144, Note_on_c, 1, 74, 82
3, 198912, Note_off_c, 1, 77, 22
3, 198912, Note_off_c, 1, 74, 70
3, 198912, Note_on_c, 1, 72, 82
3, 198912, Note_on_c, 1, 76, 82
3, 199632, Note_off_c, 1, 72, 55
3, 199680, Note_off_c, 1, 76, 54
3, 199680, Note_on_c, 1, 74, 82
3, 199680, Note_on_c, 1, 69, 82
3, 199968, Note_off_c, 1, 74, 49
3, 199968, Note_on_c, 1, 76, 82
3, 200016, Note_off_c, 1, 69, 80
3, 200016, Note_off_c, 1, 76, 62
3, 200016, Note_on_c, 1, 77, 82
3, 200064, Note_off_c, 1, 77, 81
3, 200064, Note_on_c, 1, 72, 82
3, 200064, Note_on_c, 1, 64, 82
3, 200208, Note_off_c, 1, 72, 6
3, 200208, Note_off_c, 1, 64, 33
3, 200256, Note_on_c, 1, 62, 82
3, 200256, Note_on_c, 1, 71, 82
3, 200400, Note_off_c, 1, 62, 63
3, 200400, Note_off_c, 1, 71, 58
3, 200448, Note_on_c, 1, 72, 82
3, 200832, Note_on_c, 1, 81, 82
3, 201216, Note_off_c, 1, 72, 6
3, 201216, Note_off_c, 1, 81, 28
3, 201216, Note_on_c, 1, 72, 82
3, 201216, Note_on_c, 1, 76, 82
3, 201456, Note_off_c, 1, 72, 2
3, 201456, Note_off_c, 1, 76, 36
3, 201504, Note_on_c, 1, 77, 82
3, 201504, Note_on_c, 1, 74, 82
3, 201552, Note_off_c, 1, 77, 72
3, 201552, Note_off_c, 1, 74, 49
3, 201552, Note_on_c, 1, 79, 82
3, 201552, Note_on_c, 1, 76, 82
3, 201600, Note_off_c, 1, 79, 50
3, 201600, Note_off_c, 1, 76, 62
3, 201600, Note_on_c, 1, 76, 82
3, 201600, Note_on_c, 1, 79, 82
3, 201696, Note_off_c, 1, 76, 51
3, 201696, Note_off_c, 1, 79, 6
3, 201696, Note_on_c, 1, 74, 82
3, 201696, Note_on_c, 1, 77, 82
3, 201792, Note_off_c, 1, 74, 72
3, 201792, Note_off_c, 1, 77, 68
3, 201792, Note_on_c, 1, 76, 82
3, 201792, Note_on_c, 1, 72, 82
3, 201840, Note_off_c, 1, 76, 78
3, 201840, Note_off_c, 1, 72, 47
3, 201888, Note_on_c, 1, 74, 82
3, 201888, Note_on_c, 1, 71, 82
3, 201936, Note_off_c, 1, 74, 80
3, 201936, Note_off_c, 1, 71, 35
3, 201984, Note_on_c, 1, 72, 82
3, 202080, Note_off_c, 1, 72, 42
3, 202176, Note_on_c, 1, 72, 82
3, 202176, Note_on_c, 1, 67, 82
3, 202224, Note_off_c, 1, 72, 35
3, 202224, Note_off_c, 1, 67, 64
3, 202320, Note_on_c, 1, 67, 82
3, 202320, Note_on_c, 1, 72, 82
3, 202368, Note_off_c, 1, 67, 63
3, 202368, Note_off_c, 1, 72, 53
3, 202368, Note_on_c, 1, 72, 82
3, 202368, Note_on_c, 1, 67, 82
3, 202464, Note_off_c, 1, 72, 31
3, 202464, Note_off_c, 1, 67, 38
3, 202560, Note_on_c, 1, 72, 82
3, 202560, Note_on_c, 1, 76, 82
3, 202608, Note_off_c, 1, 72, 25
3, 202608, Note_off_c, 1, 76, 30
3, 202704, Note_on_c, 1, 76, 82
3, 202704, Note_on_c, 1, 72, 82
3, 202752, Note_off_c, 1, 76, 50
3, 202752, Note_off_c, 1, 72, 28
3, 202752, Note_on_c, 1, 76, 82
3, 202752, Note_on_c, 1, 72, 82
3, 202848, Note_off_c, 1, 76, 2
3, 202848, Note_off_c, 1, 72, 14
3, 202944, Note_on_c, 1, 79, 82
3, 202944, Note_on_c, 1, 76, 82
3, 202992, Note_off_c, 1, 79, 56
3, 202992, Note_off_c, 1, 76, 54
3, 203088, Note_on_c, 1, 79, 82
3, 203136, Note_off_c, 1, 79, 63
3, 203136, Note_on_c, 1, 79, 82
3, 203136, Note_on_c, 1, 76, 82
3, 203232, Note_off_c, 1, 79, 1
3, 203232, Note_off_c, 1, 76, 4
3, 203328, Note_on_c, 1, 84, 82
3, 203328, Note_on_c, 1, 76, 82
3, 203376, Note_off_c, 1, 84, 20
3, 203376, Note_off_c, 1, 76, 32
3, 203472, Note_on_c, 1, 76, 82
3, 203472, Note_on_c, 1, 84, 82
3, 203520, Note_off_c, 1, 76, 64
3, 203520, Note_off_c, 1, 84, 21
3, 203520, Note_on_c, 1, 76, 78
3, 203520, Note_on_c, 1, 84, 78
3, 203689, Note_off_c, 1, 84, 29
3, 203691, Note_off_c, 1, 76, 20
3, 203904, Note_on_c, 1, 84, 78
3, 204145, Note_off_c, 1, 84, 1
3, 204192, Note_on_c, 1, 79, 78
3, 204228, Note_off_c, 1, 79, 59
3, 204288, Note_on_c, 1, 76, 78
3, 204315, Note_off_c, 1, 76, 88
3, 204384, Note_on_c, 1, 72, 78
3, 204415, Note_off_c, 1, 72, 62
3, 204480, Note_on_c, 1, 76, 78
3, 204507, Note_off_c, 1, 76, 85
3, 204576, Note_on_c, 1, 79, 78
3, 204608, Note_off_c, 1, 79, 62
3, 204672, Note_on_c, 1, 84, 78
3, 204880, Note_off_c, 1, 84, 49
3, 204960, Note_on_c, 1, 79, 78
3, 204986, Note_off_c, 1, 79, 88
3, 205056, Note_on_c, 1, 76, 78
3, 205081, Note_off_c, 1, 76, 90
3, 205152, Note_on_c, 1, 72, 78
3, 205183, Note_off_c, 1, 72, 63
3, 205248, Note_on_c, 1, 76, 78
3, 205275, Note_off_c, 1, 76, 83
3, 205344, Note_on_c, 1, 79, 78
3, 205371, Note_off_c, 1, 79, 82
3, 205440, Note_on_c, 1, 76, 78
3, 205469, Note_off_c, 1, 76, 84
3, 205536, Note_on_c, 1, 72, 78
3, 205568, Note_off_c, 1, 72, 70
3, 205632, Note_on_c, 1, 76, 78
3, 205664, Note_off_c, 1, 76, 83
3, 205728, Note_on_c, 1, 79, 78
3, 205756, Note_off_c, 1, 79, 83
3, 205824, Note_on_c, 1, 72, 78
3, 205824, Note_on_c, 1, 76, 78
3, 206046, Note_off_c, 1, 76, 89
3, 206049, Note_off_c, 1, 72, 81
3, 206049, End_track
4, 0, Start_track
4, 0, MIDI_port, 0
4, 0, Title_t, "French Horns        "
4, 0, Program_c, 4, 60
4, 0, Control_c, 4, 10, 64
4, 0, Note_on_c, 4, 60, 115
4, 0, Program_c, 4, 60
4, 183, Note_off_c, 4, 60, 35
4, 288, Note_on_c, 4, 55, 127
4, 336, Note_off_c, 4, 55, 71
4, 384, Note_on_c, 4, 52, 117
4, 432, Note_off_c, 4, 52, 61
4, 480, Note_on_c, 4, 48, 117
4, 528, Note_off_c, 4, 48, 63
4, 576, Note_on_c, 4, 52, 121
4, 600, Note_off_c, 4, 52, 51
4, 672, Note_on_c, 4, 55, 1
4, 696, Note_off_c, 4, 55, 66
4, 768, Note_on_c, 4, 60, 107
4, 956, Note_off_c, 4, 60, 29
4, 1056, Note_on_c, 4, 55, 119
4, 1104, Note_off_c, 4, 55, 71
4, 1152, Note_on_c, 4, 52, 109
4, 1200, Note_off_c, 4, 52, 60
4, 1248, Note_on_c, 4, 48, 115
4, 1296, Note_off_c, 4, 48, 50
4, 1344, Note_on_c, 4, 52, 113
4, 1392, Note_off_c, 4, 52, 38
4, 1440, Note_on_c, 4, 55, 123
4, 1488, Note_off_c, 4, 55, 30
4, 1536, Note_on_c, 4, 60, 109
4, 1728, Note_off_c, 4, 60, 24
4, 2304, Note_on_c, 4, 62, 91
4, 2447, Note_off_c, 4, 62, 75
4, 3072, Note_on_c, 4, 55, 71
4, 3072, Note_on_c, 4, 64, 91
4, 3266, Note_off_c, 4, 55, 52
4, 3270, Note_off_c, 4, 64, 68
4, 4608, Note_on_c, 4, 60, 93
4, 4608, Note_on_c, 4, 48, 87
4, 5928, Note_off_c, 4, 48, 71
4, 5928, Note_off_c, 4, 60, 50
4, 5952, Note_on_c, 4, 48, 103
4, 5952, Note_on_c, 4, 60, 103
4, 6000, Note_off_c, 4, 48, 21
4, 6000, Note_off_c, 4, 60, 22
4, 6084, Note_on_c, 4, 60, 103
4, 6084, Note_on_c, 4, 48, 103
4, 6132, Note_off_c, 4, 60, 64
4, 6132, Note_off_c, 4, 48, 64
4, 6144, Note_on_c, 4, 48, 93
4, 6144, Note_on_c, 4, 60, 93
4, 7440, Note_off_c, 4, 60, 52
4, 7440, Note_off_c, 4, 48, 48
4, 7488, Note_on_c, 4, 52, 103
4, 7488, Note_on_c, 4, 60, 103
4, 7536, Note_off_c, 4, 52, 58
4, 7536, Note_off_c, 4, 60, 45
4, 7608, Note_on_c, 4, 52, 103
4, 7608, Note_on_c, 4, 60, 103
4, 7656, Note_off_c, 4, 52, 72
4, 7656, Note_off_c, 4, 60, 60
4, 7680, Note_on_c, 4, 62, 103
4, 7680, Note_on_c, 4, 55, 103
4, 8426, Note_off_c, 4, 55, 13
4, 8427, Note_off_c, 4, 62, 50
4, 8448, Note_on_c, 4, 60, 103
4, 8448, Note_on_c, 4, 64, 103
4, 9043, Note_off_c, 4, 60, 7
4, 9061, Note_off_c, 4, 64, 60
4, 9216, Note_on_c, 4, 65, 103
4, 9216, Note_on_c, 4, 62, 103
4, 9583, Note_off_c, 4, 65, 1
4, 9600, Note_on_c, 4, 60, 103
4, 9600, Note_on_c, 4, 64, 103
4, 9609, Note_off_c, 4, 62, 1
4, 9719, Note_off_c, 4, 60, 1
4, 9787, Note_off_c, 4, 64, 48
4, 9792, Note_on_c, 4, 62, 103
4, 9792, Note_on_c, 4, 55, 103
4, 9831, Note_off_c, 4, 55, 38
4, 9853, Note_off_c, 4, 62, 54
4, 9984, Note_on_c, 4, 48, 93
4, 9984, Note_on_c, 4, 60, 93
4, 10032, Note_off_c, 4, 60, 37
4, 10056, Note_off_c, 4, 48, 42
4, 10080, Note_on_c, 4, 62, 93
4, 10128, Note_off_c, 4, 62, 60
4, 10176, Note_on_c, 4, 52, 93
4, 10176, Note_on_c, 4, 64, 93
4, 10224, Note_off_c, 4, 64, 72
4, 10248, Note_off_c, 4, 52, 48
4, 10272, Note_on_c, 4, 65, 93
4, 10320, Note_off_c, 4, 65, 74
4, 10368, Note_on_c, 4, 67, 93
4, 10368, Note_on_c, 4, 55, 93
4, 10560, Note_off_c, 4, 67, 61
4, 10561, Note_off_c, 4, 55, 92
4, 10752, Note_on_c, 4, 62, 109
4, 10752, Note_on_c, 4, 55, 113
4, 11111, Note_off_c, 4, 55, 1
4, 11114, Note_off_c, 4, 62, 1
4, 11136, Note_on_c, 4, 62, 125
4, 11136, Note_on_c, 4, 55, 119
4, 11207, Note_off_c, 4, 55, 40
4, 11210, Note_off_c, 4, 62, 63
4, 11328, Note_on_c, 4, 62, 115
4, 11328, Note_on_c, 4, 55, 113
4, 11438, Note_off_c, 4, 55, 27
4, 11449, Note_off_c, 4, 62, 54
4, 11520, Note_on_c, 4, 64, 119
4, 11520, Note_on_c, 4, 60, 92
4, 11747, Note_off_c, 4, 64, 39
4, 11759, Note_off_c, 4, 60, 11
4, 11904, Note_on_c, 4, 64, 117
4, 11904, Note_on_c, 4, 60, 76
4, 11985, Note_off_c, 4, 60, 16
4, 11987, Note_off_c, 4, 64, 55
4, 12096, Note_on_c, 4, 64, 115
4, 12096, Note_on_c, 4, 60, 86
4, 12175, Note_off_c, 4, 60, 6
4, 12178, Note_off_c, 4, 64, 34
4, 12288, Note_on_c, 4, 62, 101
4, 12288, Note_on_c, 4, 60, 77
4, 12327, Note_off_c, 4, 62, 46
4, 12384, Note_on_c, 4, 64, 119
4, 12430, Note_off_c, 4, 64, 38
4, 12480, Note_on_c, 4, 65, 109
4, 12528, Note_off_c, 4, 65, 60
4, 12576, Note_on_c, 4, 67, 121
4, 12636, Note_off_c, 4, 67, 55
4, 12672, Note_on_c, 4, 65, 1
4, 12816, Note_off_c, 4, 60, 24
4, 12816, Note_off_c, 4, 65, 70
4, 12864, Note_on_c, 4, 62, 111
4, 12864, Note_on_c, 4, 60, 94
4, 13008, Note_off_c, 4, 62, 8
4, 13008, Note_off_c, 4, 60, 31
4, 13056, Note_on_c, 4, 62, 117
4, 13056, Note_on_c, 4, 55, 96
4, 13250, Note_off_c, 4, 62, 73
4, 13250, Note_off_c, 4, 55, 60
4, 13344, Note_on_c, 4, 55, 121
4, 13344, Note_on_c, 4, 62, 125
4, 13416, Note_off_c, 4, 55, 79
4, 13416, Note_off_c, 4, 62, 76
4, 13440, Note_on_c, 4, 64, 113
4, 13440, Note_on_c, 4, 60, 117
4, 13488, Note_off_c, 4, 64, 55
4, 13488, Note_off_c, 4, 60, 42
4, 13536, Note_on_c, 4, 60, 118
4, 13536, Note_on_c, 4, 64, 113
4, 13584, Note_off_c, 4, 60, 46
4, 13584, Note_off_c, 4, 64, 63
4, 13632, Note_on_c, 4, 60, 118
4, 13632, Note_on_c, 4, 64, 112
4, 13680, Note_off_c, 4, 60, 43
4, 13680, Note_off_c, 4, 64, 45
4, 13728, Note_on_c, 4, 60, 117
4, 13728, Note_on_c, 4, 64, 113
4, 13776, Note_off_c, 4, 60, 47
4, 13776, Note_off_c, 4, 64, 71
4, 13824, Note_on_c, 4, 62, 125
4, 13824, Note_on_c, 4, 55, 115
4, 14064, Note_off_c, 4, 62, 97
4, 14064, Note_off_c, 4, 55, 96
4, 14112, Note_on_c, 4, 55, 121
4, 14112, Note_on_c, 4, 62, 127
4, 14184, Note_off_c, 4, 55, 65
4, 14184, Note_off_c, 4, 62, 78
4, 14208, Note_on_c, 4, 64, 117
4, 14208, Note_on_c, 4, 60, 118
4, 14256, Note_off_c, 4, 64, 62
4, 14256, Note_off_c, 4, 60, 33
4, 14304, Note_on_c, 4, 60, 114
4, 14304, Note_on_c, 4, 64, 111
4, 14352, Note_off_c, 4, 60, 49
4, 14352, Note_off_c, 4, 64, 65
4, 14400, Note_on_c, 4, 60, 113
4, 14400, Note_on_c, 4, 64, 111
4, 14448, Note_off_c, 4, 60, 39
4, 14448, Note_off_c, 4, 64, 66
4, 14496, Note_on_c, 4, 64, 115
4, 14496, Note_on_c, 4, 60, 111
4, 14544, Note_off_c, 4, 64, 36
4, 14544, Note_off_c, 4, 60, 4
4, 14592, Note_on_c, 4, 62, 119
4, 14592, Note_on_c, 4, 55, 123
4, 14649, Note_off_c, 4, 55, 31
4, 14653, Note_off_c, 4, 62, 64
4, 14784, Note_on_c, 4, 67, 1
4, 14784, Note_on_c, 4, 55, 127
4, 14904, Note_off_c, 4, 55, 39
4, 14907, Note_off_c, 4, 67, 56
4, 14976, Note_on_c, 4, 55, 127
4, 15143, Note_off_c, 4, 55, 68
4, 15360, Note_on_c, 4, 60, 89
4, 16115, Note_off_c, 4, 60, 31
4, 16128, Note_on_c, 4, 55, 103
4, 16823, Note_off_c, 4, 55, 31
4, 16896, Note_on_c, 4, 48, 86
4, 17191, Note_off_c, 4, 48, 57
4, 19968, Note_on_c, 4, 48, 65
4, 19968, Note_on_c, 4, 60, 65
4, 22366, Note_off_c, 4, 60, 38
4, 22367, Note_off_c, 4, 48, 82
4, 23808, Note_on_c, 4, 67, 101
4, 23808, Note_on_c, 4, 64, 107
4, 23928, Note_off_c, 4, 67, 71
4, 23928, Note_off_c, 4, 64, 45
4, 24000, Note_on_c, 4, 67, 115
4, 24000, Note_on_c, 4, 64, 113
4, 24360, Note_off_c, 4, 64, 12
4, 24384, Note_on_c, 4, 62, 118
4, 24384, Note_on_c, 4, 65, 111
4, 24396, Note_off_c, 4, 67, 83
4, 24432, Note_off_c, 4, 65, 74
4, 24436, Note_off_c, 4, 62, 43
4, 24480, Note_on_c, 4, 60, 110
4, 24480, Note_on_c, 4, 64, 109
4, 24521, Note_off_c, 4, 64, 62
4, 24524, Note_off_c, 4, 60, 18
4, 24576, Note_on_c, 4, 64, 113
4, 24576, Note_on_c, 4, 67, 117
4, 24648, Note_off_c, 4, 64, 12
4, 24648, Note_off_c, 4, 67, 6
4, 24720, Note_on_c, 4, 65, 115
4, 24720, Note_on_c, 4, 62, 113
4, 24768, Note_off_c, 4, 62, 64
4, 24768, Note_on_c, 4, 64, 117
4, 24768, Note_on_c, 4, 60, 115
4, 24771, Note_off_c, 4, 65, 65
4, 25100, Note_off_c, 4, 64, 46
4, 25104, Note_off_c, 4, 60, 11
4, 25152, Note_on_c, 4, 55, 117
4, 25152, Note_on_c, 4, 62, 115
4, 25296, Note_off_c, 4, 55, 73
4, 25296, Note_off_c, 4, 62, 1
4, 25344, Note_on_c, 4, 52, 89
4, 25344, Note_on_c, 4, 60, 65
4, 25518, Note_off_c, 4, 60, 29
4, 25521, Note_off_c, 4, 52, 33
4, 25728, Note_on_c, 4, 60, 82
4, 25728, Note_on_c, 4, 64, 115
4, 25800, Note_off_c, 4, 60, 26
4, 25800, Note_off_c, 4, 64, 38
4, 25920, Note_on_c, 4, 62, 103
4, 25920, Note_on_c, 4, 55, 103
4, 25992, Note_off_c, 4, 62, 86
4, 25992, Note_off_c, 4, 55, 57
4, 26112, Note_on_c, 4, 52, 89
4, 26112, Note_on_c, 4, 60, 103
4, 26328, Note_off_c, 4, 52, 68
4, 26347, Note_off_c, 4, 60, 57
4, 26496, Note_on_c, 4, 60, 94
4, 26496, Note_on_c, 4, 64, 101
4, 26568, Note_off_c, 4, 60, 38
4, 26568, Note_off_c, 4, 64, 41
4, 26688, Note_on_c, 4, 62, 113
4, 26688, Note_on_c, 4, 55, 109
4, 26760, Note_off_c, 4, 62, 62
4, 26760, Note_off_c, 4, 55, 53
4, 26880, Note_on_c, 4, 60, 93
4, 26880, Note_on_c, 4, 52, 89
4, 27106, Note_off_c, 4, 52, 61
4, 27107, Note_off_c, 4, 60, 40
4, 27264, Note_on_c, 4, 64, 103
4, 27264, Note_on_c, 4, 60, 96
4, 27336, Note_off_c, 4, 64, 55
4, 27336, Note_off_c, 4, 60, 31
4, 27456, Note_on_c, 4, 62, 107
4, 27456, Note_on_c, 4, 55, 107
4, 27528, Note_off_c, 4, 62, 54
4, 27528, Note_off_c, 4, 55, 55
4, 27648, Note_on_c, 4, 60, 109
4, 27648, Note_on_c, 4, 52, 109
4, 27696, Note_off_c, 4, 60, 43
4, 27707, Note_off_c, 4, 52, 41
4, 27840, Note_on_c, 4, 55, 115
4, 27840, Note_on_c, 4, 62, 109
4, 27912, Note_off_c, 4, 55, 63
4, 27912, Note_off_c, 4, 62, 71
4, 28032, Note_on_c, 4, 60, 103
4, 28032, Note_on_c, 4, 64, 113
4, 28104, Note_off_c, 4, 60, 20
4, 28104, Note_off_c, 4, 64, 29
4, 28224, Note_on_c, 4, 55, 113
4, 28224, Note_on_c, 4, 62, 117
4, 28296, Note_off_c, 4, 55, 28
4, 28296, Note_off_c, 4, 62, 43
4, 28416, Note_on_c, 4, 48, 109
4, 28416, Note_on_c, 4, 60, 113
4, 28536, Note_off_c, 4, 48, 29
4, 28560, Note_off_c, 4, 60, 35
4, 28608, Note_on_c, 4, 60, 117
4, 28656, Note_off_c, 4, 60, 47
4, 28704, Note_on_c, 4, 60, 115
4, 28776, Note_off_c, 4, 60, 38
4, 28800, Note_on_c, 4, 62, 127
4, 28800, Note_on_c, 4, 60, 108
4, 28944, Note_off_c, 4, 62, 55
4, 28944, Note_off_c, 4, 60, 40
4, 28992, Note_on_c, 4, 62, 115
4, 28992, Note_on_c, 4, 60, 114
4, 29040, Note_off_c, 4, 62, 74
4, 29040, Note_off_c, 4, 60, 35
4, 29088, Note_on_c, 4, 62, 111
4, 29088, Note_on_c, 4, 60, 111
4, 29160, Note_off_c, 4, 62, 52
4, 29160, Note_off_c, 4, 60, 19
4, 29184, Note_on_c, 4, 60, 116
4, 29184, Note_on_c, 4, 64, 119
4, 29328, Note_off_c, 4, 60, 13
4, 29328, Note_off_c, 4, 64, 64
4, 29376, Note_on_c, 4, 64, 109
4, 29376, Note_on_c, 4, 60, 115
4, 29424, Note_off_c, 4, 64, 72
4, 29424, Note_off_c, 4, 60, 32
4, 29460, Note_on_c, 4, 64, 110
4, 29472, Note_on_c, 4, 60, 116
4, 29508, Note_off_c, 4, 64, 64
4, 29520, Note_off_c, 4, 60, 39
4, 29568, Note_on_c, 4, 64, 119
4, 29568, Note_on_c, 4, 67, 117
4, 29664, Note_on_c, 4, 62, 115
4, 29664, Note_on_c, 4, 65, 121
4, 29669, Note_off_c, 4, 64, 67
4, 29676, Note_off_c, 4, 67, 88
4, 29760, Note_off_c, 4, 62, 67
4, 29760, Note_off_c, 4, 65, 64
4, 29760, Note_on_c, 4, 64, 125
4, 29760, Note_on_c, 4, 60, 106
4, 29808, Note_off_c, 4, 64, 75
4, 29808, Note_off_c, 4, 60, 45
4, 29856, Note_on_c, 4, 62, 111
4, 29856, Note_on_c, 4, 55, 117
4, 29904, Note_off_c, 4, 62, 92
4, 29928, Note_off_c, 4, 55, 52
4, 29952, Note_on_c, 4, 52, 107
4, 29952, Note_on_c, 4, 60, 120
4, 30072, Note_off_c, 4, 52, 48
4, 30072, Note_off_c, 4, 60, 35
4, 30144, Note_on_c, 4, 60, 107
4, 30144, Note_on_c, 4, 52, 102
4, 30192, Note_off_c, 4, 60, 31
4, 30192, Note_off_c, 4, 52, 39
4, 30264, Note_on_c, 4, 60, 103
4, 30264, Note_on_c, 4, 52, 103
4, 30312, Note_off_c, 4, 60, 64
4, 30312, Note_off_c, 4, 52, 64
4, 30336, Note_on_c, 4, 52, 103
4, 30336, Note_on_c, 4, 60, 101
4, 30456, Note_off_c, 4, 52, 32
4, 30480, Note_off_c, 4, 60, 21
4, 30528, Note_on_c, 4, 60, 99
4, 30528, Note_on_c, 4, 64, 117
4, 30576, Note_off_c, 4, 60, 53
4, 30576, Note_off_c, 4, 64, 73
4, 30660, Note_on_c, 4, 64, 113
4, 30672, Note_on_c, 4, 60, 113
4, 30708, Note_off_c, 4, 64, 64
4, 30720, Note_off_c, 4, 60, 64
4, 30720, Note_on_c, 4, 64, 117
4, 30720, Note_on_c, 4, 60, 112
4, 30864, Note_off_c, 4, 64, 6
4, 30864, Note_off_c, 4, 60, 17
4, 30912, Note_on_c, 4, 67, 121
4, 30912, Note_on_c, 4, 64, 121
4, 30984, Note_off_c, 4, 67, 72
4, 30984, Note_off_c, 4, 64, 61
4, 31056, Note_on_c, 4, 67, 113
4, 31056, Note_on_c, 4, 64, 113
4, 31104, Note_off_c, 4, 67, 64
4, 31104, Note_off_c, 4, 64, 64
4, 31104, Note_on_c, 4, 64, 117
4, 31104, Note_on_c, 4, 67, 125
4, 31248, Note_off_c, 4, 64, 43
4, 31248, Note_off_c, 4, 67, 16
4, 31296, Note_on_c, 4, 64, 125
4, 31296, Note_on_c, 4, 60, 116
4, 31344, Note_off_c, 4, 64, 74
4, 31344, Note_off_c, 4, 60, 45
4, 31440, Note_on_c, 4, 64, 113
4, 31440, Note_on_c, 4, 60, 113
4, 31488, Note_off_c, 4, 64, 64
4, 31488, Note_off_c, 4, 60, 64
4, 31488, Note_on_c, 4, 64, 107
4, 31488, Note_on_c, 4, 60, 97
4, 31609, Note_off_c, 4, 60, 12
4, 31612, Note_off_c, 4, 64, 54
4, 32256, Note_on_c, 4, 55, 109
4, 32256, Note_on_c, 4, 67, 117
4, 32405, Note_off_c, 4, 55, 62
4, 32415, Note_off_c, 4, 67, 53
4, 33024, Note_on_c, 4, 48, 111
4, 33024, Note_on_c, 4, 60, 113
4, 33212, Note_off_c, 4, 60, 59
4, 33221, Note_off_c, 4, 48, 45
4, 65280, Note_on_c, 4, 62, 122
4, 65357, Note_off_c, 4, 62, 20
4, 65568, Note_on_c, 4, 62, 122
4, 65568, Note_on_c, 4, 55, 122
4, 65600, Note_off_c, 4, 62, 89
4, 65600, Note_off_c, 4, 55, 84
4, 65664, Note_on_c, 4, 62, 122
4, 65664, Note_on_c, 4, 55, 122
4, 65696, Note_off_c, 4, 62, 85
4, 65696, Note_off_c, 4, 55, 87
4, 65760, Note_on_c, 4, 62, 122
4, 65760, Note_on_c, 4, 55, 122
4, 65792, Note_off_c, 4, 62, 90
4, 65792, Note_off_c, 4, 55, 85
4, 65856, Note_on_c, 4, 55, 122
4, 65856, Note_on_c, 4, 62, 122
4, 65872, Note_off_c, 4, 55, 94
4, 65888, Note_off_c, 4, 62, 89
4, 65952, Note_on_c, 4, 55, 122
4, 65952, Note_on_c, 4, 62, 122
4, 65984, Note_off_c, 4, 55, 84
4, 65984, Note_off_c, 4, 62, 82
4, 66048, Note_on_c, 4, 62, 122
4, 66224, Note_off_c, 4, 62, 64
4, 66336, Note_on_c, 4, 62, 122
4, 66368, Note_off_c, 4, 62, 87
4, 66432, Note_on_c, 4, 55, 122
4, 66432, Note_on_c, 4, 62, 122
4, 66464, Note_off_c, 4, 55, 88
4, 66464, Note_off_c, 4, 62, 87
4, 66528, Note_on_c, 4, 62, 122
4, 66528, Note_on_c, 4, 55, 122
4, 66560, Note_off_c, 4, 62, 79
4, 66560, Note_off_c, 4, 55, 90
4, 66624, Note_on_c, 4, 62, 122
4, 66624, Note_on_c, 4, 55, 122
4, 66656, Note_off_c, 4, 62, 81
4, 66656, Note_off_c, 4, 55, 84
4, 66720, Note_on_c, 4, 62, 122
4, 66720, Note_on_c, 4, 55, 122
4, 66752, Note_off_c, 4, 62, 85
4, 66752, Note_off_c, 4, 55, 87
4, 66816, Note_on_c, 4, 62, 122
4, 66960, Note_off_c, 4, 62, 78
4, 67008, Note_on_c, 4, 62, 122
4, 67136, Note_off_c, 4, 62, 85
4, 67200, Note_on_c, 4, 62, 122
4, 67360, Note_off_c, 4, 62, 80
4, 72234, Note_on_c, 4, 55, 113
4, 74514, Note_off_c, 4, 55, 83
4, 91392, Note_on_c, 4, 55, 1
4, 92664, Note_off_c, 4, 55, 67
4, 92741, Note_on_c, 4, 55, 1
4, 92773, Note_off_c, 4, 55, 77
4, 92897, Note_on_c, 4, 55, 1
4, 92913, Note_off_c, 4, 55, 91
4, 92945, Note_on_c, 4, 55, 98
4, 94090, Note_off_c, 4, 55, 34
4, 94279, Note_on_c, 4, 62, 1
4, 94281, Note_on_c, 4, 55, 125
4, 94311, Note_off_c, 4, 55, 62
4, 94312, Note_off_c, 4, 62, 73
4, 94416, Note_on_c, 4, 62, 1
4, 94419, Note_on_c, 4, 55, 1
4, 94430, Note_off_c, 4, 55, 92
4, 94440, Note_off_c, 4, 62, 74
4, 94464, Note_on_c, 4, 62, 1
4, 95110, Note_off_c, 4, 62, 70
4, 95238, Note_on_c, 4, 62, 1
4, 95239, Note_on_c, 4, 55, 117
4, 95811, Note_off_c, 4, 55, 58
4, 95841, Note_off_c, 4, 62, 56
4, 96006, Note_on_c, 4, 60, 85
4, 96009, Note_on_c, 4, 64, 117
4, 96263, Note_off_c, 4, 60, 25
4, 96266, Note_off_c, 4, 64, 56
4, 96403, Note_on_c, 4, 62, 127
4, 96482, Note_off_c, 4, 62, 40
4, 96583, Note_on_c, 4, 62, 127
4, 96643, Note_off_c, 4, 62, 58
4, 96768, Note_on_c, 4, 62, 123
4, 96774, Note_on_c, 4, 55, 107
4, 96880, Note_off_c, 4, 55, 56
4, 96883, Note_off_c, 4, 62, 78
4, 96975, Note_on_c, 4, 62, 1
4, 96979, Note_on_c, 4, 55, 121
4, 96995, Note_off_c, 4, 55, 61
4, 96998, Note_off_c, 4, 62, 78
4, 97065, Note_on_c, 4, 62, 125
4, 97070, Note_on_c, 4, 55, 113
4, 97088, Note_off_c, 4, 55, 62
4, 97094, Note_off_c, 4, 62, 72
4, 97163, Note_on_c, 4, 60, 113
4, 97171, Note_on_c, 4, 64, 117
4, 97274, Note_off_c, 4, 64, 52
4, 97275, Note_off_c, 4, 60, 35
4, 97356, Note_on_c, 4, 60, 117
4, 97360, Note_on_c, 4, 64, 123
4, 97372, Note_off_c, 4, 64, 65
4, 97379, Note_off_c, 4, 60, 43
4, 97443, Note_on_c, 4, 60, 107
4, 97447, Note_on_c, 4, 64, 123
4, 97466, Note_off_c, 4, 64, 44
4, 97468, Note_off_c, 4, 60, 36
4, 97544, Note_on_c, 4, 62, 125
4, 98371, Note_off_c, 4, 62, 83
4, 98506, Note_on_c, 4, 62, 1
4, 98535, Note_off_c, 4, 62, 78
4, 98662, Note_on_c, 4, 62, 1
4, 98679, Note_off_c, 4, 62, 85
4, 98707, Note_on_c, 4, 62, 1
4, 98834, Note_off_c, 4, 62, 68
4, 98898, Note_on_c, 4, 62, 1
4, 98967, Note_off_c, 4, 62, 85
4, 99093, Note_on_c, 4, 62, 1
4, 99100, Note_on_c, 4, 55, 125
4, 99321, Note_off_c, 4, 62, 93
4, 99326, Note_off_c, 4, 55, 80
4, 126734, Note_on_c, 4, 55, 121
4, 128868, Note_off_c, 4, 55, 50
4, 129024, Note_on_c, 4, 60, 115
4, 129207, Note_off_c, 4, 60, 35
4, 129312, Note_on_c, 4, 55, 127
4, 129360, Note_off_c, 4, 55, 71
4, 129408, Note_on_c, 4, 52, 117
4, 129456, Note_off_c, 4, 52, 61
4, 129504, Note_on_c, 4, 48, 117
4, 129552, Note_off_c, 4, 48, 63
4, 129600, Note_on_c, 4, 52, 121
4, 129624, Note_off_c, 4, 52, 51
4, 129696, Note_on_c, 4, 55, 1
4, 129720, Note_off_c, 4, 55, 66
4, 129792, Note_on_c, 4, 60, 107
4, 129980, Note_off_c, 4, 60, 29
4, 130080, Note_on_c, 4, 55, 119
4, 130128, Note_off_c, 4, 55, 71
4, 130176, Note_on_c, 4, 52, 109
4, 130224, Note_off_c, 4, 52, 60
4, 130272, Note_on_c, 4, 48, 115
4, 130320, Note_off_c, 4, 48, 50
4, 130368, Note_on_c, 4, 52, 113
4, 130416, Note_off_c, 4, 52, 38
4, 130464, Note_on_c, 4, 55, 123
4, 130512, Note_off_c, 4, 55, 30
4, 130560, Note_on_c, 4, 60, 89
4, 130752, Note_off_c, 4, 60, 24
4, 131328, Note_on_c, 4, 62, 91
4, 131471, Note_off_c, 4, 62, 75
4, 132096, Note_on_c, 4, 55, 91
4, 132096, Note_on_c, 4, 64, 91
4, 132290, Note_off_c, 4, 55, 52
4, 132294, Note_off_c, 4, 64, 68
4, 156674, Note_on_c, 4, 55, 1
4, 156675, Note_on_c, 4, 62, 1
4, 158130, Note_off_c, 4, 55, 22
4, 158154, Note_off_c, 4, 62, 54
4, 158208, Note_on_c, 4, 60, 1
4, 158208, Note_on_c, 4, 64, 1
4, 159556, Note_off_c, 4, 60, 44
4, 159560, Note_off_c, 4, 64, 68
4, 159735, Note_on_c, 4, 62, 1
4, 159740, Note_on_c, 4, 55, 1
4, 159894, Note_off_c, 4, 55, 59
4, 159897, Note_off_c, 4, 62, 61
4, 160047, Note_on_c, 4, 55, 1
4, 160048, Note_on_c, 4, 62, 1
4, 160078, Note_off_c, 4, 55, 79
4, 160086, Note_off_c, 4, 62, 81
4, 160128, Note_on_c, 4, 60, 1
4, 160146, Note_on_c, 4, 64, 1
4, 160159, Note_off_c, 4, 60, 53
4, 160170, Note_off_c, 4, 64, 28
4, 160224, Note_on_c, 4, 60, 1
4, 160235, Note_on_c, 4, 64, 1
4, 160259, Note_off_c, 4, 64, 50
4, 160272, Note_off_c, 4, 60, 47
4, 160320, Note_on_c, 4, 60, 1
4, 160329, Note_on_c, 4, 64, 1
4, 160344, Note_off_c, 4, 60, 53
4, 160353, Note_off_c, 4, 64, 70
4, 160409, Note_on_c, 4, 60, 1
4, 160415, Note_on_c, 4, 64, 1
4, 160439, Note_off_c, 4, 64, 56
4, 160457, Note_off_c, 4, 60, 38
4, 160516, Note_on_c, 4, 62, 1
4, 160518, Note_on_c, 4, 55, 1
4, 160710, Note_off_c, 4, 55, 53
4, 160732, Note_off_c, 4, 62, 78
4, 160795, Note_on_c, 4, 62, 1
4, 160796, Note_on_c, 4, 55, 1
4, 160843, Note_off_c, 4, 62, 77
4, 160844, Note_off_c, 4, 55, 75
4, 160894, Note_on_c, 4, 60, 1
4, 160901, Note_on_c, 4, 64, 1
4, 160925, Note_off_c, 4, 64, 62
4, 160942, Note_off_c, 4, 60, 46
4, 160992, Note_on_c, 4, 60, 1
4, 160995, Note_on_c, 4, 64, 1
4, 161019, Note_off_c, 4, 64, 62
4, 161040, Note_off_c, 4, 60, 45
4, 161088, Note_on_c, 4, 60, 1
4, 161088, Note_on_c, 4, 64, 1
4, 161120, Note_off_c, 4, 64, 64
4, 161136, Note_off_c, 4, 60, 45
4, 161176, Note_on_c, 4, 60, 1
4, 161187, Note_on_c, 4, 64, 1
4, 161211, Note_off_c, 4, 64, 41
4, 161224, Note_off_c, 4, 60, 35
4, 161285, Note_on_c, 4, 62, 1
4, 161286, Note_on_c, 4, 55, 1
4, 161345, Note_off_c, 4, 55, 18
4, 161355, Note_off_c, 4, 62, 62
4, 161477, Note_on_c, 4, 67, 1
4, 161478, Note_on_c, 4, 55, 1
4, 161589, Note_off_c, 4, 55, 62
4, 161594, Note_off_c, 4, 67, 65
4, 161687, Note_on_c, 4, 55, 1
4, 161881, Note_off_c, 4, 55, 54
4, 162048, Note_on_c, 4, 60, 97
4, 162792, Note_off_c, 4, 60, 23
4, 162816, Note_on_c, 4, 55, 113
4, 163577, Note_off_c, 4, 55, 77
4, 163584, Note_on_c, 4, 48, 101
4, 163752, Note_off_c, 4, 48, 75
4, 166656, Note_on_c, 4, 48, 88
4, 166656, Note_on_c, 4, 60, 90
4, 168960, Note_off_c, 4, 60, 68
4, 168960, Note_off_c, 4, 48, 88
4, 179328, Note_on_c, 4, 60, 1
4, 179328, Note_on_c, 4, 64, 1
4, 179400, Note_off_c, 4, 60, 40
4, 179400, Note_off_c, 4, 64, 48
4, 179520, Note_on_c, 4, 62, 1
4, 179520, Note_on_c, 4, 55, 1
4, 179592, Note_off_c, 4, 62, 88
4, 179592, Note_off_c, 4, 55, 74
4, 179712, Note_on_c, 4, 60, 1
4, 179712, Note_on_c, 4, 52, 1
4, 179904, Note_off_c, 4, 60, 50
4, 179904, Note_off_c, 4, 52, 65
4, 180096, Note_on_c, 4, 60, 1
4, 180096, Note_on_c, 4, 64, 1
4, 180168, Note_off_c, 4, 60, 42
4, 180168, Note_off_c, 4, 64, 54
4, 180288, Note_on_c, 4, 55, 1
4, 180288, Note_on_c, 4, 62, 1
4, 180360, Note_off_c, 4, 55, 76
4, 180360, Note_off_c, 4, 62, 74
4, 180480, Note_on_c, 4, 60, 1
4, 180480, Note_on_c, 4, 52, 1
4, 180648, Note_off_c, 4, 60, 41
4, 180648, Note_off_c, 4, 52, 52
4, 180864, Note_on_c, 4, 60, 1
4, 180864, Note_on_c, 4, 64, 1
4, 180936, Note_off_c, 4, 60, 40
4, 180936, Note_off_c, 4, 64, 64
4, 181056, Note_on_c, 4, 62, 1
4, 181056, Note_on_c, 4, 55, 1
4, 181128, Note_off_c, 4, 62, 76
4, 181128, Note_off_c, 4, 55, 59
4, 181248, Note_on_c, 4, 60, 1
4, 181248, Note_on_c, 4, 52, 1
4, 181320, Note_off_c, 4, 60, 27
4, 181320, Note_off_c, 4, 52, 62
4, 181440, Note_on_c, 4, 55, 1
4, 181440, Note_on_c, 4, 62, 1
4, 181512, Note_off_c, 4, 55, 76
4, 181512, Note_off_c, 4, 62, 76
4, 181632, Note_on_c, 4, 60, 1
4, 181632, Note_on_c, 4, 64, 1
4, 181704, Note_off_c, 4, 60, 59
4, 181704, Note_off_c, 4, 64, 57
4, 181824, Note_on_c, 4, 62, 1
4, 181824, Note_on_c, 4, 55, 1
4, 181896, Note_off_c, 4, 62, 78
4, 181896, Note_off_c, 4, 55, 72
4, 184320, Note_on_c, 4, 55, 117
4, 185743, Note_off_c, 4, 55, 36
4, 185856, Note_on_c, 4, 60, 121
4, 185856, Note_on_c, 4, 52, 117
4, 186048, Note_off_c, 4, 52, 42
4, 186054, Note_off_c, 4, 60, 26
4, 186240, Note_on_c, 4, 60, 121
4, 186470, Note_off_c, 4, 60, 28
4, 186528, Note_on_c, 4, 55, 1
4, 186576, Note_off_c, 4, 55, 79
4, 186624, Note_on_c, 4, 52, 121
4, 186696, Note_off_c, 4, 52, 5
4, 186720, Note_on_c, 4, 48, 119
4, 186792, Note_off_c, 4, 48, 38
4, 186816, Note_on_c, 4, 52, 127
4, 186864, Note_off_c, 4, 52, 59
4, 186912, Note_on_c, 4, 55, 119
4, 186960, Note_off_c, 4, 55, 54
4, 187008, Note_on_c, 4, 60, 125
4, 187217, Note_off_c, 4, 60, 30
4, 187296, Note_on_c, 4, 55, 1
4, 187344, Note_off_c, 4, 55, 67
4, 187392, Note_on_c, 4, 52, 127
4, 187440, Note_off_c, 4, 52, 48
4, 187488, Note_on_c, 4, 48, 97
4, 187536, Note_off_c, 4, 48, 51
4, 187584, Note_on_c, 4, 52, 125
4, 187632, Note_off_c, 4, 52, 47
4, 187680, Note_on_c, 4, 55, 125
4, 187728, Note_off_c, 4, 55, 44
4, 187776, Note_on_c, 4, 52, 127
4, 187776, Note_on_c, 4, 60, 1
4, 188040, Note_off_c, 4, 60, 36
4, 188064, Note_on_c, 4, 64, 1
4, 188136, Note_off_c, 4, 52, 19
4, 188136, Note_off_c, 4, 64, 92
4, 188160, Note_on_c, 4, 48, 117
4, 188160, Note_on_c, 4, 60, 127
4, 188379, Note_off_c, 4, 60, 82
4, 188382, Note_off_c, 4, 48, 55
4, 189409, Note_on_c, 4, 62, 1
4, 189439, Note_off_c, 4, 62, 82
4, 189503, Note_on_c, 4, 62, 1
4, 189527, Note_off_c, 4, 62, 92
4, 189589, Note_on_c, 4, 62, 1
4, 189624, Note_off_c, 4, 62, 84
4, 189692, Note_on_c, 4, 62, 1
4, 189694, Note_on_c, 4, 55, 1
4, 189871, Note_off_c, 4, 55, 74
4, 189871, Note_off_c, 4, 62, 81
4, 189984, Note_on_c, 4, 62, 1
4, 189984, Note_on_c, 4, 55, 1
4, 190032, Note_off_c, 4, 62, 79
4, 190032, Note_off_c, 4, 55, 91
4, 190080, Note_on_c, 4, 60, 125
4, 190080, Note_on_c, 4, 64, 1
4, 190128, Note_off_c, 4, 60, 68
4, 190128, Note_off_c, 4, 64, 81
4, 190176, Note_on_c, 4, 64, 1
4, 190181, Note_on_c, 4, 60, 1
4, 190224, Note_off_c, 4, 64, 81
4, 190229, Note_off_c, 4, 60, 60
4, 190279, Note_on_c, 4, 60, 1
4, 190281, Note_on_c, 4, 64, 1
4, 190305, Note_off_c, 4, 64, 64
4, 190327, Note_off_c, 4, 60, 63
4, 190368, Note_on_c, 4, 60, 127
4, 190371, Note_on_c, 4, 64, 1
4, 190416, Note_off_c, 4, 60, 56
4, 190419, Note_off_c, 4, 64, 72
4, 190469, Note_on_c, 4, 62, 1
4, 190470, Note_on_c, 4, 55, 1
4, 190637, Note_off_c, 4, 62, 87
4, 190638, Note_off_c, 4, 55, 64
4, 190728, Note_on_c, 4, 62, 1
4, 190733, Note_on_c, 4, 55, 1
4, 190776, Note_off_c, 4, 62, 92
4, 190781, Note_off_c, 4, 55, 89
4, 190848, Note_on_c, 4, 64, 1
4, 190848, Note_on_c, 4, 60, 127
4, 190872, Note_off_c, 4, 64, 70
4, 190872, Note_off_c, 4, 60, 37
4, 190944, Note_on_c, 4, 60, 1
4, 190944, Note_on_c, 4, 64, 1
4, 190992, Note_off_c, 4, 60, 66
4, 190992, Note_off_c, 4, 64, 48
4, 191040, Note_on_c, 4, 60, 1
4, 191040, Note_on_c, 4, 64, 1
4, 191088, Note_off_c, 4, 60, 56
4, 191088, Note_off_c, 4, 64, 66
4, 191136, Note_on_c, 4, 60, 127
4, 191136, Note_on_c, 4, 64, 1
4, 191184, Note_off_c, 4, 60, 57
4, 191184, Note_off_c, 4, 64, 73
4, 191249, Note_on_c, 4, 60, 1
4, 191251, Note_on_c, 4, 64, 1
4, 191321, Channel_aftertouch_c, 4, 2
4, 191334, Channel_aftertouch_c, 4, 4
4, 191357, Channel_aftertouch_c, 4, 6
4, 191392, Channel_aftertouch_c, 4, 8
4, 191496, Channel_aftertouch_c, 4, 5
4, 191520, Channel_aftertouch_c, 4, 2
4, 191533, Channel_aftertouch_c, 4, 0
4, 191588, Note_off_c, 4, 60, 47
4, 191589, Note_off_c, 4, 64, 74
4, 195072, Note_on_c, 4, 60, 93
4, 195072, Note_on_c, 4, 48, 87
4, 196392, Note_off_c, 4, 48, 71
4, 196392, Note_off_c, 4, 60, 50
4, 196416, Note_on_c, 4, 48, 103
4, 196416, Note_on_c, 4, 60, 103
4, 196464, Note_off_c, 4, 48, 21
4, 196464, Note_off_c, 4, 60, 22
4, 196548, Note_on_c, 4, 60, 103
4, 196548, Note_on_c, 4, 48, 103
4, 196596, Note_off_c, 4, 60, 64
4, 196596, Note_off_c, 4, 48, 64
4, 196608, Note_on_c, 4, 48, 93
4, 196608, Note_on_c, 4, 60, 93
4, 197904, Note_off_c, 4, 60, 52
4, 197904, Note_off_c, 4, 48, 48
4, 197952, Note_on_c, 4, 52, 103
4, 197952, Note_on_c, 4, 60, 103
4, 198000, Note_off_c, 4, 52, 58
4, 198000, Note_off_c, 4, 60, 45
4, 198072, Note_on_c, 4, 52, 103
4, 198072, Note_on_c, 4, 60, 103
4, 198120, Note_off_c, 4, 52, 72
4, 198120, Note_off_c, 4, 60, 60
4, 198144, Note_on_c, 4, 62, 103
4, 198144, Note_on_c, 4, 55, 103
4, 198890, Note_off_c, 4, 55, 13
4, 198891, Note_off_c, 4, 62, 50
4, 198912, Note_on_c, 4, 60, 103
4, 198912, Note_on_c, 4, 64, 103
4, 199507, Note_off_c, 4, 60, 7
4, 199525, Note_off_c, 4, 64, 60
4, 199680, Note_on_c, 4, 65, 103
4, 199680, Note_on_c, 4, 62, 103
4, 200047, Note_off_c, 4, 65, 1
4, 200064, Note_on_c, 4, 60, 103
4, 200064, Note_on_c, 4, 64, 103
4, 200073, Note_off_c, 4, 62, 1
4, 200183, Note_off_c, 4, 60, 1
4, 200251, Note_off_c, 4, 64, 48
4, 200256, Note_on_c, 4, 62, 103
4, 200256, Note_on_c, 4, 55, 103
4, 200295, Note_off_c, 4, 55, 38
4, 200317, Note_off_c, 4, 62, 54
4, 200448, Note_on_c, 4, 48, 109
4, 200448, Note_on_c, 4, 60, 113
4, 200568, Note_off_c, 4, 48, 29
4, 200592, Note_off_c, 4, 60, 35
4, 200640, Note_on_c, 4, 60, 117
4, 200688, Note_off_c, 4, 60, 47
4, 200736, Note_on_c, 4, 60, 115
4, 200808, Note_off_c, 4, 60, 38
4, 200832, Note_on_c, 4, 62, 127
4, 200832, Note_on_c, 4, 60, 108
4, 200976, Note_off_c, 4, 62, 55
4, 200976, Note_off_c, 4, 60, 40
4, 201024, Note_on_c, 4, 62, 115
4, 201024, Note_on_c, 4, 60, 114
4, 201072, Note_off_c, 4, 62, 74
4, 201072, Note_off_c, 4, 60, 35
4, 201120, Note_on_c, 4, 62, 111
4, 201120, Note_on_c, 4, 60, 111
4, 201192, Note_off_c, 4, 62, 52
4, 201192, Note_off_c, 4, 60, 19
4, 201216, Note_on_c, 4, 60, 116
4, 201216, Note_on_c, 4, 64, 119
4, 201360, Note_off_c, 4, 60, 13
4, 201360, Note_off_c, 4, 64, 64
4, 201408, Note_on_c, 4, 64, 109
4, 201408, Note_on_c, 4, 60, 115
4, 201456, Note_off_c, 4, 64, 72
4, 201456, Note_off_c, 4, 60, 32
4, 201492, Note_on_c, 4, 64, 110
4, 201504, Note_on_c, 4, 60, 116
4, 201540, Note_off_c, 4, 64, 64
4, 201552, Note_off_c, 4, 60, 39
4, 201600, Note_on_c, 4, 64, 119
4, 201600, Note_on_c, 4, 67, 117
4, 201696, Note_on_c, 4, 62, 115
4, 201696, Note_on_c, 4, 65, 121
4, 201701, Note_off_c, 4, 64, 67
4, 201708, Note_off_c, 4, 67, 88
4, 201792, Note_off_c, 4, 62, 67
4, 201792, Note_off_c, 4, 65, 64
4, 201792, Note_on_c, 4, 64, 125
4, 201792, Note_on_c, 4, 60, 106
4, 201840, Note_off_c, 4, 64, 75
4, 201840, Note_off_c, 4, 60, 45
4, 201888, Note_on_c, 4, 62, 111
4, 201888, Note_on_c, 4, 55, 117
4, 201936, Note_off_c, 4, 62, 92
4, 201960, Note_off_c, 4, 55, 52
4, 201984, Note_on_c, 4, 52, 107
4, 201984, Note_on_c, 4, 60, 120
4, 202104, Note_off_c, 4, 52, 48
4, 202104, Note_off_c, 4, 60, 35
4, 202176, Note_on_c, 4, 60, 107
4, 202176, Note_on_c, 4, 52, 102
4, 202224, Note_off_c, 4, 60, 31
4, 202224, Note_off_c, 4, 52, 39
4, 202296, Note_on_c, 4, 60, 103
4, 202296, Note_on_c, 4, 52, 103
4, 202344, Note_off_c, 4, 60, 64
4, 202344, Note_off_c, 4, 52, 64
4, 202368, Note_on_c, 4, 52, 103
4, 202368, Note_on_c, 4, 60, 101
4, 202488, Note_off_c, 4, 52, 32
4, 202512, Note_off_c, 4, 60, 21
4, 202560, Note_on_c, 4, 60, 99
4, 202560, Note_on_c, 4, 64, 117
4, 202608, Note_off_c, 4, 60, 53
4, 202608, Note_off_c, 4, 64, 73
4, 202692, Note_on_c, 4, 64, 113
4, 202704, Note_on_c, 4, 60, 113
4, 202740, Note_off_c, 4, 64, 64
4, 202752, Note_off_c, 4, 60, 64
4, 202752, Note_on_c, 4, 64, 117
4, 202752, Note_on_c, 4, 60, 112
4, 202896, Note_off_c, 4, 64, 6
4, 202896, Note_off_c, 4, 60, 17
4, 202944, Note_on_c, 4, 67, 121
4, 202944, Note_on_c, 4, 64, 121
4, 203016, Note_off_c, 4, 67, 72
4, 203016, Note_off_c, 4, 64, 61
4, 203088, Note_on_c, 4, 67, 113
4, 203088, Note_on_c, 4, 64, 113
4, 203136, Note_off_c, 4, 67, 64
4, 203136, Note_off_c, 4, 64, 64
4, 203136, Note_on_c, 4, 64, 117
4, 203136, Note_on_c, 4, 67, 125
4, 203280, Note_off_c, 4, 64, 43
4, 203280, Note_off_c, 4, 67, 16
4, 203328, Note_on_c, 4, 64, 125
4, 203328, Note_on_c, 4, 60, 116
4, 203376, Note_off_c, 4, 64, 74
4, 203376, Note_off_c, 4, 60, 45
4, 203472, Note_on_c, 4, 64, 113
4, 203472, Note_on_c, 4, 60, 113
4, 203520, Note_off_c, 4, 64, 64
4, 203520, Note_off_c, 4, 60, 64
4, 203520, Note_on_c, 4, 64, 115
4, 203520, Note_on_c, 4, 60, 115
4, 203656, Note_off_c, 4, 64, 49
4, 203656, Note_off_c, 4, 60, 53
4, 203904, Note_on_c, 4, 60, 115
4, 204127, Note_off_c, 4, 60, 34
4, 204192, Note_on_c, 4, 55, 115
4, 204225, Note_off_c, 4, 55, 79
4, 204288, Note_on_c, 4, 52, 115
4, 204316, Note_off_c, 4, 52, 60
4, 204384, Note_on_c, 4, 48, 115
4, 204415, Note_off_c, 4, 48, 53
4, 204480, Note_on_c, 4, 52, 115
4, 204508, Note_off_c, 4, 52, 75
4, 204576, Note_on_c, 4, 55, 115
4, 204610, Note_off_c, 4, 55, 72
4, 204672, Note_on_c, 4, 60, 115
4, 204899, Note_off_c, 4, 60, 32
4, 204960, Note_on_c, 4, 55, 115
4, 204987, Note_off_c, 4, 55, 90
4, 205056, Note_on_c, 4, 52, 115
4, 205056, Note_on_c, 4, 53, 115
4, 205064, Note_off_c, 4, 53, 95
4, 205082, Note_off_c, 4, 52, 70
4, 205152, Note_on_c, 4, 48, 115
4, 205188, Note_off_c, 4, 48, 45
4, 205248, Note_on_c, 4, 52, 115
4, 205280, Note_off_c, 4, 52, 75
4, 205344, Note_on_c, 4, 55, 115
4, 205371, Note_off_c, 4, 55, 78
4, 205440, Note_on_c, 4, 52, 115
4, 205468, Note_off_c, 4, 52, 83
4, 205536, Note_on_c, 4, 48, 115
4, 205570, Note_off_c, 4, 48, 53
4, 205632, Note_on_c, 4, 52, 115
4, 205661, Note_off_c, 4, 52, 64
4, 205728, Note_on_c, 4, 55, 115
4, 205765, Note_off_c, 4, 55, 63
4, 205824, Note_on_c, 4, 60, 115
4, 205824, Note_on_c, 4, 52, 115
4, 206089, Note_off_c, 4, 52, 70
4, 206101, Note_off_c, 4, 60, 42
4, 206101, End_track
5, 0, Start_track
5, 0, MIDI_port, 0
5, 0, Title_t, "Harp-treble         "
5, 0, Program_c, 7, 46
5, 0, Control_c, 7, 10, 64
5, 0, Note_on_c, 7, 72, 1
5, 0, Program_c, 7, 46
5, 240, Note_off_c, 7, 72, 14
5, 288, Note_on_c, 7, 67, 1
5, 336, Note_off_c, 7, 67, 64
5, 384, Note_on_c, 7, 64, 1
5, 432, Note_off_c, 7, 64, 62
5, 480, Note_on_c, 7, 60, 1
5, 528, Note_off_c, 7, 60, 49
5, 576, Note_on_c, 7, 64, 1
5, 624, Note_off_c, 7, 64, 25
5, 672, Note_on_c, 7, 67, 1
5, 720, Note_off_c, 7, 67, 55
5, 768, Note_on_c, 7, 72, 1
5, 984, Note_off_c, 7, 72, 24
5, 1056, Note_on_c, 7, 67, 1
5, 1104, Note_off_c, 7, 67, 56
5, 1152, Note_on_c, 7, 64, 1
5, 1200, Note_off_c, 7, 64, 48
5, 1248, Note_on_c, 7, 60, 1
5, 1296, Note_off_c, 7, 60, 33
5, 1344, Note_on_c, 7, 64, 1
5, 1416, Note_off_c, 7, 64, 51
5, 1440, Note_on_c, 7, 67, 1
5, 1488, Note_off_c, 7, 67, 46
5, 1536, Note_on_c, 7, 72, 1
5, 1656, Note_off_c, 7, 72, 53
5, 33024, Note_on_c, 7, 84, 1
5, 33264, Note_off_c, 7, 84, 14
5, 33312, Note_on_c, 7, 79, 1
5, 33360, Note_off_c, 7, 79, 64
5, 33408, Note_on_c, 7, 76, 1
5, 33456, Note_off_c, 7, 76, 62
5, 33504, Note_on_c, 7, 72, 1
5, 33552, Note_off_c, 7, 72, 49
5, 33600, Note_on_c, 7, 76, 1
5, 33648, Note_off_c, 7, 76, 25
5, 33696, Note_on_c, 7, 79, 1
5, 33744, Note_off_c, 7, 79, 55
5, 33792, Note_on_c, 7, 84, 1
5, 34008, Note_off_c, 7, 84, 24
5, 34080, Note_on_c, 7, 79, 1
5, 34128, Note_off_c, 7, 79, 56
5, 34176, Note_on_c, 7, 76, 1
5, 34224, Note_off_c, 7, 76, 48
5, 34272, Note_on_c, 7, 72, 1
5, 34320, Note_off_c, 7, 72, 33
5, 34368, Note_on_c, 7, 76, 1
5, 34440, Note_off_c, 7, 76, 51
5, 34464, Note_on_c, 7, 79, 1
5, 34512, Note_off_c, 7, 79, 46
5, 34560, Note_on_c, 7, 84, 1
5, 34704, Note_off_c, 7, 84, 64
5, 34800, Note_on_c, 7, 60, 81
5, 34836, Note_off_c, 7, 60, 64
5, 34848, Note_on_c, 7, 72, 67
5, 34884, Note_off_c, 7, 72, 64
5, 34896, Note_on_c, 7, 60, 71
5, 34932, Note_off_c, 7, 60, 64
5, 34992, Note_on_c, 7, 59, 85
5, 35028, Note_off_c, 7, 59, 64
5, 35040, Note_on_c, 7, 71, 69
5, 35076, Note_off_c, 7, 71, 64
5, 35088, Note_on_c, 7, 59, 73
5, 35124, Note_off_c, 7, 59, 64
5, 35184, Note_on_c, 7, 60, 77
5, 35220, Note_off_c, 7, 60, 64
5, 35232, Note_on_c, 7, 72, 79
5, 35268, Note_off_c, 7, 72, 64
5, 35280, Note_on_c, 7, 60, 75
5, 35316, Note_off_c, 7, 60, 64
5, 35376, Note_on_c, 7, 62, 95
5, 35412, Note_off_c, 7, 62, 64
5, 35424, Note_on_c, 7, 74, 87
5, 35460, Note_off_c, 7, 74, 64
5, 35472, Note_on_c, 7, 62, 85
5, 35508, Note_off_c, 7, 62, 64
5, 35568, Note_on_c, 7, 62, 79
5, 35604, Note_off_c, 7, 62, 64
5, 35616, Note_on_c, 7, 74, 101
5, 35652, Note_off_c, 7, 74, 64
5, 35664, Note_on_c, 7, 62, 81
5, 35700, Note_off_c, 7, 62, 64
5, 35760, Note_on_c, 7, 61, 73
5, 35796, Note_off_c, 7, 61, 64
5, 35808, Note_on_c, 7, 73, 75
5, 35844, Note_off_c, 7, 73, 64
5, 35856, Note_on_c, 7, 61, 85
5, 35892, Note_off_c, 7, 61, 64
5, 35952, Note_on_c, 7, 62, 81
5, 35988, Note_off_c, 7, 62, 64
5, 36000, Note_on_c, 7, 74, 87
5, 36036, Note_off_c, 7, 74, 64
5, 36048, Note_on_c, 7, 62, 77
5, 36084, Note_off_c, 7, 62, 64
5, 36144, Note_on_c, 7, 64, 85
5, 36180, Note_off_c, 7, 64, 64
5, 36192, Note_on_c, 7, 76, 89
5, 36228, Note_off_c, 7, 76, 64
5, 36240, Note_on_c, 7, 64, 85
5, 36276, Note_off_c, 7, 64, 64
5, 36336, Note_on_c, 7, 64, 87
5, 36372, Note_off_c, 7, 64, 64
5, 36384, Note_on_c, 7, 76, 79
5, 36420, Note_off_c, 7, 76, 64
5, 36432, Note_on_c, 7, 64, 79
5, 36468, Note_off_c, 7, 64, 64
5, 36528, Note_on_c, 7, 63, 75
5, 36564, Note_off_c, 7, 63, 64
5, 36576, Note_on_c, 7, 75, 67
5, 36612, Note_off_c, 7, 75, 64
5, 36624, Note_on_c, 7, 63, 85
5, 36660, Note_off_c, 7, 63, 64
5, 36720, Note_on_c, 7, 64, 89
5, 36756, Note_off_c, 7, 64, 64
5, 36768, Note_on_c, 7, 76, 83
5, 36804, Note_off_c, 7, 76, 64
5, 36816, Note_on_c, 7, 64, 81
5, 36852, Note_off_c, 7, 64, 64
5, 36912, Note_on_c, 7, 65, 81
5, 36948, Note_off_c, 7, 65, 64
5, 36960, Note_on_c, 7, 77, 87
5, 36996, Note_off_c, 7, 77, 64
5, 37008, Note_on_c, 7, 65, 85
5, 37044, Note_off_c, 7, 65, 64
5, 37104, Note_on_c, 7, 67, 85
5, 37140, Note_off_c, 7, 67, 64
5, 37152, Note_on_c, 7, 79, 95
5, 37188, Note_off_c, 7, 79, 64
5, 37200, Note_on_c, 7, 67, 85
5, 37236, Note_off_c, 7, 67, 64
5, 37296, Note_on_c, 7, 69, 81
5, 37332, Note_off_c, 7, 69, 64
5, 37344, Note_on_c, 7, 81, 87
5, 37380, Note_off_c, 7, 81, 64
5, 37392, Note_on_c, 7, 69, 87
5, 37428, Note_off_c, 7, 69, 64
5, 37488, Note_on_c, 7, 71, 61
5, 37524, Note_off_c, 7, 71, 64
5, 37536, Note_on_c, 7, 83, 79
5, 37572, Note_off_c, 7, 83, 64
5, 37584, Note_on_c, 7, 71, 69
5, 37620, Note_off_c, 7, 71, 64
5, 37824, Note_on_c, 7, 72, 81
5, 37860, Note_off_c, 7, 72, 64
5, 37872, Note_on_c, 7, 76, 87
5, 37908, Note_off_c, 7, 76, 64
5, 37920, Note_on_c, 7, 79, 83
5, 37956, Note_off_c, 7, 79, 64
5, 37968, Note_on_c, 7, 84, 77
5, 38004, Note_off_c, 7, 84, 64
5, 38016, Note_on_c, 7, 76, 67
5, 38052, Note_off_c, 7, 76, 64
5, 38064, Note_on_c, 7, 79, 79
5, 38100, Note_off_c, 7, 79, 64
5, 38112, Note_on_c, 7, 84, 73
5, 38148, Note_off_c, 7, 84, 64
5, 38160, Note_on_c, 7, 88, 73
5, 38196, Note_off_c, 7, 88, 64
5, 38208, Note_on_c, 7, 86, 83
5, 38244, Note_off_c, 7, 86, 64
5, 38256, Note_on_c, 7, 84, 77
5, 38292, Note_off_c, 7, 84, 64
5, 38304, Note_on_c, 7, 83, 65
5, 38340, Note_off_c, 7, 83, 64
5, 38352, Note_on_c, 7, 84, 79
5, 38388, Note_off_c, 7, 84, 64
5, 38400, Note_on_c, 7, 86, 85
5, 38436, Note_off_c, 7, 86, 64
5, 38448, Note_on_c, 7, 83, 71
5, 38484, Note_off_c, 7, 83, 64
5, 38496, Note_on_c, 7, 84, 73
5, 38532, Note_off_c, 7, 84, 64
5, 38544, Note_on_c, 7, 81, 73
5, 38580, Note_off_c, 7, 81, 64
5, 38592, Note_on_c, 7, 83, 75
5, 38628, Note_off_c, 7, 83, 64
5, 38640, Note_on_c, 7, 79, 77
5, 38676, Note_off_c, 7, 79, 64
5, 38688, Note_on_c, 7, 81, 81
5, 38724, Note_off_c, 7, 81, 64
5, 38736, Note_on_c, 7, 77, 65
5, 38772, Note_off_c, 7, 77, 64
5, 38784, Note_on_c, 7, 79, 77
5, 38820, Note_off_c, 7, 79, 64
5, 38832, Note_on_c, 7, 76, 73
5, 38868, Note_off_c, 7, 76, 64
5, 38880, Note_on_c, 7, 77, 77
5, 38916, Note_off_c, 7, 77, 64
5, 38928, Note_on_c, 7, 74, 69
5, 38964, Note_off_c, 7, 74, 64
5, 38976, Note_on_c, 7, 76, 83
5, 39012, Note_off_c, 7, 76, 64
5, 39024, Note_on_c, 7, 72, 69
5, 39060, Note_off_c, 7, 72, 64
5, 39072, Note_on_c, 7, 74, 81
5, 39108, Note_off_c, 7, 74, 64
5, 39120, Note_on_c, 7, 71, 57
5, 39156, Note_off_c, 7, 71, 64
5, 39360, Note_on_c, 7, 72, 75
5, 39396, Note_off_c, 7, 72, 64
5, 39408, Note_on_c, 7, 76, 83
5, 39444, Note_off_c, 7, 76, 64
5, 39456, Note_on_c, 7, 79, 71
5, 39492, Note_off_c, 7, 79, 64
5, 39504, Note_on_c, 7, 84, 73
5, 39540, Note_off_c, 7, 84, 64
5, 39552, Note_on_c, 7, 76, 87
5, 39588, Note_off_c, 7, 76, 64
5, 39600, Note_on_c, 7, 79, 87
5, 39636, Note_off_c, 7, 79, 64
5, 39648, Note_on_c, 7, 84, 69
5, 39684, Note_off_c, 7, 84, 64
5, 39696, Note_on_c, 7, 88, 71
5, 39732, Note_off_c, 7, 88, 64
5, 39744, Note_on_c, 7, 86, 81
5, 39780, Note_off_c, 7, 86, 64
5, 39792, Note_on_c, 7, 84, 75
5, 39828, Note_off_c, 7, 84, 64
5, 39840, Note_on_c, 7, 83, 67
5, 39876, Note_off_c, 7, 83, 64
5, 39888, Note_on_c, 7, 84, 61
5, 39924, Note_off_c, 7, 84, 64
5, 39936, Note_on_c, 7, 86, 77
5, 39972, Note_off_c, 7, 86, 64
5, 39984, Note_on_c, 7, 83, 65
5, 40020, Note_off_c, 7, 83, 64
5, 40032, Note_on_c, 7, 84, 65
5, 40068, Note_off_c, 7, 84, 64
5, 40080, Note_on_c, 7, 81, 67
5, 40116, Note_off_c, 7, 81, 64
5, 40128, Note_on_c, 7, 83, 69
5, 40164, Note_off_c, 7, 83, 64
5, 40176, Note_on_c, 7, 79, 79
5, 40212, Note_off_c, 7, 79, 64
5, 40224, Note_on_c, 7, 81, 79
5, 40260, Note_off_c, 7, 81, 64
5, 40272, Note_on_c, 7, 77, 73
5, 40308, Note_off_c, 7, 77, 64
5, 40320, Note_on_c, 7, 79, 81
5, 40356, Note_off_c, 7, 79, 64
5, 40368, Note_on_c, 7, 76, 73
5, 40404, Note_off_c, 7, 76, 64
5, 40416, Note_on_c, 7, 77, 81
5, 40452, Note_off_c, 7, 77, 64
5, 40464, Note_on_c, 7, 74, 77
5, 40500, Note_off_c, 7, 74, 64
5, 40512, Note_on_c, 7, 76, 77
5, 40548, Note_off_c, 7, 76, 64
5, 40560, Note_on_c, 7, 72, 54
5, 40596, Note_off_c, 7, 72, 64
5, 40608, Note_on_c, 7, 74, 85
5, 40644, Note_off_c, 7, 74, 64
5, 40656, Note_on_c, 7, 71, 59
5, 40692, Note_off_c, 7, 71, 64
5, 40704, Note_on_c, 7, 72, 83
5, 40848, Note_off_c, 7, 72, 64
5, 43776, Note_on_c, 7, 72, 79
5, 43848, Note_off_c, 7, 72, 64
5, 43872, Note_on_c, 7, 74, 79
5, 43908, Note_off_c, 7, 74, 64
5, 43920, Note_on_c, 7, 76, 79
5, 43956, Note_off_c, 7, 76, 64
5, 43968, Note_on_c, 7, 77, 79
5, 44004, Note_off_c, 7, 77, 64
5, 44016, Note_on_c, 7, 79, 79
5, 44052, Note_off_c, 7, 79, 64
5, 44064, Note_on_c, 7, 81, 79
5, 44100, Note_off_c, 7, 81, 64
5, 44112, Note_on_c, 7, 83, 79
5, 44148, Note_off_c, 7, 83, 64
5, 44160, Note_on_c, 7, 84, 79
5, 44196, Note_off_c, 7, 84, 64
5, 44208, Note_on_c, 7, 83, 79
5, 44244, Note_off_c, 7, 83, 64
5, 44256, Note_on_c, 7, 84, 79
5, 44292, Note_off_c, 7, 84, 64
5, 44304, Note_on_c, 7, 83, 79
5, 44340, Note_off_c, 7, 83, 64
5, 44352, Note_on_c, 7, 84, 79
5, 44388, Note_off_c, 7, 84, 64
5, 44400, Note_on_c, 7, 83, 79
5, 44436, Note_off_c, 7, 83, 64
5, 44448, Note_on_c, 7, 81, 79
5, 44484, Note_off_c, 7, 81, 64
5, 44496, Note_on_c, 7, 79, 79
5, 44532, Note_off_c, 7, 79, 64
5, 44544, Note_on_c, 7, 81, 79
5, 44580, Note_off_c, 7, 81, 64
5, 44592, Note_on_c, 7, 72, 79
5, 44628, Note_off_c, 7, 72, 64
5, 44640, Note_on_c, 7, 74, 79
5, 44676, Note_off_c, 7, 74, 64
5, 44688, Note_on_c, 7, 76, 79
5, 44724, Note_off_c, 7, 76, 64
5, 44736, Note_on_c, 7, 77, 79
5, 44772, Note_off_c, 7, 77, 64
5, 44784, Note_on_c, 7, 79, 79
5, 44820, Note_off_c, 7, 79, 64
5, 44832, Note_on_c, 7, 81, 79
5, 44868, Note_off_c, 7, 81, 64
5, 44880, Note_on_c, 7, 83, 79
5, 44916, Note_off_c, 7, 83, 64
5, 44928, Note_on_c, 7, 84, 79
5, 44964, Note_off_c, 7, 84, 64
5, 44976, Note_on_c, 7, 83, 79
5, 45012, Note_off_c, 7, 83, 64
5, 45024, Note_on_c, 7, 84, 79
5, 45060, Note_off_c, 7, 84, 64
5, 45072, Note_on_c, 7, 83, 79
5, 45108, Note_off_c, 7, 83, 64
5, 45120, Note_on_c, 7, 86, 79
5, 45156, Note_off_c, 7, 86, 64
5, 45168, Note_on_c, 7, 84, 79
5, 45204, Note_off_c, 7, 84, 64
5, 45216, Note_on_c, 7, 83, 79
5, 45252, Note_off_c, 7, 83, 64
5, 45264, Note_on_c, 7, 81, 79
5, 45300, Note_off_c, 7, 81, 64
5, 45312, Note_on_c, 7, 79, 79
5, 45348, Note_off_c, 7, 79, 64
5, 45360, Note_on_c, 7, 72, 79
5, 45396, Note_off_c, 7, 72, 64
5, 45408, Note_on_c, 7, 74, 79
5, 45444, Note_off_c, 7, 74, 64
5, 45456, Note_on_c, 7, 76, 79
5, 45492, Note_off_c, 7, 76, 64
5, 45504, Note_on_c, 7, 77, 79
5, 45540, Note_off_c, 7, 77, 64
5, 45552, Note_on_c, 7, 79, 79
5, 45588, Note_off_c, 7, 79, 64
5, 45600, Note_on_c, 7, 81, 79
5, 45636, Note_off_c, 7, 81, 64
5, 45648, Note_on_c, 7, 83, 79
5, 45684, Note_off_c, 7, 83, 64
5, 45696, Note_on_c, 7, 84, 79
5, 45732, Note_off_c, 7, 84, 64
5, 45744, Note_on_c, 7, 86, 79
5, 45780, Note_off_c, 7, 86, 64
5, 45792, Note_on_c, 7, 88, 79
5, 45828, Note_off_c, 7, 88, 64
5, 45840, Note_on_c, 7, 86, 79
5, 45876, Note_off_c, 7, 86, 64
5, 45888, Note_on_c, 7, 84, 79
5, 45924, Note_off_c, 7, 84, 64
5, 45936, Note_on_c, 7, 83, 79
5, 45972, Note_off_c, 7, 83, 64
5, 45984, Note_on_c, 7, 81, 79
5, 46020, Note_off_c, 7, 81, 64
5, 46032, Note_on_c, 7, 79, 79
5, 46068, Note_off_c, 7, 79, 64
5, 46080, Note_on_c, 7, 79, 79
5, 46116, Note_off_c, 7, 79, 64
5, 46224, Note_on_c, 7, 77, 79
5, 46260, Note_off_c, 7, 77, 64
5, 46272, Note_on_c, 7, 76, 79
5, 46308, Note_off_c, 7, 76, 64
5, 46512, Note_on_c, 7, 72, 79
5, 46548, Note_off_c, 7, 72, 64
5, 46560, Note_on_c, 7, 76, 79
5, 46596, Note_off_c, 7, 76, 64
5, 46608, Note_on_c, 7, 79, 79
5, 46644, Note_off_c, 7, 79, 64
5, 46656, Note_on_c, 7, 79, 79
5, 46692, Note_off_c, 7, 79, 64
5, 46704, Note_on_c, 7, 77, 79
5, 46740, Note_off_c, 7, 77, 64
5, 46752, Note_on_c, 7, 76, 79
5, 46788, Note_off_c, 7, 76, 64
5, 46800, Note_on_c, 7, 74, 79
5, 46836, Note_off_c, 7, 74, 64
5, 46848, Note_on_c, 7, 72, 79
5, 46884, Note_off_c, 7, 72, 64
5, 46896, Note_on_c, 7, 76, 79
5, 46932, Note_off_c, 7, 76, 64
5, 46944, Note_on_c, 7, 79, 79
5, 46980, Note_off_c, 7, 79, 64
5, 46992, Note_on_c, 7, 84, 79
5, 47028, Note_off_c, 7, 84, 64
5, 47040, Note_on_c, 7, 72, 79
5, 47076, Note_off_c, 7, 72, 64
5, 47088, Note_on_c, 7, 84, 79
5, 47124, Note_off_c, 7, 84, 64
5, 47136, Note_on_c, 7, 71, 79
5, 47172, Note_off_c, 7, 71, 64
5, 47184, Note_on_c, 7, 83, 79
5, 47220, Note_off_c, 7, 83, 64
5, 47232, Note_on_c, 7, 69, 79
5, 47268, Note_off_c, 7, 69, 64
5, 47280, Note_on_c, 7, 72, 79
5, 47316, Note_off_c, 7, 72, 64
5, 47328, Note_on_c, 7, 76, 79
5, 47364, Note_off_c, 7, 76, 64
5, 47376, Note_on_c, 7, 81, 79
5, 47412, Note_off_c, 7, 81, 64
5, 47424, Note_on_c, 7, 69, 79
5, 47460, Note_off_c, 7, 69, 64
5, 47472, Note_on_c, 7, 81, 79
5, 47508, Note_off_c, 7, 81, 64
5, 47520, Note_on_c, 7, 67, 79
5, 47556, Note_off_c, 7, 67, 64
5, 47568, Note_on_c, 7, 79, 79
5, 47604, Note_off_c, 7, 79, 64
5, 47616, Note_on_c, 7, 65, 79
5, 47652, Note_off_c, 7, 65, 64
5, 47664, Note_on_c, 7, 69, 79
5, 47700, Note_off_c, 7, 69, 64
5, 47712, Note_on_c, 7, 72, 79
5, 47748, Note_off_c, 7, 72, 64
5, 47760, Note_on_c, 7, 77, 79
5, 47796, Note_off_c, 7, 77, 64
5, 47808, Note_on_c, 7, 65, 79
5, 47844, Note_off_c, 7, 65, 64
5, 47856, Note_on_c, 7, 77, 79
5, 47892, Note_off_c, 7, 77, 64
5, 47904, Note_on_c, 7, 64, 79
5, 47940, Note_off_c, 7, 64, 64
5, 47952, Note_on_c, 7, 76, 79
5, 47988, Note_off_c, 7, 76, 64
5, 48000, Note_on_c, 7, 62, 79
5, 48036, Note_off_c, 7, 62, 64
5, 48048, Note_on_c, 7, 74, 79
5, 48084, Note_off_c, 7, 74, 64
5, 48096, Note_on_c, 7, 60, 79
5, 48132, Note_off_c, 7, 60, 64
5, 48144, Note_on_c, 7, 72, 79
5, 48180, Note_off_c, 7, 72, 64
5, 48192, Note_on_c, 7, 59, 79
5, 48228, Note_off_c, 7, 59, 64
5, 48240, Note_on_c, 7, 71, 79
5, 48276, Note_off_c, 7, 71, 64
5, 48288, Note_on_c, 7, 57, 79
5, 48324, Note_off_c, 7, 57, 64
5, 48336, Note_on_c, 7, 69, 79
5, 48372, Note_off_c, 7, 69, 64
5, 48384, Note_on_c, 7, 55, 79
5, 48420, Note_off_c, 7, 55, 64
5, 48480, Note_on_c, 7, 55, 79
5, 48516, Note_off_c, 7, 55, 64
5, 48528, Note_on_c, 7, 59, 79
5, 48564, Note_off_c, 7, 59, 64
5, 48576, Note_on_c, 7, 57, 79
5, 48612, Note_off_c, 7, 57, 64
5, 48624, Note_on_c, 7, 60, 79
5, 48660, Note_off_c, 7, 60, 64
5, 48672, Note_on_c, 7, 59, 79
5, 48708, Note_off_c, 7, 59, 64
5, 48720, Note_on_c, 7, 62, 79
5, 48756, Note_off_c, 7, 62, 64
5, 48768, Note_on_c, 7, 60, 79
5, 48804, Note_off_c, 7, 60, 64
5, 48816, Note_on_c, 7, 64, 79
5, 48852, Note_off_c, 7, 64, 64
5, 48864, Note_on_c, 7, 62, 79
5, 48900, Note_off_c, 7, 62, 64
5, 48912, Note_on_c, 7, 65, 79
5, 48948, Note_off_c, 7, 65, 64
5, 48960, Note_on_c, 7, 64, 79
5, 48996, Note_off_c, 7, 64, 64
5, 49008, Note_on_c, 7, 67, 79
5, 49044, Note_off_c, 7, 67, 64
5, 49056, Note_on_c, 7, 66, 79
5, 49092, Note_off_c, 7, 66, 64
5, 49104, Note_on_c, 7, 69, 79
5, 49140, Note_off_c, 7, 69, 64
5, 49152, Note_on_c, 7, 67, 79
5, 49188, Note_off_c, 7, 67, 64
5, 49248, Note_on_c, 7, 67, 79
5, 49284, Note_off_c, 7, 67, 64
5, 49296, Note_on_c, 7, 71, 79
5, 49332, Note_off_c, 7, 71, 64
5, 49344, Note_on_c, 7, 69, 79
5, 49380, Note_off_c, 7, 69, 64
5, 49392, Note_on_c, 7, 72, 79
5, 49428, Note_off_c, 7, 72, 64
5, 49440, Note_on_c, 7, 71, 79
5, 49476, Note_off_c, 7, 71, 64
5, 49488, Note_on_c, 7, 74, 79
5, 49524, Note_off_c, 7, 74, 64
5, 49536, Note_on_c, 7, 72, 79
5, 49572, Note_off_c, 7, 72, 64
5, 49584, Note_on_c, 7, 76, 79
5, 49620, Note_off_c, 7, 76, 64
5, 49632, Note_on_c, 7, 74, 79
5, 49668, Note_off_c, 7, 74, 64
5, 49680, Note_on_c, 7, 77, 79
5, 49716, Note_off_c, 7, 77, 64
5, 49728, Note_on_c, 7, 76, 79
5, 49764, Note_off_c, 7, 76, 64
5, 49776, Note_on_c, 7, 79, 79
5, 49812, Note_off_c, 7, 79, 64
5, 49824, Note_on_c, 7, 78, 79
5, 49860, Note_off_c, 7, 78, 64
5, 49872, Note_on_c, 7, 81, 79
5, 49908, Note_off_c, 7, 81, 64
5, 49920, Note_on_c, 7, 79, 79
5, 49956, Note_off_c, 7, 79, 64
5, 52416, Note_on_c, 7, 71, 89
5, 52452, Note_off_c, 7, 71, 64
5, 52464, Note_on_c, 7, 74, 89
5, 52500, Note_off_c, 7, 74, 64
5, 52512, Note_on_c, 7, 71, 89
5, 52548, Note_off_c, 7, 71, 64
5, 52560, Note_on_c, 7, 67, 89
5, 52596, Note_off_c, 7, 67, 64
5, 52800, Note_on_c, 7, 71, 89
5, 52836, Note_off_c, 7, 71, 64
5, 52848, Note_on_c, 7, 74, 89
5, 52884, Note_off_c, 7, 74, 64
5, 52896, Note_on_c, 7, 71, 89
5, 52932, Note_off_c, 7, 71, 64
5, 52944, Note_on_c, 7, 67, 89
5, 52980, Note_off_c, 7, 67, 64
5, 53184, Note_on_c, 7, 72, 89
5, 53220, Note_off_c, 7, 72, 64
5, 53232, Note_on_c, 7, 76, 89
5, 53268, Note_off_c, 7, 76, 64
5, 53280, Note_on_c, 7, 72, 89
5, 53316, Note_off_c, 7, 72, 64
5, 53328, Note_on_c, 7, 67, 89
5, 53364, Note_off_c, 7, 67, 64
5, 53568, Note_on_c, 7, 72, 89
5, 53604, Note_off_c, 7, 72, 64
5, 53616, Note_on_c, 7, 76, 89
5, 53652, Note_off_c, 7, 76, 64
5, 53664, Note_on_c, 7, 72, 89
5, 53700, Note_off_c, 7, 72, 64
5, 53712, Note_on_c, 7, 67, 89
5, 53748, Note_off_c, 7, 67, 64
5, 53808, Note_on_c, 7, 71, 89
5, 53844, Note_off_c, 7, 71, 64
5, 53856, Note_on_c, 7, 67, 89
5, 53892, Note_off_c, 7, 67, 64
5, 53904, Note_on_c, 7, 62, 89
5, 53940, Note_off_c, 7, 62, 64
5, 54000, Note_on_c, 7, 67, 89
5, 54036, Note_off_c, 7, 67, 64
5, 54048, Note_on_c, 7, 64, 89
5, 54084, Note_off_c, 7, 64, 64
5, 54096, Note_on_c, 7, 59, 89
5, 54132, Note_off_c, 7, 59, 64
5, 54192, Note_on_c, 7, 69, 89
5, 54228, Note_off_c, 7, 69, 64
5, 54240, Note_on_c, 7, 67, 89
5, 54276, Note_off_c, 7, 67, 64
5, 54288, Note_on_c, 7, 64, 89
5, 54324, Note_off_c, 7, 64, 64
5, 54384, Note_on_c, 7, 69, 89
5, 54420, Note_off_c, 7, 69, 64
5, 54432, Note_on_c, 7, 66, 89
5, 54468, Note_off_c, 7, 66, 64
5, 54480, Note_on_c, 7, 62, 89
5, 54516, Note_off_c, 7, 62, 64
5, 54576, Note_on_c, 7, 86, 89
5, 54612, Note_off_c, 7, 86, 64
5, 54624, Note_on_c, 7, 83, 89
5, 54660, Note_off_c, 7, 83, 64
5, 54672, Note_on_c, 7, 79, 89
5, 54708, Note_off_c, 7, 79, 64
5, 54720, Note_on_c, 7, 74, 89
5, 54756, Note_off_c, 7, 74, 64
5, 54768, Note_on_c, 7, 83, 89
5, 54804, Note_off_c, 7, 83, 64
5, 54816, Note_on_c, 7, 79, 89
5, 54852, Note_off_c, 7, 79, 64
5, 54864, Note_on_c, 7, 74, 89
5, 54900, Note_off_c, 7, 74, 64
5, 54912, Note_on_c, 7, 71, 89
5, 54948, Note_off_c, 7, 71, 64
5, 54960, Note_on_c, 7, 79, 89
5, 54996, Note_off_c, 7, 79, 64
5, 55008, Note_on_c, 7, 74, 89
5, 55044, Note_off_c, 7, 74, 64
5, 55056, Note_on_c, 7, 71, 89
5, 55092, Note_off_c, 7, 71, 64
5, 55104, Note_on_c, 7, 67, 89
5, 55140, Note_off_c, 7, 67, 64
5, 55152, Note_on_c, 7, 74, 89
5, 55188, Note_off_c, 7, 74, 64
5, 55200, Note_on_c, 7, 71, 89
5, 55236, Note_off_c, 7, 71, 64
5, 55248, Note_on_c, 7, 67, 89
5, 55284, Note_off_c, 7, 67, 64
5, 55488, Note_on_c, 7, 62, 89
5, 55524, Note_off_c, 7, 62, 64
5, 55536, Note_on_c, 7, 67, 89
5, 55572, Note_off_c, 7, 67, 64
5, 55584, Note_on_c, 7, 62, 89
5, 55620, Note_off_c, 7, 62, 64
5, 55632, Note_on_c, 7, 59, 89
5, 55668, Note_off_c, 7, 59, 64
5, 55872, Note_on_c, 7, 62, 89
5, 55908, Note_off_c, 7, 62, 64
5, 55920, Note_on_c, 7, 67, 89
5, 55956, Note_off_c, 7, 67, 64
5, 55968, Note_on_c, 7, 62, 89
5, 56004, Note_off_c, 7, 62, 64
5, 56016, Note_on_c, 7, 59, 89
5, 56052, Note_off_c, 7, 59, 64
5, 56256, Note_on_c, 7, 64, 89
5, 56292, Note_off_c, 7, 64, 64
5, 56304, Note_on_c, 7, 67, 89
5, 56340, Note_off_c, 7, 67, 64
5, 56352, Note_on_c, 7, 64, 89
5, 56388, Note_off_c, 7, 64, 64
5, 56400, Note_on_c, 7, 60, 89
5, 56436, Note_off_c, 7, 60, 64
5, 56640, Note_on_c, 7, 64, 89
5, 56676, Note_off_c, 7, 64, 64
5, 56688, Note_on_c, 7, 67, 89
5, 56724, Note_off_c, 7, 67, 64
5, 56736, Note_on_c, 7, 64, 89
5, 56772, Note_off_c, 7, 64, 64
5, 56784, Note_on_c, 7, 60, 89
5, 56820, Note_off_c, 7, 60, 64
5, 56880, Note_on_c, 7, 59, 89
5, 56916, Note_off_c, 7, 59, 64
5, 56928, Note_on_c, 7, 62, 89
5, 56964, Note_off_c, 7, 62, 64
5, 56976, Note_on_c, 7, 67, 89
5, 57012, Note_off_c, 7, 67, 64
5, 57072, Note_on_c, 7, 59, 89
5, 57108, Note_off_c, 7, 59, 64
5, 57120, Note_on_c, 7, 62, 89
5, 57156, Note_off_c, 7, 62, 64
5, 57168, Note_on_c, 7, 67, 89
5, 57204, Note_off_c, 7, 67, 64
5, 57264, Note_on_c, 7, 57, 89
5, 57300, Note_off_c, 7, 57, 64
5, 57312, Note_on_c, 7, 64, 89
5, 57348, Note_off_c, 7, 64, 64
5, 57360, Note_on_c, 7, 67, 89
5, 57396, Note_off_c, 7, 67, 64
5, 57456, Note_on_c, 7, 57, 89
5, 57492, Note_off_c, 7, 57, 64
5, 57504, Note_on_c, 7, 62, 89
5, 57540, Note_off_c, 7, 62, 64
5, 57552, Note_on_c, 7, 66, 89
5, 57588, Note_off_c, 7, 66, 64
5, 57600, Note_on_c, 7, 67, 89
5, 57792, Note_off_c, 7, 67, 64
5, 59184, Note_on_c, 7, 84, 89
5, 59220, Note_off_c, 7, 84, 64
5, 59232, Note_on_c, 7, 81, 89
5, 59268, Note_off_c, 7, 81, 64
5, 59280, Note_on_c, 7, 78, 89
5, 59316, Note_off_c, 7, 78, 64
5, 59328, Note_on_c, 7, 72, 1
5, 59364, Note_off_c, 7, 72, 64
5, 59376, Note_on_c, 7, 81, 89
5, 59412, Note_off_c, 7, 81, 64
5, 59424, Note_on_c, 7, 78, 89
5, 59460, Note_off_c, 7, 78, 64
5, 59472, Note_on_c, 7, 74, 89
5, 59508, Note_off_c, 7, 74, 64
5, 59520, Note_on_c, 7, 69, 1
5, 59556, Note_off_c, 7, 69, 64
5, 59568, Note_on_c, 7, 78, 89
5, 59604, Note_off_c, 7, 78, 64
5, 59616, Note_on_c, 7, 74, 89
5, 59652, Note_off_c, 7, 74, 64
5, 59664, Note_on_c, 7, 72, 89
5, 59700, Note_off_c, 7, 72, 64
5, 59712, Note_on_c, 7, 66, 1
5, 59748, Note_off_c, 7, 66, 64
5, 59760, Note_on_c, 7, 74, 89
5, 59796, Note_off_c, 7, 74, 64
5, 59808, Note_on_c, 7, 72, 89
5, 59844, Note_off_c, 7, 72, 64
5, 59856, Note_on_c, 7, 69, 89
5, 59892, Note_off_c, 7, 69, 64
5, 59952, Note_on_c, 7, 72, 89
5, 59988, Note_off_c, 7, 72, 64
5, 60000, Note_on_c, 7, 69, 89
5, 60036, Note_off_c, 7, 69, 64
5, 60048, Note_on_c, 7, 66, 89
5, 60084, Note_off_c, 7, 66, 64
5, 60144, Note_on_c, 7, 69, 89
5, 60180, Note_off_c, 7, 69, 64
5, 60192, Note_on_c, 7, 66, 89
5, 60228, Note_off_c, 7, 66, 64
5, 60240, Note_on_c, 7, 62, 89
5, 60276, Note_off_c, 7, 62, 64
5, 60336, Note_on_c, 7, 66, 89
5, 60372, Note_off_c, 7, 66, 64
5, 60384, Note_on_c, 7, 62, 89
5, 60420, Note_off_c, 7, 62, 64
5, 60432, Note_on_c, 7, 60, 89
5, 60468, Note_off_c, 7, 60, 64
5, 60528, Note_on_c, 7, 62, 89
5, 60564, Note_off_c, 7, 62, 64
5, 60576, Note_on_c, 7, 60, 89
5, 60612, Note_off_c, 7, 60, 64
5, 60624, Note_on_c, 7, 57, 89
5, 60660, Note_off_c, 7, 57, 64
5, 60720, Note_on_c, 7, 59, 89
5, 60756, Note_off_c, 7, 59, 64
5, 60768, Note_on_c, 7, 62, 89
5, 60804, Note_off_c, 7, 62, 64
5, 60816, Note_on_c, 7, 59, 89
5, 60852, Note_off_c, 7, 59, 64
5, 60864, Note_on_c, 7, 67, 89
5, 60900, Note_off_c, 7, 67, 64
5, 60912, Note_on_c, 7, 62, 89
5, 60948, Note_off_c, 7, 62, 64
5, 60960, Note_on_c, 7, 71, 89
5, 60996, Note_off_c, 7, 71, 64
5, 61008, Note_on_c, 7, 67, 89
5, 61044, Note_off_c, 7, 67, 64
5, 61056, Note_on_c, 7, 74, 1
5, 61092, Note_off_c, 7, 74, 64
5, 61104, Note_on_c, 7, 62, 89
5, 61140, Note_off_c, 7, 62, 64
5, 61152, Note_on_c, 7, 67, 89
5, 61188, Note_off_c, 7, 67, 64
5, 61200, Note_on_c, 7, 62, 89
5, 61236, Note_off_c, 7, 62, 64
5, 61248, Note_on_c, 7, 71, 89
5, 61284, Note_off_c, 7, 71, 64
5, 61296, Note_on_c, 7, 67, 89
5, 61332, Note_off_c, 7, 67, 64
5, 61344, Note_on_c, 7, 74, 89
5, 61380, Note_off_c, 7, 74, 64
5, 61392, Note_on_c, 7, 71, 89
5, 61428, Note_off_c, 7, 71, 64
5, 61440, Note_on_c, 7, 79, 1
5, 61476, Note_off_c, 7, 79, 64
5, 61488, Note_on_c, 7, 67, 89
5, 61524, Note_off_c, 7, 67, 64
5, 61536, Note_on_c, 7, 71, 89
5, 61572, Note_off_c, 7, 71, 64
5, 61584, Note_on_c, 7, 67, 89
5, 61620, Note_off_c, 7, 67, 64
5, 61632, Note_on_c, 7, 74, 89
5, 61668, Note_off_c, 7, 74, 64
5, 61680, Note_on_c, 7, 71, 89
5, 61716, Note_off_c, 7, 71, 64
5, 61728, Note_on_c, 7, 79, 89
5, 61764, Note_off_c, 7, 79, 64
5, 61776, Note_on_c, 7, 74, 89
5, 61812, Note_off_c, 7, 74, 64
5, 61824, Note_on_c, 7, 83, 1
5, 61860, Note_off_c, 7, 83, 64
5, 61872, Note_on_c, 7, 74, 89
5, 61908, Note_off_c, 7, 74, 64
5, 61920, Note_on_c, 7, 79, 89
5, 61956, Note_off_c, 7, 79, 64
5, 61968, Note_on_c, 7, 74, 89
5, 62004, Note_off_c, 7, 74, 64
5, 62016, Note_on_c, 7, 83, 89
5, 62052, Note_off_c, 7, 83, 64
5, 62064, Note_on_c, 7, 79, 89
5, 62100, Note_off_c, 7, 79, 64
5, 62112, Note_on_c, 7, 86, 1
5, 62148, Note_off_c, 7, 86, 64
5, 62160, Note_on_c, 7, 83, 89
5, 62196, Note_off_c, 7, 83, 64
5, 62256, Note_on_c, 7, 84, 89
5, 62292, Note_off_c, 7, 84, 64
5, 62304, Note_on_c, 7, 81, 89
5, 62340, Note_off_c, 7, 81, 64
5, 62352, Note_on_c, 7, 78, 89
5, 62388, Note_off_c, 7, 78, 64
5, 62400, Note_on_c, 7, 72, 1
5, 62436, Note_off_c, 7, 72, 64
5, 62448, Note_on_c, 7, 81, 89
5, 62484, Note_off_c, 7, 81, 64
5, 62496, Note_on_c, 7, 78, 89
5, 62532, Note_off_c, 7, 78, 64
5, 62544, Note_on_c, 7, 74, 89
5, 62580, Note_off_c, 7, 74, 64
5, 62592, Note_on_c, 7, 69, 107
5, 62628, Note_off_c, 7, 69, 64
5, 62640, Note_on_c, 7, 78, 89
5, 62676, Note_off_c, 7, 78, 64
5, 62688, Note_on_c, 7, 74, 89
5, 62724, Note_off_c, 7, 74, 64
5, 62736, Note_on_c, 7, 72, 89
5, 62772, Note_off_c, 7, 72, 64
5, 62784, Note_on_c, 7, 66, 1
5, 62820, Note_off_c, 7, 66, 64
5, 62832, Note_on_c, 7, 74, 89
5, 62868, Note_off_c, 7, 74, 64
5, 62880, Note_on_c, 7, 72, 89
5, 62916, Note_off_c, 7, 72, 64
5, 62928, Note_on_c, 7, 69, 89
5, 62964, Note_off_c, 7, 69, 64
5, 63024, Note_on_c, 7, 72, 89
5, 63060, Note_off_c, 7, 72, 64
5, 63072, Note_on_c, 7, 69, 89
5, 63108, Note_off_c, 7, 69, 64
5, 63120, Note_on_c, 7, 66, 89
5, 63156, Note_off_c, 7, 66, 64
5, 63216, Note_on_c, 7, 69, 89
5, 63252, Note_off_c, 7, 69, 64
5, 63264, Note_on_c, 7, 66, 89
5, 63300, Note_off_c, 7, 66, 64
5, 63312, Note_on_c, 7, 62, 89
5, 63348, Note_off_c, 7, 62, 64
5, 63408, Note_on_c, 7, 66, 89
5, 63444, Note_off_c, 7, 66, 64
5, 63456, Note_on_c, 7, 62, 89
5, 63492, Note_off_c, 7, 62, 64
5, 63504, Note_on_c, 7, 60, 89
5, 63540, Note_off_c, 7, 60, 64
5, 63600, Note_on_c, 7, 62, 89
5, 63636, Note_off_c, 7, 62, 64
5, 63648, Note_on_c, 7, 60, 89
5, 63684, Note_off_c, 7, 60, 64
5, 63696, Note_on_c, 7, 57, 89
5, 63732, Note_off_c, 7, 57, 64
5, 63792, Note_on_c, 7, 59, 89
5, 63828, Note_off_c, 7, 59, 64
5, 63840, Note_on_c, 7, 62, 89
5, 63876, Note_off_c, 7, 62, 64
5, 63888, Note_on_c, 7, 59, 89
5, 63924, Note_off_c, 7, 59, 64
5, 63936, Note_on_c, 7, 67, 89
5, 63972, Note_off_c, 7, 67, 64
5, 63984, Note_on_c, 7, 62, 89
5, 64020, Note_off_c, 7, 62, 64
5, 64032, Note_on_c, 7, 71, 89
5, 64068, Note_off_c, 7, 71, 64
5, 64080, Note_on_c, 7, 67, 89
5, 64116, Note_off_c, 7, 67, 64
5, 64128, Note_on_c, 7, 74, 1
5, 64164, Note_off_c, 7, 74, 64
5, 64176, Note_on_c, 7, 62, 89
5, 64212, Note_off_c, 7, 62, 64
5, 64224, Note_on_c, 7, 67, 89
5, 64260, Note_off_c, 7, 67, 64
5, 64272, Note_on_c, 7, 62, 89
5, 64308, Note_off_c, 7, 62, 64
5, 64320, Note_on_c, 7, 71, 89
5, 64356, Note_off_c, 7, 71, 64
5, 64368, Note_on_c, 7, 67, 89
5, 64404, Note_off_c, 7, 67, 64
5, 64416, Note_on_c, 7, 74, 89
5, 64452, Note_off_c, 7, 74, 64
5, 64464, Note_on_c, 7, 71, 89
5, 64500, Note_off_c, 7, 71, 64
5, 64512, Note_on_c, 7, 79, 1
5, 64548, Note_off_c, 7, 79, 64
5, 64560, Note_on_c, 7, 67, 89
5, 64596, Note_off_c, 7, 67, 64
5, 64608, Note_on_c, 7, 71, 89
5, 64644, Note_off_c, 7, 71, 64
5, 64656, Note_on_c, 7, 67, 89
5, 64692, Note_off_c, 7, 67, 64
5, 64704, Note_on_c, 7, 74, 89
5, 64740, Note_off_c, 7, 74, 64
5, 64752, Note_on_c, 7, 71, 89
5, 64788, Note_off_c, 7, 71, 64
5, 64800, Note_on_c, 7, 79, 89
5, 64836, Note_off_c, 7, 79, 64
5, 64848, Note_on_c, 7, 74, 89
5, 64884, Note_off_c, 7, 74, 64
5, 64896, Note_on_c, 7, 83, 99
5, 64932, Note_off_c, 7, 83, 64
5, 64944, Note_on_c, 7, 74, 89
5, 64980, Note_off_c, 7, 74, 64
5, 64992, Note_on_c, 7, 79, 89
5, 65028, Note_off_c, 7, 79, 64
5, 65040, Note_on_c, 7, 74, 89
5, 65076, Note_off_c, 7, 74, 64
5, 65088, Note_on_c, 7, 83, 89
5, 65124, Note_off_c, 7, 83, 64
5, 65136, Note_on_c, 7, 79, 89
5, 65172, Note_off_c, 7, 79, 64
5, 65184, Note_on_c, 7, 86, 89
5, 65220, Note_off_c, 7, 86, 64
5, 65232, Note_on_c, 7, 83, 89
5, 65268, Note_off_c, 7, 83, 64
5, 65280, Note_on_c, 7, 81, 89
5, 65280, Note_on_c, 7, 78, 89
5, 65316, Note_off_c, 7, 81, 64
5, 65316, Note_off_c, 7, 78, 64
5, 69120, Note_on_c, 7, 74, 89
5, 69156, Note_off_c, 7, 74, 64
5, 69168, Note_on_c, 7, 76, 89
5, 69204, Note_off_c, 7, 76, 64
5, 69216, Note_on_c, 7, 74, 89
5, 69252, Note_off_c, 7, 74, 64
5, 69264, Note_on_c, 7, 72, 89
5, 69300, Note_off_c, 7, 72, 64
5, 69312, Note_on_c, 7, 71, 89
5, 69348, Note_off_c, 7, 71, 64
5, 70656, Note_on_c, 7, 86, 89
5, 70692, Note_off_c, 7, 86, 64
5, 70704, Note_on_c, 7, 88, 89
5, 70740, Note_off_c, 7, 88, 64
5, 70752, Note_on_c, 7, 86, 89
5, 70788, Note_off_c, 7, 86, 64
5, 70800, Note_on_c, 7, 84, 89
5, 70836, Note_off_c, 7, 84, 64
5, 70848, Note_on_c, 7, 83, 89
5, 70884, Note_off_c, 7, 83, 64
5, 72192, Note_on_c, 7, 74, 89
5, 72228, Note_off_c, 7, 74, 64
5, 72240, Note_on_c, 7, 76, 89
5, 72276, Note_off_c, 7, 76, 64
5, 72288, Note_on_c, 7, 74, 89
5, 72324, Note_off_c, 7, 74, 64
5, 72336, Note_on_c, 7, 72, 89
5, 72372, Note_off_c, 7, 72, 64
5, 72384, Note_on_c, 7, 71, 89
5, 72420, Note_off_c, 7, 71, 64
5, 72960, Note_on_c, 7, 79, 89
5, 72996, Note_off_c, 7, 79, 64
5, 73008, Note_on_c, 7, 81, 89
5, 73044, Note_off_c, 7, 81, 64
5, 73056, Note_on_c, 7, 79, 89
5, 73092, Note_off_c, 7, 79, 64
5, 73104, Note_on_c, 7, 77, 89
5, 73140, Note_off_c, 7, 77, 64
5, 73152, Note_on_c, 7, 76, 89
5, 73188, Note_off_c, 7, 76, 64
5, 73728, Note_on_c, 7, 77, 89
5, 73764, Note_off_c, 7, 77, 64
5, 73776, Note_on_c, 7, 79, 89
5, 73812, Note_off_c, 7, 79, 64
5, 73824, Note_on_c, 7, 77, 89
5, 73860, Note_off_c, 7, 77, 64
5, 73872, Note_on_c, 7, 76, 89
5, 73908, Note_off_c, 7, 76, 64
5, 73920, Note_on_c, 7, 74, 89
5, 73956, Note_off_c, 7, 74, 64
5, 74496, Note_on_c, 7, 76, 89
5, 74532, Note_off_c, 7, 76, 64
5, 74544, Note_on_c, 7, 79, 89
5, 74580, Note_off_c, 7, 79, 64
5, 74592, Note_on_c, 7, 84, 89
5, 74628, Note_off_c, 7, 84, 64
5, 74640, Note_on_c, 7, 79, 89
5, 74676, Note_off_c, 7, 79, 64
5, 74688, Note_on_c, 7, 88, 89
5, 74724, Note_off_c, 7, 88, 64
5, 74736, Note_on_c, 7, 84, 89
5, 74772, Note_off_c, 7, 84, 64
5, 74784, Note_on_c, 7, 79, 89
5, 74820, Note_off_c, 7, 79, 64
5, 74832, Note_on_c, 7, 76, 89
5, 74868, Note_off_c, 7, 76, 64
5, 74880, Note_on_c, 7, 74, 89
5, 74916, Note_off_c, 7, 74, 64
5, 74928, Note_on_c, 7, 79, 89
5, 74964, Note_off_c, 7, 79, 64
5, 74976, Note_on_c, 7, 83, 89
5, 75012, Note_off_c, 7, 83, 64
5, 75024, Note_on_c, 7, 79, 89
5, 75060, Note_off_c, 7, 79, 64
5, 75072, Note_on_c, 7, 86, 89
5, 75108, Note_off_c, 7, 86, 64
5, 75120, Note_on_c, 7, 83, 89
5, 75156, Note_off_c, 7, 83, 64
5, 75168, Note_on_c, 7, 79, 89
5, 75204, Note_off_c, 7, 79, 64
5, 75216, Note_on_c, 7, 74, 89
5, 75252, Note_off_c, 7, 74, 64
5, 75264, Note_on_c, 7, 76, 89
5, 75300, Note_off_c, 7, 76, 64
5, 75312, Note_on_c, 7, 79, 89
5, 75348, Note_off_c, 7, 79, 64
5, 75360, Note_on_c, 7, 84, 89
5, 75396, Note_off_c, 7, 84, 64
5, 75408, Note_on_c, 7, 79, 89
5, 75444, Note_off_c, 7, 79, 64
5, 75456, Note_on_c, 7, 88, 89
5, 75492, Note_off_c, 7, 88, 64
5, 75504, Note_on_c, 7, 84, 89
5, 75540, Note_off_c, 7, 84, 64
5, 75552, Note_on_c, 7, 79, 89
5, 75588, Note_off_c, 7, 79, 64
5, 75600, Note_on_c, 7, 76, 89
5, 75636, Note_off_c, 7, 76, 64
5, 75648, Note_on_c, 7, 74, 89
5, 75684, Note_off_c, 7, 74, 64
5, 75696, Note_on_c, 7, 79, 89
5, 75732, Note_off_c, 7, 79, 64
5, 75744, Note_on_c, 7, 83, 89
5, 75780, Note_off_c, 7, 83, 64
5, 75792, Note_on_c, 7, 79, 89
5, 75828, Note_off_c, 7, 79, 64
5, 75840, Note_on_c, 7, 86, 89
5, 75876, Note_off_c, 7, 86, 64
5, 75888, Note_on_c, 7, 83, 89
5, 75924, Note_off_c, 7, 83, 64
5, 75936, Note_on_c, 7, 79, 89
5, 75972, Note_off_c, 7, 79, 64
5, 75984, Note_on_c, 7, 74, 89
5, 76020, Note_off_c, 7, 74, 64
5, 76032, Note_on_c, 7, 72, 89
5, 76068, Note_off_c, 7, 72, 64
5, 76128, Note_on_c, 7, 84, 89
5, 76164, Note_off_c, 7, 84, 64
5, 76176, Note_on_c, 7, 86, 89
5, 76212, Note_off_c, 7, 86, 64
5, 76224, Note_on_c, 7, 88, 89
5, 76260, Note_off_c, 7, 88, 64
5, 76272, Note_on_c, 7, 86, 89
5, 76308, Note_off_c, 7, 86, 64
5, 76320, Note_on_c, 7, 84, 89
5, 76356, Note_off_c, 7, 84, 64
5, 76368, Note_on_c, 7, 83, 89
5, 76404, Note_off_c, 7, 83, 64
5, 76416, Note_on_c, 7, 81, 89
5, 76452, Note_off_c, 7, 81, 64
5, 76464, Note_on_c, 7, 83, 89
5, 76500, Note_off_c, 7, 83, 64
5, 76512, Note_on_c, 7, 81, 89
5, 76548, Note_off_c, 7, 81, 64
5, 76560, Note_on_c, 7, 79, 89
5, 76596, Note_off_c, 7, 79, 64
5, 76608, Note_on_c, 7, 78, 89
5, 76644, Note_off_c, 7, 78, 64
5, 76656, Note_on_c, 7, 76, 89
5, 76692, Note_off_c, 7, 76, 64
5, 76704, Note_on_c, 7, 74, 89
5, 76740, Note_off_c, 7, 74, 64
5, 76752, Note_on_c, 7, 72, 89
5, 76788, Note_off_c, 7, 72, 64
5, 76800, Note_on_c, 7, 71, 89
5, 76836, Note_off_c, 7, 71, 64
5, 76896, Note_on_c, 7, 83, 89
5, 76932, Note_off_c, 7, 83, 64
5, 76944, Note_on_c, 7, 84, 89
5, 76980, Note_off_c, 7, 84, 64
5, 76992, Note_on_c, 7, 86, 89
5, 77028, Note_off_c, 7, 86, 64
5, 77040, Note_on_c, 7, 84, 89
5, 77076, Note_off_c, 7, 84, 64
5, 77088, Note_on_c, 7, 83, 89
5, 77124, Note_off_c, 7, 83, 64
5, 77136, Note_on_c, 7, 81, 89
5, 77172, Note_off_c, 7, 81, 64
5, 77184, Note_on_c, 7, 79, 89
5, 77220, Note_off_c, 7, 79, 64
5, 77232, Note_on_c, 7, 81, 89
5, 77268, Note_off_c, 7, 81, 64
5, 77280, Note_on_c, 7, 79, 89
5, 77316, Note_off_c, 7, 79, 64
5, 77328, Note_on_c, 7, 78, 89
5, 77364, Note_off_c, 7, 78, 64
5, 77376, Note_on_c, 7, 76, 89
5, 77412, Note_off_c, 7, 76, 64
5, 77424, Note_on_c, 7, 74, 89
5, 77460, Note_off_c, 7, 74, 64
5, 77472, Note_on_c, 7, 72, 89
5, 77508, Note_off_c, 7, 72, 64
5, 77520, Note_on_c, 7, 71, 89
5, 77556, Note_off_c, 7, 71, 64
5, 77568, Note_on_c, 7, 76, 89
5, 77604, Note_off_c, 7, 76, 64
5, 77616, Note_on_c, 7, 72, 89
5, 77652, Note_off_c, 7, 72, 64
5, 77664, Note_on_c, 7, 76, 89
5, 77700, Note_off_c, 7, 76, 64
5, 77712, Note_on_c, 7, 72, 89
5, 77748, Note_off_c, 7, 72, 64
5, 77760, Note_on_c, 7, 69, 89
5, 77796, Note_off_c, 7, 69, 64
5, 77856, Note_on_c, 7, 76, 89
5, 77892, Note_off_c, 7, 76, 64
5, 77952, Note_on_c, 7, 74, 89
5, 77988, Note_off_c, 7, 74, 64
5, 78048, Note_on_c, 7, 72, 89
5, 78084, Note_off_c, 7, 72, 64
5, 78144, Note_on_c, 7, 71, 89
5, 78180, Note_off_c, 7, 71, 64
5, 78240, Note_on_c, 7, 69, 89
5, 78276, Note_off_c, 7, 69, 64
5, 78336, Note_on_c, 7, 67, 89
5, 78372, Note_off_c, 7, 67, 64
5, 78384, Note_on_c, 7, 71, 89
5, 78420, Note_off_c, 7, 71, 64
5, 78432, Note_on_c, 7, 69, 89
5, 78468, Note_off_c, 7, 69, 64
5, 78480, Note_on_c, 7, 72, 89
5, 78516, Note_off_c, 7, 72, 64
5, 78528, Note_on_c, 7, 71, 89
5, 78564, Note_off_c, 7, 71, 64
5, 78576, Note_on_c, 7, 74, 89
5, 78612, Note_off_c, 7, 74, 64
5, 78624, Note_on_c, 7, 72, 89
5, 78660, Note_off_c, 7, 72, 64
5, 78672, Note_on_c, 7, 76, 89
5, 78708, Note_off_c, 7, 76, 64
5, 78720, Note_on_c, 7, 74, 89
5, 78756, Note_off_c, 7, 74, 64
5, 78816, Note_on_c, 7, 76, 89
5, 78852, Note_off_c, 7, 76, 64
5, 78912, Note_on_c, 7, 78, 89
5, 78948, Note_off_c, 7, 78, 64
5, 79008, Note_on_c, 7, 79, 89
5, 79044, Note_off_c, 7, 79, 64
5, 79104, Note_on_c, 7, 69, 89
5, 79140, Note_off_c, 7, 69, 64
5, 79152, Note_on_c, 7, 71, 89
5, 79188, Note_off_c, 7, 71, 64
5, 79200, Note_on_c, 7, 69, 89
5, 79236, Note_off_c, 7, 69, 64
5, 79248, Note_on_c, 7, 71, 89
5, 79284, Note_off_c, 7, 71, 64
5, 79296, Note_on_c, 7, 69, 89
5, 79332, Note_off_c, 7, 69, 64
5, 79488, Note_on_c, 7, 84, 89
5, 79524, Note_off_c, 7, 84, 64
5, 79536, Note_on_c, 7, 83, 89
5, 79572, Note_off_c, 7, 83, 64
5, 79584, Note_on_c, 7, 84, 89
5, 79620, Note_off_c, 7, 84, 64
5, 79632, Note_on_c, 7, 83, 89
5, 79668, Note_off_c, 7, 83, 64
5, 79680, Note_on_c, 7, 84, 89
5, 79716, Note_off_c, 7, 84, 64
5, 79872, Note_on_c, 7, 67, 89
5, 79908, Note_off_c, 7, 67, 64
5, 79920, Note_on_c, 7, 69, 89
5, 79956, Note_off_c, 7, 69, 64
5, 79968, Note_on_c, 7, 67, 89
5, 80004, Note_off_c, 7, 67, 64
5, 80016, Note_on_c, 7, 69, 89
5, 80052, Note_off_c, 7, 69, 64
5, 80064, Note_on_c, 7, 67, 89
5, 80100, Note_off_c, 7, 67, 64
5, 80256, Note_on_c, 7, 83, 89
5, 80292, Note_off_c, 7, 83, 64
5, 80304, Note_on_c, 7, 82, 89
5, 80340, Note_off_c, 7, 82, 64
5, 80352, Note_on_c, 7, 83, 89
5, 80388, Note_off_c, 7, 83, 64
5, 80400, Note_on_c, 7, 82, 89
5, 80436, Note_off_c, 7, 82, 64
5, 80448, Note_on_c, 7, 83, 89
5, 80484, Note_off_c, 7, 83, 64
5, 80832, Note_on_c, 7, 76, 89
5, 80868, Note_off_c, 7, 76, 64
5, 80880, Note_on_c, 7, 81, 89
5, 80916, Note_off_c, 7, 81, 64
5, 80928, Note_on_c, 7, 84, 89
5, 80964, Note_off_c, 7, 84, 64
5, 80976, Note_on_c, 7, 88, 89
5, 81012, Note_off_c, 7, 88, 64
5, 81024, Note_on_c, 7, 86, 89
5, 81060, Note_off_c, 7, 86, 64
5, 81072, Note_on_c, 7, 83, 89
5, 81108, Note_off_c, 7, 83, 64
5, 81120, Note_on_c, 7, 84, 89
5, 81156, Note_off_c, 7, 84, 64
5, 81168, Note_on_c, 7, 81, 89
5, 81204, Note_off_c, 7, 81, 64
5, 81216, Note_on_c, 7, 83, 89
5, 81252, Note_off_c, 7, 83, 64
5, 81264, Note_on_c, 7, 79, 89
5, 81300, Note_off_c, 7, 79, 64
5, 81312, Note_on_c, 7, 81, 89
5, 81348, Note_off_c, 7, 81, 64
5, 81360, Note_on_c, 7, 78, 89
5, 81396, Note_off_c, 7, 78, 64
5, 81408, Note_on_c, 7, 79, 89
5, 81444, Note_off_c, 7, 79, 64
5, 81456, Note_on_c, 7, 74, 89
5, 81492, Note_off_c, 7, 74, 64
5, 81504, Note_on_c, 7, 76, 89
5, 81540, Note_off_c, 7, 76, 64
5, 81552, Note_on_c, 7, 72, 89
5, 81588, Note_off_c, 7, 72, 64
5, 81600, Note_on_c, 7, 74, 89
5, 81636, Note_off_c, 7, 74, 64
5, 81648, Note_on_c, 7, 71, 89
5, 81684, Note_off_c, 7, 71, 64
5, 81696, Note_on_c, 7, 72, 89
5, 81732, Note_off_c, 7, 72, 64
5, 81744, Note_on_c, 7, 69, 89
5, 81780, Note_off_c, 7, 69, 64
5, 81792, Note_on_c, 7, 67, 89
5, 81828, Note_off_c, 7, 67, 64
5, 81888, Note_on_c, 7, 62, 89
5, 81960, Note_off_c, 7, 62, 64
5, 81984, Note_on_c, 7, 69, 89
5, 82056, Note_off_c, 7, 69, 64
5, 82080, Note_on_c, 7, 62, 89
5, 82152, Note_off_c, 7, 62, 64
5, 82176, Note_on_c, 7, 71, 89
5, 82248, Note_off_c, 7, 71, 64
5, 82272, Note_on_c, 7, 62, 89
5, 82344, Note_off_c, 7, 62, 64
5, 82368, Note_on_c, 7, 71, 89
5, 82440, Note_off_c, 7, 71, 64
5, 82464, Note_on_c, 7, 62, 89
5, 82536, Note_off_c, 7, 62, 64
5, 82560, Note_on_c, 7, 67, 89
5, 82632, Note_off_c, 7, 67, 64
5, 82656, Note_on_c, 7, 62, 89
5, 82728, Note_off_c, 7, 62, 64
5, 82752, Note_on_c, 7, 69, 89
5, 82824, Note_off_c, 7, 69, 64
5, 82848, Note_on_c, 7, 62, 89
5, 82920, Note_off_c, 7, 62, 64
5, 82944, Note_on_c, 7, 71, 89
5, 83016, Note_off_c, 7, 71, 64
5, 83040, Note_on_c, 7, 62, 89
5, 83112, Note_off_c, 7, 62, 64
5, 83136, Note_on_c, 7, 71, 89
5, 83208, Note_off_c, 7, 71, 64
5, 83232, Note_on_c, 7, 62, 89
5, 83304, Note_off_c, 7, 62, 64
5, 83328, Note_on_c, 7, 67, 89
5, 83400, Note_off_c, 7, 67, 64
5, 83424, Note_on_c, 7, 62, 89
5, 83496, Note_off_c, 7, 62, 64
5, 83520, Note_on_c, 7, 69, 89
5, 83592, Note_off_c, 7, 69, 64
5, 83616, Note_on_c, 7, 62, 89
5, 83688, Note_off_c, 7, 62, 64
5, 83712, Note_on_c, 7, 71, 89
5, 83784, Note_off_c, 7, 71, 64
5, 83808, Note_on_c, 7, 62, 89
5, 83880, Note_off_c, 7, 62, 64
5, 83904, Note_on_c, 7, 69, 89
5, 83976, Note_off_c, 7, 69, 64
5, 84000, Note_on_c, 7, 62, 89
5, 84072, Note_off_c, 7, 62, 64
5, 84096, Note_on_c, 7, 67, 89
5, 84168, Note_off_c, 7, 67, 64
5, 84192, Note_on_c, 7, 62, 89
5, 84264, Note_off_c, 7, 62, 64
5, 84288, Note_on_c, 7, 66, 89
5, 84360, Note_off_c, 7, 66, 64
5, 84384, Note_on_c, 7, 62, 89
5, 84456, Note_off_c, 7, 62, 64
5, 84480, Note_on_c, 7, 67, 89
5, 84552, Note_off_c, 7, 67, 64
5, 84864, Note_on_c, 7, 72, 89
5, 84900, Note_off_c, 7, 72, 64
5, 84912, Note_on_c, 7, 71, 89
5, 84948, Note_off_c, 7, 71, 64
5, 84960, Note_on_c, 7, 69, 89
5, 84996, Note_off_c, 7, 69, 64
5, 85008, Note_on_c, 7, 71, 89
5, 85044, Note_off_c, 7, 71, 64
5, 85056, Note_on_c, 7, 74, 89
5, 85092, Note_off_c, 7, 74, 64
5, 85104, Note_on_c, 7, 72, 89
5, 85140, Note_off_c, 7, 72, 64
5, 85152, Note_on_c, 7, 71, 89
5, 85188, Note_off_c, 7, 71, 64
5, 85200, Note_on_c, 7, 72, 89
5, 85236, Note_off_c, 7, 72, 64
5, 85248, Note_on_c, 7, 74, 89
5, 85284, Note_off_c, 7, 74, 64
5, 85344, Note_on_c, 7, 79, 89
5, 85380, Note_off_c, 7, 79, 64
5, 85440, Note_on_c, 7, 74, 89
5, 85476, Note_off_c, 7, 74, 64
5, 85536, Note_on_c, 7, 74, 89
5, 85572, Note_off_c, 7, 74, 64
5, 85632, Note_on_c, 7, 72, 89
5, 85668, Note_off_c, 7, 72, 64
5, 85680, Note_on_c, 7, 71, 89
5, 85716, Note_off_c, 7, 71, 64
5, 85728, Note_on_c, 7, 69, 89
5, 85764, Note_off_c, 7, 69, 64
5, 85776, Note_on_c, 7, 71, 89
5, 85812, Note_off_c, 7, 71, 64
5, 85824, Note_on_c, 7, 74, 89
5, 85860, Note_off_c, 7, 74, 64
5, 85872, Note_on_c, 7, 72, 89
5, 85908, Note_off_c, 7, 72, 64
5, 85920, Note_on_c, 7, 71, 89
5, 85956, Note_off_c, 7, 71, 64
5, 85968, Note_on_c, 7, 72, 89
5, 86004, Note_off_c, 7, 72, 64
5, 86016, Note_on_c, 7, 74, 89
5, 86052, Note_off_c, 7, 74, 64
5, 86064, Note_on_c, 7, 79, 89
5, 86100, Note_off_c, 7, 79, 64
5, 86112, Note_on_c, 7, 83, 89
5, 86148, Note_off_c, 7, 83, 64
5, 86160, Note_on_c, 7, 79, 89
5, 86196, Note_off_c, 7, 79, 64
5, 86208, Note_on_c, 7, 74, 89
5, 86244, Note_off_c, 7, 74, 64
5, 86304, Note_on_c, 7, 74, 89
5, 86340, Note_off_c, 7, 74, 64
5, 86400, Note_on_c, 7, 84, 89
5, 86436, Note_off_c, 7, 84, 64
5, 86448, Note_on_c, 7, 83, 89
5, 86484, Note_off_c, 7, 83, 64
5, 86496, Note_on_c, 7, 81, 89
5, 86532, Note_off_c, 7, 81, 64
5, 86544, Note_on_c, 7, 83, 89
5, 86580, Note_off_c, 7, 83, 64
5, 86592, Note_on_c, 7, 86, 89
5, 86628, Note_off_c, 7, 86, 64
5, 86640, Note_on_c, 7, 84, 89
5, 86676, Note_off_c, 7, 84, 64
5, 86688, Note_on_c, 7, 83, 89
5, 86724, Note_off_c, 7, 83, 64
5, 86736, Note_on_c, 7, 84, 89
5, 86772, Note_off_c, 7, 84, 64
5, 86784, Note_on_c, 7, 86, 89
5, 86820, Note_off_c, 7, 86, 64
5, 86832, Note_on_c, 7, 83, 89
5, 86868, Note_off_c, 7, 83, 64
5, 86880, Note_on_c, 7, 86, 89
5, 86916, Note_off_c, 7, 86, 64
5, 86928, Note_on_c, 7, 83, 89
5, 86964, Note_off_c, 7, 83, 64
5, 86976, Note_on_c, 7, 84, 89
5, 87012, Note_off_c, 7, 84, 64
5, 87024, Note_on_c, 7, 81, 89
5, 87060, Note_off_c, 7, 81, 64
5, 87072, Note_on_c, 7, 84, 89
5, 87108, Note_off_c, 7, 84, 64
5, 87120, Note_on_c, 7, 81, 89
5, 87156, Note_off_c, 7, 81, 64
5, 87168, Note_on_c, 7, 83, 89
5, 87204, Note_off_c, 7, 83, 64
5, 87216, Note_on_c, 7, 79, 89
5, 87252, Note_off_c, 7, 79, 64
5, 87264, Note_on_c, 7, 83, 89
5, 87300, Note_off_c, 7, 83, 64
5, 87312, Note_on_c, 7, 79, 89
5, 87348, Note_off_c, 7, 79, 64
5, 87360, Note_on_c, 7, 81, 89
5, 87396, Note_off_c, 7, 81, 64
5, 87408, Note_on_c, 7, 78, 89
5, 87444, Note_off_c, 7, 78, 64
5, 87456, Note_on_c, 7, 81, 89
5, 87492, Note_off_c, 7, 81, 64
5, 87504, Note_on_c, 7, 78, 89
5, 87540, Note_off_c, 7, 78, 64
5, 87552, Note_on_c, 7, 74, 89
5, 87588, Note_off_c, 7, 74, 64
5, 87600, Note_on_c, 7, 79, 89
5, 87636, Note_off_c, 7, 79, 64
5, 87648, Note_on_c, 7, 83, 89
5, 87684, Note_off_c, 7, 83, 64
5, 87696, Note_on_c, 7, 86, 89
5, 87732, Note_off_c, 7, 86, 64
5, 87744, Note_on_c, 7, 84, 89
5, 87780, Note_off_c, 7, 84, 64
5, 87792, Note_on_c, 7, 83, 89
5, 87828, Note_off_c, 7, 83, 64
5, 87840, Note_on_c, 7, 81, 89
5, 87876, Note_off_c, 7, 81, 64
5, 87888, Note_on_c, 7, 79, 89
5, 87924, Note_off_c, 7, 79, 64
5, 87936, Note_on_c, 7, 76, 89
5, 87972, Note_off_c, 7, 76, 64
5, 87984, Note_on_c, 7, 81, 89
5, 88020, Note_off_c, 7, 81, 64
5, 88032, Note_on_c, 7, 84, 89
5, 88068, Note_off_c, 7, 84, 64
5, 88080, Note_on_c, 7, 88, 89
5, 88116, Note_off_c, 7, 88, 64
5, 88128, Note_on_c, 7, 86, 89
5, 88164, Note_off_c, 7, 86, 64
5, 88176, Note_on_c, 7, 84, 89
5, 88212, Note_off_c, 7, 84, 64
5, 88224, Note_on_c, 7, 83, 89
5, 88260, Note_off_c, 7, 83, 64
5, 88272, Note_on_c, 7, 81, 89
5, 88308, Note_off_c, 7, 81, 64
5, 88368, Note_on_c, 7, 83, 89
5, 88404, Note_off_c, 7, 83, 64
5, 88416, Note_on_c, 7, 86, 89
5, 88452, Note_off_c, 7, 86, 64
5, 88464, Note_on_c, 7, 83, 89
5, 88500, Note_off_c, 7, 83, 64
5, 88560, Note_on_c, 7, 79, 89
5, 88596, Note_off_c, 7, 79, 64
5, 88608, Note_on_c, 7, 83, 89
5, 88644, Note_off_c, 7, 83, 64
5, 88656, Note_on_c, 7, 79, 89
5, 88692, Note_off_c, 7, 79, 64
5, 88752, Note_on_c, 7, 81, 89
5, 88788, Note_off_c, 7, 81, 64
5, 88800, Note_on_c, 7, 84, 89
5, 88836, Note_off_c, 7, 84, 64
5, 88848, Note_on_c, 7, 81, 89
5, 88884, Note_off_c, 7, 81, 64
5, 88944, Note_on_c, 7, 78, 89
5, 88980, Note_off_c, 7, 78, 64
5, 88992, Note_on_c, 7, 81, 89
5, 89028, Note_off_c, 7, 81, 64
5, 89040, Note_on_c, 7, 78, 89
5, 89064, Note_on_c, 7, 67, 76
5, 89076, Note_off_c, 7, 78, 64
5, 89088, Note_on_c, 7, 71, 82
5, 89112, Note_on_c, 7, 74, 82
5, 89136, Note_on_c, 7, 79, 99
5, 89140, Note_off_c, 7, 71, 73
5, 89145, Note_off_c, 7, 67, 88
5, 89150, Note_off_c, 7, 74, 76
5, 89209, Note_off_c, 7, 79, 80
5, 89470, Note_on_c, 7, 67, 82
5, 89485, Note_on_c, 7, 72, 76
5, 89498, Note_on_c, 7, 76, 88
5, 89515, Note_off_c, 7, 67, 71
5, 89525, Note_on_c, 7, 79, 99
5, 89536, Note_off_c, 7, 72, 72
5, 89545, Note_off_c, 7, 76, 94
5, 89610, Note_off_c, 7, 79, 63
5, 90048, Note_on_c, 7, 62, 89
5, 90084, Note_off_c, 7, 62, 64
5, 90096, Note_on_c, 7, 67, 89
5, 90132, Note_off_c, 7, 67, 64
5, 90144, Note_on_c, 7, 71, 89
5, 90180, Note_off_c, 7, 71, 64
5, 90192, Note_on_c, 7, 74, 89
5, 90228, Note_off_c, 7, 74, 64
5, 90432, Note_on_c, 7, 74, 89
5, 90468, Note_off_c, 7, 74, 64
5, 90480, Note_on_c, 7, 79, 89
5, 90516, Note_off_c, 7, 79, 64
5, 90528, Note_on_c, 7, 83, 89
5, 90564, Note_off_c, 7, 83, 64
5, 90576, Note_on_c, 7, 86, 89
5, 90612, Note_off_c, 7, 86, 64
5, 90624, Note_on_c, 7, 84, 89
5, 90660, Note_off_c, 7, 84, 64
5, 90672, Note_on_c, 7, 81, 89
5, 90708, Note_off_c, 7, 81, 64
5, 90720, Note_on_c, 7, 78, 89
5, 90756, Note_off_c, 7, 78, 64
5, 90768, Note_on_c, 7, 74, 89
5, 90804, Note_off_c, 7, 74, 64
5, 91008, Note_on_c, 7, 72, 89
5, 91044, Note_off_c, 7, 72, 64
5, 91056, Note_on_c, 7, 69, 89
5, 91092, Note_off_c, 7, 69, 64
5, 91104, Note_on_c, 7, 66, 89
5, 91140, Note_off_c, 7, 66, 64
5, 91152, Note_on_c, 7, 62, 89
5, 91188, Note_off_c, 7, 62, 64
5, 91392, Note_on_c, 7, 59, 89
5, 91392, Note_on_c, 7, 62, 89
5, 91392, Note_on_c, 7, 67, 89
5, 91428, Note_off_c, 7, 59, 64
5, 91428, Note_off_c, 7, 62, 64
5, 91428, Note_off_c, 7, 67, 64
5, 106752, Note_on_c, 7, 69, 90
5, 106788, Note_off_c, 7, 69, 64
5, 106800, Note_on_c, 7, 72, 90
5, 106836, Note_off_c, 7, 72, 64
5, 106848, Note_on_c, 7, 76, 90
5, 106884, Note_off_c, 7, 76, 64
5, 106896, Note_on_c, 7, 81, 90
5, 106932, Note_off_c, 7, 81, 64
5, 106992, Note_on_c, 7, 72, 90
5, 107028, Note_off_c, 7, 72, 64
5, 107040, Note_on_c, 7, 84, 90
5, 107076, Note_off_c, 7, 84, 64
5, 107088, Note_on_c, 7, 72, 90
5, 107124, Note_off_c, 7, 72, 64
5, 107184, Note_on_c, 7, 71, 90
5, 107220, Note_off_c, 7, 71, 64
5, 107232, Note_on_c, 7, 83, 90
5, 107268, Note_off_c, 7, 83, 64
5, 107280, Note_on_c, 7, 71, 90
5, 107316, Note_off_c, 7, 71, 64
5, 107376, Note_on_c, 7, 69, 90
5, 107412, Note_off_c, 7, 69, 64
5, 107424, Note_on_c, 7, 81, 90
5, 107460, Note_off_c, 7, 81, 64
5, 107472, Note_on_c, 7, 69, 90
5, 107508, Note_off_c, 7, 69, 64
5, 107568, Note_on_c, 7, 68, 90
5, 107604, Note_off_c, 7, 68, 64
5, 107616, Note_on_c, 7, 80, 90
5, 107652, Note_off_c, 7, 80, 64
5, 107664, Note_on_c, 7, 68, 90
5, 107700, Note_off_c, 7, 68, 64
5, 107760, Note_on_c, 7, 69, 90
5, 107796, Note_off_c, 7, 69, 64
5, 107808, Note_on_c, 7, 81, 90
5, 107844, Note_off_c, 7, 81, 64
5, 107856, Note_on_c, 7, 69, 90
5, 107892, Note_off_c, 7, 69, 64
5, 107952, Note_on_c, 7, 67, 90
5, 107988, Note_off_c, 7, 67, 64
5, 108000, Note_on_c, 7, 79, 90
5, 108036, Note_off_c, 7, 79, 64
5, 108048, Note_on_c, 7, 67, 90
5, 108084, Note_off_c, 7, 67, 64
5, 108144, Note_on_c, 7, 65, 90
5, 108180, Note_off_c, 7, 65, 64
5, 108192, Note_on_c, 7, 77, 90
5, 108228, Note_off_c, 7, 77, 64
5, 108240, Note_on_c, 7, 65, 90
5, 108276, Note_off_c, 7, 65, 64
5, 108336, Note_on_c, 7, 64, 90
5, 108372, Note_off_c, 7, 64, 64
5, 108384, Note_on_c, 7, 76, 90
5, 108420, Note_off_c, 7, 76, 64
5, 108432, Note_on_c, 7, 64, 90
5, 108468, Note_off_c, 7, 64, 64
5, 108528, Note_on_c, 7, 65, 90
5, 108564, Note_off_c, 7, 65, 64
5, 108576, Note_on_c, 7, 77, 90
5, 108612, Note_off_c, 7, 77, 64
5, 108624, Note_on_c, 7, 65, 90
5, 108660, Note_off_c, 7, 65, 64
5, 108720, Note_on_c, 7, 64, 90
5, 108756, Note_off_c, 7, 64, 64
5, 108768, Note_on_c, 7, 76, 90
5, 108804, Note_off_c, 7, 76, 64
5, 108816, Note_on_c, 7, 64, 90
5, 108852, Note_off_c, 7, 64, 64
5, 108912, Note_on_c, 7, 62, 90
5, 108948, Note_off_c, 7, 62, 64
5, 108960, Note_on_c, 7, 74, 90
5, 108996, Note_off_c, 7, 74, 64
5, 109008, Note_on_c, 7, 62, 90
5, 109044, Note_off_c, 7, 62, 64
5, 109056, Note_on_c, 7, 61, 90
5, 109056, Note_on_c, 7, 73, 90
5, 109092, Note_off_c, 7, 61, 64
5, 109092, Note_off_c, 7, 73, 64
5, 114432, Note_on_c, 7, 74, 60
5, 114468, Note_off_c, 7, 74, 64
5, 114528, Note_on_c, 7, 77, 60
5, 114564, Note_off_c, 7, 77, 64
5, 114624, Note_on_c, 7, 77, 60
5, 114660, Note_off_c, 7, 77, 64
5, 114720, Note_on_c, 7, 77, 60
5, 114756, Note_off_c, 7, 77, 64
5, 114816, Note_on_c, 7, 79, 60
5, 114852, Note_off_c, 7, 79, 64
5, 114864, Note_on_c, 7, 77, 60
5, 114900, Note_off_c, 7, 77, 64
5, 114912, Note_on_c, 7, 76, 60
5, 114948, Note_off_c, 7, 76, 64
5, 114960, Note_on_c, 7, 77, 60
5, 114996, Note_off_c, 7, 77, 64
5, 115008, Note_on_c, 7, 79, 60
5, 115044, Note_off_c, 7, 79, 64
5, 115056, Note_on_c, 7, 77, 60
5, 115092, Note_off_c, 7, 77, 64
5, 115104, Note_on_c, 7, 76, 60
5, 115140, Note_off_c, 7, 76, 64
5, 115152, Note_on_c, 7, 77, 60
5, 115188, Note_off_c, 7, 77, 64
5, 115200, Note_on_c, 7, 76, 60
5, 115236, Note_off_c, 7, 76, 64
5, 115296, Note_on_c, 7, 76, 60
5, 115332, Note_off_c, 7, 76, 64
5, 115392, Note_on_c, 7, 76, 60
5, 115428, Note_off_c, 7, 76, 64
5, 115488, Note_on_c, 7, 76, 60
5, 115524, Note_off_c, 7, 76, 64
5, 115584, Note_on_c, 7, 76, 60
5, 115620, Note_off_c, 7, 76, 64
5, 115632, Note_on_c, 7, 77, 60
5, 115668, Note_off_c, 7, 77, 64
5, 115680, Note_on_c, 7, 79, 60
5, 115716, Note_off_c, 7, 79, 64
5, 115728, Note_on_c, 7, 77, 60
5, 115764, Note_off_c, 7, 77, 64
5, 115776, Note_on_c, 7, 76, 60
5, 115812, Note_off_c, 7, 76, 64
5, 115824, Note_on_c, 7, 77, 60
5, 115860, Note_off_c, 7, 77, 64
5, 115872, Note_on_c, 7, 79, 60
5, 115908, Note_off_c, 7, 79, 64
5, 115920, Note_on_c, 7, 77, 60
5, 115956, Note_off_c, 7, 77, 64
5, 115968, Note_on_c, 7, 76, 80
5, 116004, Note_off_c, 7, 76, 64
5, 116064, Note_on_c, 7, 82, 80
5, 116100, Note_off_c, 7, 82, 64
5, 116160, Note_on_c, 7, 82, 80
5, 116196, Note_off_c, 7, 82, 64
5, 116256, Note_on_c, 7, 82, 80
5, 116292, Note_off_c, 7, 82, 64
5, 116352, Note_on_c, 7, 82, 80
5, 116388, Note_off_c, 7, 82, 64
5, 116400, Note_on_c, 7, 81, 80
5, 116436, Note_off_c, 7, 81, 64
5, 116448, Note_on_c, 7, 82, 80
5, 116484, Note_off_c, 7, 82, 64
5, 116496, Note_on_c, 7, 81, 80
5, 116532, Note_off_c, 7, 81, 64
5, 116544, Note_on_c, 7, 82, 80
5, 116580, Note_off_c, 7, 82, 64
5, 116592, Note_on_c, 7, 79, 80
5, 116628, Note_off_c, 7, 79, 64
5, 116640, Note_on_c, 7, 77, 80
5, 116676, Note_off_c, 7, 77, 64
5, 116688, Note_on_c, 7, 76, 80
5, 116724, Note_off_c, 7, 76, 64
5, 116736, Note_on_c, 7, 77, 60
5, 116772, Note_off_c, 7, 77, 64
5, 116784, Note_on_c, 7, 69, 60
5, 116820, Note_off_c, 7, 69, 64
5, 116832, Note_on_c, 7, 72, 60
5, 116868, Note_off_c, 7, 72, 64
5, 116880, Note_on_c, 7, 69, 60
5, 116916, Note_off_c, 7, 69, 64
5, 116928, Note_on_c, 7, 65, 60
5, 116964, Note_off_c, 7, 65, 64
5, 116976, Note_on_c, 7, 69, 60
5, 117012, Note_off_c, 7, 69, 64
5, 117024, Note_on_c, 7, 72, 60
5, 117060, Note_off_c, 7, 72, 64
5, 117072, Note_on_c, 7, 69, 60
5, 117108, Note_off_c, 7, 69, 64
5, 117120, Note_on_c, 7, 65, 60
5, 117156, Note_off_c, 7, 65, 64
5, 117168, Note_on_c, 7, 69, 60
5, 117204, Note_off_c, 7, 69, 64
5, 117216, Note_on_c, 7, 72, 60
5, 117252, Note_off_c, 7, 72, 64
5, 117264, Note_on_c, 7, 69, 60
5, 117300, Note_off_c, 7, 69, 64
5, 117312, Note_on_c, 7, 65, 60
5, 117348, Note_off_c, 7, 65, 64
5, 117360, Note_on_c, 7, 69, 60
5, 117396, Note_off_c, 7, 69, 64
5, 117408, Note_on_c, 7, 72, 60
5, 117444, Note_off_c, 7, 72, 64
5, 117456, Note_on_c, 7, 69, 60
5, 117492, Note_off_c, 7, 69, 64
5, 117504, Note_on_c, 7, 65, 60
5, 117540, Note_off_c, 7, 65, 64
5, 117552, Note_on_c, 7, 71, 60
5, 117588, Note_off_c, 7, 71, 64
5, 117600, Note_on_c, 7, 74, 60
5, 117636, Note_off_c, 7, 74, 64
5, 117648, Note_on_c, 7, 71, 60
5, 117684, Note_off_c, 7, 71, 64
5, 117696, Note_on_c, 7, 65, 60
5, 117732, Note_off_c, 7, 65, 64
5, 117744, Note_on_c, 7, 71, 60
5, 117780, Note_off_c, 7, 71, 64
5, 117792, Note_on_c, 7, 74, 60
5, 117828, Note_off_c, 7, 74, 64
5, 117840, Note_on_c, 7, 71, 60
5, 117876, Note_off_c, 7, 71, 64
5, 117888, Note_on_c, 7, 65, 60
5, 117924, Note_off_c, 7, 65, 64
5, 117936, Note_on_c, 7, 71, 60
5, 117972, Note_off_c, 7, 71, 64
5, 117984, Note_on_c, 7, 74, 60
5, 118020, Note_off_c, 7, 74, 64
5, 118032, Note_on_c, 7, 71, 60
5, 118068, Note_off_c, 7, 71, 64
5, 118080, Note_on_c, 7, 65, 60
5, 118116, Note_off_c, 7, 65, 64
5, 118128, Note_on_c, 7, 71, 60
5, 118164, Note_off_c, 7, 71, 64
5, 118176, Note_on_c, 7, 74, 60
5, 118212, Note_off_c, 7, 74, 64
5, 118224, Note_on_c, 7, 71, 60
5, 118260, Note_off_c, 7, 71, 64
5, 118272, Note_on_c, 7, 64, 80
5, 118308, Note_off_c, 7, 64, 64
5, 118320, Note_on_c, 7, 71, 80
5, 118356, Note_off_c, 7, 71, 64
5, 118368, Note_on_c, 7, 74, 80
5, 118404, Note_off_c, 7, 74, 64
5, 118416, Note_on_c, 7, 71, 80
5, 118452, Note_off_c, 7, 71, 64
5, 118464, Note_on_c, 7, 64, 80
5, 118500, Note_off_c, 7, 64, 64
5, 118512, Note_on_c, 7, 71, 80
5, 118548, Note_off_c, 7, 71, 64
5, 118560, Note_on_c, 7, 74, 80
5, 118596, Note_off_c, 7, 74, 64
5, 118608, Note_on_c, 7, 71, 80
5, 118644, Note_off_c, 7, 71, 64
5, 118656, Note_on_c, 7, 64, 80
5, 118692, Note_off_c, 7, 64, 64
5, 118704, Note_on_c, 7, 71, 80
5, 118740, Note_off_c, 7, 71, 64
5, 118752, Note_on_c, 7, 74, 80
5, 118788, Note_off_c, 7, 74, 64
5, 118800, Note_on_c, 7, 71, 80
5, 118836, Note_off_c, 7, 71, 64
5, 118848, Note_on_c, 7, 64, 80
5, 118884, Note_off_c, 7, 64, 64
5, 118896, Note_on_c, 7, 71, 80
5, 118932, Note_off_c, 7, 71, 64
5, 118944, Note_on_c, 7, 74, 80
5, 118980, Note_off_c, 7, 74, 64
5, 118992, Note_on_c, 7, 71, 80
5, 119028, Note_off_c, 7, 71, 64
5, 119040, Note_on_c, 7, 69, 60
5, 119076, Note_off_c, 7, 69, 64
5, 119136, Note_on_c, 7, 84, 60
5, 119172, Note_off_c, 7, 84, 64
5, 119232, Note_on_c, 7, 84, 60
5, 119268, Note_off_c, 7, 84, 64
5, 119328, Note_on_c, 7, 84, 60
5, 119364, Note_off_c, 7, 84, 64
5, 119424, Note_on_c, 7, 86, 60
5, 119460, Note_off_c, 7, 86, 64
5, 119472, Note_on_c, 7, 84, 60
5, 119508, Note_off_c, 7, 84, 64
5, 119520, Note_on_c, 7, 83, 60
5, 119556, Note_off_c, 7, 83, 64
5, 119568, Note_on_c, 7, 84, 60
5, 119604, Note_off_c, 7, 84, 64
5, 119616, Note_on_c, 7, 86, 60
5, 119652, Note_off_c, 7, 86, 64
5, 119664, Note_on_c, 7, 84, 60
5, 119700, Note_off_c, 7, 84, 64
5, 119712, Note_on_c, 7, 83, 60
5, 119748, Note_off_c, 7, 83, 64
5, 119760, Note_on_c, 7, 84, 60
5, 119796, Note_off_c, 7, 84, 64
5, 119808, Note_on_c, 7, 83, 60
5, 119844, Note_off_c, 7, 83, 64
5, 119904, Note_on_c, 7, 83, 60
5, 119940, Note_off_c, 7, 83, 64
5, 120000, Note_on_c, 7, 83, 60
5, 120036, Note_off_c, 7, 83, 64
5, 120096, Note_on_c, 7, 83, 60
5, 120132, Note_off_c, 7, 83, 64
5, 120192, Note_on_c, 7, 83, 60
5, 120228, Note_off_c, 7, 83, 64
5, 120240, Note_on_c, 7, 84, 60
5, 120276, Note_off_c, 7, 84, 64
5, 120288, Note_on_c, 7, 86, 60
5, 120324, Note_off_c, 7, 86, 64
5, 120336, Note_on_c, 7, 84, 60
5, 120372, Note_off_c, 7, 84, 64
5, 120384, Note_on_c, 7, 83, 60
5, 120420, Note_off_c, 7, 83, 64
5, 120432, Note_on_c, 7, 84, 60
5, 120468, Note_off_c, 7, 84, 64
5, 120480, Note_on_c, 7, 86, 60
5, 120516, Note_off_c, 7, 86, 64
5, 120528, Note_on_c, 7, 84, 60
5, 120564, Note_off_c, 7, 84, 64
5, 120576, Note_on_c, 7, 83, 80
5, 120612, Note_off_c, 7, 83, 64
5, 120672, Note_on_c, 7, 89, 80
5, 120708, Note_off_c, 7, 89, 64
5, 120768, Note_on_c, 7, 89, 80
5, 120804, Note_off_c, 7, 89, 64
5, 120864, Note_on_c, 7, 89, 80
5, 120900, Note_off_c, 7, 89, 64
5, 120960, Note_on_c, 7, 89, 80
5, 120996, Note_off_c, 7, 89, 64
5, 121008, Note_on_c, 7, 88, 80
5, 121044, Note_off_c, 7, 88, 64
5, 121056, Note_on_c, 7, 89, 80
5, 121092, Note_off_c, 7, 89, 64
5, 121104, Note_on_c, 7, 88, 80
5, 121140, Note_off_c, 7, 88, 64
5, 121152, Note_on_c, 7, 89, 80
5, 121188, Note_off_c, 7, 89, 64
5, 121200, Note_on_c, 7, 86, 80
5, 121236, Note_off_c, 7, 86, 64
5, 121248, Note_on_c, 7, 84, 80
5, 121284, Note_off_c, 7, 84, 64
5, 121296, Note_on_c, 7, 83, 80
5, 121332, Note_off_c, 7, 83, 64
5, 121344, Note_on_c, 7, 84, 60
5, 121380, Note_off_c, 7, 84, 64
5, 121440, Note_on_c, 7, 79, 60
5, 121476, Note_off_c, 7, 79, 64
5, 121536, Note_on_c, 7, 79, 60
5, 121572, Note_off_c, 7, 79, 64
5, 121632, Note_on_c, 7, 79, 60
5, 121668, Note_off_c, 7, 79, 64
5, 121728, Note_on_c, 7, 78, 60
5, 121764, Note_off_c, 7, 78, 64
5, 121776, Note_on_c, 7, 79, 60
5, 121812, Note_off_c, 7, 79, 64
5, 121824, Note_on_c, 7, 78, 60
5, 121860, Note_off_c, 7, 78, 64
5, 121872, Note_on_c, 7, 79, 60
5, 121908, Note_off_c, 7, 79, 64
5, 121920, Note_on_c, 7, 77, 60
5, 121956, Note_off_c, 7, 77, 64
5, 121968, Note_on_c, 7, 75, 60
5, 122004, Note_off_c, 7, 75, 64
5, 122016, Note_on_c, 7, 74, 60
5, 122052, Note_off_c, 7, 74, 64
5, 122064, Note_on_c, 7, 72, 60
5, 122112, Note_off_c, 7, 72, 64
5, 122112, Note_on_c, 7, 83, 80
5, 122148, Note_off_c, 7, 83, 64
5, 122208, Note_on_c, 7, 89, 80
5, 122244, Note_off_c, 7, 89, 64
5, 122304, Note_on_c, 7, 89, 80
5, 122340, Note_off_c, 7, 89, 64
5, 122400, Note_on_c, 7, 89, 80
5, 122436, Note_off_c, 7, 89, 64
5, 122496, Note_on_c, 7, 89, 80
5, 122532, Note_off_c, 7, 89, 64
5, 122544, Note_on_c, 7, 88, 80
5, 122580, Note_off_c, 7, 88, 64
5, 122592, Note_on_c, 7, 89, 80
5, 122628, Note_off_c, 7, 89, 64
5, 122640, Note_on_c, 7, 88, 80
5, 122676, Note_off_c, 7, 88, 64
5, 122688, Note_on_c, 7, 89, 80
5, 122724, Note_off_c, 7, 89, 64
5, 122736, Note_on_c, 7, 86, 80
5, 122772, Note_off_c, 7, 86, 64
5, 122784, Note_on_c, 7, 84, 80
5, 122820, Note_off_c, 7, 84, 64
5, 122832, Note_on_c, 7, 83, 80
5, 122868, Note_off_c, 7, 83, 64
5, 122880, Note_on_c, 7, 84, 60
5, 122916, Note_off_c, 7, 84, 64
5, 122976, Note_on_c, 7, 79, 60
5, 123012, Note_off_c, 7, 79, 64
5, 123072, Note_on_c, 7, 79, 60
5, 123108, Note_off_c, 7, 79, 64
5, 123168, Note_on_c, 7, 79, 60
5, 123204, Note_off_c, 7, 79, 64
5, 123264, Note_on_c, 7, 78, 60
5, 123300, Note_off_c, 7, 78, 64
5, 123312, Note_on_c, 7, 79, 60
5, 123348, Note_off_c, 7, 79, 64
5, 123360, Note_on_c, 7, 78, 60
5, 123396, Note_off_c, 7, 78, 64
5, 123408, Note_on_c, 7, 79, 60
5, 123444, Note_off_c, 7, 79, 64
5, 123456, Note_on_c, 7, 77, 60
5, 123492, Note_off_c, 7, 77, 64
5, 123504, Note_on_c, 7, 75, 60
5, 123540, Note_off_c, 7, 75, 64
5, 123552, Note_on_c, 7, 74, 60
5, 123588, Note_off_c, 7, 74, 64
5, 123600, Note_on_c, 7, 72, 60
5, 123648, Note_off_c, 7, 72, 64
5, 124512, Note_on_c, 7, 59, 90
5, 124584, Note_off_c, 7, 59, 64
5, 124608, Note_on_c, 7, 60, 90
5, 124680, Note_off_c, 7, 60, 64
5, 124704, Note_on_c, 7, 62, 90
5, 124776, Note_off_c, 7, 62, 64
5, 124800, Note_on_c, 7, 63, 90
5, 124872, Note_off_c, 7, 63, 64
5, 124896, Note_on_c, 7, 64, 90
5, 124968, Note_off_c, 7, 64, 64
5, 124992, Note_on_c, 7, 65, 90
5, 125064, Note_off_c, 7, 65, 64
5, 125088, Note_on_c, 7, 66, 90
5, 125160, Note_off_c, 7, 66, 64
5, 125184, Note_on_c, 7, 67, 90
5, 125256, Note_off_c, 7, 67, 64
5, 125760, Note_on_c, 7, 84, 90
5, 125832, Note_off_c, 7, 84, 64
5, 125856, Note_on_c, 7, 72, 90
5, 125928, Note_off_c, 7, 72, 64
5, 125952, Note_on_c, 7, 71, 90
5, 125952, Note_on_c, 7, 55, 90
5, 126024, Note_off_c, 7, 71, 64
5, 126024, Note_off_c, 7, 55, 64
5, 126528, Note_on_c, 7, 84, 90
5, 126600, Note_off_c, 7, 84, 64
5, 126624, Note_on_c, 7, 72, 90
5, 126696, Note_off_c, 7, 72, 64
5, 126720, Note_on_c, 7, 74, 90
5, 126720, Note_on_c, 7, 71, 90
5, 126792, Note_off_c, 7, 74, 64
5, 126792, Note_off_c, 7, 71, 64
5, 126816, Note_on_c, 7, 62, 90
5, 126816, Note_on_c, 7, 59, 90
5, 126888, Note_off_c, 7, 62, 64
5, 126888, Note_off_c, 7, 59, 64
5, 127008, Note_on_c, 7, 74, 90
5, 127008, Note_on_c, 7, 71, 90
5, 127080, Note_off_c, 7, 74, 64
5, 127080, Note_off_c, 7, 71, 64
5, 127104, Note_on_c, 7, 72, 90
5, 127104, Note_on_c, 7, 76, 90
5, 127176, Note_off_c, 7, 72, 64
5, 127176, Note_off_c, 7, 76, 64
5, 127200, Note_on_c, 7, 64, 90
5, 127200, Note_on_c, 7, 60, 90
5, 127272, Note_off_c, 7, 64, 64
5, 127272, Note_off_c, 7, 60, 64
5, 127392, Note_on_c, 7, 72, 90
5, 127392, Note_on_c, 7, 76, 90
5, 127464, Note_off_c, 7, 72, 64
5, 127464, Note_off_c, 7, 76, 64
5, 127488, Note_on_c, 7, 74, 90
5, 127488, Note_on_c, 7, 77, 90
5, 127560, Note_off_c, 7, 74, 64
5, 127560, Note_off_c, 7, 77, 64
5, 127584, Note_on_c, 7, 65, 90
5, 127584, Note_on_c, 7, 62, 90
5, 127656, Note_off_c, 7, 65, 64
5, 127656, Note_off_c, 7, 62, 64
5, 127776, Note_on_c, 7, 74, 90
5, 127776, Note_on_c, 7, 77, 90
5, 127848, Note_off_c, 7, 74, 64
5, 127848, Note_off_c, 7, 77, 64
5, 127872, Note_on_c, 7, 76, 90
5, 127872, Note_on_c, 7, 79, 90
5, 127944, Note_off_c, 7, 76, 64
5, 127944, Note_off_c, 7, 79, 64
5, 127968, Note_on_c, 7, 67, 90
5, 127968, Note_on_c, 7, 64, 90
5, 128040, Note_off_c, 7, 67, 64
5, 128040, Note_off_c, 7, 64, 64
5, 128160, Note_on_c, 7, 79, 90
5, 128160, Note_on_c, 7, 76, 90
5, 128232, Note_off_c, 7, 79, 64
5, 128232, Note_off_c, 7, 76, 64
5, 128256, Note_on_c, 7, 77, 90
5, 128256, Note_on_c, 7, 81, 90
5, 128328, Note_off_c, 7, 77, 64
5, 128328, Note_off_c, 7, 81, 64
5, 128352, Note_on_c, 7, 69, 90
5, 128352, Note_on_c, 7, 65, 90
5, 128424, Note_off_c, 7, 69, 64
5, 128424, Note_off_c, 7, 65, 64
5, 128544, Note_on_c, 7, 81, 90
5, 128544, Note_on_c, 7, 77, 90
5, 128616, Note_off_c, 7, 81, 64
5, 128616, Note_off_c, 7, 77, 64
5, 128640, Note_on_c, 7, 74, 90
5, 128640, Note_on_c, 7, 77, 90
5, 128640, Note_on_c, 7, 83, 90
5, 128712, Note_off_c, 7, 74, 64
5, 128712, Note_off_c, 7, 77, 64
5, 128712, Note_off_c, 7, 83, 64
5, 128736, Note_on_c, 7, 62, 90
5, 128736, Note_on_c, 7, 65, 90
5, 128736, Note_on_c, 7, 71, 90
5, 128808, Note_off_c, 7, 62, 64
5, 128808, Note_off_c, 7, 65, 64
5, 128808, Note_off_c, 7, 71, 64
5, 128928, Note_on_c, 7, 74, 90
5, 128928, Note_on_c, 7, 77, 90
5, 128928, Note_on_c, 7, 83, 90
5, 129000, Note_off_c, 7, 74, 64
5, 129000, Note_off_c, 7, 77, 64
5, 129000, Note_off_c, 7, 83, 64
5, 129024, Note_on_c, 7, 72, 68
5, 129042, Note_on_c, 7, 76, 1
5, 129056, Note_on_c, 7, 79, 99
5, 129088, Note_on_c, 7, 84, 94
5, 129100, Note_off_c, 7, 79, 99
5, 129101, Note_off_c, 7, 76, 92
5, 129120, Note_off_c, 7, 72, 68
5, 129243, Note_off_c, 7, 84, 65
5, 133632, Note_on_c, 7, 67, 97
5, 133668, Note_off_c, 7, 67, 64
5, 133680, Note_on_c, 7, 79, 97
5, 133716, Note_off_c, 7, 79, 64
5, 133728, Note_on_c, 7, 67, 97
5, 133764, Note_off_c, 7, 67, 64
5, 133776, Note_on_c, 7, 79, 97
5, 133812, Note_off_c, 7, 79, 64
5, 133824, Note_on_c, 7, 67, 67
5, 133860, Note_off_c, 7, 67, 64
5, 133872, Note_on_c, 7, 79, 67
5, 133908, Note_off_c, 7, 79, 64
5, 133920, Note_on_c, 7, 67, 67
5, 133956, Note_off_c, 7, 67, 64
5, 133968, Note_on_c, 7, 79, 67
5, 134004, Note_off_c, 7, 79, 64
5, 134016, Note_on_c, 7, 67, 67
5, 134052, Note_off_c, 7, 67, 64
5, 134064, Note_on_c, 7, 79, 67
5, 134100, Note_off_c, 7, 79, 64
5, 134112, Note_on_c, 7, 67, 67
5, 134148, Note_off_c, 7, 67, 64
5, 134160, Note_on_c, 7, 79, 67
5, 134196, Note_off_c, 7, 79, 64
5, 134208, Note_on_c, 7, 67, 67
5, 134244, Note_off_c, 7, 67, 64
5, 134256, Note_on_c, 7, 79, 67
5, 134292, Note_off_c, 7, 79, 64
5, 134304, Note_on_c, 7, 67, 67
5, 134340, Note_off_c, 7, 67, 64
5, 134352, Note_on_c, 7, 79, 67
5, 134388, Note_off_c, 7, 79, 64
5, 134400, Note_on_c, 7, 67, 97
5, 134436, Note_off_c, 7, 67, 64
5, 134448, Note_on_c, 7, 79, 97
5, 134484, Note_off_c, 7, 79, 64
5, 134496, Note_on_c, 7, 67, 97
5, 134532, Note_off_c, 7, 67, 64
5, 134544, Note_on_c, 7, 79, 97
5, 134580, Note_off_c, 7, 79, 64
5, 134592, Note_on_c, 7, 67, 67
5, 134628, Note_off_c, 7, 67, 64
5, 134640, Note_on_c, 7, 79, 67
5, 134676, Note_off_c, 7, 79, 64
5, 134688, Note_on_c, 7, 67, 67
5, 134724, Note_off_c, 7, 67, 64
5, 134736, Note_on_c, 7, 79, 67
5, 134772, Note_off_c, 7, 79, 64
5, 134784, Note_on_c, 7, 67, 67
5, 134820, Note_off_c, 7, 67, 64
5, 134832, Note_on_c, 7, 79, 67
5, 134868, Note_off_c, 7, 79, 64
5, 134880, Note_on_c, 7, 67, 67
5, 134916, Note_off_c, 7, 67, 64
5, 134928, Note_on_c, 7, 79, 67
5, 134964, Note_off_c, 7, 79, 64
5, 134976, Note_on_c, 7, 67, 67
5, 135012, Note_off_c, 7, 67, 64
5, 135024, Note_on_c, 7, 79, 67
5, 135060, Note_off_c, 7, 79, 64
5, 135072, Note_on_c, 7, 67, 67
5, 135108, Note_off_c, 7, 67, 64
5, 135120, Note_on_c, 7, 79, 67
5, 135156, Note_off_c, 7, 79, 64
5, 135168, Note_on_c, 7, 67, 97
5, 135204, Note_off_c, 7, 67, 64
5, 135216, Note_on_c, 7, 79, 107
5, 135252, Note_off_c, 7, 79, 64
5, 135264, Note_on_c, 7, 67, 97
5, 135300, Note_off_c, 7, 67, 64
5, 135312, Note_on_c, 7, 79, 97
5, 135348, Note_off_c, 7, 79, 64
5, 135360, Note_on_c, 7, 67, 67
5, 135396, Note_off_c, 7, 67, 64
5, 135408, Note_on_c, 7, 79, 67
5, 135444, Note_off_c, 7, 79, 64
5, 135456, Note_on_c, 7, 67, 67
5, 135492, Note_off_c, 7, 67, 64
5, 135504, Note_on_c, 7, 79, 67
5, 135540, Note_off_c, 7, 79, 64
5, 135552, Note_on_c, 7, 67, 67
5, 135588, Note_off_c, 7, 67, 64
5, 135600, Note_on_c, 7, 79, 67
5, 135636, Note_off_c, 7, 79, 64
5, 135648, Note_on_c, 7, 67, 67
5, 135684, Note_off_c, 7, 67, 64
5, 135696, Note_on_c, 7, 79, 67
5, 135732, Note_off_c, 7, 79, 64
5, 135744, Note_on_c, 7, 67, 67
5, 135780, Note_off_c, 7, 67, 64
5, 135792, Note_on_c, 7, 79, 67
5, 135828, Note_off_c, 7, 79, 64
5, 135840, Note_on_c, 7, 67, 67
5, 135876, Note_off_c, 7, 67, 64
5, 135888, Note_on_c, 7, 79, 67
5, 135924, Note_off_c, 7, 79, 64
5, 135936, Note_on_c, 7, 65, 67
5, 135972, Note_off_c, 7, 65, 64
5, 135984, Note_on_c, 7, 69, 67
5, 136020, Note_off_c, 7, 69, 64
5, 136032, Note_on_c, 7, 72, 67
5, 136068, Note_off_c, 7, 72, 64
5, 136080, Note_on_c, 7, 77, 67
5, 136116, Note_off_c, 7, 77, 64
5, 136128, Note_on_c, 7, 67, 67
5, 136164, Note_off_c, 7, 67, 64
5, 136176, Note_on_c, 7, 72, 67
5, 136212, Note_off_c, 7, 72, 64
5, 136224, Note_on_c, 7, 76, 67
5, 136260, Note_off_c, 7, 76, 64
5, 136272, Note_on_c, 7, 79, 67
5, 136308, Note_off_c, 7, 79, 64
5, 136320, Note_on_c, 7, 69, 67
5, 136356, Note_off_c, 7, 69, 64
5, 136368, Note_on_c, 7, 72, 67
5, 136404, Note_off_c, 7, 72, 64
5, 136416, Note_on_c, 7, 77, 67
5, 136452, Note_off_c, 7, 77, 64
5, 136464, Note_on_c, 7, 81, 67
5, 136500, Note_off_c, 7, 81, 64
5, 136512, Note_on_c, 7, 71, 67
5, 136548, Note_off_c, 7, 71, 64
5, 136560, Note_on_c, 7, 74, 67
5, 136596, Note_off_c, 7, 74, 64
5, 136608, Note_on_c, 7, 77, 67
5, 136644, Note_off_c, 7, 77, 64
5, 136656, Note_on_c, 7, 83, 67
5, 136692, Note_off_c, 7, 83, 64
5, 136896, Note_on_c, 7, 72, 89
5, 136932, Note_off_c, 7, 72, 64
5, 136944, Note_on_c, 7, 76, 89
5, 136980, Note_off_c, 7, 76, 64
5, 136992, Note_on_c, 7, 79, 89
5, 137028, Note_off_c, 7, 79, 64
5, 137040, Note_on_c, 7, 84, 89
5, 137076, Note_off_c, 7, 84, 64
5, 137088, Note_on_c, 7, 76, 89
5, 137124, Note_off_c, 7, 76, 64
5, 137136, Note_on_c, 7, 79, 89
5, 137172, Note_off_c, 7, 79, 64
5, 137184, Note_on_c, 7, 84, 89
5, 137220, Note_off_c, 7, 84, 64
5, 137232, Note_on_c, 7, 88, 89
5, 137268, Note_off_c, 7, 88, 64
5, 137280, Note_on_c, 7, 86, 89
5, 137316, Note_off_c, 7, 86, 64
5, 137328, Note_on_c, 7, 84, 89
5, 137364, Note_off_c, 7, 84, 64
5, 137376, Note_on_c, 7, 83, 89
5, 137412, Note_off_c, 7, 83, 64
5, 137424, Note_on_c, 7, 84, 89
5, 137460, Note_off_c, 7, 84, 64
5, 137472, Note_on_c, 7, 86, 89
5, 137508, Note_off_c, 7, 86, 64
5, 137520, Note_on_c, 7, 83, 89
5, 137556, Note_off_c, 7, 83, 64
5, 137568, Note_on_c, 7, 84, 89
5, 137604, Note_off_c, 7, 84, 64
5, 137616, Note_on_c, 7, 81, 89
5, 137652, Note_off_c, 7, 81, 64
5, 137664, Note_on_c, 7, 83, 89
5, 137700, Note_off_c, 7, 83, 64
5, 137712, Note_on_c, 7, 79, 89
5, 137748, Note_off_c, 7, 79, 64
5, 137760, Note_on_c, 7, 81, 89
5, 137796, Note_off_c, 7, 81, 64
5, 137808, Note_on_c, 7, 77, 89
5, 137844, Note_off_c, 7, 77, 64
5, 137856, Note_on_c, 7, 79, 89
5, 137892, Note_off_c, 7, 79, 64
5, 137904, Note_on_c, 7, 76, 89
5, 137940, Note_off_c, 7, 76, 64
5, 137952, Note_on_c, 7, 77, 89
5, 137988, Note_off_c, 7, 77, 64
5, 138000, Note_on_c, 7, 74, 89
5, 138036, Note_off_c, 7, 74, 64
5, 138048, Note_on_c, 7, 76, 89
5, 138084, Note_off_c, 7, 76, 64
5, 138096, Note_on_c, 7, 72, 89
5, 138132, Note_off_c, 7, 72, 64
5, 138144, Note_on_c, 7, 74, 89
5, 138180, Note_off_c, 7, 74, 64
5, 138192, Note_on_c, 7, 71, 89
5, 138228, Note_off_c, 7, 71, 64
5, 138432, Note_on_c, 7, 72, 89
5, 138468, Note_off_c, 7, 72, 64
5, 138480, Note_on_c, 7, 76, 89
5, 138516, Note_off_c, 7, 76, 64
5, 138528, Note_on_c, 7, 79, 89
5, 138564, Note_off_c, 7, 79, 64
5, 138576, Note_on_c, 7, 84, 89
5, 138612, Note_off_c, 7, 84, 64
5, 138624, Note_on_c, 7, 76, 89
5, 138660, Note_off_c, 7, 76, 64
5, 138672, Note_on_c, 7, 79, 89
5, 138708, Note_off_c, 7, 79, 64
5, 138720, Note_on_c, 7, 84, 89
5, 138756, Note_off_c, 7, 84, 64
5, 138768, Note_on_c, 7, 88, 89
5, 138804, Note_off_c, 7, 88, 64
5, 138816, Note_on_c, 7, 86, 89
5, 138852, Note_off_c, 7, 86, 64
5, 138864, Note_on_c, 7, 84, 89
5, 138900, Note_off_c, 7, 84, 64
5, 138912, Note_on_c, 7, 83, 89
5, 138948, Note_off_c, 7, 83, 64
5, 138960, Note_on_c, 7, 84, 89
5, 138996, Note_off_c, 7, 84, 64
5, 139008, Note_on_c, 7, 89, 89
5, 139044, Note_off_c, 7, 89, 64
5, 139056, Note_on_c, 7, 86, 89
5, 139092, Note_off_c, 7, 86, 64
5, 139104, Note_on_c, 7, 88, 89
5, 139140, Note_off_c, 7, 88, 64
5, 139152, Note_on_c, 7, 84, 89
5, 139188, Note_off_c, 7, 84, 64
5, 139200, Note_on_c, 7, 86, 89
5, 139236, Note_off_c, 7, 86, 64
5, 139248, Note_on_c, 7, 83, 89
5, 139284, Note_off_c, 7, 83, 64
5, 139296, Note_on_c, 7, 84, 89
5, 139332, Note_off_c, 7, 84, 64
5, 139344, Note_on_c, 7, 81, 89
5, 139380, Note_off_c, 7, 81, 64
5, 139392, Note_on_c, 7, 83, 89
5, 139428, Note_off_c, 7, 83, 64
5, 139440, Note_on_c, 7, 79, 89
5, 139476, Note_off_c, 7, 79, 64
5, 139488, Note_on_c, 7, 81, 89
5, 139524, Note_off_c, 7, 81, 64
5, 139536, Note_on_c, 7, 77, 89
5, 139572, Note_off_c, 7, 77, 64
5, 139584, Note_on_c, 7, 79, 89
5, 139620, Note_off_c, 7, 79, 64
5, 139632, Note_on_c, 7, 76, 89
5, 139668, Note_off_c, 7, 76, 64
5, 139680, Note_on_c, 7, 77, 89
5, 139716, Note_off_c, 7, 77, 64
5, 139728, Note_on_c, 7, 74, 89
5, 139764, Note_off_c, 7, 74, 64
5, 139776, Note_on_c, 7, 72, 89
5, 139812, Note_off_c, 7, 72, 64
5, 139824, Note_on_c, 7, 76, 89
5, 139860, Note_off_c, 7, 76, 64
5, 139872, Note_on_c, 7, 79, 89
5, 139908, Note_off_c, 7, 79, 64
5, 139920, Note_on_c, 7, 84, 89
5, 139956, Note_off_c, 7, 84, 64
5, 139968, Note_on_c, 7, 72, 89
5, 140004, Note_off_c, 7, 72, 64
5, 140016, Note_on_c, 7, 84, 89
5, 140052, Note_off_c, 7, 84, 64
5, 140064, Note_on_c, 7, 71, 89
5, 140100, Note_off_c, 7, 71, 64
5, 140112, Note_on_c, 7, 83, 89
5, 140148, Note_off_c, 7, 83, 64
5, 140160, Note_on_c, 7, 69, 89
5, 140196, Note_off_c, 7, 69, 64
5, 140208, Note_on_c, 7, 72, 89
5, 140244, Note_off_c, 7, 72, 64
5, 140256, Note_on_c, 7, 76, 89
5, 140292, Note_off_c, 7, 76, 64
5, 140304, Note_on_c, 7, 81, 89
5, 140340, Note_off_c, 7, 81, 64
5, 140352, Note_on_c, 7, 69, 89
5, 140388, Note_off_c, 7, 69, 64
5, 140400, Note_on_c, 7, 81, 89
5, 140436, Note_off_c, 7, 81, 64
5, 140448, Note_on_c, 7, 67, 89
5, 140484, Note_off_c, 7, 67, 64
5, 140496, Note_on_c, 7, 79, 89
5, 140532, Note_off_c, 7, 79, 64
5, 140544, Note_on_c, 7, 65, 89
5, 140580, Note_off_c, 7, 65, 64
5, 140592, Note_on_c, 7, 69, 89
5, 140628, Note_off_c, 7, 69, 64
5, 140640, Note_on_c, 7, 72, 89
5, 140676, Note_off_c, 7, 72, 64
5, 140688, Note_on_c, 7, 77, 89
5, 140724, Note_off_c, 7, 77, 64
5, 140736, Note_on_c, 7, 65, 89
5, 140772, Note_off_c, 7, 65, 64
5, 140784, Note_on_c, 7, 77, 89
5, 140820, Note_off_c, 7, 77, 64
5, 140832, Note_on_c, 7, 64, 89
5, 140868, Note_off_c, 7, 64, 64
5, 140880, Note_on_c, 7, 76, 89
5, 140916, Note_off_c, 7, 76, 64
5, 140928, Note_on_c, 7, 62, 89
5, 140964, Note_off_c, 7, 62, 64
5, 140976, Note_on_c, 7, 74, 89
5, 141012, Note_off_c, 7, 74, 64
5, 141024, Note_on_c, 7, 60, 89
5, 141060, Note_off_c, 7, 60, 64
5, 141072, Note_on_c, 7, 72, 89
5, 141108, Note_off_c, 7, 72, 64
5, 141120, Note_on_c, 7, 59, 89
5, 141156, Note_off_c, 7, 59, 64
5, 141168, Note_on_c, 7, 71, 89
5, 141204, Note_off_c, 7, 71, 64
5, 141216, Note_on_c, 7, 57, 89
5, 141252, Note_off_c, 7, 57, 64
5, 141264, Note_on_c, 7, 69, 89
5, 141300, Note_off_c, 7, 69, 64
5, 141312, Note_on_c, 7, 55, 89
5, 141348, Note_off_c, 7, 55, 64
5, 141408, Note_on_c, 7, 55, 89
5, 141444, Note_off_c, 7, 55, 64
5, 141456, Note_on_c, 7, 59, 89
5, 141492, Note_off_c, 7, 59, 64
5, 141504, Note_on_c, 7, 57, 89
5, 141540, Note_off_c, 7, 57, 64
5, 141552, Note_on_c, 7, 60, 89
5, 141588, Note_off_c, 7, 60, 64
5, 141600, Note_on_c, 7, 59, 89
5, 141636, Note_off_c, 7, 59, 64
5, 141648, Note_on_c, 7, 62, 89
5, 141684, Note_off_c, 7, 62, 64
5, 141696, Note_on_c, 7, 60, 89
5, 141732, Note_off_c, 7, 60, 64
5, 141744, Note_on_c, 7, 64, 89
5, 141780, Note_off_c, 7, 64, 64
5, 141792, Note_on_c, 7, 62, 89
5, 141828, Note_off_c, 7, 62, 64
5, 141840, Note_on_c, 7, 65, 89
5, 141876, Note_off_c, 7, 65, 64
5, 141888, Note_on_c, 7, 64, 89
5, 141924, Note_off_c, 7, 64, 64
5, 141936, Note_on_c, 7, 67, 89
5, 141972, Note_off_c, 7, 67, 64
5, 141984, Note_on_c, 7, 66, 89
5, 142020, Note_off_c, 7, 66, 64
5, 142032, Note_on_c, 7, 69, 89
5, 142068, Note_off_c, 7, 69, 64
5, 142080, Note_on_c, 7, 67, 89
5, 142116, Note_off_c, 7, 67, 64
5, 142176, Note_on_c, 7, 67, 89
5, 142212, Note_off_c, 7, 67, 64
5, 142224, Note_on_c, 7, 71, 89
5, 142260, Note_off_c, 7, 71, 64
5, 142272, Note_on_c, 7, 69, 89
5, 142308, Note_off_c, 7, 69, 64
5, 142320, Note_on_c, 7, 72, 89
5, 142356, Note_off_c, 7, 72, 64
5, 142368, Note_on_c, 7, 71, 89
5, 142404, Note_off_c, 7, 71, 64
5, 142416, Note_on_c, 7, 74, 89
5, 142452, Note_off_c, 7, 74, 64
5, 142464, Note_on_c, 7, 72, 89
5, 142500, Note_off_c, 7, 72, 64
5, 142512, Note_on_c, 7, 76, 89
5, 142548, Note_off_c, 7, 76, 64
5, 142560, Note_on_c, 7, 74, 89
5, 142596, Note_off_c, 7, 74, 64
5, 142608, Note_on_c, 7, 77, 89
5, 142644, Note_off_c, 7, 77, 64
5, 142656, Note_on_c, 7, 76, 89
5, 142692, Note_off_c, 7, 76, 64
5, 142704, Note_on_c, 7, 79, 89
5, 142740, Note_off_c, 7, 79, 64
5, 142752, Note_on_c, 7, 78, 89
5, 142788, Note_off_c, 7, 78, 64
5, 142800, Note_on_c, 7, 81, 89
5, 142836, Note_off_c, 7, 81, 64
5, 142848, Note_on_c, 7, 79, 89
5, 142884, Note_off_c, 7, 79, 64
5, 145344, Note_on_c, 7, 64, 67
5, 145380, Note_off_c, 7, 64, 64
5, 145392, Note_on_c, 7, 67, 67
5, 145428, Note_off_c, 7, 67, 64
5, 145440, Note_on_c, 7, 64, 67
5, 145476, Note_off_c, 7, 64, 64
5, 145488, Note_on_c, 7, 60, 67
5, 145524, Note_off_c, 7, 60, 64
5, 145728, Note_on_c, 7, 64, 67
5, 145764, Note_off_c, 7, 64, 64
5, 145776, Note_on_c, 7, 67, 67
5, 145812, Note_off_c, 7, 67, 64
5, 145824, Note_on_c, 7, 64, 67
5, 145860, Note_off_c, 7, 64, 64
5, 145872, Note_on_c, 7, 60, 67
5, 145908, Note_off_c, 7, 60, 64
5, 146112, Note_on_c, 7, 65, 67
5, 146148, Note_off_c, 7, 65, 64
5, 146160, Note_on_c, 7, 69, 67
5, 146196, Note_off_c, 7, 69, 64
5, 146208, Note_on_c, 7, 65, 67
5, 146244, Note_off_c, 7, 65, 64
5, 146256, Note_on_c, 7, 60, 67
5, 146292, Note_off_c, 7, 60, 64
5, 146496, Note_on_c, 7, 65, 67
5, 146532, Note_off_c, 7, 65, 64
5, 146544, Note_on_c, 7, 69, 67
5, 146580, Note_off_c, 7, 69, 64
5, 146592, Note_on_c, 7, 65, 67
5, 146628, Note_off_c, 7, 65, 64
5, 146640, Note_on_c, 7, 60, 67
5, 146676, Note_off_c, 7, 60, 64
5, 146736, Note_on_c, 7, 64, 67
5, 146772, Note_off_c, 7, 64, 64
5, 146784, Note_on_c, 7, 60, 67
5, 146820, Note_off_c, 7, 60, 64
5, 146832, Note_on_c, 7, 55, 67
5, 146868, Note_off_c, 7, 55, 64
5, 146928, Note_on_c, 7, 64, 67
5, 146964, Note_off_c, 7, 64, 64
5, 146976, Note_on_c, 7, 60, 67
5, 147012, Note_off_c, 7, 60, 64
5, 147024, Note_on_c, 7, 57, 67
5, 147060, Note_off_c, 7, 57, 64
5, 147120, Note_on_c, 7, 62, 67
5, 147156, Note_off_c, 7, 62, 64
5, 147168, Note_on_c, 7, 60, 67
5, 147204, Note_off_c, 7, 60, 64
5, 147216, Note_on_c, 7, 57, 67
5, 147252, Note_off_c, 7, 57, 64
5, 147312, Note_on_c, 7, 62, 67
5, 147348, Note_off_c, 7, 62, 64
5, 147360, Note_on_c, 7, 59, 67
5, 147396, Note_off_c, 7, 59, 64
5, 147408, Note_on_c, 7, 55, 67
5, 147444, Note_off_c, 7, 55, 64
5, 147504, Note_on_c, 7, 84, 67
5, 147540, Note_off_c, 7, 84, 64
5, 147552, Note_on_c, 7, 79, 67
5, 147588, Note_off_c, 7, 79, 64
5, 147600, Note_on_c, 7, 76, 67
5, 147636, Note_off_c, 7, 76, 64
5, 147648, Note_on_c, 7, 72, 67
5, 147684, Note_off_c, 7, 72, 64
5, 147696, Note_on_c, 7, 79, 67
5, 147732, Note_off_c, 7, 79, 64
5, 147744, Note_on_c, 7, 76, 67
5, 147780, Note_off_c, 7, 76, 64
5, 147792, Note_on_c, 7, 72, 67
5, 147828, Note_off_c, 7, 72, 64
5, 147840, Note_on_c, 7, 67, 67
5, 147876, Note_off_c, 7, 67, 64
5, 147888, Note_on_c, 7, 76, 67
5, 147924, Note_off_c, 7, 76, 64
5, 147936, Note_on_c, 7, 72, 67
5, 147972, Note_off_c, 7, 72, 64
5, 147984, Note_on_c, 7, 67, 67
5, 148020, Note_off_c, 7, 67, 64
5, 148032, Note_on_c, 7, 64, 67
5, 148068, Note_off_c, 7, 64, 64
5, 148080, Note_on_c, 7, 72, 67
5, 148116, Note_off_c, 7, 72, 64
5, 148128, Note_on_c, 7, 67, 67
5, 148164, Note_off_c, 7, 67, 64
5, 148176, Note_on_c, 7, 64, 67
5, 148212, Note_off_c, 7, 64, 64
5, 148416, Note_on_c, 7, 60, 67
5, 148452, Note_off_c, 7, 60, 64
5, 148464, Note_on_c, 7, 64, 67
5, 148500, Note_off_c, 7, 64, 64
5, 148512, Note_on_c, 7, 60, 67
5, 148548, Note_off_c, 7, 60, 64
5, 148560, Note_on_c, 7, 55, 67
5, 148596, Note_off_c, 7, 55, 64
5, 148800, Note_on_c, 7, 60, 67
5, 148836, Note_off_c, 7, 60, 64
5, 148848, Note_on_c, 7, 64, 67
5, 148884, Note_off_c, 7, 64, 64
5, 148896, Note_on_c, 7, 60, 67
5, 148932, Note_off_c, 7, 60, 64
5, 148944, Note_on_c, 7, 55, 67
5, 148980, Note_off_c, 7, 55, 64
5, 149184, Note_on_c, 7, 60, 67
5, 149220, Note_off_c, 7, 60, 64
5, 149232, Note_on_c, 7, 65, 67
5, 149268, Note_off_c, 7, 65, 64
5, 149280, Note_on_c, 7, 60, 67
5, 149316, Note_off_c, 7, 60, 64
5, 149328, Note_on_c, 7, 57, 67
5, 149364, Note_off_c, 7, 57, 64
5, 149568, Note_on_c, 7, 60, 67
5, 149604, Note_off_c, 7, 60, 64
5, 149616, Note_on_c, 7, 65, 67
5, 149652, Note_off_c, 7, 65, 64
5, 149664, Note_on_c, 7, 60, 67
5, 149700, Note_off_c, 7, 60, 64
5, 149712, Note_on_c, 7, 57, 67
5, 149748, Note_off_c, 7, 57, 64
5, 149808, Note_on_c, 7, 64, 67
5, 149844, Note_off_c, 7, 64, 64
5, 149856, Note_on_c, 7, 60, 67
5, 149892, Note_off_c, 7, 60, 64
5, 149904, Note_on_c, 7, 55, 67
5, 149940, Note_off_c, 7, 55, 64
5, 150000, Note_on_c, 7, 72, 67
5, 150036, Note_off_c, 7, 72, 64
5, 150048, Note_on_c, 7, 69, 67
5, 150084, Note_off_c, 7, 69, 64
5, 150096, Note_on_c, 7, 64, 67
5, 150132, Note_off_c, 7, 64, 64
5, 150192, Note_on_c, 7, 72, 67
5, 150228, Note_off_c, 7, 72, 64
5, 150240, Note_on_c, 7, 69, 67
5, 150276, Note_off_c, 7, 69, 64
5, 150288, Note_on_c, 7, 62, 67
5, 150324, Note_off_c, 7, 62, 64
5, 150384, Note_on_c, 7, 71, 67
5, 150420, Note_off_c, 7, 71, 64
5, 150432, Note_on_c, 7, 67, 67
5, 150468, Note_off_c, 7, 67, 64
5, 150480, Note_on_c, 7, 62, 67
5, 150516, Note_off_c, 7, 62, 64
5, 150528, Note_on_c, 7, 72, 67
5, 150528, Note_on_c, 7, 64, 67
5, 150528, Note_on_c, 7, 67, 67
5, 150564, Note_off_c, 7, 72, 64
5, 150564, Note_off_c, 7, 64, 64
5, 150564, Note_off_c, 7, 67, 64
5, 153648, Note_on_c, 7, 89, 87
5, 153684, Note_off_c, 7, 89, 64
5, 153696, Note_on_c, 7, 86, 87
5, 153732, Note_off_c, 7, 86, 64
5, 153744, Note_on_c, 7, 83, 87
5, 153780, Note_off_c, 7, 83, 64
5, 153792, Note_on_c, 7, 77, 87
5, 153828, Note_off_c, 7, 77, 64
5, 153840, Note_on_c, 7, 86, 87
5, 153876, Note_off_c, 7, 86, 64
5, 153888, Note_on_c, 7, 83, 87
5, 153924, Note_off_c, 7, 83, 64
5, 153936, Note_on_c, 7, 79, 87
5, 153972, Note_off_c, 7, 79, 64
5, 153984, Note_on_c, 7, 74, 87
5, 154020, Note_off_c, 7, 74, 64
5, 154032, Note_on_c, 7, 83, 87
5, 154068, Note_off_c, 7, 83, 64
5, 154080, Note_on_c, 7, 79, 87
5, 154116, Note_off_c, 7, 79, 64
5, 154128, Note_on_c, 7, 77, 87
5, 154164, Note_off_c, 7, 77, 64
5, 154176, Note_on_c, 7, 71, 87
5, 154212, Note_off_c, 7, 71, 64
5, 154224, Note_on_c, 7, 79, 87
5, 154260, Note_off_c, 7, 79, 64
5, 154272, Note_on_c, 7, 77, 87
5, 154308, Note_off_c, 7, 77, 64
5, 154320, Note_on_c, 7, 74, 87
5, 154356, Note_off_c, 7, 74, 64
5, 154368, Note_on_c, 7, 67, 87
5, 154404, Note_off_c, 7, 67, 64
5, 154416, Note_on_c, 7, 77, 87
5, 154452, Note_off_c, 7, 77, 64
5, 154464, Note_on_c, 7, 74, 87
5, 154500, Note_off_c, 7, 74, 64
5, 154512, Note_on_c, 7, 71, 87
5, 154548, Note_off_c, 7, 71, 64
5, 154560, Note_on_c, 7, 65, 87
5, 154596, Note_off_c, 7, 65, 64
5, 154608, Note_on_c, 7, 74, 87
5, 154644, Note_off_c, 7, 74, 64
5, 154656, Note_on_c, 7, 71, 87
5, 154692, Note_off_c, 7, 71, 64
5, 154704, Note_on_c, 7, 67, 87
5, 154740, Note_off_c, 7, 67, 64
5, 154752, Note_on_c, 7, 62, 87
5, 154788, Note_off_c, 7, 62, 64
5, 154800, Note_on_c, 7, 71, 87
5, 154836, Note_off_c, 7, 71, 64
5, 154848, Note_on_c, 7, 67, 87
5, 154884, Note_off_c, 7, 67, 64
5, 154896, Note_on_c, 7, 65, 87
5, 154932, Note_off_c, 7, 65, 64
5, 154944, Note_on_c, 7, 59, 87
5, 154980, Note_off_c, 7, 59, 64
5, 154992, Note_on_c, 7, 67, 87
5, 155028, Note_off_c, 7, 67, 64
5, 155040, Note_on_c, 7, 65, 87
5, 155076, Note_off_c, 7, 65, 64
5, 155088, Note_on_c, 7, 62, 87
5, 155124, Note_off_c, 7, 62, 64
5, 155184, Note_on_c, 7, 55, 87
5, 155220, Note_off_c, 7, 55, 64
5, 155232, Note_on_c, 7, 60, 87
5, 155268, Note_off_c, 7, 60, 64
5, 155280, Note_on_c, 7, 55, 87
5, 155316, Note_off_c, 7, 55, 64
5, 155328, Note_on_c, 7, 64, 87
5, 155364, Note_off_c, 7, 64, 64
5, 155376, Note_on_c, 7, 60, 87
5, 155412, Note_off_c, 7, 60, 64
5, 155424, Note_on_c, 7, 67, 87
5, 155460, Note_off_c, 7, 67, 64
5, 155472, Note_on_c, 7, 64, 87
5, 155508, Note_off_c, 7, 64, 64
5, 155520, Note_on_c, 7, 72, 87
5, 155556, Note_off_c, 7, 72, 64
5, 155904, Note_on_c, 7, 76, 87
5, 155940, Note_off_c, 7, 76, 64
5, 156288, Note_on_c, 7, 79, 87
5, 156324, Note_off_c, 7, 79, 64
5, 156720, Note_on_c, 7, 77, 87
5, 156756, Note_off_c, 7, 77, 64
5, 156768, Note_on_c, 7, 74, 87
5, 156804, Note_off_c, 7, 74, 64
5, 156816, Note_on_c, 7, 71, 87
5, 156852, Note_off_c, 7, 71, 64
5, 156864, Note_on_c, 7, 65, 87
5, 156900, Note_off_c, 7, 65, 64
5, 156912, Note_on_c, 7, 74, 87
5, 156948, Note_off_c, 7, 74, 64
5, 156960, Note_on_c, 7, 71, 87
5, 156996, Note_off_c, 7, 71, 64
5, 157008, Note_on_c, 7, 67, 87
5, 157044, Note_off_c, 7, 67, 64
5, 157056, Note_on_c, 7, 62, 87
5, 157092, Note_off_c, 7, 62, 64
5, 157104, Note_on_c, 7, 71, 87
5, 157140, Note_off_c, 7, 71, 64
5, 157152, Note_on_c, 7, 67, 87
5, 157188, Note_off_c, 7, 67, 64
5, 157200, Note_on_c, 7, 65, 87
5, 157236, Note_off_c, 7, 65, 64
5, 157248, Note_on_c, 7, 59, 87
5, 157284, Note_off_c, 7, 59, 64
5, 157296, Note_on_c, 7, 67, 87
5, 157332, Note_off_c, 7, 67, 64
5, 157344, Note_on_c, 7, 65, 87
5, 157380, Note_off_c, 7, 65, 64
5, 157392, Note_on_c, 7, 62, 87
5, 157428, Note_off_c, 7, 62, 64
5, 157440, Note_on_c, 7, 55, 87
5, 157476, Note_off_c, 7, 55, 64
5, 157488, Note_on_c, 7, 65, 87
5, 157524, Note_off_c, 7, 65, 64
5, 157536, Note_on_c, 7, 62, 87
5, 157572, Note_off_c, 7, 62, 64
5, 157584, Note_on_c, 7, 59, 87
5, 157620, Note_off_c, 7, 59, 64
5, 157632, Note_on_c, 7, 53, 87
5, 157668, Note_off_c, 7, 53, 64
5, 157680, Note_on_c, 7, 62, 87
5, 157716, Note_off_c, 7, 62, 64
5, 157728, Note_on_c, 7, 59, 87
5, 157764, Note_off_c, 7, 59, 64
5, 157776, Note_on_c, 7, 55, 87
5, 157812, Note_off_c, 7, 55, 64
5, 157824, Note_on_c, 7, 50, 87
5, 157860, Note_off_c, 7, 50, 64
5, 157872, Note_on_c, 7, 59, 87
5, 157908, Note_off_c, 7, 59, 64
5, 157920, Note_on_c, 7, 55, 87
5, 157956, Note_off_c, 7, 55, 64
5, 157968, Note_on_c, 7, 53, 87
5, 158004, Note_off_c, 7, 53, 64
5, 158016, Note_on_c, 7, 47, 87
5, 158052, Note_off_c, 7, 47, 64
5, 158064, Note_on_c, 7, 55, 87
5, 158100, Note_off_c, 7, 55, 64
5, 158112, Note_on_c, 7, 53, 87
5, 158148, Note_off_c, 7, 53, 64
5, 158160, Note_on_c, 7, 50, 87
5, 158196, Note_off_c, 7, 50, 64
5, 158208, Note_on_c, 7, 36, 87
5, 158208, Note_on_c, 7, 48, 87
5, 158244, Note_off_c, 7, 36, 64
5, 158244, Note_off_c, 7, 48, 64
5, 158256, Note_on_c, 7, 52, 87
5, 158292, Note_off_c, 7, 52, 64
5, 158304, Note_on_c, 7, 55, 87
5, 158340, Note_off_c, 7, 55, 64
5, 158352, Note_on_c, 7, 52, 87
5, 158388, Note_off_c, 7, 52, 64
5, 158400, Note_on_c, 7, 60, 87
5, 158436, Note_off_c, 7, 60, 64
5, 158448, Note_on_c, 7, 55, 87
5, 158484, Note_off_c, 7, 55, 64
5, 158496, Note_on_c, 7, 64, 87
5, 158532, Note_off_c, 7, 64, 64
5, 158544, Note_on_c, 7, 60, 87
5, 158580, Note_off_c, 7, 60, 64
5, 158592, Note_on_c, 7, 72, 87
5, 158628, Note_off_c, 7, 72, 64
5, 158640, Note_on_c, 7, 60, 87
5, 158676, Note_off_c, 7, 60, 64
5, 158688, Note_on_c, 7, 64, 87
5, 158724, Note_off_c, 7, 64, 64
5, 158736, Note_on_c, 7, 60, 87
5, 158772, Note_off_c, 7, 60, 64
5, 158784, Note_on_c, 7, 67, 87
5, 158820, Note_off_c, 7, 67, 64
5, 158832, Note_on_c, 7, 64, 87
5, 158868, Note_off_c, 7, 64, 64
5, 158880, Note_on_c, 7, 72, 87
5, 158916, Note_off_c, 7, 72, 64
5, 158928, Note_on_c, 7, 67, 87
5, 158964, Note_off_c, 7, 67, 64
5, 158976, Note_on_c, 7, 76, 87
5, 159012, Note_off_c, 7, 76, 64
5, 159024, Note_on_c, 7, 64, 87
5, 159060, Note_off_c, 7, 64, 64
5, 159072, Note_on_c, 7, 67, 87
5, 159108, Note_off_c, 7, 67, 64
5, 159120, Note_on_c, 7, 64, 87
5, 159156, Note_off_c, 7, 64, 64
5, 159168, Note_on_c, 7, 72, 87
5, 159204, Note_off_c, 7, 72, 64
5, 159216, Note_on_c, 7, 67, 87
5, 159252, Note_off_c, 7, 67, 64
5, 159264, Note_on_c, 7, 76, 87
5, 159300, Note_off_c, 7, 76, 64
5, 159312, Note_on_c, 7, 72, 87
5, 159348, Note_off_c, 7, 72, 64
5, 159360, Note_on_c, 7, 79, 87
5, 159396, Note_off_c, 7, 79, 64
5, 159408, Note_on_c, 7, 67, 87
5, 159444, Note_off_c, 7, 67, 64
5, 159456, Note_on_c, 7, 72, 87
5, 159492, Note_off_c, 7, 72, 64
5, 159504, Note_on_c, 7, 67, 87
5, 159540, Note_off_c, 7, 67, 64
5, 159552, Note_on_c, 7, 76, 87
5, 159588, Note_off_c, 7, 76, 64
5, 159600, Note_on_c, 7, 72, 87
5, 159636, Note_off_c, 7, 72, 64
5, 159648, Note_on_c, 7, 79, 87
5, 159684, Note_off_c, 7, 79, 64
5, 159696, Note_on_c, 7, 76, 87
5, 159732, Note_off_c, 7, 76, 64
5, 159744, Note_on_c, 7, 74, 87
5, 159744, Note_on_c, 7, 55, 87
5, 159744, Note_on_c, 7, 43, 87
5, 159744, Note_on_c, 7, 71, 87
5, 159780, Note_off_c, 7, 74, 64
5, 159780, Note_off_c, 7, 55, 64
5, 159780, Note_off_c, 7, 43, 64
5, 159780, Note_off_c, 7, 71, 64
5, 163584, Note_on_c, 7, 79, 87
5, 163620, Note_off_c, 7, 79, 64
5, 163632, Note_on_c, 7, 81, 87
5, 163668, Note_off_c, 7, 81, 64
5, 163680, Note_on_c, 7, 79, 87
5, 163716, Note_off_c, 7, 79, 64
5, 163728, Note_on_c, 7, 77, 87
5, 163764, Note_off_c, 7, 77, 64
5, 163776, Note_on_c, 7, 76, 87
5, 163812, Note_off_c, 7, 76, 64
5, 165120, Note_on_c, 7, 79, 87
5, 165156, Note_off_c, 7, 79, 64
5, 165168, Note_on_c, 7, 81, 87
5, 165204, Note_off_c, 7, 81, 64
5, 165216, Note_on_c, 7, 79, 87
5, 165252, Note_off_c, 7, 79, 64
5, 165264, Note_on_c, 7, 77, 87
5, 165300, Note_off_c, 7, 77, 64
5, 165312, Note_on_c, 7, 76, 87
5, 165348, Note_off_c, 7, 76, 64
5, 166656, Note_on_c, 7, 79, 87
5, 166692, Note_off_c, 7, 79, 64
5, 166704, Note_on_c, 7, 81, 87
5, 166740, Note_off_c, 7, 81, 64
5, 166752, Note_on_c, 7, 79, 87
5, 166788, Note_off_c, 7, 79, 64
5, 166800, Note_on_c, 7, 77, 87
5, 166836, Note_off_c, 7, 77, 64
5, 166848, Note_on_c, 7, 76, 87
5, 166884, Note_off_c, 7, 76, 64
5, 167424, Note_on_c, 7, 84, 87
5, 167460, Note_off_c, 7, 84, 64
5, 167472, Note_on_c, 7, 86, 87
5, 167508, Note_off_c, 7, 86, 64
5, 167520, Note_on_c, 7, 84, 87
5, 167556, Note_off_c, 7, 84, 64
5, 167568, Note_on_c, 7, 82, 87
5, 167604, Note_off_c, 7, 82, 64
5, 167616, Note_on_c, 7, 81, 87
5, 167652, Note_off_c, 7, 81, 64
5, 168192, Note_on_c, 7, 82, 87
5, 168228, Note_off_c, 7, 82, 64
5, 168240, Note_on_c, 7, 84, 87
5, 168276, Note_off_c, 7, 84, 64
5, 168288, Note_on_c, 7, 82, 87
5, 168324, Note_off_c, 7, 82, 64
5, 168336, Note_on_c, 7, 81, 87
5, 168372, Note_off_c, 7, 81, 64
5, 168384, Note_on_c, 7, 79, 87
5, 168420, Note_off_c, 7, 79, 64
5, 168960, Note_on_c, 7, 69, 87
5, 168996, Note_off_c, 7, 69, 64
5, 169008, Note_on_c, 7, 72, 87
5, 169044, Note_off_c, 7, 72, 64
5, 169056, Note_on_c, 7, 77, 87
5, 169092, Note_off_c, 7, 77, 64
5, 169104, Note_on_c, 7, 72, 87
5, 169140, Note_off_c, 7, 72, 64
5, 169152, Note_on_c, 7, 81, 87
5, 169188, Note_off_c, 7, 81, 64
5, 169200, Note_on_c, 7, 77, 87
5, 169236, Note_off_c, 7, 77, 64
5, 169248, Note_on_c, 7, 72, 87
5, 169284, Note_off_c, 7, 72, 64
5, 169296, Note_on_c, 7, 69, 87
5, 169332, Note_off_c, 7, 69, 64
5, 169344, Note_on_c, 7, 67, 87
5, 169380, Note_off_c, 7, 67, 64
5, 169392, Note_on_c, 7, 72, 87
5, 169428, Note_off_c, 7, 72, 64
5, 169440, Note_on_c, 7, 76, 87
5, 169476, Note_off_c, 7, 76, 64
5, 169488, Note_on_c, 7, 72, 87
5, 169524, Note_off_c, 7, 72, 64
5, 169536, Note_on_c, 7, 79, 87
5, 169572, Note_off_c, 7, 79, 64
5, 169584, Note_on_c, 7, 76, 87
5, 169620, Note_off_c, 7, 76, 64
5, 169632, Note_on_c, 7, 72, 87
5, 169668, Note_off_c, 7, 72, 64
5, 169680, Note_on_c, 7, 67, 87
5, 169716, Note_off_c, 7, 67, 64
5, 169728, Note_on_c, 7, 69, 87
5, 169764, Note_off_c, 7, 69, 64
5, 169776, Note_on_c, 7, 72, 87
5, 169812, Note_off_c, 7, 72, 64
5, 169824, Note_on_c, 7, 77, 87
5, 169860, Note_off_c, 7, 77, 64
5, 169872, Note_on_c, 7, 72, 87
5, 169908, Note_off_c, 7, 72, 64
5, 169920, Note_on_c, 7, 81, 87
5, 169956, Note_off_c, 7, 81, 64
5, 169968, Note_on_c, 7, 77, 87
5, 170004, Note_off_c, 7, 77, 64
5, 170016, Note_on_c, 7, 72, 87
5, 170052, Note_off_c, 7, 72, 64
5, 170064, Note_on_c, 7, 69, 87
5, 170100, Note_off_c, 7, 69, 64
5, 170112, Note_on_c, 7, 67, 87
5, 170148, Note_off_c, 7, 67, 64
5, 170160, Note_on_c, 7, 72, 87
5, 170196, Note_off_c, 7, 72, 64
5, 170208, Note_on_c, 7, 76, 87
5, 170244, Note_off_c, 7, 76, 64
5, 170256, Note_on_c, 7, 72, 87
5, 170292, Note_off_c, 7, 72, 64
5, 170304, Note_on_c, 7, 79, 87
5, 170340, Note_off_c, 7, 79, 64
5, 170352, Note_on_c, 7, 76, 87
5, 170388, Note_off_c, 7, 76, 64
5, 170400, Note_on_c, 7, 72, 87
5, 170436, Note_off_c, 7, 72, 64
5, 170448, Note_on_c, 7, 67, 87
5, 170484, Note_off_c, 7, 67, 64
5, 170496, Note_on_c, 7, 65, 87
5, 170532, Note_off_c, 7, 65, 64
5, 170592, Note_on_c, 7, 77, 87
5, 170628, Note_off_c, 7, 77, 64
5, 170640, Note_on_c, 7, 79, 87
5, 170676, Note_off_c, 7, 79, 64
5, 170688, Note_on_c, 7, 81, 87
5, 170724, Note_off_c, 7, 81, 64
5, 170736, Note_on_c, 7, 79, 87
5, 170772, Note_off_c, 7, 79, 64
5, 170784, Note_on_c, 7, 77, 87
5, 170820, Note_off_c, 7, 77, 64
5, 170832, Note_on_c, 7, 76, 87
5, 170868, Note_off_c, 7, 76, 64
5, 170880, Note_on_c, 7, 74, 87
5, 170916, Note_off_c, 7, 74, 64
5, 170928, Note_on_c, 7, 76, 87
5, 170964, Note_off_c, 7, 76, 64
5, 170976, Note_on_c, 7, 74, 87
5, 171012, Note_off_c, 7, 74, 64
5, 171024, Note_on_c, 7, 72, 87
5, 171060, Note_off_c, 7, 72, 64
5, 171072, Note_on_c, 7, 71, 87
5, 171108, Note_off_c, 7, 71, 64
5, 171120, Note_on_c, 7, 69, 87
5, 171156, Note_off_c, 7, 69, 64
5, 171168, Note_on_c, 7, 67, 87
5, 171204, Note_off_c, 7, 67, 64
5, 171216, Note_on_c, 7, 65, 87
5, 171252, Note_off_c, 7, 65, 64
5, 171264, Note_on_c, 7, 64, 87
5, 171300, Note_off_c, 7, 64, 64
5, 171360, Note_on_c, 7, 76, 87
5, 171396, Note_off_c, 7, 76, 64
5, 171408, Note_on_c, 7, 77, 87
5, 171444, Note_off_c, 7, 77, 64
5, 171456, Note_on_c, 7, 79, 87
5, 171492, Note_off_c, 7, 79, 64
5, 171504, Note_on_c, 7, 77, 87
5, 171540, Note_off_c, 7, 77, 64
5, 171552, Note_on_c, 7, 76, 87
5, 171588, Note_off_c, 7, 76, 64
5, 171600, Note_on_c, 7, 74, 87
5, 171636, Note_off_c, 7, 74, 64
5, 171648, Note_on_c, 7, 72, 87
5, 171684, Note_off_c, 7, 72, 64
5, 171696, Note_on_c, 7, 74, 87
5, 171732, Note_off_c, 7, 74, 64
5, 171744, Note_on_c, 7, 72, 87
5, 171780, Note_off_c, 7, 72, 64
5, 171792, Note_on_c, 7, 71, 87
5, 171828, Note_off_c, 7, 71, 64
5, 171840, Note_on_c, 7, 69, 87
5, 171876, Note_off_c, 7, 69, 64
5, 171888, Note_on_c, 7, 67, 87
5, 171924, Note_off_c, 7, 67, 64
5, 171936, Note_on_c, 7, 65, 87
5, 171972, Note_off_c, 7, 65, 64
5, 171984, Note_on_c, 7, 64, 87
5, 172020, Note_off_c, 7, 64, 64
5, 172032, Note_on_c, 7, 69, 87
5, 172068, Note_off_c, 7, 69, 64
5, 172080, Note_on_c, 7, 76, 87
5, 172116, Note_off_c, 7, 76, 64
5, 172128, Note_on_c, 7, 74, 87
5, 172164, Note_off_c, 7, 74, 64
5, 172176, Note_on_c, 7, 73, 87
5, 172212, Note_off_c, 7, 73, 64
5, 172224, Note_on_c, 7, 74, 87
5, 172260, Note_off_c, 7, 74, 64
5, 172320, Note_on_c, 7, 77, 87
5, 172356, Note_off_c, 7, 77, 64
5, 172416, Note_on_c, 7, 76, 87
5, 172452, Note_off_c, 7, 76, 64
5, 172512, Note_on_c, 7, 74, 87
5, 172548, Note_off_c, 7, 74, 64
5, 172608, Note_on_c, 7, 72, 87
5, 172644, Note_off_c, 7, 72, 64
5, 172704, Note_on_c, 7, 71, 87
5, 172740, Note_off_c, 7, 71, 64
5, 172800, Note_on_c, 7, 72, 87
5, 172836, Note_off_c, 7, 72, 64
5, 172848, Note_on_c, 7, 76, 87
5, 172884, Note_off_c, 7, 76, 64
5, 172896, Note_on_c, 7, 74, 87
5, 172932, Note_off_c, 7, 74, 64
5, 172944, Note_on_c, 7, 77, 87
5, 172980, Note_off_c, 7, 77, 64
5, 172992, Note_on_c, 7, 76, 87
5, 173028, Note_off_c, 7, 76, 64
5, 173040, Note_on_c, 7, 79, 87
5, 173076, Note_off_c, 7, 79, 64
5, 173088, Note_on_c, 7, 77, 87
5, 173124, Note_off_c, 7, 77, 64
5, 173136, Note_on_c, 7, 81, 87
5, 173172, Note_off_c, 7, 81, 64
5, 173184, Note_on_c, 7, 79, 87
5, 173220, Note_off_c, 7, 79, 64
5, 173280, Note_on_c, 7, 81, 87
5, 173316, Note_off_c, 7, 81, 64
5, 173376, Note_on_c, 7, 83, 87
5, 173412, Note_off_c, 7, 83, 64
5, 173472, Note_on_c, 7, 84, 87
5, 173508, Note_off_c, 7, 84, 64
5, 173568, Note_on_c, 7, 77, 67
5, 173604, Note_off_c, 7, 77, 64
5, 173616, Note_on_c, 7, 79, 67
5, 173652, Note_off_c, 7, 79, 64
5, 173664, Note_on_c, 7, 77, 67
5, 173700, Note_off_c, 7, 77, 64
5, 173712, Note_on_c, 7, 79, 67
5, 173748, Note_off_c, 7, 79, 64
5, 173760, Note_on_c, 7, 77, 67
5, 173796, Note_off_c, 7, 77, 64
5, 173952, Note_on_c, 7, 89, 67
5, 173988, Note_off_c, 7, 89, 64
5, 174000, Note_on_c, 7, 88, 67
5, 174036, Note_off_c, 7, 88, 64
5, 174048, Note_on_c, 7, 89, 67
5, 174084, Note_off_c, 7, 89, 64
5, 174096, Note_on_c, 7, 88, 67
5, 174132, Note_off_c, 7, 88, 64
5, 174144, Note_on_c, 7, 89, 67
5, 174180, Note_off_c, 7, 89, 64
5, 174336, Note_on_c, 7, 79, 67
5, 174372, Note_off_c, 7, 79, 64
5, 174384, Note_on_c, 7, 78, 67
5, 174420, Note_off_c, 7, 78, 64
5, 174432, Note_on_c, 7, 79, 67
5, 174468, Note_off_c, 7, 79, 64
5, 174480, Note_on_c, 7, 78, 67
5, 174516, Note_off_c, 7, 78, 64
5, 174528, Note_on_c, 7, 79, 67
5, 174564, Note_off_c, 7, 79, 64
5, 174720, Note_on_c, 7, 91, 67
5, 174756, Note_off_c, 7, 91, 64
5, 174768, Note_on_c, 7, 90, 67
5, 174804, Note_off_c, 7, 90, 64
5, 174816, Note_on_c, 7, 91, 67
5, 174852, Note_off_c, 7, 91, 64
5, 174864, Note_on_c, 7, 90, 67
5, 174900, Note_off_c, 7, 90, 64
5, 174912, Note_on_c, 7, 91, 67
5, 174948, Note_off_c, 7, 91, 64
5, 175296, Note_on_c, 7, 69, 67
5, 175332, Note_off_c, 7, 69, 64
5, 175344, Note_on_c, 7, 74, 67
5, 175380, Note_off_c, 7, 74, 64
5, 175392, Note_on_c, 7, 77, 67
5, 175428, Note_off_c, 7, 77, 64
5, 175440, Note_on_c, 7, 81, 67
5, 175476, Note_off_c, 7, 81, 64
5, 175488, Note_on_c, 7, 79, 67
5, 175524, Note_off_c, 7, 79, 64
5, 175536, Note_on_c, 7, 76, 67
5, 175572, Note_off_c, 7, 76, 64
5, 175584, Note_on_c, 7, 77, 67
5, 175620, Note_off_c, 7, 77, 64
5, 175632, Note_on_c, 7, 74, 67
5, 175668, Note_off_c, 7, 74, 64
5, 175680, Note_on_c, 7, 76, 67
5, 175716, Note_off_c, 7, 76, 64
5, 175728, Note_on_c, 7, 72, 67
5, 175764, Note_off_c, 7, 72, 64
5, 175776, Note_on_c, 7, 74, 67
5, 175812, Note_off_c, 7, 74, 64
5, 175824, Note_on_c, 7, 71, 67
5, 175860, Note_off_c, 7, 71, 64
5, 175872, Note_on_c, 7, 72, 67
5, 175908, Note_off_c, 7, 72, 64
5, 175920, Note_on_c, 7, 67, 67
5, 175956, Note_off_c, 7, 67, 64
5, 175968, Note_on_c, 7, 69, 67
5, 176004, Note_off_c, 7, 69, 64
5, 176016, Note_on_c, 7, 65, 67
5, 176052, Note_off_c, 7, 65, 64
5, 176064, Note_on_c, 7, 67, 67
5, 176100, Note_off_c, 7, 67, 64
5, 176112, Note_on_c, 7, 64, 67
5, 176148, Note_off_c, 7, 64, 64
5, 176160, Note_on_c, 7, 65, 67
5, 176196, Note_off_c, 7, 65, 64
5, 176208, Note_on_c, 7, 62, 67
5, 176244, Note_off_c, 7, 62, 64
5, 176256, Note_on_c, 7, 60, 67
5, 176328, Note_off_c, 7, 60, 64
5, 176352, Note_on_c, 7, 55, 67
5, 176424, Note_off_c, 7, 55, 64
5, 176448, Note_on_c, 7, 62, 67
5, 176520, Note_off_c, 7, 62, 64
5, 176544, Note_on_c, 7, 55, 67
5, 176616, Note_off_c, 7, 55, 64
5, 176640, Note_on_c, 7, 64, 67
5, 176712, Note_off_c, 7, 64, 64
5, 176736, Note_on_c, 7, 55, 67
5, 176808, Note_off_c, 7, 55, 64
5, 176832, Note_on_c, 7, 64, 67
5, 176904, Note_off_c, 7, 64, 64
5, 176928, Note_on_c, 7, 55, 67
5, 177000, Note_off_c, 7, 55, 64
5, 177024, Note_on_c, 7, 60, 67
5, 177096, Note_off_c, 7, 60, 64
5, 177120, Note_on_c, 7, 55, 67
5, 177192, Note_off_c, 7, 55, 64
5, 177216, Note_on_c, 7, 62, 67
5, 177288, Note_off_c, 7, 62, 64
5, 177312, Note_on_c, 7, 55, 67
5, 177384, Note_off_c, 7, 55, 64
5, 177408, Note_on_c, 7, 64, 67
5, 177480, Note_off_c, 7, 64, 64
5, 177504, Note_on_c, 7, 55, 67
5, 177576, Note_off_c, 7, 55, 64
5, 177600, Note_on_c, 7, 64, 67
5, 177672, Note_off_c, 7, 64, 64
5, 177696, Note_on_c, 7, 55, 67
5, 177768, Note_off_c, 7, 55, 64
5, 177792, Note_on_c, 7, 60, 67
5, 177864, Note_off_c, 7, 60, 64
5, 177888, Note_on_c, 7, 55, 67
5, 177960, Note_off_c, 7, 55, 64
5, 177984, Note_on_c, 7, 62, 67
5, 178056, Note_off_c, 7, 62, 64
5, 178080, Note_on_c, 7, 55, 67
5, 178152, Note_off_c, 7, 55, 64
5, 178176, Note_on_c, 7, 64, 67
5, 178248, Note_off_c, 7, 64, 64
5, 178272, Note_on_c, 7, 55, 67
5, 178344, Note_off_c, 7, 55, 64
5, 178368, Note_on_c, 7, 62, 67
5, 178440, Note_off_c, 7, 62, 64
5, 178464, Note_on_c, 7, 55, 67
5, 178536, Note_off_c, 7, 55, 64
5, 178560, Note_on_c, 7, 60, 67
5, 178632, Note_off_c, 7, 60, 64
5, 178656, Note_on_c, 7, 55, 67
5, 178728, Note_off_c, 7, 55, 64
5, 178752, Note_on_c, 7, 59, 67
5, 178824, Note_off_c, 7, 59, 64
5, 178848, Note_on_c, 7, 55, 67
5, 178920, Note_off_c, 7, 55, 64
5, 179328, Note_on_c, 7, 77, 67
5, 179364, Note_off_c, 7, 77, 64
5, 179376, Note_on_c, 7, 76, 67
5, 179412, Note_off_c, 7, 76, 64
5, 179424, Note_on_c, 7, 74, 67
5, 179460, Note_off_c, 7, 74, 64
5, 179472, Note_on_c, 7, 76, 67
5, 179508, Note_off_c, 7, 76, 64
5, 179520, Note_on_c, 7, 79, 67
5, 179556, Note_off_c, 7, 79, 64
5, 179568, Note_on_c, 7, 77, 67
5, 179604, Note_off_c, 7, 77, 64
5, 179616, Note_on_c, 7, 76, 67
5, 179652, Note_off_c, 7, 76, 64
5, 179664, Note_on_c, 7, 77, 67
5, 179700, Note_off_c, 7, 77, 64
5, 179712, Note_on_c, 7, 79, 67
5, 179748, Note_off_c, 7, 79, 64
5, 179808, Note_on_c, 7, 84, 67
5, 179844, Note_off_c, 7, 84, 64
5, 179904, Note_on_c, 7, 79, 67
5, 179940, Note_off_c, 7, 79, 64
5, 180000, Note_on_c, 7, 79, 67
5, 180036, Note_off_c, 7, 79, 64
5, 180096, Note_on_c, 7, 77, 67
5, 180132, Note_off_c, 7, 77, 64
5, 180144, Note_on_c, 7, 76, 67
5, 180180, Note_off_c, 7, 76, 64
5, 180192, Note_on_c, 7, 74, 67
5, 180228, Note_off_c, 7, 74, 64
5, 180240, Note_on_c, 7, 76, 67
5, 180276, Note_off_c, 7, 76, 64
5, 180288, Note_on_c, 7, 79, 67
5, 180324, Note_off_c, 7, 79, 64
5, 180336, Note_on_c, 7, 77, 67
5, 180372, Note_off_c, 7, 77, 64
5, 180384, Note_on_c, 7, 76, 67
5, 180420, Note_off_c, 7, 76, 64
5, 180432, Note_on_c, 7, 77, 67
5, 180468, Note_off_c, 7, 77, 64
5, 180480, Note_on_c, 7, 79, 67
5, 180516, Note_off_c, 7, 79, 64
5, 180528, Note_on_c, 7, 84, 67
5, 180564, Note_off_c, 7, 84, 64
5, 180576, Note_on_c, 7, 88, 67
5, 180612, Note_off_c, 7, 88, 64
5, 180624, Note_on_c, 7, 84, 67
5, 180660, Note_off_c, 7, 84, 64
5, 180672, Note_on_c, 7, 79, 67
5, 180708, Note_off_c, 7, 79, 64
5, 180768, Note_on_c, 7, 79, 67
5, 180804, Note_off_c, 7, 79, 64
5, 180864, Note_on_c, 7, 77, 67
5, 180900, Note_off_c, 7, 77, 64
5, 180912, Note_on_c, 7, 76, 67
5, 180948, Note_off_c, 7, 76, 64
5, 180960, Note_on_c, 7, 74, 67
5, 180996, Note_off_c, 7, 74, 64
5, 181008, Note_on_c, 7, 76, 67
5, 181044, Note_off_c, 7, 76, 64
5, 181056, Note_on_c, 7, 79, 67
5, 181092, Note_off_c, 7, 79, 64
5, 181104, Note_on_c, 7, 77, 67
5, 181140, Note_off_c, 7, 77, 64
5, 181152, Note_on_c, 7, 76, 67
5, 181188, Note_off_c, 7, 76, 64
5, 181200, Note_on_c, 7, 77, 67
5, 181236, Note_off_c, 7, 77, 64
5, 181248, Note_on_c, 7, 79, 67
5, 181284, Note_off_c, 7, 79, 64
5, 181296, Note_on_c, 7, 76, 67
5, 181332, Note_off_c, 7, 76, 64
5, 181344, Note_on_c, 7, 79, 67
5, 181380, Note_off_c, 7, 79, 64
5, 181392, Note_on_c, 7, 76, 67
5, 181428, Note_off_c, 7, 76, 64
5, 181440, Note_on_c, 7, 77, 67
5, 181476, Note_off_c, 7, 77, 64
5, 181488, Note_on_c, 7, 74, 67
5, 181524, Note_off_c, 7, 74, 64
5, 181536, Note_on_c, 7, 77, 67
5, 181572, Note_off_c, 7, 77, 64
5, 181584, Note_on_c, 7, 74, 67
5, 181620, Note_off_c, 7, 74, 64
5, 181632, Note_on_c, 7, 76, 67
5, 181668, Note_off_c, 7, 76, 64
5, 181680, Note_on_c, 7, 72, 67
5, 181716, Note_off_c, 7, 72, 64
5, 181728, Note_on_c, 7, 76, 67
5, 181764, Note_off_c, 7, 76, 64
5, 181776, Note_on_c, 7, 72, 67
5, 181812, Note_off_c, 7, 72, 64
5, 181824, Note_on_c, 7, 74, 67
5, 181860, Note_off_c, 7, 74, 64
5, 181872, Note_on_c, 7, 71, 67
5, 181908, Note_off_c, 7, 71, 64
5, 181920, Note_on_c, 7, 74, 67
5, 181956, Note_off_c, 7, 74, 64
5, 181968, Note_on_c, 7, 71, 67
5, 182004, Note_off_c, 7, 71, 64
5, 182016, Note_on_c, 7, 67, 67
5, 182052, Note_off_c, 7, 67, 64
5, 182064, Note_on_c, 7, 72, 67
5, 182100, Note_off_c, 7, 72, 64
5, 182112, Note_on_c, 7, 76, 67
5, 182148, Note_off_c, 7, 76, 64
5, 182160, Note_on_c, 7, 79, 67
5, 182196, Note_off_c, 7, 79, 64
5, 182208, Note_on_c, 7, 77, 67
5, 182244, Note_off_c, 7, 77, 64
5, 182256, Note_on_c, 7, 76, 67
5, 182292, Note_off_c, 7, 76, 64
5, 182304, Note_on_c, 7, 74, 67
5, 182340, Note_off_c, 7, 74, 64
5, 182352, Note_on_c, 7, 72, 67
5, 182388, Note_off_c, 7, 72, 64
5, 182400, Note_on_c, 7, 69, 67
5, 182436, Note_off_c, 7, 69, 64
5, 182448, Note_on_c, 7, 74, 67
5, 182484, Note_off_c, 7, 74, 64
5, 182496, Note_on_c, 7, 77, 67
5, 182532, Note_off_c, 7, 77, 64
5, 182544, Note_on_c, 7, 81, 67
5, 182580, Note_off_c, 7, 81, 64
5, 182592, Note_on_c, 7, 79, 67
5, 182628, Note_off_c, 7, 79, 64
5, 182640, Note_on_c, 7, 77, 67
5, 182676, Note_off_c, 7, 77, 64
5, 182688, Note_on_c, 7, 76, 67
5, 182724, Note_off_c, 7, 76, 64
5, 182736, Note_on_c, 7, 74, 67
5, 182772, Note_off_c, 7, 74, 64
5, 182832, Note_on_c, 7, 76, 67
5, 182868, Note_off_c, 7, 76, 64
5, 182880, Note_on_c, 7, 79, 67
5, 182916, Note_off_c, 7, 79, 64
5, 182928, Note_on_c, 7, 76, 67
5, 182964, Note_off_c, 7, 76, 64
5, 183024, Note_on_c, 7, 72, 67
5, 183060, Note_off_c, 7, 72, 64
5, 183072, Note_on_c, 7, 76, 67
5, 183108, Note_off_c, 7, 76, 64
5, 183120, Note_on_c, 7, 72, 67
5, 183156, Note_off_c, 7, 72, 64
5, 183216, Note_on_c, 7, 74, 67
5, 183252, Note_off_c, 7, 74, 64
5, 183264, Note_on_c, 7, 77, 67
5, 183300, Note_off_c, 7, 77, 64
5, 183312, Note_on_c, 7, 74, 67
5, 183348, Note_off_c, 7, 74, 64
5, 183408, Note_on_c, 7, 71, 67
5, 183444, Note_off_c, 7, 71, 64
5, 183456, Note_on_c, 7, 74, 67
5, 183492, Note_off_c, 7, 74, 64
5, 183504, Note_on_c, 7, 71, 67
5, 183540, Note_off_c, 7, 71, 64
5, 183552, Note_on_c, 7, 67, 88
5, 183576, Note_on_c, 7, 72, 82
5, 183600, Note_on_c, 7, 76, 76
5, 183624, Note_on_c, 7, 79, 100
5, 183629, Note_off_c, 7, 67, 36
5, 183641, Note_off_c, 7, 72, 69
5, 183654, Note_off_c, 7, 76, 54
5, 183785, Note_off_c, 7, 79, 54
5, 183936, Note_on_c, 7, 69, 82
5, 183960, Note_on_c, 7, 72, 82
5, 183984, Note_on_c, 7, 77, 88
5, 184008, Note_on_c, 7, 81, 94
5, 184017, Note_off_c, 7, 72, 68
5, 184037, Note_off_c, 7, 77, 76
5, 184070, Note_off_c, 7, 69, 80
5, 184157, Note_off_c, 7, 81, 85
5, 184512, Note_on_c, 7, 64, 90
5, 184548, Note_off_c, 7, 64, 64
5, 184560, Note_on_c, 7, 67, 90
5, 184596, Note_off_c, 7, 67, 64
5, 184608, Note_on_c, 7, 72, 90
5, 184644, Note_off_c, 7, 72, 64
5, 184656, Note_on_c, 7, 76, 90
5, 184692, Note_off_c, 7, 76, 64
5, 184800, Note_on_c, 7, 64, 90
5, 184836, Note_off_c, 7, 64, 64
5, 184848, Note_on_c, 7, 67, 90
5, 184884, Note_off_c, 7, 67, 64
5, 184896, Note_on_c, 7, 72, 90
5, 184932, Note_off_c, 7, 72, 64
5, 184944, Note_on_c, 7, 76, 90
5, 184980, Note_off_c, 7, 76, 64
5, 184992, Note_on_c, 7, 79, 90
5, 185028, Note_off_c, 7, 79, 64
5, 185040, Note_on_c, 7, 84, 90
5, 185076, Note_off_c, 7, 84, 64
5, 185088, Note_on_c, 7, 83, 90
5, 185124, Note_off_c, 7, 83, 64
5, 185136, Note_on_c, 7, 79, 90
5, 185172, Note_off_c, 7, 79, 64
5, 185184, Note_on_c, 7, 77, 90
5, 185220, Note_off_c, 7, 77, 64
5, 185232, Note_on_c, 7, 74, 90
5, 185268, Note_off_c, 7, 74, 64
5, 185280, Note_on_c, 7, 65, 90
5, 185316, Note_off_c, 7, 65, 64
5, 185328, Note_on_c, 7, 62, 90
5, 185364, Note_off_c, 7, 62, 64
5, 185472, Note_on_c, 7, 77, 90
5, 185508, Note_off_c, 7, 77, 64
5, 185520, Note_on_c, 7, 74, 90
5, 185556, Note_off_c, 7, 74, 64
5, 185568, Note_on_c, 7, 71, 90
5, 185604, Note_off_c, 7, 71, 64
5, 185616, Note_on_c, 7, 67, 90
5, 185652, Note_off_c, 7, 67, 64
5, 185856, Note_on_c, 7, 72, 90
5, 185856, Note_on_c, 7, 67, 90
5, 185856, Note_on_c, 7, 64, 90
5, 185892, Note_off_c, 7, 72, 64
5, 185892, Note_off_c, 7, 67, 64
5, 185892, Note_off_c, 7, 64, 64
5, 203520, Note_on_c, 7, 72, 40
5, 203520, Note_on_c, 7, 79, 40
5, 203520, Note_on_c, 7, 76, 40
5, 203556, Note_off_c, 7, 72, 64
5, 203556, Note_off_c, 7, 79, 64
5, 203556, Note_off_c, 7, 76, 64
5, 203568, Note_on_c, 7, 84, 40
5, 203604, Note_off_c, 7, 84, 64
5, 203616, Note_on_c, 7, 79, 40
5, 203616, Note_on_c, 7, 72, 40
5, 203616, Note_on_c, 7, 76, 40
5, 203652, Note_off_c, 7, 79, 64
5, 203652, Note_off_c, 7, 72, 64
5, 203652, Note_off_c, 7, 76, 64
5, 203664, Note_on_c, 7, 84, 40
5, 203700, Note_off_c, 7, 84, 64
5, 203712, Note_on_c, 7, 79, 40
5, 203712, Note_on_c, 7, 72, 40
5, 203712, Note_on_c, 7, 76, 40
5, 203748, Note_off_c, 7, 79, 64
5, 203748, Note_off_c, 7, 72, 64
5, 203748, Note_off_c, 7, 76, 64
5, 203760, Note_on_c, 7, 84, 40
5, 203796, Note_off_c, 7, 84, 64
5, 203808, Note_on_c, 7, 79, 40
5, 203808, Note_on_c, 7, 72, 40
5, 203808, Note_on_c, 7, 76, 40
5, 203844, Note_off_c, 7, 79, 64
5, 203844, Note_off_c, 7, 72, 64
5, 203844, Note_off_c, 7, 76, 64
5, 203856, Note_on_c, 7, 84, 40
5, 203892, Note_off_c, 7, 84, 64
5, 203904, Note_on_c, 7, 79, 40
5, 203904, Note_on_c, 7, 76, 40
5, 203904, Note_on_c, 7, 72, 40
5, 203940, Note_off_c, 7, 79, 64
5, 203940, Note_off_c, 7, 76, 64
5, 203940, Note_off_c, 7, 72, 64
5, 203952, Note_on_c, 7, 84, 40
5, 203988, Note_off_c, 7, 84, 64
5, 204000, Note_on_c, 7, 79, 40
5, 204000, Note_on_c, 7, 76, 40
5, 204000, Note_on_c, 7, 72, 40
5, 204036, Note_off_c, 7, 79, 64
5, 204036, Note_off_c, 7, 76, 64
5, 204036, Note_off_c, 7, 72, 64
5, 204048, Note_on_c, 7, 84, 40
5, 204084, Note_off_c, 7, 84, 64
5, 204096, Note_on_c, 7, 79, 40
5, 204096, Note_on_c, 7, 72, 40
5, 204096, Note_on_c, 7, 76, 40
5, 204132, Note_off_c, 7, 79, 64
5, 204132, Note_off_c, 7, 72, 64
5, 204132, Note_off_c, 7, 76, 64
5, 204144, Note_on_c, 7, 84, 40
5, 204180, Note_off_c, 7, 84, 64
5, 204192, Note_on_c, 7, 79, 40
5, 204192, Note_on_c, 7, 72, 40
5, 204192, Note_on_c, 7, 76, 40
5, 204228, Note_off_c, 7, 79, 64
5, 204228, Note_off_c, 7, 72, 64
5, 204228, Note_off_c, 7, 76, 64
5, 204240, Note_on_c, 7, 84, 40
5, 204276, Note_off_c, 7, 84, 64
5, 204288, Note_on_c, 7, 72, 40
5, 204288, Note_on_c, 7, 79, 40
5, 204288, Note_on_c, 7, 76, 40
5, 204324, Note_off_c, 7, 72, 64
5, 204324, Note_off_c, 7, 79, 64
5, 204324, Note_off_c, 7, 76, 64
5, 204336, Note_on_c, 7, 84, 40
5, 204372, Note_off_c, 7, 84, 64
5, 204384, Note_on_c, 7, 79, 40
5, 204384, Note_on_c, 7, 72, 40
5, 204384, Note_on_c, 7, 76, 40
5, 204420, Note_off_c, 7, 79, 64
5, 204420, Note_off_c, 7, 72, 64
5, 204420, Note_off_c, 7, 76, 64
5, 204432, Note_on_c, 7, 84, 40
5, 204468, Note_off_c, 7, 84, 64
5, 204480, Note_on_c, 7, 79, 40
5, 204480, Note_on_c, 7, 76, 40
5, 204480, Note_on_c, 7, 72, 40
5, 204516, Note_off_c, 7, 79, 64
5, 204516, Note_off_c, 7, 76, 64
5, 204516, Note_off_c, 7, 72, 64
5, 204528, Note_on_c, 7, 84, 40
5, 204564, Note_off_c, 7, 84, 64
5, 204576, Note_on_c, 7, 72, 40
5, 204576, Note_on_c, 7, 79, 40
5, 204576, Note_on_c, 7, 76, 40
5, 204612, Note_off_c, 7, 72, 64
5, 204612, Note_off_c, 7, 79, 64
5, 204612, Note_off_c, 7, 76, 64
5, 204624, Note_on_c, 7, 84, 40
5, 204660, Note_off_c, 7, 84, 64
5, 204672, Note_on_c, 7, 76, 40
5, 204672, Note_on_c, 7, 79, 40
5, 204672, Note_on_c, 7, 72, 40
5, 204708, Note_off_c, 7, 76, 64
5, 204708, Note_off_c, 7, 79, 64
5, 204708, Note_off_c, 7, 72, 64
5, 204720, Note_on_c, 7, 84, 40
5, 204756, Note_off_c, 7, 84, 64
5, 204768, Note_on_c, 7, 72, 40
5, 204768, Note_on_c, 7, 76, 40
5, 204768, Note_on_c, 7, 79, 40
5, 204804, Note_off_c, 7, 72, 64
5, 204804, Note_off_c, 7, 76, 64
5, 204804, Note_off_c, 7, 79, 64
5, 204816, Note_on_c, 7, 84, 40
5, 204852, Note_off_c, 7, 84, 64
5, 204864, Note_on_c, 7, 76, 40
5, 204864, Note_on_c, 7, 79, 40
5, 204864, Note_on_c, 7, 72, 40
5, 204900, Note_off_c, 7, 76, 64
5, 204900, Note_off_c, 7, 79, 64
5, 204900, Note_off_c, 7, 72, 64
5, 204912, Note_on_c, 7, 84, 40
5, 204948, Note_off_c, 7, 84, 64
5, 204960, Note_on_c, 7, 79, 40
5, 204960, Note_on_c, 7, 76, 40
5, 204960, Note_on_c, 7, 72, 40
5, 204996, Note_off_c, 7, 79, 64
5, 204996, Note_off_c, 7, 76, 64
5, 204996, Note_off_c, 7, 72, 64
5, 205008, Note_on_c, 7, 84, 40
5, 205044, Note_off_c, 7, 84, 64
5, 205056, Note_on_c, 7, 79, 40
5, 205056, Note_on_c, 7, 72, 40
5, 205056, Note_on_c, 7, 76, 40
5, 205200, Note_off_c, 7, 79, 64
5, 205200, Note_off_c, 7, 72, 64
5, 205200, Note_off_c, 7, 76, 64
5, 205248, Note_on_c, 7, 76, 40
5, 205248, Note_on_c, 7, 79, 40
5, 205248, Note_on_c, 7, 72, 40
5, 205248, Note_on_c, 7, 84, 40
5, 205392, Note_off_c, 7, 76, 64
5, 205392, Note_off_c, 7, 79, 64
5, 205392, Note_off_c, 7, 72, 64
5, 205392, Note_off_c, 7, 84, 64
5, 205440, Note_on_c, 7, 79, 40
5, 205440, Note_on_c, 7, 76, 40
5, 205440, Note_on_c, 7, 84, 40
5, 205440, Note_on_c, 7, 72, 40
5, 205584, Note_off_c, 7, 79, 64
5, 205584, Note_off_c, 7, 76, 64
5, 205584, Note_off_c, 7, 84, 64
5, 205584, Note_off_c, 7, 72, 64
5, 205632, Note_on_c, 7, 79, 40
5, 205632, Note_on_c, 7, 76, 40
5, 205632, Note_on_c, 7, 72, 40
5, 205632, Note_on_c, 7, 84, 40
5, 205776, Note_off_c, 7, 79, 64
5, 205776, Note_off_c, 7, 76, 64
5, 205776, Note_off_c, 7, 72, 64
5, 205776, Note_off_c, 7, 84, 64
5, 205824, Note_on_c, 7, 79, 40
5, 205824, Note_on_c, 7, 76, 40
5, 205824, Note_on_c, 7, 72, 40
5, 205824, Note_on_c, 7, 84, 40
5, 205968, Note_off_c, 7, 79, 64
5, 205968, Note_off_c, 7, 76, 64
5, 205968, Note_off_c, 7, 72, 64
5, 205968, Note_off_c, 7, 84, 64
5, 205968, End_track
6, 0, Start_track
6, 0, MIDI_port, 0
6, 0, Title_t, "Harp-bass           "
6, 0, Program_c, 7, 46
6, 0, Control_c, 7, 10, 64
6, 0, Note_on_c, 7, 48, 1
6, 0, Program_c, 7, 46
6, 240, Note_off_c, 7, 48, 14
6, 288, Note_on_c, 7, 43, 1
6, 336, Note_off_c, 7, 43, 64
6, 384, Note_on_c, 7, 40, 1
6, 432, Note_off_c, 7, 40, 62
6, 480, Note_on_c, 7, 36, 1
6, 528, Note_off_c, 7, 36, 49
6, 576, Note_on_c, 7, 40, 1
6, 624, Note_off_c, 7, 40, 25
6, 672, Note_on_c, 7, 43, 1
6, 720, Note_off_c, 7, 43, 55
6, 768, Note_on_c, 7, 48, 1
6, 984, Note_off_c, 7, 48, 24
6, 1056, Note_on_c, 7, 43, 1
6, 1104, Note_off_c, 7, 43, 56
6, 1152, Note_on_c, 7, 40, 1
6, 1200, Note_off_c, 7, 40, 48
6, 1248, Note_on_c, 7, 36, 1
6, 1296, Note_off_c, 7, 36, 33
6, 1344, Note_on_c, 7, 40, 1
6, 1416, Note_off_c, 7, 40, 51
6, 1440, Note_on_c, 7, 43, 1
6, 1488, Note_off_c, 7, 43, 46
6, 1536, Note_on_c, 7, 36, 1
6, 1632, Note_off_c, 7, 36, 44
6, 33024, Note_on_c, 7, 60, 1
6, 33264, Note_off_c, 7, 60, 14
6, 33312, Note_on_c, 7, 55, 1
6, 33360, Note_off_c, 7, 55, 64
6, 33408, Note_on_c, 7, 52, 1
6, 33456, Note_off_c, 7, 52, 62
6, 33504, Note_on_c, 7, 48, 1
6, 33552, Note_off_c, 7, 48, 49
6, 33600, Note_on_c, 7, 52, 1
6, 33648, Note_off_c, 7, 52, 25
6, 33696, Note_on_c, 7, 55, 1
6, 33744, Note_off_c, 7, 55, 55
6, 33792, Note_on_c, 7, 60, 1
6, 34008, Note_off_c, 7, 60, 24
6, 34080, Note_on_c, 7, 55, 1
6, 34128, Note_off_c, 7, 55, 56
6, 34176, Note_on_c, 7, 52, 1
6, 34224, Note_off_c, 7, 52, 48
6, 34272, Note_on_c, 7, 48, 1
6, 34320, Note_off_c, 7, 48, 33
6, 34368, Note_on_c, 7, 52, 1
6, 34440, Note_off_c, 7, 52, 51
6, 34464, Note_on_c, 7, 55, 1
6, 34512, Note_off_c, 7, 55, 46
6, 34590, Note_on_c, 7, 60, 85
6, 34658, Note_off_c, 7, 60, 61
6, 34752, Note_on_c, 7, 48, 73
6, 34944, Note_off_c, 7, 48, 60
6, 34944, Note_on_c, 7, 47, 73
6, 35136, Note_off_c, 7, 47, 59
6, 35136, Note_on_c, 7, 48, 83
6, 35328, Note_off_c, 7, 48, 23
6, 35328, Note_on_c, 7, 38, 101
6, 35328, Note_on_c, 7, 50, 1
6, 35520, Note_off_c, 7, 38, 65
6, 35520, Note_off_c, 7, 50, 75
6, 35520, Note_on_c, 7, 50, 89
6, 35712, Note_on_c, 7, 49, 71
6, 35722, Note_off_c, 7, 50, 72
6, 35904, Note_off_c, 7, 49, 81
6, 35904, Note_on_c, 7, 50, 95
6, 36096, Note_off_c, 7, 50, 44
6, 36096, Note_on_c, 7, 52, 107
6, 36096, Note_on_c, 7, 40, 107
6, 36288, Note_off_c, 7, 52, 40
6, 36288, Note_off_c, 7, 40, 68
6, 36288, Note_on_c, 7, 52, 83
6, 36480, Note_off_c, 7, 52, 57
6, 36480, Note_on_c, 7, 51, 65
6, 36672, Note_off_c, 7, 51, 47
6, 36672, Note_on_c, 7, 52, 85
6, 36864, Note_off_c, 7, 52, 1
6, 36864, Note_on_c, 7, 53, 89
6, 37056, Note_off_c, 7, 53, 78
6, 37056, Note_on_c, 7, 55, 1
6, 37056, Note_on_c, 7, 43, 1
6, 37248, Note_off_c, 7, 43, 61
6, 37248, Note_on_c, 7, 45, 89
6, 37248, Note_on_c, 7, 57, 95
6, 37254, Note_off_c, 7, 55, 78
6, 37440, Note_off_c, 7, 45, 43
6, 37440, Note_off_c, 7, 57, 67
6, 37440, Note_on_c, 7, 47, 95
6, 37440, Note_on_c, 7, 59, 87
6, 37632, Note_off_c, 7, 47, 48
6, 37632, Note_off_c, 7, 59, 55
6, 37632, Note_on_c, 7, 48, 89
6, 37680, Note_on_c, 7, 52, 95
6, 37690, Note_off_c, 7, 48, 62
6, 37728, Note_off_c, 7, 52, 95
6, 37728, Note_on_c, 7, 55, 107
6, 37776, Note_off_c, 7, 55, 66
6, 37776, Note_on_c, 7, 60, 87
6, 37824, Note_off_c, 7, 60, 43
6, 38400, Note_on_c, 7, 71, 85
6, 38496, Note_off_c, 7, 71, 75
6, 38496, Note_on_c, 7, 69, 75
6, 38592, Note_off_c, 7, 69, 67
6, 38592, Note_on_c, 7, 67, 107
6, 38688, Note_off_c, 7, 67, 81
6, 38688, Note_on_c, 7, 65, 89
6, 38784, Note_off_c, 7, 65, 60
6, 38784, Note_on_c, 7, 64, 81
6, 38880, Note_off_c, 7, 64, 64
6, 38880, Note_on_c, 7, 62, 87
6, 38976, Note_off_c, 7, 62, 74
6, 38976, Note_on_c, 7, 60, 69
6, 39072, Note_off_c, 7, 60, 54
6, 39072, Note_on_c, 7, 59, 81
6, 39168, Note_off_c, 7, 59, 70
6, 39168, Note_on_c, 7, 48, 89
6, 39216, Note_on_c, 7, 52, 95
6, 39226, Note_off_c, 7, 48, 62
6, 39264, Note_off_c, 7, 52, 95
6, 39264, Note_on_c, 7, 55, 107
6, 39312, Note_off_c, 7, 55, 66
6, 39312, Note_on_c, 7, 60, 87
6, 39360, Note_off_c, 7, 60, 43
6, 39936, Note_on_c, 7, 71, 85
6, 40032, Note_off_c, 7, 71, 72
6, 40032, Note_on_c, 7, 69, 107
6, 40128, Note_off_c, 7, 69, 76
6, 40128, Note_on_c, 7, 67, 87
6, 40224, Note_off_c, 7, 67, 60
6, 40224, Note_on_c, 7, 65, 101
6, 40320, Note_off_c, 7, 65, 84
6, 40320, Note_on_c, 7, 64, 89
6, 40416, Note_off_c, 7, 64, 42
6, 40416, Note_on_c, 7, 62, 89
6, 40512, Note_off_c, 7, 62, 67
6, 40512, Note_on_c, 7, 60, 63
6, 40608, Note_off_c, 7, 60, 42
6, 40608, Note_on_c, 7, 59, 95
6, 40704, Note_off_c, 7, 59, 48
6, 40704, Note_on_c, 7, 60, 83
6, 40800, Note_off_c, 7, 60, 51
6, 43776, Note_on_c, 7, 60, 79
6, 43848, Note_off_c, 7, 60, 64
6, 43872, Note_on_c, 7, 67, 79
6, 43944, Note_off_c, 7, 67, 64
6, 43968, Note_on_c, 7, 64, 79
6, 44040, Note_off_c, 7, 64, 64
6, 44064, Note_on_c, 7, 67, 79
6, 44136, Note_off_c, 7, 67, 64
6, 44160, Note_on_c, 7, 60, 79
6, 44232, Note_off_c, 7, 60, 64
6, 44256, Note_on_c, 7, 67, 79
6, 44328, Note_off_c, 7, 67, 64
6, 44352, Note_on_c, 7, 64, 79
6, 44424, Note_off_c, 7, 64, 64
6, 44448, Note_on_c, 7, 67, 79
6, 44520, Note_off_c, 7, 67, 64
6, 44544, Note_on_c, 7, 60, 79
6, 44616, Note_off_c, 7, 60, 64
6, 44640, Note_on_c, 7, 69, 79
6, 44712, Note_off_c, 7, 69, 64
6, 44736, Note_on_c, 7, 65, 79
6, 44808, Note_off_c, 7, 65, 64
6, 44832, Note_on_c, 7, 69, 79
6, 44904, Note_off_c, 7, 69, 64
6, 44928, Note_on_c, 7, 60, 79
6, 45000, Note_off_c, 7, 60, 64
6, 45024, Note_on_c, 7, 69, 79
6, 45096, Note_off_c, 7, 69, 64
6, 45120, Note_on_c, 7, 65, 79
6, 45192, Note_off_c, 7, 65, 64
6, 45216, Note_on_c, 7, 69, 79
6, 45288, Note_off_c, 7, 69, 64
6, 45312, Note_on_c, 7, 60, 79
6, 45384, Note_off_c, 7, 60, 64
6, 45408, Note_on_c, 7, 67, 79
6, 45480, Note_off_c, 7, 67, 64
6, 45504, Note_on_c, 7, 64, 79
6, 45576, Note_off_c, 7, 64, 64
6, 45600, Note_on_c, 7, 67, 79
6, 45672, Note_off_c, 7, 67, 64
6, 45696, Note_on_c, 7, 60, 79
6, 45768, Note_off_c, 7, 60, 64
6, 45792, Note_on_c, 7, 67, 79
6, 45864, Note_off_c, 7, 67, 64
6, 45888, Note_on_c, 7, 64, 79
6, 45960, Note_off_c, 7, 64, 64
6, 45984, Note_on_c, 7, 67, 79
6, 46056, Note_off_c, 7, 67, 64
6, 46080, Note_on_c, 7, 55, 79
6, 46152, Note_off_c, 7, 55, 64
6, 46176, Note_on_c, 7, 64, 79
6, 46248, Note_off_c, 7, 64, 64
6, 46272, Note_on_c, 7, 60, 79
6, 46344, Note_off_c, 7, 60, 64
6, 46368, Note_on_c, 7, 64, 79
6, 46440, Note_off_c, 7, 64, 64
6, 46464, Note_on_c, 7, 55, 79
6, 46536, Note_off_c, 7, 55, 64
6, 46560, Note_on_c, 7, 60, 79
6, 46632, Note_off_c, 7, 60, 64
6, 46656, Note_on_c, 7, 55, 79
6, 46728, Note_off_c, 7, 55, 64
6, 46752, Note_on_c, 7, 59, 79
6, 46824, Note_off_c, 7, 59, 64
6, 46848, Note_on_c, 7, 60, 79
6, 46920, Note_off_c, 7, 60, 64
6, 47040, Note_on_c, 7, 60, 79
6, 47040, Note_on_c, 7, 48, 79
6, 47112, Note_off_c, 7, 60, 64
6, 47112, Note_off_c, 7, 48, 64
6, 47136, Note_on_c, 7, 59, 79
6, 47136, Note_on_c, 7, 47, 79
6, 47208, Note_off_c, 7, 59, 64
6, 47208, Note_off_c, 7, 47, 64
6, 47232, Note_on_c, 7, 45, 79
6, 47232, Note_on_c, 7, 57, 79
6, 47304, Note_off_c, 7, 45, 64
6, 47304, Note_off_c, 7, 57, 64
6, 47424, Note_on_c, 7, 57, 79
6, 47424, Note_on_c, 7, 45, 79
6, 47496, Note_off_c, 7, 57, 64
6, 47496, Note_off_c, 7, 45, 64
6, 47520, Note_on_c, 7, 43, 79
6, 47520, Note_on_c, 7, 55, 79
6, 47592, Note_off_c, 7, 43, 64
6, 47592, Note_off_c, 7, 55, 64
6, 47616, Note_on_c, 7, 53, 79
6, 47616, Note_on_c, 7, 41, 79
6, 47688, Note_off_c, 7, 53, 64
6, 47688, Note_off_c, 7, 41, 64
6, 47808, Note_on_c, 7, 53, 79
6, 47808, Note_on_c, 7, 41, 79
6, 47880, Note_off_c, 7, 53, 64
6, 47880, Note_off_c, 7, 41, 64
6, 47904, Note_on_c, 7, 52, 79
6, 47904, Note_on_c, 7, 40, 79
6, 47976, Note_off_c, 7, 52, 64
6, 47976, Note_off_c, 7, 40, 64
6, 48000, Note_on_c, 7, 38, 79
6, 48000, Note_on_c, 7, 50, 79
6, 48072, Note_off_c, 7, 38, 64
6, 48072, Note_off_c, 7, 50, 64
6, 48096, Note_on_c, 7, 48, 79
6, 48168, Note_off_c, 7, 48, 64
6, 48192, Note_on_c, 7, 47, 79
6, 48264, Note_off_c, 7, 47, 64
6, 48288, Note_on_c, 7, 45, 79
6, 48360, Note_off_c, 7, 45, 64
6, 48384, Note_on_c, 7, 43, 79
6, 48456, Note_off_c, 7, 43, 64
6, 48480, Note_on_c, 7, 43, 79
6, 48552, Note_off_c, 7, 43, 64
6, 48576, Note_on_c, 7, 45, 79
6, 48648, Note_off_c, 7, 45, 64
6, 48672, Note_on_c, 7, 47, 79
6, 48744, Note_off_c, 7, 47, 64
6, 48768, Note_on_c, 7, 48, 79
6, 48840, Note_off_c, 7, 48, 64
6, 48864, Note_on_c, 7, 50, 79
6, 48936, Note_off_c, 7, 50, 64
6, 48960, Note_on_c, 7, 52, 79
6, 49032, Note_off_c, 7, 52, 64
6, 49056, Note_on_c, 7, 54, 79
6, 49128, Note_off_c, 7, 54, 64
6, 49152, Note_on_c, 7, 55, 79
6, 49224, Note_off_c, 7, 55, 64
6, 49248, Note_on_c, 7, 43, 79
6, 49284, Note_off_c, 7, 43, 64
6, 49296, Note_on_c, 7, 55, 79
6, 49332, Note_off_c, 7, 55, 64
6, 49344, Note_on_c, 7, 45, 79
6, 49380, Note_off_c, 7, 45, 64
6, 49392, Note_on_c, 7, 57, 79
6, 49428, Note_off_c, 7, 57, 64
6, 49440, Note_on_c, 7, 47, 79
6, 49476, Note_off_c, 7, 47, 64
6, 49488, Note_on_c, 7, 59, 79
6, 49524, Note_off_c, 7, 59, 64
6, 49536, Note_on_c, 7, 48, 79
6, 49572, Note_off_c, 7, 48, 64
6, 49584, Note_on_c, 7, 60, 79
6, 49620, Note_off_c, 7, 60, 64
6, 49632, Note_on_c, 7, 50, 79
6, 49668, Note_off_c, 7, 50, 64
6, 49680, Note_on_c, 7, 62, 79
6, 49716, Note_off_c, 7, 62, 64
6, 49728, Note_on_c, 7, 52, 79
6, 49764, Note_off_c, 7, 52, 64
6, 49776, Note_on_c, 7, 64, 79
6, 49812, Note_off_c, 7, 64, 64
6, 49824, Note_on_c, 7, 54, 79
6, 49860, Note_off_c, 7, 54, 64
6, 49872, Note_on_c, 7, 66, 79
6, 49908, Note_off_c, 7, 66, 64
6, 49920, Note_on_c, 7, 67, 79
6, 49920, Note_on_c, 7, 55, 79
6, 49956, Note_off_c, 7, 67, 64
6, 49956, Note_off_c, 7, 55, 64
6, 52224, Note_on_c, 7, 43, 89
6, 52260, Note_off_c, 7, 43, 64
6, 52272, Note_on_c, 7, 47, 89
6, 52308, Note_off_c, 7, 47, 64
6, 52320, Note_on_c, 7, 50, 89
6, 52356, Note_off_c, 7, 50, 64
6, 52368, Note_on_c, 7, 55, 89
6, 52404, Note_off_c, 7, 55, 64
6, 52608, Note_on_c, 7, 43, 89
6, 52644, Note_off_c, 7, 43, 64
6, 52656, Note_on_c, 7, 47, 89
6, 52692, Note_off_c, 7, 47, 64
6, 52704, Note_on_c, 7, 50, 89
6, 52740, Note_off_c, 7, 50, 64
6, 52752, Note_on_c, 7, 55, 89
6, 52788, Note_off_c, 7, 55, 64
6, 52992, Note_on_c, 7, 43, 89
6, 53028, Note_off_c, 7, 43, 64
6, 53040, Note_on_c, 7, 48, 89
6, 53076, Note_off_c, 7, 48, 64
6, 53088, Note_on_c, 7, 52, 89
6, 53124, Note_off_c, 7, 52, 64
6, 53136, Note_on_c, 7, 55, 89
6, 53172, Note_off_c, 7, 55, 64
6, 53376, Note_on_c, 7, 43, 89
6, 53412, Note_off_c, 7, 43, 64
6, 53424, Note_on_c, 7, 48, 89
6, 53460, Note_off_c, 7, 48, 64
6, 53472, Note_on_c, 7, 52, 89
6, 53508, Note_off_c, 7, 52, 64
6, 53520, Note_on_c, 7, 55, 89
6, 53556, Note_off_c, 7, 55, 64
6, 53760, Note_on_c, 7, 43, 89
6, 53776, Note_on_c, 7, 55, 89
6, 53796, Note_off_c, 7, 43, 64
6, 53812, Note_off_c, 7, 55, 64
6, 53952, Note_on_c, 7, 40, 89
6, 53968, Note_on_c, 7, 52, 89
6, 53988, Note_off_c, 7, 40, 64
6, 54004, Note_off_c, 7, 52, 64
6, 54144, Note_on_c, 7, 36, 89
6, 54160, Note_on_c, 7, 48, 89
6, 54180, Note_off_c, 7, 36, 64
6, 54196, Note_off_c, 7, 48, 64
6, 54336, Note_on_c, 7, 38, 89
6, 54352, Note_on_c, 7, 50, 89
6, 54372, Note_off_c, 7, 38, 64
6, 54388, Note_off_c, 7, 50, 64
6, 54528, Note_on_c, 7, 43, 89
6, 54564, Note_off_c, 7, 43, 64
6, 55296, Note_on_c, 7, 43, 89
6, 55332, Note_off_c, 7, 43, 64
6, 55344, Note_on_c, 7, 47, 89
6, 55380, Note_off_c, 7, 47, 64
6, 55392, Note_on_c, 7, 50, 89
6, 55428, Note_off_c, 7, 50, 64
6, 55440, Note_on_c, 7, 55, 89
6, 55476, Note_off_c, 7, 55, 64
6, 55680, Note_on_c, 7, 43, 89
6, 55716, Note_off_c, 7, 43, 64
6, 55728, Note_on_c, 7, 47, 89
6, 55764, Note_off_c, 7, 47, 64
6, 55776, Note_on_c, 7, 50, 89
6, 55812, Note_off_c, 7, 50, 64
6, 55824, Note_on_c, 7, 55, 89
6, 55860, Note_off_c, 7, 55, 64
6, 56064, Note_on_c, 7, 43, 89
6, 56100, Note_off_c, 7, 43, 64
6, 56112, Note_on_c, 7, 48, 89
6, 56148, Note_off_c, 7, 48, 64
6, 56160, Note_on_c, 7, 52, 89
6, 56196, Note_off_c, 7, 52, 64
6, 56208, Note_on_c, 7, 55, 89
6, 56244, Note_off_c, 7, 55, 64
6, 56448, Note_on_c, 7, 43, 89
6, 56484, Note_off_c, 7, 43, 64
6, 56496, Note_on_c, 7, 48, 89
6, 56532, Note_off_c, 7, 48, 64
6, 56544, Note_on_c, 7, 52, 89
6, 56580, Note_off_c, 7, 52, 64
6, 56592, Note_on_c, 7, 55, 89
6, 56628, Note_off_c, 7, 55, 64
6, 56832, Note_on_c, 7, 43, 89
6, 56848, Note_on_c, 7, 55, 89
6, 56868, Note_off_c, 7, 43, 64
6, 56884, Note_off_c, 7, 55, 64
6, 57024, Note_on_c, 7, 40, 89
6, 57040, Note_on_c, 7, 52, 89
6, 57060, Note_off_c, 7, 40, 64
6, 57076, Note_off_c, 7, 52, 64
6, 57216, Note_on_c, 7, 36, 89
6, 57232, Note_on_c, 7, 48, 89
6, 57252, Note_off_c, 7, 36, 64
6, 57268, Note_off_c, 7, 48, 64
6, 57408, Note_on_c, 7, 38, 89
6, 57424, Note_on_c, 7, 50, 89
6, 57444, Note_off_c, 7, 38, 64
6, 57460, Note_off_c, 7, 50, 64
6, 57600, Note_on_c, 7, 43, 89
6, 57792, Note_off_c, 7, 43, 64
6, 59136, Note_on_c, 7, 38, 68
6, 59137, Note_on_c, 7, 50, 70
6, 59189, Note_off_c, 7, 50, 68
6, 59196, Note_off_c, 7, 38, 74
6, 59911, Note_on_c, 7, 62, 70
6, 59937, Note_off_c, 7, 62, 79
6, 60101, Note_on_c, 7, 60, 68
6, 60129, Note_off_c, 7, 60, 76
6, 60285, Note_on_c, 7, 57, 94
6, 60308, Note_off_c, 7, 57, 91
6, 60483, Note_on_c, 7, 54, 62
6, 60509, Note_off_c, 7, 54, 81
6, 60681, Note_on_c, 7, 55, 1
6, 60683, Note_on_c, 7, 43, 99
6, 60742, Note_off_c, 7, 55, 87
6, 60746, Note_off_c, 7, 43, 96
6, 62215, Note_on_c, 7, 38, 70
6, 62218, Note_on_c, 7, 50, 64
6, 62329, Note_off_c, 7, 50, 85
6, 62330, Note_off_c, 7, 38, 91
6, 62986, Note_on_c, 7, 62, 70
6, 63030, Note_off_c, 7, 62, 70
6, 63170, Note_on_c, 7, 60, 60
6, 63213, Note_off_c, 7, 60, 61
6, 63354, Note_on_c, 7, 57, 82
6, 63385, Note_off_c, 7, 57, 86
6, 63536, Note_on_c, 7, 54, 52
6, 63567, Note_off_c, 7, 54, 59
6, 63744, Note_on_c, 7, 43, 70
6, 63748, Note_on_c, 7, 55, 88
6, 63861, Note_off_c, 7, 43, 98
6, 63866, Note_off_c, 7, 55, 66
6, 65288, Note_on_c, 7, 62, 99
6, 65290, Note_on_c, 7, 50, 88
6, 65437, Note_off_c, 7, 50, 56
6, 65438, Note_off_c, 7, 62, 75
6, 69120, Note_on_c, 7, 59, 89
6, 69156, Note_off_c, 7, 59, 64
6, 69168, Note_on_c, 7, 60, 89
6, 69204, Note_off_c, 7, 60, 64
6, 69216, Note_on_c, 7, 59, 89
6, 69252, Note_off_c, 7, 59, 64
6, 69264, Note_on_c, 7, 57, 89
6, 69300, Note_off_c, 7, 57, 64
6, 69312, Note_on_c, 7, 55, 89
6, 69348, Note_off_c, 7, 55, 64
6, 70656, Note_on_c, 7, 71, 89
6, 70692, Note_off_c, 7, 71, 64
6, 70704, Note_on_c, 7, 72, 89
6, 70740, Note_off_c, 7, 72, 64
6, 70752, Note_on_c, 7, 71, 89
6, 70788, Note_off_c, 7, 71, 64
6, 70800, Note_on_c, 7, 69, 89
6, 70836, Note_off_c, 7, 69, 64
6, 70848, Note_on_c, 7, 67, 89
6, 70884, Note_off_c, 7, 67, 64
6, 72192, Note_on_c, 7, 59, 89
6, 72228, Note_off_c, 7, 59, 64
6, 72240, Note_on_c, 7, 60, 89
6, 72276, Note_off_c, 7, 60, 64
6, 72288, Note_on_c, 7, 59, 89
6, 72324, Note_off_c, 7, 59, 64
6, 72336, Note_on_c, 7, 57, 89
6, 72372, Note_off_c, 7, 57, 64
6, 72384, Note_on_c, 7, 55, 89
6, 72420, Note_off_c, 7, 55, 64
6, 72960, Note_on_c, 7, 64, 89
6, 72996, Note_off_c, 7, 64, 64
6, 73008, Note_on_c, 7, 65, 89
6, 73044, Note_off_c, 7, 65, 64
6, 73056, Note_on_c, 7, 64, 89
6, 73092, Note_off_c, 7, 64, 64
6, 73104, Note_on_c, 7, 62, 89
6, 73140, Note_off_c, 7, 62, 64
6, 73152, Note_on_c, 7, 60, 89
6, 73188, Note_off_c, 7, 60, 64
6, 73728, Note_on_c, 7, 62, 89
6, 73764, Note_off_c, 7, 62, 64
6, 73776, Note_on_c, 7, 64, 89
6, 73812, Note_off_c, 7, 64, 64
6, 73824, Note_on_c, 7, 62, 89
6, 73860, Note_off_c, 7, 62, 64
6, 73872, Note_on_c, 7, 60, 89
6, 73908, Note_off_c, 7, 60, 64
6, 73920, Note_on_c, 7, 59, 89
6, 73956, Note_off_c, 7, 59, 64
6, 74496, Note_on_c, 7, 60, 89
6, 74568, Note_off_c, 7, 60, 64
6, 74592, Note_on_c, 7, 64, 89
6, 74664, Note_off_c, 7, 64, 64
6, 74688, Note_on_c, 7, 67, 89
6, 74760, Note_off_c, 7, 67, 64
6, 74784, Note_on_c, 7, 60, 89
6, 74856, Note_off_c, 7, 60, 64
6, 74880, Note_on_c, 7, 59, 89
6, 74952, Note_off_c, 7, 59, 64
6, 74976, Note_on_c, 7, 62, 89
6, 75048, Note_off_c, 7, 62, 64
6, 75072, Note_on_c, 7, 67, 89
6, 75144, Note_off_c, 7, 67, 64
6, 75168, Note_on_c, 7, 59, 89
6, 75240, Note_off_c, 7, 59, 64
6, 75264, Note_on_c, 7, 60, 89
6, 75336, Note_off_c, 7, 60, 64
6, 75360, Note_on_c, 7, 64, 89
6, 75432, Note_off_c, 7, 64, 64
6, 75456, Note_on_c, 7, 67, 89
6, 75528, Note_off_c, 7, 67, 64
6, 75552, Note_on_c, 7, 60, 89
6, 75624, Note_off_c, 7, 60, 64
6, 75648, Note_on_c, 7, 59, 89
6, 75720, Note_off_c, 7, 59, 64
6, 75744, Note_on_c, 7, 62, 89
6, 75816, Note_off_c, 7, 62, 64
6, 75840, Note_on_c, 7, 67, 89
6, 75912, Note_off_c, 7, 67, 64
6, 75936, Note_on_c, 7, 59, 89
6, 76008, Note_off_c, 7, 59, 64
6, 76032, Note_on_c, 7, 57, 89
6, 76104, Note_off_c, 7, 57, 64
6, 76128, Note_on_c, 7, 69, 89
6, 76164, Note_off_c, 7, 69, 64
6, 76176, Note_on_c, 7, 71, 89
6, 76212, Note_off_c, 7, 71, 64
6, 76224, Note_on_c, 7, 72, 89
6, 76260, Note_off_c, 7, 72, 64
6, 76272, Note_on_c, 7, 71, 89
6, 76308, Note_off_c, 7, 71, 64
6, 76320, Note_on_c, 7, 69, 89
6, 76356, Note_off_c, 7, 69, 64
6, 76368, Note_on_c, 7, 67, 89
6, 76404, Note_off_c, 7, 67, 64
6, 76416, Note_on_c, 7, 66, 89
6, 76452, Note_off_c, 7, 66, 64
6, 76464, Note_on_c, 7, 67, 89
6, 76500, Note_off_c, 7, 67, 64
6, 76512, Note_on_c, 7, 66, 89
6, 76548, Note_off_c, 7, 66, 64
6, 76560, Note_on_c, 7, 64, 89
6, 76596, Note_off_c, 7, 64, 64
6, 76608, Note_on_c, 7, 62, 89
6, 76644, Note_off_c, 7, 62, 64
6, 76656, Note_on_c, 7, 60, 89
6, 76692, Note_off_c, 7, 60, 64
6, 76704, Note_on_c, 7, 59, 89
6, 76740, Note_off_c, 7, 59, 64
6, 76752, Note_on_c, 7, 57, 89
6, 76788, Note_off_c, 7, 57, 64
6, 76800, Note_on_c, 7, 55, 89
6, 76836, Note_off_c, 7, 55, 64
6, 76896, Note_on_c, 7, 69, 89
6, 76932, Note_off_c, 7, 69, 64
6, 76944, Note_on_c, 7, 71, 89
6, 76980, Note_off_c, 7, 71, 64
6, 76992, Note_on_c, 7, 72, 89
6, 77028, Note_off_c, 7, 72, 64
6, 77040, Note_on_c, 7, 71, 89
6, 77076, Note_off_c, 7, 71, 64
6, 77088, Note_on_c, 7, 69, 89
6, 77124, Note_off_c, 7, 69, 64
6, 77136, Note_on_c, 7, 67, 89
6, 77172, Note_off_c, 7, 67, 64
6, 77184, Note_on_c, 7, 66, 89
6, 77220, Note_off_c, 7, 66, 64
6, 77232, Note_on_c, 7, 67, 89
6, 77268, Note_off_c, 7, 67, 64
6, 77280, Note_on_c, 7, 66, 89
6, 77316, Note_off_c, 7, 66, 64
6, 77328, Note_on_c, 7, 64, 89
6, 77364, Note_off_c, 7, 64, 64
6, 77376, Note_on_c, 7, 62, 89
6, 77412, Note_off_c, 7, 62, 64
6, 77424, Note_on_c, 7, 60, 89
6, 77460, Note_off_c, 7, 60, 64
6, 77472, Note_on_c, 7, 59, 89
6, 77508, Note_off_c, 7, 59, 64
6, 77520, Note_on_c, 7, 57, 89
6, 77556, Note_off_c, 7, 57, 64
6, 77568, Note_on_c, 7, 48, 89
6, 77640, Note_off_c, 7, 48, 64
6, 77664, Note_on_c, 7, 60, 89
6, 77736, Note_off_c, 7, 60, 64
6, 77760, Note_on_c, 7, 48, 89
6, 77832, Note_off_c, 7, 48, 64
6, 77856, Note_on_c, 7, 60, 89
6, 77928, Note_off_c, 7, 60, 64
6, 77952, Note_on_c, 7, 50, 89
6, 78024, Note_off_c, 7, 50, 64
6, 78048, Note_on_c, 7, 62, 89
6, 78120, Note_off_c, 7, 62, 64
6, 78144, Note_on_c, 7, 50, 89
6, 78216, Note_off_c, 7, 50, 64
6, 78240, Note_on_c, 7, 62, 89
6, 78312, Note_off_c, 7, 62, 64
6, 78336, Note_on_c, 7, 43, 89
6, 78336, Note_on_c, 7, 55, 89
6, 78408, Note_off_c, 7, 43, 64
6, 78408, Note_off_c, 7, 55, 64
6, 78432, Note_on_c, 7, 45, 89
6, 78432, Note_on_c, 7, 57, 89
6, 78504, Note_off_c, 7, 45, 64
6, 78504, Note_off_c, 7, 57, 64
6, 78528, Note_on_c, 7, 59, 89
6, 78528, Note_on_c, 7, 47, 89
6, 78600, Note_off_c, 7, 59, 64
6, 78600, Note_off_c, 7, 47, 64
6, 78624, Note_on_c, 7, 48, 89
6, 78624, Note_on_c, 7, 60, 89
6, 78696, Note_off_c, 7, 48, 64
6, 78696, Note_off_c, 7, 60, 64
6, 78720, Note_on_c, 7, 50, 89
6, 78720, Note_on_c, 7, 62, 89
6, 78792, Note_off_c, 7, 50, 64
6, 78792, Note_off_c, 7, 62, 64
6, 79296, Note_on_c, 7, 60, 89
6, 79332, Note_off_c, 7, 60, 64
6, 79344, Note_on_c, 7, 59, 89
6, 79380, Note_off_c, 7, 59, 64
6, 79392, Note_on_c, 7, 57, 89
6, 79428, Note_off_c, 7, 57, 64
6, 79440, Note_on_c, 7, 55, 89
6, 79476, Note_off_c, 7, 55, 64
6, 79488, Note_on_c, 7, 54, 89
6, 79524, Note_off_c, 7, 54, 64
6, 79680, Note_on_c, 7, 50, 89
6, 79716, Note_off_c, 7, 50, 64
6, 79728, Note_on_c, 7, 48, 89
6, 79764, Note_off_c, 7, 48, 64
6, 79776, Note_on_c, 7, 47, 89
6, 79812, Note_off_c, 7, 47, 64
6, 79824, Note_on_c, 7, 45, 89
6, 79860, Note_off_c, 7, 45, 64
6, 79872, Note_on_c, 7, 43, 89
6, 79908, Note_off_c, 7, 43, 64
6, 80064, Note_on_c, 7, 59, 89
6, 80100, Note_off_c, 7, 59, 64
6, 80112, Note_on_c, 7, 57, 89
6, 80148, Note_off_c, 7, 57, 64
6, 80160, Note_on_c, 7, 55, 89
6, 80196, Note_off_c, 7, 55, 64
6, 80208, Note_on_c, 7, 54, 89
6, 80244, Note_off_c, 7, 54, 64
6, 80256, Note_on_c, 7, 52, 89
6, 80292, Note_off_c, 7, 52, 64
6, 80448, Note_on_c, 7, 67, 89
6, 80484, Note_off_c, 7, 67, 64
6, 80496, Note_on_c, 7, 66, 89
6, 80532, Note_off_c, 7, 66, 64
6, 80544, Note_on_c, 7, 64, 89
6, 80580, Note_off_c, 7, 64, 64
6, 80592, Note_on_c, 7, 62, 89
6, 80628, Note_off_c, 7, 62, 64
6, 80640, Note_on_c, 7, 60, 89
6, 80676, Note_off_c, 7, 60, 64
6, 80688, Note_on_c, 7, 64, 89
6, 80724, Note_off_c, 7, 64, 64
6, 80736, Note_on_c, 7, 69, 89
6, 80772, Note_off_c, 7, 69, 64
6, 80784, Note_on_c, 7, 72, 89
6, 80820, Note_off_c, 7, 72, 64
6, 81024, Note_on_c, 7, 74, 89
6, 81096, Note_off_c, 7, 74, 64
6, 81216, Note_on_c, 7, 62, 89
6, 81288, Note_off_c, 7, 62, 64
6, 81408, Note_on_c, 7, 67, 89
6, 81480, Note_off_c, 7, 67, 64
6, 84528, Note_on_c, 7, 50, 89
6, 84564, Note_off_c, 7, 50, 64
6, 84576, Note_on_c, 7, 52, 89
6, 84612, Note_off_c, 7, 52, 64
6, 84624, Note_on_c, 7, 54, 89
6, 84660, Note_off_c, 7, 54, 64
6, 84672, Note_on_c, 7, 55, 89
6, 84708, Note_off_c, 7, 55, 64
6, 84720, Note_on_c, 7, 57, 89
6, 84756, Note_off_c, 7, 57, 64
6, 84768, Note_on_c, 7, 59, 89
6, 84804, Note_off_c, 7, 59, 64
6, 84816, Note_on_c, 7, 57, 89
6, 84852, Note_off_c, 7, 57, 64
6, 84864, Note_on_c, 7, 55, 89
6, 84936, Note_off_c, 7, 55, 64
6, 84960, Note_on_c, 7, 50, 89
6, 85032, Note_off_c, 7, 50, 64
6, 85056, Note_on_c, 7, 57, 89
6, 85128, Note_off_c, 7, 57, 64
6, 85152, Note_on_c, 7, 50, 89
6, 85224, Note_off_c, 7, 50, 64
6, 85248, Note_on_c, 7, 59, 89
6, 85320, Note_off_c, 7, 59, 64
6, 85344, Note_on_c, 7, 50, 89
6, 85416, Note_off_c, 7, 50, 64
6, 85440, Note_on_c, 7, 59, 89
6, 85512, Note_off_c, 7, 59, 64
6, 85536, Note_on_c, 7, 50, 89
6, 85608, Note_off_c, 7, 50, 64
6, 85632, Note_on_c, 7, 55, 89
6, 85704, Note_off_c, 7, 55, 64
6, 85728, Note_on_c, 7, 50, 89
6, 85800, Note_off_c, 7, 50, 64
6, 85824, Note_on_c, 7, 57, 89
6, 85896, Note_off_c, 7, 57, 64
6, 85920, Note_on_c, 7, 50, 89
6, 85992, Note_off_c, 7, 50, 64
6, 86016, Note_on_c, 7, 59, 89
6, 86088, Note_off_c, 7, 59, 64
6, 86112, Note_on_c, 7, 50, 89
6, 86184, Note_off_c, 7, 50, 64
6, 86208, Note_on_c, 7, 59, 89
6, 86280, Note_off_c, 7, 59, 64
6, 86304, Note_on_c, 7, 50, 89
6, 86376, Note_off_c, 7, 50, 64
6, 86400, Note_on_c, 7, 67, 89
6, 86472, Note_off_c, 7, 67, 64
6, 86496, Note_on_c, 7, 62, 89
6, 86568, Note_off_c, 7, 62, 64
6, 86592, Note_on_c, 7, 69, 89
6, 86664, Note_off_c, 7, 69, 64
6, 86688, Note_on_c, 7, 62, 89
6, 86760, Note_off_c, 7, 62, 64
6, 86784, Note_on_c, 7, 71, 89
6, 86856, Note_off_c, 7, 71, 64
6, 86880, Note_on_c, 7, 62, 89
6, 86952, Note_off_c, 7, 62, 64
6, 86976, Note_on_c, 7, 69, 89
6, 87048, Note_off_c, 7, 69, 64
6, 87072, Note_on_c, 7, 62, 89
6, 87144, Note_off_c, 7, 62, 64
6, 87168, Note_on_c, 7, 67, 89
6, 87240, Note_off_c, 7, 67, 64
6, 87264, Note_on_c, 7, 62, 89
6, 87336, Note_off_c, 7, 62, 64
6, 87360, Note_on_c, 7, 66, 89
6, 87432, Note_off_c, 7, 66, 64
6, 87456, Note_on_c, 7, 62, 89
6, 87528, Note_off_c, 7, 62, 64
6, 87552, Note_on_c, 7, 47, 89
6, 87588, Note_off_c, 7, 47, 64
6, 87600, Note_on_c, 7, 50, 89
6, 87636, Note_off_c, 7, 50, 64
6, 87648, Note_on_c, 7, 55, 89
6, 87684, Note_off_c, 7, 55, 64
6, 87696, Note_on_c, 7, 59, 89
6, 87732, Note_off_c, 7, 59, 64
6, 87936, Note_on_c, 7, 48, 89
6, 87972, Note_off_c, 7, 48, 64
6, 87984, Note_on_c, 7, 52, 89
6, 88020, Note_off_c, 7, 52, 64
6, 88032, Note_on_c, 7, 57, 89
6, 88068, Note_off_c, 7, 57, 64
6, 88080, Note_on_c, 7, 60, 89
6, 88116, Note_off_c, 7, 60, 64
6, 88320, Note_on_c, 7, 50, 89
6, 88392, Note_off_c, 7, 50, 64
6, 88512, Note_on_c, 7, 71, 89
6, 88512, Note_on_c, 7, 62, 89
6, 88584, Note_off_c, 7, 71, 64
6, 88584, Note_off_c, 7, 62, 64
6, 88704, Note_on_c, 7, 72, 89
6, 88704, Note_on_c, 7, 62, 89
6, 88776, Note_off_c, 7, 72, 64
6, 88776, Note_off_c, 7, 62, 64
6, 88896, Note_on_c, 7, 69, 89
6, 88896, Note_on_c, 7, 62, 89
6, 88968, Note_off_c, 7, 69, 64
6, 88968, Note_off_c, 7, 62, 64
6, 89088, Note_on_c, 7, 55, 88
6, 89088, Note_on_c, 7, 50, 66
6, 89088, Note_on_c, 7, 47, 40
6, 89105, Note_on_c, 7, 59, 76
6, 89127, Note_off_c, 7, 50, 88
6, 89135, Note_off_c, 7, 55, 91
6, 89164, Note_off_c, 7, 47, 37
6, 89196, Note_off_c, 7, 59, 60
6, 89447, Note_on_c, 7, 48, 62
6, 89473, Note_on_c, 7, 52, 94
6, 89482, Note_on_c, 7, 55, 105
6, 89518, Note_on_c, 7, 60, 70
6, 89535, Note_off_c, 7, 55, 105
6, 89539, Note_off_c, 7, 52, 92
6, 89607, Note_off_c, 7, 48, 80
6, 89641, Note_off_c, 7, 60, 60
6, 89856, Note_on_c, 7, 50, 89
6, 89892, Note_off_c, 7, 50, 64
6, 89904, Note_on_c, 7, 55, 89
6, 89940, Note_off_c, 7, 55, 64
6, 89952, Note_on_c, 7, 59, 89
6, 89988, Note_off_c, 7, 59, 64
6, 90000, Note_on_c, 7, 62, 89
6, 90036, Note_off_c, 7, 62, 64
6, 90240, Note_on_c, 7, 62, 89
6, 90276, Note_off_c, 7, 62, 64
6, 90288, Note_on_c, 7, 67, 89
6, 90324, Note_off_c, 7, 67, 64
6, 90336, Note_on_c, 7, 71, 89
6, 90372, Note_off_c, 7, 71, 64
6, 90384, Note_on_c, 7, 74, 89
6, 90420, Note_off_c, 7, 74, 64
6, 90816, Note_on_c, 7, 72, 89
6, 90852, Note_off_c, 7, 72, 64
6, 90864, Note_on_c, 7, 69, 89
6, 90900, Note_off_c, 7, 69, 64
6, 90912, Note_on_c, 7, 66, 89
6, 90948, Note_off_c, 7, 66, 64
6, 90960, Note_on_c, 7, 62, 89
6, 90996, Note_off_c, 7, 62, 64
6, 91200, Note_on_c, 7, 60, 89
6, 91236, Note_off_c, 7, 60, 64
6, 91248, Note_on_c, 7, 57, 89
6, 91284, Note_off_c, 7, 57, 64
6, 91296, Note_on_c, 7, 54, 89
6, 91332, Note_off_c, 7, 54, 64
6, 91344, Note_on_c, 7, 50, 89
6, 91380, Note_off_c, 7, 50, 64
6, 91392, Note_on_c, 7, 55, 89
6, 91392, Note_on_c, 7, 43, 89
6, 91428, Note_off_c, 7, 55, 64
6, 91428, Note_off_c, 7, 43, 64
6, 106752, Note_on_c, 7, 57, 90
6, 106752, Note_on_c, 7, 45, 90
6, 106824, Note_off_c, 7, 57, 64
6, 106824, Note_off_c, 7, 45, 64
6, 106944, Note_on_c, 7, 60, 90
6, 107016, Note_off_c, 7, 60, 64
6, 107136, Note_on_c, 7, 59, 90
6, 107208, Note_off_c, 7, 59, 64
6, 107328, Note_on_c, 7, 57, 90
6, 107400, Note_off_c, 7, 57, 64
6, 107520, Note_on_c, 7, 56, 90
6, 107520, Note_on_c, 7, 44, 90
6, 107592, Note_off_c, 7, 56, 64
6, 107592, Note_off_c, 7, 44, 64
6, 107712, Note_on_c, 7, 57, 90
6, 107712, Note_on_c, 7, 45, 90
6, 107784, Note_off_c, 7, 57, 64
6, 107784, Note_off_c, 7, 45, 64
6, 107904, Note_on_c, 7, 55, 90
6, 107904, Note_on_c, 7, 43, 90
6, 107976, Note_off_c, 7, 55, 64
6, 107976, Note_off_c, 7, 43, 64
6, 108096, Note_on_c, 7, 41, 90
6, 108096, Note_on_c, 7, 53, 90
6, 108168, Note_off_c, 7, 41, 64
6, 108168, Note_off_c, 7, 53, 64
6, 108288, Note_on_c, 7, 52, 90
6, 108288, Note_on_c, 7, 40, 90
6, 108360, Note_off_c, 7, 52, 64
6, 108360, Note_off_c, 7, 40, 64
6, 108480, Note_on_c, 7, 53, 90
6, 108552, Note_off_c, 7, 53, 64
6, 108672, Note_on_c, 7, 52, 90
6, 108744, Note_off_c, 7, 52, 64
6, 108864, Note_on_c, 7, 50, 90
6, 108936, Note_off_c, 7, 50, 64
6, 109056, Note_on_c, 7, 37, 90
6, 109056, Note_on_c, 7, 49, 90
6, 109128, Note_off_c, 7, 37, 64
6, 109128, Note_off_c, 7, 49, 64
6, 114432, Note_on_c, 7, 62, 60
6, 114468, Note_off_c, 7, 62, 64
6, 114480, Note_on_c, 7, 65, 60
6, 114516, Note_off_c, 7, 65, 64
6, 114528, Note_on_c, 7, 69, 60
6, 114564, Note_off_c, 7, 69, 64
6, 114576, Note_on_c, 7, 65, 60
6, 114612, Note_off_c, 7, 65, 64
6, 114624, Note_on_c, 7, 62, 60
6, 114660, Note_off_c, 7, 62, 64
6, 114672, Note_on_c, 7, 65, 60
6, 114708, Note_off_c, 7, 65, 64
6, 114720, Note_on_c, 7, 69, 60
6, 114756, Note_off_c, 7, 69, 64
6, 114768, Note_on_c, 7, 65, 60
6, 114804, Note_off_c, 7, 65, 64
6, 114816, Note_on_c, 7, 62, 60
6, 114852, Note_off_c, 7, 62, 64
6, 114864, Note_on_c, 7, 65, 60
6, 114900, Note_off_c, 7, 65, 64
6, 114912, Note_on_c, 7, 69, 60
6, 114948, Note_off_c, 7, 69, 64
6, 114960, Note_on_c, 7, 65, 60
6, 114996, Note_off_c, 7, 65, 64
6, 115008, Note_on_c, 7, 62, 60
6, 115044, Note_off_c, 7, 62, 64
6, 115056, Note_on_c, 7, 65, 60
6, 115092, Note_off_c, 7, 65, 64
6, 115104, Note_on_c, 7, 69, 60
6, 115140, Note_off_c, 7, 69, 64
6, 115152, Note_on_c, 7, 65, 60
6, 115188, Note_off_c, 7, 65, 64
6, 115200, Note_on_c, 7, 62, 60
6, 115236, Note_off_c, 7, 62, 64
6, 115248, Note_on_c, 7, 67, 60
6, 115284, Note_off_c, 7, 67, 64
6, 115296, Note_on_c, 7, 70, 60
6, 115332, Note_off_c, 7, 70, 64
6, 115344, Note_on_c, 7, 67, 60
6, 115380, Note_off_c, 7, 67, 64
6, 115392, Note_on_c, 7, 62, 60
6, 115428, Note_off_c, 7, 62, 64
6, 115440, Note_on_c, 7, 67, 60
6, 115476, Note_off_c, 7, 67, 64
6, 115488, Note_on_c, 7, 70, 60
6, 115524, Note_off_c, 7, 70, 64
6, 115536, Note_on_c, 7, 67, 60
6, 115572, Note_off_c, 7, 67, 64
6, 115584, Note_on_c, 7, 61, 60
6, 115620, Note_off_c, 7, 61, 64
6, 115632, Note_on_c, 7, 67, 60
6, 115668, Note_off_c, 7, 67, 64
6, 115680, Note_on_c, 7, 70, 60
6, 115716, Note_off_c, 7, 70, 64
6, 115728, Note_on_c, 7, 67, 60
6, 115764, Note_off_c, 7, 67, 64
6, 115776, Note_on_c, 7, 61, 60
6, 115812, Note_off_c, 7, 61, 64
6, 115824, Note_on_c, 7, 67, 60
6, 115860, Note_off_c, 7, 67, 64
6, 115872, Note_on_c, 7, 70, 60
6, 115908, Note_off_c, 7, 70, 64
6, 115920, Note_on_c, 7, 67, 60
6, 115956, Note_off_c, 7, 67, 64
6, 115968, Note_on_c, 7, 60, 80
6, 116004, Note_off_c, 7, 60, 64
6, 116016, Note_on_c, 7, 67, 80
6, 116052, Note_off_c, 7, 67, 64
6, 116064, Note_on_c, 7, 70, 80
6, 116100, Note_off_c, 7, 70, 64
6, 116112, Note_on_c, 7, 67, 80
6, 116148, Note_off_c, 7, 67, 64
6, 116160, Note_on_c, 7, 60, 80
6, 116196, Note_off_c, 7, 60, 64
6, 116208, Note_on_c, 7, 67, 80
6, 116244, Note_off_c, 7, 67, 64
6, 116256, Note_on_c, 7, 70, 80
6, 116292, Note_off_c, 7, 70, 64
6, 116304, Note_on_c, 7, 67, 80
6, 116340, Note_off_c, 7, 67, 64
6, 116352, Note_on_c, 7, 60, 80
6, 116388, Note_off_c, 7, 60, 64
6, 116400, Note_on_c, 7, 67, 80
6, 116436, Note_off_c, 7, 67, 64
6, 116448, Note_on_c, 7, 70, 80
6, 116484, Note_off_c, 7, 70, 64
6, 116496, Note_on_c, 7, 67, 80
6, 116532, Note_off_c, 7, 67, 64
6, 116544, Note_on_c, 7, 60, 80
6, 116580, Note_off_c, 7, 60, 64
6, 116592, Note_on_c, 7, 67, 80
6, 116628, Note_off_c, 7, 67, 64
6, 116640, Note_on_c, 7, 70, 80
6, 116676, Note_off_c, 7, 70, 64
6, 116688, Note_on_c, 7, 67, 80
6, 116724, Note_off_c, 7, 67, 64
6, 116736, Note_on_c, 7, 65, 60
6, 116772, Note_off_c, 7, 65, 64
6, 117504, Note_on_c, 7, 53, 60
6, 117540, Note_off_c, 7, 53, 64
6, 118272, Note_on_c, 7, 52, 80
6, 118308, Note_off_c, 7, 52, 64
6, 119040, Note_on_c, 7, 57, 60
6, 119076, Note_off_c, 7, 57, 64
6, 119088, Note_on_c, 7, 60, 60
6, 119124, Note_off_c, 7, 60, 64
6, 119136, Note_on_c, 7, 64, 60
6, 119172, Note_off_c, 7, 64, 64
6, 119184, Note_on_c, 7, 60, 60
6, 119220, Note_off_c, 7, 60, 64
6, 119232, Note_on_c, 7, 57, 60
6, 119268, Note_off_c, 7, 57, 64
6, 119280, Note_on_c, 7, 60, 60
6, 119316, Note_off_c, 7, 60, 64
6, 119328, Note_on_c, 7, 64, 60
6, 119364, Note_off_c, 7, 64, 64
6, 119376, Note_on_c, 7, 60, 60
6, 119412, Note_off_c, 7, 60, 64
6, 119424, Note_on_c, 7, 57, 60
6, 119460, Note_off_c, 7, 57, 64
6, 119472, Note_on_c, 7, 60, 60
6, 119508, Note_off_c, 7, 60, 64
6, 119520, Note_on_c, 7, 64, 60
6, 119556, Note_off_c, 7, 64, 64
6, 119568, Note_on_c, 7, 60, 60
6, 119604, Note_off_c, 7, 60, 64
6, 119616, Note_on_c, 7, 57, 60
6, 119652, Note_off_c, 7, 57, 64
6, 119664, Note_on_c, 7, 60, 60
6, 119700, Note_off_c, 7, 60, 64
6, 119712, Note_on_c, 7, 64, 60
6, 119748, Note_off_c, 7, 64, 64
6, 119760, Note_on_c, 7, 60, 60
6, 119796, Note_off_c, 7, 60, 64
6, 119808, Note_on_c, 7, 57, 60
6, 119844, Note_off_c, 7, 57, 64
6, 119856, Note_on_c, 7, 62, 60
6, 119892, Note_off_c, 7, 62, 64
6, 119904, Note_on_c, 7, 65, 60
6, 119940, Note_off_c, 7, 65, 64
6, 119952, Note_on_c, 7, 62, 60
6, 119988, Note_off_c, 7, 62, 64
6, 120000, Note_on_c, 7, 57, 60
6, 120036, Note_off_c, 7, 57, 64
6, 120048, Note_on_c, 7, 62, 60
6, 120084, Note_off_c, 7, 62, 64
6, 120096, Note_on_c, 7, 65, 60
6, 120132, Note_off_c, 7, 65, 64
6, 120144, Note_on_c, 7, 62, 60
6, 120180, Note_off_c, 7, 62, 64
6, 120192, Note_on_c, 7, 56, 60
6, 120228, Note_off_c, 7, 56, 64
6, 120240, Note_on_c, 7, 62, 60
6, 120276, Note_off_c, 7, 62, 64
6, 120288, Note_on_c, 7, 65, 60
6, 120324, Note_off_c, 7, 65, 64
6, 120336, Note_on_c, 7, 62, 60
6, 120372, Note_off_c, 7, 62, 64
6, 120384, Note_on_c, 7, 56, 60
6, 120420, Note_off_c, 7, 56, 64
6, 120432, Note_on_c, 7, 62, 60
6, 120468, Note_off_c, 7, 62, 64
6, 120480, Note_on_c, 7, 65, 60
6, 120516, Note_off_c, 7, 65, 64
6, 120528, Note_on_c, 7, 62, 60
6, 120564, Note_off_c, 7, 62, 64
6, 120576, Note_on_c, 7, 55, 80
6, 120612, Note_off_c, 7, 55, 64
6, 120624, Note_on_c, 7, 62, 80
6, 120660, Note_off_c, 7, 62, 64
6, 120672, Note_on_c, 7, 65, 80
6, 120708, Note_off_c, 7, 65, 64
6, 120720, Note_on_c, 7, 62, 80
6, 120756, Note_off_c, 7, 62, 64
6, 120768, Note_on_c, 7, 55, 80
6, 120804, Note_off_c, 7, 55, 64
6, 120816, Note_on_c, 7, 62, 80
6, 120852, Note_off_c, 7, 62, 64
6, 120864, Note_on_c, 7, 65, 80
6, 120900, Note_off_c, 7, 65, 64
6, 120912, Note_on_c, 7, 62, 80
6, 120948, Note_off_c, 7, 62, 64
6, 120960, Note_on_c, 7, 55, 80
6, 120996, Note_off_c, 7, 55, 64
6, 121008, Note_on_c, 7, 62, 80
6, 121044, Note_off_c, 7, 62, 64
6, 121056, Note_on_c, 7, 65, 80
6, 121092, Note_off_c, 7, 65, 64
6, 121104, Note_on_c, 7, 62, 80
6, 121140, Note_off_c, 7, 62, 64
6, 121152, Note_on_c, 7, 55, 80
6, 121188, Note_off_c, 7, 55, 64
6, 121200, Note_on_c, 7, 62, 80
6, 121236, Note_off_c, 7, 62, 64
6, 121248, Note_on_c, 7, 65, 80
6, 121284, Note_off_c, 7, 65, 64
6, 121296, Note_on_c, 7, 62, 80
6, 121332, Note_off_c, 7, 62, 64
6, 121344, Note_on_c, 7, 55, 60
6, 121380, Note_off_c, 7, 55, 64
6, 121392, Note_on_c, 7, 60, 60
6, 121428, Note_off_c, 7, 60, 64
6, 121440, Note_on_c, 7, 63, 60
6, 121476, Note_off_c, 7, 63, 64
6, 121488, Note_on_c, 7, 60, 60
6, 121524, Note_off_c, 7, 60, 64
6, 121536, Note_on_c, 7, 55, 60
6, 121572, Note_off_c, 7, 55, 64
6, 121584, Note_on_c, 7, 60, 60
6, 121620, Note_off_c, 7, 60, 64
6, 121632, Note_on_c, 7, 63, 60
6, 121668, Note_off_c, 7, 63, 64
6, 121680, Note_on_c, 7, 60, 60
6, 121716, Note_off_c, 7, 60, 64
6, 121728, Note_on_c, 7, 55, 60
6, 121764, Note_off_c, 7, 55, 64
6, 121776, Note_on_c, 7, 60, 60
6, 121812, Note_off_c, 7, 60, 64
6, 121824, Note_on_c, 7, 63, 60
6, 121860, Note_off_c, 7, 63, 64
6, 121872, Note_on_c, 7, 60, 60
6, 121908, Note_off_c, 7, 60, 64
6, 121920, Note_on_c, 7, 55, 60
6, 121956, Note_off_c, 7, 55, 64
6, 121968, Note_on_c, 7, 60, 60
6, 122004, Note_off_c, 7, 60, 64
6, 122016, Note_on_c, 7, 63, 60
6, 122052, Note_off_c, 7, 63, 64
6, 122064, Note_on_c, 7, 60, 60
6, 122100, Note_off_c, 7, 60, 64
6, 122112, Note_on_c, 7, 55, 80
6, 122148, Note_off_c, 7, 55, 64
6, 122160, Note_on_c, 7, 62, 80
6, 122196, Note_off_c, 7, 62, 64
6, 122208, Note_on_c, 7, 65, 80
6, 122244, Note_off_c, 7, 65, 64
6, 122256, Note_on_c, 7, 62, 80
6, 122292, Note_off_c, 7, 62, 64
6, 122304, Note_on_c, 7, 55, 80
6, 122340, Note_off_c, 7, 55, 64
6, 122352, Note_on_c, 7, 62, 80
6, 122388, Note_off_c, 7, 62, 64
6, 122400, Note_on_c, 7, 65, 80
6, 122436, Note_off_c, 7, 65, 64
6, 122448, Note_on_c, 7, 62, 80
6, 122484, Note_off_c, 7, 62, 64
6, 122496, Note_on_c, 7, 55, 80
6, 122532, Note_off_c, 7, 55, 64
6, 122544, Note_on_c, 7, 62, 80
6, 122580, Note_off_c, 7, 62, 64
6, 122592, Note_on_c, 7, 65, 80
6, 122628, Note_off_c, 7, 65, 64
6, 122640, Note_on_c, 7, 62, 80
6, 122676, Note_off_c, 7, 62, 64
6, 122688, Note_on_c, 7, 55, 80
6, 122724, Note_off_c, 7, 55, 64
6, 122736, Note_on_c, 7, 62, 80
6, 122772, Note_off_c, 7, 62, 64
6, 122784, Note_on_c, 7, 65, 80
6, 122820, Note_off_c, 7, 65, 64
6, 122832, Note_on_c, 7, 62, 80
6, 122868, Note_off_c, 7, 62, 64
6, 122880, Note_on_c, 7, 55, 60
6, 122916, Note_off_c, 7, 55, 64
6, 122928, Note_on_c, 7, 60, 60
6, 122964, Note_off_c, 7, 60, 64
6, 122976, Note_on_c, 7, 63, 60
6, 123012, Note_off_c, 7, 63, 64
6, 123024, Note_on_c, 7, 60, 60
6, 123060, Note_off_c, 7, 60, 64
6, 123072, Note_on_c, 7, 55, 60
6, 123108, Note_off_c, 7, 55, 64
6, 123120, Note_on_c, 7, 60, 60
6, 123156, Note_off_c, 7, 60, 64
6, 123168, Note_on_c, 7, 63, 60
6, 123204, Note_off_c, 7, 63, 64
6, 123216, Note_on_c, 7, 60, 60
6, 123252, Note_off_c, 7, 60, 64
6, 123264, Note_on_c, 7, 55, 60
6, 123300, Note_off_c, 7, 55, 64
6, 123312, Note_on_c, 7, 60, 60
6, 123348, Note_off_c, 7, 60, 64
6, 123360, Note_on_c, 7, 63, 60
6, 123396, Note_off_c, 7, 63, 64
6, 123408, Note_on_c, 7, 60, 60
6, 123444, Note_off_c, 7, 60, 64
6, 123456, Note_on_c, 7, 55, 60
6, 123492, Note_off_c, 7, 55, 64
6, 123504, Note_on_c, 7, 60, 60
6, 123540, Note_off_c, 7, 60, 64
6, 123552, Note_on_c, 7, 63, 60
6, 123588, Note_off_c, 7, 63, 64
6, 123600, Note_on_c, 7, 60, 60
6, 123636, Note_off_c, 7, 60, 64
6, 123648, Note_on_c, 7, 55, 90
6, 123720, Note_off_c, 7, 55, 64
6, 123744, Note_on_c, 7, 47, 90
6, 123816, Note_off_c, 7, 47, 64
6, 123840, Note_on_c, 7, 48, 90
6, 123912, Note_off_c, 7, 48, 64
6, 123936, Note_on_c, 7, 50, 90
6, 124008, Note_off_c, 7, 50, 64
6, 124032, Note_on_c, 7, 51, 90
6, 124104, Note_off_c, 7, 51, 64
6, 124128, Note_on_c, 7, 52, 90
6, 124200, Note_off_c, 7, 52, 64
6, 124224, Note_on_c, 7, 53, 90
6, 124296, Note_off_c, 7, 53, 64
6, 124320, Note_on_c, 7, 54, 90
6, 124392, Note_off_c, 7, 54, 64
6, 124416, Note_on_c, 7, 55, 90
6, 124488, Note_off_c, 7, 55, 64
6, 125568, Note_on_c, 7, 54, 90
6, 125586, Note_off_c, 7, 54, 64
6, 125592, Note_on_c, 7, 57, 90
6, 125610, Note_off_c, 7, 57, 64
6, 125616, Note_on_c, 7, 60, 90
6, 125634, Note_off_c, 7, 60, 64
6, 125640, Note_on_c, 7, 63, 90
6, 125658, Note_off_c, 7, 63, 64
6, 125664, Note_on_c, 7, 72, 90
6, 125682, Note_off_c, 7, 72, 64
6, 125688, Note_on_c, 7, 75, 90
6, 125706, Note_off_c, 7, 75, 64
6, 125712, Note_on_c, 7, 78, 90
6, 125730, Note_off_c, 7, 78, 64
6, 125736, Note_on_c, 7, 81, 90
6, 125754, Note_off_c, 7, 81, 64
6, 126336, Note_on_c, 7, 54, 90
6, 126354, Note_off_c, 7, 54, 64
6, 126360, Note_on_c, 7, 57, 90
6, 126378, Note_off_c, 7, 57, 64
6, 126384, Note_on_c, 7, 60, 90
6, 126402, Note_off_c, 7, 60, 64
6, 126408, Note_on_c, 7, 63, 90
6, 126426, Note_off_c, 7, 63, 64
6, 126432, Note_on_c, 7, 72, 90
6, 126450, Note_off_c, 7, 72, 64
6, 126456, Note_on_c, 7, 75, 90
6, 126474, Note_off_c, 7, 75, 64
6, 126480, Note_on_c, 7, 78, 90
6, 126498, Note_off_c, 7, 78, 64
6, 126504, Note_on_c, 7, 81, 90
6, 126522, Note_off_c, 7, 81, 64
6, 126816, Note_on_c, 7, 55, 90
6, 126888, Note_off_c, 7, 55, 64
6, 126912, Note_on_c, 7, 43, 90
6, 126984, Note_off_c, 7, 43, 64
6, 127200, Note_on_c, 7, 55, 90
6, 127272, Note_off_c, 7, 55, 64
6, 127296, Note_on_c, 7, 43, 90
6, 127368, Note_off_c, 7, 43, 64
6, 127584, Note_on_c, 7, 55, 90
6, 127656, Note_off_c, 7, 55, 64
6, 127680, Note_on_c, 7, 43, 90
6, 127752, Note_off_c, 7, 43, 64
6, 127968, Note_on_c, 7, 55, 90
6, 128040, Note_off_c, 7, 55, 64
6, 128064, Note_on_c, 7, 43, 90
6, 128136, Note_off_c, 7, 43, 64
6, 128352, Note_on_c, 7, 55, 90
6, 128424, Note_off_c, 7, 55, 64
6, 128448, Note_on_c, 7, 43, 90
6, 128520, Note_off_c, 7, 43, 64
6, 128736, Note_on_c, 7, 55, 90
6, 128808, Note_off_c, 7, 55, 64
6, 128832, Note_on_c, 7, 43, 90
6, 128904, Note_off_c, 7, 43, 64
6, 129036, Note_on_c, 7, 48, 88
6, 129052, Note_on_c, 7, 52, 66
6, 129075, Note_on_c, 7, 55, 1
6, 129109, Note_on_c, 7, 60, 62
6, 129125, Note_off_c, 7, 52, 81
6, 129130, Note_off_c, 7, 55, 90
6, 129143, Note_off_c, 7, 48, 57
6, 129287, Note_off_c, 7, 60, 75
6, 133824, Note_on_c, 7, 60, 67
6, 133896, Note_off_c, 7, 60, 64
6, 133920, Note_on_c, 7, 64, 67
6, 133992, Note_off_c, 7, 64, 64
6, 134016, Note_on_c, 7, 62, 67
6, 134088, Note_off_c, 7, 62, 64
6, 134112, Note_on_c, 7, 65, 67
6, 134184, Note_off_c, 7, 65, 64
6, 134208, Note_on_c, 7, 60, 67
6, 134280, Note_off_c, 7, 60, 64
6, 134304, Note_on_c, 7, 64, 67
6, 134376, Note_off_c, 7, 64, 64
6, 134400, Note_on_c, 7, 59, 67
6, 134472, Note_off_c, 7, 59, 64
6, 134592, Note_on_c, 7, 59, 67
6, 134664, Note_off_c, 7, 59, 64
6, 134688, Note_on_c, 7, 62, 67
6, 134760, Note_off_c, 7, 62, 64
6, 134784, Note_on_c, 7, 58, 67
6, 134856, Note_off_c, 7, 58, 64
6, 134880, Note_on_c, 7, 61, 67
6, 134952, Note_off_c, 7, 61, 64
6, 134976, Note_on_c, 7, 59, 67
6, 135048, Note_off_c, 7, 59, 64
6, 135072, Note_on_c, 7, 62, 67
6, 135144, Note_off_c, 7, 62, 64
6, 135168, Note_on_c, 7, 64, 67
6, 135168, Note_on_c, 7, 60, 67
6, 135240, Note_off_c, 7, 64, 64
6, 135240, Note_off_c, 7, 60, 64
6, 135360, Note_on_c, 7, 60, 67
6, 135432, Note_off_c, 7, 60, 64
6, 135456, Note_on_c, 7, 64, 67
6, 135528, Note_off_c, 7, 64, 64
6, 135552, Note_on_c, 7, 59, 67
6, 135624, Note_off_c, 7, 59, 64
6, 135648, Note_on_c, 7, 63, 67
6, 135720, Note_off_c, 7, 63, 64
6, 135744, Note_on_c, 7, 60, 67
6, 135816, Note_off_c, 7, 60, 64
6, 135840, Note_on_c, 7, 64, 67
6, 135912, Note_off_c, 7, 64, 64
6, 135936, Note_on_c, 7, 57, 67
6, 136008, Note_off_c, 7, 57, 64
6, 136032, Note_on_c, 7, 60, 67
6, 136104, Note_off_c, 7, 60, 64
6, 136128, Note_on_c, 7, 52, 67
6, 136200, Note_off_c, 7, 52, 64
6, 136224, Note_on_c, 7, 60, 67
6, 136296, Note_off_c, 7, 60, 64
6, 136320, Note_on_c, 7, 53, 67
6, 136392, Note_off_c, 7, 53, 64
6, 136416, Note_on_c, 7, 60, 67
6, 136488, Note_off_c, 7, 60, 64
6, 136512, Note_on_c, 7, 50, 67
6, 136584, Note_off_c, 7, 50, 64
6, 136608, Note_on_c, 7, 59, 67
6, 136680, Note_off_c, 7, 59, 64
6, 136704, Note_on_c, 7, 48, 89
6, 136740, Note_off_c, 7, 48, 64
6, 136752, Note_on_c, 7, 52, 89
6, 136788, Note_off_c, 7, 52, 64
6, 136800, Note_on_c, 7, 55, 89
6, 136836, Note_off_c, 7, 55, 64
6, 136848, Note_on_c, 7, 60, 89
6, 136884, Note_off_c, 7, 60, 64
6, 137472, Note_on_c, 7, 71, 89
6, 137544, Note_off_c, 7, 71, 64
6, 137568, Note_on_c, 7, 69, 89
6, 137640, Note_off_c, 7, 69, 64
6, 137664, Note_on_c, 7, 67, 89
6, 137736, Note_off_c, 7, 67, 64
6, 137760, Note_on_c, 7, 65, 89
6, 137832, Note_off_c, 7, 65, 64
6, 137856, Note_on_c, 7, 64, 89
6, 137928, Note_off_c, 7, 64, 64
6, 137952, Note_on_c, 7, 62, 89
6, 138024, Note_off_c, 7, 62, 64
6, 138048, Note_on_c, 7, 60, 89
6, 138120, Note_off_c, 7, 60, 64
6, 138144, Note_on_c, 7, 59, 89
6, 138216, Note_off_c, 7, 59, 64
6, 138240, Note_on_c, 7, 48, 89
6, 138276, Note_off_c, 7, 48, 64
6, 138288, Note_on_c, 7, 52, 89
6, 138324, Note_off_c, 7, 52, 64
6, 138336, Note_on_c, 7, 55, 89
6, 138372, Note_off_c, 7, 55, 64
6, 138384, Note_on_c, 7, 60, 89
6, 138420, Note_off_c, 7, 60, 64
6, 139008, Note_on_c, 7, 74, 89
6, 139080, Note_off_c, 7, 74, 64
6, 139104, Note_on_c, 7, 72, 89
6, 139176, Note_off_c, 7, 72, 64
6, 139200, Note_on_c, 7, 71, 89
6, 139272, Note_off_c, 7, 71, 64
6, 139296, Note_on_c, 7, 69, 89
6, 139368, Note_off_c, 7, 69, 64
6, 139392, Note_on_c, 7, 67, 89
6, 139464, Note_off_c, 7, 67, 64
6, 139488, Note_on_c, 7, 65, 89
6, 139560, Note_off_c, 7, 65, 64
6, 139584, Note_on_c, 7, 64, 89
6, 139656, Note_off_c, 7, 64, 64
6, 139680, Note_on_c, 7, 62, 89
6, 139752, Note_off_c, 7, 62, 64
6, 139776, Note_on_c, 7, 60, 89
6, 139848, Note_off_c, 7, 60, 64
6, 139968, Note_on_c, 7, 48, 89
6, 139968, Note_on_c, 7, 60, 89
6, 140040, Note_off_c, 7, 48, 64
6, 140040, Note_off_c, 7, 60, 64
6, 140064, Note_on_c, 7, 59, 89
6, 140064, Note_on_c, 7, 47, 89
6, 140136, Note_off_c, 7, 59, 64
6, 140136, Note_off_c, 7, 47, 64
6, 140160, Note_on_c, 7, 45, 89
6, 140160, Note_on_c, 7, 57, 89
6, 140232, Note_off_c, 7, 45, 64
6, 140232, Note_off_c, 7, 57, 64
6, 140352, Note_on_c, 7, 57, 89
6, 140352, Note_on_c, 7, 45, 89
6, 140424, Note_off_c, 7, 57, 64
6, 140424, Note_off_c, 7, 45, 64
6, 140448, Note_on_c, 7, 55, 89
6, 140448, Note_on_c, 7, 43, 89
6, 140520, Note_off_c, 7, 55, 64
6, 140520, Note_off_c, 7, 43, 64
6, 140544, Note_on_c, 7, 53, 89
6, 140544, Note_on_c, 7, 41, 89
6, 140616, Note_off_c, 7, 53, 64
6, 140616, Note_off_c, 7, 41, 64
6, 140736, Note_on_c, 7, 53, 89
6, 140736, Note_on_c, 7, 41, 89
6, 140808, Note_off_c, 7, 53, 64
6, 140808, Note_off_c, 7, 41, 64
6, 140832, Note_on_c, 7, 52, 89
6, 140832, Note_on_c, 7, 40, 89
6, 140904, Note_off_c, 7, 52, 64
6, 140904, Note_off_c, 7, 40, 64
6, 140928, Note_on_c, 7, 50, 89
6, 140928, Note_on_c, 7, 38, 89
6, 141000, Note_off_c, 7, 50, 64
6, 141000, Note_off_c, 7, 38, 64
6, 141024, Note_on_c, 7, 48, 89
6, 141096, Note_off_c, 7, 48, 64
6, 141120, Note_on_c, 7, 47, 89
6, 141192, Note_off_c, 7, 47, 64
6, 141216, Note_on_c, 7, 45, 89
6, 141288, Note_off_c, 7, 45, 64
6, 141312, Note_on_c, 7, 43, 89
6, 141384, Note_off_c, 7, 43, 64
6, 141408, Note_on_c, 7, 43, 89
6, 141480, Note_off_c, 7, 43, 64
6, 141504, Note_on_c, 7, 45, 89
6, 141576, Note_off_c, 7, 45, 64
6, 141600, Note_on_c, 7, 47, 89
6, 141672, Note_off_c, 7, 47, 64
6, 141696, Note_on_c, 7, 48, 89
6, 141768, Note_off_c, 7, 48, 64
6, 141792, Note_on_c, 7, 50, 89
6, 141864, Note_off_c, 7, 50, 64
6, 141888, Note_on_c, 7, 52, 89
6, 141960, Note_off_c, 7, 52, 64
6, 141984, Note_on_c, 7, 54, 89
6, 142056, Note_off_c, 7, 54, 64
6, 142080, Note_on_c, 7, 55, 89
6, 142152, Note_off_c, 7, 55, 64
6, 142176, Note_on_c, 7, 43, 89
6, 142212, Note_off_c, 7, 43, 64
6, 142224, Note_on_c, 7, 55, 89
6, 142260, Note_off_c, 7, 55, 64
6, 142272, Note_on_c, 7, 45, 89
6, 142308, Note_off_c, 7, 45, 64
6, 142320, Note_on_c, 7, 57, 89
6, 142356, Note_off_c, 7, 57, 64
6, 142368, Note_on_c, 7, 47, 89
6, 142404, Note_off_c, 7, 47, 64
6, 142416, Note_on_c, 7, 59, 89
6, 142452, Note_off_c, 7, 59, 64
6, 142464, Note_on_c, 7, 48, 89
6, 142500, Note_off_c, 7, 48, 64
6, 142512, Note_on_c, 7, 60, 89
6, 142548, Note_off_c, 7, 60, 64
6, 142560, Note_on_c, 7, 50, 89
6, 142596, Note_off_c, 7, 50, 64
6, 142608, Note_on_c, 7, 62, 89
6, 142644, Note_off_c, 7, 62, 64
6, 142656, Note_on_c, 7, 52, 89
6, 142692, Note_off_c, 7, 52, 64
6, 142704, Note_on_c, 7, 64, 89
6, 142740, Note_off_c, 7, 64, 64
6, 142752, Note_on_c, 7, 54, 89
6, 142788, Note_off_c, 7, 54, 64
6, 142800, Note_on_c, 7, 66, 89
6, 142836, Note_off_c, 7, 66, 64
6, 142848, Note_on_c, 7, 55, 89
6, 142848, Note_on_c, 7, 67, 89
6, 142884, Note_off_c, 7, 55, 64
6, 142884, Note_off_c, 7, 67, 64
6, 145152, Note_on_c, 7, 48, 67
6, 145188, Note_off_c, 7, 48, 64
6, 145200, Note_on_c, 7, 52, 67
6, 145236, Note_off_c, 7, 52, 64
6, 145248, Note_on_c, 7, 55, 67
6, 145284, Note_off_c, 7, 55, 64
6, 145296, Note_on_c, 7, 60, 67
6, 145332, Note_off_c, 7, 60, 64
6, 145536, Note_on_c, 7, 48, 67
6, 145572, Note_off_c, 7, 48, 64
6, 145584, Note_on_c, 7, 52, 67
6, 145620, Note_off_c, 7, 52, 64
6, 145632, Note_on_c, 7, 55, 67
6, 145668, Note_off_c, 7, 55, 64
6, 145680, Note_on_c, 7, 60, 67
6, 145716, Note_off_c, 7, 60, 64
6, 145920, Note_on_c, 7, 48, 67
6, 145956, Note_off_c, 7, 48, 64
6, 145968, Note_on_c, 7, 53, 67
6, 146004, Note_off_c, 7, 53, 64
6, 146016, Note_on_c, 7, 57, 67
6, 146052, Note_off_c, 7, 57, 64
6, 146064, Note_on_c, 7, 60, 67
6, 146100, Note_off_c, 7, 60, 64
6, 146304, Note_on_c, 7, 48, 67
6, 146340, Note_off_c, 7, 48, 64
6, 146352, Note_on_c, 7, 53, 67
6, 146388, Note_off_c, 7, 53, 64
6, 146400, Note_on_c, 7, 57, 67
6, 146436, Note_off_c, 7, 57, 64
6, 146448, Note_on_c, 7, 60, 67
6, 146484, Note_off_c, 7, 60, 64
6, 146688, Note_on_c, 7, 48, 67
6, 146724, Note_off_c, 7, 48, 64
6, 146880, Note_on_c, 7, 45, 67
6, 146916, Note_off_c, 7, 45, 64
6, 147072, Note_on_c, 7, 41, 67
6, 147108, Note_off_c, 7, 41, 64
6, 147264, Note_on_c, 7, 43, 67
6, 147300, Note_off_c, 7, 43, 64
6, 147456, Note_on_c, 7, 36, 67
6, 147492, Note_off_c, 7, 36, 64
6, 148224, Note_on_c, 7, 36, 67
6, 148260, Note_off_c, 7, 36, 64
6, 148272, Note_on_c, 7, 40, 67
6, 148308, Note_off_c, 7, 40, 64
6, 148320, Note_on_c, 7, 43, 67
6, 148356, Note_off_c, 7, 43, 64
6, 148368, Note_on_c, 7, 48, 67
6, 148404, Note_off_c, 7, 48, 64
6, 148608, Note_on_c, 7, 36, 67
6, 148644, Note_off_c, 7, 36, 64
6, 148656, Note_on_c, 7, 40, 67
6, 148692, Note_off_c, 7, 40, 64
6, 148704, Note_on_c, 7, 43, 67
6, 148740, Note_off_c, 7, 43, 64
6, 148752, Note_on_c, 7, 48, 67
6, 148788, Note_off_c, 7, 48, 64
6, 148992, Note_on_c, 7, 36, 67
6, 149028, Note_off_c, 7, 36, 64
6, 149040, Note_on_c, 7, 41, 67
6, 149076, Note_off_c, 7, 41, 64
6, 149088, Note_on_c, 7, 45, 67
6, 149124, Note_off_c, 7, 45, 64
6, 149136, Note_on_c, 7, 48, 67
6, 149172, Note_off_c, 7, 48, 64
6, 149376, Note_on_c, 7, 36, 67
6, 149412, Note_off_c, 7, 36, 64
6, 149424, Note_on_c, 7, 41, 67
6, 149460, Note_off_c, 7, 41, 64
6, 149472, Note_on_c, 7, 45, 67
6, 149508, Note_off_c, 7, 45, 64
6, 149520, Note_on_c, 7, 48, 67
6, 149556, Note_off_c, 7, 48, 64
6, 149760, Note_on_c, 7, 48, 67
6, 149796, Note_off_c, 7, 48, 64
6, 149952, Note_on_c, 7, 57, 67
6, 149988, Note_off_c, 7, 57, 64
6, 150144, Note_on_c, 7, 53, 67
6, 150180, Note_off_c, 7, 53, 64
6, 150336, Note_on_c, 7, 55, 67
6, 150372, Note_off_c, 7, 55, 64
6, 150528, Note_on_c, 7, 48, 67
6, 150564, Note_off_c, 7, 48, 64
6, 153600, Note_on_c, 7, 55, 87
6, 153600, Note_on_c, 7, 43, 87
6, 153636, Note_off_c, 7, 55, 64
6, 153636, Note_off_c, 7, 43, 64
6, 155136, Note_on_c, 7, 48, 87
6, 155136, Note_on_c, 7, 36, 87
6, 155172, Note_off_c, 7, 48, 64
6, 155172, Note_off_c, 7, 36, 64
6, 155184, Note_on_c, 7, 55, 87
6, 155220, Note_off_c, 7, 55, 64
6, 155232, Note_on_c, 7, 60, 87
6, 155268, Note_off_c, 7, 60, 64
6, 155280, Note_on_c, 7, 55, 87
6, 155316, Note_off_c, 7, 55, 64
6, 155568, Note_on_c, 7, 60, 87
6, 155604, Note_off_c, 7, 60, 64
6, 155616, Note_on_c, 7, 64, 87
6, 155652, Note_off_c, 7, 64, 64
6, 155664, Note_on_c, 7, 60, 87
6, 155700, Note_off_c, 7, 60, 64
6, 155712, Note_on_c, 7, 67, 87
6, 155748, Note_off_c, 7, 67, 64
6, 155760, Note_on_c, 7, 64, 87
6, 155796, Note_off_c, 7, 64, 64
6, 155808, Note_on_c, 7, 72, 87
6, 155844, Note_off_c, 7, 72, 64
6, 155856, Note_on_c, 7, 67, 87
6, 155892, Note_off_c, 7, 67, 64
6, 155952, Note_on_c, 7, 64, 87
6, 155988, Note_off_c, 7, 64, 64
6, 156000, Note_on_c, 7, 67, 87
6, 156036, Note_off_c, 7, 67, 64
6, 156048, Note_on_c, 7, 64, 87
6, 156084, Note_off_c, 7, 64, 64
6, 156096, Note_on_c, 7, 72, 87
6, 156132, Note_off_c, 7, 72, 64
6, 156144, Note_on_c, 7, 67, 87
6, 156180, Note_off_c, 7, 67, 64
6, 156192, Note_on_c, 7, 76, 87
6, 156228, Note_off_c, 7, 76, 64
6, 156240, Note_on_c, 7, 72, 87
6, 156276, Note_off_c, 7, 72, 64
6, 156336, Note_on_c, 7, 67, 87
6, 156372, Note_off_c, 7, 67, 64
6, 156384, Note_on_c, 7, 72, 87
6, 156420, Note_off_c, 7, 72, 64
6, 156432, Note_on_c, 7, 67, 87
6, 156468, Note_off_c, 7, 67, 64
6, 156480, Note_on_c, 7, 76, 87
6, 156516, Note_off_c, 7, 76, 64
6, 156528, Note_on_c, 7, 72, 87
6, 156564, Note_off_c, 7, 72, 64
6, 156576, Note_on_c, 7, 79, 87
6, 156612, Note_off_c, 7, 79, 64
6, 156624, Note_on_c, 7, 76, 87
6, 156660, Note_off_c, 7, 76, 64
6, 156672, Note_on_c, 7, 43, 87
6, 156672, Note_on_c, 7, 55, 87
6, 156708, Note_off_c, 7, 43, 64
6, 156708, Note_off_c, 7, 55, 64
6, 163584, Note_on_c, 7, 64, 87
6, 163620, Note_off_c, 7, 64, 64
6, 163632, Note_on_c, 7, 65, 87
6, 163668, Note_off_c, 7, 65, 64
6, 163680, Note_on_c, 7, 64, 87
6, 163716, Note_off_c, 7, 64, 64
6, 163728, Note_on_c, 7, 62, 87
6, 163764, Note_off_c, 7, 62, 64
6, 163776, Note_on_c, 7, 60, 87
6, 163812, Note_off_c, 7, 60, 64
6, 165120, Note_on_c, 7, 64, 87
6, 165156, Note_off_c, 7, 64, 64
6, 165168, Note_on_c, 7, 65, 87
6, 165204, Note_off_c, 7, 65, 64
6, 165216, Note_on_c, 7, 64, 87
6, 165252, Note_off_c, 7, 64, 64
6, 165264, Note_on_c, 7, 62, 87
6, 165300, Note_off_c, 7, 62, 64
6, 165312, Note_on_c, 7, 60, 87
6, 165348, Note_off_c, 7, 60, 64
6, 166656, Note_on_c, 7, 64, 87
6, 166692, Note_off_c, 7, 64, 64
6, 166704, Note_on_c, 7, 65, 87
6, 166740, Note_off_c, 7, 65, 64
6, 166752, Note_on_c, 7, 64, 87
6, 166788, Note_off_c, 7, 64, 64
6, 166800, Note_on_c, 7, 62, 87
6, 166836, Note_off_c, 7, 62, 64
6, 166848, Note_on_c, 7, 60, 87
6, 166884, Note_off_c, 7, 60, 64
6, 167424, Note_on_c, 7, 69, 87
6, 167460, Note_off_c, 7, 69, 64
6, 167472, Note_on_c, 7, 70, 87
6, 167508, Note_off_c, 7, 70, 64
6, 167520, Note_on_c, 7, 69, 87
6, 167556, Note_off_c, 7, 69, 64
6, 167568, Note_on_c, 7, 67, 87
6, 167604, Note_off_c, 7, 67, 64
6, 167616, Note_on_c, 7, 65, 87
6, 167652, Note_off_c, 7, 65, 64
6, 168192, Note_on_c, 7, 67, 87
6, 168228, Note_off_c, 7, 67, 64
6, 168240, Note_on_c, 7, 69, 87
6, 168276, Note_off_c, 7, 69, 64
6, 168288, Note_on_c, 7, 67, 87
6, 168324, Note_off_c, 7, 67, 64
6, 168336, Note_on_c, 7, 65, 87
6, 168372, Note_off_c, 7, 65, 64
6, 168384, Note_on_c, 7, 64, 87
6, 168420, Note_off_c, 7, 64, 64
6, 168960, Note_on_c, 7, 53, 87
6, 169032, Note_off_c, 7, 53, 64
6, 169056, Note_on_c, 7, 57, 87
6, 169128, Note_off_c, 7, 57, 64
6, 169152, Note_on_c, 7, 60, 87
6, 169224, Note_off_c, 7, 60, 64
6, 169248, Note_on_c, 7, 53, 87
6, 169320, Note_off_c, 7, 53, 64
6, 169344, Note_on_c, 7, 52, 87
6, 169416, Note_off_c, 7, 52, 64
6, 169440, Note_on_c, 7, 55, 87
6, 169512, Note_off_c, 7, 55, 64
6, 169536, Note_on_c, 7, 60, 87
6, 169608, Note_off_c, 7, 60, 64
6, 169632, Note_on_c, 7, 52, 87
6, 169704, Note_off_c, 7, 52, 64
6, 169728, Note_on_c, 7, 53, 87
6, 169800, Note_off_c, 7, 53, 64
6, 169824, Note_on_c, 7, 57, 87
6, 169896, Note_off_c, 7, 57, 64
6, 169920, Note_on_c, 7, 60, 87
6, 169992, Note_off_c, 7, 60, 64
6, 170016, Note_on_c, 7, 53, 87
6, 170088, Note_off_c, 7, 53, 64
6, 170112, Note_on_c, 7, 52, 87
6, 170184, Note_off_c, 7, 52, 64
6, 170208, Note_on_c, 7, 55, 87
6, 170280, Note_off_c, 7, 55, 64
6, 170304, Note_on_c, 7, 60, 87
6, 170376, Note_off_c, 7, 60, 64
6, 170400, Note_on_c, 7, 52, 87
6, 170472, Note_off_c, 7, 52, 64
6, 170496, Note_on_c, 7, 50, 87
6, 170568, Note_off_c, 7, 50, 64
6, 170592, Note_on_c, 7, 62, 87
6, 170628, Note_off_c, 7, 62, 64
6, 170640, Note_on_c, 7, 64, 87
6, 170676, Note_off_c, 7, 64, 64
6, 170688, Note_on_c, 7, 65, 87
6, 170724, Note_off_c, 7, 65, 64
6, 170736, Note_on_c, 7, 64, 87
6, 170772, Note_off_c, 7, 64, 64
6, 170784, Note_on_c, 7, 62, 87
6, 170820, Note_off_c, 7, 62, 64
6, 170832, Note_on_c, 7, 60, 87
6, 170868, Note_off_c, 7, 60, 64
6, 170880, Note_on_c, 7, 59, 87
6, 170916, Note_off_c, 7, 59, 64
6, 170928, Note_on_c, 7, 60, 87
6, 170964, Note_off_c, 7, 60, 64
6, 170976, Note_on_c, 7, 59, 87
6, 171012, Note_off_c, 7, 59, 64
6, 171024, Note_on_c, 7, 57, 87
6, 171060, Note_off_c, 7, 57, 64
6, 171072, Note_on_c, 7, 55, 87
6, 171108, Note_off_c, 7, 55, 64
6, 171120, Note_on_c, 7, 53, 87
6, 171156, Note_off_c, 7, 53, 64
6, 171168, Note_on_c, 7, 52, 87
6, 171204, Note_off_c, 7, 52, 64
6, 171216, Note_on_c, 7, 50, 87
6, 171252, Note_off_c, 7, 50, 64
6, 171264, Note_on_c, 7, 48, 87
6, 171300, Note_off_c, 7, 48, 64
6, 171360, Note_on_c, 7, 60, 87
6, 171396, Note_off_c, 7, 60, 64
6, 171408, Note_on_c, 7, 62, 87
6, 171444, Note_off_c, 7, 62, 64
6, 171456, Note_on_c, 7, 64, 87
6, 171492, Note_off_c, 7, 64, 64
6, 171504, Note_on_c, 7, 62, 87
6, 171540, Note_off_c, 7, 62, 64
6, 171552, Note_on_c, 7, 60, 87
6, 171588, Note_off_c, 7, 60, 64
6, 171600, Note_on_c, 7, 59, 87
6, 171636, Note_off_c, 7, 59, 64
6, 171648, Note_on_c, 7, 57, 87
6, 171684, Note_off_c, 7, 57, 64
6, 171696, Note_on_c, 7, 59, 87
6, 171732, Note_off_c, 7, 59, 64
6, 171744, Note_on_c, 7, 57, 87
6, 171780, Note_off_c, 7, 57, 64
6, 171792, Note_on_c, 7, 55, 87
6, 171828, Note_off_c, 7, 55, 64
6, 171840, Note_on_c, 7, 53, 87
6, 171876, Note_off_c, 7, 53, 64
6, 171888, Note_on_c, 7, 52, 87
6, 171924, Note_off_c, 7, 52, 64
6, 171936, Note_on_c, 7, 50, 87
6, 171972, Note_off_c, 7, 50, 64
6, 171984, Note_on_c, 7, 48, 87
6, 172020, Note_off_c, 7, 48, 64
6, 172032, Note_on_c, 7, 53, 87
6, 172104, Note_off_c, 7, 53, 64
6, 172128, Note_on_c, 7, 65, 87
6, 172200, Note_off_c, 7, 65, 64
6, 172224, Note_on_c, 7, 53, 87
6, 172296, Note_off_c, 7, 53, 64
6, 172320, Note_on_c, 7, 65, 87
6, 172392, Note_off_c, 7, 65, 64
6, 172416, Note_on_c, 7, 55, 87
6, 172488, Note_off_c, 7, 55, 64
6, 172512, Note_on_c, 7, 67, 87
6, 172584, Note_off_c, 7, 67, 64
6, 172608, Note_on_c, 7, 55, 87
6, 172680, Note_off_c, 7, 55, 64
6, 172704, Note_on_c, 7, 67, 87
6, 172776, Note_off_c, 7, 67, 64
6, 172800, Note_on_c, 7, 48, 87
6, 172800, Note_on_c, 7, 60, 87
6, 172872, Note_off_c, 7, 48, 64
6, 172872, Note_off_c, 7, 60, 64
6, 172896, Note_on_c, 7, 50, 87
6, 172896, Note_on_c, 7, 62, 87
6, 172968, Note_off_c, 7, 50, 64
6, 172968, Note_off_c, 7, 62, 64
6, 172992, Note_on_c, 7, 52, 87
6, 172992, Note_on_c, 7, 64, 87
6, 173064, Note_off_c, 7, 52, 64
6, 173064, Note_off_c, 7, 64, 64
6, 173088, Note_on_c, 7, 53, 87
6, 173088, Note_on_c, 7, 65, 87
6, 173160, Note_off_c, 7, 53, 64
6, 173160, Note_off_c, 7, 65, 64
6, 173184, Note_on_c, 7, 55, 87
6, 173184, Note_on_c, 7, 67, 87
6, 173256, Note_off_c, 7, 55, 64
6, 173256, Note_off_c, 7, 67, 64
6, 173760, Note_on_c, 7, 62, 67
6, 173796, Note_off_c, 7, 62, 64
6, 173808, Note_on_c, 7, 60, 67
6, 173844, Note_off_c, 7, 60, 64
6, 173856, Note_on_c, 7, 59, 67
6, 173892, Note_off_c, 7, 59, 64
6, 173904, Note_on_c, 7, 57, 67
6, 173940, Note_off_c, 7, 57, 64
6, 173952, Note_on_c, 7, 55, 67
6, 173988, Note_off_c, 7, 55, 64
6, 174144, Note_on_c, 7, 67, 67
6, 174180, Note_off_c, 7, 67, 64
6, 174192, Note_on_c, 7, 65, 67
6, 174228, Note_off_c, 7, 65, 64
6, 174240, Note_on_c, 7, 64, 67
6, 174276, Note_off_c, 7, 64, 64
6, 174288, Note_on_c, 7, 62, 67
6, 174324, Note_off_c, 7, 62, 64
6, 174336, Note_on_c, 7, 60, 67
6, 174372, Note_off_c, 7, 60, 64
6, 174528, Note_on_c, 7, 55, 67
6, 174564, Note_off_c, 7, 55, 64
6, 174576, Note_on_c, 7, 53, 67
6, 174612, Note_off_c, 7, 53, 64
6, 174624, Note_on_c, 7, 52, 67
6, 174660, Note_off_c, 7, 52, 64
6, 174672, Note_on_c, 7, 50, 67
6, 174708, Note_off_c, 7, 50, 64
6, 174720, Note_on_c, 7, 48, 67
6, 174756, Note_off_c, 7, 48, 64
6, 174912, Note_on_c, 7, 60, 67
6, 174948, Note_off_c, 7, 60, 64
6, 174960, Note_on_c, 7, 59, 67
6, 174996, Note_off_c, 7, 59, 64
6, 175008, Note_on_c, 7, 57, 67
6, 175044, Note_off_c, 7, 57, 64
6, 175056, Note_on_c, 7, 55, 67
6, 175092, Note_off_c, 7, 55, 64
6, 175104, Note_on_c, 7, 53, 67
6, 175140, Note_off_c, 7, 53, 64
6, 175152, Note_on_c, 7, 57, 67
6, 175188, Note_off_c, 7, 57, 64
6, 175200, Note_on_c, 7, 62, 67
6, 175236, Note_off_c, 7, 62, 64
6, 175248, Note_on_c, 7, 65, 67
6, 175284, Note_off_c, 7, 65, 64
6, 175488, Note_on_c, 7, 64, 67
6, 175524, Note_off_c, 7, 64, 64
6, 175680, Note_on_c, 7, 55, 67
6, 175716, Note_off_c, 7, 55, 64
6, 175872, Note_on_c, 7, 60, 67
6, 175908, Note_off_c, 7, 60, 64
6, 178944, Note_on_c, 7, 60, 67
6, 178980, Note_off_c, 7, 60, 64
6, 178992, Note_on_c, 7, 55, 67
6, 179028, Note_off_c, 7, 55, 64
6, 179040, Note_on_c, 7, 57, 67
6, 179076, Note_off_c, 7, 57, 64
6, 179088, Note_on_c, 7, 59, 67
6, 179124, Note_off_c, 7, 59, 64
6, 179136, Note_on_c, 7, 60, 67
6, 179172, Note_off_c, 7, 60, 64
6, 179184, Note_on_c, 7, 62, 67
6, 179220, Note_off_c, 7, 62, 64
6, 179232, Note_on_c, 7, 64, 67
6, 179268, Note_off_c, 7, 64, 64
6, 179280, Note_on_c, 7, 62, 67
6, 179316, Note_off_c, 7, 62, 64
6, 179328, Note_on_c, 7, 60, 67
6, 179400, Note_off_c, 7, 60, 64
6, 179424, Note_on_c, 7, 55, 67
6, 179496, Note_off_c, 7, 55, 64
6, 179520, Note_on_c, 7, 62, 67
6, 179592, Note_off_c, 7, 62, 64
6, 179616, Note_on_c, 7, 55, 67
6, 179688, Note_off_c, 7, 55, 64
6, 179712, Note_on_c, 7, 64, 67
6, 179784, Note_off_c, 7, 64, 64
6, 179808, Note_on_c, 7, 55, 67
6, 179880, Note_off_c, 7, 55, 64
6, 179904, Note_on_c, 7, 64, 67
6, 179976, Note_off_c, 7, 64, 64
6, 180000, Note_on_c, 7, 55, 67
6, 180072, Note_off_c, 7, 55, 64
6, 180096, Note_on_c, 7, 60, 67
6, 180168, Note_off_c, 7, 60, 64
6, 180192, Note_on_c, 7, 55, 67
6, 180264, Note_off_c, 7, 55, 64
6, 180288, Note_on_c, 7, 62, 67
6, 180360, Note_off_c, 7, 62, 64
6, 180384, Note_on_c, 7, 55, 67
6, 180456, Note_off_c, 7, 55, 64
6, 180480, Note_on_c, 7, 64, 67
6, 180552, Note_off_c, 7, 64, 64
6, 180576, Note_on_c, 7, 55, 67
6, 180648, Note_off_c, 7, 55, 64
6, 180672, Note_on_c, 7, 64, 67
6, 180744, Note_off_c, 7, 64, 64
6, 180768, Note_on_c, 7, 55, 67
6, 180840, Note_off_c, 7, 55, 64
6, 180864, Note_on_c, 7, 60, 67
6, 180936, Note_off_c, 7, 60, 64
6, 180960, Note_on_c, 7, 55, 67
6, 181032, Note_off_c, 7, 55, 64
6, 181056, Note_on_c, 7, 62, 67
6, 181128, Note_off_c, 7, 62, 64
6, 181152, Note_on_c, 7, 55, 67
6, 181224, Note_off_c, 7, 55, 64
6, 181248, Note_on_c, 7, 64, 67
6, 181320, Note_off_c, 7, 64, 64
6, 181344, Note_on_c, 7, 55, 67
6, 181416, Note_off_c, 7, 55, 64
6, 181440, Note_on_c, 7, 62, 67
6, 181512, Note_off_c, 7, 62, 64
6, 181536, Note_on_c, 7, 55, 67
6, 181608, Note_off_c, 7, 55, 64
6, 181632, Note_on_c, 7, 60, 67
6, 181704, Note_off_c, 7, 60, 64
6, 181728, Note_on_c, 7, 55, 67
6, 181800, Note_off_c, 7, 55, 64
6, 181824, Note_on_c, 7, 59, 67
6, 181896, Note_off_c, 7, 59, 64
6, 181920, Note_on_c, 7, 55, 67
6, 181992, Note_off_c, 7, 55, 64
6, 182016, Note_on_c, 7, 52, 67
6, 182052, Note_off_c, 7, 52, 64
6, 182064, Note_on_c, 7, 55, 67
6, 182100, Note_off_c, 7, 55, 64
6, 182112, Note_on_c, 7, 60, 67
6, 182148, Note_off_c, 7, 60, 64
6, 182160, Note_on_c, 7, 64, 67
6, 182196, Note_off_c, 7, 64, 64
6, 182400, Note_on_c, 7, 53, 67
6, 182436, Note_off_c, 7, 53, 64
6, 182448, Note_on_c, 7, 57, 67
6, 182484, Note_off_c, 7, 57, 64
6, 182496, Note_on_c, 7, 62, 67
6, 182532, Note_off_c, 7, 62, 64
6, 182544, Note_on_c, 7, 65, 67
6, 182580, Note_off_c, 7, 65, 64
6, 182784, Note_on_c, 7, 43, 67
6, 182856, Note_off_c, 7, 43, 64
6, 182976, Note_on_c, 7, 55, 67
6, 182976, Note_on_c, 7, 64, 67
6, 183048, Note_off_c, 7, 55, 64
6, 183048, Note_off_c, 7, 64, 64
6, 183168, Note_on_c, 7, 65, 67
6, 183168, Note_on_c, 7, 55, 67
6, 183240, Note_off_c, 7, 65, 64
6, 183240, Note_off_c, 7, 55, 64
6, 183360, Note_on_c, 7, 55, 67
6, 183360, Note_on_c, 7, 62, 67
6, 183432, Note_off_c, 7, 55, 64
6, 183432, Note_off_c, 7, 62, 64
6, 183552, Note_on_c, 7, 52, 64
6, 183573, Note_on_c, 7, 55, 99
6, 183589, Note_on_c, 7, 60, 66
6, 183619, Note_on_c, 7, 64, 76
6, 183633, Note_off_c, 7, 55, 91
6, 183650, Note_off_c, 7, 60, 52
6, 183655, Note_off_c, 7, 52, 63
6, 183690, Note_off_c, 7, 64, 84
6, 183910, Note_on_c, 7, 53, 64
6, 183928, Note_on_c, 7, 57, 68
6, 183950, Note_on_c, 7, 60, 68
6, 183969, Note_on_c, 7, 65, 99
6, 183988, Note_off_c, 7, 60, 68
6, 183991, Note_off_c, 7, 57, 94
6, 184005, Note_off_c, 7, 53, 99
6, 184010, Channel_aftertouch_c, 7, 7
6, 184023, Channel_aftertouch_c, 7, 0
6, 184038, Note_off_c, 7, 65, 75
6, 184320, Note_on_c, 7, 43, 90
6, 184356, Note_off_c, 7, 43, 64
6, 184368, Note_on_c, 7, 48, 90
6, 184404, Note_off_c, 7, 48, 64
6, 184416, Note_on_c, 7, 52, 90
6, 184452, Note_off_c, 7, 52, 64
6, 184464, Note_on_c, 7, 55, 90
6, 184500, Note_off_c, 7, 55, 64
6, 184704, Note_on_c, 7, 55, 90
6, 184740, Note_off_c, 7, 55, 64
6, 184752, Note_on_c, 7, 60, 90
6, 184788, Note_off_c, 7, 60, 64
6, 185376, Note_on_c, 7, 65, 90
6, 185412, Note_off_c, 7, 65, 64
6, 185424, Note_on_c, 7, 62, 90
6, 185460, Note_off_c, 7, 62, 64
6, 185472, Note_on_c, 7, 59, 90
6, 185508, Note_off_c, 7, 59, 64
6, 185520, Note_on_c, 7, 55, 90
6, 185556, Note_off_c, 7, 55, 64
6, 185664, Note_on_c, 7, 53, 90
6, 185700, Note_off_c, 7, 53, 64
6, 185712, Note_on_c, 7, 50, 90
6, 185748, Note_off_c, 7, 50, 64
6, 185760, Note_on_c, 7, 47, 90
6, 185796, Note_off_c, 7, 47, 64
6, 185808, Note_on_c, 7, 43, 90
6, 185844, Note_off_c, 7, 43, 64
6, 185856, Note_on_c, 7, 48, 90
6, 185856, Note_on_c, 7, 36, 90
6, 185892, Note_off_c, 7, 48, 64
6, 185892, Note_off_c, 7, 36, 64
6, 203520, Note_on_c, 7, 64, 40
6, 203520, Note_on_c, 7, 60, 40
6, 203556, Note_off_c, 7, 64, 64
6, 203556, Note_off_c, 7, 60, 64
6, 203568, Note_on_c, 7, 67, 40
6, 203604, Note_off_c, 7, 67, 64
6, 203616, Note_on_c, 7, 60, 40
6, 203616, Note_on_c, 7, 64, 40
6, 203652, Note_off_c, 7, 60, 64
6, 203652, Note_off_c, 7, 64, 64
6, 203664, Note_on_c, 7, 67, 40
6, 203700, Note_off_c, 7, 67, 64
6, 203712, Note_on_c, 7, 60, 40
6, 203712, Note_on_c, 7, 64, 40
6, 203748, Note_off_c, 7, 60, 64
6, 203748, Note_off_c, 7, 64, 64
6, 203760, Note_on_c, 7, 67, 40
6, 203796, Note_off_c, 7, 67, 64
6, 203808, Note_on_c, 7, 60, 40
6, 203808, Note_on_c, 7, 64, 40
6, 203844, Note_off_c, 7, 60, 64
6, 203844, Note_off_c, 7, 64, 64
6, 203856, Note_on_c, 7, 67, 40
6, 203892, Note_off_c, 7, 67, 64
6, 203904, Note_on_c, 7, 60, 40
6, 203904, Note_on_c, 7, 64, 40
6, 203940, Note_off_c, 7, 60, 64
6, 203940, Note_off_c, 7, 64, 64
6, 203952, Note_on_c, 7, 67, 40
6, 203988, Note_off_c, 7, 67, 64
6, 204000, Note_on_c, 7, 60, 40
6, 204000, Note_on_c, 7, 64, 40
6, 204036, Note_off_c, 7, 60, 64
6, 204036, Note_off_c, 7, 64, 64
6, 204048, Note_on_c, 7, 67, 40
6, 204084, Note_off_c, 7, 67, 64
6, 204096, Note_on_c, 7, 60, 40
6, 204096, Note_on_c, 7, 64, 40
6, 204132, Note_off_c, 7, 60, 64
6, 204132, Note_off_c, 7, 64, 64
6, 204144, Note_on_c, 7, 67, 40
6, 204180, Note_off_c, 7, 67, 64
6, 204192, Note_on_c, 7, 64, 40
6, 204192, Note_on_c, 7, 60, 40
6, 204228, Note_off_c, 7, 64, 64
6, 204228, Note_off_c, 7, 60, 64
6, 204240, Note_on_c, 7, 67, 40
6, 204276, Note_off_c, 7, 67, 64
6, 204288, Note_on_c, 7, 60, 40
6, 204288, Note_on_c, 7, 64, 40
6, 204324, Note_off_c, 7, 60, 64
6, 204324, Note_off_c, 7, 64, 64
6, 204336, Note_on_c, 7, 67, 40
6, 204372, Note_off_c, 7, 67, 64
6, 204384, Note_on_c, 7, 60, 40
6, 204384, Note_on_c, 7, 64, 40
6, 204420, Note_off_c, 7, 60, 64
6, 204420, Note_off_c, 7, 64, 64
6, 204432, Note_on_c, 7, 67, 40
6, 204468, Note_off_c, 7, 67, 64
6, 204480, Note_on_c, 7, 60, 40
6, 204480, Note_on_c, 7, 64, 40
6, 204516, Note_off_c, 7, 60, 64
6, 204516, Note_off_c, 7, 64, 64
6, 204528, Note_on_c, 7, 67, 40
6, 204564, Note_off_c, 7, 67, 64
6, 204576, Note_on_c, 7, 64, 40
6, 204576, Note_on_c, 7, 60, 40
6, 204612, Note_off_c, 7, 64, 64
6, 204612, Note_off_c, 7, 60, 64
6, 204624, Note_on_c, 7, 67, 40
6, 204660, Note_off_c, 7, 67, 64
6, 204672, Note_on_c, 7, 60, 40
6, 204672, Note_on_c, 7, 64, 40
6, 204708, Note_off_c, 7, 60, 64
6, 204708, Note_off_c, 7, 64, 64
6, 204720, Note_on_c, 7, 67, 40
6, 204756, Note_off_c, 7, 67, 64
6, 204768, Note_on_c, 7, 60, 40
6, 204768, Note_on_c, 7, 64, 40
6, 204804, Note_off_c, 7, 60, 64
6, 204804, Note_off_c, 7, 64, 64
6, 204816, Note_on_c, 7, 67, 40
6, 204852, Note_off_c, 7, 67, 64
6, 204864, Note_on_c, 7, 60, 40
6, 204864, Note_on_c, 7, 64, 40
6, 204900, Note_off_c, 7, 60, 64
6, 204900, Note_off_c, 7, 64, 64
6, 204912, Note_on_c, 7, 67, 40
6, 204948, Note_off_c, 7, 67, 64
6, 204960, Note_on_c, 7, 60, 40
6, 204960, Note_on_c, 7, 64, 40
6, 204996, Note_off_c, 7, 60, 64
6, 204996, Note_off_c, 7, 64, 64
6, 205008, Note_on_c, 7, 67, 40
6, 205044, Note_off_c, 7, 67, 64
6, 205056, Note_on_c, 7, 64, 40
6, 205056, Note_on_c, 7, 60, 40
6, 205200, Note_off_c, 7, 64, 64
6, 205200, Note_off_c, 7, 60, 64
6, 205248, Note_on_c, 7, 48, 40
6, 205248, Note_on_c, 7, 60, 40
6, 205392, Note_off_c, 7, 48, 64
6, 205392, Note_off_c, 7, 60, 64
6, 205440, Note_on_c, 7, 43, 40
6, 205440, Note_on_c, 7, 55, 40
6, 205584, Note_off_c, 7, 43, 64
6, 205584, Note_off_c, 7, 55, 64
6, 205632, Note_on_c, 7, 52, 40
6, 205632, Note_on_c, 7, 40, 40
6, 205776, Note_off_c, 7, 52, 64
6, 205776, Note_off_c, 7, 40, 64
6, 205824, Note_on_c, 7, 48, 40
6, 205824, Note_on_c, 7, 36, 40
6, 205968, Note_off_c, 7, 48, 64
6, 205968, Note_off_c, 7, 36, 64
6, 205968, End_track
7, 0, Start_track
7, 0, MIDI_port, 0
7, 0, Title_t, "Violin 1            "
7, 0, Program_c, 10, 48
7, 0, Control_c, 10, 10, 84
7, 0, Note_on_c, 10, 84, 73
7, 0, Program_c, 10, 48
7, 240, Note_off_c, 10, 84, 14
7, 288, Note_on_c, 10, 79, 95
7, 336, Note_off_c, 10, 79, 64
7, 384, Note_on_c, 10, 76, 85
7, 432, Note_off_c, 10, 76, 62
7, 480, Note_on_c, 10, 72, 87
7, 528, Note_off_c, 10, 72, 49
7, 576, Note_on_c, 10, 76, 91
7, 624, Note_off_c, 10, 76, 25
7, 672, Note_on_c, 10, 79, 95
7, 720, Note_off_c, 10, 79, 55
7, 768, Note_on_c, 10, 84, 91
7, 984, Note_off_c, 10, 84, 24
7, 1056, Note_on_c, 10, 79, 95
7, 1104, Note_off_c, 10, 79, 56
7, 1152, Note_on_c, 10, 76, 91
7, 1200, Note_off_c, 10, 76, 48
7, 1248, Note_on_c, 10, 72, 79
7, 1296, Note_off_c, 10, 72, 33
7, 1344, Note_on_c, 10, 76, 93
7, 1416, Note_off_c, 10, 76, 51
7, 1440, Note_on_c, 10, 79, 73
7, 1488, Note_off_c, 10, 79, 46
7, 1536, Note_on_c, 10, 84, 81
7, 1656, Note_off_c, 10, 84, 53
7, 1824, Note_on_c, 10, 60, 75
7, 1872, Note_off_c, 10, 60, 43
7, 2016, Note_on_c, 10, 59, 83
7, 2064, Note_off_c, 10, 59, 63
7, 2208, Note_on_c, 10, 60, 89
7, 2256, Note_off_c, 10, 60, 56
7, 2304, Note_on_c, 10, 62, 119
7, 2352, Note_off_c, 10, 62, 90
7, 2400, Note_on_c, 10, 62, 119
7, 2437, Note_off_c, 10, 62, 52
7, 2592, Note_on_c, 10, 62, 85
7, 2640, Note_off_c, 10, 62, 74
7, 2784, Note_on_c, 10, 61, 77
7, 2832, Note_off_c, 10, 61, 70
7, 2976, Note_on_c, 10, 62, 93
7, 3024, Note_off_c, 10, 62, 76
7, 3072, Note_on_c, 10, 64, 81
7, 3120, Note_off_c, 10, 64, 78
7, 3168, Note_on_c, 10, 64, 119
7, 3216, Note_off_c, 10, 64, 70
7, 3360, Note_on_c, 10, 64, 95
7, 3408, Note_off_c, 10, 64, 64
7, 3552, Note_on_c, 10, 63, 73
7, 3600, Note_off_c, 10, 63, 64
7, 3744, Note_on_c, 10, 64, 85
7, 3792, Note_off_c, 10, 64, 67
7, 3936, Note_on_c, 10, 65, 119
7, 3984, Note_off_c, 10, 65, 84
7, 4128, Note_on_c, 10, 67, 107
7, 4176, Note_off_c, 10, 67, 76
7, 4320, Note_on_c, 10, 69, 107
7, 4368, Note_off_c, 10, 69, 70
7, 4512, Note_on_c, 10, 71, 87
7, 4560, Note_off_c, 10, 71, 65
7, 4608, Note_on_c, 10, 72, 93
7, 4768, Note_off_c, 10, 72, 1
7, 4800, Note_on_c, 10, 84, 101
7, 4840, Note_off_c, 10, 84, 48
7, 4992, Note_on_c, 10, 83, 111
7, 5017, Note_off_c, 10, 83, 29
7, 5184, Note_on_c, 10, 81, 107
7, 5209, Note_off_c, 10, 81, 78
7, 5376, Note_on_c, 10, 79, 89
7, 5664, Note_on_c, 10, 77, 87
7, 5674, Note_off_c, 10, 79, 88
7, 5756, Note_off_c, 10, 77, 32
7, 5760, Note_on_c, 10, 76, 91
7, 5887, Note_off_c, 10, 76, 43
7, 6336, Note_on_c, 10, 81, 71
7, 6384, Note_off_c, 10, 81, 67
7, 6528, Note_on_c, 10, 79, 75
7, 6576, Note_off_c, 10, 79, 75
7, 6720, Note_on_c, 10, 77, 76
7, 6768, Note_off_c, 10, 77, 50
7, 6912, Note_on_c, 10, 76, 77
7, 7200, Note_on_c, 10, 74, 79
7, 7212, Note_off_c, 10, 76, 56
7, 7296, Note_on_c, 10, 72, 77
7, 7304, Note_off_c, 10, 74, 85
7, 7488, Note_off_c, 10, 72, 1
7, 7680, Note_on_c, 10, 74, 79
7, 7680, Note_on_c, 10, 77, 87
7, 7824, Note_off_c, 10, 74, 36
7, 7824, Note_off_c, 10, 77, 11
7, 7872, Note_on_c, 10, 86, 113
7, 7872, Note_on_c, 10, 77, 105
7, 8225, Note_off_c, 10, 86, 13
7, 8232, Note_off_c, 10, 77, 53
7, 8256, Note_on_c, 10, 74, 81
7, 8256, Note_on_c, 10, 77, 93
7, 8400, Note_off_c, 10, 74, 40
7, 8400, Note_off_c, 10, 77, 40
7, 8448, Note_on_c, 10, 72, 73
7, 8448, Note_on_c, 10, 76, 77
7, 8592, Note_off_c, 10, 76, 1
7, 8613, Note_off_c, 10, 72, 30
7, 8640, Note_on_c, 10, 84, 103
7, 8640, Note_on_c, 10, 76, 99
7, 8928, Note_off_c, 10, 84, 26
7, 8952, Note_off_c, 10, 76, 27
7, 9024, Note_on_c, 10, 76, 85
7, 9024, Note_on_c, 10, 72, 67
7, 9168, Note_off_c, 10, 76, 48
7, 9168, Note_off_c, 10, 72, 21
7, 9216, Note_on_c, 10, 74, 73
7, 9408, Note_off_c, 10, 74, 4
7, 9408, Note_on_c, 10, 79, 91
7, 9456, Note_off_c, 10, 79, 42
7, 9456, Note_on_c, 10, 77, 84
7, 9504, Note_on_c, 10, 76, 75
7, 9515, Note_off_c, 10, 77, 42
7, 9552, Note_off_c, 10, 76, 59
7, 9552, Note_on_c, 10, 74, 87
7, 9600, Note_on_c, 10, 72, 77
7, 9613, Note_off_c, 10, 74, 75
7, 9744, Note_off_c, 10, 72, 1
7, 9792, Note_on_c, 10, 71, 85
7, 9912, Note_off_c, 10, 71, 37
7, 9984, Note_on_c, 10, 72, 79
7, 10008, Note_off_c, 10, 72, 54
7, 10032, Note_on_c, 10, 76, 79
7, 10056, Note_off_c, 10, 76, 51
7, 10080, Note_on_c, 10, 74, 79
7, 10104, Note_off_c, 10, 74, 40
7, 10128, Note_on_c, 10, 77, 79
7, 10152, Note_off_c, 10, 77, 57
7, 10176, Note_on_c, 10, 76, 79
7, 10200, Note_off_c, 10, 76, 44
7, 10224, Note_on_c, 10, 79, 79
7, 10248, Note_off_c, 10, 79, 48
7, 10272, Note_on_c, 10, 77, 79
7, 10296, Note_off_c, 10, 77, 23
7, 10320, Note_on_c, 10, 81, 79
7, 10355, Note_off_c, 10, 81, 45
7, 10368, Note_on_c, 10, 79, 79
7, 10416, Note_off_c, 10, 79, 82
7, 10464, Note_on_c, 10, 81, 79
7, 10512, Note_off_c, 10, 81, 72
7, 10560, Note_on_c, 10, 83, 79
7, 10608, Note_off_c, 10, 83, 13
7, 10656, Note_on_c, 10, 84, 79
7, 10704, Note_off_c, 10, 84, 45
7, 10752, Note_on_c, 10, 74, 35
7, 10752, Note_on_c, 10, 77, 63
7, 10920, Note_off_c, 10, 74, 17
7, 10920, Note_off_c, 10, 77, 21
7, 10944, Note_on_c, 10, 77, 101
7, 10944, Note_on_c, 10, 86, 103
7, 11256, Note_off_c, 10, 77, 26
7, 11280, Note_off_c, 10, 86, 2
7, 11328, Note_on_c, 10, 77, 81
7, 11328, Note_on_c, 10, 74, 89
7, 11472, Note_off_c, 10, 77, 76
7, 11472, Note_off_c, 10, 74, 75
7, 11520, Note_on_c, 10, 76, 93
7, 11520, Note_on_c, 10, 72, 65
7, 11664, Note_off_c, 10, 76, 38
7, 11664, Note_off_c, 10, 72, 25
7, 11712, Note_on_c, 10, 76, 99
7, 11712, Note_on_c, 10, 84, 105
7, 12024, Note_off_c, 10, 76, 43
7, 12048, Note_off_c, 10, 84, 29
7, 12096, Note_on_c, 10, 76, 83
7, 12096, Note_on_c, 10, 72, 55
7, 12240, Note_off_c, 10, 76, 52
7, 12240, Note_off_c, 10, 72, 42
7, 12288, Note_on_c, 10, 74, 87
7, 12336, Note_off_c, 10, 74, 30
7, 12336, Note_on_c, 10, 77, 91
7, 12384, Note_off_c, 10, 77, 49
7, 12384, Note_on_c, 10, 76, 87
7, 12432, Note_off_c, 10, 76, 28
7, 12432, Note_on_c, 10, 79, 85
7, 12480, Note_off_c, 10, 79, 9
7, 12480, Note_on_c, 10, 77, 85
7, 12528, Note_off_c, 10, 77, 36
7, 12528, Note_on_c, 10, 81, 75
7, 12576, Note_off_c, 10, 81, 34
7, 12576, Note_on_c, 10, 79, 91
7, 12624, Note_off_c, 10, 79, 55
7, 12624, Note_on_c, 10, 82, 92
7, 12672, Note_off_c, 10, 82, 52
7, 12672, Note_on_c, 10, 81, 101
7, 12696, Note_off_c, 10, 81, 73
7, 12720, Note_on_c, 10, 79, 79
7, 12744, Note_off_c, 10, 79, 77
7, 12768, Note_on_c, 10, 77, 83
7, 12792, Note_off_c, 10, 77, 1
7, 12816, Note_on_c, 10, 76, 101
7, 12840, Note_off_c, 10, 76, 38
7, 12864, Note_on_c, 10, 74, 81
7, 12888, Note_off_c, 10, 74, 72
7, 12912, Note_on_c, 10, 72, 75
7, 12936, Note_off_c, 10, 72, 28
7, 12960, Note_on_c, 10, 71, 75
7, 12984, Note_off_c, 10, 71, 54
7, 13008, Note_on_c, 10, 72, 75
7, 13037, Note_off_c, 10, 72, 57
7, 13056, Note_on_c, 10, 79, 89
7, 13056, Note_on_c, 10, 67, 89
7, 13200, Note_off_c, 10, 79, 82
7, 13200, Note_off_c, 10, 67, 50
7, 13344, Note_on_c, 10, 74, 89
7, 13344, Note_on_c, 10, 83, 89
7, 13392, Note_off_c, 10, 74, 75
7, 13392, Note_off_c, 10, 83, 24
7, 13440, Note_on_c, 10, 84, 89
7, 13440, Note_on_c, 10, 76, 89
7, 13488, Note_off_c, 10, 84, 38
7, 13488, Note_off_c, 10, 76, 81
7, 13536, Note_on_c, 10, 84, 89
7, 13536, Note_on_c, 10, 76, 89
7, 13584, Note_off_c, 10, 84, 37
7, 13584, Note_off_c, 10, 76, 65
7, 13632, Note_on_c, 10, 84, 89
7, 13632, Note_on_c, 10, 76, 89
7, 13680, Note_off_c, 10, 84, 50
7, 13680, Note_off_c, 10, 76, 71
7, 13728, Note_on_c, 10, 84, 89
7, 13728, Note_on_c, 10, 76, 89
7, 13776, Note_off_c, 10, 84, 32
7, 13776, Note_off_c, 10, 76, 20
7, 13824, Note_on_c, 10, 74, 89
7, 13824, Note_on_c, 10, 83, 89
7, 13998, Note_off_c, 10, 83, 34
7, 14011, Note_off_c, 10, 74, 58
7, 14112, Note_on_c, 10, 74, 89
7, 14112, Note_on_c, 10, 83, 89
7, 14160, Note_off_c, 10, 74, 90
7, 14160, Note_off_c, 10, 83, 64
7, 14208, Note_on_c, 10, 76, 89
7, 14208, Note_on_c, 10, 84, 89
7, 14256, Note_off_c, 10, 76, 54
7, 14256, Note_off_c, 10, 84, 28
7, 14304, Note_on_c, 10, 84, 89
7, 14304, Note_on_c, 10, 76, 89
7, 14352, Note_off_c, 10, 84, 29
7, 14352, Note_off_c, 10, 76, 31
7, 14400, Note_on_c, 10, 84, 89
7, 14400, Note_on_c, 10, 76, 89
7, 14448, Note_off_c, 10, 84, 19
7, 14448, Note_off_c, 10, 76, 33
7, 14496, Note_on_c, 10, 84, 89
7, 14496, Note_on_c, 10, 76, 89
7, 14544, Note_off_c, 10, 84, 20
7, 14544, Note_off_c, 10, 76, 41
7, 14592, Note_on_c, 10, 74, 89
7, 14592, Note_on_c, 10, 83, 89
7, 14736, Note_off_c, 10, 74, 87
7, 14736, Note_off_c, 10, 83, 72
7, 14784, Note_on_c, 10, 79, 89
7, 14784, Note_on_c, 10, 74, 89
7, 14784, Note_on_c, 10, 67, 89
7, 14904, Note_off_c, 10, 67, 72
7, 14952, Note_off_c, 10, 79, 79
7, 14952, Note_off_c, 10, 74, 86
7, 14976, Note_on_c, 10, 67, 89
7, 14976, Note_on_c, 10, 55, 89
7, 15144, Note_off_c, 10, 55, 67
7, 15157, Note_off_c, 10, 67, 32
7, 15360, Note_on_c, 10, 64, 69
7, 15438, Note_off_c, 10, 64, 40
7, 15456, Note_on_c, 10, 60, 59
7, 15552, Note_on_c, 10, 64, 69
7, 15563, Note_off_c, 10, 60, 4
7, 15643, Note_off_c, 10, 64, 40
7, 15648, Note_on_c, 10, 60, 59
7, 15744, Note_on_c, 10, 64, 69
7, 15763, Note_off_c, 10, 60, 11
7, 15830, Note_off_c, 10, 64, 40
7, 15840, Note_on_c, 10, 60, 59
7, 15936, Note_on_c, 10, 64, 69
7, 15951, Note_off_c, 10, 60, 9
7, 16007, Note_off_c, 10, 64, 1
7, 16032, Note_on_c, 10, 60, 59
7, 16128, Note_on_c, 10, 65, 69
7, 16145, Note_off_c, 10, 60, 14
7, 16224, Note_on_c, 10, 62, 59
7, 16247, Note_off_c, 10, 65, 56
7, 16320, Note_on_c, 10, 65, 69
7, 16321, Note_off_c, 10, 62, 26
7, 16416, Note_on_c, 10, 62, 59
7, 16418, Note_off_c, 10, 65, 34
7, 16502, Note_off_c, 10, 62, 19
7, 16512, Note_on_c, 10, 65, 69
7, 16606, Note_off_c, 10, 65, 54
7, 16608, Note_on_c, 10, 62, 59
7, 16701, Note_off_c, 10, 62, 36
7, 16704, Note_on_c, 10, 65, 69
7, 16771, Note_off_c, 10, 65, 11
7, 16800, Note_on_c, 10, 62, 59
7, 16894, Note_off_c, 10, 62, 5
7, 16896, Note_on_c, 10, 67, 38
7, 17059, Note_off_c, 10, 67, 59
7, 17280, Note_on_c, 10, 79, 91
7, 17328, Note_off_c, 10, 79, 71
7, 17376, Note_on_c, 10, 81, 81
7, 17424, Note_off_c, 10, 81, 50
7, 17472, Note_on_c, 10, 83, 75
7, 17520, Note_off_c, 10, 83, 31
7, 17568, Note_on_c, 10, 84, 83
7, 17616, Note_off_c, 10, 84, 31
7, 17664, Note_on_c, 10, 84, 83
7, 17760, Note_off_c, 10, 84, 27
7, 17760, Note_on_c, 10, 83, 75
7, 17856, Note_on_c, 10, 81, 83
7, 17862, Note_off_c, 10, 83, 52
7, 17952, Note_on_c, 10, 79, 81
7, 17953, Note_off_c, 10, 81, 56
7, 18024, Note_off_c, 10, 79, 25
7, 18048, Note_on_c, 10, 79, 93
7, 18072, Note_off_c, 10, 79, 37
7, 18096, Note_on_c, 10, 77, 79
7, 18120, Note_off_c, 10, 77, 70
7, 18144, Note_on_c, 10, 76, 79
7, 18189, Note_off_c, 10, 76, 43
7, 18192, Note_on_c, 10, 77, 87
7, 18224, Note_off_c, 10, 77, 41
7, 18240, Note_on_c, 10, 81, 89
7, 18288, Note_off_c, 10, 81, 64
7, 18336, Note_on_c, 10, 77, 91
7, 18384, Note_off_c, 10, 77, 74
7, 18432, Note_on_c, 10, 75, 67
7, 18528, Note_on_c, 10, 76, 85
7, 18545, Note_off_c, 10, 75, 52
7, 18645, Note_off_c, 10, 76, 21
7, 18720, Note_on_c, 10, 76, 101
7, 18756, Note_off_c, 10, 76, 63
7, 18768, Note_on_c, 10, 77, 107
7, 18813, Note_off_c, 10, 77, 41
7, 18816, Note_on_c, 10, 79, 95
7, 18864, Note_off_c, 10, 79, 62
7, 18912, Note_on_c, 10, 81, 83
7, 18960, Note_off_c, 10, 81, 78
7, 19008, Note_on_c, 10, 83, 79
7, 19056, Note_off_c, 10, 83, 64
7, 19104, Note_on_c, 10, 84, 81
7, 19152, Note_off_c, 10, 84, 40
7, 19200, Note_on_c, 10, 84, 59
7, 19296, Note_off_c, 10, 84, 6
7, 19296, Note_on_c, 10, 83, 77
7, 19392, Note_off_c, 10, 83, 36
7, 19392, Note_on_c, 10, 81, 79
7, 19483, Note_off_c, 10, 81, 71
7, 19488, Note_on_c, 10, 79, 77
7, 19584, Note_off_c, 10, 79, 15
7, 19584, Note_on_c, 10, 79, 85
7, 19632, Note_on_c, 10, 77, 75
7, 19639, Note_off_c, 10, 79, 38
7, 19677, Note_off_c, 10, 77, 70
7, 19680, Note_on_c, 10, 76, 69
7, 19724, Note_off_c, 10, 76, 39
7, 19728, Note_on_c, 10, 77, 89
7, 19752, Note_off_c, 10, 77, 59
7, 19776, Note_on_c, 10, 81, 83
7, 19824, Note_off_c, 10, 81, 71
7, 19872, Note_on_c, 10, 77, 83
7, 19920, Note_off_c, 10, 77, 56
7, 19968, Note_on_c, 10, 76, 85
7, 20064, Note_off_c, 10, 76, 32
7, 20064, Note_on_c, 10, 84, 83
7, 20256, Note_on_c, 10, 82, 71
7, 20269, Note_off_c, 10, 84, 16
7, 20438, Note_off_c, 10, 82, 52
7, 20448, Note_on_c, 10, 81, 87
7, 20633, Note_off_c, 10, 81, 64
7, 20640, Note_on_c, 10, 79, 89
7, 20832, Note_on_c, 10, 77, 79
7, 20842, Note_off_c, 10, 79, 68
7, 21018, Note_off_c, 10, 77, 34
7, 21024, Note_on_c, 10, 84, 77
7, 21216, Note_on_c, 10, 82, 62
7, 21228, Note_off_c, 10, 84, 25
7, 21398, Note_off_c, 10, 82, 39
7, 21408, Note_on_c, 10, 81, 87
7, 21600, Note_on_c, 10, 79, 91
7, 21626, Note_off_c, 10, 81, 46
7, 21782, Note_off_c, 10, 79, 38
7, 21792, Note_on_c, 10, 84, 85
7, 21984, Note_on_c, 10, 82, 55
7, 22006, Note_off_c, 10, 84, 10
7, 22128, Note_on_c, 10, 80, 51
7, 22175, Note_off_c, 10, 82, 54
7, 22333, Note_off_c, 10, 80, 49
7, 22368, Note_on_c, 10, 81, 81
7, 22416, Note_off_c, 10, 81, 68
7, 22464, Note_on_c, 10, 83, 75
7, 22512, Note_off_c, 10, 83, 43
7, 22560, Note_on_c, 10, 84, 85
7, 22608, Note_off_c, 10, 84, 29
7, 22656, Note_on_c, 10, 76, 79
7, 22704, Note_off_c, 10, 76, 51
7, 22752, Note_on_c, 10, 77, 58
7, 22800, Note_off_c, 10, 77, 47
7, 22848, Note_on_c, 10, 80, 81
7, 22896, Note_off_c, 10, 80, 37
7, 22944, Note_on_c, 10, 81, 93
7, 22992, Note_off_c, 10, 81, 46
7, 23040, Note_on_c, 10, 73, 83
7, 23088, Note_off_c, 10, 73, 40
7, 23136, Note_on_c, 10, 74, 95
7, 23184, Note_off_c, 10, 74, 70
7, 23232, Note_on_c, 10, 76, 85
7, 23280, Note_off_c, 10, 76, 59
7, 23328, Note_on_c, 10, 77, 89
7, 23376, Note_off_c, 10, 77, 78
7, 23424, Note_on_c, 10, 76, 87
7, 23472, Note_off_c, 10, 76, 62
7, 23520, Note_on_c, 10, 77, 79
7, 23568, Note_off_c, 10, 77, 50
7, 23616, Note_on_c, 10, 79, 91
7, 23664, Note_off_c, 10, 79, 34
7, 23712, Note_on_c, 10, 81, 81
7, 23760, Note_off_c, 10, 81, 51
7, 23808, Note_on_c, 10, 67, 85
7, 23808, Note_on_c, 10, 79, 87
7, 23808, Note_on_c, 10, 72, 83
7, 23928, Note_off_c, 10, 67, 24
7, 23928, Note_off_c, 10, 72, 16
7, 23952, Note_off_c, 10, 79, 35
7, 24000, Note_on_c, 10, 79, 91
7, 24216, Note_off_c, 10, 79, 18
7, 24288, Note_on_c, 10, 81, 81
7, 24336, Note_on_c, 10, 79, 85
7, 24347, Note_off_c, 10, 81, 8
7, 24384, Note_on_c, 10, 77, 85
7, 24387, Note_off_c, 10, 79, 43
7, 24432, Note_off_c, 10, 77, 62
7, 24480, Note_on_c, 10, 76, 89
7, 24528, Note_off_c, 10, 76, 39
7, 24576, Note_on_c, 10, 76, 93
7, 24720, Note_off_c, 10, 76, 45
7, 24720, Note_on_c, 10, 74, 87
7, 24762, Note_off_c, 10, 74, 55
7, 24768, Note_on_c, 10, 72, 73
7, 25136, Note_off_c, 10, 72, 42
7, 25152, Note_on_c, 10, 71, 81
7, 25342, Note_off_c, 10, 71, 27
7, 25344, Note_on_c, 10, 72, 79
7, 25582, Note_off_c, 10, 72, 37
7, 25728, Note_on_c, 10, 77, 91
7, 25772, Note_off_c, 10, 77, 63
7, 25776, Note_on_c, 10, 76, 83
7, 25800, Note_off_c, 10, 76, 59
7, 25824, Note_on_c, 10, 74, 77
7, 25848, Note_off_c, 10, 74, 37
7, 25872, Note_on_c, 10, 76, 91
7, 25906, Note_off_c, 10, 76, 34
7, 25920, Note_on_c, 10, 79, 93
7, 25944, Note_off_c, 10, 79, 48
7, 25968, Note_on_c, 10, 77, 83
7, 26005, Note_off_c, 10, 77, 73
7, 26016, Note_on_c, 10, 76, 89
7, 26061, Note_off_c, 10, 76, 32
7, 26064, Note_on_c, 10, 77, 83
7, 26112, Note_on_c, 10, 79, 91
7, 26116, Note_off_c, 10, 77, 68
7, 26208, Note_off_c, 10, 79, 5
7, 26208, Note_on_c, 10, 84, 75
7, 26304, Note_off_c, 10, 84, 45
7, 26304, Note_on_c, 10, 79, 93
7, 26328, Note_off_c, 10, 79, 71
7, 26400, Note_on_c, 10, 79, 81
7, 26424, Note_off_c, 10, 79, 75
7, 26496, Note_on_c, 10, 77, 81
7, 26544, Note_off_c, 10, 77, 44
7, 26544, Note_on_c, 10, 76, 80
7, 26591, Note_off_c, 10, 76, 21
7, 26592, Note_on_c, 10, 74, 79
7, 26636, Note_off_c, 10, 74, 32
7, 26640, Note_on_c, 10, 76, 75
7, 26667, Note_off_c, 10, 76, 70
7, 26688, Note_on_c, 10, 77, 89
7, 26736, Note_on_c, 10, 76, 91
7, 26742, Note_off_c, 10, 77, 61
7, 26775, Note_off_c, 10, 76, 43
7, 26784, Note_on_c, 10, 74, 83
7, 26828, Note_off_c, 10, 74, 57
7, 26832, Note_on_c, 10, 76, 85
7, 26856, Note_off_c, 10, 76, 76
7, 26880, Note_on_c, 10, 79, 91
7, 26976, Note_off_c, 10, 79, 5
7, 26976, Note_on_c, 10, 84, 75
7, 27072, Note_off_c, 10, 84, 45
7, 27072, Note_on_c, 10, 79, 93
7, 27096, Note_off_c, 10, 79, 71
7, 27168, Note_on_c, 10, 79, 81
7, 27192, Note_off_c, 10, 79, 75
7, 27264, Note_on_c, 10, 77, 81
7, 27312, Note_off_c, 10, 77, 44
7, 27312, Note_on_c, 10, 76, 80
7, 27359, Note_off_c, 10, 76, 21
7, 27360, Note_on_c, 10, 74, 79
7, 27404, Note_off_c, 10, 74, 32
7, 27408, Note_on_c, 10, 76, 75
7, 27435, Note_off_c, 10, 76, 70
7, 27456, Note_on_c, 10, 77, 89
7, 27504, Note_on_c, 10, 76, 91
7, 27510, Note_off_c, 10, 77, 61
7, 27543, Note_off_c, 10, 76, 43
7, 27552, Note_on_c, 10, 74, 83
7, 27596, Note_off_c, 10, 74, 57
7, 27600, Note_on_c, 10, 76, 85
7, 27624, Note_off_c, 10, 76, 76
7, 27648, Note_on_c, 10, 79, 101
7, 27689, Note_off_c, 10, 79, 43
7, 27696, Note_on_c, 10, 81, 89
7, 27742, Note_off_c, 10, 81, 64
7, 27744, Note_on_c, 10, 79, 91
7, 27780, Note_off_c, 10, 79, 42
7, 27792, Note_on_c, 10, 81, 79
7, 27840, Note_on_c, 10, 77, 101
7, 27847, Note_off_c, 10, 81, 75
7, 27879, Note_off_c, 10, 77, 48
7, 27888, Note_on_c, 10, 79, 83
7, 27924, Note_off_c, 10, 79, 73
7, 27936, Note_on_c, 10, 77, 85
7, 27972, Note_off_c, 10, 77, 43
7, 27984, Note_on_c, 10, 79, 89
7, 28031, Note_off_c, 10, 79, 77
7, 28032, Note_on_c, 10, 76, 85
7, 28068, Note_off_c, 10, 76, 34
7, 28080, Note_on_c, 10, 77, 71
7, 28119, Note_off_c, 10, 77, 58
7, 28128, Note_on_c, 10, 76, 77
7, 28167, Note_off_c, 10, 76, 32
7, 28176, Note_on_c, 10, 77, 81
7, 28219, Note_off_c, 10, 77, 48
7, 28224, Note_on_c, 10, 74, 91
7, 28268, Note_off_c, 10, 74, 41
7, 28272, Note_on_c, 10, 76, 85
7, 28314, Note_off_c, 10, 76, 73
7, 28320, Note_on_c, 10, 74, 91
7, 28352, Note_off_c, 10, 74, 70
7, 28368, Note_on_c, 10, 76, 79
7, 28416, Note_off_c, 10, 76, 64
7, 28416, Note_on_c, 10, 72, 89
7, 28464, Note_off_c, 10, 72, 22
7, 28464, Note_on_c, 10, 74, 89
7, 28512, Note_off_c, 10, 74, 65
7, 28512, Note_on_c, 10, 76, 89
7, 28560, Note_off_c, 10, 76, 11
7, 28560, Note_on_c, 10, 77, 89
7, 28608, Note_off_c, 10, 77, 62
7, 28608, Note_on_c, 10, 79, 89
7, 28656, Note_off_c, 10, 79, 39
7, 28656, Note_on_c, 10, 81, 89
7, 28704, Note_off_c, 10, 81, 48
7, 28704, Note_on_c, 10, 83, 89
7, 28752, Note_off_c, 10, 83, 27
7, 28752, Note_on_c, 10, 84, 99
7, 28800, Note_off_c, 10, 84, 50
7, 28800, Note_on_c, 10, 69, 89
7, 28848, Note_off_c, 10, 69, 14
7, 28848, Note_on_c, 10, 71, 89
7, 28896, Note_off_c, 10, 71, 48
7, 28896, Note_on_c, 10, 72, 89
7, 28944, Note_off_c, 10, 72, 36
7, 28944, Note_on_c, 10, 74, 89
7, 28992, Note_off_c, 10, 74, 32
7, 28992, Note_on_c, 10, 76, 89
7, 29040, Note_off_c, 10, 76, 39
7, 29040, Note_on_c, 10, 77, 89
7, 29088, Note_off_c, 10, 77, 23
7, 29088, Note_on_c, 10, 79, 89
7, 29136, Note_off_c, 10, 79, 41
7, 29136, Note_on_c, 10, 81, 99
7, 29184, Note_off_c, 10, 81, 81
7, 29184, Note_on_c, 10, 67, 89
7, 29223, Note_off_c, 10, 67, 49
7, 29232, Note_on_c, 10, 69, 89
7, 29275, Note_off_c, 10, 69, 56
7, 29280, Note_on_c, 10, 71, 89
7, 29328, Note_off_c, 10, 71, 64
7, 29328, Note_on_c, 10, 72, 89
7, 29352, Note_off_c, 10, 72, 59
7, 29376, Note_on_c, 10, 74, 89
7, 29424, Note_off_c, 10, 74, 14
7, 29424, Note_on_c, 10, 76, 89
7, 29472, Note_off_c, 10, 76, 48
7, 29472, Note_on_c, 10, 77, 89
7, 29520, Note_off_c, 10, 77, 53
7, 29520, Note_on_c, 10, 79, 99
7, 29568, Note_off_c, 10, 79, 79
7, 29568, Note_on_c, 10, 79, 99
7, 29664, Note_on_c, 10, 77, 89
7, 29666, Note_off_c, 10, 79, 3
7, 29760, Note_off_c, 10, 77, 32
7, 29760, Note_on_c, 10, 76, 89
7, 29808, Note_off_c, 10, 76, 6
7, 29856, Note_on_c, 10, 74, 89
7, 29904, Note_off_c, 10, 74, 66
7, 29952, Note_on_c, 10, 72, 85
7, 30072, Note_off_c, 10, 72, 58
7, 30240, Note_on_c, 10, 79, 113
7, 30264, Note_off_c, 10, 79, 64
7, 30272, Note_on_c, 10, 81, 91
7, 30296, Note_off_c, 10, 81, 64
7, 30304, Note_on_c, 10, 83, 95
7, 30328, Note_off_c, 10, 83, 64
7, 30336, Note_on_c, 10, 84, 85
7, 30480, Note_off_c, 10, 84, 64
7, 30624, Note_on_c, 10, 79, 77
7, 30647, Note_off_c, 10, 79, 64
7, 30656, Note_on_c, 10, 81, 85
7, 30679, Note_off_c, 10, 81, 64
7, 30688, Note_on_c, 10, 83, 83
7, 30711, Note_off_c, 10, 83, 64
7, 30720, Note_on_c, 10, 84, 95
7, 30840, Note_off_c, 10, 84, 41
7, 31008, Note_on_c, 10, 79, 83
7, 31031, Note_off_c, 10, 79, 64
7, 31040, Note_on_c, 10, 81, 83
7, 31063, Note_off_c, 10, 81, 64
7, 31072, Note_on_c, 10, 83, 83
7, 31095, Note_off_c, 10, 83, 64
7, 31104, Note_on_c, 10, 84, 81
7, 31176, Note_off_c, 10, 84, 64
7, 31200, Note_on_c, 10, 79, 101
7, 31223, Note_off_c, 10, 79, 64
7, 31232, Note_on_c, 10, 81, 91
7, 31255, Note_off_c, 10, 81, 64
7, 31264, Note_on_c, 10, 83, 79
7, 31287, Note_off_c, 10, 83, 64
7, 31296, Note_on_c, 10, 84, 87
7, 31368, Note_off_c, 10, 84, 64
7, 31392, Note_on_c, 10, 79, 79
7, 31415, Note_off_c, 10, 79, 64
7, 31424, Note_on_c, 10, 81, 83
7, 31447, Note_off_c, 10, 81, 64
7, 31456, Note_on_c, 10, 83, 73
7, 31479, Note_off_c, 10, 83, 64
7, 31488, Note_on_c, 10, 84, 113
7, 31597, Note_off_c, 10, 84, 57
7, 31776, Note_on_c, 10, 72, 89
7, 31824, Note_off_c, 10, 72, 73
7, 31968, Note_on_c, 10, 71, 87
7, 32016, Note_off_c, 10, 71, 64
7, 32160, Note_on_c, 10, 69, 101
7, 32208, Note_off_c, 10, 69, 82
7, 32256, Note_on_c, 10, 67, 1
7, 32304, Note_off_c, 10, 67, 87
7, 32352, Note_on_c, 10, 67, 113
7, 32393, Note_off_c, 10, 67, 66
7, 32544, Note_on_c, 10, 65, 101
7, 32580, Note_off_c, 10, 65, 75
7, 32736, Note_on_c, 10, 64, 89
7, 32784, Note_off_c, 10, 64, 61
7, 32928, Note_on_c, 10, 62, 87
7, 32976, Note_off_c, 10, 62, 79
7, 33024, Note_on_c, 10, 60, 87
7, 33216, Note_off_c, 10, 60, 7
7, 33312, Note_on_c, 10, 67, 73
7, 33360, Note_off_c, 10, 67, 76
7, 33408, Note_on_c, 10, 64, 69
7, 33456, Note_off_c, 10, 64, 65
7, 33504, Note_on_c, 10, 60, 67
7, 33552, Note_off_c, 10, 60, 39
7, 33600, Note_on_c, 10, 64, 73
7, 33648, Note_off_c, 10, 64, 48
7, 33696, Note_on_c, 10, 67, 73
7, 33744, Note_off_c, 10, 67, 56
7, 33792, Note_on_c, 10, 72, 87
7, 33984, Note_off_c, 10, 72, 7
7, 34080, Note_on_c, 10, 67, 73
7, 34128, Note_off_c, 10, 67, 76
7, 34176, Note_on_c, 10, 64, 69
7, 34224, Note_off_c, 10, 64, 65
7, 34272, Note_on_c, 10, 60, 67
7, 34320, Note_off_c, 10, 60, 39
7, 34368, Note_on_c, 10, 64, 73
7, 34416, Note_off_c, 10, 64, 48
7, 34464, Note_on_c, 10, 67, 73
7, 34512, Note_off_c, 10, 67, 56
7, 34560, Note_on_c, 10, 72, 56
7, 34680, Note_off_c, 10, 72, 53
7, 34848, Note_on_c, 10, 60, 50
7, 34896, Note_off_c, 10, 60, 43
7, 35040, Note_on_c, 10, 59, 58
7, 35088, Note_off_c, 10, 59, 63
7, 35232, Note_on_c, 10, 60, 64
7, 35280, Note_off_c, 10, 60, 56
7, 35328, Note_on_c, 10, 62, 94
7, 35376, Note_off_c, 10, 62, 90
7, 35424, Note_on_c, 10, 62, 94
7, 35461, Note_off_c, 10, 62, 52
7, 35616, Note_on_c, 10, 62, 60
7, 35664, Note_off_c, 10, 62, 74
7, 35808, Note_on_c, 10, 61, 52
7, 35856, Note_off_c, 10, 61, 70
7, 36000, Note_on_c, 10, 62, 68
7, 36048, Note_off_c, 10, 62, 76
7, 36096, Note_on_c, 10, 64, 56
7, 36144, Note_off_c, 10, 64, 78
7, 36192, Note_on_c, 10, 64, 94
7, 36240, Note_off_c, 10, 64, 70
7, 36384, Note_on_c, 10, 64, 70
7, 36432, Note_off_c, 10, 64, 64
7, 36576, Note_on_c, 10, 63, 48
7, 36624, Note_off_c, 10, 63, 64
7, 36768, Note_on_c, 10, 64, 60
7, 36816, Note_off_c, 10, 64, 67
7, 36960, Note_on_c, 10, 65, 94
7, 37008, Note_off_c, 10, 65, 84
7, 37152, Note_on_c, 10, 67, 82
7, 37200, Note_off_c, 10, 67, 76
7, 37344, Note_on_c, 10, 69, 82
7, 37392, Note_off_c, 10, 69, 70
7, 37536, Note_on_c, 10, 71, 62
7, 37584, Note_off_c, 10, 71, 65
7, 40800, Note_on_c, 10, 67, 50
7, 40820, Note_off_c, 10, 67, 55
7, 40896, Note_on_c, 10, 67, 50
7, 40918, Note_off_c, 10, 67, 38
7, 40992, Note_on_c, 10, 67, 50
7, 41016, Note_off_c, 10, 67, 77
7, 41088, Note_on_c, 10, 67, 50
7, 41109, Note_off_c, 10, 67, 48
7, 41184, Note_on_c, 10, 67, 50
7, 41210, Note_off_c, 10, 67, 47
7, 41280, Note_on_c, 10, 67, 50
7, 41306, Note_off_c, 10, 67, 25
7, 41376, Note_on_c, 10, 67, 50
7, 41404, Note_off_c, 10, 67, 75
7, 41568, Note_on_c, 10, 69, 50
7, 41593, Note_off_c, 10, 69, 71
7, 41664, Note_on_c, 10, 69, 50
7, 41696, Note_off_c, 10, 69, 74
7, 41760, Note_on_c, 10, 69, 50
7, 41790, Note_off_c, 10, 69, 80
7, 41856, Note_on_c, 10, 69, 50
7, 41885, Note_off_c, 10, 69, 68
7, 41952, Note_on_c, 10, 69, 50
7, 41983, Note_off_c, 10, 69, 71
7, 42048, Note_on_c, 10, 69, 50
7, 42077, Note_off_c, 10, 69, 80
7, 42144, Note_on_c, 10, 69, 50
7, 42173, Note_off_c, 10, 69, 80
7, 42336, Note_on_c, 10, 67, 50
7, 42356, Note_off_c, 10, 67, 65
7, 42432, Note_on_c, 10, 67, 50
7, 42457, Note_off_c, 10, 67, 80
7, 42528, Note_on_c, 10, 67, 50
7, 42553, Note_off_c, 10, 67, 72
7, 42624, Note_on_c, 10, 67, 50
7, 42647, Note_off_c, 10, 67, 67
7, 42720, Note_on_c, 10, 67, 50
7, 42740, Note_off_c, 10, 67, 49
7, 42816, Note_on_c, 10, 67, 50
7, 42840, Note_off_c, 10, 67, 81
7, 42912, Note_on_c, 10, 67, 50
7, 42934, Note_off_c, 10, 67, 72
7, 43008, Note_on_c, 10, 67, 50
7, 43091, Note_off_c, 10, 67, 59
7, 43104, Note_on_c, 10, 65, 50
7, 43152, Note_off_c, 10, 65, 68
7, 43200, Note_on_c, 10, 64, 50
7, 43248, Note_off_c, 10, 64, 44
7, 43296, Note_on_c, 10, 64, 50
7, 43344, Note_off_c, 10, 64, 65
7, 43392, Note_on_c, 10, 64, 50
7, 43488, Note_on_c, 10, 67, 50
7, 43490, Note_off_c, 10, 64, 32
7, 43574, Note_off_c, 10, 67, 64
7, 43584, Note_on_c, 10, 65, 50
7, 43680, Note_off_c, 10, 65, 71
7, 43680, Note_on_c, 10, 62, 50
7, 43776, Note_off_c, 10, 62, 59
7, 43776, Note_on_c, 10, 60, 50
7, 43824, Note_off_c, 10, 60, 47
7, 43968, Note_on_c, 10, 72, 50
7, 44016, Note_off_c, 10, 72, 70
7, 44160, Note_on_c, 10, 76, 50
7, 44208, Note_off_c, 10, 76, 84
7, 44352, Note_on_c, 10, 79, 50
7, 44424, Note_off_c, 10, 79, 68
7, 44544, Note_on_c, 10, 81, 50
7, 44592, Note_off_c, 10, 81, 52
7, 44736, Note_on_c, 10, 72, 50
7, 44808, Note_off_c, 10, 72, 40
7, 44928, Note_on_c, 10, 77, 50
7, 45000, Note_off_c, 10, 77, 72
7, 45120, Note_on_c, 10, 81, 50
7, 45192, Note_off_c, 10, 81, 32
7, 45312, Note_on_c, 10, 79, 50
7, 45360, Note_off_c, 10, 79, 66
7, 45504, Note_on_c, 10, 72, 50
7, 45552, Note_off_c, 10, 72, 64
7, 45696, Note_on_c, 10, 76, 50
7, 45744, Note_off_c, 10, 76, 78
7, 45888, Note_on_c, 10, 79, 50
7, 45912, Note_off_c, 10, 79, 53
7, 46176, Note_on_c, 10, 67, 50
7, 46200, Note_off_c, 10, 67, 72
7, 46272, Note_on_c, 10, 72, 50
7, 46296, Note_off_c, 10, 72, 53
7, 46368, Note_on_c, 10, 76, 50
7, 46392, Note_off_c, 10, 76, 41
7, 46464, Note_on_c, 10, 79, 50
7, 46488, Note_off_c, 10, 79, 73
7, 46560, Note_on_c, 10, 76, 50
7, 46584, Note_off_c, 10, 76, 47
7, 46656, Note_on_c, 10, 77, 50
7, 46680, Note_off_c, 10, 77, 39
7, 46752, Note_on_c, 10, 74, 50
7, 46776, Note_off_c, 10, 74, 72
7, 46848, Note_on_c, 10, 72, 50
7, 46968, Note_off_c, 10, 72, 48
7, 49248, Note_on_c, 10, 67, 104
7, 49273, Note_off_c, 10, 67, 91
7, 49344, Note_on_c, 10, 69, 104
7, 49369, Note_off_c, 10, 69, 74
7, 49440, Note_on_c, 10, 71, 104
7, 49467, Note_off_c, 10, 71, 80
7, 49536, Note_on_c, 10, 72, 104
7, 49561, Note_off_c, 10, 72, 70
7, 49632, Note_on_c, 10, 74, 104
7, 49656, Note_off_c, 10, 74, 87
7, 49728, Note_on_c, 10, 76, 104
7, 49751, Note_off_c, 10, 76, 89
7, 49824, Note_on_c, 10, 78, 104
7, 49846, Note_off_c, 10, 78, 81
7, 49943, Note_on_c, 10, 79, 1
7, 49965, Note_off_c, 10, 79, 92
7, 50016, Note_on_c, 10, 81, 98
7, 50035, Note_on_c, 10, 79, 1
7, 50048, Note_off_c, 10, 81, 64
7, 50062, Note_off_c, 10, 79, 63
7, 50070, Note_on_c, 10, 78, 104
7, 50090, Note_on_c, 10, 79, 120
7, 50094, Note_off_c, 10, 78, 75
7, 50123, Note_on_c, 10, 83, 126
7, 50142, Note_off_c, 10, 79, 96
7, 50203, Note_off_c, 10, 83, 2
7, 50226, Note_on_c, 10, 79, 112
7, 50258, Note_off_c, 10, 79, 81
7, 50304, Note_on_c, 10, 74, 114
7, 50368, Note_off_c, 10, 74, 75
7, 50415, Note_on_c, 10, 79, 120
7, 50447, Note_off_c, 10, 79, 92
7, 50496, Note_on_c, 10, 71, 98
7, 50544, Note_off_c, 10, 71, 64
7, 50604, Note_on_c, 10, 74, 120
7, 50636, Note_off_c, 10, 74, 88
7, 50711, Note_on_c, 10, 67, 1
7, 50733, Note_off_c, 10, 67, 92
7, 50784, Note_on_c, 10, 69, 98
7, 50803, Note_on_c, 10, 67, 1
7, 50816, Note_off_c, 10, 69, 64
7, 50830, Note_off_c, 10, 67, 63
7, 50838, Note_on_c, 10, 66, 104
7, 50858, Note_on_c, 10, 67, 120
7, 50862, Note_off_c, 10, 66, 75
7, 50891, Note_on_c, 10, 71, 126
7, 50910, Note_off_c, 10, 67, 96
7, 50987, Note_off_c, 10, 71, 2
7, 50994, Note_on_c, 10, 67, 112
7, 51026, Note_off_c, 10, 67, 81
7, 51072, Note_on_c, 10, 62, 114
7, 51120, Note_off_c, 10, 62, 75
7, 51183, Note_on_c, 10, 67, 120
7, 51215, Note_off_c, 10, 67, 92
7, 51264, Note_on_c, 10, 59, 98
7, 51312, Note_off_c, 10, 59, 64
7, 51372, Note_on_c, 10, 62, 120
7, 51404, Note_off_c, 10, 62, 88
7, 51456, Note_on_c, 10, 55, 123
7, 51552, Note_off_c, 10, 55, 76
7, 57600, Note_on_c, 10, 67, 79
7, 57632, Note_off_c, 10, 67, 58
7, 57696, Note_on_c, 10, 67, 79
7, 57728, Note_off_c, 10, 67, 68
7, 57792, Note_on_c, 10, 67, 79
7, 57824, Note_off_c, 10, 67, 78
7, 57888, Note_on_c, 10, 67, 79
7, 57920, Note_off_c, 10, 67, 45
7, 57984, Note_on_c, 10, 67, 79
7, 58016, Note_off_c, 10, 67, 64
7, 58080, Note_on_c, 10, 67, 79
7, 58112, Note_off_c, 10, 67, 70
7, 58176, Note_on_c, 10, 67, 79
7, 58208, Note_off_c, 10, 67, 58
7, 58272, Note_on_c, 10, 67, 79
7, 58304, Note_off_c, 10, 67, 58
7, 58368, Note_on_c, 10, 64, 79
7, 58400, Note_off_c, 10, 64, 68
7, 58464, Note_on_c, 10, 64, 79
7, 58496, Note_off_c, 10, 64, 64
7, 58560, Note_on_c, 10, 64, 79
7, 58592, Note_off_c, 10, 64, 64
7, 58656, Note_on_c, 10, 64, 79
7, 58688, Note_off_c, 10, 64, 65
7, 58752, Note_on_c, 10, 76, 79
7, 58784, Note_off_c, 10, 76, 77
7, 58848, Note_on_c, 10, 76, 79
7, 58880, Note_off_c, 10, 76, 58
7, 58944, Note_on_c, 10, 76, 79
7, 58976, Note_off_c, 10, 76, 55
7, 59040, Note_on_c, 10, 76, 79
7, 59072, Note_off_c, 10, 76, 45
7, 59136, Note_on_c, 10, 84, 79
7, 59328, Note_on_c, 10, 81, 79
7, 59340, Note_off_c, 10, 84, 23
7, 59424, Note_off_c, 10, 81, 82
7, 59520, Note_on_c, 10, 81, 79
7, 59712, Note_on_c, 10, 78, 79
7, 59718, Note_off_c, 10, 81, 71
7, 59808, Note_off_c, 10, 78, 74
7, 59904, Note_on_c, 10, 78, 79
7, 60080, Note_off_c, 10, 78, 12
7, 60096, Note_on_c, 10, 74, 79
7, 60192, Note_off_c, 10, 74, 72
7, 60288, Note_on_c, 10, 72, 79
7, 60480, Note_on_c, 10, 69, 79
7, 60481, Note_off_c, 10, 72, 39
7, 60576, Note_off_c, 10, 69, 47
7, 60672, Note_on_c, 10, 71, 85
7, 60708, Note_off_c, 10, 71, 64
7, 60864, Note_on_c, 10, 71, 85
7, 60882, Note_off_c, 10, 71, 64
7, 60888, Note_on_c, 10, 72, 85
7, 60906, Note_off_c, 10, 72, 64
7, 60912, Note_on_c, 10, 71, 85
7, 60930, Note_off_c, 10, 71, 64
7, 60936, Note_on_c, 10, 69, 85
7, 60972, Note_off_c, 10, 69, 64
7, 60972, Note_on_c, 10, 71, 85
7, 61008, Note_off_c, 10, 71, 64
7, 61008, Note_on_c, 10, 72, 85
7, 61044, Note_off_c, 10, 72, 64
7, 61060, Note_on_c, 10, 74, 79
7, 61156, Note_off_c, 10, 74, 64
7, 61440, Note_on_c, 10, 83, 85
7, 61476, Note_off_c, 10, 83, 64
7, 61632, Note_on_c, 10, 83, 85
7, 61650, Note_off_c, 10, 83, 64
7, 61656, Note_on_c, 10, 84, 85
7, 61674, Note_off_c, 10, 84, 64
7, 61680, Note_on_c, 10, 83, 85
7, 61698, Note_off_c, 10, 83, 64
7, 61704, Note_on_c, 10, 81, 85
7, 61740, Note_off_c, 10, 81, 64
7, 61740, Note_on_c, 10, 83, 85
7, 61776, Note_off_c, 10, 83, 64
7, 61776, Note_on_c, 10, 84, 85
7, 61812, Note_off_c, 10, 84, 64
7, 61828, Note_on_c, 10, 86, 79
7, 61924, Note_off_c, 10, 86, 64
7, 62208, Note_on_c, 10, 84, 71
7, 62400, Note_on_c, 10, 81, 107
7, 62412, Note_off_c, 10, 84, 23
7, 62496, Note_off_c, 10, 81, 82
7, 62592, Note_on_c, 10, 81, 93
7, 62784, Note_on_c, 10, 78, 73
7, 62790, Note_off_c, 10, 81, 71
7, 62880, Note_off_c, 10, 78, 74
7, 62976, Note_on_c, 10, 78, 65
7, 63152, Note_off_c, 10, 78, 12
7, 63168, Note_on_c, 10, 74, 62
7, 63264, Note_off_c, 10, 74, 72
7, 63360, Note_on_c, 10, 72, 75
7, 63552, Note_on_c, 10, 69, 79
7, 63553, Note_off_c, 10, 72, 39
7, 63648, Note_off_c, 10, 69, 47
7, 63744, Note_on_c, 10, 71, 85
7, 63780, Note_off_c, 10, 71, 64
7, 63936, Note_on_c, 10, 71, 85
7, 63954, Note_off_c, 10, 71, 64
7, 63960, Note_on_c, 10, 72, 85
7, 63978, Note_off_c, 10, 72, 64
7, 63984, Note_on_c, 10, 71, 85
7, 64002, Note_off_c, 10, 71, 64
7, 64008, Note_on_c, 10, 69, 85
7, 64044, Note_off_c, 10, 69, 64
7, 64044, Note_on_c, 10, 71, 85
7, 64080, Note_off_c, 10, 71, 64
7, 64080, Note_on_c, 10, 72, 85
7, 64116, Note_off_c, 10, 72, 64
7, 64132, Note_on_c, 10, 74, 79
7, 64228, Note_off_c, 10, 74, 64
7, 64512, Note_on_c, 10, 83, 85
7, 64548, Note_off_c, 10, 83, 64
7, 64704, Note_on_c, 10, 83, 85
7, 64722, Note_off_c, 10, 83, 64
7, 64728, Note_on_c, 10, 84, 85
7, 64746, Note_off_c, 10, 84, 64
7, 64752, Note_on_c, 10, 83, 85
7, 64770, Note_off_c, 10, 83, 64
7, 64776, Note_on_c, 10, 81, 85
7, 64812, Note_off_c, 10, 81, 64
7, 64812, Note_on_c, 10, 83, 85
7, 64848, Note_off_c, 10, 83, 64
7, 64848, Note_on_c, 10, 84, 85
7, 64884, Note_off_c, 10, 84, 64
7, 64900, Note_on_c, 10, 86, 79
7, 64996, Note_off_c, 10, 86, 64
7, 65280, Note_on_c, 10, 74, 1
7, 65424, Note_off_c, 10, 74, 21
7, 65568, Note_on_c, 10, 81, 124
7, 65568, Note_on_c, 10, 74, 124
7, 65616, Note_off_c, 10, 81, 81
7, 65616, Note_off_c, 10, 74, 78
7, 65664, Note_on_c, 10, 74, 101
7, 65664, Note_on_c, 10, 83, 107
7, 65712, Note_off_c, 10, 74, 77
7, 65712, Note_off_c, 10, 83, 57
7, 65760, Note_on_c, 10, 74, 101
7, 65760, Note_on_c, 10, 83, 113
7, 65808, Note_off_c, 10, 74, 89
7, 65808, Note_off_c, 10, 83, 54
7, 65856, Note_on_c, 10, 74, 101
7, 65856, Note_on_c, 10, 83, 113
7, 65904, Note_off_c, 10, 74, 88
7, 65904, Note_off_c, 10, 83, 71
7, 65952, Note_on_c, 10, 74, 101
7, 65952, Note_on_c, 10, 83, 107
7, 66000, Note_off_c, 10, 74, 80
7, 66000, Note_off_c, 10, 83, 59
7, 66048, Note_on_c, 10, 74, 113
7, 66048, Note_on_c, 10, 81, 119
7, 66224, Note_off_c, 10, 74, 56
7, 66224, Note_off_c, 10, 81, 59
7, 66336, Note_on_c, 10, 81, 124
7, 66336, Note_on_c, 10, 74, 119
7, 66384, Note_off_c, 10, 81, 77
7, 66384, Note_off_c, 10, 74, 89
7, 66432, Note_on_c, 10, 74, 95
7, 66432, Note_on_c, 10, 83, 95
7, 66480, Note_off_c, 10, 74, 71
7, 66480, Note_off_c, 10, 83, 24
7, 66528, Note_on_c, 10, 83, 93
7, 66528, Note_on_c, 10, 74, 93
7, 66576, Note_off_c, 10, 83, 53
7, 66576, Note_off_c, 10, 74, 87
7, 66624, Note_on_c, 10, 74, 95
7, 66624, Note_on_c, 10, 83, 95
7, 66672, Note_off_c, 10, 74, 87
7, 66672, Note_off_c, 10, 83, 66
7, 66720, Note_on_c, 10, 74, 91
7, 66720, Note_on_c, 10, 83, 95
7, 66768, Note_off_c, 10, 74, 75
7, 66768, Note_off_c, 10, 83, 46
7, 66816, Note_on_c, 10, 74, 101
7, 66816, Note_on_c, 10, 81, 119
7, 66960, Note_off_c, 10, 81, 48
7, 66992, Note_off_c, 10, 74, 64
7, 67008, Note_on_c, 10, 74, 101
7, 67008, Note_on_c, 10, 86, 101
7, 67168, Note_off_c, 10, 74, 63
7, 67168, Note_off_c, 10, 86, 62
7, 67200, Note_on_c, 10, 62, 113
7, 67222, Channel_aftertouch_c, 10, 6
7, 67234, Channel_aftertouch_c, 10, 12
7, 67246, Channel_aftertouch_c, 10, 16
7, 67306, Channel_aftertouch_c, 10, 13
7, 67342, Channel_aftertouch_c, 10, 15
7, 67369, Channel_aftertouch_c, 10, 17
7, 67382, Channel_aftertouch_c, 10, 13
7, 67394, Channel_aftertouch_c, 10, 0
7, 67408, Note_off_c, 10, 62, 97
7, 67584, Note_on_c, 10, 71, 59
7, 67665, Note_off_c, 10, 71, 22
7, 67680, Note_on_c, 10, 67, 59
7, 67765, Note_off_c, 10, 67, 2
7, 67776, Note_on_c, 10, 71, 59
7, 67856, Note_off_c, 10, 71, 1
7, 67872, Note_on_c, 10, 67, 59
7, 67964, Note_off_c, 10, 67, 27
7, 67968, Note_on_c, 10, 71, 59
7, 68057, Note_off_c, 10, 71, 25
7, 68064, Note_on_c, 10, 67, 59
7, 68160, Note_on_c, 10, 71, 59
7, 68166, Note_off_c, 10, 67, 36
7, 68256, Note_on_c, 10, 67, 59
7, 68269, Note_off_c, 10, 71, 22
7, 68348, Note_off_c, 10, 67, 25
7, 68352, Note_on_c, 10, 72, 59
7, 68448, Note_on_c, 10, 69, 59
7, 68465, Note_off_c, 10, 72, 20
7, 68540, Note_off_c, 10, 69, 14
7, 68544, Note_on_c, 10, 72, 59
7, 68640, Note_on_c, 10, 69, 59
7, 68643, Note_off_c, 10, 72, 42
7, 68736, Note_on_c, 10, 72, 59
7, 68743, Note_off_c, 10, 69, 18
7, 68832, Note_on_c, 10, 69, 59
7, 68835, Note_off_c, 10, 72, 30
7, 68925, Note_off_c, 10, 69, 31
7, 68928, Note_on_c, 10, 72, 59
7, 69024, Note_on_c, 10, 69, 59
7, 69063, Note_off_c, 10, 72, 3
7, 69113, Note_off_c, 10, 69, 10
7, 69120, Note_on_c, 10, 74, 69
7, 69290, Note_off_c, 10, 74, 65
7, 69504, Note_on_c, 10, 62, 69
7, 69546, Note_off_c, 10, 62, 71
7, 69600, Note_on_c, 10, 64, 69
7, 69648, Note_off_c, 10, 64, 32
7, 69696, Note_on_c, 10, 66, 69
7, 69744, Note_off_c, 10, 66, 27
7, 69808, Note_on_c, 10, 67, 69
7, 69856, Note_off_c, 10, 67, 61
7, 69888, Note_on_c, 10, 67, 69
7, 69984, Note_off_c, 10, 67, 127
7, 69984, Note_on_c, 10, 66, 69
7, 70080, Note_off_c, 10, 66, 45
7, 70080, Note_on_c, 10, 64, 69
7, 70176, Note_off_c, 10, 64, 44
7, 70176, Note_on_c, 10, 62, 69
7, 70256, Note_off_c, 10, 62, 78
7, 70272, Note_on_c, 10, 62, 69
7, 70296, Note_off_c, 10, 62, 71
7, 70320, Note_on_c, 10, 60, 69
7, 70352, Note_off_c, 10, 60, 43
7, 70368, Note_on_c, 10, 59, 69
7, 70392, Note_off_c, 10, 59, 19
7, 70416, Note_on_c, 10, 60, 69
7, 70440, Note_off_c, 10, 60, 30
7, 70464, Note_on_c, 10, 64, 69
7, 70512, Note_off_c, 10, 64, 65
7, 70560, Note_on_c, 10, 60, 69
7, 70584, Note_off_c, 10, 60, 27
7, 70656, Note_on_c, 10, 58, 79
7, 70752, Note_off_c, 10, 58, 34
7, 70752, Note_on_c, 10, 59, 69
7, 70825, Note_off_c, 10, 59, 17
7, 70944, Note_on_c, 10, 59, 69
7, 70976, Note_off_c, 10, 59, 65
7, 70992, Note_on_c, 10, 60, 69
7, 71024, Note_off_c, 10, 60, 28
7, 71040, Note_on_c, 10, 62, 69
7, 71072, Note_off_c, 10, 62, 83
7, 71136, Note_on_c, 10, 64, 69
7, 71168, Note_off_c, 10, 64, 76
7, 71232, Note_on_c, 10, 66, 69
7, 71264, Note_off_c, 10, 66, 51
7, 71328, Note_on_c, 10, 67, 69
7, 71360, Note_off_c, 10, 67, 78
7, 71424, Note_on_c, 10, 67, 69
7, 71520, Note_off_c, 10, 67, 127
7, 71520, Note_on_c, 10, 66, 69
7, 71616, Note_off_c, 10, 66, 50
7, 71616, Note_on_c, 10, 64, 69
7, 71712, Note_off_c, 10, 64, 52
7, 71712, Note_on_c, 10, 62, 69
7, 71808, Note_off_c, 10, 62, 59
7, 71808, Note_on_c, 10, 62, 69
7, 71832, Note_off_c, 10, 62, 57
7, 71856, Note_on_c, 10, 60, 69
7, 71880, Note_off_c, 10, 60, 50
7, 71904, Note_on_c, 10, 59, 69
7, 71928, Note_off_c, 10, 59, 44
7, 71952, Note_on_c, 10, 60, 69
7, 71976, Note_off_c, 10, 60, 18
7, 72000, Note_on_c, 10, 64, 69
7, 72048, Note_off_c, 10, 64, 81
7, 72096, Note_on_c, 10, 60, 69
7, 72144, Note_off_c, 10, 60, 52
7, 72192, Note_on_c, 10, 59, 69
7, 72288, Note_off_c, 10, 59, 38
7, 72288, Note_on_c, 10, 67, 69
7, 72471, Note_off_c, 10, 67, 1
7, 72480, Note_on_c, 10, 65, 69
7, 72672, Note_off_c, 10, 65, 66
7, 72672, Note_on_c, 10, 64, 69
7, 72862, Note_off_c, 10, 64, 47
7, 72864, Note_on_c, 10, 62, 69
7, 73056, Note_on_c, 10, 60, 69
7, 73062, Note_off_c, 10, 62, 68
7, 73248, Note_off_c, 10, 60, 4
7, 73248, Note_on_c, 10, 67, 69
7, 73440, Note_on_c, 10, 65, 69
7, 73454, Note_off_c, 10, 67, 56
7, 73631, Note_off_c, 10, 65, 66
7, 73632, Note_on_c, 10, 64, 69
7, 73820, Note_off_c, 10, 64, 62
7, 73824, Note_on_c, 10, 62, 69
7, 74004, Note_off_c, 10, 62, 40
7, 74016, Note_on_c, 10, 67, 69
7, 74192, Note_off_c, 10, 67, 34
7, 74208, Note_on_c, 10, 65, 69
7, 74367, Note_off_c, 10, 65, 18
7, 74400, Note_on_c, 10, 63, 69
7, 74496, Note_off_c, 10, 63, 57
7, 74496, Note_on_c, 10, 64, 89
7, 74544, Note_off_c, 10, 64, 68
7, 74592, Note_on_c, 10, 67, 89
7, 74616, Note_off_c, 10, 67, 77
7, 74688, Note_on_c, 10, 72, 89
7, 74736, Note_off_c, 10, 72, 47
7, 74784, Note_on_c, 10, 76, 89
7, 74832, Note_off_c, 10, 76, 59
7, 74880, Note_on_c, 10, 74, 89
7, 75048, Note_off_c, 10, 74, 41
7, 75264, Note_on_c, 10, 64, 109
7, 75288, Note_off_c, 10, 64, 72
7, 75360, Note_on_c, 10, 67, 115
7, 75384, Note_off_c, 10, 67, 82
7, 75456, Note_on_c, 10, 72, 105
7, 75480, Note_off_c, 10, 72, 57
7, 75552, Note_on_c, 10, 76, 113
7, 75576, Note_off_c, 10, 76, 76
7, 75648, Note_on_c, 10, 74, 107
7, 75802, Note_off_c, 10, 74, 40
7, 76224, Note_on_c, 10, 72, 83
7, 76224, Note_on_c, 10, 64, 89
7, 76346, Note_off_c, 10, 64, 60
7, 76357, Note_off_c, 10, 72, 62
7, 76608, Note_on_c, 10, 62, 87
7, 76608, Note_on_c, 10, 72, 93
7, 76740, Note_off_c, 10, 62, 39
7, 76741, Note_off_c, 10, 72, 52
7, 76992, Note_on_c, 10, 71, 89
7, 76992, Note_on_c, 10, 62, 85
7, 77123, Note_off_c, 10, 71, 41
7, 77127, Note_off_c, 10, 62, 12
7, 77376, Note_on_c, 10, 71, 107
7, 77376, Note_on_c, 10, 64, 113
7, 77496, Note_off_c, 10, 64, 69
7, 77520, Note_off_c, 10, 71, 44
7, 77568, Note_on_c, 10, 69, 101
7, 77780, Note_off_c, 10, 69, 40
7, 77856, Note_on_c, 10, 76, 113
7, 77882, Note_off_c, 10, 76, 77
7, 77952, Note_on_c, 10, 74, 113
7, 77979, Note_off_c, 10, 74, 83
7, 78048, Note_on_c, 10, 72, 77
7, 78072, Note_off_c, 10, 72, 66
7, 78144, Note_on_c, 10, 71, 77
7, 78169, Note_off_c, 10, 71, 56
7, 78240, Note_on_c, 10, 69, 83
7, 78269, Note_off_c, 10, 69, 68
7, 78336, Note_on_c, 10, 67, 95
7, 78362, Note_off_c, 10, 67, 81
7, 78432, Note_on_c, 10, 69, 95
7, 78455, Note_off_c, 10, 69, 75
7, 78528, Note_on_c, 10, 71, 91
7, 78548, Note_off_c, 10, 71, 66
7, 78624, Note_on_c, 10, 72, 89
7, 78652, Note_off_c, 10, 72, 60
7, 78720, Note_on_c, 10, 74, 122
7, 78835, Note_off_c, 10, 74, 66
7, 80640, Note_on_c, 10, 76, 63
7, 81024, Note_on_c, 10, 74, 81
7, 81064, Note_off_c, 10, 74, 65
7, 81080, Note_off_c, 10, 76, 68
7, 81120, Note_on_c, 10, 72, 77
7, 81145, Note_off_c, 10, 72, 67
7, 81216, Note_on_c, 10, 71, 71
7, 81242, Note_off_c, 10, 71, 63
7, 81312, Note_on_c, 10, 69, 77
7, 81335, Note_off_c, 10, 69, 67
7, 81408, Note_on_c, 10, 67, 103
7, 81496, Note_off_c, 10, 67, 76
7, 84480, Program_c, 10, 45
7, 84864, Note_on_c, 10, 79, 65
7, 84889, Note_off_c, 10, 79, 74
7, 85056, Note_on_c, 10, 78, 65
7, 85084, Note_off_c, 10, 78, 44
7, 85248, Note_on_c, 10, 79, 65
7, 85358, Note_off_c, 10, 79, 64
7, 85632, Note_on_c, 10, 79, 65
7, 85656, Note_off_c, 10, 79, 76
7, 85728, Note_on_c, 10, 79, 65
7, 85753, Note_off_c, 10, 79, 71
7, 85824, Note_on_c, 10, 78, 65
7, 85843, Note_off_c, 10, 78, 57
7, 85920, Note_on_c, 10, 78, 65
7, 85949, Note_off_c, 10, 78, 56
7, 86016, Note_on_c, 10, 79, 65
7, 86134, Note_off_c, 10, 79, 57
7, 86400, Note_on_c, 10, 79, 65
7, 86429, Note_off_c, 10, 79, 67
7, 86592, Note_on_c, 10, 78, 65
7, 86622, Note_off_c, 10, 78, 45
7, 86784, Note_on_c, 10, 79, 65
7, 86807, Note_off_c, 10, 79, 72
7, 86976, Note_on_c, 10, 81, 65
7, 86998, Note_off_c, 10, 81, 68
7, 87168, Note_on_c, 10, 83, 65
7, 87195, Note_off_c, 10, 83, 57
7, 87360, Note_on_c, 10, 81, 65
7, 87390, Note_off_c, 10, 81, 80
7, 87552, Note_on_c, 10, 79, 65
7, 87619, Note_off_c, 10, 79, 44
7, 87936, Note_on_c, 10, 76, 65
7, 87993, Note_off_c, 10, 76, 71
7, 88320, Note_on_c, 10, 74, 65
7, 88351, Note_off_c, 10, 74, 75
7, 88512, Note_on_c, 10, 71, 65
7, 88534, Note_off_c, 10, 71, 64
7, 88704, Note_on_c, 10, 69, 65
7, 88727, Note_off_c, 10, 69, 64
7, 88896, Note_on_c, 10, 72, 65
7, 88922, Note_off_c, 10, 72, 58
7, 88944, Program_c, 10, 48
7, 89952, Note_on_c, 10, 71, 73
7, 89976, Note_off_c, 10, 71, 31
7, 90048, Note_on_c, 10, 71, 65
7, 90072, Note_off_c, 10, 71, 36
7, 90144, Note_on_c, 10, 71, 65
7, 90168, Note_off_c, 10, 71, 46
7, 90240, Note_on_c, 10, 71, 73
7, 90264, Note_off_c, 10, 71, 50
7, 90336, Note_on_c, 10, 71, 75
7, 90360, Note_off_c, 10, 71, 44
7, 90432, Note_on_c, 10, 71, 77
7, 90456, Note_off_c, 10, 71, 41
7, 90528, Note_on_c, 10, 71, 75
7, 90552, Note_off_c, 10, 71, 33
7, 90624, Note_on_c, 10, 69, 79
7, 90648, Note_off_c, 10, 69, 64
7, 90672, Note_on_c, 10, 69, 79
7, 90696, Note_off_c, 10, 69, 78
7, 90720, Note_on_c, 10, 69, 79
7, 90744, Note_off_c, 10, 69, 81
7, 90768, Note_on_c, 10, 69, 79
7, 90792, Note_off_c, 10, 69, 85
7, 90816, Note_on_c, 10, 69, 89
7, 90840, Note_off_c, 10, 69, 92
7, 90864, Note_on_c, 10, 69, 89
7, 90888, Note_off_c, 10, 69, 91
7, 90912, Note_on_c, 10, 69, 89
7, 90936, Note_off_c, 10, 69, 75
7, 90960, Note_on_c, 10, 69, 89
7, 90984, Note_off_c, 10, 69, 76
7, 91008, Note_on_c, 10, 72, 99
7, 91032, Note_off_c, 10, 72, 63
7, 91056, Note_on_c, 10, 72, 99
7, 91080, Note_off_c, 10, 72, 64
7, 91104, Note_on_c, 10, 72, 99
7, 91128, Note_off_c, 10, 72, 63
7, 91152, Note_on_c, 10, 72, 99
7, 91176, Note_off_c, 10, 72, 68
7, 91200, Note_on_c, 10, 78, 109
7, 91224, Note_off_c, 10, 78, 64
7, 91248, Note_on_c, 10, 78, 109
7, 91272, Note_off_c, 10, 78, 69
7, 91296, Note_on_c, 10, 78, 109
7, 91320, Note_off_c, 10, 78, 67
7, 91344, Note_on_c, 10, 78, 109
7, 91368, Note_off_c, 10, 78, 69
7, 91392, Note_on_c, 10, 79, 110
7, 91536, Note_off_c, 10, 79, 81
7, 91584, Note_on_c, 10, 79, 104
7, 91632, Note_off_c, 10, 79, 78
7, 91776, Note_on_c, 10, 78, 101
7, 91824, Note_off_c, 10, 78, 77
7, 91968, Note_on_c, 10, 76, 114
7, 92016, Note_off_c, 10, 76, 78
7, 92160, Note_on_c, 10, 74, 97
7, 92424, Note_on_c, 10, 72, 95
7, 92441, Note_off_c, 10, 74, 59
7, 92544, Note_off_c, 10, 72, 61
7, 92544, Note_on_c, 10, 71, 99
7, 92640, Note_off_c, 10, 71, 63
7, 93120, Note_on_c, 10, 76, 61
7, 93168, Note_off_c, 10, 76, 74
7, 93312, Note_on_c, 10, 74, 61
7, 93384, Note_off_c, 10, 74, 84
7, 93504, Note_on_c, 10, 72, 67
7, 93576, Note_off_c, 10, 72, 66
7, 93696, Note_on_c, 10, 71, 63
7, 93984, Note_off_c, 10, 71, 1
7, 93984, Note_on_c, 10, 69, 63
7, 94080, Note_off_c, 10, 69, 62
7, 94080, Note_on_c, 10, 67, 65
7, 94152, Note_off_c, 10, 67, 52
7, 94464, Note_on_c, 10, 62, 79
7, 94464, Note_on_c, 10, 72, 77
7, 94608, Note_off_c, 10, 62, 91
7, 94608, Note_off_c, 10, 72, 88
7, 94656, Note_on_c, 10, 84, 79
7, 94656, Note_on_c, 10, 74, 58
7, 94992, Note_off_c, 10, 84, 56
7, 94992, Note_off_c, 10, 74, 82
7, 95040, Note_on_c, 10, 62, 65
7, 95040, Note_on_c, 10, 72, 85
7, 95184, Note_off_c, 10, 62, 59
7, 95184, Note_off_c, 10, 72, 37
7, 95232, Note_on_c, 10, 62, 73
7, 95232, Note_on_c, 10, 71, 89
7, 95376, Note_off_c, 10, 62, 90
7, 95376, Note_off_c, 10, 71, 82
7, 95424, Note_on_c, 10, 74, 56
7, 95424, Note_on_c, 10, 83, 91
7, 95760, Note_off_c, 10, 74, 83
7, 95760, Note_off_c, 10, 83, 65
7, 95808, Note_on_c, 10, 62, 31
7, 95808, Note_on_c, 10, 71, 73
7, 96000, Note_off_c, 10, 62, 58
7, 96000, Note_off_c, 10, 71, 64
7, 96000, Note_on_c, 10, 69, 101
7, 96128, Note_off_c, 10, 69, 39
7, 96192, Note_on_c, 10, 78, 71
7, 96240, Note_on_c, 10, 76, 91
7, 96254, Note_off_c, 10, 78, 50
7, 96288, Note_on_c, 10, 74, 95
7, 96299, Note_off_c, 10, 76, 62
7, 96336, Note_on_c, 10, 72, 75
7, 96340, Note_off_c, 10, 74, 87
7, 96372, Note_off_c, 10, 72, 12
7, 96384, Note_on_c, 10, 71, 91
7, 96556, Note_off_c, 10, 71, 1
7, 96576, Note_on_c, 10, 69, 101
7, 96665, Note_off_c, 10, 69, 75
7, 96768, Note_on_c, 10, 86, 79
7, 96804, Note_off_c, 10, 86, 64
7, 96816, Note_on_c, 10, 84, 79
7, 96852, Note_off_c, 10, 84, 64
7, 96864, Note_on_c, 10, 83, 79
7, 96900, Note_off_c, 10, 83, 64
7, 96912, Note_on_c, 10, 81, 79
7, 96948, Note_off_c, 10, 81, 64
7, 96960, Note_on_c, 10, 79, 79
7, 96996, Note_off_c, 10, 79, 64
7, 97008, Note_on_c, 10, 78, 79
7, 97044, Note_off_c, 10, 78, 64
7, 97056, Note_on_c, 10, 76, 79
7, 97092, Note_off_c, 10, 76, 64
7, 97104, Note_on_c, 10, 74, 79
7, 97140, Note_off_c, 10, 74, 64
7, 97152, Note_on_c, 10, 76, 79
7, 97188, Note_off_c, 10, 76, 64
7, 97248, Note_on_c, 10, 79, 79
7, 97284, Note_off_c, 10, 79, 64
7, 97344, Note_on_c, 10, 84, 79
7, 97380, Note_off_c, 10, 84, 64
7, 97440, Note_on_c, 10, 88, 79
7, 97476, Note_off_c, 10, 88, 64
7, 97536, Note_on_c, 10, 62, 79
7, 97728, Note_off_c, 10, 62, 64
7, 97728, Note_on_c, 10, 86, 79
7, 97920, Note_off_c, 10, 86, 64
7, 98016, Note_on_c, 10, 88, 79
7, 98052, Note_off_c, 10, 88, 64
7, 98064, Note_on_c, 10, 86, 79
7, 98100, Note_off_c, 10, 86, 64
7, 98112, Note_on_c, 10, 84, 79
7, 98148, Note_off_c, 10, 84, 64
7, 98208, Note_on_c, 10, 83, 79
7, 98244, Note_off_c, 10, 83, 64
7, 98304, Note_on_c, 10, 83, 79
7, 98424, Note_off_c, 10, 83, 64
7, 98448, Note_on_c, 10, 81, 79
7, 98484, Note_off_c, 10, 81, 64
7, 98496, Note_on_c, 10, 79, 79
7, 98832, Note_off_c, 10, 79, 64
7, 98880, Note_on_c, 10, 78, 79
7, 99048, Note_off_c, 10, 78, 64
7, 99072, Note_on_c, 10, 79, 79
7, 99144, Note_off_c, 10, 79, 64
7, 99360, Note_on_c, 10, 67, 59
7, 99408, Note_off_c, 10, 67, 64
7, 99552, Note_on_c, 10, 66, 59
7, 99600, Note_off_c, 10, 66, 64
7, 99744, Note_on_c, 10, 64, 59
7, 99792, Note_off_c, 10, 64, 64
7, 99840, Note_on_c, 10, 63, 79
7, 99888, Note_off_c, 10, 63, 64
7, 99936, Note_on_c, 10, 63, 79
7, 99984, Note_off_c, 10, 63, 64
7, 100128, Note_on_c, 10, 64, 59
7, 100176, Note_off_c, 10, 64, 64
7, 100320, Note_on_c, 10, 62, 59
7, 100368, Note_off_c, 10, 62, 64
7, 100512, Note_on_c, 10, 60, 59
7, 100560, Note_off_c, 10, 60, 64
7, 100608, Note_on_c, 10, 59, 79
7, 100656, Note_off_c, 10, 59, 64
7, 100704, Note_on_c, 10, 59, 79
7, 100752, Note_off_c, 10, 59, 64
7, 100896, Note_on_c, 10, 60, 59
7, 100944, Note_off_c, 10, 60, 64
7, 101088, Note_on_c, 10, 59, 59
7, 101136, Note_off_c, 10, 59, 64
7, 101280, Note_on_c, 10, 57, 59
7, 101328, Note_off_c, 10, 57, 64
7, 101472, Note_on_c, 10, 56, 49
7, 101568, Note_on_c, 10, 59, 49
7, 101577, Note_off_c, 10, 56, 36
7, 101657, Note_off_c, 10, 59, 3
7, 101664, Note_on_c, 10, 64, 49
7, 101760, Note_off_c, 10, 64, 24
7, 101856, Note_on_c, 10, 56, 49
7, 101952, Note_on_c, 10, 59, 49
7, 101960, Note_off_c, 10, 56, 28
7, 102048, Note_on_c, 10, 64, 49
7, 102063, Note_off_c, 10, 59, 55
7, 102144, Note_off_c, 10, 64, 48
7, 102240, Note_on_c, 10, 57, 49
7, 102336, Note_on_c, 10, 60, 49
7, 102359, Note_off_c, 10, 57, 65
7, 102432, Note_on_c, 10, 64, 49
7, 102455, Note_off_c, 10, 60, 26
7, 102528, Note_off_c, 10, 64, 76
7, 102624, Note_on_c, 10, 57, 49
7, 102720, Note_on_c, 10, 60, 49
7, 102752, Note_off_c, 10, 57, 55
7, 102816, Note_on_c, 10, 64, 49
7, 102845, Note_off_c, 10, 60, 39
7, 102888, Note_off_c, 10, 64, 70
7, 103008, Note_on_c, 10, 59, 49
7, 103104, Note_on_c, 10, 62, 49
7, 103130, Note_off_c, 10, 59, 21
7, 103200, Note_on_c, 10, 64, 49
7, 103223, Note_off_c, 10, 62, 65
7, 103272, Note_off_c, 10, 64, 76
7, 103392, Note_on_c, 10, 59, 49
7, 103488, Note_on_c, 10, 64, 49
7, 103502, Note_off_c, 10, 59, 42
7, 103584, Note_on_c, 10, 68, 49
7, 103606, Note_off_c, 10, 64, 51
7, 103658, Note_off_c, 10, 68, 72
7, 103776, Note_on_c, 10, 60, 49
7, 103872, Note_on_c, 10, 64, 49
7, 103897, Note_off_c, 10, 60, 17
7, 103966, Note_off_c, 10, 64, 58
7, 103968, Note_on_c, 10, 69, 49
7, 104064, Note_off_c, 10, 69, 62
7, 104160, Note_on_c, 10, 60, 49
7, 104256, Note_on_c, 10, 64, 49
7, 104276, Note_off_c, 10, 60, 32
7, 104352, Note_on_c, 10, 69, 49
7, 104356, Note_off_c, 10, 64, 47
7, 104424, Note_off_c, 10, 69, 80
7, 104640, Note_on_c, 10, 74, 69
7, 104832, Note_on_c, 10, 72, 69
7, 104836, Note_off_c, 10, 74, 57
7, 105024, Note_on_c, 10, 71, 69
7, 105051, Note_off_c, 10, 72, 59
7, 105216, Note_on_c, 10, 72, 69
7, 105236, Note_off_c, 10, 71, 55
7, 105264, Note_off_c, 10, 72, 61
7, 105408, Note_on_c, 10, 68, 69
7, 105456, Note_off_c, 10, 68, 62
7, 105600, Note_on_c, 10, 69, 69
7, 105727, Note_off_c, 10, 69, 95
7, 105984, Note_on_c, 10, 65, 69
7, 106272, Note_on_c, 10, 74, 69
7, 106273, Note_off_c, 10, 65, 40
7, 106349, Note_off_c, 10, 74, 47
7, 106368, Note_on_c, 10, 72, 69
7, 106536, Note_off_c, 10, 72, 74
7, 106560, Note_on_c, 10, 71, 69
7, 106728, Note_off_c, 10, 71, 59
7, 106752, Note_on_c, 10, 69, 74
7, 106789, Note_off_c, 10, 69, 81
7, 106848, Note_on_c, 10, 69, 72
7, 106892, Note_off_c, 10, 69, 81
7, 107040, Note_on_c, 10, 72, 47
7, 107112, Note_off_c, 10, 72, 64
7, 107232, Note_on_c, 10, 71, 49
7, 107280, Note_off_c, 10, 71, 59
7, 107424, Note_on_c, 10, 69, 43
7, 107472, Note_off_c, 10, 69, 82
7, 107520, Note_on_c, 10, 68, 71
7, 107560, Note_off_c, 10, 68, 69
7, 107616, Note_on_c, 10, 68, 71
7, 107656, Note_off_c, 10, 68, 60
7, 107808, Note_on_c, 10, 69, 50
7, 107851, Note_off_c, 10, 69, 39
7, 108000, Note_on_c, 10, 67, 45
7, 108038, Note_off_c, 10, 67, 71
7, 108192, Note_on_c, 10, 65, 49
7, 108251, Note_off_c, 10, 65, 36
7, 108288, Note_on_c, 10, 64, 70
7, 108324, Note_off_c, 10, 64, 72
7, 108384, Note_on_c, 10, 64, 71
7, 108420, Note_off_c, 10, 64, 72
7, 108576, Note_on_c, 10, 65, 47
7, 108618, Note_off_c, 10, 65, 65
7, 108768, Note_on_c, 10, 64, 53
7, 108800, Note_off_c, 10, 64, 67
7, 108960, Note_on_c, 10, 62, 51
7, 109001, Note_off_c, 10, 62, 74
7, 109152, Note_on_c, 10, 61, 49
7, 109248, Note_on_c, 10, 64, 49
7, 109268, Note_off_c, 10, 61, 40
7, 109344, Note_on_c, 10, 69, 49
7, 109349, Note_off_c, 10, 64, 39
7, 109440, Note_off_c, 10, 69, 73
7, 109536, Note_on_c, 10, 61, 49
7, 109632, Note_on_c, 10, 64, 49
7, 109636, Note_off_c, 10, 61, 42
7, 109728, Note_on_c, 10, 69, 49
7, 109745, Note_off_c, 10, 64, 30
7, 109800, Note_off_c, 10, 69, 65
7, 109920, Note_on_c, 10, 62, 49
7, 110016, Note_on_c, 10, 65, 49
7, 110028, Note_off_c, 10, 62, 58
7, 110112, Note_on_c, 10, 69, 49
7, 110130, Note_off_c, 10, 65, 66
7, 110208, Note_off_c, 10, 69, 49
7, 110304, Note_on_c, 10, 62, 49
7, 110400, Note_off_c, 10, 62, 53
7, 110400, Note_on_c, 10, 65, 49
7, 110496, Note_off_c, 10, 65, 48
7, 110496, Note_on_c, 10, 69, 49
7, 110592, Note_off_c, 10, 69, 75
7, 110688, Note_on_c, 10, 64, 49
7, 110760, Note_off_c, 10, 64, 19
7, 110784, Note_on_c, 10, 67, 49
7, 110880, Note_off_c, 10, 67, 51
7, 110880, Note_on_c, 10, 70, 49
7, 110976, Note_off_c, 10, 70, 58
7, 111072, Note_on_c, 10, 64, 49
7, 111168, Note_on_c, 10, 73, 49
7, 111179, Note_off_c, 10, 64, 12
7, 111264, Note_on_c, 10, 76, 49
7, 111273, Note_off_c, 10, 73, 25
7, 111360, Note_off_c, 10, 76, 50
7, 111456, Note_on_c, 10, 69, 59
7, 111528, Note_off_c, 10, 69, 61
7, 111552, Note_on_c, 10, 81, 59
7, 111600, Note_off_c, 10, 81, 67
7, 111648, Note_on_c, 10, 77, 59
7, 111696, Note_off_c, 10, 77, 73
7, 111744, Note_on_c, 10, 74, 59
7, 111792, Note_off_c, 10, 74, 89
7, 111840, Note_on_c, 10, 69, 59
7, 111888, Note_off_c, 10, 69, 80
7, 111936, Note_on_c, 10, 65, 59
7, 112008, Note_off_c, 10, 65, 78
7, 112032, Note_on_c, 10, 62, 59
7, 112104, Note_off_c, 10, 62, 64
7, 112320, Note_on_c, 10, 70, 38
7, 112512, Note_on_c, 10, 69, 63
7, 112518, Note_off_c, 10, 70, 11
7, 112704, Note_on_c, 10, 67, 57
7, 112729, Note_off_c, 10, 69, 60
7, 112896, Note_on_c, 10, 65, 73
7, 112905, Note_off_c, 10, 67, 90
7, 112946, Note_off_c, 10, 65, 73
7, 113088, Note_on_c, 10, 61, 45
7, 113130, Note_off_c, 10, 61, 45
7, 113280, Note_on_c, 10, 62, 45
7, 113342, Channel_aftertouch_c, 10, 5
7, 113362, Channel_aftertouch_c, 10, 10
7, 113390, Channel_aftertouch_c, 10, 13
7, 113401, Channel_aftertouch_c, 10, 15
7, 113449, Channel_aftertouch_c, 10, 10
7, 113458, Channel_aftertouch_c, 10, 0
7, 113495, Note_off_c, 10, 62, 73
7, 113664, Note_on_c, 10, 67, 61
7, 113948, Note_off_c, 10, 67, 72
7, 113952, Note_on_c, 10, 69, 73
7, 113991, Note_off_c, 10, 69, 50
7, 114000, Note_on_c, 10, 70, 57
7, 114048, Note_off_c, 10, 70, 72
7, 114060, Note_on_c, 10, 65, 79
7, 114180, Note_off_c, 10, 65, 1
7, 114224, Note_on_c, 10, 64, 71
7, 114238, Note_off_c, 10, 64, 54
7, 114251, Note_on_c, 10, 65, 74
7, 114277, Note_off_c, 10, 65, 39
7, 114277, Note_on_c, 10, 64, 73
7, 114298, Note_off_c, 10, 64, 72
7, 114304, Note_on_c, 10, 65, 65
7, 114330, Note_on_c, 10, 64, 74
7, 114342, Note_off_c, 10, 65, 88
7, 114357, Note_off_c, 10, 64, 60
7, 114364, Note_on_c, 10, 65, 70
7, 114386, Note_on_c, 10, 64, 69
7, 114405, Note_off_c, 10, 65, 93
7, 114420, Note_off_c, 10, 64, 92
7, 114432, Note_on_c, 10, 62, 80
7, 114466, Channel_aftertouch_c, 10, 5
7, 114485, Channel_aftertouch_c, 10, 2
7, 114495, Channel_aftertouch_c, 10, 4
7, 114515, Channel_aftertouch_c, 10, 6
7, 114524, Channel_aftertouch_c, 10, 0
7, 114672, Note_off_c, 10, 62, 66
7, 116759, Note_on_c, 10, 65, 75
7, 118166, Note_off_c, 10, 65, 27
7, 118286, Note_on_c, 10, 64, 91
7, 118987, Note_off_c, 10, 64, 1
7, 119044, Note_on_c, 10, 69, 89
7, 119166, Note_off_c, 10, 69, 91
7, 121344, Note_on_c, 10, 79, 69
7, 121632, Note_on_c, 10, 75, 69
7, 121636, Note_off_c, 10, 79, 73
7, 121728, Note_on_c, 10, 79, 69
7, 121732, Note_off_c, 10, 75, 29
7, 121767, Note_off_c, 10, 79, 80
7, 121920, Note_on_c, 10, 75, 69
7, 121957, Note_off_c, 10, 75, 70
7, 122112, Note_on_c, 10, 74, 69
7, 122208, Note_off_c, 10, 74, 85
7, 122880, Note_on_c, 10, 79, 69
7, 123168, Note_on_c, 10, 75, 69
7, 123178, Note_off_c, 10, 79, 58
7, 123240, Note_off_c, 10, 75, 53
7, 123264, Note_on_c, 10, 79, 69
7, 123312, Note_off_c, 10, 79, 74
7, 123456, Note_on_c, 10, 75, 69
7, 123504, Note_off_c, 10, 75, 80
7, 123648, Note_on_c, 10, 74, 69
7, 123710, Note_off_c, 10, 74, 89
7, 125280, Note_on_c, 10, 79, 79
7, 125376, Note_on_c, 10, 78, 79
7, 125383, Note_off_c, 10, 79, 59
7, 125468, Note_off_c, 10, 78, 44
7, 125472, Note_on_c, 10, 79, 79
7, 125544, Note_off_c, 10, 79, 84
7, 126048, Note_on_c, 10, 79, 79
7, 126144, Note_off_c, 10, 79, 77
7, 126144, Note_on_c, 10, 78, 79
7, 126228, Note_off_c, 10, 78, 66
7, 126240, Note_on_c, 10, 79, 79
7, 126314, Note_off_c, 10, 79, 86
7, 126814, Note_on_c, 10, 62, 93
7, 126847, Note_off_c, 10, 62, 83
7, 126914, Note_on_c, 10, 62, 101
7, 126941, Note_off_c, 10, 62, 81
7, 127006, Note_on_c, 10, 62, 107
7, 127038, Note_off_c, 10, 62, 81
7, 127202, Note_on_c, 10, 64, 107
7, 127228, Note_off_c, 10, 64, 76
7, 127295, Note_on_c, 10, 64, 124
7, 127321, Note_off_c, 10, 64, 84
7, 127389, Note_on_c, 10, 64, 124
7, 127417, Note_off_c, 10, 64, 68
7, 127580, Note_on_c, 10, 65, 124
7, 127616, Note_off_c, 10, 65, 96
7, 127678, Note_on_c, 10, 65, 1
7, 127708, Note_off_c, 10, 65, 90
7, 127770, Note_on_c, 10, 65, 1
7, 127807, Note_off_c, 10, 65, 89
7, 127960, Note_on_c, 10, 67, 1
7, 127993, Note_off_c, 10, 67, 98
7, 128060, Note_on_c, 10, 67, 1
7, 128087, Note_off_c, 10, 67, 93
7, 128154, Note_on_c, 10, 67, 1
7, 128186, Note_off_c, 10, 67, 80
7, 128340, Note_on_c, 10, 69, 119
7, 128378, Note_off_c, 10, 69, 83
7, 128436, Note_on_c, 10, 69, 1
7, 128467, Note_off_c, 10, 69, 87
7, 128527, Note_on_c, 10, 69, 1
7, 128559, Note_off_c, 10, 69, 80
7, 128738, Note_on_c, 10, 71, 107
7, 128741, Note_on_c, 10, 62, 107
7, 128769, Note_off_c, 10, 62, 94
7, 128775, Note_off_c, 10, 71, 80
7, 128828, Note_on_c, 10, 71, 124
7, 128829, Note_on_c, 10, 62, 124
7, 128854, Note_off_c, 10, 62, 94
7, 128867, Note_off_c, 10, 71, 66
7, 128914, Note_on_c, 10, 71, 87
7, 128915, Note_on_c, 10, 62, 95
7, 128944, Note_off_c, 10, 62, 72
7, 128963, Note_off_c, 10, 71, 46
7, 129024, Note_on_c, 10, 84, 73
7, 129264, Note_off_c, 10, 84, 14
7, 129312, Note_on_c, 10, 79, 95
7, 129360, Note_off_c, 10, 79, 64
7, 129408, Note_on_c, 10, 76, 85
7, 129456, Note_off_c, 10, 76, 62
7, 129504, Note_on_c, 10, 72, 87
7, 129552, Note_off_c, 10, 72, 49
7, 129600, Note_on_c, 10, 76, 91
7, 129648, Note_off_c, 10, 76, 25
7, 129696, Note_on_c, 10, 79, 95
7, 129744, Note_off_c, 10, 79, 55
7, 129792, Note_on_c, 10, 84, 91
7, 130008, Note_off_c, 10, 84, 24
7, 130080, Note_on_c, 10, 79, 95
7, 130128, Note_off_c, 10, 79, 56
7, 130176, Note_on_c, 10, 76, 91
7, 130224, Note_off_c, 10, 76, 48
7, 130272, Note_on_c, 10, 72, 79
7, 130320, Note_off_c, 10, 72, 33
7, 130368, Note_on_c, 10, 76, 93
7, 130440, Note_off_c, 10, 76, 51
7, 130464, Note_on_c, 10, 79, 73
7, 130512, Note_off_c, 10, 79, 46
7, 130560, Note_on_c, 10, 84, 81
7, 130680, Note_off_c, 10, 84, 53
7, 130848, Note_on_c, 10, 60, 75
7, 130896, Note_off_c, 10, 60, 43
7, 131040, Note_on_c, 10, 59, 83
7, 131088, Note_off_c, 10, 59, 63
7, 131232, Note_on_c, 10, 60, 89
7, 131280, Note_off_c, 10, 60, 56
7, 131328, Note_on_c, 10, 62, 119
7, 131376, Note_off_c, 10, 62, 90
7, 131424, Note_on_c, 10, 62, 119
7, 131461, Note_off_c, 10, 62, 52
7, 131616, Note_on_c, 10, 62, 85
7, 131664, Note_off_c, 10, 62, 74
7, 131808, Note_on_c, 10, 61, 77
7, 131856, Note_off_c, 10, 61, 70
7, 132000, Note_on_c, 10, 62, 93
7, 132048, Note_off_c, 10, 62, 76
7, 132096, Note_on_c, 10, 64, 81
7, 132144, Note_off_c, 10, 64, 78
7, 132192, Note_on_c, 10, 64, 119
7, 132240, Note_off_c, 10, 64, 70
7, 132384, Note_on_c, 10, 64, 95
7, 132432, Note_off_c, 10, 64, 64
7, 132576, Note_on_c, 10, 63, 73
7, 132624, Note_off_c, 10, 63, 64
7, 132768, Note_on_c, 10, 64, 85
7, 132816, Note_off_c, 10, 64, 67
7, 132960, Note_on_c, 10, 65, 119
7, 133008, Note_off_c, 10, 65, 84
7, 133152, Note_on_c, 10, 67, 107
7, 133200, Note_off_c, 10, 67, 76
7, 133344, Note_on_c, 10, 69, 107
7, 133392, Note_off_c, 10, 69, 70
7, 133536, Note_on_c, 10, 71, 87
7, 133584, Note_off_c, 10, 71, 65
7, 133632, Note_on_c, 10, 72, 87
7, 133824, Note_off_c, 10, 72, 8
7, 142176, Note_on_c, 10, 67, 104
7, 142201, Note_off_c, 10, 67, 91
7, 142272, Note_on_c, 10, 69, 104
7, 142297, Note_off_c, 10, 69, 74
7, 142368, Note_on_c, 10, 71, 104
7, 142395, Note_off_c, 10, 71, 80
7, 142464, Note_on_c, 10, 72, 104
7, 142489, Note_off_c, 10, 72, 70
7, 142560, Note_on_c, 10, 74, 104
7, 142584, Note_off_c, 10, 74, 87
7, 142656, Note_on_c, 10, 76, 104
7, 142679, Note_off_c, 10, 76, 89
7, 142752, Note_on_c, 10, 78, 104
7, 142774, Note_off_c, 10, 78, 81
7, 142871, Note_on_c, 10, 79, 1
7, 142893, Note_off_c, 10, 79, 92
7, 142944, Note_on_c, 10, 81, 98
7, 142963, Note_on_c, 10, 79, 1
7, 142976, Note_off_c, 10, 81, 64
7, 142990, Note_off_c, 10, 79, 63
7, 142998, Note_on_c, 10, 78, 104
7, 143018, Note_on_c, 10, 79, 120
7, 143022, Note_off_c, 10, 78, 75
7, 143051, Note_on_c, 10, 83, 126
7, 143070, Note_off_c, 10, 79, 96
7, 143131, Note_off_c, 10, 83, 2
7, 143154, Note_on_c, 10, 79, 112
7, 143186, Note_off_c, 10, 79, 81
7, 143232, Note_on_c, 10, 74, 114
7, 143296, Note_off_c, 10, 74, 75
7, 143343, Note_on_c, 10, 79, 120
7, 143375, Note_off_c, 10, 79, 92
7, 143424, Note_on_c, 10, 71, 98
7, 143472, Note_off_c, 10, 71, 64
7, 143532, Note_on_c, 10, 74, 120
7, 143564, Note_off_c, 10, 74, 88
7, 143639, Note_on_c, 10, 67, 1
7, 143661, Note_off_c, 10, 67, 92
7, 143712, Note_on_c, 10, 69, 98
7, 143731, Note_on_c, 10, 67, 1
7, 143744, Note_off_c, 10, 69, 64
7, 143758, Note_off_c, 10, 67, 63
7, 143766, Note_on_c, 10, 66, 104
7, 143786, Note_on_c, 10, 67, 120
7, 143790, Note_off_c, 10, 66, 75
7, 143819, Note_on_c, 10, 71, 126
7, 143838, Note_off_c, 10, 67, 96
7, 143915, Note_off_c, 10, 71, 2
7, 143922, Note_on_c, 10, 67, 112
7, 143954, Note_off_c, 10, 67, 81
7, 144000, Note_on_c, 10, 62, 114
7, 144048, Note_off_c, 10, 62, 75
7, 144111, Note_on_c, 10, 67, 120
7, 144143, Note_off_c, 10, 67, 92
7, 144192, Note_on_c, 10, 59, 98
7, 144240, Note_off_c, 10, 59, 64
7, 144300, Note_on_c, 10, 62, 120
7, 144332, Note_off_c, 10, 62, 88
7, 144384, Note_on_c, 10, 55, 123
7, 144480, Note_off_c, 10, 55, 76
7, 150624, Note_on_c, 10, 76, 64
7, 150672, Note_off_c, 10, 76, 60
7, 150720, Note_on_c, 10, 76, 64
7, 150768, Note_off_c, 10, 76, 65
7, 150816, Note_on_c, 10, 76, 64
7, 150864, Note_off_c, 10, 76, 77
7, 150912, Note_on_c, 10, 76, 64
7, 150960, Note_off_c, 10, 76, 76
7, 151008, Note_on_c, 10, 76, 64
7, 151104, Note_on_c, 10, 74, 64
7, 151122, Note_off_c, 10, 76, 67
7, 151200, Note_on_c, 10, 72, 64
7, 151206, Note_off_c, 10, 74, 81
7, 151274, Note_off_c, 10, 72, 17
7, 151296, Note_on_c, 10, 69, 64
7, 151368, Note_off_c, 10, 69, 70
7, 151392, Note_on_c, 10, 72, 64
7, 151440, Note_off_c, 10, 72, 61
7, 151488, Note_on_c, 10, 72, 64
7, 151536, Note_off_c, 10, 72, 60
7, 151584, Note_on_c, 10, 72, 64
7, 151632, Note_off_c, 10, 72, 48
7, 151680, Note_on_c, 10, 72, 64
7, 151704, Note_off_c, 10, 72, 32
7, 151776, Note_on_c, 10, 72, 64
7, 151824, Note_off_c, 10, 72, 1
7, 151872, Note_on_c, 10, 70, 64
7, 151968, Note_on_c, 10, 67, 64
7, 151974, Note_off_c, 10, 70, 33
7, 152064, Note_off_c, 10, 67, 53
7, 152064, Note_on_c, 10, 65, 64
7, 152157, Note_off_c, 10, 65, 54
7, 152160, Note_on_c, 10, 69, 64
7, 152208, Note_off_c, 10, 69, 77
7, 152256, Note_on_c, 10, 69, 64
7, 152304, Note_off_c, 10, 69, 71
7, 152352, Note_on_c, 10, 69, 64
7, 152376, Note_off_c, 10, 69, 49
7, 152448, Note_on_c, 10, 69, 64
7, 152472, Note_off_c, 10, 69, 67
7, 152544, Note_on_c, 10, 69, 64
7, 152592, Note_off_c, 10, 69, 25
7, 152640, Note_on_c, 10, 67, 64
7, 152736, Note_off_c, 10, 67, 26
7, 152736, Note_on_c, 10, 64, 64
7, 152832, Note_off_c, 10, 64, 52
7, 152832, Note_on_c, 10, 62, 64
7, 153014, Note_off_c, 10, 62, 12
7, 153024, Note_on_c, 10, 61, 64
7, 153216, Note_off_c, 10, 61, 1
7, 153216, Note_on_c, 10, 69, 64
7, 153408, Note_on_c, 10, 62, 64
7, 153414, Note_off_c, 10, 69, 79
7, 153576, Note_off_c, 10, 62, 30
7, 153600, Note_on_c, 10, 77, 71
7, 153792, Note_on_c, 10, 74, 93
7, 153798, Note_off_c, 10, 77, 60
7, 153882, Note_off_c, 10, 74, 67
7, 153984, Note_on_c, 10, 74, 73
7, 154176, Note_on_c, 10, 71, 73
7, 154181, Note_off_c, 10, 74, 87
7, 154218, Note_off_c, 10, 71, 72
7, 154368, Note_on_c, 10, 71, 69
7, 154560, Note_on_c, 10, 67, 87
7, 154585, Note_off_c, 10, 71, 57
7, 154595, Note_off_c, 10, 67, 78
7, 154752, Note_on_c, 10, 65, 81
7, 154944, Note_on_c, 10, 62, 71
7, 154945, Note_off_c, 10, 65, 6
7, 154981, Note_off_c, 10, 62, 76
7, 155126, Note_on_c, 10, 64, 68
7, 155184, Note_off_c, 10, 64, 45
7, 155351, Note_on_c, 10, 65, 88
7, 155382, Note_on_c, 10, 64, 68
7, 155385, Note_off_c, 10, 65, 74
7, 155403, Note_off_c, 10, 64, 44
7, 155415, Note_on_c, 10, 62, 68
7, 155449, Note_on_c, 10, 64, 82
7, 155451, Note_off_c, 10, 62, 84
7, 155468, Note_on_c, 10, 65, 82
7, 155476, Note_off_c, 10, 64, 53
7, 155511, Note_off_c, 10, 65, 85
7, 155518, Note_on_c, 10, 67, 94
7, 155703, Note_off_c, 10, 67, 87
7, 155911, Note_on_c, 10, 76, 105
7, 155992, Note_off_c, 10, 76, 17
7, 156097, Note_on_c, 10, 77, 88
7, 156125, Note_on_c, 10, 76, 68
7, 156138, Note_off_c, 10, 77, 54
7, 156154, Note_off_c, 10, 76, 59
7, 156164, Note_on_c, 10, 74, 88
7, 156197, Note_on_c, 10, 76, 94
7, 156209, Note_off_c, 10, 74, 72
7, 156232, Note_on_c, 10, 77, 88
7, 156250, Note_off_c, 10, 76, 63
7, 156286, Note_on_c, 10, 79, 99
7, 156288, Note_off_c, 10, 77, 89
7, 156473, Note_off_c, 10, 79, 64
7, 156679, Note_on_c, 10, 77, 91
7, 156864, Note_on_c, 10, 74, 97
7, 156872, Note_off_c, 10, 77, 54
7, 156932, Note_off_c, 10, 74, 89
7, 157055, Note_on_c, 10, 74, 91
7, 157247, Note_on_c, 10, 71, 81
7, 157250, Note_off_c, 10, 74, 67
7, 157283, Note_off_c, 10, 71, 69
7, 157427, Note_on_c, 10, 71, 69
7, 157633, Note_off_c, 10, 71, 53
7, 157637, Note_on_c, 10, 67, 85
7, 157671, Note_off_c, 10, 67, 75
7, 157818, Note_on_c, 10, 65, 81
7, 158001, Note_off_c, 10, 65, 61
7, 158020, Note_on_c, 10, 62, 73
7, 158072, Note_off_c, 10, 62, 61
7, 158213, Note_on_c, 10, 64, 77
7, 158291, Note_off_c, 10, 64, 7
7, 158401, Note_on_c, 10, 65, 85
7, 158434, Note_on_c, 10, 64, 71
7, 158435, Note_off_c, 10, 65, 66
7, 158456, Note_off_c, 10, 64, 48
7, 158470, Note_on_c, 10, 62, 77
7, 158498, Note_on_c, 10, 64, 114
7, 158506, Note_off_c, 10, 62, 75
7, 158525, Note_on_c, 10, 65, 103
7, 158541, Note_off_c, 10, 64, 76
7, 158571, Note_on_c, 10, 67, 103
7, 158574, Note_off_c, 10, 65, 83
7, 158769, Note_off_c, 10, 67, 89
7, 158966, Note_on_c, 10, 76, 85
7, 159047, Note_off_c, 10, 76, 55
7, 159147, Note_on_c, 10, 77, 85
7, 159180, Note_on_c, 10, 76, 75
7, 159183, Note_off_c, 10, 77, 70
7, 159210, Note_off_c, 10, 76, 52
7, 159216, Note_on_c, 10, 74, 91
7, 159246, Note_on_c, 10, 76, 103
7, 159257, Note_off_c, 10, 74, 75
7, 159272, Note_on_c, 10, 77, 91
7, 159289, Note_off_c, 10, 76, 64
7, 159330, Note_off_c, 10, 77, 79
7, 159332, Note_on_c, 10, 79, 97
7, 159508, Note_off_c, 10, 79, 75
7, 159744, Note_on_c, 10, 55, 100
7, 159744, Note_on_c, 10, 67, 100
7, 159803, Note_off_c, 10, 55, 92
7, 159818, Note_off_c, 10, 67, 101
7, 160032, Note_on_c, 10, 74, 100
7, 160032, Note_on_c, 10, 83, 100
7, 160072, Note_off_c, 10, 74, 83
7, 160089, Note_off_c, 10, 83, 53
7, 160128, Note_on_c, 10, 84, 100
7, 160128, Note_on_c, 10, 76, 100
7, 160155, Note_off_c, 10, 76, 81
7, 160163, Note_off_c, 10, 84, 48
7, 160224, Note_on_c, 10, 84, 100
7, 160224, Note_on_c, 10, 76, 100
7, 160252, Note_off_c, 10, 76, 81
7, 160257, Note_off_c, 10, 84, 42
7, 160320, Note_on_c, 10, 76, 100
7, 160320, Note_on_c, 10, 84, 100
7, 160348, Note_off_c, 10, 76, 83
7, 160348, Note_off_c, 10, 84, 54
7, 160416, Note_on_c, 10, 76, 100
7, 160416, Note_on_c, 10, 84, 100
7, 160454, Note_off_c, 10, 84, 41
7, 160455, Note_off_c, 10, 76, 61
7, 160512, Note_on_c, 10, 74, 100
7, 160512, Note_on_c, 10, 83, 100
7, 160668, Note_off_c, 10, 83, 49
7, 160676, Note_off_c, 10, 74, 68
7, 160800, Note_on_c, 10, 74, 100
7, 160800, Note_on_c, 10, 83, 100
7, 160834, Note_off_c, 10, 74, 84
7, 160835, Note_off_c, 10, 83, 63
7, 160896, Note_on_c, 10, 76, 100
7, 160896, Note_on_c, 10, 84, 100
7, 160923, Note_off_c, 10, 76, 80
7, 160925, Note_off_c, 10, 84, 58
7, 160992, Note_on_c, 10, 76, 100
7, 160992, Note_on_c, 10, 84, 100
7, 161015, Note_off_c, 10, 84, 47
7, 161019, Note_off_c, 10, 76, 75
7, 161088, Note_on_c, 10, 76, 100
7, 161088, Note_on_c, 10, 84, 100
7, 161120, Note_off_c, 10, 76, 69
7, 161121, Note_off_c, 10, 84, 36
7, 161184, Note_on_c, 10, 76, 100
7, 161184, Note_on_c, 10, 84, 100
7, 161224, Note_off_c, 10, 84, 21
7, 161227, Note_off_c, 10, 76, 26
7, 161280, Note_on_c, 10, 74, 100
7, 161280, Note_on_c, 10, 83, 100
7, 161315, Note_off_c, 10, 83, 68
7, 161319, Note_off_c, 10, 74, 81
7, 161472, Note_on_c, 10, 79, 100
7, 161472, Note_on_c, 10, 67, 100
7, 161472, Note_on_c, 10, 74, 100
7, 161524, Note_off_c, 10, 74, 92
7, 161528, Note_off_c, 10, 67, 83
7, 161530, Note_off_c, 10, 79, 76
7, 161664, Note_on_c, 10, 55, 100
7, 161893, Note_off_c, 10, 55, 88
7, 162048, Note_on_c, 10, 64, 49
7, 162140, Note_off_c, 10, 64, 29
7, 162144, Note_on_c, 10, 60, 49
7, 162240, Note_on_c, 10, 64, 49
7, 162262, Note_off_c, 10, 60, 4
7, 162316, Note_off_c, 10, 64, 17
7, 162336, Note_on_c, 10, 60, 49
7, 162432, Note_on_c, 10, 64, 49
7, 162443, Note_off_c, 10, 60, 4
7, 162519, Note_off_c, 10, 64, 7
7, 162528, Note_on_c, 10, 60, 49
7, 162624, Note_on_c, 10, 64, 49
7, 162628, Note_off_c, 10, 60, 7
7, 162717, Note_off_c, 10, 64, 10
7, 162720, Note_on_c, 10, 60, 49
7, 162806, Note_off_c, 10, 60, 7
7, 162816, Note_on_c, 10, 65, 59
7, 162912, Note_on_c, 10, 62, 59
7, 162917, Note_off_c, 10, 65, 51
7, 163008, Note_on_c, 10, 65, 59
7, 163022, Note_off_c, 10, 62, 59
7, 163102, Note_off_c, 10, 65, 50
7, 163104, Note_on_c, 10, 62, 59
7, 163200, Note_on_c, 10, 65, 59
7, 163216, Note_off_c, 10, 62, 40
7, 163278, Note_off_c, 10, 65, 55
7, 163296, Note_on_c, 10, 62, 59
7, 163392, Note_on_c, 10, 65, 59
7, 163415, Note_off_c, 10, 62, 54
7, 163488, Note_off_c, 10, 65, 34
7, 163488, Note_on_c, 10, 62, 59
7, 163584, Note_on_c, 10, 64, 89
7, 163593, Note_off_c, 10, 62, 62
7, 163701, Note_off_c, 10, 64, 4
7, 163968, Note_on_c, 10, 67, 89
7, 163992, Note_off_c, 10, 67, 81
7, 164064, Note_on_c, 10, 69, 89
7, 164088, Note_off_c, 10, 69, 78
7, 164160, Note_on_c, 10, 71, 89
7, 164184, Note_off_c, 10, 71, 57
7, 164256, Note_on_c, 10, 72, 89
7, 164280, Note_off_c, 10, 72, 56
7, 164352, Note_on_c, 10, 72, 89
7, 164424, Note_off_c, 10, 72, 15
7, 164448, Note_on_c, 10, 71, 89
7, 164544, Note_off_c, 10, 71, 48
7, 164544, Note_on_c, 10, 69, 89
7, 164616, Note_off_c, 10, 69, 76
7, 164640, Note_on_c, 10, 67, 89
7, 164736, Note_off_c, 10, 67, 56
7, 164736, Note_on_c, 10, 67, 89
7, 164784, Note_on_c, 10, 65, 89
7, 164790, Note_off_c, 10, 67, 65
7, 164814, Note_off_c, 10, 65, 82
7, 164832, Note_on_c, 10, 64, 89
7, 164873, Note_off_c, 10, 64, 48
7, 164880, Note_on_c, 10, 65, 89
7, 164928, Note_off_c, 10, 65, 14
7, 164928, Note_on_c, 10, 69, 89
7, 164976, Note_off_c, 10, 69, 56
7, 165024, Note_on_c, 10, 65, 89
7, 165072, Note_off_c, 10, 65, 97
7, 165120, Note_on_c, 10, 63, 89
7, 165216, Note_on_c, 10, 64, 89
7, 165235, Note_off_c, 10, 63, 29
7, 165312, Note_off_c, 10, 64, 34
7, 165408, Note_on_c, 10, 64, 89
7, 165441, Note_off_c, 10, 64, 59
7, 165456, Note_on_c, 10, 65, 89
7, 165491, Note_off_c, 10, 65, 63
7, 165504, Note_on_c, 10, 67, 89
7, 165528, Note_off_c, 10, 67, 86
7, 165600, Note_on_c, 10, 69, 89
7, 165624, Note_off_c, 10, 69, 78
7, 165696, Note_on_c, 10, 71, 89
7, 165720, Note_off_c, 10, 71, 38
7, 165792, Note_on_c, 10, 72, 89
7, 165816, Note_off_c, 10, 72, 65
7, 165888, Note_on_c, 10, 72, 79
7, 165984, Note_on_c, 10, 71, 79
7, 166018, Note_off_c, 10, 72, 25
7, 166080, Note_off_c, 10, 71, 52
7, 166080, Note_on_c, 10, 69, 79
7, 166176, Note_on_c, 10, 67, 79
7, 166183, Note_off_c, 10, 69, 77
7, 166272, Note_off_c, 10, 67, 63
7, 166272, Note_on_c, 10, 67, 79
7, 166320, Note_off_c, 10, 67, 60
7, 166320, Note_on_c, 10, 65, 79
7, 166344, Note_off_c, 10, 65, 70
7, 166368, Note_on_c, 10, 64, 79
7, 166392, Note_off_c, 10, 64, 30
7, 166416, Note_on_c, 10, 65, 79
7, 166440, Note_off_c, 10, 65, 65
7, 166464, Note_on_c, 10, 69, 79
7, 166518, Note_off_c, 10, 69, 64
7, 166560, Note_on_c, 10, 65, 79
7, 166613, Note_off_c, 10, 65, 22
7, 166656, Note_on_c, 10, 64, 89
7, 166704, Note_off_c, 10, 64, 73
7, 166776, Note_on_c, 10, 72, 89
7, 166974, Note_on_c, 10, 70, 89
7, 166989, Note_off_c, 10, 72, 44
7, 167160, Note_on_c, 10, 69, 89
7, 167171, Note_off_c, 10, 70, 61
7, 167346, Note_on_c, 10, 67, 89
7, 167347, Note_off_c, 10, 69, 81
7, 167546, Note_on_c, 10, 65, 89
7, 167558, Note_off_c, 10, 67, 80
7, 167730, Note_on_c, 10, 72, 89
7, 167732, Note_off_c, 10, 65, 44
7, 167911, Note_on_c, 10, 70, 89
7, 167930, Note_off_c, 10, 72, 48
7, 168101, Note_on_c, 10, 69, 89
7, 168115, Note_off_c, 10, 70, 53
7, 168291, Note_on_c, 10, 67, 89
7, 168298, Note_off_c, 10, 69, 80
7, 168487, Note_on_c, 10, 72, 89
7, 168489, Note_off_c, 10, 67, 64
7, 168672, Note_on_c, 10, 70, 89
7, 168695, Note_off_c, 10, 72, 39
7, 168854, Note_off_c, 10, 70, 4
7, 168861, Note_on_c, 10, 68, 89
7, 168892, Note_off_c, 10, 68, 74
7, 168960, Note_on_c, 10, 69, 79
7, 168997, Note_off_c, 10, 69, 78
7, 169056, Note_on_c, 10, 72, 93
7, 169093, Note_off_c, 10, 72, 27
7, 169152, Note_on_c, 10, 77, 93
7, 169182, Note_off_c, 10, 77, 72
7, 169248, Note_on_c, 10, 81, 91
7, 169273, Note_off_c, 10, 81, 73
7, 169344, Note_on_c, 10, 79, 89
7, 169534, Note_off_c, 10, 79, 59
7, 169728, Note_on_c, 10, 69, 124
7, 169754, Note_off_c, 10, 69, 93
7, 169824, Note_on_c, 10, 72, 93
7, 169859, Note_off_c, 10, 72, 48
7, 169920, Note_on_c, 10, 77, 107
7, 169953, Note_off_c, 10, 77, 67
7, 170016, Note_on_c, 10, 81, 93
7, 170050, Note_off_c, 10, 81, 80
7, 170112, Note_on_c, 10, 79, 113
7, 170272, Note_off_c, 10, 79, 74
7, 170688, Note_on_c, 10, 69, 107
7, 170688, Note_on_c, 10, 77, 119
7, 170832, Note_off_c, 10, 69, 73
7, 170832, Note_off_c, 10, 77, 69
7, 171072, Note_on_c, 10, 77, 124
7, 171072, Note_on_c, 10, 67, 107
7, 171216, Note_off_c, 10, 77, 66
7, 171216, Note_off_c, 10, 67, 73
7, 171456, Note_on_c, 10, 76, 124
7, 171456, Note_on_c, 10, 67, 113
7, 171600, Note_off_c, 10, 76, 66
7, 171600, Note_off_c, 10, 67, 79
7, 171840, Note_on_c, 10, 76, 101
7, 171840, Note_on_c, 10, 69, 93
7, 171984, Note_off_c, 10, 76, 63
7, 171984, Note_off_c, 10, 69, 71
7, 172032, Note_on_c, 10, 74, 95
7, 172272, Note_off_c, 10, 74, 74
7, 172320, Note_on_c, 10, 77, 105
7, 172368, Note_off_c, 10, 77, 85
7, 172416, Note_on_c, 10, 76, 113
7, 172464, Note_off_c, 10, 76, 79
7, 172512, Note_on_c, 10, 74, 107
7, 172560, Note_off_c, 10, 74, 74
7, 172608, Note_on_c, 10, 72, 105
7, 172656, Note_off_c, 10, 72, 57
7, 172704, Note_on_c, 10, 71, 111
7, 172752, Note_off_c, 10, 71, 67
7, 172800, Note_on_c, 10, 72, 113
7, 172824, Note_off_c, 10, 72, 84
7, 172896, Note_on_c, 10, 74, 111
7, 172920, Note_off_c, 10, 74, 78
7, 172992, Note_on_c, 10, 76, 109
7, 173016, Note_off_c, 10, 76, 85
7, 173100, Note_on_c, 10, 77, 109
7, 173148, Note_off_c, 10, 77, 64
7, 173184, Note_on_c, 10, 79, 113
7, 173352, Note_off_c, 10, 79, 56
7, 175104, Note_on_c, 10, 69, 77
7, 175488, Note_on_c, 10, 67, 93
7, 175491, Note_off_c, 10, 69, 1
7, 175512, Note_off_c, 10, 67, 87
7, 175584, Note_on_c, 10, 65, 81
7, 175608, Note_off_c, 10, 65, 75
7, 175680, Note_on_c, 10, 64, 83
7, 175704, Note_off_c, 10, 64, 47
7, 175776, Note_on_c, 10, 62, 81
7, 175809, Note_off_c, 10, 62, 61
7, 175872, Note_on_c, 10, 60, 75
7, 176040, Note_off_c, 10, 60, 40
7, 179112, Program_c, 10, 45
7, 179328, Note_on_c, 10, 84, 59
7, 179355, Note_off_c, 10, 84, 59
7, 179520, Note_on_c, 10, 83, 59
7, 179544, Note_off_c, 10, 83, 57
7, 179712, Note_on_c, 10, 84, 59
7, 179877, Note_off_c, 10, 84, 42
7, 180096, Note_on_c, 10, 84, 59
7, 180118, Note_off_c, 10, 84, 46
7, 180192, Note_on_c, 10, 84, 59
7, 180212, Note_off_c, 10, 84, 22
7, 180288, Note_on_c, 10, 83, 59
7, 180302, Note_off_c, 10, 83, 43
7, 180384, Note_on_c, 10, 83, 59
7, 180408, Note_off_c, 10, 83, 66
7, 180480, Note_on_c, 10, 84, 59
7, 180630, Note_off_c, 10, 84, 30
7, 180864, Note_on_c, 10, 84, 59
7, 180894, Note_off_c, 10, 84, 50
7, 181056, Note_on_c, 10, 83, 59
7, 181083, Note_off_c, 10, 83, 39
7, 181248, Note_on_c, 10, 84, 59
7, 181280, Note_off_c, 10, 84, 19
7, 181440, Note_on_c, 10, 79, 59
7, 181474, Note_off_c, 10, 79, 75
7, 181632, Note_on_c, 10, 84, 59
7, 181660, Note_off_c, 10, 84, 36
7, 181824, Note_on_c, 10, 79, 59
7, 181840, Note_off_c, 10, 79, 80
7, 182016, Note_on_c, 10, 67, 59
7, 182016, Note_on_c, 10, 72, 59
7, 182016, Note_on_c, 10, 79, 59
7, 182128, Note_off_c, 10, 72, 42
7, 182133, Note_off_c, 10, 67, 45
7, 182171, Note_off_c, 10, 79, 14
7, 182400, Note_on_c, 10, 72, 59
7, 182400, Note_on_c, 10, 81, 59
7, 182502, Note_off_c, 10, 72, 45
7, 182523, Note_off_c, 10, 81, 24
7, 182784, Note_on_c, 10, 79, 59
7, 182816, Note_off_c, 10, 79, 71
7, 182976, Note_on_c, 10, 76, 59
7, 183000, Note_off_c, 10, 76, 58
7, 183168, Note_on_c, 10, 74, 59
7, 183199, Note_off_c, 10, 74, 73
7, 183360, Note_on_c, 10, 77, 59
7, 183392, Note_off_c, 10, 77, 71
7, 183456, Program_c, 10, 48
7, 184416, Note_on_c, 10, 76, 82
7, 184452, Note_off_c, 10, 76, 64
7, 184512, Note_on_c, 10, 76, 82
7, 184548, Note_off_c, 10, 76, 64
7, 184608, Note_on_c, 10, 76, 82
7, 184644, Note_off_c, 10, 76, 64
7, 184704, Note_on_c, 10, 76, 82
7, 184740, Note_off_c, 10, 76, 64
7, 184800, Note_on_c, 10, 76, 92
7, 184836, Note_off_c, 10, 76, 64
7, 184896, Note_on_c, 10, 76, 92
7, 184932, Note_off_c, 10, 76, 64
7, 184992, Note_on_c, 10, 76, 92
7, 185028, Note_off_c, 10, 76, 64
7, 185088, Note_on_c, 10, 74, 102
7, 185124, Note_off_c, 10, 74, 64
7, 185136, Note_on_c, 10, 74, 102
7, 185172, Note_off_c, 10, 74, 64
7, 185184, Note_on_c, 10, 74, 112
7, 185220, Note_off_c, 10, 74, 64
7, 185232, Note_on_c, 10, 74, 112
7, 185268, Note_off_c, 10, 74, 64
7, 185280, Note_on_c, 10, 74, 112
7, 185316, Note_off_c, 10, 74, 64
7, 185328, Note_on_c, 10, 74, 112
7, 185364, Note_off_c, 10, 74, 64
7, 185376, Note_on_c, 10, 74, 112
7, 185412, Note_off_c, 10, 74, 64
7, 185424, Note_on_c, 10, 74, 112
7, 185460, Note_off_c, 10, 74, 64
7, 185472, Note_on_c, 10, 77, 122
7, 185508, Note_off_c, 10, 77, 64
7, 185520, Note_on_c, 10, 77, 122
7, 185556, Note_off_c, 10, 77, 64
7, 185568, Note_on_c, 10, 77, 1
7, 185604, Note_off_c, 10, 77, 64
7, 185616, Note_on_c, 10, 77, 122
7, 185652, Note_off_c, 10, 77, 64
7, 185664, Note_on_c, 10, 83, 1
7, 185700, Note_off_c, 10, 83, 64
7, 185712, Note_on_c, 10, 83, 1
7, 185748, Note_off_c, 10, 83, 64
7, 185760, Note_on_c, 10, 83, 1
7, 185796, Note_off_c, 10, 83, 64
7, 185808, Note_on_c, 10, 83, 1
7, 185844, Note_off_c, 10, 83, 64
7, 185874, Note_on_c, 10, 84, 115
7, 185876, Note_on_c, 10, 76, 115
7, 186061, Note_off_c, 10, 76, 45
7, 186064, Note_off_c, 10, 84, 44
7, 186135, Note_on_c, 10, 79, 115
7, 186180, Note_off_c, 10, 79, 85
7, 186231, Note_on_c, 10, 76, 115
7, 186265, Note_off_c, 10, 76, 77
7, 186322, Note_on_c, 10, 72, 115
7, 186369, Note_off_c, 10, 72, 52
7, 186430, Note_on_c, 10, 76, 115
7, 186471, Note_off_c, 10, 76, 80
7, 186518, Note_on_c, 10, 79, 115
7, 186571, Note_off_c, 10, 79, 63
7, 186623, Note_on_c, 10, 84, 115
7, 186845, Note_off_c, 10, 84, 10
7, 186901, Note_on_c, 10, 79, 115
7, 186937, Note_off_c, 10, 79, 89
7, 187001, Note_on_c, 10, 76, 115
7, 187031, Note_off_c, 10, 76, 71
7, 187087, Note_on_c, 10, 72, 115
7, 187127, Note_off_c, 10, 72, 56
7, 187184, Note_on_c, 10, 76, 115
7, 187223, Note_off_c, 10, 76, 75
7, 187273, Note_on_c, 10, 79, 115
7, 187317, Note_off_c, 10, 79, 44
7, 187373, Note_on_c, 10, 84, 1
7, 187593, Note_off_c, 10, 84, 10
7, 187668, Note_on_c, 10, 83, 115
7, 187707, Note_off_c, 10, 83, 59
7, 187765, Note_on_c, 10, 81, 1
7, 188014, Note_off_c, 10, 81, 76
7, 188060, Note_on_c, 10, 79, 115
7, 188103, Note_off_c, 10, 79, 81
7, 188159, Note_on_c, 10, 77, 1
7, 188390, Note_off_c, 10, 77, 65
7, 188443, Note_on_c, 10, 76, 115
7, 188477, Note_off_c, 10, 76, 82
7, 188534, Note_on_c, 10, 74, 1
7, 188749, Note_off_c, 10, 74, 11
7, 188830, Note_on_c, 10, 73, 115
7, 188871, Note_off_c, 10, 73, 67
7, 188928, Note_on_c, 10, 74, 115
7, 188964, Note_off_c, 10, 74, 64
7, 188976, Note_on_c, 10, 77, 115
7, 189012, Note_off_c, 10, 77, 64
7, 189024, Note_on_c, 10, 76, 115
7, 189060, Note_off_c, 10, 76, 64
7, 189072, Note_on_c, 10, 79, 115
7, 189108, Note_off_c, 10, 79, 64
7, 189120, Note_on_c, 10, 77, 115
7, 189156, Note_off_c, 10, 77, 64
7, 189168, Note_on_c, 10, 81, 115
7, 189204, Note_off_c, 10, 81, 64
7, 189216, Note_on_c, 10, 79, 115
7, 189252, Note_off_c, 10, 79, 64
7, 189264, Note_on_c, 10, 82, 115
7, 189300, Note_off_c, 10, 82, 64
7, 189312, Note_on_c, 10, 81, 115
7, 189348, Note_off_c, 10, 81, 64
7, 189360, Note_on_c, 10, 79, 115
7, 189396, Note_off_c, 10, 79, 64
7, 189408, Note_on_c, 10, 77, 115
7, 189444, Note_off_c, 10, 77, 64
7, 189456, Note_on_c, 10, 76, 115
7, 189492, Note_off_c, 10, 76, 64
7, 189504, Note_on_c, 10, 74, 115
7, 189540, Note_off_c, 10, 74, 64
7, 189552, Note_on_c, 10, 72, 115
7, 189588, Note_off_c, 10, 72, 64
7, 189600, Note_on_c, 10, 71, 115
7, 189636, Note_off_c, 10, 71, 64
7, 189648, Note_on_c, 10, 72, 115
7, 189684, Note_off_c, 10, 72, 64
7, 189696, Note_on_c, 10, 79, 1
7, 189696, Note_on_c, 10, 71, 1
7, 189796, Note_off_c, 10, 71, 69
7, 189804, Note_off_c, 10, 79, 89
7, 189984, Note_on_c, 10, 83, 1
7, 189984, Note_on_c, 10, 74, 1
7, 190021, Note_off_c, 10, 74, 78
7, 190028, Note_off_c, 10, 83, 49
7, 190080, Note_on_c, 10, 84, 1
7, 190080, Note_on_c, 10, 76, 1
7, 190109, Note_off_c, 10, 76, 71
7, 190124, Note_off_c, 10, 84, 34
7, 190176, Note_on_c, 10, 76, 1
7, 190176, Note_on_c, 10, 84, 1
7, 190211, Note_off_c, 10, 76, 79
7, 190212, Note_off_c, 10, 84, 49
7, 190272, Note_on_c, 10, 76, 1
7, 190272, Note_on_c, 10, 84, 1
7, 190302, Note_off_c, 10, 76, 87
7, 190304, Note_off_c, 10, 84, 60
7, 190368, Note_on_c, 10, 76, 1
7, 190368, Note_on_c, 10, 84, 1
7, 190399, Note_off_c, 10, 84, 63
7, 190404, Note_off_c, 10, 76, 62
7, 190464, Note_on_c, 10, 74, 1
7, 190464, Note_on_c, 10, 83, 1
7, 190625, Note_off_c, 10, 83, 48
7, 190629, Note_off_c, 10, 74, 70
7, 190752, Note_on_c, 10, 83, 1
7, 190752, Note_on_c, 10, 74, 1
7, 190786, Note_off_c, 10, 74, 85
7, 190799, Note_off_c, 10, 83, 46
7, 190848, Note_on_c, 10, 84, 1
7, 190848, Note_on_c, 10, 76, 1
7, 190871, Note_off_c, 10, 76, 81
7, 190884, Note_off_c, 10, 84, 51
7, 190944, Note_on_c, 10, 76, 1
7, 190944, Note_on_c, 10, 84, 1
7, 190977, Note_off_c, 10, 76, 82
7, 190977, Note_off_c, 10, 84, 50
7, 191040, Note_on_c, 10, 76, 1
7, 191040, Note_on_c, 10, 84, 1
7, 191067, Note_off_c, 10, 84, 56
7, 191072, Note_off_c, 10, 76, 74
7, 191136, Note_on_c, 10, 76, 1
7, 191136, Note_on_c, 10, 84, 1
7, 191165, Note_off_c, 10, 76, 77
7, 191170, Note_off_c, 10, 84, 35
7, 191255, Note_on_c, 10, 55, 1
7, 191591, Note_off_c, 10, 55, 106
7, 195072, Note_on_c, 10, 72, 93
7, 195232, Note_off_c, 10, 72, 1
7, 195264, Note_on_c, 10, 84, 101
7, 195304, Note_off_c, 10, 84, 48
7, 195456, Note_on_c, 10, 83, 111
7, 195481, Note_off_c, 10, 83, 29
7, 195648, Note_on_c, 10, 81, 107
7, 195673, Note_off_c, 10, 81, 78
7, 195840, Note_on_c, 10, 79, 89
7, 196128, Note_on_c, 10, 77, 87
7, 196138, Note_off_c, 10, 79, 88
7, 196220, Note_off_c, 10, 77, 32
7, 196224, Note_on_c, 10, 76, 91
7, 196351, Note_off_c, 10, 76, 43
7, 196800, Note_on_c, 10, 81, 71
7, 196848, Note_off_c, 10, 81, 67
7, 196992, Note_on_c, 10, 79, 75
7, 197040, Note_off_c, 10, 79, 75
7, 197184, Note_on_c, 10, 77, 76
7, 197232, Note_off_c, 10, 77, 50
7, 197376, Note_on_c, 10, 76, 77
7, 197664, Note_on_c, 10, 74, 79
7, 197676, Note_off_c, 10, 76, 56
7, 197760, Note_on_c, 10, 72, 77
7, 197768, Note_off_c, 10, 74, 85
7, 197952, Note_off_c, 10, 72, 1
7, 198144, Note_on_c, 10, 74, 79
7, 198144, Note_on_c, 10, 77, 87
7, 198288, Note_off_c, 10, 74, 36
7, 198288, Note_off_c, 10, 77, 11
7, 198336, Note_on_c, 10, 86, 113
7, 198336, Note_on_c, 10, 77, 105
7, 198689, Note_off_c, 10, 86, 13
7, 198696, Note_off_c, 10, 77, 53
7, 198720, Note_on_c, 10, 74, 81
7, 198720, Note_on_c, 10, 77, 93
7, 198864, Note_off_c, 10, 74, 40
7, 198864, Note_off_c, 10, 77, 40
7, 198912, Note_on_c, 10, 72, 73
7, 198912, Note_on_c, 10, 76, 77
7, 199056, Note_off_c, 10, 76, 1
7, 199077, Note_off_c, 10, 72, 30
7, 199104, Note_on_c, 10, 84, 103
7, 199104, Note_on_c, 10, 76, 99
7, 199392, Note_off_c, 10, 84, 26
7, 199416, Note_off_c, 10, 76, 27
7, 199488, Note_on_c, 10, 76, 85
7, 199488, Note_on_c, 10, 72, 67
7, 199632, Note_off_c, 10, 76, 48
7, 199632, Note_off_c, 10, 72, 21
7, 199680, Note_on_c, 10, 74, 73
7, 199872, Note_off_c, 10, 74, 4
7, 199872, Note_on_c, 10, 79, 91
7, 199920, Note_off_c, 10, 79, 42
7, 199920, Note_on_c, 10, 77, 84
7, 199968, Note_on_c, 10, 76, 75
7, 199979, Note_off_c, 10, 77, 42
7, 200016, Note_off_c, 10, 76, 59
7, 200016, Note_on_c, 10, 74, 87
7, 200064, Note_on_c, 10, 72, 77
7, 200077, Note_off_c, 10, 74, 75
7, 200208, Note_off_c, 10, 72, 1
7, 200256, Note_on_c, 10, 71, 85
7, 200376, Note_off_c, 10, 71, 37
7, 200448, Note_on_c, 10, 72, 89
7, 200496, Note_off_c, 10, 72, 22
7, 200496, Note_on_c, 10, 74, 89
7, 200544, Note_off_c, 10, 74, 65
7, 200544, Note_on_c, 10, 76, 89
7, 200592, Note_off_c, 10, 76, 11
7, 200592, Note_on_c, 10, 77, 89
7, 200640, Note_off_c, 10, 77, 62
7, 200640, Note_on_c, 10, 79, 89
7, 200688, Note_off_c, 10, 79, 39
7, 200688, Note_on_c, 10, 81, 89
7, 200736, Note_off_c, 10, 81, 48
7, 200736, Note_on_c, 10, 83, 89
7, 200784, Note_off_c, 10, 83, 27
7, 200784, Note_on_c, 10, 84, 99
7, 200832, Note_off_c, 10, 84, 50
7, 200832, Note_on_c, 10, 69, 89
7, 200880, Note_off_c, 10, 69, 14
7, 200880, Note_on_c, 10, 71, 89
7, 200928, Note_off_c, 10, 71, 48
7, 200928, Note_on_c, 10, 72, 89
7, 200976, Note_off_c, 10, 72, 36
7, 200976, Note_on_c, 10, 74, 89
7, 201024, Note_off_c, 10, 74, 32
7, 201024, Note_on_c, 10, 76, 89
7, 201072, Note_off_c, 10, 76, 39
7, 201072, Note_on_c, 10, 77, 89
7, 201120, Note_off_c, 10, 77, 23
7, 201120, Note_on_c, 10, 79, 89
7, 201168, Note_off_c, 10, 79, 41
7, 201168, Note_on_c, 10, 81, 99
7, 201216, Note_off_c, 10, 81, 81
7, 201216, Note_on_c, 10, 67, 89
7, 201255, Note_off_c, 10, 67, 49
7, 201264, Note_on_c, 10, 69, 89
7, 201307, Note_off_c, 10, 69, 56
7, 201312, Note_on_c, 10, 71, 89
7, 201360, Note_off_c, 10, 71, 64
7, 201360, Note_on_c, 10, 72, 89
7, 201384, Note_off_c, 10, 72, 59
7, 201408, Note_on_c, 10, 74, 89
7, 201456, Note_off_c, 10, 74, 14
7, 201456, Note_on_c, 10, 76, 89
7, 201504, Note_off_c, 10, 76, 48
7, 201504, Note_on_c, 10, 77, 89
7, 201552, Note_off_c, 10, 77, 53
7, 201552, Note_on_c, 10, 79, 99
7, 201600, Note_off_c, 10, 79, 79
7, 201600, Note_on_c, 10, 79, 99
7, 201696, Note_on_c, 10, 77, 89
7, 201698, Note_off_c, 10, 79, 3
7, 201792, Note_off_c, 10, 77, 32
7, 201792, Note_on_c, 10, 76, 89
7, 201840, Note_off_c, 10, 76, 6
7, 201888, Note_on_c, 10, 74, 89
7, 201936, Note_off_c, 10, 74, 66
7, 201984, Note_on_c, 10, 72, 85
7, 202104, Note_off_c, 10, 72, 58
7, 202272, Note_on_c, 10, 79, 113
7, 202296, Note_off_c, 10, 79, 64
7, 202304, Note_on_c, 10, 81, 91
7, 202328, Note_off_c, 10, 81, 64
7, 202336, Note_on_c, 10, 83, 95
7, 202360, Note_off_c, 10, 83, 64
7, 202368, Note_on_c, 10, 84, 85
7, 202512, Note_off_c, 10, 84, 64
7, 202656, Note_on_c, 10, 79, 77
7, 202679, Note_off_c, 10, 79, 64
7, 202688, Note_on_c, 10, 81, 85
7, 202711, Note_off_c, 10, 81, 64
7, 202720, Note_on_c, 10, 83, 83
7, 202743, Note_off_c, 10, 83, 64
7, 202752, Note_on_c, 10, 84, 95
7, 202872, Note_off_c, 10, 84, 41
7, 203040, Note_on_c, 10, 79, 83
7, 203063, Note_off_c, 10, 79, 64
7, 203072, Note_on_c, 10, 81, 83
7, 203095, Note_off_c, 10, 81, 64
7, 203104, Note_on_c, 10, 83, 83
7, 203127, Note_off_c, 10, 83, 64
7, 203136, Note_on_c, 10, 84, 81
7, 203208, Note_off_c, 10, 84, 64
7, 203232, Note_on_c, 10, 79, 101
7, 203255, Note_off_c, 10, 79, 64
7, 203264, Note_on_c, 10, 81, 91
7, 203287, Note_off_c, 10, 81, 64
7, 203296, Note_on_c, 10, 83, 79
7, 203319, Note_off_c, 10, 83, 64
7, 203328, Note_on_c, 10, 84, 87
7, 203400, Note_off_c, 10, 84, 64
7, 203424, Note_on_c, 10, 79, 79
7, 203447, Note_off_c, 10, 79, 64
7, 203456, Note_on_c, 10, 81, 83
7, 203479, Note_off_c, 10, 81, 64
7, 203488, Note_on_c, 10, 83, 73
7, 203511, Note_off_c, 10, 83, 64
7, 203520, Note_on_c, 10, 84, 95
7, 203748, Note_off_c, 10, 84, 38
7, 203808, Note_on_c, 10, 79, 95
7, 203844, Note_off_c, 10, 79, 80
7, 203904, Note_on_c, 10, 76, 95
7, 203936, Note_off_c, 10, 76, 74
7, 204000, Note_on_c, 10, 72, 95
7, 204035, Note_off_c, 10, 72, 66
7, 204096, Note_on_c, 10, 76, 95
7, 204127, Note_off_c, 10, 76, 60
7, 204192, Note_on_c, 10, 79, 95
7, 204229, Note_off_c, 10, 79, 60
7, 204288, Note_on_c, 10, 84, 95
7, 204497, Note_off_c, 10, 84, 27
7, 204576, Note_on_c, 10, 79, 95
7, 204608, Note_off_c, 10, 79, 85
7, 204672, Note_on_c, 10, 76, 95
7, 204704, Note_off_c, 10, 76, 83
7, 204768, Note_on_c, 10, 72, 95
7, 204816, Note_off_c, 10, 72, 47
7, 204864, Note_on_c, 10, 76, 95
7, 204900, Note_off_c, 10, 76, 71
7, 204960, Note_on_c, 10, 79, 95
7, 204998, Note_off_c, 10, 79, 57
7, 205056, Note_on_c, 10, 84, 95
7, 205140, Note_off_c, 10, 84, 19
7, 205248, Note_on_c, 10, 84, 95
7, 205248, Note_on_c, 10, 76, 95
7, 205342, Note_off_c, 10, 76, 34
7, 205345, Note_off_c, 10, 84, 37
7, 205440, Note_on_c, 10, 76, 95
7, 205440, Note_on_c, 10, 84, 95
7, 205529, Note_off_c, 10, 76, 58
7, 205531, Note_off_c, 10, 84, 47
7, 205632, Note_on_c, 10, 76, 95
7, 205632, Note_on_c, 10, 84, 95
7, 205702, Note_off_c, 10, 76, 66
7, 205705, Note_off_c, 10, 84, 43
7, 205824, Note_on_c, 10, 76, 95
7, 205824, Note_on_c, 10, 84, 95
7, 206057, Note_off_c, 10, 84, 72
7, 206061, Note_off_c, 10, 76, 75
7, 206061, End_track
8, 0, Start_track
8, 0, MIDI_port, 0
8, 0, Title_t, "Violin II           "
8, 0, Program_c, 11, 48
8, 0, Control_c, 11, 10, 99
8, 0, Note_on_c, 11, 72, 73
8, 0, Program_c, 11, 48
8, 240, Note_off_c, 11, 72, 14
8, 288, Note_on_c, 11, 67, 95
8, 336, Note_off_c, 11, 67, 64
8, 384, Note_on_c, 11, 64, 85
8, 432, Note_off_c, 11, 64, 62
8, 480, Note_on_c, 11, 60, 87
8, 528, Note_off_c, 11, 60, 49
8, 576, Note_on_c, 11, 64, 91
8, 624, Note_off_c, 11, 64, 25
8, 672, Note_on_c, 11, 67, 95
8, 720, Note_off_c, 11, 67, 55
8, 768, Note_on_c, 11, 72, 91
8, 984, Note_off_c, 11, 72, 24
8, 1056, Note_on_c, 11, 67, 95
8, 1104, Note_off_c, 11, 67, 56
8, 1152, Note_on_c, 11, 64, 91
8, 1200, Note_off_c, 11, 64, 48
8, 1248, Note_on_c, 11, 60, 79
8, 1296, Note_off_c, 11, 60, 33
8, 1344, Note_on_c, 11, 64, 93
8, 1416, Note_off_c, 11, 64, 51
8, 1440, Note_on_c, 11, 67, 73
8, 1488, Note_off_c, 11, 67, 46
8, 1536, Note_on_c, 11, 72, 81
8, 1656, Note_off_c, 11, 72, 53
8, 4608, Note_on_c, 11, 72, 93
8, 4656, Note_off_c, 11, 72, 28
8, 4800, Note_on_c, 11, 81, 119
8, 4848, Note_off_c, 11, 81, 82
8, 4992, Note_on_c, 11, 79, 119
8, 5040, Note_off_c, 11, 79, 83
8, 5184, Note_on_c, 11, 77, 107
8, 5232, Note_off_c, 11, 77, 79
8, 5376, Note_on_c, 11, 76, 93
8, 5664, Note_off_c, 11, 76, 79
8, 5664, Note_on_c, 11, 74, 91
8, 5760, Note_off_c, 11, 74, 65
8, 5760, Note_on_c, 11, 72, 85
8, 5952, Note_off_c, 11, 72, 40
8, 6336, Note_on_c, 11, 72, 85
8, 6384, Note_off_c, 11, 72, 58
8, 6528, Note_on_c, 11, 71, 83
8, 6576, Note_off_c, 11, 71, 50
8, 6720, Note_on_c, 11, 69, 91
8, 6768, Note_off_c, 11, 69, 70
8, 6912, Note_on_c, 11, 67, 73
8, 7200, Note_off_c, 11, 67, 28
8, 7200, Note_on_c, 11, 65, 87
8, 7296, Note_off_c, 11, 65, 55
8, 7296, Note_on_c, 11, 64, 91
8, 7392, Note_off_c, 11, 64, 74
8, 7680, Note_on_c, 11, 67, 109
8, 7704, Note_off_c, 11, 67, 34
8, 7728, Note_on_c, 11, 62, 109
8, 7752, Note_off_c, 11, 62, 33
8, 7776, Note_on_c, 11, 59, 109
8, 7800, Note_off_c, 11, 59, 61
8, 7824, Note_on_c, 11, 55, 109
8, 7848, Note_off_c, 11, 55, 87
8, 7872, Note_on_c, 11, 67, 109
8, 7896, Note_off_c, 11, 67, 85
8, 7920, Note_on_c, 11, 67, 109
8, 7944, Note_off_c, 11, 67, 81
8, 7968, Note_on_c, 11, 67, 109
8, 7992, Note_off_c, 11, 67, 72
8, 8016, Note_on_c, 11, 67, 109
8, 8040, Note_off_c, 11, 67, 85
8, 8064, Note_on_c, 11, 67, 109
8, 8088, Note_off_c, 11, 67, 59
8, 8112, Note_on_c, 11, 62, 109
8, 8136, Note_off_c, 11, 62, 66
8, 8160, Note_on_c, 11, 59, 109
8, 8184, Note_off_c, 11, 59, 81
8, 8208, Note_on_c, 11, 55, 109
8, 8232, Note_off_c, 11, 55, 85
8, 8256, Note_on_c, 11, 67, 109
8, 8280, Note_off_c, 11, 67, 48
8, 8304, Note_on_c, 11, 67, 109
8, 8328, Note_off_c, 11, 67, 75
8, 8352, Note_on_c, 11, 67, 109
8, 8376, Note_off_c, 11, 67, 78
8, 8400, Note_on_c, 11, 67, 109
8, 8424, Note_off_c, 11, 67, 50
8, 8448, Note_on_c, 11, 67, 109
8, 8496, Note_off_c, 11, 67, 64
8, 8496, Note_on_c, 11, 64, 109
8, 8520, Note_off_c, 11, 64, 48
8, 8544, Note_on_c, 11, 60, 109
8, 8568, Note_off_c, 11, 60, 20
8, 8592, Note_on_c, 11, 55, 109
8, 8616, Note_off_c, 11, 55, 52
8, 8640, Note_on_c, 11, 67, 109
8, 8664, Note_off_c, 11, 67, 83
8, 8688, Note_on_c, 11, 67, 109
8, 8712, Note_off_c, 11, 67, 89
8, 8736, Note_on_c, 11, 67, 109
8, 8760, Note_off_c, 11, 67, 85
8, 8784, Note_on_c, 11, 67, 109
8, 8808, Note_off_c, 11, 67, 77
8, 8832, Note_on_c, 11, 67, 109
8, 8856, Note_off_c, 11, 67, 48
8, 8880, Note_on_c, 11, 64, 109
8, 8904, Note_off_c, 11, 64, 69
8, 8928, Note_on_c, 11, 60, 109
8, 8952, Note_off_c, 11, 60, 47
8, 8976, Note_on_c, 11, 55, 109
8, 9000, Note_off_c, 11, 55, 67
8, 9024, Note_on_c, 11, 67, 109
8, 9048, Note_off_c, 11, 67, 84
8, 9072, Note_on_c, 11, 67, 109
8, 9096, Note_off_c, 11, 67, 90
8, 9120, Note_on_c, 11, 67, 109
8, 9144, Note_off_c, 11, 67, 64
8, 9168, Note_on_c, 11, 67, 109
8, 9192, Note_off_c, 11, 67, 64
8, 9216, Note_on_c, 11, 69, 119
8, 9408, Note_off_c, 11, 69, 48
8, 9408, Note_on_c, 11, 71, 85
8, 9456, Note_off_c, 11, 71, 41
8, 9456, Note_on_c, 11, 69, 95
8, 9504, Note_off_c, 11, 69, 81
8, 9504, Note_on_c, 11, 67, 107
8, 9552, Note_off_c, 11, 67, 5
8, 9552, Note_on_c, 11, 65, 95
8, 9600, Note_off_c, 11, 65, 50
8, 9600, Note_on_c, 11, 64, 95
8, 9744, Note_off_c, 11, 64, 1
8, 9792, Note_on_c, 11, 62, 71
8, 9936, Note_off_c, 11, 62, 11
8, 9984, Note_on_c, 11, 60, 79
8, 10008, Note_off_c, 11, 60, 54
8, 10032, Note_on_c, 11, 64, 79
8, 10056, Note_off_c, 11, 64, 51
8, 10080, Note_on_c, 11, 62, 79
8, 10104, Note_off_c, 11, 62, 40
8, 10128, Note_on_c, 11, 65, 79
8, 10152, Note_off_c, 11, 65, 57
8, 10176, Note_on_c, 11, 64, 79
8, 10200, Note_off_c, 11, 64, 44
8, 10224, Note_on_c, 11, 67, 79
8, 10248, Note_off_c, 11, 67, 48
8, 10272, Note_on_c, 11, 65, 79
8, 10296, Note_off_c, 11, 65, 23
8, 10320, Note_on_c, 11, 69, 79
8, 10355, Note_off_c, 11, 69, 45
8, 10368, Note_on_c, 11, 67, 79
8, 10416, Note_off_c, 11, 67, 82
8, 10464, Note_on_c, 11, 69, 79
8, 10512, Note_off_c, 11, 69, 72
8, 10560, Note_on_c, 11, 71, 79
8, 10608, Note_off_c, 11, 71, 13
8, 10656, Note_on_c, 11, 72, 79
8, 10704, Note_off_c, 11, 72, 45
8, 10752, Note_on_c, 11, 67, 109
8, 10776, Note_off_c, 11, 67, 34
8, 10800, Note_on_c, 11, 62, 109
8, 10824, Note_off_c, 11, 62, 33
8, 10848, Note_on_c, 11, 59, 109
8, 10872, Note_off_c, 11, 59, 61
8, 10896, Note_on_c, 11, 55, 109
8, 10920, Note_off_c, 11, 55, 87
8, 10944, Note_on_c, 11, 67, 109
8, 10968, Note_off_c, 11, 67, 85
8, 10992, Note_on_c, 11, 67, 109
8, 11016, Note_off_c, 11, 67, 81
8, 11040, Note_on_c, 11, 67, 109
8, 11064, Note_off_c, 11, 67, 72
8, 11088, Note_on_c, 11, 67, 109
8, 11112, Note_off_c, 11, 67, 85
8, 11136, Note_on_c, 11, 67, 109
8, 11160, Note_off_c, 11, 67, 59
8, 11184, Note_on_c, 11, 62, 109
8, 11208, Note_off_c, 11, 62, 66
8, 11232, Note_on_c, 11, 59, 109
8, 11256, Note_off_c, 11, 59, 81
8, 11280, Note_on_c, 11, 55, 109
8, 11304, Note_off_c, 11, 55, 85
8, 11328, Note_on_c, 11, 67, 109
8, 11352, Note_off_c, 11, 67, 48
8, 11376, Note_on_c, 11, 67, 109
8, 11400, Note_off_c, 11, 67, 75
8, 11424, Note_on_c, 11, 67, 109
8, 11448, Note_off_c, 11, 67, 78
8, 11472, Note_on_c, 11, 67, 109
8, 11496, Note_off_c, 11, 67, 50
8, 11520, Note_on_c, 11, 67, 109
8, 11544, Note_off_c, 11, 67, 35
8, 11568, Note_on_c, 11, 64, 109
8, 11592, Note_off_c, 11, 64, 52
8, 11616, Note_on_c, 11, 60, 109
8, 11640, Note_off_c, 11, 60, 51
8, 11664, Note_on_c, 11, 55, 109
8, 11688, Note_off_c, 11, 55, 91
8, 11712, Note_on_c, 11, 72, 109
8, 11736, Note_off_c, 11, 72, 60
8, 11760, Note_on_c, 11, 72, 109
8, 11784, Note_off_c, 11, 72, 64
8, 11808, Note_on_c, 11, 72, 109
8, 11832, Note_off_c, 11, 72, 74
8, 11856, Note_on_c, 11, 72, 109
8, 11880, Note_off_c, 11, 72, 50
8, 11904, Note_on_c, 11, 72, 109
8, 11952, Note_off_c, 11, 72, 64
8, 11952, Note_on_c, 11, 69, 109
8, 11976, Note_off_c, 11, 69, 51
8, 12000, Note_on_c, 11, 64, 109
8, 12024, Note_off_c, 11, 64, 2
8, 12048, Note_on_c, 11, 60, 109
8, 12072, Note_off_c, 11, 60, 58
8, 12096, Note_on_c, 11, 72, 109
8, 12120, Note_off_c, 11, 72, 63
8, 12144, Note_on_c, 11, 72, 109
8, 12168, Note_off_c, 11, 72, 70
8, 12192, Note_on_c, 11, 72, 109
8, 12216, Note_off_c, 11, 72, 75
8, 12240, Note_on_c, 11, 72, 109
8, 12264, Note_off_c, 11, 72, 64
8, 13056, Note_on_c, 11, 71, 109
8, 13104, Note_off_c, 11, 71, 57
8, 13104, Note_on_c, 11, 74, 109
8, 13152, Note_off_c, 11, 74, 48
8, 13152, Note_on_c, 11, 79, 109
8, 13176, Note_off_c, 11, 79, 64
8, 13200, Note_on_c, 11, 79, 109
8, 13224, Note_off_c, 11, 79, 53
8, 13248, Note_on_c, 11, 79, 109
8, 13272, Note_off_c, 11, 79, 70
8, 13296, Note_on_c, 11, 79, 109
8, 13320, Note_off_c, 11, 79, 64
8, 13344, Note_on_c, 11, 79, 109
8, 13368, Note_off_c, 11, 79, 78
8, 13392, Note_on_c, 11, 79, 109
8, 13416, Note_off_c, 11, 79, 55
8, 13440, Note_on_c, 11, 72, 109
8, 13488, Note_off_c, 11, 72, 36
8, 13488, Note_on_c, 11, 76, 109
8, 13536, Note_off_c, 11, 76, 40
8, 13536, Note_on_c, 11, 79, 109
8, 13560, Note_off_c, 11, 79, 71
8, 13584, Note_on_c, 11, 79, 109
8, 13608, Note_off_c, 11, 79, 78
8, 13632, Note_on_c, 11, 79, 109
8, 13656, Note_off_c, 11, 79, 83
8, 13680, Note_on_c, 11, 79, 109
8, 13704, Note_off_c, 11, 79, 74
8, 13728, Note_on_c, 11, 79, 109
8, 13752, Note_off_c, 11, 79, 89
8, 13776, Note_on_c, 11, 79, 109
8, 13800, Note_off_c, 11, 79, 80
8, 13824, Note_on_c, 11, 71, 109
8, 13872, Note_off_c, 11, 71, 57
8, 13872, Note_on_c, 11, 74, 109
8, 13920, Note_off_c, 11, 74, 48
8, 13920, Note_on_c, 11, 79, 109
8, 13944, Note_off_c, 11, 79, 64
8, 13968, Note_on_c, 11, 79, 109
8, 13992, Note_off_c, 11, 79, 53
8, 14016, Note_on_c, 11, 79, 109
8, 14040, Note_off_c, 11, 79, 70
8, 14064, Note_on_c, 11, 79, 109
8, 14088, Note_off_c, 11, 79, 64
8, 14112, Note_on_c, 11, 79, 109
8, 14136, Note_off_c, 11, 79, 78
8, 14160, Note_on_c, 11, 79, 109
8, 14184, Note_off_c, 11, 79, 55
8, 14208, Note_on_c, 11, 72, 109
8, 14256, Note_off_c, 11, 72, 36
8, 14256, Note_on_c, 11, 76, 109
8, 14304, Note_off_c, 11, 76, 40
8, 14304, Note_on_c, 11, 79, 109
8, 14328, Note_off_c, 11, 79, 71
8, 14352, Note_on_c, 11, 79, 109
8, 14376, Note_off_c, 11, 79, 78
8, 14400, Note_on_c, 11, 79, 109
8, 14424, Note_off_c, 11, 79, 83
8, 14448, Note_on_c, 11, 79, 109
8, 14472, Note_off_c, 11, 79, 74
8, 14496, Note_on_c, 11, 79, 109
8, 14520, Note_off_c, 11, 79, 89
8, 14544, Note_on_c, 11, 79, 109
8, 14568, Note_off_c, 11, 79, 80
8, 14592, Note_on_c, 11, 79, 1
8, 14736, Note_off_c, 11, 79, 33
8, 14784, Note_on_c, 11, 79, 1
8, 14784, Note_on_c, 11, 62, 124
8, 14784, Note_on_c, 11, 71, 101
8, 14832, Channel_aftertouch_c, 11, 15
8, 14841, Channel_aftertouch_c, 11, 17
8, 14850, Channel_aftertouch_c, 11, 10
8, 14860, Channel_aftertouch_c, 11, 0
8, 14904, Note_off_c, 11, 62, 97
8, 14904, Note_off_c, 11, 71, 74
8, 14928, Note_off_c, 11, 79, 79
8, 15360, Note_on_c, 11, 60, 69
8, 15456, Note_off_c, 11, 60, 9
8, 15456, Note_on_c, 11, 55, 59
8, 15552, Note_off_c, 11, 55, 27
8, 15552, Note_on_c, 11, 60, 69
8, 15648, Note_off_c, 11, 60, 2
8, 15648, Note_on_c, 11, 55, 59
8, 15744, Note_off_c, 11, 55, 54
8, 15744, Note_on_c, 11, 60, 69
8, 15840, Note_off_c, 11, 60, 20
8, 15840, Note_on_c, 11, 55, 59
8, 15936, Note_off_c, 11, 55, 55
8, 15936, Note_on_c, 11, 60, 69
8, 16032, Note_off_c, 11, 60, 12
8, 16032, Note_on_c, 11, 55, 59
8, 16128, Note_off_c, 11, 55, 18
8, 16128, Note_on_c, 11, 62, 69
8, 16224, Note_off_c, 11, 62, 69
8, 16224, Note_on_c, 11, 55, 59
8, 16320, Note_off_c, 11, 55, 50
8, 16320, Note_on_c, 11, 62, 69
8, 16416, Note_off_c, 11, 62, 61
8, 16416, Note_on_c, 11, 55, 59
8, 16512, Note_off_c, 11, 55, 17
8, 16512, Note_on_c, 11, 62, 69
8, 16608, Note_off_c, 11, 62, 55
8, 16608, Note_on_c, 11, 55, 59
8, 16704, Note_off_c, 11, 55, 47
8, 16704, Note_on_c, 11, 62, 69
8, 16800, Note_off_c, 11, 62, 28
8, 16800, Note_on_c, 11, 55, 59
8, 16896, Note_off_c, 11, 55, 38
8, 16896, Note_on_c, 11, 55, 38
8, 17059, Note_off_c, 11, 55, 59
8, 17280, Note_on_c, 11, 67, 91
8, 17328, Note_off_c, 11, 67, 71
8, 17376, Note_on_c, 11, 69, 81
8, 17424, Note_off_c, 11, 69, 50
8, 17472, Note_on_c, 11, 71, 75
8, 17520, Note_off_c, 11, 71, 31
8, 17568, Note_on_c, 11, 72, 83
8, 17616, Note_off_c, 11, 72, 31
8, 17664, Note_on_c, 11, 72, 83
8, 17760, Note_off_c, 11, 72, 27
8, 17760, Note_on_c, 11, 71, 75
8, 17856, Note_on_c, 11, 69, 83
8, 17862, Note_off_c, 11, 71, 52
8, 17952, Note_on_c, 11, 67, 81
8, 17953, Note_off_c, 11, 69, 56
8, 18024, Note_off_c, 11, 67, 25
8, 18048, Note_on_c, 11, 67, 93
8, 18072, Note_off_c, 11, 67, 37
8, 18096, Note_on_c, 11, 65, 79
8, 18120, Note_off_c, 11, 65, 70
8, 18144, Note_on_c, 11, 64, 79
8, 18189, Note_off_c, 11, 64, 43
8, 18192, Note_on_c, 11, 65, 87
8, 18224, Note_off_c, 11, 65, 41
8, 18240, Note_on_c, 11, 69, 89
8, 18288, Note_off_c, 11, 69, 64
8, 18336, Note_on_c, 11, 65, 91
8, 18384, Note_off_c, 11, 65, 74
8, 18432, Note_on_c, 11, 63, 67
8, 18528, Note_on_c, 11, 64, 85
8, 18545, Note_off_c, 11, 63, 52
8, 18645, Note_off_c, 11, 64, 21
8, 18720, Note_on_c, 11, 64, 101
8, 18756, Note_off_c, 11, 64, 63
8, 18768, Note_on_c, 11, 65, 107
8, 18813, Note_off_c, 11, 65, 41
8, 18816, Note_on_c, 11, 67, 95
8, 18864, Note_off_c, 11, 67, 62
8, 18912, Note_on_c, 11, 69, 83
8, 18960, Note_off_c, 11, 69, 78
8, 19008, Note_on_c, 11, 71, 79
8, 19056, Note_off_c, 11, 71, 64
8, 19104, Note_on_c, 11, 72, 81
8, 19152, Note_off_c, 11, 72, 40
8, 19200, Note_on_c, 11, 72, 59
8, 19296, Note_off_c, 11, 72, 6
8, 19296, Note_on_c, 11, 71, 77
8, 19392, Note_off_c, 11, 71, 36
8, 19392, Note_on_c, 11, 69, 79
8, 19483, Note_off_c, 11, 69, 71
8, 19488, Note_on_c, 11, 67, 77
8, 19584, Note_off_c, 11, 67, 15
8, 19584, Note_on_c, 11, 67, 85
8, 19632, Note_on_c, 11, 65, 75
8, 19639, Note_off_c, 11, 67, 38
8, 19677, Note_off_c, 11, 65, 70
8, 19680, Note_on_c, 11, 64, 69
8, 19724, Note_off_c, 11, 64, 39
8, 19728, Note_on_c, 11, 65, 89
8, 19752, Note_off_c, 11, 65, 59
8, 19776, Note_on_c, 11, 69, 83
8, 19824, Note_off_c, 11, 69, 71
8, 19872, Note_on_c, 11, 65, 83
8, 19920, Note_off_c, 11, 65, 56
8, 19968, Note_on_c, 11, 64, 85
8, 20064, Note_off_c, 11, 64, 32
8, 20064, Note_on_c, 11, 72, 83
8, 20256, Note_on_c, 11, 70, 71
8, 20269, Note_off_c, 11, 72, 16
8, 20438, Note_off_c, 11, 70, 52
8, 20448, Note_on_c, 11, 69, 87
8, 20633, Note_off_c, 11, 69, 64
8, 20640, Note_on_c, 11, 67, 89
8, 20832, Note_on_c, 11, 65, 79
8, 20842, Note_off_c, 11, 67, 68
8, 21018, Note_off_c, 11, 65, 34
8, 21024, Note_on_c, 11, 72, 77
8, 21216, Note_on_c, 11, 70, 62
8, 21228, Note_off_c, 11, 72, 25
8, 21398, Note_off_c, 11, 70, 39
8, 21408, Note_on_c, 11, 69, 87
8, 21600, Note_on_c, 11, 67, 91
8, 21626, Note_off_c, 11, 69, 46
8, 21782, Note_off_c, 11, 67, 38
8, 21792, Note_on_c, 11, 72, 85
8, 21984, Note_on_c, 11, 70, 55
8, 22006, Note_off_c, 11, 72, 10
8, 22128, Note_on_c, 11, 68, 51
8, 22175, Note_off_c, 11, 70, 54
8, 22333, Note_off_c, 11, 68, 49
8, 22368, Note_on_c, 11, 69, 81
8, 22416, Note_off_c, 11, 69, 68
8, 22464, Note_on_c, 11, 71, 75
8, 22512, Note_off_c, 11, 71, 43
8, 22560, Note_on_c, 11, 72, 85
8, 22608, Note_off_c, 11, 72, 29
8, 22656, Note_on_c, 11, 64, 79
8, 22704, Note_off_c, 11, 64, 51
8, 22752, Note_on_c, 11, 65, 58
8, 22800, Note_off_c, 11, 65, 47
8, 22848, Note_on_c, 11, 68, 81
8, 22896, Note_off_c, 11, 68, 37
8, 22944, Note_on_c, 11, 69, 93
8, 22992, Note_off_c, 11, 69, 46
8, 23040, Note_on_c, 11, 61, 65
8, 23089, Note_off_c, 11, 61, 39
8, 23136, Note_on_c, 11, 62, 65
8, 23173, Note_off_c, 11, 62, 22
8, 23232, Note_on_c, 11, 61, 77
8, 23285, Note_off_c, 11, 61, 26
8, 23328, Note_on_c, 11, 62, 83
8, 23367, Note_off_c, 11, 62, 51
8, 23424, Note_on_c, 11, 61, 79
8, 23472, Note_off_c, 11, 61, 49
8, 23520, Note_on_c, 11, 62, 75
8, 23565, Note_off_c, 11, 62, 28
8, 23616, Note_on_c, 11, 64, 93
8, 23653, Note_off_c, 11, 64, 47
8, 23712, Note_on_c, 11, 65, 101
8, 23740, Note_off_c, 11, 65, 74
8, 23808, Note_on_c, 11, 76, 107
8, 23808, Note_on_c, 11, 72, 79
8, 23808, Note_on_c, 11, 64, 79
8, 23952, Note_off_c, 11, 76, 46
8, 23952, Note_off_c, 11, 72, 64
8, 23952, Note_off_c, 11, 64, 64
8, 24000, Note_on_c, 11, 76, 89
8, 24247, Note_off_c, 11, 76, 19
8, 24288, Note_on_c, 11, 77, 89
8, 24336, Note_off_c, 11, 77, 55
8, 24336, Note_on_c, 11, 76, 91
8, 24384, Note_off_c, 11, 76, 52
8, 24384, Note_on_c, 11, 74, 93
8, 24456, Note_off_c, 11, 74, 78
8, 24480, Note_on_c, 11, 72, 83
8, 24552, Note_off_c, 11, 72, 61
8, 24576, Note_on_c, 11, 67, 89
8, 24696, Note_off_c, 11, 67, 71
8, 24696, Note_on_c, 11, 65, 85
8, 24768, Note_off_c, 11, 65, 76
8, 24768, Note_on_c, 11, 64, 83
8, 25152, Note_off_c, 11, 64, 1
8, 25155, Note_on_c, 11, 62, 85
8, 25344, Note_on_c, 11, 60, 109
8, 25347, Note_off_c, 11, 62, 76
8, 25368, Note_off_c, 11, 60, 25
8, 25392, Note_on_c, 11, 55, 105
8, 25416, Note_off_c, 11, 55, 16
8, 25440, Note_on_c, 11, 57, 113
8, 25464, Note_off_c, 11, 57, 42
8, 25488, Note_on_c, 11, 59, 113
8, 25512, Note_off_c, 11, 59, 8
8, 25536, Note_on_c, 11, 60, 105
8, 25560, Note_off_c, 11, 60, 21
8, 25584, Note_on_c, 11, 62, 113
8, 25608, Note_off_c, 11, 62, 89
8, 25632, Note_on_c, 11, 64, 109
8, 25656, Note_off_c, 11, 64, 48
8, 25680, Note_on_c, 11, 62, 111
8, 25704, Note_off_c, 11, 62, 90
8, 25728, Note_on_c, 11, 60, 75
8, 25776, Note_off_c, 11, 60, 63
8, 25824, Note_on_c, 11, 55, 79
8, 25872, Note_off_c, 11, 55, 71
8, 25920, Note_on_c, 11, 62, 75
8, 25968, Note_off_c, 11, 62, 67
8, 26016, Note_on_c, 11, 55, 81
8, 26064, Note_off_c, 11, 55, 72
8, 26112, Note_on_c, 11, 64, 89
8, 26160, Note_off_c, 11, 64, 69
8, 26208, Note_on_c, 11, 55, 89
8, 26256, Note_off_c, 11, 55, 71
8, 26304, Note_on_c, 11, 64, 89
8, 26352, Note_off_c, 11, 64, 64
8, 26400, Note_on_c, 11, 55, 89
8, 26448, Note_off_c, 11, 55, 73
8, 26496, Note_on_c, 11, 60, 89
8, 26544, Note_off_c, 11, 60, 55
8, 26592, Note_on_c, 11, 55, 89
8, 26640, Note_off_c, 11, 55, 74
8, 26688, Note_on_c, 11, 62, 89
8, 26736, Note_off_c, 11, 62, 88
8, 26784, Note_on_c, 11, 55, 89
8, 26832, Note_off_c, 11, 55, 65
8, 26880, Note_on_c, 11, 64, 89
8, 26928, Note_off_c, 11, 64, 77
8, 26976, Note_on_c, 11, 55, 89
8, 27024, Note_off_c, 11, 55, 72
8, 27072, Note_on_c, 11, 64, 89
8, 27120, Note_off_c, 11, 64, 63
8, 27168, Note_on_c, 11, 55, 89
8, 27216, Note_off_c, 11, 55, 67
8, 27264, Note_on_c, 11, 60, 89
8, 27312, Note_off_c, 11, 60, 48
8, 27360, Note_on_c, 11, 55, 89
8, 27408, Note_off_c, 11, 55, 76
8, 27456, Note_on_c, 11, 62, 89
8, 27504, Note_off_c, 11, 62, 80
8, 27552, Note_on_c, 11, 55, 89
8, 27600, Note_off_c, 11, 55, 59
8, 27648, Note_on_c, 11, 64, 89
8, 27696, Note_off_c, 11, 64, 78
8, 27744, Note_on_c, 11, 55, 89
8, 27792, Note_off_c, 11, 55, 68
8, 27840, Note_on_c, 11, 62, 89
8, 27888, Note_off_c, 11, 62, 82
8, 27936, Note_on_c, 11, 55, 89
8, 27984, Note_off_c, 11, 55, 72
8, 28032, Note_on_c, 11, 60, 89
8, 28080, Note_off_c, 11, 60, 54
8, 28128, Note_on_c, 11, 55, 89
8, 28176, Note_off_c, 11, 55, 69
8, 28224, Note_on_c, 11, 60, 89
8, 28272, Note_off_c, 11, 60, 16
8, 28320, Note_on_c, 11, 55, 89
8, 28368, Note_off_c, 11, 55, 81
8, 28416, Note_on_c, 11, 60, 89
8, 28464, Note_off_c, 11, 60, 22
8, 28464, Note_on_c, 11, 62, 89
8, 28512, Note_off_c, 11, 62, 65
8, 28512, Note_on_c, 11, 64, 89
8, 28560, Note_off_c, 11, 64, 11
8, 28560, Note_on_c, 11, 65, 89
8, 28608, Note_off_c, 11, 65, 62
8, 28608, Note_on_c, 11, 67, 89
8, 28656, Note_off_c, 11, 67, 39
8, 28656, Note_on_c, 11, 69, 89
8, 28704, Note_off_c, 11, 69, 48
8, 28704, Note_on_c, 11, 71, 89
8, 28752, Note_off_c, 11, 71, 27
8, 28752, Note_on_c, 11, 72, 99
8, 28800, Note_off_c, 11, 72, 50
8, 28800, Note_on_c, 11, 57, 89
8, 28848, Note_off_c, 11, 57, 14
8, 28848, Note_on_c, 11, 59, 89
8, 28896, Note_off_c, 11, 59, 48
8, 28896, Note_on_c, 11, 60, 89
8, 28944, Note_off_c, 11, 60, 36
8, 28944, Note_on_c, 11, 62, 89
8, 28992, Note_off_c, 11, 62, 32
8, 28992, Note_on_c, 11, 64, 89
8, 29040, Note_off_c, 11, 64, 39
8, 29040, Note_on_c, 11, 65, 89
8, 29088, Note_off_c, 11, 65, 23
8, 29088, Note_on_c, 11, 67, 89
8, 29136, Note_off_c, 11, 67, 41
8, 29136, Note_on_c, 11, 69, 99
8, 29184, Note_off_c, 11, 69, 81
8, 29184, Note_on_c, 11, 55, 89
8, 29223, Note_off_c, 11, 55, 49
8, 29232, Note_on_c, 11, 57, 89
8, 29275, Note_off_c, 11, 57, 56
8, 29280, Note_on_c, 11, 59, 89
8, 29328, Note_off_c, 11, 59, 64
8, 29328, Note_on_c, 11, 60, 89
8, 29352, Note_off_c, 11, 60, 59
8, 29376, Note_on_c, 11, 62, 89
8, 29424, Note_off_c, 11, 62, 14
8, 29424, Note_on_c, 11, 64, 89
8, 29472, Note_off_c, 11, 64, 48
8, 29472, Note_on_c, 11, 65, 89
8, 29520, Note_off_c, 11, 65, 53
8, 29520, Note_on_c, 11, 67, 99
8, 29568, Note_off_c, 11, 67, 79
8, 29568, Note_on_c, 11, 67, 99
8, 29664, Note_on_c, 11, 65, 89
8, 29666, Note_off_c, 11, 67, 3
8, 29760, Note_off_c, 11, 65, 32
8, 29760, Note_on_c, 11, 64, 89
8, 29808, Note_off_c, 11, 64, 6
8, 29856, Note_on_c, 11, 62, 89
8, 29904, Note_off_c, 11, 62, 66
8, 30240, Note_on_c, 11, 67, 101
8, 30272, Note_off_c, 11, 67, 80
8, 30272, Note_on_c, 11, 69, 124
8, 30304, Note_off_c, 11, 69, 96
8, 30304, Note_on_c, 11, 71, 81
8, 30336, Note_off_c, 11, 71, 81
8, 30336, Note_on_c, 11, 72, 113
8, 30480, Note_off_c, 11, 72, 51
8, 30624, Note_on_c, 11, 67, 113
8, 30656, Note_off_c, 11, 67, 106
8, 30656, Note_on_c, 11, 69, 119
8, 30688, Note_off_c, 11, 69, 86
8, 30688, Note_on_c, 11, 71, 89
8, 30720, Note_off_c, 11, 71, 62
8, 30720, Note_on_c, 11, 72, 85
8, 30864, Note_off_c, 11, 72, 44
8, 31008, Note_on_c, 11, 67, 69
8, 31040, Note_off_c, 11, 67, 93
8, 31040, Note_on_c, 11, 69, 119
8, 31072, Note_off_c, 11, 69, 76
8, 31072, Note_on_c, 11, 71, 91
8, 31104, Note_off_c, 11, 71, 63
8, 31104, Note_on_c, 11, 72, 75
8, 31200, Note_off_c, 11, 72, 42
8, 31200, Note_on_c, 11, 67, 101
8, 31232, Note_off_c, 11, 67, 90
8, 31232, Note_on_c, 11, 69, 124
8, 31264, Note_off_c, 11, 69, 86
8, 31264, Note_on_c, 11, 71, 93
8, 31296, Note_off_c, 11, 71, 77
8, 31296, Note_on_c, 11, 72, 101
8, 31392, Note_off_c, 11, 72, 68
8, 31392, Note_on_c, 11, 67, 101
8, 31424, Note_off_c, 11, 67, 91
8, 31424, Note_on_c, 11, 69, 119
8, 31456, Note_off_c, 11, 69, 79
8, 31456, Note_on_c, 11, 71, 81
8, 31488, Note_off_c, 11, 71, 37
8, 31488, Note_on_c, 11, 72, 77
8, 31632, Note_off_c, 11, 72, 64
8, 40800, Note_on_c, 11, 64, 50
8, 40848, Note_off_c, 11, 64, 74
8, 40896, Note_on_c, 11, 64, 50
8, 40944, Note_off_c, 11, 64, 68
8, 40992, Note_on_c, 11, 64, 50
8, 41040, Note_off_c, 11, 64, 68
8, 41088, Note_on_c, 11, 64, 50
8, 41136, Note_off_c, 11, 64, 63
8, 41184, Note_on_c, 11, 64, 50
8, 41232, Note_off_c, 11, 64, 82
8, 41280, Note_on_c, 11, 64, 50
8, 41328, Note_off_c, 11, 64, 52
8, 41376, Note_on_c, 11, 64, 50
8, 41424, Note_off_c, 11, 64, 59
8, 41568, Note_on_c, 11, 65, 50
8, 41640, Note_off_c, 11, 65, 82
8, 41664, Note_on_c, 11, 65, 50
8, 41736, Note_off_c, 11, 65, 91
8, 41760, Note_on_c, 11, 65, 50
8, 41808, Note_off_c, 11, 65, 33
8, 41856, Note_on_c, 11, 65, 50
8, 41904, Note_off_c, 11, 65, 37
8, 41952, Note_on_c, 11, 65, 50
8, 42000, Note_off_c, 11, 65, 40
8, 42048, Note_on_c, 11, 65, 50
8, 42096, Note_off_c, 11, 65, 80
8, 42144, Note_on_c, 11, 65, 50
8, 42192, Note_off_c, 11, 65, 66
8, 42336, Note_on_c, 11, 64, 50
8, 42384, Note_off_c, 11, 64, 65
8, 42432, Note_on_c, 11, 64, 50
8, 42504, Note_off_c, 11, 64, 81
8, 42528, Note_on_c, 11, 64, 50
8, 42576, Note_off_c, 11, 64, 72
8, 42624, Note_on_c, 11, 64, 50
8, 42672, Note_off_c, 11, 64, 81
8, 42720, Note_on_c, 11, 64, 50
8, 42768, Note_off_c, 11, 64, 80
8, 42816, Note_on_c, 11, 64, 50
8, 42864, Note_off_c, 11, 64, 77
8, 42912, Note_on_c, 11, 64, 50
8, 42960, Note_off_c, 11, 64, 55
8, 43008, Note_on_c, 11, 64, 50
8, 43104, Note_off_c, 11, 64, 60
8, 43104, Note_on_c, 11, 62, 50
8, 43200, Note_off_c, 11, 62, 61
8, 43200, Note_on_c, 11, 60, 50
8, 43248, Note_off_c, 11, 60, 56
8, 43296, Note_on_c, 11, 60, 50
8, 43344, Note_off_c, 11, 60, 49
8, 43392, Note_on_c, 11, 60, 50
8, 43484, Note_off_c, 11, 60, 1
8, 43488, Note_on_c, 11, 64, 50
8, 43567, Note_off_c, 11, 64, 23
8, 43584, Note_on_c, 11, 62, 50
8, 43680, Note_off_c, 11, 62, 77
8, 43680, Note_on_c, 11, 59, 50
8, 43776, Note_off_c, 11, 59, 59
8, 43776, Note_on_c, 11, 60, 50
8, 43848, Note_off_c, 11, 60, 59
8, 43968, Note_on_c, 11, 67, 50
8, 44016, Note_off_c, 11, 67, 85
8, 44160, Note_on_c, 11, 72, 50
8, 44232, Note_off_c, 11, 72, 65
8, 44352, Note_on_c, 11, 76, 50
8, 44400, Note_off_c, 11, 76, 54
8, 44544, Note_on_c, 11, 77, 50
8, 44616, Note_off_c, 11, 77, 81
8, 44736, Note_on_c, 11, 69, 50
8, 44808, Note_off_c, 11, 69, 74
8, 44928, Note_on_c, 11, 72, 50
8, 44976, Note_off_c, 11, 72, 71
8, 45120, Note_on_c, 11, 77, 50
8, 45192, Note_off_c, 11, 77, 73
8, 45312, Note_on_c, 11, 76, 50
8, 45384, Note_off_c, 11, 76, 69
8, 45504, Note_on_c, 11, 67, 50
8, 45576, Note_off_c, 11, 67, 78
8, 45696, Note_on_c, 11, 72, 50
8, 45768, Note_off_c, 11, 72, 45
8, 45888, Note_on_c, 11, 76, 50
8, 45960, Note_off_c, 11, 76, 80
8, 46176, Note_on_c, 11, 64, 50
8, 46224, Note_off_c, 11, 64, 75
8, 46272, Note_on_c, 11, 67, 50
8, 46320, Note_off_c, 11, 67, 75
8, 46368, Note_on_c, 11, 72, 50
8, 46416, Note_off_c, 11, 72, 52
8, 46464, Note_on_c, 11, 76, 50
8, 46512, Note_off_c, 11, 76, 62
8, 46560, Note_on_c, 11, 72, 50
8, 46608, Note_off_c, 11, 72, 57
8, 46656, Note_on_c, 11, 74, 50
8, 46704, Note_off_c, 11, 74, 80
8, 46752, Note_on_c, 11, 71, 50
8, 46800, Note_off_c, 11, 71, 50
8, 46848, Note_on_c, 11, 72, 50
8, 46924, Note_off_c, 11, 72, 46
8, 49248, Note_on_c, 11, 55, 104
8, 49273, Note_off_c, 11, 55, 91
8, 49344, Note_on_c, 11, 57, 104
8, 49369, Note_off_c, 11, 57, 74
8, 49440, Note_on_c, 11, 59, 104
8, 49467, Note_off_c, 11, 59, 80
8, 49536, Note_on_c, 11, 60, 104
8, 49561, Note_off_c, 11, 60, 70
8, 49632, Note_on_c, 11, 62, 104
8, 49656, Note_off_c, 11, 62, 87
8, 49728, Note_on_c, 11, 64, 104
8, 49751, Note_off_c, 11, 64, 89
8, 49824, Note_on_c, 11, 66, 104
8, 49846, Note_off_c, 11, 66, 81
8, 49920, Note_on_c, 11, 67, 104
8, 50023, Note_off_c, 11, 67, 93
8, 57600, Note_on_c, 11, 55, 83
8, 57632, Note_off_c, 11, 55, 48
8, 57696, Note_on_c, 11, 55, 89
8, 57728, Note_off_c, 11, 55, 80
8, 57792, Note_on_c, 11, 55, 93
8, 57824, Note_off_c, 11, 55, 74
8, 57888, Note_on_c, 11, 55, 85
8, 57920, Note_off_c, 11, 55, 63
8, 57984, Note_on_c, 11, 59, 89
8, 58016, Note_off_c, 11, 59, 75
8, 58080, Note_on_c, 11, 59, 85
8, 58112, Note_off_c, 11, 59, 9
8, 58176, Note_on_c, 11, 59, 79
8, 58208, Note_off_c, 11, 59, 71
8, 58272, Note_on_c, 11, 59, 89
8, 58304, Note_off_c, 11, 59, 75
8, 58368, Note_on_c, 11, 60, 73
8, 58400, Note_off_c, 11, 60, 23
8, 58464, Note_on_c, 11, 60, 83
8, 58496, Note_off_c, 11, 60, 50
8, 58560, Note_on_c, 11, 60, 81
8, 58592, Note_off_c, 11, 60, 48
8, 58656, Note_on_c, 11, 60, 83
8, 58688, Note_off_c, 11, 60, 45
8, 58752, Note_on_c, 11, 60, 85
8, 58784, Note_off_c, 11, 60, 46
8, 58848, Note_on_c, 11, 60, 83
8, 58880, Note_off_c, 11, 60, 46
8, 58944, Note_on_c, 11, 61, 101
8, 58976, Note_off_c, 11, 61, 77
8, 59040, Note_on_c, 11, 61, 93
8, 59072, Note_off_c, 11, 61, 69
8, 59115, Note_on_c, 11, 62, 101
8, 59149, Note_off_c, 11, 62, 74
8, 59207, Note_on_c, 11, 66, 83
8, 59257, Note_off_c, 11, 66, 28
8, 59307, Note_on_c, 11, 69, 95
8, 59338, Note_off_c, 11, 69, 69
8, 59390, Note_on_c, 11, 66, 95
8, 59418, Note_off_c, 11, 66, 66
8, 59475, Note_on_c, 11, 62, 93
8, 59518, Note_off_c, 11, 62, 54
8, 59562, Note_on_c, 11, 66, 60
8, 59603, Note_off_c, 11, 66, 34
8, 59665, Note_on_c, 11, 69, 91
8, 59699, Note_off_c, 11, 69, 66
8, 59763, Note_on_c, 11, 66, 79
8, 59815, Note_off_c, 11, 66, 9
8, 59883, Note_on_c, 11, 62, 75
8, 59933, Note_off_c, 11, 62, 75
8, 59983, Note_on_c, 11, 66, 56
8, 60063, Note_off_c, 11, 66, 1
8, 60096, Note_on_c, 11, 69, 85
8, 60175, Note_off_c, 11, 69, 55
8, 60188, Note_on_c, 11, 66, 60
8, 60283, Note_off_c, 11, 66, 32
8, 60291, Note_on_c, 11, 62, 93
8, 60376, Note_on_c, 11, 66, 56
8, 60395, Note_off_c, 11, 62, 2
8, 60457, Note_off_c, 11, 66, 1
8, 60483, Note_on_c, 11, 69, 87
8, 60564, Note_off_c, 11, 69, 10
8, 60574, Note_on_c, 11, 66, 83
8, 60599, Note_off_c, 11, 66, 60
8, 60672, Note_on_c, 11, 67, 124
8, 60832, Note_off_c, 11, 67, 45
8, 60864, Note_on_c, 11, 69, 113
8, 60896, Note_on_c, 11, 67, 119
8, 60898, Note_off_c, 11, 69, 80
8, 60912, Note_on_c, 11, 66, 93
8, 60920, Note_off_c, 11, 67, 70
8, 60944, Note_off_c, 11, 66, 97
8, 60960, Note_on_c, 11, 67, 124
8, 61007, Note_off_c, 11, 67, 79
8, 61008, Note_on_c, 11, 69, 87
8, 61056, Note_off_c, 11, 69, 93
8, 61056, Note_on_c, 11, 71, 95
8, 61236, Note_off_c, 11, 71, 38
8, 61440, Note_on_c, 11, 79, 124
8, 61600, Note_off_c, 11, 79, 45
8, 61632, Note_on_c, 11, 81, 113
8, 61664, Note_on_c, 11, 79, 119
8, 61666, Note_off_c, 11, 81, 80
8, 61680, Note_on_c, 11, 78, 93
8, 61688, Note_off_c, 11, 79, 70
8, 61712, Note_off_c, 11, 78, 97
8, 61728, Note_on_c, 11, 79, 124
8, 61775, Note_off_c, 11, 79, 79
8, 61776, Note_on_c, 11, 81, 87
8, 61824, Note_off_c, 11, 81, 93
8, 61824, Note_on_c, 11, 83, 95
8, 62004, Note_off_c, 11, 83, 38
8, 62208, Note_on_c, 11, 62, 107
8, 62294, Note_off_c, 11, 62, 1
8, 62304, Note_on_c, 11, 66, 58
8, 62381, Note_off_c, 11, 66, 71
8, 62400, Note_on_c, 11, 69, 85
8, 62487, Note_off_c, 11, 69, 60
8, 62496, Note_on_c, 11, 66, 51
8, 62582, Note_off_c, 11, 66, 58
8, 62592, Note_on_c, 11, 62, 91
8, 62688, Note_on_c, 11, 66, 43
8, 62707, Note_off_c, 11, 62, 34
8, 62784, Note_off_c, 11, 66, 4
8, 62784, Note_on_c, 11, 69, 89
8, 62880, Note_on_c, 11, 66, 60
8, 62887, Note_off_c, 11, 69, 64
8, 62964, Note_off_c, 11, 66, 5
8, 62976, Note_on_c, 11, 62, 89
8, 63072, Note_on_c, 11, 66, 67
8, 63078, Note_off_c, 11, 62, 1
8, 63168, Note_on_c, 11, 69, 77
8, 63172, Note_off_c, 11, 66, 19
8, 63256, Note_off_c, 11, 69, 71
8, 63264, Note_on_c, 11, 66, 71
8, 63348, Note_off_c, 11, 66, 62
8, 63360, Note_on_c, 11, 62, 91
8, 63456, Note_on_c, 11, 66, 54
8, 63474, Note_off_c, 11, 62, 37
8, 63552, Note_on_c, 11, 69, 93
8, 63561, Note_off_c, 11, 66, 18
8, 63648, Note_on_c, 11, 66, 77
8, 63651, Note_off_c, 11, 69, 58
8, 63674, Note_off_c, 11, 66, 55
8, 63744, Note_on_c, 11, 67, 124
8, 63904, Note_off_c, 11, 67, 45
8, 63936, Note_on_c, 11, 69, 113
8, 63968, Note_on_c, 11, 67, 119
8, 63970, Note_off_c, 11, 69, 80
8, 63984, Note_on_c, 11, 66, 93
8, 63992, Note_off_c, 11, 67, 70
8, 64016, Note_off_c, 11, 66, 97
8, 64032, Note_on_c, 11, 67, 124
8, 64079, Note_off_c, 11, 67, 79
8, 64080, Note_on_c, 11, 69, 87
8, 64128, Note_off_c, 11, 69, 93
8, 64128, Note_on_c, 11, 71, 95
8, 64308, Note_off_c, 11, 71, 38
8, 64512, Note_on_c, 11, 79, 124
8, 64672, Note_off_c, 11, 79, 45
8, 64704, Note_on_c, 11, 81, 113
8, 64736, Note_on_c, 11, 79, 119
8, 64738, Note_off_c, 11, 81, 80
8, 64752, Note_on_c, 11, 78, 93
8, 64760, Note_off_c, 11, 79, 70
8, 64784, Note_off_c, 11, 78, 97
8, 64800, Note_on_c, 11, 79, 124
8, 64847, Note_off_c, 11, 79, 79
8, 64848, Note_on_c, 11, 81, 87
8, 64896, Note_off_c, 11, 81, 93
8, 64896, Note_on_c, 11, 83, 95
8, 65076, Note_off_c, 11, 83, 38
8, 65280, Note_on_c, 11, 62, 107
8, 65331, Note_off_c, 11, 62, 60
8, 65568, Note_on_c, 11, 69, 113
8, 65568, Note_on_c, 11, 78, 79
8, 65600, Note_off_c, 11, 69, 85
8, 65607, Note_off_c, 11, 78, 43
8, 65664, Note_on_c, 11, 79, 124
8, 65664, Note_on_c, 11, 71, 101
8, 65690, Note_off_c, 11, 71, 74
8, 65694, Note_off_c, 11, 79, 83
8, 65760, Note_on_c, 11, 71, 91
8, 65760, Note_on_c, 11, 79, 124
8, 65788, Note_off_c, 11, 79, 87
8, 65790, Note_off_c, 11, 71, 73
8, 65856, Note_on_c, 11, 71, 93
8, 65856, Note_on_c, 11, 79, 124
8, 65881, Note_off_c, 11, 79, 83
8, 65884, Note_off_c, 11, 71, 72
8, 65952, Note_on_c, 11, 71, 87
8, 65952, Note_on_c, 11, 79, 119
8, 65988, Note_off_c, 11, 79, 77
8, 65990, Note_off_c, 11, 71, 61
8, 66048, Note_on_c, 11, 78, 91
8, 66048, Note_on_c, 11, 69, 119
8, 66191, Note_off_c, 11, 78, 54
8, 66201, Note_off_c, 11, 69, 62
8, 66336, Note_on_c, 11, 69, 124
8, 66336, Note_on_c, 11, 78, 83
8, 66371, Note_off_c, 11, 69, 77
8, 66373, Note_off_c, 11, 78, 63
8, 66432, Note_on_c, 11, 79, 1
8, 66432, Note_on_c, 11, 71, 101
8, 66454, Note_off_c, 11, 71, 85
8, 66458, Note_off_c, 11, 79, 83
8, 66528, Note_on_c, 11, 71, 91
8, 66528, Note_on_c, 11, 79, 124
8, 66554, Note_off_c, 11, 79, 65
8, 66556, Note_off_c, 11, 71, 74
8, 66624, Note_on_c, 11, 79, 113
8, 66624, Note_on_c, 11, 71, 85
8, 66648, Note_off_c, 11, 79, 70
8, 66648, Note_off_c, 11, 71, 68
8, 66720, Note_on_c, 11, 71, 85
8, 66720, Note_on_c, 11, 79, 119
8, 66750, Note_off_c, 11, 71, 72
8, 66750, Note_off_c, 11, 79, 70
8, 66816, Note_on_c, 11, 78, 85
8, 66816, Note_on_c, 11, 69, 113
8, 66859, Note_off_c, 11, 69, 63
8, 66860, Note_off_c, 11, 78, 72
8, 67008, Note_on_c, 11, 62, 1
8, 67018, Channel_aftertouch_c, 11, 5
8, 67031, Channel_aftertouch_c, 11, 0
8, 67050, Note_off_c, 11, 62, 92
8, 67200, Note_on_c, 11, 50, 119
8, 67396, Note_off_c, 11, 50, 68
8, 67589, Note_on_c, 11, 67, 59
8, 67684, Note_off_c, 11, 67, 39
8, 67686, Note_on_c, 11, 62, 59
8, 67779, Note_on_c, 11, 67, 59
8, 67788, Note_off_c, 11, 62, 33
8, 67864, Note_off_c, 11, 67, 37
8, 67866, Note_on_c, 11, 62, 59
8, 67963, Note_off_c, 11, 62, 47
8, 67964, Note_on_c, 11, 67, 59
8, 68059, Note_off_c, 11, 67, 36
8, 68060, Note_on_c, 11, 62, 59
8, 68151, Note_on_c, 11, 67, 59
8, 68163, Note_off_c, 11, 62, 33
8, 68252, Note_on_c, 11, 62, 59
8, 68257, Note_off_c, 11, 67, 64
8, 68349, Note_on_c, 11, 69, 59
8, 68356, Note_off_c, 11, 62, 37
8, 68440, Note_on_c, 11, 62, 59
8, 68447, Note_off_c, 11, 69, 52
8, 68529, Note_on_c, 11, 69, 59
8, 68537, Note_off_c, 11, 62, 32
8, 68622, Note_on_c, 11, 62, 59
8, 68624, Note_off_c, 11, 69, 43
8, 68716, Note_on_c, 11, 69, 59
8, 68723, Note_off_c, 11, 62, 46
8, 68812, Note_off_c, 11, 69, 65
8, 68815, Note_on_c, 11, 62, 59
8, 68911, Note_off_c, 11, 62, 21
8, 68917, Note_on_c, 11, 69, 59
8, 69002, Note_off_c, 11, 69, 58
8, 69006, Note_on_c, 11, 62, 59
8, 69096, Note_off_c, 11, 62, 54
8, 69111, Note_on_c, 11, 71, 73
8, 69280, Note_off_c, 11, 71, 71
8, 70272, Note_on_c, 11, 66, 44
8, 70272, Note_on_c, 11, 57, 77
8, 70608, Note_off_c, 11, 57, 53
8, 70632, Note_off_c, 11, 66, 35
8, 70656, Note_on_c, 11, 67, 75
8, 70656, Note_on_c, 11, 55, 63
8, 70848, Note_off_c, 11, 55, 43
8, 70872, Note_off_c, 11, 67, 55
8, 71808, Note_on_c, 11, 57, 71
8, 71808, Note_on_c, 11, 66, 40
8, 72075, Note_off_c, 11, 57, 4
8, 72131, Note_off_c, 11, 66, 31
8, 72192, Note_on_c, 11, 55, 46
8, 72192, Note_on_c, 11, 67, 47
8, 72415, Note_off_c, 11, 55, 73
8, 72425, Note_off_c, 11, 67, 75
8, 74784, Note_on_c, 11, 67, 1
8, 74805, Note_off_c, 11, 67, 81
8, 74880, Note_on_c, 11, 67, 1
8, 74908, Note_off_c, 11, 67, 83
8, 74976, Note_on_c, 11, 71, 105
8, 74997, Note_off_c, 11, 71, 67
8, 75072, Note_on_c, 11, 67, 1
8, 75091, Note_off_c, 11, 67, 94
8, 75168, Note_on_c, 11, 62, 103
8, 75187, Note_off_c, 11, 62, 67
8, 75264, Note_on_c, 11, 67, 1
8, 75409, Note_off_c, 11, 67, 54
8, 75552, Note_on_c, 11, 67, 1
8, 75569, Note_off_c, 11, 67, 36
8, 75648, Note_on_c, 11, 67, 1
8, 75680, Note_off_c, 11, 67, 89
8, 75744, Note_on_c, 11, 71, 113
8, 75765, Note_off_c, 11, 71, 64
8, 75840, Note_on_c, 11, 67, 121
8, 75861, Note_off_c, 11, 67, 87
8, 75936, Note_on_c, 11, 62, 105
8, 75968, Note_off_c, 11, 62, 72
8, 76032, Note_on_c, 11, 64, 107
8, 76070, Note_off_c, 11, 64, 69
8, 76224, Note_on_c, 11, 67, 122
8, 76224, Note_on_c, 11, 69, 122
8, 76411, Note_off_c, 11, 69, 51
8, 76414, Note_off_c, 11, 67, 74
8, 76608, Note_on_c, 11, 66, 79
8, 76608, Note_on_c, 11, 69, 122
8, 76788, Note_off_c, 11, 69, 89
8, 76792, Note_off_c, 11, 66, 50
8, 76992, Note_on_c, 11, 67, 122
8, 76992, Note_on_c, 11, 59, 85
8, 77178, Note_off_c, 11, 59, 76
8, 77182, Note_off_c, 11, 67, 82
8, 77376, Note_on_c, 11, 67, 101
8, 77376, Note_on_c, 11, 59, 89
8, 77520, Note_off_c, 11, 67, 56
8, 77520, Note_off_c, 11, 59, 52
8, 77568, Note_on_c, 11, 64, 122
8, 77774, Note_off_c, 11, 64, 1
8, 77856, Note_on_c, 11, 72, 93
8, 77881, Note_off_c, 11, 72, 60
8, 77952, Note_on_c, 11, 71, 95
8, 77977, Note_off_c, 11, 71, 70
8, 78048, Note_on_c, 11, 69, 113
8, 78073, Note_off_c, 11, 69, 77
8, 78144, Note_on_c, 11, 67, 101
8, 78169, Note_off_c, 11, 67, 86
8, 78240, Note_on_c, 11, 66, 93
8, 78262, Note_off_c, 11, 66, 66
8, 80640, Note_on_c, 11, 72, 71
8, 81024, Note_on_c, 11, 71, 73
8, 81034, Note_off_c, 11, 72, 50
8, 81096, Note_off_c, 11, 71, 54
8, 81120, Note_on_c, 11, 69, 83
8, 81168, Note_off_c, 11, 69, 85
8, 81216, Note_on_c, 11, 67, 83
8, 81240, Note_off_c, 11, 67, 67
8, 81312, Note_on_c, 11, 66, 91
8, 81331, Note_off_c, 11, 66, 71
8, 81408, Note_on_c, 11, 67, 97
8, 81572, Note_off_c, 11, 67, 90
8, 84648, Program_c, 11, 45
8, 84864, Note_on_c, 11, 71, 65
8, 84891, Note_off_c, 11, 71, 65
8, 85056, Note_on_c, 11, 69, 65
8, 85085, Note_off_c, 11, 69, 77
8, 85248, Note_on_c, 11, 67, 65
8, 85445, Note_off_c, 11, 67, 87
8, 85632, Note_on_c, 11, 71, 65
8, 85653, Note_off_c, 11, 71, 62
8, 85728, Note_on_c, 11, 71, 65
8, 85748, Note_off_c, 11, 71, 71
8, 85824, Note_on_c, 11, 69, 65
8, 85846, Note_off_c, 11, 69, 81
8, 85920, Note_on_c, 11, 69, 65
8, 85941, Note_off_c, 11, 69, 80
8, 86016, Note_on_c, 11, 67, 65
8, 86174, Note_off_c, 11, 67, 49
8, 86400, Note_on_c, 11, 71, 65
8, 86429, Note_off_c, 11, 71, 68
8, 86592, Note_on_c, 11, 69, 65
8, 86619, Note_off_c, 11, 69, 75
8, 86784, Note_on_c, 11, 67, 65
8, 86819, Note_off_c, 11, 67, 67
8, 86976, Note_on_c, 11, 66, 65
8, 87005, Note_off_c, 11, 66, 57
8, 87168, Note_on_c, 11, 74, 65
8, 87201, Note_off_c, 11, 74, 66
8, 87360, Note_on_c, 11, 72, 65
8, 87390, Note_off_c, 11, 72, 46
8, 87552, Note_on_c, 11, 71, 65
8, 87583, Note_off_c, 11, 71, 71
8, 87936, Note_on_c, 11, 69, 65
8, 87936, Note_on_c, 11, 67, 65
8, 88089, Note_off_c, 11, 67, 66
8, 88094, Note_off_c, 11, 69, 82
8, 88320, Note_on_c, 11, 71, 65
8, 88345, Note_off_c, 11, 71, 40
8, 88512, Note_on_c, 11, 67, 65
8, 88536, Note_off_c, 11, 67, 91
8, 88704, Note_on_c, 11, 66, 65
8, 88727, Note_off_c, 11, 66, 74
8, 88896, Note_on_c, 11, 66, 65
8, 88920, Note_off_c, 11, 66, 68
8, 88944, Program_c, 11, 48
8, 89952, Note_on_c, 11, 67, 91
8, 89976, Note_off_c, 11, 67, 50
8, 90048, Note_on_c, 11, 67, 101
8, 90072, Note_off_c, 11, 67, 72
8, 90144, Note_on_c, 11, 67, 101
8, 90168, Note_off_c, 11, 67, 78
8, 90240, Note_on_c, 11, 67, 119
8, 90264, Note_off_c, 11, 67, 79
8, 90336, Note_on_c, 11, 67, 113
8, 90360, Note_off_c, 11, 67, 74
8, 90432, Note_on_c, 11, 67, 101
8, 90456, Note_off_c, 11, 67, 38
8, 90528, Note_on_c, 11, 67, 101
8, 90552, Note_off_c, 11, 67, 58
8, 90624, Note_on_c, 11, 66, 79
8, 90648, Note_off_c, 11, 66, 55
8, 90672, Note_on_c, 11, 66, 79
8, 90696, Note_off_c, 11, 66, 63
8, 90720, Note_on_c, 11, 66, 79
8, 90744, Note_off_c, 11, 66, 64
8, 90768, Note_on_c, 11, 66, 79
8, 90792, Note_off_c, 11, 66, 71
8, 90816, Note_on_c, 11, 66, 89
8, 90840, Note_off_c, 11, 66, 70
8, 90864, Note_on_c, 11, 66, 89
8, 90888, Note_off_c, 11, 66, 72
8, 90912, Note_on_c, 11, 66, 89
8, 90936, Note_off_c, 11, 66, 58
8, 90960, Note_on_c, 11, 66, 89
8, 90984, Note_off_c, 11, 66, 71
8, 91008, Note_on_c, 11, 69, 99
8, 91032, Note_off_c, 11, 69, 89
8, 91056, Note_on_c, 11, 69, 99
8, 91080, Note_off_c, 11, 69, 82
8, 91104, Note_on_c, 11, 69, 99
8, 91128, Note_off_c, 11, 69, 93
8, 91152, Note_on_c, 11, 69, 99
8, 91176, Note_off_c, 11, 69, 83
8, 91200, Note_on_c, 11, 72, 109
8, 91224, Note_off_c, 11, 72, 86
8, 91248, Note_on_c, 11, 72, 109
8, 91272, Note_off_c, 11, 72, 75
8, 91296, Note_on_c, 11, 72, 109
8, 91320, Note_off_c, 11, 72, 76
8, 91344, Note_on_c, 11, 72, 109
8, 91368, Note_off_c, 11, 72, 78
8, 91392, Note_on_c, 11, 71, 119
8, 91450, Note_off_c, 11, 71, 60
8, 91584, Note_on_c, 11, 76, 113
8, 91609, Note_off_c, 11, 76, 81
8, 91776, Note_on_c, 11, 74, 113
8, 91803, Note_off_c, 11, 74, 91
8, 91968, Note_on_c, 11, 72, 95
8, 91994, Note_off_c, 11, 72, 69
8, 92160, Note_on_c, 11, 71, 85
8, 92435, Note_off_c, 11, 71, 83
8, 92448, Note_on_c, 11, 69, 87
8, 92544, Note_on_c, 11, 67, 94
8, 92551, Note_off_c, 11, 69, 87
8, 92610, Note_off_c, 11, 67, 5
8, 93120, Note_on_c, 11, 67, 101
8, 93145, Note_off_c, 11, 67, 79
8, 93312, Note_on_c, 11, 66, 63
8, 93344, Note_off_c, 11, 66, 67
8, 93504, Note_on_c, 11, 64, 101
8, 93527, Note_off_c, 11, 64, 73
8, 93696, Note_on_c, 11, 62, 75
8, 93984, Note_on_c, 11, 60, 63
8, 94006, Note_off_c, 11, 62, 44
8, 94080, Note_on_c, 11, 59, 77
8, 94090, Note_off_c, 11, 60, 27
8, 94232, Note_off_c, 11, 59, 27
8, 94464, Note_on_c, 11, 74, 79
8, 94488, Note_off_c, 11, 74, 64
8, 94512, Note_on_c, 11, 69, 79
8, 94536, Note_off_c, 11, 69, 64
8, 94560, Note_on_c, 11, 66, 79
8, 94584, Note_off_c, 11, 66, 64
8, 94608, Note_on_c, 11, 62, 79
8, 94632, Note_off_c, 11, 62, 64
8, 94656, Note_on_c, 11, 74, 79
8, 94680, Note_off_c, 11, 74, 64
8, 94704, Note_on_c, 11, 74, 79
8, 94728, Note_off_c, 11, 74, 64
8, 94752, Note_on_c, 11, 74, 79
8, 94776, Note_off_c, 11, 74, 64
8, 94800, Note_on_c, 11, 74, 79
8, 94824, Note_off_c, 11, 74, 64
8, 94848, Note_on_c, 11, 74, 79
8, 94872, Note_off_c, 11, 74, 64
8, 94896, Note_on_c, 11, 69, 79
8, 94920, Note_off_c, 11, 69, 64
8, 94944, Note_on_c, 11, 66, 79
8, 94968, Note_off_c, 11, 66, 64
8, 94992, Note_on_c, 11, 62, 79
8, 95016, Note_off_c, 11, 62, 64
8, 95040, Note_on_c, 11, 74, 79
8, 95064, Note_off_c, 11, 74, 64
8, 95088, Note_on_c, 11, 74, 79
8, 95112, Note_off_c, 11, 74, 64
8, 95136, Note_on_c, 11, 74, 79
8, 95160, Note_off_c, 11, 74, 64
8, 95184, Note_on_c, 11, 74, 79
8, 95208, Note_off_c, 11, 74, 64
8, 95232, Note_on_c, 11, 74, 79
8, 95256, Note_off_c, 11, 74, 64
8, 95280, Note_on_c, 11, 71, 79
8, 95304, Note_off_c, 11, 71, 64
8, 95328, Note_on_c, 11, 67, 79
8, 95352, Note_off_c, 11, 67, 64
8, 95376, Note_on_c, 11, 62, 79
8, 95400, Note_off_c, 11, 62, 64
8, 95424, Note_on_c, 11, 74, 79
8, 95448, Note_off_c, 11, 74, 64
8, 95472, Note_on_c, 11, 74, 79
8, 95496, Note_off_c, 11, 74, 64
8, 95520, Note_on_c, 11, 74, 79
8, 95544, Note_off_c, 11, 74, 64
8, 95568, Note_on_c, 11, 74, 79
8, 95592, Note_off_c, 11, 74, 64
8, 95616, Note_on_c, 11, 74, 79
8, 95640, Note_off_c, 11, 74, 64
8, 95664, Note_on_c, 11, 71, 79
8, 95688, Note_off_c, 11, 71, 64
8, 95712, Note_on_c, 11, 67, 79
8, 95736, Note_off_c, 11, 67, 64
8, 95760, Note_on_c, 11, 62, 79
8, 95784, Note_off_c, 11, 62, 64
8, 95808, Note_on_c, 11, 74, 79
8, 95832, Note_off_c, 11, 74, 64
8, 95856, Note_on_c, 11, 74, 79
8, 95880, Note_off_c, 11, 74, 64
8, 95904, Note_on_c, 11, 74, 79
8, 95928, Note_off_c, 11, 74, 64
8, 95952, Note_on_c, 11, 74, 79
8, 95976, Note_off_c, 11, 74, 64
8, 96000, Note_on_c, 11, 64, 79
8, 96168, Note_off_c, 11, 64, 64
8, 96192, Note_on_c, 11, 74, 79
8, 96228, Note_off_c, 11, 74, 64
8, 96240, Note_on_c, 11, 72, 79
8, 96276, Note_off_c, 11, 72, 64
8, 96288, Note_on_c, 11, 71, 79
8, 96324, Note_off_c, 11, 71, 64
8, 96336, Note_on_c, 11, 69, 79
8, 96372, Note_off_c, 11, 69, 64
8, 96384, Note_on_c, 11, 67, 79
8, 96528, Note_off_c, 11, 67, 64
8, 96576, Note_on_c, 11, 66, 79
8, 96744, Note_off_c, 11, 66, 64
8, 96768, Note_on_c, 11, 74, 79
8, 96804, Note_off_c, 11, 74, 64
8, 96816, Note_on_c, 11, 72, 79
8, 96852, Note_off_c, 11, 72, 64
8, 96864, Note_on_c, 11, 71, 79
8, 96900, Note_off_c, 11, 71, 64
8, 96912, Note_on_c, 11, 69, 79
8, 96948, Note_off_c, 11, 69, 64
8, 96960, Note_on_c, 11, 67, 79
8, 96996, Note_off_c, 11, 67, 64
8, 97008, Note_on_c, 11, 66, 79
8, 97044, Note_off_c, 11, 66, 64
8, 97056, Note_on_c, 11, 64, 79
8, 97092, Note_off_c, 11, 64, 64
8, 97104, Note_on_c, 11, 62, 79
8, 97140, Note_off_c, 11, 62, 64
8, 97152, Note_on_c, 11, 64, 79
8, 97188, Note_off_c, 11, 64, 64
8, 97248, Note_on_c, 11, 67, 79
8, 97284, Note_off_c, 11, 67, 64
8, 97344, Note_on_c, 11, 72, 79
8, 97380, Note_off_c, 11, 72, 64
8, 97440, Note_on_c, 11, 76, 79
8, 97476, Note_off_c, 11, 76, 64
8, 97536, Note_on_c, 11, 62, 79
8, 97680, Note_off_c, 11, 62, 64
8, 97728, Note_on_c, 11, 83, 79
8, 97968, Note_off_c, 11, 83, 64
8, 98016, Note_on_c, 11, 84, 79
8, 98052, Note_off_c, 11, 84, 64
8, 98064, Note_on_c, 11, 83, 79
8, 98100, Note_off_c, 11, 83, 64
8, 98112, Note_on_c, 11, 81, 79
8, 98160, Note_off_c, 11, 81, 64
8, 98208, Note_on_c, 11, 79, 79
8, 98256, Note_off_c, 11, 79, 64
8, 98304, Note_on_c, 11, 74, 79
8, 98424, Note_off_c, 11, 74, 64
8, 98448, Note_on_c, 11, 72, 79
8, 98484, Note_off_c, 11, 72, 64
8, 98496, Note_on_c, 11, 71, 79
8, 98856, Note_off_c, 11, 71, 64
8, 98880, Note_on_c, 11, 69, 79
8, 99048, Note_off_c, 11, 69, 64
8, 101376, Note_on_c, 11, 56, 79
8, 101544, Note_off_c, 11, 56, 64
8, 102914, Note_on_c, 11, 68, 38
8, 102915, Note_on_c, 11, 59, 38
8, 103518, Note_off_c, 11, 59, 1
8, 103680, Note_on_c, 11, 57, 38
8, 103681, Note_off_c, 11, 68, 37
8, 103683, Note_on_c, 11, 69, 38
8, 104322, Note_off_c, 11, 57, 78
8, 104350, Note_off_c, 11, 69, 23
8, 104438, Note_on_c, 11, 69, 65
8, 105027, Note_on_c, 11, 68, 77
8, 105031, Note_off_c, 11, 69, 68
8, 105212, Note_on_c, 11, 69, 107
8, 105214, Note_off_c, 11, 68, 54
8, 105258, Note_off_c, 11, 69, 68
8, 105392, Note_on_c, 11, 62, 91
8, 105427, Note_off_c, 11, 62, 62
8, 105609, Note_on_c, 11, 60, 54
8, 105801, Note_off_c, 11, 60, 28
8, 105987, Note_on_c, 11, 59, 60
8, 106266, Note_on_c, 11, 71, 87
8, 106275, Note_off_c, 11, 59, 48
8, 106357, Note_off_c, 11, 71, 12
8, 106375, Note_on_c, 11, 69, 89
8, 106563, Note_on_c, 11, 68, 77
8, 106574, Note_off_c, 11, 69, 83
8, 106686, Note_off_c, 11, 68, 60
8, 106762, Note_on_c, 11, 69, 101
8, 106792, Note_off_c, 11, 69, 76
8, 106842, Note_on_c, 11, 69, 119
8, 106885, Note_off_c, 11, 69, 51
8, 109049, Note_on_c, 11, 61, 69
8, 109182, Note_off_c, 11, 61, 66
8, 110592, Note_on_c, 11, 58, 58
8, 110592, Note_on_c, 11, 67, 58
8, 111098, Note_off_c, 11, 67, 51
8, 111107, Note_off_c, 11, 58, 64
8, 111181, Note_on_c, 11, 57, 58
8, 111183, Note_on_c, 11, 67, 58
8, 111280, Note_off_c, 11, 67, 73
8, 111285, Note_off_c, 11, 57, 44
8, 111369, Note_on_c, 11, 65, 58
8, 111370, Note_on_c, 11, 57, 58
8, 112005, Note_off_c, 11, 57, 59
8, 112034, Note_off_c, 11, 65, 66
8, 112121, Note_on_c, 11, 62, 49
8, 112400, Note_on_c, 11, 64, 49
8, 112412, Note_off_c, 11, 62, 61
8, 112500, Note_on_c, 11, 65, 49
8, 112514, Note_off_c, 11, 64, 40
8, 112686, Note_off_c, 11, 65, 68
8, 112693, Note_on_c, 11, 64, 49
8, 112862, Note_off_c, 11, 64, 14
8, 112898, Note_on_c, 11, 62, 49
8, 112940, Note_off_c, 11, 62, 86
8, 113083, Note_on_c, 11, 55, 49
8, 113113, Note_off_c, 11, 55, 81
8, 113283, Note_on_c, 11, 57, 49
8, 113490, Note_off_c, 11, 57, 28
8, 113664, Note_on_c, 11, 62, 81
8, 114240, Note_off_c, 11, 62, 59
8, 114240, Note_on_c, 11, 61, 59
8, 114432, Note_off_c, 11, 61, 38
8, 114432, Note_on_c, 11, 62, 79
8, 114624, Note_off_c, 11, 62, 78
8, 121344, Note_on_c, 11, 75, 69
8, 121632, Note_off_c, 11, 75, 48
8, 121632, Note_on_c, 11, 72, 69
8, 121704, Note_off_c, 11, 72, 16
8, 121728, Note_on_c, 11, 75, 69
8, 121776, Note_off_c, 11, 75, 75
8, 121920, Note_on_c, 11, 72, 69
8, 121957, Note_off_c, 11, 72, 63
8, 122112, Note_on_c, 11, 71, 69
8, 122256, Note_off_c, 11, 71, 62
8, 122880, Note_on_c, 11, 75, 69
8, 123132, Note_off_c, 11, 75, 43
8, 123168, Note_on_c, 11, 72, 69
8, 123264, Note_on_c, 11, 75, 69
8, 123299, Note_off_c, 11, 72, 58
8, 123326, Note_off_c, 11, 75, 64
8, 123456, Note_on_c, 11, 72, 69
8, 123493, Note_off_c, 11, 72, 76
8, 123648, Note_on_c, 11, 71, 69
8, 123782, Note_off_c, 11, 71, 57
8, 125280, Note_on_c, 11, 67, 79
8, 125376, Note_on_c, 11, 66, 79
8, 125383, Note_off_c, 11, 67, 59
8, 125468, Note_off_c, 11, 66, 44
8, 125472, Note_on_c, 11, 67, 79
8, 125544, Note_off_c, 11, 67, 84
8, 126048, Note_on_c, 11, 67, 79
8, 126144, Note_off_c, 11, 67, 77
8, 126144, Note_on_c, 11, 66, 79
8, 126228, Note_off_c, 11, 66, 66
8, 126240, Note_on_c, 11, 67, 79
8, 126314, Note_off_c, 11, 67, 86
8, 129024, Note_on_c, 11, 72, 73
8, 129264, Note_off_c, 11, 72, 14
8, 129312, Note_on_c, 11, 67, 95
8, 129360, Note_off_c, 11, 67, 64
8, 129408, Note_on_c, 11, 64, 85
8, 129456, Note_off_c, 11, 64, 62
8, 129504, Note_on_c, 11, 60, 87
8, 129552, Note_off_c, 11, 60, 49
8, 129600, Note_on_c, 11, 64, 91
8, 129648, Note_off_c, 11, 64, 25
8, 129696, Note_on_c, 11, 67, 95
8, 129744, Note_off_c, 11, 67, 55
8, 129792, Note_on_c, 11, 72, 91
8, 130008, Note_off_c, 11, 72, 24
8, 130080, Note_on_c, 11, 67, 95
8, 130128, Note_off_c, 11, 67, 56
8, 130176, Note_on_c, 11, 64, 91
8, 130224, Note_off_c, 11, 64, 48
8, 130272, Note_on_c, 11, 60, 79
8, 130320, Note_off_c, 11, 60, 33
8, 130368, Note_on_c, 11, 64, 93
8, 130440, Note_off_c, 11, 64, 51
8, 130464, Note_on_c, 11, 67, 73
8, 130512, Note_off_c, 11, 67, 46
8, 130560, Note_on_c, 11, 72, 81
8, 130680, Note_off_c, 11, 72, 53
8, 142176, Note_on_c, 11, 55, 104
8, 142201, Note_off_c, 11, 55, 91
8, 142272, Note_on_c, 11, 57, 104
8, 142297, Note_off_c, 11, 57, 74
8, 142368, Note_on_c, 11, 59, 104
8, 142395, Note_off_c, 11, 59, 80
8, 142464, Note_on_c, 11, 60, 104
8, 142489, Note_off_c, 11, 60, 70
8, 142560, Note_on_c, 11, 62, 104
8, 142584, Note_off_c, 11, 62, 87
8, 142656, Note_on_c, 11, 64, 104
8, 142679, Note_off_c, 11, 64, 89
8, 142752, Note_on_c, 11, 66, 104
8, 142774, Note_off_c, 11, 66, 81
8, 142848, Note_on_c, 11, 67, 104
8, 142951, Note_off_c, 11, 67, 93
8, 150624, Note_on_c, 11, 67, 40
8, 150661, Note_off_c, 11, 67, 73
8, 150720, Note_on_c, 11, 67, 40
8, 150746, Note_off_c, 11, 67, 82
8, 150816, Note_on_c, 11, 67, 40
8, 150845, Note_off_c, 11, 67, 62
8, 150912, Note_on_c, 11, 67, 40
8, 150938, Note_off_c, 11, 67, 75
8, 151008, Note_on_c, 11, 67, 40
8, 151038, Note_off_c, 11, 67, 75
8, 151104, Note_on_c, 11, 64, 40
8, 151345, Note_off_c, 11, 64, 62
8, 151392, Note_on_c, 11, 64, 40
8, 151416, Note_off_c, 11, 64, 80
8, 151488, Note_on_c, 11, 64, 40
8, 151514, Note_off_c, 11, 64, 80
8, 151584, Note_on_c, 11, 64, 40
8, 151609, Note_off_c, 11, 64, 75
8, 151680, Note_on_c, 11, 64, 40
8, 151700, Note_off_c, 11, 64, 52
8, 151776, Note_on_c, 11, 64, 40
8, 151802, Note_off_c, 11, 64, 39
8, 151872, Note_on_c, 11, 60, 40
8, 152126, Note_off_c, 11, 60, 58
8, 152160, Note_on_c, 11, 60, 40
8, 152189, Note_off_c, 11, 60, 60
8, 152256, Note_on_c, 11, 60, 40
8, 152285, Note_off_c, 11, 60, 34
8, 152352, Note_on_c, 11, 60, 40
8, 152382, Note_off_c, 11, 60, 6
8, 152448, Note_on_c, 11, 60, 40
8, 152476, Note_off_c, 11, 60, 47
8, 152544, Note_on_c, 11, 60, 40
8, 152576, Note_off_c, 11, 60, 36
8, 152640, Note_on_c, 11, 57, 40
8, 153024, Note_on_c, 11, 55, 40
8, 153065, Note_off_c, 11, 57, 90
8, 153216, Note_off_c, 11, 55, 44
8, 153216, Note_on_c, 11, 57, 40
8, 153524, Note_off_c, 11, 57, 75
8, 153600, Note_on_c, 11, 55, 81
8, 153696, Note_on_c, 11, 59, 71
8, 153706, Note_off_c, 11, 55, 55
8, 153792, Note_on_c, 11, 62, 63
8, 153800, Note_off_c, 11, 59, 43
8, 153888, Note_on_c, 11, 59, 65
8, 153889, Note_off_c, 11, 62, 71
8, 153984, Note_on_c, 11, 55, 63
8, 153996, Note_off_c, 11, 59, 36
8, 154080, Note_on_c, 11, 59, 71
8, 154093, Note_off_c, 11, 55, 50
8, 154176, Note_on_c, 11, 62, 63
8, 154181, Note_off_c, 11, 59, 49
8, 154272, Note_on_c, 11, 59, 59
8, 154289, Note_off_c, 11, 62, 53
8, 154357, Note_off_c, 11, 59, 47
8, 154368, Note_on_c, 11, 55, 67
8, 154464, Note_on_c, 11, 59, 67
8, 154467, Note_off_c, 11, 55, 44
8, 154560, Note_on_c, 11, 62, 67
8, 154584, Note_off_c, 11, 59, 30
8, 154656, Note_on_c, 11, 59, 59
8, 154682, Note_off_c, 11, 62, 61
8, 154746, Note_off_c, 11, 59, 40
8, 154752, Note_on_c, 11, 55, 59
8, 154848, Note_on_c, 11, 59, 69
8, 154860, Note_off_c, 11, 55, 46
8, 154944, Note_on_c, 11, 62, 75
8, 154960, Note_off_c, 11, 59, 64
8, 155029, Note_off_c, 11, 62, 57
8, 155040, Note_on_c, 11, 59, 65
8, 155076, Note_off_c, 11, 59, 60
8, 155141, Note_on_c, 11, 60, 46
8, 155269, Note_off_c, 11, 60, 14
8, 155338, Note_on_c, 11, 62, 56
8, 155373, Note_on_c, 11, 60, 48
8, 155385, Note_off_c, 11, 62, 80
8, 155410, Note_off_c, 11, 60, 52
8, 155414, Note_on_c, 11, 59, 56
8, 155449, Note_on_c, 11, 60, 66
8, 155453, Note_off_c, 11, 59, 82
8, 155482, Note_on_c, 11, 62, 56
8, 155489, Note_off_c, 11, 60, 50
8, 155507, Note_off_c, 11, 62, 24
8, 155508, Note_on_c, 11, 64, 84
8, 155728, Note_off_c, 11, 64, 86
8, 155903, Note_on_c, 11, 72, 84
8, 155983, Note_off_c, 11, 72, 54
8, 156095, Note_on_c, 11, 74, 72
8, 156115, Note_on_c, 11, 72, 66
8, 156128, Note_off_c, 11, 74, 72
8, 156151, Note_off_c, 11, 72, 43
8, 156156, Note_on_c, 11, 71, 40
8, 156188, Note_on_c, 11, 72, 66
8, 156201, Note_off_c, 11, 71, 61
8, 156219, Note_on_c, 11, 74, 78
8, 156246, Note_off_c, 11, 72, 42
8, 156289, Note_off_c, 11, 74, 81
8, 156296, Note_on_c, 11, 76, 52
8, 156506, Note_off_c, 11, 76, 83
8, 156668, Note_on_c, 11, 55, 81
8, 156765, Note_on_c, 11, 59, 65
8, 156781, Note_off_c, 11, 55, 25
8, 156857, Note_off_c, 11, 59, 46
8, 156857, Note_on_c, 11, 62, 69
8, 156962, Note_on_c, 11, 59, 57
8, 156973, Note_off_c, 11, 62, 30
8, 157046, Note_off_c, 11, 59, 32
8, 157057, Note_on_c, 11, 55, 53
8, 157149, Note_on_c, 11, 59, 53
8, 157166, Note_off_c, 11, 55, 39
8, 157264, Note_off_c, 11, 59, 33
8, 157266, Note_on_c, 11, 62, 63
8, 157365, Note_on_c, 11, 59, 43
8, 157385, Note_off_c, 11, 62, 21
8, 157446, Note_off_c, 11, 59, 39
8, 157458, Note_on_c, 11, 55, 63
8, 157542, Note_on_c, 11, 59, 69
8, 157559, Note_off_c, 11, 55, 47
8, 157645, Note_on_c, 11, 62, 67
8, 157651, Note_off_c, 11, 59, 34
8, 157727, Note_on_c, 11, 59, 53
8, 157748, Note_off_c, 11, 62, 48
8, 157825, Note_off_c, 11, 59, 32
8, 157829, Note_on_c, 11, 55, 55
8, 157907, Note_on_c, 11, 59, 71
8, 157925, Note_off_c, 11, 55, 42
8, 158008, Note_on_c, 11, 62, 67
8, 158009, Note_off_c, 11, 59, 49
8, 158104, Note_on_c, 11, 59, 59
8, 158122, Note_off_c, 11, 62, 14
8, 158140, Note_off_c, 11, 59, 60
8, 158206, Note_on_c, 11, 60, 49
8, 158339, Note_off_c, 11, 60, 20
8, 158413, Note_on_c, 11, 62, 69
8, 158447, Note_on_c, 11, 60, 65
8, 158460, Note_off_c, 11, 62, 80
8, 158486, Note_off_c, 11, 60, 40
8, 158487, Note_on_c, 11, 59, 75
8, 158523, Note_on_c, 11, 60, 67
8, 158532, Note_off_c, 11, 59, 68
8, 158552, Note_on_c, 11, 62, 93
8, 158570, Note_off_c, 11, 60, 43
8, 158599, Note_off_c, 11, 62, 91
8, 158600, Note_on_c, 11, 64, 81
8, 158829, Note_off_c, 11, 64, 89
8, 158983, Note_on_c, 11, 72, 67
8, 159149, Note_off_c, 11, 72, 24
8, 159161, Note_on_c, 11, 74, 93
8, 159203, Note_on_c, 11, 72, 73
8, 159218, Note_off_c, 11, 74, 72
8, 159234, Note_on_c, 11, 71, 59
8, 159241, Note_off_c, 11, 72, 58
8, 159274, Note_on_c, 11, 72, 87
8, 159280, Note_off_c, 11, 71, 71
8, 159297, Note_on_c, 11, 74, 87
8, 159326, Note_off_c, 11, 72, 36
8, 159349, Note_on_c, 11, 76, 75
8, 159350, Note_off_c, 11, 74, 80
8, 159582, Note_off_c, 11, 76, 18
8, 159720, Note_on_c, 11, 67, 93
8, 159744, Note_off_c, 11, 67, 70
8, 159744, Note_on_c, 11, 71, 92
8, 159780, Note_off_c, 11, 71, 64
8, 159792, Note_on_c, 11, 74, 92
8, 159828, Note_off_c, 11, 74, 64
8, 159840, Note_on_c, 11, 79, 92
8, 159876, Note_off_c, 11, 79, 64
8, 159888, Note_on_c, 11, 79, 92
8, 159924, Note_off_c, 11, 79, 64
8, 159936, Note_on_c, 11, 79, 92
8, 159972, Note_off_c, 11, 79, 64
8, 159984, Note_on_c, 11, 79, 92
8, 160020, Note_off_c, 11, 79, 64
8, 160032, Note_on_c, 11, 79, 92
8, 160068, Note_off_c, 11, 79, 64
8, 160080, Note_on_c, 11, 79, 92
8, 160116, Note_off_c, 11, 79, 64
8, 160128, Note_on_c, 11, 72, 92
8, 160164, Note_off_c, 11, 72, 64
8, 160176, Note_on_c, 11, 76, 92
8, 160212, Note_off_c, 11, 76, 64
8, 160224, Note_on_c, 11, 79, 92
8, 160260, Note_off_c, 11, 79, 64
8, 160272, Note_on_c, 11, 79, 92
8, 160308, Note_off_c, 11, 79, 64
8, 160320, Note_on_c, 11, 79, 92
8, 160356, Note_off_c, 11, 79, 64
8, 160368, Note_on_c, 11, 79, 92
8, 160404, Note_off_c, 11, 79, 64
8, 160416, Note_on_c, 11, 79, 92
8, 160452, Note_off_c, 11, 79, 64
8, 160464, Note_on_c, 11, 79, 92
8, 160500, Note_off_c, 11, 79, 64
8, 160512, Note_on_c, 11, 71, 92
8, 160548, Note_off_c, 11, 71, 64
8, 160560, Note_on_c, 11, 74, 92
8, 160596, Note_off_c, 11, 74, 64
8, 160608, Note_on_c, 11, 79, 92
8, 160644, Note_off_c, 11, 79, 64
8, 160656, Note_on_c, 11, 79, 92
8, 160692, Note_off_c, 11, 79, 64
8, 160704, Note_on_c, 11, 79, 92
8, 160740, Note_off_c, 11, 79, 64
8, 160752, Note_on_c, 11, 79, 92
8, 160788, Note_off_c, 11, 79, 64
8, 160800, Note_on_c, 11, 79, 92
8, 160836, Note_off_c, 11, 79, 64
8, 160848, Note_on_c, 11, 79, 92
8, 160884, Note_off_c, 11, 79, 64
8, 160896, Note_on_c, 11, 72, 92
8, 160932, Note_off_c, 11, 72, 64
8, 160944, Note_on_c, 11, 76, 92
8, 160980, Note_off_c, 11, 76, 64
8, 160992, Note_on_c, 11, 79, 92
8, 161028, Note_off_c, 11, 79, 64
8, 161040, Note_on_c, 11, 79, 92
8, 161076, Note_off_c, 11, 79, 64
8, 161088, Note_on_c, 11, 79, 92
8, 161124, Note_off_c, 11, 79, 64
8, 161136, Note_on_c, 11, 79, 92
8, 161172, Note_off_c, 11, 79, 64
8, 161184, Note_on_c, 11, 79, 92
8, 161220, Note_off_c, 11, 79, 64
8, 161232, Note_on_c, 11, 79, 92
8, 161268, Note_off_c, 11, 79, 64
8, 162048, Note_on_c, 11, 60, 49
8, 162144, Note_on_c, 11, 55, 49
8, 162154, Note_off_c, 11, 60, 2
8, 162223, Note_off_c, 11, 55, 16
8, 162240, Note_on_c, 11, 60, 49
8, 162336, Note_on_c, 11, 55, 49
8, 162339, Note_off_c, 11, 60, 13
8, 162432, Note_on_c, 11, 60, 49
8, 162440, Note_off_c, 11, 55, 33
8, 162518, Note_off_c, 11, 60, 23
8, 162528, Note_on_c, 11, 55, 49
8, 162619, Note_off_c, 11, 55, 14
8, 162624, Note_on_c, 11, 60, 49
8, 162720, Note_on_c, 11, 55, 49
8, 162721, Note_off_c, 11, 60, 6
8, 162815, Note_off_c, 11, 55, 13
8, 162816, Note_on_c, 11, 62, 49
8, 162895, Note_off_c, 11, 62, 44
8, 162912, Note_on_c, 11, 55, 49
8, 163008, Note_off_c, 11, 55, 10
8, 163008, Note_on_c, 11, 62, 49
8, 163087, Note_off_c, 11, 62, 5
8, 163104, Note_on_c, 11, 55, 49
8, 163194, Note_off_c, 11, 55, 5
8, 163200, Note_on_c, 11, 62, 49
8, 163281, Note_off_c, 11, 62, 1
8, 163296, Note_on_c, 11, 55, 49
8, 163391, Note_off_c, 11, 55, 6
8, 163392, Note_on_c, 11, 62, 49
8, 163479, Note_off_c, 11, 62, 59
8, 163488, Note_on_c, 11, 55, 49
8, 163584, Note_on_c, 11, 60, 49
8, 163591, Note_off_c, 11, 55, 40
8, 163760, Note_off_c, 11, 60, 37
8, 164736, Note_on_c, 11, 62, 49
8, 164736, Note_on_c, 11, 59, 49
8, 165113, Note_off_c, 11, 62, 62
8, 165114, Note_off_c, 11, 59, 26
8, 165120, Note_on_c, 11, 60, 49
8, 165273, Note_off_c, 11, 60, 54
8, 166272, Note_on_c, 11, 62, 73
8, 166272, Note_on_c, 11, 59, 55
8, 166656, Note_on_c, 11, 60, 47
8, 166663, Note_off_c, 11, 59, 22
8, 166670, Note_off_c, 11, 62, 52
8, 166815, Note_off_c, 11, 60, 48
8, 169248, Note_on_c, 11, 72, 119
8, 169273, Note_off_c, 11, 72, 83
8, 169344, Note_on_c, 11, 72, 124
8, 169372, Note_off_c, 11, 72, 75
8, 169440, Note_on_c, 11, 76, 119
8, 169470, Note_off_c, 11, 76, 61
8, 169536, Note_on_c, 11, 72, 113
8, 169567, Note_off_c, 11, 72, 71
8, 169632, Note_on_c, 11, 67, 101
8, 169663, Note_off_c, 11, 67, 85
8, 169728, Note_on_c, 11, 72, 113
8, 169826, Note_off_c, 11, 72, 81
8, 170016, Note_on_c, 11, 60, 113
8, 170044, Note_off_c, 11, 60, 74
8, 170112, Note_on_c, 11, 60, 119
8, 170140, Note_off_c, 11, 60, 59
8, 170208, Note_on_c, 11, 64, 119
8, 170233, Note_off_c, 11, 64, 74
8, 170304, Note_on_c, 11, 60, 93
8, 170304, Note_on_c, 11, 55, 89
8, 170334, Note_off_c, 11, 60, 50
8, 170340, Note_off_c, 11, 55, 60
8, 170496, Note_on_c, 11, 60, 69
8, 170664, Note_off_c, 11, 60, 75
8, 170688, Note_on_c, 11, 72, 107
8, 170688, Note_on_c, 11, 62, 93
8, 170798, Channel_aftertouch_c, 11, 5
8, 170821, Channel_aftertouch_c, 11, 0
8, 170832, Note_off_c, 11, 72, 64
8, 170832, Note_off_c, 11, 62, 55
8, 171072, Note_on_c, 11, 71, 113
8, 171072, Note_on_c, 11, 62, 101
8, 171202, Channel_aftertouch_c, 11, 2
8, 171215, Channel_aftertouch_c, 11, 5
8, 171216, Note_off_c, 11, 71, 72
8, 171216, Note_off_c, 11, 62, 87
8, 171238, Channel_aftertouch_c, 11, 2
8, 171250, Channel_aftertouch_c, 11, 0
8, 171456, Note_on_c, 11, 72, 107
8, 171456, Note_on_c, 11, 64, 107
8, 171557, Channel_aftertouch_c, 11, 2
8, 171571, Channel_aftertouch_c, 11, 4
8, 171583, Channel_aftertouch_c, 11, 6
8, 171620, Channel_aftertouch_c, 11, 1
8, 171624, Note_off_c, 11, 72, 72
8, 171624, Note_off_c, 11, 64, 87
8, 171632, Channel_aftertouch_c, 11, 0
8, 171840, Note_on_c, 11, 72, 107
8, 171840, Note_on_c, 11, 64, 107
8, 171984, Note_off_c, 11, 72, 55
8, 171984, Note_off_c, 11, 64, 53
8, 172032, Note_on_c, 11, 69, 107
8, 172355, Note_off_c, 11, 69, 73
8, 172416, Note_on_c, 11, 67, 109
8, 172464, Note_off_c, 11, 67, 93
8, 172512, Note_on_c, 11, 65, 113
8, 172560, Note_off_c, 11, 65, 80
8, 172608, Note_on_c, 11, 64, 113
8, 172656, Note_off_c, 11, 64, 74
8, 172704, Note_on_c, 11, 62, 111
8, 172752, Note_off_c, 11, 62, 78
8, 172800, Note_on_c, 11, 60, 111
8, 172848, Note_off_c, 11, 60, 53
8, 172896, Note_on_c, 11, 62, 113
8, 172920, Note_off_c, 11, 62, 81
8, 172992, Note_on_c, 11, 64, 105
8, 173016, Note_off_c, 11, 64, 64
8, 173088, Note_on_c, 11, 65, 113
8, 173112, Note_off_c, 11, 65, 89
8, 173184, Note_on_c, 11, 67, 114
8, 173376, Note_off_c, 11, 67, 89
8, 175104, Note_on_c, 11, 65, 73
8, 175488, Note_on_c, 11, 64, 101
8, 175495, Note_off_c, 11, 65, 60
8, 175515, Note_off_c, 11, 64, 76
8, 175584, Note_on_c, 11, 62, 75
8, 175613, Note_off_c, 11, 62, 67
8, 175680, Note_on_c, 11, 60, 75
8, 175704, Note_off_c, 11, 60, 40
8, 175776, Note_on_c, 11, 59, 81
8, 175809, Note_off_c, 11, 59, 55
8, 179136, Program_c, 11, 45
8, 179328, Note_on_c, 11, 72, 59
8, 179352, Note_off_c, 11, 72, 69
8, 179520, Note_on_c, 11, 71, 59
8, 179551, Note_off_c, 11, 71, 55
8, 179712, Note_on_c, 11, 72, 59
8, 179915, Note_off_c, 11, 72, 80
8, 180096, Note_on_c, 11, 72, 59
8, 180126, Note_off_c, 11, 72, 66
8, 180192, Note_on_c, 11, 72, 59
8, 180222, Note_off_c, 11, 72, 57
8, 180288, Note_on_c, 11, 71, 59
8, 180313, Note_off_c, 11, 71, 68
8, 180384, Note_on_c, 11, 71, 59
8, 180410, Note_off_c, 11, 71, 67
8, 180480, Note_on_c, 11, 72, 59
8, 180649, Note_off_c, 11, 72, 70
8, 180864, Note_on_c, 11, 72, 59
8, 180887, Note_off_c, 11, 72, 68
8, 181056, Note_on_c, 11, 71, 59
8, 181095, Note_off_c, 11, 71, 56
8, 181248, Note_on_c, 11, 72, 59
8, 181281, Note_off_c, 11, 72, 51
8, 181440, Note_on_c, 11, 67, 59
8, 181468, Note_off_c, 11, 67, 77
8, 181632, Note_on_c, 11, 72, 59
8, 181661, Note_off_c, 11, 72, 61
8, 181824, Note_on_c, 11, 67, 59
8, 181858, Note_off_c, 11, 67, 69
8, 182016, Note_on_c, 11, 72, 59
8, 182016, Note_on_c, 11, 67, 59
8, 182199, Note_off_c, 11, 67, 75
8, 182205, Note_off_c, 11, 72, 78
8, 182400, Note_on_c, 11, 72, 59
8, 182400, Note_on_c, 11, 62, 59
8, 182507, Channel_aftertouch_c, 11, 4
8, 182532, Channel_aftertouch_c, 11, 6
8, 182555, Channel_aftertouch_c, 11, 8
8, 182578, Channel_aftertouch_c, 11, 5
8, 182590, Channel_aftertouch_c, 11, 0
8, 182614, Note_off_c, 11, 72, 67
8, 182615, Note_off_c, 11, 62, 87
8, 182784, Note_on_c, 11, 64, 59
8, 182784, Note_on_c, 11, 72, 59
8, 182816, Note_off_c, 11, 64, 84
8, 182821, Note_off_c, 11, 72, 67
8, 182976, Note_on_c, 11, 72, 59
8, 183003, Note_off_c, 11, 72, 66
8, 183168, Note_on_c, 11, 71, 59
8, 183192, Note_off_c, 11, 71, 76
8, 183360, Note_on_c, 11, 71, 59
8, 183388, Note_off_c, 11, 71, 76
8, 183432, Program_c, 11, 48
8, 184416, Note_on_c, 11, 72, 92
8, 184452, Note_off_c, 11, 72, 64
8, 184512, Note_on_c, 11, 72, 92
8, 184548, Note_off_c, 11, 72, 64
8, 184608, Note_on_c, 11, 72, 92
8, 184644, Note_off_c, 11, 72, 64
8, 184704, Note_on_c, 11, 72, 102
8, 184740, Note_off_c, 11, 72, 64
8, 184800, Note_on_c, 11, 72, 102
8, 184836, Note_off_c, 11, 72, 64
8, 184896, Note_on_c, 11, 72, 102
8, 184932, Note_off_c, 11, 72, 64
8, 184992, Note_on_c, 11, 72, 102
8, 185028, Note_off_c, 11, 72, 64
8, 185088, Note_on_c, 11, 71, 112
8, 185124, Note_off_c, 11, 71, 64
8, 185136, Note_on_c, 11, 71, 102
8, 185172, Note_off_c, 11, 71, 64
8, 185184, Note_on_c, 11, 71, 112
8, 185220, Note_off_c, 11, 71, 64
8, 185232, Note_on_c, 11, 71, 112
8, 185268, Note_off_c, 11, 71, 64
8, 185280, Note_on_c, 11, 71, 122
8, 185316, Note_off_c, 11, 71, 64
8, 185328, Note_on_c, 11, 71, 122
8, 185364, Note_off_c, 11, 71, 64
8, 185376, Note_on_c, 11, 71, 122
8, 185412, Note_off_c, 11, 71, 64
8, 185424, Note_on_c, 11, 71, 122
8, 185460, Note_off_c, 11, 71, 64
8, 185472, Note_on_c, 11, 74, 122
8, 185508, Note_off_c, 11, 74, 64
8, 185520, Note_on_c, 11, 74, 122
8, 185556, Note_off_c, 11, 74, 64
8, 185568, Note_on_c, 11, 74, 122
8, 185604, Note_off_c, 11, 74, 64
8, 185616, Note_on_c, 11, 74, 122
8, 185652, Note_off_c, 11, 74, 64
8, 185664, Note_on_c, 11, 77, 1
8, 185700, Note_off_c, 11, 77, 64
8, 185712, Note_on_c, 11, 77, 1
8, 185748, Note_off_c, 11, 77, 64
8, 185760, Note_on_c, 11, 77, 1
8, 185796, Note_off_c, 11, 77, 64
8, 185808, Note_on_c, 11, 77, 1
8, 185844, Note_off_c, 11, 77, 64
8, 185856, Note_on_c, 11, 76, 124
8, 185856, Note_on_c, 11, 72, 107
8, 186027, Note_off_c, 11, 72, 87
8, 186037, Note_off_c, 11, 76, 88
8, 186144, Note_on_c, 11, 67, 124
8, 186192, Note_off_c, 11, 67, 80
8, 186240, Note_on_c, 11, 64, 1
8, 186287, Note_off_c, 11, 64, 39
8, 186336, Note_on_c, 11, 60, 93
8, 186382, Note_off_c, 11, 60, 17
8, 186432, Note_on_c, 11, 64, 1
8, 186474, Note_off_c, 11, 64, 64
8, 186528, Note_on_c, 11, 67, 101
8, 186579, Note_off_c, 11, 67, 44
8, 186624, Note_on_c, 11, 72, 113
8, 186808, Note_off_c, 11, 72, 51
8, 186912, Note_on_c, 11, 67, 1
8, 186952, Note_off_c, 11, 67, 75
8, 187008, Note_on_c, 11, 64, 124
8, 187049, Note_off_c, 11, 64, 46
8, 187104, Note_on_c, 11, 60, 87
8, 187153, Note_off_c, 11, 60, 12
8, 187200, Note_on_c, 11, 64, 119
8, 187252, Note_off_c, 11, 64, 39
8, 187296, Note_on_c, 11, 67, 107
8, 187325, Note_off_c, 11, 67, 49
8, 187392, Note_on_c, 11, 76, 124
8, 187392, Note_on_c, 11, 72, 113
8, 187561, Note_off_c, 11, 76, 31
8, 187577, Note_off_c, 11, 72, 36
8, 187680, Note_on_c, 11, 74, 79
8, 187732, Note_off_c, 11, 74, 62
8, 187776, Note_on_c, 11, 72, 113
8, 187776, Note_on_c, 11, 64, 124
8, 187989, Note_off_c, 11, 72, 67
8, 188004, Note_off_c, 11, 64, 71
8, 188064, Note_on_c, 11, 71, 93
8, 188102, Note_off_c, 11, 71, 57
8, 188160, Note_on_c, 11, 69, 124
8, 188160, Note_on_c, 11, 65, 107
8, 188340, Note_off_c, 11, 69, 64
8, 188373, Note_off_c, 11, 65, 58
8, 188448, Note_on_c, 11, 67, 79
8, 188483, Note_off_c, 11, 67, 80
8, 188544, Note_on_c, 11, 65, 124
8, 188544, Note_on_c, 11, 57, 113
8, 188618, Channel_aftertouch_c, 11, 4
8, 188653, Channel_aftertouch_c, 11, 6
8, 188698, Channel_aftertouch_c, 11, 0
8, 188765, Note_off_c, 11, 65, 62
8, 188771, Note_off_c, 11, 57, 47
8, 188832, Note_on_c, 11, 64, 1
8, 188873, Note_off_c, 11, 64, 80
8, 189696, Note_on_c, 11, 71, 1
8, 189732, Note_off_c, 11, 71, 64
8, 189792, Note_on_c, 11, 74, 1
8, 189792, Note_on_c, 11, 79, 1
8, 189828, Note_off_c, 11, 74, 64
8, 189828, Note_off_c, 11, 79, 64
8, 189888, Note_on_c, 11, 79, 1
8, 189924, Note_off_c, 11, 79, 64
8, 189984, Note_on_c, 11, 79, 1
8, 190020, Note_off_c, 11, 79, 64
8, 190080, Note_on_c, 11, 79, 1
8, 190080, Note_on_c, 11, 72, 1
8, 190116, Note_off_c, 11, 79, 64
8, 190116, Note_off_c, 11, 72, 64
8, 190176, Note_on_c, 11, 76, 1
8, 190176, Note_on_c, 11, 79, 1
8, 190212, Note_off_c, 11, 76, 64
8, 190212, Note_off_c, 11, 79, 64
8, 190272, Note_on_c, 11, 79, 1
8, 190308, Note_off_c, 11, 79, 64
8, 190368, Note_on_c, 11, 79, 1
8, 190404, Note_off_c, 11, 79, 64
8, 190464, Note_on_c, 11, 79, 1
8, 190464, Note_on_c, 11, 71, 1
8, 190500, Note_off_c, 11, 79, 64
8, 190500, Note_off_c, 11, 71, 64
8, 190560, Note_on_c, 11, 74, 1
8, 190560, Note_on_c, 11, 79, 1
8, 190596, Note_off_c, 11, 74, 64
8, 190596, Note_off_c, 11, 79, 64
8, 190656, Note_on_c, 11, 79, 1
8, 190692, Note_off_c, 11, 79, 64
8, 190752, Note_on_c, 11, 79, 1
8, 190788, Note_off_c, 11, 79, 64
8, 190848, Note_on_c, 11, 79, 1
8, 190848, Note_on_c, 11, 72, 1
8, 190884, Note_off_c, 11, 79, 64
8, 190884, Note_off_c, 11, 72, 64
8, 190944, Note_on_c, 11, 76, 1
8, 190944, Note_on_c, 11, 79, 1
8, 190980, Note_off_c, 11, 76, 64
8, 190980, Note_off_c, 11, 79, 64
8, 191040, Note_on_c, 11, 79, 1
8, 191076, Note_off_c, 11, 79, 64
8, 191136, Note_on_c, 11, 79, 1
8, 191172, Note_off_c, 11, 79, 64
8, 191232, Note_on_c, 11, 79, 1
8, 191268, Note_off_c, 11, 79, 64
8, 195072, Note_on_c, 11, 72, 93
8, 195120, Note_off_c, 11, 72, 28
8, 195264, Note_on_c, 11, 81, 119
8, 195312, Note_off_c, 11, 81, 82
8, 195456, Note_on_c, 11, 79, 119
8, 195504, Note_off_c, 11, 79, 83
8, 195648, Note_on_c, 11, 77, 107
8, 195696, Note_off_c, 11, 77, 79
8, 195840, Note_on_c, 11, 76, 93
8, 196128, Note_off_c, 11, 76, 79
8, 196128, Note_on_c, 11, 74, 91
8, 196224, Note_off_c, 11, 74, 65
8, 196224, Note_on_c, 11, 72, 85
8, 196416, Note_off_c, 11, 72, 40
8, 196800, Note_on_c, 11, 72, 85
8, 196848, Note_off_c, 11, 72, 58
8, 196992, Note_on_c, 11, 71, 83
8, 197040, Note_off_c, 11, 71, 50
8, 197184, Note_on_c, 11, 69, 91
8, 197232, Note_off_c, 11, 69, 70
8, 197376, Note_on_c, 11, 67, 73
8, 197664, Note_off_c, 11, 67, 28
8, 197664, Note_on_c, 11, 65, 87
8, 197760, Note_off_c, 11, 65, 55
8, 197760, Note_on_c, 11, 64, 91
8, 197856, Note_off_c, 11, 64, 74
8, 198144, Note_on_c, 11, 67, 109
8, 198168, Note_off_c, 11, 67, 34
8, 198192, Note_on_c, 11, 62, 109
8, 198216, Note_off_c, 11, 62, 33
8, 198240, Note_on_c, 11, 59, 109
8, 198264, Note_off_c, 11, 59, 61
8, 198288, Note_on_c, 11, 55, 109
8, 198312, Note_off_c, 11, 55, 87
8, 198336, Note_on_c, 11, 67, 109
8, 198360, Note_off_c, 11, 67, 85
8, 198384, Note_on_c, 11, 67, 109
8, 198408, Note_off_c, 11, 67, 81
8, 198432, Note_on_c, 11, 67, 109
8, 198456, Note_off_c, 11, 67, 72
8, 198480, Note_on_c, 11, 67, 109
8, 198504, Note_off_c, 11, 67, 85
8, 198528, Note_on_c, 11, 67, 109
8, 198552, Note_off_c, 11, 67, 59
8, 198576, Note_on_c, 11, 62, 109
8, 198600, Note_off_c, 11, 62, 66
8, 198624, Note_on_c, 11, 59, 109
8, 198648, Note_off_c, 11, 59, 81
8, 198672, Note_on_c, 11, 55, 109
8, 198696, Note_off_c, 11, 55, 85
8, 198720, Note_on_c, 11, 67, 109
8, 198744, Note_off_c, 11, 67, 48
8, 198768, Note_on_c, 11, 67, 109
8, 198792, Note_off_c, 11, 67, 75
8, 198816, Note_on_c, 11, 67, 109
8, 198840, Note_off_c, 11, 67, 78
8, 198864, Note_on_c, 11, 67, 109
8, 198888, Note_off_c, 11, 67, 50
8, 198912, Note_on_c, 11, 67, 109
8, 198960, Note_off_c, 11, 67, 64
8, 198960, Note_on_c, 11, 64, 109
8, 198984, Note_off_c, 11, 64, 48
8, 199008, Note_on_c, 11, 60, 109
8, 199032, Note_off_c, 11, 60, 20
8, 199056, Note_on_c, 11, 55, 109
8, 199080, Note_off_c, 11, 55, 52
8, 199104, Note_on_c, 11, 67, 109
8, 199128, Note_off_c, 11, 67, 83
8, 199152, Note_on_c, 11, 67, 109
8, 199176, Note_off_c, 11, 67, 89
8, 199200, Note_on_c, 11, 67, 109
8, 199224, Note_off_c, 11, 67, 85
8, 199248, Note_on_c, 11, 67, 109
8, 199272, Note_off_c, 11, 67, 77
8, 199296, Note_on_c, 11, 67, 109
8, 199320, Note_off_c, 11, 67, 48
8, 199344, Note_on_c, 11, 64, 109
8, 199368, Note_off_c, 11, 64, 69
8, 199392, Note_on_c, 11, 60, 109
8, 199416, Note_off_c, 11, 60, 47
8, 199440, Note_on_c, 11, 55, 109
8, 199464, Note_off_c, 11, 55, 67
8, 199488, Note_on_c, 11, 67, 109
8, 199512, Note_off_c, 11, 67, 84
8, 199536, Note_on_c, 11, 67, 109
8, 199560, Note_off_c, 11, 67, 90
8, 199584, Note_on_c, 11, 67, 109
8, 199608, Note_off_c, 11, 67, 64
8, 199632, Note_on_c, 11, 67, 109
8, 199656, Note_off_c, 11, 67, 64
8, 199680, Note_on_c, 11, 69, 119
8, 199872, Note_off_c, 11, 69, 48
8, 199872, Note_on_c, 11, 71, 85
8, 199920, Note_off_c, 11, 71, 41
8, 199920, Note_on_c, 11, 69, 95
8, 199968, Note_off_c, 11, 69, 81
8, 199968, Note_on_c, 11, 67, 107
8, 200016, Note_off_c, 11, 67, 5
8, 200016, Note_on_c, 11, 65, 95
8, 200064, Note_off_c, 11, 65, 50
8, 200064, Note_on_c, 11, 64, 95
8, 200208, Note_off_c, 11, 64, 1
8, 200256, Note_on_c, 11, 62, 71
8, 200400, Note_off_c, 11, 62, 11
8, 200448, Note_on_c, 11, 60, 89
8, 200496, Note_off_c, 11, 60, 22
8, 200496, Note_on_c, 11, 62, 89
8, 200544, Note_off_c, 11, 62, 65
8, 200544, Note_on_c, 11, 64, 89
8, 200592, Note_off_c, 11, 64, 11
8, 200592, Note_on_c, 11, 65, 89
8, 200640, Note_off_c, 11, 65, 62
8, 200640, Note_on_c, 11, 67, 89
8, 200688, Note_off_c, 11, 67, 39
8, 200688, Note_on_c, 11, 69, 89
8, 200736, Note_off_c, 11, 69, 48
8, 200736, Note_on_c, 11, 71, 89
8, 200784, Note_off_c, 11, 71, 27
8, 200784, Note_on_c, 11, 72, 99
8, 200832, Note_off_c, 11, 72, 50
8, 200832, Note_on_c, 11, 57, 89
8, 200880, Note_off_c, 11, 57, 14
8, 200880, Note_on_c, 11, 59, 89
8, 200928, Note_off_c, 11, 59, 48
8, 200928, Note_on_c, 11, 60, 89
8, 200976, Note_off_c, 11, 60, 36
8, 200976, Note_on_c, 11, 62, 89
8, 201024, Note_off_c, 11, 62, 32
8, 201024, Note_on_c, 11, 64, 89
8, 201072, Note_off_c, 11, 64, 39
8, 201072, Note_on_c, 11, 65, 89
8, 201120, Note_off_c, 11, 65, 23
8, 201120, Note_on_c, 11, 67, 89
8, 201168, Note_off_c, 11, 67, 41
8, 201168, Note_on_c, 11, 69, 99
8, 201216, Note_off_c, 11, 69, 81
8, 201216, Note_on_c, 11, 55, 89
8, 201255, Note_off_c, 11, 55, 49
8, 201264, Note_on_c, 11, 57, 89
8, 201307, Note_off_c, 11, 57, 56
8, 201312, Note_on_c, 11, 59, 89
8, 201360, Note_off_c, 11, 59, 64
8, 201360, Note_on_c, 11, 60, 89
8, 201384, Note_off_c, 11, 60, 59
8, 201408, Note_on_c, 11, 62, 89
8, 201456, Note_off_c, 11, 62, 14
8, 201456, Note_on_c, 11, 64, 89
8, 201504, Note_off_c, 11, 64, 48
8, 201504, Note_on_c, 11, 65, 89
8, 201552, Note_off_c, 11, 65, 53
8, 201552, Note_on_c, 11, 67, 99
8, 201600, Note_off_c, 11, 67, 79
8, 201600, Note_on_c, 11, 67, 99
8, 201696, Note_on_c, 11, 65, 89
8, 201698, Note_off_c, 11, 67, 3
8, 201792, Note_off_c, 11, 65, 32
8, 201792, Note_on_c, 11, 64, 89
8, 201840, Note_off_c, 11, 64, 6
8, 201888, Note_on_c, 11, 62, 89
8, 201936, Note_off_c, 11, 62, 66
8, 202272, Note_on_c, 11, 67, 101
8, 202304, Note_off_c, 11, 67, 80
8, 202304, Note_on_c, 11, 69, 124
8, 202336, Note_off_c, 11, 69, 96
8, 202336, Note_on_c, 11, 71, 81
8, 202368, Note_off_c, 11, 71, 81
8, 202368, Note_on_c, 11, 72, 113
8, 202512, Note_off_c, 11, 72, 51
8, 202656, Note_on_c, 11, 67, 113
8, 202688, Note_off_c, 11, 67, 106
8, 202688, Note_on_c, 11, 69, 119
8, 202720, Note_off_c, 11, 69, 86
8, 202720, Note_on_c, 11, 71, 89
8, 202752, Note_off_c, 11, 71, 62
8, 202752, Note_on_c, 11, 72, 85
8, 202896, Note_off_c, 11, 72, 44
8, 203040, Note_on_c, 11, 67, 69
8, 203072, Note_off_c, 11, 67, 93
8, 203072, Note_on_c, 11, 69, 119
8, 203104, Note_off_c, 11, 69, 76
8, 203104, Note_on_c, 11, 71, 91
8, 203136, Note_off_c, 11, 71, 63
8, 203136, Note_on_c, 11, 72, 75
8, 203232, Note_off_c, 11, 72, 42
8, 203232, Note_on_c, 11, 67, 101
8, 203264, Note_off_c, 11, 67, 90
8, 203264, Note_on_c, 11, 69, 124
8, 203296, Note_off_c, 11, 69, 86
8, 203296, Note_on_c, 11, 71, 93
8, 203328, Note_off_c, 11, 71, 77
8, 203328, Note_on_c, 11, 72, 101
8, 203424, Note_off_c, 11, 72, 68
8, 203424, Note_on_c, 11, 67, 101
8, 203456, Note_off_c, 11, 67, 91
8, 203456, Note_on_c, 11, 69, 119
8, 203488, Note_off_c, 11, 69, 79
8, 203488, Note_on_c, 11, 71, 81
8, 203520, Note_off_c, 11, 71, 37
8, 203551, Note_on_c, 11, 72, 104
8, 203777, Note_off_c, 11, 72, 55
8, 203811, Note_on_c, 11, 67, 110
8, 203848, Note_off_c, 11, 67, 84
8, 203901, Note_on_c, 11, 64, 122
8, 203932, Note_off_c, 11, 64, 83
8, 203989, Note_on_c, 11, 60, 65
8, 204027, Note_off_c, 11, 60, 55
8, 204092, Note_on_c, 11, 64, 110
8, 204120, Note_off_c, 11, 64, 80
8, 204179, Note_on_c, 11, 67, 110
8, 204222, Note_off_c, 11, 67, 71
8, 204287, Note_on_c, 11, 72, 99
8, 204499, Note_off_c, 11, 72, 63
8, 204562, Note_on_c, 11, 67, 116
8, 204592, Note_off_c, 11, 67, 85
8, 204657, Note_on_c, 11, 64, 116
8, 204685, Note_off_c, 11, 64, 82
8, 204761, Note_on_c, 11, 60, 75
8, 204791, Note_off_c, 11, 60, 52
8, 204859, Note_on_c, 11, 64, 104
8, 204894, Note_off_c, 11, 64, 72
8, 204948, Note_on_c, 11, 67, 65
8, 204949, Note_on_c, 11, 66, 122
8, 204967, Note_off_c, 11, 66, 127
8, 204973, Note_off_c, 11, 67, 61
8, 205051, Note_on_c, 11, 72, 87
8, 205086, Note_off_c, 11, 72, 82
8, 205257, Note_on_c, 11, 72, 116
8, 205259, Note_on_c, 11, 67, 110
8, 205260, Note_on_c, 11, 76, 116
8, 205350, Note_off_c, 11, 72, 68
8, 205350, Note_off_c, 11, 67, 86
8, 205358, Note_off_c, 11, 76, 83
8, 205450, Note_on_c, 11, 72, 116
8, 205452, Note_on_c, 11, 76, 122
8, 205453, Note_on_c, 11, 67, 104
8, 205536, Note_off_c, 11, 67, 68
8, 205537, Note_off_c, 11, 72, 52
8, 205544, Note_off_c, 11, 76, 77
8, 205649, Note_on_c, 11, 72, 110
8, 205651, Note_on_c, 11, 76, 122
8, 205652, Note_on_c, 11, 67, 116
8, 205716, Note_off_c, 11, 67, 65
8, 205718, Note_off_c, 11, 72, 42
8, 205723, Note_off_c, 11, 76, 63
8, 205837, Note_on_c, 11, 76, 122
8, 205839, Note_on_c, 11, 72, 122
8, 205840, Note_on_c, 11, 67, 122
8, 205953, Channel_aftertouch_c, 11, 2
8, 205966, Channel_aftertouch_c, 11, 4
8, 205993, Channel_aftertouch_c, 11, 6
8, 206016, Channel_aftertouch_c, 11, 8
8, 206040, Channel_aftertouch_c, 11, 4
8, 206056, Channel_aftertouch_c, 11, 0
8, 206095, Note_off_c, 11, 67, 85
8, 206107, Note_off_c, 11, 72, 46
8, 206111, Note_off_c, 11, 76, 64
8, 206111, End_track
9, 0, Start_track
9, 0, MIDI_port, 0
9, 0, Title_t, "Viola               "
9, 0, Program_c, 12, 48
9, 0, Control_c, 12, 7, 98
9, 0, Control_c, 12, 10, 46
9, 0, Program_c, 12, 48
9, 7680, Note_on_c, 12, 71, 115
9, 7728, Note_off_c, 12, 71, 66
9, 7776, Note_on_c, 12, 74, 115
9, 7824, Note_off_c, 12, 74, 61
9, 7872, Note_on_c, 12, 71, 115
9, 7920, Note_off_c, 12, 71, 42
9, 7968, Note_on_c, 12, 67, 115
9, 8016, Note_off_c, 12, 67, 63
9, 8064, Note_on_c, 12, 65, 115
9, 8112, Note_off_c, 12, 65, 67
9, 8160, Note_on_c, 12, 62, 115
9, 8208, Note_off_c, 12, 62, 83
9, 8256, Note_on_c, 12, 59, 115
9, 8304, Note_off_c, 12, 59, 81
9, 8352, Note_on_c, 12, 55, 115
9, 8400, Note_off_c, 12, 55, 87
9, 8448, Note_on_c, 12, 60, 115
9, 8520, Note_off_c, 12, 60, 68
9, 8544, Note_on_c, 12, 76, 115
9, 8592, Note_off_c, 12, 76, 83
9, 8640, Note_on_c, 12, 72, 115
9, 8688, Note_off_c, 12, 72, 51
9, 8736, Note_on_c, 12, 67, 115
9, 8784, Note_off_c, 12, 67, 86
9, 8832, Note_on_c, 12, 64, 115
9, 8880, Note_off_c, 12, 64, 68
9, 8928, Note_on_c, 12, 67, 115
9, 8976, Note_off_c, 12, 67, 73
9, 9024, Note_on_c, 12, 64, 115
9, 9072, Note_off_c, 12, 64, 63
9, 9120, Note_on_c, 12, 60, 115
9, 9168, Note_off_c, 12, 60, 42
9, 9216, Note_on_c, 12, 65, 115
9, 9264, Note_off_c, 12, 65, 66
9, 9312, Note_on_c, 12, 65, 115
9, 9360, Note_off_c, 12, 65, 75
9, 9408, Note_on_c, 12, 65, 115
9, 9456, Note_off_c, 12, 65, 75
9, 9504, Note_on_c, 12, 65, 115
9, 9552, Note_off_c, 12, 65, 71
9, 9600, Note_on_c, 12, 67, 115
9, 9648, Note_off_c, 12, 67, 74
9, 9696, Note_on_c, 12, 67, 115
9, 9744, Note_off_c, 12, 67, 68
9, 9792, Note_on_c, 12, 67, 115
9, 9840, Note_off_c, 12, 67, 58
9, 9888, Note_on_c, 12, 67, 115
9, 9936, Note_off_c, 12, 67, 76
9, 9984, Note_on_c, 12, 60, 89
9, 10008, Note_off_c, 12, 60, 42
9, 10080, Note_on_c, 12, 62, 89
9, 10104, Note_off_c, 12, 62, 72
9, 10176, Note_on_c, 12, 64, 89
9, 10200, Note_off_c, 12, 64, 66
9, 10272, Note_on_c, 12, 65, 89
9, 10296, Note_off_c, 12, 65, 55
9, 10368, Note_on_c, 12, 67, 89
9, 10552, Note_off_c, 12, 67, 93
9, 10752, Note_on_c, 12, 71, 115
9, 10800, Note_off_c, 12, 71, 51
9, 10848, Note_on_c, 12, 74, 115
9, 10896, Note_off_c, 12, 74, 68
9, 10944, Note_on_c, 12, 71, 115
9, 10992, Note_off_c, 12, 71, 34
9, 11040, Note_on_c, 12, 67, 115
9, 11088, Note_off_c, 12, 67, 83
9, 11136, Note_on_c, 12, 65, 115
9, 11184, Note_off_c, 12, 65, 75
9, 11232, Note_on_c, 12, 62, 115
9, 11280, Note_off_c, 12, 62, 78
9, 11328, Note_on_c, 12, 59, 115
9, 11376, Note_off_c, 12, 59, 4
9, 11424, Note_on_c, 12, 55, 115
9, 11472, Note_off_c, 12, 55, 41
9, 11520, Note_on_c, 12, 60, 1
9, 11568, Note_off_c, 12, 60, 67
9, 11616, Note_on_c, 12, 76, 115
9, 11655, Note_off_c, 12, 76, 60
9, 11712, Note_on_c, 12, 72, 115
9, 11760, Note_off_c, 12, 72, 55
9, 11808, Note_on_c, 12, 68, 115
9, 11856, Note_off_c, 12, 68, 42
9, 11904, Note_on_c, 12, 69, 115
9, 11952, Note_off_c, 12, 69, 68
9, 12000, Note_on_c, 12, 72, 115
9, 12048, Note_off_c, 12, 72, 37
9, 12096, Note_on_c, 12, 69, 115
9, 12144, Note_off_c, 12, 69, 81
9, 12192, Note_on_c, 12, 64, 115
9, 12240, Note_off_c, 12, 64, 71
9, 12288, Note_on_c, 12, 65, 115
9, 12336, Note_off_c, 12, 65, 71
9, 12384, Note_on_c, 12, 67, 115
9, 12432, Note_off_c, 12, 67, 73
9, 12480, Note_on_c, 12, 69, 115
9, 12528, Note_off_c, 12, 69, 70
9, 12576, Note_on_c, 12, 64, 115
9, 12624, Note_off_c, 12, 64, 58
9, 12672, Note_on_c, 12, 65, 115
9, 12720, Note_off_c, 12, 65, 81
9, 12768, Note_on_c, 12, 65, 115
9, 12816, Note_off_c, 12, 65, 60
9, 12864, Note_on_c, 12, 66, 115
9, 12912, Note_off_c, 12, 66, 63
9, 12960, Note_on_c, 12, 66, 115
9, 13032, Note_off_c, 12, 66, 52
9, 13056, Note_on_c, 12, 67, 119
9, 13104, Note_off_c, 12, 67, 64
9, 13152, Note_on_c, 12, 71, 115
9, 13200, Note_off_c, 12, 71, 59
9, 13248, Note_on_c, 12, 74, 1
9, 13296, Note_off_c, 12, 74, 80
9, 13344, Note_on_c, 12, 67, 115
9, 13392, Note_off_c, 12, 67, 65
9, 13440, Note_on_c, 12, 72, 115
9, 13488, Note_off_c, 12, 72, 7
9, 13536, Note_on_c, 12, 67, 115
9, 13584, Note_off_c, 12, 67, 75
9, 13632, Note_on_c, 12, 64, 115
9, 13704, Note_off_c, 12, 64, 1
9, 13728, Note_on_c, 12, 60, 115
9, 13776, Note_off_c, 12, 60, 62
9, 13824, Note_on_c, 12, 67, 115
9, 13896, Note_off_c, 12, 67, 32
9, 13920, Note_on_c, 12, 71, 115
9, 13968, Note_off_c, 12, 71, 54
9, 14016, Note_on_c, 12, 74, 1
9, 14088, Note_off_c, 12, 74, 78
9, 14112, Note_on_c, 12, 67, 115
9, 14160, Note_off_c, 12, 67, 59
9, 14208, Note_on_c, 12, 72, 115
9, 14232, Note_off_c, 12, 72, 48
9, 14304, Note_on_c, 12, 67, 115
9, 14352, Note_off_c, 12, 67, 68
9, 14400, Note_on_c, 12, 64, 115
9, 14448, Note_off_c, 12, 64, 40
9, 14496, Note_on_c, 12, 60, 115
9, 14544, Note_off_c, 12, 60, 52
9, 14592, Note_on_c, 12, 55, 115
9, 14691, Note_off_c, 12, 55, 56
9, 14784, Note_on_c, 12, 67, 115
9, 14878, Note_off_c, 12, 67, 71
9, 14976, Note_on_c, 12, 55, 115
9, 15167, Note_off_c, 12, 55, 85
9, 16896, Note_on_c, 12, 67, 59
9, 16896, Note_on_c, 12, 64, 59
9, 16944, Note_off_c, 12, 67, 63
9, 16944, Note_off_c, 12, 64, 18
9, 16944, Note_on_c, 12, 69, 59
9, 16944, Note_on_c, 12, 65, 59
9, 16992, Note_off_c, 12, 69, 14
9, 16992, Note_off_c, 12, 65, 63
9, 16992, Note_on_c, 12, 67, 59
9, 16992, Note_on_c, 12, 64, 59
9, 17040, Note_off_c, 12, 67, 42
9, 17040, Note_off_c, 12, 64, 45
9, 17040, Note_on_c, 12, 62, 59
9, 17040, Note_on_c, 12, 65, 59
9, 17088, Note_off_c, 12, 62, 80
9, 17088, Note_off_c, 12, 65, 11
9, 17088, Note_on_c, 12, 60, 59
9, 17088, Note_on_c, 12, 64, 59
9, 17232, Note_off_c, 12, 60, 44
9, 17232, Note_off_c, 12, 64, 66
9, 18432, Note_on_c, 12, 67, 59
9, 18432, Note_on_c, 12, 64, 59
9, 18480, Note_off_c, 12, 67, 73
9, 18480, Note_off_c, 12, 64, 54
9, 18480, Note_on_c, 12, 69, 59
9, 18480, Note_on_c, 12, 65, 59
9, 18528, Note_off_c, 12, 69, 52
9, 18528, Note_off_c, 12, 65, 27
9, 18528, Note_on_c, 12, 67, 59
9, 18528, Note_on_c, 12, 64, 59
9, 18576, Note_off_c, 12, 67, 41
9, 18576, Note_off_c, 12, 64, 42
9, 18576, Note_on_c, 12, 62, 59
9, 18576, Note_on_c, 12, 65, 59
9, 18624, Note_off_c, 12, 62, 85
9, 18624, Note_off_c, 12, 65, 66
9, 18624, Note_on_c, 12, 64, 59
9, 18624, Note_on_c, 12, 60, 59
9, 18816, Note_off_c, 12, 64, 23
9, 18816, Note_off_c, 12, 60, 20
9, 19968, Note_on_c, 12, 67, 59
9, 19968, Note_on_c, 12, 64, 59
9, 20016, Note_off_c, 12, 67, 72
9, 20016, Note_off_c, 12, 64, 34
9, 20016, Note_on_c, 12, 65, 59
9, 20016, Note_on_c, 12, 69, 59
9, 20064, Note_off_c, 12, 65, 32
9, 20064, Note_off_c, 12, 69, 43
9, 20064, Note_on_c, 12, 67, 59
9, 20064, Note_on_c, 12, 64, 59
9, 20112, Note_off_c, 12, 67, 23
9, 20112, Note_off_c, 12, 64, 60
9, 20112, Note_on_c, 12, 65, 59
9, 20112, Note_on_c, 12, 62, 79
9, 20160, Note_off_c, 12, 65, 74
9, 20160, Note_off_c, 12, 62, 64
9, 20160, Note_on_c, 12, 64, 59
9, 20160, Note_on_c, 12, 60, 59
9, 20352, Note_off_c, 12, 64, 61
9, 20352, Note_off_c, 12, 60, 39
9, 20736, Note_on_c, 12, 72, 59
9, 20736, Note_on_c, 12, 69, 59
9, 20784, Note_off_c, 12, 72, 17
9, 20784, Note_off_c, 12, 69, 20
9, 20784, Note_on_c, 12, 74, 59
9, 20784, Note_on_c, 12, 70, 59
9, 20832, Note_off_c, 12, 74, 32
9, 20832, Note_off_c, 12, 70, 58
9, 20832, Note_on_c, 12, 69, 59
9, 20832, Note_on_c, 12, 72, 59
9, 20880, Note_off_c, 12, 69, 32
9, 20880, Note_off_c, 12, 72, 41
9, 20880, Note_on_c, 12, 70, 59
9, 20880, Note_on_c, 12, 67, 59
9, 20928, Note_off_c, 12, 70, 48
9, 20928, Note_off_c, 12, 67, 57
9, 20928, Note_on_c, 12, 65, 59
9, 20928, Note_on_c, 12, 69, 59
9, 21072, Note_off_c, 12, 65, 44
9, 21072, Note_off_c, 12, 69, 64
9, 21504, Note_on_c, 12, 70, 59
9, 21504, Note_on_c, 12, 67, 59
9, 21552, Note_off_c, 12, 70, 55
9, 21552, Note_off_c, 12, 67, 13
9, 21552, Note_on_c, 12, 69, 59
9, 21552, Note_on_c, 12, 72, 59
9, 21600, Note_off_c, 12, 69, 19
9, 21600, Note_off_c, 12, 72, 1
9, 21600, Note_on_c, 12, 70, 59
9, 21600, Note_on_c, 12, 67, 59
9, 21648, Note_off_c, 12, 70, 52
9, 21648, Note_off_c, 12, 67, 68
9, 21648, Note_on_c, 12, 69, 59
9, 21648, Note_on_c, 12, 65, 59
9, 21696, Note_off_c, 12, 69, 68
9, 21696, Note_off_c, 12, 65, 64
9, 21696, Note_on_c, 12, 67, 59
9, 21696, Note_on_c, 12, 64, 59
9, 21888, Note_off_c, 12, 67, 56
9, 21888, Note_off_c, 12, 64, 16
9, 28416, Note_on_c, 12, 64, 101
9, 28439, Note_off_c, 12, 64, 56
9, 28512, Note_on_c, 12, 64, 93
9, 28534, Note_off_c, 12, 64, 72
9, 28608, Note_on_c, 12, 64, 107
9, 28628, Note_off_c, 12, 64, 74
9, 28704, Note_on_c, 12, 64, 101
9, 28728, Note_off_c, 12, 64, 67
9, 28800, Note_on_c, 12, 65, 124
9, 28822, Note_off_c, 12, 65, 82
9, 28896, Note_on_c, 12, 65, 113
9, 28915, Note_off_c, 12, 65, 79
9, 28992, Note_on_c, 12, 65, 124
9, 29014, Note_off_c, 12, 65, 80
9, 29088, Note_on_c, 12, 65, 119
9, 29111, Note_off_c, 12, 65, 78
9, 29184, Note_on_c, 12, 67, 89
9, 29184, Note_on_c, 12, 69, 101
9, 29192, Note_off_c, 12, 69, 82
9, 29196, Note_off_c, 12, 67, 81
9, 29280, Note_on_c, 12, 67, 113
9, 29299, Note_off_c, 12, 67, 81
9, 29376, Note_on_c, 12, 67, 119
9, 29395, Note_off_c, 12, 67, 85
9, 29472, Note_on_c, 12, 67, 124
9, 29491, Note_off_c, 12, 67, 78
9, 29568, Note_on_c, 12, 67, 124
9, 29588, Note_off_c, 12, 67, 87
9, 29664, Note_on_c, 12, 67, 1
9, 29686, Note_off_c, 12, 67, 81
9, 29760, Note_on_c, 12, 55, 113
9, 29793, Note_off_c, 12, 55, 60
9, 29856, Note_on_c, 12, 55, 124
9, 29883, Note_off_c, 12, 55, 90
9, 29952, Note_on_c, 12, 60, 85
9, 29987, Note_off_c, 12, 60, 48
9, 30048, Note_on_c, 12, 64, 95
9, 30083, Note_off_c, 12, 64, 62
9, 30144, Note_on_c, 12, 67, 113
9, 30180, Note_off_c, 12, 67, 42
9, 30240, Note_on_c, 12, 64, 83
9, 30270, Note_off_c, 12, 64, 55
9, 30336, Note_on_c, 12, 60, 87
9, 30367, Note_off_c, 12, 60, 58
9, 30432, Note_on_c, 12, 64, 91
9, 30459, Note_off_c, 12, 64, 59
9, 30528, Note_on_c, 12, 67, 107
9, 30556, Note_off_c, 12, 67, 74
9, 30624, Note_on_c, 12, 64, 87
9, 30646, Note_off_c, 12, 64, 64
9, 30720, Note_on_c, 12, 60, 95
9, 30754, Note_off_c, 12, 60, 53
9, 30816, Note_on_c, 12, 64, 85
9, 30843, Note_off_c, 12, 64, 45
9, 30912, Note_on_c, 12, 67, 101
9, 30942, Note_off_c, 12, 67, 67
9, 31008, Note_on_c, 12, 64, 89
9, 31033, Note_off_c, 12, 64, 60
9, 31104, Note_on_c, 12, 60, 87
9, 31136, Note_off_c, 12, 60, 64
9, 31200, Note_on_c, 12, 64, 83
9, 31225, Note_off_c, 12, 64, 53
9, 31296, Note_on_c, 12, 67, 101
9, 31330, Note_off_c, 12, 67, 59
9, 31392, Note_on_c, 12, 64, 87
9, 31422, Note_off_c, 12, 64, 53
9, 31488, Note_on_c, 12, 60, 83
9, 31528, Note_off_c, 12, 60, 58
9, 31680, Note_on_c, 12, 72, 63
9, 31872, Note_on_c, 12, 71, 67
9, 31884, Note_off_c, 12, 72, 16
9, 32064, Note_on_c, 12, 69, 69
9, 32077, Note_off_c, 12, 71, 32
9, 32203, Note_off_c, 12, 69, 26
9, 32256, Note_on_c, 12, 67, 119
9, 32281, Note_off_c, 12, 67, 87
9, 32448, Note_on_c, 12, 65, 77
9, 32640, Note_on_c, 12, 64, 67
9, 32688, Note_off_c, 12, 65, 72
9, 32809, Note_off_c, 12, 64, 52
9, 32832, Note_on_c, 12, 62, 73
9, 32955, Note_off_c, 12, 62, 3
9, 40800, Note_on_c, 12, 60, 65
9, 40835, Note_off_c, 12, 60, 48
9, 40896, Note_on_c, 12, 60, 59
9, 40932, Note_off_c, 12, 60, 49
9, 40992, Note_on_c, 12, 60, 59
9, 41026, Note_off_c, 12, 60, 44
9, 41088, Note_on_c, 12, 60, 59
9, 41121, Note_off_c, 12, 60, 47
9, 41184, Note_on_c, 12, 60, 53
9, 41213, Note_off_c, 12, 60, 42
9, 41280, Note_on_c, 12, 60, 61
9, 41310, Note_off_c, 12, 60, 34
9, 41376, Note_on_c, 12, 60, 63
9, 41414, Note_off_c, 12, 60, 42
9, 41568, Note_on_c, 12, 60, 52
9, 41599, Note_off_c, 12, 60, 35
9, 41664, Note_on_c, 12, 60, 61
9, 41697, Note_off_c, 12, 60, 44
9, 41760, Note_on_c, 12, 60, 65
9, 41792, Note_off_c, 12, 60, 35
9, 41856, Note_on_c, 12, 60, 59
9, 41889, Note_off_c, 12, 60, 43
9, 41952, Note_on_c, 12, 60, 57
9, 41981, Note_off_c, 12, 60, 40
9, 42048, Note_on_c, 12, 60, 61
9, 42072, Note_off_c, 12, 60, 40
9, 42144, Note_on_c, 12, 60, 61
9, 42179, Note_off_c, 12, 60, 42
9, 42336, Note_on_c, 12, 60, 63
9, 42360, Note_off_c, 12, 60, 44
9, 42432, Note_on_c, 12, 60, 77
9, 42457, Note_off_c, 12, 60, 43
9, 42528, Note_on_c, 12, 60, 75
9, 42551, Note_off_c, 12, 60, 56
9, 42624, Note_on_c, 12, 60, 65
9, 42646, Note_off_c, 12, 60, 40
9, 42720, Note_on_c, 12, 60, 73
9, 42745, Note_off_c, 12, 60, 16
9, 42816, Note_on_c, 12, 60, 55
9, 42838, Note_off_c, 12, 60, 35
9, 42912, Note_on_c, 12, 60, 50
9, 42928, Note_off_c, 12, 60, 44
9, 43008, Note_on_c, 12, 57, 54
9, 43392, Note_on_c, 12, 55, 48
9, 43395, Note_off_c, 12, 57, 72
9, 43661, Note_off_c, 12, 55, 52
9, 43776, Note_on_c, 12, 55, 81
9, 43814, Note_off_c, 12, 55, 71
9, 44544, Note_on_c, 12, 72, 44
9, 46167, Note_off_c, 12, 72, 20
9, 46272, Note_on_c, 12, 67, 71
9, 46549, Note_off_c, 12, 67, 68
9, 46656, Note_on_c, 12, 67, 59
9, 46697, Note_off_c, 12, 67, 78
9, 46848, Note_on_c, 12, 67, 50
9, 47006, Note_off_c, 12, 67, 94
9, 50784, Note_on_c, 12, 67, 1
9, 50812, Note_off_c, 12, 67, 93
9, 50880, Note_on_c, 12, 71, 1
9, 50907, Note_off_c, 12, 71, 76
9, 50976, Note_on_c, 12, 67, 1
9, 50997, Note_off_c, 12, 67, 92
9, 51072, Note_on_c, 12, 62, 1
9, 51099, Note_off_c, 12, 62, 95
9, 51168, Note_on_c, 12, 67, 1
9, 51199, Note_off_c, 12, 67, 82
9, 51264, Note_on_c, 12, 59, 1
9, 51288, Note_off_c, 12, 59, 90
9, 51360, Note_on_c, 12, 62, 1
9, 51385, Note_off_c, 12, 62, 95
9, 51456, Note_on_c, 12, 55, 1
9, 51658, Note_off_c, 12, 55, 102
9, 59136, Program_c, 12, 45
9, 59136, Note_on_c, 12, 50, 89
9, 59184, Note_off_c, 12, 50, 92
9, 59328, Note_on_c, 12, 62, 89
9, 59392, Note_off_c, 12, 62, 85
9, 59520, Note_on_c, 12, 66, 89
9, 59584, Note_off_c, 12, 66, 68
9, 59712, Note_on_c, 12, 62, 89
9, 59760, Note_off_c, 12, 62, 86
9, 59904, Note_on_c, 12, 60, 89
9, 60016, Note_off_c, 12, 60, 27
9, 60096, Note_on_c, 12, 57, 89
9, 60160, Note_off_c, 12, 57, 47
9, 60288, Note_on_c, 12, 54, 89
9, 60384, Note_off_c, 12, 54, 54
9, 60480, Note_on_c, 12, 62, 89
9, 60560, Note_off_c, 12, 62, 90
9, 60672, Note_on_c, 12, 55, 89
9, 60672, Note_on_c, 12, 62, 89
9, 60805, Note_off_c, 12, 55, 83
9, 60815, Note_off_c, 12, 62, 92
9, 62208, Note_on_c, 12, 50, 89
9, 62304, Note_off_c, 12, 50, 62
9, 62400, Note_on_c, 12, 62, 89
9, 62496, Note_off_c, 12, 62, 87
9, 62592, Note_on_c, 12, 66, 89
9, 62688, Note_off_c, 12, 66, 68
9, 62784, Note_on_c, 12, 62, 89
9, 62864, Note_off_c, 12, 62, 81
9, 62976, Note_on_c, 12, 60, 89
9, 63056, Note_off_c, 12, 60, 39
9, 63168, Note_on_c, 12, 57, 89
9, 63248, Note_off_c, 12, 57, 82
9, 63360, Note_on_c, 12, 54, 89
9, 63440, Note_off_c, 12, 54, 63
9, 63552, Note_on_c, 12, 62, 89
9, 63632, Note_off_c, 12, 62, 80
9, 63744, Note_on_c, 12, 55, 89
9, 63744, Note_on_c, 12, 62, 89
9, 63909, Note_off_c, 12, 62, 85
9, 63936, Program_c, 12, 48
9, 63968, Note_off_c, 12, 55, 78
9, 69138, Note_on_c, 12, 67, 62
9, 69522, Note_on_c, 12, 71, 50
9, 69533, Note_off_c, 12, 67, 64
9, 69888, Note_on_c, 12, 69, 72
9, 69923, Note_off_c, 12, 71, 50
9, 70272, Note_off_c, 12, 69, 75
9, 70272, Note_on_c, 12, 62, 54
9, 70656, Note_on_c, 12, 67, 64
9, 70673, Note_off_c, 12, 62, 34
9, 71032, Note_off_c, 12, 67, 42
9, 71040, Note_on_c, 12, 71, 47
9, 71424, Note_on_c, 12, 69, 62
9, 71433, Note_off_c, 12, 71, 46
9, 71808, Note_on_c, 12, 62, 64
9, 71852, Note_off_c, 12, 69, 46
9, 72184, Note_off_c, 12, 62, 72
9, 72192, Note_on_c, 12, 55, 64
9, 72576, Note_on_c, 12, 53, 64
9, 72596, Note_off_c, 12, 55, 53
9, 72960, Note_on_c, 12, 52, 60
9, 72963, Note_off_c, 12, 53, 92
9, 73341, Note_off_c, 12, 52, 23
9, 73344, Note_on_c, 12, 60, 56
9, 73728, Note_on_c, 12, 59, 31
9, 73739, Note_off_c, 12, 60, 35
9, 74109, Note_off_c, 12, 59, 21
9, 74112, Note_on_c, 12, 71, 58
9, 74459, Note_off_c, 12, 71, 32
9, 74496, Note_on_c, 12, 72, 88
9, 74622, Note_off_c, 12, 72, 27
9, 74976, Note_on_c, 12, 67, 124
9, 75013, Note_off_c, 12, 67, 65
9, 75072, Note_on_c, 12, 62, 106
9, 75112, Note_off_c, 12, 62, 72
9, 75168, Note_on_c, 12, 59, 98
9, 75201, Note_off_c, 12, 59, 64
9, 75264, Note_on_c, 12, 60, 82
9, 75417, Note_off_c, 12, 60, 26
9, 75744, Note_on_c, 12, 67, 112
9, 75772, Note_off_c, 12, 67, 74
9, 75840, Note_on_c, 12, 62, 96
9, 75871, Note_off_c, 12, 62, 76
9, 75936, Note_on_c, 12, 59, 88
9, 75967, Note_off_c, 12, 59, 50
9, 76032, Note_on_c, 12, 57, 80
9, 76151, Note_off_c, 12, 57, 68
9, 76224, Note_on_c, 12, 57, 72
9, 76416, Note_off_c, 12, 57, 80
9, 76608, Note_on_c, 12, 50, 70
9, 76791, Note_off_c, 12, 50, 46
9, 76992, Note_on_c, 12, 55, 76
9, 77176, Note_off_c, 12, 55, 55
9, 77376, Note_on_c, 12, 52, 47
9, 77544, Note_off_c, 12, 52, 37
9, 77568, Note_on_c, 12, 60, 54
9, 77928, Note_off_c, 12, 60, 24
9, 77952, Note_on_c, 12, 62, 78
9, 78216, Note_off_c, 12, 62, 76
9, 78240, Note_on_c, 12, 60, 72
9, 78336, Note_off_c, 12, 60, 57
9, 78336, Note_on_c, 12, 59, 74
9, 78363, Note_off_c, 12, 59, 71
9, 78432, Note_on_c, 12, 57, 78
9, 78459, Note_off_c, 12, 57, 85
9, 78528, Note_on_c, 12, 59, 76
9, 78553, Note_off_c, 12, 59, 66
9, 78624, Note_on_c, 12, 60, 66
9, 78645, Note_off_c, 12, 60, 20
9, 78720, Note_on_c, 12, 62, 78
9, 78917, Note_off_c, 12, 62, 72
9, 80640, Note_on_c, 12, 60, 42
9, 81024, Note_on_c, 12, 62, 75
9, 81038, Note_off_c, 12, 60, 49
9, 81408, Note_on_c, 12, 55, 30
9, 81410, Note_off_c, 12, 62, 61
9, 81632, Note_off_c, 12, 55, 87
9, 84672, Program_c, 12, 45
9, 84864, Note_on_c, 12, 67, 49
9, 84890, Note_off_c, 12, 67, 75
9, 85056, Note_on_c, 12, 62, 49
9, 85079, Note_off_c, 12, 62, 79
9, 85248, Note_on_c, 12, 59, 49
9, 85299, Note_off_c, 12, 59, 23
9, 85632, Note_on_c, 12, 67, 49
9, 85653, Note_off_c, 12, 67, 45
9, 85728, Note_on_c, 12, 67, 49
9, 85756, Note_off_c, 12, 67, 61
9, 85824, Note_on_c, 12, 62, 49
9, 85845, Note_off_c, 12, 62, 78
9, 85920, Note_on_c, 12, 62, 49
9, 85944, Note_off_c, 12, 62, 75
9, 86016, Note_on_c, 12, 59, 49
9, 86095, Note_off_c, 12, 59, 2
9, 86400, Note_on_c, 12, 67, 49
9, 86428, Note_off_c, 12, 67, 71
9, 86592, Note_on_c, 12, 62, 49
9, 86615, Note_off_c, 12, 62, 84
9, 86784, Note_on_c, 12, 59, 49
9, 86809, Note_off_c, 12, 59, 36
9, 86976, Note_on_c, 12, 62, 49
9, 86992, Note_off_c, 12, 62, 81
9, 87168, Note_on_c, 12, 67, 49
9, 87190, Note_off_c, 12, 67, 87
9, 87360, Note_on_c, 12, 62, 49
9, 87386, Note_off_c, 12, 62, 85
9, 87552, Note_on_c, 12, 59, 49
9, 87577, Note_off_c, 12, 59, 34
9, 87936, Note_on_c, 12, 64, 49
9, 87963, Note_off_c, 12, 64, 73
9, 88320, Note_on_c, 12, 62, 49
9, 88346, Note_off_c, 12, 62, 84
9, 88704, Note_on_c, 12, 62, 49
9, 88734, Note_off_c, 12, 62, 85
9, 88944, Program_c, 12, 48
9, 89102, Note_on_c, 12, 59, 79
9, 89494, Note_off_c, 12, 59, 11
9, 89503, Note_on_c, 12, 60, 73
9, 89759, Note_off_c, 12, 60, 34
9, 89856, Note_on_c, 12, 62, 79
9, 89904, Note_off_c, 12, 62, 64
9, 89952, Note_on_c, 12, 62, 87
9, 89977, Note_off_c, 12, 62, 78
9, 90048, Note_on_c, 12, 62, 101
9, 90074, Note_off_c, 12, 62, 80
9, 90144, Note_on_c, 12, 62, 101
9, 90171, Note_off_c, 12, 62, 82
9, 90240, Note_on_c, 12, 62, 107
9, 90271, Note_off_c, 12, 62, 81
9, 90336, Note_on_c, 12, 62, 95
9, 90365, Note_off_c, 12, 62, 82
9, 90432, Note_on_c, 12, 62, 107
9, 90462, Note_off_c, 12, 62, 83
9, 90528, Note_on_c, 12, 62, 91
9, 90557, Note_off_c, 12, 62, 80
9, 90624, Note_on_c, 12, 62, 79
9, 90654, Note_off_c, 12, 62, 78
9, 90720, Note_on_c, 12, 62, 79
9, 90749, Note_off_c, 12, 62, 76
9, 90816, Note_on_c, 12, 62, 79
9, 90846, Note_off_c, 12, 62, 81
9, 90912, Note_on_c, 12, 62, 79
9, 90938, Note_off_c, 12, 62, 83
9, 91008, Note_on_c, 12, 62, 79
9, 91035, Note_off_c, 12, 62, 84
9, 91104, Note_on_c, 12, 62, 79
9, 91129, Note_off_c, 12, 62, 87
9, 91200, Note_on_c, 12, 62, 79
9, 91225, Note_off_c, 12, 62, 83
9, 91296, Note_on_c, 12, 62, 79
9, 91320, Note_off_c, 12, 62, 85
9, 91392, Note_on_c, 12, 62, 1
9, 91429, Note_off_c, 12, 62, 80
9, 94464, Note_on_c, 12, 66, 87
9, 94512, Note_off_c, 12, 66, 74
9, 94560, Note_on_c, 12, 69, 101
9, 94584, Note_off_c, 12, 69, 71
9, 94656, Note_on_c, 12, 66, 85
9, 94680, Note_off_c, 12, 66, 71
9, 94752, Note_on_c, 12, 62, 85
9, 94800, Note_off_c, 12, 62, 76
9, 94848, Note_on_c, 12, 66, 91
9, 94896, Note_off_c, 12, 66, 60
9, 94944, Note_on_c, 12, 69, 119
9, 94992, Note_off_c, 12, 69, 58
9, 95040, Note_on_c, 12, 66, 87
9, 95088, Note_off_c, 12, 66, 62
9, 95136, Note_on_c, 12, 62, 91
9, 95184, Note_off_c, 12, 62, 76
9, 95232, Note_on_c, 12, 67, 124
9, 95256, Note_off_c, 12, 67, 70
9, 95328, Note_on_c, 12, 71, 83
9, 95376, Note_off_c, 12, 71, 39
9, 95424, Note_on_c, 12, 67, 95
9, 95448, Note_off_c, 12, 67, 80
9, 95520, Note_on_c, 12, 62, 81
9, 95568, Note_off_c, 12, 62, 71
9, 95616, Note_on_c, 12, 59, 77
9, 95616, Note_on_c, 12, 60, 67
9, 95640, Note_off_c, 12, 59, 42
9, 95640, Note_off_c, 12, 60, 23
9, 95712, Note_on_c, 12, 62, 87
9, 95760, Note_off_c, 12, 62, 54
9, 95808, Note_on_c, 12, 59, 85
9, 95856, Note_off_c, 12, 59, 8
9, 95904, Note_on_c, 12, 55, 75
9, 95952, Note_off_c, 12, 55, 84
9, 96000, Note_on_c, 12, 60, 101
9, 96033, Note_off_c, 12, 60, 70
9, 96096, Note_on_c, 12, 60, 55
9, 96126, Note_off_c, 12, 60, 61
9, 96192, Note_on_c, 12, 60, 85
9, 96222, Note_off_c, 12, 60, 60
9, 96288, Note_on_c, 12, 60, 73
9, 96321, Note_off_c, 12, 60, 57
9, 96384, Note_on_c, 12, 62, 107
9, 96419, Note_off_c, 12, 62, 80
9, 96480, Note_on_c, 12, 62, 85
9, 96511, Note_off_c, 12, 62, 79
9, 96576, Note_on_c, 12, 62, 93
9, 96612, Note_off_c, 12, 62, 76
9, 96672, Note_on_c, 12, 62, 93
9, 96708, Note_off_c, 12, 62, 58
9, 96768, Note_on_c, 12, 59, 91
9, 96796, Note_off_c, 12, 59, 81
9, 96864, Note_on_c, 12, 59, 79
9, 96893, Note_off_c, 12, 59, 75
9, 96960, Note_on_c, 12, 59, 89
9, 96986, Note_off_c, 12, 59, 74
9, 97056, Note_on_c, 12, 59, 93
9, 97083, Note_off_c, 12, 59, 71
9, 97152, Note_on_c, 12, 60, 93
9, 97180, Note_off_c, 12, 60, 63
9, 97248, Note_on_c, 12, 60, 83
9, 97275, Note_off_c, 12, 60, 66
9, 97344, Note_on_c, 12, 60, 83
9, 97369, Note_off_c, 12, 60, 64
9, 97440, Note_on_c, 12, 60, 58
9, 97461, Note_off_c, 12, 60, 38
9, 97536, Note_on_c, 12, 62, 113
9, 97565, Note_off_c, 12, 62, 80
9, 97632, Note_on_c, 12, 62, 91
9, 97663, Note_off_c, 12, 62, 70
9, 97728, Note_on_c, 12, 62, 101
9, 97762, Note_off_c, 12, 62, 78
9, 97824, Note_on_c, 12, 62, 73
9, 97848, Note_off_c, 12, 62, 64
9, 97920, Note_on_c, 12, 62, 113
9, 97952, Note_off_c, 12, 62, 86
9, 98016, Note_on_c, 12, 62, 93
9, 98044, Note_off_c, 12, 62, 81
9, 98112, Note_on_c, 12, 62, 107
9, 98139, Note_off_c, 12, 62, 81
9, 98208, Note_on_c, 12, 62, 107
9, 98234, Note_off_c, 12, 62, 85
9, 98304, Note_on_c, 12, 62, 113
9, 98330, Note_off_c, 12, 62, 83
9, 98400, Note_on_c, 12, 62, 95
9, 98424, Note_off_c, 12, 62, 80
9, 98496, Note_on_c, 12, 62, 107
9, 98519, Note_off_c, 12, 62, 82
9, 98592, Note_on_c, 12, 62, 107
9, 98618, Note_off_c, 12, 62, 83
9, 98688, Note_on_c, 12, 62, 101
9, 98714, Note_off_c, 12, 62, 80
9, 98784, Note_on_c, 12, 62, 113
9, 98815, Note_off_c, 12, 62, 71
9, 98880, Note_on_c, 12, 62, 101
9, 98916, Note_off_c, 12, 62, 76
9, 99072, Note_on_c, 12, 55, 84
9, 99182, Note_off_c, 12, 55, 83
9, 99264, Note_on_c, 12, 67, 49
9, 99456, Note_on_c, 12, 66, 52
9, 99498, Note_off_c, 12, 67, 44
9, 99646, Note_off_c, 12, 66, 43
9, 99648, Note_on_c, 12, 64, 46
9, 99717, Note_off_c, 12, 64, 52
9, 99840, Note_on_c, 12, 63, 71
9, 99912, Note_off_c, 12, 63, 60
9, 100032, Note_on_c, 12, 64, 53
9, 100224, Note_on_c, 12, 62, 42
9, 100245, Note_off_c, 12, 64, 48
9, 100402, Note_off_c, 12, 62, 81
9, 100416, Note_on_c, 12, 60, 50
9, 100579, Note_off_c, 12, 60, 18
9, 100608, Note_on_c, 12, 59, 71
9, 100698, Note_off_c, 12, 59, 63
9, 100800, Note_on_c, 12, 60, 49
9, 100992, Note_on_c, 12, 59, 53
9, 101004, Note_off_c, 12, 60, 56
9, 101141, Note_off_c, 12, 59, 68
9, 101184, Note_on_c, 12, 57, 47
9, 101282, Note_off_c, 12, 57, 50
9, 102917, Note_on_c, 12, 64, 71
9, 102919, Note_on_c, 12, 62, 43
9, 103596, Note_off_c, 12, 64, 1
9, 103690, Note_off_c, 12, 62, 40
9, 103692, Note_on_c, 12, 64, 67
9, 103708, Note_on_c, 12, 60, 31
9, 104417, Note_off_c, 12, 64, 8
9, 104445, Note_off_c, 12, 60, 29
9, 104459, Note_on_c, 12, 59, 63
9, 104855, Note_on_c, 12, 64, 44
9, 104857, Note_off_c, 12, 59, 23
9, 105068, Note_off_c, 12, 64, 81
9, 105231, Note_on_c, 12, 64, 95
9, 105255, Note_off_c, 12, 64, 71
9, 105393, Note_on_c, 12, 64, 95
9, 105416, Note_off_c, 12, 64, 75
9, 105599, Note_on_c, 12, 64, 85
9, 105770, Note_off_c, 12, 64, 59
9, 105990, Note_on_c, 12, 62, 73
9, 106263, Note_on_c, 12, 65, 91
9, 106279, Note_off_c, 12, 62, 47
9, 106386, Note_on_c, 12, 64, 89
9, 106398, Note_off_c, 12, 65, 55
9, 106565, Note_on_c, 12, 62, 71
9, 106571, Note_off_c, 12, 64, 51
9, 106750, Note_off_c, 12, 62, 57
9, 109072, Note_on_c, 12, 49, 31
9, 109244, Note_off_c, 12, 49, 58
9, 110599, Note_on_c, 12, 52, 44
9, 110600, Note_on_c, 12, 61, 31
9, 111281, Note_off_c, 12, 52, 7
9, 111330, Note_off_c, 12, 61, 4
9, 111365, Note_on_c, 12, 62, 69
9, 111367, Note_on_c, 12, 53, 58
9, 111983, Note_off_c, 12, 53, 55
9, 112006, Note_off_c, 12, 62, 41
9, 112153, Note_on_c, 12, 58, 31
9, 112334, Note_on_c, 12, 55, 54
9, 112343, Note_off_c, 12, 58, 42
9, 112529, Note_on_c, 12, 57, 79
9, 112544, Note_off_c, 12, 55, 42
9, 112815, Note_off_c, 12, 57, 79
9, 112905, Note_on_c, 12, 57, 65
9, 112933, Note_off_c, 12, 57, 78
9, 113083, Note_on_c, 12, 57, 65
9, 113112, Note_off_c, 12, 57, 74
9, 113312, Note_on_c, 12, 57, 55
9, 113594, Note_off_c, 12, 57, 14
9, 113674, Note_on_c, 12, 58, 34
9, 114064, Note_on_c, 12, 57, 69
9, 114078, Note_off_c, 12, 58, 48
9, 114372, Note_off_c, 12, 57, 77
9, 114449, Note_on_c, 12, 57, 50
9, 114574, Note_off_c, 12, 57, 92
9, 116736, Note_on_c, 12, 53, 69
9, 118256, Note_off_c, 12, 53, 21
9, 118272, Note_on_c, 12, 52, 69
9, 119023, Note_off_c, 12, 52, 68
9, 119040, Note_on_c, 12, 57, 69
9, 119199, Note_off_c, 12, 57, 96
9, 121344, Note_on_c, 12, 67, 83
9, 122225, Note_off_c, 12, 67, 102
9, 122880, Note_on_c, 12, 67, 91
9, 123743, Note_off_c, 12, 67, 97
9, 125568, Note_on_c, 12, 66, 69
9, 125928, Note_off_c, 12, 66, 127
9, 125952, Note_on_c, 12, 67, 92
9, 126070, Note_off_c, 12, 67, 88
9, 126336, Note_on_c, 12, 66, 83
9, 126697, Note_off_c, 12, 66, 127
9, 126720, Note_on_c, 12, 67, 101
9, 126851, Note_off_c, 12, 67, 76
9, 127008, Note_on_c, 12, 67, 119
9, 127044, Note_off_c, 12, 67, 77
9, 127104, Note_on_c, 12, 55, 101
9, 127335, Note_off_c, 12, 55, 39
9, 127392, Note_on_c, 12, 67, 107
9, 127428, Note_off_c, 12, 67, 91
9, 127488, Note_on_c, 12, 55, 101
9, 127713, Note_off_c, 12, 55, 62
9, 127776, Note_on_c, 12, 67, 113
9, 127815, Note_off_c, 12, 67, 87
9, 127872, Note_on_c, 12, 55, 95
9, 128083, Note_off_c, 12, 55, 43
9, 128160, Note_on_c, 12, 67, 113
9, 128201, Note_off_c, 12, 67, 48
9, 128256, Note_on_c, 12, 55, 113
9, 128433, Note_off_c, 12, 55, 36
9, 128544, Note_on_c, 12, 67, 113
9, 128592, Note_off_c, 12, 67, 80
9, 128640, Note_on_c, 12, 55, 113
9, 128875, Note_off_c, 12, 55, 32
9, 128928, Note_on_c, 12, 67, 119
9, 128968, Note_off_c, 12, 67, 80
9, 143712, Note_on_c, 12, 67, 1
9, 143740, Note_off_c, 12, 67, 93
9, 143808, Note_on_c, 12, 71, 1
9, 143835, Note_off_c, 12, 71, 76
9, 143904, Note_on_c, 12, 67, 1
9, 143925, Note_off_c, 12, 67, 92
9, 144000, Note_on_c, 12, 62, 1
9, 144027, Note_off_c, 12, 62, 95
9, 144096, Note_on_c, 12, 67, 1
9, 144127, Note_off_c, 12, 67, 82
9, 144192, Note_on_c, 12, 59, 1
9, 144216, Note_off_c, 12, 59, 90
9, 144288, Note_on_c, 12, 62, 1
9, 144313, Note_off_c, 12, 62, 95
9, 144384, Note_on_c, 12, 55, 1
9, 144586, Note_off_c, 12, 55, 102
9, 150538, Note_on_c, 12, 60, 63
9, 151107, Note_on_c, 12, 56, 77
9, 151117, Note_off_c, 12, 60, 34
9, 151275, Note_off_c, 12, 56, 52
9, 151314, Note_on_c, 12, 57, 63
9, 151872, Note_on_c, 12, 52, 79
9, 151934, Note_off_c, 12, 57, 90
9, 152040, Note_off_c, 12, 52, 72
9, 152064, Note_on_c, 12, 53, 85
9, 152640, Note_off_c, 12, 53, 63
9, 152640, Note_on_c, 12, 52, 75
9, 152823, Note_off_c, 12, 52, 57
9, 152832, Note_on_c, 12, 50, 65
9, 153024, Note_off_c, 12, 50, 26
9, 153024, Note_on_c, 12, 58, 65
9, 153216, Note_off_c, 12, 58, 21
9, 153216, Note_on_c, 12, 57, 97
9, 153384, Note_off_c, 12, 57, 52
9, 153408, Note_on_c, 12, 60, 63
9, 153576, Program_c, 12, 45
9, 153600, Note_off_c, 12, 60, 14
9, 153600, Note_on_c, 12, 59, 57
9, 153696, Note_off_c, 12, 59, 9
9, 153792, Note_on_c, 12, 67, 71
9, 153842, Note_off_c, 12, 67, 66
9, 153984, Note_on_c, 12, 71, 71
9, 154023, Note_off_c, 12, 71, 56
9, 154176, Note_on_c, 12, 67, 83
9, 154212, Note_off_c, 12, 67, 82
9, 154368, Note_on_c, 12, 65, 71
9, 154410, Note_off_c, 12, 65, 63
9, 154560, Note_on_c, 12, 62, 57
9, 154608, Note_off_c, 12, 62, 62
9, 154752, Note_on_c, 12, 59, 51
9, 154800, Note_off_c, 12, 59, 57
9, 154944, Note_on_c, 12, 67, 89
9, 154992, Note_off_c, 12, 67, 77
9, 155136, Note_on_c, 12, 67, 63
9, 155136, Note_on_c, 12, 60, 32
9, 155301, Note_off_c, 12, 60, 40
9, 155315, Note_off_c, 12, 67, 79
9, 156682, Note_on_c, 12, 55, 85
9, 156733, Note_off_c, 12, 55, 56
9, 156864, Note_on_c, 12, 67, 103
9, 156908, Note_off_c, 12, 67, 68
9, 157056, Note_on_c, 12, 71, 81
9, 157100, Note_off_c, 12, 71, 32
9, 157248, Note_on_c, 12, 67, 103
9, 157285, Note_off_c, 12, 67, 73
9, 157440, Note_on_c, 12, 65, 97
9, 157482, Note_off_c, 12, 65, 72
9, 157632, Note_on_c, 12, 62, 75
9, 157660, Note_off_c, 12, 62, 55
9, 157824, Note_on_c, 12, 59, 77
9, 157861, Note_off_c, 12, 59, 42
9, 158016, Note_on_c, 12, 67, 85
9, 158052, Note_off_c, 12, 67, 61
9, 158208, Note_on_c, 12, 60, 40
9, 158208, Note_on_c, 12, 67, 75
9, 158402, Note_off_c, 12, 60, 50
9, 158403, Note_off_c, 12, 67, 87
9, 158472, Program_c, 12, 48
9, 159744, Note_on_c, 12, 67, 100
9, 159779, Note_off_c, 12, 67, 78
9, 159840, Note_on_c, 12, 71, 100
9, 159875, Note_off_c, 12, 71, 59
9, 159936, Note_on_c, 12, 74, 100
9, 159976, Note_off_c, 12, 74, 74
9, 160032, Note_on_c, 12, 71, 100
9, 160063, Note_off_c, 12, 71, 44
9, 160128, Note_on_c, 12, 72, 100
9, 160182, Note_off_c, 12, 72, 30
9, 160224, Note_on_c, 12, 67, 100
9, 160263, Note_off_c, 12, 67, 70
9, 160320, Note_on_c, 12, 64, 100
9, 160380, Note_off_c, 12, 64, 47
9, 160416, Note_on_c, 12, 60, 100
9, 160443, Note_off_c, 12, 60, 71
9, 160512, Note_on_c, 12, 67, 100
9, 160559, Note_off_c, 12, 67, 46
9, 160608, Note_on_c, 12, 71, 100
9, 160654, Note_off_c, 12, 71, 63
9, 160704, Note_on_c, 12, 74, 100
9, 160745, Note_off_c, 12, 74, 84
9, 160800, Note_on_c, 12, 71, 100
9, 160857, Note_off_c, 12, 71, 39
9, 160896, Note_on_c, 12, 72, 100
9, 160945, Note_off_c, 12, 72, 31
9, 160992, Note_on_c, 12, 67, 100
9, 161023, Note_off_c, 12, 67, 89
9, 161088, Note_on_c, 12, 64, 100
9, 161118, Note_off_c, 12, 64, 80
9, 161184, Note_on_c, 12, 60, 100
9, 161215, Note_off_c, 12, 60, 70
9, 161280, Note_on_c, 12, 55, 100
9, 161365, Note_off_c, 12, 55, 65
9, 161472, Note_on_c, 12, 67, 100
9, 161664, Note_off_c, 12, 67, 56
9, 161664, Note_on_c, 12, 55, 100
9, 161846, Note_off_c, 12, 55, 72
9, 163584, Note_on_c, 12, 60, 49
9, 163957, Note_off_c, 12, 60, 16
9, 163968, Note_on_c, 12, 64, 49
9, 164316, Note_off_c, 12, 64, 62
9, 164352, Note_on_c, 12, 62, 49
9, 164736, Note_on_c, 12, 55, 49
9, 164750, Note_off_c, 12, 62, 68
9, 165120, Note_on_c, 12, 60, 49
9, 165140, Note_off_c, 12, 55, 43
9, 165500, Note_off_c, 12, 60, 1
9, 165504, Note_on_c, 12, 64, 49
9, 165883, Note_off_c, 12, 64, 64
9, 165888, Note_on_c, 12, 62, 49
9, 166272, Note_off_c, 12, 62, 65
9, 166272, Note_on_c, 12, 55, 49
9, 166681, Note_on_c, 12, 60, 34
9, 166685, Note_off_c, 12, 55, 37
9, 167071, Note_on_c, 12, 58, 35
9, 167090, Note_off_c, 12, 60, 24
9, 167466, Note_on_c, 12, 57, 75
9, 167488, Note_off_c, 12, 58, 44
9, 167869, Note_off_c, 12, 57, 61
9, 167872, Note_on_c, 12, 53, 51
9, 168216, Note_off_c, 12, 53, 76
9, 168218, Note_on_c, 12, 52, 62
9, 168626, Note_on_c, 12, 64, 56
9, 168637, Note_off_c, 12, 52, 3
9, 168960, Note_off_c, 12, 64, 40
9, 168960, Note_on_c, 12, 65, 113
9, 169003, Note_off_c, 12, 65, 75
9, 169440, Note_on_c, 12, 72, 124
9, 169488, Note_off_c, 12, 72, 66
9, 169536, Note_on_c, 12, 67, 1
9, 169584, Note_off_c, 12, 67, 93
9, 169632, Note_on_c, 12, 64, 124
9, 169680, Note_off_c, 12, 64, 77
9, 169728, Note_on_c, 12, 65, 1
9, 169868, Note_off_c, 12, 65, 93
9, 170208, Note_on_c, 12, 60, 95
9, 170256, Note_off_c, 12, 60, 47
9, 170304, Note_on_c, 12, 55, 119
9, 170352, Note_off_c, 12, 55, 73
9, 170400, Note_on_c, 12, 52, 101
9, 170448, Note_off_c, 12, 52, 61
9, 170496, Note_on_c, 12, 53, 119
9, 170664, Note_off_c, 12, 53, 71
9, 170688, Note_on_c, 12, 62, 124
9, 170705, Channel_aftertouch_c, 12, 7
9, 170717, Channel_aftertouch_c, 12, 13
9, 170729, Channel_aftertouch_c, 12, 16
9, 170740, Channel_aftertouch_c, 12, 19
9, 170753, Channel_aftertouch_c, 12, 23
9, 170765, Channel_aftertouch_c, 12, 25
9, 170777, Channel_aftertouch_c, 12, 27
9, 170800, Channel_aftertouch_c, 12, 30
9, 170825, Channel_aftertouch_c, 12, 25
9, 170832, Note_off_c, 12, 62, 60
9, 170839, Channel_aftertouch_c, 12, 0
9, 171072, Note_on_c, 12, 67, 1
9, 171216, Note_off_c, 12, 67, 69
9, 171456, Note_on_c, 12, 60, 107
9, 171600, Note_off_c, 12, 60, 41
9, 171840, Note_on_c, 12, 57, 124
9, 171984, Note_off_c, 12, 57, 81
9, 172032, Note_on_c, 12, 53, 113
9, 172392, Note_off_c, 12, 53, 68
9, 172416, Note_on_c, 12, 55, 113
9, 172656, Note_off_c, 12, 55, 81
9, 172704, Note_on_c, 12, 53, 107
9, 172776, Note_off_c, 12, 53, 87
9, 172800, Note_on_c, 12, 52, 107
9, 172824, Note_off_c, 12, 52, 75
9, 172896, Note_on_c, 12, 50, 107
9, 172920, Note_off_c, 12, 50, 81
9, 172992, Note_on_c, 12, 52, 101
9, 173016, Note_off_c, 12, 52, 73
9, 173088, Note_on_c, 12, 53, 119
9, 173112, Note_off_c, 12, 53, 82
9, 173184, Note_on_c, 12, 55, 114
9, 173440, Note_off_c, 12, 55, 87
9, 175104, Note_on_c, 12, 53, 53
9, 175492, Note_off_c, 12, 53, 49
9, 175500, Note_on_c, 12, 55, 45
9, 175872, Note_off_c, 12, 55, 40
9, 179328, Program_c, 12, 45
9, 179328, Note_on_c, 12, 64, 59
9, 179328, Note_on_c, 12, 60, 59
9, 179340, Note_off_c, 12, 64, 83
9, 179343, Note_off_c, 12, 60, 46
9, 179520, Note_on_c, 12, 65, 59
9, 179520, Note_on_c, 12, 62, 59
9, 179537, Note_off_c, 12, 62, 71
9, 179547, Note_off_c, 12, 65, 89
9, 179712, Note_on_c, 12, 64, 59
9, 179712, Note_on_c, 12, 67, 59
9, 179744, Note_off_c, 12, 64, 85
9, 179745, Note_off_c, 12, 67, 82
9, 180096, Note_on_c, 12, 60, 59
9, 180096, Note_on_c, 12, 64, 59
9, 180114, Note_off_c, 12, 64, 63
9, 180120, Note_off_c, 12, 60, 40
9, 180192, Note_on_c, 12, 64, 59
9, 180192, Note_on_c, 12, 60, 59
9, 180219, Note_off_c, 12, 64, 76
9, 180221, Note_off_c, 12, 60, 48
9, 180288, Note_on_c, 12, 62, 59
9, 180288, Note_on_c, 12, 65, 59
9, 180308, Note_off_c, 12, 65, 62
9, 180310, Note_off_c, 12, 62, 73
9, 180384, Note_on_c, 12, 62, 59
9, 180384, Note_on_c, 12, 65, 59
9, 180411, Note_off_c, 12, 65, 79
9, 180413, Note_off_c, 12, 62, 75
9, 180480, Note_on_c, 12, 67, 59
9, 180480, Note_on_c, 12, 64, 59
9, 180507, Note_off_c, 12, 64, 55
9, 180515, Note_off_c, 12, 67, 74
9, 180864, Note_on_c, 12, 60, 59
9, 180864, Note_on_c, 12, 64, 59
9, 180887, Note_off_c, 12, 64, 77
9, 180888, Note_off_c, 12, 60, 45
9, 181056, Note_on_c, 12, 62, 59
9, 181056, Note_on_c, 12, 65, 59
9, 181080, Note_off_c, 12, 62, 86
9, 181080, Note_off_c, 12, 65, 83
9, 181248, Note_on_c, 12, 64, 59
9, 181248, Note_on_c, 12, 67, 59
9, 181270, Note_off_c, 12, 64, 78
9, 181270, Note_off_c, 12, 67, 80
9, 181440, Note_on_c, 12, 62, 59
9, 181440, Note_on_c, 12, 65, 59
9, 181466, Note_off_c, 12, 65, 75
9, 181467, Note_off_c, 12, 62, 85
9, 181632, Note_on_c, 12, 60, 59
9, 181632, Note_on_c, 12, 64, 59
9, 181652, Note_off_c, 12, 64, 79
9, 181661, Note_off_c, 12, 60, 43
9, 181824, Note_on_c, 12, 62, 59
9, 181824, Note_on_c, 12, 59, 59
9, 181848, Note_off_c, 12, 59, 63
9, 181850, Note_off_c, 12, 62, 69
9, 182016, Note_on_c, 12, 64, 59
9, 182016, Note_on_c, 12, 60, 59
9, 182043, Note_off_c, 12, 64, 70
9, 182048, Note_off_c, 12, 60, 38
9, 182400, Note_on_c, 12, 65, 59
9, 182436, Note_off_c, 12, 65, 86
9, 182784, Note_on_c, 12, 67, 59
9, 182842, Note_off_c, 12, 67, 74
9, 183168, Note_on_c, 12, 55, 59
9, 183209, Note_off_c, 12, 55, 77
9, 183360, Program_c, 12, 48
9, 183552, Note_on_c, 12, 52, 69
9, 183936, Note_on_c, 12, 53, 81
9, 183937, Note_off_c, 12, 52, 25
9, 184296, Note_off_c, 12, 53, 36
9, 184320, Note_on_c, 12, 55, 89
9, 184349, Note_off_c, 12, 55, 75
9, 184416, Note_on_c, 12, 67, 89
9, 184442, Note_off_c, 12, 67, 73
9, 184512, Note_on_c, 12, 67, 91
9, 184537, Note_off_c, 12, 67, 75
9, 184608, Note_on_c, 12, 67, 91
9, 184627, Note_off_c, 12, 67, 52
9, 184704, Note_on_c, 12, 67, 101
9, 184721, Note_off_c, 12, 67, 59
9, 184800, Note_on_c, 12, 67, 101
9, 184826, Note_off_c, 12, 67, 65
9, 184896, Note_on_c, 12, 67, 99
9, 184921, Note_off_c, 12, 67, 71
9, 184992, Note_on_c, 12, 67, 101
9, 185015, Note_off_c, 12, 67, 49
9, 185088, Note_on_c, 12, 67, 107
9, 185114, Note_off_c, 12, 67, 60
9, 185184, Note_on_c, 12, 67, 107
9, 185212, Note_off_c, 12, 67, 62
9, 185280, Note_on_c, 12, 67, 109
9, 185319, Note_off_c, 12, 67, 71
9, 185376, Note_on_c, 12, 67, 110
9, 185410, Note_off_c, 12, 67, 83
9, 185472, Note_on_c, 12, 67, 122
9, 185505, Note_off_c, 12, 67, 95
9, 185568, Note_on_c, 12, 67, 122
9, 185598, Note_off_c, 12, 67, 89
9, 185664, Note_on_c, 12, 67, 1
9, 185695, Note_off_c, 12, 67, 95
9, 185760, Note_on_c, 12, 67, 1
9, 185786, Note_off_c, 12, 67, 98
9, 185856, Note_on_c, 12, 67, 1
9, 185991, Note_off_c, 12, 67, 95
9, 186240, Note_on_c, 12, 72, 93
9, 186453, Note_off_c, 12, 72, 31
9, 186528, Note_on_c, 12, 67, 89
9, 186558, Note_off_c, 12, 67, 78
9, 186624, Note_on_c, 12, 64, 1
9, 186666, Note_off_c, 12, 64, 74
9, 186720, Note_on_c, 12, 60, 93
9, 186757, Note_off_c, 12, 60, 42
9, 186816, Note_on_c, 12, 64, 119
9, 186847, Note_off_c, 12, 64, 76
9, 186912, Note_on_c, 12, 67, 113
9, 186951, Note_off_c, 12, 67, 48
9, 187008, Note_on_c, 12, 72, 107
9, 187228, Note_off_c, 12, 72, 35
9, 187296, Note_on_c, 12, 67, 1
9, 187328, Note_off_c, 12, 67, 88
9, 187392, Note_on_c, 12, 67, 1
9, 187620, Note_off_c, 12, 67, 87
9, 187680, Note_on_c, 12, 67, 124
9, 187719, Note_off_c, 12, 67, 78
9, 187776, Note_on_c, 12, 64, 1
9, 187993, Note_off_c, 12, 64, 64
9, 188064, Note_on_c, 12, 64, 124
9, 188109, Note_off_c, 12, 64, 63
9, 188160, Note_on_c, 12, 60, 101
9, 188385, Note_off_c, 12, 60, 48
9, 188448, Note_on_c, 12, 60, 87
9, 188496, Note_off_c, 12, 60, 43
9, 188544, Note_on_c, 12, 57, 124
9, 188778, Note_off_c, 12, 57, 74
9, 188832, Note_on_c, 12, 57, 1
9, 188889, Note_off_c, 12, 57, 39
9, 198144, Note_on_c, 12, 71, 115
9, 198192, Note_off_c, 12, 71, 66
9, 198240, Note_on_c, 12, 74, 115
9, 198288, Note_off_c, 12, 74, 61
9, 198336, Note_on_c, 12, 71, 115
9, 198384, Note_off_c, 12, 71, 42
9, 198432, Note_on_c, 12, 67, 115
9, 198480, Note_off_c, 12, 67, 63
9, 198528, Note_on_c, 12, 65, 115
9, 198576, Note_off_c, 12, 65, 67
9, 198624, Note_on_c, 12, 62, 115
9, 198672, Note_off_c, 12, 62, 83
9, 198720, Note_on_c, 12, 59, 115
9, 198768, Note_off_c, 12, 59, 81
9, 198816, Note_on_c, 12, 55, 115
9, 198864, Note_off_c, 12, 55, 87
9, 198912, Note_on_c, 12, 60, 115
9, 198984, Note_off_c, 12, 60, 68
9, 199008, Note_on_c, 12, 76, 115
9, 199056, Note_off_c, 12, 76, 83
9, 199104, Note_on_c, 12, 72, 115
9, 199152, Note_off_c, 12, 72, 51
9, 199200, Note_on_c, 12, 67, 115
9, 199248, Note_off_c, 12, 67, 86
9, 199296, Note_on_c, 12, 64, 115
9, 199344, Note_off_c, 12, 64, 68
9, 199392, Note_on_c, 12, 67, 115
9, 199440, Note_off_c, 12, 67, 73
9, 199488, Note_on_c, 12, 64, 115
9, 199536, Note_off_c, 12, 64, 63
9, 199584, Note_on_c, 12, 60, 115
9, 199632, Note_off_c, 12, 60, 42
9, 199680, Note_on_c, 12, 65, 115
9, 199728, Note_off_c, 12, 65, 66
9, 199776, Note_on_c, 12, 65, 115
9, 199824, Note_off_c, 12, 65, 75
9, 199872, Note_on_c, 12, 65, 115
9, 199920, Note_off_c, 12, 65, 75
9, 199968, Note_on_c, 12, 65, 115
9, 200016, Note_off_c, 12, 65, 71
9, 200064, Note_on_c, 12, 67, 115
9, 200112, Note_off_c, 12, 67, 74
9, 200160, Note_on_c, 12, 67, 115
9, 200208, Note_off_c, 12, 67, 68
9, 200256, Note_on_c, 12, 67, 115
9, 200304, Note_off_c, 12, 67, 58
9, 200352, Note_on_c, 12, 67, 115
9, 200400, Note_off_c, 12, 67, 76
9, 200448, Note_on_c, 12, 64, 101
9, 200471, Note_off_c, 12, 64, 56
9, 200544, Note_on_c, 12, 64, 93
9, 200566, Note_off_c, 12, 64, 72
9, 200640, Note_on_c, 12, 64, 107
9, 200660, Note_off_c, 12, 64, 74
9, 200736, Note_on_c, 12, 64, 101
9, 200760, Note_off_c, 12, 64, 67
9, 200832, Note_on_c, 12, 65, 124
9, 200854, Note_off_c, 12, 65, 82
9, 200928, Note_on_c, 12, 65, 113
9, 200947, Note_off_c, 12, 65, 79
9, 201024, Note_on_c, 12, 65, 124
9, 201046, Note_off_c, 12, 65, 80
9, 201120, Note_on_c, 12, 65, 119
9, 201143, Note_off_c, 12, 65, 78
9, 201216, Note_on_c, 12, 67, 89
9, 201216, Note_on_c, 12, 69, 101
9, 201224, Note_off_c, 12, 69, 82
9, 201228, Note_off_c, 12, 67, 81
9, 201312, Note_on_c, 12, 67, 113
9, 201331, Note_off_c, 12, 67, 81
9, 201408, Note_on_c, 12, 67, 119
9, 201427, Note_off_c, 12, 67, 85
9, 201504, Note_on_c, 12, 67, 124
9, 201523, Note_off_c, 12, 67, 78
9, 201600, Note_on_c, 12, 67, 124
9, 201620, Note_off_c, 12, 67, 87
9, 201696, Note_on_c, 12, 67, 1
9, 201718, Note_off_c, 12, 67, 81
9, 201792, Note_on_c, 12, 55, 113
9, 201825, Note_off_c, 12, 55, 60
9, 201888, Note_on_c, 12, 55, 124
9, 201915, Note_off_c, 12, 55, 90
9, 201984, Note_on_c, 12, 60, 85
9, 202019, Note_off_c, 12, 60, 48
9, 202080, Note_on_c, 12, 64, 95
9, 202115, Note_off_c, 12, 64, 62
9, 202176, Note_on_c, 12, 67, 113
9, 202212, Note_off_c, 12, 67, 42
9, 202272, Note_on_c, 12, 64, 83
9, 202302, Note_off_c, 12, 64, 55
9, 202368, Note_on_c, 12, 60, 87
9, 202399, Note_off_c, 12, 60, 58
9, 202464, Note_on_c, 12, 64, 91
9, 202491, Note_off_c, 12, 64, 59
9, 202560, Note_on_c, 12, 67, 107
9, 202588, Note_off_c, 12, 67, 74
9, 202656, Note_on_c, 12, 64, 87
9, 202678, Note_off_c, 12, 64, 64
9, 202752, Note_on_c, 12, 60, 95
9, 202786, Note_off_c, 12, 60, 53
9, 202848, Note_on_c, 12, 64, 85
9, 202875, Note_off_c, 12, 64, 45
9, 202944, Note_on_c, 12, 67, 101
9, 202974, Note_off_c, 12, 67, 67
9, 203040, Note_on_c, 12, 64, 89
9, 203065, Note_off_c, 12, 64, 60
9, 203136, Note_on_c, 12, 60, 87
9, 203168, Note_off_c, 12, 60, 64
9, 203232, Note_on_c, 12, 64, 83
9, 203257, Note_off_c, 12, 64, 53
9, 203328, Note_on_c, 12, 67, 101
9, 203362, Note_off_c, 12, 67, 59
9, 203424, Note_on_c, 12, 64, 87
9, 203454, Note_off_c, 12, 64, 53
9, 203520, Note_on_c, 12, 60, 99
9, 203670, Note_off_c, 12, 60, 33
9, 203904, Note_on_c, 12, 72, 116
9, 204108, Note_off_c, 12, 72, 30
9, 204192, Note_on_c, 12, 67, 122
9, 204226, Note_off_c, 12, 67, 88
9, 204288, Note_on_c, 12, 64, 122
9, 204314, Note_off_c, 12, 64, 86
9, 204384, Note_on_c, 12, 60, 65
9, 204420, Note_off_c, 12, 60, 52
9, 204480, Note_on_c, 12, 64, 110
9, 204512, Note_off_c, 12, 64, 78
9, 204576, Note_on_c, 12, 67, 116
9, 204617, Note_off_c, 12, 67, 62
9, 204672, Note_on_c, 12, 72, 93
9, 204864, Note_off_c, 12, 72, 14
9, 204960, Note_on_c, 12, 67, 110
9, 204994, Note_off_c, 12, 67, 71
9, 205056, Note_on_c, 12, 64, 116
9, 205081, Note_off_c, 12, 64, 87
9, 205152, Note_on_c, 12, 60, 73
9, 205182, Note_off_c, 12, 60, 67
9, 205248, Note_on_c, 12, 64, 116
9, 205274, Note_off_c, 12, 64, 75
9, 205344, Note_on_c, 12, 67, 116
9, 205371, Note_off_c, 12, 67, 88
9, 205440, Note_on_c, 12, 64, 122
9, 205466, Note_off_c, 12, 64, 89
9, 205536, Note_on_c, 12, 60, 81
9, 205572, Note_off_c, 12, 60, 54
9, 205632, Note_on_c, 12, 64, 116
9, 205669, Note_off_c, 12, 64, 72
9, 205728, Note_on_c, 12, 67, 99
9, 205750, Note_off_c, 12, 67, 92
9, 205824, Note_on_c, 12, 60, 81
9, 206125, Note_off_c, 12, 60, 71
9, 206125, End_track
10, 0, Start_track
10, 0, MIDI_port, 0
10, 0, Title_t, "Cellos              "
10, 0, Program_c, 13, 48
10, 0, Control_c, 13, 7, 98
10, 0, Control_c, 13, 10, 36
10, 0, Note_on_c, 13, 60, 58
10, 0, Program_c, 13, 48
10, 240, Note_off_c, 13, 60, 14
10, 288, Note_on_c, 13, 55, 80
10, 336, Note_off_c, 13, 55, 64
10, 384, Note_on_c, 13, 52, 70
10, 432, Note_off_c, 13, 52, 62
10, 480, Note_on_c, 13, 48, 72
10, 528, Note_off_c, 13, 48, 49
10, 576, Note_on_c, 13, 52, 76
10, 624, Note_off_c, 13, 52, 25
10, 672, Note_on_c, 13, 55, 80
10, 720, Note_off_c, 13, 55, 55
10, 768, Note_on_c, 13, 60, 76
10, 984, Note_off_c, 13, 60, 24
10, 1056, Note_on_c, 13, 55, 80
10, 1104, Note_off_c, 13, 55, 56
10, 1152, Note_on_c, 13, 52, 76
10, 1200, Note_off_c, 13, 52, 48
10, 1248, Note_on_c, 13, 48, 64
10, 1296, Note_off_c, 13, 48, 33
10, 1344, Note_on_c, 13, 52, 78
10, 1416, Note_off_c, 13, 52, 51
10, 1440, Note_on_c, 13, 55, 58
10, 1488, Note_off_c, 13, 55, 46
10, 1536, Note_on_c, 13, 48, 72
10, 1632, Note_off_c, 13, 48, 44
10, 1728, Note_on_c, 13, 48, 40
10, 1903, Note_off_c, 13, 48, 48
10, 1920, Note_on_c, 13, 47, 40
10, 2112, Note_on_c, 13, 48, 44
10, 2120, Note_off_c, 13, 47, 76
10, 2300, Note_off_c, 13, 48, 66
10, 2304, Note_on_c, 13, 50, 66
10, 2413, Note_off_c, 13, 50, 70
10, 2496, Note_on_c, 13, 50, 48
10, 2688, Note_on_c, 13, 49, 49
10, 2693, Note_off_c, 13, 50, 55
10, 2851, Note_off_c, 13, 49, 12
10, 2880, Note_on_c, 13, 50, 44
10, 3072, Note_off_c, 13, 50, 10
10, 3072, Note_on_c, 13, 52, 62
10, 3192, Note_off_c, 13, 52, 47
10, 3264, Note_on_c, 13, 52, 44
10, 3456, Note_on_c, 13, 51, 47
10, 3457, Note_off_c, 13, 52, 54
10, 3615, Note_off_c, 13, 51, 31
10, 3648, Note_on_c, 13, 52, 46
10, 3840, Note_on_c, 13, 53, 46
10, 3865, Note_off_c, 13, 52, 72
10, 4032, Note_on_c, 13, 55, 48
10, 4053, Note_off_c, 13, 53, 83
10, 4224, Note_on_c, 13, 57, 49
10, 4249, Note_off_c, 13, 55, 95
10, 4416, Note_on_c, 13, 59, 56
10, 4435, Note_off_c, 13, 57, 75
10, 4573, Note_off_c, 13, 59, 58
10, 4608, Note_on_c, 13, 60, 100
10, 4656, Note_off_c, 13, 60, 59
10, 4704, Note_on_c, 13, 60, 100
10, 4752, Note_off_c, 13, 60, 52
10, 4800, Note_on_c, 13, 60, 100
10, 4848, Note_off_c, 13, 60, 64
10, 4896, Note_on_c, 13, 60, 100
10, 4944, Note_off_c, 13, 60, 55
10, 4992, Note_on_c, 13, 60, 100
10, 5040, Note_off_c, 13, 60, 66
10, 5088, Note_on_c, 13, 60, 100
10, 5136, Note_off_c, 13, 60, 66
10, 5184, Note_on_c, 13, 60, 100
10, 5232, Note_off_c, 13, 60, 63
10, 5280, Note_on_c, 13, 60, 100
10, 5328, Note_off_c, 13, 60, 59
10, 5376, Note_on_c, 13, 60, 100
10, 5424, Note_off_c, 13, 60, 66
10, 5472, Note_on_c, 13, 60, 100
10, 5520, Note_off_c, 13, 60, 54
10, 5568, Note_on_c, 13, 60, 100
10, 5616, Note_off_c, 13, 60, 52
10, 5664, Note_on_c, 13, 60, 100
10, 5712, Note_off_c, 13, 60, 47
10, 5760, Note_on_c, 13, 60, 100
10, 5808, Note_off_c, 13, 60, 62
10, 5856, Note_on_c, 13, 60, 100
10, 5904, Note_off_c, 13, 60, 52
10, 5952, Note_on_c, 13, 60, 100
10, 6000, Note_off_c, 13, 60, 54
10, 6048, Note_on_c, 13, 60, 100
10, 6096, Note_off_c, 13, 60, 58
10, 6144, Note_on_c, 13, 60, 74
10, 6216, Note_off_c, 13, 60, 68
10, 6240, Note_on_c, 13, 48, 74
10, 6265, Note_off_c, 13, 48, 60
10, 6336, Note_on_c, 13, 48, 74
10, 6371, Note_off_c, 13, 48, 63
10, 6432, Note_on_c, 13, 48, 74
10, 6458, Note_off_c, 13, 48, 60
10, 6528, Note_on_c, 13, 48, 74
10, 6553, Note_off_c, 13, 48, 51
10, 6624, Note_on_c, 13, 48, 74
10, 6649, Note_off_c, 13, 48, 55
10, 6720, Note_on_c, 13, 48, 74
10, 6743, Note_off_c, 13, 48, 55
10, 6816, Note_on_c, 13, 48, 74
10, 6849, Note_off_c, 13, 48, 28
10, 6912, Note_on_c, 13, 48, 74
10, 6938, Note_off_c, 13, 48, 48
10, 7008, Note_on_c, 13, 48, 74
10, 7033, Note_off_c, 13, 48, 41
10, 7104, Note_on_c, 13, 48, 74
10, 7133, Note_off_c, 13, 48, 54
10, 7200, Note_on_c, 13, 48, 74
10, 7228, Note_off_c, 13, 48, 45
10, 7296, Note_on_c, 13, 48, 74
10, 7315, Note_off_c, 13, 48, 67
10, 7392, Note_on_c, 13, 60, 104
10, 7456, Note_off_c, 13, 60, 76
10, 7488, Note_on_c, 13, 60, 104
10, 7552, Note_off_c, 13, 60, 66
10, 7584, Note_on_c, 13, 60, 104
10, 7648, Note_off_c, 13, 60, 56
10, 7680, Note_on_c, 13, 59, 100
10, 7728, Note_off_c, 13, 59, 66
10, 7776, Note_on_c, 13, 62, 100
10, 7824, Note_off_c, 13, 62, 61
10, 7872, Note_on_c, 13, 59, 100
10, 7920, Note_off_c, 13, 59, 42
10, 7968, Note_on_c, 13, 55, 100
10, 8016, Note_off_c, 13, 55, 63
10, 8064, Note_on_c, 13, 53, 100
10, 8112, Note_off_c, 13, 53, 67
10, 8160, Note_on_c, 13, 50, 100
10, 8208, Note_off_c, 13, 50, 83
10, 8256, Note_on_c, 13, 47, 100
10, 8304, Note_off_c, 13, 47, 81
10, 8352, Note_on_c, 13, 43, 100
10, 8400, Note_off_c, 13, 43, 87
10, 8448, Note_on_c, 13, 48, 100
10, 8520, Note_off_c, 13, 48, 68
10, 8544, Note_on_c, 13, 64, 100
10, 8592, Note_off_c, 13, 64, 83
10, 8640, Note_on_c, 13, 60, 100
10, 8688, Note_off_c, 13, 60, 51
10, 8736, Note_on_c, 13, 55, 100
10, 8784, Note_off_c, 13, 55, 86
10, 8832, Note_on_c, 13, 52, 100
10, 8880, Note_off_c, 13, 52, 68
10, 8928, Note_on_c, 13, 55, 100
10, 8976, Note_off_c, 13, 55, 73
10, 9024, Note_on_c, 13, 52, 100
10, 9072, Note_off_c, 13, 52, 63
10, 9120, Note_on_c, 13, 48, 100
10, 9168, Note_off_c, 13, 48, 42
10, 9216, Note_on_c, 13, 53, 100
10, 9264, Note_off_c, 13, 53, 66
10, 9312, Note_on_c, 13, 53, 100
10, 9360, Note_off_c, 13, 53, 75
10, 9408, Note_on_c, 13, 53, 100
10, 9456, Note_off_c, 13, 53, 75
10, 9504, Note_on_c, 13, 53, 100
10, 9552, Note_off_c, 13, 53, 71
10, 9600, Note_on_c, 13, 55, 100
10, 9648, Note_off_c, 13, 55, 74
10, 9696, Note_on_c, 13, 55, 100
10, 9744, Note_off_c, 13, 55, 68
10, 9792, Note_on_c, 13, 55, 100
10, 9840, Note_off_c, 13, 55, 58
10, 9888, Note_on_c, 13, 55, 100
10, 9936, Note_off_c, 13, 55, 76
10, 9984, Note_on_c, 13, 48, 74
10, 10008, Note_off_c, 13, 48, 42
10, 10080, Note_on_c, 13, 50, 74
10, 10104, Note_off_c, 13, 50, 72
10, 10176, Note_on_c, 13, 52, 74
10, 10200, Note_off_c, 13, 52, 66
10, 10272, Note_on_c, 13, 53, 74
10, 10296, Note_off_c, 13, 53, 55
10, 10368, Note_on_c, 13, 55, 74
10, 10552, Note_off_c, 13, 55, 93
10, 10752, Note_on_c, 13, 59, 100
10, 10800, Note_off_c, 13, 59, 51
10, 10848, Note_on_c, 13, 62, 100
10, 10896, Note_off_c, 13, 62, 68
10, 10944, Note_on_c, 13, 59, 100
10, 10992, Note_off_c, 13, 59, 34
10, 11040, Note_on_c, 13, 55, 100
10, 11088, Note_off_c, 13, 55, 83
10, 11136, Note_on_c, 13, 53, 100
10, 11184, Note_off_c, 13, 53, 75
10, 11232, Note_on_c, 13, 50, 100
10, 11280, Note_off_c, 13, 50, 78
10, 11328, Note_on_c, 13, 47, 100
10, 11376, Note_off_c, 13, 47, 4
10, 11424, Note_on_c, 13, 43, 100
10, 11472, Note_off_c, 13, 43, 41
10, 11520, Note_on_c, 13, 48, 120
10, 11568, Note_off_c, 13, 48, 67
10, 11616, Note_on_c, 13, 64, 100
10, 11655, Note_off_c, 13, 64, 60
10, 11712, Note_on_c, 13, 60, 100
10, 11760, Note_off_c, 13, 60, 55
10, 11808, Note_on_c, 13, 56, 100
10, 11856, Note_off_c, 13, 56, 42
10, 11904, Note_on_c, 13, 57, 100
10, 11952, Note_off_c, 13, 57, 68
10, 12000, Note_on_c, 13, 60, 100
10, 12048, Note_off_c, 13, 60, 37
10, 12096, Note_on_c, 13, 57, 100
10, 12144, Note_off_c, 13, 57, 81
10, 12192, Note_on_c, 13, 52, 100
10, 12240, Note_off_c, 13, 52, 71
10, 12288, Note_on_c, 13, 53, 100
10, 12336, Note_off_c, 13, 53, 71
10, 12384, Note_on_c, 13, 55, 100
10, 12432, Note_off_c, 13, 55, 73
10, 12480, Note_on_c, 13, 57, 100
10, 12528, Note_off_c, 13, 57, 70
10, 12576, Note_on_c, 13, 52, 100
10, 12624, Note_off_c, 13, 52, 58
10, 12672, Note_on_c, 13, 53, 100
10, 12720, Note_off_c, 13, 53, 81
10, 12768, Note_on_c, 13, 53, 100
10, 12816, Note_off_c, 13, 53, 60
10, 12864, Note_on_c, 13, 54, 100
10, 12912, Note_off_c, 13, 54, 63
10, 12960, Note_on_c, 13, 54, 100
10, 13032, Note_off_c, 13, 54, 52
10, 13056, Note_on_c, 13, 55, 104
10, 13104, Note_off_c, 13, 55, 64
10, 13152, Note_on_c, 13, 59, 100
10, 13200, Note_off_c, 13, 59, 59
10, 13248, Note_on_c, 13, 62, 120
10, 13296, Note_off_c, 13, 62, 80
10, 13344, Note_on_c, 13, 55, 100
10, 13392, Note_off_c, 13, 55, 65
10, 13440, Note_on_c, 13, 60, 100
10, 13488, Note_off_c, 13, 60, 7
10, 13536, Note_on_c, 13, 55, 100
10, 13584, Note_off_c, 13, 55, 75
10, 13632, Note_on_c, 13, 52, 100
10, 13704, Note_off_c, 13, 52, 1
10, 13728, Note_on_c, 13, 48, 100
10, 13776, Note_off_c, 13, 48, 62
10, 13824, Note_on_c, 13, 55, 100
10, 13896, Note_off_c, 13, 55, 32
10, 13920, Note_on_c, 13, 59, 100
10, 13968, Note_off_c, 13, 59, 54
10, 14016, Note_on_c, 13, 62, 120
10, 14088, Note_off_c, 13, 62, 78
10, 14112, Note_on_c, 13, 55, 100
10, 14160, Note_off_c, 13, 55, 59
10, 14208, Note_on_c, 13, 60, 100
10, 14232, Note_off_c, 13, 60, 48
10, 14304, Note_on_c, 13, 55, 100
10, 14352, Note_off_c, 13, 55, 68
10, 14400, Note_on_c, 13, 52, 100
10, 14448, Note_off_c, 13, 52, 40
10, 14496, Note_on_c, 13, 48, 100
10, 14544, Note_off_c, 13, 48, 52
10, 14592, Note_on_c, 13, 43, 100
10, 14691, Note_off_c, 13, 43, 56
10, 14784, Note_on_c, 13, 55, 100
10, 14878, Note_off_c, 13, 55, 71
10, 14976, Note_on_c, 13, 43, 100
10, 15167, Note_off_c, 13, 43, 85
10, 16896, Note_on_c, 13, 60, 44
10, 17280, Note_off_c, 13, 60, 13
10, 17280, Note_on_c, 13, 64, 68
10, 17657, Note_off_c, 13, 64, 44
10, 17664, Note_on_c, 13, 62, 70
10, 18040, Note_off_c, 13, 62, 70
10, 18048, Note_on_c, 13, 55, 72
10, 18432, Note_on_c, 13, 60, 50
10, 18453, Note_off_c, 13, 55, 29
10, 18816, Note_on_c, 13, 64, 68
10, 18821, Note_off_c, 13, 60, 46
10, 19200, Note_on_c, 13, 62, 68
10, 19204, Note_off_c, 13, 64, 59
10, 19579, Note_off_c, 13, 62, 68
10, 19584, Note_on_c, 13, 55, 68
10, 19968, Note_on_c, 13, 60, 43
10, 20005, Note_off_c, 13, 55, 26
10, 20352, Note_on_c, 13, 58, 40
10, 20376, Note_off_c, 13, 60, 33
10, 20736, Note_on_c, 13, 57, 74
10, 20739, Note_off_c, 13, 58, 52
10, 21120, Note_off_c, 13, 57, 77
10, 21120, Note_on_c, 13, 53, 47
10, 21490, Note_off_c, 13, 53, 70
10, 21504, Note_on_c, 13, 52, 47
10, 21888, Note_on_c, 13, 64, 56
10, 21890, Note_off_c, 13, 52, 47
10, 22259, Note_off_c, 13, 64, 35
10, 22272, Note_on_c, 13, 65, 68
10, 22385, Note_off_c, 13, 65, 78
10, 23808, Note_on_c, 13, 55, 100
10, 23856, Note_off_c, 13, 55, 69
10, 23904, Note_on_c, 13, 55, 100
10, 23952, Note_off_c, 13, 55, 78
10, 24000, Note_on_c, 13, 55, 100
10, 24048, Note_off_c, 13, 55, 81
10, 24096, Note_on_c, 13, 55, 100
10, 24144, Note_off_c, 13, 55, 86
10, 24192, Note_on_c, 13, 55, 100
10, 24240, Note_off_c, 13, 55, 87
10, 24288, Note_on_c, 13, 55, 100
10, 24336, Note_off_c, 13, 55, 78
10, 24384, Note_on_c, 13, 55, 100
10, 24432, Note_off_c, 13, 55, 64
10, 24480, Note_on_c, 13, 55, 100
10, 24528, Note_off_c, 13, 55, 66
10, 24576, Note_on_c, 13, 55, 100
10, 24624, Note_off_c, 13, 55, 76
10, 24672, Note_on_c, 13, 55, 100
10, 24720, Note_off_c, 13, 55, 68
10, 24768, Note_on_c, 13, 55, 100
10, 24816, Note_off_c, 13, 55, 82
10, 24864, Note_on_c, 13, 55, 100
10, 24912, Note_off_c, 13, 55, 69
10, 24960, Note_on_c, 13, 55, 100
10, 25008, Note_off_c, 13, 55, 83
10, 25056, Note_on_c, 13, 55, 100
10, 25104, Note_off_c, 13, 55, 78
10, 25152, Note_on_c, 13, 55, 100
10, 25200, Note_off_c, 13, 55, 86
10, 25248, Note_on_c, 13, 55, 100
10, 25296, Note_off_c, 13, 55, 91
10, 25344, Note_on_c, 13, 48, 127
10, 25499, Note_off_c, 13, 48, 52
10, 28416, Note_on_c, 13, 52, 86
10, 28439, Note_off_c, 13, 52, 56
10, 28512, Note_on_c, 13, 52, 78
10, 28534, Note_off_c, 13, 52, 72
10, 28608, Note_on_c, 13, 52, 92
10, 28628, Note_off_c, 13, 52, 74
10, 28704, Note_on_c, 13, 52, 86
10, 28728, Note_off_c, 13, 52, 67
10, 28800, Note_on_c, 13, 53, 109
10, 28822, Note_off_c, 13, 53, 82
10, 28896, Note_on_c, 13, 53, 98
10, 28915, Note_off_c, 13, 53, 79
10, 28992, Note_on_c, 13, 53, 109
10, 29014, Note_off_c, 13, 53, 80
10, 29088, Note_on_c, 13, 53, 104
10, 29111, Note_off_c, 13, 53, 78
10, 29184, Note_on_c, 13, 55, 74
10, 29184, Note_on_c, 13, 57, 86
10, 29192, Note_off_c, 13, 57, 82
10, 29196, Note_off_c, 13, 55, 81
10, 29280, Note_on_c, 13, 55, 98
10, 29299, Note_off_c, 13, 55, 81
10, 29376, Note_on_c, 13, 55, 104
10, 29395, Note_off_c, 13, 55, 85
10, 29472, Note_on_c, 13, 55, 109
10, 29491, Note_off_c, 13, 55, 78
10, 29568, Note_on_c, 13, 55, 109
10, 29588, Note_off_c, 13, 55, 87
10, 29664, Note_on_c, 13, 55, 121
10, 29686, Note_off_c, 13, 55, 81
10, 29760, Note_on_c, 13, 43, 98
10, 29793, Note_off_c, 13, 43, 60
10, 29856, Note_on_c, 13, 43, 109
10, 29883, Note_off_c, 13, 43, 90
10, 29952, Note_on_c, 13, 48, 70
10, 29987, Note_off_c, 13, 48, 48
10, 30048, Note_on_c, 13, 52, 80
10, 30083, Note_off_c, 13, 52, 62
10, 30144, Note_on_c, 13, 55, 98
10, 30180, Note_off_c, 13, 55, 42
10, 30240, Note_on_c, 13, 52, 68
10, 30270, Note_off_c, 13, 52, 55
10, 30336, Note_on_c, 13, 48, 72
10, 30367, Note_off_c, 13, 48, 58
10, 30432, Note_on_c, 13, 52, 76
10, 30459, Note_off_c, 13, 52, 59
10, 30528, Note_on_c, 13, 55, 92
10, 30556, Note_off_c, 13, 55, 74
10, 30624, Note_on_c, 13, 52, 72
10, 30646, Note_off_c, 13, 52, 64
10, 30720, Note_on_c, 13, 48, 80
10, 30754, Note_off_c, 13, 48, 53
10, 30816, Note_on_c, 13, 52, 70
10, 30843, Note_off_c, 13, 52, 45
10, 30912, Note_on_c, 13, 55, 86
10, 30942, Note_off_c, 13, 55, 67
10, 31008, Note_on_c, 13, 52, 74
10, 31033, Note_off_c, 13, 52, 60
10, 31104, Note_on_c, 13, 48, 72
10, 31136, Note_off_c, 13, 48, 64
10, 31200, Note_on_c, 13, 52, 68
10, 31225, Note_off_c, 13, 52, 53
10, 31296, Note_on_c, 13, 55, 86
10, 31330, Note_off_c, 13, 55, 59
10, 31392, Note_on_c, 13, 52, 72
10, 31422, Note_off_c, 13, 52, 53
10, 31488, Note_on_c, 13, 48, 68
10, 31528, Note_off_c, 13, 48, 58
10, 31680, Note_on_c, 13, 60, 48
10, 31872, Note_on_c, 13, 59, 52
10, 31884, Note_off_c, 13, 60, 16
10, 32064, Note_on_c, 13, 57, 54
10, 32077, Note_off_c, 13, 59, 32
10, 32203, Note_off_c, 13, 57, 26
10, 32256, Note_on_c, 13, 55, 104
10, 32281, Note_off_c, 13, 55, 87
10, 32448, Note_on_c, 13, 53, 62
10, 32640, Note_on_c, 13, 52, 52
10, 32688, Note_off_c, 13, 53, 72
10, 32809, Note_off_c, 13, 52, 52
10, 32832, Note_on_c, 13, 50, 58
10, 32955, Note_off_c, 13, 50, 3
10, 33024, Note_on_c, 13, 48, 72
10, 33216, Note_off_c, 13, 48, 7
10, 33312, Note_on_c, 13, 55, 58
10, 33360, Note_off_c, 13, 55, 76
10, 33408, Note_on_c, 13, 52, 54
10, 33456, Note_off_c, 13, 52, 65
10, 33504, Note_on_c, 13, 48, 52
10, 33552, Note_off_c, 13, 48, 39
10, 33600, Note_on_c, 13, 52, 58
10, 33648, Note_off_c, 13, 52, 48
10, 33696, Note_on_c, 13, 55, 58
10, 33744, Note_off_c, 13, 55, 56
10, 33792, Note_on_c, 13, 60, 72
10, 33984, Note_off_c, 13, 60, 7
10, 34080, Note_on_c, 13, 55, 58
10, 34128, Note_off_c, 13, 55, 76
10, 34176, Note_on_c, 13, 52, 54
10, 34224, Note_off_c, 13, 52, 65
10, 34272, Note_on_c, 13, 48, 52
10, 34320, Note_off_c, 13, 48, 39
10, 34368, Note_on_c, 13, 52, 58
10, 34416, Note_off_c, 13, 52, 48
10, 34464, Note_on_c, 13, 55, 58
10, 34512, Note_off_c, 13, 55, 56
10, 34560, Note_on_c, 13, 60, 72
10, 34656, Note_off_c, 13, 60, 44
10, 34752, Note_on_c, 13, 48, 40
10, 34927, Note_off_c, 13, 48, 48
10, 34944, Note_on_c, 13, 47, 40
10, 35136, Note_on_c, 13, 48, 44
10, 35144, Note_off_c, 13, 47, 76
10, 35324, Note_off_c, 13, 48, 66
10, 35328, Note_on_c, 13, 50, 66
10, 35437, Note_off_c, 13, 50, 70
10, 35520, Note_on_c, 13, 50, 48
10, 35712, Note_on_c, 13, 49, 49
10, 35717, Note_off_c, 13, 50, 55
10, 35875, Note_off_c, 13, 49, 12
10, 35904, Note_on_c, 13, 50, 44
10, 36096, Note_off_c, 13, 50, 10
10, 36096, Note_on_c, 13, 52, 62
10, 36216, Note_off_c, 13, 52, 47
10, 36288, Note_on_c, 13, 52, 44
10, 36480, Note_on_c, 13, 51, 47
10, 36481, Note_off_c, 13, 52, 54
10, 36639, Note_off_c, 13, 51, 31
10, 36672, Note_on_c, 13, 52, 46
10, 36864, Note_on_c, 13, 53, 46
10, 36889, Note_off_c, 13, 52, 72
10, 37056, Note_on_c, 13, 55, 48
10, 37077, Note_off_c, 13, 53, 83
10, 37248, Note_on_c, 13, 57, 49
10, 37273, Note_off_c, 13, 55, 95
10, 37440, Note_on_c, 13, 59, 56
10, 37459, Note_off_c, 13, 57, 75
10, 37597, Note_off_c, 13, 59, 58
10, 37632, Note_on_c, 13, 60, 100
10, 37776, Note_off_c, 13, 60, 59
10, 40704, Note_on_c, 13, 48, 56
10, 40841, Note_off_c, 13, 48, 56
10, 41481, Note_on_c, 13, 48, 58
10, 41621, Note_off_c, 13, 48, 66
10, 42251, Note_on_c, 13, 48, 50
10, 42419, Note_off_c, 13, 48, 37
10, 43013, Note_on_c, 13, 53, 40
10, 43388, Note_on_c, 13, 55, 54
10, 43392, Note_off_c, 13, 53, 50
10, 43776, Note_on_c, 13, 48, 40
10, 43791, Note_off_c, 13, 55, 5
10, 43920, Note_off_c, 13, 48, 25
10, 44544, Note_on_c, 13, 48, 31
10, 44712, Note_off_c, 13, 48, 59
10, 45311, Note_on_c, 13, 48, 40
10, 45492, Note_off_c, 13, 48, 31
10, 46076, Note_on_c, 13, 55, 42
10, 46495, Note_off_c, 13, 55, 83
10, 46503, Note_on_c, 13, 43, 37
10, 46854, Note_off_c, 13, 43, 75
10, 46869, Note_on_c, 13, 48, 33
10, 47036, Note_off_c, 13, 48, 67
10, 50784, Note_on_c, 13, 55, 124
10, 50812, Note_off_c, 13, 55, 93
10, 50880, Note_on_c, 13, 59, 124
10, 50907, Note_off_c, 13, 59, 76
10, 50976, Note_on_c, 13, 55, 125
10, 51024, Note_off_c, 13, 55, 92
10, 51072, Note_on_c, 13, 50, 124
10, 51099, Note_off_c, 13, 50, 95
10, 51168, Note_on_c, 13, 55, 124
10, 51199, Note_off_c, 13, 55, 82
10, 51264, Note_on_c, 13, 47, 124
10, 51288, Note_off_c, 13, 47, 90
10, 51360, Note_on_c, 13, 50, 124
10, 51385, Note_off_c, 13, 50, 95
10, 51456, Note_on_c, 13, 43, 124
10, 51658, Note_off_c, 13, 43, 102
10, 60672, Program_c, 13, 45
10, 60672, Note_on_c, 13, 43, 90
10, 60768, Note_off_c, 13, 43, 83
10, 60864, Note_on_c, 13, 55, 90
10, 60960, Note_off_c, 13, 55, 46
10, 61056, Note_on_c, 13, 62, 90
10, 61152, Note_off_c, 13, 62, 81
10, 61248, Note_on_c, 13, 59, 90
10, 61344, Note_off_c, 13, 59, 59
10, 61440, Note_on_c, 13, 55, 90
10, 61536, Note_off_c, 13, 55, 89
10, 61632, Note_on_c, 13, 59, 90
10, 61728, Note_off_c, 13, 59, 35
10, 61824, Note_on_c, 13, 55, 90
10, 61920, Note_off_c, 13, 55, 92
10, 62016, Note_on_c, 13, 43, 90
10, 62112, Note_off_c, 13, 43, 103
10, 62208, Note_on_c, 13, 50, 90
10, 62304, Note_off_c, 13, 50, 75
10, 63744, Note_on_c, 13, 43, 90
10, 63840, Note_off_c, 13, 43, 83
10, 63936, Note_on_c, 13, 55, 90
10, 64032, Note_off_c, 13, 55, 81
10, 64128, Note_on_c, 13, 62, 90
10, 64224, Note_off_c, 13, 62, 90
10, 64320, Note_on_c, 13, 59, 90
10, 64416, Note_off_c, 13, 59, 89
10, 64512, Note_on_c, 13, 55, 90
10, 64608, Note_off_c, 13, 55, 82
10, 64704, Note_on_c, 13, 59, 90
10, 64800, Note_off_c, 13, 59, 76
10, 64896, Note_on_c, 13, 55, 90
10, 64992, Note_off_c, 13, 55, 87
10, 65088, Note_on_c, 13, 43, 90
10, 65184, Note_off_c, 13, 43, 102
10, 65200, Program_c, 13, 48
10, 65280, Note_on_c, 13, 50, 100
10, 65328, Note_off_c, 13, 50, 70
10, 65376, Note_on_c, 13, 54, 100
10, 65424, Note_off_c, 13, 54, 61
10, 65472, Note_on_c, 13, 57, 100
10, 65520, Note_off_c, 13, 57, 76
10, 65568, Note_on_c, 13, 50, 100
10, 65616, Note_off_c, 13, 50, 70
10, 65664, Note_on_c, 13, 55, 100
10, 65712, Note_off_c, 13, 55, 85
10, 65760, Note_on_c, 13, 50, 100
10, 65808, Note_off_c, 13, 50, 85
10, 65856, Note_on_c, 13, 47, 100
10, 65904, Note_off_c, 13, 47, 30
10, 65952, Note_on_c, 13, 43, 100
10, 65984, Note_off_c, 13, 43, 102
10, 66048, Note_on_c, 13, 50, 100
10, 66096, Note_off_c, 13, 50, 67
10, 66144, Note_on_c, 13, 54, 100
10, 66192, Note_off_c, 13, 54, 58
10, 66240, Note_on_c, 13, 57, 100
10, 66288, Note_off_c, 13, 57, 85
10, 66336, Note_on_c, 13, 50, 100
10, 66400, Note_off_c, 13, 50, 57
10, 66432, Note_on_c, 13, 55, 100
10, 66496, Note_off_c, 13, 55, 75
10, 66528, Note_on_c, 13, 62, 100
10, 66592, Note_off_c, 13, 62, 59
10, 66624, Note_on_c, 13, 59, 100
10, 66672, Note_off_c, 13, 59, 74
10, 66720, Note_on_c, 13, 55, 100
10, 66768, Note_off_c, 13, 55, 48
10, 66816, Note_on_c, 13, 50, 100
10, 66976, Note_off_c, 13, 50, 46
10, 67008, Note_on_c, 13, 62, 100
10, 67168, Note_off_c, 13, 62, 70
10, 67200, Note_on_c, 13, 50, 100
10, 67381, Note_off_c, 13, 50, 73
10, 69120, Program_c, 13, 45
10, 69120, Note_on_c, 13, 55, 70
10, 69149, Note_off_c, 13, 55, 78
10, 69504, Note_on_c, 13, 59, 72
10, 69546, Note_off_c, 13, 59, 75
10, 69888, Note_on_c, 13, 57, 76
10, 69942, Note_off_c, 13, 57, 76
10, 70272, Note_on_c, 13, 50, 78
10, 70358, Note_off_c, 13, 50, 67
10, 70656, Note_on_c, 13, 55, 74
10, 70745, Note_off_c, 13, 55, 78
10, 71040, Note_on_c, 13, 59, 68
10, 71134, Note_off_c, 13, 59, 59
10, 71424, Note_on_c, 13, 57, 80
10, 71523, Note_off_c, 13, 57, 78
10, 71808, Note_on_c, 13, 50, 70
10, 71915, Note_off_c, 13, 50, 55
10, 72192, Note_on_c, 13, 55, 74
10, 72272, Note_off_c, 13, 55, 54
10, 72576, Note_on_c, 13, 55, 72
10, 72690, Note_off_c, 13, 55, 2
10, 72960, Note_on_c, 13, 55, 76
10, 73072, Note_off_c, 13, 55, 61
10, 73344, Note_on_c, 13, 55, 76
10, 73465, Note_off_c, 13, 55, 66
10, 73728, Note_on_c, 13, 55, 66
10, 73839, Note_off_c, 13, 55, 58
10, 74112, Note_on_c, 13, 55, 78
10, 74171, Note_off_c, 13, 55, 47
10, 74304, Program_c, 13, 48
10, 76032, Note_on_c, 13, 57, 121
10, 76174, Note_off_c, 13, 57, 83
10, 76416, Note_on_c, 13, 50, 121
10, 76556, Note_off_c, 13, 50, 87
10, 76800, Note_on_c, 13, 55, 121
10, 76980, Note_off_c, 13, 55, 97
10, 77184, Note_on_c, 13, 52, 121
10, 77375, Note_off_c, 13, 52, 82
10, 77568, Note_on_c, 13, 48, 92
10, 77943, Note_off_c, 13, 48, 62
10, 77952, Note_on_c, 13, 50, 80
10, 78152, Note_off_c, 13, 50, 81
10, 78336, Note_on_c, 13, 55, 109
10, 78365, Note_off_c, 13, 55, 94
10, 78432, Note_on_c, 13, 57, 86
10, 78459, Note_off_c, 13, 57, 78
10, 78528, Note_on_c, 13, 59, 76
10, 78552, Note_off_c, 13, 59, 70
10, 78624, Note_on_c, 13, 60, 58
10, 78649, Note_off_c, 13, 60, 46
10, 78720, Note_on_c, 13, 62, 86
10, 78884, Note_off_c, 13, 62, 92
10, 89088, Note_on_c, 13, 47, 52
10, 89472, Note_on_c, 13, 48, 62
10, 89488, Note_off_c, 13, 47, 59
10, 89813, Note_off_c, 13, 48, 27
10, 89856, Note_on_c, 13, 50, 74
10, 89986, Note_off_c, 13, 50, 60
10, 90240, Note_on_c, 13, 50, 66
10, 90436, Note_off_c, 13, 50, 56
10, 90624, Note_on_c, 13, 50, 76
10, 90653, Note_off_c, 13, 50, 77
10, 90720, Note_on_c, 13, 50, 76
10, 90743, Note_off_c, 13, 50, 79
10, 90816, Note_on_c, 13, 50, 86
10, 90840, Note_off_c, 13, 50, 83
10, 90912, Note_on_c, 13, 50, 86
10, 90939, Note_off_c, 13, 50, 83
10, 91008, Note_on_c, 13, 50, 80
10, 91028, Note_off_c, 13, 50, 75
10, 91104, Note_on_c, 13, 50, 92
10, 91128, Note_off_c, 13, 50, 88
10, 91200, Note_on_c, 13, 50, 92
10, 91221, Note_off_c, 13, 50, 77
10, 91296, Note_on_c, 13, 50, 92
10, 91314, Note_off_c, 13, 50, 77
10, 91392, Note_on_c, 13, 55, 100
10, 91406, Note_off_c, 13, 55, 66
10, 91488, Note_on_c, 13, 55, 100
10, 91505, Note_off_c, 13, 55, 65
10, 91584, Note_on_c, 13, 55, 100
10, 91599, Note_off_c, 13, 55, 66
10, 91680, Note_on_c, 13, 55, 100
10, 91693, Note_off_c, 13, 55, 89
10, 91776, Note_on_c, 13, 55, 100
10, 91793, Note_off_c, 13, 55, 56
10, 91872, Note_on_c, 13, 55, 100
10, 91885, Note_off_c, 13, 55, 84
10, 91968, Note_on_c, 13, 55, 100
10, 91986, Note_off_c, 13, 55, 59
10, 92064, Note_on_c, 13, 55, 100
10, 92077, Note_off_c, 13, 55, 83
10, 92160, Note_on_c, 13, 55, 100
10, 92184, Note_off_c, 13, 55, 55
10, 92256, Note_on_c, 13, 55, 100
10, 92280, Note_off_c, 13, 55, 85
10, 92352, Note_on_c, 13, 55, 100
10, 92376, Note_off_c, 13, 55, 83
10, 92448, Note_on_c, 13, 55, 100
10, 92472, Note_off_c, 13, 55, 80
10, 92544, Note_on_c, 13, 55, 100
10, 92568, Note_off_c, 13, 55, 72
10, 92640, Note_on_c, 13, 55, 100
10, 92664, Note_off_c, 13, 55, 93
10, 92736, Note_on_c, 13, 55, 100
10, 92760, Note_off_c, 13, 55, 85
10, 92832, Note_on_c, 13, 55, 100
10, 92856, Note_off_c, 13, 55, 80
10, 92928, Note_on_c, 13, 55, 64
10, 92952, Note_off_c, 13, 55, 55
10, 93024, Note_on_c, 13, 55, 64
10, 93048, Note_off_c, 13, 55, 65
10, 93120, Note_on_c, 13, 55, 64
10, 93144, Note_off_c, 13, 55, 66
10, 93216, Note_on_c, 13, 55, 64
10, 93240, Note_off_c, 13, 55, 64
10, 93312, Note_on_c, 13, 55, 64
10, 93336, Note_off_c, 13, 55, 68
10, 93408, Note_on_c, 13, 55, 64
10, 93432, Note_off_c, 13, 55, 71
10, 93504, Note_on_c, 13, 55, 64
10, 93528, Note_off_c, 13, 55, 72
10, 93600, Note_on_c, 13, 55, 64
10, 93624, Note_off_c, 13, 55, 68
10, 93696, Note_on_c, 13, 55, 64
10, 93720, Note_off_c, 13, 55, 60
10, 93792, Note_on_c, 13, 55, 64
10, 93816, Note_off_c, 13, 55, 59
10, 93888, Note_on_c, 13, 55, 64
10, 93912, Note_off_c, 13, 55, 56
10, 93984, Note_on_c, 13, 55, 64
10, 94008, Note_off_c, 13, 55, 76
10, 94080, Note_on_c, 13, 55, 64
10, 94104, Note_off_c, 13, 55, 69
10, 94176, Note_on_c, 13, 55, 64
10, 94200, Note_off_c, 13, 55, 94
10, 94272, Note_on_c, 13, 55, 64
10, 94296, Note_off_c, 13, 55, 94
10, 94368, Note_on_c, 13, 55, 64
10, 94392, Note_off_c, 13, 55, 79
10, 94464, Note_on_c, 13, 54, 72
10, 94512, Note_off_c, 13, 54, 74
10, 94560, Note_on_c, 13, 57, 86
10, 94584, Note_off_c, 13, 57, 71
10, 94656, Note_on_c, 13, 54, 70
10, 94680, Note_off_c, 13, 54, 71
10, 94752, Note_on_c, 13, 50, 70
10, 94800, Note_off_c, 13, 50, 76
10, 94848, Note_on_c, 13, 54, 76
10, 94896, Note_off_c, 13, 54, 60
10, 94944, Note_on_c, 13, 57, 104
10, 94992, Note_off_c, 13, 57, 58
10, 95040, Note_on_c, 13, 54, 72
10, 95088, Note_off_c, 13, 54, 62
10, 95136, Note_on_c, 13, 50, 76
10, 95184, Note_off_c, 13, 50, 76
10, 95232, Note_on_c, 13, 55, 109
10, 95256, Note_off_c, 13, 55, 70
10, 95328, Note_on_c, 13, 59, 68
10, 95376, Note_off_c, 13, 59, 39
10, 95424, Note_on_c, 13, 55, 80
10, 95448, Note_off_c, 13, 55, 80
10, 95520, Note_on_c, 13, 50, 66
10, 95568, Note_off_c, 13, 50, 71
10, 95616, Note_on_c, 13, 47, 62
10, 95616, Note_on_c, 13, 48, 52
10, 95640, Note_off_c, 13, 47, 42
10, 95640, Note_off_c, 13, 48, 23
10, 95712, Note_on_c, 13, 50, 72
10, 95760, Note_off_c, 13, 50, 54
10, 95808, Note_on_c, 13, 47, 70
10, 95856, Note_off_c, 13, 47, 8
10, 95904, Note_on_c, 13, 43, 60
10, 95952, Note_off_c, 13, 43, 84
10, 96000, Note_on_c, 13, 48, 86
10, 96033, Note_off_c, 13, 48, 70
10, 96096, Note_on_c, 13, 48, 40
10, 96126, Note_off_c, 13, 48, 61
10, 96192, Note_on_c, 13, 48, 70
10, 96222, Note_off_c, 13, 48, 60
10, 96288, Note_on_c, 13, 48, 58
10, 96321, Note_off_c, 13, 48, 57
10, 96384, Note_on_c, 13, 50, 92
10, 96419, Note_off_c, 13, 50, 80
10, 96480, Note_on_c, 13, 50, 70
10, 96511, Note_off_c, 13, 50, 79
10, 96576, Note_on_c, 13, 50, 78
10, 96612, Note_off_c, 13, 50, 76
10, 96672, Note_on_c, 13, 50, 78
10, 96708, Note_off_c, 13, 50, 58
10, 96768, Note_on_c, 13, 47, 76
10, 96796, Note_off_c, 13, 47, 81
10, 96864, Note_on_c, 13, 47, 64
10, 96893, Note_off_c, 13, 47, 75
10, 96960, Note_on_c, 13, 47, 74
10, 96986, Note_off_c, 13, 47, 74
10, 97056, Note_on_c, 13, 47, 78
10, 97083, Note_off_c, 13, 47, 71
10, 97152, Note_on_c, 13, 48, 78
10, 97180, Note_off_c, 13, 48, 63
10, 97248, Note_on_c, 13, 48, 68
10, 97275, Note_off_c, 13, 48, 66
10, 97344, Note_on_c, 13, 48, 68
10, 97369, Note_off_c, 13, 48, 64
10, 97440, Note_on_c, 13, 48, 43
10, 97461, Note_off_c, 13, 48, 38
10, 97536, Note_on_c, 13, 50, 98
10, 97565, Note_off_c, 13, 50, 80
10, 97632, Note_on_c, 13, 50, 76
10, 97663, Note_off_c, 13, 50, 70
10, 97728, Note_on_c, 13, 50, 86
10, 97762, Note_off_c, 13, 50, 78
10, 97824, Note_on_c, 13, 50, 58
10, 97848, Note_off_c, 13, 50, 64
10, 97920, Note_on_c, 13, 50, 98
10, 97952, Note_off_c, 13, 50, 86
10, 98016, Note_on_c, 13, 50, 78
10, 98044, Note_off_c, 13, 50, 81
10, 98112, Note_on_c, 13, 50, 92
10, 98139, Note_off_c, 13, 50, 81
10, 98208, Note_on_c, 13, 50, 92
10, 98234, Note_off_c, 13, 50, 85
10, 98304, Note_on_c, 13, 50, 98
10, 98330, Note_off_c, 13, 50, 83
10, 98400, Note_on_c, 13, 50, 80
10, 98424, Note_off_c, 13, 50, 80
10, 98496, Note_on_c, 13, 50, 92
10, 98519, Note_off_c, 13, 50, 82
10, 98592, Note_on_c, 13, 50, 92
10, 98618, Note_off_c, 13, 50, 83
10, 98688, Note_on_c, 13, 50, 86
10, 98714, Note_off_c, 13, 50, 80
10, 98784, Note_on_c, 13, 50, 98
10, 98815, Note_off_c, 13, 50, 71
10, 98880, Note_on_c, 13, 50, 86
10, 98916, Note_off_c, 13, 50, 76
10, 99072, Note_on_c, 13, 43, 89
10, 99182, Note_off_c, 13, 43, 83
10, 99264, Note_on_c, 13, 55, 54
10, 99456, Note_on_c, 13, 54, 37
10, 99498, Note_off_c, 13, 55, 44
10, 99646, Note_off_c, 13, 54, 43
10, 99648, Note_on_c, 13, 52, 41
10, 99717, Note_off_c, 13, 52, 52
10, 99840, Note_on_c, 13, 51, 86
10, 99912, Note_off_c, 13, 51, 60
10, 100032, Note_on_c, 13, 52, 48
10, 100224, Note_on_c, 13, 50, 37
10, 100245, Note_off_c, 13, 52, 48
10, 100402, Note_off_c, 13, 50, 81
10, 100416, Note_on_c, 13, 48, 35
10, 100579, Note_off_c, 13, 48, 18
10, 100608, Note_on_c, 13, 47, 86
10, 100698, Note_off_c, 13, 47, 63
10, 100800, Note_on_c, 13, 48, 44
10, 100992, Note_on_c, 13, 47, 48
10, 101004, Note_off_c, 13, 48, 56
10, 101141, Note_off_c, 13, 47, 68
10, 101184, Note_on_c, 13, 45, 72
10, 101282, Note_off_c, 13, 45, 50
10, 101376, Note_on_c, 13, 44, 54
10, 101434, Note_off_c, 13, 44, 61
10, 101760, Note_on_c, 13, 44, 46
10, 101828, Note_off_c, 13, 44, 57
10, 102144, Note_on_c, 13, 45, 58
10, 102203, Note_off_c, 13, 45, 80
10, 102528, Note_on_c, 13, 45, 50
10, 102583, Note_off_c, 13, 45, 68
10, 102912, Note_on_c, 13, 47, 56
10, 102979, Note_off_c, 13, 47, 62
10, 103296, Note_on_c, 13, 47, 38
10, 103373, Note_off_c, 13, 47, 29
10, 103680, Note_on_c, 13, 48, 46
10, 103758, Note_off_c, 13, 48, 43
10, 104064, Note_on_c, 13, 48, 30
10, 104162, Note_off_c, 13, 48, 54
10, 104448, Note_on_c, 13, 50, 50
10, 104753, Note_off_c, 13, 50, 53
10, 104832, Note_on_c, 13, 52, 54
10, 104865, Note_off_c, 13, 52, 68
10, 105024, Note_on_c, 13, 52, 52
10, 105064, Note_off_c, 13, 52, 44
10, 105216, Note_on_c, 13, 57, 78
10, 105246, Note_off_c, 13, 57, 76
10, 105408, Note_on_c, 13, 59, 60
10, 105446, Note_off_c, 13, 59, 48
10, 105600, Note_on_c, 13, 60, 48
10, 105892, Note_off_c, 13, 60, 48
10, 105984, Note_on_c, 13, 62, 54
10, 106320, Note_off_c, 13, 62, 46
10, 106368, Note_on_c, 13, 64, 54
10, 106536, Note_off_c, 13, 64, 74
10, 106560, Note_on_c, 13, 52, 46
10, 106704, Note_off_c, 13, 52, 60
10, 106752, Note_on_c, 13, 57, 58
10, 106848, Note_off_c, 13, 57, 83
10, 106944, Note_on_c, 13, 60, 46
10, 107136, Note_on_c, 13, 59, 36
10, 107145, Note_off_c, 13, 60, 34
10, 107328, Note_on_c, 13, 57, 50
10, 107330, Note_off_c, 13, 59, 41
10, 107496, Note_off_c, 13, 57, 52
10, 107520, Note_on_c, 13, 56, 71
10, 107616, Note_off_c, 13, 56, 63
10, 107712, Note_on_c, 13, 57, 31
10, 107904, Note_on_c, 13, 55, 27
10, 107919, Note_off_c, 13, 57, 70
10, 108096, Note_off_c, 13, 55, 52
10, 108096, Note_on_c, 13, 53, 40
10, 108288, Note_off_c, 13, 53, 26
10, 108288, Note_on_c, 13, 52, 66
10, 108384, Note_off_c, 13, 52, 72
10, 108480, Note_on_c, 13, 53, 46
10, 108665, Note_off_c, 13, 53, 65
10, 108672, Note_on_c, 13, 52, 38
10, 108830, Note_off_c, 13, 52, 39
10, 108864, Note_on_c, 13, 50, 44
10, 109056, Note_off_c, 13, 50, 15
10, 109056, Note_on_c, 13, 49, 46
10, 109152, Note_off_c, 13, 49, 65
10, 109440, Note_on_c, 13, 49, 31
10, 109538, Note_off_c, 13, 49, 50
10, 109824, Note_on_c, 13, 50, 34
10, 109940, Note_off_c, 13, 50, 56
10, 110208, Note_on_c, 13, 50, 34
10, 110310, Note_off_c, 13, 50, 62
10, 110592, Note_on_c, 13, 52, 34
10, 110678, Note_off_c, 13, 52, 43
10, 110976, Note_on_c, 13, 52, 34
10, 111043, Note_off_c, 13, 52, 63
10, 111360, Note_on_c, 13, 53, 34
10, 111432, Note_off_c, 13, 53, 55
10, 111744, Note_on_c, 13, 53, 34
10, 111808, Note_off_c, 13, 53, 54
10, 112128, Note_on_c, 13, 55, 34
10, 112343, Note_off_c, 13, 55, 63
10, 112512, Note_on_c, 13, 57, 34
10, 112559, Note_off_c, 13, 57, 76
10, 112704, Note_on_c, 13, 57, 34
10, 112742, Note_off_c, 13, 57, 83
10, 112896, Note_on_c, 13, 50, 80
10, 112922, Note_off_c, 13, 50, 80
10, 113088, Note_on_c, 13, 52, 68
10, 113113, Note_off_c, 13, 52, 65
10, 113280, Note_on_c, 13, 53, 68
10, 113443, Note_off_c, 13, 53, 38
10, 113664, Note_on_c, 13, 58, 60
10, 113944, Note_off_c, 13, 58, 5
10, 114048, Note_on_c, 13, 57, 92
10, 114089, Note_off_c, 13, 57, 84
10, 114240, Note_on_c, 13, 45, 86
10, 114265, Note_off_c, 13, 45, 91
10, 114432, Note_on_c, 13, 50, 76
10, 114622, Note_off_c, 13, 50, 71
10, 126720, Note_on_c, 13, 55, 58
10, 126912, Note_off_c, 13, 55, 64
10, 127104, Note_on_c, 13, 55, 104
10, 127253, Note_off_c, 13, 55, 47
10, 127488, Note_on_c, 13, 55, 109
10, 127626, Note_off_c, 13, 55, 85
10, 127872, Note_on_c, 13, 55, 104
10, 128000, Note_off_c, 13, 55, 52
10, 128256, Note_on_c, 13, 55, 109
10, 128421, Note_off_c, 13, 55, 61
10, 128640, Note_on_c, 13, 55, 115
10, 128837, Note_off_c, 13, 55, 85
10, 129024, Note_on_c, 13, 60, 58
10, 129264, Note_off_c, 13, 60, 14
10, 129312, Note_on_c, 13, 55, 80
10, 129360, Note_off_c, 13, 55, 64
10, 129408, Note_on_c, 13, 52, 70
10, 129456, Note_off_c, 13, 52, 62
10, 129504, Note_on_c, 13, 48, 72
10, 129552, Note_off_c, 13, 48, 49
10, 129600, Note_on_c, 13, 52, 76
10, 129648, Note_off_c, 13, 52, 25
10, 129696, Note_on_c, 13, 55, 80
10, 129744, Note_off_c, 13, 55, 55
10, 129792, Note_on_c, 13, 60, 76
10, 130008, Note_off_c, 13, 60, 24
10, 130080, Note_on_c, 13, 55, 80
10, 130128, Note_off_c, 13, 55, 56
10, 130176, Note_on_c, 13, 52, 76
10, 130224, Note_off_c, 13, 52, 48
10, 130272, Note_on_c, 13, 48, 64
10, 130320, Note_off_c, 13, 48, 33
10, 130368, Note_on_c, 13, 52, 78
10, 130440, Note_off_c, 13, 52, 51
10, 130464, Note_on_c, 13, 55, 58
10, 130512, Note_off_c, 13, 55, 46
10, 130560, Note_on_c, 13, 48, 72
10, 130656, Note_off_c, 13, 48, 44
10, 130752, Note_on_c, 13, 48, 40
10, 130927, Note_off_c, 13, 48, 48
10, 130944, Note_on_c, 13, 47, 40
10, 131136, Note_on_c, 13, 48, 44
10, 131144, Note_off_c, 13, 47, 76
10, 131324, Note_off_c, 13, 48, 66
10, 131328, Note_on_c, 13, 50, 66
10, 131437, Note_off_c, 13, 50, 70
10, 131520, Note_on_c, 13, 50, 48
10, 131712, Note_on_c, 13, 49, 49
10, 131717, Note_off_c, 13, 50, 55
10, 131875, Note_off_c, 13, 49, 12
10, 131904, Note_on_c, 13, 50, 44
10, 132096, Note_off_c, 13, 50, 10
10, 132096, Note_on_c, 13, 52, 62
10, 132216, Note_off_c, 13, 52, 47
10, 132288, Note_on_c, 13, 52, 44
10, 132480, Note_on_c, 13, 51, 47
10, 132481, Note_off_c, 13, 52, 54
10, 132639, Note_off_c, 13, 51, 31
10, 132672, Note_on_c, 13, 52, 46
10, 132864, Note_on_c, 13, 53, 46
10, 132889, Note_off_c, 13, 52, 72
10, 133056, Note_on_c, 13, 55, 48
10, 133077, Note_off_c, 13, 53, 83
10, 133248, Note_on_c, 13, 57, 49
10, 133273, Note_off_c, 13, 55, 95
10, 133440, Note_on_c, 13, 59, 56
10, 133459, Note_off_c, 13, 57, 75
10, 133597, Note_off_c, 13, 59, 58
10, 133632, Note_on_c, 13, 60, 72
10, 133824, Note_off_c, 13, 60, 8
10, 143712, Note_on_c, 13, 55, 124
10, 143740, Note_off_c, 13, 55, 93
10, 143808, Note_on_c, 13, 59, 124
10, 143835, Note_off_c, 13, 59, 76
10, 143904, Note_on_c, 13, 55, 125
10, 143952, Note_off_c, 13, 55, 92
10, 144000, Note_on_c, 13, 50, 124
10, 144027, Note_off_c, 13, 50, 95
10, 144096, Note_on_c, 13, 55, 124
10, 144127, Note_off_c, 13, 55, 82
10, 144192, Note_on_c, 13, 47, 124
10, 144216, Note_off_c, 13, 47, 90
10, 144288, Note_on_c, 13, 50, 124
10, 144313, Note_off_c, 13, 50, 95
10, 144384, Note_on_c, 13, 43, 124
10, 144586, Note_off_c, 13, 43, 102
10, 152064, Note_on_c, 13, 53, 56
10, 152627, Note_off_c, 13, 53, 82
10, 152640, Note_on_c, 13, 49, 44
10, 152832, Note_on_c, 13, 50, 58
10, 152848, Note_off_c, 13, 49, 42
10, 153024, Note_on_c, 13, 52, 58
10, 153046, Note_off_c, 13, 50, 74
10, 153216, Note_on_c, 13, 53, 66
10, 153229, Note_off_c, 13, 52, 63
10, 153408, Note_on_c, 13, 54, 34
10, 153433, Note_off_c, 13, 53, 81
10, 153590, Note_off_c, 13, 54, 30
10, 153600, Note_on_c, 13, 55, 78
10, 153682, Note_off_c, 13, 55, 67
10, 155136, Program_c, 13, 45
10, 155136, Note_on_c, 13, 48, 48
10, 155171, Note_off_c, 13, 48, 65
10, 155328, Note_on_c, 13, 60, 50
10, 155366, Note_off_c, 13, 60, 43
10, 155520, Note_on_c, 13, 55, 74
10, 155545, Note_off_c, 13, 55, 89
10, 155712, Note_on_c, 13, 52, 56
10, 155736, Note_off_c, 13, 52, 85
10, 155904, Note_on_c, 13, 48, 44
10, 155933, Note_off_c, 13, 48, 62
10, 156096, Note_on_c, 13, 52, 46
10, 156125, Note_off_c, 13, 52, 62
10, 156288, Note_on_c, 13, 55, 62
10, 156323, Note_off_c, 13, 55, 67
10, 156480, Note_on_c, 13, 60, 42
10, 156509, Note_off_c, 13, 60, 51
10, 156672, Note_on_c, 13, 55, 68
10, 156727, Note_off_c, 13, 55, 85
10, 158208, Note_on_c, 13, 48, 58
10, 158257, Note_off_c, 13, 48, 49
10, 158400, Note_on_c, 13, 60, 58
10, 158437, Note_off_c, 13, 60, 35
10, 158592, Note_on_c, 13, 55, 88
10, 158625, Note_off_c, 13, 55, 75
10, 158784, Note_on_c, 13, 52, 68
10, 158820, Note_off_c, 13, 52, 59
10, 158976, Note_on_c, 13, 48, 68
10, 159019, Note_off_c, 13, 48, 55
10, 159168, Note_on_c, 13, 52, 68
10, 159206, Note_off_c, 13, 52, 64
10, 159360, Note_on_c, 13, 55, 88
10, 159401, Note_off_c, 13, 55, 59
10, 159552, Note_on_c, 13, 60, 54
10, 159594, Note_off_c, 13, 60, 54
10, 159648, Program_c, 13, 48
10, 159744, Note_on_c, 13, 55, 85
10, 159779, Note_off_c, 13, 55, 78
10, 159840, Note_on_c, 13, 59, 85
10, 159875, Note_off_c, 13, 59, 59
10, 159936, Note_on_c, 13, 62, 85
10, 159976, Note_off_c, 13, 62, 74
10, 160032, Note_on_c, 13, 59, 85
10, 160063, Note_off_c, 13, 59, 44
10, 160128, Note_on_c, 13, 60, 85
10, 160182, Note_off_c, 13, 60, 30
10, 160224, Note_on_c, 13, 55, 85
10, 160263, Note_off_c, 13, 55, 70
10, 160320, Note_on_c, 13, 52, 85
10, 160380, Note_off_c, 13, 52, 47
10, 160416, Note_on_c, 13, 48, 85
10, 160443, Note_off_c, 13, 48, 71
10, 160512, Note_on_c, 13, 55, 85
10, 160559, Note_off_c, 13, 55, 46
10, 160608, Note_on_c, 13, 59, 85
10, 160654, Note_off_c, 13, 59, 63
10, 160704, Note_on_c, 13, 62, 85
10, 160745, Note_off_c, 13, 62, 84
10, 160800, Note_on_c, 13, 59, 85
10, 160857, Note_off_c, 13, 59, 39
10, 160896, Note_on_c, 13, 60, 85
10, 160945, Note_off_c, 13, 60, 31
10, 160992, Note_on_c, 13, 55, 85
10, 161023, Note_off_c, 13, 55, 89
10, 161088, Note_on_c, 13, 52, 85
10, 161118, Note_off_c, 13, 52, 80
10, 161184, Note_on_c, 13, 48, 85
10, 161215, Note_off_c, 13, 48, 70
10, 161280, Note_on_c, 13, 43, 85
10, 161365, Note_off_c, 13, 43, 65
10, 161472, Note_on_c, 13, 55, 85
10, 161664, Note_off_c, 13, 55, 56
10, 161664, Note_on_c, 13, 43, 85
10, 161846, Note_off_c, 13, 43, 72
10, 163584, Program_c, 13, 45
10, 163584, Note_on_c, 13, 48, 74
10, 163618, Note_off_c, 13, 48, 66
10, 163968, Note_on_c, 13, 52, 72
10, 164004, Note_off_c, 13, 52, 79
10, 164352, Note_on_c, 13, 50, 66
10, 164387, Note_off_c, 13, 50, 89
10, 164736, Note_on_c, 13, 43, 70
10, 164785, Note_off_c, 13, 43, 66
10, 165120, Note_on_c, 13, 48, 58
10, 165165, Note_off_c, 13, 48, 62
10, 165504, Note_on_c, 13, 52, 58
10, 165544, Note_off_c, 13, 52, 70
10, 165888, Note_on_c, 13, 50, 66
10, 165937, Note_off_c, 13, 50, 75
10, 166272, Note_on_c, 13, 43, 56
10, 166310, Note_off_c, 13, 43, 97
10, 166656, Note_on_c, 13, 48, 62
10, 166698, Note_off_c, 13, 48, 60
10, 167040, Note_on_c, 13, 48, 47
10, 167090, Note_off_c, 13, 48, 62
10, 167424, Note_on_c, 13, 48, 62
10, 167464, Note_off_c, 13, 48, 64
10, 167808, Note_on_c, 13, 48, 72
10, 167841, Note_off_c, 13, 48, 51
10, 168192, Note_on_c, 13, 48, 64
10, 168220, Note_off_c, 13, 48, 64
10, 168576, Note_on_c, 13, 48, 58
10, 168617, Note_off_c, 13, 48, 58
10, 168696, Program_c, 13, 48
10, 170496, Note_on_c, 13, 50, 80
10, 170880, Note_on_c, 13, 55, 80
10, 170939, Note_off_c, 13, 50, 59
10, 171264, Note_off_c, 13, 55, 83
10, 171264, Note_on_c, 13, 48, 84
10, 171648, Note_on_c, 13, 57, 88
10, 171672, Note_off_c, 13, 48, 32
10, 172013, Note_off_c, 13, 57, 78
10, 172032, Note_on_c, 13, 53, 90
10, 172392, Note_off_c, 13, 53, 36
10, 172416, Note_on_c, 13, 55, 82
10, 172776, Note_off_c, 13, 55, 74
10, 172800, Note_on_c, 13, 48, 98
10, 172824, Note_off_c, 13, 48, 70
10, 172896, Note_on_c, 13, 50, 109
10, 172920, Note_off_c, 13, 50, 95
10, 172992, Note_on_c, 13, 52, 86
10, 173016, Note_off_c, 13, 52, 85
10, 173088, Note_on_c, 13, 53, 115
10, 173112, Note_off_c, 13, 53, 89
10, 173184, Note_on_c, 13, 55, 94
10, 173382, Note_off_c, 13, 55, 101
10, 175881, Note_on_c, 13, 48, 39
10, 176073, Note_off_c, 13, 48, 51
10, 184320, Note_on_c, 13, 55, 70
10, 184479, Note_off_c, 13, 55, 52
10, 184704, Note_on_c, 13, 55, 64
10, 184906, Note_off_c, 13, 55, 83
10, 185088, Note_on_c, 13, 55, 78
10, 185118, Note_off_c, 13, 55, 67
10, 185184, Note_on_c, 13, 55, 92
10, 185212, Note_off_c, 13, 55, 81
10, 185280, Note_on_c, 13, 55, 109
10, 185309, Note_off_c, 13, 55, 87
10, 185376, Note_on_c, 13, 55, 104
10, 185404, Note_off_c, 13, 55, 85
10, 185472, Note_on_c, 13, 55, 104
10, 185505, Note_off_c, 13, 55, 84
10, 185568, Note_on_c, 13, 55, 98
10, 185601, Note_off_c, 13, 55, 81
10, 185664, Note_on_c, 13, 55, 86
10, 185698, Note_off_c, 13, 55, 74
10, 185760, Note_on_c, 13, 55, 80
10, 185805, Note_off_c, 13, 55, 46
10, 185856, Note_on_c, 13, 48, 109
10, 186037, Note_off_c, 13, 48, 34
10, 186240, Note_on_c, 13, 60, 104
10, 186420, Note_off_c, 13, 60, 36
10, 186528, Note_on_c, 13, 55, 115
10, 186580, Note_off_c, 13, 55, 85
10, 186624, Note_on_c, 13, 52, 115
10, 186688, Note_off_c, 13, 52, 49
10, 186720, Note_on_c, 13, 48, 76
10, 186766, Note_off_c, 13, 48, 53
10, 186816, Note_on_c, 13, 52, 104
10, 186865, Note_off_c, 13, 52, 70
10, 186912, Note_on_c, 13, 55, 115
10, 186970, Note_off_c, 13, 55, 48
10, 187008, Note_on_c, 13, 60, 104
10, 187207, Note_off_c, 13, 60, 47
10, 187296, Note_on_c, 13, 55, 115
10, 187343, Note_off_c, 13, 55, 75
10, 187392, Note_on_c, 13, 52, 92
10, 187484, Note_off_c, 13, 52, 1
10, 187488, Note_on_c, 13, 48, 74
10, 187532, Note_off_c, 13, 48, 48
10, 187584, Note_on_c, 13, 52, 92
10, 187643, Note_off_c, 13, 52, 49
10, 187680, Note_on_c, 13, 55, 109
10, 187740, Note_off_c, 13, 55, 45
10, 187776, Note_on_c, 13, 60, 76
10, 187811, Note_off_c, 13, 60, 67
10, 187872, Note_on_c, 13, 57, 109
10, 187929, Note_off_c, 13, 57, 75
10, 187968, Note_on_c, 13, 60, 86
10, 188015, Note_off_c, 13, 60, 37
10, 188064, Note_on_c, 13, 64, 104
10, 188089, Note_off_c, 13, 64, 78
10, 188160, Note_on_c, 13, 57, 92
10, 188216, Note_off_c, 13, 57, 30
10, 188256, Note_on_c, 13, 53, 80
10, 188311, Note_off_c, 13, 53, 38
10, 188352, Note_on_c, 13, 57, 115
10, 188416, Note_off_c, 13, 57, 40
10, 188448, Note_on_c, 13, 60, 76
10, 188486, Note_off_c, 13, 60, 52
10, 188544, Note_on_c, 13, 53, 115
10, 188544, Note_on_c, 13, 52, 98
10, 188575, Note_off_c, 13, 52, 32
10, 188583, Note_off_c, 13, 53, 40
10, 188640, Note_on_c, 13, 50, 72
10, 188688, Note_off_c, 13, 50, 68
10, 188736, Note_on_c, 13, 53, 109
10, 188797, Note_off_c, 13, 53, 52
10, 188832, Note_on_c, 13, 59, 80
10, 188862, Note_off_c, 13, 59, 65
10, 188928, Note_on_c, 13, 53, 100
10, 188971, Note_off_c, 13, 53, 81
10, 189024, Note_on_c, 13, 49, 100
10, 189068, Note_off_c, 13, 49, 55
10, 189120, Note_on_c, 13, 50, 100
10, 189161, Note_off_c, 13, 50, 72
10, 189216, Note_on_c, 13, 52, 100
10, 189256, Note_off_c, 13, 52, 68
10, 189312, Note_on_c, 13, 53, 100
10, 189347, Note_off_c, 13, 53, 85
10, 189408, Note_on_c, 13, 53, 100
10, 189440, Note_off_c, 13, 53, 89
10, 189504, Note_on_c, 13, 54, 100
10, 189534, Note_off_c, 13, 54, 66
10, 189600, Note_on_c, 13, 54, 100
10, 189629, Note_off_c, 13, 54, 67
10, 189696, Note_on_c, 13, 55, 100
10, 189730, Note_off_c, 13, 55, 81
10, 189792, Note_on_c, 13, 59, 100
10, 189829, Note_off_c, 13, 59, 76
10, 189888, Note_on_c, 13, 62, 100
10, 189930, Note_off_c, 13, 62, 79
10, 189984, Note_on_c, 13, 59, 100
10, 190015, Note_off_c, 13, 59, 64
10, 190080, Note_on_c, 13, 60, 100
10, 190114, Note_off_c, 13, 60, 71
10, 190176, Note_on_c, 13, 55, 100
10, 190205, Note_off_c, 13, 55, 87
10, 190272, Note_on_c, 13, 52, 100
10, 190302, Note_off_c, 13, 52, 65
10, 190368, Note_on_c, 13, 48, 100
10, 190401, Note_off_c, 13, 48, 77
10, 190464, Note_on_c, 13, 55, 100
10, 190492, Note_off_c, 13, 55, 88
10, 190560, Note_on_c, 13, 59, 100
10, 190592, Note_off_c, 13, 59, 73
10, 190656, Note_on_c, 13, 62, 100
10, 190690, Note_off_c, 13, 62, 67
10, 190752, Note_on_c, 13, 59, 100
10, 190790, Note_off_c, 13, 59, 56
10, 190848, Note_on_c, 13, 60, 100
10, 190871, Note_off_c, 13, 60, 75
10, 190944, Note_on_c, 13, 55, 100
10, 190971, Note_off_c, 13, 55, 92
10, 191040, Note_on_c, 13, 52, 100
10, 191070, Note_off_c, 13, 52, 80
10, 191136, Note_on_c, 13, 48, 100
10, 191164, Note_off_c, 13, 48, 79
10, 191232, Note_on_c, 13, 43, 100
10, 191316, Channel_aftertouch_c, 13, 2
10, 191328, Channel_aftertouch_c, 13, 4
10, 191430, Channel_aftertouch_c, 13, 2
10, 191453, Channel_aftertouch_c, 13, 0
10, 191525, Note_off_c, 13, 43, 89
10, 195072, Note_on_c, 13, 60, 100
10, 195120, Note_off_c, 13, 60, 59
10, 195168, Note_on_c, 13, 60, 100
10, 195216, Note_off_c, 13, 60, 52
10, 195264, Note_on_c, 13, 60, 100
10, 195312, Note_off_c, 13, 60, 64
10, 195360, Note_on_c, 13, 60, 100
10, 195408, Note_off_c, 13, 60, 55
10, 195456, Note_on_c, 13, 60, 100
10, 195504, Note_off_c, 13, 60, 66
10, 195552, Note_on_c, 13, 60, 100
10, 195600, Note_off_c, 13, 60, 66
10, 195648, Note_on_c, 13, 60, 100
10, 195696, Note_off_c, 13, 60, 63
10, 195744, Note_on_c, 13, 60, 100
10, 195792, Note_off_c, 13, 60, 59
10, 195840, Note_on_c, 13, 60, 100
10, 195888, Note_off_c, 13, 60, 66
10, 195936, Note_on_c, 13, 60, 100
10, 195984, Note_off_c, 13, 60, 54
10, 196032, Note_on_c, 13, 60, 100
10, 196080, Note_off_c, 13, 60, 52
10, 196128, Note_on_c, 13, 60, 100
10, 196176, Note_off_c, 13, 60, 47
10, 196224, Note_on_c, 13, 60, 100
10, 196272, Note_off_c, 13, 60, 62
10, 196320, Note_on_c, 13, 60, 100
10, 196368, Note_off_c, 13, 60, 52
10, 196416, Note_on_c, 13, 60, 100
10, 196464, Note_off_c, 13, 60, 54
10, 196512, Note_on_c, 13, 60, 100
10, 196560, Note_off_c, 13, 60, 58
10, 196608, Note_on_c, 13, 60, 74
10, 196680, Note_off_c, 13, 60, 68
10, 196704, Note_on_c, 13, 48, 74
10, 196729, Note_off_c, 13, 48, 60
10, 196800, Note_on_c, 13, 48, 74
10, 196835, Note_off_c, 13, 48, 63
10, 196896, Note_on_c, 13, 48, 74
10, 196922, Note_off_c, 13, 48, 60
10, 196992, Note_on_c, 13, 48, 74
10, 197017, Note_off_c, 13, 48, 51
10, 197088, Note_on_c, 13, 48, 74
10, 197113, Note_off_c, 13, 48, 55
10, 197184, Note_on_c, 13, 48, 74
10, 197207, Note_off_c, 13, 48, 55
10, 197280, Note_on_c, 13, 48, 74
10, 197313, Note_off_c, 13, 48, 28
10, 197376, Note_on_c, 13, 48, 74
10, 197402, Note_off_c, 13, 48, 48
10, 197472, Note_on_c, 13, 48, 74
10, 197497, Note_off_c, 13, 48, 41
10, 197568, Note_on_c, 13, 48, 74
10, 197597, Note_off_c, 13, 48, 54
10, 197664, Note_on_c, 13, 48, 74
10, 197692, Note_off_c, 13, 48, 45
10, 197760, Note_on_c, 13, 48, 74
10, 197779, Note_off_c, 13, 48, 67
10, 197856, Note_on_c, 13, 60, 104
10, 197920, Note_off_c, 13, 60, 76
10, 197952, Note_on_c, 13, 60, 104
10, 198016, Note_off_c, 13, 60, 66
10, 198048, Note_on_c, 13, 60, 104
10, 198112, Note_off_c, 13, 60, 56
10, 198144, Note_on_c, 13, 59, 100
10, 198192, Note_off_c, 13, 59, 66
10, 198240, Note_on_c, 13, 62, 100
10, 198288, Note_off_c, 13, 62, 61
10, 198336, Note_on_c, 13, 59, 100
10, 198384, Note_off_c, 13, 59, 42
10, 198432, Note_on_c, 13, 55, 100
10, 198480, Note_off_c, 13, 55, 63
10, 198528, Note_on_c, 13, 53, 100
10, 198576, Note_off_c, 13, 53, 67
10, 198624, Note_on_c, 13, 50, 100
10, 198672, Note_off_c, 13, 50, 83
10, 198720, Note_on_c, 13, 47, 100
10, 198768, Note_off_c, 13, 47, 81
10, 198816, Note_on_c, 13, 43, 100
10, 198864, Note_off_c, 13, 43, 87
10, 198912, Note_on_c, 13, 48, 100
10, 198984, Note_off_c, 13, 48, 68
10, 199008, Note_on_c, 13, 64, 100
10, 199056, Note_off_c, 13, 64, 83
10, 199104, Note_on_c, 13, 60, 100
10, 199152, Note_off_c, 13, 60, 51
10, 199200, Note_on_c, 13, 55, 100
10, 199248, Note_off_c, 13, 55, 86
10, 199296, Note_on_c, 13, 52, 100
10, 199344, Note_off_c, 13, 52, 68
10, 199392, Note_on_c, 13, 55, 100
10, 199440, Note_off_c, 13, 55, 73
10, 199488, Note_on_c, 13, 52, 100
10, 199536, Note_off_c, 13, 52, 63
10, 199584, Note_on_c, 13, 48, 100
10, 199632, Note_off_c, 13, 48, 42
10, 199680, Note_on_c, 13, 53, 100
10, 199728, Note_off_c, 13, 53, 66
10, 199776, Note_on_c, 13, 53, 100
10, 199824, Note_off_c, 13, 53, 75
10, 199872, Note_on_c, 13, 53, 100
10, 199920, Note_off_c, 13, 53, 75
10, 199968, Note_on_c, 13, 53, 100
10, 200016, Note_off_c, 13, 53, 71
10, 200064, Note_on_c, 13, 55, 100
10, 200112, Note_off_c, 13, 55, 74
10, 200160, Note_on_c, 13, 55, 100
10, 200208, Note_off_c, 13, 55, 68
10, 200256, Note_on_c, 13, 55, 100
10, 200304, Note_off_c, 13, 55, 58
10, 200352, Note_on_c, 13, 55, 100
10, 200400, Note_off_c, 13, 55, 76
10, 200448, Note_on_c, 13, 52, 86
10, 200471, Note_off_c, 13, 52, 56
10, 200544, Note_on_c, 13, 52, 78
10, 200566, Note_off_c, 13, 52, 72
10, 200640, Note_on_c, 13, 52, 92
10, 200660, Note_off_c, 13, 52, 74
10, 200736, Note_on_c, 13, 52, 86
10, 200760, Note_off_c, 13, 52, 67
10, 200832, Note_on_c, 13, 53, 109
10, 200854, Note_off_c, 13, 53, 82
10, 200928, Note_on_c, 13, 53, 98
10, 200947, Note_off_c, 13, 53, 79
10, 201024, Note_on_c, 13, 53, 109
10, 201046, Note_off_c, 13, 53, 80
10, 201120, Note_on_c, 13, 53, 104
10, 201143, Note_off_c, 13, 53, 78
10, 201216, Note_on_c, 13, 55, 74
10, 201216, Note_on_c, 13, 57, 86
10, 201224, Note_off_c, 13, 57, 82
10, 201228, Note_off_c, 13, 55, 81
10, 201312, Note_on_c, 13, 55, 98
10, 201331, Note_off_c, 13, 55, 81
10, 201408, Note_on_c, 13, 55, 104
10, 201427, Note_off_c, 13, 55, 85
10, 201504, Note_on_c, 13, 55, 109
10, 201523, Note_off_c, 13, 55, 78
10, 201600, Note_on_c, 13, 55, 109
10, 201620, Note_off_c, 13, 55, 87
10, 201696, Note_on_c, 13, 55, 121
10, 201718, Note_off_c, 13, 55, 81
10, 201792, Note_on_c, 13, 43, 98
10, 201825, Note_off_c, 13, 43, 60
10, 201888, Note_on_c, 13, 43, 109
10, 201915, Note_off_c, 13, 43, 90
10, 201984, Note_on_c, 13, 48, 70
10, 202019, Note_off_c, 13, 48, 48
10, 202080, Note_on_c, 13, 52, 80
10, 202115, Note_off_c, 13, 52, 62
10, 202176, Note_on_c, 13, 55, 98
10, 202212, Note_off_c, 13, 55, 42
10, 202272, Note_on_c, 13, 52, 68
10, 202302, Note_off_c, 13, 52, 55
10, 202368, Note_on_c, 13, 48, 72
10, 202399, Note_off_c, 13, 48, 58
10, 202464, Note_on_c, 13, 52, 76
10, 202491, Note_off_c, 13, 52, 59
10, 202560, Note_on_c, 13, 55, 92
10, 202588, Note_off_c, 13, 55, 74
10, 202656, Note_on_c, 13, 52, 72
10, 202678, Note_off_c, 13, 52, 64
10, 202752, Note_on_c, 13, 48, 80
10, 202786, Note_off_c, 13, 48, 53
10, 202848, Note_on_c, 13, 52, 70
10, 202875, Note_off_c, 13, 52, 45
10, 202944, Note_on_c, 13, 55, 86
10, 202974, Note_off_c, 13, 55, 67
10, 203040, Note_on_c, 13, 52, 74
10, 203065, Note_off_c, 13, 52, 60
10, 203136, Note_on_c, 13, 48, 72
10, 203168, Note_off_c, 13, 48, 64
10, 203232, Note_on_c, 13, 52, 68
10, 203257, Note_off_c, 13, 52, 53
10, 203328, Note_on_c, 13, 55, 86
10, 203362, Note_off_c, 13, 55, 59
10, 203424, Note_on_c, 13, 52, 72
10, 203454, Note_off_c, 13, 52, 53
10, 203520, Note_on_c, 13, 60, 72
10, 203753, Note_off_c, 13, 60, 54
10, 203808, Note_on_c, 13, 55, 107
10, 203845, Note_off_c, 13, 55, 94
10, 203904, Note_on_c, 13, 52, 95
10, 203940, Note_off_c, 13, 52, 61
10, 204000, Note_on_c, 13, 48, 78
10, 204045, Note_off_c, 13, 48, 47
10, 204096, Note_on_c, 13, 52, 84
10, 204138, Note_off_c, 13, 52, 71
10, 204192, Note_on_c, 13, 55, 95
10, 204234, Note_off_c, 13, 55, 74
10, 204288, Note_on_c, 13, 60, 89
10, 204501, Note_off_c, 13, 60, 50
10, 204576, Note_on_c, 13, 55, 101
10, 204604, Note_off_c, 13, 55, 88
10, 204672, Note_on_c, 13, 52, 95
10, 204705, Note_off_c, 13, 52, 67
10, 204768, Note_on_c, 13, 48, 36
10, 204812, Note_off_c, 13, 48, 56
10, 204864, Note_on_c, 13, 52, 72
10, 204904, Note_off_c, 13, 52, 72
10, 204960, Note_on_c, 13, 55, 95
10, 205001, Note_off_c, 13, 55, 79
10, 205056, Note_on_c, 13, 60, 89
10, 205173, Note_off_c, 13, 60, 38
10, 205248, Note_on_c, 13, 60, 89
10, 205356, Note_off_c, 13, 60, 35
10, 205440, Note_on_c, 13, 55, 107
10, 205540, Note_off_c, 13, 55, 82
10, 205632, Note_on_c, 13, 52, 78
10, 205690, Note_off_c, 13, 52, 66
10, 205824, Note_on_c, 13, 48, 95
10, 206137, Note_off_c, 13, 48, 65
10, 206137, End_track
11, 0, Start_track
11, 0, MIDI_port, 0
11, 0, Title_t, "Basses              "
11, 0, Program_c, 14, 48
11, 0, Control_c, 14, 7, 98
11, 0, Control_c, 14, 10, 0
11, 0, Note_on_c, 14, 48, 58
11, 0, Program_c, 14, 48
11, 240, Note_off_c, 14, 48, 14
11, 288, Note_on_c, 14, 43, 80
11, 336, Note_off_c, 14, 43, 64
11, 384, Note_on_c, 14, 40, 70
11, 432, Note_off_c, 14, 40, 62
11, 480, Note_on_c, 14, 36, 72
11, 528, Note_off_c, 14, 36, 49
11, 576, Note_on_c, 14, 40, 76
11, 624, Note_off_c, 14, 40, 25
11, 672, Note_on_c, 14, 43, 80
11, 720, Note_off_c, 14, 43, 55
11, 768, Note_on_c, 14, 48, 76
11, 984, Note_off_c, 14, 48, 24
11, 1056, Note_on_c, 14, 43, 80
11, 1104, Note_off_c, 14, 43, 56
11, 1152, Note_on_c, 14, 40, 76
11, 1200, Note_off_c, 14, 40, 48
11, 1248, Note_on_c, 14, 36, 64
11, 1296, Note_off_c, 14, 36, 33
11, 1344, Note_on_c, 14, 40, 78
11, 1416, Note_off_c, 14, 40, 51
11, 1440, Note_on_c, 14, 43, 58
11, 1488, Note_off_c, 14, 43, 46
11, 1536, Note_on_c, 14, 36, 72
11, 1632, Note_off_c, 14, 36, 44
11, 1728, Note_on_c, 14, 36, 40
11, 1903, Note_off_c, 14, 36, 48
11, 1920, Note_on_c, 14, 35, 40
11, 2112, Note_on_c, 14, 36, 44
11, 2120, Note_off_c, 14, 35, 76
11, 2300, Note_off_c, 14, 36, 66
11, 2304, Note_on_c, 14, 38, 66
11, 2413, Note_off_c, 14, 38, 70
11, 2496, Note_on_c, 14, 38, 48
11, 2688, Note_on_c, 14, 37, 49
11, 2693, Note_off_c, 14, 38, 55
11, 2851, Note_off_c, 14, 37, 12
11, 2880, Note_on_c, 14, 38, 44
11, 3072, Note_off_c, 14, 38, 10
11, 3072, Note_on_c, 14, 40, 62
11, 3192, Note_off_c, 14, 40, 47
11, 3264, Note_on_c, 14, 40, 44
11, 3456, Note_on_c, 14, 39, 47
11, 3457, Note_off_c, 14, 40, 54
11, 3615, Note_off_c, 14, 39, 31
11, 3648, Note_on_c, 14, 40, 46
11, 3840, Note_on_c, 14, 41, 46
11, 3865, Note_off_c, 14, 40, 72
11, 4032, Note_on_c, 14, 43, 48
11, 4053, Note_off_c, 14, 41, 83
11, 4224, Note_on_c, 14, 45, 49
11, 4249, Note_off_c, 14, 43, 95
11, 4416, Note_on_c, 14, 47, 56
11, 4435, Note_off_c, 14, 45, 75
11, 4573, Note_off_c, 14, 47, 58
11, 4608, Note_on_c, 14, 48, 100
11, 4656, Note_off_c, 14, 48, 59
11, 4704, Note_on_c, 14, 48, 100
11, 4752, Note_off_c, 14, 48, 52
11, 4800, Note_on_c, 14, 48, 100
11, 4848, Note_off_c, 14, 48, 64
11, 4896, Note_on_c, 14, 48, 100
11, 4944, Note_off_c, 14, 48, 55
11, 4992, Note_on_c, 14, 48, 100
11, 5040, Note_off_c, 14, 48, 66
11, 5088, Note_on_c, 14, 48, 100
11, 5136, Note_off_c, 14, 48, 66
11, 5184, Note_on_c, 14, 48, 100
11, 5232, Note_off_c, 14, 48, 63
11, 5280, Note_on_c, 14, 48, 100
11, 5328, Note_off_c, 14, 48, 59
11, 5376, Note_on_c, 14, 48, 100
11, 5424, Note_off_c, 14, 48, 66
11, 5472, Note_on_c, 14, 48, 100
11, 5520, Note_off_c, 14, 48, 54
11, 5568, Note_on_c, 14, 48, 100
11, 5616, Note_off_c, 14, 48, 52
11, 5664, Note_on_c, 14, 48, 100
11, 5712, Note_off_c, 14, 48, 47
11, 5760, Note_on_c, 14, 48, 100
11, 5808, Note_off_c, 14, 48, 62
11, 5856, Note_on_c, 14, 48, 100
11, 5904, Note_off_c, 14, 48, 52
11, 5952, Note_on_c, 14, 48, 100
11, 6000, Note_off_c, 14, 48, 54
11, 6048, Note_on_c, 14, 48, 100
11, 6096, Note_off_c, 14, 48, 58
11, 6144, Note_on_c, 14, 48, 74
11, 6216, Note_off_c, 14, 48, 68
11, 6240, Note_on_c, 14, 36, 74
11, 6265, Note_off_c, 14, 36, 60
11, 6336, Note_on_c, 14, 36, 74
11, 6371, Note_off_c, 14, 36, 63
11, 6432, Note_on_c, 14, 36, 74
11, 6458, Note_off_c, 14, 36, 60
11, 6528, Note_on_c, 14, 36, 74
11, 6553, Note_off_c, 14, 36, 51
11, 6624, Note_on_c, 14, 36, 74
11, 6649, Note_off_c, 14, 36, 55
11, 6720, Note_on_c, 14, 36, 74
11, 6743, Note_off_c, 14, 36, 55
11, 6816, Note_on_c, 14, 36, 74
11, 6849, Note_off_c, 14, 36, 28
11, 6912, Note_on_c, 14, 36, 74
11, 6938, Note_off_c, 14, 36, 48
11, 7008, Note_on_c, 14, 36, 74
11, 7033, Note_off_c, 14, 36, 41
11, 7104, Note_on_c, 14, 36, 74
11, 7133, Note_off_c, 14, 36, 54
11, 7200, Note_on_c, 14, 36, 74
11, 7228, Note_off_c, 14, 36, 45
11, 7296, Note_on_c, 14, 36, 74
11, 7315, Note_off_c, 14, 36, 67
11, 7392, Note_on_c, 14, 48, 104
11, 7456, Note_off_c, 14, 48, 76
11, 7488, Note_on_c, 14, 48, 104
11, 7552, Note_off_c, 14, 48, 66
11, 7584, Note_on_c, 14, 48, 104
11, 7648, Note_off_c, 14, 48, 56
11, 7680, Note_on_c, 14, 47, 100
11, 7728, Note_off_c, 14, 47, 66
11, 7776, Note_on_c, 14, 50, 100
11, 7824, Note_off_c, 14, 50, 61
11, 7872, Note_on_c, 14, 47, 100
11, 7920, Note_off_c, 14, 47, 42
11, 7968, Note_on_c, 14, 43, 100
11, 8016, Note_off_c, 14, 43, 63
11, 8064, Note_on_c, 14, 41, 100
11, 8112, Note_off_c, 14, 41, 67
11, 8160, Note_on_c, 14, 38, 100
11, 8208, Note_off_c, 14, 38, 83
11, 8256, Note_on_c, 14, 35, 100
11, 8304, Note_off_c, 14, 35, 81
11, 8352, Note_on_c, 14, 31, 100
11, 8400, Note_off_c, 14, 31, 87
11, 8448, Note_on_c, 14, 36, 100
11, 8520, Note_off_c, 14, 36, 68
11, 8544, Note_on_c, 14, 52, 100
11, 8592, Note_off_c, 14, 52, 83
11, 8640, Note_on_c, 14, 48, 100
11, 8688, Note_off_c, 14, 48, 51
11, 8736, Note_on_c, 14, 43, 100
11, 8784, Note_off_c, 14, 43, 86
11, 8832, Note_on_c, 14, 40, 100
11, 8880, Note_off_c, 14, 40, 68
11, 8928, Note_on_c, 14, 43, 100
11, 8976, Note_off_c, 14, 43, 73
11, 9024, Note_on_c, 14, 40, 100
11, 9072, Note_off_c, 14, 40, 63
11, 9120, Note_on_c, 14, 36, 100
11, 9168, Note_off_c, 14, 36, 42
11, 9216, Note_on_c, 14, 41, 100
11, 9264, Note_off_c, 14, 41, 66
11, 9312, Note_on_c, 14, 41, 100
11, 9360, Note_off_c, 14, 41, 75
11, 9408, Note_on_c, 14, 41, 100
11, 9456, Note_off_c, 14, 41, 75
11, 9504, Note_on_c, 14, 41, 100
11, 9552, Note_off_c, 14, 41, 71
11, 9600, Note_on_c, 14, 43, 100
11, 9648, Note_off_c, 14, 43, 74
11, 9696, Note_on_c, 14, 43, 100
11, 9744, Note_off_c, 14, 43, 68
11, 9792, Note_on_c, 14, 43, 100
11, 9840, Note_off_c, 14, 43, 58
11, 9888, Note_on_c, 14, 43, 100
11, 9936, Note_off_c, 14, 43, 76
11, 9984, Note_on_c, 14, 36, 74
11, 10008, Note_off_c, 14, 36, 42
11, 10080, Note_on_c, 14, 38, 74
11, 10104, Note_off_c, 14, 38, 72
11, 10176, Note_on_c, 14, 40, 74
11, 10200, Note_off_c, 14, 40, 66
11, 10272, Note_on_c, 14, 41, 74
11, 10296, Note_off_c, 14, 41, 55
11, 10368, Note_on_c, 14, 43, 74
11, 10552, Note_off_c, 14, 43, 93
11, 10752, Note_on_c, 14, 47, 100
11, 10800, Note_off_c, 14, 47, 51
11, 10848, Note_on_c, 14, 50, 100
11, 10896, Note_off_c, 14, 50, 68
11, 10944, Note_on_c, 14, 47, 100
11, 10992, Note_off_c, 14, 47, 34
11, 11040, Note_on_c, 14, 43, 100
11, 11088, Note_off_c, 14, 43, 83
11, 11136, Note_on_c, 14, 41, 100
11, 11184, Note_off_c, 14, 41, 75
11, 11232, Note_on_c, 14, 38, 100
11, 11280, Note_off_c, 14, 38, 78
11, 11328, Note_on_c, 14, 35, 100
11, 11376, Note_off_c, 14, 35, 4
11, 11424, Note_on_c, 14, 31, 100
11, 11472, Note_off_c, 14, 31, 41
11, 11520, Note_on_c, 14, 36, 120
11, 11568, Note_off_c, 14, 36, 67
11, 11616, Note_on_c, 14, 52, 100
11, 11655, Note_off_c, 14, 52, 60
11, 11712, Note_on_c, 14, 48, 100
11, 11760, Note_off_c, 14, 48, 55
11, 11808, Note_on_c, 14, 44, 100
11, 11856, Note_off_c, 14, 44, 42
11, 11904, Note_on_c, 14, 45, 100
11, 11952, Note_off_c, 14, 45, 68
11, 12000, Note_on_c, 14, 48, 100
11, 12048, Note_off_c, 14, 48, 37
11, 12096, Note_on_c, 14, 45, 100
11, 12144, Note_off_c, 14, 45, 81
11, 12192, Note_on_c, 14, 40, 100
11, 12240, Note_off_c, 14, 40, 71
11, 12288, Note_on_c, 14, 41, 100
11, 12336, Note_off_c, 14, 41, 71
11, 12384, Note_on_c, 14, 43, 100
11, 12432, Note_off_c, 14, 43, 73
11, 12480, Note_on_c, 14, 45, 100
11, 12528, Note_off_c, 14, 45, 70
11, 12576, Note_on_c, 14, 40, 100
11, 12624, Note_off_c, 14, 40, 58
11, 12672, Note_on_c, 14, 41, 100
11, 12720, Note_off_c, 14, 41, 81
11, 12768, Note_on_c, 14, 41, 100
11, 12816, Note_off_c, 14, 41, 60
11, 12864, Note_on_c, 14, 42, 100
11, 12912, Note_off_c, 14, 42, 63
11, 12960, Note_on_c, 14, 42, 100
11, 13032, Note_off_c, 14, 42, 52
11, 13056, Note_on_c, 14, 43, 104
11, 13104, Note_off_c, 14, 43, 64
11, 13152, Note_on_c, 14, 47, 100
11, 13200, Note_off_c, 14, 47, 59
11, 13248, Note_on_c, 14, 50, 120
11, 13296, Note_off_c, 14, 50, 80
11, 13344, Note_on_c, 14, 43, 100
11, 13392, Note_off_c, 14, 43, 65
11, 13440, Note_on_c, 14, 48, 100
11, 13488, Note_off_c, 14, 48, 7
11, 13536, Note_on_c, 14, 43, 100
11, 13584, Note_off_c, 14, 43, 75
11, 13632, Note_on_c, 14, 40, 100
11, 13704, Note_off_c, 14, 40, 1
11, 13728, Note_on_c, 14, 36, 100
11, 13776, Note_off_c, 14, 36, 62
11, 13824, Note_on_c, 14, 43, 100
11, 13896, Note_off_c, 14, 43, 32
11, 13920, Note_on_c, 14, 47, 100
11, 13968, Note_off_c, 14, 47, 54
11, 14016, Note_on_c, 14, 50, 120
11, 14088, Note_off_c, 14, 50, 78
11, 14112, Note_on_c, 14, 43, 100
11, 14160, Note_off_c, 14, 43, 59
11, 14208, Note_on_c, 14, 48, 100
11, 14232, Note_off_c, 14, 48, 48
11, 14304, Note_on_c, 14, 43, 100
11, 14352, Note_off_c, 14, 43, 68
11, 14400, Note_on_c, 14, 40, 100
11, 14448, Note_off_c, 14, 40, 40
11, 14496, Note_on_c, 14, 36, 100
11, 14544, Note_off_c, 14, 36, 52
11, 14592, Note_on_c, 14, 31, 100
11, 14691, Note_off_c, 14, 31, 56
11, 14784, Note_on_c, 14, 43, 100
11, 14878, Note_off_c, 14, 43, 71
11, 14976, Note_on_c, 14, 31, 100
11, 15167, Note_off_c, 14, 31, 85
11, 16896, Program_c, 14, 45
11, 16896, Note_on_c, 14, 36, 80
11, 17088, Note_off_c, 14, 36, 41
11, 17280, Note_on_c, 14, 40, 80
11, 17472, Note_off_c, 14, 40, 64
11, 17664, Note_on_c, 14, 38, 80
11, 17856, Note_off_c, 14, 38, 47
11, 18048, Note_on_c, 14, 31, 80
11, 18240, Note_off_c, 14, 31, 82
11, 18432, Note_on_c, 14, 36, 80
11, 18600, Note_off_c, 14, 36, 62
11, 18816, Note_on_c, 14, 40, 80
11, 18984, Note_off_c, 14, 40, 36
11, 19200, Note_on_c, 14, 38, 80
11, 19392, Note_off_c, 14, 38, 70
11, 19584, Note_on_c, 14, 31, 80
11, 19776, Note_off_c, 14, 31, 39
11, 19968, Note_on_c, 14, 36, 80
11, 20160, Note_off_c, 14, 36, 39
11, 20352, Note_on_c, 14, 36, 80
11, 20544, Note_off_c, 14, 36, 55
11, 20736, Note_on_c, 14, 36, 80
11, 20928, Note_off_c, 14, 36, 1
11, 21120, Note_on_c, 14, 36, 80
11, 21312, Note_off_c, 14, 36, 25
11, 21504, Note_on_c, 14, 36, 80
11, 21696, Note_off_c, 14, 36, 18
11, 21888, Note_on_c, 14, 36, 80
11, 22080, Note_off_c, 14, 36, 41
11, 22272, Note_on_c, 14, 41, 80
11, 22464, Note_off_c, 14, 41, 68
11, 22656, Program_c, 14, 48
11, 23808, Note_on_c, 14, 43, 100
11, 23856, Note_off_c, 14, 43, 69
11, 23904, Note_on_c, 14, 43, 100
11, 23952, Note_off_c, 14, 43, 78
11, 24000, Note_on_c, 14, 43, 100
11, 24048, Note_off_c, 14, 43, 81
11, 24096, Note_on_c, 14, 43, 100
11, 24144, Note_off_c, 14, 43, 86
11, 24192, Note_on_c, 14, 43, 100
11, 24240, Note_off_c, 14, 43, 87
11, 24288, Note_on_c, 14, 43, 100
11, 24336, Note_off_c, 14, 43, 78
11, 24384, Note_on_c, 14, 43, 100
11, 24432, Note_off_c, 14, 43, 64
11, 24480, Note_on_c, 14, 43, 100
11, 24528, Note_off_c, 14, 43, 66
11, 24576, Note_on_c, 14, 43, 100
11, 24624, Note_off_c, 14, 43, 76
11, 24672, Note_on_c, 14, 43, 100
11, 24720, Note_off_c, 14, 43, 68
11, 24768, Note_on_c, 14, 43, 100
11, 24816, Note_off_c, 14, 43, 82
11, 24864, Note_on_c, 14, 43, 100
11, 24912, Note_off_c, 14, 43, 69
11, 24960, Note_on_c, 14, 43, 100
11, 25008, Note_off_c, 14, 43, 83
11, 25056, Note_on_c, 14, 43, 100
11, 25104, Note_off_c, 14, 43, 78
11, 25152, Note_on_c, 14, 43, 100
11, 25200, Note_off_c, 14, 43, 86
11, 25248, Note_on_c, 14, 43, 100
11, 25296, Note_off_c, 14, 43, 91
11, 25344, Note_on_c, 14, 36, 127
11, 25499, Note_off_c, 14, 36, 52
11, 28416, Note_on_c, 14, 40, 86
11, 28439, Note_off_c, 14, 40, 56
11, 28512, Note_on_c, 14, 40, 78
11, 28534, Note_off_c, 14, 40, 72
11, 28608, Note_on_c, 14, 40, 92
11, 28628, Note_off_c, 14, 40, 74
11, 28704, Note_on_c, 14, 40, 86
11, 28728, Note_off_c, 14, 40, 67
11, 28800, Note_on_c, 14, 41, 109
11, 28822, Note_off_c, 14, 41, 82
11, 28896, Note_on_c, 14, 41, 98
11, 28915, Note_off_c, 14, 41, 79
11, 28992, Note_on_c, 14, 41, 109
11, 29014, Note_off_c, 14, 41, 80
11, 29088, Note_on_c, 14, 41, 104
11, 29111, Note_off_c, 14, 41, 78
11, 29184, Note_on_c, 14, 43, 74
11, 29184, Note_on_c, 14, 45, 86
11, 29192, Note_off_c, 14, 45, 82
11, 29196, Note_off_c, 14, 43, 81
11, 29280, Note_on_c, 14, 43, 98
11, 29299, Note_off_c, 14, 43, 81
11, 29376, Note_on_c, 14, 43, 104
11, 29395, Note_off_c, 14, 43, 85
11, 29472, Note_on_c, 14, 43, 109
11, 29491, Note_off_c, 14, 43, 78
11, 29568, Note_on_c, 14, 43, 109
11, 29588, Note_off_c, 14, 43, 87
11, 29664, Note_on_c, 14, 43, 121
11, 29686, Note_off_c, 14, 43, 81
11, 29760, Note_on_c, 14, 31, 98
11, 29793, Note_off_c, 14, 31, 60
11, 29856, Note_on_c, 14, 31, 109
11, 29883, Note_off_c, 14, 31, 90
11, 29952, Note_on_c, 14, 36, 70
11, 29987, Note_off_c, 14, 36, 48
11, 30048, Note_on_c, 14, 40, 80
11, 30083, Note_off_c, 14, 40, 62
11, 30144, Note_on_c, 14, 43, 98
11, 30180, Note_off_c, 14, 43, 42
11, 30240, Note_on_c, 14, 40, 68
11, 30270, Note_off_c, 14, 40, 55
11, 30336, Note_on_c, 14, 36, 72
11, 30367, Note_off_c, 14, 36, 58
11, 30432, Note_on_c, 14, 40, 76
11, 30459, Note_off_c, 14, 40, 59
11, 30528, Note_on_c, 14, 43, 92
11, 30556, Note_off_c, 14, 43, 74
11, 30624, Note_on_c, 14, 40, 72
11, 30646, Note_off_c, 14, 40, 64
11, 30720, Note_on_c, 14, 36, 80
11, 30754, Note_off_c, 14, 36, 53
11, 30816, Note_on_c, 14, 40, 70
11, 30843, Note_off_c, 14, 40, 45
11, 30912, Note_on_c, 14, 43, 86
11, 30942, Note_off_c, 14, 43, 67
11, 31008, Note_on_c, 14, 40, 74
11, 31033, Note_off_c, 14, 40, 60
11, 31104, Note_on_c, 14, 36, 72
11, 31136, Note_off_c, 14, 36, 64
11, 31200, Note_on_c, 14, 40, 68
11, 31225, Note_off_c, 14, 40, 53
11, 31296, Note_on_c, 14, 43, 86
11, 31330, Note_off_c, 14, 43, 59
11, 31392, Note_on_c, 14, 40, 72
11, 31422, Note_off_c, 14, 40, 53
11, 31488, Note_on_c, 14, 36, 68
11, 31528, Note_off_c, 14, 36, 58
11, 31680, Note_on_c, 14, 48, 48
11, 31872, Note_on_c, 14, 47, 52
11, 31884, Note_off_c, 14, 48, 16
11, 32064, Note_on_c, 14, 45, 54
11, 32077, Note_off_c, 14, 47, 32
11, 32203, Note_off_c, 14, 45, 26
11, 32256, Note_on_c, 14, 43, 104
11, 32281, Note_off_c, 14, 43, 87
11, 32448, Note_on_c, 14, 41, 62
11, 32640, Note_on_c, 14, 40, 52
11, 32688, Note_off_c, 14, 41, 72
11, 32809, Note_off_c, 14, 40, 52
11, 32832, Note_on_c, 14, 38, 58
11, 32955, Note_off_c, 14, 38, 3
11, 33024, Note_on_c, 14, 36, 72
11, 33216, Note_off_c, 14, 36, 7
11, 33312, Note_on_c, 14, 43, 58
11, 33360, Note_off_c, 14, 43, 76
11, 33408, Note_on_c, 14, 40, 54
11, 33456, Note_off_c, 14, 40, 65
11, 33504, Note_on_c, 14, 36, 52
11, 33552, Note_off_c, 14, 36, 39
11, 33600, Note_on_c, 14, 40, 58
11, 33648, Note_off_c, 14, 40, 48
11, 33696, Note_on_c, 14, 43, 58
11, 33744, Note_off_c, 14, 43, 56
11, 33792, Note_on_c, 14, 48, 72
11, 33984, Note_off_c, 14, 48, 7
11, 34080, Note_on_c, 14, 43, 58
11, 34128, Note_off_c, 14, 43, 76
11, 34176, Note_on_c, 14, 40, 54
11, 34224, Note_off_c, 14, 40, 65
11, 34272, Note_on_c, 14, 36, 52
11, 34320, Note_off_c, 14, 36, 39
11, 34368, Note_on_c, 14, 40, 58
11, 34416, Note_off_c, 14, 40, 48
11, 34464, Note_on_c, 14, 43, 58
11, 34512, Note_off_c, 14, 43, 56
11, 34560, Note_on_c, 14, 48, 72
11, 34656, Note_off_c, 14, 48, 44
11, 34752, Note_on_c, 14, 36, 40
11, 34927, Note_off_c, 14, 36, 48
11, 34944, Note_on_c, 14, 35, 40
11, 35136, Note_on_c, 14, 36, 44
11, 35144, Note_off_c, 14, 35, 76
11, 35324, Note_off_c, 14, 36, 66
11, 35328, Note_on_c, 14, 38, 66
11, 35437, Note_off_c, 14, 38, 70
11, 35520, Note_on_c, 14, 38, 48
11, 35712, Note_on_c, 14, 37, 49
11, 35717, Note_off_c, 14, 38, 55
11, 35875, Note_off_c, 14, 37, 12
11, 35904, Note_on_c, 14, 38, 44
11, 36096, Note_off_c, 14, 38, 10
11, 36096, Note_on_c, 14, 40, 62
11, 36216, Note_off_c, 14, 40, 47
11, 36288, Note_on_c, 14, 40, 44
11, 36480, Note_on_c, 14, 39, 47
11, 36481, Note_off_c, 14, 40, 54
11, 36639, Note_off_c, 14, 39, 31
11, 36672, Note_on_c, 14, 40, 46
11, 36864, Note_on_c, 14, 41, 46
11, 36889, Note_off_c, 14, 40, 72
11, 37056, Note_on_c, 14, 43, 48
11, 37077, Note_off_c, 14, 41, 83
11, 37248, Note_on_c, 14, 45, 49
11, 37273, Note_off_c, 14, 43, 95
11, 37440, Note_on_c, 14, 47, 56
11, 37459, Note_off_c, 14, 45, 75
11, 37597, Note_off_c, 14, 47, 58
11, 37632, Note_on_c, 14, 48, 100
11, 37752, Note_off_c, 14, 48, 59
11, 40704, Note_on_c, 14, 36, 56
11, 40841, Note_off_c, 14, 36, 56
11, 41481, Note_on_c, 14, 36, 58
11, 41621, Note_off_c, 14, 36, 66
11, 42251, Note_on_c, 14, 36, 50
11, 42419, Note_off_c, 14, 36, 37
11, 43013, Note_on_c, 14, 41, 40
11, 43388, Note_on_c, 14, 43, 54
11, 43392, Note_off_c, 14, 41, 50
11, 43776, Note_on_c, 14, 36, 40
11, 43791, Note_off_c, 14, 43, 5
11, 43920, Note_off_c, 14, 36, 25
11, 44544, Note_on_c, 14, 36, 31
11, 44712, Note_off_c, 14, 36, 59
11, 45311, Note_on_c, 14, 36, 40
11, 45492, Note_off_c, 14, 36, 31
11, 46076, Note_on_c, 14, 43, 42
11, 46495, Note_off_c, 14, 43, 83
11, 46503, Note_on_c, 14, 31, 37
11, 46854, Note_off_c, 14, 31, 75
11, 46869, Note_on_c, 14, 36, 33
11, 47036, Note_off_c, 14, 36, 67
11, 50784, Note_on_c, 14, 43, 124
11, 50812, Note_off_c, 14, 43, 93
11, 50880, Note_on_c, 14, 47, 124
11, 50907, Note_off_c, 14, 47, 76
11, 50976, Note_on_c, 14, 43, 124
11, 51024, Note_off_c, 14, 43, 92
11, 51072, Note_on_c, 14, 38, 124
11, 51099, Note_off_c, 14, 38, 95
11, 51168, Note_on_c, 14, 43, 124
11, 51199, Note_off_c, 14, 43, 82
11, 51264, Note_on_c, 14, 35, 124
11, 51288, Note_off_c, 14, 35, 90
11, 51360, Note_on_c, 14, 38, 124
11, 51385, Note_off_c, 14, 38, 95
11, 51456, Note_on_c, 14, 31, 124
11, 51658, Note_off_c, 14, 31, 102
11, 60672, Program_c, 14, 45
11, 60672, Note_on_c, 14, 43, 90
11, 60768, Note_off_c, 14, 43, 83
11, 60864, Note_on_c, 14, 55, 90
11, 60960, Note_off_c, 14, 55, 46
11, 61056, Note_on_c, 14, 62, 90
11, 61152, Note_off_c, 14, 62, 81
11, 61248, Note_on_c, 14, 59, 90
11, 61344, Note_off_c, 14, 59, 59
11, 61440, Note_on_c, 14, 55, 90
11, 61536, Note_off_c, 14, 55, 89
11, 61632, Note_on_c, 14, 59, 90
11, 61728, Note_off_c, 14, 59, 35
11, 61824, Note_on_c, 14, 55, 90
11, 61920, Note_off_c, 14, 55, 92
11, 62016, Note_on_c, 14, 43, 90
11, 62112, Note_off_c, 14, 43, 103
11, 62208, Note_on_c, 14, 50, 90
11, 62304, Note_off_c, 14, 50, 75
11, 63744, Note_on_c, 14, 43, 90
11, 63840, Note_off_c, 14, 43, 83
11, 63936, Note_on_c, 14, 55, 90
11, 64032, Note_off_c, 14, 55, 81
11, 64128, Note_on_c, 14, 62, 90
11, 64224, Note_off_c, 14, 62, 90
11, 64320, Note_on_c, 14, 59, 90
11, 64416, Note_off_c, 14, 59, 89
11, 64512, Note_on_c, 14, 55, 90
11, 64608, Note_off_c, 14, 55, 82
11, 64704, Note_on_c, 14, 59, 90
11, 64800, Note_off_c, 14, 59, 76
11, 64896, Note_on_c, 14, 55, 90
11, 64992, Note_off_c, 14, 55, 87
11, 65088, Note_on_c, 14, 43, 90
11, 65184, Note_off_c, 14, 43, 102
11, 65200, Program_c, 14, 48
11, 65280, Note_on_c, 14, 38, 100
11, 65328, Note_off_c, 14, 38, 70
11, 65376, Note_on_c, 14, 42, 100
11, 65424, Note_off_c, 14, 42, 61
11, 65472, Note_on_c, 14, 45, 100
11, 65520, Note_off_c, 14, 45, 76
11, 65568, Note_on_c, 14, 38, 100
11, 65616, Note_off_c, 14, 38, 70
11, 65664, Note_on_c, 14, 43, 100
11, 65712, Note_off_c, 14, 43, 85
11, 65760, Note_on_c, 14, 38, 100
11, 65808, Note_off_c, 14, 38, 85
11, 65856, Note_on_c, 14, 35, 100
11, 65904, Note_off_c, 14, 35, 30
11, 65952, Note_on_c, 14, 31, 100
11, 65984, Note_off_c, 14, 31, 102
11, 66048, Note_on_c, 14, 38, 100
11, 66096, Note_off_c, 14, 38, 67
11, 66144, Note_on_c, 14, 42, 100
11, 66192, Note_off_c, 14, 42, 58
11, 66240, Note_on_c, 14, 45, 100
11, 66288, Note_off_c, 14, 45, 85
11, 66336, Note_on_c, 14, 38, 100
11, 66400, Note_off_c, 14, 38, 57
11, 66432, Note_on_c, 14, 43, 100
11, 66496, Note_off_c, 14, 43, 75
11, 66528, Note_on_c, 14, 50, 100
11, 66592, Note_off_c, 14, 50, 59
11, 66624, Note_on_c, 14, 47, 100
11, 66672, Note_off_c, 14, 47, 74
11, 66720, Note_on_c, 14, 43, 100
11, 66768, Note_off_c, 14, 43, 48
11, 66816, Note_on_c, 14, 38, 100
11, 66976, Note_off_c, 14, 38, 46
11, 67008, Note_on_c, 14, 50, 100
11, 67168, Note_off_c, 14, 50, 70
11, 67200, Note_on_c, 14, 38, 100
11, 67381, Note_off_c, 14, 38, 73
11, 69120, Program_c, 14, 45
11, 69120, Note_on_c, 14, 43, 70
11, 69149, Note_off_c, 14, 43, 78
11, 69504, Note_on_c, 14, 47, 72
11, 69546, Note_off_c, 14, 47, 75
11, 69888, Note_on_c, 14, 45, 76
11, 69942, Note_off_c, 14, 45, 76
11, 70272, Note_on_c, 14, 38, 78
11, 70358, Note_off_c, 14, 38, 67
11, 70656, Note_on_c, 14, 43, 74
11, 70745, Note_off_c, 14, 43, 78
11, 71040, Note_on_c, 14, 47, 68
11, 71134, Note_off_c, 14, 47, 59
11, 71424, Note_on_c, 14, 45, 80
11, 71523, Note_off_c, 14, 45, 78
11, 71808, Note_on_c, 14, 38, 70
11, 71915, Note_off_c, 14, 38, 55
11, 72192, Note_on_c, 14, 43, 74
11, 72272, Note_off_c, 14, 43, 54
11, 72576, Note_on_c, 14, 43, 72
11, 72690, Note_off_c, 14, 43, 2
11, 72960, Note_on_c, 14, 43, 76
11, 73072, Note_off_c, 14, 43, 61
11, 73344, Note_on_c, 14, 43, 76
11, 73465, Note_off_c, 14, 43, 66
11, 73728, Note_on_c, 14, 43, 66
11, 73839, Note_off_c, 14, 43, 58
11, 74112, Note_on_c, 14, 43, 78
11, 74171, Note_off_c, 14, 43, 47
11, 74304, Program_c, 14, 48
11, 76032, Note_on_c, 14, 45, 121
11, 76174, Note_off_c, 14, 45, 83
11, 76416, Note_on_c, 14, 38, 121
11, 76556, Note_off_c, 14, 38, 87
11, 76800, Note_on_c, 14, 43, 121
11, 76980, Note_off_c, 14, 43, 97
11, 77184, Note_on_c, 14, 40, 121
11, 77375, Note_off_c, 14, 40, 82
11, 77568, Note_on_c, 14, 36, 92
11, 77943, Note_off_c, 14, 36, 62
11, 77952, Note_on_c, 14, 38, 80
11, 78152, Note_off_c, 14, 38, 81
11, 78336, Note_on_c, 14, 43, 109
11, 78365, Note_off_c, 14, 43, 94
11, 78432, Note_on_c, 14, 45, 86
11, 78459, Note_off_c, 14, 45, 78
11, 78528, Note_on_c, 14, 47, 76
11, 78552, Note_off_c, 14, 47, 70
11, 78624, Note_on_c, 14, 48, 58
11, 78649, Note_off_c, 14, 48, 46
11, 78720, Note_on_c, 14, 50, 86
11, 78884, Note_off_c, 14, 50, 92
11, 89088, Note_on_c, 14, 35, 52
11, 89472, Note_on_c, 14, 36, 62
11, 89488, Note_off_c, 14, 35, 59
11, 89813, Note_off_c, 14, 36, 27
11, 89856, Note_on_c, 14, 38, 74
11, 89986, Note_off_c, 14, 38, 60
11, 90240, Note_on_c, 14, 38, 66
11, 90436, Note_off_c, 14, 38, 56
11, 90624, Note_on_c, 14, 38, 76
11, 90653, Note_off_c, 14, 38, 77
11, 90720, Note_on_c, 14, 38, 76
11, 90743, Note_off_c, 14, 38, 79
11, 90816, Note_on_c, 14, 38, 86
11, 90840, Note_off_c, 14, 38, 83
11, 90912, Note_on_c, 14, 38, 86
11, 90939, Note_off_c, 14, 38, 83
11, 91008, Note_on_c, 14, 38, 80
11, 91028, Note_off_c, 14, 38, 75
11, 91104, Note_on_c, 14, 38, 92
11, 91128, Note_off_c, 14, 38, 88
11, 91200, Note_on_c, 14, 38, 92
11, 91221, Note_off_c, 14, 38, 77
11, 91296, Note_on_c, 14, 38, 92
11, 91314, Note_off_c, 14, 38, 77
11, 91392, Note_on_c, 14, 43, 100
11, 91406, Note_off_c, 14, 43, 66
11, 91488, Note_on_c, 14, 43, 100
11, 91505, Note_off_c, 14, 43, 65
11, 91584, Note_on_c, 14, 43, 100
11, 91599, Note_off_c, 14, 43, 66
11, 91680, Note_on_c, 14, 43, 100
11, 91693, Note_off_c, 14, 43, 89
11, 91776, Note_on_c, 14, 43, 100
11, 91793, Note_off_c, 14, 43, 56
11, 91872, Note_on_c, 14, 43, 100
11, 91885, Note_off_c, 14, 43, 84
11, 91968, Note_on_c, 14, 43, 100
11, 91986, Note_off_c, 14, 43, 59
11, 92064, Note_on_c, 14, 43, 100
11, 92077, Note_off_c, 14, 43, 83
11, 92160, Note_on_c, 14, 43, 100
11, 92184, Note_off_c, 14, 43, 55
11, 92256, Note_on_c, 14, 43, 100
11, 92280, Note_off_c, 14, 43, 85
11, 92352, Note_on_c, 14, 43, 100
11, 92376, Note_off_c, 14, 43, 83
11, 92448, Note_on_c, 14, 43, 100
11, 92472, Note_off_c, 14, 43, 80
11, 92544, Note_on_c, 14, 43, 100
11, 92568, Note_off_c, 14, 43, 72
11, 92640, Note_on_c, 14, 43, 100
11, 92664, Note_off_c, 14, 43, 93
11, 92736, Note_on_c, 14, 43, 100
11, 92760, Note_off_c, 14, 43, 85
11, 92832, Note_on_c, 14, 43, 100
11, 92856, Note_off_c, 14, 43, 80
11, 92928, Note_on_c, 14, 43, 64
11, 92952, Note_off_c, 14, 43, 55
11, 93024, Note_on_c, 14, 43, 64
11, 93048, Note_off_c, 14, 43, 65
11, 93120, Note_on_c, 14, 43, 64
11, 93144, Note_off_c, 14, 43, 66
11, 93216, Note_on_c, 14, 43, 64
11, 93240, Note_off_c, 14, 43, 64
11, 93312, Note_on_c, 14, 43, 64
11, 93336, Note_off_c, 14, 43, 68
11, 93408, Note_on_c, 14, 43, 64
11, 93432, Note_off_c, 14, 43, 71
11, 93504, Note_on_c, 14, 43, 64
11, 93528, Note_off_c, 14, 43, 72
11, 93600, Note_on_c, 14, 43, 64
11, 93624, Note_off_c, 14, 43, 68
11, 93696, Note_on_c, 14, 43, 64
11, 93720, Note_off_c, 14, 43, 60
11, 93792, Note_on_c, 14, 43, 64
11, 93816, Note_off_c, 14, 43, 59
11, 93888, Note_on_c, 14, 43, 64
11, 93912, Note_off_c, 14, 43, 56
11, 93984, Note_on_c, 14, 43, 64
11, 94008, Note_off_c, 14, 43, 76
11, 94080, Note_on_c, 14, 43, 64
11, 94104, Note_off_c, 14, 43, 69
11, 94176, Note_on_c, 14, 43, 64
11, 94200, Note_off_c, 14, 43, 94
11, 94272, Note_on_c, 14, 43, 64
11, 94296, Note_off_c, 14, 43, 94
11, 94368, Note_on_c, 14, 43, 64
11, 94392, Note_off_c, 14, 43, 79
11, 94464, Note_on_c, 14, 42, 72
11, 94512, Note_off_c, 14, 42, 74
11, 94560, Note_on_c, 14, 45, 86
11, 94584, Note_off_c, 14, 45, 71
11, 94656, Note_on_c, 14, 42, 70
11, 94680, Note_off_c, 14, 42, 71
11, 94752, Note_on_c, 14, 38, 70
11, 94800, Note_off_c, 14, 38, 76
11, 94848, Note_on_c, 14, 42, 76
11, 94896, Note_off_c, 14, 42, 60
11, 94944, Note_on_c, 14, 45, 104
11, 94992, Note_off_c, 14, 45, 58
11, 95040, Note_on_c, 14, 42, 72
11, 95088, Note_off_c, 14, 42, 62
11, 95136, Note_on_c, 14, 38, 76
11, 95184, Note_off_c, 14, 38, 76
11, 95232, Note_on_c, 14, 43, 109
11, 95256, Note_off_c, 14, 43, 70
11, 95328, Note_on_c, 14, 47, 68
11, 95376, Note_off_c, 14, 47, 39
11, 95424, Note_on_c, 14, 43, 80
11, 95448, Note_off_c, 14, 43, 80
11, 95520, Note_on_c, 14, 38, 66
11, 95568, Note_off_c, 14, 38, 71
11, 95616, Note_on_c, 14, 35, 62
11, 95616, Note_on_c, 14, 36, 52
11, 95640, Note_off_c, 14, 35, 42
11, 95640, Note_off_c, 14, 36, 23
11, 95712, Note_on_c, 14, 38, 72
11, 95760, Note_off_c, 14, 38, 54
11, 95808, Note_on_c, 14, 35, 70
11, 95856, Note_off_c, 14, 35, 8
11, 95904, Note_on_c, 14, 31, 60
11, 95952, Note_off_c, 14, 31, 84
11, 96000, Note_on_c, 14, 36, 86
11, 96033, Note_off_c, 14, 36, 70
11, 96096, Note_on_c, 14, 36, 40
11, 96126, Note_off_c, 14, 36, 61
11, 96192, Note_on_c, 14, 36, 70
11, 96222, Note_off_c, 14, 36, 60
11, 96288, Note_on_c, 14, 36, 58
11, 96321, Note_off_c, 14, 36, 57
11, 96384, Note_on_c, 14, 38, 92
11, 96419, Note_off_c, 14, 38, 80
11, 96480, Note_on_c, 14, 38, 70
11, 96511, Note_off_c, 14, 38, 79
11, 96576, Note_on_c, 14, 38, 78
11, 96612, Note_off_c, 14, 38, 76
11, 96672, Note_on_c, 14, 38, 78
11, 96708, Note_off_c, 14, 38, 58
11, 96768, Note_on_c, 14, 35, 76
11, 96796, Note_off_c, 14, 35, 81
11, 96864, Note_on_c, 14, 35, 64
11, 96893, Note_off_c, 14, 35, 75
11, 96960, Note_on_c, 14, 35, 74
11, 96986, Note_off_c, 14, 35, 74
11, 97056, Note_on_c, 14, 35, 78
11, 97083, Note_off_c, 14, 35, 71
11, 97152, Note_on_c, 14, 36, 78
11, 97180, Note_off_c, 14, 36, 63
11, 97248, Note_on_c, 14, 36, 68
11, 97275, Note_off_c, 14, 36, 66
11, 97344, Note_on_c, 14, 36, 68
11, 97369, Note_off_c, 14, 36, 64
11, 97440, Note_on_c, 14, 36, 43
11, 97461, Note_off_c, 14, 36, 38
11, 97536, Note_on_c, 14, 38, 98
11, 97565, Note_off_c, 14, 38, 80
11, 97632, Note_on_c, 14, 38, 76
11, 97663, Note_off_c, 14, 38, 70
11, 97728, Note_on_c, 14, 38, 86
11, 97762, Note_off_c, 14, 38, 78
11, 97824, Note_on_c, 14, 38, 58
11, 97848, Note_off_c, 14, 38, 64
11, 97920, Note_on_c, 14, 38, 98
11, 97952, Note_off_c, 14, 38, 86
11, 98016, Note_on_c, 14, 38, 78
11, 98044, Note_off_c, 14, 38, 81
11, 98112, Note_on_c, 14, 38, 92
11, 98139, Note_off_c, 14, 38, 81
11, 98208, Note_on_c, 14, 38, 92
11, 98234, Note_off_c, 14, 38, 85
11, 98304, Note_on_c, 14, 38, 98
11, 98330, Note_off_c, 14, 38, 83
11, 98400, Note_on_c, 14, 38, 80
11, 98424, Note_off_c, 14, 38, 80
11, 98496, Note_on_c, 14, 38, 92
11, 98519, Note_off_c, 14, 38, 82
11, 98592, Note_on_c, 14, 38, 92
11, 98618, Note_off_c, 14, 38, 83
11, 98688, Note_on_c, 14, 38, 86
11, 98714, Note_off_c, 14, 38, 80
11, 98784, Note_on_c, 14, 38, 98
11, 98815, Note_off_c, 14, 38, 71
11, 98880, Note_on_c, 14, 38, 86
11, 98916, Note_off_c, 14, 38, 76
11, 99072, Note_on_c, 14, 31, 89
11, 99264, Note_off_c, 14, 31, 83
11, 99264, Note_on_c, 14, 43, 54
11, 99456, Note_on_c, 14, 42, 37
11, 99498, Note_off_c, 14, 43, 44
11, 99646, Note_off_c, 14, 42, 43
11, 99648, Note_on_c, 14, 40, 41
11, 99816, Note_off_c, 14, 40, 52
11, 99840, Note_on_c, 14, 39, 86
11, 99936, Note_off_c, 14, 39, 60
11, 100032, Note_on_c, 14, 40, 48
11, 100224, Note_on_c, 14, 38, 37
11, 100245, Note_off_c, 14, 40, 48
11, 100402, Note_off_c, 14, 38, 81
11, 100416, Note_on_c, 14, 36, 35
11, 100579, Note_off_c, 14, 36, 18
11, 100608, Note_on_c, 14, 35, 86
11, 100698, Note_off_c, 14, 35, 63
11, 100800, Note_on_c, 14, 36, 44
11, 100992, Note_on_c, 14, 35, 52
11, 101004, Note_off_c, 14, 36, 56
11, 101184, Note_off_c, 14, 35, 68
11, 101184, Note_on_c, 14, 33, 72
11, 101376, Note_off_c, 14, 33, 50
11, 101376, Note_on_c, 14, 32, 84
11, 101434, Note_off_c, 14, 32, 61
11, 101760, Note_on_c, 14, 32, 56
11, 101828, Note_off_c, 14, 32, 57
11, 102144, Note_on_c, 14, 33, 58
11, 102203, Note_off_c, 14, 33, 80
11, 102528, Note_on_c, 14, 33, 50
11, 102583, Note_off_c, 14, 33, 68
11, 102912, Note_on_c, 14, 35, 56
11, 102979, Note_off_c, 14, 35, 62
11, 103296, Note_on_c, 14, 35, 38
11, 103373, Note_off_c, 14, 35, 29
11, 103680, Note_on_c, 14, 36, 46
11, 103758, Note_off_c, 14, 36, 43
11, 104064, Note_on_c, 14, 36, 30
11, 104162, Note_off_c, 14, 36, 54
11, 104448, Note_on_c, 14, 38, 50
11, 104753, Note_off_c, 14, 38, 53
11, 104832, Note_on_c, 14, 40, 54
11, 104865, Note_off_c, 14, 40, 68
11, 105024, Note_on_c, 14, 40, 52
11, 105064, Note_off_c, 14, 40, 44
11, 105216, Note_on_c, 14, 45, 78
11, 105246, Note_off_c, 14, 45, 76
11, 105408, Note_on_c, 14, 47, 60
11, 105446, Note_off_c, 14, 47, 48
11, 105600, Note_on_c, 14, 48, 48
11, 105892, Note_off_c, 14, 48, 48
11, 105984, Note_on_c, 14, 50, 54
11, 106320, Note_off_c, 14, 50, 46
11, 106368, Note_on_c, 14, 52, 54
11, 106536, Note_off_c, 14, 52, 74
11, 106560, Note_on_c, 14, 40, 46
11, 106704, Note_off_c, 14, 40, 60
11, 106752, Note_on_c, 14, 45, 58
11, 106848, Note_off_c, 14, 45, 83
11, 106944, Note_on_c, 14, 48, 46
11, 107136, Note_on_c, 14, 47, 36
11, 107145, Note_off_c, 14, 48, 34
11, 107328, Note_on_c, 14, 45, 50
11, 107330, Note_off_c, 14, 47, 41
11, 107496, Note_off_c, 14, 45, 52
11, 107520, Note_on_c, 14, 44, 71
11, 107616, Note_off_c, 14, 44, 63
11, 107712, Note_on_c, 14, 45, 31
11, 107904, Note_on_c, 14, 43, 27
11, 107919, Note_off_c, 14, 45, 70
11, 108096, Note_off_c, 14, 43, 52
11, 108096, Note_on_c, 14, 41, 40
11, 108288, Note_off_c, 14, 41, 26
11, 108288, Note_on_c, 14, 40, 66
11, 108384, Note_off_c, 14, 40, 72
11, 108480, Note_on_c, 14, 41, 46
11, 108665, Note_off_c, 14, 41, 65
11, 108672, Note_on_c, 14, 40, 38
11, 108830, Note_off_c, 14, 40, 39
11, 108864, Note_on_c, 14, 38, 44
11, 109056, Note_off_c, 14, 38, 15
11, 109056, Note_on_c, 14, 37, 46
11, 109152, Note_off_c, 14, 37, 65
11, 109440, Note_on_c, 14, 37, 31
11, 109538, Note_off_c, 14, 37, 50
11, 109824, Note_on_c, 14, 38, 34
11, 109940, Note_off_c, 14, 38, 56
11, 110208, Note_on_c, 14, 38, 34
11, 110310, Note_off_c, 14, 38, 62
11, 110592, Note_on_c, 14, 40, 34
11, 110678, Note_off_c, 14, 40, 43
11, 110976, Note_on_c, 14, 40, 34
11, 111043, Note_off_c, 14, 40, 63
11, 111360, Note_on_c, 14, 41, 34
11, 111432, Note_off_c, 14, 41, 55
11, 111744, Note_on_c, 14, 41, 34
11, 111808, Note_off_c, 14, 41, 54
11, 112128, Note_on_c, 14, 43, 34
11, 112343, Note_off_c, 14, 43, 63
11, 112512, Note_on_c, 14, 45, 34
11, 112559, Note_off_c, 14, 45, 76
11, 112704, Note_on_c, 14, 45, 34
11, 112742, Note_off_c, 14, 45, 83
11, 112896, Note_on_c, 14, 38, 80
11, 112922, Note_off_c, 14, 38, 80
11, 113088, Note_on_c, 14, 40, 68
11, 113113, Note_off_c, 14, 40, 65
11, 113280, Note_on_c, 14, 41, 68
11, 113443, Note_off_c, 14, 41, 38
11, 113664, Note_on_c, 14, 46, 60
11, 113944, Note_off_c, 14, 46, 5
11, 114048, Note_on_c, 14, 45, 92
11, 114089, Note_off_c, 14, 45, 84
11, 114240, Note_on_c, 14, 33, 86
11, 114265, Note_off_c, 14, 33, 91
11, 114432, Note_on_c, 14, 38, 76
11, 114622, Note_off_c, 14, 38, 71
11, 126720, Note_on_c, 14, 43, 58
11, 126912, Note_off_c, 14, 43, 64
11, 127104, Note_on_c, 14, 43, 104
11, 127253, Note_off_c, 14, 43, 47
11, 127488, Note_on_c, 14, 43, 109
11, 127626, Note_off_c, 14, 43, 85
11, 127872, Note_on_c, 14, 43, 104
11, 128000, Note_off_c, 14, 43, 52
11, 128256, Note_on_c, 14, 43, 109
11, 128421, Note_off_c, 14, 43, 61
11, 128640, Note_on_c, 14, 43, 115
11, 128837, Note_off_c, 14, 43, 85
11, 129024, Note_on_c, 14, 48, 58
11, 129264, Note_off_c, 14, 48, 14
11, 129312, Note_on_c, 14, 43, 80
11, 129360, Note_off_c, 14, 43, 64
11, 129408, Note_on_c, 14, 40, 70
11, 129456, Note_off_c, 14, 40, 62
11, 129504, Note_on_c, 14, 36, 72
11, 129552, Note_off_c, 14, 36, 49
11, 129600, Note_on_c, 14, 40, 76
11, 129648, Note_off_c, 14, 40, 25
11, 129696, Note_on_c, 14, 43, 80
11, 129744, Note_off_c, 14, 43, 55
11, 129792, Note_on_c, 14, 48, 76
11, 130008, Note_off_c, 14, 48, 24
11, 130080, Note_on_c, 14, 43, 80
11, 130128, Note_off_c, 14, 43, 56
11, 130176, Note_on_c, 14, 40, 76
11, 130224, Note_off_c, 14, 40, 48
11, 130272, Note_on_c, 14, 36, 64
11, 130320, Note_off_c, 14, 36, 33
11, 130368, Note_on_c, 14, 40, 78
11, 130440, Note_off_c, 14, 40, 51
11, 130464, Note_on_c, 14, 43, 58
11, 130512, Note_off_c, 14, 43, 46
11, 130560, Note_on_c, 14, 36, 72
11, 130656, Note_off_c, 14, 36, 44
11, 130752, Note_on_c, 14, 36, 40
11, 130927, Note_off_c, 14, 36, 48
11, 130944, Note_on_c, 14, 35, 40
11, 131136, Note_on_c, 14, 36, 44
11, 131144, Note_off_c, 14, 35, 76
11, 131324, Note_off_c, 14, 36, 66
11, 131328, Note_on_c, 14, 38, 66
11, 131437, Note_off_c, 14, 38, 70
11, 131520, Note_on_c, 14, 38, 48
11, 131712, Note_on_c, 14, 37, 49
11, 131717, Note_off_c, 14, 38, 55
11, 131875, Note_off_c, 14, 37, 12
11, 131904, Note_on_c, 14, 38, 44
11, 132096, Note_off_c, 14, 38, 10
11, 132096, Note_on_c, 14, 40, 62
11, 132216, Note_off_c, 14, 40, 47
11, 132288, Note_on_c, 14, 40, 44
11, 132480, Note_on_c, 14, 39, 47
11, 132481, Note_off_c, 14, 40, 54
11, 132639, Note_off_c, 14, 39, 31
11, 132672, Note_on_c, 14, 40, 46
11, 132864, Note_on_c, 14, 41, 46
11, 132889, Note_off_c, 14, 40, 72
11, 133056, Note_on_c, 14, 43, 48
11, 133077, Note_off_c, 14, 41, 83
11, 133248, Note_on_c, 14, 45, 49
11, 133273, Note_off_c, 14, 43, 95
11, 133440, Note_on_c, 14, 47, 56
11, 133459, Note_off_c, 14, 45, 75
11, 133597, Note_off_c, 14, 47, 58
11, 133632, Note_on_c, 14, 48, 72
11, 133824, Note_off_c, 14, 48, 8
11, 143712, Note_on_c, 14, 43, 124
11, 143740, Note_off_c, 14, 43, 93
11, 143808, Note_on_c, 14, 47, 124
11, 143835, Note_off_c, 14, 47, 76
11, 143904, Note_on_c, 14, 43, 124
11, 143952, Note_off_c, 14, 43, 92
11, 144000, Note_on_c, 14, 38, 124
11, 144027, Note_off_c, 14, 38, 95
11, 144096, Note_on_c, 14, 43, 124
11, 144127, Note_off_c, 14, 43, 82
11, 144192, Note_on_c, 14, 35, 124
11, 144216, Note_off_c, 14, 35, 90
11, 144288, Note_on_c, 14, 38, 124
11, 144313, Note_off_c, 14, 38, 95
11, 144384, Note_on_c, 14, 31, 124
11, 144586, Note_off_c, 14, 31, 102
11, 152064, Note_on_c, 14, 41, 56
11, 152627, Note_off_c, 14, 41, 82
11, 152640, Note_on_c, 14, 37, 44
11, 152832, Note_on_c, 14, 38, 58
11, 152848, Note_off_c, 14, 37, 42
11, 153024, Note_on_c, 14, 40, 58
11, 153046, Note_off_c, 14, 38, 74
11, 153216, Note_on_c, 14, 41, 66
11, 153229, Note_off_c, 14, 40, 63
11, 153408, Note_on_c, 14, 42, 34
11, 153433, Note_off_c, 14, 41, 81
11, 153590, Note_off_c, 14, 42, 30
11, 153600, Note_on_c, 14, 43, 78
11, 153682, Note_off_c, 14, 43, 67
11, 155136, Program_c, 14, 45
11, 155136, Note_on_c, 14, 36, 48
11, 155171, Note_off_c, 14, 36, 65
11, 155328, Note_on_c, 14, 48, 50
11, 155366, Note_off_c, 14, 48, 43
11, 155520, Note_on_c, 14, 43, 74
11, 155545, Note_off_c, 14, 43, 89
11, 155712, Note_on_c, 14, 40, 56
11, 155736, Note_off_c, 14, 40, 85
11, 155904, Note_on_c, 14, 36, 44
11, 155933, Note_off_c, 14, 36, 62
11, 156096, Note_on_c, 14, 40, 46
11, 156125, Note_off_c, 14, 40, 62
11, 156288, Note_on_c, 14, 43, 62
11, 156323, Note_off_c, 14, 43, 67
11, 156480, Note_on_c, 14, 48, 42
11, 156509, Note_off_c, 14, 48, 51
11, 156672, Note_on_c, 14, 43, 68
11, 156727, Note_off_c, 14, 43, 85
11, 158208, Note_on_c, 14, 36, 58
11, 158257, Note_off_c, 14, 36, 49
11, 158400, Note_on_c, 14, 48, 58
11, 158437, Note_off_c, 14, 48, 35
11, 158592, Note_on_c, 14, 43, 88
11, 158625, Note_off_c, 14, 43, 75
11, 158784, Note_on_c, 14, 40, 68
11, 158820, Note_off_c, 14, 40, 59
11, 158976, Note_on_c, 14, 36, 68
11, 159019, Note_off_c, 14, 36, 55
11, 159168, Note_on_c, 14, 40, 68
11, 159206, Note_off_c, 14, 40, 64
11, 159360, Note_on_c, 14, 43, 88
11, 159401, Note_off_c, 14, 43, 59
11, 159552, Note_on_c, 14, 48, 54
11, 159594, Note_off_c, 14, 48, 54
11, 159648, Program_c, 14, 48
11, 159744, Note_on_c, 14, 43, 85
11, 159779, Note_off_c, 14, 43, 78
11, 159840, Note_on_c, 14, 47, 85
11, 159875, Note_off_c, 14, 47, 59
11, 159936, Note_on_c, 14, 50, 85
11, 159976, Note_off_c, 14, 50, 74
11, 160032, Note_on_c, 14, 47, 85
11, 160063, Note_off_c, 14, 47, 44
11, 160128, Note_on_c, 14, 48, 85
11, 160182, Note_off_c, 14, 48, 30
11, 160224, Note_on_c, 14, 43, 85
11, 160263, Note_off_c, 14, 43, 70
11, 160320, Note_on_c, 14, 40, 85
11, 160380, Note_off_c, 14, 40, 47
11, 160416, Note_on_c, 14, 36, 85
11, 160443, Note_off_c, 14, 36, 71
11, 160512, Note_on_c, 14, 43, 85
11, 160559, Note_off_c, 14, 43, 46
11, 160608, Note_on_c, 14, 47, 85
11, 160654, Note_off_c, 14, 47, 63
11, 160704, Note_on_c, 14, 50, 85
11, 160745, Note_off_c, 14, 50, 84
11, 160800, Note_on_c, 14, 47, 85
11, 160857, Note_off_c, 14, 47, 39
11, 160896, Note_on_c, 14, 48, 85
11, 160945, Note_off_c, 14, 48, 31
11, 160992, Note_on_c, 14, 43, 85
11, 161023, Note_off_c, 14, 43, 89
11, 161088, Note_on_c, 14, 40, 85
11, 161118, Note_off_c, 14, 40, 80
11, 161184, Note_on_c, 14, 36, 85
11, 161215, Note_off_c, 14, 36, 70
11, 161280, Note_on_c, 14, 31, 85
11, 161365, Note_off_c, 14, 31, 65
11, 161472, Note_on_c, 14, 43, 85
11, 161664, Note_off_c, 14, 43, 56
11, 161664, Note_on_c, 14, 31, 85
11, 161846, Note_off_c, 14, 31, 72
11, 163584, Program_c, 14, 45
11, 163584, Note_on_c, 14, 36, 64
11, 163618, Note_off_c, 14, 36, 66
11, 163968, Note_on_c, 14, 40, 62
11, 164004, Note_off_c, 14, 40, 79
11, 164352, Note_on_c, 14, 38, 56
11, 164387, Note_off_c, 14, 38, 89
11, 164736, Note_on_c, 14, 31, 60
11, 164785, Note_off_c, 14, 31, 66
11, 165120, Note_on_c, 14, 36, 48
11, 165165, Note_off_c, 14, 36, 62
11, 165504, Note_on_c, 14, 40, 48
11, 165544, Note_off_c, 14, 40, 70
11, 165888, Note_on_c, 14, 38, 56
11, 165937, Note_off_c, 14, 38, 75
11, 166272, Note_on_c, 14, 31, 46
11, 166310, Note_off_c, 14, 31, 97
11, 166656, Note_on_c, 14, 36, 52
11, 166698, Note_off_c, 14, 36, 60
11, 167040, Note_on_c, 14, 36, 37
11, 167090, Note_off_c, 14, 36, 62
11, 167424, Note_on_c, 14, 36, 52
11, 167464, Note_off_c, 14, 36, 64
11, 167808, Note_on_c, 14, 36, 62
11, 167841, Note_off_c, 14, 36, 51
11, 168192, Note_on_c, 14, 36, 54
11, 168220, Note_off_c, 14, 36, 64
11, 168576, Note_on_c, 14, 36, 48
11, 168617, Note_off_c, 14, 36, 58
11, 168696, Program_c, 14, 48
11, 170496, Note_on_c, 14, 38, 80
11, 170880, Note_on_c, 14, 43, 80
11, 170939, Note_off_c, 14, 38, 59
11, 171264, Note_off_c, 14, 43, 83
11, 171264, Note_on_c, 14, 36, 84
11, 171648, Note_on_c, 14, 45, 88
11, 171672, Note_off_c, 14, 36, 32
11, 172013, Note_off_c, 14, 45, 78
11, 172032, Note_on_c, 14, 41, 90
11, 172392, Note_off_c, 14, 41, 36
11, 172416, Note_on_c, 14, 43, 82
11, 172776, Note_off_c, 14, 43, 74
11, 172800, Note_on_c, 14, 36, 98
11, 172824, Note_off_c, 14, 36, 70
11, 172896, Note_on_c, 14, 38, 109
11, 172920, Note_off_c, 14, 38, 95
11, 172992, Note_on_c, 14, 40, 86
11, 173016, Note_off_c, 14, 40, 85
11, 173088, Note_on_c, 14, 41, 95
11, 173111, Note_off_c, 14, 41, 89
11, 173184, Note_on_c, 14, 43, 74
11, 173382, Note_off_c, 14, 43, 101
11, 175881, Note_on_c, 14, 36, 39
11, 176073, Note_off_c, 14, 36, 51
11, 184320, Note_on_c, 14, 43, 70
11, 184479, Note_off_c, 14, 43, 52
11, 184704, Note_on_c, 14, 43, 64
11, 184906, Note_off_c, 14, 43, 83
11, 185088, Note_on_c, 14, 43, 78
11, 185118, Note_off_c, 14, 43, 67
11, 185184, Note_on_c, 14, 43, 92
11, 185212, Note_off_c, 14, 43, 81
11, 185280, Note_on_c, 14, 43, 109
11, 185309, Note_off_c, 14, 43, 87
11, 185376, Note_on_c, 14, 43, 104
11, 185404, Note_off_c, 14, 43, 85
11, 185472, Note_on_c, 14, 43, 104
11, 185505, Note_off_c, 14, 43, 84
11, 185568, Note_on_c, 14, 43, 98
11, 185601, Note_off_c, 14, 43, 81
11, 185664, Note_on_c, 14, 43, 86
11, 185698, Note_off_c, 14, 43, 74
11, 185760, Note_on_c, 14, 43, 80
11, 185805, Note_off_c, 14, 43, 46
11, 185856, Note_on_c, 14, 36, 109
11, 186037, Note_off_c, 14, 36, 34
11, 186240, Note_on_c, 14, 48, 104
11, 186420, Note_off_c, 14, 48, 36
11, 186528, Note_on_c, 14, 43, 115
11, 186580, Note_off_c, 14, 43, 85
11, 186624, Note_on_c, 14, 40, 115
11, 186688, Note_off_c, 14, 40, 49
11, 186720, Note_on_c, 14, 36, 76
11, 186766, Note_off_c, 14, 36, 53
11, 186816, Note_on_c, 14, 40, 104
11, 186865, Note_off_c, 14, 40, 70
11, 186912, Note_on_c, 14, 43, 115
11, 186970, Note_off_c, 14, 43, 48
11, 187008, Note_on_c, 14, 48, 104
11, 187207, Note_off_c, 14, 48, 47
11, 187296, Note_on_c, 14, 43, 115
11, 187343, Note_off_c, 14, 43, 75
11, 187392, Note_on_c, 14, 40, 92
11, 187484, Note_off_c, 14, 40, 1
11, 187488, Note_on_c, 14, 36, 74
11, 187532, Note_off_c, 14, 36, 48
11, 187584, Note_on_c, 14, 40, 92
11, 187643, Note_off_c, 14, 40, 49
11, 187680, Note_on_c, 14, 43, 109
11, 187740, Note_off_c, 14, 43, 45
11, 187776, Note_on_c, 14, 48, 76
11, 187811, Note_off_c, 14, 48, 67
11, 187872, Note_on_c, 14, 45, 109
11, 187929, Note_off_c, 14, 45, 75
11, 187968, Note_on_c, 14, 48, 86
11, 188015, Note_off_c, 14, 48, 37
11, 188064, Note_on_c, 14, 52, 104
11, 188089, Note_off_c, 14, 52, 78
11, 188160, Note_on_c, 14, 45, 92
11, 188216, Note_off_c, 14, 45, 30
11, 188256, Note_on_c, 14, 41, 80
11, 188311, Note_off_c, 14, 41, 38
11, 188352, Note_on_c, 14, 45, 115
11, 188416, Note_off_c, 14, 45, 40
11, 188448, Note_on_c, 14, 48, 76
11, 188486, Note_off_c, 14, 48, 52
11, 188544, Note_on_c, 14, 41, 115
11, 188544, Note_on_c, 14, 40, 98
11, 188575, Note_off_c, 14, 40, 32
11, 188583, Note_off_c, 14, 41, 40
11, 188640, Note_on_c, 14, 38, 72
11, 188688, Note_off_c, 14, 38, 68
11, 188736, Note_on_c, 14, 41, 109
11, 188797, Note_off_c, 14, 41, 52
11, 188832, Note_on_c, 14, 47, 80
11, 188862, Note_off_c, 14, 47, 65
11, 188928, Note_on_c, 14, 41, 100
11, 188971, Note_off_c, 14, 41, 81
11, 189024, Note_on_c, 14, 37, 100
11, 189068, Note_off_c, 14, 37, 55
11, 189120, Note_on_c, 14, 38, 100
11, 189161, Note_off_c, 14, 38, 72
11, 189216, Note_on_c, 14, 40, 100
11, 189256, Note_off_c, 14, 40, 68
11, 189312, Note_on_c, 14, 41, 100
11, 189347, Note_off_c, 14, 41, 85
11, 189408, Note_on_c, 14, 41, 100
11, 189440, Note_off_c, 14, 41, 89
11, 189504, Note_on_c, 14, 42, 100
11, 189534, Note_off_c, 14, 42, 66
11, 189600, Note_on_c, 14, 42, 100
11, 189629, Note_off_c, 14, 42, 67
11, 189696, Note_on_c, 14, 43, 100
11, 189730, Note_off_c, 14, 43, 81
11, 189792, Note_on_c, 14, 47, 100
11, 189829, Note_off_c, 14, 47, 76
11, 189888, Note_on_c, 14, 50, 100
11, 189930, Note_off_c, 14, 50, 79
11, 189984, Note_on_c, 14, 47, 100
11, 190015, Note_off_c, 14, 47, 64
11, 190080, Note_on_c, 14, 48, 100
11, 190114, Note_off_c, 14, 48, 71
11, 190176, Note_on_c, 14, 43, 100
11, 190205, Note_off_c, 14, 43, 87
11, 190272, Note_on_c, 14, 40, 100
11, 190302, Note_off_c, 14, 40, 65
11, 190368, Note_on_c, 14, 36, 100
11, 190401, Note_off_c, 14, 36, 77
11, 190464, Note_on_c, 14, 43, 100
11, 190492, Note_off_c, 14, 43, 88
11, 190560, Note_on_c, 14, 47, 100
11, 190592, Note_off_c, 14, 47, 73
11, 190656, Note_on_c, 14, 50, 100
11, 190690, Note_off_c, 14, 50, 67
11, 190752, Note_on_c, 14, 47, 100
11, 190790, Note_off_c, 14, 47, 56
11, 190848, Note_on_c, 14, 48, 100
11, 190871, Note_off_c, 14, 48, 75
11, 190944, Note_on_c, 14, 43, 100
11, 190971, Note_off_c, 14, 43, 92
11, 191040, Note_on_c, 14, 40, 100
11, 191070, Note_off_c, 14, 40, 80
11, 191136, Note_on_c, 14, 36, 100
11, 191164, Note_off_c, 14, 36, 79
11, 191232, Note_on_c, 14, 31, 100
11, 191316, Channel_aftertouch_c, 14, 2
11, 191328, Channel_aftertouch_c, 14, 4
11, 191430, Channel_aftertouch_c, 14, 2
11, 191453, Channel_aftertouch_c, 14, 0
11, 191525, Note_off_c, 14, 31, 89
11, 195072, Note_on_c, 14, 48, 100
11, 195120, Note_off_c, 14, 48, 59
11, 195168, Note_on_c, 14, 48, 100
11, 195216, Note_off_c, 14, 48, 52
11, 195264, Note_on_c, 14, 48, 100
11, 195312, Note_off_c, 14, 48, 64
11, 195360, Note_on_c, 14, 48, 100
11, 195408, Note_off_c, 14, 48, 55
11, 195456, Note_on_c, 14, 48, 100
11, 195504, Note_off_c, 14, 48, 66
11, 195552, Note_on_c, 14, 48, 100
11, 195600, Note_off_c, 14, 48, 66
11, 195648, Note_on_c, 14, 48, 100
11, 195696, Note_off_c, 14, 48, 63
11, 195744, Note_on_c, 14, 48, 100
11, 195792, Note_off_c, 14, 48, 59
11, 195840, Note_on_c, 14, 48, 100
11, 195888, Note_off_c, 14, 48, 66
11, 195936, Note_on_c, 14, 48, 100
11, 195984, Note_off_c, 14, 48, 54
11, 196032, Note_on_c, 14, 48, 100
11, 196080, Note_off_c, 14, 48, 52
11, 196128, Note_on_c, 14, 48, 100
11, 196176, Note_off_c, 14, 48, 47
11, 196224, Note_on_c, 14, 48, 100
11, 196272, Note_off_c, 14, 48, 62
11, 196320, Note_on_c, 14, 48, 100
11, 196368, Note_off_c, 14, 48, 52
11, 196416, Note_on_c, 14, 48, 100
11, 196464, Note_off_c, 14, 48, 54
11, 196512, Note_on_c, 14, 48, 100
11, 196560, Note_off_c, 14, 48, 58
11, 196608, Note_on_c, 14, 48, 74
11, 196680, Note_off_c, 14, 48, 68
11, 196704, Note_on_c, 14, 36, 74
11, 196729, Note_off_c, 14, 36, 60
11, 196800, Note_on_c, 14, 36, 74
11, 196835, Note_off_c, 14, 36, 63
11, 196896, Note_on_c, 14, 36, 74
11, 196922, Note_off_c, 14, 36, 60
11, 196992, Note_on_c, 14, 36, 74
11, 197017, Note_off_c, 14, 36, 51
11, 197088, Note_on_c, 14, 36, 74
11, 197113, Note_off_c, 14, 36, 55
11, 197184, Note_on_c, 14, 36, 74
11, 197207, Note_off_c, 14, 36, 55
11, 197280, Note_on_c, 14, 36, 74
11, 197313, Note_off_c, 14, 36, 28
11, 197376, Note_on_c, 14, 36, 74
11, 197402, Note_off_c, 14, 36, 48
11, 197472, Note_on_c, 14, 36, 74
11, 197497, Note_off_c, 14, 36, 41
11, 197568, Note_on_c, 14, 36, 74
11, 197597, Note_off_c, 14, 36, 54
11, 197664, Note_on_c, 14, 36, 74
11, 197692, Note_off_c, 14, 36, 45
11, 197760, Note_on_c, 14, 36, 74
11, 197779, Note_off_c, 14, 36, 67
11, 197856, Note_on_c, 14, 48, 104
11, 197920, Note_off_c, 14, 48, 76
11, 197952, Note_on_c, 14, 48, 104
11, 198016, Note_off_c, 14, 48, 66
11, 198048, Note_on_c, 14, 48, 104
11, 198112, Note_off_c, 14, 48, 56
11, 198144, Note_on_c, 14, 47, 100
11, 198192, Note_off_c, 14, 47, 66
11, 198240, Note_on_c, 14, 50, 100
11, 198288, Note_off_c, 14, 50, 61
11, 198336, Note_on_c, 14, 47, 100
11, 198384, Note_off_c, 14, 47, 42
11, 198432, Note_on_c, 14, 43, 100
11, 198480, Note_off_c, 14, 43, 63
11, 198528, Note_on_c, 14, 41, 100
11, 198576, Note_off_c, 14, 41, 67
11, 198624, Note_on_c, 14, 38, 100
11, 198672, Note_off_c, 14, 38, 83
11, 198720, Note_on_c, 14, 35, 100
11, 198768, Note_off_c, 14, 35, 81
11, 198816, Note_on_c, 14, 31, 100
11, 198864, Note_off_c, 14, 31, 87
11, 198912, Note_on_c, 14, 36, 100
11, 198984, Note_off_c, 14, 36, 68
11, 199008, Note_on_c, 14, 52, 100
11, 199056, Note_off_c, 14, 52, 83
11, 199104, Note_on_c, 14, 48, 100
11, 199152, Note_off_c, 14, 48, 51
11, 199200, Note_on_c, 14, 43, 100
11, 199248, Note_off_c, 14, 43, 86
11, 199296, Note_on_c, 14, 40, 100
11, 199344, Note_off_c, 14, 40, 68
11, 199392, Note_on_c, 14, 43, 100
11, 199440, Note_off_c, 14, 43, 73
11, 199488, Note_on_c, 14, 40, 100
11, 199536, Note_off_c, 14, 40, 63
11, 199584, Note_on_c, 14, 36, 100
11, 199632, Note_off_c, 14, 36, 42
11, 199680, Note_on_c, 14, 41, 100
11, 199728, Note_off_c, 14, 41, 66
11, 199776, Note_on_c, 14, 41, 100
11, 199824, Note_off_c, 14, 41, 75
11, 199872, Note_on_c, 14, 41, 100
11, 199920, Note_off_c, 14, 41, 75
11, 199968, Note_on_c, 14, 41, 100
11, 200016, Note_off_c, 14, 41, 71
11, 200064, Note_on_c, 14, 43, 100
11, 200112, Note_off_c, 14, 43, 74
11, 200160, Note_on_c, 14, 43, 100
11, 200208, Note_off_c, 14, 43, 68
11, 200256, Note_on_c, 14, 43, 100
11, 200304, Note_off_c, 14, 43, 58
11, 200352, Note_on_c, 14, 43, 100
11, 200400, Note_off_c, 14, 43, 76
11, 200448, Note_on_c, 14, 40, 86
11, 200471, Note_off_c, 14, 40, 56
11, 200544, Note_on_c, 14, 40, 78
11, 200566, Note_off_c, 14, 40, 72
11, 200640, Note_on_c, 14, 40, 92
11, 200660, Note_off_c, 14, 40, 74
11, 200736, Note_on_c, 14, 40, 86
11, 200760, Note_off_c, 14, 40, 67
11, 200832, Note_on_c, 14, 41, 109
11, 200854, Note_off_c, 14, 41, 82
11, 200928, Note_on_c, 14, 41, 98
11, 200947, Note_off_c, 14, 41, 79
11, 201024, Note_on_c, 14, 41, 109
11, 201046, Note_off_c, 14, 41, 80
11, 201120, Note_on_c, 14, 41, 104
11, 201143, Note_off_c, 14, 41, 78
11, 201216, Note_on_c, 14, 43, 74
11, 201216, Note_on_c, 14, 45, 86
11, 201224, Note_off_c, 14, 45, 82
11, 201228, Note_off_c, 14, 43, 81
11, 201312, Note_on_c, 14, 43, 98
11, 201331, Note_off_c, 14, 43, 81
11, 201408, Note_on_c, 14, 43, 104
11, 201427, Note_off_c, 14, 43, 85
11, 201504, Note_on_c, 14, 43, 109
11, 201523, Note_off_c, 14, 43, 78
11, 201600, Note_on_c, 14, 43, 109
11, 201620, Note_off_c, 14, 43, 87
11, 201696, Note_on_c, 14, 43, 121
11, 201718, Note_off_c, 14, 43, 81
11, 201792, Note_on_c, 14, 31, 98
11, 201825, Note_off_c, 14, 31, 60
11, 201888, Note_on_c, 14, 31, 109
11, 201915, Note_off_c, 14, 31, 90
11, 201984, Note_on_c, 14, 36, 70
11, 202019, Note_off_c, 14, 36, 48
11, 202080, Note_on_c, 14, 40, 80
11, 202115, Note_off_c, 14, 40, 62
11, 202176, Note_on_c, 14, 43, 98
11, 202212, Note_off_c, 14, 43, 42
11, 202272, Note_on_c, 14, 40, 68
11, 202302, Note_off_c, 14, 40, 55
11, 202368, Note_on_c, 14, 36, 72
11, 202399, Note_off_c, 14, 36, 58
11, 202464, Note_on_c, 14, 40, 76
11, 202491, Note_off_c, 14, 40, 59
11, 202560, Note_on_c, 14, 43, 92
11, 202588, Note_off_c, 14, 43, 74
11, 202656, Note_on_c, 14, 40, 72
11, 202678, Note_off_c, 14, 40, 64
11, 202752, Note_on_c, 14, 36, 80
11, 202786, Note_off_c, 14, 36, 53
11, 202848, Note_on_c, 14, 40, 70
11, 202875, Note_off_c, 14, 40, 45
11, 202944, Note_on_c, 14, 43, 86
11, 202974, Note_off_c, 14, 43, 67
11, 203040, Note_on_c, 14, 40, 74
11, 203065, Note_off_c, 14, 40, 60
11, 203136, Note_on_c, 14, 36, 72
11, 203168, Note_off_c, 14, 36, 64
11, 203232, Note_on_c, 14, 40, 68
11, 203257, Note_off_c, 14, 40, 53
11, 203328, Note_on_c, 14, 43, 86
11, 203362, Note_off_c, 14, 43, 59
11, 203424, Note_on_c, 14, 40, 72
11, 203454, Note_off_c, 14, 40, 53
11, 203520, Note_on_c, 14, 48, 72
11, 203753, Note_off_c, 14, 48, 54
11, 203808, Note_on_c, 14, 43, 107
11, 203845, Note_off_c, 14, 43, 94
11, 203904, Note_on_c, 14, 40, 95
11, 203940, Note_off_c, 14, 40, 61
11, 204000, Note_on_c, 14, 36, 78
11, 204045, Note_off_c, 14, 36, 47
11, 204096, Note_on_c, 14, 40, 84
11, 204138, Note_off_c, 14, 40, 71
11, 204192, Note_on_c, 14, 43, 95
11, 204234, Note_off_c, 14, 43, 74
11, 204288, Note_on_c, 14, 48, 89
11, 204501, Note_off_c, 14, 48, 50
11, 204576, Note_on_c, 14, 43, 101
11, 204604, Note_off_c, 14, 43, 88
11, 204672, Note_on_c, 14, 40, 95
11, 204705, Note_off_c, 14, 40, 67
11, 204768, Note_on_c, 14, 36, 36
11, 204812, Note_off_c, 14, 36, 56
11, 204864, Note_on_c, 14, 40, 72
11, 204904, Note_off_c, 14, 40, 72
11, 204960, Note_on_c, 14, 43, 95
11, 205001, Note_off_c, 14, 43, 79
11, 205056, Note_on_c, 14, 48, 89
11, 205173, Note_off_c, 14, 48, 38
11, 205248, Note_on_c, 14, 48, 89
11, 205356, Note_off_c, 14, 48, 35
11, 205440, Note_on_c, 14, 43, 107
11, 205540, Note_off_c, 14, 43, 82
11, 205632, Note_on_c, 14, 40, 78
11, 205690, Note_off_c, 14, 40, 66
11, 205824, Note_on_c, 14, 36, 95
11, 206137, Note_off_c, 14, 36, 65
11, 206137, End_track
12, 0, Start_track
12, 0, MIDI_port, 0
12, 0, Title_t, "Sequenced by        "
12, 0, End_track
13, 0, Start_track
13, 0, MIDI_port, 0
13, 0, Title_t, "Jonathan A. Govias  "
13, 0, End_track
14, 0, Start_track
14, 0, MIDI_port, 0
14, 0, Title_t, "jgovias@            "
14, 0, End_track
15, 0, Start_track
15, 0, MIDI_port, 0
15, 0, Title_t, "gpu.srv.ualberta.ca "
15, 0, End_track
16, 0, Start_track
16, 0, MIDI_port, 0
16, 0, Title_t, "Edmonton, Alberta   "
16, 0, End_track
17, 0, Start_track
17, 0, MIDI_port, 0
17, 0, Title_t, "Canada              "
17, 0, End_track
0, 0, End_of_file
