0, 0, Header, 1, 11, 48
1, 0, Start_track
1, 0, Time_signature, 4, 2, 24, 8
1, 0, Tempo, 697674
1, 48, Tempo, 697674
1, 192, Tempo, 697674
1, 384, Tempo, 697674
1, 576, Tempo, 697674
1, 768, Tempo, 697674
1, 960, Tempo, 697674
1, 1152, Tempo, 697674
1, 1344, Tempo, 697674
1, 1536, Tempo, 697674
1, 1728, Tempo, 697674
1, 1920, Tempo, 697674
1, 2112, Tempo, 697674
1, 2304, Tempo, 697674
1, 2496, Tempo, 697674
1, 2688, Tempo, 697674
1, 2880, Tempo, 697674
1, 3072, Tempo, 697674
1, 3264, Tempo, 697674
1, 3456, Tempo, 697674
1, 3648, Tempo, 697674
1, 3840, Tempo, 697674
1, 4032, Tempo, 697674
1, 4224, Tempo, 697674
1, 4416, Tempo, 697674
1, 4608, Tempo, 697674
1, 4800, Tempo, 697674
1, 4992, Tempo, 697674
1, 5184, Tempo, 697674
1, 5376, Tempo, 697674
1, 5568, Tempo, 697674
1, 5760, Tempo, 697674
1, 5952, Tempo, 697674
1, 6144, Tempo, 697674
1, 6336, Tempo, 697674
1, 6528, Tempo, 697674
1, 6720, Tempo, 697674
1, 6912, Tempo, 697674
1, 7104, Tempo, 697674
1, 7296, Tempo, 697674
1, 7488, Tempo, 697674
1, 7680, Tempo, 697674
1, 7872, Tempo, 697674
1, 8064, Tempo, 697674
1, 8256, Tempo, 697674
1, 8448, Tempo, 697674
1, 8640, Tempo, 697674
1, 8832, Tempo, 697674
1, 9024, Tempo, 697674
1, 9216, Tempo, 697674
1, 9408, Tempo, 697674
1, 9600, Tempo, 697674
1, 9792, Tempo, 697674
1, 9984, Tempo, 697674
1, 10176, Tempo, 697674
1, 10368, Tempo, 697674
1, 10560, Tempo, 697674
1, 10752, Tempo, 697674
1, 10944, Tempo, 697674
1, 11136, Tempo, 697674
1, 11328, Tempo, 697674
1, 11520, Tempo, 697674
1, 11712, Tempo, 697674
1, 11904, Tempo, 697674
1, 12096, Tempo, 697674
1, 12288, Tempo, 697674
1, 12480, Tempo, 697674
1, 12672, Tempo, 697674
1, 12864, Tempo, 697674
1, 13056, Tempo, 697674
1, 13248, Tempo, 697674
1, 13440, Tempo, 697674
1, 13632, Tempo, 697674
1, 13824, Tempo, 697674
1, 14016, Tempo, 697674
1, 14208, Tempo, 697674
1, 14400, Tempo, 697674
1, 14592, Tempo, 697674
1, 14784, Tempo, 697674
1, 14976, Tempo, 697674
1, 15168, Tempo, 697674
1, 15360, Tempo, 697674
1, 15552, Tempo, 697674
1, 15744, Tempo, 697674
1, 15936, Tempo, 697674
1, 16128, Tempo, 697674
1, 16320, Tempo, 697674
1, 16512, Tempo, 697674
1, 16704, Tempo, 697674
1, 16896, Tempo, 697674
1, 17088, Tempo, 697674
1, 17280, Tempo, 697674
1, 17472, Tempo, 697674
1, 17664, Tempo, 697674
1, 17856, Tempo, 697674
1, 18048, Tempo, 697674
1, 18240, Tempo, 697674
1, 18432, Tempo, 697674
1, 18624, Tempo, 697674
1, 18816, Tempo, 697674
1, 19008, Tempo, 697674
1, 19200, Tempo, 697674
1, 19392, Tempo, 697674
1, 19584, Tempo, 697674
1, 19776, Tempo, 697674
1, 19968, Tempo, 697674
1, 20160, Tempo, 697674
1, 20352, Tempo, 697674
1, 20544, Tempo, 697674
1, 20736, Tempo, 697674
1, 20928, Tempo, 697674
1, 21120, Tempo, 697674
1, 21312, Tempo, 697674
1, 21504, Tempo, 697674
1, 21696, Tempo, 697674
1, 21888, Tempo, 697674
1, 22080, Tempo, 697674
1, 22272, Tempo, 697674
1, 22464, Tempo, 697674
1, 22656, Tempo, 697674
1, 22848, Tempo, 697674
1, 23040, Tempo, 697674
1, 23232, Tempo, 697674
1, 23424, Tempo, 697674
1, 23616, Tempo, 697674
1, 23808, Tempo, 697674
1, 24000, Tempo, 697674
1, 24192, Tempo, 697674
1, 24384, Tempo, 697674
1, 24576, Tempo, 697674
1, 24768, Tempo, 697674
1, 24960, Tempo, 697674
1, 25152, Tempo, 697674
1, 25344, Tempo, 697674
1, 25536, Tempo, 697674
1, 25728, Tempo, 697674
1, 25920, Tempo, 697674
1, 26112, Tempo, 697674
1, 26304, Tempo, 697674
1, 26496, Tempo, 697674
1, 26688, Tempo, 697674
1, 26880, Tempo, 697674
1, 27072, Tempo, 697674
1, 27264, Tempo, 697674
1, 27456, Tempo, 697674
1, 27648, Tempo, 697674
1, 27840, Tempo, 697674
1, 28032, Tempo, 697674
1, 28224, Tempo, 697674
1, 28416, Tempo, 697674
1, 28608, Tempo, 697674
1, 28800, Tempo, 697674
1, 28992, Tempo, 697674
1, 29184, Tempo, 697674
1, 29232, Tempo, 714285
1, 29256, Tempo, 731707
1, 29280, Tempo, 750000
1, 29292, Tempo, 769230
1, 29316, Tempo, 800000
1, 29340, Tempo, 845070
1, 29352, Tempo, 895522
1, 29364, Tempo, 1395348
1, 29376, Tempo, 1200000
1, 29388, Tempo, 869565
1, 29400, Tempo, 800000
1, 29412, Tempo, 789473
1, 29424, Tempo, 750000
1, 29436, Tempo, 731707
1, 29460, Tempo, 697674
1, 29472, Tempo, 697674
1, 29568, Tempo, 697674
1, 29760, Tempo, 1304347
1, 29772, Tempo, 697674
1, 29784, Tempo, 697674
1, 29952, Tempo, 697674
1, 30144, Tempo, 697674
1, 30336, Tempo, 697674
1, 30528, Tempo, 697674
1, 30720, Tempo, 697674
1, 30912, Tempo, 697674
1, 31104, Tempo, 697674
1, 31296, Tempo, 697674
1, 31488, Tempo, 697674
1, 31680, Tempo, 983606
1, 31692, Tempo, 697674
1, 31704, Tempo, 697674
1, 31872, Tempo, 697674
1, 32064, Tempo, 697674
1, 32256, Tempo, 697674
1, 32448, Tempo, 697674
1, 32640, Tempo, 697674
1, 32832, Tempo, 1250000
1, 32844, Tempo, 697674
1, 32856, Tempo, 697674
1, 33024, Tempo, 697674
1, 33216, Tempo, 697674
1, 33408, Tempo, 697674
1, 33600, Tempo, 1071428
1, 33612, Tempo, 697674
1, 33624, Tempo, 697674
1, 33792, Tempo, 697674
1, 33984, Tempo, 697674
1, 34176, Tempo, 697674
1, 34368, Tempo, 697674
1, 34560, Tempo, 697674
1, 34752, Tempo, 697674
1, 34944, Tempo, 697674
1, 35136, Tempo, 697674
1, 35328, Tempo, 697674
1, 35520, Tempo, 697674
1, 35712, Tempo, 697674
1, 35904, Tempo, 697674
1, 36096, Tempo, 697674
1, 36288, Tempo, 697674
1, 36480, Tempo, 697674
1, 36672, Tempo, 697674
1, 36864, Tempo, 697674
1, 37056, Tempo, 697674
1, 37104, Tempo, 714285
1, 37140, Tempo, 731707
1, 37164, Tempo, 750000
1, 37188, Tempo, 769230
1, 37200, Tempo, 789473
1, 37212, Tempo, 800000
1, 37224, Tempo, 821917
1, 37236, Tempo, 1111111
1, 37248, Tempo, 1111111
1, 37260, Tempo, 697674
1, 37272, Tempo, 697674
1, 37440, Tempo, 697674
1, 37632, Tempo, 697674
1, 37824, Tempo, 697674
1, 38016, Tempo, 697674
1, 38208, Tempo, 697674
1, 38400, Tempo, 697674
1, 38592, Tempo, 697674
1, 38688, Tempo, 410958
1, 38712, Tempo, 410958
1, 38784, Time_signature, 2, 2, 24, 8
1, 38784, Tempo, 410958
1, 38880, Time_signature, 4, 2, 24, 8
1, 38880, Tempo, 1395348
1, 38892, Tempo, 697674
1, 38904, Tempo, 697674
1, 38976, Tempo, 697674
1, 39072, Tempo, 697674
1, 39264, Tempo, 697674
1, 39456, Tempo, 697674
1, 39648, Tempo, 697674
1, 39840, Tempo, 697674
1, 40032, Tempo, 697674
1, 40224, Tempo, 697674
1, 40416, Tempo, 697674
1, 40608, Tempo, 697674
1, 40800, Tempo, 697674
1, 40992, Tempo, 697674
1, 41184, Tempo, 697674
1, 41376, Tempo, 697674
1, 41568, Tempo, 697674
1, 41760, Tempo, 697674
1, 41856, Tempo, 697674
1, 41868, Tempo, 769230
1, 41880, Tempo, 769230
1, 41952, Tempo, 697674
1, 41976, Tempo, 697674
1, 42000, Tempo, 697674
1, 42144, Tempo, 697674
1, 42336, Tempo, 697674
1, 42528, Tempo, 697674
1, 42720, Tempo, 697674
1, 42912, Tempo, 697674
1, 43104, Tempo, 697674
1, 43296, Tempo, 697674
1, 43488, Tempo, 1621621
1, 43512, Tempo, 1621621
1, 43680, Tempo, 1621621
1, 43680, End_track
2, 0, Start_track
2, 0, Title_t, "Keyboard"
2, 0, Control_c, 0, 7, 96
2, 0, Pitch_bend_c, 0, 8192
2, 0, Control_c, 0, 1, 0
2, 0, Program_c, 0, 0
2, 0, Control_c, 0, 64, 0
2, 0, Control_c, 0, 10, 64
2, 41952, Control_c, 0, 7, 96
2, 41952, Pitch_bend_c, 0, 8192
2, 41952, Control_c, 0, 1, 0
2, 41952, Program_c, 0, 0
2, 41952, Control_c, 0, 64, 0
2, 41952, Control_c, 0, 10, 64
2, 41952, End_track
3, 0, Start_track
3, 0, Title_t, "Violin pr"
3, 0, Control_c, 1, 10, 108
3, 0, Control_c, 1, 7, 96
3, 0, Pitch_bend_c, 1, 8192
3, 0, Control_c, 1, 1, 0
3, 0, Program_c, 1, 52
3, 0, Control_c, 1, 64, 0
3, 0, Note_on_c, 1, 62, 95
3, 8, Note_on_c, 1, 62, 0
3, 12, Note_on_c, 1, 62, 95
3, 20, Note_on_c, 1, 62, 0
3, 24, Note_on_c, 1, 66, 95
3, 32, Note_on_c, 1, 66, 0
3, 36, Note_on_c, 1, 66, 95
3, 44, Note_on_c, 1, 66, 0
3, 48, Note_on_c, 1, 69, 95
3, 56, Note_on_c, 1, 69, 0
3, 60, Note_on_c, 1, 69, 95
3, 68, Note_on_c, 1, 69, 0
3, 72, Note_on_c, 1, 74, 95
3, 80, Note_on_c, 1, 74, 0
3, 84, Note_on_c, 1, 74, 95
3, 92, Note_on_c, 1, 74, 0
3, 96, Note_on_c, 1, 73, 95
3, 104, Note_on_c, 1, 73, 0
3, 108, Note_on_c, 1, 74, 95
3, 116, Note_on_c, 1, 74, 0
3, 120, Note_on_c, 1, 73, 95
3, 128, Note_on_c, 1, 73, 0
3, 132, Note_on_c, 1, 71, 95
3, 140, Note_on_c, 1, 71, 0
3, 144, Note_on_c, 1, 69, 95
3, 152, Note_on_c, 1, 69, 0
3, 156, Note_on_c, 1, 67, 95
3, 164, Note_on_c, 1, 67, 0
3, 168, Note_on_c, 1, 66, 95
3, 176, Note_on_c, 1, 66, 0
3, 180, Note_on_c, 1, 64, 95
3, 188, Note_on_c, 1, 64, 0
3, 192, Control_c, 1, 7, 96
3, 192, Pitch_bend_c, 1, 8192
3, 192, Control_c, 1, 1, 0
3, 192, Control_c, 1, 64, 0
3, 192, Note_on_c, 1, 62, 95
3, 200, Note_on_c, 1, 62, 0
3, 204, Note_on_c, 1, 62, 95
3, 212, Note_on_c, 1, 62, 0
3, 216, Note_on_c, 1, 66, 95
3, 224, Note_on_c, 1, 66, 0
3, 228, Note_on_c, 1, 66, 95
3, 236, Note_on_c, 1, 66, 0
3, 240, Note_on_c, 1, 69, 95
3, 248, Note_on_c, 1, 69, 0
3, 252, Note_on_c, 1, 69, 95
3, 260, Note_on_c, 1, 69, 0
3, 264, Note_on_c, 1, 74, 95
3, 272, Note_on_c, 1, 74, 0
3, 276, Note_on_c, 1, 74, 95
3, 284, Note_on_c, 1, 74, 0
3, 288, Note_on_c, 1, 76, 95
3, 304, Note_on_c, 1, 76, 0
3, 312, Note_on_c, 1, 69, 95
3, 328, Note_on_c, 1, 69, 0
3, 360, Note_on_c, 1, 76, 95
3, 376, Note_on_c, 1, 76, 0
3, 384, Note_on_c, 1, 78, 95
3, 392, Note_on_c, 1, 78, 0
3, 396, Note_on_c, 1, 78, 95
3, 404, Note_on_c, 1, 78, 0
3, 408, Note_on_c, 1, 76, 95
3, 416, Note_on_c, 1, 76, 0
3, 420, Note_on_c, 1, 76, 95
3, 428, Note_on_c, 1, 76, 0
3, 432, Note_on_c, 1, 79, 95
3, 440, Note_on_c, 1, 79, 0
3, 444, Note_on_c, 1, 79, 95
3, 452, Note_on_c, 1, 79, 0
3, 456, Note_on_c, 1, 78, 95
3, 464, Note_on_c, 1, 78, 0
3, 468, Note_on_c, 1, 78, 95
3, 476, Note_on_c, 1, 78, 0
3, 480, Note_on_c, 1, 83, 95
3, 488, Note_on_c, 1, 83, 0
3, 492, Note_on_c, 1, 83, 95
3, 500, Note_on_c, 1, 83, 0
3, 504, Note_on_c, 1, 81, 95
3, 512, Note_on_c, 1, 81, 0
3, 516, Note_on_c, 1, 81, 95
3, 524, Note_on_c, 1, 81, 0
3, 528, Note_on_c, 1, 73, 95
3, 536, Note_on_c, 1, 73, 0
3, 540, Note_on_c, 1, 73, 95
3, 548, Note_on_c, 1, 73, 0
3, 552, Note_on_c, 1, 74, 95
3, 560, Note_on_c, 1, 74, 0
3, 564, Note_on_c, 1, 74, 95
3, 572, Note_on_c, 1, 74, 0
3, 576, Note_on_c, 1, 67, 95
3, 584, Note_on_c, 1, 67, 0
3, 588, Note_on_c, 1, 67, 95
3, 596, Note_on_c, 1, 67, 0
3, 600, Note_on_c, 1, 66, 95
3, 608, Note_on_c, 1, 66, 0
3, 612, Note_on_c, 1, 66, 95
3, 620, Note_on_c, 1, 66, 0
3, 624, Note_on_c, 1, 71, 95
3, 632, Note_on_c, 1, 71, 0
3, 636, Note_on_c, 1, 71, 95
3, 644, Note_on_c, 1, 71, 0
3, 648, Note_on_c, 1, 69, 95
3, 656, Note_on_c, 1, 69, 0
3, 660, Note_on_c, 1, 69, 95
3, 668, Note_on_c, 1, 69, 0
3, 672, Note_on_c, 1, 61, 95
3, 680, Note_on_c, 1, 61, 0
3, 684, Note_on_c, 1, 61, 95
3, 692, Note_on_c, 1, 61, 0
3, 696, Note_on_c, 1, 62, 95
3, 704, Note_on_c, 1, 62, 0
3, 708, Note_on_c, 1, 62, 95
3, 716, Note_on_c, 1, 62, 0
3, 720, Note_on_c, 1, 57, 95
3, 728, Note_on_c, 1, 57, 0
3, 732, Note_on_c, 1, 57, 95
3, 740, Note_on_c, 1, 57, 0
3, 744, Note_on_c, 1, 67, 95
3, 752, Note_on_c, 1, 67, 0
3, 756, Note_on_c, 1, 67, 95
3, 764, Note_on_c, 1, 67, 0
3, 768, Note_on_c, 1, 66, 95
3, 776, Note_on_c, 1, 66, 0
3, 780, Note_on_c, 1, 64, 95
3, 788, Note_on_c, 1, 64, 0
3, 792, Note_on_c, 1, 66, 95
3, 800, Note_on_c, 1, 66, 0
3, 804, Note_on_c, 1, 62, 95
3, 812, Note_on_c, 1, 62, 0
3, 816, Note_on_c, 1, 64, 95
3, 824, Note_on_c, 1, 64, 0
3, 828, Note_on_c, 1, 64, 95
3, 836, Note_on_c, 1, 64, 0
3, 840, Note_on_c, 1, 57, 95
3, 848, Note_on_c, 1, 57, 0
3, 852, Note_on_c, 1, 57, 95
3, 860, Note_on_c, 1, 57, 0
3, 864, Note_on_c, 1, 62, 95
3, 872, Note_on_c, 1, 62, 0
3, 876, Note_on_c, 1, 64, 95
3, 884, Note_on_c, 1, 64, 0
3, 888, Note_on_c, 1, 66, 95
3, 896, Note_on_c, 1, 66, 0
3, 900, Note_on_c, 1, 67, 95
3, 908, Note_on_c, 1, 67, 0
3, 912, Note_on_c, 1, 69, 95
3, 920, Note_on_c, 1, 69, 0
3, 924, Note_on_c, 1, 71, 95
3, 932, Note_on_c, 1, 71, 0
3, 936, Note_on_c, 1, 73, 95
3, 944, Note_on_c, 1, 73, 0
3, 948, Note_on_c, 1, 69, 95
3, 956, Note_on_c, 1, 69, 0
3, 960, Note_on_c, 1, 74, 95
3, 968, Note_on_c, 1, 74, 0
3, 972, Note_on_c, 1, 74, 95
3, 980, Note_on_c, 1, 74, 0
3, 984, Note_on_c, 1, 73, 95
3, 992, Note_on_c, 1, 73, 0
3, 996, Note_on_c, 1, 73, 95
3, 1004, Note_on_c, 1, 73, 0
3, 1008, Note_on_c, 1, 76, 95
3, 1016, Note_on_c, 1, 76, 0
3, 1020, Note_on_c, 1, 76, 95
3, 1028, Note_on_c, 1, 76, 0
3, 1032, Note_on_c, 1, 74, 95
3, 1040, Note_on_c, 1, 74, 0
3, 1044, Note_on_c, 1, 74, 95
3, 1052, Note_on_c, 1, 74, 0
3, 1056, Note_on_c, 1, 79, 95
3, 1064, Note_on_c, 1, 79, 0
3, 1068, Note_on_c, 1, 79, 95
3, 1076, Note_on_c, 1, 79, 0
3, 1080, Note_on_c, 1, 78, 95
3, 1088, Note_on_c, 1, 78, 0
3, 1092, Note_on_c, 1, 78, 95
3, 1100, Note_on_c, 1, 78, 0
3, 1104, Note_on_c, 1, 83, 95
3, 1112, Note_on_c, 1, 83, 0
3, 1116, Note_on_c, 1, 83, 95
3, 1124, Note_on_c, 1, 83, 0
3, 1128, Note_on_c, 1, 81, 95
3, 1136, Note_on_c, 1, 81, 0
3, 1140, Note_on_c, 1, 81, 95
3, 1148, Note_on_c, 1, 81, 0
3, 1152, Note_on_c, 1, 79, 95
3, 1160, Note_on_c, 1, 79, 0
3, 1164, Note_on_c, 1, 78, 95
3, 1172, Note_on_c, 1, 78, 0
3, 1176, Note_on_c, 1, 76, 95
3, 1184, Note_on_c, 1, 76, 0
3, 1188, Note_on_c, 1, 74, 95
3, 1196, Note_on_c, 1, 74, 0
3, 1200, Note_on_c, 1, 76, 95
3, 1216, Note_on_c, 1, 76, 0
3, 1224, Note_on_c, 1, 69, 95
3, 1232, Note_on_c, 1, 69, 0
3, 1236, Note_on_c, 1, 71, 95
3, 1244, Note_on_c, 1, 71, 0
3, 1248, Note_on_c, 1, 72, 95
3, 1256, Note_on_c, 1, 72, 0
3, 1260, Note_on_c, 1, 69, 95
3, 1268, Note_on_c, 1, 69, 0
3, 1272, Note_on_c, 1, 71, 95
3, 1280, Note_on_c, 1, 71, 0
3, 1284, Note_on_c, 1, 74, 95
3, 1292, Note_on_c, 1, 74, 0
3, 1296, Note_on_c, 1, 73, 95
3, 1304, Note_on_c, 1, 73, 0
3, 1308, Note_on_c, 1, 76, 95
3, 1316, Note_on_c, 1, 76, 0
3, 1320, Note_on_c, 1, 69, 95
3, 1328, Note_on_c, 1, 69, 0
3, 1332, Note_on_c, 1, 67, 95
3, 1340, Note_on_c, 1, 67, 0
3, 1344, Note_on_c, 1, 66, 95
3, 1352, Note_on_c, 1, 66, 0
3, 1356, Note_on_c, 1, 62, 95
3, 1364, Note_on_c, 1, 62, 0
3, 1368, Note_on_c, 1, 64, 95
3, 1376, Note_on_c, 1, 64, 0
3, 1380, Note_on_c, 1, 67, 95
3, 1388, Note_on_c, 1, 67, 0
3, 1392, Note_on_c, 1, 66, 95
3, 1400, Note_on_c, 1, 66, 0
3, 1404, Note_on_c, 1, 69, 95
3, 1412, Note_on_c, 1, 69, 0
3, 1416, Note_on_c, 1, 62, 95
3, 1424, Note_on_c, 1, 62, 0
3, 1428, Note_on_c, 1, 61, 95
3, 1436, Note_on_c, 1, 61, 0
3, 1440, Note_on_c, 1, 59, 95
3, 1448, Note_on_c, 1, 59, 0
3, 1452, Note_on_c, 1, 67, 95
3, 1460, Note_on_c, 1, 67, 0
3, 1464, Note_on_c, 1, 66, 95
3, 1472, Note_on_c, 1, 66, 0
3, 1476, Note_on_c, 1, 64, 95
3, 1484, Note_on_c, 1, 64, 0
3, 1488, Note_on_c, 1, 64, 95
3, 1512, Note_on_c, 1, 64, 0
3, 1524, Note_on_c, 1, 62, 95
3, 1532, Note_on_c, 1, 62, 0
3, 1536, Note_on_c, 1, 62, 95
3, 1552, Note_on_c, 1, 62, 0
3, 1656, Note_on_c, 1, 78, 95
3, 1672, Note_on_c, 1, 78, 0
3, 1680, Note_on_c, 1, 76, 95
3, 1696, Note_on_c, 1, 76, 0
3, 1704, Note_on_c, 1, 74, 95
3, 1720, Note_on_c, 1, 74, 0
3, 1728, Note_on_c, 1, 73, 95
3, 1760, Note_on_c, 1, 73, 0
3, 1800, Note_on_c, 1, 73, 95
3, 1816, Note_on_c, 1, 73, 0
3, 1824, Note_on_c, 1, 74, 95
3, 1840, Note_on_c, 1, 74, 0
3, 1848, Note_on_c, 1, 69, 95
3, 1864, Note_on_c, 1, 69, 0
3, 1872, Note_on_c, 1, 74, 95
3, 1880, Note_on_c, 1, 74, 0
3, 1884, Note_on_c, 1, 76, 95
3, 1892, Note_on_c, 1, 76, 0
3, 1896, Note_on_c, 1, 78, 95
3, 1904, Note_on_c, 1, 78, 0
3, 1908, Note_on_c, 1, 79, 95
3, 1916, Note_on_c, 1, 79, 0
3, 1920, Note_on_c, 1, 81, 95
3, 1936, Note_on_c, 1, 81, 0
3, 1944, Note_on_c, 1, 73, 95
3, 1960, Note_on_c, 1, 73, 0
3, 1968, Note_on_c, 1, 74, 95
3, 1984, Note_on_c, 1, 74, 0
3, 1992, Note_on_c, 1, 76, 95
3, 2008, Note_on_c, 1, 76, 0
3, 2016, Note_on_c, 1, 78, 95
3, 2032, Note_on_c, 1, 78, 0
3, 2040, Note_on_c, 1, 74, 95
3, 2056, Note_on_c, 1, 74, 0
3, 2064, Note_on_c, 1, 73, 95
3, 2080, Note_on_c, 1, 73, 0
3, 2088, Note_on_c, 1, 71, 95
3, 2104, Note_on_c, 1, 71, 0
3, 2112, Note_on_c, 1, 69, 95
3, 2175, Note_on_c, 1, 69, 0
3, 2232, Note_on_c, 1, 83, 95
3, 2248, Note_on_c, 1, 83, 0
3, 2256, Note_on_c, 1, 81, 95
3, 2272, Note_on_c, 1, 81, 0
3, 2280, Note_on_c, 1, 79, 95
3, 2296, Note_on_c, 1, 79, 0
3, 2304, Note_on_c, 1, 78, 95
3, 2312, Note_on_c, 1, 78, 0
3, 2316, Note_on_c, 1, 79, 95
3, 2324, Note_on_c, 1, 79, 0
3, 2328, Note_on_c, 1, 81, 95
3, 2360, Note_on_c, 1, 81, 0
3, 2376, Note_on_c, 1, 79, 95
3, 2384, Note_on_c, 1, 79, 0
3, 2388, Note_on_c, 1, 78, 95
3, 2396, Note_on_c, 1, 78, 0
3, 2400, Note_on_c, 1, 76, 95
3, 2416, Note_on_c, 1, 76, 0
3, 2424, Note_on_c, 1, 73, 95
3, 2429, Note_on_c, 1, 73, 0
3, 2432, Note_on_c, 1, 71, 95
3, 2437, Note_on_c, 1, 71, 0
3, 2440, Note_on_c, 1, 73, 95
3, 2445, Note_on_c, 1, 73, 0
3, 2448, Note_on_c, 1, 74, 95
3, 2453, Note_on_c, 1, 74, 0
3, 2456, Note_on_c, 1, 73, 95
3, 2461, Note_on_c, 1, 73, 0
3, 2464, Note_on_c, 1, 74, 95
3, 2469, Note_on_c, 1, 74, 0
3, 2472, Note_on_c, 1, 76, 95
3, 2477, Note_on_c, 1, 76, 0
3, 2480, Note_on_c, 1, 74, 95
3, 2485, Note_on_c, 1, 74, 0
3, 2488, Note_on_c, 1, 76, 95
3, 2493, Note_on_c, 1, 76, 0
3, 2496, Note_on_c, 1, 78, 95
3, 2559, Note_on_c, 1, 78, 0
3, 2616, Note_on_c, 1, 71, 95
3, 2621, Note_on_c, 1, 71, 0
3, 2624, Note_on_c, 1, 69, 95
3, 2629, Note_on_c, 1, 69, 0
3, 2632, Note_on_c, 1, 71, 95
3, 2637, Note_on_c, 1, 71, 0
3, 2640, Note_on_c, 1, 73, 95
3, 2645, Note_on_c, 1, 73, 0
3, 2648, Note_on_c, 1, 71, 95
3, 2653, Note_on_c, 1, 71, 0
3, 2656, Note_on_c, 1, 73, 95
3, 2661, Note_on_c, 1, 73, 0
3, 2664, Note_on_c, 1, 74, 95
3, 2669, Note_on_c, 1, 74, 0
3, 2672, Note_on_c, 1, 73, 95
3, 2677, Note_on_c, 1, 73, 0
3, 2680, Note_on_c, 1, 74, 95
3, 2685, Note_on_c, 1, 74, 0
3, 2688, Note_on_c, 1, 76, 95
3, 2750, Note_on_c, 1, 76, 0
3, 2808, Note_on_c, 1, 69, 95
3, 2813, Note_on_c, 1, 69, 0
3, 2816, Note_on_c, 1, 68, 95
3, 2821, Note_on_c, 1, 68, 0
3, 2824, Note_on_c, 1, 69, 95
3, 2829, Note_on_c, 1, 69, 0
3, 2832, Note_on_c, 1, 71, 95
3, 2837, Note_on_c, 1, 71, 0
3, 2840, Note_on_c, 1, 69, 95
3, 2845, Note_on_c, 1, 69, 0
3, 2848, Note_on_c, 1, 71, 95
3, 2853, Note_on_c, 1, 71, 0
3, 2856, Note_on_c, 1, 73, 95
3, 2861, Note_on_c, 1, 73, 0
3, 2864, Note_on_c, 1, 71, 95
3, 2869, Note_on_c, 1, 71, 0
3, 2872, Note_on_c, 1, 73, 95
3, 2877, Note_on_c, 1, 73, 0
3, 2880, Note_on_c, 1, 74, 95
3, 2943, Note_on_c, 1, 74, 0
3, 3000, Note_on_c, 1, 68, 95
3, 3005, Note_on_c, 1, 68, 0
3, 3008, Note_on_c, 1, 66, 95
3, 3013, Note_on_c, 1, 66, 0
3, 3016, Note_on_c, 1, 68, 95
3, 3021, Note_on_c, 1, 68, 0
3, 3024, Note_on_c, 1, 69, 95
3, 3029, Note_on_c, 1, 69, 0
3, 3032, Note_on_c, 1, 68, 95
3, 3037, Note_on_c, 1, 68, 0
3, 3040, Note_on_c, 1, 69, 95
3, 3045, Note_on_c, 1, 69, 0
3, 3048, Note_on_c, 1, 71, 95
3, 3053, Note_on_c, 1, 71, 0
3, 3056, Note_on_c, 1, 69, 95
3, 3061, Note_on_c, 1, 69, 0
3, 3064, Note_on_c, 1, 71, 95
3, 3069, Note_on_c, 1, 71, 0
3, 3072, Note_on_c, 1, 64, 95
3, 3103, Note_on_c, 1, 64, 0
3, 3144, Note_on_c, 1, 69, 95
3, 3160, Note_on_c, 1, 69, 0
3, 3168, Note_on_c, 1, 78, 95
3, 3184, Note_on_c, 1, 78, 0
3, 3192, Note_on_c, 1, 76, 95
3, 3208, Note_on_c, 1, 76, 0
3, 3216, Note_on_c, 1, 74, 95
3, 3224, Note_on_c, 1, 74, 0
3, 3228, Note_on_c, 1, 73, 95
3, 3236, Note_on_c, 1, 73, 0
3, 3240, Note_on_c, 1, 74, 95
3, 3264, Note_on_c, 1, 74, 0
3, 3276, Note_on_c, 1, 73, 95
3, 3284, Note_on_c, 1, 73, 0
3, 3288, Note_on_c, 1, 74, 95
3, 3296, Note_on_c, 1, 74, 0
3, 3300, Note_on_c, 1, 71, 95
3, 3308, Note_on_c, 1, 71, 0
3, 3312, Note_on_c, 1, 73, 95
3, 3328, Note_on_c, 1, 73, 0
3, 3336, Note_on_c, 1, 74, 95
3, 3352, Note_on_c, 1, 74, 0
3, 3360, Note_on_c, 1, 76, 95
3, 3384, Note_on_c, 1, 76, 0
3, 3396, Note_on_c, 1, 78, 95
3, 3404, Note_on_c, 1, 78, 0
3, 3408, Note_on_c, 1, 71, 95
3, 3432, Note_on_c, 1, 71, 0
3, 3444, Note_on_c, 1, 69, 95
3, 3452, Note_on_c, 1, 69, 0
3, 3456, Note_on_c, 1, 69, 95
3, 3488, Note_on_c, 1, 69, 0
3, 3768, Note_on_c, 1, 71, 95
3, 3784, Note_on_c, 1, 71, 0
3, 3792, Note_on_c, 1, 76, 95
3, 3887, Note_on_c, 1, 76, 0
3, 3960, Note_on_c, 1, 69, 95
3, 3976, Note_on_c, 1, 69, 0
3, 3984, Note_on_c, 1, 74, 95
3, 4079, Note_on_c, 1, 74, 0
3, 4128, Note_on_c, 1, 74, 95
3, 4136, Note_on_c, 1, 74, 0
3, 4140, Note_on_c, 1, 78, 95
3, 4148, Note_on_c, 1, 78, 0
3, 4152, Note_on_c, 1, 76, 95
3, 4160, Note_on_c, 1, 76, 0
3, 4164, Note_on_c, 1, 74, 95
3, 4172, Note_on_c, 1, 74, 0
3, 4176, Note_on_c, 1, 73, 95
3, 4184, Note_on_c, 1, 73, 0
3, 4188, Note_on_c, 1, 71, 95
3, 4196, Note_on_c, 1, 71, 0
3, 4200, Note_on_c, 1, 69, 95
3, 4208, Note_on_c, 1, 69, 0
3, 4212, Note_on_c, 1, 68, 95
3, 4220, Note_on_c, 1, 68, 0
3, 4224, Note_on_c, 1, 69, 95
3, 4240, Note_on_c, 1, 69, 0
3, 4248, Note_on_c, 1, 68, 95
3, 4264, Note_on_c, 1, 68, 0
3, 4272, Note_on_c, 1, 71, 95
3, 4288, Note_on_c, 1, 71, 0
3, 4296, Note_on_c, 1, 70, 95
3, 4312, Note_on_c, 1, 70, 0
3, 4320, Note_on_c, 1, 74, 95
3, 4352, Note_on_c, 1, 74, 0
3, 4392, Note_on_c, 1, 75, 95
3, 4408, Note_on_c, 1, 75, 0
3, 4416, Note_on_c, 1, 77, 95
3, 4432, Note_on_c, 1, 77, 0
3, 4440, Note_on_c, 1, 75, 95
3, 4456, Note_on_c, 1, 75, 0
3, 4464, Note_on_c, 1, 78, 95
3, 4480, Note_on_c, 1, 78, 0
3, 4488, Note_on_c, 1, 77, 95
3, 4504, Note_on_c, 1, 77, 0
3, 4512, Note_on_c, 1, 80, 95
3, 4528, Note_on_c, 1, 80, 0
3, 4536, Note_on_c, 1, 65, 95
3, 4552, Note_on_c, 1, 65, 0
3, 4560, Note_on_c, 1, 69, 95
3, 4655, Note_on_c, 1, 69, 0
3, 4728, Note_on_c, 1, 62, 95
3, 4744, Note_on_c, 1, 62, 0
3, 4752, Note_on_c, 1, 67, 95
3, 4847, Note_on_c, 1, 67, 0
3, 4908, Note_on_c, 1, 71, 95
3, 4916, Note_on_c, 1, 71, 0
3, 4920, Note_on_c, 1, 69, 95
3, 4928, Note_on_c, 1, 69, 0
3, 4932, Note_on_c, 1, 67, 95
3, 4940, Note_on_c, 1, 67, 0
3, 4944, Note_on_c, 1, 66, 95
3, 4952, Note_on_c, 1, 66, 0
3, 4956, Note_on_c, 1, 64, 95
3, 4964, Note_on_c, 1, 64, 0
3, 4968, Note_on_c, 1, 62, 95
3, 4976, Note_on_c, 1, 62, 0
3, 4980, Note_on_c, 1, 61, 95
3, 4988, Note_on_c, 1, 61, 0
3, 4992, Note_on_c, 1, 62, 95
3, 5119, Note_on_c, 1, 62, 0
3, 5184, Note_on_c, 1, 62, 95
3, 5200, Note_on_c, 1, 62, 0
3, 5208, Note_on_c, 1, 61, 95
3, 5224, Note_on_c, 1, 61, 0
3, 5232, Note_on_c, 1, 59, 95
3, 5248, Note_on_c, 1, 59, 0
3, 5256, Note_on_c, 1, 57, 95
3, 5272, Note_on_c, 1, 57, 0
3, 5280, Note_on_c, 1, 56, 95
3, 5312, Note_on_c, 1, 56, 0
3, 5352, Note_on_c, 1, 71, 95
3, 5368, Note_on_c, 1, 71, 0
3, 5376, Note_on_c, 1, 73, 95
3, 5388, Note_on_c, 1, 73, 0
3, 5388, Note_on_c, 1, 73, 95
3, 5400, Note_on_c, 1, 73, 0
3, 5400, Note_on_c, 1, 71, 95
3, 5412, Note_on_c, 1, 71, 0
3, 5412, Note_on_c, 1, 71, 95
3, 5424, Note_on_c, 1, 71, 0
3, 5424, Note_on_c, 1, 74, 95
3, 5436, Note_on_c, 1, 74, 0
3, 5436, Note_on_c, 1, 74, 95
3, 5448, Note_on_c, 1, 74, 0
3, 5448, Note_on_c, 1, 73, 95
3, 5460, Note_on_c, 1, 73, 0
3, 5460, Note_on_c, 1, 73, 95
3, 5472, Note_on_c, 1, 73, 0
3, 5472, Note_on_c, 1, 78, 95
3, 5484, Note_on_c, 1, 78, 0
3, 5484, Note_on_c, 1, 78, 95
3, 5496, Note_on_c, 1, 78, 0
3, 5496, Note_on_c, 1, 76, 95
3, 5508, Note_on_c, 1, 76, 0
3, 5508, Note_on_c, 1, 76, 95
3, 5520, Note_on_c, 1, 76, 0
3, 5520, Note_on_c, 1, 68, 95
3, 5532, Note_on_c, 1, 68, 0
3, 5532, Note_on_c, 1, 68, 95
3, 5544, Note_on_c, 1, 68, 0
3, 5544, Note_on_c, 1, 69, 95
3, 5556, Note_on_c, 1, 69, 0
3, 5556, Note_on_c, 1, 69, 95
3, 5568, Note_on_c, 1, 69, 0
3, 5568, Note_on_c, 1, 62, 95
3, 5580, Note_on_c, 1, 62, 0
3, 5580, Note_on_c, 1, 62, 95
3, 5592, Note_on_c, 1, 62, 0
3, 5592, Note_on_c, 1, 61, 95
3, 5604, Note_on_c, 1, 61, 0
3, 5604, Note_on_c, 1, 61, 95
3, 5616, Note_on_c, 1, 61, 0
3, 5616, Note_on_c, 1, 66, 95
3, 5628, Note_on_c, 1, 66, 0
3, 5628, Note_on_c, 1, 66, 95
3, 5640, Note_on_c, 1, 66, 0
3, 5640, Note_on_c, 1, 64, 95
3, 5652, Note_on_c, 1, 64, 0
3, 5652, Note_on_c, 1, 64, 95
3, 5664, Note_on_c, 1, 64, 0
3, 5664, Note_on_c, 1, 56, 95
3, 5676, Note_on_c, 1, 56, 0
3, 5676, Note_on_c, 1, 56, 95
3, 5688, Note_on_c, 1, 56, 0
3, 5688, Note_on_c, 1, 57, 95
3, 5700, Note_on_c, 1, 57, 0
3, 5700, Note_on_c, 1, 57, 95
3, 5712, Note_on_c, 1, 57, 0
3, 5712, Note_on_c, 1, 62, 95
3, 5724, Note_on_c, 1, 62, 0
3, 5724, Note_on_c, 1, 62, 95
3, 5736, Note_on_c, 1, 62, 0
3, 5736, Note_on_c, 1, 71, 95
3, 5748, Note_on_c, 1, 71, 0
3, 5748, Note_on_c, 1, 71, 95
3, 5760, Note_on_c, 1, 71, 0
3, 5760, Note_on_c, 1, 61, 95
3, 5772, Note_on_c, 1, 61, 0
3, 5772, Note_on_c, 1, 61, 95
3, 5784, Note_on_c, 1, 61, 0
3, 5784, Note_on_c, 1, 69, 95
3, 5796, Note_on_c, 1, 69, 0
3, 5796, Note_on_c, 1, 69, 95
3, 5808, Note_on_c, 1, 69, 0
3, 5808, Note_on_c, 1, 59, 95
3, 5820, Note_on_c, 1, 59, 0
3, 5820, Note_on_c, 1, 59, 95
3, 5832, Note_on_c, 1, 59, 0
3, 5832, Note_on_c, 1, 68, 95
3, 5844, Note_on_c, 1, 68, 0
3, 5844, Note_on_c, 1, 68, 95
3, 5856, Note_on_c, 1, 68, 0
3, 5856, Note_on_c, 1, 69, 95
3, 5880, Note_on_c, 1, 69, 0
3, 5904, Note_on_c, 1, 76, 95
3, 6000, Note_on_c, 1, 76, 0
3, 6000, Note_on_c, 1, 74, 95
3, 6048, Note_on_c, 1, 74, 0
3, 6096, Note_on_c, 1, 74, 95
3, 6192, Note_on_c, 1, 74, 0
3, 6192, Note_on_c, 1, 73, 95
3, 6240, Note_on_c, 1, 73, 0
3, 6288, Note_on_c, 1, 73, 95
3, 6384, Note_on_c, 1, 73, 0
3, 6384, Note_on_c, 1, 71, 95
3, 6432, Note_on_c, 1, 71, 0
3, 6480, Note_on_c, 1, 79, 95
3, 6576, Note_on_c, 1, 79, 0
3, 6576, Note_on_c, 1, 78, 95
3, 6600, Note_on_c, 1, 78, 0
3, 6600, Note_on_c, 1, 76, 95
3, 6624, Note_on_c, 1, 76, 0
3, 6624, Note_on_c, 1, 74, 95
3, 6768, Note_on_c, 1, 74, 0
3, 6768, Note_on_c, 1, 73, 95
3, 6792, Note_on_c, 1, 73, 0
3, 6792, Note_on_c, 1, 71, 95
3, 6816, Note_on_c, 1, 71, 0
3, 6816, Note_on_c, 1, 70, 95
3, 6822, Note_on_c, 1, 70, 0
3, 6822, Note_on_c, 1, 71, 95
3, 6828, Note_on_c, 1, 71, 0
3, 6828, Note_on_c, 1, 70, 95
3, 6834, Note_on_c, 1, 70, 0
3, 6834, Note_on_c, 1, 71, 95
3, 6840, Note_on_c, 1, 71, 0
3, 6840, Note_on_c, 1, 70, 95
3, 6846, Note_on_c, 1, 70, 0
3, 6846, Note_on_c, 1, 71, 95
3, 6852, Note_on_c, 1, 71, 0
3, 6852, Note_on_c, 1, 70, 95
3, 6858, Note_on_c, 1, 70, 0
3, 6858, Note_on_c, 1, 71, 95
3, 6864, Note_on_c, 1, 71, 0
3, 6864, Note_on_c, 1, 70, 95
3, 6870, Note_on_c, 1, 70, 0
3, 6870, Note_on_c, 1, 71, 95
3, 6876, Note_on_c, 1, 71, 0
3, 6876, Note_on_c, 1, 70, 95
3, 6882, Note_on_c, 1, 70, 0
3, 6882, Note_on_c, 1, 71, 95
3, 6888, Note_on_c, 1, 71, 0
3, 6888, Note_on_c, 1, 70, 95
3, 6894, Note_on_c, 1, 70, 0
3, 6894, Note_on_c, 1, 71, 95
3, 6900, Note_on_c, 1, 71, 0
3, 6900, Note_on_c, 1, 70, 95
3, 6906, Note_on_c, 1, 70, 0
3, 6906, Note_on_c, 1, 71, 95
3, 6912, Note_on_c, 1, 71, 0
3, 6912, Note_on_c, 1, 71, 95
3, 6936, Note_on_c, 1, 71, 0
3, 6936, Note_on_c, 1, 78, 95
3, 6960, Note_on_c, 1, 78, 0
3, 6960, Note_on_c, 1, 83, 95
3, 6984, Note_on_c, 1, 83, 0
3, 6984, Note_on_c, 1, 81, 95
3, 7008, Note_on_c, 1, 81, 0
3, 7008, Note_on_c, 1, 79, 95
3, 7104, Note_on_c, 1, 79, 0
3, 7128, Note_on_c, 1, 79, 95
3, 7152, Note_on_c, 1, 79, 0
3, 7152, Note_on_c, 1, 78, 95
3, 7176, Note_on_c, 1, 78, 0
3, 7176, Note_on_c, 1, 76, 95
3, 7200, Note_on_c, 1, 76, 0
3, 7200, Note_on_c, 1, 74, 95
3, 7224, Note_on_c, 1, 74, 0
3, 7224, Note_on_c, 1, 76, 95
3, 7248, Note_on_c, 1, 76, 0
3, 7248, Note_on_c, 1, 78, 95
3, 7272, Note_on_c, 1, 78, 0
3, 7272, Note_on_c, 1, 79, 95
3, 7296, Note_on_c, 1, 79, 0
3, 7296, Note_on_c, 1, 74, 95
3, 7332, Note_on_c, 1, 74, 0
3, 7332, Note_on_c, 1, 76, 95
3, 7344, Note_on_c, 1, 76, 0
3, 7344, Note_on_c, 1, 73, 95
3, 7380, Note_on_c, 1, 73, 0
3, 7380, Note_on_c, 1, 71, 95
3, 7392, Note_on_c, 1, 71, 0
3, 7392, Note_on_c, 1, 71, 95
3, 7416, Note_on_c, 1, 71, 0
3, 7416, Note_on_c, 1, 62, 95
3, 7428, Note_on_c, 1, 62, 0
3, 7428, Note_on_c, 1, 64, 95
3, 7440, Note_on_c, 1, 64, 0
3, 7440, Note_on_c, 1, 66, 95
3, 7452, Note_on_c, 1, 66, 0
3, 7452, Note_on_c, 1, 68, 95
3, 7464, Note_on_c, 1, 68, 0
3, 7464, Note_on_c, 1, 70, 95
3, 7476, Note_on_c, 1, 70, 0
3, 7476, Note_on_c, 1, 66, 95
3, 7488, Note_on_c, 1, 66, 0
3, 7488, Note_on_c, 1, 71, 95
3, 7500, Note_on_c, 1, 71, 0
3, 7500, Note_on_c, 1, 71, 95
3, 7512, Note_on_c, 1, 71, 0
3, 7512, Note_on_c, 1, 70, 95
3, 7524, Note_on_c, 1, 70, 0
3, 7524, Note_on_c, 1, 70, 95
3, 7536, Note_on_c, 1, 70, 0
3, 7536, Note_on_c, 1, 74, 95
3, 7548, Note_on_c, 1, 74, 0
3, 7548, Note_on_c, 1, 74, 95
3, 7560, Note_on_c, 1, 74, 0
3, 7560, Note_on_c, 1, 73, 95
3, 7572, Note_on_c, 1, 73, 0
3, 7572, Note_on_c, 1, 73, 95
3, 7584, Note_on_c, 1, 73, 0
3, 7584, Note_on_c, 1, 76, 95
3, 7596, Note_on_c, 1, 76, 0
3, 7596, Note_on_c, 1, 76, 95
3, 7608, Note_on_c, 1, 76, 0
3, 7608, Note_on_c, 1, 75, 95
3, 7620, Note_on_c, 1, 75, 0
3, 7620, Note_on_c, 1, 75, 95
3, 7632, Note_on_c, 1, 75, 0
3, 7632, Note_on_c, 1, 79, 95
3, 7644, Note_on_c, 1, 79, 0
3, 7644, Note_on_c, 1, 79, 95
3, 7656, Note_on_c, 1, 79, 0
3, 7656, Note_on_c, 1, 78, 95
3, 7668, Note_on_c, 1, 78, 0
3, 7668, Note_on_c, 1, 78, 95
3, 7680, Note_on_c, 1, 78, 0
3, 7680, Note_on_c, 1, 82, 95
3, 7692, Note_on_c, 1, 82, 0
3, 7692, Note_on_c, 1, 82, 95
3, 7704, Note_on_c, 1, 82, 0
3, 7704, Note_on_c, 1, 83, 95
3, 7716, Note_on_c, 1, 83, 0
3, 7716, Note_on_c, 1, 83, 95
3, 7728, Note_on_c, 1, 83, 0
3, 7728, Note_on_c, 1, 77, 95
3, 7740, Note_on_c, 1, 77, 0
3, 7740, Note_on_c, 1, 77, 95
3, 7752, Note_on_c, 1, 77, 0
3, 7752, Note_on_c, 1, 78, 95
3, 7764, Note_on_c, 1, 78, 0
3, 7764, Note_on_c, 1, 78, 95
3, 7776, Note_on_c, 1, 78, 0
3, 7776, Note_on_c, 1, 76, 95
3, 7788, Note_on_c, 1, 76, 0
3, 7788, Note_on_c, 1, 74, 95
3, 7800, Note_on_c, 1, 74, 0
3, 7800, Note_on_c, 1, 73, 95
3, 7812, Note_on_c, 1, 73, 0
3, 7812, Note_on_c, 1, 71, 95
3, 7824, Note_on_c, 1, 71, 0
3, 7824, Note_on_c, 1, 74, 95
3, 7836, Note_on_c, 1, 74, 0
3, 7836, Note_on_c, 1, 73, 95
3, 7848, Note_on_c, 1, 73, 0
3, 7848, Note_on_c, 1, 71, 95
3, 7860, Note_on_c, 1, 71, 0
3, 7860, Note_on_c, 1, 70, 95
3, 7872, Note_on_c, 1, 70, 0
3, 7872, Note_on_c, 1, 71, 95
3, 7920, Note_on_c, 1, 71, 0
3, 7992, Note_on_c, 1, 71, 79
3, 8012, Note_on_c, 1, 71, 0
3, 8016, Note_on_c, 1, 70, 79
3, 8036, Note_on_c, 1, 70, 0
3, 8040, Note_on_c, 1, 68, 79
3, 8060, Note_on_c, 1, 68, 0
3, 8064, Note_on_c, 1, 66, 79
3, 8144, Note_on_c, 1, 66, 0
3, 8184, Note_on_c, 1, 79, 79
3, 8204, Note_on_c, 1, 79, 0
3, 8208, Note_on_c, 1, 78, 79
3, 8228, Note_on_c, 1, 78, 0
3, 8232, Note_on_c, 1, 76, 79
3, 8252, Note_on_c, 1, 76, 0
3, 8256, Note_on_c, 1, 74, 79
3, 8266, Note_on_c, 1, 74, 0
3, 8268, Note_on_c, 1, 76, 79
3, 8278, Note_on_c, 1, 76, 0
3, 8280, Note_on_c, 1, 78, 79
3, 8310, Note_on_c, 1, 78, 0
3, 8316, Note_on_c, 1, 74, 95
3, 8326, Note_on_c, 1, 74, 0
3, 8328, Note_on_c, 1, 76, 95
3, 8338, Note_on_c, 1, 76, 0
3, 8340, Note_on_c, 1, 78, 95
3, 8350, Note_on_c, 1, 78, 0
3, 8352, Note_on_c, 1, 79, 95
3, 8392, Note_on_c, 1, 79, 0
3, 8412, Note_on_c, 1, 78, 95
3, 8422, Note_on_c, 1, 78, 0
3, 8424, Note_on_c, 1, 76, 95
3, 8434, Note_on_c, 1, 76, 0
3, 8436, Note_on_c, 1, 78, 95
3, 8446, Note_on_c, 1, 78, 0
3, 8448, Note_on_c, 1, 79, 95
3, 8528, Note_on_c, 1, 79, 0
3, 8568, Note_on_c, 1, 78, 95
3, 8588, Note_on_c, 1, 78, 0
3, 8592, Note_on_c, 1, 76, 95
3, 8612, Note_on_c, 1, 76, 0
3, 8616, Note_on_c, 1, 74, 95
3, 8636, Note_on_c, 1, 74, 0
3, 8640, Note_on_c, 1, 73, 95
3, 8680, Note_on_c, 1, 73, 0
3, 8712, Note_on_c, 1, 73, 95
3, 8732, Note_on_c, 1, 73, 0
3, 8736, Note_on_c, 1, 74, 95
3, 8746, Note_on_c, 1, 74, 0
3, 8748, Note_on_c, 1, 76, 95
3, 8758, Note_on_c, 1, 76, 0
3, 8760, Note_on_c, 1, 78, 95
3, 8794, Note_on_c, 1, 78, 0
3, 8796, Note_on_c, 1, 74, 95
3, 8806, Note_on_c, 1, 74, 0
3, 8808, Note_on_c, 1, 76, 95
3, 8818, Note_on_c, 1, 76, 0
3, 8820, Note_on_c, 1, 78, 95
3, 8830, Note_on_c, 1, 78, 0
3, 8832, Note_on_c, 1, 79, 95
3, 8872, Note_on_c, 1, 79, 0
3, 8904, Note_on_c, 1, 79, 95
3, 8924, Note_on_c, 1, 79, 0
3, 8928, Note_on_c, 1, 79, 95
3, 8938, Note_on_c, 1, 79, 0
3, 8940, Note_on_c, 1, 76, 95
3, 8950, Note_on_c, 1, 76, 0
3, 8952, Note_on_c, 1, 78, 95
3, 8972, Note_on_c, 1, 78, 0
3, 9000, Note_on_c, 1, 78, 95
3, 9020, Note_on_c, 1, 78, 0
3, 9024, Note_on_c, 1, 78, 95
3, 9034, Note_on_c, 1, 78, 0
3, 9036, Note_on_c, 1, 74, 95
3, 9046, Note_on_c, 1, 74, 0
3, 9048, Note_on_c, 1, 76, 95
3, 9068, Note_on_c, 1, 76, 0
3, 9096, Note_on_c, 1, 76, 95
3, 9116, Note_on_c, 1, 76, 0
3, 9120, Note_on_c, 1, 76, 95
3, 9130, Note_on_c, 1, 76, 0
3, 9132, Note_on_c, 1, 73, 95
3, 9142, Note_on_c, 1, 73, 0
3, 9144, Note_on_c, 1, 74, 95
3, 9154, Note_on_c, 1, 74, 0
3, 9156, Note_on_c, 1, 76, 95
3, 9166, Note_on_c, 1, 76, 0
3, 9168, Note_on_c, 1, 74, 95
3, 9178, Note_on_c, 1, 74, 0
3, 9180, Note_on_c, 1, 78, 95
3, 9190, Note_on_c, 1, 78, 0
3, 9192, Note_on_c, 1, 76, 95
3, 9202, Note_on_c, 1, 76, 0
3, 9204, Note_on_c, 1, 74, 95
3, 9214, Note_on_c, 1, 74, 0
3, 9216, Note_on_c, 1, 73, 95
3, 9236, Note_on_c, 1, 73, 0
3, 9240, Note_on_c, 1, 69, 95
3, 9260, Note_on_c, 1, 69, 0
3, 9288, Note_on_c, 1, 64, 95
3, 9308, Note_on_c, 1, 64, 0
3, 9312, Note_on_c, 1, 66, 95
3, 9322, Note_on_c, 1, 66, 0
3, 9324, Note_on_c, 1, 64, 95
3, 9334, Note_on_c, 1, 64, 0
3, 9336, Note_on_c, 1, 66, 95
3, 9346, Note_on_c, 1, 66, 0
3, 9348, Note_on_c, 1, 67, 95
3, 9358, Note_on_c, 1, 67, 0
3, 9360, Note_on_c, 1, 66, 95
3, 9370, Note_on_c, 1, 66, 0
3, 9372, Note_on_c, 1, 69, 95
3, 9382, Note_on_c, 1, 69, 0
3, 9384, Note_on_c, 1, 67, 95
3, 9394, Note_on_c, 1, 67, 0
3, 9396, Note_on_c, 1, 66, 95
3, 9406, Note_on_c, 1, 66, 0
3, 9408, Note_on_c, 1, 64, 95
3, 9448, Note_on_c, 1, 64, 0
3, 9480, Note_on_c, 1, 64, 95
3, 9500, Note_on_c, 1, 64, 0
3, 9504, Note_on_c, 1, 66, 95
3, 9524, Note_on_c, 1, 66, 0
3, 9528, Note_on_c, 1, 64, 95
3, 9548, Note_on_c, 1, 64, 0
3, 9552, Note_on_c, 1, 67, 95
3, 9572, Note_on_c, 1, 67, 0
3, 9576, Note_on_c, 1, 66, 95
3, 9596, Note_on_c, 1, 66, 0
3, 9600, Note_on_c, 1, 71, 95
3, 9640, Note_on_c, 1, 71, 0
3, 9672, Note_on_c, 1, 71, 95
3, 9692, Note_on_c, 1, 71, 0
3, 9696, Note_on_c, 1, 73, 95
3, 9716, Note_on_c, 1, 73, 0
3, 9720, Note_on_c, 1, 71, 95
3, 9740, Note_on_c, 1, 71, 0
3, 9744, Note_on_c, 1, 74, 95
3, 9764, Note_on_c, 1, 74, 0
3, 9768, Note_on_c, 1, 73, 95
3, 9788, Note_on_c, 1, 73, 0
3, 9792, Note_on_c, 1, 76, 95
3, 9812, Note_on_c, 1, 76, 0
3, 9816, Note_on_c, 1, 69, 95
3, 9836, Note_on_c, 1, 69, 0
3, 9840, Note_on_c, 1, 78, 95
3, 9968, Note_on_c, 1, 78, 0
3, 9984, Note_on_c, 1, 78, 95
3, 10004, Note_on_c, 1, 78, 0
3, 10008, Note_on_c, 1, 71, 95
3, 10028, Note_on_c, 1, 71, 0
3, 10032, Note_on_c, 1, 76, 95
3, 10160, Note_on_c, 1, 76, 0
3, 10176, Note_on_c, 1, 76, 95
3, 10186, Note_on_c, 1, 76, 0
3, 10188, Note_on_c, 1, 79, 95
3, 10198, Note_on_c, 1, 79, 0
3, 10200, Note_on_c, 1, 78, 95
3, 10210, Note_on_c, 1, 78, 0
3, 10212, Note_on_c, 1, 76, 95
3, 10222, Note_on_c, 1, 76, 0
3, 10224, Note_on_c, 1, 74, 95
3, 10234, Note_on_c, 1, 74, 0
3, 10236, Note_on_c, 1, 72, 95
3, 10246, Note_on_c, 1, 72, 0
3, 10248, Note_on_c, 1, 71, 95
3, 10258, Note_on_c, 1, 71, 0
3, 10260, Note_on_c, 1, 69, 95
3, 10270, Note_on_c, 1, 69, 0
3, 10272, Note_on_c, 1, 71, 95
3, 10292, Note_on_c, 1, 71, 0
3, 10296, Note_on_c, 1, 69, 95
3, 10316, Note_on_c, 1, 69, 0
3, 10320, Note_on_c, 1, 72, 95
3, 10340, Note_on_c, 1, 72, 0
3, 10344, Note_on_c, 1, 71, 95
3, 10364, Note_on_c, 1, 71, 0
3, 10368, Note_on_c, 1, 76, 95
3, 10408, Note_on_c, 1, 76, 0
3, 10440, Note_on_c, 1, 76, 95
3, 10460, Note_on_c, 1, 76, 0
3, 10464, Note_on_c, 1, 78, 95
3, 10484, Note_on_c, 1, 78, 0
3, 10488, Note_on_c, 1, 76, 95
3, 10508, Note_on_c, 1, 76, 0
3, 10512, Note_on_c, 1, 79, 95
3, 10532, Note_on_c, 1, 79, 0
3, 10536, Note_on_c, 1, 78, 95
3, 10556, Note_on_c, 1, 78, 0
3, 10560, Note_on_c, 1, 81, 95
3, 10600, Note_on_c, 1, 81, 0
3, 10632, Note_on_c, 1, 69, 95
3, 10652, Note_on_c, 1, 69, 0
3, 10656, Note_on_c, 1, 71, 95
3, 10676, Note_on_c, 1, 71, 0
3, 10680, Note_on_c, 1, 69, 95
3, 10700, Note_on_c, 1, 69, 0
3, 10704, Note_on_c, 1, 72, 95
3, 10724, Note_on_c, 1, 72, 0
3, 10728, Note_on_c, 1, 71, 95
3, 10748, Note_on_c, 1, 71, 0
3, 10752, Note_on_c, 1, 76, 95
3, 10772, Note_on_c, 1, 76, 0
3, 10776, Note_on_c, 1, 74, 95
3, 10796, Note_on_c, 1, 74, 0
3, 10800, Note_on_c, 1, 66, 95
3, 10820, Note_on_c, 1, 66, 0
3, 10824, Note_on_c, 1, 67, 95
3, 10844, Note_on_c, 1, 67, 0
3, 10848, Note_on_c, 1, 61, 95
3, 10868, Note_on_c, 1, 61, 0
3, 10872, Note_on_c, 1, 62, 95
3, 10892, Note_on_c, 1, 62, 0
3, 10896, Note_on_c, 1, 64, 95
3, 10916, Note_on_c, 1, 64, 0
3, 10920, Note_on_c, 1, 66, 95
3, 10940, Note_on_c, 1, 66, 0
3, 10944, Note_on_c, 1, 67, 95
3, 10954, Note_on_c, 1, 67, 0
3, 10956, Note_on_c, 1, 66, 95
3, 10966, Note_on_c, 1, 66, 0
3, 10968, Note_on_c, 1, 64, 95
3, 10978, Note_on_c, 1, 64, 0
3, 10980, Note_on_c, 1, 66, 95
3, 10990, Note_on_c, 1, 66, 0
3, 10992, Note_on_c, 1, 67, 95
3, 11002, Note_on_c, 1, 67, 0
3, 11004, Note_on_c, 1, 71, 95
3, 11014, Note_on_c, 1, 71, 0
3, 11016, Note_on_c, 1, 69, 95
3, 11026, Note_on_c, 1, 69, 0
3, 11028, Note_on_c, 1, 67, 95
3, 11038, Note_on_c, 1, 67, 0
3, 11040, Note_on_c, 1, 66, 95
3, 11050, Note_on_c, 1, 66, 0
3, 11052, Note_on_c, 1, 66, 95
3, 11062, Note_on_c, 1, 66, 0
3, 11064, Note_on_c, 1, 69, 95
3, 11074, Note_on_c, 1, 69, 0
3, 11076, Note_on_c, 1, 69, 95
3, 11086, Note_on_c, 1, 69, 0
3, 11088, Note_on_c, 1, 74, 95
3, 11098, Note_on_c, 1, 74, 0
3, 11100, Note_on_c, 1, 74, 95
3, 11110, Note_on_c, 1, 74, 0
3, 11112, Note_on_c, 1, 78, 95
3, 11122, Note_on_c, 1, 78, 0
3, 11124, Note_on_c, 1, 78, 95
3, 11134, Note_on_c, 1, 78, 0
3, 11136, Note_on_c, 1, 83, 95
3, 11146, Note_on_c, 1, 83, 0
3, 11148, Note_on_c, 1, 83, 95
3, 11158, Note_on_c, 1, 83, 0
3, 11160, Note_on_c, 1, 81, 95
3, 11170, Note_on_c, 1, 81, 0
3, 11172, Note_on_c, 1, 81, 95
3, 11182, Note_on_c, 1, 81, 0
3, 11184, Note_on_c, 1, 73, 95
3, 11194, Note_on_c, 1, 73, 0
3, 11196, Note_on_c, 1, 73, 95
3, 11206, Note_on_c, 1, 73, 0
3, 11208, Note_on_c, 1, 74, 95
3, 11218, Note_on_c, 1, 74, 0
3, 11220, Note_on_c, 1, 74, 95
3, 11230, Note_on_c, 1, 74, 0
3, 11232, Note_on_c, 1, 67, 95
3, 11242, Note_on_c, 1, 67, 0
3, 11244, Note_on_c, 1, 67, 95
3, 11254, Note_on_c, 1, 67, 0
3, 11256, Note_on_c, 1, 66, 95
3, 11266, Note_on_c, 1, 66, 0
3, 11268, Note_on_c, 1, 66, 95
3, 11278, Note_on_c, 1, 66, 0
3, 11280, Note_on_c, 1, 71, 95
3, 11290, Note_on_c, 1, 71, 0
3, 11292, Note_on_c, 1, 71, 95
3, 11302, Note_on_c, 1, 71, 0
3, 11304, Note_on_c, 1, 69, 95
3, 11314, Note_on_c, 1, 69, 0
3, 11316, Note_on_c, 1, 69, 95
3, 11326, Note_on_c, 1, 69, 0
3, 11328, Note_on_c, 1, 61, 95
3, 11338, Note_on_c, 1, 61, 0
3, 11340, Note_on_c, 1, 61, 95
3, 11350, Note_on_c, 1, 61, 0
3, 11352, Note_on_c, 1, 62, 95
3, 11362, Note_on_c, 1, 62, 0
3, 11364, Note_on_c, 1, 62, 95
3, 11374, Note_on_c, 1, 62, 0
3, 11376, Note_on_c, 1, 57, 95
3, 11386, Note_on_c, 1, 57, 0
3, 11388, Note_on_c, 1, 57, 95
3, 11398, Note_on_c, 1, 57, 0
3, 11400, Note_on_c, 1, 67, 95
3, 11410, Note_on_c, 1, 67, 0
3, 11412, Note_on_c, 1, 67, 95
3, 11422, Note_on_c, 1, 67, 0
3, 11424, Note_on_c, 1, 66, 95
3, 11434, Note_on_c, 1, 66, 0
3, 11436, Note_on_c, 1, 64, 95
3, 11446, Note_on_c, 1, 64, 0
3, 11448, Note_on_c, 1, 66, 95
3, 11458, Note_on_c, 1, 66, 0
3, 11460, Note_on_c, 1, 62, 95
3, 11470, Note_on_c, 1, 62, 0
3, 11472, Note_on_c, 1, 64, 95
3, 11482, Note_on_c, 1, 64, 0
3, 11484, Note_on_c, 1, 64, 95
3, 11494, Note_on_c, 1, 64, 0
3, 11496, Note_on_c, 1, 57, 95
3, 11506, Note_on_c, 1, 57, 0
3, 11508, Note_on_c, 1, 57, 95
3, 11518, Note_on_c, 1, 57, 0
3, 11520, Note_on_c, 1, 62, 95
3, 11540, Note_on_c, 1, 62, 0
3, 11640, Note_on_c, 1, 64, 79
3, 11664, Note_on_c, 1, 64, 0
3, 11664, Note_on_c, 1, 66, 79
3, 11688, Note_on_c, 1, 66, 0
3, 11688, Note_on_c, 1, 64, 79
3, 11712, Note_on_c, 1, 64, 0
3, 11712, Note_on_c, 1, 67, 79
3, 11736, Note_on_c, 1, 67, 0
3, 11736, Note_on_c, 1, 66, 79
3, 11760, Note_on_c, 1, 66, 0
3, 11760, Note_on_c, 1, 71, 79
3, 11784, Note_on_c, 1, 71, 0
3, 11784, Note_on_c, 1, 69, 79
3, 11808, Note_on_c, 1, 69, 0
3, 11808, Note_on_c, 1, 74, 79
3, 11904, Note_on_c, 1, 74, 0
3, 11928, Note_on_c, 1, 73, 79
3, 11952, Note_on_c, 1, 73, 0
3, 11952, Note_on_c, 1, 76, 79
3, 11976, Note_on_c, 1, 76, 0
3, 11976, Note_on_c, 1, 74, 79
3, 12000, Note_on_c, 1, 74, 0
3, 12000, Note_on_c, 1, 79, 79
3, 12024, Note_on_c, 1, 79, 0
3, 12024, Note_on_c, 1, 78, 79
3, 12048, Note_on_c, 1, 78, 0
3, 12048, Note_on_c, 1, 76, 79
3, 12072, Note_on_c, 1, 76, 0
3, 12072, Note_on_c, 1, 74, 79
3, 12084, Note_on_c, 1, 74, 0
3, 12084, Note_on_c, 1, 73, 79
3, 12096, Note_on_c, 1, 73, 0
3, 12096, Note_on_c, 1, 74, 79
3, 12108, Note_on_c, 1, 74, 0
3, 12108, Note_on_c, 1, 76, 79
3, 12120, Note_on_c, 1, 76, 0
3, 12120, Note_on_c, 1, 73, 79
3, 12132, Note_on_c, 1, 73, 0
3, 12132, Note_on_c, 1, 74, 79
3, 12144, Note_on_c, 1, 74, 0
3, 12144, Note_on_c, 1, 71, 79
3, 12150, Note_on_c, 1, 71, 0
3, 12150, Note_on_c, 1, 73, 79
3, 12156, Note_on_c, 1, 73, 0
3, 12156, Note_on_c, 1, 71, 79
3, 12162, Note_on_c, 1, 71, 0
3, 12162, Note_on_c, 1, 73, 79
3, 12168, Note_on_c, 1, 73, 0
3, 12168, Note_on_c, 1, 64, 79
3, 12180, Note_on_c, 1, 64, 0
3, 12180, Note_on_c, 1, 66, 79
3, 12192, Note_on_c, 1, 66, 0
3, 12192, Note_on_c, 1, 67, 79
3, 12204, Note_on_c, 1, 67, 0
3, 12204, Note_on_c, 1, 64, 79
3, 12216, Note_on_c, 1, 64, 0
3, 12216, Note_on_c, 1, 66, 79
3, 12228, Note_on_c, 1, 66, 0
3, 12228, Note_on_c, 1, 69, 79
3, 12240, Note_on_c, 1, 69, 0
3, 12240, Note_on_c, 1, 68, 79
3, 12252, Note_on_c, 1, 68, 0
3, 12252, Note_on_c, 1, 64, 79
3, 12264, Note_on_c, 1, 64, 0
3, 12264, Note_on_c, 1, 66, 79
3, 12276, Note_on_c, 1, 66, 0
3, 12276, Note_on_c, 1, 68, 79
3, 12288, Note_on_c, 1, 68, 0
3, 12288, Note_on_c, 1, 69, 79
3, 12300, Note_on_c, 1, 69, 0
3, 12300, Note_on_c, 1, 66, 79
3, 12312, Note_on_c, 1, 66, 0
3, 12312, Note_on_c, 1, 68, 79
3, 12324, Note_on_c, 1, 68, 0
3, 12324, Note_on_c, 1, 71, 79
3, 12336, Note_on_c, 1, 71, 0
3, 12336, Note_on_c, 1, 69, 79
3, 12348, Note_on_c, 1, 69, 0
3, 12348, Note_on_c, 1, 66, 79
3, 12360, Note_on_c, 1, 66, 0
3, 12360, Note_on_c, 1, 68, 79
3, 12372, Note_on_c, 1, 68, 0
3, 12372, Note_on_c, 1, 69, 79
3, 12384, Note_on_c, 1, 69, 0
3, 12384, Note_on_c, 1, 71, 79
3, 12396, Note_on_c, 1, 71, 0
3, 12396, Note_on_c, 1, 68, 79
3, 12408, Note_on_c, 1, 68, 0
3, 12408, Note_on_c, 1, 69, 79
3, 12420, Note_on_c, 1, 69, 0
3, 12420, Note_on_c, 1, 73, 79
3, 12432, Note_on_c, 1, 73, 0
3, 12432, Note_on_c, 1, 71, 79
3, 12444, Note_on_c, 1, 71, 0
3, 12444, Note_on_c, 1, 68, 79
3, 12456, Note_on_c, 1, 68, 0
3, 12456, Note_on_c, 1, 69, 79
3, 12468, Note_on_c, 1, 69, 0
3, 12468, Note_on_c, 1, 71, 79
3, 12480, Note_on_c, 1, 71, 0
3, 12480, Note_on_c, 1, 73, 79
3, 12504, Note_on_c, 1, 73, 0
3, 12504, Note_on_c, 1, 71, 79
3, 12528, Note_on_c, 1, 71, 0
3, 12528, Note_on_c, 1, 74, 79
3, 12552, Note_on_c, 1, 74, 0
3, 12552, Note_on_c, 1, 73, 79
3, 12576, Note_on_c, 1, 73, 0
3, 12576, Note_on_c, 1, 78, 79
3, 12600, Note_on_c, 1, 78, 0
3, 12600, Note_on_c, 1, 76, 79
3, 12624, Note_on_c, 1, 76, 0
3, 12624, Note_on_c, 1, 76, 79
3, 12768, Note_on_c, 1, 76, 0
3, 12780, Note_on_c, 1, 75, 79
3, 12792, Note_on_c, 1, 75, 0
3, 12792, Note_on_c, 1, 76, 79
3, 12804, Note_on_c, 1, 76, 0
3, 12804, Note_on_c, 1, 78, 79
3, 12816, Note_on_c, 1, 78, 0
3, 12816, Note_on_c, 1, 75, 79
3, 12828, Note_on_c, 1, 75, 0
3, 12828, Note_on_c, 1, 78, 79
3, 12840, Note_on_c, 1, 78, 0
3, 12840, Note_on_c, 1, 76, 79
3, 12852, Note_on_c, 1, 76, 0
3, 12852, Note_on_c, 1, 78, 79
3, 12864, Note_on_c, 1, 78, 0
3, 12864, Note_on_c, 1, 80, 79
3, 12960, Note_on_c, 1, 80, 0
3, 12972, Note_on_c, 1, 78, 79
3, 12984, Note_on_c, 1, 78, 0
3, 12984, Note_on_c, 1, 80, 79
3, 12996, Note_on_c, 1, 80, 0
3, 12996, Note_on_c, 1, 81, 79
3, 13008, Note_on_c, 1, 81, 0
3, 13008, Note_on_c, 1, 78, 79
3, 13020, Note_on_c, 1, 78, 0
3, 13020, Note_on_c, 1, 81, 79
3, 13032, Note_on_c, 1, 81, 0
3, 13032, Note_on_c, 1, 80, 79
3, 13044, Note_on_c, 1, 80, 0
3, 13044, Note_on_c, 1, 81, 79
3, 13056, Note_on_c, 1, 81, 0
3, 13056, Note_on_c, 1, 83, 79
3, 13152, Note_on_c, 1, 83, 0
3, 13164, Note_on_c, 1, 86, 79
3, 13176, Note_on_c, 1, 86, 0
3, 13176, Note_on_c, 1, 85, 79
3, 13188, Note_on_c, 1, 85, 0
3, 13188, Note_on_c, 1, 83, 79
3, 13200, Note_on_c, 1, 83, 0
3, 13200, Note_on_c, 1, 81, 79
3, 13212, Note_on_c, 1, 81, 0
3, 13212, Note_on_c, 1, 80, 79
3, 13224, Note_on_c, 1, 80, 0
3, 13224, Note_on_c, 1, 78, 79
3, 13236, Note_on_c, 1, 78, 0
3, 13236, Note_on_c, 1, 81, 79
3, 13248, Note_on_c, 1, 81, 0
3, 13248, Note_on_c, 1, 74, 79
3, 13344, Note_on_c, 1, 74, 0
3, 13356, Note_on_c, 1, 73, 79
3, 13368, Note_on_c, 1, 73, 0
3, 13368, Note_on_c, 1, 71, 79
3, 13380, Note_on_c, 1, 71, 0
3, 13380, Note_on_c, 1, 74, 79
3, 13392, Note_on_c, 1, 74, 0
3, 13392, Note_on_c, 1, 73, 79
3, 13404, Note_on_c, 1, 73, 0
3, 13404, Note_on_c, 1, 71, 79
3, 13416, Note_on_c, 1, 71, 0
3, 13416, Note_on_c, 1, 69, 79
3, 13428, Note_on_c, 1, 69, 0
3, 13428, Note_on_c, 1, 68, 79
3, 13440, Note_on_c, 1, 68, 0
3, 13440, Note_on_c, 1, 69, 79
3, 13464, Note_on_c, 1, 69, 0
3, 13488, Note_on_c, 1, 78, 63
3, 13512, Note_on_c, 1, 78, 0
3, 13536, Note_on_c, 1, 78, 63
3, 13560, Note_on_c, 1, 78, 0
3, 13584, Note_on_c, 1, 78, 63
3, 13608, Note_on_c, 1, 78, 0
3, 13632, Note_on_c, 1, 69, 63
3, 13668, Note_on_c, 1, 69, 0
3, 13668, Note_on_c, 1, 71, 63
3, 13680, Note_on_c, 1, 71, 0
3, 13680, Note_on_c, 1, 69, 63
3, 13692, Note_on_c, 1, 69, 0
3, 13692, Note_on_c, 1, 74, 63
3, 13704, Note_on_c, 1, 74, 0
3, 13704, Note_on_c, 1, 73, 63
3, 13716, Note_on_c, 1, 73, 0
3, 13716, Note_on_c, 1, 74, 63
3, 13728, Note_on_c, 1, 74, 0
3, 13728, Note_on_c, 1, 69, 63
3, 13764, Note_on_c, 1, 69, 0
3, 13764, Note_on_c, 1, 71, 63
3, 13776, Note_on_c, 1, 71, 0
3, 13776, Note_on_c, 1, 69, 63
3, 13788, Note_on_c, 1, 69, 0
3, 13788, Note_on_c, 1, 74, 63
3, 13800, Note_on_c, 1, 74, 0
3, 13800, Note_on_c, 1, 73, 63
3, 13812, Note_on_c, 1, 73, 0
3, 13812, Note_on_c, 1, 74, 63
3, 13824, Note_on_c, 1, 74, 0
3, 13824, Note_on_c, 1, 65, 63
3, 13848, Note_on_c, 1, 65, 0
3, 13872, Note_on_c, 1, 65, 63
3, 13896, Note_on_c, 1, 65, 0
3, 13920, Note_on_c, 1, 65, 63
3, 13944, Note_on_c, 1, 65, 0
3, 13968, Note_on_c, 1, 65, 63
3, 13992, Note_on_c, 1, 65, 0
3, 14016, Note_on_c, 1, 69, 63
3, 14052, Note_on_c, 1, 69, 0
3, 14052, Note_on_c, 1, 71, 63
3, 14064, Note_on_c, 1, 71, 0
3, 14064, Note_on_c, 1, 69, 63
3, 14076, Note_on_c, 1, 69, 0
3, 14076, Note_on_c, 1, 78, 63
3, 14088, Note_on_c, 1, 78, 0
3, 14088, Note_on_c, 1, 77, 63
3, 14100, Note_on_c, 1, 77, 0
3, 14100, Note_on_c, 1, 78, 63
3, 14112, Note_on_c, 1, 78, 0
3, 14112, Note_on_c, 1, 69, 63
3, 14148, Note_on_c, 1, 69, 0
3, 14148, Note_on_c, 1, 71, 63
3, 14160, Note_on_c, 1, 71, 0
3, 14160, Note_on_c, 1, 69, 63
3, 14172, Note_on_c, 1, 69, 0
3, 14172, Note_on_c, 1, 78, 63
3, 14184, Note_on_c, 1, 78, 0
3, 14184, Note_on_c, 1, 77, 63
3, 14196, Note_on_c, 1, 77, 0
3, 14196, Note_on_c, 1, 78, 63
3, 14208, Note_on_c, 1, 78, 0
3, 14208, Note_on_c, 1, 74, 63
3, 14232, Note_on_c, 1, 74, 0
3, 14256, Note_on_c, 1, 74, 63
3, 14280, Note_on_c, 1, 74, 0
3, 14304, Note_on_c, 1, 74, 63
3, 14328, Note_on_c, 1, 74, 0
3, 14352, Note_on_c, 1, 74, 63
3, 14376, Note_on_c, 1, 74, 0
3, 14400, Note_on_c, 1, 74, 63
3, 14436, Note_on_c, 1, 74, 0
3, 14436, Note_on_c, 1, 76, 63
3, 14448, Note_on_c, 1, 76, 0
3, 14448, Note_on_c, 1, 74, 63
3, 14460, Note_on_c, 1, 74, 0
3, 14460, Note_on_c, 1, 83, 63
3, 14472, Note_on_c, 1, 83, 0
3, 14472, Note_on_c, 1, 81, 63
3, 14484, Note_on_c, 1, 81, 0
3, 14484, Note_on_c, 1, 83, 63
3, 14496, Note_on_c, 1, 83, 0
3, 14496, Note_on_c, 1, 74, 63
3, 14532, Note_on_c, 1, 74, 0
3, 14532, Note_on_c, 1, 76, 63
3, 14544, Note_on_c, 1, 76, 0
3, 14544, Note_on_c, 1, 74, 63
3, 14556, Note_on_c, 1, 74, 0
3, 14556, Note_on_c, 1, 83, 63
3, 14568, Note_on_c, 1, 83, 0
3, 14568, Note_on_c, 1, 81, 63
3, 14580, Note_on_c, 1, 81, 0
3, 14580, Note_on_c, 1, 83, 63
3, 14592, Note_on_c, 1, 83, 0
3, 14592, Note_on_c, 1, 73, 63
3, 14616, Note_on_c, 1, 73, 0
3, 14640, Note_on_c, 1, 81, 63
3, 14664, Note_on_c, 1, 81, 0
3, 14688, Note_on_c, 1, 81, 63
3, 14712, Note_on_c, 1, 81, 0
3, 14736, Note_on_c, 1, 81, 63
3, 14760, Note_on_c, 1, 81, 0
3, 14784, Note_on_c, 1, 74, 63
3, 14820, Note_on_c, 1, 74, 0
3, 14820, Note_on_c, 1, 76, 63
3, 14832, Note_on_c, 1, 76, 0
3, 14832, Note_on_c, 1, 74, 63
3, 14844, Note_on_c, 1, 74, 0
3, 14844, Note_on_c, 1, 78, 63
3, 14856, Note_on_c, 1, 78, 0
3, 14856, Note_on_c, 1, 76, 63
3, 14868, Note_on_c, 1, 76, 0
3, 14868, Note_on_c, 1, 78, 63
3, 14880, Note_on_c, 1, 78, 0
3, 14880, Note_on_c, 1, 74, 63
3, 14916, Note_on_c, 1, 74, 0
3, 14916, Note_on_c, 1, 76, 63
3, 14928, Note_on_c, 1, 76, 0
3, 14928, Note_on_c, 1, 74, 63
3, 14940, Note_on_c, 1, 74, 0
3, 14940, Note_on_c, 1, 78, 63
3, 14952, Note_on_c, 1, 78, 0
3, 14952, Note_on_c, 1, 76, 63
3, 14964, Note_on_c, 1, 76, 0
3, 14964, Note_on_c, 1, 78, 63
3, 14976, Note_on_c, 1, 78, 0
3, 14976, Note_on_c, 1, 71, 63
3, 15000, Note_on_c, 1, 71, 0
3, 15024, Note_on_c, 1, 71, 63
3, 15048, Note_on_c, 1, 71, 0
3, 15072, Note_on_c, 1, 71, 63
3, 15096, Note_on_c, 1, 71, 0
3, 15120, Note_on_c, 1, 71, 63
3, 15144, Note_on_c, 1, 71, 0
3, 15168, Note_on_c, 1, 76, 63
3, 15204, Note_on_c, 1, 76, 0
3, 15204, Note_on_c, 1, 78, 63
3, 15216, Note_on_c, 1, 78, 0
3, 15216, Note_on_c, 1, 76, 63
3, 15228, Note_on_c, 1, 76, 0
3, 15228, Note_on_c, 1, 81, 63
3, 15240, Note_on_c, 1, 81, 0
3, 15240, Note_on_c, 1, 80, 63
3, 15252, Note_on_c, 1, 80, 0
3, 15252, Note_on_c, 1, 81, 63
3, 15264, Note_on_c, 1, 81, 0
3, 15264, Note_on_c, 1, 76, 63
3, 15300, Note_on_c, 1, 76, 0
3, 15300, Note_on_c, 1, 78, 63
3, 15312, Note_on_c, 1, 78, 0
3, 15312, Note_on_c, 1, 76, 63
3, 15324, Note_on_c, 1, 76, 0
3, 15324, Note_on_c, 1, 81, 63
3, 15336, Note_on_c, 1, 81, 0
3, 15336, Note_on_c, 1, 80, 63
3, 15348, Note_on_c, 1, 80, 0
3, 15348, Note_on_c, 1, 81, 63
3, 15360, Note_on_c, 1, 81, 0
3, 15360, Note_on_c, 1, 73, 63
3, 15384, Note_on_c, 1, 73, 0
3, 15384, Note_on_c, 1, 69, 63
3, 15408, Note_on_c, 1, 69, 0
3, 15432, Note_on_c, 1, 81, 63
3, 15456, Note_on_c, 1, 81, 0
3, 15456, Note_on_c, 1, 78, 63
3, 15480, Note_on_c, 1, 78, 0
3, 15480, Note_on_c, 1, 75, 63
3, 15504, Note_on_c, 1, 75, 0
3, 15528, Note_on_c, 1, 78, 63
3, 15552, Note_on_c, 1, 78, 0
3, 15552, Note_on_c, 1, 75, 63
3, 15576, Note_on_c, 1, 75, 0
3, 15576, Note_on_c, 1, 71, 63
3, 15600, Note_on_c, 1, 71, 0
3, 15624, Note_on_c, 1, 75, 63
3, 15648, Note_on_c, 1, 75, 0
3, 15648, Note_on_c, 1, 71, 63
3, 15672, Note_on_c, 1, 71, 0
3, 15672, Note_on_c, 1, 68, 63
3, 15696, Note_on_c, 1, 68, 0
3, 15720, Note_on_c, 1, 71, 63
3, 15744, Note_on_c, 1, 71, 0
3, 15744, Note_on_c, 1, 68, 63
3, 15768, Note_on_c, 1, 68, 0
3, 15768, Note_on_c, 1, 64, 63
3, 15792, Note_on_c, 1, 64, 0
3, 15816, Note_on_c, 1, 80, 63
3, 15840, Note_on_c, 1, 80, 0
3, 15840, Note_on_c, 1, 76, 63
3, 15864, Note_on_c, 1, 76, 0
3, 15864, Note_on_c, 1, 73, 63
3, 15888, Note_on_c, 1, 73, 0
3, 15912, Note_on_c, 1, 76, 63
3, 15936, Note_on_c, 1, 76, 0
3, 15936, Note_on_c, 1, 73, 63
3, 15960, Note_on_c, 1, 73, 0
3, 15960, Note_on_c, 1, 69, 63
3, 15984, Note_on_c, 1, 69, 0
3, 16008, Note_on_c, 1, 73, 63
3, 16032, Note_on_c, 1, 73, 0
3, 16032, Note_on_c, 1, 69, 63
3, 16056, Note_on_c, 1, 69, 0
3, 16056, Note_on_c, 1, 66, 63
3, 16080, Note_on_c, 1, 66, 0
3, 16104, Note_on_c, 1, 69, 63
3, 16128, Note_on_c, 1, 69, 0
3, 16128, Note_on_c, 1, 66, 63
3, 16152, Note_on_c, 1, 66, 0
3, 16152, Note_on_c, 1, 62, 63
3, 16176, Note_on_c, 1, 62, 0
3, 16200, Note_on_c, 1, 78, 63
3, 16224, Note_on_c, 1, 78, 0
3, 16224, Note_on_c, 1, 74, 63
3, 16248, Note_on_c, 1, 74, 0
3, 16248, Note_on_c, 1, 71, 63
3, 16272, Note_on_c, 1, 71, 0
3, 16296, Note_on_c, 1, 74, 63
3, 16320, Note_on_c, 1, 74, 0
3, 16320, Note_on_c, 1, 71, 63
3, 16344, Note_on_c, 1, 71, 0
3, 16344, Note_on_c, 1, 68, 63
3, 16368, Note_on_c, 1, 68, 0
3, 16392, Note_on_c, 1, 71, 63
3, 16416, Note_on_c, 1, 71, 0
3, 16416, Note_on_c, 1, 68, 63
3, 16440, Note_on_c, 1, 68, 0
3, 16440, Note_on_c, 1, 64, 63
3, 16464, Note_on_c, 1, 64, 0
3, 16488, Note_on_c, 1, 68, 63
3, 16512, Note_on_c, 1, 68, 0
3, 16512, Note_on_c, 1, 64, 63
3, 16536, Note_on_c, 1, 64, 0
3, 16536, Note_on_c, 1, 61, 63
3, 16560, Note_on_c, 1, 61, 0
3, 16584, Note_on_c, 1, 76, 63
3, 16608, Note_on_c, 1, 76, 0
3, 16608, Note_on_c, 1, 73, 63
3, 16632, Note_on_c, 1, 73, 0
3, 16632, Note_on_c, 1, 69, 63
3, 16656, Note_on_c, 1, 69, 0
3, 16680, Note_on_c, 1, 73, 63
3, 16704, Note_on_c, 1, 73, 0
3, 16704, Note_on_c, 1, 69, 63
3, 16728, Note_on_c, 1, 69, 0
3, 16728, Note_on_c, 1, 66, 63
3, 16752, Note_on_c, 1, 66, 0
3, 16776, Note_on_c, 1, 69, 63
3, 16800, Note_on_c, 1, 69, 0
3, 16800, Note_on_c, 1, 66, 63
3, 16824, Note_on_c, 1, 66, 0
3, 16824, Note_on_c, 1, 62, 63
3, 16848, Note_on_c, 1, 62, 0
3, 16872, Note_on_c, 1, 66, 63
3, 16896, Note_on_c, 1, 66, 0
3, 16896, Note_on_c, 1, 62, 63
3, 16920, Note_on_c, 1, 62, 0
3, 16920, Note_on_c, 1, 59, 63
3, 16944, Note_on_c, 1, 59, 0
3, 16968, Note_on_c, 1, 74, 63
3, 16992, Note_on_c, 1, 74, 0
3, 16992, Note_on_c, 1, 71, 63
3, 17016, Note_on_c, 1, 71, 0
3, 17016, Note_on_c, 1, 68, 63
3, 17040, Note_on_c, 1, 68, 0
3, 17064, Note_on_c, 1, 71, 63
3, 17088, Note_on_c, 1, 71, 0
3, 17088, Note_on_c, 1, 68, 63
3, 17112, Note_on_c, 1, 68, 0
3, 17112, Note_on_c, 1, 64, 63
3, 17136, Note_on_c, 1, 64, 0
3, 17160, Note_on_c, 1, 68, 63
3, 17184, Note_on_c, 1, 68, 0
3, 17184, Note_on_c, 1, 64, 63
3, 17208, Note_on_c, 1, 64, 0
3, 17208, Note_on_c, 1, 61, 63
3, 17232, Note_on_c, 1, 61, 0
3, 17256, Note_on_c, 1, 64, 63
3, 17280, Note_on_c, 1, 64, 0
3, 17280, Note_on_c, 1, 61, 63
3, 17304, Note_on_c, 1, 61, 0
3, 17304, Note_on_c, 1, 57, 63
3, 17328, Note_on_c, 1, 57, 0
3, 17352, Note_on_c, 1, 73, 63
3, 17376, Note_on_c, 1, 73, 0
3, 17376, Note_on_c, 1, 69, 63
3, 17400, Note_on_c, 1, 69, 0
3, 17400, Note_on_c, 1, 66, 63
3, 17424, Note_on_c, 1, 66, 0
3, 17448, Note_on_c, 1, 69, 63
3, 17472, Note_on_c, 1, 69, 0
3, 17472, Note_on_c, 1, 66, 63
3, 17496, Note_on_c, 1, 66, 0
3, 17496, Note_on_c, 1, 62, 63
3, 17520, Note_on_c, 1, 62, 0
3, 17544, Note_on_c, 1, 66, 63
3, 17568, Note_on_c, 1, 66, 0
3, 17568, Note_on_c, 1, 62, 63
3, 17592, Note_on_c, 1, 62, 0
3, 17592, Note_on_c, 1, 59, 63
3, 17616, Note_on_c, 1, 59, 0
3, 17640, Note_on_c, 1, 62, 63
3, 17664, Note_on_c, 1, 62, 0
3, 17664, Note_on_c, 1, 62, 63
3, 17712, Note_on_c, 1, 62, 0
3, 17856, Note_on_c, 1, 61, 63
3, 17904, Note_on_c, 1, 61, 0
3, 18048, Control_c, 1, 7, 75
3, 18048, Note_on_c, 1, 74, 63
3, 18054, Note_on_c, 1, 74, 0
3, 18054, Control_c, 1, 7, 76
3, 18054, Note_on_c, 1, 76, 63
3, 18060, Note_on_c, 1, 76, 0
3, 18060, Control_c, 1, 7, 77
3, 18060, Note_on_c, 1, 74, 63
3, 18066, Note_on_c, 1, 74, 0
3, 18066, Control_c, 1, 7, 78
3, 18066, Note_on_c, 1, 76, 63
3, 18072, Note_on_c, 1, 76, 0
3, 18072, Control_c, 1, 7, 79
3, 18072, Note_on_c, 1, 74, 63
3, 18078, Note_on_c, 1, 74, 0
3, 18078, Control_c, 1, 7, 80
3, 18078, Note_on_c, 1, 76, 63
3, 18084, Note_on_c, 1, 76, 0
3, 18084, Control_c, 1, 7, 81
3, 18084, Note_on_c, 1, 74, 63
3, 18090, Note_on_c, 1, 74, 0
3, 18090, Control_c, 1, 7, 82
3, 18090, Note_on_c, 1, 76, 63
3, 18096, Note_on_c, 1, 76, 0
3, 18096, Control_c, 1, 7, 84
3, 18096, Note_on_c, 1, 74, 63
3, 18102, Note_on_c, 1, 74, 0
3, 18102, Control_c, 1, 7, 85
3, 18102, Note_on_c, 1, 76, 63
3, 18108, Note_on_c, 1, 76, 0
3, 18108, Control_c, 1, 7, 86
3, 18108, Note_on_c, 1, 74, 63
3, 18114, Note_on_c, 1, 74, 0
3, 18114, Control_c, 1, 7, 87
3, 18114, Note_on_c, 1, 76, 63
3, 18120, Note_on_c, 1, 76, 0
3, 18120, Control_c, 1, 7, 88
3, 18120, Note_on_c, 1, 74, 63
3, 18126, Note_on_c, 1, 74, 0
3, 18126, Control_c, 1, 7, 89
3, 18126, Note_on_c, 1, 76, 63
3, 18132, Note_on_c, 1, 76, 0
3, 18132, Control_c, 1, 7, 90
3, 18132, Note_on_c, 1, 74, 63
3, 18138, Note_on_c, 1, 74, 0
3, 18138, Control_c, 1, 7, 91
3, 18138, Note_on_c, 1, 76, 63
3, 18144, Note_on_c, 1, 76, 0
3, 18144, Control_c, 1, 7, 93
3, 18144, Note_on_c, 1, 74, 63
3, 18150, Note_on_c, 1, 74, 0
3, 18150, Control_c, 1, 7, 94
3, 18150, Note_on_c, 1, 76, 63
3, 18156, Note_on_c, 1, 76, 0
3, 18156, Control_c, 1, 7, 95
3, 18156, Note_on_c, 1, 74, 63
3, 18162, Note_on_c, 1, 74, 0
3, 18162, Control_c, 1, 7, 96
3, 18162, Note_on_c, 1, 76, 63
3, 18168, Note_on_c, 1, 76, 0
3, 18168, Control_c, 1, 7, 97
3, 18168, Note_on_c, 1, 74, 63
3, 18174, Note_on_c, 1, 74, 0
3, 18174, Control_c, 1, 7, 98
3, 18174, Note_on_c, 1, 76, 63
3, 18180, Note_on_c, 1, 76, 0
3, 18180, Control_c, 1, 7, 99
3, 18180, Note_on_c, 1, 74, 63
3, 18186, Note_on_c, 1, 74, 0
3, 18186, Control_c, 1, 7, 100
3, 18186, Note_on_c, 1, 76, 63
3, 18192, Note_on_c, 1, 76, 0
3, 18192, Control_c, 1, 7, 102
3, 18192, Note_on_c, 1, 74, 63
3, 18198, Note_on_c, 1, 74, 0
3, 18198, Control_c, 1, 7, 103
3, 18198, Note_on_c, 1, 76, 63
3, 18204, Note_on_c, 1, 76, 0
3, 18204, Control_c, 1, 7, 104
3, 18204, Note_on_c, 1, 74, 63
3, 18210, Note_on_c, 1, 74, 0
3, 18210, Control_c, 1, 7, 105
3, 18210, Note_on_c, 1, 76, 63
3, 18216, Note_on_c, 1, 76, 0
3, 18216, Control_c, 1, 7, 106
3, 18216, Note_on_c, 1, 74, 63
3, 18222, Note_on_c, 1, 74, 0
3, 18222, Control_c, 1, 7, 107
3, 18222, Note_on_c, 1, 76, 63
3, 18228, Note_on_c, 1, 76, 0
3, 18228, Control_c, 1, 7, 108
3, 18228, Note_on_c, 1, 74, 63
3, 18234, Note_on_c, 1, 74, 0
3, 18234, Control_c, 1, 7, 109
3, 18234, Note_on_c, 1, 76, 63
3, 18240, Note_on_c, 1, 76, 0
3, 18240, Control_c, 1, 7, 71
3, 18240, Note_on_c, 1, 75, 63
3, 18246, Note_on_c, 1, 75, 0
3, 18246, Control_c, 1, 7, 72
3, 18246, Note_on_c, 1, 76, 63
3, 18252, Note_on_c, 1, 76, 0
3, 18252, Control_c, 1, 7, 73
3, 18252, Note_on_c, 1, 75, 63
3, 18258, Note_on_c, 1, 75, 0
3, 18258, Control_c, 1, 7, 74
3, 18258, Note_on_c, 1, 76, 63
3, 18264, Note_on_c, 1, 76, 0
3, 18264, Control_c, 1, 7, 76
3, 18264, Note_on_c, 1, 75, 63
3, 18270, Note_on_c, 1, 75, 0
3, 18270, Control_c, 1, 7, 77
3, 18270, Note_on_c, 1, 76, 63
3, 18276, Note_on_c, 1, 76, 0
3, 18276, Control_c, 1, 7, 78
3, 18276, Note_on_c, 1, 75, 63
3, 18282, Note_on_c, 1, 75, 0
3, 18282, Control_c, 1, 7, 79
3, 18282, Note_on_c, 1, 76, 63
3, 18288, Note_on_c, 1, 76, 0
3, 18288, Control_c, 1, 7, 81
3, 18288, Note_on_c, 1, 75, 63
3, 18294, Note_on_c, 1, 75, 0
3, 18294, Control_c, 1, 7, 82
3, 18294, Note_on_c, 1, 76, 63
3, 18300, Note_on_c, 1, 76, 0
3, 18300, Control_c, 1, 7, 83
3, 18300, Note_on_c, 1, 75, 63
3, 18306, Note_on_c, 1, 75, 0
3, 18306, Control_c, 1, 7, 84
3, 18306, Note_on_c, 1, 76, 63
3, 18312, Note_on_c, 1, 76, 0
3, 18312, Control_c, 1, 7, 86
3, 18312, Note_on_c, 1, 75, 63
3, 18318, Note_on_c, 1, 75, 0
3, 18318, Control_c, 1, 7, 87
3, 18318, Note_on_c, 1, 76, 63
3, 18324, Note_on_c, 1, 76, 0
3, 18324, Control_c, 1, 7, 88
3, 18324, Note_on_c, 1, 75, 63
3, 18330, Note_on_c, 1, 75, 0
3, 18330, Control_c, 1, 7, 89
3, 18330, Note_on_c, 1, 76, 63
3, 18336, Note_on_c, 1, 76, 0
3, 18336, Control_c, 1, 7, 91
3, 18336, Note_on_c, 1, 75, 63
3, 18342, Note_on_c, 1, 75, 0
3, 18342, Control_c, 1, 7, 92
3, 18342, Note_on_c, 1, 76, 63
3, 18348, Note_on_c, 1, 76, 0
3, 18348, Control_c, 1, 7, 93
3, 18348, Note_on_c, 1, 75, 63
3, 18354, Note_on_c, 1, 75, 0
3, 18354, Control_c, 1, 7, 94
3, 18354, Note_on_c, 1, 76, 63
3, 18360, Note_on_c, 1, 76, 0
3, 18360, Control_c, 1, 7, 96
3, 18360, Note_on_c, 1, 75, 63
3, 18366, Note_on_c, 1, 75, 0
3, 18366, Control_c, 1, 7, 97
3, 18366, Note_on_c, 1, 76, 63
3, 18372, Note_on_c, 1, 76, 0
3, 18372, Control_c, 1, 7, 98
3, 18372, Note_on_c, 1, 75, 63
3, 18378, Note_on_c, 1, 75, 0
3, 18378, Control_c, 1, 7, 99
3, 18378, Note_on_c, 1, 76, 63
3, 18384, Note_on_c, 1, 76, 0
3, 18384, Control_c, 1, 7, 101
3, 18384, Note_on_c, 1, 75, 63
3, 18390, Note_on_c, 1, 75, 0
3, 18390, Control_c, 1, 7, 102
3, 18390, Note_on_c, 1, 76, 63
3, 18396, Note_on_c, 1, 76, 0
3, 18396, Control_c, 1, 7, 103
3, 18396, Note_on_c, 1, 75, 63
3, 18402, Note_on_c, 1, 75, 0
3, 18402, Control_c, 1, 7, 104
3, 18402, Note_on_c, 1, 76, 63
3, 18408, Note_on_c, 1, 76, 0
3, 18408, Control_c, 1, 7, 106
3, 18408, Note_on_c, 1, 75, 63
3, 18414, Note_on_c, 1, 75, 0
3, 18414, Control_c, 1, 7, 107
3, 18414, Note_on_c, 1, 76, 63
3, 18420, Note_on_c, 1, 76, 0
3, 18420, Control_c, 1, 7, 108
3, 18420, Note_on_c, 1, 75, 63
3, 18426, Note_on_c, 1, 75, 0
3, 18426, Control_c, 1, 7, 109
3, 18426, Note_on_c, 1, 76, 63
3, 18432, Note_on_c, 1, 76, 0
3, 18432, Control_c, 1, 7, 79
3, 18432, Note_on_c, 1, 74, 63
3, 18438, Note_on_c, 1, 74, 0
3, 18438, Control_c, 1, 7, 80
3, 18438, Note_on_c, 1, 76, 63
3, 18444, Note_on_c, 1, 76, 0
3, 18444, Control_c, 1, 7, 81
3, 18444, Note_on_c, 1, 74, 63
3, 18450, Note_on_c, 1, 74, 0
3, 18450, Control_c, 1, 7, 82
3, 18450, Note_on_c, 1, 76, 63
3, 18456, Note_on_c, 1, 76, 0
3, 18456, Control_c, 1, 7, 83
3, 18456, Note_on_c, 1, 74, 63
3, 18462, Note_on_c, 1, 74, 0
3, 18462, Control_c, 1, 7, 84
3, 18462, Note_on_c, 1, 76, 63
3, 18468, Note_on_c, 1, 76, 0
3, 18468, Control_c, 1, 7, 85
3, 18468, Note_on_c, 1, 74, 63
3, 18474, Note_on_c, 1, 74, 0
3, 18474, Control_c, 1, 7, 86
3, 18474, Note_on_c, 1, 76, 63
3, 18480, Note_on_c, 1, 76, 0
3, 18480, Control_c, 1, 7, 87
3, 18480, Note_on_c, 1, 74, 63
3, 18486, Note_on_c, 1, 74, 0
3, 18486, Control_c, 1, 7, 88
3, 18486, Note_on_c, 1, 76, 63
3, 18492, Note_on_c, 1, 76, 0
3, 18492, Control_c, 1, 7, 89
3, 18492, Note_on_c, 1, 74, 63
3, 18498, Note_on_c, 1, 74, 0
3, 18498, Control_c, 1, 7, 90
3, 18498, Note_on_c, 1, 76, 63
3, 18504, Note_on_c, 1, 76, 0
3, 18504, Control_c, 1, 7, 91
3, 18504, Note_on_c, 1, 74, 63
3, 18510, Note_on_c, 1, 74, 0
3, 18510, Control_c, 1, 7, 92
3, 18510, Note_on_c, 1, 76, 63
3, 18516, Note_on_c, 1, 76, 0
3, 18516, Control_c, 1, 7, 93
3, 18516, Note_on_c, 1, 74, 63
3, 18522, Note_on_c, 1, 74, 0
3, 18522, Control_c, 1, 7, 94
3, 18522, Note_on_c, 1, 76, 63
3, 18528, Note_on_c, 1, 76, 0
3, 18528, Control_c, 1, 7, 95
3, 18528, Note_on_c, 1, 74, 63
3, 18534, Note_on_c, 1, 74, 0
3, 18534, Control_c, 1, 7, 96
3, 18534, Note_on_c, 1, 76, 63
3, 18540, Note_on_c, 1, 76, 0
3, 18540, Control_c, 1, 7, 97
3, 18540, Note_on_c, 1, 74, 63
3, 18546, Note_on_c, 1, 74, 0
3, 18546, Control_c, 1, 7, 98
3, 18546, Note_on_c, 1, 76, 63
3, 18552, Note_on_c, 1, 76, 0
3, 18552, Control_c, 1, 7, 99
3, 18552, Note_on_c, 1, 74, 63
3, 18558, Note_on_c, 1, 74, 0
3, 18558, Control_c, 1, 7, 100
3, 18558, Note_on_c, 1, 76, 63
3, 18564, Note_on_c, 1, 76, 0
3, 18564, Control_c, 1, 7, 101
3, 18564, Note_on_c, 1, 74, 63
3, 18570, Note_on_c, 1, 74, 0
3, 18570, Control_c, 1, 7, 102
3, 18570, Note_on_c, 1, 76, 63
3, 18576, Note_on_c, 1, 76, 0
3, 18576, Control_c, 1, 7, 103
3, 18576, Note_on_c, 1, 74, 63
3, 18582, Note_on_c, 1, 74, 0
3, 18582, Control_c, 1, 7, 104
3, 18582, Note_on_c, 1, 76, 63
3, 18588, Note_on_c, 1, 76, 0
3, 18588, Control_c, 1, 7, 105
3, 18588, Note_on_c, 1, 74, 63
3, 18594, Note_on_c, 1, 74, 0
3, 18594, Control_c, 1, 7, 106
3, 18594, Note_on_c, 1, 76, 63
3, 18600, Note_on_c, 1, 76, 0
3, 18600, Control_c, 1, 7, 107
3, 18600, Note_on_c, 1, 74, 63
3, 18606, Note_on_c, 1, 74, 0
3, 18606, Control_c, 1, 7, 108
3, 18606, Note_on_c, 1, 76, 63
3, 18612, Note_on_c, 1, 76, 0
3, 18612, Control_c, 1, 7, 109
3, 18612, Note_on_c, 1, 74, 63
3, 18618, Note_on_c, 1, 74, 0
3, 18618, Control_c, 1, 7, 110
3, 18618, Note_on_c, 1, 76, 63
3, 18624, Note_on_c, 1, 76, 0
3, 18624, Control_c, 1, 7, 111
3, 18624, Control_c, 1, 7, 111
3, 18624, Control_c, 1, 7, 80
3, 18624, Note_on_c, 1, 73, 63
3, 18630, Note_on_c, 1, 73, 0
3, 18630, Control_c, 1, 7, 81
3, 18630, Note_on_c, 1, 74, 63
3, 18636, Note_on_c, 1, 74, 0
3, 18636, Control_c, 1, 7, 82
3, 18636, Note_on_c, 1, 73, 63
3, 18642, Note_on_c, 1, 73, 0
3, 18642, Control_c, 1, 7, 83
3, 18642, Note_on_c, 1, 74, 63
3, 18648, Note_on_c, 1, 74, 0
3, 18648, Control_c, 1, 7, 84
3, 18648, Note_on_c, 1, 73, 63
3, 18654, Note_on_c, 1, 73, 0
3, 18654, Control_c, 1, 7, 85
3, 18654, Note_on_c, 1, 74, 63
3, 18660, Note_on_c, 1, 74, 0
3, 18660, Control_c, 1, 7, 86
3, 18660, Note_on_c, 1, 73, 63
3, 18666, Note_on_c, 1, 73, 0
3, 18666, Control_c, 1, 7, 87
3, 18666, Note_on_c, 1, 74, 63
3, 18672, Note_on_c, 1, 74, 0
3, 18672, Control_c, 1, 7, 88
3, 18672, Note_on_c, 1, 73, 63
3, 18678, Note_on_c, 1, 73, 0
3, 18678, Control_c, 1, 7, 89
3, 18678, Note_on_c, 1, 74, 63
3, 18684, Note_on_c, 1, 74, 0
3, 18684, Control_c, 1, 7, 90
3, 18684, Note_on_c, 1, 73, 63
3, 18690, Note_on_c, 1, 73, 0
3, 18690, Control_c, 1, 7, 91
3, 18690, Note_on_c, 1, 74, 63
3, 18696, Note_on_c, 1, 74, 0
3, 18696, Control_c, 1, 7, 92
3, 18696, Note_on_c, 1, 73, 63
3, 18702, Note_on_c, 1, 73, 0
3, 18702, Control_c, 1, 7, 93
3, 18702, Note_on_c, 1, 74, 63
3, 18708, Note_on_c, 1, 74, 0
3, 18708, Control_c, 1, 7, 94
3, 18708, Note_on_c, 1, 73, 63
3, 18714, Note_on_c, 1, 73, 0
3, 18714, Control_c, 1, 7, 95
3, 18714, Note_on_c, 1, 74, 63
3, 18720, Note_on_c, 1, 74, 0
3, 18720, Control_c, 1, 7, 97
3, 18720, Note_on_c, 1, 73, 63
3, 18726, Note_on_c, 1, 73, 0
3, 18726, Control_c, 1, 7, 98
3, 18726, Note_on_c, 1, 74, 63
3, 18732, Note_on_c, 1, 74, 0
3, 18732, Control_c, 1, 7, 99
3, 18732, Note_on_c, 1, 73, 63
3, 18738, Note_on_c, 1, 73, 0
3, 18738, Control_c, 1, 7, 100
3, 18738, Note_on_c, 1, 74, 63
3, 18744, Note_on_c, 1, 74, 0
3, 18744, Control_c, 1, 7, 101
3, 18744, Note_on_c, 1, 73, 63
3, 18750, Note_on_c, 1, 73, 0
3, 18750, Control_c, 1, 7, 102
3, 18750, Note_on_c, 1, 74, 63
3, 18756, Note_on_c, 1, 74, 0
3, 18756, Control_c, 1, 7, 103
3, 18756, Note_on_c, 1, 73, 63
3, 18762, Note_on_c, 1, 73, 0
3, 18762, Control_c, 1, 7, 104
3, 18762, Note_on_c, 1, 74, 63
3, 18768, Note_on_c, 1, 74, 0
3, 18768, Control_c, 1, 7, 105
3, 18768, Note_on_c, 1, 73, 63
3, 18774, Note_on_c, 1, 73, 0
3, 18774, Control_c, 1, 7, 106
3, 18774, Note_on_c, 1, 74, 63
3, 18780, Note_on_c, 1, 74, 0
3, 18780, Control_c, 1, 7, 107
3, 18780, Note_on_c, 1, 73, 63
3, 18786, Note_on_c, 1, 73, 0
3, 18786, Control_c, 1, 7, 108
3, 18786, Note_on_c, 1, 74, 63
3, 18792, Note_on_c, 1, 74, 0
3, 18792, Control_c, 1, 7, 109
3, 18792, Note_on_c, 1, 73, 63
3, 18798, Note_on_c, 1, 73, 0
3, 18798, Control_c, 1, 7, 110
3, 18798, Note_on_c, 1, 74, 63
3, 18804, Note_on_c, 1, 74, 0
3, 18804, Control_c, 1, 7, 111
3, 18804, Note_on_c, 1, 73, 63
3, 18810, Note_on_c, 1, 73, 0
3, 18810, Control_c, 1, 7, 112
3, 18810, Note_on_c, 1, 74, 63
3, 18816, Note_on_c, 1, 74, 0
3, 18816, Control_c, 1, 7, 114
3, 18816, Control_c, 1, 7, 74
3, 18816, Note_on_c, 1, 71, 63
3, 18822, Note_on_c, 1, 71, 0
3, 18822, Control_c, 1, 7, 75
3, 18822, Note_on_c, 1, 73, 63
3, 18828, Note_on_c, 1, 73, 0
3, 18828, Control_c, 1, 7, 76
3, 18828, Note_on_c, 1, 71, 63
3, 18834, Note_on_c, 1, 71, 0
3, 18834, Control_c, 1, 7, 77
3, 18834, Note_on_c, 1, 73, 63
3, 18840, Note_on_c, 1, 73, 0
3, 18840, Control_c, 1, 7, 78
3, 18840, Note_on_c, 1, 71, 63
3, 18846, Note_on_c, 1, 71, 0
3, 18846, Control_c, 1, 7, 79
3, 18846, Note_on_c, 1, 73, 63
3, 18852, Note_on_c, 1, 73, 0
3, 18852, Control_c, 1, 7, 80
3, 18852, Note_on_c, 1, 71, 63
3, 18858, Note_on_c, 1, 71, 0
3, 18858, Control_c, 1, 7, 82
3, 18858, Note_on_c, 1, 73, 63
3, 18864, Note_on_c, 1, 73, 0
3, 18864, Control_c, 1, 7, 83
3, 18864, Note_on_c, 1, 71, 63
3, 18870, Note_on_c, 1, 71, 0
3, 18870, Control_c, 1, 7, 84
3, 18870, Note_on_c, 1, 73, 63
3, 18876, Note_on_c, 1, 73, 0
3, 18876, Control_c, 1, 7, 85
3, 18876, Note_on_c, 1, 71, 63
3, 18882, Note_on_c, 1, 71, 0
3, 18882, Control_c, 1, 7, 86
3, 18882, Note_on_c, 1, 73, 63
3, 18888, Note_on_c, 1, 73, 0
3, 18888, Control_c, 1, 7, 87
3, 18888, Note_on_c, 1, 71, 63
3, 18894, Note_on_c, 1, 71, 0
3, 18894, Control_c, 1, 7, 89
3, 18894, Note_on_c, 1, 73, 63
3, 18900, Note_on_c, 1, 73, 0
3, 18900, Control_c, 1, 7, 90
3, 18900, Note_on_c, 1, 71, 63
3, 18906, Note_on_c, 1, 71, 0
3, 18906, Control_c, 1, 7, 91
3, 18906, Note_on_c, 1, 73, 63
3, 18912, Note_on_c, 1, 73, 0
3, 18912, Control_c, 1, 7, 92
3, 18912, Note_on_c, 1, 71, 63
3, 18918, Note_on_c, 1, 71, 0
3, 18918, Control_c, 1, 7, 93
3, 18918, Note_on_c, 1, 73, 63
3, 18924, Note_on_c, 1, 73, 0
3, 18924, Control_c, 1, 7, 94
3, 18924, Note_on_c, 1, 71, 63
3, 18930, Note_on_c, 1, 71, 0
3, 18930, Control_c, 1, 7, 95
3, 18930, Note_on_c, 1, 73, 63
3, 18936, Note_on_c, 1, 73, 0
3, 18936, Control_c, 1, 7, 97
3, 18936, Note_on_c, 1, 71, 63
3, 18942, Note_on_c, 1, 71, 0
3, 18942, Control_c, 1, 7, 98
3, 18942, Note_on_c, 1, 73, 63
3, 18948, Note_on_c, 1, 73, 0
3, 18948, Control_c, 1, 7, 99
3, 18948, Note_on_c, 1, 71, 63
3, 18954, Note_on_c, 1, 71, 0
3, 18954, Control_c, 1, 7, 100
3, 18954, Note_on_c, 1, 73, 63
3, 18960, Note_on_c, 1, 73, 0
3, 18960, Control_c, 1, 7, 101
3, 18960, Note_on_c, 1, 71, 63
3, 18966, Note_on_c, 1, 71, 0
3, 18966, Control_c, 1, 7, 102
3, 18966, Note_on_c, 1, 73, 63
3, 18972, Note_on_c, 1, 73, 0
3, 18972, Control_c, 1, 7, 104
3, 18972, Note_on_c, 1, 71, 63
3, 18978, Note_on_c, 1, 71, 0
3, 18978, Control_c, 1, 7, 105
3, 18978, Note_on_c, 1, 73, 63
3, 18984, Note_on_c, 1, 73, 0
3, 18984, Control_c, 1, 7, 106
3, 18984, Note_on_c, 1, 71, 63
3, 18990, Note_on_c, 1, 71, 0
3, 18990, Control_c, 1, 7, 107
3, 18990, Note_on_c, 1, 73, 63
3, 18996, Note_on_c, 1, 73, 0
3, 18996, Control_c, 1, 7, 108
3, 18996, Note_on_c, 1, 71, 63
3, 19002, Note_on_c, 1, 71, 0
3, 19002, Control_c, 1, 7, 109
3, 19002, Note_on_c, 1, 73, 63
3, 19008, Note_on_c, 1, 73, 0
3, 19008, Control_c, 1, 7, 75
3, 19008, Note_on_c, 1, 71, 63
3, 19014, Note_on_c, 1, 71, 0
3, 19014, Control_c, 1, 7, 76
3, 19014, Note_on_c, 1, 73, 63
3, 19020, Note_on_c, 1, 73, 0
3, 19020, Control_c, 1, 7, 77
3, 19020, Note_on_c, 1, 71, 63
3, 19026, Note_on_c, 1, 71, 0
3, 19026, Control_c, 1, 7, 78
3, 19026, Note_on_c, 1, 73, 63
3, 19032, Note_on_c, 1, 73, 0
3, 19032, Control_c, 1, 7, 79
3, 19032, Note_on_c, 1, 71, 63
3, 19038, Note_on_c, 1, 71, 0
3, 19038, Control_c, 1, 7, 80
3, 19038, Note_on_c, 1, 73, 63
3, 19044, Note_on_c, 1, 73, 0
3, 19044, Control_c, 1, 7, 81
3, 19044, Note_on_c, 1, 71, 63
3, 19050, Note_on_c, 1, 71, 0
3, 19050, Control_c, 1, 7, 82
3, 19050, Note_on_c, 1, 73, 63
3, 19056, Note_on_c, 1, 73, 0
3, 19056, Control_c, 1, 7, 84
3, 19056, Note_on_c, 1, 71, 63
3, 19062, Note_on_c, 1, 71, 0
3, 19062, Control_c, 1, 7, 85
3, 19062, Note_on_c, 1, 73, 63
3, 19068, Note_on_c, 1, 73, 0
3, 19068, Control_c, 1, 7, 86
3, 19068, Note_on_c, 1, 71, 63
3, 19074, Note_on_c, 1, 71, 0
3, 19074, Control_c, 1, 7, 87
3, 19074, Note_on_c, 1, 73, 63
3, 19080, Note_on_c, 1, 73, 0
3, 19080, Control_c, 1, 7, 88
3, 19080, Note_on_c, 1, 71, 63
3, 19086, Note_on_c, 1, 71, 0
3, 19086, Control_c, 1, 7, 89
3, 19086, Note_on_c, 1, 73, 63
3, 19092, Note_on_c, 1, 73, 0
3, 19092, Control_c, 1, 7, 90
3, 19092, Note_on_c, 1, 71, 63
3, 19098, Note_on_c, 1, 71, 0
3, 19098, Control_c, 1, 7, 91
3, 19098, Note_on_c, 1, 73, 63
3, 19104, Note_on_c, 1, 73, 0
3, 19104, Control_c, 1, 7, 93
3, 19104, Note_on_c, 1, 71, 63
3, 19110, Note_on_c, 1, 71, 0
3, 19110, Control_c, 1, 7, 94
3, 19110, Note_on_c, 1, 73, 63
3, 19116, Note_on_c, 1, 73, 0
3, 19116, Control_c, 1, 7, 95
3, 19116, Note_on_c, 1, 71, 63
3, 19122, Note_on_c, 1, 71, 0
3, 19122, Control_c, 1, 7, 96
3, 19122, Note_on_c, 1, 73, 63
3, 19128, Note_on_c, 1, 73, 0
3, 19128, Control_c, 1, 7, 97
3, 19128, Note_on_c, 1, 71, 63
3, 19134, Note_on_c, 1, 71, 0
3, 19134, Control_c, 1, 7, 98
3, 19134, Note_on_c, 1, 73, 63
3, 19140, Note_on_c, 1, 73, 0
3, 19140, Control_c, 1, 7, 99
3, 19140, Note_on_c, 1, 71, 63
3, 19146, Note_on_c, 1, 71, 0
3, 19146, Control_c, 1, 7, 100
3, 19146, Note_on_c, 1, 73, 63
3, 19152, Note_on_c, 1, 73, 0
3, 19152, Control_c, 1, 7, 102
3, 19152, Note_on_c, 1, 71, 63
3, 19158, Note_on_c, 1, 71, 0
3, 19158, Control_c, 1, 7, 103
3, 19158, Note_on_c, 1, 73, 63
3, 19164, Note_on_c, 1, 73, 0
3, 19164, Control_c, 1, 7, 104
3, 19164, Note_on_c, 1, 71, 63
3, 19170, Note_on_c, 1, 71, 0
3, 19170, Control_c, 1, 7, 105
3, 19170, Note_on_c, 1, 73, 63
3, 19176, Note_on_c, 1, 73, 0
3, 19176, Control_c, 1, 7, 106
3, 19176, Note_on_c, 1, 71, 63
3, 19182, Note_on_c, 1, 71, 0
3, 19182, Control_c, 1, 7, 107
3, 19182, Note_on_c, 1, 73, 63
3, 19188, Note_on_c, 1, 73, 0
3, 19188, Control_c, 1, 7, 108
3, 19188, Note_on_c, 1, 71, 63
3, 19194, Note_on_c, 1, 71, 0
3, 19194, Control_c, 1, 7, 109
3, 19194, Note_on_c, 1, 73, 63
3, 19200, Note_on_c, 1, 73, 0
3, 19200, Control_c, 1, 7, 96
3, 19200, Note_on_c, 1, 69, 95
3, 19210, Note_on_c, 1, 69, 0
3, 19212, Note_on_c, 1, 69, 95
3, 19222, Note_on_c, 1, 69, 0
3, 19224, Note_on_c, 1, 73, 95
3, 19234, Note_on_c, 1, 73, 0
3, 19236, Note_on_c, 1, 73, 95
3, 19246, Note_on_c, 1, 73, 0
3, 19248, Control_c, 1, 7, 96
3, 19248, Note_on_c, 1, 76, 95
3, 19258, Note_on_c, 1, 76, 0
3, 19260, Note_on_c, 1, 76, 95
3, 19270, Note_on_c, 1, 76, 0
3, 19272, Note_on_c, 1, 81, 95
3, 19282, Note_on_c, 1, 81, 0
3, 19284, Note_on_c, 1, 81, 95
3, 19294, Note_on_c, 1, 81, 0
3, 19296, Note_on_c, 1, 80, 95
3, 19306, Note_on_c, 1, 80, 0
3, 19308, Note_on_c, 1, 81, 95
3, 19318, Note_on_c, 1, 81, 0
3, 19320, Note_on_c, 1, 80, 95
3, 19330, Note_on_c, 1, 80, 0
3, 19332, Note_on_c, 1, 78, 95
3, 19342, Note_on_c, 1, 78, 0
3, 19344, Note_on_c, 1, 76, 95
3, 19354, Note_on_c, 1, 76, 0
3, 19356, Note_on_c, 1, 74, 95
3, 19366, Note_on_c, 1, 74, 0
3, 19368, Note_on_c, 1, 73, 95
3, 19378, Note_on_c, 1, 73, 0
3, 19380, Note_on_c, 1, 71, 95
3, 19390, Note_on_c, 1, 71, 0
3, 19392, Note_on_c, 1, 69, 95
3, 19402, Note_on_c, 1, 69, 0
3, 19404, Note_on_c, 1, 69, 95
3, 19414, Note_on_c, 1, 69, 0
3, 19416, Note_on_c, 1, 73, 95
3, 19426, Note_on_c, 1, 73, 0
3, 19428, Note_on_c, 1, 73, 95
3, 19438, Note_on_c, 1, 73, 0
3, 19440, Note_on_c, 1, 76, 95
3, 19450, Note_on_c, 1, 76, 0
3, 19452, Note_on_c, 1, 76, 95
3, 19462, Note_on_c, 1, 76, 0
3, 19464, Note_on_c, 1, 81, 95
3, 19474, Note_on_c, 1, 81, 0
3, 19476, Note_on_c, 1, 81, 95
3, 19486, Note_on_c, 1, 81, 0
3, 19488, Note_on_c, 1, 83, 95
3, 19508, Note_on_c, 1, 83, 0
3, 19512, Note_on_c, 1, 76, 95
3, 19532, Note_on_c, 1, 76, 0
3, 19548, Note_on_c, 1, 76, 95
3, 19558, Note_on_c, 1, 76, 0
3, 19560, Note_on_c, 1, 78, 95
3, 19570, Note_on_c, 1, 78, 0
3, 19572, Note_on_c, 1, 80, 95
3, 19582, Note_on_c, 1, 80, 0
3, 19584, Note_on_c, 1, 81, 95
3, 19594, Note_on_c, 1, 81, 0
3, 19596, Note_on_c, 1, 69, 95
3, 19606, Note_on_c, 1, 69, 0
3, 19608, Note_on_c, 1, 71, 95
3, 19618, Note_on_c, 1, 71, 0
3, 19620, Note_on_c, 1, 73, 95
3, 19630, Note_on_c, 1, 73, 0
3, 19632, Note_on_c, 1, 74, 95
3, 19642, Note_on_c, 1, 74, 0
3, 19644, Note_on_c, 1, 76, 95
3, 19654, Note_on_c, 1, 76, 0
3, 19656, Note_on_c, 1, 78, 95
3, 19666, Note_on_c, 1, 78, 0
3, 19668, Note_on_c, 1, 74, 95
3, 19678, Note_on_c, 1, 74, 0
3, 19680, Note_on_c, 1, 80, 95
3, 19690, Note_on_c, 1, 80, 0
3, 19692, Note_on_c, 1, 68, 95
3, 19702, Note_on_c, 1, 68, 0
3, 19704, Note_on_c, 1, 69, 95
3, 19714, Note_on_c, 1, 69, 0
3, 19716, Note_on_c, 1, 71, 95
3, 19726, Note_on_c, 1, 71, 0
3, 19728, Note_on_c, 1, 73, 95
3, 19808, Note_on_c, 1, 73, 0
3, 19824, Note_on_c, 1, 71, 95
3, 19904, Note_on_c, 1, 71, 0
3, 19932, Note_on_c, 1, 69, 95
3, 19942, Note_on_c, 1, 69, 0
3, 19944, Note_on_c, 1, 71, 95
3, 19954, Note_on_c, 1, 71, 0
3, 19956, Note_on_c, 1, 73, 95
3, 19966, Note_on_c, 1, 73, 0
3, 19968, Note_on_c, 1, 74, 95
3, 19978, Note_on_c, 1, 74, 0
3, 19980, Note_on_c, 1, 71, 95
3, 19990, Note_on_c, 1, 71, 0
3, 19992, Note_on_c, 1, 73, 95
3, 20002, Note_on_c, 1, 73, 0
3, 20004, Note_on_c, 1, 76, 95
3, 20014, Note_on_c, 1, 76, 0
3, 20016, Note_on_c, 1, 74, 95
3, 20026, Note_on_c, 1, 74, 0
3, 20028, Note_on_c, 1, 78, 95
3, 20038, Note_on_c, 1, 78, 0
3, 20040, Note_on_c, 1, 76, 95
3, 20050, Note_on_c, 1, 76, 0
3, 20052, Note_on_c, 1, 74, 95
3, 20062, Note_on_c, 1, 74, 0
3, 20064, Note_on_c, 1, 73, 95
3, 20074, Note_on_c, 1, 73, 0
3, 20076, Note_on_c, 1, 76, 95
3, 20086, Note_on_c, 1, 76, 0
3, 20088, Note_on_c, 1, 78, 95
3, 20098, Note_on_c, 1, 78, 0
3, 20100, Note_on_c, 1, 79, 95
3, 20110, Note_on_c, 1, 79, 0
3, 20112, Note_on_c, 1, 81, 95
3, 20192, Note_on_c, 1, 81, 0
3, 20208, Note_on_c, 1, 79, 95
3, 20288, Note_on_c, 1, 79, 0
3, 20304, Note_on_c, 1, 78, 95
3, 20384, Note_on_c, 1, 78, 0
3, 20400, Note_on_c, 1, 76, 95
3, 20480, Note_on_c, 1, 76, 0
3, 20496, Note_on_c, 1, 74, 95
3, 20576, Note_on_c, 1, 74, 0
3, 20592, Note_on_c, 1, 73, 95
3, 20597, Note_on_c, 1, 73, 0
3, 20598, Note_on_c, 1, 74, 95
3, 20603, Note_on_c, 1, 74, 0
3, 20604, Note_on_c, 1, 73, 95
3, 20609, Note_on_c, 1, 73, 0
3, 20610, Note_on_c, 1, 74, 95
3, 20615, Note_on_c, 1, 74, 0
3, 20616, Note_on_c, 1, 73, 95
3, 20621, Note_on_c, 1, 73, 0
3, 20622, Note_on_c, 1, 74, 95
3, 20627, Note_on_c, 1, 74, 0
3, 20628, Note_on_c, 1, 71, 95
3, 20633, Note_on_c, 1, 71, 0
3, 20634, Note_on_c, 1, 73, 95
3, 20639, Note_on_c, 1, 73, 0
3, 20640, Note_on_c, 1, 74, 95
3, 20650, Note_on_c, 1, 74, 0
3, 20652, Note_on_c, 1, 71, 95
3, 20662, Note_on_c, 1, 71, 0
3, 20664, Note_on_c, 1, 73, 95
3, 20674, Note_on_c, 1, 73, 0
3, 20676, Note_on_c, 1, 76, 95
3, 20686, Note_on_c, 1, 76, 0
3, 20688, Note_on_c, 1, 74, 95
3, 20698, Note_on_c, 1, 74, 0
3, 20700, Note_on_c, 1, 78, 95
3, 20710, Note_on_c, 1, 78, 0
3, 20712, Note_on_c, 1, 76, 95
3, 20722, Note_on_c, 1, 76, 0
3, 20724, Note_on_c, 1, 74, 95
3, 20734, Note_on_c, 1, 74, 0
3, 20736, Note_on_c, 1, 76, 95
3, 20746, Note_on_c, 1, 76, 0
3, 20748, Note_on_c, 1, 73, 95
3, 20758, Note_on_c, 1, 73, 0
3, 20760, Note_on_c, 1, 74, 95
3, 20770, Note_on_c, 1, 74, 0
3, 20772, Note_on_c, 1, 78, 95
3, 20782, Note_on_c, 1, 78, 0
3, 20784, Note_on_c, 1, 76, 95
3, 20794, Note_on_c, 1, 76, 0
3, 20796, Note_on_c, 1, 79, 95
3, 20806, Note_on_c, 1, 79, 0
3, 20808, Note_on_c, 1, 78, 95
3, 20818, Note_on_c, 1, 78, 0
3, 20820, Note_on_c, 1, 76, 95
3, 20830, Note_on_c, 1, 76, 0
3, 20832, Note_on_c, 1, 74, 95
3, 20842, Note_on_c, 1, 74, 0
3, 20844, Note_on_c, 1, 71, 95
3, 20854, Note_on_c, 1, 71, 0
3, 20856, Note_on_c, 1, 73, 95
3, 20866, Note_on_c, 1, 73, 0
3, 20868, Note_on_c, 1, 76, 95
3, 20878, Note_on_c, 1, 76, 0
3, 20880, Note_on_c, 1, 74, 95
3, 20890, Note_on_c, 1, 74, 0
3, 20892, Note_on_c, 1, 78, 95
3, 20902, Note_on_c, 1, 78, 0
3, 20904, Note_on_c, 1, 76, 95
3, 20914, Note_on_c, 1, 76, 0
3, 20916, Note_on_c, 1, 74, 95
3, 20926, Note_on_c, 1, 74, 0
3, 20928, Note_on_c, 1, 73, 95
3, 20948, Note_on_c, 1, 73, 0
3, 20952, Note_on_c, 1, 69, 95
3, 20972, Note_on_c, 1, 69, 0
3, 21048, Note_on_c, 1, 74, 95
3, 21068, Note_on_c, 1, 74, 0
3, 21072, Note_on_c, 1, 73, 95
3, 21092, Note_on_c, 1, 73, 0
3, 21096, Note_on_c, 1, 71, 95
3, 21116, Note_on_c, 1, 71, 0
3, 21120, Note_on_c, 1, 69, 95
3, 21200, Note_on_c, 1, 69, 0
3, 21240, Note_on_c, 1, 83, 95
3, 21260, Note_on_c, 1, 83, 0
3, 21264, Note_on_c, 1, 81, 95
3, 21284, Note_on_c, 1, 81, 0
3, 21288, Note_on_c, 1, 79, 95
3, 21308, Note_on_c, 1, 79, 0
3, 21312, Note_on_c, 1, 78, 95
3, 21322, Note_on_c, 1, 78, 0
3, 21324, Note_on_c, 1, 79, 95
3, 21334, Note_on_c, 1, 79, 0
3, 21336, Note_on_c, 1, 81, 95
3, 21376, Note_on_c, 1, 81, 0
3, 21384, Note_on_c, 1, 79, 95
3, 21394, Note_on_c, 1, 79, 0
3, 21396, Note_on_c, 1, 78, 95
3, 21406, Note_on_c, 1, 78, 0
3, 21408, Note_on_c, 1, 76, 95
3, 21428, Note_on_c, 1, 76, 0
3, 21432, Note_on_c, 1, 69, 95
3, 21452, Note_on_c, 1, 69, 0
3, 21624, Note_on_c, 1, 78, 95
3, 21644, Note_on_c, 1, 78, 0
3, 21648, Note_on_c, 1, 76, 95
3, 21668, Note_on_c, 1, 76, 0
3, 21672, Note_on_c, 1, 74, 95
3, 21692, Note_on_c, 1, 74, 0
3, 21696, Note_on_c, 1, 73, 95
3, 21736, Note_on_c, 1, 73, 0
3, 21768, Note_on_c, 1, 73, 95
3, 21788, Note_on_c, 1, 73, 0
3, 21792, Note_on_c, 1, 74, 95
3, 21812, Note_on_c, 1, 74, 0
3, 21816, Note_on_c, 1, 69, 95
3, 21836, Note_on_c, 1, 69, 0
3, 21840, Note_on_c, 1, 74, 95
3, 21850, Note_on_c, 1, 74, 0
3, 21852, Note_on_c, 1, 76, 95
3, 21862, Note_on_c, 1, 76, 0
3, 21864, Note_on_c, 1, 78, 95
3, 21874, Note_on_c, 1, 78, 0
3, 21876, Note_on_c, 1, 79, 95
3, 21886, Note_on_c, 1, 79, 0
3, 21888, Note_on_c, 1, 81, 95
3, 21908, Note_on_c, 1, 81, 0
3, 21912, Note_on_c, 1, 73, 95
3, 21919, Note_on_c, 1, 73, 0
3, 21920, Note_on_c, 1, 71, 95
3, 21927, Note_on_c, 1, 71, 0
3, 21928, Note_on_c, 1, 73, 95
3, 21935, Note_on_c, 1, 73, 0
3, 21936, Note_on_c, 1, 74, 95
3, 21943, Note_on_c, 1, 74, 0
3, 21944, Note_on_c, 1, 73, 95
3, 21951, Note_on_c, 1, 73, 0
3, 21952, Note_on_c, 1, 74, 95
3, 21959, Note_on_c, 1, 74, 0
3, 21960, Note_on_c, 1, 76, 95
3, 21967, Note_on_c, 1, 76, 0
3, 21968, Note_on_c, 1, 74, 95
3, 21975, Note_on_c, 1, 74, 0
3, 21976, Note_on_c, 1, 76, 95
3, 21983, Note_on_c, 1, 76, 0
3, 21984, Note_on_c, 1, 78, 95
3, 22064, Note_on_c, 1, 78, 0
3, 22104, Note_on_c, 1, 71, 95
3, 22111, Note_on_c, 1, 71, 0
3, 22112, Note_on_c, 1, 69, 95
3, 22119, Note_on_c, 1, 69, 0
3, 22120, Note_on_c, 1, 71, 95
3, 22127, Note_on_c, 1, 71, 0
3, 22128, Note_on_c, 1, 73, 95
3, 22135, Note_on_c, 1, 73, 0
3, 22136, Note_on_c, 1, 71, 95
3, 22143, Note_on_c, 1, 71, 0
3, 22144, Note_on_c, 1, 73, 95
3, 22151, Note_on_c, 1, 73, 0
3, 22152, Note_on_c, 1, 74, 95
3, 22159, Note_on_c, 1, 74, 0
3, 22160, Note_on_c, 1, 73, 95
3, 22167, Note_on_c, 1, 73, 0
3, 22168, Note_on_c, 1, 74, 95
3, 22175, Note_on_c, 1, 74, 0
3, 22176, Note_on_c, 1, 76, 95
3, 22256, Note_on_c, 1, 76, 0
3, 22296, Note_on_c, 1, 69, 95
3, 22303, Note_on_c, 1, 69, 0
3, 22304, Note_on_c, 1, 67, 95
3, 22311, Note_on_c, 1, 67, 0
3, 22312, Note_on_c, 1, 69, 95
3, 22319, Note_on_c, 1, 69, 0
3, 22320, Note_on_c, 1, 71, 95
3, 22327, Note_on_c, 1, 71, 0
3, 22328, Note_on_c, 1, 69, 95
3, 22335, Note_on_c, 1, 69, 0
3, 22336, Note_on_c, 1, 71, 95
3, 22343, Note_on_c, 1, 71, 0
3, 22344, Note_on_c, 1, 73, 95
3, 22351, Note_on_c, 1, 73, 0
3, 22352, Note_on_c, 1, 71, 95
3, 22359, Note_on_c, 1, 71, 0
3, 22360, Note_on_c, 1, 73, 95
3, 22367, Note_on_c, 1, 73, 0
3, 22368, Note_on_c, 1, 74, 95
3, 22421, Note_on_c, 1, 74, 0
3, 22488, Note_on_c, 1, 67, 95
3, 22495, Note_on_c, 1, 67, 0
3, 22496, Note_on_c, 1, 66, 95
3, 22503, Note_on_c, 1, 66, 0
3, 22504, Note_on_c, 1, 67, 95
3, 22511, Note_on_c, 1, 67, 0
3, 22512, Note_on_c, 1, 69, 95
3, 22519, Note_on_c, 1, 69, 0
3, 22520, Note_on_c, 1, 67, 95
3, 22527, Note_on_c, 1, 67, 0
3, 22528, Note_on_c, 1, 69, 95
3, 22535, Note_on_c, 1, 69, 0
3, 22536, Note_on_c, 1, 71, 95
3, 22543, Note_on_c, 1, 71, 0
3, 22544, Note_on_c, 1, 69, 95
3, 22551, Note_on_c, 1, 69, 0
3, 22552, Note_on_c, 1, 71, 95
3, 22559, Note_on_c, 1, 71, 0
3, 22560, Note_on_c, 1, 61, 95
3, 22580, Note_on_c, 1, 61, 0
3, 22584, Note_on_c, 1, 71, 95
3, 22604, Note_on_c, 1, 71, 0
3, 22608, Note_on_c, 1, 69, 95
3, 22628, Note_on_c, 1, 69, 0
3, 22632, Note_on_c, 1, 67, 95
3, 22652, Note_on_c, 1, 67, 0
3, 22656, Note_on_c, 1, 66, 95
3, 22676, Note_on_c, 1, 66, 0
3, 22680, Note_on_c, 1, 64, 95
3, 22690, Note_on_c, 1, 64, 0
3, 22692, Note_on_c, 1, 62, 95
3, 22702, Note_on_c, 1, 62, 0
3, 22704, Note_on_c, 1, 69, 95
3, 22744, Note_on_c, 1, 69, 0
3, 22764, Note_on_c, 1, 67, 95
3, 22774, Note_on_c, 1, 67, 0
3, 22776, Note_on_c, 1, 66, 95
3, 22786, Note_on_c, 1, 66, 0
3, 22788, Note_on_c, 1, 67, 95
3, 22798, Note_on_c, 1, 67, 0
3, 22800, Note_on_c, 1, 76, 95
3, 22812, Note_on_c, 1, 76, 0
3, 22824, Note_on_c, 1, 74, 95
3, 22836, Note_on_c, 1, 74, 0
3, 22848, Note_on_c, 1, 73, 95
3, 22868, Note_on_c, 1, 73, 0
3, 22872, Note_on_c, 1, 71, 95
3, 22882, Note_on_c, 1, 71, 0
3, 22884, Note_on_c, 1, 69, 95
3, 22894, Note_on_c, 1, 69, 0
3, 22896, Note_on_c, 1, 74, 95
3, 22956, Note_on_c, 1, 74, 0
3, 22980, Note_on_c, 1, 76, 95
3, 22990, Note_on_c, 1, 76, 0
3, 22992, Note_on_c, 1, 73, 95
3, 22997, Note_on_c, 1, 73, 0
3, 22998, Note_on_c, 1, 74, 95
3, 23003, Note_on_c, 1, 74, 0
3, 23004, Note_on_c, 1, 73, 95
3, 23009, Note_on_c, 1, 73, 0
3, 23010, Note_on_c, 1, 74, 95
3, 23015, Note_on_c, 1, 74, 0
3, 23016, Note_on_c, 1, 73, 95
3, 23021, Note_on_c, 1, 73, 0
3, 23022, Note_on_c, 1, 74, 95
3, 23027, Note_on_c, 1, 74, 0
3, 23028, Note_on_c, 1, 74, 95
3, 23038, Note_on_c, 1, 74, 0
3, 23040, Note_on_c, 1, 74, 95
3, 23050, Note_on_c, 1, 74, 0
3, 23052, Note_on_c, 1, 62, 95
3, 23062, Note_on_c, 1, 62, 0
3, 23064, Note_on_c, 1, 66, 95
3, 23074, Note_on_c, 1, 66, 0
3, 23076, Note_on_c, 1, 66, 95
3, 23086, Note_on_c, 1, 66, 0
3, 23088, Note_on_c, 1, 69, 95
3, 23098, Note_on_c, 1, 69, 0
3, 23100, Note_on_c, 1, 69, 95
3, 23110, Note_on_c, 1, 69, 0
3, 23112, Note_on_c, 1, 74, 95
3, 23122, Note_on_c, 1, 74, 0
3, 23124, Note_on_c, 1, 74, 95
3, 23134, Note_on_c, 1, 74, 0
3, 23136, Note_on_c, 1, 73, 95
3, 23146, Note_on_c, 1, 73, 0
3, 23148, Note_on_c, 1, 74, 95
3, 23158, Note_on_c, 1, 74, 0
3, 23160, Note_on_c, 1, 73, 95
3, 23170, Note_on_c, 1, 73, 0
3, 23172, Note_on_c, 1, 71, 95
3, 23182, Note_on_c, 1, 71, 0
3, 23184, Note_on_c, 1, 69, 95
3, 23194, Note_on_c, 1, 69, 0
3, 23196, Note_on_c, 1, 67, 95
3, 23206, Note_on_c, 1, 67, 0
3, 23208, Note_on_c, 1, 66, 95
3, 23218, Note_on_c, 1, 66, 0
3, 23220, Note_on_c, 1, 64, 95
3, 23230, Note_on_c, 1, 64, 0
3, 23232, Note_on_c, 1, 62, 95
3, 23242, Note_on_c, 1, 62, 0
3, 23244, Note_on_c, 1, 62, 95
3, 23254, Note_on_c, 1, 62, 0
3, 23256, Note_on_c, 1, 66, 95
3, 23266, Note_on_c, 1, 66, 0
3, 23268, Note_on_c, 1, 66, 95
3, 23278, Note_on_c, 1, 66, 0
3, 23280, Note_on_c, 1, 69, 95
3, 23290, Note_on_c, 1, 69, 0
3, 23292, Note_on_c, 1, 69, 95
3, 23302, Note_on_c, 1, 69, 0
3, 23304, Note_on_c, 1, 74, 95
3, 23314, Note_on_c, 1, 74, 0
3, 23316, Note_on_c, 1, 74, 95
3, 23326, Note_on_c, 1, 74, 0
3, 23328, Note_on_c, 1, 76, 95
3, 23348, Note_on_c, 1, 76, 0
3, 23352, Note_on_c, 1, 69, 95
3, 23372, Note_on_c, 1, 69, 0
3, 23400, Note_on_c, 1, 76, 95
3, 23420, Note_on_c, 1, 76, 0
3, 23424, Note_on_c, 1, 78, 95
3, 23434, Note_on_c, 1, 78, 0
3, 23436, Note_on_c, 1, 78, 95
3, 23446, Note_on_c, 1, 78, 0
3, 23448, Note_on_c, 1, 76, 95
3, 23458, Note_on_c, 1, 76, 0
3, 23460, Note_on_c, 1, 76, 95
3, 23470, Note_on_c, 1, 76, 0
3, 23472, Note_on_c, 1, 79, 95
3, 23482, Note_on_c, 1, 79, 0
3, 23484, Note_on_c, 1, 79, 95
3, 23494, Note_on_c, 1, 79, 0
3, 23496, Note_on_c, 1, 78, 95
3, 23506, Note_on_c, 1, 78, 0
3, 23508, Note_on_c, 1, 78, 95
3, 23518, Note_on_c, 1, 78, 0
3, 23520, Note_on_c, 1, 83, 95
3, 23530, Note_on_c, 1, 83, 0
3, 23532, Note_on_c, 1, 83, 95
3, 23542, Note_on_c, 1, 83, 0
3, 23544, Note_on_c, 1, 81, 95
3, 23554, Note_on_c, 1, 81, 0
3, 23556, Note_on_c, 1, 81, 95
3, 23566, Note_on_c, 1, 81, 0
3, 23568, Note_on_c, 1, 73, 95
3, 23578, Note_on_c, 1, 73, 0
3, 23580, Note_on_c, 1, 73, 95
3, 23590, Note_on_c, 1, 73, 0
3, 23592, Note_on_c, 1, 74, 95
3, 23602, Note_on_c, 1, 74, 0
3, 23604, Note_on_c, 1, 74, 95
3, 23614, Note_on_c, 1, 74, 0
3, 23616, Note_on_c, 1, 67, 95
3, 23626, Note_on_c, 1, 67, 0
3, 23628, Note_on_c, 1, 67, 95
3, 23638, Note_on_c, 1, 67, 0
3, 23640, Note_on_c, 1, 66, 95
3, 23650, Note_on_c, 1, 66, 0
3, 23652, Note_on_c, 1, 66, 95
3, 23662, Note_on_c, 1, 66, 0
3, 23664, Note_on_c, 1, 71, 95
3, 23674, Note_on_c, 1, 71, 0
3, 23676, Note_on_c, 1, 71, 95
3, 23686, Note_on_c, 1, 71, 0
3, 23688, Note_on_c, 1, 69, 95
3, 23698, Note_on_c, 1, 69, 0
3, 23700, Note_on_c, 1, 69, 95
3, 23710, Note_on_c, 1, 69, 0
3, 23712, Note_on_c, 1, 61, 95
3, 23722, Note_on_c, 1, 61, 0
3, 23724, Note_on_c, 1, 61, 95
3, 23734, Note_on_c, 1, 61, 0
3, 23736, Note_on_c, 1, 62, 95
3, 23746, Note_on_c, 1, 62, 0
3, 23748, Note_on_c, 1, 62, 95
3, 23758, Note_on_c, 1, 62, 0
3, 23760, Note_on_c, 1, 57, 95
3, 23770, Note_on_c, 1, 57, 0
3, 23772, Note_on_c, 1, 57, 95
3, 23782, Note_on_c, 1, 57, 0
3, 23784, Note_on_c, 1, 67, 95
3, 23794, Note_on_c, 1, 67, 0
3, 23796, Note_on_c, 1, 67, 95
3, 23806, Note_on_c, 1, 67, 0
3, 23808, Note_on_c, 1, 66, 95
3, 23818, Note_on_c, 1, 66, 0
3, 23820, Note_on_c, 1, 64, 95
3, 23830, Note_on_c, 1, 64, 0
3, 23832, Note_on_c, 1, 66, 95
3, 23842, Note_on_c, 1, 66, 0
3, 23844, Note_on_c, 1, 62, 95
3, 23854, Note_on_c, 1, 62, 0
3, 23856, Note_on_c, 1, 64, 95
3, 23876, Note_on_c, 1, 64, 0
3, 23880, Note_on_c, 1, 64, 95
3, 23885, Note_on_c, 1, 64, 0
3, 23886, Note_on_c, 1, 66, 95
3, 23891, Note_on_c, 1, 66, 0
3, 23892, Note_on_c, 1, 64, 95
3, 23897, Note_on_c, 1, 64, 0
3, 23898, Note_on_c, 1, 66, 95
3, 23903, Note_on_c, 1, 66, 0
3, 23904, Note_on_c, 1, 66, 95
3, 23914, Note_on_c, 1, 66, 0
3, 23916, Note_on_c, 1, 62, 95
3, 23926, Note_on_c, 1, 62, 0
3, 23928, Note_on_c, 1, 64, 95
3, 23938, Note_on_c, 1, 64, 0
3, 23940, Note_on_c, 1, 67, 95
3, 23950, Note_on_c, 1, 67, 0
3, 23952, Note_on_c, 1, 66, 95
3, 23962, Note_on_c, 1, 66, 0
3, 23964, Note_on_c, 1, 62, 95
3, 23974, Note_on_c, 1, 62, 0
3, 23976, Note_on_c, 1, 64, 95
3, 23986, Note_on_c, 1, 64, 0
3, 23988, Note_on_c, 1, 66, 95
3, 23998, Note_on_c, 1, 66, 0
3, 24000, Note_on_c, 1, 67, 95
3, 24010, Note_on_c, 1, 67, 0
3, 24012, Note_on_c, 1, 64, 95
3, 24022, Note_on_c, 1, 64, 0
3, 24024, Note_on_c, 1, 66, 95
3, 24034, Note_on_c, 1, 66, 0
3, 24036, Note_on_c, 1, 69, 95
3, 24046, Note_on_c, 1, 69, 0
3, 24048, Note_on_c, 1, 67, 95
3, 24058, Note_on_c, 1, 67, 0
3, 24060, Note_on_c, 1, 64, 95
3, 24070, Note_on_c, 1, 64, 0
3, 24072, Note_on_c, 1, 66, 95
3, 24082, Note_on_c, 1, 66, 0
3, 24084, Note_on_c, 1, 67, 95
3, 24094, Note_on_c, 1, 67, 0
3, 24096, Note_on_c, 1, 69, 95
3, 24106, Note_on_c, 1, 69, 0
3, 24108, Note_on_c, 1, 66, 95
3, 24118, Note_on_c, 1, 66, 0
3, 24120, Note_on_c, 1, 67, 95
3, 24130, Note_on_c, 1, 67, 0
3, 24132, Note_on_c, 1, 71, 95
3, 24142, Note_on_c, 1, 71, 0
3, 24144, Note_on_c, 1, 69, 95
3, 24154, Note_on_c, 1, 69, 0
3, 24156, Note_on_c, 1, 66, 95
3, 24166, Note_on_c, 1, 66, 0
3, 24168, Note_on_c, 1, 67, 95
3, 24178, Note_on_c, 1, 67, 0
3, 24180, Note_on_c, 1, 69, 95
3, 24190, Note_on_c, 1, 69, 0
3, 24192, Note_on_c, 1, 71, 95
3, 24212, Note_on_c, 1, 71, 0
3, 24216, Note_on_c, 1, 69, 95
3, 24236, Note_on_c, 1, 69, 0
3, 24240, Note_on_c, 1, 72, 95
3, 24260, Note_on_c, 1, 72, 0
3, 24264, Note_on_c, 1, 71, 95
3, 24284, Note_on_c, 1, 71, 0
3, 24288, Note_on_c, 1, 76, 95
3, 24308, Note_on_c, 1, 76, 0
3, 24312, Note_on_c, 1, 74, 95
3, 24332, Note_on_c, 1, 74, 0
3, 24336, Note_on_c, 1, 74, 95
3, 24456, Note_on_c, 1, 74, 0
3, 24492, Note_on_c, 1, 73, 95
3, 24502, Note_on_c, 1, 73, 0
3, 24504, Note_on_c, 1, 74, 95
3, 24514, Note_on_c, 1, 74, 0
3, 24516, Note_on_c, 1, 76, 95
3, 24526, Note_on_c, 1, 76, 0
3, 24528, Note_on_c, 1, 73, 95
3, 24558, Note_on_c, 1, 73, 0
3, 24564, Note_on_c, 1, 74, 95
3, 24574, Note_on_c, 1, 74, 0
3, 24576, Note_on_c, 1, 74, 95
3, 24616, Note_on_c, 1, 74, 0
3, 24696, Note_on_c, 1, 64, 95
3, 24716, Note_on_c, 1, 64, 0
3, 24720, Note_on_c, 1, 66, 95
3, 24740, Note_on_c, 1, 66, 0
3, 24744, Note_on_c, 1, 64, 95
3, 24764, Note_on_c, 1, 64, 0
3, 24768, Note_on_c, 1, 67, 95
3, 24788, Note_on_c, 1, 67, 0
3, 24792, Note_on_c, 1, 66, 95
3, 24812, Note_on_c, 1, 66, 0
3, 24816, Note_on_c, 1, 71, 95
3, 24836, Note_on_c, 1, 71, 0
3, 24840, Note_on_c, 1, 69, 95
3, 24860, Note_on_c, 1, 69, 0
3, 24864, Note_on_c, 1, 74, 95
3, 24984, Note_on_c, 1, 74, 0
3, 24984, Note_on_c, 1, 73, 95
3, 25004, Note_on_c, 1, 73, 0
3, 25008, Note_on_c, 1, 76, 95
3, 25028, Note_on_c, 1, 76, 0
3, 25032, Note_on_c, 1, 74, 95
3, 25052, Note_on_c, 1, 74, 0
3, 25056, Note_on_c, 1, 79, 95
3, 25076, Note_on_c, 1, 79, 0
3, 25080, Note_on_c, 1, 78, 95
3, 25100, Note_on_c, 1, 78, 0
3, 25104, Note_on_c, 1, 76, 95
3, 25124, Note_on_c, 1, 76, 0
3, 25128, Note_on_c, 1, 74, 95
3, 25138, Note_on_c, 1, 74, 0
3, 25140, Note_on_c, 1, 73, 95
3, 25150, Note_on_c, 1, 73, 0
3, 25152, Note_on_c, 1, 74, 95
3, 25162, Note_on_c, 1, 74, 0
3, 25164, Note_on_c, 1, 76, 95
3, 25174, Note_on_c, 1, 76, 0
3, 25176, Note_on_c, 1, 73, 95
3, 25186, Note_on_c, 1, 73, 0
3, 25188, Note_on_c, 1, 74, 95
3, 25198, Note_on_c, 1, 74, 0
3, 25200, Note_on_c, 1, 71, 95
3, 25210, Note_on_c, 1, 71, 0
3, 25212, Note_on_c, 1, 76, 95
3, 25222, Note_on_c, 1, 76, 0
3, 25224, Note_on_c, 1, 78, 95
3, 25234, Note_on_c, 1, 78, 0
3, 25236, Note_on_c, 1, 79, 95
3, 25246, Note_on_c, 1, 79, 0
3, 25248, Note_on_c, 1, 81, 95
3, 25258, Note_on_c, 1, 81, 0
3, 25260, Note_on_c, 1, 69, 95
3, 25270, Note_on_c, 1, 69, 0
3, 25272, Note_on_c, 1, 71, 95
3, 25282, Note_on_c, 1, 71, 0
3, 25284, Note_on_c, 1, 73, 95
3, 25294, Note_on_c, 1, 73, 0
3, 25296, Note_on_c, 1, 74, 95
3, 25306, Note_on_c, 1, 74, 0
3, 25308, Note_on_c, 1, 78, 95
3, 25318, Note_on_c, 1, 78, 0
3, 25320, Note_on_c, 1, 79, 95
3, 25330, Note_on_c, 1, 79, 0
3, 25332, Note_on_c, 1, 81, 95
3, 25342, Note_on_c, 1, 81, 0
3, 25344, Note_on_c, 1, 83, 95
3, 25354, Note_on_c, 1, 83, 0
3, 25356, Note_on_c, 1, 71, 95
3, 25366, Note_on_c, 1, 71, 0
3, 25368, Note_on_c, 1, 73, 95
3, 25378, Note_on_c, 1, 73, 0
3, 25380, Note_on_c, 1, 74, 95
3, 25390, Note_on_c, 1, 74, 0
3, 25392, Note_on_c, 1, 76, 95
3, 25402, Note_on_c, 1, 76, 0
3, 25404, Note_on_c, 1, 78, 95
3, 25414, Note_on_c, 1, 78, 0
3, 25416, Note_on_c, 1, 79, 95
3, 25426, Note_on_c, 1, 79, 0
3, 25428, Note_on_c, 1, 76, 95
3, 25438, Note_on_c, 1, 76, 0
3, 25440, Note_on_c, 1, 81, 95
3, 25450, Note_on_c, 1, 81, 0
3, 25452, Note_on_c, 1, 69, 95
3, 25462, Note_on_c, 1, 69, 0
3, 25464, Note_on_c, 1, 71, 95
3, 25474, Note_on_c, 1, 71, 0
3, 25476, Note_on_c, 1, 73, 95
3, 25486, Note_on_c, 1, 73, 0
3, 25488, Note_on_c, 1, 74, 95
3, 25568, Note_on_c, 1, 74, 0
3, 25584, Note_on_c, 1, 73, 95
3, 25624, Note_on_c, 1, 73, 0
3, 25632, Note_on_c, 1, 74, 95
3, 25652, Note_on_c, 1, 74, 0
3, 25656, Note_on_c, 1, 69, 95
3, 25676, Note_on_c, 1, 69, 0
3, 25680, Note_on_c, 1, 74, 95
3, 25690, Note_on_c, 1, 74, 0
3, 25692, Note_on_c, 1, 78, 95
3, 25702, Note_on_c, 1, 78, 0
3, 25704, Note_on_c, 1, 76, 95
3, 25714, Note_on_c, 1, 76, 0
3, 25716, Note_on_c, 1, 74, 95
3, 25726, Note_on_c, 1, 74, 0
3, 25728, Note_on_c, 1, 76, 95
3, 25738, Note_on_c, 1, 76, 0
3, 25740, Note_on_c, 1, 69, 95
3, 25750, Note_on_c, 1, 69, 0
3, 25752, Note_on_c, 1, 71, 95
3, 25762, Note_on_c, 1, 71, 0
3, 25764, Note_on_c, 1, 74, 95
3, 25774, Note_on_c, 1, 74, 0
3, 25776, Note_on_c, 1, 73, 95
3, 25786, Note_on_c, 1, 73, 0
3, 25788, Note_on_c, 1, 76, 95
3, 25798, Note_on_c, 1, 76, 0
3, 25800, Note_on_c, 1, 74, 95
3, 25810, Note_on_c, 1, 74, 0
3, 25812, Note_on_c, 1, 73, 95
3, 25822, Note_on_c, 1, 73, 0
3, 25824, Note_on_c, 1, 74, 95
3, 25834, Note_on_c, 1, 74, 0
3, 25836, Note_on_c, 1, 71, 95
3, 25846, Note_on_c, 1, 71, 0
3, 25848, Note_on_c, 1, 73, 95
3, 25858, Note_on_c, 1, 73, 0
3, 25860, Note_on_c, 1, 76, 95
3, 25870, Note_on_c, 1, 76, 0
3, 25872, Note_on_c, 1, 74, 95
3, 25882, Note_on_c, 1, 74, 0
3, 25884, Note_on_c, 1, 73, 95
3, 25894, Note_on_c, 1, 73, 0
3, 25896, Note_on_c, 1, 71, 95
3, 25906, Note_on_c, 1, 71, 0
3, 25908, Note_on_c, 1, 69, 95
3, 25918, Note_on_c, 1, 69, 0
3, 25920, Note_on_c, 1, 71, 95
3, 25930, Note_on_c, 1, 71, 0
3, 25932, Note_on_c, 1, 68, 95
3, 25942, Note_on_c, 1, 68, 0
3, 25944, Note_on_c, 1, 69, 95
3, 25954, Note_on_c, 1, 69, 0
3, 25956, Note_on_c, 1, 73, 95
3, 25966, Note_on_c, 1, 73, 0
3, 25968, Note_on_c, 1, 71, 95
3, 25978, Note_on_c, 1, 71, 0
3, 25980, Note_on_c, 1, 74, 95
3, 25990, Note_on_c, 1, 74, 0
3, 25992, Note_on_c, 1, 73, 95
3, 26002, Note_on_c, 1, 73, 0
3, 26004, Note_on_c, 1, 71, 95
3, 26014, Note_on_c, 1, 71, 0
3, 26016, Note_on_c, 1, 73, 95
3, 26026, Note_on_c, 1, 73, 0
3, 26028, Note_on_c, 1, 71, 95
3, 26038, Note_on_c, 1, 71, 0
3, 26040, Note_on_c, 1, 73, 95
3, 26050, Note_on_c, 1, 73, 0
3, 26052, Note_on_c, 1, 74, 95
3, 26062, Note_on_c, 1, 74, 0
3, 26064, Note_on_c, 1, 76, 95
3, 26074, Note_on_c, 1, 76, 0
3, 26076, Note_on_c, 1, 78, 95
3, 26086, Note_on_c, 1, 78, 0
3, 26088, Note_on_c, 1, 79, 95
3, 26098, Note_on_c, 1, 79, 0
3, 26100, Note_on_c, 1, 76, 95
3, 26110, Note_on_c, 1, 76, 0
3, 26112, Note_on_c, 1, 78, 95
3, 26122, Note_on_c, 1, 78, 0
3, 26124, Note_on_c, 1, 78, 95
3, 26134, Note_on_c, 1, 78, 0
3, 26136, Note_on_c, 1, 76, 95
3, 26146, Note_on_c, 1, 76, 0
3, 26148, Note_on_c, 1, 76, 95
3, 26158, Note_on_c, 1, 76, 0
3, 26160, Note_on_c, 1, 79, 95
3, 26170, Note_on_c, 1, 79, 0
3, 26172, Note_on_c, 1, 79, 95
3, 26182, Note_on_c, 1, 79, 0
3, 26184, Note_on_c, 1, 78, 95
3, 26194, Note_on_c, 1, 78, 0
3, 26196, Note_on_c, 1, 78, 95
3, 26206, Note_on_c, 1, 78, 0
3, 26208, Note_on_c, 1, 83, 95
3, 26218, Note_on_c, 1, 83, 0
3, 26220, Note_on_c, 1, 83, 95
3, 26230, Note_on_c, 1, 83, 0
3, 26232, Note_on_c, 1, 81, 95
3, 26242, Note_on_c, 1, 81, 0
3, 26244, Note_on_c, 1, 81, 95
3, 26254, Note_on_c, 1, 81, 0
3, 26256, Note_on_c, 1, 73, 95
3, 26266, Note_on_c, 1, 73, 0
3, 26268, Note_on_c, 1, 73, 95
3, 26278, Note_on_c, 1, 73, 0
3, 26280, Note_on_c, 1, 74, 95
3, 26290, Note_on_c, 1, 74, 0
3, 26292, Note_on_c, 1, 74, 95
3, 26302, Note_on_c, 1, 74, 0
3, 26304, Note_on_c, 1, 67, 95
3, 26314, Note_on_c, 1, 67, 0
3, 26316, Note_on_c, 1, 67, 95
3, 26326, Note_on_c, 1, 67, 0
3, 26328, Note_on_c, 1, 66, 95
3, 26338, Note_on_c, 1, 66, 0
3, 26340, Note_on_c, 1, 66, 95
3, 26350, Note_on_c, 1, 66, 0
3, 26352, Note_on_c, 1, 71, 95
3, 26362, Note_on_c, 1, 71, 0
3, 26364, Note_on_c, 1, 71, 95
3, 26374, Note_on_c, 1, 71, 0
3, 26376, Note_on_c, 1, 69, 95
3, 26386, Note_on_c, 1, 69, 0
3, 26388, Note_on_c, 1, 69, 95
3, 26398, Note_on_c, 1, 69, 0
3, 26400, Note_on_c, 1, 61, 95
3, 26410, Note_on_c, 1, 61, 0
3, 26412, Note_on_c, 1, 61, 95
3, 26422, Note_on_c, 1, 61, 0
3, 26424, Note_on_c, 1, 62, 95
3, 26434, Note_on_c, 1, 62, 0
3, 26436, Note_on_c, 1, 62, 95
3, 26446, Note_on_c, 1, 62, 0
3, 26448, Note_on_c, 1, 57, 95
3, 26458, Note_on_c, 1, 57, 0
3, 26460, Note_on_c, 1, 57, 95
3, 26470, Note_on_c, 1, 57, 0
3, 26472, Note_on_c, 1, 67, 95
3, 26482, Note_on_c, 1, 67, 0
3, 26484, Note_on_c, 1, 67, 95
3, 26494, Note_on_c, 1, 67, 0
3, 26496, Note_on_c, 1, 66, 95
3, 26506, Note_on_c, 1, 66, 0
3, 26508, Note_on_c, 1, 64, 95
3, 26518, Note_on_c, 1, 64, 0
3, 26520, Note_on_c, 1, 66, 95
3, 26530, Note_on_c, 1, 66, 0
3, 26532, Note_on_c, 1, 62, 95
3, 26542, Note_on_c, 1, 62, 0
3, 26544, Note_on_c, 1, 64, 95
3, 26554, Note_on_c, 1, 64, 0
3, 26556, Note_on_c, 1, 64, 95
3, 26566, Note_on_c, 1, 64, 0
3, 26568, Note_on_c, 1, 57, 95
3, 26578, Note_on_c, 1, 57, 0
3, 26580, Note_on_c, 1, 57, 95
3, 26590, Note_on_c, 1, 57, 0
3, 26592, Note_on_c, 1, 62, 95
3, 26612, Note_on_c, 1, 62, 0
3, 26616, Note_on_c, 1, 74, 95
3, 26626, Note_on_c, 1, 74, 0
3, 26628, Note_on_c, 1, 76, 95
3, 26638, Note_on_c, 1, 76, 0
3, 26640, Note_on_c, 1, 74, 95
3, 26660, Note_on_c, 1, 74, 0
3, 26712, Note_on_c, 1, 74, 95
3, 26722, Note_on_c, 1, 74, 0
3, 26724, Note_on_c, 1, 76, 95
3, 26734, Note_on_c, 1, 76, 0
3, 26736, Note_on_c, 1, 74, 95
3, 26756, Note_on_c, 1, 74, 0
3, 26760, Note_on_c, 1, 71, 95
3, 26780, Note_on_c, 1, 71, 0
3, 26784, Note_on_c, 1, 76, 95
3, 26804, Note_on_c, 1, 76, 0
3, 26856, Note_on_c, 1, 76, 95
3, 26866, Note_on_c, 1, 76, 0
3, 26868, Note_on_c, 1, 78, 95
3, 26878, Note_on_c, 1, 78, 0
3, 26880, Note_on_c, 1, 76, 95
3, 26900, Note_on_c, 1, 76, 0
3, 27000, Note_on_c, 1, 78, 95
3, 27010, Note_on_c, 1, 78, 0
3, 27012, Note_on_c, 1, 79, 95
3, 27022, Note_on_c, 1, 79, 0
3, 27024, Note_on_c, 1, 78, 95
3, 27044, Note_on_c, 1, 78, 0
3, 27096, Note_on_c, 1, 78, 95
3, 27106, Note_on_c, 1, 78, 0
3, 27108, Note_on_c, 1, 79, 95
3, 27118, Note_on_c, 1, 79, 0
3, 27120, Note_on_c, 1, 78, 95
3, 27140, Note_on_c, 1, 78, 0
3, 27144, Note_on_c, 1, 74, 95
3, 27164, Note_on_c, 1, 74, 0
3, 27168, Note_on_c, 1, 81, 95
3, 27188, Note_on_c, 1, 81, 0
3, 27240, Note_on_c, 1, 81, 95
3, 27250, Note_on_c, 1, 81, 0
3, 27252, Note_on_c, 1, 83, 95
3, 27262, Note_on_c, 1, 83, 0
3, 27264, Note_on_c, 1, 81, 95
3, 27284, Note_on_c, 1, 81, 0
3, 27336, Note_on_c, 1, 81, 95
3, 27356, Note_on_c, 1, 81, 0
3, 27360, Note_on_c, 1, 81, 95
3, 27370, Note_on_c, 1, 81, 0
3, 27372, Note_on_c, 1, 78, 95
3, 27382, Note_on_c, 1, 78, 0
3, 27384, Note_on_c, 1, 79, 95
3, 27392, Note_on_c, 1, 79, 0
3, 27432, Note_on_c, 1, 79, 95
3, 27452, Note_on_c, 1, 79, 0
3, 27456, Note_on_c, 1, 79, 95
3, 27466, Note_on_c, 1, 79, 0
3, 27468, Note_on_c, 1, 76, 95
3, 27478, Note_on_c, 1, 76, 0
3, 27480, Note_on_c, 1, 78, 95
3, 27488, Note_on_c, 1, 78, 0
3, 27528, Note_on_c, 1, 78, 95
3, 27548, Note_on_c, 1, 78, 0
3, 27552, Note_on_c, 1, 78, 95
3, 27562, Note_on_c, 1, 78, 0
3, 27564, Note_on_c, 1, 74, 95
3, 27574, Note_on_c, 1, 74, 0
3, 27576, Note_on_c, 1, 76, 95
3, 27584, Note_on_c, 1, 76, 0
3, 27624, Note_on_c, 1, 76, 95
3, 27644, Note_on_c, 1, 76, 0
3, 27648, Note_on_c, 1, 76, 95
3, 27658, Note_on_c, 1, 76, 0
3, 27660, Note_on_c, 1, 73, 95
3, 27670, Note_on_c, 1, 73, 0
3, 27672, Note_on_c, 1, 74, 95
3, 27682, Note_on_c, 1, 74, 0
3, 27684, Note_on_c, 1, 76, 95
3, 27694, Note_on_c, 1, 76, 0
3, 27696, Note_on_c, 1, 74, 95
3, 27706, Note_on_c, 1, 74, 0
3, 27708, Note_on_c, 1, 78, 95
3, 27718, Note_on_c, 1, 78, 0
3, 27720, Note_on_c, 1, 76, 95
3, 27730, Note_on_c, 1, 76, 0
3, 27732, Note_on_c, 1, 74, 95
3, 27742, Note_on_c, 1, 74, 0
3, 27744, Note_on_c, 1, 73, 95
3, 27764, Note_on_c, 1, 73, 0
3, 27768, Note_on_c, 1, 76, 95
3, 27788, Note_on_c, 1, 76, 0
3, 27816, Note_on_c, 1, 64, 95
3, 27836, Note_on_c, 1, 64, 0
3, 27840, Note_on_c, 1, 66, 95
3, 27850, Note_on_c, 1, 66, 0
3, 27852, Note_on_c, 1, 64, 95
3, 27862, Note_on_c, 1, 64, 0
3, 27864, Note_on_c, 1, 66, 95
3, 27874, Note_on_c, 1, 66, 0
3, 27876, Note_on_c, 1, 67, 95
3, 27886, Note_on_c, 1, 67, 0
3, 27888, Note_on_c, 1, 66, 95
3, 27898, Note_on_c, 1, 66, 0
3, 27900, Note_on_c, 1, 69, 95
3, 27910, Note_on_c, 1, 69, 0
3, 27912, Note_on_c, 1, 67, 95
3, 27922, Note_on_c, 1, 67, 0
3, 27924, Note_on_c, 1, 66, 95
3, 27934, Note_on_c, 1, 66, 0
3, 27936, Note_on_c, 1, 64, 95
3, 27956, Note_on_c, 1, 64, 0
3, 27960, Note_on_c, 1, 76, 95
3, 27980, Note_on_c, 1, 76, 0
3, 27984, Note_on_c, 1, 73, 95
3, 28004, Note_on_c, 1, 73, 0
3, 28008, Note_on_c, 1, 69, 95
3, 28028, Note_on_c, 1, 69, 0
3, 28032, Note_on_c, 1, 78, 63
3, 28052, Note_on_c, 1, 78, 0
3, 28056, Note_on_c, 1, 74, 63
3, 28076, Note_on_c, 1, 74, 0
3, 28128, Note_on_c, 1, 78, 63
3, 28148, Note_on_c, 1, 78, 0
3, 28152, Note_on_c, 1, 81, 63
3, 28172, Note_on_c, 1, 81, 0
3, 28224, Note_on_c, 1, 76, 63
3, 28244, Note_on_c, 1, 76, 0
3, 28248, Note_on_c, 1, 73, 63
3, 28268, Note_on_c, 1, 73, 0
3, 28320, Note_on_c, 1, 76, 63
3, 28340, Note_on_c, 1, 76, 0
3, 28344, Note_on_c, 1, 81, 63
3, 28364, Note_on_c, 1, 81, 0
3, 28416, Note_on_c, 1, 74, 63
3, 28436, Note_on_c, 1, 74, 0
3, 28440, Note_on_c, 1, 71, 63
3, 28460, Note_on_c, 1, 71, 0
3, 28512, Note_on_c, 1, 74, 63
3, 28532, Note_on_c, 1, 74, 0
3, 28536, Note_on_c, 1, 83, 63
3, 28556, Note_on_c, 1, 83, 0
3, 28608, Note_on_c, 1, 74, 63
3, 28628, Note_on_c, 1, 74, 0
3, 28632, Note_on_c, 1, 71, 63
3, 28652, Note_on_c, 1, 71, 0
3, 28704, Note_on_c, 1, 74, 63
3, 28724, Note_on_c, 1, 74, 0
3, 28728, Note_on_c, 1, 83, 63
3, 28748, Note_on_c, 1, 83, 0
3, 28800, Note_on_c, 1, 64, 63
3, 28824, Note_on_c, 1, 64, 0
3, 28824, Note_on_c, 1, 67, 63
3, 28848, Note_on_c, 1, 67, 0
3, 28848, Note_on_c, 1, 69, 63
3, 28872, Note_on_c, 1, 69, 0
3, 28872, Note_on_c, 1, 74, 63
3, 28896, Note_on_c, 1, 74, 0
3, 28896, Note_on_c, 1, 64, 63
3, 28920, Note_on_c, 1, 64, 0
3, 28920, Note_on_c, 1, 67, 63
3, 28944, Note_on_c, 1, 67, 0
3, 28944, Note_on_c, 1, 69, 63
3, 28968, Note_on_c, 1, 69, 0
3, 28968, Note_on_c, 1, 74, 63
3, 28992, Note_on_c, 1, 74, 0
3, 29088, Note_on_c, 1, 64, 63
3, 29184, Note_on_c, 1, 64, 0
3, 29184, Note_on_c, 1, 66, 63
3, 29280, Note_on_c, 1, 66, 0
3, 29280, Note_on_c, 1, 68, 63
3, 29376, Note_on_c, 1, 68, 0
3, 29376, Note_on_c, 1, 69, 63
3, 29400, Note_on_c, 1, 69, 0
3, 41952, Control_c, 1, 10, 108
3, 41952, Control_c, 1, 7, 96
3, 41952, Pitch_bend_c, 1, 8192
3, 41952, Control_c, 1, 1, 0
3, 41952, Program_c, 1, 52
3, 41952, Control_c, 1, 64, 0
3, 41952, Note_on_c, 1, 62, 95
3, 41960, Note_on_c, 1, 62, 0
3, 41964, Note_on_c, 1, 62, 95
3, 41972, Note_on_c, 1, 62, 0
3, 41976, Note_on_c, 1, 66, 95
3, 41984, Note_on_c, 1, 66, 0
3, 41988, Note_on_c, 1, 66, 95
3, 41996, Note_on_c, 1, 66, 0
3, 42000, Note_on_c, 1, 69, 95
3, 42008, Note_on_c, 1, 69, 0
3, 42012, Note_on_c, 1, 69, 95
3, 42020, Note_on_c, 1, 69, 0
3, 42024, Note_on_c, 1, 74, 95
3, 42032, Note_on_c, 1, 74, 0
3, 42036, Note_on_c, 1, 74, 95
3, 42044, Note_on_c, 1, 74, 0
3, 42048, Note_on_c, 1, 73, 95
3, 42056, Note_on_c, 1, 73, 0
3, 42060, Note_on_c, 1, 74, 95
3, 42068, Note_on_c, 1, 74, 0
3, 42072, Note_on_c, 1, 73, 95
3, 42080, Note_on_c, 1, 73, 0
3, 42084, Note_on_c, 1, 71, 95
3, 42092, Note_on_c, 1, 71, 0
3, 42096, Note_on_c, 1, 69, 95
3, 42104, Note_on_c, 1, 69, 0
3, 42108, Note_on_c, 1, 67, 95
3, 42116, Note_on_c, 1, 67, 0
3, 42120, Note_on_c, 1, 66, 95
3, 42128, Note_on_c, 1, 66, 0
3, 42132, Note_on_c, 1, 64, 95
3, 42140, Note_on_c, 1, 64, 0
3, 42144, Control_c, 1, 7, 96
3, 42144, Pitch_bend_c, 1, 8192
3, 42144, Control_c, 1, 1, 0
3, 42144, Control_c, 1, 64, 0
3, 42144, Note_on_c, 1, 62, 95
3, 42152, Note_on_c, 1, 62, 0
3, 42156, Note_on_c, 1, 62, 95
3, 42164, Note_on_c, 1, 62, 0
3, 42168, Note_on_c, 1, 66, 95
3, 42176, Note_on_c, 1, 66, 0
3, 42180, Note_on_c, 1, 66, 95
3, 42188, Note_on_c, 1, 66, 0
3, 42192, Note_on_c, 1, 69, 95
3, 42200, Note_on_c, 1, 69, 0
3, 42204, Note_on_c, 1, 69, 95
3, 42212, Note_on_c, 1, 69, 0
3, 42216, Note_on_c, 1, 74, 95
3, 42224, Note_on_c, 1, 74, 0
3, 42228, Note_on_c, 1, 74, 95
3, 42236, Note_on_c, 1, 74, 0
3, 42240, Note_on_c, 1, 76, 95
3, 42256, Note_on_c, 1, 76, 0
3, 42264, Note_on_c, 1, 69, 95
3, 42280, Note_on_c, 1, 69, 0
3, 42312, Note_on_c, 1, 76, 95
3, 42328, Note_on_c, 1, 76, 0
3, 42336, Note_on_c, 1, 78, 95
3, 42344, Note_on_c, 1, 78, 0
3, 42348, Note_on_c, 1, 78, 95
3, 42356, Note_on_c, 1, 78, 0
3, 42360, Note_on_c, 1, 76, 95
3, 42368, Note_on_c, 1, 76, 0
3, 42372, Note_on_c, 1, 76, 95
3, 42380, Note_on_c, 1, 76, 0
3, 42384, Note_on_c, 1, 79, 95
3, 42392, Note_on_c, 1, 79, 0
3, 42396, Note_on_c, 1, 79, 95
3, 42404, Note_on_c, 1, 79, 0
3, 42408, Note_on_c, 1, 78, 95
3, 42416, Note_on_c, 1, 78, 0
3, 42420, Note_on_c, 1, 78, 95
3, 42428, Note_on_c, 1, 78, 0
3, 42432, Note_on_c, 1, 83, 95
3, 42440, Note_on_c, 1, 83, 0
3, 42444, Note_on_c, 1, 83, 95
3, 42452, Note_on_c, 1, 83, 0
3, 42456, Note_on_c, 1, 81, 95
3, 42464, Note_on_c, 1, 81, 0
3, 42468, Note_on_c, 1, 81, 95
3, 42476, Note_on_c, 1, 81, 0
3, 42480, Note_on_c, 1, 73, 95
3, 42488, Note_on_c, 1, 73, 0
3, 42492, Note_on_c, 1, 73, 95
3, 42500, Note_on_c, 1, 73, 0
3, 42504, Note_on_c, 1, 74, 95
3, 42512, Note_on_c, 1, 74, 0
3, 42516, Note_on_c, 1, 74, 95
3, 42524, Note_on_c, 1, 74, 0
3, 42528, Note_on_c, 1, 67, 95
3, 42536, Note_on_c, 1, 67, 0
3, 42540, Note_on_c, 1, 67, 95
3, 42548, Note_on_c, 1, 67, 0
3, 42552, Note_on_c, 1, 66, 95
3, 42560, Note_on_c, 1, 66, 0
3, 42564, Note_on_c, 1, 66, 95
3, 42572, Note_on_c, 1, 66, 0
3, 42576, Note_on_c, 1, 71, 95
3, 42584, Note_on_c, 1, 71, 0
3, 42588, Note_on_c, 1, 71, 95
3, 42596, Note_on_c, 1, 71, 0
3, 42600, Note_on_c, 1, 69, 95
3, 42608, Note_on_c, 1, 69, 0
3, 42612, Note_on_c, 1, 69, 95
3, 42620, Note_on_c, 1, 69, 0
3, 42624, Note_on_c, 1, 61, 95
3, 42632, Note_on_c, 1, 61, 0
3, 42636, Note_on_c, 1, 61, 95
3, 42644, Note_on_c, 1, 61, 0
3, 42648, Note_on_c, 1, 62, 95
3, 42656, Note_on_c, 1, 62, 0
3, 42660, Note_on_c, 1, 62, 95
3, 42668, Note_on_c, 1, 62, 0
3, 42672, Note_on_c, 1, 57, 95
3, 42680, Note_on_c, 1, 57, 0
3, 42684, Note_on_c, 1, 57, 95
3, 42692, Note_on_c, 1, 57, 0
3, 42696, Note_on_c, 1, 67, 95
3, 42704, Note_on_c, 1, 67, 0
3, 42708, Note_on_c, 1, 67, 95
3, 42716, Note_on_c, 1, 67, 0
3, 42720, Note_on_c, 1, 66, 95
3, 42728, Note_on_c, 1, 66, 0
3, 42732, Note_on_c, 1, 64, 95
3, 42740, Note_on_c, 1, 64, 0
3, 42744, Note_on_c, 1, 66, 95
3, 42752, Note_on_c, 1, 66, 0
3, 42756, Note_on_c, 1, 62, 95
3, 42764, Note_on_c, 1, 62, 0
3, 42768, Note_on_c, 1, 64, 95
3, 42776, Note_on_c, 1, 64, 0
3, 42780, Note_on_c, 1, 64, 95
3, 42788, Note_on_c, 1, 64, 0
3, 42792, Note_on_c, 1, 57, 95
3, 42800, Note_on_c, 1, 57, 0
3, 42804, Note_on_c, 1, 57, 95
3, 42812, Note_on_c, 1, 57, 0
3, 42816, Note_on_c, 1, 62, 95
3, 42824, Note_on_c, 1, 62, 0
3, 42828, Note_on_c, 1, 64, 95
3, 42836, Note_on_c, 1, 64, 0
3, 42840, Note_on_c, 1, 66, 95
3, 42848, Note_on_c, 1, 66, 0
3, 42852, Note_on_c, 1, 67, 95
3, 42860, Note_on_c, 1, 67, 0
3, 42864, Note_on_c, 1, 69, 95
3, 42872, Note_on_c, 1, 69, 0
3, 42876, Note_on_c, 1, 71, 95
3, 42884, Note_on_c, 1, 71, 0
3, 42888, Note_on_c, 1, 73, 95
3, 42896, Note_on_c, 1, 73, 0
3, 42900, Note_on_c, 1, 69, 95
3, 42908, Note_on_c, 1, 69, 0
3, 42912, Note_on_c, 1, 74, 95
3, 42920, Note_on_c, 1, 74, 0
3, 42924, Note_on_c, 1, 74, 95
3, 42932, Note_on_c, 1, 74, 0
3, 42936, Note_on_c, 1, 73, 95
3, 42944, Note_on_c, 1, 73, 0
3, 42948, Note_on_c, 1, 73, 95
3, 42956, Note_on_c, 1, 73, 0
3, 42960, Note_on_c, 1, 76, 95
3, 42968, Note_on_c, 1, 76, 0
3, 42972, Note_on_c, 1, 76, 95
3, 42980, Note_on_c, 1, 76, 0
3, 42984, Note_on_c, 1, 74, 95
3, 42992, Note_on_c, 1, 74, 0
3, 42996, Note_on_c, 1, 74, 95
3, 43004, Note_on_c, 1, 74, 0
3, 43008, Note_on_c, 1, 79, 95
3, 43016, Note_on_c, 1, 79, 0
3, 43020, Note_on_c, 1, 79, 95
3, 43028, Note_on_c, 1, 79, 0
3, 43032, Note_on_c, 1, 78, 95
3, 43040, Note_on_c, 1, 78, 0
3, 43044, Note_on_c, 1, 78, 95
3, 43052, Note_on_c, 1, 78, 0
3, 43056, Note_on_c, 1, 83, 95
3, 43064, Note_on_c, 1, 83, 0
3, 43068, Note_on_c, 1, 83, 95
3, 43076, Note_on_c, 1, 83, 0
3, 43080, Note_on_c, 1, 81, 95
3, 43088, Note_on_c, 1, 81, 0
3, 43092, Note_on_c, 1, 81, 95
3, 43100, Note_on_c, 1, 81, 0
3, 43104, Note_on_c, 1, 79, 95
3, 43112, Note_on_c, 1, 79, 0
3, 43116, Note_on_c, 1, 78, 95
3, 43124, Note_on_c, 1, 78, 0
3, 43128, Note_on_c, 1, 76, 95
3, 43136, Note_on_c, 1, 76, 0
3, 43140, Note_on_c, 1, 74, 95
3, 43148, Note_on_c, 1, 74, 0
3, 43152, Note_on_c, 1, 76, 95
3, 43168, Note_on_c, 1, 76, 0
3, 43176, Note_on_c, 1, 69, 95
3, 43184, Note_on_c, 1, 69, 0
3, 43188, Note_on_c, 1, 71, 95
3, 43196, Note_on_c, 1, 71, 0
3, 43200, Note_on_c, 1, 72, 95
3, 43208, Note_on_c, 1, 72, 0
3, 43212, Note_on_c, 1, 69, 95
3, 43220, Note_on_c, 1, 69, 0
3, 43224, Note_on_c, 1, 71, 95
3, 43232, Note_on_c, 1, 71, 0
3, 43236, Note_on_c, 1, 74, 95
3, 43244, Note_on_c, 1, 74, 0
3, 43248, Note_on_c, 1, 73, 95
3, 43256, Note_on_c, 1, 73, 0
3, 43260, Note_on_c, 1, 76, 95
3, 43268, Note_on_c, 1, 76, 0
3, 43272, Note_on_c, 1, 69, 95
3, 43280, Note_on_c, 1, 69, 0
3, 43284, Note_on_c, 1, 67, 95
3, 43292, Note_on_c, 1, 67, 0
3, 43296, Note_on_c, 1, 66, 95
3, 43304, Note_on_c, 1, 66, 0
3, 43308, Note_on_c, 1, 62, 95
3, 43316, Note_on_c, 1, 62, 0
3, 43320, Note_on_c, 1, 64, 95
3, 43328, Note_on_c, 1, 64, 0
3, 43332, Note_on_c, 1, 67, 95
3, 43340, Note_on_c, 1, 67, 0
3, 43344, Note_on_c, 1, 66, 95
3, 43352, Note_on_c, 1, 66, 0
3, 43356, Note_on_c, 1, 69, 95
3, 43364, Note_on_c, 1, 69, 0
3, 43368, Note_on_c, 1, 62, 95
3, 43376, Note_on_c, 1, 62, 0
3, 43380, Note_on_c, 1, 61, 95
3, 43388, Note_on_c, 1, 61, 0
3, 43392, Note_on_c, 1, 59, 95
3, 43400, Note_on_c, 1, 59, 0
3, 43404, Note_on_c, 1, 67, 95
3, 43412, Note_on_c, 1, 67, 0
3, 43416, Note_on_c, 1, 66, 95
3, 43424, Note_on_c, 1, 66, 0
3, 43428, Note_on_c, 1, 64, 95
3, 43436, Note_on_c, 1, 64, 0
3, 43440, Note_on_c, 1, 64, 95
3, 43464, Note_on_c, 1, 64, 0
3, 43476, Note_on_c, 1, 62, 95
3, 43484, Note_on_c, 1, 62, 0
3, 43488, Note_on_c, 1, 62, 95
3, 43536, Note_on_c, 1, 62, 0
3, 43536, End_track
4, 0, Start_track
4, 0, Title_t, "2nd Violin"
4, 0, Control_c, 2, 10, 108
4, 0, Control_c, 2, 7, 96
4, 0, Pitch_bend_c, 2, 8192
4, 0, Control_c, 2, 1, 0
4, 0, Program_c, 2, 53
4, 0, Control_c, 2, 64, 0
4, 0, Note_on_c, 2, 62, 95
4, 8, Note_on_c, 2, 62, 0
4, 12, Note_on_c, 2, 62, 95
4, 20, Note_on_c, 2, 62, 0
4, 24, Note_on_c, 2, 66, 95
4, 32, Note_on_c, 2, 66, 0
4, 36, Note_on_c, 2, 66, 95
4, 44, Note_on_c, 2, 66, 0
4, 48, Note_on_c, 2, 69, 95
4, 56, Note_on_c, 2, 69, 0
4, 60, Note_on_c, 2, 69, 95
4, 68, Note_on_c, 2, 69, 0
4, 72, Note_on_c, 2, 74, 95
4, 80, Note_on_c, 2, 74, 0
4, 84, Note_on_c, 2, 74, 95
4, 92, Note_on_c, 2, 74, 0
4, 96, Note_on_c, 2, 73, 95
4, 104, Note_on_c, 2, 73, 0
4, 108, Note_on_c, 2, 74, 95
4, 116, Note_on_c, 2, 74, 0
4, 120, Note_on_c, 2, 73, 95
4, 128, Note_on_c, 2, 73, 0
4, 132, Note_on_c, 2, 71, 95
4, 140, Note_on_c, 2, 71, 0
4, 144, Note_on_c, 2, 69, 95
4, 152, Note_on_c, 2, 69, 0
4, 156, Note_on_c, 2, 67, 95
4, 164, Note_on_c, 2, 67, 0
4, 168, Note_on_c, 2, 66, 95
4, 176, Note_on_c, 2, 66, 0
4, 180, Note_on_c, 2, 64, 95
4, 188, Note_on_c, 2, 64, 0
4, 192, Control_c, 2, 7, 96
4, 192, Pitch_bend_c, 2, 8192
4, 192, Control_c, 2, 1, 0
4, 192, Control_c, 2, 64, 0
4, 192, Note_on_c, 2, 62, 95
4, 200, Note_on_c, 2, 62, 0
4, 204, Note_on_c, 2, 62, 95
4, 212, Note_on_c, 2, 62, 0
4, 216, Note_on_c, 2, 66, 95
4, 224, Note_on_c, 2, 66, 0
4, 228, Note_on_c, 2, 66, 95
4, 236, Note_on_c, 2, 66, 0
4, 240, Note_on_c, 2, 69, 95
4, 248, Note_on_c, 2, 69, 0
4, 252, Note_on_c, 2, 69, 95
4, 260, Note_on_c, 2, 69, 0
4, 264, Note_on_c, 2, 74, 95
4, 272, Note_on_c, 2, 74, 0
4, 276, Note_on_c, 2, 74, 95
4, 284, Note_on_c, 2, 74, 0
4, 288, Note_on_c, 2, 76, 95
4, 304, Note_on_c, 2, 76, 0
4, 312, Note_on_c, 2, 69, 95
4, 328, Note_on_c, 2, 69, 0
4, 360, Note_on_c, 2, 76, 95
4, 376, Note_on_c, 2, 76, 0
4, 384, Note_on_c, 2, 78, 95
4, 392, Note_on_c, 2, 78, 0
4, 396, Note_on_c, 2, 78, 95
4, 404, Note_on_c, 2, 78, 0
4, 408, Note_on_c, 2, 76, 95
4, 416, Note_on_c, 2, 76, 0
4, 420, Note_on_c, 2, 76, 95
4, 428, Note_on_c, 2, 76, 0
4, 432, Note_on_c, 2, 79, 95
4, 440, Note_on_c, 2, 79, 0
4, 444, Note_on_c, 2, 79, 95
4, 452, Note_on_c, 2, 79, 0
4, 456, Note_on_c, 2, 78, 95
4, 464, Note_on_c, 2, 78, 0
4, 468, Note_on_c, 2, 78, 95
4, 476, Note_on_c, 2, 78, 0
4, 480, Note_on_c, 2, 83, 95
4, 488, Note_on_c, 2, 83, 0
4, 492, Note_on_c, 2, 83, 95
4, 500, Note_on_c, 2, 83, 0
4, 504, Note_on_c, 2, 81, 95
4, 512, Note_on_c, 2, 81, 0
4, 516, Note_on_c, 2, 81, 95
4, 524, Note_on_c, 2, 81, 0
4, 528, Note_on_c, 2, 73, 95
4, 536, Note_on_c, 2, 73, 0
4, 540, Note_on_c, 2, 73, 95
4, 548, Note_on_c, 2, 73, 0
4, 552, Note_on_c, 2, 74, 95
4, 560, Note_on_c, 2, 74, 0
4, 564, Note_on_c, 2, 74, 95
4, 572, Note_on_c, 2, 74, 0
4, 576, Note_on_c, 2, 67, 95
4, 584, Note_on_c, 2, 67, 0
4, 588, Note_on_c, 2, 67, 95
4, 596, Note_on_c, 2, 67, 0
4, 600, Note_on_c, 2, 66, 95
4, 608, Note_on_c, 2, 66, 0
4, 612, Note_on_c, 2, 66, 95
4, 620, Note_on_c, 2, 66, 0
4, 624, Note_on_c, 2, 71, 95
4, 632, Note_on_c, 2, 71, 0
4, 636, Note_on_c, 2, 71, 95
4, 644, Note_on_c, 2, 71, 0
4, 648, Note_on_c, 2, 69, 95
4, 656, Note_on_c, 2, 69, 0
4, 660, Note_on_c, 2, 69, 95
4, 668, Note_on_c, 2, 69, 0
4, 672, Note_on_c, 2, 61, 95
4, 680, Note_on_c, 2, 61, 0
4, 684, Note_on_c, 2, 61, 95
4, 692, Note_on_c, 2, 61, 0
4, 696, Note_on_c, 2, 62, 95
4, 704, Note_on_c, 2, 62, 0
4, 708, Note_on_c, 2, 62, 95
4, 716, Note_on_c, 2, 62, 0
4, 720, Note_on_c, 2, 57, 95
4, 728, Note_on_c, 2, 57, 0
4, 732, Note_on_c, 2, 57, 95
4, 740, Note_on_c, 2, 57, 0
4, 744, Note_on_c, 2, 67, 95
4, 752, Note_on_c, 2, 67, 0
4, 756, Note_on_c, 2, 67, 95
4, 764, Note_on_c, 2, 67, 0
4, 768, Note_on_c, 2, 66, 95
4, 776, Note_on_c, 2, 66, 0
4, 780, Note_on_c, 2, 64, 95
4, 788, Note_on_c, 2, 64, 0
4, 792, Note_on_c, 2, 66, 95
4, 800, Note_on_c, 2, 66, 0
4, 804, Note_on_c, 2, 62, 95
4, 812, Note_on_c, 2, 62, 0
4, 816, Note_on_c, 2, 64, 95
4, 824, Note_on_c, 2, 64, 0
4, 828, Note_on_c, 2, 64, 95
4, 836, Note_on_c, 2, 64, 0
4, 840, Note_on_c, 2, 57, 95
4, 848, Note_on_c, 2, 57, 0
4, 852, Note_on_c, 2, 57, 95
4, 860, Note_on_c, 2, 57, 0
4, 864, Note_on_c, 2, 62, 95
4, 872, Note_on_c, 2, 62, 0
4, 876, Note_on_c, 2, 64, 95
4, 884, Note_on_c, 2, 64, 0
4, 888, Note_on_c, 2, 66, 95
4, 896, Note_on_c, 2, 66, 0
4, 900, Note_on_c, 2, 67, 95
4, 908, Note_on_c, 2, 67, 0
4, 912, Note_on_c, 2, 69, 95
4, 920, Note_on_c, 2, 69, 0
4, 924, Note_on_c, 2, 71, 95
4, 932, Note_on_c, 2, 71, 0
4, 936, Note_on_c, 2, 73, 95
4, 944, Note_on_c, 2, 73, 0
4, 948, Note_on_c, 2, 69, 95
4, 956, Note_on_c, 2, 69, 0
4, 960, Note_on_c, 2, 74, 95
4, 968, Note_on_c, 2, 74, 0
4, 972, Note_on_c, 2, 74, 95
4, 980, Note_on_c, 2, 74, 0
4, 984, Note_on_c, 2, 73, 95
4, 992, Note_on_c, 2, 73, 0
4, 996, Note_on_c, 2, 73, 95
4, 1004, Note_on_c, 2, 73, 0
4, 1008, Note_on_c, 2, 76, 95
4, 1016, Note_on_c, 2, 76, 0
4, 1020, Note_on_c, 2, 76, 95
4, 1028, Note_on_c, 2, 76, 0
4, 1032, Note_on_c, 2, 74, 95
4, 1040, Note_on_c, 2, 74, 0
4, 1044, Note_on_c, 2, 74, 95
4, 1052, Note_on_c, 2, 74, 0
4, 1056, Note_on_c, 2, 79, 95
4, 1064, Note_on_c, 2, 79, 0
4, 1068, Note_on_c, 2, 79, 95
4, 1076, Note_on_c, 2, 79, 0
4, 1080, Note_on_c, 2, 78, 95
4, 1088, Note_on_c, 2, 78, 0
4, 1092, Note_on_c, 2, 78, 95
4, 1100, Note_on_c, 2, 78, 0
4, 1104, Note_on_c, 2, 83, 95
4, 1112, Note_on_c, 2, 83, 0
4, 1116, Note_on_c, 2, 83, 95
4, 1124, Note_on_c, 2, 83, 0
4, 1128, Note_on_c, 2, 81, 95
4, 1136, Note_on_c, 2, 81, 0
4, 1140, Note_on_c, 2, 81, 95
4, 1148, Note_on_c, 2, 81, 0
4, 1152, Note_on_c, 2, 79, 95
4, 1160, Note_on_c, 2, 79, 0
4, 1164, Note_on_c, 2, 78, 95
4, 1172, Note_on_c, 2, 78, 0
4, 1176, Note_on_c, 2, 76, 95
4, 1184, Note_on_c, 2, 76, 0
4, 1188, Note_on_c, 2, 74, 95
4, 1196, Note_on_c, 2, 74, 0
4, 1200, Note_on_c, 2, 76, 95
4, 1216, Note_on_c, 2, 76, 0
4, 1224, Note_on_c, 2, 69, 95
4, 1232, Note_on_c, 2, 69, 0
4, 1236, Note_on_c, 2, 71, 95
4, 1244, Note_on_c, 2, 71, 0
4, 1248, Note_on_c, 2, 72, 95
4, 1256, Note_on_c, 2, 72, 0
4, 1260, Note_on_c, 2, 69, 95
4, 1268, Note_on_c, 2, 69, 0
4, 1272, Note_on_c, 2, 71, 95
4, 1280, Note_on_c, 2, 71, 0
4, 1284, Note_on_c, 2, 74, 95
4, 1292, Note_on_c, 2, 74, 0
4, 1296, Note_on_c, 2, 73, 95
4, 1304, Note_on_c, 2, 73, 0
4, 1308, Note_on_c, 2, 76, 95
4, 1316, Note_on_c, 2, 76, 0
4, 1320, Note_on_c, 2, 69, 95
4, 1328, Note_on_c, 2, 69, 0
4, 1332, Note_on_c, 2, 67, 95
4, 1340, Note_on_c, 2, 67, 0
4, 1344, Note_on_c, 2, 66, 95
4, 1352, Note_on_c, 2, 66, 0
4, 1356, Note_on_c, 2, 62, 95
4, 1364, Note_on_c, 2, 62, 0
4, 1368, Note_on_c, 2, 64, 95
4, 1376, Note_on_c, 2, 64, 0
4, 1380, Note_on_c, 2, 67, 95
4, 1388, Note_on_c, 2, 67, 0
4, 1392, Note_on_c, 2, 66, 95
4, 1400, Note_on_c, 2, 66, 0
4, 1404, Note_on_c, 2, 69, 95
4, 1412, Note_on_c, 2, 69, 0
4, 1416, Note_on_c, 2, 62, 95
4, 1424, Note_on_c, 2, 62, 0
4, 1428, Note_on_c, 2, 61, 95
4, 1436, Note_on_c, 2, 61, 0
4, 1440, Note_on_c, 2, 59, 95
4, 1448, Note_on_c, 2, 59, 0
4, 1452, Note_on_c, 2, 67, 95
4, 1460, Note_on_c, 2, 67, 0
4, 1464, Note_on_c, 2, 66, 95
4, 1472, Note_on_c, 2, 66, 0
4, 1476, Note_on_c, 2, 64, 95
4, 1484, Note_on_c, 2, 64, 0
4, 1488, Note_on_c, 2, 64, 95
4, 1512, Note_on_c, 2, 64, 0
4, 1524, Note_on_c, 2, 62, 95
4, 1532, Note_on_c, 2, 62, 0
4, 1536, Note_on_c, 2, 62, 95
4, 1552, Note_on_c, 2, 62, 0
4, 1824, Note_on_c, 2, 62, 47
4, 1832, Note_on_c, 2, 62, 0
4, 1836, Note_on_c, 2, 62, 47
4, 1844, Note_on_c, 2, 62, 0
4, 1848, Note_on_c, 2, 66, 47
4, 1856, Note_on_c, 2, 66, 0
4, 1860, Note_on_c, 2, 66, 47
4, 1868, Note_on_c, 2, 66, 0
4, 1872, Note_on_c, 2, 69, 47
4, 1880, Note_on_c, 2, 69, 0
4, 1884, Note_on_c, 2, 69, 47
4, 1892, Note_on_c, 2, 69, 0
4, 1896, Note_on_c, 2, 74, 47
4, 1904, Note_on_c, 2, 74, 0
4, 1908, Note_on_c, 2, 74, 47
4, 1916, Note_on_c, 2, 74, 0
4, 1920, Note_on_c, 2, 73, 47
4, 1928, Note_on_c, 2, 73, 0
4, 1932, Note_on_c, 2, 74, 47
4, 1940, Note_on_c, 2, 74, 0
4, 1944, Note_on_c, 2, 73, 47
4, 1952, Note_on_c, 2, 73, 0
4, 1956, Note_on_c, 2, 71, 47
4, 1964, Note_on_c, 2, 71, 0
4, 1968, Note_on_c, 2, 69, 47
4, 1976, Note_on_c, 2, 69, 0
4, 1980, Note_on_c, 2, 67, 47
4, 1988, Note_on_c, 2, 67, 0
4, 1992, Note_on_c, 2, 66, 47
4, 2000, Note_on_c, 2, 66, 0
4, 2004, Note_on_c, 2, 64, 47
4, 2012, Note_on_c, 2, 64, 0
4, 2016, Note_on_c, 2, 62, 47
4, 2032, Note_on_c, 2, 62, 0
4, 2304, Note_on_c, 2, 62, 47
4, 2312, Note_on_c, 2, 62, 0
4, 2316, Note_on_c, 2, 62, 47
4, 2324, Note_on_c, 2, 62, 0
4, 2328, Note_on_c, 2, 66, 47
4, 2336, Note_on_c, 2, 66, 0
4, 2340, Note_on_c, 2, 66, 47
4, 2348, Note_on_c, 2, 66, 0
4, 2352, Note_on_c, 2, 69, 47
4, 2360, Note_on_c, 2, 69, 0
4, 2364, Note_on_c, 2, 69, 47
4, 2372, Note_on_c, 2, 69, 0
4, 2376, Note_on_c, 2, 74, 47
4, 2384, Note_on_c, 2, 74, 0
4, 2388, Note_on_c, 2, 74, 47
4, 2396, Note_on_c, 2, 74, 0
4, 2400, Note_on_c, 2, 76, 47
4, 2416, Note_on_c, 2, 76, 0
4, 2424, Note_on_c, 2, 69, 47
4, 2440, Note_on_c, 2, 69, 0
4, 3456, Program_c, 2, 49
4, 3456, Note_on_c, 2, 57, 95
4, 3464, Note_on_c, 2, 57, 0
4, 3468, Note_on_c, 2, 57, 95
4, 3476, Note_on_c, 2, 57, 0
4, 3480, Note_on_c, 2, 61, 95
4, 3488, Note_on_c, 2, 61, 0
4, 3492, Note_on_c, 2, 61, 95
4, 3500, Note_on_c, 2, 61, 0
4, 3504, Note_on_c, 2, 64, 95
4, 3512, Note_on_c, 2, 64, 0
4, 3516, Note_on_c, 2, 64, 95
4, 3524, Note_on_c, 2, 64, 0
4, 3528, Note_on_c, 2, 69, 95
4, 3536, Note_on_c, 2, 69, 0
4, 3540, Note_on_c, 2, 69, 95
4, 3548, Note_on_c, 2, 69, 0
4, 3552, Note_on_c, 2, 68, 95
4, 3560, Note_on_c, 2, 68, 0
4, 3564, Note_on_c, 2, 69, 95
4, 3572, Note_on_c, 2, 69, 0
4, 3576, Note_on_c, 2, 68, 95
4, 3584, Note_on_c, 2, 68, 0
4, 3588, Note_on_c, 2, 66, 95
4, 3596, Note_on_c, 2, 66, 0
4, 3600, Note_on_c, 2, 64, 95
4, 3608, Note_on_c, 2, 64, 0
4, 3612, Note_on_c, 2, 62, 95
4, 3620, Note_on_c, 2, 62, 0
4, 3624, Note_on_c, 2, 61, 95
4, 3632, Note_on_c, 2, 61, 0
4, 3636, Note_on_c, 2, 59, 95
4, 3644, Note_on_c, 2, 59, 0
4, 3648, Note_on_c, 2, 57, 95
4, 3656, Note_on_c, 2, 57, 0
4, 3660, Note_on_c, 2, 57, 95
4, 3668, Note_on_c, 2, 57, 0
4, 3672, Note_on_c, 2, 61, 95
4, 3680, Note_on_c, 2, 61, 0
4, 3684, Note_on_c, 2, 61, 95
4, 3692, Note_on_c, 2, 61, 0
4, 3696, Note_on_c, 2, 64, 95
4, 3704, Note_on_c, 2, 64, 0
4, 3708, Note_on_c, 2, 64, 95
4, 3716, Note_on_c, 2, 64, 0
4, 3720, Note_on_c, 2, 69, 95
4, 3728, Note_on_c, 2, 69, 0
4, 3732, Note_on_c, 2, 69, 95
4, 3740, Note_on_c, 2, 69, 0
4, 3744, Note_on_c, 2, 71, 95
4, 3760, Note_on_c, 2, 71, 0
4, 3768, Note_on_c, 2, 64, 95
4, 3784, Note_on_c, 2, 64, 0
4, 3816, Note_on_c, 2, 76, 31
4, 3832, Note_on_c, 2, 76, 0
4, 3840, Note_on_c, 2, 73, 31
4, 3856, Note_on_c, 2, 73, 0
4, 3912, Note_on_c, 2, 81, 31
4, 3928, Note_on_c, 2, 81, 0
4, 3936, Note_on_c, 2, 78, 31
4, 3952, Note_on_c, 2, 78, 0
4, 4008, Note_on_c, 2, 78, 31
4, 4024, Note_on_c, 2, 78, 0
4, 4032, Note_on_c, 2, 74, 31
4, 4048, Note_on_c, 2, 74, 0
4, 4152, Note_on_c, 2, 71, 31
4, 4168, Note_on_c, 2, 71, 0
4, 4176, Note_on_c, 2, 73, 31
4, 4192, Note_on_c, 2, 73, 0
4, 4200, Note_on_c, 2, 71, 31
4, 4216, Note_on_c, 2, 71, 0
4, 4224, Note_on_c, 2, 69, 31
4, 4240, Note_on_c, 2, 69, 0
4, 4296, Note_on_c, 2, 78, 31
4, 4312, Note_on_c, 2, 78, 0
4, 4320, Note_on_c, 2, 74, 31
4, 4336, Note_on_c, 2, 74, 0
4, 4392, Note_on_c, 2, 78, 31
4, 4408, Note_on_c, 2, 78, 0
4, 4416, Note_on_c, 2, 71, 31
4, 4432, Note_on_c, 2, 71, 0
4, 4536, Note_on_c, 2, 68, 31
4, 4552, Note_on_c, 2, 68, 0
4, 4560, Note_on_c, 2, 69, 31
4, 4576, Note_on_c, 2, 69, 0
4, 4584, Note_on_c, 2, 67, 31
4, 4600, Note_on_c, 2, 67, 0
4, 4608, Note_on_c, 2, 66, 31
4, 4624, Note_on_c, 2, 66, 0
4, 4680, Note_on_c, 2, 74, 31
4, 4696, Note_on_c, 2, 74, 0
4, 4704, Note_on_c, 2, 71, 31
4, 4720, Note_on_c, 2, 71, 0
4, 4776, Note_on_c, 2, 74, 31
4, 4792, Note_on_c, 2, 74, 0
4, 4800, Note_on_c, 2, 73, 31
4, 4816, Note_on_c, 2, 73, 0
4, 4920, Note_on_c, 2, 76, 31
4, 4936, Note_on_c, 2, 76, 0
4, 4944, Note_on_c, 2, 78, 31
4, 4960, Note_on_c, 2, 78, 0
4, 4968, Note_on_c, 2, 79, 31
4, 4984, Note_on_c, 2, 79, 0
4, 4992, Note_on_c, 2, 78, 31
4, 5008, Note_on_c, 2, 78, 0
4, 5352, Note_on_c, 2, 71, 95
4, 5368, Note_on_c, 2, 71, 0
4, 5376, Control_c, 2, 10, 27
4, 5376, Note_on_c, 2, 73, 95
4, 5388, Note_on_c, 2, 73, 0
4, 5388, Note_on_c, 2, 73, 95
4, 5400, Note_on_c, 2, 73, 0
4, 5400, Note_on_c, 2, 71, 95
4, 5412, Note_on_c, 2, 71, 0
4, 5412, Note_on_c, 2, 71, 95
4, 5424, Note_on_c, 2, 71, 0
4, 5424, Note_on_c, 2, 74, 95
4, 5436, Note_on_c, 2, 74, 0
4, 5436, Note_on_c, 2, 74, 95
4, 5448, Note_on_c, 2, 74, 0
4, 5448, Note_on_c, 2, 73, 95
4, 5460, Note_on_c, 2, 73, 0
4, 5460, Note_on_c, 2, 73, 95
4, 5472, Note_on_c, 2, 73, 0
4, 5472, Note_on_c, 2, 78, 95
4, 5484, Note_on_c, 2, 78, 0
4, 5484, Note_on_c, 2, 78, 95
4, 5496, Note_on_c, 2, 78, 0
4, 5496, Note_on_c, 2, 76, 95
4, 5508, Note_on_c, 2, 76, 0
4, 5508, Note_on_c, 2, 76, 95
4, 5520, Note_on_c, 2, 76, 0
4, 5520, Note_on_c, 2, 68, 95
4, 5532, Note_on_c, 2, 68, 0
4, 5532, Note_on_c, 2, 68, 95
4, 5544, Note_on_c, 2, 68, 0
4, 5544, Note_on_c, 2, 69, 95
4, 5556, Note_on_c, 2, 69, 0
4, 5556, Note_on_c, 2, 69, 95
4, 5568, Note_on_c, 2, 69, 0
4, 5568, Note_on_c, 2, 62, 95
4, 5580, Note_on_c, 2, 62, 0
4, 5580, Note_on_c, 2, 62, 95
4, 5592, Note_on_c, 2, 62, 0
4, 5592, Note_on_c, 2, 61, 95
4, 5604, Note_on_c, 2, 61, 0
4, 5604, Note_on_c, 2, 61, 95
4, 5616, Note_on_c, 2, 61, 0
4, 5616, Note_on_c, 2, 66, 95
4, 5628, Note_on_c, 2, 66, 0
4, 5628, Note_on_c, 2, 66, 95
4, 5640, Note_on_c, 2, 66, 0
4, 5640, Note_on_c, 2, 64, 95
4, 5652, Note_on_c, 2, 64, 0
4, 5652, Note_on_c, 2, 64, 95
4, 5664, Note_on_c, 2, 64, 0
4, 5664, Note_on_c, 2, 56, 95
4, 5676, Note_on_c, 2, 56, 0
4, 5676, Note_on_c, 2, 56, 95
4, 5688, Note_on_c, 2, 56, 0
4, 5688, Note_on_c, 2, 57, 95
4, 5700, Note_on_c, 2, 57, 0
4, 5700, Note_on_c, 2, 57, 95
4, 5712, Note_on_c, 2, 57, 0
4, 5712, Note_on_c, 2, 62, 95
4, 5724, Note_on_c, 2, 62, 0
4, 5724, Note_on_c, 2, 62, 95
4, 5736, Note_on_c, 2, 62, 0
4, 5736, Note_on_c, 2, 71, 95
4, 5748, Note_on_c, 2, 71, 0
4, 5748, Note_on_c, 2, 71, 95
4, 5760, Note_on_c, 2, 71, 0
4, 5760, Note_on_c, 2, 61, 95
4, 5772, Note_on_c, 2, 61, 0
4, 5772, Note_on_c, 2, 61, 95
4, 5784, Note_on_c, 2, 61, 0
4, 5784, Note_on_c, 2, 69, 95
4, 5796, Note_on_c, 2, 69, 0
4, 5796, Note_on_c, 2, 69, 95
4, 5808, Note_on_c, 2, 69, 0
4, 5808, Note_on_c, 2, 59, 95
4, 5820, Note_on_c, 2, 59, 0
4, 5820, Note_on_c, 2, 59, 95
4, 5832, Note_on_c, 2, 59, 0
4, 5832, Note_on_c, 2, 68, 95
4, 5844, Note_on_c, 2, 68, 0
4, 5844, Note_on_c, 2, 68, 95
4, 5856, Note_on_c, 2, 68, 0
4, 5856, Note_on_c, 2, 69, 95
4, 5880, Note_on_c, 2, 69, 0
4, 6024, Note_on_c, 2, 69, 47
4, 6040, Note_on_c, 2, 69, 0
4, 6048, Note_on_c, 2, 71, 47
4, 6064, Note_on_c, 2, 71, 0
4, 6072, Note_on_c, 2, 72, 47
4, 6088, Note_on_c, 2, 72, 0
4, 6096, Note_on_c, 2, 74, 47
4, 6112, Note_on_c, 2, 74, 0
4, 6216, Note_on_c, 2, 76, 47
4, 6232, Note_on_c, 2, 76, 0
4, 6240, Note_on_c, 2, 70, 47
4, 6256, Note_on_c, 2, 70, 0
4, 6264, Note_on_c, 2, 73, 47
4, 6272, Note_on_c, 2, 73, 0
4, 6276, Note_on_c, 2, 71, 47
4, 6284, Note_on_c, 2, 71, 0
4, 6288, Note_on_c, 2, 73, 47
4, 6304, Note_on_c, 2, 73, 0
4, 6408, Note_on_c, 2, 66, 47
4, 6424, Note_on_c, 2, 66, 0
4, 6432, Note_on_c, 2, 67, 47
4, 6448, Note_on_c, 2, 67, 0
4, 6456, Note_on_c, 2, 71, 47
4, 6472, Note_on_c, 2, 71, 0
4, 6480, Note_on_c, 2, 64, 47
4, 6512, Note_on_c, 2, 64, 0
4, 6528, Note_on_c, 2, 64, 47
4, 6536, Note_on_c, 2, 64, 0
4, 6540, Note_on_c, 2, 64, 47
4, 6548, Note_on_c, 2, 64, 0
4, 6552, Note_on_c, 2, 70, 47
4, 6560, Note_on_c, 2, 70, 0
4, 6564, Note_on_c, 2, 70, 47
4, 6572, Note_on_c, 2, 70, 0
4, 6576, Note_on_c, 2, 73, 47
4, 6584, Note_on_c, 2, 73, 0
4, 6588, Note_on_c, 2, 73, 47
4, 6596, Note_on_c, 2, 73, 0
4, 6600, Note_on_c, 2, 78, 47
4, 6608, Note_on_c, 2, 78, 0
4, 6612, Note_on_c, 2, 78, 47
4, 6620, Note_on_c, 2, 78, 0
4, 6624, Note_on_c, 2, 74, 47
4, 6640, Note_on_c, 2, 74, 0
4, 6648, Note_on_c, 2, 71, 47
4, 6664, Note_on_c, 2, 71, 0
4, 6720, Note_on_c, 2, 64, 47
4, 6728, Note_on_c, 2, 64, 0
4, 6732, Note_on_c, 2, 64, 47
4, 6740, Note_on_c, 2, 64, 0
4, 6744, Note_on_c, 2, 67, 47
4, 6752, Note_on_c, 2, 67, 0
4, 6756, Note_on_c, 2, 67, 47
4, 6764, Note_on_c, 2, 67, 0
4, 6768, Note_on_c, 2, 71, 47
4, 6776, Note_on_c, 2, 71, 0
4, 6780, Note_on_c, 2, 71, 47
4, 6788, Note_on_c, 2, 71, 0
4, 6792, Note_on_c, 2, 76, 47
4, 6800, Note_on_c, 2, 76, 0
4, 6804, Note_on_c, 2, 76, 47
4, 6812, Note_on_c, 2, 76, 0
4, 6816, Note_on_c, 2, 73, 47
4, 6832, Note_on_c, 2, 73, 0
4, 6840, Note_on_c, 2, 64, 47
4, 6856, Note_on_c, 2, 64, 0
4, 6912, Note_on_c, 2, 59, 47
4, 6920, Note_on_c, 2, 59, 0
4, 6924, Note_on_c, 2, 59, 47
4, 6932, Note_on_c, 2, 59, 0
4, 6936, Note_on_c, 2, 62, 47
4, 6944, Note_on_c, 2, 62, 0
4, 6948, Note_on_c, 2, 62, 47
4, 6956, Note_on_c, 2, 62, 0
4, 6960, Note_on_c, 2, 66, 47
4, 6968, Note_on_c, 2, 66, 0
4, 6972, Note_on_c, 2, 66, 47
4, 6980, Note_on_c, 2, 66, 0
4, 6984, Note_on_c, 2, 71, 47
4, 6992, Note_on_c, 2, 71, 0
4, 6996, Note_on_c, 2, 71, 47
4, 7004, Note_on_c, 2, 71, 0
4, 7008, Note_on_c, 2, 64, 47
4, 7016, Note_on_c, 2, 64, 0
4, 7020, Note_on_c, 2, 64, 47
4, 7028, Note_on_c, 2, 64, 0
4, 7032, Note_on_c, 2, 67, 47
4, 7040, Note_on_c, 2, 67, 0
4, 7044, Note_on_c, 2, 67, 47
4, 7052, Note_on_c, 2, 67, 0
4, 7056, Note_on_c, 2, 71, 47
4, 7064, Note_on_c, 2, 71, 0
4, 7068, Note_on_c, 2, 71, 47
4, 7076, Note_on_c, 2, 71, 0
4, 7080, Note_on_c, 2, 76, 47
4, 7088, Note_on_c, 2, 76, 0
4, 7092, Note_on_c, 2, 76, 47
4, 7100, Note_on_c, 2, 76, 0
4, 7104, Note_on_c, 2, 61, 47
4, 7136, Note_on_c, 2, 61, 0
4, 7392, Note_on_c, 2, 59, 95
4, 7400, Note_on_c, 2, 59, 0
4, 7404, Note_on_c, 2, 61, 95
4, 7412, Note_on_c, 2, 61, 0
4, 7416, Note_on_c, 2, 62, 95
4, 7424, Note_on_c, 2, 62, 0
4, 7428, Note_on_c, 2, 64, 95
4, 7436, Note_on_c, 2, 64, 0
4, 7440, Note_on_c, 2, 66, 95
4, 7448, Note_on_c, 2, 66, 0
4, 7452, Note_on_c, 2, 68, 95
4, 7460, Note_on_c, 2, 68, 0
4, 7464, Note_on_c, 2, 70, 95
4, 7472, Note_on_c, 2, 70, 0
4, 7476, Note_on_c, 2, 66, 95
4, 7484, Note_on_c, 2, 66, 0
4, 7488, Note_on_c, 2, 71, 95
4, 7496, Note_on_c, 2, 71, 0
4, 7500, Note_on_c, 2, 71, 95
4, 7508, Note_on_c, 2, 71, 0
4, 7512, Note_on_c, 2, 70, 95
4, 7520, Note_on_c, 2, 70, 0
4, 7524, Note_on_c, 2, 70, 95
4, 7532, Note_on_c, 2, 70, 0
4, 7536, Note_on_c, 2, 74, 95
4, 7544, Note_on_c, 2, 74, 0
4, 7548, Note_on_c, 2, 74, 95
4, 7556, Note_on_c, 2, 74, 0
4, 7560, Note_on_c, 2, 73, 95
4, 7568, Note_on_c, 2, 73, 0
4, 7572, Note_on_c, 2, 73, 95
4, 7580, Note_on_c, 2, 73, 0
4, 7584, Note_on_c, 2, 76, 95
4, 7592, Note_on_c, 2, 76, 0
4, 7596, Note_on_c, 2, 76, 95
4, 7604, Note_on_c, 2, 76, 0
4, 7608, Note_on_c, 2, 75, 95
4, 7616, Note_on_c, 2, 75, 0
4, 7620, Note_on_c, 2, 75, 95
4, 7628, Note_on_c, 2, 75, 0
4, 7632, Note_on_c, 2, 79, 95
4, 7640, Note_on_c, 2, 79, 0
4, 7644, Note_on_c, 2, 79, 95
4, 7652, Note_on_c, 2, 79, 0
4, 7656, Note_on_c, 2, 78, 95
4, 7664, Note_on_c, 2, 78, 0
4, 7668, Note_on_c, 2, 78, 95
4, 7676, Note_on_c, 2, 78, 0
4, 7680, Note_on_c, 2, 82, 95
4, 7692, Note_on_c, 2, 82, 0
4, 7692, Note_on_c, 2, 82, 95
4, 7704, Note_on_c, 2, 82, 0
4, 7704, Note_on_c, 2, 83, 95
4, 7716, Note_on_c, 2, 83, 0
4, 7716, Note_on_c, 2, 83, 95
4, 7728, Note_on_c, 2, 83, 0
4, 7728, Note_on_c, 2, 77, 95
4, 7740, Note_on_c, 2, 77, 0
4, 7740, Note_on_c, 2, 77, 95
4, 7752, Note_on_c, 2, 77, 0
4, 7752, Note_on_c, 2, 78, 95
4, 7764, Note_on_c, 2, 78, 0
4, 7764, Note_on_c, 2, 78, 95
4, 7776, Note_on_c, 2, 78, 0
4, 7776, Note_on_c, 2, 76, 95
4, 7788, Note_on_c, 2, 76, 0
4, 7788, Note_on_c, 2, 74, 95
4, 7800, Note_on_c, 2, 74, 0
4, 7800, Note_on_c, 2, 73, 95
4, 7812, Note_on_c, 2, 73, 0
4, 7812, Note_on_c, 2, 71, 95
4, 7824, Note_on_c, 2, 71, 0
4, 7824, Note_on_c, 2, 74, 95
4, 7836, Note_on_c, 2, 74, 0
4, 7836, Note_on_c, 2, 73, 95
4, 7848, Note_on_c, 2, 73, 0
4, 7848, Note_on_c, 2, 71, 95
4, 7860, Note_on_c, 2, 71, 0
4, 7860, Note_on_c, 2, 70, 95
4, 7872, Note_on_c, 2, 70, 0
4, 7872, Note_on_c, 2, 71, 95
4, 7920, Note_on_c, 2, 71, 0
4, 7968, Program_c, 2, 53
4, 8352, Note_on_c, 2, 64, 79
4, 8362, Note_on_c, 2, 64, 0
4, 8364, Note_on_c, 2, 64, 79
4, 8374, Note_on_c, 2, 64, 0
4, 8376, Note_on_c, 2, 67, 79
4, 8386, Note_on_c, 2, 67, 0
4, 8388, Note_on_c, 2, 67, 79
4, 8398, Note_on_c, 2, 67, 0
4, 8400, Note_on_c, 2, 71, 79
4, 8410, Note_on_c, 2, 71, 0
4, 8412, Note_on_c, 2, 71, 79
4, 8422, Note_on_c, 2, 71, 0
4, 8424, Note_on_c, 2, 76, 79
4, 8434, Note_on_c, 2, 76, 0
4, 8436, Note_on_c, 2, 76, 79
4, 8446, Note_on_c, 2, 76, 0
4, 8448, Note_on_c, 2, 73, 79
4, 8468, Note_on_c, 2, 73, 0
4, 8472, Note_on_c, 2, 69, 79
4, 8492, Note_on_c, 2, 69, 0
4, 8856, Note_on_c, 2, 71, 79
4, 8864, Note_on_c, 2, 71, 0
4, 8880, Note_on_c, 2, 61, 79
4, 8888, Note_on_c, 2, 61, 0
4, 8904, Note_on_c, 2, 64, 79
4, 8912, Note_on_c, 2, 64, 0
4, 8928, Note_on_c, 2, 66, 79
4, 8936, Note_on_c, 2, 66, 0
4, 8952, Note_on_c, 2, 69, 79
4, 8960, Note_on_c, 2, 69, 0
4, 8976, Note_on_c, 2, 59, 79
4, 8984, Note_on_c, 2, 59, 0
4, 9000, Note_on_c, 2, 62, 79
4, 9008, Note_on_c, 2, 62, 0
4, 9024, Note_on_c, 2, 64, 79
4, 9044, Note_on_c, 2, 64, 0
4, 9048, Note_on_c, 2, 67, 79
4, 9068, Note_on_c, 2, 67, 0
4, 9072, Note_on_c, 2, 57, 79
4, 9092, Note_on_c, 2, 57, 0
4, 9096, Note_on_c, 2, 61, 79
4, 9116, Note_on_c, 2, 61, 0
4, 9120, Note_on_c, 2, 62, 79
4, 9140, Note_on_c, 2, 62, 0
4, 9144, Note_on_c, 2, 69, 79
4, 9164, Note_on_c, 2, 69, 0
4, 9168, Note_on_c, 2, 66, 79
4, 9188, Note_on_c, 2, 66, 0
4, 9192, Note_on_c, 2, 62, 79
4, 9212, Note_on_c, 2, 62, 0
4, 9216, Note_on_c, 2, 57, 79
4, 9226, Note_on_c, 2, 57, 0
4, 9228, Note_on_c, 2, 57, 79
4, 9238, Note_on_c, 2, 57, 0
4, 9240, Note_on_c, 2, 61, 79
4, 9250, Note_on_c, 2, 61, 0
4, 9252, Note_on_c, 2, 61, 79
4, 9262, Note_on_c, 2, 61, 0
4, 9264, Note_on_c, 2, 64, 79
4, 9274, Note_on_c, 2, 64, 0
4, 9276, Note_on_c, 2, 64, 79
4, 9286, Note_on_c, 2, 64, 0
4, 9288, Note_on_c, 2, 69, 79
4, 9298, Note_on_c, 2, 69, 0
4, 9300, Note_on_c, 2, 69, 79
4, 9310, Note_on_c, 2, 69, 0
4, 9312, Note_on_c, 2, 62, 79
4, 9322, Note_on_c, 2, 62, 0
4, 9324, Note_on_c, 2, 62, 79
4, 9334, Note_on_c, 2, 62, 0
4, 9336, Note_on_c, 2, 66, 79
4, 9346, Note_on_c, 2, 66, 0
4, 9348, Note_on_c, 2, 66, 79
4, 9358, Note_on_c, 2, 66, 0
4, 9360, Note_on_c, 2, 69, 79
4, 9370, Note_on_c, 2, 69, 0
4, 9372, Note_on_c, 2, 69, 79
4, 9382, Note_on_c, 2, 69, 0
4, 9384, Note_on_c, 2, 74, 79
4, 9394, Note_on_c, 2, 74, 0
4, 9396, Note_on_c, 2, 74, 79
4, 9406, Note_on_c, 2, 74, 0
4, 9408, Note_on_c, 2, 76, 79
4, 9428, Note_on_c, 2, 76, 0
4, 9432, Note_on_c, 2, 69, 79
4, 9452, Note_on_c, 2, 69, 0
4, 9480, Note_on_c, 2, 69, 79
4, 9500, Note_on_c, 2, 69, 0
4, 9504, Note_on_c, 2, 66, 79
4, 9524, Note_on_c, 2, 66, 0
4, 9576, Note_on_c, 2, 74, 79
4, 9596, Note_on_c, 2, 74, 0
4, 9600, Note_on_c, 2, 71, 79
4, 9620, Note_on_c, 2, 71, 0
4, 9672, Note_on_c, 2, 71, 79
4, 9692, Note_on_c, 2, 71, 0
4, 9696, Note_on_c, 2, 67, 79
4, 9716, Note_on_c, 2, 67, 0
4, 9816, Note_on_c, 2, 73, 79
4, 9836, Note_on_c, 2, 73, 0
4, 9840, Note_on_c, 2, 74, 79
4, 9860, Note_on_c, 2, 74, 0
4, 9864, Note_on_c, 2, 76, 79
4, 9884, Note_on_c, 2, 76, 0
4, 9888, Note_on_c, 2, 74, 79
4, 9908, Note_on_c, 2, 74, 0
4, 9960, Note_on_c, 2, 83, 79
4, 9980, Note_on_c, 2, 83, 0
4, 9984, Note_on_c, 2, 79, 79
4, 10004, Note_on_c, 2, 79, 0
4, 10056, Note_on_c, 2, 83, 79
4, 10076, Note_on_c, 2, 83, 0
4, 10080, Note_on_c, 2, 76, 79
4, 10100, Note_on_c, 2, 76, 0
4, 10200, Note_on_c, 2, 73, 79
4, 10220, Note_on_c, 2, 73, 0
4, 10224, Note_on_c, 2, 74, 79
4, 10244, Note_on_c, 2, 74, 0
4, 10248, Note_on_c, 2, 72, 79
4, 10268, Note_on_c, 2, 72, 0
4, 10272, Note_on_c, 2, 71, 79
4, 10292, Note_on_c, 2, 71, 0
4, 10344, Note_on_c, 2, 79, 79
4, 10364, Note_on_c, 2, 79, 0
4, 10368, Note_on_c, 2, 76, 79
4, 10388, Note_on_c, 2, 76, 0
4, 10464, Note_on_c, 2, 79, 47
4, 10484, Note_on_c, 2, 79, 0
4, 10488, Note_on_c, 2, 78, 47
4, 10508, Note_on_c, 2, 78, 0
4, 10584, Note_on_c, 2, 69, 79
4, 10604, Note_on_c, 2, 69, 0
4, 10608, Note_on_c, 2, 71, 79
4, 10628, Note_on_c, 2, 71, 0
4, 10632, Note_on_c, 2, 72, 79
4, 10652, Note_on_c, 2, 72, 0
4, 10656, Note_on_c, 2, 71, 79
4, 10676, Note_on_c, 2, 71, 0
4, 11016, Note_on_c, 2, 76, 95
4, 11036, Note_on_c, 2, 76, 0
4, 11040, Note_on_c, 2, 78, 95
4, 11050, Note_on_c, 2, 78, 0
4, 11052, Note_on_c, 2, 78, 95
4, 11062, Note_on_c, 2, 78, 0
4, 11064, Note_on_c, 2, 76, 95
4, 11074, Note_on_c, 2, 76, 0
4, 11076, Note_on_c, 2, 76, 95
4, 11086, Note_on_c, 2, 76, 0
4, 11088, Note_on_c, 2, 79, 95
4, 11098, Note_on_c, 2, 79, 0
4, 11100, Note_on_c, 2, 79, 95
4, 11110, Note_on_c, 2, 79, 0
4, 11112, Note_on_c, 2, 78, 95
4, 11122, Note_on_c, 2, 78, 0
4, 11124, Note_on_c, 2, 78, 95
4, 11134, Note_on_c, 2, 78, 0
4, 11136, Note_on_c, 2, 83, 95
4, 11146, Note_on_c, 2, 83, 0
4, 11148, Note_on_c, 2, 83, 95
4, 11158, Note_on_c, 2, 83, 0
4, 11160, Note_on_c, 2, 81, 95
4, 11170, Note_on_c, 2, 81, 0
4, 11172, Note_on_c, 2, 81, 95
4, 11182, Note_on_c, 2, 81, 0
4, 11184, Note_on_c, 2, 73, 95
4, 11194, Note_on_c, 2, 73, 0
4, 11196, Note_on_c, 2, 73, 95
4, 11206, Note_on_c, 2, 73, 0
4, 11208, Note_on_c, 2, 74, 95
4, 11218, Note_on_c, 2, 74, 0
4, 11220, Note_on_c, 2, 74, 95
4, 11230, Note_on_c, 2, 74, 0
4, 11232, Note_on_c, 2, 67, 95
4, 11242, Note_on_c, 2, 67, 0
4, 11244, Note_on_c, 2, 67, 95
4, 11254, Note_on_c, 2, 67, 0
4, 11256, Note_on_c, 2, 66, 95
4, 11266, Note_on_c, 2, 66, 0
4, 11268, Note_on_c, 2, 66, 95
4, 11278, Note_on_c, 2, 66, 0
4, 11280, Note_on_c, 2, 71, 95
4, 11290, Note_on_c, 2, 71, 0
4, 11292, Note_on_c, 2, 71, 95
4, 11302, Note_on_c, 2, 71, 0
4, 11304, Note_on_c, 2, 69, 95
4, 11314, Note_on_c, 2, 69, 0
4, 11316, Note_on_c, 2, 69, 95
4, 11326, Note_on_c, 2, 69, 0
4, 11328, Note_on_c, 2, 61, 95
4, 11338, Note_on_c, 2, 61, 0
4, 11340, Note_on_c, 2, 61, 95
4, 11350, Note_on_c, 2, 61, 0
4, 11352, Note_on_c, 2, 62, 95
4, 11362, Note_on_c, 2, 62, 0
4, 11364, Note_on_c, 2, 62, 95
4, 11374, Note_on_c, 2, 62, 0
4, 11376, Note_on_c, 2, 57, 95
4, 11386, Note_on_c, 2, 57, 0
4, 11388, Note_on_c, 2, 57, 95
4, 11398, Note_on_c, 2, 57, 0
4, 11400, Note_on_c, 2, 67, 95
4, 11410, Note_on_c, 2, 67, 0
4, 11412, Note_on_c, 2, 67, 95
4, 11422, Note_on_c, 2, 67, 0
4, 11424, Note_on_c, 2, 66, 95
4, 11434, Note_on_c, 2, 66, 0
4, 11436, Note_on_c, 2, 64, 95
4, 11446, Note_on_c, 2, 64, 0
4, 11448, Note_on_c, 2, 66, 95
4, 11458, Note_on_c, 2, 66, 0
4, 11460, Note_on_c, 2, 62, 95
4, 11470, Note_on_c, 2, 62, 0
4, 11472, Note_on_c, 2, 64, 95
4, 11482, Note_on_c, 2, 64, 0
4, 11484, Note_on_c, 2, 64, 95
4, 11494, Note_on_c, 2, 64, 0
4, 11496, Note_on_c, 2, 57, 95
4, 11506, Note_on_c, 2, 57, 0
4, 11508, Note_on_c, 2, 57, 95
4, 11518, Note_on_c, 2, 57, 0
4, 11520, Note_on_c, 2, 62, 95
4, 11540, Note_on_c, 2, 62, 0
4, 12120, Note_on_c, 2, 76, 63
4, 12140, Note_on_c, 2, 76, 0
4, 12144, Note_on_c, 2, 76, 63
4, 12164, Note_on_c, 2, 76, 0
4, 12168, Note_on_c, 2, 76, 63
4, 12188, Note_on_c, 2, 76, 0
4, 12192, Note_on_c, 2, 76, 63
4, 12212, Note_on_c, 2, 76, 0
4, 12792, Note_on_c, 2, 71, 63
4, 12812, Note_on_c, 2, 71, 0
4, 12816, Note_on_c, 2, 71, 63
4, 12836, Note_on_c, 2, 71, 0
4, 12840, Note_on_c, 2, 71, 63
4, 12860, Note_on_c, 2, 71, 0
4, 12864, Note_on_c, 2, 71, 63
4, 12884, Note_on_c, 2, 71, 0
4, 13440, Note_on_c, 2, 69, 47
4, 13464, Note_on_c, 2, 69, 0
4, 13464, Note_on_c, 2, 69, 47
4, 13488, Note_on_c, 2, 69, 0
4, 13488, Note_on_c, 2, 69, 47
4, 13512, Note_on_c, 2, 69, 0
4, 13512, Note_on_c, 2, 69, 47
4, 13536, Note_on_c, 2, 69, 0
4, 13536, Note_on_c, 2, 69, 47
4, 13560, Note_on_c, 2, 69, 0
4, 13560, Note_on_c, 2, 69, 47
4, 13584, Note_on_c, 2, 69, 0
4, 13584, Note_on_c, 2, 69, 47
4, 13608, Note_on_c, 2, 69, 0
4, 13608, Note_on_c, 2, 69, 47
4, 13632, Note_on_c, 2, 69, 0
4, 13632, Note_on_c, 2, 69, 47
4, 13656, Note_on_c, 2, 69, 0
4, 13656, Note_on_c, 2, 69, 47
4, 13680, Note_on_c, 2, 69, 0
4, 13680, Note_on_c, 2, 69, 47
4, 13704, Note_on_c, 2, 69, 0
4, 13704, Note_on_c, 2, 69, 47
4, 13728, Note_on_c, 2, 69, 0
4, 13728, Note_on_c, 2, 69, 47
4, 13752, Note_on_c, 2, 69, 0
4, 13752, Note_on_c, 2, 69, 47
4, 13776, Note_on_c, 2, 69, 0
4, 13776, Note_on_c, 2, 69, 47
4, 13800, Note_on_c, 2, 69, 0
4, 13800, Note_on_c, 2, 69, 47
4, 13824, Note_on_c, 2, 69, 0
4, 13824, Note_on_c, 2, 71, 47
4, 13848, Note_on_c, 2, 71, 0
4, 13848, Note_on_c, 2, 71, 47
4, 13872, Note_on_c, 2, 71, 0
4, 13872, Note_on_c, 2, 71, 47
4, 13896, Note_on_c, 2, 71, 0
4, 13896, Note_on_c, 2, 71, 47
4, 13920, Note_on_c, 2, 71, 0
4, 13920, Note_on_c, 2, 71, 47
4, 13944, Note_on_c, 2, 71, 0
4, 13944, Note_on_c, 2, 71, 47
4, 13968, Note_on_c, 2, 71, 0
4, 13968, Note_on_c, 2, 71, 47
4, 13992, Note_on_c, 2, 71, 0
4, 13992, Note_on_c, 2, 71, 47
4, 14016, Note_on_c, 2, 71, 0
4, 14016, Note_on_c, 2, 69, 47
4, 14040, Note_on_c, 2, 69, 0
4, 14040, Note_on_c, 2, 69, 47
4, 14064, Note_on_c, 2, 69, 0
4, 14064, Note_on_c, 2, 69, 47
4, 14088, Note_on_c, 2, 69, 0
4, 14088, Note_on_c, 2, 69, 47
4, 14112, Note_on_c, 2, 69, 0
4, 14112, Note_on_c, 2, 69, 47
4, 14136, Note_on_c, 2, 69, 0
4, 14136, Note_on_c, 2, 69, 47
4, 14160, Note_on_c, 2, 69, 0
4, 14160, Note_on_c, 2, 69, 47
4, 14184, Note_on_c, 2, 69, 0
4, 14184, Note_on_c, 2, 69, 47
4, 14208, Note_on_c, 2, 69, 0
4, 14208, Note_on_c, 2, 69, 47
4, 14232, Note_on_c, 2, 69, 0
4, 14232, Note_on_c, 2, 69, 47
4, 14256, Note_on_c, 2, 69, 0
4, 14256, Note_on_c, 2, 69, 47
4, 14280, Note_on_c, 2, 69, 0
4, 14280, Note_on_c, 2, 69, 47
4, 14304, Note_on_c, 2, 69, 0
4, 14304, Note_on_c, 2, 69, 47
4, 14328, Note_on_c, 2, 69, 0
4, 14328, Note_on_c, 2, 69, 47
4, 14352, Note_on_c, 2, 69, 0
4, 14352, Note_on_c, 2, 69, 47
4, 14376, Note_on_c, 2, 69, 0
4, 14376, Note_on_c, 2, 69, 47
4, 14400, Note_on_c, 2, 69, 0
4, 14400, Note_on_c, 2, 71, 47
4, 14424, Note_on_c, 2, 71, 0
4, 14424, Note_on_c, 2, 71, 47
4, 14448, Note_on_c, 2, 71, 0
4, 14448, Note_on_c, 2, 71, 47
4, 14472, Note_on_c, 2, 71, 0
4, 14472, Note_on_c, 2, 71, 47
4, 14496, Note_on_c, 2, 71, 0
4, 14496, Note_on_c, 2, 71, 47
4, 14520, Note_on_c, 2, 71, 0
4, 14520, Note_on_c, 2, 71, 47
4, 14544, Note_on_c, 2, 71, 0
4, 14544, Note_on_c, 2, 71, 47
4, 14568, Note_on_c, 2, 71, 0
4, 14568, Note_on_c, 2, 71, 47
4, 14592, Note_on_c, 2, 71, 0
4, 14592, Note_on_c, 2, 73, 47
4, 14616, Note_on_c, 2, 73, 0
4, 14616, Note_on_c, 2, 73, 47
4, 14640, Note_on_c, 2, 73, 0
4, 14640, Note_on_c, 2, 73, 47
4, 14664, Note_on_c, 2, 73, 0
4, 14664, Note_on_c, 2, 73, 47
4, 14688, Note_on_c, 2, 73, 0
4, 14688, Note_on_c, 2, 73, 47
4, 14712, Note_on_c, 2, 73, 0
4, 14712, Note_on_c, 2, 73, 47
4, 14736, Note_on_c, 2, 73, 0
4, 14736, Note_on_c, 2, 73, 47
4, 14760, Note_on_c, 2, 73, 0
4, 14760, Note_on_c, 2, 73, 47
4, 14784, Note_on_c, 2, 73, 0
4, 14784, Note_on_c, 2, 74, 47
4, 14808, Note_on_c, 2, 74, 0
4, 14808, Note_on_c, 2, 74, 47
4, 14832, Note_on_c, 2, 74, 0
4, 14832, Note_on_c, 2, 74, 47
4, 14856, Note_on_c, 2, 74, 0
4, 14856, Note_on_c, 2, 74, 47
4, 14880, Note_on_c, 2, 74, 0
4, 14880, Note_on_c, 2, 74, 47
4, 14904, Note_on_c, 2, 74, 0
4, 14904, Note_on_c, 2, 74, 47
4, 14928, Note_on_c, 2, 74, 0
4, 14928, Note_on_c, 2, 74, 47
4, 14952, Note_on_c, 2, 74, 0
4, 14952, Note_on_c, 2, 74, 47
4, 14976, Note_on_c, 2, 74, 0
4, 14976, Note_on_c, 2, 71, 47
4, 15000, Note_on_c, 2, 71, 0
4, 15000, Note_on_c, 2, 71, 47
4, 15024, Note_on_c, 2, 71, 0
4, 15024, Note_on_c, 2, 71, 47
4, 15048, Note_on_c, 2, 71, 0
4, 15048, Note_on_c, 2, 71, 47
4, 15072, Note_on_c, 2, 71, 0
4, 15072, Note_on_c, 2, 71, 47
4, 15096, Note_on_c, 2, 71, 0
4, 15096, Note_on_c, 2, 71, 47
4, 15120, Note_on_c, 2, 71, 0
4, 15120, Note_on_c, 2, 71, 47
4, 15144, Note_on_c, 2, 71, 0
4, 15144, Note_on_c, 2, 71, 47
4, 15168, Note_on_c, 2, 71, 0
4, 15168, Note_on_c, 2, 69, 47
4, 15192, Note_on_c, 2, 69, 0
4, 15192, Note_on_c, 2, 69, 47
4, 15216, Note_on_c, 2, 69, 0
4, 15216, Note_on_c, 2, 69, 47
4, 15240, Note_on_c, 2, 69, 0
4, 15240, Note_on_c, 2, 69, 47
4, 15264, Note_on_c, 2, 69, 0
4, 15264, Note_on_c, 2, 69, 47
4, 15288, Note_on_c, 2, 69, 0
4, 15288, Note_on_c, 2, 69, 47
4, 15312, Note_on_c, 2, 69, 0
4, 15312, Note_on_c, 2, 69, 47
4, 15336, Note_on_c, 2, 69, 0
4, 15336, Note_on_c, 2, 69, 47
4, 15360, Note_on_c, 2, 69, 0
4, 15360, Note_on_c, 2, 73, 47
4, 15408, Note_on_c, 2, 73, 0
4, 15552, Note_on_c, 2, 71, 47
4, 15576, Note_on_c, 2, 71, 0
4, 15576, Note_on_c, 2, 71, 47
4, 15600, Note_on_c, 2, 71, 0
4, 15600, Note_on_c, 2, 71, 47
4, 15624, Note_on_c, 2, 71, 0
4, 15624, Note_on_c, 2, 71, 47
4, 15648, Note_on_c, 2, 71, 0
4, 15648, Note_on_c, 2, 71, 47
4, 15672, Note_on_c, 2, 71, 0
4, 15672, Note_on_c, 2, 71, 47
4, 15696, Note_on_c, 2, 71, 0
4, 15696, Note_on_c, 2, 71, 47
4, 15720, Note_on_c, 2, 71, 0
4, 15720, Note_on_c, 2, 71, 47
4, 15744, Note_on_c, 2, 71, 0
4, 15744, Note_on_c, 2, 71, 47
4, 15792, Note_on_c, 2, 71, 0
4, 15936, Note_on_c, 2, 69, 47
4, 15960, Note_on_c, 2, 69, 0
4, 15960, Note_on_c, 2, 69, 47
4, 15984, Note_on_c, 2, 69, 0
4, 15984, Note_on_c, 2, 69, 47
4, 16008, Note_on_c, 2, 69, 0
4, 16008, Note_on_c, 2, 69, 47
4, 16032, Note_on_c, 2, 69, 0
4, 16032, Note_on_c, 2, 69, 47
4, 16056, Note_on_c, 2, 69, 0
4, 16056, Note_on_c, 2, 69, 47
4, 16080, Note_on_c, 2, 69, 0
4, 16080, Note_on_c, 2, 69, 47
4, 16104, Note_on_c, 2, 69, 0
4, 16104, Note_on_c, 2, 69, 47
4, 16128, Note_on_c, 2, 69, 0
4, 16128, Note_on_c, 2, 69, 47
4, 16176, Note_on_c, 2, 69, 0
4, 16320, Note_on_c, 2, 68, 47
4, 16344, Note_on_c, 2, 68, 0
4, 16344, Note_on_c, 2, 68, 47
4, 16368, Note_on_c, 2, 68, 0
4, 16368, Note_on_c, 2, 68, 47
4, 16392, Note_on_c, 2, 68, 0
4, 16392, Note_on_c, 2, 68, 47
4, 16416, Note_on_c, 2, 68, 0
4, 16416, Note_on_c, 2, 68, 47
4, 16440, Note_on_c, 2, 68, 0
4, 16440, Note_on_c, 2, 68, 47
4, 16464, Note_on_c, 2, 68, 0
4, 16464, Note_on_c, 2, 68, 47
4, 16488, Note_on_c, 2, 68, 0
4, 16488, Note_on_c, 2, 68, 47
4, 16512, Note_on_c, 2, 68, 0
4, 16512, Note_on_c, 2, 68, 47
4, 16560, Note_on_c, 2, 68, 0
4, 16704, Note_on_c, 2, 66, 47
4, 16728, Note_on_c, 2, 66, 0
4, 16728, Note_on_c, 2, 66, 47
4, 16752, Note_on_c, 2, 66, 0
4, 16752, Note_on_c, 2, 66, 47
4, 16776, Note_on_c, 2, 66, 0
4, 16776, Note_on_c, 2, 66, 47
4, 16800, Note_on_c, 2, 66, 0
4, 16800, Note_on_c, 2, 66, 47
4, 16824, Note_on_c, 2, 66, 0
4, 16824, Note_on_c, 2, 66, 47
4, 16848, Note_on_c, 2, 66, 0
4, 16848, Note_on_c, 2, 66, 47
4, 16872, Note_on_c, 2, 66, 0
4, 16872, Note_on_c, 2, 66, 47
4, 16896, Note_on_c, 2, 66, 0
4, 16896, Note_on_c, 2, 66, 47
4, 16944, Note_on_c, 2, 66, 0
4, 17088, Note_on_c, 2, 64, 47
4, 17112, Note_on_c, 2, 64, 0
4, 17112, Note_on_c, 2, 64, 47
4, 17136, Note_on_c, 2, 64, 0
4, 17136, Note_on_c, 2, 64, 47
4, 17160, Note_on_c, 2, 64, 0
4, 17160, Note_on_c, 2, 64, 47
4, 17184, Note_on_c, 2, 64, 0
4, 17184, Note_on_c, 2, 64, 47
4, 17208, Note_on_c, 2, 64, 0
4, 17208, Note_on_c, 2, 64, 47
4, 17232, Note_on_c, 2, 64, 0
4, 17232, Note_on_c, 2, 64, 47
4, 17256, Note_on_c, 2, 64, 0
4, 17256, Note_on_c, 2, 64, 47
4, 17280, Note_on_c, 2, 64, 0
4, 17280, Note_on_c, 2, 64, 47
4, 17328, Note_on_c, 2, 64, 0
4, 17472, Note_on_c, 2, 62, 47
4, 17496, Note_on_c, 2, 62, 0
4, 17496, Note_on_c, 2, 62, 47
4, 17520, Note_on_c, 2, 62, 0
4, 17520, Note_on_c, 2, 62, 47
4, 17544, Note_on_c, 2, 62, 0
4, 17544, Note_on_c, 2, 62, 47
4, 17568, Note_on_c, 2, 62, 0
4, 17568, Note_on_c, 2, 62, 47
4, 17592, Note_on_c, 2, 62, 0
4, 17592, Note_on_c, 2, 62, 47
4, 17616, Note_on_c, 2, 62, 0
4, 17616, Note_on_c, 2, 62, 47
4, 17640, Note_on_c, 2, 62, 0
4, 17640, Note_on_c, 2, 62, 47
4, 17664, Note_on_c, 2, 62, 0
4, 17664, Note_on_c, 2, 59, 47
4, 17712, Note_on_c, 2, 59, 0
4, 17856, Note_on_c, 2, 64, 47
4, 17904, Note_on_c, 2, 64, 0
4, 18072, Note_on_c, 2, 71, 47
4, 18096, Note_on_c, 2, 71, 0
4, 18096, Note_on_c, 2, 71, 47
4, 18120, Note_on_c, 2, 71, 0
4, 18120, Note_on_c, 2, 71, 47
4, 18144, Note_on_c, 2, 71, 0
4, 18168, Note_on_c, 2, 71, 47
4, 18192, Note_on_c, 2, 71, 0
4, 18192, Note_on_c, 2, 71, 47
4, 18216, Note_on_c, 2, 71, 0
4, 18216, Note_on_c, 2, 71, 47
4, 18240, Note_on_c, 2, 71, 0
4, 18264, Note_on_c, 2, 72, 47
4, 18288, Note_on_c, 2, 72, 0
4, 18288, Note_on_c, 2, 72, 47
4, 18312, Note_on_c, 2, 72, 0
4, 18312, Note_on_c, 2, 72, 47
4, 18336, Note_on_c, 2, 72, 0
4, 18360, Note_on_c, 2, 72, 47
4, 18384, Note_on_c, 2, 72, 0
4, 18384, Note_on_c, 2, 72, 47
4, 18408, Note_on_c, 2, 72, 0
4, 18408, Note_on_c, 2, 72, 47
4, 18432, Note_on_c, 2, 72, 0
4, 18456, Note_on_c, 2, 71, 47
4, 18480, Note_on_c, 2, 71, 0
4, 18480, Note_on_c, 2, 71, 47
4, 18504, Note_on_c, 2, 71, 0
4, 18504, Note_on_c, 2, 71, 47
4, 18528, Note_on_c, 2, 71, 0
4, 18552, Note_on_c, 2, 71, 47
4, 18576, Note_on_c, 2, 71, 0
4, 18576, Note_on_c, 2, 71, 47
4, 18600, Note_on_c, 2, 71, 0
4, 18600, Note_on_c, 2, 71, 47
4, 18624, Note_on_c, 2, 71, 0
4, 18648, Note_on_c, 2, 69, 47
4, 18672, Note_on_c, 2, 69, 0
4, 18672, Note_on_c, 2, 69, 47
4, 18696, Note_on_c, 2, 69, 0
4, 18696, Note_on_c, 2, 69, 47
4, 18720, Note_on_c, 2, 69, 0
4, 18744, Note_on_c, 2, 69, 47
4, 18768, Note_on_c, 2, 69, 0
4, 18768, Note_on_c, 2, 69, 47
4, 18792, Note_on_c, 2, 69, 0
4, 18792, Note_on_c, 2, 69, 47
4, 18816, Note_on_c, 2, 69, 0
4, 18840, Note_on_c, 2, 65, 47
4, 18864, Note_on_c, 2, 65, 0
4, 18864, Note_on_c, 2, 65, 47
4, 18888, Note_on_c, 2, 65, 0
4, 18888, Note_on_c, 2, 65, 47
4, 18912, Note_on_c, 2, 65, 0
4, 18936, Note_on_c, 2, 65, 47
4, 18960, Note_on_c, 2, 65, 0
4, 18960, Note_on_c, 2, 65, 47
4, 18984, Note_on_c, 2, 65, 0
4, 18984, Note_on_c, 2, 65, 47
4, 19008, Note_on_c, 2, 65, 0
4, 19032, Note_on_c, 2, 64, 47
4, 19056, Note_on_c, 2, 64, 0
4, 19056, Note_on_c, 2, 64, 47
4, 19080, Note_on_c, 2, 64, 0
4, 19080, Note_on_c, 2, 64, 47
4, 19104, Note_on_c, 2, 64, 0
4, 19128, Note_on_c, 2, 64, 47
4, 19152, Note_on_c, 2, 64, 0
4, 19152, Note_on_c, 2, 64, 47
4, 19176, Note_on_c, 2, 64, 0
4, 19176, Note_on_c, 2, 64, 47
4, 19200, Note_on_c, 2, 64, 0
4, 19200, Note_on_c, 2, 64, 95
4, 19212, Note_on_c, 2, 64, 0
4, 19212, Note_on_c, 2, 69, 95
4, 19224, Note_on_c, 2, 69, 0
4, 19224, Note_on_c, 2, 73, 95
4, 19236, Note_on_c, 2, 73, 0
4, 19236, Note_on_c, 2, 73, 95
4, 19248, Note_on_c, 2, 73, 0
4, 19248, Note_on_c, 2, 76, 95
4, 19258, Note_on_c, 2, 76, 0
4, 19260, Note_on_c, 2, 76, 95
4, 19270, Note_on_c, 2, 76, 0
4, 19272, Note_on_c, 2, 81, 95
4, 19282, Note_on_c, 2, 81, 0
4, 19284, Note_on_c, 2, 81, 95
4, 19294, Note_on_c, 2, 81, 0
4, 19296, Note_on_c, 2, 80, 95
4, 19306, Note_on_c, 2, 80, 0
4, 19308, Note_on_c, 2, 81, 95
4, 19318, Note_on_c, 2, 81, 0
4, 19320, Note_on_c, 2, 80, 95
4, 19330, Note_on_c, 2, 80, 0
4, 19332, Note_on_c, 2, 78, 95
4, 19342, Note_on_c, 2, 78, 0
4, 19344, Note_on_c, 2, 76, 95
4, 19354, Note_on_c, 2, 76, 0
4, 19356, Note_on_c, 2, 74, 95
4, 19366, Note_on_c, 2, 74, 0
4, 19368, Note_on_c, 2, 73, 95
4, 19378, Note_on_c, 2, 73, 0
4, 19380, Note_on_c, 2, 71, 95
4, 19390, Note_on_c, 2, 71, 0
4, 19392, Note_on_c, 2, 69, 95
4, 19402, Note_on_c, 2, 69, 0
4, 19404, Note_on_c, 2, 69, 95
4, 19414, Note_on_c, 2, 69, 0
4, 19416, Note_on_c, 2, 73, 95
4, 19426, Note_on_c, 2, 73, 0
4, 19428, Note_on_c, 2, 73, 95
4, 19438, Note_on_c, 2, 73, 0
4, 19440, Note_on_c, 2, 76, 95
4, 19450, Note_on_c, 2, 76, 0
4, 19452, Note_on_c, 2, 76, 95
4, 19462, Note_on_c, 2, 76, 0
4, 19464, Note_on_c, 2, 81, 95
4, 19474, Note_on_c, 2, 81, 0
4, 19476, Note_on_c, 2, 81, 95
4, 19486, Note_on_c, 2, 81, 0
4, 19488, Note_on_c, 2, 83, 95
4, 19508, Note_on_c, 2, 83, 0
4, 19512, Note_on_c, 2, 76, 95
4, 19532, Note_on_c, 2, 76, 0
4, 20040, Note_on_c, 2, 71, 63
4, 20060, Note_on_c, 2, 71, 0
4, 20064, Note_on_c, 2, 73, 63
4, 20084, Note_on_c, 2, 73, 0
4, 20088, Note_on_c, 2, 69, 63
4, 20108, Note_on_c, 2, 69, 0
4, 20616, Note_on_c, 2, 73, 63
4, 20636, Note_on_c, 2, 73, 0
4, 20640, Note_on_c, 2, 74, 63
4, 20660, Note_on_c, 2, 74, 0
4, 20664, Note_on_c, 2, 69, 63
4, 20684, Note_on_c, 2, 69, 0
4, 20688, Note_on_c, 2, 74, 63
4, 20708, Note_on_c, 2, 74, 0
4, 20712, Note_on_c, 2, 69, 63
4, 20732, Note_on_c, 2, 69, 0
4, 20760, Note_on_c, 2, 69, 63
4, 20780, Note_on_c, 2, 69, 0
4, 20784, Note_on_c, 2, 76, 63
4, 20804, Note_on_c, 2, 76, 0
4, 20808, Note_on_c, 2, 69, 63
4, 20828, Note_on_c, 2, 69, 0
4, 20856, Note_on_c, 2, 69, 63
4, 20876, Note_on_c, 2, 69, 0
4, 20880, Note_on_c, 2, 78, 63
4, 20900, Note_on_c, 2, 78, 0
4, 20904, Note_on_c, 2, 69, 63
4, 20924, Note_on_c, 2, 69, 0
4, 20928, Note_on_c, 2, 69, 63
4, 20938, Note_on_c, 2, 69, 0
4, 20940, Note_on_c, 2, 69, 63
4, 20950, Note_on_c, 2, 69, 0
4, 20952, Note_on_c, 2, 73, 63
4, 20962, Note_on_c, 2, 73, 0
4, 20964, Note_on_c, 2, 73, 63
4, 20974, Note_on_c, 2, 73, 0
4, 20976, Note_on_c, 2, 76, 63
4, 20986, Note_on_c, 2, 76, 0
4, 20988, Note_on_c, 2, 76, 63
4, 20998, Note_on_c, 2, 76, 0
4, 21000, Note_on_c, 2, 81, 63
4, 21010, Note_on_c, 2, 81, 0
4, 21012, Note_on_c, 2, 81, 63
4, 21022, Note_on_c, 2, 81, 0
4, 21024, Note_on_c, 2, 78, 63
4, 21044, Note_on_c, 2, 78, 0
4, 21048, Note_on_c, 2, 74, 63
4, 21068, Note_on_c, 2, 74, 0
4, 21312, Note_on_c, 2, 62, 47
4, 21322, Note_on_c, 2, 62, 0
4, 21324, Note_on_c, 2, 62, 47
4, 21334, Note_on_c, 2, 62, 0
4, 21336, Note_on_c, 2, 66, 47
4, 21346, Note_on_c, 2, 66, 0
4, 21348, Note_on_c, 2, 66, 47
4, 21358, Note_on_c, 2, 66, 0
4, 21360, Note_on_c, 2, 69, 47
4, 21370, Note_on_c, 2, 69, 0
4, 21372, Note_on_c, 2, 69, 47
4, 21382, Note_on_c, 2, 69, 0
4, 21384, Note_on_c, 2, 74, 47
4, 21394, Note_on_c, 2, 74, 0
4, 21396, Note_on_c, 2, 74, 47
4, 21406, Note_on_c, 2, 74, 0
4, 21408, Note_on_c, 2, 73, 47
4, 21418, Note_on_c, 2, 73, 0
4, 21420, Note_on_c, 2, 74, 47
4, 21430, Note_on_c, 2, 74, 0
4, 21432, Note_on_c, 2, 73, 47
4, 21442, Note_on_c, 2, 73, 0
4, 21444, Note_on_c, 2, 71, 47
4, 21454, Note_on_c, 2, 71, 0
4, 21456, Note_on_c, 2, 69, 47
4, 21466, Note_on_c, 2, 69, 0
4, 21468, Note_on_c, 2, 67, 47
4, 21478, Note_on_c, 2, 67, 0
4, 21480, Note_on_c, 2, 66, 47
4, 21490, Note_on_c, 2, 66, 0
4, 21492, Note_on_c, 2, 64, 47
4, 21502, Note_on_c, 2, 64, 0
4, 21504, Note_on_c, 2, 62, 63
4, 21524, Note_on_c, 2, 62, 0
4, 21792, Note_on_c, 2, 62, 47
4, 21802, Note_on_c, 2, 62, 0
4, 21804, Note_on_c, 2, 62, 47
4, 21814, Note_on_c, 2, 62, 0
4, 21816, Note_on_c, 2, 66, 47
4, 21826, Note_on_c, 2, 66, 0
4, 21828, Note_on_c, 2, 66, 47
4, 21838, Note_on_c, 2, 66, 0
4, 21840, Note_on_c, 2, 69, 47
4, 21850, Note_on_c, 2, 69, 0
4, 21852, Note_on_c, 2, 69, 47
4, 21862, Note_on_c, 2, 69, 0
4, 21864, Note_on_c, 2, 74, 47
4, 21874, Note_on_c, 2, 74, 0
4, 21876, Note_on_c, 2, 74, 47
4, 21886, Note_on_c, 2, 74, 0
4, 21888, Note_on_c, 2, 76, 63
4, 21908, Note_on_c, 2, 76, 0
4, 21912, Note_on_c, 2, 64, 63
4, 21932, Note_on_c, 2, 64, 0
4, 23040, Note_on_c, 2, 62, 95
4, 23050, Note_on_c, 2, 62, 0
4, 23052, Note_on_c, 2, 62, 95
4, 23062, Note_on_c, 2, 62, 0
4, 23064, Note_on_c, 2, 66, 95
4, 23074, Note_on_c, 2, 66, 0
4, 23076, Note_on_c, 2, 66, 95
4, 23086, Note_on_c, 2, 66, 0
4, 23088, Note_on_c, 2, 69, 95
4, 23098, Note_on_c, 2, 69, 0
4, 23100, Note_on_c, 2, 69, 95
4, 23110, Note_on_c, 2, 69, 0
4, 23112, Note_on_c, 2, 74, 95
4, 23122, Note_on_c, 2, 74, 0
4, 23124, Note_on_c, 2, 74, 95
4, 23134, Note_on_c, 2, 74, 0
4, 23136, Note_on_c, 2, 73, 95
4, 23146, Note_on_c, 2, 73, 0
4, 23148, Note_on_c, 2, 74, 95
4, 23158, Note_on_c, 2, 74, 0
4, 23160, Note_on_c, 2, 73, 95
4, 23170, Note_on_c, 2, 73, 0
4, 23172, Note_on_c, 2, 71, 95
4, 23182, Note_on_c, 2, 71, 0
4, 23184, Note_on_c, 2, 69, 95
4, 23194, Note_on_c, 2, 69, 0
4, 23196, Note_on_c, 2, 67, 95
4, 23206, Note_on_c, 2, 67, 0
4, 23208, Note_on_c, 2, 66, 95
4, 23218, Note_on_c, 2, 66, 0
4, 23220, Note_on_c, 2, 64, 95
4, 23230, Note_on_c, 2, 64, 0
4, 23232, Note_on_c, 2, 62, 95
4, 23242, Note_on_c, 2, 62, 0
4, 23244, Note_on_c, 2, 62, 95
4, 23254, Note_on_c, 2, 62, 0
4, 23256, Note_on_c, 2, 66, 95
4, 23266, Note_on_c, 2, 66, 0
4, 23268, Note_on_c, 2, 66, 95
4, 23278, Note_on_c, 2, 66, 0
4, 23280, Note_on_c, 2, 69, 95
4, 23290, Note_on_c, 2, 69, 0
4, 23292, Note_on_c, 2, 69, 95
4, 23302, Note_on_c, 2, 69, 0
4, 23304, Note_on_c, 2, 74, 95
4, 23314, Note_on_c, 2, 74, 0
4, 23316, Note_on_c, 2, 74, 95
4, 23326, Note_on_c, 2, 74, 0
4, 23328, Note_on_c, 2, 76, 95
4, 23348, Note_on_c, 2, 76, 0
4, 23352, Note_on_c, 2, 69, 95
4, 23372, Note_on_c, 2, 69, 0
4, 23400, Note_on_c, 2, 76, 95
4, 23420, Note_on_c, 2, 76, 0
4, 23424, Note_on_c, 2, 78, 95
4, 23434, Note_on_c, 2, 78, 0
4, 23436, Note_on_c, 2, 78, 95
4, 23446, Note_on_c, 2, 78, 0
4, 23448, Note_on_c, 2, 76, 95
4, 23458, Note_on_c, 2, 76, 0
4, 23460, Note_on_c, 2, 76, 95
4, 23470, Note_on_c, 2, 76, 0
4, 23472, Note_on_c, 2, 79, 95
4, 23482, Note_on_c, 2, 79, 0
4, 23484, Note_on_c, 2, 79, 95
4, 23494, Note_on_c, 2, 79, 0
4, 23496, Note_on_c, 2, 78, 95
4, 23506, Note_on_c, 2, 78, 0
4, 23508, Note_on_c, 2, 78, 95
4, 23518, Note_on_c, 2, 78, 0
4, 23520, Note_on_c, 2, 83, 95
4, 23530, Note_on_c, 2, 83, 0
4, 23532, Note_on_c, 2, 83, 95
4, 23542, Note_on_c, 2, 83, 0
4, 23544, Note_on_c, 2, 81, 95
4, 23554, Note_on_c, 2, 81, 0
4, 23556, Note_on_c, 2, 81, 95
4, 23566, Note_on_c, 2, 81, 0
4, 23568, Note_on_c, 2, 73, 95
4, 23578, Note_on_c, 2, 73, 0
4, 23580, Note_on_c, 2, 73, 95
4, 23590, Note_on_c, 2, 73, 0
4, 23592, Note_on_c, 2, 74, 95
4, 23602, Note_on_c, 2, 74, 0
4, 23604, Note_on_c, 2, 74, 95
4, 23614, Note_on_c, 2, 74, 0
4, 23616, Note_on_c, 2, 67, 95
4, 23626, Note_on_c, 2, 67, 0
4, 23628, Note_on_c, 2, 67, 95
4, 23638, Note_on_c, 2, 67, 0
4, 23640, Note_on_c, 2, 66, 95
4, 23650, Note_on_c, 2, 66, 0
4, 23652, Note_on_c, 2, 66, 95
4, 23662, Note_on_c, 2, 66, 0
4, 23664, Note_on_c, 2, 71, 95
4, 23674, Note_on_c, 2, 71, 0
4, 23676, Note_on_c, 2, 71, 95
4, 23686, Note_on_c, 2, 71, 0
4, 23688, Note_on_c, 2, 69, 95
4, 23698, Note_on_c, 2, 69, 0
4, 23700, Note_on_c, 2, 69, 95
4, 23710, Note_on_c, 2, 69, 0
4, 23712, Note_on_c, 2, 61, 95
4, 23722, Note_on_c, 2, 61, 0
4, 23724, Note_on_c, 2, 61, 95
4, 23734, Note_on_c, 2, 61, 0
4, 23736, Note_on_c, 2, 62, 95
4, 23746, Note_on_c, 2, 62, 0
4, 23748, Note_on_c, 2, 62, 95
4, 23758, Note_on_c, 2, 62, 0
4, 23760, Note_on_c, 2, 57, 95
4, 23770, Note_on_c, 2, 57, 0
4, 23772, Note_on_c, 2, 57, 95
4, 23782, Note_on_c, 2, 57, 0
4, 23784, Note_on_c, 2, 67, 95
4, 23794, Note_on_c, 2, 67, 0
4, 23796, Note_on_c, 2, 67, 95
4, 23806, Note_on_c, 2, 67, 0
4, 23808, Note_on_c, 2, 66, 95
4, 23818, Note_on_c, 2, 66, 0
4, 23820, Note_on_c, 2, 64, 95
4, 23830, Note_on_c, 2, 64, 0
4, 23832, Note_on_c, 2, 66, 95
4, 23842, Note_on_c, 2, 66, 0
4, 23844, Note_on_c, 2, 62, 95
4, 23854, Note_on_c, 2, 62, 0
4, 23856, Note_on_c, 2, 64, 95
4, 23866, Note_on_c, 2, 64, 0
4, 23868, Note_on_c, 2, 64, 95
4, 23878, Note_on_c, 2, 64, 0
4, 23880, Note_on_c, 2, 57, 95
4, 23890, Note_on_c, 2, 57, 0
4, 23892, Note_on_c, 2, 57, 95
4, 23902, Note_on_c, 2, 57, 0
4, 23904, Note_on_c, 2, 62, 95
4, 23944, Note_on_c, 2, 62, 0
4, 24504, Note_on_c, 2, 69, 63
4, 24524, Note_on_c, 2, 69, 0
4, 24528, Note_on_c, 2, 69, 63
4, 24548, Note_on_c, 2, 69, 0
4, 24552, Note_on_c, 2, 69, 63
4, 24572, Note_on_c, 2, 69, 0
4, 24576, Note_on_c, 2, 69, 63
4, 24596, Note_on_c, 2, 69, 0
4, 25176, Note_on_c, 2, 76, 63
4, 25196, Note_on_c, 2, 76, 0
4, 25200, Note_on_c, 2, 76, 63
4, 25220, Note_on_c, 2, 76, 0
4, 25224, Note_on_c, 2, 76, 63
4, 25244, Note_on_c, 2, 76, 0
4, 25248, Note_on_c, 2, 76, 63
4, 25268, Note_on_c, 2, 76, 0
4, 25320, Note_on_c, 2, 74, 63
4, 25340, Note_on_c, 2, 74, 0
4, 25344, Note_on_c, 2, 74, 63
4, 25364, Note_on_c, 2, 74, 0
4, 25416, Note_on_c, 2, 71, 63
4, 25436, Note_on_c, 2, 71, 0
4, 25440, Note_on_c, 2, 73, 63
4, 25460, Note_on_c, 2, 73, 0
4, 25488, Note_on_c, 2, 74, 63
4, 25508, Note_on_c, 2, 74, 0
4, 25536, Note_on_c, 2, 76, 63
4, 25556, Note_on_c, 2, 76, 0
4, 25608, Note_on_c, 2, 76, 63
4, 25628, Note_on_c, 2, 76, 0
4, 25632, Note_on_c, 2, 78, 63
4, 25652, Note_on_c, 2, 78, 0
4, 25656, Note_on_c, 2, 69, 63
4, 25676, Note_on_c, 2, 69, 0
4, 25680, Note_on_c, 2, 74, 63
4, 25700, Note_on_c, 2, 74, 0
4, 25704, Note_on_c, 2, 69, 63
4, 25724, Note_on_c, 2, 69, 0
4, 25752, Note_on_c, 2, 69, 63
4, 25772, Note_on_c, 2, 69, 0
4, 25776, Note_on_c, 2, 76, 63
4, 25796, Note_on_c, 2, 76, 0
4, 25800, Note_on_c, 2, 69, 63
4, 25820, Note_on_c, 2, 69, 0
4, 25848, Note_on_c, 2, 69, 63
4, 25868, Note_on_c, 2, 69, 0
4, 25872, Note_on_c, 2, 78, 63
4, 25892, Note_on_c, 2, 78, 0
4, 25896, Note_on_c, 2, 69, 63
4, 25916, Note_on_c, 2, 69, 0
4, 25944, Note_on_c, 2, 69, 63
4, 25964, Note_on_c, 2, 69, 0
4, 25968, Note_on_c, 2, 80, 63
4, 25988, Note_on_c, 2, 80, 0
4, 25992, Note_on_c, 2, 69, 63
4, 26012, Note_on_c, 2, 69, 0
4, 26016, Note_on_c, 2, 73, 95
4, 26026, Note_on_c, 2, 73, 0
4, 26028, Note_on_c, 2, 71, 95
4, 26038, Note_on_c, 2, 71, 0
4, 26040, Note_on_c, 2, 73, 95
4, 26050, Note_on_c, 2, 73, 0
4, 26052, Note_on_c, 2, 74, 95
4, 26062, Note_on_c, 2, 74, 0
4, 26064, Note_on_c, 2, 76, 95
4, 26074, Note_on_c, 2, 76, 0
4, 26076, Note_on_c, 2, 78, 95
4, 26086, Note_on_c, 2, 78, 0
4, 26088, Note_on_c, 2, 79, 95
4, 26098, Note_on_c, 2, 79, 0
4, 26100, Note_on_c, 2, 76, 95
4, 26110, Note_on_c, 2, 76, 0
4, 26112, Note_on_c, 2, 78, 95
4, 26122, Note_on_c, 2, 78, 0
4, 26124, Note_on_c, 2, 78, 95
4, 26134, Note_on_c, 2, 78, 0
4, 26136, Note_on_c, 2, 76, 95
4, 26146, Note_on_c, 2, 76, 0
4, 26148, Note_on_c, 2, 76, 95
4, 26158, Note_on_c, 2, 76, 0
4, 26160, Note_on_c, 2, 79, 95
4, 26170, Note_on_c, 2, 79, 0
4, 26172, Note_on_c, 2, 79, 95
4, 26182, Note_on_c, 2, 79, 0
4, 26184, Note_on_c, 2, 78, 95
4, 26194, Note_on_c, 2, 78, 0
4, 26196, Note_on_c, 2, 78, 95
4, 26206, Note_on_c, 2, 78, 0
4, 26208, Note_on_c, 2, 83, 95
4, 26218, Note_on_c, 2, 83, 0
4, 26220, Note_on_c, 2, 83, 95
4, 26230, Note_on_c, 2, 83, 0
4, 26232, Note_on_c, 2, 81, 95
4, 26242, Note_on_c, 2, 81, 0
4, 26244, Note_on_c, 2, 81, 95
4, 26254, Note_on_c, 2, 81, 0
4, 26256, Note_on_c, 2, 73, 95
4, 26266, Note_on_c, 2, 73, 0
4, 26268, Note_on_c, 2, 73, 95
4, 26278, Note_on_c, 2, 73, 0
4, 26280, Note_on_c, 2, 74, 95
4, 26290, Note_on_c, 2, 74, 0
4, 26292, Note_on_c, 2, 74, 95
4, 26302, Note_on_c, 2, 74, 0
4, 26304, Note_on_c, 2, 67, 95
4, 26314, Note_on_c, 2, 67, 0
4, 26316, Note_on_c, 2, 67, 95
4, 26326, Note_on_c, 2, 67, 0
4, 26328, Note_on_c, 2, 66, 95
4, 26338, Note_on_c, 2, 66, 0
4, 26340, Note_on_c, 2, 66, 95
4, 26350, Note_on_c, 2, 66, 0
4, 26352, Note_on_c, 2, 71, 95
4, 26362, Note_on_c, 2, 71, 0
4, 26364, Note_on_c, 2, 71, 95
4, 26374, Note_on_c, 2, 71, 0
4, 26376, Note_on_c, 2, 69, 95
4, 26386, Note_on_c, 2, 69, 0
4, 26388, Note_on_c, 2, 69, 95
4, 26398, Note_on_c, 2, 69, 0
4, 26400, Note_on_c, 2, 61, 95
4, 26410, Note_on_c, 2, 61, 0
4, 26412, Note_on_c, 2, 61, 95
4, 26422, Note_on_c, 2, 61, 0
4, 26424, Note_on_c, 2, 62, 95
4, 26434, Note_on_c, 2, 62, 0
4, 26436, Note_on_c, 2, 62, 95
4, 26446, Note_on_c, 2, 62, 0
4, 26448, Note_on_c, 2, 57, 95
4, 26458, Note_on_c, 2, 57, 0
4, 26460, Note_on_c, 2, 57, 95
4, 26470, Note_on_c, 2, 57, 0
4, 26472, Note_on_c, 2, 67, 95
4, 26482, Note_on_c, 2, 67, 0
4, 26484, Note_on_c, 2, 67, 95
4, 26494, Note_on_c, 2, 67, 0
4, 26496, Note_on_c, 2, 66, 95
4, 26506, Note_on_c, 2, 66, 0
4, 26508, Note_on_c, 2, 64, 95
4, 26518, Note_on_c, 2, 64, 0
4, 26520, Note_on_c, 2, 66, 95
4, 26530, Note_on_c, 2, 66, 0
4, 26532, Note_on_c, 2, 62, 95
4, 26542, Note_on_c, 2, 62, 0
4, 26544, Note_on_c, 2, 64, 95
4, 26554, Note_on_c, 2, 64, 0
4, 26556, Note_on_c, 2, 64, 95
4, 26566, Note_on_c, 2, 64, 0
4, 26568, Note_on_c, 2, 57, 95
4, 26578, Note_on_c, 2, 57, 0
4, 26580, Note_on_c, 2, 57, 95
4, 26590, Note_on_c, 2, 57, 0
4, 26592, Note_on_c, 2, 62, 95
4, 26612, Note_on_c, 2, 62, 0
4, 26616, Note_on_c, 2, 57, 47
4, 26636, Note_on_c, 2, 57, 0
4, 26640, Note_on_c, 2, 57, 47
4, 26660, Note_on_c, 2, 57, 0
4, 26664, Note_on_c, 2, 57, 47
4, 26684, Note_on_c, 2, 57, 0
4, 26688, Note_on_c, 2, 59, 47
4, 26708, Note_on_c, 2, 59, 0
4, 26712, Note_on_c, 2, 59, 47
4, 26732, Note_on_c, 2, 59, 0
4, 26736, Note_on_c, 2, 59, 47
4, 26756, Note_on_c, 2, 59, 0
4, 26760, Note_on_c, 2, 59, 47
4, 26780, Note_on_c, 2, 59, 0
4, 26784, Note_on_c, 2, 59, 47
4, 26804, Note_on_c, 2, 59, 0
4, 26808, Note_on_c, 2, 59, 47
4, 26828, Note_on_c, 2, 59, 0
4, 26832, Note_on_c, 2, 59, 47
4, 26852, Note_on_c, 2, 59, 0
4, 26856, Note_on_c, 2, 59, 47
4, 26876, Note_on_c, 2, 59, 0
4, 26880, Note_on_c, 2, 61, 47
4, 26900, Note_on_c, 2, 61, 0
4, 26904, Note_on_c, 2, 61, 47
4, 26924, Note_on_c, 2, 61, 0
4, 26928, Note_on_c, 2, 61, 47
4, 26948, Note_on_c, 2, 61, 0
4, 26952, Note_on_c, 2, 61, 47
4, 26972, Note_on_c, 2, 61, 0
4, 26976, Note_on_c, 2, 61, 47
4, 26996, Note_on_c, 2, 61, 0
4, 27000, Note_on_c, 2, 61, 47
4, 27020, Note_on_c, 2, 61, 0
4, 27024, Note_on_c, 2, 61, 47
4, 27044, Note_on_c, 2, 61, 0
4, 27048, Note_on_c, 2, 61, 47
4, 27068, Note_on_c, 2, 61, 0
4, 27072, Note_on_c, 2, 62, 47
4, 27092, Note_on_c, 2, 62, 0
4, 27096, Note_on_c, 2, 62, 47
4, 27116, Note_on_c, 2, 62, 0
4, 27120, Note_on_c, 2, 62, 47
4, 27140, Note_on_c, 2, 62, 0
4, 27144, Note_on_c, 2, 62, 47
4, 27164, Note_on_c, 2, 62, 0
4, 27168, Note_on_c, 2, 64, 47
4, 27188, Note_on_c, 2, 64, 0
4, 27192, Note_on_c, 2, 64, 47
4, 27212, Note_on_c, 2, 64, 0
4, 27216, Note_on_c, 2, 64, 47
4, 27236, Note_on_c, 2, 64, 0
4, 27240, Note_on_c, 2, 64, 47
4, 27260, Note_on_c, 2, 64, 0
4, 27264, Note_on_c, 2, 66, 47
4, 27284, Note_on_c, 2, 66, 0
4, 27288, Note_on_c, 2, 66, 47
4, 27308, Note_on_c, 2, 66, 0
4, 27312, Note_on_c, 2, 66, 47
4, 27332, Note_on_c, 2, 66, 0
4, 27336, Note_on_c, 2, 66, 47
4, 27356, Note_on_c, 2, 66, 0
4, 27360, Note_on_c, 2, 67, 47
4, 27380, Note_on_c, 2, 67, 0
4, 27384, Note_on_c, 2, 71, 47
4, 27404, Note_on_c, 2, 71, 0
4, 27408, Note_on_c, 2, 61, 47
4, 27428, Note_on_c, 2, 61, 0
4, 27432, Note_on_c, 2, 64, 47
4, 27452, Note_on_c, 2, 64, 0
4, 27456, Note_on_c, 2, 66, 47
4, 27476, Note_on_c, 2, 66, 0
4, 27480, Note_on_c, 2, 69, 47
4, 27500, Note_on_c, 2, 69, 0
4, 27504, Note_on_c, 2, 59, 47
4, 27524, Note_on_c, 2, 59, 0
4, 27528, Note_on_c, 2, 62, 47
4, 27548, Note_on_c, 2, 62, 0
4, 27552, Note_on_c, 2, 64, 47
4, 27572, Note_on_c, 2, 64, 0
4, 27576, Note_on_c, 2, 67, 47
4, 27596, Note_on_c, 2, 67, 0
4, 27600, Note_on_c, 2, 57, 47
4, 27620, Note_on_c, 2, 57, 0
4, 27624, Note_on_c, 2, 61, 47
4, 27644, Note_on_c, 2, 61, 0
4, 27648, Note_on_c, 2, 62, 47
4, 27668, Note_on_c, 2, 62, 0
4, 27672, Note_on_c, 2, 69, 47
4, 27692, Note_on_c, 2, 69, 0
4, 27696, Note_on_c, 2, 66, 47
4, 27716, Note_on_c, 2, 66, 0
4, 27720, Note_on_c, 2, 62, 47
4, 27740, Note_on_c, 2, 62, 0
4, 27744, Note_on_c, 2, 57, 47
4, 27754, Note_on_c, 2, 57, 0
4, 27756, Note_on_c, 2, 57, 47
4, 27766, Note_on_c, 2, 57, 0
4, 27768, Note_on_c, 2, 61, 47
4, 27778, Note_on_c, 2, 61, 0
4, 27780, Note_on_c, 2, 61, 47
4, 27790, Note_on_c, 2, 61, 0
4, 27792, Note_on_c, 2, 64, 47
4, 27802, Note_on_c, 2, 64, 0
4, 27804, Note_on_c, 2, 64, 47
4, 27814, Note_on_c, 2, 64, 0
4, 27816, Note_on_c, 2, 69, 47
4, 27826, Note_on_c, 2, 69, 0
4, 27828, Note_on_c, 2, 69, 47
4, 27838, Note_on_c, 2, 69, 0
4, 27840, Note_on_c, 2, 73, 47
4, 27850, Note_on_c, 2, 73, 0
4, 27852, Note_on_c, 2, 73, 47
4, 27862, Note_on_c, 2, 73, 0
4, 27864, Note_on_c, 2, 76, 47
4, 27874, Note_on_c, 2, 76, 0
4, 27876, Note_on_c, 2, 76, 47
4, 27886, Note_on_c, 2, 76, 0
4, 27888, Note_on_c, 2, 79, 47
4, 27898, Note_on_c, 2, 79, 0
4, 27900, Note_on_c, 2, 79, 47
4, 27910, Note_on_c, 2, 79, 0
4, 27912, Note_on_c, 2, 85, 47
4, 27922, Note_on_c, 2, 85, 0
4, 27924, Note_on_c, 2, 85, 47
4, 27934, Note_on_c, 2, 85, 0
4, 27936, Note_on_c, 2, 86, 47
4, 27956, Note_on_c, 2, 86, 0
4, 27960, Note_on_c, 2, 79, 47
4, 27980, Note_on_c, 2, 79, 0
4, 28080, Note_on_c, 2, 57, 63
4, 28128, Note_on_c, 2, 57, 0
4, 28176, Note_on_c, 2, 57, 63
4, 28224, Note_on_c, 2, 57, 0
4, 28272, Note_on_c, 2, 57, 63
4, 28320, Note_on_c, 2, 57, 0
4, 28368, Note_on_c, 2, 57, 63
4, 28416, Note_on_c, 2, 57, 0
4, 28464, Note_on_c, 2, 57, 63
4, 28512, Note_on_c, 2, 57, 0
4, 28560, Note_on_c, 2, 57, 63
4, 28608, Note_on_c, 2, 57, 0
4, 28656, Note_on_c, 2, 57, 63
4, 28704, Note_on_c, 2, 57, 0
4, 28752, Note_on_c, 2, 57, 63
4, 28800, Note_on_c, 2, 57, 0
4, 28800, Note_on_c, 2, 61, 63
4, 28824, Note_on_c, 2, 61, 0
4, 28824, Note_on_c, 2, 64, 63
4, 28848, Note_on_c, 2, 64, 0
4, 28848, Note_on_c, 2, 66, 63
4, 28872, Note_on_c, 2, 66, 0
4, 28872, Note_on_c, 2, 69, 63
4, 28896, Note_on_c, 2, 69, 0
4, 28896, Note_on_c, 2, 61, 63
4, 28920, Note_on_c, 2, 61, 0
4, 28920, Note_on_c, 2, 64, 63
4, 28944, Note_on_c, 2, 64, 0
4, 28944, Note_on_c, 2, 66, 63
4, 28968, Note_on_c, 2, 66, 0
4, 28968, Note_on_c, 2, 69, 63
4, 28992, Note_on_c, 2, 69, 0
4, 28992, Note_on_c, 2, 59, 63
4, 29088, Note_on_c, 2, 59, 0
4, 29088, Note_on_c, 2, 61, 63
4, 29184, Note_on_c, 2, 61, 0
4, 29184, Note_on_c, 2, 62, 63
4, 29376, Note_on_c, 2, 62, 0
4, 29376, Note_on_c, 2, 64, 63
4, 29400, Note_on_c, 2, 64, 0
4, 41952, Control_c, 2, 10, 108
4, 41952, Control_c, 2, 7, 96
4, 41952, Pitch_bend_c, 2, 8192
4, 41952, Control_c, 2, 1, 0
4, 41952, Program_c, 2, 53
4, 41952, Control_c, 2, 64, 0
4, 41952, Note_on_c, 2, 62, 95
4, 41960, Note_on_c, 2, 62, 0
4, 41964, Note_on_c, 2, 62, 95
4, 41972, Note_on_c, 2, 62, 0
4, 41976, Note_on_c, 2, 66, 95
4, 41984, Note_on_c, 2, 66, 0
4, 41988, Note_on_c, 2, 66, 95
4, 41996, Note_on_c, 2, 66, 0
4, 42000, Note_on_c, 2, 69, 95
4, 42008, Note_on_c, 2, 69, 0
4, 42012, Note_on_c, 2, 69, 95
4, 42020, Note_on_c, 2, 69, 0
4, 42024, Note_on_c, 2, 74, 95
4, 42032, Note_on_c, 2, 74, 0
4, 42036, Note_on_c, 2, 74, 95
4, 42044, Note_on_c, 2, 74, 0
4, 42048, Note_on_c, 2, 73, 95
4, 42056, Note_on_c, 2, 73, 0
4, 42060, Note_on_c, 2, 74, 95
4, 42068, Note_on_c, 2, 74, 0
4, 42072, Note_on_c, 2, 73, 95
4, 42080, Note_on_c, 2, 73, 0
4, 42084, Note_on_c, 2, 71, 95
4, 42092, Note_on_c, 2, 71, 0
4, 42096, Note_on_c, 2, 69, 95
4, 42104, Note_on_c, 2, 69, 0
4, 42108, Note_on_c, 2, 67, 95
4, 42116, Note_on_c, 2, 67, 0
4, 42120, Note_on_c, 2, 66, 95
4, 42128, Note_on_c, 2, 66, 0
4, 42132, Note_on_c, 2, 64, 95
4, 42140, Note_on_c, 2, 64, 0
4, 42144, Control_c, 2, 7, 96
4, 42144, Pitch_bend_c, 2, 8192
4, 42144, Control_c, 2, 1, 0
4, 42144, Control_c, 2, 64, 0
4, 42144, Note_on_c, 2, 62, 95
4, 42152, Note_on_c, 2, 62, 0
4, 42156, Note_on_c, 2, 62, 95
4, 42164, Note_on_c, 2, 62, 0
4, 42168, Note_on_c, 2, 66, 95
4, 42176, Note_on_c, 2, 66, 0
4, 42180, Note_on_c, 2, 66, 95
4, 42188, Note_on_c, 2, 66, 0
4, 42192, Note_on_c, 2, 69, 95
4, 42200, Note_on_c, 2, 69, 0
4, 42204, Note_on_c, 2, 69, 95
4, 42212, Note_on_c, 2, 69, 0
4, 42216, Note_on_c, 2, 74, 95
4, 42224, Note_on_c, 2, 74, 0
4, 42228, Note_on_c, 2, 74, 95
4, 42236, Note_on_c, 2, 74, 0
4, 42240, Note_on_c, 2, 76, 95
4, 42256, Note_on_c, 2, 76, 0
4, 42264, Note_on_c, 2, 69, 95
4, 42280, Note_on_c, 2, 69, 0
4, 42312, Note_on_c, 2, 76, 95
4, 42328, Note_on_c, 2, 76, 0
4, 42336, Note_on_c, 2, 78, 95
4, 42344, Note_on_c, 2, 78, 0
4, 42348, Note_on_c, 2, 78, 95
4, 42356, Note_on_c, 2, 78, 0
4, 42360, Note_on_c, 2, 76, 95
4, 42368, Note_on_c, 2, 76, 0
4, 42372, Note_on_c, 2, 76, 95
4, 42380, Note_on_c, 2, 76, 0
4, 42384, Note_on_c, 2, 79, 95
4, 42392, Note_on_c, 2, 79, 0
4, 42396, Note_on_c, 2, 79, 95
4, 42404, Note_on_c, 2, 79, 0
4, 42408, Note_on_c, 2, 78, 95
4, 42416, Note_on_c, 2, 78, 0
4, 42420, Note_on_c, 2, 78, 95
4, 42428, Note_on_c, 2, 78, 0
4, 42432, Note_on_c, 2, 83, 95
4, 42440, Note_on_c, 2, 83, 0
4, 42444, Note_on_c, 2, 83, 95
4, 42452, Note_on_c, 2, 83, 0
4, 42456, Note_on_c, 2, 81, 95
4, 42464, Note_on_c, 2, 81, 0
4, 42468, Note_on_c, 2, 81, 95
4, 42476, Note_on_c, 2, 81, 0
4, 42480, Note_on_c, 2, 73, 95
4, 42488, Note_on_c, 2, 73, 0
4, 42492, Note_on_c, 2, 73, 95
4, 42500, Note_on_c, 2, 73, 0
4, 42504, Note_on_c, 2, 74, 95
4, 42512, Note_on_c, 2, 74, 0
4, 42516, Note_on_c, 2, 74, 95
4, 42524, Note_on_c, 2, 74, 0
4, 42528, Note_on_c, 2, 67, 95
4, 42536, Note_on_c, 2, 67, 0
4, 42540, Note_on_c, 2, 67, 95
4, 42548, Note_on_c, 2, 67, 0
4, 42552, Note_on_c, 2, 66, 95
4, 42560, Note_on_c, 2, 66, 0
4, 42564, Note_on_c, 2, 66, 95
4, 42572, Note_on_c, 2, 66, 0
4, 42576, Note_on_c, 2, 71, 95
4, 42584, Note_on_c, 2, 71, 0
4, 42588, Note_on_c, 2, 71, 95
4, 42596, Note_on_c, 2, 71, 0
4, 42600, Note_on_c, 2, 69, 95
4, 42608, Note_on_c, 2, 69, 0
4, 42612, Note_on_c, 2, 69, 95
4, 42620, Note_on_c, 2, 69, 0
4, 42624, Note_on_c, 2, 61, 95
4, 42632, Note_on_c, 2, 61, 0
4, 42636, Note_on_c, 2, 61, 95
4, 42644, Note_on_c, 2, 61, 0
4, 42648, Note_on_c, 2, 62, 95
4, 42656, Note_on_c, 2, 62, 0
4, 42660, Note_on_c, 2, 62, 95
4, 42668, Note_on_c, 2, 62, 0
4, 42672, Note_on_c, 2, 57, 95
4, 42680, Note_on_c, 2, 57, 0
4, 42684, Note_on_c, 2, 57, 95
4, 42692, Note_on_c, 2, 57, 0
4, 42696, Note_on_c, 2, 67, 95
4, 42704, Note_on_c, 2, 67, 0
4, 42708, Note_on_c, 2, 67, 95
4, 42716, Note_on_c, 2, 67, 0
4, 42720, Note_on_c, 2, 66, 95
4, 42728, Note_on_c, 2, 66, 0
4, 42732, Note_on_c, 2, 64, 95
4, 42740, Note_on_c, 2, 64, 0
4, 42744, Note_on_c, 2, 66, 95
4, 42752, Note_on_c, 2, 66, 0
4, 42756, Note_on_c, 2, 62, 95
4, 42764, Note_on_c, 2, 62, 0
4, 42768, Note_on_c, 2, 64, 95
4, 42776, Note_on_c, 2, 64, 0
4, 42780, Note_on_c, 2, 64, 95
4, 42788, Note_on_c, 2, 64, 0
4, 42792, Note_on_c, 2, 57, 95
4, 42800, Note_on_c, 2, 57, 0
4, 42804, Note_on_c, 2, 57, 95
4, 42812, Note_on_c, 2, 57, 0
4, 42816, Note_on_c, 2, 62, 95
4, 42824, Note_on_c, 2, 62, 0
4, 42828, Note_on_c, 2, 64, 95
4, 42836, Note_on_c, 2, 64, 0
4, 42840, Note_on_c, 2, 66, 95
4, 42848, Note_on_c, 2, 66, 0
4, 42852, Note_on_c, 2, 67, 95
4, 42860, Note_on_c, 2, 67, 0
4, 42864, Note_on_c, 2, 69, 95
4, 42872, Note_on_c, 2, 69, 0
4, 42876, Note_on_c, 2, 71, 95
4, 42884, Note_on_c, 2, 71, 0
4, 42888, Note_on_c, 2, 73, 95
4, 42896, Note_on_c, 2, 73, 0
4, 42900, Note_on_c, 2, 69, 95
4, 42908, Note_on_c, 2, 69, 0
4, 42912, Note_on_c, 2, 74, 95
4, 42920, Note_on_c, 2, 74, 0
4, 42924, Note_on_c, 2, 74, 95
4, 42932, Note_on_c, 2, 74, 0
4, 42936, Note_on_c, 2, 73, 95
4, 42944, Note_on_c, 2, 73, 0
4, 42948, Note_on_c, 2, 73, 95
4, 42956, Note_on_c, 2, 73, 0
4, 42960, Note_on_c, 2, 76, 95
4, 42968, Note_on_c, 2, 76, 0
4, 42972, Note_on_c, 2, 76, 95
4, 42980, Note_on_c, 2, 76, 0
4, 42984, Note_on_c, 2, 74, 95
4, 42992, Note_on_c, 2, 74, 0
4, 42996, Note_on_c, 2, 74, 95
4, 43004, Note_on_c, 2, 74, 0
4, 43008, Note_on_c, 2, 79, 95
4, 43016, Note_on_c, 2, 79, 0
4, 43020, Note_on_c, 2, 79, 95
4, 43028, Note_on_c, 2, 79, 0
4, 43032, Note_on_c, 2, 78, 95
4, 43040, Note_on_c, 2, 78, 0
4, 43044, Note_on_c, 2, 78, 95
4, 43052, Note_on_c, 2, 78, 0
4, 43056, Note_on_c, 2, 83, 95
4, 43064, Note_on_c, 2, 83, 0
4, 43068, Note_on_c, 2, 83, 95
4, 43076, Note_on_c, 2, 83, 0
4, 43080, Note_on_c, 2, 81, 95
4, 43088, Note_on_c, 2, 81, 0
4, 43092, Note_on_c, 2, 81, 95
4, 43100, Note_on_c, 2, 81, 0
4, 43104, Note_on_c, 2, 79, 95
4, 43112, Note_on_c, 2, 79, 0
4, 43116, Note_on_c, 2, 78, 95
4, 43124, Note_on_c, 2, 78, 0
4, 43128, Note_on_c, 2, 76, 95
4, 43136, Note_on_c, 2, 76, 0
4, 43140, Note_on_c, 2, 74, 95
4, 43148, Note_on_c, 2, 74, 0
4, 43152, Note_on_c, 2, 76, 95
4, 43168, Note_on_c, 2, 76, 0
4, 43176, Note_on_c, 2, 69, 95
4, 43184, Note_on_c, 2, 69, 0
4, 43188, Note_on_c, 2, 71, 95
4, 43196, Note_on_c, 2, 71, 0
4, 43200, Note_on_c, 2, 72, 95
4, 43208, Note_on_c, 2, 72, 0
4, 43212, Note_on_c, 2, 69, 95
4, 43220, Note_on_c, 2, 69, 0
4, 43224, Note_on_c, 2, 71, 95
4, 43232, Note_on_c, 2, 71, 0
4, 43236, Note_on_c, 2, 74, 95
4, 43244, Note_on_c, 2, 74, 0
4, 43248, Note_on_c, 2, 73, 95
4, 43256, Note_on_c, 2, 73, 0
4, 43260, Note_on_c, 2, 76, 95
4, 43268, Note_on_c, 2, 76, 0
4, 43272, Note_on_c, 2, 69, 95
4, 43280, Note_on_c, 2, 69, 0
4, 43284, Note_on_c, 2, 67, 95
4, 43292, Note_on_c, 2, 67, 0
4, 43296, Note_on_c, 2, 66, 95
4, 43304, Note_on_c, 2, 66, 0
4, 43308, Note_on_c, 2, 62, 95
4, 43316, Note_on_c, 2, 62, 0
4, 43320, Note_on_c, 2, 64, 95
4, 43328, Note_on_c, 2, 64, 0
4, 43332, Note_on_c, 2, 67, 95
4, 43340, Note_on_c, 2, 67, 0
4, 43344, Note_on_c, 2, 66, 95
4, 43352, Note_on_c, 2, 66, 0
4, 43356, Note_on_c, 2, 69, 95
4, 43364, Note_on_c, 2, 69, 0
4, 43368, Note_on_c, 2, 62, 95
4, 43376, Note_on_c, 2, 62, 0
4, 43380, Note_on_c, 2, 61, 95
4, 43388, Note_on_c, 2, 61, 0
4, 43392, Note_on_c, 2, 59, 95
4, 43400, Note_on_c, 2, 59, 0
4, 43404, Note_on_c, 2, 67, 95
4, 43412, Note_on_c, 2, 67, 0
4, 43416, Note_on_c, 2, 66, 95
4, 43424, Note_on_c, 2, 66, 0
4, 43428, Note_on_c, 2, 64, 95
4, 43436, Note_on_c, 2, 64, 0
4, 43440, Note_on_c, 2, 64, 95
4, 43464, Note_on_c, 2, 64, 0
4, 43476, Note_on_c, 2, 62, 95
4, 43484, Note_on_c, 2, 62, 0
4, 43488, Note_on_c, 2, 62, 95
4, 43536, Note_on_c, 2, 62, 0
4, 43536, End_track
5, 0, Start_track
5, 0, Title_t, "Flute"
5, 0, Control_c, 3, 10, 0
5, 0, Control_c, 3, 7, 96
5, 0, Pitch_bend_c, 3, 8192
5, 0, Control_c, 3, 1, 0
5, 0, Program_c, 3, 73
5, 0, Control_c, 3, 64, 0
5, 1560, Note_on_c, 3, 74, 95
5, 1584, Note_on_c, 3, 74, 0
5, 1584, Note_on_c, 3, 73, 95
5, 1608, Note_on_c, 3, 73, 0
5, 1608, Note_on_c, 3, 71, 95
5, 1632, Note_on_c, 3, 71, 0
5, 1632, Note_on_c, 3, 69, 95
5, 1728, Note_on_c, 3, 69, 0
5, 1752, Note_on_c, 3, 83, 95
5, 1768, Note_on_c, 3, 83, 0
5, 1776, Note_on_c, 3, 81, 95
5, 1792, Note_on_c, 3, 81, 0
5, 1800, Note_on_c, 3, 79, 95
5, 1816, Note_on_c, 3, 79, 0
5, 1824, Note_on_c, 3, 78, 95
5, 1832, Note_on_c, 3, 78, 0
5, 1836, Note_on_c, 3, 79, 95
5, 1844, Note_on_c, 3, 79, 0
5, 1848, Note_on_c, 3, 81, 95
5, 1880, Note_on_c, 3, 81, 0
5, 1896, Note_on_c, 3, 79, 95
5, 1904, Note_on_c, 3, 79, 0
5, 1908, Note_on_c, 3, 78, 95
5, 1916, Note_on_c, 3, 78, 0
5, 1920, Note_on_c, 3, 76, 95
5, 1936, Note_on_c, 3, 76, 0
5, 1944, Note_on_c, 3, 69, 95
5, 1960, Note_on_c, 3, 69, 0
5, 2136, Note_on_c, 3, 78, 95
5, 2152, Note_on_c, 3, 78, 0
5, 2160, Note_on_c, 3, 76, 95
5, 2176, Note_on_c, 3, 76, 0
5, 2184, Note_on_c, 3, 74, 95
5, 2200, Note_on_c, 3, 74, 0
5, 2208, Note_on_c, 3, 73, 95
5, 2240, Note_on_c, 3, 73, 0
5, 2280, Note_on_c, 3, 73, 95
5, 2296, Note_on_c, 3, 73, 0
5, 2304, Note_on_c, 3, 78, 95
5, 2320, Note_on_c, 3, 78, 0
5, 2328, Note_on_c, 3, 69, 95
5, 2344, Note_on_c, 3, 69, 0
5, 2352, Note_on_c, 3, 74, 95
5, 2360, Note_on_c, 3, 74, 0
5, 2364, Note_on_c, 3, 76, 95
5, 2372, Note_on_c, 3, 76, 0
5, 2376, Note_on_c, 3, 78, 95
5, 2384, Note_on_c, 3, 78, 0
5, 2388, Note_on_c, 3, 79, 95
5, 2396, Note_on_c, 3, 79, 0
5, 2400, Note_on_c, 3, 81, 95
5, 2416, Note_on_c, 3, 81, 0
5, 2424, Note_on_c, 3, 69, 95
5, 2440, Note_on_c, 3, 69, 0
5, 2520, Note_on_c, 3, 78, 95
5, 2525, Note_on_c, 3, 78, 0
5, 2528, Note_on_c, 3, 76, 95
5, 2533, Note_on_c, 3, 76, 0
5, 2536, Note_on_c, 3, 78, 95
5, 2541, Note_on_c, 3, 78, 0
5, 2544, Note_on_c, 3, 80, 95
5, 2549, Note_on_c, 3, 80, 0
5, 2552, Note_on_c, 3, 78, 95
5, 2557, Note_on_c, 3, 78, 0
5, 2560, Note_on_c, 3, 80, 95
5, 2565, Note_on_c, 3, 80, 0
5, 2568, Note_on_c, 3, 81, 95
5, 2573, Note_on_c, 3, 81, 0
5, 2576, Note_on_c, 3, 80, 95
5, 2581, Note_on_c, 3, 80, 0
5, 2584, Note_on_c, 3, 81, 95
5, 2589, Note_on_c, 3, 81, 0
5, 2592, Note_on_c, 3, 83, 95
5, 2655, Note_on_c, 3, 83, 0
5, 2712, Note_on_c, 3, 76, 95
5, 2720, Note_on_c, 3, 76, 0
5, 2720, Note_on_c, 3, 74, 95
5, 2725, Note_on_c, 3, 74, 0
5, 2728, Note_on_c, 3, 76, 95
5, 2733, Note_on_c, 3, 76, 0
5, 2736, Note_on_c, 3, 78, 95
5, 2741, Note_on_c, 3, 78, 0
5, 2744, Note_on_c, 3, 76, 95
5, 2749, Note_on_c, 3, 76, 0
5, 2752, Note_on_c, 3, 78, 95
5, 2757, Note_on_c, 3, 78, 0
5, 2760, Note_on_c, 3, 80, 95
5, 2765, Note_on_c, 3, 80, 0
5, 2768, Note_on_c, 3, 78, 95
5, 2773, Note_on_c, 3, 78, 0
5, 2776, Note_on_c, 3, 80, 95
5, 2781, Note_on_c, 3, 80, 0
5, 2784, Note_on_c, 3, 81, 95
5, 2847, Note_on_c, 3, 81, 0
5, 2904, Note_on_c, 3, 74, 95
5, 2909, Note_on_c, 3, 74, 0
5, 2912, Note_on_c, 3, 73, 95
5, 2917, Note_on_c, 3, 73, 0
5, 2920, Note_on_c, 3, 74, 95
5, 2925, Note_on_c, 3, 74, 0
5, 2928, Note_on_c, 3, 76, 95
5, 2933, Note_on_c, 3, 76, 0
5, 2936, Note_on_c, 3, 74, 95
5, 2941, Note_on_c, 3, 74, 0
5, 2944, Note_on_c, 3, 76, 95
5, 2949, Note_on_c, 3, 76, 0
5, 2952, Note_on_c, 3, 78, 95
5, 2957, Note_on_c, 3, 78, 0
5, 2960, Note_on_c, 3, 76, 95
5, 2965, Note_on_c, 3, 76, 0
5, 2968, Note_on_c, 3, 78, 95
5, 2973, Note_on_c, 3, 78, 0
5, 2976, Note_on_c, 3, 68, 95
5, 2992, Note_on_c, 3, 68, 0
5, 3000, Note_on_c, 3, 78, 95
5, 3016, Note_on_c, 3, 78, 0
5, 3024, Note_on_c, 3, 76, 95
5, 3040, Note_on_c, 3, 76, 0
5, 3048, Note_on_c, 3, 74, 95
5, 3064, Note_on_c, 3, 74, 0
5, 3072, Note_on_c, 3, 73, 95
5, 3088, Note_on_c, 3, 73, 0
5, 3096, Note_on_c, 3, 71, 95
5, 3104, Note_on_c, 3, 71, 0
5, 3108, Note_on_c, 3, 69, 95
5, 3116, Note_on_c, 3, 69, 0
5, 3120, Note_on_c, 3, 76, 95
5, 3152, Note_on_c, 3, 76, 0
5, 3180, Note_on_c, 3, 74, 95
5, 3188, Note_on_c, 3, 74, 0
5, 3192, Note_on_c, 3, 73, 95
5, 3200, Note_on_c, 3, 73, 0
5, 3204, Note_on_c, 3, 74, 95
5, 3212, Note_on_c, 3, 74, 0
5, 3216, Note_on_c, 3, 83, 95
5, 3232, Note_on_c, 3, 83, 0
5, 3240, Note_on_c, 3, 81, 95
5, 3256, Note_on_c, 3, 81, 0
5, 3264, Note_on_c, 3, 80, 95
5, 3280, Note_on_c, 3, 80, 0
5, 3288, Note_on_c, 3, 78, 95
5, 3296, Note_on_c, 3, 78, 0
5, 3300, Note_on_c, 3, 76, 95
5, 3308, Note_on_c, 3, 76, 0
5, 3312, Note_on_c, 3, 81, 95
5, 3360, Note_on_c, 3, 81, 0
5, 3396, Note_on_c, 3, 83, 95
5, 3404, Note_on_c, 3, 83, 0
5, 3408, Note_on_c, 3, 80, 95
5, 3432, Note_on_c, 3, 80, 0
5, 3444, Note_on_c, 3, 81, 95
5, 3452, Note_on_c, 3, 81, 0
5, 3456, Note_on_c, 3, 81, 95
5, 3488, Note_on_c, 3, 81, 0
5, 3816, Note_on_c, 3, 71, 79
5, 3832, Note_on_c, 3, 71, 0
5, 3840, Note_on_c, 3, 73, 79
5, 3856, Note_on_c, 3, 73, 0
5, 3864, Note_on_c, 3, 71, 79
5, 3880, Note_on_c, 3, 71, 0
5, 3888, Note_on_c, 3, 74, 79
5, 3904, Note_on_c, 3, 74, 0
5, 3912, Note_on_c, 3, 73, 79
5, 3928, Note_on_c, 3, 73, 0
5, 3936, Note_on_c, 3, 78, 79
5, 3968, Note_on_c, 3, 78, 0
5, 4008, Note_on_c, 3, 78, 79
5, 4024, Note_on_c, 3, 78, 0
5, 4032, Note_on_c, 3, 80, 79
5, 4048, Note_on_c, 3, 80, 0
5, 4056, Note_on_c, 3, 78, 79
5, 4072, Note_on_c, 3, 78, 0
5, 4080, Note_on_c, 3, 81, 79
5, 4096, Note_on_c, 3, 81, 0
5, 4104, Note_on_c, 3, 80, 79
5, 4120, Note_on_c, 3, 80, 0
5, 4128, Note_on_c, 3, 83, 79
5, 4144, Note_on_c, 3, 83, 0
5, 4152, Note_on_c, 3, 68, 79
5, 4168, Note_on_c, 3, 68, 0
5, 4176, Note_on_c, 3, 73, 79
5, 4271, Note_on_c, 3, 73, 0
5, 4320, Note_on_c, 3, 73, 79
5, 4336, Note_on_c, 3, 73, 0
5, 4344, Note_on_c, 3, 66, 79
5, 4360, Note_on_c, 3, 66, 0
5, 4368, Note_on_c, 3, 71, 79
5, 4463, Note_on_c, 3, 71, 0
5, 4524, Note_on_c, 3, 74, 79
5, 4532, Note_on_c, 3, 74, 0
5, 4536, Note_on_c, 3, 73, 79
5, 4544, Note_on_c, 3, 73, 0
5, 4548, Note_on_c, 3, 71, 79
5, 4556, Note_on_c, 3, 71, 0
5, 4560, Note_on_c, 3, 69, 79
5, 4568, Note_on_c, 3, 69, 0
5, 4572, Note_on_c, 3, 67, 79
5, 4580, Note_on_c, 3, 67, 0
5, 4584, Note_on_c, 3, 66, 79
5, 4592, Note_on_c, 3, 66, 0
5, 4596, Note_on_c, 3, 64, 79
5, 4604, Note_on_c, 3, 64, 0
5, 4608, Note_on_c, 3, 66, 79
5, 4624, Note_on_c, 3, 66, 0
5, 4632, Note_on_c, 3, 64, 79
5, 4648, Note_on_c, 3, 64, 0
5, 4656, Note_on_c, 3, 67, 79
5, 4672, Note_on_c, 3, 67, 0
5, 4680, Note_on_c, 3, 66, 79
5, 4696, Note_on_c, 3, 66, 0
5, 4704, Note_on_c, 3, 71, 79
5, 4736, Note_on_c, 3, 71, 0
5, 4776, Note_on_c, 3, 71, 79
5, 4792, Note_on_c, 3, 71, 0
5, 4800, Note_on_c, 3, 73, 79
5, 4816, Note_on_c, 3, 73, 0
5, 4824, Note_on_c, 3, 71, 79
5, 4840, Note_on_c, 3, 71, 0
5, 4848, Note_on_c, 3, 74, 79
5, 4864, Note_on_c, 3, 74, 0
5, 4872, Note_on_c, 3, 73, 79
5, 4888, Note_on_c, 3, 73, 0
5, 4896, Note_on_c, 3, 76, 79
5, 4928, Note_on_c, 3, 76, 0
5, 4968, Note_on_c, 3, 76, 79
5, 4984, Note_on_c, 3, 76, 0
5, 4992, Note_on_c, 3, 78, 79
5, 5008, Note_on_c, 3, 78, 0
5, 5016, Note_on_c, 3, 76, 79
5, 5032, Note_on_c, 3, 76, 0
5, 5040, Note_on_c, 3, 79, 79
5, 5056, Note_on_c, 3, 79, 0
5, 5064, Note_on_c, 3, 78, 79
5, 5080, Note_on_c, 3, 78, 0
5, 5088, Note_on_c, 3, 83, 79
5, 5104, Note_on_c, 3, 83, 0
5, 5112, Note_on_c, 3, 81, 79
5, 5128, Note_on_c, 3, 81, 0
5, 5136, Note_on_c, 3, 73, 79
5, 5152, Note_on_c, 3, 73, 0
5, 5160, Note_on_c, 3, 74, 79
5, 5176, Note_on_c, 3, 74, 0
5, 5184, Note_on_c, 3, 68, 79
5, 5200, Note_on_c, 3, 68, 0
5, 5208, Note_on_c, 3, 69, 79
5, 5224, Note_on_c, 3, 69, 0
5, 5232, Note_on_c, 3, 71, 79
5, 5248, Note_on_c, 3, 71, 0
5, 5256, Note_on_c, 3, 73, 79
5, 5272, Note_on_c, 3, 73, 0
5, 5280, Note_on_c, 3, 74, 79
5, 5288, Note_on_c, 3, 74, 0
5, 5292, Note_on_c, 3, 73, 79
5, 5300, Note_on_c, 3, 73, 0
5, 5304, Note_on_c, 3, 74, 79
5, 5312, Note_on_c, 3, 74, 0
5, 5316, Note_on_c, 3, 76, 79
5, 5324, Note_on_c, 3, 76, 0
5, 5328, Note_on_c, 3, 74, 79
5, 5336, Note_on_c, 3, 74, 0
5, 5340, Note_on_c, 3, 78, 79
5, 5348, Note_on_c, 3, 78, 0
5, 5352, Note_on_c, 3, 76, 79
5, 5360, Note_on_c, 3, 76, 0
5, 5364, Note_on_c, 3, 74, 79
5, 5372, Note_on_c, 3, 74, 0
5, 5376, Note_on_c, 3, 73, 79
5, 5392, Note_on_c, 3, 73, 0
5, 6000, Note_on_c, 3, 81, 95
5, 6096, Note_on_c, 3, 81, 0
5, 6096, Note_on_c, 3, 79, 95
5, 6144, Note_on_c, 3, 79, 0
5, 6192, Note_on_c, 3, 79, 95
5, 6288, Note_on_c, 3, 79, 0
5, 6288, Note_on_c, 3, 78, 95
5, 6336, Note_on_c, 3, 78, 0
5, 6384, Note_on_c, 3, 78, 95
5, 6480, Note_on_c, 3, 78, 0
5, 6480, Note_on_c, 3, 76, 95
5, 6504, Note_on_c, 3, 76, 0
5, 6504, Note_on_c, 3, 74, 95
5, 6528, Note_on_c, 3, 74, 0
5, 6528, Note_on_c, 3, 73, 95
5, 6576, Note_on_c, 3, 73, 0
5, 6576, Note_on_c, 3, 85, 95
5, 6672, Note_on_c, 3, 85, 0
5, 6672, Note_on_c, 3, 83, 95
5, 6696, Note_on_c, 3, 83, 0
5, 6696, Note_on_c, 3, 81, 95
5, 6720, Note_on_c, 3, 81, 0
5, 6720, Note_on_c, 3, 79, 95
5, 6864, Note_on_c, 3, 79, 0
5, 6864, Note_on_c, 3, 78, 95
5, 6888, Note_on_c, 3, 78, 0
5, 6888, Note_on_c, 3, 76, 95
5, 6912, Note_on_c, 3, 76, 0
5, 6912, Note_on_c, 3, 74, 95
5, 7008, Note_on_c, 3, 74, 0
5, 7032, Note_on_c, 3, 71, 95
5, 7056, Note_on_c, 3, 71, 0
5, 7056, Note_on_c, 3, 76, 95
5, 7068, Note_on_c, 3, 76, 0
5, 7068, Note_on_c, 3, 74, 95
5, 7080, Note_on_c, 3, 74, 0
5, 7080, Note_on_c, 3, 73, 95
5, 7092, Note_on_c, 3, 73, 0
5, 7092, Note_on_c, 3, 71, 95
5, 7104, Note_on_c, 3, 71, 0
5, 7104, Note_on_c, 3, 70, 95
5, 7128, Note_on_c, 3, 70, 0
5, 7128, Note_on_c, 3, 71, 95
5, 7134, Note_on_c, 3, 71, 0
5, 7134, Note_on_c, 3, 73, 95
5, 7140, Note_on_c, 3, 73, 0
5, 7140, Note_on_c, 3, 70, 95
5, 7146, Note_on_c, 3, 70, 0
5, 7146, Note_on_c, 3, 73, 95
5, 7152, Note_on_c, 3, 73, 0
5, 7152, Note_on_c, 3, 73, 95
5, 7224, Note_on_c, 3, 73, 0
5, 7224, Note_on_c, 3, 71, 95
5, 7236, Note_on_c, 3, 71, 0
5, 7236, Note_on_c, 3, 70, 95
5, 7248, Note_on_c, 3, 70, 0
5, 7248, Note_on_c, 3, 71, 95
5, 7296, Note_on_c, 3, 71, 0
5, 7332, Note_on_c, 3, 73, 95
5, 7344, Note_on_c, 3, 73, 0
5, 7344, Note_on_c, 3, 70, 95
5, 7380, Note_on_c, 3, 70, 0
5, 7380, Note_on_c, 3, 71, 95
5, 7392, Note_on_c, 3, 71, 0
5, 7392, Note_on_c, 3, 71, 95
5, 7424, Note_on_c, 3, 71, 0
5, 8088, Note_on_c, 3, 74, 95
5, 8112, Note_on_c, 3, 74, 0
5, 8112, Note_on_c, 3, 73, 95
5, 8136, Note_on_c, 3, 73, 0
5, 8136, Note_on_c, 3, 71, 95
5, 8160, Note_on_c, 3, 71, 0
5, 8160, Note_on_c, 3, 70, 95
5, 8208, Note_on_c, 3, 70, 0
5, 8232, Note_on_c, 3, 70, 95
5, 8256, Note_on_c, 3, 70, 0
5, 8256, Note_on_c, 3, 71, 95
5, 8268, Note_on_c, 3, 71, 0
5, 8268, Note_on_c, 3, 73, 95
5, 8280, Note_on_c, 3, 73, 0
5, 8280, Note_on_c, 3, 74, 95
5, 8316, Note_on_c, 3, 74, 0
5, 8316, Note_on_c, 3, 71, 95
5, 8328, Note_on_c, 3, 71, 0
5, 8328, Note_on_c, 3, 73, 95
5, 8340, Note_on_c, 3, 73, 0
5, 8340, Note_on_c, 3, 74, 95
5, 8352, Note_on_c, 3, 74, 0
5, 8352, Note_on_c, 3, 76, 95
5, 8400, Note_on_c, 3, 76, 0
5, 8412, Note_on_c, 3, 74, 95
5, 8424, Note_on_c, 3, 74, 0
5, 8424, Note_on_c, 3, 73, 95
5, 8436, Note_on_c, 3, 73, 0
5, 8436, Note_on_c, 3, 74, 95
5, 8448, Note_on_c, 3, 74, 0
5, 8448, Note_on_c, 3, 76, 95
5, 8472, Note_on_c, 3, 76, 0
5, 8472, Note_on_c, 3, 74, 95
5, 8496, Note_on_c, 3, 74, 0
5, 8496, Note_on_c, 3, 73, 95
5, 8520, Note_on_c, 3, 73, 0
5, 8520, Note_on_c, 3, 71, 95
5, 8544, Note_on_c, 3, 71, 0
5, 8544, Note_on_c, 3, 69, 95
5, 8640, Note_on_c, 3, 69, 0
5, 8664, Note_on_c, 3, 83, 95
5, 8688, Note_on_c, 3, 83, 0
5, 8688, Note_on_c, 3, 81, 95
5, 8712, Note_on_c, 3, 81, 0
5, 8712, Note_on_c, 3, 79, 95
5, 8736, Note_on_c, 3, 79, 0
5, 8736, Note_on_c, 3, 78, 95
5, 8748, Note_on_c, 3, 78, 0
5, 8748, Note_on_c, 3, 79, 95
5, 8760, Note_on_c, 3, 79, 0
5, 8760, Note_on_c, 3, 81, 95
5, 8796, Note_on_c, 3, 81, 0
5, 8796, Note_on_c, 3, 78, 95
5, 8808, Note_on_c, 3, 78, 0
5, 8808, Note_on_c, 3, 79, 95
5, 8820, Note_on_c, 3, 79, 0
5, 8820, Note_on_c, 3, 81, 95
5, 8832, Note_on_c, 3, 81, 0
5, 8832, Note_on_c, 3, 83, 95
5, 8880, Note_on_c, 3, 83, 0
5, 8904, Note_on_c, 3, 83, 95
5, 8928, Note_on_c, 3, 83, 0
5, 8928, Note_on_c, 3, 83, 95
5, 8940, Note_on_c, 3, 83, 0
5, 8940, Note_on_c, 3, 79, 95
5, 8952, Note_on_c, 3, 79, 0
5, 8952, Note_on_c, 3, 81, 95
5, 8960, Note_on_c, 3, 81, 0
5, 9000, Note_on_c, 3, 81, 95
5, 9024, Note_on_c, 3, 81, 0
5, 9024, Note_on_c, 3, 81, 95
5, 9036, Note_on_c, 3, 81, 0
5, 9036, Note_on_c, 3, 78, 95
5, 9048, Note_on_c, 3, 78, 0
5, 9048, Note_on_c, 3, 79, 95
5, 9056, Note_on_c, 3, 79, 0
5, 9096, Note_on_c, 3, 79, 95
5, 9120, Note_on_c, 3, 79, 0
5, 9120, Note_on_c, 3, 79, 95
5, 9132, Note_on_c, 3, 79, 0
5, 9132, Note_on_c, 3, 76, 95
5, 9144, Note_on_c, 3, 76, 0
5, 9144, Note_on_c, 3, 78, 95
5, 9156, Note_on_c, 3, 78, 0
5, 9156, Note_on_c, 3, 79, 95
5, 9168, Note_on_c, 3, 79, 0
5, 9168, Note_on_c, 3, 78, 95
5, 9180, Note_on_c, 3, 78, 0
5, 9180, Note_on_c, 3, 81, 95
5, 9192, Note_on_c, 3, 81, 0
5, 9192, Note_on_c, 3, 79, 95
5, 9204, Note_on_c, 3, 79, 0
5, 9204, Note_on_c, 3, 78, 95
5, 9216, Note_on_c, 3, 78, 0
5, 9216, Note_on_c, 3, 76, 95
5, 9240, Note_on_c, 3, 76, 0
5, 9240, Note_on_c, 3, 81, 95
5, 9264, Note_on_c, 3, 81, 0
5, 9288, Note_on_c, 3, 73, 95
5, 9312, Note_on_c, 3, 73, 0
5, 9312, Note_on_c, 3, 74, 95
5, 9324, Note_on_c, 3, 74, 0
5, 9324, Note_on_c, 3, 73, 95
5, 9336, Note_on_c, 3, 73, 0
5, 9336, Note_on_c, 3, 74, 95
5, 9348, Note_on_c, 3, 74, 0
5, 9348, Note_on_c, 3, 76, 95
5, 9360, Note_on_c, 3, 76, 0
5, 9360, Note_on_c, 3, 74, 95
5, 9372, Note_on_c, 3, 74, 0
5, 9372, Note_on_c, 3, 78, 95
5, 9384, Note_on_c, 3, 78, 0
5, 9384, Note_on_c, 3, 76, 95
5, 9396, Note_on_c, 3, 76, 0
5, 9396, Note_on_c, 3, 74, 95
5, 9408, Note_on_c, 3, 74, 0
5, 9408, Note_on_c, 3, 73, 95
5, 9432, Note_on_c, 3, 73, 0
5, 9432, Note_on_c, 3, 76, 95
5, 9456, Note_on_c, 3, 76, 0
5, 9456, Note_on_c, 3, 81, 95
5, 9600, Note_on_c, 3, 81, 0
5, 9600, Note_on_c, 3, 81, 95
5, 9624, Note_on_c, 3, 81, 0
5, 9624, Note_on_c, 3, 74, 95
5, 9648, Note_on_c, 3, 74, 0
5, 9648, Note_on_c, 3, 79, 95
5, 9792, Note_on_c, 3, 79, 0
5, 9792, Note_on_c, 3, 79, 95
5, 9804, Note_on_c, 3, 79, 0
5, 9804, Note_on_c, 3, 83, 95
5, 9816, Note_on_c, 3, 83, 0
5, 9816, Note_on_c, 3, 81, 95
5, 9828, Note_on_c, 3, 81, 0
5, 9828, Note_on_c, 3, 79, 95
5, 9840, Note_on_c, 3, 79, 0
5, 9840, Note_on_c, 3, 78, 95
5, 9852, Note_on_c, 3, 78, 0
5, 9852, Note_on_c, 3, 76, 95
5, 9864, Note_on_c, 3, 76, 0
5, 9864, Note_on_c, 3, 74, 95
5, 9876, Note_on_c, 3, 74, 0
5, 9876, Note_on_c, 3, 73, 95
5, 9888, Note_on_c, 3, 73, 0
5, 9888, Note_on_c, 3, 74, 95
5, 9912, Note_on_c, 3, 74, 0
5, 9912, Note_on_c, 3, 73, 95
5, 9936, Note_on_c, 3, 73, 0
5, 9936, Note_on_c, 3, 76, 95
5, 9960, Note_on_c, 3, 76, 0
5, 9960, Note_on_c, 3, 75, 95
5, 9984, Note_on_c, 3, 75, 0
5, 9984, Note_on_c, 3, 79, 95
5, 10032, Note_on_c, 3, 79, 0
5, 10056, Note_on_c, 3, 80, 95
5, 10080, Note_on_c, 3, 80, 0
5, 10080, Note_on_c, 3, 82, 95
5, 10104, Note_on_c, 3, 82, 0
5, 10104, Note_on_c, 3, 80, 95
5, 10128, Note_on_c, 3, 80, 0
5, 10128, Note_on_c, 3, 83, 95
5, 10152, Note_on_c, 3, 83, 0
5, 10152, Note_on_c, 3, 82, 95
5, 10176, Note_on_c, 3, 82, 0
5, 10176, Note_on_c, 3, 85, 95
5, 10200, Note_on_c, 3, 85, 0
5, 10200, Note_on_c, 3, 70, 95
5, 10224, Note_on_c, 3, 70, 0
5, 10224, Note_on_c, 3, 74, 95
5, 10368, Note_on_c, 3, 74, 0
5, 10368, Note_on_c, 3, 74, 95
5, 10392, Note_on_c, 3, 74, 0
5, 10392, Note_on_c, 3, 67, 95
5, 10416, Note_on_c, 3, 67, 0
5, 10416, Note_on_c, 3, 72, 95
5, 10560, Note_on_c, 3, 72, 0
5, 10560, Note_on_c, 3, 72, 95
5, 10572, Note_on_c, 3, 72, 0
5, 10572, Note_on_c, 3, 76, 95
5, 10584, Note_on_c, 3, 76, 0
5, 10584, Note_on_c, 3, 74, 95
5, 10596, Note_on_c, 3, 74, 0
5, 10596, Note_on_c, 3, 72, 95
5, 10608, Note_on_c, 3, 72, 0
5, 10608, Note_on_c, 3, 71, 95
5, 10620, Note_on_c, 3, 71, 0
5, 10620, Note_on_c, 3, 69, 95
5, 10632, Note_on_c, 3, 69, 0
5, 10632, Note_on_c, 3, 67, 95
5, 10644, Note_on_c, 3, 67, 0
5, 10644, Note_on_c, 3, 66, 95
5, 10656, Note_on_c, 3, 66, 0
5, 10656, Note_on_c, 3, 67, 95
5, 10848, Note_on_c, 3, 67, 0
5, 10848, Note_on_c, 3, 67, 95
5, 10872, Note_on_c, 3, 67, 0
5, 10872, Note_on_c, 3, 66, 95
5, 10896, Note_on_c, 3, 66, 0
5, 10896, Note_on_c, 3, 64, 95
5, 10920, Note_on_c, 3, 64, 0
5, 10920, Note_on_c, 3, 62, 95
5, 10944, Note_on_c, 3, 62, 0
5, 10944, Note_on_c, 3, 73, 95
5, 10950, Note_on_c, 3, 73, 0
5, 10950, Note_on_c, 3, 74, 95
5, 10956, Note_on_c, 3, 74, 0
5, 10956, Note_on_c, 3, 73, 95
5, 10962, Note_on_c, 3, 73, 0
5, 10962, Note_on_c, 3, 74, 95
5, 10968, Note_on_c, 3, 74, 0
5, 10968, Note_on_c, 3, 73, 95
5, 10974, Note_on_c, 3, 73, 0
5, 10974, Note_on_c, 3, 74, 95
5, 10980, Note_on_c, 3, 74, 0
5, 10980, Note_on_c, 3, 73, 95
5, 10986, Note_on_c, 3, 73, 0
5, 10986, Note_on_c, 3, 74, 95
5, 10992, Note_on_c, 3, 74, 0
5, 11496, Note_on_c, 3, 69, 95
5, 11508, Note_on_c, 3, 69, 0
5, 11508, Note_on_c, 3, 71, 95
5, 11520, Note_on_c, 3, 71, 0
5, 11520, Note_on_c, 3, 72, 95
5, 11528, Note_on_c, 3, 72, 0
5, 11532, Note_on_c, 3, 69, 95
5, 11540, Note_on_c, 3, 69, 0
5, 11544, Note_on_c, 3, 71, 95
5, 11552, Note_on_c, 3, 71, 0
5, 11556, Note_on_c, 3, 74, 95
5, 11564, Note_on_c, 3, 74, 0
5, 11568, Note_on_c, 3, 73, 95
5, 11576, Note_on_c, 3, 73, 0
5, 11580, Note_on_c, 3, 69, 95
5, 11588, Note_on_c, 3, 69, 0
5, 11592, Note_on_c, 3, 71, 95
5, 11600, Note_on_c, 3, 71, 0
5, 11604, Note_on_c, 3, 73, 95
5, 11612, Note_on_c, 3, 73, 0
5, 11616, Note_on_c, 3, 74, 95
5, 11624, Note_on_c, 3, 74, 0
5, 11628, Note_on_c, 3, 71, 95
5, 11636, Note_on_c, 3, 71, 0
5, 11640, Note_on_c, 3, 73, 95
5, 11648, Note_on_c, 3, 73, 0
5, 11652, Note_on_c, 3, 76, 95
5, 11660, Note_on_c, 3, 76, 0
5, 11664, Note_on_c, 3, 74, 95
5, 11672, Note_on_c, 3, 74, 0
5, 11676, Note_on_c, 3, 71, 95
5, 11684, Note_on_c, 3, 71, 0
5, 11688, Note_on_c, 3, 73, 95
5, 11696, Note_on_c, 3, 73, 0
5, 11700, Note_on_c, 3, 74, 95
5, 11708, Note_on_c, 3, 74, 0
5, 11712, Note_on_c, 3, 76, 95
5, 11720, Note_on_c, 3, 76, 0
5, 11724, Note_on_c, 3, 73, 95
5, 11732, Note_on_c, 3, 73, 0
5, 11736, Note_on_c, 3, 74, 95
5, 11744, Note_on_c, 3, 74, 0
5, 11748, Note_on_c, 3, 78, 95
5, 11756, Note_on_c, 3, 78, 0
5, 11760, Note_on_c, 3, 76, 95
5, 11768, Note_on_c, 3, 76, 0
5, 11772, Note_on_c, 3, 73, 95
5, 11780, Note_on_c, 3, 73, 0
5, 11784, Note_on_c, 3, 74, 95
5, 11792, Note_on_c, 3, 74, 0
5, 11796, Note_on_c, 3, 76, 95
5, 11804, Note_on_c, 3, 76, 0
5, 11808, Note_on_c, 3, 78, 95
5, 11832, Note_on_c, 3, 78, 0
5, 11832, Note_on_c, 3, 76, 95
5, 11856, Note_on_c, 3, 76, 0
5, 11856, Note_on_c, 3, 79, 95
5, 11880, Note_on_c, 3, 79, 0
5, 11880, Note_on_c, 3, 78, 95
5, 11904, Note_on_c, 3, 78, 0
5, 11904, Note_on_c, 3, 83, 95
5, 11928, Note_on_c, 3, 83, 0
5, 11928, Note_on_c, 3, 81, 95
5, 11952, Note_on_c, 3, 81, 0
5, 11952, Note_on_c, 3, 81, 95
5, 12096, Note_on_c, 3, 81, 0
5, 12096, Note_on_c, 3, 81, 95
5, 12106, Note_on_c, 3, 81, 0
5, 12108, Note_on_c, 3, 80, 95
5, 12118, Note_on_c, 3, 80, 0
5, 12120, Note_on_c, 3, 81, 95
5, 12130, Note_on_c, 3, 81, 0
5, 12132, Note_on_c, 3, 83, 95
5, 12142, Note_on_c, 3, 83, 0
5, 12144, Note_on_c, 3, 80, 95
5, 12149, Note_on_c, 3, 80, 0
5, 12150, Note_on_c, 3, 81, 95
5, 12155, Note_on_c, 3, 81, 0
5, 12156, Note_on_c, 3, 80, 95
5, 12161, Note_on_c, 3, 80, 0
5, 12162, Note_on_c, 3, 81, 95
5, 12167, Note_on_c, 3, 81, 0
5, 12168, Note_on_c, 3, 80, 95
5, 12173, Note_on_c, 3, 80, 0
5, 12174, Note_on_c, 3, 81, 95
5, 12179, Note_on_c, 3, 81, 0
5, 12180, Note_on_c, 3, 81, 95
5, 12190, Note_on_c, 3, 81, 0
5, 12192, Note_on_c, 3, 81, 95
5, 12232, Note_on_c, 3, 81, 0
5, 12312, Note_on_c, 3, 71, 95
5, 12332, Note_on_c, 3, 71, 0
5, 12336, Note_on_c, 3, 73, 95
5, 12360, Note_on_c, 3, 73, 0
5, 12360, Note_on_c, 3, 71, 95
5, 12384, Note_on_c, 3, 71, 0
5, 12384, Note_on_c, 3, 74, 95
5, 12408, Note_on_c, 3, 74, 0
5, 12408, Note_on_c, 3, 73, 95
5, 12432, Note_on_c, 3, 73, 0
5, 12432, Note_on_c, 3, 78, 95
5, 12456, Note_on_c, 3, 78, 0
5, 12456, Note_on_c, 3, 76, 95
5, 12480, Note_on_c, 3, 76, 0
5, 12480, Note_on_c, 3, 81, 95
5, 12576, Note_on_c, 3, 81, 0
5, 12576, Note_on_c, 3, 81, 95
5, 12600, Note_on_c, 3, 81, 0
5, 12600, Note_on_c, 3, 80, 95
5, 12624, Note_on_c, 3, 80, 0
5, 12624, Note_on_c, 3, 83, 95
5, 12648, Note_on_c, 3, 83, 0
5, 12648, Note_on_c, 3, 81, 95
5, 12672, Note_on_c, 3, 81, 0
5, 12672, Note_on_c, 3, 86, 95
5, 12696, Note_on_c, 3, 86, 0
5, 12696, Note_on_c, 3, 85, 95
5, 12720, Note_on_c, 3, 85, 0
5, 12720, Note_on_c, 3, 83, 95
5, 12744, Note_on_c, 3, 83, 0
5, 12744, Note_on_c, 3, 81, 95
5, 12754, Note_on_c, 3, 81, 0
5, 12756, Note_on_c, 3, 80, 95
5, 12766, Note_on_c, 3, 80, 0
5, 12768, Note_on_c, 3, 81, 95
5, 12778, Note_on_c, 3, 81, 0
5, 12780, Note_on_c, 3, 78, 95
5, 12790, Note_on_c, 3, 78, 0
5, 12792, Note_on_c, 3, 80, 95
5, 12802, Note_on_c, 3, 80, 0
5, 12804, Note_on_c, 3, 81, 95
5, 12814, Note_on_c, 3, 81, 0
5, 12816, Note_on_c, 3, 78, 95
5, 12856, Note_on_c, 3, 78, 0
5, 12876, Note_on_c, 3, 76, 95
5, 12886, Note_on_c, 3, 76, 0
5, 12888, Note_on_c, 3, 78, 95
5, 12898, Note_on_c, 3, 78, 0
5, 12900, Note_on_c, 3, 80, 95
5, 12910, Note_on_c, 3, 80, 0
5, 12912, Note_on_c, 3, 76, 95
5, 12922, Note_on_c, 3, 76, 0
5, 12924, Note_on_c, 3, 80, 95
5, 12934, Note_on_c, 3, 80, 0
5, 12936, Note_on_c, 3, 78, 95
5, 12946, Note_on_c, 3, 78, 0
5, 12948, Note_on_c, 3, 80, 95
5, 12958, Note_on_c, 3, 80, 0
5, 12960, Note_on_c, 3, 81, 95
5, 13056, Note_on_c, 3, 81, 0
5, 13068, Note_on_c, 3, 85, 95
5, 13078, Note_on_c, 3, 85, 0
5, 13080, Note_on_c, 3, 83, 95
5, 13090, Note_on_c, 3, 83, 0
5, 13092, Note_on_c, 3, 81, 95
5, 13102, Note_on_c, 3, 81, 0
5, 13104, Note_on_c, 3, 80, 95
5, 13114, Note_on_c, 3, 80, 0
5, 13116, Note_on_c, 3, 78, 95
5, 13126, Note_on_c, 3, 78, 0
5, 13128, Note_on_c, 3, 77, 95
5, 13138, Note_on_c, 3, 77, 0
5, 13140, Note_on_c, 3, 80, 95
5, 13150, Note_on_c, 3, 80, 0
5, 13152, Note_on_c, 3, 73, 95
5, 13232, Note_on_c, 3, 73, 0
5, 13260, Note_on_c, 3, 76, 95
5, 13270, Note_on_c, 3, 76, 0
5, 13272, Note_on_c, 3, 74, 95
5, 13282, Note_on_c, 3, 74, 0
5, 13284, Note_on_c, 3, 73, 95
5, 13294, Note_on_c, 3, 73, 0
5, 13296, Note_on_c, 3, 71, 95
5, 13306, Note_on_c, 3, 71, 0
5, 13308, Note_on_c, 3, 69, 95
5, 13318, Note_on_c, 3, 69, 0
5, 13320, Note_on_c, 3, 68, 95
5, 13330, Note_on_c, 3, 68, 0
5, 13332, Note_on_c, 3, 71, 95
5, 13342, Note_on_c, 3, 71, 0
5, 13344, Note_on_c, 3, 65, 95
5, 13384, Note_on_c, 3, 65, 0
5, 13416, Note_on_c, 3, 73, 63
5, 13436, Note_on_c, 3, 73, 0
5, 13440, Note_on_c, 3, 73, 63
5, 13476, Note_on_c, 3, 73, 0
5, 13476, Note_on_c, 3, 74, 63
5, 13488, Note_on_c, 3, 74, 0
5, 13488, Note_on_c, 3, 73, 63
5, 13500, Note_on_c, 3, 73, 0
5, 13500, Note_on_c, 3, 78, 63
5, 13512, Note_on_c, 3, 78, 0
5, 13512, Note_on_c, 3, 77, 63
5, 13524, Note_on_c, 3, 77, 0
5, 13524, Note_on_c, 3, 78, 63
5, 13536, Note_on_c, 3, 78, 0
5, 13536, Note_on_c, 3, 73, 63
5, 13572, Note_on_c, 3, 73, 0
5, 13572, Note_on_c, 3, 74, 63
5, 13584, Note_on_c, 3, 74, 0
5, 13584, Note_on_c, 3, 73, 63
5, 13596, Note_on_c, 3, 73, 0
5, 13596, Note_on_c, 3, 78, 63
5, 13608, Note_on_c, 3, 78, 0
5, 13608, Note_on_c, 3, 77, 63
5, 13620, Note_on_c, 3, 77, 0
5, 13620, Note_on_c, 3, 78, 63
5, 13632, Note_on_c, 3, 78, 0
5, 13632, Note_on_c, 3, 74, 63
5, 13656, Note_on_c, 3, 74, 0
5, 13680, Note_on_c, 3, 74, 63
5, 13704, Note_on_c, 3, 74, 0
5, 13728, Note_on_c, 3, 74, 63
5, 13752, Note_on_c, 3, 74, 0
5, 13776, Note_on_c, 3, 74, 63
5, 13800, Note_on_c, 3, 74, 0
5, 13824, Note_on_c, 3, 71, 63
5, 13860, Note_on_c, 3, 71, 0
5, 13860, Note_on_c, 3, 73, 63
5, 13872, Note_on_c, 3, 73, 0
5, 13872, Note_on_c, 3, 71, 63
5, 13884, Note_on_c, 3, 71, 0
5, 13884, Note_on_c, 3, 78, 63
5, 13896, Note_on_c, 3, 78, 0
5, 13896, Note_on_c, 3, 77, 63
5, 13908, Note_on_c, 3, 77, 0
5, 13908, Note_on_c, 3, 78, 63
5, 13920, Note_on_c, 3, 78, 0
5, 13920, Note_on_c, 3, 71, 63
5, 13956, Note_on_c, 3, 71, 0
5, 13956, Note_on_c, 3, 73, 63
5, 13968, Note_on_c, 3, 73, 0
5, 13968, Note_on_c, 3, 71, 63
5, 13980, Note_on_c, 3, 71, 0
5, 13980, Note_on_c, 3, 78, 63
5, 13992, Note_on_c, 3, 78, 0
5, 13992, Note_on_c, 3, 77, 63
5, 14004, Note_on_c, 3, 77, 0
5, 14004, Note_on_c, 3, 78, 63
5, 14016, Note_on_c, 3, 78, 0
5, 14016, Note_on_c, 3, 69, 63
5, 14040, Note_on_c, 3, 69, 0
5, 14064, Note_on_c, 3, 73, 63
5, 14088, Note_on_c, 3, 73, 0
5, 14112, Note_on_c, 3, 73, 63
5, 14136, Note_on_c, 3, 73, 0
5, 14160, Note_on_c, 3, 73, 63
5, 14184, Note_on_c, 3, 73, 0
5, 14208, Note_on_c, 3, 69, 63
5, 14244, Note_on_c, 3, 69, 0
5, 14244, Note_on_c, 3, 71, 63
5, 14256, Note_on_c, 3, 71, 0
5, 14256, Note_on_c, 3, 69, 63
5, 14268, Note_on_c, 3, 69, 0
5, 14268, Note_on_c, 3, 78, 63
5, 14280, Note_on_c, 3, 78, 0
5, 14280, Note_on_c, 3, 77, 63
5, 14292, Note_on_c, 3, 77, 0
5, 14292, Note_on_c, 3, 78, 63
5, 14304, Note_on_c, 3, 78, 0
5, 14304, Note_on_c, 3, 69, 63
5, 14340, Note_on_c, 3, 69, 0
5, 14340, Note_on_c, 3, 71, 63
5, 14352, Note_on_c, 3, 71, 0
5, 14352, Note_on_c, 3, 69, 63
5, 14364, Note_on_c, 3, 69, 0
5, 14364, Note_on_c, 3, 78, 63
5, 14376, Note_on_c, 3, 78, 0
5, 14376, Note_on_c, 3, 77, 63
5, 14388, Note_on_c, 3, 77, 0
5, 14388, Note_on_c, 3, 78, 63
5, 14400, Note_on_c, 3, 78, 0
5, 14400, Note_on_c, 3, 68, 63
5, 14424, Note_on_c, 3, 68, 0
5, 14448, Note_on_c, 3, 68, 63
5, 14472, Note_on_c, 3, 68, 0
5, 14496, Note_on_c, 3, 68, 63
5, 14520, Note_on_c, 3, 68, 0
5, 14544, Note_on_c, 3, 68, 63
5, 14568, Note_on_c, 3, 68, 0
5, 14592, Note_on_c, 3, 76, 63
5, 14628, Note_on_c, 3, 76, 0
5, 14628, Note_on_c, 3, 78, 63
5, 14640, Note_on_c, 3, 78, 0
5, 14640, Note_on_c, 3, 76, 63
5, 14652, Note_on_c, 3, 76, 0
5, 14652, Note_on_c, 3, 81, 63
5, 14664, Note_on_c, 3, 81, 0
5, 14664, Note_on_c, 3, 80, 63
5, 14676, Note_on_c, 3, 80, 0
5, 14676, Note_on_c, 3, 81, 63
5, 14688, Note_on_c, 3, 81, 0
5, 14688, Note_on_c, 3, 76, 63
5, 14724, Note_on_c, 3, 76, 0
5, 14724, Note_on_c, 3, 78, 63
5, 14736, Note_on_c, 3, 78, 0
5, 14736, Note_on_c, 3, 76, 63
5, 14748, Note_on_c, 3, 76, 0
5, 14748, Note_on_c, 3, 81, 63
5, 14760, Note_on_c, 3, 81, 0
5, 14760, Note_on_c, 3, 80, 63
5, 14772, Note_on_c, 3, 80, 0
5, 14772, Note_on_c, 3, 81, 63
5, 14784, Note_on_c, 3, 81, 0
5, 14784, Note_on_c, 3, 78, 63
5, 14808, Note_on_c, 3, 78, 0
5, 14832, Note_on_c, 3, 78, 63
5, 14856, Note_on_c, 3, 78, 0
5, 14880, Note_on_c, 3, 78, 63
5, 14904, Note_on_c, 3, 78, 0
5, 14928, Note_on_c, 3, 78, 63
5, 14952, Note_on_c, 3, 78, 0
5, 14976, Note_on_c, 3, 74, 63
5, 15012, Note_on_c, 3, 74, 0
5, 15012, Note_on_c, 3, 76, 63
5, 15024, Note_on_c, 3, 76, 0
5, 15024, Note_on_c, 3, 74, 63
5, 15036, Note_on_c, 3, 74, 0
5, 15036, Note_on_c, 3, 83, 63
5, 15048, Note_on_c, 3, 83, 0
5, 15048, Note_on_c, 3, 81, 63
5, 15060, Note_on_c, 3, 81, 0
5, 15060, Note_on_c, 3, 83, 63
5, 15072, Note_on_c, 3, 83, 0
5, 15072, Note_on_c, 3, 74, 63
5, 15108, Note_on_c, 3, 74, 0
5, 15108, Note_on_c, 3, 76, 63
5, 15120, Note_on_c, 3, 76, 0
5, 15120, Note_on_c, 3, 74, 63
5, 15132, Note_on_c, 3, 74, 0
5, 15132, Note_on_c, 3, 83, 63
5, 15144, Note_on_c, 3, 83, 0
5, 15144, Note_on_c, 3, 81, 63
5, 15156, Note_on_c, 3, 81, 0
5, 15156, Note_on_c, 3, 83, 63
5, 15168, Note_on_c, 3, 83, 0
5, 15168, Note_on_c, 3, 73, 63
5, 15192, Note_on_c, 3, 73, 0
5, 15216, Note_on_c, 3, 73, 63
5, 15240, Note_on_c, 3, 73, 0
5, 15264, Note_on_c, 3, 73, 63
5, 15288, Note_on_c, 3, 73, 0
5, 15312, Note_on_c, 3, 73, 63
5, 15336, Note_on_c, 3, 73, 0
5, 15384, Note_on_c, 3, 73, 63
5, 15408, Note_on_c, 3, 73, 0
5, 15408, Note_on_c, 3, 69, 63
5, 15432, Note_on_c, 3, 69, 0
5, 15432, Note_on_c, 3, 66, 63
5, 15456, Note_on_c, 3, 66, 0
5, 15480, Note_on_c, 3, 81, 63
5, 15504, Note_on_c, 3, 81, 0
5, 15504, Note_on_c, 3, 78, 63
5, 15528, Note_on_c, 3, 78, 0
5, 15528, Note_on_c, 3, 75, 63
5, 15552, Note_on_c, 3, 75, 0
5, 15576, Note_on_c, 3, 78, 63
5, 15600, Note_on_c, 3, 78, 0
5, 15600, Note_on_c, 3, 75, 63
5, 15624, Note_on_c, 3, 75, 0
5, 15624, Note_on_c, 3, 71, 63
5, 15648, Note_on_c, 3, 71, 0
5, 15672, Note_on_c, 3, 75, 63
5, 15696, Note_on_c, 3, 75, 0
5, 15696, Note_on_c, 3, 71, 63
5, 15720, Note_on_c, 3, 71, 0
5, 15720, Note_on_c, 3, 68, 63
5, 15744, Note_on_c, 3, 68, 0
5, 15768, Note_on_c, 3, 71, 63
5, 15792, Note_on_c, 3, 71, 0
5, 15792, Note_on_c, 3, 68, 63
5, 15816, Note_on_c, 3, 68, 0
5, 15816, Note_on_c, 3, 64, 63
5, 15840, Note_on_c, 3, 64, 0
5, 15864, Note_on_c, 3, 80, 63
5, 15888, Note_on_c, 3, 80, 0
5, 15888, Note_on_c, 3, 76, 63
5, 15912, Note_on_c, 3, 76, 0
5, 15912, Note_on_c, 3, 73, 63
5, 15936, Note_on_c, 3, 73, 0
5, 15960, Note_on_c, 3, 76, 63
5, 15984, Note_on_c, 3, 76, 0
5, 15984, Note_on_c, 3, 73, 63
5, 16008, Note_on_c, 3, 73, 0
5, 16008, Note_on_c, 3, 69, 63
5, 16032, Note_on_c, 3, 69, 0
5, 16056, Note_on_c, 3, 73, 63
5, 16080, Note_on_c, 3, 73, 0
5, 16080, Note_on_c, 3, 69, 63
5, 16104, Note_on_c, 3, 69, 0
5, 16104, Note_on_c, 3, 66, 63
5, 16128, Note_on_c, 3, 66, 0
5, 16152, Note_on_c, 3, 69, 63
5, 16176, Note_on_c, 3, 69, 0
5, 16176, Note_on_c, 3, 66, 63
5, 16200, Note_on_c, 3, 66, 0
5, 16200, Note_on_c, 3, 62, 63
5, 16224, Note_on_c, 3, 62, 0
5, 16248, Note_on_c, 3, 78, 63
5, 16272, Note_on_c, 3, 78, 0
5, 16272, Note_on_c, 3, 74, 63
5, 16296, Note_on_c, 3, 74, 0
5, 16296, Note_on_c, 3, 71, 63
5, 16320, Note_on_c, 3, 71, 0
5, 16344, Note_on_c, 3, 74, 63
5, 16368, Note_on_c, 3, 74, 0
5, 16368, Note_on_c, 3, 71, 63
5, 16392, Note_on_c, 3, 71, 0
5, 16392, Note_on_c, 3, 68, 63
5, 16416, Note_on_c, 3, 68, 0
5, 16440, Note_on_c, 3, 71, 63
5, 16464, Note_on_c, 3, 71, 0
5, 16464, Note_on_c, 3, 68, 63
5, 16488, Note_on_c, 3, 68, 0
5, 16488, Note_on_c, 3, 64, 63
5, 16512, Note_on_c, 3, 64, 0
5, 16536, Note_on_c, 3, 80, 63
5, 16560, Note_on_c, 3, 80, 0
5, 16560, Note_on_c, 3, 76, 63
5, 16584, Note_on_c, 3, 76, 0
5, 16584, Note_on_c, 3, 73, 63
5, 16608, Note_on_c, 3, 73, 0
5, 16632, Note_on_c, 3, 76, 63
5, 16656, Note_on_c, 3, 76, 0
5, 16656, Note_on_c, 3, 73, 63
5, 16680, Note_on_c, 3, 73, 0
5, 16680, Note_on_c, 3, 69, 63
5, 16704, Note_on_c, 3, 69, 0
5, 16728, Note_on_c, 3, 73, 63
5, 16752, Note_on_c, 3, 73, 0
5, 16752, Note_on_c, 3, 69, 63
5, 16776, Note_on_c, 3, 69, 0
5, 16776, Note_on_c, 3, 66, 63
5, 16800, Note_on_c, 3, 66, 0
5, 16824, Note_on_c, 3, 69, 63
5, 16848, Note_on_c, 3, 69, 0
5, 16848, Note_on_c, 3, 66, 63
5, 16872, Note_on_c, 3, 66, 0
5, 16872, Note_on_c, 3, 62, 63
5, 16896, Note_on_c, 3, 62, 0
5, 16920, Note_on_c, 3, 78, 63
5, 16944, Note_on_c, 3, 78, 0
5, 16944, Note_on_c, 3, 74, 63
5, 16968, Note_on_c, 3, 74, 0
5, 16968, Note_on_c, 3, 71, 63
5, 16992, Note_on_c, 3, 71, 0
5, 17016, Note_on_c, 3, 74, 63
5, 17040, Note_on_c, 3, 74, 0
5, 17040, Note_on_c, 3, 71, 63
5, 17064, Note_on_c, 3, 71, 0
5, 17064, Note_on_c, 3, 68, 63
5, 17088, Note_on_c, 3, 68, 0
5, 17112, Note_on_c, 3, 71, 63
5, 17136, Note_on_c, 3, 71, 0
5, 17136, Note_on_c, 3, 68, 63
5, 17160, Note_on_c, 3, 68, 0
5, 17160, Note_on_c, 3, 64, 63
5, 17184, Note_on_c, 3, 64, 0
5, 17208, Note_on_c, 3, 80, 63
5, 17232, Note_on_c, 3, 80, 0
5, 17232, Note_on_c, 3, 76, 63
5, 17256, Note_on_c, 3, 76, 0
5, 17256, Note_on_c, 3, 73, 63
5, 17280, Note_on_c, 3, 73, 0
5, 17304, Note_on_c, 3, 76, 63
5, 17328, Note_on_c, 3, 76, 0
5, 17328, Note_on_c, 3, 73, 63
5, 17352, Note_on_c, 3, 73, 0
5, 17352, Note_on_c, 3, 69, 63
5, 17376, Note_on_c, 3, 69, 0
5, 17400, Note_on_c, 3, 73, 63
5, 17424, Note_on_c, 3, 73, 0
5, 17424, Note_on_c, 3, 69, 63
5, 17448, Note_on_c, 3, 69, 0
5, 17448, Note_on_c, 3, 66, 63
5, 17472, Note_on_c, 3, 66, 0
5, 17496, Note_on_c, 3, 69, 63
5, 17520, Note_on_c, 3, 69, 0
5, 17520, Note_on_c, 3, 66, 63
5, 17544, Note_on_c, 3, 66, 0
5, 17544, Note_on_c, 3, 62, 63
5, 17568, Note_on_c, 3, 62, 0
5, 17592, Note_on_c, 3, 78, 63
5, 17616, Note_on_c, 3, 78, 0
5, 17616, Note_on_c, 3, 74, 63
5, 17640, Note_on_c, 3, 74, 0
5, 17640, Note_on_c, 3, 71, 63
5, 17664, Note_on_c, 3, 71, 0
5, 17664, Note_on_c, 3, 68, 63
5, 17704, Note_on_c, 3, 68, 0
5, 17856, Note_on_c, 3, 69, 63
5, 17896, Note_on_c, 3, 69, 0
5, 18048, Control_c, 3, 7, 77
5, 18048, Note_on_c, 3, 77, 63
5, 18053, Note_on_c, 3, 77, 0
5, 18054, Control_c, 3, 7, 78
5, 18054, Note_on_c, 3, 79, 63
5, 18059, Note_on_c, 3, 79, 0
5, 18060, Control_c, 3, 7, 79
5, 18060, Note_on_c, 3, 77, 63
5, 18065, Note_on_c, 3, 77, 0
5, 18066, Control_c, 3, 7, 80
5, 18066, Note_on_c, 3, 79, 63
5, 18071, Note_on_c, 3, 79, 0
5, 18072, Control_c, 3, 7, 81
5, 18072, Note_on_c, 3, 77, 63
5, 18077, Note_on_c, 3, 77, 0
5, 18078, Control_c, 3, 7, 82
5, 18078, Note_on_c, 3, 79, 63
5, 18083, Note_on_c, 3, 79, 0
5, 18084, Control_c, 3, 7, 84
5, 18084, Note_on_c, 3, 77, 63
5, 18089, Note_on_c, 3, 77, 0
5, 18090, Control_c, 3, 7, 85
5, 18090, Note_on_c, 3, 79, 63
5, 18095, Note_on_c, 3, 79, 0
5, 18096, Control_c, 3, 7, 86
5, 18096, Note_on_c, 3, 77, 63
5, 18101, Note_on_c, 3, 77, 0
5, 18102, Control_c, 3, 7, 87
5, 18102, Note_on_c, 3, 79, 63
5, 18107, Note_on_c, 3, 79, 0
5, 18108, Control_c, 3, 7, 88
5, 18108, Note_on_c, 3, 77, 63
5, 18113, Note_on_c, 3, 77, 0
5, 18114, Control_c, 3, 7, 90
5, 18114, Note_on_c, 3, 79, 63
5, 18119, Note_on_c, 3, 79, 0
5, 18120, Control_c, 3, 7, 91
5, 18120, Note_on_c, 3, 77, 63
5, 18125, Note_on_c, 3, 77, 0
5, 18126, Control_c, 3, 7, 92
5, 18126, Note_on_c, 3, 79, 63
5, 18131, Note_on_c, 3, 79, 0
5, 18132, Control_c, 3, 7, 93
5, 18132, Note_on_c, 3, 77, 63
5, 18137, Note_on_c, 3, 77, 0
5, 18138, Control_c, 3, 7, 94
5, 18138, Note_on_c, 3, 79, 63
5, 18143, Note_on_c, 3, 79, 0
5, 18144, Control_c, 3, 7, 96
5, 18144, Note_on_c, 3, 77, 63
5, 18149, Note_on_c, 3, 77, 0
5, 18150, Control_c, 3, 7, 97
5, 18150, Note_on_c, 3, 79, 63
5, 18155, Note_on_c, 3, 79, 0
5, 18156, Control_c, 3, 7, 98
5, 18156, Note_on_c, 3, 77, 63
5, 18161, Note_on_c, 3, 77, 0
5, 18162, Control_c, 3, 7, 99
5, 18162, Note_on_c, 3, 79, 63
5, 18167, Note_on_c, 3, 79, 0
5, 18168, Control_c, 3, 7, 100
5, 18168, Note_on_c, 3, 77, 63
5, 18173, Note_on_c, 3, 77, 0
5, 18174, Control_c, 3, 7, 101
5, 18174, Note_on_c, 3, 79, 63
5, 18179, Note_on_c, 3, 79, 0
5, 18180, Control_c, 3, 7, 103
5, 18180, Note_on_c, 3, 77, 63
5, 18185, Note_on_c, 3, 77, 0
5, 18186, Control_c, 3, 7, 104
5, 18186, Note_on_c, 3, 79, 63
5, 18191, Note_on_c, 3, 79, 0
5, 18192, Control_c, 3, 7, 105
5, 18192, Note_on_c, 3, 77, 63
5, 18197, Note_on_c, 3, 77, 0
5, 18198, Control_c, 3, 7, 106
5, 18198, Note_on_c, 3, 79, 63
5, 18203, Note_on_c, 3, 79, 0
5, 18204, Control_c, 3, 7, 107
5, 18204, Note_on_c, 3, 77, 63
5, 18209, Note_on_c, 3, 77, 0
5, 18210, Control_c, 3, 7, 109
5, 18210, Note_on_c, 3, 79, 63
5, 18215, Note_on_c, 3, 79, 0
5, 18216, Control_c, 3, 7, 110
5, 18216, Note_on_c, 3, 77, 63
5, 18221, Note_on_c, 3, 77, 0
5, 18222, Control_c, 3, 7, 111
5, 18222, Note_on_c, 3, 79, 63
5, 18227, Note_on_c, 3, 79, 0
5, 18228, Control_c, 3, 7, 112
5, 18228, Note_on_c, 3, 77, 63
5, 18233, Note_on_c, 3, 77, 0
5, 18234, Control_c, 3, 7, 113
5, 18234, Note_on_c, 3, 79, 63
5, 18239, Note_on_c, 3, 79, 0
5, 18240, Control_c, 3, 7, 77
5, 18240, Note_on_c, 3, 78, 63
5, 18245, Note_on_c, 3, 78, 0
5, 18246, Control_c, 3, 7, 78
5, 18246, Note_on_c, 3, 79, 63
5, 18251, Note_on_c, 3, 79, 0
5, 18252, Control_c, 3, 7, 79
5, 18252, Note_on_c, 3, 78, 63
5, 18257, Note_on_c, 3, 78, 0
5, 18258, Control_c, 3, 7, 80
5, 18258, Note_on_c, 3, 79, 63
5, 18263, Note_on_c, 3, 79, 0
5, 18264, Control_c, 3, 7, 81
5, 18264, Note_on_c, 3, 78, 63
5, 18269, Note_on_c, 3, 78, 0
5, 18270, Control_c, 3, 7, 82
5, 18270, Note_on_c, 3, 79, 63
5, 18275, Note_on_c, 3, 79, 0
5, 18276, Control_c, 3, 7, 84
5, 18276, Note_on_c, 3, 78, 63
5, 18281, Note_on_c, 3, 78, 0
5, 18282, Control_c, 3, 7, 85
5, 18282, Note_on_c, 3, 79, 63
5, 18287, Note_on_c, 3, 79, 0
5, 18288, Control_c, 3, 7, 86
5, 18288, Note_on_c, 3, 78, 63
5, 18293, Note_on_c, 3, 78, 0
5, 18294, Control_c, 3, 7, 87
5, 18294, Note_on_c, 3, 79, 63
5, 18299, Note_on_c, 3, 79, 0
5, 18300, Control_c, 3, 7, 88
5, 18300, Note_on_c, 3, 78, 63
5, 18305, Note_on_c, 3, 78, 0
5, 18306, Control_c, 3, 7, 90
5, 18306, Note_on_c, 3, 79, 63
5, 18311, Note_on_c, 3, 79, 0
5, 18312, Control_c, 3, 7, 91
5, 18312, Note_on_c, 3, 78, 63
5, 18317, Note_on_c, 3, 78, 0
5, 18318, Control_c, 3, 7, 92
5, 18318, Note_on_c, 3, 79, 63
5, 18323, Note_on_c, 3, 79, 0
5, 18324, Control_c, 3, 7, 93
5, 18324, Note_on_c, 3, 78, 63
5, 18329, Note_on_c, 3, 78, 0
5, 18330, Control_c, 3, 7, 94
5, 18330, Note_on_c, 3, 79, 63
5, 18335, Note_on_c, 3, 79, 0
5, 18336, Control_c, 3, 7, 96
5, 18336, Note_on_c, 3, 78, 63
5, 18341, Note_on_c, 3, 78, 0
5, 18342, Control_c, 3, 7, 97
5, 18342, Note_on_c, 3, 79, 63
5, 18347, Note_on_c, 3, 79, 0
5, 18348, Control_c, 3, 7, 98
5, 18348, Note_on_c, 3, 78, 63
5, 18353, Note_on_c, 3, 78, 0
5, 18354, Control_c, 3, 7, 99
5, 18354, Note_on_c, 3, 79, 63
5, 18359, Note_on_c, 3, 79, 0
5, 18360, Control_c, 3, 7, 100
5, 18360, Note_on_c, 3, 78, 63
5, 18365, Note_on_c, 3, 78, 0
5, 18366, Control_c, 3, 7, 101
5, 18366, Note_on_c, 3, 79, 63
5, 18371, Note_on_c, 3, 79, 0
5, 18372, Control_c, 3, 7, 103
5, 18372, Note_on_c, 3, 78, 63
5, 18377, Note_on_c, 3, 78, 0
5, 18378, Control_c, 3, 7, 104
5, 18378, Note_on_c, 3, 79, 63
5, 18383, Note_on_c, 3, 79, 0
5, 18384, Control_c, 3, 7, 105
5, 18384, Note_on_c, 3, 78, 63
5, 18389, Note_on_c, 3, 78, 0
5, 18390, Control_c, 3, 7, 106
5, 18390, Note_on_c, 3, 79, 63
5, 18395, Note_on_c, 3, 79, 0
5, 18396, Control_c, 3, 7, 107
5, 18396, Note_on_c, 3, 78, 63
5, 18401, Note_on_c, 3, 78, 0
5, 18402, Control_c, 3, 7, 109
5, 18402, Note_on_c, 3, 79, 63
5, 18407, Note_on_c, 3, 79, 0
5, 18408, Control_c, 3, 7, 110
5, 18408, Note_on_c, 3, 78, 63
5, 18413, Note_on_c, 3, 78, 0
5, 18414, Control_c, 3, 7, 111
5, 18414, Note_on_c, 3, 79, 63
5, 18419, Note_on_c, 3, 79, 0
5, 18420, Control_c, 3, 7, 112
5, 18420, Note_on_c, 3, 78, 63
5, 18425, Note_on_c, 3, 78, 0
5, 18426, Control_c, 3, 7, 113
5, 18426, Note_on_c, 3, 79, 63
5, 18431, Note_on_c, 3, 79, 0
5, 18432, Control_c, 3, 7, 75
5, 18432, Note_on_c, 3, 80, 63
5, 18437, Note_on_c, 3, 80, 0
5, 18438, Control_c, 3, 7, 76
5, 18438, Note_on_c, 3, 81, 63
5, 18443, Note_on_c, 3, 81, 0
5, 18444, Control_c, 3, 7, 77
5, 18444, Note_on_c, 3, 80, 63
5, 18449, Note_on_c, 3, 80, 0
5, 18450, Control_c, 3, 7, 78
5, 18450, Note_on_c, 3, 81, 63
5, 18455, Note_on_c, 3, 81, 0
5, 18456, Control_c, 3, 7, 80
5, 18456, Note_on_c, 3, 80, 63
5, 18461, Note_on_c, 3, 80, 0
5, 18462, Control_c, 3, 7, 81
5, 18462, Note_on_c, 3, 81, 63
5, 18467, Note_on_c, 3, 81, 0
5, 18468, Control_c, 3, 7, 82
5, 18468, Note_on_c, 3, 80, 63
5, 18473, Note_on_c, 3, 80, 0
5, 18474, Control_c, 3, 7, 83
5, 18474, Note_on_c, 3, 81, 63
5, 18479, Note_on_c, 3, 81, 0
5, 18480, Control_c, 3, 7, 85
5, 18480, Note_on_c, 3, 80, 63
5, 18485, Note_on_c, 3, 80, 0
5, 18486, Control_c, 3, 7, 86
5, 18486, Note_on_c, 3, 81, 63
5, 18491, Note_on_c, 3, 81, 0
5, 18492, Control_c, 3, 7, 87
5, 18492, Note_on_c, 3, 80, 63
5, 18497, Note_on_c, 3, 80, 0
5, 18498, Control_c, 3, 7, 88
5, 18498, Note_on_c, 3, 81, 63
5, 18503, Note_on_c, 3, 81, 0
5, 18504, Control_c, 3, 7, 90
5, 18504, Note_on_c, 3, 80, 63
5, 18509, Note_on_c, 3, 80, 0
5, 18510, Control_c, 3, 7, 91
5, 18510, Note_on_c, 3, 81, 63
5, 18515, Note_on_c, 3, 81, 0
5, 18516, Control_c, 3, 7, 92
5, 18516, Note_on_c, 3, 80, 63
5, 18521, Note_on_c, 3, 80, 0
5, 18522, Control_c, 3, 7, 93
5, 18522, Note_on_c, 3, 81, 63
5, 18527, Note_on_c, 3, 81, 0
5, 18528, Control_c, 3, 7, 95
5, 18528, Note_on_c, 3, 80, 63
5, 18533, Note_on_c, 3, 80, 0
5, 18534, Control_c, 3, 7, 96
5, 18534, Note_on_c, 3, 81, 63
5, 18539, Note_on_c, 3, 81, 0
5, 18540, Control_c, 3, 7, 97
5, 18540, Note_on_c, 3, 80, 63
5, 18545, Note_on_c, 3, 80, 0
5, 18546, Control_c, 3, 7, 98
5, 18546, Note_on_c, 3, 81, 63
5, 18551, Note_on_c, 3, 81, 0
5, 18552, Control_c, 3, 7, 100
5, 18552, Note_on_c, 3, 80, 63
5, 18557, Note_on_c, 3, 80, 0
5, 18558, Control_c, 3, 7, 101
5, 18558, Note_on_c, 3, 81, 63
5, 18563, Note_on_c, 3, 81, 0
5, 18564, Control_c, 3, 7, 102
5, 18564, Note_on_c, 3, 80, 63
5, 18569, Note_on_c, 3, 80, 0
5, 18570, Control_c, 3, 7, 103
5, 18570, Note_on_c, 3, 81, 63
5, 18575, Note_on_c, 3, 81, 0
5, 18576, Control_c, 3, 7, 105
5, 18576, Note_on_c, 3, 80, 63
5, 18581, Note_on_c, 3, 80, 0
5, 18582, Control_c, 3, 7, 106
5, 18582, Note_on_c, 3, 81, 63
5, 18587, Note_on_c, 3, 81, 0
5, 18588, Control_c, 3, 7, 107
5, 18588, Note_on_c, 3, 80, 63
5, 18593, Note_on_c, 3, 80, 0
5, 18594, Control_c, 3, 7, 108
5, 18594, Note_on_c, 3, 81, 63
5, 18599, Note_on_c, 3, 81, 0
5, 18600, Control_c, 3, 7, 110
5, 18600, Note_on_c, 3, 80, 63
5, 18605, Note_on_c, 3, 80, 0
5, 18606, Control_c, 3, 7, 111
5, 18606, Note_on_c, 3, 81, 63
5, 18611, Note_on_c, 3, 81, 0
5, 18612, Control_c, 3, 7, 112
5, 18612, Note_on_c, 3, 80, 63
5, 18617, Note_on_c, 3, 80, 0
5, 18618, Control_c, 3, 7, 113
5, 18618, Note_on_c, 3, 81, 63
5, 18623, Note_on_c, 3, 81, 0
5, 18624, Control_c, 3, 7, 78
5, 18624, Note_on_c, 3, 81, 63
5, 18630, Note_on_c, 3, 81, 0
5, 18630, Control_c, 3, 7, 79
5, 18630, Note_on_c, 3, 83, 63
5, 18636, Note_on_c, 3, 83, 0
5, 18636, Control_c, 3, 7, 80
5, 18636, Note_on_c, 3, 81, 63
5, 18642, Note_on_c, 3, 81, 0
5, 18642, Control_c, 3, 7, 81
5, 18642, Note_on_c, 3, 83, 63
5, 18648, Note_on_c, 3, 83, 0
5, 18648, Control_c, 3, 7, 82
5, 18648, Note_on_c, 3, 81, 63
5, 18654, Note_on_c, 3, 81, 0
5, 18654, Control_c, 3, 7, 83
5, 18654, Note_on_c, 3, 83, 63
5, 18660, Note_on_c, 3, 83, 0
5, 18660, Control_c, 3, 7, 84
5, 18660, Note_on_c, 3, 81, 63
5, 18666, Note_on_c, 3, 81, 0
5, 18666, Control_c, 3, 7, 86
5, 18666, Note_on_c, 3, 83, 63
5, 18672, Note_on_c, 3, 83, 0
5, 18672, Control_c, 3, 7, 87
5, 18672, Note_on_c, 3, 81, 63
5, 18678, Note_on_c, 3, 81, 0
5, 18678, Control_c, 3, 7, 88
5, 18678, Note_on_c, 3, 83, 63
5, 18684, Note_on_c, 3, 83, 0
5, 18684, Control_c, 3, 7, 89
5, 18684, Note_on_c, 3, 81, 63
5, 18690, Note_on_c, 3, 81, 0
5, 18690, Control_c, 3, 7, 90
5, 18690, Note_on_c, 3, 83, 63
5, 18696, Note_on_c, 3, 83, 0
5, 18696, Control_c, 3, 7, 91
5, 18696, Note_on_c, 3, 81, 63
5, 18702, Note_on_c, 3, 81, 0
5, 18702, Control_c, 3, 7, 93
5, 18702, Note_on_c, 3, 83, 63
5, 18708, Note_on_c, 3, 83, 0
5, 18708, Control_c, 3, 7, 94
5, 18708, Note_on_c, 3, 81, 63
5, 18714, Note_on_c, 3, 81, 0
5, 18714, Control_c, 3, 7, 95
5, 18714, Note_on_c, 3, 83, 63
5, 18720, Note_on_c, 3, 83, 0
5, 18720, Control_c, 3, 7, 96
5, 18720, Note_on_c, 3, 81, 63
5, 18726, Note_on_c, 3, 81, 0
5, 18726, Control_c, 3, 7, 97
5, 18726, Note_on_c, 3, 83, 63
5, 18732, Note_on_c, 3, 83, 0
5, 18732, Control_c, 3, 7, 98
5, 18732, Note_on_c, 3, 81, 63
5, 18738, Note_on_c, 3, 81, 0
5, 18738, Control_c, 3, 7, 99
5, 18738, Note_on_c, 3, 83, 63
5, 18744, Note_on_c, 3, 83, 0
5, 18744, Control_c, 3, 7, 101
5, 18744, Note_on_c, 3, 81, 63
5, 18750, Note_on_c, 3, 81, 0
5, 18750, Control_c, 3, 7, 102
5, 18750, Note_on_c, 3, 83, 63
5, 18756, Note_on_c, 3, 83, 0
5, 18756, Control_c, 3, 7, 103
5, 18756, Note_on_c, 3, 81, 63
5, 18762, Note_on_c, 3, 81, 0
5, 18762, Control_c, 3, 7, 104
5, 18762, Note_on_c, 3, 83, 63
5, 18768, Note_on_c, 3, 83, 0
5, 18768, Control_c, 3, 7, 105
5, 18768, Note_on_c, 3, 81, 63
5, 18774, Note_on_c, 3, 81, 0
5, 18774, Control_c, 3, 7, 106
5, 18774, Note_on_c, 3, 83, 63
5, 18780, Note_on_c, 3, 83, 0
5, 18780, Control_c, 3, 7, 108
5, 18780, Note_on_c, 3, 81, 63
5, 18786, Note_on_c, 3, 81, 0
5, 18786, Control_c, 3, 7, 109
5, 18786, Note_on_c, 3, 83, 63
5, 18792, Note_on_c, 3, 83, 0
5, 18792, Control_c, 3, 7, 110
5, 18792, Note_on_c, 3, 81, 63
5, 18798, Note_on_c, 3, 81, 0
5, 18798, Control_c, 3, 7, 111
5, 18798, Note_on_c, 3, 83, 63
5, 18804, Note_on_c, 3, 83, 0
5, 18804, Control_c, 3, 7, 112
5, 18804, Note_on_c, 3, 81, 63
5, 18810, Note_on_c, 3, 81, 0
5, 18810, Control_c, 3, 7, 113
5, 18810, Note_on_c, 3, 83, 63
5, 18816, Note_on_c, 3, 83, 0
5, 18816, Control_c, 3, 7, 74
5, 18816, Note_on_c, 3, 81, 63
5, 18822, Note_on_c, 3, 81, 0
5, 18822, Control_c, 3, 7, 75
5, 18822, Note_on_c, 3, 83, 63
5, 18828, Note_on_c, 3, 83, 0
5, 18828, Control_c, 3, 7, 76
5, 18828, Note_on_c, 3, 81, 63
5, 18834, Note_on_c, 3, 81, 0
5, 18834, Control_c, 3, 7, 77
5, 18834, Note_on_c, 3, 83, 63
5, 18840, Note_on_c, 3, 83, 0
5, 18840, Control_c, 3, 7, 79
5, 18840, Note_on_c, 3, 81, 63
5, 18846, Note_on_c, 3, 81, 0
5, 18846, Control_c, 3, 7, 80
5, 18846, Note_on_c, 3, 83, 63
5, 18852, Note_on_c, 3, 83, 0
5, 18852, Control_c, 3, 7, 81
5, 18852, Note_on_c, 3, 81, 63
5, 18858, Note_on_c, 3, 81, 0
5, 18858, Control_c, 3, 7, 82
5, 18858, Note_on_c, 3, 83, 63
5, 18864, Note_on_c, 3, 83, 0
5, 18864, Control_c, 3, 7, 84
5, 18864, Note_on_c, 3, 81, 63
5, 18870, Note_on_c, 3, 81, 0
5, 18870, Control_c, 3, 7, 85
5, 18870, Note_on_c, 3, 83, 63
5, 18876, Note_on_c, 3, 83, 0
5, 18876, Control_c, 3, 7, 86
5, 18876, Note_on_c, 3, 81, 63
5, 18882, Note_on_c, 3, 81, 0
5, 18882, Control_c, 3, 7, 88
5, 18882, Note_on_c, 3, 83, 63
5, 18888, Note_on_c, 3, 83, 0
5, 18888, Control_c, 3, 7, 89
5, 18888, Note_on_c, 3, 81, 63
5, 18894, Note_on_c, 3, 81, 0
5, 18894, Control_c, 3, 7, 90
5, 18894, Note_on_c, 3, 83, 63
5, 18900, Note_on_c, 3, 83, 0
5, 18900, Control_c, 3, 7, 91
5, 18900, Note_on_c, 3, 81, 63
5, 18906, Note_on_c, 3, 81, 0
5, 18906, Control_c, 3, 7, 93
5, 18906, Note_on_c, 3, 83, 63
5, 18912, Note_on_c, 3, 83, 0
5, 18912, Control_c, 3, 7, 94
5, 18912, Note_on_c, 3, 81, 63
5, 18918, Note_on_c, 3, 81, 0
5, 18918, Control_c, 3, 7, 95
5, 18918, Note_on_c, 3, 83, 63
5, 18924, Note_on_c, 3, 83, 0
5, 18924, Control_c, 3, 7, 97
5, 18924, Note_on_c, 3, 81, 63
5, 18930, Note_on_c, 3, 81, 0
5, 18930, Control_c, 3, 7, 98
5, 18930, Note_on_c, 3, 83, 63
5, 18936, Note_on_c, 3, 83, 0
5, 18936, Control_c, 3, 7, 99
5, 18936, Note_on_c, 3, 81, 63
5, 18942, Note_on_c, 3, 81, 0
5, 18942, Control_c, 3, 7, 100
5, 18942, Note_on_c, 3, 83, 63
5, 18948, Note_on_c, 3, 83, 0
5, 18948, Control_c, 3, 7, 102
5, 18948, Note_on_c, 3, 81, 63
5, 18954, Note_on_c, 3, 81, 0
5, 18954, Control_c, 3, 7, 103
5, 18954, Note_on_c, 3, 83, 63
5, 18960, Note_on_c, 3, 83, 0
5, 18960, Control_c, 3, 7, 104
5, 18960, Note_on_c, 3, 81, 63
5, 18966, Note_on_c, 3, 81, 0
5, 18966, Control_c, 3, 7, 106
5, 18966, Note_on_c, 3, 83, 63
5, 18972, Note_on_c, 3, 83, 0
5, 18972, Control_c, 3, 7, 107
5, 18972, Note_on_c, 3, 81, 63
5, 18978, Note_on_c, 3, 81, 0
5, 18978, Control_c, 3, 7, 108
5, 18978, Note_on_c, 3, 83, 63
5, 18984, Note_on_c, 3, 83, 0
5, 18984, Control_c, 3, 7, 109
5, 18984, Note_on_c, 3, 81, 63
5, 18990, Note_on_c, 3, 81, 0
5, 18990, Control_c, 3, 7, 111
5, 18990, Note_on_c, 3, 83, 63
5, 18996, Note_on_c, 3, 83, 0
5, 18996, Control_c, 3, 7, 112
5, 18996, Note_on_c, 3, 81, 63
5, 19002, Note_on_c, 3, 81, 0
5, 19002, Control_c, 3, 7, 113
5, 19002, Note_on_c, 3, 83, 63
5, 19008, Note_on_c, 3, 83, 0
5, 19008, Control_c, 3, 7, 75
5, 19008, Note_on_c, 3, 80, 63
5, 19014, Note_on_c, 3, 80, 0
5, 19014, Control_c, 3, 7, 76
5, 19014, Note_on_c, 3, 81, 63
5, 19020, Note_on_c, 3, 81, 0
5, 19020, Control_c, 3, 7, 77
5, 19020, Note_on_c, 3, 80, 63
5, 19026, Note_on_c, 3, 80, 0
5, 19026, Control_c, 3, 7, 78
5, 19026, Note_on_c, 3, 81, 63
5, 19032, Note_on_c, 3, 81, 0
5, 19032, Control_c, 3, 7, 80
5, 19032, Note_on_c, 3, 80, 63
5, 19038, Note_on_c, 3, 80, 0
5, 19038, Control_c, 3, 7, 81
5, 19038, Note_on_c, 3, 81, 63
5, 19044, Note_on_c, 3, 81, 0
5, 19044, Control_c, 3, 7, 82
5, 19044, Note_on_c, 3, 80, 63
5, 19050, Note_on_c, 3, 80, 0
5, 19050, Control_c, 3, 7, 83
5, 19050, Note_on_c, 3, 81, 63
5, 19056, Note_on_c, 3, 81, 0
5, 19056, Control_c, 3, 7, 85
5, 19056, Note_on_c, 3, 80, 63
5, 19062, Note_on_c, 3, 80, 0
5, 19062, Control_c, 3, 7, 86
5, 19062, Note_on_c, 3, 81, 63
5, 19068, Note_on_c, 3, 81, 0
5, 19068, Control_c, 3, 7, 87
5, 19068, Note_on_c, 3, 80, 63
5, 19074, Note_on_c, 3, 80, 0
5, 19074, Control_c, 3, 7, 88
5, 19074, Note_on_c, 3, 81, 63
5, 19080, Note_on_c, 3, 81, 0
5, 19080, Control_c, 3, 7, 90
5, 19080, Note_on_c, 3, 80, 63
5, 19086, Note_on_c, 3, 80, 0
5, 19086, Control_c, 3, 7, 91
5, 19086, Note_on_c, 3, 81, 63
5, 19092, Note_on_c, 3, 81, 0
5, 19092, Control_c, 3, 7, 92
5, 19092, Note_on_c, 3, 80, 63
5, 19098, Note_on_c, 3, 80, 0
5, 19098, Control_c, 3, 7, 93
5, 19098, Note_on_c, 3, 81, 63
5, 19104, Note_on_c, 3, 81, 0
5, 19104, Control_c, 3, 7, 95
5, 19104, Note_on_c, 3, 80, 63
5, 19110, Note_on_c, 3, 80, 0
5, 19110, Control_c, 3, 7, 96
5, 19110, Note_on_c, 3, 81, 63
5, 19116, Note_on_c, 3, 81, 0
5, 19116, Control_c, 3, 7, 97
5, 19116, Note_on_c, 3, 80, 63
5, 19122, Note_on_c, 3, 80, 0
5, 19122, Control_c, 3, 7, 98
5, 19122, Note_on_c, 3, 81, 63
5, 19128, Note_on_c, 3, 81, 0
5, 19128, Control_c, 3, 7, 100
5, 19128, Note_on_c, 3, 80, 63
5, 19134, Note_on_c, 3, 80, 0
5, 19134, Control_c, 3, 7, 101
5, 19134, Note_on_c, 3, 81, 63
5, 19140, Note_on_c, 3, 81, 0
5, 19140, Control_c, 3, 7, 102
5, 19140, Note_on_c, 3, 80, 63
5, 19146, Note_on_c, 3, 80, 0
5, 19146, Control_c, 3, 7, 103
5, 19146, Note_on_c, 3, 81, 63
5, 19152, Note_on_c, 3, 81, 0
5, 19152, Control_c, 3, 7, 105
5, 19152, Note_on_c, 3, 80, 63
5, 19158, Note_on_c, 3, 80, 0
5, 19158, Control_c, 3, 7, 106
5, 19158, Note_on_c, 3, 81, 63
5, 19164, Note_on_c, 3, 81, 0
5, 19164, Control_c, 3, 7, 107
5, 19164, Note_on_c, 3, 80, 63
5, 19170, Note_on_c, 3, 80, 0
5, 19170, Control_c, 3, 7, 108
5, 19170, Note_on_c, 3, 81, 63
5, 19176, Note_on_c, 3, 81, 0
5, 19176, Control_c, 3, 7, 110
5, 19176, Note_on_c, 3, 80, 63
5, 19182, Note_on_c, 3, 80, 0
5, 19182, Control_c, 3, 7, 111
5, 19182, Note_on_c, 3, 81, 63
5, 19188, Note_on_c, 3, 81, 0
5, 19188, Control_c, 3, 7, 112
5, 19188, Note_on_c, 3, 80, 63
5, 19194, Note_on_c, 3, 80, 0
5, 19194, Control_c, 3, 7, 113
5, 19194, Note_on_c, 3, 81, 63
5, 19200, Note_on_c, 3, 81, 0
5, 19200, Control_c, 3, 7, 97
5, 19200, Note_on_c, 3, 81, 63
5, 19296, Note_on_c, 3, 81, 0
5, 19296, Control_c, 3, 7, 97
5, 19500, Note_on_c, 3, 71, 95
5, 19510, Note_on_c, 3, 71, 0
5, 19512, Note_on_c, 3, 73, 95
5, 19522, Note_on_c, 3, 73, 0
5, 19524, Note_on_c, 3, 74, 95
5, 19534, Note_on_c, 3, 74, 0
5, 19536, Note_on_c, 3, 76, 95
5, 19616, Note_on_c, 3, 76, 0
5, 19632, Note_on_c, 3, 74, 95
5, 19712, Note_on_c, 3, 74, 0
5, 19740, Note_on_c, 3, 73, 95
5, 19750, Note_on_c, 3, 73, 0
5, 19752, Note_on_c, 3, 74, 95
5, 19762, Note_on_c, 3, 74, 0
5, 19764, Note_on_c, 3, 76, 95
5, 19774, Note_on_c, 3, 76, 0
5, 19776, Note_on_c, 3, 78, 95
5, 19786, Note_on_c, 3, 78, 0
5, 19788, Note_on_c, 3, 66, 95
5, 19798, Note_on_c, 3, 66, 0
5, 19800, Note_on_c, 3, 68, 95
5, 19810, Note_on_c, 3, 68, 0
5, 19812, Note_on_c, 3, 69, 95
5, 19822, Note_on_c, 3, 69, 0
5, 19824, Note_on_c, 3, 71, 95
5, 19834, Note_on_c, 3, 71, 0
5, 19836, Note_on_c, 3, 73, 95
5, 19846, Note_on_c, 3, 73, 0
5, 19848, Note_on_c, 3, 74, 95
5, 19858, Note_on_c, 3, 74, 0
5, 19860, Note_on_c, 3, 71, 95
5, 19870, Note_on_c, 3, 71, 0
5, 19872, Note_on_c, 3, 76, 95
5, 19882, Note_on_c, 3, 76, 0
5, 19884, Note_on_c, 3, 64, 95
5, 19894, Note_on_c, 3, 64, 0
5, 19896, Note_on_c, 3, 66, 95
5, 19906, Note_on_c, 3, 66, 0
5, 19908, Note_on_c, 3, 68, 95
5, 19918, Note_on_c, 3, 68, 0
5, 19920, Note_on_c, 3, 69, 95
5, 20000, Note_on_c, 3, 69, 0
5, 20016, Note_on_c, 3, 68, 95
5, 20056, Note_on_c, 3, 68, 0
5, 20064, Note_on_c, 3, 69, 95
5, 20104, Note_on_c, 3, 69, 0
5, 20124, Note_on_c, 3, 69, 95
5, 20134, Note_on_c, 3, 69, 0
5, 20136, Note_on_c, 3, 71, 95
5, 20146, Note_on_c, 3, 71, 0
5, 20148, Note_on_c, 3, 73, 95
5, 20158, Note_on_c, 3, 73, 0
5, 20160, Note_on_c, 3, 74, 95
5, 20170, Note_on_c, 3, 74, 0
5, 20172, Note_on_c, 3, 69, 95
5, 20182, Note_on_c, 3, 69, 0
5, 20184, Note_on_c, 3, 71, 95
5, 20194, Note_on_c, 3, 71, 0
5, 20196, Note_on_c, 3, 76, 95
5, 20206, Note_on_c, 3, 76, 0
5, 20208, Note_on_c, 3, 74, 95
5, 20218, Note_on_c, 3, 74, 0
5, 20220, Note_on_c, 3, 78, 95
5, 20230, Note_on_c, 3, 78, 0
5, 20232, Note_on_c, 3, 76, 95
5, 20242, Note_on_c, 3, 76, 0
5, 20244, Note_on_c, 3, 74, 95
5, 20254, Note_on_c, 3, 74, 0
5, 20256, Note_on_c, 3, 73, 95
5, 20266, Note_on_c, 3, 73, 0
5, 20268, Note_on_c, 3, 69, 95
5, 20278, Note_on_c, 3, 69, 0
5, 20280, Note_on_c, 3, 71, 95
5, 20290, Note_on_c, 3, 71, 0
5, 20292, Note_on_c, 3, 74, 95
5, 20302, Note_on_c, 3, 74, 0
5, 20304, Note_on_c, 3, 73, 95
5, 20314, Note_on_c, 3, 73, 0
5, 20316, Note_on_c, 3, 76, 95
5, 20326, Note_on_c, 3, 76, 0
5, 20328, Note_on_c, 3, 74, 95
5, 20338, Note_on_c, 3, 74, 0
5, 20340, Note_on_c, 3, 73, 95
5, 20350, Note_on_c, 3, 73, 0
5, 20352, Note_on_c, 3, 71, 95
5, 20362, Note_on_c, 3, 71, 0
5, 20364, Note_on_c, 3, 67, 95
5, 20374, Note_on_c, 3, 67, 0
5, 20376, Note_on_c, 3, 69, 95
5, 20386, Note_on_c, 3, 69, 0
5, 20388, Note_on_c, 3, 72, 95
5, 20398, Note_on_c, 3, 72, 0
5, 20400, Note_on_c, 3, 71, 95
5, 20410, Note_on_c, 3, 71, 0
5, 20412, Note_on_c, 3, 74, 95
5, 20422, Note_on_c, 3, 74, 0
5, 20424, Note_on_c, 3, 73, 95
5, 20434, Note_on_c, 3, 73, 0
5, 20436, Note_on_c, 3, 71, 95
5, 20446, Note_on_c, 3, 71, 0
5, 20448, Note_on_c, 3, 69, 95
5, 20458, Note_on_c, 3, 69, 0
5, 20460, Note_on_c, 3, 66, 95
5, 20470, Note_on_c, 3, 66, 0
5, 20472, Note_on_c, 3, 67, 95
5, 20482, Note_on_c, 3, 67, 0
5, 20484, Note_on_c, 3, 71, 95
5, 20494, Note_on_c, 3, 71, 0
5, 20496, Note_on_c, 3, 69, 95
5, 20506, Note_on_c, 3, 69, 0
5, 20508, Note_on_c, 3, 73, 95
5, 20518, Note_on_c, 3, 73, 0
5, 20520, Note_on_c, 3, 71, 95
5, 20530, Note_on_c, 3, 71, 0
5, 20532, Note_on_c, 3, 69, 95
5, 20542, Note_on_c, 3, 69, 0
5, 20544, Note_on_c, 3, 67, 95
5, 20554, Note_on_c, 3, 67, 0
5, 20556, Note_on_c, 3, 64, 95
5, 20566, Note_on_c, 3, 64, 0
5, 20568, Note_on_c, 3, 66, 95
5, 20578, Note_on_c, 3, 66, 0
5, 20580, Note_on_c, 3, 69, 95
5, 20590, Note_on_c, 3, 69, 0
5, 20592, Note_on_c, 3, 67, 95
5, 20602, Note_on_c, 3, 67, 0
5, 20604, Note_on_c, 3, 71, 95
5, 20614, Note_on_c, 3, 71, 0
5, 20616, Note_on_c, 3, 69, 95
5, 20626, Note_on_c, 3, 69, 0
5, 20628, Note_on_c, 3, 67, 95
5, 20638, Note_on_c, 3, 67, 0
5, 20640, Note_on_c, 3, 66, 95
5, 20650, Note_on_c, 3, 66, 0
5, 20652, Note_on_c, 3, 62, 95
5, 20662, Note_on_c, 3, 62, 0
5, 20664, Note_on_c, 3, 64, 95
5, 20674, Note_on_c, 3, 64, 0
5, 20676, Note_on_c, 3, 67, 95
5, 20686, Note_on_c, 3, 67, 0
5, 20688, Note_on_c, 3, 66, 95
5, 20698, Note_on_c, 3, 66, 0
5, 20700, Note_on_c, 3, 69, 95
5, 20710, Note_on_c, 3, 69, 0
5, 20712, Note_on_c, 3, 67, 95
5, 20722, Note_on_c, 3, 67, 0
5, 20724, Note_on_c, 3, 66, 95
5, 20734, Note_on_c, 3, 66, 0
5, 20736, Note_on_c, 3, 67, 95
5, 20746, Note_on_c, 3, 67, 0
5, 20748, Note_on_c, 3, 64, 95
5, 20758, Note_on_c, 3, 64, 0
5, 20760, Note_on_c, 3, 66, 95
5, 20770, Note_on_c, 3, 66, 0
5, 20772, Note_on_c, 3, 69, 95
5, 20782, Note_on_c, 3, 69, 0
5, 20784, Note_on_c, 3, 67, 95
5, 20794, Note_on_c, 3, 67, 0
5, 20796, Note_on_c, 3, 71, 95
5, 20806, Note_on_c, 3, 71, 0
5, 20808, Note_on_c, 3, 69, 95
5, 20818, Note_on_c, 3, 69, 0
5, 20820, Note_on_c, 3, 67, 95
5, 20830, Note_on_c, 3, 67, 0
5, 20832, Note_on_c, 3, 66, 95
5, 20842, Note_on_c, 3, 66, 0
5, 20844, Note_on_c, 3, 62, 95
5, 20854, Note_on_c, 3, 62, 0
5, 20856, Note_on_c, 3, 64, 95
5, 20866, Note_on_c, 3, 64, 0
5, 20868, Note_on_c, 3, 67, 95
5, 20878, Note_on_c, 3, 67, 0
5, 20880, Note_on_c, 3, 66, 95
5, 20890, Note_on_c, 3, 66, 0
5, 20892, Note_on_c, 3, 69, 95
5, 20902, Note_on_c, 3, 69, 0
5, 20904, Note_on_c, 3, 67, 95
5, 20914, Note_on_c, 3, 67, 0
5, 20916, Note_on_c, 3, 66, 95
5, 20926, Note_on_c, 3, 66, 0
5, 20928, Note_on_c, 3, 64, 95
5, 20948, Note_on_c, 3, 64, 0
5, 21144, Note_on_c, 3, 78, 95
5, 21164, Note_on_c, 3, 78, 0
5, 21168, Note_on_c, 3, 76, 95
5, 21188, Note_on_c, 3, 76, 0
5, 21192, Note_on_c, 3, 74, 95
5, 21212, Note_on_c, 3, 74, 0
5, 21216, Note_on_c, 3, 73, 95
5, 21256, Note_on_c, 3, 73, 0
5, 21288, Note_on_c, 3, 73, 95
5, 21308, Note_on_c, 3, 73, 0
5, 21312, Note_on_c, 3, 74, 95
5, 21332, Note_on_c, 3, 74, 0
5, 21336, Note_on_c, 3, 69, 95
5, 21356, Note_on_c, 3, 69, 0
5, 21360, Note_on_c, 3, 74, 95
5, 21370, Note_on_c, 3, 74, 0
5, 21372, Note_on_c, 3, 76, 95
5, 21382, Note_on_c, 3, 76, 0
5, 21384, Note_on_c, 3, 78, 95
5, 21394, Note_on_c, 3, 78, 0
5, 21396, Note_on_c, 3, 79, 95
5, 21406, Note_on_c, 3, 79, 0
5, 21408, Note_on_c, 3, 81, 95
5, 21428, Note_on_c, 3, 81, 0
5, 21432, Note_on_c, 3, 73, 95
5, 21452, Note_on_c, 3, 73, 0
5, 21456, Note_on_c, 3, 74, 95
5, 21476, Note_on_c, 3, 74, 0
5, 21480, Note_on_c, 3, 76, 95
5, 21500, Note_on_c, 3, 76, 0
5, 21504, Note_on_c, 3, 78, 95
5, 21524, Note_on_c, 3, 78, 0
5, 21528, Note_on_c, 3, 74, 95
5, 21548, Note_on_c, 3, 74, 0
5, 21552, Note_on_c, 3, 73, 95
5, 21572, Note_on_c, 3, 73, 0
5, 21576, Note_on_c, 3, 71, 95
5, 21596, Note_on_c, 3, 71, 0
5, 21600, Note_on_c, 3, 69, 95
5, 21680, Note_on_c, 3, 69, 0
5, 21720, Note_on_c, 3, 83, 95
5, 21740, Note_on_c, 3, 83, 0
5, 21744, Note_on_c, 3, 81, 95
5, 21764, Note_on_c, 3, 81, 0
5, 21768, Note_on_c, 3, 79, 95
5, 21788, Note_on_c, 3, 79, 0
5, 21792, Note_on_c, 3, 78, 95
5, 21802, Note_on_c, 3, 78, 0
5, 21804, Note_on_c, 3, 79, 95
5, 21814, Note_on_c, 3, 79, 0
5, 21816, Note_on_c, 3, 81, 95
5, 21856, Note_on_c, 3, 81, 0
5, 21864, Note_on_c, 3, 79, 95
5, 21874, Note_on_c, 3, 79, 0
5, 21876, Note_on_c, 3, 78, 95
5, 21886, Note_on_c, 3, 78, 0
5, 21888, Note_on_c, 3, 76, 95
5, 21908, Note_on_c, 3, 76, 0
5, 21912, Note_on_c, 3, 69, 95
5, 21932, Note_on_c, 3, 69, 0
5, 22008, Note_on_c, 3, 78, 95
5, 22015, Note_on_c, 3, 78, 0
5, 22016, Note_on_c, 3, 76, 95
5, 22023, Note_on_c, 3, 76, 0
5, 22024, Note_on_c, 3, 78, 95
5, 22031, Note_on_c, 3, 78, 0
5, 22032, Note_on_c, 3, 79, 95
5, 22039, Note_on_c, 3, 79, 0
5, 22040, Note_on_c, 3, 78, 95
5, 22047, Note_on_c, 3, 78, 0
5, 22048, Note_on_c, 3, 79, 95
5, 22055, Note_on_c, 3, 79, 0
5, 22056, Note_on_c, 3, 81, 95
5, 22063, Note_on_c, 3, 81, 0
5, 22064, Note_on_c, 3, 79, 95
5, 22071, Note_on_c, 3, 79, 0
5, 22072, Note_on_c, 3, 81, 95
5, 22079, Note_on_c, 3, 81, 0
5, 22080, Note_on_c, 3, 83, 95
5, 22160, Note_on_c, 3, 83, 0
5, 22200, Note_on_c, 3, 76, 95
5, 22207, Note_on_c, 3, 76, 0
5, 22208, Note_on_c, 3, 74, 95
5, 22215, Note_on_c, 3, 74, 0
5, 22216, Note_on_c, 3, 76, 95
5, 22223, Note_on_c, 3, 76, 0
5, 22224, Note_on_c, 3, 78, 95
5, 22231, Note_on_c, 3, 78, 0
5, 22232, Note_on_c, 3, 76, 95
5, 22239, Note_on_c, 3, 76, 0
5, 22240, Note_on_c, 3, 78, 95
5, 22247, Note_on_c, 3, 78, 0
5, 22248, Note_on_c, 3, 79, 95
5, 22255, Note_on_c, 3, 79, 0
5, 22256, Note_on_c, 3, 78, 95
5, 22263, Note_on_c, 3, 78, 0
5, 22264, Note_on_c, 3, 79, 95
5, 22271, Note_on_c, 3, 79, 0
5, 22272, Note_on_c, 3, 81, 95
5, 22328, Note_on_c, 3, 81, 0
5, 22392, Note_on_c, 3, 74, 95
5, 22399, Note_on_c, 3, 74, 0
5, 22400, Note_on_c, 3, 73, 95
5, 22407, Note_on_c, 3, 73, 0
5, 22408, Note_on_c, 3, 74, 95
5, 22415, Note_on_c, 3, 74, 0
5, 22416, Note_on_c, 3, 76, 95
5, 22423, Note_on_c, 3, 76, 0
5, 22424, Note_on_c, 3, 74, 95
5, 22431, Note_on_c, 3, 74, 0
5, 22432, Note_on_c, 3, 76, 95
5, 22439, Note_on_c, 3, 76, 0
5, 22440, Note_on_c, 3, 78, 95
5, 22447, Note_on_c, 3, 78, 0
5, 22448, Note_on_c, 3, 76, 95
5, 22455, Note_on_c, 3, 76, 0
5, 22456, Note_on_c, 3, 78, 95
5, 22463, Note_on_c, 3, 78, 0
5, 22464, Note_on_c, 3, 79, 95
5, 22520, Note_on_c, 3, 79, 0
5, 22584, Note_on_c, 3, 73, 95
5, 22591, Note_on_c, 3, 73, 0
5, 22592, Note_on_c, 3, 71, 95
5, 22599, Note_on_c, 3, 71, 0
5, 22600, Note_on_c, 3, 73, 95
5, 22607, Note_on_c, 3, 73, 0
5, 22608, Note_on_c, 3, 74, 95
5, 22615, Note_on_c, 3, 74, 0
5, 22616, Note_on_c, 3, 73, 95
5, 22623, Note_on_c, 3, 73, 0
5, 22624, Note_on_c, 3, 74, 95
5, 22631, Note_on_c, 3, 74, 0
5, 22632, Note_on_c, 3, 76, 95
5, 22639, Note_on_c, 3, 76, 0
5, 22640, Note_on_c, 3, 74, 95
5, 22647, Note_on_c, 3, 74, 0
5, 22648, Note_on_c, 3, 76, 95
5, 22655, Note_on_c, 3, 76, 0
5, 22656, Note_on_c, 3, 78, 95
5, 22666, Note_on_c, 3, 78, 0
5, 22668, Note_on_c, 3, 79, 95
5, 22678, Note_on_c, 3, 79, 0
5, 22680, Note_on_c, 3, 81, 95
5, 22701, Note_on_c, 3, 81, 0
5, 22728, Note_on_c, 3, 74, 95
5, 22749, Note_on_c, 3, 74, 0
5, 22752, Note_on_c, 3, 83, 95
5, 22773, Note_on_c, 3, 83, 0
5, 22776, Note_on_c, 3, 81, 95
5, 22797, Note_on_c, 3, 81, 0
5, 22800, Note_on_c, 3, 79, 95
5, 22810, Note_on_c, 3, 79, 0
5, 22812, Note_on_c, 3, 78, 95
5, 22822, Note_on_c, 3, 78, 0
5, 22824, Note_on_c, 3, 79, 95
5, 22855, Note_on_c, 3, 79, 0
5, 22860, Note_on_c, 3, 78, 95
5, 22870, Note_on_c, 3, 78, 0
5, 22872, Note_on_c, 3, 79, 95
5, 22882, Note_on_c, 3, 79, 0
5, 22884, Note_on_c, 3, 76, 95
5, 22894, Note_on_c, 3, 76, 0
5, 22896, Note_on_c, 3, 78, 95
5, 22917, Note_on_c, 3, 78, 0
5, 22920, Note_on_c, 3, 79, 95
5, 22925, Note_on_c, 3, 79, 0
5, 22926, Note_on_c, 3, 81, 95
5, 22931, Note_on_c, 3, 81, 0
5, 22932, Note_on_c, 3, 79, 95
5, 22937, Note_on_c, 3, 79, 0
5, 22938, Note_on_c, 3, 81, 95
5, 22943, Note_on_c, 3, 81, 0
5, 22944, Note_on_c, 3, 81, 95
5, 22965, Note_on_c, 3, 81, 0
5, 22968, Note_on_c, 3, 83, 95
5, 22989, Note_on_c, 3, 83, 0
5, 22992, Note_on_c, 3, 76, 95
5, 23023, Note_on_c, 3, 76, 0
5, 23028, Note_on_c, 3, 74, 95
5, 23038, Note_on_c, 3, 74, 0
5, 23040, Note_on_c, 3, 74, 95
5, 23082, Note_on_c, 3, 74, 0
5, 24024, Note_on_c, 3, 69, 95
5, 24044, Note_on_c, 3, 69, 0
5, 24048, Note_on_c, 3, 71, 95
5, 24068, Note_on_c, 3, 71, 0
5, 24072, Note_on_c, 3, 69, 95
5, 24092, Note_on_c, 3, 69, 0
5, 24096, Note_on_c, 3, 72, 95
5, 24116, Note_on_c, 3, 72, 0
5, 24120, Note_on_c, 3, 71, 95
5, 24140, Note_on_c, 3, 71, 0
5, 24144, Note_on_c, 3, 76, 95
5, 24164, Note_on_c, 3, 76, 0
5, 24168, Note_on_c, 3, 74, 95
5, 24188, Note_on_c, 3, 74, 0
5, 24192, Note_on_c, 3, 79, 95
5, 24272, Note_on_c, 3, 79, 0
5, 24312, Note_on_c, 3, 78, 95
5, 24332, Note_on_c, 3, 78, 0
5, 24336, Note_on_c, 3, 81, 95
5, 24356, Note_on_c, 3, 81, 0
5, 24360, Note_on_c, 3, 79, 95
5, 24380, Note_on_c, 3, 79, 0
5, 24384, Note_on_c, 3, 84, 95
5, 24404, Note_on_c, 3, 84, 0
5, 24408, Note_on_c, 3, 83, 95
5, 24428, Note_on_c, 3, 83, 0
5, 24432, Note_on_c, 3, 81, 95
5, 24452, Note_on_c, 3, 81, 0
5, 24456, Note_on_c, 3, 79, 95
5, 24466, Note_on_c, 3, 79, 0
5, 24468, Note_on_c, 3, 78, 95
5, 24478, Note_on_c, 3, 78, 0
5, 24480, Note_on_c, 3, 79, 95
5, 24490, Note_on_c, 3, 79, 0
5, 24492, Note_on_c, 3, 81, 95
5, 24502, Note_on_c, 3, 81, 0
5, 24504, Note_on_c, 3, 78, 95
5, 24514, Note_on_c, 3, 78, 0
5, 24516, Note_on_c, 3, 79, 95
5, 24526, Note_on_c, 3, 79, 0
5, 24528, Note_on_c, 3, 76, 95
5, 24533, Note_on_c, 3, 76, 0
5, 24534, Note_on_c, 3, 78, 95
5, 24539, Note_on_c, 3, 78, 0
5, 24540, Note_on_c, 3, 76, 95
5, 24545, Note_on_c, 3, 76, 0
5, 24546, Note_on_c, 3, 78, 95
5, 24551, Note_on_c, 3, 78, 0
5, 24552, Note_on_c, 3, 69, 95
5, 24562, Note_on_c, 3, 69, 0
5, 24564, Note_on_c, 3, 71, 95
5, 24574, Note_on_c, 3, 71, 0
5, 24576, Note_on_c, 3, 72, 95
5, 24586, Note_on_c, 3, 72, 0
5, 24588, Note_on_c, 3, 69, 95
5, 24598, Note_on_c, 3, 69, 0
5, 24600, Note_on_c, 3, 71, 95
5, 24610, Note_on_c, 3, 71, 0
5, 24612, Note_on_c, 3, 74, 95
5, 24622, Note_on_c, 3, 74, 0
5, 24624, Note_on_c, 3, 73, 95
5, 24634, Note_on_c, 3, 73, 0
5, 24636, Note_on_c, 3, 69, 95
5, 24646, Note_on_c, 3, 69, 0
5, 24648, Note_on_c, 3, 71, 95
5, 24658, Note_on_c, 3, 71, 0
5, 24660, Note_on_c, 3, 73, 95
5, 24670, Note_on_c, 3, 73, 0
5, 24672, Note_on_c, 3, 74, 95
5, 24682, Note_on_c, 3, 74, 0
5, 24684, Note_on_c, 3, 71, 95
5, 24694, Note_on_c, 3, 71, 0
5, 24696, Note_on_c, 3, 73, 95
5, 24706, Note_on_c, 3, 73, 0
5, 24708, Note_on_c, 3, 76, 95
5, 24718, Note_on_c, 3, 76, 0
5, 24720, Note_on_c, 3, 74, 95
5, 24730, Note_on_c, 3, 74, 0
5, 24732, Note_on_c, 3, 71, 95
5, 24742, Note_on_c, 3, 71, 0
5, 24744, Note_on_c, 3, 73, 95
5, 24754, Note_on_c, 3, 73, 0
5, 24756, Note_on_c, 3, 74, 95
5, 24766, Note_on_c, 3, 74, 0
5, 24768, Note_on_c, 3, 76, 95
5, 24778, Note_on_c, 3, 76, 0
5, 24780, Note_on_c, 3, 73, 95
5, 24790, Note_on_c, 3, 73, 0
5, 24792, Note_on_c, 3, 74, 95
5, 24802, Note_on_c, 3, 74, 0
5, 24804, Note_on_c, 3, 78, 95
5, 24814, Note_on_c, 3, 78, 0
5, 24816, Note_on_c, 3, 76, 95
5, 24826, Note_on_c, 3, 76, 0
5, 24828, Note_on_c, 3, 73, 95
5, 24838, Note_on_c, 3, 73, 0
5, 24840, Note_on_c, 3, 74, 95
5, 24850, Note_on_c, 3, 74, 0
5, 24852, Note_on_c, 3, 76, 95
5, 24862, Note_on_c, 3, 76, 0
5, 24864, Note_on_c, 3, 78, 95
5, 24884, Note_on_c, 3, 78, 0
5, 24888, Note_on_c, 3, 76, 95
5, 24908, Note_on_c, 3, 76, 0
5, 24912, Note_on_c, 3, 79, 95
5, 24932, Note_on_c, 3, 79, 0
5, 24936, Note_on_c, 3, 78, 95
5, 24956, Note_on_c, 3, 78, 0
5, 24960, Note_on_c, 3, 83, 95
5, 24980, Note_on_c, 3, 83, 0
5, 24984, Note_on_c, 3, 81, 95
5, 25004, Note_on_c, 3, 81, 0
5, 25008, Note_on_c, 3, 81, 95
5, 25167, Note_on_c, 3, 81, 0
5, 25200, Note_on_c, 3, 79, 95
5, 25280, Note_on_c, 3, 79, 0
5, 25296, Note_on_c, 3, 78, 95
5, 25376, Note_on_c, 3, 78, 0
5, 25392, Note_on_c, 3, 76, 95
5, 25472, Note_on_c, 3, 76, 0
5, 25500, Note_on_c, 3, 74, 95
5, 25510, Note_on_c, 3, 74, 0
5, 25512, Note_on_c, 3, 76, 95
5, 25522, Note_on_c, 3, 76, 0
5, 25524, Note_on_c, 3, 78, 95
5, 25534, Note_on_c, 3, 78, 0
5, 25536, Note_on_c, 3, 79, 95
5, 25546, Note_on_c, 3, 79, 0
5, 25548, Note_on_c, 3, 76, 95
5, 25558, Note_on_c, 3, 76, 0
5, 25560, Note_on_c, 3, 78, 95
5, 25570, Note_on_c, 3, 78, 0
5, 25572, Note_on_c, 3, 81, 95
5, 25582, Note_on_c, 3, 81, 0
5, 25584, Note_on_c, 3, 79, 95
5, 25594, Note_on_c, 3, 79, 0
5, 25596, Note_on_c, 3, 83, 95
5, 25606, Note_on_c, 3, 83, 0
5, 25608, Note_on_c, 3, 81, 95
5, 25618, Note_on_c, 3, 81, 0
5, 25620, Note_on_c, 3, 79, 95
5, 25630, Note_on_c, 3, 79, 0
5, 25632, Note_on_c, 3, 78, 95
5, 25642, Note_on_c, 3, 78, 0
5, 25644, Note_on_c, 3, 74, 95
5, 25654, Note_on_c, 3, 74, 0
5, 25656, Note_on_c, 3, 76, 95
5, 25666, Note_on_c, 3, 76, 0
5, 25668, Note_on_c, 3, 79, 95
5, 25678, Note_on_c, 3, 79, 0
5, 25680, Note_on_c, 3, 78, 95
5, 25690, Note_on_c, 3, 78, 0
5, 25692, Note_on_c, 3, 81, 95
5, 25702, Note_on_c, 3, 81, 0
5, 25704, Note_on_c, 3, 79, 95
5, 25714, Note_on_c, 3, 79, 0
5, 25716, Note_on_c, 3, 78, 95
5, 25726, Note_on_c, 3, 78, 0
5, 25728, Note_on_c, 3, 76, 95
5, 25738, Note_on_c, 3, 76, 0
5, 25740, Note_on_c, 3, 73, 95
5, 25750, Note_on_c, 3, 73, 0
5, 25752, Note_on_c, 3, 74, 95
5, 25762, Note_on_c, 3, 74, 0
5, 25764, Note_on_c, 3, 78, 95
5, 25774, Note_on_c, 3, 78, 0
5, 25776, Note_on_c, 3, 76, 95
5, 25786, Note_on_c, 3, 76, 0
5, 25788, Note_on_c, 3, 79, 95
5, 25798, Note_on_c, 3, 79, 0
5, 25800, Note_on_c, 3, 78, 95
5, 25810, Note_on_c, 3, 78, 0
5, 25812, Note_on_c, 3, 76, 95
5, 25822, Note_on_c, 3, 76, 0
5, 25824, Note_on_c, 3, 78, 95
5, 25834, Note_on_c, 3, 78, 0
5, 25836, Note_on_c, 3, 74, 95
5, 25846, Note_on_c, 3, 74, 0
5, 25848, Note_on_c, 3, 76, 95
5, 25858, Note_on_c, 3, 76, 0
5, 25860, Note_on_c, 3, 79, 95
5, 25870, Note_on_c, 3, 79, 0
5, 25872, Note_on_c, 3, 78, 95
5, 25882, Note_on_c, 3, 78, 0
5, 25884, Note_on_c, 3, 81, 95
5, 25894, Note_on_c, 3, 81, 0
5, 25896, Note_on_c, 3, 79, 95
5, 25906, Note_on_c, 3, 79, 0
5, 25908, Note_on_c, 3, 78, 95
5, 25918, Note_on_c, 3, 78, 0
5, 25920, Note_on_c, 3, 80, 95
5, 25930, Note_on_c, 3, 80, 0
5, 25932, Note_on_c, 3, 76, 95
5, 25942, Note_on_c, 3, 76, 0
5, 25944, Note_on_c, 3, 78, 95
5, 25954, Note_on_c, 3, 78, 0
5, 25956, Note_on_c, 3, 81, 95
5, 25966, Note_on_c, 3, 81, 0
5, 25968, Note_on_c, 3, 80, 95
5, 25978, Note_on_c, 3, 80, 0
5, 25980, Note_on_c, 3, 83, 95
5, 25990, Note_on_c, 3, 83, 0
5, 25992, Note_on_c, 3, 81, 95
5, 26002, Note_on_c, 3, 81, 0
5, 26004, Note_on_c, 3, 80, 95
5, 26014, Note_on_c, 3, 80, 0
5, 26016, Note_on_c, 3, 81, 95
5, 26056, Note_on_c, 3, 81, 0
5, 26664, Note_on_c, 3, 74, 95
5, 26674, Note_on_c, 3, 74, 0
5, 26676, Note_on_c, 3, 76, 95
5, 26686, Note_on_c, 3, 76, 0
5, 26688, Note_on_c, 3, 74, 95
5, 26708, Note_on_c, 3, 74, 0
5, 26808, Note_on_c, 3, 76, 95
5, 26818, Note_on_c, 3, 76, 0
5, 26820, Note_on_c, 3, 78, 95
5, 26830, Note_on_c, 3, 78, 0
5, 26832, Note_on_c, 3, 76, 95
5, 26852, Note_on_c, 3, 76, 0
5, 26904, Note_on_c, 3, 76, 95
5, 26914, Note_on_c, 3, 76, 0
5, 26916, Note_on_c, 3, 78, 95
5, 26926, Note_on_c, 3, 78, 0
5, 26928, Note_on_c, 3, 76, 95
5, 26948, Note_on_c, 3, 76, 0
5, 26952, Note_on_c, 3, 73, 95
5, 26972, Note_on_c, 3, 73, 0
5, 26976, Note_on_c, 3, 78, 95
5, 26996, Note_on_c, 3, 78, 0
5, 27048, Note_on_c, 3, 78, 95
5, 27058, Note_on_c, 3, 78, 0
5, 27060, Note_on_c, 3, 79, 95
5, 27070, Note_on_c, 3, 79, 0
5, 27072, Note_on_c, 3, 78, 95
5, 27092, Note_on_c, 3, 78, 0
5, 27192, Note_on_c, 3, 81, 95
5, 27202, Note_on_c, 3, 81, 0
5, 27204, Note_on_c, 3, 83, 95
5, 27214, Note_on_c, 3, 83, 0
5, 27216, Note_on_c, 3, 81, 95
5, 27236, Note_on_c, 3, 81, 0
5, 27288, Note_on_c, 3, 81, 95
5, 27298, Note_on_c, 3, 81, 0
5, 27300, Note_on_c, 3, 83, 95
5, 27310, Note_on_c, 3, 83, 0
5, 27312, Note_on_c, 3, 81, 95
5, 27332, Note_on_c, 3, 81, 0
5, 27336, Note_on_c, 3, 84, 95
5, 27356, Note_on_c, 3, 84, 0
5, 27360, Note_on_c, 3, 84, 95
5, 27370, Note_on_c, 3, 84, 0
5, 27372, Note_on_c, 3, 81, 95
5, 27382, Note_on_c, 3, 81, 0
5, 27384, Note_on_c, 3, 83, 95
5, 27392, Note_on_c, 3, 83, 0
5, 27432, Note_on_c, 3, 83, 95
5, 27452, Note_on_c, 3, 83, 0
5, 27456, Note_on_c, 3, 83, 95
5, 27466, Note_on_c, 3, 83, 0
5, 27468, Note_on_c, 3, 79, 95
5, 27478, Note_on_c, 3, 79, 0
5, 27480, Note_on_c, 3, 81, 95
5, 27488, Note_on_c, 3, 81, 0
5, 27528, Note_on_c, 3, 81, 95
5, 27548, Note_on_c, 3, 81, 0
5, 27552, Note_on_c, 3, 81, 95
5, 27562, Note_on_c, 3, 81, 0
5, 27564, Note_on_c, 3, 78, 95
5, 27574, Note_on_c, 3, 78, 0
5, 27576, Note_on_c, 3, 79, 95
5, 27584, Note_on_c, 3, 79, 0
5, 27624, Note_on_c, 3, 79, 95
5, 27644, Note_on_c, 3, 79, 0
5, 27648, Note_on_c, 3, 79, 95
5, 27658, Note_on_c, 3, 79, 0
5, 27660, Note_on_c, 3, 76, 95
5, 27670, Note_on_c, 3, 76, 0
5, 27672, Note_on_c, 3, 78, 95
5, 27682, Note_on_c, 3, 78, 0
5, 27684, Note_on_c, 3, 79, 95
5, 27694, Note_on_c, 3, 79, 0
5, 27696, Note_on_c, 3, 78, 95
5, 27706, Note_on_c, 3, 78, 0
5, 27708, Note_on_c, 3, 81, 95
5, 27718, Note_on_c, 3, 81, 0
5, 27720, Note_on_c, 3, 79, 95
5, 27730, Note_on_c, 3, 79, 0
5, 27732, Note_on_c, 3, 78, 95
5, 27742, Note_on_c, 3, 78, 0
5, 27744, Note_on_c, 3, 76, 95
5, 27764, Note_on_c, 3, 76, 0
5, 27768, Note_on_c, 3, 79, 95
5, 27788, Note_on_c, 3, 79, 0
5, 27816, Note_on_c, 3, 73, 95
5, 27836, Note_on_c, 3, 73, 0
5, 27840, Note_on_c, 3, 74, 95
5, 27850, Note_on_c, 3, 74, 0
5, 27852, Note_on_c, 3, 73, 95
5, 27862, Note_on_c, 3, 73, 0
5, 27864, Note_on_c, 3, 74, 95
5, 27874, Note_on_c, 3, 74, 0
5, 27876, Note_on_c, 3, 76, 95
5, 27886, Note_on_c, 3, 76, 0
5, 27888, Note_on_c, 3, 74, 95
5, 27898, Note_on_c, 3, 74, 0
5, 27900, Note_on_c, 3, 78, 95
5, 27910, Note_on_c, 3, 78, 0
5, 27912, Note_on_c, 3, 76, 95
5, 27922, Note_on_c, 3, 76, 0
5, 27924, Note_on_c, 3, 74, 95
5, 27934, Note_on_c, 3, 74, 0
5, 27936, Note_on_c, 3, 73, 95
5, 27956, Note_on_c, 3, 73, 0
5, 27960, Note_on_c, 3, 69, 95
5, 27980, Note_on_c, 3, 69, 0
5, 27984, Note_on_c, 3, 76, 95
5, 28004, Note_on_c, 3, 76, 0
5, 28008, Note_on_c, 3, 73, 95
5, 28028, Note_on_c, 3, 73, 0
5, 28080, Note_on_c, 3, 78, 47
5, 28104, Note_on_c, 3, 78, 0
5, 28104, Note_on_c, 3, 74, 47
5, 28128, Note_on_c, 3, 74, 0
5, 28176, Note_on_c, 3, 78, 47
5, 28200, Note_on_c, 3, 78, 0
5, 28200, Note_on_c, 3, 81, 47
5, 28224, Note_on_c, 3, 81, 0
5, 28272, Note_on_c, 3, 76, 47
5, 28296, Note_on_c, 3, 76, 0
5, 28296, Note_on_c, 3, 73, 47
5, 28320, Note_on_c, 3, 73, 0
5, 28368, Note_on_c, 3, 76, 47
5, 28392, Note_on_c, 3, 76, 0
5, 28392, Note_on_c, 3, 81, 47
5, 28416, Note_on_c, 3, 81, 0
5, 28464, Note_on_c, 3, 74, 47
5, 28488, Note_on_c, 3, 74, 0
5, 28488, Note_on_c, 3, 71, 47
5, 28512, Note_on_c, 3, 71, 0
5, 28560, Note_on_c, 3, 74, 47
5, 28584, Note_on_c, 3, 74, 0
5, 28584, Note_on_c, 3, 83, 47
5, 28608, Note_on_c, 3, 83, 0
5, 28656, Note_on_c, 3, 74, 47
5, 28680, Note_on_c, 3, 74, 0
5, 28680, Note_on_c, 3, 71, 47
5, 28704, Note_on_c, 3, 71, 0
5, 28752, Note_on_c, 3, 74, 47
5, 28776, Note_on_c, 3, 74, 0
5, 28776, Note_on_c, 3, 83, 47
5, 28800, Note_on_c, 3, 83, 0
5, 28800, Note_on_c, 3, 69, 47
5, 28824, Note_on_c, 3, 69, 0
5, 28824, Note_on_c, 3, 73, 47
5, 28848, Note_on_c, 3, 73, 0
5, 28848, Note_on_c, 3, 74, 47
5, 28872, Note_on_c, 3, 74, 0
5, 28872, Note_on_c, 3, 78, 47
5, 28896, Note_on_c, 3, 78, 0
5, 28896, Note_on_c, 3, 69, 47
5, 28920, Note_on_c, 3, 69, 0
5, 28920, Note_on_c, 3, 73, 47
5, 28944, Note_on_c, 3, 73, 0
5, 28944, Note_on_c, 3, 74, 47
5, 28968, Note_on_c, 3, 74, 0
5, 28968, Note_on_c, 3, 78, 47
5, 28992, Note_on_c, 3, 78, 0
5, 29280, Note_on_c, 3, 74, 47
5, 29376, Note_on_c, 3, 74, 0
5, 29376, Note_on_c, 3, 73, 47
5, 29400, Note_on_c, 3, 73, 0
5, 41952, Control_c, 3, 10, 0
5, 41952, Control_c, 3, 7, 96
5, 41952, Pitch_bend_c, 3, 8192
5, 41952, Control_c, 3, 1, 0
5, 41952, Program_c, 3, 73
5, 41952, Control_c, 3, 64, 0
5, 41952, End_track
6, 0, Start_track
6, 0, Title_t, "Viola"
6, 0, Control_c, 4, 10, 127
6, 0, Control_c, 4, 7, 96
6, 0, Pitch_bend_c, 4, 8192
6, 0, Control_c, 4, 1, 0
6, 0, Program_c, 4, 52
6, 0, Control_c, 4, 64, 0
6, 0, Note_on_c, 4, 66, 95
6, 48, Note_on_c, 4, 66, 0
6, 72, Note_on_c, 4, 66, 95
6, 96, Note_on_c, 4, 66, 0
6, 96, Note_on_c, 4, 64, 95
6, 120, Note_on_c, 4, 64, 0
6, 120, Note_on_c, 4, 62, 95
6, 144, Note_on_c, 4, 62, 0
6, 144, Note_on_c, 4, 64, 95
6, 168, Note_on_c, 4, 64, 0
6, 168, Note_on_c, 4, 61, 95
6, 192, Note_on_c, 4, 61, 0
6, 192, Note_on_c, 4, 62, 95
6, 216, Note_on_c, 4, 62, 0
6, 216, Note_on_c, 4, 57, 95
6, 240, Note_on_c, 4, 57, 0
6, 240, Note_on_c, 4, 62, 95
6, 264, Note_on_c, 4, 62, 0
6, 264, Note_on_c, 4, 66, 95
6, 288, Note_on_c, 4, 66, 0
6, 288, Note_on_c, 4, 61, 95
6, 312, Note_on_c, 4, 61, 0
6, 312, Note_on_c, 4, 62, 95
6, 336, Note_on_c, 4, 62, 0
6, 336, Note_on_c, 4, 64, 95
6, 360, Note_on_c, 4, 64, 0
6, 360, Note_on_c, 4, 61, 95
6, 384, Note_on_c, 4, 61, 0
6, 384, Note_on_c, 4, 62, 95
6, 408, Note_on_c, 4, 62, 0
6, 408, Note_on_c, 4, 69, 95
6, 432, Note_on_c, 4, 69, 0
6, 432, Note_on_c, 4, 74, 95
6, 456, Note_on_c, 4, 74, 0
6, 456, Note_on_c, 4, 73, 95
6, 480, Note_on_c, 4, 73, 0
6, 480, Note_on_c, 4, 74, 95
6, 504, Note_on_c, 4, 74, 0
6, 504, Note_on_c, 4, 62, 95
6, 528, Note_on_c, 4, 62, 0
6, 528, Note_on_c, 4, 67, 95
6, 552, Note_on_c, 4, 67, 0
6, 552, Note_on_c, 4, 66, 95
6, 576, Note_on_c, 4, 66, 0
6, 576, Note_on_c, 4, 64, 95
6, 600, Note_on_c, 4, 64, 0
6, 600, Note_on_c, 4, 62, 95
6, 624, Note_on_c, 4, 62, 0
6, 624, Note_on_c, 4, 62, 95
6, 648, Note_on_c, 4, 62, 0
6, 648, Note_on_c, 4, 62, 95
6, 672, Note_on_c, 4, 62, 0
6, 672, Note_on_c, 4, 67, 95
6, 696, Note_on_c, 4, 67, 0
6, 696, Note_on_c, 4, 66, 95
6, 720, Note_on_c, 4, 66, 0
6, 720, Note_on_c, 4, 64, 95
6, 744, Note_on_c, 4, 64, 0
6, 744, Note_on_c, 4, 57, 95
6, 768, Note_on_c, 4, 57, 0
6, 768, Note_on_c, 4, 57, 95
6, 792, Note_on_c, 4, 57, 0
6, 792, Note_on_c, 4, 62, 95
6, 816, Note_on_c, 4, 62, 0
6, 816, Note_on_c, 4, 59, 95
6, 840, Note_on_c, 4, 59, 0
6, 840, Note_on_c, 4, 61, 95
6, 864, Note_on_c, 4, 61, 0
6, 864, Note_on_c, 4, 62, 95
6, 876, Note_on_c, 4, 62, 0
6, 876, Note_on_c, 4, 64, 95
6, 888, Note_on_c, 4, 64, 0
6, 888, Note_on_c, 4, 66, 95
6, 900, Note_on_c, 4, 66, 0
6, 900, Note_on_c, 4, 67, 95
6, 912, Note_on_c, 4, 67, 0
6, 912, Note_on_c, 4, 69, 95
6, 924, Note_on_c, 4, 69, 0
6, 924, Note_on_c, 4, 71, 95
6, 936, Note_on_c, 4, 71, 0
6, 936, Note_on_c, 4, 73, 95
6, 948, Note_on_c, 4, 73, 0
6, 948, Note_on_c, 4, 69, 95
6, 960, Note_on_c, 4, 69, 0
6, 960, Note_on_c, 4, 74, 95
6, 984, Note_on_c, 4, 74, 0
6, 984, Note_on_c, 4, 66, 95
6, 1008, Note_on_c, 4, 66, 0
6, 1008, Note_on_c, 4, 71, 95
6, 1032, Note_on_c, 4, 71, 0
6, 1032, Note_on_c, 4, 69, 95
6, 1056, Note_on_c, 4, 69, 0
6, 1056, Note_on_c, 4, 64, 95
6, 1080, Note_on_c, 4, 64, 0
6, 1080, Note_on_c, 4, 66, 95
6, 1104, Note_on_c, 4, 66, 0
6, 1104, Note_on_c, 4, 67, 95
6, 1128, Note_on_c, 4, 67, 0
6, 1128, Note_on_c, 4, 64, 95
6, 1152, Note_on_c, 4, 64, 0
6, 1152, Note_on_c, 4, 62, 95
6, 1176, Note_on_c, 4, 62, 0
6, 1176, Note_on_c, 4, 69, 95
6, 1200, Note_on_c, 4, 69, 0
6, 1200, Note_on_c, 4, 71, 95
6, 1224, Note_on_c, 4, 71, 0
6, 1224, Note_on_c, 4, 73, 95
6, 1248, Note_on_c, 4, 73, 0
6, 1248, Note_on_c, 4, 69, 95
6, 1272, Note_on_c, 4, 69, 0
6, 1272, Note_on_c, 4, 67, 95
6, 1284, Note_on_c, 4, 67, 0
6, 1284, Note_on_c, 4, 66, 95
6, 1296, Note_on_c, 4, 66, 0
6, 1296, Note_on_c, 4, 64, 95
6, 1320, Note_on_c, 4, 64, 0
6, 1320, Note_on_c, 4, 64, 95
6, 1344, Note_on_c, 4, 64, 0
6, 1344, Note_on_c, 4, 57, 95
6, 1368, Note_on_c, 4, 57, 0
6, 1368, Note_on_c, 4, 57, 95
6, 1392, Note_on_c, 4, 57, 0
6, 1392, Note_on_c, 4, 57, 95
6, 1416, Note_on_c, 4, 57, 0
6, 1416, Note_on_c, 4, 57, 95
6, 1440, Note_on_c, 4, 57, 0
6, 1440, Note_on_c, 4, 50, 95
6, 1464, Note_on_c, 4, 50, 0
6, 1464, Note_on_c, 4, 61, 95
6, 1488, Note_on_c, 4, 61, 0
6, 1488, Note_on_c, 4, 61, 95
6, 1512, Note_on_c, 4, 61, 0
6, 1512, Note_on_c, 4, 67, 95
6, 1536, Note_on_c, 4, 67, 0
6, 1536, Note_on_c, 4, 66, 95
6, 1560, Note_on_c, 4, 66, 0
6, 1824, Note_on_c, 4, 69, 47
6, 1836, Note_on_c, 4, 69, 0
6, 1836, Note_on_c, 4, 67, 47
6, 1848, Note_on_c, 4, 67, 0
6, 1848, Note_on_c, 4, 66, 47
6, 1860, Note_on_c, 4, 66, 0
6, 1860, Note_on_c, 4, 64, 47
6, 1872, Note_on_c, 4, 64, 0
6, 1872, Note_on_c, 4, 62, 47
6, 1896, Note_on_c, 4, 62, 0
6, 1896, Note_on_c, 4, 57, 47
6, 1920, Note_on_c, 4, 57, 0
6, 1920, Note_on_c, 4, 57, 47
6, 1944, Note_on_c, 4, 57, 0
6, 1944, Note_on_c, 4, 61, 47
6, 1968, Note_on_c, 4, 61, 0
6, 1968, Note_on_c, 4, 62, 47
6, 1992, Note_on_c, 4, 62, 0
6, 1992, Note_on_c, 4, 64, 47
6, 2016, Note_on_c, 4, 64, 0
6, 2016, Note_on_c, 4, 57, 47
6, 2040, Note_on_c, 4, 57, 0
6, 2304, Note_on_c, 4, 69, 47
6, 2316, Note_on_c, 4, 69, 0
6, 2316, Note_on_c, 4, 67, 47
6, 2328, Note_on_c, 4, 67, 0
6, 2328, Note_on_c, 4, 66, 47
6, 2340, Note_on_c, 4, 66, 0
6, 2340, Note_on_c, 4, 64, 47
6, 2352, Note_on_c, 4, 64, 0
6, 2352, Note_on_c, 4, 62, 47
6, 2376, Note_on_c, 4, 62, 0
6, 2376, Note_on_c, 4, 57, 47
6, 2400, Note_on_c, 4, 57, 0
6, 2400, Note_on_c, 4, 69, 47
6, 2424, Note_on_c, 4, 69, 0
6, 2424, Note_on_c, 4, 61, 47
6, 2448, Note_on_c, 4, 61, 0
6, 3456, Note_on_c, 4, 61, 47
6, 3504, Note_on_c, 4, 61, 0
6, 3528, Note_on_c, 4, 61, 47
6, 3552, Note_on_c, 4, 61, 0
6, 3552, Note_on_c, 4, 59, 47
6, 3576, Note_on_c, 4, 59, 0
6, 3576, Note_on_c, 4, 57, 47
6, 3600, Note_on_c, 4, 57, 0
6, 3600, Note_on_c, 4, 59, 47
6, 3624, Note_on_c, 4, 59, 0
6, 3624, Note_on_c, 4, 56, 47
6, 3648, Note_on_c, 4, 56, 0
6, 3648, Note_on_c, 4, 52, 47
6, 3672, Note_on_c, 4, 52, 0
6, 3672, Note_on_c, 4, 64, 47
6, 3696, Note_on_c, 4, 64, 0
6, 3696, Note_on_c, 4, 57, 47
6, 3720, Note_on_c, 4, 57, 0
6, 3720, Note_on_c, 4, 61, 47
6, 3744, Note_on_c, 4, 61, 0
6, 3744, Note_on_c, 4, 56, 47
6, 3792, Note_on_c, 4, 56, 0
6, 3816, Note_on_c, 4, 68, 47
6, 3840, Note_on_c, 4, 68, 0
6, 3840, Note_on_c, 4, 69, 47
6, 3864, Note_on_c, 4, 69, 0
6, 3912, Note_on_c, 4, 73, 47
6, 3936, Note_on_c, 4, 73, 0
6, 3936, Note_on_c, 4, 69, 47
6, 3960, Note_on_c, 4, 69, 0
6, 4008, Note_on_c, 4, 69, 47
6, 4032, Note_on_c, 4, 69, 0
6, 4032, Note_on_c, 4, 71, 47
6, 4056, Note_on_c, 4, 71, 0
6, 4152, Note_on_c, 4, 64, 47
6, 4176, Note_on_c, 4, 64, 0
6, 4176, Note_on_c, 4, 64, 47
6, 4200, Note_on_c, 4, 64, 0
6, 4200, Note_on_c, 4, 61, 47
6, 4224, Note_on_c, 4, 61, 0
6, 4224, Note_on_c, 4, 61, 47
6, 4248, Note_on_c, 4, 61, 0
6, 4296, Note_on_c, 4, 70, 47
6, 4320, Note_on_c, 4, 70, 0
6, 4320, Note_on_c, 4, 66, 47
6, 4344, Note_on_c, 4, 66, 0
6, 4392, Note_on_c, 4, 71, 47
6, 4416, Note_on_c, 4, 71, 0
6, 4416, Note_on_c, 4, 74, 47
6, 4440, Note_on_c, 4, 74, 0
6, 4536, Note_on_c, 4, 61, 47
6, 4560, Note_on_c, 4, 61, 0
6, 4560, Note_on_c, 4, 61, 47
6, 4584, Note_on_c, 4, 61, 0
6, 4584, Note_on_c, 4, 57, 47
6, 4608, Note_on_c, 4, 57, 0
6, 4608, Note_on_c, 4, 57, 47
6, 4632, Note_on_c, 4, 57, 0
6, 4680, Note_on_c, 4, 66, 47
6, 4704, Note_on_c, 4, 66, 0
6, 4704, Note_on_c, 4, 62, 47
6, 4728, Note_on_c, 4, 62, 0
6, 4776, Note_on_c, 4, 71, 47
6, 4800, Note_on_c, 4, 71, 0
6, 4800, Note_on_c, 4, 67, 47
6, 4824, Note_on_c, 4, 67, 0
6, 4920, Note_on_c, 4, 61, 47
6, 4944, Note_on_c, 4, 61, 0
6, 4944, Note_on_c, 4, 62, 47
6, 4968, Note_on_c, 4, 62, 0
6, 4968, Note_on_c, 4, 64, 47
6, 4992, Note_on_c, 4, 64, 0
6, 4992, Note_on_c, 4, 57, 47
6, 5016, Note_on_c, 4, 57, 0
6, 5352, Note_on_c, 4, 68, 95
6, 5376, Note_on_c, 4, 68, 0
6, 5376, Note_on_c, 4, 69, 95
6, 5392, Note_on_c, 4, 69, 0
6, 5400, Note_on_c, 4, 64, 95
6, 5416, Note_on_c, 4, 64, 0
6, 5424, Note_on_c, 4, 69, 95
6, 5440, Note_on_c, 4, 69, 0
6, 5448, Note_on_c, 4, 68, 95
6, 5464, Note_on_c, 4, 68, 0
6, 5472, Note_on_c, 4, 69, 95
6, 5488, Note_on_c, 4, 69, 0
6, 5496, Note_on_c, 4, 57, 95
6, 5512, Note_on_c, 4, 57, 0
6, 5520, Note_on_c, 4, 62, 95
6, 5536, Note_on_c, 4, 62, 0
6, 5544, Note_on_c, 4, 61, 95
6, 5560, Note_on_c, 4, 61, 0
6, 5568, Note_on_c, 4, 59, 95
6, 5584, Note_on_c, 4, 59, 0
6, 5592, Note_on_c, 4, 57, 95
6, 5608, Note_on_c, 4, 57, 0
6, 5616, Note_on_c, 4, 57, 95
6, 5632, Note_on_c, 4, 57, 0
6, 5640, Note_on_c, 4, 57, 95
6, 5656, Note_on_c, 4, 57, 0
6, 5664, Note_on_c, 4, 62, 95
6, 5680, Note_on_c, 4, 62, 0
6, 5688, Note_on_c, 4, 61, 95
6, 5704, Note_on_c, 4, 61, 0
6, 5712, Note_on_c, 4, 59, 95
6, 5728, Note_on_c, 4, 59, 0
6, 5736, Note_on_c, 4, 64, 95
6, 5752, Note_on_c, 4, 64, 0
6, 5760, Note_on_c, 4, 64, 95
6, 5776, Note_on_c, 4, 64, 0
6, 5784, Note_on_c, 4, 66, 95
6, 5800, Note_on_c, 4, 66, 0
6, 5808, Note_on_c, 4, 66, 95
6, 5824, Note_on_c, 4, 66, 0
6, 5832, Note_on_c, 4, 64, 95
6, 5848, Note_on_c, 4, 64, 0
6, 5856, Note_on_c, 4, 64, 95
6, 5872, Note_on_c, 4, 64, 0
6, 5928, Note_on_c, 4, 64, 47
6, 5944, Note_on_c, 4, 64, 0
6, 5952, Note_on_c, 4, 66, 47
6, 5968, Note_on_c, 4, 66, 0
6, 5976, Note_on_c, 4, 67, 47
6, 5992, Note_on_c, 4, 67, 0
6, 6000, Note_on_c, 4, 69, 47
6, 6016, Note_on_c, 4, 69, 0
6, 6120, Note_on_c, 4, 71, 47
6, 6136, Note_on_c, 4, 71, 0
6, 6144, Note_on_c, 4, 64, 47
6, 6160, Note_on_c, 4, 64, 0
6, 6168, Note_on_c, 4, 67, 47
6, 6176, Note_on_c, 4, 67, 0
6, 6180, Note_on_c, 4, 66, 47
6, 6188, Note_on_c, 4, 66, 0
6, 6192, Note_on_c, 4, 67, 47
6, 6208, Note_on_c, 4, 67, 0
6, 6312, Note_on_c, 4, 61, 47
6, 6328, Note_on_c, 4, 61, 0
6, 6336, Note_on_c, 4, 62, 47
6, 6352, Note_on_c, 4, 62, 0
6, 6360, Note_on_c, 4, 64, 47
6, 6376, Note_on_c, 4, 64, 0
6, 6384, Note_on_c, 4, 66, 47
6, 6400, Note_on_c, 4, 66, 0
6, 6408, Note_on_c, 4, 62, 47
6, 6424, Note_on_c, 4, 62, 0
6, 6432, Note_on_c, 4, 59, 47
6, 6464, Note_on_c, 4, 59, 0
6, 6504, Note_on_c, 4, 67, 47
6, 6520, Note_on_c, 4, 67, 0
6, 6528, Note_on_c, 4, 61, 47
6, 6536, Note_on_c, 4, 61, 0
6, 6540, Note_on_c, 4, 61, 47
6, 6548, Note_on_c, 4, 61, 0
6, 6552, Note_on_c, 4, 64, 47
6, 6560, Note_on_c, 4, 64, 0
6, 6564, Note_on_c, 4, 64, 47
6, 6572, Note_on_c, 4, 64, 0
6, 6576, Note_on_c, 4, 66, 47
6, 6584, Note_on_c, 4, 66, 0
6, 6588, Note_on_c, 4, 66, 47
6, 6596, Note_on_c, 4, 66, 0
6, 6600, Note_on_c, 4, 70, 47
6, 6608, Note_on_c, 4, 70, 0
6, 6612, Note_on_c, 4, 70, 47
6, 6620, Note_on_c, 4, 70, 0
6, 6624, Note_on_c, 4, 66, 47
6, 6640, Note_on_c, 4, 66, 0
6, 6648, Note_on_c, 4, 62, 47
6, 6664, Note_on_c, 4, 62, 0
6, 6720, Note_on_c, 4, 59, 47
6, 6728, Note_on_c, 4, 59, 0
6, 6732, Note_on_c, 4, 59, 47
6, 6740, Note_on_c, 4, 59, 0
6, 6744, Note_on_c, 4, 64, 47
6, 6752, Note_on_c, 4, 64, 0
6, 6756, Note_on_c, 4, 64, 47
6, 6764, Note_on_c, 4, 64, 0
6, 6768, Note_on_c, 4, 67, 47
6, 6776, Note_on_c, 4, 67, 0
6, 6780, Note_on_c, 4, 67, 47
6, 6788, Note_on_c, 4, 67, 0
6, 6792, Note_on_c, 4, 71, 47
6, 6800, Note_on_c, 4, 71, 0
6, 6804, Note_on_c, 4, 71, 47
6, 6812, Note_on_c, 4, 71, 0
6, 6816, Note_on_c, 4, 66, 47
6, 6832, Note_on_c, 4, 66, 0
6, 6840, Note_on_c, 4, 61, 47
6, 6856, Note_on_c, 4, 61, 0
6, 6912, Note_on_c, 4, 59, 47
6, 6920, Note_on_c, 4, 59, 0
6, 6924, Note_on_c, 4, 59, 47
6, 6932, Note_on_c, 4, 59, 0
6, 6936, Note_on_c, 4, 62, 47
6, 6944, Note_on_c, 4, 62, 0
6, 6948, Note_on_c, 4, 62, 47
6, 6956, Note_on_c, 4, 62, 0
6, 6960, Note_on_c, 4, 66, 47
6, 6968, Note_on_c, 4, 66, 0
6, 6972, Note_on_c, 4, 66, 47
6, 6980, Note_on_c, 4, 66, 0
6, 6984, Note_on_c, 4, 71, 47
6, 6992, Note_on_c, 4, 71, 0
6, 6996, Note_on_c, 4, 71, 47
6, 7004, Note_on_c, 4, 71, 0
6, 7008, Note_on_c, 4, 64, 47
6, 7016, Note_on_c, 4, 64, 0
6, 7020, Note_on_c, 4, 64, 47
6, 7028, Note_on_c, 4, 64, 0
6, 7032, Note_on_c, 4, 67, 47
6, 7040, Note_on_c, 4, 67, 0
6, 7044, Note_on_c, 4, 67, 47
6, 7052, Note_on_c, 4, 67, 0
6, 7056, Note_on_c, 4, 71, 47
6, 7064, Note_on_c, 4, 71, 0
6, 7068, Note_on_c, 4, 71, 47
6, 7076, Note_on_c, 4, 71, 0
6, 7080, Note_on_c, 4, 76, 47
6, 7088, Note_on_c, 4, 76, 0
6, 7092, Note_on_c, 4, 76, 47
6, 7100, Note_on_c, 4, 76, 0
6, 7104, Note_on_c, 4, 64, 47
6, 7136, Note_on_c, 4, 64, 0
6, 7488, Note_on_c, 4, 66, 95
6, 7504, Note_on_c, 4, 66, 0
6, 7512, Note_on_c, 4, 64, 95
6, 7528, Note_on_c, 4, 64, 0
6, 7536, Note_on_c, 4, 66, 95
6, 7552, Note_on_c, 4, 66, 0
6, 7560, Note_on_c, 4, 66, 95
6, 7576, Note_on_c, 4, 66, 0
6, 7584, Note_on_c, 4, 71, 95
6, 7600, Note_on_c, 4, 71, 0
6, 7608, Note_on_c, 4, 69, 95
6, 7624, Note_on_c, 4, 69, 0
6, 7632, Note_on_c, 4, 71, 95
6, 7648, Note_on_c, 4, 71, 0
6, 7656, Note_on_c, 4, 59, 95
6, 7672, Note_on_c, 4, 59, 0
6, 7680, Note_on_c, 4, 64, 95
6, 7696, Note_on_c, 4, 64, 0
6, 7704, Note_on_c, 4, 62, 95
6, 7720, Note_on_c, 4, 62, 0
6, 7728, Note_on_c, 4, 61, 95
6, 7744, Note_on_c, 4, 61, 0
6, 7752, Note_on_c, 4, 73, 95
6, 7768, Note_on_c, 4, 73, 0
6, 7776, Note_on_c, 4, 71, 95
6, 7792, Note_on_c, 4, 71, 0
6, 7800, Note_on_c, 4, 62, 95
6, 7816, Note_on_c, 4, 62, 0
6, 7824, Note_on_c, 4, 67, 95
6, 7840, Note_on_c, 4, 67, 0
6, 7848, Note_on_c, 4, 61, 95
6, 7864, Note_on_c, 4, 61, 0
6, 7872, Note_on_c, 4, 62, 95
6, 7904, Note_on_c, 4, 62, 0
6, 8544, Note_on_c, 4, 55, 63
6, 8554, Note_on_c, 4, 55, 0
6, 8556, Note_on_c, 4, 55, 63
6, 8566, Note_on_c, 4, 55, 0
6, 8568, Note_on_c, 4, 59, 63
6, 8578, Note_on_c, 4, 59, 0
6, 8580, Note_on_c, 4, 59, 63
6, 8590, Note_on_c, 4, 59, 0
6, 8592, Note_on_c, 4, 64, 63
6, 8602, Note_on_c, 4, 64, 0
6, 8604, Note_on_c, 4, 64, 63
6, 8614, Note_on_c, 4, 64, 0
6, 8616, Note_on_c, 4, 67, 63
6, 8626, Note_on_c, 4, 67, 0
6, 8628, Note_on_c, 4, 67, 63
6, 8638, Note_on_c, 4, 67, 0
6, 8640, Note_on_c, 4, 64, 63
6, 8660, Note_on_c, 4, 64, 0
6, 8664, Note_on_c, 4, 57, 63
6, 8684, Note_on_c, 4, 57, 0
6, 9048, Note_on_c, 4, 71, 63
6, 9056, Note_on_c, 4, 71, 0
6, 9072, Note_on_c, 4, 61, 63
6, 9080, Note_on_c, 4, 61, 0
6, 9096, Note_on_c, 4, 64, 63
6, 9104, Note_on_c, 4, 64, 0
6, 9120, Note_on_c, 4, 66, 63
6, 9128, Note_on_c, 4, 66, 0
6, 9144, Note_on_c, 4, 69, 63
6, 9152, Note_on_c, 4, 69, 0
6, 9168, Note_on_c, 4, 59, 63
6, 9176, Note_on_c, 4, 59, 0
6, 9192, Note_on_c, 4, 62, 63
6, 9200, Note_on_c, 4, 62, 0
6, 9216, Note_on_c, 4, 64, 63
6, 9236, Note_on_c, 4, 64, 0
6, 9240, Note_on_c, 4, 67, 63
6, 9260, Note_on_c, 4, 67, 0
6, 9264, Note_on_c, 4, 57, 63
6, 9284, Note_on_c, 4, 57, 0
6, 9288, Note_on_c, 4, 61, 63
6, 9308, Note_on_c, 4, 61, 0
6, 9312, Note_on_c, 4, 62, 63
6, 9332, Note_on_c, 4, 62, 0
6, 9336, Note_on_c, 4, 57, 63
6, 9356, Note_on_c, 4, 57, 0
6, 9360, Note_on_c, 4, 54, 63
6, 9380, Note_on_c, 4, 54, 0
6, 9384, Note_on_c, 4, 50, 63
6, 9404, Note_on_c, 4, 50, 0
6, 9408, Note_on_c, 4, 57, 63
6, 9418, Note_on_c, 4, 57, 0
6, 9420, Note_on_c, 4, 57, 63
6, 9430, Note_on_c, 4, 57, 0
6, 9432, Note_on_c, 4, 61, 63
6, 9442, Note_on_c, 4, 61, 0
6, 9444, Note_on_c, 4, 61, 63
6, 9454, Note_on_c, 4, 61, 0
6, 9456, Note_on_c, 4, 64, 63
6, 9466, Note_on_c, 4, 64, 0
6, 9468, Note_on_c, 4, 64, 63
6, 9478, Note_on_c, 4, 64, 0
6, 9480, Note_on_c, 4, 69, 63
6, 9490, Note_on_c, 4, 69, 0
6, 9492, Note_on_c, 4, 69, 63
6, 9502, Note_on_c, 4, 69, 0
6, 9504, Note_on_c, 4, 62, 63
6, 9514, Note_on_c, 4, 62, 0
6, 9516, Note_on_c, 4, 62, 63
6, 9526, Note_on_c, 4, 62, 0
6, 9528, Note_on_c, 4, 66, 63
6, 9538, Note_on_c, 4, 66, 0
6, 9540, Note_on_c, 4, 66, 63
6, 9550, Note_on_c, 4, 66, 0
6, 9552, Note_on_c, 4, 69, 63
6, 9562, Note_on_c, 4, 69, 0
6, 9564, Note_on_c, 4, 69, 63
6, 9574, Note_on_c, 4, 69, 0
6, 9576, Note_on_c, 4, 74, 63
6, 9586, Note_on_c, 4, 74, 0
6, 9588, Note_on_c, 4, 74, 63
6, 9598, Note_on_c, 4, 74, 0
6, 9600, Note_on_c, 4, 76, 63
6, 9620, Note_on_c, 4, 76, 0
6, 9624, Note_on_c, 4, 69, 63
6, 9644, Note_on_c, 4, 69, 0
6, 9672, Note_on_c, 4, 61, 47
6, 9692, Note_on_c, 4, 61, 0
6, 9696, Note_on_c, 4, 57, 47
6, 9716, Note_on_c, 4, 57, 0
6, 9768, Note_on_c, 4, 66, 47
6, 9788, Note_on_c, 4, 66, 0
6, 9792, Note_on_c, 4, 62, 47
6, 9812, Note_on_c, 4, 62, 0
6, 9864, Note_on_c, 4, 62, 47
6, 9884, Note_on_c, 4, 62, 0
6, 9888, Note_on_c, 4, 64, 47
6, 9908, Note_on_c, 4, 64, 0
6, 10008, Note_on_c, 4, 69, 47
6, 10028, Note_on_c, 4, 69, 0
6, 10032, Note_on_c, 4, 69, 47
6, 10052, Note_on_c, 4, 69, 0
6, 10056, Note_on_c, 4, 66, 47
6, 10076, Note_on_c, 4, 66, 0
6, 10080, Note_on_c, 4, 66, 47
6, 10100, Note_on_c, 4, 66, 0
6, 10128, Note_on_c, 4, 75, 47
6, 10148, Note_on_c, 4, 75, 0
6, 10176, Note_on_c, 4, 71, 47
6, 10196, Note_on_c, 4, 71, 0
6, 10248, Note_on_c, 4, 64, 47
6, 10268, Note_on_c, 4, 64, 0
6, 10272, Note_on_c, 4, 67, 47
6, 10292, Note_on_c, 4, 67, 0
6, 10392, Note_on_c, 4, 66, 47
6, 10412, Note_on_c, 4, 66, 0
6, 10416, Note_on_c, 4, 66, 47
6, 10436, Note_on_c, 4, 66, 0
6, 10440, Note_on_c, 4, 62, 47
6, 10460, Note_on_c, 4, 62, 0
6, 10464, Note_on_c, 4, 62, 47
6, 10484, Note_on_c, 4, 62, 0
6, 10536, Note_on_c, 4, 71, 47
6, 10556, Note_on_c, 4, 71, 0
6, 10560, Note_on_c, 4, 67, 47
6, 10580, Note_on_c, 4, 67, 0
6, 10632, Note_on_c, 4, 64, 47
6, 10652, Note_on_c, 4, 64, 0
6, 10656, Note_on_c, 4, 69, 47
6, 10676, Note_on_c, 4, 69, 0
6, 10776, Note_on_c, 4, 66, 47
6, 10796, Note_on_c, 4, 66, 0
6, 10800, Note_on_c, 4, 67, 47
6, 10820, Note_on_c, 4, 67, 0
6, 10824, Note_on_c, 4, 69, 47
6, 10844, Note_on_c, 4, 69, 0
6, 10848, Note_on_c, 4, 62, 47
6, 10868, Note_on_c, 4, 62, 0
6, 11016, Note_on_c, 4, 69, 95
6, 11036, Note_on_c, 4, 69, 0
6, 11040, Note_on_c, 4, 69, 95
6, 11060, Note_on_c, 4, 69, 0
6, 11064, Note_on_c, 4, 69, 95
6, 11084, Note_on_c, 4, 69, 0
6, 11088, Note_on_c, 4, 74, 95
6, 11108, Note_on_c, 4, 74, 0
6, 11112, Note_on_c, 4, 73, 95
6, 11132, Note_on_c, 4, 73, 0
6, 11136, Note_on_c, 4, 74, 95
6, 11156, Note_on_c, 4, 74, 0
6, 11160, Note_on_c, 4, 62, 95
6, 11180, Note_on_c, 4, 62, 0
6, 11184, Note_on_c, 4, 67, 95
6, 11204, Note_on_c, 4, 67, 0
6, 11208, Note_on_c, 4, 66, 95
6, 11228, Note_on_c, 4, 66, 0
6, 11232, Note_on_c, 4, 64, 95
6, 11252, Note_on_c, 4, 64, 0
6, 11256, Note_on_c, 4, 62, 95
6, 11276, Note_on_c, 4, 62, 0
6, 11280, Note_on_c, 4, 62, 95
6, 11300, Note_on_c, 4, 62, 0
6, 11304, Note_on_c, 4, 62, 95
6, 11324, Note_on_c, 4, 62, 0
6, 11328, Note_on_c, 4, 67, 95
6, 11348, Note_on_c, 4, 67, 0
6, 11352, Note_on_c, 4, 66, 95
6, 11372, Note_on_c, 4, 66, 0
6, 11376, Note_on_c, 4, 64, 95
6, 11396, Note_on_c, 4, 64, 0
6, 11400, Note_on_c, 4, 61, 95
6, 11420, Note_on_c, 4, 61, 0
6, 11424, Note_on_c, 4, 62, 95
6, 11444, Note_on_c, 4, 62, 0
6, 11448, Note_on_c, 4, 62, 95
6, 11468, Note_on_c, 4, 62, 0
6, 11472, Note_on_c, 4, 59, 95
6, 11492, Note_on_c, 4, 59, 0
6, 11496, Note_on_c, 4, 61, 95
6, 11516, Note_on_c, 4, 61, 0
6, 11520, Note_on_c, 4, 57, 95
6, 11540, Note_on_c, 4, 57, 0
6, 12144, Note_on_c, 4, 69, 63
6, 12164, Note_on_c, 4, 69, 0
6, 12168, Note_on_c, 4, 71, 63
6, 12188, Note_on_c, 4, 71, 0
6, 12192, Note_on_c, 4, 71, 63
6, 12212, Note_on_c, 4, 71, 0
6, 12216, Note_on_c, 4, 69, 63
6, 12236, Note_on_c, 4, 69, 0
6, 12792, Note_on_c, 4, 64, 63
6, 12812, Note_on_c, 4, 64, 0
6, 12816, Note_on_c, 4, 66, 63
6, 12836, Note_on_c, 4, 66, 0
6, 12840, Note_on_c, 4, 66, 63
6, 12860, Note_on_c, 4, 66, 0
6, 12864, Note_on_c, 4, 64, 63
6, 12884, Note_on_c, 4, 64, 0
6, 13440, Note_on_c, 4, 61, 47
6, 13460, Note_on_c, 4, 61, 0
6, 13464, Note_on_c, 4, 61, 47
6, 13484, Note_on_c, 4, 61, 0
6, 13488, Note_on_c, 4, 61, 47
6, 13508, Note_on_c, 4, 61, 0
6, 13512, Note_on_c, 4, 61, 47
6, 13532, Note_on_c, 4, 61, 0
6, 13536, Note_on_c, 4, 61, 47
6, 13556, Note_on_c, 4, 61, 0
6, 13560, Note_on_c, 4, 61, 47
6, 13580, Note_on_c, 4, 61, 0
6, 13584, Note_on_c, 4, 61, 47
6, 13604, Note_on_c, 4, 61, 0
6, 13608, Note_on_c, 4, 61, 47
6, 13628, Note_on_c, 4, 61, 0
6, 13632, Note_on_c, 4, 66, 47
6, 13652, Note_on_c, 4, 66, 0
6, 13656, Note_on_c, 4, 66, 47
6, 13676, Note_on_c, 4, 66, 0
6, 13680, Note_on_c, 4, 66, 47
6, 13700, Note_on_c, 4, 66, 0
6, 13704, Note_on_c, 4, 66, 47
6, 13724, Note_on_c, 4, 66, 0
6, 13728, Note_on_c, 4, 66, 47
6, 13748, Note_on_c, 4, 66, 0
6, 13752, Note_on_c, 4, 66, 47
6, 13772, Note_on_c, 4, 66, 0
6, 13776, Note_on_c, 4, 66, 47
6, 13796, Note_on_c, 4, 66, 0
6, 13800, Note_on_c, 4, 66, 47
6, 13820, Note_on_c, 4, 66, 0
6, 13824, Note_on_c, 4, 61, 47
6, 13844, Note_on_c, 4, 61, 0
6, 13848, Note_on_c, 4, 61, 47
6, 13868, Note_on_c, 4, 61, 0
6, 13872, Note_on_c, 4, 61, 47
6, 13892, Note_on_c, 4, 61, 0
6, 13896, Note_on_c, 4, 61, 47
6, 13916, Note_on_c, 4, 61, 0
6, 13920, Note_on_c, 4, 61, 47
6, 13940, Note_on_c, 4, 61, 0
6, 13944, Note_on_c, 4, 61, 47
6, 13964, Note_on_c, 4, 61, 0
6, 13968, Note_on_c, 4, 61, 47
6, 13988, Note_on_c, 4, 61, 0
6, 13992, Note_on_c, 4, 61, 47
6, 14012, Note_on_c, 4, 61, 0
6, 14016, Note_on_c, 4, 61, 47
6, 14036, Note_on_c, 4, 61, 0
6, 14040, Note_on_c, 4, 61, 47
6, 14060, Note_on_c, 4, 61, 0
6, 14064, Note_on_c, 4, 61, 47
6, 14084, Note_on_c, 4, 61, 0
6, 14088, Note_on_c, 4, 61, 47
6, 14108, Note_on_c, 4, 61, 0
6, 14112, Note_on_c, 4, 61, 47
6, 14132, Note_on_c, 4, 61, 0
6, 14136, Note_on_c, 4, 61, 47
6, 14156, Note_on_c, 4, 61, 0
6, 14160, Note_on_c, 4, 61, 47
6, 14180, Note_on_c, 4, 61, 0
6, 14184, Note_on_c, 4, 61, 47
6, 14204, Note_on_c, 4, 61, 0
6, 14208, Note_on_c, 4, 66, 47
6, 14228, Note_on_c, 4, 66, 0
6, 14232, Note_on_c, 4, 66, 47
6, 14252, Note_on_c, 4, 66, 0
6, 14256, Note_on_c, 4, 66, 47
6, 14276, Note_on_c, 4, 66, 0
6, 14280, Note_on_c, 4, 66, 47
6, 14300, Note_on_c, 4, 66, 0
6, 14304, Note_on_c, 4, 66, 47
6, 14324, Note_on_c, 4, 66, 0
6, 14328, Note_on_c, 4, 66, 47
6, 14348, Note_on_c, 4, 66, 0
6, 14352, Note_on_c, 4, 66, 47
6, 14372, Note_on_c, 4, 66, 0
6, 14376, Note_on_c, 4, 66, 47
6, 14396, Note_on_c, 4, 66, 0
6, 14400, Note_on_c, 4, 64, 47
6, 14420, Note_on_c, 4, 64, 0
6, 14424, Note_on_c, 4, 64, 47
6, 14444, Note_on_c, 4, 64, 0
6, 14448, Note_on_c, 4, 64, 47
6, 14468, Note_on_c, 4, 64, 0
6, 14472, Note_on_c, 4, 64, 47
6, 14492, Note_on_c, 4, 64, 0
6, 14496, Note_on_c, 4, 64, 47
6, 14516, Note_on_c, 4, 64, 0
6, 14520, Note_on_c, 4, 64, 47
6, 14540, Note_on_c, 4, 64, 0
6, 14544, Note_on_c, 4, 64, 47
6, 14564, Note_on_c, 4, 64, 0
6, 14568, Note_on_c, 4, 64, 47
6, 14588, Note_on_c, 4, 64, 0
6, 14592, Note_on_c, 4, 64, 47
6, 14612, Note_on_c, 4, 64, 0
6, 14616, Note_on_c, 4, 64, 47
6, 14636, Note_on_c, 4, 64, 0
6, 14640, Note_on_c, 4, 64, 47
6, 14660, Note_on_c, 4, 64, 0
6, 14664, Note_on_c, 4, 64, 47
6, 14684, Note_on_c, 4, 64, 0
6, 14688, Note_on_c, 4, 64, 47
6, 14708, Note_on_c, 4, 64, 0
6, 14712, Note_on_c, 4, 64, 47
6, 14732, Note_on_c, 4, 64, 0
6, 14736, Note_on_c, 4, 64, 47
6, 14756, Note_on_c, 4, 64, 0
6, 14760, Note_on_c, 4, 64, 47
6, 14780, Note_on_c, 4, 64, 0
6, 14784, Note_on_c, 4, 69, 47
6, 14804, Note_on_c, 4, 69, 0
6, 14808, Note_on_c, 4, 69, 47
6, 14828, Note_on_c, 4, 69, 0
6, 14832, Note_on_c, 4, 69, 47
6, 14852, Note_on_c, 4, 69, 0
6, 14856, Note_on_c, 4, 69, 47
6, 14876, Note_on_c, 4, 69, 0
6, 14880, Note_on_c, 4, 69, 47
6, 14900, Note_on_c, 4, 69, 0
6, 14904, Note_on_c, 4, 69, 47
6, 14924, Note_on_c, 4, 69, 0
6, 14928, Note_on_c, 4, 69, 47
6, 14948, Note_on_c, 4, 69, 0
6, 14952, Note_on_c, 4, 69, 47
6, 14972, Note_on_c, 4, 69, 0
6, 14976, Note_on_c, 4, 68, 47
6, 14996, Note_on_c, 4, 68, 0
6, 15000, Note_on_c, 4, 68, 47
6, 15020, Note_on_c, 4, 68, 0
6, 15024, Note_on_c, 4, 68, 47
6, 15044, Note_on_c, 4, 68, 0
6, 15048, Note_on_c, 4, 68, 47
6, 15068, Note_on_c, 4, 68, 0
6, 15072, Note_on_c, 4, 68, 47
6, 15092, Note_on_c, 4, 68, 0
6, 15096, Note_on_c, 4, 68, 47
6, 15116, Note_on_c, 4, 68, 0
6, 15120, Note_on_c, 4, 68, 47
6, 15140, Note_on_c, 4, 68, 0
6, 15144, Note_on_c, 4, 68, 47
6, 15164, Note_on_c, 4, 68, 0
6, 15168, Note_on_c, 4, 64, 47
6, 15188, Note_on_c, 4, 64, 0
6, 15192, Note_on_c, 4, 64, 47
6, 15212, Note_on_c, 4, 64, 0
6, 15216, Note_on_c, 4, 64, 47
6, 15236, Note_on_c, 4, 64, 0
6, 15240, Note_on_c, 4, 64, 47
6, 15260, Note_on_c, 4, 64, 0
6, 15264, Note_on_c, 4, 64, 47
6, 15284, Note_on_c, 4, 64, 0
6, 15288, Note_on_c, 4, 64, 47
6, 15308, Note_on_c, 4, 64, 0
6, 15312, Note_on_c, 4, 64, 47
6, 15332, Note_on_c, 4, 64, 0
6, 15336, Note_on_c, 4, 64, 47
6, 15356, Note_on_c, 4, 64, 0
6, 15360, Note_on_c, 4, 69, 47
6, 15400, Note_on_c, 4, 69, 0
6, 15552, Note_on_c, 4, 68, 47
6, 15572, Note_on_c, 4, 68, 0
6, 15576, Note_on_c, 4, 68, 47
6, 15596, Note_on_c, 4, 68, 0
6, 15600, Note_on_c, 4, 68, 47
6, 15620, Note_on_c, 4, 68, 0
6, 15624, Note_on_c, 4, 68, 47
6, 15644, Note_on_c, 4, 68, 0
6, 15648, Note_on_c, 4, 68, 47
6, 15668, Note_on_c, 4, 68, 0
6, 15672, Note_on_c, 4, 68, 47
6, 15692, Note_on_c, 4, 68, 0
6, 15696, Note_on_c, 4, 68, 47
6, 15716, Note_on_c, 4, 68, 0
6, 15720, Note_on_c, 4, 68, 47
6, 15740, Note_on_c, 4, 68, 0
6, 15744, Note_on_c, 4, 68, 47
6, 15784, Note_on_c, 4, 68, 0
6, 15936, Note_on_c, 4, 66, 47
6, 15956, Note_on_c, 4, 66, 0
6, 15960, Note_on_c, 4, 66, 47
6, 15980, Note_on_c, 4, 66, 0
6, 15984, Note_on_c, 4, 66, 47
6, 16004, Note_on_c, 4, 66, 0
6, 16008, Note_on_c, 4, 66, 47
6, 16028, Note_on_c, 4, 66, 0
6, 16032, Note_on_c, 4, 66, 47
6, 16052, Note_on_c, 4, 66, 0
6, 16056, Note_on_c, 4, 66, 47
6, 16076, Note_on_c, 4, 66, 0
6, 16080, Note_on_c, 4, 66, 47
6, 16100, Note_on_c, 4, 66, 0
6, 16104, Note_on_c, 4, 66, 47
6, 16124, Note_on_c, 4, 66, 0
6, 16128, Note_on_c, 4, 66, 47
6, 16168, Note_on_c, 4, 66, 0
6, 16320, Note_on_c, 4, 61, 47
6, 16340, Note_on_c, 4, 61, 0
6, 16344, Note_on_c, 4, 61, 47
6, 16364, Note_on_c, 4, 61, 0
6, 16368, Note_on_c, 4, 61, 47
6, 16388, Note_on_c, 4, 61, 0
6, 16392, Note_on_c, 4, 61, 47
6, 16412, Note_on_c, 4, 61, 0
6, 16416, Note_on_c, 4, 61, 47
6, 16436, Note_on_c, 4, 61, 0
6, 16440, Note_on_c, 4, 61, 47
6, 16460, Note_on_c, 4, 61, 0
6, 16464, Note_on_c, 4, 61, 47
6, 16484, Note_on_c, 4, 61, 0
6, 16488, Note_on_c, 4, 61, 47
6, 16508, Note_on_c, 4, 61, 0
6, 16512, Note_on_c, 4, 61, 47
6, 16552, Note_on_c, 4, 61, 0
6, 16704, Note_on_c, 4, 62, 47
6, 16724, Note_on_c, 4, 62, 0
6, 16728, Note_on_c, 4, 62, 47
6, 16748, Note_on_c, 4, 62, 0
6, 16752, Note_on_c, 4, 62, 47
6, 16772, Note_on_c, 4, 62, 0
6, 16776, Note_on_c, 4, 62, 47
6, 16796, Note_on_c, 4, 62, 0
6, 16800, Note_on_c, 4, 62, 47
6, 16820, Note_on_c, 4, 62, 0
6, 16824, Note_on_c, 4, 62, 47
6, 16844, Note_on_c, 4, 62, 0
6, 16848, Note_on_c, 4, 62, 47
6, 16868, Note_on_c, 4, 62, 0
6, 16872, Note_on_c, 4, 62, 47
6, 16892, Note_on_c, 4, 62, 0
6, 16896, Note_on_c, 4, 62, 47
6, 16936, Note_on_c, 4, 62, 0
6, 17088, Note_on_c, 4, 61, 47
6, 17108, Note_on_c, 4, 61, 0
6, 17112, Note_on_c, 4, 61, 47
6, 17132, Note_on_c, 4, 61, 0
6, 17136, Note_on_c, 4, 61, 47
6, 17156, Note_on_c, 4, 61, 0
6, 17160, Note_on_c, 4, 61, 47
6, 17180, Note_on_c, 4, 61, 0
6, 17184, Note_on_c, 4, 61, 47
6, 17204, Note_on_c, 4, 61, 0
6, 17208, Note_on_c, 4, 61, 47
6, 17228, Note_on_c, 4, 61, 0
6, 17232, Note_on_c, 4, 61, 47
6, 17252, Note_on_c, 4, 61, 0
6, 17256, Note_on_c, 4, 61, 47
6, 17276, Note_on_c, 4, 61, 0
6, 17280, Note_on_c, 4, 61, 47
6, 17320, Note_on_c, 4, 61, 0
6, 17472, Note_on_c, 4, 59, 47
6, 17492, Note_on_c, 4, 59, 0
6, 17496, Note_on_c, 4, 59, 47
6, 17516, Note_on_c, 4, 59, 0
6, 17520, Note_on_c, 4, 59, 47
6, 17540, Note_on_c, 4, 59, 0
6, 17544, Note_on_c, 4, 59, 47
6, 17564, Note_on_c, 4, 59, 0
6, 17568, Note_on_c, 4, 59, 47
6, 17588, Note_on_c, 4, 59, 0
6, 17592, Note_on_c, 4, 59, 47
6, 17612, Note_on_c, 4, 59, 0
6, 17616, Note_on_c, 4, 59, 47
6, 17636, Note_on_c, 4, 59, 0
6, 17640, Note_on_c, 4, 59, 47
6, 17660, Note_on_c, 4, 59, 0
6, 17664, Note_on_c, 4, 52, 47
6, 17704, Note_on_c, 4, 52, 0
6, 17856, Note_on_c, 4, 54, 47
6, 17896, Note_on_c, 4, 54, 0
6, 18072, Note_on_c, 4, 68, 47
6, 18092, Note_on_c, 4, 68, 0
6, 18096, Note_on_c, 4, 68, 47
6, 18116, Note_on_c, 4, 68, 0
6, 18120, Note_on_c, 4, 68, 47
6, 18140, Note_on_c, 4, 68, 0
6, 18168, Note_on_c, 4, 68, 47
6, 18188, Note_on_c, 4, 68, 0
6, 18192, Note_on_c, 4, 68, 47
6, 18212, Note_on_c, 4, 68, 0
6, 18216, Note_on_c, 4, 68, 47
6, 18236, Note_on_c, 4, 68, 0
6, 18264, Note_on_c, 4, 69, 47
6, 18284, Note_on_c, 4, 69, 0
6, 18288, Note_on_c, 4, 69, 47
6, 18308, Note_on_c, 4, 69, 0
6, 18312, Note_on_c, 4, 69, 47
6, 18332, Note_on_c, 4, 69, 0
6, 18360, Note_on_c, 4, 69, 47
6, 18380, Note_on_c, 4, 69, 0
6, 18384, Note_on_c, 4, 69, 47
6, 18404, Note_on_c, 4, 69, 0
6, 18408, Note_on_c, 4, 69, 47
6, 18428, Note_on_c, 4, 69, 0
6, 18456, Note_on_c, 4, 65, 47
6, 18476, Note_on_c, 4, 65, 0
6, 18480, Note_on_c, 4, 65, 47
6, 18500, Note_on_c, 4, 65, 0
6, 18504, Note_on_c, 4, 65, 47
6, 18524, Note_on_c, 4, 65, 0
6, 18552, Note_on_c, 4, 65, 47
6, 18572, Note_on_c, 4, 65, 0
6, 18576, Note_on_c, 4, 65, 47
6, 18596, Note_on_c, 4, 65, 0
6, 18600, Note_on_c, 4, 65, 47
6, 18620, Note_on_c, 4, 65, 0
6, 18648, Note_on_c, 4, 64, 47
6, 18668, Note_on_c, 4, 64, 0
6, 18672, Note_on_c, 4, 64, 47
6, 18692, Note_on_c, 4, 64, 0
6, 18696, Note_on_c, 4, 64, 47
6, 18716, Note_on_c, 4, 64, 0
6, 18744, Note_on_c, 4, 64, 47
6, 18764, Note_on_c, 4, 64, 0
6, 18768, Note_on_c, 4, 64, 47
6, 18788, Note_on_c, 4, 64, 0
6, 18792, Note_on_c, 4, 64, 47
6, 18812, Note_on_c, 4, 64, 0
6, 18840, Note_on_c, 4, 62, 47
6, 18860, Note_on_c, 4, 62, 0
6, 18864, Note_on_c, 4, 62, 47
6, 18884, Note_on_c, 4, 62, 0
6, 18888, Note_on_c, 4, 62, 47
6, 18908, Note_on_c, 4, 62, 0
6, 18936, Note_on_c, 4, 62, 47
6, 18956, Note_on_c, 4, 62, 0
6, 18960, Note_on_c, 4, 62, 47
6, 18980, Note_on_c, 4, 62, 0
6, 18984, Note_on_c, 4, 62, 47
6, 19004, Note_on_c, 4, 62, 0
6, 19032, Note_on_c, 4, 62, 47
6, 19052, Note_on_c, 4, 62, 0
6, 19056, Note_on_c, 4, 62, 47
6, 19076, Note_on_c, 4, 62, 0
6, 19080, Note_on_c, 4, 62, 47
6, 19100, Note_on_c, 4, 62, 0
6, 19128, Note_on_c, 4, 62, 47
6, 19148, Note_on_c, 4, 62, 0
6, 19152, Note_on_c, 4, 62, 47
6, 19172, Note_on_c, 4, 62, 0
6, 19176, Note_on_c, 4, 62, 47
6, 19196, Note_on_c, 4, 62, 0
6, 19200, Note_on_c, 4, 61, 95
6, 19240, Note_on_c, 4, 61, 0
6, 19272, Note_on_c, 4, 73, 95
6, 19293, Note_on_c, 4, 73, 0
6, 19296, Note_on_c, 4, 71, 95
6, 19317, Note_on_c, 4, 71, 0
6, 19320, Note_on_c, 4, 69, 95
6, 19341, Note_on_c, 4, 69, 0
6, 19344, Note_on_c, 4, 71, 95
6, 19365, Note_on_c, 4, 71, 0
6, 19368, Note_on_c, 4, 68, 95
6, 19389, Note_on_c, 4, 68, 0
6, 19392, Note_on_c, 4, 64, 95
6, 19413, Note_on_c, 4, 64, 0
6, 19416, Note_on_c, 4, 64, 95
6, 19437, Note_on_c, 4, 64, 0
6, 19440, Note_on_c, 4, 69, 95
6, 19461, Note_on_c, 4, 69, 0
6, 19464, Note_on_c, 4, 73, 95
6, 19485, Note_on_c, 4, 73, 0
6, 19488, Note_on_c, 4, 68, 95
6, 19509, Note_on_c, 4, 68, 0
6, 20040, Note_on_c, 4, 68, 47
6, 20061, Note_on_c, 4, 68, 0
6, 20064, Note_on_c, 4, 64, 47
6, 20085, Note_on_c, 4, 64, 0
6, 20088, Note_on_c, 4, 61, 47
6, 20109, Note_on_c, 4, 61, 0
6, 20616, Note_on_c, 4, 64, 47
6, 20637, Note_on_c, 4, 64, 0
6, 20640, Note_on_c, 4, 66, 47
6, 20682, Note_on_c, 4, 66, 0
6, 20712, Note_on_c, 4, 66, 47
6, 20733, Note_on_c, 4, 66, 0
6, 20736, Note_on_c, 4, 64, 47
6, 20757, Note_on_c, 4, 64, 0
6, 20760, Note_on_c, 4, 69, 47
6, 20781, Note_on_c, 4, 69, 0
6, 20808, Note_on_c, 4, 61, 47
6, 20829, Note_on_c, 4, 61, 0
6, 20832, Note_on_c, 4, 69, 47
6, 20853, Note_on_c, 4, 69, 0
6, 20856, Note_on_c, 4, 61, 47
6, 20877, Note_on_c, 4, 61, 0
6, 20880, Note_on_c, 4, 69, 47
6, 20901, Note_on_c, 4, 69, 0
6, 20904, Note_on_c, 4, 57, 47
6, 20925, Note_on_c, 4, 57, 0
6, 20928, Note_on_c, 4, 61, 47
6, 20938, Note_on_c, 4, 61, 0
6, 20940, Note_on_c, 4, 61, 47
6, 20950, Note_on_c, 4, 61, 0
6, 20952, Note_on_c, 4, 64, 47
6, 20962, Note_on_c, 4, 64, 0
6, 20964, Note_on_c, 4, 64, 47
6, 20974, Note_on_c, 4, 64, 0
6, 20976, Note_on_c, 4, 69, 47
6, 20986, Note_on_c, 4, 69, 0
6, 20988, Note_on_c, 4, 69, 47
6, 20998, Note_on_c, 4, 69, 0
6, 21000, Note_on_c, 4, 73, 47
6, 21010, Note_on_c, 4, 73, 0
6, 21012, Note_on_c, 4, 73, 47
6, 21022, Note_on_c, 4, 73, 0
6, 21024, Note_on_c, 4, 69, 47
6, 21045, Note_on_c, 4, 69, 0
6, 21312, Note_on_c, 4, 69, 47
6, 21322, Note_on_c, 4, 69, 0
6, 21324, Note_on_c, 4, 67, 47
6, 21334, Note_on_c, 4, 67, 0
6, 21336, Note_on_c, 4, 66, 47
6, 21346, Note_on_c, 4, 66, 0
6, 21348, Note_on_c, 4, 64, 47
6, 21358, Note_on_c, 4, 64, 0
6, 21360, Note_on_c, 4, 62, 47
6, 21381, Note_on_c, 4, 62, 0
6, 21384, Note_on_c, 4, 57, 47
6, 21405, Note_on_c, 4, 57, 0
6, 21408, Note_on_c, 4, 57, 47
6, 21429, Note_on_c, 4, 57, 0
6, 21432, Note_on_c, 4, 61, 47
6, 21453, Note_on_c, 4, 61, 0
6, 21456, Note_on_c, 4, 64, 47
6, 21477, Note_on_c, 4, 64, 0
6, 21480, Note_on_c, 4, 69, 47
6, 21501, Note_on_c, 4, 69, 0
6, 21504, Note_on_c, 4, 69, 47
6, 21525, Note_on_c, 4, 69, 0
6, 21792, Note_on_c, 4, 69, 47
6, 21802, Note_on_c, 4, 69, 0
6, 21804, Note_on_c, 4, 67, 47
6, 21814, Note_on_c, 4, 67, 0
6, 21816, Note_on_c, 4, 66, 47
6, 21826, Note_on_c, 4, 66, 0
6, 21828, Note_on_c, 4, 64, 47
6, 21838, Note_on_c, 4, 64, 0
6, 21840, Note_on_c, 4, 62, 47
6, 21861, Note_on_c, 4, 62, 0
6, 21864, Note_on_c, 4, 57, 47
6, 21885, Note_on_c, 4, 57, 0
6, 21888, Note_on_c, 4, 69, 47
6, 21930, Note_on_c, 4, 69, 0
6, 23040, Note_on_c, 4, 66, 95
6, 23082, Note_on_c, 4, 66, 0
6, 23112, Note_on_c, 4, 66, 95
6, 23133, Note_on_c, 4, 66, 0
6, 23136, Note_on_c, 4, 64, 95
6, 23157, Note_on_c, 4, 64, 0
6, 23160, Note_on_c, 4, 62, 95
6, 23181, Note_on_c, 4, 62, 0
6, 23184, Note_on_c, 4, 64, 95
6, 23205, Note_on_c, 4, 64, 0
6, 23208, Note_on_c, 4, 61, 95
6, 23229, Note_on_c, 4, 61, 0
6, 23232, Note_on_c, 4, 57, 95
6, 23252, Note_on_c, 4, 57, 0
6, 23256, Note_on_c, 4, 69, 95
6, 23276, Note_on_c, 4, 69, 0
6, 23280, Note_on_c, 4, 62, 95
6, 23300, Note_on_c, 4, 62, 0
6, 23304, Note_on_c, 4, 66, 95
6, 23324, Note_on_c, 4, 66, 0
6, 23328, Note_on_c, 4, 61, 95
6, 23348, Note_on_c, 4, 61, 0
6, 23352, Note_on_c, 4, 62, 95
6, 23372, Note_on_c, 4, 62, 0
6, 23376, Note_on_c, 4, 64, 95
6, 23396, Note_on_c, 4, 64, 0
6, 23400, Note_on_c, 4, 61, 95
6, 23420, Note_on_c, 4, 61, 0
6, 23424, Note_on_c, 4, 62, 95
6, 23444, Note_on_c, 4, 62, 0
6, 23448, Note_on_c, 4, 69, 95
6, 23468, Note_on_c, 4, 69, 0
6, 23472, Note_on_c, 4, 74, 95
6, 23492, Note_on_c, 4, 74, 0
6, 23496, Note_on_c, 4, 73, 95
6, 23516, Note_on_c, 4, 73, 0
6, 23520, Note_on_c, 4, 74, 95
6, 23540, Note_on_c, 4, 74, 0
6, 23544, Note_on_c, 4, 62, 95
6, 23564, Note_on_c, 4, 62, 0
6, 23568, Note_on_c, 4, 67, 95
6, 23588, Note_on_c, 4, 67, 0
6, 23592, Note_on_c, 4, 66, 95
6, 23612, Note_on_c, 4, 66, 0
6, 23616, Note_on_c, 4, 64, 95
6, 23636, Note_on_c, 4, 64, 0
6, 23640, Note_on_c, 4, 62, 95
6, 23660, Note_on_c, 4, 62, 0
6, 23664, Note_on_c, 4, 62, 95
6, 23684, Note_on_c, 4, 62, 0
6, 23688, Note_on_c, 4, 62, 95
6, 23708, Note_on_c, 4, 62, 0
6, 23712, Note_on_c, 4, 67, 95
6, 23732, Note_on_c, 4, 67, 0
6, 23736, Note_on_c, 4, 66, 95
6, 23756, Note_on_c, 4, 66, 0
6, 23760, Note_on_c, 4, 64, 95
6, 23780, Note_on_c, 4, 64, 0
6, 23784, Note_on_c, 4, 64, 95
6, 23804, Note_on_c, 4, 64, 0
6, 23808, Note_on_c, 4, 57, 95
6, 23828, Note_on_c, 4, 57, 0
6, 23832, Note_on_c, 4, 62, 95
6, 23852, Note_on_c, 4, 62, 0
6, 23856, Note_on_c, 4, 67, 95
6, 23876, Note_on_c, 4, 67, 0
6, 23880, Note_on_c, 4, 67, 95
6, 23900, Note_on_c, 4, 67, 0
6, 23904, Note_on_c, 4, 66, 95
6, 23944, Note_on_c, 4, 66, 0
6, 24504, Note_on_c, 4, 62, 63
6, 24524, Note_on_c, 4, 62, 0
6, 24528, Note_on_c, 4, 64, 63
6, 24548, Note_on_c, 4, 64, 0
6, 24552, Note_on_c, 4, 64, 63
6, 24572, Note_on_c, 4, 64, 0
6, 24576, Note_on_c, 4, 62, 63
6, 24596, Note_on_c, 4, 62, 0
6, 25176, Note_on_c, 4, 69, 63
6, 25196, Note_on_c, 4, 69, 0
6, 25200, Note_on_c, 4, 71, 63
6, 25220, Note_on_c, 4, 71, 0
6, 25224, Note_on_c, 4, 71, 63
6, 25244, Note_on_c, 4, 71, 0
6, 25248, Note_on_c, 4, 69, 63
6, 25268, Note_on_c, 4, 69, 0
6, 25320, Note_on_c, 4, 69, 63
6, 25340, Note_on_c, 4, 69, 0
6, 25344, Note_on_c, 4, 67, 63
6, 25364, Note_on_c, 4, 67, 0
6, 25416, Note_on_c, 4, 67, 63
6, 25436, Note_on_c, 4, 67, 0
6, 25440, Note_on_c, 4, 69, 63
6, 25460, Note_on_c, 4, 69, 0
6, 25512, Note_on_c, 4, 71, 63
6, 25532, Note_on_c, 4, 71, 0
6, 25536, Note_on_c, 4, 71, 63
6, 25556, Note_on_c, 4, 71, 0
6, 25608, Note_on_c, 4, 73, 63
6, 25628, Note_on_c, 4, 73, 0
6, 25632, Note_on_c, 4, 69, 63
6, 25672, Note_on_c, 4, 69, 0
6, 25704, Note_on_c, 4, 66, 63
6, 25724, Note_on_c, 4, 66, 0
6, 25728, Note_on_c, 4, 64, 63
6, 25748, Note_on_c, 4, 64, 0
6, 25752, Note_on_c, 4, 69, 63
6, 25772, Note_on_c, 4, 69, 0
6, 25800, Note_on_c, 4, 69, 63
6, 25820, Note_on_c, 4, 69, 0
6, 25824, Note_on_c, 4, 62, 63
6, 25844, Note_on_c, 4, 62, 0
6, 25848, Note_on_c, 4, 69, 63
6, 25868, Note_on_c, 4, 69, 0
6, 25896, Note_on_c, 4, 69, 63
6, 25916, Note_on_c, 4, 69, 0
6, 25920, Note_on_c, 4, 62, 63
6, 25940, Note_on_c, 4, 62, 0
6, 25944, Note_on_c, 4, 64, 63
6, 25964, Note_on_c, 4, 64, 0
6, 25992, Note_on_c, 4, 64, 63
6, 26012, Note_on_c, 4, 64, 0
6, 26016, Note_on_c, 4, 64, 95
6, 26026, Note_on_c, 4, 64, 0
6, 26028, Note_on_c, 4, 66, 95
6, 26038, Note_on_c, 4, 66, 0
6, 26040, Note_on_c, 4, 67, 95
6, 26050, Note_on_c, 4, 67, 0
6, 26052, Note_on_c, 4, 66, 95
6, 26062, Note_on_c, 4, 66, 0
6, 26064, Note_on_c, 4, 64, 95
6, 26074, Note_on_c, 4, 64, 0
6, 26076, Note_on_c, 4, 62, 95
6, 26086, Note_on_c, 4, 62, 0
6, 26088, Note_on_c, 4, 61, 95
6, 26098, Note_on_c, 4, 61, 0
6, 26100, Note_on_c, 4, 64, 95
6, 26110, Note_on_c, 4, 64, 0
6, 26112, Note_on_c, 4, 62, 95
6, 26132, Note_on_c, 4, 62, 0
6, 26136, Note_on_c, 4, 69, 95
6, 26156, Note_on_c, 4, 69, 0
6, 26160, Note_on_c, 4, 74, 95
6, 26180, Note_on_c, 4, 74, 0
6, 26184, Note_on_c, 4, 73, 95
6, 26204, Note_on_c, 4, 73, 0
6, 26208, Note_on_c, 4, 74, 95
6, 26228, Note_on_c, 4, 74, 0
6, 26232, Note_on_c, 4, 62, 95
6, 26252, Note_on_c, 4, 62, 0
6, 26256, Note_on_c, 4, 67, 95
6, 26276, Note_on_c, 4, 67, 0
6, 26280, Note_on_c, 4, 66, 95
6, 26300, Note_on_c, 4, 66, 0
6, 26304, Note_on_c, 4, 64, 95
6, 26324, Note_on_c, 4, 64, 0
6, 26328, Note_on_c, 4, 62, 95
6, 26348, Note_on_c, 4, 62, 0
6, 26352, Note_on_c, 4, 62, 95
6, 26372, Note_on_c, 4, 62, 0
6, 26376, Note_on_c, 4, 62, 95
6, 26396, Note_on_c, 4, 62, 0
6, 26400, Note_on_c, 4, 67, 95
6, 26420, Note_on_c, 4, 67, 0
6, 26424, Note_on_c, 4, 66, 95
6, 26444, Note_on_c, 4, 66, 0
6, 26448, Note_on_c, 4, 64, 95
6, 26468, Note_on_c, 4, 64, 0
6, 26472, Note_on_c, 4, 64, 95
6, 26492, Note_on_c, 4, 64, 0
6, 26496, Note_on_c, 4, 57, 95
6, 26516, Note_on_c, 4, 57, 0
6, 26520, Note_on_c, 4, 62, 95
6, 26540, Note_on_c, 4, 62, 0
6, 26544, Note_on_c, 4, 62, 95
6, 26564, Note_on_c, 4, 62, 0
6, 26568, Note_on_c, 4, 61, 95
6, 26588, Note_on_c, 4, 61, 0
6, 26592, Note_on_c, 4, 57, 95
6, 26612, Note_on_c, 4, 57, 0
6, 26616, Note_on_c, 4, 54, 63
6, 26636, Note_on_c, 4, 54, 0
6, 26640, Note_on_c, 4, 54, 63
6, 26660, Note_on_c, 4, 54, 0
6, 26664, Note_on_c, 4, 54, 63
6, 26684, Note_on_c, 4, 54, 0
6, 26688, Note_on_c, 4, 55, 63
6, 26708, Note_on_c, 4, 55, 0
6, 26712, Note_on_c, 4, 55, 63
6, 26732, Note_on_c, 4, 55, 0
6, 26736, Note_on_c, 4, 55, 63
6, 26756, Note_on_c, 4, 55, 0
6, 26760, Note_on_c, 4, 55, 63
6, 26780, Note_on_c, 4, 55, 0
6, 26784, Note_on_c, 4, 56, 63
6, 26804, Note_on_c, 4, 56, 0
6, 26808, Note_on_c, 4, 56, 63
6, 26828, Note_on_c, 4, 56, 0
6, 26832, Note_on_c, 4, 56, 63
6, 26852, Note_on_c, 4, 56, 0
6, 26856, Note_on_c, 4, 56, 63
6, 26876, Note_on_c, 4, 56, 0
6, 26880, Note_on_c, 4, 57, 63
6, 26900, Note_on_c, 4, 57, 0
6, 26904, Note_on_c, 4, 57, 63
6, 26924, Note_on_c, 4, 57, 0
6, 26928, Note_on_c, 4, 57, 63
6, 26948, Note_on_c, 4, 57, 0
6, 26952, Note_on_c, 4, 57, 63
6, 26972, Note_on_c, 4, 57, 0
6, 26976, Note_on_c, 4, 58, 63
6, 26996, Note_on_c, 4, 58, 0
6, 27000, Note_on_c, 4, 58, 63
6, 27020, Note_on_c, 4, 58, 0
6, 27024, Note_on_c, 4, 58, 63
6, 27044, Note_on_c, 4, 58, 0
6, 27048, Note_on_c, 4, 58, 63
6, 27068, Note_on_c, 4, 58, 0
6, 27072, Note_on_c, 4, 59, 63
6, 27092, Note_on_c, 4, 59, 0
6, 27096, Note_on_c, 4, 59, 63
6, 27116, Note_on_c, 4, 59, 0
6, 27120, Note_on_c, 4, 59, 63
6, 27140, Note_on_c, 4, 59, 0
6, 27144, Note_on_c, 4, 59, 63
6, 27164, Note_on_c, 4, 59, 0
6, 27168, Note_on_c, 4, 61, 63
6, 27188, Note_on_c, 4, 61, 0
6, 27192, Note_on_c, 4, 61, 63
6, 27212, Note_on_c, 4, 61, 0
6, 27216, Note_on_c, 4, 61, 63
6, 27236, Note_on_c, 4, 61, 0
6, 27240, Note_on_c, 4, 61, 63
6, 27260, Note_on_c, 4, 61, 0
6, 27264, Note_on_c, 4, 62, 63
6, 27284, Note_on_c, 4, 62, 0
6, 27288, Note_on_c, 4, 62, 63
6, 27308, Note_on_c, 4, 62, 0
6, 27312, Note_on_c, 4, 62, 63
6, 27332, Note_on_c, 4, 62, 0
6, 27336, Note_on_c, 4, 62, 63
6, 27356, Note_on_c, 4, 62, 0
6, 27360, Note_on_c, 4, 67, 63
6, 27380, Note_on_c, 4, 67, 0
6, 27384, Note_on_c, 4, 74, 63
6, 27404, Note_on_c, 4, 74, 0
6, 27408, Note_on_c, 4, 61, 63
6, 27428, Note_on_c, 4, 61, 0
6, 27432, Note_on_c, 4, 64, 63
6, 27452, Note_on_c, 4, 64, 0
6, 27456, Note_on_c, 4, 66, 63
6, 27476, Note_on_c, 4, 66, 0
6, 27480, Note_on_c, 4, 69, 63
6, 27500, Note_on_c, 4, 69, 0
6, 27504, Note_on_c, 4, 59, 63
6, 27524, Note_on_c, 4, 59, 0
6, 27528, Note_on_c, 4, 62, 63
6, 27548, Note_on_c, 4, 62, 0
6, 27552, Note_on_c, 4, 64, 63
6, 27572, Note_on_c, 4, 64, 0
6, 27576, Note_on_c, 4, 67, 63
6, 27596, Note_on_c, 4, 67, 0
6, 27600, Note_on_c, 4, 57, 63
6, 27620, Note_on_c, 4, 57, 0
6, 27624, Note_on_c, 4, 61, 63
6, 27644, Note_on_c, 4, 61, 0
6, 27648, Note_on_c, 4, 62, 63
6, 27668, Note_on_c, 4, 62, 0
6, 27672, Note_on_c, 4, 57, 63
6, 27692, Note_on_c, 4, 57, 0
6, 27696, Note_on_c, 4, 54, 63
6, 27716, Note_on_c, 4, 54, 0
6, 27720, Note_on_c, 4, 50, 63
6, 27740, Note_on_c, 4, 50, 0
6, 27744, Note_on_c, 4, 57, 63
6, 27754, Note_on_c, 4, 57, 0
6, 27756, Note_on_c, 4, 57, 63
6, 27766, Note_on_c, 4, 57, 0
6, 27768, Note_on_c, 4, 61, 63
6, 27778, Note_on_c, 4, 61, 0
6, 27780, Note_on_c, 4, 61, 63
6, 27790, Note_on_c, 4, 61, 0
6, 27792, Note_on_c, 4, 64, 63
6, 27802, Note_on_c, 4, 64, 0
6, 27804, Note_on_c, 4, 64, 63
6, 27814, Note_on_c, 4, 64, 0
6, 27816, Note_on_c, 4, 69, 63
6, 27826, Note_on_c, 4, 69, 0
6, 27828, Note_on_c, 4, 69, 63
6, 27838, Note_on_c, 4, 69, 0
6, 27840, Note_on_c, 4, 62, 63
6, 27850, Note_on_c, 4, 62, 0
6, 27852, Note_on_c, 4, 62, 63
6, 27862, Note_on_c, 4, 62, 0
6, 27864, Note_on_c, 4, 66, 63
6, 27874, Note_on_c, 4, 66, 0
6, 27876, Note_on_c, 4, 66, 63
6, 27886, Note_on_c, 4, 66, 0
6, 27888, Note_on_c, 4, 69, 63
6, 27898, Note_on_c, 4, 69, 0
6, 27900, Note_on_c, 4, 69, 63
6, 27910, Note_on_c, 4, 69, 0
6, 27912, Note_on_c, 4, 74, 63
6, 27922, Note_on_c, 4, 74, 0
6, 27924, Note_on_c, 4, 74, 63
6, 27934, Note_on_c, 4, 74, 0
6, 27936, Note_on_c, 4, 76, 63
6, 27956, Note_on_c, 4, 76, 0
6, 27960, Note_on_c, 4, 69, 63
6, 27980, Note_on_c, 4, 69, 0
6, 28032, Note_on_c, 4, 57, 47
6, 28080, Note_on_c, 4, 57, 0
6, 28128, Note_on_c, 4, 57, 47
6, 28176, Note_on_c, 4, 57, 0
6, 28224, Note_on_c, 4, 57, 47
6, 28272, Note_on_c, 4, 57, 0
6, 28320, Note_on_c, 4, 57, 47
6, 28368, Note_on_c, 4, 57, 0
6, 28416, Note_on_c, 4, 57, 47
6, 28464, Note_on_c, 4, 57, 0
6, 28512, Note_on_c, 4, 57, 47
6, 28560, Note_on_c, 4, 57, 0
6, 28608, Note_on_c, 4, 57, 47
6, 28656, Note_on_c, 4, 57, 0
6, 28704, Note_on_c, 4, 57, 47
6, 28752, Note_on_c, 4, 57, 0
6, 28800, Note_on_c, 4, 57, 47
6, 28992, Note_on_c, 4, 57, 0
6, 28992, Note_on_c, 4, 57, 47
6, 29184, Note_on_c, 4, 57, 0
6, 29184, Note_on_c, 4, 57, 47
6, 29376, Note_on_c, 4, 57, 0
6, 29376, Note_on_c, 4, 57, 47
6, 29400, Note_on_c, 4, 57, 0
6, 41952, Control_c, 4, 10, 127
6, 41952, Control_c, 4, 7, 96
6, 41952, Pitch_bend_c, 4, 8192
6, 41952, Control_c, 4, 1, 0
6, 41952, Program_c, 4, 52
6, 41952, Control_c, 4, 64, 0
6, 41952, Note_on_c, 4, 66, 95
6, 42000, Note_on_c, 4, 66, 0
6, 42024, Note_on_c, 4, 66, 95
6, 42048, Note_on_c, 4, 66, 0
6, 42048, Note_on_c, 4, 64, 95
6, 42072, Note_on_c, 4, 64, 0
6, 42072, Note_on_c, 4, 62, 95
6, 42096, Note_on_c, 4, 62, 0
6, 42096, Note_on_c, 4, 64, 95
6, 42120, Note_on_c, 4, 64, 0
6, 42120, Note_on_c, 4, 61, 95
6, 42144, Note_on_c, 4, 61, 0
6, 42144, Note_on_c, 4, 62, 95
6, 42168, Note_on_c, 4, 62, 0
6, 42168, Note_on_c, 4, 57, 95
6, 42192, Note_on_c, 4, 57, 0
6, 42192, Note_on_c, 4, 62, 95
6, 42216, Note_on_c, 4, 62, 0
6, 42216, Note_on_c, 4, 66, 95
6, 42240, Note_on_c, 4, 66, 0
6, 42240, Note_on_c, 4, 61, 95
6, 42264, Note_on_c, 4, 61, 0
6, 42264, Note_on_c, 4, 62, 95
6, 42288, Note_on_c, 4, 62, 0
6, 42288, Note_on_c, 4, 64, 95
6, 42312, Note_on_c, 4, 64, 0
6, 42312, Note_on_c, 4, 61, 95
6, 42336, Note_on_c, 4, 61, 0
6, 42336, Note_on_c, 4, 62, 95
6, 42360, Note_on_c, 4, 62, 0
6, 42360, Note_on_c, 4, 69, 95
6, 42384, Note_on_c, 4, 69, 0
6, 42384, Note_on_c, 4, 74, 95
6, 42408, Note_on_c, 4, 74, 0
6, 42408, Note_on_c, 4, 73, 95
6, 42432, Note_on_c, 4, 73, 0
6, 42432, Note_on_c, 4, 74, 95
6, 42456, Note_on_c, 4, 74, 0
6, 42456, Note_on_c, 4, 62, 95
6, 42480, Note_on_c, 4, 62, 0
6, 42480, Note_on_c, 4, 67, 95
6, 42504, Note_on_c, 4, 67, 0
6, 42504, Note_on_c, 4, 66, 95
6, 42528, Note_on_c, 4, 66, 0
6, 42528, Note_on_c, 4, 64, 95
6, 42552, Note_on_c, 4, 64, 0
6, 42552, Note_on_c, 4, 62, 95
6, 42576, Note_on_c, 4, 62, 0
6, 42576, Note_on_c, 4, 62, 95
6, 42600, Note_on_c, 4, 62, 0
6, 42600, Note_on_c, 4, 62, 95
6, 42624, Note_on_c, 4, 62, 0
6, 42624, Note_on_c, 4, 67, 95
6, 42648, Note_on_c, 4, 67, 0
6, 42648, Note_on_c, 4, 66, 95
6, 42672, Note_on_c, 4, 66, 0
6, 42672, Note_on_c, 4, 64, 95
6, 42696, Note_on_c, 4, 64, 0
6, 42696, Note_on_c, 4, 57, 95
6, 42720, Note_on_c, 4, 57, 0
6, 42720, Note_on_c, 4, 57, 95
6, 42744, Note_on_c, 4, 57, 0
6, 42744, Note_on_c, 4, 62, 95
6, 42768, Note_on_c, 4, 62, 0
6, 42768, Note_on_c, 4, 59, 95
6, 42792, Note_on_c, 4, 59, 0
6, 42792, Note_on_c, 4, 61, 95
6, 42816, Note_on_c, 4, 61, 0
6, 42816, Note_on_c, 4, 62, 95
6, 42828, Note_on_c, 4, 62, 0
6, 42828, Note_on_c, 4, 64, 95
6, 42840, Note_on_c, 4, 64, 0
6, 42840, Note_on_c, 4, 66, 95
6, 42852, Note_on_c, 4, 66, 0
6, 42852, Note_on_c, 4, 67, 95
6, 42864, Note_on_c, 4, 67, 0
6, 42864, Note_on_c, 4, 69, 95
6, 42876, Note_on_c, 4, 69, 0
6, 42876, Note_on_c, 4, 71, 95
6, 42888, Note_on_c, 4, 71, 0
6, 42888, Note_on_c, 4, 73, 95
6, 42900, Note_on_c, 4, 73, 0
6, 42900, Note_on_c, 4, 69, 95
6, 42912, Note_on_c, 4, 69, 0
6, 42912, Note_on_c, 4, 74, 95
6, 42936, Note_on_c, 4, 74, 0
6, 42936, Note_on_c, 4, 66, 95
6, 42960, Note_on_c, 4, 66, 0
6, 42960, Note_on_c, 4, 71, 95
6, 42984, Note_on_c, 4, 71, 0
6, 42984, Note_on_c, 4, 69, 95
6, 43008, Note_on_c, 4, 69, 0
6, 43008, Note_on_c, 4, 64, 95
6, 43032, Note_on_c, 4, 64, 0
6, 43032, Note_on_c, 4, 66, 95
6, 43056, Note_on_c, 4, 66, 0
6, 43056, Note_on_c, 4, 67, 95
6, 43080, Note_on_c, 4, 67, 0
6, 43080, Note_on_c, 4, 64, 95
6, 43104, Note_on_c, 4, 64, 0
6, 43104, Note_on_c, 4, 62, 95
6, 43128, Note_on_c, 4, 62, 0
6, 43128, Note_on_c, 4, 69, 95
6, 43152, Note_on_c, 4, 69, 0
6, 43152, Note_on_c, 4, 71, 95
6, 43176, Note_on_c, 4, 71, 0
6, 43176, Note_on_c, 4, 73, 95
6, 43200, Note_on_c, 4, 73, 0
6, 43200, Note_on_c, 4, 69, 95
6, 43224, Note_on_c, 4, 69, 0
6, 43224, Note_on_c, 4, 67, 95
6, 43236, Note_on_c, 4, 67, 0
6, 43236, Note_on_c, 4, 66, 95
6, 43248, Note_on_c, 4, 66, 0
6, 43248, Note_on_c, 4, 64, 95
6, 43272, Note_on_c, 4, 64, 0
6, 43272, Note_on_c, 4, 64, 95
6, 43296, Note_on_c, 4, 64, 0
6, 43296, Note_on_c, 4, 57, 95
6, 43320, Note_on_c, 4, 57, 0
6, 43320, Note_on_c, 4, 57, 95
6, 43344, Note_on_c, 4, 57, 0
6, 43344, Note_on_c, 4, 57, 95
6, 43368, Note_on_c, 4, 57, 0
6, 43368, Note_on_c, 4, 57, 95
6, 43392, Note_on_c, 4, 57, 0
6, 43392, Note_on_c, 4, 50, 95
6, 43416, Note_on_c, 4, 50, 0
6, 43416, Note_on_c, 4, 61, 95
6, 43440, Note_on_c, 4, 61, 0
6, 43440, Note_on_c, 4, 61, 95
6, 43464, Note_on_c, 4, 61, 0
6, 43464, Note_on_c, 4, 67, 95
6, 43488, Note_on_c, 4, 67, 0
6, 43488, Note_on_c, 4, 66, 95
6, 43536, Note_on_c, 4, 66, 0
6, 43536, End_track
7, 0, Start_track
7, 0, Title_t, "Cello"
7, 0, Control_c, 5, 10, 18
7, 0, Control_c, 5, 7, 96
7, 0, Pitch_bend_c, 5, 8192
7, 0, Control_c, 5, 1, 0
7, 0, Program_c, 5, 54
7, 0, Control_c, 5, 64, 0
7, 0, Note_on_c, 5, 50, 95
7, 48, Note_on_c, 5, 50, 0
7, 72, Note_on_c, 5, 50, 95
7, 96, Note_on_c, 5, 50, 0
7, 96, Note_on_c, 5, 57, 95
7, 120, Note_on_c, 5, 57, 0
7, 120, Note_on_c, 5, 59, 95
7, 144, Note_on_c, 5, 59, 0
7, 144, Note_on_c, 5, 61, 95
7, 168, Note_on_c, 5, 61, 0
7, 168, Note_on_c, 5, 57, 95
7, 192, Note_on_c, 5, 57, 0
7, 192, Note_on_c, 5, 54, 95
7, 216, Note_on_c, 5, 54, 0
7, 216, Note_on_c, 5, 52, 95
7, 240, Note_on_c, 5, 52, 0
7, 240, Note_on_c, 5, 54, 95
7, 264, Note_on_c, 5, 54, 0
7, 264, Note_on_c, 5, 50, 95
7, 288, Note_on_c, 5, 50, 0
7, 288, Note_on_c, 5, 57, 95
7, 312, Note_on_c, 5, 57, 0
7, 312, Note_on_c, 5, 59, 95
7, 336, Note_on_c, 5, 59, 0
7, 336, Note_on_c, 5, 61, 95
7, 360, Note_on_c, 5, 61, 0
7, 360, Note_on_c, 5, 57, 95
7, 384, Note_on_c, 5, 57, 0
7, 384, Note_on_c, 5, 62, 95
7, 408, Note_on_c, 5, 62, 0
7, 408, Note_on_c, 5, 61, 95
7, 432, Note_on_c, 5, 61, 0
7, 432, Note_on_c, 5, 59, 95
7, 456, Note_on_c, 5, 59, 0
7, 456, Note_on_c, 5, 57, 95
7, 480, Note_on_c, 5, 57, 0
7, 480, Note_on_c, 5, 55, 95
7, 504, Note_on_c, 5, 55, 0
7, 504, Note_on_c, 5, 54, 95
7, 528, Note_on_c, 5, 54, 0
7, 528, Note_on_c, 5, 52, 95
7, 552, Note_on_c, 5, 52, 0
7, 552, Note_on_c, 5, 50, 95
7, 576, Note_on_c, 5, 50, 0
7, 576, Note_on_c, 5, 49, 95
7, 600, Note_on_c, 5, 49, 0
7, 600, Note_on_c, 5, 50, 95
7, 624, Note_on_c, 5, 50, 0
7, 624, Note_on_c, 5, 43, 95
7, 648, Note_on_c, 5, 43, 0
7, 648, Note_on_c, 5, 42, 95
7, 672, Note_on_c, 5, 42, 0
7, 672, Note_on_c, 5, 40, 95
7, 696, Note_on_c, 5, 40, 0
7, 696, Note_on_c, 5, 38, 95
7, 720, Note_on_c, 5, 38, 0
7, 720, Note_on_c, 5, 37, 95
7, 744, Note_on_c, 5, 37, 0
7, 744, Note_on_c, 5, 49, 95
7, 768, Note_on_c, 5, 49, 0
7, 768, Note_on_c, 5, 50, 95
7, 792, Note_on_c, 5, 50, 0
7, 792, Note_on_c, 5, 47, 95
7, 816, Note_on_c, 5, 47, 0
7, 816, Note_on_c, 5, 43, 95
7, 840, Note_on_c, 5, 43, 0
7, 840, Note_on_c, 5, 45, 95
7, 864, Note_on_c, 5, 45, 0
7, 864, Note_on_c, 5, 47, 95
7, 876, Note_on_c, 5, 47, 0
7, 876, Note_on_c, 5, 49, 95
7, 888, Note_on_c, 5, 49, 0
7, 888, Note_on_c, 5, 50, 95
7, 900, Note_on_c, 5, 50, 0
7, 900, Note_on_c, 5, 52, 95
7, 912, Note_on_c, 5, 52, 0
7, 912, Note_on_c, 5, 54, 95
7, 924, Note_on_c, 5, 54, 0
7, 924, Note_on_c, 5, 55, 95
7, 936, Note_on_c, 5, 55, 0
7, 936, Note_on_c, 5, 57, 95
7, 948, Note_on_c, 5, 57, 0
7, 948, Note_on_c, 5, 54, 95
7, 960, Note_on_c, 5, 54, 0
7, 960, Note_on_c, 5, 59, 95
7, 984, Note_on_c, 5, 59, 0
7, 984, Note_on_c, 5, 57, 95
7, 1008, Note_on_c, 5, 57, 0
7, 1008, Note_on_c, 5, 55, 95
7, 1032, Note_on_c, 5, 55, 0
7, 1032, Note_on_c, 5, 54, 95
7, 1056, Note_on_c, 5, 54, 0
7, 1056, Note_on_c, 5, 52, 95
7, 1080, Note_on_c, 5, 52, 0
7, 1080, Note_on_c, 5, 50, 95
7, 1104, Note_on_c, 5, 50, 0
7, 1104, Note_on_c, 5, 49, 95
7, 1128, Note_on_c, 5, 49, 0
7, 1128, Note_on_c, 5, 45, 95
7, 1152, Note_on_c, 5, 45, 0
7, 1152, Note_on_c, 5, 50, 95
7, 1176, Note_on_c, 5, 50, 0
7, 1176, Note_on_c, 5, 54, 95
7, 1200, Note_on_c, 5, 54, 0
7, 1200, Note_on_c, 5, 55, 95
7, 1224, Note_on_c, 5, 55, 0
7, 1224, Note_on_c, 5, 57, 95
7, 1236, Note_on_c, 5, 57, 0
7, 1236, Note_on_c, 5, 55, 95
7, 1248, Note_on_c, 5, 55, 0
7, 1248, Note_on_c, 5, 54, 95
7, 1272, Note_on_c, 5, 54, 0
7, 1272, Note_on_c, 5, 55, 95
7, 1296, Note_on_c, 5, 55, 0
7, 1320, Note_on_c, 5, 49, 95
7, 1332, Note_on_c, 5, 49, 0
7, 1332, Note_on_c, 5, 49, 95
7, 1344, Note_on_c, 5, 49, 0
7, 1344, Note_on_c, 5, 50, 95
7, 1356, Note_on_c, 5, 50, 0
7, 1356, Note_on_c, 5, 50, 95
7, 1368, Note_on_c, 5, 50, 0
7, 1368, Note_on_c, 5, 49, 95
7, 1380, Note_on_c, 5, 49, 0
7, 1380, Note_on_c, 5, 49, 95
7, 1392, Note_on_c, 5, 49, 0
7, 1392, Note_on_c, 5, 50, 95
7, 1404, Note_on_c, 5, 50, 0
7, 1404, Note_on_c, 5, 50, 95
7, 1416, Note_on_c, 5, 50, 0
7, 1416, Note_on_c, 5, 42, 95
7, 1428, Note_on_c, 5, 42, 0
7, 1428, Note_on_c, 5, 42, 95
7, 1440, Note_on_c, 5, 42, 0
7, 1440, Note_on_c, 5, 43, 95
7, 1464, Note_on_c, 5, 43, 0
7, 1464, Note_on_c, 5, 55, 95
7, 1488, Note_on_c, 5, 55, 0
7, 1488, Note_on_c, 5, 57, 95
7, 1512, Note_on_c, 5, 57, 0
7, 1512, Note_on_c, 5, 45, 95
7, 1536, Note_on_c, 5, 45, 0
7, 1536, Note_on_c, 5, 50, 95
7, 1584, Note_on_c, 5, 50, 0
7, 1824, Note_on_c, 5, 50, 47
7, 1856, Note_on_c, 5, 50, 0
7, 1872, Note_on_c, 5, 50, 47
7, 1888, Note_on_c, 5, 50, 0
7, 1920, Note_on_c, 5, 57, 47
7, 1936, Note_on_c, 5, 57, 0
7, 1944, Note_on_c, 5, 45, 47
7, 1960, Note_on_c, 5, 45, 0
7, 1968, Note_on_c, 5, 47, 47
7, 1984, Note_on_c, 5, 47, 0
7, 1992, Note_on_c, 5, 49, 47
7, 2008, Note_on_c, 5, 49, 0
7, 2016, Note_on_c, 5, 50, 47
7, 2048, Note_on_c, 5, 50, 0
7, 2304, Note_on_c, 5, 50, 47
7, 2336, Note_on_c, 5, 50, 0
7, 2376, Note_on_c, 5, 38, 47
7, 2392, Note_on_c, 5, 38, 0
7, 2400, Note_on_c, 5, 45, 47
7, 2432, Note_on_c, 5, 45, 0
7, 3456, Note_on_c, 5, 57, 95
7, 3504, Note_on_c, 5, 57, 0
7, 3528, Note_on_c, 5, 45, 95
7, 3552, Note_on_c, 5, 45, 0
7, 3552, Note_on_c, 5, 52, 95
7, 3576, Note_on_c, 5, 52, 0
7, 3576, Note_on_c, 5, 54, 95
7, 3600, Note_on_c, 5, 54, 0
7, 3600, Note_on_c, 5, 56, 95
7, 3624, Note_on_c, 5, 56, 0
7, 3624, Note_on_c, 5, 52, 95
7, 3648, Note_on_c, 5, 52, 0
7, 3648, Note_on_c, 5, 49, 95
7, 3672, Note_on_c, 5, 49, 0
7, 3672, Note_on_c, 5, 47, 95
7, 3696, Note_on_c, 5, 47, 0
7, 3696, Note_on_c, 5, 49, 95
7, 3720, Note_on_c, 5, 49, 0
7, 3720, Note_on_c, 5, 45, 95
7, 3744, Note_on_c, 5, 45, 0
7, 3744, Note_on_c, 5, 52, 95
7, 3792, Note_on_c, 5, 52, 0
7, 3816, Note_on_c, 5, 52, 95
7, 3840, Note_on_c, 5, 52, 0
7, 3840, Note_on_c, 5, 57, 47
7, 3888, Note_on_c, 5, 57, 0
7, 3912, Note_on_c, 5, 45, 47
7, 3936, Note_on_c, 5, 45, 0
7, 3936, Note_on_c, 5, 50, 47
7, 3984, Note_on_c, 5, 50, 0
7, 4008, Note_on_c, 5, 50, 47
7, 4032, Note_on_c, 5, 50, 0
7, 4032, Note_on_c, 5, 47, 47
7, 4080, Note_on_c, 5, 47, 0
7, 4152, Note_on_c, 5, 52, 47
7, 4176, Note_on_c, 5, 52, 0
7, 4176, Note_on_c, 5, 57, 47
7, 4200, Note_on_c, 5, 57, 0
7, 4200, Note_on_c, 5, 49, 47
7, 4224, Note_on_c, 5, 49, 0
7, 4224, Note_on_c, 5, 54, 47
7, 4272, Note_on_c, 5, 54, 0
7, 4296, Note_on_c, 5, 42, 47
7, 4320, Note_on_c, 5, 42, 0
7, 4320, Note_on_c, 5, 47, 47
7, 4368, Note_on_c, 5, 47, 0
7, 4392, Note_on_c, 5, 47, 47
7, 4416, Note_on_c, 5, 47, 0
7, 4416, Note_on_c, 5, 44, 47
7, 4464, Note_on_c, 5, 44, 0
7, 4536, Note_on_c, 5, 49, 47
7, 4560, Note_on_c, 5, 49, 0
7, 4560, Note_on_c, 5, 54, 47
7, 4584, Note_on_c, 5, 54, 0
7, 4584, Note_on_c, 5, 45, 47
7, 4608, Note_on_c, 5, 45, 0
7, 4608, Note_on_c, 5, 50, 47
7, 4656, Note_on_c, 5, 50, 0
7, 4680, Note_on_c, 5, 50, 47
7, 4704, Note_on_c, 5, 50, 0
7, 4704, Note_on_c, 5, 55, 47
7, 4752, Note_on_c, 5, 55, 0
7, 4776, Note_on_c, 5, 55, 47
7, 4800, Note_on_c, 5, 55, 0
7, 4800, Note_on_c, 5, 52, 47
7, 4848, Note_on_c, 5, 52, 0
7, 4920, Note_on_c, 5, 52, 47
7, 4944, Note_on_c, 5, 52, 0
7, 4944, Note_on_c, 5, 57, 47
7, 4968, Note_on_c, 5, 57, 0
7, 4968, Note_on_c, 5, 45, 47
7, 4992, Note_on_c, 5, 45, 0
7, 4992, Note_on_c, 5, 50, 47
7, 5016, Note_on_c, 5, 50, 0
7, 5352, Note_on_c, 5, 52, 95
7, 5376, Note_on_c, 5, 52, 0
7, 5376, Note_on_c, 5, 57, 95
7, 5392, Note_on_c, 5, 57, 0
7, 5400, Note_on_c, 5, 56, 95
7, 5416, Note_on_c, 5, 56, 0
7, 5424, Note_on_c, 5, 54, 95
7, 5440, Note_on_c, 5, 54, 0
7, 5448, Note_on_c, 5, 52, 95
7, 5464, Note_on_c, 5, 52, 0
7, 5472, Note_on_c, 5, 50, 95
7, 5488, Note_on_c, 5, 50, 0
7, 5496, Note_on_c, 5, 49, 95
7, 5512, Note_on_c, 5, 49, 0
7, 5520, Note_on_c, 5, 47, 95
7, 5536, Note_on_c, 5, 47, 0
7, 5544, Note_on_c, 5, 45, 95
7, 5560, Note_on_c, 5, 45, 0
7, 5568, Note_on_c, 5, 44, 95
7, 5584, Note_on_c, 5, 44, 0
7, 5592, Note_on_c, 5, 45, 95
7, 5608, Note_on_c, 5, 45, 0
7, 5616, Note_on_c, 5, 50, 95
7, 5632, Note_on_c, 5, 50, 0
7, 5640, Note_on_c, 5, 49, 95
7, 5656, Note_on_c, 5, 49, 0
7, 5664, Note_on_c, 5, 47, 95
7, 5680, Note_on_c, 5, 47, 0
7, 5688, Note_on_c, 5, 45, 95
7, 5704, Note_on_c, 5, 45, 0
7, 5712, Note_on_c, 5, 44, 95
7, 5728, Note_on_c, 5, 44, 0
7, 5736, Note_on_c, 5, 56, 95
7, 5752, Note_on_c, 5, 56, 0
7, 5760, Note_on_c, 5, 57, 95
7, 5776, Note_on_c, 5, 57, 0
7, 5784, Note_on_c, 5, 54, 95
7, 5800, Note_on_c, 5, 54, 0
7, 5808, Note_on_c, 5, 50, 95
7, 5824, Note_on_c, 5, 50, 0
7, 5832, Note_on_c, 5, 52, 95
7, 5848, Note_on_c, 5, 52, 0
7, 5856, Note_on_c, 5, 57, 95
7, 5872, Note_on_c, 5, 57, 0
7, 5880, Note_on_c, 5, 52, 47
7, 5896, Note_on_c, 5, 52, 0
7, 5904, Note_on_c, 5, 45, 47
7, 5920, Note_on_c, 5, 45, 0
7, 5928, Note_on_c, 5, 49, 47
7, 5944, Note_on_c, 5, 49, 0
7, 5952, Note_on_c, 5, 50, 47
7, 5968, Note_on_c, 5, 50, 0
7, 5976, Note_on_c, 5, 57, 47
7, 5992, Note_on_c, 5, 57, 0
7, 6000, Note_on_c, 5, 62, 47
7, 6016, Note_on_c, 5, 62, 0
7, 6024, Note_on_c, 5, 54, 47
7, 6040, Note_on_c, 5, 54, 0
7, 6048, Note_on_c, 5, 55, 47
7, 6064, Note_on_c, 5, 55, 0
7, 6072, Note_on_c, 5, 50, 47
7, 6088, Note_on_c, 5, 50, 0
7, 6096, Note_on_c, 5, 43, 47
7, 6112, Note_on_c, 5, 43, 0
7, 6120, Note_on_c, 5, 47, 47
7, 6136, Note_on_c, 5, 47, 0
7, 6144, Note_on_c, 5, 49, 47
7, 6160, Note_on_c, 5, 49, 0
7, 6168, Note_on_c, 5, 47, 47
7, 6184, Note_on_c, 5, 47, 0
7, 6192, Note_on_c, 5, 49, 47
7, 6208, Note_on_c, 5, 49, 0
7, 6216, Note_on_c, 5, 52, 47
7, 6232, Note_on_c, 5, 52, 0
7, 6240, Note_on_c, 5, 54, 47
7, 6256, Note_on_c, 5, 54, 0
7, 6264, Note_on_c, 5, 52, 47
7, 6280, Note_on_c, 5, 52, 0
7, 6288, Note_on_c, 5, 42, 47
7, 6304, Note_on_c, 5, 42, 0
7, 6312, Note_on_c, 5, 46, 47
7, 6328, Note_on_c, 5, 46, 0
7, 6336, Note_on_c, 5, 47, 47
7, 6352, Note_on_c, 5, 47, 0
7, 6360, Note_on_c, 5, 54, 47
7, 6376, Note_on_c, 5, 54, 0
7, 6384, Note_on_c, 5, 59, 47
7, 6400, Note_on_c, 5, 59, 0
7, 6408, Note_on_c, 5, 50, 47
7, 6424, Note_on_c, 5, 50, 0
7, 6432, Note_on_c, 5, 52, 47
7, 6448, Note_on_c, 5, 52, 0
7, 6456, Note_on_c, 5, 54, 47
7, 6472, Note_on_c, 5, 54, 0
7, 6480, Note_on_c, 5, 55, 47
7, 6496, Note_on_c, 5, 55, 0
7, 6504, Note_on_c, 5, 52, 47
7, 6520, Note_on_c, 5, 52, 0
7, 6528, Note_on_c, 5, 54, 47
7, 6544, Note_on_c, 5, 54, 0
7, 6552, Note_on_c, 5, 61, 47
7, 6568, Note_on_c, 5, 61, 0
7, 6576, Note_on_c, 5, 58, 47
7, 6592, Note_on_c, 5, 58, 0
7, 6600, Note_on_c, 5, 54, 47
7, 6616, Note_on_c, 5, 54, 0
7, 6624, Note_on_c, 5, 47, 47
7, 6632, Note_on_c, 5, 47, 0
7, 6636, Note_on_c, 5, 47, 47
7, 6644, Note_on_c, 5, 47, 0
7, 6648, Note_on_c, 5, 50, 47
7, 6656, Note_on_c, 5, 50, 0
7, 6660, Note_on_c, 5, 50, 47
7, 6668, Note_on_c, 5, 50, 0
7, 6672, Note_on_c, 5, 54, 47
7, 6680, Note_on_c, 5, 54, 0
7, 6684, Note_on_c, 5, 54, 47
7, 6692, Note_on_c, 5, 54, 0
7, 6696, Note_on_c, 5, 59, 47
7, 6704, Note_on_c, 5, 59, 0
7, 6708, Note_on_c, 5, 59, 47
7, 6716, Note_on_c, 5, 59, 0
7, 6720, Note_on_c, 5, 64, 47
7, 6736, Note_on_c, 5, 64, 0
7, 6744, Note_on_c, 5, 59, 47
7, 6760, Note_on_c, 5, 59, 0
7, 6768, Note_on_c, 5, 55, 47
7, 6784, Note_on_c, 5, 55, 0
7, 6792, Note_on_c, 5, 52, 47
7, 6808, Note_on_c, 5, 52, 0
7, 6816, Note_on_c, 5, 42, 47
7, 6824, Note_on_c, 5, 42, 0
7, 6828, Note_on_c, 5, 42, 47
7, 6836, Note_on_c, 5, 42, 0
7, 6840, Note_on_c, 5, 46, 47
7, 6848, Note_on_c, 5, 46, 0
7, 6852, Note_on_c, 5, 46, 47
7, 6860, Note_on_c, 5, 46, 0
7, 6864, Note_on_c, 5, 49, 47
7, 6872, Note_on_c, 5, 49, 0
7, 6876, Note_on_c, 5, 49, 47
7, 6884, Note_on_c, 5, 49, 0
7, 6888, Note_on_c, 5, 54, 47
7, 6896, Note_on_c, 5, 54, 0
7, 6900, Note_on_c, 5, 54, 47
7, 6908, Note_on_c, 5, 54, 0
7, 6912, Note_on_c, 5, 47, 47
7, 6920, Note_on_c, 5, 47, 0
7, 6924, Note_on_c, 5, 47, 47
7, 6932, Note_on_c, 5, 47, 0
7, 6936, Note_on_c, 5, 50, 47
7, 6944, Note_on_c, 5, 50, 0
7, 6948, Note_on_c, 5, 50, 47
7, 6956, Note_on_c, 5, 50, 0
7, 6960, Note_on_c, 5, 54, 47
7, 6968, Note_on_c, 5, 54, 0
7, 6972, Note_on_c, 5, 54, 47
7, 6980, Note_on_c, 5, 54, 0
7, 6984, Note_on_c, 5, 59, 47
7, 6992, Note_on_c, 5, 59, 0
7, 6996, Note_on_c, 5, 59, 47
7, 7004, Note_on_c, 5, 59, 0
7, 7008, Note_on_c, 5, 52, 47
7, 7016, Note_on_c, 5, 52, 0
7, 7020, Note_on_c, 5, 52, 47
7, 7028, Note_on_c, 5, 52, 0
7, 7032, Note_on_c, 5, 55, 47
7, 7040, Note_on_c, 5, 55, 0
7, 7044, Note_on_c, 5, 55, 47
7, 7052, Note_on_c, 5, 55, 0
7, 7056, Note_on_c, 5, 59, 47
7, 7064, Note_on_c, 5, 59, 0
7, 7068, Note_on_c, 5, 59, 47
7, 7076, Note_on_c, 5, 59, 0
7, 7080, Note_on_c, 5, 64, 47
7, 7088, Note_on_c, 5, 64, 0
7, 7092, Note_on_c, 5, 64, 47
7, 7100, Note_on_c, 5, 64, 0
7, 7104, Note_on_c, 5, 54, 47
7, 7136, Note_on_c, 5, 54, 0
7, 7488, Note_on_c, 5, 62, 95
7, 7504, Note_on_c, 5, 62, 0
7, 7512, Note_on_c, 5, 61, 95
7, 7528, Note_on_c, 5, 61, 0
7, 7536, Note_on_c, 5, 59, 95
7, 7552, Note_on_c, 5, 59, 0
7, 7560, Note_on_c, 5, 57, 95
7, 7576, Note_on_c, 5, 57, 0
7, 7584, Note_on_c, 5, 55, 95
7, 7600, Note_on_c, 5, 55, 0
7, 7608, Note_on_c, 5, 54, 95
7, 7624, Note_on_c, 5, 54, 0
7, 7632, Note_on_c, 5, 52, 95
7, 7648, Note_on_c, 5, 52, 0
7, 7656, Note_on_c, 5, 50, 95
7, 7672, Note_on_c, 5, 50, 0
7, 7680, Note_on_c, 5, 49, 95
7, 7696, Note_on_c, 5, 49, 0
7, 7704, Note_on_c, 5, 47, 95
7, 7720, Note_on_c, 5, 47, 0
7, 7728, Note_on_c, 5, 47, 95
7, 7744, Note_on_c, 5, 47, 0
7, 7752, Note_on_c, 5, 46, 95
7, 7768, Note_on_c, 5, 46, 0
7, 7776, Note_on_c, 5, 47, 95
7, 7792, Note_on_c, 5, 47, 0
7, 7800, Note_on_c, 5, 43, 95
7, 7816, Note_on_c, 5, 43, 0
7, 7824, Note_on_c, 5, 40, 95
7, 7840, Note_on_c, 5, 40, 0
7, 7848, Note_on_c, 5, 42, 95
7, 7864, Note_on_c, 5, 42, 0
7, 7872, Note_on_c, 5, 47, 95
7, 7888, Note_on_c, 5, 47, 0
7, 8352, Note_on_c, 5, 40, 63
7, 8392, Note_on_c, 5, 40, 0
7, 8448, Note_on_c, 5, 45, 63
7, 8488, Note_on_c, 5, 45, 0
7, 8736, Note_on_c, 5, 38, 63
7, 8776, Note_on_c, 5, 38, 0
7, 8832, Note_on_c, 5, 43, 63
7, 8872, Note_on_c, 5, 43, 0
7, 9408, Note_on_c, 5, 45, 63
7, 9448, Note_on_c, 5, 45, 0
7, 9456, Note_on_c, 5, 45, 63
7, 9476, Note_on_c, 5, 45, 0
7, 9480, Note_on_c, 5, 50, 63
7, 9520, Note_on_c, 5, 50, 0
7, 9576, Note_on_c, 5, 38, 63
7, 9596, Note_on_c, 5, 38, 0
7, 9600, Note_on_c, 5, 43, 63
7, 9640, Note_on_c, 5, 43, 0
7, 9672, Note_on_c, 5, 43, 63
7, 9692, Note_on_c, 5, 43, 0
7, 9696, Note_on_c, 5, 40, 63
7, 9736, Note_on_c, 5, 40, 0
7, 9816, Note_on_c, 5, 45, 63
7, 9836, Note_on_c, 5, 45, 0
7, 9840, Note_on_c, 5, 50, 63
7, 9860, Note_on_c, 5, 50, 0
7, 9864, Note_on_c, 5, 42, 63
7, 9884, Note_on_c, 5, 42, 0
7, 9888, Note_on_c, 5, 47, 63
7, 9928, Note_on_c, 5, 47, 0
7, 9960, Note_on_c, 5, 47, 63
7, 9980, Note_on_c, 5, 47, 0
7, 9984, Note_on_c, 5, 52, 63
7, 10024, Note_on_c, 5, 52, 0
7, 10056, Note_on_c, 5, 52, 63
7, 10076, Note_on_c, 5, 52, 0
7, 10080, Note_on_c, 5, 49, 63
7, 10120, Note_on_c, 5, 49, 0
7, 10200, Note_on_c, 5, 54, 63
7, 10220, Note_on_c, 5, 54, 0
7, 10224, Note_on_c, 5, 59, 63
7, 10244, Note_on_c, 5, 59, 0
7, 10248, Note_on_c, 5, 50, 63
7, 10268, Note_on_c, 5, 50, 0
7, 10272, Note_on_c, 5, 55, 63
7, 10292, Note_on_c, 5, 55, 0
7, 10344, Note_on_c, 5, 43, 63
7, 10364, Note_on_c, 5, 43, 0
7, 10368, Note_on_c, 5, 48, 63
7, 10408, Note_on_c, 5, 48, 0
7, 10440, Note_on_c, 5, 48, 63
7, 10460, Note_on_c, 5, 48, 0
7, 10464, Note_on_c, 5, 45, 63
7, 10504, Note_on_c, 5, 45, 0
7, 10584, Note_on_c, 5, 45, 63
7, 10604, Note_on_c, 5, 45, 0
7, 10608, Note_on_c, 5, 50, 63
7, 10628, Note_on_c, 5, 50, 0
7, 10632, Note_on_c, 5, 38, 63
7, 10652, Note_on_c, 5, 38, 0
7, 10656, Note_on_c, 5, 43, 63
7, 10676, Note_on_c, 5, 43, 0
7, 11016, Note_on_c, 5, 57, 95
7, 11036, Note_on_c, 5, 57, 0
7, 11040, Note_on_c, 5, 62, 95
7, 11060, Note_on_c, 5, 62, 0
7, 11064, Note_on_c, 5, 61, 95
7, 11084, Note_on_c, 5, 61, 0
7, 11088, Note_on_c, 5, 59, 95
7, 11108, Note_on_c, 5, 59, 0
7, 11112, Note_on_c, 5, 57, 95
7, 11132, Note_on_c, 5, 57, 0
7, 11136, Note_on_c, 5, 55, 95
7, 11156, Note_on_c, 5, 55, 0
7, 11160, Note_on_c, 5, 54, 95
7, 11180, Note_on_c, 5, 54, 0
7, 11184, Note_on_c, 5, 52, 95
7, 11204, Note_on_c, 5, 52, 0
7, 11208, Note_on_c, 5, 50, 95
7, 11228, Note_on_c, 5, 50, 0
7, 11232, Note_on_c, 5, 49, 95
7, 11252, Note_on_c, 5, 49, 0
7, 11256, Note_on_c, 5, 50, 95
7, 11276, Note_on_c, 5, 50, 0
7, 11280, Note_on_c, 5, 55, 95
7, 11300, Note_on_c, 5, 55, 0
7, 11304, Note_on_c, 5, 54, 95
7, 11324, Note_on_c, 5, 54, 0
7, 11328, Note_on_c, 5, 52, 95
7, 11348, Note_on_c, 5, 52, 0
7, 11352, Note_on_c, 5, 50, 95
7, 11372, Note_on_c, 5, 50, 0
7, 11376, Note_on_c, 5, 49, 95
7, 11396, Note_on_c, 5, 49, 0
7, 11400, Note_on_c, 5, 45, 95
7, 11420, Note_on_c, 5, 45, 0
7, 11424, Note_on_c, 5, 50, 95
7, 11444, Note_on_c, 5, 50, 0
7, 11448, Note_on_c, 5, 47, 95
7, 11468, Note_on_c, 5, 47, 0
7, 11472, Note_on_c, 5, 43, 95
7, 11492, Note_on_c, 5, 43, 0
7, 11496, Note_on_c, 5, 45, 95
7, 11516, Note_on_c, 5, 45, 0
7, 11520, Note_on_c, 5, 42, 95
7, 11540, Note_on_c, 5, 42, 0
7, 12120, Note_on_c, 5, 45, 63
7, 12140, Note_on_c, 5, 45, 0
7, 12144, Note_on_c, 5, 52, 63
7, 12164, Note_on_c, 5, 52, 0
7, 12168, Note_on_c, 5, 50, 63
7, 12188, Note_on_c, 5, 50, 0
7, 12192, Note_on_c, 5, 49, 63
7, 12212, Note_on_c, 5, 49, 0
7, 12792, Note_on_c, 5, 52, 63
7, 12812, Note_on_c, 5, 52, 0
7, 12816, Note_on_c, 5, 59, 63
7, 12836, Note_on_c, 5, 59, 0
7, 12840, Note_on_c, 5, 47, 63
7, 12860, Note_on_c, 5, 47, 0
7, 12864, Note_on_c, 5, 52, 63
7, 12884, Note_on_c, 5, 52, 0
7, 13440, Note_on_c, 5, 54, 63
7, 13460, Note_on_c, 5, 54, 0
7, 13464, Note_on_c, 5, 56, 63
7, 13484, Note_on_c, 5, 56, 0
7, 13488, Note_on_c, 5, 57, 63
7, 13508, Note_on_c, 5, 57, 0
7, 13512, Note_on_c, 5, 59, 63
7, 13532, Note_on_c, 5, 59, 0
7, 13536, Note_on_c, 5, 57, 63
7, 13556, Note_on_c, 5, 57, 0
7, 13560, Note_on_c, 5, 59, 63
7, 13580, Note_on_c, 5, 59, 0
7, 13584, Note_on_c, 5, 57, 63
7, 13604, Note_on_c, 5, 57, 0
7, 13608, Note_on_c, 5, 56, 63
7, 13628, Note_on_c, 5, 56, 0
7, 13632, Note_on_c, 5, 54, 63
7, 13652, Note_on_c, 5, 54, 0
7, 13656, Note_on_c, 5, 53, 63
7, 13676, Note_on_c, 5, 53, 0
7, 13680, Note_on_c, 5, 54, 63
7, 13700, Note_on_c, 5, 54, 0
7, 13704, Note_on_c, 5, 56, 63
7, 13724, Note_on_c, 5, 56, 0
7, 13728, Note_on_c, 5, 57, 63
7, 13748, Note_on_c, 5, 57, 0
7, 13752, Note_on_c, 5, 56, 63
7, 13772, Note_on_c, 5, 56, 0
7, 13776, Note_on_c, 5, 57, 63
7, 13796, Note_on_c, 5, 57, 0
7, 13800, Note_on_c, 5, 54, 63
7, 13820, Note_on_c, 5, 54, 0
7, 13824, Note_on_c, 5, 56, 63
7, 13844, Note_on_c, 5, 56, 0
7, 13848, Note_on_c, 5, 57, 63
7, 13868, Note_on_c, 5, 57, 0
7, 13872, Note_on_c, 5, 59, 63
7, 13892, Note_on_c, 5, 59, 0
7, 13896, Note_on_c, 5, 57, 63
7, 13916, Note_on_c, 5, 57, 0
7, 13920, Note_on_c, 5, 56, 63
7, 13940, Note_on_c, 5, 56, 0
7, 13944, Note_on_c, 5, 54, 63
7, 13964, Note_on_c, 5, 54, 0
7, 13968, Note_on_c, 5, 56, 63
7, 13988, Note_on_c, 5, 56, 0
7, 13992, Note_on_c, 5, 49, 63
7, 14012, Note_on_c, 5, 49, 0
7, 14016, Note_on_c, 5, 54, 63
7, 14036, Note_on_c, 5, 54, 0
7, 14040, Note_on_c, 5, 56, 63
7, 14060, Note_on_c, 5, 56, 0
7, 14064, Note_on_c, 5, 57, 63
7, 14084, Note_on_c, 5, 57, 0
7, 14088, Note_on_c, 5, 59, 63
7, 14108, Note_on_c, 5, 59, 0
7, 14112, Note_on_c, 5, 57, 63
7, 14132, Note_on_c, 5, 57, 0
7, 14136, Note_on_c, 5, 59, 63
7, 14156, Note_on_c, 5, 59, 0
7, 14160, Note_on_c, 5, 57, 63
7, 14180, Note_on_c, 5, 57, 0
7, 14184, Note_on_c, 5, 56, 63
7, 14204, Note_on_c, 5, 56, 0
7, 14208, Note_on_c, 5, 54, 63
7, 14228, Note_on_c, 5, 54, 0
7, 14232, Note_on_c, 5, 56, 63
7, 14252, Note_on_c, 5, 56, 0
7, 14256, Note_on_c, 5, 57, 63
7, 14276, Note_on_c, 5, 57, 0
7, 14280, Note_on_c, 5, 56, 63
7, 14300, Note_on_c, 5, 56, 0
7, 14304, Note_on_c, 5, 54, 63
7, 14324, Note_on_c, 5, 54, 0
7, 14328, Note_on_c, 5, 52, 63
7, 14348, Note_on_c, 5, 52, 0
7, 14352, Note_on_c, 5, 50, 63
7, 14372, Note_on_c, 5, 50, 0
7, 14376, Note_on_c, 5, 49, 63
7, 14396, Note_on_c, 5, 49, 0
7, 14400, Note_on_c, 5, 47, 63
7, 14420, Note_on_c, 5, 47, 0
7, 14424, Note_on_c, 5, 45, 63
7, 14444, Note_on_c, 5, 45, 0
7, 14448, Note_on_c, 5, 44, 63
7, 14468, Note_on_c, 5, 44, 0
7, 14472, Note_on_c, 5, 42, 63
7, 14492, Note_on_c, 5, 42, 0
7, 14496, Note_on_c, 5, 40, 63
7, 14516, Note_on_c, 5, 40, 0
7, 14520, Note_on_c, 5, 50, 63
7, 14540, Note_on_c, 5, 50, 0
7, 14544, Note_on_c, 5, 49, 63
7, 14564, Note_on_c, 5, 49, 0
7, 14568, Note_on_c, 5, 47, 63
7, 14588, Note_on_c, 5, 47, 0
7, 14592, Note_on_c, 5, 45, 63
7, 14612, Note_on_c, 5, 45, 0
7, 14616, Note_on_c, 5, 47, 63
7, 14636, Note_on_c, 5, 47, 0
7, 14640, Note_on_c, 5, 49, 63
7, 14660, Note_on_c, 5, 49, 0
7, 14664, Note_on_c, 5, 50, 63
7, 14684, Note_on_c, 5, 50, 0
7, 14688, Note_on_c, 5, 49, 63
7, 14708, Note_on_c, 5, 49, 0
7, 14712, Note_on_c, 5, 50, 63
7, 14732, Note_on_c, 5, 50, 0
7, 14736, Note_on_c, 5, 49, 63
7, 14756, Note_on_c, 5, 49, 0
7, 14760, Note_on_c, 5, 47, 63
7, 14780, Note_on_c, 5, 47, 0
7, 14784, Note_on_c, 5, 45, 63
7, 14804, Note_on_c, 5, 45, 0
7, 14808, Note_on_c, 5, 57, 63
7, 14828, Note_on_c, 5, 57, 0
7, 14832, Note_on_c, 5, 54, 63
7, 14852, Note_on_c, 5, 54, 0
7, 14856, Note_on_c, 5, 50, 63
7, 14876, Note_on_c, 5, 50, 0
7, 14880, Note_on_c, 5, 45, 63
7, 14900, Note_on_c, 5, 45, 0
7, 14904, Note_on_c, 5, 57, 63
7, 14924, Note_on_c, 5, 57, 0
7, 14928, Note_on_c, 5, 54, 63
7, 14948, Note_on_c, 5, 54, 0
7, 14952, Note_on_c, 5, 50, 63
7, 14972, Note_on_c, 5, 50, 0
7, 14976, Note_on_c, 5, 45, 63
7, 14996, Note_on_c, 5, 45, 0
7, 15000, Note_on_c, 5, 62, 63
7, 15020, Note_on_c, 5, 62, 0
7, 15024, Note_on_c, 5, 59, 63
7, 15044, Note_on_c, 5, 59, 0
7, 15048, Note_on_c, 5, 56, 63
7, 15068, Note_on_c, 5, 56, 0
7, 15072, Note_on_c, 5, 52, 63
7, 15092, Note_on_c, 5, 52, 0
7, 15096, Note_on_c, 5, 59, 63
7, 15116, Note_on_c, 5, 59, 0
7, 15120, Note_on_c, 5, 56, 63
7, 15140, Note_on_c, 5, 56, 0
7, 15144, Note_on_c, 5, 52, 63
7, 15164, Note_on_c, 5, 52, 0
7, 15168, Note_on_c, 5, 45, 63
7, 15208, Note_on_c, 5, 45, 0
7, 15360, Note_on_c, 5, 57, 63
7, 15380, Note_on_c, 5, 57, 0
7, 15384, Note_on_c, 5, 61, 63
7, 15404, Note_on_c, 5, 61, 0
7, 15408, Note_on_c, 5, 66, 63
7, 15428, Note_on_c, 5, 66, 0
7, 15432, Note_on_c, 5, 61, 63
7, 15452, Note_on_c, 5, 61, 0
7, 15456, Note_on_c, 5, 57, 63
7, 15476, Note_on_c, 5, 57, 0
7, 15480, Note_on_c, 5, 54, 63
7, 15500, Note_on_c, 5, 54, 0
7, 15504, Note_on_c, 5, 51, 63
7, 15524, Note_on_c, 5, 51, 0
7, 15528, Note_on_c, 5, 54, 63
7, 15548, Note_on_c, 5, 54, 0
7, 15552, Note_on_c, 5, 44, 63
7, 15592, Note_on_c, 5, 44, 0
7, 15744, Note_on_c, 5, 56, 63
7, 15764, Note_on_c, 5, 56, 0
7, 15768, Note_on_c, 5, 59, 63
7, 15788, Note_on_c, 5, 59, 0
7, 15792, Note_on_c, 5, 64, 63
7, 15812, Note_on_c, 5, 64, 0
7, 15816, Note_on_c, 5, 59, 63
7, 15836, Note_on_c, 5, 59, 0
7, 15840, Note_on_c, 5, 56, 63
7, 15860, Note_on_c, 5, 56, 0
7, 15864, Note_on_c, 5, 52, 63
7, 15884, Note_on_c, 5, 52, 0
7, 15888, Note_on_c, 5, 49, 63
7, 15908, Note_on_c, 5, 49, 0
7, 15912, Note_on_c, 5, 52, 63
7, 15932, Note_on_c, 5, 52, 0
7, 15936, Note_on_c, 5, 42, 63
7, 15976, Note_on_c, 5, 42, 0
7, 16128, Note_on_c, 5, 54, 63
7, 16148, Note_on_c, 5, 54, 0
7, 16152, Note_on_c, 5, 57, 63
7, 16172, Note_on_c, 5, 57, 0
7, 16176, Note_on_c, 5, 62, 63
7, 16196, Note_on_c, 5, 62, 0
7, 16200, Note_on_c, 5, 57, 63
7, 16220, Note_on_c, 5, 57, 0
7, 16224, Note_on_c, 5, 54, 63
7, 16244, Note_on_c, 5, 54, 0
7, 16248, Note_on_c, 5, 50, 63
7, 16268, Note_on_c, 5, 50, 0
7, 16272, Note_on_c, 5, 47, 63
7, 16292, Note_on_c, 5, 47, 0
7, 16296, Note_on_c, 5, 50, 63
7, 16316, Note_on_c, 5, 50, 0
7, 16320, Note_on_c, 5, 40, 63
7, 16360, Note_on_c, 5, 40, 0
7, 16512, Note_on_c, 5, 52, 63
7, 16532, Note_on_c, 5, 52, 0
7, 16536, Note_on_c, 5, 56, 63
7, 16556, Note_on_c, 5, 56, 0
7, 16560, Note_on_c, 5, 61, 63
7, 16580, Note_on_c, 5, 61, 0
7, 16584, Note_on_c, 5, 56, 63
7, 16604, Note_on_c, 5, 56, 0
7, 16608, Note_on_c, 5, 52, 63
7, 16628, Note_on_c, 5, 52, 0
7, 16632, Note_on_c, 5, 49, 63
7, 16652, Note_on_c, 5, 49, 0
7, 16656, Note_on_c, 5, 45, 63
7, 16676, Note_on_c, 5, 45, 0
7, 16680, Note_on_c, 5, 49, 63
7, 16700, Note_on_c, 5, 49, 0
7, 16704, Note_on_c, 5, 38, 63
7, 16744, Note_on_c, 5, 38, 0
7, 16896, Note_on_c, 5, 50, 63
7, 16916, Note_on_c, 5, 50, 0
7, 16920, Note_on_c, 5, 54, 63
7, 16940, Note_on_c, 5, 54, 0
7, 16944, Note_on_c, 5, 59, 63
7, 16964, Note_on_c, 5, 59, 0
7, 16968, Note_on_c, 5, 54, 63
7, 16988, Note_on_c, 5, 54, 0
7, 16992, Note_on_c, 5, 50, 63
7, 17012, Note_on_c, 5, 50, 0
7, 17016, Note_on_c, 5, 47, 63
7, 17036, Note_on_c, 5, 47, 0
7, 17040, Note_on_c, 5, 44, 63
7, 17060, Note_on_c, 5, 44, 0
7, 17064, Note_on_c, 5, 47, 63
7, 17084, Note_on_c, 5, 47, 0
7, 17088, Note_on_c, 5, 37, 63
7, 17128, Note_on_c, 5, 37, 0
7, 17280, Note_on_c, 5, 49, 63
7, 17300, Note_on_c, 5, 49, 0
7, 17304, Note_on_c, 5, 52, 63
7, 17324, Note_on_c, 5, 52, 0
7, 17328, Note_on_c, 5, 57, 63
7, 17348, Note_on_c, 5, 57, 0
7, 17352, Note_on_c, 5, 52, 63
7, 17372, Note_on_c, 5, 52, 0
7, 17376, Note_on_c, 5, 49, 63
7, 17396, Note_on_c, 5, 49, 0
7, 17400, Note_on_c, 5, 45, 63
7, 17420, Note_on_c, 5, 45, 0
7, 17424, Note_on_c, 5, 42, 63
7, 17444, Note_on_c, 5, 42, 0
7, 17448, Note_on_c, 5, 45, 63
7, 17468, Note_on_c, 5, 45, 0
7, 17472, Note_on_c, 5, 47, 63
7, 17512, Note_on_c, 5, 47, 0
7, 17664, Note_on_c, 5, 40, 63
7, 17684, Note_on_c, 5, 40, 0
7, 17688, Note_on_c, 5, 59, 63
7, 17708, Note_on_c, 5, 59, 0
7, 17712, Note_on_c, 5, 56, 63
7, 17732, Note_on_c, 5, 56, 0
7, 17736, Note_on_c, 5, 52, 63
7, 17756, Note_on_c, 5, 52, 0
7, 17760, Note_on_c, 5, 47, 63
7, 17780, Note_on_c, 5, 47, 0
7, 17784, Note_on_c, 5, 52, 63
7, 17804, Note_on_c, 5, 52, 0
7, 17808, Note_on_c, 5, 47, 63
7, 17828, Note_on_c, 5, 47, 0
7, 17832, Note_on_c, 5, 44, 63
7, 17852, Note_on_c, 5, 44, 0
7, 17856, Note_on_c, 5, 40, 63
7, 17876, Note_on_c, 5, 40, 0
7, 17880, Note_on_c, 5, 57, 63
7, 17900, Note_on_c, 5, 57, 0
7, 17904, Note_on_c, 5, 52, 63
7, 17924, Note_on_c, 5, 52, 0
7, 17928, Note_on_c, 5, 49, 63
7, 17948, Note_on_c, 5, 49, 0
7, 17952, Note_on_c, 5, 45, 63
7, 17972, Note_on_c, 5, 45, 0
7, 17976, Note_on_c, 5, 52, 63
7, 17996, Note_on_c, 5, 52, 0
7, 18000, Note_on_c, 5, 49, 63
7, 18020, Note_on_c, 5, 49, 0
7, 18024, Note_on_c, 5, 45, 63
7, 18044, Note_on_c, 5, 45, 0
7, 18048, Note_on_c, 5, 40, 63
7, 18068, Note_on_c, 5, 40, 0
7, 18072, Note_on_c, 5, 56, 63
7, 18092, Note_on_c, 5, 56, 0
7, 18096, Note_on_c, 5, 52, 63
7, 18116, Note_on_c, 5, 52, 0
7, 18120, Note_on_c, 5, 47, 63
7, 18140, Note_on_c, 5, 47, 0
7, 18144, Note_on_c, 5, 44, 63
7, 18164, Note_on_c, 5, 44, 0
7, 18168, Note_on_c, 5, 52, 63
7, 18188, Note_on_c, 5, 52, 0
7, 18192, Note_on_c, 5, 47, 63
7, 18212, Note_on_c, 5, 47, 0
7, 18216, Note_on_c, 5, 44, 63
7, 18236, Note_on_c, 5, 44, 0
7, 18240, Note_on_c, 5, 40, 63
7, 18260, Note_on_c, 5, 40, 0
7, 18264, Note_on_c, 5, 57, 63
7, 18284, Note_on_c, 5, 57, 0
7, 18288, Note_on_c, 5, 54, 63
7, 18308, Note_on_c, 5, 54, 0
7, 18312, Note_on_c, 5, 51, 63
7, 18332, Note_on_c, 5, 51, 0
7, 18336, Note_on_c, 5, 48, 63
7, 18356, Note_on_c, 5, 48, 0
7, 18360, Note_on_c, 5, 51, 63
7, 18380, Note_on_c, 5, 51, 0
7, 18384, Note_on_c, 5, 48, 63
7, 18404, Note_on_c, 5, 48, 0
7, 18408, Note_on_c, 5, 45, 63
7, 18428, Note_on_c, 5, 45, 0
7, 18432, Note_on_c, 5, 40, 63
7, 18452, Note_on_c, 5, 40, 0
7, 18456, Note_on_c, 5, 59, 63
7, 18476, Note_on_c, 5, 59, 0
7, 18480, Note_on_c, 5, 56, 63
7, 18500, Note_on_c, 5, 56, 0
7, 18504, Note_on_c, 5, 53, 63
7, 18524, Note_on_c, 5, 53, 0
7, 18528, Note_on_c, 5, 50, 63
7, 18548, Note_on_c, 5, 50, 0
7, 18552, Note_on_c, 5, 53, 63
7, 18572, Note_on_c, 5, 53, 0
7, 18576, Note_on_c, 5, 50, 63
7, 18596, Note_on_c, 5, 50, 0
7, 18600, Note_on_c, 5, 47, 63
7, 18620, Note_on_c, 5, 47, 0
7, 18624, Note_on_c, 5, 40, 63
7, 18644, Note_on_c, 5, 40, 0
7, 18648, Note_on_c, 5, 60, 63
7, 18668, Note_on_c, 5, 60, 0
7, 18672, Note_on_c, 5, 57, 63
7, 18692, Note_on_c, 5, 57, 0
7, 18696, Note_on_c, 5, 52, 63
7, 18716, Note_on_c, 5, 52, 0
7, 18720, Note_on_c, 5, 48, 63
7, 18740, Note_on_c, 5, 48, 0
7, 18744, Note_on_c, 5, 52, 63
7, 18764, Note_on_c, 5, 52, 0
7, 18768, Note_on_c, 5, 48, 63
7, 18788, Note_on_c, 5, 48, 0
7, 18792, Note_on_c, 5, 45, 63
7, 18812, Note_on_c, 5, 45, 0
7, 18816, Note_on_c, 5, 40, 63
7, 18836, Note_on_c, 5, 40, 0
7, 18840, Note_on_c, 5, 62, 63
7, 18860, Note_on_c, 5, 62, 0
7, 18864, Note_on_c, 5, 59, 63
7, 18884, Note_on_c, 5, 59, 0
7, 18888, Note_on_c, 5, 53, 63
7, 18908, Note_on_c, 5, 53, 0
7, 18912, Note_on_c, 5, 50, 63
7, 18932, Note_on_c, 5, 50, 0
7, 18936, Note_on_c, 5, 53, 63
7, 18956, Note_on_c, 5, 53, 0
7, 18960, Note_on_c, 5, 50, 63
7, 18980, Note_on_c, 5, 50, 0
7, 18984, Note_on_c, 5, 47, 63
7, 19004, Note_on_c, 5, 47, 0
7, 19008, Note_on_c, 5, 40, 63
7, 19028, Note_on_c, 5, 40, 0
7, 19032, Note_on_c, 5, 64, 63
7, 19052, Note_on_c, 5, 64, 0
7, 19056, Note_on_c, 5, 59, 63
7, 19076, Note_on_c, 5, 59, 0
7, 19080, Note_on_c, 5, 56, 63
7, 19100, Note_on_c, 5, 56, 0
7, 19104, Note_on_c, 5, 52, 63
7, 19124, Note_on_c, 5, 52, 0
7, 19128, Note_on_c, 5, 47, 63
7, 19148, Note_on_c, 5, 47, 0
7, 19152, Note_on_c, 5, 44, 63
7, 19172, Note_on_c, 5, 44, 0
7, 19176, Note_on_c, 5, 40, 63
7, 19196, Note_on_c, 5, 40, 0
7, 19200, Note_on_c, 5, 45, 95
7, 19240, Note_on_c, 5, 45, 0
7, 19272, Note_on_c, 5, 45, 95
7, 19293, Note_on_c, 5, 45, 0
7, 19296, Note_on_c, 5, 52, 95
7, 19317, Note_on_c, 5, 52, 0
7, 19320, Note_on_c, 5, 54, 95
7, 19341, Note_on_c, 5, 54, 0
7, 19344, Note_on_c, 5, 56, 95
7, 19365, Note_on_c, 5, 56, 0
7, 19368, Note_on_c, 5, 52, 95
7, 19389, Note_on_c, 5, 52, 0
7, 19392, Note_on_c, 5, 49, 95
7, 19413, Note_on_c, 5, 49, 0
7, 19416, Note_on_c, 5, 47, 95
7, 19437, Note_on_c, 5, 47, 0
7, 19440, Note_on_c, 5, 49, 95
7, 19461, Note_on_c, 5, 49, 0
7, 19464, Note_on_c, 5, 45, 95
7, 19485, Note_on_c, 5, 45, 0
7, 19488, Note_on_c, 5, 52, 95
7, 19509, Note_on_c, 5, 52, 0
7, 19512, Note_on_c, 5, 50, 63
7, 19533, Note_on_c, 5, 50, 0
7, 19536, Note_on_c, 5, 49, 63
7, 19557, Note_on_c, 5, 49, 0
7, 19560, Note_on_c, 5, 50, 63
7, 19570, Note_on_c, 5, 50, 0
7, 19572, Note_on_c, 5, 52, 63
7, 19582, Note_on_c, 5, 52, 0
7, 19584, Note_on_c, 5, 54, 63
7, 19605, Note_on_c, 5, 54, 0
7, 19608, Note_on_c, 5, 56, 63
7, 19618, Note_on_c, 5, 56, 0
7, 19620, Note_on_c, 5, 57, 63
7, 19630, Note_on_c, 5, 57, 0
7, 19632, Note_on_c, 5, 59, 63
7, 19653, Note_on_c, 5, 59, 0
7, 19656, Note_on_c, 5, 47, 63
7, 19677, Note_on_c, 5, 47, 0
7, 19680, Note_on_c, 5, 52, 63
7, 19701, Note_on_c, 5, 52, 0
7, 19704, Note_on_c, 5, 54, 63
7, 19714, Note_on_c, 5, 54, 0
7, 19716, Note_on_c, 5, 56, 63
7, 19726, Note_on_c, 5, 56, 0
7, 19728, Note_on_c, 5, 57, 63
7, 19749, Note_on_c, 5, 57, 0
7, 19752, Note_on_c, 5, 45, 63
7, 19773, Note_on_c, 5, 45, 0
7, 19776, Note_on_c, 5, 50, 63
7, 19797, Note_on_c, 5, 50, 0
7, 19800, Note_on_c, 5, 52, 63
7, 19810, Note_on_c, 5, 52, 0
7, 19812, Note_on_c, 5, 54, 63
7, 19822, Note_on_c, 5, 54, 0
7, 19824, Note_on_c, 5, 44, 63
7, 19845, Note_on_c, 5, 44, 0
7, 19848, Note_on_c, 5, 56, 63
7, 19869, Note_on_c, 5, 56, 0
7, 19872, Note_on_c, 5, 49, 63
7, 19893, Note_on_c, 5, 49, 0
7, 19896, Note_on_c, 5, 50, 63
7, 19906, Note_on_c, 5, 50, 0
7, 19908, Note_on_c, 5, 52, 63
7, 19918, Note_on_c, 5, 52, 0
7, 19920, Note_on_c, 5, 42, 63
7, 19941, Note_on_c, 5, 42, 0
7, 19944, Note_on_c, 5, 54, 63
7, 19965, Note_on_c, 5, 54, 0
7, 19968, Note_on_c, 5, 47, 63
7, 19989, Note_on_c, 5, 47, 0
7, 19992, Note_on_c, 5, 45, 63
7, 20013, Note_on_c, 5, 45, 0
7, 20016, Note_on_c, 5, 47, 63
7, 20037, Note_on_c, 5, 47, 0
7, 20040, Note_on_c, 5, 40, 63
7, 20061, Note_on_c, 5, 40, 0
7, 20064, Note_on_c, 5, 45, 63
7, 20085, Note_on_c, 5, 45, 0
7, 20088, Note_on_c, 5, 57, 63
7, 20109, Note_on_c, 5, 57, 0
7, 20124, Note_on_c, 5, 42, 63
7, 20134, Note_on_c, 5, 42, 0
7, 20136, Note_on_c, 5, 43, 63
7, 20146, Note_on_c, 5, 43, 0
7, 20148, Note_on_c, 5, 45, 63
7, 20158, Note_on_c, 5, 45, 0
7, 20160, Note_on_c, 5, 47, 63
7, 20181, Note_on_c, 5, 47, 0
7, 20184, Note_on_c, 5, 45, 63
7, 20205, Note_on_c, 5, 45, 0
7, 20208, Note_on_c, 5, 47, 63
7, 20229, Note_on_c, 5, 47, 0
7, 20232, Note_on_c, 5, 52, 63
7, 20253, Note_on_c, 5, 52, 0
7, 20256, Note_on_c, 5, 45, 63
7, 20277, Note_on_c, 5, 45, 0
7, 20280, Note_on_c, 5, 43, 63
7, 20301, Note_on_c, 5, 43, 0
7, 20304, Note_on_c, 5, 45, 63
7, 20325, Note_on_c, 5, 45, 0
7, 20328, Note_on_c, 5, 50, 63
7, 20349, Note_on_c, 5, 50, 0
7, 20352, Note_on_c, 5, 43, 63
7, 20373, Note_on_c, 5, 43, 0
7, 20376, Note_on_c, 5, 42, 63
7, 20397, Note_on_c, 5, 42, 0
7, 20400, Note_on_c, 5, 43, 63
7, 20421, Note_on_c, 5, 43, 0
7, 20424, Note_on_c, 5, 55, 63
7, 20445, Note_on_c, 5, 55, 0
7, 20448, Note_on_c, 5, 54, 63
7, 20469, Note_on_c, 5, 54, 0
7, 20472, Note_on_c, 5, 52, 63
7, 20493, Note_on_c, 5, 52, 0
7, 20496, Note_on_c, 5, 54, 63
7, 20517, Note_on_c, 5, 54, 0
7, 20520, Note_on_c, 5, 59, 63
7, 20541, Note_on_c, 5, 59, 0
7, 20544, Note_on_c, 5, 52, 63
7, 20565, Note_on_c, 5, 52, 0
7, 20568, Note_on_c, 5, 50, 63
7, 20589, Note_on_c, 5, 50, 0
7, 20592, Note_on_c, 5, 52, 63
7, 20613, Note_on_c, 5, 52, 0
7, 20616, Note_on_c, 5, 57, 63
7, 20637, Note_on_c, 5, 57, 0
7, 20640, Note_on_c, 5, 50, 63
7, 20661, Note_on_c, 5, 50, 0
7, 20664, Note_on_c, 5, 62, 63
7, 20685, Note_on_c, 5, 62, 0
7, 20712, Note_on_c, 5, 62, 63
7, 20733, Note_on_c, 5, 62, 0
7, 20736, Note_on_c, 5, 61, 63
7, 20757, Note_on_c, 5, 61, 0
7, 20760, Note_on_c, 5, 57, 63
7, 20781, Note_on_c, 5, 57, 0
7, 20808, Note_on_c, 5, 57, 63
7, 20829, Note_on_c, 5, 57, 0
7, 20832, Note_on_c, 5, 62, 63
7, 20842, Note_on_c, 5, 62, 0
7, 20844, Note_on_c, 5, 62, 63
7, 20854, Note_on_c, 5, 62, 0
7, 20856, Note_on_c, 5, 57, 63
7, 20866, Note_on_c, 5, 57, 0
7, 20868, Note_on_c, 5, 57, 63
7, 20878, Note_on_c, 5, 57, 0
7, 20880, Note_on_c, 5, 54, 63
7, 20890, Note_on_c, 5, 54, 0
7, 20892, Note_on_c, 5, 54, 63
7, 20902, Note_on_c, 5, 54, 0
7, 20904, Note_on_c, 5, 50, 63
7, 20914, Note_on_c, 5, 50, 0
7, 20916, Note_on_c, 5, 50, 63
7, 20926, Note_on_c, 5, 50, 0
7, 20928, Note_on_c, 5, 57, 63
7, 20938, Note_on_c, 5, 57, 0
7, 20940, Note_on_c, 5, 57, 63
7, 20950, Note_on_c, 5, 57, 0
7, 20952, Note_on_c, 5, 52, 63
7, 20962, Note_on_c, 5, 52, 0
7, 20964, Note_on_c, 5, 52, 63
7, 20974, Note_on_c, 5, 52, 0
7, 20976, Note_on_c, 5, 49, 63
7, 20986, Note_on_c, 5, 49, 0
7, 20988, Note_on_c, 5, 49, 63
7, 20998, Note_on_c, 5, 49, 0
7, 21000, Note_on_c, 5, 45, 63
7, 21010, Note_on_c, 5, 45, 0
7, 21012, Note_on_c, 5, 45, 63
7, 21022, Note_on_c, 5, 45, 0
7, 21024, Note_on_c, 5, 50, 63
7, 21064, Note_on_c, 5, 50, 0
7, 21312, Note_on_c, 5, 50, 63
7, 21352, Note_on_c, 5, 50, 0
7, 21384, Note_on_c, 5, 50, 63
7, 21404, Note_on_c, 5, 50, 0
7, 21408, Note_on_c, 5, 57, 63
7, 21428, Note_on_c, 5, 57, 0
7, 21432, Note_on_c, 5, 45, 63
7, 21452, Note_on_c, 5, 45, 0
7, 21456, Note_on_c, 5, 47, 63
7, 21476, Note_on_c, 5, 47, 0
7, 21480, Note_on_c, 5, 49, 63
7, 21500, Note_on_c, 5, 49, 0
7, 21504, Note_on_c, 5, 50, 63
7, 21544, Note_on_c, 5, 50, 0
7, 21792, Note_on_c, 5, 50, 63
7, 21832, Note_on_c, 5, 50, 0
7, 21864, Note_on_c, 5, 38, 63
7, 21884, Note_on_c, 5, 38, 0
7, 21888, Note_on_c, 5, 45, 63
7, 21928, Note_on_c, 5, 45, 0
7, 23040, Note_on_c, 5, 50, 95
7, 23080, Note_on_c, 5, 50, 0
7, 23112, Note_on_c, 5, 50, 95
7, 23132, Note_on_c, 5, 50, 0
7, 23136, Note_on_c, 5, 57, 95
7, 23156, Note_on_c, 5, 57, 0
7, 23160, Note_on_c, 5, 59, 95
7, 23180, Note_on_c, 5, 59, 0
7, 23184, Note_on_c, 5, 61, 95
7, 23204, Note_on_c, 5, 61, 0
7, 23208, Note_on_c, 5, 57, 95
7, 23228, Note_on_c, 5, 57, 0
7, 23232, Note_on_c, 5, 54, 95
7, 23252, Note_on_c, 5, 54, 0
7, 23256, Note_on_c, 5, 52, 95
7, 23276, Note_on_c, 5, 52, 0
7, 23280, Note_on_c, 5, 54, 95
7, 23300, Note_on_c, 5, 54, 0
7, 23304, Note_on_c, 5, 50, 95
7, 23324, Note_on_c, 5, 50, 0
7, 23328, Note_on_c, 5, 57, 95
7, 23348, Note_on_c, 5, 57, 0
7, 23352, Note_on_c, 5, 59, 95
7, 23372, Note_on_c, 5, 59, 0
7, 23376, Note_on_c, 5, 61, 95
7, 23396, Note_on_c, 5, 61, 0
7, 23400, Note_on_c, 5, 57, 95
7, 23420, Note_on_c, 5, 57, 0
7, 23424, Note_on_c, 5, 62, 95
7, 23444, Note_on_c, 5, 62, 0
7, 23448, Note_on_c, 5, 61, 95
7, 23468, Note_on_c, 5, 61, 0
7, 23472, Note_on_c, 5, 59, 95
7, 23492, Note_on_c, 5, 59, 0
7, 23496, Note_on_c, 5, 57, 95
7, 23516, Note_on_c, 5, 57, 0
7, 23520, Note_on_c, 5, 55, 95
7, 23540, Note_on_c, 5, 55, 0
7, 23544, Note_on_c, 5, 54, 95
7, 23564, Note_on_c, 5, 54, 0
7, 23568, Note_on_c, 5, 52, 95
7, 23588, Note_on_c, 5, 52, 0
7, 23592, Note_on_c, 5, 50, 95
7, 23612, Note_on_c, 5, 50, 0
7, 23616, Note_on_c, 5, 49, 95
7, 23636, Note_on_c, 5, 49, 0
7, 23640, Note_on_c, 5, 50, 95
7, 23660, Note_on_c, 5, 50, 0
7, 23664, Note_on_c, 5, 43, 95
7, 23684, Note_on_c, 5, 43, 0
7, 23688, Note_on_c, 5, 42, 95
7, 23708, Note_on_c, 5, 42, 0
7, 23712, Note_on_c, 5, 40, 95
7, 23732, Note_on_c, 5, 40, 0
7, 23736, Note_on_c, 5, 38, 95
7, 23756, Note_on_c, 5, 38, 0
7, 23760, Note_on_c, 5, 37, 95
7, 23780, Note_on_c, 5, 37, 0
7, 23784, Note_on_c, 5, 49, 95
7, 23804, Note_on_c, 5, 49, 0
7, 23808, Note_on_c, 5, 50, 95
7, 23828, Note_on_c, 5, 50, 0
7, 23832, Note_on_c, 5, 47, 95
7, 23852, Note_on_c, 5, 47, 0
7, 23856, Note_on_c, 5, 43, 95
7, 23876, Note_on_c, 5, 43, 0
7, 23880, Note_on_c, 5, 45, 95
7, 23900, Note_on_c, 5, 45, 0
7, 23904, Note_on_c, 5, 36, 95
7, 23944, Note_on_c, 5, 36, 0
7, 24504, Note_on_c, 5, 50, 63
7, 24524, Note_on_c, 5, 50, 0
7, 24528, Note_on_c, 5, 57, 63
7, 24548, Note_on_c, 5, 57, 0
7, 24552, Note_on_c, 5, 55, 63
7, 24572, Note_on_c, 5, 55, 0
7, 24576, Note_on_c, 5, 54, 63
7, 24596, Note_on_c, 5, 54, 0
7, 25176, Note_on_c, 5, 45, 63
7, 25196, Note_on_c, 5, 45, 0
7, 25200, Note_on_c, 5, 52, 63
7, 25220, Note_on_c, 5, 52, 0
7, 25224, Note_on_c, 5, 50, 63
7, 25244, Note_on_c, 5, 50, 0
7, 25248, Note_on_c, 5, 49, 63
7, 25268, Note_on_c, 5, 49, 0
7, 25320, Note_on_c, 5, 50, 63
7, 25340, Note_on_c, 5, 50, 0
7, 25344, Note_on_c, 5, 43, 63
7, 25364, Note_on_c, 5, 43, 0
7, 25416, Note_on_c, 5, 55, 63
7, 25436, Note_on_c, 5, 55, 0
7, 25440, Note_on_c, 5, 54, 63
7, 25460, Note_on_c, 5, 54, 0
7, 25512, Note_on_c, 5, 47, 63
7, 25532, Note_on_c, 5, 47, 0
7, 25536, Note_on_c, 5, 52, 63
7, 25556, Note_on_c, 5, 52, 0
7, 25608, Note_on_c, 5, 45, 63
7, 25628, Note_on_c, 5, 45, 0
7, 25632, Note_on_c, 5, 50, 63
7, 25652, Note_on_c, 5, 50, 0
7, 25704, Note_on_c, 5, 62, 63
7, 25724, Note_on_c, 5, 62, 0
7, 25728, Note_on_c, 5, 61, 63
7, 25748, Note_on_c, 5, 61, 0
7, 25752, Note_on_c, 5, 57, 63
7, 25772, Note_on_c, 5, 57, 0
7, 25800, Note_on_c, 5, 57, 63
7, 25820, Note_on_c, 5, 57, 0
7, 25824, Note_on_c, 5, 54, 63
7, 25844, Note_on_c, 5, 54, 0
7, 25848, Note_on_c, 5, 50, 63
7, 25868, Note_on_c, 5, 50, 0
7, 25896, Note_on_c, 5, 50, 63
7, 25916, Note_on_c, 5, 50, 0
7, 25920, Note_on_c, 5, 47, 63
7, 25940, Note_on_c, 5, 47, 0
7, 25944, Note_on_c, 5, 52, 63
7, 25964, Note_on_c, 5, 52, 0
7, 25968, Note_on_c, 5, 50, 63
7, 25988, Note_on_c, 5, 50, 0
7, 25992, Note_on_c, 5, 52, 63
7, 26012, Note_on_c, 5, 52, 0
7, 26016, Note_on_c, 5, 45, 63
7, 26036, Note_on_c, 5, 45, 0
7, 26040, Note_on_c, 5, 57, 95
7, 26050, Note_on_c, 5, 57, 0
7, 26052, Note_on_c, 5, 59, 95
7, 26062, Note_on_c, 5, 59, 0
7, 26064, Note_on_c, 5, 61, 95
7, 26074, Note_on_c, 5, 61, 0
7, 26076, Note_on_c, 5, 62, 95
7, 26086, Note_on_c, 5, 62, 0
7, 26088, Note_on_c, 5, 64, 95
7, 26098, Note_on_c, 5, 64, 0
7, 26100, Note_on_c, 5, 61, 95
7, 26110, Note_on_c, 5, 61, 0
7, 26112, Note_on_c, 5, 62, 95
7, 26132, Note_on_c, 5, 62, 0
7, 26136, Note_on_c, 5, 61, 95
7, 26156, Note_on_c, 5, 61, 0
7, 26160, Note_on_c, 5, 59, 95
7, 26180, Note_on_c, 5, 59, 0
7, 26184, Note_on_c, 5, 57, 95
7, 26204, Note_on_c, 5, 57, 0
7, 26208, Note_on_c, 5, 55, 95
7, 26228, Note_on_c, 5, 55, 0
7, 26232, Note_on_c, 5, 54, 95
7, 26252, Note_on_c, 5, 54, 0
7, 26256, Note_on_c, 5, 52, 95
7, 26276, Note_on_c, 5, 52, 0
7, 26280, Note_on_c, 5, 50, 95
7, 26300, Note_on_c, 5, 50, 0
7, 26304, Note_on_c, 5, 49, 95
7, 26324, Note_on_c, 5, 49, 0
7, 26328, Note_on_c, 5, 50, 95
7, 26348, Note_on_c, 5, 50, 0
7, 26352, Note_on_c, 5, 43, 95
7, 26372, Note_on_c, 5, 43, 0
7, 26376, Note_on_c, 5, 42, 95
7, 26396, Note_on_c, 5, 42, 0
7, 26400, Note_on_c, 5, 40, 95
7, 26420, Note_on_c, 5, 40, 0
7, 26424, Note_on_c, 5, 38, 95
7, 26444, Note_on_c, 5, 38, 0
7, 26448, Note_on_c, 5, 37, 95
7, 26468, Note_on_c, 5, 37, 0
7, 26472, Note_on_c, 5, 49, 95
7, 26492, Note_on_c, 5, 49, 0
7, 26496, Note_on_c, 5, 50, 95
7, 26516, Note_on_c, 5, 50, 0
7, 26520, Note_on_c, 5, 47, 95
7, 26540, Note_on_c, 5, 47, 0
7, 26544, Note_on_c, 5, 43, 95
7, 26564, Note_on_c, 5, 43, 0
7, 26568, Note_on_c, 5, 45, 95
7, 26588, Note_on_c, 5, 45, 0
7, 26592, Note_on_c, 5, 42, 95
7, 26612, Note_on_c, 5, 42, 0
7, 26664, Note_on_c, 5, 50, 63
7, 26684, Note_on_c, 5, 50, 0
7, 26688, Note_on_c, 5, 43, 63
7, 26708, Note_on_c, 5, 43, 0
7, 26760, Note_on_c, 5, 43, 63
7, 26780, Note_on_c, 5, 43, 0
7, 26784, Note_on_c, 5, 40, 63
7, 26804, Note_on_c, 5, 40, 0
7, 26856, Note_on_c, 5, 52, 63
7, 26876, Note_on_c, 5, 52, 0
7, 26880, Note_on_c, 5, 45, 63
7, 26900, Note_on_c, 5, 45, 0
7, 26952, Note_on_c, 5, 45, 63
7, 26972, Note_on_c, 5, 45, 0
7, 26976, Note_on_c, 5, 42, 63
7, 26996, Note_on_c, 5, 42, 0
7, 27048, Note_on_c, 5, 54, 63
7, 27068, Note_on_c, 5, 54, 0
7, 27072, Note_on_c, 5, 47, 63
7, 27092, Note_on_c, 5, 47, 0
7, 27144, Note_on_c, 5, 47, 63
7, 27164, Note_on_c, 5, 47, 0
7, 27168, Note_on_c, 5, 45, 63
7, 27188, Note_on_c, 5, 45, 0
7, 27240, Note_on_c, 5, 57, 63
7, 27260, Note_on_c, 5, 57, 0
7, 27264, Note_on_c, 5, 50, 63
7, 27284, Note_on_c, 5, 50, 0
7, 41952, Control_c, 5, 10, 18
7, 41952, Control_c, 5, 7, 96
7, 41952, Pitch_bend_c, 5, 8192
7, 41952, Control_c, 5, 1, 0
7, 41952, Program_c, 5, 54
7, 41952, Control_c, 5, 64, 0
7, 41952, Note_on_c, 5, 50, 95
7, 42000, Note_on_c, 5, 50, 0
7, 42024, Note_on_c, 5, 50, 95
7, 42048, Note_on_c, 5, 50, 0
7, 42048, Note_on_c, 5, 57, 95
7, 42072, Note_on_c, 5, 57, 0
7, 42072, Note_on_c, 5, 59, 95
7, 42096, Note_on_c, 5, 59, 0
7, 42096, Note_on_c, 5, 61, 95
7, 42120, Note_on_c, 5, 61, 0
7, 42120, Note_on_c, 5, 57, 95
7, 42144, Note_on_c, 5, 57, 0
7, 42144, Note_on_c, 5, 54, 95
7, 42168, Note_on_c, 5, 54, 0
7, 42168, Note_on_c, 5, 52, 95
7, 42192, Note_on_c, 5, 52, 0
7, 42192, Note_on_c, 5, 54, 95
7, 42216, Note_on_c, 5, 54, 0
7, 42216, Note_on_c, 5, 50, 95
7, 42240, Note_on_c, 5, 50, 0
7, 42240, Note_on_c, 5, 57, 95
7, 42264, Note_on_c, 5, 57, 0
7, 42264, Note_on_c, 5, 59, 95
7, 42288, Note_on_c, 5, 59, 0
7, 42288, Note_on_c, 5, 61, 95
7, 42312, Note_on_c, 5, 61, 0
7, 42312, Note_on_c, 5, 57, 95
7, 42336, Note_on_c, 5, 57, 0
7, 42336, Note_on_c, 5, 62, 95
7, 42360, Note_on_c, 5, 62, 0
7, 42360, Note_on_c, 5, 61, 95
7, 42384, Note_on_c, 5, 61, 0
7, 42384, Note_on_c, 5, 59, 95
7, 42408, Note_on_c, 5, 59, 0
7, 42408, Note_on_c, 5, 57, 95
7, 42432, Note_on_c, 5, 57, 0
7, 42432, Note_on_c, 5, 55, 95
7, 42456, Note_on_c, 5, 55, 0
7, 42456, Note_on_c, 5, 54, 95
7, 42480, Note_on_c, 5, 54, 0
7, 42480, Note_on_c, 5, 52, 95
7, 42504, Note_on_c, 5, 52, 0
7, 42504, Note_on_c, 5, 50, 95
7, 42528, Note_on_c, 5, 50, 0
7, 42528, Note_on_c, 5, 49, 95
7, 42552, Note_on_c, 5, 49, 0
7, 42552, Note_on_c, 5, 50, 95
7, 42576, Note_on_c, 5, 50, 0
7, 42576, Note_on_c, 5, 43, 95
7, 42600, Note_on_c, 5, 43, 0
7, 42600, Note_on_c, 5, 42, 95
7, 42624, Note_on_c, 5, 42, 0
7, 42624, Note_on_c, 5, 40, 95
7, 42648, Note_on_c, 5, 40, 0
7, 42648, Note_on_c, 5, 38, 95
7, 42672, Note_on_c, 5, 38, 0
7, 42672, Note_on_c, 5, 37, 95
7, 42696, Note_on_c, 5, 37, 0
7, 42696, Note_on_c, 5, 49, 95
7, 42720, Note_on_c, 5, 49, 0
7, 42720, Note_on_c, 5, 50, 95
7, 42744, Note_on_c, 5, 50, 0
7, 42744, Note_on_c, 5, 47, 95
7, 42768, Note_on_c, 5, 47, 0
7, 42768, Note_on_c, 5, 43, 95
7, 42792, Note_on_c, 5, 43, 0
7, 42792, Note_on_c, 5, 45, 95
7, 42816, Note_on_c, 5, 45, 0
7, 42816, Note_on_c, 5, 47, 95
7, 42828, Note_on_c, 5, 47, 0
7, 42828, Note_on_c, 5, 49, 95
7, 42840, Note_on_c, 5, 49, 0
7, 42840, Note_on_c, 5, 50, 95
7, 42852, Note_on_c, 5, 50, 0
7, 42852, Note_on_c, 5, 52, 95
7, 42864, Note_on_c, 5, 52, 0
7, 42864, Note_on_c, 5, 54, 95
7, 42876, Note_on_c, 5, 54, 0
7, 42876, Note_on_c, 5, 55, 95
7, 42888, Note_on_c, 5, 55, 0
7, 42888, Note_on_c, 5, 57, 95
7, 42900, Note_on_c, 5, 57, 0
7, 42900, Note_on_c, 5, 54, 95
7, 42912, Note_on_c, 5, 54, 0
7, 42912, Note_on_c, 5, 59, 95
7, 42936, Note_on_c, 5, 59, 0
7, 42936, Note_on_c, 5, 57, 95
7, 42960, Note_on_c, 5, 57, 0
7, 42960, Note_on_c, 5, 55, 95
7, 42984, Note_on_c, 5, 55, 0
7, 42984, Note_on_c, 5, 54, 95
7, 43008, Note_on_c, 5, 54, 0
7, 43008, Note_on_c, 5, 52, 95
7, 43032, Note_on_c, 5, 52, 0
7, 43032, Note_on_c, 5, 50, 95
7, 43056, Note_on_c, 5, 50, 0
7, 43056, Note_on_c, 5, 49, 95
7, 43080, Note_on_c, 5, 49, 0
7, 43080, Note_on_c, 5, 45, 95
7, 43104, Note_on_c, 5, 45, 0
7, 43104, Note_on_c, 5, 50, 95
7, 43128, Note_on_c, 5, 50, 0
7, 43128, Note_on_c, 5, 54, 95
7, 43152, Note_on_c, 5, 54, 0
7, 43152, Note_on_c, 5, 55, 95
7, 43176, Note_on_c, 5, 55, 0
7, 43176, Note_on_c, 5, 57, 95
7, 43188, Note_on_c, 5, 57, 0
7, 43188, Note_on_c, 5, 55, 95
7, 43200, Note_on_c, 5, 55, 0
7, 43200, Note_on_c, 5, 54, 95
7, 43224, Note_on_c, 5, 54, 0
7, 43224, Note_on_c, 5, 55, 95
7, 43248, Note_on_c, 5, 55, 0
7, 43272, Note_on_c, 5, 49, 95
7, 43284, Note_on_c, 5, 49, 0
7, 43284, Note_on_c, 5, 49, 95
7, 43296, Note_on_c, 5, 49, 0
7, 43296, Note_on_c, 5, 50, 95
7, 43308, Note_on_c, 5, 50, 0
7, 43308, Note_on_c, 5, 50, 95
7, 43320, Note_on_c, 5, 50, 0
7, 43320, Note_on_c, 5, 49, 95
7, 43332, Note_on_c, 5, 49, 0
7, 43332, Note_on_c, 5, 49, 95
7, 43344, Note_on_c, 5, 49, 0
7, 43344, Note_on_c, 5, 50, 95
7, 43356, Note_on_c, 5, 50, 0
7, 43356, Note_on_c, 5, 50, 95
7, 43368, Note_on_c, 5, 50, 0
7, 43368, Note_on_c, 5, 42, 95
7, 43380, Note_on_c, 5, 42, 0
7, 43380, Note_on_c, 5, 42, 95
7, 43392, Note_on_c, 5, 42, 0
7, 43392, Note_on_c, 5, 43, 95
7, 43416, Note_on_c, 5, 43, 0
7, 43416, Note_on_c, 5, 55, 95
7, 43440, Note_on_c, 5, 55, 0
7, 43440, Note_on_c, 5, 57, 95
7, 43464, Note_on_c, 5, 57, 0
7, 43464, Note_on_c, 5, 45, 95
7, 43488, Note_on_c, 5, 45, 0
7, 43488, Note_on_c, 5, 50, 95
7, 43536, Note_on_c, 5, 50, 0
7, 43536, End_track
8, 0, Start_track
8, 0, Title_t, "Bass"
8, 0, Control_c, 6, 10, 90
8, 0, Control_c, 6, 7, 96
8, 0, Pitch_bend_c, 6, 8192
8, 0, Control_c, 6, 1, 0
8, 0, Program_c, 6, 56
8, 0, Control_c, 6, 64, 0
8, 0, Note_on_c, 6, 38, 95
8, 48, Note_on_c, 6, 38, 0
8, 72, Note_on_c, 6, 38, 95
8, 96, Note_on_c, 6, 38, 0
8, 96, Note_on_c, 6, 45, 95
8, 120, Note_on_c, 6, 45, 0
8, 120, Note_on_c, 6, 47, 95
8, 144, Note_on_c, 6, 47, 0
8, 144, Note_on_c, 6, 49, 95
8, 168, Note_on_c, 6, 49, 0
8, 168, Note_on_c, 6, 45, 95
8, 192, Note_on_c, 6, 45, 0
8, 192, Note_on_c, 6, 42, 95
8, 216, Note_on_c, 6, 42, 0
8, 216, Note_on_c, 6, 40, 95
8, 240, Note_on_c, 6, 40, 0
8, 240, Note_on_c, 6, 42, 95
8, 264, Note_on_c, 6, 42, 0
8, 264, Note_on_c, 6, 38, 95
8, 288, Note_on_c, 6, 38, 0
8, 288, Note_on_c, 6, 45, 95
8, 312, Note_on_c, 6, 45, 0
8, 312, Note_on_c, 6, 47, 95
8, 336, Note_on_c, 6, 47, 0
8, 336, Note_on_c, 6, 49, 95
8, 360, Note_on_c, 6, 49, 0
8, 360, Note_on_c, 6, 45, 95
8, 384, Note_on_c, 6, 45, 0
8, 384, Note_on_c, 6, 50, 95
8, 408, Note_on_c, 6, 50, 0
8, 408, Note_on_c, 6, 49, 95
8, 432, Note_on_c, 6, 49, 0
8, 432, Note_on_c, 6, 47, 95
8, 456, Note_on_c, 6, 47, 0
8, 456, Note_on_c, 6, 45, 95
8, 480, Note_on_c, 6, 45, 0
8, 480, Note_on_c, 6, 43, 95
8, 504, Note_on_c, 6, 43, 0
8, 504, Note_on_c, 6, 42, 95
8, 528, Note_on_c, 6, 42, 0
8, 528, Note_on_c, 6, 40, 95
8, 552, Note_on_c, 6, 40, 0
8, 552, Note_on_c, 6, 38, 95
8, 576, Note_on_c, 6, 38, 0
8, 576, Note_on_c, 6, 37, 95
8, 600, Note_on_c, 6, 37, 0
8, 600, Note_on_c, 6, 38, 95
8, 624, Note_on_c, 6, 38, 0
8, 624, Note_on_c, 6, 43, 95
8, 648, Note_on_c, 6, 43, 0
8, 648, Note_on_c, 6, 42, 95
8, 672, Note_on_c, 6, 42, 0
8, 672, Note_on_c, 6, 40, 95
8, 696, Note_on_c, 6, 40, 0
8, 696, Note_on_c, 6, 38, 95
8, 720, Note_on_c, 6, 38, 0
8, 720, Note_on_c, 6, 37, 95
8, 744, Note_on_c, 6, 37, 0
8, 744, Note_on_c, 6, 33, 95
8, 768, Note_on_c, 6, 33, 0
8, 768, Note_on_c, 6, 38, 95
8, 792, Note_on_c, 6, 38, 0
8, 792, Note_on_c, 6, 35, 95
8, 816, Note_on_c, 6, 35, 0
8, 816, Note_on_c, 6, 31, 95
8, 840, Note_on_c, 6, 31, 0
8, 840, Note_on_c, 6, 33, 95
8, 864, Note_on_c, 6, 33, 0
8, 864, Note_on_c, 6, 35, 95
8, 876, Note_on_c, 6, 35, 0
8, 876, Note_on_c, 6, 37, 95
8, 888, Note_on_c, 6, 37, 0
8, 888, Note_on_c, 6, 38, 95
8, 900, Note_on_c, 6, 38, 0
8, 900, Note_on_c, 6, 40, 95
8, 912, Note_on_c, 6, 40, 0
8, 912, Note_on_c, 6, 42, 95
8, 924, Note_on_c, 6, 42, 0
8, 924, Note_on_c, 6, 43, 95
8, 936, Note_on_c, 6, 43, 0
8, 936, Note_on_c, 6, 45, 95
8, 948, Note_on_c, 6, 45, 0
8, 948, Note_on_c, 6, 42, 95
8, 960, Note_on_c, 6, 42, 0
8, 960, Note_on_c, 6, 47, 95
8, 984, Note_on_c, 6, 47, 0
8, 984, Note_on_c, 6, 45, 95
8, 1008, Note_on_c, 6, 45, 0
8, 1008, Note_on_c, 6, 43, 95
8, 1032, Note_on_c, 6, 43, 0
8, 1032, Note_on_c, 6, 42, 95
8, 1056, Note_on_c, 6, 42, 0
8, 1056, Note_on_c, 6, 40, 95
8, 1080, Note_on_c, 6, 40, 0
8, 1080, Note_on_c, 6, 38, 95
8, 1104, Note_on_c, 6, 38, 0
8, 1104, Note_on_c, 6, 37, 95
8, 1128, Note_on_c, 6, 37, 0
8, 1128, Note_on_c, 6, 33, 95
8, 1152, Note_on_c, 6, 33, 0
8, 1152, Note_on_c, 6, 38, 95
8, 1176, Note_on_c, 6, 38, 0
8, 1176, Note_on_c, 6, 42, 95
8, 1200, Note_on_c, 6, 42, 0
8, 1200, Note_on_c, 6, 43, 95
8, 1224, Note_on_c, 6, 43, 0
8, 1224, Note_on_c, 6, 45, 95
8, 1236, Note_on_c, 6, 45, 0
8, 1236, Note_on_c, 6, 43, 95
8, 1248, Note_on_c, 6, 43, 0
8, 1248, Note_on_c, 6, 42, 95
8, 1272, Note_on_c, 6, 42, 0
8, 1272, Note_on_c, 6, 43, 95
8, 1296, Note_on_c, 6, 43, 0
8, 1320, Note_on_c, 6, 37, 95
8, 1332, Note_on_c, 6, 37, 0
8, 1332, Note_on_c, 6, 37, 95
8, 1344, Note_on_c, 6, 37, 0
8, 1344, Note_on_c, 6, 38, 95
8, 1356, Note_on_c, 6, 38, 0
8, 1356, Note_on_c, 6, 38, 95
8, 1368, Note_on_c, 6, 38, 0
8, 1368, Note_on_c, 6, 37, 95
8, 1380, Note_on_c, 6, 37, 0
8, 1380, Note_on_c, 6, 37, 95
8, 1392, Note_on_c, 6, 37, 0
8, 1392, Note_on_c, 6, 38, 95
8, 1404, Note_on_c, 6, 38, 0
8, 1404, Note_on_c, 6, 38, 95
8, 1416, Note_on_c, 6, 38, 0
8, 1416, Note_on_c, 6, 30, 95
8, 1428, Note_on_c, 6, 30, 0
8, 1428, Note_on_c, 6, 30, 95
8, 1440, Note_on_c, 6, 30, 0
8, 1440, Note_on_c, 6, 31, 95
8, 1464, Note_on_c, 6, 31, 0
8, 1464, Note_on_c, 6, 43, 95
8, 1488, Note_on_c, 6, 43, 0
8, 1488, Note_on_c, 6, 45, 95
8, 1512, Note_on_c, 6, 45, 0
8, 1512, Note_on_c, 6, 33, 95
8, 1536, Note_on_c, 6, 33, 0
8, 1536, Note_on_c, 6, 38, 95
8, 1584, Note_on_c, 6, 38, 0
8, 1824, Note_on_c, 6, 38, 47
8, 1856, Note_on_c, 6, 38, 0
8, 1872, Note_on_c, 6, 38, 47
8, 1888, Note_on_c, 6, 38, 0
8, 1920, Note_on_c, 6, 45, 47
8, 1936, Note_on_c, 6, 45, 0
8, 1944, Note_on_c, 6, 33, 47
8, 1960, Note_on_c, 6, 33, 0
8, 1968, Note_on_c, 6, 35, 47
8, 1984, Note_on_c, 6, 35, 0
8, 1992, Note_on_c, 6, 37, 47
8, 2008, Note_on_c, 6, 37, 0
8, 2016, Note_on_c, 6, 38, 47
8, 2048, Note_on_c, 6, 38, 0
8, 2304, Note_on_c, 6, 38, 47
8, 2336, Note_on_c, 6, 38, 0
8, 2376, Note_on_c, 6, 26, 47
8, 2392, Note_on_c, 6, 26, 0
8, 2400, Note_on_c, 6, 33, 47
8, 2432, Note_on_c, 6, 33, 0
8, 3456, Note_on_c, 6, 45, 95
8, 3504, Note_on_c, 6, 45, 0
8, 3528, Note_on_c, 6, 33, 79
8, 3552, Note_on_c, 6, 33, 0
8, 3552, Note_on_c, 6, 40, 79
8, 3576, Note_on_c, 6, 40, 0
8, 3576, Note_on_c, 6, 42, 79
8, 3600, Note_on_c, 6, 42, 0
8, 3600, Note_on_c, 6, 44, 79
8, 3624, Note_on_c, 6, 44, 0
8, 3624, Note_on_c, 6, 40, 79
8, 3648, Note_on_c, 6, 40, 0
8, 3648, Note_on_c, 6, 37, 79
8, 3672, Note_on_c, 6, 37, 0
8, 3672, Note_on_c, 6, 35, 79
8, 3696, Note_on_c, 6, 35, 0
8, 3696, Note_on_c, 6, 37, 79
8, 3720, Note_on_c, 6, 37, 0
8, 3720, Note_on_c, 6, 33, 79
8, 3744, Note_on_c, 6, 33, 0
8, 3744, Note_on_c, 6, 40, 79
8, 3792, Note_on_c, 6, 40, 0
8, 5352, Note_on_c, 6, 40, 95
8, 5376, Note_on_c, 6, 40, 0
8, 5376, Note_on_c, 6, 45, 95
8, 5392, Note_on_c, 6, 45, 0
8, 5400, Note_on_c, 6, 44, 95
8, 5416, Note_on_c, 6, 44, 0
8, 5424, Note_on_c, 6, 42, 95
8, 5440, Note_on_c, 6, 42, 0
8, 5448, Note_on_c, 6, 40, 95
8, 5464, Note_on_c, 6, 40, 0
8, 5472, Note_on_c, 6, 38, 95
8, 5488, Note_on_c, 6, 38, 0
8, 5496, Note_on_c, 6, 37, 95
8, 5512, Note_on_c, 6, 37, 0
8, 5520, Note_on_c, 6, 35, 95
8, 5536, Note_on_c, 6, 35, 0
8, 5544, Note_on_c, 6, 33, 95
8, 5560, Note_on_c, 6, 33, 0
8, 5568, Note_on_c, 6, 32, 95
8, 5584, Note_on_c, 6, 32, 0
8, 5592, Note_on_c, 6, 33, 95
8, 5608, Note_on_c, 6, 33, 0
8, 5616, Note_on_c, 6, 38, 95
8, 5632, Note_on_c, 6, 38, 0
8, 5640, Note_on_c, 6, 37, 95
8, 5656, Note_on_c, 6, 37, 0
8, 5664, Note_on_c, 6, 35, 95
8, 5680, Note_on_c, 6, 35, 0
8, 5688, Note_on_c, 6, 33, 95
8, 5704, Note_on_c, 6, 33, 0
8, 5712, Note_on_c, 6, 32, 95
8, 5728, Note_on_c, 6, 32, 0
8, 5736, Note_on_c, 6, 44, 95
8, 5752, Note_on_c, 6, 44, 0
8, 5760, Note_on_c, 6, 45, 95
8, 5776, Note_on_c, 6, 45, 0
8, 5784, Note_on_c, 6, 42, 95
8, 5800, Note_on_c, 6, 42, 0
8, 5808, Note_on_c, 6, 38, 95
8, 5824, Note_on_c, 6, 38, 0
8, 5832, Note_on_c, 6, 40, 95
8, 5848, Note_on_c, 6, 40, 0
8, 5856, Note_on_c, 6, 45, 95
8, 5872, Note_on_c, 6, 45, 0
8, 6624, Note_on_c, 6, 35, 47
8, 6632, Note_on_c, 6, 35, 0
8, 6636, Note_on_c, 6, 35, 47
8, 6644, Note_on_c, 6, 35, 0
8, 6648, Note_on_c, 6, 38, 47
8, 6656, Note_on_c, 6, 38, 0
8, 6660, Note_on_c, 6, 38, 47
8, 6668, Note_on_c, 6, 38, 0
8, 6672, Note_on_c, 6, 42, 47
8, 6680, Note_on_c, 6, 42, 0
8, 6684, Note_on_c, 6, 42, 47
8, 6692, Note_on_c, 6, 42, 0
8, 6696, Note_on_c, 6, 47, 47
8, 6704, Note_on_c, 6, 47, 0
8, 6708, Note_on_c, 6, 47, 47
8, 6716, Note_on_c, 6, 47, 0
8, 6720, Note_on_c, 6, 40, 47
8, 6736, Note_on_c, 6, 40, 0
8, 6816, Note_on_c, 6, 30, 47
8, 6824, Note_on_c, 6, 30, 0
8, 6828, Note_on_c, 6, 30, 47
8, 6836, Note_on_c, 6, 30, 0
8, 6840, Note_on_c, 6, 34, 47
8, 6848, Note_on_c, 6, 34, 0
8, 6852, Note_on_c, 6, 34, 47
8, 6860, Note_on_c, 6, 34, 0
8, 6864, Note_on_c, 6, 37, 47
8, 6872, Note_on_c, 6, 37, 0
8, 6876, Note_on_c, 6, 37, 47
8, 6884, Note_on_c, 6, 37, 0
8, 6888, Note_on_c, 6, 42, 47
8, 6896, Note_on_c, 6, 42, 0
8, 6900, Note_on_c, 6, 42, 47
8, 6908, Note_on_c, 6, 42, 0
8, 6912, Note_on_c, 6, 35, 47
8, 6920, Note_on_c, 6, 35, 0
8, 6924, Note_on_c, 6, 35, 47
8, 6932, Note_on_c, 6, 35, 0
8, 6936, Note_on_c, 6, 38, 47
8, 6944, Note_on_c, 6, 38, 0
8, 6948, Note_on_c, 6, 38, 47
8, 6956, Note_on_c, 6, 38, 0
8, 6960, Note_on_c, 6, 42, 47
8, 6968, Note_on_c, 6, 42, 0
8, 6972, Note_on_c, 6, 42, 47
8, 6980, Note_on_c, 6, 42, 0
8, 6984, Note_on_c, 6, 47, 47
8, 6992, Note_on_c, 6, 47, 0
8, 6996, Note_on_c, 6, 47, 47
8, 7004, Note_on_c, 6, 47, 0
8, 7008, Note_on_c, 6, 40, 47
8, 7016, Note_on_c, 6, 40, 0
8, 7020, Note_on_c, 6, 40, 47
8, 7028, Note_on_c, 6, 40, 0
8, 7032, Note_on_c, 6, 43, 47
8, 7040, Note_on_c, 6, 43, 0
8, 7044, Note_on_c, 6, 43, 47
8, 7052, Note_on_c, 6, 43, 0
8, 7056, Note_on_c, 6, 47, 47
8, 7064, Note_on_c, 6, 47, 0
8, 7068, Note_on_c, 6, 47, 47
8, 7076, Note_on_c, 6, 47, 0
8, 7080, Note_on_c, 6, 52, 47
8, 7088, Note_on_c, 6, 52, 0
8, 7092, Note_on_c, 6, 52, 47
8, 7100, Note_on_c, 6, 52, 0
8, 7104, Note_on_c, 6, 42, 47
8, 7136, Note_on_c, 6, 42, 0
8, 7488, Note_on_c, 6, 50, 95
8, 7504, Note_on_c, 6, 50, 0
8, 7512, Note_on_c, 6, 49, 95
8, 7528, Note_on_c, 6, 49, 0
8, 7536, Note_on_c, 6, 47, 95
8, 7552, Note_on_c, 6, 47, 0
8, 7560, Note_on_c, 6, 45, 95
8, 7576, Note_on_c, 6, 45, 0
8, 7584, Note_on_c, 6, 43, 95
8, 7600, Note_on_c, 6, 43, 0
8, 7608, Note_on_c, 6, 42, 95
8, 7624, Note_on_c, 6, 42, 0
8, 7632, Note_on_c, 6, 40, 95
8, 7648, Note_on_c, 6, 40, 0
8, 7656, Note_on_c, 6, 38, 95
8, 7672, Note_on_c, 6, 38, 0
8, 7680, Note_on_c, 6, 37, 95
8, 7696, Note_on_c, 6, 37, 0
8, 7704, Note_on_c, 6, 35, 95
8, 7720, Note_on_c, 6, 35, 0
8, 7728, Note_on_c, 6, 35, 95
8, 7744, Note_on_c, 6, 35, 0
8, 7752, Note_on_c, 6, 34, 95
8, 7768, Note_on_c, 6, 34, 0
8, 7776, Note_on_c, 6, 35, 95
8, 7792, Note_on_c, 6, 35, 0
8, 7800, Note_on_c, 6, 31, 95
8, 7816, Note_on_c, 6, 31, 0
8, 7824, Note_on_c, 6, 28, 95
8, 7840, Note_on_c, 6, 28, 0
8, 7848, Note_on_c, 6, 30, 95
8, 7864, Note_on_c, 6, 30, 0
8, 7872, Note_on_c, 6, 35, 95
8, 7888, Note_on_c, 6, 35, 0
8, 8352, Note_on_c, 6, 28, 63
8, 8392, Note_on_c, 6, 28, 0
8, 8448, Note_on_c, 6, 33, 63
8, 8488, Note_on_c, 6, 33, 0
8, 8736, Note_on_c, 6, 26, 63
8, 8776, Note_on_c, 6, 26, 0
8, 8832, Note_on_c, 6, 31, 63
8, 8872, Note_on_c, 6, 31, 0
8, 9408, Note_on_c, 6, 33, 63
8, 9448, Note_on_c, 6, 33, 0
8, 11016, Note_on_c, 6, 45, 95
8, 11036, Note_on_c, 6, 45, 0
8, 11040, Note_on_c, 6, 50, 95
8, 11060, Note_on_c, 6, 50, 0
8, 11064, Note_on_c, 6, 49, 95
8, 11084, Note_on_c, 6, 49, 0
8, 11088, Note_on_c, 6, 47, 95
8, 11108, Note_on_c, 6, 47, 0
8, 11112, Note_on_c, 6, 45, 95
8, 11132, Note_on_c, 6, 45, 0
8, 11136, Note_on_c, 6, 43, 95
8, 11156, Note_on_c, 6, 43, 0
8, 11160, Note_on_c, 6, 42, 95
8, 11180, Note_on_c, 6, 42, 0
8, 11184, Note_on_c, 6, 40, 95
8, 11204, Note_on_c, 6, 40, 0
8, 11208, Note_on_c, 6, 38, 95
8, 11228, Note_on_c, 6, 38, 0
8, 11232, Note_on_c, 6, 37, 95
8, 11252, Note_on_c, 6, 37, 0
8, 11256, Note_on_c, 6, 38, 95
8, 11276, Note_on_c, 6, 38, 0
8, 11280, Note_on_c, 6, 43, 95
8, 11300, Note_on_c, 6, 43, 0
8, 11304, Note_on_c, 6, 42, 95
8, 11324, Note_on_c, 6, 42, 0
8, 11328, Note_on_c, 6, 40, 95
8, 11348, Note_on_c, 6, 40, 0
8, 11352, Note_on_c, 6, 38, 95
8, 11372, Note_on_c, 6, 38, 0
8, 11376, Note_on_c, 6, 37, 95
8, 11396, Note_on_c, 6, 37, 0
8, 11400, Note_on_c, 6, 33, 95
8, 11420, Note_on_c, 6, 33, 0
8, 11424, Note_on_c, 6, 38, 95
8, 11444, Note_on_c, 6, 38, 0
8, 11448, Note_on_c, 6, 35, 95
8, 11468, Note_on_c, 6, 35, 0
8, 11472, Note_on_c, 6, 31, 95
8, 11492, Note_on_c, 6, 31, 0
8, 11496, Note_on_c, 6, 33, 95
8, 11516, Note_on_c, 6, 33, 0
8, 11520, Note_on_c, 6, 30, 95
8, 11540, Note_on_c, 6, 30, 0
8, 12120, Note_on_c, 6, 33, 63
8, 12140, Note_on_c, 6, 33, 0
8, 12144, Note_on_c, 6, 40, 63
8, 12164, Note_on_c, 6, 40, 0
8, 12168, Note_on_c, 6, 38, 63
8, 12188, Note_on_c, 6, 38, 0
8, 12192, Note_on_c, 6, 37, 63
8, 12212, Note_on_c, 6, 37, 0
8, 12792, Note_on_c, 6, 40, 63
8, 12812, Note_on_c, 6, 40, 0
8, 12816, Note_on_c, 6, 47, 63
8, 12836, Note_on_c, 6, 47, 0
8, 12840, Note_on_c, 6, 35, 63
8, 12860, Note_on_c, 6, 35, 0
8, 12864, Note_on_c, 6, 40, 63
8, 12884, Note_on_c, 6, 40, 0
8, 13440, Note_on_c, 6, 42, 63
8, 13480, Note_on_c, 6, 42, 0
8, 13632, Note_on_c, 6, 42, 63
8, 13672, Note_on_c, 6, 42, 0
8, 13824, Note_on_c, 6, 44, 63
8, 13864, Note_on_c, 6, 44, 0
8, 13920, Note_on_c, 6, 37, 63
8, 13960, Note_on_c, 6, 37, 0
8, 14016, Note_on_c, 6, 42, 63
8, 14056, Note_on_c, 6, 42, 0
8, 14208, Note_on_c, 6, 42, 63
8, 14248, Note_on_c, 6, 42, 0
8, 14400, Note_on_c, 6, 47, 63
8, 14440, Note_on_c, 6, 47, 0
8, 14496, Note_on_c, 6, 40, 63
8, 14536, Note_on_c, 6, 40, 0
8, 14592, Note_on_c, 6, 45, 63
8, 14632, Note_on_c, 6, 45, 0
8, 14784, Note_on_c, 6, 33, 63
8, 14824, Note_on_c, 6, 33, 0
8, 14976, Note_on_c, 6, 33, 63
8, 15016, Note_on_c, 6, 33, 0
8, 15168, Note_on_c, 6, 33, 63
8, 15208, Note_on_c, 6, 33, 0
8, 15360, Note_on_c, 6, 45, 63
8, 15400, Note_on_c, 6, 45, 0
8, 15552, Note_on_c, 6, 44, 63
8, 15592, Note_on_c, 6, 44, 0
8, 15744, Note_on_c, 6, 44, 63
8, 15784, Note_on_c, 6, 44, 0
8, 15936, Note_on_c, 6, 42, 63
8, 15976, Note_on_c, 6, 42, 0
8, 16128, Note_on_c, 6, 42, 63
8, 16168, Note_on_c, 6, 42, 0
8, 16320, Note_on_c, 6, 40, 63
8, 16360, Note_on_c, 6, 40, 0
8, 16512, Note_on_c, 6, 40, 63
8, 16552, Note_on_c, 6, 40, 0
8, 16704, Note_on_c, 6, 38, 63
8, 16744, Note_on_c, 6, 38, 0
8, 16896, Note_on_c, 6, 38, 63
8, 16936, Note_on_c, 6, 38, 0
8, 17088, Note_on_c, 6, 37, 63
8, 17128, Note_on_c, 6, 37, 0
8, 17280, Note_on_c, 6, 37, 63
8, 17320, Note_on_c, 6, 37, 0
8, 17472, Note_on_c, 6, 35, 63
8, 17512, Note_on_c, 6, 35, 0
8, 17664, Note_on_c, 6, 28, 63
8, 17704, Note_on_c, 6, 28, 0
8, 17856, Note_on_c, 6, 28, 63
8, 17896, Note_on_c, 6, 28, 0
8, 18048, Note_on_c, 6, 28, 63
8, 18088, Note_on_c, 6, 28, 0
8, 18240, Note_on_c, 6, 28, 63
8, 18280, Note_on_c, 6, 28, 0
8, 18432, Note_on_c, 6, 28, 63
8, 18472, Note_on_c, 6, 28, 0
8, 18624, Note_on_c, 6, 28, 63
8, 18664, Note_on_c, 6, 28, 0
8, 18816, Note_on_c, 6, 28, 63
8, 18856, Note_on_c, 6, 28, 0
8, 19008, Note_on_c, 6, 28, 63
8, 19048, Note_on_c, 6, 28, 0
8, 19200, Note_on_c, 6, 33, 95
8, 19240, Note_on_c, 6, 33, 0
8, 19272, Note_on_c, 6, 33, 95
8, 19293, Note_on_c, 6, 33, 0
8, 19296, Note_on_c, 6, 40, 95
8, 19317, Note_on_c, 6, 40, 0
8, 19320, Note_on_c, 6, 42, 95
8, 19341, Note_on_c, 6, 42, 0
8, 19344, Note_on_c, 6, 44, 95
8, 19365, Note_on_c, 6, 44, 0
8, 19368, Note_on_c, 6, 40, 95
8, 19389, Note_on_c, 6, 40, 0
8, 19392, Note_on_c, 6, 37, 95
8, 19413, Note_on_c, 6, 37, 0
8, 19416, Note_on_c, 6, 35, 95
8, 19437, Note_on_c, 6, 35, 0
8, 19440, Note_on_c, 6, 37, 95
8, 19461, Note_on_c, 6, 37, 0
8, 19464, Note_on_c, 6, 33, 95
8, 19485, Note_on_c, 6, 33, 0
8, 19488, Note_on_c, 6, 40, 95
8, 19509, Note_on_c, 6, 40, 0
8, 20064, Note_on_c, 6, 28, 47
8, 20084, Note_on_c, 6, 28, 0
8, 20088, Note_on_c, 6, 33, 47
8, 20128, Note_on_c, 6, 33, 0
8, 20616, Note_on_c, 6, 33, 47
8, 20636, Note_on_c, 6, 33, 0
8, 20640, Note_on_c, 6, 38, 47
8, 20680, Note_on_c, 6, 38, 0
8, 20832, Note_on_c, 6, 50, 63
8, 20842, Note_on_c, 6, 50, 0
8, 20844, Note_on_c, 6, 50, 63
8, 20854, Note_on_c, 6, 50, 0
8, 20856, Note_on_c, 6, 45, 63
8, 20866, Note_on_c, 6, 45, 0
8, 20868, Note_on_c, 6, 45, 63
8, 20878, Note_on_c, 6, 45, 0
8, 20880, Note_on_c, 6, 42, 63
8, 20890, Note_on_c, 6, 42, 0
8, 20892, Note_on_c, 6, 42, 63
8, 20902, Note_on_c, 6, 42, 0
8, 20904, Note_on_c, 6, 38, 63
8, 20914, Note_on_c, 6, 38, 0
8, 20916, Note_on_c, 6, 38, 63
8, 20926, Note_on_c, 6, 38, 0
8, 20928, Note_on_c, 6, 45, 63
8, 20938, Note_on_c, 6, 45, 0
8, 20940, Note_on_c, 6, 45, 63
8, 20950, Note_on_c, 6, 45, 0
8, 20952, Note_on_c, 6, 40, 63
8, 20962, Note_on_c, 6, 40, 0
8, 20964, Note_on_c, 6, 40, 63
8, 20974, Note_on_c, 6, 40, 0
8, 20976, Note_on_c, 6, 37, 63
8, 20986, Note_on_c, 6, 37, 0
8, 20988, Note_on_c, 6, 37, 63
8, 20998, Note_on_c, 6, 37, 0
8, 21000, Note_on_c, 6, 33, 63
8, 21010, Note_on_c, 6, 33, 0
8, 21012, Note_on_c, 6, 33, 63
8, 21022, Note_on_c, 6, 33, 0
8, 21024, Note_on_c, 6, 38, 63
8, 21064, Note_on_c, 6, 38, 0
8, 21312, Note_on_c, 6, 38, 63
8, 21352, Note_on_c, 6, 38, 0
8, 21384, Note_on_c, 6, 38, 63
8, 21404, Note_on_c, 6, 38, 0
8, 21408, Note_on_c, 6, 45, 63
8, 21428, Note_on_c, 6, 45, 0
8, 21432, Note_on_c, 6, 33, 63
8, 21452, Note_on_c, 6, 33, 0
8, 21456, Note_on_c, 6, 35, 63
8, 21476, Note_on_c, 6, 35, 0
8, 21480, Note_on_c, 6, 37, 63
8, 21500, Note_on_c, 6, 37, 0
8, 21504, Note_on_c, 6, 38, 63
8, 21544, Note_on_c, 6, 38, 0
8, 21792, Note_on_c, 6, 38, 63
8, 21832, Note_on_c, 6, 38, 0
8, 21864, Note_on_c, 6, 26, 63
8, 21884, Note_on_c, 6, 26, 0
8, 21888, Note_on_c, 6, 33, 63
8, 21928, Note_on_c, 6, 33, 0
8, 23040, Note_on_c, 6, 38, 95
8, 23080, Note_on_c, 6, 38, 0
8, 23112, Note_on_c, 6, 38, 95
8, 23132, Note_on_c, 6, 38, 0
8, 23136, Note_on_c, 6, 45, 95
8, 23156, Note_on_c, 6, 45, 0
8, 23160, Note_on_c, 6, 47, 95
8, 23180, Note_on_c, 6, 47, 0
8, 23184, Note_on_c, 6, 49, 95
8, 23204, Note_on_c, 6, 49, 0
8, 23208, Note_on_c, 6, 45, 95
8, 23228, Note_on_c, 6, 45, 0
8, 23232, Note_on_c, 6, 42, 95
8, 23252, Note_on_c, 6, 42, 0
8, 23256, Note_on_c, 6, 40, 95
8, 23276, Note_on_c, 6, 40, 0
8, 23280, Note_on_c, 6, 42, 95
8, 23300, Note_on_c, 6, 42, 0
8, 23304, Note_on_c, 6, 38, 95
8, 23324, Note_on_c, 6, 38, 0
8, 23328, Note_on_c, 6, 45, 95
8, 23348, Note_on_c, 6, 45, 0
8, 23352, Note_on_c, 6, 47, 95
8, 23372, Note_on_c, 6, 47, 0
8, 23376, Note_on_c, 6, 49, 95
8, 23396, Note_on_c, 6, 49, 0
8, 23400, Note_on_c, 6, 45, 95
8, 23420, Note_on_c, 6, 45, 0
8, 23424, Note_on_c, 6, 50, 95
8, 23444, Note_on_c, 6, 50, 0
8, 23448, Note_on_c, 6, 49, 95
8, 23468, Note_on_c, 6, 49, 0
8, 23472, Note_on_c, 6, 47, 95
8, 23492, Note_on_c, 6, 47, 0
8, 23496, Note_on_c, 6, 45, 95
8, 23516, Note_on_c, 6, 45, 0
8, 23520, Note_on_c, 6, 43, 95
8, 23540, Note_on_c, 6, 43, 0
8, 23544, Note_on_c, 6, 42, 95
8, 23564, Note_on_c, 6, 42, 0
8, 23568, Note_on_c, 6, 40, 95
8, 23588, Note_on_c, 6, 40, 0
8, 23592, Note_on_c, 6, 38, 95
8, 23612, Note_on_c, 6, 38, 0
8, 23616, Note_on_c, 6, 37, 95
8, 23636, Note_on_c, 6, 37, 0
8, 23640, Note_on_c, 6, 38, 95
8, 23660, Note_on_c, 6, 38, 0
8, 23664, Note_on_c, 6, 43, 95
8, 23684, Note_on_c, 6, 43, 0
8, 23688, Note_on_c, 6, 42, 95
8, 23708, Note_on_c, 6, 42, 0
8, 23712, Note_on_c, 6, 40, 95
8, 23732, Note_on_c, 6, 40, 0
8, 23736, Note_on_c, 6, 38, 95
8, 23756, Note_on_c, 6, 38, 0
8, 23760, Note_on_c, 6, 37, 95
8, 23780, Note_on_c, 6, 37, 0
8, 23784, Note_on_c, 6, 33, 95
8, 23804, Note_on_c, 6, 33, 0
8, 23808, Note_on_c, 6, 38, 95
8, 23828, Note_on_c, 6, 38, 0
8, 23832, Note_on_c, 6, 35, 95
8, 23852, Note_on_c, 6, 35, 0
8, 23856, Note_on_c, 6, 31, 95
8, 23876, Note_on_c, 6, 31, 0
8, 23880, Note_on_c, 6, 33, 95
8, 23900, Note_on_c, 6, 33, 0
8, 23904, Note_on_c, 6, 36, 95
8, 23944, Note_on_c, 6, 36, 0
8, 24504, Note_on_c, 6, 38, 63
8, 24524, Note_on_c, 6, 38, 0
8, 24528, Note_on_c, 6, 45, 63
8, 24548, Note_on_c, 6, 45, 0
8, 24552, Note_on_c, 6, 43, 63
8, 24572, Note_on_c, 6, 43, 0
8, 24576, Note_on_c, 6, 42, 63
8, 24596, Note_on_c, 6, 42, 0
8, 25176, Note_on_c, 6, 33, 63
8, 25196, Note_on_c, 6, 33, 0
8, 25200, Note_on_c, 6, 40, 63
8, 25220, Note_on_c, 6, 40, 0
8, 25224, Note_on_c, 6, 38, 63
8, 25244, Note_on_c, 6, 38, 0
8, 25248, Note_on_c, 6, 37, 63
8, 25268, Note_on_c, 6, 37, 0
8, 25320, Note_on_c, 6, 38, 63
8, 25340, Note_on_c, 6, 38, 0
8, 25344, Note_on_c, 6, 31, 63
8, 25364, Note_on_c, 6, 31, 0
8, 25416, Note_on_c, 6, 43, 63
8, 25436, Note_on_c, 6, 43, 0
8, 25440, Note_on_c, 6, 42, 63
8, 25460, Note_on_c, 6, 42, 0
8, 25512, Note_on_c, 6, 35, 63
8, 25532, Note_on_c, 6, 35, 0
8, 25536, Note_on_c, 6, 40, 63
8, 25556, Note_on_c, 6, 40, 0
8, 25608, Note_on_c, 6, 33, 63
8, 25628, Note_on_c, 6, 33, 0
8, 25632, Note_on_c, 6, 38, 63
8, 25652, Note_on_c, 6, 38, 0
8, 25704, Note_on_c, 6, 38, 63
8, 25724, Note_on_c, 6, 38, 0
8, 25728, Note_on_c, 6, 45, 63
8, 25887, Note_on_c, 6, 45, 0
8, 25920, Note_on_c, 6, 45, 63
8, 26000, Note_on_c, 6, 45, 0
8, 26016, Note_on_c, 6, 33, 63
8, 26036, Note_on_c, 6, 33, 0
8, 26040, Note_on_c, 6, 45, 95
8, 26050, Note_on_c, 6, 45, 0
8, 26052, Note_on_c, 6, 47, 95
8, 26062, Note_on_c, 6, 47, 0
8, 26064, Note_on_c, 6, 49, 95
8, 26074, Note_on_c, 6, 49, 0
8, 26076, Note_on_c, 6, 50, 95
8, 26086, Note_on_c, 6, 50, 0
8, 26088, Note_on_c, 6, 52, 95
8, 26098, Note_on_c, 6, 52, 0
8, 26100, Note_on_c, 6, 49, 95
8, 26110, Note_on_c, 6, 49, 0
8, 26112, Note_on_c, 6, 50, 95
8, 26132, Note_on_c, 6, 50, 0
8, 26136, Note_on_c, 6, 49, 95
8, 26156, Note_on_c, 6, 49, 0
8, 26160, Note_on_c, 6, 47, 95
8, 26180, Note_on_c, 6, 47, 0
8, 26184, Note_on_c, 6, 45, 95
8, 26204, Note_on_c, 6, 45, 0
8, 26208, Note_on_c, 6, 43, 95
8, 26228, Note_on_c, 6, 43, 0
8, 26232, Note_on_c, 6, 42, 95
8, 26252, Note_on_c, 6, 42, 0
8, 26256, Note_on_c, 6, 40, 95
8, 26276, Note_on_c, 6, 40, 0
8, 26280, Note_on_c, 6, 38, 95
8, 26300, Note_on_c, 6, 38, 0
8, 26304, Note_on_c, 6, 49, 95
8, 26324, Note_on_c, 6, 49, 0
8, 26328, Note_on_c, 6, 50, 95
8, 26348, Note_on_c, 6, 50, 0
8, 26352, Note_on_c, 6, 43, 95
8, 26372, Note_on_c, 6, 43, 0
8, 26376, Note_on_c, 6, 42, 95
8, 26396, Note_on_c, 6, 42, 0
8, 26400, Note_on_c, 6, 40, 95
8, 26420, Note_on_c, 6, 40, 0
8, 26424, Note_on_c, 6, 38, 95
8, 26444, Note_on_c, 6, 38, 0
8, 26448, Note_on_c, 6, 37, 95
8, 26468, Note_on_c, 6, 37, 0
8, 26472, Note_on_c, 6, 49, 95
8, 26492, Note_on_c, 6, 49, 0
8, 26496, Note_on_c, 6, 50, 95
8, 26516, Note_on_c, 6, 50, 0
8, 26520, Note_on_c, 6, 47, 95
8, 26540, Note_on_c, 6, 47, 0
8, 26544, Note_on_c, 6, 43, 95
8, 26564, Note_on_c, 6, 43, 0
8, 26568, Note_on_c, 6, 45, 95
8, 26588, Note_on_c, 6, 45, 0
8, 26592, Note_on_c, 6, 42, 95
8, 26612, Note_on_c, 6, 42, 0
8, 26664, Note_on_c, 6, 50, 63
8, 26684, Note_on_c, 6, 50, 0
8, 26688, Note_on_c, 6, 31, 63
8, 26708, Note_on_c, 6, 31, 0
8, 26760, Note_on_c, 6, 31, 63
8, 26780, Note_on_c, 6, 31, 0
8, 26784, Note_on_c, 6, 28, 63
8, 26804, Note_on_c, 6, 28, 0
8, 26856, Note_on_c, 6, 40, 63
8, 26876, Note_on_c, 6, 40, 0
8, 26880, Note_on_c, 6, 33, 63
8, 26900, Note_on_c, 6, 33, 0
8, 26952, Note_on_c, 6, 33, 63
8, 26972, Note_on_c, 6, 33, 0
8, 26976, Note_on_c, 6, 30, 63
8, 26996, Note_on_c, 6, 30, 0
8, 27048, Note_on_c, 6, 42, 63
8, 27068, Note_on_c, 6, 42, 0
8, 27072, Note_on_c, 6, 35, 63
8, 27092, Note_on_c, 6, 35, 0
8, 27144, Note_on_c, 6, 35, 63
8, 27164, Note_on_c, 6, 35, 0
8, 27168, Note_on_c, 6, 33, 63
8, 27188, Note_on_c, 6, 33, 0
8, 27240, Note_on_c, 6, 45, 63
8, 27260, Note_on_c, 6, 45, 0
8, 27264, Note_on_c, 6, 38, 63
8, 27284, Note_on_c, 6, 38, 0
8, 41952, Control_c, 6, 10, 90
8, 41952, Control_c, 6, 7, 96
8, 41952, Pitch_bend_c, 6, 8192
8, 41952, Control_c, 6, 1, 0
8, 41952, Program_c, 6, 56
8, 41952, Control_c, 6, 64, 0
8, 41952, Note_on_c, 6, 38, 95
8, 42000, Note_on_c, 6, 38, 0
8, 42024, Note_on_c, 6, 38, 95
8, 42048, Note_on_c, 6, 38, 0
8, 42048, Note_on_c, 6, 45, 95
8, 42072, Note_on_c, 6, 45, 0
8, 42072, Note_on_c, 6, 47, 95
8, 42096, Note_on_c, 6, 47, 0
8, 42096, Note_on_c, 6, 49, 95
8, 42120, Note_on_c, 6, 49, 0
8, 42120, Note_on_c, 6, 45, 95
8, 42144, Note_on_c, 6, 45, 0
8, 42144, Note_on_c, 6, 42, 95
8, 42168, Note_on_c, 6, 42, 0
8, 42168, Note_on_c, 6, 40, 95
8, 42192, Note_on_c, 6, 40, 0
8, 42192, Note_on_c, 6, 42, 95
8, 42216, Note_on_c, 6, 42, 0
8, 42216, Note_on_c, 6, 38, 95
8, 42240, Note_on_c, 6, 38, 0
8, 42240, Note_on_c, 6, 45, 95
8, 42264, Note_on_c, 6, 45, 0
8, 42264, Note_on_c, 6, 47, 95
8, 42288, Note_on_c, 6, 47, 0
8, 42288, Note_on_c, 6, 49, 95
8, 42312, Note_on_c, 6, 49, 0
8, 42312, Note_on_c, 6, 45, 95
8, 42336, Note_on_c, 6, 45, 0
8, 42336, Note_on_c, 6, 50, 95
8, 42360, Note_on_c, 6, 50, 0
8, 42360, Note_on_c, 6, 49, 95
8, 42384, Note_on_c, 6, 49, 0
8, 42384, Note_on_c, 6, 47, 95
8, 42408, Note_on_c, 6, 47, 0
8, 42408, Note_on_c, 6, 45, 95
8, 42432, Note_on_c, 6, 45, 0
8, 42432, Note_on_c, 6, 43, 95
8, 42456, Note_on_c, 6, 43, 0
8, 42456, Note_on_c, 6, 42, 95
8, 42480, Note_on_c, 6, 42, 0
8, 42480, Note_on_c, 6, 40, 95
8, 42504, Note_on_c, 6, 40, 0
8, 42504, Note_on_c, 6, 38, 95
8, 42528, Note_on_c, 6, 38, 0
8, 42528, Note_on_c, 6, 37, 95
8, 42552, Note_on_c, 6, 37, 0
8, 42552, Note_on_c, 6, 38, 95
8, 42576, Note_on_c, 6, 38, 0
8, 42576, Note_on_c, 6, 43, 95
8, 42600, Note_on_c, 6, 43, 0
8, 42600, Note_on_c, 6, 42, 95
8, 42624, Note_on_c, 6, 42, 0
8, 42624, Note_on_c, 6, 40, 95
8, 42648, Note_on_c, 6, 40, 0
8, 42648, Note_on_c, 6, 38, 95
8, 42672, Note_on_c, 6, 38, 0
8, 42672, Note_on_c, 6, 37, 95
8, 42696, Note_on_c, 6, 37, 0
8, 42696, Note_on_c, 6, 33, 95
8, 42720, Note_on_c, 6, 33, 0
8, 42720, Note_on_c, 6, 38, 95
8, 42744, Note_on_c, 6, 38, 0
8, 42744, Note_on_c, 6, 35, 95
8, 42768, Note_on_c, 6, 35, 0
8, 42768, Note_on_c, 6, 31, 95
8, 42792, Note_on_c, 6, 31, 0
8, 42792, Note_on_c, 6, 33, 95
8, 42816, Note_on_c, 6, 33, 0
8, 42816, Note_on_c, 6, 35, 95
8, 42828, Note_on_c, 6, 35, 0
8, 42828, Note_on_c, 6, 37, 95
8, 42840, Note_on_c, 6, 37, 0
8, 42840, Note_on_c, 6, 38, 95
8, 42852, Note_on_c, 6, 38, 0
8, 42852, Note_on_c, 6, 40, 95
8, 42864, Note_on_c, 6, 40, 0
8, 42864, Note_on_c, 6, 42, 95
8, 42876, Note_on_c, 6, 42, 0
8, 42876, Note_on_c, 6, 43, 95
8, 42888, Note_on_c, 6, 43, 0
8, 42888, Note_on_c, 6, 45, 95
8, 42900, Note_on_c, 6, 45, 0
8, 42900, Note_on_c, 6, 42, 95
8, 42912, Note_on_c, 6, 42, 0
8, 42912, Note_on_c, 6, 47, 95
8, 42936, Note_on_c, 6, 47, 0
8, 42936, Note_on_c, 6, 45, 95
8, 42960, Note_on_c, 6, 45, 0
8, 42960, Note_on_c, 6, 43, 95
8, 42984, Note_on_c, 6, 43, 0
8, 42984, Note_on_c, 6, 42, 95
8, 43008, Note_on_c, 6, 42, 0
8, 43008, Note_on_c, 6, 40, 95
8, 43032, Note_on_c, 6, 40, 0
8, 43032, Note_on_c, 6, 38, 95
8, 43056, Note_on_c, 6, 38, 0
8, 43056, Note_on_c, 6, 37, 95
8, 43080, Note_on_c, 6, 37, 0
8, 43080, Note_on_c, 6, 33, 95
8, 43104, Note_on_c, 6, 33, 0
8, 43104, Note_on_c, 6, 38, 95
8, 43128, Note_on_c, 6, 38, 0
8, 43128, Note_on_c, 6, 42, 95
8, 43152, Note_on_c, 6, 42, 0
8, 43152, Note_on_c, 6, 43, 95
8, 43176, Note_on_c, 6, 43, 0
8, 43176, Note_on_c, 6, 45, 95
8, 43188, Note_on_c, 6, 45, 0
8, 43188, Note_on_c, 6, 43, 95
8, 43200, Note_on_c, 6, 43, 0
8, 43200, Note_on_c, 6, 42, 95
8, 43224, Note_on_c, 6, 42, 0
8, 43224, Note_on_c, 6, 43, 95
8, 43248, Note_on_c, 6, 43, 0
8, 43272, Note_on_c, 6, 37, 95
8, 43284, Note_on_c, 6, 37, 0
8, 43284, Note_on_c, 6, 37, 95
8, 43296, Note_on_c, 6, 37, 0
8, 43296, Note_on_c, 6, 38, 95
8, 43308, Note_on_c, 6, 38, 0
8, 43308, Note_on_c, 6, 38, 95
8, 43320, Note_on_c, 6, 38, 0
8, 43320, Note_on_c, 6, 37, 95
8, 43332, Note_on_c, 6, 37, 0
8, 43332, Note_on_c, 6, 37, 95
8, 43344, Note_on_c, 6, 37, 0
8, 43344, Note_on_c, 6, 38, 95
8, 43356, Note_on_c, 6, 38, 0
8, 43356, Note_on_c, 6, 38, 95
8, 43368, Note_on_c, 6, 38, 0
8, 43368, Note_on_c, 6, 30, 95
8, 43380, Note_on_c, 6, 30, 0
8, 43380, Note_on_c, 6, 30, 95
8, 43392, Note_on_c, 6, 30, 0
8, 43392, Note_on_c, 6, 31, 95
8, 43416, Note_on_c, 6, 31, 0
8, 43416, Note_on_c, 6, 43, 95
8, 43440, Note_on_c, 6, 43, 0
8, 43440, Note_on_c, 6, 45, 95
8, 43464, Note_on_c, 6, 45, 0
8, 43464, Note_on_c, 6, 33, 95
8, 43488, Note_on_c, 6, 33, 0
8, 43488, Note_on_c, 6, 38, 95
8, 43536, Note_on_c, 6, 38, 0
8, 43536, End_track
9, 0, Start_track
9, 0, Title_t, "Cembalo LH"
9, 0, Control_c, 7, 10, 36
9, 0, Control_c, 7, 7, 96
9, 0, Pitch_bend_c, 7, 8192
9, 0, Control_c, 7, 1, 0
9, 0, Program_c, 7, 16
9, 0, Control_c, 7, 64, 0
9, 0, Note_on_c, 7, 57, 79
9, 0, Note_on_c, 7, 50, 79
9, 0, Note_on_c, 7, 54, 79
9, 48, Note_on_c, 7, 50, 0
9, 48, Note_on_c, 7, 54, 0
9, 48, Note_on_c, 7, 57, 0
9, 72, Note_on_c, 7, 50, 79
9, 88, Note_on_c, 7, 50, 0
9, 96, Note_on_c, 7, 57, 79
9, 112, Note_on_c, 7, 57, 0
9, 120, Note_on_c, 7, 59, 79
9, 136, Note_on_c, 7, 59, 0
9, 144, Note_on_c, 7, 61, 79
9, 160, Note_on_c, 7, 61, 0
9, 168, Note_on_c, 7, 57, 79
9, 184, Note_on_c, 7, 57, 0
9, 192, Note_on_c, 7, 54, 79
9, 208, Note_on_c, 7, 54, 0
9, 216, Note_on_c, 7, 52, 79
9, 232, Note_on_c, 7, 52, 0
9, 240, Note_on_c, 7, 54, 79
9, 256, Note_on_c, 7, 54, 0
9, 264, Note_on_c, 7, 50, 79
9, 280, Note_on_c, 7, 50, 0
9, 288, Note_on_c, 7, 57, 79
9, 304, Note_on_c, 7, 57, 0
9, 312, Note_on_c, 7, 59, 79
9, 328, Note_on_c, 7, 59, 0
9, 336, Note_on_c, 7, 61, 79
9, 352, Note_on_c, 7, 61, 0
9, 360, Note_on_c, 7, 57, 79
9, 376, Note_on_c, 7, 57, 0
9, 384, Note_on_c, 7, 62, 79
9, 400, Note_on_c, 7, 62, 0
9, 408, Note_on_c, 7, 61, 79
9, 424, Note_on_c, 7, 61, 0
9, 432, Note_on_c, 7, 59, 79
9, 448, Note_on_c, 7, 59, 0
9, 456, Note_on_c, 7, 57, 79
9, 472, Note_on_c, 7, 57, 0
9, 480, Note_on_c, 7, 55, 79
9, 496, Note_on_c, 7, 55, 0
9, 504, Note_on_c, 7, 54, 79
9, 520, Note_on_c, 7, 54, 0
9, 528, Note_on_c, 7, 52, 79
9, 544, Note_on_c, 7, 52, 0
9, 552, Note_on_c, 7, 50, 79
9, 568, Note_on_c, 7, 50, 0
9, 576, Note_on_c, 7, 49, 79
9, 592, Note_on_c, 7, 49, 0
9, 600, Note_on_c, 7, 50, 79
9, 616, Note_on_c, 7, 50, 0
9, 624, Note_on_c, 7, 43, 79
9, 640, Note_on_c, 7, 43, 0
9, 648, Note_on_c, 7, 42, 79
9, 664, Note_on_c, 7, 42, 0
9, 672, Note_on_c, 7, 40, 79
9, 688, Note_on_c, 7, 40, 0
9, 696, Note_on_c, 7, 38, 79
9, 712, Note_on_c, 7, 38, 0
9, 720, Note_on_c, 7, 37, 79
9, 736, Note_on_c, 7, 37, 0
9, 744, Note_on_c, 7, 49, 79
9, 760, Note_on_c, 7, 49, 0
9, 768, Note_on_c, 7, 50, 79
9, 784, Note_on_c, 7, 50, 0
9, 792, Note_on_c, 7, 47, 79
9, 808, Note_on_c, 7, 47, 0
9, 816, Note_on_c, 7, 43, 79
9, 832, Note_on_c, 7, 43, 0
9, 840, Note_on_c, 7, 45, 79
9, 856, Note_on_c, 7, 45, 0
9, 864, Note_on_c, 7, 47, 79
9, 872, Note_on_c, 7, 47, 0
9, 876, Note_on_c, 7, 49, 79
9, 884, Note_on_c, 7, 49, 0
9, 888, Note_on_c, 7, 50, 79
9, 896, Note_on_c, 7, 50, 0
9, 900, Note_on_c, 7, 52, 79
9, 908, Note_on_c, 7, 52, 0
9, 912, Note_on_c, 7, 54, 79
9, 920, Note_on_c, 7, 54, 0
9, 924, Note_on_c, 7, 55, 79
9, 932, Note_on_c, 7, 55, 0
9, 936, Note_on_c, 7, 57, 79
9, 944, Note_on_c, 7, 57, 0
9, 948, Note_on_c, 7, 54, 79
9, 956, Note_on_c, 7, 54, 0
9, 960, Note_on_c, 7, 59, 79
9, 976, Note_on_c, 7, 59, 0
9, 984, Note_on_c, 7, 57, 79
9, 1000, Note_on_c, 7, 57, 0
9, 1008, Note_on_c, 7, 55, 79
9, 1024, Note_on_c, 7, 55, 0
9, 1032, Note_on_c, 7, 54, 79
9, 1048, Note_on_c, 7, 54, 0
9, 1056, Note_on_c, 7, 52, 79
9, 1072, Note_on_c, 7, 52, 0
9, 1080, Note_on_c, 7, 50, 79
9, 1096, Note_on_c, 7, 50, 0
9, 1104, Note_on_c, 7, 49, 79
9, 1120, Note_on_c, 7, 49, 0
9, 1128, Note_on_c, 7, 45, 79
9, 1144, Note_on_c, 7, 45, 0
9, 1152, Note_on_c, 7, 50, 79
9, 1168, Note_on_c, 7, 50, 0
9, 1176, Note_on_c, 7, 54, 79
9, 1192, Note_on_c, 7, 54, 0
9, 1200, Note_on_c, 7, 55, 79
9, 1216, Note_on_c, 7, 55, 0
9, 1224, Note_on_c, 7, 57, 79
9, 1232, Note_on_c, 7, 57, 0
9, 1236, Note_on_c, 7, 55, 79
9, 1244, Note_on_c, 7, 55, 0
9, 1248, Note_on_c, 7, 54, 79
9, 1264, Note_on_c, 7, 54, 0
9, 1272, Note_on_c, 7, 55, 79
9, 1288, Note_on_c, 7, 55, 0
9, 1320, Note_on_c, 7, 49, 79
9, 1328, Note_on_c, 7, 49, 0
9, 1332, Note_on_c, 7, 49, 79
9, 1340, Note_on_c, 7, 49, 0
9, 1344, Note_on_c, 7, 50, 79
9, 1352, Note_on_c, 7, 50, 0
9, 1356, Note_on_c, 7, 50, 79
9, 1364, Note_on_c, 7, 50, 0
9, 1368, Note_on_c, 7, 49, 79
9, 1376, Note_on_c, 7, 49, 0
9, 1380, Note_on_c, 7, 49, 79
9, 1388, Note_on_c, 7, 49, 0
9, 1392, Note_on_c, 7, 50, 79
9, 1400, Note_on_c, 7, 50, 0
9, 1404, Note_on_c, 7, 50, 79
9, 1412, Note_on_c, 7, 50, 0
9, 1416, Note_on_c, 7, 42, 79
9, 1424, Note_on_c, 7, 42, 0
9, 1428, Note_on_c, 7, 42, 79
9, 1436, Note_on_c, 7, 42, 0
9, 1440, Note_on_c, 7, 43, 79
9, 1456, Note_on_c, 7, 43, 0
9, 1464, Note_on_c, 7, 55, 79
9, 1480, Note_on_c, 7, 55, 0
9, 1488, Note_on_c, 7, 57, 79
9, 1504, Note_on_c, 7, 57, 0
9, 1512, Note_on_c, 7, 45, 79
9, 1528, Note_on_c, 7, 45, 0
9, 1536, Program_c, 7, 18
9, 1536, Note_on_c, 7, 54, 79
9, 1568, Note_on_c, 7, 54, 0
9, 1740, Note_on_c, 7, 57, 79
9, 1748, Note_on_c, 7, 57, 0
9, 1752, Note_on_c, 7, 55, 79
9, 1760, Note_on_c, 7, 55, 0
9, 1764, Note_on_c, 7, 57, 79
9, 1772, Note_on_c, 7, 57, 0
9, 1776, Note_on_c, 7, 54, 79
9, 1784, Note_on_c, 7, 54, 0
9, 1788, Note_on_c, 7, 57, 79
9, 1796, Note_on_c, 7, 57, 0
9, 1800, Note_on_c, 7, 52, 79
9, 1808, Note_on_c, 7, 52, 0
9, 1812, Note_on_c, 7, 57, 79
9, 1820, Note_on_c, 7, 57, 0
9, 1824, Note_on_c, 7, 50, 79
9, 1840, Note_on_c, 7, 50, 0
9, 1848, Note_on_c, 7, 62, 79
9, 1856, Note_on_c, 7, 62, 0
9, 1860, Note_on_c, 7, 61, 79
9, 1868, Note_on_c, 7, 61, 0
9, 1872, Note_on_c, 7, 62, 79
9, 1888, Note_on_c, 7, 62, 0
9, 1896, Note_on_c, 7, 50, 79
9, 1912, Note_on_c, 7, 50, 0
9, 1920, Note_on_c, 7, 57, 79
9, 1936, Note_on_c, 7, 57, 0
9, 1944, Note_on_c, 7, 45, 79
9, 1960, Note_on_c, 7, 45, 0
9, 1968, Note_on_c, 7, 47, 79
9, 1984, Note_on_c, 7, 47, 0
9, 1992, Note_on_c, 7, 49, 79
9, 2008, Note_on_c, 7, 49, 0
9, 2016, Note_on_c, 7, 50, 79
9, 2048, Note_on_c, 7, 50, 0
9, 2220, Note_on_c, 7, 45, 79
9, 2228, Note_on_c, 7, 45, 0
9, 2232, Note_on_c, 7, 43, 79
9, 2240, Note_on_c, 7, 43, 0
9, 2244, Note_on_c, 7, 45, 79
9, 2252, Note_on_c, 7, 45, 0
9, 2256, Note_on_c, 7, 42, 79
9, 2264, Note_on_c, 7, 42, 0
9, 2268, Note_on_c, 7, 45, 79
9, 2276, Note_on_c, 7, 45, 0
9, 2280, Note_on_c, 7, 40, 79
9, 2288, Note_on_c, 7, 40, 0
9, 2292, Note_on_c, 7, 45, 79
9, 2300, Note_on_c, 7, 45, 0
9, 2304, Note_on_c, 7, 38, 79
9, 2320, Note_on_c, 7, 38, 0
9, 2328, Note_on_c, 7, 50, 79
9, 2336, Note_on_c, 7, 50, 0
9, 2340, Note_on_c, 7, 49, 79
9, 2348, Note_on_c, 7, 49, 0
9, 2352, Note_on_c, 7, 50, 79
9, 2368, Note_on_c, 7, 50, 0
9, 2376, Note_on_c, 7, 38, 79
9, 2392, Note_on_c, 7, 38, 0
9, 2400, Note_on_c, 7, 45, 79
9, 2416, Note_on_c, 7, 45, 0
9, 2424, Note_on_c, 7, 57, 79
9, 2440, Note_on_c, 7, 57, 0
9, 2448, Note_on_c, 7, 59, 79
9, 2464, Note_on_c, 7, 59, 0
9, 2472, Note_on_c, 7, 61, 79
9, 2488, Note_on_c, 7, 61, 0
9, 2496, Note_on_c, 7, 50, 79
9, 2504, Note_on_c, 7, 50, 0
9, 2508, Note_on_c, 7, 62, 79
9, 2516, Note_on_c, 7, 62, 0
9, 2520, Note_on_c, 7, 61, 79
9, 2528, Note_on_c, 7, 61, 0
9, 2532, Note_on_c, 7, 62, 79
9, 2540, Note_on_c, 7, 62, 0
9, 2544, Note_on_c, 7, 59, 79
9, 2552, Note_on_c, 7, 59, 0
9, 2556, Note_on_c, 7, 62, 79
9, 2564, Note_on_c, 7, 62, 0
9, 2568, Note_on_c, 7, 57, 79
9, 2576, Note_on_c, 7, 57, 0
9, 2580, Note_on_c, 7, 62, 79
9, 2588, Note_on_c, 7, 62, 0
9, 2592, Note_on_c, 7, 56, 79
9, 2600, Note_on_c, 7, 56, 0
9, 2604, Note_on_c, 7, 62, 79
9, 2612, Note_on_c, 7, 62, 0
9, 2616, Note_on_c, 7, 54, 79
9, 2624, Note_on_c, 7, 54, 0
9, 2628, Note_on_c, 7, 62, 79
9, 2636, Note_on_c, 7, 62, 0
9, 2640, Note_on_c, 7, 52, 79
9, 2648, Note_on_c, 7, 52, 0
9, 2652, Note_on_c, 7, 62, 79
9, 2660, Note_on_c, 7, 62, 0
9, 2664, Note_on_c, 7, 50, 79
9, 2672, Note_on_c, 7, 50, 0
9, 2676, Note_on_c, 7, 62, 79
9, 2684, Note_on_c, 7, 62, 0
9, 2688, Note_on_c, 7, 49, 79
9, 2696, Note_on_c, 7, 49, 0
9, 2700, Note_on_c, 7, 61, 79
9, 2708, Note_on_c, 7, 61, 0
9, 2712, Note_on_c, 7, 59, 79
9, 2720, Note_on_c, 7, 59, 0
9, 2724, Note_on_c, 7, 61, 79
9, 2732, Note_on_c, 7, 61, 0
9, 2736, Note_on_c, 7, 57, 79
9, 2744, Note_on_c, 7, 57, 0
9, 2748, Note_on_c, 7, 61, 79
9, 2756, Note_on_c, 7, 61, 0
9, 2760, Note_on_c, 7, 56, 79
9, 2768, Note_on_c, 7, 56, 0
9, 2772, Note_on_c, 7, 61, 79
9, 2780, Note_on_c, 7, 61, 0
9, 2784, Note_on_c, 7, 54, 79
9, 2792, Note_on_c, 7, 54, 0
9, 2796, Note_on_c, 7, 61, 79
9, 2804, Note_on_c, 7, 61, 0
9, 2808, Note_on_c, 7, 52, 79
9, 2816, Note_on_c, 7, 52, 0
9, 2820, Note_on_c, 7, 61, 79
9, 2828, Note_on_c, 7, 61, 0
9, 2832, Note_on_c, 7, 50, 79
9, 2840, Note_on_c, 7, 50, 0
9, 2844, Note_on_c, 7, 61, 79
9, 2852, Note_on_c, 7, 61, 0
9, 2856, Note_on_c, 7, 49, 79
9, 2864, Note_on_c, 7, 49, 0
9, 2868, Note_on_c, 7, 61, 79
9, 2876, Note_on_c, 7, 61, 0
9, 2880, Note_on_c, 7, 47, 79
9, 2888, Note_on_c, 7, 47, 0
9, 2892, Note_on_c, 7, 59, 79
9, 2900, Note_on_c, 7, 59, 0
9, 2904, Note_on_c, 7, 57, 79
9, 2912, Note_on_c, 7, 57, 0
9, 2916, Note_on_c, 7, 59, 79
9, 2924, Note_on_c, 7, 59, 0
9, 2928, Note_on_c, 7, 56, 79
9, 2936, Note_on_c, 7, 56, 0
9, 2940, Note_on_c, 7, 59, 79
9, 2948, Note_on_c, 7, 59, 0
9, 2952, Note_on_c, 7, 54, 79
9, 2960, Note_on_c, 7, 54, 0
9, 2964, Note_on_c, 7, 59, 79
9, 2972, Note_on_c, 7, 59, 0
9, 2976, Note_on_c, 7, 52, 79
9, 2984, Note_on_c, 7, 52, 0
9, 2988, Note_on_c, 7, 59, 79
9, 2996, Note_on_c, 7, 59, 0
9, 3000, Note_on_c, 7, 50, 79
9, 3008, Note_on_c, 7, 50, 0
9, 3012, Note_on_c, 7, 59, 79
9, 3020, Note_on_c, 7, 59, 0
9, 3024, Note_on_c, 7, 49, 79
9, 3032, Note_on_c, 7, 49, 0
9, 3036, Note_on_c, 7, 59, 79
9, 3044, Note_on_c, 7, 59, 0
9, 3048, Note_on_c, 7, 47, 79
9, 3056, Note_on_c, 7, 47, 0
9, 3060, Note_on_c, 7, 59, 79
9, 3068, Note_on_c, 7, 59, 0
9, 3072, Note_on_c, 7, 45, 79
9, 3080, Note_on_c, 7, 45, 0
9, 3084, Note_on_c, 7, 57, 79
9, 3092, Note_on_c, 7, 57, 0
9, 3096, Note_on_c, 7, 47, 79
9, 3104, Note_on_c, 7, 47, 0
9, 3108, Note_on_c, 7, 57, 79
9, 3116, Note_on_c, 7, 57, 0
9, 3120, Note_on_c, 7, 49, 79
9, 3128, Note_on_c, 7, 49, 0
9, 3132, Note_on_c, 7, 57, 79
9, 3140, Note_on_c, 7, 57, 0
9, 3144, Note_on_c, 7, 45, 79
9, 3152, Note_on_c, 7, 45, 0
9, 3156, Note_on_c, 7, 57, 79
9, 3164, Note_on_c, 7, 57, 0
9, 3168, Note_on_c, 7, 50, 79
9, 3176, Note_on_c, 7, 50, 0
9, 3180, Note_on_c, 7, 57, 79
9, 3188, Note_on_c, 7, 57, 0
9, 3192, Note_on_c, 7, 52, 79
9, 3200, Note_on_c, 7, 52, 0
9, 3204, Note_on_c, 7, 57, 79
9, 3212, Note_on_c, 7, 57, 0
9, 3216, Note_on_c, 7, 54, 79
9, 3224, Note_on_c, 7, 54, 0
9, 3228, Note_on_c, 7, 57, 79
9, 3236, Note_on_c, 7, 57, 0
9, 3240, Note_on_c, 7, 50, 79
9, 3248, Note_on_c, 7, 50, 0
9, 3252, Note_on_c, 7, 57, 79
9, 3260, Note_on_c, 7, 57, 0
9, 3264, Note_on_c, 7, 52, 79
9, 3280, Note_on_c, 7, 52, 0
9, 3288, Note_on_c, 7, 40, 79
9, 3304, Note_on_c, 7, 40, 0
9, 3324, Note_on_c, 7, 54, 79
9, 3332, Note_on_c, 7, 54, 0
9, 3336, Note_on_c, 7, 52, 79
9, 3344, Note_on_c, 7, 52, 0
9, 3348, Note_on_c, 7, 50, 79
9, 3356, Note_on_c, 7, 50, 0
9, 3360, Note_on_c, 7, 49, 79
9, 3376, Note_on_c, 7, 49, 0
9, 3384, Note_on_c, 7, 50, 79
9, 3400, Note_on_c, 7, 50, 0
9, 3408, Note_on_c, 7, 52, 79
9, 3424, Note_on_c, 7, 52, 0
9, 3432, Note_on_c, 7, 40, 79
9, 3448, Note_on_c, 7, 40, 0
9, 3456, Note_on_c, 7, 45, 63
9, 3488, Note_on_c, 7, 45, 0
9, 3504, Program_c, 7, 16
9, 3528, Note_on_c, 7, 45, 63
9, 3552, Note_on_c, 7, 45, 0
9, 3552, Note_on_c, 7, 52, 63
9, 3576, Note_on_c, 7, 52, 0
9, 3576, Note_on_c, 7, 54, 63
9, 3600, Note_on_c, 7, 54, 0
9, 3600, Note_on_c, 7, 56, 63
9, 3624, Note_on_c, 7, 56, 0
9, 3624, Note_on_c, 7, 52, 63
9, 3648, Note_on_c, 7, 52, 0
9, 3648, Note_on_c, 7, 49, 63
9, 3672, Note_on_c, 7, 49, 0
9, 3672, Note_on_c, 7, 47, 63
9, 3696, Note_on_c, 7, 47, 0
9, 3696, Note_on_c, 7, 49, 63
9, 3720, Note_on_c, 7, 49, 0
9, 3720, Note_on_c, 7, 45, 63
9, 3744, Note_on_c, 7, 45, 0
9, 3744, Program_c, 7, 18
9, 3744, Note_on_c, 7, 52, 63
9, 3756, Note_on_c, 7, 52, 0
9, 3756, Note_on_c, 7, 64, 63
9, 3768, Note_on_c, 7, 64, 0
9, 3768, Note_on_c, 7, 62, 63
9, 3780, Note_on_c, 7, 62, 0
9, 3780, Note_on_c, 7, 64, 63
9, 3792, Note_on_c, 7, 64, 0
9, 3792, Note_on_c, 7, 61, 95
9, 3804, Note_on_c, 7, 61, 0
9, 3804, Note_on_c, 7, 64, 95
9, 3816, Note_on_c, 7, 64, 0
9, 3816, Note_on_c, 7, 59, 95
9, 3828, Note_on_c, 7, 59, 0
9, 3828, Note_on_c, 7, 64, 95
9, 3840, Note_on_c, 7, 64, 0
9, 3840, Note_on_c, 7, 57, 95
9, 3888, Note_on_c, 7, 57, 0
9, 3912, Note_on_c, 7, 45, 95
9, 3936, Note_on_c, 7, 45, 0
9, 3936, Note_on_c, 7, 50, 95
9, 3948, Note_on_c, 7, 50, 0
9, 3948, Note_on_c, 7, 57, 95
9, 3960, Note_on_c, 7, 57, 0
9, 3960, Note_on_c, 7, 55, 95
9, 3972, Note_on_c, 7, 55, 0
9, 3972, Note_on_c, 7, 57, 95
9, 3984, Note_on_c, 7, 57, 0
9, 3984, Note_on_c, 7, 54, 95
9, 3996, Note_on_c, 7, 54, 0
9, 3996, Note_on_c, 7, 57, 95
9, 4008, Note_on_c, 7, 57, 0
9, 4008, Note_on_c, 7, 50, 95
9, 4020, Note_on_c, 7, 50, 0
9, 4020, Note_on_c, 7, 54, 95
9, 4032, Note_on_c, 7, 54, 0
9, 4032, Note_on_c, 7, 47, 95
9, 4080, Note_on_c, 7, 47, 0
9, 4152, Note_on_c, 7, 52, 95
9, 4176, Note_on_c, 7, 52, 0
9, 4176, Note_on_c, 7, 57, 95
9, 4200, Note_on_c, 7, 57, 0
9, 4200, Note_on_c, 7, 49, 95
9, 4224, Note_on_c, 7, 49, 0
9, 4224, Note_on_c, 7, 54, 95
9, 4272, Note_on_c, 7, 54, 0
9, 4296, Note_on_c, 7, 42, 95
9, 4320, Note_on_c, 7, 42, 0
9, 4320, Note_on_c, 7, 47, 95
9, 4332, Note_on_c, 7, 47, 0
9, 4332, Note_on_c, 7, 54, 95
9, 4344, Note_on_c, 7, 54, 0
9, 4344, Note_on_c, 7, 52, 95
9, 4356, Note_on_c, 7, 52, 0
9, 4356, Note_on_c, 7, 54, 95
9, 4368, Note_on_c, 7, 54, 0
9, 4368, Note_on_c, 7, 50, 95
9, 4380, Note_on_c, 7, 50, 0
9, 4380, Note_on_c, 7, 54, 95
9, 4392, Note_on_c, 7, 54, 0
9, 4392, Note_on_c, 7, 47, 95
9, 4404, Note_on_c, 7, 47, 0
9, 4404, Note_on_c, 7, 50, 95
9, 4416, Note_on_c, 7, 50, 0
9, 4416, Note_on_c, 7, 44, 95
9, 4464, Note_on_c, 7, 44, 0
9, 4536, Note_on_c, 7, 49, 95
9, 4560, Note_on_c, 7, 49, 0
9, 4560, Note_on_c, 7, 54, 95
9, 4584, Note_on_c, 7, 54, 0
9, 4584, Note_on_c, 7, 45, 95
9, 4608, Note_on_c, 7, 45, 0
9, 4608, Note_on_c, 7, 50, 95
9, 4656, Note_on_c, 7, 50, 0
9, 4680, Note_on_c, 7, 50, 95
9, 4704, Note_on_c, 7, 50, 0
9, 4704, Note_on_c, 7, 55, 95
9, 4716, Note_on_c, 7, 55, 0
9, 4716, Note_on_c, 7, 62, 95
9, 4728, Note_on_c, 7, 62, 0
9, 4728, Note_on_c, 7, 60, 95
9, 4740, Note_on_c, 7, 60, 0
9, 4740, Note_on_c, 7, 62, 95
9, 4752, Note_on_c, 7, 62, 0
9, 4752, Note_on_c, 7, 59, 95
9, 4764, Note_on_c, 7, 59, 0
9, 4764, Note_on_c, 7, 62, 95
9, 4776, Note_on_c, 7, 62, 0
9, 4776, Note_on_c, 7, 55, 95
9, 4788, Note_on_c, 7, 55, 0
9, 4788, Note_on_c, 7, 59, 95
9, 4800, Note_on_c, 7, 59, 0
9, 4800, Note_on_c, 7, 52, 95
9, 4848, Note_on_c, 7, 52, 0
9, 4920, Note_on_c, 7, 52, 95
9, 4944, Note_on_c, 7, 52, 0
9, 4944, Note_on_c, 7, 57, 95
9, 4968, Note_on_c, 7, 57, 0
9, 4968, Note_on_c, 7, 45, 95
9, 4992, Note_on_c, 7, 45, 0
9, 4992, Note_on_c, 7, 38, 95
9, 5004, Note_on_c, 7, 38, 0
9, 5004, Note_on_c, 7, 50, 95
9, 5016, Note_on_c, 7, 50, 0
9, 5016, Note_on_c, 7, 48, 95
9, 5028, Note_on_c, 7, 48, 0
9, 5028, Note_on_c, 7, 50, 95
9, 5040, Note_on_c, 7, 50, 0
9, 5040, Note_on_c, 7, 47, 95
9, 5052, Note_on_c, 7, 47, 0
9, 5052, Note_on_c, 7, 50, 95
9, 5064, Note_on_c, 7, 50, 0
9, 5064, Note_on_c, 7, 45, 95
9, 5076, Note_on_c, 7, 45, 0
9, 5076, Note_on_c, 7, 50, 95
9, 5088, Note_on_c, 7, 50, 0
9, 5088, Note_on_c, 7, 43, 95
9, 5100, Note_on_c, 7, 43, 0
9, 5100, Note_on_c, 7, 50, 95
9, 5112, Note_on_c, 7, 50, 0
9, 5112, Note_on_c, 7, 42, 95
9, 5124, Note_on_c, 7, 42, 0
9, 5124, Note_on_c, 7, 50, 95
9, 5136, Note_on_c, 7, 50, 0
9, 5136, Note_on_c, 7, 40, 95
9, 5148, Note_on_c, 7, 40, 0
9, 5148, Note_on_c, 7, 50, 95
9, 5160, Note_on_c, 7, 50, 0
9, 5160, Note_on_c, 7, 38, 95
9, 5172, Note_on_c, 7, 38, 0
9, 5172, Note_on_c, 7, 50, 95
9, 5184, Note_on_c, 7, 50, 0
9, 5184, Note_on_c, 7, 47, 95
9, 5232, Note_on_c, 7, 47, 0
9, 5304, Note_on_c, 7, 47, 95
9, 5328, Note_on_c, 7, 47, 0
9, 5328, Note_on_c, 7, 52, 95
9, 5352, Note_on_c, 7, 52, 0
9, 5352, Note_on_c, 7, 40, 95
9, 5376, Note_on_c, 7, 40, 0
9, 5376, Program_c, 7, 16
9, 5376, Note_on_c, 7, 57, 47
9, 5400, Note_on_c, 7, 57, 0
9, 5400, Note_on_c, 7, 56, 47
9, 5424, Note_on_c, 7, 56, 0
9, 5424, Note_on_c, 7, 54, 47
9, 5448, Note_on_c, 7, 54, 0
9, 5448, Note_on_c, 7, 52, 47
9, 5472, Note_on_c, 7, 52, 0
9, 5472, Note_on_c, 7, 50, 47
9, 5496, Note_on_c, 7, 50, 0
9, 5496, Note_on_c, 7, 49, 47
9, 5520, Note_on_c, 7, 49, 0
9, 5520, Note_on_c, 7, 47, 47
9, 5544, Note_on_c, 7, 47, 0
9, 5544, Note_on_c, 7, 45, 47
9, 5568, Note_on_c, 7, 45, 0
9, 5568, Note_on_c, 7, 44, 47
9, 5592, Note_on_c, 7, 44, 0
9, 5592, Note_on_c, 7, 45, 47
9, 5616, Note_on_c, 7, 45, 0
9, 5616, Note_on_c, 7, 50, 47
9, 5640, Note_on_c, 7, 50, 0
9, 5640, Note_on_c, 7, 49, 47
9, 5664, Note_on_c, 7, 49, 0
9, 5664, Note_on_c, 7, 47, 47
9, 5688, Note_on_c, 7, 47, 0
9, 5688, Note_on_c, 7, 45, 47
9, 5712, Note_on_c, 7, 45, 0
9, 5712, Note_on_c, 7, 44, 47
9, 5736, Note_on_c, 7, 44, 0
9, 5736, Note_on_c, 7, 56, 47
9, 5760, Note_on_c, 7, 56, 0
9, 5760, Note_on_c, 7, 57, 47
9, 5784, Note_on_c, 7, 57, 0
9, 5784, Note_on_c, 7, 54, 47
9, 5808, Note_on_c, 7, 54, 0
9, 5808, Note_on_c, 7, 50, 47
9, 5832, Note_on_c, 7, 50, 0
9, 5832, Note_on_c, 7, 52, 47
9, 5856, Note_on_c, 7, 52, 0
9, 5856, Note_on_c, 7, 57, 47
9, 5880, Note_on_c, 7, 57, 0
9, 5880, Note_on_c, 7, 52, 47
9, 5904, Note_on_c, 7, 52, 0
9, 5904, Note_on_c, 7, 45, 47
9, 5928, Note_on_c, 7, 45, 0
9, 5928, Note_on_c, 7, 49, 47
9, 5952, Note_on_c, 7, 49, 0
9, 5952, Note_on_c, 7, 50, 47
9, 5976, Note_on_c, 7, 50, 0
9, 5976, Note_on_c, 7, 57, 47
9, 6000, Note_on_c, 7, 57, 0
9, 6000, Note_on_c, 7, 62, 47
9, 6024, Note_on_c, 7, 62, 0
9, 6024, Note_on_c, 7, 54, 47
9, 6048, Note_on_c, 7, 54, 0
9, 6048, Note_on_c, 7, 55, 47
9, 6072, Note_on_c, 7, 55, 0
9, 6072, Note_on_c, 7, 50, 47
9, 6096, Note_on_c, 7, 50, 0
9, 6096, Note_on_c, 7, 43, 47
9, 6120, Note_on_c, 7, 43, 0
9, 6120, Note_on_c, 7, 47, 47
9, 6144, Note_on_c, 7, 47, 0
9, 6144, Note_on_c, 7, 49, 47
9, 6168, Note_on_c, 7, 49, 0
9, 6168, Note_on_c, 7, 47, 47
9, 6192, Note_on_c, 7, 47, 0
9, 6192, Note_on_c, 7, 49, 47
9, 6216, Note_on_c, 7, 49, 0
9, 6216, Note_on_c, 7, 52, 47
9, 6240, Note_on_c, 7, 52, 0
9, 6240, Note_on_c, 7, 54, 47
9, 6264, Note_on_c, 7, 54, 0
9, 6264, Note_on_c, 7, 49, 47
9, 6288, Note_on_c, 7, 49, 0
9, 6288, Note_on_c, 7, 42, 47
9, 6312, Note_on_c, 7, 42, 0
9, 6312, Note_on_c, 7, 46, 47
9, 6336, Note_on_c, 7, 46, 0
9, 6336, Note_on_c, 7, 47, 47
9, 6360, Note_on_c, 7, 47, 0
9, 6360, Note_on_c, 7, 54, 47
9, 6384, Note_on_c, 7, 54, 0
9, 6384, Note_on_c, 7, 59, 47
9, 6408, Note_on_c, 7, 59, 0
9, 6408, Note_on_c, 7, 50, 47
9, 6432, Note_on_c, 7, 50, 0
9, 6432, Note_on_c, 7, 52, 47
9, 6456, Note_on_c, 7, 52, 0
9, 6456, Note_on_c, 7, 54, 47
9, 6480, Note_on_c, 7, 54, 0
9, 6480, Note_on_c, 7, 55, 47
9, 6504, Note_on_c, 7, 55, 0
9, 6504, Note_on_c, 7, 52, 47
9, 6528, Note_on_c, 7, 52, 0
9, 6528, Note_on_c, 7, 54, 47
9, 6552, Note_on_c, 7, 54, 0
9, 6552, Note_on_c, 7, 49, 47
9, 6576, Note_on_c, 7, 49, 0
9, 6576, Note_on_c, 7, 46, 47
9, 6600, Note_on_c, 7, 46, 0
9, 6600, Note_on_c, 7, 42, 47
9, 6624, Note_on_c, 7, 42, 0
9, 6624, Note_on_c, 7, 47, 47
9, 6636, Note_on_c, 7, 47, 0
9, 6636, Note_on_c, 7, 47, 47
9, 6648, Note_on_c, 7, 47, 0
9, 6648, Note_on_c, 7, 50, 47
9, 6660, Note_on_c, 7, 50, 0
9, 6660, Note_on_c, 7, 50, 47
9, 6672, Note_on_c, 7, 50, 0
9, 6672, Note_on_c, 7, 54, 47
9, 6684, Note_on_c, 7, 54, 0
9, 6684, Note_on_c, 7, 54, 47
9, 6696, Note_on_c, 7, 54, 0
9, 6696, Note_on_c, 7, 59, 47
9, 6708, Note_on_c, 7, 59, 0
9, 6708, Note_on_c, 7, 59, 47
9, 6720, Note_on_c, 7, 59, 0
9, 6720, Note_on_c, 7, 52, 47
9, 6744, Note_on_c, 7, 52, 0
9, 6744, Note_on_c, 7, 47, 47
9, 6768, Note_on_c, 7, 47, 0
9, 6768, Note_on_c, 7, 43, 47
9, 6792, Note_on_c, 7, 43, 0
9, 6792, Note_on_c, 7, 40, 47
9, 6816, Note_on_c, 7, 40, 0
9, 6816, Note_on_c, 7, 42, 47
9, 6828, Note_on_c, 7, 42, 0
9, 6828, Note_on_c, 7, 42, 47
9, 6840, Note_on_c, 7, 42, 0
9, 6840, Note_on_c, 7, 46, 47
9, 6852, Note_on_c, 7, 46, 0
9, 6852, Note_on_c, 7, 46, 47
9, 6864, Note_on_c, 7, 46, 0
9, 6864, Note_on_c, 7, 49, 47
9, 6876, Note_on_c, 7, 49, 0
9, 6876, Note_on_c, 7, 49, 47
9, 6888, Note_on_c, 7, 49, 0
9, 6888, Note_on_c, 7, 54, 47
9, 6900, Note_on_c, 7, 54, 0
9, 6900, Note_on_c, 7, 54, 47
9, 6912, Note_on_c, 7, 54, 0
9, 6912, Note_on_c, 7, 47, 47
9, 6924, Note_on_c, 7, 47, 0
9, 6924, Note_on_c, 7, 47, 47
9, 6936, Note_on_c, 7, 47, 0
9, 6936, Note_on_c, 7, 50, 47
9, 6948, Note_on_c, 7, 50, 0
9, 6948, Note_on_c, 7, 50, 47
9, 6960, Note_on_c, 7, 50, 0
9, 6960, Note_on_c, 7, 54, 47
9, 6972, Note_on_c, 7, 54, 0
9, 6972, Note_on_c, 7, 54, 47
9, 6984, Note_on_c, 7, 54, 0
9, 6984, Note_on_c, 7, 59, 47
9, 6996, Note_on_c, 7, 59, 0
9, 6996, Note_on_c, 7, 59, 47
9, 7008, Note_on_c, 7, 59, 0
9, 7008, Note_on_c, 7, 52, 47
9, 7020, Note_on_c, 7, 52, 0
9, 7020, Note_on_c, 7, 52, 47
9, 7032, Note_on_c, 7, 52, 0
9, 7032, Note_on_c, 7, 55, 47
9, 7044, Note_on_c, 7, 55, 0
9, 7044, Note_on_c, 7, 55, 47
9, 7056, Note_on_c, 7, 55, 0
9, 7056, Note_on_c, 7, 59, 47
9, 7068, Note_on_c, 7, 59, 0
9, 7068, Note_on_c, 7, 59, 47
9, 7080, Note_on_c, 7, 59, 0
9, 7080, Note_on_c, 7, 64, 47
9, 7092, Note_on_c, 7, 64, 0
9, 7092, Note_on_c, 7, 64, 47
9, 7104, Note_on_c, 7, 64, 0
9, 7104, Note_on_c, 7, 54, 47
9, 7152, Note_on_c, 7, 54, 0
9, 7176, Note_on_c, 7, 54, 47
9, 7200, Note_on_c, 7, 54, 0
9, 7200, Note_on_c, 7, 47, 47
9, 7224, Note_on_c, 7, 47, 0
9, 7224, Note_on_c, 7, 49, 47
9, 7248, Note_on_c, 7, 49, 0
9, 7248, Note_on_c, 7, 50, 47
9, 7272, Note_on_c, 7, 50, 0
9, 7272, Note_on_c, 7, 52, 47
9, 7296, Note_on_c, 7, 52, 0
9, 7296, Note_on_c, 7, 54, 47
9, 7320, Note_on_c, 7, 54, 0
9, 7320, Note_on_c, 7, 52, 47
9, 7344, Note_on_c, 7, 52, 0
9, 7344, Note_on_c, 7, 54, 47
9, 7368, Note_on_c, 7, 54, 0
9, 7368, Note_on_c, 7, 42, 47
9, 7392, Note_on_c, 7, 42, 0
9, 7392, Note_on_c, 7, 47, 47
9, 7440, Note_on_c, 7, 47, 0
9, 7464, Note_on_c, 7, 50, 47
9, 7488, Note_on_c, 7, 50, 0
9, 7488, Note_on_c, 7, 62, 47
9, 7512, Note_on_c, 7, 62, 0
9, 7512, Note_on_c, 7, 61, 47
9, 7536, Note_on_c, 7, 61, 0
9, 7536, Note_on_c, 7, 59, 47
9, 7560, Note_on_c, 7, 59, 0
9, 7560, Note_on_c, 7, 57, 47
9, 7584, Note_on_c, 7, 57, 0
9, 7584, Note_on_c, 7, 55, 47
9, 7608, Note_on_c, 7, 55, 0
9, 7608, Note_on_c, 7, 54, 47
9, 7632, Note_on_c, 7, 54, 0
9, 7632, Note_on_c, 7, 52, 47
9, 7656, Note_on_c, 7, 52, 0
9, 7656, Note_on_c, 7, 50, 47
9, 7680, Note_on_c, 7, 50, 0
9, 7680, Note_on_c, 7, 49, 47
9, 7704, Note_on_c, 7, 49, 0
9, 7704, Note_on_c, 7, 47, 47
9, 7728, Note_on_c, 7, 47, 0
9, 7728, Note_on_c, 7, 47, 47
9, 7752, Note_on_c, 7, 47, 0
9, 7752, Note_on_c, 7, 46, 47
9, 7776, Note_on_c, 7, 46, 0
9, 7776, Note_on_c, 7, 47, 47
9, 7800, Note_on_c, 7, 47, 0
9, 7800, Note_on_c, 7, 43, 47
9, 7824, Note_on_c, 7, 43, 0
9, 7824, Note_on_c, 7, 40, 47
9, 7848, Note_on_c, 7, 40, 0
9, 7848, Note_on_c, 7, 42, 47
9, 7872, Note_on_c, 7, 42, 0
9, 7872, Program_c, 7, 18
9, 7872, Note_on_c, 7, 47, 95
9, 7896, Note_on_c, 7, 47, 0
9, 7896, Note_on_c, 7, 62, 95
9, 7920, Note_on_c, 7, 62, 0
9, 7920, Note_on_c, 7, 61, 95
9, 7928, Note_on_c, 7, 61, 0
9, 7928, Note_on_c, 7, 62, 95
9, 7936, Note_on_c, 7, 62, 0
9, 7936, Note_on_c, 7, 61, 95
9, 7944, Note_on_c, 7, 61, 0
9, 7944, Note_on_c, 7, 59, 95
9, 7952, Note_on_c, 7, 59, 0
9, 7952, Note_on_c, 7, 61, 95
9, 7960, Note_on_c, 7, 61, 0
9, 7960, Note_on_c, 7, 59, 95
9, 7968, Note_on_c, 7, 59, 0
9, 7968, Note_on_c, 7, 58, 95
9, 7992, Note_on_c, 7, 58, 0
9, 8172, Note_on_c, 7, 54, 95
9, 8184, Note_on_c, 7, 54, 0
9, 8184, Note_on_c, 7, 52, 95
9, 8196, Note_on_c, 7, 52, 0
9, 8196, Note_on_c, 7, 54, 95
9, 8208, Note_on_c, 7, 54, 0
9, 8208, Note_on_c, 7, 50, 95
9, 8220, Note_on_c, 7, 50, 0
9, 8220, Note_on_c, 7, 54, 95
9, 8232, Note_on_c, 7, 54, 0
9, 8232, Note_on_c, 7, 49, 95
9, 8244, Note_on_c, 7, 49, 0
9, 8244, Note_on_c, 7, 54, 95
9, 8256, Note_on_c, 7, 54, 0
9, 8256, Note_on_c, 7, 47, 95
9, 8268, Note_on_c, 7, 47, 0
9, 8268, Note_on_c, 7, 54, 95
9, 8280, Note_on_c, 7, 54, 0
9, 8280, Note_on_c, 7, 45, 95
9, 8292, Note_on_c, 7, 45, 0
9, 8292, Note_on_c, 7, 54, 95
9, 8304, Note_on_c, 7, 54, 0
9, 8304, Note_on_c, 7, 43, 95
9, 8316, Note_on_c, 7, 43, 0
9, 8316, Note_on_c, 7, 54, 95
9, 8328, Note_on_c, 7, 54, 0
9, 8328, Note_on_c, 7, 42, 95
9, 8340, Note_on_c, 7, 42, 0
9, 8340, Note_on_c, 7, 54, 95
9, 8352, Note_on_c, 7, 54, 0
9, 8352, Note_on_c, 7, 40, 95
9, 8400, Note_on_c, 7, 40, 0
9, 8448, Note_on_c, 7, 45, 95
9, 8496, Note_on_c, 7, 45, 0
9, 8652, Note_on_c, 7, 57, 95
9, 8664, Note_on_c, 7, 57, 0
9, 8664, Note_on_c, 7, 55, 95
9, 8676, Note_on_c, 7, 55, 0
9, 8676, Note_on_c, 7, 57, 95
9, 8688, Note_on_c, 7, 57, 0
9, 8688, Note_on_c, 7, 54, 95
9, 8700, Note_on_c, 7, 54, 0
9, 8700, Note_on_c, 7, 57, 95
9, 8712, Note_on_c, 7, 57, 0
9, 8712, Note_on_c, 7, 52, 95
9, 8724, Note_on_c, 7, 52, 0
9, 8724, Note_on_c, 7, 57, 95
9, 8736, Note_on_c, 7, 57, 0
9, 8736, Note_on_c, 7, 50, 95
9, 8748, Note_on_c, 7, 50, 0
9, 8748, Note_on_c, 7, 57, 95
9, 8760, Note_on_c, 7, 57, 0
9, 8760, Note_on_c, 7, 48, 95
9, 8772, Note_on_c, 7, 48, 0
9, 8772, Note_on_c, 7, 57, 95
9, 8784, Note_on_c, 7, 57, 0
9, 8784, Note_on_c, 7, 47, 95
9, 8796, Note_on_c, 7, 47, 0
9, 8796, Note_on_c, 7, 57, 95
9, 8808, Note_on_c, 7, 57, 0
9, 8808, Note_on_c, 7, 45, 95
9, 8820, Note_on_c, 7, 45, 0
9, 8820, Note_on_c, 7, 57, 95
9, 8832, Note_on_c, 7, 57, 0
9, 8832, Note_on_c, 7, 43, 95
9, 8856, Note_on_c, 7, 43, 0
9, 9420, Note_on_c, 7, 57, 95
9, 9432, Note_on_c, 7, 57, 0
9, 9432, Note_on_c, 7, 55, 95
9, 9444, Note_on_c, 7, 55, 0
9, 9444, Note_on_c, 7, 57, 95
9, 9456, Note_on_c, 7, 57, 0
9, 9456, Note_on_c, 7, 54, 95
9, 9468, Note_on_c, 7, 54, 0
9, 9468, Note_on_c, 7, 57, 95
9, 9480, Note_on_c, 7, 57, 0
9, 9480, Note_on_c, 7, 52, 95
9, 9492, Note_on_c, 7, 52, 0
9, 9492, Note_on_c, 7, 57, 95
9, 9504, Note_on_c, 7, 57, 0
9, 9504, Note_on_c, 7, 50, 95
9, 9552, Note_on_c, 7, 50, 0
9, 9576, Note_on_c, 7, 38, 95
9, 9600, Note_on_c, 7, 38, 0
9, 9600, Note_on_c, 7, 43, 95
9, 9612, Note_on_c, 7, 43, 0
9, 9612, Note_on_c, 7, 50, 95
9, 9624, Note_on_c, 7, 50, 0
9, 9624, Note_on_c, 7, 48, 95
9, 9636, Note_on_c, 7, 48, 0
9, 9636, Note_on_c, 7, 50, 95
9, 9648, Note_on_c, 7, 50, 0
9, 9648, Note_on_c, 7, 47, 95
9, 9660, Note_on_c, 7, 47, 0
9, 9660, Note_on_c, 7, 50, 95
9, 9672, Note_on_c, 7, 50, 0
9, 9672, Note_on_c, 7, 43, 95
9, 9684, Note_on_c, 7, 43, 0
9, 9684, Note_on_c, 7, 47, 95
9, 9696, Note_on_c, 7, 47, 0
9, 9696, Note_on_c, 7, 40, 95
9, 9744, Note_on_c, 7, 40, 0
9, 9816, Note_on_c, 7, 45, 95
9, 9840, Note_on_c, 7, 45, 0
9, 9840, Note_on_c, 7, 50, 95
9, 9864, Note_on_c, 7, 50, 0
9, 9864, Note_on_c, 7, 42, 95
9, 9888, Note_on_c, 7, 42, 0
9, 9888, Note_on_c, 7, 47, 95
9, 9936, Note_on_c, 7, 47, 0
9, 9960, Note_on_c, 7, 47, 95
9, 9984, Note_on_c, 7, 47, 0
9, 9984, Note_on_c, 7, 52, 95
9, 9996, Note_on_c, 7, 52, 0
9, 9996, Note_on_c, 7, 59, 95
9, 10008, Note_on_c, 7, 59, 0
9, 10008, Note_on_c, 7, 57, 95
9, 10020, Note_on_c, 7, 57, 0
9, 10020, Note_on_c, 7, 59, 95
9, 10032, Note_on_c, 7, 59, 0
9, 10032, Note_on_c, 7, 55, 95
9, 10044, Note_on_c, 7, 55, 0
9, 10044, Note_on_c, 7, 59, 95
9, 10056, Note_on_c, 7, 59, 0
9, 10056, Note_on_c, 7, 52, 95
9, 10068, Note_on_c, 7, 52, 0
9, 10068, Note_on_c, 7, 55, 95
9, 10080, Note_on_c, 7, 55, 0
9, 10080, Note_on_c, 7, 49, 95
9, 10128, Note_on_c, 7, 49, 0
9, 10200, Note_on_c, 7, 50, 95
9, 10224, Note_on_c, 7, 50, 0
9, 10224, Note_on_c, 7, 59, 95
9, 10248, Note_on_c, 7, 59, 0
9, 10248, Note_on_c, 7, 47, 95
9, 10272, Note_on_c, 7, 47, 0
9, 10272, Note_on_c, 7, 55, 95
9, 10320, Note_on_c, 7, 55, 0
9, 10344, Note_on_c, 7, 43, 95
9, 10368, Note_on_c, 7, 43, 0
9, 10368, Note_on_c, 7, 48, 95
9, 10380, Note_on_c, 7, 48, 0
9, 10380, Note_on_c, 7, 55, 95
9, 10392, Note_on_c, 7, 55, 0
9, 10392, Note_on_c, 7, 53, 95
9, 10404, Note_on_c, 7, 53, 0
9, 10404, Note_on_c, 7, 55, 95
9, 10416, Note_on_c, 7, 55, 0
9, 10416, Note_on_c, 7, 52, 95
9, 10428, Note_on_c, 7, 52, 0
9, 10428, Note_on_c, 7, 55, 95
9, 10440, Note_on_c, 7, 55, 0
9, 10440, Note_on_c, 7, 48, 95
9, 10452, Note_on_c, 7, 48, 0
9, 10452, Note_on_c, 7, 52, 95
9, 10464, Note_on_c, 7, 52, 0
9, 10464, Note_on_c, 7, 45, 95
9, 10512, Note_on_c, 7, 45, 0
9, 10584, Note_on_c, 7, 45, 95
9, 10608, Note_on_c, 7, 45, 0
9, 10608, Note_on_c, 7, 47, 95
9, 10632, Note_on_c, 7, 47, 0
9, 10632, Note_on_c, 7, 38, 95
9, 10656, Note_on_c, 7, 38, 0
9, 10656, Note_on_c, 7, 43, 95
9, 10668, Note_on_c, 7, 43, 0
9, 10668, Note_on_c, 7, 55, 95
9, 10680, Note_on_c, 7, 55, 0
9, 10680, Note_on_c, 7, 54, 95
9, 10692, Note_on_c, 7, 54, 0
9, 10692, Note_on_c, 7, 55, 95
9, 10704, Note_on_c, 7, 55, 0
9, 10704, Note_on_c, 7, 52, 95
9, 10716, Note_on_c, 7, 52, 0
9, 10716, Note_on_c, 7, 55, 95
9, 10728, Note_on_c, 7, 55, 0
9, 10728, Note_on_c, 7, 50, 95
9, 10740, Note_on_c, 7, 50, 0
9, 10740, Note_on_c, 7, 55, 95
9, 10752, Note_on_c, 7, 55, 0
9, 10752, Note_on_c, 7, 48, 95
9, 10764, Note_on_c, 7, 48, 0
9, 10764, Note_on_c, 7, 55, 95
9, 10776, Note_on_c, 7, 55, 0
9, 10776, Note_on_c, 7, 47, 95
9, 10788, Note_on_c, 7, 47, 0
9, 10788, Note_on_c, 7, 55, 95
9, 10800, Note_on_c, 7, 55, 0
9, 10800, Note_on_c, 7, 45, 95
9, 10812, Note_on_c, 7, 45, 0
9, 10812, Note_on_c, 7, 55, 95
9, 10824, Note_on_c, 7, 55, 0
9, 10824, Note_on_c, 7, 43, 95
9, 10836, Note_on_c, 7, 43, 0
9, 10836, Note_on_c, 7, 55, 95
9, 10848, Note_on_c, 7, 55, 0
9, 10848, Note_on_c, 7, 52, 95
9, 10896, Note_on_c, 7, 52, 0
9, 10944, Program_c, 7, 16
9, 10968, Note_on_c, 7, 52, 95
9, 10992, Note_on_c, 7, 52, 0
9, 10992, Note_on_c, 7, 57, 95
9, 11016, Note_on_c, 7, 57, 0
9, 11016, Note_on_c, 7, 45, 95
9, 11040, Note_on_c, 7, 45, 0
9, 11040, Note_on_c, 7, 62, 95
9, 11060, Note_on_c, 7, 62, 0
9, 11064, Note_on_c, 7, 61, 95
9, 11084, Note_on_c, 7, 61, 0
9, 11088, Note_on_c, 7, 59, 95
9, 11108, Note_on_c, 7, 59, 0
9, 11112, Note_on_c, 7, 57, 95
9, 11132, Note_on_c, 7, 57, 0
9, 11136, Note_on_c, 7, 55, 95
9, 11156, Note_on_c, 7, 55, 0
9, 11160, Note_on_c, 7, 54, 95
9, 11180, Note_on_c, 7, 54, 0
9, 11184, Note_on_c, 7, 52, 95
9, 11204, Note_on_c, 7, 52, 0
9, 11208, Note_on_c, 7, 50, 95
9, 11228, Note_on_c, 7, 50, 0
9, 11232, Note_on_c, 7, 49, 95
9, 11252, Note_on_c, 7, 49, 0
9, 11256, Note_on_c, 7, 50, 95
9, 11276, Note_on_c, 7, 50, 0
9, 11280, Note_on_c, 7, 55, 95
9, 11300, Note_on_c, 7, 55, 0
9, 11304, Note_on_c, 7, 54, 95
9, 11324, Note_on_c, 7, 54, 0
9, 11328, Note_on_c, 7, 52, 95
9, 11348, Note_on_c, 7, 52, 0
9, 11352, Note_on_c, 7, 50, 95
9, 11372, Note_on_c, 7, 50, 0
9, 11376, Note_on_c, 7, 49, 95
9, 11396, Note_on_c, 7, 49, 0
9, 11400, Note_on_c, 7, 45, 95
9, 11420, Note_on_c, 7, 45, 0
9, 11424, Note_on_c, 7, 50, 95
9, 11444, Note_on_c, 7, 50, 0
9, 11448, Note_on_c, 7, 47, 95
9, 11468, Note_on_c, 7, 47, 0
9, 11472, Note_on_c, 7, 43, 95
9, 11492, Note_on_c, 7, 43, 0
9, 11496, Note_on_c, 7, 45, 95
9, 11516, Note_on_c, 7, 45, 0
9, 11520, Program_c, 7, 18
9, 11520, Note_on_c, 7, 42, 79
9, 11540, Note_on_c, 7, 42, 0
9, 11544, Note_on_c, 7, 43, 79
9, 11564, Note_on_c, 7, 43, 0
9, 11592, Note_on_c, 7, 43, 79
9, 11612, Note_on_c, 7, 43, 0
9, 11616, Note_on_c, 7, 44, 79
9, 11636, Note_on_c, 7, 44, 0
9, 11640, Note_on_c, 7, 45, 79
9, 11660, Note_on_c, 7, 45, 0
9, 11688, Note_on_c, 7, 45, 79
9, 11708, Note_on_c, 7, 45, 0
9, 11712, Note_on_c, 7, 46, 79
9, 11732, Note_on_c, 7, 46, 0
9, 11736, Note_on_c, 7, 47, 79
9, 11756, Note_on_c, 7, 47, 0
9, 11760, Note_on_c, 7, 49, 79
9, 11770, Note_on_c, 7, 49, 0
9, 11772, Note_on_c, 7, 57, 79
9, 11782, Note_on_c, 7, 57, 0
9, 11784, Note_on_c, 7, 59, 79
9, 11794, Note_on_c, 7, 59, 0
9, 11796, Note_on_c, 7, 61, 79
9, 11806, Note_on_c, 7, 61, 0
9, 11808, Note_on_c, 7, 62, 79
9, 11828, Note_on_c, 7, 62, 0
9, 11832, Note_on_c, 7, 61, 79
9, 11852, Note_on_c, 7, 61, 0
9, 11856, Note_on_c, 7, 59, 79
9, 11876, Note_on_c, 7, 59, 0
9, 11880, Note_on_c, 7, 57, 79
9, 11900, Note_on_c, 7, 57, 0
9, 11904, Note_on_c, 7, 55, 79
9, 11944, Note_on_c, 7, 55, 0
9, 11976, Note_on_c, 7, 54, 79
9, 11996, Note_on_c, 7, 54, 0
9, 12000, Note_on_c, 7, 52, 79
9, 12020, Note_on_c, 7, 52, 0
9, 12024, Note_on_c, 7, 50, 79
9, 12044, Note_on_c, 7, 50, 0
9, 12048, Note_on_c, 7, 49, 79
9, 12068, Note_on_c, 7, 49, 0
9, 12072, Note_on_c, 7, 50, 79
9, 12092, Note_on_c, 7, 50, 0
9, 12096, Note_on_c, 7, 47, 79
9, 12116, Note_on_c, 7, 47, 0
9, 12120, Note_on_c, 7, 45, 79
9, 12140, Note_on_c, 7, 45, 0
9, 12144, Note_on_c, 7, 52, 79
9, 12164, Note_on_c, 7, 52, 0
9, 12168, Note_on_c, 7, 50, 79
9, 12188, Note_on_c, 7, 50, 0
9, 12192, Note_on_c, 7, 49, 79
9, 12212, Note_on_c, 7, 49, 0
9, 12216, Note_on_c, 7, 50, 79
9, 12236, Note_on_c, 7, 50, 0
9, 12264, Note_on_c, 7, 50, 79
9, 12284, Note_on_c, 7, 50, 0
9, 12288, Note_on_c, 7, 51, 79
9, 12308, Note_on_c, 7, 51, 0
9, 12312, Note_on_c, 7, 52, 79
9, 12332, Note_on_c, 7, 52, 0
9, 12360, Note_on_c, 7, 52, 79
9, 12380, Note_on_c, 7, 52, 0
9, 12384, Note_on_c, 7, 53, 79
9, 12404, Note_on_c, 7, 53, 0
9, 12408, Note_on_c, 7, 54, 79
9, 12428, Note_on_c, 7, 54, 0
9, 12432, Note_on_c, 7, 56, 79
9, 12442, Note_on_c, 7, 56, 0
9, 12444, Note_on_c, 7, 52, 79
9, 12454, Note_on_c, 7, 52, 0
9, 12456, Note_on_c, 7, 54, 79
9, 12466, Note_on_c, 7, 54, 0
9, 12468, Note_on_c, 7, 56, 79
9, 12478, Note_on_c, 7, 56, 0
9, 12480, Note_on_c, 7, 57, 79
9, 12500, Note_on_c, 7, 57, 0
9, 12504, Note_on_c, 7, 56, 79
9, 12524, Note_on_c, 7, 56, 0
9, 12528, Note_on_c, 7, 54, 79
9, 12548, Note_on_c, 7, 54, 0
9, 12552, Note_on_c, 7, 52, 79
9, 12572, Note_on_c, 7, 52, 0
9, 12576, Note_on_c, 7, 50, 79
9, 12616, Note_on_c, 7, 50, 0
9, 12648, Note_on_c, 7, 49, 79
9, 12668, Note_on_c, 7, 49, 0
9, 12672, Note_on_c, 7, 47, 79
9, 12692, Note_on_c, 7, 47, 0
9, 12696, Note_on_c, 7, 45, 79
9, 12716, Note_on_c, 7, 45, 0
9, 12720, Note_on_c, 7, 44, 79
9, 12740, Note_on_c, 7, 44, 0
9, 12744, Note_on_c, 7, 45, 79
9, 12764, Note_on_c, 7, 45, 0
9, 12768, Note_on_c, 7, 42, 79
9, 12788, Note_on_c, 7, 42, 0
9, 12792, Note_on_c, 7, 40, 79
9, 12812, Note_on_c, 7, 40, 0
9, 12816, Note_on_c, 7, 47, 79
9, 12836, Note_on_c, 7, 47, 0
9, 12840, Note_on_c, 7, 59, 79
9, 12860, Note_on_c, 7, 59, 0
9, 12864, Note_on_c, 7, 64, 79
9, 12884, Note_on_c, 7, 64, 0
9, 12888, Note_on_c, 7, 52, 79
9, 12908, Note_on_c, 7, 52, 0
9, 12912, Note_on_c, 7, 56, 79
9, 12932, Note_on_c, 7, 56, 0
9, 12936, Note_on_c, 7, 52, 79
9, 12956, Note_on_c, 7, 52, 0
9, 12984, Note_on_c, 7, 54, 79
9, 13004, Note_on_c, 7, 54, 0
9, 13008, Note_on_c, 7, 57, 79
9, 13028, Note_on_c, 7, 57, 0
9, 13032, Note_on_c, 7, 54, 79
9, 13052, Note_on_c, 7, 54, 0
9, 13080, Note_on_c, 7, 56, 79
9, 13100, Note_on_c, 7, 56, 0
9, 13104, Note_on_c, 7, 59, 79
9, 13124, Note_on_c, 7, 59, 0
9, 13128, Note_on_c, 7, 56, 79
9, 13148, Note_on_c, 7, 56, 0
9, 13176, Note_on_c, 7, 57, 79
9, 13196, Note_on_c, 7, 57, 0
9, 13200, Note_on_c, 7, 61, 79
9, 13220, Note_on_c, 7, 61, 0
9, 13224, Note_on_c, 7, 57, 79
9, 13244, Note_on_c, 7, 57, 0
9, 13272, Note_on_c, 7, 59, 79
9, 13292, Note_on_c, 7, 59, 0
9, 13296, Note_on_c, 7, 62, 79
9, 13316, Note_on_c, 7, 62, 0
9, 13320, Note_on_c, 7, 59, 79
9, 13340, Note_on_c, 7, 59, 0
9, 13368, Note_on_c, 7, 61, 79
9, 13388, Note_on_c, 7, 61, 0
9, 13392, Note_on_c, 7, 65, 79
9, 13412, Note_on_c, 7, 65, 0
9, 13416, Note_on_c, 7, 61, 79
9, 13436, Note_on_c, 7, 61, 0
9, 13440, Note_on_c, 7, 54, 63
9, 13460, Note_on_c, 7, 54, 0
9, 13464, Note_on_c, 7, 56, 63
9, 13484, Note_on_c, 7, 56, 0
9, 13488, Note_on_c, 7, 57, 63
9, 13508, Note_on_c, 7, 57, 0
9, 13512, Note_on_c, 7, 59, 63
9, 13532, Note_on_c, 7, 59, 0
9, 13536, Note_on_c, 7, 57, 63
9, 13556, Note_on_c, 7, 57, 0
9, 13560, Note_on_c, 7, 59, 63
9, 13580, Note_on_c, 7, 59, 0
9, 13584, Note_on_c, 7, 57, 63
9, 13604, Note_on_c, 7, 57, 0
9, 13608, Note_on_c, 7, 56, 63
9, 13628, Note_on_c, 7, 56, 0
9, 13632, Note_on_c, 7, 54, 63
9, 13652, Note_on_c, 7, 54, 0
9, 13656, Note_on_c, 7, 53, 63
9, 13676, Note_on_c, 7, 53, 0
9, 13680, Note_on_c, 7, 54, 63
9, 13700, Note_on_c, 7, 54, 0
9, 13704, Note_on_c, 7, 56, 63
9, 13724, Note_on_c, 7, 56, 0
9, 13728, Note_on_c, 7, 57, 63
9, 13748, Note_on_c, 7, 57, 0
9, 13752, Note_on_c, 7, 56, 63
9, 13772, Note_on_c, 7, 56, 0
9, 13776, Note_on_c, 7, 57, 63
9, 13796, Note_on_c, 7, 57, 0
9, 13800, Note_on_c, 7, 54, 63
9, 13820, Note_on_c, 7, 54, 0
9, 13824, Note_on_c, 7, 56, 63
9, 13844, Note_on_c, 7, 56, 0
9, 13848, Note_on_c, 7, 57, 63
9, 13868, Note_on_c, 7, 57, 0
9, 13872, Note_on_c, 7, 59, 63
9, 13892, Note_on_c, 7, 59, 0
9, 13896, Note_on_c, 7, 57, 63
9, 13916, Note_on_c, 7, 57, 0
9, 13920, Note_on_c, 7, 56, 63
9, 13940, Note_on_c, 7, 56, 0
9, 13944, Note_on_c, 7, 54, 63
9, 13964, Note_on_c, 7, 54, 0
9, 13968, Note_on_c, 7, 56, 63
9, 13988, Note_on_c, 7, 56, 0
9, 13992, Note_on_c, 7, 49, 63
9, 14012, Note_on_c, 7, 49, 0
9, 14016, Note_on_c, 7, 54, 63
9, 14036, Note_on_c, 7, 54, 0
9, 14040, Note_on_c, 7, 56, 63
9, 14060, Note_on_c, 7, 56, 0
9, 14064, Note_on_c, 7, 57, 63
9, 14084, Note_on_c, 7, 57, 0
9, 14088, Note_on_c, 7, 59, 63
9, 14108, Note_on_c, 7, 59, 0
9, 14112, Note_on_c, 7, 57, 63
9, 14132, Note_on_c, 7, 57, 0
9, 14136, Note_on_c, 7, 59, 63
9, 14156, Note_on_c, 7, 59, 0
9, 14160, Note_on_c, 7, 57, 63
9, 14180, Note_on_c, 7, 57, 0
9, 14184, Note_on_c, 7, 56, 63
9, 14204, Note_on_c, 7, 56, 0
9, 14208, Note_on_c, 7, 54, 63
9, 14228, Note_on_c, 7, 54, 0
9, 14232, Note_on_c, 7, 56, 63
9, 14252, Note_on_c, 7, 56, 0
9, 14256, Note_on_c, 7, 57, 63
9, 14276, Note_on_c, 7, 57, 0
9, 14280, Note_on_c, 7, 56, 63
9, 14300, Note_on_c, 7, 56, 0
9, 14304, Note_on_c, 7, 54, 63
9, 14324, Note_on_c, 7, 54, 0
9, 14328, Note_on_c, 7, 52, 63
9, 14348, Note_on_c, 7, 52, 0
9, 14352, Note_on_c, 7, 50, 63
9, 14372, Note_on_c, 7, 50, 0
9, 14376, Note_on_c, 7, 49, 63
9, 14396, Note_on_c, 7, 49, 0
9, 14400, Note_on_c, 7, 47, 63
9, 14420, Note_on_c, 7, 47, 0
9, 14424, Note_on_c, 7, 45, 63
9, 14444, Note_on_c, 7, 45, 0
9, 14448, Note_on_c, 7, 44, 63
9, 14468, Note_on_c, 7, 44, 0
9, 14472, Note_on_c, 7, 42, 63
9, 14492, Note_on_c, 7, 42, 0
9, 14496, Note_on_c, 7, 40, 63
9, 14516, Note_on_c, 7, 40, 0
9, 14520, Note_on_c, 7, 50, 63
9, 14540, Note_on_c, 7, 50, 0
9, 14544, Note_on_c, 7, 49, 63
9, 14564, Note_on_c, 7, 49, 0
9, 14568, Note_on_c, 7, 47, 63
9, 14588, Note_on_c, 7, 47, 0
9, 14592, Note_on_c, 7, 45, 63
9, 14612, Note_on_c, 7, 45, 0
9, 14616, Note_on_c, 7, 47, 63
9, 14636, Note_on_c, 7, 47, 0
9, 14640, Note_on_c, 7, 49, 63
9, 14660, Note_on_c, 7, 49, 0
9, 14664, Note_on_c, 7, 50, 63
9, 14684, Note_on_c, 7, 50, 0
9, 14688, Note_on_c, 7, 49, 63
9, 14708, Note_on_c, 7, 49, 0
9, 14712, Note_on_c, 7, 50, 63
9, 14732, Note_on_c, 7, 50, 0
9, 14736, Note_on_c, 7, 49, 63
9, 14756, Note_on_c, 7, 49, 0
9, 14760, Note_on_c, 7, 47, 63
9, 14780, Note_on_c, 7, 47, 0
9, 14784, Note_on_c, 7, 45, 63
9, 14804, Note_on_c, 7, 45, 0
9, 14808, Note_on_c, 7, 57, 63
9, 14828, Note_on_c, 7, 57, 0
9, 14832, Note_on_c, 7, 54, 63
9, 14852, Note_on_c, 7, 54, 0
9, 14856, Note_on_c, 7, 50, 63
9, 14876, Note_on_c, 7, 50, 0
9, 14880, Note_on_c, 7, 45, 63
9, 14900, Note_on_c, 7, 45, 0
9, 14904, Note_on_c, 7, 57, 63
9, 14924, Note_on_c, 7, 57, 0
9, 14928, Note_on_c, 7, 54, 63
9, 14948, Note_on_c, 7, 54, 0
9, 14952, Note_on_c, 7, 50, 63
9, 14972, Note_on_c, 7, 50, 0
9, 14976, Note_on_c, 7, 45, 63
9, 14996, Note_on_c, 7, 45, 0
9, 15000, Note_on_c, 7, 62, 63
9, 15020, Note_on_c, 7, 62, 0
9, 15024, Note_on_c, 7, 59, 63
9, 15044, Note_on_c, 7, 59, 0
9, 15048, Note_on_c, 7, 56, 63
9, 15068, Note_on_c, 7, 56, 0
9, 15072, Note_on_c, 7, 52, 63
9, 15092, Note_on_c, 7, 52, 0
9, 15096, Note_on_c, 7, 59, 63
9, 15116, Note_on_c, 7, 59, 0
9, 15120, Note_on_c, 7, 56, 63
9, 15140, Note_on_c, 7, 56, 0
9, 15144, Note_on_c, 7, 52, 63
9, 15164, Note_on_c, 7, 52, 0
9, 15168, Note_on_c, 7, 45, 63
9, 15208, Note_on_c, 7, 45, 0
9, 15360, Note_on_c, 7, 57, 63
9, 15380, Note_on_c, 7, 57, 0
9, 15384, Note_on_c, 7, 61, 63
9, 15404, Note_on_c, 7, 61, 0
9, 15408, Note_on_c, 7, 66, 63
9, 15428, Note_on_c, 7, 66, 0
9, 15432, Note_on_c, 7, 61, 63
9, 15452, Note_on_c, 7, 61, 0
9, 15456, Note_on_c, 7, 57, 63
9, 15476, Note_on_c, 7, 57, 0
9, 15480, Note_on_c, 7, 54, 63
9, 15500, Note_on_c, 7, 54, 0
9, 15504, Note_on_c, 7, 51, 63
9, 15524, Note_on_c, 7, 51, 0
9, 15528, Note_on_c, 7, 54, 63
9, 15548, Note_on_c, 7, 54, 0
9, 15552, Note_on_c, 7, 44, 63
9, 15592, Note_on_c, 7, 44, 0
9, 15744, Note_on_c, 7, 56, 63
9, 15764, Note_on_c, 7, 56, 0
9, 15768, Note_on_c, 7, 59, 63
9, 15788, Note_on_c, 7, 59, 0
9, 15792, Note_on_c, 7, 64, 63
9, 15812, Note_on_c, 7, 64, 0
9, 15816, Note_on_c, 7, 59, 63
9, 15836, Note_on_c, 7, 59, 0
9, 15840, Note_on_c, 7, 56, 63
9, 15860, Note_on_c, 7, 56, 0
9, 15864, Note_on_c, 7, 52, 63
9, 15884, Note_on_c, 7, 52, 0
9, 15888, Note_on_c, 7, 49, 63
9, 15908, Note_on_c, 7, 49, 0
9, 15912, Note_on_c, 7, 52, 63
9, 15932, Note_on_c, 7, 52, 0
9, 15936, Note_on_c, 7, 42, 63
9, 15976, Note_on_c, 7, 42, 0
9, 16128, Note_on_c, 7, 54, 63
9, 16148, Note_on_c, 7, 54, 0
9, 16152, Note_on_c, 7, 57, 63
9, 16172, Note_on_c, 7, 57, 0
9, 16176, Note_on_c, 7, 62, 63
9, 16196, Note_on_c, 7, 62, 0
9, 16200, Note_on_c, 7, 57, 63
9, 16220, Note_on_c, 7, 57, 0
9, 16224, Note_on_c, 7, 54, 63
9, 16244, Note_on_c, 7, 54, 0
9, 16248, Note_on_c, 7, 50, 63
9, 16268, Note_on_c, 7, 50, 0
9, 16272, Note_on_c, 7, 47, 63
9, 16292, Note_on_c, 7, 47, 0
9, 16296, Note_on_c, 7, 50, 63
9, 16316, Note_on_c, 7, 50, 0
9, 16320, Note_on_c, 7, 40, 63
9, 16360, Note_on_c, 7, 40, 0
9, 16512, Note_on_c, 7, 52, 63
9, 16532, Note_on_c, 7, 52, 0
9, 16536, Note_on_c, 7, 56, 63
9, 16556, Note_on_c, 7, 56, 0
9, 16560, Note_on_c, 7, 61, 63
9, 16580, Note_on_c, 7, 61, 0
9, 16584, Note_on_c, 7, 56, 63
9, 16604, Note_on_c, 7, 56, 0
9, 16608, Note_on_c, 7, 52, 63
9, 16628, Note_on_c, 7, 52, 0
9, 16632, Note_on_c, 7, 49, 63
9, 16652, Note_on_c, 7, 49, 0
9, 16656, Note_on_c, 7, 45, 63
9, 16676, Note_on_c, 7, 45, 0
9, 16680, Note_on_c, 7, 49, 63
9, 16700, Note_on_c, 7, 49, 0
9, 16704, Note_on_c, 7, 38, 63
9, 16744, Note_on_c, 7, 38, 0
9, 16896, Note_on_c, 7, 50, 63
9, 16916, Note_on_c, 7, 50, 0
9, 16920, Note_on_c, 7, 54, 63
9, 16940, Note_on_c, 7, 54, 0
9, 16944, Note_on_c, 7, 59, 63
9, 16964, Note_on_c, 7, 59, 0
9, 16968, Note_on_c, 7, 54, 63
9, 16988, Note_on_c, 7, 54, 0
9, 16992, Note_on_c, 7, 50, 63
9, 17012, Note_on_c, 7, 50, 0
9, 17016, Note_on_c, 7, 47, 63
9, 17036, Note_on_c, 7, 47, 0
9, 17040, Note_on_c, 7, 44, 63
9, 17060, Note_on_c, 7, 44, 0
9, 17064, Note_on_c, 7, 47, 63
9, 17084, Note_on_c, 7, 47, 0
9, 17088, Note_on_c, 7, 37, 63
9, 17128, Note_on_c, 7, 37, 0
9, 17280, Note_on_c, 7, 49, 63
9, 17300, Note_on_c, 7, 49, 0
9, 17304, Note_on_c, 7, 52, 63
9, 17324, Note_on_c, 7, 52, 0
9, 17328, Note_on_c, 7, 57, 63
9, 17348, Note_on_c, 7, 57, 0
9, 17352, Note_on_c, 7, 52, 63
9, 17372, Note_on_c, 7, 52, 0
9, 17376, Note_on_c, 7, 49, 63
9, 17396, Note_on_c, 7, 49, 0
9, 17400, Note_on_c, 7, 45, 63
9, 17420, Note_on_c, 7, 45, 0
9, 17424, Note_on_c, 7, 42, 63
9, 17444, Note_on_c, 7, 42, 0
9, 17448, Note_on_c, 7, 45, 63
9, 17468, Note_on_c, 7, 45, 0
9, 17472, Note_on_c, 7, 47, 63
9, 17512, Note_on_c, 7, 47, 0
9, 17664, Note_on_c, 7, 40, 63
9, 17684, Note_on_c, 7, 40, 0
9, 17688, Note_on_c, 7, 59, 63
9, 17708, Note_on_c, 7, 59, 0
9, 17712, Note_on_c, 7, 56, 63
9, 17732, Note_on_c, 7, 56, 0
9, 17736, Note_on_c, 7, 52, 63
9, 17756, Note_on_c, 7, 52, 0
9, 17760, Note_on_c, 7, 47, 63
9, 17780, Note_on_c, 7, 47, 0
9, 17784, Note_on_c, 7, 52, 63
9, 17804, Note_on_c, 7, 52, 0
9, 17808, Note_on_c, 7, 47, 63
9, 17828, Note_on_c, 7, 47, 0
9, 17832, Note_on_c, 7, 44, 63
9, 17852, Note_on_c, 7, 44, 0
9, 17856, Note_on_c, 7, 40, 63
9, 17876, Note_on_c, 7, 40, 0
9, 17880, Note_on_c, 7, 57, 63
9, 17900, Note_on_c, 7, 57, 0
9, 17904, Note_on_c, 7, 52, 63
9, 17924, Note_on_c, 7, 52, 0
9, 17928, Note_on_c, 7, 49, 63
9, 17948, Note_on_c, 7, 49, 0
9, 17952, Note_on_c, 7, 45, 63
9, 17972, Note_on_c, 7, 45, 0
9, 17976, Note_on_c, 7, 52, 63
9, 17996, Note_on_c, 7, 52, 0
9, 18000, Note_on_c, 7, 49, 63
9, 18020, Note_on_c, 7, 49, 0
9, 18024, Note_on_c, 7, 45, 63
9, 18044, Note_on_c, 7, 45, 0
9, 18048, Note_on_c, 7, 40, 63
9, 18068, Note_on_c, 7, 40, 0
9, 18072, Note_on_c, 7, 56, 63
9, 18092, Note_on_c, 7, 56, 0
9, 18096, Note_on_c, 7, 52, 63
9, 18116, Note_on_c, 7, 52, 0
9, 18120, Note_on_c, 7, 47, 63
9, 18140, Note_on_c, 7, 47, 0
9, 18144, Note_on_c, 7, 44, 63
9, 18164, Note_on_c, 7, 44, 0
9, 18168, Note_on_c, 7, 52, 63
9, 18188, Note_on_c, 7, 52, 0
9, 18192, Note_on_c, 7, 47, 63
9, 18212, Note_on_c, 7, 47, 0
9, 18216, Note_on_c, 7, 44, 63
9, 18236, Note_on_c, 7, 44, 0
9, 18240, Note_on_c, 7, 40, 63
9, 18260, Note_on_c, 7, 40, 0
9, 18264, Note_on_c, 7, 57, 63
9, 18284, Note_on_c, 7, 57, 0
9, 18288, Note_on_c, 7, 54, 63
9, 18308, Note_on_c, 7, 54, 0
9, 18312, Note_on_c, 7, 51, 63
9, 18332, Note_on_c, 7, 51, 0
9, 18336, Note_on_c, 7, 48, 63
9, 18356, Note_on_c, 7, 48, 0
9, 18360, Note_on_c, 7, 51, 63
9, 18380, Note_on_c, 7, 51, 0
9, 18384, Note_on_c, 7, 48, 63
9, 18404, Note_on_c, 7, 48, 0
9, 18408, Note_on_c, 7, 45, 63
9, 18428, Note_on_c, 7, 45, 0
9, 18432, Note_on_c, 7, 40, 63
9, 18452, Note_on_c, 7, 40, 0
9, 18456, Note_on_c, 7, 59, 63
9, 18476, Note_on_c, 7, 59, 0
9, 18480, Note_on_c, 7, 56, 63
9, 18500, Note_on_c, 7, 56, 0
9, 18504, Note_on_c, 7, 53, 63
9, 18524, Note_on_c, 7, 53, 0
9, 18528, Note_on_c, 7, 50, 63
9, 18548, Note_on_c, 7, 50, 0
9, 18552, Note_on_c, 7, 53, 63
9, 18572, Note_on_c, 7, 53, 0
9, 18576, Note_on_c, 7, 50, 63
9, 18596, Note_on_c, 7, 50, 0
9, 18600, Note_on_c, 7, 47, 63
9, 18620, Note_on_c, 7, 47, 0
9, 18624, Note_on_c, 7, 40, 63
9, 18644, Note_on_c, 7, 40, 0
9, 18648, Note_on_c, 7, 60, 63
9, 18668, Note_on_c, 7, 60, 0
9, 18672, Note_on_c, 7, 57, 63
9, 18692, Note_on_c, 7, 57, 0
9, 18696, Note_on_c, 7, 52, 63
9, 18716, Note_on_c, 7, 52, 0
9, 18720, Note_on_c, 7, 48, 63
9, 18740, Note_on_c, 7, 48, 0
9, 18744, Note_on_c, 7, 52, 63
9, 18764, Note_on_c, 7, 52, 0
9, 18768, Note_on_c, 7, 48, 63
9, 18788, Note_on_c, 7, 48, 0
9, 18792, Note_on_c, 7, 45, 63
9, 18812, Note_on_c, 7, 45, 0
9, 18816, Note_on_c, 7, 40, 63
9, 18836, Note_on_c, 7, 40, 0
9, 18840, Note_on_c, 7, 62, 63
9, 18860, Note_on_c, 7, 62, 0
9, 18864, Note_on_c, 7, 59, 63
9, 18884, Note_on_c, 7, 59, 0
9, 18888, Note_on_c, 7, 53, 63
9, 18908, Note_on_c, 7, 53, 0
9, 18912, Note_on_c, 7, 50, 63
9, 18932, Note_on_c, 7, 50, 0
9, 18936, Note_on_c, 7, 53, 63
9, 18956, Note_on_c, 7, 53, 0
9, 18960, Note_on_c, 7, 50, 63
9, 18980, Note_on_c, 7, 50, 0
9, 18984, Note_on_c, 7, 47, 63
9, 19004, Note_on_c, 7, 47, 0
9, 19008, Note_on_c, 7, 40, 63
9, 19028, Note_on_c, 7, 40, 0
9, 19032, Note_on_c, 7, 64, 63
9, 19052, Note_on_c, 7, 64, 0
9, 19056, Note_on_c, 7, 59, 63
9, 19076, Note_on_c, 7, 59, 0
9, 19080, Note_on_c, 7, 56, 63
9, 19100, Note_on_c, 7, 56, 0
9, 19104, Note_on_c, 7, 52, 63
9, 19124, Note_on_c, 7, 52, 0
9, 19128, Note_on_c, 7, 47, 63
9, 19148, Note_on_c, 7, 47, 0
9, 19152, Note_on_c, 7, 44, 63
9, 19172, Note_on_c, 7, 44, 0
9, 19176, Note_on_c, 7, 40, 63
9, 19196, Note_on_c, 7, 40, 0
9, 19200, Program_c, 7, 16
9, 19200, Note_on_c, 7, 45, 79
9, 19240, Note_on_c, 7, 45, 0
9, 19272, Note_on_c, 7, 45, 79
9, 19292, Note_on_c, 7, 45, 0
9, 19296, Note_on_c, 7, 52, 79
9, 19316, Note_on_c, 7, 52, 0
9, 19320, Note_on_c, 7, 54, 79
9, 19340, Note_on_c, 7, 54, 0
9, 19344, Note_on_c, 7, 56, 79
9, 19364, Note_on_c, 7, 56, 0
9, 19368, Note_on_c, 7, 52, 79
9, 19388, Note_on_c, 7, 52, 0
9, 19392, Note_on_c, 7, 49, 79
9, 19412, Note_on_c, 7, 49, 0
9, 19416, Note_on_c, 7, 47, 79
9, 19436, Note_on_c, 7, 47, 0
9, 19440, Note_on_c, 7, 49, 79
9, 19460, Note_on_c, 7, 49, 0
9, 19464, Note_on_c, 7, 45, 79
9, 19484, Note_on_c, 7, 45, 0
9, 19488, Note_on_c, 7, 52, 79
9, 19508, Note_on_c, 7, 52, 0
9, 19512, Note_on_c, 7, 50, 79
9, 19532, Note_on_c, 7, 50, 0
9, 19536, Program_c, 7, 18
9, 19536, Note_on_c, 7, 49, 79
9, 19556, Note_on_c, 7, 49, 0
9, 19560, Note_on_c, 7, 50, 79
9, 19570, Note_on_c, 7, 50, 0
9, 19572, Note_on_c, 7, 52, 79
9, 19582, Note_on_c, 7, 52, 0
9, 19584, Note_on_c, 7, 54, 79
9, 19604, Note_on_c, 7, 54, 0
9, 19608, Note_on_c, 7, 56, 79
9, 19618, Note_on_c, 7, 56, 0
9, 19620, Note_on_c, 7, 57, 79
9, 19630, Note_on_c, 7, 57, 0
9, 19632, Note_on_c, 7, 59, 79
9, 19652, Note_on_c, 7, 59, 0
9, 19656, Note_on_c, 7, 47, 79
9, 19676, Note_on_c, 7, 47, 0
9, 19680, Note_on_c, 7, 52, 79
9, 19700, Note_on_c, 7, 52, 0
9, 19704, Note_on_c, 7, 54, 79
9, 19714, Note_on_c, 7, 54, 0
9, 19716, Note_on_c, 7, 56, 79
9, 19726, Note_on_c, 7, 56, 0
9, 19728, Note_on_c, 7, 57, 79
9, 19748, Note_on_c, 7, 57, 0
9, 19752, Note_on_c, 7, 45, 79
9, 19772, Note_on_c, 7, 45, 0
9, 19776, Note_on_c, 7, 50, 79
9, 19796, Note_on_c, 7, 50, 0
9, 19800, Note_on_c, 7, 52, 79
9, 19810, Note_on_c, 7, 52, 0
9, 19812, Note_on_c, 7, 54, 79
9, 19822, Note_on_c, 7, 54, 0
9, 19824, Note_on_c, 7, 44, 79
9, 19844, Note_on_c, 7, 44, 0
9, 19848, Note_on_c, 7, 56, 79
9, 19868, Note_on_c, 7, 56, 0
9, 19872, Note_on_c, 7, 49, 79
9, 19892, Note_on_c, 7, 49, 0
9, 19896, Note_on_c, 7, 50, 79
9, 19906, Note_on_c, 7, 50, 0
9, 19908, Note_on_c, 7, 52, 79
9, 19918, Note_on_c, 7, 52, 0
9, 19920, Note_on_c, 7, 42, 79
9, 19940, Note_on_c, 7, 42, 0
9, 19944, Note_on_c, 7, 54, 79
9, 19964, Note_on_c, 7, 54, 0
9, 19968, Note_on_c, 7, 47, 79
9, 19988, Note_on_c, 7, 47, 0
9, 19992, Note_on_c, 7, 45, 79
9, 20012, Note_on_c, 7, 45, 0
9, 20016, Note_on_c, 7, 47, 79
9, 20036, Note_on_c, 7, 47, 0
9, 20040, Note_on_c, 7, 52, 79
9, 20060, Note_on_c, 7, 52, 0
9, 20064, Note_on_c, 7, 45, 79
9, 20084, Note_on_c, 7, 45, 0
9, 20088, Note_on_c, 7, 57, 79
9, 20108, Note_on_c, 7, 57, 0
9, 20124, Note_on_c, 7, 54, 79
9, 20134, Note_on_c, 7, 54, 0
9, 20136, Note_on_c, 7, 55, 79
9, 20146, Note_on_c, 7, 55, 0
9, 20148, Note_on_c, 7, 57, 79
9, 20158, Note_on_c, 7, 57, 0
9, 20160, Note_on_c, 7, 59, 79
9, 20180, Note_on_c, 7, 59, 0
9, 20184, Note_on_c, 7, 57, 79
9, 20204, Note_on_c, 7, 57, 0
9, 20208, Note_on_c, 7, 59, 79
9, 20228, Note_on_c, 7, 59, 0
9, 20232, Note_on_c, 7, 55, 79
9, 20252, Note_on_c, 7, 55, 0
9, 20256, Note_on_c, 7, 57, 79
9, 20276, Note_on_c, 7, 57, 0
9, 20280, Note_on_c, 7, 55, 79
9, 20300, Note_on_c, 7, 55, 0
9, 20304, Note_on_c, 7, 57, 79
9, 20324, Note_on_c, 7, 57, 0
9, 20328, Note_on_c, 7, 50, 79
9, 20348, Note_on_c, 7, 50, 0
9, 20352, Note_on_c, 7, 55, 79
9, 20372, Note_on_c, 7, 55, 0
9, 20376, Note_on_c, 7, 54, 79
9, 20396, Note_on_c, 7, 54, 0
9, 20400, Note_on_c, 7, 55, 79
9, 20420, Note_on_c, 7, 55, 0
9, 20424, Note_on_c, 7, 49, 79
9, 20444, Note_on_c, 7, 49, 0
9, 20448, Note_on_c, 7, 54, 79
9, 20468, Note_on_c, 7, 54, 0
9, 20472, Note_on_c, 7, 52, 79
9, 20492, Note_on_c, 7, 52, 0
9, 20496, Note_on_c, 7, 54, 79
9, 20516, Note_on_c, 7, 54, 0
9, 20520, Note_on_c, 7, 47, 79
9, 20540, Note_on_c, 7, 47, 0
9, 20544, Note_on_c, 7, 52, 79
9, 20564, Note_on_c, 7, 52, 0
9, 20568, Note_on_c, 7, 50, 79
9, 20588, Note_on_c, 7, 50, 0
9, 20592, Note_on_c, 7, 52, 79
9, 20612, Note_on_c, 7, 52, 0
9, 20616, Note_on_c, 7, 45, 79
9, 20636, Note_on_c, 7, 45, 0
9, 20640, Note_on_c, 7, 50, 79
9, 20660, Note_on_c, 7, 50, 0
9, 20664, Note_on_c, 7, 62, 79
9, 20684, Note_on_c, 7, 62, 0
9, 20712, Note_on_c, 7, 62, 79
9, 20732, Note_on_c, 7, 62, 0
9, 20736, Note_on_c, 7, 61, 79
9, 20756, Note_on_c, 7, 61, 0
9, 20760, Note_on_c, 7, 57, 79
9, 20780, Note_on_c, 7, 57, 0
9, 20808, Note_on_c, 7, 57, 79
9, 20828, Note_on_c, 7, 57, 0
9, 20832, Note_on_c, 7, 62, 79
9, 20842, Note_on_c, 7, 62, 0
9, 20844, Note_on_c, 7, 62, 79
9, 20854, Note_on_c, 7, 62, 0
9, 20856, Note_on_c, 7, 57, 79
9, 20866, Note_on_c, 7, 57, 0
9, 20868, Note_on_c, 7, 57, 79
9, 20878, Note_on_c, 7, 57, 0
9, 20880, Note_on_c, 7, 54, 79
9, 20890, Note_on_c, 7, 54, 0
9, 20892, Note_on_c, 7, 54, 79
9, 20902, Note_on_c, 7, 54, 0
9, 20904, Note_on_c, 7, 50, 79
9, 20914, Note_on_c, 7, 50, 0
9, 20916, Note_on_c, 7, 50, 79
9, 20926, Note_on_c, 7, 50, 0
9, 20928, Note_on_c, 7, 57, 79
9, 20938, Note_on_c, 7, 57, 0
9, 20940, Note_on_c, 7, 57, 79
9, 20950, Note_on_c, 7, 57, 0
9, 20952, Note_on_c, 7, 52, 79
9, 20962, Note_on_c, 7, 52, 0
9, 20964, Note_on_c, 7, 52, 79
9, 20974, Note_on_c, 7, 52, 0
9, 20976, Note_on_c, 7, 49, 79
9, 20986, Note_on_c, 7, 49, 0
9, 20988, Note_on_c, 7, 49, 79
9, 20998, Note_on_c, 7, 49, 0
9, 21000, Note_on_c, 7, 45, 79
9, 21010, Note_on_c, 7, 45, 0
9, 21012, Note_on_c, 7, 45, 79
9, 21022, Note_on_c, 7, 45, 0
9, 21024, Note_on_c, 7, 50, 79
9, 21064, Note_on_c, 7, 50, 0
9, 21228, Note_on_c, 7, 57, 79
9, 21238, Note_on_c, 7, 57, 0
9, 21240, Note_on_c, 7, 55, 79
9, 21250, Note_on_c, 7, 55, 0
9, 21252, Note_on_c, 7, 57, 79
9, 21262, Note_on_c, 7, 57, 0
9, 21264, Note_on_c, 7, 54, 79
9, 21274, Note_on_c, 7, 54, 0
9, 21276, Note_on_c, 7, 57, 79
9, 21286, Note_on_c, 7, 57, 0
9, 21288, Note_on_c, 7, 52, 79
9, 21298, Note_on_c, 7, 52, 0
9, 21300, Note_on_c, 7, 57, 79
9, 21310, Note_on_c, 7, 57, 0
9, 21312, Note_on_c, 7, 50, 79
9, 21332, Note_on_c, 7, 50, 0
9, 21336, Note_on_c, 7, 62, 79
9, 21346, Note_on_c, 7, 62, 0
9, 21348, Note_on_c, 7, 61, 79
9, 21358, Note_on_c, 7, 61, 0
9, 21360, Note_on_c, 7, 62, 79
9, 21380, Note_on_c, 7, 62, 0
9, 21384, Note_on_c, 7, 50, 79
9, 21404, Note_on_c, 7, 50, 0
9, 21408, Note_on_c, 7, 57, 79
9, 21428, Note_on_c, 7, 57, 0
9, 21432, Note_on_c, 7, 45, 79
9, 21452, Note_on_c, 7, 45, 0
9, 21456, Note_on_c, 7, 47, 79
9, 21476, Note_on_c, 7, 47, 0
9, 21480, Note_on_c, 7, 49, 79
9, 21500, Note_on_c, 7, 49, 0
9, 21504, Note_on_c, 7, 50, 79
9, 21544, Note_on_c, 7, 50, 0
9, 21708, Note_on_c, 7, 45, 79
9, 21718, Note_on_c, 7, 45, 0
9, 21720, Note_on_c, 7, 43, 79
9, 21730, Note_on_c, 7, 43, 0
9, 21732, Note_on_c, 7, 45, 79
9, 21742, Note_on_c, 7, 45, 0
9, 21744, Note_on_c, 7, 42, 79
9, 21754, Note_on_c, 7, 42, 0
9, 21756, Note_on_c, 7, 45, 79
9, 21766, Note_on_c, 7, 45, 0
9, 21768, Note_on_c, 7, 40, 79
9, 21778, Note_on_c, 7, 40, 0
9, 21780, Note_on_c, 7, 45, 79
9, 21790, Note_on_c, 7, 45, 0
9, 21792, Note_on_c, 7, 38, 79
9, 21812, Note_on_c, 7, 38, 0
9, 21816, Note_on_c, 7, 50, 79
9, 21826, Note_on_c, 7, 50, 0
9, 21828, Note_on_c, 7, 49, 79
9, 21838, Note_on_c, 7, 49, 0
9, 21840, Note_on_c, 7, 50, 79
9, 21860, Note_on_c, 7, 50, 0
9, 21864, Note_on_c, 7, 38, 79
9, 21884, Note_on_c, 7, 38, 0
9, 21888, Note_on_c, 7, 45, 79
9, 21908, Note_on_c, 7, 45, 0
9, 21912, Note_on_c, 7, 57, 79
9, 21932, Note_on_c, 7, 57, 0
9, 21936, Note_on_c, 7, 59, 79
9, 21956, Note_on_c, 7, 59, 0
9, 21960, Note_on_c, 7, 61, 79
9, 21980, Note_on_c, 7, 61, 0
9, 21984, Note_on_c, 7, 62, 79
9, 21994, Note_on_c, 7, 62, 0
9, 21996, Note_on_c, 7, 64, 79
9, 22006, Note_on_c, 7, 64, 0
9, 22008, Note_on_c, 7, 62, 79
9, 22018, Note_on_c, 7, 62, 0
9, 22020, Note_on_c, 7, 60, 79
9, 22030, Note_on_c, 7, 60, 0
9, 22032, Note_on_c, 7, 59, 79
9, 22042, Note_on_c, 7, 59, 0
9, 22044, Note_on_c, 7, 57, 79
9, 22054, Note_on_c, 7, 57, 0
9, 22056, Note_on_c, 7, 55, 79
9, 22066, Note_on_c, 7, 55, 0
9, 22068, Note_on_c, 7, 54, 79
9, 22078, Note_on_c, 7, 54, 0
9, 22080, Note_on_c, 7, 55, 79
9, 22090, Note_on_c, 7, 55, 0
9, 22092, Note_on_c, 7, 67, 79
9, 22102, Note_on_c, 7, 67, 0
9, 22104, Note_on_c, 7, 66, 79
9, 22114, Note_on_c, 7, 66, 0
9, 22116, Note_on_c, 7, 67, 79
9, 22126, Note_on_c, 7, 67, 0
9, 22128, Note_on_c, 7, 64, 79
9, 22138, Note_on_c, 7, 64, 0
9, 22140, Note_on_c, 7, 67, 79
9, 22150, Note_on_c, 7, 67, 0
9, 22152, Note_on_c, 7, 62, 79
9, 22162, Note_on_c, 7, 62, 0
9, 22164, Note_on_c, 7, 67, 79
9, 22174, Note_on_c, 7, 67, 0
9, 22176, Note_on_c, 7, 61, 79
9, 22186, Note_on_c, 7, 61, 0
9, 22188, Note_on_c, 7, 67, 79
9, 22198, Note_on_c, 7, 67, 0
9, 22200, Note_on_c, 7, 59, 79
9, 22210, Note_on_c, 7, 59, 0
9, 22212, Note_on_c, 7, 67, 79
9, 22222, Note_on_c, 7, 67, 0
9, 22224, Note_on_c, 7, 57, 79
9, 22234, Note_on_c, 7, 57, 0
9, 22236, Note_on_c, 7, 67, 79
9, 22246, Note_on_c, 7, 67, 0
9, 22248, Note_on_c, 7, 55, 79
9, 22258, Note_on_c, 7, 55, 0
9, 22260, Note_on_c, 7, 67, 79
9, 22270, Note_on_c, 7, 67, 0
9, 22272, Note_on_c, 7, 54, 79
9, 22282, Note_on_c, 7, 54, 0
9, 22284, Note_on_c, 7, 66, 79
9, 22294, Note_on_c, 7, 66, 0
9, 22296, Note_on_c, 7, 64, 79
9, 22306, Note_on_c, 7, 64, 0
9, 22308, Note_on_c, 7, 66, 79
9, 22318, Note_on_c, 7, 66, 0
9, 22320, Note_on_c, 7, 62, 79
9, 22330, Note_on_c, 7, 62, 0
9, 22332, Note_on_c, 7, 66, 79
9, 22342, Note_on_c, 7, 66, 0
9, 22344, Note_on_c, 7, 61, 79
9, 22354, Note_on_c, 7, 61, 0
9, 22356, Note_on_c, 7, 66, 79
9, 22366, Note_on_c, 7, 66, 0
9, 22368, Note_on_c, 7, 59, 79
9, 22378, Note_on_c, 7, 59, 0
9, 22380, Note_on_c, 7, 66, 79
9, 22390, Note_on_c, 7, 66, 0
9, 22392, Note_on_c, 7, 57, 79
9, 22402, Note_on_c, 7, 57, 0
9, 22404, Note_on_c, 7, 66, 79
9, 22414, Note_on_c, 7, 66, 0
9, 22416, Note_on_c, 7, 55, 79
9, 22426, Note_on_c, 7, 55, 0
9, 22428, Note_on_c, 7, 66, 79
9, 22438, Note_on_c, 7, 66, 0
9, 22440, Note_on_c, 7, 54, 79
9, 22450, Note_on_c, 7, 54, 0
9, 22452, Note_on_c, 7, 66, 79
9, 22462, Note_on_c, 7, 66, 0
9, 22464, Note_on_c, 7, 52, 79
9, 22474, Note_on_c, 7, 52, 0
9, 22476, Note_on_c, 7, 64, 79
9, 22486, Note_on_c, 7, 64, 0
9, 22488, Note_on_c, 7, 62, 79
9, 22498, Note_on_c, 7, 62, 0
9, 22500, Note_on_c, 7, 64, 79
9, 22510, Note_on_c, 7, 64, 0
9, 22512, Note_on_c, 7, 61, 79
9, 22522, Note_on_c, 7, 61, 0
9, 22524, Note_on_c, 7, 64, 79
9, 22534, Note_on_c, 7, 64, 0
9, 22536, Note_on_c, 7, 59, 79
9, 22546, Note_on_c, 7, 59, 0
9, 22548, Note_on_c, 7, 64, 79
9, 22558, Note_on_c, 7, 64, 0
9, 22560, Note_on_c, 7, 57, 79
9, 22570, Note_on_c, 7, 57, 0
9, 22572, Note_on_c, 7, 64, 79
9, 22582, Note_on_c, 7, 64, 0
9, 22584, Note_on_c, 7, 55, 79
9, 22594, Note_on_c, 7, 55, 0
9, 22596, Note_on_c, 7, 64, 79
9, 22606, Note_on_c, 7, 64, 0
9, 22608, Note_on_c, 7, 54, 79
9, 22618, Note_on_c, 7, 54, 0
9, 22620, Note_on_c, 7, 64, 79
9, 22630, Note_on_c, 7, 64, 0
9, 22632, Note_on_c, 7, 52, 79
9, 22642, Note_on_c, 7, 52, 0
9, 22644, Note_on_c, 7, 64, 79
9, 22654, Note_on_c, 7, 64, 0
9, 22656, Note_on_c, 7, 50, 79
9, 22666, Note_on_c, 7, 50, 0
9, 22668, Note_on_c, 7, 62, 79
9, 22678, Note_on_c, 7, 62, 0
9, 22680, Note_on_c, 7, 52, 79
9, 22690, Note_on_c, 7, 52, 0
9, 22692, Note_on_c, 7, 62, 79
9, 22702, Note_on_c, 7, 62, 0
9, 22704, Note_on_c, 7, 54, 79
9, 22714, Note_on_c, 7, 54, 0
9, 22716, Note_on_c, 7, 62, 79
9, 22726, Note_on_c, 7, 62, 0
9, 22728, Note_on_c, 7, 50, 79
9, 22738, Note_on_c, 7, 50, 0
9, 22740, Note_on_c, 7, 62, 79
9, 22750, Note_on_c, 7, 62, 0
9, 22752, Note_on_c, 7, 55, 79
9, 22762, Note_on_c, 7, 55, 0
9, 22764, Note_on_c, 7, 62, 79
9, 22774, Note_on_c, 7, 62, 0
9, 22776, Note_on_c, 7, 57, 79
9, 22786, Note_on_c, 7, 57, 0
9, 22788, Note_on_c, 7, 62, 79
9, 22798, Note_on_c, 7, 62, 0
9, 22800, Note_on_c, 7, 59, 79
9, 22810, Note_on_c, 7, 59, 0
9, 22812, Note_on_c, 7, 62, 79
9, 22822, Note_on_c, 7, 62, 0
9, 22824, Note_on_c, 7, 55, 79
9, 22834, Note_on_c, 7, 55, 0
9, 22836, Note_on_c, 7, 62, 79
9, 22846, Note_on_c, 7, 62, 0
9, 22848, Note_on_c, 7, 57, 79
9, 22868, Note_on_c, 7, 57, 0
9, 22872, Note_on_c, 7, 45, 79
9, 22892, Note_on_c, 7, 45, 0
9, 22908, Note_on_c, 7, 59, 79
9, 22918, Note_on_c, 7, 59, 0
9, 22920, Note_on_c, 7, 57, 79
9, 22930, Note_on_c, 7, 57, 0
9, 22932, Note_on_c, 7, 55, 79
9, 22942, Note_on_c, 7, 55, 0
9, 22944, Note_on_c, 7, 54, 79
9, 22964, Note_on_c, 7, 54, 0
9, 22968, Note_on_c, 7, 55, 79
9, 22988, Note_on_c, 7, 55, 0
9, 22992, Note_on_c, 7, 57, 79
9, 23012, Note_on_c, 7, 57, 0
9, 23016, Note_on_c, 7, 45, 79
9, 23036, Note_on_c, 7, 45, 0
9, 23040, Program_c, 7, 16
9, 23040, Note_on_c, 7, 50, 79
9, 23080, Note_on_c, 7, 50, 0
9, 23112, Note_on_c, 7, 50, 79
9, 23132, Note_on_c, 7, 50, 0
9, 23136, Note_on_c, 7, 57, 79
9, 23156, Note_on_c, 7, 57, 0
9, 23160, Note_on_c, 7, 59, 79
9, 23180, Note_on_c, 7, 59, 0
9, 23184, Note_on_c, 7, 61, 79
9, 23204, Note_on_c, 7, 61, 0
9, 23208, Note_on_c, 7, 57, 79
9, 23228, Note_on_c, 7, 57, 0
9, 23232, Note_on_c, 7, 54, 79
9, 23252, Note_on_c, 7, 54, 0
9, 23256, Note_on_c, 7, 52, 79
9, 23276, Note_on_c, 7, 52, 0
9, 23280, Note_on_c, 7, 54, 79
9, 23300, Note_on_c, 7, 54, 0
9, 23304, Note_on_c, 7, 50, 79
9, 23324, Note_on_c, 7, 50, 0
9, 23328, Note_on_c, 7, 57, 79
9, 23348, Note_on_c, 7, 57, 0
9, 23352, Note_on_c, 7, 59, 79
9, 23372, Note_on_c, 7, 59, 0
9, 23376, Note_on_c, 7, 61, 79
9, 23396, Note_on_c, 7, 61, 0
9, 23400, Note_on_c, 7, 57, 79
9, 23420, Note_on_c, 7, 57, 0
9, 23424, Note_on_c, 7, 62, 79
9, 23444, Note_on_c, 7, 62, 0
9, 23448, Note_on_c, 7, 61, 79
9, 23468, Note_on_c, 7, 61, 0
9, 23472, Note_on_c, 7, 59, 79
9, 23492, Note_on_c, 7, 59, 0
9, 23496, Note_on_c, 7, 57, 79
9, 23516, Note_on_c, 7, 57, 0
9, 23520, Note_on_c, 7, 55, 79
9, 23540, Note_on_c, 7, 55, 0
9, 23544, Note_on_c, 7, 54, 79
9, 23564, Note_on_c, 7, 54, 0
9, 23568, Note_on_c, 7, 52, 79
9, 23588, Note_on_c, 7, 52, 0
9, 23592, Note_on_c, 7, 50, 79
9, 23612, Note_on_c, 7, 50, 0
9, 23616, Note_on_c, 7, 49, 79
9, 23636, Note_on_c, 7, 49, 0
9, 23640, Note_on_c, 7, 50, 79
9, 23660, Note_on_c, 7, 50, 0
9, 23664, Note_on_c, 7, 43, 79
9, 23684, Note_on_c, 7, 43, 0
9, 23688, Note_on_c, 7, 42, 79
9, 23708, Note_on_c, 7, 42, 0
9, 23712, Note_on_c, 7, 40, 79
9, 23732, Note_on_c, 7, 40, 0
9, 23736, Note_on_c, 7, 38, 79
9, 23756, Note_on_c, 7, 38, 0
9, 23760, Note_on_c, 7, 37, 79
9, 23780, Note_on_c, 7, 37, 0
9, 23784, Note_on_c, 7, 49, 79
9, 23804, Note_on_c, 7, 49, 0
9, 23808, Note_on_c, 7, 50, 79
9, 23828, Note_on_c, 7, 50, 0
9, 23832, Note_on_c, 7, 47, 79
9, 23852, Note_on_c, 7, 47, 0
9, 23856, Note_on_c, 7, 43, 79
9, 23876, Note_on_c, 7, 43, 0
9, 23880, Note_on_c, 7, 45, 79
9, 23900, Note_on_c, 7, 45, 0
9, 23904, Note_on_c, 7, 36, 79
9, 23904, Note_on_c, 7, 48, 79
9, 23944, Note_on_c, 7, 36, 0
9, 23944, Note_on_c, 7, 48, 0
9, 23952, Program_c, 7, 18
9, 23976, Note_on_c, 7, 48, 79
9, 23996, Note_on_c, 7, 48, 0
9, 24000, Note_on_c, 7, 49, 79
9, 24020, Note_on_c, 7, 49, 0
9, 24024, Note_on_c, 7, 50, 79
9, 24044, Note_on_c, 7, 50, 0
9, 24072, Note_on_c, 7, 50, 79
9, 24092, Note_on_c, 7, 50, 0
9, 24096, Note_on_c, 7, 51, 79
9, 24116, Note_on_c, 7, 51, 0
9, 24120, Note_on_c, 7, 52, 79
9, 24140, Note_on_c, 7, 52, 0
9, 24144, Note_on_c, 7, 54, 79
9, 24154, Note_on_c, 7, 54, 0
9, 24156, Note_on_c, 7, 50, 79
9, 24166, Note_on_c, 7, 50, 0
9, 24168, Note_on_c, 7, 52, 79
9, 24178, Note_on_c, 7, 52, 0
9, 24180, Note_on_c, 7, 54, 79
9, 24190, Note_on_c, 7, 54, 0
9, 24192, Note_on_c, 7, 55, 79
9, 24212, Note_on_c, 7, 55, 0
9, 24216, Note_on_c, 7, 54, 79
9, 24236, Note_on_c, 7, 54, 0
9, 24240, Note_on_c, 7, 52, 79
9, 24260, Note_on_c, 7, 52, 0
9, 24264, Note_on_c, 7, 50, 79
9, 24284, Note_on_c, 7, 50, 0
9, 24288, Note_on_c, 7, 48, 79
9, 24328, Note_on_c, 7, 48, 0
9, 24360, Note_on_c, 7, 47, 79
9, 24380, Note_on_c, 7, 47, 0
9, 24384, Note_on_c, 7, 45, 79
9, 24404, Note_on_c, 7, 45, 0
9, 24408, Note_on_c, 7, 43, 79
9, 24428, Note_on_c, 7, 43, 0
9, 24432, Note_on_c, 7, 42, 79
9, 24452, Note_on_c, 7, 42, 0
9, 24456, Note_on_c, 7, 43, 79
9, 24476, Note_on_c, 7, 43, 0
9, 24480, Note_on_c, 7, 40, 79
9, 24500, Note_on_c, 7, 40, 0
9, 24504, Note_on_c, 7, 38, 79
9, 24524, Note_on_c, 7, 38, 0
9, 24528, Note_on_c, 7, 45, 79
9, 24548, Note_on_c, 7, 45, 0
9, 24552, Note_on_c, 7, 43, 79
9, 24572, Note_on_c, 7, 43, 0
9, 24576, Note_on_c, 7, 42, 79
9, 24596, Note_on_c, 7, 42, 0
9, 24600, Note_on_c, 7, 43, 79
9, 24620, Note_on_c, 7, 43, 0
9, 24648, Note_on_c, 7, 43, 79
9, 24668, Note_on_c, 7, 43, 0
9, 24672, Note_on_c, 7, 44, 79
9, 24692, Note_on_c, 7, 44, 0
9, 24696, Note_on_c, 7, 45, 79
9, 24716, Note_on_c, 7, 45, 0
9, 24744, Note_on_c, 7, 45, 79
9, 24764, Note_on_c, 7, 45, 0
9, 24768, Note_on_c, 7, 46, 79
9, 24788, Note_on_c, 7, 46, 0
9, 24792, Note_on_c, 7, 47, 79
9, 24812, Note_on_c, 7, 47, 0
9, 24816, Note_on_c, 7, 49, 79
9, 24826, Note_on_c, 7, 49, 0
9, 24828, Note_on_c, 7, 45, 79
9, 24838, Note_on_c, 7, 45, 0
9, 24840, Note_on_c, 7, 47, 79
9, 24850, Note_on_c, 7, 47, 0
9, 24852, Note_on_c, 7, 49, 79
9, 24862, Note_on_c, 7, 49, 0
9, 24864, Note_on_c, 7, 50, 79
9, 24884, Note_on_c, 7, 50, 0
9, 24888, Note_on_c, 7, 49, 79
9, 24908, Note_on_c, 7, 49, 0
9, 24912, Note_on_c, 7, 47, 79
9, 24932, Note_on_c, 7, 47, 0
9, 24936, Note_on_c, 7, 45, 79
9, 24956, Note_on_c, 7, 45, 0
9, 24960, Note_on_c, 7, 43, 79
9, 25000, Note_on_c, 7, 43, 0
9, 25008, Note_on_c, 7, 54, 79
9, 25028, Note_on_c, 7, 54, 0
9, 25032, Note_on_c, 7, 52, 79
9, 25052, Note_on_c, 7, 52, 0
9, 25056, Note_on_c, 7, 50, 79
9, 25076, Note_on_c, 7, 50, 0
9, 25080, Note_on_c, 7, 49, 79
9, 25100, Note_on_c, 7, 49, 0
9, 25104, Note_on_c, 7, 50, 79
9, 25124, Note_on_c, 7, 50, 0
9, 25152, Note_on_c, 7, 47, 79
9, 25172, Note_on_c, 7, 47, 0
9, 25176, Note_on_c, 7, 45, 79
9, 25196, Note_on_c, 7, 45, 0
9, 25200, Note_on_c, 7, 52, 79
9, 25220, Note_on_c, 7, 52, 0
9, 25224, Note_on_c, 7, 50, 79
9, 25244, Note_on_c, 7, 50, 0
9, 25248, Note_on_c, 7, 49, 79
9, 25268, Note_on_c, 7, 49, 0
9, 25272, Note_on_c, 7, 45, 79
9, 25292, Note_on_c, 7, 45, 0
9, 25296, Note_on_c, 7, 50, 79
9, 25316, Note_on_c, 7, 50, 0
9, 25320, Note_on_c, 7, 38, 79
9, 25340, Note_on_c, 7, 38, 0
9, 25344, Note_on_c, 7, 43, 79
9, 25364, Note_on_c, 7, 43, 0
9, 25416, Note_on_c, 7, 55, 79
9, 25436, Note_on_c, 7, 55, 0
9, 25440, Note_on_c, 7, 54, 79
9, 25460, Note_on_c, 7, 54, 0
9, 25512, Note_on_c, 7, 47, 79
9, 25532, Note_on_c, 7, 47, 0
9, 25536, Note_on_c, 7, 52, 79
9, 25556, Note_on_c, 7, 52, 0
9, 25608, Note_on_c, 7, 45, 79
9, 25628, Note_on_c, 7, 45, 0
9, 25632, Note_on_c, 7, 50, 79
9, 25652, Note_on_c, 7, 50, 0
9, 25656, Note_on_c, 7, 62, 79
9, 25676, Note_on_c, 7, 62, 0
9, 25704, Note_on_c, 7, 62, 79
9, 25724, Note_on_c, 7, 62, 0
9, 25728, Note_on_c, 7, 61, 79
9, 25748, Note_on_c, 7, 61, 0
9, 25752, Note_on_c, 7, 57, 79
9, 25772, Note_on_c, 7, 57, 0
9, 25800, Note_on_c, 7, 57, 79
9, 25820, Note_on_c, 7, 57, 0
9, 25824, Note_on_c, 7, 54, 79
9, 25844, Note_on_c, 7, 54, 0
9, 25848, Note_on_c, 7, 50, 79
9, 25868, Note_on_c, 7, 50, 0
9, 25896, Note_on_c, 7, 50, 79
9, 25916, Note_on_c, 7, 50, 0
9, 25920, Note_on_c, 7, 47, 79
9, 25940, Note_on_c, 7, 47, 0
9, 25944, Note_on_c, 7, 52, 79
9, 25964, Note_on_c, 7, 52, 0
9, 25968, Note_on_c, 7, 50, 79
9, 25988, Note_on_c, 7, 50, 0
9, 25992, Note_on_c, 7, 52, 79
9, 26012, Note_on_c, 7, 52, 0
9, 26016, Note_on_c, 7, 45, 79
9, 26036, Note_on_c, 7, 45, 0
9, 26040, Note_on_c, 7, 57, 79
9, 26050, Note_on_c, 7, 57, 0
9, 26052, Note_on_c, 7, 59, 79
9, 26062, Note_on_c, 7, 59, 0
9, 26064, Note_on_c, 7, 61, 79
9, 26074, Note_on_c, 7, 61, 0
9, 26076, Note_on_c, 7, 62, 79
9, 26086, Note_on_c, 7, 62, 0
9, 26088, Note_on_c, 7, 64, 79
9, 26098, Note_on_c, 7, 64, 0
9, 26100, Note_on_c, 7, 61, 79
9, 26110, Note_on_c, 7, 61, 0
9, 26112, Program_c, 7, 16
9, 26112, Note_on_c, 7, 62, 79
9, 26132, Note_on_c, 7, 62, 0
9, 26136, Note_on_c, 7, 61, 79
9, 26156, Note_on_c, 7, 61, 0
9, 26160, Note_on_c, 7, 59, 79
9, 26180, Note_on_c, 7, 59, 0
9, 26184, Note_on_c, 7, 57, 79
9, 26204, Note_on_c, 7, 57, 0
9, 26208, Note_on_c, 7, 55, 79
9, 26228, Note_on_c, 7, 55, 0
9, 26232, Note_on_c, 7, 54, 79
9, 26252, Note_on_c, 7, 54, 0
9, 26256, Note_on_c, 7, 52, 79
9, 26276, Note_on_c, 7, 52, 0
9, 26280, Note_on_c, 7, 50, 79
9, 26300, Note_on_c, 7, 50, 0
9, 26304, Note_on_c, 7, 49, 79
9, 26324, Note_on_c, 7, 49, 0
9, 26328, Note_on_c, 7, 50, 79
9, 26348, Note_on_c, 7, 50, 0
9, 26352, Note_on_c, 7, 43, 79
9, 26372, Note_on_c, 7, 43, 0
9, 26376, Note_on_c, 7, 42, 79
9, 26396, Note_on_c, 7, 42, 0
9, 26400, Note_on_c, 7, 40, 79
9, 26420, Note_on_c, 7, 40, 0
9, 26424, Note_on_c, 7, 38, 79
9, 26444, Note_on_c, 7, 38, 0
9, 26448, Note_on_c, 7, 37, 79
9, 26468, Note_on_c, 7, 37, 0
9, 26472, Note_on_c, 7, 49, 79
9, 26492, Note_on_c, 7, 49, 0
9, 26496, Note_on_c, 7, 50, 79
9, 26516, Note_on_c, 7, 50, 0
9, 26520, Note_on_c, 7, 47, 79
9, 26540, Note_on_c, 7, 47, 0
9, 26544, Note_on_c, 7, 43, 79
9, 26564, Note_on_c, 7, 43, 0
9, 26568, Note_on_c, 7, 45, 79
9, 26588, Note_on_c, 7, 45, 0
9, 26592, Note_on_c, 7, 42, 79
9, 26597, Note_on_c, 7, 42, 0
9, 26598, Note_on_c, 7, 50, 79
9, 26603, Note_on_c, 7, 50, 0
9, 26604, Note_on_c, 7, 52, 79
9, 26609, Note_on_c, 7, 52, 0
9, 26610, Note_on_c, 7, 54, 79
9, 26615, Note_on_c, 7, 54, 0
9, 26616, Note_on_c, 7, 55, 79
9, 26621, Note_on_c, 7, 55, 0
9, 26622, Note_on_c, 7, 57, 79
9, 26627, Note_on_c, 7, 57, 0
9, 26628, Note_on_c, 7, 59, 79
9, 26633, Note_on_c, 7, 59, 0
9, 26634, Note_on_c, 7, 61, 79
9, 26639, Note_on_c, 7, 61, 0
9, 26736, Note_on_c, 7, 55, 95
9, 26741, Note_on_c, 7, 55, 0
9, 26742, Note_on_c, 7, 54, 95
9, 26747, Note_on_c, 7, 54, 0
9, 26748, Note_on_c, 7, 52, 95
9, 26753, Note_on_c, 7, 52, 0
9, 26754, Note_on_c, 7, 50, 95
9, 26759, Note_on_c, 7, 50, 0
9, 26760, Note_on_c, 7, 48, 95
9, 26765, Note_on_c, 7, 48, 0
9, 26766, Note_on_c, 7, 47, 95
9, 26771, Note_on_c, 7, 47, 0
9, 26772, Note_on_c, 7, 45, 95
9, 26777, Note_on_c, 7, 45, 0
9, 26778, Note_on_c, 7, 43, 95
9, 26783, Note_on_c, 7, 43, 0
9, 26784, Note_on_c, 7, 44, 95
9, 26789, Note_on_c, 7, 44, 0
9, 26790, Note_on_c, 7, 52, 95
9, 26795, Note_on_c, 7, 52, 0
9, 26796, Note_on_c, 7, 54, 95
9, 26801, Note_on_c, 7, 54, 0
9, 26802, Note_on_c, 7, 56, 95
9, 26807, Note_on_c, 7, 56, 0
9, 26808, Note_on_c, 7, 57, 95
9, 26813, Note_on_c, 7, 57, 0
9, 26814, Note_on_c, 7, 59, 95
9, 26819, Note_on_c, 7, 59, 0
9, 26820, Note_on_c, 7, 61, 95
9, 26825, Note_on_c, 7, 61, 0
9, 26826, Note_on_c, 7, 62, 95
9, 26831, Note_on_c, 7, 62, 0
9, 26928, Note_on_c, 7, 57, 95
9, 26933, Note_on_c, 7, 57, 0
9, 26934, Note_on_c, 7, 56, 95
9, 26939, Note_on_c, 7, 56, 0
9, 26940, Note_on_c, 7, 54, 95
9, 26945, Note_on_c, 7, 54, 0
9, 26946, Note_on_c, 7, 52, 95
9, 26951, Note_on_c, 7, 52, 0
9, 26952, Note_on_c, 7, 50, 95
9, 26957, Note_on_c, 7, 50, 0
9, 26958, Note_on_c, 7, 49, 95
9, 26963, Note_on_c, 7, 49, 0
9, 26964, Note_on_c, 7, 47, 95
9, 26969, Note_on_c, 7, 47, 0
9, 26970, Note_on_c, 7, 45, 95
9, 26975, Note_on_c, 7, 45, 0
9, 26976, Note_on_c, 7, 46, 95
9, 26981, Note_on_c, 7, 46, 0
9, 26982, Note_on_c, 7, 54, 95
9, 26987, Note_on_c, 7, 54, 0
9, 26988, Note_on_c, 7, 56, 95
9, 26993, Note_on_c, 7, 56, 0
9, 26994, Note_on_c, 7, 58, 95
9, 26999, Note_on_c, 7, 58, 0
9, 27000, Note_on_c, 7, 59, 95
9, 27005, Note_on_c, 7, 59, 0
9, 27006, Note_on_c, 7, 61, 95
9, 27011, Note_on_c, 7, 61, 0
9, 27012, Note_on_c, 7, 62, 95
9, 27017, Note_on_c, 7, 62, 0
9, 27018, Note_on_c, 7, 64, 95
9, 27023, Note_on_c, 7, 64, 0
9, 27120, Note_on_c, 7, 59, 95
9, 27125, Note_on_c, 7, 59, 0
9, 27126, Note_on_c, 7, 57, 95
9, 27131, Note_on_c, 7, 57, 0
9, 27132, Note_on_c, 7, 55, 95
9, 27137, Note_on_c, 7, 55, 0
9, 27138, Note_on_c, 7, 54, 95
9, 27143, Note_on_c, 7, 54, 0
9, 27144, Note_on_c, 7, 52, 95
9, 27149, Note_on_c, 7, 52, 0
9, 27150, Note_on_c, 7, 50, 95
9, 27155, Note_on_c, 7, 50, 0
9, 27156, Note_on_c, 7, 49, 95
9, 27161, Note_on_c, 7, 49, 0
9, 27162, Note_on_c, 7, 47, 95
9, 27167, Note_on_c, 7, 47, 0
9, 27168, Note_on_c, 7, 49, 95
9, 27173, Note_on_c, 7, 49, 0
9, 27174, Note_on_c, 7, 57, 95
9, 27179, Note_on_c, 7, 57, 0
9, 27180, Note_on_c, 7, 59, 95
9, 27185, Note_on_c, 7, 59, 0
9, 27186, Note_on_c, 7, 61, 95
9, 27191, Note_on_c, 7, 61, 0
9, 27192, Note_on_c, 7, 62, 95
9, 27197, Note_on_c, 7, 62, 0
9, 27198, Note_on_c, 7, 64, 95
9, 27203, Note_on_c, 7, 64, 0
9, 27204, Note_on_c, 7, 66, 95
9, 27209, Note_on_c, 7, 66, 0
9, 27210, Note_on_c, 7, 67, 95
9, 27215, Note_on_c, 7, 67, 0
9, 27654, Note_on_c, 7, 38, 95
9, 27659, Note_on_c, 7, 38, 0
9, 27660, Note_on_c, 7, 40, 95
9, 27665, Note_on_c, 7, 40, 0
9, 27666, Note_on_c, 7, 42, 95
9, 27671, Note_on_c, 7, 42, 0
9, 27672, Note_on_c, 7, 43, 95
9, 27677, Note_on_c, 7, 43, 0
9, 27678, Note_on_c, 7, 45, 95
9, 27683, Note_on_c, 7, 45, 0
9, 27684, Note_on_c, 7, 47, 95
9, 27689, Note_on_c, 7, 47, 0
9, 27690, Note_on_c, 7, 49, 95
9, 27695, Note_on_c, 7, 49, 0
9, 27696, Note_on_c, 7, 50, 95
9, 27701, Note_on_c, 7, 50, 0
9, 27702, Note_on_c, 7, 52, 95
9, 27707, Note_on_c, 7, 52, 0
9, 27708, Note_on_c, 7, 54, 95
9, 27713, Note_on_c, 7, 54, 0
9, 27714, Note_on_c, 7, 55, 95
9, 27719, Note_on_c, 7, 55, 0
9, 27720, Note_on_c, 7, 57, 95
9, 27725, Note_on_c, 7, 57, 0
9, 27726, Note_on_c, 7, 59, 95
9, 27731, Note_on_c, 7, 59, 0
9, 27732, Note_on_c, 7, 61, 95
9, 27737, Note_on_c, 7, 61, 0
9, 27738, Note_on_c, 7, 62, 95
9, 27743, Note_on_c, 7, 62, 0
9, 27744, Note_on_c, 7, 61, 95
9, 27749, Note_on_c, 7, 61, 0
9, 27750, Note_on_c, 7, 45, 95
9, 27755, Note_on_c, 7, 45, 0
9, 27756, Note_on_c, 7, 47, 95
9, 27761, Note_on_c, 7, 47, 0
9, 27762, Note_on_c, 7, 49, 95
9, 27767, Note_on_c, 7, 49, 0
9, 27768, Note_on_c, 7, 50, 95
9, 27773, Note_on_c, 7, 50, 0
9, 27774, Note_on_c, 7, 52, 95
9, 27779, Note_on_c, 7, 52, 0
9, 27780, Note_on_c, 7, 54, 95
9, 27785, Note_on_c, 7, 54, 0
9, 27786, Note_on_c, 7, 55, 95
9, 27791, Note_on_c, 7, 55, 0
9, 27792, Note_on_c, 7, 57, 95
9, 27797, Note_on_c, 7, 57, 0
9, 27798, Note_on_c, 7, 59, 95
9, 27803, Note_on_c, 7, 59, 0
9, 27804, Note_on_c, 7, 61, 95
9, 27809, Note_on_c, 7, 61, 0
9, 27810, Note_on_c, 7, 62, 95
9, 27815, Note_on_c, 7, 62, 0
9, 27816, Note_on_c, 7, 64, 95
9, 27821, Note_on_c, 7, 64, 0
9, 27822, Note_on_c, 7, 66, 95
9, 27827, Note_on_c, 7, 66, 0
9, 27828, Note_on_c, 7, 67, 95
9, 27833, Note_on_c, 7, 67, 0
9, 27834, Note_on_c, 7, 64, 95
9, 27839, Note_on_c, 7, 64, 0
9, 27840, Note_on_c, 7, 66, 95
9, 27845, Note_on_c, 7, 66, 0
9, 27846, Note_on_c, 7, 50, 95
9, 27851, Note_on_c, 7, 50, 0
9, 27852, Note_on_c, 7, 52, 95
9, 27857, Note_on_c, 7, 52, 0
9, 27858, Note_on_c, 7, 54, 95
9, 27863, Note_on_c, 7, 54, 0
9, 27864, Note_on_c, 7, 55, 95
9, 27869, Note_on_c, 7, 55, 0
9, 27870, Note_on_c, 7, 57, 95
9, 27875, Note_on_c, 7, 57, 0
9, 27876, Note_on_c, 7, 59, 95
9, 27881, Note_on_c, 7, 59, 0
9, 27882, Note_on_c, 7, 61, 95
9, 27887, Note_on_c, 7, 61, 0
9, 28032, Note_on_c, 7, 74, 79
9, 28048, Note_on_c, 7, 74, 0
9, 28056, Note_on_c, 7, 69, 79
9, 28072, Note_on_c, 7, 69, 0
9, 28080, Note_on_c, 7, 74, 79
9, 28096, Note_on_c, 7, 74, 0
9, 28104, Note_on_c, 7, 69, 79
9, 28120, Note_on_c, 7, 69, 0
9, 28128, Note_on_c, 7, 74, 79
9, 28144, Note_on_c, 7, 74, 0
9, 28152, Note_on_c, 7, 69, 79
9, 28168, Note_on_c, 7, 69, 0
9, 28176, Note_on_c, 7, 74, 79
9, 28192, Note_on_c, 7, 74, 0
9, 28200, Note_on_c, 7, 69, 79
9, 28216, Note_on_c, 7, 69, 0
9, 28224, Note_on_c, 7, 73, 79
9, 28240, Note_on_c, 7, 73, 0
9, 28248, Note_on_c, 7, 69, 79
9, 28264, Note_on_c, 7, 69, 0
9, 28272, Note_on_c, 7, 73, 79
9, 28288, Note_on_c, 7, 73, 0
9, 28296, Note_on_c, 7, 69, 79
9, 28312, Note_on_c, 7, 69, 0
9, 28320, Note_on_c, 7, 73, 79
9, 28336, Note_on_c, 7, 73, 0
9, 28344, Note_on_c, 7, 69, 79
9, 28360, Note_on_c, 7, 69, 0
9, 28368, Note_on_c, 7, 73, 79
9, 28384, Note_on_c, 7, 73, 0
9, 28392, Note_on_c, 7, 69, 79
9, 28408, Note_on_c, 7, 69, 0
9, 28416, Note_on_c, 7, 71, 79
9, 28432, Note_on_c, 7, 71, 0
9, 28440, Note_on_c, 7, 69, 79
9, 28456, Note_on_c, 7, 69, 0
9, 28464, Note_on_c, 7, 71, 79
9, 28480, Note_on_c, 7, 71, 0
9, 28488, Note_on_c, 7, 69, 79
9, 28504, Note_on_c, 7, 69, 0
9, 28512, Note_on_c, 7, 71, 79
9, 28528, Note_on_c, 7, 71, 0
9, 28536, Note_on_c, 7, 69, 79
9, 28552, Note_on_c, 7, 69, 0
9, 28560, Note_on_c, 7, 71, 79
9, 28576, Note_on_c, 7, 71, 0
9, 28584, Note_on_c, 7, 69, 79
9, 28600, Note_on_c, 7, 69, 0
9, 28608, Note_on_c, 7, 71, 79
9, 28624, Note_on_c, 7, 71, 0
9, 28632, Note_on_c, 7, 68, 79
9, 28648, Note_on_c, 7, 68, 0
9, 28656, Note_on_c, 7, 71, 79
9, 28672, Note_on_c, 7, 71, 0
9, 28680, Note_on_c, 7, 68, 79
9, 28696, Note_on_c, 7, 68, 0
9, 28704, Note_on_c, 7, 71, 79
9, 28720, Note_on_c, 7, 71, 0
9, 28728, Note_on_c, 7, 68, 79
9, 28744, Note_on_c, 7, 68, 0
9, 28752, Note_on_c, 7, 71, 79
9, 28768, Note_on_c, 7, 71, 0
9, 28776, Note_on_c, 7, 68, 79
9, 28792, Note_on_c, 7, 68, 0
9, 28800, Note_on_c, 7, 69, 79
9, 28804, Note_on_c, 7, 69, 0
9, 28842, Note_on_c, 7, 67, 79
9, 28846, Note_on_c, 7, 67, 0
9, 28848, Note_on_c, 7, 66, 79
9, 28852, Note_on_c, 7, 66, 0
9, 28890, Note_on_c, 7, 62, 79
9, 28894, Note_on_c, 7, 62, 0
9, 28896, Note_on_c, 7, 66, 79
9, 28900, Note_on_c, 7, 66, 0
9, 28938, Note_on_c, 7, 67, 79
9, 28942, Note_on_c, 7, 67, 0
9, 28944, Note_on_c, 7, 66, 79
9, 28948, Note_on_c, 7, 66, 0
9, 28986, Note_on_c, 7, 62, 79
9, 28990, Note_on_c, 7, 62, 0
9, 28992, Note_on_c, 7, 68, 79
9, 28996, Note_on_c, 7, 68, 0
9, 29034, Note_on_c, 7, 69, 79
9, 29038, Note_on_c, 7, 69, 0
9, 29040, Note_on_c, 7, 68, 79
9, 29044, Note_on_c, 7, 68, 0
9, 29082, Note_on_c, 7, 69, 79
9, 29086, Note_on_c, 7, 69, 0
9, 29088, Note_on_c, 7, 67, 79
9, 29092, Note_on_c, 7, 67, 0
9, 29130, Note_on_c, 7, 69, 79
9, 29134, Note_on_c, 7, 69, 0
9, 29136, Note_on_c, 7, 67, 79
9, 29140, Note_on_c, 7, 67, 0
9, 29178, Note_on_c, 7, 69, 79
9, 29182, Note_on_c, 7, 69, 0
9, 29184, Note_on_c, 7, 66, 79
9, 29188, Note_on_c, 7, 66, 0
9, 29226, Note_on_c, 7, 67, 79
9, 29230, Note_on_c, 7, 67, 0
9, 29232, Note_on_c, 7, 66, 79
9, 29236, Note_on_c, 7, 66, 0
9, 29274, Note_on_c, 7, 67, 79
9, 29278, Note_on_c, 7, 67, 0
9, 29280, Note_on_c, 7, 65, 79
9, 29284, Note_on_c, 7, 65, 0
9, 29322, Note_on_c, 7, 64, 79
9, 29326, Note_on_c, 7, 64, 0
9, 29328, Note_on_c, 7, 65, 79
9, 29332, Note_on_c, 7, 65, 0
9, 29370, Note_on_c, 7, 62, 79
9, 29374, Note_on_c, 7, 62, 0
9, 29376, Program_c, 7, 18
9, 29376, Note_on_c, 7, 64, 95
9, 29386, Note_on_c, 7, 64, 0
9, 29388, Note_on_c, 7, 69, 95
9, 29393, Note_on_c, 7, 69, 0
9, 29394, Note_on_c, 7, 67, 95
9, 29399, Note_on_c, 7, 67, 0
9, 29400, Note_on_c, 7, 66, 95
9, 29410, Note_on_c, 7, 66, 0
9, 29412, Note_on_c, 7, 69, 95
9, 29422, Note_on_c, 7, 69, 0
9, 29424, Note_on_c, 7, 64, 95
9, 29434, Note_on_c, 7, 64, 0
9, 29436, Note_on_c, 7, 69, 95
9, 29446, Note_on_c, 7, 69, 0
9, 29448, Note_on_c, 7, 62, 95
9, 29458, Note_on_c, 7, 62, 0
9, 29460, Note_on_c, 7, 69, 95
9, 29470, Note_on_c, 7, 69, 0
9, 29472, Note_on_c, 7, 61, 95
9, 29482, Note_on_c, 7, 61, 0
9, 29484, Note_on_c, 7, 69, 95
9, 29494, Note_on_c, 7, 69, 0
9, 29496, Note_on_c, 7, 62, 95
9, 29506, Note_on_c, 7, 62, 0
9, 29508, Note_on_c, 7, 69, 95
9, 29518, Note_on_c, 7, 69, 0
9, 29520, Note_on_c, 7, 61, 95
9, 29530, Note_on_c, 7, 61, 0
9, 29532, Note_on_c, 7, 69, 95
9, 29542, Note_on_c, 7, 69, 0
9, 29544, Note_on_c, 7, 59, 95
9, 29554, Note_on_c, 7, 59, 0
9, 29556, Note_on_c, 7, 69, 95
9, 29566, Note_on_c, 7, 69, 0
9, 29568, Note_on_c, 7, 57, 95
9, 29578, Note_on_c, 7, 57, 0
9, 29580, Note_on_c, 7, 61, 95
9, 29590, Note_on_c, 7, 61, 0
9, 29592, Note_on_c, 7, 55, 95
9, 29602, Note_on_c, 7, 55, 0
9, 29604, Note_on_c, 7, 61, 95
9, 29614, Note_on_c, 7, 61, 0
9, 29616, Note_on_c, 7, 54, 95
9, 29626, Note_on_c, 7, 54, 0
9, 29628, Note_on_c, 7, 61, 95
9, 29638, Note_on_c, 7, 61, 0
9, 29640, Note_on_c, 7, 52, 95
9, 29650, Note_on_c, 7, 52, 0
9, 29652, Note_on_c, 7, 61, 95
9, 29662, Note_on_c, 7, 61, 0
9, 29664, Note_on_c, 7, 50, 95
9, 29674, Note_on_c, 7, 50, 0
9, 29676, Note_on_c, 7, 62, 95
9, 29686, Note_on_c, 7, 62, 0
9, 29688, Note_on_c, 7, 52, 95
9, 29698, Note_on_c, 7, 52, 0
9, 29700, Note_on_c, 7, 62, 95
9, 29710, Note_on_c, 7, 62, 0
9, 29712, Note_on_c, 7, 54, 95
9, 29722, Note_on_c, 7, 54, 0
9, 29724, Note_on_c, 7, 62, 95
9, 29734, Note_on_c, 7, 62, 0
9, 29736, Note_on_c, 7, 55, 95
9, 29746, Note_on_c, 7, 55, 0
9, 29748, Note_on_c, 7, 62, 95
9, 29758, Note_on_c, 7, 62, 0
9, 29760, Note_on_c, 7, 57, 95
9, 29780, Note_on_c, 7, 57, 0
9, 29784, Note_on_c, 7, 62, 95
9, 29804, Note_on_c, 7, 62, 0
9, 29808, Note_on_c, 7, 61, 95
9, 29828, Note_on_c, 7, 61, 0
9, 29832, Note_on_c, 7, 59, 95
9, 29852, Note_on_c, 7, 59, 0
9, 29856, Note_on_c, 7, 57, 95
9, 29880, Note_on_c, 7, 54, 95
9, 29900, Note_on_c, 7, 54, 0
9, 29904, Note_on_c, 7, 52, 95
9, 29924, Note_on_c, 7, 52, 0
9, 29928, Note_on_c, 7, 50, 95
9, 29936, Note_on_c, 7, 57, 0
9, 29948, Note_on_c, 7, 50, 0
9, 29952, Note_on_c, 7, 49, 95
9, 29976, Note_on_c, 7, 59, 95
9, 29992, Note_on_c, 7, 49, 0
9, 29996, Note_on_c, 7, 59, 0
9, 30000, Note_on_c, 7, 57, 95
9, 30020, Note_on_c, 7, 57, 0
9, 30024, Note_on_c, 7, 45, 95
9, 30024, Note_on_c, 7, 55, 95
9, 30044, Note_on_c, 7, 45, 0
9, 30044, Note_on_c, 7, 55, 0
9, 30048, Note_on_c, 7, 50, 95
9, 30048, Note_on_c, 7, 54, 95
9, 30068, Note_on_c, 7, 54, 0
9, 30072, Note_on_c, 7, 55, 95
9, 30088, Note_on_c, 7, 50, 0
9, 30092, Note_on_c, 7, 55, 0
9, 30096, Note_on_c, 7, 57, 95
9, 30116, Note_on_c, 7, 57, 0
9, 30120, Note_on_c, 7, 55, 95
9, 30130, Note_on_c, 7, 55, 0
9, 30132, Note_on_c, 7, 54, 95
9, 30142, Note_on_c, 7, 54, 0
9, 30144, Note_on_c, 7, 45, 95
9, 30144, Note_on_c, 7, 55, 95
9, 30164, Note_on_c, 7, 55, 0
9, 30168, Note_on_c, 7, 57, 95
9, 30184, Note_on_c, 7, 45, 0
9, 30188, Note_on_c, 7, 57, 0
9, 30192, Note_on_c, 7, 59, 95
9, 30212, Note_on_c, 7, 59, 0
9, 30216, Note_on_c, 7, 57, 95
9, 30226, Note_on_c, 7, 57, 0
9, 30228, Note_on_c, 7, 55, 95
9, 30238, Note_on_c, 7, 55, 0
9, 30240, Note_on_c, 7, 45, 95
9, 30240, Note_on_c, 7, 54, 95
9, 30260, Note_on_c, 7, 54, 0
9, 30264, Note_on_c, 7, 55, 95
9, 30280, Note_on_c, 7, 45, 0
9, 30284, Note_on_c, 7, 55, 0
9, 30288, Note_on_c, 7, 57, 95
9, 30308, Note_on_c, 7, 57, 0
9, 30312, Note_on_c, 7, 55, 95
9, 30322, Note_on_c, 7, 55, 0
9, 30324, Note_on_c, 7, 54, 95
9, 30334, Note_on_c, 7, 54, 0
9, 30336, Note_on_c, 7, 45, 95
9, 30336, Note_on_c, 7, 55, 95
9, 30356, Note_on_c, 7, 55, 0
9, 30360, Note_on_c, 7, 54, 95
9, 30376, Note_on_c, 7, 45, 0
9, 30380, Note_on_c, 7, 54, 0
9, 30384, Note_on_c, 7, 52, 95
9, 30404, Note_on_c, 7, 52, 0
9, 30408, Note_on_c, 7, 45, 95
9, 30428, Note_on_c, 7, 45, 0
9, 30432, Note_on_c, 7, 50, 95
9, 30452, Note_on_c, 7, 50, 0
9, 30456, Note_on_c, 7, 52, 95
9, 30476, Note_on_c, 7, 52, 0
9, 30480, Note_on_c, 7, 54, 95
9, 30500, Note_on_c, 7, 54, 0
9, 30504, Note_on_c, 7, 52, 95
9, 30514, Note_on_c, 7, 52, 0
9, 30516, Note_on_c, 7, 50, 95
9, 30526, Note_on_c, 7, 50, 0
9, 30528, Note_on_c, 7, 55, 95
9, 30538, Note_on_c, 7, 55, 0
9, 30540, Note_on_c, 7, 62, 95
9, 30550, Note_on_c, 7, 62, 0
9, 30552, Note_on_c, 7, 57, 95
9, 30562, Note_on_c, 7, 57, 0
9, 30564, Note_on_c, 7, 62, 95
9, 30574, Note_on_c, 7, 62, 0
9, 30576, Note_on_c, 7, 59, 95
9, 30586, Note_on_c, 7, 59, 0
9, 30588, Note_on_c, 7, 62, 95
9, 30598, Note_on_c, 7, 62, 0
9, 30600, Note_on_c, 7, 57, 95
9, 30610, Note_on_c, 7, 57, 0
9, 30612, Note_on_c, 7, 55, 95
9, 30622, Note_on_c, 7, 55, 0
9, 30624, Note_on_c, 7, 61, 95
9, 30644, Note_on_c, 7, 61, 0
9, 30648, Note_on_c, 7, 50, 95
9, 30668, Note_on_c, 7, 50, 0
9, 30672, Note_on_c, 7, 52, 95
9, 30692, Note_on_c, 7, 52, 0
9, 30696, Note_on_c, 7, 50, 95
9, 30706, Note_on_c, 7, 50, 0
9, 30708, Note_on_c, 7, 49, 95
9, 30718, Note_on_c, 7, 49, 0
9, 30720, Note_on_c, 7, 54, 95
9, 30730, Note_on_c, 7, 54, 0
9, 30732, Note_on_c, 7, 61, 95
9, 30742, Note_on_c, 7, 61, 0
9, 30744, Note_on_c, 7, 55, 95
9, 30754, Note_on_c, 7, 55, 0
9, 30756, Note_on_c, 7, 61, 95
9, 30766, Note_on_c, 7, 61, 0
9, 30768, Note_on_c, 7, 57, 95
9, 30778, Note_on_c, 7, 57, 0
9, 30780, Note_on_c, 7, 61, 95
9, 30790, Note_on_c, 7, 61, 0
9, 30792, Note_on_c, 7, 55, 95
9, 30802, Note_on_c, 7, 55, 0
9, 30804, Note_on_c, 7, 54, 95
9, 30814, Note_on_c, 7, 54, 0
9, 30816, Note_on_c, 7, 59, 95
9, 30836, Note_on_c, 7, 59, 0
9, 30840, Note_on_c, 7, 49, 95
9, 30860, Note_on_c, 7, 49, 0
9, 30864, Note_on_c, 7, 50, 95
9, 30884, Note_on_c, 7, 50, 0
9, 30888, Note_on_c, 7, 49, 95
9, 30898, Note_on_c, 7, 49, 0
9, 30900, Note_on_c, 7, 47, 95
9, 30910, Note_on_c, 7, 47, 0
9, 30912, Note_on_c, 7, 52, 95
9, 30922, Note_on_c, 7, 52, 0
9, 30924, Note_on_c, 7, 59, 95
9, 30934, Note_on_c, 7, 59, 0
9, 30936, Note_on_c, 7, 54, 95
9, 30946, Note_on_c, 7, 54, 0
9, 30948, Note_on_c, 7, 59, 95
9, 30958, Note_on_c, 7, 59, 0
9, 30960, Note_on_c, 7, 55, 95
9, 30970, Note_on_c, 7, 55, 0
9, 30972, Note_on_c, 7, 59, 95
9, 30982, Note_on_c, 7, 59, 0
9, 30984, Note_on_c, 7, 54, 95
9, 30994, Note_on_c, 7, 54, 0
9, 30996, Note_on_c, 7, 52, 95
9, 31006, Note_on_c, 7, 52, 0
9, 31008, Note_on_c, 7, 57, 95
9, 31028, Note_on_c, 7, 57, 0
9, 31032, Note_on_c, 7, 47, 95
9, 31052, Note_on_c, 7, 47, 0
9, 31056, Note_on_c, 7, 49, 95
9, 31076, Note_on_c, 7, 49, 0
9, 31080, Note_on_c, 7, 47, 95
9, 31090, Note_on_c, 7, 47, 0
9, 31092, Note_on_c, 7, 45, 95
9, 31102, Note_on_c, 7, 45, 0
9, 31104, Note_on_c, 7, 50, 95
9, 31124, Note_on_c, 7, 50, 0
9, 31128, Note_on_c, 7, 52, 95
9, 31148, Note_on_c, 7, 52, 0
9, 31152, Note_on_c, 7, 54, 95
9, 31172, Note_on_c, 7, 54, 0
9, 31176, Note_on_c, 7, 55, 95
9, 31196, Note_on_c, 7, 55, 0
9, 31200, Note_on_c, 7, 54, 95
9, 31220, Note_on_c, 7, 54, 0
9, 31224, Note_on_c, 7, 52, 95
9, 31244, Note_on_c, 7, 52, 0
9, 31248, Note_on_c, 7, 50, 95
9, 31268, Note_on_c, 7, 50, 0
9, 31272, Note_on_c, 7, 49, 95
9, 31292, Note_on_c, 7, 49, 0
9, 31296, Note_on_c, 7, 47, 95
9, 31316, Note_on_c, 7, 47, 0
9, 31320, Note_on_c, 7, 59, 95
9, 31330, Note_on_c, 7, 59, 0
9, 31332, Note_on_c, 7, 57, 95
9, 31342, Note_on_c, 7, 57, 0
9, 31344, Note_on_c, 7, 59, 95
9, 31364, Note_on_c, 7, 59, 0
9, 31368, Note_on_c, 7, 54, 95
9, 31388, Note_on_c, 7, 54, 0
9, 31392, Note_on_c, 7, 50, 95
9, 31412, Note_on_c, 7, 50, 0
9, 31416, Note_on_c, 7, 54, 95
9, 31426, Note_on_c, 7, 54, 0
9, 31428, Note_on_c, 7, 52, 95
9, 31438, Note_on_c, 7, 52, 0
9, 31440, Note_on_c, 7, 54, 95
9, 31460, Note_on_c, 7, 54, 0
9, 31464, Note_on_c, 7, 47, 95
9, 31484, Note_on_c, 7, 47, 0
9, 31488, Note_on_c, 7, 52, 95
9, 31508, Note_on_c, 7, 52, 0
9, 31512, Note_on_c, 7, 59, 95
9, 31522, Note_on_c, 7, 59, 0
9, 31524, Note_on_c, 7, 57, 95
9, 31534, Note_on_c, 7, 57, 0
9, 31536, Note_on_c, 7, 56, 95
9, 31556, Note_on_c, 7, 56, 0
9, 31560, Note_on_c, 7, 54, 95
9, 31580, Note_on_c, 7, 54, 0
9, 31584, Note_on_c, 7, 52, 95
9, 31604, Note_on_c, 7, 52, 0
9, 31608, Note_on_c, 7, 50, 95
9, 31628, Note_on_c, 7, 50, 0
9, 31632, Note_on_c, 7, 49, 95
9, 31652, Note_on_c, 7, 49, 0
9, 31656, Note_on_c, 7, 47, 95
9, 31676, Note_on_c, 7, 47, 0
9, 31680, Note_on_c, 7, 45, 95
9, 31700, Note_on_c, 7, 45, 0
9, 31704, Note_on_c, 7, 57, 95
9, 31724, Note_on_c, 7, 57, 0
9, 31728, Note_on_c, 7, 56, 95
9, 31748, Note_on_c, 7, 56, 0
9, 31752, Note_on_c, 7, 54, 95
9, 31772, Note_on_c, 7, 54, 0
9, 31776, Note_on_c, 7, 52, 95
9, 31800, Note_on_c, 7, 61, 95
9, 31820, Note_on_c, 7, 61, 0
9, 31824, Note_on_c, 7, 59, 95
9, 31844, Note_on_c, 7, 59, 0
9, 31848, Note_on_c, 7, 57, 95
9, 31856, Note_on_c, 7, 52, 0
9, 31868, Note_on_c, 7, 57, 0
9, 31872, Note_on_c, 7, 56, 95
9, 31882, Note_on_c, 7, 56, 0
9, 31884, Note_on_c, 7, 52, 95
9, 31894, Note_on_c, 7, 52, 0
9, 31896, Note_on_c, 7, 50, 95
9, 31906, Note_on_c, 7, 50, 0
9, 31908, Note_on_c, 7, 56, 95
9, 31918, Note_on_c, 7, 56, 0
9, 31920, Note_on_c, 7, 49, 95
9, 31930, Note_on_c, 7, 49, 0
9, 31932, Note_on_c, 7, 56, 95
9, 31942, Note_on_c, 7, 56, 0
9, 31944, Note_on_c, 7, 47, 95
9, 31954, Note_on_c, 7, 47, 0
9, 31956, Note_on_c, 7, 56, 95
9, 31966, Note_on_c, 7, 56, 0
9, 31968, Note_on_c, 7, 45, 95
9, 31978, Note_on_c, 7, 45, 0
9, 31980, Note_on_c, 7, 57, 95
9, 31990, Note_on_c, 7, 57, 0
9, 31992, Note_on_c, 7, 47, 95
9, 32002, Note_on_c, 7, 47, 0
9, 32004, Note_on_c, 7, 57, 95
9, 32014, Note_on_c, 7, 57, 0
9, 32016, Note_on_c, 7, 49, 95
9, 32026, Note_on_c, 7, 49, 0
9, 32028, Note_on_c, 7, 57, 95
9, 32038, Note_on_c, 7, 57, 0
9, 32040, Note_on_c, 7, 45, 95
9, 32050, Note_on_c, 7, 45, 0
9, 32052, Note_on_c, 7, 57, 95
9, 32062, Note_on_c, 7, 57, 0
9, 32064, Note_on_c, 7, 50, 95
9, 32074, Note_on_c, 7, 50, 0
9, 32076, Note_on_c, 7, 57, 95
9, 32086, Note_on_c, 7, 57, 0
9, 32088, Note_on_c, 7, 52, 95
9, 32098, Note_on_c, 7, 52, 0
9, 32100, Note_on_c, 7, 57, 95
9, 32110, Note_on_c, 7, 57, 0
9, 32112, Note_on_c, 7, 54, 95
9, 32122, Note_on_c, 7, 54, 0
9, 32124, Note_on_c, 7, 57, 95
9, 32134, Note_on_c, 7, 57, 0
9, 32136, Note_on_c, 7, 50, 95
9, 32146, Note_on_c, 7, 50, 0
9, 32148, Note_on_c, 7, 57, 95
9, 32158, Note_on_c, 7, 57, 0
9, 32160, Note_on_c, 7, 44, 95
9, 32170, Note_on_c, 7, 44, 0
9, 32172, Note_on_c, 7, 56, 95
9, 32182, Note_on_c, 7, 56, 0
9, 32184, Note_on_c, 7, 45, 95
9, 32194, Note_on_c, 7, 45, 0
9, 32196, Note_on_c, 7, 56, 95
9, 32206, Note_on_c, 7, 56, 0
9, 32208, Note_on_c, 7, 47, 95
9, 32218, Note_on_c, 7, 47, 0
9, 32220, Note_on_c, 7, 56, 95
9, 32230, Note_on_c, 7, 56, 0
9, 32232, Note_on_c, 7, 44, 95
9, 32242, Note_on_c, 7, 44, 0
9, 32244, Note_on_c, 7, 56, 95
9, 32254, Note_on_c, 7, 56, 0
9, 32256, Note_on_c, 7, 49, 95
9, 32266, Note_on_c, 7, 49, 0
9, 32268, Note_on_c, 7, 56, 95
9, 32278, Note_on_c, 7, 56, 0
9, 32280, Note_on_c, 7, 50, 95
9, 32290, Note_on_c, 7, 50, 0
9, 32292, Note_on_c, 7, 56, 95
9, 32302, Note_on_c, 7, 56, 0
9, 32304, Note_on_c, 7, 52, 95
9, 32314, Note_on_c, 7, 52, 0
9, 32316, Note_on_c, 7, 56, 95
9, 32326, Note_on_c, 7, 56, 0
9, 32328, Note_on_c, 7, 49, 95
9, 32338, Note_on_c, 7, 49, 0
9, 32340, Note_on_c, 7, 56, 95
9, 32350, Note_on_c, 7, 56, 0
9, 32352, Note_on_c, 7, 42, 95
9, 32362, Note_on_c, 7, 42, 0
9, 32364, Note_on_c, 7, 54, 95
9, 32374, Note_on_c, 7, 54, 0
9, 32376, Note_on_c, 7, 44, 95
9, 32386, Note_on_c, 7, 44, 0
9, 32388, Note_on_c, 7, 54, 95
9, 32398, Note_on_c, 7, 54, 0
9, 32400, Note_on_c, 7, 45, 95
9, 32410, Note_on_c, 7, 45, 0
9, 32412, Note_on_c, 7, 54, 95
9, 32422, Note_on_c, 7, 54, 0
9, 32424, Note_on_c, 7, 42, 95
9, 32434, Note_on_c, 7, 42, 0
9, 32436, Note_on_c, 7, 54, 95
9, 32446, Note_on_c, 7, 54, 0
9, 32448, Note_on_c, 7, 47, 95
9, 32458, Note_on_c, 7, 47, 0
9, 32460, Note_on_c, 7, 54, 95
9, 32470, Note_on_c, 7, 54, 0
9, 32472, Note_on_c, 7, 49, 95
9, 32482, Note_on_c, 7, 49, 0
9, 32484, Note_on_c, 7, 54, 95
9, 32494, Note_on_c, 7, 54, 0
9, 32496, Note_on_c, 7, 50, 95
9, 32506, Note_on_c, 7, 50, 0
9, 32508, Note_on_c, 7, 54, 95
9, 32518, Note_on_c, 7, 54, 0
9, 32520, Note_on_c, 7, 47, 95
9, 32530, Note_on_c, 7, 47, 0
9, 32532, Note_on_c, 7, 54, 95
9, 32542, Note_on_c, 7, 54, 0
9, 32544, Note_on_c, 7, 40, 95
9, 32554, Note_on_c, 7, 40, 0
9, 32556, Note_on_c, 7, 52, 95
9, 32566, Note_on_c, 7, 52, 0
9, 32568, Note_on_c, 7, 42, 95
9, 32578, Note_on_c, 7, 42, 0
9, 32580, Note_on_c, 7, 52, 95
9, 32590, Note_on_c, 7, 52, 0
9, 32592, Note_on_c, 7, 44, 95
9, 32602, Note_on_c, 7, 44, 0
9, 32604, Note_on_c, 7, 52, 95
9, 32614, Note_on_c, 7, 52, 0
9, 32616, Note_on_c, 7, 40, 95
9, 32626, Note_on_c, 7, 40, 0
9, 32628, Note_on_c, 7, 52, 95
9, 32638, Note_on_c, 7, 52, 0
9, 32640, Note_on_c, 7, 45, 95
9, 32650, Note_on_c, 7, 45, 0
9, 32652, Note_on_c, 7, 57, 95
9, 32662, Note_on_c, 7, 57, 0
9, 32664, Note_on_c, 7, 47, 95
9, 32674, Note_on_c, 7, 47, 0
9, 32676, Note_on_c, 7, 57, 95
9, 32686, Note_on_c, 7, 57, 0
9, 32688, Note_on_c, 7, 49, 95
9, 32698, Note_on_c, 7, 49, 0
9, 32700, Note_on_c, 7, 57, 95
9, 32710, Note_on_c, 7, 57, 0
9, 32712, Note_on_c, 7, 47, 95
9, 32722, Note_on_c, 7, 47, 0
9, 32724, Note_on_c, 7, 57, 95
9, 32734, Note_on_c, 7, 57, 0
9, 32736, Note_on_c, 7, 49, 95
9, 32746, Note_on_c, 7, 49, 0
9, 32748, Note_on_c, 7, 57, 95
9, 32758, Note_on_c, 7, 57, 0
9, 32760, Note_on_c, 7, 50, 95
9, 32770, Note_on_c, 7, 50, 0
9, 32772, Note_on_c, 7, 57, 95
9, 32782, Note_on_c, 7, 57, 0
9, 32784, Note_on_c, 7, 52, 95
9, 32794, Note_on_c, 7, 52, 0
9, 32796, Note_on_c, 7, 57, 95
9, 32806, Note_on_c, 7, 57, 0
9, 32808, Note_on_c, 7, 52, 95
9, 32818, Note_on_c, 7, 52, 0
9, 32820, Note_on_c, 7, 56, 95
9, 32830, Note_on_c, 7, 56, 0
9, 32832, Note_on_c, 7, 45, 95
9, 32842, Note_on_c, 7, 45, 0
9, 32844, Note_on_c, 7, 57, 95
9, 32849, Note_on_c, 7, 57, 0
9, 32850, Note_on_c, 7, 55, 95
9, 32855, Note_on_c, 7, 55, 0
9, 32856, Note_on_c, 7, 54, 95
9, 32866, Note_on_c, 7, 54, 0
9, 32868, Note_on_c, 7, 57, 95
9, 32878, Note_on_c, 7, 57, 0
9, 32880, Note_on_c, 7, 52, 95
9, 32890, Note_on_c, 7, 52, 0
9, 32892, Note_on_c, 7, 57, 95
9, 32902, Note_on_c, 7, 57, 0
9, 32904, Note_on_c, 7, 50, 95
9, 32914, Note_on_c, 7, 50, 0
9, 32916, Note_on_c, 7, 57, 95
9, 32926, Note_on_c, 7, 57, 0
9, 32928, Note_on_c, 7, 49, 95
9, 32940, Note_on_c, 7, 55, 95
9, 32948, Note_on_c, 7, 49, 0
9, 32950, Note_on_c, 7, 55, 0
9, 32952, Note_on_c, 7, 50, 95
9, 32952, Note_on_c, 7, 54, 95
9, 32962, Note_on_c, 7, 54, 0
9, 32964, Note_on_c, 7, 57, 95
9, 32972, Note_on_c, 7, 50, 0
9, 32974, Note_on_c, 7, 57, 0
9, 32976, Note_on_c, 7, 49, 95
9, 32976, Note_on_c, 7, 52, 95
9, 32986, Note_on_c, 7, 52, 0
9, 32988, Note_on_c, 7, 57, 95
9, 32996, Note_on_c, 7, 49, 0
9, 32998, Note_on_c, 7, 57, 0
9, 33000, Note_on_c, 7, 47, 95
9, 33000, Note_on_c, 7, 50, 95
9, 33010, Note_on_c, 7, 50, 0
9, 33012, Note_on_c, 7, 57, 95
9, 33020, Note_on_c, 7, 47, 0
9, 33022, Note_on_c, 7, 57, 0
9, 33024, Note_on_c, 7, 45, 95
9, 33024, Note_on_c, 7, 49, 95
9, 33044, Note_on_c, 7, 49, 0
9, 33048, Note_on_c, 7, 50, 95
9, 33068, Note_on_c, 7, 50, 0
9, 33072, Note_on_c, 7, 49, 95
9, 33092, Note_on_c, 7, 49, 0
9, 33096, Note_on_c, 7, 47, 95
9, 33103, Note_on_c, 7, 45, 0
9, 33116, Note_on_c, 7, 47, 0
9, 33120, Note_on_c, 7, 45, 95
9, 33199, Note_on_c, 7, 45, 0
9, 33240, Note_on_c, 7, 50, 95
9, 33260, Note_on_c, 7, 50, 0
9, 33264, Note_on_c, 7, 49, 95
9, 33284, Note_on_c, 7, 49, 0
9, 33288, Note_on_c, 7, 47, 95
9, 33308, Note_on_c, 7, 47, 0
9, 33312, Note_on_c, 7, 45, 95
9, 33332, Note_on_c, 7, 45, 0
9, 33336, Note_on_c, 7, 47, 95
9, 33356, Note_on_c, 7, 47, 0
9, 33360, Note_on_c, 7, 45, 95
9, 33380, Note_on_c, 7, 45, 0
9, 33384, Note_on_c, 7, 43, 95
9, 33404, Note_on_c, 7, 43, 0
9, 33408, Note_on_c, 7, 42, 95
9, 33428, Note_on_c, 7, 42, 0
9, 33432, Note_on_c, 7, 47, 95
9, 33452, Note_on_c, 7, 47, 0
9, 33456, Note_on_c, 7, 45, 95
9, 33476, Note_on_c, 7, 45, 0
9, 33480, Note_on_c, 7, 43, 95
9, 33500, Note_on_c, 7, 43, 0
9, 33504, Note_on_c, 7, 42, 95
9, 33524, Note_on_c, 7, 42, 0
9, 33528, Note_on_c, 7, 43, 95
9, 33548, Note_on_c, 7, 43, 0
9, 33552, Note_on_c, 7, 42, 95
9, 33572, Note_on_c, 7, 42, 0
9, 33576, Note_on_c, 7, 40, 95
9, 33596, Note_on_c, 7, 40, 0
9, 33600, Note_on_c, 7, 38, 95
9, 33610, Note_on_c, 7, 38, 0
9, 33612, Note_on_c, 7, 62, 95
9, 33617, Note_on_c, 7, 62, 0
9, 33618, Note_on_c, 7, 61, 95
9, 33623, Note_on_c, 7, 61, 0
9, 33624, Note_on_c, 7, 59, 95
9, 33634, Note_on_c, 7, 59, 0
9, 33636, Note_on_c, 7, 62, 95
9, 33646, Note_on_c, 7, 62, 0
9, 33648, Note_on_c, 7, 57, 95
9, 33658, Note_on_c, 7, 57, 0
9, 33660, Note_on_c, 7, 62, 95
9, 33670, Note_on_c, 7, 62, 0
9, 33672, Note_on_c, 7, 55, 95
9, 33682, Note_on_c, 7, 55, 0
9, 33684, Note_on_c, 7, 62, 95
9, 33694, Note_on_c, 7, 62, 0
9, 33696, Note_on_c, 7, 54, 95
9, 33708, Note_on_c, 7, 60, 95
9, 33716, Note_on_c, 7, 54, 0
9, 33718, Note_on_c, 7, 60, 0
9, 33720, Note_on_c, 7, 55, 95
9, 33720, Note_on_c, 7, 59, 95
9, 33730, Note_on_c, 7, 59, 0
9, 33732, Note_on_c, 7, 62, 95
9, 33740, Note_on_c, 7, 55, 0
9, 33742, Note_on_c, 7, 62, 0
9, 33744, Note_on_c, 7, 54, 95
9, 33744, Note_on_c, 7, 57, 95
9, 33754, Note_on_c, 7, 57, 0
9, 33756, Note_on_c, 7, 62, 95
9, 33764, Note_on_c, 7, 54, 0
9, 33766, Note_on_c, 7, 62, 0
9, 33768, Note_on_c, 7, 52, 95
9, 33768, Note_on_c, 7, 55, 95
9, 33778, Note_on_c, 7, 55, 0
9, 33780, Note_on_c, 7, 62, 95
9, 33788, Note_on_c, 7, 52, 0
9, 33790, Note_on_c, 7, 62, 0
9, 33792, Note_on_c, 7, 50, 95
9, 33792, Note_on_c, 7, 54, 95
9, 33812, Note_on_c, 7, 54, 0
9, 33816, Note_on_c, 7, 55, 95
9, 33836, Note_on_c, 7, 55, 0
9, 33840, Note_on_c, 7, 54, 95
9, 33860, Note_on_c, 7, 54, 0
9, 33864, Note_on_c, 7, 52, 95
9, 33871, Note_on_c, 7, 50, 0
9, 33884, Note_on_c, 7, 52, 0
9, 33888, Note_on_c, 7, 50, 95
9, 33984, Note_on_c, 7, 50, 0
9, 34008, Note_on_c, 7, 55, 95
9, 34028, Note_on_c, 7, 55, 0
9, 34032, Note_on_c, 7, 54, 95
9, 34052, Note_on_c, 7, 54, 0
9, 34056, Note_on_c, 7, 52, 95
9, 34076, Note_on_c, 7, 52, 0
9, 34080, Note_on_c, 7, 50, 95
9, 34100, Note_on_c, 7, 50, 0
9, 34104, Note_on_c, 7, 52, 95
9, 34124, Note_on_c, 7, 52, 0
9, 34128, Note_on_c, 7, 50, 95
9, 34148, Note_on_c, 7, 50, 0
9, 34152, Note_on_c, 7, 48, 95
9, 34172, Note_on_c, 7, 48, 0
9, 34176, Note_on_c, 7, 47, 95
9, 34196, Note_on_c, 7, 47, 0
9, 34200, Note_on_c, 7, 52, 95
9, 34220, Note_on_c, 7, 52, 0
9, 34224, Note_on_c, 7, 50, 95
9, 34244, Note_on_c, 7, 50, 0
9, 34248, Note_on_c, 7, 48, 95
9, 34268, Note_on_c, 7, 48, 0
9, 34272, Note_on_c, 7, 47, 95
9, 34292, Note_on_c, 7, 47, 0
9, 34296, Note_on_c, 7, 48, 95
9, 34316, Note_on_c, 7, 48, 0
9, 34320, Note_on_c, 7, 47, 95
9, 34340, Note_on_c, 7, 47, 0
9, 34344, Note_on_c, 7, 45, 95
9, 34364, Note_on_c, 7, 45, 0
9, 34368, Note_on_c, 7, 43, 95
9, 34373, Note_on_c, 7, 43, 0
9, 34374, Note_on_c, 7, 45, 95
9, 34379, Note_on_c, 7, 45, 0
9, 34380, Note_on_c, 7, 43, 95
9, 34385, Note_on_c, 7, 43, 0
9, 34386, Note_on_c, 7, 45, 95
9, 34391, Note_on_c, 7, 45, 0
9, 34392, Note_on_c, 7, 43, 95
9, 34397, Note_on_c, 7, 43, 0
9, 34398, Note_on_c, 7, 45, 95
9, 34403, Note_on_c, 7, 45, 0
9, 34404, Note_on_c, 7, 43, 95
9, 34409, Note_on_c, 7, 43, 0
9, 34410, Note_on_c, 7, 45, 95
9, 34415, Note_on_c, 7, 45, 0
9, 34416, Note_on_c, 7, 43, 95
9, 34421, Note_on_c, 7, 43, 0
9, 34422, Note_on_c, 7, 45, 95
9, 34427, Note_on_c, 7, 45, 0
9, 34428, Note_on_c, 7, 43, 95
9, 34433, Note_on_c, 7, 43, 0
9, 34434, Note_on_c, 7, 45, 95
9, 34439, Note_on_c, 7, 45, 0
9, 34440, Note_on_c, 7, 43, 95
9, 34445, Note_on_c, 7, 43, 0
9, 34446, Note_on_c, 7, 45, 95
9, 34451, Note_on_c, 7, 45, 0
9, 34452, Note_on_c, 7, 43, 95
9, 34457, Note_on_c, 7, 43, 0
9, 34458, Note_on_c, 7, 45, 95
9, 34463, Note_on_c, 7, 45, 0
9, 34464, Note_on_c, 7, 43, 95
9, 34469, Note_on_c, 7, 43, 0
9, 34470, Note_on_c, 7, 45, 95
9, 34475, Note_on_c, 7, 45, 0
9, 34476, Note_on_c, 7, 43, 95
9, 34481, Note_on_c, 7, 43, 0
9, 34482, Note_on_c, 7, 45, 95
9, 34487, Note_on_c, 7, 45, 0
9, 34488, Note_on_c, 7, 43, 95
9, 34493, Note_on_c, 7, 43, 0
9, 34494, Note_on_c, 7, 45, 95
9, 34499, Note_on_c, 7, 45, 0
9, 34500, Note_on_c, 7, 43, 95
9, 34505, Note_on_c, 7, 43, 0
9, 34506, Note_on_c, 7, 45, 95
9, 34511, Note_on_c, 7, 45, 0
9, 34512, Note_on_c, 7, 43, 95
9, 34517, Note_on_c, 7, 43, 0
9, 34518, Note_on_c, 7, 45, 95
9, 34523, Note_on_c, 7, 45, 0
9, 34524, Note_on_c, 7, 43, 95
9, 34529, Note_on_c, 7, 43, 0
9, 34530, Note_on_c, 7, 45, 95
9, 34535, Note_on_c, 7, 45, 0
9, 34536, Note_on_c, 7, 43, 95
9, 34541, Note_on_c, 7, 43, 0
9, 34542, Note_on_c, 7, 45, 95
9, 34547, Note_on_c, 7, 45, 0
9, 34548, Note_on_c, 7, 43, 95
9, 34553, Note_on_c, 7, 43, 0
9, 34554, Note_on_c, 7, 45, 95
9, 34559, Note_on_c, 7, 45, 0
9, 34560, Note_on_c, 7, 43, 95
9, 34570, Note_on_c, 7, 43, 0
9, 34572, Note_on_c, 7, 67, 95
9, 34582, Note_on_c, 7, 67, 0
9, 34584, Note_on_c, 7, 66, 95
9, 34594, Note_on_c, 7, 66, 0
9, 34596, Note_on_c, 7, 67, 95
9, 34606, Note_on_c, 7, 67, 0
9, 34608, Note_on_c, 7, 64, 95
9, 34618, Note_on_c, 7, 64, 0
9, 34620, Note_on_c, 7, 67, 95
9, 34630, Note_on_c, 7, 67, 0
9, 34632, Note_on_c, 7, 62, 95
9, 34642, Note_on_c, 7, 62, 0
9, 34644, Note_on_c, 7, 67, 95
9, 34654, Note_on_c, 7, 67, 0
9, 34656, Note_on_c, 7, 61, 95
9, 34666, Note_on_c, 7, 61, 0
9, 34668, Note_on_c, 7, 67, 95
9, 34678, Note_on_c, 7, 67, 0
9, 34680, Note_on_c, 7, 59, 95
9, 34690, Note_on_c, 7, 59, 0
9, 34692, Note_on_c, 7, 67, 95
9, 34702, Note_on_c, 7, 67, 0
9, 34704, Note_on_c, 7, 57, 95
9, 34714, Note_on_c, 7, 57, 0
9, 34716, Note_on_c, 7, 67, 95
9, 34726, Note_on_c, 7, 67, 0
9, 34728, Note_on_c, 7, 55, 95
9, 34738, Note_on_c, 7, 55, 0
9, 34740, Note_on_c, 7, 67, 95
9, 34750, Note_on_c, 7, 67, 0
9, 34752, Note_on_c, 7, 54, 95
9, 34772, Note_on_c, 7, 54, 0
9, 34776, Note_on_c, 7, 55, 95
9, 34796, Note_on_c, 7, 55, 0
9, 34800, Note_on_c, 7, 57, 95
9, 34820, Note_on_c, 7, 57, 0
9, 34824, Note_on_c, 7, 55, 95
9, 34834, Note_on_c, 7, 55, 0
9, 34836, Note_on_c, 7, 54, 95
9, 34846, Note_on_c, 7, 54, 0
9, 34848, Note_on_c, 7, 59, 95
9, 34858, Note_on_c, 7, 59, 0
9, 34860, Note_on_c, 7, 66, 95
9, 34870, Note_on_c, 7, 66, 0
9, 34872, Note_on_c, 7, 61, 95
9, 34882, Note_on_c, 7, 61, 0
9, 34884, Note_on_c, 7, 66, 95
9, 34894, Note_on_c, 7, 66, 0
9, 34896, Note_on_c, 7, 62, 95
9, 34906, Note_on_c, 7, 62, 0
9, 34908, Note_on_c, 7, 66, 95
9, 34918, Note_on_c, 7, 66, 0
9, 34920, Note_on_c, 7, 61, 95
9, 34930, Note_on_c, 7, 61, 0
9, 34932, Note_on_c, 7, 59, 95
9, 34942, Note_on_c, 7, 59, 0
9, 34944, Note_on_c, 7, 64, 95
9, 34964, Note_on_c, 7, 64, 0
9, 34968, Note_on_c, 7, 54, 95
9, 34988, Note_on_c, 7, 54, 0
9, 34992, Note_on_c, 7, 55, 95
9, 35012, Note_on_c, 7, 55, 0
9, 35016, Note_on_c, 7, 54, 95
9, 35026, Note_on_c, 7, 54, 0
9, 35028, Note_on_c, 7, 52, 95
9, 35038, Note_on_c, 7, 52, 0
9, 35040, Note_on_c, 7, 57, 95
9, 35050, Note_on_c, 7, 57, 0
9, 35052, Note_on_c, 7, 64, 95
9, 35062, Note_on_c, 7, 64, 0
9, 35064, Note_on_c, 7, 59, 95
9, 35074, Note_on_c, 7, 59, 0
9, 35076, Note_on_c, 7, 64, 95
9, 35086, Note_on_c, 7, 64, 0
9, 35088, Note_on_c, 7, 61, 95
9, 35098, Note_on_c, 7, 61, 0
9, 35100, Note_on_c, 7, 64, 95
9, 35110, Note_on_c, 7, 64, 0
9, 35112, Note_on_c, 7, 59, 95
9, 35122, Note_on_c, 7, 59, 0
9, 35124, Note_on_c, 7, 57, 95
9, 35134, Note_on_c, 7, 57, 0
9, 35136, Note_on_c, 7, 62, 95
9, 35156, Note_on_c, 7, 62, 0
9, 35160, Note_on_c, 7, 64, 95
9, 35180, Note_on_c, 7, 64, 0
9, 35184, Note_on_c, 7, 62, 95
9, 35204, Note_on_c, 7, 62, 0
9, 35208, Note_on_c, 7, 60, 95
9, 35228, Note_on_c, 7, 60, 0
9, 35232, Note_on_c, 7, 59, 95
9, 35252, Note_on_c, 7, 59, 0
9, 35256, Note_on_c, 7, 57, 95
9, 35276, Note_on_c, 7, 57, 0
9, 35280, Note_on_c, 7, 55, 95
9, 35300, Note_on_c, 7, 55, 0
9, 35304, Note_on_c, 7, 54, 95
9, 35324, Note_on_c, 7, 54, 0
9, 35328, Note_on_c, 7, 55, 95
9, 35348, Note_on_c, 7, 55, 0
9, 35352, Note_on_c, 7, 57, 95
9, 35372, Note_on_c, 7, 57, 0
9, 35376, Note_on_c, 7, 55, 95
9, 35396, Note_on_c, 7, 55, 0
9, 35400, Note_on_c, 7, 54, 95
9, 35420, Note_on_c, 7, 54, 0
9, 35424, Note_on_c, 7, 52, 95
9, 35444, Note_on_c, 7, 52, 0
9, 35448, Note_on_c, 7, 50, 95
9, 35468, Note_on_c, 7, 50, 0
9, 35472, Note_on_c, 7, 49, 95
9, 35492, Note_on_c, 7, 49, 0
9, 35496, Note_on_c, 7, 47, 95
9, 35516, Note_on_c, 7, 47, 0
9, 35520, Note_on_c, 7, 45, 95
9, 35540, Note_on_c, 7, 45, 0
9, 35544, Note_on_c, 7, 59, 95
9, 35564, Note_on_c, 7, 59, 0
9, 35568, Note_on_c, 7, 57, 95
9, 35588, Note_on_c, 7, 57, 0
9, 35592, Note_on_c, 7, 55, 95
9, 35612, Note_on_c, 7, 55, 0
9, 35616, Note_on_c, 7, 54, 95
9, 35636, Note_on_c, 7, 54, 0
9, 35640, Note_on_c, 7, 52, 95
9, 35660, Note_on_c, 7, 52, 0
9, 35664, Note_on_c, 7, 50, 95
9, 35684, Note_on_c, 7, 50, 0
9, 35688, Note_on_c, 7, 49, 95
9, 35708, Note_on_c, 7, 49, 0
9, 35712, Note_on_c, 7, 47, 95
9, 35732, Note_on_c, 7, 47, 0
9, 35736, Note_on_c, 7, 49, 95
9, 35756, Note_on_c, 7, 49, 0
9, 35760, Note_on_c, 7, 50, 95
9, 35780, Note_on_c, 7, 50, 0
9, 35784, Note_on_c, 7, 49, 95
9, 35804, Note_on_c, 7, 49, 0
9, 35808, Note_on_c, 7, 47, 95
9, 35828, Note_on_c, 7, 47, 0
9, 35832, Note_on_c, 7, 45, 95
9, 35852, Note_on_c, 7, 45, 0
9, 35856, Note_on_c, 7, 44, 95
9, 35876, Note_on_c, 7, 44, 0
9, 35880, Note_on_c, 7, 42, 95
9, 35900, Note_on_c, 7, 42, 0
9, 35904, Note_on_c, 7, 40, 95
9, 35924, Note_on_c, 7, 40, 0
9, 35928, Note_on_c, 7, 57, 95
9, 35948, Note_on_c, 7, 57, 0
9, 35952, Note_on_c, 7, 56, 95
9, 35972, Note_on_c, 7, 56, 0
9, 35976, Note_on_c, 7, 54, 95
9, 35996, Note_on_c, 7, 54, 0
9, 36000, Note_on_c, 7, 52, 95
9, 36020, Note_on_c, 7, 52, 0
9, 36024, Note_on_c, 7, 50, 95
9, 36044, Note_on_c, 7, 50, 0
9, 36048, Note_on_c, 7, 49, 95
9, 36068, Note_on_c, 7, 49, 0
9, 36072, Note_on_c, 7, 47, 95
9, 36092, Note_on_c, 7, 47, 0
9, 36096, Note_on_c, 7, 45, 95
9, 36120, Note_on_c, 7, 52, 95
9, 36140, Note_on_c, 7, 52, 0
9, 36144, Note_on_c, 7, 50, 95
9, 36164, Note_on_c, 7, 50, 0
9, 36168, Note_on_c, 7, 54, 95
9, 36176, Note_on_c, 7, 45, 0
9, 36188, Note_on_c, 7, 54, 0
9, 36192, Note_on_c, 7, 45, 95
9, 36216, Note_on_c, 7, 52, 95
9, 36236, Note_on_c, 7, 52, 0
9, 36240, Note_on_c, 7, 50, 95
9, 36260, Note_on_c, 7, 50, 0
9, 36264, Note_on_c, 7, 54, 95
9, 36272, Note_on_c, 7, 45, 0
9, 36284, Note_on_c, 7, 54, 0
9, 36288, Note_on_c, 7, 45, 95
9, 36312, Note_on_c, 7, 52, 95
9, 36332, Note_on_c, 7, 52, 0
9, 36336, Note_on_c, 7, 50, 95
9, 36356, Note_on_c, 7, 50, 0
9, 36360, Note_on_c, 7, 55, 95
9, 36368, Note_on_c, 7, 45, 0
9, 36380, Note_on_c, 7, 55, 0
9, 36384, Note_on_c, 7, 45, 95
9, 36408, Note_on_c, 7, 54, 95
9, 36428, Note_on_c, 7, 54, 0
9, 36432, Note_on_c, 7, 52, 95
9, 36452, Note_on_c, 7, 52, 0
9, 36456, Note_on_c, 7, 55, 95
9, 36464, Note_on_c, 7, 45, 0
9, 36476, Note_on_c, 7, 55, 0
9, 36480, Note_on_c, 7, 45, 95
9, 36504, Note_on_c, 7, 55, 95
9, 36524, Note_on_c, 7, 55, 0
9, 36528, Note_on_c, 7, 54, 95
9, 36548, Note_on_c, 7, 54, 0
9, 36552, Note_on_c, 7, 57, 95
9, 36560, Note_on_c, 7, 45, 0
9, 36572, Note_on_c, 7, 57, 0
9, 36576, Note_on_c, 7, 45, 95
9, 36600, Note_on_c, 7, 57, 95
9, 36620, Note_on_c, 7, 57, 0
9, 36624, Note_on_c, 7, 55, 95
9, 36644, Note_on_c, 7, 55, 0
9, 36648, Note_on_c, 7, 59, 95
9, 36656, Note_on_c, 7, 45, 0
9, 36668, Note_on_c, 7, 59, 0
9, 36672, Note_on_c, 7, 45, 95
9, 36696, Note_on_c, 7, 59, 95
9, 36716, Note_on_c, 7, 59, 0
9, 36720, Note_on_c, 7, 57, 95
9, 36740, Note_on_c, 7, 57, 0
9, 36744, Note_on_c, 7, 61, 95
9, 36752, Note_on_c, 7, 45, 0
9, 36764, Note_on_c, 7, 61, 0
9, 36768, Note_on_c, 7, 45, 95
9, 36792, Note_on_c, 7, 61, 95
9, 36812, Note_on_c, 7, 61, 0
9, 36816, Note_on_c, 7, 59, 95
9, 36836, Note_on_c, 7, 59, 0
9, 36840, Note_on_c, 7, 62, 95
9, 36848, Note_on_c, 7, 45, 0
9, 36860, Note_on_c, 7, 62, 0
9, 36864, Note_on_c, 7, 45, 95
9, 36888, Note_on_c, 7, 59, 95
9, 36908, Note_on_c, 7, 59, 0
9, 36912, Note_on_c, 7, 57, 95
9, 36932, Note_on_c, 7, 57, 0
9, 36936, Note_on_c, 7, 61, 95
9, 36944, Note_on_c, 7, 45, 0
9, 36956, Note_on_c, 7, 61, 0
9, 36960, Note_on_c, 7, 45, 95
9, 36984, Note_on_c, 7, 57, 95
9, 37004, Note_on_c, 7, 57, 0
9, 37008, Note_on_c, 7, 55, 95
9, 37028, Note_on_c, 7, 55, 0
9, 37032, Note_on_c, 7, 59, 95
9, 37040, Note_on_c, 7, 45, 0
9, 37052, Note_on_c, 7, 59, 0
9, 37056, Note_on_c, 7, 45, 95
9, 37080, Note_on_c, 7, 55, 95
9, 37100, Note_on_c, 7, 55, 0
9, 37104, Note_on_c, 7, 54, 95
9, 37124, Note_on_c, 7, 54, 0
9, 37128, Note_on_c, 7, 57, 95
9, 37136, Note_on_c, 7, 45, 0
9, 37148, Note_on_c, 7, 57, 0
9, 37152, Note_on_c, 7, 45, 95
9, 37176, Note_on_c, 7, 54, 95
9, 37196, Note_on_c, 7, 54, 0
9, 37200, Note_on_c, 7, 52, 95
9, 37220, Note_on_c, 7, 52, 0
9, 37224, Note_on_c, 7, 55, 95
9, 37232, Note_on_c, 7, 45, 0
9, 37244, Note_on_c, 7, 55, 0
9, 37248, Note_on_c, 7, 45, 95
9, 37253, Note_on_c, 7, 45, 0
9, 37824, Note_on_c, 7, 53, 95
9, 37829, Note_on_c, 7, 53, 0
9, 37848, Note_on_c, 7, 58, 95
9, 37853, Note_on_c, 7, 58, 0
9, 37872, Note_on_c, 7, 57, 95
9, 37877, Note_on_c, 7, 57, 0
9, 37896, Note_on_c, 7, 55, 95
9, 37901, Note_on_c, 7, 55, 0
9, 37920, Note_on_c, 7, 57, 95
9, 37925, Note_on_c, 7, 57, 0
9, 37944, Note_on_c, 7, 58, 95
9, 37949, Note_on_c, 7, 58, 0
9, 37968, Note_on_c, 7, 57, 95
9, 37973, Note_on_c, 7, 57, 0
9, 37992, Note_on_c, 7, 55, 95
9, 37997, Note_on_c, 7, 55, 0
9, 38016, Note_on_c, 7, 57, 95
9, 38021, Note_on_c, 7, 57, 0
9, 38040, Note_on_c, 7, 62, 95
9, 38045, Note_on_c, 7, 62, 0
9, 38064, Note_on_c, 7, 61, 95
9, 38069, Note_on_c, 7, 61, 0
9, 38088, Note_on_c, 7, 60, 95
9, 38093, Note_on_c, 7, 60, 0
9, 38112, Note_on_c, 7, 59, 95
9, 38117, Note_on_c, 7, 59, 0
9, 38136, Note_on_c, 7, 58, 95
9, 38141, Note_on_c, 7, 58, 0
9, 38160, Note_on_c, 7, 57, 95
9, 38165, Note_on_c, 7, 57, 0
9, 38184, Note_on_c, 7, 56, 95
9, 38189, Note_on_c, 7, 56, 0
9, 38208, Note_on_c, 7, 55, 95
9, 38213, Note_on_c, 7, 55, 0
9, 38232, Note_on_c, 7, 54, 95
9, 38237, Note_on_c, 7, 54, 0
9, 38256, Note_on_c, 7, 53, 95
9, 38261, Note_on_c, 7, 53, 0
9, 38280, Note_on_c, 7, 52, 95
9, 38285, Note_on_c, 7, 52, 0
9, 38304, Note_on_c, 7, 51, 95
9, 38309, Note_on_c, 7, 51, 0
9, 38328, Note_on_c, 7, 50, 95
9, 38333, Note_on_c, 7, 50, 0
9, 38352, Note_on_c, 7, 49, 95
9, 38357, Note_on_c, 7, 49, 0
9, 38376, Note_on_c, 7, 48, 95
9, 38381, Note_on_c, 7, 48, 0
9, 38400, Note_on_c, 7, 47, 95
9, 38405, Note_on_c, 7, 47, 0
9, 38424, Note_on_c, 7, 46, 95
9, 38429, Note_on_c, 7, 46, 0
9, 38448, Note_on_c, 7, 45, 95
9, 38453, Note_on_c, 7, 45, 0
9, 38472, Note_on_c, 7, 44, 95
9, 38477, Note_on_c, 7, 44, 0
9, 38496, Note_on_c, 7, 45, 95
9, 38501, Note_on_c, 7, 45, 0
9, 38502, Note_on_c, 7, 46, 95
9, 38507, Note_on_c, 7, 46, 0
9, 38508, Note_on_c, 7, 49, 95
9, 38513, Note_on_c, 7, 49, 0
9, 38514, Note_on_c, 7, 50, 95
9, 38519, Note_on_c, 7, 50, 0
9, 38544, Note_on_c, 7, 45, 95
9, 38549, Note_on_c, 7, 45, 0
9, 38550, Note_on_c, 7, 49, 95
9, 38555, Note_on_c, 7, 49, 0
9, 38556, Note_on_c, 7, 50, 95
9, 38561, Note_on_c, 7, 50, 0
9, 38562, Note_on_c, 7, 52, 95
9, 38567, Note_on_c, 7, 52, 0
9, 38880, Note_on_c, 7, 45, 95
9, 38901, Note_on_c, 7, 45, 0
9, 38904, Note_on_c, 7, 55, 95
9, 38925, Note_on_c, 7, 55, 0
9, 38928, Note_on_c, 7, 52, 95
9, 38949, Note_on_c, 7, 52, 0
9, 38952, Note_on_c, 7, 49, 95
9, 38973, Note_on_c, 7, 49, 0
9, 38976, Note_on_c, 7, 45, 95
9, 38997, Note_on_c, 7, 45, 0
9, 39000, Note_on_c, 7, 55, 95
9, 39021, Note_on_c, 7, 55, 0
9, 39024, Note_on_c, 7, 52, 95
9, 39045, Note_on_c, 7, 52, 0
9, 39048, Note_on_c, 7, 49, 95
9, 39069, Note_on_c, 7, 49, 0
9, 39072, Note_on_c, 7, 45, 95
9, 39093, Note_on_c, 7, 45, 0
9, 39096, Note_on_c, 7, 56, 95
9, 39117, Note_on_c, 7, 56, 0
9, 39120, Note_on_c, 7, 53, 95
9, 39141, Note_on_c, 7, 53, 0
9, 39144, Note_on_c, 7, 50, 95
9, 39165, Note_on_c, 7, 50, 0
9, 39168, Note_on_c, 7, 45, 95
9, 39189, Note_on_c, 7, 45, 0
9, 39192, Note_on_c, 7, 56, 95
9, 39213, Note_on_c, 7, 56, 0
9, 39216, Note_on_c, 7, 53, 95
9, 39237, Note_on_c, 7, 53, 0
9, 39240, Note_on_c, 7, 50, 95
9, 39261, Note_on_c, 7, 50, 0
9, 39264, Note_on_c, 7, 45, 95
9, 39285, Note_on_c, 7, 45, 0
9, 39288, Note_on_c, 7, 58, 95
9, 39309, Note_on_c, 7, 58, 0
9, 39312, Note_on_c, 7, 55, 95
9, 39333, Note_on_c, 7, 55, 0
9, 39336, Note_on_c, 7, 52, 95
9, 39357, Note_on_c, 7, 52, 0
9, 39360, Note_on_c, 7, 45, 95
9, 39381, Note_on_c, 7, 45, 0
9, 39384, Note_on_c, 7, 58, 95
9, 39405, Note_on_c, 7, 58, 0
9, 39408, Note_on_c, 7, 55, 95
9, 39429, Note_on_c, 7, 55, 0
9, 39432, Note_on_c, 7, 52, 95
9, 39453, Note_on_c, 7, 52, 0
9, 39456, Note_on_c, 7, 45, 95
9, 39477, Note_on_c, 7, 45, 0
9, 39480, Note_on_c, 7, 59, 95
9, 39501, Note_on_c, 7, 59, 0
9, 39504, Note_on_c, 7, 56, 95
9, 39525, Note_on_c, 7, 56, 0
9, 39528, Note_on_c, 7, 53, 95
9, 39549, Note_on_c, 7, 53, 0
9, 39552, Note_on_c, 7, 45, 95
9, 39573, Note_on_c, 7, 45, 0
9, 39576, Note_on_c, 7, 59, 95
9, 39597, Note_on_c, 7, 59, 0
9, 39600, Note_on_c, 7, 56, 95
9, 39621, Note_on_c, 7, 56, 0
9, 39624, Note_on_c, 7, 53, 95
9, 39645, Note_on_c, 7, 53, 0
9, 39648, Note_on_c, 7, 45, 95
9, 39669, Note_on_c, 7, 45, 0
9, 39672, Note_on_c, 7, 61, 95
9, 39693, Note_on_c, 7, 61, 0
9, 39696, Note_on_c, 7, 58, 95
9, 39717, Note_on_c, 7, 58, 0
9, 39720, Note_on_c, 7, 55, 95
9, 39741, Note_on_c, 7, 55, 0
9, 39744, Note_on_c, 7, 45, 95
9, 39765, Note_on_c, 7, 45, 0
9, 39768, Note_on_c, 7, 61, 95
9, 39789, Note_on_c, 7, 61, 0
9, 39792, Note_on_c, 7, 58, 95
9, 39813, Note_on_c, 7, 58, 0
9, 39816, Note_on_c, 7, 55, 95
9, 39837, Note_on_c, 7, 55, 0
9, 39840, Note_on_c, 7, 45, 95
9, 39861, Note_on_c, 7, 45, 0
9, 39864, Note_on_c, 7, 62, 95
9, 39885, Note_on_c, 7, 62, 0
9, 39888, Note_on_c, 7, 57, 95
9, 39909, Note_on_c, 7, 57, 0
9, 39912, Note_on_c, 7, 53, 95
9, 39933, Note_on_c, 7, 53, 0
9, 39936, Note_on_c, 7, 45, 95
9, 39957, Note_on_c, 7, 45, 0
9, 39960, Note_on_c, 7, 57, 95
9, 39981, Note_on_c, 7, 57, 0
9, 39984, Note_on_c, 7, 53, 95
9, 40005, Note_on_c, 7, 53, 0
9, 40008, Note_on_c, 7, 50, 95
9, 40029, Note_on_c, 7, 50, 0
9, 40032, Note_on_c, 7, 45, 95
9, 40053, Note_on_c, 7, 45, 0
9, 40056, Note_on_c, 7, 61, 95
9, 40077, Note_on_c, 7, 61, 0
9, 40080, Note_on_c, 7, 45, 95
9, 40101, Note_on_c, 7, 45, 0
9, 40104, Note_on_c, 7, 61, 95
9, 40125, Note_on_c, 7, 61, 0
9, 40128, Note_on_c, 7, 45, 95
9, 40149, Note_on_c, 7, 45, 0
9, 40152, Note_on_c, 7, 61, 95
9, 40173, Note_on_c, 7, 61, 0
9, 40176, Note_on_c, 7, 45, 95
9, 40197, Note_on_c, 7, 45, 0
9, 40200, Note_on_c, 7, 61, 95
9, 40221, Note_on_c, 7, 61, 0
9, 40224, Note_on_c, 7, 45, 95
9, 40245, Note_on_c, 7, 45, 0
9, 40248, Note_on_c, 7, 62, 95
9, 40269, Note_on_c, 7, 62, 0
9, 40272, Note_on_c, 7, 45, 95
9, 40293, Note_on_c, 7, 45, 0
9, 40296, Note_on_c, 7, 62, 95
9, 40317, Note_on_c, 7, 62, 0
9, 40320, Note_on_c, 7, 45, 95
9, 40341, Note_on_c, 7, 45, 0
9, 40344, Note_on_c, 7, 62, 95
9, 40365, Note_on_c, 7, 62, 0
9, 40368, Note_on_c, 7, 45, 95
9, 40389, Note_on_c, 7, 45, 0
9, 40392, Note_on_c, 7, 62, 95
9, 40413, Note_on_c, 7, 62, 0
9, 40416, Note_on_c, 7, 45, 95
9, 40437, Note_on_c, 7, 45, 0
9, 40440, Note_on_c, 7, 56, 95
9, 40461, Note_on_c, 7, 56, 0
9, 40464, Note_on_c, 7, 45, 95
9, 40485, Note_on_c, 7, 45, 0
9, 40488, Note_on_c, 7, 56, 95
9, 40509, Note_on_c, 7, 56, 0
9, 40512, Note_on_c, 7, 45, 95
9, 40533, Note_on_c, 7, 45, 0
9, 40536, Note_on_c, 7, 56, 95
9, 40557, Note_on_c, 7, 56, 0
9, 40560, Note_on_c, 7, 45, 95
9, 40581, Note_on_c, 7, 45, 0
9, 40584, Note_on_c, 7, 56, 95
9, 40605, Note_on_c, 7, 56, 0
9, 40608, Note_on_c, 7, 45, 95
9, 40629, Note_on_c, 7, 45, 0
9, 40632, Note_on_c, 7, 55, 95
9, 40653, Note_on_c, 7, 55, 0
9, 40656, Note_on_c, 7, 45, 95
9, 40677, Note_on_c, 7, 45, 0
9, 40680, Note_on_c, 7, 55, 95
9, 40701, Note_on_c, 7, 55, 0
9, 40704, Note_on_c, 7, 45, 95
9, 40725, Note_on_c, 7, 45, 0
9, 40728, Note_on_c, 7, 55, 95
9, 40749, Note_on_c, 7, 55, 0
9, 40752, Note_on_c, 7, 45, 95
9, 40773, Note_on_c, 7, 45, 0
9, 40776, Note_on_c, 7, 55, 95
9, 40797, Note_on_c, 7, 55, 0
9, 40800, Note_on_c, 7, 45, 95
9, 40821, Note_on_c, 7, 45, 0
9, 40824, Note_on_c, 7, 55, 95
9, 40845, Note_on_c, 7, 55, 0
9, 40848, Note_on_c, 7, 45, 95
9, 40869, Note_on_c, 7, 45, 0
9, 40872, Note_on_c, 7, 55, 95
9, 40893, Note_on_c, 7, 55, 0
9, 40896, Note_on_c, 7, 46, 95
9, 40917, Note_on_c, 7, 46, 0
9, 40920, Note_on_c, 7, 55, 95
9, 40941, Note_on_c, 7, 55, 0
9, 40944, Note_on_c, 7, 46, 95
9, 40965, Note_on_c, 7, 46, 0
9, 40968, Note_on_c, 7, 55, 95
9, 40989, Note_on_c, 7, 55, 0
9, 40992, Note_on_c, 7, 47, 95
9, 40999, Note_on_c, 7, 47, 0
9, 41000, Note_on_c, 7, 50, 95
9, 41007, Note_on_c, 7, 50, 0
9, 41008, Note_on_c, 7, 49, 95
9, 41015, Note_on_c, 7, 49, 0
9, 41016, Note_on_c, 7, 47, 95
9, 41016, Note_on_c, 7, 47, 95
9, 41023, Note_on_c, 7, 47, 0
9, 41024, Note_on_c, 7, 49, 95
9, 41031, Note_on_c, 7, 49, 0
9, 41032, Note_on_c, 7, 50, 95
9, 41039, Note_on_c, 7, 50, 0
9, 41040, Note_on_c, 7, 47, 95
9, 41040, Note_on_c, 7, 52, 95
9, 41047, Note_on_c, 7, 52, 0
9, 41048, Note_on_c, 7, 50, 95
9, 41054, Note_on_c, 7, 47, 0
9, 41055, Note_on_c, 7, 50, 0
9, 41056, Note_on_c, 7, 52, 95
9, 41063, Note_on_c, 7, 52, 0
9, 41064, Note_on_c, 7, 45, 95
9, 41064, Note_on_c, 7, 54, 95
9, 41071, Note_on_c, 7, 54, 0
9, 41072, Note_on_c, 7, 52, 95
9, 41078, Note_on_c, 7, 45, 0
9, 41079, Note_on_c, 7, 52, 0
9, 41080, Note_on_c, 7, 54, 95
9, 41087, Note_on_c, 7, 54, 0
9, 41088, Note_on_c, 7, 43, 95
9, 41098, Note_on_c, 7, 43, 0
9, 41100, Note_on_c, 7, 55, 95
9, 41110, Note_on_c, 7, 55, 0
9, 41112, Note_on_c, 7, 45, 95
9, 41122, Note_on_c, 7, 45, 0
9, 41124, Note_on_c, 7, 55, 95
9, 41134, Note_on_c, 7, 55, 0
9, 41136, Note_on_c, 7, 47, 95
9, 41146, Note_on_c, 7, 47, 0
9, 41148, Note_on_c, 7, 55, 95
9, 41158, Note_on_c, 7, 55, 0
9, 41160, Note_on_c, 7, 43, 95
9, 41170, Note_on_c, 7, 43, 0
9, 41172, Note_on_c, 7, 55, 95
9, 41182, Note_on_c, 7, 55, 0
9, 41184, Note_on_c, 7, 49, 95
9, 41194, Note_on_c, 7, 49, 0
9, 41196, Note_on_c, 7, 55, 95
9, 41206, Note_on_c, 7, 55, 0
9, 41208, Note_on_c, 7, 50, 95
9, 41218, Note_on_c, 7, 50, 0
9, 41220, Note_on_c, 7, 55, 95
9, 41230, Note_on_c, 7, 55, 0
9, 41232, Note_on_c, 7, 52, 95
9, 41242, Note_on_c, 7, 52, 0
9, 41244, Note_on_c, 7, 55, 95
9, 41254, Note_on_c, 7, 55, 0
9, 41256, Note_on_c, 7, 49, 95
9, 41266, Note_on_c, 7, 49, 0
9, 41268, Note_on_c, 7, 55, 95
9, 41278, Note_on_c, 7, 55, 0
9, 41280, Note_on_c, 7, 42, 95
9, 41290, Note_on_c, 7, 42, 0
9, 41292, Note_on_c, 7, 54, 95
9, 41302, Note_on_c, 7, 54, 0
9, 41304, Note_on_c, 7, 43, 95
9, 41314, Note_on_c, 7, 43, 0
9, 41316, Note_on_c, 7, 54, 95
9, 41326, Note_on_c, 7, 54, 0
9, 41328, Note_on_c, 7, 45, 95
9, 41338, Note_on_c, 7, 45, 0
9, 41340, Note_on_c, 7, 54, 95
9, 41350, Note_on_c, 7, 54, 0
9, 41352, Note_on_c, 7, 42, 95
9, 41362, Note_on_c, 7, 42, 0
9, 41364, Note_on_c, 7, 54, 95
9, 41374, Note_on_c, 7, 54, 0
9, 41376, Note_on_c, 7, 47, 95
9, 41386, Note_on_c, 7, 47, 0
9, 41388, Note_on_c, 7, 54, 95
9, 41398, Note_on_c, 7, 54, 0
9, 41400, Note_on_c, 7, 49, 95
9, 41410, Note_on_c, 7, 49, 0
9, 41412, Note_on_c, 7, 54, 95
9, 41422, Note_on_c, 7, 54, 0
9, 41424, Note_on_c, 7, 50, 95
9, 41434, Note_on_c, 7, 50, 0
9, 41436, Note_on_c, 7, 54, 95
9, 41446, Note_on_c, 7, 54, 0
9, 41448, Note_on_c, 7, 47, 95
9, 41458, Note_on_c, 7, 47, 0
9, 41460, Note_on_c, 7, 54, 95
9, 41470, Note_on_c, 7, 54, 0
9, 41472, Note_on_c, 7, 40, 95
9, 41482, Note_on_c, 7, 40, 0
9, 41484, Note_on_c, 7, 52, 95
9, 41494, Note_on_c, 7, 52, 0
9, 41496, Note_on_c, 7, 42, 95
9, 41506, Note_on_c, 7, 42, 0
9, 41508, Note_on_c, 7, 52, 95
9, 41518, Note_on_c, 7, 52, 0
9, 41520, Note_on_c, 7, 43, 95
9, 41530, Note_on_c, 7, 43, 0
9, 41532, Note_on_c, 7, 52, 95
9, 41542, Note_on_c, 7, 52, 0
9, 41544, Note_on_c, 7, 40, 95
9, 41554, Note_on_c, 7, 40, 0
9, 41556, Note_on_c, 7, 52, 95
9, 41566, Note_on_c, 7, 52, 0
9, 41568, Note_on_c, 7, 45, 95
9, 41578, Note_on_c, 7, 45, 0
9, 41580, Note_on_c, 7, 52, 95
9, 41590, Note_on_c, 7, 52, 0
9, 41592, Note_on_c, 7, 47, 95
9, 41602, Note_on_c, 7, 47, 0
9, 41604, Note_on_c, 7, 52, 95
9, 41614, Note_on_c, 7, 52, 0
9, 41616, Note_on_c, 7, 49, 95
9, 41626, Note_on_c, 7, 49, 0
9, 41628, Note_on_c, 7, 52, 95
9, 41638, Note_on_c, 7, 52, 0
9, 41640, Note_on_c, 7, 45, 95
9, 41650, Note_on_c, 7, 45, 0
9, 41652, Note_on_c, 7, 52, 95
9, 41662, Note_on_c, 7, 52, 0
9, 41664, Note_on_c, 7, 38, 95
9, 41674, Note_on_c, 7, 38, 0
9, 41676, Note_on_c, 7, 50, 95
9, 41686, Note_on_c, 7, 50, 0
9, 41688, Note_on_c, 7, 40, 95
9, 41698, Note_on_c, 7, 40, 0
9, 41700, Note_on_c, 7, 50, 95
9, 41710, Note_on_c, 7, 50, 0
9, 41712, Note_on_c, 7, 42, 95
9, 41722, Note_on_c, 7, 42, 0
9, 41724, Note_on_c, 7, 50, 95
9, 41734, Note_on_c, 7, 50, 0
9, 41736, Note_on_c, 7, 40, 95
9, 41746, Note_on_c, 7, 40, 0
9, 41748, Note_on_c, 7, 50, 95
9, 41758, Note_on_c, 7, 50, 0
9, 41760, Note_on_c, 7, 42, 95
9, 41770, Note_on_c, 7, 42, 0
9, 41772, Note_on_c, 7, 50, 95
9, 41782, Note_on_c, 7, 50, 0
9, 41784, Note_on_c, 7, 43, 95
9, 41794, Note_on_c, 7, 43, 0
9, 41796, Note_on_c, 7, 50, 95
9, 41806, Note_on_c, 7, 50, 0
9, 41808, Note_on_c, 7, 45, 95
9, 41818, Note_on_c, 7, 45, 0
9, 41820, Note_on_c, 7, 50, 95
9, 41830, Note_on_c, 7, 50, 0
9, 41832, Note_on_c, 7, 46, 95
9, 41842, Note_on_c, 7, 46, 0
9, 41844, Note_on_c, 7, 49, 95
9, 41854, Note_on_c, 7, 49, 0
9, 41856, Note_on_c, 7, 47, 95
9, 41866, Note_on_c, 7, 47, 0
9, 41868, Note_on_c, 7, 54, 95
9, 41878, Note_on_c, 7, 54, 0
9, 41880, Note_on_c, 7, 59, 95
9, 41890, Note_on_c, 7, 59, 0
9, 41892, Note_on_c, 7, 55, 95
9, 41902, Note_on_c, 7, 55, 0
9, 41904, Note_on_c, 7, 57, 95
9, 41924, Note_on_c, 7, 57, 0
9, 41928, Note_on_c, 7, 45, 95
9, 41948, Note_on_c, 7, 45, 0
9, 41952, Control_c, 7, 10, 36
9, 41952, Control_c, 7, 7, 96
9, 41952, Pitch_bend_c, 7, 8192
9, 41952, Control_c, 7, 1, 0
9, 41952, Program_c, 7, 18
9, 41952, Control_c, 7, 64, 0
9, 41952, Note_on_c, 7, 57, 79
9, 41952, Note_on_c, 7, 50, 79
9, 41952, Note_on_c, 7, 54, 79
9, 42000, Note_on_c, 7, 50, 0
9, 42000, Note_on_c, 7, 54, 0
9, 42000, Note_on_c, 7, 57, 0
9, 42024, Note_on_c, 7, 50, 79
9, 42040, Note_on_c, 7, 50, 0
9, 42048, Note_on_c, 7, 57, 79
9, 42064, Note_on_c, 7, 57, 0
9, 42072, Note_on_c, 7, 59, 79
9, 42088, Note_on_c, 7, 59, 0
9, 42096, Note_on_c, 7, 61, 79
9, 42112, Note_on_c, 7, 61, 0
9, 42120, Note_on_c, 7, 57, 79
9, 42136, Note_on_c, 7, 57, 0
9, 42144, Note_on_c, 7, 54, 79
9, 42160, Note_on_c, 7, 54, 0
9, 42168, Note_on_c, 7, 52, 79
9, 42184, Note_on_c, 7, 52, 0
9, 42192, Note_on_c, 7, 54, 79
9, 42208, Note_on_c, 7, 54, 0
9, 42216, Note_on_c, 7, 50, 79
9, 42232, Note_on_c, 7, 50, 0
9, 42240, Note_on_c, 7, 57, 79
9, 42256, Note_on_c, 7, 57, 0
9, 42264, Note_on_c, 7, 59, 79
9, 42280, Note_on_c, 7, 59, 0
9, 42288, Note_on_c, 7, 61, 79
9, 42304, Note_on_c, 7, 61, 0
9, 42312, Note_on_c, 7, 57, 79
9, 42328, Note_on_c, 7, 57, 0
9, 42336, Note_on_c, 7, 62, 79
9, 42352, Note_on_c, 7, 62, 0
9, 42360, Note_on_c, 7, 61, 79
9, 42376, Note_on_c, 7, 61, 0
9, 42384, Note_on_c, 7, 59, 79
9, 42400, Note_on_c, 7, 59, 0
9, 42408, Note_on_c, 7, 57, 79
9, 42424, Note_on_c, 7, 57, 0
9, 42432, Note_on_c, 7, 55, 79
9, 42448, Note_on_c, 7, 55, 0
9, 42456, Note_on_c, 7, 54, 79
9, 42472, Note_on_c, 7, 54, 0
9, 42480, Note_on_c, 7, 52, 79
9, 42496, Note_on_c, 7, 52, 0
9, 42504, Note_on_c, 7, 50, 79
9, 42520, Note_on_c, 7, 50, 0
9, 42528, Note_on_c, 7, 49, 79
9, 42544, Note_on_c, 7, 49, 0
9, 42552, Note_on_c, 7, 50, 79
9, 42568, Note_on_c, 7, 50, 0
9, 42576, Note_on_c, 7, 43, 79
9, 42592, Note_on_c, 7, 43, 0
9, 42600, Note_on_c, 7, 42, 79
9, 42616, Note_on_c, 7, 42, 0
9, 42624, Note_on_c, 7, 40, 79
9, 42640, Note_on_c, 7, 40, 0
9, 42648, Note_on_c, 7, 38, 79
9, 42664, Note_on_c, 7, 38, 0
9, 42672, Note_on_c, 7, 37, 79
9, 42688, Note_on_c, 7, 37, 0
9, 42696, Note_on_c, 7, 49, 79
9, 42712, Note_on_c, 7, 49, 0
9, 42720, Note_on_c, 7, 50, 79
9, 42736, Note_on_c, 7, 50, 0
9, 42744, Note_on_c, 7, 47, 79
9, 42760, Note_on_c, 7, 47, 0
9, 42768, Note_on_c, 7, 43, 79
9, 42784, Note_on_c, 7, 43, 0
9, 42792, Note_on_c, 7, 45, 79
9, 42808, Note_on_c, 7, 45, 0
9, 42816, Note_on_c, 7, 47, 79
9, 42824, Note_on_c, 7, 47, 0
9, 42828, Note_on_c, 7, 49, 79
9, 42836, Note_on_c, 7, 49, 0
9, 42840, Note_on_c, 7, 50, 79
9, 42848, Note_on_c, 7, 50, 0
9, 42852, Note_on_c, 7, 52, 79
9, 42860, Note_on_c, 7, 52, 0
9, 42864, Note_on_c, 7, 54, 79
9, 42872, Note_on_c, 7, 54, 0
9, 42876, Note_on_c, 7, 55, 79
9, 42884, Note_on_c, 7, 55, 0
9, 42888, Note_on_c, 7, 57, 79
9, 42896, Note_on_c, 7, 57, 0
9, 42900, Note_on_c, 7, 54, 79
9, 42908, Note_on_c, 7, 54, 0
9, 42912, Note_on_c, 7, 59, 79
9, 42928, Note_on_c, 7, 59, 0
9, 42936, Note_on_c, 7, 57, 79
9, 42952, Note_on_c, 7, 57, 0
9, 42960, Note_on_c, 7, 55, 79
9, 42976, Note_on_c, 7, 55, 0
9, 42984, Note_on_c, 7, 54, 79
9, 43000, Note_on_c, 7, 54, 0
9, 43008, Note_on_c, 7, 52, 79
9, 43024, Note_on_c, 7, 52, 0
9, 43032, Note_on_c, 7, 50, 79
9, 43048, Note_on_c, 7, 50, 0
9, 43056, Note_on_c, 7, 49, 79
9, 43072, Note_on_c, 7, 49, 0
9, 43080, Note_on_c, 7, 45, 79
9, 43096, Note_on_c, 7, 45, 0
9, 43104, Note_on_c, 7, 50, 79
9, 43120, Note_on_c, 7, 50, 0
9, 43128, Note_on_c, 7, 54, 79
9, 43144, Note_on_c, 7, 54, 0
9, 43152, Note_on_c, 7, 55, 79
9, 43168, Note_on_c, 7, 55, 0
9, 43176, Note_on_c, 7, 57, 79
9, 43184, Note_on_c, 7, 57, 0
9, 43188, Note_on_c, 7, 55, 79
9, 43196, Note_on_c, 7, 55, 0
9, 43200, Note_on_c, 7, 54, 79
9, 43216, Note_on_c, 7, 54, 0
9, 43224, Note_on_c, 7, 55, 79
9, 43240, Note_on_c, 7, 55, 0
9, 43272, Note_on_c, 7, 49, 79
9, 43280, Note_on_c, 7, 49, 0
9, 43284, Note_on_c, 7, 49, 79
9, 43292, Note_on_c, 7, 49, 0
9, 43296, Note_on_c, 7, 50, 79
9, 43304, Note_on_c, 7, 50, 0
9, 43308, Note_on_c, 7, 50, 79
9, 43316, Note_on_c, 7, 50, 0
9, 43320, Note_on_c, 7, 49, 79
9, 43328, Note_on_c, 7, 49, 0
9, 43332, Note_on_c, 7, 49, 79
9, 43340, Note_on_c, 7, 49, 0
9, 43344, Note_on_c, 7, 50, 79
9, 43352, Note_on_c, 7, 50, 0
9, 43356, Note_on_c, 7, 50, 79
9, 43364, Note_on_c, 7, 50, 0
9, 43368, Note_on_c, 7, 42, 79
9, 43376, Note_on_c, 7, 42, 0
9, 43380, Note_on_c, 7, 42, 79
9, 43388, Note_on_c, 7, 42, 0
9, 43392, Note_on_c, 7, 43, 79
9, 43408, Note_on_c, 7, 43, 0
9, 43416, Note_on_c, 7, 55, 79
9, 43432, Note_on_c, 7, 55, 0
9, 43440, Note_on_c, 7, 57, 79
9, 43456, Note_on_c, 7, 57, 0
9, 43464, Note_on_c, 7, 45, 79
9, 43480, Note_on_c, 7, 45, 0
9, 43488, Note_on_c, 7, 50, 79
9, 43520, Note_on_c, 7, 50, 0
9, 43520, End_track
10, 0, Start_track
10, 0, Title_t, "Cembalo RH"
10, 0, Control_c, 8, 10, 90
10, 0, Control_c, 8, 7, 96
10, 0, Pitch_bend_c, 8, 8192
10, 0, Control_c, 8, 1, 0
10, 0, Program_c, 8, 16
10, 0, Control_c, 8, 64, 0
10, 0, Note_on_c, 8, 69, 79
10, 0, Note_on_c, 8, 62, 79
10, 0, Note_on_c, 8, 66, 79
10, 0, Note_on_c, 8, 74, 79
10, 48, Note_on_c, 8, 62, 0
10, 48, Note_on_c, 8, 66, 0
10, 48, Note_on_c, 8, 69, 0
10, 48, Note_on_c, 8, 74, 0
10, 1548, Note_on_c, 8, 81, 79
10, 1552, Note_on_c, 8, 81, 0
10, 1554, Note_on_c, 8, 79, 79
10, 1558, Note_on_c, 8, 79, 0
10, 1560, Note_on_c, 8, 78, 79
10, 1568, Note_on_c, 8, 78, 0
10, 1572, Note_on_c, 8, 81, 79
10, 1580, Note_on_c, 8, 81, 0
10, 1584, Note_on_c, 8, 76, 79
10, 1592, Note_on_c, 8, 76, 0
10, 1596, Note_on_c, 8, 81, 79
10, 1604, Note_on_c, 8, 81, 0
10, 1608, Note_on_c, 8, 74, 79
10, 1616, Note_on_c, 8, 74, 0
10, 1620, Note_on_c, 8, 81, 79
10, 1628, Note_on_c, 8, 81, 0
10, 1632, Note_on_c, 8, 73, 79
10, 1640, Note_on_c, 8, 73, 0
10, 1644, Note_on_c, 8, 81, 79
10, 1652, Note_on_c, 8, 81, 0
10, 1656, Note_on_c, 8, 74, 79
10, 1664, Note_on_c, 8, 74, 0
10, 1668, Note_on_c, 8, 81, 79
10, 1676, Note_on_c, 8, 81, 0
10, 1680, Note_on_c, 8, 73, 79
10, 1688, Note_on_c, 8, 73, 0
10, 1692, Note_on_c, 8, 81, 79
10, 1700, Note_on_c, 8, 81, 0
10, 1704, Note_on_c, 8, 71, 79
10, 1712, Note_on_c, 8, 71, 0
10, 1716, Note_on_c, 8, 81, 79
10, 1724, Note_on_c, 8, 81, 0
10, 1728, Note_on_c, 8, 69, 79
10, 1744, Note_on_c, 8, 69, 0
10, 1752, Note_on_c, 8, 73, 79
10, 1757, Note_on_c, 8, 73, 0
10, 1760, Note_on_c, 8, 71, 79
10, 1765, Note_on_c, 8, 71, 0
10, 1768, Note_on_c, 8, 73, 79
10, 1773, Note_on_c, 8, 73, 0
10, 1776, Note_on_c, 8, 74, 79
10, 1781, Note_on_c, 8, 74, 0
10, 1784, Note_on_c, 8, 73, 79
10, 1789, Note_on_c, 8, 73, 0
10, 1792, Note_on_c, 8, 74, 79
10, 1797, Note_on_c, 8, 74, 0
10, 1800, Note_on_c, 8, 76, 79
10, 1805, Note_on_c, 8, 76, 0
10, 1808, Note_on_c, 8, 74, 79
10, 1813, Note_on_c, 8, 74, 0
10, 1816, Note_on_c, 8, 76, 79
10, 1821, Note_on_c, 8, 76, 0
10, 1824, Note_on_c, 8, 78, 79
10, 1832, Note_on_c, 8, 78, 0
10, 1836, Note_on_c, 8, 76, 79
10, 1844, Note_on_c, 8, 76, 0
10, 1848, Note_on_c, 8, 74, 79
10, 1856, Note_on_c, 8, 74, 0
10, 1860, Note_on_c, 8, 76, 79
10, 1868, Note_on_c, 8, 76, 0
10, 1872, Note_on_c, 8, 78, 79
10, 1880, Note_on_c, 8, 78, 0
10, 1884, Note_on_c, 8, 79, 79
10, 1892, Note_on_c, 8, 79, 0
10, 1896, Note_on_c, 8, 81, 79
10, 1904, Note_on_c, 8, 81, 0
10, 1908, Note_on_c, 8, 83, 79
10, 1916, Note_on_c, 8, 83, 0
10, 1920, Note_on_c, 8, 76, 79
10, 1928, Note_on_c, 8, 76, 0
10, 1932, Note_on_c, 8, 78, 79
10, 1940, Note_on_c, 8, 78, 0
10, 1944, Note_on_c, 8, 76, 79
10, 1952, Note_on_c, 8, 76, 0
10, 1956, Note_on_c, 8, 74, 79
10, 1964, Note_on_c, 8, 74, 0
10, 1968, Note_on_c, 8, 73, 79
10, 1976, Note_on_c, 8, 73, 0
10, 1980, Note_on_c, 8, 71, 79
10, 1988, Note_on_c, 8, 71, 0
10, 1992, Note_on_c, 8, 69, 79
10, 2000, Note_on_c, 8, 69, 0
10, 2004, Note_on_c, 8, 67, 79
10, 2012, Note_on_c, 8, 67, 0
10, 2016, Note_on_c, 8, 66, 79
10, 2024, Note_on_c, 8, 66, 0
10, 2028, Note_on_c, 8, 64, 79
10, 2036, Note_on_c, 8, 64, 0
10, 2040, Note_on_c, 8, 66, 79
10, 2048, Note_on_c, 8, 66, 0
10, 2052, Note_on_c, 8, 69, 79
10, 2060, Note_on_c, 8, 69, 0
10, 2064, Note_on_c, 8, 64, 79
10, 2072, Note_on_c, 8, 64, 0
10, 2076, Note_on_c, 8, 69, 79
10, 2084, Note_on_c, 8, 69, 0
10, 2088, Note_on_c, 8, 62, 79
10, 2096, Note_on_c, 8, 62, 0
10, 2100, Note_on_c, 8, 69, 79
10, 2108, Note_on_c, 8, 69, 0
10, 2112, Note_on_c, 8, 61, 79
10, 2120, Note_on_c, 8, 61, 0
10, 2124, Note_on_c, 8, 69, 79
10, 2132, Note_on_c, 8, 69, 0
10, 2136, Note_on_c, 8, 62, 79
10, 2144, Note_on_c, 8, 62, 0
10, 2148, Note_on_c, 8, 69, 79
10, 2156, Note_on_c, 8, 69, 0
10, 2160, Note_on_c, 8, 61, 79
10, 2168, Note_on_c, 8, 61, 0
10, 2172, Note_on_c, 8, 69, 79
10, 2180, Note_on_c, 8, 69, 0
10, 2184, Note_on_c, 8, 59, 79
10, 2192, Note_on_c, 8, 59, 0
10, 2196, Note_on_c, 8, 69, 79
10, 2204, Note_on_c, 8, 69, 0
10, 2208, Note_on_c, 8, 57, 79
10, 2224, Note_on_c, 8, 57, 0
10, 2232, Note_on_c, 8, 61, 79
10, 2237, Note_on_c, 8, 61, 0
10, 2240, Note_on_c, 8, 59, 79
10, 2245, Note_on_c, 8, 59, 0
10, 2248, Note_on_c, 8, 61, 79
10, 2253, Note_on_c, 8, 61, 0
10, 2256, Note_on_c, 8, 62, 79
10, 2261, Note_on_c, 8, 62, 0
10, 2264, Note_on_c, 8, 61, 79
10, 2269, Note_on_c, 8, 61, 0
10, 2272, Note_on_c, 8, 62, 79
10, 2277, Note_on_c, 8, 62, 0
10, 2280, Note_on_c, 8, 64, 79
10, 2285, Note_on_c, 8, 64, 0
10, 2288, Note_on_c, 8, 62, 79
10, 2293, Note_on_c, 8, 62, 0
10, 2296, Note_on_c, 8, 64, 79
10, 2301, Note_on_c, 8, 64, 0
10, 2304, Note_on_c, 8, 66, 79
10, 2312, Note_on_c, 8, 66, 0
10, 2316, Note_on_c, 8, 64, 79
10, 2324, Note_on_c, 8, 64, 0
10, 2328, Note_on_c, 8, 62, 79
10, 2336, Note_on_c, 8, 62, 0
10, 2340, Note_on_c, 8, 64, 79
10, 2348, Note_on_c, 8, 64, 0
10, 2352, Note_on_c, 8, 66, 79
10, 2360, Note_on_c, 8, 66, 0
10, 2364, Note_on_c, 8, 67, 79
10, 2372, Note_on_c, 8, 67, 0
10, 2376, Note_on_c, 8, 69, 79
10, 2384, Note_on_c, 8, 69, 0
10, 2388, Note_on_c, 8, 71, 79
10, 2396, Note_on_c, 8, 71, 0
10, 2400, Note_on_c, 8, 73, 79
10, 2408, Note_on_c, 8, 73, 0
10, 2412, Note_on_c, 8, 74, 79
10, 2420, Note_on_c, 8, 74, 0
10, 2424, Note_on_c, 8, 73, 79
10, 2432, Note_on_c, 8, 73, 0
10, 2436, Note_on_c, 8, 71, 79
10, 2444, Note_on_c, 8, 71, 0
10, 2448, Note_on_c, 8, 69, 79
10, 2456, Note_on_c, 8, 69, 0
10, 2460, Note_on_c, 8, 67, 79
10, 2468, Note_on_c, 8, 67, 0
10, 2472, Note_on_c, 8, 66, 79
10, 2480, Note_on_c, 8, 66, 0
10, 2484, Note_on_c, 8, 64, 79
10, 2492, Note_on_c, 8, 64, 0
10, 2496, Note_on_c, 8, 62, 79
10, 2504, Note_on_c, 8, 62, 0
10, 2508, Note_on_c, 8, 78, 79
10, 2516, Note_on_c, 8, 78, 0
10, 2520, Note_on_c, 8, 76, 79
10, 2528, Note_on_c, 8, 76, 0
10, 2532, Note_on_c, 8, 78, 79
10, 2540, Note_on_c, 8, 78, 0
10, 2544, Note_on_c, 8, 74, 79
10, 2552, Note_on_c, 8, 74, 0
10, 2556, Note_on_c, 8, 78, 79
10, 2564, Note_on_c, 8, 78, 0
10, 2568, Note_on_c, 8, 73, 79
10, 2576, Note_on_c, 8, 73, 0
10, 2580, Note_on_c, 8, 78, 79
10, 2588, Note_on_c, 8, 78, 0
10, 2592, Note_on_c, 8, 71, 79
10, 2600, Note_on_c, 8, 71, 0
10, 2604, Note_on_c, 8, 78, 79
10, 2612, Note_on_c, 8, 78, 0
10, 2616, Note_on_c, 8, 69, 79
10, 2624, Note_on_c, 8, 69, 0
10, 2628, Note_on_c, 8, 78, 79
10, 2636, Note_on_c, 8, 78, 0
10, 2640, Note_on_c, 8, 68, 79
10, 2648, Note_on_c, 8, 68, 0
10, 2652, Note_on_c, 8, 78, 79
10, 2660, Note_on_c, 8, 78, 0
10, 2664, Note_on_c, 8, 66, 79
10, 2672, Note_on_c, 8, 66, 0
10, 2676, Note_on_c, 8, 78, 79
10, 2684, Note_on_c, 8, 78, 0
10, 2688, Note_on_c, 8, 64, 79
10, 2696, Note_on_c, 8, 64, 0
10, 2700, Note_on_c, 8, 76, 79
10, 2708, Note_on_c, 8, 76, 0
10, 2712, Note_on_c, 8, 74, 79
10, 2720, Note_on_c, 8, 74, 0
10, 2724, Note_on_c, 8, 76, 79
10, 2732, Note_on_c, 8, 76, 0
10, 2736, Note_on_c, 8, 73, 79
10, 2744, Note_on_c, 8, 73, 0
10, 2748, Note_on_c, 8, 76, 79
10, 2756, Note_on_c, 8, 76, 0
10, 2760, Note_on_c, 8, 71, 79
10, 2768, Note_on_c, 8, 71, 0
10, 2772, Note_on_c, 8, 76, 79
10, 2780, Note_on_c, 8, 76, 0
10, 2784, Note_on_c, 8, 69, 79
10, 2792, Note_on_c, 8, 69, 0
10, 2796, Note_on_c, 8, 76, 79
10, 2804, Note_on_c, 8, 76, 0
10, 2808, Note_on_c, 8, 68, 79
10, 2816, Note_on_c, 8, 68, 0
10, 2820, Note_on_c, 8, 76, 79
10, 2828, Note_on_c, 8, 76, 0
10, 2832, Note_on_c, 8, 66, 79
10, 2840, Note_on_c, 8, 66, 0
10, 2844, Note_on_c, 8, 76, 79
10, 2852, Note_on_c, 8, 76, 0
10, 2856, Note_on_c, 8, 64, 79
10, 2864, Note_on_c, 8, 64, 0
10, 2868, Note_on_c, 8, 76, 79
10, 2876, Note_on_c, 8, 76, 0
10, 2880, Note_on_c, 8, 62, 79
10, 2888, Note_on_c, 8, 62, 0
10, 2892, Note_on_c, 8, 74, 79
10, 2900, Note_on_c, 8, 74, 0
10, 2904, Note_on_c, 8, 73, 79
10, 2912, Note_on_c, 8, 73, 0
10, 2916, Note_on_c, 8, 74, 79
10, 2924, Note_on_c, 8, 74, 0
10, 2928, Note_on_c, 8, 71, 79
10, 2936, Note_on_c, 8, 71, 0
10, 2940, Note_on_c, 8, 74, 79
10, 2948, Note_on_c, 8, 74, 0
10, 2952, Note_on_c, 8, 69, 79
10, 2960, Note_on_c, 8, 69, 0
10, 2964, Note_on_c, 8, 74, 79
10, 2972, Note_on_c, 8, 74, 0
10, 2976, Note_on_c, 8, 68, 79
10, 2984, Note_on_c, 8, 68, 0
10, 2988, Note_on_c, 8, 74, 79
10, 2996, Note_on_c, 8, 74, 0
10, 3000, Note_on_c, 8, 66, 79
10, 3008, Note_on_c, 8, 66, 0
10, 3012, Note_on_c, 8, 74, 79
10, 3020, Note_on_c, 8, 74, 0
10, 3024, Note_on_c, 8, 64, 79
10, 3032, Note_on_c, 8, 64, 0
10, 3036, Note_on_c, 8, 74, 79
10, 3044, Note_on_c, 8, 74, 0
10, 3048, Note_on_c, 8, 68, 79
10, 3056, Note_on_c, 8, 68, 0
10, 3060, Note_on_c, 8, 74, 79
10, 3068, Note_on_c, 8, 74, 0
10, 3072, Note_on_c, 8, 73, 79
10, 3080, Note_on_c, 8, 73, 0
10, 3084, Note_on_c, 8, 69, 79
10, 3092, Note_on_c, 8, 69, 0
10, 3096, Note_on_c, 8, 74, 79
10, 3104, Note_on_c, 8, 74, 0
10, 3108, Note_on_c, 8, 69, 79
10, 3116, Note_on_c, 8, 69, 0
10, 3120, Note_on_c, 8, 76, 79
10, 3128, Note_on_c, 8, 76, 0
10, 3132, Note_on_c, 8, 69, 79
10, 3140, Note_on_c, 8, 69, 0
10, 3144, Note_on_c, 8, 73, 79
10, 3152, Note_on_c, 8, 73, 0
10, 3156, Note_on_c, 8, 76, 79
10, 3164, Note_on_c, 8, 76, 0
10, 3168, Note_on_c, 8, 78, 79
10, 3176, Note_on_c, 8, 78, 0
10, 3180, Note_on_c, 8, 74, 79
10, 3188, Note_on_c, 8, 74, 0
10, 3192, Note_on_c, 8, 81, 79
10, 3200, Note_on_c, 8, 81, 0
10, 3204, Note_on_c, 8, 73, 79
10, 3212, Note_on_c, 8, 73, 0
10, 3216, Note_on_c, 8, 74, 79
10, 3224, Note_on_c, 8, 74, 0
10, 3228, Note_on_c, 8, 76, 79
10, 3236, Note_on_c, 8, 76, 0
10, 3240, Note_on_c, 8, 78, 79
10, 3248, Note_on_c, 8, 78, 0
10, 3252, Note_on_c, 8, 74, 79
10, 3260, Note_on_c, 8, 74, 0
10, 3264, Note_on_c, 8, 71, 79
10, 3272, Note_on_c, 8, 71, 0
10, 3276, Note_on_c, 8, 76, 79
10, 3284, Note_on_c, 8, 76, 0
10, 3288, Note_on_c, 8, 74, 79
10, 3296, Note_on_c, 8, 74, 0
10, 3300, Note_on_c, 8, 76, 79
10, 3308, Note_on_c, 8, 76, 0
10, 3312, Note_on_c, 8, 69, 79
10, 3320, Note_on_c, 8, 69, 0
10, 3324, Note_on_c, 8, 81, 79
10, 3332, Note_on_c, 8, 81, 0
10, 3336, Note_on_c, 8, 80, 79
10, 3344, Note_on_c, 8, 80, 0
10, 3348, Note_on_c, 8, 78, 79
10, 3356, Note_on_c, 8, 78, 0
10, 3360, Note_on_c, 8, 76, 79
10, 3368, Note_on_c, 8, 76, 0
10, 3372, Note_on_c, 8, 74, 79
10, 3380, Note_on_c, 8, 74, 0
10, 3384, Note_on_c, 8, 73, 79
10, 3392, Note_on_c, 8, 73, 0
10, 3396, Note_on_c, 8, 76, 79
10, 3404, Note_on_c, 8, 76, 0
10, 3408, Note_on_c, 8, 74, 79
10, 3416, Note_on_c, 8, 74, 0
10, 3420, Note_on_c, 8, 73, 79
10, 3428, Note_on_c, 8, 73, 0
10, 3432, Note_on_c, 8, 71, 79
10, 3440, Note_on_c, 8, 71, 0
10, 3444, Note_on_c, 8, 74, 79
10, 3452, Note_on_c, 8, 74, 0
10, 3456, Note_on_c, 8, 76, 79
10, 3472, Note_on_c, 8, 76, 0
10, 3480, Note_on_c, 8, 73, 79
10, 3496, Note_on_c, 8, 73, 0
10, 3804, Note_on_c, 8, 76, 95
10, 3816, Note_on_c, 8, 76, 0
10, 3816, Note_on_c, 8, 68, 95
10, 3816, Note_on_c, 8, 74, 95
10, 3828, Note_on_c, 8, 74, 0
10, 3828, Note_on_c, 8, 76, 95
10, 3840, Note_on_c, 8, 68, 0
10, 3840, Note_on_c, 8, 76, 0
10, 3840, Note_on_c, 8, 69, 95
10, 3840, Note_on_c, 8, 73, 95
10, 3852, Note_on_c, 8, 73, 0
10, 3852, Note_on_c, 8, 76, 95
10, 3864, Note_on_c, 8, 69, 0
10, 3864, Note_on_c, 8, 76, 0
10, 3864, Note_on_c, 8, 67, 95
10, 3864, Note_on_c, 8, 71, 95
10, 3864, Note_on_c, 8, 76, 95
10, 3876, Note_on_c, 8, 71, 0
10, 3876, Note_on_c, 8, 76, 0
10, 3876, Note_on_c, 8, 69, 95
10, 3876, Note_on_c, 8, 76, 95
10, 3888, Note_on_c, 8, 67, 0
10, 3888, Note_on_c, 8, 69, 0
10, 3888, Note_on_c, 8, 76, 0
10, 3888, Note_on_c, 8, 66, 95
10, 3888, Note_on_c, 8, 69, 95
10, 3900, Note_on_c, 8, 69, 0
10, 3900, Note_on_c, 8, 74, 95
10, 3912, Note_on_c, 8, 66, 0
10, 3912, Note_on_c, 8, 74, 0
10, 3912, Note_on_c, 8, 64, 95
10, 3912, Note_on_c, 8, 67, 95
10, 3924, Note_on_c, 8, 67, 0
10, 3924, Note_on_c, 8, 73, 95
10, 3936, Note_on_c, 8, 64, 0
10, 3936, Note_on_c, 8, 73, 0
10, 3936, Note_on_c, 8, 62, 95
10, 3936, Note_on_c, 8, 66, 95
10, 3936, Note_on_c, 8, 69, 95
10, 3936, Note_on_c, 8, 74, 95
10, 3984, Note_on_c, 8, 62, 0
10, 3984, Note_on_c, 8, 66, 0
10, 3984, Note_on_c, 8, 69, 0
10, 3984, Note_on_c, 8, 74, 0
10, 4044, Note_on_c, 8, 74, 95
10, 4056, Note_on_c, 8, 74, 0
10, 4056, Note_on_c, 8, 78, 95
10, 4068, Note_on_c, 8, 78, 0
10, 4068, Note_on_c, 8, 76, 95
10, 4080, Note_on_c, 8, 76, 0
10, 4080, Note_on_c, 8, 74, 95
10, 4092, Note_on_c, 8, 74, 0
10, 4092, Note_on_c, 8, 73, 95
10, 4104, Note_on_c, 8, 73, 0
10, 4104, Note_on_c, 8, 71, 95
10, 4116, Note_on_c, 8, 71, 0
10, 4116, Note_on_c, 8, 69, 95
10, 4128, Note_on_c, 8, 69, 0
10, 4128, Note_on_c, 8, 68, 95
10, 4140, Note_on_c, 8, 68, 0
10, 4140, Note_on_c, 8, 74, 95
10, 4152, Note_on_c, 8, 74, 0
10, 4152, Note_on_c, 8, 73, 95
10, 4164, Note_on_c, 8, 73, 0
10, 4164, Note_on_c, 8, 71, 95
10, 4176, Note_on_c, 8, 71, 0
10, 4176, Note_on_c, 8, 69, 95
10, 4188, Note_on_c, 8, 69, 0
10, 4188, Note_on_c, 8, 68, 95
10, 4200, Note_on_c, 8, 68, 0
10, 4200, Note_on_c, 8, 66, 95
10, 4212, Note_on_c, 8, 66, 0
10, 4212, Note_on_c, 8, 65, 95
10, 4224, Note_on_c, 8, 65, 0
10, 4224, Note_on_c, 8, 66, 95
10, 4224, Note_on_c, 8, 69, 95
10, 4236, Note_on_c, 8, 69, 0
10, 4236, Note_on_c, 8, 73, 95
10, 4248, Note_on_c, 8, 66, 0
10, 4248, Note_on_c, 8, 73, 0
10, 4248, Note_on_c, 8, 64, 95
10, 4248, Note_on_c, 8, 68, 95
10, 4260, Note_on_c, 8, 68, 0
10, 4260, Note_on_c, 8, 73, 95
10, 4272, Note_on_c, 8, 64, 0
10, 4272, Note_on_c, 8, 73, 0
10, 4272, Note_on_c, 8, 62, 95
10, 4272, Note_on_c, 8, 66, 95
10, 4284, Note_on_c, 8, 66, 0
10, 4284, Note_on_c, 8, 71, 95
10, 4296, Note_on_c, 8, 62, 0
10, 4296, Note_on_c, 8, 71, 0
10, 4296, Note_on_c, 8, 61, 95
10, 4296, Note_on_c, 8, 64, 95
10, 4308, Note_on_c, 8, 64, 0
10, 4308, Note_on_c, 8, 70, 95
10, 4320, Note_on_c, 8, 61, 0
10, 4320, Note_on_c, 8, 70, 0
10, 4320, Note_on_c, 8, 66, 95
10, 4320, Note_on_c, 8, 62, 95
10, 4320, Note_on_c, 8, 59, 95
10, 4320, Note_on_c, 8, 71, 95
10, 4368, Note_on_c, 8, 59, 0
10, 4368, Note_on_c, 8, 62, 0
10, 4368, Note_on_c, 8, 66, 0
10, 4368, Note_on_c, 8, 71, 0
10, 4428, Note_on_c, 8, 68, 95
10, 4440, Note_on_c, 8, 68, 0
10, 4440, Note_on_c, 8, 69, 95
10, 4452, Note_on_c, 8, 69, 0
10, 4452, Note_on_c, 8, 73, 95
10, 4464, Note_on_c, 8, 73, 0
10, 4464, Note_on_c, 8, 71, 95
10, 4476, Note_on_c, 8, 71, 0
10, 4476, Note_on_c, 8, 69, 95
10, 4488, Note_on_c, 8, 69, 0
10, 4488, Note_on_c, 8, 68, 95
10, 4500, Note_on_c, 8, 68, 0
10, 4500, Note_on_c, 8, 66, 95
10, 4512, Note_on_c, 8, 66, 0
10, 4512, Note_on_c, 8, 65, 95
10, 4524, Note_on_c, 8, 65, 0
10, 4524, Note_on_c, 8, 71, 95
10, 4536, Note_on_c, 8, 71, 0
10, 4536, Note_on_c, 8, 69, 95
10, 4548, Note_on_c, 8, 69, 0
10, 4548, Note_on_c, 8, 68, 95
10, 4560, Note_on_c, 8, 68, 0
10, 4560, Note_on_c, 8, 66, 95
10, 4572, Note_on_c, 8, 66, 0
10, 4572, Note_on_c, 8, 64, 95
10, 4584, Note_on_c, 8, 64, 0
10, 4584, Note_on_c, 8, 62, 95
10, 4596, Note_on_c, 8, 62, 0
10, 4596, Note_on_c, 8, 61, 95
10, 4608, Note_on_c, 8, 61, 0
10, 4608, Note_on_c, 8, 62, 95
10, 4620, Note_on_c, 8, 62, 0
10, 4620, Note_on_c, 8, 74, 95
10, 4632, Note_on_c, 8, 74, 0
10, 4632, Note_on_c, 8, 72, 95
10, 4644, Note_on_c, 8, 72, 0
10, 4644, Note_on_c, 8, 74, 95
10, 4656, Note_on_c, 8, 74, 0
10, 4656, Note_on_c, 8, 71, 95
10, 4668, Note_on_c, 8, 71, 0
10, 4668, Note_on_c, 8, 74, 95
10, 4680, Note_on_c, 8, 74, 0
10, 4680, Note_on_c, 8, 69, 95
10, 4680, Note_on_c, 8, 78, 95
10, 4692, Note_on_c, 8, 69, 0
10, 4692, Note_on_c, 8, 72, 95
10, 4704, Note_on_c, 8, 72, 0
10, 4704, Note_on_c, 8, 78, 0
10, 4704, Note_on_c, 8, 67, 95
10, 4704, Note_on_c, 8, 71, 95
10, 4704, Note_on_c, 8, 74, 95
10, 4704, Note_on_c, 8, 79, 95
10, 4752, Note_on_c, 8, 67, 0
10, 4752, Note_on_c, 8, 71, 0
10, 4752, Note_on_c, 8, 74, 0
10, 4752, Note_on_c, 8, 79, 0
10, 4812, Note_on_c, 8, 79, 95
10, 4824, Note_on_c, 8, 79, 0
10, 4824, Note_on_c, 8, 83, 95
10, 4836, Note_on_c, 8, 83, 0
10, 4836, Note_on_c, 8, 81, 95
10, 4848, Note_on_c, 8, 81, 0
10, 4848, Note_on_c, 8, 79, 95
10, 4860, Note_on_c, 8, 79, 0
10, 4860, Note_on_c, 8, 78, 95
10, 4872, Note_on_c, 8, 78, 0
10, 4872, Note_on_c, 8, 76, 95
10, 4884, Note_on_c, 8, 76, 0
10, 4884, Note_on_c, 8, 74, 95
10, 4896, Note_on_c, 8, 74, 0
10, 4896, Note_on_c, 8, 73, 95
10, 4908, Note_on_c, 8, 73, 0
10, 4908, Note_on_c, 8, 74, 95
10, 4920, Note_on_c, 8, 74, 0
10, 4920, Note_on_c, 8, 73, 95
10, 4932, Note_on_c, 8, 73, 0
10, 4932, Note_on_c, 8, 71, 95
10, 4944, Note_on_c, 8, 71, 0
10, 4944, Note_on_c, 8, 69, 95
10, 4956, Note_on_c, 8, 69, 0
10, 4956, Note_on_c, 8, 67, 95
10, 4968, Note_on_c, 8, 67, 0
10, 4968, Note_on_c, 8, 66, 95
10, 4980, Note_on_c, 8, 66, 0
10, 4980, Note_on_c, 8, 64, 95
10, 4992, Note_on_c, 8, 64, 0
10, 4992, Note_on_c, 8, 62, 95
10, 5016, Note_on_c, 8, 62, 0
10, 5040, Note_on_c, 8, 64, 95
10, 5048, Note_on_c, 8, 64, 0
10, 5048, Note_on_c, 8, 62, 95
10, 5056, Note_on_c, 8, 62, 0
10, 5056, Note_on_c, 8, 64, 95
10, 5064, Note_on_c, 8, 64, 0
10, 5064, Note_on_c, 8, 66, 95
10, 5072, Note_on_c, 8, 66, 0
10, 5072, Note_on_c, 8, 64, 95
10, 5080, Note_on_c, 8, 64, 0
10, 5080, Note_on_c, 8, 66, 95
10, 5088, Note_on_c, 8, 66, 0
10, 5088, Note_on_c, 8, 67, 95
10, 5096, Note_on_c, 8, 67, 0
10, 5096, Note_on_c, 8, 66, 95
10, 5104, Note_on_c, 8, 66, 0
10, 5104, Note_on_c, 8, 67, 95
10, 5112, Note_on_c, 8, 67, 0
10, 5112, Note_on_c, 8, 69, 95
10, 5120, Note_on_c, 8, 69, 0
10, 5120, Note_on_c, 8, 71, 95
10, 5128, Note_on_c, 8, 71, 0
10, 5128, Note_on_c, 8, 69, 95
10, 5136, Note_on_c, 8, 69, 0
10, 5136, Note_on_c, 8, 67, 95
10, 5144, Note_on_c, 8, 67, 0
10, 5144, Note_on_c, 8, 69, 95
10, 5152, Note_on_c, 8, 69, 0
10, 5152, Note_on_c, 8, 67, 95
10, 5160, Note_on_c, 8, 67, 0
10, 5160, Note_on_c, 8, 66, 95
10, 5168, Note_on_c, 8, 66, 0
10, 5168, Note_on_c, 8, 67, 95
10, 5176, Note_on_c, 8, 67, 0
10, 5176, Note_on_c, 8, 66, 95
10, 5184, Note_on_c, 8, 66, 0
10, 5184, Note_on_c, 8, 74, 95
10, 5196, Note_on_c, 8, 74, 0
10, 5196, Note_on_c, 8, 71, 95
10, 5208, Note_on_c, 8, 71, 0
10, 5208, Note_on_c, 8, 69, 95
10, 5220, Note_on_c, 8, 69, 0
10, 5220, Note_on_c, 8, 71, 95
10, 5232, Note_on_c, 8, 71, 0
10, 5232, Note_on_c, 8, 68, 95
10, 5244, Note_on_c, 8, 68, 0
10, 5244, Note_on_c, 8, 71, 95
10, 5256, Note_on_c, 8, 71, 0
10, 5256, Note_on_c, 8, 66, 95
10, 5268, Note_on_c, 8, 66, 0
10, 5268, Note_on_c, 8, 71, 95
10, 5280, Note_on_c, 8, 71, 0
10, 5280, Note_on_c, 8, 64, 95
10, 5292, Note_on_c, 8, 64, 0
10, 5292, Note_on_c, 8, 71, 95
10, 5304, Note_on_c, 8, 71, 0
10, 5304, Note_on_c, 8, 62, 95
10, 5316, Note_on_c, 8, 62, 0
10, 5316, Note_on_c, 8, 71, 95
10, 5328, Note_on_c, 8, 71, 0
10, 5328, Note_on_c, 8, 61, 95
10, 5340, Note_on_c, 8, 61, 0
10, 5340, Note_on_c, 8, 69, 95
10, 5352, Note_on_c, 8, 69, 0
10, 5352, Note_on_c, 8, 59, 95
10, 5364, Note_on_c, 8, 59, 0
10, 5364, Note_on_c, 8, 68, 95
10, 5376, Note_on_c, 8, 68, 0
10, 5376, Note_on_c, 8, 61, 47
10, 5376, Note_on_c, 8, 64, 47
10, 5376, Note_on_c, 8, 69, 47
10, 5400, Note_on_c, 8, 61, 0
10, 5400, Note_on_c, 8, 64, 0
10, 5400, Note_on_c, 8, 69, 0
10, 5832, Note_on_c, 8, 71, 47
10, 5856, Note_on_c, 8, 71, 0
10, 5856, Note_on_c, 8, 73, 47
10, 5868, Note_on_c, 8, 73, 0
10, 5868, Note_on_c, 8, 69, 47
10, 5880, Note_on_c, 8, 69, 0
10, 5880, Note_on_c, 8, 71, 47
10, 5892, Note_on_c, 8, 71, 0
10, 5892, Note_on_c, 8, 74, 47
10, 5904, Note_on_c, 8, 74, 0
10, 5904, Note_on_c, 8, 73, 47
10, 5916, Note_on_c, 8, 73, 0
10, 5916, Note_on_c, 8, 76, 47
10, 5928, Note_on_c, 8, 76, 0
10, 5928, Note_on_c, 8, 69, 47
10, 5940, Note_on_c, 8, 69, 0
10, 5940, Note_on_c, 8, 67, 47
10, 5952, Note_on_c, 8, 67, 0
10, 5952, Note_on_c, 8, 66, 47
10, 5964, Note_on_c, 8, 66, 0
10, 5964, Note_on_c, 8, 62, 47
10, 5976, Note_on_c, 8, 62, 0
10, 5976, Note_on_c, 8, 64, 47
10, 5988, Note_on_c, 8, 64, 0
10, 5988, Note_on_c, 8, 67, 47
10, 6000, Note_on_c, 8, 67, 0
10, 6000, Note_on_c, 8, 66, 47
10, 6012, Note_on_c, 8, 66, 0
10, 6012, Note_on_c, 8, 69, 47
10, 6024, Note_on_c, 8, 69, 0
10, 6024, Note_on_c, 8, 62, 47
10, 6036, Note_on_c, 8, 62, 0
10, 6036, Note_on_c, 8, 72, 47
10, 6048, Note_on_c, 8, 72, 0
10, 6048, Note_on_c, 8, 71, 47
10, 6060, Note_on_c, 8, 71, 0
10, 6060, Note_on_c, 8, 67, 47
10, 6072, Note_on_c, 8, 67, 0
10, 6072, Note_on_c, 8, 69, 47
10, 6084, Note_on_c, 8, 69, 0
10, 6084, Note_on_c, 8, 72, 47
10, 6096, Note_on_c, 8, 72, 0
10, 6096, Note_on_c, 8, 71, 47
10, 6108, Note_on_c, 8, 71, 0
10, 6108, Note_on_c, 8, 74, 47
10, 6120, Note_on_c, 8, 74, 0
10, 6120, Note_on_c, 8, 67, 47
10, 6132, Note_on_c, 8, 67, 0
10, 6132, Note_on_c, 8, 66, 47
10, 6144, Note_on_c, 8, 66, 0
10, 6144, Note_on_c, 8, 64, 47
10, 6156, Note_on_c, 8, 64, 0
10, 6156, Note_on_c, 8, 61, 47
10, 6168, Note_on_c, 8, 61, 0
10, 6168, Note_on_c, 8, 62, 47
10, 6180, Note_on_c, 8, 62, 0
10, 6180, Note_on_c, 8, 66, 47
10, 6192, Note_on_c, 8, 66, 0
10, 6192, Note_on_c, 8, 64, 47
10, 6204, Note_on_c, 8, 64, 0
10, 6204, Note_on_c, 8, 67, 47
10, 6216, Note_on_c, 8, 67, 0
10, 6216, Note_on_c, 8, 61, 47
10, 6228, Note_on_c, 8, 61, 0
10, 6228, Note_on_c, 8, 71, 47
10, 6240, Note_on_c, 8, 71, 0
10, 6240, Note_on_c, 8, 70, 47
10, 6252, Note_on_c, 8, 70, 0
10, 6252, Note_on_c, 8, 66, 47
10, 6264, Note_on_c, 8, 66, 0
10, 6264, Note_on_c, 8, 68, 47
10, 6276, Note_on_c, 8, 68, 0
10, 6276, Note_on_c, 8, 71, 47
10, 6288, Note_on_c, 8, 71, 0
10, 6288, Note_on_c, 8, 70, 47
10, 6300, Note_on_c, 8, 70, 0
10, 6300, Note_on_c, 8, 73, 47
10, 6312, Note_on_c, 8, 73, 0
10, 6312, Note_on_c, 8, 66, 47
10, 6324, Note_on_c, 8, 66, 0
10, 6324, Note_on_c, 8, 64, 47
10, 6336, Note_on_c, 8, 64, 0
10, 6336, Note_on_c, 8, 62, 47
10, 6348, Note_on_c, 8, 62, 0
10, 6348, Note_on_c, 8, 59, 47
10, 6360, Note_on_c, 8, 59, 0
10, 6360, Note_on_c, 8, 61, 47
10, 6372, Note_on_c, 8, 61, 0
10, 6372, Note_on_c, 8, 64, 47
10, 6384, Note_on_c, 8, 64, 0
10, 6384, Note_on_c, 8, 62, 47
10, 6396, Note_on_c, 8, 62, 0
10, 6396, Note_on_c, 8, 66, 47
10, 6408, Note_on_c, 8, 66, 0
10, 6408, Note_on_c, 8, 59, 47
10, 6420, Note_on_c, 8, 59, 0
10, 6420, Note_on_c, 8, 69, 47
10, 6432, Note_on_c, 8, 69, 0
10, 6432, Note_on_c, 8, 67, 47
10, 6444, Note_on_c, 8, 67, 0
10, 6444, Note_on_c, 8, 71, 47
10, 6456, Note_on_c, 8, 71, 0
10, 6456, Note_on_c, 8, 64, 47
10, 6468, Note_on_c, 8, 64, 0
10, 6468, Note_on_c, 8, 74, 47
10, 6480, Note_on_c, 8, 74, 0
10, 6480, Note_on_c, 8, 73, 47
10, 6492, Note_on_c, 8, 73, 0
10, 6492, Note_on_c, 8, 76, 47
10, 6504, Note_on_c, 8, 76, 0
10, 6504, Note_on_c, 8, 79, 47
10, 6516, Note_on_c, 8, 79, 0
10, 6516, Note_on_c, 8, 71, 47
10, 6528, Note_on_c, 8, 71, 0
10, 6528, Note_on_c, 8, 70, 47
10, 6576, Note_on_c, 8, 70, 0
10, 6600, Note_on_c, 8, 73, 47
10, 6624, Note_on_c, 8, 73, 0
10, 6624, Note_on_c, 8, 74, 47
10, 6636, Note_on_c, 8, 74, 0
10, 6636, Note_on_c, 8, 76, 47
10, 6648, Note_on_c, 8, 76, 0
10, 6648, Note_on_c, 8, 78, 47
10, 6660, Note_on_c, 8, 78, 0
10, 6660, Note_on_c, 8, 76, 47
10, 6672, Note_on_c, 8, 76, 0
10, 6672, Note_on_c, 8, 74, 47
10, 6684, Note_on_c, 8, 74, 0
10, 6684, Note_on_c, 8, 73, 47
10, 6696, Note_on_c, 8, 73, 0
10, 6696, Note_on_c, 8, 74, 47
10, 6708, Note_on_c, 8, 74, 0
10, 6708, Note_on_c, 8, 71, 47
10, 6720, Note_on_c, 8, 71, 0
10, 6720, Note_on_c, 8, 79, 47
10, 6744, Note_on_c, 8, 79, 0
10, 6780, Note_on_c, 8, 81, 47
10, 6792, Note_on_c, 8, 81, 0
10, 6792, Note_on_c, 8, 79, 47
10, 6804, Note_on_c, 8, 79, 0
10, 6804, Note_on_c, 8, 78, 47
10, 6816, Note_on_c, 8, 78, 0
10, 6816, Note_on_c, 8, 76, 47
10, 6828, Note_on_c, 8, 76, 0
10, 6828, Note_on_c, 8, 74, 47
10, 6840, Note_on_c, 8, 74, 0
10, 6840, Note_on_c, 8, 73, 47
10, 6852, Note_on_c, 8, 73, 0
10, 6852, Note_on_c, 8, 71, 47
10, 6864, Note_on_c, 8, 71, 0
10, 6864, Note_on_c, 8, 70, 47
10, 6876, Note_on_c, 8, 70, 0
10, 6876, Note_on_c, 8, 68, 47
10, 6888, Note_on_c, 8, 68, 0
10, 6888, Note_on_c, 8, 70, 47
10, 6900, Note_on_c, 8, 70, 0
10, 6900, Note_on_c, 8, 66, 47
10, 6912, Note_on_c, 8, 66, 0
10, 6912, Note_on_c, 8, 74, 47
10, 6924, Note_on_c, 8, 74, 0
10, 6924, Note_on_c, 8, 73, 47
10, 6936, Note_on_c, 8, 73, 0
10, 6936, Note_on_c, 8, 71, 47
10, 6948, Note_on_c, 8, 71, 0
10, 6948, Note_on_c, 8, 73, 47
10, 6960, Note_on_c, 8, 73, 0
10, 6960, Note_on_c, 8, 74, 47
10, 6972, Note_on_c, 8, 74, 0
10, 6972, Note_on_c, 8, 76, 47
10, 6984, Note_on_c, 8, 76, 0
10, 6984, Note_on_c, 8, 78, 47
10, 6996, Note_on_c, 8, 78, 0
10, 6996, Note_on_c, 8, 74, 47
10, 7008, Note_on_c, 8, 74, 0
10, 7008, Note_on_c, 8, 79, 47
10, 7020, Note_on_c, 8, 79, 0
10, 7020, Note_on_c, 8, 81, 47
10, 7032, Note_on_c, 8, 81, 0
10, 7032, Note_on_c, 8, 83, 47
10, 7044, Note_on_c, 8, 83, 0
10, 7044, Note_on_c, 8, 81, 47
10, 7056, Note_on_c, 8, 81, 0
10, 7056, Note_on_c, 8, 79, 47
10, 7068, Note_on_c, 8, 79, 0
10, 7068, Note_on_c, 8, 78, 47
10, 7080, Note_on_c, 8, 78, 0
10, 7080, Note_on_c, 8, 76, 47
10, 7092, Note_on_c, 8, 76, 0
10, 7092, Note_on_c, 8, 74, 47
10, 7104, Note_on_c, 8, 74, 0
10, 7104, Note_on_c, 8, 73, 47
10, 7116, Note_on_c, 8, 73, 0
10, 7116, Note_on_c, 8, 79, 47
10, 7128, Note_on_c, 8, 79, 0
10, 7128, Note_on_c, 8, 78, 47
10, 7140, Note_on_c, 8, 78, 0
10, 7140, Note_on_c, 8, 76, 47
10, 7152, Note_on_c, 8, 76, 0
10, 7152, Note_on_c, 8, 74, 47
10, 7164, Note_on_c, 8, 74, 0
10, 7164, Note_on_c, 8, 73, 47
10, 7176, Note_on_c, 8, 73, 0
10, 7176, Note_on_c, 8, 71, 47
10, 7188, Note_on_c, 8, 71, 0
10, 7188, Note_on_c, 8, 70, 47
10, 7200, Note_on_c, 8, 70, 0
10, 7200, Note_on_c, 8, 71, 47
10, 7212, Note_on_c, 8, 71, 0
10, 7212, Note_on_c, 8, 67, 47
10, 7224, Note_on_c, 8, 67, 0
10, 7224, Note_on_c, 8, 66, 47
10, 7236, Note_on_c, 8, 66, 0
10, 7236, Note_on_c, 8, 64, 47
10, 7248, Note_on_c, 8, 64, 0
10, 7248, Note_on_c, 8, 62, 47
10, 7260, Note_on_c, 8, 62, 0
10, 7260, Note_on_c, 8, 61, 47
10, 7272, Note_on_c, 8, 61, 0
10, 7272, Note_on_c, 8, 59, 47
10, 7284, Note_on_c, 8, 59, 0
10, 7284, Note_on_c, 8, 61, 47
10, 7296, Note_on_c, 8, 61, 0
10, 7296, Note_on_c, 8, 62, 47
10, 7308, Note_on_c, 8, 62, 0
10, 7308, Note_on_c, 8, 64, 47
10, 7320, Note_on_c, 8, 64, 0
10, 7320, Note_on_c, 8, 66, 47
10, 7332, Note_on_c, 8, 66, 0
10, 7332, Note_on_c, 8, 67, 47
10, 7344, Note_on_c, 8, 67, 0
10, 7344, Note_on_c, 8, 66, 47
10, 7356, Note_on_c, 8, 66, 0
10, 7356, Note_on_c, 8, 64, 47
10, 7368, Note_on_c, 8, 64, 0
10, 7368, Note_on_c, 8, 62, 47
10, 7380, Note_on_c, 8, 62, 0
10, 7380, Note_on_c, 8, 61, 47
10, 7392, Note_on_c, 8, 61, 0
10, 7392, Note_on_c, 8, 62, 47
10, 7404, Note_on_c, 8, 62, 0
10, 7404, Note_on_c, 8, 64, 47
10, 7416, Note_on_c, 8, 64, 0
10, 7416, Note_on_c, 8, 66, 47
10, 7428, Note_on_c, 8, 66, 0
10, 7428, Note_on_c, 8, 68, 47
10, 7440, Note_on_c, 8, 68, 0
10, 7440, Note_on_c, 8, 70, 47
10, 7452, Note_on_c, 8, 70, 0
10, 7452, Note_on_c, 8, 71, 47
10, 7464, Note_on_c, 8, 71, 0
10, 7464, Note_on_c, 8, 73, 47
10, 7476, Note_on_c, 8, 73, 0
10, 7476, Note_on_c, 8, 70, 47
10, 7488, Note_on_c, 8, 70, 0
10, 7488, Note_on_c, 8, 71, 47
10, 7488, Note_on_c, 8, 66, 47
10, 7488, Note_on_c, 8, 78, 47
10, 7512, Note_on_c, 8, 66, 0
10, 7512, Note_on_c, 8, 71, 0
10, 7512, Note_on_c, 8, 78, 0
10, 7884, Note_on_c, 8, 74, 95
10, 7892, Note_on_c, 8, 74, 0
10, 7896, Note_on_c, 8, 78, 95
10, 7904, Note_on_c, 8, 78, 0
10, 7908, Note_on_c, 8, 83, 95
10, 7916, Note_on_c, 8, 83, 0
10, 7920, Note_on_c, 8, 76, 95
10, 7928, Note_on_c, 8, 76, 0
10, 7932, Note_on_c, 8, 81, 95
10, 7940, Note_on_c, 8, 81, 0
10, 7944, Note_on_c, 8, 74, 95
10, 7952, Note_on_c, 8, 74, 0
10, 7956, Note_on_c, 8, 79, 95
10, 7964, Note_on_c, 8, 79, 0
10, 7968, Note_on_c, 8, 73, 95
10, 7976, Note_on_c, 8, 73, 0
10, 7980, Note_on_c, 8, 78, 95
10, 7988, Note_on_c, 8, 78, 0
10, 7992, Note_on_c, 8, 74, 95
10, 8000, Note_on_c, 8, 74, 0
10, 8004, Note_on_c, 8, 78, 95
10, 8012, Note_on_c, 8, 78, 0
10, 8016, Note_on_c, 8, 73, 95
10, 8024, Note_on_c, 8, 73, 0
10, 8028, Note_on_c, 8, 78, 95
10, 8036, Note_on_c, 8, 78, 0
10, 8040, Note_on_c, 8, 71, 95
10, 8048, Note_on_c, 8, 71, 0
10, 8052, Note_on_c, 8, 78, 95
10, 8060, Note_on_c, 8, 78, 0
10, 8064, Note_on_c, 8, 70, 95
10, 8072, Note_on_c, 8, 70, 0
10, 8076, Note_on_c, 8, 78, 95
10, 8084, Note_on_c, 8, 78, 0
10, 8088, Note_on_c, 8, 71, 95
10, 8096, Note_on_c, 8, 71, 0
10, 8100, Note_on_c, 8, 78, 95
10, 8108, Note_on_c, 8, 78, 0
10, 8112, Note_on_c, 8, 70, 95
10, 8120, Note_on_c, 8, 70, 0
10, 8124, Note_on_c, 8, 78, 95
10, 8132, Note_on_c, 8, 78, 0
10, 8136, Note_on_c, 8, 68, 95
10, 8144, Note_on_c, 8, 68, 0
10, 8148, Note_on_c, 8, 78, 95
10, 8156, Note_on_c, 8, 78, 0
10, 8160, Note_on_c, 8, 66, 95
10, 8176, Note_on_c, 8, 66, 0
10, 8184, Note_on_c, 8, 70, 95
10, 8189, Note_on_c, 8, 70, 0
10, 8192, Note_on_c, 8, 68, 95
10, 8197, Note_on_c, 8, 68, 0
10, 8200, Note_on_c, 8, 70, 95
10, 8205, Note_on_c, 8, 70, 0
10, 8208, Note_on_c, 8, 71, 95
10, 8213, Note_on_c, 8, 71, 0
10, 8216, Note_on_c, 8, 70, 95
10, 8221, Note_on_c, 8, 70, 0
10, 8224, Note_on_c, 8, 71, 95
10, 8229, Note_on_c, 8, 71, 0
10, 8232, Note_on_c, 8, 73, 95
10, 8237, Note_on_c, 8, 73, 0
10, 8240, Note_on_c, 8, 71, 95
10, 8245, Note_on_c, 8, 71, 0
10, 8248, Note_on_c, 8, 73, 95
10, 8253, Note_on_c, 8, 73, 0
10, 8256, Note_on_c, 8, 74, 95
10, 8264, Note_on_c, 8, 74, 0
10, 8268, Note_on_c, 8, 73, 95
10, 8276, Note_on_c, 8, 73, 0
10, 8280, Note_on_c, 8, 71, 95
10, 8288, Note_on_c, 8, 71, 0
10, 8292, Note_on_c, 8, 78, 95
10, 8300, Note_on_c, 8, 78, 0
10, 8304, Note_on_c, 8, 83, 95
10, 8309, Note_on_c, 8, 83, 0
10, 8312, Note_on_c, 8, 84, 95
10, 8317, Note_on_c, 8, 84, 0
10, 8320, Note_on_c, 8, 83, 95
10, 8325, Note_on_c, 8, 83, 0
10, 8328, Note_on_c, 8, 81, 95
10, 8333, Note_on_c, 8, 81, 0
10, 8336, Note_on_c, 8, 83, 95
10, 8341, Note_on_c, 8, 83, 0
10, 8344, Note_on_c, 8, 81, 95
10, 8349, Note_on_c, 8, 81, 0
10, 8352, Note_on_c, 8, 79, 95
10, 8360, Note_on_c, 8, 79, 0
10, 8364, Note_on_c, 8, 78, 95
10, 8372, Note_on_c, 8, 78, 0
10, 8376, Note_on_c, 8, 76, 95
10, 8384, Note_on_c, 8, 76, 0
10, 8388, Note_on_c, 8, 78, 95
10, 8396, Note_on_c, 8, 78, 0
10, 8400, Note_on_c, 8, 79, 95
10, 8408, Note_on_c, 8, 79, 0
10, 8412, Note_on_c, 8, 81, 95
10, 8420, Note_on_c, 8, 81, 0
10, 8424, Note_on_c, 8, 83, 95
10, 8432, Note_on_c, 8, 83, 0
10, 8436, Note_on_c, 8, 81, 95
10, 8444, Note_on_c, 8, 81, 0
10, 8448, Note_on_c, 8, 79, 95
10, 8453, Note_on_c, 8, 79, 0
10, 8456, Note_on_c, 8, 81, 95
10, 8461, Note_on_c, 8, 81, 0
10, 8464, Note_on_c, 8, 79, 95
10, 8469, Note_on_c, 8, 79, 0
10, 8472, Note_on_c, 8, 78, 95
10, 8477, Note_on_c, 8, 78, 0
10, 8480, Note_on_c, 8, 79, 95
10, 8485, Note_on_c, 8, 79, 0
10, 8488, Note_on_c, 8, 78, 95
10, 8493, Note_on_c, 8, 78, 0
10, 8496, Note_on_c, 8, 76, 95
10, 8501, Note_on_c, 8, 76, 0
10, 8504, Note_on_c, 8, 79, 95
10, 8509, Note_on_c, 8, 79, 0
10, 8512, Note_on_c, 8, 76, 95
10, 8517, Note_on_c, 8, 76, 0
10, 8520, Note_on_c, 8, 74, 95
10, 8525, Note_on_c, 8, 74, 0
10, 8528, Note_on_c, 8, 79, 95
10, 8533, Note_on_c, 8, 79, 0
10, 8536, Note_on_c, 8, 74, 95
10, 8541, Note_on_c, 8, 74, 0
10, 8544, Note_on_c, 8, 73, 95
10, 8552, Note_on_c, 8, 73, 0
10, 8556, Note_on_c, 8, 79, 95
10, 8564, Note_on_c, 8, 79, 0
10, 8568, Note_on_c, 8, 74, 95
10, 8576, Note_on_c, 8, 74, 0
10, 8580, Note_on_c, 8, 79, 95
10, 8588, Note_on_c, 8, 79, 0
10, 8592, Note_on_c, 8, 73, 95
10, 8600, Note_on_c, 8, 73, 0
10, 8604, Note_on_c, 8, 79, 95
10, 8612, Note_on_c, 8, 79, 0
10, 8616, Note_on_c, 8, 71, 95
10, 8624, Note_on_c, 8, 71, 0
10, 8628, Note_on_c, 8, 79, 95
10, 8636, Note_on_c, 8, 79, 0
10, 8640, Note_on_c, 8, 69, 95
10, 8656, Note_on_c, 8, 69, 0
10, 8664, Note_on_c, 8, 73, 95
10, 8669, Note_on_c, 8, 73, 0
10, 8672, Note_on_c, 8, 71, 95
10, 8677, Note_on_c, 8, 71, 0
10, 8680, Note_on_c, 8, 73, 95
10, 8685, Note_on_c, 8, 73, 0
10, 8688, Note_on_c, 8, 74, 95
10, 8693, Note_on_c, 8, 74, 0
10, 8696, Note_on_c, 8, 73, 95
10, 8701, Note_on_c, 8, 73, 0
10, 8704, Note_on_c, 8, 74, 95
10, 8709, Note_on_c, 8, 74, 0
10, 8712, Note_on_c, 8, 76, 95
10, 8717, Note_on_c, 8, 76, 0
10, 8720, Note_on_c, 8, 74, 95
10, 8725, Note_on_c, 8, 74, 0
10, 8728, Note_on_c, 8, 76, 95
10, 8733, Note_on_c, 8, 76, 0
10, 8736, Note_on_c, 8, 78, 95
10, 8744, Note_on_c, 8, 78, 0
10, 8748, Note_on_c, 8, 76, 95
10, 8756, Note_on_c, 8, 76, 0
10, 8760, Note_on_c, 8, 74, 95
10, 8768, Note_on_c, 8, 74, 0
10, 8772, Note_on_c, 8, 69, 95
10, 8780, Note_on_c, 8, 69, 0
10, 8784, Note_on_c, 8, 74, 95
10, 8789, Note_on_c, 8, 74, 0
10, 8792, Note_on_c, 8, 76, 95
10, 8797, Note_on_c, 8, 76, 0
10, 8800, Note_on_c, 8, 74, 95
10, 8805, Note_on_c, 8, 74, 0
10, 8808, Note_on_c, 8, 72, 95
10, 8813, Note_on_c, 8, 72, 0
10, 8816, Note_on_c, 8, 74, 95
10, 8821, Note_on_c, 8, 74, 0
10, 8824, Note_on_c, 8, 72, 95
10, 8829, Note_on_c, 8, 72, 0
10, 8832, Note_on_c, 8, 74, 95
10, 8836, Note_on_c, 8, 74, 0
10, 8838, Note_on_c, 8, 67, 95
10, 8842, Note_on_c, 8, 67, 0
10, 8844, Note_on_c, 8, 69, 95
10, 8848, Note_on_c, 8, 69, 0
10, 8850, Note_on_c, 8, 71, 95
10, 8854, Note_on_c, 8, 71, 0
10, 8856, Note_on_c, 8, 73, 95
10, 8860, Note_on_c, 8, 73, 0
10, 8862, Note_on_c, 8, 74, 95
10, 8866, Note_on_c, 8, 74, 0
10, 8868, Note_on_c, 8, 76, 95
10, 8872, Note_on_c, 8, 76, 0
10, 8874, Note_on_c, 8, 78, 95
10, 8878, Note_on_c, 8, 78, 0
10, 8880, Note_on_c, 8, 76, 95
10, 8884, Note_on_c, 8, 76, 0
10, 8886, Note_on_c, 8, 61, 95
10, 8890, Note_on_c, 8, 61, 0
10, 8892, Note_on_c, 8, 62, 95
10, 8896, Note_on_c, 8, 62, 0
10, 8898, Note_on_c, 8, 64, 95
10, 8902, Note_on_c, 8, 64, 0
10, 8904, Note_on_c, 8, 66, 95
10, 8908, Note_on_c, 8, 66, 0
10, 8910, Note_on_c, 8, 67, 95
10, 8914, Note_on_c, 8, 67, 0
10, 8916, Note_on_c, 8, 69, 95
10, 8920, Note_on_c, 8, 69, 0
10, 8922, Note_on_c, 8, 71, 95
10, 8926, Note_on_c, 8, 71, 0
10, 8928, Note_on_c, 8, 69, 95
10, 8932, Note_on_c, 8, 69, 0
10, 8934, Note_on_c, 8, 66, 95
10, 8938, Note_on_c, 8, 66, 0
10, 8940, Note_on_c, 8, 67, 95
10, 8944, Note_on_c, 8, 67, 0
10, 8946, Note_on_c, 8, 69, 95
10, 8950, Note_on_c, 8, 69, 0
10, 8952, Note_on_c, 8, 71, 95
10, 8956, Note_on_c, 8, 71, 0
10, 8958, Note_on_c, 8, 73, 95
10, 8962, Note_on_c, 8, 73, 0
10, 8964, Note_on_c, 8, 74, 95
10, 8968, Note_on_c, 8, 74, 0
10, 8970, Note_on_c, 8, 76, 95
10, 8974, Note_on_c, 8, 76, 0
10, 8976, Note_on_c, 8, 74, 95
10, 8980, Note_on_c, 8, 74, 0
10, 8982, Note_on_c, 8, 59, 95
10, 8986, Note_on_c, 8, 59, 0
10, 8988, Note_on_c, 8, 61, 95
10, 8992, Note_on_c, 8, 61, 0
10, 8994, Note_on_c, 8, 62, 95
10, 8998, Note_on_c, 8, 62, 0
10, 9000, Note_on_c, 8, 64, 95
10, 9004, Note_on_c, 8, 64, 0
10, 9006, Note_on_c, 8, 66, 95
10, 9010, Note_on_c, 8, 66, 0
10, 9012, Note_on_c, 8, 67, 95
10, 9016, Note_on_c, 8, 67, 0
10, 9018, Note_on_c, 8, 69, 95
10, 9022, Note_on_c, 8, 69, 0
10, 9024, Note_on_c, 8, 67, 95
10, 9028, Note_on_c, 8, 67, 0
10, 9030, Note_on_c, 8, 64, 95
10, 9034, Note_on_c, 8, 64, 0
10, 9036, Note_on_c, 8, 66, 95
10, 9040, Note_on_c, 8, 66, 0
10, 9042, Note_on_c, 8, 67, 95
10, 9046, Note_on_c, 8, 67, 0
10, 9048, Note_on_c, 8, 69, 95
10, 9052, Note_on_c, 8, 69, 0
10, 9054, Note_on_c, 8, 71, 95
10, 9058, Note_on_c, 8, 71, 0
10, 9060, Note_on_c, 8, 73, 95
10, 9064, Note_on_c, 8, 73, 0
10, 9066, Note_on_c, 8, 74, 95
10, 9070, Note_on_c, 8, 74, 0
10, 9072, Note_on_c, 8, 73, 95
10, 9076, Note_on_c, 8, 73, 0
10, 9078, Note_on_c, 8, 57, 95
10, 9082, Note_on_c, 8, 57, 0
10, 9084, Note_on_c, 8, 59, 95
10, 9088, Note_on_c, 8, 59, 0
10, 9090, Note_on_c, 8, 61, 95
10, 9094, Note_on_c, 8, 61, 0
10, 9096, Note_on_c, 8, 62, 95
10, 9100, Note_on_c, 8, 62, 0
10, 9102, Note_on_c, 8, 64, 95
10, 9106, Note_on_c, 8, 64, 0
10, 9108, Note_on_c, 8, 66, 95
10, 9112, Note_on_c, 8, 66, 0
10, 9114, Note_on_c, 8, 67, 95
10, 9118, Note_on_c, 8, 67, 0
10, 9120, Note_on_c, 8, 66, 95
10, 9124, Note_on_c, 8, 66, 0
10, 9126, Note_on_c, 8, 62, 95
10, 9130, Note_on_c, 8, 62, 0
10, 9132, Note_on_c, 8, 64, 95
10, 9136, Note_on_c, 8, 64, 0
10, 9138, Note_on_c, 8, 66, 95
10, 9142, Note_on_c, 8, 66, 0
10, 9144, Note_on_c, 8, 67, 95
10, 9148, Note_on_c, 8, 67, 0
10, 9150, Note_on_c, 8, 69, 95
10, 9154, Note_on_c, 8, 69, 0
10, 9156, Note_on_c, 8, 71, 95
10, 9160, Note_on_c, 8, 71, 0
10, 9162, Note_on_c, 8, 73, 95
10, 9166, Note_on_c, 8, 73, 0
10, 9168, Note_on_c, 8, 74, 95
10, 9172, Note_on_c, 8, 74, 0
10, 9174, Note_on_c, 8, 69, 95
10, 9178, Note_on_c, 8, 69, 0
10, 9180, Note_on_c, 8, 71, 95
10, 9184, Note_on_c, 8, 71, 0
10, 9186, Note_on_c, 8, 73, 95
10, 9190, Note_on_c, 8, 73, 0
10, 9192, Note_on_c, 8, 74, 95
10, 9196, Note_on_c, 8, 74, 0
10, 9198, Note_on_c, 8, 76, 95
10, 9202, Note_on_c, 8, 76, 0
10, 9204, Note_on_c, 8, 78, 95
10, 9208, Note_on_c, 8, 78, 0
10, 9210, Note_on_c, 8, 79, 95
10, 9214, Note_on_c, 8, 79, 0
10, 9216, Note_on_c, 8, 81, 95
10, 9220, Note_on_c, 8, 81, 0
10, 9222, Note_on_c, 8, 79, 95
10, 9226, Note_on_c, 8, 79, 0
10, 9228, Note_on_c, 8, 78, 95
10, 9232, Note_on_c, 8, 78, 0
10, 9234, Note_on_c, 8, 76, 95
10, 9238, Note_on_c, 8, 76, 0
10, 9240, Note_on_c, 8, 74, 95
10, 9244, Note_on_c, 8, 74, 0
10, 9246, Note_on_c, 8, 73, 95
10, 9250, Note_on_c, 8, 73, 0
10, 9252, Note_on_c, 8, 71, 95
10, 9256, Note_on_c, 8, 71, 0
10, 9258, Note_on_c, 8, 69, 95
10, 9262, Note_on_c, 8, 69, 0
10, 9264, Note_on_c, 8, 67, 95
10, 9268, Note_on_c, 8, 67, 0
10, 9270, Note_on_c, 8, 66, 95
10, 9274, Note_on_c, 8, 66, 0
10, 9276, Note_on_c, 8, 64, 95
10, 9280, Note_on_c, 8, 64, 0
10, 9282, Note_on_c, 8, 62, 95
10, 9286, Note_on_c, 8, 62, 0
10, 9288, Note_on_c, 8, 61, 95
10, 9292, Note_on_c, 8, 61, 0
10, 9294, Note_on_c, 8, 59, 95
10, 9298, Note_on_c, 8, 59, 0
10, 9300, Note_on_c, 8, 57, 95
10, 9304, Note_on_c, 8, 57, 0
10, 9306, Note_on_c, 8, 55, 95
10, 9310, Note_on_c, 8, 55, 0
10, 9312, Note_on_c, 8, 54, 95
10, 9316, Note_on_c, 8, 54, 0
10, 9318, Note_on_c, 8, 50, 95
10, 9322, Note_on_c, 8, 50, 0
10, 9324, Note_on_c, 8, 52, 95
10, 9328, Note_on_c, 8, 52, 0
10, 9330, Note_on_c, 8, 54, 95
10, 9334, Note_on_c, 8, 54, 0
10, 9336, Note_on_c, 8, 55, 95
10, 9340, Note_on_c, 8, 55, 0
10, 9342, Note_on_c, 8, 57, 95
10, 9346, Note_on_c, 8, 57, 0
10, 9348, Note_on_c, 8, 59, 95
10, 9352, Note_on_c, 8, 59, 0
10, 9354, Note_on_c, 8, 61, 95
10, 9358, Note_on_c, 8, 61, 0
10, 9360, Note_on_c, 8, 62, 95
10, 9364, Note_on_c, 8, 62, 0
10, 9366, Note_on_c, 8, 64, 95
10, 9370, Note_on_c, 8, 64, 0
10, 9372, Note_on_c, 8, 66, 95
10, 9376, Note_on_c, 8, 66, 0
10, 9378, Note_on_c, 8, 67, 95
10, 9382, Note_on_c, 8, 67, 0
10, 9384, Note_on_c, 8, 69, 95
10, 9388, Note_on_c, 8, 69, 0
10, 9390, Note_on_c, 8, 71, 95
10, 9394, Note_on_c, 8, 71, 0
10, 9396, Note_on_c, 8, 73, 95
10, 9400, Note_on_c, 8, 73, 0
10, 9402, Note_on_c, 8, 74, 95
10, 9406, Note_on_c, 8, 74, 0
10, 9408, Note_on_c, 8, 76, 95
10, 9424, Note_on_c, 8, 76, 0
10, 9468, Note_on_c, 8, 69, 95
10, 9476, Note_on_c, 8, 69, 0
10, 9480, Note_on_c, 8, 61, 95
10, 9480, Note_on_c, 8, 67, 95
10, 9488, Note_on_c, 8, 67, 0
10, 9492, Note_on_c, 8, 69, 95
10, 9496, Note_on_c, 8, 61, 0
10, 9500, Note_on_c, 8, 69, 0
10, 9504, Note_on_c, 8, 62, 95
10, 9504, Note_on_c, 8, 66, 95
10, 9512, Note_on_c, 8, 66, 0
10, 9516, Note_on_c, 8, 69, 95
10, 9520, Note_on_c, 8, 62, 0
10, 9524, Note_on_c, 8, 69, 0
10, 9528, Note_on_c, 8, 60, 95
10, 9528, Note_on_c, 8, 64, 95
10, 9536, Note_on_c, 8, 64, 0
10, 9540, Note_on_c, 8, 69, 95
10, 9544, Note_on_c, 8, 60, 0
10, 9548, Note_on_c, 8, 69, 0
10, 9552, Note_on_c, 8, 59, 95
10, 9552, Note_on_c, 8, 62, 95
10, 9560, Note_on_c, 8, 62, 0
10, 9564, Note_on_c, 8, 67, 95
10, 9568, Note_on_c, 8, 59, 0
10, 9572, Note_on_c, 8, 67, 0
10, 9576, Note_on_c, 8, 57, 95
10, 9576, Note_on_c, 8, 60, 95
10, 9584, Note_on_c, 8, 60, 0
10, 9588, Note_on_c, 8, 66, 95
10, 9592, Note_on_c, 8, 57, 0
10, 9596, Note_on_c, 8, 66, 0
10, 9600, Note_on_c, 8, 62, 95
10, 9600, Note_on_c, 8, 59, 95
10, 9600, Note_on_c, 8, 55, 95
10, 9600, Note_on_c, 8, 67, 95
10, 9632, Note_on_c, 8, 55, 0
10, 9632, Note_on_c, 8, 59, 0
10, 9632, Note_on_c, 8, 62, 0
10, 9632, Note_on_c, 8, 67, 0
10, 9708, Note_on_c, 8, 79, 95
10, 9720, Note_on_c, 8, 79, 0
10, 9720, Note_on_c, 8, 83, 95
10, 9732, Note_on_c, 8, 83, 0
10, 9732, Note_on_c, 8, 81, 95
10, 9744, Note_on_c, 8, 81, 0
10, 9744, Note_on_c, 8, 79, 95
10, 9756, Note_on_c, 8, 79, 0
10, 9756, Note_on_c, 8, 78, 95
10, 9768, Note_on_c, 8, 78, 0
10, 9768, Note_on_c, 8, 76, 95
10, 9780, Note_on_c, 8, 76, 0
10, 9780, Note_on_c, 8, 74, 95
10, 9792, Note_on_c, 8, 74, 0
10, 9792, Note_on_c, 8, 73, 95
10, 9804, Note_on_c, 8, 73, 0
10, 9804, Note_on_c, 8, 79, 95
10, 9816, Note_on_c, 8, 79, 0
10, 9816, Note_on_c, 8, 78, 95
10, 9828, Note_on_c, 8, 78, 0
10, 9828, Note_on_c, 8, 76, 95
10, 9840, Note_on_c, 8, 76, 0
10, 9840, Note_on_c, 8, 74, 95
10, 9852, Note_on_c, 8, 74, 0
10, 9852, Note_on_c, 8, 73, 95
10, 9864, Note_on_c, 8, 73, 0
10, 9864, Note_on_c, 8, 71, 95
10, 9876, Note_on_c, 8, 71, 0
10, 9876, Note_on_c, 8, 70, 95
10, 9888, Note_on_c, 8, 70, 0
10, 9888, Note_on_c, 8, 71, 95
10, 9888, Note_on_c, 8, 74, 95
10, 9900, Note_on_c, 8, 74, 0
10, 9900, Note_on_c, 8, 78, 95
10, 9912, Note_on_c, 8, 71, 0
10, 9912, Note_on_c, 8, 78, 0
10, 9912, Note_on_c, 8, 69, 95
10, 9912, Note_on_c, 8, 73, 95
10, 9924, Note_on_c, 8, 73, 0
10, 9924, Note_on_c, 8, 78, 95
10, 9936, Note_on_c, 8, 69, 0
10, 9936, Note_on_c, 8, 78, 0
10, 9936, Note_on_c, 8, 67, 95
10, 9936, Note_on_c, 8, 71, 95
10, 9948, Note_on_c, 8, 71, 0
10, 9948, Note_on_c, 8, 76, 95
10, 9960, Note_on_c, 8, 67, 0
10, 9960, Note_on_c, 8, 76, 0
10, 9960, Note_on_c, 8, 66, 95
10, 9960, Note_on_c, 8, 69, 95
10, 9972, Note_on_c, 8, 69, 0
10, 9972, Note_on_c, 8, 75, 95
10, 9984, Note_on_c, 8, 66, 0
10, 9984, Note_on_c, 8, 75, 0
10, 9984, Note_on_c, 8, 64, 95
10, 9984, Note_on_c, 8, 67, 95
10, 9984, Note_on_c, 8, 71, 95
10, 9984, Note_on_c, 8, 76, 95
10, 10032, Note_on_c, 8, 64, 0
10, 10032, Note_on_c, 8, 67, 0
10, 10032, Note_on_c, 8, 71, 0
10, 10032, Note_on_c, 8, 76, 0
10, 10092, Note_on_c, 8, 73, 95
10, 10104, Note_on_c, 8, 73, 0
10, 10104, Note_on_c, 8, 74, 95
10, 10116, Note_on_c, 8, 74, 0
10, 10116, Note_on_c, 8, 78, 95
10, 10128, Note_on_c, 8, 78, 0
10, 10128, Note_on_c, 8, 76, 95
10, 10140, Note_on_c, 8, 76, 0
10, 10140, Note_on_c, 8, 74, 95
10, 10152, Note_on_c, 8, 74, 0
10, 10152, Note_on_c, 8, 73, 95
10, 10164, Note_on_c, 8, 73, 0
10, 10164, Note_on_c, 8, 71, 95
10, 10176, Note_on_c, 8, 71, 0
10, 10176, Note_on_c, 8, 70, 95
10, 10188, Note_on_c, 8, 70, 0
10, 10188, Note_on_c, 8, 76, 95
10, 10200, Note_on_c, 8, 76, 0
10, 10200, Note_on_c, 8, 74, 95
10, 10212, Note_on_c, 8, 74, 0
10, 10212, Note_on_c, 8, 73, 95
10, 10224, Note_on_c, 8, 73, 0
10, 10224, Note_on_c, 8, 71, 95
10, 10236, Note_on_c, 8, 71, 0
10, 10236, Note_on_c, 8, 69, 95
10, 10248, Note_on_c, 8, 69, 0
10, 10248, Note_on_c, 8, 67, 95
10, 10260, Note_on_c, 8, 67, 0
10, 10260, Note_on_c, 8, 66, 95
10, 10272, Note_on_c, 8, 66, 0
10, 10272, Note_on_c, 8, 67, 95
10, 10272, Note_on_c, 8, 71, 95
10, 10284, Note_on_c, 8, 71, 0
10, 10284, Note_on_c, 8, 74, 95
10, 10296, Note_on_c, 8, 67, 0
10, 10296, Note_on_c, 8, 74, 0
10, 10296, Note_on_c, 8, 65, 95
10, 10296, Note_on_c, 8, 69, 95
10, 10308, Note_on_c, 8, 69, 0
10, 10308, Note_on_c, 8, 74, 95
10, 10320, Note_on_c, 8, 65, 0
10, 10320, Note_on_c, 8, 74, 0
10, 10320, Note_on_c, 8, 64, 95
10, 10320, Note_on_c, 8, 67, 95
10, 10332, Note_on_c, 8, 67, 0
10, 10332, Note_on_c, 8, 72, 95
10, 10344, Note_on_c, 8, 64, 0
10, 10344, Note_on_c, 8, 72, 0
10, 10344, Note_on_c, 8, 62, 95
10, 10344, Note_on_c, 8, 65, 95
10, 10356, Note_on_c, 8, 65, 0
10, 10356, Note_on_c, 8, 71, 95
10, 10368, Note_on_c, 8, 62, 0
10, 10368, Note_on_c, 8, 71, 0
10, 10368, Note_on_c, 8, 60, 95
10, 10368, Note_on_c, 8, 64, 95
10, 10368, Note_on_c, 8, 67, 95
10, 10368, Note_on_c, 8, 72, 95
10, 10416, Note_on_c, 8, 60, 0
10, 10416, Note_on_c, 8, 64, 0
10, 10416, Note_on_c, 8, 67, 0
10, 10416, Note_on_c, 8, 72, 0
10, 10476, Note_on_c, 8, 72, 95
10, 10488, Note_on_c, 8, 72, 0
10, 10488, Note_on_c, 8, 76, 95
10, 10500, Note_on_c, 8, 76, 0
10, 10500, Note_on_c, 8, 74, 95
10, 10512, Note_on_c, 8, 74, 0
10, 10512, Note_on_c, 8, 72, 95
10, 10524, Note_on_c, 8, 72, 0
10, 10524, Note_on_c, 8, 71, 95
10, 10536, Note_on_c, 8, 71, 0
10, 10536, Note_on_c, 8, 69, 95
10, 10548, Note_on_c, 8, 69, 0
10, 10548, Note_on_c, 8, 67, 95
10, 10560, Note_on_c, 8, 67, 0
10, 10560, Note_on_c, 8, 66, 95
10, 10572, Note_on_c, 8, 66, 0
10, 10572, Note_on_c, 8, 67, 95
10, 10584, Note_on_c, 8, 67, 0
10, 10584, Note_on_c, 8, 66, 95
10, 10596, Note_on_c, 8, 66, 0
10, 10596, Note_on_c, 8, 64, 95
10, 10608, Note_on_c, 8, 64, 0
10, 10608, Note_on_c, 8, 62, 95
10, 10620, Note_on_c, 8, 62, 0
10, 10620, Note_on_c, 8, 60, 95
10, 10632, Note_on_c, 8, 60, 0
10, 10632, Note_on_c, 8, 59, 95
10, 10644, Note_on_c, 8, 59, 0
10, 10644, Note_on_c, 8, 57, 95
10, 10656, Note_on_c, 8, 57, 0
10, 10656, Note_on_c, 8, 55, 95
10, 10668, Note_on_c, 8, 55, 0
10, 10704, Note_on_c, 8, 69, 95
10, 10712, Note_on_c, 8, 69, 0
10, 10712, Note_on_c, 8, 67, 95
10, 10720, Note_on_c, 8, 67, 0
10, 10720, Note_on_c, 8, 69, 95
10, 10728, Note_on_c, 8, 69, 0
10, 10728, Note_on_c, 8, 71, 95
10, 10736, Note_on_c, 8, 71, 0
10, 10736, Note_on_c, 8, 69, 95
10, 10744, Note_on_c, 8, 69, 0
10, 10744, Note_on_c, 8, 71, 95
10, 10752, Note_on_c, 8, 71, 0
10, 10752, Note_on_c, 8, 72, 95
10, 10760, Note_on_c, 8, 72, 0
10, 10760, Note_on_c, 8, 71, 95
10, 10768, Note_on_c, 8, 71, 0
10, 10768, Note_on_c, 8, 72, 95
10, 10776, Note_on_c, 8, 72, 0
10, 10776, Note_on_c, 8, 74, 95
10, 10784, Note_on_c, 8, 74, 0
10, 10784, Note_on_c, 8, 76, 95
10, 10792, Note_on_c, 8, 76, 0
10, 10792, Note_on_c, 8, 74, 95
10, 10800, Note_on_c, 8, 74, 0
10, 10800, Note_on_c, 8, 72, 95
10, 10808, Note_on_c, 8, 72, 0
10, 10808, Note_on_c, 8, 74, 95
10, 10816, Note_on_c, 8, 74, 0
10, 10816, Note_on_c, 8, 72, 95
10, 10824, Note_on_c, 8, 72, 0
10, 10824, Note_on_c, 8, 71, 95
10, 10832, Note_on_c, 8, 71, 0
10, 10832, Note_on_c, 8, 72, 95
10, 10840, Note_on_c, 8, 72, 0
10, 10840, Note_on_c, 8, 71, 95
10, 10848, Note_on_c, 8, 71, 0
10, 10848, Note_on_c, 8, 79, 95
10, 10860, Note_on_c, 8, 79, 0
10, 10860, Note_on_c, 8, 76, 95
10, 10872, Note_on_c, 8, 76, 0
10, 10872, Note_on_c, 8, 74, 95
10, 10884, Note_on_c, 8, 74, 0
10, 10884, Note_on_c, 8, 76, 95
10, 10896, Note_on_c, 8, 76, 0
10, 10896, Note_on_c, 8, 73, 95
10, 10908, Note_on_c, 8, 73, 0
10, 10908, Note_on_c, 8, 76, 95
10, 10920, Note_on_c, 8, 76, 0
10, 10920, Note_on_c, 8, 71, 95
10, 10932, Note_on_c, 8, 71, 0
10, 10932, Note_on_c, 8, 76, 95
10, 10944, Note_on_c, 8, 76, 0
10, 10944, Note_on_c, 8, 69, 95
10, 10956, Note_on_c, 8, 69, 0
10, 10956, Note_on_c, 8, 76, 95
10, 10968, Note_on_c, 8, 76, 0
10, 10968, Note_on_c, 8, 67, 95
10, 10980, Note_on_c, 8, 67, 0
10, 10980, Note_on_c, 8, 76, 95
10, 10992, Note_on_c, 8, 76, 0
10, 10992, Note_on_c, 8, 66, 95
10, 11004, Note_on_c, 8, 66, 0
10, 11004, Note_on_c, 8, 76, 95
10, 11016, Note_on_c, 8, 76, 0
10, 11016, Note_on_c, 8, 64, 95
10, 11028, Note_on_c, 8, 64, 0
10, 11028, Note_on_c, 8, 73, 95
10, 11040, Note_on_c, 8, 73, 0
10, 11040, Note_on_c, 8, 74, 95
10, 11064, Note_on_c, 8, 74, 0
10, 11544, Note_on_c, 8, 74, 79
10, 11554, Note_on_c, 8, 74, 0
10, 11556, Note_on_c, 8, 78, 79
10, 11566, Note_on_c, 8, 78, 0
10, 11568, Note_on_c, 8, 76, 79
10, 11578, Note_on_c, 8, 76, 0
10, 11580, Note_on_c, 8, 73, 79
10, 11590, Note_on_c, 8, 73, 0
10, 11592, Note_on_c, 8, 74, 79
10, 11602, Note_on_c, 8, 74, 0
10, 11604, Note_on_c, 8, 76, 79
10, 11614, Note_on_c, 8, 76, 0
10, 11616, Note_on_c, 8, 78, 79
10, 11621, Note_on_c, 8, 78, 0
10, 11622, Note_on_c, 8, 79, 79
10, 11627, Note_on_c, 8, 79, 0
10, 11628, Note_on_c, 8, 78, 79
10, 11633, Note_on_c, 8, 78, 0
10, 11634, Note_on_c, 8, 79, 79
10, 11639, Note_on_c, 8, 79, 0
10, 11640, Note_on_c, 8, 76, 79
10, 11660, Note_on_c, 8, 76, 0
10, 11820, Note_on_c, 8, 69, 79
10, 11830, Note_on_c, 8, 69, 0
10, 11832, Note_on_c, 8, 71, 79
10, 11842, Note_on_c, 8, 71, 0
10, 11844, Note_on_c, 8, 73, 79
10, 11854, Note_on_c, 8, 73, 0
10, 11856, Note_on_c, 8, 74, 79
10, 11866, Note_on_c, 8, 74, 0
10, 11868, Note_on_c, 8, 76, 79
10, 11878, Note_on_c, 8, 76, 0
10, 11880, Note_on_c, 8, 78, 79
10, 11890, Note_on_c, 8, 78, 0
10, 11892, Note_on_c, 8, 79, 79
10, 11902, Note_on_c, 8, 79, 0
10, 11904, Note_on_c, 8, 78, 79
10, 11914, Note_on_c, 8, 78, 0
10, 11916, Note_on_c, 8, 76, 79
10, 11926, Note_on_c, 8, 76, 0
10, 11928, Note_on_c, 8, 69, 79
10, 11938, Note_on_c, 8, 69, 0
10, 11940, Note_on_c, 8, 71, 79
10, 11950, Note_on_c, 8, 71, 0
10, 11952, Note_on_c, 8, 73, 79
10, 11962, Note_on_c, 8, 73, 0
10, 11964, Note_on_c, 8, 69, 79
10, 11974, Note_on_c, 8, 69, 0
10, 11976, Note_on_c, 8, 71, 79
10, 11986, Note_on_c, 8, 71, 0
10, 11988, Note_on_c, 8, 74, 79
10, 11998, Note_on_c, 8, 74, 0
10, 12000, Note_on_c, 8, 73, 79
10, 12010, Note_on_c, 8, 73, 0
10, 12012, Note_on_c, 8, 76, 79
10, 12022, Note_on_c, 8, 76, 0
10, 12024, Note_on_c, 8, 78, 79
10, 12034, Note_on_c, 8, 78, 0
10, 12036, Note_on_c, 8, 74, 79
10, 12046, Note_on_c, 8, 74, 0
10, 12048, Note_on_c, 8, 76, 79
10, 12058, Note_on_c, 8, 76, 0
10, 12060, Note_on_c, 8, 79, 79
10, 12070, Note_on_c, 8, 79, 0
10, 12072, Note_on_c, 8, 78, 79
10, 12082, Note_on_c, 8, 78, 0
10, 12084, Note_on_c, 8, 76, 79
10, 12094, Note_on_c, 8, 76, 0
10, 12096, Note_on_c, 8, 74, 79
10, 12106, Note_on_c, 8, 74, 0
10, 12108, Note_on_c, 8, 71, 79
10, 12118, Note_on_c, 8, 71, 0
10, 12120, Note_on_c, 8, 76, 79
10, 12130, Note_on_c, 8, 76, 0
10, 12132, Note_on_c, 8, 78, 79
10, 12142, Note_on_c, 8, 78, 0
10, 12144, Note_on_c, 8, 80, 79
10, 12154, Note_on_c, 8, 80, 0
10, 12156, Note_on_c, 8, 81, 79
10, 12166, Note_on_c, 8, 81, 0
10, 12168, Note_on_c, 8, 83, 79
10, 12178, Note_on_c, 8, 83, 0
10, 12180, Note_on_c, 8, 80, 79
10, 12190, Note_on_c, 8, 80, 0
10, 12192, Note_on_c, 8, 76, 79
10, 12202, Note_on_c, 8, 76, 0
10, 12204, Note_on_c, 8, 81, 79
10, 12214, Note_on_c, 8, 81, 0
10, 12216, Note_on_c, 8, 69, 79
10, 12226, Note_on_c, 8, 69, 0
10, 12228, Note_on_c, 8, 73, 79
10, 12238, Note_on_c, 8, 73, 0
10, 12240, Note_on_c, 8, 71, 79
10, 12250, Note_on_c, 8, 71, 0
10, 12252, Note_on_c, 8, 68, 79
10, 12262, Note_on_c, 8, 68, 0
10, 12264, Note_on_c, 8, 69, 79
10, 12274, Note_on_c, 8, 69, 0
10, 12276, Note_on_c, 8, 71, 79
10, 12286, Note_on_c, 8, 71, 0
10, 12288, Note_on_c, 8, 71, 79
10, 12294, Note_on_c, 8, 73, 79
10, 12298, Note_on_c, 8, 71, 0
10, 12312, Note_on_c, 8, 71, 79
10, 12314, Note_on_c, 8, 73, 0
10, 12332, Note_on_c, 8, 71, 0
10, 12492, Note_on_c, 8, 64, 79
10, 12502, Note_on_c, 8, 64, 0
10, 12504, Note_on_c, 8, 66, 79
10, 12514, Note_on_c, 8, 66, 0
10, 12516, Note_on_c, 8, 68, 79
10, 12526, Note_on_c, 8, 68, 0
10, 12528, Note_on_c, 8, 69, 79
10, 12538, Note_on_c, 8, 69, 0
10, 12540, Note_on_c, 8, 71, 79
10, 12550, Note_on_c, 8, 71, 0
10, 12552, Note_on_c, 8, 73, 79
10, 12562, Note_on_c, 8, 73, 0
10, 12564, Note_on_c, 8, 74, 79
10, 12574, Note_on_c, 8, 74, 0
10, 12576, Note_on_c, 8, 73, 79
10, 12586, Note_on_c, 8, 73, 0
10, 12588, Note_on_c, 8, 71, 79
10, 12598, Note_on_c, 8, 71, 0
10, 12600, Note_on_c, 8, 64, 79
10, 12610, Note_on_c, 8, 64, 0
10, 12612, Note_on_c, 8, 66, 79
10, 12622, Note_on_c, 8, 66, 0
10, 12624, Note_on_c, 8, 68, 79
10, 12634, Note_on_c, 8, 68, 0
10, 12636, Note_on_c, 8, 64, 79
10, 12646, Note_on_c, 8, 64, 0
10, 12648, Note_on_c, 8, 66, 79
10, 12658, Note_on_c, 8, 66, 0
10, 12660, Note_on_c, 8, 69, 79
10, 12670, Note_on_c, 8, 69, 0
10, 12672, Note_on_c, 8, 68, 79
10, 12682, Note_on_c, 8, 68, 0
10, 12684, Note_on_c, 8, 71, 79
10, 12694, Note_on_c, 8, 71, 0
10, 12696, Note_on_c, 8, 73, 79
10, 12706, Note_on_c, 8, 73, 0
10, 12708, Note_on_c, 8, 69, 79
10, 12718, Note_on_c, 8, 69, 0
10, 12720, Note_on_c, 8, 71, 79
10, 12730, Note_on_c, 8, 71, 0
10, 12732, Note_on_c, 8, 74, 79
10, 12742, Note_on_c, 8, 74, 0
10, 12744, Note_on_c, 8, 73, 79
10, 12754, Note_on_c, 8, 73, 0
10, 12756, Note_on_c, 8, 71, 79
10, 12766, Note_on_c, 8, 71, 0
10, 12768, Note_on_c, 8, 69, 79
10, 12778, Note_on_c, 8, 69, 0
10, 12780, Note_on_c, 8, 66, 79
10, 12790, Note_on_c, 8, 66, 0
10, 12792, Note_on_c, 8, 71, 79
10, 12802, Note_on_c, 8, 71, 0
10, 12804, Note_on_c, 8, 73, 79
10, 12814, Note_on_c, 8, 73, 0
10, 12816, Note_on_c, 8, 75, 79
10, 12826, Note_on_c, 8, 75, 0
10, 12828, Note_on_c, 8, 69, 79
10, 12838, Note_on_c, 8, 69, 0
10, 12840, Note_on_c, 8, 68, 79
10, 12850, Note_on_c, 8, 68, 0
10, 12852, Note_on_c, 8, 69, 79
10, 12862, Note_on_c, 8, 69, 0
10, 12864, Note_on_c, 8, 68, 79
10, 12874, Note_on_c, 8, 68, 0
10, 12876, Note_on_c, 8, 76, 79
10, 12886, Note_on_c, 8, 76, 0
10, 12888, Note_on_c, 8, 75, 79
10, 12898, Note_on_c, 8, 75, 0
10, 12900, Note_on_c, 8, 76, 79
10, 12910, Note_on_c, 8, 76, 0
10, 12912, Note_on_c, 8, 71, 79
10, 12922, Note_on_c, 8, 71, 0
10, 12924, Note_on_c, 8, 76, 79
10, 12934, Note_on_c, 8, 76, 0
10, 12936, Note_on_c, 8, 74, 79
10, 12946, Note_on_c, 8, 74, 0
10, 12948, Note_on_c, 8, 76, 79
10, 12958, Note_on_c, 8, 76, 0
10, 12960, Note_on_c, 8, 73, 79
10, 12970, Note_on_c, 8, 73, 0
10, 12972, Note_on_c, 8, 78, 79
10, 12982, Note_on_c, 8, 78, 0
10, 12984, Note_on_c, 8, 77, 79
10, 12994, Note_on_c, 8, 77, 0
10, 12996, Note_on_c, 8, 78, 79
10, 13006, Note_on_c, 8, 78, 0
10, 13008, Note_on_c, 8, 66, 79
10, 13018, Note_on_c, 8, 66, 0
10, 13020, Note_on_c, 8, 78, 79
10, 13030, Note_on_c, 8, 78, 0
10, 13032, Note_on_c, 8, 76, 79
10, 13042, Note_on_c, 8, 76, 0
10, 13044, Note_on_c, 8, 78, 79
10, 13054, Note_on_c, 8, 78, 0
10, 13056, Note_on_c, 8, 74, 79
10, 13066, Note_on_c, 8, 74, 0
10, 13068, Note_on_c, 8, 76, 79
10, 13078, Note_on_c, 8, 76, 0
10, 13080, Note_on_c, 8, 74, 79
10, 13090, Note_on_c, 8, 74, 0
10, 13092, Note_on_c, 8, 73, 79
10, 13102, Note_on_c, 8, 73, 0
10, 13104, Note_on_c, 8, 71, 79
10, 13114, Note_on_c, 8, 71, 0
10, 13116, Note_on_c, 8, 73, 79
10, 13126, Note_on_c, 8, 73, 0
10, 13128, Note_on_c, 8, 74, 79
10, 13138, Note_on_c, 8, 74, 0
10, 13140, Note_on_c, 8, 71, 79
10, 13150, Note_on_c, 8, 71, 0
10, 13152, Note_on_c, 8, 77, 79
10, 13162, Note_on_c, 8, 77, 0
10, 13164, Note_on_c, 8, 71, 79
10, 13174, Note_on_c, 8, 71, 0
10, 13176, Note_on_c, 8, 69, 79
10, 13186, Note_on_c, 8, 69, 0
10, 13188, Note_on_c, 8, 68, 79
10, 13198, Note_on_c, 8, 68, 0
10, 13200, Note_on_c, 8, 66, 79
10, 13210, Note_on_c, 8, 66, 0
10, 13212, Note_on_c, 8, 73, 79
10, 13222, Note_on_c, 8, 73, 0
10, 13224, Note_on_c, 8, 78, 79
10, 13234, Note_on_c, 8, 78, 0
10, 13236, Note_on_c, 8, 76, 79
10, 13246, Note_on_c, 8, 76, 0
10, 13248, Note_on_c, 8, 74, 79
10, 13258, Note_on_c, 8, 74, 0
10, 13260, Note_on_c, 8, 73, 79
10, 13270, Note_on_c, 8, 73, 0
10, 13272, Note_on_c, 8, 71, 79
10, 13282, Note_on_c, 8, 71, 0
10, 13284, Note_on_c, 8, 69, 79
10, 13294, Note_on_c, 8, 69, 0
10, 13296, Note_on_c, 8, 68, 79
10, 13306, Note_on_c, 8, 68, 0
10, 13308, Note_on_c, 8, 66, 79
10, 13318, Note_on_c, 8, 66, 0
10, 13320, Note_on_c, 8, 65, 79
10, 13330, Note_on_c, 8, 65, 0
10, 13332, Note_on_c, 8, 66, 79
10, 13342, Note_on_c, 8, 66, 0
10, 13344, Note_on_c, 8, 68, 79
10, 13354, Note_on_c, 8, 68, 0
10, 13356, Note_on_c, 8, 71, 79
10, 13366, Note_on_c, 8, 71, 0
10, 13368, Note_on_c, 8, 74, 79
10, 13378, Note_on_c, 8, 74, 0
10, 13380, Note_on_c, 8, 77, 79
10, 13390, Note_on_c, 8, 77, 0
10, 13392, Note_on_c, 8, 80, 79
10, 13402, Note_on_c, 8, 80, 0
10, 13404, Note_on_c, 8, 68, 79
10, 13414, Note_on_c, 8, 68, 0
10, 13416, Note_on_c, 8, 66, 79
10, 13426, Note_on_c, 8, 66, 0
10, 13428, Note_on_c, 8, 65, 79
10, 13438, Note_on_c, 8, 65, 0
10, 13440, Note_on_c, 8, 66, 79
10, 13450, Note_on_c, 8, 66, 0
10, 13452, Note_on_c, 8, 69, 79
10, 13462, Note_on_c, 8, 69, 0
10, 13464, Note_on_c, 8, 73, 79
10, 13474, Note_on_c, 8, 73, 0
10, 13476, Note_on_c, 8, 65, 79
10, 13486, Note_on_c, 8, 65, 0
10, 13488, Note_on_c, 8, 66, 79
10, 13498, Note_on_c, 8, 66, 0
10, 13500, Note_on_c, 8, 69, 79
10, 13510, Note_on_c, 8, 69, 0
10, 13512, Note_on_c, 8, 73, 79
10, 13522, Note_on_c, 8, 73, 0
10, 13524, Note_on_c, 8, 61, 79
10, 13534, Note_on_c, 8, 61, 0
10, 13536, Note_on_c, 8, 66, 79
10, 13546, Note_on_c, 8, 66, 0
10, 13548, Note_on_c, 8, 69, 79
10, 13558, Note_on_c, 8, 69, 0
10, 13560, Note_on_c, 8, 73, 79
10, 13570, Note_on_c, 8, 73, 0
10, 13572, Note_on_c, 8, 65, 79
10, 13582, Note_on_c, 8, 65, 0
10, 13584, Note_on_c, 8, 66, 79
10, 13594, Note_on_c, 8, 66, 0
10, 13596, Note_on_c, 8, 69, 79
10, 13606, Note_on_c, 8, 69, 0
10, 13608, Note_on_c, 8, 73, 79
10, 13618, Note_on_c, 8, 73, 0
10, 13620, Note_on_c, 8, 61, 79
10, 13630, Note_on_c, 8, 61, 0
10, 13632, Note_on_c, 8, 66, 79
10, 13642, Note_on_c, 8, 66, 0
10, 13644, Note_on_c, 8, 69, 79
10, 13654, Note_on_c, 8, 69, 0
10, 13656, Note_on_c, 8, 74, 79
10, 13666, Note_on_c, 8, 74, 0
10, 13668, Note_on_c, 8, 65, 79
10, 13678, Note_on_c, 8, 65, 0
10, 13680, Note_on_c, 8, 66, 79
10, 13690, Note_on_c, 8, 66, 0
10, 13692, Note_on_c, 8, 69, 79
10, 13702, Note_on_c, 8, 69, 0
10, 13704, Note_on_c, 8, 74, 79
10, 13714, Note_on_c, 8, 74, 0
10, 13716, Note_on_c, 8, 62, 79
10, 13726, Note_on_c, 8, 62, 0
10, 13728, Note_on_c, 8, 66, 79
10, 13738, Note_on_c, 8, 66, 0
10, 13740, Note_on_c, 8, 69, 79
10, 13750, Note_on_c, 8, 69, 0
10, 13752, Note_on_c, 8, 74, 79
10, 13762, Note_on_c, 8, 74, 0
10, 13764, Note_on_c, 8, 65, 79
10, 13774, Note_on_c, 8, 65, 0
10, 13776, Note_on_c, 8, 66, 79
10, 13786, Note_on_c, 8, 66, 0
10, 13788, Note_on_c, 8, 69, 79
10, 13798, Note_on_c, 8, 69, 0
10, 13800, Note_on_c, 8, 74, 79
10, 13810, Note_on_c, 8, 74, 0
10, 13812, Note_on_c, 8, 62, 79
10, 13822, Note_on_c, 8, 62, 0
10, 13824, Note_on_c, 8, 65, 79
10, 13834, Note_on_c, 8, 65, 0
10, 13836, Note_on_c, 8, 68, 79
10, 13846, Note_on_c, 8, 68, 0
10, 13848, Note_on_c, 8, 71, 79
10, 13858, Note_on_c, 8, 71, 0
10, 13860, Note_on_c, 8, 63, 79
10, 13870, Note_on_c, 8, 63, 0
10, 13872, Note_on_c, 8, 65, 79
10, 13882, Note_on_c, 8, 65, 0
10, 13884, Note_on_c, 8, 68, 79
10, 13894, Note_on_c, 8, 68, 0
10, 13896, Note_on_c, 8, 71, 79
10, 13906, Note_on_c, 8, 71, 0
10, 13908, Note_on_c, 8, 61, 79
10, 13918, Note_on_c, 8, 61, 0
10, 13920, Note_on_c, 8, 65, 79
10, 13930, Note_on_c, 8, 65, 0
10, 13932, Note_on_c, 8, 68, 79
10, 13942, Note_on_c, 8, 68, 0
10, 13944, Note_on_c, 8, 71, 79
10, 13954, Note_on_c, 8, 71, 0
10, 13956, Note_on_c, 8, 63, 79
10, 13966, Note_on_c, 8, 63, 0
10, 13968, Note_on_c, 8, 65, 79
10, 13978, Note_on_c, 8, 65, 0
10, 13980, Note_on_c, 8, 68, 79
10, 13990, Note_on_c, 8, 68, 0
10, 13992, Note_on_c, 8, 71, 79
10, 14002, Note_on_c, 8, 71, 0
10, 14004, Note_on_c, 8, 61, 79
10, 14014, Note_on_c, 8, 61, 0
10, 14016, Note_on_c, 8, 66, 79
10, 14026, Note_on_c, 8, 66, 0
10, 14028, Note_on_c, 8, 68, 79
10, 14038, Note_on_c, 8, 68, 0
10, 14040, Note_on_c, 8, 69, 79
10, 14050, Note_on_c, 8, 69, 0
10, 14052, Note_on_c, 8, 65, 79
10, 14062, Note_on_c, 8, 65, 0
10, 14064, Note_on_c, 8, 66, 79
10, 14074, Note_on_c, 8, 66, 0
10, 14076, Note_on_c, 8, 68, 79
10, 14086, Note_on_c, 8, 68, 0
10, 14088, Note_on_c, 8, 69, 79
10, 14098, Note_on_c, 8, 69, 0
10, 14100, Note_on_c, 8, 61, 79
10, 14110, Note_on_c, 8, 61, 0
10, 14112, Note_on_c, 8, 66, 79
10, 14122, Note_on_c, 8, 66, 0
10, 14124, Note_on_c, 8, 68, 79
10, 14134, Note_on_c, 8, 68, 0
10, 14136, Note_on_c, 8, 69, 79
10, 14146, Note_on_c, 8, 69, 0
10, 14148, Note_on_c, 8, 65, 79
10, 14158, Note_on_c, 8, 65, 0
10, 14160, Note_on_c, 8, 66, 79
10, 14170, Note_on_c, 8, 66, 0
10, 14172, Note_on_c, 8, 68, 79
10, 14182, Note_on_c, 8, 68, 0
10, 14184, Note_on_c, 8, 69, 79
10, 14194, Note_on_c, 8, 69, 0
10, 14196, Note_on_c, 8, 61, 79
10, 14206, Note_on_c, 8, 61, 0
10, 14208, Note_on_c, 8, 66, 79
10, 14218, Note_on_c, 8, 66, 0
10, 14220, Note_on_c, 8, 69, 79
10, 14230, Note_on_c, 8, 69, 0
10, 14232, Note_on_c, 8, 74, 79
10, 14242, Note_on_c, 8, 74, 0
10, 14244, Note_on_c, 8, 65, 79
10, 14254, Note_on_c, 8, 65, 0
10, 14256, Note_on_c, 8, 66, 79
10, 14266, Note_on_c, 8, 66, 0
10, 14268, Note_on_c, 8, 69, 79
10, 14278, Note_on_c, 8, 69, 0
10, 14280, Note_on_c, 8, 74, 79
10, 14290, Note_on_c, 8, 74, 0
10, 14292, Note_on_c, 8, 62, 79
10, 14302, Note_on_c, 8, 62, 0
10, 14304, Note_on_c, 8, 66, 79
10, 14314, Note_on_c, 8, 66, 0
10, 14316, Note_on_c, 8, 69, 79
10, 14326, Note_on_c, 8, 69, 0
10, 14328, Note_on_c, 8, 74, 79
10, 14338, Note_on_c, 8, 74, 0
10, 14340, Note_on_c, 8, 65, 79
10, 14350, Note_on_c, 8, 65, 0
10, 14352, Note_on_c, 8, 66, 79
10, 14362, Note_on_c, 8, 66, 0
10, 14364, Note_on_c, 8, 69, 79
10, 14374, Note_on_c, 8, 69, 0
10, 14376, Note_on_c, 8, 74, 79
10, 14386, Note_on_c, 8, 74, 0
10, 14388, Note_on_c, 8, 62, 79
10, 14398, Note_on_c, 8, 62, 0
10, 14400, Note_on_c, 8, 68, 79
10, 14410, Note_on_c, 8, 68, 0
10, 14412, Note_on_c, 8, 71, 79
10, 14422, Note_on_c, 8, 71, 0
10, 14424, Note_on_c, 8, 74, 79
10, 14434, Note_on_c, 8, 74, 0
10, 14436, Note_on_c, 8, 66, 79
10, 14446, Note_on_c, 8, 66, 0
10, 14448, Note_on_c, 8, 68, 79
10, 14458, Note_on_c, 8, 68, 0
10, 14460, Note_on_c, 8, 71, 79
10, 14470, Note_on_c, 8, 71, 0
10, 14472, Note_on_c, 8, 74, 79
10, 14482, Note_on_c, 8, 74, 0
10, 14484, Note_on_c, 8, 64, 79
10, 14494, Note_on_c, 8, 64, 0
10, 14496, Note_on_c, 8, 68, 79
10, 14506, Note_on_c, 8, 68, 0
10, 14508, Note_on_c, 8, 71, 79
10, 14518, Note_on_c, 8, 71, 0
10, 14520, Note_on_c, 8, 74, 79
10, 14530, Note_on_c, 8, 74, 0
10, 14532, Note_on_c, 8, 66, 79
10, 14542, Note_on_c, 8, 66, 0
10, 14544, Note_on_c, 8, 68, 79
10, 14554, Note_on_c, 8, 68, 0
10, 14556, Note_on_c, 8, 71, 79
10, 14566, Note_on_c, 8, 71, 0
10, 14568, Note_on_c, 8, 74, 79
10, 14578, Note_on_c, 8, 74, 0
10, 14580, Note_on_c, 8, 64, 79
10, 14590, Note_on_c, 8, 64, 0
10, 14592, Note_on_c, 8, 69, 79
10, 14602, Note_on_c, 8, 69, 0
10, 14604, Note_on_c, 8, 73, 79
10, 14614, Note_on_c, 8, 73, 0
10, 14616, Note_on_c, 8, 76, 79
10, 14626, Note_on_c, 8, 76, 0
10, 14628, Note_on_c, 8, 68, 79
10, 14638, Note_on_c, 8, 68, 0
10, 14640, Note_on_c, 8, 69, 79
10, 14650, Note_on_c, 8, 69, 0
10, 14652, Note_on_c, 8, 73, 79
10, 14662, Note_on_c, 8, 73, 0
10, 14664, Note_on_c, 8, 76, 79
10, 14674, Note_on_c, 8, 76, 0
10, 14676, Note_on_c, 8, 64, 79
10, 14686, Note_on_c, 8, 64, 0
10, 14688, Note_on_c, 8, 69, 79
10, 14698, Note_on_c, 8, 69, 0
10, 14700, Note_on_c, 8, 73, 79
10, 14710, Note_on_c, 8, 73, 0
10, 14712, Note_on_c, 8, 76, 79
10, 14722, Note_on_c, 8, 76, 0
10, 14724, Note_on_c, 8, 68, 79
10, 14734, Note_on_c, 8, 68, 0
10, 14736, Note_on_c, 8, 69, 79
10, 14746, Note_on_c, 8, 69, 0
10, 14748, Note_on_c, 8, 73, 79
10, 14758, Note_on_c, 8, 73, 0
10, 14760, Note_on_c, 8, 76, 79
10, 14770, Note_on_c, 8, 76, 0
10, 14772, Note_on_c, 8, 64, 79
10, 14782, Note_on_c, 8, 64, 0
10, 14784, Note_on_c, 8, 69, 79
10, 14794, Note_on_c, 8, 69, 0
10, 14796, Note_on_c, 8, 74, 79
10, 14806, Note_on_c, 8, 74, 0
10, 14808, Note_on_c, 8, 78, 79
10, 14818, Note_on_c, 8, 78, 0
10, 14820, Note_on_c, 8, 68, 79
10, 14830, Note_on_c, 8, 68, 0
10, 14832, Note_on_c, 8, 69, 79
10, 14842, Note_on_c, 8, 69, 0
10, 14844, Note_on_c, 8, 74, 79
10, 14854, Note_on_c, 8, 74, 0
10, 14856, Note_on_c, 8, 78, 79
10, 14866, Note_on_c, 8, 78, 0
10, 14868, Note_on_c, 8, 66, 79
10, 14878, Note_on_c, 8, 66, 0
10, 14880, Note_on_c, 8, 69, 79
10, 14890, Note_on_c, 8, 69, 0
10, 14892, Note_on_c, 8, 74, 79
10, 14902, Note_on_c, 8, 74, 0
10, 14904, Note_on_c, 8, 78, 79
10, 14914, Note_on_c, 8, 78, 0
10, 14916, Note_on_c, 8, 68, 79
10, 14926, Note_on_c, 8, 68, 0
10, 14928, Note_on_c, 8, 69, 79
10, 14938, Note_on_c, 8, 69, 0
10, 14940, Note_on_c, 8, 74, 79
10, 14950, Note_on_c, 8, 74, 0
10, 14952, Note_on_c, 8, 78, 79
10, 14962, Note_on_c, 8, 78, 0
10, 14964, Note_on_c, 8, 66, 79
10, 14974, Note_on_c, 8, 66, 0
10, 14976, Note_on_c, 8, 68, 79
10, 14986, Note_on_c, 8, 68, 0
10, 14988, Note_on_c, 8, 71, 79
10, 14998, Note_on_c, 8, 71, 0
10, 15000, Note_on_c, 8, 74, 79
10, 15010, Note_on_c, 8, 74, 0
10, 15012, Note_on_c, 8, 66, 79
10, 15022, Note_on_c, 8, 66, 0
10, 15024, Note_on_c, 8, 68, 79
10, 15034, Note_on_c, 8, 68, 0
10, 15036, Note_on_c, 8, 71, 79
10, 15046, Note_on_c, 8, 71, 0
10, 15048, Note_on_c, 8, 74, 79
10, 15058, Note_on_c, 8, 74, 0
10, 15060, Note_on_c, 8, 64, 79
10, 15070, Note_on_c, 8, 64, 0
10, 15072, Note_on_c, 8, 68, 79
10, 15082, Note_on_c, 8, 68, 0
10, 15084, Note_on_c, 8, 71, 79
10, 15094, Note_on_c, 8, 71, 0
10, 15096, Note_on_c, 8, 74, 79
10, 15106, Note_on_c, 8, 74, 0
10, 15108, Note_on_c, 8, 66, 79
10, 15118, Note_on_c, 8, 66, 0
10, 15120, Note_on_c, 8, 68, 79
10, 15130, Note_on_c, 8, 68, 0
10, 15132, Note_on_c, 8, 71, 79
10, 15142, Note_on_c, 8, 71, 0
10, 15144, Note_on_c, 8, 74, 79
10, 15154, Note_on_c, 8, 74, 0
10, 15156, Note_on_c, 8, 64, 79
10, 15166, Note_on_c, 8, 64, 0
10, 15168, Note_on_c, 8, 69, 79
10, 15178, Note_on_c, 8, 69, 0
10, 15180, Note_on_c, 8, 71, 79
10, 15190, Note_on_c, 8, 71, 0
10, 15192, Note_on_c, 8, 73, 79
10, 15202, Note_on_c, 8, 73, 0
10, 15204, Note_on_c, 8, 68, 79
10, 15214, Note_on_c, 8, 68, 0
10, 15216, Note_on_c, 8, 69, 79
10, 15226, Note_on_c, 8, 69, 0
10, 15228, Note_on_c, 8, 71, 79
10, 15238, Note_on_c, 8, 71, 0
10, 15240, Note_on_c, 8, 73, 79
10, 15250, Note_on_c, 8, 73, 0
10, 15252, Note_on_c, 8, 64, 79
10, 15262, Note_on_c, 8, 64, 0
10, 15264, Note_on_c, 8, 69, 79
10, 15274, Note_on_c, 8, 69, 0
10, 15276, Note_on_c, 8, 71, 79
10, 15286, Note_on_c, 8, 71, 0
10, 15288, Note_on_c, 8, 73, 79
10, 15298, Note_on_c, 8, 73, 0
10, 15300, Note_on_c, 8, 68, 79
10, 15310, Note_on_c, 8, 68, 0
10, 15312, Note_on_c, 8, 69, 79
10, 15322, Note_on_c, 8, 69, 0
10, 15324, Note_on_c, 8, 71, 79
10, 15334, Note_on_c, 8, 71, 0
10, 15336, Note_on_c, 8, 73, 79
10, 15346, Note_on_c, 8, 73, 0
10, 15348, Note_on_c, 8, 64, 79
10, 15358, Note_on_c, 8, 64, 0
10, 15360, Note_on_c, 8, 69, 79
10, 15370, Note_on_c, 8, 69, 0
10, 15372, Note_on_c, 8, 73, 79
10, 15382, Note_on_c, 8, 73, 0
10, 15384, Note_on_c, 8, 78, 79
10, 15394, Note_on_c, 8, 78, 0
10, 15396, Note_on_c, 8, 68, 79
10, 15406, Note_on_c, 8, 68, 0
10, 15408, Note_on_c, 8, 69, 79
10, 15418, Note_on_c, 8, 69, 0
10, 15420, Note_on_c, 8, 73, 79
10, 15430, Note_on_c, 8, 73, 0
10, 15432, Note_on_c, 8, 78, 79
10, 15442, Note_on_c, 8, 78, 0
10, 15444, Note_on_c, 8, 66, 79
10, 15454, Note_on_c, 8, 66, 0
10, 15456, Note_on_c, 8, 69, 79
10, 15466, Note_on_c, 8, 69, 0
10, 15468, Note_on_c, 8, 73, 79
10, 15478, Note_on_c, 8, 73, 0
10, 15480, Note_on_c, 8, 78, 79
10, 15490, Note_on_c, 8, 78, 0
10, 15492, Note_on_c, 8, 68, 79
10, 15502, Note_on_c, 8, 68, 0
10, 15504, Note_on_c, 8, 69, 79
10, 15514, Note_on_c, 8, 69, 0
10, 15516, Note_on_c, 8, 73, 79
10, 15526, Note_on_c, 8, 73, 0
10, 15528, Note_on_c, 8, 78, 79
10, 15538, Note_on_c, 8, 78, 0
10, 15540, Note_on_c, 8, 66, 79
10, 15550, Note_on_c, 8, 66, 0
10, 15552, Note_on_c, 8, 71, 79
10, 15562, Note_on_c, 8, 71, 0
10, 15564, Note_on_c, 8, 75, 79
10, 15574, Note_on_c, 8, 75, 0
10, 15576, Note_on_c, 8, 78, 79
10, 15586, Note_on_c, 8, 78, 0
10, 15588, Note_on_c, 8, 69, 79
10, 15598, Note_on_c, 8, 69, 0
10, 15600, Note_on_c, 8, 71, 79
10, 15610, Note_on_c, 8, 71, 0
10, 15612, Note_on_c, 8, 75, 79
10, 15622, Note_on_c, 8, 75, 0
10, 15624, Note_on_c, 8, 78, 79
10, 15634, Note_on_c, 8, 78, 0
10, 15636, Note_on_c, 8, 68, 79
10, 15646, Note_on_c, 8, 68, 0
10, 15648, Note_on_c, 8, 71, 79
10, 15658, Note_on_c, 8, 71, 0
10, 15660, Note_on_c, 8, 75, 79
10, 15670, Note_on_c, 8, 75, 0
10, 15672, Note_on_c, 8, 78, 79
10, 15682, Note_on_c, 8, 78, 0
10, 15684, Note_on_c, 8, 69, 79
10, 15694, Note_on_c, 8, 69, 0
10, 15696, Note_on_c, 8, 71, 79
10, 15706, Note_on_c, 8, 71, 0
10, 15708, Note_on_c, 8, 75, 79
10, 15718, Note_on_c, 8, 75, 0
10, 15720, Note_on_c, 8, 78, 79
10, 15730, Note_on_c, 8, 78, 0
10, 15732, Note_on_c, 8, 68, 79
10, 15742, Note_on_c, 8, 68, 0
10, 15744, Note_on_c, 8, 68, 79
10, 15754, Note_on_c, 8, 68, 0
10, 15756, Note_on_c, 8, 71, 79
10, 15766, Note_on_c, 8, 71, 0
10, 15768, Note_on_c, 8, 76, 79
10, 15778, Note_on_c, 8, 76, 0
10, 15780, Note_on_c, 8, 66, 79
10, 15790, Note_on_c, 8, 66, 0
10, 15792, Note_on_c, 8, 68, 79
10, 15802, Note_on_c, 8, 68, 0
10, 15804, Note_on_c, 8, 71, 79
10, 15814, Note_on_c, 8, 71, 0
10, 15816, Note_on_c, 8, 76, 79
10, 15826, Note_on_c, 8, 76, 0
10, 15828, Note_on_c, 8, 64, 79
10, 15838, Note_on_c, 8, 64, 0
10, 15840, Note_on_c, 8, 68, 79
10, 15850, Note_on_c, 8, 68, 0
10, 15852, Note_on_c, 8, 71, 79
10, 15862, Note_on_c, 8, 71, 0
10, 15864, Note_on_c, 8, 76, 79
10, 15874, Note_on_c, 8, 76, 0
10, 15876, Note_on_c, 8, 66, 79
10, 15886, Note_on_c, 8, 66, 0
10, 15888, Note_on_c, 8, 68, 79
10, 15898, Note_on_c, 8, 68, 0
10, 15900, Note_on_c, 8, 71, 79
10, 15910, Note_on_c, 8, 71, 0
10, 15912, Note_on_c, 8, 76, 79
10, 15922, Note_on_c, 8, 76, 0
10, 15924, Note_on_c, 8, 64, 79
10, 15934, Note_on_c, 8, 64, 0
10, 15936, Note_on_c, 8, 69, 79
10, 15946, Note_on_c, 8, 69, 0
10, 15948, Note_on_c, 8, 73, 79
10, 15958, Note_on_c, 8, 73, 0
10, 15960, Note_on_c, 8, 76, 79
10, 15970, Note_on_c, 8, 76, 0
10, 15972, Note_on_c, 8, 68, 79
10, 15982, Note_on_c, 8, 68, 0
10, 15984, Note_on_c, 8, 69, 79
10, 15994, Note_on_c, 8, 69, 0
10, 15996, Note_on_c, 8, 73, 79
10, 16006, Note_on_c, 8, 73, 0
10, 16008, Note_on_c, 8, 76, 79
10, 16018, Note_on_c, 8, 76, 0
10, 16020, Note_on_c, 8, 66, 79
10, 16030, Note_on_c, 8, 66, 0
10, 16032, Note_on_c, 8, 69, 79
10, 16042, Note_on_c, 8, 69, 0
10, 16044, Note_on_c, 8, 73, 79
10, 16054, Note_on_c, 8, 73, 0
10, 16056, Note_on_c, 8, 76, 79
10, 16066, Note_on_c, 8, 76, 0
10, 16068, Note_on_c, 8, 68, 79
10, 16078, Note_on_c, 8, 68, 0
10, 16080, Note_on_c, 8, 69, 79
10, 16090, Note_on_c, 8, 69, 0
10, 16092, Note_on_c, 8, 73, 79
10, 16102, Note_on_c, 8, 73, 0
10, 16104, Note_on_c, 8, 76, 79
10, 16114, Note_on_c, 8, 76, 0
10, 16116, Note_on_c, 8, 66, 79
10, 16126, Note_on_c, 8, 66, 0
10, 16128, Note_on_c, 8, 66, 79
10, 16138, Note_on_c, 8, 66, 0
10, 16140, Note_on_c, 8, 69, 79
10, 16150, Note_on_c, 8, 69, 0
10, 16152, Note_on_c, 8, 74, 79
10, 16162, Note_on_c, 8, 74, 0
10, 16164, Note_on_c, 8, 64, 79
10, 16174, Note_on_c, 8, 64, 0
10, 16176, Note_on_c, 8, 66, 79
10, 16186, Note_on_c, 8, 66, 0
10, 16188, Note_on_c, 8, 69, 79
10, 16198, Note_on_c, 8, 69, 0
10, 16200, Note_on_c, 8, 74, 79
10, 16210, Note_on_c, 8, 74, 0
10, 16212, Note_on_c, 8, 62, 79
10, 16222, Note_on_c, 8, 62, 0
10, 16224, Note_on_c, 8, 66, 79
10, 16234, Note_on_c, 8, 66, 0
10, 16236, Note_on_c, 8, 69, 79
10, 16246, Note_on_c, 8, 69, 0
10, 16248, Note_on_c, 8, 74, 79
10, 16258, Note_on_c, 8, 74, 0
10, 16260, Note_on_c, 8, 64, 79
10, 16270, Note_on_c, 8, 64, 0
10, 16272, Note_on_c, 8, 66, 79
10, 16282, Note_on_c, 8, 66, 0
10, 16284, Note_on_c, 8, 69, 79
10, 16294, Note_on_c, 8, 69, 0
10, 16296, Note_on_c, 8, 74, 79
10, 16306, Note_on_c, 8, 74, 0
10, 16308, Note_on_c, 8, 62, 79
10, 16318, Note_on_c, 8, 62, 0
10, 16320, Note_on_c, 8, 68, 79
10, 16330, Note_on_c, 8, 68, 0
10, 16332, Note_on_c, 8, 71, 79
10, 16342, Note_on_c, 8, 71, 0
10, 16344, Note_on_c, 8, 74, 79
10, 16354, Note_on_c, 8, 74, 0
10, 16356, Note_on_c, 8, 66, 79
10, 16366, Note_on_c, 8, 66, 0
10, 16368, Note_on_c, 8, 68, 79
10, 16378, Note_on_c, 8, 68, 0
10, 16380, Note_on_c, 8, 71, 79
10, 16390, Note_on_c, 8, 71, 0
10, 16392, Note_on_c, 8, 74, 79
10, 16402, Note_on_c, 8, 74, 0
10, 16404, Note_on_c, 8, 64, 79
10, 16414, Note_on_c, 8, 64, 0
10, 16416, Note_on_c, 8, 68, 79
10, 16426, Note_on_c, 8, 68, 0
10, 16428, Note_on_c, 8, 71, 79
10, 16438, Note_on_c, 8, 71, 0
10, 16440, Note_on_c, 8, 74, 79
10, 16450, Note_on_c, 8, 74, 0
10, 16452, Note_on_c, 8, 66, 79
10, 16462, Note_on_c, 8, 66, 0
10, 16464, Note_on_c, 8, 68, 79
10, 16474, Note_on_c, 8, 68, 0
10, 16476, Note_on_c, 8, 71, 79
10, 16486, Note_on_c, 8, 71, 0
10, 16488, Note_on_c, 8, 74, 79
10, 16498, Note_on_c, 8, 74, 0
10, 16500, Note_on_c, 8, 62, 79
10, 16510, Note_on_c, 8, 62, 0
10, 16512, Note_on_c, 8, 64, 79
10, 16522, Note_on_c, 8, 64, 0
10, 16524, Note_on_c, 8, 68, 79
10, 16534, Note_on_c, 8, 68, 0
10, 16536, Note_on_c, 8, 73, 79
10, 16546, Note_on_c, 8, 73, 0
10, 16548, Note_on_c, 8, 62, 79
10, 16558, Note_on_c, 8, 62, 0
10, 16560, Note_on_c, 8, 64, 79
10, 16570, Note_on_c, 8, 64, 0
10, 16572, Note_on_c, 8, 68, 79
10, 16582, Note_on_c, 8, 68, 0
10, 16584, Note_on_c, 8, 73, 79
10, 16594, Note_on_c, 8, 73, 0
10, 16596, Note_on_c, 8, 61, 79
10, 16606, Note_on_c, 8, 61, 0
10, 16608, Note_on_c, 8, 64, 79
10, 16618, Note_on_c, 8, 64, 0
10, 16620, Note_on_c, 8, 68, 79
10, 16630, Note_on_c, 8, 68, 0
10, 16632, Note_on_c, 8, 73, 79
10, 16642, Note_on_c, 8, 73, 0
10, 16644, Note_on_c, 8, 62, 79
10, 16654, Note_on_c, 8, 62, 0
10, 16656, Note_on_c, 8, 64, 79
10, 16666, Note_on_c, 8, 64, 0
10, 16668, Note_on_c, 8, 68, 79
10, 16678, Note_on_c, 8, 68, 0
10, 16680, Note_on_c, 8, 73, 79
10, 16690, Note_on_c, 8, 73, 0
10, 16692, Note_on_c, 8, 61, 79
10, 16702, Note_on_c, 8, 61, 0
10, 16704, Note_on_c, 8, 66, 79
10, 16714, Note_on_c, 8, 66, 0
10, 16716, Note_on_c, 8, 69, 79
10, 16726, Note_on_c, 8, 69, 0
10, 16728, Note_on_c, 8, 73, 79
10, 16738, Note_on_c, 8, 73, 0
10, 16740, Note_on_c, 8, 64, 79
10, 16750, Note_on_c, 8, 64, 0
10, 16752, Note_on_c, 8, 66, 79
10, 16762, Note_on_c, 8, 66, 0
10, 16764, Note_on_c, 8, 69, 79
10, 16774, Note_on_c, 8, 69, 0
10, 16776, Note_on_c, 8, 73, 79
10, 16786, Note_on_c, 8, 73, 0
10, 16788, Note_on_c, 8, 62, 79
10, 16798, Note_on_c, 8, 62, 0
10, 16800, Note_on_c, 8, 66, 79
10, 16810, Note_on_c, 8, 66, 0
10, 16812, Note_on_c, 8, 69, 79
10, 16822, Note_on_c, 8, 69, 0
10, 16824, Note_on_c, 8, 73, 79
10, 16834, Note_on_c, 8, 73, 0
10, 16836, Note_on_c, 8, 64, 79
10, 16846, Note_on_c, 8, 64, 0
10, 16848, Note_on_c, 8, 66, 79
10, 16858, Note_on_c, 8, 66, 0
10, 16860, Note_on_c, 8, 69, 79
10, 16870, Note_on_c, 8, 69, 0
10, 16872, Note_on_c, 8, 73, 79
10, 16882, Note_on_c, 8, 73, 0
10, 16884, Note_on_c, 8, 61, 79
10, 16894, Note_on_c, 8, 61, 0
10, 16896, Note_on_c, 8, 62, 79
10, 16906, Note_on_c, 8, 62, 0
10, 16908, Note_on_c, 8, 66, 79
10, 16918, Note_on_c, 8, 66, 0
10, 16920, Note_on_c, 8, 71, 79
10, 16930, Note_on_c, 8, 71, 0
10, 16932, Note_on_c, 8, 61, 79
10, 16942, Note_on_c, 8, 61, 0
10, 16944, Note_on_c, 8, 62, 79
10, 16954, Note_on_c, 8, 62, 0
10, 16956, Note_on_c, 8, 66, 79
10, 16966, Note_on_c, 8, 66, 0
10, 16968, Note_on_c, 8, 71, 79
10, 16978, Note_on_c, 8, 71, 0
10, 16980, Note_on_c, 8, 59, 79
10, 16990, Note_on_c, 8, 59, 0
10, 16992, Note_on_c, 8, 62, 79
10, 17002, Note_on_c, 8, 62, 0
10, 17004, Note_on_c, 8, 66, 79
10, 17014, Note_on_c, 8, 66, 0
10, 17016, Note_on_c, 8, 71, 79
10, 17026, Note_on_c, 8, 71, 0
10, 17028, Note_on_c, 8, 61, 79
10, 17038, Note_on_c, 8, 61, 0
10, 17040, Note_on_c, 8, 62, 79
10, 17050, Note_on_c, 8, 62, 0
10, 17052, Note_on_c, 8, 66, 79
10, 17062, Note_on_c, 8, 66, 0
10, 17064, Note_on_c, 8, 71, 79
10, 17074, Note_on_c, 8, 71, 0
10, 17076, Note_on_c, 8, 59, 79
10, 17086, Note_on_c, 8, 59, 0
10, 17088, Note_on_c, 8, 64, 79
10, 17098, Note_on_c, 8, 64, 0
10, 17100, Note_on_c, 8, 68, 79
10, 17110, Note_on_c, 8, 68, 0
10, 17112, Note_on_c, 8, 71, 79
10, 17122, Note_on_c, 8, 71, 0
10, 17124, Note_on_c, 8, 62, 79
10, 17134, Note_on_c, 8, 62, 0
10, 17136, Note_on_c, 8, 64, 79
10, 17146, Note_on_c, 8, 64, 0
10, 17148, Note_on_c, 8, 68, 79
10, 17158, Note_on_c, 8, 68, 0
10, 17160, Note_on_c, 8, 71, 79
10, 17170, Note_on_c, 8, 71, 0
10, 17172, Note_on_c, 8, 61, 79
10, 17182, Note_on_c, 8, 61, 0
10, 17184, Note_on_c, 8, 64, 79
10, 17194, Note_on_c, 8, 64, 0
10, 17196, Note_on_c, 8, 68, 79
10, 17206, Note_on_c, 8, 68, 0
10, 17208, Note_on_c, 8, 71, 79
10, 17218, Note_on_c, 8, 71, 0
10, 17220, Note_on_c, 8, 62, 79
10, 17230, Note_on_c, 8, 62, 0
10, 17232, Note_on_c, 8, 64, 79
10, 17242, Note_on_c, 8, 64, 0
10, 17244, Note_on_c, 8, 68, 79
10, 17254, Note_on_c, 8, 68, 0
10, 17256, Note_on_c, 8, 71, 79
10, 17266, Note_on_c, 8, 71, 0
10, 17268, Note_on_c, 8, 59, 79
10, 17278, Note_on_c, 8, 59, 0
10, 17280, Note_on_c, 8, 61, 79
10, 17290, Note_on_c, 8, 61, 0
10, 17292, Note_on_c, 8, 64, 79
10, 17302, Note_on_c, 8, 64, 0
10, 17304, Note_on_c, 8, 73, 79
10, 17314, Note_on_c, 8, 73, 0
10, 17316, Note_on_c, 8, 59, 79
10, 17326, Note_on_c, 8, 59, 0
10, 17328, Note_on_c, 8, 61, 79
10, 17338, Note_on_c, 8, 61, 0
10, 17340, Note_on_c, 8, 64, 79
10, 17350, Note_on_c, 8, 64, 0
10, 17352, Note_on_c, 8, 73, 79
10, 17362, Note_on_c, 8, 73, 0
10, 17364, Note_on_c, 8, 57, 79
10, 17374, Note_on_c, 8, 57, 0
10, 17376, Note_on_c, 8, 61, 79
10, 17386, Note_on_c, 8, 61, 0
10, 17388, Note_on_c, 8, 64, 79
10, 17398, Note_on_c, 8, 64, 0
10, 17400, Note_on_c, 8, 73, 79
10, 17410, Note_on_c, 8, 73, 0
10, 17412, Note_on_c, 8, 59, 79
10, 17422, Note_on_c, 8, 59, 0
10, 17424, Note_on_c, 8, 61, 79
10, 17434, Note_on_c, 8, 61, 0
10, 17436, Note_on_c, 8, 64, 79
10, 17446, Note_on_c, 8, 64, 0
10, 17448, Note_on_c, 8, 73, 79
10, 17458, Note_on_c, 8, 73, 0
10, 17460, Note_on_c, 8, 57, 79
10, 17470, Note_on_c, 8, 57, 0
10, 17472, Note_on_c, 8, 62, 79
10, 17482, Note_on_c, 8, 62, 0
10, 17484, Note_on_c, 8, 66, 79
10, 17494, Note_on_c, 8, 66, 0
10, 17496, Note_on_c, 8, 69, 79
10, 17506, Note_on_c, 8, 69, 0
10, 17508, Note_on_c, 8, 61, 79
10, 17518, Note_on_c, 8, 61, 0
10, 17520, Note_on_c, 8, 62, 79
10, 17530, Note_on_c, 8, 62, 0
10, 17532, Note_on_c, 8, 66, 79
10, 17542, Note_on_c, 8, 66, 0
10, 17544, Note_on_c, 8, 69, 79
10, 17554, Note_on_c, 8, 69, 0
10, 17556, Note_on_c, 8, 59, 79
10, 17566, Note_on_c, 8, 59, 0
10, 17568, Note_on_c, 8, 62, 79
10, 17578, Note_on_c, 8, 62, 0
10, 17580, Note_on_c, 8, 66, 79
10, 17590, Note_on_c, 8, 66, 0
10, 17592, Note_on_c, 8, 69, 79
10, 17602, Note_on_c, 8, 69, 0
10, 17604, Note_on_c, 8, 61, 79
10, 17614, Note_on_c, 8, 61, 0
10, 17616, Note_on_c, 8, 62, 79
10, 17626, Note_on_c, 8, 62, 0
10, 17628, Note_on_c, 8, 66, 79
10, 17638, Note_on_c, 8, 66, 0
10, 17640, Note_on_c, 8, 69, 79
10, 17650, Note_on_c, 8, 69, 0
10, 17652, Note_on_c, 8, 59, 79
10, 17662, Note_on_c, 8, 59, 0
10, 17664, Note_on_c, 8, 62, 79
10, 17674, Note_on_c, 8, 62, 0
10, 17676, Note_on_c, 8, 64, 79
10, 17686, Note_on_c, 8, 64, 0
10, 17688, Note_on_c, 8, 68, 79
10, 17698, Note_on_c, 8, 68, 0
10, 17700, Note_on_c, 8, 61, 79
10, 17710, Note_on_c, 8, 61, 0
10, 17712, Note_on_c, 8, 62, 79
10, 17722, Note_on_c, 8, 62, 0
10, 17724, Note_on_c, 8, 64, 79
10, 17734, Note_on_c, 8, 64, 0
10, 17736, Note_on_c, 8, 68, 79
10, 17746, Note_on_c, 8, 68, 0
10, 17748, Note_on_c, 8, 59, 79
10, 17758, Note_on_c, 8, 59, 0
10, 17760, Note_on_c, 8, 62, 79
10, 17770, Note_on_c, 8, 62, 0
10, 17772, Note_on_c, 8, 64, 79
10, 17782, Note_on_c, 8, 64, 0
10, 17784, Note_on_c, 8, 68, 79
10, 17794, Note_on_c, 8, 68, 0
10, 17796, Note_on_c, 8, 61, 79
10, 17806, Note_on_c, 8, 61, 0
10, 17808, Note_on_c, 8, 62, 79
10, 17818, Note_on_c, 8, 62, 0
10, 17820, Note_on_c, 8, 64, 79
10, 17830, Note_on_c, 8, 64, 0
10, 17832, Note_on_c, 8, 68, 79
10, 17842, Note_on_c, 8, 68, 0
10, 17844, Note_on_c, 8, 59, 79
10, 17854, Note_on_c, 8, 59, 0
10, 17856, Note_on_c, 8, 61, 79
10, 17866, Note_on_c, 8, 61, 0
10, 17868, Note_on_c, 8, 64, 79
10, 17878, Note_on_c, 8, 64, 0
10, 17880, Note_on_c, 8, 69, 79
10, 17890, Note_on_c, 8, 69, 0
10, 17892, Note_on_c, 8, 61, 79
10, 17902, Note_on_c, 8, 61, 0
10, 17904, Note_on_c, 8, 62, 79
10, 17914, Note_on_c, 8, 62, 0
10, 17916, Note_on_c, 8, 68, 79
10, 17926, Note_on_c, 8, 68, 0
10, 17928, Note_on_c, 8, 71, 79
10, 17938, Note_on_c, 8, 71, 0
10, 17940, Note_on_c, 8, 62, 79
10, 17950, Note_on_c, 8, 62, 0
10, 17952, Note_on_c, 8, 64, 79
10, 17962, Note_on_c, 8, 64, 0
10, 17964, Note_on_c, 8, 69, 79
10, 17974, Note_on_c, 8, 69, 0
10, 17976, Note_on_c, 8, 73, 79
10, 17986, Note_on_c, 8, 73, 0
10, 17988, Note_on_c, 8, 64, 79
10, 17998, Note_on_c, 8, 64, 0
10, 18000, Note_on_c, 8, 66, 79
10, 18010, Note_on_c, 8, 66, 0
10, 18012, Note_on_c, 8, 69, 79
10, 18022, Note_on_c, 8, 69, 0
10, 18024, Note_on_c, 8, 74, 79
10, 18034, Note_on_c, 8, 74, 0
10, 18036, Note_on_c, 8, 66, 79
10, 18046, Note_on_c, 8, 66, 0
10, 18048, Note_on_c, 8, 68, 79
10, 18058, Note_on_c, 8, 68, 0
10, 18060, Note_on_c, 8, 71, 79
10, 18070, Note_on_c, 8, 71, 0
10, 18072, Note_on_c, 8, 74, 79
10, 18082, Note_on_c, 8, 74, 0
10, 18084, Note_on_c, 8, 66, 79
10, 18094, Note_on_c, 8, 66, 0
10, 18096, Note_on_c, 8, 68, 79
10, 18106, Note_on_c, 8, 68, 0
10, 18108, Note_on_c, 8, 71, 79
10, 18118, Note_on_c, 8, 71, 0
10, 18120, Note_on_c, 8, 74, 79
10, 18130, Note_on_c, 8, 74, 0
10, 18132, Note_on_c, 8, 64, 79
10, 18142, Note_on_c, 8, 64, 0
10, 18144, Note_on_c, 8, 68, 79
10, 18154, Note_on_c, 8, 68, 0
10, 18156, Note_on_c, 8, 71, 79
10, 18166, Note_on_c, 8, 71, 0
10, 18168, Note_on_c, 8, 74, 79
10, 18178, Note_on_c, 8, 74, 0
10, 18180, Note_on_c, 8, 66, 79
10, 18190, Note_on_c, 8, 66, 0
10, 18192, Note_on_c, 8, 68, 79
10, 18202, Note_on_c, 8, 68, 0
10, 18204, Note_on_c, 8, 71, 79
10, 18214, Note_on_c, 8, 71, 0
10, 18216, Note_on_c, 8, 74, 79
10, 18226, Note_on_c, 8, 74, 0
10, 18228, Note_on_c, 8, 64, 79
10, 18238, Note_on_c, 8, 64, 0
10, 18240, Note_on_c, 8, 69, 79
10, 18250, Note_on_c, 8, 69, 0
10, 18252, Note_on_c, 8, 71, 79
10, 18262, Note_on_c, 8, 71, 0
10, 18264, Note_on_c, 8, 72, 79
10, 18274, Note_on_c, 8, 72, 0
10, 18276, Note_on_c, 8, 68, 79
10, 18286, Note_on_c, 8, 68, 0
10, 18288, Note_on_c, 8, 69, 79
10, 18298, Note_on_c, 8, 69, 0
10, 18300, Note_on_c, 8, 71, 79
10, 18310, Note_on_c, 8, 71, 0
10, 18312, Note_on_c, 8, 72, 79
10, 18322, Note_on_c, 8, 72, 0
10, 18324, Note_on_c, 8, 63, 79
10, 18334, Note_on_c, 8, 63, 0
10, 18336, Note_on_c, 8, 69, 79
10, 18346, Note_on_c, 8, 69, 0
10, 18348, Note_on_c, 8, 71, 79
10, 18358, Note_on_c, 8, 71, 0
10, 18360, Note_on_c, 8, 72, 79
10, 18370, Note_on_c, 8, 72, 0
10, 18372, Note_on_c, 8, 68, 79
10, 18382, Note_on_c, 8, 68, 0
10, 18384, Note_on_c, 8, 69, 79
10, 18394, Note_on_c, 8, 69, 0
10, 18396, Note_on_c, 8, 71, 79
10, 18406, Note_on_c, 8, 71, 0
10, 18408, Note_on_c, 8, 72, 79
10, 18418, Note_on_c, 8, 72, 0
10, 18420, Note_on_c, 8, 63, 79
10, 18430, Note_on_c, 8, 63, 0
10, 18432, Note_on_c, 8, 65, 79
10, 18442, Note_on_c, 8, 65, 0
10, 18444, Note_on_c, 8, 68, 79
10, 18454, Note_on_c, 8, 68, 0
10, 18456, Note_on_c, 8, 71, 79
10, 18466, Note_on_c, 8, 71, 0
10, 18468, Note_on_c, 8, 64, 79
10, 18478, Note_on_c, 8, 64, 0
10, 18480, Note_on_c, 8, 65, 79
10, 18490, Note_on_c, 8, 65, 0
10, 18492, Note_on_c, 8, 68, 79
10, 18502, Note_on_c, 8, 68, 0
10, 18504, Note_on_c, 8, 71, 79
10, 18514, Note_on_c, 8, 71, 0
10, 18516, Note_on_c, 8, 62, 79
10, 18526, Note_on_c, 8, 62, 0
10, 18528, Note_on_c, 8, 65, 79
10, 18538, Note_on_c, 8, 65, 0
10, 18540, Note_on_c, 8, 68, 79
10, 18550, Note_on_c, 8, 68, 0
10, 18552, Note_on_c, 8, 71, 79
10, 18562, Note_on_c, 8, 71, 0
10, 18564, Note_on_c, 8, 64, 79
10, 18574, Note_on_c, 8, 64, 0
10, 18576, Note_on_c, 8, 65, 79
10, 18586, Note_on_c, 8, 65, 0
10, 18588, Note_on_c, 8, 68, 79
10, 18598, Note_on_c, 8, 68, 0
10, 18600, Note_on_c, 8, 71, 79
10, 18610, Note_on_c, 8, 71, 0
10, 18612, Note_on_c, 8, 62, 79
10, 18622, Note_on_c, 8, 62, 0
10, 18624, Note_on_c, 8, 64, 79
10, 18634, Note_on_c, 8, 64, 0
10, 18636, Note_on_c, 8, 68, 79
10, 18646, Note_on_c, 8, 68, 0
10, 18648, Note_on_c, 8, 69, 79
10, 18658, Note_on_c, 8, 69, 0
10, 18660, Note_on_c, 8, 63, 79
10, 18670, Note_on_c, 8, 63, 0
10, 18672, Note_on_c, 8, 64, 79
10, 18682, Note_on_c, 8, 64, 0
10, 18684, Note_on_c, 8, 68, 79
10, 18694, Note_on_c, 8, 68, 0
10, 18696, Note_on_c, 8, 69, 79
10, 18706, Note_on_c, 8, 69, 0
10, 18708, Note_on_c, 8, 60, 79
10, 18718, Note_on_c, 8, 60, 0
10, 18720, Note_on_c, 8, 64, 79
10, 18730, Note_on_c, 8, 64, 0
10, 18732, Note_on_c, 8, 68, 79
10, 18742, Note_on_c, 8, 68, 0
10, 18744, Note_on_c, 8, 69, 79
10, 18754, Note_on_c, 8, 69, 0
10, 18756, Note_on_c, 8, 63, 79
10, 18766, Note_on_c, 8, 63, 0
10, 18768, Note_on_c, 8, 64, 79
10, 18778, Note_on_c, 8, 64, 0
10, 18780, Note_on_c, 8, 68, 79
10, 18790, Note_on_c, 8, 68, 0
10, 18792, Note_on_c, 8, 69, 79
10, 18802, Note_on_c, 8, 69, 0
10, 18804, Note_on_c, 8, 60, 79
10, 18814, Note_on_c, 8, 60, 0
10, 18816, Note_on_c, 8, 62, 79
10, 18826, Note_on_c, 8, 62, 0
10, 18828, Note_on_c, 8, 68, 79
10, 18838, Note_on_c, 8, 68, 0
10, 18840, Note_on_c, 8, 69, 79
10, 18850, Note_on_c, 8, 69, 0
10, 18852, Note_on_c, 8, 60, 79
10, 18862, Note_on_c, 8, 60, 0
10, 18864, Note_on_c, 8, 62, 79
10, 18874, Note_on_c, 8, 62, 0
10, 18876, Note_on_c, 8, 68, 79
10, 18886, Note_on_c, 8, 68, 0
10, 18888, Note_on_c, 8, 69, 79
10, 18898, Note_on_c, 8, 69, 0
10, 18900, Note_on_c, 8, 59, 79
10, 18910, Note_on_c, 8, 59, 0
10, 18912, Note_on_c, 8, 62, 79
10, 18922, Note_on_c, 8, 62, 0
10, 18924, Note_on_c, 8, 68, 79
10, 18934, Note_on_c, 8, 68, 0
10, 18936, Note_on_c, 8, 69, 79
10, 18946, Note_on_c, 8, 69, 0
10, 18948, Note_on_c, 8, 60, 79
10, 18958, Note_on_c, 8, 60, 0
10, 18960, Note_on_c, 8, 62, 79
10, 18970, Note_on_c, 8, 62, 0
10, 18972, Note_on_c, 8, 68, 79
10, 18982, Note_on_c, 8, 68, 0
10, 18984, Note_on_c, 8, 69, 79
10, 18994, Note_on_c, 8, 69, 0
10, 18996, Note_on_c, 8, 59, 79
10, 19006, Note_on_c, 8, 59, 0
10, 19008, Note_on_c, 8, 62, 79
10, 19018, Note_on_c, 8, 62, 0
10, 19020, Note_on_c, 8, 64, 79
10, 19030, Note_on_c, 8, 64, 0
10, 19032, Note_on_c, 8, 68, 79
10, 19042, Note_on_c, 8, 68, 0
10, 19044, Note_on_c, 8, 60, 79
10, 19054, Note_on_c, 8, 60, 0
10, 19056, Note_on_c, 8, 62, 79
10, 19066, Note_on_c, 8, 62, 0
10, 19068, Note_on_c, 8, 64, 79
10, 19078, Note_on_c, 8, 64, 0
10, 19080, Note_on_c, 8, 68, 79
10, 19090, Note_on_c, 8, 68, 0
10, 19092, Note_on_c, 8, 59, 79
10, 19102, Note_on_c, 8, 59, 0
10, 19104, Note_on_c, 8, 62, 79
10, 19114, Note_on_c, 8, 62, 0
10, 19116, Note_on_c, 8, 64, 79
10, 19126, Note_on_c, 8, 64, 0
10, 19128, Note_on_c, 8, 68, 79
10, 19138, Note_on_c, 8, 68, 0
10, 19140, Note_on_c, 8, 60, 79
10, 19150, Note_on_c, 8, 60, 0
10, 19152, Note_on_c, 8, 62, 79
10, 19162, Note_on_c, 8, 62, 0
10, 19164, Note_on_c, 8, 64, 79
10, 19174, Note_on_c, 8, 64, 0
10, 19176, Note_on_c, 8, 68, 79
10, 19186, Note_on_c, 8, 68, 0
10, 19188, Note_on_c, 8, 59, 79
10, 19198, Note_on_c, 8, 59, 0
10, 19200, Note_on_c, 8, 61, 79
10, 19200, Note_on_c, 8, 64, 79
10, 19200, Note_on_c, 8, 69, 79
10, 19240, Note_on_c, 8, 61, 0
10, 19240, Note_on_c, 8, 64, 0
10, 19240, Note_on_c, 8, 69, 0
10, 21036, Note_on_c, 8, 81, 79
10, 21041, Note_on_c, 8, 81, 0
10, 21042, Note_on_c, 8, 79, 79
10, 21047, Note_on_c, 8, 79, 0
10, 21048, Note_on_c, 8, 78, 79
10, 21058, Note_on_c, 8, 78, 0
10, 21060, Note_on_c, 8, 81, 79
10, 21070, Note_on_c, 8, 81, 0
10, 21072, Note_on_c, 8, 76, 79
10, 21082, Note_on_c, 8, 76, 0
10, 21084, Note_on_c, 8, 81, 79
10, 21094, Note_on_c, 8, 81, 0
10, 21096, Note_on_c, 8, 74, 79
10, 21106, Note_on_c, 8, 74, 0
10, 21108, Note_on_c, 8, 81, 79
10, 21118, Note_on_c, 8, 81, 0
10, 21120, Note_on_c, 8, 73, 79
10, 21130, Note_on_c, 8, 73, 0
10, 21132, Note_on_c, 8, 81, 79
10, 21142, Note_on_c, 8, 81, 0
10, 21144, Note_on_c, 8, 74, 79
10, 21154, Note_on_c, 8, 74, 0
10, 21156, Note_on_c, 8, 81, 79
10, 21166, Note_on_c, 8, 81, 0
10, 21168, Note_on_c, 8, 73, 79
10, 21178, Note_on_c, 8, 73, 0
10, 21180, Note_on_c, 8, 81, 79
10, 21190, Note_on_c, 8, 81, 0
10, 21192, Note_on_c, 8, 71, 79
10, 21202, Note_on_c, 8, 71, 0
10, 21204, Note_on_c, 8, 81, 79
10, 21214, Note_on_c, 8, 81, 0
10, 21216, Note_on_c, 8, 69, 79
10, 21236, Note_on_c, 8, 69, 0
10, 21240, Note_on_c, 8, 73, 79
10, 21247, Note_on_c, 8, 73, 0
10, 21248, Note_on_c, 8, 71, 79
10, 21255, Note_on_c, 8, 71, 0
10, 21256, Note_on_c, 8, 73, 79
10, 21263, Note_on_c, 8, 73, 0
10, 21264, Note_on_c, 8, 74, 79
10, 21271, Note_on_c, 8, 74, 0
10, 21272, Note_on_c, 8, 73, 79
10, 21279, Note_on_c, 8, 73, 0
10, 21280, Note_on_c, 8, 74, 79
10, 21287, Note_on_c, 8, 74, 0
10, 21288, Note_on_c, 8, 76, 79
10, 21295, Note_on_c, 8, 76, 0
10, 21296, Note_on_c, 8, 74, 79
10, 21303, Note_on_c, 8, 74, 0
10, 21304, Note_on_c, 8, 76, 79
10, 21311, Note_on_c, 8, 76, 0
10, 21312, Note_on_c, 8, 78, 79
10, 21322, Note_on_c, 8, 78, 0
10, 21324, Note_on_c, 8, 76, 79
10, 21334, Note_on_c, 8, 76, 0
10, 21336, Note_on_c, 8, 74, 79
10, 21346, Note_on_c, 8, 74, 0
10, 21348, Note_on_c, 8, 76, 79
10, 21358, Note_on_c, 8, 76, 0
10, 21360, Note_on_c, 8, 78, 79
10, 21370, Note_on_c, 8, 78, 0
10, 21372, Note_on_c, 8, 79, 79
10, 21382, Note_on_c, 8, 79, 0
10, 21384, Note_on_c, 8, 81, 79
10, 21394, Note_on_c, 8, 81, 0
10, 21396, Note_on_c, 8, 83, 79
10, 21406, Note_on_c, 8, 83, 0
10, 21408, Note_on_c, 8, 76, 79
10, 21418, Note_on_c, 8, 76, 0
10, 21420, Note_on_c, 8, 78, 79
10, 21430, Note_on_c, 8, 78, 0
10, 21432, Note_on_c, 8, 76, 79
10, 21442, Note_on_c, 8, 76, 0
10, 21444, Note_on_c, 8, 74, 79
10, 21454, Note_on_c, 8, 74, 0
10, 21456, Note_on_c, 8, 73, 79
10, 21466, Note_on_c, 8, 73, 0
10, 21468, Note_on_c, 8, 71, 79
10, 21478, Note_on_c, 8, 71, 0
10, 21480, Note_on_c, 8, 69, 79
10, 21490, Note_on_c, 8, 69, 0
10, 21492, Note_on_c, 8, 67, 79
10, 21502, Note_on_c, 8, 67, 0
10, 21504, Note_on_c, 8, 66, 79
10, 21514, Note_on_c, 8, 66, 0
10, 21516, Note_on_c, 8, 64, 79
10, 21526, Note_on_c, 8, 64, 0
10, 21528, Note_on_c, 8, 66, 79
10, 21538, Note_on_c, 8, 66, 0
10, 21540, Note_on_c, 8, 69, 79
10, 21550, Note_on_c, 8, 69, 0
10, 21552, Note_on_c, 8, 64, 79
10, 21562, Note_on_c, 8, 64, 0
10, 21564, Note_on_c, 8, 69, 79
10, 21574, Note_on_c, 8, 69, 0
10, 21576, Note_on_c, 8, 62, 79
10, 21586, Note_on_c, 8, 62, 0
10, 21588, Note_on_c, 8, 69, 79
10, 21598, Note_on_c, 8, 69, 0
10, 21600, Note_on_c, 8, 61, 79
10, 21610, Note_on_c, 8, 61, 0
10, 21612, Note_on_c, 8, 69, 79
10, 21622, Note_on_c, 8, 69, 0
10, 21624, Note_on_c, 8, 62, 79
10, 21634, Note_on_c, 8, 62, 0
10, 21636, Note_on_c, 8, 69, 79
10, 21646, Note_on_c, 8, 69, 0
10, 21648, Note_on_c, 8, 61, 79
10, 21658, Note_on_c, 8, 61, 0
10, 21660, Note_on_c, 8, 69, 79
10, 21670, Note_on_c, 8, 69, 0
10, 21672, Note_on_c, 8, 59, 79
10, 21682, Note_on_c, 8, 59, 0
10, 21684, Note_on_c, 8, 69, 79
10, 21694, Note_on_c, 8, 69, 0
10, 21696, Note_on_c, 8, 57, 79
10, 21716, Note_on_c, 8, 57, 0
10, 21720, Note_on_c, 8, 61, 79
10, 21727, Note_on_c, 8, 61, 0
10, 21728, Note_on_c, 8, 59, 79
10, 21735, Note_on_c, 8, 59, 0
10, 21736, Note_on_c, 8, 61, 79
10, 21743, Note_on_c, 8, 61, 0
10, 21744, Note_on_c, 8, 62, 79
10, 21751, Note_on_c, 8, 62, 0
10, 21752, Note_on_c, 8, 61, 79
10, 21759, Note_on_c, 8, 61, 0
10, 21760, Note_on_c, 8, 62, 79
10, 21767, Note_on_c, 8, 62, 0
10, 21768, Note_on_c, 8, 64, 79
10, 21775, Note_on_c, 8, 64, 0
10, 21776, Note_on_c, 8, 62, 79
10, 21783, Note_on_c, 8, 62, 0
10, 21784, Note_on_c, 8, 64, 79
10, 21791, Note_on_c, 8, 64, 0
10, 21792, Note_on_c, 8, 66, 79
10, 21802, Note_on_c, 8, 66, 0
10, 21804, Note_on_c, 8, 64, 79
10, 21814, Note_on_c, 8, 64, 0
10, 21816, Note_on_c, 8, 62, 79
10, 21826, Note_on_c, 8, 62, 0
10, 21828, Note_on_c, 8, 64, 79
10, 21838, Note_on_c, 8, 64, 0
10, 21840, Note_on_c, 8, 66, 79
10, 21850, Note_on_c, 8, 66, 0
10, 21852, Note_on_c, 8, 67, 79
10, 21862, Note_on_c, 8, 67, 0
10, 21864, Note_on_c, 8, 69, 79
10, 21874, Note_on_c, 8, 69, 0
10, 21876, Note_on_c, 8, 71, 79
10, 21886, Note_on_c, 8, 71, 0
10, 21888, Note_on_c, 8, 73, 79
10, 21898, Note_on_c, 8, 73, 0
10, 21900, Note_on_c, 8, 74, 79
10, 21910, Note_on_c, 8, 74, 0
10, 21912, Note_on_c, 8, 73, 79
10, 21922, Note_on_c, 8, 73, 0
10, 21924, Note_on_c, 8, 71, 79
10, 21934, Note_on_c, 8, 71, 0
10, 21936, Note_on_c, 8, 69, 79
10, 21946, Note_on_c, 8, 69, 0
10, 21948, Note_on_c, 8, 67, 79
10, 21958, Note_on_c, 8, 67, 0
10, 21960, Note_on_c, 8, 66, 79
10, 21970, Note_on_c, 8, 66, 0
10, 21972, Note_on_c, 8, 64, 79
10, 21982, Note_on_c, 8, 64, 0
10, 21984, Note_on_c, 8, 62, 79
10, 21994, Note_on_c, 8, 62, 0
10, 21996, Note_on_c, 8, 79, 79
10, 22006, Note_on_c, 8, 79, 0
10, 22008, Note_on_c, 8, 78, 79
10, 22018, Note_on_c, 8, 78, 0
10, 22020, Note_on_c, 8, 76, 79
10, 22030, Note_on_c, 8, 76, 0
10, 22032, Note_on_c, 8, 74, 79
10, 22042, Note_on_c, 8, 74, 0
10, 22044, Note_on_c, 8, 72, 79
10, 22054, Note_on_c, 8, 72, 0
10, 22056, Note_on_c, 8, 71, 79
10, 22066, Note_on_c, 8, 71, 0
10, 22068, Note_on_c, 8, 69, 79
10, 22078, Note_on_c, 8, 69, 0
10, 22080, Note_on_c, 8, 67, 79
10, 22090, Note_on_c, 8, 67, 0
10, 22092, Note_on_c, 8, 83, 79
10, 22102, Note_on_c, 8, 83, 0
10, 22104, Note_on_c, 8, 81, 79
10, 22114, Note_on_c, 8, 81, 0
10, 22116, Note_on_c, 8, 83, 79
10, 22126, Note_on_c, 8, 83, 0
10, 22128, Note_on_c, 8, 79, 79
10, 22138, Note_on_c, 8, 79, 0
10, 22140, Note_on_c, 8, 83, 79
10, 22150, Note_on_c, 8, 83, 0
10, 22152, Note_on_c, 8, 78, 79
10, 22162, Note_on_c, 8, 78, 0
10, 22164, Note_on_c, 8, 83, 79
10, 22174, Note_on_c, 8, 83, 0
10, 22176, Note_on_c, 8, 76, 79
10, 22186, Note_on_c, 8, 76, 0
10, 22188, Note_on_c, 8, 83, 79
10, 22198, Note_on_c, 8, 83, 0
10, 22200, Note_on_c, 8, 74, 79
10, 22210, Note_on_c, 8, 74, 0
10, 22212, Note_on_c, 8, 83, 79
10, 22222, Note_on_c, 8, 83, 0
10, 22224, Note_on_c, 8, 73, 79
10, 22234, Note_on_c, 8, 73, 0
10, 22236, Note_on_c, 8, 83, 79
10, 22246, Note_on_c, 8, 83, 0
10, 22248, Note_on_c, 8, 71, 79
10, 22258, Note_on_c, 8, 71, 0
10, 22260, Note_on_c, 8, 83, 79
10, 22270, Note_on_c, 8, 83, 0
10, 22272, Note_on_c, 8, 69, 79
10, 22282, Note_on_c, 8, 69, 0
10, 22284, Note_on_c, 8, 81, 79
10, 22294, Note_on_c, 8, 81, 0
10, 22296, Note_on_c, 8, 79, 79
10, 22306, Note_on_c, 8, 79, 0
10, 22308, Note_on_c, 8, 81, 79
10, 22318, Note_on_c, 8, 81, 0
10, 22320, Note_on_c, 8, 78, 79
10, 22330, Note_on_c, 8, 78, 0
10, 22332, Note_on_c, 8, 81, 79
10, 22342, Note_on_c, 8, 81, 0
10, 22344, Note_on_c, 8, 76, 79
10, 22354, Note_on_c, 8, 76, 0
10, 22356, Note_on_c, 8, 81, 79
10, 22366, Note_on_c, 8, 81, 0
10, 22368, Note_on_c, 8, 74, 79
10, 22378, Note_on_c, 8, 74, 0
10, 22380, Note_on_c, 8, 81, 79
10, 22390, Note_on_c, 8, 81, 0
10, 22392, Note_on_c, 8, 73, 79
10, 22402, Note_on_c, 8, 73, 0
10, 22404, Note_on_c, 8, 81, 79
10, 22414, Note_on_c, 8, 81, 0
10, 22416, Note_on_c, 8, 71, 79
10, 22426, Note_on_c, 8, 71, 0
10, 22428, Note_on_c, 8, 81, 79
10, 22438, Note_on_c, 8, 81, 0
10, 22440, Note_on_c, 8, 69, 79
10, 22450, Note_on_c, 8, 69, 0
10, 22452, Note_on_c, 8, 81, 79
10, 22462, Note_on_c, 8, 81, 0
10, 22464, Note_on_c, 8, 67, 79
10, 22474, Note_on_c, 8, 67, 0
10, 22476, Note_on_c, 8, 79, 79
10, 22486, Note_on_c, 8, 79, 0
10, 22488, Note_on_c, 8, 78, 79
10, 22498, Note_on_c, 8, 78, 0
10, 22500, Note_on_c, 8, 79, 79
10, 22510, Note_on_c, 8, 79, 0
10, 22512, Note_on_c, 8, 76, 79
10, 22522, Note_on_c, 8, 76, 0
10, 22524, Note_on_c, 8, 79, 79
10, 22534, Note_on_c, 8, 79, 0
10, 22536, Note_on_c, 8, 74, 79
10, 22546, Note_on_c, 8, 74, 0
10, 22548, Note_on_c, 8, 79, 79
10, 22558, Note_on_c, 8, 79, 0
10, 22560, Note_on_c, 8, 73, 79
10, 22570, Note_on_c, 8, 73, 0
10, 22572, Note_on_c, 8, 74, 79
10, 22582, Note_on_c, 8, 74, 0
10, 22584, Note_on_c, 8, 76, 79
10, 22594, Note_on_c, 8, 76, 0
10, 22596, Note_on_c, 8, 73, 79
10, 22606, Note_on_c, 8, 73, 0
10, 22608, Note_on_c, 8, 69, 79
10, 22618, Note_on_c, 8, 69, 0
10, 22620, Note_on_c, 8, 71, 79
10, 22630, Note_on_c, 8, 71, 0
10, 22632, Note_on_c, 8, 73, 79
10, 22642, Note_on_c, 8, 73, 0
10, 22644, Note_on_c, 8, 69, 79
10, 22654, Note_on_c, 8, 69, 0
10, 22656, Note_on_c, 8, 78, 79
10, 22666, Note_on_c, 8, 78, 0
10, 22668, Note_on_c, 8, 74, 79
10, 22678, Note_on_c, 8, 74, 0
10, 22680, Note_on_c, 8, 73, 79
10, 22690, Note_on_c, 8, 73, 0
10, 22692, Note_on_c, 8, 71, 79
10, 22702, Note_on_c, 8, 71, 0
10, 22704, Note_on_c, 8, 69, 79
10, 22714, Note_on_c, 8, 69, 0
10, 22716, Note_on_c, 8, 71, 79
10, 22726, Note_on_c, 8, 71, 0
10, 22728, Note_on_c, 8, 72, 79
10, 22738, Note_on_c, 8, 72, 0
10, 22740, Note_on_c, 8, 69, 79
10, 22750, Note_on_c, 8, 69, 0
10, 22752, Note_on_c, 8, 71, 79
10, 22762, Note_on_c, 8, 71, 0
10, 22764, Note_on_c, 8, 67, 79
10, 22774, Note_on_c, 8, 67, 0
10, 22776, Note_on_c, 8, 74, 79
10, 22786, Note_on_c, 8, 74, 0
10, 22788, Note_on_c, 8, 66, 79
10, 22798, Note_on_c, 8, 66, 0
10, 22800, Note_on_c, 8, 67, 79
10, 22810, Note_on_c, 8, 67, 0
10, 22812, Note_on_c, 8, 69, 79
10, 22822, Note_on_c, 8, 69, 0
10, 22824, Note_on_c, 8, 71, 79
10, 22834, Note_on_c, 8, 71, 0
10, 22836, Note_on_c, 8, 67, 79
10, 22846, Note_on_c, 8, 67, 0
10, 22848, Note_on_c, 8, 64, 79
10, 22858, Note_on_c, 8, 64, 0
10, 22860, Note_on_c, 8, 69, 79
10, 22870, Note_on_c, 8, 69, 0
10, 22872, Note_on_c, 8, 67, 79
10, 22882, Note_on_c, 8, 67, 0
10, 22884, Note_on_c, 8, 69, 79
10, 22894, Note_on_c, 8, 69, 0
10, 22896, Note_on_c, 8, 62, 79
10, 22906, Note_on_c, 8, 62, 0
10, 22908, Note_on_c, 8, 74, 79
10, 22918, Note_on_c, 8, 74, 0
10, 22920, Note_on_c, 8, 73, 79
10, 22930, Note_on_c, 8, 73, 0
10, 22932, Note_on_c, 8, 71, 79
10, 22942, Note_on_c, 8, 71, 0
10, 22944, Note_on_c, 8, 69, 79
10, 22954, Note_on_c, 8, 69, 0
10, 22956, Note_on_c, 8, 67, 79
10, 22966, Note_on_c, 8, 67, 0
10, 22968, Note_on_c, 8, 66, 79
10, 22978, Note_on_c, 8, 66, 0
10, 22980, Note_on_c, 8, 69, 79
10, 22990, Note_on_c, 8, 69, 0
10, 22992, Note_on_c, 8, 67, 79
10, 23002, Note_on_c, 8, 67, 0
10, 23004, Note_on_c, 8, 66, 79
10, 23014, Note_on_c, 8, 66, 0
10, 23016, Note_on_c, 8, 64, 79
10, 23026, Note_on_c, 8, 64, 0
10, 23028, Note_on_c, 8, 67, 79
10, 23038, Note_on_c, 8, 67, 0
10, 23040, Note_on_c, 8, 66, 79
10, 23060, Note_on_c, 8, 66, 0
10, 23064, Note_on_c, 8, 62, 79
10, 23084, Note_on_c, 8, 62, 0
10, 23868, Note_on_c, 8, 74, 95
10, 23878, Note_on_c, 8, 74, 0
10, 23880, Note_on_c, 8, 73, 95
10, 23890, Note_on_c, 8, 73, 0
10, 23892, Note_on_c, 8, 71, 95
10, 23902, Note_on_c, 8, 71, 0
10, 23904, Note_on_c, 8, 69, 95
10, 23914, Note_on_c, 8, 69, 0
10, 23916, Note_on_c, 8, 66, 95
10, 23926, Note_on_c, 8, 66, 0
10, 23928, Note_on_c, 8, 67, 95
10, 23938, Note_on_c, 8, 67, 0
10, 23940, Note_on_c, 8, 71, 95
10, 23950, Note_on_c, 8, 71, 0
10, 23952, Note_on_c, 8, 69, 95
10, 23962, Note_on_c, 8, 69, 0
10, 23964, Note_on_c, 8, 66, 95
10, 23974, Note_on_c, 8, 66, 0
10, 23976, Note_on_c, 8, 67, 95
10, 23986, Note_on_c, 8, 67, 0
10, 23988, Note_on_c, 8, 69, 95
10, 23998, Note_on_c, 8, 69, 0
10, 24000, Note_on_c, 8, 71, 95
10, 24020, Note_on_c, 8, 71, 0
10, 24024, Note_on_c, 8, 69, 95
10, 24044, Note_on_c, 8, 69, 0
10, 24204, Note_on_c, 8, 62, 95
10, 24214, Note_on_c, 8, 62, 0
10, 24216, Note_on_c, 8, 64, 95
10, 24226, Note_on_c, 8, 64, 0
10, 24228, Note_on_c, 8, 66, 95
10, 24238, Note_on_c, 8, 66, 0
10, 24240, Note_on_c, 8, 67, 95
10, 24250, Note_on_c, 8, 67, 0
10, 24252, Note_on_c, 8, 69, 95
10, 24262, Note_on_c, 8, 69, 0
10, 24264, Note_on_c, 8, 71, 95
10, 24274, Note_on_c, 8, 71, 0
10, 24276, Note_on_c, 8, 72, 95
10, 24286, Note_on_c, 8, 72, 0
10, 24288, Note_on_c, 8, 71, 95
10, 24298, Note_on_c, 8, 71, 0
10, 24300, Note_on_c, 8, 69, 95
10, 24310, Note_on_c, 8, 69, 0
10, 24312, Note_on_c, 8, 62, 95
10, 24322, Note_on_c, 8, 62, 0
10, 24324, Note_on_c, 8, 64, 95
10, 24334, Note_on_c, 8, 64, 0
10, 24336, Note_on_c, 8, 66, 95
10, 24346, Note_on_c, 8, 66, 0
10, 24348, Note_on_c, 8, 62, 95
10, 24358, Note_on_c, 8, 62, 0
10, 24360, Note_on_c, 8, 64, 95
10, 24370, Note_on_c, 8, 64, 0
10, 24372, Note_on_c, 8, 67, 95
10, 24382, Note_on_c, 8, 67, 0
10, 24384, Note_on_c, 8, 66, 95
10, 24394, Note_on_c, 8, 66, 0
10, 24396, Note_on_c, 8, 69, 95
10, 24406, Note_on_c, 8, 69, 0
10, 24408, Note_on_c, 8, 71, 95
10, 24418, Note_on_c, 8, 71, 0
10, 24420, Note_on_c, 8, 67, 95
10, 24430, Note_on_c, 8, 67, 0
10, 24432, Note_on_c, 8, 69, 95
10, 24442, Note_on_c, 8, 69, 0
10, 24444, Note_on_c, 8, 72, 95
10, 24454, Note_on_c, 8, 72, 0
10, 24456, Note_on_c, 8, 71, 95
10, 24466, Note_on_c, 8, 71, 0
10, 24468, Note_on_c, 8, 69, 95
10, 24478, Note_on_c, 8, 69, 0
10, 24480, Note_on_c, 8, 67, 95
10, 24490, Note_on_c, 8, 67, 0
10, 24492, Note_on_c, 8, 64, 95
10, 24502, Note_on_c, 8, 64, 0
10, 24504, Note_on_c, 8, 69, 95
10, 24514, Note_on_c, 8, 69, 0
10, 24516, Note_on_c, 8, 71, 95
10, 24526, Note_on_c, 8, 71, 0
10, 24528, Note_on_c, 8, 73, 95
10, 24538, Note_on_c, 8, 73, 0
10, 24540, Note_on_c, 8, 74, 95
10, 24550, Note_on_c, 8, 74, 0
10, 24552, Note_on_c, 8, 76, 95
10, 24562, Note_on_c, 8, 76, 0
10, 24564, Note_on_c, 8, 73, 95
10, 24574, Note_on_c, 8, 73, 0
10, 24576, Note_on_c, 8, 69, 95
10, 24586, Note_on_c, 8, 69, 0
10, 24588, Note_on_c, 8, 74, 95
10, 24598, Note_on_c, 8, 74, 0
10, 24600, Note_on_c, 8, 62, 95
10, 24610, Note_on_c, 8, 62, 0
10, 24612, Note_on_c, 8, 66, 95
10, 24622, Note_on_c, 8, 66, 0
10, 24624, Note_on_c, 8, 64, 95
10, 24634, Note_on_c, 8, 64, 0
10, 24636, Note_on_c, 8, 61, 95
10, 24646, Note_on_c, 8, 61, 0
10, 24648, Note_on_c, 8, 62, 95
10, 24658, Note_on_c, 8, 62, 0
10, 24660, Note_on_c, 8, 64, 95
10, 24670, Note_on_c, 8, 64, 0
10, 24672, Note_on_c, 8, 66, 95
10, 24692, Note_on_c, 8, 66, 0
10, 24696, Note_on_c, 8, 64, 95
10, 24716, Note_on_c, 8, 64, 0
10, 24876, Note_on_c, 8, 69, 95
10, 24886, Note_on_c, 8, 69, 0
10, 24888, Note_on_c, 8, 71, 95
10, 24898, Note_on_c, 8, 71, 0
10, 24900, Note_on_c, 8, 73, 95
10, 24910, Note_on_c, 8, 73, 0
10, 24912, Note_on_c, 8, 74, 95
10, 24922, Note_on_c, 8, 74, 0
10, 24924, Note_on_c, 8, 76, 95
10, 24934, Note_on_c, 8, 76, 0
10, 24936, Note_on_c, 8, 78, 95
10, 24946, Note_on_c, 8, 78, 0
10, 24948, Note_on_c, 8, 79, 95
10, 24958, Note_on_c, 8, 79, 0
10, 24960, Note_on_c, 8, 78, 95
10, 24970, Note_on_c, 8, 78, 0
10, 24972, Note_on_c, 8, 76, 95
10, 24982, Note_on_c, 8, 76, 0
10, 24984, Note_on_c, 8, 57, 95
10, 24994, Note_on_c, 8, 57, 0
10, 24996, Note_on_c, 8, 59, 95
10, 25006, Note_on_c, 8, 59, 0
10, 25008, Note_on_c, 8, 61, 95
10, 25018, Note_on_c, 8, 61, 0
10, 25020, Note_on_c, 8, 57, 95
10, 25030, Note_on_c, 8, 57, 0
10, 25032, Note_on_c, 8, 59, 95
10, 25042, Note_on_c, 8, 59, 0
10, 25044, Note_on_c, 8, 62, 95
10, 25054, Note_on_c, 8, 62, 0
10, 25056, Note_on_c, 8, 61, 95
10, 25066, Note_on_c, 8, 61, 0
10, 25068, Note_on_c, 8, 64, 95
10, 25078, Note_on_c, 8, 64, 0
10, 25080, Note_on_c, 8, 66, 95
10, 25090, Note_on_c, 8, 66, 0
10, 25092, Note_on_c, 8, 62, 95
10, 25102, Note_on_c, 8, 62, 0
10, 25104, Note_on_c, 8, 64, 95
10, 25114, Note_on_c, 8, 64, 0
10, 25116, Note_on_c, 8, 67, 95
10, 25126, Note_on_c, 8, 67, 0
10, 25128, Note_on_c, 8, 66, 95
10, 25138, Note_on_c, 8, 66, 0
10, 25140, Note_on_c, 8, 64, 95
10, 25150, Note_on_c, 8, 64, 0
10, 25152, Note_on_c, 8, 62, 95
10, 25162, Note_on_c, 8, 62, 0
10, 25164, Note_on_c, 8, 59, 95
10, 25174, Note_on_c, 8, 59, 0
10, 25176, Note_on_c, 8, 64, 95
10, 25186, Note_on_c, 8, 64, 0
10, 25188, Note_on_c, 8, 66, 95
10, 25198, Note_on_c, 8, 66, 0
10, 25200, Note_on_c, 8, 67, 95
10, 25210, Note_on_c, 8, 67, 0
10, 25212, Note_on_c, 8, 69, 95
10, 25222, Note_on_c, 8, 69, 0
10, 25224, Note_on_c, 8, 67, 95
10, 25234, Note_on_c, 8, 67, 0
10, 25236, Note_on_c, 8, 66, 95
10, 25246, Note_on_c, 8, 66, 0
10, 25248, Note_on_c, 8, 64, 95
10, 25258, Note_on_c, 8, 64, 0
10, 25260, Note_on_c, 8, 61, 95
10, 25270, Note_on_c, 8, 61, 0
10, 25272, Note_on_c, 8, 62, 95
10, 25282, Note_on_c, 8, 62, 0
10, 25284, Note_on_c, 8, 64, 95
10, 25294, Note_on_c, 8, 64, 0
10, 25296, Note_on_c, 8, 66, 95
10, 25306, Note_on_c, 8, 66, 0
10, 25308, Note_on_c, 8, 62, 95
10, 25318, Note_on_c, 8, 62, 0
10, 25320, Note_on_c, 8, 64, 95
10, 25330, Note_on_c, 8, 64, 0
10, 25332, Note_on_c, 8, 66, 95
10, 25342, Note_on_c, 8, 66, 0
10, 25344, Note_on_c, 8, 62, 95
10, 25364, Note_on_c, 8, 62, 0
10, 25368, Note_on_c, 8, 74, 95
10, 25368, Note_on_c, 8, 79, 95
10, 25368, Note_on_c, 8, 83, 95
10, 25388, Note_on_c, 8, 74, 0
10, 25388, Note_on_c, 8, 79, 0
10, 25388, Note_on_c, 8, 83, 0
10, 25392, Note_on_c, 8, 76, 95
10, 25392, Note_on_c, 8, 71, 95
10, 25392, Note_on_c, 8, 79, 95
10, 25412, Note_on_c, 8, 71, 0
10, 25412, Note_on_c, 8, 76, 0
10, 25412, Note_on_c, 8, 79, 0
10, 25416, Note_on_c, 8, 71, 95
10, 25416, Note_on_c, 8, 67, 95
10, 25416, Note_on_c, 8, 76, 95
10, 25436, Note_on_c, 8, 67, 0
10, 25436, Note_on_c, 8, 71, 0
10, 25436, Note_on_c, 8, 76, 0
10, 25464, Note_on_c, 8, 78, 95
10, 25464, Note_on_c, 8, 73, 95
10, 25464, Note_on_c, 8, 81, 95
10, 25484, Note_on_c, 8, 73, 0
10, 25484, Note_on_c, 8, 78, 0
10, 25484, Note_on_c, 8, 81, 0
10, 25488, Note_on_c, 8, 74, 95
10, 25488, Note_on_c, 8, 69, 95
10, 25488, Note_on_c, 8, 78, 95
10, 25508, Note_on_c, 8, 69, 0
10, 25508, Note_on_c, 8, 74, 0
10, 25508, Note_on_c, 8, 78, 0
10, 25512, Note_on_c, 8, 69, 95
10, 25512, Note_on_c, 8, 66, 95
10, 25512, Note_on_c, 8, 74, 95
10, 25532, Note_on_c, 8, 66, 0
10, 25532, Note_on_c, 8, 69, 0
10, 25532, Note_on_c, 8, 74, 0
10, 25560, Note_on_c, 8, 76, 95
10, 25560, Note_on_c, 8, 71, 95
10, 25560, Note_on_c, 8, 79, 95
10, 25580, Note_on_c, 8, 71, 0
10, 25580, Note_on_c, 8, 76, 0
10, 25580, Note_on_c, 8, 79, 0
10, 25584, Note_on_c, 8, 73, 95
10, 25584, Note_on_c, 8, 67, 95
10, 25584, Note_on_c, 8, 76, 95
10, 25604, Note_on_c, 8, 67, 0
10, 25604, Note_on_c, 8, 73, 0
10, 25604, Note_on_c, 8, 76, 0
10, 25608, Note_on_c, 8, 69, 95
10, 25608, Note_on_c, 8, 64, 95
10, 25608, Note_on_c, 8, 73, 95
10, 25628, Note_on_c, 8, 64, 0
10, 25628, Note_on_c, 8, 69, 0
10, 25628, Note_on_c, 8, 73, 0
10, 25632, Note_on_c, 8, 69, 95
10, 25632, Note_on_c, 8, 66, 95
10, 25632, Note_on_c, 8, 62, 95
10, 25632, Note_on_c, 8, 74, 95
10, 25672, Note_on_c, 8, 62, 0
10, 25672, Note_on_c, 8, 66, 0
10, 25672, Note_on_c, 8, 69, 0
10, 25672, Note_on_c, 8, 74, 0
10, 26640, Note_on_c, 8, 62, 95
10, 26645, Note_on_c, 8, 62, 0
10, 26646, Note_on_c, 8, 64, 95
10, 26651, Note_on_c, 8, 64, 0
10, 26652, Note_on_c, 8, 66, 95
10, 26657, Note_on_c, 8, 66, 0
10, 26658, Note_on_c, 8, 67, 95
10, 26663, Note_on_c, 8, 67, 0
10, 26664, Note_on_c, 8, 69, 95
10, 26669, Note_on_c, 8, 69, 0
10, 26670, Note_on_c, 8, 71, 95
10, 26675, Note_on_c, 8, 71, 0
10, 26676, Note_on_c, 8, 72, 95
10, 26681, Note_on_c, 8, 72, 0
10, 26682, Note_on_c, 8, 69, 95
10, 26687, Note_on_c, 8, 69, 0
10, 26688, Note_on_c, 8, 71, 95
10, 26693, Note_on_c, 8, 71, 0
10, 26694, Note_on_c, 8, 67, 95
10, 26699, Note_on_c, 8, 67, 0
10, 26700, Note_on_c, 8, 66, 95
10, 26705, Note_on_c, 8, 66, 0
10, 26706, Note_on_c, 8, 64, 95
10, 26711, Note_on_c, 8, 64, 0
10, 26712, Note_on_c, 8, 62, 95
10, 26717, Note_on_c, 8, 62, 0
10, 26718, Note_on_c, 8, 60, 95
10, 26723, Note_on_c, 8, 60, 0
10, 26724, Note_on_c, 8, 59, 95
10, 26729, Note_on_c, 8, 59, 0
10, 26730, Note_on_c, 8, 57, 95
10, 26735, Note_on_c, 8, 57, 0
10, 26832, Note_on_c, 8, 64, 95
10, 26837, Note_on_c, 8, 64, 0
10, 26838, Note_on_c, 8, 66, 95
10, 26843, Note_on_c, 8, 66, 0
10, 26844, Note_on_c, 8, 68, 95
10, 26849, Note_on_c, 8, 68, 0
10, 26850, Note_on_c, 8, 69, 95
10, 26855, Note_on_c, 8, 69, 0
10, 26856, Note_on_c, 8, 71, 95
10, 26861, Note_on_c, 8, 71, 0
10, 26862, Note_on_c, 8, 73, 95
10, 26867, Note_on_c, 8, 73, 0
10, 26868, Note_on_c, 8, 74, 95
10, 26873, Note_on_c, 8, 74, 0
10, 26874, Note_on_c, 8, 71, 95
10, 26879, Note_on_c, 8, 71, 0
10, 26880, Note_on_c, 8, 73, 95
10, 26885, Note_on_c, 8, 73, 0
10, 26886, Note_on_c, 8, 69, 95
10, 26891, Note_on_c, 8, 69, 0
10, 26892, Note_on_c, 8, 68, 95
10, 26897, Note_on_c, 8, 68, 0
10, 26898, Note_on_c, 8, 66, 95
10, 26903, Note_on_c, 8, 66, 0
10, 26904, Note_on_c, 8, 64, 95
10, 26909, Note_on_c, 8, 64, 0
10, 26910, Note_on_c, 8, 62, 95
10, 26915, Note_on_c, 8, 62, 0
10, 26916, Note_on_c, 8, 61, 95
10, 26921, Note_on_c, 8, 61, 0
10, 26922, Note_on_c, 8, 59, 95
10, 26927, Note_on_c, 8, 59, 0
10, 27024, Note_on_c, 8, 66, 95
10, 27029, Note_on_c, 8, 66, 0
10, 27030, Note_on_c, 8, 68, 95
10, 27035, Note_on_c, 8, 68, 0
10, 27036, Note_on_c, 8, 70, 95
10, 27041, Note_on_c, 8, 70, 0
10, 27042, Note_on_c, 8, 71, 95
10, 27047, Note_on_c, 8, 71, 0
10, 27048, Note_on_c, 8, 73, 95
10, 27053, Note_on_c, 8, 73, 0
10, 27054, Note_on_c, 8, 74, 95
10, 27059, Note_on_c, 8, 74, 0
10, 27060, Note_on_c, 8, 76, 95
10, 27065, Note_on_c, 8, 76, 0
10, 27066, Note_on_c, 8, 73, 95
10, 27071, Note_on_c, 8, 73, 0
10, 27072, Note_on_c, 8, 74, 95
10, 27077, Note_on_c, 8, 74, 0
10, 27078, Note_on_c, 8, 71, 95
10, 27083, Note_on_c, 8, 71, 0
10, 27084, Note_on_c, 8, 69, 95
10, 27089, Note_on_c, 8, 69, 0
10, 27090, Note_on_c, 8, 67, 95
10, 27095, Note_on_c, 8, 67, 0
10, 27096, Note_on_c, 8, 66, 95
10, 27101, Note_on_c, 8, 66, 0
10, 27102, Note_on_c, 8, 64, 95
10, 27107, Note_on_c, 8, 64, 0
10, 27108, Note_on_c, 8, 62, 95
10, 27113, Note_on_c, 8, 62, 0
10, 27114, Note_on_c, 8, 61, 95
10, 27119, Note_on_c, 8, 61, 0
10, 27216, Note_on_c, 8, 69, 95
10, 27221, Note_on_c, 8, 69, 0
10, 27222, Note_on_c, 8, 71, 95
10, 27227, Note_on_c, 8, 71, 0
10, 27228, Note_on_c, 8, 73, 95
10, 27233, Note_on_c, 8, 73, 0
10, 27234, Note_on_c, 8, 74, 95
10, 27239, Note_on_c, 8, 74, 0
10, 27240, Note_on_c, 8, 76, 95
10, 27245, Note_on_c, 8, 76, 0
10, 27246, Note_on_c, 8, 78, 95
10, 27251, Note_on_c, 8, 78, 0
10, 27252, Note_on_c, 8, 79, 95
10, 27257, Note_on_c, 8, 79, 0
10, 27258, Note_on_c, 8, 76, 95
10, 27263, Note_on_c, 8, 76, 0
10, 27264, Note_on_c, 8, 78, 95
10, 27269, Note_on_c, 8, 78, 0
10, 27270, Note_on_c, 8, 74, 95
10, 27275, Note_on_c, 8, 74, 0
10, 27276, Note_on_c, 8, 73, 95
10, 27281, Note_on_c, 8, 73, 0
10, 27282, Note_on_c, 8, 71, 95
10, 27287, Note_on_c, 8, 71, 0
10, 27288, Note_on_c, 8, 69, 95
10, 27293, Note_on_c, 8, 69, 0
10, 27294, Note_on_c, 8, 67, 95
10, 27299, Note_on_c, 8, 67, 0
10, 27300, Note_on_c, 8, 66, 95
10, 27305, Note_on_c, 8, 66, 0
10, 27306, Note_on_c, 8, 64, 95
10, 27311, Note_on_c, 8, 64, 0
10, 27312, Note_on_c, 8, 62, 95
10, 27317, Note_on_c, 8, 62, 0
10, 27318, Note_on_c, 8, 64, 95
10, 27323, Note_on_c, 8, 64, 0
10, 27324, Note_on_c, 8, 66, 95
10, 27329, Note_on_c, 8, 66, 0
10, 27330, Note_on_c, 8, 67, 95
10, 27335, Note_on_c, 8, 67, 0
10, 27336, Note_on_c, 8, 69, 95
10, 27341, Note_on_c, 8, 69, 0
10, 27342, Note_on_c, 8, 71, 95
10, 27347, Note_on_c, 8, 71, 0
10, 27348, Note_on_c, 8, 72, 95
10, 27353, Note_on_c, 8, 72, 0
10, 27354, Note_on_c, 8, 69, 95
10, 27359, Note_on_c, 8, 69, 0
10, 27360, Note_on_c, 8, 71, 95
10, 27365, Note_on_c, 8, 71, 0
10, 27366, Note_on_c, 8, 67, 95
10, 27371, Note_on_c, 8, 67, 0
10, 27372, Note_on_c, 8, 69, 95
10, 27377, Note_on_c, 8, 69, 0
10, 27378, Note_on_c, 8, 71, 95
10, 27383, Note_on_c, 8, 71, 0
10, 27384, Note_on_c, 8, 73, 95
10, 27389, Note_on_c, 8, 73, 0
10, 27390, Note_on_c, 8, 74, 95
10, 27395, Note_on_c, 8, 74, 0
10, 27396, Note_on_c, 8, 76, 95
10, 27401, Note_on_c, 8, 76, 0
10, 27402, Note_on_c, 8, 78, 95
10, 27407, Note_on_c, 8, 78, 0
10, 27408, Note_on_c, 8, 76, 95
10, 27413, Note_on_c, 8, 76, 0
10, 27414, Note_on_c, 8, 61, 95
10, 27419, Note_on_c, 8, 61, 0
10, 27420, Note_on_c, 8, 62, 95
10, 27425, Note_on_c, 8, 62, 0
10, 27426, Note_on_c, 8, 64, 95
10, 27431, Note_on_c, 8, 64, 0
10, 27432, Note_on_c, 8, 66, 95
10, 27437, Note_on_c, 8, 66, 0
10, 27438, Note_on_c, 8, 67, 95
10, 27443, Note_on_c, 8, 67, 0
10, 27444, Note_on_c, 8, 69, 95
10, 27449, Note_on_c, 8, 69, 0
10, 27450, Note_on_c, 8, 71, 95
10, 27455, Note_on_c, 8, 71, 0
10, 27456, Note_on_c, 8, 69, 95
10, 27461, Note_on_c, 8, 69, 0
10, 27462, Note_on_c, 8, 66, 95
10, 27467, Note_on_c, 8, 66, 0
10, 27468, Note_on_c, 8, 67, 95
10, 27473, Note_on_c, 8, 67, 0
10, 27474, Note_on_c, 8, 69, 95
10, 27479, Note_on_c, 8, 69, 0
10, 27480, Note_on_c, 8, 71, 95
10, 27485, Note_on_c, 8, 71, 0
10, 27486, Note_on_c, 8, 73, 95
10, 27491, Note_on_c, 8, 73, 0
10, 27492, Note_on_c, 8, 74, 95
10, 27497, Note_on_c, 8, 74, 0
10, 27498, Note_on_c, 8, 76, 95
10, 27503, Note_on_c, 8, 76, 0
10, 27504, Note_on_c, 8, 74, 95
10, 27509, Note_on_c, 8, 74, 0
10, 27510, Note_on_c, 8, 59, 95
10, 27515, Note_on_c, 8, 59, 0
10, 27516, Note_on_c, 8, 61, 95
10, 27521, Note_on_c, 8, 61, 0
10, 27522, Note_on_c, 8, 62, 95
10, 27527, Note_on_c, 8, 62, 0
10, 27528, Note_on_c, 8, 64, 95
10, 27533, Note_on_c, 8, 64, 0
10, 27534, Note_on_c, 8, 66, 95
10, 27539, Note_on_c, 8, 66, 0
10, 27540, Note_on_c, 8, 67, 95
10, 27545, Note_on_c, 8, 67, 0
10, 27546, Note_on_c, 8, 69, 95
10, 27551, Note_on_c, 8, 69, 0
10, 27552, Note_on_c, 8, 67, 95
10, 27557, Note_on_c, 8, 67, 0
10, 27558, Note_on_c, 8, 64, 95
10, 27563, Note_on_c, 8, 64, 0
10, 27564, Note_on_c, 8, 66, 95
10, 27569, Note_on_c, 8, 66, 0
10, 27570, Note_on_c, 8, 67, 95
10, 27575, Note_on_c, 8, 67, 0
10, 27576, Note_on_c, 8, 69, 95
10, 27581, Note_on_c, 8, 69, 0
10, 27582, Note_on_c, 8, 71, 95
10, 27587, Note_on_c, 8, 71, 0
10, 27588, Note_on_c, 8, 73, 95
10, 27593, Note_on_c, 8, 73, 0
10, 27594, Note_on_c, 8, 74, 95
10, 27599, Note_on_c, 8, 74, 0
10, 27600, Note_on_c, 8, 73, 95
10, 27605, Note_on_c, 8, 73, 0
10, 27606, Note_on_c, 8, 57, 95
10, 27611, Note_on_c, 8, 57, 0
10, 27612, Note_on_c, 8, 59, 95
10, 27617, Note_on_c, 8, 59, 0
10, 27618, Note_on_c, 8, 61, 95
10, 27623, Note_on_c, 8, 61, 0
10, 27624, Note_on_c, 8, 62, 95
10, 27629, Note_on_c, 8, 62, 0
10, 27630, Note_on_c, 8, 64, 95
10, 27635, Note_on_c, 8, 64, 0
10, 27636, Note_on_c, 8, 66, 95
10, 27641, Note_on_c, 8, 66, 0
10, 27642, Note_on_c, 8, 67, 95
10, 27647, Note_on_c, 8, 67, 0
10, 27648, Note_on_c, 8, 66, 95
10, 27653, Note_on_c, 8, 66, 0
10, 27888, Note_on_c, 8, 62, 95
10, 27893, Note_on_c, 8, 62, 0
10, 27894, Note_on_c, 8, 64, 95
10, 27899, Note_on_c, 8, 64, 0
10, 27900, Note_on_c, 8, 66, 95
10, 27905, Note_on_c, 8, 66, 0
10, 27906, Note_on_c, 8, 67, 95
10, 27911, Note_on_c, 8, 67, 0
10, 27912, Note_on_c, 8, 69, 95
10, 27917, Note_on_c, 8, 69, 0
10, 27918, Note_on_c, 8, 71, 95
10, 27923, Note_on_c, 8, 71, 0
10, 27924, Note_on_c, 8, 73, 95
10, 27929, Note_on_c, 8, 73, 0
10, 27930, Note_on_c, 8, 74, 95
10, 27935, Note_on_c, 8, 74, 0
10, 27936, Note_on_c, 8, 73, 95
10, 27941, Note_on_c, 8, 73, 0
10, 27942, Note_on_c, 8, 57, 95
10, 27947, Note_on_c, 8, 57, 0
10, 27948, Note_on_c, 8, 59, 95
10, 27953, Note_on_c, 8, 59, 0
10, 27954, Note_on_c, 8, 61, 95
10, 27959, Note_on_c, 8, 61, 0
10, 27960, Note_on_c, 8, 62, 95
10, 27965, Note_on_c, 8, 62, 0
10, 27966, Note_on_c, 8, 64, 95
10, 27971, Note_on_c, 8, 64, 0
10, 27972, Note_on_c, 8, 66, 95
10, 27977, Note_on_c, 8, 66, 0
10, 27978, Note_on_c, 8, 67, 95
10, 27983, Note_on_c, 8, 67, 0
10, 27984, Note_on_c, 8, 69, 95
10, 27989, Note_on_c, 8, 69, 0
10, 27990, Note_on_c, 8, 71, 95
10, 27995, Note_on_c, 8, 71, 0
10, 27996, Note_on_c, 8, 73, 95
10, 28001, Note_on_c, 8, 73, 0
10, 28002, Note_on_c, 8, 74, 95
10, 28007, Note_on_c, 8, 74, 0
10, 28008, Note_on_c, 8, 76, 95
10, 28013, Note_on_c, 8, 76, 0
10, 28014, Note_on_c, 8, 78, 95
10, 28019, Note_on_c, 8, 78, 0
10, 28020, Note_on_c, 8, 79, 95
10, 28025, Note_on_c, 8, 79, 0
10, 28026, Note_on_c, 8, 73, 95
10, 28031, Note_on_c, 8, 73, 0
10, 28038, Note_on_c, 8, 81, 79
10, 28042, Note_on_c, 8, 81, 0
10, 28044, Note_on_c, 8, 79, 79
10, 28048, Note_on_c, 8, 79, 0
10, 28050, Note_on_c, 8, 78, 79
10, 28054, Note_on_c, 8, 78, 0
10, 28062, Note_on_c, 8, 78, 79
10, 28066, Note_on_c, 8, 78, 0
10, 28068, Note_on_c, 8, 76, 79
10, 28072, Note_on_c, 8, 76, 0
10, 28074, Note_on_c, 8, 74, 79
10, 28078, Note_on_c, 8, 74, 0
10, 28086, Note_on_c, 8, 81, 79
10, 28090, Note_on_c, 8, 81, 0
10, 28092, Note_on_c, 8, 79, 79
10, 28096, Note_on_c, 8, 79, 0
10, 28098, Note_on_c, 8, 78, 79
10, 28102, Note_on_c, 8, 78, 0
10, 28110, Note_on_c, 8, 78, 79
10, 28114, Note_on_c, 8, 78, 0
10, 28116, Note_on_c, 8, 76, 79
10, 28120, Note_on_c, 8, 76, 0
10, 28122, Note_on_c, 8, 74, 79
10, 28126, Note_on_c, 8, 74, 0
10, 28134, Note_on_c, 8, 81, 79
10, 28138, Note_on_c, 8, 81, 0
10, 28140, Note_on_c, 8, 79, 79
10, 28144, Note_on_c, 8, 79, 0
10, 28146, Note_on_c, 8, 78, 79
10, 28150, Note_on_c, 8, 78, 0
10, 28158, Note_on_c, 8, 78, 79
10, 28162, Note_on_c, 8, 78, 0
10, 28164, Note_on_c, 8, 76, 79
10, 28168, Note_on_c, 8, 76, 0
10, 28170, Note_on_c, 8, 74, 79
10, 28174, Note_on_c, 8, 74, 0
10, 28182, Note_on_c, 8, 81, 79
10, 28186, Note_on_c, 8, 81, 0
10, 28188, Note_on_c, 8, 79, 79
10, 28192, Note_on_c, 8, 79, 0
10, 28194, Note_on_c, 8, 78, 79
10, 28198, Note_on_c, 8, 78, 0
10, 28206, Note_on_c, 8, 78, 79
10, 28210, Note_on_c, 8, 78, 0
10, 28212, Note_on_c, 8, 76, 79
10, 28216, Note_on_c, 8, 76, 0
10, 28218, Note_on_c, 8, 74, 79
10, 28222, Note_on_c, 8, 74, 0
10, 28230, Note_on_c, 8, 79, 79
10, 28234, Note_on_c, 8, 79, 0
10, 28236, Note_on_c, 8, 78, 79
10, 28240, Note_on_c, 8, 78, 0
10, 28242, Note_on_c, 8, 76, 79
10, 28246, Note_on_c, 8, 76, 0
10, 28254, Note_on_c, 8, 76, 79
10, 28258, Note_on_c, 8, 76, 0
10, 28260, Note_on_c, 8, 74, 79
10, 28264, Note_on_c, 8, 74, 0
10, 28266, Note_on_c, 8, 73, 79
10, 28270, Note_on_c, 8, 73, 0
10, 28278, Note_on_c, 8, 79, 79
10, 28282, Note_on_c, 8, 79, 0
10, 28284, Note_on_c, 8, 78, 79
10, 28288, Note_on_c, 8, 78, 0
10, 28290, Note_on_c, 8, 76, 79
10, 28294, Note_on_c, 8, 76, 0
10, 28302, Note_on_c, 8, 76, 79
10, 28306, Note_on_c, 8, 76, 0
10, 28308, Note_on_c, 8, 74, 79
10, 28312, Note_on_c, 8, 74, 0
10, 28314, Note_on_c, 8, 73, 79
10, 28318, Note_on_c, 8, 73, 0
10, 28326, Note_on_c, 8, 79, 79
10, 28330, Note_on_c, 8, 79, 0
10, 28332, Note_on_c, 8, 78, 79
10, 28336, Note_on_c, 8, 78, 0
10, 28338, Note_on_c, 8, 76, 79
10, 28342, Note_on_c, 8, 76, 0
10, 28350, Note_on_c, 8, 76, 79
10, 28354, Note_on_c, 8, 76, 0
10, 28356, Note_on_c, 8, 74, 79
10, 28360, Note_on_c, 8, 74, 0
10, 28362, Note_on_c, 8, 73, 79
10, 28366, Note_on_c, 8, 73, 0
10, 28374, Note_on_c, 8, 79, 79
10, 28378, Note_on_c, 8, 79, 0
10, 28380, Note_on_c, 8, 78, 79
10, 28384, Note_on_c, 8, 78, 0
10, 28386, Note_on_c, 8, 76, 79
10, 28390, Note_on_c, 8, 76, 0
10, 28398, Note_on_c, 8, 76, 79
10, 28402, Note_on_c, 8, 76, 0
10, 28404, Note_on_c, 8, 74, 79
10, 28408, Note_on_c, 8, 74, 0
10, 28410, Note_on_c, 8, 73, 79
10, 28414, Note_on_c, 8, 73, 0
10, 28422, Note_on_c, 8, 78, 79
10, 28426, Note_on_c, 8, 78, 0
10, 28428, Note_on_c, 8, 76, 79
10, 28432, Note_on_c, 8, 76, 0
10, 28434, Note_on_c, 8, 74, 79
10, 28438, Note_on_c, 8, 74, 0
10, 28446, Note_on_c, 8, 74, 79
10, 28450, Note_on_c, 8, 74, 0
10, 28452, Note_on_c, 8, 73, 79
10, 28456, Note_on_c, 8, 73, 0
10, 28458, Note_on_c, 8, 71, 79
10, 28462, Note_on_c, 8, 71, 0
10, 28470, Note_on_c, 8, 78, 79
10, 28474, Note_on_c, 8, 78, 0
10, 28476, Note_on_c, 8, 76, 79
10, 28480, Note_on_c, 8, 76, 0
10, 28482, Note_on_c, 8, 74, 79
10, 28486, Note_on_c, 8, 74, 0
10, 28494, Note_on_c, 8, 74, 79
10, 28498, Note_on_c, 8, 74, 0
10, 28500, Note_on_c, 8, 73, 79
10, 28504, Note_on_c, 8, 73, 0
10, 28506, Note_on_c, 8, 71, 79
10, 28510, Note_on_c, 8, 71, 0
10, 28518, Note_on_c, 8, 78, 79
10, 28522, Note_on_c, 8, 78, 0
10, 28524, Note_on_c, 8, 76, 79
10, 28528, Note_on_c, 8, 76, 0
10, 28530, Note_on_c, 8, 74, 79
10, 28534, Note_on_c, 8, 74, 0
10, 28542, Note_on_c, 8, 74, 79
10, 28546, Note_on_c, 8, 74, 0
10, 28548, Note_on_c, 8, 73, 79
10, 28552, Note_on_c, 8, 73, 0
10, 28554, Note_on_c, 8, 71, 79
10, 28558, Note_on_c, 8, 71, 0
10, 28566, Note_on_c, 8, 78, 79
10, 28570, Note_on_c, 8, 78, 0
10, 28572, Note_on_c, 8, 76, 79
10, 28576, Note_on_c, 8, 76, 0
10, 28578, Note_on_c, 8, 74, 79
10, 28582, Note_on_c, 8, 74, 0
10, 28590, Note_on_c, 8, 74, 79
10, 28594, Note_on_c, 8, 74, 0
10, 28596, Note_on_c, 8, 73, 79
10, 28600, Note_on_c, 8, 73, 0
10, 28602, Note_on_c, 8, 71, 79
10, 28606, Note_on_c, 8, 71, 0
10, 28614, Note_on_c, 8, 76, 79
10, 28618, Note_on_c, 8, 76, 0
10, 28620, Note_on_c, 8, 74, 79
10, 28624, Note_on_c, 8, 74, 0
10, 28626, Note_on_c, 8, 73, 79
10, 28630, Note_on_c, 8, 73, 0
10, 28638, Note_on_c, 8, 73, 79
10, 28642, Note_on_c, 8, 73, 0
10, 28644, Note_on_c, 8, 71, 79
10, 28648, Note_on_c, 8, 71, 0
10, 28650, Note_on_c, 8, 69, 79
10, 28654, Note_on_c, 8, 69, 0
10, 28662, Note_on_c, 8, 76, 79
10, 28666, Note_on_c, 8, 76, 0
10, 28668, Note_on_c, 8, 74, 79
10, 28672, Note_on_c, 8, 74, 0
10, 28674, Note_on_c, 8, 73, 79
10, 28678, Note_on_c, 8, 73, 0
10, 28686, Note_on_c, 8, 73, 79
10, 28690, Note_on_c, 8, 73, 0
10, 28692, Note_on_c, 8, 71, 79
10, 28696, Note_on_c, 8, 71, 0
10, 28698, Note_on_c, 8, 69, 79
10, 28702, Note_on_c, 8, 69, 0
10, 28710, Note_on_c, 8, 76, 79
10, 28714, Note_on_c, 8, 76, 0
10, 28716, Note_on_c, 8, 74, 79
10, 28720, Note_on_c, 8, 74, 0
10, 28722, Note_on_c, 8, 73, 79
10, 28726, Note_on_c, 8, 73, 0
10, 28734, Note_on_c, 8, 73, 79
10, 28738, Note_on_c, 8, 73, 0
10, 28740, Note_on_c, 8, 71, 79
10, 28744, Note_on_c, 8, 71, 0
10, 28746, Note_on_c, 8, 69, 79
10, 28750, Note_on_c, 8, 69, 0
10, 28758, Note_on_c, 8, 76, 79
10, 28762, Note_on_c, 8, 76, 0
10, 28764, Note_on_c, 8, 74, 79
10, 28768, Note_on_c, 8, 74, 0
10, 28770, Note_on_c, 8, 73, 79
10, 28774, Note_on_c, 8, 73, 0
10, 28782, Note_on_c, 8, 73, 79
10, 28786, Note_on_c, 8, 73, 0
10, 28788, Note_on_c, 8, 71, 79
10, 28792, Note_on_c, 8, 71, 0
10, 28794, Note_on_c, 8, 69, 79
10, 28798, Note_on_c, 8, 69, 0
10, 28806, Note_on_c, 8, 73, 79
10, 28810, Note_on_c, 8, 73, 0
10, 28812, Note_on_c, 8, 76, 79
10, 28816, Note_on_c, 8, 76, 0
10, 28818, Note_on_c, 8, 81, 79
10, 28822, Note_on_c, 8, 81, 0
10, 28824, Note_on_c, 8, 76, 79
10, 28828, Note_on_c, 8, 76, 0
10, 28830, Note_on_c, 8, 73, 79
10, 28834, Note_on_c, 8, 73, 0
10, 28836, Note_on_c, 8, 69, 79
10, 28840, Note_on_c, 8, 69, 0
10, 28854, Note_on_c, 8, 74, 79
10, 28858, Note_on_c, 8, 74, 0
10, 28860, Note_on_c, 8, 78, 79
10, 28864, Note_on_c, 8, 78, 0
10, 28866, Note_on_c, 8, 81, 79
10, 28870, Note_on_c, 8, 81, 0
10, 28872, Note_on_c, 8, 78, 79
10, 28876, Note_on_c, 8, 78, 0
10, 28878, Note_on_c, 8, 74, 79
10, 28882, Note_on_c, 8, 74, 0
10, 28884, Note_on_c, 8, 69, 79
10, 28888, Note_on_c, 8, 69, 0
10, 28902, Note_on_c, 8, 73, 79
10, 28906, Note_on_c, 8, 73, 0
10, 28908, Note_on_c, 8, 76, 79
10, 28912, Note_on_c, 8, 76, 0
10, 28914, Note_on_c, 8, 81, 79
10, 28918, Note_on_c, 8, 81, 0
10, 28920, Note_on_c, 8, 76, 79
10, 28924, Note_on_c, 8, 76, 0
10, 28926, Note_on_c, 8, 73, 79
10, 28930, Note_on_c, 8, 73, 0
10, 28932, Note_on_c, 8, 69, 79
10, 28936, Note_on_c, 8, 69, 0
10, 28950, Note_on_c, 8, 74, 79
10, 28954, Note_on_c, 8, 74, 0
10, 28956, Note_on_c, 8, 78, 79
10, 28960, Note_on_c, 8, 78, 0
10, 28962, Note_on_c, 8, 81, 79
10, 28966, Note_on_c, 8, 81, 0
10, 28968, Note_on_c, 8, 78, 79
10, 28972, Note_on_c, 8, 78, 0
10, 28974, Note_on_c, 8, 74, 79
10, 28978, Note_on_c, 8, 74, 0
10, 28980, Note_on_c, 8, 69, 79
10, 28984, Note_on_c, 8, 69, 0
10, 28998, Note_on_c, 8, 74, 79
10, 29002, Note_on_c, 8, 74, 0
10, 29004, Note_on_c, 8, 77, 79
10, 29008, Note_on_c, 8, 77, 0
10, 29010, Note_on_c, 8, 83, 79
10, 29014, Note_on_c, 8, 83, 0
10, 29016, Note_on_c, 8, 77, 79
10, 29020, Note_on_c, 8, 77, 0
10, 29022, Note_on_c, 8, 74, 79
10, 29026, Note_on_c, 8, 74, 0
10, 29028, Note_on_c, 8, 71, 79
10, 29032, Note_on_c, 8, 71, 0
10, 29046, Note_on_c, 8, 74, 79
10, 29050, Note_on_c, 8, 74, 0
10, 29052, Note_on_c, 8, 77, 79
10, 29056, Note_on_c, 8, 77, 0
10, 29058, Note_on_c, 8, 83, 79
10, 29062, Note_on_c, 8, 83, 0
10, 29064, Note_on_c, 8, 77, 79
10, 29068, Note_on_c, 8, 77, 0
10, 29070, Note_on_c, 8, 74, 79
10, 29074, Note_on_c, 8, 74, 0
10, 29076, Note_on_c, 8, 71, 79
10, 29080, Note_on_c, 8, 71, 0
10, 29094, Note_on_c, 8, 76, 79
10, 29098, Note_on_c, 8, 76, 0
10, 29100, Note_on_c, 8, 79, 79
10, 29104, Note_on_c, 8, 79, 0
10, 29106, Note_on_c, 8, 82, 79
10, 29110, Note_on_c, 8, 82, 0
10, 29112, Note_on_c, 8, 79, 79
10, 29116, Note_on_c, 8, 79, 0
10, 29118, Note_on_c, 8, 76, 79
10, 29122, Note_on_c, 8, 76, 0
10, 29124, Note_on_c, 8, 73, 79
10, 29128, Note_on_c, 8, 73, 0
10, 29142, Note_on_c, 8, 76, 79
10, 29146, Note_on_c, 8, 76, 0
10, 29148, Note_on_c, 8, 79, 79
10, 29152, Note_on_c, 8, 79, 0
10, 29154, Note_on_c, 8, 82, 79
10, 29158, Note_on_c, 8, 82, 0
10, 29160, Note_on_c, 8, 79, 79
10, 29164, Note_on_c, 8, 79, 0
10, 29166, Note_on_c, 8, 76, 79
10, 29170, Note_on_c, 8, 76, 0
10, 29172, Note_on_c, 8, 73, 79
10, 29176, Note_on_c, 8, 73, 0
10, 29190, Note_on_c, 8, 74, 79
10, 29194, Note_on_c, 8, 74, 0
10, 29196, Note_on_c, 8, 78, 79
10, 29200, Note_on_c, 8, 78, 0
10, 29202, Note_on_c, 8, 81, 79
10, 29206, Note_on_c, 8, 81, 0
10, 29208, Note_on_c, 8, 78, 79
10, 29212, Note_on_c, 8, 78, 0
10, 29214, Note_on_c, 8, 74, 79
10, 29218, Note_on_c, 8, 74, 0
10, 29220, Note_on_c, 8, 69, 79
10, 29224, Note_on_c, 8, 69, 0
10, 29238, Note_on_c, 8, 74, 79
10, 29242, Note_on_c, 8, 74, 0
10, 29244, Note_on_c, 8, 78, 79
10, 29248, Note_on_c, 8, 78, 0
10, 29250, Note_on_c, 8, 81, 79
10, 29254, Note_on_c, 8, 81, 0
10, 29256, Note_on_c, 8, 78, 79
10, 29260, Note_on_c, 8, 78, 0
10, 29262, Note_on_c, 8, 74, 79
10, 29266, Note_on_c, 8, 74, 0
10, 29268, Note_on_c, 8, 69, 79
10, 29272, Note_on_c, 8, 69, 0
10, 29286, Note_on_c, 8, 74, 79
10, 29290, Note_on_c, 8, 74, 0
10, 29292, Note_on_c, 8, 77, 79
10, 29296, Note_on_c, 8, 77, 0
10, 29298, Note_on_c, 8, 80, 79
10, 29302, Note_on_c, 8, 80, 0
10, 29304, Note_on_c, 8, 77, 79
10, 29308, Note_on_c, 8, 77, 0
10, 29310, Note_on_c, 8, 74, 79
10, 29314, Note_on_c, 8, 74, 0
10, 29316, Note_on_c, 8, 71, 79
10, 29320, Note_on_c, 8, 71, 0
10, 29334, Note_on_c, 8, 74, 79
10, 29338, Note_on_c, 8, 74, 0
10, 29340, Note_on_c, 8, 77, 79
10, 29344, Note_on_c, 8, 77, 0
10, 29346, Note_on_c, 8, 80, 79
10, 29350, Note_on_c, 8, 80, 0
10, 29352, Note_on_c, 8, 77, 79
10, 29356, Note_on_c, 8, 77, 0
10, 29358, Note_on_c, 8, 74, 79
10, 29362, Note_on_c, 8, 74, 0
10, 29364, Note_on_c, 8, 71, 79
10, 29368, Note_on_c, 8, 71, 0
10, 29376, Note_on_c, 8, 73, 95
10, 29376, Note_on_c, 8, 81, 95
10, 29396, Note_on_c, 8, 73, 0
10, 29400, Note_on_c, 8, 74, 95
10, 29420, Note_on_c, 8, 74, 0
10, 29424, Note_on_c, 8, 73, 95
10, 29444, Note_on_c, 8, 73, 0
10, 29448, Note_on_c, 8, 71, 95
10, 29468, Note_on_c, 8, 71, 0
10, 29472, Note_on_c, 8, 69, 95
10, 29492, Note_on_c, 8, 69, 0
10, 29496, Note_on_c, 8, 78, 95
10, 29516, Note_on_c, 8, 78, 0
10, 29520, Note_on_c, 8, 76, 95
10, 29540, Note_on_c, 8, 76, 0
10, 29544, Note_on_c, 8, 74, 95
10, 29564, Note_on_c, 8, 74, 0
10, 29568, Note_on_c, 8, 81, 0
10, 29568, Note_on_c, 8, 73, 95
10, 29592, Note_on_c, 8, 83, 95
10, 29612, Note_on_c, 8, 83, 0
10, 29616, Note_on_c, 8, 81, 95
10, 29636, Note_on_c, 8, 81, 0
10, 29640, Note_on_c, 8, 79, 95
10, 29648, Note_on_c, 8, 73, 0
10, 29660, Note_on_c, 8, 79, 0
10, 29664, Note_on_c, 8, 74, 95
10, 29664, Note_on_c, 8, 78, 95
10, 29674, Note_on_c, 8, 78, 0
10, 29676, Note_on_c, 8, 79, 95
10, 29686, Note_on_c, 8, 79, 0
10, 29688, Note_on_c, 8, 79, 95
10, 29693, Note_on_c, 8, 79, 0
10, 29694, Note_on_c, 8, 81, 95
10, 29699, Note_on_c, 8, 81, 0
10, 29700, Note_on_c, 8, 78, 95
10, 29705, Note_on_c, 8, 78, 0
10, 29706, Note_on_c, 8, 79, 95
10, 29711, Note_on_c, 8, 79, 0
10, 29712, Note_on_c, 8, 81, 95
10, 29732, Note_on_c, 8, 81, 0
10, 29736, Note_on_c, 8, 79, 95
10, 29744, Note_on_c, 8, 74, 0
10, 29746, Note_on_c, 8, 79, 0
10, 29748, Note_on_c, 8, 78, 95
10, 29758, Note_on_c, 8, 78, 0
10, 29760, Note_on_c, 8, 73, 95
10, 29760, Note_on_c, 8, 76, 95
10, 29770, Note_on_c, 8, 73, 0
10, 29770, Note_on_c, 8, 76, 0
10, 29772, Note_on_c, 8, 81, 95
10, 29777, Note_on_c, 8, 81, 0
10, 29778, Note_on_c, 8, 79, 95
10, 29783, Note_on_c, 8, 79, 0
10, 29784, Note_on_c, 8, 78, 95
10, 29794, Note_on_c, 8, 78, 0
10, 29796, Note_on_c, 8, 81, 95
10, 29806, Note_on_c, 8, 81, 0
10, 29808, Note_on_c, 8, 76, 95
10, 29818, Note_on_c, 8, 76, 0
10, 29820, Note_on_c, 8, 81, 95
10, 29830, Note_on_c, 8, 81, 0
10, 29832, Note_on_c, 8, 74, 95
10, 29842, Note_on_c, 8, 74, 0
10, 29844, Note_on_c, 8, 81, 95
10, 29854, Note_on_c, 8, 81, 0
10, 29856, Note_on_c, 8, 73, 95
10, 29866, Note_on_c, 8, 73, 0
10, 29868, Note_on_c, 8, 81, 95
10, 29878, Note_on_c, 8, 81, 0
10, 29880, Note_on_c, 8, 74, 95
10, 29890, Note_on_c, 8, 74, 0
10, 29892, Note_on_c, 8, 81, 95
10, 29902, Note_on_c, 8, 81, 0
10, 29904, Note_on_c, 8, 73, 95
10, 29914, Note_on_c, 8, 73, 0
10, 29916, Note_on_c, 8, 81, 95
10, 29926, Note_on_c, 8, 81, 0
10, 29928, Note_on_c, 8, 71, 95
10, 29938, Note_on_c, 8, 71, 0
10, 29940, Note_on_c, 8, 81, 95
10, 29950, Note_on_c, 8, 81, 0
10, 29952, Note_on_c, 8, 69, 95
10, 29962, Note_on_c, 8, 69, 0
10, 29964, Note_on_c, 8, 73, 95
10, 29974, Note_on_c, 8, 73, 0
10, 29976, Note_on_c, 8, 67, 95
10, 29986, Note_on_c, 8, 67, 0
10, 29988, Note_on_c, 8, 73, 95
10, 29998, Note_on_c, 8, 73, 0
10, 30000, Note_on_c, 8, 66, 95
10, 30010, Note_on_c, 8, 66, 0
10, 30012, Note_on_c, 8, 73, 95
10, 30022, Note_on_c, 8, 73, 0
10, 30024, Note_on_c, 8, 64, 95
10, 30034, Note_on_c, 8, 64, 0
10, 30036, Note_on_c, 8, 73, 95
10, 30046, Note_on_c, 8, 73, 0
10, 30048, Note_on_c, 8, 62, 95
10, 30058, Note_on_c, 8, 62, 0
10, 30060, Note_on_c, 8, 74, 95
10, 30070, Note_on_c, 8, 74, 0
10, 30072, Note_on_c, 8, 64, 95
10, 30082, Note_on_c, 8, 64, 0
10, 30084, Note_on_c, 8, 74, 95
10, 30094, Note_on_c, 8, 74, 0
10, 30096, Note_on_c, 8, 66, 95
10, 30106, Note_on_c, 8, 66, 0
10, 30108, Note_on_c, 8, 74, 95
10, 30118, Note_on_c, 8, 74, 0
10, 30120, Note_on_c, 8, 64, 95
10, 30130, Note_on_c, 8, 64, 0
10, 30132, Note_on_c, 8, 62, 95
10, 30142, Note_on_c, 8, 62, 0
10, 30144, Note_on_c, 8, 64, 95
10, 30154, Note_on_c, 8, 64, 0
10, 30156, Note_on_c, 8, 73, 95
10, 30166, Note_on_c, 8, 73, 0
10, 30168, Note_on_c, 8, 66, 95
10, 30178, Note_on_c, 8, 66, 0
10, 30180, Note_on_c, 8, 73, 95
10, 30190, Note_on_c, 8, 73, 0
10, 30192, Note_on_c, 8, 67, 95
10, 30202, Note_on_c, 8, 67, 0
10, 30204, Note_on_c, 8, 73, 95
10, 30214, Note_on_c, 8, 73, 0
10, 30216, Note_on_c, 8, 66, 95
10, 30226, Note_on_c, 8, 66, 0
10, 30228, Note_on_c, 8, 64, 95
10, 30238, Note_on_c, 8, 64, 0
10, 30240, Note_on_c, 8, 62, 95
10, 30250, Note_on_c, 8, 62, 0
10, 30252, Note_on_c, 8, 74, 95
10, 30262, Note_on_c, 8, 74, 0
10, 30264, Note_on_c, 8, 64, 95
10, 30274, Note_on_c, 8, 64, 0
10, 30276, Note_on_c, 8, 74, 95
10, 30286, Note_on_c, 8, 74, 0
10, 30288, Note_on_c, 8, 66, 95
10, 30298, Note_on_c, 8, 66, 0
10, 30300, Note_on_c, 8, 74, 95
10, 30310, Note_on_c, 8, 74, 0
10, 30312, Note_on_c, 8, 64, 95
10, 30322, Note_on_c, 8, 64, 0
10, 30324, Note_on_c, 8, 62, 95
10, 30334, Note_on_c, 8, 62, 0
10, 30336, Note_on_c, 8, 64, 95
10, 30346, Note_on_c, 8, 64, 0
10, 30348, Note_on_c, 8, 73, 95
10, 30358, Note_on_c, 8, 73, 0
10, 30360, Note_on_c, 8, 66, 95
10, 30370, Note_on_c, 8, 66, 0
10, 30372, Note_on_c, 8, 73, 95
10, 30382, Note_on_c, 8, 73, 0
10, 30384, Note_on_c, 8, 67, 95
10, 30394, Note_on_c, 8, 67, 0
10, 30396, Note_on_c, 8, 73, 95
10, 30406, Note_on_c, 8, 73, 0
10, 30408, Note_on_c, 8, 66, 95
10, 30418, Note_on_c, 8, 66, 0
10, 30420, Note_on_c, 8, 64, 95
10, 30430, Note_on_c, 8, 64, 0
10, 30432, Note_on_c, 8, 66, 95
10, 30442, Note_on_c, 8, 66, 0
10, 30444, Note_on_c, 8, 72, 95
10, 30454, Note_on_c, 8, 72, 0
10, 30456, Note_on_c, 8, 67, 95
10, 30466, Note_on_c, 8, 67, 0
10, 30468, Note_on_c, 8, 72, 95
10, 30478, Note_on_c, 8, 72, 0
10, 30480, Note_on_c, 8, 69, 95
10, 30490, Note_on_c, 8, 69, 0
10, 30492, Note_on_c, 8, 72, 95
10, 30502, Note_on_c, 8, 72, 0
10, 30504, Note_on_c, 8, 67, 95
10, 30514, Note_on_c, 8, 67, 0
10, 30516, Note_on_c, 8, 66, 95
10, 30526, Note_on_c, 8, 66, 0
10, 30528, Note_on_c, 8, 71, 95
10, 30552, Note_on_c, 8, 69, 95
10, 30572, Note_on_c, 8, 69, 0
10, 30576, Note_on_c, 8, 67, 95
10, 30596, Note_on_c, 8, 67, 0
10, 30600, Note_on_c, 8, 66, 95
10, 30608, Note_on_c, 8, 71, 0
10, 30620, Note_on_c, 8, 66, 0
10, 30624, Note_on_c, 8, 64, 95
10, 30634, Note_on_c, 8, 64, 0
10, 30636, Note_on_c, 8, 71, 95
10, 30646, Note_on_c, 8, 71, 0
10, 30648, Note_on_c, 8, 66, 95
10, 30658, Note_on_c, 8, 66, 0
10, 30660, Note_on_c, 8, 71, 95
10, 30670, Note_on_c, 8, 71, 0
10, 30672, Note_on_c, 8, 67, 95
10, 30682, Note_on_c, 8, 67, 0
10, 30684, Note_on_c, 8, 71, 95
10, 30694, Note_on_c, 8, 71, 0
10, 30696, Note_on_c, 8, 66, 95
10, 30706, Note_on_c, 8, 66, 0
10, 30708, Note_on_c, 8, 64, 95
10, 30718, Note_on_c, 8, 64, 0
10, 30720, Note_on_c, 8, 69, 95
10, 30744, Note_on_c, 8, 67, 95
10, 30764, Note_on_c, 8, 67, 0
10, 30768, Note_on_c, 8, 66, 95
10, 30788, Note_on_c, 8, 66, 0
10, 30792, Note_on_c, 8, 64, 95
10, 30800, Note_on_c, 8, 69, 0
10, 30812, Note_on_c, 8, 64, 0
10, 30816, Note_on_c, 8, 62, 95
10, 30826, Note_on_c, 8, 62, 0
10, 30828, Note_on_c, 8, 69, 95
10, 30838, Note_on_c, 8, 69, 0
10, 30840, Note_on_c, 8, 64, 95
10, 30850, Note_on_c, 8, 64, 0
10, 30852, Note_on_c, 8, 69, 95
10, 30862, Note_on_c, 8, 69, 0
10, 30864, Note_on_c, 8, 66, 95
10, 30874, Note_on_c, 8, 66, 0
10, 30876, Note_on_c, 8, 69, 95
10, 30886, Note_on_c, 8, 69, 0
10, 30888, Note_on_c, 8, 64, 95
10, 30898, Note_on_c, 8, 64, 0
10, 30900, Note_on_c, 8, 62, 95
10, 30910, Note_on_c, 8, 62, 0
10, 30912, Note_on_c, 8, 67, 95
10, 30936, Note_on_c, 8, 66, 95
10, 30956, Note_on_c, 8, 66, 0
10, 30960, Note_on_c, 8, 64, 95
10, 30980, Note_on_c, 8, 64, 0
10, 30984, Note_on_c, 8, 62, 95
10, 30992, Note_on_c, 8, 67, 0
10, 31004, Note_on_c, 8, 62, 0
10, 31008, Note_on_c, 8, 61, 95
10, 31018, Note_on_c, 8, 61, 0
10, 31020, Note_on_c, 8, 67, 95
10, 31030, Note_on_c, 8, 67, 0
10, 31032, Note_on_c, 8, 62, 95
10, 31042, Note_on_c, 8, 62, 0
10, 31044, Note_on_c, 8, 67, 95
10, 31054, Note_on_c, 8, 67, 0
10, 31056, Note_on_c, 8, 64, 95
10, 31066, Note_on_c, 8, 64, 0
10, 31068, Note_on_c, 8, 67, 95
10, 31078, Note_on_c, 8, 67, 0
10, 31080, Note_on_c, 8, 62, 95
10, 31090, Note_on_c, 8, 62, 0
10, 31092, Note_on_c, 8, 61, 95
10, 31102, Note_on_c, 8, 61, 0
10, 31104, Note_on_c, 8, 62, 95
10, 31114, Note_on_c, 8, 62, 0
10, 31116, Note_on_c, 8, 66, 95
10, 31126, Note_on_c, 8, 66, 0
10, 31128, Note_on_c, 8, 69, 95
10, 31138, Note_on_c, 8, 69, 0
10, 31140, Note_on_c, 8, 61, 95
10, 31150, Note_on_c, 8, 61, 0
10, 31152, Note_on_c, 8, 62, 95
10, 31162, Note_on_c, 8, 62, 0
10, 31164, Note_on_c, 8, 66, 95
10, 31174, Note_on_c, 8, 66, 0
10, 31176, Note_on_c, 8, 69, 95
10, 31186, Note_on_c, 8, 69, 0
10, 31188, Note_on_c, 8, 57, 95
10, 31198, Note_on_c, 8, 57, 0
10, 31200, Note_on_c, 8, 62, 95
10, 31210, Note_on_c, 8, 62, 0
10, 31212, Note_on_c, 8, 66, 95
10, 31222, Note_on_c, 8, 66, 0
10, 31224, Note_on_c, 8, 69, 95
10, 31234, Note_on_c, 8, 69, 0
10, 31236, Note_on_c, 8, 61, 95
10, 31246, Note_on_c, 8, 61, 0
10, 31248, Note_on_c, 8, 62, 95
10, 31258, Note_on_c, 8, 62, 0
10, 31260, Note_on_c, 8, 66, 95
10, 31270, Note_on_c, 8, 66, 0
10, 31272, Note_on_c, 8, 69, 95
10, 31282, Note_on_c, 8, 69, 0
10, 31284, Note_on_c, 8, 57, 95
10, 31294, Note_on_c, 8, 57, 0
10, 31296, Note_on_c, 8, 62, 95
10, 31306, Note_on_c, 8, 62, 0
10, 31308, Note_on_c, 8, 66, 95
10, 31318, Note_on_c, 8, 66, 0
10, 31320, Note_on_c, 8, 69, 95
10, 31330, Note_on_c, 8, 69, 0
10, 31332, Note_on_c, 8, 61, 95
10, 31342, Note_on_c, 8, 61, 0
10, 31344, Note_on_c, 8, 62, 95
10, 31354, Note_on_c, 8, 62, 0
10, 31356, Note_on_c, 8, 66, 95
10, 31366, Note_on_c, 8, 66, 0
10, 31368, Note_on_c, 8, 69, 95
10, 31378, Note_on_c, 8, 69, 0
10, 31380, Note_on_c, 8, 59, 95
10, 31390, Note_on_c, 8, 59, 0
10, 31392, Note_on_c, 8, 62, 95
10, 31402, Note_on_c, 8, 62, 0
10, 31404, Note_on_c, 8, 66, 95
10, 31414, Note_on_c, 8, 66, 0
10, 31416, Note_on_c, 8, 69, 95
10, 31426, Note_on_c, 8, 69, 0
10, 31428, Note_on_c, 8, 61, 95
10, 31438, Note_on_c, 8, 61, 0
10, 31440, Note_on_c, 8, 62, 95
10, 31450, Note_on_c, 8, 62, 0
10, 31452, Note_on_c, 8, 66, 95
10, 31462, Note_on_c, 8, 66, 0
10, 31464, Note_on_c, 8, 69, 95
10, 31474, Note_on_c, 8, 69, 0
10, 31476, Note_on_c, 8, 59, 95
10, 31486, Note_on_c, 8, 59, 0
10, 31488, Note_on_c, 8, 62, 95
10, 31498, Note_on_c, 8, 62, 0
10, 31500, Note_on_c, 8, 64, 95
10, 31510, Note_on_c, 8, 64, 0
10, 31512, Note_on_c, 8, 68, 95
10, 31522, Note_on_c, 8, 68, 0
10, 31524, Note_on_c, 8, 61, 95
10, 31534, Note_on_c, 8, 61, 0
10, 31536, Note_on_c, 8, 62, 95
10, 31546, Note_on_c, 8, 62, 0
10, 31548, Note_on_c, 8, 64, 95
10, 31558, Note_on_c, 8, 64, 0
10, 31560, Note_on_c, 8, 68, 95
10, 31570, Note_on_c, 8, 68, 0
10, 31572, Note_on_c, 8, 59, 95
10, 31582, Note_on_c, 8, 59, 0
10, 31584, Note_on_c, 8, 62, 95
10, 31594, Note_on_c, 8, 62, 0
10, 31596, Note_on_c, 8, 64, 95
10, 31606, Note_on_c, 8, 64, 0
10, 31608, Note_on_c, 8, 68, 95
10, 31618, Note_on_c, 8, 68, 0
10, 31620, Note_on_c, 8, 61, 95
10, 31630, Note_on_c, 8, 61, 0
10, 31632, Note_on_c, 8, 62, 95
10, 31642, Note_on_c, 8, 62, 0
10, 31644, Note_on_c, 8, 64, 95
10, 31654, Note_on_c, 8, 64, 0
10, 31656, Note_on_c, 8, 68, 95
10, 31666, Note_on_c, 8, 68, 0
10, 31668, Note_on_c, 8, 59, 95
10, 31678, Note_on_c, 8, 59, 0
10, 31680, Note_on_c, 8, 61, 95
10, 31690, Note_on_c, 8, 61, 0
10, 31692, Note_on_c, 8, 76, 95
10, 31697, Note_on_c, 8, 76, 0
10, 31698, Note_on_c, 8, 74, 95
10, 31703, Note_on_c, 8, 74, 0
10, 31704, Note_on_c, 8, 73, 95
10, 31714, Note_on_c, 8, 73, 0
10, 31716, Note_on_c, 8, 76, 95
10, 31726, Note_on_c, 8, 76, 0
10, 31728, Note_on_c, 8, 71, 95
10, 31738, Note_on_c, 8, 71, 0
10, 31740, Note_on_c, 8, 76, 95
10, 31750, Note_on_c, 8, 76, 0
10, 31752, Note_on_c, 8, 69, 95
10, 31762, Note_on_c, 8, 69, 0
10, 31764, Note_on_c, 8, 76, 95
10, 31774, Note_on_c, 8, 76, 0
10, 31776, Note_on_c, 8, 68, 95
10, 31786, Note_on_c, 8, 68, 0
10, 31788, Note_on_c, 8, 76, 95
10, 31798, Note_on_c, 8, 76, 0
10, 31800, Note_on_c, 8, 69, 95
10, 31810, Note_on_c, 8, 69, 0
10, 31812, Note_on_c, 8, 76, 95
10, 31822, Note_on_c, 8, 76, 0
10, 31824, Note_on_c, 8, 68, 95
10, 31834, Note_on_c, 8, 68, 0
10, 31836, Note_on_c, 8, 76, 95
10, 31846, Note_on_c, 8, 76, 0
10, 31848, Note_on_c, 8, 66, 95
10, 31858, Note_on_c, 8, 66, 0
10, 31860, Note_on_c, 8, 76, 95
10, 31870, Note_on_c, 8, 76, 0
10, 31872, Note_on_c, 8, 64, 95
10, 31892, Note_on_c, 8, 64, 0
10, 31896, Note_on_c, 8, 78, 95
10, 31916, Note_on_c, 8, 78, 0
10, 31920, Note_on_c, 8, 76, 95
10, 31940, Note_on_c, 8, 76, 0
10, 31944, Note_on_c, 8, 74, 95
10, 31964, Note_on_c, 8, 74, 0
10, 31968, Note_on_c, 8, 73, 95
10, 31978, Note_on_c, 8, 73, 0
10, 31980, Note_on_c, 8, 74, 95
10, 31990, Note_on_c, 8, 74, 0
10, 31992, Note_on_c, 8, 74, 95
10, 31997, Note_on_c, 8, 74, 0
10, 31998, Note_on_c, 8, 76, 95
10, 32003, Note_on_c, 8, 76, 0
10, 32004, Note_on_c, 8, 73, 95
10, 32009, Note_on_c, 8, 73, 0
10, 32010, Note_on_c, 8, 74, 95
10, 32015, Note_on_c, 8, 74, 0
10, 32016, Note_on_c, 8, 76, 95
10, 32036, Note_on_c, 8, 76, 0
10, 32040, Note_on_c, 8, 74, 95
10, 32050, Note_on_c, 8, 74, 0
10, 32052, Note_on_c, 8, 73, 95
10, 32062, Note_on_c, 8, 73, 0
10, 32064, Note_on_c, 8, 78, 95
10, 32074, Note_on_c, 8, 78, 0
10, 32076, Note_on_c, 8, 79, 95
10, 32086, Note_on_c, 8, 79, 0
10, 32088, Note_on_c, 8, 78, 95
10, 32098, Note_on_c, 8, 78, 0
10, 32100, Note_on_c, 8, 76, 95
10, 32110, Note_on_c, 8, 76, 0
10, 32112, Note_on_c, 8, 74, 95
10, 32122, Note_on_c, 8, 74, 0
10, 32124, Note_on_c, 8, 73, 95
10, 32134, Note_on_c, 8, 73, 0
10, 32136, Note_on_c, 8, 71, 95
10, 32146, Note_on_c, 8, 71, 0
10, 32148, Note_on_c, 8, 69, 95
10, 32158, Note_on_c, 8, 69, 0
10, 32160, Note_on_c, 8, 71, 95
10, 32170, Note_on_c, 8, 71, 0
10, 32172, Note_on_c, 8, 74, 95
10, 32182, Note_on_c, 8, 74, 0
10, 32184, Note_on_c, 8, 73, 95
10, 32194, Note_on_c, 8, 73, 0
10, 32196, Note_on_c, 8, 76, 95
10, 32206, Note_on_c, 8, 76, 0
10, 32208, Note_on_c, 8, 74, 95
10, 32218, Note_on_c, 8, 74, 0
10, 32220, Note_on_c, 8, 73, 95
10, 32230, Note_on_c, 8, 73, 0
10, 32232, Note_on_c, 8, 74, 95
10, 32242, Note_on_c, 8, 74, 0
10, 32244, Note_on_c, 8, 71, 95
10, 32254, Note_on_c, 8, 71, 0
10, 32256, Note_on_c, 8, 76, 95
10, 32286, Note_on_c, 8, 76, 0
10, 32292, Note_on_c, 8, 74, 95
10, 32302, Note_on_c, 8, 74, 0
10, 32304, Note_on_c, 8, 73, 95
10, 32314, Note_on_c, 8, 73, 0
10, 32316, Note_on_c, 8, 71, 95
10, 32326, Note_on_c, 8, 71, 0
10, 32328, Note_on_c, 8, 69, 95
10, 32338, Note_on_c, 8, 69, 0
10, 32340, Note_on_c, 8, 68, 95
10, 32350, Note_on_c, 8, 68, 0
10, 32352, Note_on_c, 8, 69, 95
10, 32362, Note_on_c, 8, 69, 0
10, 32364, Note_on_c, 8, 68, 95
10, 32374, Note_on_c, 8, 68, 0
10, 32376, Note_on_c, 8, 66, 95
10, 32386, Note_on_c, 8, 66, 0
10, 32388, Note_on_c, 8, 69, 95
10, 32398, Note_on_c, 8, 69, 0
10, 32400, Note_on_c, 8, 73, 95
10, 32410, Note_on_c, 8, 73, 0
10, 32412, Note_on_c, 8, 76, 95
10, 32422, Note_on_c, 8, 76, 0
10, 32424, Note_on_c, 8, 74, 95
10, 32434, Note_on_c, 8, 74, 0
10, 32436, Note_on_c, 8, 73, 95
10, 32446, Note_on_c, 8, 73, 0
10, 32448, Note_on_c, 8, 74, 95
10, 32458, Note_on_c, 8, 74, 0
10, 32460, Note_on_c, 8, 73, 95
10, 32470, Note_on_c, 8, 73, 0
10, 32472, Note_on_c, 8, 71, 95
10, 32482, Note_on_c, 8, 71, 0
10, 32484, Note_on_c, 8, 74, 95
10, 32494, Note_on_c, 8, 74, 0
10, 32496, Note_on_c, 8, 78, 95
10, 32506, Note_on_c, 8, 78, 0
10, 32508, Note_on_c, 8, 81, 95
10, 32518, Note_on_c, 8, 81, 0
10, 32520, Note_on_c, 8, 80, 95
10, 32530, Note_on_c, 8, 80, 0
10, 32532, Note_on_c, 8, 78, 95
10, 32542, Note_on_c, 8, 78, 0
10, 32544, Note_on_c, 8, 80, 95
10, 32554, Note_on_c, 8, 80, 0
10, 32556, Note_on_c, 8, 81, 95
10, 32566, Note_on_c, 8, 81, 0
10, 32568, Note_on_c, 8, 83, 95
10, 32578, Note_on_c, 8, 83, 0
10, 32580, Note_on_c, 8, 80, 95
10, 32590, Note_on_c, 8, 80, 0
10, 32592, Note_on_c, 8, 74, 95
10, 32602, Note_on_c, 8, 74, 0
10, 32604, Note_on_c, 8, 78, 95
10, 32614, Note_on_c, 8, 78, 0
10, 32616, Note_on_c, 8, 76, 95
10, 32626, Note_on_c, 8, 76, 0
10, 32628, Note_on_c, 8, 74, 95
10, 32638, Note_on_c, 8, 74, 0
10, 32640, Note_on_c, 8, 73, 95
10, 32650, Note_on_c, 8, 73, 0
10, 32652, Note_on_c, 8, 81, 95
10, 32662, Note_on_c, 8, 81, 0
10, 32664, Note_on_c, 8, 80, 95
10, 32674, Note_on_c, 8, 80, 0
10, 32676, Note_on_c, 8, 78, 95
10, 32686, Note_on_c, 8, 78, 0
10, 32688, Note_on_c, 8, 76, 95
10, 32698, Note_on_c, 8, 76, 0
10, 32700, Note_on_c, 8, 74, 95
10, 32710, Note_on_c, 8, 74, 0
10, 32712, Note_on_c, 8, 73, 95
10, 32722, Note_on_c, 8, 73, 0
10, 32724, Note_on_c, 8, 74, 95
10, 32734, Note_on_c, 8, 74, 0
10, 32736, Note_on_c, 8, 76, 95
10, 32746, Note_on_c, 8, 76, 0
10, 32748, Note_on_c, 8, 74, 95
10, 32758, Note_on_c, 8, 74, 0
10, 32760, Note_on_c, 8, 76, 95
10, 32770, Note_on_c, 8, 76, 0
10, 32772, Note_on_c, 8, 78, 95
10, 32782, Note_on_c, 8, 78, 0
10, 32784, Note_on_c, 8, 71, 95
10, 32814, Note_on_c, 8, 71, 0
10, 32820, Note_on_c, 8, 69, 95
10, 32830, Note_on_c, 8, 69, 0
10, 32832, Note_on_c, 8, 69, 95
10, 32837, Note_on_c, 8, 69, 0
10, 32838, Note_on_c, 8, 71, 95
10, 32843, Note_on_c, 8, 71, 0
10, 32844, Note_on_c, 8, 69, 95
10, 32849, Note_on_c, 8, 69, 0
10, 32850, Note_on_c, 8, 71, 95
10, 32855, Note_on_c, 8, 71, 0
10, 32856, Note_on_c, 8, 69, 95
10, 32861, Note_on_c, 8, 69, 0
10, 32862, Note_on_c, 8, 71, 95
10, 32867, Note_on_c, 8, 71, 0
10, 32868, Note_on_c, 8, 69, 95
10, 32873, Note_on_c, 8, 69, 0
10, 32874, Note_on_c, 8, 71, 95
10, 32879, Note_on_c, 8, 71, 0
10, 32880, Note_on_c, 8, 69, 95
10, 32885, Note_on_c, 8, 69, 0
10, 32886, Note_on_c, 8, 71, 95
10, 32891, Note_on_c, 8, 71, 0
10, 32892, Note_on_c, 8, 69, 95
10, 32897, Note_on_c, 8, 69, 0
10, 32898, Note_on_c, 8, 71, 95
10, 32903, Note_on_c, 8, 71, 0
10, 32904, Note_on_c, 8, 69, 95
10, 32909, Note_on_c, 8, 69, 0
10, 32910, Note_on_c, 8, 71, 95
10, 32915, Note_on_c, 8, 71, 0
10, 32916, Note_on_c, 8, 69, 95
10, 32921, Note_on_c, 8, 69, 0
10, 32922, Note_on_c, 8, 71, 95
10, 32927, Note_on_c, 8, 71, 0
10, 32928, Note_on_c, 8, 69, 95
10, 32933, Note_on_c, 8, 69, 0
10, 32934, Note_on_c, 8, 71, 95
10, 32939, Note_on_c, 8, 71, 0
10, 32940, Note_on_c, 8, 69, 95
10, 32945, Note_on_c, 8, 69, 0
10, 32946, Note_on_c, 8, 71, 95
10, 32951, Note_on_c, 8, 71, 0
10, 32952, Note_on_c, 8, 69, 95
10, 32957, Note_on_c, 8, 69, 0
10, 32958, Note_on_c, 8, 71, 95
10, 32963, Note_on_c, 8, 71, 0
10, 32964, Note_on_c, 8, 69, 95
10, 32969, Note_on_c, 8, 69, 0
10, 32970, Note_on_c, 8, 71, 95
10, 32975, Note_on_c, 8, 71, 0
10, 32976, Note_on_c, 8, 69, 95
10, 32981, Note_on_c, 8, 69, 0
10, 32982, Note_on_c, 8, 71, 95
10, 32987, Note_on_c, 8, 71, 0
10, 32988, Note_on_c, 8, 69, 95
10, 32993, Note_on_c, 8, 69, 0
10, 32994, Note_on_c, 8, 71, 95
10, 32999, Note_on_c, 8, 71, 0
10, 33000, Note_on_c, 8, 69, 95
10, 33005, Note_on_c, 8, 69, 0
10, 33006, Note_on_c, 8, 71, 95
10, 33011, Note_on_c, 8, 71, 0
10, 33012, Note_on_c, 8, 69, 95
10, 33017, Note_on_c, 8, 69, 0
10, 33018, Note_on_c, 8, 71, 95
10, 33023, Note_on_c, 8, 71, 0
10, 33024, Note_on_c, 8, 69, 95
10, 33034, Note_on_c, 8, 69, 0
10, 33036, Note_on_c, 8, 67, 95
10, 33046, Note_on_c, 8, 67, 0
10, 33048, Note_on_c, 8, 66, 95
10, 33058, Note_on_c, 8, 66, 0
10, 33060, Note_on_c, 8, 69, 95
10, 33070, Note_on_c, 8, 69, 0
10, 33072, Note_on_c, 8, 64, 95
10, 33082, Note_on_c, 8, 64, 0
10, 33084, Note_on_c, 8, 69, 95
10, 33094, Note_on_c, 8, 69, 0
10, 33096, Note_on_c, 8, 62, 95
10, 33106, Note_on_c, 8, 62, 0
10, 33108, Note_on_c, 8, 69, 95
10, 33118, Note_on_c, 8, 69, 0
10, 33120, Note_on_c, 8, 61, 95
10, 33120, Note_on_c, 8, 61, 95
10, 33132, Note_on_c, 8, 67, 95
10, 33140, Note_on_c, 8, 61, 0
10, 33142, Note_on_c, 8, 67, 0
10, 33144, Note_on_c, 8, 62, 95
10, 33144, Note_on_c, 8, 66, 95
10, 33154, Note_on_c, 8, 66, 0
10, 33156, Note_on_c, 8, 69, 95
10, 33164, Note_on_c, 8, 62, 0
10, 33166, Note_on_c, 8, 69, 0
10, 33168, Note_on_c, 8, 61, 95
10, 33168, Note_on_c, 8, 64, 95
10, 33178, Note_on_c, 8, 64, 0
10, 33180, Note_on_c, 8, 69, 95
10, 33188, Note_on_c, 8, 61, 0
10, 33190, Note_on_c, 8, 69, 0
10, 33192, Note_on_c, 8, 59, 95
10, 33192, Note_on_c, 8, 62, 95
10, 33202, Note_on_c, 8, 62, 0
10, 33204, Note_on_c, 8, 69, 95
10, 33212, Note_on_c, 8, 59, 0
10, 33214, Note_on_c, 8, 69, 0
10, 33216, Note_on_c, 8, 57, 95
10, 33216, Note_on_c, 8, 61, 95
10, 33226, Note_on_c, 8, 61, 0
10, 33228, Note_on_c, 8, 67, 95
10, 33236, Note_on_c, 8, 57, 0
10, 33238, Note_on_c, 8, 67, 0
10, 33240, Note_on_c, 8, 66, 95
10, 33250, Note_on_c, 8, 66, 0
10, 33252, Note_on_c, 8, 57, 95
10, 33262, Note_on_c, 8, 57, 0
10, 33264, Note_on_c, 8, 64, 95
10, 33274, Note_on_c, 8, 64, 0
10, 33276, Note_on_c, 8, 57, 95
10, 33286, Note_on_c, 8, 57, 0
10, 33288, Note_on_c, 8, 62, 95
10, 33298, Note_on_c, 8, 62, 0
10, 33300, Note_on_c, 8, 57, 95
10, 33310, Note_on_c, 8, 57, 0
10, 33312, Note_on_c, 8, 61, 95
10, 33322, Note_on_c, 8, 61, 0
10, 33324, Note_on_c, 8, 57, 95
10, 33334, Note_on_c, 8, 57, 0
10, 33336, Note_on_c, 8, 62, 95
10, 33346, Note_on_c, 8, 62, 0
10, 33348, Note_on_c, 8, 67, 95
10, 33358, Note_on_c, 8, 67, 0
10, 33360, Note_on_c, 8, 61, 95
10, 33370, Note_on_c, 8, 61, 0
10, 33372, Note_on_c, 8, 66, 95
10, 33382, Note_on_c, 8, 66, 0
10, 33384, Note_on_c, 8, 59, 95
10, 33394, Note_on_c, 8, 59, 0
10, 33396, Note_on_c, 8, 64, 95
10, 33406, Note_on_c, 8, 64, 0
10, 33408, Note_on_c, 8, 57, 95
10, 33418, Note_on_c, 8, 57, 0
10, 33420, Note_on_c, 8, 62, 95
10, 33430, Note_on_c, 8, 62, 0
10, 33432, Note_on_c, 8, 57, 95
10, 33432, Note_on_c, 8, 61, 95
10, 33442, Note_on_c, 8, 61, 0
10, 33444, Note_on_c, 8, 69, 95
10, 33452, Note_on_c, 8, 57, 0
10, 33454, Note_on_c, 8, 69, 0
10, 33456, Note_on_c, 8, 59, 95
10, 33456, Note_on_c, 8, 62, 95
10, 33466, Note_on_c, 8, 62, 0
10, 33468, Note_on_c, 8, 69, 95
10, 33476, Note_on_c, 8, 59, 0
10, 33478, Note_on_c, 8, 69, 0
10, 33480, Note_on_c, 8, 61, 95
10, 33480, Note_on_c, 8, 64, 95
10, 33490, Note_on_c, 8, 64, 0
10, 33492, Note_on_c, 8, 69, 95
10, 33500, Note_on_c, 8, 61, 0
10, 33502, Note_on_c, 8, 69, 0
10, 33504, Note_on_c, 8, 62, 95
10, 33504, Note_on_c, 8, 66, 95
10, 33514, Note_on_c, 8, 66, 0
10, 33516, Note_on_c, 8, 69, 95
10, 33524, Note_on_c, 8, 62, 0
10, 33526, Note_on_c, 8, 69, 0
10, 33528, Note_on_c, 8, 61, 95
10, 33528, Note_on_c, 8, 64, 95
10, 33538, Note_on_c, 8, 64, 0
10, 33540, Note_on_c, 8, 69, 95
10, 33548, Note_on_c, 8, 61, 0
10, 33550, Note_on_c, 8, 69, 0
10, 33552, Note_on_c, 8, 62, 95
10, 33552, Note_on_c, 8, 66, 95
10, 33562, Note_on_c, 8, 66, 0
10, 33564, Note_on_c, 8, 71, 95
10, 33572, Note_on_c, 8, 62, 0
10, 33574, Note_on_c, 8, 71, 0
10, 33576, Note_on_c, 8, 64, 95
10, 33576, Note_on_c, 8, 67, 95
10, 33586, Note_on_c, 8, 67, 0
10, 33588, Note_on_c, 8, 73, 95
10, 33596, Note_on_c, 8, 64, 0
10, 33598, Note_on_c, 8, 73, 0
10, 33600, Note_on_c, 8, 66, 95
10, 33600, Note_on_c, 8, 74, 95
10, 33605, Note_on_c, 8, 74, 0
10, 33606, Note_on_c, 8, 76, 95
10, 33611, Note_on_c, 8, 76, 0
10, 33612, Note_on_c, 8, 74, 95
10, 33617, Note_on_c, 8, 74, 0
10, 33618, Note_on_c, 8, 76, 95
10, 33620, Note_on_c, 8, 66, 0
10, 33623, Note_on_c, 8, 76, 0
10, 33624, Note_on_c, 8, 74, 95
10, 33629, Note_on_c, 8, 74, 0
10, 33630, Note_on_c, 8, 76, 95
10, 33635, Note_on_c, 8, 76, 0
10, 33636, Note_on_c, 8, 74, 95
10, 33641, Note_on_c, 8, 74, 0
10, 33642, Note_on_c, 8, 76, 95
10, 33647, Note_on_c, 8, 76, 0
10, 33648, Note_on_c, 8, 74, 95
10, 33653, Note_on_c, 8, 74, 0
10, 33654, Note_on_c, 8, 76, 95
10, 33659, Note_on_c, 8, 76, 0
10, 33660, Note_on_c, 8, 74, 95
10, 33665, Note_on_c, 8, 74, 0
10, 33666, Note_on_c, 8, 76, 95
10, 33671, Note_on_c, 8, 76, 0
10, 33672, Note_on_c, 8, 74, 95
10, 33677, Note_on_c, 8, 74, 0
10, 33678, Note_on_c, 8, 76, 95
10, 33683, Note_on_c, 8, 76, 0
10, 33684, Note_on_c, 8, 74, 95
10, 33689, Note_on_c, 8, 74, 0
10, 33690, Note_on_c, 8, 76, 95
10, 33695, Note_on_c, 8, 76, 0
10, 33696, Note_on_c, 8, 74, 95
10, 33701, Note_on_c, 8, 74, 0
10, 33702, Note_on_c, 8, 76, 95
10, 33707, Note_on_c, 8, 76, 0
10, 33708, Note_on_c, 8, 74, 95
10, 33713, Note_on_c, 8, 74, 0
10, 33714, Note_on_c, 8, 76, 95
10, 33719, Note_on_c, 8, 76, 0
10, 33720, Note_on_c, 8, 74, 95
10, 33725, Note_on_c, 8, 74, 0
10, 33726, Note_on_c, 8, 76, 95
10, 33731, Note_on_c, 8, 76, 0
10, 33732, Note_on_c, 8, 74, 95
10, 33737, Note_on_c, 8, 74, 0
10, 33738, Note_on_c, 8, 76, 95
10, 33743, Note_on_c, 8, 76, 0
10, 33744, Note_on_c, 8, 74, 95
10, 33749, Note_on_c, 8, 74, 0
10, 33750, Note_on_c, 8, 76, 95
10, 33755, Note_on_c, 8, 76, 0
10, 33756, Note_on_c, 8, 74, 95
10, 33761, Note_on_c, 8, 74, 0
10, 33762, Note_on_c, 8, 76, 95
10, 33767, Note_on_c, 8, 76, 0
10, 33768, Note_on_c, 8, 74, 95
10, 33773, Note_on_c, 8, 74, 0
10, 33774, Note_on_c, 8, 76, 95
10, 33779, Note_on_c, 8, 76, 0
10, 33780, Note_on_c, 8, 74, 95
10, 33785, Note_on_c, 8, 74, 0
10, 33786, Note_on_c, 8, 76, 95
10, 33791, Note_on_c, 8, 76, 0
10, 33792, Note_on_c, 8, 74, 95
10, 33802, Note_on_c, 8, 74, 0
10, 33804, Note_on_c, 8, 72, 95
10, 33814, Note_on_c, 8, 72, 0
10, 33816, Note_on_c, 8, 71, 95
10, 33826, Note_on_c, 8, 71, 0
10, 33828, Note_on_c, 8, 74, 95
10, 33838, Note_on_c, 8, 74, 0
10, 33840, Note_on_c, 8, 69, 95
10, 33850, Note_on_c, 8, 69, 0
10, 33852, Note_on_c, 8, 74, 95
10, 33862, Note_on_c, 8, 74, 0
10, 33864, Note_on_c, 8, 67, 95
10, 33874, Note_on_c, 8, 67, 0
10, 33876, Note_on_c, 8, 74, 95
10, 33886, Note_on_c, 8, 74, 0
10, 33888, Note_on_c, 8, 66, 95
10, 33888, Note_on_c, 8, 66, 95
10, 33898, Note_on_c, 8, 66, 0
10, 33900, Note_on_c, 8, 72, 95
10, 33910, Note_on_c, 8, 72, 0
10, 33912, Note_on_c, 8, 67, 95
10, 33912, Note_on_c, 8, 71, 95
10, 33922, Note_on_c, 8, 71, 0
10, 33924, Note_on_c, 8, 74, 95
10, 33932, Note_on_c, 8, 67, 0
10, 33934, Note_on_c, 8, 74, 0
10, 33936, Note_on_c, 8, 66, 95
10, 33936, Note_on_c, 8, 69, 95
10, 33946, Note_on_c, 8, 69, 0
10, 33948, Note_on_c, 8, 74, 95
10, 33956, Note_on_c, 8, 66, 0
10, 33958, Note_on_c, 8, 74, 0
10, 33960, Note_on_c, 8, 64, 95
10, 33960, Note_on_c, 8, 67, 95
10, 33970, Note_on_c, 8, 67, 0
10, 33972, Note_on_c, 8, 74, 95
10, 33980, Note_on_c, 8, 64, 0
10, 33982, Note_on_c, 8, 74, 0
10, 33984, Note_on_c, 8, 62, 95
10, 33984, Note_on_c, 8, 66, 95
10, 33994, Note_on_c, 8, 62, 0
10, 33994, Note_on_c, 8, 66, 0
10, 33996, Note_on_c, 8, 72, 95
10, 34006, Note_on_c, 8, 72, 0
10, 34008, Note_on_c, 8, 71, 95
10, 34018, Note_on_c, 8, 71, 0
10, 34020, Note_on_c, 8, 62, 95
10, 34030, Note_on_c, 8, 62, 0
10, 34032, Note_on_c, 8, 69, 95
10, 34042, Note_on_c, 8, 69, 0
10, 34044, Note_on_c, 8, 62, 95
10, 34054, Note_on_c, 8, 62, 0
10, 34056, Note_on_c, 8, 67, 95
10, 34066, Note_on_c, 8, 67, 0
10, 34068, Note_on_c, 8, 62, 95
10, 34078, Note_on_c, 8, 62, 0
10, 34080, Note_on_c, 8, 66, 95
10, 34090, Note_on_c, 8, 66, 0
10, 34092, Note_on_c, 8, 62, 95
10, 34102, Note_on_c, 8, 62, 0
10, 34104, Note_on_c, 8, 67, 95
10, 34114, Note_on_c, 8, 67, 0
10, 34116, Note_on_c, 8, 72, 95
10, 34126, Note_on_c, 8, 72, 0
10, 34128, Note_on_c, 8, 66, 95
10, 34138, Note_on_c, 8, 66, 0
10, 34140, Note_on_c, 8, 71, 95
10, 34150, Note_on_c, 8, 71, 0
10, 34152, Note_on_c, 8, 64, 95
10, 34162, Note_on_c, 8, 64, 0
10, 34164, Note_on_c, 8, 69, 95
10, 34174, Note_on_c, 8, 69, 0
10, 34176, Note_on_c, 8, 62, 95
10, 34186, Note_on_c, 8, 62, 0
10, 34188, Note_on_c, 8, 67, 95
10, 34198, Note_on_c, 8, 67, 0
10, 34200, Note_on_c, 8, 62, 95
10, 34200, Note_on_c, 8, 66, 95
10, 34210, Note_on_c, 8, 66, 0
10, 34212, Note_on_c, 8, 74, 95
10, 34220, Note_on_c, 8, 62, 0
10, 34222, Note_on_c, 8, 74, 0
10, 34224, Note_on_c, 8, 64, 95
10, 34224, Note_on_c, 8, 67, 95
10, 34234, Note_on_c, 8, 67, 0
10, 34236, Note_on_c, 8, 74, 95
10, 34244, Note_on_c, 8, 64, 0
10, 34246, Note_on_c, 8, 74, 0
10, 34248, Note_on_c, 8, 66, 95
10, 34248, Note_on_c, 8, 69, 95
10, 34258, Note_on_c, 8, 69, 0
10, 34260, Note_on_c, 8, 74, 95
10, 34268, Note_on_c, 8, 66, 0
10, 34270, Note_on_c, 8, 74, 0
10, 34272, Note_on_c, 8, 67, 95
10, 34272, Note_on_c, 8, 71, 95
10, 34282, Note_on_c, 8, 71, 0
10, 34284, Note_on_c, 8, 74, 95
10, 34292, Note_on_c, 8, 67, 0
10, 34294, Note_on_c, 8, 74, 0
10, 34296, Note_on_c, 8, 66, 95
10, 34296, Note_on_c, 8, 69, 95
10, 34306, Note_on_c, 8, 69, 0
10, 34308, Note_on_c, 8, 74, 95
10, 34316, Note_on_c, 8, 66, 0
10, 34318, Note_on_c, 8, 74, 0
10, 34320, Note_on_c, 8, 67, 95
10, 34320, Note_on_c, 8, 71, 95
10, 34330, Note_on_c, 8, 71, 0
10, 34332, Note_on_c, 8, 76, 95
10, 34340, Note_on_c, 8, 67, 0
10, 34342, Note_on_c, 8, 76, 0
10, 34344, Note_on_c, 8, 69, 95
10, 34344, Note_on_c, 8, 72, 95
10, 34354, Note_on_c, 8, 72, 0
10, 34356, Note_on_c, 8, 78, 95
10, 34364, Note_on_c, 8, 69, 0
10, 34366, Note_on_c, 8, 78, 0
10, 34368, Note_on_c, 8, 71, 95
10, 34368, Note_on_c, 8, 74, 95
10, 34378, Note_on_c, 8, 74, 0
10, 34380, Note_on_c, 8, 79, 95
10, 34388, Note_on_c, 8, 71, 0
10, 34390, Note_on_c, 8, 79, 0
10, 34392, Note_on_c, 8, 66, 95
10, 34392, Note_on_c, 8, 69, 95
10, 34402, Note_on_c, 8, 69, 0
10, 34404, Note_on_c, 8, 74, 95
10, 34412, Note_on_c, 8, 66, 0
10, 34414, Note_on_c, 8, 74, 0
10, 34416, Note_on_c, 8, 67, 95
10, 34416, Note_on_c, 8, 71, 95
10, 34426, Note_on_c, 8, 71, 0
10, 34428, Note_on_c, 8, 76, 95
10, 34436, Note_on_c, 8, 67, 0
10, 34438, Note_on_c, 8, 76, 0
10, 34440, Note_on_c, 8, 69, 95
10, 34440, Note_on_c, 8, 72, 95
10, 34450, Note_on_c, 8, 72, 0
10, 34452, Note_on_c, 8, 78, 95
10, 34460, Note_on_c, 8, 69, 0
10, 34462, Note_on_c, 8, 78, 0
10, 34464, Note_on_c, 8, 71, 95
10, 34464, Note_on_c, 8, 74, 95
10, 34474, Note_on_c, 8, 74, 0
10, 34476, Note_on_c, 8, 79, 95
10, 34484, Note_on_c, 8, 71, 0
10, 34486, Note_on_c, 8, 79, 0
10, 34488, Note_on_c, 8, 69, 95
10, 34488, Note_on_c, 8, 74, 95
10, 34498, Note_on_c, 8, 74, 0
10, 34500, Note_on_c, 8, 78, 95
10, 34508, Note_on_c, 8, 69, 0
10, 34510, Note_on_c, 8, 78, 0
10, 34512, Note_on_c, 8, 71, 95
10, 34512, Note_on_c, 8, 76, 95
10, 34522, Note_on_c, 8, 76, 0
10, 34524, Note_on_c, 8, 79, 95
10, 34532, Note_on_c, 8, 71, 0
10, 34534, Note_on_c, 8, 79, 0
10, 34536, Note_on_c, 8, 72, 95
10, 34536, Note_on_c, 8, 78, 95
10, 34546, Note_on_c, 8, 78, 0
10, 34548, Note_on_c, 8, 81, 95
10, 34556, Note_on_c, 8, 72, 0
10, 34558, Note_on_c, 8, 81, 0
10, 34560, Note_on_c, 8, 74, 95
10, 34560, Note_on_c, 8, 79, 95
10, 34570, Note_on_c, 8, 74, 0
10, 34570, Note_on_c, 8, 79, 0
10, 34572, Note_on_c, 8, 83, 95
10, 34582, Note_on_c, 8, 83, 0
10, 34584, Note_on_c, 8, 81, 95
10, 34594, Note_on_c, 8, 81, 0
10, 34596, Note_on_c, 8, 83, 95
10, 34606, Note_on_c, 8, 83, 0
10, 34608, Note_on_c, 8, 79, 95
10, 34618, Note_on_c, 8, 79, 0
10, 34620, Note_on_c, 8, 83, 95
10, 34630, Note_on_c, 8, 83, 0
10, 34632, Note_on_c, 8, 78, 95
10, 34642, Note_on_c, 8, 78, 0
10, 34644, Note_on_c, 8, 83, 95
10, 34654, Note_on_c, 8, 83, 0
10, 34656, Note_on_c, 8, 76, 95
10, 34666, Note_on_c, 8, 76, 0
10, 34668, Note_on_c, 8, 83, 95
10, 34678, Note_on_c, 8, 83, 0
10, 34680, Note_on_c, 8, 74, 95
10, 34690, Note_on_c, 8, 74, 0
10, 34692, Note_on_c, 8, 83, 95
10, 34702, Note_on_c, 8, 83, 0
10, 34704, Note_on_c, 8, 73, 95
10, 34714, Note_on_c, 8, 73, 0
10, 34716, Note_on_c, 8, 83, 95
10, 34726, Note_on_c, 8, 83, 0
10, 34728, Note_on_c, 8, 71, 95
10, 34738, Note_on_c, 8, 71, 0
10, 34740, Note_on_c, 8, 83, 95
10, 34750, Note_on_c, 8, 83, 0
10, 34752, Note_on_c, 8, 69, 95
10, 34762, Note_on_c, 8, 69, 0
10, 34764, Note_on_c, 8, 81, 95
10, 34774, Note_on_c, 8, 81, 0
10, 34776, Note_on_c, 8, 79, 95
10, 34786, Note_on_c, 8, 79, 0
10, 34788, Note_on_c, 8, 81, 95
10, 34798, Note_on_c, 8, 81, 0
10, 34800, Note_on_c, 8, 78, 95
10, 34810, Note_on_c, 8, 78, 0
10, 34812, Note_on_c, 8, 81, 95
10, 34822, Note_on_c, 8, 81, 0
10, 34824, Note_on_c, 8, 76, 95
10, 34834, Note_on_c, 8, 76, 0
10, 34836, Note_on_c, 8, 81, 95
10, 34846, Note_on_c, 8, 81, 0
10, 34848, Note_on_c, 8, 74, 95
10, 34872, Note_on_c, 8, 73, 95
10, 34892, Note_on_c, 8, 73, 0
10, 34896, Note_on_c, 8, 71, 95
10, 34916, Note_on_c, 8, 71, 0
10, 34920, Note_on_c, 8, 69, 95
10, 34928, Note_on_c, 8, 74, 0
10, 34940, Note_on_c, 8, 69, 0
10, 34944, Note_on_c, 8, 67, 95
10, 34954, Note_on_c, 8, 67, 0
10, 34956, Note_on_c, 8, 79, 95
10, 34966, Note_on_c, 8, 79, 0
10, 34968, Note_on_c, 8, 78, 95
10, 34978, Note_on_c, 8, 78, 0
10, 34980, Note_on_c, 8, 79, 95
10, 34990, Note_on_c, 8, 79, 0
10, 34992, Note_on_c, 8, 76, 95
10, 35002, Note_on_c, 8, 76, 0
10, 35004, Note_on_c, 8, 79, 95
10, 35014, Note_on_c, 8, 79, 0
10, 35016, Note_on_c, 8, 74, 95
10, 35026, Note_on_c, 8, 74, 0
10, 35028, Note_on_c, 8, 79, 95
10, 35038, Note_on_c, 8, 79, 0
10, 35040, Note_on_c, 8, 73, 95
10, 35064, Note_on_c, 8, 83, 95
10, 35084, Note_on_c, 8, 83, 0
10, 35088, Note_on_c, 8, 81, 95
10, 35108, Note_on_c, 8, 81, 0
10, 35112, Note_on_c, 8, 79, 95
10, 35120, Note_on_c, 8, 73, 0
10, 35132, Note_on_c, 8, 79, 0
10, 35136, Note_on_c, 8, 78, 95
10, 35146, Note_on_c, 8, 78, 0
10, 35148, Note_on_c, 8, 69, 95
10, 35158, Note_on_c, 8, 69, 0
10, 35160, Note_on_c, 8, 74, 95
10, 35170, Note_on_c, 8, 74, 0
10, 35172, Note_on_c, 8, 76, 95
10, 35182, Note_on_c, 8, 76, 0
10, 35184, Note_on_c, 8, 78, 95
10, 35194, Note_on_c, 8, 78, 0
10, 35196, Note_on_c, 8, 69, 95
10, 35206, Note_on_c, 8, 69, 0
10, 35208, Note_on_c, 8, 74, 95
10, 35218, Note_on_c, 8, 74, 0
10, 35220, Note_on_c, 8, 76, 95
10, 35230, Note_on_c, 8, 76, 0
10, 35232, Note_on_c, 8, 78, 95
10, 35242, Note_on_c, 8, 78, 0
10, 35244, Note_on_c, 8, 69, 95
10, 35254, Note_on_c, 8, 69, 0
10, 35256, Note_on_c, 8, 74, 95
10, 35266, Note_on_c, 8, 74, 0
10, 35268, Note_on_c, 8, 76, 95
10, 35278, Note_on_c, 8, 76, 0
10, 35280, Note_on_c, 8, 78, 95
10, 35290, Note_on_c, 8, 78, 0
10, 35292, Note_on_c, 8, 69, 95
10, 35302, Note_on_c, 8, 69, 0
10, 35304, Note_on_c, 8, 74, 95
10, 35314, Note_on_c, 8, 74, 0
10, 35316, Note_on_c, 8, 76, 95
10, 35326, Note_on_c, 8, 76, 0
10, 35328, Note_on_c, 8, 71, 95
10, 35338, Note_on_c, 8, 71, 0
10, 35340, Note_on_c, 8, 74, 95
10, 35350, Note_on_c, 8, 74, 0
10, 35352, Note_on_c, 8, 78, 95
10, 35362, Note_on_c, 8, 78, 0
10, 35364, Note_on_c, 8, 69, 95
10, 35374, Note_on_c, 8, 69, 0
10, 35376, Note_on_c, 8, 71, 95
10, 35386, Note_on_c, 8, 71, 0
10, 35388, Note_on_c, 8, 74, 95
10, 35398, Note_on_c, 8, 74, 0
10, 35400, Note_on_c, 8, 78, 95
10, 35410, Note_on_c, 8, 78, 0
10, 35412, Note_on_c, 8, 69, 95
10, 35422, Note_on_c, 8, 69, 0
10, 35424, Note_on_c, 8, 67, 95
10, 35434, Note_on_c, 8, 67, 0
10, 35436, Note_on_c, 8, 71, 95
10, 35446, Note_on_c, 8, 71, 0
10, 35448, Note_on_c, 8, 76, 95
10, 35458, Note_on_c, 8, 76, 0
10, 35460, Note_on_c, 8, 66, 95
10, 35470, Note_on_c, 8, 66, 0
10, 35472, Note_on_c, 8, 67, 95
10, 35482, Note_on_c, 8, 67, 0
10, 35484, Note_on_c, 8, 71, 95
10, 35494, Note_on_c, 8, 71, 0
10, 35496, Note_on_c, 8, 74, 95
10, 35506, Note_on_c, 8, 74, 0
10, 35508, Note_on_c, 8, 64, 95
10, 35518, Note_on_c, 8, 64, 0
10, 35520, Note_on_c, 8, 67, 95
10, 35530, Note_on_c, 8, 67, 0
10, 35532, Note_on_c, 8, 69, 95
10, 35542, Note_on_c, 8, 69, 0
10, 35544, Note_on_c, 8, 73, 95
10, 35554, Note_on_c, 8, 73, 0
10, 35556, Note_on_c, 8, 66, 95
10, 35566, Note_on_c, 8, 66, 0
10, 35568, Note_on_c, 8, 67, 95
10, 35578, Note_on_c, 8, 67, 0
10, 35580, Note_on_c, 8, 69, 95
10, 35590, Note_on_c, 8, 69, 0
10, 35592, Note_on_c, 8, 73, 95
10, 35602, Note_on_c, 8, 73, 0
10, 35604, Note_on_c, 8, 66, 95
10, 35614, Note_on_c, 8, 66, 0
10, 35616, Note_on_c, 8, 67, 95
10, 35626, Note_on_c, 8, 67, 0
10, 35628, Note_on_c, 8, 69, 95
10, 35638, Note_on_c, 8, 69, 0
10, 35640, Note_on_c, 8, 73, 95
10, 35650, Note_on_c, 8, 73, 0
10, 35652, Note_on_c, 8, 66, 95
10, 35662, Note_on_c, 8, 66, 0
10, 35664, Note_on_c, 8, 67, 95
10, 35674, Note_on_c, 8, 67, 0
10, 35676, Note_on_c, 8, 69, 95
10, 35686, Note_on_c, 8, 69, 0
10, 35688, Note_on_c, 8, 73, 95
10, 35698, Note_on_c, 8, 73, 0
10, 35700, Note_on_c, 8, 64, 95
10, 35710, Note_on_c, 8, 64, 0
10, 35712, Note_on_c, 8, 66, 95
10, 35722, Note_on_c, 8, 66, 0
10, 35724, Note_on_c, 8, 69, 95
10, 35734, Note_on_c, 8, 69, 0
10, 35736, Note_on_c, 8, 74, 95
10, 35746, Note_on_c, 8, 74, 0
10, 35748, Note_on_c, 8, 64, 95
10, 35758, Note_on_c, 8, 64, 0
10, 35760, Note_on_c, 8, 66, 95
10, 35770, Note_on_c, 8, 66, 0
10, 35772, Note_on_c, 8, 69, 95
10, 35782, Note_on_c, 8, 69, 0
10, 35784, Note_on_c, 8, 74, 95
10, 35794, Note_on_c, 8, 74, 0
10, 35796, Note_on_c, 8, 62, 95
10, 35806, Note_on_c, 8, 62, 0
10, 35808, Note_on_c, 8, 66, 95
10, 35818, Note_on_c, 8, 66, 0
10, 35820, Note_on_c, 8, 69, 95
10, 35830, Note_on_c, 8, 69, 0
10, 35832, Note_on_c, 8, 74, 95
10, 35842, Note_on_c, 8, 74, 0
10, 35844, Note_on_c, 8, 64, 95
10, 35854, Note_on_c, 8, 64, 0
10, 35856, Note_on_c, 8, 66, 95
10, 35866, Note_on_c, 8, 66, 0
10, 35868, Note_on_c, 8, 69, 95
10, 35878, Note_on_c, 8, 69, 0
10, 35880, Note_on_c, 8, 74, 95
10, 35890, Note_on_c, 8, 74, 0
10, 35892, Note_on_c, 8, 62, 95
10, 35902, Note_on_c, 8, 62, 0
10, 35904, Note_on_c, 8, 68, 95
10, 35914, Note_on_c, 8, 68, 0
10, 35916, Note_on_c, 8, 71, 95
10, 35926, Note_on_c, 8, 71, 0
10, 35928, Note_on_c, 8, 74, 95
10, 35938, Note_on_c, 8, 74, 0
10, 35940, Note_on_c, 8, 66, 95
10, 35950, Note_on_c, 8, 66, 0
10, 35952, Note_on_c, 8, 68, 95
10, 35962, Note_on_c, 8, 68, 0
10, 35964, Note_on_c, 8, 71, 95
10, 35974, Note_on_c, 8, 71, 0
10, 35976, Note_on_c, 8, 74, 95
10, 35986, Note_on_c, 8, 74, 0
10, 35988, Note_on_c, 8, 64, 95
10, 35998, Note_on_c, 8, 64, 0
10, 36000, Note_on_c, 8, 68, 95
10, 36010, Note_on_c, 8, 68, 0
10, 36012, Note_on_c, 8, 71, 95
10, 36022, Note_on_c, 8, 71, 0
10, 36024, Note_on_c, 8, 74, 95
10, 36034, Note_on_c, 8, 74, 0
10, 36036, Note_on_c, 8, 66, 95
10, 36046, Note_on_c, 8, 66, 0
10, 36048, Note_on_c, 8, 68, 95
10, 36058, Note_on_c, 8, 68, 0
10, 36060, Note_on_c, 8, 71, 95
10, 36070, Note_on_c, 8, 71, 0
10, 36072, Note_on_c, 8, 74, 95
10, 36082, Note_on_c, 8, 74, 0
10, 36084, Note_on_c, 8, 64, 95
10, 36094, Note_on_c, 8, 64, 0
10, 36096, Note_on_c, 8, 69, 95
10, 36106, Note_on_c, 8, 69, 0
10, 36108, Note_on_c, 8, 71, 95
10, 36118, Note_on_c, 8, 71, 0
10, 36120, Note_on_c, 8, 73, 95
10, 36130, Note_on_c, 8, 73, 0
10, 36132, Note_on_c, 8, 67, 95
10, 36142, Note_on_c, 8, 67, 0
10, 36144, Note_on_c, 8, 66, 95
10, 36154, Note_on_c, 8, 66, 0
10, 36156, Note_on_c, 8, 69, 95
10, 36166, Note_on_c, 8, 69, 0
10, 36168, Note_on_c, 8, 74, 95
10, 36178, Note_on_c, 8, 74, 0
10, 36180, Note_on_c, 8, 62, 95
10, 36190, Note_on_c, 8, 62, 0
10, 36192, Note_on_c, 8, 69, 95
10, 36202, Note_on_c, 8, 69, 0
10, 36204, Note_on_c, 8, 71, 95
10, 36214, Note_on_c, 8, 71, 0
10, 36216, Note_on_c, 8, 73, 95
10, 36226, Note_on_c, 8, 73, 0
10, 36228, Note_on_c, 8, 67, 95
10, 36238, Note_on_c, 8, 67, 0
10, 36240, Note_on_c, 8, 66, 95
10, 36250, Note_on_c, 8, 66, 0
10, 36252, Note_on_c, 8, 69, 95
10, 36262, Note_on_c, 8, 69, 0
10, 36264, Note_on_c, 8, 74, 95
10, 36274, Note_on_c, 8, 74, 0
10, 36276, Note_on_c, 8, 62, 95
10, 36286, Note_on_c, 8, 62, 0
10, 36288, Note_on_c, 8, 69, 95
10, 36298, Note_on_c, 8, 69, 0
10, 36300, Note_on_c, 8, 71, 95
10, 36310, Note_on_c, 8, 71, 0
10, 36312, Note_on_c, 8, 73, 95
10, 36322, Note_on_c, 8, 73, 0
10, 36324, Note_on_c, 8, 67, 95
10, 36334, Note_on_c, 8, 67, 0
10, 36336, Note_on_c, 8, 66, 95
10, 36346, Note_on_c, 8, 66, 0
10, 36348, Note_on_c, 8, 69, 95
10, 36358, Note_on_c, 8, 69, 0
10, 36360, Note_on_c, 8, 74, 95
10, 36370, Note_on_c, 8, 74, 0
10, 36372, Note_on_c, 8, 73, 95
10, 36382, Note_on_c, 8, 73, 0
10, 36384, Note_on_c, 8, 71, 95
10, 36394, Note_on_c, 8, 71, 0
10, 36396, Note_on_c, 8, 73, 95
10, 36406, Note_on_c, 8, 73, 0
10, 36408, Note_on_c, 8, 74, 95
10, 36418, Note_on_c, 8, 74, 0
10, 36420, Note_on_c, 8, 69, 95
10, 36430, Note_on_c, 8, 69, 0
10, 36432, Note_on_c, 8, 67, 95
10, 36442, Note_on_c, 8, 67, 0
10, 36444, Note_on_c, 8, 71, 95
10, 36454, Note_on_c, 8, 71, 0
10, 36456, Note_on_c, 8, 76, 95
10, 36466, Note_on_c, 8, 76, 0
10, 36468, Note_on_c, 8, 74, 95
10, 36478, Note_on_c, 8, 74, 0
10, 36480, Note_on_c, 8, 73, 95
10, 36490, Note_on_c, 8, 73, 0
10, 36492, Note_on_c, 8, 74, 95
10, 36502, Note_on_c, 8, 74, 0
10, 36504, Note_on_c, 8, 76, 95
10, 36514, Note_on_c, 8, 76, 0
10, 36516, Note_on_c, 8, 71, 95
10, 36526, Note_on_c, 8, 71, 0
10, 36528, Note_on_c, 8, 69, 95
10, 36538, Note_on_c, 8, 69, 0
10, 36540, Note_on_c, 8, 73, 95
10, 36550, Note_on_c, 8, 73, 0
10, 36552, Note_on_c, 8, 78, 95
10, 36562, Note_on_c, 8, 78, 0
10, 36564, Note_on_c, 8, 76, 95
10, 36574, Note_on_c, 8, 76, 0
10, 36576, Note_on_c, 8, 74, 95
10, 36586, Note_on_c, 8, 74, 0
10, 36588, Note_on_c, 8, 76, 95
10, 36598, Note_on_c, 8, 76, 0
10, 36600, Note_on_c, 8, 78, 95
10, 36610, Note_on_c, 8, 78, 0
10, 36612, Note_on_c, 8, 73, 95
10, 36622, Note_on_c, 8, 73, 0
10, 36624, Note_on_c, 8, 71, 95
10, 36634, Note_on_c, 8, 71, 0
10, 36636, Note_on_c, 8, 74, 95
10, 36646, Note_on_c, 8, 74, 0
10, 36648, Note_on_c, 8, 79, 95
10, 36658, Note_on_c, 8, 79, 0
10, 36660, Note_on_c, 8, 78, 95
10, 36670, Note_on_c, 8, 78, 0
10, 36672, Note_on_c, 8, 76, 95
10, 36682, Note_on_c, 8, 76, 0
10, 36684, Note_on_c, 8, 78, 95
10, 36694, Note_on_c, 8, 78, 0
10, 36696, Note_on_c, 8, 79, 95
10, 36706, Note_on_c, 8, 79, 0
10, 36708, Note_on_c, 8, 74, 95
10, 36718, Note_on_c, 8, 74, 0
10, 36720, Note_on_c, 8, 73, 95
10, 36730, Note_on_c, 8, 73, 0
10, 36732, Note_on_c, 8, 76, 95
10, 36742, Note_on_c, 8, 76, 0
10, 36744, Note_on_c, 8, 81, 95
10, 36754, Note_on_c, 8, 81, 0
10, 36756, Note_on_c, 8, 79, 95
10, 36766, Note_on_c, 8, 79, 0
10, 36768, Note_on_c, 8, 78, 95
10, 36778, Note_on_c, 8, 78, 0
10, 36780, Note_on_c, 8, 79, 95
10, 36790, Note_on_c, 8, 79, 0
10, 36792, Note_on_c, 8, 81, 95
10, 36802, Note_on_c, 8, 81, 0
10, 36804, Note_on_c, 8, 76, 95
10, 36814, Note_on_c, 8, 76, 0
10, 36816, Note_on_c, 8, 74, 95
10, 36826, Note_on_c, 8, 74, 0
10, 36828, Note_on_c, 8, 78, 95
10, 36838, Note_on_c, 8, 78, 0
10, 36840, Note_on_c, 8, 83, 95
10, 36850, Note_on_c, 8, 83, 0
10, 36852, Note_on_c, 8, 81, 95
10, 36862, Note_on_c, 8, 81, 0
10, 36864, Note_on_c, 8, 76, 95
10, 36874, Note_on_c, 8, 76, 0
10, 36876, Note_on_c, 8, 78, 95
10, 36886, Note_on_c, 8, 78, 0
10, 36888, Note_on_c, 8, 79, 95
10, 36898, Note_on_c, 8, 79, 0
10, 36900, Note_on_c, 8, 74, 95
10, 36910, Note_on_c, 8, 74, 0
10, 36912, Note_on_c, 8, 73, 95
10, 36922, Note_on_c, 8, 73, 0
10, 36924, Note_on_c, 8, 76, 95
10, 36934, Note_on_c, 8, 76, 0
10, 36936, Note_on_c, 8, 81, 95
10, 36946, Note_on_c, 8, 81, 0
10, 36948, Note_on_c, 8, 79, 95
10, 36958, Note_on_c, 8, 79, 0
10, 36960, Note_on_c, 8, 74, 95
10, 36970, Note_on_c, 8, 74, 0
10, 36972, Note_on_c, 8, 76, 95
10, 36982, Note_on_c, 8, 76, 0
10, 36984, Note_on_c, 8, 78, 95
10, 36994, Note_on_c, 8, 78, 0
10, 36996, Note_on_c, 8, 73, 95
10, 37006, Note_on_c, 8, 73, 0
10, 37008, Note_on_c, 8, 71, 95
10, 37018, Note_on_c, 8, 71, 0
10, 37020, Note_on_c, 8, 74, 95
10, 37030, Note_on_c, 8, 74, 0
10, 37032, Note_on_c, 8, 79, 95
10, 37042, Note_on_c, 8, 79, 0
10, 37044, Note_on_c, 8, 78, 95
10, 37054, Note_on_c, 8, 78, 0
10, 37056, Note_on_c, 8, 73, 95
10, 37066, Note_on_c, 8, 73, 0
10, 37068, Note_on_c, 8, 74, 95
10, 37078, Note_on_c, 8, 74, 0
10, 37080, Note_on_c, 8, 76, 95
10, 37090, Note_on_c, 8, 76, 0
10, 37092, Note_on_c, 8, 71, 95
10, 37102, Note_on_c, 8, 71, 0
10, 37104, Note_on_c, 8, 69, 95
10, 37114, Note_on_c, 8, 69, 0
10, 37116, Note_on_c, 8, 73, 95
10, 37126, Note_on_c, 8, 73, 0
10, 37128, Note_on_c, 8, 78, 95
10, 37138, Note_on_c, 8, 78, 0
10, 37140, Note_on_c, 8, 76, 95
10, 37150, Note_on_c, 8, 76, 0
10, 37152, Note_on_c, 8, 71, 95
10, 37162, Note_on_c, 8, 71, 0
10, 37164, Note_on_c, 8, 73, 95
10, 37174, Note_on_c, 8, 73, 0
10, 37176, Note_on_c, 8, 74, 95
10, 37186, Note_on_c, 8, 74, 0
10, 37188, Note_on_c, 8, 69, 95
10, 37198, Note_on_c, 8, 69, 0
10, 37200, Note_on_c, 8, 67, 95
10, 37210, Note_on_c, 8, 67, 0
10, 37212, Note_on_c, 8, 71, 95
10, 37222, Note_on_c, 8, 71, 0
10, 37224, Note_on_c, 8, 76, 95
10, 37234, Note_on_c, 8, 76, 0
10, 37236, Note_on_c, 8, 74, 95
10, 37246, Note_on_c, 8, 74, 0
10, 37248, Note_on_c, 8, 73, 95
10, 37253, Note_on_c, 8, 73, 0
10, 37254, Note_on_c, 8, 81, 95
10, 37259, Note_on_c, 8, 81, 0
10, 37260, Note_on_c, 8, 79, 95
10, 37265, Note_on_c, 8, 79, 0
10, 37266, Note_on_c, 8, 78, 95
10, 37271, Note_on_c, 8, 78, 0
10, 37272, Note_on_c, 8, 76, 95
10, 37277, Note_on_c, 8, 76, 0
10, 37278, Note_on_c, 8, 81, 95
10, 37283, Note_on_c, 8, 81, 0
10, 37284, Note_on_c, 8, 79, 95
10, 37289, Note_on_c, 8, 79, 0
10, 37290, Note_on_c, 8, 78, 95
10, 37295, Note_on_c, 8, 78, 0
10, 37296, Note_on_c, 8, 76, 95
10, 37301, Note_on_c, 8, 76, 0
10, 37302, Note_on_c, 8, 74, 95
10, 37307, Note_on_c, 8, 74, 0
10, 37308, Note_on_c, 8, 73, 95
10, 37313, Note_on_c, 8, 73, 0
10, 37314, Note_on_c, 8, 71, 95
10, 37319, Note_on_c, 8, 71, 0
10, 37320, Note_on_c, 8, 69, 95
10, 37325, Note_on_c, 8, 69, 0
10, 37326, Note_on_c, 8, 67, 95
10, 37331, Note_on_c, 8, 67, 0
10, 37332, Note_on_c, 8, 66, 95
10, 37337, Note_on_c, 8, 66, 0
10, 37338, Note_on_c, 8, 64, 95
10, 37343, Note_on_c, 8, 64, 0
10, 37344, Control_c, 8, 10, 72
10, 37344, Note_on_c, 8, 66, 95
10, 37349, Note_on_c, 8, 66, 0
10, 37350, Note_on_c, 8, 74, 95
10, 37355, Note_on_c, 8, 74, 0
10, 37356, Note_on_c, 8, 73, 95
10, 37361, Note_on_c, 8, 73, 0
10, 37362, Note_on_c, 8, 71, 95
10, 37367, Note_on_c, 8, 71, 0
10, 37368, Note_on_c, 8, 69, 95
10, 37373, Note_on_c, 8, 69, 0
10, 37374, Note_on_c, 8, 74, 95
10, 37379, Note_on_c, 8, 74, 0
10, 37380, Note_on_c, 8, 73, 95
10, 37385, Note_on_c, 8, 73, 0
10, 37386, Note_on_c, 8, 71, 95
10, 37391, Note_on_c, 8, 71, 0
10, 37392, Note_on_c, 8, 69, 95
10, 37397, Note_on_c, 8, 69, 0
10, 37398, Note_on_c, 8, 67, 95
10, 37403, Note_on_c, 8, 67, 0
10, 37404, Note_on_c, 8, 66, 95
10, 37409, Note_on_c, 8, 66, 0
10, 37410, Note_on_c, 8, 64, 95
10, 37415, Note_on_c, 8, 64, 0
10, 37416, Note_on_c, 8, 62, 95
10, 37421, Note_on_c, 8, 62, 0
10, 37422, Note_on_c, 8, 61, 95
10, 37427, Note_on_c, 8, 61, 0
10, 37428, Note_on_c, 8, 59, 95
10, 37433, Note_on_c, 8, 59, 0
10, 37434, Note_on_c, 8, 57, 95
10, 37439, Note_on_c, 8, 57, 0
10, 37440, Control_c, 8, 10, 45
10, 37440, Note_on_c, 8, 59, 95
10, 37445, Note_on_c, 8, 59, 0
10, 37446, Note_on_c, 8, 61, 95
10, 37451, Note_on_c, 8, 61, 0
10, 37452, Note_on_c, 8, 62, 95
10, 37457, Note_on_c, 8, 62, 0
10, 37458, Note_on_c, 8, 64, 95
10, 37463, Note_on_c, 8, 64, 0
10, 37464, Note_on_c, 8, 66, 95
10, 37469, Note_on_c, 8, 66, 0
10, 37470, Note_on_c, 8, 68, 95
10, 37475, Note_on_c, 8, 68, 0
10, 37476, Note_on_c, 8, 69, 95
10, 37481, Note_on_c, 8, 69, 0
10, 37482, Note_on_c, 8, 66, 95
10, 37487, Note_on_c, 8, 66, 0
10, 37488, Note_on_c, 8, 68, 95
10, 37493, Note_on_c, 8, 68, 0
10, 37494, Note_on_c, 8, 71, 95
10, 37499, Note_on_c, 8, 71, 0
10, 37500, Note_on_c, 8, 64, 95
10, 37505, Note_on_c, 8, 64, 0
10, 37506, Note_on_c, 8, 66, 95
10, 37511, Note_on_c, 8, 66, 0
10, 37512, Note_on_c, 8, 68, 95
10, 37517, Note_on_c, 8, 68, 0
10, 37518, Note_on_c, 8, 69, 95
10, 37523, Note_on_c, 8, 69, 0
10, 37524, Note_on_c, 8, 71, 95
10, 37529, Note_on_c, 8, 71, 0
10, 37530, Note_on_c, 8, 73, 95
10, 37535, Note_on_c, 8, 73, 0
10, 37536, Control_c, 8, 10, 27
10, 37536, Note_on_c, 8, 74, 95
10, 37541, Note_on_c, 8, 74, 0
10, 37542, Note_on_c, 8, 71, 95
10, 37547, Note_on_c, 8, 71, 0
10, 37548, Note_on_c, 8, 73, 95
10, 37553, Note_on_c, 8, 73, 0
10, 37554, Note_on_c, 8, 74, 95
10, 37559, Note_on_c, 8, 74, 0
10, 37560, Note_on_c, 8, 76, 95
10, 37565, Note_on_c, 8, 76, 0
10, 37566, Note_on_c, 8, 78, 95
10, 37571, Note_on_c, 8, 78, 0
10, 37572, Note_on_c, 8, 80, 95
10, 37577, Note_on_c, 8, 80, 0
10, 37578, Note_on_c, 8, 81, 95
10, 37583, Note_on_c, 8, 81, 0
10, 37584, Note_on_c, 8, 83, 95
10, 37589, Note_on_c, 8, 83, 0
10, 37590, Note_on_c, 8, 81, 95
10, 37595, Note_on_c, 8, 81, 0
10, 37596, Note_on_c, 8, 80, 95
10, 37601, Note_on_c, 8, 80, 0
10, 37602, Note_on_c, 8, 78, 95
10, 37607, Note_on_c, 8, 78, 0
10, 37608, Note_on_c, 8, 76, 95
10, 37613, Note_on_c, 8, 76, 0
10, 37614, Note_on_c, 8, 74, 95
10, 37619, Note_on_c, 8, 74, 0
10, 37620, Note_on_c, 8, 73, 95
10, 37625, Note_on_c, 8, 73, 0
10, 37626, Note_on_c, 8, 71, 95
10, 37631, Note_on_c, 8, 71, 0
10, 37632, Control_c, 8, 10, 9
10, 37632, Note_on_c, 8, 73, 95
10, 37637, Note_on_c, 8, 73, 0
10, 37638, Note_on_c, 8, 69, 95
10, 37643, Note_on_c, 8, 69, 0
10, 37644, Note_on_c, 8, 73, 95
10, 37649, Note_on_c, 8, 73, 0
10, 37650, Note_on_c, 8, 76, 95
10, 37655, Note_on_c, 8, 76, 0
10, 37656, Note_on_c, 8, 81, 95
10, 37661, Note_on_c, 8, 81, 0
10, 37662, Note_on_c, 8, 76, 95
10, 37667, Note_on_c, 8, 76, 0
10, 37668, Note_on_c, 8, 73, 95
10, 37673, Note_on_c, 8, 73, 0
10, 37674, Note_on_c, 8, 69, 95
10, 37679, Note_on_c, 8, 69, 0
10, 37680, Note_on_c, 8, 64, 95
10, 37685, Note_on_c, 8, 64, 0
10, 37686, Note_on_c, 8, 61, 95
10, 37691, Note_on_c, 8, 61, 0
10, 37692, Note_on_c, 8, 57, 95
10, 37697, Note_on_c, 8, 57, 0
10, 37698, Note_on_c, 8, 61, 95
10, 37703, Note_on_c, 8, 61, 0
10, 37704, Note_on_c, 8, 64, 95
10, 37709, Note_on_c, 8, 64, 0
10, 37710, Note_on_c, 8, 67, 95
10, 37715, Note_on_c, 8, 67, 0
10, 37716, Note_on_c, 8, 64, 95
10, 37721, Note_on_c, 8, 64, 0
10, 37722, Note_on_c, 8, 61, 95
10, 37727, Note_on_c, 8, 61, 0
10, 37728, Control_c, 8, 10, 54
10, 37728, Note_on_c, 8, 57, 95
10, 37733, Note_on_c, 8, 57, 0
10, 37734, Note_on_c, 8, 52, 95
10, 37739, Note_on_c, 8, 52, 0
10, 37740, Note_on_c, 8, 49, 95
10, 37745, Note_on_c, 8, 49, 0
10, 37746, Note_on_c, 8, 45, 95
10, 37751, Note_on_c, 8, 45, 0
10, 37752, Note_on_c, 8, 49, 95
10, 37757, Note_on_c, 8, 49, 0
10, 37758, Note_on_c, 8, 52, 95
10, 37763, Note_on_c, 8, 52, 0
10, 37764, Note_on_c, 8, 55, 95
10, 37769, Note_on_c, 8, 55, 0
10, 37770, Note_on_c, 8, 58, 95
10, 37775, Note_on_c, 8, 58, 0
10, 37776, Note_on_c, 8, 61, 95
10, 37781, Note_on_c, 8, 61, 0
10, 37782, Note_on_c, 8, 64, 95
10, 37787, Note_on_c, 8, 64, 0
10, 37788, Note_on_c, 8, 67, 95
10, 37793, Note_on_c, 8, 67, 0
10, 37794, Note_on_c, 8, 70, 95
10, 37799, Note_on_c, 8, 70, 0
10, 37800, Note_on_c, 8, 67, 95
10, 37805, Note_on_c, 8, 67, 0
10, 37806, Note_on_c, 8, 64, 95
10, 37811, Note_on_c, 8, 64, 0
10, 37812, Note_on_c, 8, 61, 95
10, 37817, Note_on_c, 8, 61, 0
10, 37818, Note_on_c, 8, 55, 95
10, 37823, Note_on_c, 8, 55, 0
10, 37824, Control_c, 8, 10, 90
10, 37830, Note_on_c, 8, 69, 95
10, 37835, Note_on_c, 8, 69, 0
10, 37836, Note_on_c, 8, 65, 95
10, 37841, Note_on_c, 8, 65, 0
10, 37842, Note_on_c, 8, 62, 95
10, 37847, Note_on_c, 8, 62, 0
10, 37854, Note_on_c, 8, 67, 95
10, 37859, Note_on_c, 8, 67, 0
10, 37860, Note_on_c, 8, 64, 95
10, 37865, Note_on_c, 8, 64, 0
10, 37866, Note_on_c, 8, 61, 95
10, 37871, Note_on_c, 8, 61, 0
10, 37878, Note_on_c, 8, 69, 95
10, 37883, Note_on_c, 8, 69, 0
10, 37884, Note_on_c, 8, 65, 95
10, 37889, Note_on_c, 8, 65, 0
10, 37890, Note_on_c, 8, 62, 95
10, 37895, Note_on_c, 8, 62, 0
10, 37902, Note_on_c, 8, 70, 95
10, 37907, Note_on_c, 8, 70, 0
10, 37908, Note_on_c, 8, 67, 95
10, 37913, Note_on_c, 8, 67, 0
10, 37914, Note_on_c, 8, 64, 95
10, 37919, Note_on_c, 8, 64, 0
10, 37926, Note_on_c, 8, 69, 95
10, 37931, Note_on_c, 8, 69, 0
10, 37932, Note_on_c, 8, 65, 95
10, 37937, Note_on_c, 8, 65, 0
10, 37938, Note_on_c, 8, 62, 95
10, 37943, Note_on_c, 8, 62, 0
10, 37950, Note_on_c, 8, 67, 95
10, 37955, Note_on_c, 8, 67, 0
10, 37956, Note_on_c, 8, 64, 95
10, 37961, Note_on_c, 8, 64, 0
10, 37962, Note_on_c, 8, 61, 95
10, 37967, Note_on_c, 8, 61, 0
10, 37974, Note_on_c, 8, 69, 95
10, 37979, Note_on_c, 8, 69, 0
10, 37980, Note_on_c, 8, 65, 95
10, 37985, Note_on_c, 8, 65, 0
10, 37986, Note_on_c, 8, 62, 95
10, 37991, Note_on_c, 8, 62, 0
10, 37998, Note_on_c, 8, 70, 95
10, 38003, Note_on_c, 8, 70, 0
10, 38004, Note_on_c, 8, 67, 95
10, 38009, Note_on_c, 8, 67, 0
10, 38010, Note_on_c, 8, 64, 95
10, 38015, Note_on_c, 8, 64, 0
10, 38022, Note_on_c, 8, 69, 95
10, 38027, Note_on_c, 8, 69, 0
10, 38028, Note_on_c, 8, 65, 95
10, 38033, Note_on_c, 8, 65, 0
10, 38034, Note_on_c, 8, 64, 95
10, 38039, Note_on_c, 8, 64, 0
10, 38046, Note_on_c, 8, 65, 95
10, 38051, Note_on_c, 8, 65, 0
10, 38052, Note_on_c, 8, 70, 95
10, 38057, Note_on_c, 8, 70, 0
10, 38058, Note_on_c, 8, 77, 95
10, 38063, Note_on_c, 8, 77, 0
10, 38070, Note_on_c, 8, 67, 95
10, 38075, Note_on_c, 8, 67, 0
10, 38076, Note_on_c, 8, 64, 95
10, 38081, Note_on_c, 8, 64, 0
10, 38082, Note_on_c, 8, 62, 95
10, 38087, Note_on_c, 8, 62, 0
10, 38094, Note_on_c, 8, 64, 95
10, 38099, Note_on_c, 8, 64, 0
10, 38100, Note_on_c, 8, 69, 95
10, 38105, Note_on_c, 8, 69, 0
10, 38106, Note_on_c, 8, 76, 95
10, 38111, Note_on_c, 8, 76, 0
10, 38118, Note_on_c, 8, 65, 95
10, 38123, Note_on_c, 8, 65, 0
10, 38124, Note_on_c, 8, 62, 95
10, 38129, Note_on_c, 8, 62, 0
10, 38130, Note_on_c, 8, 60, 95
10, 38135, Note_on_c, 8, 60, 0
10, 38142, Note_on_c, 8, 62, 95
10, 38147, Note_on_c, 8, 62, 0
10, 38148, Note_on_c, 8, 67, 95
10, 38153, Note_on_c, 8, 67, 0
10, 38154, Note_on_c, 8, 74, 95
10, 38159, Note_on_c, 8, 74, 0
10, 38166, Note_on_c, 8, 64, 95
10, 38171, Note_on_c, 8, 64, 0
10, 38172, Note_on_c, 8, 67, 95
10, 38177, Note_on_c, 8, 67, 0
10, 38178, Note_on_c, 8, 73, 95
10, 38183, Note_on_c, 8, 73, 0
10, 38190, Note_on_c, 8, 65, 95
10, 38195, Note_on_c, 8, 65, 0
10, 38196, Note_on_c, 8, 62, 95
10, 38201, Note_on_c, 8, 62, 0
10, 38202, Note_on_c, 8, 59, 95
10, 38207, Note_on_c, 8, 59, 0
10, 38214, Note_on_c, 8, 64, 95
10, 38219, Note_on_c, 8, 64, 0
10, 38220, Note_on_c, 8, 61, 95
10, 38225, Note_on_c, 8, 61, 0
10, 38226, Note_on_c, 8, 58, 95
10, 38231, Note_on_c, 8, 58, 0
10, 38238, Note_on_c, 8, 63, 95
10, 38243, Note_on_c, 8, 63, 0
10, 38244, Note_on_c, 8, 60, 95
10, 38249, Note_on_c, 8, 60, 0
10, 38250, Note_on_c, 8, 57, 95
10, 38255, Note_on_c, 8, 57, 0
10, 38262, Note_on_c, 8, 62, 95
10, 38267, Note_on_c, 8, 62, 0
10, 38268, Note_on_c, 8, 59, 95
10, 38273, Note_on_c, 8, 59, 0
10, 38274, Note_on_c, 8, 56, 95
10, 38279, Note_on_c, 8, 56, 0
10, 38286, Note_on_c, 8, 61, 95
10, 38291, Note_on_c, 8, 61, 0
10, 38292, Note_on_c, 8, 58, 95
10, 38297, Note_on_c, 8, 58, 0
10, 38298, Note_on_c, 8, 55, 95
10, 38303, Note_on_c, 8, 55, 0
10, 38310, Note_on_c, 8, 60, 95
10, 38315, Note_on_c, 8, 60, 0
10, 38316, Note_on_c, 8, 57, 95
10, 38321, Note_on_c, 8, 57, 0
10, 38322, Note_on_c, 8, 54, 95
10, 38327, Note_on_c, 8, 54, 0
10, 38334, Note_on_c, 8, 59, 95
10, 38339, Note_on_c, 8, 59, 0
10, 38340, Note_on_c, 8, 56, 95
10, 38345, Note_on_c, 8, 56, 0
10, 38346, Note_on_c, 8, 53, 95
10, 38351, Note_on_c, 8, 53, 0
10, 38358, Note_on_c, 8, 58, 95
10, 38363, Note_on_c, 8, 58, 0
10, 38364, Note_on_c, 8, 55, 95
10, 38369, Note_on_c, 8, 55, 0
10, 38370, Note_on_c, 8, 52, 95
10, 38375, Note_on_c, 8, 52, 0
10, 38382, Note_on_c, 8, 57, 95
10, 38387, Note_on_c, 8, 57, 0
10, 38388, Note_on_c, 8, 54, 95
10, 38393, Note_on_c, 8, 54, 0
10, 38394, Note_on_c, 8, 51, 95
10, 38399, Note_on_c, 8, 51, 0
10, 38406, Note_on_c, 8, 56, 95
10, 38411, Note_on_c, 8, 56, 0
10, 38412, Note_on_c, 8, 53, 95
10, 38417, Note_on_c, 8, 53, 0
10, 38418, Note_on_c, 8, 50, 95
10, 38423, Note_on_c, 8, 50, 0
10, 38430, Note_on_c, 8, 55, 95
10, 38435, Note_on_c, 8, 55, 0
10, 38436, Note_on_c, 8, 52, 95
10, 38441, Note_on_c, 8, 52, 0
10, 38442, Note_on_c, 8, 49, 95
10, 38447, Note_on_c, 8, 49, 0
10, 38454, Note_on_c, 8, 54, 95
10, 38459, Note_on_c, 8, 54, 0
10, 38460, Note_on_c, 8, 51, 95
10, 38465, Note_on_c, 8, 51, 0
10, 38466, Note_on_c, 8, 48, 95
10, 38471, Note_on_c, 8, 48, 0
10, 38478, Note_on_c, 8, 53, 95
10, 38483, Note_on_c, 8, 53, 0
10, 38484, Note_on_c, 8, 50, 95
10, 38489, Note_on_c, 8, 50, 0
10, 38490, Note_on_c, 8, 47, 95
10, 38495, Note_on_c, 8, 47, 0
10, 38520, Note_on_c, 8, 52, 95
10, 38525, Note_on_c, 8, 52, 0
10, 38526, Note_on_c, 8, 53, 95
10, 38531, Note_on_c, 8, 53, 0
10, 38532, Note_on_c, 8, 55, 95
10, 38537, Note_on_c, 8, 55, 0
10, 38538, Note_on_c, 8, 52, 95
10, 38543, Note_on_c, 8, 52, 0
10, 38568, Note_on_c, 8, 53, 95
10, 38573, Note_on_c, 8, 53, 0
10, 38574, Note_on_c, 8, 55, 95
10, 38579, Note_on_c, 8, 55, 0
10, 38580, Note_on_c, 8, 57, 95
10, 38585, Note_on_c, 8, 57, 0
10, 38586, Note_on_c, 8, 53, 95
10, 38591, Note_on_c, 8, 53, 0
10, 38592, Note_on_c, 8, 45, 95
10, 38597, Note_on_c, 8, 45, 0
10, 38598, Note_on_c, 8, 50, 95
10, 38603, Note_on_c, 8, 50, 0
10, 38604, Note_on_c, 8, 52, 95
10, 38609, Note_on_c, 8, 52, 0
10, 38610, Note_on_c, 8, 53, 95
10, 38615, Note_on_c, 8, 53, 0
10, 38616, Note_on_c, 8, 55, 95
10, 38621, Note_on_c, 8, 55, 0
10, 38622, Note_on_c, 8, 57, 95
10, 38627, Note_on_c, 8, 57, 0
10, 38628, Note_on_c, 8, 58, 95
10, 38633, Note_on_c, 8, 58, 0
10, 38634, Note_on_c, 8, 55, 95
10, 38639, Note_on_c, 8, 55, 0
10, 38640, Note_on_c, 8, 45, 95
10, 38645, Note_on_c, 8, 45, 0
10, 38646, Note_on_c, 8, 49, 95
10, 38651, Note_on_c, 8, 49, 0
10, 38652, Note_on_c, 8, 50, 95
10, 38657, Note_on_c, 8, 50, 0
10, 38658, Note_on_c, 8, 52, 95
10, 38663, Note_on_c, 8, 52, 0
10, 38664, Note_on_c, 8, 53, 95
10, 38669, Note_on_c, 8, 53, 0
10, 38670, Note_on_c, 8, 55, 95
10, 38675, Note_on_c, 8, 55, 0
10, 38676, Note_on_c, 8, 57, 95
10, 38681, Note_on_c, 8, 57, 0
10, 38682, Note_on_c, 8, 53, 95
10, 38687, Note_on_c, 8, 53, 0
10, 38688, Note_on_c, 8, 45, 95
10, 38695, Note_on_c, 8, 45, 0
10, 38696, Note_on_c, 8, 49, 95
10, 38703, Note_on_c, 8, 49, 0
10, 38704, Note_on_c, 8, 50, 95
10, 38711, Note_on_c, 8, 50, 0
10, 38712, Note_on_c, 8, 52, 95
10, 38719, Note_on_c, 8, 52, 0
10, 38720, Note_on_c, 8, 53, 95
10, 38723, Note_on_c, 8, 53, 0
10, 38724, Note_on_c, 8, 52, 95
10, 38727, Note_on_c, 8, 52, 0
10, 38728, Note_on_c, 8, 53, 95
10, 38735, Note_on_c, 8, 53, 0
10, 38736, Note_on_c, 8, 45, 95
10, 38743, Note_on_c, 8, 45, 0
10, 38744, Note_on_c, 8, 50, 95
10, 38751, Note_on_c, 8, 50, 0
10, 38752, Note_on_c, 8, 52, 95
10, 38759, Note_on_c, 8, 52, 0
10, 38760, Note_on_c, 8, 53, 95
10, 38767, Note_on_c, 8, 53, 0
10, 38768, Note_on_c, 8, 55, 95
10, 38771, Note_on_c, 8, 55, 0
10, 38772, Note_on_c, 8, 53, 95
10, 38775, Note_on_c, 8, 53, 0
10, 38776, Note_on_c, 8, 55, 95
10, 38783, Note_on_c, 8, 55, 0
10, 38784, Note_on_c, 8, 45, 95
10, 38791, Note_on_c, 8, 45, 0
10, 38792, Note_on_c, 8, 52, 95
10, 38799, Note_on_c, 8, 52, 0
10, 38800, Note_on_c, 8, 54, 95
10, 38807, Note_on_c, 8, 54, 0
10, 38808, Note_on_c, 8, 55, 95
10, 38815, Note_on_c, 8, 55, 0
10, 38816, Note_on_c, 8, 57, 95
10, 38819, Note_on_c, 8, 57, 0
10, 38820, Note_on_c, 8, 55, 95
10, 38823, Note_on_c, 8, 55, 0
10, 38824, Note_on_c, 8, 57, 95
10, 38831, Note_on_c, 8, 57, 0
10, 38832, Note_on_c, 8, 45, 95
10, 38839, Note_on_c, 8, 45, 0
10, 38840, Note_on_c, 8, 54, 95
10, 38847, Note_on_c, 8, 54, 0
10, 38848, Note_on_c, 8, 55, 95
10, 38855, Note_on_c, 8, 55, 0
10, 38856, Note_on_c, 8, 57, 95
10, 38863, Note_on_c, 8, 57, 0
10, 38864, Note_on_c, 8, 59, 95
10, 38867, Note_on_c, 8, 59, 0
10, 38868, Note_on_c, 8, 57, 95
10, 38871, Note_on_c, 8, 57, 0
10, 38872, Note_on_c, 8, 59, 95
10, 38879, Note_on_c, 8, 59, 0
10, 38880, Note_on_c, 8, 61, 95
10, 38885, Note_on_c, 8, 61, 0
10, 38886, Note_on_c, 8, 58, 95
10, 38891, Note_on_c, 8, 58, 0
10, 38892, Note_on_c, 8, 57, 95
10, 38897, Note_on_c, 8, 57, 0
10, 38898, Note_on_c, 8, 58, 95
10, 38903, Note_on_c, 8, 58, 0
10, 38904, Note_on_c, 8, 61, 95
10, 38909, Note_on_c, 8, 61, 0
10, 38910, Note_on_c, 8, 58, 95
10, 38915, Note_on_c, 8, 58, 0
10, 38916, Note_on_c, 8, 57, 95
10, 38921, Note_on_c, 8, 57, 0
10, 38922, Note_on_c, 8, 58, 95
10, 38927, Note_on_c, 8, 58, 0
10, 38928, Note_on_c, 8, 61, 95
10, 38933, Note_on_c, 8, 61, 0
10, 38934, Note_on_c, 8, 58, 95
10, 38939, Note_on_c, 8, 58, 0
10, 38940, Note_on_c, 8, 57, 95
10, 38945, Note_on_c, 8, 57, 0
10, 38946, Note_on_c, 8, 58, 95
10, 38951, Note_on_c, 8, 58, 0
10, 38952, Note_on_c, 8, 61, 95
10, 38957, Note_on_c, 8, 61, 0
10, 38958, Note_on_c, 8, 58, 95
10, 38963, Note_on_c, 8, 58, 0
10, 38964, Note_on_c, 8, 57, 95
10, 38969, Note_on_c, 8, 57, 0
10, 38970, Note_on_c, 8, 58, 95
10, 38975, Note_on_c, 8, 58, 0
10, 38976, Note_on_c, 8, 61, 95
10, 38981, Note_on_c, 8, 61, 0
10, 38982, Note_on_c, 8, 58, 95
10, 38987, Note_on_c, 8, 58, 0
10, 38988, Note_on_c, 8, 57, 95
10, 38993, Note_on_c, 8, 57, 0
10, 38994, Note_on_c, 8, 58, 95
10, 38999, Note_on_c, 8, 58, 0
10, 39000, Note_on_c, 8, 61, 95
10, 39005, Note_on_c, 8, 61, 0
10, 39006, Note_on_c, 8, 58, 95
10, 39011, Note_on_c, 8, 58, 0
10, 39012, Note_on_c, 8, 57, 95
10, 39017, Note_on_c, 8, 57, 0
10, 39018, Note_on_c, 8, 58, 95
10, 39023, Note_on_c, 8, 58, 0
10, 39024, Note_on_c, 8, 61, 95
10, 39029, Note_on_c, 8, 61, 0
10, 39030, Note_on_c, 8, 58, 95
10, 39035, Note_on_c, 8, 58, 0
10, 39036, Note_on_c, 8, 57, 95
10, 39041, Note_on_c, 8, 57, 0
10, 39042, Note_on_c, 8, 58, 95
10, 39047, Note_on_c, 8, 58, 0
10, 39048, Note_on_c, 8, 61, 95
10, 39053, Note_on_c, 8, 61, 0
10, 39054, Note_on_c, 8, 58, 95
10, 39059, Note_on_c, 8, 58, 0
10, 39060, Note_on_c, 8, 57, 95
10, 39065, Note_on_c, 8, 57, 0
10, 39066, Note_on_c, 8, 58, 95
10, 39071, Note_on_c, 8, 58, 0
10, 39072, Note_on_c, 8, 62, 95
10, 39077, Note_on_c, 8, 62, 0
10, 39078, Note_on_c, 8, 59, 95
10, 39083, Note_on_c, 8, 59, 0
10, 39084, Note_on_c, 8, 57, 95
10, 39089, Note_on_c, 8, 57, 0
10, 39090, Note_on_c, 8, 59, 95
10, 39095, Note_on_c, 8, 59, 0
10, 39096, Note_on_c, 8, 62, 95
10, 39101, Note_on_c, 8, 62, 0
10, 39102, Note_on_c, 8, 59, 95
10, 39107, Note_on_c, 8, 59, 0
10, 39108, Note_on_c, 8, 57, 95
10, 39113, Note_on_c, 8, 57, 0
10, 39114, Note_on_c, 8, 59, 95
10, 39119, Note_on_c, 8, 59, 0
10, 39120, Note_on_c, 8, 62, 95
10, 39125, Note_on_c, 8, 62, 0
10, 39126, Note_on_c, 8, 59, 95
10, 39131, Note_on_c, 8, 59, 0
10, 39132, Note_on_c, 8, 57, 95
10, 39137, Note_on_c, 8, 57, 0
10, 39138, Note_on_c, 8, 59, 95
10, 39143, Note_on_c, 8, 59, 0
10, 39144, Note_on_c, 8, 62, 95
10, 39149, Note_on_c, 8, 62, 0
10, 39150, Note_on_c, 8, 59, 95
10, 39155, Note_on_c, 8, 59, 0
10, 39156, Note_on_c, 8, 57, 95
10, 39161, Note_on_c, 8, 57, 0
10, 39162, Note_on_c, 8, 59, 95
10, 39167, Note_on_c, 8, 59, 0
10, 39168, Note_on_c, 8, 62, 95
10, 39173, Note_on_c, 8, 62, 0
10, 39174, Note_on_c, 8, 59, 95
10, 39179, Note_on_c, 8, 59, 0
10, 39180, Note_on_c, 8, 57, 95
10, 39185, Note_on_c, 8, 57, 0
10, 39186, Note_on_c, 8, 59, 95
10, 39191, Note_on_c, 8, 59, 0
10, 39192, Note_on_c, 8, 62, 95
10, 39197, Note_on_c, 8, 62, 0
10, 39198, Note_on_c, 8, 59, 95
10, 39203, Note_on_c, 8, 59, 0
10, 39204, Note_on_c, 8, 57, 95
10, 39209, Note_on_c, 8, 57, 0
10, 39210, Note_on_c, 8, 59, 95
10, 39215, Note_on_c, 8, 59, 0
10, 39216, Note_on_c, 8, 62, 95
10, 39221, Note_on_c, 8, 62, 0
10, 39222, Note_on_c, 8, 59, 95
10, 39227, Note_on_c, 8, 59, 0
10, 39228, Note_on_c, 8, 57, 95
10, 39233, Note_on_c, 8, 57, 0
10, 39234, Note_on_c, 8, 59, 95
10, 39239, Note_on_c, 8, 59, 0
10, 39240, Note_on_c, 8, 62, 95
10, 39245, Note_on_c, 8, 62, 0
10, 39246, Note_on_c, 8, 59, 95
10, 39251, Note_on_c, 8, 59, 0
10, 39252, Note_on_c, 8, 57, 95
10, 39257, Note_on_c, 8, 57, 0
10, 39258, Note_on_c, 8, 59, 95
10, 39263, Note_on_c, 8, 59, 0
10, 39264, Note_on_c, 8, 64, 95
10, 39269, Note_on_c, 8, 64, 0
10, 39270, Note_on_c, 8, 61, 95
10, 39275, Note_on_c, 8, 61, 0
10, 39276, Note_on_c, 8, 59, 95
10, 39281, Note_on_c, 8, 59, 0
10, 39282, Note_on_c, 8, 61, 95
10, 39287, Note_on_c, 8, 61, 0
10, 39288, Note_on_c, 8, 64, 95
10, 39293, Note_on_c, 8, 64, 0
10, 39294, Note_on_c, 8, 61, 95
10, 39299, Note_on_c, 8, 61, 0
10, 39300, Note_on_c, 8, 59, 95
10, 39305, Note_on_c, 8, 59, 0
10, 39306, Note_on_c, 8, 61, 95
10, 39311, Note_on_c, 8, 61, 0
10, 39312, Note_on_c, 8, 64, 95
10, 39317, Note_on_c, 8, 64, 0
10, 39318, Note_on_c, 8, 61, 95
10, 39323, Note_on_c, 8, 61, 0
10, 39324, Note_on_c, 8, 59, 95
10, 39329, Note_on_c, 8, 59, 0
10, 39330, Note_on_c, 8, 61, 95
10, 39335, Note_on_c, 8, 61, 0
10, 39336, Note_on_c, 8, 64, 95
10, 39341, Note_on_c, 8, 64, 0
10, 39342, Note_on_c, 8, 61, 95
10, 39347, Note_on_c, 8, 61, 0
10, 39348, Note_on_c, 8, 59, 95
10, 39353, Note_on_c, 8, 59, 0
10, 39354, Note_on_c, 8, 61, 95
10, 39359, Note_on_c, 8, 61, 0
10, 39360, Note_on_c, 8, 64, 95
10, 39365, Note_on_c, 8, 64, 0
10, 39366, Note_on_c, 8, 61, 95
10, 39371, Note_on_c, 8, 61, 0
10, 39372, Note_on_c, 8, 59, 95
10, 39377, Note_on_c, 8, 59, 0
10, 39378, Note_on_c, 8, 61, 95
10, 39383, Note_on_c, 8, 61, 0
10, 39384, Note_on_c, 8, 64, 95
10, 39389, Note_on_c, 8, 64, 0
10, 39390, Note_on_c, 8, 61, 95
10, 39395, Note_on_c, 8, 61, 0
10, 39396, Note_on_c, 8, 59, 95
10, 39401, Note_on_c, 8, 59, 0
10, 39402, Note_on_c, 8, 61, 95
10, 39407, Note_on_c, 8, 61, 0
10, 39408, Note_on_c, 8, 64, 95
10, 39413, Note_on_c, 8, 64, 0
10, 39414, Note_on_c, 8, 61, 95
10, 39419, Note_on_c, 8, 61, 0
10, 39420, Note_on_c, 8, 59, 95
10, 39425, Note_on_c, 8, 59, 0
10, 39426, Note_on_c, 8, 61, 95
10, 39431, Note_on_c, 8, 61, 0
10, 39432, Note_on_c, 8, 64, 95
10, 39437, Note_on_c, 8, 64, 0
10, 39438, Note_on_c, 8, 61, 95
10, 39443, Note_on_c, 8, 61, 0
10, 39444, Note_on_c, 8, 59, 95
10, 39449, Note_on_c, 8, 59, 0
10, 39450, Note_on_c, 8, 61, 95
10, 39455, Note_on_c, 8, 61, 0
10, 39456, Note_on_c, 8, 65, 95
10, 39461, Note_on_c, 8, 65, 0
10, 39462, Note_on_c, 8, 62, 95
10, 39467, Note_on_c, 8, 62, 0
10, 39468, Note_on_c, 8, 61, 95
10, 39473, Note_on_c, 8, 61, 0
10, 39474, Note_on_c, 8, 62, 95
10, 39479, Note_on_c, 8, 62, 0
10, 39480, Note_on_c, 8, 65, 95
10, 39485, Note_on_c, 8, 65, 0
10, 39486, Note_on_c, 8, 62, 95
10, 39491, Note_on_c, 8, 62, 0
10, 39492, Note_on_c, 8, 61, 95
10, 39497, Note_on_c, 8, 61, 0
10, 39498, Note_on_c, 8, 62, 95
10, 39503, Note_on_c, 8, 62, 0
10, 39504, Note_on_c, 8, 65, 95
10, 39509, Note_on_c, 8, 65, 0
10, 39510, Note_on_c, 8, 62, 95
10, 39515, Note_on_c, 8, 62, 0
10, 39516, Note_on_c, 8, 61, 95
10, 39521, Note_on_c, 8, 61, 0
10, 39522, Note_on_c, 8, 62, 95
10, 39527, Note_on_c, 8, 62, 0
10, 39528, Note_on_c, 8, 65, 95
10, 39533, Note_on_c, 8, 65, 0
10, 39534, Note_on_c, 8, 62, 95
10, 39539, Note_on_c, 8, 62, 0
10, 39540, Note_on_c, 8, 61, 95
10, 39545, Note_on_c, 8, 61, 0
10, 39546, Note_on_c, 8, 62, 95
10, 39551, Note_on_c, 8, 62, 0
10, 39552, Note_on_c, 8, 65, 95
10, 39557, Note_on_c, 8, 65, 0
10, 39558, Note_on_c, 8, 62, 95
10, 39563, Note_on_c, 8, 62, 0
10, 39564, Note_on_c, 8, 61, 95
10, 39569, Note_on_c, 8, 61, 0
10, 39570, Note_on_c, 8, 62, 95
10, 39575, Note_on_c, 8, 62, 0
10, 39576, Note_on_c, 8, 65, 95
10, 39581, Note_on_c, 8, 65, 0
10, 39582, Note_on_c, 8, 62, 95
10, 39587, Note_on_c, 8, 62, 0
10, 39588, Note_on_c, 8, 61, 95
10, 39593, Note_on_c, 8, 61, 0
10, 39594, Note_on_c, 8, 62, 95
10, 39599, Note_on_c, 8, 62, 0
10, 39600, Note_on_c, 8, 65, 95
10, 39605, Note_on_c, 8, 65, 0
10, 39606, Note_on_c, 8, 62, 95
10, 39611, Note_on_c, 8, 62, 0
10, 39612, Note_on_c, 8, 61, 95
10, 39617, Note_on_c, 8, 61, 0
10, 39618, Note_on_c, 8, 62, 95
10, 39623, Note_on_c, 8, 62, 0
10, 39624, Note_on_c, 8, 65, 95
10, 39629, Note_on_c, 8, 65, 0
10, 39630, Note_on_c, 8, 62, 95
10, 39635, Note_on_c, 8, 62, 0
10, 39636, Note_on_c, 8, 61, 95
10, 39641, Note_on_c, 8, 61, 0
10, 39642, Note_on_c, 8, 62, 95
10, 39647, Note_on_c, 8, 62, 0
10, 39648, Note_on_c, 8, 67, 95
10, 39653, Note_on_c, 8, 67, 0
10, 39654, Note_on_c, 8, 64, 95
10, 39659, Note_on_c, 8, 64, 0
10, 39660, Note_on_c, 8, 63, 95
10, 39665, Note_on_c, 8, 63, 0
10, 39666, Note_on_c, 8, 64, 95
10, 39671, Note_on_c, 8, 64, 0
10, 39672, Note_on_c, 8, 67, 95
10, 39677, Note_on_c, 8, 67, 0
10, 39678, Note_on_c, 8, 64, 95
10, 39683, Note_on_c, 8, 64, 0
10, 39684, Note_on_c, 8, 63, 95
10, 39689, Note_on_c, 8, 63, 0
10, 39690, Note_on_c, 8, 64, 95
10, 39695, Note_on_c, 8, 64, 0
10, 39696, Note_on_c, 8, 67, 95
10, 39701, Note_on_c, 8, 67, 0
10, 39702, Note_on_c, 8, 64, 95
10, 39707, Note_on_c, 8, 64, 0
10, 39708, Note_on_c, 8, 63, 95
10, 39713, Note_on_c, 8, 63, 0
10, 39714, Note_on_c, 8, 64, 95
10, 39719, Note_on_c, 8, 64, 0
10, 39720, Note_on_c, 8, 67, 95
10, 39725, Note_on_c, 8, 67, 0
10, 39726, Note_on_c, 8, 64, 95
10, 39731, Note_on_c, 8, 64, 0
10, 39732, Note_on_c, 8, 63, 95
10, 39737, Note_on_c, 8, 63, 0
10, 39738, Note_on_c, 8, 64, 95
10, 39743, Note_on_c, 8, 64, 0
10, 39744, Note_on_c, 8, 67, 95
10, 39749, Note_on_c, 8, 67, 0
10, 39750, Note_on_c, 8, 64, 95
10, 39755, Note_on_c, 8, 64, 0
10, 39756, Note_on_c, 8, 63, 95
10, 39761, Note_on_c, 8, 63, 0
10, 39762, Note_on_c, 8, 64, 95
10, 39767, Note_on_c, 8, 64, 0
10, 39768, Note_on_c, 8, 67, 95
10, 39773, Note_on_c, 8, 67, 0
10, 39774, Note_on_c, 8, 64, 95
10, 39779, Note_on_c, 8, 64, 0
10, 39780, Note_on_c, 8, 63, 95
10, 39785, Note_on_c, 8, 63, 0
10, 39786, Note_on_c, 8, 64, 95
10, 39791, Note_on_c, 8, 64, 0
10, 39792, Note_on_c, 8, 67, 95
10, 39797, Note_on_c, 8, 67, 0
10, 39798, Note_on_c, 8, 64, 95
10, 39803, Note_on_c, 8, 64, 0
10, 39804, Note_on_c, 8, 63, 95
10, 39809, Note_on_c, 8, 63, 0
10, 39810, Note_on_c, 8, 64, 95
10, 39815, Note_on_c, 8, 64, 0
10, 39816, Note_on_c, 8, 67, 95
10, 39821, Note_on_c, 8, 67, 0
10, 39822, Note_on_c, 8, 64, 95
10, 39827, Note_on_c, 8, 64, 0
10, 39828, Note_on_c, 8, 63, 95
10, 39833, Note_on_c, 8, 63, 0
10, 39834, Note_on_c, 8, 64, 95
10, 39839, Note_on_c, 8, 64, 0
10, 39840, Note_on_c, 8, 69, 95
10, 39845, Note_on_c, 8, 69, 0
10, 39846, Note_on_c, 8, 65, 95
10, 39851, Note_on_c, 8, 65, 0
10, 39852, Note_on_c, 8, 64, 95
10, 39857, Note_on_c, 8, 64, 0
10, 39858, Note_on_c, 8, 65, 95
10, 39863, Note_on_c, 8, 65, 0
10, 39864, Note_on_c, 8, 69, 95
10, 39869, Note_on_c, 8, 69, 0
10, 39870, Note_on_c, 8, 65, 95
10, 39875, Note_on_c, 8, 65, 0
10, 39876, Note_on_c, 8, 64, 95
10, 39881, Note_on_c, 8, 64, 0
10, 39882, Note_on_c, 8, 65, 95
10, 39887, Note_on_c, 8, 65, 0
10, 39888, Note_on_c, 8, 69, 95
10, 39893, Note_on_c, 8, 69, 0
10, 39894, Note_on_c, 8, 65, 95
10, 39899, Note_on_c, 8, 65, 0
10, 39900, Note_on_c, 8, 64, 95
10, 39905, Note_on_c, 8, 64, 0
10, 39906, Note_on_c, 8, 65, 95
10, 39911, Note_on_c, 8, 65, 0
10, 39912, Note_on_c, 8, 69, 95
10, 39917, Note_on_c, 8, 69, 0
10, 39918, Note_on_c, 8, 65, 95
10, 39923, Note_on_c, 8, 65, 0
10, 39924, Note_on_c, 8, 64, 95
10, 39929, Note_on_c, 8, 64, 0
10, 39930, Note_on_c, 8, 65, 95
10, 39935, Note_on_c, 8, 65, 0
10, 39936, Note_on_c, 8, 69, 95
10, 39941, Note_on_c, 8, 69, 0
10, 39942, Note_on_c, 8, 65, 95
10, 39947, Note_on_c, 8, 65, 0
10, 39948, Note_on_c, 8, 64, 95
10, 39953, Note_on_c, 8, 64, 0
10, 39954, Note_on_c, 8, 65, 95
10, 39959, Note_on_c, 8, 65, 0
10, 39960, Note_on_c, 8, 69, 95
10, 39965, Note_on_c, 8, 69, 0
10, 39966, Note_on_c, 8, 65, 95
10, 39971, Note_on_c, 8, 65, 0
10, 39972, Note_on_c, 8, 64, 95
10, 39977, Note_on_c, 8, 64, 0
10, 39978, Note_on_c, 8, 65, 95
10, 39983, Note_on_c, 8, 65, 0
10, 39984, Note_on_c, 8, 69, 95
10, 39989, Note_on_c, 8, 69, 0
10, 39990, Note_on_c, 8, 65, 95
10, 39995, Note_on_c, 8, 65, 0
10, 39996, Note_on_c, 8, 64, 95
10, 40001, Note_on_c, 8, 64, 0
10, 40002, Note_on_c, 8, 65, 95
10, 40007, Note_on_c, 8, 65, 0
10, 40008, Note_on_c, 8, 69, 95
10, 40013, Note_on_c, 8, 69, 0
10, 40014, Note_on_c, 8, 65, 95
10, 40019, Note_on_c, 8, 65, 0
10, 40020, Note_on_c, 8, 64, 95
10, 40025, Note_on_c, 8, 64, 0
10, 40026, Note_on_c, 8, 65, 95
10, 40031, Note_on_c, 8, 65, 0
10, 40032, Note_on_c, 8, 70, 95
10, 40039, Note_on_c, 8, 70, 0
10, 40040, Note_on_c, 8, 67, 95
10, 40047, Note_on_c, 8, 67, 0
10, 40048, Note_on_c, 8, 65, 95
10, 40055, Note_on_c, 8, 65, 0
10, 40056, Note_on_c, 8, 64, 95
10, 40063, Note_on_c, 8, 64, 0
10, 40064, Note_on_c, 8, 65, 95
10, 40071, Note_on_c, 8, 65, 0
10, 40072, Note_on_c, 8, 67, 95
10, 40079, Note_on_c, 8, 67, 0
10, 40080, Note_on_c, 8, 70, 95
10, 40087, Note_on_c, 8, 70, 0
10, 40088, Note_on_c, 8, 67, 95
10, 40095, Note_on_c, 8, 67, 0
10, 40096, Note_on_c, 8, 65, 95
10, 40103, Note_on_c, 8, 65, 0
10, 40104, Note_on_c, 8, 64, 95
10, 40111, Note_on_c, 8, 64, 0
10, 40112, Note_on_c, 8, 65, 95
10, 40119, Note_on_c, 8, 65, 0
10, 40120, Note_on_c, 8, 67, 95
10, 40127, Note_on_c, 8, 67, 0
10, 40128, Note_on_c, 8, 70, 95
10, 40135, Note_on_c, 8, 70, 0
10, 40136, Note_on_c, 8, 67, 95
10, 40143, Note_on_c, 8, 67, 0
10, 40144, Note_on_c, 8, 65, 95
10, 40151, Note_on_c, 8, 65, 0
10, 40152, Note_on_c, 8, 64, 95
10, 40159, Note_on_c, 8, 64, 0
10, 40160, Note_on_c, 8, 65, 95
10, 40167, Note_on_c, 8, 65, 0
10, 40168, Note_on_c, 8, 67, 95
10, 40175, Note_on_c, 8, 67, 0
10, 40176, Note_on_c, 8, 70, 95
10, 40183, Note_on_c, 8, 70, 0
10, 40184, Note_on_c, 8, 67, 95
10, 40191, Note_on_c, 8, 67, 0
10, 40192, Note_on_c, 8, 65, 95
10, 40199, Note_on_c, 8, 65, 0
10, 40200, Note_on_c, 8, 64, 95
10, 40207, Note_on_c, 8, 64, 0
10, 40208, Note_on_c, 8, 65, 95
10, 40215, Note_on_c, 8, 65, 0
10, 40216, Note_on_c, 8, 67, 95
10, 40223, Note_on_c, 8, 67, 0
10, 40224, Note_on_c, 8, 69, 95
10, 40231, Note_on_c, 8, 69, 0
10, 40232, Note_on_c, 8, 65, 95
10, 40239, Note_on_c, 8, 65, 0
10, 40240, Note_on_c, 8, 64, 95
10, 40247, Note_on_c, 8, 64, 0
10, 40248, Note_on_c, 8, 65, 95
10, 40255, Note_on_c, 8, 65, 0
10, 40256, Note_on_c, 8, 67, 95
10, 40263, Note_on_c, 8, 67, 0
10, 40264, Note_on_c, 8, 69, 95
10, 40271, Note_on_c, 8, 69, 0
10, 40272, Note_on_c, 8, 74, 95
10, 40279, Note_on_c, 8, 74, 0
10, 40280, Note_on_c, 8, 69, 95
10, 40287, Note_on_c, 8, 69, 0
10, 40288, Note_on_c, 8, 67, 95
10, 40295, Note_on_c, 8, 67, 0
10, 40296, Note_on_c, 8, 65, 95
10, 40303, Note_on_c, 8, 65, 0
10, 40304, Note_on_c, 8, 67, 95
10, 40311, Note_on_c, 8, 67, 0
10, 40312, Note_on_c, 8, 69, 95
10, 40319, Note_on_c, 8, 69, 0
10, 40320, Note_on_c, 8, 74, 95
10, 40327, Note_on_c, 8, 74, 0
10, 40328, Note_on_c, 8, 69, 95
10, 40335, Note_on_c, 8, 69, 0
10, 40336, Note_on_c, 8, 67, 95
10, 40343, Note_on_c, 8, 67, 0
10, 40344, Note_on_c, 8, 65, 95
10, 40351, Note_on_c, 8, 65, 0
10, 40352, Note_on_c, 8, 67, 95
10, 40359, Note_on_c, 8, 67, 0
10, 40360, Note_on_c, 8, 69, 95
10, 40367, Note_on_c, 8, 69, 0
10, 40368, Note_on_c, 8, 74, 95
10, 40375, Note_on_c, 8, 74, 0
10, 40376, Note_on_c, 8, 69, 95
10, 40383, Note_on_c, 8, 69, 0
10, 40384, Note_on_c, 8, 67, 95
10, 40391, Note_on_c, 8, 67, 0
10, 40392, Note_on_c, 8, 65, 95
10, 40399, Note_on_c, 8, 65, 0
10, 40400, Note_on_c, 8, 67, 95
10, 40407, Note_on_c, 8, 67, 0
10, 40408, Note_on_c, 8, 69, 95
10, 40415, Note_on_c, 8, 69, 0
10, 40416, Note_on_c, 8, 74, 95
10, 40423, Note_on_c, 8, 74, 0
10, 40424, Note_on_c, 8, 65, 95
10, 40431, Note_on_c, 8, 65, 0
10, 40432, Note_on_c, 8, 64, 95
10, 40439, Note_on_c, 8, 64, 0
10, 40440, Note_on_c, 8, 62, 95
10, 40447, Note_on_c, 8, 62, 0
10, 40448, Note_on_c, 8, 64, 95
10, 40455, Note_on_c, 8, 64, 0
10, 40456, Note_on_c, 8, 65, 95
10, 40463, Note_on_c, 8, 65, 0
10, 40464, Note_on_c, 8, 74, 95
10, 40471, Note_on_c, 8, 74, 0
10, 40472, Note_on_c, 8, 65, 95
10, 40479, Note_on_c, 8, 65, 0
10, 40480, Note_on_c, 8, 64, 95
10, 40487, Note_on_c, 8, 64, 0
10, 40488, Note_on_c, 8, 62, 95
10, 40495, Note_on_c, 8, 62, 0
10, 40496, Note_on_c, 8, 64, 95
10, 40503, Note_on_c, 8, 64, 0
10, 40504, Note_on_c, 8, 65, 95
10, 40511, Note_on_c, 8, 65, 0
10, 40512, Note_on_c, 8, 74, 95
10, 40519, Note_on_c, 8, 74, 0
10, 40520, Note_on_c, 8, 65, 95
10, 40527, Note_on_c, 8, 65, 0
10, 40528, Note_on_c, 8, 64, 95
10, 40535, Note_on_c, 8, 64, 0
10, 40536, Note_on_c, 8, 62, 95
10, 40543, Note_on_c, 8, 62, 0
10, 40544, Note_on_c, 8, 64, 95
10, 40551, Note_on_c, 8, 64, 0
10, 40552, Note_on_c, 8, 65, 95
10, 40559, Note_on_c, 8, 65, 0
10, 40560, Note_on_c, 8, 74, 95
10, 40567, Note_on_c, 8, 74, 0
10, 40568, Note_on_c, 8, 65, 95
10, 40575, Note_on_c, 8, 65, 0
10, 40576, Note_on_c, 8, 64, 95
10, 40583, Note_on_c, 8, 64, 0
10, 40584, Note_on_c, 8, 62, 95
10, 40591, Note_on_c, 8, 62, 0
10, 40592, Note_on_c, 8, 64, 95
10, 40599, Note_on_c, 8, 64, 0
10, 40600, Note_on_c, 8, 65, 95
10, 40607, Note_on_c, 8, 65, 0
10, 40608, Note_on_c, 8, 74, 95
10, 40615, Note_on_c, 8, 74, 0
10, 40616, Note_on_c, 8, 67, 95
10, 40623, Note_on_c, 8, 67, 0
10, 40624, Note_on_c, 8, 66, 95
10, 40631, Note_on_c, 8, 66, 0
10, 40632, Note_on_c, 8, 64, 95
10, 40639, Note_on_c, 8, 64, 0
10, 40640, Note_on_c, 8, 66, 95
10, 40647, Note_on_c, 8, 66, 0
10, 40648, Note_on_c, 8, 67, 95
10, 40655, Note_on_c, 8, 67, 0
10, 40656, Note_on_c, 8, 74, 95
10, 40663, Note_on_c, 8, 74, 0
10, 40664, Note_on_c, 8, 67, 95
10, 40671, Note_on_c, 8, 67, 0
10, 40672, Note_on_c, 8, 66, 95
10, 40679, Note_on_c, 8, 66, 0
10, 40680, Note_on_c, 8, 64, 95
10, 40687, Note_on_c, 8, 64, 0
10, 40688, Note_on_c, 8, 66, 95
10, 40695, Note_on_c, 8, 66, 0
10, 40696, Note_on_c, 8, 67, 95
10, 40703, Note_on_c, 8, 67, 0
10, 40704, Note_on_c, 8, 74, 95
10, 40711, Note_on_c, 8, 74, 0
10, 40712, Note_on_c, 8, 67, 95
10, 40719, Note_on_c, 8, 67, 0
10, 40720, Note_on_c, 8, 66, 95
10, 40727, Note_on_c, 8, 66, 0
10, 40728, Note_on_c, 8, 64, 95
10, 40735, Note_on_c, 8, 64, 0
10, 40736, Note_on_c, 8, 66, 95
10, 40743, Note_on_c, 8, 66, 0
10, 40744, Note_on_c, 8, 67, 95
10, 40751, Note_on_c, 8, 67, 0
10, 40752, Note_on_c, 8, 74, 95
10, 40759, Note_on_c, 8, 74, 0
10, 40760, Note_on_c, 8, 67, 95
10, 40767, Note_on_c, 8, 67, 0
10, 40768, Note_on_c, 8, 66, 95
10, 40775, Note_on_c, 8, 66, 0
10, 40776, Note_on_c, 8, 64, 95
10, 40783, Note_on_c, 8, 64, 0
10, 40784, Note_on_c, 8, 66, 95
10, 40791, Note_on_c, 8, 66, 0
10, 40792, Note_on_c, 8, 67, 95
10, 40799, Note_on_c, 8, 67, 0
10, 40800, Note_on_c, 8, 73, 95
10, 40807, Note_on_c, 8, 73, 0
10, 40808, Note_on_c, 8, 67, 95
10, 40815, Note_on_c, 8, 67, 0
10, 40816, Note_on_c, 8, 66, 95
10, 40823, Note_on_c, 8, 66, 0
10, 40824, Note_on_c, 8, 64, 95
10, 40831, Note_on_c, 8, 64, 0
10, 40832, Note_on_c, 8, 66, 95
10, 40839, Note_on_c, 8, 66, 0
10, 40840, Note_on_c, 8, 67, 95
10, 40847, Note_on_c, 8, 67, 0
10, 40848, Note_on_c, 8, 73, 95
10, 40855, Note_on_c, 8, 73, 0
10, 40856, Note_on_c, 8, 67, 95
10, 40863, Note_on_c, 8, 67, 0
10, 40864, Note_on_c, 8, 66, 95
10, 40871, Note_on_c, 8, 66, 0
10, 40872, Note_on_c, 8, 64, 95
10, 40879, Note_on_c, 8, 64, 0
10, 40880, Note_on_c, 8, 66, 95
10, 40887, Note_on_c, 8, 66, 0
10, 40888, Note_on_c, 8, 67, 95
10, 40895, Note_on_c, 8, 67, 0
10, 40896, Note_on_c, 8, 73, 95
10, 40903, Note_on_c, 8, 73, 0
10, 40904, Note_on_c, 8, 67, 95
10, 40911, Note_on_c, 8, 67, 0
10, 40912, Note_on_c, 8, 66, 95
10, 40919, Note_on_c, 8, 66, 0
10, 40920, Note_on_c, 8, 64, 95
10, 40927, Note_on_c, 8, 64, 0
10, 40928, Note_on_c, 8, 66, 95
10, 40935, Note_on_c, 8, 66, 0
10, 40936, Note_on_c, 8, 67, 95
10, 40943, Note_on_c, 8, 67, 0
10, 40944, Note_on_c, 8, 73, 95
10, 40951, Note_on_c, 8, 73, 0
10, 40952, Note_on_c, 8, 67, 95
10, 40959, Note_on_c, 8, 67, 0
10, 40960, Note_on_c, 8, 66, 95
10, 40967, Note_on_c, 8, 66, 0
10, 40968, Note_on_c, 8, 64, 95
10, 40975, Note_on_c, 8, 64, 0
10, 40976, Note_on_c, 8, 66, 95
10, 40983, Note_on_c, 8, 66, 0
10, 40984, Note_on_c, 8, 67, 95
10, 40991, Note_on_c, 8, 67, 0
10, 40992, Note_on_c, 8, 74, 95
10, 40999, Note_on_c, 8, 74, 0
10, 41000, Note_on_c, 8, 66, 95
10, 41007, Note_on_c, 8, 66, 0
10, 41008, Note_on_c, 8, 64, 95
10, 41015, Note_on_c, 8, 64, 0
10, 41016, Note_on_c, 8, 62, 95
10, 41023, Note_on_c, 8, 62, 0
10, 41024, Note_on_c, 8, 64, 95
10, 41031, Note_on_c, 8, 64, 0
10, 41032, Note_on_c, 8, 66, 95
10, 41039, Note_on_c, 8, 66, 0
10, 41040, Note_on_c, 8, 67, 95
10, 41047, Note_on_c, 8, 67, 0
10, 41048, Note_on_c, 8, 66, 95
10, 41055, Note_on_c, 8, 66, 0
10, 41056, Note_on_c, 8, 67, 95
10, 41063, Note_on_c, 8, 67, 0
10, 41064, Note_on_c, 8, 69, 95
10, 41071, Note_on_c, 8, 69, 0
10, 41072, Note_on_c, 8, 67, 95
10, 41079, Note_on_c, 8, 67, 0
10, 41080, Note_on_c, 8, 69, 95
10, 41087, Note_on_c, 8, 69, 0
10, 41088, Note_on_c, 8, 71, 95
10, 41098, Note_on_c, 8, 71, 0
10, 41100, Note_on_c, 8, 72, 95
10, 41110, Note_on_c, 8, 72, 0
10, 41112, Note_on_c, 8, 71, 95
10, 41122, Note_on_c, 8, 71, 0
10, 41124, Note_on_c, 8, 69, 95
10, 41134, Note_on_c, 8, 69, 0
10, 41136, Note_on_c, 8, 67, 95
10, 41146, Note_on_c, 8, 67, 0
10, 41148, Note_on_c, 8, 66, 95
10, 41158, Note_on_c, 8, 66, 0
10, 41160, Note_on_c, 8, 64, 95
10, 41170, Note_on_c, 8, 64, 0
10, 41172, Note_on_c, 8, 62, 95
10, 41182, Note_on_c, 8, 62, 0
10, 41184, Note_on_c, 8, 64, 95
10, 41194, Note_on_c, 8, 64, 0
10, 41196, Note_on_c, 8, 67, 95
10, 41206, Note_on_c, 8, 67, 0
10, 41208, Note_on_c, 8, 66, 95
10, 41218, Note_on_c, 8, 66, 0
10, 41220, Note_on_c, 8, 69, 95
10, 41230, Note_on_c, 8, 69, 0
10, 41232, Note_on_c, 8, 67, 95
10, 41242, Note_on_c, 8, 67, 0
10, 41244, Note_on_c, 8, 66, 95
10, 41254, Note_on_c, 8, 66, 0
10, 41256, Note_on_c, 8, 67, 95
10, 41266, Note_on_c, 8, 67, 0
10, 41268, Note_on_c, 8, 64, 95
10, 41278, Note_on_c, 8, 64, 0
10, 41280, Note_on_c, 8, 69, 95
10, 41311, Note_on_c, 8, 69, 0
10, 41316, Note_on_c, 8, 67, 95
10, 41326, Note_on_c, 8, 67, 0
10, 41328, Note_on_c, 8, 66, 95
10, 41338, Note_on_c, 8, 66, 0
10, 41340, Note_on_c, 8, 64, 95
10, 41350, Note_on_c, 8, 64, 0
10, 41352, Note_on_c, 8, 62, 95
10, 41362, Note_on_c, 8, 62, 0
10, 41364, Note_on_c, 8, 61, 95
10, 41374, Note_on_c, 8, 61, 0
10, 41376, Note_on_c, 8, 62, 95
10, 41386, Note_on_c, 8, 62, 0
10, 41388, Note_on_c, 8, 61, 95
10, 41398, Note_on_c, 8, 61, 0
10, 41400, Note_on_c, 8, 59, 95
10, 41410, Note_on_c, 8, 59, 0
10, 41412, Note_on_c, 8, 62, 95
10, 41422, Note_on_c, 8, 62, 0
10, 41424, Note_on_c, 8, 66, 95
10, 41434, Note_on_c, 8, 66, 0
10, 41436, Note_on_c, 8, 69, 95
10, 41446, Note_on_c, 8, 69, 0
10, 41448, Note_on_c, 8, 67, 95
10, 41458, Note_on_c, 8, 67, 0
10, 41460, Note_on_c, 8, 66, 95
10, 41470, Note_on_c, 8, 66, 0
10, 41472, Note_on_c, 8, 67, 95
10, 41482, Note_on_c, 8, 67, 0
10, 41484, Note_on_c, 8, 66, 95
10, 41494, Note_on_c, 8, 66, 0
10, 41496, Note_on_c, 8, 64, 95
10, 41506, Note_on_c, 8, 64, 0
10, 41508, Note_on_c, 8, 67, 95
10, 41518, Note_on_c, 8, 67, 0
10, 41520, Note_on_c, 8, 71, 95
10, 41530, Note_on_c, 8, 71, 0
10, 41532, Note_on_c, 8, 74, 95
10, 41542, Note_on_c, 8, 74, 0
10, 41544, Note_on_c, 8, 73, 95
10, 41554, Note_on_c, 8, 73, 0
10, 41556, Note_on_c, 8, 71, 95
10, 41566, Note_on_c, 8, 71, 0
10, 41568, Note_on_c, 8, 73, 95
10, 41578, Note_on_c, 8, 73, 0
10, 41580, Note_on_c, 8, 74, 95
10, 41590, Note_on_c, 8, 74, 0
10, 41592, Note_on_c, 8, 76, 95
10, 41602, Note_on_c, 8, 76, 0
10, 41604, Note_on_c, 8, 73, 95
10, 41614, Note_on_c, 8, 73, 0
10, 41616, Note_on_c, 8, 67, 95
10, 41626, Note_on_c, 8, 67, 0
10, 41628, Note_on_c, 8, 71, 95
10, 41638, Note_on_c, 8, 71, 0
10, 41640, Note_on_c, 8, 69, 95
10, 41650, Note_on_c, 8, 69, 0
10, 41652, Note_on_c, 8, 67, 95
10, 41662, Note_on_c, 8, 67, 0
10, 41664, Note_on_c, 8, 66, 95
10, 41674, Note_on_c, 8, 66, 0
10, 41676, Note_on_c, 8, 74, 95
10, 41686, Note_on_c, 8, 74, 0
10, 41688, Note_on_c, 8, 73, 95
10, 41698, Note_on_c, 8, 73, 0
10, 41700, Note_on_c, 8, 71, 95
10, 41710, Note_on_c, 8, 71, 0
10, 41712, Note_on_c, 8, 69, 95
10, 41722, Note_on_c, 8, 69, 0
10, 41724, Note_on_c, 8, 67, 95
10, 41734, Note_on_c, 8, 67, 0
10, 41736, Note_on_c, 8, 66, 95
10, 41746, Note_on_c, 8, 66, 0
10, 41748, Note_on_c, 8, 67, 95
10, 41758, Note_on_c, 8, 67, 0
10, 41760, Note_on_c, 8, 69, 95
10, 41770, Note_on_c, 8, 69, 0
10, 41772, Note_on_c, 8, 67, 95
10, 41782, Note_on_c, 8, 67, 0
10, 41784, Note_on_c, 8, 69, 95
10, 41794, Note_on_c, 8, 69, 0
10, 41796, Note_on_c, 8, 71, 95
10, 41806, Note_on_c, 8, 71, 0
10, 41808, Note_on_c, 8, 73, 95
10, 41818, Note_on_c, 8, 73, 0
10, 41820, Note_on_c, 8, 74, 95
10, 41830, Note_on_c, 8, 74, 0
10, 41832, Note_on_c, 8, 76, 95
10, 41842, Note_on_c, 8, 76, 0
10, 41844, Note_on_c, 8, 73, 95
10, 41854, Note_on_c, 8, 73, 0
10, 41856, Note_on_c, 8, 74, 95
10, 41887, Note_on_c, 8, 74, 0
10, 41892, Note_on_c, 8, 76, 95
10, 41902, Note_on_c, 8, 76, 0
10, 41904, Note_on_c, 8, 76, 95
10, 41935, Note_on_c, 8, 76, 0
10, 41940, Note_on_c, 8, 74, 95
10, 41950, Note_on_c, 8, 74, 0
10, 41952, Control_c, 8, 10, 90
10, 41952, Control_c, 8, 7, 96
10, 41952, Pitch_bend_c, 8, 8192
10, 41952, Control_c, 8, 1, 0
10, 41952, Program_c, 8, 16
10, 41952, Control_c, 8, 64, 0
10, 41952, Note_on_c, 8, 69, 79
10, 41952, Note_on_c, 8, 62, 79
10, 41952, Note_on_c, 8, 66, 79
10, 41952, Note_on_c, 8, 74, 79
10, 42000, Note_on_c, 8, 62, 0
10, 42000, Note_on_c, 8, 66, 0
10, 42000, Note_on_c, 8, 69, 0
10, 42000, Note_on_c, 8, 74, 0
10, 43416, Note_on_c, 8, 66, 79
10, 43416, Note_on_c, 8, 71, 79
10, 43416, Note_on_c, 8, 74, 79
10, 43440, Note_on_c, 8, 66, 0
10, 43440, Note_on_c, 8, 71, 0
10, 43440, Note_on_c, 8, 74, 0
10, 43440, Note_on_c, 8, 64, 79
10, 43440, Note_on_c, 8, 69, 79
10, 43440, Note_on_c, 8, 74, 79
10, 43464, Note_on_c, 8, 64, 0
10, 43464, Note_on_c, 8, 69, 0
10, 43464, Note_on_c, 8, 74, 0
10, 43464, Note_on_c, 8, 67, 79
10, 43464, Note_on_c, 8, 69, 79
10, 43464, Note_on_c, 8, 73, 79
10, 43488, Note_on_c, 8, 67, 0
10, 43488, Note_on_c, 8, 69, 0
10, 43488, Note_on_c, 8, 73, 0
10, 43488, Control_c, 8, 10, 90
10, 43488, Control_c, 8, 7, 96
10, 43488, Pitch_bend_c, 8, 8192
10, 43488, Control_c, 8, 1, 0
10, 43488, Program_c, 8, 16
10, 43488, Control_c, 8, 64, 0
10, 43488, Note_on_c, 8, 69, 79
10, 43488, Note_on_c, 8, 66, 79
10, 43488, Note_on_c, 8, 74, 79
10, 43536, Note_on_c, 8, 66, 0
10, 43536, Note_on_c, 8, 69, 0
10, 43536, Note_on_c, 8, 74, 0
10, 43536, End_track
11, 0, Start_track
11, 0, Title_t, "Drum&SE"
11, 0, Control_c, 9, 7, 96
11, 41952, Control_c, 9, 7, 96
11, 41952, End_track
0, 0, End_of_file
