0, 0, Header, 1, 11, 120
1, 0, Start_track
1, 0, Key_signature, -3, "major"
1, 0, SMPTE_offset, 96, 0, 0, 0, 0
1, 0, Tempo, 1153846
1, 0, Time_signature, 2, 2, 24, 8
1, 0, End_track
2, 0, Start_track
2, 0, MIDI_port, 0
2, 0, Title_t, "Oboes"
2, 0, Program_c, 0, 65
2, 240, Note_on_c, 0, 75, 51
2, 240, Note_on_c, 0, 67, 51
2, 479, Note_on_c, 0, 75, 0
2, 479, Note_on_c, 0, 67, 0
2, 480, Note_on_c, 0, 68, 51
2, 480, Note_on_c, 0, 77, 51
2, 719, Note_on_c, 0, 68, 0
2, 719, Note_on_c, 0, 77, 0
2, 720, Note_on_c, 0, 77, 51
2, 720, Note_on_c, 0, 71, 51
2, 959, Note_on_c, 0, 77, 0
2, 959, Note_on_c, 0, 71, 0
2, 960, Note_on_c, 0, 72, 51
2, 960, Note_on_c, 0, 75, 51
2, 1199, Note_on_c, 0, 75, 0
2, 1200, Note_on_c, 0, 74, 51
2, 1380, Note_on_c, 0, 71, 51
2, 1409, Note_on_c, 0, 72, 0
2, 1434, Note_on_c, 0, 71, 0
2, 1439, Note_on_c, 0, 74, 0
2, 1440, Note_on_c, 0, 75, 51
2, 1440, Note_on_c, 0, 72, 51
2, 1559, Note_on_c, 0, 75, 0
2, 1559, Note_on_c, 0, 72, 0
2, 1620, Note_on_c, 0, 75, 51
2, 1620, Note_on_c, 0, 72, 51
2, 1639, Note_on_c, 0, 75, 0
2, 1639, Note_on_c, 0, 72, 0
2, 1640, Note_on_c, 0, 70, 51
2, 1640, Note_on_c, 0, 74, 51
2, 1659, Note_on_c, 0, 70, 0
2, 1659, Note_on_c, 0, 74, 0
2, 1660, Note_on_c, 0, 72, 51
2, 1660, Note_on_c, 0, 68, 51
2, 1679, Note_on_c, 0, 72, 0
2, 1679, Note_on_c, 0, 68, 0
2, 1680, Note_on_c, 0, 70, 51
2, 1680, Note_on_c, 0, 67, 51
2, 1739, Note_on_c, 0, 70, 0
2, 1739, Note_on_c, 0, 67, 0
2, 3180, Note_on_c, 0, 80, 51
2, 3180, Note_on_c, 0, 72, 51
2, 3199, Note_on_c, 0, 80, 0
2, 3199, Note_on_c, 0, 72, 0
2, 3200, Note_on_c, 0, 70, 51
2, 3200, Note_on_c, 0, 79, 51
2, 3219, Note_on_c, 0, 70, 0
2, 3219, Note_on_c, 0, 79, 0
2, 3220, Note_on_c, 0, 68, 51
2, 3220, Note_on_c, 0, 77, 51
2, 3239, Note_on_c, 0, 68, 0
2, 3239, Note_on_c, 0, 77, 0
2, 3240, Note_on_c, 0, 75, 51
2, 3240, Note_on_c, 0, 67, 51
2, 3275, Note_on_c, 0, 75, 0
2, 3275, Note_on_c, 0, 67, 0
2, 3300, Note_on_c, 0, 74, 51
2, 3300, Note_on_c, 0, 65, 51
2, 3335, Note_on_c, 0, 74, 0
2, 3335, Note_on_c, 0, 65, 0
2, 3360, Note_on_c, 0, 67, 51
2, 3360, Note_on_c, 0, 75, 51
2, 3395, Note_on_c, 0, 67, 0
2, 3395, Note_on_c, 0, 75, 0
2, 4860, Note_on_c, 0, 80, 51
2, 4860, Note_on_c, 0, 72, 51
2, 4879, Note_on_c, 0, 80, 0
2, 4879, Note_on_c, 0, 72, 0
2, 4880, Note_on_c, 0, 70, 51
2, 4880, Note_on_c, 0, 79, 51
2, 4899, Note_on_c, 0, 70, 0
2, 4899, Note_on_c, 0, 79, 0
2, 4900, Note_on_c, 0, 77, 51
2, 4900, Note_on_c, 0, 68, 51
2, 4919, Note_on_c, 0, 77, 0
2, 4919, Note_on_c, 0, 68, 0
2, 4920, Note_on_c, 0, 75, 51
2, 4920, Note_on_c, 0, 67, 51
2, 4955, Note_on_c, 0, 75, 0
2, 4955, Note_on_c, 0, 67, 0
2, 4980, Note_on_c, 0, 65, 51
2, 4980, Note_on_c, 0, 74, 51
2, 5015, Note_on_c, 0, 65, 0
2, 5015, Note_on_c, 0, 74, 0
2, 5040, Note_on_c, 0, 75, 51
2, 5040, Note_on_c, 0, 67, 51
2, 5051, Note_on_c, 0, 75, 0
2, 5051, Note_on_c, 0, 67, 0
2, 5060, Note_on_c, 0, 75, 51
2, 5060, Note_on_c, 0, 67, 51
2, 5079, Note_on_c, 0, 75, 0
2, 5079, Note_on_c, 0, 67, 0
2, 5080, Note_on_c, 0, 75, 51
2, 5080, Note_on_c, 0, 67, 51
2, 5099, Note_on_c, 0, 75, 0
2, 5099, Note_on_c, 0, 67, 0
2, 5100, Note_on_c, 0, 75, 51
2, 5100, Note_on_c, 0, 67, 51
2, 5119, Note_on_c, 0, 75, 0
2, 5119, Note_on_c, 0, 67, 0
2, 5120, Note_on_c, 0, 75, 51
2, 5120, Note_on_c, 0, 67, 51
2, 5139, Note_on_c, 0, 75, 0
2, 5139, Note_on_c, 0, 67, 0
2, 5140, Note_on_c, 0, 67, 51
2, 5140, Note_on_c, 0, 75, 51
2, 5159, Note_on_c, 0, 67, 0
2, 5159, Note_on_c, 0, 75, 0
2, 5160, Note_on_c, 0, 75, 51
2, 5160, Note_on_c, 0, 67, 51
2, 5219, Note_on_c, 0, 75, 0
2, 5219, Note_on_c, 0, 67, 0
2, 5250, Note_on_c, 0, 70, 51
2, 5250, Note_on_c, 0, 79, 51
2, 5279, Note_on_c, 0, 70, 0
2, 5279, Note_on_c, 0, 79, 0
2, 5280, Note_on_c, 0, 75, 51
2, 5280, Note_on_c, 0, 67, 51
2, 5315, Note_on_c, 0, 75, 0
2, 5315, Note_on_c, 0, 67, 0
2, 5340, Note_on_c, 0, 70, 51
2, 5340, Note_on_c, 0, 79, 51
2, 5375, Note_on_c, 0, 70, 0
2, 5375, Note_on_c, 0, 79, 0
2, 5400, Note_on_c, 0, 67, 51
2, 5400, Note_on_c, 0, 75, 51
2, 5435, Note_on_c, 0, 67, 0
2, 5435, Note_on_c, 0, 75, 0
2, 5520, Note_on_c, 0, 75, 51
2, 5520, Note_on_c, 0, 70, 51
2, 5759, Note_on_c, 0, 75, 0
2, 5759, Note_on_c, 0, 70, 0
2, 5760, Note_on_c, 0, 75, 51
2, 5760, Note_on_c, 0, 72, 51
2, 5999, Note_on_c, 0, 75, 0
2, 5999, Note_on_c, 0, 72, 0
2, 6000, Note_on_c, 0, 68, 51
2, 6000, Note_on_c, 0, 74, 51
2, 6239, Note_on_c, 0, 68, 0
2, 6239, Note_on_c, 0, 74, 0
2, 6240, Note_on_c, 0, 67, 51
2, 6240, Note_on_c, 0, 75, 51
2, 6456, Note_on_c, 0, 67, 0
2, 6479, Note_on_c, 0, 75, 0
2, 6480, Note_on_c, 0, 65, 51
2, 6600, Note_on_c, 0, 74, 51
2, 6696, Note_on_c, 0, 65, 0
2, 6719, Note_on_c, 0, 74, 0
2, 6720, Note_on_c, 0, 75, 51
2, 6720, Note_on_c, 0, 67, 51
2, 6739, Note_on_c, 0, 75, 0
2, 6739, Note_on_c, 0, 67, 0
2, 6740, Note_on_c, 0, 67, 51
2, 6740, Note_on_c, 0, 75, 51
2, 6759, Note_on_c, 0, 67, 0
2, 6759, Note_on_c, 0, 75, 0
2, 6760, Note_on_c, 0, 67, 51
2, 6760, Note_on_c, 0, 75, 51
2, 6779, Note_on_c, 0, 67, 0
2, 6779, Note_on_c, 0, 75, 0
2, 6780, Note_on_c, 0, 75, 51
2, 6780, Note_on_c, 0, 67, 51
2, 6799, Note_on_c, 0, 75, 0
2, 6799, Note_on_c, 0, 67, 0
2, 6800, Note_on_c, 0, 67, 51
2, 6800, Note_on_c, 0, 75, 51
2, 6819, Note_on_c, 0, 67, 0
2, 6819, Note_on_c, 0, 75, 0
2, 6820, Note_on_c, 0, 67, 51
2, 6820, Note_on_c, 0, 75, 51
2, 6839, Note_on_c, 0, 67, 0
2, 6839, Note_on_c, 0, 75, 0
2, 6840, Note_on_c, 0, 75, 51
2, 6840, Note_on_c, 0, 67, 51
2, 6899, Note_on_c, 0, 75, 0
2, 6899, Note_on_c, 0, 67, 0
2, 6900, Note_on_c, 0, 70, 51
2, 6900, Note_on_c, 0, 79, 51
2, 6919, Note_on_c, 0, 70, 0
2, 6919, Note_on_c, 0, 79, 0
2, 6920, Note_on_c, 0, 68, 51
2, 6920, Note_on_c, 0, 77, 51
2, 6939, Note_on_c, 0, 68, 0
2, 6939, Note_on_c, 0, 77, 0
2, 6940, Note_on_c, 0, 67, 51
2, 6940, Note_on_c, 0, 76, 51
2, 6959, Note_on_c, 0, 67, 0
2, 6959, Note_on_c, 0, 76, 0
2, 6960, Note_on_c, 0, 67, 51
2, 6960, Note_on_c, 0, 76, 51
2, 7079, Note_on_c, 0, 67, 0
2, 7079, Note_on_c, 0, 76, 0
2, 7080, Note_on_c, 0, 77, 51
2, 7080, Note_on_c, 0, 68, 51
2, 7199, Note_on_c, 0, 77, 0
2, 7199, Note_on_c, 0, 68, 0
2, 7200, Note_on_c, 0, 79, 51
2, 7200, Note_on_c, 0, 70, 51
2, 7319, Note_on_c, 0, 79, 0
2, 7319, Note_on_c, 0, 70, 0
2, 7320, Note_on_c, 0, 77, 51
2, 7320, Note_on_c, 0, 68, 51
2, 7439, Note_on_c, 0, 77, 0
2, 7439, Note_on_c, 0, 68, 0
2, 7440, Note_on_c, 0, 69, 51
2, 7440, Note_on_c, 0, 78, 51
2, 7559, Note_on_c, 0, 69, 0
2, 7559, Note_on_c, 0, 78, 0
2, 7560, Note_on_c, 0, 70, 51
2, 7560, Note_on_c, 0, 79, 51
2, 7679, Note_on_c, 0, 70, 0
2, 7679, Note_on_c, 0, 79, 0
2, 7680, Note_on_c, 0, 72, 51
2, 7680, Note_on_c, 0, 81, 51
2, 7799, Note_on_c, 0, 72, 0
2, 7799, Note_on_c, 0, 81, 0
2, 7800, Note_on_c, 0, 71, 51
2, 7800, Note_on_c, 0, 79, 51
2, 7919, Note_on_c, 0, 71, 0
2, 7919, Note_on_c, 0, 79, 0
2, 7920, Note_on_c, 0, 72, 92
2, 7920, Note_on_c, 0, 79, 92
2, 7974, Note_on_c, 0, 72, 0
2, 7979, Note_on_c, 0, 79, 0
2, 7980, Note_on_c, 0, 72, 92
2, 7980, Note_on_c, 0, 79, 92
2, 8039, Note_on_c, 0, 79, 0
2, 8040, Note_on_c, 0, 80, 92
2, 8059, Note_on_c, 0, 80, 0
2, 8060, Note_on_c, 0, 79, 92
2, 8079, Note_on_c, 0, 79, 0
2, 8080, Note_on_c, 0, 77, 92
2, 8088, Note_on_c, 0, 72, 0
2, 8099, Note_on_c, 0, 77, 0
2, 8100, Note_on_c, 0, 72, 92
2, 8100, Note_on_c, 0, 75, 92
2, 8119, Note_on_c, 0, 72, 0
2, 8119, Note_on_c, 0, 75, 0
2, 8120, Note_on_c, 0, 74, 92
2, 8120, Note_on_c, 0, 71, 92
2, 8139, Note_on_c, 0, 74, 0
2, 8139, Note_on_c, 0, 71, 0
2, 8140, Note_on_c, 0, 72, 92
2, 8140, Note_on_c, 0, 69, 92
2, 8159, Note_on_c, 0, 72, 0
2, 8159, Note_on_c, 0, 69, 0
2, 8160, Note_on_c, 0, 71, 92
2, 8160, Note_on_c, 0, 67, 92
2, 8179, Note_on_c, 0, 71, 0
2, 8179, Note_on_c, 0, 67, 0
2, 8180, Note_on_c, 0, 71, 51
2, 8180, Note_on_c, 0, 67, 51
2, 8199, Note_on_c, 0, 71, 0
2, 8199, Note_on_c, 0, 67, 0
2, 8200, Note_on_c, 0, 71, 51
2, 8200, Note_on_c, 0, 67, 51
2, 8219, Note_on_c, 0, 71, 0
2, 8219, Note_on_c, 0, 67, 0
2, 8220, Note_on_c, 0, 71, 51
2, 8220, Note_on_c, 0, 67, 51
2, 8239, Note_on_c, 0, 71, 0
2, 8239, Note_on_c, 0, 67, 0
2, 8240, Note_on_c, 0, 71, 51
2, 8240, Note_on_c, 0, 67, 51
2, 8259, Note_on_c, 0, 71, 0
2, 8259, Note_on_c, 0, 67, 0
2, 8260, Note_on_c, 0, 71, 51
2, 8260, Note_on_c, 0, 67, 51
2, 8279, Note_on_c, 0, 71, 0
2, 8279, Note_on_c, 0, 67, 0
2, 8280, Note_on_c, 0, 67, 51
2, 8280, Note_on_c, 0, 71, 51
2, 8299, Note_on_c, 0, 67, 0
2, 8299, Note_on_c, 0, 71, 0
2, 8300, Note_on_c, 0, 71, 51
2, 8300, Note_on_c, 0, 74, 51
2, 8319, Note_on_c, 0, 71, 0
2, 8319, Note_on_c, 0, 74, 0
2, 8320, Note_on_c, 0, 75, 51
2, 8320, Note_on_c, 0, 72, 51
2, 8339, Note_on_c, 0, 75, 0
2, 8339, Note_on_c, 0, 72, 0
2, 8340, Note_on_c, 0, 77, 51
2, 8340, Note_on_c, 0, 74, 51
2, 8359, Note_on_c, 0, 77, 0
2, 8359, Note_on_c, 0, 74, 0
2, 8360, Note_on_c, 0, 75, 51
2, 8360, Note_on_c, 0, 72, 51
2, 8379, Note_on_c, 0, 75, 0
2, 8379, Note_on_c, 0, 72, 0
2, 8380, Note_on_c, 0, 74, 51
2, 8380, Note_on_c, 0, 71, 51
2, 8399, Note_on_c, 0, 74, 0
2, 8399, Note_on_c, 0, 71, 0
2, 8400, Note_on_c, 0, 72, 51
2, 8459, Note_on_c, 0, 72, 0
2, 9900, Note_on_c, 0, 68, 51
2, 9900, Note_on_c, 0, 77, 51
2, 9919, Note_on_c, 0, 68, 0
2, 9919, Note_on_c, 0, 77, 0
2, 9920, Note_on_c, 0, 75, 51
2, 9920, Note_on_c, 0, 67, 51
2, 9939, Note_on_c, 0, 75, 0
2, 9939, Note_on_c, 0, 67, 0
2, 9940, Note_on_c, 0, 74, 51
2, 9940, Note_on_c, 0, 65, 51
2, 9959, Note_on_c, 0, 74, 0
2, 9959, Note_on_c, 0, 65, 0
2, 9960, Note_on_c, 0, 63, 51
2, 9960, Note_on_c, 0, 72, 51
2, 9995, Note_on_c, 0, 63, 0
2, 9995, Note_on_c, 0, 72, 0
2, 10020, Note_on_c, 0, 62, 51
2, 10020, Note_on_c, 0, 71, 51
2, 10055, Note_on_c, 0, 62, 0
2, 10055, Note_on_c, 0, 71, 0
2, 10080, Note_on_c, 0, 63, 51
2, 10080, Note_on_c, 0, 72, 51
2, 10115, Note_on_c, 0, 63, 0
2, 10115, Note_on_c, 0, 72, 0
2, 11580, Note_on_c, 0, 68, 51
2, 11580, Note_on_c, 0, 77, 51
2, 11599, Note_on_c, 0, 68, 0
2, 11599, Note_on_c, 0, 77, 0
2, 11600, Note_on_c, 0, 75, 51
2, 11600, Note_on_c, 0, 67, 51
2, 11619, Note_on_c, 0, 75, 0
2, 11619, Note_on_c, 0, 67, 0
2, 11620, Note_on_c, 0, 74, 51
2, 11620, Note_on_c, 0, 65, 51
2, 11639, Note_on_c, 0, 74, 0
2, 11639, Note_on_c, 0, 65, 0
2, 11640, Note_on_c, 0, 63, 51
2, 11640, Note_on_c, 0, 72, 51
2, 11675, Note_on_c, 0, 63, 0
2, 11675, Note_on_c, 0, 72, 0
2, 11700, Note_on_c, 0, 62, 51
2, 11700, Note_on_c, 0, 71, 51
2, 11735, Note_on_c, 0, 62, 0
2, 11735, Note_on_c, 0, 71, 0
2, 11760, Note_on_c, 0, 72, 51
2, 11760, Note_on_c, 0, 63, 51
2, 11779, Note_on_c, 0, 72, 0
2, 11779, Note_on_c, 0, 63, 0
2, 11780, Note_on_c, 0, 63, 51
2, 11780, Note_on_c, 0, 72, 51
2, 11799, Note_on_c, 0, 63, 0
2, 11799, Note_on_c, 0, 72, 0
2, 11800, Note_on_c, 0, 63, 51
2, 11800, Note_on_c, 0, 72, 51
2, 11819, Note_on_c, 0, 63, 0
2, 11819, Note_on_c, 0, 72, 0
2, 11820, Note_on_c, 0, 63, 51
2, 11820, Note_on_c, 0, 72, 51
2, 11839, Note_on_c, 0, 63, 0
2, 11839, Note_on_c, 0, 72, 0
2, 11840, Note_on_c, 0, 63, 51
2, 11840, Note_on_c, 0, 72, 51
2, 11859, Note_on_c, 0, 63, 0
2, 11859, Note_on_c, 0, 72, 0
2, 11860, Note_on_c, 0, 72, 51
2, 11860, Note_on_c, 0, 63, 51
2, 11879, Note_on_c, 0, 72, 0
2, 11879, Note_on_c, 0, 63, 0
2, 11880, Note_on_c, 0, 63, 51
2, 11880, Note_on_c, 0, 72, 51
2, 11939, Note_on_c, 0, 63, 0
2, 11939, Note_on_c, 0, 72, 0
2, 11970, Note_on_c, 0, 72, 51
2, 11970, Note_on_c, 0, 63, 51
2, 11999, Note_on_c, 0, 72, 0
2, 11999, Note_on_c, 0, 63, 0
2, 12000, Note_on_c, 0, 72, 51
2, 12000, Note_on_c, 0, 63, 51
2, 12035, Note_on_c, 0, 72, 0
2, 12035, Note_on_c, 0, 63, 0
2, 12060, Note_on_c, 0, 75, 51
2, 12060, Note_on_c, 0, 67, 51
2, 12095, Note_on_c, 0, 75, 0
2, 12095, Note_on_c, 0, 67, 0
2, 12120, Note_on_c, 0, 72, 51
2, 12120, Note_on_c, 0, 63, 51
2, 12155, Note_on_c, 0, 72, 0
2, 12155, Note_on_c, 0, 63, 0
2, 12155, End_track
3, 0, Start_track
3, 0, MIDI_port, 0
3, 0, Title_t, "Horns"
3, 0, Program_c, 1, 57
3, 240, Note_on_c, 1, 63, 51
3, 240, Note_on_c, 1, 67, 51
3, 479, Note_on_c, 1, 63, 0
3, 479, Note_on_c, 1, 67, 0
3, 480, Note_on_c, 1, 65, 51
3, 480, Note_on_c, 1, 68, 51
3, 719, Note_on_c, 1, 65, 0
3, 719, Note_on_c, 1, 68, 0
3, 720, Note_on_c, 1, 65, 51
3, 720, Note_on_c, 1, 55, 51
3, 959, Note_on_c, 1, 65, 0
3, 959, Note_on_c, 1, 55, 0
3, 960, Note_on_c, 1, 63, 51
3, 960, Note_on_c, 1, 55, 51
3, 1199, Note_on_c, 1, 63, 0
3, 1199, Note_on_c, 1, 55, 0
3, 1320, Note_on_c, 1, 55, 51
3, 1320, Note_on_c, 1, 67, 51
3, 1439, Note_on_c, 1, 55, 0
3, 1439, Note_on_c, 1, 67, 0
3, 1440, Note_on_c, 1, 55, 51
3, 1440, Note_on_c, 1, 67, 51
3, 1559, Note_on_c, 1, 55, 0
3, 1559, Note_on_c, 1, 67, 0
3, 1620, Note_on_c, 1, 56, 51
3, 1679, Note_on_c, 1, 56, 0
3, 1680, Note_on_c, 1, 63, 51
3, 1919, Note_on_c, 1, 63, 0
3, 1920, Note_on_c, 1, 65, 51
3, 1920, Note_on_c, 1, 63, 51
3, 2159, Note_on_c, 1, 65, 0
3, 2159, Note_on_c, 1, 63, 0
3, 2160, Note_on_c, 1, 58, 51
3, 2160, Note_on_c, 1, 68, 51
3, 2399, Note_on_c, 1, 58, 0
3, 2399, Note_on_c, 1, 68, 0
3, 2400, Note_on_c, 1, 58, 51
3, 2400, Note_on_c, 1, 67, 51
3, 2639, Note_on_c, 1, 58, 0
3, 2639, Note_on_c, 1, 67, 0
3, 2640, Note_on_c, 1, 65, 51
3, 2640, Note_on_c, 1, 68, 51
3, 2879, Note_on_c, 1, 65, 0
3, 2879, Note_on_c, 1, 68, 0
3, 2880, Note_on_c, 1, 70, 51
3, 3000, Note_on_c, 1, 63, 51
3, 3119, Note_on_c, 1, 70, 0
3, 3120, Note_on_c, 1, 72, 51
3, 3216, Note_on_c, 1, 63, 0
3, 3239, Note_on_c, 1, 72, 0
3, 3240, Note_on_c, 1, 70, 51
3, 3275, Note_on_c, 1, 70, 0
3, 3300, Note_on_c, 1, 58, 51
3, 3300, Note_on_c, 1, 68, 51
3, 3332, Note_on_c, 1, 58, 0
3, 3335, Note_on_c, 1, 68, 0
3, 3360, Note_on_c, 1, 63, 51
3, 3360, Note_on_c, 1, 67, 51
3, 3395, Note_on_c, 1, 67, 0
3, 3600, Note_on_c, 1, 65, 51
3, 3619, Note_on_c, 1, 63, 0
3, 3839, Note_on_c, 1, 65, 0
3, 3840, Note_on_c, 1, 68, 51
3, 3840, Note_on_c, 1, 58, 51
3, 4079, Note_on_c, 1, 68, 0
3, 4079, Note_on_c, 1, 58, 0
3, 4080, Note_on_c, 1, 67, 51
3, 4080, Note_on_c, 1, 58, 51
3, 4319, Note_on_c, 1, 67, 0
3, 4319, Note_on_c, 1, 58, 0
3, 4320, Note_on_c, 1, 65, 51
3, 4320, Note_on_c, 1, 68, 51
3, 4559, Note_on_c, 1, 65, 0
3, 4559, Note_on_c, 1, 68, 0
3, 4560, Note_on_c, 1, 70, 51
3, 4680, Note_on_c, 1, 63, 51
3, 4799, Note_on_c, 1, 70, 0
3, 4800, Note_on_c, 1, 72, 51
3, 4896, Note_on_c, 1, 63, 0
3, 4919, Note_on_c, 1, 72, 0
3, 4920, Note_on_c, 1, 70, 51
3, 4955, Note_on_c, 1, 70, 0
3, 4980, Note_on_c, 1, 58, 51
3, 4980, Note_on_c, 1, 68, 51
3, 5012, Note_on_c, 1, 58, 0
3, 5015, Note_on_c, 1, 68, 0
3, 5040, Note_on_c, 1, 63, 51
3, 5040, Note_on_c, 1, 67, 51
3, 5105, Note_on_c, 1, 63, 0
3, 5111, Note_on_c, 1, 67, 0
3, 5250, Note_on_c, 1, 70, 51
3, 5250, Note_on_c, 1, 67, 51
3, 5279, Note_on_c, 1, 70, 0
3, 5279, Note_on_c, 1, 67, 0
3, 5280, Note_on_c, 1, 63, 51
3, 5280, Note_on_c, 1, 67, 51
3, 5315, Note_on_c, 1, 63, 0
3, 5315, Note_on_c, 1, 67, 0
3, 5340, Note_on_c, 1, 67, 51
3, 5340, Note_on_c, 1, 70, 51
3, 5375, Note_on_c, 1, 67, 0
3, 5375, Note_on_c, 1, 70, 0
3, 5400, Note_on_c, 1, 67, 51
3, 5400, Note_on_c, 1, 63, 51
3, 5435, Note_on_c, 1, 67, 0
3, 5435, Note_on_c, 1, 63, 0
3, 5520, Note_on_c, 1, 67, 51
3, 5520, Note_on_c, 1, 63, 51
3, 5759, Note_on_c, 1, 67, 0
3, 5759, Note_on_c, 1, 63, 0
3, 5760, Note_on_c, 1, 68, 51
3, 5760, Note_on_c, 1, 63, 51
3, 5999, Note_on_c, 1, 68, 0
3, 5999, Note_on_c, 1, 63, 0
3, 6000, Note_on_c, 1, 58, 51
3, 6000, Note_on_c, 1, 65, 51
3, 6239, Note_on_c, 1, 58, 0
3, 6239, Note_on_c, 1, 65, 0
3, 6240, Note_on_c, 1, 55, 51
3, 6240, Note_on_c, 1, 63, 51
3, 6479, Note_on_c, 1, 55, 0
3, 6479, Note_on_c, 1, 63, 0
3, 6660, Note_on_c, 1, 68, 51
3, 6660, Note_on_c, 1, 58, 51
3, 6719, Note_on_c, 1, 68, 0
3, 6719, Note_on_c, 1, 58, 0
3, 6720, Note_on_c, 1, 63, 51
3, 6720, Note_on_c, 1, 67, 51
3, 6779, Note_on_c, 1, 63, 0
3, 6779, Note_on_c, 1, 67, 0
3, 6780, Note_on_c, 1, 63, 51
3, 6780, Note_on_c, 1, 67, 51
3, 6809, Note_on_c, 1, 63, 0
3, 6809, Note_on_c, 1, 67, 0
3, 6825, Note_on_c, 1, 67, 51
3, 6825, Note_on_c, 1, 63, 51
3, 6839, Note_on_c, 1, 67, 0
3, 6839, Note_on_c, 1, 63, 0
3, 6840, Note_on_c, 1, 67, 51
3, 6840, Note_on_c, 1, 63, 51
3, 6899, Note_on_c, 1, 67, 0
3, 6899, Note_on_c, 1, 63, 0
3, 7800, Note_on_c, 1, 67, 51
3, 7800, Note_on_c, 1, 55, 51
3, 7919, Note_on_c, 1, 67, 0
3, 7919, Note_on_c, 1, 55, 0
3, 7920, Note_on_c, 1, 67, 92
3, 7920, Note_on_c, 1, 55, 92
3, 7979, Note_on_c, 1, 67, 0
3, 7979, Note_on_c, 1, 55, 0
3, 8160, Note_on_c, 1, 55, 92
3, 8160, Note_on_c, 1, 67, 92
3, 8219, Note_on_c, 1, 55, 0
3, 8219, Note_on_c, 1, 67, 0
3, 8220, Note_on_c, 1, 67, 51
3, 8220, Note_on_c, 1, 55, 51
3, 8249, Note_on_c, 1, 67, 0
3, 8249, Note_on_c, 1, 55, 0
3, 8265, Note_on_c, 1, 55, 51
3, 8265, Note_on_c, 1, 67, 51
3, 8279, Note_on_c, 1, 55, 0
3, 8279, Note_on_c, 1, 67, 0
3, 8280, Note_on_c, 1, 55, 51
3, 8280, Note_on_c, 1, 67, 51
3, 8339, Note_on_c, 1, 55, 0
3, 8339, Note_on_c, 1, 67, 0
3, 8340, Note_on_c, 1, 67, 51
3, 8340, Note_on_c, 1, 55, 51
3, 8399, Note_on_c, 1, 67, 0
3, 8399, Note_on_c, 1, 55, 0
3, 8400, Note_on_c, 1, 67, 51
3, 8400, Note_on_c, 1, 55, 51
3, 8459, Note_on_c, 1, 67, 0
3, 8459, Note_on_c, 1, 55, 0
3, 8880, Note_on_c, 1, 55, 51
3, 8880, Note_on_c, 1, 67, 51
3, 9119, Note_on_c, 1, 55, 0
3, 9119, Note_on_c, 1, 67, 0
3, 9120, Note_on_c, 1, 67, 51
3, 9120, Note_on_c, 1, 55, 51
3, 9179, Note_on_c, 1, 67, 0
3, 9179, Note_on_c, 1, 55, 0
3, 10020, Note_on_c, 1, 55, 51
3, 10020, Note_on_c, 1, 67, 51
3, 10055, Note_on_c, 1, 55, 0
3, 10055, Note_on_c, 1, 67, 0
3, 10080, Note_on_c, 1, 55, 51
3, 10080, Note_on_c, 1, 67, 51
3, 10115, Note_on_c, 1, 55, 0
3, 10115, Note_on_c, 1, 67, 0
3, 10560, Note_on_c, 1, 67, 51
3, 10560, Note_on_c, 1, 55, 51
3, 10799, Note_on_c, 1, 67, 0
3, 10799, Note_on_c, 1, 55, 0
3, 10800, Note_on_c, 1, 55, 51
3, 10800, Note_on_c, 1, 67, 51
3, 10859, Note_on_c, 1, 55, 0
3, 10859, Note_on_c, 1, 67, 0
3, 11700, Note_on_c, 1, 67, 51
3, 11700, Note_on_c, 1, 55, 51
3, 11735, Note_on_c, 1, 67, 0
3, 11735, Note_on_c, 1, 55, 0
3, 11760, Note_on_c, 1, 67, 51
3, 11760, Note_on_c, 1, 55, 51
3, 11879, Note_on_c, 1, 67, 0
3, 11879, Note_on_c, 1, 55, 0
3, 11879, End_track
4, 0, Start_track
4, 0, MIDI_port, 0
4, 0, Title_t, "1st Violin"
4, 0, Program_c, 2, 40
4, 240, Note_on_c, 2, 79, 51
4, 259, Note_on_c, 2, 79, 0
4, 260, Note_on_c, 2, 79, 51
4, 279, Note_on_c, 2, 79, 0
4, 280, Note_on_c, 2, 79, 51
4, 299, Note_on_c, 2, 79, 0
4, 300, Note_on_c, 2, 79, 51
4, 319, Note_on_c, 2, 79, 0
4, 320, Note_on_c, 2, 79, 51
4, 339, Note_on_c, 2, 79, 0
4, 340, Note_on_c, 2, 79, 51
4, 359, Note_on_c, 2, 79, 0
4, 360, Note_on_c, 2, 79, 51
4, 379, Note_on_c, 2, 79, 0
4, 380, Note_on_c, 2, 79, 51
4, 399, Note_on_c, 2, 79, 0
4, 400, Note_on_c, 2, 79, 51
4, 419, Note_on_c, 2, 79, 0
4, 420, Note_on_c, 2, 79, 51
4, 439, Note_on_c, 2, 79, 0
4, 440, Note_on_c, 2, 79, 51
4, 459, Note_on_c, 2, 79, 0
4, 460, Note_on_c, 2, 79, 51
4, 479, Note_on_c, 2, 79, 0
4, 480, Note_on_c, 2, 80, 51
4, 499, Note_on_c, 2, 80, 0
4, 500, Note_on_c, 2, 80, 51
4, 519, Note_on_c, 2, 80, 0
4, 520, Note_on_c, 2, 80, 51
4, 539, Note_on_c, 2, 80, 0
4, 540, Note_on_c, 2, 80, 51
4, 559, Note_on_c, 2, 80, 0
4, 560, Note_on_c, 2, 80, 51
4, 579, Note_on_c, 2, 80, 0
4, 580, Note_on_c, 2, 80, 51
4, 599, Note_on_c, 2, 80, 0
4, 600, Note_on_c, 2, 80, 51
4, 619, Note_on_c, 2, 80, 0
4, 620, Note_on_c, 2, 80, 51
4, 639, Note_on_c, 2, 80, 0
4, 640, Note_on_c, 2, 80, 51
4, 659, Note_on_c, 2, 80, 0
4, 660, Note_on_c, 2, 80, 51
4, 679, Note_on_c, 2, 80, 0
4, 680, Note_on_c, 2, 80, 51
4, 699, Note_on_c, 2, 80, 0
4, 700, Note_on_c, 2, 80, 51
4, 719, Note_on_c, 2, 80, 0
4, 720, Note_on_c, 2, 77, 51
4, 739, Note_on_c, 2, 77, 0
4, 740, Note_on_c, 2, 77, 51
4, 759, Note_on_c, 2, 77, 0
4, 760, Note_on_c, 2, 77, 51
4, 779, Note_on_c, 2, 77, 0
4, 780, Note_on_c, 2, 77, 51
4, 799, Note_on_c, 2, 77, 0
4, 800, Note_on_c, 2, 77, 51
4, 819, Note_on_c, 2, 77, 0
4, 820, Note_on_c, 2, 77, 51
4, 839, Note_on_c, 2, 77, 0
4, 840, Note_on_c, 2, 77, 51
4, 859, Note_on_c, 2, 77, 0
4, 860, Note_on_c, 2, 77, 51
4, 879, Note_on_c, 2, 77, 0
4, 880, Note_on_c, 2, 77, 51
4, 899, Note_on_c, 2, 77, 0
4, 900, Note_on_c, 2, 77, 51
4, 919, Note_on_c, 2, 77, 0
4, 920, Note_on_c, 2, 77, 51
4, 939, Note_on_c, 2, 77, 0
4, 940, Note_on_c, 2, 77, 51
4, 959, Note_on_c, 2, 77, 0
4, 960, Note_on_c, 2, 75, 51
4, 979, Note_on_c, 2, 75, 0
4, 980, Note_on_c, 2, 75, 51
4, 999, Note_on_c, 2, 75, 0
4, 1000, Note_on_c, 2, 75, 51
4, 1019, Note_on_c, 2, 75, 0
4, 1020, Note_on_c, 2, 75, 51
4, 1039, Note_on_c, 2, 75, 0
4, 1040, Note_on_c, 2, 75, 51
4, 1059, Note_on_c, 2, 75, 0
4, 1060, Note_on_c, 2, 75, 51
4, 1079, Note_on_c, 2, 75, 0
4, 1080, Note_on_c, 2, 75, 51
4, 1099, Note_on_c, 2, 75, 0
4, 1100, Note_on_c, 2, 75, 51
4, 1119, Note_on_c, 2, 75, 0
4, 1120, Note_on_c, 2, 75, 51
4, 1139, Note_on_c, 2, 75, 0
4, 1140, Note_on_c, 2, 75, 51
4, 1159, Note_on_c, 2, 75, 0
4, 1160, Note_on_c, 2, 75, 51
4, 1179, Note_on_c, 2, 75, 0
4, 1180, Note_on_c, 2, 75, 51
4, 1199, Note_on_c, 2, 75, 0
4, 1200, Note_on_c, 2, 74, 51
4, 1219, Note_on_c, 2, 74, 0
4, 1220, Note_on_c, 2, 74, 51
4, 1239, Note_on_c, 2, 74, 0
4, 1240, Note_on_c, 2, 74, 51
4, 1259, Note_on_c, 2, 74, 0
4, 1260, Note_on_c, 2, 74, 51
4, 1279, Note_on_c, 2, 74, 0
4, 1280, Note_on_c, 2, 74, 51
4, 1299, Note_on_c, 2, 74, 0
4, 1300, Note_on_c, 2, 74, 51
4, 1319, Note_on_c, 2, 74, 0
4, 1320, Note_on_c, 2, 74, 51
4, 1339, Note_on_c, 2, 74, 0
4, 1340, Note_on_c, 2, 74, 51
4, 1359, Note_on_c, 2, 74, 0
4, 1360, Note_on_c, 2, 74, 51
4, 1379, Note_on_c, 2, 74, 0
4, 1380, Note_on_c, 2, 74, 51
4, 1399, Note_on_c, 2, 74, 0
4, 1400, Note_on_c, 2, 74, 51
4, 1419, Note_on_c, 2, 74, 0
4, 1420, Note_on_c, 2, 74, 51
4, 1439, Note_on_c, 2, 74, 0
4, 1440, Note_on_c, 2, 72, 51
4, 1459, Note_on_c, 2, 72, 0
4, 1460, Note_on_c, 2, 63, 51
4, 1460, Note_on_c, 2, 72, 51
4, 1479, Note_on_c, 2, 63, 0
4, 1479, Note_on_c, 2, 72, 0
4, 1480, Note_on_c, 2, 63, 51
4, 1480, Note_on_c, 2, 72, 51
4, 1499, Note_on_c, 2, 63, 0
4, 1499, Note_on_c, 2, 72, 0
4, 1500, Note_on_c, 2, 63, 51
4, 1500, Note_on_c, 2, 72, 51
4, 1519, Note_on_c, 2, 63, 0
4, 1519, Note_on_c, 2, 72, 0
4, 1520, Note_on_c, 2, 72, 51
4, 1520, Note_on_c, 2, 63, 51
4, 1539, Note_on_c, 2, 72, 0
4, 1539, Note_on_c, 2, 63, 0
4, 1540, Note_on_c, 2, 63, 51
4, 1540, Note_on_c, 2, 72, 51
4, 1559, Note_on_c, 2, 63, 0
4, 1559, Note_on_c, 2, 72, 0
4, 1560, Note_on_c, 2, 63, 51
4, 1560, Note_on_c, 2, 72, 51
4, 1619, Note_on_c, 2, 63, 0
4, 1619, Note_on_c, 2, 72, 0
4, 1920, Note_on_c, 2, 65, 51
4, 1939, Note_on_c, 2, 65, 0
4, 1940, Note_on_c, 2, 65, 51
4, 1959, Note_on_c, 2, 65, 0
4, 1960, Note_on_c, 2, 65, 51
4, 1979, Note_on_c, 2, 65, 0
4, 1980, Note_on_c, 2, 65, 51
4, 1999, Note_on_c, 2, 65, 0
4, 2000, Note_on_c, 2, 65, 51
4, 2019, Note_on_c, 2, 65, 0
4, 2020, Note_on_c, 2, 65, 51
4, 2039, Note_on_c, 2, 65, 0
4, 2040, Note_on_c, 2, 65, 51
4, 2059, Note_on_c, 2, 65, 0
4, 2060, Note_on_c, 2, 65, 51
4, 2079, Note_on_c, 2, 65, 0
4, 2080, Note_on_c, 2, 65, 51
4, 2099, Note_on_c, 2, 65, 0
4, 2100, Note_on_c, 2, 65, 51
4, 2119, Note_on_c, 2, 65, 0
4, 2120, Note_on_c, 2, 65, 51
4, 2139, Note_on_c, 2, 65, 0
4, 2140, Note_on_c, 2, 65, 51
4, 2159, Note_on_c, 2, 65, 0
4, 2160, Note_on_c, 2, 65, 51
4, 2179, Note_on_c, 2, 65, 0
4, 2180, Note_on_c, 2, 65, 51
4, 2199, Note_on_c, 2, 65, 0
4, 2200, Note_on_c, 2, 65, 51
4, 2219, Note_on_c, 2, 65, 0
4, 2220, Note_on_c, 2, 65, 51
4, 2239, Note_on_c, 2, 65, 0
4, 2240, Note_on_c, 2, 65, 51
4, 2259, Note_on_c, 2, 65, 0
4, 2260, Note_on_c, 2, 65, 51
4, 2279, Note_on_c, 2, 65, 0
4, 2280, Note_on_c, 2, 65, 51
4, 2299, Note_on_c, 2, 65, 0
4, 2300, Note_on_c, 2, 65, 51
4, 2319, Note_on_c, 2, 65, 0
4, 2320, Note_on_c, 2, 65, 51
4, 2339, Note_on_c, 2, 65, 0
4, 2340, Note_on_c, 2, 65, 51
4, 2359, Note_on_c, 2, 65, 0
4, 2360, Note_on_c, 2, 65, 51
4, 2379, Note_on_c, 2, 65, 0
4, 2380, Note_on_c, 2, 65, 51
4, 2399, Note_on_c, 2, 65, 0
4, 2400, Note_on_c, 2, 65, 51
4, 2419, Note_on_c, 2, 65, 0
4, 2420, Note_on_c, 2, 65, 51
4, 2439, Note_on_c, 2, 65, 0
4, 2440, Note_on_c, 2, 65, 51
4, 2459, Note_on_c, 2, 65, 0
4, 2460, Note_on_c, 2, 65, 51
4, 2479, Note_on_c, 2, 65, 0
4, 2480, Note_on_c, 2, 65, 51
4, 2499, Note_on_c, 2, 65, 0
4, 2500, Note_on_c, 2, 65, 51
4, 2519, Note_on_c, 2, 65, 0
4, 2520, Note_on_c, 2, 63, 51
4, 2539, Note_on_c, 2, 63, 0
4, 2540, Note_on_c, 2, 63, 51
4, 2559, Note_on_c, 2, 63, 0
4, 2560, Note_on_c, 2, 63, 51
4, 2579, Note_on_c, 2, 63, 0
4, 2580, Note_on_c, 2, 63, 51
4, 2599, Note_on_c, 2, 63, 0
4, 2600, Note_on_c, 2, 63, 51
4, 2619, Note_on_c, 2, 63, 0
4, 2620, Note_on_c, 2, 63, 51
4, 2639, Note_on_c, 2, 63, 0
4, 2640, Note_on_c, 2, 68, 51
4, 2659, Note_on_c, 2, 68, 0
4, 2660, Note_on_c, 2, 68, 51
4, 2679, Note_on_c, 2, 68, 0
4, 2680, Note_on_c, 2, 68, 51
4, 2699, Note_on_c, 2, 68, 0
4, 2700, Note_on_c, 2, 68, 51
4, 2719, Note_on_c, 2, 68, 0
4, 2720, Note_on_c, 2, 68, 51
4, 2739, Note_on_c, 2, 68, 0
4, 2740, Note_on_c, 2, 68, 51
4, 2759, Note_on_c, 2, 68, 0
4, 2760, Note_on_c, 2, 68, 51
4, 2779, Note_on_c, 2, 68, 0
4, 2780, Note_on_c, 2, 68, 51
4, 2799, Note_on_c, 2, 68, 0
4, 2800, Note_on_c, 2, 68, 51
4, 2819, Note_on_c, 2, 68, 0
4, 2820, Note_on_c, 2, 68, 51
4, 2839, Note_on_c, 2, 68, 0
4, 2840, Note_on_c, 2, 68, 51
4, 2859, Note_on_c, 2, 68, 0
4, 2860, Note_on_c, 2, 68, 51
4, 2879, Note_on_c, 2, 68, 0
4, 2880, Note_on_c, 2, 68, 51
4, 2899, Note_on_c, 2, 68, 0
4, 2900, Note_on_c, 2, 68, 51
4, 2919, Note_on_c, 2, 68, 0
4, 2920, Note_on_c, 2, 68, 51
4, 2939, Note_on_c, 2, 68, 0
4, 2940, Note_on_c, 2, 68, 51
4, 2959, Note_on_c, 2, 68, 0
4, 2960, Note_on_c, 2, 68, 51
4, 2979, Note_on_c, 2, 68, 0
4, 2980, Note_on_c, 2, 68, 51
4, 2999, Note_on_c, 2, 68, 0
4, 3000, Note_on_c, 2, 67, 51
4, 3019, Note_on_c, 2, 67, 0
4, 3020, Note_on_c, 2, 67, 51
4, 3039, Note_on_c, 2, 67, 0
4, 3040, Note_on_c, 2, 67, 51
4, 3059, Note_on_c, 2, 67, 0
4, 3060, Note_on_c, 2, 67, 51
4, 3079, Note_on_c, 2, 67, 0
4, 3080, Note_on_c, 2, 67, 51
4, 3099, Note_on_c, 2, 67, 0
4, 3100, Note_on_c, 2, 67, 51
4, 3119, Note_on_c, 2, 67, 0
4, 3120, Note_on_c, 2, 72, 51
4, 3179, Note_on_c, 2, 72, 0
4, 3180, Note_on_c, 2, 72, 51
4, 3199, Note_on_c, 2, 72, 0
4, 3200, Note_on_c, 2, 70, 51
4, 3219, Note_on_c, 2, 70, 0
4, 3220, Note_on_c, 2, 68, 51
4, 3239, Note_on_c, 2, 68, 0
4, 3240, Note_on_c, 2, 67, 51
4, 3275, Note_on_c, 2, 67, 0
4, 3300, Note_on_c, 2, 65, 51
4, 3335, Note_on_c, 2, 65, 0
4, 3360, Note_on_c, 2, 63, 51
4, 3360, Note_on_c, 2, 55, 51
4, 3395, Note_on_c, 2, 63, 0
4, 3395, Note_on_c, 2, 55, 0
4, 3600, Note_on_c, 2, 65, 51
4, 3619, Note_on_c, 2, 65, 0
4, 3620, Note_on_c, 2, 65, 51
4, 3639, Note_on_c, 2, 65, 0
4, 3640, Note_on_c, 2, 65, 51
4, 3659, Note_on_c, 2, 65, 0
4, 3660, Note_on_c, 2, 65, 51
4, 3679, Note_on_c, 2, 65, 0
4, 3680, Note_on_c, 2, 65, 51
4, 3699, Note_on_c, 2, 65, 0
4, 3700, Note_on_c, 2, 65, 51
4, 3719, Note_on_c, 2, 65, 0
4, 3720, Note_on_c, 2, 65, 51
4, 3739, Note_on_c, 2, 65, 0
4, 3740, Note_on_c, 2, 65, 51
4, 3759, Note_on_c, 2, 65, 0
4, 3760, Note_on_c, 2, 65, 51
4, 3779, Note_on_c, 2, 65, 0
4, 3780, Note_on_c, 2, 65, 51
4, 3799, Note_on_c, 2, 65, 0
4, 3800, Note_on_c, 2, 65, 51
4, 3819, Note_on_c, 2, 65, 0
4, 3820, Note_on_c, 2, 65, 51
4, 3839, Note_on_c, 2, 65, 0
4, 3840, Note_on_c, 2, 65, 51
4, 3859, Note_on_c, 2, 65, 0
4, 3860, Note_on_c, 2, 65, 51
4, 3879, Note_on_c, 2, 65, 0
4, 3880, Note_on_c, 2, 65, 51
4, 3899, Note_on_c, 2, 65, 0
4, 3900, Note_on_c, 2, 65, 51
4, 3919, Note_on_c, 2, 65, 0
4, 3920, Note_on_c, 2, 65, 51
4, 3939, Note_on_c, 2, 65, 0
4, 3940, Note_on_c, 2, 65, 51
4, 3959, Note_on_c, 2, 65, 0
4, 3960, Note_on_c, 2, 65, 51
4, 3979, Note_on_c, 2, 65, 0
4, 3980, Note_on_c, 2, 65, 51
4, 3999, Note_on_c, 2, 65, 0
4, 4000, Note_on_c, 2, 65, 51
4, 4019, Note_on_c, 2, 65, 0
4, 4020, Note_on_c, 2, 65, 51
4, 4039, Note_on_c, 2, 65, 0
4, 4040, Note_on_c, 2, 65, 51
4, 4059, Note_on_c, 2, 65, 0
4, 4060, Note_on_c, 2, 65, 51
4, 4079, Note_on_c, 2, 65, 0
4, 4080, Note_on_c, 2, 65, 51
4, 4099, Note_on_c, 2, 65, 0
4, 4100, Note_on_c, 2, 65, 51
4, 4119, Note_on_c, 2, 65, 0
4, 4120, Note_on_c, 2, 65, 51
4, 4139, Note_on_c, 2, 65, 0
4, 4140, Note_on_c, 2, 65, 51
4, 4159, Note_on_c, 2, 65, 0
4, 4160, Note_on_c, 2, 65, 51
4, 4179, Note_on_c, 2, 65, 0
4, 4180, Note_on_c, 2, 65, 51
4, 4199, Note_on_c, 2, 65, 0
4, 4200, Note_on_c, 2, 63, 51
4, 4219, Note_on_c, 2, 63, 0
4, 4220, Note_on_c, 2, 63, 51
4, 4239, Note_on_c, 2, 63, 0
4, 4240, Note_on_c, 2, 63, 51
4, 4259, Note_on_c, 2, 63, 0
4, 4260, Note_on_c, 2, 63, 51
4, 4279, Note_on_c, 2, 63, 0
4, 4280, Note_on_c, 2, 63, 51
4, 4299, Note_on_c, 2, 63, 0
4, 4300, Note_on_c, 2, 63, 51
4, 4319, Note_on_c, 2, 63, 0
4, 4320, Note_on_c, 2, 68, 51
4, 4339, Note_on_c, 2, 68, 0
4, 4340, Note_on_c, 2, 68, 51
4, 4359, Note_on_c, 2, 68, 0
4, 4360, Note_on_c, 2, 68, 51
4, 4379, Note_on_c, 2, 68, 0
4, 4380, Note_on_c, 2, 68, 51
4, 4399, Note_on_c, 2, 68, 0
4, 4400, Note_on_c, 2, 68, 51
4, 4419, Note_on_c, 2, 68, 0
4, 4420, Note_on_c, 2, 68, 51
4, 4439, Note_on_c, 2, 68, 0
4, 4440, Note_on_c, 2, 68, 51
4, 4459, Note_on_c, 2, 68, 0
4, 4460, Note_on_c, 2, 68, 51
4, 4479, Note_on_c, 2, 68, 0
4, 4480, Note_on_c, 2, 68, 51
4, 4499, Note_on_c, 2, 68, 0
4, 4500, Note_on_c, 2, 68, 51
4, 4519, Note_on_c, 2, 68, 0
4, 4520, Note_on_c, 2, 68, 51
4, 4539, Note_on_c, 2, 68, 0
4, 4540, Note_on_c, 2, 68, 51
4, 4559, Note_on_c, 2, 68, 0
4, 4560, Note_on_c, 2, 68, 51
4, 4579, Note_on_c, 2, 68, 0
4, 4580, Note_on_c, 2, 68, 51
4, 4599, Note_on_c, 2, 68, 0
4, 4600, Note_on_c, 2, 68, 51
4, 4619, Note_on_c, 2, 68, 0
4, 4620, Note_on_c, 2, 68, 51
4, 4639, Note_on_c, 2, 68, 0
4, 4640, Note_on_c, 2, 68, 51
4, 4659, Note_on_c, 2, 68, 0
4, 4660, Note_on_c, 2, 68, 51
4, 4679, Note_on_c, 2, 68, 0
4, 4680, Note_on_c, 2, 67, 51
4, 4699, Note_on_c, 2, 67, 0
4, 4700, Note_on_c, 2, 67, 51
4, 4719, Note_on_c, 2, 67, 0
4, 4720, Note_on_c, 2, 67, 51
4, 4739, Note_on_c, 2, 67, 0
4, 4740, Note_on_c, 2, 67, 51
4, 4759, Note_on_c, 2, 67, 0
4, 4760, Note_on_c, 2, 67, 51
4, 4779, Note_on_c, 2, 67, 0
4, 4780, Note_on_c, 2, 67, 51
4, 4799, Note_on_c, 2, 67, 0
4, 4800, Note_on_c, 2, 72, 51
4, 4819, Note_on_c, 2, 72, 0
4, 4820, Note_on_c, 2, 72, 51
4, 4839, Note_on_c, 2, 72, 0
4, 4840, Note_on_c, 2, 72, 51
4, 4859, Note_on_c, 2, 72, 0
4, 4860, Note_on_c, 2, 72, 51
4, 4879, Note_on_c, 2, 72, 0
4, 4880, Note_on_c, 2, 70, 51
4, 4899, Note_on_c, 2, 70, 0
4, 4900, Note_on_c, 2, 68, 51
4, 4919, Note_on_c, 2, 68, 0
4, 4920, Note_on_c, 2, 67, 51
4, 4955, Note_on_c, 2, 67, 0
4, 4980, Note_on_c, 2, 67, 51
4, 4985, Note_on_c, 2, 67, 0
4, 4990, Note_on_c, 2, 65, 51
4, 4995, Note_on_c, 2, 65, 0
4, 5000, Note_on_c, 2, 67, 51
4, 5005, Note_on_c, 2, 67, 0
4, 5010, Note_on_c, 2, 65, 51
4, 5015, Note_on_c, 2, 65, 0
4, 5020, Note_on_c, 2, 63, 51
4, 5025, Note_on_c, 2, 63, 0
4, 5030, Note_on_c, 2, 65, 51
4, 5035, Note_on_c, 2, 65, 0
4, 5040, Note_on_c, 2, 63, 51
4, 5040, Note_on_c, 2, 55, 51
4, 5051, Note_on_c, 2, 63, 0
4, 5051, Note_on_c, 2, 55, 0
4, 5060, Note_on_c, 2, 63, 51
4, 5060, Note_on_c, 2, 55, 51
4, 5079, Note_on_c, 2, 63, 0
4, 5079, Note_on_c, 2, 55, 0
4, 5080, Note_on_c, 2, 63, 51
4, 5080, Note_on_c, 2, 55, 51
4, 5099, Note_on_c, 2, 63, 0
4, 5099, Note_on_c, 2, 55, 0
4, 5100, Note_on_c, 2, 63, 51
4, 5100, Note_on_c, 2, 55, 51
4, 5119, Note_on_c, 2, 63, 0
4, 5119, Note_on_c, 2, 55, 0
4, 5120, Note_on_c, 2, 63, 51
4, 5120, Note_on_c, 2, 55, 51
4, 5139, Note_on_c, 2, 63, 0
4, 5139, Note_on_c, 2, 55, 0
4, 5140, Note_on_c, 2, 63, 51
4, 5140, Note_on_c, 2, 55, 51
4, 5159, Note_on_c, 2, 63, 0
4, 5159, Note_on_c, 2, 55, 0
4, 5160, Note_on_c, 2, 63, 51
4, 5160, Note_on_c, 2, 55, 51
4, 5219, Note_on_c, 2, 63, 0
4, 5219, Note_on_c, 2, 55, 0
4, 5250, Note_on_c, 2, 67, 51
4, 5279, Note_on_c, 2, 67, 0
4, 5280, Note_on_c, 2, 63, 51
4, 5280, Note_on_c, 2, 55, 51
4, 5315, Note_on_c, 2, 63, 0
4, 5315, Note_on_c, 2, 55, 0
4, 5340, Note_on_c, 2, 67, 51
4, 5375, Note_on_c, 2, 67, 0
4, 5400, Note_on_c, 2, 63, 51
4, 5435, Note_on_c, 2, 63, 0
4, 5520, Note_on_c, 2, 70, 51
4, 5539, Note_on_c, 2, 70, 0
4, 5540, Note_on_c, 2, 70, 51
4, 5559, Note_on_c, 2, 70, 0
4, 5560, Note_on_c, 2, 70, 51
4, 5579, Note_on_c, 2, 70, 0
4, 5580, Note_on_c, 2, 70, 51
4, 5599, Note_on_c, 2, 70, 0
4, 5600, Note_on_c, 2, 70, 51
4, 5619, Note_on_c, 2, 70, 0
4, 5620, Note_on_c, 2, 70, 51
4, 5639, Note_on_c, 2, 70, 0
4, 5640, Note_on_c, 2, 70, 51
4, 5659, Note_on_c, 2, 70, 0
4, 5660, Note_on_c, 2, 70, 51
4, 5679, Note_on_c, 2, 70, 0
4, 5680, Note_on_c, 2, 70, 51
4, 5699, Note_on_c, 2, 70, 0
4, 5700, Note_on_c, 2, 70, 51
4, 5719, Note_on_c, 2, 70, 0
4, 5720, Note_on_c, 2, 70, 51
4, 5739, Note_on_c, 2, 70, 0
4, 5740, Note_on_c, 2, 70, 51
4, 5759, Note_on_c, 2, 70, 0
4, 5760, Note_on_c, 2, 72, 51
4, 5779, Note_on_c, 2, 72, 0
4, 5780, Note_on_c, 2, 72, 51
4, 5799, Note_on_c, 2, 72, 0
4, 5800, Note_on_c, 2, 72, 51
4, 5819, Note_on_c, 2, 72, 0
4, 5820, Note_on_c, 2, 72, 51
4, 5839, Note_on_c, 2, 72, 0
4, 5840, Note_on_c, 2, 72, 51
4, 5859, Note_on_c, 2, 72, 0
4, 5860, Note_on_c, 2, 72, 51
4, 5879, Note_on_c, 2, 72, 0
4, 5880, Note_on_c, 2, 72, 51
4, 5899, Note_on_c, 2, 72, 0
4, 5900, Note_on_c, 2, 72, 51
4, 5919, Note_on_c, 2, 72, 0
4, 5920, Note_on_c, 2, 72, 51
4, 5939, Note_on_c, 2, 72, 0
4, 5940, Note_on_c, 2, 72, 51
4, 5959, Note_on_c, 2, 72, 0
4, 5960, Note_on_c, 2, 72, 51
4, 5979, Note_on_c, 2, 72, 0
4, 5980, Note_on_c, 2, 72, 51
4, 5999, Note_on_c, 2, 72, 0
4, 6000, Note_on_c, 2, 74, 51
4, 6019, Note_on_c, 2, 74, 0
4, 6020, Note_on_c, 2, 74, 51
4, 6039, Note_on_c, 2, 74, 0
4, 6040, Note_on_c, 2, 74, 51
4, 6059, Note_on_c, 2, 74, 0
4, 6060, Note_on_c, 2, 74, 51
4, 6079, Note_on_c, 2, 74, 0
4, 6080, Note_on_c, 2, 74, 51
4, 6099, Note_on_c, 2, 74, 0
4, 6100, Note_on_c, 2, 74, 51
4, 6119, Note_on_c, 2, 74, 0
4, 6120, Note_on_c, 2, 74, 51
4, 6139, Note_on_c, 2, 74, 0
4, 6140, Note_on_c, 2, 74, 51
4, 6159, Note_on_c, 2, 74, 0
4, 6160, Note_on_c, 2, 74, 51
4, 6179, Note_on_c, 2, 74, 0
4, 6180, Note_on_c, 2, 74, 51
4, 6199, Note_on_c, 2, 74, 0
4, 6200, Note_on_c, 2, 74, 51
4, 6219, Note_on_c, 2, 74, 0
4, 6220, Note_on_c, 2, 74, 51
4, 6239, Note_on_c, 2, 74, 0
4, 6240, Note_on_c, 2, 75, 51
4, 6259, Note_on_c, 2, 75, 0
4, 6260, Note_on_c, 2, 75, 51
4, 6279, Note_on_c, 2, 75, 0
4, 6280, Note_on_c, 2, 75, 51
4, 6299, Note_on_c, 2, 75, 0
4, 6300, Note_on_c, 2, 75, 51
4, 6319, Note_on_c, 2, 75, 0
4, 6320, Note_on_c, 2, 75, 51
4, 6339, Note_on_c, 2, 75, 0
4, 6340, Note_on_c, 2, 75, 51
4, 6359, Note_on_c, 2, 75, 0
4, 6360, Note_on_c, 2, 75, 51
4, 6379, Note_on_c, 2, 75, 0
4, 6380, Note_on_c, 2, 75, 51
4, 6399, Note_on_c, 2, 75, 0
4, 6400, Note_on_c, 2, 75, 51
4, 6419, Note_on_c, 2, 75, 0
4, 6420, Note_on_c, 2, 75, 51
4, 6439, Note_on_c, 2, 75, 0
4, 6440, Note_on_c, 2, 75, 51
4, 6459, Note_on_c, 2, 75, 0
4, 6460, Note_on_c, 2, 75, 51
4, 6479, Note_on_c, 2, 75, 0
4, 6480, Note_on_c, 2, 65, 51
4, 6499, Note_on_c, 2, 65, 0
4, 6500, Note_on_c, 2, 65, 51
4, 6519, Note_on_c, 2, 65, 0
4, 6520, Note_on_c, 2, 65, 51
4, 6539, Note_on_c, 2, 65, 0
4, 6540, Note_on_c, 2, 65, 51
4, 6559, Note_on_c, 2, 65, 0
4, 6560, Note_on_c, 2, 65, 51
4, 6579, Note_on_c, 2, 65, 0
4, 6580, Note_on_c, 2, 65, 51
4, 6599, Note_on_c, 2, 65, 0
4, 6600, Note_on_c, 2, 65, 51
4, 6619, Note_on_c, 2, 65, 0
4, 6620, Note_on_c, 2, 65, 51
4, 6639, Note_on_c, 2, 65, 0
4, 6640, Note_on_c, 2, 65, 51
4, 6659, Note_on_c, 2, 65, 0
4, 6660, Note_on_c, 2, 65, 51
4, 6679, Note_on_c, 2, 65, 0
4, 6680, Note_on_c, 2, 65, 51
4, 6699, Note_on_c, 2, 65, 0
4, 6700, Note_on_c, 2, 65, 51
4, 6719, Note_on_c, 2, 65, 0
4, 6720, Note_on_c, 2, 63, 51
4, 6739, Note_on_c, 2, 63, 0
4, 6740, Note_on_c, 2, 63, 51
4, 6740, Note_on_c, 2, 55, 51
4, 6759, Note_on_c, 2, 63, 0
4, 6759, Note_on_c, 2, 55, 0
4, 6760, Note_on_c, 2, 63, 51
4, 6760, Note_on_c, 2, 55, 51
4, 6779, Note_on_c, 2, 63, 0
4, 6779, Note_on_c, 2, 55, 0
4, 6780, Note_on_c, 2, 63, 51
4, 6780, Note_on_c, 2, 55, 51
4, 6799, Note_on_c, 2, 63, 0
4, 6799, Note_on_c, 2, 55, 0
4, 6800, Note_on_c, 2, 63, 51
4, 6800, Note_on_c, 2, 55, 51
4, 6819, Note_on_c, 2, 63, 0
4, 6819, Note_on_c, 2, 55, 0
4, 6820, Note_on_c, 2, 63, 51
4, 6820, Note_on_c, 2, 55, 51
4, 6839, Note_on_c, 2, 63, 0
4, 6839, Note_on_c, 2, 55, 0
4, 6840, Note_on_c, 2, 63, 51
4, 6840, Note_on_c, 2, 55, 51
4, 6899, Note_on_c, 2, 63, 0
4, 6899, Note_on_c, 2, 55, 0
4, 6960, Note_on_c, 2, 72, 79
4, 6979, Note_on_c, 2, 72, 0
4, 6980, Note_on_c, 2, 72, 79
4, 6999, Note_on_c, 2, 72, 0
4, 7000, Note_on_c, 2, 72, 79
4, 7019, Note_on_c, 2, 72, 0
4, 7020, Note_on_c, 2, 79, 79
4, 7039, Note_on_c, 2, 79, 0
4, 7040, Note_on_c, 2, 76, 79
4, 7059, Note_on_c, 2, 76, 0
4, 7060, Note_on_c, 2, 72, 79
4, 7079, Note_on_c, 2, 72, 0
4, 7080, Note_on_c, 2, 72, 79
4, 7099, Note_on_c, 2, 72, 0
4, 7100, Note_on_c, 2, 72, 79
4, 7119, Note_on_c, 2, 72, 0
4, 7120, Note_on_c, 2, 72, 79
4, 7139, Note_on_c, 2, 72, 0
4, 7140, Note_on_c, 2, 80, 79
4, 7159, Note_on_c, 2, 80, 0
4, 7160, Note_on_c, 2, 77, 79
4, 7179, Note_on_c, 2, 77, 0
4, 7180, Note_on_c, 2, 72, 79
4, 7199, Note_on_c, 2, 72, 0
4, 7200, Note_on_c, 2, 72, 79
4, 7219, Note_on_c, 2, 72, 0
4, 7220, Note_on_c, 2, 72, 79
4, 7239, Note_on_c, 2, 72, 0
4, 7240, Note_on_c, 2, 72, 79
4, 7259, Note_on_c, 2, 72, 0
4, 7260, Note_on_c, 2, 82, 79
4, 7279, Note_on_c, 2, 82, 0
4, 7280, Note_on_c, 2, 79, 79
4, 7299, Note_on_c, 2, 79, 0
4, 7300, Note_on_c, 2, 72, 79
4, 7319, Note_on_c, 2, 72, 0
4, 7320, Note_on_c, 2, 72, 79
4, 7339, Note_on_c, 2, 72, 0
4, 7340, Note_on_c, 2, 72, 79
4, 7359, Note_on_c, 2, 72, 0
4, 7360, Note_on_c, 2, 72, 79
4, 7379, Note_on_c, 2, 72, 0
4, 7380, Note_on_c, 2, 84, 79
4, 7399, Note_on_c, 2, 84, 0
4, 7400, Note_on_c, 2, 80, 79
4, 7419, Note_on_c, 2, 80, 0
4, 7420, Note_on_c, 2, 72, 79
4, 7439, Note_on_c, 2, 72, 0
4, 7440, Note_on_c, 2, 74, 79
4, 7459, Note_on_c, 2, 74, 0
4, 7460, Note_on_c, 2, 74, 79
4, 7479, Note_on_c, 2, 74, 0
4, 7480, Note_on_c, 2, 74, 79
4, 7499, Note_on_c, 2, 74, 0
4, 7500, Note_on_c, 2, 81, 79
4, 7519, Note_on_c, 2, 81, 0
4, 7520, Note_on_c, 2, 78, 79
4, 7539, Note_on_c, 2, 78, 0
4, 7540, Note_on_c, 2, 74, 79
4, 7559, Note_on_c, 2, 74, 0
4, 7560, Note_on_c, 2, 74, 79
4, 7579, Note_on_c, 2, 74, 0
4, 7580, Note_on_c, 2, 74, 79
4, 7599, Note_on_c, 2, 74, 0
4, 7600, Note_on_c, 2, 74, 79
4, 7619, Note_on_c, 2, 74, 0
4, 7620, Note_on_c, 2, 82, 79
4, 7639, Note_on_c, 2, 82, 0
4, 7640, Note_on_c, 2, 79, 79
4, 7659, Note_on_c, 2, 79, 0
4, 7660, Note_on_c, 2, 74, 79
4, 7679, Note_on_c, 2, 74, 0
4, 7680, Note_on_c, 2, 74, 79
4, 7699, Note_on_c, 2, 74, 0
4, 7700, Note_on_c, 2, 74, 79
4, 7719, Note_on_c, 2, 74, 0
4, 7720, Note_on_c, 2, 74, 79
4, 7739, Note_on_c, 2, 74, 0
4, 7740, Note_on_c, 2, 84, 79
4, 7759, Note_on_c, 2, 84, 0
4, 7760, Note_on_c, 2, 81, 79
4, 7779, Note_on_c, 2, 81, 0
4, 7780, Note_on_c, 2, 74, 79
4, 7799, Note_on_c, 2, 74, 0
4, 7800, Note_on_c, 2, 74, 79
4, 7819, Note_on_c, 2, 74, 0
4, 7820, Note_on_c, 2, 74, 79
4, 7839, Note_on_c, 2, 74, 0
4, 7840, Note_on_c, 2, 74, 79
4, 7859, Note_on_c, 2, 74, 0
4, 7860, Note_on_c, 2, 86, 79
4, 7879, Note_on_c, 2, 86, 0
4, 7880, Note_on_c, 2, 83, 79
4, 7899, Note_on_c, 2, 83, 0
4, 7900, Note_on_c, 2, 79, 79
4, 7919, Note_on_c, 2, 79, 0
4, 7920, Note_on_c, 2, 79, 92
4, 7939, Note_on_c, 2, 79, 0
4, 7940, Note_on_c, 2, 79, 92
4, 7959, Note_on_c, 2, 79, 0
4, 7960, Note_on_c, 2, 79, 92
4, 7979, Note_on_c, 2, 79, 0
4, 7980, Note_on_c, 2, 79, 92
4, 7999, Note_on_c, 2, 79, 0
4, 8000, Note_on_c, 2, 79, 92
4, 8019, Note_on_c, 2, 79, 0
4, 8020, Note_on_c, 2, 79, 92
4, 8039, Note_on_c, 2, 79, 0
4, 8040, Note_on_c, 2, 80, 92
4, 8059, Note_on_c, 2, 80, 0
4, 8060, Note_on_c, 2, 79, 92
4, 8079, Note_on_c, 2, 79, 0
4, 8080, Note_on_c, 2, 77, 92
4, 8099, Note_on_c, 2, 77, 0
4, 8100, Note_on_c, 2, 75, 92
4, 8119, Note_on_c, 2, 75, 0
4, 8120, Note_on_c, 2, 74, 92
4, 8139, Note_on_c, 2, 74, 0
4, 8140, Note_on_c, 2, 72, 92
4, 8159, Note_on_c, 2, 72, 0
4, 8160, Note_on_c, 2, 71, 92
4, 8179, Note_on_c, 2, 71, 0
4, 8180, Note_on_c, 2, 67, 51
4, 8199, Note_on_c, 2, 67, 0
4, 8200, Note_on_c, 2, 67, 51
4, 8219, Note_on_c, 2, 67, 0
4, 8220, Note_on_c, 2, 67, 51
4, 8239, Note_on_c, 2, 67, 0
4, 8240, Note_on_c, 2, 67, 51
4, 8259, Note_on_c, 2, 67, 0
4, 8260, Note_on_c, 2, 67, 51
4, 8279, Note_on_c, 2, 67, 0
4, 8280, Note_on_c, 2, 67, 51
4, 8339, Note_on_c, 2, 67, 0
4, 8640, Note_on_c, 2, 62, 51
4, 8659, Note_on_c, 2, 62, 0
4, 8660, Note_on_c, 2, 62, 51
4, 8679, Note_on_c, 2, 62, 0
4, 8680, Note_on_c, 2, 62, 51
4, 8699, Note_on_c, 2, 62, 0
4, 8700, Note_on_c, 2, 62, 51
4, 8719, Note_on_c, 2, 62, 0
4, 8720, Note_on_c, 2, 62, 51
4, 8739, Note_on_c, 2, 62, 0
4, 8740, Note_on_c, 2, 62, 51
4, 8759, Note_on_c, 2, 62, 0
4, 8760, Note_on_c, 2, 62, 51
4, 8779, Note_on_c, 2, 62, 0
4, 8780, Note_on_c, 2, 62, 51
4, 8799, Note_on_c, 2, 62, 0
4, 8800, Note_on_c, 2, 62, 51
4, 8819, Note_on_c, 2, 62, 0
4, 8820, Note_on_c, 2, 62, 51
4, 8839, Note_on_c, 2, 62, 0
4, 8840, Note_on_c, 2, 62, 51
4, 8859, Note_on_c, 2, 62, 0
4, 8860, Note_on_c, 2, 62, 51
4, 8879, Note_on_c, 2, 62, 0
4, 8880, Note_on_c, 2, 62, 51
4, 8899, Note_on_c, 2, 62, 0
4, 8900, Note_on_c, 2, 62, 51
4, 8919, Note_on_c, 2, 62, 0
4, 8920, Note_on_c, 2, 62, 51
4, 8939, Note_on_c, 2, 62, 0
4, 8940, Note_on_c, 2, 62, 51
4, 8959, Note_on_c, 2, 62, 0
4, 8960, Note_on_c, 2, 62, 51
4, 8979, Note_on_c, 2, 62, 0
4, 8980, Note_on_c, 2, 62, 51
4, 8999, Note_on_c, 2, 62, 0
4, 9000, Note_on_c, 2, 62, 51
4, 9019, Note_on_c, 2, 62, 0
4, 9020, Note_on_c, 2, 62, 51
4, 9039, Note_on_c, 2, 62, 0
4, 9040, Note_on_c, 2, 62, 51
4, 9059, Note_on_c, 2, 62, 0
4, 9060, Note_on_c, 2, 62, 51
4, 9079, Note_on_c, 2, 62, 0
4, 9080, Note_on_c, 2, 62, 51
4, 9099, Note_on_c, 2, 62, 0
4, 9100, Note_on_c, 2, 62, 51
4, 9119, Note_on_c, 2, 62, 0
4, 9120, Note_on_c, 2, 62, 51
4, 9139, Note_on_c, 2, 62, 0
4, 9140, Note_on_c, 2, 62, 51
4, 9159, Note_on_c, 2, 62, 0
4, 9160, Note_on_c, 2, 62, 51
4, 9179, Note_on_c, 2, 62, 0
4, 9180, Note_on_c, 2, 62, 51
4, 9199, Note_on_c, 2, 62, 0
4, 9200, Note_on_c, 2, 62, 51
4, 9219, Note_on_c, 2, 62, 0
4, 9220, Note_on_c, 2, 62, 51
4, 9239, Note_on_c, 2, 62, 0
4, 9240, Note_on_c, 2, 60, 51
4, 9259, Note_on_c, 2, 60, 0
4, 9260, Note_on_c, 2, 60, 51
4, 9279, Note_on_c, 2, 60, 0
4, 9280, Note_on_c, 2, 60, 51
4, 9299, Note_on_c, 2, 60, 0
4, 9300, Note_on_c, 2, 60, 51
4, 9319, Note_on_c, 2, 60, 0
4, 9320, Note_on_c, 2, 60, 51
4, 9339, Note_on_c, 2, 60, 0
4, 9340, Note_on_c, 2, 60, 51
4, 9359, Note_on_c, 2, 60, 0
4, 9360, Note_on_c, 2, 65, 51
4, 9379, Note_on_c, 2, 65, 0
4, 9380, Note_on_c, 2, 65, 51
4, 9399, Note_on_c, 2, 65, 0
4, 9400, Note_on_c, 2, 65, 51
4, 9419, Note_on_c, 2, 65, 0
4, 9420, Note_on_c, 2, 65, 51
4, 9439, Note_on_c, 2, 65, 0
4, 9440, Note_on_c, 2, 65, 51
4, 9459, Note_on_c, 2, 65, 0
4, 9460, Note_on_c, 2, 65, 51
4, 9479, Note_on_c, 2, 65, 0
4, 9480, Note_on_c, 2, 65, 51
4, 9499, Note_on_c, 2, 65, 0
4, 9500, Note_on_c, 2, 65, 51
4, 9519, Note_on_c, 2, 65, 0
4, 9520, Note_on_c, 2, 65, 51
4, 9539, Note_on_c, 2, 65, 0
4, 9540, Note_on_c, 2, 65, 51
4, 9559, Note_on_c, 2, 65, 0
4, 9560, Note_on_c, 2, 65, 51
4, 9579, Note_on_c, 2, 65, 0
4, 9580, Note_on_c, 2, 65, 51
4, 9599, Note_on_c, 2, 65, 0
4, 9600, Note_on_c, 2, 65, 51
4, 9619, Note_on_c, 2, 65, 0
4, 9620, Note_on_c, 2, 65, 51
4, 9639, Note_on_c, 2, 65, 0
4, 9640, Note_on_c, 2, 65, 51
4, 9659, Note_on_c, 2, 65, 0
4, 9660, Note_on_c, 2, 65, 51
4, 9679, Note_on_c, 2, 65, 0
4, 9680, Note_on_c, 2, 65, 51
4, 9699, Note_on_c, 2, 65, 0
4, 9700, Note_on_c, 2, 65, 51
4, 9719, Note_on_c, 2, 65, 0
4, 9720, Note_on_c, 2, 63, 51
4, 9739, Note_on_c, 2, 63, 0
4, 9740, Note_on_c, 2, 63, 51
4, 9759, Note_on_c, 2, 63, 0
4, 9760, Note_on_c, 2, 63, 51
4, 9779, Note_on_c, 2, 63, 0
4, 9780, Note_on_c, 2, 63, 51
4, 9799, Note_on_c, 2, 63, 0
4, 9800, Note_on_c, 2, 63, 51
4, 9819, Note_on_c, 2, 63, 0
4, 9820, Note_on_c, 2, 63, 51
4, 9839, Note_on_c, 2, 63, 0
4, 9840, Note_on_c, 2, 68, 51
4, 9859, Note_on_c, 2, 68, 0
4, 9860, Note_on_c, 2, 68, 51
4, 9879, Note_on_c, 2, 68, 0
4, 9880, Note_on_c, 2, 68, 51
4, 9899, Note_on_c, 2, 68, 0
4, 9900, Note_on_c, 2, 68, 51
4, 9919, Note_on_c, 2, 68, 0
4, 9920, Note_on_c, 2, 67, 51
4, 9939, Note_on_c, 2, 67, 0
4, 9940, Note_on_c, 2, 65, 51
4, 9959, Note_on_c, 2, 65, 0
4, 9960, Note_on_c, 2, 63, 51
4, 9995, Note_on_c, 2, 63, 0
4, 10020, Note_on_c, 2, 63, 51
4, 10025, Note_on_c, 2, 63, 0
4, 10030, Note_on_c, 2, 62, 51
4, 10035, Note_on_c, 2, 62, 0
4, 10040, Note_on_c, 2, 63, 51
4, 10045, Note_on_c, 2, 63, 0
4, 10050, Note_on_c, 2, 62, 51
4, 10055, Note_on_c, 2, 62, 0
4, 10060, Note_on_c, 2, 60, 51
4, 10065, Note_on_c, 2, 60, 0
4, 10070, Note_on_c, 2, 62, 51
4, 10075, Note_on_c, 2, 62, 0
4, 10080, Note_on_c, 2, 60, 51
4, 10115, Note_on_c, 2, 60, 0
4, 10320, Note_on_c, 2, 62, 51
4, 10339, Note_on_c, 2, 62, 0
4, 10340, Note_on_c, 2, 62, 51
4, 10359, Note_on_c, 2, 62, 0
4, 10360, Note_on_c, 2, 62, 51
4, 10379, Note_on_c, 2, 62, 0
4, 10380, Note_on_c, 2, 62, 51
4, 10399, Note_on_c, 2, 62, 0
4, 10400, Note_on_c, 2, 62, 51
4, 10419, Note_on_c, 2, 62, 0
4, 10420, Note_on_c, 2, 62, 51
4, 10439, Note_on_c, 2, 62, 0
4, 10440, Note_on_c, 2, 62, 51
4, 10459, Note_on_c, 2, 62, 0
4, 10460, Note_on_c, 2, 62, 51
4, 10479, Note_on_c, 2, 62, 0
4, 10480, Note_on_c, 2, 62, 51
4, 10499, Note_on_c, 2, 62, 0
4, 10500, Note_on_c, 2, 62, 51
4, 10519, Note_on_c, 2, 62, 0
4, 10520, Note_on_c, 2, 62, 51
4, 10539, Note_on_c, 2, 62, 0
4, 10540, Note_on_c, 2, 62, 51
4, 10559, Note_on_c, 2, 62, 0
4, 10560, Note_on_c, 2, 62, 51
4, 10579, Note_on_c, 2, 62, 0
4, 10580, Note_on_c, 2, 62, 51
4, 10599, Note_on_c, 2, 62, 0
4, 10600, Note_on_c, 2, 62, 51
4, 10619, Note_on_c, 2, 62, 0
4, 10620, Note_on_c, 2, 62, 51
4, 10639, Note_on_c, 2, 62, 0
4, 10640, Note_on_c, 2, 62, 51
4, 10659, Note_on_c, 2, 62, 0
4, 10660, Note_on_c, 2, 62, 51
4, 10679, Note_on_c, 2, 62, 0
4, 10680, Note_on_c, 2, 62, 51
4, 10699, Note_on_c, 2, 62, 0
4, 10700, Note_on_c, 2, 62, 51
4, 10719, Note_on_c, 2, 62, 0
4, 10720, Note_on_c, 2, 62, 51
4, 10739, Note_on_c, 2, 62, 0
4, 10740, Note_on_c, 2, 62, 51
4, 10759, Note_on_c, 2, 62, 0
4, 10760, Note_on_c, 2, 62, 51
4, 10779, Note_on_c, 2, 62, 0
4, 10780, Note_on_c, 2, 62, 51
4, 10799, Note_on_c, 2, 62, 0
4, 10800, Note_on_c, 2, 62, 51
4, 10819, Note_on_c, 2, 62, 0
4, 10820, Note_on_c, 2, 62, 51
4, 10839, Note_on_c, 2, 62, 0
4, 10840, Note_on_c, 2, 62, 51
4, 10859, Note_on_c, 2, 62, 0
4, 10860, Note_on_c, 2, 62, 51
4, 10879, Note_on_c, 2, 62, 0
4, 10880, Note_on_c, 2, 62, 51
4, 10899, Note_on_c, 2, 62, 0
4, 10900, Note_on_c, 2, 62, 51
4, 10919, Note_on_c, 2, 62, 0
4, 10920, Note_on_c, 2, 60, 51
4, 10939, Note_on_c, 2, 60, 0
4, 10940, Note_on_c, 2, 60, 51
4, 10959, Note_on_c, 2, 60, 0
4, 10960, Note_on_c, 2, 60, 51
4, 10979, Note_on_c, 2, 60, 0
4, 10980, Note_on_c, 2, 60, 51
4, 10999, Note_on_c, 2, 60, 0
4, 11000, Note_on_c, 2, 60, 51
4, 11019, Note_on_c, 2, 60, 0
4, 11020, Note_on_c, 2, 60, 51
4, 11039, Note_on_c, 2, 60, 0
4, 11040, Note_on_c, 2, 65, 51
4, 11059, Note_on_c, 2, 65, 0
4, 11060, Note_on_c, 2, 65, 51
4, 11079, Note_on_c, 2, 65, 0
4, 11080, Note_on_c, 2, 65, 51
4, 11099, Note_on_c, 2, 65, 0
4, 11100, Note_on_c, 2, 65, 51
4, 11119, Note_on_c, 2, 65, 0
4, 11120, Note_on_c, 2, 65, 51
4, 11139, Note_on_c, 2, 65, 0
4, 11140, Note_on_c, 2, 65, 51
4, 11159, Note_on_c, 2, 65, 0
4, 11160, Note_on_c, 2, 65, 51
4, 11179, Note_on_c, 2, 65, 0
4, 11180, Note_on_c, 2, 65, 51
4, 11199, Note_on_c, 2, 65, 0
4, 11200, Note_on_c, 2, 65, 51
4, 11219, Note_on_c, 2, 65, 0
4, 11220, Note_on_c, 2, 65, 51
4, 11239, Note_on_c, 2, 65, 0
4, 11240, Note_on_c, 2, 65, 51
4, 11259, Note_on_c, 2, 65, 0
4, 11260, Note_on_c, 2, 65, 51
4, 11279, Note_on_c, 2, 65, 0
4, 11280, Note_on_c, 2, 65, 51
4, 11299, Note_on_c, 2, 65, 0
4, 11300, Note_on_c, 2, 65, 51
4, 11319, Note_on_c, 2, 65, 0
4, 11320, Note_on_c, 2, 65, 51
4, 11339, Note_on_c, 2, 65, 0
4, 11340, Note_on_c, 2, 65, 51
4, 11359, Note_on_c, 2, 65, 0
4, 11360, Note_on_c, 2, 65, 51
4, 11379, Note_on_c, 2, 65, 0
4, 11380, Note_on_c, 2, 65, 51
4, 11399, Note_on_c, 2, 65, 0
4, 11400, Note_on_c, 2, 63, 51
4, 11419, Note_on_c, 2, 63, 0
4, 11420, Note_on_c, 2, 63, 51
4, 11439, Note_on_c, 2, 63, 0
4, 11440, Note_on_c, 2, 63, 51
4, 11459, Note_on_c, 2, 63, 0
4, 11460, Note_on_c, 2, 63, 51
4, 11479, Note_on_c, 2, 63, 0
4, 11480, Note_on_c, 2, 63, 51
4, 11499, Note_on_c, 2, 63, 0
4, 11500, Note_on_c, 2, 63, 51
4, 11519, Note_on_c, 2, 63, 0
4, 11520, Note_on_c, 2, 68, 51
4, 11539, Note_on_c, 2, 68, 0
4, 11540, Note_on_c, 2, 68, 51
4, 11559, Note_on_c, 2, 68, 0
4, 11560, Note_on_c, 2, 68, 51
4, 11579, Note_on_c, 2, 68, 0
4, 11580, Note_on_c, 2, 68, 51
4, 11599, Note_on_c, 2, 68, 0
4, 11600, Note_on_c, 2, 67, 51
4, 11619, Note_on_c, 2, 67, 0
4, 11620, Note_on_c, 2, 65, 51
4, 11639, Note_on_c, 2, 65, 0
4, 11640, Note_on_c, 2, 63, 51
4, 11675, Note_on_c, 2, 63, 0
4, 11700, Note_on_c, 2, 63, 51
4, 11705, Note_on_c, 2, 63, 0
4, 11710, Note_on_c, 2, 62, 51
4, 11715, Note_on_c, 2, 62, 0
4, 11720, Note_on_c, 2, 63, 51
4, 11725, Note_on_c, 2, 63, 0
4, 11730, Note_on_c, 2, 62, 51
4, 11735, Note_on_c, 2, 62, 0
4, 11740, Note_on_c, 2, 60, 51
4, 11745, Note_on_c, 2, 60, 0
4, 11750, Note_on_c, 2, 62, 51
4, 11755, Note_on_c, 2, 62, 0
4, 11760, Note_on_c, 2, 60, 51
4, 11779, Note_on_c, 2, 60, 0
4, 11780, Note_on_c, 2, 63, 51
4, 11780, Note_on_c, 2, 72, 51
4, 11799, Note_on_c, 2, 63, 0
4, 11799, Note_on_c, 2, 72, 0
4, 11800, Note_on_c, 2, 63, 51
4, 11800, Note_on_c, 2, 72, 51
4, 11819, Note_on_c, 2, 63, 0
4, 11819, Note_on_c, 2, 72, 0
4, 11820, Note_on_c, 2, 63, 51
4, 11820, Note_on_c, 2, 72, 51
4, 11839, Note_on_c, 2, 63, 0
4, 11839, Note_on_c, 2, 72, 0
4, 11840, Note_on_c, 2, 63, 51
4, 11840, Note_on_c, 2, 72, 51
4, 11859, Note_on_c, 2, 63, 0
4, 11859, Note_on_c, 2, 72, 0
4, 11860, Note_on_c, 2, 63, 51
4, 11860, Note_on_c, 2, 72, 51
4, 11879, Note_on_c, 2, 63, 0
4, 11879, Note_on_c, 2, 72, 0
4, 11880, Note_on_c, 2, 63, 51
4, 11880, Note_on_c, 2, 72, 51
4, 11939, Note_on_c, 2, 63, 0
4, 11939, Note_on_c, 2, 72, 0
4, 11970, Note_on_c, 2, 72, 51
4, 11999, Note_on_c, 2, 72, 0
4, 12000, Note_on_c, 2, 72, 51
4, 12035, Note_on_c, 2, 72, 0
4, 12060, Note_on_c, 2, 75, 51
4, 12095, Note_on_c, 2, 75, 0
4, 12120, Note_on_c, 2, 72, 51
4, 12155, Note_on_c, 2, 72, 0
4, 12155, End_track
5, 0, Start_track
5, 0, MIDI_port, 0
5, 0, Title_t, "2nd Violin"
5, 0, Program_c, 3, 40
5, 240, Note_on_c, 3, 75, 51
5, 259, Note_on_c, 3, 75, 0
5, 260, Note_on_c, 3, 75, 51
5, 279, Note_on_c, 3, 75, 0
5, 280, Note_on_c, 3, 75, 51
5, 299, Note_on_c, 3, 75, 0
5, 300, Note_on_c, 3, 75, 51
5, 319, Note_on_c, 3, 75, 0
5, 320, Note_on_c, 3, 75, 51
5, 339, Note_on_c, 3, 75, 0
5, 340, Note_on_c, 3, 75, 51
5, 359, Note_on_c, 3, 75, 0
5, 360, Note_on_c, 3, 75, 51
5, 379, Note_on_c, 3, 75, 0
5, 380, Note_on_c, 3, 75, 51
5, 399, Note_on_c, 3, 75, 0
5, 400, Note_on_c, 3, 75, 51
5, 419, Note_on_c, 3, 75, 0
5, 420, Note_on_c, 3, 75, 51
5, 439, Note_on_c, 3, 75, 0
5, 440, Note_on_c, 3, 75, 51
5, 459, Note_on_c, 3, 75, 0
5, 460, Note_on_c, 3, 75, 51
5, 479, Note_on_c, 3, 75, 0
5, 480, Note_on_c, 3, 77, 51
5, 499, Note_on_c, 3, 77, 0
5, 500, Note_on_c, 3, 77, 51
5, 519, Note_on_c, 3, 77, 0
5, 520, Note_on_c, 3, 77, 51
5, 539, Note_on_c, 3, 77, 0
5, 540, Note_on_c, 3, 77, 51
5, 559, Note_on_c, 3, 77, 0
5, 560, Note_on_c, 3, 77, 51
5, 579, Note_on_c, 3, 77, 0
5, 580, Note_on_c, 3, 77, 51
5, 599, Note_on_c, 3, 77, 0
5, 600, Note_on_c, 3, 77, 51
5, 619, Note_on_c, 3, 77, 0
5, 620, Note_on_c, 3, 77, 51
5, 639, Note_on_c, 3, 77, 0
5, 640, Note_on_c, 3, 77, 51
5, 659, Note_on_c, 3, 77, 0
5, 660, Note_on_c, 3, 77, 51
5, 679, Note_on_c, 3, 77, 0
5, 680, Note_on_c, 3, 77, 51
5, 699, Note_on_c, 3, 77, 0
5, 700, Note_on_c, 3, 77, 51
5, 719, Note_on_c, 3, 77, 0
5, 720, Note_on_c, 3, 74, 51
5, 739, Note_on_c, 3, 74, 0
5, 740, Note_on_c, 3, 74, 51
5, 759, Note_on_c, 3, 74, 0
5, 760, Note_on_c, 3, 74, 51
5, 779, Note_on_c, 3, 74, 0
5, 780, Note_on_c, 3, 74, 51
5, 799, Note_on_c, 3, 74, 0
5, 800, Note_on_c, 3, 74, 51
5, 819, Note_on_c, 3, 74, 0
5, 820, Note_on_c, 3, 74, 51
5, 839, Note_on_c, 3, 74, 0
5, 840, Note_on_c, 3, 74, 51
5, 859, Note_on_c, 3, 74, 0
5, 860, Note_on_c, 3, 74, 51
5, 879, Note_on_c, 3, 74, 0
5, 880, Note_on_c, 3, 74, 51
5, 899, Note_on_c, 3, 74, 0
5, 900, Note_on_c, 3, 74, 51
5, 919, Note_on_c, 3, 74, 0
5, 920, Note_on_c, 3, 74, 51
5, 939, Note_on_c, 3, 74, 0
5, 940, Note_on_c, 3, 74, 51
5, 959, Note_on_c, 3, 74, 0
5, 960, Note_on_c, 3, 72, 51
5, 979, Note_on_c, 3, 72, 0
5, 980, Note_on_c, 3, 72, 51
5, 999, Note_on_c, 3, 72, 0
5, 1000, Note_on_c, 3, 72, 51
5, 1019, Note_on_c, 3, 72, 0
5, 1020, Note_on_c, 3, 72, 51
5, 1039, Note_on_c, 3, 72, 0
5, 1040, Note_on_c, 3, 72, 51
5, 1059, Note_on_c, 3, 72, 0
5, 1060, Note_on_c, 3, 72, 51
5, 1079, Note_on_c, 3, 72, 0
5, 1080, Note_on_c, 3, 72, 51
5, 1099, Note_on_c, 3, 72, 0
5, 1100, Note_on_c, 3, 72, 51
5, 1119, Note_on_c, 3, 72, 0
5, 1120, Note_on_c, 3, 72, 51
5, 1139, Note_on_c, 3, 72, 0
5, 1140, Note_on_c, 3, 72, 51
5, 1159, Note_on_c, 3, 72, 0
5, 1160, Note_on_c, 3, 72, 51
5, 1179, Note_on_c, 3, 72, 0
5, 1180, Note_on_c, 3, 72, 51
5, 1199, Note_on_c, 3, 72, 0
5, 1200, Note_on_c, 3, 72, 51
5, 1219, Note_on_c, 3, 72, 0
5, 1220, Note_on_c, 3, 72, 51
5, 1239, Note_on_c, 3, 72, 0
5, 1240, Note_on_c, 3, 72, 51
5, 1259, Note_on_c, 3, 72, 0
5, 1260, Note_on_c, 3, 72, 51
5, 1279, Note_on_c, 3, 72, 0
5, 1280, Note_on_c, 3, 72, 51
5, 1299, Note_on_c, 3, 72, 0
5, 1300, Note_on_c, 3, 72, 51
5, 1319, Note_on_c, 3, 72, 0
5, 1320, Note_on_c, 3, 72, 51
5, 1339, Note_on_c, 3, 72, 0
5, 1340, Note_on_c, 3, 72, 51
5, 1359, Note_on_c, 3, 72, 0
5, 1360, Note_on_c, 3, 72, 51
5, 1379, Note_on_c, 3, 72, 0
5, 1380, Note_on_c, 3, 71, 51
5, 1399, Note_on_c, 3, 71, 0
5, 1400, Note_on_c, 3, 71, 51
5, 1419, Note_on_c, 3, 71, 0
5, 1420, Note_on_c, 3, 71, 51
5, 1439, Note_on_c, 3, 71, 0
5, 1440, Note_on_c, 3, 72, 51
5, 1459, Note_on_c, 3, 72, 0
5, 1460, Note_on_c, 3, 67, 51
5, 1479, Note_on_c, 3, 67, 0
5, 1480, Note_on_c, 3, 67, 51
5, 1499, Note_on_c, 3, 67, 0
5, 1500, Note_on_c, 3, 67, 51
5, 1519, Note_on_c, 3, 67, 0
5, 1520, Note_on_c, 3, 67, 51
5, 1539, Note_on_c, 3, 67, 0
5, 1540, Note_on_c, 3, 67, 51
5, 1559, Note_on_c, 3, 67, 0
5, 1560, Note_on_c, 3, 67, 17
5, 1619, Note_on_c, 3, 67, 0
5, 1680, Note_on_c, 3, 63, 51
5, 1699, Note_on_c, 3, 63, 0
5, 1700, Note_on_c, 3, 63, 51
5, 1719, Note_on_c, 3, 63, 0
5, 1720, Note_on_c, 3, 63, 51
5, 1739, Note_on_c, 3, 63, 0
5, 1740, Note_on_c, 3, 63, 51
5, 1759, Note_on_c, 3, 63, 0
5, 1760, Note_on_c, 3, 63, 51
5, 1779, Note_on_c, 3, 63, 0
5, 1780, Note_on_c, 3, 63, 51
5, 1799, Note_on_c, 3, 63, 0
5, 1800, Note_on_c, 3, 63, 51
5, 1819, Note_on_c, 3, 63, 0
5, 1820, Note_on_c, 3, 63, 51
5, 1839, Note_on_c, 3, 63, 0
5, 1840, Note_on_c, 3, 63, 51
5, 1859, Note_on_c, 3, 63, 0
5, 1860, Note_on_c, 3, 63, 51
5, 1879, Note_on_c, 3, 63, 0
5, 1880, Note_on_c, 3, 63, 51
5, 1899, Note_on_c, 3, 63, 0
5, 1900, Note_on_c, 3, 63, 51
5, 1919, Note_on_c, 3, 63, 0
5, 1920, Note_on_c, 3, 63, 51
5, 1939, Note_on_c, 3, 63, 0
5, 1940, Note_on_c, 3, 63, 51
5, 1959, Note_on_c, 3, 63, 0
5, 1960, Note_on_c, 3, 63, 51
5, 1979, Note_on_c, 3, 63, 0
5, 1980, Note_on_c, 3, 63, 51
5, 1999, Note_on_c, 3, 63, 0
5, 2000, Note_on_c, 3, 63, 51
5, 2019, Note_on_c, 3, 63, 0
5, 2020, Note_on_c, 3, 63, 51
5, 2039, Note_on_c, 3, 63, 0
5, 2040, Note_on_c, 3, 63, 51
5, 2059, Note_on_c, 3, 63, 0
5, 2060, Note_on_c, 3, 63, 51
5, 2079, Note_on_c, 3, 63, 0
5, 2080, Note_on_c, 3, 63, 51
5, 2099, Note_on_c, 3, 63, 0
5, 2100, Note_on_c, 3, 63, 51
5, 2119, Note_on_c, 3, 63, 0
5, 2120, Note_on_c, 3, 63, 51
5, 2139, Note_on_c, 3, 63, 0
5, 2140, Note_on_c, 3, 63, 51
5, 2159, Note_on_c, 3, 63, 0
5, 2160, Note_on_c, 3, 63, 51
5, 2179, Note_on_c, 3, 63, 0
5, 2180, Note_on_c, 3, 63, 51
5, 2199, Note_on_c, 3, 63, 0
5, 2200, Note_on_c, 3, 63, 51
5, 2219, Note_on_c, 3, 63, 0
5, 2220, Note_on_c, 3, 63, 51
5, 2239, Note_on_c, 3, 63, 0
5, 2240, Note_on_c, 3, 63, 51
5, 2259, Note_on_c, 3, 63, 0
5, 2260, Note_on_c, 3, 63, 51
5, 2279, Note_on_c, 3, 63, 0
5, 2280, Note_on_c, 3, 62, 51
5, 2299, Note_on_c, 3, 62, 0
5, 2300, Note_on_c, 3, 62, 51
5, 2319, Note_on_c, 3, 62, 0
5, 2320, Note_on_c, 3, 62, 51
5, 2339, Note_on_c, 3, 62, 0
5, 2340, Note_on_c, 3, 62, 51
5, 2359, Note_on_c, 3, 62, 0
5, 2360, Note_on_c, 3, 62, 51
5, 2379, Note_on_c, 3, 62, 0
5, 2380, Note_on_c, 3, 62, 51
5, 2399, Note_on_c, 3, 62, 0
5, 2400, Note_on_c, 3, 67, 51
5, 2419, Note_on_c, 3, 67, 0
5, 2420, Note_on_c, 3, 67, 51
5, 2439, Note_on_c, 3, 67, 0
5, 2440, Note_on_c, 3, 67, 51
5, 2459, Note_on_c, 3, 67, 0
5, 2460, Note_on_c, 3, 67, 51
5, 2479, Note_on_c, 3, 67, 0
5, 2480, Note_on_c, 3, 67, 51
5, 2499, Note_on_c, 3, 67, 0
5, 2500, Note_on_c, 3, 67, 51
5, 2519, Note_on_c, 3, 67, 0
5, 2520, Note_on_c, 3, 67, 51
5, 2539, Note_on_c, 3, 67, 0
5, 2540, Note_on_c, 3, 67, 51
5, 2559, Note_on_c, 3, 67, 0
5, 2560, Note_on_c, 3, 67, 51
5, 2579, Note_on_c, 3, 67, 0
5, 2580, Note_on_c, 3, 67, 51
5, 2599, Note_on_c, 3, 67, 0
5, 2600, Note_on_c, 3, 67, 51
5, 2619, Note_on_c, 3, 67, 0
5, 2620, Note_on_c, 3, 67, 51
5, 2639, Note_on_c, 3, 67, 0
5, 2640, Note_on_c, 3, 67, 51
5, 2659, Note_on_c, 3, 67, 0
5, 2660, Note_on_c, 3, 67, 51
5, 2679, Note_on_c, 3, 67, 0
5, 2680, Note_on_c, 3, 67, 51
5, 2699, Note_on_c, 3, 67, 0
5, 2700, Note_on_c, 3, 67, 51
5, 2719, Note_on_c, 3, 67, 0
5, 2720, Note_on_c, 3, 67, 51
5, 2739, Note_on_c, 3, 67, 0
5, 2740, Note_on_c, 3, 67, 51
5, 2759, Note_on_c, 3, 67, 0
5, 2760, Note_on_c, 3, 65, 51
5, 2779, Note_on_c, 3, 65, 0
5, 2780, Note_on_c, 3, 65, 51
5, 2799, Note_on_c, 3, 65, 0
5, 2800, Note_on_c, 3, 65, 51
5, 2819, Note_on_c, 3, 65, 0
5, 2820, Note_on_c, 3, 65, 51
5, 2839, Note_on_c, 3, 65, 0
5, 2840, Note_on_c, 3, 65, 51
5, 2859, Note_on_c, 3, 65, 0
5, 2860, Note_on_c, 3, 65, 51
5, 2879, Note_on_c, 3, 65, 0
5, 2880, Note_on_c, 3, 70, 51
5, 2899, Note_on_c, 3, 70, 0
5, 2900, Note_on_c, 3, 70, 51
5, 2919, Note_on_c, 3, 70, 0
5, 2920, Note_on_c, 3, 70, 51
5, 2939, Note_on_c, 3, 70, 0
5, 2940, Note_on_c, 3, 70, 51
5, 2959, Note_on_c, 3, 70, 0
5, 2960, Note_on_c, 3, 70, 51
5, 2979, Note_on_c, 3, 70, 0
5, 2980, Note_on_c, 3, 70, 51
5, 2999, Note_on_c, 3, 70, 0
5, 3000, Note_on_c, 3, 70, 51
5, 3019, Note_on_c, 3, 70, 0
5, 3020, Note_on_c, 3, 70, 51
5, 3039, Note_on_c, 3, 70, 0
5, 3040, Note_on_c, 3, 70, 51
5, 3059, Note_on_c, 3, 70, 0
5, 3060, Note_on_c, 3, 70, 51
5, 3079, Note_on_c, 3, 70, 0
5, 3080, Note_on_c, 3, 70, 51
5, 3099, Note_on_c, 3, 70, 0
5, 3100, Note_on_c, 3, 70, 51
5, 3119, Note_on_c, 3, 70, 0
5, 3120, Note_on_c, 3, 70, 51
5, 3149, Note_on_c, 3, 70, 0
5, 3150, Note_on_c, 3, 68, 51
5, 3179, Note_on_c, 3, 68, 0
5, 3180, Note_on_c, 3, 68, 51
5, 3199, Note_on_c, 3, 68, 0
5, 3200, Note_on_c, 3, 67, 51
5, 3219, Note_on_c, 3, 67, 0
5, 3220, Note_on_c, 3, 65, 51
5, 3239, Note_on_c, 3, 65, 0
5, 3240, Note_on_c, 3, 63, 51
5, 3275, Note_on_c, 3, 63, 0
5, 3300, Note_on_c, 3, 62, 51
5, 3335, Note_on_c, 3, 62, 0
5, 3360, Note_on_c, 3, 63, 51
5, 3371, Note_on_c, 3, 63, 0
5, 3380, Note_on_c, 3, 63, 51
5, 3399, Note_on_c, 3, 63, 0
5, 3400, Note_on_c, 3, 63, 51
5, 3419, Note_on_c, 3, 63, 0
5, 3420, Note_on_c, 3, 63, 51
5, 3439, Note_on_c, 3, 63, 0
5, 3440, Note_on_c, 3, 63, 51
5, 3459, Note_on_c, 3, 63, 0
5, 3460, Note_on_c, 3, 63, 51
5, 3479, Note_on_c, 3, 63, 0
5, 3480, Note_on_c, 3, 63, 51
5, 3499, Note_on_c, 3, 63, 0
5, 3500, Note_on_c, 3, 63, 51
5, 3519, Note_on_c, 3, 63, 0
5, 3520, Note_on_c, 3, 63, 51
5, 3539, Note_on_c, 3, 63, 0
5, 3540, Note_on_c, 3, 63, 51
5, 3559, Note_on_c, 3, 63, 0
5, 3560, Note_on_c, 3, 63, 51
5, 3579, Note_on_c, 3, 63, 0
5, 3580, Note_on_c, 3, 63, 51
5, 3599, Note_on_c, 3, 63, 0
5, 3600, Note_on_c, 3, 63, 51
5, 3619, Note_on_c, 3, 63, 0
5, 3620, Note_on_c, 3, 63, 51
5, 3639, Note_on_c, 3, 63, 0
5, 3640, Note_on_c, 3, 63, 51
5, 3659, Note_on_c, 3, 63, 0
5, 3660, Note_on_c, 3, 63, 51
5, 3679, Note_on_c, 3, 63, 0
5, 3680, Note_on_c, 3, 63, 51
5, 3699, Note_on_c, 3, 63, 0
5, 3700, Note_on_c, 3, 63, 51
5, 3719, Note_on_c, 3, 63, 0
5, 3720, Note_on_c, 3, 63, 51
5, 3739, Note_on_c, 3, 63, 0
5, 3740, Note_on_c, 3, 63, 51
5, 3759, Note_on_c, 3, 63, 0
5, 3760, Note_on_c, 3, 63, 51
5, 3779, Note_on_c, 3, 63, 0
5, 3780, Note_on_c, 3, 63, 51
5, 3799, Note_on_c, 3, 63, 0
5, 3800, Note_on_c, 3, 63, 51
5, 3819, Note_on_c, 3, 63, 0
5, 3820, Note_on_c, 3, 63, 51
5, 3839, Note_on_c, 3, 63, 0
5, 3840, Note_on_c, 3, 63, 51
5, 3859, Note_on_c, 3, 63, 0
5, 3860, Note_on_c, 3, 63, 51
5, 3879, Note_on_c, 3, 63, 0
5, 3880, Note_on_c, 3, 63, 51
5, 3899, Note_on_c, 3, 63, 0
5, 3900, Note_on_c, 3, 63, 51
5, 3919, Note_on_c, 3, 63, 0
5, 3920, Note_on_c, 3, 63, 51
5, 3939, Note_on_c, 3, 63, 0
5, 3940, Note_on_c, 3, 63, 51
5, 3959, Note_on_c, 3, 63, 0
5, 3960, Note_on_c, 3, 62, 51
5, 3979, Note_on_c, 3, 62, 0
5, 3980, Note_on_c, 3, 62, 51
5, 3999, Note_on_c, 3, 62, 0
5, 4000, Note_on_c, 3, 62, 51
5, 4019, Note_on_c, 3, 62, 0
5, 4020, Note_on_c, 3, 62, 51
5, 4039, Note_on_c, 3, 62, 0
5, 4040, Note_on_c, 3, 62, 51
5, 4059, Note_on_c, 3, 62, 0
5, 4060, Note_on_c, 3, 62, 51
5, 4079, Note_on_c, 3, 62, 0
5, 4080, Note_on_c, 3, 67, 51
5, 4099, Note_on_c, 3, 67, 0
5, 4100, Note_on_c, 3, 67, 51
5, 4119, Note_on_c, 3, 67, 0
5, 4120, Note_on_c, 3, 67, 51
5, 4139, Note_on_c, 3, 67, 0
5, 4140, Note_on_c, 3, 67, 51
5, 4159, Note_on_c, 3, 67, 0
5, 4160, Note_on_c, 3, 67, 51
5, 4179, Note_on_c, 3, 67, 0
5, 4180, Note_on_c, 3, 67, 51
5, 4199, Note_on_c, 3, 67, 0
5, 4200, Note_on_c, 3, 67, 51
5, 4219, Note_on_c, 3, 67, 0
5, 4220, Note_on_c, 3, 67, 51
5, 4239, Note_on_c, 3, 67, 0
5, 4240, Note_on_c, 3, 67, 51
5, 4259, Note_on_c, 3, 67, 0
5, 4260, Note_on_c, 3, 67, 51
5, 4279, Note_on_c, 3, 67, 0
5, 4280, Note_on_c, 3, 67, 51
5, 4299, Note_on_c, 3, 67, 0
5, 4300, Note_on_c, 3, 67, 51
5, 4319, Note_on_c, 3, 67, 0
5, 4320, Note_on_c, 3, 67, 51
5, 4339, Note_on_c, 3, 67, 0
5, 4340, Note_on_c, 3, 67, 51
5, 4359, Note_on_c, 3, 67, 0
5, 4360, Note_on_c, 3, 67, 51
5, 4379, Note_on_c, 3, 67, 0
5, 4380, Note_on_c, 3, 67, 51
5, 4399, Note_on_c, 3, 67, 0
5, 4400, Note_on_c, 3, 67, 51
5, 4419, Note_on_c, 3, 67, 0
5, 4420, Note_on_c, 3, 67, 51
5, 4439, Note_on_c, 3, 67, 0
5, 4440, Note_on_c, 3, 65, 51
5, 4459, Note_on_c, 3, 65, 0
5, 4460, Note_on_c, 3, 65, 51
5, 4479, Note_on_c, 3, 65, 0
5, 4480, Note_on_c, 3, 65, 51
5, 4499, Note_on_c, 3, 65, 0
5, 4500, Note_on_c, 3, 65, 51
5, 4519, Note_on_c, 3, 65, 0
5, 4520, Note_on_c, 3, 65, 51
5, 4539, Note_on_c, 3, 65, 0
5, 4540, Note_on_c, 3, 65, 51
5, 4559, Note_on_c, 3, 65, 0
5, 4560, Note_on_c, 3, 70, 51
5, 4579, Note_on_c, 3, 70, 0
5, 4580, Note_on_c, 3, 70, 51
5, 4599, Note_on_c, 3, 70, 0
5, 4600, Note_on_c, 3, 70, 51
5, 4619, Note_on_c, 3, 70, 0
5, 4620, Note_on_c, 3, 70, 51
5, 4639, Note_on_c, 3, 70, 0
5, 4640, Note_on_c, 3, 70, 51
5, 4659, Note_on_c, 3, 70, 0
5, 4660, Note_on_c, 3, 70, 51
5, 4679, Note_on_c, 3, 70, 0
5, 4680, Note_on_c, 3, 70, 51
5, 4699, Note_on_c, 3, 70, 0
5, 4700, Note_on_c, 3, 70, 51
5, 4719, Note_on_c, 3, 70, 0
5, 4720, Note_on_c, 3, 70, 51
5, 4739, Note_on_c, 3, 70, 0
5, 4740, Note_on_c, 3, 70, 51
5, 4759, Note_on_c, 3, 70, 0
5, 4760, Note_on_c, 3, 70, 51
5, 4779, Note_on_c, 3, 70, 0
5, 4780, Note_on_c, 3, 70, 51
5, 4799, Note_on_c, 3, 70, 0
5, 4800, Note_on_c, 3, 70, 51
5, 4819, Note_on_c, 3, 70, 0
5, 4820, Note_on_c, 3, 70, 51
5, 4839, Note_on_c, 3, 70, 0
5, 4840, Note_on_c, 3, 70, 51
5, 4859, Note_on_c, 3, 70, 0
5, 4860, Note_on_c, 3, 68, 51
5, 4879, Note_on_c, 3, 68, 0
5, 4880, Note_on_c, 3, 67, 51
5, 4899, Note_on_c, 3, 67, 0
5, 4900, Note_on_c, 3, 65, 51
5, 4919, Note_on_c, 3, 65, 0
5, 4920, Note_on_c, 3, 63, 51
5, 4955, Note_on_c, 3, 63, 0
5, 4980, Note_on_c, 3, 62, 51
5, 5015, Note_on_c, 3, 62, 0
5, 5040, Note_on_c, 3, 63, 51
5, 5040, Note_on_c, 3, 55, 51
5, 5051, Note_on_c, 3, 63, 0
5, 5051, Note_on_c, 3, 55, 0
5, 5060, Note_on_c, 3, 58, 51
5, 5079, Note_on_c, 3, 58, 0
5, 5080, Note_on_c, 3, 58, 51
5, 5099, Note_on_c, 3, 58, 0
5, 5100, Note_on_c, 3, 58, 51
5, 5119, Note_on_c, 3, 58, 0
5, 5120, Note_on_c, 3, 58, 51
5, 5139, Note_on_c, 3, 58, 0
5, 5140, Note_on_c, 3, 58, 51
5, 5159, Note_on_c, 3, 58, 0
5, 5160, Note_on_c, 3, 58, 51
5, 5219, Note_on_c, 3, 58, 0
5, 5250, Note_on_c, 3, 58, 51
5, 5279, Note_on_c, 3, 58, 0
5, 5280, Note_on_c, 3, 55, 51
5, 5315, Note_on_c, 3, 55, 0
5, 5340, Note_on_c, 3, 58, 51
5, 5375, Note_on_c, 3, 58, 0
5, 5400, Note_on_c, 3, 55, 51
5, 5435, Note_on_c, 3, 55, 0
5, 5520, Note_on_c, 3, 67, 51
5, 5539, Note_on_c, 3, 67, 0
5, 5540, Note_on_c, 3, 67, 51
5, 5559, Note_on_c, 3, 67, 0
5, 5560, Note_on_c, 3, 67, 51
5, 5579, Note_on_c, 3, 67, 0
5, 5580, Note_on_c, 3, 67, 51
5, 5599, Note_on_c, 3, 67, 0
5, 5600, Note_on_c, 3, 67, 51
5, 5619, Note_on_c, 3, 67, 0
5, 5620, Note_on_c, 3, 67, 51
5, 5639, Note_on_c, 3, 67, 0
5, 5640, Note_on_c, 3, 67, 51
5, 5659, Note_on_c, 3, 67, 0
5, 5660, Note_on_c, 3, 67, 51
5, 5679, Note_on_c, 3, 67, 0
5, 5680, Note_on_c, 3, 67, 51
5, 5699, Note_on_c, 3, 67, 0
5, 5700, Note_on_c, 3, 67, 51
5, 5719, Note_on_c, 3, 67, 0
5, 5720, Note_on_c, 3, 67, 51
5, 5739, Note_on_c, 3, 67, 0
5, 5740, Note_on_c, 3, 67, 51
5, 5759, Note_on_c, 3, 67, 0
5, 5760, Note_on_c, 3, 68, 51
5, 5779, Note_on_c, 3, 68, 0
5, 5780, Note_on_c, 3, 68, 51
5, 5799, Note_on_c, 3, 68, 0
5, 5800, Note_on_c, 3, 68, 51
5, 5819, Note_on_c, 3, 68, 0
5, 5820, Note_on_c, 3, 68, 51
5, 5839, Note_on_c, 3, 68, 0
5, 5840, Note_on_c, 3, 68, 51
5, 5859, Note_on_c, 3, 68, 0
5, 5860, Note_on_c, 3, 68, 51
5, 5879, Note_on_c, 3, 68, 0
5, 5880, Note_on_c, 3, 68, 51
5, 5899, Note_on_c, 3, 68, 0
5, 5900, Note_on_c, 3, 68, 51
5, 5919, Note_on_c, 3, 68, 0
5, 5920, Note_on_c, 3, 68, 51
5, 5939, Note_on_c, 3, 68, 0
5, 5940, Note_on_c, 3, 68, 51
5, 5959, Note_on_c, 3, 68, 0
5, 5960, Note_on_c, 3, 68, 51
5, 5979, Note_on_c, 3, 68, 0
5, 5980, Note_on_c, 3, 68, 51
5, 5999, Note_on_c, 3, 68, 0
5, 6000, Note_on_c, 3, 68, 51
5, 6019, Note_on_c, 3, 68, 0
5, 6020, Note_on_c, 3, 68, 51
5, 6039, Note_on_c, 3, 68, 0
5, 6040, Note_on_c, 3, 68, 51
5, 6059, Note_on_c, 3, 68, 0
5, 6060, Note_on_c, 3, 68, 51
5, 6079, Note_on_c, 3, 68, 0
5, 6080, Note_on_c, 3, 68, 51
5, 6099, Note_on_c, 3, 68, 0
5, 6100, Note_on_c, 3, 68, 51
5, 6119, Note_on_c, 3, 68, 0
5, 6120, Note_on_c, 3, 68, 51
5, 6139, Note_on_c, 3, 68, 0
5, 6140, Note_on_c, 3, 68, 51
5, 6159, Note_on_c, 3, 68, 0
5, 6160, Note_on_c, 3, 68, 51
5, 6179, Note_on_c, 3, 68, 0
5, 6180, Note_on_c, 3, 68, 51
5, 6199, Note_on_c, 3, 68, 0
5, 6200, Note_on_c, 3, 68, 51
5, 6219, Note_on_c, 3, 68, 0
5, 6220, Note_on_c, 3, 68, 51
5, 6239, Note_on_c, 3, 68, 0
5, 6240, Note_on_c, 3, 67, 51
5, 6259, Note_on_c, 3, 67, 0
5, 6260, Note_on_c, 3, 67, 51
5, 6279, Note_on_c, 3, 67, 0
5, 6280, Note_on_c, 3, 67, 51
5, 6299, Note_on_c, 3, 67, 0
5, 6300, Note_on_c, 3, 67, 51
5, 6319, Note_on_c, 3, 67, 0
5, 6320, Note_on_c, 3, 67, 51
5, 6339, Note_on_c, 3, 67, 0
5, 6340, Note_on_c, 3, 67, 51
5, 6359, Note_on_c, 3, 67, 0
5, 6360, Note_on_c, 3, 67, 51
5, 6379, Note_on_c, 3, 67, 0
5, 6380, Note_on_c, 3, 67, 33
5, 6399, Note_on_c, 3, 67, 0
5, 6400, Note_on_c, 3, 67, 51
5, 6419, Note_on_c, 3, 67, 0
5, 6420, Note_on_c, 3, 67, 51
5, 6439, Note_on_c, 3, 67, 0
5, 6440, Note_on_c, 3, 67, 51
5, 6459, Note_on_c, 3, 67, 0
5, 6460, Note_on_c, 3, 67, 51
5, 6479, Note_on_c, 3, 67, 0
5, 6480, Note_on_c, 3, 63, 51
5, 6499, Note_on_c, 3, 63, 0
5, 6500, Note_on_c, 3, 63, 51
5, 6519, Note_on_c, 3, 63, 0
5, 6520, Note_on_c, 3, 63, 51
5, 6539, Note_on_c, 3, 63, 0
5, 6540, Note_on_c, 3, 63, 51
5, 6559, Note_on_c, 3, 63, 0
5, 6560, Note_on_c, 3, 63, 51
5, 6579, Note_on_c, 3, 63, 0
5, 6580, Note_on_c, 3, 63, 51
5, 6599, Note_on_c, 3, 63, 0
5, 6600, Note_on_c, 3, 62, 51
5, 6619, Note_on_c, 3, 62, 0
5, 6620, Note_on_c, 3, 62, 51
5, 6639, Note_on_c, 3, 62, 0
5, 6640, Note_on_c, 3, 62, 51
5, 6659, Note_on_c, 3, 62, 0
5, 6660, Note_on_c, 3, 62, 51
5, 6679, Note_on_c, 3, 62, 0
5, 6680, Note_on_c, 3, 62, 51
5, 6699, Note_on_c, 3, 62, 0
5, 6700, Note_on_c, 3, 62, 51
5, 6719, Note_on_c, 3, 62, 0
5, 6720, Note_on_c, 3, 63, 51
5, 6739, Note_on_c, 3, 63, 0
5, 6740, Note_on_c, 3, 63, 51
5, 6740, Note_on_c, 3, 55, 51
5, 6759, Note_on_c, 3, 63, 0
5, 6759, Note_on_c, 3, 55, 0
5, 6760, Note_on_c, 3, 55, 51
5, 6760, Note_on_c, 3, 63, 51
5, 6779, Note_on_c, 3, 55, 0
5, 6779, Note_on_c, 3, 63, 0
5, 6780, Note_on_c, 3, 55, 51
5, 6780, Note_on_c, 3, 63, 51
5, 6799, Note_on_c, 3, 55, 0
5, 6799, Note_on_c, 3, 63, 0
5, 6800, Note_on_c, 3, 55, 51
5, 6800, Note_on_c, 3, 63, 51
5, 6819, Note_on_c, 3, 55, 0
5, 6819, Note_on_c, 3, 63, 0
5, 6820, Note_on_c, 3, 55, 51
5, 6820, Note_on_c, 3, 63, 51
5, 6839, Note_on_c, 3, 55, 0
5, 6839, Note_on_c, 3, 63, 0
5, 6840, Note_on_c, 3, 63, 51
5, 6840, Note_on_c, 3, 55, 51
5, 6899, Note_on_c, 3, 63, 0
5, 6899, Note_on_c, 3, 55, 0
5, 6960, Note_on_c, 3, 67, 66
5, 6979, Note_on_c, 3, 67, 0
5, 6980, Note_on_c, 3, 64, 66
5, 6999, Note_on_c, 3, 64, 0
5, 7000, Note_on_c, 3, 60, 66
5, 7019, Note_on_c, 3, 60, 0
5, 7020, Note_on_c, 3, 60, 66
5, 7039, Note_on_c, 3, 60, 0
5, 7040, Note_on_c, 3, 60, 66
5, 7059, Note_on_c, 3, 60, 0
5, 7060, Note_on_c, 3, 60, 66
5, 7079, Note_on_c, 3, 60, 0
5, 7080, Note_on_c, 3, 68, 66
5, 7099, Note_on_c, 3, 68, 0
5, 7100, Note_on_c, 3, 65, 66
5, 7119, Note_on_c, 3, 65, 0
5, 7120, Note_on_c, 3, 60, 66
5, 7139, Note_on_c, 3, 60, 0
5, 7140, Note_on_c, 3, 60, 66
5, 7159, Note_on_c, 3, 60, 0
5, 7160, Note_on_c, 3, 60, 66
5, 7179, Note_on_c, 3, 60, 0
5, 7180, Note_on_c, 3, 60, 66
5, 7199, Note_on_c, 3, 60, 0
5, 7200, Note_on_c, 3, 70, 66
5, 7219, Note_on_c, 3, 70, 0
5, 7220, Note_on_c, 3, 67, 66
5, 7239, Note_on_c, 3, 67, 0
5, 7240, Note_on_c, 3, 60, 66
5, 7259, Note_on_c, 3, 60, 0
5, 7260, Note_on_c, 3, 60, 66
5, 7279, Note_on_c, 3, 60, 0
5, 7280, Note_on_c, 3, 60, 66
5, 7299, Note_on_c, 3, 60, 0
5, 7300, Note_on_c, 3, 60, 66
5, 7319, Note_on_c, 3, 60, 0
5, 7320, Note_on_c, 3, 72, 66
5, 7339, Note_on_c, 3, 72, 0
5, 7340, Note_on_c, 3, 68, 66
5, 7359, Note_on_c, 3, 68, 0
5, 7360, Note_on_c, 3, 60, 66
5, 7379, Note_on_c, 3, 60, 0
5, 7380, Note_on_c, 3, 60, 66
5, 7399, Note_on_c, 3, 60, 0
5, 7400, Note_on_c, 3, 60, 66
5, 7419, Note_on_c, 3, 60, 0
5, 7420, Note_on_c, 3, 60, 66
5, 7439, Note_on_c, 3, 60, 0
5, 7440, Note_on_c, 3, 69, 66
5, 7459, Note_on_c, 3, 69, 0
5, 7460, Note_on_c, 3, 66, 66
5, 7479, Note_on_c, 3, 66, 0
5, 7480, Note_on_c, 3, 62, 66
5, 7499, Note_on_c, 3, 62, 0
5, 7500, Note_on_c, 3, 62, 66
5, 7519, Note_on_c, 3, 62, 0
5, 7520, Note_on_c, 3, 62, 66
5, 7539, Note_on_c, 3, 62, 0
5, 7540, Note_on_c, 3, 62, 66
5, 7559, Note_on_c, 3, 62, 0
5, 7560, Note_on_c, 3, 70, 66
5, 7579, Note_on_c, 3, 70, 0
5, 7580, Note_on_c, 3, 67, 66
5, 7599, Note_on_c, 3, 67, 0
5, 7600, Note_on_c, 3, 62, 66
5, 7619, Note_on_c, 3, 62, 0
5, 7620, Note_on_c, 3, 62, 66
5, 7639, Note_on_c, 3, 62, 0
5, 7640, Note_on_c, 3, 62, 66
5, 7659, Note_on_c, 3, 62, 0
5, 7660, Note_on_c, 3, 62, 66
5, 7679, Note_on_c, 3, 62, 0
5, 7680, Note_on_c, 3, 72, 66
5, 7699, Note_on_c, 3, 72, 0
5, 7700, Note_on_c, 3, 69, 66
5, 7719, Note_on_c, 3, 69, 0
5, 7720, Note_on_c, 3, 62, 66
5, 7739, Note_on_c, 3, 62, 0
5, 7740, Note_on_c, 3, 62, 66
5, 7759, Note_on_c, 3, 62, 0
5, 7760, Note_on_c, 3, 62, 66
5, 7779, Note_on_c, 3, 62, 0
5, 7780, Note_on_c, 3, 62, 66
5, 7799, Note_on_c, 3, 62, 0
5, 7800, Note_on_c, 3, 74, 66
5, 7819, Note_on_c, 3, 74, 0
5, 7820, Note_on_c, 3, 71, 66
5, 7839, Note_on_c, 3, 71, 0
5, 7840, Note_on_c, 3, 62, 66
5, 7859, Note_on_c, 3, 62, 0
5, 7860, Note_on_c, 3, 62, 66
5, 7879, Note_on_c, 3, 62, 0
5, 7880, Note_on_c, 3, 62, 66
5, 7899, Note_on_c, 3, 62, 0
5, 7900, Note_on_c, 3, 62, 66
5, 7919, Note_on_c, 3, 62, 0
5, 7920, Note_on_c, 3, 63, 92
5, 7949, Note_on_c, 3, 63, 0
5, 7950, Note_on_c, 3, 72, 92
5, 7979, Note_on_c, 3, 72, 0
5, 7980, Note_on_c, 3, 72, 92
5, 8099, Note_on_c, 3, 72, 0
5, 8100, Note_on_c, 3, 72, 92
5, 8119, Note_on_c, 3, 72, 0
5, 8120, Note_on_c, 3, 71, 92
5, 8139, Note_on_c, 3, 71, 0
5, 8140, Note_on_c, 3, 69, 92
5, 8159, Note_on_c, 3, 69, 0
5, 8160, Note_on_c, 3, 67, 92
5, 8179, Note_on_c, 3, 67, 0
5, 8180, Note_on_c, 3, 59, 51
5, 8199, Note_on_c, 3, 59, 0
5, 8200, Note_on_c, 3, 59, 51
5, 8219, Note_on_c, 3, 59, 0
5, 8220, Note_on_c, 3, 59, 51
5, 8239, Note_on_c, 3, 59, 0
5, 8240, Note_on_c, 3, 59, 51
5, 8259, Note_on_c, 3, 59, 0
5, 8260, Note_on_c, 3, 59, 51
5, 8279, Note_on_c, 3, 59, 0
5, 8280, Note_on_c, 3, 59, 51
5, 8399, Note_on_c, 3, 59, 0
5, 8400, Note_on_c, 3, 60, 51
5, 8419, Note_on_c, 3, 60, 0
5, 8420, Note_on_c, 3, 60, 51
5, 8439, Note_on_c, 3, 60, 0
5, 8440, Note_on_c, 3, 60, 51
5, 8459, Note_on_c, 3, 60, 0
5, 8460, Note_on_c, 3, 60, 51
5, 8479, Note_on_c, 3, 60, 0
5, 8480, Note_on_c, 3, 60, 51
5, 8499, Note_on_c, 3, 60, 0
5, 8500, Note_on_c, 3, 60, 51
5, 8519, Note_on_c, 3, 60, 0
5, 8520, Note_on_c, 3, 60, 51
5, 8539, Note_on_c, 3, 60, 0
5, 8540, Note_on_c, 3, 60, 51
5, 8559, Note_on_c, 3, 60, 0
5, 8560, Note_on_c, 3, 60, 51
5, 8579, Note_on_c, 3, 60, 0
5, 8580, Note_on_c, 3, 60, 51
5, 8599, Note_on_c, 3, 60, 0
5, 8600, Note_on_c, 3, 60, 51
5, 8619, Note_on_c, 3, 60, 0
5, 8620, Note_on_c, 3, 60, 51
5, 8639, Note_on_c, 3, 60, 0
5, 8640, Note_on_c, 3, 60, 51
5, 8659, Note_on_c, 3, 60, 0
5, 8660, Note_on_c, 3, 60, 51
5, 8679, Note_on_c, 3, 60, 0
5, 8680, Note_on_c, 3, 60, 51
5, 8699, Note_on_c, 3, 60, 0
5, 8700, Note_on_c, 3, 60, 51
5, 8719, Note_on_c, 3, 60, 0
5, 8720, Note_on_c, 3, 60, 51
5, 8739, Note_on_c, 3, 60, 0
5, 8740, Note_on_c, 3, 60, 51
5, 8759, Note_on_c, 3, 60, 0
5, 8760, Note_on_c, 3, 60, 51
5, 8779, Note_on_c, 3, 60, 0
5, 8780, Note_on_c, 3, 60, 51
5, 8799, Note_on_c, 3, 60, 0
5, 8800, Note_on_c, 3, 60, 51
5, 8819, Note_on_c, 3, 60, 0
5, 8820, Note_on_c, 3, 60, 51
5, 8839, Note_on_c, 3, 60, 0
5, 8840, Note_on_c, 3, 60, 51
5, 8859, Note_on_c, 3, 60, 0
5, 8860, Note_on_c, 3, 60, 51
5, 8879, Note_on_c, 3, 60, 0
5, 8880, Note_on_c, 3, 60, 51
5, 8899, Note_on_c, 3, 60, 0
5, 8900, Note_on_c, 3, 60, 51
5, 8919, Note_on_c, 3, 60, 0
5, 8920, Note_on_c, 3, 60, 51
5, 8939, Note_on_c, 3, 60, 0
5, 8940, Note_on_c, 3, 60, 51
5, 8959, Note_on_c, 3, 60, 0
5, 8960, Note_on_c, 3, 60, 51
5, 8979, Note_on_c, 3, 60, 0
5, 8980, Note_on_c, 3, 60, 51
5, 8999, Note_on_c, 3, 60, 0
5, 9000, Note_on_c, 3, 59, 51
5, 9019, Note_on_c, 3, 59, 0
5, 9020, Note_on_c, 3, 59, 51
5, 9039, Note_on_c, 3, 59, 0
5, 9040, Note_on_c, 3, 59, 51
5, 9059, Note_on_c, 3, 59, 0
5, 9060, Note_on_c, 3, 59, 51
5, 9079, Note_on_c, 3, 59, 0
5, 9080, Note_on_c, 3, 59, 51
5, 9099, Note_on_c, 3, 59, 0
5, 9100, Note_on_c, 3, 59, 51
5, 9119, Note_on_c, 3, 59, 0
5, 9120, Note_on_c, 3, 63, 51
5, 9139, Note_on_c, 3, 63, 0
5, 9140, Note_on_c, 3, 63, 51
5, 9159, Note_on_c, 3, 63, 0
5, 9160, Note_on_c, 3, 63, 51
5, 9179, Note_on_c, 3, 63, 0
5, 9180, Note_on_c, 3, 63, 51
5, 9199, Note_on_c, 3, 63, 0
5, 9200, Note_on_c, 3, 63, 51
5, 9219, Note_on_c, 3, 63, 0
5, 9220, Note_on_c, 3, 63, 51
5, 9239, Note_on_c, 3, 63, 0
5, 9240, Note_on_c, 3, 63, 51
5, 9259, Note_on_c, 3, 63, 0
5, 9260, Note_on_c, 3, 63, 51
5, 9279, Note_on_c, 3, 63, 0
5, 9280, Note_on_c, 3, 63, 51
5, 9299, Note_on_c, 3, 63, 0
5, 9300, Note_on_c, 3, 63, 51
5, 9319, Note_on_c, 3, 63, 0
5, 9320, Note_on_c, 3, 63, 51
5, 9339, Note_on_c, 3, 63, 0
5, 9340, Note_on_c, 3, 63, 51
5, 9359, Note_on_c, 3, 63, 0
5, 9360, Note_on_c, 3, 63, 51
5, 9379, Note_on_c, 3, 63, 0
5, 9380, Note_on_c, 3, 63, 51
5, 9399, Note_on_c, 3, 63, 0
5, 9400, Note_on_c, 3, 63, 51
5, 9419, Note_on_c, 3, 63, 0
5, 9420, Note_on_c, 3, 63, 51
5, 9439, Note_on_c, 3, 63, 0
5, 9440, Note_on_c, 3, 63, 51
5, 9459, Note_on_c, 3, 63, 0
5, 9460, Note_on_c, 3, 63, 51
5, 9479, Note_on_c, 3, 63, 0
5, 9480, Note_on_c, 3, 62, 51
5, 9499, Note_on_c, 3, 62, 0
5, 9500, Note_on_c, 3, 62, 51
5, 9519, Note_on_c, 3, 62, 0
5, 9520, Note_on_c, 3, 62, 51
5, 9539, Note_on_c, 3, 62, 0
5, 9540, Note_on_c, 3, 62, 51
5, 9559, Note_on_c, 3, 62, 0
5, 9560, Note_on_c, 3, 62, 51
5, 9579, Note_on_c, 3, 62, 0
5, 9580, Note_on_c, 3, 62, 51
5, 9599, Note_on_c, 3, 62, 0
5, 9600, Note_on_c, 3, 67, 51
5, 9619, Note_on_c, 3, 67, 0
5, 9620, Note_on_c, 3, 67, 51
5, 9639, Note_on_c, 3, 67, 0
5, 9640, Note_on_c, 3, 67, 51
5, 9659, Note_on_c, 3, 67, 0
5, 9660, Note_on_c, 3, 67, 51
5, 9679, Note_on_c, 3, 67, 0
5, 9680, Note_on_c, 3, 67, 51
5, 9699, Note_on_c, 3, 67, 0
5, 9700, Note_on_c, 3, 67, 51
5, 9719, Note_on_c, 3, 67, 0
5, 9720, Note_on_c, 3, 67, 51
5, 9739, Note_on_c, 3, 67, 0
5, 9740, Note_on_c, 3, 67, 51
5, 9759, Note_on_c, 3, 67, 0
5, 9760, Note_on_c, 3, 67, 51
5, 9779, Note_on_c, 3, 67, 0
5, 9780, Note_on_c, 3, 67, 51
5, 9799, Note_on_c, 3, 67, 0
5, 9800, Note_on_c, 3, 67, 51
5, 9819, Note_on_c, 3, 67, 0
5, 9820, Note_on_c, 3, 67, 51
5, 9839, Note_on_c, 3, 67, 0
5, 9840, Note_on_c, 3, 67, 51
5, 9859, Note_on_c, 3, 67, 0
5, 9860, Note_on_c, 3, 67, 51
5, 9879, Note_on_c, 3, 67, 0
5, 9880, Note_on_c, 3, 67, 51
5, 9899, Note_on_c, 3, 67, 0
5, 9900, Note_on_c, 3, 65, 51
5, 9919, Note_on_c, 3, 65, 0
5, 9920, Note_on_c, 3, 63, 51
5, 9939, Note_on_c, 3, 63, 0
5, 9940, Note_on_c, 3, 62, 51
5, 9959, Note_on_c, 3, 62, 0
5, 9960, Note_on_c, 3, 60, 51
5, 9995, Note_on_c, 3, 60, 0
5, 10020, Note_on_c, 3, 59, 51
5, 10055, Note_on_c, 3, 59, 0
5, 10080, Note_on_c, 3, 60, 51
5, 10091, Note_on_c, 3, 60, 0
5, 10100, Note_on_c, 3, 60, 51
5, 10119, Note_on_c, 3, 60, 0
5, 10120, Note_on_c, 3, 60, 51
5, 10139, Note_on_c, 3, 60, 0
5, 10140, Note_on_c, 3, 60, 51
5, 10159, Note_on_c, 3, 60, 0
5, 10160, Note_on_c, 3, 60, 51
5, 10179, Note_on_c, 3, 60, 0
5, 10180, Note_on_c, 3, 60, 51
5, 10199, Note_on_c, 3, 60, 0
5, 10200, Note_on_c, 3, 60, 51
5, 10219, Note_on_c, 3, 60, 0
5, 10220, Note_on_c, 3, 60, 51
5, 10239, Note_on_c, 3, 60, 0
5, 10240, Note_on_c, 3, 60, 51
5, 10259, Note_on_c, 3, 60, 0
5, 10260, Note_on_c, 3, 60, 51
5, 10279, Note_on_c, 3, 60, 0
5, 10280, Note_on_c, 3, 60, 51
5, 10299, Note_on_c, 3, 60, 0
5, 10300, Note_on_c, 3, 60, 51
5, 10319, Note_on_c, 3, 60, 0
5, 10320, Note_on_c, 3, 60, 51
5, 10339, Note_on_c, 3, 60, 0
5, 10340, Note_on_c, 3, 60, 51
5, 10359, Note_on_c, 3, 60, 0
5, 10360, Note_on_c, 3, 60, 51
5, 10379, Note_on_c, 3, 60, 0
5, 10380, Note_on_c, 3, 60, 51
5, 10399, Note_on_c, 3, 60, 0
5, 10400, Note_on_c, 3, 60, 51
5, 10419, Note_on_c, 3, 60, 0
5, 10420, Note_on_c, 3, 60, 51
5, 10439, Note_on_c, 3, 60, 0
5, 10440, Note_on_c, 3, 60, 51
5, 10459, Note_on_c, 3, 60, 0
5, 10460, Note_on_c, 3, 60, 51
5, 10479, Note_on_c, 3, 60, 0
5, 10480, Note_on_c, 3, 60, 51
5, 10499, Note_on_c, 3, 60, 0
5, 10500, Note_on_c, 3, 60, 51
5, 10519, Note_on_c, 3, 60, 0
5, 10520, Note_on_c, 3, 60, 51
5, 10539, Note_on_c, 3, 60, 0
5, 10540, Note_on_c, 3, 60, 51
5, 10559, Note_on_c, 3, 60, 0
5, 10560, Note_on_c, 3, 60, 51
5, 10579, Note_on_c, 3, 60, 0
5, 10580, Note_on_c, 3, 60, 51
5, 10599, Note_on_c, 3, 60, 0
5, 10600, Note_on_c, 3, 60, 51
5, 10619, Note_on_c, 3, 60, 0
5, 10620, Note_on_c, 3, 60, 51
5, 10639, Note_on_c, 3, 60, 0
5, 10640, Note_on_c, 3, 60, 51
5, 10659, Note_on_c, 3, 60, 0
5, 10660, Note_on_c, 3, 60, 51
5, 10679, Note_on_c, 3, 60, 0
5, 10680, Note_on_c, 3, 59, 51
5, 10699, Note_on_c, 3, 59, 0
5, 10700, Note_on_c, 3, 59, 51
5, 10719, Note_on_c, 3, 59, 0
5, 10720, Note_on_c, 3, 59, 51
5, 10739, Note_on_c, 3, 59, 0
5, 10740, Note_on_c, 3, 59, 51
5, 10759, Note_on_c, 3, 59, 0
5, 10760, Note_on_c, 3, 59, 51
5, 10779, Note_on_c, 3, 59, 0
5, 10780, Note_on_c, 3, 59, 51
5, 10799, Note_on_c, 3, 59, 0
5, 10800, Note_on_c, 3, 63, 51
5, 10819, Note_on_c, 3, 63, 0
5, 10820, Note_on_c, 3, 63, 51
5, 10839, Note_on_c, 3, 63, 0
5, 10840, Note_on_c, 3, 63, 51
5, 10859, Note_on_c, 3, 63, 0
5, 10860, Note_on_c, 3, 63, 51
5, 10879, Note_on_c, 3, 63, 0
5, 10880, Note_on_c, 3, 63, 51
5, 10899, Note_on_c, 3, 63, 0
5, 10900, Note_on_c, 3, 63, 51
5, 10919, Note_on_c, 3, 63, 0
5, 10920, Note_on_c, 3, 63, 51
5, 10939, Note_on_c, 3, 63, 0
5, 10940, Note_on_c, 3, 63, 51
5, 10959, Note_on_c, 3, 63, 0
5, 10960, Note_on_c, 3, 63, 51
5, 10979, Note_on_c, 3, 63, 0
5, 10980, Note_on_c, 3, 63, 51
5, 10999, Note_on_c, 3, 63, 0
5, 11000, Note_on_c, 3, 63, 51
5, 11019, Note_on_c, 3, 63, 0
5, 11020, Note_on_c, 3, 63, 51
5, 11039, Note_on_c, 3, 63, 0
5, 11040, Note_on_c, 3, 63, 51
5, 11059, Note_on_c, 3, 63, 0
5, 11060, Note_on_c, 3, 63, 51
5, 11079, Note_on_c, 3, 63, 0
5, 11080, Note_on_c, 3, 63, 51
5, 11099, Note_on_c, 3, 63, 0
5, 11100, Note_on_c, 3, 63, 51
5, 11119, Note_on_c, 3, 63, 0
5, 11120, Note_on_c, 3, 63, 51
5, 11139, Note_on_c, 3, 63, 0
5, 11140, Note_on_c, 3, 63, 51
5, 11159, Note_on_c, 3, 63, 0
5, 11160, Note_on_c, 3, 62, 51
5, 11179, Note_on_c, 3, 62, 0
5, 11180, Note_on_c, 3, 62, 51
5, 11199, Note_on_c, 3, 62, 0
5, 11200, Note_on_c, 3, 62, 51
5, 11219, Note_on_c, 3, 62, 0
5, 11220, Note_on_c, 3, 62, 51
5, 11239, Note_on_c, 3, 62, 0
5, 11240, Note_on_c, 3, 62, 51
5, 11259, Note_on_c, 3, 62, 0
5, 11260, Note_on_c, 3, 62, 51
5, 11279, Note_on_c, 3, 62, 0
5, 11280, Note_on_c, 3, 67, 51
5, 11299, Note_on_c, 3, 67, 0
5, 11300, Note_on_c, 3, 67, 51
5, 11319, Note_on_c, 3, 67, 0
5, 11320, Note_on_c, 3, 67, 51
5, 11339, Note_on_c, 3, 67, 0
5, 11340, Note_on_c, 3, 67, 51
5, 11359, Note_on_c, 3, 67, 0
5, 11360, Note_on_c, 3, 67, 51
5, 11379, Note_on_c, 3, 67, 0
5, 11380, Note_on_c, 3, 67, 51
5, 11399, Note_on_c, 3, 67, 0
5, 11400, Note_on_c, 3, 67, 51
5, 11419, Note_on_c, 3, 67, 0
5, 11420, Note_on_c, 3, 67, 51
5, 11439, Note_on_c, 3, 67, 0
5, 11440, Note_on_c, 3, 67, 51
5, 11459, Note_on_c, 3, 67, 0
5, 11460, Note_on_c, 3, 67, 51
5, 11479, Note_on_c, 3, 67, 0
5, 11480, Note_on_c, 3, 67, 51
5, 11499, Note_on_c, 3, 67, 0
5, 11500, Note_on_c, 3, 67, 51
5, 11519, Note_on_c, 3, 67, 0
5, 11520, Note_on_c, 3, 67, 51
5, 11539, Note_on_c, 3, 67, 0
5, 11540, Note_on_c, 3, 67, 51
5, 11559, Note_on_c, 3, 67, 0
5, 11560, Note_on_c, 3, 67, 51
5, 11579, Note_on_c, 3, 67, 0
5, 11580, Note_on_c, 3, 65, 51
5, 11599, Note_on_c, 3, 65, 0
5, 11600, Note_on_c, 3, 63, 51
5, 11619, Note_on_c, 3, 63, 0
5, 11620, Note_on_c, 3, 62, 51
5, 11639, Note_on_c, 3, 62, 0
5, 11640, Note_on_c, 3, 60, 51
5, 11675, Note_on_c, 3, 60, 0
5, 11700, Note_on_c, 3, 59, 51
5, 11735, Note_on_c, 3, 59, 0
5, 11760, Note_on_c, 3, 60, 51
5, 11779, Note_on_c, 3, 60, 0
5, 11780, Note_on_c, 3, 67, 51
5, 11799, Note_on_c, 3, 67, 0
5, 11800, Note_on_c, 3, 67, 51
5, 11819, Note_on_c, 3, 67, 0
5, 11820, Note_on_c, 3, 67, 51
5, 11839, Note_on_c, 3, 67, 0
5, 11840, Note_on_c, 3, 67, 51
5, 11859, Note_on_c, 3, 67, 0
5, 11860, Note_on_c, 3, 67, 51
5, 11879, Note_on_c, 3, 67, 0
5, 11880, Note_on_c, 3, 67, 51
5, 11939, Note_on_c, 3, 67, 0
5, 11970, Note_on_c, 3, 63, 51
5, 11999, Note_on_c, 3, 63, 0
5, 12000, Note_on_c, 3, 63, 51
5, 12035, Note_on_c, 3, 63, 0
5, 12060, Note_on_c, 3, 67, 51
5, 12095, Note_on_c, 3, 67, 0
5, 12120, Note_on_c, 3, 63, 51
5, 12155, Note_on_c, 3, 63, 0
5, 12155, End_track
6, 0, Start_track
6, 0, MIDI_port, 0
6, 0, Title_t, "Viola"
6, 0, Program_c, 4, 41
6, 240, Note_on_c, 4, 72, 51
6, 259, Note_on_c, 4, 72, 0
6, 260, Note_on_c, 4, 72, 51
6, 279, Note_on_c, 4, 72, 0
6, 280, Note_on_c, 4, 72, 51
6, 299, Note_on_c, 4, 72, 0
6, 300, Note_on_c, 4, 72, 51
6, 319, Note_on_c, 4, 72, 0
6, 320, Note_on_c, 4, 72, 51
6, 339, Note_on_c, 4, 72, 0
6, 340, Note_on_c, 4, 72, 51
6, 359, Note_on_c, 4, 72, 0
6, 360, Note_on_c, 4, 72, 51
6, 379, Note_on_c, 4, 72, 0
6, 380, Note_on_c, 4, 72, 51
6, 399, Note_on_c, 4, 72, 0
6, 400, Note_on_c, 4, 72, 51
6, 419, Note_on_c, 4, 72, 0
6, 420, Note_on_c, 4, 72, 51
6, 439, Note_on_c, 4, 72, 0
6, 440, Note_on_c, 4, 72, 51
6, 459, Note_on_c, 4, 72, 0
6, 460, Note_on_c, 4, 72, 51
6, 479, Note_on_c, 4, 72, 0
6, 480, Note_on_c, 4, 72, 51
6, 499, Note_on_c, 4, 72, 0
6, 500, Note_on_c, 4, 72, 51
6, 519, Note_on_c, 4, 72, 0
6, 520, Note_on_c, 4, 72, 51
6, 539, Note_on_c, 4, 72, 0
6, 540, Note_on_c, 4, 72, 51
6, 559, Note_on_c, 4, 72, 0
6, 560, Note_on_c, 4, 72, 51
6, 579, Note_on_c, 4, 72, 0
6, 580, Note_on_c, 4, 72, 51
6, 599, Note_on_c, 4, 72, 0
6, 600, Note_on_c, 4, 72, 51
6, 619, Note_on_c, 4, 72, 0
6, 620, Note_on_c, 4, 72, 51
6, 639, Note_on_c, 4, 72, 0
6, 640, Note_on_c, 4, 72, 51
6, 659, Note_on_c, 4, 72, 0
6, 660, Note_on_c, 4, 72, 51
6, 679, Note_on_c, 4, 72, 0
6, 680, Note_on_c, 4, 72, 51
6, 699, Note_on_c, 4, 72, 0
6, 700, Note_on_c, 4, 72, 51
6, 719, Note_on_c, 4, 72, 0
6, 720, Note_on_c, 4, 67, 51
6, 739, Note_on_c, 4, 67, 0
6, 740, Note_on_c, 4, 67, 51
6, 759, Note_on_c, 4, 67, 0
6, 760, Note_on_c, 4, 67, 51
6, 779, Note_on_c, 4, 67, 0
6, 780, Note_on_c, 4, 67, 51
6, 799, Note_on_c, 4, 67, 0
6, 800, Note_on_c, 4, 67, 51
6, 819, Note_on_c, 4, 67, 0
6, 820, Note_on_c, 4, 67, 51
6, 839, Note_on_c, 4, 67, 0
6, 840, Note_on_c, 4, 67, 51
6, 859, Note_on_c, 4, 67, 0
6, 860, Note_on_c, 4, 67, 51
6, 879, Note_on_c, 4, 67, 0
6, 880, Note_on_c, 4, 67, 51
6, 899, Note_on_c, 4, 67, 0
6, 900, Note_on_c, 4, 67, 51
6, 919, Note_on_c, 4, 67, 0
6, 920, Note_on_c, 4, 67, 51
6, 939, Note_on_c, 4, 67, 0
6, 940, Note_on_c, 4, 67, 51
6, 959, Note_on_c, 4, 67, 0
6, 960, Note_on_c, 4, 67, 51
6, 979, Note_on_c, 4, 67, 0
6, 980, Note_on_c, 4, 67, 51
6, 999, Note_on_c, 4, 67, 0
6, 1000, Note_on_c, 4, 67, 51
6, 1019, Note_on_c, 4, 67, 0
6, 1020, Note_on_c, 4, 67, 51
6, 1039, Note_on_c, 4, 67, 0
6, 1040, Note_on_c, 4, 67, 51
6, 1059, Note_on_c, 4, 67, 0
6, 1060, Note_on_c, 4, 67, 51
6, 1079, Note_on_c, 4, 67, 0
6, 1080, Note_on_c, 4, 67, 51
6, 1099, Note_on_c, 4, 67, 0
6, 1100, Note_on_c, 4, 67, 51
6, 1119, Note_on_c, 4, 67, 0
6, 1120, Note_on_c, 4, 67, 51
6, 1139, Note_on_c, 4, 67, 0
6, 1140, Note_on_c, 4, 67, 51
6, 1159, Note_on_c, 4, 67, 0
6, 1160, Note_on_c, 4, 67, 51
6, 1179, Note_on_c, 4, 67, 0
6, 1180, Note_on_c, 4, 67, 51
6, 1199, Note_on_c, 4, 67, 0
6, 1200, Note_on_c, 4, 65, 51
6, 1219, Note_on_c, 4, 65, 0
6, 1220, Note_on_c, 4, 68, 51
6, 1239, Note_on_c, 4, 68, 0
6, 1240, Note_on_c, 4, 68, 51
6, 1259, Note_on_c, 4, 68, 0
6, 1260, Note_on_c, 4, 69, 51
6, 1279, Note_on_c, 4, 69, 0
6, 1280, Note_on_c, 4, 69, 51
6, 1299, Note_on_c, 4, 69, 0
6, 1300, Note_on_c, 4, 69, 51
6, 1319, Note_on_c, 4, 69, 0
6, 1320, Note_on_c, 4, 55, 51
6, 1339, Note_on_c, 4, 55, 0
6, 1340, Note_on_c, 4, 67, 51
6, 1359, Note_on_c, 4, 67, 0
6, 1360, Note_on_c, 4, 67, 51
6, 1379, Note_on_c, 4, 67, 0
6, 1380, Note_on_c, 4, 65, 51
6, 1399, Note_on_c, 4, 65, 0
6, 1400, Note_on_c, 4, 65, 51
6, 1419, Note_on_c, 4, 65, 0
6, 1420, Note_on_c, 4, 65, 51
6, 1439, Note_on_c, 4, 65, 0
6, 1440, Note_on_c, 4, 63, 51
6, 1459, Note_on_c, 4, 63, 0
6, 1460, Note_on_c, 4, 63, 51
6, 1479, Note_on_c, 4, 63, 0
6, 1480, Note_on_c, 4, 63, 51
6, 1499, Note_on_c, 4, 63, 0
6, 1500, Note_on_c, 4, 63, 51
6, 1519, Note_on_c, 4, 63, 0
6, 1520, Note_on_c, 4, 63, 51
6, 1539, Note_on_c, 4, 63, 0
6, 1540, Note_on_c, 4, 63, 51
6, 1559, Note_on_c, 4, 63, 0
6, 1560, Note_on_c, 4, 63, 51
6, 1619, Note_on_c, 4, 63, 0
6, 2160, Note_on_c, 4, 56, 51
6, 2179, Note_on_c, 4, 56, 0
6, 2180, Note_on_c, 4, 56, 51
6, 2199, Note_on_c, 4, 56, 0
6, 2200, Note_on_c, 4, 56, 51
6, 2219, Note_on_c, 4, 56, 0
6, 2220, Note_on_c, 4, 56, 51
6, 2239, Note_on_c, 4, 56, 0
6, 2240, Note_on_c, 4, 56, 51
6, 2259, Note_on_c, 4, 56, 0
6, 2260, Note_on_c, 4, 56, 51
6, 2279, Note_on_c, 4, 56, 0
6, 2280, Note_on_c, 4, 56, 51
6, 2299, Note_on_c, 4, 56, 0
6, 2300, Note_on_c, 4, 56, 51
6, 2319, Note_on_c, 4, 56, 0
6, 2320, Note_on_c, 4, 56, 51
6, 2339, Note_on_c, 4, 56, 0
6, 2340, Note_on_c, 4, 56, 51
6, 2359, Note_on_c, 4, 56, 0
6, 2360, Note_on_c, 4, 56, 51
6, 2379, Note_on_c, 4, 56, 0
6, 2380, Note_on_c, 4, 56, 51
6, 2399, Note_on_c, 4, 56, 0
6, 2400, Note_on_c, 4, 55, 51
6, 2419, Note_on_c, 4, 55, 0
6, 2420, Note_on_c, 4, 58, 51
6, 2439, Note_on_c, 4, 58, 0
6, 2440, Note_on_c, 4, 58, 51
6, 2459, Note_on_c, 4, 58, 0
6, 2460, Note_on_c, 4, 58, 51
6, 2479, Note_on_c, 4, 58, 0
6, 2480, Note_on_c, 4, 58, 51
6, 2499, Note_on_c, 4, 58, 0
6, 2500, Note_on_c, 4, 58, 51
6, 2519, Note_on_c, 4, 58, 0
6, 2520, Note_on_c, 4, 58, 51
6, 2539, Note_on_c, 4, 58, 0
6, 2540, Note_on_c, 4, 58, 51
6, 2559, Note_on_c, 4, 58, 0
6, 2560, Note_on_c, 4, 58, 51
6, 2579, Note_on_c, 4, 58, 0
6, 2580, Note_on_c, 4, 58, 51
6, 2599, Note_on_c, 4, 58, 0
6, 2600, Note_on_c, 4, 58, 51
6, 2619, Note_on_c, 4, 58, 0
6, 2620, Note_on_c, 4, 58, 51
6, 2639, Note_on_c, 4, 58, 0
6, 2640, Note_on_c, 4, 53, 51
6, 2659, Note_on_c, 4, 53, 0
6, 2660, Note_on_c, 4, 56, 51
6, 2679, Note_on_c, 4, 56, 0
6, 2680, Note_on_c, 4, 60, 51
6, 2699, Note_on_c, 4, 60, 0
6, 2700, Note_on_c, 4, 60, 51
6, 2719, Note_on_c, 4, 60, 0
6, 2720, Note_on_c, 4, 60, 51
6, 2739, Note_on_c, 4, 60, 0
6, 2740, Note_on_c, 4, 60, 51
6, 2759, Note_on_c, 4, 60, 0
6, 2760, Note_on_c, 4, 60, 51
6, 2779, Note_on_c, 4, 60, 0
6, 2780, Note_on_c, 4, 60, 51
6, 2799, Note_on_c, 4, 60, 0
6, 2800, Note_on_c, 4, 60, 51
6, 2819, Note_on_c, 4, 60, 0
6, 2820, Note_on_c, 4, 60, 51
6, 2839, Note_on_c, 4, 60, 0
6, 2840, Note_on_c, 4, 60, 51
6, 2859, Note_on_c, 4, 60, 0
6, 2860, Note_on_c, 4, 60, 51
6, 2879, Note_on_c, 4, 60, 0
6, 2880, Note_on_c, 4, 55, 51
6, 2899, Note_on_c, 4, 55, 0
6, 2900, Note_on_c, 4, 58, 51
6, 2919, Note_on_c, 4, 58, 0
6, 2920, Note_on_c, 4, 61, 51
6, 2939, Note_on_c, 4, 61, 0
6, 2940, Note_on_c, 4, 61, 51
6, 2959, Note_on_c, 4, 61, 0
6, 2960, Note_on_c, 4, 61, 51
6, 2979, Note_on_c, 4, 61, 0
6, 2980, Note_on_c, 4, 61, 51
6, 2999, Note_on_c, 4, 61, 0
6, 3000, Note_on_c, 4, 63, 51
6, 3019, Note_on_c, 4, 63, 0
6, 3020, Note_on_c, 4, 63, 51
6, 3039, Note_on_c, 4, 63, 0
6, 3040, Note_on_c, 4, 63, 51
6, 3059, Note_on_c, 4, 63, 0
6, 3060, Note_on_c, 4, 63, 51
6, 3079, Note_on_c, 4, 63, 0
6, 3080, Note_on_c, 4, 63, 51
6, 3099, Note_on_c, 4, 63, 0
6, 3100, Note_on_c, 4, 63, 51
6, 3119, Note_on_c, 4, 63, 0
6, 3120, Note_on_c, 4, 63, 51
6, 3179, Note_on_c, 4, 63, 0
6, 3210, Note_on_c, 4, 60, 51
6, 3239, Note_on_c, 4, 60, 0
6, 3240, Note_on_c, 4, 58, 51
6, 3275, Note_on_c, 4, 58, 0
6, 3300, Note_on_c, 4, 58, 51
6, 3335, Note_on_c, 4, 58, 0
6, 3360, Note_on_c, 4, 58, 51
6, 3395, Note_on_c, 4, 58, 0
6, 3840, Note_on_c, 4, 56, 51
6, 3859, Note_on_c, 4, 56, 0
6, 3860, Note_on_c, 4, 56, 51
6, 3879, Note_on_c, 4, 56, 0
6, 3880, Note_on_c, 4, 56, 51
6, 3899, Note_on_c, 4, 56, 0
6, 3900, Note_on_c, 4, 56, 51
6, 3919, Note_on_c, 4, 56, 0
6, 3920, Note_on_c, 4, 56, 51
6, 3939, Note_on_c, 4, 56, 0
6, 3940, Note_on_c, 4, 56, 51
6, 3959, Note_on_c, 4, 56, 0
6, 3960, Note_on_c, 4, 56, 51
6, 3979, Note_on_c, 4, 56, 0
6, 3980, Note_on_c, 4, 56, 51
6, 3999, Note_on_c, 4, 56, 0
6, 4000, Note_on_c, 4, 56, 51
6, 4019, Note_on_c, 4, 56, 0
6, 4020, Note_on_c, 4, 56, 51
6, 4039, Note_on_c, 4, 56, 0
6, 4040, Note_on_c, 4, 56, 51
6, 4059, Note_on_c, 4, 56, 0
6, 4060, Note_on_c, 4, 56, 51
6, 4079, Note_on_c, 4, 56, 0
6, 4080, Note_on_c, 4, 55, 51
6, 4099, Note_on_c, 4, 55, 0
6, 4100, Note_on_c, 4, 58, 51
6, 4119, Note_on_c, 4, 58, 0
6, 4120, Note_on_c, 4, 58, 51
6, 4139, Note_on_c, 4, 58, 0
6, 4140, Note_on_c, 4, 58, 51
6, 4159, Note_on_c, 4, 58, 0
6, 4160, Note_on_c, 4, 58, 51
6, 4179, Note_on_c, 4, 58, 0
6, 4180, Note_on_c, 4, 58, 51
6, 4199, Note_on_c, 4, 58, 0
6, 4200, Note_on_c, 4, 58, 51
6, 4219, Note_on_c, 4, 58, 0
6, 4220, Note_on_c, 4, 58, 51
6, 4239, Note_on_c, 4, 58, 0
6, 4240, Note_on_c, 4, 58, 51
6, 4259, Note_on_c, 4, 58, 0
6, 4260, Note_on_c, 4, 58, 51
6, 4279, Note_on_c, 4, 58, 0
6, 4280, Note_on_c, 4, 58, 51
6, 4299, Note_on_c, 4, 58, 0
6, 4300, Note_on_c, 4, 58, 51
6, 4319, Note_on_c, 4, 58, 0
6, 4320, Note_on_c, 4, 53, 51
6, 4339, Note_on_c, 4, 53, 0
6, 4340, Note_on_c, 4, 56, 51
6, 4359, Note_on_c, 4, 56, 0
6, 4360, Note_on_c, 4, 60, 51
6, 4379, Note_on_c, 4, 60, 0
6, 4380, Note_on_c, 4, 60, 51
6, 4399, Note_on_c, 4, 60, 0
6, 4400, Note_on_c, 4, 60, 51
6, 4419, Note_on_c, 4, 60, 0
6, 4420, Note_on_c, 4, 60, 51
6, 4439, Note_on_c, 4, 60, 0
6, 4440, Note_on_c, 4, 60, 51
6, 4459, Note_on_c, 4, 60, 0
6, 4460, Note_on_c, 4, 60, 51
6, 4479, Note_on_c, 4, 60, 0
6, 4480, Note_on_c, 4, 60, 51
6, 4499, Note_on_c, 4, 60, 0
6, 4500, Note_on_c, 4, 60, 51
6, 4519, Note_on_c, 4, 60, 0
6, 4520, Note_on_c, 4, 60, 51
6, 4539, Note_on_c, 4, 60, 0
6, 4540, Note_on_c, 4, 60, 51
6, 4559, Note_on_c, 4, 60, 0
6, 4560, Note_on_c, 4, 55, 51
6, 4579, Note_on_c, 4, 55, 0
6, 4580, Note_on_c, 4, 58, 51
6, 4599, Note_on_c, 4, 58, 0
6, 4600, Note_on_c, 4, 61, 51
6, 4619, Note_on_c, 4, 61, 0
6, 4620, Note_on_c, 4, 61, 51
6, 4639, Note_on_c, 4, 61, 0
6, 4640, Note_on_c, 4, 61, 51
6, 4659, Note_on_c, 4, 61, 0
6, 4660, Note_on_c, 4, 61, 51
6, 4679, Note_on_c, 4, 61, 0
6, 4680, Note_on_c, 4, 63, 51
6, 4699, Note_on_c, 4, 63, 0
6, 4700, Note_on_c, 4, 63, 51
6, 4719, Note_on_c, 4, 63, 0
6, 4720, Note_on_c, 4, 63, 51
6, 4739, Note_on_c, 4, 63, 0
6, 4740, Note_on_c, 4, 63, 51
6, 4759, Note_on_c, 4, 63, 0
6, 4760, Note_on_c, 4, 63, 51
6, 4779, Note_on_c, 4, 63, 0
6, 4780, Note_on_c, 4, 63, 51
6, 4799, Note_on_c, 4, 63, 0
6, 4800, Note_on_c, 4, 63, 51
6, 4859, Note_on_c, 4, 63, 0
6, 4890, Note_on_c, 4, 60, 51
6, 4919, Note_on_c, 4, 60, 0
6, 4920, Note_on_c, 4, 58, 51
6, 4955, Note_on_c, 4, 58, 0
6, 4980, Note_on_c, 4, 56, 51
6, 5015, Note_on_c, 4, 56, 0
6, 5040, Note_on_c, 4, 55, 51
6, 5051, Note_on_c, 4, 55, 0
6, 5060, Note_on_c, 4, 51, 51
6, 5079, Note_on_c, 4, 51, 0
6, 5080, Note_on_c, 4, 63, 51
6, 5099, Note_on_c, 4, 63, 0
6, 5100, Note_on_c, 4, 63, 51
6, 5119, Note_on_c, 4, 63, 0
6, 5120, Note_on_c, 4, 63, 51
6, 5139, Note_on_c, 4, 63, 0
6, 5140, Note_on_c, 4, 63, 51
6, 5159, Note_on_c, 4, 63, 0
6, 5160, Note_on_c, 4, 63, 51
6, 5219, Note_on_c, 4, 63, 0
6, 5280, Note_on_c, 4, 63, 51
6, 5315, Note_on_c, 4, 63, 0
6, 5340, Note_on_c, 4, 51, 51
6, 5375, Note_on_c, 4, 51, 0
6, 5400, Note_on_c, 4, 51, 51
6, 5435, Note_on_c, 4, 51, 0
6, 5520, Note_on_c, 4, 63, 51
6, 5539, Note_on_c, 4, 63, 0
6, 5540, Note_on_c, 4, 63, 51
6, 5559, Note_on_c, 4, 63, 0
6, 5560, Note_on_c, 4, 63, 51
6, 5579, Note_on_c, 4, 63, 0
6, 5580, Note_on_c, 4, 63, 51
6, 5599, Note_on_c, 4, 63, 0
6, 5600, Note_on_c, 4, 63, 51
6, 5619, Note_on_c, 4, 63, 0
6, 5620, Note_on_c, 4, 63, 51
6, 5639, Note_on_c, 4, 63, 0
6, 5640, Note_on_c, 4, 63, 51
6, 5659, Note_on_c, 4, 63, 0
6, 5660, Note_on_c, 4, 63, 51
6, 5679, Note_on_c, 4, 63, 0
6, 5680, Note_on_c, 4, 63, 51
6, 5699, Note_on_c, 4, 63, 0
6, 5700, Note_on_c, 4, 63, 51
6, 5719, Note_on_c, 4, 63, 0
6, 5720, Note_on_c, 4, 63, 51
6, 5739, Note_on_c, 4, 63, 0
6, 5740, Note_on_c, 4, 63, 51
6, 5759, Note_on_c, 4, 63, 0
6, 5760, Note_on_c, 4, 63, 51
6, 5779, Note_on_c, 4, 63, 0
6, 5780, Note_on_c, 4, 63, 51
6, 5799, Note_on_c, 4, 63, 0
6, 5800, Note_on_c, 4, 63, 51
6, 5819, Note_on_c, 4, 63, 0
6, 5820, Note_on_c, 4, 63, 51
6, 5839, Note_on_c, 4, 63, 0
6, 5840, Note_on_c, 4, 63, 51
6, 5859, Note_on_c, 4, 63, 0
6, 5860, Note_on_c, 4, 63, 51
6, 5879, Note_on_c, 4, 63, 0
6, 5880, Note_on_c, 4, 63, 51
6, 5899, Note_on_c, 4, 63, 0
6, 5900, Note_on_c, 4, 63, 51
6, 5919, Note_on_c, 4, 63, 0
6, 5920, Note_on_c, 4, 63, 51
6, 5939, Note_on_c, 4, 63, 0
6, 5940, Note_on_c, 4, 63, 51
6, 5959, Note_on_c, 4, 63, 0
6, 5960, Note_on_c, 4, 63, 51
6, 5979, Note_on_c, 4, 63, 0
6, 5980, Note_on_c, 4, 63, 51
6, 5999, Note_on_c, 4, 63, 0
6, 6000, Note_on_c, 4, 65, 51
6, 6019, Note_on_c, 4, 65, 0
6, 6020, Note_on_c, 4, 65, 51
6, 6039, Note_on_c, 4, 65, 0
6, 6040, Note_on_c, 4, 65, 51
6, 6059, Note_on_c, 4, 65, 0
6, 6060, Note_on_c, 4, 65, 51
6, 6079, Note_on_c, 4, 65, 0
6, 6080, Note_on_c, 4, 65, 51
6, 6099, Note_on_c, 4, 65, 0
6, 6100, Note_on_c, 4, 65, 51
6, 6119, Note_on_c, 4, 65, 0
6, 6120, Note_on_c, 4, 65, 51
6, 6139, Note_on_c, 4, 65, 0
6, 6140, Note_on_c, 4, 65, 51
6, 6159, Note_on_c, 4, 65, 0
6, 6160, Note_on_c, 4, 65, 51
6, 6179, Note_on_c, 4, 65, 0
6, 6180, Note_on_c, 4, 65, 51
6, 6199, Note_on_c, 4, 65, 0
6, 6200, Note_on_c, 4, 65, 51
6, 6219, Note_on_c, 4, 65, 0
6, 6220, Note_on_c, 4, 65, 38
6, 6239, Note_on_c, 4, 65, 0
6, 6240, Note_on_c, 4, 58, 51
6, 6259, Note_on_c, 4, 58, 0
6, 6260, Note_on_c, 4, 58, 51
6, 6279, Note_on_c, 4, 58, 0
6, 6280, Note_on_c, 4, 58, 51
6, 6299, Note_on_c, 4, 58, 0
6, 6300, Note_on_c, 4, 58, 51
6, 6319, Note_on_c, 4, 58, 0
6, 6320, Note_on_c, 4, 58, 51
6, 6339, Note_on_c, 4, 58, 0
6, 6340, Note_on_c, 4, 58, 51
6, 6359, Note_on_c, 4, 58, 0
6, 6360, Note_on_c, 4, 58, 51
6, 6379, Note_on_c, 4, 58, 0
6, 6380, Note_on_c, 4, 58, 51
6, 6399, Note_on_c, 4, 58, 0
6, 6400, Note_on_c, 4, 58, 51
6, 6419, Note_on_c, 4, 58, 0
6, 6420, Note_on_c, 4, 58, 51
6, 6439, Note_on_c, 4, 58, 0
6, 6440, Note_on_c, 4, 58, 51
6, 6459, Note_on_c, 4, 58, 0
6, 6460, Note_on_c, 4, 58, 51
6, 6479, Note_on_c, 4, 58, 0
6, 6480, Note_on_c, 4, 60, 51
6, 6499, Note_on_c, 4, 60, 0
6, 6500, Note_on_c, 4, 60, 51
6, 6519, Note_on_c, 4, 60, 0
6, 6520, Note_on_c, 4, 60, 51
6, 6539, Note_on_c, 4, 60, 0
6, 6540, Note_on_c, 4, 60, 51
6, 6559, Note_on_c, 4, 60, 0
6, 6560, Note_on_c, 4, 60, 51
6, 6579, Note_on_c, 4, 60, 0
6, 6580, Note_on_c, 4, 60, 51
6, 6599, Note_on_c, 4, 60, 0
6, 6600, Note_on_c, 4, 58, 51
6, 6619, Note_on_c, 4, 58, 0
6, 6620, Note_on_c, 4, 58, 51
6, 6639, Note_on_c, 4, 58, 0
6, 6640, Note_on_c, 4, 58, 51
6, 6659, Note_on_c, 4, 58, 0
6, 6660, Note_on_c, 4, 56, 51
6, 6679, Note_on_c, 4, 56, 0
6, 6680, Note_on_c, 4, 56, 51
6, 6699, Note_on_c, 4, 56, 0
6, 6700, Note_on_c, 4, 56, 51
6, 6719, Note_on_c, 4, 56, 0
6, 6720, Note_on_c, 4, 55, 51
6, 6739, Note_on_c, 4, 55, 0
6, 6740, Note_on_c, 4, 58, 51
6, 6759, Note_on_c, 4, 58, 0
6, 6760, Note_on_c, 4, 58, 51
6, 6779, Note_on_c, 4, 58, 0
6, 6780, Note_on_c, 4, 58, 51
6, 6799, Note_on_c, 4, 58, 0
6, 6800, Note_on_c, 4, 58, 51
6, 6819, Note_on_c, 4, 58, 0
6, 6820, Note_on_c, 4, 58, 51
6, 6839, Note_on_c, 4, 58, 0
6, 6840, Note_on_c, 4, 58, 51
6, 6899, Note_on_c, 4, 58, 0
6, 6980, Note_on_c, 4, 67, 51
6, 6999, Note_on_c, 4, 67, 0
6, 7000, Note_on_c, 4, 64, 51
6, 7019, Note_on_c, 4, 64, 0
6, 7040, Note_on_c, 4, 67, 51
6, 7059, Note_on_c, 4, 67, 0
6, 7060, Note_on_c, 4, 64, 51
6, 7079, Note_on_c, 4, 64, 0
6, 7100, Note_on_c, 4, 68, 51
6, 7119, Note_on_c, 4, 68, 0
6, 7120, Note_on_c, 4, 65, 51
6, 7139, Note_on_c, 4, 65, 0
6, 7160, Note_on_c, 4, 68, 51
6, 7179, Note_on_c, 4, 68, 0
6, 7180, Note_on_c, 4, 65, 51
6, 7199, Note_on_c, 4, 65, 0
6, 7220, Note_on_c, 4, 70, 51
6, 7239, Note_on_c, 4, 70, 0
6, 7240, Note_on_c, 4, 67, 51
6, 7259, Note_on_c, 4, 67, 0
6, 7280, Note_on_c, 4, 70, 51
6, 7299, Note_on_c, 4, 70, 0
6, 7300, Note_on_c, 4, 67, 51
6, 7319, Note_on_c, 4, 67, 0
6, 7340, Note_on_c, 4, 65, 51
6, 7359, Note_on_c, 4, 65, 0
6, 7360, Note_on_c, 4, 68, 51
6, 7379, Note_on_c, 4, 68, 0
6, 7400, Note_on_c, 4, 72, 51
6, 7419, Note_on_c, 4, 72, 0
6, 7420, Note_on_c, 4, 68, 51
6, 7439, Note_on_c, 4, 68, 0
6, 7460, Note_on_c, 4, 69, 51
6, 7479, Note_on_c, 4, 69, 0
6, 7480, Note_on_c, 4, 66, 51
6, 7499, Note_on_c, 4, 66, 0
6, 7520, Note_on_c, 4, 69, 51
6, 7539, Note_on_c, 4, 69, 0
6, 7540, Note_on_c, 4, 66, 51
6, 7559, Note_on_c, 4, 66, 0
6, 7580, Note_on_c, 4, 70, 51
6, 7599, Note_on_c, 4, 70, 0
6, 7600, Note_on_c, 4, 67, 51
6, 7619, Note_on_c, 4, 67, 0
6, 7640, Note_on_c, 4, 70, 51
6, 7659, Note_on_c, 4, 70, 0
6, 7660, Note_on_c, 4, 67, 51
6, 7679, Note_on_c, 4, 67, 0
6, 7700, Note_on_c, 4, 72, 51
6, 7719, Note_on_c, 4, 72, 0
6, 7720, Note_on_c, 4, 69, 51
6, 7739, Note_on_c, 4, 69, 0
6, 7760, Note_on_c, 4, 72, 51
6, 7779, Note_on_c, 4, 72, 0
6, 7780, Note_on_c, 4, 69, 51
6, 7799, Note_on_c, 4, 69, 0
6, 7820, Note_on_c, 4, 67, 51
6, 7839, Note_on_c, 4, 67, 0
6, 7840, Note_on_c, 4, 71, 51
6, 7859, Note_on_c, 4, 71, 0
6, 7880, Note_on_c, 4, 74, 51
6, 7899, Note_on_c, 4, 74, 0
6, 7900, Note_on_c, 4, 71, 51
6, 7919, Note_on_c, 4, 71, 0
6, 7920, Note_on_c, 4, 72, 92
6, 7939, Note_on_c, 4, 72, 0
6, 7940, Note_on_c, 4, 63, 92
6, 7959, Note_on_c, 4, 63, 0
6, 7960, Note_on_c, 4, 63, 92
6, 7979, Note_on_c, 4, 63, 0
6, 7980, Note_on_c, 4, 63, 92
6, 7999, Note_on_c, 4, 63, 0
6, 8000, Note_on_c, 4, 63, 92
6, 8019, Note_on_c, 4, 63, 0
6, 8020, Note_on_c, 4, 63, 92
6, 8039, Note_on_c, 4, 63, 0
6, 8040, Note_on_c, 4, 65, 92
6, 8059, Note_on_c, 4, 65, 0
6, 8060, Note_on_c, 4, 67, 92
6, 8079, Note_on_c, 4, 67, 0
6, 8080, Note_on_c, 4, 68, 92
6, 8099, Note_on_c, 4, 68, 0
6, 8100, Note_on_c, 4, 66, 92
6, 8119, Note_on_c, 4, 66, 0
6, 8120, Note_on_c, 4, 66, 92
6, 8139, Note_on_c, 4, 66, 0
6, 8140, Note_on_c, 4, 66, 92
6, 8159, Note_on_c, 4, 66, 0
6, 8160, Note_on_c, 4, 62, 92
6, 8179, Note_on_c, 4, 62, 0
6, 8180, Note_on_c, 4, 62, 51
6, 8199, Note_on_c, 4, 62, 0
6, 8200, Note_on_c, 4, 62, 51
6, 8219, Note_on_c, 4, 62, 0
6, 8220, Note_on_c, 4, 62, 51
6, 8239, Note_on_c, 4, 62, 0
6, 8240, Note_on_c, 4, 62, 51
6, 8259, Note_on_c, 4, 62, 0
6, 8260, Note_on_c, 4, 62, 51
6, 8279, Note_on_c, 4, 62, 0
6, 8280, Note_on_c, 4, 62, 51
6, 8399, Note_on_c, 4, 62, 0
6, 8880, Note_on_c, 4, 53, 51
6, 8899, Note_on_c, 4, 53, 0
6, 8900, Note_on_c, 4, 53, 51
6, 8919, Note_on_c, 4, 53, 0
6, 8920, Note_on_c, 4, 53, 51
6, 8939, Note_on_c, 4, 53, 0
6, 8940, Note_on_c, 4, 53, 51
6, 8959, Note_on_c, 4, 53, 0
6, 8960, Note_on_c, 4, 53, 51
6, 8979, Note_on_c, 4, 53, 0
6, 8980, Note_on_c, 4, 53, 51
6, 8999, Note_on_c, 4, 53, 0
6, 9000, Note_on_c, 4, 53, 51
6, 9019, Note_on_c, 4, 53, 0
6, 9020, Note_on_c, 4, 53, 51
6, 9039, Note_on_c, 4, 53, 0
6, 9040, Note_on_c, 4, 53, 51
6, 9059, Note_on_c, 4, 53, 0
6, 9060, Note_on_c, 4, 53, 51
6, 9079, Note_on_c, 4, 53, 0
6, 9080, Note_on_c, 4, 53, 51
6, 9099, Note_on_c, 4, 53, 0
6, 9100, Note_on_c, 4, 53, 51
6, 9119, Note_on_c, 4, 53, 0
6, 9120, Note_on_c, 4, 51, 51
6, 9139, Note_on_c, 4, 51, 0
6, 9140, Note_on_c, 4, 55, 51
6, 9159, Note_on_c, 4, 55, 0
6, 9160, Note_on_c, 4, 55, 51
6, 9179, Note_on_c, 4, 55, 0
6, 9180, Note_on_c, 4, 55, 51
6, 9199, Note_on_c, 4, 55, 0
6, 9200, Note_on_c, 4, 55, 51
6, 9219, Note_on_c, 4, 55, 0
6, 9220, Note_on_c, 4, 55, 51
6, 9239, Note_on_c, 4, 55, 0
6, 9240, Note_on_c, 4, 55, 51
6, 9259, Note_on_c, 4, 55, 0
6, 9260, Note_on_c, 4, 55, 51
6, 9279, Note_on_c, 4, 55, 0
6, 9280, Note_on_c, 4, 55, 51
6, 9299, Note_on_c, 4, 55, 0
6, 9300, Note_on_c, 4, 55, 51
6, 9319, Note_on_c, 4, 55, 0
6, 9320, Note_on_c, 4, 55, 51
6, 9339, Note_on_c, 4, 55, 0
6, 9340, Note_on_c, 4, 55, 51
6, 9359, Note_on_c, 4, 55, 0
6, 9360, Note_on_c, 4, 50, 51
6, 9379, Note_on_c, 4, 50, 0
6, 9380, Note_on_c, 4, 53, 51
6, 9399, Note_on_c, 4, 53, 0
6, 9400, Note_on_c, 4, 56, 51
6, 9419, Note_on_c, 4, 56, 0
6, 9420, Note_on_c, 4, 56, 51
6, 9439, Note_on_c, 4, 56, 0
6, 9440, Note_on_c, 4, 56, 51
6, 9459, Note_on_c, 4, 56, 0
6, 9460, Note_on_c, 4, 56, 51
6, 9479, Note_on_c, 4, 56, 0
6, 9480, Note_on_c, 4, 56, 51
6, 9499, Note_on_c, 4, 56, 0
6, 9500, Note_on_c, 4, 56, 51
6, 9519, Note_on_c, 4, 56, 0
6, 9520, Note_on_c, 4, 56, 51
6, 9539, Note_on_c, 4, 56, 0
6, 9540, Note_on_c, 4, 56, 51
6, 9559, Note_on_c, 4, 56, 0
6, 9560, Note_on_c, 4, 56, 51
6, 9579, Note_on_c, 4, 56, 0
6, 9580, Note_on_c, 4, 56, 51
6, 9599, Note_on_c, 4, 56, 0
6, 9600, Note_on_c, 4, 51, 51
6, 9619, Note_on_c, 4, 51, 0
6, 9620, Note_on_c, 4, 55, 51
6, 9639, Note_on_c, 4, 55, 0
6, 9640, Note_on_c, 4, 59, 51
6, 9659, Note_on_c, 4, 59, 0
6, 9660, Note_on_c, 4, 59, 51
6, 9679, Note_on_c, 4, 59, 0
6, 9680, Note_on_c, 4, 59, 51
6, 9699, Note_on_c, 4, 59, 0
6, 9700, Note_on_c, 4, 59, 51
6, 9719, Note_on_c, 4, 59, 0
6, 9720, Note_on_c, 4, 60, 51
6, 9739, Note_on_c, 4, 60, 0
6, 9740, Note_on_c, 4, 60, 51
6, 9759, Note_on_c, 4, 60, 0
6, 9760, Note_on_c, 4, 60, 51
6, 9779, Note_on_c, 4, 60, 0
6, 9780, Note_on_c, 4, 60, 51
6, 9799, Note_on_c, 4, 60, 0
6, 9800, Note_on_c, 4, 60, 51
6, 9819, Note_on_c, 4, 60, 0
6, 9820, Note_on_c, 4, 60, 51
6, 9839, Note_on_c, 4, 60, 0
6, 9840, Note_on_c, 4, 60, 51
6, 9899, Note_on_c, 4, 60, 0
6, 9930, Note_on_c, 4, 56, 51
6, 9959, Note_on_c, 4, 56, 0
6, 9960, Note_on_c, 4, 55, 51
6, 9995, Note_on_c, 4, 55, 0
6, 10020, Note_on_c, 4, 55, 51
6, 10055, Note_on_c, 4, 55, 0
6, 10080, Note_on_c, 4, 55, 51
6, 10115, Note_on_c, 4, 55, 0
6, 10560, Note_on_c, 4, 53, 51
6, 10579, Note_on_c, 4, 53, 0
6, 10580, Note_on_c, 4, 53, 51
6, 10599, Note_on_c, 4, 53, 0
6, 10600, Note_on_c, 4, 53, 51
6, 10619, Note_on_c, 4, 53, 0
6, 10620, Note_on_c, 4, 53, 51
6, 10639, Note_on_c, 4, 53, 0
6, 10640, Note_on_c, 4, 53, 51
6, 10659, Note_on_c, 4, 53, 0
6, 10660, Note_on_c, 4, 53, 51
6, 10679, Note_on_c, 4, 53, 0
6, 10680, Note_on_c, 4, 53, 51
6, 10699, Note_on_c, 4, 53, 0
6, 10700, Note_on_c, 4, 53, 51
6, 10719, Note_on_c, 4, 53, 0
6, 10720, Note_on_c, 4, 53, 51
6, 10739, Note_on_c, 4, 53, 0
6, 10740, Note_on_c, 4, 53, 51
6, 10759, Note_on_c, 4, 53, 0
6, 10760, Note_on_c, 4, 53, 51
6, 10779, Note_on_c, 4, 53, 0
6, 10780, Note_on_c, 4, 53, 51
6, 10799, Note_on_c, 4, 53, 0
6, 10800, Note_on_c, 4, 51, 51
6, 10819, Note_on_c, 4, 51, 0
6, 10820, Note_on_c, 4, 55, 51
6, 10839, Note_on_c, 4, 55, 0
6, 10840, Note_on_c, 4, 55, 51
6, 10859, Note_on_c, 4, 55, 0
6, 10860, Note_on_c, 4, 55, 51
6, 10879, Note_on_c, 4, 55, 0
6, 10880, Note_on_c, 4, 55, 51
6, 10899, Note_on_c, 4, 55, 0
6, 10900, Note_on_c, 4, 55, 51
6, 10919, Note_on_c, 4, 55, 0
6, 10920, Note_on_c, 4, 55, 51
6, 10939, Note_on_c, 4, 55, 0
6, 10940, Note_on_c, 4, 55, 51
6, 10959, Note_on_c, 4, 55, 0
6, 10960, Note_on_c, 4, 55, 51
6, 10979, Note_on_c, 4, 55, 0
6, 10980, Note_on_c, 4, 55, 51
6, 10999, Note_on_c, 4, 55, 0
6, 11000, Note_on_c, 4, 55, 51
6, 11019, Note_on_c, 4, 55, 0
6, 11020, Note_on_c, 4, 55, 51
6, 11039, Note_on_c, 4, 55, 0
6, 11040, Note_on_c, 4, 50, 51
6, 11059, Note_on_c, 4, 50, 0
6, 11060, Note_on_c, 4, 53, 51
6, 11079, Note_on_c, 4, 53, 0
6, 11080, Note_on_c, 4, 56, 51
6, 11099, Note_on_c, 4, 56, 0
6, 11100, Note_on_c, 4, 56, 51
6, 11119, Note_on_c, 4, 56, 0
6, 11120, Note_on_c, 4, 56, 51
6, 11139, Note_on_c, 4, 56, 0
6, 11140, Note_on_c, 4, 56, 51
6, 11159, Note_on_c, 4, 56, 0
6, 11160, Note_on_c, 4, 56, 51
6, 11179, Note_on_c, 4, 56, 0
6, 11180, Note_on_c, 4, 56, 51
6, 11199, Note_on_c, 4, 56, 0
6, 11200, Note_on_c, 4, 56, 51
6, 11219, Note_on_c, 4, 56, 0
6, 11220, Note_on_c, 4, 56, 51
6, 11239, Note_on_c, 4, 56, 0
6, 11240, Note_on_c, 4, 56, 51
6, 11259, Note_on_c, 4, 56, 0
6, 11260, Note_on_c, 4, 56, 51
6, 11279, Note_on_c, 4, 56, 0
6, 11280, Note_on_c, 4, 51, 51
6, 11299, Note_on_c, 4, 51, 0
6, 11300, Note_on_c, 4, 55, 51
6, 11319, Note_on_c, 4, 55, 0
6, 11320, Note_on_c, 4, 59, 51
6, 11339, Note_on_c, 4, 59, 0
6, 11340, Note_on_c, 4, 59, 51
6, 11359, Note_on_c, 4, 59, 0
6, 11360, Note_on_c, 4, 59, 51
6, 11379, Note_on_c, 4, 59, 0
6, 11380, Note_on_c, 4, 59, 51
6, 11399, Note_on_c, 4, 59, 0
6, 11400, Note_on_c, 4, 60, 51
6, 11419, Note_on_c, 4, 60, 0
6, 11420, Note_on_c, 4, 60, 51
6, 11439, Note_on_c, 4, 60, 0
6, 11440, Note_on_c, 4, 60, 51
6, 11459, Note_on_c, 4, 60, 0
6, 11460, Note_on_c, 4, 60, 51
6, 11479, Note_on_c, 4, 60, 0
6, 11480, Note_on_c, 4, 60, 51
6, 11499, Note_on_c, 4, 60, 0
6, 11500, Note_on_c, 4, 60, 51
6, 11519, Note_on_c, 4, 60, 0
6, 11520, Note_on_c, 4, 60, 51
6, 11579, Note_on_c, 4, 60, 0
6, 11610, Note_on_c, 4, 56, 51
6, 11639, Note_on_c, 4, 56, 0
6, 11640, Note_on_c, 4, 55, 51
6, 11675, Note_on_c, 4, 55, 0
6, 11700, Note_on_c, 4, 55, 51
6, 11735, Note_on_c, 4, 55, 0
6, 11760, Note_on_c, 4, 55, 51
6, 11779, Note_on_c, 4, 55, 0
6, 11780, Note_on_c, 4, 60, 51
6, 11799, Note_on_c, 4, 60, 0
6, 11800, Note_on_c, 4, 60, 51
6, 11819, Note_on_c, 4, 60, 0
6, 11820, Note_on_c, 4, 60, 51
6, 11839, Note_on_c, 4, 60, 0
6, 11840, Note_on_c, 4, 60, 51
6, 11859, Note_on_c, 4, 60, 0
6, 11860, Note_on_c, 4, 60, 51
6, 11879, Note_on_c, 4, 60, 0
6, 11880, Note_on_c, 4, 60, 51
6, 11939, Note_on_c, 4, 60, 0
6, 12000, Note_on_c, 4, 60, 51
6, 12035, Note_on_c, 4, 60, 0
6, 12060, Note_on_c, 4, 48, 51
6, 12095, Note_on_c, 4, 48, 0
6, 12120, Note_on_c, 4, 48, 51
6, 12155, Note_on_c, 4, 48, 0
6, 12155, End_track
7, 0, Start_track
7, 0, MIDI_port, 0
7, 0, Title_t, "Cello"
7, 0, Program_c, 5, 42
7, 300, Note_on_c, 5, 48, 86
7, 320, Note_on_c, 5, 48, 0
7, 330, Note_on_c, 5, 50, 86
7, 350, Note_on_c, 5, 50, 0
7, 360, Note_on_c, 5, 51, 86
7, 380, Note_on_c, 5, 51, 0
7, 390, Note_on_c, 5, 53, 86
7, 410, Note_on_c, 5, 53, 0
7, 420, Note_on_c, 5, 55, 86
7, 460, Note_on_c, 5, 55, 0
7, 540, Note_on_c, 5, 53, 86
7, 560, Note_on_c, 5, 53, 0
7, 570, Note_on_c, 5, 55, 86
7, 590, Note_on_c, 5, 55, 0
7, 600, Note_on_c, 5, 56, 86
7, 620, Note_on_c, 5, 56, 0
7, 630, Note_on_c, 5, 55, 86
7, 650, Note_on_c, 5, 55, 0
7, 660, Note_on_c, 5, 53, 86
7, 700, Note_on_c, 5, 53, 0
7, 780, Note_on_c, 5, 43, 86
7, 800, Note_on_c, 5, 43, 0
7, 810, Note_on_c, 5, 45, 86
7, 830, Note_on_c, 5, 45, 0
7, 840, Note_on_c, 5, 47, 86
7, 860, Note_on_c, 5, 47, 0
7, 870, Note_on_c, 5, 48, 86
7, 890, Note_on_c, 5, 48, 0
7, 900, Note_on_c, 5, 50, 86
7, 940, Note_on_c, 5, 50, 0
7, 1020, Note_on_c, 5, 48, 86
7, 1040, Note_on_c, 5, 48, 0
7, 1050, Note_on_c, 5, 50, 86
7, 1070, Note_on_c, 5, 50, 0
7, 1080, Note_on_c, 5, 51, 86
7, 1100, Note_on_c, 5, 51, 0
7, 1110, Note_on_c, 5, 50, 86
7, 1130, Note_on_c, 5, 50, 0
7, 1140, Note_on_c, 5, 48, 86
7, 1180, Note_on_c, 5, 48, 0
7, 1260, Note_on_c, 5, 53, 86
7, 1290, Note_on_c, 5, 53, 0
7, 1290, Note_on_c, 5, 54, 86
7, 1320, Note_on_c, 5, 54, 0
7, 1320, Note_on_c, 5, 55, 86
7, 1360, Note_on_c, 5, 55, 0
7, 1380, Note_on_c, 5, 43, 86
7, 1420, Note_on_c, 5, 43, 0
7, 1440, Note_on_c, 5, 48, 86
7, 1453, Note_on_c, 5, 48, 0
7, 1460, Note_on_c, 5, 48, 86
7, 1473, Note_on_c, 5, 48, 0
7, 1480, Note_on_c, 5, 48, 86
7, 1493, Note_on_c, 5, 48, 0
7, 1500, Note_on_c, 5, 48, 86
7, 1513, Note_on_c, 5, 48, 0
7, 1520, Note_on_c, 5, 48, 86
7, 1533, Note_on_c, 5, 48, 0
7, 1540, Note_on_c, 5, 48, 86
7, 1553, Note_on_c, 5, 48, 0
7, 1560, Note_on_c, 5, 48, 86
7, 1600, Note_on_c, 5, 48, 0
7, 1740, Note_on_c, 5, 51, 86
7, 1760, Note_on_c, 5, 51, 0
7, 1770, Note_on_c, 5, 53, 86
7, 1790, Note_on_c, 5, 53, 0
7, 1800, Note_on_c, 5, 55, 86
7, 1820, Note_on_c, 5, 55, 0
7, 1830, Note_on_c, 5, 53, 86
7, 1850, Note_on_c, 5, 53, 0
7, 1860, Note_on_c, 5, 51, 86
7, 1900, Note_on_c, 5, 51, 0
7, 1980, Note_on_c, 5, 56, 86
7, 2000, Note_on_c, 5, 56, 0
7, 2010, Note_on_c, 5, 58, 86
7, 2030, Note_on_c, 5, 58, 0
7, 2040, Note_on_c, 5, 60, 86
7, 2060, Note_on_c, 5, 60, 0
7, 2070, Note_on_c, 5, 58, 86
7, 2090, Note_on_c, 5, 58, 0
7, 2100, Note_on_c, 5, 56, 86
7, 2140, Note_on_c, 5, 56, 0
7, 2220, Note_on_c, 5, 46, 86
7, 2240, Note_on_c, 5, 46, 0
7, 2250, Note_on_c, 5, 48, 86
7, 2270, Note_on_c, 5, 48, 0
7, 2280, Note_on_c, 5, 50, 86
7, 2300, Note_on_c, 5, 50, 0
7, 2310, Note_on_c, 5, 48, 86
7, 2330, Note_on_c, 5, 48, 0
7, 2340, Note_on_c, 5, 46, 86
7, 2380, Note_on_c, 5, 46, 0
7, 2460, Note_on_c, 5, 51, 86
7, 2480, Note_on_c, 5, 51, 0
7, 2490, Note_on_c, 5, 53, 86
7, 2510, Note_on_c, 5, 53, 0
7, 2520, Note_on_c, 5, 55, 86
7, 2540, Note_on_c, 5, 55, 0
7, 2550, Note_on_c, 5, 53, 86
7, 2570, Note_on_c, 5, 53, 0
7, 2580, Note_on_c, 5, 51, 86
7, 2620, Note_on_c, 5, 51, 0
7, 2700, Note_on_c, 5, 53, 86
7, 2720, Note_on_c, 5, 53, 0
7, 2730, Note_on_c, 5, 55, 86
7, 2750, Note_on_c, 5, 55, 0
7, 2760, Note_on_c, 5, 56, 86
7, 2780, Note_on_c, 5, 56, 0
7, 2790, Note_on_c, 5, 55, 86
7, 2810, Note_on_c, 5, 55, 0
7, 2820, Note_on_c, 5, 53, 86
7, 2860, Note_on_c, 5, 53, 0
7, 2940, Note_on_c, 5, 55, 86
7, 2960, Note_on_c, 5, 55, 0
7, 2970, Note_on_c, 5, 56, 86
7, 2990, Note_on_c, 5, 56, 0
7, 3000, Note_on_c, 5, 58, 86
7, 3020, Note_on_c, 5, 58, 0
7, 3030, Note_on_c, 5, 56, 86
7, 3050, Note_on_c, 5, 56, 0
7, 3060, Note_on_c, 5, 55, 86
7, 3100, Note_on_c, 5, 55, 0
7, 3120, Note_on_c, 5, 56, 86
7, 3201, Note_on_c, 5, 56, 0
7, 3240, Note_on_c, 5, 58, 86
7, 3280, Note_on_c, 5, 58, 0
7, 3300, Note_on_c, 5, 46, 86
7, 3340, Note_on_c, 5, 46, 0
7, 3360, Note_on_c, 5, 51, 86
7, 3400, Note_on_c, 5, 51, 0
7, 3420, Note_on_c, 5, 51, 86
7, 3440, Note_on_c, 5, 51, 0
7, 3450, Note_on_c, 5, 53, 86
7, 3470, Note_on_c, 5, 53, 0
7, 3480, Note_on_c, 5, 55, 86
7, 3500, Note_on_c, 5, 55, 0
7, 3510, Note_on_c, 5, 53, 86
7, 3530, Note_on_c, 5, 53, 0
7, 3540, Note_on_c, 5, 51, 86
7, 3580, Note_on_c, 5, 51, 0
7, 3660, Note_on_c, 5, 56, 86
7, 3680, Note_on_c, 5, 56, 0
7, 3690, Note_on_c, 5, 58, 86
7, 3710, Note_on_c, 5, 58, 0
7, 3720, Note_on_c, 5, 60, 86
7, 3740, Note_on_c, 5, 60, 0
7, 3750, Note_on_c, 5, 58, 86
7, 3770, Note_on_c, 5, 58, 0
7, 3780, Note_on_c, 5, 56, 86
7, 3820, Note_on_c, 5, 56, 0
7, 3900, Note_on_c, 5, 46, 86
7, 3920, Note_on_c, 5, 46, 0
7, 3930, Note_on_c, 5, 48, 86
7, 3950, Note_on_c, 5, 48, 0
7, 3960, Note_on_c, 5, 50, 86
7, 3980, Note_on_c, 5, 50, 0
7, 3990, Note_on_c, 5, 48, 86
7, 4010, Note_on_c, 5, 48, 0
7, 4020, Note_on_c, 5, 46, 86
7, 4060, Note_on_c, 5, 46, 0
7, 4140, Note_on_c, 5, 51, 86
7, 4160, Note_on_c, 5, 51, 0
7, 4170, Note_on_c, 5, 53, 86
7, 4190, Note_on_c, 5, 53, 0
7, 4200, Note_on_c, 5, 55, 86
7, 4220, Note_on_c, 5, 55, 0
7, 4230, Note_on_c, 5, 53, 86
7, 4250, Note_on_c, 5, 53, 0
7, 4260, Note_on_c, 5, 51, 86
7, 4300, Note_on_c, 5, 51, 0
7, 4380, Note_on_c, 5, 53, 86
7, 4400, Note_on_c, 5, 53, 0
7, 4410, Note_on_c, 5, 55, 86
7, 4430, Note_on_c, 5, 55, 0
7, 4440, Note_on_c, 5, 56, 86
7, 4460, Note_on_c, 5, 56, 0
7, 4470, Note_on_c, 5, 55, 86
7, 4490, Note_on_c, 5, 55, 0
7, 4500, Note_on_c, 5, 53, 86
7, 4540, Note_on_c, 5, 53, 0
7, 4620, Note_on_c, 5, 55, 86
7, 4640, Note_on_c, 5, 55, 0
7, 4650, Note_on_c, 5, 56, 86
7, 4670, Note_on_c, 5, 56, 0
7, 4680, Note_on_c, 5, 58, 86
7, 4700, Note_on_c, 5, 58, 0
7, 4710, Note_on_c, 5, 56, 86
7, 4730, Note_on_c, 5, 56, 0
7, 4740, Note_on_c, 5, 55, 86
7, 4780, Note_on_c, 5, 55, 0
7, 4800, Note_on_c, 5, 56, 86
7, 4840, Note_on_c, 5, 56, 0
7, 4860, Note_on_c, 5, 56, 86
7, 4900, Note_on_c, 5, 56, 0
7, 4920, Note_on_c, 5, 58, 86
7, 4960, Note_on_c, 5, 58, 0
7, 4980, Note_on_c, 5, 46, 86
7, 5020, Note_on_c, 5, 46, 0
7, 5040, Note_on_c, 5, 51, 86
7, 5053, Note_on_c, 5, 51, 0
7, 5060, Note_on_c, 5, 51, 86
7, 5073, Note_on_c, 5, 51, 0
7, 5080, Note_on_c, 5, 51, 86
7, 5093, Note_on_c, 5, 51, 0
7, 5100, Note_on_c, 5, 51, 86
7, 5113, Note_on_c, 5, 51, 0
7, 5120, Note_on_c, 5, 51, 86
7, 5133, Note_on_c, 5, 51, 0
7, 5140, Note_on_c, 5, 51, 86
7, 5153, Note_on_c, 5, 51, 0
7, 5160, Note_on_c, 5, 51, 86
7, 5200, Note_on_c, 5, 51, 0
7, 5280, Note_on_c, 5, 51, 86
7, 5320, Note_on_c, 5, 51, 0
7, 5580, Note_on_c, 5, 51, 86
7, 5600, Note_on_c, 5, 51, 0
7, 5610, Note_on_c, 5, 53, 86
7, 5630, Note_on_c, 5, 53, 0
7, 5640, Note_on_c, 5, 55, 86
7, 5660, Note_on_c, 5, 55, 0
7, 5670, Note_on_c, 5, 53, 86
7, 5690, Note_on_c, 5, 53, 0
7, 5700, Note_on_c, 5, 51, 86
7, 5740, Note_on_c, 5, 51, 0
7, 5820, Note_on_c, 5, 56, 86
7, 5840, Note_on_c, 5, 56, 0
7, 5850, Note_on_c, 5, 58, 86
7, 5870, Note_on_c, 5, 58, 0
7, 5880, Note_on_c, 5, 60, 86
7, 5900, Note_on_c, 5, 60, 0
7, 5910, Note_on_c, 5, 58, 86
7, 5930, Note_on_c, 5, 58, 0
7, 5940, Note_on_c, 5, 56, 86
7, 5980, Note_on_c, 5, 56, 0
7, 6060, Note_on_c, 5, 46, 86
7, 6080, Note_on_c, 5, 46, 0
7, 6090, Note_on_c, 5, 48, 86
7, 6110, Note_on_c, 5, 48, 0
7, 6120, Note_on_c, 5, 50, 86
7, 6140, Note_on_c, 5, 50, 0
7, 6150, Note_on_c, 5, 48, 86
7, 6170, Note_on_c, 5, 48, 0
7, 6180, Note_on_c, 5, 46, 86
7, 6220, Note_on_c, 5, 46, 0
7, 6300, Note_on_c, 5, 51, 86
7, 6320, Note_on_c, 5, 51, 0
7, 6330, Note_on_c, 5, 53, 86
7, 6350, Note_on_c, 5, 53, 0
7, 6360, Note_on_c, 5, 55, 86
7, 6380, Note_on_c, 5, 55, 0
7, 6390, Note_on_c, 5, 53, 86
7, 6410, Note_on_c, 5, 53, 0
7, 6420, Note_on_c, 5, 51, 86
7, 6460, Note_on_c, 5, 51, 0
7, 6480, Note_on_c, 5, 44, 86
7, 6520, Note_on_c, 5, 44, 0
7, 6540, Note_on_c, 5, 56, 86
7, 6560, Note_on_c, 5, 56, 0
7, 6570, Note_on_c, 5, 57, 86
7, 6590, Note_on_c, 5, 57, 0
7, 6600, Note_on_c, 5, 58, 86
7, 6640, Note_on_c, 5, 58, 0
7, 6660, Note_on_c, 5, 46, 86
7, 6700, Note_on_c, 5, 46, 0
7, 6720, Note_on_c, 5, 51, 86
7, 6733, Note_on_c, 5, 51, 0
7, 6740, Note_on_c, 5, 51, 86
7, 6753, Note_on_c, 5, 51, 0
7, 6760, Note_on_c, 5, 51, 86
7, 6773, Note_on_c, 5, 51, 0
7, 6780, Note_on_c, 5, 51, 86
7, 6793, Note_on_c, 5, 51, 0
7, 6800, Note_on_c, 5, 51, 86
7, 6813, Note_on_c, 5, 51, 0
7, 6820, Note_on_c, 5, 51, 86
7, 6833, Note_on_c, 5, 51, 0
7, 6840, Note_on_c, 5, 51, 86
7, 6880, Note_on_c, 5, 51, 0
7, 6960, Note_on_c, 5, 60, 86
7, 7000, Note_on_c, 5, 60, 0
7, 7080, Note_on_c, 5, 56, 86
7, 7120, Note_on_c, 5, 56, 0
7, 7200, Note_on_c, 5, 52, 86
7, 7240, Note_on_c, 5, 52, 0
7, 7320, Note_on_c, 5, 53, 86
7, 7360, Note_on_c, 5, 53, 0
7, 7440, Note_on_c, 5, 62, 86
7, 7480, Note_on_c, 5, 62, 0
7, 7560, Note_on_c, 5, 58, 86
7, 7600, Note_on_c, 5, 58, 0
7, 7680, Note_on_c, 5, 54, 86
7, 7720, Note_on_c, 5, 54, 0
7, 7800, Note_on_c, 5, 53, 86
7, 7840, Note_on_c, 5, 53, 0
7, 7920, Note_on_c, 5, 51, 114
7, 7933, Note_on_c, 5, 51, 0
7, 7940, Note_on_c, 5, 51, 114
7, 7953, Note_on_c, 5, 51, 0
7, 7960, Note_on_c, 5, 51, 114
7, 7973, Note_on_c, 5, 51, 0
7, 7980, Note_on_c, 5, 51, 114
7, 7993, Note_on_c, 5, 51, 0
7, 8000, Note_on_c, 5, 51, 114
7, 8013, Note_on_c, 5, 51, 0
7, 8020, Note_on_c, 5, 51, 114
7, 8033, Note_on_c, 5, 51, 0
7, 8040, Note_on_c, 5, 53, 114
7, 8053, Note_on_c, 5, 53, 0
7, 8060, Note_on_c, 5, 55, 114
7, 8073, Note_on_c, 5, 55, 0
7, 8080, Note_on_c, 5, 56, 114
7, 8093, Note_on_c, 5, 56, 0
7, 8100, Note_on_c, 5, 54, 114
7, 8113, Note_on_c, 5, 54, 0
7, 8120, Note_on_c, 5, 54, 114
7, 8133, Note_on_c, 5, 54, 0
7, 8140, Note_on_c, 5, 54, 114
7, 8153, Note_on_c, 5, 54, 0
7, 8160, Note_on_c, 5, 55, 114
7, 8173, Note_on_c, 5, 55, 0
7, 8180, Note_on_c, 5, 55, 86
7, 8193, Note_on_c, 5, 55, 0
7, 8200, Note_on_c, 5, 55, 86
7, 8213, Note_on_c, 5, 55, 0
7, 8220, Note_on_c, 5, 43, 86
7, 8233, Note_on_c, 5, 43, 0
7, 8240, Note_on_c, 5, 43, 86
7, 8253, Note_on_c, 5, 43, 0
7, 8260, Note_on_c, 5, 43, 86
7, 8273, Note_on_c, 5, 43, 0
7, 8280, Note_on_c, 5, 43, 86
7, 8320, Note_on_c, 5, 43, 0
7, 8460, Note_on_c, 5, 48, 86
7, 8480, Note_on_c, 5, 48, 0
7, 8490, Note_on_c, 5, 50, 86
7, 8510, Note_on_c, 5, 50, 0
7, 8520, Note_on_c, 5, 51, 86
7, 8540, Note_on_c, 5, 51, 0
7, 8550, Note_on_c, 5, 50, 86
7, 8570, Note_on_c, 5, 50, 0
7, 8580, Note_on_c, 5, 48, 86
7, 8620, Note_on_c, 5, 48, 0
7, 8700, Note_on_c, 5, 53, 86
7, 8720, Note_on_c, 5, 53, 0
7, 8730, Note_on_c, 5, 55, 86
7, 8750, Note_on_c, 5, 55, 0
7, 8760, Note_on_c, 5, 56, 86
7, 8780, Note_on_c, 5, 56, 0
7, 8790, Note_on_c, 5, 55, 86
7, 8810, Note_on_c, 5, 55, 0
7, 8820, Note_on_c, 5, 53, 86
7, 8860, Note_on_c, 5, 53, 0
7, 8940, Note_on_c, 5, 43, 86
7, 8960, Note_on_c, 5, 43, 0
7, 8970, Note_on_c, 5, 45, 86
7, 8990, Note_on_c, 5, 45, 0
7, 9000, Note_on_c, 5, 47, 86
7, 9020, Note_on_c, 5, 47, 0
7, 9030, Note_on_c, 5, 45, 86
7, 9050, Note_on_c, 5, 45, 0
7, 9060, Note_on_c, 5, 43, 86
7, 9100, Note_on_c, 5, 43, 0
7, 9180, Note_on_c, 5, 48, 86
7, 9200, Note_on_c, 5, 48, 0
7, 9210, Note_on_c, 5, 50, 86
7, 9230, Note_on_c, 5, 50, 0
7, 9240, Note_on_c, 5, 51, 86
7, 9260, Note_on_c, 5, 51, 0
7, 9270, Note_on_c, 5, 50, 86
7, 9290, Note_on_c, 5, 50, 0
7, 9300, Note_on_c, 5, 48, 86
7, 9340, Note_on_c, 5, 48, 0
7, 9420, Note_on_c, 5, 50, 86
7, 9440, Note_on_c, 5, 50, 0
7, 9450, Note_on_c, 5, 51, 86
7, 9470, Note_on_c, 5, 51, 0
7, 9480, Note_on_c, 5, 53, 86
7, 9500, Note_on_c, 5, 53, 0
7, 9510, Note_on_c, 5, 51, 86
7, 9530, Note_on_c, 5, 51, 0
7, 9540, Note_on_c, 5, 50, 86
7, 9580, Note_on_c, 5, 50, 0
7, 9660, Note_on_c, 5, 51, 86
7, 9680, Note_on_c, 5, 51, 0
7, 9690, Note_on_c, 5, 53, 86
7, 9710, Note_on_c, 5, 53, 0
7, 9720, Note_on_c, 5, 55, 86
7, 9740, Note_on_c, 5, 55, 0
7, 9750, Note_on_c, 5, 53, 86
7, 9770, Note_on_c, 5, 53, 0
7, 9780, Note_on_c, 5, 51, 86
7, 9820, Note_on_c, 5, 51, 0
7, 9840, Note_on_c, 5, 53, 86
7, 9880, Note_on_c, 5, 53, 0
7, 9900, Note_on_c, 5, 53, 86
7, 9940, Note_on_c, 5, 53, 0
7, 9960, Note_on_c, 5, 55, 86
7, 10000, Note_on_c, 5, 55, 0
7, 10020, Note_on_c, 5, 43, 86
7, 10060, Note_on_c, 5, 43, 0
7, 10140, Note_on_c, 5, 48, 86
7, 10160, Note_on_c, 5, 48, 0
7, 10170, Note_on_c, 5, 50, 86
7, 10190, Note_on_c, 5, 50, 0
7, 10200, Note_on_c, 5, 51, 86
7, 10220, Note_on_c, 5, 51, 0
7, 10230, Note_on_c, 5, 50, 86
7, 10250, Note_on_c, 5, 50, 0
7, 10260, Note_on_c, 5, 48, 86
7, 10300, Note_on_c, 5, 48, 0
7, 10380, Note_on_c, 5, 53, 86
7, 10400, Note_on_c, 5, 53, 0
7, 10410, Note_on_c, 5, 55, 86
7, 10430, Note_on_c, 5, 55, 0
7, 10440, Note_on_c, 5, 56, 86
7, 10460, Note_on_c, 5, 56, 0
7, 10470, Note_on_c, 5, 55, 86
7, 10490, Note_on_c, 5, 55, 0
7, 10500, Note_on_c, 5, 53, 86
7, 10540, Note_on_c, 5, 53, 0
7, 10620, Note_on_c, 5, 43, 86
7, 10640, Note_on_c, 5, 43, 0
7, 10650, Note_on_c, 5, 45, 86
7, 10670, Note_on_c, 5, 45, 0
7, 10680, Note_on_c, 5, 47, 86
7, 10700, Note_on_c, 5, 47, 0
7, 10710, Note_on_c, 5, 45, 86
7, 10730, Note_on_c, 5, 45, 0
7, 10740, Note_on_c, 5, 43, 86
7, 10780, Note_on_c, 5, 43, 0
7, 10860, Note_on_c, 5, 48, 86
7, 10880, Note_on_c, 5, 48, 0
7, 10890, Note_on_c, 5, 50, 86
7, 10910, Note_on_c, 5, 50, 0
7, 10920, Note_on_c, 5, 51, 86
7, 10940, Note_on_c, 5, 51, 0
7, 10950, Note_on_c, 5, 50, 86
7, 10970, Note_on_c, 5, 50, 0
7, 10980, Note_on_c, 5, 48, 86
7, 11020, Note_on_c, 5, 48, 0
7, 11100, Note_on_c, 5, 50, 86
7, 11120, Note_on_c, 5, 50, 0
7, 11130, Note_on_c, 5, 51, 86
7, 11150, Note_on_c, 5, 51, 0
7, 11160, Note_on_c, 5, 53, 86
7, 11180, Note_on_c, 5, 53, 0
7, 11190, Note_on_c, 5, 51, 86
7, 11210, Note_on_c, 5, 51, 0
7, 11220, Note_on_c, 5, 50, 86
7, 11260, Note_on_c, 5, 50, 0
7, 11340, Note_on_c, 5, 51, 86
7, 11360, Note_on_c, 5, 51, 0
7, 11370, Note_on_c, 5, 53, 86
7, 11390, Note_on_c, 5, 53, 0
7, 11400, Note_on_c, 5, 55, 86
7, 11420, Note_on_c, 5, 55, 0
7, 11430, Note_on_c, 5, 53, 86
7, 11450, Note_on_c, 5, 53, 0
7, 11460, Note_on_c, 5, 51, 86
7, 11500, Note_on_c, 5, 51, 0
7, 11520, Note_on_c, 5, 53, 86
7, 11560, Note_on_c, 5, 53, 0
7, 11580, Note_on_c, 5, 53, 86
7, 11620, Note_on_c, 5, 53, 0
7, 11640, Note_on_c, 5, 55, 86
7, 11680, Note_on_c, 5, 55, 0
7, 11700, Note_on_c, 5, 43, 86
7, 11740, Note_on_c, 5, 43, 0
7, 11760, Note_on_c, 5, 48, 86
7, 11773, Note_on_c, 5, 48, 0
7, 11780, Note_on_c, 5, 48, 86
7, 11793, Note_on_c, 5, 48, 0
7, 11800, Note_on_c, 5, 48, 86
7, 11813, Note_on_c, 5, 48, 0
7, 11820, Note_on_c, 5, 48, 86
7, 11833, Note_on_c, 5, 48, 0
7, 11840, Note_on_c, 5, 48, 86
7, 11853, Note_on_c, 5, 48, 0
7, 11860, Note_on_c, 5, 48, 86
7, 11873, Note_on_c, 5, 48, 0
7, 11880, Note_on_c, 5, 48, 86
7, 11920, Note_on_c, 5, 48, 0
7, 12000, Note_on_c, 5, 48, 86
7, 12040, Note_on_c, 5, 48, 0
7, 12040, End_track
8, 0, Start_track
8, 0, MIDI_port, 0
8, 0, Title_t, "Bass"
8, 0, Program_c, 6, 42
8, 300, Note_on_c, 6, 36, 68
8, 320, Note_on_c, 6, 36, 0
8, 330, Note_on_c, 6, 38, 68
8, 350, Note_on_c, 6, 38, 0
8, 360, Note_on_c, 6, 39, 68
8, 380, Note_on_c, 6, 39, 0
8, 390, Note_on_c, 6, 41, 68
8, 410, Note_on_c, 6, 41, 0
8, 420, Note_on_c, 6, 43, 68
8, 460, Note_on_c, 6, 43, 0
8, 540, Note_on_c, 6, 41, 68
8, 560, Note_on_c, 6, 41, 0
8, 570, Note_on_c, 6, 43, 68
8, 590, Note_on_c, 6, 43, 0
8, 600, Note_on_c, 6, 44, 68
8, 620, Note_on_c, 6, 44, 0
8, 630, Note_on_c, 6, 43, 68
8, 650, Note_on_c, 6, 43, 0
8, 660, Note_on_c, 6, 41, 68
8, 700, Note_on_c, 6, 41, 0
8, 780, Note_on_c, 6, 31, 68
8, 800, Note_on_c, 6, 31, 0
8, 810, Note_on_c, 6, 33, 68
8, 830, Note_on_c, 6, 33, 0
8, 840, Note_on_c, 6, 35, 68
8, 860, Note_on_c, 6, 35, 0
8, 870, Note_on_c, 6, 36, 68
8, 890, Note_on_c, 6, 36, 0
8, 900, Note_on_c, 6, 38, 68
8, 940, Note_on_c, 6, 38, 0
8, 1020, Note_on_c, 6, 36, 68
8, 1040, Note_on_c, 6, 36, 0
8, 1050, Note_on_c, 6, 38, 68
8, 1070, Note_on_c, 6, 38, 0
8, 1080, Note_on_c, 6, 39, 68
8, 1100, Note_on_c, 6, 39, 0
8, 1110, Note_on_c, 6, 38, 68
8, 1130, Note_on_c, 6, 38, 0
8, 1140, Note_on_c, 6, 36, 68
8, 1180, Note_on_c, 6, 36, 0
8, 1260, Note_on_c, 6, 41, 68
8, 1290, Note_on_c, 6, 41, 0
8, 1290, Note_on_c, 6, 42, 68
8, 1320, Note_on_c, 6, 42, 0
8, 1320, Note_on_c, 6, 43, 68
8, 1360, Note_on_c, 6, 43, 0
8, 1380, Note_on_c, 6, 31, 68
8, 1420, Note_on_c, 6, 31, 0
8, 1440, Note_on_c, 6, 36, 68
8, 1453, Note_on_c, 6, 36, 0
8, 1460, Note_on_c, 6, 36, 68
8, 1473, Note_on_c, 6, 36, 0
8, 1480, Note_on_c, 6, 36, 68
8, 1493, Note_on_c, 6, 36, 0
8, 1500, Note_on_c, 6, 36, 68
8, 1513, Note_on_c, 6, 36, 0
8, 1520, Note_on_c, 6, 36, 68
8, 1533, Note_on_c, 6, 36, 0
8, 1540, Note_on_c, 6, 36, 68
8, 1553, Note_on_c, 6, 36, 0
8, 1560, Note_on_c, 6, 36, 68
8, 1600, Note_on_c, 6, 36, 0
8, 1740, Note_on_c, 6, 39, 68
8, 1760, Note_on_c, 6, 39, 0
8, 1770, Note_on_c, 6, 41, 68
8, 1790, Note_on_c, 6, 41, 0
8, 1800, Note_on_c, 6, 43, 68
8, 1820, Note_on_c, 6, 43, 0
8, 1830, Note_on_c, 6, 41, 68
8, 1850, Note_on_c, 6, 41, 0
8, 1860, Note_on_c, 6, 39, 68
8, 1900, Note_on_c, 6, 39, 0
8, 1980, Note_on_c, 6, 44, 68
8, 2000, Note_on_c, 6, 44, 0
8, 2010, Note_on_c, 6, 46, 68
8, 2030, Note_on_c, 6, 46, 0
8, 2040, Note_on_c, 6, 48, 68
8, 2060, Note_on_c, 6, 48, 0
8, 2070, Note_on_c, 6, 46, 68
8, 2090, Note_on_c, 6, 46, 0
8, 2100, Note_on_c, 6, 44, 68
8, 2140, Note_on_c, 6, 44, 0
8, 2220, Note_on_c, 6, 34, 68
8, 2240, Note_on_c, 6, 34, 0
8, 2250, Note_on_c, 6, 36, 68
8, 2270, Note_on_c, 6, 36, 0
8, 2280, Note_on_c, 6, 38, 68
8, 2300, Note_on_c, 6, 38, 0
8, 2310, Note_on_c, 6, 36, 68
8, 2330, Note_on_c, 6, 36, 0
8, 2340, Note_on_c, 6, 34, 68
8, 2380, Note_on_c, 6, 34, 0
8, 2460, Note_on_c, 6, 39, 68
8, 2480, Note_on_c, 6, 39, 0
8, 2490, Note_on_c, 6, 41, 68
8, 2510, Note_on_c, 6, 41, 0
8, 2520, Note_on_c, 6, 43, 68
8, 2540, Note_on_c, 6, 43, 0
8, 2550, Note_on_c, 6, 41, 68
8, 2570, Note_on_c, 6, 41, 0
8, 2580, Note_on_c, 6, 39, 68
8, 2620, Note_on_c, 6, 39, 0
8, 2700, Note_on_c, 6, 41, 68
8, 2720, Note_on_c, 6, 41, 0
8, 2730, Note_on_c, 6, 43, 68
8, 2750, Note_on_c, 6, 43, 0
8, 2760, Note_on_c, 6, 44, 68
8, 2780, Note_on_c, 6, 44, 0
8, 2790, Note_on_c, 6, 43, 68
8, 2810, Note_on_c, 6, 43, 0
8, 2820, Note_on_c, 6, 41, 68
8, 2860, Note_on_c, 6, 41, 0
8, 2940, Note_on_c, 6, 43, 68
8, 2960, Note_on_c, 6, 43, 0
8, 2970, Note_on_c, 6, 44, 68
8, 2990, Note_on_c, 6, 44, 0
8, 3000, Note_on_c, 6, 46, 68
8, 3020, Note_on_c, 6, 46, 0
8, 3030, Note_on_c, 6, 44, 68
8, 3050, Note_on_c, 6, 44, 0
8, 3060, Note_on_c, 6, 43, 68
8, 3100, Note_on_c, 6, 43, 0
8, 3120, Note_on_c, 6, 44, 68
8, 3201, Note_on_c, 6, 44, 0
8, 3240, Note_on_c, 6, 46, 68
8, 3280, Note_on_c, 6, 46, 0
8, 3300, Note_on_c, 6, 34, 68
8, 3340, Note_on_c, 6, 34, 0
8, 3360, Note_on_c, 6, 39, 68
8, 3400, Note_on_c, 6, 39, 0
8, 3420, Note_on_c, 6, 39, 68
8, 3440, Note_on_c, 6, 39, 0
8, 3450, Note_on_c, 6, 41, 68
8, 3470, Note_on_c, 6, 41, 0
8, 3480, Note_on_c, 6, 43, 68
8, 3500, Note_on_c, 6, 43, 0
8, 3510, Note_on_c, 6, 41, 68
8, 3530, Note_on_c, 6, 41, 0
8, 3540, Note_on_c, 6, 39, 68
8, 3580, Note_on_c, 6, 39, 0
8, 3660, Note_on_c, 6, 44, 68
8, 3680, Note_on_c, 6, 44, 0
8, 3690, Note_on_c, 6, 46, 68
8, 3710, Note_on_c, 6, 46, 0
8, 3720, Note_on_c, 6, 48, 68
8, 3740, Note_on_c, 6, 48, 0
8, 3750, Note_on_c, 6, 46, 68
8, 3770, Note_on_c, 6, 46, 0
8, 3780, Note_on_c, 6, 44, 68
8, 3820, Note_on_c, 6, 44, 0
8, 3900, Note_on_c, 6, 34, 68
8, 3920, Note_on_c, 6, 34, 0
8, 3930, Note_on_c, 6, 36, 68
8, 3950, Note_on_c, 6, 36, 0
8, 3960, Note_on_c, 6, 38, 68
8, 3980, Note_on_c, 6, 38, 0
8, 3990, Note_on_c, 6, 36, 68
8, 4010, Note_on_c, 6, 36, 0
8, 4020, Note_on_c, 6, 34, 68
8, 4060, Note_on_c, 6, 34, 0
8, 4140, Note_on_c, 6, 39, 68
8, 4160, Note_on_c, 6, 39, 0
8, 4170, Note_on_c, 6, 41, 68
8, 4190, Note_on_c, 6, 41, 0
8, 4200, Note_on_c, 6, 43, 68
8, 4220, Note_on_c, 6, 43, 0
8, 4230, Note_on_c, 6, 41, 68
8, 4250, Note_on_c, 6, 41, 0
8, 4260, Note_on_c, 6, 39, 68
8, 4300, Note_on_c, 6, 39, 0
8, 4380, Note_on_c, 6, 41, 68
8, 4400, Note_on_c, 6, 41, 0
8, 4410, Note_on_c, 6, 43, 68
8, 4430, Note_on_c, 6, 43, 0
8, 4440, Note_on_c, 6, 44, 68
8, 4460, Note_on_c, 6, 44, 0
8, 4470, Note_on_c, 6, 43, 68
8, 4490, Note_on_c, 6, 43, 0
8, 4500, Note_on_c, 6, 41, 68
8, 4540, Note_on_c, 6, 41, 0
8, 4620, Note_on_c, 6, 43, 68
8, 4640, Note_on_c, 6, 43, 0
8, 4650, Note_on_c, 6, 44, 68
8, 4670, Note_on_c, 6, 44, 0
8, 4680, Note_on_c, 6, 46, 68
8, 4700, Note_on_c, 6, 46, 0
8, 4710, Note_on_c, 6, 44, 68
8, 4730, Note_on_c, 6, 44, 0
8, 4740, Note_on_c, 6, 43, 68
8, 4780, Note_on_c, 6, 43, 0
8, 4800, Note_on_c, 6, 44, 68
8, 4840, Note_on_c, 6, 44, 0
8, 4860, Note_on_c, 6, 44, 68
8, 4900, Note_on_c, 6, 44, 0
8, 4920, Note_on_c, 6, 46, 68
8, 4960, Note_on_c, 6, 46, 0
8, 4980, Note_on_c, 6, 34, 68
8, 5020, Note_on_c, 6, 34, 0
8, 5040, Note_on_c, 6, 39, 68
8, 5053, Note_on_c, 6, 39, 0
8, 5060, Note_on_c, 6, 39, 68
8, 5073, Note_on_c, 6, 39, 0
8, 5080, Note_on_c, 6, 39, 68
8, 5093, Note_on_c, 6, 39, 0
8, 5100, Note_on_c, 6, 39, 68
8, 5113, Note_on_c, 6, 39, 0
8, 5120, Note_on_c, 6, 39, 68
8, 5133, Note_on_c, 6, 39, 0
8, 5140, Note_on_c, 6, 39, 68
8, 5153, Note_on_c, 6, 39, 0
8, 5160, Note_on_c, 6, 39, 68
8, 5200, Note_on_c, 6, 39, 0
8, 5280, Note_on_c, 6, 39, 68
8, 5320, Note_on_c, 6, 39, 0
8, 5580, Note_on_c, 6, 39, 68
8, 5600, Note_on_c, 6, 39, 0
8, 5610, Note_on_c, 6, 41, 68
8, 5630, Note_on_c, 6, 41, 0
8, 5640, Note_on_c, 6, 43, 68
8, 5660, Note_on_c, 6, 43, 0
8, 5670, Note_on_c, 6, 41, 68
8, 5690, Note_on_c, 6, 41, 0
8, 5700, Note_on_c, 6, 39, 68
8, 5740, Note_on_c, 6, 39, 0
8, 5820, Note_on_c, 6, 44, 68
8, 5840, Note_on_c, 6, 44, 0
8, 5850, Note_on_c, 6, 46, 68
8, 5870, Note_on_c, 6, 46, 0
8, 5880, Note_on_c, 6, 48, 68
8, 5900, Note_on_c, 6, 48, 0
8, 5910, Note_on_c, 6, 46, 68
8, 5930, Note_on_c, 6, 46, 0
8, 5940, Note_on_c, 6, 44, 68
8, 5980, Note_on_c, 6, 44, 0
8, 6060, Note_on_c, 6, 34, 68
8, 6080, Note_on_c, 6, 34, 0
8, 6090, Note_on_c, 6, 36, 68
8, 6110, Note_on_c, 6, 36, 0
8, 6120, Note_on_c, 6, 38, 68
8, 6140, Note_on_c, 6, 38, 0
8, 6150, Note_on_c, 6, 36, 68
8, 6170, Note_on_c, 6, 36, 0
8, 6180, Note_on_c, 6, 34, 68
8, 6220, Note_on_c, 6, 34, 0
8, 6300, Note_on_c, 6, 39, 68
8, 6320, Note_on_c, 6, 39, 0
8, 6330, Note_on_c, 6, 41, 68
8, 6350, Note_on_c, 6, 41, 0
8, 6360, Note_on_c, 6, 43, 68
8, 6380, Note_on_c, 6, 43, 0
8, 6390, Note_on_c, 6, 41, 68
8, 6410, Note_on_c, 6, 41, 0
8, 6420, Note_on_c, 6, 39, 68
8, 6460, Note_on_c, 6, 39, 0
8, 6480, Note_on_c, 6, 32, 68
8, 6520, Note_on_c, 6, 32, 0
8, 6540, Note_on_c, 6, 44, 68
8, 6560, Note_on_c, 6, 44, 0
8, 6570, Note_on_c, 6, 45, 68
8, 6590, Note_on_c, 6, 45, 0
8, 6600, Note_on_c, 6, 46, 68
8, 6640, Note_on_c, 6, 46, 0
8, 6660, Note_on_c, 6, 34, 68
8, 6700, Note_on_c, 6, 34, 0
8, 6720, Note_on_c, 6, 39, 68
8, 6733, Note_on_c, 6, 39, 0
8, 6740, Note_on_c, 6, 39, 68
8, 6753, Note_on_c, 6, 39, 0
8, 6760, Note_on_c, 6, 39, 68
8, 6773, Note_on_c, 6, 39, 0
8, 6780, Note_on_c, 6, 39, 68
8, 6793, Note_on_c, 6, 39, 0
8, 6800, Note_on_c, 6, 39, 68
8, 6813, Note_on_c, 6, 39, 0
8, 6820, Note_on_c, 6, 39, 68
8, 6833, Note_on_c, 6, 39, 0
8, 6840, Note_on_c, 6, 39, 68
8, 6880, Note_on_c, 6, 39, 0
8, 6960, Note_on_c, 6, 48, 68
8, 7000, Note_on_c, 6, 48, 0
8, 7080, Note_on_c, 6, 44, 68
8, 7120, Note_on_c, 6, 44, 0
8, 7200, Note_on_c, 6, 40, 68
8, 7240, Note_on_c, 6, 40, 0
8, 7320, Note_on_c, 6, 41, 68
8, 7360, Note_on_c, 6, 41, 0
8, 7440, Note_on_c, 6, 50, 68
8, 7480, Note_on_c, 6, 50, 0
8, 7560, Note_on_c, 6, 46, 68
8, 7600, Note_on_c, 6, 46, 0
8, 7680, Note_on_c, 6, 42, 68
8, 7720, Note_on_c, 6, 42, 0
8, 7800, Note_on_c, 6, 41, 68
8, 7840, Note_on_c, 6, 41, 0
8, 7920, Note_on_c, 6, 39, 105
8, 7933, Note_on_c, 6, 39, 0
8, 7940, Note_on_c, 6, 39, 105
8, 7953, Note_on_c, 6, 39, 0
8, 7960, Note_on_c, 6, 39, 105
8, 7973, Note_on_c, 6, 39, 0
8, 7980, Note_on_c, 6, 39, 105
8, 7993, Note_on_c, 6, 39, 0
8, 8000, Note_on_c, 6, 39, 105
8, 8013, Note_on_c, 6, 39, 0
8, 8020, Note_on_c, 6, 39, 105
8, 8033, Note_on_c, 6, 39, 0
8, 8040, Note_on_c, 6, 41, 105
8, 8053, Note_on_c, 6, 41, 0
8, 8060, Note_on_c, 6, 43, 105
8, 8073, Note_on_c, 6, 43, 0
8, 8080, Note_on_c, 6, 44, 105
8, 8093, Note_on_c, 6, 44, 0
8, 8100, Note_on_c, 6, 42, 105
8, 8113, Note_on_c, 6, 42, 0
8, 8120, Note_on_c, 6, 42, 105
8, 8133, Note_on_c, 6, 42, 0
8, 8140, Note_on_c, 6, 42, 105
8, 8153, Note_on_c, 6, 42, 0
8, 8160, Note_on_c, 6, 43, 105
8, 8173, Note_on_c, 6, 43, 0
8, 8180, Note_on_c, 6, 43, 68
8, 8193, Note_on_c, 6, 43, 0
8, 8200, Note_on_c, 6, 43, 68
8, 8213, Note_on_c, 6, 43, 0
8, 8220, Note_on_c, 6, 31, 68
8, 8233, Note_on_c, 6, 31, 0
8, 8240, Note_on_c, 6, 31, 68
8, 8253, Note_on_c, 6, 31, 0
8, 8260, Note_on_c, 6, 31, 68
8, 8273, Note_on_c, 6, 31, 0
8, 8280, Note_on_c, 6, 31, 68
8, 8320, Note_on_c, 6, 31, 0
8, 8460, Note_on_c, 6, 36, 68
8, 8480, Note_on_c, 6, 36, 0
8, 8490, Note_on_c, 6, 38, 68
8, 8510, Note_on_c, 6, 38, 0
8, 8520, Note_on_c, 6, 39, 68
8, 8540, Note_on_c, 6, 39, 0
8, 8550, Note_on_c, 6, 38, 68
8, 8570, Note_on_c, 6, 38, 0
8, 8580, Note_on_c, 6, 36, 68
8, 8620, Note_on_c, 6, 36, 0
8, 8700, Note_on_c, 6, 41, 68
8, 8720, Note_on_c, 6, 41, 0
8, 8730, Note_on_c, 6, 43, 68
8, 8750, Note_on_c, 6, 43, 0
8, 8760, Note_on_c, 6, 44, 68
8, 8780, Note_on_c, 6, 44, 0
8, 8790, Note_on_c, 6, 43, 68
8, 8810, Note_on_c, 6, 43, 0
8, 8820, Note_on_c, 6, 41, 68
8, 8860, Note_on_c, 6, 41, 0
8, 8940, Note_on_c, 6, 31, 68
8, 8960, Note_on_c, 6, 31, 0
8, 8970, Note_on_c, 6, 33, 68
8, 8990, Note_on_c, 6, 33, 0
8, 9000, Note_on_c, 6, 35, 68
8, 9020, Note_on_c, 6, 35, 0
8, 9030, Note_on_c, 6, 33, 68
8, 9050, Note_on_c, 6, 33, 0
8, 9060, Note_on_c, 6, 31, 68
8, 9100, Note_on_c, 6, 31, 0
8, 9180, Note_on_c, 6, 36, 68
8, 9200, Note_on_c, 6, 36, 0
8, 9210, Note_on_c, 6, 38, 68
8, 9230, Note_on_c, 6, 38, 0
8, 9240, Note_on_c, 6, 39, 68
8, 9260, Note_on_c, 6, 39, 0
8, 9270, Note_on_c, 6, 38, 68
8, 9290, Note_on_c, 6, 38, 0
8, 9300, Note_on_c, 6, 36, 68
8, 9340, Note_on_c, 6, 36, 0
8, 9420, Note_on_c, 6, 38, 68
8, 9440, Note_on_c, 6, 38, 0
8, 9450, Note_on_c, 6, 39, 68
8, 9470, Note_on_c, 6, 39, 0
8, 9480, Note_on_c, 6, 41, 68
8, 9500, Note_on_c, 6, 41, 0
8, 9510, Note_on_c, 6, 39, 68
8, 9530, Note_on_c, 6, 39, 0
8, 9540, Note_on_c, 6, 38, 68
8, 9580, Note_on_c, 6, 38, 0
8, 9660, Note_on_c, 6, 39, 68
8, 9680, Note_on_c, 6, 39, 0
8, 9690, Note_on_c, 6, 41, 68
8, 9710, Note_on_c, 6, 41, 0
8, 9720, Note_on_c, 6, 43, 68
8, 9740, Note_on_c, 6, 43, 0
8, 9750, Note_on_c, 6, 41, 68
8, 9770, Note_on_c, 6, 41, 0
8, 9780, Note_on_c, 6, 39, 68
8, 9820, Note_on_c, 6, 39, 0
8, 9840, Note_on_c, 6, 41, 68
8, 9880, Note_on_c, 6, 41, 0
8, 9900, Note_on_c, 6, 41, 68
8, 9940, Note_on_c, 6, 41, 0
8, 9960, Note_on_c, 6, 43, 68
8, 10000, Note_on_c, 6, 43, 0
8, 10020, Note_on_c, 6, 31, 68
8, 10060, Note_on_c, 6, 31, 0
8, 10140, Note_on_c, 6, 36, 68
8, 10160, Note_on_c, 6, 36, 0
8, 10170, Note_on_c, 6, 38, 68
8, 10190, Note_on_c, 6, 38, 0
8, 10200, Note_on_c, 6, 39, 68
8, 10220, Note_on_c, 6, 39, 0
8, 10230, Note_on_c, 6, 38, 68
8, 10250, Note_on_c, 6, 38, 0
8, 10260, Note_on_c, 6, 36, 68
8, 10300, Note_on_c, 6, 36, 0
8, 10380, Note_on_c, 6, 41, 68
8, 10400, Note_on_c, 6, 41, 0
8, 10410, Note_on_c, 6, 43, 68
8, 10430, Note_on_c, 6, 43, 0
8, 10440, Note_on_c, 6, 44, 68
8, 10460, Note_on_c, 6, 44, 0
8, 10470, Note_on_c, 6, 43, 68
8, 10490, Note_on_c, 6, 43, 0
8, 10500, Note_on_c, 6, 41, 68
8, 10540, Note_on_c, 6, 41, 0
8, 10620, Note_on_c, 6, 31, 68
8, 10640, Note_on_c, 6, 31, 0
8, 10650, Note_on_c, 6, 33, 68
8, 10670, Note_on_c, 6, 33, 0
8, 10680, Note_on_c, 6, 35, 68
8, 10700, Note_on_c, 6, 35, 0
8, 10710, Note_on_c, 6, 33, 68
8, 10730, Note_on_c, 6, 33, 0
8, 10740, Note_on_c, 6, 31, 68
8, 10780, Note_on_c, 6, 31, 0
8, 10860, Note_on_c, 6, 36, 68
8, 10880, Note_on_c, 6, 36, 0
8, 10890, Note_on_c, 6, 38, 68
8, 10910, Note_on_c, 6, 38, 0
8, 10920, Note_on_c, 6, 39, 68
8, 10940, Note_on_c, 6, 39, 0
8, 10950, Note_on_c, 6, 38, 68
8, 10970, Note_on_c, 6, 38, 0
8, 10980, Note_on_c, 6, 36, 68
8, 11020, Note_on_c, 6, 36, 0
8, 11100, Note_on_c, 6, 38, 68
8, 11120, Note_on_c, 6, 38, 0
8, 11130, Note_on_c, 6, 39, 68
8, 11150, Note_on_c, 6, 39, 0
8, 11160, Note_on_c, 6, 41, 68
8, 11180, Note_on_c, 6, 41, 0
8, 11190, Note_on_c, 6, 39, 68
8, 11210, Note_on_c, 6, 39, 0
8, 11220, Note_on_c, 6, 38, 68
8, 11260, Note_on_c, 6, 38, 0
8, 11340, Note_on_c, 6, 39, 68
8, 11360, Note_on_c, 6, 39, 0
8, 11370, Note_on_c, 6, 41, 68
8, 11390, Note_on_c, 6, 41, 0
8, 11400, Note_on_c, 6, 43, 68
8, 11420, Note_on_c, 6, 43, 0
8, 11430, Note_on_c, 6, 41, 68
8, 11450, Note_on_c, 6, 41, 0
8, 11460, Note_on_c, 6, 39, 68
8, 11500, Note_on_c, 6, 39, 0
8, 11520, Note_on_c, 6, 41, 68
8, 11560, Note_on_c, 6, 41, 0
8, 11580, Note_on_c, 6, 41, 68
8, 11620, Note_on_c, 6, 41, 0
8, 11640, Note_on_c, 6, 43, 68
8, 11680, Note_on_c, 6, 43, 0
8, 11700, Note_on_c, 6, 31, 68
8, 11740, Note_on_c, 6, 31, 0
8, 11760, Note_on_c, 6, 36, 68
8, 11773, Note_on_c, 6, 36, 0
8, 11780, Note_on_c, 6, 36, 68
8, 11793, Note_on_c, 6, 36, 0
8, 11800, Note_on_c, 6, 36, 68
8, 11813, Note_on_c, 6, 36, 0
8, 11820, Note_on_c, 6, 36, 68
8, 11833, Note_on_c, 6, 36, 0
8, 11840, Note_on_c, 6, 36, 68
8, 11853, Note_on_c, 6, 36, 0
8, 11860, Note_on_c, 6, 36, 68
8, 11873, Note_on_c, 6, 36, 0
8, 11880, Note_on_c, 6, 36, 68
8, 11920, Note_on_c, 6, 36, 0
8, 12000, Note_on_c, 6, 36, 68
8, 12040, Note_on_c, 6, 36, 0
8, 12040, End_track
9, 0, Start_track
9, 0, MIDI_port, 0
9, 0, Title_t, "Mozart Sym #1, 2nd Mov.  K16"
9, 0, End_track
10, 0, Start_track
10, 0, MIDI_port, 0
10, 0, Title_t, "Sequenced by Shane Ellis"
10, 0, End_track
11, 0, Start_track
11, 0, MIDI_port, 0
11, 0, Title_t, "AOL - SSELLIS"
11, 0, End_track
0, 0, End_of_file
