0, 0, Header, 1, 11, 120
1, 0, Start_track
1, 0, Key_signature, -3, "major"
1, 0, SMPTE_offset, 96, 0, 0, 0, 0
1, 0, Tempo, 329670
1, 0, Time_signature, 4, 2, 24, 8
1, 0, End_track
2, 0, Start_track
2, 0, MIDI_port, 0
2, 0, Title_t, "Oboes"
2, 0, Program_c, 0, 68
2, 480, Note_on_c, 0, 75, 114
2, 480, Note_on_c, 0, 63, 114
2, 695, Note_on_c, 0, 75, 0
2, 695, Note_on_c, 0, 63, 0
2, 720, Note_on_c, 0, 67, 114
2, 720, Note_on_c, 0, 79, 114
2, 935, Note_on_c, 0, 67, 0
2, 935, Note_on_c, 0, 79, 0
2, 960, Note_on_c, 0, 82, 114
2, 960, Note_on_c, 0, 70, 114
2, 1004, Note_on_c, 0, 82, 0
2, 1004, Note_on_c, 0, 70, 0
2, 1020, Note_on_c, 0, 70, 114
2, 1020, Note_on_c, 0, 82, 114
2, 1064, Note_on_c, 0, 70, 0
2, 1064, Note_on_c, 0, 82, 0
2, 1080, Note_on_c, 0, 70, 114
2, 1080, Note_on_c, 0, 82, 114
2, 1124, Note_on_c, 0, 70, 0
2, 1124, Note_on_c, 0, 82, 0
2, 1140, Note_on_c, 0, 70, 114
2, 1140, Note_on_c, 0, 82, 114
2, 1184, Note_on_c, 0, 70, 0
2, 1184, Note_on_c, 0, 82, 0
2, 1200, Note_on_c, 0, 70, 114
2, 1200, Note_on_c, 0, 82, 114
2, 1244, Note_on_c, 0, 70, 0
2, 1244, Note_on_c, 0, 82, 0
2, 1260, Note_on_c, 0, 70, 114
2, 1260, Note_on_c, 0, 82, 114
2, 1304, Note_on_c, 0, 70, 0
2, 1304, Note_on_c, 0, 82, 0
2, 1320, Note_on_c, 0, 70, 114
2, 1320, Note_on_c, 0, 82, 114
2, 1364, Note_on_c, 0, 70, 0
2, 1364, Note_on_c, 0, 82, 0
2, 1380, Note_on_c, 0, 82, 114
2, 1380, Note_on_c, 0, 70, 114
2, 1424, Note_on_c, 0, 82, 0
2, 1424, Note_on_c, 0, 70, 0
2, 1440, Note_on_c, 0, 67, 114
2, 1440, Note_on_c, 0, 79, 114
2, 1493, Note_on_c, 0, 67, 0
2, 1493, Note_on_c, 0, 79, 0
2, 1560, Note_on_c, 0, 75, 114
2, 1560, Note_on_c, 0, 63, 114
2, 1613, Note_on_c, 0, 75, 0
2, 1613, Note_on_c, 0, 63, 0
2, 1920, Note_on_c, 0, 79, 41
2, 1920, Note_on_c, 0, 67, 41
2, 2399, Note_on_c, 0, 79, 0
2, 2399, Note_on_c, 0, 67, 0
2, 2400, Note_on_c, 0, 68, 41
2, 2400, Note_on_c, 0, 79, 41
2, 2879, Note_on_c, 0, 68, 0
2, 2879, Note_on_c, 0, 79, 0
2, 2880, Note_on_c, 0, 68, 41
2, 2880, Note_on_c, 0, 77, 41
2, 3359, Note_on_c, 0, 68, 0
2, 3359, Note_on_c, 0, 77, 0
2, 3360, Note_on_c, 0, 67, 41
2, 3360, Note_on_c, 0, 77, 41
2, 3839, Note_on_c, 0, 67, 0
2, 3839, Note_on_c, 0, 77, 0
2, 3840, Note_on_c, 0, 67, 41
2, 3840, Note_on_c, 0, 75, 41
2, 4319, Note_on_c, 0, 67, 0
2, 4319, Note_on_c, 0, 75, 0
2, 4320, Note_on_c, 0, 75, 41
2, 4320, Note_on_c, 0, 65, 41
2, 4799, Note_on_c, 0, 75, 0
2, 4799, Note_on_c, 0, 65, 0
2, 4800, Note_on_c, 0, 65, 41
2, 4800, Note_on_c, 0, 74, 41
2, 5279, Note_on_c, 0, 65, 0
2, 5279, Note_on_c, 0, 74, 0
2, 5280, Note_on_c, 0, 67, 41
2, 5280, Note_on_c, 0, 75, 41
2, 5399, Note_on_c, 0, 67, 0
2, 5399, Note_on_c, 0, 75, 0
2, 5760, Note_on_c, 0, 63, 114
2, 5760, Note_on_c, 0, 75, 114
2, 5957, Note_on_c, 0, 63, 0
2, 5957, Note_on_c, 0, 75, 0
2, 6000, Note_on_c, 0, 67, 114
2, 6000, Note_on_c, 0, 79, 114
2, 6197, Note_on_c, 0, 67, 0
2, 6197, Note_on_c, 0, 79, 0
2, 6240, Note_on_c, 0, 82, 114
2, 6240, Note_on_c, 0, 70, 114
2, 6299, Note_on_c, 0, 82, 0
2, 6299, Note_on_c, 0, 70, 0
2, 6300, Note_on_c, 0, 70, 114
2, 6300, Note_on_c, 0, 82, 114
2, 6359, Note_on_c, 0, 70, 0
2, 6359, Note_on_c, 0, 82, 0
2, 6360, Note_on_c, 0, 70, 114
2, 6360, Note_on_c, 0, 82, 114
2, 6419, Note_on_c, 0, 70, 0
2, 6419, Note_on_c, 0, 82, 0
2, 6420, Note_on_c, 0, 70, 114
2, 6420, Note_on_c, 0, 82, 114
2, 6479, Note_on_c, 0, 70, 0
2, 6479, Note_on_c, 0, 82, 0
2, 6480, Note_on_c, 0, 70, 114
2, 6480, Note_on_c, 0, 82, 114
2, 6539, Note_on_c, 0, 70, 0
2, 6539, Note_on_c, 0, 82, 0
2, 6540, Note_on_c, 0, 70, 114
2, 6540, Note_on_c, 0, 82, 114
2, 6599, Note_on_c, 0, 70, 0
2, 6599, Note_on_c, 0, 82, 0
2, 6600, Note_on_c, 0, 70, 114
2, 6600, Note_on_c, 0, 82, 114
2, 6659, Note_on_c, 0, 70, 0
2, 6659, Note_on_c, 0, 82, 0
2, 6660, Note_on_c, 0, 82, 114
2, 6660, Note_on_c, 0, 70, 114
2, 6719, Note_on_c, 0, 82, 0
2, 6719, Note_on_c, 0, 70, 0
2, 6720, Note_on_c, 0, 79, 114
2, 6720, Note_on_c, 0, 67, 114
2, 6791, Note_on_c, 0, 79, 0
2, 6791, Note_on_c, 0, 67, 0
2, 6840, Note_on_c, 0, 75, 114
2, 6840, Note_on_c, 0, 63, 114
2, 6911, Note_on_c, 0, 75, 0
2, 6911, Note_on_c, 0, 63, 0
2, 7200, Note_on_c, 0, 70, 41
2, 7200, Note_on_c, 0, 79, 41
2, 7679, Note_on_c, 0, 70, 0
2, 7679, Note_on_c, 0, 79, 0
2, 7680, Note_on_c, 0, 79, 41
2, 7680, Note_on_c, 0, 68, 41
2, 8159, Note_on_c, 0, 79, 0
2, 8159, Note_on_c, 0, 68, 0
2, 8160, Note_on_c, 0, 77, 41
2, 8160, Note_on_c, 0, 68, 41
2, 8639, Note_on_c, 0, 77, 0
2, 8639, Note_on_c, 0, 68, 0
2, 8640, Note_on_c, 0, 77, 41
2, 8640, Note_on_c, 0, 67, 41
2, 9119, Note_on_c, 0, 77, 0
2, 9119, Note_on_c, 0, 67, 0
2, 9120, Note_on_c, 0, 67, 41
2, 9120, Note_on_c, 0, 75, 41
2, 9599, Note_on_c, 0, 67, 0
2, 9599, Note_on_c, 0, 75, 0
2, 9600, Note_on_c, 0, 75, 41
2, 9600, Note_on_c, 0, 65, 41
2, 10079, Note_on_c, 0, 75, 0
2, 10079, Note_on_c, 0, 65, 0
2, 10080, Note_on_c, 0, 74, 41
2, 10080, Note_on_c, 0, 65, 41
2, 10559, Note_on_c, 0, 74, 0
2, 10559, Note_on_c, 0, 65, 0
2, 10560, Note_on_c, 0, 75, 41
2, 10560, Note_on_c, 0, 67, 41
2, 10679, Note_on_c, 0, 75, 0
2, 10679, Note_on_c, 0, 67, 0
2, 11040, Note_on_c, 0, 79, 114
2, 11040, Note_on_c, 0, 70, 114
2, 11519, Note_on_c, 0, 79, 0
2, 11519, Note_on_c, 0, 70, 0
2, 11640, Note_on_c, 0, 70, 58
2, 11640, Note_on_c, 0, 79, 58
2, 11699, Note_on_c, 0, 70, 0
2, 11699, Note_on_c, 0, 79, 0
2, 11760, Note_on_c, 0, 75, 58
2, 11760, Note_on_c, 0, 67, 58
2, 11819, Note_on_c, 0, 75, 0
2, 11819, Note_on_c, 0, 67, 0
2, 11880, Note_on_c, 0, 70, 58
2, 11880, Note_on_c, 0, 79, 58
2, 11939, Note_on_c, 0, 70, 0
2, 11939, Note_on_c, 0, 79, 0
2, 12000, Note_on_c, 0, 68, 114
2, 12000, Note_on_c, 0, 77, 114
2, 12479, Note_on_c, 0, 68, 0
2, 12479, Note_on_c, 0, 77, 0
2, 12600, Note_on_c, 0, 77, 58
2, 12600, Note_on_c, 0, 68, 58
2, 12659, Note_on_c, 0, 77, 0
2, 12659, Note_on_c, 0, 68, 0
2, 12720, Note_on_c, 0, 74, 58
2, 12720, Note_on_c, 0, 65, 58
2, 12779, Note_on_c, 0, 74, 0
2, 12779, Note_on_c, 0, 65, 0
2, 12840, Note_on_c, 0, 68, 58
2, 12840, Note_on_c, 0, 77, 58
2, 12899, Note_on_c, 0, 68, 0
2, 12899, Note_on_c, 0, 77, 0
2, 12960, Note_on_c, 0, 75, 114
2, 12960, Note_on_c, 0, 67, 114
2, 13439, Note_on_c, 0, 75, 0
2, 13439, Note_on_c, 0, 67, 0
2, 13560, Note_on_c, 0, 70, 114
2, 13619, Note_on_c, 0, 70, 0
2, 13680, Note_on_c, 0, 75, 114
2, 13739, Note_on_c, 0, 75, 0
2, 13800, Note_on_c, 0, 79, 114
2, 13859, Note_on_c, 0, 79, 0
2, 13920, Note_on_c, 0, 77, 114
2, 14039, Note_on_c, 0, 77, 0
2, 14040, Note_on_c, 0, 77, 114
2, 14040, Note_on_c, 0, 74, 114
2, 14159, Note_on_c, 0, 77, 0
2, 14159, Note_on_c, 0, 74, 0
2, 14160, Note_on_c, 0, 77, 114
2, 14160, Note_on_c, 0, 74, 114
2, 14279, Note_on_c, 0, 77, 0
2, 14279, Note_on_c, 0, 74, 0
2, 14280, Note_on_c, 0, 77, 114
2, 14280, Note_on_c, 0, 74, 114
2, 14399, Note_on_c, 0, 77, 0
2, 14399, Note_on_c, 0, 74, 0
2, 14400, Note_on_c, 0, 77, 114
2, 14400, Note_on_c, 0, 74, 114
2, 14639, Note_on_c, 0, 77, 0
2, 14639, Note_on_c, 0, 74, 0
2, 16800, Note_on_c, 0, 70, 114
2, 17279, Note_on_c, 0, 70, 0
2, 17280, Note_on_c, 0, 70, 114
2, 17280, Note_on_c, 0, 74, 114
2, 17759, Note_on_c, 0, 70, 0
2, 17759, Note_on_c, 0, 74, 0
2, 17760, Note_on_c, 0, 74, 114
2, 17760, Note_on_c, 0, 77, 114
2, 17879, Note_on_c, 0, 74, 0
2, 17879, Note_on_c, 0, 77, 0
2, 18000, Note_on_c, 0, 77, 114
2, 18000, Note_on_c, 0, 68, 114
2, 18239, Note_on_c, 0, 77, 0
2, 18239, Note_on_c, 0, 68, 0
2, 18240, Note_on_c, 0, 75, 114
2, 18240, Note_on_c, 0, 67, 114
2, 18359, Note_on_c, 0, 75, 0
2, 18359, Note_on_c, 0, 67, 0
2, 18480, Note_on_c, 0, 75, 114
2, 18480, Note_on_c, 0, 67, 114
2, 18719, Note_on_c, 0, 75, 0
2, 18719, Note_on_c, 0, 67, 0
2, 18720, Note_on_c, 0, 74, 114
2, 18720, Note_on_c, 0, 65, 114
2, 18839, Note_on_c, 0, 74, 0
2, 18839, Note_on_c, 0, 65, 0
2, 18960, Note_on_c, 0, 68, 114
2, 18960, Note_on_c, 0, 74, 114
2, 19079, Note_on_c, 0, 74, 0
2, 19080, Note_on_c, 0, 77, 114
2, 19139, Note_on_c, 0, 77, 0
2, 19140, Note_on_c, 0, 74, 114
2, 19199, Note_on_c, 0, 68, 0
2, 19199, Note_on_c, 0, 74, 0
2, 19200, Note_on_c, 0, 75, 114
2, 19200, Note_on_c, 0, 67, 114
2, 19319, Note_on_c, 0, 75, 0
2, 19319, Note_on_c, 0, 67, 0
2, 19380, Note_on_c, 0, 75, 114
2, 19380, Note_on_c, 0, 79, 114
2, 19439, Note_on_c, 0, 75, 0
2, 19439, Note_on_c, 0, 79, 0
2, 19440, Note_on_c, 0, 77, 114
2, 19440, Note_on_c, 0, 74, 114
2, 19499, Note_on_c, 0, 77, 0
2, 19499, Note_on_c, 0, 74, 0
2, 19500, Note_on_c, 0, 75, 114
2, 19500, Note_on_c, 0, 72, 114
2, 19559, Note_on_c, 0, 75, 0
2, 19559, Note_on_c, 0, 72, 0
2, 19560, Note_on_c, 0, 70, 114
2, 19560, Note_on_c, 0, 74, 114
2, 19619, Note_on_c, 0, 70, 0
2, 19619, Note_on_c, 0, 74, 0
2, 19620, Note_on_c, 0, 69, 114
2, 19620, Note_on_c, 0, 72, 114
2, 19679, Note_on_c, 0, 69, 0
2, 19679, Note_on_c, 0, 72, 0
2, 19680, Note_on_c, 0, 70, 114
2, 19799, Note_on_c, 0, 70, 0
2, 19920, Note_on_c, 0, 68, 114
2, 19920, Note_on_c, 0, 77, 114
2, 20159, Note_on_c, 0, 68, 0
2, 20159, Note_on_c, 0, 77, 0
2, 20160, Note_on_c, 0, 75, 114
2, 20160, Note_on_c, 0, 67, 114
2, 20279, Note_on_c, 0, 75, 0
2, 20279, Note_on_c, 0, 67, 0
2, 20400, Note_on_c, 0, 75, 114
2, 20400, Note_on_c, 0, 67, 114
2, 20639, Note_on_c, 0, 75, 0
2, 20639, Note_on_c, 0, 67, 0
2, 20640, Note_on_c, 0, 74, 114
2, 20640, Note_on_c, 0, 65, 114
2, 20759, Note_on_c, 0, 74, 0
2, 20759, Note_on_c, 0, 65, 0
2, 20880, Note_on_c, 0, 68, 114
2, 20880, Note_on_c, 0, 74, 114
2, 20999, Note_on_c, 0, 74, 0
2, 21000, Note_on_c, 0, 77, 114
2, 21059, Note_on_c, 0, 77, 0
2, 21060, Note_on_c, 0, 74, 114
2, 21119, Note_on_c, 0, 68, 0
2, 21119, Note_on_c, 0, 74, 0
2, 21120, Note_on_c, 0, 75, 114
2, 21120, Note_on_c, 0, 67, 114
2, 21239, Note_on_c, 0, 75, 0
2, 21239, Note_on_c, 0, 67, 0
2, 21300, Note_on_c, 0, 75, 114
2, 21300, Note_on_c, 0, 79, 114
2, 21359, Note_on_c, 0, 75, 0
2, 21359, Note_on_c, 0, 79, 0
2, 21360, Note_on_c, 0, 77, 114
2, 21360, Note_on_c, 0, 74, 114
2, 21419, Note_on_c, 0, 77, 0
2, 21419, Note_on_c, 0, 74, 0
2, 21420, Note_on_c, 0, 75, 114
2, 21420, Note_on_c, 0, 72, 114
2, 21479, Note_on_c, 0, 75, 0
2, 21479, Note_on_c, 0, 72, 0
2, 21480, Note_on_c, 0, 70, 114
2, 21480, Note_on_c, 0, 74, 114
2, 21539, Note_on_c, 0, 70, 0
2, 21539, Note_on_c, 0, 74, 0
2, 21540, Note_on_c, 0, 72, 114
2, 21540, Note_on_c, 0, 69, 114
2, 21599, Note_on_c, 0, 72, 0
2, 21599, Note_on_c, 0, 69, 0
2, 21600, Note_on_c, 0, 70, 114
2, 21719, Note_on_c, 0, 70, 0
2, 22080, Note_on_c, 0, 74, 114
2, 22080, Note_on_c, 0, 70, 114
2, 22199, Note_on_c, 0, 74, 0
2, 22199, Note_on_c, 0, 70, 0
2, 22560, Note_on_c, 0, 70, 114
2, 22560, Note_on_c, 0, 74, 114
2, 22679, Note_on_c, 0, 70, 0
2, 22679, Note_on_c, 0, 74, 0
2, 23040, Note_on_c, 0, 70, 114
2, 23040, Note_on_c, 0, 74, 114
2, 23159, Note_on_c, 0, 70, 0
2, 23159, Note_on_c, 0, 74, 0
2, 23220, Note_on_c, 0, 70, 114
2, 23220, Note_on_c, 0, 77, 114
2, 23279, Note_on_c, 0, 70, 0
2, 23279, Note_on_c, 0, 77, 0
2, 23280, Note_on_c, 0, 75, 114
2, 23280, Note_on_c, 0, 72, 114
2, 23330, Note_on_c, 0, 75, 0
2, 23330, Note_on_c, 0, 72, 0
2, 23400, Note_on_c, 0, 72, 114
2, 23400, Note_on_c, 0, 69, 114
2, 23450, Note_on_c, 0, 72, 0
2, 23450, Note_on_c, 0, 69, 0
2, 23520, Note_on_c, 0, 70, 114
2, 23520, Note_on_c, 0, 74, 114
2, 23639, Note_on_c, 0, 70, 0
2, 23639, Note_on_c, 0, 74, 0
2, 24000, Note_on_c, 0, 82, 114
2, 24000, Note_on_c, 0, 74, 114
2, 24239, Note_on_c, 0, 82, 0
2, 24239, Note_on_c, 0, 74, 0
2, 24480, Note_on_c, 0, 82, 114
2, 24480, Note_on_c, 0, 74, 114
2, 24719, Note_on_c, 0, 82, 0
2, 24719, Note_on_c, 0, 74, 0
2, 24960, Note_on_c, 0, 82, 114
2, 24960, Note_on_c, 0, 74, 114
2, 25079, Note_on_c, 0, 82, 0
2, 25079, Note_on_c, 0, 74, 0
2, 25140, Note_on_c, 0, 82, 114
2, 25140, Note_on_c, 0, 77, 114
2, 25199, Note_on_c, 0, 82, 0
2, 25199, Note_on_c, 0, 77, 0
2, 25200, Note_on_c, 0, 84, 114
2, 25200, Note_on_c, 0, 75, 114
2, 25250, Note_on_c, 0, 84, 0
2, 25250, Note_on_c, 0, 75, 0
2, 25320, Note_on_c, 0, 81, 114
2, 25320, Note_on_c, 0, 72, 114
2, 25370, Note_on_c, 0, 81, 0
2, 25370, Note_on_c, 0, 72, 0
2, 25440, Note_on_c, 0, 82, 114
2, 25440, Note_on_c, 0, 74, 114
2, 25538, Note_on_c, 0, 82, 0
2, 25538, Note_on_c, 0, 74, 0
2, 25560, Note_on_c, 0, 77, 58
2, 25560, Note_on_c, 0, 74, 58
2, 25619, Note_on_c, 0, 77, 0
2, 25619, Note_on_c, 0, 74, 0
2, 25680, Note_on_c, 0, 70, 58
2, 25680, Note_on_c, 0, 74, 58
2, 25739, Note_on_c, 0, 70, 0
2, 25739, Note_on_c, 0, 74, 0
2, 25800, Note_on_c, 0, 74, 58
2, 25800, Note_on_c, 0, 77, 58
2, 25859, Note_on_c, 0, 74, 0
2, 25859, Note_on_c, 0, 77, 0
2, 25920, Note_on_c, 0, 70, 58
2, 25920, Note_on_c, 0, 74, 58
2, 26039, Note_on_c, 0, 70, 0
2, 26039, Note_on_c, 0, 74, 0
2, 26040, Note_on_c, 0, 75, 114
2, 26054, Note_on_c, 0, 75, 0
2, 26055, Note_on_c, 0, 74, 114
2, 26069, Note_on_c, 0, 74, 0
2, 26070, Note_on_c, 0, 75, 114
2, 26084, Note_on_c, 0, 75, 0
2, 26085, Note_on_c, 0, 74, 114
2, 26099, Note_on_c, 0, 74, 0
2, 26100, Note_on_c, 0, 75, 114
2, 26114, Note_on_c, 0, 75, 0
2, 26115, Note_on_c, 0, 74, 114
2, 26129, Note_on_c, 0, 74, 0
2, 26130, Note_on_c, 0, 72, 114
2, 26144, Note_on_c, 0, 72, 0
2, 26145, Note_on_c, 0, 74, 114
2, 26159, Note_on_c, 0, 74, 0
2, 26160, Note_on_c, 0, 75, 114
2, 26220, Note_on_c, 0, 75, 0
2, 26280, Note_on_c, 0, 77, 114
2, 26340, Note_on_c, 0, 77, 0
2, 26400, Note_on_c, 0, 79, 114
2, 26460, Note_on_c, 0, 79, 0
2, 27000, Note_on_c, 0, 75, 114
2, 27014, Note_on_c, 0, 75, 0
2, 27015, Note_on_c, 0, 74, 114
2, 27029, Note_on_c, 0, 74, 0
2, 27030, Note_on_c, 0, 75, 114
2, 27044, Note_on_c, 0, 75, 0
2, 27045, Note_on_c, 0, 74, 114
2, 27059, Note_on_c, 0, 74, 0
2, 27060, Note_on_c, 0, 75, 114
2, 27074, Note_on_c, 0, 75, 0
2, 27075, Note_on_c, 0, 74, 114
2, 27089, Note_on_c, 0, 74, 0
2, 27090, Note_on_c, 0, 72, 114
2, 27104, Note_on_c, 0, 72, 0
2, 27105, Note_on_c, 0, 74, 114
2, 27119, Note_on_c, 0, 74, 0
2, 27120, Note_on_c, 0, 75, 114
2, 27180, Note_on_c, 0, 75, 0
2, 27240, Note_on_c, 0, 77, 114
2, 27300, Note_on_c, 0, 77, 0
2, 27360, Note_on_c, 0, 70, 114
2, 27360, Note_on_c, 0, 74, 114
2, 27420, Note_on_c, 0, 70, 0
2, 27420, Note_on_c, 0, 74, 0
2, 27600, Note_on_c, 0, 74, 114
2, 27600, Note_on_c, 0, 65, 114
2, 27719, Note_on_c, 0, 74, 0
2, 27719, Note_on_c, 0, 65, 0
2, 27720, Note_on_c, 0, 74, 114
2, 27720, Note_on_c, 0, 65, 114
2, 27839, Note_on_c, 0, 74, 0
2, 27839, Note_on_c, 0, 65, 0
2, 27840, Note_on_c, 0, 74, 114
2, 27840, Note_on_c, 0, 65, 114
2, 27959, Note_on_c, 0, 74, 0
2, 27959, Note_on_c, 0, 65, 0
2, 27960, Note_on_c, 0, 65, 114
2, 27960, Note_on_c, 0, 74, 114
2, 28079, Note_on_c, 0, 65, 0
2, 28079, Note_on_c, 0, 74, 0
2, 28080, Note_on_c, 0, 74, 114
2, 28080, Note_on_c, 0, 65, 114
2, 28199, Note_on_c, 0, 74, 0
2, 28199, Note_on_c, 0, 65, 0
2, 28320, Note_on_c, 0, 75, 114
2, 28320, Note_on_c, 0, 63, 114
2, 28535, Note_on_c, 0, 75, 0
2, 28535, Note_on_c, 0, 63, 0
2, 28560, Note_on_c, 0, 67, 114
2, 28560, Note_on_c, 0, 79, 114
2, 28775, Note_on_c, 0, 67, 0
2, 28775, Note_on_c, 0, 79, 0
2, 28800, Note_on_c, 0, 82, 114
2, 28800, Note_on_c, 0, 70, 114
2, 28844, Note_on_c, 0, 82, 0
2, 28844, Note_on_c, 0, 70, 0
2, 28860, Note_on_c, 0, 70, 114
2, 28860, Note_on_c, 0, 82, 114
2, 28904, Note_on_c, 0, 70, 0
2, 28904, Note_on_c, 0, 82, 0
2, 28920, Note_on_c, 0, 70, 114
2, 28920, Note_on_c, 0, 82, 114
2, 28964, Note_on_c, 0, 70, 0
2, 28964, Note_on_c, 0, 82, 0
2, 28980, Note_on_c, 0, 70, 114
2, 28980, Note_on_c, 0, 82, 114
2, 29024, Note_on_c, 0, 70, 0
2, 29024, Note_on_c, 0, 82, 0
2, 29040, Note_on_c, 0, 70, 114
2, 29040, Note_on_c, 0, 82, 114
2, 29084, Note_on_c, 0, 70, 0
2, 29084, Note_on_c, 0, 82, 0
2, 29100, Note_on_c, 0, 70, 114
2, 29100, Note_on_c, 0, 82, 114
2, 29144, Note_on_c, 0, 70, 0
2, 29144, Note_on_c, 0, 82, 0
2, 29160, Note_on_c, 0, 70, 114
2, 29160, Note_on_c, 0, 82, 114
2, 29204, Note_on_c, 0, 70, 0
2, 29204, Note_on_c, 0, 82, 0
2, 29220, Note_on_c, 0, 82, 114
2, 29220, Note_on_c, 0, 70, 114
2, 29264, Note_on_c, 0, 82, 0
2, 29264, Note_on_c, 0, 70, 0
2, 29280, Note_on_c, 0, 67, 114
2, 29280, Note_on_c, 0, 79, 114
2, 29333, Note_on_c, 0, 67, 0
2, 29333, Note_on_c, 0, 79, 0
2, 29400, Note_on_c, 0, 75, 114
2, 29400, Note_on_c, 0, 63, 114
2, 29453, Note_on_c, 0, 75, 0
2, 29453, Note_on_c, 0, 63, 0
2, 29760, Note_on_c, 0, 79, 41
2, 29760, Note_on_c, 0, 67, 41
2, 30239, Note_on_c, 0, 79, 0
2, 30239, Note_on_c, 0, 67, 0
2, 30240, Note_on_c, 0, 68, 41
2, 30240, Note_on_c, 0, 79, 41
2, 30719, Note_on_c, 0, 68, 0
2, 30719, Note_on_c, 0, 79, 0
2, 30720, Note_on_c, 0, 68, 41
2, 30720, Note_on_c, 0, 77, 41
2, 31199, Note_on_c, 0, 68, 0
2, 31199, Note_on_c, 0, 77, 0
2, 31200, Note_on_c, 0, 67, 41
2, 31200, Note_on_c, 0, 77, 41
2, 31679, Note_on_c, 0, 67, 0
2, 31679, Note_on_c, 0, 77, 0
2, 31680, Note_on_c, 0, 67, 41
2, 31680, Note_on_c, 0, 75, 41
2, 32159, Note_on_c, 0, 67, 0
2, 32159, Note_on_c, 0, 75, 0
2, 32160, Note_on_c, 0, 75, 41
2, 32160, Note_on_c, 0, 65, 41
2, 32639, Note_on_c, 0, 75, 0
2, 32639, Note_on_c, 0, 65, 0
2, 32640, Note_on_c, 0, 65, 41
2, 32640, Note_on_c, 0, 74, 41
2, 33119, Note_on_c, 0, 65, 0
2, 33119, Note_on_c, 0, 74, 0
2, 33120, Note_on_c, 0, 67, 41
2, 33120, Note_on_c, 0, 75, 41
2, 33239, Note_on_c, 0, 67, 0
2, 33239, Note_on_c, 0, 75, 0
2, 33600, Note_on_c, 0, 63, 114
2, 33600, Note_on_c, 0, 75, 114
2, 33797, Note_on_c, 0, 63, 0
2, 33797, Note_on_c, 0, 75, 0
2, 33840, Note_on_c, 0, 67, 114
2, 33840, Note_on_c, 0, 79, 114
2, 34037, Note_on_c, 0, 67, 0
2, 34037, Note_on_c, 0, 79, 0
2, 34080, Note_on_c, 0, 82, 114
2, 34080, Note_on_c, 0, 70, 114
2, 34139, Note_on_c, 0, 82, 0
2, 34139, Note_on_c, 0, 70, 0
2, 34140, Note_on_c, 0, 70, 114
2, 34140, Note_on_c, 0, 82, 114
2, 34199, Note_on_c, 0, 70, 0
2, 34199, Note_on_c, 0, 82, 0
2, 34200, Note_on_c, 0, 70, 114
2, 34200, Note_on_c, 0, 82, 114
2, 34259, Note_on_c, 0, 70, 0
2, 34259, Note_on_c, 0, 82, 0
2, 34260, Note_on_c, 0, 70, 114
2, 34260, Note_on_c, 0, 82, 114
2, 34319, Note_on_c, 0, 70, 0
2, 34319, Note_on_c, 0, 82, 0
2, 34320, Note_on_c, 0, 70, 114
2, 34320, Note_on_c, 0, 82, 114
2, 34379, Note_on_c, 0, 70, 0
2, 34379, Note_on_c, 0, 82, 0
2, 34380, Note_on_c, 0, 70, 114
2, 34380, Note_on_c, 0, 82, 114
2, 34439, Note_on_c, 0, 70, 0
2, 34439, Note_on_c, 0, 82, 0
2, 34440, Note_on_c, 0, 70, 114
2, 34440, Note_on_c, 0, 82, 114
2, 34499, Note_on_c, 0, 70, 0
2, 34499, Note_on_c, 0, 82, 0
2, 34500, Note_on_c, 0, 82, 114
2, 34500, Note_on_c, 0, 70, 114
2, 34559, Note_on_c, 0, 82, 0
2, 34559, Note_on_c, 0, 70, 0
2, 34560, Note_on_c, 0, 79, 114
2, 34560, Note_on_c, 0, 67, 114
2, 34631, Note_on_c, 0, 79, 0
2, 34631, Note_on_c, 0, 67, 0
2, 34680, Note_on_c, 0, 75, 114
2, 34680, Note_on_c, 0, 63, 114
2, 34751, Note_on_c, 0, 75, 0
2, 34751, Note_on_c, 0, 63, 0
2, 35040, Note_on_c, 0, 70, 41
2, 35040, Note_on_c, 0, 79, 41
2, 35519, Note_on_c, 0, 70, 0
2, 35519, Note_on_c, 0, 79, 0
2, 35520, Note_on_c, 0, 79, 41
2, 35520, Note_on_c, 0, 68, 41
2, 35999, Note_on_c, 0, 79, 0
2, 35999, Note_on_c, 0, 68, 0
2, 36000, Note_on_c, 0, 77, 41
2, 36000, Note_on_c, 0, 68, 41
2, 36479, Note_on_c, 0, 77, 0
2, 36479, Note_on_c, 0, 68, 0
2, 36480, Note_on_c, 0, 77, 41
2, 36480, Note_on_c, 0, 67, 41
2, 36959, Note_on_c, 0, 77, 0
2, 36959, Note_on_c, 0, 67, 0
2, 36960, Note_on_c, 0, 67, 41
2, 36960, Note_on_c, 0, 75, 41
2, 37439, Note_on_c, 0, 67, 0
2, 37439, Note_on_c, 0, 75, 0
2, 37440, Note_on_c, 0, 75, 41
2, 37440, Note_on_c, 0, 65, 41
2, 37919, Note_on_c, 0, 75, 0
2, 37919, Note_on_c, 0, 65, 0
2, 37920, Note_on_c, 0, 74, 41
2, 37920, Note_on_c, 0, 65, 41
2, 38399, Note_on_c, 0, 74, 0
2, 38399, Note_on_c, 0, 65, 0
2, 38400, Note_on_c, 0, 75, 41
2, 38400, Note_on_c, 0, 67, 41
2, 38519, Note_on_c, 0, 75, 0
2, 38519, Note_on_c, 0, 67, 0
2, 38880, Note_on_c, 0, 79, 114
2, 38880, Note_on_c, 0, 70, 114
2, 39359, Note_on_c, 0, 79, 0
2, 39359, Note_on_c, 0, 70, 0
2, 39480, Note_on_c, 0, 70, 58
2, 39480, Note_on_c, 0, 79, 58
2, 39539, Note_on_c, 0, 70, 0
2, 39539, Note_on_c, 0, 79, 0
2, 39600, Note_on_c, 0, 75, 58
2, 39600, Note_on_c, 0, 67, 58
2, 39659, Note_on_c, 0, 75, 0
2, 39659, Note_on_c, 0, 67, 0
2, 39720, Note_on_c, 0, 70, 58
2, 39720, Note_on_c, 0, 79, 58
2, 39779, Note_on_c, 0, 70, 0
2, 39779, Note_on_c, 0, 79, 0
2, 39840, Note_on_c, 0, 68, 114
2, 39840, Note_on_c, 0, 77, 114
2, 40319, Note_on_c, 0, 68, 0
2, 40319, Note_on_c, 0, 77, 0
2, 40440, Note_on_c, 0, 77, 58
2, 40440, Note_on_c, 0, 68, 58
2, 40499, Note_on_c, 0, 77, 0
2, 40499, Note_on_c, 0, 68, 0
2, 40560, Note_on_c, 0, 74, 58
2, 40560, Note_on_c, 0, 65, 58
2, 40619, Note_on_c, 0, 74, 0
2, 40619, Note_on_c, 0, 65, 0
2, 40680, Note_on_c, 0, 68, 58
2, 40680, Note_on_c, 0, 77, 58
2, 40739, Note_on_c, 0, 68, 0
2, 40739, Note_on_c, 0, 77, 0
2, 40800, Note_on_c, 0, 75, 114
2, 40800, Note_on_c, 0, 67, 114
2, 41279, Note_on_c, 0, 75, 0
2, 41279, Note_on_c, 0, 67, 0
2, 41400, Note_on_c, 0, 70, 114
2, 41459, Note_on_c, 0, 70, 0
2, 41520, Note_on_c, 0, 75, 114
2, 41579, Note_on_c, 0, 75, 0
2, 41640, Note_on_c, 0, 79, 114
2, 41699, Note_on_c, 0, 79, 0
2, 41760, Note_on_c, 0, 77, 114
2, 41879, Note_on_c, 0, 77, 0
2, 41880, Note_on_c, 0, 77, 114
2, 41880, Note_on_c, 0, 74, 114
2, 41999, Note_on_c, 0, 77, 0
2, 41999, Note_on_c, 0, 74, 0
2, 42000, Note_on_c, 0, 77, 114
2, 42000, Note_on_c, 0, 74, 114
2, 42119, Note_on_c, 0, 77, 0
2, 42119, Note_on_c, 0, 74, 0
2, 42120, Note_on_c, 0, 77, 114
2, 42120, Note_on_c, 0, 74, 114
2, 42239, Note_on_c, 0, 77, 0
2, 42239, Note_on_c, 0, 74, 0
2, 42240, Note_on_c, 0, 77, 114
2, 42240, Note_on_c, 0, 74, 114
2, 42479, Note_on_c, 0, 77, 0
2, 42479, Note_on_c, 0, 74, 0
2, 44640, Note_on_c, 0, 70, 114
2, 45119, Note_on_c, 0, 70, 0
2, 45120, Note_on_c, 0, 70, 114
2, 45120, Note_on_c, 0, 74, 114
2, 45599, Note_on_c, 0, 70, 0
2, 45599, Note_on_c, 0, 74, 0
2, 45600, Note_on_c, 0, 74, 114
2, 45600, Note_on_c, 0, 77, 114
2, 45719, Note_on_c, 0, 74, 0
2, 45719, Note_on_c, 0, 77, 0
2, 45840, Note_on_c, 0, 77, 114
2, 45840, Note_on_c, 0, 68, 114
2, 46079, Note_on_c, 0, 77, 0
2, 46079, Note_on_c, 0, 68, 0
2, 46080, Note_on_c, 0, 75, 114
2, 46080, Note_on_c, 0, 67, 114
2, 46199, Note_on_c, 0, 75, 0
2, 46199, Note_on_c, 0, 67, 0
2, 46320, Note_on_c, 0, 75, 114
2, 46320, Note_on_c, 0, 67, 114
2, 46559, Note_on_c, 0, 75, 0
2, 46559, Note_on_c, 0, 67, 0
2, 46560, Note_on_c, 0, 74, 114
2, 46560, Note_on_c, 0, 65, 114
2, 46679, Note_on_c, 0, 74, 0
2, 46679, Note_on_c, 0, 65, 0
2, 46800, Note_on_c, 0, 68, 114
2, 46800, Note_on_c, 0, 74, 114
2, 46919, Note_on_c, 0, 74, 0
2, 46920, Note_on_c, 0, 77, 114
2, 46979, Note_on_c, 0, 77, 0
2, 46980, Note_on_c, 0, 74, 114
2, 47039, Note_on_c, 0, 68, 0
2, 47039, Note_on_c, 0, 74, 0
2, 47040, Note_on_c, 0, 75, 114
2, 47040, Note_on_c, 0, 67, 114
2, 47159, Note_on_c, 0, 75, 0
2, 47159, Note_on_c, 0, 67, 0
2, 47220, Note_on_c, 0, 75, 114
2, 47220, Note_on_c, 0, 79, 114
2, 47279, Note_on_c, 0, 75, 0
2, 47279, Note_on_c, 0, 79, 0
2, 47280, Note_on_c, 0, 77, 114
2, 47280, Note_on_c, 0, 74, 114
2, 47339, Note_on_c, 0, 77, 0
2, 47339, Note_on_c, 0, 74, 0
2, 47340, Note_on_c, 0, 75, 114
2, 47340, Note_on_c, 0, 72, 114
2, 47399, Note_on_c, 0, 75, 0
2, 47399, Note_on_c, 0, 72, 0
2, 47400, Note_on_c, 0, 70, 114
2, 47400, Note_on_c, 0, 74, 114
2, 47459, Note_on_c, 0, 70, 0
2, 47459, Note_on_c, 0, 74, 0
2, 47460, Note_on_c, 0, 69, 114
2, 47460, Note_on_c, 0, 72, 114
2, 47519, Note_on_c, 0, 69, 0
2, 47519, Note_on_c, 0, 72, 0
2, 47520, Note_on_c, 0, 70, 114
2, 47639, Note_on_c, 0, 70, 0
2, 47760, Note_on_c, 0, 68, 114
2, 47760, Note_on_c, 0, 77, 114
2, 47999, Note_on_c, 0, 68, 0
2, 47999, Note_on_c, 0, 77, 0
2, 48000, Note_on_c, 0, 75, 114
2, 48000, Note_on_c, 0, 67, 114
2, 48119, Note_on_c, 0, 75, 0
2, 48119, Note_on_c, 0, 67, 0
2, 48240, Note_on_c, 0, 75, 114
2, 48240, Note_on_c, 0, 67, 114
2, 48479, Note_on_c, 0, 75, 0
2, 48479, Note_on_c, 0, 67, 0
2, 48480, Note_on_c, 0, 74, 114
2, 48480, Note_on_c, 0, 65, 114
2, 48599, Note_on_c, 0, 74, 0
2, 48599, Note_on_c, 0, 65, 0
2, 48720, Note_on_c, 0, 68, 114
2, 48720, Note_on_c, 0, 74, 114
2, 48839, Note_on_c, 0, 74, 0
2, 48840, Note_on_c, 0, 77, 114
2, 48899, Note_on_c, 0, 77, 0
2, 48900, Note_on_c, 0, 74, 114
2, 48959, Note_on_c, 0, 68, 0
2, 48959, Note_on_c, 0, 74, 0
2, 48960, Note_on_c, 0, 75, 114
2, 48960, Note_on_c, 0, 67, 114
2, 49079, Note_on_c, 0, 75, 0
2, 49079, Note_on_c, 0, 67, 0
2, 49140, Note_on_c, 0, 75, 114
2, 49140, Note_on_c, 0, 79, 114
2, 49199, Note_on_c, 0, 75, 0
2, 49199, Note_on_c, 0, 79, 0
2, 49200, Note_on_c, 0, 77, 114
2, 49200, Note_on_c, 0, 74, 114
2, 49259, Note_on_c, 0, 77, 0
2, 49259, Note_on_c, 0, 74, 0
2, 49260, Note_on_c, 0, 75, 114
2, 49260, Note_on_c, 0, 72, 114
2, 49319, Note_on_c, 0, 75, 0
2, 49319, Note_on_c, 0, 72, 0
2, 49320, Note_on_c, 0, 70, 114
2, 49320, Note_on_c, 0, 74, 114
2, 49379, Note_on_c, 0, 70, 0
2, 49379, Note_on_c, 0, 74, 0
2, 49380, Note_on_c, 0, 72, 114
2, 49380, Note_on_c, 0, 69, 114
2, 49439, Note_on_c, 0, 72, 0
2, 49439, Note_on_c, 0, 69, 0
2, 49440, Note_on_c, 0, 70, 114
2, 49559, Note_on_c, 0, 70, 0
2, 49920, Note_on_c, 0, 74, 114
2, 49920, Note_on_c, 0, 70, 114
2, 50039, Note_on_c, 0, 74, 0
2, 50039, Note_on_c, 0, 70, 0
2, 50400, Note_on_c, 0, 70, 114
2, 50400, Note_on_c, 0, 74, 114
2, 50519, Note_on_c, 0, 70, 0
2, 50519, Note_on_c, 0, 74, 0
2, 50880, Note_on_c, 0, 70, 114
2, 50880, Note_on_c, 0, 74, 114
2, 50999, Note_on_c, 0, 70, 0
2, 50999, Note_on_c, 0, 74, 0
2, 51060, Note_on_c, 0, 70, 114
2, 51060, Note_on_c, 0, 77, 114
2, 51119, Note_on_c, 0, 70, 0
2, 51119, Note_on_c, 0, 77, 0
2, 51120, Note_on_c, 0, 75, 114
2, 51120, Note_on_c, 0, 72, 114
2, 51170, Note_on_c, 0, 75, 0
2, 51170, Note_on_c, 0, 72, 0
2, 51240, Note_on_c, 0, 72, 114
2, 51240, Note_on_c, 0, 69, 114
2, 51290, Note_on_c, 0, 72, 0
2, 51290, Note_on_c, 0, 69, 0
2, 51360, Note_on_c, 0, 70, 114
2, 51360, Note_on_c, 0, 74, 114
2, 51479, Note_on_c, 0, 70, 0
2, 51479, Note_on_c, 0, 74, 0
2, 51840, Note_on_c, 0, 82, 114
2, 51840, Note_on_c, 0, 74, 114
2, 52079, Note_on_c, 0, 82, 0
2, 52079, Note_on_c, 0, 74, 0
2, 52320, Note_on_c, 0, 82, 114
2, 52320, Note_on_c, 0, 74, 114
2, 52559, Note_on_c, 0, 82, 0
2, 52559, Note_on_c, 0, 74, 0
2, 52800, Note_on_c, 0, 82, 114
2, 52800, Note_on_c, 0, 74, 114
2, 52919, Note_on_c, 0, 82, 0
2, 52919, Note_on_c, 0, 74, 0
2, 52980, Note_on_c, 0, 82, 114
2, 52980, Note_on_c, 0, 77, 114
2, 53039, Note_on_c, 0, 82, 0
2, 53039, Note_on_c, 0, 77, 0
2, 53040, Note_on_c, 0, 84, 114
2, 53040, Note_on_c, 0, 75, 114
2, 53090, Note_on_c, 0, 84, 0
2, 53090, Note_on_c, 0, 75, 0
2, 53160, Note_on_c, 0, 81, 114
2, 53160, Note_on_c, 0, 72, 114
2, 53210, Note_on_c, 0, 81, 0
2, 53210, Note_on_c, 0, 72, 0
2, 53280, Note_on_c, 0, 82, 114
2, 53280, Note_on_c, 0, 74, 114
2, 53378, Note_on_c, 0, 82, 0
2, 53378, Note_on_c, 0, 74, 0
2, 53400, Note_on_c, 0, 77, 58
2, 53400, Note_on_c, 0, 74, 58
2, 53459, Note_on_c, 0, 77, 0
2, 53459, Note_on_c, 0, 74, 0
2, 53520, Note_on_c, 0, 70, 58
2, 53520, Note_on_c, 0, 74, 58
2, 53579, Note_on_c, 0, 70, 0
2, 53579, Note_on_c, 0, 74, 0
2, 53640, Note_on_c, 0, 74, 58
2, 53640, Note_on_c, 0, 77, 58
2, 53699, Note_on_c, 0, 74, 0
2, 53699, Note_on_c, 0, 77, 0
2, 53760, Note_on_c, 0, 70, 58
2, 53760, Note_on_c, 0, 74, 58
2, 53879, Note_on_c, 0, 70, 0
2, 53879, Note_on_c, 0, 74, 0
2, 53880, Note_on_c, 0, 75, 114
2, 53894, Note_on_c, 0, 75, 0
2, 53895, Note_on_c, 0, 74, 114
2, 53909, Note_on_c, 0, 74, 0
2, 53910, Note_on_c, 0, 75, 114
2, 53924, Note_on_c, 0, 75, 0
2, 53925, Note_on_c, 0, 74, 114
2, 53939, Note_on_c, 0, 74, 0
2, 53940, Note_on_c, 0, 75, 114
2, 53954, Note_on_c, 0, 75, 0
2, 53955, Note_on_c, 0, 74, 114
2, 53969, Note_on_c, 0, 74, 0
2, 53970, Note_on_c, 0, 72, 114
2, 53984, Note_on_c, 0, 72, 0
2, 53985, Note_on_c, 0, 74, 114
2, 53999, Note_on_c, 0, 74, 0
2, 54000, Note_on_c, 0, 75, 114
2, 54060, Note_on_c, 0, 75, 0
2, 54120, Note_on_c, 0, 77, 114
2, 54180, Note_on_c, 0, 77, 0
2, 54240, Note_on_c, 0, 79, 114
2, 54300, Note_on_c, 0, 79, 0
2, 54840, Note_on_c, 0, 75, 114
2, 54854, Note_on_c, 0, 75, 0
2, 54855, Note_on_c, 0, 74, 114
2, 54869, Note_on_c, 0, 74, 0
2, 54870, Note_on_c, 0, 75, 114
2, 54884, Note_on_c, 0, 75, 0
2, 54885, Note_on_c, 0, 74, 114
2, 54899, Note_on_c, 0, 74, 0
2, 54900, Note_on_c, 0, 75, 114
2, 54914, Note_on_c, 0, 75, 0
2, 54915, Note_on_c, 0, 74, 114
2, 54929, Note_on_c, 0, 74, 0
2, 54930, Note_on_c, 0, 72, 114
2, 54944, Note_on_c, 0, 72, 0
2, 54945, Note_on_c, 0, 74, 114
2, 54959, Note_on_c, 0, 74, 0
2, 54960, Note_on_c, 0, 75, 114
2, 55020, Note_on_c, 0, 75, 0
2, 55080, Note_on_c, 0, 77, 114
2, 55140, Note_on_c, 0, 77, 0
2, 55200, Note_on_c, 0, 70, 114
2, 55200, Note_on_c, 0, 74, 114
2, 55260, Note_on_c, 0, 70, 0
2, 55260, Note_on_c, 0, 74, 0
2, 55440, Note_on_c, 0, 74, 114
2, 55440, Note_on_c, 0, 65, 114
2, 55559, Note_on_c, 0, 74, 0
2, 55559, Note_on_c, 0, 65, 0
2, 55560, Note_on_c, 0, 74, 114
2, 55560, Note_on_c, 0, 65, 114
2, 55679, Note_on_c, 0, 74, 0
2, 55679, Note_on_c, 0, 65, 0
2, 55680, Note_on_c, 0, 74, 114
2, 55680, Note_on_c, 0, 65, 114
2, 55799, Note_on_c, 0, 74, 0
2, 55799, Note_on_c, 0, 65, 0
2, 55800, Note_on_c, 0, 65, 114
2, 55800, Note_on_c, 0, 74, 114
2, 55919, Note_on_c, 0, 65, 0
2, 55919, Note_on_c, 0, 74, 0
2, 55920, Note_on_c, 0, 74, 114
2, 55920, Note_on_c, 0, 65, 114
2, 56039, Note_on_c, 0, 74, 0
2, 56039, Note_on_c, 0, 65, 0
2, 56160, Note_on_c, 0, 70, 114
2, 56359, Note_on_c, 0, 70, 0
2, 56400, Note_on_c, 0, 74, 114
2, 56598, Note_on_c, 0, 74, 0
2, 56640, Note_on_c, 0, 77, 114
2, 56669, Note_on_c, 0, 77, 0
2, 56700, Note_on_c, 0, 77, 114
2, 56729, Note_on_c, 0, 77, 0
2, 56760, Note_on_c, 0, 77, 114
2, 56789, Note_on_c, 0, 77, 0
2, 56820, Note_on_c, 0, 77, 114
2, 56849, Note_on_c, 0, 77, 0
2, 56880, Note_on_c, 0, 77, 114
2, 56909, Note_on_c, 0, 77, 0
2, 56940, Note_on_c, 0, 77, 114
2, 56969, Note_on_c, 0, 77, 0
2, 57000, Note_on_c, 0, 77, 110
2, 57029, Note_on_c, 0, 77, 0
2, 57060, Note_on_c, 0, 77, 114
2, 57089, Note_on_c, 0, 77, 0
2, 57120, Note_on_c, 0, 74, 114
2, 57178, Note_on_c, 0, 74, 0
2, 57240, Note_on_c, 0, 70, 114
2, 57298, Note_on_c, 0, 70, 0
2, 57600, Note_on_c, 0, 77, 32
2, 57600, Note_on_c, 0, 74, 23
2, 58079, Note_on_c, 0, 77, 0
2, 58079, Note_on_c, 0, 74, 0
2, 58080, Note_on_c, 0, 75, 32
2, 58080, Note_on_c, 0, 74, 30
2, 58559, Note_on_c, 0, 75, 0
2, 58559, Note_on_c, 0, 74, 0
2, 58560, Note_on_c, 0, 75, 33
2, 58560, Note_on_c, 0, 72, 27
2, 59039, Note_on_c, 0, 75, 0
2, 59039, Note_on_c, 0, 72, 0
2, 59040, Note_on_c, 0, 74, 32
2, 59040, Note_on_c, 0, 72, 24
2, 59519, Note_on_c, 0, 74, 0
2, 59519, Note_on_c, 0, 72, 0
2, 59520, Note_on_c, 0, 70, 30
2, 59520, Note_on_c, 0, 74, 32
2, 59999, Note_on_c, 0, 70, 0
2, 59999, Note_on_c, 0, 74, 0
2, 60000, Note_on_c, 0, 70, 28
2, 60000, Note_on_c, 0, 72, 34
2, 60479, Note_on_c, 0, 70, 0
2, 60479, Note_on_c, 0, 72, 0
2, 60480, Note_on_c, 0, 72, 34
2, 60480, Note_on_c, 0, 69, 28
2, 60959, Note_on_c, 0, 72, 0
2, 60959, Note_on_c, 0, 69, 0
2, 60960, Note_on_c, 0, 70, 35
2, 61079, Note_on_c, 0, 70, 0
2, 61440, Note_on_c, 0, 72, 114
2, 61628, Note_on_c, 0, 72, 0
2, 61680, Note_on_c, 0, 75, 114
2, 61868, Note_on_c, 0, 75, 0
2, 61920, Note_on_c, 0, 79, 114
2, 61961, Note_on_c, 0, 79, 0
2, 61980, Note_on_c, 0, 79, 114
2, 62021, Note_on_c, 0, 79, 0
2, 62040, Note_on_c, 0, 79, 114
2, 62081, Note_on_c, 0, 79, 0
2, 62100, Note_on_c, 0, 79, 114
2, 62141, Note_on_c, 0, 79, 0
2, 62160, Note_on_c, 0, 79, 114
2, 62201, Note_on_c, 0, 79, 0
2, 62220, Note_on_c, 0, 79, 114
2, 62261, Note_on_c, 0, 79, 0
2, 62280, Note_on_c, 0, 79, 114
2, 62321, Note_on_c, 0, 79, 0
2, 62340, Note_on_c, 0, 79, 114
2, 62381, Note_on_c, 0, 79, 0
2, 62400, Note_on_c, 0, 75, 114
2, 62458, Note_on_c, 0, 75, 0
2, 62520, Note_on_c, 0, 72, 114
2, 62578, Note_on_c, 0, 72, 0
2, 62880, Note_on_c, 0, 79, 30
2, 62880, Note_on_c, 0, 75, 28
2, 63359, Note_on_c, 0, 79, 0
2, 63359, Note_on_c, 0, 75, 0
2, 63360, Note_on_c, 0, 75, 25
2, 63360, Note_on_c, 0, 77, 34
2, 63839, Note_on_c, 0, 75, 0
2, 63839, Note_on_c, 0, 77, 0
2, 63840, Note_on_c, 0, 77, 34
2, 63840, Note_on_c, 0, 74, 26
2, 64319, Note_on_c, 0, 77, 0
2, 64319, Note_on_c, 0, 74, 0
2, 64320, Note_on_c, 0, 75, 32
2, 64320, Note_on_c, 0, 72, 24
2, 64799, Note_on_c, 0, 75, 0
2, 64799, Note_on_c, 0, 72, 0
2, 64800, Note_on_c, 0, 75, 32
2, 64800, Note_on_c, 0, 72, 29
2, 65279, Note_on_c, 0, 75, 0
2, 65279, Note_on_c, 0, 72, 0
2, 65280, Note_on_c, 0, 74, 36
2, 65280, Note_on_c, 0, 72, 24
2, 65759, Note_on_c, 0, 74, 0
2, 65759, Note_on_c, 0, 72, 0
2, 65760, Note_on_c, 0, 71, 25
2, 65760, Note_on_c, 0, 74, 31
2, 66239, Note_on_c, 0, 71, 0
2, 66239, Note_on_c, 0, 74, 0
2, 66240, Note_on_c, 0, 72, 30
2, 66359, Note_on_c, 0, 72, 0
2, 66720, Note_on_c, 0, 67, 88
2, 66720, Note_on_c, 0, 76, 99
2, 67199, Note_on_c, 0, 67, 0
2, 67199, Note_on_c, 0, 76, 0
2, 67320, Note_on_c, 0, 70, 113
2, 67320, Note_on_c, 0, 79, 110
2, 67379, Note_on_c, 0, 70, 0
2, 67379, Note_on_c, 0, 79, 0
2, 67440, Note_on_c, 0, 67, 81
2, 67440, Note_on_c, 0, 76, 101
2, 67499, Note_on_c, 0, 67, 0
2, 67499, Note_on_c, 0, 76, 0
2, 67560, Note_on_c, 0, 70, 110
2, 67560, Note_on_c, 0, 79, 108
2, 67619, Note_on_c, 0, 70, 0
2, 67619, Note_on_c, 0, 79, 0
2, 67680, Note_on_c, 0, 77, 110
2, 67680, Note_on_c, 0, 68, 110
2, 68159, Note_on_c, 0, 77, 0
2, 68159, Note_on_c, 0, 68, 0
2, 68280, Note_on_c, 0, 80, 110
2, 68280, Note_on_c, 0, 72, 61
2, 68339, Note_on_c, 0, 80, 0
2, 68339, Note_on_c, 0, 72, 0
2, 68400, Note_on_c, 0, 68, 114
2, 68400, Note_on_c, 0, 77, 110
2, 68519, Note_on_c, 0, 68, 0
2, 68519, Note_on_c, 0, 77, 0
2, 68640, Note_on_c, 0, 68, 94
2, 68640, Note_on_c, 0, 74, 114
2, 69119, Note_on_c, 0, 68, 0
2, 69119, Note_on_c, 0, 74, 0
2, 69240, Note_on_c, 0, 77, 113
2, 69299, Note_on_c, 0, 77, 0
2, 69360, Note_on_c, 0, 77, 90
2, 69360, Note_on_c, 0, 80, 114
2, 69419, Note_on_c, 0, 77, 0
2, 69419, Note_on_c, 0, 80, 0
2, 69480, Note_on_c, 0, 77, 104
2, 69480, Note_on_c, 0, 74, 76
2, 69539, Note_on_c, 0, 77, 0
2, 69539, Note_on_c, 0, 74, 0
2, 69600, Note_on_c, 0, 79, 113
2, 69600, Note_on_c, 0, 75, 114
2, 70079, Note_on_c, 0, 79, 0
2, 70079, Note_on_c, 0, 75, 0
2, 70200, Note_on_c, 0, 79, 114
2, 70200, Note_on_c, 0, 82, 103
2, 70259, Note_on_c, 0, 79, 0
2, 70259, Note_on_c, 0, 82, 0
2, 70320, Note_on_c, 0, 75, 110
2, 70320, Note_on_c, 0, 79, 106
2, 70439, Note_on_c, 0, 75, 0
2, 70439, Note_on_c, 0, 79, 0
2, 70560, Note_on_c, 0, 75, 114
2, 70560, Note_on_c, 0, 72, 68
2, 71039, Note_on_c, 0, 75, 0
2, 71039, Note_on_c, 0, 72, 0
2, 71160, Note_on_c, 0, 75, 104
2, 71160, Note_on_c, 0, 72, 77
2, 71219, Note_on_c, 0, 75, 0
2, 71219, Note_on_c, 0, 72, 0
2, 71280, Note_on_c, 0, 75, 114
2, 71280, Note_on_c, 0, 78, 113
2, 71339, Note_on_c, 0, 75, 0
2, 71339, Note_on_c, 0, 78, 0
2, 71400, Note_on_c, 0, 75, 113
2, 71400, Note_on_c, 0, 72, 85
2, 71459, Note_on_c, 0, 75, 0
2, 71459, Note_on_c, 0, 72, 0
2, 71520, Note_on_c, 0, 70, 99
2, 71520, Note_on_c, 0, 74, 112
2, 71639, Note_on_c, 0, 70, 0
2, 71639, Note_on_c, 0, 74, 0
2, 71760, Note_on_c, 0, 70, 86
2, 71760, Note_on_c, 0, 74, 101
2, 71879, Note_on_c, 0, 70, 0
2, 71879, Note_on_c, 0, 74, 0
2, 71880, Note_on_c, 0, 74, 113
2, 71880, Note_on_c, 0, 70, 95
2, 71999, Note_on_c, 0, 74, 0
2, 71999, Note_on_c, 0, 70, 0
2, 72000, Note_on_c, 0, 74, 113
2, 72000, Note_on_c, 0, 70, 92
2, 72119, Note_on_c, 0, 74, 0
2, 72119, Note_on_c, 0, 70, 0
2, 72120, Note_on_c, 0, 74, 113
2, 72120, Note_on_c, 0, 70, 95
2, 72239, Note_on_c, 0, 74, 0
2, 72239, Note_on_c, 0, 70, 0
2, 72240, Note_on_c, 0, 74, 114
2, 72240, Note_on_c, 0, 70, 99
2, 72359, Note_on_c, 0, 74, 0
2, 72359, Note_on_c, 0, 70, 0
2, 74400, Note_on_c, 0, 75, 68
2, 74400, Note_on_c, 0, 67, 47
2, 74879, Note_on_c, 0, 75, 0
2, 74879, Note_on_c, 0, 67, 0
2, 74880, Note_on_c, 0, 79, 95
2, 74880, Note_on_c, 0, 70, 86
2, 75359, Note_on_c, 0, 79, 0
2, 75359, Note_on_c, 0, 70, 0
2, 75360, Note_on_c, 0, 79, 106
2, 75360, Note_on_c, 0, 70, 106
2, 75479, Note_on_c, 0, 79, 0
2, 75479, Note_on_c, 0, 70, 0
2, 75600, Note_on_c, 0, 73, 114
2, 75600, Note_on_c, 0, 70, 88
2, 75839, Note_on_c, 0, 73, 0
2, 75839, Note_on_c, 0, 70, 0
2, 75840, Note_on_c, 0, 72, 94
2, 75840, Note_on_c, 0, 68, 88
2, 75959, Note_on_c, 0, 72, 0
2, 75959, Note_on_c, 0, 68, 0
2, 76080, Note_on_c, 0, 68, 90
2, 76080, Note_on_c, 0, 72, 99
2, 76319, Note_on_c, 0, 68, 0
2, 76319, Note_on_c, 0, 72, 0
2, 76320, Note_on_c, 0, 70, 110
2, 76320, Note_on_c, 0, 67, 74
2, 76439, Note_on_c, 0, 70, 0
2, 76439, Note_on_c, 0, 67, 0
2, 76560, Note_on_c, 0, 67, 114
2, 76560, Note_on_c, 0, 73, 106
2, 76656, Note_on_c, 0, 67, 0
2, 76680, Note_on_c, 0, 70, 114
2, 76728, Note_on_c, 0, 70, 0
2, 76740, Note_on_c, 0, 67, 114
2, 76788, Note_on_c, 0, 67, 0
2, 76799, Note_on_c, 0, 73, 0
2, 76800, Note_on_c, 0, 68, 114
2, 76800, Note_on_c, 0, 72, 90
2, 76848, Note_on_c, 0, 68, 0
2, 76860, Note_on_c, 0, 72, 114
2, 76908, Note_on_c, 0, 72, 0
2, 76919, Note_on_c, 0, 72, 0
2, 76980, Note_on_c, 0, 72, 114
2, 76980, Note_on_c, 0, 80, 112
2, 77028, Note_on_c, 0, 72, 0
2, 77039, Note_on_c, 0, 80, 0
2, 77040, Note_on_c, 0, 70, 114
2, 77040, Note_on_c, 0, 79, 108
2, 77088, Note_on_c, 0, 70, 0
2, 77099, Note_on_c, 0, 79, 0
2, 77100, Note_on_c, 0, 68, 114
2, 77100, Note_on_c, 0, 77, 104
2, 77148, Note_on_c, 0, 68, 0
2, 77159, Note_on_c, 0, 77, 0
2, 77160, Note_on_c, 0, 67, 114
2, 77160, Note_on_c, 0, 75, 113
2, 77208, Note_on_c, 0, 67, 0
2, 77219, Note_on_c, 0, 75, 0
2, 77220, Note_on_c, 0, 65, 114
2, 77220, Note_on_c, 0, 74, 110
2, 77268, Note_on_c, 0, 65, 0
2, 77279, Note_on_c, 0, 74, 0
2, 77280, Note_on_c, 0, 75, 112
2, 77280, Note_on_c, 0, 67, 77
2, 77399, Note_on_c, 0, 75, 0
2, 77399, Note_on_c, 0, 67, 0
2, 77520, Note_on_c, 0, 73, 104
2, 77520, Note_on_c, 0, 70, 104
2, 77759, Note_on_c, 0, 73, 0
2, 77759, Note_on_c, 0, 70, 0
2, 77760, Note_on_c, 0, 68, 81
2, 77760, Note_on_c, 0, 72, 101
2, 77879, Note_on_c, 0, 68, 0
2, 77879, Note_on_c, 0, 72, 0
2, 78000, Note_on_c, 0, 72, 94
2, 78000, Note_on_c, 0, 68, 88
2, 78239, Note_on_c, 0, 72, 0
2, 78239, Note_on_c, 0, 68, 0
2, 78240, Note_on_c, 0, 70, 114
2, 78240, Note_on_c, 0, 67, 90
2, 78359, Note_on_c, 0, 70, 0
2, 78359, Note_on_c, 0, 67, 0
2, 78480, Note_on_c, 0, 73, 99
2, 78480, Note_on_c, 0, 70, 113
2, 78719, Note_on_c, 0, 73, 0
2, 78719, Note_on_c, 0, 70, 0
2, 78720, Note_on_c, 0, 68, 114
2, 78720, Note_on_c, 0, 72, 113
2, 78768, Note_on_c, 0, 68, 0
2, 78780, Note_on_c, 0, 72, 114
2, 78828, Note_on_c, 0, 72, 0
2, 78839, Note_on_c, 0, 72, 0
2, 78900, Note_on_c, 0, 72, 114
2, 78900, Note_on_c, 0, 80, 114
2, 78948, Note_on_c, 0, 72, 0
2, 78959, Note_on_c, 0, 80, 0
2, 78960, Note_on_c, 0, 70, 114
2, 78960, Note_on_c, 0, 79, 106
2, 79008, Note_on_c, 0, 70, 0
2, 79019, Note_on_c, 0, 79, 0
2, 79020, Note_on_c, 0, 68, 114
2, 79020, Note_on_c, 0, 77, 99
2, 79068, Note_on_c, 0, 68, 0
2, 79079, Note_on_c, 0, 77, 0
2, 79080, Note_on_c, 0, 67, 114
2, 79080, Note_on_c, 0, 75, 114
2, 79128, Note_on_c, 0, 67, 0
2, 79139, Note_on_c, 0, 75, 0
2, 79140, Note_on_c, 0, 65, 114
2, 79140, Note_on_c, 0, 74, 113
2, 79188, Note_on_c, 0, 65, 0
2, 79199, Note_on_c, 0, 74, 0
2, 79200, Note_on_c, 0, 75, 114
2, 79200, Note_on_c, 0, 67, 76
2, 79439, Note_on_c, 0, 75, 0
2, 79439, Note_on_c, 0, 67, 0
2, 79680, Note_on_c, 0, 67, 85
2, 79680, Note_on_c, 0, 75, 113
2, 79919, Note_on_c, 0, 67, 0
2, 79919, Note_on_c, 0, 75, 0
2, 80160, Note_on_c, 0, 75, 114
2, 80160, Note_on_c, 0, 67, 81
2, 80399, Note_on_c, 0, 75, 0
2, 80399, Note_on_c, 0, 67, 0
2, 80640, Note_on_c, 0, 75, 114
2, 80640, Note_on_c, 0, 67, 86
2, 80759, Note_on_c, 0, 75, 0
2, 80759, Note_on_c, 0, 67, 0
2, 80820, Note_on_c, 0, 75, 114
2, 80820, Note_on_c, 0, 70, 113
2, 80879, Note_on_c, 0, 75, 0
2, 80879, Note_on_c, 0, 70, 0
2, 80880, Note_on_c, 0, 63, 112
2, 80880, Note_on_c, 0, 72, 90
2, 80940, Note_on_c, 0, 63, 0
2, 80940, Note_on_c, 0, 72, 0
2, 81000, Note_on_c, 0, 70, 114
2, 81000, Note_on_c, 0, 68, 114
2, 81060, Note_on_c, 0, 70, 0
2, 81060, Note_on_c, 0, 68, 0
2, 81120, Note_on_c, 0, 70, 114
2, 81120, Note_on_c, 0, 67, 86
2, 81180, Note_on_c, 0, 70, 0
2, 81180, Note_on_c, 0, 67, 0
2, 81600, Note_on_c, 0, 79, 95
2, 81600, Note_on_c, 0, 75, 114
2, 82079, Note_on_c, 0, 79, 0
2, 82079, Note_on_c, 0, 75, 0
2, 82080, Note_on_c, 0, 75, 113
2, 82080, Note_on_c, 0, 79, 101
2, 82559, Note_on_c, 0, 75, 0
2, 82559, Note_on_c, 0, 79, 0
2, 82560, Note_on_c, 0, 75, 108
2, 82560, Note_on_c, 0, 79, 103
2, 82799, Note_on_c, 0, 75, 0
2, 82799, Note_on_c, 0, 79, 0
2, 82800, Note_on_c, 0, 77, 81
2, 82800, Note_on_c, 0, 74, 114
2, 82860, Note_on_c, 0, 77, 0
2, 82860, Note_on_c, 0, 74, 0
2, 82920, Note_on_c, 0, 68, 97
2, 82920, Note_on_c, 0, 74, 114
2, 82980, Note_on_c, 0, 68, 0
2, 82980, Note_on_c, 0, 74, 0
2, 83040, Note_on_c, 0, 75, 114
2, 83040, Note_on_c, 0, 67, 114
2, 83080, Note_on_c, 0, 75, 0
2, 83080, Note_on_c, 0, 67, 0
2, 83640, Note_on_c, 0, 68, 113
2, 83654, Note_on_c, 0, 68, 0
2, 83655, Note_on_c, 0, 67, 106
2, 83669, Note_on_c, 0, 67, 0
2, 83670, Note_on_c, 0, 68, 94
2, 83684, Note_on_c, 0, 68, 0
2, 83685, Note_on_c, 0, 67, 108
2, 83699, Note_on_c, 0, 67, 0
2, 83700, Note_on_c, 0, 68, 106
2, 83714, Note_on_c, 0, 68, 0
2, 83715, Note_on_c, 0, 67, 97
2, 83729, Note_on_c, 0, 67, 0
2, 83730, Note_on_c, 0, 65, 101
2, 83744, Note_on_c, 0, 65, 0
2, 83745, Note_on_c, 0, 67, 101
2, 83759, Note_on_c, 0, 67, 0
2, 83760, Note_on_c, 0, 68, 108
2, 83820, Note_on_c, 0, 68, 0
2, 83880, Note_on_c, 0, 70, 104
2, 83940, Note_on_c, 0, 70, 0
2, 84000, Note_on_c, 0, 72, 99
2, 84059, Note_on_c, 0, 72, 0
2, 84120, Note_on_c, 0, 82, 64
2, 84120, Note_on_c, 0, 79, 60
2, 84179, Note_on_c, 0, 82, 0
2, 84179, Note_on_c, 0, 79, 0
2, 84240, Note_on_c, 0, 79, 65
2, 84240, Note_on_c, 0, 75, 68
2, 84299, Note_on_c, 0, 79, 0
2, 84299, Note_on_c, 0, 75, 0
2, 84360, Note_on_c, 0, 79, 61
2, 84360, Note_on_c, 0, 82, 68
2, 84419, Note_on_c, 0, 79, 0
2, 84419, Note_on_c, 0, 82, 0
2, 84480, Note_on_c, 0, 75, 68
2, 84539, Note_on_c, 0, 75, 0
2, 84600, Note_on_c, 0, 68, 114
2, 84614, Note_on_c, 0, 68, 0
2, 84615, Note_on_c, 0, 67, 104
2, 84629, Note_on_c, 0, 67, 0
2, 84630, Note_on_c, 0, 68, 104
2, 84644, Note_on_c, 0, 68, 0
2, 84645, Note_on_c, 0, 67, 94
2, 84659, Note_on_c, 0, 67, 0
2, 84660, Note_on_c, 0, 68, 110
2, 84674, Note_on_c, 0, 68, 0
2, 84675, Note_on_c, 0, 67, 92
2, 84689, Note_on_c, 0, 67, 0
2, 84690, Note_on_c, 0, 65, 95
2, 84704, Note_on_c, 0, 65, 0
2, 84705, Note_on_c, 0, 67, 92
2, 84719, Note_on_c, 0, 67, 0
2, 84720, Note_on_c, 0, 68, 110
2, 84780, Note_on_c, 0, 68, 0
2, 84840, Note_on_c, 0, 70, 108
2, 84900, Note_on_c, 0, 70, 0
2, 84960, Note_on_c, 0, 63, 114
2, 85020, Note_on_c, 0, 63, 0
2, 85200, Note_on_c, 0, 75, 114
2, 85200, Note_on_c, 0, 67, 77
2, 85319, Note_on_c, 0, 75, 0
2, 85319, Note_on_c, 0, 67, 0
2, 85320, Note_on_c, 0, 75, 114
2, 85320, Note_on_c, 0, 67, 90
2, 85439, Note_on_c, 0, 75, 0
2, 85439, Note_on_c, 0, 67, 0
2, 85440, Note_on_c, 0, 75, 114
2, 85440, Note_on_c, 0, 67, 92
2, 85559, Note_on_c, 0, 75, 0
2, 85559, Note_on_c, 0, 67, 0
2, 85560, Note_on_c, 0, 75, 114
2, 85560, Note_on_c, 0, 67, 99
2, 85679, Note_on_c, 0, 75, 0
2, 85679, Note_on_c, 0, 67, 0
2, 85680, Note_on_c, 0, 75, 114
2, 85680, Note_on_c, 0, 67, 114
2, 85799, Note_on_c, 0, 75, 0
2, 85799, Note_on_c, 0, 67, 0
2, 85799, End_track
3, 0, Start_track
3, 0, MIDI_port, 0
3, 0, Title_t, "Horns"
3, 0, Program_c, 1, 60
3, 480, Note_on_c, 1, 51, 114
3, 480, Note_on_c, 1, 63, 114
3, 695, Note_on_c, 1, 51, 0
3, 695, Note_on_c, 1, 63, 0
3, 720, Note_on_c, 1, 55, 114
3, 720, Note_on_c, 1, 67, 114
3, 935, Note_on_c, 1, 55, 0
3, 935, Note_on_c, 1, 67, 0
3, 960, Note_on_c, 1, 58, 114
3, 960, Note_on_c, 1, 70, 114
3, 1049, Note_on_c, 1, 58, 0
3, 1049, Note_on_c, 1, 70, 0
3, 1080, Note_on_c, 1, 58, 114
3, 1080, Note_on_c, 1, 70, 114
3, 1169, Note_on_c, 1, 58, 0
3, 1169, Note_on_c, 1, 70, 0
3, 1200, Note_on_c, 1, 58, 114
3, 1200, Note_on_c, 1, 70, 114
3, 1289, Note_on_c, 1, 58, 0
3, 1289, Note_on_c, 1, 70, 0
3, 1320, Note_on_c, 1, 58, 114
3, 1320, Note_on_c, 1, 70, 114
3, 1409, Note_on_c, 1, 58, 0
3, 1409, Note_on_c, 1, 70, 0
3, 1440, Note_on_c, 1, 55, 114
3, 1440, Note_on_c, 1, 67, 114
3, 1493, Note_on_c, 1, 55, 0
3, 1493, Note_on_c, 1, 67, 0
3, 1560, Note_on_c, 1, 63, 114
3, 1560, Note_on_c, 1, 51, 114
3, 1613, Note_on_c, 1, 63, 0
3, 1613, Note_on_c, 1, 51, 0
3, 1920, Note_on_c, 1, 63, 41
3, 2399, Note_on_c, 1, 63, 0
3, 2400, Note_on_c, 1, 63, 41
3, 2879, Note_on_c, 1, 63, 0
3, 2880, Note_on_c, 1, 58, 41
3, 2880, Note_on_c, 1, 65, 41
3, 3359, Note_on_c, 1, 58, 0
3, 3359, Note_on_c, 1, 65, 0
3, 3360, Note_on_c, 1, 58, 41
3, 3360, Note_on_c, 1, 67, 41
3, 3839, Note_on_c, 1, 58, 0
3, 3839, Note_on_c, 1, 67, 0
3, 3840, Note_on_c, 1, 63, 41
3, 4319, Note_on_c, 1, 63, 0
3, 4320, Note_on_c, 1, 65, 41
3, 4320, Note_on_c, 1, 63, 41
3, 4799, Note_on_c, 1, 65, 0
3, 4799, Note_on_c, 1, 63, 0
3, 4800, Note_on_c, 1, 65, 41
3, 4800, Note_on_c, 1, 58, 41
3, 5279, Note_on_c, 1, 65, 0
3, 5279, Note_on_c, 1, 58, 0
3, 5280, Note_on_c, 1, 63, 41
3, 5280, Note_on_c, 1, 55, 41
3, 5399, Note_on_c, 1, 63, 0
3, 5399, Note_on_c, 1, 55, 0
3, 5760, Note_on_c, 1, 63, 114
3, 5760, Note_on_c, 1, 51, 114
3, 5957, Note_on_c, 1, 63, 0
3, 5957, Note_on_c, 1, 51, 0
3, 6000, Note_on_c, 1, 55, 114
3, 6000, Note_on_c, 1, 67, 114
3, 6197, Note_on_c, 1, 55, 0
3, 6197, Note_on_c, 1, 67, 0
3, 6240, Note_on_c, 1, 70, 114
3, 6240, Note_on_c, 1, 58, 114
3, 6359, Note_on_c, 1, 70, 0
3, 6359, Note_on_c, 1, 58, 0
3, 6360, Note_on_c, 1, 58, 114
3, 6360, Note_on_c, 1, 70, 114
3, 6479, Note_on_c, 1, 58, 0
3, 6479, Note_on_c, 1, 70, 0
3, 6480, Note_on_c, 1, 58, 114
3, 6480, Note_on_c, 1, 70, 114
3, 6599, Note_on_c, 1, 58, 0
3, 6599, Note_on_c, 1, 70, 0
3, 6600, Note_on_c, 1, 58, 114
3, 6600, Note_on_c, 1, 70, 114
3, 6719, Note_on_c, 1, 58, 0
3, 6719, Note_on_c, 1, 70, 0
3, 6720, Note_on_c, 1, 67, 114
3, 6720, Note_on_c, 1, 55, 114
3, 6791, Note_on_c, 1, 67, 0
3, 6791, Note_on_c, 1, 55, 0
3, 6840, Note_on_c, 1, 63, 114
3, 6840, Note_on_c, 1, 51, 114
3, 6911, Note_on_c, 1, 63, 0
3, 6911, Note_on_c, 1, 51, 0
3, 7200, Note_on_c, 1, 63, 41
3, 7679, Note_on_c, 1, 63, 0
3, 7680, Note_on_c, 1, 63, 41
3, 8159, Note_on_c, 1, 63, 0
3, 8160, Note_on_c, 1, 58, 41
3, 8160, Note_on_c, 1, 65, 41
3, 8639, Note_on_c, 1, 58, 0
3, 8639, Note_on_c, 1, 65, 0
3, 8640, Note_on_c, 1, 58, 41
3, 8640, Note_on_c, 1, 67, 41
3, 9119, Note_on_c, 1, 58, 0
3, 9119, Note_on_c, 1, 67, 0
3, 9120, Note_on_c, 1, 63, 41
3, 9599, Note_on_c, 1, 63, 0
3, 9600, Note_on_c, 1, 65, 41
3, 9600, Note_on_c, 1, 63, 41
3, 10079, Note_on_c, 1, 65, 0
3, 10079, Note_on_c, 1, 63, 0
3, 10080, Note_on_c, 1, 65, 41
3, 10080, Note_on_c, 1, 58, 41
3, 10559, Note_on_c, 1, 65, 0
3, 10559, Note_on_c, 1, 58, 0
3, 10560, Note_on_c, 1, 63, 41
3, 10560, Note_on_c, 1, 55, 41
3, 10679, Note_on_c, 1, 63, 0
3, 10679, Note_on_c, 1, 55, 0
3, 11040, Note_on_c, 1, 63, 114
3, 11040, Note_on_c, 1, 51, 114
3, 11999, Note_on_c, 1, 63, 0
3, 11999, Note_on_c, 1, 51, 0
3, 12000, Note_on_c, 1, 51, 114
3, 12000, Note_on_c, 1, 63, 114
3, 12059, Note_on_c, 1, 51, 0
3, 12059, Note_on_c, 1, 63, 0
3, 12060, Note_on_c, 1, 51, 114
3, 12060, Note_on_c, 1, 63, 114
3, 12119, Note_on_c, 1, 51, 0
3, 12119, Note_on_c, 1, 63, 0
3, 12120, Note_on_c, 1, 51, 114
3, 12120, Note_on_c, 1, 63, 114
3, 12179, Note_on_c, 1, 51, 0
3, 12179, Note_on_c, 1, 63, 0
3, 12180, Note_on_c, 1, 51, 114
3, 12180, Note_on_c, 1, 63, 114
3, 12239, Note_on_c, 1, 51, 0
3, 12239, Note_on_c, 1, 63, 0
3, 12240, Note_on_c, 1, 51, 114
3, 12240, Note_on_c, 1, 63, 114
3, 12299, Note_on_c, 1, 51, 0
3, 12299, Note_on_c, 1, 63, 0
3, 12300, Note_on_c, 1, 51, 114
3, 12300, Note_on_c, 1, 63, 114
3, 12359, Note_on_c, 1, 51, 0
3, 12359, Note_on_c, 1, 63, 0
3, 12360, Note_on_c, 1, 51, 114
3, 12360, Note_on_c, 1, 63, 114
3, 12419, Note_on_c, 1, 51, 0
3, 12419, Note_on_c, 1, 63, 0
3, 12420, Note_on_c, 1, 51, 114
3, 12420, Note_on_c, 1, 63, 114
3, 12479, Note_on_c, 1, 51, 0
3, 12479, Note_on_c, 1, 63, 0
3, 12480, Note_on_c, 1, 51, 58
3, 12480, Note_on_c, 1, 63, 58
3, 12959, Note_on_c, 1, 51, 0
3, 12959, Note_on_c, 1, 63, 0
3, 12960, Note_on_c, 1, 51, 114
3, 12960, Note_on_c, 1, 63, 114
3, 13019, Note_on_c, 1, 51, 0
3, 13019, Note_on_c, 1, 63, 0
3, 13020, Note_on_c, 1, 51, 114
3, 13020, Note_on_c, 1, 63, 114
3, 13079, Note_on_c, 1, 51, 0
3, 13079, Note_on_c, 1, 63, 0
3, 13080, Note_on_c, 1, 51, 114
3, 13080, Note_on_c, 1, 63, 114
3, 13139, Note_on_c, 1, 51, 0
3, 13139, Note_on_c, 1, 63, 0
3, 13140, Note_on_c, 1, 51, 114
3, 13140, Note_on_c, 1, 63, 114
3, 13199, Note_on_c, 1, 51, 0
3, 13199, Note_on_c, 1, 63, 0
3, 13200, Note_on_c, 1, 51, 114
3, 13200, Note_on_c, 1, 63, 114
3, 13259, Note_on_c, 1, 51, 0
3, 13259, Note_on_c, 1, 63, 0
3, 13260, Note_on_c, 1, 51, 114
3, 13260, Note_on_c, 1, 63, 114
3, 13319, Note_on_c, 1, 51, 0
3, 13319, Note_on_c, 1, 63, 0
3, 13320, Note_on_c, 1, 51, 114
3, 13320, Note_on_c, 1, 63, 114
3, 13379, Note_on_c, 1, 51, 0
3, 13379, Note_on_c, 1, 63, 0
3, 13380, Note_on_c, 1, 51, 114
3, 13380, Note_on_c, 1, 63, 114
3, 13439, Note_on_c, 1, 51, 0
3, 13439, Note_on_c, 1, 63, 0
3, 13440, Note_on_c, 1, 63, 114
3, 13440, Note_on_c, 1, 51, 114
3, 13919, Note_on_c, 1, 63, 0
3, 13919, Note_on_c, 1, 51, 0
3, 13920, Note_on_c, 1, 65, 114
3, 13920, Note_on_c, 1, 58, 114
3, 14039, Note_on_c, 1, 65, 0
3, 14039, Note_on_c, 1, 58, 0
3, 14040, Note_on_c, 1, 58, 114
3, 14040, Note_on_c, 1, 65, 114
3, 14159, Note_on_c, 1, 58, 0
3, 14159, Note_on_c, 1, 65, 0
3, 14160, Note_on_c, 1, 58, 114
3, 14160, Note_on_c, 1, 65, 114
3, 14279, Note_on_c, 1, 58, 0
3, 14279, Note_on_c, 1, 65, 0
3, 14280, Note_on_c, 1, 58, 114
3, 14280, Note_on_c, 1, 65, 114
3, 14399, Note_on_c, 1, 58, 0
3, 14399, Note_on_c, 1, 65, 0
3, 14400, Note_on_c, 1, 58, 114
3, 14400, Note_on_c, 1, 65, 114
3, 14639, Note_on_c, 1, 58, 0
3, 14639, Note_on_c, 1, 65, 0
3, 17280, Note_on_c, 1, 58, 114
3, 17280, Note_on_c, 1, 70, 114
3, 17759, Note_on_c, 1, 58, 0
3, 17759, Note_on_c, 1, 70, 0
3, 17760, Note_on_c, 1, 70, 114
3, 17760, Note_on_c, 1, 58, 114
3, 17879, Note_on_c, 1, 70, 0
3, 17879, Note_on_c, 1, 58, 0
3, 18240, Note_on_c, 1, 70, 114
3, 18240, Note_on_c, 1, 58, 114
3, 18359, Note_on_c, 1, 70, 0
3, 18359, Note_on_c, 1, 58, 0
3, 18720, Note_on_c, 1, 70, 114
3, 18720, Note_on_c, 1, 58, 114
3, 18839, Note_on_c, 1, 70, 0
3, 18839, Note_on_c, 1, 58, 0
3, 19200, Note_on_c, 1, 70, 114
3, 19200, Note_on_c, 1, 58, 114
3, 19439, Note_on_c, 1, 70, 0
3, 19439, Note_on_c, 1, 58, 0
3, 19440, Note_on_c, 1, 70, 114
3, 19440, Note_on_c, 1, 65, 114
3, 19559, Note_on_c, 1, 70, 0
3, 19559, Note_on_c, 1, 65, 0
3, 19560, Note_on_c, 1, 69, 114
3, 19560, Note_on_c, 1, 65, 114
3, 19679, Note_on_c, 1, 69, 0
3, 19679, Note_on_c, 1, 65, 0
3, 19680, Note_on_c, 1, 70, 114
3, 19680, Note_on_c, 1, 58, 114
3, 19799, Note_on_c, 1, 70, 0
3, 19799, Note_on_c, 1, 58, 0
3, 20160, Note_on_c, 1, 70, 114
3, 20160, Note_on_c, 1, 58, 114
3, 20279, Note_on_c, 1, 70, 0
3, 20279, Note_on_c, 1, 58, 0
3, 20640, Note_on_c, 1, 58, 114
3, 20640, Note_on_c, 1, 70, 114
3, 20759, Note_on_c, 1, 58, 0
3, 20759, Note_on_c, 1, 70, 0
3, 21120, Note_on_c, 1, 70, 114
3, 21120, Note_on_c, 1, 58, 114
3, 21359, Note_on_c, 1, 70, 0
3, 21359, Note_on_c, 1, 58, 0
3, 21360, Note_on_c, 1, 65, 114
3, 21360, Note_on_c, 1, 70, 114
3, 21479, Note_on_c, 1, 65, 0
3, 21479, Note_on_c, 1, 70, 0
3, 21480, Note_on_c, 1, 69, 114
3, 21480, Note_on_c, 1, 65, 114
3, 21599, Note_on_c, 1, 69, 0
3, 21599, Note_on_c, 1, 65, 0
3, 21600, Note_on_c, 1, 58, 114
3, 21600, Note_on_c, 1, 70, 114
3, 21719, Note_on_c, 1, 58, 0
3, 21719, Note_on_c, 1, 70, 0
3, 22080, Note_on_c, 1, 70, 114
3, 22080, Note_on_c, 1, 58, 114
3, 22199, Note_on_c, 1, 70, 0
3, 22199, Note_on_c, 1, 58, 0
3, 22560, Note_on_c, 1, 70, 114
3, 22560, Note_on_c, 1, 58, 114
3, 22679, Note_on_c, 1, 70, 0
3, 22679, Note_on_c, 1, 58, 0
3, 23040, Note_on_c, 1, 65, 114
3, 23040, Note_on_c, 1, 58, 114
3, 23159, Note_on_c, 1, 65, 0
3, 23159, Note_on_c, 1, 58, 0
3, 23400, Note_on_c, 1, 69, 114
3, 23400, Note_on_c, 1, 65, 114
3, 23450, Note_on_c, 1, 69, 0
3, 23450, Note_on_c, 1, 65, 0
3, 23520, Note_on_c, 1, 58, 114
3, 23520, Note_on_c, 1, 70, 114
3, 23639, Note_on_c, 1, 58, 0
3, 23639, Note_on_c, 1, 70, 0
3, 24000, Note_on_c, 1, 70, 114
3, 24000, Note_on_c, 1, 58, 114
3, 24119, Note_on_c, 1, 70, 0
3, 24119, Note_on_c, 1, 58, 0
3, 24480, Note_on_c, 1, 58, 114
3, 24480, Note_on_c, 1, 70, 114
3, 24599, Note_on_c, 1, 58, 0
3, 24599, Note_on_c, 1, 70, 0
3, 24960, Note_on_c, 1, 70, 114
3, 24960, Note_on_c, 1, 58, 114
3, 25079, Note_on_c, 1, 70, 0
3, 25079, Note_on_c, 1, 58, 0
3, 25200, Note_on_c, 1, 67, 114
3, 25200, Note_on_c, 1, 63, 114
3, 25250, Note_on_c, 1, 67, 0
3, 25250, Note_on_c, 1, 63, 0
3, 25320, Note_on_c, 1, 63, 114
3, 25320, Note_on_c, 1, 65, 114
3, 25370, Note_on_c, 1, 63, 0
3, 25370, Note_on_c, 1, 65, 0
3, 25440, Note_on_c, 1, 58, 114
3, 25440, Note_on_c, 1, 65, 114
3, 25489, Note_on_c, 1, 58, 0
3, 25489, Note_on_c, 1, 65, 0
3, 25920, Note_on_c, 1, 58, 58
3, 25920, Note_on_c, 1, 65, 58
3, 25979, Note_on_c, 1, 58, 0
3, 25979, Note_on_c, 1, 65, 0
3, 26160, Note_on_c, 1, 63, 114
3, 26220, Note_on_c, 1, 63, 0
3, 26280, Note_on_c, 1, 65, 114
3, 26340, Note_on_c, 1, 65, 0
3, 26400, Note_on_c, 1, 67, 114
3, 26430, Note_on_c, 1, 67, 0
3, 26520, Note_on_c, 1, 58, 63
3, 26520, Note_on_c, 1, 65, 63
3, 26579, Note_on_c, 1, 58, 0
3, 26579, Note_on_c, 1, 65, 0
3, 26640, Note_on_c, 1, 58, 63
3, 26640, Note_on_c, 1, 65, 63
3, 26699, Note_on_c, 1, 58, 0
3, 26699, Note_on_c, 1, 65, 0
3, 26760, Note_on_c, 1, 58, 63
3, 26760, Note_on_c, 1, 65, 63
3, 26819, Note_on_c, 1, 58, 0
3, 26819, Note_on_c, 1, 65, 0
3, 26880, Note_on_c, 1, 58, 63
3, 26880, Note_on_c, 1, 65, 63
3, 26939, Note_on_c, 1, 58, 0
3, 26939, Note_on_c, 1, 65, 0
3, 27120, Note_on_c, 1, 63, 114
3, 27180, Note_on_c, 1, 63, 0
3, 27240, Note_on_c, 1, 65, 114
3, 27300, Note_on_c, 1, 65, 0
3, 27360, Note_on_c, 1, 58, 114
3, 27360, Note_on_c, 1, 65, 114
3, 27420, Note_on_c, 1, 58, 0
3, 27420, Note_on_c, 1, 65, 0
3, 27600, Note_on_c, 1, 58, 114
3, 27600, Note_on_c, 1, 65, 114
3, 27719, Note_on_c, 1, 58, 0
3, 27719, Note_on_c, 1, 65, 0
3, 27720, Note_on_c, 1, 58, 114
3, 27720, Note_on_c, 1, 65, 114
3, 27839, Note_on_c, 1, 58, 0
3, 27839, Note_on_c, 1, 65, 0
3, 27840, Note_on_c, 1, 58, 114
3, 27840, Note_on_c, 1, 65, 114
3, 27959, Note_on_c, 1, 58, 0
3, 27959, Note_on_c, 1, 65, 0
3, 27960, Note_on_c, 1, 58, 114
3, 27960, Note_on_c, 1, 65, 114
3, 28079, Note_on_c, 1, 58, 0
3, 28079, Note_on_c, 1, 65, 0
3, 28080, Note_on_c, 1, 58, 114
3, 28080, Note_on_c, 1, 65, 114
3, 28199, Note_on_c, 1, 58, 0
3, 28199, Note_on_c, 1, 65, 0
3, 28320, Note_on_c, 1, 51, 114
3, 28320, Note_on_c, 1, 63, 114
3, 28535, Note_on_c, 1, 51, 0
3, 28535, Note_on_c, 1, 63, 0
3, 28560, Note_on_c, 1, 55, 114
3, 28560, Note_on_c, 1, 67, 114
3, 28775, Note_on_c, 1, 55, 0
3, 28775, Note_on_c, 1, 67, 0
3, 28800, Note_on_c, 1, 58, 114
3, 28800, Note_on_c, 1, 70, 114
3, 28889, Note_on_c, 1, 58, 0
3, 28889, Note_on_c, 1, 70, 0
3, 28920, Note_on_c, 1, 58, 114
3, 28920, Note_on_c, 1, 70, 114
3, 29009, Note_on_c, 1, 58, 0
3, 29009, Note_on_c, 1, 70, 0
3, 29040, Note_on_c, 1, 58, 114
3, 29040, Note_on_c, 1, 70, 114
3, 29129, Note_on_c, 1, 58, 0
3, 29129, Note_on_c, 1, 70, 0
3, 29160, Note_on_c, 1, 58, 114
3, 29160, Note_on_c, 1, 70, 114
3, 29249, Note_on_c, 1, 58, 0
3, 29249, Note_on_c, 1, 70, 0
3, 29280, Note_on_c, 1, 55, 114
3, 29280, Note_on_c, 1, 67, 114
3, 29333, Note_on_c, 1, 55, 0
3, 29333, Note_on_c, 1, 67, 0
3, 29400, Note_on_c, 1, 63, 114
3, 29400, Note_on_c, 1, 51, 114
3, 29453, Note_on_c, 1, 63, 0
3, 29453, Note_on_c, 1, 51, 0
3, 29760, Note_on_c, 1, 63, 41
3, 30239, Note_on_c, 1, 63, 0
3, 30240, Note_on_c, 1, 63, 41
3, 30719, Note_on_c, 1, 63, 0
3, 30720, Note_on_c, 1, 58, 41
3, 30720, Note_on_c, 1, 65, 41
3, 31199, Note_on_c, 1, 58, 0
3, 31199, Note_on_c, 1, 65, 0
3, 31200, Note_on_c, 1, 58, 41
3, 31200, Note_on_c, 1, 67, 41
3, 31679, Note_on_c, 1, 58, 0
3, 31679, Note_on_c, 1, 67, 0
3, 31680, Note_on_c, 1, 63, 41
3, 32159, Note_on_c, 1, 63, 0
3, 32160, Note_on_c, 1, 65, 41
3, 32160, Note_on_c, 1, 63, 41
3, 32639, Note_on_c, 1, 65, 0
3, 32639, Note_on_c, 1, 63, 0
3, 32640, Note_on_c, 1, 65, 41
3, 32640, Note_on_c, 1, 58, 41
3, 33119, Note_on_c, 1, 65, 0
3, 33119, Note_on_c, 1, 58, 0
3, 33120, Note_on_c, 1, 63, 41
3, 33120, Note_on_c, 1, 55, 41
3, 33239, Note_on_c, 1, 63, 0
3, 33239, Note_on_c, 1, 55, 0
3, 33600, Note_on_c, 1, 63, 114
3, 33600, Note_on_c, 1, 51, 114
3, 33797, Note_on_c, 1, 63, 0
3, 33797, Note_on_c, 1, 51, 0
3, 33840, Note_on_c, 1, 55, 114
3, 33840, Note_on_c, 1, 67, 114
3, 34037, Note_on_c, 1, 55, 0
3, 34037, Note_on_c, 1, 67, 0
3, 34080, Note_on_c, 1, 70, 114
3, 34080, Note_on_c, 1, 58, 114
3, 34199, Note_on_c, 1, 70, 0
3, 34199, Note_on_c, 1, 58, 0
3, 34200, Note_on_c, 1, 58, 114
3, 34200, Note_on_c, 1, 70, 114
3, 34319, Note_on_c, 1, 58, 0
3, 34319, Note_on_c, 1, 70, 0
3, 34320, Note_on_c, 1, 58, 114
3, 34320, Note_on_c, 1, 70, 114
3, 34439, Note_on_c, 1, 58, 0
3, 34439, Note_on_c, 1, 70, 0
3, 34440, Note_on_c, 1, 58, 114
3, 34440, Note_on_c, 1, 70, 114
3, 34559, Note_on_c, 1, 58, 0
3, 34559, Note_on_c, 1, 70, 0
3, 34560, Note_on_c, 1, 67, 114
3, 34560, Note_on_c, 1, 55, 114
3, 34631, Note_on_c, 1, 67, 0
3, 34631, Note_on_c, 1, 55, 0
3, 34680, Note_on_c, 1, 63, 114
3, 34680, Note_on_c, 1, 51, 114
3, 34751, Note_on_c, 1, 63, 0
3, 34751, Note_on_c, 1, 51, 0
3, 35040, Note_on_c, 1, 63, 41
3, 35519, Note_on_c, 1, 63, 0
3, 35520, Note_on_c, 1, 63, 41
3, 35999, Note_on_c, 1, 63, 0
3, 36000, Note_on_c, 1, 58, 41
3, 36000, Note_on_c, 1, 65, 41
3, 36479, Note_on_c, 1, 58, 0
3, 36479, Note_on_c, 1, 65, 0
3, 36480, Note_on_c, 1, 58, 41
3, 36480, Note_on_c, 1, 67, 41
3, 36959, Note_on_c, 1, 58, 0
3, 36959, Note_on_c, 1, 67, 0
3, 36960, Note_on_c, 1, 63, 41
3, 37439, Note_on_c, 1, 63, 0
3, 37440, Note_on_c, 1, 65, 41
3, 37440, Note_on_c, 1, 63, 41
3, 37919, Note_on_c, 1, 65, 0
3, 37919, Note_on_c, 1, 63, 0
3, 37920, Note_on_c, 1, 65, 41
3, 37920, Note_on_c, 1, 58, 41
3, 38399, Note_on_c, 1, 65, 0
3, 38399, Note_on_c, 1, 58, 0
3, 38400, Note_on_c, 1, 63, 41
3, 38400, Note_on_c, 1, 55, 41
3, 38519, Note_on_c, 1, 63, 0
3, 38519, Note_on_c, 1, 55, 0
3, 38880, Note_on_c, 1, 63, 114
3, 38880, Note_on_c, 1, 51, 114
3, 39839, Note_on_c, 1, 63, 0
3, 39839, Note_on_c, 1, 51, 0
3, 39840, Note_on_c, 1, 51, 114
3, 39840, Note_on_c, 1, 63, 114
3, 39899, Note_on_c, 1, 51, 0
3, 39899, Note_on_c, 1, 63, 0
3, 39900, Note_on_c, 1, 51, 114
3, 39900, Note_on_c, 1, 63, 114
3, 39959, Note_on_c, 1, 51, 0
3, 39959, Note_on_c, 1, 63, 0
3, 39960, Note_on_c, 1, 51, 114
3, 39960, Note_on_c, 1, 63, 114
3, 40019, Note_on_c, 1, 51, 0
3, 40019, Note_on_c, 1, 63, 0
3, 40020, Note_on_c, 1, 51, 114
3, 40020, Note_on_c, 1, 63, 114
3, 40079, Note_on_c, 1, 51, 0
3, 40079, Note_on_c, 1, 63, 0
3, 40080, Note_on_c, 1, 51, 114
3, 40080, Note_on_c, 1, 63, 114
3, 40139, Note_on_c, 1, 51, 0
3, 40139, Note_on_c, 1, 63, 0
3, 40140, Note_on_c, 1, 51, 114
3, 40140, Note_on_c, 1, 63, 114
3, 40199, Note_on_c, 1, 51, 0
3, 40199, Note_on_c, 1, 63, 0
3, 40200, Note_on_c, 1, 51, 114
3, 40200, Note_on_c, 1, 63, 114
3, 40259, Note_on_c, 1, 51, 0
3, 40259, Note_on_c, 1, 63, 0
3, 40260, Note_on_c, 1, 51, 114
3, 40260, Note_on_c, 1, 63, 114
3, 40319, Note_on_c, 1, 51, 0
3, 40319, Note_on_c, 1, 63, 0
3, 40320, Note_on_c, 1, 51, 58
3, 40320, Note_on_c, 1, 63, 58
3, 40799, Note_on_c, 1, 51, 0
3, 40799, Note_on_c, 1, 63, 0
3, 40800, Note_on_c, 1, 51, 114
3, 40800, Note_on_c, 1, 63, 114
3, 40859, Note_on_c, 1, 51, 0
3, 40859, Note_on_c, 1, 63, 0
3, 40860, Note_on_c, 1, 51, 114
3, 40860, Note_on_c, 1, 63, 114
3, 40919, Note_on_c, 1, 51, 0
3, 40919, Note_on_c, 1, 63, 0
3, 40920, Note_on_c, 1, 51, 114
3, 40920, Note_on_c, 1, 63, 114
3, 40979, Note_on_c, 1, 51, 0
3, 40979, Note_on_c, 1, 63, 0
3, 40980, Note_on_c, 1, 51, 114
3, 40980, Note_on_c, 1, 63, 114
3, 41039, Note_on_c, 1, 51, 0
3, 41039, Note_on_c, 1, 63, 0
3, 41040, Note_on_c, 1, 51, 114
3, 41040, Note_on_c, 1, 63, 114
3, 41099, Note_on_c, 1, 51, 0
3, 41099, Note_on_c, 1, 63, 0
3, 41100, Note_on_c, 1, 51, 114
3, 41100, Note_on_c, 1, 63, 114
3, 41159, Note_on_c, 1, 51, 0
3, 41159, Note_on_c, 1, 63, 0
3, 41160, Note_on_c, 1, 51, 114
3, 41160, Note_on_c, 1, 63, 114
3, 41219, Note_on_c, 1, 51, 0
3, 41219, Note_on_c, 1, 63, 0
3, 41220, Note_on_c, 1, 51, 114
3, 41220, Note_on_c, 1, 63, 114
3, 41279, Note_on_c, 1, 51, 0
3, 41279, Note_on_c, 1, 63, 0
3, 41280, Note_on_c, 1, 63, 114
3, 41280, Note_on_c, 1, 51, 114
3, 41759, Note_on_c, 1, 63, 0
3, 41759, Note_on_c, 1, 51, 0
3, 41760, Note_on_c, 1, 65, 114
3, 41760, Note_on_c, 1, 58, 114
3, 41879, Note_on_c, 1, 65, 0
3, 41879, Note_on_c, 1, 58, 0
3, 41880, Note_on_c, 1, 58, 114
3, 41880, Note_on_c, 1, 65, 114
3, 41999, Note_on_c, 1, 58, 0
3, 41999, Note_on_c, 1, 65, 0
3, 42000, Note_on_c, 1, 58, 114
3, 42000, Note_on_c, 1, 65, 114
3, 42119, Note_on_c, 1, 58, 0
3, 42119, Note_on_c, 1, 65, 0
3, 42120, Note_on_c, 1, 58, 114
3, 42120, Note_on_c, 1, 65, 114
3, 42239, Note_on_c, 1, 58, 0
3, 42239, Note_on_c, 1, 65, 0
3, 42240, Note_on_c, 1, 58, 114
3, 42240, Note_on_c, 1, 65, 114
3, 42479, Note_on_c, 1, 58, 0
3, 42479, Note_on_c, 1, 65, 0
3, 45120, Note_on_c, 1, 58, 114
3, 45120, Note_on_c, 1, 70, 114
3, 45599, Note_on_c, 1, 58, 0
3, 45599, Note_on_c, 1, 70, 0
3, 45600, Note_on_c, 1, 70, 114
3, 45600, Note_on_c, 1, 58, 114
3, 45719, Note_on_c, 1, 70, 0
3, 45719, Note_on_c, 1, 58, 0
3, 46080, Note_on_c, 1, 70, 114
3, 46080, Note_on_c, 1, 58, 114
3, 46199, Note_on_c, 1, 70, 0
3, 46199, Note_on_c, 1, 58, 0
3, 46560, Note_on_c, 1, 70, 114
3, 46560, Note_on_c, 1, 58, 114
3, 46679, Note_on_c, 1, 70, 0
3, 46679, Note_on_c, 1, 58, 0
3, 47040, Note_on_c, 1, 70, 114
3, 47040, Note_on_c, 1, 58, 114
3, 47279, Note_on_c, 1, 70, 0
3, 47279, Note_on_c, 1, 58, 0
3, 47280, Note_on_c, 1, 70, 114
3, 47280, Note_on_c, 1, 65, 114
3, 47399, Note_on_c, 1, 70, 0
3, 47399, Note_on_c, 1, 65, 0
3, 47400, Note_on_c, 1, 69, 114
3, 47400, Note_on_c, 1, 65, 114
3, 47519, Note_on_c, 1, 69, 0
3, 47519, Note_on_c, 1, 65, 0
3, 47520, Note_on_c, 1, 70, 114
3, 47520, Note_on_c, 1, 58, 114
3, 47639, Note_on_c, 1, 70, 0
3, 47639, Note_on_c, 1, 58, 0
3, 48000, Note_on_c, 1, 70, 114
3, 48000, Note_on_c, 1, 58, 114
3, 48119, Note_on_c, 1, 70, 0
3, 48119, Note_on_c, 1, 58, 0
3, 48480, Note_on_c, 1, 58, 114
3, 48480, Note_on_c, 1, 70, 114
3, 48599, Note_on_c, 1, 58, 0
3, 48599, Note_on_c, 1, 70, 0
3, 48960, Note_on_c, 1, 70, 114
3, 48960, Note_on_c, 1, 58, 114
3, 49199, Note_on_c, 1, 70, 0
3, 49199, Note_on_c, 1, 58, 0
3, 49200, Note_on_c, 1, 65, 114
3, 49200, Note_on_c, 1, 70, 114
3, 49319, Note_on_c, 1, 65, 0
3, 49319, Note_on_c, 1, 70, 0
3, 49320, Note_on_c, 1, 69, 114
3, 49320, Note_on_c, 1, 65, 114
3, 49439, Note_on_c, 1, 69, 0
3, 49439, Note_on_c, 1, 65, 0
3, 49440, Note_on_c, 1, 58, 114
3, 49440, Note_on_c, 1, 70, 114
3, 49559, Note_on_c, 1, 58, 0
3, 49559, Note_on_c, 1, 70, 0
3, 49920, Note_on_c, 1, 70, 114
3, 49920, Note_on_c, 1, 58, 114
3, 50039, Note_on_c, 1, 70, 0
3, 50039, Note_on_c, 1, 58, 0
3, 50400, Note_on_c, 1, 70, 114
3, 50400, Note_on_c, 1, 58, 114
3, 50519, Note_on_c, 1, 70, 0
3, 50519, Note_on_c, 1, 58, 0
3, 50880, Note_on_c, 1, 65, 114
3, 50880, Note_on_c, 1, 58, 114
3, 50999, Note_on_c, 1, 65, 0
3, 50999, Note_on_c, 1, 58, 0
3, 51240, Note_on_c, 1, 69, 114
3, 51240, Note_on_c, 1, 65, 114
3, 51290, Note_on_c, 1, 69, 0
3, 51290, Note_on_c, 1, 65, 0
3, 51360, Note_on_c, 1, 58, 114
3, 51360, Note_on_c, 1, 70, 114
3, 51479, Note_on_c, 1, 58, 0
3, 51479, Note_on_c, 1, 70, 0
3, 51840, Note_on_c, 1, 70, 114
3, 51840, Note_on_c, 1, 58, 114
3, 51959, Note_on_c, 1, 70, 0
3, 51959, Note_on_c, 1, 58, 0
3, 52320, Note_on_c, 1, 58, 114
3, 52320, Note_on_c, 1, 70, 114
3, 52439, Note_on_c, 1, 58, 0
3, 52439, Note_on_c, 1, 70, 0
3, 52800, Note_on_c, 1, 70, 114
3, 52800, Note_on_c, 1, 58, 114
3, 52919, Note_on_c, 1, 70, 0
3, 52919, Note_on_c, 1, 58, 0
3, 53040, Note_on_c, 1, 67, 114
3, 53040, Note_on_c, 1, 63, 114
3, 53090, Note_on_c, 1, 67, 0
3, 53090, Note_on_c, 1, 63, 0
3, 53160, Note_on_c, 1, 63, 114
3, 53160, Note_on_c, 1, 65, 114
3, 53210, Note_on_c, 1, 63, 0
3, 53210, Note_on_c, 1, 65, 0
3, 53280, Note_on_c, 1, 58, 114
3, 53280, Note_on_c, 1, 65, 114
3, 53329, Note_on_c, 1, 58, 0
3, 53329, Note_on_c, 1, 65, 0
3, 53760, Note_on_c, 1, 58, 58
3, 53760, Note_on_c, 1, 65, 58
3, 53819, Note_on_c, 1, 58, 0
3, 53819, Note_on_c, 1, 65, 0
3, 54000, Note_on_c, 1, 63, 114
3, 54060, Note_on_c, 1, 63, 0
3, 54120, Note_on_c, 1, 65, 114
3, 54180, Note_on_c, 1, 65, 0
3, 54240, Note_on_c, 1, 67, 114
3, 54270, Note_on_c, 1, 67, 0
3, 54360, Note_on_c, 1, 58, 63
3, 54360, Note_on_c, 1, 65, 63
3, 54419, Note_on_c, 1, 58, 0
3, 54419, Note_on_c, 1, 65, 0
3, 54480, Note_on_c, 1, 58, 63
3, 54480, Note_on_c, 1, 65, 63
3, 54539, Note_on_c, 1, 58, 0
3, 54539, Note_on_c, 1, 65, 0
3, 54600, Note_on_c, 1, 58, 63
3, 54600, Note_on_c, 1, 65, 63
3, 54659, Note_on_c, 1, 58, 0
3, 54659, Note_on_c, 1, 65, 0
3, 54720, Note_on_c, 1, 58, 63
3, 54720, Note_on_c, 1, 65, 63
3, 54779, Note_on_c, 1, 58, 0
3, 54779, Note_on_c, 1, 65, 0
3, 54960, Note_on_c, 1, 63, 114
3, 55020, Note_on_c, 1, 63, 0
3, 55080, Note_on_c, 1, 65, 114
3, 55140, Note_on_c, 1, 65, 0
3, 55200, Note_on_c, 1, 58, 114
3, 55200, Note_on_c, 1, 65, 114
3, 55260, Note_on_c, 1, 58, 0
3, 55260, Note_on_c, 1, 65, 0
3, 55440, Note_on_c, 1, 58, 114
3, 55440, Note_on_c, 1, 65, 114
3, 55559, Note_on_c, 1, 58, 0
3, 55559, Note_on_c, 1, 65, 0
3, 55560, Note_on_c, 1, 58, 114
3, 55560, Note_on_c, 1, 65, 114
3, 55679, Note_on_c, 1, 58, 0
3, 55679, Note_on_c, 1, 65, 0
3, 55680, Note_on_c, 1, 58, 114
3, 55680, Note_on_c, 1, 65, 114
3, 55799, Note_on_c, 1, 58, 0
3, 55799, Note_on_c, 1, 65, 0
3, 55800, Note_on_c, 1, 58, 114
3, 55800, Note_on_c, 1, 65, 114
3, 55919, Note_on_c, 1, 58, 0
3, 55919, Note_on_c, 1, 65, 0
3, 55920, Note_on_c, 1, 58, 114
3, 55920, Note_on_c, 1, 65, 114
3, 56039, Note_on_c, 1, 58, 0
3, 56039, Note_on_c, 1, 65, 0
3, 56160, Note_on_c, 1, 58, 114
3, 56359, Note_on_c, 1, 58, 0
3, 56640, Note_on_c, 1, 65, 112
3, 56698, Note_on_c, 1, 65, 0
3, 56760, Note_on_c, 1, 65, 114
3, 56818, Note_on_c, 1, 65, 0
3, 56880, Note_on_c, 1, 65, 114
3, 56938, Note_on_c, 1, 65, 0
3, 57000, Control_c, 1, 7, 53
3, 57000, Control_c, 1, 7, 55
3, 57000, Note_on_c, 1, 65, 114
3, 57058, Note_on_c, 1, 65, 0
3, 57120, Note_on_c, 1, 58, 99
3, 57237, Note_on_c, 1, 58, 0
3, 57600, Note_on_c, 1, 65, 35
3, 57600, Note_on_c, 1, 58, 29
3, 58079, Note_on_c, 1, 65, 0
3, 58079, Note_on_c, 1, 58, 0
3, 58080, Note_on_c, 1, 58, 27
3, 58080, Note_on_c, 1, 67, 37
3, 58559, Note_on_c, 1, 58, 0
3, 58559, Note_on_c, 1, 67, 0
3, 58560, Note_on_c, 1, 65, 33
3, 58560, Note_on_c, 1, 63, 31
3, 59039, Note_on_c, 1, 65, 0
3, 59039, Note_on_c, 1, 63, 0
3, 59040, Note_on_c, 1, 58, 28
3, 59040, Note_on_c, 1, 65, 33
3, 59519, Note_on_c, 1, 58, 0
3, 59519, Note_on_c, 1, 65, 0
3, 59520, Note_on_c, 1, 58, 28
3, 59520, Note_on_c, 1, 65, 32
3, 59999, Note_on_c, 1, 58, 0
3, 59999, Note_on_c, 1, 65, 0
3, 60000, Note_on_c, 1, 58, 28
3, 60000, Note_on_c, 1, 67, 34
3, 60479, Note_on_c, 1, 58, 0
3, 60479, Note_on_c, 1, 67, 0
3, 60480, Note_on_c, 1, 63, 29
3, 60480, Note_on_c, 1, 65, 36
3, 60959, Note_on_c, 1, 63, 0
3, 60959, Note_on_c, 1, 65, 0
3, 60960, Note_on_c, 1, 58, 26
3, 60960, Note_on_c, 1, 65, 35
3, 61079, Note_on_c, 1, 58, 0
3, 61079, Note_on_c, 1, 65, 0
3, 61920, Note_on_c, 1, 67, 114
3, 61920, Note_on_c, 1, 55, 114
3, 62087, Note_on_c, 1, 67, 0
3, 62087, Note_on_c, 1, 55, 0
3, 62880, Note_on_c, 1, 63, 26
3, 62880, Note_on_c, 1, 67, 31
3, 63359, Note_on_c, 1, 63, 0
3, 63359, Note_on_c, 1, 67, 0
3, 63360, Note_on_c, 1, 63, 29
3, 63360, Note_on_c, 1, 65, 33
3, 63839, Note_on_c, 1, 63, 0
3, 63839, Note_on_c, 1, 65, 0
3, 63840, Note_on_c, 1, 55, 29
3, 63840, Note_on_c, 1, 65, 32
3, 64319, Note_on_c, 1, 55, 0
3, 64319, Note_on_c, 1, 65, 0
3, 64320, Note_on_c, 1, 63, 31
3, 64320, Note_on_c, 1, 55, 23
3, 64799, Note_on_c, 1, 63, 0
3, 64799, Note_on_c, 1, 55, 0
3, 64800, Note_on_c, 1, 63, 28
3, 64800, Note_on_c, 1, 67, 34
3, 65279, Note_on_c, 1, 63, 0
3, 65279, Note_on_c, 1, 67, 0
3, 65280, Note_on_c, 1, 65, 34
3, 65280, Note_on_c, 1, 63, 31
3, 65759, Note_on_c, 1, 65, 0
3, 65759, Note_on_c, 1, 63, 0
3, 65760, Note_on_c, 1, 65, 33
3, 65760, Note_on_c, 1, 55, 25
3, 66239, Note_on_c, 1, 65, 0
3, 66239, Note_on_c, 1, 55, 0
3, 66240, Note_on_c, 1, 63, 32
3, 66240, Note_on_c, 1, 55, 28
3, 66359, Note_on_c, 1, 63, 0
3, 66359, Note_on_c, 1, 55, 0
3, 68640, Note_on_c, 1, 58, 97
3, 69119, Note_on_c, 1, 58, 0
3, 69600, Note_on_c, 1, 58, 95
3, 70079, Note_on_c, 1, 58, 0
3, 71520, Note_on_c, 1, 58, 83
3, 71639, Note_on_c, 1, 58, 0
3, 71760, Note_on_c, 1, 58, 106
3, 71879, Note_on_c, 1, 58, 0
3, 71880, Note_on_c, 1, 58, 99
3, 71999, Note_on_c, 1, 58, 0
3, 72000, Note_on_c, 1, 58, 113
3, 72119, Note_on_c, 1, 58, 0
3, 72120, Note_on_c, 1, 58, 101
3, 72239, Note_on_c, 1, 58, 0
3, 72240, Note_on_c, 1, 58, 114
3, 72359, Note_on_c, 1, 58, 0
3, 74400, Note_on_c, 1, 51, 68
3, 74400, Note_on_c, 1, 63, 68
3, 74784, Note_on_c, 1, 51, 0
3, 74784, Note_on_c, 1, 63, 0
3, 74880, Note_on_c, 1, 51, 103
3, 74880, Note_on_c, 1, 63, 95
3, 75359, Note_on_c, 1, 51, 0
3, 75359, Note_on_c, 1, 63, 0
3, 75360, Note_on_c, 1, 63, 95
3, 75360, Note_on_c, 1, 51, 88
3, 75479, Note_on_c, 1, 63, 0
3, 75479, Note_on_c, 1, 51, 0
3, 75840, Note_on_c, 1, 51, 101
3, 75840, Note_on_c, 1, 63, 110
3, 75959, Note_on_c, 1, 51, 0
3, 75959, Note_on_c, 1, 63, 0
3, 76320, Note_on_c, 1, 51, 114
3, 76320, Note_on_c, 1, 63, 114
3, 76439, Note_on_c, 1, 51, 0
3, 76439, Note_on_c, 1, 63, 0
3, 76800, Note_on_c, 1, 63, 99
3, 76800, Note_on_c, 1, 51, 99
3, 76919, Note_on_c, 1, 63, 0
3, 76919, Note_on_c, 1, 51, 0
3, 77040, Note_on_c, 1, 58, 114
3, 77040, Note_on_c, 1, 70, 114
3, 77159, Note_on_c, 1, 70, 0
3, 77160, Note_on_c, 1, 68, 114
3, 77279, Note_on_c, 1, 58, 0
3, 77279, Note_on_c, 1, 68, 0
3, 77280, Note_on_c, 1, 58, 79
3, 77280, Note_on_c, 1, 67, 106
3, 77399, Note_on_c, 1, 58, 0
3, 77399, Note_on_c, 1, 67, 0
3, 77760, Note_on_c, 1, 51, 106
3, 77760, Note_on_c, 1, 63, 104
3, 77879, Note_on_c, 1, 51, 0
3, 77879, Note_on_c, 1, 63, 0
3, 78240, Note_on_c, 1, 51, 114
3, 78240, Note_on_c, 1, 63, 114
3, 78359, Note_on_c, 1, 51, 0
3, 78359, Note_on_c, 1, 63, 0
3, 78720, Note_on_c, 1, 63, 114
3, 78720, Note_on_c, 1, 51, 114
3, 78839, Note_on_c, 1, 63, 0
3, 78839, Note_on_c, 1, 51, 0
3, 78960, Note_on_c, 1, 58, 94
3, 78960, Note_on_c, 1, 70, 112
3, 79079, Note_on_c, 1, 58, 0
3, 79079, Note_on_c, 1, 70, 0
3, 79080, Note_on_c, 1, 46, 99
3, 79080, Note_on_c, 1, 68, 114
3, 79199, Note_on_c, 1, 46, 0
3, 79199, Note_on_c, 1, 68, 0
3, 79200, Note_on_c, 1, 63, 108
3, 79200, Note_on_c, 1, 51, 92
3, 79319, Note_on_c, 1, 63, 0
3, 79319, Note_on_c, 1, 51, 0
3, 79680, Note_on_c, 1, 67, 112
3, 79680, Note_on_c, 1, 63, 81
3, 79799, Note_on_c, 1, 67, 0
3, 79799, Note_on_c, 1, 63, 0
3, 80160, Note_on_c, 1, 63, 95
3, 80160, Note_on_c, 1, 67, 110
3, 80279, Note_on_c, 1, 63, 0
3, 80279, Note_on_c, 1, 67, 0
3, 80640, Note_on_c, 1, 63, 88
3, 80640, Note_on_c, 1, 67, 114
3, 80759, Note_on_c, 1, 63, 0
3, 80759, Note_on_c, 1, 67, 0
3, 80820, Note_on_c, 1, 70, 114
3, 80820, Note_on_c, 1, 63, 88
3, 80879, Note_on_c, 1, 70, 0
3, 80879, Note_on_c, 1, 63, 0
3, 80880, Note_on_c, 1, 65, 114
3, 80880, Note_on_c, 1, 68, 101
3, 80940, Note_on_c, 1, 65, 0
3, 80940, Note_on_c, 1, 68, 0
3, 81000, Note_on_c, 1, 65, 114
3, 81000, Note_on_c, 1, 58, 90
3, 81060, Note_on_c, 1, 65, 0
3, 81060, Note_on_c, 1, 58, 0
3, 81120, Note_on_c, 1, 67, 106
3, 81120, Note_on_c, 1, 63, 95
3, 81180, Note_on_c, 1, 67, 0
3, 81180, Note_on_c, 1, 63, 0
3, 81600, Note_on_c, 1, 63, 52
3, 81600, Note_on_c, 1, 67, 58
3, 82079, Note_on_c, 1, 63, 0
3, 82079, Note_on_c, 1, 67, 0
3, 82080, Note_on_c, 1, 63, 77
3, 82080, Note_on_c, 1, 67, 97
3, 82559, Note_on_c, 1, 63, 0
3, 82559, Note_on_c, 1, 67, 0
3, 82560, Note_on_c, 1, 63, 114
3, 82560, Note_on_c, 1, 67, 113
3, 82679, Note_on_c, 1, 67, 0
3, 82740, Note_on_c, 1, 70, 114
3, 82752, Note_on_c, 1, 63, 0
3, 82799, Note_on_c, 1, 70, 0
3, 82800, Note_on_c, 1, 68, 86
3, 82800, Note_on_c, 1, 65, 74
3, 82860, Note_on_c, 1, 68, 0
3, 82860, Note_on_c, 1, 65, 0
3, 82920, Note_on_c, 1, 65, 99
3, 82920, Note_on_c, 1, 58, 76
3, 82980, Note_on_c, 1, 65, 0
3, 82980, Note_on_c, 1, 58, 0
3, 83040, Note_on_c, 1, 63, 114
3, 83040, Note_on_c, 1, 67, 114
3, 83080, Note_on_c, 1, 63, 0
3, 83080, Note_on_c, 1, 67, 0
3, 83160, Note_on_c, 1, 67, 68
3, 83160, Note_on_c, 1, 70, 60
3, 83219, Note_on_c, 1, 67, 0
3, 83219, Note_on_c, 1, 70, 0
3, 83280, Note_on_c, 1, 67, 68
3, 83280, Note_on_c, 1, 63, 60
3, 83339, Note_on_c, 1, 67, 0
3, 83339, Note_on_c, 1, 63, 0
3, 83400, Note_on_c, 1, 67, 68
3, 83400, Note_on_c, 1, 70, 56
3, 83459, Note_on_c, 1, 67, 0
3, 83459, Note_on_c, 1, 70, 0
3, 83520, Note_on_c, 1, 63, 40
3, 83520, Note_on_c, 1, 67, 64
3, 83579, Note_on_c, 1, 63, 0
3, 83579, Note_on_c, 1, 67, 0
3, 84120, Note_on_c, 1, 67, 68
3, 84120, Note_on_c, 1, 70, 68
3, 84179, Note_on_c, 1, 67, 0
3, 84179, Note_on_c, 1, 70, 0
3, 84240, Note_on_c, 1, 67, 67
3, 84240, Note_on_c, 1, 63, 58
3, 84299, Note_on_c, 1, 67, 0
3, 84299, Note_on_c, 1, 63, 0
3, 84360, Note_on_c, 1, 67, 68
3, 84360, Note_on_c, 1, 70, 60
3, 84419, Note_on_c, 1, 67, 0
3, 84419, Note_on_c, 1, 70, 0
3, 84480, Note_on_c, 1, 67, 68
3, 84480, Note_on_c, 1, 63, 56
3, 84539, Note_on_c, 1, 67, 0
3, 84539, Note_on_c, 1, 63, 0
3, 84600, Note_on_c, 1, 67, 106
3, 84719, Note_on_c, 1, 67, 0
3, 84720, Note_on_c, 1, 68, 114
3, 84780, Note_on_c, 1, 68, 0
3, 84840, Note_on_c, 1, 70, 114
3, 84840, Note_on_c, 1, 58, 112
3, 84900, Note_on_c, 1, 70, 0
3, 84900, Note_on_c, 1, 58, 0
3, 84960, Note_on_c, 1, 67, 113
3, 84960, Note_on_c, 1, 63, 114
3, 85020, Note_on_c, 1, 67, 0
3, 85020, Note_on_c, 1, 63, 0
3, 85200, Note_on_c, 1, 63, 113
3, 85200, Note_on_c, 1, 67, 59
3, 85319, Note_on_c, 1, 63, 0
3, 85319, Note_on_c, 1, 67, 0
3, 85320, Note_on_c, 1, 67, 114
3, 85320, Note_on_c, 1, 51, 88
3, 85439, Note_on_c, 1, 67, 0
3, 85439, Note_on_c, 1, 51, 0
3, 85440, Note_on_c, 1, 67, 114
3, 85440, Note_on_c, 1, 51, 99
3, 85559, Note_on_c, 1, 67, 0
3, 85559, Note_on_c, 1, 51, 0
3, 85560, Note_on_c, 1, 51, 99
3, 85560, Note_on_c, 1, 67, 114
3, 85679, Note_on_c, 1, 51, 0
3, 85679, Note_on_c, 1, 67, 0
3, 85680, Note_on_c, 1, 67, 114
3, 85680, Note_on_c, 1, 51, 113
3, 85799, Note_on_c, 1, 67, 0
3, 85799, Note_on_c, 1, 51, 0
3, 85799, End_track
4, 0, Start_track
4, 0, MIDI_port, 0
4, 0, Title_t, "1st Violin"
4, 0, Program_c, 2, 40
4, 480, Note_on_c, 2, 75, 127
4, 695, Note_on_c, 2, 75, 0
4, 720, Note_on_c, 2, 79, 127
4, 935, Note_on_c, 2, 79, 0
4, 960, Note_on_c, 2, 82, 127
4, 1004, Note_on_c, 2, 82, 0
4, 1020, Note_on_c, 2, 82, 127
4, 1064, Note_on_c, 2, 82, 0
4, 1080, Note_on_c, 2, 82, 127
4, 1124, Note_on_c, 2, 82, 0
4, 1140, Note_on_c, 2, 82, 127
4, 1184, Note_on_c, 2, 82, 0
4, 1200, Note_on_c, 2, 82, 127
4, 1244, Note_on_c, 2, 82, 0
4, 1260, Note_on_c, 2, 82, 127
4, 1304, Note_on_c, 2, 82, 0
4, 1320, Note_on_c, 2, 82, 127
4, 1364, Note_on_c, 2, 82, 0
4, 1380, Note_on_c, 2, 82, 127
4, 1424, Note_on_c, 2, 82, 0
4, 1440, Note_on_c, 2, 79, 127
4, 1493, Note_on_c, 2, 79, 0
4, 1560, Note_on_c, 2, 75, 127
4, 1613, Note_on_c, 2, 75, 0
4, 1920, Note_on_c, 2, 70, 45
4, 1920, Note_on_c, 2, 67, 45
4, 2399, Note_on_c, 2, 70, 0
4, 2399, Note_on_c, 2, 67, 0
4, 2400, Note_on_c, 2, 68, 45
4, 2400, Note_on_c, 2, 60, 45
4, 2879, Note_on_c, 2, 68, 0
4, 2879, Note_on_c, 2, 60, 0
4, 2880, Note_on_c, 2, 68, 45
4, 2880, Note_on_c, 2, 58, 45
4, 3359, Note_on_c, 2, 68, 0
4, 3359, Note_on_c, 2, 58, 0
4, 3360, Note_on_c, 2, 58, 45
4, 3360, Note_on_c, 2, 67, 45
4, 3839, Note_on_c, 2, 58, 0
4, 3839, Note_on_c, 2, 67, 0
4, 3840, Note_on_c, 2, 58, 45
4, 3840, Note_on_c, 2, 67, 45
4, 4319, Note_on_c, 2, 58, 0
4, 4319, Note_on_c, 2, 67, 0
4, 4320, Note_on_c, 2, 56, 45
4, 4320, Note_on_c, 2, 65, 45
4, 4799, Note_on_c, 2, 56, 0
4, 4799, Note_on_c, 2, 65, 0
4, 4800, Note_on_c, 2, 56, 45
4, 4800, Note_on_c, 2, 65, 45
4, 5279, Note_on_c, 2, 56, 0
4, 5279, Note_on_c, 2, 65, 0
4, 5280, Note_on_c, 2, 63, 45
4, 5280, Note_on_c, 2, 55, 45
4, 5399, Note_on_c, 2, 63, 0
4, 5399, Note_on_c, 2, 55, 0
4, 5760, Note_on_c, 2, 75, 127
4, 5957, Note_on_c, 2, 75, 0
4, 6000, Note_on_c, 2, 79, 127
4, 6197, Note_on_c, 2, 79, 0
4, 6240, Note_on_c, 2, 82, 127
4, 6299, Note_on_c, 2, 82, 0
4, 6300, Note_on_c, 2, 82, 127
4, 6359, Note_on_c, 2, 82, 0
4, 6360, Note_on_c, 2, 82, 127
4, 6419, Note_on_c, 2, 82, 0
4, 6420, Note_on_c, 2, 82, 127
4, 6479, Note_on_c, 2, 82, 0
4, 6480, Note_on_c, 2, 82, 127
4, 6539, Note_on_c, 2, 82, 0
4, 6540, Note_on_c, 2, 82, 127
4, 6599, Note_on_c, 2, 82, 0
4, 6600, Note_on_c, 2, 82, 127
4, 6659, Note_on_c, 2, 82, 0
4, 6660, Note_on_c, 2, 82, 127
4, 6719, Note_on_c, 2, 82, 0
4, 6720, Note_on_c, 2, 79, 127
4, 6791, Note_on_c, 2, 79, 0
4, 6840, Note_on_c, 2, 75, 127
4, 6911, Note_on_c, 2, 75, 0
4, 7200, Note_on_c, 2, 70, 45
4, 7200, Note_on_c, 2, 67, 45
4, 7679, Note_on_c, 2, 70, 0
4, 7679, Note_on_c, 2, 67, 0
4, 7680, Note_on_c, 2, 68, 45
4, 7680, Note_on_c, 2, 60, 45
4, 8159, Note_on_c, 2, 68, 0
4, 8159, Note_on_c, 2, 60, 0
4, 8160, Note_on_c, 2, 68, 45
4, 8160, Note_on_c, 2, 58, 45
4, 8639, Note_on_c, 2, 68, 0
4, 8639, Note_on_c, 2, 58, 0
4, 8640, Note_on_c, 2, 58, 45
4, 8640, Note_on_c, 2, 67, 45
4, 9119, Note_on_c, 2, 58, 0
4, 9119, Note_on_c, 2, 67, 0
4, 9120, Note_on_c, 2, 58, 45
4, 9120, Note_on_c, 2, 67, 45
4, 9599, Note_on_c, 2, 58, 0
4, 9599, Note_on_c, 2, 67, 0
4, 9600, Note_on_c, 2, 65, 45
4, 9600, Note_on_c, 2, 56, 45
4, 10079, Note_on_c, 2, 65, 0
4, 10079, Note_on_c, 2, 56, 0
4, 10080, Note_on_c, 2, 56, 45
4, 10080, Note_on_c, 2, 65, 45
4, 10559, Note_on_c, 2, 56, 0
4, 10559, Note_on_c, 2, 65, 0
4, 10560, Note_on_c, 2, 55, 45
4, 10560, Note_on_c, 2, 63, 45
4, 10679, Note_on_c, 2, 55, 0
4, 10679, Note_on_c, 2, 63, 0
4, 11040, Note_on_c, 2, 55, 127
4, 11040, Note_on_c, 2, 63, 127
4, 11159, Note_on_c, 2, 55, 0
4, 11159, Note_on_c, 2, 63, 0
4, 11460, Note_on_c, 2, 70, 127
4, 11474, Note_on_c, 2, 70, 0
4, 11475, Note_on_c, 2, 68, 127
4, 11489, Note_on_c, 2, 68, 0
4, 11490, Note_on_c, 2, 67, 127
4, 11504, Note_on_c, 2, 67, 0
4, 11505, Note_on_c, 2, 65, 127
4, 11519, Note_on_c, 2, 65, 0
4, 11520, Note_on_c, 2, 63, 127
4, 11579, Note_on_c, 2, 63, 0
4, 11640, Note_on_c, 2, 67, 127
4, 11699, Note_on_c, 2, 67, 0
4, 11760, Note_on_c, 2, 70, 127
4, 11819, Note_on_c, 2, 70, 0
4, 11880, Note_on_c, 2, 75, 127
4, 11939, Note_on_c, 2, 75, 0
4, 12000, Note_on_c, 2, 68, 127
4, 12029, Note_on_c, 2, 68, 0
4, 12030, Note_on_c, 2, 67, 127
4, 12059, Note_on_c, 2, 67, 0
4, 12060, Note_on_c, 2, 65, 127
4, 12089, Note_on_c, 2, 65, 0
4, 12090, Note_on_c, 2, 67, 127
4, 12119, Note_on_c, 2, 67, 0
4, 12120, Note_on_c, 2, 65, 127
4, 12239, Note_on_c, 2, 65, 0
4, 12420, Note_on_c, 2, 68, 127
4, 12434, Note_on_c, 2, 68, 0
4, 12435, Note_on_c, 2, 67, 127
4, 12449, Note_on_c, 2, 67, 0
4, 12450, Note_on_c, 2, 65, 127
4, 12464, Note_on_c, 2, 65, 0
4, 12465, Note_on_c, 2, 63, 127
4, 12479, Note_on_c, 2, 63, 0
4, 12480, Note_on_c, 2, 62, 127
4, 12539, Note_on_c, 2, 62, 0
4, 12600, Note_on_c, 2, 68, 127
4, 12659, Note_on_c, 2, 68, 0
4, 12720, Note_on_c, 2, 74, 127
4, 12779, Note_on_c, 2, 74, 0
4, 12840, Note_on_c, 2, 77, 127
4, 12899, Note_on_c, 2, 77, 0
4, 12960, Note_on_c, 2, 70, 127
4, 12989, Note_on_c, 2, 70, 0
4, 12990, Note_on_c, 2, 68, 127
4, 13019, Note_on_c, 2, 68, 0
4, 13020, Note_on_c, 2, 67, 127
4, 13049, Note_on_c, 2, 67, 0
4, 13050, Note_on_c, 2, 68, 127
4, 13079, Note_on_c, 2, 68, 0
4, 13080, Note_on_c, 2, 67, 127
4, 13199, Note_on_c, 2, 67, 0
4, 13380, Note_on_c, 2, 70, 127
4, 13394, Note_on_c, 2, 70, 0
4, 13395, Note_on_c, 2, 68, 127
4, 13409, Note_on_c, 2, 68, 0
4, 13410, Note_on_c, 2, 67, 127
4, 13424, Note_on_c, 2, 67, 0
4, 13425, Note_on_c, 2, 65, 127
4, 13439, Note_on_c, 2, 65, 0
4, 13440, Note_on_c, 2, 63, 127
4, 13499, Note_on_c, 2, 63, 0
4, 13560, Note_on_c, 2, 70, 127
4, 13619, Note_on_c, 2, 70, 0
4, 13680, Note_on_c, 2, 75, 127
4, 13739, Note_on_c, 2, 75, 0
4, 13800, Note_on_c, 2, 79, 127
4, 13859, Note_on_c, 2, 79, 0
4, 13920, Note_on_c, 2, 77, 127
4, 14039, Note_on_c, 2, 77, 0
4, 14040, Note_on_c, 2, 82, 127
4, 14159, Note_on_c, 2, 82, 0
4, 14160, Note_on_c, 2, 82, 127
4, 14279, Note_on_c, 2, 82, 0
4, 14280, Note_on_c, 2, 82, 127
4, 14399, Note_on_c, 2, 82, 0
4, 14400, Note_on_c, 2, 82, 127
4, 14639, Note_on_c, 2, 82, 0
4, 14880, Note_on_c, 2, 77, 76
4, 15119, Note_on_c, 2, 77, 0
4, 15120, Note_on_c, 2, 79, 76
4, 15209, Note_on_c, 2, 79, 0
4, 15210, Note_on_c, 2, 77, 76
4, 15239, Note_on_c, 2, 77, 0
4, 15240, Note_on_c, 2, 76, 76
4, 15329, Note_on_c, 2, 76, 0
4, 15330, Note_on_c, 2, 77, 76
4, 15359, Note_on_c, 2, 77, 0
4, 15360, Note_on_c, 2, 77, 76
4, 16319, Note_on_c, 2, 77, 0
4, 16380, Note_on_c, 2, 82, 76
4, 16439, Note_on_c, 2, 82, 0
4, 16440, Note_on_c, 2, 81, 76
4, 16499, Note_on_c, 2, 81, 0
4, 16500, Note_on_c, 2, 79, 76
4, 16559, Note_on_c, 2, 79, 0
4, 16560, Note_on_c, 2, 77, 76
4, 16619, Note_on_c, 2, 77, 0
4, 16620, Note_on_c, 2, 75, 76
4, 16679, Note_on_c, 2, 75, 0
4, 16680, Note_on_c, 2, 74, 76
4, 16739, Note_on_c, 2, 74, 0
4, 16740, Note_on_c, 2, 72, 74
4, 16799, Note_on_c, 2, 72, 0
4, 16800, Note_on_c, 2, 70, 127
4, 16859, Note_on_c, 2, 70, 0
4, 16860, Note_on_c, 2, 70, 127
4, 16979, Note_on_c, 2, 70, 0
4, 16980, Note_on_c, 2, 70, 127
4, 17099, Note_on_c, 2, 70, 0
4, 17100, Note_on_c, 2, 70, 127
4, 17219, Note_on_c, 2, 70, 0
4, 17220, Note_on_c, 2, 70, 127
4, 17279, Note_on_c, 2, 70, 0
4, 17280, Note_on_c, 2, 70, 127
4, 17339, Note_on_c, 2, 70, 0
4, 17340, Note_on_c, 2, 74, 127
4, 17459, Note_on_c, 2, 74, 0
4, 17460, Note_on_c, 2, 74, 127
4, 17579, Note_on_c, 2, 74, 0
4, 17580, Note_on_c, 2, 74, 127
4, 17699, Note_on_c, 2, 74, 0
4, 17700, Note_on_c, 2, 74, 127
4, 17759, Note_on_c, 2, 74, 0
4, 17760, Note_on_c, 2, 74, 127
4, 17879, Note_on_c, 2, 74, 0
4, 17940, Note_on_c, 2, 70, 127
4, 17999, Note_on_c, 2, 70, 0
4, 18000, Note_on_c, 2, 77, 127
4, 18059, Note_on_c, 2, 77, 0
4, 18060, Note_on_c, 2, 74, 127
4, 18119, Note_on_c, 2, 74, 0
4, 18120, Note_on_c, 2, 72, 127
4, 18155, Note_on_c, 2, 72, 0
4, 18180, Note_on_c, 2, 70, 127
4, 18215, Note_on_c, 2, 70, 0
4, 18240, Note_on_c, 2, 70, 127
4, 18329, Note_on_c, 2, 70, 0
4, 18330, Note_on_c, 2, 72, 127
4, 18359, Note_on_c, 2, 72, 0
4, 18360, Note_on_c, 2, 70, 127
4, 18419, Note_on_c, 2, 70, 0
4, 18420, Note_on_c, 2, 70, 127
4, 18479, Note_on_c, 2, 70, 0
4, 18480, Note_on_c, 2, 79, 127
4, 18539, Note_on_c, 2, 79, 0
4, 18540, Note_on_c, 2, 75, 127
4, 18599, Note_on_c, 2, 75, 0
4, 18600, Note_on_c, 2, 72, 127
4, 18635, Note_on_c, 2, 72, 0
4, 18660, Note_on_c, 2, 70, 127
4, 18695, Note_on_c, 2, 70, 0
4, 18720, Note_on_c, 2, 70, 127
4, 18809, Note_on_c, 2, 70, 0
4, 18810, Note_on_c, 2, 72, 127
4, 18839, Note_on_c, 2, 72, 0
4, 18840, Note_on_c, 2, 70, 127
4, 18899, Note_on_c, 2, 70, 0
4, 18900, Note_on_c, 2, 70, 127
4, 18959, Note_on_c, 2, 70, 0
4, 18960, Note_on_c, 2, 77, 127
4, 19019, Note_on_c, 2, 77, 0
4, 19020, Note_on_c, 2, 74, 127
4, 19079, Note_on_c, 2, 74, 0
4, 19080, Note_on_c, 2, 72, 127
4, 19115, Note_on_c, 2, 72, 0
4, 19140, Note_on_c, 2, 70, 127
4, 19175, Note_on_c, 2, 70, 0
4, 19200, Note_on_c, 2, 67, 127
4, 19370, Note_on_c, 2, 67, 0
4, 19380, Note_on_c, 2, 79, 127
4, 19415, Note_on_c, 2, 79, 0
4, 19440, Note_on_c, 2, 77, 127
4, 19475, Note_on_c, 2, 77, 0
4, 19500, Note_on_c, 2, 75, 127
4, 19535, Note_on_c, 2, 75, 0
4, 19560, Note_on_c, 2, 74, 127
4, 19595, Note_on_c, 2, 74, 0
4, 19620, Note_on_c, 2, 72, 127
4, 19655, Note_on_c, 2, 72, 0
4, 19680, Note_on_c, 2, 70, 127
4, 19799, Note_on_c, 2, 70, 0
4, 19860, Note_on_c, 2, 70, 127
4, 19919, Note_on_c, 2, 70, 0
4, 19920, Note_on_c, 2, 77, 127
4, 19979, Note_on_c, 2, 77, 0
4, 19980, Note_on_c, 2, 74, 127
4, 20039, Note_on_c, 2, 74, 0
4, 20040, Note_on_c, 2, 72, 127
4, 20075, Note_on_c, 2, 72, 0
4, 20100, Note_on_c, 2, 70, 127
4, 20135, Note_on_c, 2, 70, 0
4, 20160, Note_on_c, 2, 70, 127
4, 20249, Note_on_c, 2, 70, 0
4, 20250, Note_on_c, 2, 72, 127
4, 20279, Note_on_c, 2, 72, 0
4, 20280, Note_on_c, 2, 70, 127
4, 20339, Note_on_c, 2, 70, 0
4, 20340, Note_on_c, 2, 70, 127
4, 20399, Note_on_c, 2, 70, 0
4, 20400, Note_on_c, 2, 79, 127
4, 20459, Note_on_c, 2, 79, 0
4, 20460, Note_on_c, 2, 75, 127
4, 20519, Note_on_c, 2, 75, 0
4, 20520, Note_on_c, 2, 72, 127
4, 20555, Note_on_c, 2, 72, 0
4, 20580, Note_on_c, 2, 70, 127
4, 20615, Note_on_c, 2, 70, 0
4, 20640, Note_on_c, 2, 70, 127
4, 20729, Note_on_c, 2, 70, 0
4, 20730, Note_on_c, 2, 72, 127
4, 20759, Note_on_c, 2, 72, 0
4, 20760, Note_on_c, 2, 70, 127
4, 20819, Note_on_c, 2, 70, 0
4, 20820, Note_on_c, 2, 70, 127
4, 20879, Note_on_c, 2, 70, 0
4, 20880, Note_on_c, 2, 77, 127
4, 20939, Note_on_c, 2, 77, 0
4, 20940, Note_on_c, 2, 74, 127
4, 20999, Note_on_c, 2, 74, 0
4, 21000, Note_on_c, 2, 72, 127
4, 21035, Note_on_c, 2, 72, 0
4, 21060, Note_on_c, 2, 70, 127
4, 21095, Note_on_c, 2, 70, 0
4, 21120, Note_on_c, 2, 67, 127
4, 21290, Note_on_c, 2, 67, 0
4, 21300, Note_on_c, 2, 79, 127
4, 21335, Note_on_c, 2, 79, 0
4, 21360, Note_on_c, 2, 77, 127
4, 21395, Note_on_c, 2, 77, 0
4, 21420, Note_on_c, 2, 75, 127
4, 21455, Note_on_c, 2, 75, 0
4, 21480, Note_on_c, 2, 74, 127
4, 21515, Note_on_c, 2, 74, 0
4, 21540, Note_on_c, 2, 72, 127
4, 21575, Note_on_c, 2, 72, 0
4, 21600, Note_on_c, 2, 70, 102
4, 21600, Note_on_c, 2, 62, 102
4, 21629, Note_on_c, 2, 70, 0
4, 21629, Note_on_c, 2, 62, 0
4, 21630, Note_on_c, 2, 70, 102
4, 21630, Note_on_c, 2, 62, 102
4, 21659, Note_on_c, 2, 70, 0
4, 21659, Note_on_c, 2, 62, 0
4, 21660, Note_on_c, 2, 70, 102
4, 21660, Note_on_c, 2, 62, 102
4, 21689, Note_on_c, 2, 70, 0
4, 21689, Note_on_c, 2, 62, 0
4, 21690, Note_on_c, 2, 70, 102
4, 21690, Note_on_c, 2, 62, 102
4, 21719, Note_on_c, 2, 70, 0
4, 21719, Note_on_c, 2, 62, 0
4, 21720, Note_on_c, 2, 62, 102
4, 21720, Note_on_c, 2, 70, 102
4, 21749, Note_on_c, 2, 62, 0
4, 21749, Note_on_c, 2, 70, 0
4, 21750, Note_on_c, 2, 70, 102
4, 21750, Note_on_c, 2, 62, 102
4, 21779, Note_on_c, 2, 70, 0
4, 21779, Note_on_c, 2, 62, 0
4, 21780, Note_on_c, 2, 62, 102
4, 21780, Note_on_c, 2, 70, 102
4, 21809, Note_on_c, 2, 62, 0
4, 21809, Note_on_c, 2, 70, 0
4, 21810, Note_on_c, 2, 70, 102
4, 21810, Note_on_c, 2, 62, 102
4, 21839, Note_on_c, 2, 70, 0
4, 21839, Note_on_c, 2, 62, 0
4, 21840, Note_on_c, 2, 62, 102
4, 21840, Note_on_c, 2, 70, 102
4, 21869, Note_on_c, 2, 62, 0
4, 21869, Note_on_c, 2, 70, 0
4, 21870, Note_on_c, 2, 62, 102
4, 21870, Note_on_c, 2, 70, 102
4, 21899, Note_on_c, 2, 62, 0
4, 21899, Note_on_c, 2, 70, 0
4, 21900, Note_on_c, 2, 62, 102
4, 21900, Note_on_c, 2, 70, 102
4, 21929, Note_on_c, 2, 62, 0
4, 21929, Note_on_c, 2, 70, 0
4, 21930, Note_on_c, 2, 62, 102
4, 21930, Note_on_c, 2, 70, 102
4, 21959, Note_on_c, 2, 62, 0
4, 21959, Note_on_c, 2, 70, 0
4, 21960, Note_on_c, 2, 62, 102
4, 21960, Note_on_c, 2, 70, 102
4, 21989, Note_on_c, 2, 62, 0
4, 21989, Note_on_c, 2, 70, 0
4, 21990, Note_on_c, 2, 70, 102
4, 21990, Note_on_c, 2, 62, 102
4, 22019, Note_on_c, 2, 70, 0
4, 22019, Note_on_c, 2, 62, 0
4, 22020, Note_on_c, 2, 70, 102
4, 22020, Note_on_c, 2, 62, 102
4, 22049, Note_on_c, 2, 70, 0
4, 22049, Note_on_c, 2, 62, 0
4, 22050, Note_on_c, 2, 62, 102
4, 22050, Note_on_c, 2, 70, 102
4, 22079, Note_on_c, 2, 62, 0
4, 22079, Note_on_c, 2, 70, 0
4, 22080, Note_on_c, 2, 62, 102
4, 22080, Note_on_c, 2, 70, 102
4, 22109, Note_on_c, 2, 62, 0
4, 22109, Note_on_c, 2, 70, 0
4, 22110, Note_on_c, 2, 62, 102
4, 22110, Note_on_c, 2, 70, 102
4, 22139, Note_on_c, 2, 62, 0
4, 22139, Note_on_c, 2, 70, 0
4, 22140, Note_on_c, 2, 70, 102
4, 22140, Note_on_c, 2, 62, 102
4, 22169, Note_on_c, 2, 70, 0
4, 22169, Note_on_c, 2, 62, 0
4, 22170, Note_on_c, 2, 70, 102
4, 22170, Note_on_c, 2, 62, 102
4, 22199, Note_on_c, 2, 70, 0
4, 22199, Note_on_c, 2, 62, 0
4, 22200, Note_on_c, 2, 62, 102
4, 22200, Note_on_c, 2, 70, 102
4, 22229, Note_on_c, 2, 62, 0
4, 22229, Note_on_c, 2, 70, 0
4, 22230, Note_on_c, 2, 62, 102
4, 22230, Note_on_c, 2, 70, 102
4, 22259, Note_on_c, 2, 62, 0
4, 22259, Note_on_c, 2, 70, 0
4, 22260, Note_on_c, 2, 62, 102
4, 22260, Note_on_c, 2, 70, 102
4, 22289, Note_on_c, 2, 62, 0
4, 22289, Note_on_c, 2, 70, 0
4, 22290, Note_on_c, 2, 62, 102
4, 22290, Note_on_c, 2, 70, 102
4, 22319, Note_on_c, 2, 62, 0
4, 22319, Note_on_c, 2, 70, 0
4, 22320, Note_on_c, 2, 70, 102
4, 22320, Note_on_c, 2, 62, 102
4, 22349, Note_on_c, 2, 70, 0
4, 22349, Note_on_c, 2, 62, 0
4, 22350, Note_on_c, 2, 62, 102
4, 22350, Note_on_c, 2, 70, 102
4, 22379, Note_on_c, 2, 62, 0
4, 22379, Note_on_c, 2, 70, 0
4, 22380, Note_on_c, 2, 62, 102
4, 22380, Note_on_c, 2, 70, 102
4, 22409, Note_on_c, 2, 62, 0
4, 22409, Note_on_c, 2, 70, 0
4, 22410, Note_on_c, 2, 62, 102
4, 22410, Note_on_c, 2, 70, 102
4, 22439, Note_on_c, 2, 62, 0
4, 22439, Note_on_c, 2, 70, 0
4, 22440, Note_on_c, 2, 62, 102
4, 22440, Note_on_c, 2, 70, 102
4, 22469, Note_on_c, 2, 62, 0
4, 22469, Note_on_c, 2, 70, 0
4, 22470, Note_on_c, 2, 70, 102
4, 22470, Note_on_c, 2, 62, 102
4, 22499, Note_on_c, 2, 70, 0
4, 22499, Note_on_c, 2, 62, 0
4, 22500, Note_on_c, 2, 70, 102
4, 22500, Note_on_c, 2, 62, 102
4, 22529, Note_on_c, 2, 70, 0
4, 22529, Note_on_c, 2, 62, 0
4, 22530, Note_on_c, 2, 70, 102
4, 22530, Note_on_c, 2, 62, 102
4, 22559, Note_on_c, 2, 70, 0
4, 22559, Note_on_c, 2, 62, 0
4, 22560, Note_on_c, 2, 62, 102
4, 22560, Note_on_c, 2, 70, 102
4, 22589, Note_on_c, 2, 62, 0
4, 22589, Note_on_c, 2, 70, 0
4, 22590, Note_on_c, 2, 70, 102
4, 22590, Note_on_c, 2, 62, 102
4, 22619, Note_on_c, 2, 70, 0
4, 22619, Note_on_c, 2, 62, 0
4, 22620, Note_on_c, 2, 70, 102
4, 22620, Note_on_c, 2, 62, 102
4, 22649, Note_on_c, 2, 70, 0
4, 22649, Note_on_c, 2, 62, 0
4, 22650, Note_on_c, 2, 70, 102
4, 22650, Note_on_c, 2, 62, 102
4, 22679, Note_on_c, 2, 70, 0
4, 22679, Note_on_c, 2, 62, 0
4, 22680, Note_on_c, 2, 70, 102
4, 22680, Note_on_c, 2, 62, 102
4, 22709, Note_on_c, 2, 70, 0
4, 22709, Note_on_c, 2, 62, 0
4, 22710, Note_on_c, 2, 62, 102
4, 22710, Note_on_c, 2, 70, 102
4, 22739, Note_on_c, 2, 62, 0
4, 22739, Note_on_c, 2, 70, 0
4, 22740, Note_on_c, 2, 62, 102
4, 22740, Note_on_c, 2, 70, 102
4, 22769, Note_on_c, 2, 62, 0
4, 22769, Note_on_c, 2, 70, 0
4, 22770, Note_on_c, 2, 62, 102
4, 22770, Note_on_c, 2, 70, 102
4, 22799, Note_on_c, 2, 62, 0
4, 22799, Note_on_c, 2, 70, 0
4, 22800, Note_on_c, 2, 70, 102
4, 22800, Note_on_c, 2, 62, 102
4, 22829, Note_on_c, 2, 70, 0
4, 22829, Note_on_c, 2, 62, 0
4, 22830, Note_on_c, 2, 70, 102
4, 22830, Note_on_c, 2, 62, 102
4, 22859, Note_on_c, 2, 70, 0
4, 22859, Note_on_c, 2, 62, 0
4, 22860, Note_on_c, 2, 70, 102
4, 22860, Note_on_c, 2, 62, 102
4, 22889, Note_on_c, 2, 70, 0
4, 22889, Note_on_c, 2, 62, 0
4, 22890, Note_on_c, 2, 62, 102
4, 22890, Note_on_c, 2, 70, 102
4, 22919, Note_on_c, 2, 62, 0
4, 22919, Note_on_c, 2, 70, 0
4, 22920, Note_on_c, 2, 70, 102
4, 22920, Note_on_c, 2, 62, 102
4, 22949, Note_on_c, 2, 70, 0
4, 22949, Note_on_c, 2, 62, 0
4, 22950, Note_on_c, 2, 62, 102
4, 22950, Note_on_c, 2, 70, 102
4, 22979, Note_on_c, 2, 62, 0
4, 22979, Note_on_c, 2, 70, 0
4, 22980, Note_on_c, 2, 62, 102
4, 22980, Note_on_c, 2, 70, 102
4, 23009, Note_on_c, 2, 62, 0
4, 23009, Note_on_c, 2, 70, 0
4, 23010, Note_on_c, 2, 62, 102
4, 23010, Note_on_c, 2, 70, 102
4, 23039, Note_on_c, 2, 62, 0
4, 23039, Note_on_c, 2, 70, 0
4, 23040, Note_on_c, 2, 70, 102
4, 23040, Note_on_c, 2, 62, 102
4, 23069, Note_on_c, 2, 70, 0
4, 23069, Note_on_c, 2, 62, 0
4, 23070, Note_on_c, 2, 70, 102
4, 23070, Note_on_c, 2, 62, 102
4, 23099, Note_on_c, 2, 70, 0
4, 23099, Note_on_c, 2, 62, 0
4, 23100, Note_on_c, 2, 70, 102
4, 23100, Note_on_c, 2, 62, 102
4, 23129, Note_on_c, 2, 70, 0
4, 23129, Note_on_c, 2, 62, 0
4, 23130, Note_on_c, 2, 70, 102
4, 23130, Note_on_c, 2, 62, 102
4, 23159, Note_on_c, 2, 70, 0
4, 23159, Note_on_c, 2, 62, 0
4, 23160, Note_on_c, 2, 70, 102
4, 23160, Note_on_c, 2, 62, 102
4, 23189, Note_on_c, 2, 70, 0
4, 23189, Note_on_c, 2, 62, 0
4, 23190, Note_on_c, 2, 70, 102
4, 23190, Note_on_c, 2, 62, 102
4, 23219, Note_on_c, 2, 70, 0
4, 23219, Note_on_c, 2, 62, 0
4, 23220, Note_on_c, 2, 70, 102
4, 23220, Note_on_c, 2, 62, 102
4, 23249, Note_on_c, 2, 70, 0
4, 23249, Note_on_c, 2, 62, 0
4, 23250, Note_on_c, 2, 70, 102
4, 23250, Note_on_c, 2, 62, 102
4, 23279, Note_on_c, 2, 70, 0
4, 23279, Note_on_c, 2, 62, 0
4, 23280, Note_on_c, 2, 63, 127
4, 23280, Note_on_c, 2, 72, 127
4, 23330, Note_on_c, 2, 63, 0
4, 23330, Note_on_c, 2, 72, 0
4, 23400, Note_on_c, 2, 69, 127
4, 23400, Note_on_c, 2, 63, 127
4, 23450, Note_on_c, 2, 69, 0
4, 23450, Note_on_c, 2, 63, 0
4, 23520, Note_on_c, 2, 70, 102
4, 23520, Note_on_c, 2, 62, 102
4, 23549, Note_on_c, 2, 70, 0
4, 23549, Note_on_c, 2, 62, 0
4, 23550, Note_on_c, 2, 82, 102
4, 23579, Note_on_c, 2, 82, 0
4, 23580, Note_on_c, 2, 82, 102
4, 23609, Note_on_c, 2, 82, 0
4, 23610, Note_on_c, 2, 82, 102
4, 23639, Note_on_c, 2, 82, 0
4, 23640, Note_on_c, 2, 82, 102
4, 23669, Note_on_c, 2, 82, 0
4, 23670, Note_on_c, 2, 82, 102
4, 23699, Note_on_c, 2, 82, 0
4, 23700, Note_on_c, 2, 82, 102
4, 23729, Note_on_c, 2, 82, 0
4, 23730, Note_on_c, 2, 82, 102
4, 23759, Note_on_c, 2, 82, 0
4, 23760, Note_on_c, 2, 82, 102
4, 23789, Note_on_c, 2, 82, 0
4, 23790, Note_on_c, 2, 82, 102
4, 23819, Note_on_c, 2, 82, 0
4, 23820, Note_on_c, 2, 82, 102
4, 23849, Note_on_c, 2, 82, 0
4, 23850, Note_on_c, 2, 82, 102
4, 23879, Note_on_c, 2, 82, 0
4, 23880, Note_on_c, 2, 82, 102
4, 23909, Note_on_c, 2, 82, 0
4, 23910, Note_on_c, 2, 82, 102
4, 23939, Note_on_c, 2, 82, 0
4, 23940, Note_on_c, 2, 82, 102
4, 23969, Note_on_c, 2, 82, 0
4, 23970, Note_on_c, 2, 82, 102
4, 23999, Note_on_c, 2, 82, 0
4, 24000, Note_on_c, 2, 82, 102
4, 24029, Note_on_c, 2, 82, 0
4, 24030, Note_on_c, 2, 82, 102
4, 24059, Note_on_c, 2, 82, 0
4, 24060, Note_on_c, 2, 82, 102
4, 24089, Note_on_c, 2, 82, 0
4, 24090, Note_on_c, 2, 82, 102
4, 24119, Note_on_c, 2, 82, 0
4, 24120, Note_on_c, 2, 82, 102
4, 24149, Note_on_c, 2, 82, 0
4, 24150, Note_on_c, 2, 82, 102
4, 24179, Note_on_c, 2, 82, 0
4, 24180, Note_on_c, 2, 82, 102
4, 24209, Note_on_c, 2, 82, 0
4, 24210, Note_on_c, 2, 82, 102
4, 24239, Note_on_c, 2, 82, 0
4, 24240, Note_on_c, 2, 82, 102
4, 24269, Note_on_c, 2, 82, 0
4, 24270, Note_on_c, 2, 82, 102
4, 24299, Note_on_c, 2, 82, 0
4, 24300, Note_on_c, 2, 82, 102
4, 24329, Note_on_c, 2, 82, 0
4, 24330, Note_on_c, 2, 82, 102
4, 24359, Note_on_c, 2, 82, 0
4, 24360, Note_on_c, 2, 82, 102
4, 24389, Note_on_c, 2, 82, 0
4, 24390, Note_on_c, 2, 82, 102
4, 24419, Note_on_c, 2, 82, 0
4, 24420, Note_on_c, 2, 82, 102
4, 24449, Note_on_c, 2, 82, 0
4, 24450, Note_on_c, 2, 82, 102
4, 24479, Note_on_c, 2, 82, 0
4, 24480, Note_on_c, 2, 82, 102
4, 24509, Note_on_c, 2, 82, 0
4, 24510, Note_on_c, 2, 82, 102
4, 24539, Note_on_c, 2, 82, 0
4, 24540, Note_on_c, 2, 82, 102
4, 24569, Note_on_c, 2, 82, 0
4, 24570, Note_on_c, 2, 82, 102
4, 24599, Note_on_c, 2, 82, 0
4, 24600, Note_on_c, 2, 82, 102
4, 24629, Note_on_c, 2, 82, 0
4, 24630, Note_on_c, 2, 82, 102
4, 24659, Note_on_c, 2, 82, 0
4, 24660, Note_on_c, 2, 82, 102
4, 24689, Note_on_c, 2, 82, 0
4, 24690, Note_on_c, 2, 82, 102
4, 24719, Note_on_c, 2, 82, 0
4, 24720, Note_on_c, 2, 82, 102
4, 24749, Note_on_c, 2, 82, 0
4, 24750, Note_on_c, 2, 82, 102
4, 24779, Note_on_c, 2, 82, 0
4, 24780, Note_on_c, 2, 82, 102
4, 24809, Note_on_c, 2, 82, 0
4, 24810, Note_on_c, 2, 82, 102
4, 24839, Note_on_c, 2, 82, 0
4, 24840, Note_on_c, 2, 82, 102
4, 24869, Note_on_c, 2, 82, 0
4, 24870, Note_on_c, 2, 82, 102
4, 24899, Note_on_c, 2, 82, 0
4, 24900, Note_on_c, 2, 82, 102
4, 24929, Note_on_c, 2, 82, 0
4, 24930, Note_on_c, 2, 82, 102
4, 24959, Note_on_c, 2, 82, 0
4, 24960, Note_on_c, 2, 82, 102
4, 24989, Note_on_c, 2, 82, 0
4, 24990, Note_on_c, 2, 82, 102
4, 25019, Note_on_c, 2, 82, 0
4, 25020, Note_on_c, 2, 82, 102
4, 25049, Note_on_c, 2, 82, 0
4, 25050, Note_on_c, 2, 82, 102
4, 25079, Note_on_c, 2, 82, 0
4, 25080, Note_on_c, 2, 82, 102
4, 25109, Note_on_c, 2, 82, 0
4, 25110, Note_on_c, 2, 82, 102
4, 25139, Note_on_c, 2, 82, 0
4, 25140, Note_on_c, 2, 82, 102
4, 25169, Note_on_c, 2, 82, 0
4, 25170, Note_on_c, 2, 82, 102
4, 25199, Note_on_c, 2, 82, 0
4, 25200, Note_on_c, 2, 84, 127
4, 25250, Note_on_c, 2, 84, 0
4, 25320, Note_on_c, 2, 81, 127
4, 25370, Note_on_c, 2, 81, 0
4, 25440, Note_on_c, 2, 82, 127
4, 25489, Note_on_c, 2, 82, 0
4, 25560, Note_on_c, 2, 77, 64
4, 25619, Note_on_c, 2, 77, 0
4, 25680, Note_on_c, 2, 74, 64
4, 25739, Note_on_c, 2, 74, 0
4, 25800, Note_on_c, 2, 77, 64
4, 25859, Note_on_c, 2, 77, 0
4, 25920, Note_on_c, 2, 74, 64
4, 25979, Note_on_c, 2, 74, 0
4, 26040, Note_on_c, 2, 63, 127
4, 26054, Note_on_c, 2, 63, 0
4, 26055, Note_on_c, 2, 62, 127
4, 26069, Note_on_c, 2, 62, 0
4, 26070, Note_on_c, 2, 63, 127
4, 26084, Note_on_c, 2, 63, 0
4, 26085, Note_on_c, 2, 62, 127
4, 26099, Note_on_c, 2, 62, 0
4, 26100, Note_on_c, 2, 63, 127
4, 26114, Note_on_c, 2, 63, 0
4, 26115, Note_on_c, 2, 62, 127
4, 26129, Note_on_c, 2, 62, 0
4, 26130, Note_on_c, 2, 60, 127
4, 26144, Note_on_c, 2, 60, 0
4, 26145, Note_on_c, 2, 62, 127
4, 26159, Note_on_c, 2, 62, 0
4, 26160, Note_on_c, 2, 63, 127
4, 26220, Note_on_c, 2, 63, 0
4, 26280, Note_on_c, 2, 65, 127
4, 26340, Note_on_c, 2, 65, 0
4, 26400, Note_on_c, 2, 67, 127
4, 26430, Note_on_c, 2, 67, 0
4, 26520, Note_on_c, 2, 77, 70
4, 26579, Note_on_c, 2, 77, 0
4, 26640, Note_on_c, 2, 74, 70
4, 26699, Note_on_c, 2, 74, 0
4, 26760, Note_on_c, 2, 77, 70
4, 26819, Note_on_c, 2, 77, 0
4, 26880, Note_on_c, 2, 74, 70
4, 26939, Note_on_c, 2, 74, 0
4, 27000, Note_on_c, 2, 63, 127
4, 27014, Note_on_c, 2, 63, 0
4, 27015, Note_on_c, 2, 62, 127
4, 27029, Note_on_c, 2, 62, 0
4, 27030, Note_on_c, 2, 63, 127
4, 27044, Note_on_c, 2, 63, 0
4, 27045, Note_on_c, 2, 62, 127
4, 27059, Note_on_c, 2, 62, 0
4, 27060, Note_on_c, 2, 63, 127
4, 27074, Note_on_c, 2, 63, 0
4, 27075, Note_on_c, 2, 62, 127
4, 27089, Note_on_c, 2, 62, 0
4, 27090, Note_on_c, 2, 60, 127
4, 27104, Note_on_c, 2, 60, 0
4, 27105, Note_on_c, 2, 62, 127
4, 27119, Note_on_c, 2, 62, 0
4, 27120, Note_on_c, 2, 63, 127
4, 27180, Note_on_c, 2, 63, 0
4, 27240, Note_on_c, 2, 65, 127
4, 27300, Note_on_c, 2, 65, 0
4, 27360, Note_on_c, 2, 70, 127
4, 27360, Note_on_c, 2, 62, 127
4, 27420, Note_on_c, 2, 70, 0
4, 27420, Note_on_c, 2, 62, 0
4, 27600, Note_on_c, 2, 70, 127
4, 27600, Note_on_c, 2, 62, 127
4, 27719, Note_on_c, 2, 70, 0
4, 27719, Note_on_c, 2, 62, 0
4, 27720, Note_on_c, 2, 70, 127
4, 27720, Note_on_c, 2, 62, 127
4, 27839, Note_on_c, 2, 70, 0
4, 27839, Note_on_c, 2, 62, 0
4, 27840, Note_on_c, 2, 70, 127
4, 27840, Note_on_c, 2, 62, 127
4, 27959, Note_on_c, 2, 70, 0
4, 27959, Note_on_c, 2, 62, 0
4, 27960, Note_on_c, 2, 70, 127
4, 27960, Note_on_c, 2, 62, 127
4, 28079, Note_on_c, 2, 70, 0
4, 28079, Note_on_c, 2, 62, 0
4, 28080, Note_on_c, 2, 70, 127
4, 28080, Note_on_c, 2, 62, 127
4, 28199, Note_on_c, 2, 70, 0
4, 28199, Note_on_c, 2, 62, 0
4, 28320, Note_on_c, 2, 75, 127
4, 28535, Note_on_c, 2, 75, 0
4, 28560, Note_on_c, 2, 79, 127
4, 28775, Note_on_c, 2, 79, 0
4, 28800, Note_on_c, 2, 82, 127
4, 28844, Note_on_c, 2, 82, 0
4, 28860, Note_on_c, 2, 82, 127
4, 28904, Note_on_c, 2, 82, 0
4, 28920, Note_on_c, 2, 82, 127
4, 28964, Note_on_c, 2, 82, 0
4, 28980, Note_on_c, 2, 82, 127
4, 29024, Note_on_c, 2, 82, 0
4, 29040, Note_on_c, 2, 82, 127
4, 29084, Note_on_c, 2, 82, 0
4, 29100, Note_on_c, 2, 82, 127
4, 29144, Note_on_c, 2, 82, 0
4, 29160, Note_on_c, 2, 82, 127
4, 29204, Note_on_c, 2, 82, 0
4, 29220, Note_on_c, 2, 82, 127
4, 29264, Note_on_c, 2, 82, 0
4, 29280, Note_on_c, 2, 79, 127
4, 29333, Note_on_c, 2, 79, 0
4, 29400, Note_on_c, 2, 75, 127
4, 29453, Note_on_c, 2, 75, 0
4, 29760, Note_on_c, 2, 70, 45
4, 29760, Note_on_c, 2, 67, 45
4, 30239, Note_on_c, 2, 70, 0
4, 30239, Note_on_c, 2, 67, 0
4, 30240, Note_on_c, 2, 68, 45
4, 30240, Note_on_c, 2, 60, 45
4, 30719, Note_on_c, 2, 68, 0
4, 30719, Note_on_c, 2, 60, 0
4, 30720, Note_on_c, 2, 68, 45
4, 30720, Note_on_c, 2, 58, 45
4, 31199, Note_on_c, 2, 68, 0
4, 31199, Note_on_c, 2, 58, 0
4, 31200, Note_on_c, 2, 58, 45
4, 31200, Note_on_c, 2, 67, 45
4, 31679, Note_on_c, 2, 58, 0
4, 31679, Note_on_c, 2, 67, 0
4, 31680, Note_on_c, 2, 58, 45
4, 31680, Note_on_c, 2, 67, 45
4, 32159, Note_on_c, 2, 58, 0
4, 32159, Note_on_c, 2, 67, 0
4, 32160, Note_on_c, 2, 56, 45
4, 32160, Note_on_c, 2, 65, 45
4, 32639, Note_on_c, 2, 56, 0
4, 32639, Note_on_c, 2, 65, 0
4, 32640, Note_on_c, 2, 56, 45
4, 32640, Note_on_c, 2, 65, 45
4, 33119, Note_on_c, 2, 56, 0
4, 33119, Note_on_c, 2, 65, 0
4, 33120, Note_on_c, 2, 63, 45
4, 33120, Note_on_c, 2, 55, 45
4, 33239, Note_on_c, 2, 63, 0
4, 33239, Note_on_c, 2, 55, 0
4, 33600, Note_on_c, 2, 75, 127
4, 33797, Note_on_c, 2, 75, 0
4, 33840, Note_on_c, 2, 79, 127
4, 34037, Note_on_c, 2, 79, 0
4, 34080, Note_on_c, 2, 82, 127
4, 34139, Note_on_c, 2, 82, 0
4, 34140, Note_on_c, 2, 82, 127
4, 34199, Note_on_c, 2, 82, 0
4, 34200, Note_on_c, 2, 82, 127
4, 34259, Note_on_c, 2, 82, 0
4, 34260, Note_on_c, 2, 82, 127
4, 34319, Note_on_c, 2, 82, 0
4, 34320, Note_on_c, 2, 82, 127
4, 34379, Note_on_c, 2, 82, 0
4, 34380, Note_on_c, 2, 82, 127
4, 34439, Note_on_c, 2, 82, 0
4, 34440, Note_on_c, 2, 82, 127
4, 34499, Note_on_c, 2, 82, 0
4, 34500, Note_on_c, 2, 82, 127
4, 34559, Note_on_c, 2, 82, 0
4, 34560, Note_on_c, 2, 79, 127
4, 34631, Note_on_c, 2, 79, 0
4, 34680, Note_on_c, 2, 75, 127
4, 34751, Note_on_c, 2, 75, 0
4, 35040, Note_on_c, 2, 70, 45
4, 35040, Note_on_c, 2, 67, 45
4, 35519, Note_on_c, 2, 70, 0
4, 35519, Note_on_c, 2, 67, 0
4, 35520, Note_on_c, 2, 68, 45
4, 35520, Note_on_c, 2, 60, 45
4, 35999, Note_on_c, 2, 68, 0
4, 35999, Note_on_c, 2, 60, 0
4, 36000, Note_on_c, 2, 68, 45
4, 36000, Note_on_c, 2, 58, 45
4, 36479, Note_on_c, 2, 68, 0
4, 36479, Note_on_c, 2, 58, 0
4, 36480, Note_on_c, 2, 58, 45
4, 36480, Note_on_c, 2, 67, 45
4, 36959, Note_on_c, 2, 58, 0
4, 36959, Note_on_c, 2, 67, 0
4, 36960, Note_on_c, 2, 58, 45
4, 36960, Note_on_c, 2, 67, 45
4, 37439, Note_on_c, 2, 58, 0
4, 37439, Note_on_c, 2, 67, 0
4, 37440, Note_on_c, 2, 65, 45
4, 37440, Note_on_c, 2, 56, 45
4, 37919, Note_on_c, 2, 65, 0
4, 37919, Note_on_c, 2, 56, 0
4, 37920, Note_on_c, 2, 56, 45
4, 37920, Note_on_c, 2, 65, 45
4, 38399, Note_on_c, 2, 56, 0
4, 38399, Note_on_c, 2, 65, 0
4, 38400, Note_on_c, 2, 55, 45
4, 38400, Note_on_c, 2, 63, 45
4, 38519, Note_on_c, 2, 55, 0
4, 38519, Note_on_c, 2, 63, 0
4, 38880, Note_on_c, 2, 55, 127
4, 38880, Note_on_c, 2, 63, 127
4, 38999, Note_on_c, 2, 55, 0
4, 38999, Note_on_c, 2, 63, 0
4, 39300, Note_on_c, 2, 70, 124
4, 39314, Note_on_c, 2, 70, 0
4, 39315, Note_on_c, 2, 68, 124
4, 39329, Note_on_c, 2, 68, 0
4, 39330, Note_on_c, 2, 67, 127
4, 39344, Note_on_c, 2, 67, 0
4, 39345, Note_on_c, 2, 65, 127
4, 39359, Note_on_c, 2, 65, 0
4, 39360, Note_on_c, 2, 63, 127
4, 39419, Note_on_c, 2, 63, 0
4, 39480, Note_on_c, 2, 67, 127
4, 39539, Note_on_c, 2, 67, 0
4, 39600, Note_on_c, 2, 70, 127
4, 39659, Note_on_c, 2, 70, 0
4, 39720, Note_on_c, 2, 75, 127
4, 39779, Note_on_c, 2, 75, 0
4, 39840, Note_on_c, 2, 68, 127
4, 39869, Note_on_c, 2, 68, 0
4, 39870, Note_on_c, 2, 67, 127
4, 39899, Note_on_c, 2, 67, 0
4, 39900, Note_on_c, 2, 65, 127
4, 39929, Note_on_c, 2, 65, 0
4, 39930, Note_on_c, 2, 67, 127
4, 39959, Note_on_c, 2, 67, 0
4, 39960, Note_on_c, 2, 65, 127
4, 40079, Note_on_c, 2, 65, 0
4, 40260, Note_on_c, 2, 68, 127
4, 40274, Note_on_c, 2, 68, 0
4, 40275, Note_on_c, 2, 67, 127
4, 40289, Note_on_c, 2, 67, 0
4, 40290, Note_on_c, 2, 65, 127
4, 40304, Note_on_c, 2, 65, 0
4, 40305, Note_on_c, 2, 63, 127
4, 40319, Note_on_c, 2, 63, 0
4, 40320, Note_on_c, 2, 62, 127
4, 40379, Note_on_c, 2, 62, 0
4, 40440, Note_on_c, 2, 68, 127
4, 40499, Note_on_c, 2, 68, 0
4, 40560, Note_on_c, 2, 74, 127
4, 40619, Note_on_c, 2, 74, 0
4, 40680, Note_on_c, 2, 77, 127
4, 40739, Note_on_c, 2, 77, 0
4, 40800, Note_on_c, 2, 70, 127
4, 40829, Note_on_c, 2, 70, 0
4, 40830, Note_on_c, 2, 68, 127
4, 40859, Note_on_c, 2, 68, 0
4, 40860, Note_on_c, 2, 67, 127
4, 40889, Note_on_c, 2, 67, 0
4, 40890, Note_on_c, 2, 68, 127
4, 40919, Note_on_c, 2, 68, 0
4, 40920, Note_on_c, 2, 67, 127
4, 41039, Note_on_c, 2, 67, 0
4, 41220, Note_on_c, 2, 70, 127
4, 41234, Note_on_c, 2, 70, 0
4, 41235, Note_on_c, 2, 68, 127
4, 41249, Note_on_c, 2, 68, 0
4, 41250, Note_on_c, 2, 67, 127
4, 41264, Note_on_c, 2, 67, 0
4, 41265, Note_on_c, 2, 65, 127
4, 41279, Note_on_c, 2, 65, 0
4, 41280, Note_on_c, 2, 63, 127
4, 41339, Note_on_c, 2, 63, 0
4, 41400, Note_on_c, 2, 70, 127
4, 41459, Note_on_c, 2, 70, 0
4, 41520, Note_on_c, 2, 75, 127
4, 41579, Note_on_c, 2, 75, 0
4, 41640, Note_on_c, 2, 79, 127
4, 41699, Note_on_c, 2, 79, 0
4, 41760, Note_on_c, 2, 77, 127
4, 41879, Note_on_c, 2, 77, 0
4, 41880, Note_on_c, 2, 82, 127
4, 41999, Note_on_c, 2, 82, 0
4, 42000, Note_on_c, 2, 82, 127
4, 42119, Note_on_c, 2, 82, 0
4, 42120, Note_on_c, 2, 82, 127
4, 42239, Note_on_c, 2, 82, 0
4, 42240, Note_on_c, 2, 82, 127
4, 42479, Note_on_c, 2, 82, 0
4, 42720, Note_on_c, 2, 77, 76
4, 42959, Note_on_c, 2, 77, 0
4, 42960, Note_on_c, 2, 79, 76
4, 43049, Note_on_c, 2, 79, 0
4, 43050, Note_on_c, 2, 77, 76
4, 43079, Note_on_c, 2, 77, 0
4, 43080, Note_on_c, 2, 76, 76
4, 43169, Note_on_c, 2, 76, 0
4, 43170, Note_on_c, 2, 77, 76
4, 43199, Note_on_c, 2, 77, 0
4, 43200, Note_on_c, 2, 77, 76
4, 44159, Note_on_c, 2, 77, 0
4, 44220, Note_on_c, 2, 82, 76
4, 44279, Note_on_c, 2, 82, 0
4, 44280, Note_on_c, 2, 81, 76
4, 44339, Note_on_c, 2, 81, 0
4, 44340, Note_on_c, 2, 79, 76
4, 44399, Note_on_c, 2, 79, 0
4, 44400, Note_on_c, 2, 77, 76
4, 44459, Note_on_c, 2, 77, 0
4, 44460, Note_on_c, 2, 75, 76
4, 44519, Note_on_c, 2, 75, 0
4, 44520, Note_on_c, 2, 74, 76
4, 44579, Note_on_c, 2, 74, 0
4, 44580, Note_on_c, 2, 72, 74
4, 44639, Note_on_c, 2, 72, 0
4, 44640, Note_on_c, 2, 70, 127
4, 44699, Note_on_c, 2, 70, 0
4, 44700, Note_on_c, 2, 70, 127
4, 44819, Note_on_c, 2, 70, 0
4, 44820, Note_on_c, 2, 70, 127
4, 44939, Note_on_c, 2, 70, 0
4, 44940, Note_on_c, 2, 70, 127
4, 45059, Note_on_c, 2, 70, 0
4, 45060, Note_on_c, 2, 70, 127
4, 45119, Note_on_c, 2, 70, 0
4, 45120, Note_on_c, 2, 70, 127
4, 45179, Note_on_c, 2, 70, 0
4, 45180, Note_on_c, 2, 74, 127
4, 45299, Note_on_c, 2, 74, 0
4, 45300, Note_on_c, 2, 74, 127
4, 45419, Note_on_c, 2, 74, 0
4, 45420, Note_on_c, 2, 74, 127
4, 45539, Note_on_c, 2, 74, 0
4, 45540, Note_on_c, 2, 74, 127
4, 45599, Note_on_c, 2, 74, 0
4, 45600, Note_on_c, 2, 74, 127
4, 45719, Note_on_c, 2, 74, 0
4, 45780, Note_on_c, 2, 70, 127
4, 45839, Note_on_c, 2, 70, 0
4, 45840, Note_on_c, 2, 77, 127
4, 45899, Note_on_c, 2, 77, 0
4, 45900, Note_on_c, 2, 74, 127
4, 45959, Note_on_c, 2, 74, 0
4, 45960, Note_on_c, 2, 72, 127
4, 45995, Note_on_c, 2, 72, 0
4, 46020, Note_on_c, 2, 70, 127
4, 46055, Note_on_c, 2, 70, 0
4, 46080, Note_on_c, 2, 70, 127
4, 46169, Note_on_c, 2, 70, 0
4, 46170, Note_on_c, 2, 72, 127
4, 46199, Note_on_c, 2, 72, 0
4, 46200, Note_on_c, 2, 70, 127
4, 46259, Note_on_c, 2, 70, 0
4, 46260, Note_on_c, 2, 70, 127
4, 46319, Note_on_c, 2, 70, 0
4, 46320, Note_on_c, 2, 79, 127
4, 46379, Note_on_c, 2, 79, 0
4, 46380, Note_on_c, 2, 75, 127
4, 46439, Note_on_c, 2, 75, 0
4, 46440, Note_on_c, 2, 72, 127
4, 46475, Note_on_c, 2, 72, 0
4, 46500, Note_on_c, 2, 70, 127
4, 46535, Note_on_c, 2, 70, 0
4, 46560, Note_on_c, 2, 70, 127
4, 46649, Note_on_c, 2, 70, 0
4, 46650, Note_on_c, 2, 72, 127
4, 46679, Note_on_c, 2, 72, 0
4, 46680, Note_on_c, 2, 70, 127
4, 46739, Note_on_c, 2, 70, 0
4, 46740, Note_on_c, 2, 70, 127
4, 46799, Note_on_c, 2, 70, 0
4, 46800, Note_on_c, 2, 77, 127
4, 46859, Note_on_c, 2, 77, 0
4, 46860, Note_on_c, 2, 74, 127
4, 46919, Note_on_c, 2, 74, 0
4, 46920, Note_on_c, 2, 72, 127
4, 46955, Note_on_c, 2, 72, 0
4, 46980, Note_on_c, 2, 70, 127
4, 47015, Note_on_c, 2, 70, 0
4, 47040, Note_on_c, 2, 67, 127
4, 47210, Note_on_c, 2, 67, 0
4, 47220, Note_on_c, 2, 79, 127
4, 47255, Note_on_c, 2, 79, 0
4, 47280, Note_on_c, 2, 77, 127
4, 47315, Note_on_c, 2, 77, 0
4, 47340, Note_on_c, 2, 75, 127
4, 47375, Note_on_c, 2, 75, 0
4, 47400, Note_on_c, 2, 74, 127
4, 47435, Note_on_c, 2, 74, 0
4, 47460, Note_on_c, 2, 72, 127
4, 47495, Note_on_c, 2, 72, 0
4, 47520, Note_on_c, 2, 70, 127
4, 47639, Note_on_c, 2, 70, 0
4, 47700, Note_on_c, 2, 70, 127
4, 47759, Note_on_c, 2, 70, 0
4, 47760, Note_on_c, 2, 77, 127
4, 47819, Note_on_c, 2, 77, 0
4, 47820, Note_on_c, 2, 74, 127
4, 47879, Note_on_c, 2, 74, 0
4, 47880, Note_on_c, 2, 72, 127
4, 47915, Note_on_c, 2, 72, 0
4, 47940, Note_on_c, 2, 70, 127
4, 47975, Note_on_c, 2, 70, 0
4, 48000, Note_on_c, 2, 70, 127
4, 48089, Note_on_c, 2, 70, 0
4, 48090, Note_on_c, 2, 72, 127
4, 48119, Note_on_c, 2, 72, 0
4, 48120, Note_on_c, 2, 70, 127
4, 48179, Note_on_c, 2, 70, 0
4, 48180, Note_on_c, 2, 70, 127
4, 48239, Note_on_c, 2, 70, 0
4, 48240, Note_on_c, 2, 79, 127
4, 48299, Note_on_c, 2, 79, 0
4, 48300, Note_on_c, 2, 75, 127
4, 48359, Note_on_c, 2, 75, 0
4, 48360, Note_on_c, 2, 72, 127
4, 48395, Note_on_c, 2, 72, 0
4, 48420, Note_on_c, 2, 70, 127
4, 48455, Note_on_c, 2, 70, 0
4, 48480, Note_on_c, 2, 70, 127
4, 48569, Note_on_c, 2, 70, 0
4, 48570, Note_on_c, 2, 72, 127
4, 48599, Note_on_c, 2, 72, 0
4, 48600, Note_on_c, 2, 70, 127
4, 48659, Note_on_c, 2, 70, 0
4, 48660, Note_on_c, 2, 70, 127
4, 48719, Note_on_c, 2, 70, 0
4, 48720, Note_on_c, 2, 77, 127
4, 48779, Note_on_c, 2, 77, 0
4, 48780, Note_on_c, 2, 74, 127
4, 48839, Note_on_c, 2, 74, 0
4, 48840, Note_on_c, 2, 72, 127
4, 48875, Note_on_c, 2, 72, 0
4, 48900, Note_on_c, 2, 70, 127
4, 48935, Note_on_c, 2, 70, 0
4, 48960, Note_on_c, 2, 67, 127
4, 49130, Note_on_c, 2, 67, 0
4, 49140, Note_on_c, 2, 79, 127
4, 49175, Note_on_c, 2, 79, 0
4, 49200, Note_on_c, 2, 77, 127
4, 49235, Note_on_c, 2, 77, 0
4, 49260, Note_on_c, 2, 75, 127
4, 49295, Note_on_c, 2, 75, 0
4, 49320, Note_on_c, 2, 74, 127
4, 49355, Note_on_c, 2, 74, 0
4, 49380, Note_on_c, 2, 72, 127
4, 49415, Note_on_c, 2, 72, 0
4, 49440, Note_on_c, 2, 70, 102
4, 49440, Note_on_c, 2, 62, 102
4, 49469, Note_on_c, 2, 70, 0
4, 49469, Note_on_c, 2, 62, 0
4, 49470, Note_on_c, 2, 70, 102
4, 49470, Note_on_c, 2, 62, 102
4, 49499, Note_on_c, 2, 70, 0
4, 49499, Note_on_c, 2, 62, 0
4, 49500, Note_on_c, 2, 70, 102
4, 49500, Note_on_c, 2, 62, 102
4, 49529, Note_on_c, 2, 70, 0
4, 49529, Note_on_c, 2, 62, 0
4, 49530, Note_on_c, 2, 70, 102
4, 49530, Note_on_c, 2, 62, 102
4, 49559, Note_on_c, 2, 70, 0
4, 49559, Note_on_c, 2, 62, 0
4, 49560, Note_on_c, 2, 62, 102
4, 49560, Note_on_c, 2, 70, 102
4, 49589, Note_on_c, 2, 62, 0
4, 49589, Note_on_c, 2, 70, 0
4, 49590, Note_on_c, 2, 70, 102
4, 49590, Note_on_c, 2, 62, 102
4, 49619, Note_on_c, 2, 70, 0
4, 49619, Note_on_c, 2, 62, 0
4, 49620, Note_on_c, 2, 62, 102
4, 49620, Note_on_c, 2, 70, 102
4, 49649, Note_on_c, 2, 62, 0
4, 49649, Note_on_c, 2, 70, 0
4, 49650, Note_on_c, 2, 70, 102
4, 49650, Note_on_c, 2, 62, 102
4, 49679, Note_on_c, 2, 70, 0
4, 49679, Note_on_c, 2, 62, 0
4, 49680, Note_on_c, 2, 62, 102
4, 49680, Note_on_c, 2, 70, 102
4, 49709, Note_on_c, 2, 62, 0
4, 49709, Note_on_c, 2, 70, 0
4, 49710, Note_on_c, 2, 62, 102
4, 49710, Note_on_c, 2, 70, 102
4, 49739, Note_on_c, 2, 62, 0
4, 49739, Note_on_c, 2, 70, 0
4, 49740, Note_on_c, 2, 62, 102
4, 49740, Note_on_c, 2, 70, 102
4, 49769, Note_on_c, 2, 62, 0
4, 49769, Note_on_c, 2, 70, 0
4, 49770, Note_on_c, 2, 62, 102
4, 49770, Note_on_c, 2, 70, 102
4, 49799, Note_on_c, 2, 62, 0
4, 49799, Note_on_c, 2, 70, 0
4, 49800, Note_on_c, 2, 62, 102
4, 49800, Note_on_c, 2, 70, 102
4, 49829, Note_on_c, 2, 62, 0
4, 49829, Note_on_c, 2, 70, 0
4, 49830, Note_on_c, 2, 70, 102
4, 49830, Note_on_c, 2, 62, 102
4, 49859, Note_on_c, 2, 70, 0
4, 49859, Note_on_c, 2, 62, 0
4, 49860, Note_on_c, 2, 70, 102
4, 49860, Note_on_c, 2, 62, 102
4, 49889, Note_on_c, 2, 70, 0
4, 49889, Note_on_c, 2, 62, 0
4, 49890, Note_on_c, 2, 62, 102
4, 49890, Note_on_c, 2, 70, 102
4, 49919, Note_on_c, 2, 62, 0
4, 49919, Note_on_c, 2, 70, 0
4, 49920, Note_on_c, 2, 62, 102
4, 49920, Note_on_c, 2, 70, 102
4, 49949, Note_on_c, 2, 62, 0
4, 49949, Note_on_c, 2, 70, 0
4, 49950, Note_on_c, 2, 62, 102
4, 49950, Note_on_c, 2, 70, 102
4, 49979, Note_on_c, 2, 62, 0
4, 49979, Note_on_c, 2, 70, 0
4, 49980, Note_on_c, 2, 70, 102
4, 49980, Note_on_c, 2, 62, 102
4, 50009, Note_on_c, 2, 70, 0
4, 50009, Note_on_c, 2, 62, 0
4, 50010, Note_on_c, 2, 70, 102
4, 50010, Note_on_c, 2, 62, 102
4, 50039, Note_on_c, 2, 70, 0
4, 50039, Note_on_c, 2, 62, 0
4, 50040, Note_on_c, 2, 62, 102
4, 50040, Note_on_c, 2, 70, 102
4, 50069, Note_on_c, 2, 62, 0
4, 50069, Note_on_c, 2, 70, 0
4, 50070, Note_on_c, 2, 62, 102
4, 50070, Note_on_c, 2, 70, 102
4, 50099, Note_on_c, 2, 62, 0
4, 50099, Note_on_c, 2, 70, 0
4, 50100, Note_on_c, 2, 62, 102
4, 50100, Note_on_c, 2, 70, 102
4, 50129, Note_on_c, 2, 62, 0
4, 50129, Note_on_c, 2, 70, 0
4, 50130, Note_on_c, 2, 62, 102
4, 50130, Note_on_c, 2, 70, 102
4, 50159, Note_on_c, 2, 62, 0
4, 50159, Note_on_c, 2, 70, 0
4, 50160, Note_on_c, 2, 70, 102
4, 50160, Note_on_c, 2, 62, 102
4, 50189, Note_on_c, 2, 70, 0
4, 50189, Note_on_c, 2, 62, 0
4, 50190, Note_on_c, 2, 62, 102
4, 50190, Note_on_c, 2, 70, 102
4, 50219, Note_on_c, 2, 62, 0
4, 50219, Note_on_c, 2, 70, 0
4, 50220, Note_on_c, 2, 62, 102
4, 50220, Note_on_c, 2, 70, 102
4, 50249, Note_on_c, 2, 62, 0
4, 50249, Note_on_c, 2, 70, 0
4, 50250, Note_on_c, 2, 62, 102
4, 50250, Note_on_c, 2, 70, 102
4, 50279, Note_on_c, 2, 62, 0
4, 50279, Note_on_c, 2, 70, 0
4, 50280, Note_on_c, 2, 62, 102
4, 50280, Note_on_c, 2, 70, 102
4, 50309, Note_on_c, 2, 62, 0
4, 50309, Note_on_c, 2, 70, 0
4, 50310, Note_on_c, 2, 70, 102
4, 50310, Note_on_c, 2, 62, 102
4, 50339, Note_on_c, 2, 70, 0
4, 50339, Note_on_c, 2, 62, 0
4, 50340, Note_on_c, 2, 70, 102
4, 50340, Note_on_c, 2, 62, 102
4, 50369, Note_on_c, 2, 70, 0
4, 50369, Note_on_c, 2, 62, 0
4, 50370, Note_on_c, 2, 70, 102
4, 50370, Note_on_c, 2, 62, 102
4, 50399, Note_on_c, 2, 70, 0
4, 50399, Note_on_c, 2, 62, 0
4, 50400, Note_on_c, 2, 62, 102
4, 50400, Note_on_c, 2, 70, 102
4, 50429, Note_on_c, 2, 62, 0
4, 50429, Note_on_c, 2, 70, 0
4, 50430, Note_on_c, 2, 70, 102
4, 50430, Note_on_c, 2, 62, 102
4, 50459, Note_on_c, 2, 70, 0
4, 50459, Note_on_c, 2, 62, 0
4, 50460, Note_on_c, 2, 70, 102
4, 50460, Note_on_c, 2, 62, 102
4, 50489, Note_on_c, 2, 70, 0
4, 50489, Note_on_c, 2, 62, 0
4, 50490, Note_on_c, 2, 70, 102
4, 50490, Note_on_c, 2, 62, 102
4, 50519, Note_on_c, 2, 70, 0
4, 50519, Note_on_c, 2, 62, 0
4, 50520, Note_on_c, 2, 70, 102
4, 50520, Note_on_c, 2, 62, 102
4, 50549, Note_on_c, 2, 70, 0
4, 50549, Note_on_c, 2, 62, 0
4, 50550, Note_on_c, 2, 62, 102
4, 50550, Note_on_c, 2, 70, 102
4, 50579, Note_on_c, 2, 62, 0
4, 50579, Note_on_c, 2, 70, 0
4, 50580, Note_on_c, 2, 62, 102
4, 50580, Note_on_c, 2, 70, 102
4, 50609, Note_on_c, 2, 62, 0
4, 50609, Note_on_c, 2, 70, 0
4, 50610, Note_on_c, 2, 62, 102
4, 50610, Note_on_c, 2, 70, 102
4, 50639, Note_on_c, 2, 62, 0
4, 50639, Note_on_c, 2, 70, 0
4, 50640, Note_on_c, 2, 70, 102
4, 50640, Note_on_c, 2, 62, 102
4, 50669, Note_on_c, 2, 70, 0
4, 50669, Note_on_c, 2, 62, 0
4, 50670, Note_on_c, 2, 70, 102
4, 50670, Note_on_c, 2, 62, 102
4, 50699, Note_on_c, 2, 70, 0
4, 50699, Note_on_c, 2, 62, 0
4, 50700, Note_on_c, 2, 70, 102
4, 50700, Note_on_c, 2, 62, 102
4, 50729, Note_on_c, 2, 70, 0
4, 50729, Note_on_c, 2, 62, 0
4, 50730, Note_on_c, 2, 62, 102
4, 50730, Note_on_c, 2, 70, 102
4, 50759, Note_on_c, 2, 62, 0
4, 50759, Note_on_c, 2, 70, 0
4, 50760, Note_on_c, 2, 70, 102
4, 50760, Note_on_c, 2, 62, 102
4, 50789, Note_on_c, 2, 70, 0
4, 50789, Note_on_c, 2, 62, 0
4, 50790, Note_on_c, 2, 62, 102
4, 50790, Note_on_c, 2, 70, 102
4, 50819, Note_on_c, 2, 62, 0
4, 50819, Note_on_c, 2, 70, 0
4, 50820, Note_on_c, 2, 62, 102
4, 50820, Note_on_c, 2, 70, 102
4, 50849, Note_on_c, 2, 62, 0
4, 50849, Note_on_c, 2, 70, 0
4, 50850, Note_on_c, 2, 62, 102
4, 50850, Note_on_c, 2, 70, 102
4, 50879, Note_on_c, 2, 62, 0
4, 50879, Note_on_c, 2, 70, 0
4, 50880, Note_on_c, 2, 70, 102
4, 50880, Note_on_c, 2, 62, 102
4, 50909, Note_on_c, 2, 70, 0
4, 50909, Note_on_c, 2, 62, 0
4, 50910, Note_on_c, 2, 70, 102
4, 50910, Note_on_c, 2, 62, 102
4, 50939, Note_on_c, 2, 70, 0
4, 50939, Note_on_c, 2, 62, 0
4, 50940, Note_on_c, 2, 70, 102
4, 50940, Note_on_c, 2, 62, 102
4, 50969, Note_on_c, 2, 70, 0
4, 50969, Note_on_c, 2, 62, 0
4, 50970, Note_on_c, 2, 70, 102
4, 50970, Note_on_c, 2, 62, 102
4, 50999, Note_on_c, 2, 70, 0
4, 50999, Note_on_c, 2, 62, 0
4, 51000, Note_on_c, 2, 70, 102
4, 51000, Note_on_c, 2, 62, 102
4, 51029, Note_on_c, 2, 70, 0
4, 51029, Note_on_c, 2, 62, 0
4, 51030, Note_on_c, 2, 70, 102
4, 51030, Note_on_c, 2, 62, 102
4, 51059, Note_on_c, 2, 70, 0
4, 51059, Note_on_c, 2, 62, 0
4, 51060, Note_on_c, 2, 70, 102
4, 51060, Note_on_c, 2, 62, 102
4, 51089, Note_on_c, 2, 70, 0
4, 51089, Note_on_c, 2, 62, 0
4, 51090, Note_on_c, 2, 70, 102
4, 51090, Note_on_c, 2, 62, 102
4, 51119, Note_on_c, 2, 70, 0
4, 51119, Note_on_c, 2, 62, 0
4, 51120, Note_on_c, 2, 63, 127
4, 51120, Note_on_c, 2, 72, 127
4, 51170, Note_on_c, 2, 63, 0
4, 51170, Note_on_c, 2, 72, 0
4, 51240, Note_on_c, 2, 69, 127
4, 51240, Note_on_c, 2, 63, 127
4, 51290, Note_on_c, 2, 69, 0
4, 51290, Note_on_c, 2, 63, 0
4, 51360, Note_on_c, 2, 70, 102
4, 51360, Note_on_c, 2, 62, 102
4, 51389, Note_on_c, 2, 70, 0
4, 51389, Note_on_c, 2, 62, 0
4, 51390, Note_on_c, 2, 82, 102
4, 51419, Note_on_c, 2, 82, 0
4, 51420, Note_on_c, 2, 82, 102
4, 51449, Note_on_c, 2, 82, 0
4, 51450, Note_on_c, 2, 82, 102
4, 51479, Note_on_c, 2, 82, 0
4, 51480, Note_on_c, 2, 82, 102
4, 51509, Note_on_c, 2, 82, 0
4, 51510, Note_on_c, 2, 82, 102
4, 51539, Note_on_c, 2, 82, 0
4, 51540, Note_on_c, 2, 82, 102
4, 51569, Note_on_c, 2, 82, 0
4, 51570, Note_on_c, 2, 82, 102
4, 51599, Note_on_c, 2, 82, 0
4, 51600, Note_on_c, 2, 82, 102
4, 51629, Note_on_c, 2, 82, 0
4, 51630, Note_on_c, 2, 82, 102
4, 51659, Note_on_c, 2, 82, 0
4, 51660, Note_on_c, 2, 82, 102
4, 51689, Note_on_c, 2, 82, 0
4, 51690, Note_on_c, 2, 82, 102
4, 51719, Note_on_c, 2, 82, 0
4, 51720, Note_on_c, 2, 82, 102
4, 51749, Note_on_c, 2, 82, 0
4, 51750, Note_on_c, 2, 82, 102
4, 51779, Note_on_c, 2, 82, 0
4, 51780, Note_on_c, 2, 82, 102
4, 51809, Note_on_c, 2, 82, 0
4, 51810, Note_on_c, 2, 82, 102
4, 51839, Note_on_c, 2, 82, 0
4, 51840, Note_on_c, 2, 82, 102
4, 51869, Note_on_c, 2, 82, 0
4, 51870, Note_on_c, 2, 82, 102
4, 51899, Note_on_c, 2, 82, 0
4, 51900, Note_on_c, 2, 82, 102
4, 51929, Note_on_c, 2, 82, 0
4, 51930, Note_on_c, 2, 82, 102
4, 51959, Note_on_c, 2, 82, 0
4, 51960, Note_on_c, 2, 82, 102
4, 51989, Note_on_c, 2, 82, 0
4, 51990, Note_on_c, 2, 82, 102
4, 52019, Note_on_c, 2, 82, 0
4, 52020, Note_on_c, 2, 82, 102
4, 52049, Note_on_c, 2, 82, 0
4, 52050, Note_on_c, 2, 82, 102
4, 52079, Note_on_c, 2, 82, 0
4, 52080, Note_on_c, 2, 82, 102
4, 52109, Note_on_c, 2, 82, 0
4, 52110, Note_on_c, 2, 82, 102
4, 52139, Note_on_c, 2, 82, 0
4, 52140, Note_on_c, 2, 82, 102
4, 52169, Note_on_c, 2, 82, 0
4, 52170, Note_on_c, 2, 82, 102
4, 52199, Note_on_c, 2, 82, 0
4, 52200, Note_on_c, 2, 82, 102
4, 52229, Note_on_c, 2, 82, 0
4, 52230, Note_on_c, 2, 82, 102
4, 52259, Note_on_c, 2, 82, 0
4, 52260, Note_on_c, 2, 82, 102
4, 52289, Note_on_c, 2, 82, 0
4, 52290, Note_on_c, 2, 82, 102
4, 52319, Note_on_c, 2, 82, 0
4, 52320, Note_on_c, 2, 82, 102
4, 52349, Note_on_c, 2, 82, 0
4, 52350, Note_on_c, 2, 82, 102
4, 52379, Note_on_c, 2, 82, 0
4, 52380, Note_on_c, 2, 82, 102
4, 52409, Note_on_c, 2, 82, 0
4, 52410, Note_on_c, 2, 82, 102
4, 52439, Note_on_c, 2, 82, 0
4, 52440, Note_on_c, 2, 82, 102
4, 52469, Note_on_c, 2, 82, 0
4, 52470, Note_on_c, 2, 82, 102
4, 52499, Note_on_c, 2, 82, 0
4, 52500, Note_on_c, 2, 82, 102
4, 52529, Note_on_c, 2, 82, 0
4, 52530, Note_on_c, 2, 82, 102
4, 52559, Note_on_c, 2, 82, 0
4, 52560, Note_on_c, 2, 82, 102
4, 52589, Note_on_c, 2, 82, 0
4, 52590, Note_on_c, 2, 82, 102
4, 52619, Note_on_c, 2, 82, 0
4, 52620, Note_on_c, 2, 82, 102
4, 52649, Note_on_c, 2, 82, 0
4, 52650, Note_on_c, 2, 82, 102
4, 52679, Note_on_c, 2, 82, 0
4, 52680, Note_on_c, 2, 82, 102
4, 52709, Note_on_c, 2, 82, 0
4, 52710, Note_on_c, 2, 82, 102
4, 52739, Note_on_c, 2, 82, 0
4, 52740, Note_on_c, 2, 82, 102
4, 52769, Note_on_c, 2, 82, 0
4, 52770, Note_on_c, 2, 82, 102
4, 52799, Note_on_c, 2, 82, 0
4, 52800, Note_on_c, 2, 82, 102
4, 52829, Note_on_c, 2, 82, 0
4, 52830, Note_on_c, 2, 82, 102
4, 52859, Note_on_c, 2, 82, 0
4, 52860, Note_on_c, 2, 82, 102
4, 52889, Note_on_c, 2, 82, 0
4, 52890, Note_on_c, 2, 82, 102
4, 52919, Note_on_c, 2, 82, 0
4, 52920, Note_on_c, 2, 82, 102
4, 52949, Note_on_c, 2, 82, 0
4, 52950, Note_on_c, 2, 82, 102
4, 52979, Note_on_c, 2, 82, 0
4, 52980, Note_on_c, 2, 82, 102
4, 53009, Note_on_c, 2, 82, 0
4, 53010, Note_on_c, 2, 82, 102
4, 53039, Note_on_c, 2, 82, 0
4, 53040, Note_on_c, 2, 84, 127
4, 53090, Note_on_c, 2, 84, 0
4, 53160, Note_on_c, 2, 81, 127
4, 53210, Note_on_c, 2, 81, 0
4, 53280, Note_on_c, 2, 82, 127
4, 53329, Note_on_c, 2, 82, 0
4, 53400, Note_on_c, 2, 77, 64
4, 53459, Note_on_c, 2, 77, 0
4, 53520, Note_on_c, 2, 74, 64
4, 53579, Note_on_c, 2, 74, 0
4, 53640, Note_on_c, 2, 77, 64
4, 53699, Note_on_c, 2, 77, 0
4, 53760, Note_on_c, 2, 74, 64
4, 53819, Note_on_c, 2, 74, 0
4, 53880, Note_on_c, 2, 63, 127
4, 53894, Note_on_c, 2, 63, 0
4, 53895, Note_on_c, 2, 62, 127
4, 53909, Note_on_c, 2, 62, 0
4, 53910, Note_on_c, 2, 63, 127
4, 53924, Note_on_c, 2, 63, 0
4, 53925, Note_on_c, 2, 62, 127
4, 53939, Note_on_c, 2, 62, 0
4, 53940, Note_on_c, 2, 63, 127
4, 53954, Note_on_c, 2, 63, 0
4, 53955, Note_on_c, 2, 62, 127
4, 53969, Note_on_c, 2, 62, 0
4, 53970, Note_on_c, 2, 60, 127
4, 53984, Note_on_c, 2, 60, 0
4, 53985, Note_on_c, 2, 62, 127
4, 53999, Note_on_c, 2, 62, 0
4, 54000, Note_on_c, 2, 63, 127
4, 54060, Note_on_c, 2, 63, 0
4, 54120, Note_on_c, 2, 65, 127
4, 54180, Note_on_c, 2, 65, 0
4, 54240, Note_on_c, 2, 67, 127
4, 54270, Note_on_c, 2, 67, 0
4, 54360, Note_on_c, 2, 77, 70
4, 54419, Note_on_c, 2, 77, 0
4, 54480, Note_on_c, 2, 74, 70
4, 54539, Note_on_c, 2, 74, 0
4, 54600, Note_on_c, 2, 77, 70
4, 54659, Note_on_c, 2, 77, 0
4, 54720, Note_on_c, 2, 74, 70
4, 54779, Note_on_c, 2, 74, 0
4, 54840, Note_on_c, 2, 63, 127
4, 54854, Note_on_c, 2, 63, 0
4, 54855, Note_on_c, 2, 62, 127
4, 54869, Note_on_c, 2, 62, 0
4, 54870, Note_on_c, 2, 63, 127
4, 54884, Note_on_c, 2, 63, 0
4, 54885, Note_on_c, 2, 62, 127
4, 54899, Note_on_c, 2, 62, 0
4, 54900, Note_on_c, 2, 63, 127
4, 54914, Note_on_c, 2, 63, 0
4, 54915, Note_on_c, 2, 62, 127
4, 54929, Note_on_c, 2, 62, 0
4, 54930, Note_on_c, 2, 60, 127
4, 54944, Note_on_c, 2, 60, 0
4, 54945, Note_on_c, 2, 62, 127
4, 54959, Note_on_c, 2, 62, 0
4, 54960, Note_on_c, 2, 63, 127
4, 55020, Note_on_c, 2, 63, 0
4, 55080, Note_on_c, 2, 65, 127
4, 55140, Note_on_c, 2, 65, 0
4, 55200, Note_on_c, 2, 70, 127
4, 55200, Note_on_c, 2, 62, 127
4, 55260, Note_on_c, 2, 70, 0
4, 55260, Note_on_c, 2, 62, 0
4, 55440, Note_on_c, 2, 70, 127
4, 55440, Note_on_c, 2, 62, 127
4, 55559, Note_on_c, 2, 70, 0
4, 55559, Note_on_c, 2, 62, 0
4, 55560, Note_on_c, 2, 70, 127
4, 55560, Note_on_c, 2, 62, 127
4, 55679, Note_on_c, 2, 70, 0
4, 55679, Note_on_c, 2, 62, 0
4, 55680, Note_on_c, 2, 70, 127
4, 55680, Note_on_c, 2, 62, 127
4, 55799, Note_on_c, 2, 70, 0
4, 55799, Note_on_c, 2, 62, 0
4, 55800, Note_on_c, 2, 70, 127
4, 55800, Note_on_c, 2, 62, 127
4, 55919, Note_on_c, 2, 70, 0
4, 55919, Note_on_c, 2, 62, 0
4, 55920, Note_on_c, 2, 70, 127
4, 55920, Note_on_c, 2, 62, 127
4, 56039, Note_on_c, 2, 70, 0
4, 56039, Note_on_c, 2, 62, 0
4, 56160, Note_on_c, 2, 70, 127
4, 56359, Note_on_c, 2, 70, 0
4, 56400, Note_on_c, 2, 74, 127
4, 56598, Note_on_c, 2, 74, 0
4, 56640, Note_on_c, 2, 77, 106
4, 56669, Note_on_c, 2, 77, 0
4, 56700, Note_on_c, 2, 77, 124
4, 56729, Note_on_c, 2, 77, 0
4, 56760, Note_on_c, 2, 77, 120
4, 56789, Note_on_c, 2, 77, 0
4, 56820, Note_on_c, 2, 77, 127
4, 56849, Note_on_c, 2, 77, 0
4, 56880, Note_on_c, 2, 77, 127
4, 56909, Note_on_c, 2, 77, 0
4, 56940, Note_on_c, 2, 77, 127
4, 56969, Note_on_c, 2, 77, 0
4, 57000, Note_on_c, 2, 77, 127
4, 57029, Note_on_c, 2, 77, 0
4, 57060, Note_on_c, 2, 77, 127
4, 57089, Note_on_c, 2, 77, 0
4, 57120, Note_on_c, 2, 74, 127
4, 57178, Note_on_c, 2, 74, 0
4, 57240, Note_on_c, 2, 70, 127
4, 57298, Note_on_c, 2, 70, 0
4, 57600, Note_on_c, 2, 70, 41
4, 57600, Note_on_c, 2, 65, 28
4, 58079, Note_on_c, 2, 70, 0
4, 58079, Note_on_c, 2, 65, 0
4, 58080, Note_on_c, 2, 70, 41
4, 58080, Note_on_c, 2, 67, 35
4, 58559, Note_on_c, 2, 70, 0
4, 58559, Note_on_c, 2, 67, 0
4, 58560, Note_on_c, 2, 69, 38
4, 58560, Note_on_c, 2, 63, 34
4, 59039, Note_on_c, 2, 69, 0
4, 59039, Note_on_c, 2, 63, 0
4, 59040, Note_on_c, 2, 72, 30
4, 59040, Note_on_c, 2, 62, 26
4, 59519, Note_on_c, 2, 72, 0
4, 59519, Note_on_c, 2, 62, 0
4, 59520, Note_on_c, 2, 70, 38
4, 59520, Note_on_c, 2, 65, 35
4, 59999, Note_on_c, 2, 70, 0
4, 59999, Note_on_c, 2, 65, 0
4, 60000, Note_on_c, 2, 70, 34
4, 60000, Note_on_c, 2, 67, 34
4, 60479, Note_on_c, 2, 70, 0
4, 60479, Note_on_c, 2, 67, 0
4, 60480, Note_on_c, 2, 69, 36
4, 60480, Note_on_c, 2, 63, 29
4, 60959, Note_on_c, 2, 69, 0
4, 60959, Note_on_c, 2, 63, 0
4, 60960, Note_on_c, 2, 70, 39
4, 60960, Note_on_c, 2, 62, 25
4, 61079, Note_on_c, 2, 70, 0
4, 61079, Note_on_c, 2, 62, 0
4, 61440, Note_on_c, 2, 72, 127
4, 61628, Note_on_c, 2, 72, 0
4, 61680, Note_on_c, 2, 75, 127
4, 61868, Note_on_c, 2, 75, 0
4, 61920, Note_on_c, 2, 79, 127
4, 61961, Note_on_c, 2, 79, 0
4, 61980, Note_on_c, 2, 79, 127
4, 62021, Note_on_c, 2, 79, 0
4, 62040, Note_on_c, 2, 79, 127
4, 62081, Note_on_c, 2, 79, 0
4, 62100, Note_on_c, 2, 79, 127
4, 62141, Note_on_c, 2, 79, 0
4, 62160, Note_on_c, 2, 79, 127
4, 62201, Note_on_c, 2, 79, 0
4, 62220, Note_on_c, 2, 79, 127
4, 62261, Note_on_c, 2, 79, 0
4, 62280, Note_on_c, 2, 79, 127
4, 62321, Note_on_c, 2, 79, 0
4, 62340, Note_on_c, 2, 79, 127
4, 62381, Note_on_c, 2, 79, 0
4, 62400, Note_on_c, 2, 75, 127
4, 62458, Note_on_c, 2, 75, 0
4, 62520, Note_on_c, 2, 72, 127
4, 62578, Note_on_c, 2, 72, 0
4, 62880, Note_on_c, 2, 72, 36
4, 62880, Note_on_c, 2, 67, 31
4, 63359, Note_on_c, 2, 72, 0
4, 63359, Note_on_c, 2, 67, 0
4, 63360, Note_on_c, 2, 72, 32
4, 63360, Note_on_c, 2, 68, 40
4, 63839, Note_on_c, 2, 72, 0
4, 63839, Note_on_c, 2, 68, 0
4, 63840, Note_on_c, 2, 71, 38
4, 63840, Note_on_c, 2, 65, 29
4, 64319, Note_on_c, 2, 71, 0
4, 64319, Note_on_c, 2, 65, 0
4, 64320, Note_on_c, 2, 63, 39
4, 64320, Note_on_c, 2, 72, 34
4, 64799, Note_on_c, 2, 63, 0
4, 64799, Note_on_c, 2, 72, 0
4, 64800, Note_on_c, 2, 67, 30
4, 64800, Note_on_c, 2, 72, 37
4, 65279, Note_on_c, 2, 67, 0
4, 65279, Note_on_c, 2, 72, 0
4, 65280, Note_on_c, 2, 68, 38
4, 65280, Note_on_c, 2, 72, 39
4, 65759, Note_on_c, 2, 68, 0
4, 65759, Note_on_c, 2, 72, 0
4, 65760, Note_on_c, 2, 71, 35
4, 65760, Note_on_c, 2, 65, 29
4, 66239, Note_on_c, 2, 71, 0
4, 66239, Note_on_c, 2, 65, 0
4, 66240, Note_on_c, 2, 63, 41
4, 66240, Note_on_c, 2, 72, 38
4, 66359, Note_on_c, 2, 63, 0
4, 66359, Note_on_c, 2, 72, 0
4, 66720, Note_on_c, 2, 55, 116
4, 66720, Note_on_c, 2, 72, 118
4, 66720, Note_on_c, 2, 64, 116
4, 66839, Note_on_c, 2, 55, 0
4, 66839, Note_on_c, 2, 72, 0
4, 66839, Note_on_c, 2, 64, 0
4, 67140, Note_on_c, 2, 67, 127
4, 67154, Note_on_c, 2, 67, 0
4, 67155, Note_on_c, 2, 65, 127
4, 67169, Note_on_c, 2, 65, 0
4, 67170, Note_on_c, 2, 64, 127
4, 67184, Note_on_c, 2, 64, 0
4, 67185, Note_on_c, 2, 62, 127
4, 67199, Note_on_c, 2, 62, 0
4, 67200, Note_on_c, 2, 60, 127
4, 67259, Note_on_c, 2, 60, 0
4, 67320, Note_on_c, 2, 67, 104
4, 67379, Note_on_c, 2, 67, 0
4, 67440, Note_on_c, 2, 70, 127
4, 67499, Note_on_c, 2, 70, 0
4, 67560, Note_on_c, 2, 79, 127
4, 67619, Note_on_c, 2, 79, 0
4, 67680, Note_on_c, 2, 72, 127
4, 67709, Note_on_c, 2, 72, 0
4, 67710, Note_on_c, 2, 70, 124
4, 67739, Note_on_c, 2, 70, 0
4, 67740, Note_on_c, 2, 68, 124
4, 67769, Note_on_c, 2, 68, 0
4, 67770, Note_on_c, 2, 70, 122
4, 67799, Note_on_c, 2, 70, 0
4, 67800, Note_on_c, 2, 68, 126
4, 67919, Note_on_c, 2, 68, 0
4, 68100, Note_on_c, 2, 72, 127
4, 68114, Note_on_c, 2, 72, 0
4, 68115, Note_on_c, 2, 70, 127
4, 68129, Note_on_c, 2, 70, 0
4, 68130, Note_on_c, 2, 68, 127
4, 68144, Note_on_c, 2, 68, 0
4, 68145, Note_on_c, 2, 67, 120
4, 68159, Note_on_c, 2, 67, 0
4, 68160, Note_on_c, 2, 65, 127
4, 68219, Note_on_c, 2, 65, 0
4, 68280, Note_on_c, 2, 68, 118
4, 68339, Note_on_c, 2, 68, 0
4, 68400, Note_on_c, 2, 72, 127
4, 68459, Note_on_c, 2, 72, 0
4, 68520, Note_on_c, 2, 77, 127
4, 68579, Note_on_c, 2, 77, 0
4, 68640, Note_on_c, 2, 58, 127
4, 68759, Note_on_c, 2, 58, 0
4, 69060, Note_on_c, 2, 68, 127
4, 69074, Note_on_c, 2, 68, 0
4, 69075, Note_on_c, 2, 67, 112
4, 69089, Note_on_c, 2, 67, 0
4, 69090, Note_on_c, 2, 65, 118
4, 69104, Note_on_c, 2, 65, 0
4, 69105, Note_on_c, 2, 63, 120
4, 69119, Note_on_c, 2, 63, 0
4, 69120, Note_on_c, 2, 62, 127
4, 69179, Note_on_c, 2, 62, 0
4, 69240, Note_on_c, 2, 68, 126
4, 69299, Note_on_c, 2, 68, 0
4, 69360, Note_on_c, 2, 74, 127
4, 69419, Note_on_c, 2, 74, 0
4, 69480, Note_on_c, 2, 77, 124
4, 69539, Note_on_c, 2, 77, 0
4, 69600, Note_on_c, 2, 70, 127
4, 69629, Note_on_c, 2, 70, 0
4, 69630, Note_on_c, 2, 68, 118
4, 69659, Note_on_c, 2, 68, 0
4, 69660, Note_on_c, 2, 67, 118
4, 69689, Note_on_c, 2, 67, 0
4, 69690, Note_on_c, 2, 68, 127
4, 69719, Note_on_c, 2, 68, 0
4, 69720, Note_on_c, 2, 67, 124
4, 69839, Note_on_c, 2, 67, 0
4, 70020, Note_on_c, 2, 70, 127
4, 70034, Note_on_c, 2, 70, 0
4, 70035, Note_on_c, 2, 68, 127
4, 70049, Note_on_c, 2, 68, 0
4, 70050, Note_on_c, 2, 67, 112
4, 70064, Note_on_c, 2, 67, 0
4, 70065, Note_on_c, 2, 65, 106
4, 70079, Note_on_c, 2, 65, 0
4, 70080, Note_on_c, 2, 63, 127
4, 70139, Note_on_c, 2, 63, 0
4, 70200, Note_on_c, 2, 67, 122
4, 70259, Note_on_c, 2, 67, 0
4, 70320, Note_on_c, 2, 70, 118
4, 70379, Note_on_c, 2, 70, 0
4, 70440, Note_on_c, 2, 75, 127
4, 70499, Note_on_c, 2, 75, 0
4, 70560, Note_on_c, 2, 57, 127
4, 70679, Note_on_c, 2, 57, 0
4, 70980, Note_on_c, 2, 75, 127
4, 70994, Note_on_c, 2, 75, 0
4, 70995, Note_on_c, 2, 74, 122
4, 71009, Note_on_c, 2, 74, 0
4, 71010, Note_on_c, 2, 72, 122
4, 71024, Note_on_c, 2, 72, 0
4, 71025, Note_on_c, 2, 70, 127
4, 71039, Note_on_c, 2, 70, 0
4, 71040, Note_on_c, 2, 69, 120
4, 71099, Note_on_c, 2, 69, 0
4, 71160, Note_on_c, 2, 75, 127
4, 71219, Note_on_c, 2, 75, 0
4, 71280, Note_on_c, 2, 78, 127
4, 71339, Note_on_c, 2, 78, 0
4, 71400, Note_on_c, 2, 75, 127
4, 71459, Note_on_c, 2, 75, 0
4, 71520, Note_on_c, 2, 74, 120
4, 71639, Note_on_c, 2, 74, 0
4, 71640, Note_on_c, 2, 82, 127
4, 71759, Note_on_c, 2, 82, 0
4, 71760, Note_on_c, 2, 82, 127
4, 71879, Note_on_c, 2, 82, 0
4, 71880, Note_on_c, 2, 82, 127
4, 71999, Note_on_c, 2, 82, 0
4, 72000, Note_on_c, 2, 82, 127
4, 72239, Note_on_c, 2, 82, 0
4, 72480, Note_on_c, 2, 82, 72
4, 72719, Note_on_c, 2, 82, 0
4, 72720, Note_on_c, 2, 84, 76
4, 72809, Note_on_c, 2, 84, 0
4, 72810, Note_on_c, 2, 82, 76
4, 72839, Note_on_c, 2, 82, 0
4, 72840, Note_on_c, 2, 81, 62
4, 72929, Note_on_c, 2, 81, 0
4, 72930, Note_on_c, 2, 82, 76
4, 72959, Note_on_c, 2, 82, 0
4, 72960, Note_on_c, 2, 82, 76
4, 73919, Note_on_c, 2, 82, 0
4, 73980, Note_on_c, 2, 75, 84
4, 74020, Note_on_c, 2, 75, 0
4, 74040, Note_on_c, 2, 74, 74
4, 74080, Note_on_c, 2, 74, 0
4, 74100, Note_on_c, 2, 72, 81
4, 74140, Note_on_c, 2, 72, 0
4, 74160, Note_on_c, 2, 70, 84
4, 74200, Note_on_c, 2, 70, 0
4, 74220, Note_on_c, 2, 68, 84
4, 74260, Note_on_c, 2, 68, 0
4, 74280, Note_on_c, 2, 67, 70
4, 74320, Note_on_c, 2, 67, 0
4, 74340, Note_on_c, 2, 65, 73
4, 74380, Note_on_c, 2, 65, 0
4, 74400, Note_on_c, 2, 63, 124
4, 74440, Note_on_c, 2, 63, 0
4, 74460, Note_on_c, 2, 75, 127
4, 74579, Note_on_c, 2, 75, 0
4, 74580, Note_on_c, 2, 75, 127
4, 74699, Note_on_c, 2, 75, 0
4, 74700, Note_on_c, 2, 75, 127
4, 74819, Note_on_c, 2, 75, 0
4, 74820, Note_on_c, 2, 75, 127
4, 74879, Note_on_c, 2, 75, 0
4, 74880, Note_on_c, 2, 75, 127
4, 74939, Note_on_c, 2, 75, 0
4, 74940, Note_on_c, 2, 79, 127
4, 75059, Note_on_c, 2, 79, 0
4, 75060, Note_on_c, 2, 79, 127
4, 75179, Note_on_c, 2, 79, 0
4, 75180, Note_on_c, 2, 79, 127
4, 75299, Note_on_c, 2, 79, 0
4, 75300, Note_on_c, 2, 79, 127
4, 75359, Note_on_c, 2, 79, 0
4, 75360, Note_on_c, 2, 79, 127
4, 75479, Note_on_c, 2, 79, 0
4, 75540, Note_on_c, 2, 75, 126
4, 75599, Note_on_c, 2, 75, 0
4, 75600, Note_on_c, 2, 82, 118
4, 75659, Note_on_c, 2, 82, 0
4, 75660, Note_on_c, 2, 79, 124
4, 75719, Note_on_c, 2, 79, 0
4, 75720, Note_on_c, 2, 77, 112
4, 75750, Note_on_c, 2, 77, 0
4, 75780, Note_on_c, 2, 75, 127
4, 75810, Note_on_c, 2, 75, 0
4, 75840, Note_on_c, 2, 75, 127
4, 75929, Note_on_c, 2, 75, 0
4, 75930, Note_on_c, 2, 77, 122
4, 75959, Note_on_c, 2, 77, 0
4, 75960, Note_on_c, 2, 75, 122
4, 76019, Note_on_c, 2, 75, 0
4, 76020, Note_on_c, 2, 75, 127
4, 76079, Note_on_c, 2, 75, 0
4, 76080, Note_on_c, 2, 84, 104
4, 76139, Note_on_c, 2, 84, 0
4, 76140, Note_on_c, 2, 80, 126
4, 76199, Note_on_c, 2, 80, 0
4, 76200, Note_on_c, 2, 77, 127
4, 76230, Note_on_c, 2, 77, 0
4, 76260, Note_on_c, 2, 75, 127
4, 76290, Note_on_c, 2, 75, 0
4, 76320, Note_on_c, 2, 75, 127
4, 76409, Note_on_c, 2, 75, 0
4, 76410, Note_on_c, 2, 77, 114
4, 76439, Note_on_c, 2, 77, 0
4, 76440, Note_on_c, 2, 75, 127
4, 76499, Note_on_c, 2, 75, 0
4, 76500, Note_on_c, 2, 75, 127
4, 76559, Note_on_c, 2, 75, 0
4, 76560, Note_on_c, 2, 82, 127
4, 76619, Note_on_c, 2, 82, 0
4, 76620, Note_on_c, 2, 79, 122
4, 76679, Note_on_c, 2, 79, 0
4, 76680, Note_on_c, 2, 77, 126
4, 76710, Note_on_c, 2, 77, 0
4, 76740, Note_on_c, 2, 75, 127
4, 76770, Note_on_c, 2, 75, 0
4, 76800, Note_on_c, 2, 72, 104
4, 76970, Note_on_c, 2, 72, 0
4, 76980, Note_on_c, 2, 84, 126
4, 77010, Note_on_c, 2, 84, 0
4, 77040, Note_on_c, 2, 82, 127
4, 77070, Note_on_c, 2, 82, 0
4, 77100, Note_on_c, 2, 80, 127
4, 77130, Note_on_c, 2, 80, 0
4, 77160, Note_on_c, 2, 79, 126
4, 77190, Note_on_c, 2, 79, 0
4, 77220, Note_on_c, 2, 77, 127
4, 77250, Note_on_c, 2, 77, 0
4, 77280, Note_on_c, 2, 75, 127
4, 77399, Note_on_c, 2, 75, 0
4, 77460, Note_on_c, 2, 63, 127
4, 77519, Note_on_c, 2, 63, 0
4, 77520, Note_on_c, 2, 70, 127
4, 77579, Note_on_c, 2, 70, 0
4, 77580, Note_on_c, 2, 67, 92
4, 77639, Note_on_c, 2, 67, 0
4, 77640, Note_on_c, 2, 65, 126
4, 77670, Note_on_c, 2, 65, 0
4, 77700, Note_on_c, 2, 63, 127
4, 77730, Note_on_c, 2, 63, 0
4, 77760, Note_on_c, 2, 63, 127
4, 77849, Note_on_c, 2, 63, 0
4, 77850, Note_on_c, 2, 65, 122
4, 77879, Note_on_c, 2, 65, 0
4, 77880, Note_on_c, 2, 63, 108
4, 77939, Note_on_c, 2, 63, 0
4, 77940, Note_on_c, 2, 63, 126
4, 77999, Note_on_c, 2, 63, 0
4, 78000, Note_on_c, 2, 72, 122
4, 78059, Note_on_c, 2, 72, 0
4, 78060, Note_on_c, 2, 68, 127
4, 78119, Note_on_c, 2, 68, 0
4, 78120, Note_on_c, 2, 65, 127
4, 78150, Note_on_c, 2, 65, 0
4, 78180, Note_on_c, 2, 63, 110
4, 78210, Note_on_c, 2, 63, 0
4, 78240, Note_on_c, 2, 63, 127
4, 78329, Note_on_c, 2, 63, 0
4, 78330, Note_on_c, 2, 65, 127
4, 78359, Note_on_c, 2, 65, 0
4, 78360, Note_on_c, 2, 63, 127
4, 78419, Note_on_c, 2, 63, 0
4, 78420, Note_on_c, 2, 63, 127
4, 78479, Note_on_c, 2, 63, 0
4, 78480, Note_on_c, 2, 70, 127
4, 78539, Note_on_c, 2, 70, 0
4, 78540, Note_on_c, 2, 67, 92
4, 78599, Note_on_c, 2, 67, 0
4, 78600, Note_on_c, 2, 65, 127
4, 78630, Note_on_c, 2, 65, 0
4, 78660, Note_on_c, 2, 63, 127
4, 78690, Note_on_c, 2, 63, 0
4, 78720, Note_on_c, 2, 60, 126
4, 78890, Note_on_c, 2, 60, 0
4, 78900, Note_on_c, 2, 72, 94
4, 78930, Note_on_c, 2, 72, 0
4, 78960, Note_on_c, 2, 70, 127
4, 78990, Note_on_c, 2, 70, 0
4, 79020, Note_on_c, 2, 68, 127
4, 79050, Note_on_c, 2, 68, 0
4, 79080, Note_on_c, 2, 67, 110
4, 79110, Note_on_c, 2, 67, 0
4, 79140, Note_on_c, 2, 65, 116
4, 79170, Note_on_c, 2, 65, 0
4, 79200, Note_on_c, 2, 63, 127
4, 79310, Note_on_c, 2, 63, 0
4, 79320, Note_on_c, 2, 75, 127
4, 79320, Note_on_c, 2, 67, 74
4, 79349, Note_on_c, 2, 75, 0
4, 79349, Note_on_c, 2, 67, 0
4, 79350, Note_on_c, 2, 67, 108
4, 79350, Note_on_c, 2, 75, 127
4, 79379, Note_on_c, 2, 67, 0
4, 79379, Note_on_c, 2, 75, 0
4, 79380, Note_on_c, 2, 75, 127
4, 79380, Note_on_c, 2, 67, 106
4, 79409, Note_on_c, 2, 75, 0
4, 79409, Note_on_c, 2, 67, 0
4, 79410, Note_on_c, 2, 75, 127
4, 79410, Note_on_c, 2, 67, 88
4, 79439, Note_on_c, 2, 75, 0
4, 79439, Note_on_c, 2, 67, 0
4, 79440, Note_on_c, 2, 67, 122
4, 79440, Note_on_c, 2, 75, 127
4, 79469, Note_on_c, 2, 67, 0
4, 79469, Note_on_c, 2, 75, 0
4, 79470, Note_on_c, 2, 67, 100
4, 79470, Note_on_c, 2, 75, 127
4, 79499, Note_on_c, 2, 67, 0
4, 79499, Note_on_c, 2, 75, 0
4, 79500, Note_on_c, 2, 67, 116
4, 79500, Note_on_c, 2, 75, 127
4, 79529, Note_on_c, 2, 67, 0
4, 79529, Note_on_c, 2, 75, 0
4, 79530, Note_on_c, 2, 67, 110
4, 79530, Note_on_c, 2, 75, 127
4, 79559, Note_on_c, 2, 67, 0
4, 79559, Note_on_c, 2, 75, 0
4, 79560, Note_on_c, 2, 67, 116
4, 79560, Note_on_c, 2, 75, 127
4, 79589, Note_on_c, 2, 67, 0
4, 79589, Note_on_c, 2, 75, 0
4, 79590, Note_on_c, 2, 67, 106
4, 79590, Note_on_c, 2, 75, 127
4, 79619, Note_on_c, 2, 67, 0
4, 79619, Note_on_c, 2, 75, 0
4, 79620, Note_on_c, 2, 67, 120
4, 79620, Note_on_c, 2, 75, 127
4, 79649, Note_on_c, 2, 67, 0
4, 79649, Note_on_c, 2, 75, 0
4, 79650, Note_on_c, 2, 67, 122
4, 79650, Note_on_c, 2, 75, 127
4, 79679, Note_on_c, 2, 67, 0
4, 79679, Note_on_c, 2, 75, 0
4, 79680, Note_on_c, 2, 67, 106
4, 79680, Note_on_c, 2, 75, 127
4, 79709, Note_on_c, 2, 67, 0
4, 79709, Note_on_c, 2, 75, 0
4, 79710, Note_on_c, 2, 67, 116
4, 79710, Note_on_c, 2, 75, 127
4, 79739, Note_on_c, 2, 67, 0
4, 79739, Note_on_c, 2, 75, 0
4, 79740, Note_on_c, 2, 67, 120
4, 79740, Note_on_c, 2, 75, 127
4, 79769, Note_on_c, 2, 67, 0
4, 79769, Note_on_c, 2, 75, 0
4, 79770, Note_on_c, 2, 67, 112
4, 79770, Note_on_c, 2, 75, 127
4, 79799, Note_on_c, 2, 67, 0
4, 79799, Note_on_c, 2, 75, 0
4, 79800, Note_on_c, 2, 67, 112
4, 79800, Note_on_c, 2, 75, 127
4, 79829, Note_on_c, 2, 67, 0
4, 79829, Note_on_c, 2, 75, 0
4, 79830, Note_on_c, 2, 67, 112
4, 79830, Note_on_c, 2, 75, 127
4, 79859, Note_on_c, 2, 67, 0
4, 79859, Note_on_c, 2, 75, 0
4, 79860, Note_on_c, 2, 67, 108
4, 79860, Note_on_c, 2, 75, 127
4, 79889, Note_on_c, 2, 67, 0
4, 79889, Note_on_c, 2, 75, 0
4, 79890, Note_on_c, 2, 67, 112
4, 79890, Note_on_c, 2, 75, 127
4, 79919, Note_on_c, 2, 67, 0
4, 79919, Note_on_c, 2, 75, 0
4, 79920, Note_on_c, 2, 67, 122
4, 79920, Note_on_c, 2, 75, 127
4, 79949, Note_on_c, 2, 67, 0
4, 79949, Note_on_c, 2, 75, 0
4, 79950, Note_on_c, 2, 67, 116
4, 79950, Note_on_c, 2, 75, 127
4, 79979, Note_on_c, 2, 67, 0
4, 79979, Note_on_c, 2, 75, 0
4, 79980, Note_on_c, 2, 67, 112
4, 79980, Note_on_c, 2, 75, 127
4, 80009, Note_on_c, 2, 67, 0
4, 80009, Note_on_c, 2, 75, 0
4, 80010, Note_on_c, 2, 67, 114
4, 80010, Note_on_c, 2, 75, 127
4, 80039, Note_on_c, 2, 67, 0
4, 80039, Note_on_c, 2, 75, 0
4, 80040, Note_on_c, 2, 67, 124
4, 80040, Note_on_c, 2, 75, 127
4, 80069, Note_on_c, 2, 67, 0
4, 80069, Note_on_c, 2, 75, 0
4, 80070, Note_on_c, 2, 75, 127
4, 80070, Note_on_c, 2, 67, 98
4, 80099, Note_on_c, 2, 75, 0
4, 80099, Note_on_c, 2, 67, 0
4, 80100, Note_on_c, 2, 67, 122
4, 80100, Note_on_c, 2, 75, 127
4, 80129, Note_on_c, 2, 67, 0
4, 80129, Note_on_c, 2, 75, 0
4, 80130, Note_on_c, 2, 67, 114
4, 80130, Note_on_c, 2, 75, 127
4, 80159, Note_on_c, 2, 67, 0
4, 80159, Note_on_c, 2, 75, 0
4, 80160, Note_on_c, 2, 67, 116
4, 80160, Note_on_c, 2, 75, 127
4, 80189, Note_on_c, 2, 67, 0
4, 80189, Note_on_c, 2, 75, 0
4, 80190, Note_on_c, 2, 67, 106
4, 80190, Note_on_c, 2, 75, 127
4, 80219, Note_on_c, 2, 67, 0
4, 80219, Note_on_c, 2, 75, 0
4, 80220, Note_on_c, 2, 67, 126
4, 80220, Note_on_c, 2, 75, 127
4, 80249, Note_on_c, 2, 67, 0
4, 80249, Note_on_c, 2, 75, 0
4, 80250, Note_on_c, 2, 67, 110
4, 80250, Note_on_c, 2, 75, 127
4, 80279, Note_on_c, 2, 67, 0
4, 80279, Note_on_c, 2, 75, 0
4, 80280, Note_on_c, 2, 67, 127
4, 80280, Note_on_c, 2, 75, 127
4, 80309, Note_on_c, 2, 67, 0
4, 80309, Note_on_c, 2, 75, 0
4, 80310, Note_on_c, 2, 67, 116
4, 80310, Note_on_c, 2, 75, 127
4, 80339, Note_on_c, 2, 67, 0
4, 80339, Note_on_c, 2, 75, 0
4, 80340, Note_on_c, 2, 67, 98
4, 80340, Note_on_c, 2, 75, 127
4, 80369, Note_on_c, 2, 67, 0
4, 80369, Note_on_c, 2, 75, 0
4, 80370, Note_on_c, 2, 67, 108
4, 80370, Note_on_c, 2, 75, 127
4, 80399, Note_on_c, 2, 67, 0
4, 80399, Note_on_c, 2, 75, 0
4, 80400, Note_on_c, 2, 67, 127
4, 80400, Note_on_c, 2, 75, 127
4, 80429, Note_on_c, 2, 67, 0
4, 80429, Note_on_c, 2, 75, 0
4, 80430, Note_on_c, 2, 67, 122
4, 80430, Note_on_c, 2, 75, 127
4, 80459, Note_on_c, 2, 67, 0
4, 80459, Note_on_c, 2, 75, 0
4, 80460, Note_on_c, 2, 67, 108
4, 80460, Note_on_c, 2, 75, 127
4, 80489, Note_on_c, 2, 67, 0
4, 80489, Note_on_c, 2, 75, 0
4, 80490, Note_on_c, 2, 67, 114
4, 80490, Note_on_c, 2, 75, 127
4, 80519, Note_on_c, 2, 67, 0
4, 80519, Note_on_c, 2, 75, 0
4, 80520, Note_on_c, 2, 75, 127
4, 80520, Note_on_c, 2, 67, 112
4, 80549, Note_on_c, 2, 75, 0
4, 80549, Note_on_c, 2, 67, 0
4, 80550, Note_on_c, 2, 67, 112
4, 80550, Note_on_c, 2, 75, 127
4, 80579, Note_on_c, 2, 67, 0
4, 80579, Note_on_c, 2, 75, 0
4, 80580, Note_on_c, 2, 67, 112
4, 80580, Note_on_c, 2, 75, 127
4, 80609, Note_on_c, 2, 67, 0
4, 80609, Note_on_c, 2, 75, 0
4, 80610, Note_on_c, 2, 67, 92
4, 80610, Note_on_c, 2, 75, 127
4, 80639, Note_on_c, 2, 67, 0
4, 80639, Note_on_c, 2, 75, 0
4, 80640, Note_on_c, 2, 67, 92
4, 80640, Note_on_c, 2, 75, 127
4, 80669, Note_on_c, 2, 67, 0
4, 80669, Note_on_c, 2, 75, 0
4, 80670, Note_on_c, 2, 67, 116
4, 80670, Note_on_c, 2, 75, 127
4, 80699, Note_on_c, 2, 67, 0
4, 80699, Note_on_c, 2, 75, 0
4, 80700, Note_on_c, 2, 67, 114
4, 80700, Note_on_c, 2, 75, 127
4, 80729, Note_on_c, 2, 67, 0
4, 80729, Note_on_c, 2, 75, 0
4, 80730, Note_on_c, 2, 67, 110
4, 80730, Note_on_c, 2, 75, 127
4, 80759, Note_on_c, 2, 67, 0
4, 80759, Note_on_c, 2, 75, 0
4, 80760, Note_on_c, 2, 67, 127
4, 80760, Note_on_c, 2, 75, 127
4, 80789, Note_on_c, 2, 67, 0
4, 80789, Note_on_c, 2, 75, 0
4, 80790, Note_on_c, 2, 67, 116
4, 80790, Note_on_c, 2, 75, 127
4, 80819, Note_on_c, 2, 67, 0
4, 80819, Note_on_c, 2, 75, 0
4, 80820, Note_on_c, 2, 67, 120
4, 80820, Note_on_c, 2, 75, 127
4, 80849, Note_on_c, 2, 67, 0
4, 80849, Note_on_c, 2, 75, 0
4, 80850, Note_on_c, 2, 67, 112
4, 80850, Note_on_c, 2, 75, 127
4, 80879, Note_on_c, 2, 67, 0
4, 80879, Note_on_c, 2, 75, 0
4, 80880, Note_on_c, 2, 75, 127
4, 80880, Note_on_c, 2, 65, 50
4, 80940, Note_on_c, 2, 75, 0
4, 80940, Note_on_c, 2, 65, 0
4, 81000, Note_on_c, 2, 65, 88
4, 81000, Note_on_c, 2, 74, 120
4, 81060, Note_on_c, 2, 65, 0
4, 81060, Note_on_c, 2, 74, 0
4, 81120, Note_on_c, 2, 67, 110
4, 81120, Note_on_c, 2, 75, 127
4, 81135, Note_on_c, 2, 67, 0
4, 81135, Note_on_c, 2, 75, 0
4, 81150, Note_on_c, 2, 79, 124
4, 81150, Note_on_c, 2, 75, 118
4, 81179, Note_on_c, 2, 79, 0
4, 81179, Note_on_c, 2, 75, 0
4, 81180, Note_on_c, 2, 75, 126
4, 81180, Note_on_c, 2, 79, 116
4, 81209, Note_on_c, 2, 75, 0
4, 81209, Note_on_c, 2, 79, 0
4, 81210, Note_on_c, 2, 79, 126
4, 81210, Note_on_c, 2, 75, 127
4, 81239, Note_on_c, 2, 79, 0
4, 81239, Note_on_c, 2, 75, 0
4, 81240, Note_on_c, 2, 75, 127
4, 81240, Note_on_c, 2, 79, 126
4, 81269, Note_on_c, 2, 75, 0
4, 81269, Note_on_c, 2, 79, 0
4, 81270, Note_on_c, 2, 75, 127
4, 81270, Note_on_c, 2, 79, 126
4, 81299, Note_on_c, 2, 75, 0
4, 81299, Note_on_c, 2, 79, 0
4, 81300, Note_on_c, 2, 75, 127
4, 81300, Note_on_c, 2, 79, 127
4, 81329, Note_on_c, 2, 75, 0
4, 81329, Note_on_c, 2, 79, 0
4, 81330, Note_on_c, 2, 75, 127
4, 81330, Note_on_c, 2, 79, 126
4, 81359, Note_on_c, 2, 75, 0
4, 81359, Note_on_c, 2, 79, 0
4, 81360, Note_on_c, 2, 79, 127
4, 81360, Note_on_c, 2, 75, 127
4, 81389, Note_on_c, 2, 79, 0
4, 81389, Note_on_c, 2, 75, 0
4, 81390, Note_on_c, 2, 79, 124
4, 81390, Note_on_c, 2, 75, 127
4, 81419, Note_on_c, 2, 79, 0
4, 81419, Note_on_c, 2, 75, 0
4, 81420, Note_on_c, 2, 79, 122
4, 81420, Note_on_c, 2, 75, 127
4, 81449, Note_on_c, 2, 79, 0
4, 81449, Note_on_c, 2, 75, 0
4, 81450, Note_on_c, 2, 75, 122
4, 81450, Note_on_c, 2, 79, 112
4, 81479, Note_on_c, 2, 75, 0
4, 81479, Note_on_c, 2, 79, 0
4, 81480, Note_on_c, 2, 75, 127
4, 81480, Note_on_c, 2, 79, 127
4, 81509, Note_on_c, 2, 75, 0
4, 81509, Note_on_c, 2, 79, 0
4, 81510, Note_on_c, 2, 75, 127
4, 81510, Note_on_c, 2, 79, 127
4, 81539, Note_on_c, 2, 75, 0
4, 81539, Note_on_c, 2, 79, 0
4, 81540, Note_on_c, 2, 79, 124
4, 81540, Note_on_c, 2, 75, 127
4, 81569, Note_on_c, 2, 79, 0
4, 81569, Note_on_c, 2, 75, 0
4, 81570, Note_on_c, 2, 79, 126
4, 81570, Note_on_c, 2, 75, 127
4, 81599, Note_on_c, 2, 79, 0
4, 81599, Note_on_c, 2, 75, 0
4, 81600, Note_on_c, 2, 79, 127
4, 81600, Note_on_c, 2, 75, 127
4, 81629, Note_on_c, 2, 79, 0
4, 81629, Note_on_c, 2, 75, 0
4, 81630, Note_on_c, 2, 75, 127
4, 81630, Note_on_c, 2, 79, 126
4, 81659, Note_on_c, 2, 75, 0
4, 81659, Note_on_c, 2, 79, 0
4, 81660, Note_on_c, 2, 79, 122
4, 81660, Note_on_c, 2, 75, 127
4, 81689, Note_on_c, 2, 79, 0
4, 81689, Note_on_c, 2, 75, 0
4, 81690, Note_on_c, 2, 79, 122
4, 81690, Note_on_c, 2, 75, 127
4, 81719, Note_on_c, 2, 79, 0
4, 81719, Note_on_c, 2, 75, 0
4, 81720, Note_on_c, 2, 75, 127
4, 81720, Note_on_c, 2, 79, 127
4, 81749, Note_on_c, 2, 75, 0
4, 81749, Note_on_c, 2, 79, 0
4, 81750, Note_on_c, 2, 75, 127
4, 81750, Note_on_c, 2, 79, 127
4, 81779, Note_on_c, 2, 75, 0
4, 81779, Note_on_c, 2, 79, 0
4, 81780, Note_on_c, 2, 79, 127
4, 81780, Note_on_c, 2, 75, 127
4, 81809, Note_on_c, 2, 79, 0
4, 81809, Note_on_c, 2, 75, 0
4, 81810, Note_on_c, 2, 79, 127
4, 81810, Note_on_c, 2, 75, 127
4, 81839, Note_on_c, 2, 79, 0
4, 81839, Note_on_c, 2, 75, 0
4, 81840, Note_on_c, 2, 75, 127
4, 81840, Note_on_c, 2, 79, 127
4, 81869, Note_on_c, 2, 75, 0
4, 81869, Note_on_c, 2, 79, 0
4, 81870, Note_on_c, 2, 75, 127
4, 81870, Note_on_c, 2, 79, 127
4, 81899, Note_on_c, 2, 75, 0
4, 81899, Note_on_c, 2, 79, 0
4, 81900, Note_on_c, 2, 75, 127
4, 81900, Note_on_c, 2, 79, 122
4, 81929, Note_on_c, 2, 75, 0
4, 81929, Note_on_c, 2, 79, 0
4, 81930, Note_on_c, 2, 75, 127
4, 81930, Note_on_c, 2, 79, 126
4, 81959, Note_on_c, 2, 75, 0
4, 81959, Note_on_c, 2, 79, 0
4, 81960, Note_on_c, 2, 79, 127
4, 81960, Note_on_c, 2, 75, 127
4, 81989, Note_on_c, 2, 79, 0
4, 81989, Note_on_c, 2, 75, 0
4, 81990, Note_on_c, 2, 75, 127
4, 81990, Note_on_c, 2, 79, 127
4, 82019, Note_on_c, 2, 75, 0
4, 82019, Note_on_c, 2, 79, 0
4, 82020, Note_on_c, 2, 75, 127
4, 82020, Note_on_c, 2, 79, 124
4, 82049, Note_on_c, 2, 75, 0
4, 82049, Note_on_c, 2, 79, 0
4, 82050, Note_on_c, 2, 75, 127
4, 82050, Note_on_c, 2, 79, 127
4, 82079, Note_on_c, 2, 75, 0
4, 82079, Note_on_c, 2, 79, 0
4, 82080, Note_on_c, 2, 79, 127
4, 82080, Note_on_c, 2, 75, 127
4, 82109, Note_on_c, 2, 79, 0
4, 82109, Note_on_c, 2, 75, 0
4, 82110, Note_on_c, 2, 75, 127
4, 82110, Note_on_c, 2, 79, 126
4, 82139, Note_on_c, 2, 75, 0
4, 82139, Note_on_c, 2, 79, 0
4, 82140, Note_on_c, 2, 75, 127
4, 82140, Note_on_c, 2, 79, 127
4, 82169, Note_on_c, 2, 75, 0
4, 82169, Note_on_c, 2, 79, 0
4, 82170, Note_on_c, 2, 75, 127
4, 82170, Note_on_c, 2, 79, 126
4, 82199, Note_on_c, 2, 75, 0
4, 82199, Note_on_c, 2, 79, 0
4, 82200, Note_on_c, 2, 79, 126
4, 82200, Note_on_c, 2, 75, 127
4, 82229, Note_on_c, 2, 79, 0
4, 82229, Note_on_c, 2, 75, 0
4, 82230, Note_on_c, 2, 79, 126
4, 82230, Note_on_c, 2, 75, 127
4, 82259, Note_on_c, 2, 79, 0
4, 82259, Note_on_c, 2, 75, 0
4, 82260, Note_on_c, 2, 75, 127
4, 82260, Note_on_c, 2, 79, 122
4, 82289, Note_on_c, 2, 75, 0
4, 82289, Note_on_c, 2, 79, 0
4, 82290, Note_on_c, 2, 75, 127
4, 82290, Note_on_c, 2, 79, 122
4, 82319, Note_on_c, 2, 75, 0
4, 82319, Note_on_c, 2, 79, 0
4, 82320, Note_on_c, 2, 75, 127
4, 82320, Note_on_c, 2, 79, 127
4, 82349, Note_on_c, 2, 75, 0
4, 82349, Note_on_c, 2, 79, 0
4, 82350, Note_on_c, 2, 79, 122
4, 82350, Note_on_c, 2, 75, 127
4, 82379, Note_on_c, 2, 79, 0
4, 82379, Note_on_c, 2, 75, 0
4, 82380, Note_on_c, 2, 75, 127
4, 82380, Note_on_c, 2, 79, 124
4, 82409, Note_on_c, 2, 75, 0
4, 82409, Note_on_c, 2, 79, 0
4, 82410, Note_on_c, 2, 75, 127
4, 82410, Note_on_c, 2, 79, 127
4, 82439, Note_on_c, 2, 75, 0
4, 82439, Note_on_c, 2, 79, 0
4, 82440, Note_on_c, 2, 75, 127
4, 82440, Note_on_c, 2, 79, 127
4, 82469, Note_on_c, 2, 75, 0
4, 82469, Note_on_c, 2, 79, 0
4, 82470, Note_on_c, 2, 75, 127
4, 82470, Note_on_c, 2, 79, 127
4, 82499, Note_on_c, 2, 75, 0
4, 82499, Note_on_c, 2, 79, 0
4, 82500, Note_on_c, 2, 79, 127
4, 82500, Note_on_c, 2, 75, 127
4, 82529, Note_on_c, 2, 79, 0
4, 82529, Note_on_c, 2, 75, 0
4, 82530, Note_on_c, 2, 75, 127
4, 82530, Note_on_c, 2, 79, 126
4, 82559, Note_on_c, 2, 75, 0
4, 82559, Note_on_c, 2, 79, 0
4, 82560, Note_on_c, 2, 75, 127
4, 82560, Note_on_c, 2, 79, 122
4, 82589, Note_on_c, 2, 75, 0
4, 82589, Note_on_c, 2, 79, 0
4, 82590, Note_on_c, 2, 79, 127
4, 82590, Note_on_c, 2, 75, 127
4, 82619, Note_on_c, 2, 79, 0
4, 82619, Note_on_c, 2, 75, 0
4, 82620, Note_on_c, 2, 79, 126
4, 82620, Note_on_c, 2, 75, 127
4, 82649, Note_on_c, 2, 79, 0
4, 82649, Note_on_c, 2, 75, 0
4, 82650, Note_on_c, 2, 79, 124
4, 82650, Note_on_c, 2, 75, 127
4, 82679, Note_on_c, 2, 79, 0
4, 82679, Note_on_c, 2, 75, 0
4, 82680, Note_on_c, 2, 75, 127
4, 82680, Note_on_c, 2, 79, 127
4, 82709, Note_on_c, 2, 75, 0
4, 82709, Note_on_c, 2, 79, 0
4, 82710, Note_on_c, 2, 75, 127
4, 82710, Note_on_c, 2, 79, 127
4, 82739, Note_on_c, 2, 75, 0
4, 82739, Note_on_c, 2, 79, 0
4, 82740, Note_on_c, 2, 79, 127
4, 82740, Note_on_c, 2, 75, 127
4, 82769, Note_on_c, 2, 79, 0
4, 82769, Note_on_c, 2, 75, 0
4, 82770, Note_on_c, 2, 75, 127
4, 82770, Note_on_c, 2, 79, 127
4, 82799, Note_on_c, 2, 75, 0
4, 82799, Note_on_c, 2, 79, 0
4, 82800, Note_on_c, 2, 77, 114
4, 82860, Note_on_c, 2, 77, 0
4, 82920, Note_on_c, 2, 74, 126
4, 82980, Note_on_c, 2, 74, 0
4, 83040, Note_on_c, 2, 75, 127
4, 83080, Note_on_c, 2, 75, 0
4, 83160, Note_on_c, 2, 82, 76
4, 83219, Note_on_c, 2, 82, 0
4, 83280, Note_on_c, 2, 79, 76
4, 83339, Note_on_c, 2, 79, 0
4, 83400, Note_on_c, 2, 82, 76
4, 83459, Note_on_c, 2, 82, 0
4, 83520, Note_on_c, 2, 79, 76
4, 83579, Note_on_c, 2, 79, 0
4, 83640, Note_on_c, 2, 68, 127
4, 83654, Note_on_c, 2, 68, 0
4, 83655, Note_on_c, 2, 67, 118
4, 83669, Note_on_c, 2, 67, 0
4, 83670, Note_on_c, 2, 68, 127
4, 83684, Note_on_c, 2, 68, 0
4, 83685, Note_on_c, 2, 67, 118
4, 83699, Note_on_c, 2, 67, 0
4, 83700, Note_on_c, 2, 68, 127
4, 83714, Note_on_c, 2, 68, 0
4, 83715, Note_on_c, 2, 67, 120
4, 83729, Note_on_c, 2, 67, 0
4, 83730, Note_on_c, 2, 65, 127
4, 83744, Note_on_c, 2, 65, 0
4, 83745, Note_on_c, 2, 67, 127
4, 83759, Note_on_c, 2, 67, 0
4, 83760, Note_on_c, 2, 68, 127
4, 83820, Note_on_c, 2, 68, 0
4, 83880, Note_on_c, 2, 70, 127
4, 83940, Note_on_c, 2, 70, 0
4, 84000, Note_on_c, 2, 72, 127
4, 84059, Note_on_c, 2, 72, 0
4, 84120, Note_on_c, 2, 82, 76
4, 84179, Note_on_c, 2, 82, 0
4, 84240, Note_on_c, 2, 79, 76
4, 84299, Note_on_c, 2, 79, 0
4, 84360, Note_on_c, 2, 82, 76
4, 84419, Note_on_c, 2, 82, 0
4, 84480, Note_on_c, 2, 79, 74
4, 84539, Note_on_c, 2, 79, 0
4, 84600, Note_on_c, 2, 68, 108
4, 84614, Note_on_c, 2, 68, 0
4, 84615, Note_on_c, 2, 67, 106
4, 84629, Note_on_c, 2, 67, 0
4, 84630, Note_on_c, 2, 68, 127
4, 84644, Note_on_c, 2, 68, 0
4, 84645, Note_on_c, 2, 67, 110
4, 84659, Note_on_c, 2, 67, 0
4, 84660, Note_on_c, 2, 68, 127
4, 84674, Note_on_c, 2, 68, 0
4, 84675, Note_on_c, 2, 67, 118
4, 84689, Note_on_c, 2, 67, 0
4, 84690, Note_on_c, 2, 65, 127
4, 84704, Note_on_c, 2, 65, 0
4, 84705, Note_on_c, 2, 67, 116
4, 84719, Note_on_c, 2, 67, 0
4, 84720, Note_on_c, 2, 68, 127
4, 84780, Note_on_c, 2, 68, 0
4, 84840, Note_on_c, 2, 70, 127
4, 84900, Note_on_c, 2, 70, 0
4, 84960, Note_on_c, 2, 63, 127
4, 85020, Note_on_c, 2, 63, 0
4, 85200, Note_on_c, 2, 67, 106
4, 85200, Note_on_c, 2, 75, 127
4, 85319, Note_on_c, 2, 67, 0
4, 85319, Note_on_c, 2, 75, 0
4, 85320, Note_on_c, 2, 67, 112
4, 85320, Note_on_c, 2, 75, 127
4, 85439, Note_on_c, 2, 67, 0
4, 85439, Note_on_c, 2, 75, 0
4, 85440, Note_on_c, 2, 75, 127
4, 85440, Note_on_c, 2, 67, 112
4, 85559, Note_on_c, 2, 75, 0
4, 85559, Note_on_c, 2, 67, 0
4, 85560, Note_on_c, 2, 67, 112
4, 85560, Note_on_c, 2, 75, 127
4, 85679, Note_on_c, 2, 67, 0
4, 85679, Note_on_c, 2, 75, 0
4, 85680, Note_on_c, 2, 75, 127
4, 85680, Note_on_c, 2, 67, 127
4, 85799, Note_on_c, 2, 75, 0
4, 85799, Note_on_c, 2, 67, 0
4, 85799, End_track
5, 0, Start_track
5, 0, MIDI_port, 0
5, 0, Title_t, "2nd Violin"
5, 0, Program_c, 3, 40
5, 480, Note_on_c, 3, 63, 114
5, 695, Note_on_c, 3, 63, 0
5, 720, Note_on_c, 3, 67, 114
5, 935, Note_on_c, 3, 67, 0
5, 960, Note_on_c, 3, 70, 114
5, 1004, Note_on_c, 3, 70, 0
5, 1020, Note_on_c, 3, 70, 114
5, 1064, Note_on_c, 3, 70, 0
5, 1080, Note_on_c, 3, 70, 114
5, 1124, Note_on_c, 3, 70, 0
5, 1140, Note_on_c, 3, 70, 114
5, 1184, Note_on_c, 3, 70, 0
5, 1200, Note_on_c, 3, 70, 114
5, 1244, Note_on_c, 3, 70, 0
5, 1260, Note_on_c, 3, 70, 114
5, 1304, Note_on_c, 3, 70, 0
5, 1320, Note_on_c, 3, 70, 114
5, 1364, Note_on_c, 3, 70, 0
5, 1380, Note_on_c, 3, 70, 114
5, 1424, Note_on_c, 3, 70, 0
5, 1440, Note_on_c, 3, 67, 114
5, 1493, Note_on_c, 3, 67, 0
5, 1560, Note_on_c, 3, 63, 114
5, 1613, Note_on_c, 3, 63, 0
5, 1920, Note_on_c, 3, 67, 41
5, 1920, Note_on_c, 3, 58, 41
5, 2399, Note_on_c, 3, 67, 0
5, 2399, Note_on_c, 3, 58, 0
5, 2400, Note_on_c, 3, 67, 41
5, 2400, Note_on_c, 3, 56, 41
5, 2879, Note_on_c, 3, 67, 0
5, 2879, Note_on_c, 3, 56, 0
5, 2880, Note_on_c, 3, 62, 41
5, 2880, Note_on_c, 3, 65, 41
5, 3359, Note_on_c, 3, 62, 0
5, 3359, Note_on_c, 3, 65, 0
5, 3360, Note_on_c, 3, 65, 41
5, 3360, Note_on_c, 3, 55, 41
5, 3839, Note_on_c, 3, 65, 0
5, 3839, Note_on_c, 3, 55, 0
5, 3840, Note_on_c, 3, 63, 41
5, 3840, Note_on_c, 3, 55, 41
5, 4319, Note_on_c, 3, 63, 0
5, 4319, Note_on_c, 3, 55, 0
5, 4320, Note_on_c, 3, 63, 41
5, 4320, Note_on_c, 3, 60, 41
5, 4799, Note_on_c, 3, 63, 0
5, 4799, Note_on_c, 3, 60, 0
5, 4800, Note_on_c, 3, 58, 41
5, 4800, Note_on_c, 3, 62, 41
5, 5279, Note_on_c, 3, 58, 0
5, 5279, Note_on_c, 3, 62, 0
5, 5280, Note_on_c, 3, 63, 41
5, 5280, Note_on_c, 3, 55, 41
5, 5399, Note_on_c, 3, 63, 0
5, 5399, Note_on_c, 3, 55, 0
5, 5760, Note_on_c, 3, 63, 114
5, 5957, Note_on_c, 3, 63, 0
5, 6000, Note_on_c, 3, 67, 114
5, 6197, Note_on_c, 3, 67, 0
5, 6240, Note_on_c, 3, 70, 114
5, 6299, Note_on_c, 3, 70, 0
5, 6300, Note_on_c, 3, 70, 114
5, 6359, Note_on_c, 3, 70, 0
5, 6360, Note_on_c, 3, 70, 114
5, 6419, Note_on_c, 3, 70, 0
5, 6420, Note_on_c, 3, 70, 114
5, 6479, Note_on_c, 3, 70, 0
5, 6480, Note_on_c, 3, 70, 114
5, 6539, Note_on_c, 3, 70, 0
5, 6540, Note_on_c, 3, 70, 114
5, 6599, Note_on_c, 3, 70, 0
5, 6600, Note_on_c, 3, 70, 114
5, 6659, Note_on_c, 3, 70, 0
5, 6660, Note_on_c, 3, 70, 114
5, 6719, Note_on_c, 3, 70, 0
5, 6720, Note_on_c, 3, 67, 114
5, 6791, Note_on_c, 3, 67, 0
5, 6840, Note_on_c, 3, 63, 114
5, 6911, Note_on_c, 3, 63, 0
5, 7200, Note_on_c, 3, 58, 41
5, 7200, Note_on_c, 3, 67, 41
5, 7679, Note_on_c, 3, 58, 0
5, 7679, Note_on_c, 3, 67, 0
5, 7680, Note_on_c, 3, 56, 41
5, 7680, Note_on_c, 3, 67, 41
5, 8159, Note_on_c, 3, 56, 0
5, 8159, Note_on_c, 3, 67, 0
5, 8160, Note_on_c, 3, 62, 41
5, 8160, Note_on_c, 3, 65, 41
5, 8639, Note_on_c, 3, 62, 0
5, 8639, Note_on_c, 3, 65, 0
5, 8640, Note_on_c, 3, 55, 41
5, 8640, Note_on_c, 3, 65, 41
5, 9119, Note_on_c, 3, 55, 0
5, 9119, Note_on_c, 3, 65, 0
5, 9120, Note_on_c, 3, 55, 41
5, 9120, Note_on_c, 3, 63, 41
5, 9599, Note_on_c, 3, 55, 0
5, 9599, Note_on_c, 3, 63, 0
5, 9600, Note_on_c, 3, 63, 41
5, 9600, Note_on_c, 3, 60, 41
5, 9600, Note_on_c, 3, 60, 41
5, 10079, Note_on_c, 3, 63, 0
5, 10079, Note_on_c, 3, 60, 0
5, 10079, Note_on_c, 3, 60, 0
5, 10080, Note_on_c, 3, 58, 41
5, 10080, Note_on_c, 3, 62, 41
5, 10559, Note_on_c, 3, 58, 0
5, 10559, Note_on_c, 3, 62, 0
5, 10560, Note_on_c, 3, 63, 41
5, 10560, Note_on_c, 3, 55, 41
5, 10679, Note_on_c, 3, 63, 0
5, 10679, Note_on_c, 3, 55, 0
5, 11040, Note_on_c, 3, 55, 114
5, 11040, Note_on_c, 3, 63, 114
5, 11069, Note_on_c, 3, 55, 0
5, 11069, Note_on_c, 3, 63, 0
5, 11070, Note_on_c, 3, 58, 41
5, 11099, Note_on_c, 3, 58, 0
5, 11100, Note_on_c, 3, 58, 41
5, 11129, Note_on_c, 3, 58, 0
5, 11130, Note_on_c, 3, 58, 41
5, 11159, Note_on_c, 3, 58, 0
5, 11160, Note_on_c, 3, 58, 41
5, 11189, Note_on_c, 3, 58, 0
5, 11190, Note_on_c, 3, 58, 41
5, 11219, Note_on_c, 3, 58, 0
5, 11220, Note_on_c, 3, 58, 41
5, 11249, Note_on_c, 3, 58, 0
5, 11250, Note_on_c, 3, 58, 41
5, 11279, Note_on_c, 3, 58, 0
5, 11280, Note_on_c, 3, 58, 41
5, 11309, Note_on_c, 3, 58, 0
5, 11310, Note_on_c, 3, 58, 41
5, 11339, Note_on_c, 3, 58, 0
5, 11340, Note_on_c, 3, 58, 41
5, 11369, Note_on_c, 3, 58, 0
5, 11370, Note_on_c, 3, 58, 41
5, 11399, Note_on_c, 3, 58, 0
5, 11400, Note_on_c, 3, 58, 41
5, 11429, Note_on_c, 3, 58, 0
5, 11430, Note_on_c, 3, 58, 41
5, 11459, Note_on_c, 3, 58, 0
5, 11460, Note_on_c, 3, 58, 41
5, 11489, Note_on_c, 3, 58, 0
5, 11490, Note_on_c, 3, 58, 41
5, 11519, Note_on_c, 3, 58, 0
5, 11520, Note_on_c, 3, 58, 58
5, 11579, Note_on_c, 3, 58, 0
5, 11640, Note_on_c, 3, 63, 58
5, 11699, Note_on_c, 3, 63, 0
5, 11760, Note_on_c, 3, 67, 58
5, 11819, Note_on_c, 3, 67, 0
5, 11880, Note_on_c, 3, 70, 58
5, 11939, Note_on_c, 3, 70, 0
5, 12000, Note_on_c, 3, 65, 114
5, 12029, Note_on_c, 3, 65, 0
5, 12030, Note_on_c, 3, 63, 114
5, 12059, Note_on_c, 3, 63, 0
5, 12060, Note_on_c, 3, 62, 114
5, 12089, Note_on_c, 3, 62, 0
5, 12090, Note_on_c, 3, 63, 114
5, 12119, Note_on_c, 3, 63, 0
5, 12120, Note_on_c, 3, 62, 68
5, 12149, Note_on_c, 3, 62, 0
5, 12150, Note_on_c, 3, 62, 68
5, 12179, Note_on_c, 3, 62, 0
5, 12180, Note_on_c, 3, 62, 68
5, 12209, Note_on_c, 3, 62, 0
5, 12210, Note_on_c, 3, 62, 68
5, 12239, Note_on_c, 3, 62, 0
5, 12240, Note_on_c, 3, 62, 68
5, 12269, Note_on_c, 3, 62, 0
5, 12270, Note_on_c, 3, 62, 68
5, 12299, Note_on_c, 3, 62, 0
5, 12300, Note_on_c, 3, 62, 68
5, 12329, Note_on_c, 3, 62, 0
5, 12330, Note_on_c, 3, 62, 68
5, 12359, Note_on_c, 3, 62, 0
5, 12360, Note_on_c, 3, 62, 68
5, 12389, Note_on_c, 3, 62, 0
5, 12390, Note_on_c, 3, 62, 68
5, 12419, Note_on_c, 3, 62, 0
5, 12420, Note_on_c, 3, 62, 68
5, 12449, Note_on_c, 3, 62, 0
5, 12450, Note_on_c, 3, 62, 68
5, 12479, Note_on_c, 3, 62, 0
5, 12480, Note_on_c, 3, 56, 58
5, 12539, Note_on_c, 3, 56, 0
5, 12600, Note_on_c, 3, 65, 58
5, 12659, Note_on_c, 3, 65, 0
5, 12720, Note_on_c, 3, 65, 58
5, 12779, Note_on_c, 3, 65, 0
5, 12840, Note_on_c, 3, 68, 58
5, 12899, Note_on_c, 3, 68, 0
5, 12960, Note_on_c, 3, 67, 114
5, 12989, Note_on_c, 3, 67, 0
5, 12990, Note_on_c, 3, 58, 114
5, 13019, Note_on_c, 3, 58, 0
5, 13020, Note_on_c, 3, 58, 114
5, 13049, Note_on_c, 3, 58, 0
5, 13050, Note_on_c, 3, 58, 114
5, 13079, Note_on_c, 3, 58, 0
5, 13080, Note_on_c, 3, 58, 114
5, 13109, Note_on_c, 3, 58, 0
5, 13110, Note_on_c, 3, 58, 114
5, 13139, Note_on_c, 3, 58, 0
5, 13140, Note_on_c, 3, 58, 114
5, 13169, Note_on_c, 3, 58, 0
5, 13170, Note_on_c, 3, 58, 114
5, 13199, Note_on_c, 3, 58, 0
5, 13200, Note_on_c, 3, 58, 114
5, 13229, Note_on_c, 3, 58, 0
5, 13230, Note_on_c, 3, 58, 114
5, 13259, Note_on_c, 3, 58, 0
5, 13260, Note_on_c, 3, 58, 114
5, 13289, Note_on_c, 3, 58, 0
5, 13290, Note_on_c, 3, 58, 114
5, 13319, Note_on_c, 3, 58, 0
5, 13320, Note_on_c, 3, 58, 114
5, 13349, Note_on_c, 3, 58, 0
5, 13350, Note_on_c, 3, 58, 114
5, 13379, Note_on_c, 3, 58, 0
5, 13380, Note_on_c, 3, 58, 114
5, 13409, Note_on_c, 3, 58, 0
5, 13410, Note_on_c, 3, 58, 114
5, 13439, Note_on_c, 3, 58, 0
5, 13440, Note_on_c, 3, 58, 114
5, 13499, Note_on_c, 3, 58, 0
5, 13560, Note_on_c, 3, 70, 114
5, 13619, Note_on_c, 3, 70, 0
5, 13680, Note_on_c, 3, 75, 114
5, 13739, Note_on_c, 3, 75, 0
5, 13800, Note_on_c, 3, 79, 114
5, 13859, Note_on_c, 3, 79, 0
5, 13920, Note_on_c, 3, 77, 114
5, 14039, Note_on_c, 3, 77, 0
5, 14040, Note_on_c, 3, 77, 114
5, 14159, Note_on_c, 3, 77, 0
5, 14160, Note_on_c, 3, 77, 114
5, 14279, Note_on_c, 3, 77, 0
5, 14280, Note_on_c, 3, 77, 114
5, 14399, Note_on_c, 3, 77, 0
5, 14400, Note_on_c, 3, 77, 114
5, 14639, Note_on_c, 3, 77, 0
5, 14880, Note_on_c, 3, 74, 68
5, 15119, Note_on_c, 3, 74, 0
5, 15120, Note_on_c, 3, 75, 68
5, 15209, Note_on_c, 3, 75, 0
5, 15210, Note_on_c, 3, 74, 68
5, 15239, Note_on_c, 3, 74, 0
5, 15240, Note_on_c, 3, 73, 68
5, 15329, Note_on_c, 3, 73, 0
5, 15330, Note_on_c, 3, 74, 68
5, 15359, Note_on_c, 3, 74, 0
5, 15360, Note_on_c, 3, 74, 68
5, 15419, Note_on_c, 3, 74, 0
5, 15420, Note_on_c, 3, 74, 68
5, 15479, Note_on_c, 3, 74, 0
5, 15480, Note_on_c, 3, 72, 68
5, 15539, Note_on_c, 3, 72, 0
5, 15540, Note_on_c, 3, 70, 68
5, 15599, Note_on_c, 3, 70, 0
5, 15600, Note_on_c, 3, 69, 68
5, 15659, Note_on_c, 3, 69, 0
5, 15660, Note_on_c, 3, 67, 68
5, 15719, Note_on_c, 3, 67, 0
5, 15720, Note_on_c, 3, 65, 68
5, 15779, Note_on_c, 3, 65, 0
5, 15780, Note_on_c, 3, 63, 68
5, 15839, Note_on_c, 3, 63, 0
5, 15840, Note_on_c, 3, 65, 68
5, 16319, Note_on_c, 3, 65, 0
5, 16380, Note_on_c, 3, 74, 68
5, 16439, Note_on_c, 3, 74, 0
5, 16440, Note_on_c, 3, 72, 68
5, 16499, Note_on_c, 3, 72, 0
5, 16500, Note_on_c, 3, 75, 68
5, 16559, Note_on_c, 3, 75, 0
5, 16560, Note_on_c, 3, 74, 68
5, 16619, Note_on_c, 3, 74, 0
5, 16620, Note_on_c, 3, 72, 68
5, 16679, Note_on_c, 3, 72, 0
5, 16680, Note_on_c, 3, 70, 68
5, 16739, Note_on_c, 3, 70, 0
5, 16740, Note_on_c, 3, 69, 68
5, 16799, Note_on_c, 3, 69, 0
5, 16800, Note_on_c, 3, 70, 114
5, 16919, Note_on_c, 3, 70, 0
5, 17280, Note_on_c, 3, 58, 114
5, 17339, Note_on_c, 3, 58, 0
5, 17340, Note_on_c, 3, 70, 114
5, 17459, Note_on_c, 3, 70, 0
5, 17460, Note_on_c, 3, 70, 114
5, 17579, Note_on_c, 3, 70, 0
5, 17580, Note_on_c, 3, 70, 114
5, 17699, Note_on_c, 3, 70, 0
5, 17700, Note_on_c, 3, 70, 114
5, 17759, Note_on_c, 3, 70, 0
5, 17760, Note_on_c, 3, 70, 114
5, 17819, Note_on_c, 3, 70, 0
5, 17820, Note_on_c, 3, 74, 114
5, 17879, Note_on_c, 3, 74, 0
5, 17880, Note_on_c, 3, 72, 114
5, 17939, Note_on_c, 3, 72, 0
5, 17940, Note_on_c, 3, 70, 114
5, 17999, Note_on_c, 3, 70, 0
5, 18000, Note_on_c, 3, 77, 114
5, 18059, Note_on_c, 3, 77, 0
5, 18060, Note_on_c, 3, 74, 114
5, 18119, Note_on_c, 3, 74, 0
5, 18120, Note_on_c, 3, 72, 114
5, 18155, Note_on_c, 3, 72, 0
5, 18180, Note_on_c, 3, 70, 114
5, 18215, Note_on_c, 3, 70, 0
5, 18240, Note_on_c, 3, 70, 114
5, 18329, Note_on_c, 3, 70, 0
5, 18330, Note_on_c, 3, 72, 114
5, 18359, Note_on_c, 3, 72, 0
5, 18360, Note_on_c, 3, 70, 114
5, 18419, Note_on_c, 3, 70, 0
5, 18420, Note_on_c, 3, 70, 114
5, 18479, Note_on_c, 3, 70, 0
5, 18480, Note_on_c, 3, 79, 114
5, 18539, Note_on_c, 3, 79, 0
5, 18540, Note_on_c, 3, 75, 114
5, 18599, Note_on_c, 3, 75, 0
5, 18600, Note_on_c, 3, 72, 114
5, 18635, Note_on_c, 3, 72, 0
5, 18660, Note_on_c, 3, 70, 114
5, 18695, Note_on_c, 3, 70, 0
5, 18720, Note_on_c, 3, 70, 114
5, 18809, Note_on_c, 3, 70, 0
5, 18810, Note_on_c, 3, 72, 114
5, 18839, Note_on_c, 3, 72, 0
5, 18840, Note_on_c, 3, 70, 114
5, 18899, Note_on_c, 3, 70, 0
5, 18900, Note_on_c, 3, 70, 114
5, 18959, Note_on_c, 3, 70, 0
5, 18960, Note_on_c, 3, 77, 114
5, 19019, Note_on_c, 3, 77, 0
5, 19020, Note_on_c, 3, 74, 114
5, 19079, Note_on_c, 3, 74, 0
5, 19080, Note_on_c, 3, 72, 114
5, 19115, Note_on_c, 3, 72, 0
5, 19140, Note_on_c, 3, 70, 114
5, 19175, Note_on_c, 3, 70, 0
5, 19200, Note_on_c, 3, 58, 114
5, 19370, Note_on_c, 3, 58, 0
5, 19380, Note_on_c, 3, 75, 114
5, 19415, Note_on_c, 3, 75, 0
5, 19440, Note_on_c, 3, 74, 114
5, 19475, Note_on_c, 3, 74, 0
5, 19500, Note_on_c, 3, 72, 114
5, 19535, Note_on_c, 3, 72, 0
5, 19560, Note_on_c, 3, 70, 114
5, 19595, Note_on_c, 3, 70, 0
5, 19620, Note_on_c, 3, 69, 114
5, 19655, Note_on_c, 3, 69, 0
5, 19680, Note_on_c, 3, 70, 114
5, 19799, Note_on_c, 3, 70, 0
5, 19860, Note_on_c, 3, 70, 114
5, 19919, Note_on_c, 3, 70, 0
5, 19920, Note_on_c, 3, 77, 114
5, 19979, Note_on_c, 3, 77, 0
5, 19980, Note_on_c, 3, 74, 114
5, 20039, Note_on_c, 3, 74, 0
5, 20040, Note_on_c, 3, 72, 114
5, 20075, Note_on_c, 3, 72, 0
5, 20100, Note_on_c, 3, 70, 114
5, 20135, Note_on_c, 3, 70, 0
5, 20160, Note_on_c, 3, 70, 114
5, 20249, Note_on_c, 3, 70, 0
5, 20250, Note_on_c, 3, 72, 114
5, 20279, Note_on_c, 3, 72, 0
5, 20280, Note_on_c, 3, 70, 114
5, 20339, Note_on_c, 3, 70, 0
5, 20340, Note_on_c, 3, 70, 114
5, 20399, Note_on_c, 3, 70, 0
5, 20400, Note_on_c, 3, 79, 114
5, 20459, Note_on_c, 3, 79, 0
5, 20460, Note_on_c, 3, 75, 114
5, 20519, Note_on_c, 3, 75, 0
5, 20520, Note_on_c, 3, 72, 114
5, 20555, Note_on_c, 3, 72, 0
5, 20580, Note_on_c, 3, 70, 114
5, 20615, Note_on_c, 3, 70, 0
5, 20640, Note_on_c, 3, 70, 114
5, 20729, Note_on_c, 3, 70, 0
5, 20730, Note_on_c, 3, 72, 114
5, 20759, Note_on_c, 3, 72, 0
5, 20760, Note_on_c, 3, 70, 114
5, 20819, Note_on_c, 3, 70, 0
5, 20820, Note_on_c, 3, 70, 114
5, 20879, Note_on_c, 3, 70, 0
5, 20880, Note_on_c, 3, 77, 114
5, 20939, Note_on_c, 3, 77, 0
5, 20940, Note_on_c, 3, 74, 114
5, 20999, Note_on_c, 3, 74, 0
5, 21000, Note_on_c, 3, 72, 114
5, 21035, Note_on_c, 3, 72, 0
5, 21060, Note_on_c, 3, 70, 114
5, 21095, Note_on_c, 3, 70, 0
5, 21120, Note_on_c, 3, 58, 114
5, 21290, Note_on_c, 3, 58, 0
5, 21300, Note_on_c, 3, 75, 114
5, 21335, Note_on_c, 3, 75, 0
5, 21360, Note_on_c, 3, 74, 114
5, 21395, Note_on_c, 3, 74, 0
5, 21420, Note_on_c, 3, 72, 114
5, 21455, Note_on_c, 3, 72, 0
5, 21480, Note_on_c, 3, 70, 114
5, 21515, Note_on_c, 3, 70, 0
5, 21540, Note_on_c, 3, 69, 114
5, 21575, Note_on_c, 3, 69, 0
5, 21600, Note_on_c, 3, 70, 92
5, 21600, Note_on_c, 3, 62, 92
5, 21629, Note_on_c, 3, 70, 0
5, 21629, Note_on_c, 3, 62, 0
5, 21630, Note_on_c, 3, 70, 92
5, 21630, Note_on_c, 3, 62, 92
5, 21659, Note_on_c, 3, 70, 0
5, 21659, Note_on_c, 3, 62, 0
5, 21660, Note_on_c, 3, 62, 92
5, 21660, Note_on_c, 3, 70, 92
5, 21689, Note_on_c, 3, 62, 0
5, 21689, Note_on_c, 3, 70, 0
5, 21690, Note_on_c, 3, 70, 92
5, 21690, Note_on_c, 3, 62, 92
5, 21719, Note_on_c, 3, 70, 0
5, 21719, Note_on_c, 3, 62, 0
5, 21720, Note_on_c, 3, 62, 92
5, 21720, Note_on_c, 3, 70, 92
5, 21749, Note_on_c, 3, 62, 0
5, 21749, Note_on_c, 3, 70, 0
5, 21750, Note_on_c, 3, 70, 92
5, 21750, Note_on_c, 3, 62, 92
5, 21779, Note_on_c, 3, 70, 0
5, 21779, Note_on_c, 3, 62, 0
5, 21780, Note_on_c, 3, 70, 92
5, 21780, Note_on_c, 3, 62, 92
5, 21809, Note_on_c, 3, 70, 0
5, 21809, Note_on_c, 3, 62, 0
5, 21810, Note_on_c, 3, 70, 92
5, 21810, Note_on_c, 3, 62, 92
5, 21839, Note_on_c, 3, 70, 0
5, 21839, Note_on_c, 3, 62, 0
5, 21840, Note_on_c, 3, 70, 92
5, 21840, Note_on_c, 3, 62, 92
5, 21869, Note_on_c, 3, 70, 0
5, 21869, Note_on_c, 3, 62, 0
5, 21870, Note_on_c, 3, 70, 92
5, 21870, Note_on_c, 3, 62, 92
5, 21899, Note_on_c, 3, 70, 0
5, 21899, Note_on_c, 3, 62, 0
5, 21900, Note_on_c, 3, 62, 92
5, 21900, Note_on_c, 3, 70, 92
5, 21929, Note_on_c, 3, 62, 0
5, 21929, Note_on_c, 3, 70, 0
5, 21930, Note_on_c, 3, 70, 92
5, 21930, Note_on_c, 3, 62, 92
5, 21959, Note_on_c, 3, 70, 0
5, 21959, Note_on_c, 3, 62, 0
5, 21960, Note_on_c, 3, 62, 92
5, 21960, Note_on_c, 3, 70, 92
5, 21989, Note_on_c, 3, 62, 0
5, 21989, Note_on_c, 3, 70, 0
5, 21990, Note_on_c, 3, 62, 92
5, 21990, Note_on_c, 3, 70, 92
5, 22019, Note_on_c, 3, 62, 0
5, 22019, Note_on_c, 3, 70, 0
5, 22020, Note_on_c, 3, 62, 92
5, 22020, Note_on_c, 3, 70, 92
5, 22049, Note_on_c, 3, 62, 0
5, 22049, Note_on_c, 3, 70, 0
5, 22050, Note_on_c, 3, 70, 92
5, 22050, Note_on_c, 3, 62, 92
5, 22079, Note_on_c, 3, 70, 0
5, 22079, Note_on_c, 3, 62, 0
5, 22080, Note_on_c, 3, 70, 92
5, 22080, Note_on_c, 3, 62, 92
5, 22109, Note_on_c, 3, 70, 0
5, 22109, Note_on_c, 3, 62, 0
5, 22110, Note_on_c, 3, 62, 92
5, 22110, Note_on_c, 3, 70, 92
5, 22139, Note_on_c, 3, 62, 0
5, 22139, Note_on_c, 3, 70, 0
5, 22140, Note_on_c, 3, 70, 92
5, 22140, Note_on_c, 3, 62, 92
5, 22169, Note_on_c, 3, 70, 0
5, 22169, Note_on_c, 3, 62, 0
5, 22170, Note_on_c, 3, 62, 92
5, 22170, Note_on_c, 3, 70, 92
5, 22199, Note_on_c, 3, 62, 0
5, 22199, Note_on_c, 3, 70, 0
5, 22200, Note_on_c, 3, 70, 92
5, 22200, Note_on_c, 3, 62, 92
5, 22229, Note_on_c, 3, 70, 0
5, 22229, Note_on_c, 3, 62, 0
5, 22230, Note_on_c, 3, 62, 92
5, 22230, Note_on_c, 3, 70, 92
5, 22259, Note_on_c, 3, 62, 0
5, 22259, Note_on_c, 3, 70, 0
5, 22260, Note_on_c, 3, 70, 92
5, 22260, Note_on_c, 3, 62, 92
5, 22289, Note_on_c, 3, 70, 0
5, 22289, Note_on_c, 3, 62, 0
5, 22290, Note_on_c, 3, 62, 92
5, 22290, Note_on_c, 3, 70, 92
5, 22319, Note_on_c, 3, 62, 0
5, 22319, Note_on_c, 3, 70, 0
5, 22320, Note_on_c, 3, 70, 92
5, 22320, Note_on_c, 3, 62, 92
5, 22349, Note_on_c, 3, 70, 0
5, 22349, Note_on_c, 3, 62, 0
5, 22350, Note_on_c, 3, 70, 92
5, 22350, Note_on_c, 3, 62, 92
5, 22379, Note_on_c, 3, 70, 0
5, 22379, Note_on_c, 3, 62, 0
5, 22380, Note_on_c, 3, 70, 92
5, 22380, Note_on_c, 3, 62, 92
5, 22409, Note_on_c, 3, 70, 0
5, 22409, Note_on_c, 3, 62, 0
5, 22410, Note_on_c, 3, 62, 92
5, 22410, Note_on_c, 3, 70, 92
5, 22439, Note_on_c, 3, 62, 0
5, 22439, Note_on_c, 3, 70, 0
5, 22440, Note_on_c, 3, 70, 92
5, 22440, Note_on_c, 3, 62, 92
5, 22469, Note_on_c, 3, 70, 0
5, 22469, Note_on_c, 3, 62, 0
5, 22470, Note_on_c, 3, 70, 92
5, 22470, Note_on_c, 3, 62, 92
5, 22499, Note_on_c, 3, 70, 0
5, 22499, Note_on_c, 3, 62, 0
5, 22500, Note_on_c, 3, 70, 92
5, 22500, Note_on_c, 3, 62, 92
5, 22529, Note_on_c, 3, 70, 0
5, 22529, Note_on_c, 3, 62, 0
5, 22530, Note_on_c, 3, 70, 92
5, 22530, Note_on_c, 3, 62, 92
5, 22559, Note_on_c, 3, 70, 0
5, 22559, Note_on_c, 3, 62, 0
5, 22560, Note_on_c, 3, 70, 92
5, 22560, Note_on_c, 3, 62, 92
5, 22589, Note_on_c, 3, 70, 0
5, 22589, Note_on_c, 3, 62, 0
5, 22590, Note_on_c, 3, 70, 92
5, 22590, Note_on_c, 3, 62, 92
5, 22619, Note_on_c, 3, 70, 0
5, 22619, Note_on_c, 3, 62, 0
5, 22620, Note_on_c, 3, 70, 92
5, 22620, Note_on_c, 3, 62, 92
5, 22649, Note_on_c, 3, 70, 0
5, 22649, Note_on_c, 3, 62, 0
5, 22650, Note_on_c, 3, 70, 92
5, 22650, Note_on_c, 3, 62, 92
5, 22679, Note_on_c, 3, 70, 0
5, 22679, Note_on_c, 3, 62, 0
5, 22680, Note_on_c, 3, 70, 92
5, 22680, Note_on_c, 3, 62, 92
5, 22709, Note_on_c, 3, 70, 0
5, 22709, Note_on_c, 3, 62, 0
5, 22710, Note_on_c, 3, 70, 92
5, 22710, Note_on_c, 3, 62, 92
5, 22739, Note_on_c, 3, 70, 0
5, 22739, Note_on_c, 3, 62, 0
5, 22740, Note_on_c, 3, 62, 92
5, 22740, Note_on_c, 3, 70, 92
5, 22769, Note_on_c, 3, 62, 0
5, 22769, Note_on_c, 3, 70, 0
5, 22770, Note_on_c, 3, 70, 92
5, 22770, Note_on_c, 3, 62, 92
5, 22799, Note_on_c, 3, 70, 0
5, 22799, Note_on_c, 3, 62, 0
5, 22800, Note_on_c, 3, 70, 92
5, 22800, Note_on_c, 3, 62, 92
5, 22829, Note_on_c, 3, 70, 0
5, 22829, Note_on_c, 3, 62, 0
5, 22830, Note_on_c, 3, 70, 92
5, 22830, Note_on_c, 3, 62, 92
5, 22859, Note_on_c, 3, 70, 0
5, 22859, Note_on_c, 3, 62, 0
5, 22860, Note_on_c, 3, 70, 92
5, 22860, Note_on_c, 3, 62, 92
5, 22889, Note_on_c, 3, 70, 0
5, 22889, Note_on_c, 3, 62, 0
5, 22890, Note_on_c, 3, 62, 92
5, 22890, Note_on_c, 3, 70, 92
5, 22919, Note_on_c, 3, 62, 0
5, 22919, Note_on_c, 3, 70, 0
5, 22920, Note_on_c, 3, 70, 92
5, 22920, Note_on_c, 3, 62, 92
5, 22949, Note_on_c, 3, 70, 0
5, 22949, Note_on_c, 3, 62, 0
5, 22950, Note_on_c, 3, 62, 92
5, 22950, Note_on_c, 3, 70, 92
5, 22979, Note_on_c, 3, 62, 0
5, 22979, Note_on_c, 3, 70, 0
5, 22980, Note_on_c, 3, 62, 92
5, 22980, Note_on_c, 3, 70, 92
5, 23009, Note_on_c, 3, 62, 0
5, 23009, Note_on_c, 3, 70, 0
5, 23010, Note_on_c, 3, 70, 92
5, 23010, Note_on_c, 3, 62, 92
5, 23039, Note_on_c, 3, 70, 0
5, 23039, Note_on_c, 3, 62, 0
5, 23040, Note_on_c, 3, 62, 92
5, 23040, Note_on_c, 3, 70, 92
5, 23069, Note_on_c, 3, 62, 0
5, 23069, Note_on_c, 3, 70, 0
5, 23070, Note_on_c, 3, 62, 92
5, 23070, Note_on_c, 3, 70, 92
5, 23099, Note_on_c, 3, 62, 0
5, 23099, Note_on_c, 3, 70, 0
5, 23100, Note_on_c, 3, 62, 92
5, 23100, Note_on_c, 3, 70, 92
5, 23129, Note_on_c, 3, 62, 0
5, 23129, Note_on_c, 3, 70, 0
5, 23130, Note_on_c, 3, 62, 92
5, 23130, Note_on_c, 3, 70, 92
5, 23159, Note_on_c, 3, 62, 0
5, 23159, Note_on_c, 3, 70, 0
5, 23160, Note_on_c, 3, 62, 92
5, 23160, Note_on_c, 3, 70, 92
5, 23189, Note_on_c, 3, 62, 0
5, 23189, Note_on_c, 3, 70, 0
5, 23190, Note_on_c, 3, 70, 92
5, 23190, Note_on_c, 3, 62, 92
5, 23219, Note_on_c, 3, 70, 0
5, 23219, Note_on_c, 3, 62, 0
5, 23220, Note_on_c, 3, 70, 92
5, 23220, Note_on_c, 3, 62, 92
5, 23249, Note_on_c, 3, 70, 0
5, 23249, Note_on_c, 3, 62, 0
5, 23250, Note_on_c, 3, 70, 92
5, 23250, Note_on_c, 3, 62, 92
5, 23279, Note_on_c, 3, 70, 0
5, 23279, Note_on_c, 3, 62, 0
5, 23280, Note_on_c, 3, 63, 114
5, 23280, Note_on_c, 3, 72, 114
5, 23330, Note_on_c, 3, 63, 0
5, 23330, Note_on_c, 3, 72, 0
5, 23400, Note_on_c, 3, 63, 114
5, 23400, Note_on_c, 3, 60, 114
5, 23450, Note_on_c, 3, 63, 0
5, 23450, Note_on_c, 3, 60, 0
5, 23520, Note_on_c, 3, 62, 92
5, 23520, Note_on_c, 3, 70, 92
5, 23549, Note_on_c, 3, 62, 0
5, 23549, Note_on_c, 3, 70, 0
5, 23550, Note_on_c, 3, 74, 92
5, 23579, Note_on_c, 3, 74, 0
5, 23580, Note_on_c, 3, 74, 92
5, 23609, Note_on_c, 3, 74, 0
5, 23610, Note_on_c, 3, 74, 92
5, 23639, Note_on_c, 3, 74, 0
5, 23640, Note_on_c, 3, 74, 92
5, 23669, Note_on_c, 3, 74, 0
5, 23670, Note_on_c, 3, 74, 92
5, 23699, Note_on_c, 3, 74, 0
5, 23700, Note_on_c, 3, 74, 92
5, 23729, Note_on_c, 3, 74, 0
5, 23730, Note_on_c, 3, 74, 92
5, 23759, Note_on_c, 3, 74, 0
5, 23760, Note_on_c, 3, 74, 92
5, 23789, Note_on_c, 3, 74, 0
5, 23790, Note_on_c, 3, 74, 92
5, 23819, Note_on_c, 3, 74, 0
5, 23820, Note_on_c, 3, 74, 92
5, 23849, Note_on_c, 3, 74, 0
5, 23850, Note_on_c, 3, 74, 92
5, 23879, Note_on_c, 3, 74, 0
5, 23880, Note_on_c, 3, 74, 92
5, 23909, Note_on_c, 3, 74, 0
5, 23910, Note_on_c, 3, 74, 92
5, 23939, Note_on_c, 3, 74, 0
5, 23940, Note_on_c, 3, 74, 92
5, 23969, Note_on_c, 3, 74, 0
5, 23970, Note_on_c, 3, 74, 92
5, 23999, Note_on_c, 3, 74, 0
5, 24000, Note_on_c, 3, 74, 92
5, 24029, Note_on_c, 3, 74, 0
5, 24030, Note_on_c, 3, 74, 92
5, 24059, Note_on_c, 3, 74, 0
5, 24060, Note_on_c, 3, 74, 92
5, 24089, Note_on_c, 3, 74, 0
5, 24090, Note_on_c, 3, 74, 92
5, 24119, Note_on_c, 3, 74, 0
5, 24120, Note_on_c, 3, 74, 92
5, 24149, Note_on_c, 3, 74, 0
5, 24150, Note_on_c, 3, 74, 92
5, 24179, Note_on_c, 3, 74, 0
5, 24180, Note_on_c, 3, 74, 92
5, 24209, Note_on_c, 3, 74, 0
5, 24210, Note_on_c, 3, 74, 92
5, 24239, Note_on_c, 3, 74, 0
5, 24240, Note_on_c, 3, 74, 92
5, 24269, Note_on_c, 3, 74, 0
5, 24270, Note_on_c, 3, 74, 92
5, 24299, Note_on_c, 3, 74, 0
5, 24300, Note_on_c, 3, 74, 92
5, 24329, Note_on_c, 3, 74, 0
5, 24330, Note_on_c, 3, 74, 92
5, 24359, Note_on_c, 3, 74, 0
5, 24360, Note_on_c, 3, 74, 92
5, 24389, Note_on_c, 3, 74, 0
5, 24390, Note_on_c, 3, 74, 92
5, 24419, Note_on_c, 3, 74, 0
5, 24420, Note_on_c, 3, 74, 92
5, 24449, Note_on_c, 3, 74, 0
5, 24450, Note_on_c, 3, 74, 92
5, 24479, Note_on_c, 3, 74, 0
5, 24480, Note_on_c, 3, 74, 92
5, 24509, Note_on_c, 3, 74, 0
5, 24510, Note_on_c, 3, 74, 92
5, 24539, Note_on_c, 3, 74, 0
5, 24540, Note_on_c, 3, 74, 92
5, 24569, Note_on_c, 3, 74, 0
5, 24570, Note_on_c, 3, 74, 92
5, 24599, Note_on_c, 3, 74, 0
5, 24600, Note_on_c, 3, 74, 92
5, 24629, Note_on_c, 3, 74, 0
5, 24630, Note_on_c, 3, 74, 92
5, 24659, Note_on_c, 3, 74, 0
5, 24660, Note_on_c, 3, 74, 92
5, 24689, Note_on_c, 3, 74, 0
5, 24690, Note_on_c, 3, 74, 92
5, 24719, Note_on_c, 3, 74, 0
5, 24720, Note_on_c, 3, 74, 92
5, 24749, Note_on_c, 3, 74, 0
5, 24750, Note_on_c, 3, 74, 92
5, 24779, Note_on_c, 3, 74, 0
5, 24780, Note_on_c, 3, 74, 92
5, 24809, Note_on_c, 3, 74, 0
5, 24810, Note_on_c, 3, 74, 92
5, 24839, Note_on_c, 3, 74, 0
5, 24840, Note_on_c, 3, 74, 92
5, 24869, Note_on_c, 3, 74, 0
5, 24870, Note_on_c, 3, 74, 92
5, 24899, Note_on_c, 3, 74, 0
5, 24900, Note_on_c, 3, 74, 92
5, 24929, Note_on_c, 3, 74, 0
5, 24930, Note_on_c, 3, 74, 92
5, 24959, Note_on_c, 3, 74, 0
5, 24960, Note_on_c, 3, 74, 92
5, 24989, Note_on_c, 3, 74, 0
5, 24990, Note_on_c, 3, 74, 92
5, 25019, Note_on_c, 3, 74, 0
5, 25020, Note_on_c, 3, 74, 92
5, 25049, Note_on_c, 3, 74, 0
5, 25050, Note_on_c, 3, 74, 92
5, 25079, Note_on_c, 3, 74, 0
5, 25080, Note_on_c, 3, 74, 92
5, 25109, Note_on_c, 3, 74, 0
5, 25110, Note_on_c, 3, 74, 92
5, 25139, Note_on_c, 3, 74, 0
5, 25140, Note_on_c, 3, 74, 92
5, 25169, Note_on_c, 3, 74, 0
5, 25170, Note_on_c, 3, 74, 92
5, 25199, Note_on_c, 3, 74, 0
5, 25200, Note_on_c, 3, 79, 114
5, 25250, Note_on_c, 3, 79, 0
5, 25320, Note_on_c, 3, 72, 114
5, 25370, Note_on_c, 3, 72, 0
5, 25440, Note_on_c, 3, 74, 114
5, 25489, Note_on_c, 3, 74, 0
5, 25560, Note_on_c, 3, 74, 58
5, 25619, Note_on_c, 3, 74, 0
5, 25680, Note_on_c, 3, 70, 58
5, 25739, Note_on_c, 3, 70, 0
5, 25800, Note_on_c, 3, 74, 58
5, 25859, Note_on_c, 3, 74, 0
5, 25920, Note_on_c, 3, 70, 58
5, 25979, Note_on_c, 3, 70, 0
5, 26040, Note_on_c, 3, 63, 114
5, 26054, Note_on_c, 3, 63, 0
5, 26055, Note_on_c, 3, 62, 114
5, 26069, Note_on_c, 3, 62, 0
5, 26070, Note_on_c, 3, 63, 114
5, 26084, Note_on_c, 3, 63, 0
5, 26085, Note_on_c, 3, 62, 114
5, 26099, Note_on_c, 3, 62, 0
5, 26100, Note_on_c, 3, 63, 114
5, 26114, Note_on_c, 3, 63, 0
5, 26115, Note_on_c, 3, 62, 114
5, 26129, Note_on_c, 3, 62, 0
5, 26130, Note_on_c, 3, 60, 114
5, 26144, Note_on_c, 3, 60, 0
5, 26145, Note_on_c, 3, 62, 114
5, 26159, Note_on_c, 3, 62, 0
5, 26160, Note_on_c, 3, 63, 114
5, 26220, Note_on_c, 3, 63, 0
5, 26280, Note_on_c, 3, 65, 114
5, 26340, Note_on_c, 3, 65, 0
5, 26400, Note_on_c, 3, 67, 114
5, 26430, Note_on_c, 3, 67, 0
5, 26520, Note_on_c, 3, 74, 63
5, 26579, Note_on_c, 3, 74, 0
5, 26640, Note_on_c, 3, 70, 63
5, 26699, Note_on_c, 3, 70, 0
5, 26760, Note_on_c, 3, 74, 63
5, 26819, Note_on_c, 3, 74, 0
5, 26880, Note_on_c, 3, 70, 63
5, 26939, Note_on_c, 3, 70, 0
5, 27000, Note_on_c, 3, 63, 114
5, 27014, Note_on_c, 3, 63, 0
5, 27015, Note_on_c, 3, 62, 114
5, 27029, Note_on_c, 3, 62, 0
5, 27030, Note_on_c, 3, 63, 114
5, 27044, Note_on_c, 3, 63, 0
5, 27045, Note_on_c, 3, 62, 114
5, 27059, Note_on_c, 3, 62, 0
5, 27060, Note_on_c, 3, 63, 114
5, 27074, Note_on_c, 3, 63, 0
5, 27075, Note_on_c, 3, 62, 114
5, 27089, Note_on_c, 3, 62, 0
5, 27090, Note_on_c, 3, 60, 114
5, 27104, Note_on_c, 3, 60, 0
5, 27105, Note_on_c, 3, 62, 114
5, 27119, Note_on_c, 3, 62, 0
5, 27120, Note_on_c, 3, 63, 114
5, 27180, Note_on_c, 3, 63, 0
5, 27240, Note_on_c, 3, 65, 114
5, 27300, Note_on_c, 3, 65, 0
5, 27360, Note_on_c, 3, 70, 114
5, 27360, Note_on_c, 3, 62, 114
5, 27420, Note_on_c, 3, 70, 0
5, 27420, Note_on_c, 3, 62, 0
5, 27600, Note_on_c, 3, 70, 114
5, 27600, Note_on_c, 3, 62, 114
5, 27719, Note_on_c, 3, 70, 0
5, 27719, Note_on_c, 3, 62, 0
5, 27720, Note_on_c, 3, 70, 114
5, 27720, Note_on_c, 3, 62, 114
5, 27839, Note_on_c, 3, 70, 0
5, 27839, Note_on_c, 3, 62, 0
5, 27840, Note_on_c, 3, 62, 114
5, 27840, Note_on_c, 3, 70, 114
5, 27959, Note_on_c, 3, 62, 0
5, 27959, Note_on_c, 3, 70, 0
5, 27960, Note_on_c, 3, 70, 114
5, 27960, Note_on_c, 3, 62, 114
5, 28079, Note_on_c, 3, 70, 0
5, 28079, Note_on_c, 3, 62, 0
5, 28080, Note_on_c, 3, 62, 114
5, 28080, Note_on_c, 3, 70, 114
5, 28199, Note_on_c, 3, 62, 0
5, 28199, Note_on_c, 3, 70, 0
5, 28320, Note_on_c, 3, 63, 114
5, 28535, Note_on_c, 3, 63, 0
5, 28560, Note_on_c, 3, 67, 114
5, 28775, Note_on_c, 3, 67, 0
5, 28800, Note_on_c, 3, 70, 114
5, 28844, Note_on_c, 3, 70, 0
5, 28860, Note_on_c, 3, 70, 114
5, 28904, Note_on_c, 3, 70, 0
5, 28920, Note_on_c, 3, 70, 114
5, 28964, Note_on_c, 3, 70, 0
5, 28980, Note_on_c, 3, 70, 114
5, 29024, Note_on_c, 3, 70, 0
5, 29040, Note_on_c, 3, 70, 114
5, 29084, Note_on_c, 3, 70, 0
5, 29100, Note_on_c, 3, 70, 114
5, 29144, Note_on_c, 3, 70, 0
5, 29160, Note_on_c, 3, 70, 114
5, 29204, Note_on_c, 3, 70, 0
5, 29220, Note_on_c, 3, 70, 114
5, 29264, Note_on_c, 3, 70, 0
5, 29280, Note_on_c, 3, 67, 114
5, 29333, Note_on_c, 3, 67, 0
5, 29400, Note_on_c, 3, 63, 114
5, 29453, Note_on_c, 3, 63, 0
5, 29760, Note_on_c, 3, 67, 41
5, 29760, Note_on_c, 3, 58, 41
5, 30239, Note_on_c, 3, 67, 0
5, 30239, Note_on_c, 3, 58, 0
5, 30240, Note_on_c, 3, 67, 41
5, 30240, Note_on_c, 3, 56, 41
5, 30719, Note_on_c, 3, 67, 0
5, 30719, Note_on_c, 3, 56, 0
5, 30720, Note_on_c, 3, 62, 41
5, 30720, Note_on_c, 3, 65, 41
5, 31199, Note_on_c, 3, 62, 0
5, 31199, Note_on_c, 3, 65, 0
5, 31200, Note_on_c, 3, 65, 41
5, 31200, Note_on_c, 3, 55, 41
5, 31679, Note_on_c, 3, 65, 0
5, 31679, Note_on_c, 3, 55, 0
5, 31680, Note_on_c, 3, 63, 41
5, 31680, Note_on_c, 3, 55, 41
5, 32159, Note_on_c, 3, 63, 0
5, 32159, Note_on_c, 3, 55, 0
5, 32160, Note_on_c, 3, 63, 41
5, 32160, Note_on_c, 3, 60, 41
5, 32639, Note_on_c, 3, 63, 0
5, 32639, Note_on_c, 3, 60, 0
5, 32640, Note_on_c, 3, 58, 41
5, 32640, Note_on_c, 3, 62, 41
5, 33119, Note_on_c, 3, 58, 0
5, 33119, Note_on_c, 3, 62, 0
5, 33120, Note_on_c, 3, 63, 41
5, 33120, Note_on_c, 3, 55, 41
5, 33239, Note_on_c, 3, 63, 0
5, 33239, Note_on_c, 3, 55, 0
5, 33600, Note_on_c, 3, 63, 114
5, 33797, Note_on_c, 3, 63, 0
5, 33840, Note_on_c, 3, 67, 114
5, 34037, Note_on_c, 3, 67, 0
5, 34080, Note_on_c, 3, 70, 114
5, 34139, Note_on_c, 3, 70, 0
5, 34140, Note_on_c, 3, 70, 114
5, 34199, Note_on_c, 3, 70, 0
5, 34200, Note_on_c, 3, 70, 114
5, 34259, Note_on_c, 3, 70, 0
5, 34260, Note_on_c, 3, 70, 114
5, 34319, Note_on_c, 3, 70, 0
5, 34320, Note_on_c, 3, 70, 114
5, 34379, Note_on_c, 3, 70, 0
5, 34380, Note_on_c, 3, 70, 114
5, 34439, Note_on_c, 3, 70, 0
5, 34440, Note_on_c, 3, 70, 114
5, 34499, Note_on_c, 3, 70, 0
5, 34500, Note_on_c, 3, 70, 114
5, 34559, Note_on_c, 3, 70, 0
5, 34560, Note_on_c, 3, 67, 114
5, 34631, Note_on_c, 3, 67, 0
5, 34680, Note_on_c, 3, 63, 114
5, 34751, Note_on_c, 3, 63, 0
5, 35040, Note_on_c, 3, 58, 41
5, 35040, Note_on_c, 3, 67, 41
5, 35519, Note_on_c, 3, 58, 0
5, 35519, Note_on_c, 3, 67, 0
5, 35520, Note_on_c, 3, 56, 41
5, 35520, Note_on_c, 3, 67, 41
5, 35999, Note_on_c, 3, 56, 0
5, 35999, Note_on_c, 3, 67, 0
5, 36000, Note_on_c, 3, 62, 41
5, 36000, Note_on_c, 3, 65, 41
5, 36479, Note_on_c, 3, 62, 0
5, 36479, Note_on_c, 3, 65, 0
5, 36480, Note_on_c, 3, 55, 41
5, 36480, Note_on_c, 3, 65, 41
5, 36959, Note_on_c, 3, 55, 0
5, 36959, Note_on_c, 3, 65, 0
5, 36960, Note_on_c, 3, 55, 41
5, 36960, Note_on_c, 3, 63, 41
5, 37439, Note_on_c, 3, 55, 0
5, 37439, Note_on_c, 3, 63, 0
5, 37440, Note_on_c, 3, 63, 41
5, 37440, Note_on_c, 3, 60, 41
5, 37440, Note_on_c, 3, 60, 41
5, 37919, Note_on_c, 3, 63, 0
5, 37919, Note_on_c, 3, 60, 0
5, 37919, Note_on_c, 3, 60, 0
5, 37920, Note_on_c, 3, 58, 41
5, 37920, Note_on_c, 3, 62, 41
5, 38399, Note_on_c, 3, 58, 0
5, 38399, Note_on_c, 3, 62, 0
5, 38400, Note_on_c, 3, 63, 41
5, 38400, Note_on_c, 3, 55, 41
5, 38519, Note_on_c, 3, 63, 0
5, 38519, Note_on_c, 3, 55, 0
5, 38880, Note_on_c, 3, 55, 114
5, 38880, Note_on_c, 3, 63, 114
5, 38909, Note_on_c, 3, 55, 0
5, 38909, Note_on_c, 3, 63, 0
5, 38910, Note_on_c, 3, 58, 41
5, 38939, Note_on_c, 3, 58, 0
5, 38940, Note_on_c, 3, 58, 41
5, 38969, Note_on_c, 3, 58, 0
5, 38970, Note_on_c, 3, 58, 41
5, 38999, Note_on_c, 3, 58, 0
5, 39000, Note_on_c, 3, 58, 41
5, 39029, Note_on_c, 3, 58, 0
5, 39030, Note_on_c, 3, 58, 41
5, 39059, Note_on_c, 3, 58, 0
5, 39060, Note_on_c, 3, 58, 41
5, 39089, Note_on_c, 3, 58, 0
5, 39090, Note_on_c, 3, 58, 41
5, 39119, Note_on_c, 3, 58, 0
5, 39120, Note_on_c, 3, 58, 41
5, 39149, Note_on_c, 3, 58, 0
5, 39150, Note_on_c, 3, 58, 41
5, 39179, Note_on_c, 3, 58, 0
5, 39180, Note_on_c, 3, 58, 41
5, 39209, Note_on_c, 3, 58, 0
5, 39210, Note_on_c, 3, 58, 41
5, 39239, Note_on_c, 3, 58, 0
5, 39240, Note_on_c, 3, 58, 41
5, 39269, Note_on_c, 3, 58, 0
5, 39270, Note_on_c, 3, 58, 41
5, 39299, Note_on_c, 3, 58, 0
5, 39300, Note_on_c, 3, 58, 41
5, 39329, Note_on_c, 3, 58, 0
5, 39330, Note_on_c, 3, 58, 41
5, 39359, Note_on_c, 3, 58, 0
5, 39360, Note_on_c, 3, 58, 58
5, 39419, Note_on_c, 3, 58, 0
5, 39480, Note_on_c, 3, 63, 58
5, 39539, Note_on_c, 3, 63, 0
5, 39600, Note_on_c, 3, 67, 58
5, 39659, Note_on_c, 3, 67, 0
5, 39720, Note_on_c, 3, 70, 58
5, 39779, Note_on_c, 3, 70, 0
5, 39840, Note_on_c, 3, 65, 114
5, 39869, Note_on_c, 3, 65, 0
5, 39870, Note_on_c, 3, 63, 114
5, 39899, Note_on_c, 3, 63, 0
5, 39900, Note_on_c, 3, 62, 114
5, 39929, Note_on_c, 3, 62, 0
5, 39930, Note_on_c, 3, 63, 114
5, 39959, Note_on_c, 3, 63, 0
5, 39960, Note_on_c, 3, 62, 68
5, 39989, Note_on_c, 3, 62, 0
5, 39990, Note_on_c, 3, 62, 68
5, 40019, Note_on_c, 3, 62, 0
5, 40020, Note_on_c, 3, 62, 68
5, 40049, Note_on_c, 3, 62, 0
5, 40050, Note_on_c, 3, 62, 68
5, 40079, Note_on_c, 3, 62, 0
5, 40080, Note_on_c, 3, 62, 68
5, 40109, Note_on_c, 3, 62, 0
5, 40110, Note_on_c, 3, 62, 68
5, 40139, Note_on_c, 3, 62, 0
5, 40140, Note_on_c, 3, 62, 68
5, 40169, Note_on_c, 3, 62, 0
5, 40170, Note_on_c, 3, 62, 68
5, 40199, Note_on_c, 3, 62, 0
5, 40200, Note_on_c, 3, 62, 68
5, 40229, Note_on_c, 3, 62, 0
5, 40230, Note_on_c, 3, 62, 68
5, 40259, Note_on_c, 3, 62, 0
5, 40260, Note_on_c, 3, 62, 68
5, 40289, Note_on_c, 3, 62, 0
5, 40290, Note_on_c, 3, 62, 68
5, 40319, Note_on_c, 3, 62, 0
5, 40320, Note_on_c, 3, 56, 58
5, 40379, Note_on_c, 3, 56, 0
5, 40440, Note_on_c, 3, 65, 58
5, 40499, Note_on_c, 3, 65, 0
5, 40560, Note_on_c, 3, 65, 58
5, 40619, Note_on_c, 3, 65, 0
5, 40680, Note_on_c, 3, 68, 58
5, 40739, Note_on_c, 3, 68, 0
5, 40800, Note_on_c, 3, 67, 114
5, 40829, Note_on_c, 3, 67, 0
5, 40830, Note_on_c, 3, 58, 114
5, 40859, Note_on_c, 3, 58, 0
5, 40860, Note_on_c, 3, 58, 114
5, 40889, Note_on_c, 3, 58, 0
5, 40890, Note_on_c, 3, 58, 114
5, 40919, Note_on_c, 3, 58, 0
5, 40920, Note_on_c, 3, 58, 114
5, 40949, Note_on_c, 3, 58, 0
5, 40950, Note_on_c, 3, 58, 114
5, 40979, Note_on_c, 3, 58, 0
5, 40980, Note_on_c, 3, 58, 114
5, 41009, Note_on_c, 3, 58, 0
5, 41010, Note_on_c, 3, 58, 114
5, 41039, Note_on_c, 3, 58, 0
5, 41040, Note_on_c, 3, 58, 114
5, 41069, Note_on_c, 3, 58, 0
5, 41070, Note_on_c, 3, 58, 114
5, 41099, Note_on_c, 3, 58, 0
5, 41100, Note_on_c, 3, 58, 114
5, 41129, Note_on_c, 3, 58, 0
5, 41130, Note_on_c, 3, 58, 114
5, 41159, Note_on_c, 3, 58, 0
5, 41160, Note_on_c, 3, 58, 114
5, 41189, Note_on_c, 3, 58, 0
5, 41190, Note_on_c, 3, 58, 114
5, 41219, Note_on_c, 3, 58, 0
5, 41220, Note_on_c, 3, 58, 114
5, 41249, Note_on_c, 3, 58, 0
5, 41250, Note_on_c, 3, 58, 114
5, 41279, Note_on_c, 3, 58, 0
5, 41280, Note_on_c, 3, 58, 114
5, 41339, Note_on_c, 3, 58, 0
5, 41400, Note_on_c, 3, 70, 114
5, 41459, Note_on_c, 3, 70, 0
5, 41520, Note_on_c, 3, 75, 114
5, 41579, Note_on_c, 3, 75, 0
5, 41640, Note_on_c, 3, 79, 114
5, 41699, Note_on_c, 3, 79, 0
5, 41760, Note_on_c, 3, 77, 114
5, 41879, Note_on_c, 3, 77, 0
5, 41880, Note_on_c, 3, 77, 114
5, 41999, Note_on_c, 3, 77, 0
5, 42000, Note_on_c, 3, 77, 114
5, 42119, Note_on_c, 3, 77, 0
5, 42120, Note_on_c, 3, 77, 114
5, 42239, Note_on_c, 3, 77, 0
5, 42240, Note_on_c, 3, 77, 114
5, 42479, Note_on_c, 3, 77, 0
5, 42720, Note_on_c, 3, 74, 68
5, 42959, Note_on_c, 3, 74, 0
5, 42960, Note_on_c, 3, 75, 68
5, 43049, Note_on_c, 3, 75, 0
5, 43050, Note_on_c, 3, 74, 68
5, 43079, Note_on_c, 3, 74, 0
5, 43080, Note_on_c, 3, 73, 68
5, 43169, Note_on_c, 3, 73, 0
5, 43170, Note_on_c, 3, 74, 68
5, 43199, Note_on_c, 3, 74, 0
5, 43200, Note_on_c, 3, 74, 68
5, 43259, Note_on_c, 3, 74, 0
5, 43260, Note_on_c, 3, 74, 68
5, 43319, Note_on_c, 3, 74, 0
5, 43320, Note_on_c, 3, 72, 68
5, 43379, Note_on_c, 3, 72, 0
5, 43380, Note_on_c, 3, 70, 68
5, 43439, Note_on_c, 3, 70, 0
5, 43440, Note_on_c, 3, 69, 68
5, 43499, Note_on_c, 3, 69, 0
5, 43500, Note_on_c, 3, 67, 68
5, 43559, Note_on_c, 3, 67, 0
5, 43560, Note_on_c, 3, 65, 68
5, 43619, Note_on_c, 3, 65, 0
5, 43620, Note_on_c, 3, 63, 68
5, 43679, Note_on_c, 3, 63, 0
5, 43680, Note_on_c, 3, 65, 68
5, 44159, Note_on_c, 3, 65, 0
5, 44220, Note_on_c, 3, 74, 68
5, 44279, Note_on_c, 3, 74, 0
5, 44280, Note_on_c, 3, 72, 68
5, 44339, Note_on_c, 3, 72, 0
5, 44340, Note_on_c, 3, 75, 68
5, 44399, Note_on_c, 3, 75, 0
5, 44400, Note_on_c, 3, 74, 68
5, 44459, Note_on_c, 3, 74, 0
5, 44460, Note_on_c, 3, 72, 68
5, 44519, Note_on_c, 3, 72, 0
5, 44520, Note_on_c, 3, 70, 68
5, 44579, Note_on_c, 3, 70, 0
5, 44580, Note_on_c, 3, 69, 68
5, 44639, Note_on_c, 3, 69, 0
5, 44640, Note_on_c, 3, 70, 114
5, 44759, Note_on_c, 3, 70, 0
5, 45120, Note_on_c, 3, 58, 114
5, 45179, Note_on_c, 3, 58, 0
5, 45180, Note_on_c, 3, 70, 114
5, 45299, Note_on_c, 3, 70, 0
5, 45300, Note_on_c, 3, 70, 114
5, 45419, Note_on_c, 3, 70, 0
5, 45420, Note_on_c, 3, 70, 114
5, 45539, Note_on_c, 3, 70, 0
5, 45540, Note_on_c, 3, 70, 114
5, 45599, Note_on_c, 3, 70, 0
5, 45600, Note_on_c, 3, 70, 114
5, 45659, Note_on_c, 3, 70, 0
5, 45660, Note_on_c, 3, 74, 114
5, 45719, Note_on_c, 3, 74, 0
5, 45720, Note_on_c, 3, 72, 114
5, 45779, Note_on_c, 3, 72, 0
5, 45780, Note_on_c, 3, 70, 114
5, 45839, Note_on_c, 3, 70, 0
5, 45840, Note_on_c, 3, 77, 114
5, 45899, Note_on_c, 3, 77, 0
5, 45900, Note_on_c, 3, 74, 114
5, 45959, Note_on_c, 3, 74, 0
5, 45960, Note_on_c, 3, 72, 114
5, 45995, Note_on_c, 3, 72, 0
5, 46020, Note_on_c, 3, 70, 114
5, 46055, Note_on_c, 3, 70, 0
5, 46080, Note_on_c, 3, 70, 114
5, 46169, Note_on_c, 3, 70, 0
5, 46170, Note_on_c, 3, 72, 114
5, 46199, Note_on_c, 3, 72, 0
5, 46200, Note_on_c, 3, 70, 114
5, 46259, Note_on_c, 3, 70, 0
5, 46260, Note_on_c, 3, 70, 114
5, 46319, Note_on_c, 3, 70, 0
5, 46320, Note_on_c, 3, 79, 114
5, 46379, Note_on_c, 3, 79, 0
5, 46380, Note_on_c, 3, 75, 114
5, 46439, Note_on_c, 3, 75, 0
5, 46440, Note_on_c, 3, 72, 114
5, 46475, Note_on_c, 3, 72, 0
5, 46500, Note_on_c, 3, 70, 114
5, 46535, Note_on_c, 3, 70, 0
5, 46560, Note_on_c, 3, 70, 114
5, 46649, Note_on_c, 3, 70, 0
5, 46650, Note_on_c, 3, 72, 114
5, 46679, Note_on_c, 3, 72, 0
5, 46680, Note_on_c, 3, 70, 114
5, 46739, Note_on_c, 3, 70, 0
5, 46740, Note_on_c, 3, 70, 114
5, 46799, Note_on_c, 3, 70, 0
5, 46800, Note_on_c, 3, 77, 114
5, 46859, Note_on_c, 3, 77, 0
5, 46860, Note_on_c, 3, 74, 114
5, 46919, Note_on_c, 3, 74, 0
5, 46920, Note_on_c, 3, 72, 114
5, 46955, Note_on_c, 3, 72, 0
5, 46980, Note_on_c, 3, 70, 114
5, 47015, Note_on_c, 3, 70, 0
5, 47040, Note_on_c, 3, 58, 114
5, 47210, Note_on_c, 3, 58, 0
5, 47220, Note_on_c, 3, 75, 114
5, 47255, Note_on_c, 3, 75, 0
5, 47280, Note_on_c, 3, 74, 114
5, 47315, Note_on_c, 3, 74, 0
5, 47340, Note_on_c, 3, 72, 114
5, 47375, Note_on_c, 3, 72, 0
5, 47400, Note_on_c, 3, 70, 114
5, 47435, Note_on_c, 3, 70, 0
5, 47460, Note_on_c, 3, 69, 114
5, 47495, Note_on_c, 3, 69, 0
5, 47520, Note_on_c, 3, 70, 114
5, 47639, Note_on_c, 3, 70, 0
5, 47700, Note_on_c, 3, 70, 114
5, 47759, Note_on_c, 3, 70, 0
5, 47760, Note_on_c, 3, 77, 114
5, 47819, Note_on_c, 3, 77, 0
5, 47820, Note_on_c, 3, 74, 114
5, 47879, Note_on_c, 3, 74, 0
5, 47880, Note_on_c, 3, 72, 114
5, 47915, Note_on_c, 3, 72, 0
5, 47940, Note_on_c, 3, 70, 114
5, 47975, Note_on_c, 3, 70, 0
5, 48000, Note_on_c, 3, 70, 114
5, 48089, Note_on_c, 3, 70, 0
5, 48090, Note_on_c, 3, 72, 114
5, 48119, Note_on_c, 3, 72, 0
5, 48120, Note_on_c, 3, 70, 114
5, 48179, Note_on_c, 3, 70, 0
5, 48180, Note_on_c, 3, 70, 114
5, 48239, Note_on_c, 3, 70, 0
5, 48240, Note_on_c, 3, 79, 114
5, 48299, Note_on_c, 3, 79, 0
5, 48300, Note_on_c, 3, 75, 114
5, 48359, Note_on_c, 3, 75, 0
5, 48360, Note_on_c, 3, 72, 114
5, 48395, Note_on_c, 3, 72, 0
5, 48420, Note_on_c, 3, 70, 114
5, 48455, Note_on_c, 3, 70, 0
5, 48480, Note_on_c, 3, 70, 114
5, 48569, Note_on_c, 3, 70, 0
5, 48570, Note_on_c, 3, 72, 114
5, 48599, Note_on_c, 3, 72, 0
5, 48600, Note_on_c, 3, 70, 114
5, 48659, Note_on_c, 3, 70, 0
5, 48660, Note_on_c, 3, 70, 114
5, 48719, Note_on_c, 3, 70, 0
5, 48720, Note_on_c, 3, 77, 114
5, 48779, Note_on_c, 3, 77, 0
5, 48780, Note_on_c, 3, 74, 114
5, 48839, Note_on_c, 3, 74, 0
5, 48840, Note_on_c, 3, 72, 114
5, 48875, Note_on_c, 3, 72, 0
5, 48900, Note_on_c, 3, 70, 114
5, 48935, Note_on_c, 3, 70, 0
5, 48960, Note_on_c, 3, 58, 114
5, 49130, Note_on_c, 3, 58, 0
5, 49140, Note_on_c, 3, 75, 114
5, 49175, Note_on_c, 3, 75, 0
5, 49200, Note_on_c, 3, 74, 114
5, 49235, Note_on_c, 3, 74, 0
5, 49260, Note_on_c, 3, 72, 114
5, 49295, Note_on_c, 3, 72, 0
5, 49320, Note_on_c, 3, 70, 114
5, 49355, Note_on_c, 3, 70, 0
5, 49380, Note_on_c, 3, 69, 114
5, 49415, Note_on_c, 3, 69, 0
5, 49440, Note_on_c, 3, 70, 92
5, 49440, Note_on_c, 3, 62, 92
5, 49469, Note_on_c, 3, 70, 0
5, 49469, Note_on_c, 3, 62, 0
5, 49470, Note_on_c, 3, 70, 92
5, 49470, Note_on_c, 3, 62, 92
5, 49499, Note_on_c, 3, 70, 0
5, 49499, Note_on_c, 3, 62, 0
5, 49500, Note_on_c, 3, 62, 92
5, 49500, Note_on_c, 3, 70, 92
5, 49529, Note_on_c, 3, 62, 0
5, 49529, Note_on_c, 3, 70, 0
5, 49530, Note_on_c, 3, 70, 92
5, 49530, Note_on_c, 3, 62, 92
5, 49559, Note_on_c, 3, 70, 0
5, 49559, Note_on_c, 3, 62, 0
5, 49560, Note_on_c, 3, 62, 92
5, 49560, Note_on_c, 3, 70, 92
5, 49589, Note_on_c, 3, 62, 0
5, 49589, Note_on_c, 3, 70, 0
5, 49590, Note_on_c, 3, 70, 92
5, 49590, Note_on_c, 3, 62, 92
5, 49619, Note_on_c, 3, 70, 0
5, 49619, Note_on_c, 3, 62, 0
5, 49620, Note_on_c, 3, 70, 92
5, 49620, Note_on_c, 3, 62, 92
5, 49649, Note_on_c, 3, 70, 0
5, 49649, Note_on_c, 3, 62, 0
5, 49650, Note_on_c, 3, 70, 92
5, 49650, Note_on_c, 3, 62, 92
5, 49679, Note_on_c, 3, 70, 0
5, 49679, Note_on_c, 3, 62, 0
5, 49680, Note_on_c, 3, 70, 92
5, 49680, Note_on_c, 3, 62, 92
5, 49709, Note_on_c, 3, 70, 0
5, 49709, Note_on_c, 3, 62, 0
5, 49710, Note_on_c, 3, 70, 92
5, 49710, Note_on_c, 3, 62, 92
5, 49739, Note_on_c, 3, 70, 0
5, 49739, Note_on_c, 3, 62, 0
5, 49740, Note_on_c, 3, 62, 92
5, 49740, Note_on_c, 3, 70, 92
5, 49769, Note_on_c, 3, 62, 0
5, 49769, Note_on_c, 3, 70, 0
5, 49770, Note_on_c, 3, 70, 92
5, 49770, Note_on_c, 3, 62, 92
5, 49799, Note_on_c, 3, 70, 0
5, 49799, Note_on_c, 3, 62, 0
5, 49800, Note_on_c, 3, 62, 92
5, 49800, Note_on_c, 3, 70, 92
5, 49829, Note_on_c, 3, 62, 0
5, 49829, Note_on_c, 3, 70, 0
5, 49830, Note_on_c, 3, 62, 92
5, 49830, Note_on_c, 3, 70, 92
5, 49859, Note_on_c, 3, 62, 0
5, 49859, Note_on_c, 3, 70, 0
5, 49860, Note_on_c, 3, 62, 92
5, 49860, Note_on_c, 3, 70, 92
5, 49889, Note_on_c, 3, 62, 0
5, 49889, Note_on_c, 3, 70, 0
5, 49890, Note_on_c, 3, 70, 92
5, 49890, Note_on_c, 3, 62, 92
5, 49919, Note_on_c, 3, 70, 0
5, 49919, Note_on_c, 3, 62, 0
5, 49920, Note_on_c, 3, 70, 92
5, 49920, Note_on_c, 3, 62, 92
5, 49949, Note_on_c, 3, 70, 0
5, 49949, Note_on_c, 3, 62, 0
5, 49950, Note_on_c, 3, 62, 92
5, 49950, Note_on_c, 3, 70, 92
5, 49979, Note_on_c, 3, 62, 0
5, 49979, Note_on_c, 3, 70, 0
5, 49980, Note_on_c, 3, 70, 92
5, 49980, Note_on_c, 3, 62, 92
5, 50009, Note_on_c, 3, 70, 0
5, 50009, Note_on_c, 3, 62, 0
5, 50010, Note_on_c, 3, 62, 92
5, 50010, Note_on_c, 3, 70, 92
5, 50039, Note_on_c, 3, 62, 0
5, 50039, Note_on_c, 3, 70, 0
5, 50040, Note_on_c, 3, 70, 92
5, 50040, Note_on_c, 3, 62, 92
5, 50069, Note_on_c, 3, 70, 0
5, 50069, Note_on_c, 3, 62, 0
5, 50070, Note_on_c, 3, 62, 92
5, 50070, Note_on_c, 3, 70, 92
5, 50099, Note_on_c, 3, 62, 0
5, 50099, Note_on_c, 3, 70, 0
5, 50100, Note_on_c, 3, 70, 92
5, 50100, Note_on_c, 3, 62, 92
5, 50129, Note_on_c, 3, 70, 0
5, 50129, Note_on_c, 3, 62, 0
5, 50130, Note_on_c, 3, 62, 92
5, 50130, Note_on_c, 3, 70, 92
5, 50159, Note_on_c, 3, 62, 0
5, 50159, Note_on_c, 3, 70, 0
5, 50160, Note_on_c, 3, 70, 92
5, 50160, Note_on_c, 3, 62, 92
5, 50189, Note_on_c, 3, 70, 0
5, 50189, Note_on_c, 3, 62, 0
5, 50190, Note_on_c, 3, 70, 92
5, 50190, Note_on_c, 3, 62, 92
5, 50219, Note_on_c, 3, 70, 0
5, 50219, Note_on_c, 3, 62, 0
5, 50220, Note_on_c, 3, 70, 92
5, 50220, Note_on_c, 3, 62, 92
5, 50249, Note_on_c, 3, 70, 0
5, 50249, Note_on_c, 3, 62, 0
5, 50250, Note_on_c, 3, 62, 92
5, 50250, Note_on_c, 3, 70, 92
5, 50279, Note_on_c, 3, 62, 0
5, 50279, Note_on_c, 3, 70, 0
5, 50280, Note_on_c, 3, 70, 92
5, 50280, Note_on_c, 3, 62, 92
5, 50309, Note_on_c, 3, 70, 0
5, 50309, Note_on_c, 3, 62, 0
5, 50310, Note_on_c, 3, 70, 92
5, 50310, Note_on_c, 3, 62, 92
5, 50339, Note_on_c, 3, 70, 0
5, 50339, Note_on_c, 3, 62, 0
5, 50340, Note_on_c, 3, 70, 92
5, 50340, Note_on_c, 3, 62, 92
5, 50369, Note_on_c, 3, 70, 0
5, 50369, Note_on_c, 3, 62, 0
5, 50370, Note_on_c, 3, 70, 92
5, 50370, Note_on_c, 3, 62, 92
5, 50399, Note_on_c, 3, 70, 0
5, 50399, Note_on_c, 3, 62, 0
5, 50400, Note_on_c, 3, 70, 92
5, 50400, Note_on_c, 3, 62, 92
5, 50429, Note_on_c, 3, 70, 0
5, 50429, Note_on_c, 3, 62, 0
5, 50430, Note_on_c, 3, 70, 92
5, 50430, Note_on_c, 3, 62, 92
5, 50459, Note_on_c, 3, 70, 0
5, 50459, Note_on_c, 3, 62, 0
5, 50460, Note_on_c, 3, 70, 92
5, 50460, Note_on_c, 3, 62, 92
5, 50489, Note_on_c, 3, 70, 0
5, 50489, Note_on_c, 3, 62, 0
5, 50490, Note_on_c, 3, 70, 92
5, 50490, Note_on_c, 3, 62, 92
5, 50519, Note_on_c, 3, 70, 0
5, 50519, Note_on_c, 3, 62, 0
5, 50520, Note_on_c, 3, 70, 92
5, 50520, Note_on_c, 3, 62, 92
5, 50549, Note_on_c, 3, 70, 0
5, 50549, Note_on_c, 3, 62, 0
5, 50550, Note_on_c, 3, 70, 92
5, 50550, Note_on_c, 3, 62, 92
5, 50579, Note_on_c, 3, 70, 0
5, 50579, Note_on_c, 3, 62, 0
5, 50580, Note_on_c, 3, 62, 92
5, 50580, Note_on_c, 3, 70, 92
5, 50609, Note_on_c, 3, 62, 0
5, 50609, Note_on_c, 3, 70, 0
5, 50610, Note_on_c, 3, 70, 92
5, 50610, Note_on_c, 3, 62, 92
5, 50639, Note_on_c, 3, 70, 0
5, 50639, Note_on_c, 3, 62, 0
5, 50640, Note_on_c, 3, 70, 92
5, 50640, Note_on_c, 3, 62, 92
5, 50669, Note_on_c, 3, 70, 0
5, 50669, Note_on_c, 3, 62, 0
5, 50670, Note_on_c, 3, 70, 92
5, 50670, Note_on_c, 3, 62, 92
5, 50699, Note_on_c, 3, 70, 0
5, 50699, Note_on_c, 3, 62, 0
5, 50700, Note_on_c, 3, 70, 92
5, 50700, Note_on_c, 3, 62, 92
5, 50729, Note_on_c, 3, 70, 0
5, 50729, Note_on_c, 3, 62, 0
5, 50730, Note_on_c, 3, 62, 92
5, 50730, Note_on_c, 3, 70, 92
5, 50759, Note_on_c, 3, 62, 0
5, 50759, Note_on_c, 3, 70, 0
5, 50760, Note_on_c, 3, 70, 92
5, 50760, Note_on_c, 3, 62, 92
5, 50789, Note_on_c, 3, 70, 0
5, 50789, Note_on_c, 3, 62, 0
5, 50790, Note_on_c, 3, 62, 92
5, 50790, Note_on_c, 3, 70, 92
5, 50819, Note_on_c, 3, 62, 0
5, 50819, Note_on_c, 3, 70, 0
5, 50820, Note_on_c, 3, 62, 92
5, 50820, Note_on_c, 3, 70, 92
5, 50849, Note_on_c, 3, 62, 0
5, 50849, Note_on_c, 3, 70, 0
5, 50850, Note_on_c, 3, 70, 92
5, 50850, Note_on_c, 3, 62, 92
5, 50879, Note_on_c, 3, 70, 0
5, 50879, Note_on_c, 3, 62, 0
5, 50880, Note_on_c, 3, 62, 92
5, 50880, Note_on_c, 3, 70, 92
5, 50909, Note_on_c, 3, 62, 0
5, 50909, Note_on_c, 3, 70, 0
5, 50910, Note_on_c, 3, 62, 92
5, 50910, Note_on_c, 3, 70, 92
5, 50939, Note_on_c, 3, 62, 0
5, 50939, Note_on_c, 3, 70, 0
5, 50940, Note_on_c, 3, 62, 92
5, 50940, Note_on_c, 3, 70, 92
5, 50969, Note_on_c, 3, 62, 0
5, 50969, Note_on_c, 3, 70, 0
5, 50970, Note_on_c, 3, 62, 92
5, 50970, Note_on_c, 3, 70, 92
5, 50999, Note_on_c, 3, 62, 0
5, 50999, Note_on_c, 3, 70, 0
5, 51000, Note_on_c, 3, 62, 92
5, 51000, Note_on_c, 3, 70, 92
5, 51029, Note_on_c, 3, 62, 0
5, 51029, Note_on_c, 3, 70, 0
5, 51030, Note_on_c, 3, 70, 92
5, 51030, Note_on_c, 3, 62, 92
5, 51059, Note_on_c, 3, 70, 0
5, 51059, Note_on_c, 3, 62, 0
5, 51060, Note_on_c, 3, 70, 92
5, 51060, Note_on_c, 3, 62, 92
5, 51089, Note_on_c, 3, 70, 0
5, 51089, Note_on_c, 3, 62, 0
5, 51090, Note_on_c, 3, 70, 92
5, 51090, Note_on_c, 3, 62, 92
5, 51119, Note_on_c, 3, 70, 0
5, 51119, Note_on_c, 3, 62, 0
5, 51120, Note_on_c, 3, 63, 114
5, 51120, Note_on_c, 3, 72, 114
5, 51170, Note_on_c, 3, 63, 0
5, 51170, Note_on_c, 3, 72, 0
5, 51240, Note_on_c, 3, 63, 114
5, 51240, Note_on_c, 3, 60, 114
5, 51290, Note_on_c, 3, 63, 0
5, 51290, Note_on_c, 3, 60, 0
5, 51360, Note_on_c, 3, 62, 92
5, 51360, Note_on_c, 3, 70, 92
5, 51389, Note_on_c, 3, 62, 0
5, 51389, Note_on_c, 3, 70, 0
5, 51390, Note_on_c, 3, 74, 92
5, 51419, Note_on_c, 3, 74, 0
5, 51420, Note_on_c, 3, 74, 92
5, 51449, Note_on_c, 3, 74, 0
5, 51450, Note_on_c, 3, 74, 92
5, 51479, Note_on_c, 3, 74, 0
5, 51480, Note_on_c, 3, 74, 92
5, 51509, Note_on_c, 3, 74, 0
5, 51510, Note_on_c, 3, 74, 92
5, 51539, Note_on_c, 3, 74, 0
5, 51540, Note_on_c, 3, 74, 92
5, 51569, Note_on_c, 3, 74, 0
5, 51570, Note_on_c, 3, 74, 92
5, 51599, Note_on_c, 3, 74, 0
5, 51600, Note_on_c, 3, 74, 92
5, 51629, Note_on_c, 3, 74, 0
5, 51630, Note_on_c, 3, 74, 92
5, 51659, Note_on_c, 3, 74, 0
5, 51660, Note_on_c, 3, 74, 92
5, 51689, Note_on_c, 3, 74, 0
5, 51690, Note_on_c, 3, 74, 92
5, 51719, Note_on_c, 3, 74, 0
5, 51720, Note_on_c, 3, 74, 92
5, 51749, Note_on_c, 3, 74, 0
5, 51750, Note_on_c, 3, 74, 92
5, 51779, Note_on_c, 3, 74, 0
5, 51780, Note_on_c, 3, 74, 92
5, 51809, Note_on_c, 3, 74, 0
5, 51810, Note_on_c, 3, 74, 92
5, 51839, Note_on_c, 3, 74, 0
5, 51840, Note_on_c, 3, 74, 92
5, 51869, Note_on_c, 3, 74, 0
5, 51870, Note_on_c, 3, 74, 92
5, 51899, Note_on_c, 3, 74, 0
5, 51900, Note_on_c, 3, 74, 92
5, 51929, Note_on_c, 3, 74, 0
5, 51930, Note_on_c, 3, 74, 92
5, 51959, Note_on_c, 3, 74, 0
5, 51960, Note_on_c, 3, 74, 92
5, 51989, Note_on_c, 3, 74, 0
5, 51990, Note_on_c, 3, 74, 92
5, 52019, Note_on_c, 3, 74, 0
5, 52020, Note_on_c, 3, 74, 92
5, 52049, Note_on_c, 3, 74, 0
5, 52050, Note_on_c, 3, 74, 92
5, 52079, Note_on_c, 3, 74, 0
5, 52080, Note_on_c, 3, 74, 92
5, 52109, Note_on_c, 3, 74, 0
5, 52110, Note_on_c, 3, 74, 92
5, 52139, Note_on_c, 3, 74, 0
5, 52140, Note_on_c, 3, 74, 92
5, 52169, Note_on_c, 3, 74, 0
5, 52170, Note_on_c, 3, 74, 92
5, 52199, Note_on_c, 3, 74, 0
5, 52200, Note_on_c, 3, 74, 92
5, 52229, Note_on_c, 3, 74, 0
5, 52230, Note_on_c, 3, 74, 92
5, 52259, Note_on_c, 3, 74, 0
5, 52260, Note_on_c, 3, 74, 92
5, 52289, Note_on_c, 3, 74, 0
5, 52290, Note_on_c, 3, 74, 92
5, 52319, Note_on_c, 3, 74, 0
5, 52320, Note_on_c, 3, 74, 92
5, 52349, Note_on_c, 3, 74, 0
5, 52350, Note_on_c, 3, 74, 92
5, 52379, Note_on_c, 3, 74, 0
5, 52380, Note_on_c, 3, 74, 92
5, 52409, Note_on_c, 3, 74, 0
5, 52410, Note_on_c, 3, 74, 92
5, 52439, Note_on_c, 3, 74, 0
5, 52440, Note_on_c, 3, 74, 92
5, 52469, Note_on_c, 3, 74, 0
5, 52470, Note_on_c, 3, 74, 92
5, 52499, Note_on_c, 3, 74, 0
5, 52500, Note_on_c, 3, 74, 92
5, 52529, Note_on_c, 3, 74, 0
5, 52530, Note_on_c, 3, 74, 92
5, 52559, Note_on_c, 3, 74, 0
5, 52560, Note_on_c, 3, 74, 92
5, 52589, Note_on_c, 3, 74, 0
5, 52590, Note_on_c, 3, 74, 92
5, 52619, Note_on_c, 3, 74, 0
5, 52620, Note_on_c, 3, 74, 92
5, 52649, Note_on_c, 3, 74, 0
5, 52650, Note_on_c, 3, 74, 92
5, 52679, Note_on_c, 3, 74, 0
5, 52680, Note_on_c, 3, 74, 92
5, 52709, Note_on_c, 3, 74, 0
5, 52710, Note_on_c, 3, 74, 92
5, 52739, Note_on_c, 3, 74, 0
5, 52740, Note_on_c, 3, 74, 92
5, 52769, Note_on_c, 3, 74, 0
5, 52770, Note_on_c, 3, 74, 92
5, 52799, Note_on_c, 3, 74, 0
5, 52800, Note_on_c, 3, 74, 92
5, 52829, Note_on_c, 3, 74, 0
5, 52830, Note_on_c, 3, 74, 92
5, 52859, Note_on_c, 3, 74, 0
5, 52860, Note_on_c, 3, 74, 92
5, 52889, Note_on_c, 3, 74, 0
5, 52890, Note_on_c, 3, 74, 92
5, 52919, Note_on_c, 3, 74, 0
5, 52920, Note_on_c, 3, 74, 92
5, 52949, Note_on_c, 3, 74, 0
5, 52950, Note_on_c, 3, 74, 92
5, 52979, Note_on_c, 3, 74, 0
5, 52980, Note_on_c, 3, 74, 92
5, 53009, Note_on_c, 3, 74, 0
5, 53010, Note_on_c, 3, 74, 92
5, 53039, Note_on_c, 3, 74, 0
5, 53040, Note_on_c, 3, 79, 114
5, 53090, Note_on_c, 3, 79, 0
5, 53160, Note_on_c, 3, 72, 114
5, 53210, Note_on_c, 3, 72, 0
5, 53280, Note_on_c, 3, 74, 114
5, 53329, Note_on_c, 3, 74, 0
5, 53400, Note_on_c, 3, 74, 58
5, 53459, Note_on_c, 3, 74, 0
5, 53520, Note_on_c, 3, 70, 58
5, 53579, Note_on_c, 3, 70, 0
5, 53640, Note_on_c, 3, 74, 58
5, 53699, Note_on_c, 3, 74, 0
5, 53760, Note_on_c, 3, 70, 58
5, 53819, Note_on_c, 3, 70, 0
5, 53880, Note_on_c, 3, 63, 114
5, 53894, Note_on_c, 3, 63, 0
5, 53895, Note_on_c, 3, 62, 114
5, 53909, Note_on_c, 3, 62, 0
5, 53910, Note_on_c, 3, 63, 114
5, 53924, Note_on_c, 3, 63, 0
5, 53925, Note_on_c, 3, 62, 114
5, 53939, Note_on_c, 3, 62, 0
5, 53940, Note_on_c, 3, 63, 114
5, 53954, Note_on_c, 3, 63, 0
5, 53955, Note_on_c, 3, 62, 114
5, 53969, Note_on_c, 3, 62, 0
5, 53970, Note_on_c, 3, 60, 114
5, 53984, Note_on_c, 3, 60, 0
5, 53985, Note_on_c, 3, 62, 114
5, 53999, Note_on_c, 3, 62, 0
5, 54000, Note_on_c, 3, 63, 114
5, 54060, Note_on_c, 3, 63, 0
5, 54120, Note_on_c, 3, 65, 114
5, 54180, Note_on_c, 3, 65, 0
5, 54240, Note_on_c, 3, 67, 114
5, 54270, Note_on_c, 3, 67, 0
5, 54360, Note_on_c, 3, 74, 63
5, 54419, Note_on_c, 3, 74, 0
5, 54480, Note_on_c, 3, 70, 63
5, 54539, Note_on_c, 3, 70, 0
5, 54600, Note_on_c, 3, 74, 63
5, 54659, Note_on_c, 3, 74, 0
5, 54720, Note_on_c, 3, 70, 63
5, 54779, Note_on_c, 3, 70, 0
5, 54840, Note_on_c, 3, 63, 114
5, 54854, Note_on_c, 3, 63, 0
5, 54855, Note_on_c, 3, 62, 114
5, 54869, Note_on_c, 3, 62, 0
5, 54870, Note_on_c, 3, 63, 114
5, 54884, Note_on_c, 3, 63, 0
5, 54885, Note_on_c, 3, 62, 114
5, 54899, Note_on_c, 3, 62, 0
5, 54900, Note_on_c, 3, 63, 114
5, 54914, Note_on_c, 3, 63, 0
5, 54915, Note_on_c, 3, 62, 114
5, 54929, Note_on_c, 3, 62, 0
5, 54930, Note_on_c, 3, 60, 114
5, 54944, Note_on_c, 3, 60, 0
5, 54945, Note_on_c, 3, 62, 114
5, 54959, Note_on_c, 3, 62, 0
5, 54960, Note_on_c, 3, 63, 114
5, 55020, Note_on_c, 3, 63, 0
5, 55080, Note_on_c, 3, 65, 114
5, 55140, Note_on_c, 3, 65, 0
5, 55200, Note_on_c, 3, 70, 114
5, 55200, Note_on_c, 3, 62, 114
5, 55260, Note_on_c, 3, 70, 0
5, 55260, Note_on_c, 3, 62, 0
5, 55440, Note_on_c, 3, 70, 114
5, 55440, Note_on_c, 3, 62, 114
5, 55559, Note_on_c, 3, 70, 0
5, 55559, Note_on_c, 3, 62, 0
5, 55560, Note_on_c, 3, 70, 114
5, 55560, Note_on_c, 3, 62, 114
5, 55679, Note_on_c, 3, 70, 0
5, 55679, Note_on_c, 3, 62, 0
5, 55680, Note_on_c, 3, 62, 114
5, 55680, Note_on_c, 3, 70, 114
5, 55799, Note_on_c, 3, 62, 0
5, 55799, Note_on_c, 3, 70, 0
5, 55800, Note_on_c, 3, 70, 114
5, 55800, Note_on_c, 3, 62, 114
5, 55919, Note_on_c, 3, 70, 0
5, 55919, Note_on_c, 3, 62, 0
5, 55920, Note_on_c, 3, 62, 114
5, 55920, Note_on_c, 3, 70, 114
5, 56039, Note_on_c, 3, 62, 0
5, 56039, Note_on_c, 3, 70, 0
5, 56160, Note_on_c, 3, 58, 114
5, 56359, Note_on_c, 3, 58, 0
5, 56400, Note_on_c, 3, 62, 114
5, 56598, Note_on_c, 3, 62, 0
5, 56640, Note_on_c, 3, 65, 114
5, 56669, Note_on_c, 3, 65, 0
5, 56700, Note_on_c, 3, 65, 114
5, 56729, Note_on_c, 3, 65, 0
5, 56760, Note_on_c, 3, 65, 114
5, 56789, Note_on_c, 3, 65, 0
5, 56820, Note_on_c, 3, 65, 114
5, 56849, Note_on_c, 3, 65, 0
5, 56880, Note_on_c, 3, 65, 114
5, 56909, Note_on_c, 3, 65, 0
5, 56940, Note_on_c, 3, 65, 114
5, 56969, Note_on_c, 3, 65, 0
5, 57000, Note_on_c, 3, 65, 114
5, 57029, Note_on_c, 3, 65, 0
5, 57060, Note_on_c, 3, 65, 114
5, 57089, Note_on_c, 3, 65, 0
5, 57120, Note_on_c, 3, 62, 114
5, 57178, Note_on_c, 3, 62, 0
5, 57240, Note_on_c, 3, 58, 114
5, 57298, Note_on_c, 3, 58, 0
5, 57600, Note_on_c, 3, 58, 22
5, 57600, Note_on_c, 3, 62, 32
5, 58079, Note_on_c, 3, 58, 0
5, 58079, Note_on_c, 3, 62, 0
5, 58080, Note_on_c, 3, 63, 37
5, 58080, Note_on_c, 3, 55, 26
5, 58559, Note_on_c, 3, 63, 0
5, 58559, Note_on_c, 3, 55, 0
5, 58560, Note_on_c, 3, 63, 33
5, 58560, Note_on_c, 3, 60, 28
5, 59039, Note_on_c, 3, 63, 0
5, 59039, Note_on_c, 3, 60, 0
5, 59040, Note_on_c, 3, 62, 31
5, 59040, Note_on_c, 3, 60, 25
5, 59519, Note_on_c, 3, 62, 0
5, 59519, Note_on_c, 3, 60, 0
5, 59520, Note_on_c, 3, 58, 31
5, 59520, Note_on_c, 3, 62, 33
5, 59999, Note_on_c, 3, 58, 0
5, 59999, Note_on_c, 3, 62, 0
5, 60000, Note_on_c, 3, 63, 34
5, 60000, Note_on_c, 3, 55, 26
5, 60479, Note_on_c, 3, 63, 0
5, 60479, Note_on_c, 3, 55, 0
5, 60480, Note_on_c, 3, 63, 36
5, 60480, Note_on_c, 3, 60, 33
5, 60959, Note_on_c, 3, 63, 0
5, 60959, Note_on_c, 3, 60, 0
5, 60960, Note_on_c, 3, 58, 33
5, 60960, Note_on_c, 3, 62, 34
5, 61079, Note_on_c, 3, 58, 0
5, 61079, Note_on_c, 3, 62, 0
5, 61440, Note_on_c, 3, 60, 114
5, 61628, Note_on_c, 3, 60, 0
5, 61680, Note_on_c, 3, 63, 114
5, 61868, Note_on_c, 3, 63, 0
5, 61920, Note_on_c, 3, 67, 114
5, 61961, Note_on_c, 3, 67, 0
5, 61980, Note_on_c, 3, 67, 114
5, 62021, Note_on_c, 3, 67, 0
5, 62040, Note_on_c, 3, 67, 114
5, 62081, Note_on_c, 3, 67, 0
5, 62100, Note_on_c, 3, 67, 114
5, 62141, Note_on_c, 3, 67, 0
5, 62160, Note_on_c, 3, 67, 114
5, 62201, Note_on_c, 3, 67, 0
5, 62220, Note_on_c, 3, 67, 114
5, 62261, Note_on_c, 3, 67, 0
5, 62280, Note_on_c, 3, 67, 114
5, 62280, Control_c, 3, 7, 53
5, 62280, Control_c, 3, 7, 55
5, 62321, Note_on_c, 3, 67, 0
5, 62340, Note_on_c, 3, 67, 114
5, 62381, Note_on_c, 3, 67, 0
5, 62400, Note_on_c, 3, 63, 114
5, 62458, Note_on_c, 3, 63, 0
5, 62520, Note_on_c, 3, 60, 114
5, 62578, Note_on_c, 3, 60, 0
5, 62880, Control_c, 3, 7, 53
5, 62880, Control_c, 3, 7, 55
5, 62880, Note_on_c, 3, 63, 37
5, 62880, Note_on_c, 3, 60, 25
5, 63359, Note_on_c, 3, 63, 0
5, 63359, Note_on_c, 3, 60, 0
5, 63360, Note_on_c, 3, 60, 27
5, 63360, Note_on_c, 3, 65, 32
5, 63839, Note_on_c, 3, 60, 0
5, 63839, Note_on_c, 3, 65, 0
5, 63840, Note_on_c, 3, 59, 29
5, 63840, Note_on_c, 3, 62, 27
5, 64319, Note_on_c, 3, 59, 0
5, 64319, Note_on_c, 3, 62, 0
5, 64320, Note_on_c, 3, 63, 37
5, 64320, Note_on_c, 3, 60, 29
5, 64799, Note_on_c, 3, 63, 0
5, 64799, Note_on_c, 3, 60, 0
5, 64800, Note_on_c, 3, 63, 37
5, 64800, Note_on_c, 3, 60, 34
5, 65279, Note_on_c, 3, 63, 0
5, 65279, Note_on_c, 3, 60, 0
5, 65280, Note_on_c, 3, 62, 33
5, 65280, Note_on_c, 3, 60, 29
5, 65759, Note_on_c, 3, 62, 0
5, 65759, Note_on_c, 3, 60, 0
5, 65760, Note_on_c, 3, 62, 32
5, 65760, Note_on_c, 3, 59, 31
5, 66239, Note_on_c, 3, 62, 0
5, 66239, Note_on_c, 3, 59, 0
5, 66240, Note_on_c, 3, 72, 34
5, 66240, Note_on_c, 3, 63, 36
5, 66240, Note_on_c, 3, 55, 33
5, 66359, Note_on_c, 3, 72, 0
5, 66359, Note_on_c, 3, 63, 0
5, 66359, Note_on_c, 3, 55, 0
5, 66720, Note_on_c, 3, 60, 80
5, 66749, Note_on_c, 3, 60, 0
5, 66750, Note_on_c, 3, 60, 77
5, 66779, Note_on_c, 3, 60, 0
5, 66780, Note_on_c, 3, 60, 78
5, 66809, Note_on_c, 3, 60, 0
5, 66810, Note_on_c, 3, 60, 77
5, 66839, Note_on_c, 3, 60, 0
5, 66840, Note_on_c, 3, 60, 80
5, 66869, Note_on_c, 3, 60, 0
5, 66870, Note_on_c, 3, 60, 73
5, 66899, Note_on_c, 3, 60, 0
5, 66900, Note_on_c, 3, 60, 73
5, 66929, Note_on_c, 3, 60, 0
5, 66930, Note_on_c, 3, 60, 62
5, 66959, Note_on_c, 3, 60, 0
5, 66960, Note_on_c, 3, 60, 72
5, 66989, Note_on_c, 3, 60, 0
5, 66990, Note_on_c, 3, 60, 70
5, 67019, Note_on_c, 3, 60, 0
5, 67020, Note_on_c, 3, 60, 69
5, 67049, Note_on_c, 3, 60, 0
5, 67050, Note_on_c, 3, 60, 68
5, 67079, Note_on_c, 3, 60, 0
5, 67080, Note_on_c, 3, 60, 75
5, 67109, Note_on_c, 3, 60, 0
5, 67110, Note_on_c, 3, 60, 68
5, 67139, Note_on_c, 3, 60, 0
5, 67140, Note_on_c, 3, 60, 73
5, 67169, Note_on_c, 3, 60, 0
5, 67170, Note_on_c, 3, 60, 72
5, 67199, Note_on_c, 3, 60, 0
5, 67200, Note_on_c, 3, 60, 76
5, 67259, Note_on_c, 3, 60, 0
5, 67320, Note_on_c, 3, 64, 103
5, 67379, Note_on_c, 3, 64, 0
5, 67440, Note_on_c, 3, 67, 110
5, 67499, Note_on_c, 3, 67, 0
5, 67560, Note_on_c, 3, 70, 114
5, 67619, Note_on_c, 3, 70, 0
5, 67680, Note_on_c, 3, 60, 104
5, 67739, Note_on_c, 3, 60, 0
5, 67740, Note_on_c, 3, 60, 112
5, 67799, Note_on_c, 3, 60, 0
5, 67800, Note_on_c, 3, 60, 110
5, 67859, Note_on_c, 3, 60, 0
5, 67860, Note_on_c, 3, 60, 110
5, 67919, Note_on_c, 3, 60, 0
5, 67920, Note_on_c, 3, 60, 110
5, 67979, Note_on_c, 3, 60, 0
5, 67980, Note_on_c, 3, 60, 99
5, 68039, Note_on_c, 3, 60, 0
5, 68040, Note_on_c, 3, 60, 113
5, 68099, Note_on_c, 3, 60, 0
5, 68100, Note_on_c, 3, 60, 112
5, 68159, Note_on_c, 3, 60, 0
5, 68160, Note_on_c, 3, 60, 95
5, 68219, Note_on_c, 3, 60, 0
5, 68280, Note_on_c, 3, 65, 106
5, 68339, Note_on_c, 3, 65, 0
5, 68400, Note_on_c, 3, 68, 114
5, 68459, Note_on_c, 3, 68, 0
5, 68520, Note_on_c, 3, 68, 114
5, 68579, Note_on_c, 3, 68, 0
5, 68640, Note_on_c, 3, 58, 114
5, 68669, Note_on_c, 3, 58, 0
5, 68670, Note_on_c, 3, 58, 114
5, 68699, Note_on_c, 3, 58, 0
5, 68700, Note_on_c, 3, 58, 114
5, 68729, Note_on_c, 3, 58, 0
5, 68730, Note_on_c, 3, 58, 114
5, 68759, Note_on_c, 3, 58, 0
5, 68760, Note_on_c, 3, 58, 114
5, 68789, Note_on_c, 3, 58, 0
5, 68790, Note_on_c, 3, 58, 114
5, 68819, Note_on_c, 3, 58, 0
5, 68820, Note_on_c, 3, 58, 114
5, 68849, Note_on_c, 3, 58, 0
5, 68850, Note_on_c, 3, 58, 114
5, 68879, Note_on_c, 3, 58, 0
5, 68880, Note_on_c, 3, 58, 114
5, 68909, Note_on_c, 3, 58, 0
5, 68910, Note_on_c, 3, 58, 114
5, 68939, Note_on_c, 3, 58, 0
5, 68940, Note_on_c, 3, 58, 114
5, 68969, Note_on_c, 3, 58, 0
5, 68970, Note_on_c, 3, 58, 114
5, 68999, Note_on_c, 3, 58, 0
5, 69000, Note_on_c, 3, 58, 114
5, 69029, Note_on_c, 3, 58, 0
5, 69030, Note_on_c, 3, 58, 114
5, 69059, Note_on_c, 3, 58, 0
5, 69060, Note_on_c, 3, 58, 114
5, 69089, Note_on_c, 3, 58, 0
5, 69090, Note_on_c, 3, 58, 108
5, 69119, Note_on_c, 3, 58, 0
5, 69120, Note_on_c, 3, 58, 95
5, 69179, Note_on_c, 3, 58, 0
5, 69240, Note_on_c, 3, 65, 101
5, 69299, Note_on_c, 3, 65, 0
5, 69360, Note_on_c, 3, 68, 114
5, 69419, Note_on_c, 3, 68, 0
5, 69480, Note_on_c, 3, 74, 108
5, 69539, Note_on_c, 3, 74, 0
5, 69600, Control_c, 3, 7, 53
5, 69600, Control_c, 3, 7, 55
5, 69600, Note_on_c, 3, 58, 114
5, 69629, Note_on_c, 3, 58, 0
5, 69630, Note_on_c, 3, 58, 114
5, 69659, Note_on_c, 3, 58, 0
5, 69660, Note_on_c, 3, 58, 114
5, 69689, Note_on_c, 3, 58, 0
5, 69690, Note_on_c, 3, 58, 114
5, 69719, Note_on_c, 3, 58, 0
5, 69720, Note_on_c, 3, 58, 114
5, 69749, Note_on_c, 3, 58, 0
5, 69750, Note_on_c, 3, 58, 114
5, 69779, Note_on_c, 3, 58, 0
5, 69780, Note_on_c, 3, 58, 114
5, 69809, Note_on_c, 3, 58, 0
5, 69810, Note_on_c, 3, 58, 114
5, 69839, Note_on_c, 3, 58, 0
5, 69840, Note_on_c, 3, 58, 114
5, 69869, Note_on_c, 3, 58, 0
5, 69870, Note_on_c, 3, 58, 113
5, 69899, Note_on_c, 3, 58, 0
5, 69900, Note_on_c, 3, 58, 114
5, 69929, Note_on_c, 3, 58, 0
5, 69930, Note_on_c, 3, 58, 113
5, 69959, Note_on_c, 3, 58, 0
5, 69960, Note_on_c, 3, 58, 114
5, 69989, Note_on_c, 3, 58, 0
5, 69990, Note_on_c, 3, 58, 113
5, 70019, Note_on_c, 3, 58, 0
5, 70020, Note_on_c, 3, 58, 106
5, 70049, Note_on_c, 3, 58, 0
5, 70050, Note_on_c, 3, 58, 114
5, 70079, Note_on_c, 3, 58, 0
5, 70080, Note_on_c, 3, 58, 114
5, 70139, Note_on_c, 3, 58, 0
5, 70200, Note_on_c, 3, 63, 101
5, 70259, Note_on_c, 3, 63, 0
5, 70320, Note_on_c, 3, 67, 113
5, 70379, Note_on_c, 3, 67, 0
5, 70440, Note_on_c, 3, 70, 114
5, 70499, Note_on_c, 3, 70, 0
5, 70560, Note_on_c, 3, 57, 112
5, 70589, Note_on_c, 3, 57, 0
5, 70590, Note_on_c, 3, 57, 94
5, 70619, Note_on_c, 3, 57, 0
5, 70620, Note_on_c, 3, 57, 99
5, 70649, Note_on_c, 3, 57, 0
5, 70650, Note_on_c, 3, 57, 101
5, 70679, Note_on_c, 3, 57, 0
5, 70680, Note_on_c, 3, 57, 110
5, 70709, Note_on_c, 3, 57, 0
5, 70710, Note_on_c, 3, 57, 101
5, 70739, Note_on_c, 3, 57, 0
5, 70740, Note_on_c, 3, 57, 104
5, 70769, Note_on_c, 3, 57, 0
5, 70770, Note_on_c, 3, 57, 101
5, 70799, Note_on_c, 3, 57, 0
5, 70800, Note_on_c, 3, 57, 110
5, 70829, Note_on_c, 3, 57, 0
5, 70830, Note_on_c, 3, 57, 104
5, 70859, Note_on_c, 3, 57, 0
5, 70860, Note_on_c, 3, 57, 104
5, 70889, Note_on_c, 3, 57, 0
5, 70890, Note_on_c, 3, 57, 104
5, 70919, Note_on_c, 3, 57, 0
5, 70920, Note_on_c, 3, 57, 110
5, 70949, Note_on_c, 3, 57, 0
5, 70950, Note_on_c, 3, 57, 110
5, 70979, Note_on_c, 3, 57, 0
5, 70980, Note_on_c, 3, 57, 108
5, 71009, Note_on_c, 3, 57, 0
5, 71010, Note_on_c, 3, 57, 113
5, 71039, Note_on_c, 3, 57, 0
5, 71040, Note_on_c, 3, 65, 112
5, 71099, Note_on_c, 3, 65, 0
5, 71160, Note_on_c, 3, 72, 114
5, 71219, Note_on_c, 3, 72, 0
5, 71280, Note_on_c, 3, 75, 114
5, 71339, Note_on_c, 3, 75, 0
5, 71400, Note_on_c, 3, 72, 113
5, 71459, Note_on_c, 3, 72, 0
5, 71520, Note_on_c, 3, 74, 113
5, 71579, Note_on_c, 3, 74, 0
5, 71580, Note_on_c, 3, 70, 114
5, 71639, Note_on_c, 3, 70, 0
5, 71640, Note_on_c, 3, 69, 114
5, 71699, Note_on_c, 3, 69, 0
5, 71700, Note_on_c, 3, 70, 114
5, 71759, Note_on_c, 3, 70, 0
5, 71760, Note_on_c, 3, 65, 113
5, 71819, Note_on_c, 3, 65, 0
5, 71820, Note_on_c, 3, 70, 114
5, 71879, Note_on_c, 3, 70, 0
5, 71880, Note_on_c, 3, 62, 113
5, 71939, Note_on_c, 3, 62, 0
5, 71940, Note_on_c, 3, 65, 110
5, 71999, Note_on_c, 3, 65, 0
5, 72000, Note_on_c, 3, 58, 113
5, 72059, Note_on_c, 3, 58, 0
5, 72060, Note_on_c, 3, 70, 113
5, 72119, Note_on_c, 3, 70, 0
5, 72120, Note_on_c, 3, 65, 95
5, 72179, Note_on_c, 3, 65, 0
5, 72180, Note_on_c, 3, 62, 95
5, 72239, Note_on_c, 3, 62, 0
5, 72240, Note_on_c, 3, 58, 114
5, 72359, Note_on_c, 3, 58, 0
5, 72480, Note_on_c, 3, 79, 68
5, 72719, Note_on_c, 3, 79, 0
5, 72720, Note_on_c, 3, 80, 56
5, 72809, Note_on_c, 3, 80, 0
5, 72810, Note_on_c, 3, 79, 68
5, 72839, Note_on_c, 3, 79, 0
5, 72840, Note_on_c, 3, 78, 68
5, 72929, Note_on_c, 3, 78, 0
5, 72930, Note_on_c, 3, 79, 68
5, 72959, Note_on_c, 3, 79, 0
5, 72960, Note_on_c, 3, 79, 61
5, 73000, Note_on_c, 3, 79, 0
5, 73020, Note_on_c, 3, 79, 65
5, 73060, Note_on_c, 3, 79, 0
5, 73080, Note_on_c, 3, 77, 53
5, 73120, Note_on_c, 3, 77, 0
5, 73140, Note_on_c, 3, 75, 68
5, 73180, Note_on_c, 3, 75, 0
5, 73200, Note_on_c, 3, 74, 54
5, 73240, Note_on_c, 3, 74, 0
5, 73260, Note_on_c, 3, 72, 60
5, 73300, Note_on_c, 3, 72, 0
5, 73320, Note_on_c, 3, 70, 63
5, 73360, Note_on_c, 3, 70, 0
5, 73380, Note_on_c, 3, 68, 52
5, 73420, Note_on_c, 3, 68, 0
5, 73440, Note_on_c, 3, 67, 60
5, 73919, Note_on_c, 3, 67, 0
5, 73980, Note_on_c, 3, 67, 65
5, 74020, Note_on_c, 3, 67, 0
5, 74040, Note_on_c, 3, 65, 70
5, 74080, Note_on_c, 3, 65, 0
5, 74100, Note_on_c, 3, 68, 72
5, 74140, Note_on_c, 3, 68, 0
5, 74160, Note_on_c, 3, 67, 51
5, 74200, Note_on_c, 3, 67, 0
5, 74220, Note_on_c, 3, 65, 49
5, 74260, Note_on_c, 3, 65, 0
5, 74280, Note_on_c, 3, 63, 53
5, 74320, Note_on_c, 3, 63, 0
5, 74340, Note_on_c, 3, 62, 67
5, 74380, Note_on_c, 3, 62, 0
5, 74400, Note_on_c, 3, 63, 108
5, 74440, Note_on_c, 3, 63, 0
5, 74880, Note_on_c, 3, 55, 95
5, 74880, Note_on_c, 3, 63, 114
5, 74939, Note_on_c, 3, 55, 0
5, 74939, Note_on_c, 3, 63, 0
5, 74940, Note_on_c, 3, 75, 114
5, 75059, Note_on_c, 3, 75, 0
5, 75060, Note_on_c, 3, 75, 114
5, 75179, Note_on_c, 3, 75, 0
5, 75180, Note_on_c, 3, 75, 114
5, 75299, Note_on_c, 3, 75, 0
5, 75300, Note_on_c, 3, 75, 114
5, 75359, Note_on_c, 3, 75, 0
5, 75360, Note_on_c, 3, 75, 114
5, 75479, Note_on_c, 3, 75, 0
5, 75540, Note_on_c, 3, 75, 114
5, 75599, Note_on_c, 3, 75, 0
5, 75600, Note_on_c, 3, 70, 94
5, 75659, Note_on_c, 3, 70, 0
5, 75660, Note_on_c, 3, 67, 86
5, 75719, Note_on_c, 3, 67, 0
5, 75720, Note_on_c, 3, 65, 114
5, 75750, Note_on_c, 3, 65, 0
5, 75780, Note_on_c, 3, 63, 114
5, 75810, Note_on_c, 3, 63, 0
5, 75840, Note_on_c, 3, 63, 114
5, 75929, Note_on_c, 3, 63, 0
5, 75930, Note_on_c, 3, 65, 112
5, 75959, Note_on_c, 3, 65, 0
5, 75960, Note_on_c, 3, 63, 113
5, 76019, Note_on_c, 3, 63, 0
5, 76020, Note_on_c, 3, 63, 114
5, 76079, Note_on_c, 3, 63, 0
5, 76080, Note_on_c, 3, 72, 99
5, 76139, Note_on_c, 3, 72, 0
5, 76140, Note_on_c, 3, 68, 113
5, 76199, Note_on_c, 3, 68, 0
5, 76200, Note_on_c, 3, 65, 112
5, 76230, Note_on_c, 3, 65, 0
5, 76260, Note_on_c, 3, 63, 113
5, 76290, Note_on_c, 3, 63, 0
5, 76320, Note_on_c, 3, 63, 114
5, 76409, Note_on_c, 3, 63, 0
5, 76410, Note_on_c, 3, 65, 110
5, 76439, Note_on_c, 3, 65, 0
5, 76440, Note_on_c, 3, 63, 114
5, 76499, Note_on_c, 3, 63, 0
5, 76500, Note_on_c, 3, 63, 114
5, 76559, Note_on_c, 3, 63, 0
5, 76560, Note_on_c, 3, 70, 114
5, 76619, Note_on_c, 3, 70, 0
5, 76620, Note_on_c, 3, 67, 99
5, 76679, Note_on_c, 3, 67, 0
5, 76680, Note_on_c, 3, 65, 113
5, 76710, Note_on_c, 3, 65, 0
5, 76740, Note_on_c, 3, 63, 114
5, 76770, Note_on_c, 3, 63, 0
5, 76800, Note_on_c, 3, 63, 114
5, 76970, Note_on_c, 3, 63, 0
5, 76980, Note_on_c, 3, 80, 114
5, 77020, Note_on_c, 3, 80, 0
5, 77040, Note_on_c, 3, 79, 114
5, 77080, Note_on_c, 3, 79, 0
5, 77100, Note_on_c, 3, 77, 114
5, 77140, Note_on_c, 3, 77, 0
5, 77160, Note_on_c, 3, 75, 114
5, 77200, Note_on_c, 3, 75, 0
5, 77220, Note_on_c, 3, 74, 104
5, 77260, Note_on_c, 3, 74, 0
5, 77280, Note_on_c, 3, 75, 110
5, 77399, Note_on_c, 3, 75, 0
5, 77460, Note_on_c, 3, 63, 101
5, 77519, Note_on_c, 3, 63, 0
5, 77520, Note_on_c, 3, 70, 114
5, 77579, Note_on_c, 3, 70, 0
5, 77580, Note_on_c, 3, 67, 97
5, 77639, Note_on_c, 3, 67, 0
5, 77640, Note_on_c, 3, 65, 104
5, 77670, Note_on_c, 3, 65, 0
5, 77700, Note_on_c, 3, 63, 113
5, 77730, Note_on_c, 3, 63, 0
5, 77760, Note_on_c, 3, 63, 114
5, 77849, Note_on_c, 3, 63, 0
5, 77850, Note_on_c, 3, 65, 113
5, 77879, Note_on_c, 3, 65, 0
5, 77880, Note_on_c, 3, 63, 114
5, 77939, Note_on_c, 3, 63, 0
5, 77940, Note_on_c, 3, 63, 114
5, 77999, Note_on_c, 3, 63, 0
5, 78000, Note_on_c, 3, 72, 83
5, 78059, Note_on_c, 3, 72, 0
5, 78060, Note_on_c, 3, 68, 113
5, 78119, Note_on_c, 3, 68, 0
5, 78120, Note_on_c, 3, 65, 101
5, 78150, Note_on_c, 3, 65, 0
5, 78180, Note_on_c, 3, 63, 113
5, 78210, Note_on_c, 3, 63, 0
5, 78240, Note_on_c, 3, 63, 114
5, 78329, Note_on_c, 3, 63, 0
5, 78330, Note_on_c, 3, 65, 113
5, 78359, Note_on_c, 3, 65, 0
5, 78360, Note_on_c, 3, 63, 114
5, 78419, Note_on_c, 3, 63, 0
5, 78420, Note_on_c, 3, 63, 110
5, 78479, Note_on_c, 3, 63, 0
5, 78480, Note_on_c, 3, 70, 114
5, 78539, Note_on_c, 3, 70, 0
5, 78540, Note_on_c, 3, 67, 110
5, 78599, Note_on_c, 3, 67, 0
5, 78600, Note_on_c, 3, 65, 110
5, 78630, Note_on_c, 3, 65, 0
5, 78660, Note_on_c, 3, 63, 114
5, 78690, Note_on_c, 3, 63, 0
5, 78720, Note_on_c, 3, 60, 101
5, 78890, Note_on_c, 3, 60, 0
5, 78900, Note_on_c, 3, 68, 114
5, 78940, Note_on_c, 3, 68, 0
5, 78960, Note_on_c, 3, 67, 95
5, 79000, Note_on_c, 3, 67, 0
5, 79020, Note_on_c, 3, 65, 114
5, 79060, Note_on_c, 3, 65, 0
5, 79080, Note_on_c, 3, 63, 113
5, 79120, Note_on_c, 3, 63, 0
5, 79140, Note_on_c, 3, 62, 106
5, 79180, Note_on_c, 3, 62, 0
5, 79200, Note_on_c, 3, 63, 110
5, 79310, Note_on_c, 3, 63, 0
5, 79320, Note_on_c, 3, 67, 81
5, 79320, Note_on_c, 3, 75, 114
5, 79349, Note_on_c, 3, 67, 0
5, 79349, Note_on_c, 3, 75, 0
5, 79350, Note_on_c, 3, 67, 83
5, 79350, Note_on_c, 3, 75, 114
5, 79379, Note_on_c, 3, 67, 0
5, 79379, Note_on_c, 3, 75, 0
5, 79380, Note_on_c, 3, 67, 90
5, 79380, Note_on_c, 3, 75, 114
5, 79409, Note_on_c, 3, 67, 0
5, 79409, Note_on_c, 3, 75, 0
5, 79410, Note_on_c, 3, 67, 81
5, 79410, Note_on_c, 3, 75, 113
5, 79439, Note_on_c, 3, 67, 0
5, 79439, Note_on_c, 3, 75, 0
5, 79440, Note_on_c, 3, 67, 99
5, 79440, Note_on_c, 3, 75, 114
5, 79469, Note_on_c, 3, 67, 0
5, 79469, Note_on_c, 3, 75, 0
5, 79470, Note_on_c, 3, 67, 95
5, 79470, Note_on_c, 3, 75, 114
5, 79499, Note_on_c, 3, 67, 0
5, 79499, Note_on_c, 3, 75, 0
5, 79500, Note_on_c, 3, 67, 95
5, 79500, Note_on_c, 3, 75, 114
5, 79529, Note_on_c, 3, 67, 0
5, 79529, Note_on_c, 3, 75, 0
5, 79530, Note_on_c, 3, 67, 99
5, 79530, Note_on_c, 3, 75, 114
5, 79559, Note_on_c, 3, 67, 0
5, 79559, Note_on_c, 3, 75, 0
5, 79560, Note_on_c, 3, 67, 108
5, 79560, Note_on_c, 3, 75, 114
5, 79589, Note_on_c, 3, 67, 0
5, 79589, Note_on_c, 3, 75, 0
5, 79590, Note_on_c, 3, 67, 101
5, 79590, Note_on_c, 3, 75, 114
5, 79619, Note_on_c, 3, 67, 0
5, 79619, Note_on_c, 3, 75, 0
5, 79620, Note_on_c, 3, 75, 114
5, 79620, Note_on_c, 3, 67, 90
5, 79649, Note_on_c, 3, 75, 0
5, 79649, Note_on_c, 3, 67, 0
5, 79650, Note_on_c, 3, 67, 95
5, 79650, Note_on_c, 3, 75, 114
5, 79679, Note_on_c, 3, 67, 0
5, 79679, Note_on_c, 3, 75, 0
5, 79680, Note_on_c, 3, 75, 114
5, 79680, Note_on_c, 3, 67, 79
5, 79709, Note_on_c, 3, 75, 0
5, 79709, Note_on_c, 3, 67, 0
5, 79710, Note_on_c, 3, 67, 103
5, 79710, Note_on_c, 3, 75, 114
5, 79739, Note_on_c, 3, 67, 0
5, 79739, Note_on_c, 3, 75, 0
5, 79740, Note_on_c, 3, 75, 114
5, 79740, Note_on_c, 3, 67, 86
5, 79769, Note_on_c, 3, 75, 0
5, 79769, Note_on_c, 3, 67, 0
5, 79770, Note_on_c, 3, 67, 95
5, 79770, Note_on_c, 3, 75, 114
5, 79799, Note_on_c, 3, 67, 0
5, 79799, Note_on_c, 3, 75, 0
5, 79800, Note_on_c, 3, 67, 95
5, 79800, Note_on_c, 3, 75, 114
5, 79829, Note_on_c, 3, 67, 0
5, 79829, Note_on_c, 3, 75, 0
5, 79830, Note_on_c, 3, 67, 103
5, 79830, Note_on_c, 3, 75, 114
5, 79859, Note_on_c, 3, 67, 0
5, 79859, Note_on_c, 3, 75, 0
5, 79860, Note_on_c, 3, 67, 99
5, 79860, Note_on_c, 3, 75, 114
5, 79889, Note_on_c, 3, 67, 0
5, 79889, Note_on_c, 3, 75, 0
5, 79890, Note_on_c, 3, 67, 97
5, 79890, Note_on_c, 3, 75, 114
5, 79919, Note_on_c, 3, 67, 0
5, 79919, Note_on_c, 3, 75, 0
5, 79920, Note_on_c, 3, 67, 103
5, 79920, Note_on_c, 3, 75, 114
5, 79949, Note_on_c, 3, 67, 0
5, 79949, Note_on_c, 3, 75, 0
5, 79950, Note_on_c, 3, 67, 104
5, 79950, Note_on_c, 3, 75, 114
5, 79979, Note_on_c, 3, 67, 0
5, 79979, Note_on_c, 3, 75, 0
5, 79980, Note_on_c, 3, 67, 108
5, 79980, Note_on_c, 3, 75, 114
5, 80009, Note_on_c, 3, 67, 0
5, 80009, Note_on_c, 3, 75, 0
5, 80010, Note_on_c, 3, 67, 104
5, 80010, Note_on_c, 3, 75, 114
5, 80039, Note_on_c, 3, 67, 0
5, 80039, Note_on_c, 3, 75, 0
5, 80040, Note_on_c, 3, 67, 110
5, 80040, Note_on_c, 3, 75, 114
5, 80069, Note_on_c, 3, 67, 0
5, 80069, Note_on_c, 3, 75, 0
5, 80070, Note_on_c, 3, 67, 104
5, 80070, Note_on_c, 3, 75, 114
5, 80099, Note_on_c, 3, 67, 0
5, 80099, Note_on_c, 3, 75, 0
5, 80100, Note_on_c, 3, 67, 95
5, 80100, Note_on_c, 3, 75, 114
5, 80129, Note_on_c, 3, 67, 0
5, 80129, Note_on_c, 3, 75, 0
5, 80130, Note_on_c, 3, 67, 104
5, 80130, Note_on_c, 3, 75, 114
5, 80159, Note_on_c, 3, 67, 0
5, 80159, Note_on_c, 3, 75, 0
5, 80160, Note_on_c, 3, 67, 95
5, 80160, Note_on_c, 3, 75, 114
5, 80189, Note_on_c, 3, 67, 0
5, 80189, Note_on_c, 3, 75, 0
5, 80190, Note_on_c, 3, 67, 113
5, 80190, Note_on_c, 3, 75, 114
5, 80219, Note_on_c, 3, 67, 0
5, 80219, Note_on_c, 3, 75, 0
5, 80220, Note_on_c, 3, 67, 104
5, 80220, Note_on_c, 3, 75, 114
5, 80249, Note_on_c, 3, 67, 0
5, 80249, Note_on_c, 3, 75, 0
5, 80250, Note_on_c, 3, 67, 94
5, 80250, Note_on_c, 3, 75, 114
5, 80279, Note_on_c, 3, 67, 0
5, 80279, Note_on_c, 3, 75, 0
5, 80280, Note_on_c, 3, 67, 108
5, 80280, Note_on_c, 3, 75, 114
5, 80309, Note_on_c, 3, 67, 0
5, 80309, Note_on_c, 3, 75, 0
5, 80310, Note_on_c, 3, 67, 88
5, 80310, Note_on_c, 3, 75, 114
5, 80339, Note_on_c, 3, 67, 0
5, 80339, Note_on_c, 3, 75, 0
5, 80340, Note_on_c, 3, 67, 99
5, 80340, Note_on_c, 3, 75, 114
5, 80369, Note_on_c, 3, 67, 0
5, 80369, Note_on_c, 3, 75, 0
5, 80370, Note_on_c, 3, 67, 104
5, 80370, Note_on_c, 3, 75, 114
5, 80399, Note_on_c, 3, 67, 0
5, 80399, Note_on_c, 3, 75, 0
5, 80400, Note_on_c, 3, 67, 104
5, 80400, Note_on_c, 3, 75, 114
5, 80429, Note_on_c, 3, 67, 0
5, 80429, Note_on_c, 3, 75, 0
5, 80430, Note_on_c, 3, 67, 104
5, 80430, Note_on_c, 3, 75, 114
5, 80459, Note_on_c, 3, 67, 0
5, 80459, Note_on_c, 3, 75, 0
5, 80460, Note_on_c, 3, 67, 104
5, 80460, Note_on_c, 3, 75, 114
5, 80489, Note_on_c, 3, 67, 0
5, 80489, Note_on_c, 3, 75, 0
5, 80490, Note_on_c, 3, 67, 99
5, 80490, Note_on_c, 3, 75, 114
5, 80519, Note_on_c, 3, 67, 0
5, 80519, Note_on_c, 3, 75, 0
5, 80520, Note_on_c, 3, 67, 108
5, 80520, Note_on_c, 3, 75, 114
5, 80549, Note_on_c, 3, 67, 0
5, 80549, Note_on_c, 3, 75, 0
5, 80550, Note_on_c, 3, 67, 103
5, 80550, Note_on_c, 3, 75, 114
5, 80579, Note_on_c, 3, 67, 0
5, 80579, Note_on_c, 3, 75, 0
5, 80580, Note_on_c, 3, 67, 108
5, 80580, Note_on_c, 3, 75, 114
5, 80609, Note_on_c, 3, 67, 0
5, 80609, Note_on_c, 3, 75, 0
5, 80610, Note_on_c, 3, 67, 106
5, 80610, Note_on_c, 3, 75, 114
5, 80639, Note_on_c, 3, 67, 0
5, 80639, Note_on_c, 3, 75, 0
5, 80640, Note_on_c, 3, 75, 114
5, 80640, Note_on_c, 3, 67, 99
5, 80669, Note_on_c, 3, 75, 0
5, 80669, Note_on_c, 3, 67, 0
5, 80670, Note_on_c, 3, 67, 108
5, 80670, Note_on_c, 3, 75, 114
5, 80699, Note_on_c, 3, 67, 0
5, 80699, Note_on_c, 3, 75, 0
5, 80700, Note_on_c, 3, 67, 94
5, 80700, Note_on_c, 3, 75, 114
5, 80729, Note_on_c, 3, 67, 0
5, 80729, Note_on_c, 3, 75, 0
5, 80730, Note_on_c, 3, 67, 110
5, 80730, Note_on_c, 3, 75, 114
5, 80759, Note_on_c, 3, 67, 0
5, 80759, Note_on_c, 3, 75, 0
5, 80760, Note_on_c, 3, 67, 113
5, 80760, Note_on_c, 3, 75, 114
5, 80789, Note_on_c, 3, 67, 0
5, 80789, Note_on_c, 3, 75, 0
5, 80790, Note_on_c, 3, 67, 114
5, 80790, Note_on_c, 3, 75, 114
5, 80819, Note_on_c, 3, 67, 0
5, 80819, Note_on_c, 3, 75, 0
5, 80820, Note_on_c, 3, 67, 114
5, 80820, Note_on_c, 3, 75, 114
5, 80849, Note_on_c, 3, 67, 0
5, 80849, Note_on_c, 3, 75, 0
5, 80850, Note_on_c, 3, 75, 114
5, 80850, Note_on_c, 3, 67, 103
5, 80879, Note_on_c, 3, 75, 0
5, 80879, Note_on_c, 3, 67, 0
5, 80880, Note_on_c, 3, 72, 114
5, 80940, Note_on_c, 3, 72, 0
5, 81000, Note_on_c, 3, 70, 114
5, 81060, Note_on_c, 3, 70, 0
5, 81120, Note_on_c, 3, 70, 114
5, 81135, Note_on_c, 3, 70, 0
5, 81150, Note_on_c, 3, 79, 110
5, 81150, Note_on_c, 3, 75, 114
5, 81179, Note_on_c, 3, 79, 0
5, 81179, Note_on_c, 3, 75, 0
5, 81180, Note_on_c, 3, 75, 114
5, 81180, Note_on_c, 3, 79, 101
5, 81209, Note_on_c, 3, 75, 0
5, 81209, Note_on_c, 3, 79, 0
5, 81210, Note_on_c, 3, 79, 101
5, 81210, Note_on_c, 3, 75, 114
5, 81239, Note_on_c, 3, 79, 0
5, 81239, Note_on_c, 3, 75, 0
5, 81240, Note_on_c, 3, 79, 94
5, 81240, Note_on_c, 3, 75, 110
5, 81269, Note_on_c, 3, 79, 0
5, 81269, Note_on_c, 3, 75, 0
5, 81270, Note_on_c, 3, 75, 114
5, 81270, Note_on_c, 3, 79, 110
5, 81299, Note_on_c, 3, 75, 0
5, 81299, Note_on_c, 3, 79, 0
5, 81300, Note_on_c, 3, 75, 114
5, 81300, Note_on_c, 3, 79, 106
5, 81329, Note_on_c, 3, 75, 0
5, 81329, Note_on_c, 3, 79, 0
5, 81330, Note_on_c, 3, 75, 94
5, 81330, Note_on_c, 3, 79, 101
5, 81359, Note_on_c, 3, 75, 0
5, 81359, Note_on_c, 3, 79, 0
5, 81360, Note_on_c, 3, 75, 114
5, 81360, Note_on_c, 3, 79, 112
5, 81389, Note_on_c, 3, 75, 0
5, 81389, Note_on_c, 3, 79, 0
5, 81390, Note_on_c, 3, 79, 106
5, 81390, Note_on_c, 3, 75, 112
5, 81419, Note_on_c, 3, 79, 0
5, 81419, Note_on_c, 3, 75, 0
5, 81420, Note_on_c, 3, 75, 106
5, 81420, Note_on_c, 3, 79, 101
5, 81449, Note_on_c, 3, 75, 0
5, 81449, Note_on_c, 3, 79, 0
5, 81450, Note_on_c, 3, 75, 112
5, 81450, Note_on_c, 3, 79, 99
5, 81479, Note_on_c, 3, 75, 0
5, 81479, Note_on_c, 3, 79, 0
5, 81480, Note_on_c, 3, 75, 114
5, 81480, Note_on_c, 3, 79, 114
5, 81509, Note_on_c, 3, 75, 0
5, 81509, Note_on_c, 3, 79, 0
5, 81510, Note_on_c, 3, 75, 114
5, 81510, Note_on_c, 3, 79, 108
5, 81539, Note_on_c, 3, 75, 0
5, 81539, Note_on_c, 3, 79, 0
5, 81540, Note_on_c, 3, 79, 104
5, 81540, Note_on_c, 3, 75, 113
5, 81569, Note_on_c, 3, 79, 0
5, 81569, Note_on_c, 3, 75, 0
5, 81570, Note_on_c, 3, 79, 112
5, 81570, Note_on_c, 3, 75, 114
5, 81599, Note_on_c, 3, 79, 0
5, 81599, Note_on_c, 3, 75, 0
5, 81600, Note_on_c, 3, 79, 113
5, 81600, Note_on_c, 3, 75, 114
5, 81629, Note_on_c, 3, 79, 0
5, 81629, Note_on_c, 3, 75, 0
5, 81630, Note_on_c, 3, 75, 114
5, 81630, Note_on_c, 3, 79, 104
5, 81659, Note_on_c, 3, 75, 0
5, 81659, Note_on_c, 3, 79, 0
5, 81660, Note_on_c, 3, 79, 114
5, 81660, Note_on_c, 3, 75, 114
5, 81689, Note_on_c, 3, 79, 0
5, 81689, Note_on_c, 3, 75, 0
5, 81690, Note_on_c, 3, 79, 110
5, 81690, Note_on_c, 3, 75, 113
5, 81719, Note_on_c, 3, 79, 0
5, 81719, Note_on_c, 3, 75, 0
5, 81720, Note_on_c, 3, 79, 114
5, 81720, Note_on_c, 3, 75, 114
5, 81749, Note_on_c, 3, 79, 0
5, 81749, Note_on_c, 3, 75, 0
5, 81750, Note_on_c, 3, 75, 114
5, 81750, Note_on_c, 3, 79, 104
5, 81779, Note_on_c, 3, 75, 0
5, 81779, Note_on_c, 3, 79, 0
5, 81780, Note_on_c, 3, 79, 114
5, 81780, Note_on_c, 3, 75, 114
5, 81809, Note_on_c, 3, 79, 0
5, 81809, Note_on_c, 3, 75, 0
5, 81810, Note_on_c, 3, 75, 108
5, 81810, Note_on_c, 3, 79, 101
5, 81839, Note_on_c, 3, 75, 0
5, 81839, Note_on_c, 3, 79, 0
5, 81840, Note_on_c, 3, 79, 114
5, 81840, Note_on_c, 3, 75, 114
5, 81869, Note_on_c, 3, 79, 0
5, 81869, Note_on_c, 3, 75, 0
5, 81870, Note_on_c, 3, 79, 106
5, 81870, Note_on_c, 3, 75, 114
5, 81899, Note_on_c, 3, 79, 0
5, 81899, Note_on_c, 3, 75, 0
5, 81900, Note_on_c, 3, 75, 110
5, 81900, Note_on_c, 3, 79, 101
5, 81929, Note_on_c, 3, 75, 0
5, 81929, Note_on_c, 3, 79, 0
5, 81930, Note_on_c, 3, 75, 114
5, 81930, Note_on_c, 3, 79, 113
5, 81959, Note_on_c, 3, 75, 0
5, 81959, Note_on_c, 3, 79, 0
5, 81960, Note_on_c, 3, 75, 114
5, 81960, Note_on_c, 3, 79, 104
5, 81989, Note_on_c, 3, 75, 0
5, 81989, Note_on_c, 3, 79, 0
5, 81990, Note_on_c, 3, 75, 113
5, 81990, Note_on_c, 3, 79, 104
5, 82019, Note_on_c, 3, 75, 0
5, 82019, Note_on_c, 3, 79, 0
5, 82020, Note_on_c, 3, 75, 114
5, 82020, Note_on_c, 3, 79, 112
5, 82049, Note_on_c, 3, 75, 0
5, 82049, Note_on_c, 3, 79, 0
5, 82050, Note_on_c, 3, 75, 114
5, 82050, Note_on_c, 3, 79, 110
5, 82079, Note_on_c, 3, 75, 0
5, 82079, Note_on_c, 3, 79, 0
5, 82080, Note_on_c, 3, 79, 110
5, 82080, Note_on_c, 3, 75, 104
5, 82109, Note_on_c, 3, 79, 0
5, 82109, Note_on_c, 3, 75, 0
5, 82110, Note_on_c, 3, 75, 114
5, 82110, Note_on_c, 3, 79, 112
5, 82139, Note_on_c, 3, 75, 0
5, 82139, Note_on_c, 3, 79, 0
5, 82140, Note_on_c, 3, 75, 112
5, 82140, Note_on_c, 3, 79, 79
5, 82169, Note_on_c, 3, 75, 0
5, 82169, Note_on_c, 3, 79, 0
5, 82170, Note_on_c, 3, 79, 95
5, 82170, Note_on_c, 3, 75, 95
5, 82199, Note_on_c, 3, 79, 0
5, 82199, Note_on_c, 3, 75, 0
5, 82200, Note_on_c, 3, 75, 114
5, 82200, Note_on_c, 3, 79, 114
5, 82229, Note_on_c, 3, 75, 0
5, 82229, Note_on_c, 3, 79, 0
5, 82230, Note_on_c, 3, 75, 110
5, 82230, Note_on_c, 3, 79, 106
5, 82259, Note_on_c, 3, 75, 0
5, 82259, Note_on_c, 3, 79, 0
5, 82260, Note_on_c, 3, 79, 104
5, 82260, Note_on_c, 3, 75, 112
5, 82289, Note_on_c, 3, 79, 0
5, 82289, Note_on_c, 3, 75, 0
5, 82290, Note_on_c, 3, 75, 114
5, 82290, Note_on_c, 3, 79, 104
5, 82319, Note_on_c, 3, 75, 0
5, 82319, Note_on_c, 3, 79, 0
5, 82320, Note_on_c, 3, 75, 114
5, 82320, Note_on_c, 3, 79, 113
5, 82349, Note_on_c, 3, 75, 0
5, 82349, Note_on_c, 3, 79, 0
5, 82350, Note_on_c, 3, 75, 108
5, 82350, Note_on_c, 3, 79, 99
5, 82379, Note_on_c, 3, 75, 0
5, 82379, Note_on_c, 3, 79, 0
5, 82380, Note_on_c, 3, 75, 114
5, 82380, Note_on_c, 3, 79, 104
5, 82409, Note_on_c, 3, 75, 0
5, 82409, Note_on_c, 3, 79, 0
5, 82410, Note_on_c, 3, 75, 99
5, 82410, Note_on_c, 3, 79, 90
5, 82439, Note_on_c, 3, 75, 0
5, 82439, Note_on_c, 3, 79, 0
5, 82440, Note_on_c, 3, 75, 114
5, 82440, Note_on_c, 3, 79, 108
5, 82469, Note_on_c, 3, 75, 0
5, 82469, Note_on_c, 3, 79, 0
5, 82470, Note_on_c, 3, 75, 112
5, 82470, Note_on_c, 3, 79, 106
5, 82499, Note_on_c, 3, 75, 0
5, 82499, Note_on_c, 3, 79, 0
5, 82500, Note_on_c, 3, 79, 104
5, 82500, Note_on_c, 3, 75, 113
5, 82529, Note_on_c, 3, 79, 0
5, 82529, Note_on_c, 3, 75, 0
5, 82530, Note_on_c, 3, 75, 114
5, 82530, Note_on_c, 3, 79, 104
5, 82559, Note_on_c, 3, 75, 0
5, 82559, Note_on_c, 3, 79, 0
5, 82560, Note_on_c, 3, 79, 104
5, 82560, Note_on_c, 3, 75, 104
5, 82589, Note_on_c, 3, 79, 0
5, 82589, Note_on_c, 3, 75, 0
5, 82590, Note_on_c, 3, 75, 97
5, 82590, Note_on_c, 3, 79, 101
5, 82619, Note_on_c, 3, 75, 0
5, 82619, Note_on_c, 3, 79, 0
5, 82620, Note_on_c, 3, 75, 114
5, 82620, Note_on_c, 3, 79, 112
5, 82649, Note_on_c, 3, 75, 0
5, 82649, Note_on_c, 3, 79, 0
5, 82650, Note_on_c, 3, 75, 104
5, 82650, Note_on_c, 3, 79, 99
5, 82679, Note_on_c, 3, 75, 0
5, 82679, Note_on_c, 3, 79, 0
5, 82680, Note_on_c, 3, 75, 114
5, 82680, Note_on_c, 3, 79, 110
5, 82709, Note_on_c, 3, 75, 0
5, 82709, Note_on_c, 3, 79, 0
5, 82710, Note_on_c, 3, 75, 104
5, 82710, Note_on_c, 3, 79, 101
5, 82739, Note_on_c, 3, 75, 0
5, 82739, Note_on_c, 3, 79, 0
5, 82740, Note_on_c, 3, 75, 113
5, 82740, Note_on_c, 3, 79, 103
5, 82769, Note_on_c, 3, 75, 0
5, 82769, Note_on_c, 3, 79, 0
5, 82770, Note_on_c, 3, 75, 114
5, 82770, Note_on_c, 3, 79, 90
5, 82799, Note_on_c, 3, 75, 0
5, 82799, Note_on_c, 3, 79, 0
5, 82800, Note_on_c, 3, 77, 113
5, 82860, Note_on_c, 3, 77, 0
5, 82920, Note_on_c, 3, 65, 101
5, 82980, Note_on_c, 3, 65, 0
5, 83040, Note_on_c, 3, 67, 114
5, 83080, Note_on_c, 3, 67, 0
5, 83160, Note_on_c, 3, 79, 68
5, 83219, Note_on_c, 3, 79, 0
5, 83280, Note_on_c, 3, 75, 68
5, 83339, Note_on_c, 3, 75, 0
5, 83400, Note_on_c, 3, 79, 66
5, 83459, Note_on_c, 3, 79, 0
5, 83520, Note_on_c, 3, 75, 68
5, 83579, Note_on_c, 3, 75, 0
5, 83640, Note_on_c, 3, 68, 114
5, 83654, Note_on_c, 3, 68, 0
5, 83655, Note_on_c, 3, 67, 110
5, 83669, Note_on_c, 3, 67, 0
5, 83670, Note_on_c, 3, 68, 114
5, 83684, Note_on_c, 3, 68, 0
5, 83685, Note_on_c, 3, 67, 95
5, 83699, Note_on_c, 3, 67, 0
5, 83700, Note_on_c, 3, 68, 114
5, 83714, Note_on_c, 3, 68, 0
5, 83715, Note_on_c, 3, 67, 106
5, 83729, Note_on_c, 3, 67, 0
5, 83730, Note_on_c, 3, 65, 112
5, 83744, Note_on_c, 3, 65, 0
5, 83745, Note_on_c, 3, 67, 110
5, 83759, Note_on_c, 3, 67, 0
5, 83760, Note_on_c, 3, 68, 114
5, 83820, Note_on_c, 3, 68, 0
5, 83880, Note_on_c, 3, 70, 114
5, 83940, Note_on_c, 3, 70, 0
5, 84000, Note_on_c, 3, 72, 103
5, 84059, Note_on_c, 3, 72, 0
5, 84120, Note_on_c, 3, 79, 68
5, 84179, Note_on_c, 3, 79, 0
5, 84240, Note_on_c, 3, 75, 68
5, 84299, Note_on_c, 3, 75, 0
5, 84360, Note_on_c, 3, 79, 68
5, 84419, Note_on_c, 3, 79, 0
5, 84480, Note_on_c, 3, 75, 68
5, 84539, Note_on_c, 3, 75, 0
5, 84600, Note_on_c, 3, 68, 110
5, 84614, Note_on_c, 3, 68, 0
5, 84615, Note_on_c, 3, 67, 106
5, 84629, Note_on_c, 3, 67, 0
5, 84630, Note_on_c, 3, 68, 114
5, 84644, Note_on_c, 3, 68, 0
5, 84645, Note_on_c, 3, 67, 99
5, 84659, Note_on_c, 3, 67, 0
5, 84660, Note_on_c, 3, 68, 114
5, 84674, Note_on_c, 3, 68, 0
5, 84675, Note_on_c, 3, 67, 103
5, 84689, Note_on_c, 3, 67, 0
5, 84690, Note_on_c, 3, 65, 101
5, 84704, Note_on_c, 3, 65, 0
5, 84705, Note_on_c, 3, 67, 103
5, 84719, Note_on_c, 3, 67, 0
5, 84720, Note_on_c, 3, 68, 112
5, 84780, Note_on_c, 3, 68, 0
5, 84840, Note_on_c, 3, 70, 114
5, 84900, Note_on_c, 3, 70, 0
5, 84960, Note_on_c, 3, 63, 114
5, 85020, Note_on_c, 3, 63, 0
5, 85200, Note_on_c, 3, 63, 114
5, 85200, Note_on_c, 3, 55, 90
5, 85319, Note_on_c, 3, 63, 0
5, 85319, Note_on_c, 3, 55, 0
5, 85320, Note_on_c, 3, 63, 114
5, 85320, Note_on_c, 3, 55, 97
5, 85439, Note_on_c, 3, 63, 0
5, 85439, Note_on_c, 3, 55, 0
5, 85440, Note_on_c, 3, 63, 114
5, 85440, Note_on_c, 3, 55, 94
5, 85559, Note_on_c, 3, 63, 0
5, 85559, Note_on_c, 3, 55, 0
5, 85560, Note_on_c, 3, 63, 114
5, 85560, Note_on_c, 3, 55, 113
5, 85679, Note_on_c, 3, 63, 0
5, 85679, Note_on_c, 3, 55, 0
5, 85680, Note_on_c, 3, 55, 113
5, 85680, Note_on_c, 3, 63, 114
5, 85799, Note_on_c, 3, 55, 0
5, 85799, Note_on_c, 3, 63, 0
5, 85799, End_track
6, 0, Start_track
6, 0, MIDI_port, 0
6, 0, Title_t, "Viola"
6, 0, Program_c, 4, 41
6, 480, Note_on_c, 4, 63, 114
6, 695, Note_on_c, 4, 63, 0
6, 720, Note_on_c, 4, 67, 114
6, 935, Note_on_c, 4, 67, 0
6, 960, Note_on_c, 4, 70, 114
6, 1004, Note_on_c, 4, 70, 0
6, 1020, Note_on_c, 4, 70, 114
6, 1064, Note_on_c, 4, 70, 0
6, 1080, Note_on_c, 4, 70, 114
6, 1124, Note_on_c, 4, 70, 0
6, 1140, Note_on_c, 4, 70, 114
6, 1184, Note_on_c, 4, 70, 0
6, 1200, Note_on_c, 4, 70, 114
6, 1244, Note_on_c, 4, 70, 0
6, 1260, Note_on_c, 4, 70, 114
6, 1304, Note_on_c, 4, 70, 0
6, 1320, Note_on_c, 4, 70, 114
6, 1364, Note_on_c, 4, 70, 0
6, 1380, Note_on_c, 4, 70, 114
6, 1424, Note_on_c, 4, 70, 0
6, 1440, Note_on_c, 4, 67, 114
6, 1493, Note_on_c, 4, 67, 0
6, 1560, Note_on_c, 4, 63, 114
6, 1613, Note_on_c, 4, 63, 0
6, 1920, Note_on_c, 4, 55, 41
6, 1920, Note_on_c, 4, 63, 41
6, 2399, Note_on_c, 4, 55, 0
6, 2399, Note_on_c, 4, 63, 0
6, 2400, Note_on_c, 4, 63, 41
6, 2400, Note_on_c, 4, 60, 41
6, 2879, Note_on_c, 4, 63, 0
6, 2879, Note_on_c, 4, 60, 0
6, 2880, Note_on_c, 4, 58, 41
6, 2880, Note_on_c, 4, 62, 41
6, 3359, Note_on_c, 4, 58, 0
6, 3359, Note_on_c, 4, 62, 0
6, 3360, Note_on_c, 4, 58, 41
6, 3839, Note_on_c, 4, 58, 0
6, 3840, Note_on_c, 4, 58, 41
6, 3840, Note_on_c, 4, 63, 41
6, 4319, Note_on_c, 4, 58, 0
6, 4319, Note_on_c, 4, 63, 0
6, 4320, Note_on_c, 4, 63, 41
6, 4320, Note_on_c, 4, 60, 41
6, 4799, Note_on_c, 4, 63, 0
6, 4799, Note_on_c, 4, 60, 0
6, 4800, Note_on_c, 4, 56, 41
6, 4800, Note_on_c, 4, 62, 41
6, 5279, Note_on_c, 4, 56, 0
6, 5279, Note_on_c, 4, 62, 0
6, 5280, Note_on_c, 4, 63, 41
6, 5280, Note_on_c, 4, 55, 41
6, 5399, Note_on_c, 4, 63, 0
6, 5399, Note_on_c, 4, 55, 0
6, 5760, Note_on_c, 4, 63, 114
6, 5957, Note_on_c, 4, 63, 0
6, 6000, Note_on_c, 4, 67, 114
6, 6197, Note_on_c, 4, 67, 0
6, 6240, Note_on_c, 4, 70, 114
6, 6299, Note_on_c, 4, 70, 0
6, 6300, Note_on_c, 4, 70, 114
6, 6359, Note_on_c, 4, 70, 0
6, 6360, Note_on_c, 4, 70, 114
6, 6419, Note_on_c, 4, 70, 0
6, 6420, Note_on_c, 4, 70, 114
6, 6479, Note_on_c, 4, 70, 0
6, 6480, Note_on_c, 4, 70, 114
6, 6539, Note_on_c, 4, 70, 0
6, 6540, Note_on_c, 4, 70, 114
6, 6599, Note_on_c, 4, 70, 0
6, 6600, Note_on_c, 4, 70, 114
6, 6659, Note_on_c, 4, 70, 0
6, 6660, Note_on_c, 4, 70, 114
6, 6719, Note_on_c, 4, 70, 0
6, 6720, Note_on_c, 4, 67, 114
6, 6791, Note_on_c, 4, 67, 0
6, 6840, Note_on_c, 4, 63, 114
6, 6911, Note_on_c, 4, 63, 0
6, 7200, Note_on_c, 4, 63, 41
6, 7200, Note_on_c, 4, 55, 41
6, 7679, Note_on_c, 4, 63, 0
6, 7679, Note_on_c, 4, 55, 0
6, 7680, Note_on_c, 4, 63, 41
6, 7680, Note_on_c, 4, 60, 41
6, 8159, Note_on_c, 4, 63, 0
6, 8159, Note_on_c, 4, 60, 0
6, 8160, Note_on_c, 4, 58, 41
6, 8160, Note_on_c, 4, 62, 41
6, 8639, Note_on_c, 4, 58, 0
6, 8639, Note_on_c, 4, 62, 0
6, 8640, Note_on_c, 4, 58, 41
6, 9119, Note_on_c, 4, 58, 0
6, 9120, Note_on_c, 4, 63, 41
6, 9120, Note_on_c, 4, 58, 41
6, 9599, Note_on_c, 4, 63, 0
6, 9599, Note_on_c, 4, 58, 0
6, 9600, Note_on_c, 4, 63, 41
6, 9600, Note_on_c, 4, 60, 41
6, 10079, Note_on_c, 4, 63, 0
6, 10079, Note_on_c, 4, 60, 0
6, 10080, Note_on_c, 4, 56, 41
6, 10080, Note_on_c, 4, 62, 41
6, 10559, Note_on_c, 4, 56, 0
6, 10559, Note_on_c, 4, 62, 0
6, 10560, Note_on_c, 4, 63, 41
6, 10560, Note_on_c, 4, 55, 41
6, 10679, Note_on_c, 4, 63, 0
6, 10679, Note_on_c, 4, 55, 0
6, 11040, Note_on_c, 4, 55, 92
6, 11040, Note_on_c, 4, 63, 92
6, 11069, Note_on_c, 4, 55, 0
6, 11069, Note_on_c, 4, 63, 0
6, 11070, Note_on_c, 4, 63, 32
6, 11070, Note_on_c, 4, 55, 32
6, 11099, Note_on_c, 4, 63, 0
6, 11099, Note_on_c, 4, 55, 0
6, 11100, Note_on_c, 4, 55, 32
6, 11100, Note_on_c, 4, 63, 32
6, 11129, Note_on_c, 4, 55, 0
6, 11129, Note_on_c, 4, 63, 0
6, 11130, Note_on_c, 4, 63, 32
6, 11130, Note_on_c, 4, 55, 32
6, 11159, Note_on_c, 4, 63, 0
6, 11159, Note_on_c, 4, 55, 0
6, 11160, Note_on_c, 4, 55, 32
6, 11160, Note_on_c, 4, 63, 32
6, 11189, Note_on_c, 4, 55, 0
6, 11189, Note_on_c, 4, 63, 0
6, 11190, Note_on_c, 4, 55, 32
6, 11190, Note_on_c, 4, 63, 32
6, 11219, Note_on_c, 4, 55, 0
6, 11219, Note_on_c, 4, 63, 0
6, 11220, Note_on_c, 4, 55, 32
6, 11220, Note_on_c, 4, 63, 32
6, 11249, Note_on_c, 4, 55, 0
6, 11249, Note_on_c, 4, 63, 0
6, 11250, Note_on_c, 4, 55, 32
6, 11250, Note_on_c, 4, 63, 32
6, 11279, Note_on_c, 4, 55, 0
6, 11279, Note_on_c, 4, 63, 0
6, 11280, Note_on_c, 4, 55, 32
6, 11280, Note_on_c, 4, 63, 32
6, 11309, Note_on_c, 4, 55, 0
6, 11309, Note_on_c, 4, 63, 0
6, 11310, Note_on_c, 4, 55, 32
6, 11310, Note_on_c, 4, 63, 32
6, 11339, Note_on_c, 4, 55, 0
6, 11339, Note_on_c, 4, 63, 0
6, 11340, Note_on_c, 4, 55, 32
6, 11340, Note_on_c, 4, 63, 32
6, 11369, Note_on_c, 4, 55, 0
6, 11369, Note_on_c, 4, 63, 0
6, 11370, Note_on_c, 4, 55, 32
6, 11370, Note_on_c, 4, 63, 32
6, 11399, Note_on_c, 4, 55, 0
6, 11399, Note_on_c, 4, 63, 0
6, 11400, Note_on_c, 4, 55, 32
6, 11400, Note_on_c, 4, 63, 32
6, 11429, Note_on_c, 4, 55, 0
6, 11429, Note_on_c, 4, 63, 0
6, 11430, Note_on_c, 4, 55, 32
6, 11430, Note_on_c, 4, 63, 32
6, 11459, Note_on_c, 4, 55, 0
6, 11459, Note_on_c, 4, 63, 0
6, 11460, Note_on_c, 4, 55, 32
6, 11460, Note_on_c, 4, 63, 32
6, 11489, Note_on_c, 4, 55, 0
6, 11489, Note_on_c, 4, 63, 0
6, 11490, Note_on_c, 4, 55, 32
6, 11490, Note_on_c, 4, 63, 32
6, 11519, Note_on_c, 4, 55, 0
6, 11519, Note_on_c, 4, 63, 0
6, 11520, Note_on_c, 4, 63, 32
6, 11520, Note_on_c, 4, 55, 32
6, 11549, Note_on_c, 4, 63, 0
6, 11549, Note_on_c, 4, 55, 0
6, 11550, Note_on_c, 4, 58, 32
6, 11579, Note_on_c, 4, 58, 0
6, 11580, Note_on_c, 4, 58, 32
6, 11609, Note_on_c, 4, 58, 0
6, 11610, Note_on_c, 4, 58, 32
6, 11639, Note_on_c, 4, 58, 0
6, 11640, Note_on_c, 4, 58, 32
6, 11669, Note_on_c, 4, 58, 0
6, 11670, Note_on_c, 4, 58, 32
6, 11699, Note_on_c, 4, 58, 0
6, 11700, Note_on_c, 4, 58, 32
6, 11729, Note_on_c, 4, 58, 0
6, 11730, Note_on_c, 4, 58, 32
6, 11759, Note_on_c, 4, 58, 0
6, 11760, Note_on_c, 4, 58, 32
6, 11789, Note_on_c, 4, 58, 0
6, 11790, Note_on_c, 4, 58, 32
6, 11819, Note_on_c, 4, 58, 0
6, 11820, Note_on_c, 4, 58, 32
6, 11849, Note_on_c, 4, 58, 0
6, 11850, Note_on_c, 4, 58, 32
6, 11879, Note_on_c, 4, 58, 0
6, 11880, Note_on_c, 4, 58, 32
6, 11909, Note_on_c, 4, 58, 0
6, 11910, Note_on_c, 4, 58, 32
6, 11939, Note_on_c, 4, 58, 0
6, 11940, Note_on_c, 4, 58, 32
6, 11969, Note_on_c, 4, 58, 0
6, 11970, Note_on_c, 4, 58, 32
6, 11999, Note_on_c, 4, 58, 0
6, 12000, Note_on_c, 4, 56, 55
6, 12000, Note_on_c, 4, 65, 55
6, 12029, Note_on_c, 4, 56, 0
6, 12029, Note_on_c, 4, 65, 0
6, 12030, Note_on_c, 4, 56, 55
6, 12030, Note_on_c, 4, 65, 55
6, 12059, Note_on_c, 4, 56, 0
6, 12059, Note_on_c, 4, 65, 0
6, 12060, Note_on_c, 4, 56, 55
6, 12060, Note_on_c, 4, 65, 55
6, 12089, Note_on_c, 4, 56, 0
6, 12089, Note_on_c, 4, 65, 0
6, 12090, Note_on_c, 4, 56, 55
6, 12090, Note_on_c, 4, 65, 55
6, 12119, Note_on_c, 4, 56, 0
6, 12119, Note_on_c, 4, 65, 0
6, 12120, Note_on_c, 4, 56, 55
6, 12120, Note_on_c, 4, 65, 55
6, 12149, Note_on_c, 4, 56, 0
6, 12149, Note_on_c, 4, 65, 0
6, 12150, Note_on_c, 4, 65, 55
6, 12150, Note_on_c, 4, 56, 55
6, 12179, Note_on_c, 4, 65, 0
6, 12179, Note_on_c, 4, 56, 0
6, 12180, Note_on_c, 4, 56, 55
6, 12180, Note_on_c, 4, 65, 55
6, 12209, Note_on_c, 4, 56, 0
6, 12209, Note_on_c, 4, 65, 0
6, 12210, Note_on_c, 4, 56, 55
6, 12210, Note_on_c, 4, 65, 55
6, 12239, Note_on_c, 4, 56, 0
6, 12239, Note_on_c, 4, 65, 0
6, 12240, Note_on_c, 4, 56, 55
6, 12240, Note_on_c, 4, 65, 55
6, 12269, Note_on_c, 4, 56, 0
6, 12269, Note_on_c, 4, 65, 0
6, 12270, Note_on_c, 4, 56, 55
6, 12270, Note_on_c, 4, 65, 55
6, 12299, Note_on_c, 4, 56, 0
6, 12299, Note_on_c, 4, 65, 0
6, 12300, Note_on_c, 4, 56, 55
6, 12300, Note_on_c, 4, 65, 55
6, 12329, Note_on_c, 4, 56, 0
6, 12329, Note_on_c, 4, 65, 0
6, 12330, Note_on_c, 4, 56, 55
6, 12330, Note_on_c, 4, 65, 55
6, 12359, Note_on_c, 4, 56, 0
6, 12359, Note_on_c, 4, 65, 0
6, 12360, Note_on_c, 4, 56, 55
6, 12360, Note_on_c, 4, 65, 55
6, 12389, Note_on_c, 4, 56, 0
6, 12389, Note_on_c, 4, 65, 0
6, 12390, Note_on_c, 4, 65, 55
6, 12390, Note_on_c, 4, 56, 55
6, 12419, Note_on_c, 4, 65, 0
6, 12419, Note_on_c, 4, 56, 0
6, 12420, Note_on_c, 4, 56, 55
6, 12420, Note_on_c, 4, 65, 55
6, 12449, Note_on_c, 4, 56, 0
6, 12449, Note_on_c, 4, 65, 0
6, 12450, Note_on_c, 4, 65, 55
6, 12450, Note_on_c, 4, 56, 55
6, 12479, Note_on_c, 4, 65, 0
6, 12479, Note_on_c, 4, 56, 0
6, 12480, Note_on_c, 4, 56, 27
6, 12480, Note_on_c, 4, 62, 27
6, 12509, Note_on_c, 4, 56, 0
6, 12509, Note_on_c, 4, 62, 0
6, 12510, Note_on_c, 4, 62, 27
6, 12510, Note_on_c, 4, 56, 27
6, 12539, Note_on_c, 4, 62, 0
6, 12539, Note_on_c, 4, 56, 0
6, 12540, Note_on_c, 4, 56, 27
6, 12540, Note_on_c, 4, 62, 27
6, 12569, Note_on_c, 4, 56, 0
6, 12569, Note_on_c, 4, 62, 0
6, 12570, Note_on_c, 4, 56, 27
6, 12570, Note_on_c, 4, 62, 25
6, 12599, Note_on_c, 4, 56, 0
6, 12599, Note_on_c, 4, 62, 0
6, 12600, Note_on_c, 4, 56, 27
6, 12600, Note_on_c, 4, 62, 27
6, 12629, Note_on_c, 4, 56, 0
6, 12629, Note_on_c, 4, 62, 0
6, 12630, Note_on_c, 4, 56, 27
6, 12630, Note_on_c, 4, 62, 27
6, 12659, Note_on_c, 4, 56, 0
6, 12659, Note_on_c, 4, 62, 0
6, 12660, Note_on_c, 4, 62, 27
6, 12660, Note_on_c, 4, 56, 27
6, 12689, Note_on_c, 4, 62, 0
6, 12689, Note_on_c, 4, 56, 0
6, 12690, Note_on_c, 4, 62, 27
6, 12690, Note_on_c, 4, 56, 27
6, 12719, Note_on_c, 4, 62, 0
6, 12719, Note_on_c, 4, 56, 0
6, 12720, Note_on_c, 4, 62, 27
6, 12720, Note_on_c, 4, 56, 27
6, 12749, Note_on_c, 4, 62, 0
6, 12749, Note_on_c, 4, 56, 0
6, 12750, Note_on_c, 4, 62, 27
6, 12750, Note_on_c, 4, 56, 27
6, 12779, Note_on_c, 4, 62, 0
6, 12779, Note_on_c, 4, 56, 0
6, 12780, Note_on_c, 4, 56, 27
6, 12780, Note_on_c, 4, 62, 27
6, 12809, Note_on_c, 4, 56, 0
6, 12809, Note_on_c, 4, 62, 0
6, 12810, Note_on_c, 4, 56, 27
6, 12810, Note_on_c, 4, 62, 27
6, 12839, Note_on_c, 4, 56, 0
6, 12839, Note_on_c, 4, 62, 0
6, 12840, Note_on_c, 4, 62, 27
6, 12840, Note_on_c, 4, 56, 27
6, 12869, Note_on_c, 4, 62, 0
6, 12869, Note_on_c, 4, 56, 0
6, 12870, Note_on_c, 4, 62, 27
6, 12870, Note_on_c, 4, 56, 27
6, 12899, Note_on_c, 4, 62, 0
6, 12899, Note_on_c, 4, 56, 0
6, 12900, Note_on_c, 4, 62, 27
6, 12900, Note_on_c, 4, 56, 27
6, 12929, Note_on_c, 4, 62, 0
6, 12929, Note_on_c, 4, 56, 0
6, 12930, Note_on_c, 4, 56, 27
6, 12930, Note_on_c, 4, 62, 27
6, 12959, Note_on_c, 4, 56, 0
6, 12959, Note_on_c, 4, 62, 0
6, 12960, Note_on_c, 4, 55, 55
6, 12960, Note_on_c, 4, 63, 55
6, 12989, Note_on_c, 4, 55, 0
6, 12989, Note_on_c, 4, 63, 0
6, 12990, Note_on_c, 4, 55, 55
6, 12990, Note_on_c, 4, 63, 55
6, 13019, Note_on_c, 4, 55, 0
6, 13019, Note_on_c, 4, 63, 0
6, 13020, Note_on_c, 4, 55, 55
6, 13020, Note_on_c, 4, 63, 55
6, 13049, Note_on_c, 4, 55, 0
6, 13049, Note_on_c, 4, 63, 0
6, 13050, Note_on_c, 4, 55, 55
6, 13050, Note_on_c, 4, 63, 55
6, 13079, Note_on_c, 4, 55, 0
6, 13079, Note_on_c, 4, 63, 0
6, 13080, Note_on_c, 4, 55, 55
6, 13080, Note_on_c, 4, 63, 55
6, 13109, Note_on_c, 4, 55, 0
6, 13109, Note_on_c, 4, 63, 0
6, 13110, Note_on_c, 4, 55, 55
6, 13110, Note_on_c, 4, 63, 55
6, 13139, Note_on_c, 4, 55, 0
6, 13139, Note_on_c, 4, 63, 0
6, 13140, Note_on_c, 4, 55, 55
6, 13140, Note_on_c, 4, 63, 55
6, 13169, Note_on_c, 4, 55, 0
6, 13169, Note_on_c, 4, 63, 0
6, 13170, Note_on_c, 4, 55, 55
6, 13170, Note_on_c, 4, 63, 55
6, 13199, Note_on_c, 4, 55, 0
6, 13199, Note_on_c, 4, 63, 0
6, 13200, Note_on_c, 4, 55, 55
6, 13200, Note_on_c, 4, 63, 55
6, 13229, Note_on_c, 4, 55, 0
6, 13229, Note_on_c, 4, 63, 0
6, 13230, Note_on_c, 4, 55, 55
6, 13230, Note_on_c, 4, 63, 55
6, 13259, Note_on_c, 4, 55, 0
6, 13259, Note_on_c, 4, 63, 0
6, 13260, Note_on_c, 4, 55, 55
6, 13260, Note_on_c, 4, 63, 55
6, 13289, Note_on_c, 4, 55, 0
6, 13289, Note_on_c, 4, 63, 0
6, 13290, Note_on_c, 4, 55, 55
6, 13290, Note_on_c, 4, 63, 55
6, 13319, Note_on_c, 4, 55, 0
6, 13319, Note_on_c, 4, 63, 0
6, 13320, Note_on_c, 4, 55, 55
6, 13320, Note_on_c, 4, 63, 55
6, 13349, Note_on_c, 4, 55, 0
6, 13349, Note_on_c, 4, 63, 0
6, 13350, Note_on_c, 4, 55, 55
6, 13350, Note_on_c, 4, 63, 55
6, 13379, Note_on_c, 4, 55, 0
6, 13379, Note_on_c, 4, 63, 0
6, 13380, Note_on_c, 4, 55, 55
6, 13380, Note_on_c, 4, 63, 55
6, 13409, Note_on_c, 4, 55, 0
6, 13409, Note_on_c, 4, 63, 0
6, 13410, Note_on_c, 4, 63, 55
6, 13410, Note_on_c, 4, 55, 55
6, 13439, Note_on_c, 4, 63, 0
6, 13439, Note_on_c, 4, 55, 0
6, 13440, Note_on_c, 4, 63, 114
6, 13499, Note_on_c, 4, 63, 0
6, 13560, Note_on_c, 4, 70, 114
6, 13619, Note_on_c, 4, 70, 0
6, 13680, Note_on_c, 4, 67, 114
6, 13739, Note_on_c, 4, 67, 0
6, 13800, Note_on_c, 4, 63, 114
6, 13859, Note_on_c, 4, 63, 0
6, 13920, Note_on_c, 4, 62, 114
6, 14039, Note_on_c, 4, 62, 0
6, 14040, Note_on_c, 4, 74, 114
6, 14159, Note_on_c, 4, 74, 0
6, 14160, Note_on_c, 4, 74, 114
6, 14279, Note_on_c, 4, 74, 0
6, 14280, Note_on_c, 4, 74, 114
6, 14399, Note_on_c, 4, 74, 0
6, 14400, Note_on_c, 4, 74, 114
6, 14639, Note_on_c, 4, 74, 0
6, 14640, Note_on_c, 4, 58, 114
6, 14699, Note_on_c, 4, 58, 0
6, 14700, Note_on_c, 4, 58, 114
6, 14759, Note_on_c, 4, 58, 0
6, 14760, Note_on_c, 4, 62, 114
6, 14819, Note_on_c, 4, 62, 0
6, 14820, Note_on_c, 4, 65, 114
6, 14879, Note_on_c, 4, 65, 0
6, 14880, Note_on_c, 4, 70, 68
6, 14939, Note_on_c, 4, 70, 0
6, 14940, Note_on_c, 4, 70, 68
6, 14999, Note_on_c, 4, 70, 0
6, 15000, Note_on_c, 4, 70, 68
6, 15059, Note_on_c, 4, 70, 0
6, 15060, Note_on_c, 4, 70, 68
6, 15119, Note_on_c, 4, 70, 0
6, 15120, Note_on_c, 4, 70, 68
6, 15179, Note_on_c, 4, 70, 0
6, 15180, Note_on_c, 4, 70, 68
6, 15239, Note_on_c, 4, 70, 0
6, 15240, Note_on_c, 4, 70, 68
6, 15299, Note_on_c, 4, 70, 0
6, 15300, Note_on_c, 4, 70, 68
6, 15359, Note_on_c, 4, 70, 0
6, 15360, Note_on_c, 4, 70, 68
6, 15419, Note_on_c, 4, 70, 0
6, 15420, Note_on_c, 4, 70, 68
6, 15479, Note_on_c, 4, 70, 0
6, 15480, Note_on_c, 4, 69, 68
6, 15539, Note_on_c, 4, 69, 0
6, 15540, Note_on_c, 4, 67, 68
6, 15599, Note_on_c, 4, 67, 0
6, 15600, Note_on_c, 4, 65, 68
6, 15659, Note_on_c, 4, 65, 0
6, 15660, Note_on_c, 4, 63, 68
6, 15719, Note_on_c, 4, 63, 0
6, 15720, Note_on_c, 4, 62, 68
6, 15779, Note_on_c, 4, 62, 0
6, 15780, Note_on_c, 4, 60, 68
6, 15839, Note_on_c, 4, 60, 0
6, 15840, Note_on_c, 4, 62, 68
6, 15899, Note_on_c, 4, 62, 0
6, 15900, Note_on_c, 4, 62, 68
6, 15959, Note_on_c, 4, 62, 0
6, 15960, Note_on_c, 4, 60, 68
6, 16019, Note_on_c, 4, 60, 0
6, 16020, Note_on_c, 4, 58, 68
6, 16079, Note_on_c, 4, 58, 0
6, 16080, Note_on_c, 4, 57, 68
6, 16139, Note_on_c, 4, 57, 0
6, 16140, Note_on_c, 4, 55, 68
6, 16199, Note_on_c, 4, 55, 0
6, 16200, Note_on_c, 4, 53, 68
6, 16259, Note_on_c, 4, 53, 0
6, 16260, Note_on_c, 4, 51, 68
6, 16319, Note_on_c, 4, 51, 0
6, 16320, Note_on_c, 4, 50, 68
6, 16439, Note_on_c, 4, 50, 0
6, 16680, Note_on_c, 4, 63, 68
6, 16799, Note_on_c, 4, 63, 0
6, 16800, Note_on_c, 4, 62, 92
6, 16859, Note_on_c, 4, 62, 0
6, 16860, Note_on_c, 4, 62, 92
6, 16919, Note_on_c, 4, 62, 0
6, 16920, Note_on_c, 4, 60, 92
6, 16979, Note_on_c, 4, 60, 0
6, 16980, Note_on_c, 4, 58, 92
6, 17039, Note_on_c, 4, 58, 0
6, 17040, Note_on_c, 4, 57, 92
6, 17099, Note_on_c, 4, 57, 0
6, 17100, Note_on_c, 4, 55, 92
6, 17159, Note_on_c, 4, 55, 0
6, 17160, Note_on_c, 4, 53, 71
6, 17219, Note_on_c, 4, 53, 0
6, 17220, Note_on_c, 4, 51, 92
6, 17279, Note_on_c, 4, 51, 0
6, 17280, Note_on_c, 4, 50, 92
6, 17339, Note_on_c, 4, 50, 0
6, 17340, Note_on_c, 4, 62, 92
6, 17399, Note_on_c, 4, 62, 0
6, 17400, Note_on_c, 4, 60, 92
6, 17459, Note_on_c, 4, 60, 0
6, 17460, Note_on_c, 4, 58, 92
6, 17519, Note_on_c, 4, 58, 0
6, 17520, Note_on_c, 4, 57, 92
6, 17579, Note_on_c, 4, 57, 0
6, 17580, Note_on_c, 4, 55, 92
6, 17639, Note_on_c, 4, 55, 0
6, 17640, Note_on_c, 4, 53, 92
6, 17699, Note_on_c, 4, 53, 0
6, 17700, Note_on_c, 4, 51, 92
6, 17759, Note_on_c, 4, 51, 0
6, 17760, Note_on_c, 4, 50, 114
6, 17879, Note_on_c, 4, 50, 0
6, 18000, Note_on_c, 4, 68, 114
6, 18239, Note_on_c, 4, 68, 0
6, 18240, Note_on_c, 4, 67, 114
6, 18359, Note_on_c, 4, 67, 0
6, 18480, Note_on_c, 4, 70, 114
6, 18480, Note_on_c, 4, 58, 114
6, 18719, Note_on_c, 4, 70, 0
6, 18719, Note_on_c, 4, 58, 0
6, 18720, Note_on_c, 4, 70, 114
6, 18720, Note_on_c, 4, 58, 114
6, 18839, Note_on_c, 4, 70, 0
6, 18839, Note_on_c, 4, 58, 0
6, 18960, Note_on_c, 4, 68, 114
6, 19199, Note_on_c, 4, 68, 0
6, 19200, Note_on_c, 4, 67, 114
6, 19319, Note_on_c, 4, 67, 0
6, 19500, Note_on_c, 4, 65, 114
6, 19619, Note_on_c, 4, 65, 0
6, 19620, Note_on_c, 4, 63, 114
6, 19679, Note_on_c, 4, 63, 0
6, 19680, Note_on_c, 4, 62, 114
6, 19799, Note_on_c, 4, 62, 0
6, 19920, Note_on_c, 4, 68, 114
6, 20159, Note_on_c, 4, 68, 0
6, 20160, Note_on_c, 4, 67, 114
6, 20279, Note_on_c, 4, 67, 0
6, 20400, Note_on_c, 4, 58, 114
6, 20639, Note_on_c, 4, 58, 0
6, 20640, Note_on_c, 4, 58, 114
6, 20759, Note_on_c, 4, 58, 0
6, 20880, Note_on_c, 4, 68, 114
6, 21119, Note_on_c, 4, 68, 0
6, 21120, Note_on_c, 4, 67, 114
6, 21239, Note_on_c, 4, 67, 0
6, 21420, Note_on_c, 4, 65, 114
6, 21539, Note_on_c, 4, 65, 0
6, 21540, Note_on_c, 4, 63, 114
6, 21599, Note_on_c, 4, 63, 0
6, 21600, Note_on_c, 4, 62, 114
6, 21719, Note_on_c, 4, 62, 0
6, 21780, Note_on_c, 4, 58, 114
6, 21839, Note_on_c, 4, 58, 0
6, 21840, Note_on_c, 4, 60, 114
6, 21899, Note_on_c, 4, 60, 0
6, 21900, Note_on_c, 4, 62, 114
6, 21959, Note_on_c, 4, 62, 0
6, 21960, Note_on_c, 4, 63, 114
6, 22019, Note_on_c, 4, 63, 0
6, 22020, Note_on_c, 4, 65, 114
6, 22079, Note_on_c, 4, 65, 0
6, 22080, Note_on_c, 4, 67, 114
6, 22139, Note_on_c, 4, 67, 0
6, 22140, Note_on_c, 4, 69, 114
6, 22199, Note_on_c, 4, 69, 0
6, 22200, Note_on_c, 4, 70, 114
6, 22259, Note_on_c, 4, 70, 0
6, 22260, Note_on_c, 4, 62, 114
6, 22319, Note_on_c, 4, 62, 0
6, 22320, Note_on_c, 4, 63, 114
6, 22379, Note_on_c, 4, 63, 0
6, 22380, Note_on_c, 4, 65, 114
6, 22439, Note_on_c, 4, 65, 0
6, 22440, Note_on_c, 4, 67, 114
6, 22499, Note_on_c, 4, 67, 0
6, 22500, Note_on_c, 4, 69, 114
6, 22559, Note_on_c, 4, 69, 0
6, 22560, Note_on_c, 4, 70, 114
6, 22619, Note_on_c, 4, 70, 0
6, 22620, Note_on_c, 4, 72, 114
6, 22679, Note_on_c, 4, 72, 0
6, 22680, Note_on_c, 4, 74, 114
6, 22739, Note_on_c, 4, 74, 0
6, 22740, Note_on_c, 4, 65, 114
6, 22799, Note_on_c, 4, 65, 0
6, 22800, Note_on_c, 4, 67, 114
6, 22859, Note_on_c, 4, 67, 0
6, 22860, Note_on_c, 4, 69, 114
6, 22919, Note_on_c, 4, 69, 0
6, 22920, Note_on_c, 4, 70, 114
6, 22979, Note_on_c, 4, 70, 0
6, 22980, Note_on_c, 4, 72, 114
6, 23039, Note_on_c, 4, 72, 0
6, 23040, Note_on_c, 4, 74, 114
6, 23099, Note_on_c, 4, 74, 0
6, 23100, Note_on_c, 4, 75, 114
6, 23159, Note_on_c, 4, 75, 0
6, 23160, Note_on_c, 4, 77, 114
6, 23219, Note_on_c, 4, 77, 0
6, 23220, Note_on_c, 4, 62, 114
6, 23279, Note_on_c, 4, 62, 0
6, 23280, Note_on_c, 4, 67, 114
6, 23330, Note_on_c, 4, 67, 0
6, 23400, Note_on_c, 4, 60, 114
6, 23450, Note_on_c, 4, 60, 0
6, 23520, Note_on_c, 4, 62, 114
6, 23639, Note_on_c, 4, 62, 0
6, 23700, Note_on_c, 4, 58, 114
6, 23759, Note_on_c, 4, 58, 0
6, 23760, Note_on_c, 4, 60, 85
6, 23819, Note_on_c, 4, 60, 0
6, 23820, Note_on_c, 4, 62, 114
6, 23879, Note_on_c, 4, 62, 0
6, 23880, Note_on_c, 4, 63, 114
6, 23939, Note_on_c, 4, 63, 0
6, 23940, Note_on_c, 4, 65, 114
6, 23999, Note_on_c, 4, 65, 0
6, 24000, Note_on_c, 4, 67, 114
6, 24059, Note_on_c, 4, 67, 0
6, 24060, Note_on_c, 4, 69, 114
6, 24119, Note_on_c, 4, 69, 0
6, 24120, Note_on_c, 4, 70, 114
6, 24179, Note_on_c, 4, 70, 0
6, 24180, Note_on_c, 4, 62, 114
6, 24239, Note_on_c, 4, 62, 0
6, 24240, Note_on_c, 4, 63, 114
6, 24299, Note_on_c, 4, 63, 0
6, 24300, Note_on_c, 4, 65, 114
6, 24359, Note_on_c, 4, 65, 0
6, 24360, Note_on_c, 4, 67, 114
6, 24419, Note_on_c, 4, 67, 0
6, 24420, Note_on_c, 4, 69, 114
6, 24479, Note_on_c, 4, 69, 0
6, 24480, Note_on_c, 4, 70, 114
6, 24539, Note_on_c, 4, 70, 0
6, 24540, Note_on_c, 4, 72, 114
6, 24599, Note_on_c, 4, 72, 0
6, 24600, Note_on_c, 4, 74, 114
6, 24659, Note_on_c, 4, 74, 0
6, 24660, Note_on_c, 4, 65, 114
6, 24719, Note_on_c, 4, 65, 0
6, 24720, Note_on_c, 4, 67, 114
6, 24779, Note_on_c, 4, 67, 0
6, 24780, Note_on_c, 4, 69, 114
6, 24839, Note_on_c, 4, 69, 0
6, 24840, Note_on_c, 4, 70, 114
6, 24899, Note_on_c, 4, 70, 0
6, 24900, Note_on_c, 4, 72, 114
6, 24959, Note_on_c, 4, 72, 0
6, 24960, Note_on_c, 4, 74, 114
6, 25019, Note_on_c, 4, 74, 0
6, 25020, Note_on_c, 4, 75, 114
6, 25079, Note_on_c, 4, 75, 0
6, 25080, Note_on_c, 4, 74, 114
6, 25139, Note_on_c, 4, 74, 0
6, 25140, Note_on_c, 4, 65, 114
6, 25199, Note_on_c, 4, 65, 0
6, 25200, Note_on_c, 4, 63, 114
6, 25250, Note_on_c, 4, 63, 0
6, 25320, Note_on_c, 4, 63, 114
6, 25370, Note_on_c, 4, 63, 0
6, 25440, Note_on_c, 4, 62, 114
6, 25538, Note_on_c, 4, 62, 0
6, 26040, Note_on_c, 4, 63, 114
6, 26054, Note_on_c, 4, 63, 0
6, 26055, Note_on_c, 4, 62, 114
6, 26069, Note_on_c, 4, 62, 0
6, 26070, Note_on_c, 4, 63, 114
6, 26084, Note_on_c, 4, 63, 0
6, 26085, Note_on_c, 4, 62, 114
6, 26099, Note_on_c, 4, 62, 0
6, 26100, Note_on_c, 4, 63, 114
6, 26114, Note_on_c, 4, 63, 0
6, 26115, Note_on_c, 4, 62, 114
6, 26129, Note_on_c, 4, 62, 0
6, 26130, Note_on_c, 4, 60, 114
6, 26144, Note_on_c, 4, 60, 0
6, 26145, Note_on_c, 4, 62, 114
6, 26159, Note_on_c, 4, 62, 0
6, 26160, Note_on_c, 4, 63, 114
6, 26220, Note_on_c, 4, 63, 0
6, 26280, Note_on_c, 4, 65, 114
6, 26340, Note_on_c, 4, 65, 0
6, 26400, Note_on_c, 4, 67, 114
6, 26460, Note_on_c, 4, 67, 0
6, 27000, Note_on_c, 4, 63, 114
6, 27014, Note_on_c, 4, 63, 0
6, 27015, Note_on_c, 4, 62, 114
6, 27029, Note_on_c, 4, 62, 0
6, 27030, Note_on_c, 4, 63, 114
6, 27044, Note_on_c, 4, 63, 0
6, 27045, Note_on_c, 4, 62, 114
6, 27059, Note_on_c, 4, 62, 0
6, 27060, Note_on_c, 4, 63, 114
6, 27074, Note_on_c, 4, 63, 0
6, 27075, Note_on_c, 4, 62, 114
6, 27089, Note_on_c, 4, 62, 0
6, 27090, Note_on_c, 4, 60, 114
6, 27104, Note_on_c, 4, 60, 0
6, 27105, Note_on_c, 4, 62, 114
6, 27119, Note_on_c, 4, 62, 0
6, 27120, Note_on_c, 4, 63, 114
6, 27180, Note_on_c, 4, 63, 0
6, 27240, Note_on_c, 4, 65, 114
6, 27300, Note_on_c, 4, 65, 0
6, 27360, Note_on_c, 4, 58, 114
6, 27390, Note_on_c, 4, 58, 0
6, 27420, Note_on_c, 4, 70, 114
6, 27450, Note_on_c, 4, 70, 0
6, 27480, Note_on_c, 4, 69, 114
6, 27539, Note_on_c, 4, 69, 0
6, 27540, Note_on_c, 4, 70, 114
6, 27599, Note_on_c, 4, 70, 0
6, 27600, Note_on_c, 4, 65, 114
6, 27659, Note_on_c, 4, 65, 0
6, 27660, Note_on_c, 4, 70, 114
6, 27719, Note_on_c, 4, 70, 0
6, 27720, Note_on_c, 4, 62, 114
6, 27779, Note_on_c, 4, 62, 0
6, 27780, Note_on_c, 4, 65, 114
6, 27839, Note_on_c, 4, 65, 0
6, 27840, Note_on_c, 4, 58, 114
6, 27899, Note_on_c, 4, 58, 0
6, 27900, Note_on_c, 4, 70, 114
6, 27959, Note_on_c, 4, 70, 0
6, 27960, Note_on_c, 4, 65, 114
6, 28019, Note_on_c, 4, 65, 0
6, 28020, Note_on_c, 4, 62, 114
6, 28079, Note_on_c, 4, 62, 0
6, 28080, Note_on_c, 4, 58, 114
6, 28199, Note_on_c, 4, 58, 0
6, 28320, Note_on_c, 4, 63, 114
6, 28535, Note_on_c, 4, 63, 0
6, 28560, Note_on_c, 4, 67, 114
6, 28775, Note_on_c, 4, 67, 0
6, 28800, Note_on_c, 4, 70, 114
6, 28844, Note_on_c, 4, 70, 0
6, 28860, Note_on_c, 4, 70, 114
6, 28904, Note_on_c, 4, 70, 0
6, 28920, Note_on_c, 4, 70, 114
6, 28964, Note_on_c, 4, 70, 0
6, 28980, Note_on_c, 4, 70, 114
6, 29024, Note_on_c, 4, 70, 0
6, 29040, Note_on_c, 4, 70, 114
6, 29084, Note_on_c, 4, 70, 0
6, 29100, Note_on_c, 4, 70, 114
6, 29144, Note_on_c, 4, 70, 0
6, 29160, Note_on_c, 4, 70, 114
6, 29204, Note_on_c, 4, 70, 0
6, 29220, Note_on_c, 4, 70, 114
6, 29264, Note_on_c, 4, 70, 0
6, 29280, Note_on_c, 4, 67, 114
6, 29333, Note_on_c, 4, 67, 0
6, 29400, Note_on_c, 4, 63, 114
6, 29453, Note_on_c, 4, 63, 0
6, 29760, Note_on_c, 4, 55, 41
6, 29760, Note_on_c, 4, 63, 41
6, 30239, Note_on_c, 4, 55, 0
6, 30239, Note_on_c, 4, 63, 0
6, 30240, Note_on_c, 4, 63, 41
6, 30240, Note_on_c, 4, 60, 41
6, 30719, Note_on_c, 4, 63, 0
6, 30719, Note_on_c, 4, 60, 0
6, 30720, Note_on_c, 4, 58, 41
6, 30720, Note_on_c, 4, 62, 41
6, 31199, Note_on_c, 4, 58, 0
6, 31199, Note_on_c, 4, 62, 0
6, 31200, Note_on_c, 4, 58, 41
6, 31679, Note_on_c, 4, 58, 0
6, 31680, Note_on_c, 4, 58, 41
6, 31680, Note_on_c, 4, 63, 41
6, 32159, Note_on_c, 4, 58, 0
6, 32159, Note_on_c, 4, 63, 0
6, 32160, Note_on_c, 4, 63, 41
6, 32160, Note_on_c, 4, 60, 41
6, 32639, Note_on_c, 4, 63, 0
6, 32639, Note_on_c, 4, 60, 0
6, 32640, Note_on_c, 4, 56, 41
6, 32640, Note_on_c, 4, 62, 41
6, 33119, Note_on_c, 4, 56, 0
6, 33119, Note_on_c, 4, 62, 0
6, 33120, Note_on_c, 4, 63, 41
6, 33120, Note_on_c, 4, 55, 41
6, 33239, Note_on_c, 4, 63, 0
6, 33239, Note_on_c, 4, 55, 0
6, 33600, Note_on_c, 4, 63, 114
6, 33797, Note_on_c, 4, 63, 0
6, 33840, Note_on_c, 4, 67, 114
6, 34037, Note_on_c, 4, 67, 0
6, 34080, Note_on_c, 4, 70, 114
6, 34139, Note_on_c, 4, 70, 0
6, 34140, Note_on_c, 4, 70, 114
6, 34199, Note_on_c, 4, 70, 0
6, 34200, Note_on_c, 4, 70, 114
6, 34259, Note_on_c, 4, 70, 0
6, 34260, Note_on_c, 4, 70, 114
6, 34319, Note_on_c, 4, 70, 0
6, 34320, Note_on_c, 4, 70, 114
6, 34379, Note_on_c, 4, 70, 0
6, 34380, Note_on_c, 4, 70, 114
6, 34439, Note_on_c, 4, 70, 0
6, 34440, Note_on_c, 4, 70, 114
6, 34499, Note_on_c, 4, 70, 0
6, 34500, Note_on_c, 4, 70, 114
6, 34559, Note_on_c, 4, 70, 0
6, 34560, Note_on_c, 4, 67, 114
6, 34631, Note_on_c, 4, 67, 0
6, 34680, Note_on_c, 4, 63, 114
6, 34751, Note_on_c, 4, 63, 0
6, 35040, Note_on_c, 4, 63, 41
6, 35040, Note_on_c, 4, 55, 41
6, 35519, Note_on_c, 4, 63, 0
6, 35519, Note_on_c, 4, 55, 0
6, 35520, Note_on_c, 4, 63, 41
6, 35520, Note_on_c, 4, 60, 41
6, 35999, Note_on_c, 4, 63, 0
6, 35999, Note_on_c, 4, 60, 0
6, 36000, Note_on_c, 4, 58, 41
6, 36000, Note_on_c, 4, 62, 41
6, 36479, Note_on_c, 4, 58, 0
6, 36479, Note_on_c, 4, 62, 0
6, 36480, Note_on_c, 4, 58, 41
6, 36959, Note_on_c, 4, 58, 0
6, 36960, Note_on_c, 4, 63, 41
6, 36960, Note_on_c, 4, 58, 41
6, 37439, Note_on_c, 4, 63, 0
6, 37439, Note_on_c, 4, 58, 0
6, 37440, Note_on_c, 4, 63, 41
6, 37440, Note_on_c, 4, 60, 41
6, 37919, Note_on_c, 4, 63, 0
6, 37919, Note_on_c, 4, 60, 0
6, 37920, Note_on_c, 4, 56, 41
6, 37920, Note_on_c, 4, 62, 41
6, 38399, Note_on_c, 4, 56, 0
6, 38399, Note_on_c, 4, 62, 0
6, 38400, Note_on_c, 4, 63, 41
6, 38400, Note_on_c, 4, 55, 41
6, 38519, Note_on_c, 4, 63, 0
6, 38519, Note_on_c, 4, 55, 0
6, 38880, Note_on_c, 4, 55, 92
6, 38880, Note_on_c, 4, 63, 92
6, 38909, Note_on_c, 4, 55, 0
6, 38909, Note_on_c, 4, 63, 0
6, 38910, Note_on_c, 4, 63, 32
6, 38910, Note_on_c, 4, 55, 32
6, 38939, Note_on_c, 4, 63, 0
6, 38939, Note_on_c, 4, 55, 0
6, 38940, Note_on_c, 4, 55, 32
6, 38940, Note_on_c, 4, 63, 32
6, 38969, Note_on_c, 4, 55, 0
6, 38969, Note_on_c, 4, 63, 0
6, 38970, Note_on_c, 4, 63, 32
6, 38970, Note_on_c, 4, 55, 32
6, 38999, Note_on_c, 4, 63, 0
6, 38999, Note_on_c, 4, 55, 0
6, 39000, Note_on_c, 4, 55, 32
6, 39000, Note_on_c, 4, 63, 32
6, 39029, Note_on_c, 4, 55, 0
6, 39029, Note_on_c, 4, 63, 0
6, 39030, Note_on_c, 4, 55, 32
6, 39030, Note_on_c, 4, 63, 32
6, 39059, Note_on_c, 4, 55, 0
6, 39059, Note_on_c, 4, 63, 0
6, 39060, Note_on_c, 4, 55, 32
6, 39060, Note_on_c, 4, 63, 32
6, 39089, Note_on_c, 4, 55, 0
6, 39089, Note_on_c, 4, 63, 0
6, 39090, Note_on_c, 4, 55, 32
6, 39090, Note_on_c, 4, 63, 32
6, 39119, Note_on_c, 4, 55, 0
6, 39119, Note_on_c, 4, 63, 0
6, 39120, Note_on_c, 4, 55, 32
6, 39120, Note_on_c, 4, 63, 32
6, 39149, Note_on_c, 4, 55, 0
6, 39149, Note_on_c, 4, 63, 0
6, 39150, Note_on_c, 4, 55, 32
6, 39150, Note_on_c, 4, 63, 32
6, 39179, Note_on_c, 4, 55, 0
6, 39179, Note_on_c, 4, 63, 0
6, 39180, Note_on_c, 4, 55, 32
6, 39180, Note_on_c, 4, 63, 32
6, 39209, Note_on_c, 4, 55, 0
6, 39209, Note_on_c, 4, 63, 0
6, 39210, Note_on_c, 4, 55, 32
6, 39210, Note_on_c, 4, 63, 32
6, 39239, Note_on_c, 4, 55, 0
6, 39239, Note_on_c, 4, 63, 0
6, 39240, Note_on_c, 4, 55, 32
6, 39240, Note_on_c, 4, 63, 32
6, 39269, Note_on_c, 4, 55, 0
6, 39269, Note_on_c, 4, 63, 0
6, 39270, Note_on_c, 4, 55, 32
6, 39270, Note_on_c, 4, 63, 32
6, 39299, Note_on_c, 4, 55, 0
6, 39299, Note_on_c, 4, 63, 0
6, 39300, Note_on_c, 4, 55, 32
6, 39300, Note_on_c, 4, 63, 32
6, 39329, Note_on_c, 4, 55, 0
6, 39329, Note_on_c, 4, 63, 0
6, 39330, Note_on_c, 4, 55, 32
6, 39330, Note_on_c, 4, 63, 32
6, 39359, Note_on_c, 4, 55, 0
6, 39359, Note_on_c, 4, 63, 0
6, 39360, Note_on_c, 4, 63, 32
6, 39360, Note_on_c, 4, 55, 32
6, 39389, Note_on_c, 4, 63, 0
6, 39389, Note_on_c, 4, 55, 0
6, 39390, Note_on_c, 4, 58, 32
6, 39419, Note_on_c, 4, 58, 0
6, 39420, Note_on_c, 4, 58, 32
6, 39449, Note_on_c, 4, 58, 0
6, 39450, Note_on_c, 4, 58, 32
6, 39479, Note_on_c, 4, 58, 0
6, 39480, Note_on_c, 4, 58, 32
6, 39509, Note_on_c, 4, 58, 0
6, 39510, Note_on_c, 4, 58, 32
6, 39539, Note_on_c, 4, 58, 0
6, 39540, Note_on_c, 4, 58, 32
6, 39569, Note_on_c, 4, 58, 0
6, 39570, Note_on_c, 4, 58, 32
6, 39599, Note_on_c, 4, 58, 0
6, 39600, Note_on_c, 4, 58, 32
6, 39629, Note_on_c, 4, 58, 0
6, 39630, Note_on_c, 4, 58, 32
6, 39659, Note_on_c, 4, 58, 0
6, 39660, Note_on_c, 4, 58, 32
6, 39689, Note_on_c, 4, 58, 0
6, 39690, Note_on_c, 4, 58, 32
6, 39719, Note_on_c, 4, 58, 0
6, 39720, Note_on_c, 4, 58, 32
6, 39749, Note_on_c, 4, 58, 0
6, 39750, Note_on_c, 4, 58, 32
6, 39779, Note_on_c, 4, 58, 0
6, 39780, Note_on_c, 4, 58, 32
6, 39809, Note_on_c, 4, 58, 0
6, 39810, Note_on_c, 4, 58, 32
6, 39839, Note_on_c, 4, 58, 0
6, 39840, Note_on_c, 4, 56, 55
6, 39840, Note_on_c, 4, 65, 55
6, 39869, Note_on_c, 4, 56, 0
6, 39869, Note_on_c, 4, 65, 0
6, 39870, Note_on_c, 4, 56, 55
6, 39870, Note_on_c, 4, 65, 55
6, 39899, Note_on_c, 4, 56, 0
6, 39899, Note_on_c, 4, 65, 0
6, 39900, Note_on_c, 4, 56, 55
6, 39900, Note_on_c, 4, 65, 55
6, 39929, Note_on_c, 4, 56, 0
6, 39929, Note_on_c, 4, 65, 0
6, 39930, Note_on_c, 4, 56, 55
6, 39930, Note_on_c, 4, 65, 55
6, 39959, Note_on_c, 4, 56, 0
6, 39959, Note_on_c, 4, 65, 0
6, 39960, Note_on_c, 4, 56, 55
6, 39960, Note_on_c, 4, 65, 55
6, 39989, Note_on_c, 4, 56, 0
6, 39989, Note_on_c, 4, 65, 0
6, 39990, Note_on_c, 4, 65, 55
6, 39990, Note_on_c, 4, 56, 55
6, 40019, Note_on_c, 4, 65, 0
6, 40019, Note_on_c, 4, 56, 0
6, 40020, Note_on_c, 4, 56, 55
6, 40020, Note_on_c, 4, 65, 55
6, 40049, Note_on_c, 4, 56, 0
6, 40049, Note_on_c, 4, 65, 0
6, 40050, Note_on_c, 4, 56, 55
6, 40050, Note_on_c, 4, 65, 55
6, 40079, Note_on_c, 4, 56, 0
6, 40079, Note_on_c, 4, 65, 0
6, 40080, Note_on_c, 4, 56, 55
6, 40080, Note_on_c, 4, 65, 55
6, 40109, Note_on_c, 4, 56, 0
6, 40109, Note_on_c, 4, 65, 0
6, 40110, Note_on_c, 4, 56, 55
6, 40110, Note_on_c, 4, 65, 55
6, 40139, Note_on_c, 4, 56, 0
6, 40139, Note_on_c, 4, 65, 0
6, 40140, Note_on_c, 4, 56, 55
6, 40140, Note_on_c, 4, 65, 55
6, 40169, Note_on_c, 4, 56, 0
6, 40169, Note_on_c, 4, 65, 0
6, 40170, Note_on_c, 4, 56, 55
6, 40170, Note_on_c, 4, 65, 55
6, 40199, Note_on_c, 4, 56, 0
6, 40199, Note_on_c, 4, 65, 0
6, 40200, Note_on_c, 4, 56, 55
6, 40200, Note_on_c, 4, 65, 55
6, 40229, Note_on_c, 4, 56, 0
6, 40229, Note_on_c, 4, 65, 0
6, 40230, Note_on_c, 4, 65, 55
6, 40230, Note_on_c, 4, 56, 55
6, 40259, Note_on_c, 4, 65, 0
6, 40259, Note_on_c, 4, 56, 0
6, 40260, Note_on_c, 4, 56, 55
6, 40260, Note_on_c, 4, 65, 55
6, 40289, Note_on_c, 4, 56, 0
6, 40289, Note_on_c, 4, 65, 0
6, 40290, Note_on_c, 4, 65, 55
6, 40290, Note_on_c, 4, 56, 55
6, 40319, Note_on_c, 4, 65, 0
6, 40319, Note_on_c, 4, 56, 0
6, 40320, Note_on_c, 4, 56, 27
6, 40320, Note_on_c, 4, 62, 27
6, 40349, Note_on_c, 4, 56, 0
6, 40349, Note_on_c, 4, 62, 0
6, 40350, Note_on_c, 4, 62, 27
6, 40350, Note_on_c, 4, 56, 27
6, 40379, Note_on_c, 4, 62, 0
6, 40379, Note_on_c, 4, 56, 0
6, 40380, Note_on_c, 4, 56, 27
6, 40380, Note_on_c, 4, 62, 27
6, 40409, Note_on_c, 4, 56, 0
6, 40409, Note_on_c, 4, 62, 0
6, 40410, Note_on_c, 4, 56, 27
6, 40410, Note_on_c, 4, 62, 25
6, 40439, Note_on_c, 4, 56, 0
6, 40439, Note_on_c, 4, 62, 0
6, 40440, Note_on_c, 4, 56, 27
6, 40440, Note_on_c, 4, 62, 27
6, 40469, Note_on_c, 4, 56, 0
6, 40469, Note_on_c, 4, 62, 0
6, 40470, Note_on_c, 4, 56, 27
6, 40470, Note_on_c, 4, 62, 27
6, 40499, Note_on_c, 4, 56, 0
6, 40499, Note_on_c, 4, 62, 0
6, 40500, Note_on_c, 4, 62, 27
6, 40500, Note_on_c, 4, 56, 27
6, 40529, Note_on_c, 4, 62, 0
6, 40529, Note_on_c, 4, 56, 0
6, 40530, Note_on_c, 4, 62, 27
6, 40530, Note_on_c, 4, 56, 27
6, 40559, Note_on_c, 4, 62, 0
6, 40559, Note_on_c, 4, 56, 0
6, 40560, Note_on_c, 4, 62, 27
6, 40560, Note_on_c, 4, 56, 27
6, 40589, Note_on_c, 4, 62, 0
6, 40589, Note_on_c, 4, 56, 0
6, 40590, Note_on_c, 4, 62, 27
6, 40590, Note_on_c, 4, 56, 27
6, 40619, Note_on_c, 4, 62, 0
6, 40619, Note_on_c, 4, 56, 0
6, 40620, Note_on_c, 4, 56, 27
6, 40620, Note_on_c, 4, 62, 27
6, 40649, Note_on_c, 4, 56, 0
6, 40649, Note_on_c, 4, 62, 0
6, 40650, Note_on_c, 4, 56, 27
6, 40650, Note_on_c, 4, 62, 27
6, 40679, Note_on_c, 4, 56, 0
6, 40679, Note_on_c, 4, 62, 0
6, 40680, Note_on_c, 4, 62, 27
6, 40680, Note_on_c, 4, 56, 27
6, 40709, Note_on_c, 4, 62, 0
6, 40709, Note_on_c, 4, 56, 0
6, 40710, Note_on_c, 4, 62, 27
6, 40710, Note_on_c, 4, 56, 27
6, 40739, Note_on_c, 4, 62, 0
6, 40739, Note_on_c, 4, 56, 0
6, 40740, Note_on_c, 4, 62, 27
6, 40740, Note_on_c, 4, 56, 27
6, 40769, Note_on_c, 4, 62, 0
6, 40769, Note_on_c, 4, 56, 0
6, 40770, Note_on_c, 4, 56, 27
6, 40770, Note_on_c, 4, 62, 27
6, 40799, Note_on_c, 4, 56, 0
6, 40799, Note_on_c, 4, 62, 0
6, 40800, Note_on_c, 4, 55, 55
6, 40800, Note_on_c, 4, 63, 55
6, 40829, Note_on_c, 4, 55, 0
6, 40829, Note_on_c, 4, 63, 0
6, 40830, Note_on_c, 4, 55, 55
6, 40830, Note_on_c, 4, 63, 55
6, 40859, Note_on_c, 4, 55, 0
6, 40859, Note_on_c, 4, 63, 0
6, 40860, Note_on_c, 4, 55, 55
6, 40860, Note_on_c, 4, 63, 55
6, 40889, Note_on_c, 4, 55, 0
6, 40889, Note_on_c, 4, 63, 0
6, 40890, Note_on_c, 4, 55, 55
6, 40890, Note_on_c, 4, 63, 55
6, 40919, Note_on_c, 4, 55, 0
6, 40919, Note_on_c, 4, 63, 0
6, 40920, Note_on_c, 4, 55, 55
6, 40920, Note_on_c, 4, 63, 55
6, 40949, Note_on_c, 4, 55, 0
6, 40949, Note_on_c, 4, 63, 0
6, 40950, Note_on_c, 4, 55, 55
6, 40950, Note_on_c, 4, 63, 55
6, 40979, Note_on_c, 4, 55, 0
6, 40979, Note_on_c, 4, 63, 0
6, 40980, Note_on_c, 4, 55, 55
6, 40980, Note_on_c, 4, 63, 55
6, 41009, Note_on_c, 4, 55, 0
6, 41009, Note_on_c, 4, 63, 0
6, 41010, Note_on_c, 4, 55, 55
6, 41010, Note_on_c, 4, 63, 55
6, 41039, Note_on_c, 4, 55, 0
6, 41039, Note_on_c, 4, 63, 0
6, 41040, Note_on_c, 4, 55, 55
6, 41040, Note_on_c, 4, 63, 55
6, 41069, Note_on_c, 4, 55, 0
6, 41069, Note_on_c, 4, 63, 0
6, 41070, Note_on_c, 4, 55, 55
6, 41070, Note_on_c, 4, 63, 55
6, 41099, Note_on_c, 4, 55, 0
6, 41099, Note_on_c, 4, 63, 0
6, 41100, Note_on_c, 4, 55, 55
6, 41100, Note_on_c, 4, 63, 55
6, 41129, Note_on_c, 4, 55, 0
6, 41129, Note_on_c, 4, 63, 0
6, 41130, Note_on_c, 4, 55, 55
6, 41130, Note_on_c, 4, 63, 55
6, 41159, Note_on_c, 4, 55, 0
6, 41159, Note_on_c, 4, 63, 0
6, 41160, Note_on_c, 4, 55, 55
6, 41160, Note_on_c, 4, 63, 55
6, 41189, Note_on_c, 4, 55, 0
6, 41189, Note_on_c, 4, 63, 0
6, 41190, Note_on_c, 4, 55, 55
6, 41190, Note_on_c, 4, 63, 55
6, 41219, Note_on_c, 4, 55, 0
6, 41219, Note_on_c, 4, 63, 0
6, 41220, Note_on_c, 4, 55, 55
6, 41220, Note_on_c, 4, 63, 55
6, 41249, Note_on_c, 4, 55, 0
6, 41249, Note_on_c, 4, 63, 0
6, 41250, Note_on_c, 4, 63, 55
6, 41250, Note_on_c, 4, 55, 55
6, 41279, Note_on_c, 4, 63, 0
6, 41279, Note_on_c, 4, 55, 0
6, 41280, Note_on_c, 4, 63, 114
6, 41339, Note_on_c, 4, 63, 0
6, 41400, Note_on_c, 4, 70, 114
6, 41459, Note_on_c, 4, 70, 0
6, 41520, Note_on_c, 4, 67, 114
6, 41579, Note_on_c, 4, 67, 0
6, 41640, Note_on_c, 4, 63, 114
6, 41699, Note_on_c, 4, 63, 0
6, 41760, Note_on_c, 4, 62, 114
6, 41879, Note_on_c, 4, 62, 0
6, 41880, Note_on_c, 4, 74, 114
6, 41999, Note_on_c, 4, 74, 0
6, 42000, Note_on_c, 4, 74, 114
6, 42119, Note_on_c, 4, 74, 0
6, 42120, Note_on_c, 4, 74, 114
6, 42239, Note_on_c, 4, 74, 0
6, 42240, Note_on_c, 4, 74, 114
6, 42479, Note_on_c, 4, 74, 0
6, 42480, Note_on_c, 4, 58, 114
6, 42539, Note_on_c, 4, 58, 0
6, 42540, Note_on_c, 4, 58, 114
6, 42599, Note_on_c, 4, 58, 0
6, 42600, Note_on_c, 4, 62, 114
6, 42659, Note_on_c, 4, 62, 0
6, 42660, Note_on_c, 4, 65, 114
6, 42719, Note_on_c, 4, 65, 0
6, 42720, Note_on_c, 4, 70, 68
6, 42779, Note_on_c, 4, 70, 0
6, 42780, Note_on_c, 4, 70, 68
6, 42839, Note_on_c, 4, 70, 0
6, 42840, Note_on_c, 4, 70, 68
6, 42899, Note_on_c, 4, 70, 0
6, 42900, Note_on_c, 4, 70, 68
6, 42959, Note_on_c, 4, 70, 0
6, 42960, Note_on_c, 4, 70, 68
6, 43019, Note_on_c, 4, 70, 0
6, 43020, Note_on_c, 4, 70, 68
6, 43079, Note_on_c, 4, 70, 0
6, 43080, Note_on_c, 4, 70, 68
6, 43139, Note_on_c, 4, 70, 0
6, 43140, Note_on_c, 4, 70, 68
6, 43199, Note_on_c, 4, 70, 0
6, 43200, Note_on_c, 4, 70, 68
6, 43259, Note_on_c, 4, 70, 0
6, 43260, Note_on_c, 4, 70, 68
6, 43319, Note_on_c, 4, 70, 0
6, 43320, Note_on_c, 4, 69, 68
6, 43379, Note_on_c, 4, 69, 0
6, 43380, Note_on_c, 4, 67, 68
6, 43439, Note_on_c, 4, 67, 0
6, 43440, Note_on_c, 4, 65, 68
6, 43499, Note_on_c, 4, 65, 0
6, 43500, Note_on_c, 4, 63, 68
6, 43559, Note_on_c, 4, 63, 0
6, 43560, Note_on_c, 4, 62, 68
6, 43619, Note_on_c, 4, 62, 0
6, 43620, Note_on_c, 4, 60, 68
6, 43679, Note_on_c, 4, 60, 0
6, 43680, Note_on_c, 4, 62, 68
6, 43739, Note_on_c, 4, 62, 0
6, 43740, Note_on_c, 4, 62, 68
6, 43799, Note_on_c, 4, 62, 0
6, 43800, Note_on_c, 4, 60, 68
6, 43859, Note_on_c, 4, 60, 0
6, 43860, Note_on_c, 4, 58, 68
6, 43919, Note_on_c, 4, 58, 0
6, 43920, Note_on_c, 4, 57, 68
6, 43979, Note_on_c, 4, 57, 0
6, 43980, Note_on_c, 4, 55, 68
6, 44039, Note_on_c, 4, 55, 0
6, 44040, Note_on_c, 4, 53, 68
6, 44099, Note_on_c, 4, 53, 0
6, 44100, Note_on_c, 4, 51, 68
6, 44159, Note_on_c, 4, 51, 0
6, 44160, Note_on_c, 4, 50, 68
6, 44279, Note_on_c, 4, 50, 0
6, 44520, Note_on_c, 4, 63, 68
6, 44639, Note_on_c, 4, 63, 0
6, 44640, Note_on_c, 4, 62, 92
6, 44699, Note_on_c, 4, 62, 0
6, 44700, Note_on_c, 4, 62, 92
6, 44759, Note_on_c, 4, 62, 0
6, 44760, Note_on_c, 4, 60, 92
6, 44819, Note_on_c, 4, 60, 0
6, 44820, Note_on_c, 4, 58, 92
6, 44879, Note_on_c, 4, 58, 0
6, 44880, Note_on_c, 4, 57, 92
6, 44939, Note_on_c, 4, 57, 0
6, 44940, Note_on_c, 4, 55, 92
6, 44999, Note_on_c, 4, 55, 0
6, 45000, Note_on_c, 4, 53, 71
6, 45059, Note_on_c, 4, 53, 0
6, 45060, Note_on_c, 4, 51, 92
6, 45119, Note_on_c, 4, 51, 0
6, 45120, Note_on_c, 4, 50, 92
6, 45179, Note_on_c, 4, 50, 0
6, 45180, Note_on_c, 4, 62, 92
6, 45239, Note_on_c, 4, 62, 0
6, 45240, Note_on_c, 4, 60, 92
6, 45299, Note_on_c, 4, 60, 0
6, 45300, Note_on_c, 4, 58, 92
6, 45359, Note_on_c, 4, 58, 0
6, 45360, Note_on_c, 4, 57, 92
6, 45419, Note_on_c, 4, 57, 0
6, 45420, Note_on_c, 4, 55, 92
6, 45479, Note_on_c, 4, 55, 0
6, 45480, Note_on_c, 4, 53, 92
6, 45539, Note_on_c, 4, 53, 0
6, 45540, Note_on_c, 4, 51, 92
6, 45599, Note_on_c, 4, 51, 0
6, 45600, Note_on_c, 4, 50, 114
6, 45719, Note_on_c, 4, 50, 0
6, 45840, Note_on_c, 4, 68, 114
6, 46079, Note_on_c, 4, 68, 0
6, 46080, Note_on_c, 4, 67, 114
6, 46199, Note_on_c, 4, 67, 0
6, 46320, Note_on_c, 4, 70, 114
6, 46320, Note_on_c, 4, 58, 114
6, 46559, Note_on_c, 4, 70, 0
6, 46559, Note_on_c, 4, 58, 0
6, 46560, Note_on_c, 4, 70, 114
6, 46560, Note_on_c, 4, 58, 114
6, 46679, Note_on_c, 4, 70, 0
6, 46679, Note_on_c, 4, 58, 0
6, 46800, Note_on_c, 4, 68, 114
6, 47039, Note_on_c, 4, 68, 0
6, 47040, Note_on_c, 4, 67, 114
6, 47159, Note_on_c, 4, 67, 0
6, 47340, Note_on_c, 4, 65, 114
6, 47459, Note_on_c, 4, 65, 0
6, 47460, Note_on_c, 4, 63, 114
6, 47519, Note_on_c, 4, 63, 0
6, 47520, Note_on_c, 4, 62, 114
6, 47639, Note_on_c, 4, 62, 0
6, 47760, Note_on_c, 4, 68, 114
6, 47999, Note_on_c, 4, 68, 0
6, 48000, Note_on_c, 4, 67, 114
6, 48119, Note_on_c, 4, 67, 0
6, 48240, Note_on_c, 4, 58, 114
6, 48479, Note_on_c, 4, 58, 0
6, 48480, Note_on_c, 4, 58, 114
6, 48599, Note_on_c, 4, 58, 0
6, 48720, Note_on_c, 4, 68, 114
6, 48959, Note_on_c, 4, 68, 0
6, 48960, Note_on_c, 4, 67, 114
6, 49079, Note_on_c, 4, 67, 0
6, 49260, Note_on_c, 4, 65, 114
6, 49379, Note_on_c, 4, 65, 0
6, 49380, Note_on_c, 4, 63, 114
6, 49439, Note_on_c, 4, 63, 0
6, 49440, Note_on_c, 4, 62, 114
6, 49559, Note_on_c, 4, 62, 0
6, 49620, Note_on_c, 4, 58, 114
6, 49679, Note_on_c, 4, 58, 0
6, 49680, Note_on_c, 4, 60, 114
6, 49739, Note_on_c, 4, 60, 0
6, 49740, Note_on_c, 4, 62, 114
6, 49799, Note_on_c, 4, 62, 0
6, 49800, Note_on_c, 4, 63, 114
6, 49859, Note_on_c, 4, 63, 0
6, 49860, Note_on_c, 4, 65, 114
6, 49919, Note_on_c, 4, 65, 0
6, 49920, Note_on_c, 4, 67, 114
6, 49979, Note_on_c, 4, 67, 0
6, 49980, Note_on_c, 4, 69, 114
6, 50039, Note_on_c, 4, 69, 0
6, 50040, Note_on_c, 4, 70, 114
6, 50099, Note_on_c, 4, 70, 0
6, 50100, Note_on_c, 4, 62, 114
6, 50159, Note_on_c, 4, 62, 0
6, 50160, Note_on_c, 4, 63, 114
6, 50219, Note_on_c, 4, 63, 0
6, 50220, Note_on_c, 4, 65, 114
6, 50279, Note_on_c, 4, 65, 0
6, 50280, Note_on_c, 4, 67, 114
6, 50339, Note_on_c, 4, 67, 0
6, 50340, Note_on_c, 4, 69, 114
6, 50399, Note_on_c, 4, 69, 0
6, 50400, Note_on_c, 4, 70, 114
6, 50459, Note_on_c, 4, 70, 0
6, 50460, Note_on_c, 4, 72, 114
6, 50519, Note_on_c, 4, 72, 0
6, 50520, Note_on_c, 4, 74, 114
6, 50579, Note_on_c, 4, 74, 0
6, 50580, Note_on_c, 4, 65, 114
6, 50639, Note_on_c, 4, 65, 0
6, 50640, Note_on_c, 4, 67, 114
6, 50699, Note_on_c, 4, 67, 0
6, 50700, Note_on_c, 4, 69, 114
6, 50759, Note_on_c, 4, 69, 0
6, 50760, Note_on_c, 4, 70, 114
6, 50819, Note_on_c, 4, 70, 0
6, 50820, Note_on_c, 4, 72, 114
6, 50879, Note_on_c, 4, 72, 0
6, 50880, Note_on_c, 4, 74, 114
6, 50939, Note_on_c, 4, 74, 0
6, 50940, Note_on_c, 4, 75, 114
6, 50999, Note_on_c, 4, 75, 0
6, 51000, Note_on_c, 4, 77, 114
6, 51059, Note_on_c, 4, 77, 0
6, 51060, Note_on_c, 4, 62, 114
6, 51119, Note_on_c, 4, 62, 0
6, 51120, Note_on_c, 4, 67, 114
6, 51170, Note_on_c, 4, 67, 0
6, 51240, Note_on_c, 4, 60, 114
6, 51290, Note_on_c, 4, 60, 0
6, 51360, Note_on_c, 4, 62, 114
6, 51479, Note_on_c, 4, 62, 0
6, 51540, Note_on_c, 4, 58, 114
6, 51599, Note_on_c, 4, 58, 0
6, 51600, Note_on_c, 4, 60, 85
6, 51659, Note_on_c, 4, 60, 0
6, 51660, Note_on_c, 4, 62, 114
6, 51719, Note_on_c, 4, 62, 0
6, 51720, Note_on_c, 4, 63, 114
6, 51779, Note_on_c, 4, 63, 0
6, 51780, Note_on_c, 4, 65, 114
6, 51839, Note_on_c, 4, 65, 0
6, 51840, Note_on_c, 4, 67, 114
6, 51899, Note_on_c, 4, 67, 0
6, 51900, Note_on_c, 4, 69, 114
6, 51959, Note_on_c, 4, 69, 0
6, 51960, Note_on_c, 4, 70, 114
6, 52019, Note_on_c, 4, 70, 0
6, 52020, Note_on_c, 4, 62, 114
6, 52079, Note_on_c, 4, 62, 0
6, 52080, Note_on_c, 4, 63, 114
6, 52139, Note_on_c, 4, 63, 0
6, 52140, Note_on_c, 4, 65, 114
6, 52199, Note_on_c, 4, 65, 0
6, 52200, Note_on_c, 4, 67, 114
6, 52259, Note_on_c, 4, 67, 0
6, 52260, Note_on_c, 4, 69, 114
6, 52319, Note_on_c, 4, 69, 0
6, 52320, Note_on_c, 4, 70, 114
6, 52379, Note_on_c, 4, 70, 0
6, 52380, Note_on_c, 4, 72, 114
6, 52439, Note_on_c, 4, 72, 0
6, 52440, Note_on_c, 4, 74, 114
6, 52499, Note_on_c, 4, 74, 0
6, 52500, Note_on_c, 4, 65, 114
6, 52559, Note_on_c, 4, 65, 0
6, 52560, Note_on_c, 4, 67, 114
6, 52619, Note_on_c, 4, 67, 0
6, 52620, Note_on_c, 4, 69, 114
6, 52679, Note_on_c, 4, 69, 0
6, 52680, Note_on_c, 4, 70, 114
6, 52739, Note_on_c, 4, 70, 0
6, 52740, Note_on_c, 4, 72, 114
6, 52799, Note_on_c, 4, 72, 0
6, 52800, Note_on_c, 4, 74, 114
6, 52859, Note_on_c, 4, 74, 0
6, 52860, Note_on_c, 4, 75, 114
6, 52919, Note_on_c, 4, 75, 0
6, 52920, Note_on_c, 4, 74, 114
6, 52979, Note_on_c, 4, 74, 0
6, 52980, Note_on_c, 4, 65, 114
6, 53039, Note_on_c, 4, 65, 0
6, 53040, Note_on_c, 4, 63, 114
6, 53090, Note_on_c, 4, 63, 0
6, 53160, Note_on_c, 4, 63, 114
6, 53210, Note_on_c, 4, 63, 0
6, 53280, Note_on_c, 4, 62, 114
6, 53378, Note_on_c, 4, 62, 0
6, 53880, Note_on_c, 4, 63, 114
6, 53894, Note_on_c, 4, 63, 0
6, 53895, Note_on_c, 4, 62, 114
6, 53909, Note_on_c, 4, 62, 0
6, 53910, Note_on_c, 4, 63, 114
6, 53924, Note_on_c, 4, 63, 0
6, 53925, Note_on_c, 4, 62, 114
6, 53939, Note_on_c, 4, 62, 0
6, 53940, Note_on_c, 4, 63, 114
6, 53954, Note_on_c, 4, 63, 0
6, 53955, Note_on_c, 4, 62, 114
6, 53969, Note_on_c, 4, 62, 0
6, 53970, Note_on_c, 4, 60, 114
6, 53984, Note_on_c, 4, 60, 0
6, 53985, Note_on_c, 4, 62, 114
6, 53999, Note_on_c, 4, 62, 0
6, 54000, Note_on_c, 4, 63, 114
6, 54060, Note_on_c, 4, 63, 0
6, 54120, Note_on_c, 4, 65, 114
6, 54180, Note_on_c, 4, 65, 0
6, 54240, Note_on_c, 4, 67, 114
6, 54300, Note_on_c, 4, 67, 0
6, 54840, Note_on_c, 4, 63, 114
6, 54854, Note_on_c, 4, 63, 0
6, 54855, Note_on_c, 4, 62, 114
6, 54869, Note_on_c, 4, 62, 0
6, 54870, Note_on_c, 4, 63, 114
6, 54884, Note_on_c, 4, 63, 0
6, 54885, Note_on_c, 4, 62, 114
6, 54899, Note_on_c, 4, 62, 0
6, 54900, Note_on_c, 4, 63, 114
6, 54914, Note_on_c, 4, 63, 0
6, 54915, Note_on_c, 4, 62, 114
6, 54929, Note_on_c, 4, 62, 0
6, 54930, Note_on_c, 4, 60, 114
6, 54944, Note_on_c, 4, 60, 0
6, 54945, Note_on_c, 4, 62, 114
6, 54959, Note_on_c, 4, 62, 0
6, 54960, Note_on_c, 4, 63, 114
6, 55020, Note_on_c, 4, 63, 0
6, 55080, Note_on_c, 4, 65, 114
6, 55140, Note_on_c, 4, 65, 0
6, 55200, Note_on_c, 4, 58, 114
6, 55230, Note_on_c, 4, 58, 0
6, 55260, Note_on_c, 4, 70, 114
6, 55290, Note_on_c, 4, 70, 0
6, 55320, Note_on_c, 4, 69, 114
6, 55379, Note_on_c, 4, 69, 0
6, 55380, Note_on_c, 4, 70, 114
6, 55439, Note_on_c, 4, 70, 0
6, 55440, Note_on_c, 4, 65, 114
6, 55499, Note_on_c, 4, 65, 0
6, 55500, Note_on_c, 4, 70, 114
6, 55559, Note_on_c, 4, 70, 0
6, 55560, Note_on_c, 4, 62, 114
6, 55619, Note_on_c, 4, 62, 0
6, 55620, Note_on_c, 4, 65, 114
6, 55679, Note_on_c, 4, 65, 0
6, 55680, Note_on_c, 4, 58, 114
6, 55739, Note_on_c, 4, 58, 0
6, 55740, Note_on_c, 4, 70, 114
6, 55799, Note_on_c, 4, 70, 0
6, 55800, Note_on_c, 4, 65, 114
6, 55859, Note_on_c, 4, 65, 0
6, 55860, Note_on_c, 4, 62, 114
6, 55919, Note_on_c, 4, 62, 0
6, 55920, Note_on_c, 4, 58, 114
6, 56039, Note_on_c, 4, 58, 0
6, 56160, Note_on_c, 4, 58, 114
6, 56359, Note_on_c, 4, 58, 0
6, 56400, Note_on_c, 4, 62, 114
6, 56598, Note_on_c, 4, 62, 0
6, 56640, Note_on_c, 4, 65, 114
6, 56669, Note_on_c, 4, 65, 0
6, 56700, Note_on_c, 4, 65, 114
6, 56729, Note_on_c, 4, 65, 0
6, 56760, Note_on_c, 4, 65, 114
6, 56789, Note_on_c, 4, 65, 0
6, 56820, Note_on_c, 4, 65, 114
6, 56849, Note_on_c, 4, 65, 0
6, 56880, Note_on_c, 4, 65, 114
6, 56909, Note_on_c, 4, 65, 0
6, 56940, Note_on_c, 4, 65, 114
6, 56969, Note_on_c, 4, 65, 0
6, 57000, Note_on_c, 4, 65, 114
6, 57029, Note_on_c, 4, 65, 0
6, 57060, Note_on_c, 4, 65, 114
6, 57089, Note_on_c, 4, 65, 0
6, 57120, Note_on_c, 4, 62, 114
6, 57178, Note_on_c, 4, 62, 0
6, 57240, Note_on_c, 4, 58, 95
6, 57298, Note_on_c, 4, 58, 0
6, 57600, Note_on_c, 4, 58, 29
6, 57600, Note_on_c, 4, 62, 33
6, 58079, Note_on_c, 4, 58, 0
6, 58079, Note_on_c, 4, 62, 0
6, 58080, Note_on_c, 4, 63, 36
6, 58080, Note_on_c, 4, 58, 29
6, 58559, Note_on_c, 4, 63, 0
6, 58559, Note_on_c, 4, 58, 0
6, 58560, Note_on_c, 4, 53, 34
6, 59039, Note_on_c, 4, 53, 0
6, 59040, Note_on_c, 4, 53, 31
6, 59519, Note_on_c, 4, 53, 0
6, 59520, Note_on_c, 4, 58, 34
6, 59999, Note_on_c, 4, 58, 0
6, 60000, Note_on_c, 4, 58, 32
6, 60479, Note_on_c, 4, 58, 0
6, 60480, Note_on_c, 4, 53, 25
6, 60959, Note_on_c, 4, 53, 0
6, 60960, Note_on_c, 4, 53, 32
6, 61130, Note_on_c, 4, 53, 0
6, 61140, Note_on_c, 4, 68, 38
6, 61199, Note_on_c, 4, 68, 0
6, 61200, Note_on_c, 4, 67, 36
6, 61259, Note_on_c, 4, 67, 0
6, 61260, Note_on_c, 4, 65, 30
6, 61319, Note_on_c, 4, 65, 0
6, 61320, Note_on_c, 4, 63, 36
6, 61379, Note_on_c, 4, 63, 0
6, 61380, Note_on_c, 4, 62, 32
6, 61439, Note_on_c, 4, 62, 0
6, 61440, Note_on_c, 4, 60, 114
6, 61628, Note_on_c, 4, 60, 0
6, 61680, Note_on_c, 4, 63, 114
6, 61868, Note_on_c, 4, 63, 0
6, 61920, Note_on_c, 4, 67, 114
6, 61961, Note_on_c, 4, 67, 0
6, 61980, Note_on_c, 4, 67, 114
6, 62021, Note_on_c, 4, 67, 0
6, 62040, Note_on_c, 4, 67, 114
6, 62081, Note_on_c, 4, 67, 0
6, 62100, Note_on_c, 4, 67, 114
6, 62141, Note_on_c, 4, 67, 0
6, 62160, Note_on_c, 4, 67, 114
6, 62201, Note_on_c, 4, 67, 0
6, 62220, Note_on_c, 4, 67, 114
6, 62261, Note_on_c, 4, 67, 0
6, 62280, Note_on_c, 4, 67, 114
6, 62321, Note_on_c, 4, 67, 0
6, 62340, Note_on_c, 4, 67, 114
6, 62381, Note_on_c, 4, 67, 0
6, 62400, Note_on_c, 4, 63, 114
6, 62458, Note_on_c, 4, 63, 0
6, 62520, Note_on_c, 4, 60, 114
6, 62578, Note_on_c, 4, 60, 0
6, 62880, Note_on_c, 4, 63, 30
6, 62880, Note_on_c, 4, 55, 21
6, 63359, Note_on_c, 4, 63, 0
6, 63359, Note_on_c, 4, 55, 0
6, 63360, Note_on_c, 4, 65, 27
6, 63360, Note_on_c, 4, 56, 31
6, 63839, Note_on_c, 4, 65, 0
6, 63839, Note_on_c, 4, 56, 0
6, 63840, Note_on_c, 4, 65, 33
6, 63840, Note_on_c, 4, 55, 31
6, 64319, Note_on_c, 4, 65, 0
6, 64319, Note_on_c, 4, 55, 0
6, 64320, Note_on_c, 4, 55, 30
6, 64320, Note_on_c, 4, 63, 32
6, 64799, Note_on_c, 4, 55, 0
6, 64799, Note_on_c, 4, 63, 0
6, 64800, Note_on_c, 4, 63, 31
6, 64800, Note_on_c, 4, 55, 23
6, 65279, Note_on_c, 4, 63, 0
6, 65279, Note_on_c, 4, 55, 0
6, 65280, Note_on_c, 4, 56, 33
6, 65280, Note_on_c, 4, 65, 31
6, 65759, Note_on_c, 4, 56, 0
6, 65759, Note_on_c, 4, 65, 0
6, 65760, Note_on_c, 4, 65, 32
6, 65760, Note_on_c, 4, 55, 23
6, 66239, Note_on_c, 4, 65, 0
6, 66239, Note_on_c, 4, 55, 0
6, 66240, Note_on_c, 4, 63, 34
6, 66240, Note_on_c, 4, 55, 21
6, 66240, Note_on_c, 4, 48, 28
6, 66359, Note_on_c, 4, 63, 0
6, 66359, Note_on_c, 4, 55, 0
6, 66359, Note_on_c, 4, 48, 0
6, 66720, Note_on_c, 4, 60, 80
6, 66749, Note_on_c, 4, 60, 0
6, 66750, Note_on_c, 4, 60, 80
6, 66779, Note_on_c, 4, 60, 0
6, 66780, Note_on_c, 4, 60, 80
6, 66809, Note_on_c, 4, 60, 0
6, 66810, Note_on_c, 4, 60, 80
6, 66839, Note_on_c, 4, 60, 0
6, 66840, Note_on_c, 4, 60, 80
6, 66869, Note_on_c, 4, 60, 0
6, 66870, Note_on_c, 4, 60, 80
6, 66899, Note_on_c, 4, 60, 0
6, 66900, Note_on_c, 4, 60, 80
6, 66929, Note_on_c, 4, 60, 0
6, 66930, Note_on_c, 4, 60, 80
6, 66959, Note_on_c, 4, 60, 0
6, 66960, Note_on_c, 4, 60, 80
6, 66989, Note_on_c, 4, 60, 0
6, 66990, Note_on_c, 4, 60, 80
6, 67019, Note_on_c, 4, 60, 0
6, 67020, Note_on_c, 4, 60, 80
6, 67049, Note_on_c, 4, 60, 0
6, 67050, Note_on_c, 4, 60, 80
6, 67079, Note_on_c, 4, 60, 0
6, 67080, Note_on_c, 4, 60, 79
6, 67109, Note_on_c, 4, 60, 0
6, 67110, Note_on_c, 4, 60, 80
6, 67139, Note_on_c, 4, 60, 0
6, 67140, Note_on_c, 4, 60, 80
6, 67169, Note_on_c, 4, 60, 0
6, 67170, Note_on_c, 4, 60, 80
6, 67199, Note_on_c, 4, 60, 0
6, 67200, Note_on_c, 4, 60, 48
6, 67229, Note_on_c, 4, 60, 0
6, 67230, Note_on_c, 4, 60, 48
6, 67259, Note_on_c, 4, 60, 0
6, 67260, Note_on_c, 4, 60, 48
6, 67289, Note_on_c, 4, 60, 0
6, 67290, Note_on_c, 4, 60, 48
6, 67319, Note_on_c, 4, 60, 0
6, 67320, Note_on_c, 4, 60, 48
6, 67349, Note_on_c, 4, 60, 0
6, 67350, Note_on_c, 4, 60, 48
6, 67379, Note_on_c, 4, 60, 0
6, 67380, Note_on_c, 4, 60, 46
6, 67409, Note_on_c, 4, 60, 0
6, 67410, Note_on_c, 4, 60, 45
6, 67439, Note_on_c, 4, 60, 0
6, 67440, Note_on_c, 4, 60, 48
6, 67469, Note_on_c, 4, 60, 0
6, 67470, Note_on_c, 4, 60, 48
6, 67499, Note_on_c, 4, 60, 0
6, 67500, Note_on_c, 4, 60, 48
6, 67529, Note_on_c, 4, 60, 0
6, 67530, Note_on_c, 4, 60, 46
6, 67559, Note_on_c, 4, 60, 0
6, 67560, Note_on_c, 4, 60, 48
6, 67589, Note_on_c, 4, 60, 0
6, 67590, Note_on_c, 4, 60, 44
6, 67619, Note_on_c, 4, 60, 0
6, 67620, Note_on_c, 4, 60, 44
6, 67649, Note_on_c, 4, 60, 0
6, 67650, Note_on_c, 4, 60, 46
6, 67679, Note_on_c, 4, 60, 0
6, 67680, Note_on_c, 4, 56, 79
6, 67709, Note_on_c, 4, 56, 0
6, 67710, Note_on_c, 4, 65, 66
6, 67710, Note_on_c, 4, 68, 77
6, 67739, Note_on_c, 4, 65, 0
6, 67739, Note_on_c, 4, 68, 0
6, 67740, Note_on_c, 4, 68, 80
6, 67740, Note_on_c, 4, 65, 67
6, 67769, Note_on_c, 4, 68, 0
6, 67769, Note_on_c, 4, 65, 0
6, 67770, Note_on_c, 4, 68, 80
6, 67770, Note_on_c, 4, 65, 57
6, 67799, Note_on_c, 4, 68, 0
6, 67799, Note_on_c, 4, 65, 0
6, 67800, Note_on_c, 4, 65, 70
6, 67800, Note_on_c, 4, 68, 80
6, 67829, Note_on_c, 4, 65, 0
6, 67829, Note_on_c, 4, 68, 0
6, 67830, Note_on_c, 4, 68, 80
6, 67830, Note_on_c, 4, 65, 63
6, 67859, Note_on_c, 4, 68, 0
6, 67859, Note_on_c, 4, 65, 0
6, 67860, Note_on_c, 4, 68, 80
6, 67860, Note_on_c, 4, 65, 62
6, 67889, Note_on_c, 4, 68, 0
6, 67889, Note_on_c, 4, 65, 0
6, 67890, Note_on_c, 4, 68, 80
6, 67890, Note_on_c, 4, 65, 69
6, 67919, Note_on_c, 4, 68, 0
6, 67919, Note_on_c, 4, 65, 0
6, 67920, Note_on_c, 4, 68, 80
6, 67920, Note_on_c, 4, 65, 62
6, 67949, Note_on_c, 4, 68, 0
6, 67949, Note_on_c, 4, 65, 0
6, 67950, Note_on_c, 4, 68, 78
6, 67950, Note_on_c, 4, 65, 53
6, 67979, Note_on_c, 4, 68, 0
6, 67979, Note_on_c, 4, 65, 0
6, 67980, Note_on_c, 4, 68, 80
6, 67980, Note_on_c, 4, 65, 56
6, 68009, Note_on_c, 4, 68, 0
6, 68009, Note_on_c, 4, 65, 0
6, 68010, Note_on_c, 4, 68, 80
6, 68010, Note_on_c, 4, 65, 59
6, 68039, Note_on_c, 4, 68, 0
6, 68039, Note_on_c, 4, 65, 0
6, 68040, Note_on_c, 4, 68, 80
6, 68040, Note_on_c, 4, 65, 57
6, 68069, Note_on_c, 4, 68, 0
6, 68069, Note_on_c, 4, 65, 0
6, 68070, Note_on_c, 4, 68, 80
6, 68070, Note_on_c, 4, 65, 66
6, 68099, Note_on_c, 4, 68, 0
6, 68099, Note_on_c, 4, 65, 0
6, 68100, Note_on_c, 4, 68, 80
6, 68100, Note_on_c, 4, 65, 64
6, 68129, Note_on_c, 4, 68, 0
6, 68129, Note_on_c, 4, 65, 0
6, 68130, Note_on_c, 4, 68, 80
6, 68130, Note_on_c, 4, 65, 69
6, 68159, Note_on_c, 4, 68, 0
6, 68159, Note_on_c, 4, 65, 0
6, 68160, Note_on_c, 4, 68, 48
6, 68189, Note_on_c, 4, 68, 0
6, 68190, Note_on_c, 4, 60, 43
6, 68219, Note_on_c, 4, 60, 0
6, 68220, Note_on_c, 4, 60, 40
6, 68249, Note_on_c, 4, 60, 0
6, 68250, Note_on_c, 4, 60, 44
6, 68279, Note_on_c, 4, 60, 0
6, 68280, Note_on_c, 4, 60, 46
6, 68309, Note_on_c, 4, 60, 0
6, 68310, Note_on_c, 4, 60, 48
6, 68339, Note_on_c, 4, 60, 0
6, 68340, Note_on_c, 4, 60, 48
6, 68369, Note_on_c, 4, 60, 0
6, 68370, Note_on_c, 4, 60, 48
6, 68399, Note_on_c, 4, 60, 0
6, 68400, Note_on_c, 4, 60, 48
6, 68429, Note_on_c, 4, 60, 0
6, 68430, Note_on_c, 4, 60, 48
6, 68459, Note_on_c, 4, 60, 0
6, 68460, Note_on_c, 4, 60, 48
6, 68489, Note_on_c, 4, 60, 0
6, 68490, Note_on_c, 4, 60, 47
6, 68519, Note_on_c, 4, 60, 0
6, 68520, Note_on_c, 4, 60, 48
6, 68549, Note_on_c, 4, 60, 0
6, 68550, Note_on_c, 4, 60, 41
6, 68579, Note_on_c, 4, 60, 0
6, 68580, Note_on_c, 4, 60, 48
6, 68609, Note_on_c, 4, 60, 0
6, 68610, Note_on_c, 4, 60, 48
6, 68639, Note_on_c, 4, 60, 0
6, 68640, Note_on_c, 4, 58, 80
6, 68669, Note_on_c, 4, 58, 0
6, 68670, Note_on_c, 4, 58, 80
6, 68699, Note_on_c, 4, 58, 0
6, 68700, Note_on_c, 4, 58, 80
6, 68729, Note_on_c, 4, 58, 0
6, 68730, Note_on_c, 4, 58, 80
6, 68759, Note_on_c, 4, 58, 0
6, 68760, Note_on_c, 4, 58, 80
6, 68789, Note_on_c, 4, 58, 0
6, 68790, Note_on_c, 4, 58, 80
6, 68819, Note_on_c, 4, 58, 0
6, 68820, Note_on_c, 4, 58, 80
6, 68849, Note_on_c, 4, 58, 0
6, 68850, Note_on_c, 4, 58, 80
6, 68879, Note_on_c, 4, 58, 0
6, 68880, Note_on_c, 4, 58, 80
6, 68909, Note_on_c, 4, 58, 0
6, 68910, Note_on_c, 4, 58, 80
6, 68939, Note_on_c, 4, 58, 0
6, 68940, Note_on_c, 4, 58, 80
6, 68969, Note_on_c, 4, 58, 0
6, 68970, Note_on_c, 4, 58, 80
6, 68999, Note_on_c, 4, 58, 0
6, 69000, Note_on_c, 4, 58, 80
6, 69029, Note_on_c, 4, 58, 0
6, 69030, Note_on_c, 4, 58, 79
6, 69059, Note_on_c, 4, 58, 0
6, 69060, Note_on_c, 4, 58, 77
6, 69089, Note_on_c, 4, 58, 0
6, 69090, Note_on_c, 4, 58, 80
6, 69119, Note_on_c, 4, 58, 0
6, 69120, Note_on_c, 4, 58, 48
6, 69599, Note_on_c, 4, 58, 0
6, 69600, Note_on_c, 4, 55, 69
6, 69629, Note_on_c, 4, 55, 0
6, 69630, Note_on_c, 4, 63, 76
6, 69659, Note_on_c, 4, 63, 0
6, 69660, Note_on_c, 4, 63, 73
6, 69689, Note_on_c, 4, 63, 0
6, 69690, Note_on_c, 4, 63, 77
6, 69719, Note_on_c, 4, 63, 0
6, 69720, Note_on_c, 4, 63, 77
6, 69720, Note_on_c, 4, 55, 48
6, 69749, Note_on_c, 4, 63, 0
6, 69749, Note_on_c, 4, 55, 0
6, 69750, Note_on_c, 4, 55, 62
6, 69750, Note_on_c, 4, 63, 69
6, 69779, Note_on_c, 4, 55, 0
6, 69779, Note_on_c, 4, 63, 0
6, 69780, Note_on_c, 4, 55, 68
6, 69780, Note_on_c, 4, 63, 77
6, 69809, Note_on_c, 4, 55, 0
6, 69809, Note_on_c, 4, 63, 0
6, 69810, Note_on_c, 4, 55, 70
6, 69810, Note_on_c, 4, 63, 80
6, 69839, Note_on_c, 4, 55, 0
6, 69839, Note_on_c, 4, 63, 0
6, 69840, Note_on_c, 4, 55, 67
6, 69840, Note_on_c, 4, 63, 80
6, 69869, Note_on_c, 4, 55, 0
6, 69869, Note_on_c, 4, 63, 0
6, 69870, Note_on_c, 4, 55, 80
6, 69870, Note_on_c, 4, 63, 80
6, 69899, Note_on_c, 4, 55, 0
6, 69899, Note_on_c, 4, 63, 0
6, 69900, Note_on_c, 4, 55, 79
6, 69900, Note_on_c, 4, 63, 80
6, 69929, Note_on_c, 4, 55, 0
6, 69929, Note_on_c, 4, 63, 0
6, 69930, Note_on_c, 4, 55, 73
6, 69930, Note_on_c, 4, 63, 80
6, 69959, Note_on_c, 4, 55, 0
6, 69959, Note_on_c, 4, 63, 0
6, 69960, Note_on_c, 4, 55, 80
6, 69960, Note_on_c, 4, 63, 80
6, 69989, Note_on_c, 4, 55, 0
6, 69989, Note_on_c, 4, 63, 0
6, 69990, Note_on_c, 4, 55, 79
6, 69990, Note_on_c, 4, 63, 80
6, 70019, Note_on_c, 4, 55, 0
6, 70019, Note_on_c, 4, 63, 0
6, 70020, Note_on_c, 4, 55, 78
6, 70020, Note_on_c, 4, 63, 80
6, 70049, Note_on_c, 4, 55, 0
6, 70049, Note_on_c, 4, 63, 0
6, 70050, Note_on_c, 4, 55, 80
6, 70050, Note_on_c, 4, 63, 80
6, 70079, Note_on_c, 4, 55, 0
6, 70079, Note_on_c, 4, 63, 0
6, 70080, Note_on_c, 4, 63, 108
6, 70080, Note_on_c, 4, 55, 108
6, 70109, Note_on_c, 4, 63, 0
6, 70109, Note_on_c, 4, 55, 0
6, 70110, Note_on_c, 4, 58, 48
6, 70139, Note_on_c, 4, 58, 0
6, 70140, Note_on_c, 4, 58, 40
6, 70169, Note_on_c, 4, 58, 0
6, 70170, Note_on_c, 4, 58, 41
6, 70199, Note_on_c, 4, 58, 0
6, 70200, Note_on_c, 4, 58, 45
6, 70229, Note_on_c, 4, 58, 0
6, 70230, Note_on_c, 4, 58, 48
6, 70259, Note_on_c, 4, 58, 0
6, 70260, Note_on_c, 4, 58, 48
6, 70289, Note_on_c, 4, 58, 0
6, 70290, Note_on_c, 4, 58, 48
6, 70319, Note_on_c, 4, 58, 0
6, 70320, Note_on_c, 4, 58, 48
6, 70349, Note_on_c, 4, 58, 0
6, 70350, Note_on_c, 4, 58, 48
6, 70379, Note_on_c, 4, 58, 0
6, 70380, Note_on_c, 4, 58, 44
6, 70409, Note_on_c, 4, 58, 0
6, 70410, Note_on_c, 4, 58, 48
6, 70439, Note_on_c, 4, 58, 0
6, 70440, Note_on_c, 4, 58, 48
6, 70469, Note_on_c, 4, 58, 0
6, 70470, Note_on_c, 4, 58, 48
6, 70499, Note_on_c, 4, 58, 0
6, 70500, Note_on_c, 4, 58, 48
6, 70529, Note_on_c, 4, 58, 0
6, 70530, Note_on_c, 4, 58, 48
6, 70559, Note_on_c, 4, 58, 0
6, 70560, Note_on_c, 4, 57, 73
6, 70589, Note_on_c, 4, 57, 0
6, 70590, Note_on_c, 4, 57, 70
6, 70619, Note_on_c, 4, 57, 0
6, 70620, Note_on_c, 4, 57, 80
6, 70649, Note_on_c, 4, 57, 0
6, 70650, Note_on_c, 4, 57, 73
6, 70679, Note_on_c, 4, 57, 0
6, 70680, Note_on_c, 4, 57, 80
6, 70709, Note_on_c, 4, 57, 0
6, 70710, Note_on_c, 4, 57, 80
6, 70739, Note_on_c, 4, 57, 0
6, 70740, Note_on_c, 4, 57, 80
6, 70769, Note_on_c, 4, 57, 0
6, 70770, Note_on_c, 4, 57, 77
6, 70799, Note_on_c, 4, 57, 0
6, 70800, Note_on_c, 4, 57, 80
6, 70829, Note_on_c, 4, 57, 0
6, 70830, Note_on_c, 4, 57, 80
6, 70859, Note_on_c, 4, 57, 0
6, 70860, Note_on_c, 4, 57, 80
6, 70889, Note_on_c, 4, 57, 0
6, 70890, Note_on_c, 4, 57, 80
6, 70919, Note_on_c, 4, 57, 0
6, 70920, Note_on_c, 4, 57, 77
6, 70949, Note_on_c, 4, 57, 0
6, 70950, Note_on_c, 4, 57, 80
6, 70979, Note_on_c, 4, 57, 0
6, 70980, Note_on_c, 4, 57, 79
6, 71009, Note_on_c, 4, 57, 0
6, 71010, Note_on_c, 4, 57, 73
6, 71039, Note_on_c, 4, 57, 0
6, 71040, Note_on_c, 4, 57, 108
6, 71069, Note_on_c, 4, 57, 0
6, 71070, Note_on_c, 4, 57, 42
6, 71099, Note_on_c, 4, 57, 0
6, 71100, Note_on_c, 4, 57, 41
6, 71129, Note_on_c, 4, 57, 0
6, 71130, Note_on_c, 4, 57, 41
6, 71159, Note_on_c, 4, 57, 0
6, 71160, Note_on_c, 4, 57, 48
6, 71189, Note_on_c, 4, 57, 0
6, 71190, Note_on_c, 4, 57, 46
6, 71219, Note_on_c, 4, 57, 0
6, 71220, Note_on_c, 4, 57, 46
6, 71249, Note_on_c, 4, 57, 0
6, 71250, Note_on_c, 4, 57, 46
6, 71279, Note_on_c, 4, 57, 0
6, 71280, Note_on_c, 4, 57, 48
6, 71309, Note_on_c, 4, 57, 0
6, 71310, Note_on_c, 4, 57, 44
6, 71339, Note_on_c, 4, 57, 0
6, 71340, Note_on_c, 4, 57, 48
6, 71369, Note_on_c, 4, 57, 0
6, 71370, Note_on_c, 4, 57, 48
6, 71399, Note_on_c, 4, 57, 0
6, 71400, Note_on_c, 4, 57, 48
6, 71429, Note_on_c, 4, 57, 0
6, 71430, Note_on_c, 4, 57, 48
6, 71459, Note_on_c, 4, 57, 0
6, 71460, Note_on_c, 4, 57, 48
6, 71489, Note_on_c, 4, 57, 0
6, 71490, Note_on_c, 4, 57, 48
6, 71519, Note_on_c, 4, 57, 0
6, 71520, Note_on_c, 4, 58, 114
6, 71579, Note_on_c, 4, 58, 0
6, 71580, Note_on_c, 4, 70, 114
6, 71639, Note_on_c, 4, 70, 0
6, 71640, Note_on_c, 4, 69, 114
6, 71699, Note_on_c, 4, 69, 0
6, 71700, Note_on_c, 4, 70, 90
6, 71759, Note_on_c, 4, 70, 0
6, 71760, Note_on_c, 4, 65, 112
6, 71819, Note_on_c, 4, 65, 0
6, 71820, Note_on_c, 4, 70, 112
6, 71879, Note_on_c, 4, 70, 0
6, 71880, Note_on_c, 4, 62, 99
6, 71939, Note_on_c, 4, 62, 0
6, 71940, Note_on_c, 4, 65, 113
6, 71999, Note_on_c, 4, 65, 0
6, 72000, Note_on_c, 4, 58, 92
6, 72059, Note_on_c, 4, 58, 0
6, 72060, Note_on_c, 4, 70, 103
6, 72119, Note_on_c, 4, 70, 0
6, 72120, Note_on_c, 4, 65, 101
6, 72179, Note_on_c, 4, 65, 0
6, 72180, Note_on_c, 4, 62, 110
6, 72239, Note_on_c, 4, 62, 0
6, 72240, Note_on_c, 4, 58, 114
6, 72299, Note_on_c, 4, 58, 0
6, 72480, Note_on_c, 4, 75, 54
6, 72539, Note_on_c, 4, 75, 0
6, 72540, Note_on_c, 4, 75, 44
6, 72599, Note_on_c, 4, 75, 0
6, 72600, Note_on_c, 4, 75, 48
6, 72659, Note_on_c, 4, 75, 0
6, 72660, Note_on_c, 4, 75, 45
6, 72719, Note_on_c, 4, 75, 0
6, 72720, Note_on_c, 4, 75, 59
6, 72779, Note_on_c, 4, 75, 0
6, 72780, Note_on_c, 4, 75, 58
6, 72839, Note_on_c, 4, 75, 0
6, 72840, Note_on_c, 4, 75, 63
6, 72899, Note_on_c, 4, 75, 0
6, 72900, Note_on_c, 4, 75, 58
6, 72959, Note_on_c, 4, 75, 0
6, 72960, Note_on_c, 4, 75, 64
6, 73019, Note_on_c, 4, 75, 0
6, 73020, Note_on_c, 4, 75, 64
6, 73079, Note_on_c, 4, 75, 0
6, 73080, Note_on_c, 4, 74, 53
6, 73139, Note_on_c, 4, 74, 0
6, 73140, Note_on_c, 4, 72, 55
6, 73199, Note_on_c, 4, 72, 0
6, 73200, Note_on_c, 4, 70, 42
6, 73259, Note_on_c, 4, 70, 0
6, 73260, Note_on_c, 4, 68, 55
6, 73319, Note_on_c, 4, 68, 0
6, 73320, Note_on_c, 4, 67, 53
6, 73379, Note_on_c, 4, 67, 0
6, 73380, Note_on_c, 4, 65, 67
6, 73439, Note_on_c, 4, 65, 0
6, 73440, Note_on_c, 4, 67, 64
6, 73499, Note_on_c, 4, 67, 0
6, 73500, Note_on_c, 4, 67, 68
6, 73559, Note_on_c, 4, 67, 0
6, 73560, Note_on_c, 4, 65, 53
6, 73619, Note_on_c, 4, 65, 0
6, 73620, Note_on_c, 4, 63, 60
6, 73679, Note_on_c, 4, 63, 0
6, 73680, Note_on_c, 4, 62, 63
6, 73739, Note_on_c, 4, 62, 0
6, 73740, Note_on_c, 4, 60, 67
6, 73799, Note_on_c, 4, 60, 0
6, 73800, Note_on_c, 4, 58, 68
6, 73859, Note_on_c, 4, 58, 0
6, 73860, Note_on_c, 4, 56, 66
6, 73919, Note_on_c, 4, 56, 0
6, 73920, Note_on_c, 4, 55, 66
6, 74039, Note_on_c, 4, 55, 0
6, 74280, Note_on_c, 4, 56, 68
6, 74399, Note_on_c, 4, 56, 0
6, 74400, Note_on_c, 4, 55, 106
6, 74459, Note_on_c, 4, 55, 0
6, 74460, Note_on_c, 4, 67, 114
6, 74519, Note_on_c, 4, 67, 0
6, 74520, Note_on_c, 4, 65, 94
6, 74579, Note_on_c, 4, 65, 0
6, 74580, Note_on_c, 4, 63, 83
6, 74639, Note_on_c, 4, 63, 0
6, 74640, Note_on_c, 4, 62, 95
6, 74699, Note_on_c, 4, 62, 0
6, 74700, Note_on_c, 4, 60, 86
6, 74759, Note_on_c, 4, 60, 0
6, 74760, Note_on_c, 4, 58, 101
6, 74819, Note_on_c, 4, 58, 0
6, 74820, Note_on_c, 4, 56, 104
6, 74879, Note_on_c, 4, 56, 0
6, 74880, Note_on_c, 4, 55, 97
6, 74939, Note_on_c, 4, 55, 0
6, 74940, Note_on_c, 4, 67, 94
6, 74999, Note_on_c, 4, 67, 0
6, 75000, Note_on_c, 4, 65, 76
6, 75059, Note_on_c, 4, 65, 0
6, 75060, Note_on_c, 4, 63, 90
6, 75119, Note_on_c, 4, 63, 0
6, 75120, Note_on_c, 4, 62, 74
6, 75179, Note_on_c, 4, 62, 0
6, 75180, Note_on_c, 4, 60, 95
6, 75239, Note_on_c, 4, 60, 0
6, 75240, Note_on_c, 4, 58, 83
6, 75299, Note_on_c, 4, 58, 0
6, 75300, Note_on_c, 4, 56, 97
6, 75359, Note_on_c, 4, 56, 0
6, 75360, Control_c, 4, 7, 53
6, 75360, Control_c, 4, 7, 55
6, 75360, Note_on_c, 4, 55, 114
6, 75479, Note_on_c, 4, 55, 0
6, 75600, Note_on_c, 4, 73, 114
6, 75839, Note_on_c, 4, 73, 0
6, 75840, Note_on_c, 4, 72, 110
6, 75959, Note_on_c, 4, 72, 0
6, 76080, Note_on_c, 4, 63, 112
6, 76319, Note_on_c, 4, 63, 0
6, 76320, Note_on_c, 4, 63, 113
6, 76439, Note_on_c, 4, 63, 0
6, 76560, Note_on_c, 4, 73, 112
6, 76799, Note_on_c, 4, 73, 0
6, 76800, Note_on_c, 4, 72, 103
6, 76919, Note_on_c, 4, 72, 0
6, 77100, Note_on_c, 4, 58, 112
6, 77219, Note_on_c, 4, 58, 0
6, 77220, Note_on_c, 4, 56, 114
6, 77279, Note_on_c, 4, 56, 0
6, 77280, Note_on_c, 4, 55, 106
6, 77399, Note_on_c, 4, 55, 0
6, 77520, Note_on_c, 4, 73, 114
6, 77759, Note_on_c, 4, 73, 0
6, 77760, Note_on_c, 4, 72, 114
6, 77879, Note_on_c, 4, 72, 0
6, 77880, Control_c, 4, 7, 53
6, 77880, Control_c, 4, 7, 55
6, 78000, Note_on_c, 4, 63, 114
6, 78239, Note_on_c, 4, 63, 0
6, 78240, Note_on_c, 4, 63, 112
6, 78359, Note_on_c, 4, 63, 0
6, 78480, Note_on_c, 4, 73, 114
6, 78719, Note_on_c, 4, 73, 0
6, 78720, Note_on_c, 4, 72, 114
6, 78839, Note_on_c, 4, 72, 0
6, 79020, Note_on_c, 4, 58, 114
6, 79139, Note_on_c, 4, 58, 0
6, 79140, Note_on_c, 4, 56, 114
6, 79199, Note_on_c, 4, 56, 0
6, 79200, Note_on_c, 4, 55, 101
6, 79319, Note_on_c, 4, 55, 0
6, 79380, Note_on_c, 4, 55, 86
6, 79439, Note_on_c, 4, 55, 0
6, 79440, Note_on_c, 4, 56, 114
6, 79499, Note_on_c, 4, 56, 0
6, 79500, Note_on_c, 4, 58, 99
6, 79559, Note_on_c, 4, 58, 0
6, 79560, Note_on_c, 4, 60, 101
6, 79619, Note_on_c, 4, 60, 0
6, 79620, Note_on_c, 4, 62, 90
6, 79679, Note_on_c, 4, 62, 0
6, 79680, Note_on_c, 4, 63, 104
6, 79739, Note_on_c, 4, 63, 0
6, 79740, Note_on_c, 4, 65, 113
6, 79799, Note_on_c, 4, 65, 0
6, 79800, Note_on_c, 4, 67, 114
6, 79859, Note_on_c, 4, 67, 0
6, 79860, Note_on_c, 4, 58, 101
6, 79919, Note_on_c, 4, 58, 0
6, 79920, Note_on_c, 4, 60, 114
6, 79979, Note_on_c, 4, 60, 0
6, 79980, Note_on_c, 4, 62, 104
6, 80039, Note_on_c, 4, 62, 0
6, 80040, Note_on_c, 4, 63, 114
6, 80099, Note_on_c, 4, 63, 0
6, 80100, Note_on_c, 4, 65, 112
6, 80159, Note_on_c, 4, 65, 0
6, 80160, Note_on_c, 4, 67, 106
6, 80219, Note_on_c, 4, 67, 0
6, 80220, Note_on_c, 4, 68, 114
6, 80279, Note_on_c, 4, 68, 0
6, 80280, Note_on_c, 4, 70, 114
6, 80339, Note_on_c, 4, 70, 0
6, 80340, Note_on_c, 4, 63, 101
6, 80399, Note_on_c, 4, 63, 0
6, 80400, Note_on_c, 4, 65, 95
6, 80459, Note_on_c, 4, 65, 0
6, 80460, Note_on_c, 4, 67, 101
6, 80519, Note_on_c, 4, 67, 0
6, 80520, Note_on_c, 4, 68, 114
6, 80579, Note_on_c, 4, 68, 0
6, 80580, Note_on_c, 4, 70, 113
6, 80639, Note_on_c, 4, 70, 0
6, 80640, Note_on_c, 4, 72, 114
6, 80699, Note_on_c, 4, 72, 0
6, 80700, Note_on_c, 4, 74, 112
6, 80759, Note_on_c, 4, 74, 0
6, 80760, Note_on_c, 4, 75, 113
6, 80819, Note_on_c, 4, 75, 0
6, 80820, Note_on_c, 4, 67, 99
6, 80879, Note_on_c, 4, 67, 0
6, 80880, Note_on_c, 4, 68, 113
6, 80940, Note_on_c, 4, 68, 0
6, 81000, Note_on_c, 4, 68, 114
6, 81060, Note_on_c, 4, 68, 0
6, 81120, Note_on_c, 4, 67, 108
6, 81180, Note_on_c, 4, 67, 0
6, 81300, Note_on_c, 4, 55, 81
6, 81359, Note_on_c, 4, 55, 0
6, 81360, Note_on_c, 4, 56, 112
6, 81419, Note_on_c, 4, 56, 0
6, 81420, Note_on_c, 4, 58, 81
6, 81479, Note_on_c, 4, 58, 0
6, 81480, Note_on_c, 4, 60, 110
6, 81539, Note_on_c, 4, 60, 0
6, 81540, Note_on_c, 4, 62, 106
6, 81599, Note_on_c, 4, 62, 0
6, 81600, Note_on_c, 4, 63, 95
6, 81659, Note_on_c, 4, 63, 0
6, 81660, Note_on_c, 4, 65, 114
6, 81719, Note_on_c, 4, 65, 0
6, 81720, Note_on_c, 4, 67, 114
6, 81779, Note_on_c, 4, 67, 0
6, 81780, Note_on_c, 4, 58, 95
6, 81839, Note_on_c, 4, 58, 0
6, 81840, Note_on_c, 4, 60, 110
6, 81899, Note_on_c, 4, 60, 0
6, 81900, Note_on_c, 4, 62, 99
6, 81959, Note_on_c, 4, 62, 0
6, 81960, Note_on_c, 4, 63, 106
6, 82019, Note_on_c, 4, 63, 0
6, 82020, Note_on_c, 4, 65, 99
6, 82079, Note_on_c, 4, 65, 0
6, 82080, Note_on_c, 4, 67, 108
6, 82139, Note_on_c, 4, 67, 0
6, 82140, Note_on_c, 4, 68, 114
6, 82199, Note_on_c, 4, 68, 0
6, 82200, Note_on_c, 4, 70, 101
6, 82259, Note_on_c, 4, 70, 0
6, 82260, Note_on_c, 4, 63, 104
6, 82319, Note_on_c, 4, 63, 0
6, 82320, Note_on_c, 4, 65, 108
6, 82379, Note_on_c, 4, 65, 0
6, 82380, Note_on_c, 4, 67, 104
6, 82439, Note_on_c, 4, 67, 0
6, 82440, Note_on_c, 4, 68, 114
6, 82499, Note_on_c, 4, 68, 0
6, 82500, Note_on_c, 4, 70, 114
6, 82559, Note_on_c, 4, 70, 0
6, 82560, Note_on_c, 4, 72, 114
6, 82619, Note_on_c, 4, 72, 0
6, 82620, Note_on_c, 4, 74, 106
6, 82679, Note_on_c, 4, 74, 0
6, 82680, Note_on_c, 4, 75, 104
6, 82739, Note_on_c, 4, 75, 0
6, 82740, Note_on_c, 4, 70, 99
6, 82799, Note_on_c, 4, 70, 0
6, 82800, Note_on_c, 4, 72, 99
6, 82860, Note_on_c, 4, 72, 0
6, 82920, Note_on_c, 4, 68, 114
6, 82980, Note_on_c, 4, 68, 0
6, 83040, Note_on_c, 4, 67, 110
6, 83080, Note_on_c, 4, 67, 0
6, 83640, Note_on_c, 4, 68, 114
6, 83654, Note_on_c, 4, 68, 0
6, 83655, Note_on_c, 4, 67, 112
6, 83669, Note_on_c, 4, 67, 0
6, 83670, Note_on_c, 4, 68, 114
6, 83684, Note_on_c, 4, 68, 0
6, 83685, Note_on_c, 4, 67, 112
6, 83699, Note_on_c, 4, 67, 0
6, 83700, Note_on_c, 4, 68, 114
6, 83714, Note_on_c, 4, 68, 0
6, 83715, Note_on_c, 4, 67, 106
6, 83729, Note_on_c, 4, 67, 0
6, 83730, Note_on_c, 4, 65, 114
6, 83744, Note_on_c, 4, 65, 0
6, 83745, Note_on_c, 4, 67, 114
6, 83759, Note_on_c, 4, 67, 0
6, 83760, Note_on_c, 4, 68, 114
6, 83820, Note_on_c, 4, 68, 0
6, 83880, Note_on_c, 4, 70, 104
6, 83940, Note_on_c, 4, 70, 0
6, 84000, Note_on_c, 4, 72, 114
6, 84059, Note_on_c, 4, 72, 0
6, 84600, Note_on_c, 4, 68, 114
6, 84614, Note_on_c, 4, 68, 0
6, 84615, Note_on_c, 4, 67, 103
6, 84629, Note_on_c, 4, 67, 0
6, 84630, Note_on_c, 4, 68, 114
6, 84644, Note_on_c, 4, 68, 0
6, 84645, Note_on_c, 4, 67, 95
6, 84659, Note_on_c, 4, 67, 0
6, 84660, Note_on_c, 4, 68, 114
6, 84674, Note_on_c, 4, 68, 0
6, 84675, Note_on_c, 4, 67, 94
6, 84689, Note_on_c, 4, 67, 0
6, 84690, Note_on_c, 4, 65, 112
6, 84704, Note_on_c, 4, 65, 0
6, 84705, Note_on_c, 4, 67, 101
6, 84719, Note_on_c, 4, 67, 0
6, 84720, Note_on_c, 4, 68, 114
6, 84780, Note_on_c, 4, 68, 0
6, 84840, Note_on_c, 4, 70, 114
6, 84900, Note_on_c, 4, 70, 0
6, 84960, Note_on_c, 4, 63, 113
6, 85020, Note_on_c, 4, 63, 0
6, 85200, Note_on_c, 4, 58, 114
6, 85319, Note_on_c, 4, 58, 0
6, 85320, Note_on_c, 4, 58, 114
6, 85439, Note_on_c, 4, 58, 0
6, 85440, Note_on_c, 4, 58, 114
6, 85559, Note_on_c, 4, 58, 0
6, 85560, Note_on_c, 4, 58, 114
6, 85679, Note_on_c, 4, 58, 0
6, 85680, Note_on_c, 4, 58, 114
6, 85799, Note_on_c, 4, 58, 0
6, 85799, End_track
7, 0, Start_track
7, 0, MIDI_port, 0
7, 0, Title_t, "Cello"
7, 0, Program_c, 5, 42
7, 480, Note_on_c, 5, 51, 114
7, 695, Note_on_c, 5, 51, 0
7, 720, Note_on_c, 5, 55, 114
7, 935, Note_on_c, 5, 55, 0
7, 960, Note_on_c, 5, 58, 114
7, 1004, Note_on_c, 5, 58, 0
7, 1020, Note_on_c, 5, 58, 114
7, 1064, Note_on_c, 5, 58, 0
7, 1080, Note_on_c, 5, 58, 114
7, 1124, Note_on_c, 5, 58, 0
7, 1140, Note_on_c, 5, 58, 114
7, 1184, Note_on_c, 5, 58, 0
7, 1200, Note_on_c, 5, 58, 114
7, 1244, Note_on_c, 5, 58, 0
7, 1260, Note_on_c, 5, 58, 114
7, 1304, Note_on_c, 5, 58, 0
7, 1320, Note_on_c, 5, 58, 114
7, 1364, Note_on_c, 5, 58, 0
7, 1380, Note_on_c, 5, 58, 114
7, 1424, Note_on_c, 5, 58, 0
7, 1440, Note_on_c, 5, 55, 114
7, 1493, Note_on_c, 5, 55, 0
7, 1560, Note_on_c, 5, 51, 114
7, 1613, Note_on_c, 5, 51, 0
7, 2040, Note_on_c, 5, 51, 80
7, 2159, Note_on_c, 5, 51, 0
7, 2160, Note_on_c, 5, 51, 80
7, 2279, Note_on_c, 5, 51, 0
7, 2280, Note_on_c, 5, 51, 80
7, 2399, Note_on_c, 5, 51, 0
7, 2520, Note_on_c, 5, 44, 80
7, 2639, Note_on_c, 5, 44, 0
7, 2640, Note_on_c, 5, 44, 80
7, 2759, Note_on_c, 5, 44, 0
7, 2760, Note_on_c, 5, 44, 80
7, 2879, Note_on_c, 5, 44, 0
7, 3000, Note_on_c, 5, 46, 80
7, 3119, Note_on_c, 5, 46, 0
7, 3120, Note_on_c, 5, 46, 80
7, 3239, Note_on_c, 5, 46, 0
7, 3240, Note_on_c, 5, 46, 80
7, 3359, Note_on_c, 5, 46, 0
7, 3480, Note_on_c, 5, 51, 80
7, 3599, Note_on_c, 5, 51, 0
7, 3600, Note_on_c, 5, 51, 80
7, 3719, Note_on_c, 5, 51, 0
7, 3720, Note_on_c, 5, 51, 80
7, 3839, Note_on_c, 5, 51, 0
7, 3960, Note_on_c, 5, 43, 80
7, 4079, Note_on_c, 5, 43, 0
7, 4080, Note_on_c, 5, 43, 80
7, 4199, Note_on_c, 5, 43, 0
7, 4200, Note_on_c, 5, 43, 80
7, 4319, Note_on_c, 5, 43, 0
7, 4440, Note_on_c, 5, 44, 80
7, 4559, Note_on_c, 5, 44, 0
7, 4560, Note_on_c, 5, 44, 80
7, 4679, Note_on_c, 5, 44, 0
7, 4680, Note_on_c, 5, 44, 80
7, 4799, Note_on_c, 5, 44, 0
7, 4920, Note_on_c, 5, 46, 80
7, 5039, Note_on_c, 5, 46, 0
7, 5040, Note_on_c, 5, 46, 80
7, 5159, Note_on_c, 5, 46, 0
7, 5160, Note_on_c, 5, 46, 80
7, 5279, Note_on_c, 5, 46, 0
7, 5280, Note_on_c, 5, 51, 80
7, 5339, Note_on_c, 5, 51, 0
7, 5340, Note_on_c, 5, 63, 80
7, 5399, Note_on_c, 5, 63, 0
7, 5400, Note_on_c, 5, 62, 80
7, 5459, Note_on_c, 5, 62, 0
7, 5460, Note_on_c, 5, 60, 80
7, 5519, Note_on_c, 5, 60, 0
7, 5520, Note_on_c, 5, 58, 80
7, 5579, Note_on_c, 5, 58, 0
7, 5580, Note_on_c, 5, 56, 80
7, 5639, Note_on_c, 5, 56, 0
7, 5640, Note_on_c, 5, 55, 80
7, 5699, Note_on_c, 5, 55, 0
7, 5700, Note_on_c, 5, 53, 80
7, 5759, Note_on_c, 5, 53, 0
7, 5760, Note_on_c, 5, 51, 114
7, 5957, Note_on_c, 5, 51, 0
7, 6000, Note_on_c, 5, 55, 114
7, 6197, Note_on_c, 5, 55, 0
7, 6240, Note_on_c, 5, 58, 114
7, 6299, Note_on_c, 5, 58, 0
7, 6300, Note_on_c, 5, 58, 114
7, 6359, Note_on_c, 5, 58, 0
7, 6360, Note_on_c, 5, 58, 114
7, 6419, Note_on_c, 5, 58, 0
7, 6420, Note_on_c, 5, 58, 114
7, 6479, Note_on_c, 5, 58, 0
7, 6480, Note_on_c, 5, 58, 114
7, 6539, Note_on_c, 5, 58, 0
7, 6540, Note_on_c, 5, 58, 114
7, 6599, Note_on_c, 5, 58, 0
7, 6600, Note_on_c, 5, 58, 114
7, 6659, Note_on_c, 5, 58, 0
7, 6660, Note_on_c, 5, 58, 114
7, 6719, Note_on_c, 5, 58, 0
7, 6720, Note_on_c, 5, 55, 114
7, 6791, Note_on_c, 5, 55, 0
7, 6840, Note_on_c, 5, 51, 114
7, 6911, Note_on_c, 5, 51, 0
7, 7320, Note_on_c, 5, 51, 80
7, 7439, Note_on_c, 5, 51, 0
7, 7440, Note_on_c, 5, 51, 80
7, 7559, Note_on_c, 5, 51, 0
7, 7560, Note_on_c, 5, 51, 80
7, 7679, Note_on_c, 5, 51, 0
7, 7800, Note_on_c, 5, 44, 80
7, 7919, Note_on_c, 5, 44, 0
7, 7920, Note_on_c, 5, 44, 80
7, 8039, Note_on_c, 5, 44, 0
7, 8040, Note_on_c, 5, 44, 80
7, 8159, Note_on_c, 5, 44, 0
7, 8280, Note_on_c, 5, 46, 80
7, 8399, Note_on_c, 5, 46, 0
7, 8400, Note_on_c, 5, 46, 80
7, 8519, Note_on_c, 5, 46, 0
7, 8520, Note_on_c, 5, 46, 80
7, 8639, Note_on_c, 5, 46, 0
7, 8760, Note_on_c, 5, 51, 80
7, 8879, Note_on_c, 5, 51, 0
7, 8880, Note_on_c, 5, 51, 80
7, 8999, Note_on_c, 5, 51, 0
7, 9000, Note_on_c, 5, 51, 80
7, 9119, Note_on_c, 5, 51, 0
7, 9240, Note_on_c, 5, 43, 80
7, 9359, Note_on_c, 5, 43, 0
7, 9360, Note_on_c, 5, 43, 80
7, 9479, Note_on_c, 5, 43, 0
7, 9480, Note_on_c, 5, 43, 80
7, 9599, Note_on_c, 5, 43, 0
7, 9720, Note_on_c, 5, 44, 80
7, 9839, Note_on_c, 5, 44, 0
7, 9840, Note_on_c, 5, 44, 80
7, 9959, Note_on_c, 5, 44, 0
7, 9960, Note_on_c, 5, 44, 80
7, 10079, Note_on_c, 5, 44, 0
7, 10200, Note_on_c, 5, 46, 80
7, 10319, Note_on_c, 5, 46, 0
7, 10320, Note_on_c, 5, 46, 80
7, 10439, Note_on_c, 5, 46, 0
7, 10440, Note_on_c, 5, 46, 80
7, 10559, Note_on_c, 5, 46, 0
7, 10560, Note_on_c, 5, 51, 80
7, 10619, Note_on_c, 5, 51, 0
7, 10620, Note_on_c, 5, 63, 80
7, 10679, Note_on_c, 5, 63, 0
7, 10680, Note_on_c, 5, 62, 80
7, 10739, Note_on_c, 5, 62, 0
7, 10740, Note_on_c, 5, 60, 80
7, 10799, Note_on_c, 5, 60, 0
7, 10800, Note_on_c, 5, 58, 80
7, 10859, Note_on_c, 5, 58, 0
7, 10860, Note_on_c, 5, 56, 80
7, 10919, Note_on_c, 5, 56, 0
7, 10920, Note_on_c, 5, 55, 80
7, 10979, Note_on_c, 5, 55, 0
7, 10980, Note_on_c, 5, 53, 80
7, 11039, Note_on_c, 5, 53, 0
7, 11040, Note_on_c, 5, 51, 114
7, 11099, Note_on_c, 5, 51, 0
7, 11100, Note_on_c, 5, 51, 58
7, 11159, Note_on_c, 5, 51, 0
7, 11160, Note_on_c, 5, 51, 58
7, 11219, Note_on_c, 5, 51, 0
7, 11220, Note_on_c, 5, 51, 58
7, 11279, Note_on_c, 5, 51, 0
7, 11280, Note_on_c, 5, 51, 58
7, 11339, Note_on_c, 5, 51, 0
7, 11340, Note_on_c, 5, 51, 58
7, 11399, Note_on_c, 5, 51, 0
7, 11400, Note_on_c, 5, 51, 58
7, 11459, Note_on_c, 5, 51, 0
7, 11460, Note_on_c, 5, 51, 58
7, 11519, Note_on_c, 5, 51, 0
7, 11520, Note_on_c, 5, 51, 58
7, 11579, Note_on_c, 5, 51, 0
7, 11580, Note_on_c, 5, 51, 58
7, 11639, Note_on_c, 5, 51, 0
7, 11640, Note_on_c, 5, 51, 58
7, 11699, Note_on_c, 5, 51, 0
7, 11700, Note_on_c, 5, 51, 58
7, 11759, Note_on_c, 5, 51, 0
7, 11760, Note_on_c, 5, 51, 58
7, 11819, Note_on_c, 5, 51, 0
7, 11820, Note_on_c, 5, 51, 58
7, 11879, Note_on_c, 5, 51, 0
7, 11880, Note_on_c, 5, 51, 58
7, 11939, Note_on_c, 5, 51, 0
7, 11940, Note_on_c, 5, 51, 58
7, 11999, Note_on_c, 5, 51, 0
7, 12000, Note_on_c, 5, 51, 114
7, 12059, Note_on_c, 5, 51, 0
7, 12060, Note_on_c, 5, 51, 114
7, 12119, Note_on_c, 5, 51, 0
7, 12120, Note_on_c, 5, 51, 114
7, 12179, Note_on_c, 5, 51, 0
7, 12180, Note_on_c, 5, 51, 114
7, 12239, Note_on_c, 5, 51, 0
7, 12240, Note_on_c, 5, 51, 114
7, 12299, Note_on_c, 5, 51, 0
7, 12300, Note_on_c, 5, 51, 114
7, 12359, Note_on_c, 5, 51, 0
7, 12360, Note_on_c, 5, 51, 114
7, 12419, Note_on_c, 5, 51, 0
7, 12420, Note_on_c, 5, 51, 114
7, 12479, Note_on_c, 5, 51, 0
7, 12480, Note_on_c, 5, 51, 58
7, 12539, Note_on_c, 5, 51, 0
7, 12540, Note_on_c, 5, 51, 58
7, 12599, Note_on_c, 5, 51, 0
7, 12600, Note_on_c, 5, 51, 58
7, 12659, Note_on_c, 5, 51, 0
7, 12660, Note_on_c, 5, 51, 58
7, 12719, Note_on_c, 5, 51, 0
7, 12720, Note_on_c, 5, 51, 58
7, 12779, Note_on_c, 5, 51, 0
7, 12780, Note_on_c, 5, 51, 58
7, 12839, Note_on_c, 5, 51, 0
7, 12840, Note_on_c, 5, 51, 58
7, 12899, Note_on_c, 5, 51, 0
7, 12900, Note_on_c, 5, 51, 58
7, 12959, Note_on_c, 5, 51, 0
7, 12960, Note_on_c, 5, 51, 114
7, 13019, Note_on_c, 5, 51, 0
7, 13020, Note_on_c, 5, 51, 114
7, 13079, Note_on_c, 5, 51, 0
7, 13080, Note_on_c, 5, 51, 114
7, 13139, Note_on_c, 5, 51, 0
7, 13140, Note_on_c, 5, 51, 114
7, 13199, Note_on_c, 5, 51, 0
7, 13200, Note_on_c, 5, 51, 114
7, 13259, Note_on_c, 5, 51, 0
7, 13260, Note_on_c, 5, 51, 114
7, 13319, Note_on_c, 5, 51, 0
7, 13320, Note_on_c, 5, 51, 114
7, 13379, Note_on_c, 5, 51, 0
7, 13380, Note_on_c, 5, 51, 114
7, 13439, Note_on_c, 5, 51, 0
7, 13440, Note_on_c, 5, 51, 114
7, 13499, Note_on_c, 5, 51, 0
7, 13560, Note_on_c, 5, 58, 114
7, 13619, Note_on_c, 5, 58, 0
7, 13680, Note_on_c, 5, 55, 114
7, 13739, Note_on_c, 5, 55, 0
7, 13800, Note_on_c, 5, 51, 114
7, 13859, Note_on_c, 5, 51, 0
7, 13920, Note_on_c, 5, 58, 114
7, 13979, Note_on_c, 5, 58, 0
7, 13980, Note_on_c, 5, 58, 114
7, 14039, Note_on_c, 5, 58, 0
7, 14040, Note_on_c, 5, 57, 114
7, 14099, Note_on_c, 5, 57, 0
7, 14100, Note_on_c, 5, 58, 114
7, 14159, Note_on_c, 5, 58, 0
7, 14160, Note_on_c, 5, 53, 114
7, 14219, Note_on_c, 5, 53, 0
7, 14220, Note_on_c, 5, 58, 114
7, 14279, Note_on_c, 5, 58, 0
7, 14280, Note_on_c, 5, 50, 114
7, 14339, Note_on_c, 5, 50, 0
7, 14340, Note_on_c, 5, 53, 114
7, 14399, Note_on_c, 5, 53, 0
7, 14400, Note_on_c, 5, 46, 114
7, 14459, Note_on_c, 5, 46, 0
7, 14460, Note_on_c, 5, 58, 114
7, 14519, Note_on_c, 5, 58, 0
7, 14520, Note_on_c, 5, 53, 114
7, 14579, Note_on_c, 5, 53, 0
7, 14580, Note_on_c, 5, 50, 114
7, 14639, Note_on_c, 5, 50, 0
7, 14640, Note_on_c, 5, 46, 114
7, 14759, Note_on_c, 5, 46, 0
7, 15360, Note_on_c, 5, 58, 68
7, 15839, Note_on_c, 5, 58, 0
7, 15840, Note_on_c, 5, 58, 68
7, 15899, Note_on_c, 5, 58, 0
7, 15900, Note_on_c, 5, 58, 68
7, 15959, Note_on_c, 5, 58, 0
7, 15960, Note_on_c, 5, 57, 68
7, 16019, Note_on_c, 5, 57, 0
7, 16020, Note_on_c, 5, 55, 68
7, 16079, Note_on_c, 5, 55, 0
7, 16080, Note_on_c, 5, 53, 68
7, 16139, Note_on_c, 5, 53, 0
7, 16140, Note_on_c, 5, 51, 68
7, 16199, Note_on_c, 5, 51, 0
7, 16200, Note_on_c, 5, 50, 68
7, 16259, Note_on_c, 5, 50, 0
7, 16260, Note_on_c, 5, 48, 68
7, 16319, Note_on_c, 5, 48, 0
7, 16320, Note_on_c, 5, 46, 68
7, 16799, Note_on_c, 5, 46, 0
7, 16860, Note_on_c, 5, 58, 92
7, 16919, Note_on_c, 5, 58, 0
7, 16920, Note_on_c, 5, 57, 92
7, 16979, Note_on_c, 5, 57, 0
7, 16980, Note_on_c, 5, 55, 92
7, 17039, Note_on_c, 5, 55, 0
7, 17040, Note_on_c, 5, 53, 92
7, 17099, Note_on_c, 5, 53, 0
7, 17100, Note_on_c, 5, 51, 92
7, 17159, Note_on_c, 5, 51, 0
7, 17160, Note_on_c, 5, 50, 92
7, 17219, Note_on_c, 5, 50, 0
7, 17220, Note_on_c, 5, 48, 92
7, 17279, Note_on_c, 5, 48, 0
7, 17280, Note_on_c, 5, 46, 92
7, 17339, Note_on_c, 5, 46, 0
7, 17340, Note_on_c, 5, 58, 92
7, 17399, Note_on_c, 5, 58, 0
7, 17400, Note_on_c, 5, 57, 92
7, 17459, Note_on_c, 5, 57, 0
7, 17460, Note_on_c, 5, 55, 92
7, 17519, Note_on_c, 5, 55, 0
7, 17520, Note_on_c, 5, 53, 92
7, 17579, Note_on_c, 5, 53, 0
7, 17580, Note_on_c, 5, 51, 92
7, 17639, Note_on_c, 5, 51, 0
7, 17640, Note_on_c, 5, 50, 92
7, 17699, Note_on_c, 5, 50, 0
7, 17700, Note_on_c, 5, 48, 92
7, 17759, Note_on_c, 5, 48, 0
7, 17760, Note_on_c, 5, 46, 114
7, 17801, Note_on_c, 5, 46, 0
7, 17820, Note_on_c, 5, 58, 114
7, 17861, Note_on_c, 5, 58, 0
7, 17880, Note_on_c, 5, 57, 114
7, 17921, Note_on_c, 5, 57, 0
7, 17940, Note_on_c, 5, 58, 114
7, 17981, Note_on_c, 5, 58, 0
7, 18000, Note_on_c, 5, 53, 114
7, 18041, Note_on_c, 5, 53, 0
7, 18060, Note_on_c, 5, 58, 114
7, 18101, Note_on_c, 5, 58, 0
7, 18120, Note_on_c, 5, 50, 114
7, 18161, Note_on_c, 5, 50, 0
7, 18180, Note_on_c, 5, 58, 114
7, 18221, Note_on_c, 5, 58, 0
7, 18240, Note_on_c, 5, 51, 114
7, 18281, Note_on_c, 5, 51, 0
7, 18300, Note_on_c, 5, 58, 114
7, 18341, Note_on_c, 5, 58, 0
7, 18360, Note_on_c, 5, 57, 114
7, 18401, Note_on_c, 5, 57, 0
7, 18420, Note_on_c, 5, 58, 114
7, 18461, Note_on_c, 5, 58, 0
7, 18480, Note_on_c, 5, 55, 114
7, 18521, Note_on_c, 5, 55, 0
7, 18540, Note_on_c, 5, 58, 114
7, 18581, Note_on_c, 5, 58, 0
7, 18600, Note_on_c, 5, 51, 114
7, 18641, Note_on_c, 5, 51, 0
7, 18660, Note_on_c, 5, 55, 114
7, 18701, Note_on_c, 5, 55, 0
7, 18720, Note_on_c, 5, 46, 114
7, 18761, Note_on_c, 5, 46, 0
7, 18780, Note_on_c, 5, 58, 114
7, 18821, Note_on_c, 5, 58, 0
7, 18840, Note_on_c, 5, 57, 114
7, 18881, Note_on_c, 5, 57, 0
7, 18900, Note_on_c, 5, 58, 114
7, 18941, Note_on_c, 5, 58, 0
7, 18960, Note_on_c, 5, 53, 114
7, 19001, Note_on_c, 5, 53, 0
7, 19020, Note_on_c, 5, 58, 114
7, 19061, Note_on_c, 5, 58, 0
7, 19080, Note_on_c, 5, 50, 114
7, 19121, Note_on_c, 5, 50, 0
7, 19140, Note_on_c, 5, 53, 114
7, 19181, Note_on_c, 5, 53, 0
7, 19200, Note_on_c, 5, 51, 114
7, 19241, Note_on_c, 5, 51, 0
7, 19260, Note_on_c, 5, 51, 114
7, 19301, Note_on_c, 5, 51, 0
7, 19320, Note_on_c, 5, 51, 114
7, 19361, Note_on_c, 5, 51, 0
7, 19380, Note_on_c, 5, 51, 114
7, 19421, Note_on_c, 5, 51, 0
7, 19440, Note_on_c, 5, 53, 114
7, 19481, Note_on_c, 5, 53, 0
7, 19500, Note_on_c, 5, 53, 114
7, 19541, Note_on_c, 5, 53, 0
7, 19560, Note_on_c, 5, 41, 114
7, 19601, Note_on_c, 5, 41, 0
7, 19620, Note_on_c, 5, 41, 114
7, 19661, Note_on_c, 5, 41, 0
7, 19680, Note_on_c, 5, 46, 114
7, 19721, Note_on_c, 5, 46, 0
7, 19740, Note_on_c, 5, 58, 114
7, 19781, Note_on_c, 5, 58, 0
7, 19800, Note_on_c, 5, 57, 114
7, 19841, Note_on_c, 5, 57, 0
7, 19860, Note_on_c, 5, 58, 114
7, 19901, Note_on_c, 5, 58, 0
7, 19920, Note_on_c, 5, 53, 114
7, 19961, Note_on_c, 5, 53, 0
7, 19980, Note_on_c, 5, 58, 114
7, 20021, Note_on_c, 5, 58, 0
7, 20040, Note_on_c, 5, 50, 114
7, 20081, Note_on_c, 5, 50, 0
7, 20100, Note_on_c, 5, 58, 114
7, 20141, Note_on_c, 5, 58, 0
7, 20160, Note_on_c, 5, 51, 114
7, 20201, Note_on_c, 5, 51, 0
7, 20220, Note_on_c, 5, 58, 114
7, 20261, Note_on_c, 5, 58, 0
7, 20280, Note_on_c, 5, 57, 114
7, 20321, Note_on_c, 5, 57, 0
7, 20340, Note_on_c, 5, 58, 114
7, 20381, Note_on_c, 5, 58, 0
7, 20400, Note_on_c, 5, 55, 114
7, 20441, Note_on_c, 5, 55, 0
7, 20460, Note_on_c, 5, 58, 114
7, 20501, Note_on_c, 5, 58, 0
7, 20520, Note_on_c, 5, 51, 114
7, 20561, Note_on_c, 5, 51, 0
7, 20580, Note_on_c, 5, 55, 114
7, 20621, Note_on_c, 5, 55, 0
7, 20640, Note_on_c, 5, 46, 114
7, 20681, Note_on_c, 5, 46, 0
7, 20700, Note_on_c, 5, 58, 114
7, 20741, Note_on_c, 5, 58, 0
7, 20760, Note_on_c, 5, 57, 114
7, 20801, Note_on_c, 5, 57, 0
7, 20820, Note_on_c, 5, 58, 114
7, 20861, Note_on_c, 5, 58, 0
7, 20880, Note_on_c, 5, 53, 114
7, 20921, Note_on_c, 5, 53, 0
7, 20940, Note_on_c, 5, 58, 114
7, 20981, Note_on_c, 5, 58, 0
7, 21000, Note_on_c, 5, 50, 114
7, 21041, Note_on_c, 5, 50, 0
7, 21060, Note_on_c, 5, 58, 114
7, 21101, Note_on_c, 5, 58, 0
7, 21120, Note_on_c, 5, 51, 114
7, 21161, Note_on_c, 5, 51, 0
7, 21180, Note_on_c, 5, 51, 114
7, 21221, Note_on_c, 5, 51, 0
7, 21240, Note_on_c, 5, 51, 114
7, 21281, Note_on_c, 5, 51, 0
7, 21300, Note_on_c, 5, 51, 114
7, 21341, Note_on_c, 5, 51, 0
7, 21360, Note_on_c, 5, 53, 114
7, 21401, Note_on_c, 5, 53, 0
7, 21420, Note_on_c, 5, 53, 114
7, 21461, Note_on_c, 5, 53, 0
7, 21480, Note_on_c, 5, 41, 114
7, 21521, Note_on_c, 5, 41, 0
7, 21540, Note_on_c, 5, 41, 114
7, 21581, Note_on_c, 5, 41, 0
7, 21600, Note_on_c, 5, 46, 114
7, 21683, Note_on_c, 5, 46, 0
7, 21780, Note_on_c, 5, 46, 114
7, 21839, Note_on_c, 5, 46, 0
7, 21840, Note_on_c, 5, 48, 114
7, 21899, Note_on_c, 5, 48, 0
7, 21900, Note_on_c, 5, 50, 114
7, 21959, Note_on_c, 5, 50, 0
7, 21960, Note_on_c, 5, 51, 114
7, 22019, Note_on_c, 5, 51, 0
7, 22020, Note_on_c, 5, 53, 114
7, 22079, Note_on_c, 5, 53, 0
7, 22080, Note_on_c, 5, 55, 114
7, 22139, Note_on_c, 5, 55, 0
7, 22140, Note_on_c, 5, 57, 114
7, 22199, Note_on_c, 5, 57, 0
7, 22200, Note_on_c, 5, 58, 114
7, 22259, Note_on_c, 5, 58, 0
7, 22260, Note_on_c, 5, 50, 114
7, 22319, Note_on_c, 5, 50, 0
7, 22320, Note_on_c, 5, 51, 114
7, 22379, Note_on_c, 5, 51, 0
7, 22380, Note_on_c, 5, 53, 114
7, 22439, Note_on_c, 5, 53, 0
7, 22440, Note_on_c, 5, 55, 114
7, 22499, Note_on_c, 5, 55, 0
7, 22500, Note_on_c, 5, 57, 114
7, 22559, Note_on_c, 5, 57, 0
7, 22560, Note_on_c, 5, 58, 114
7, 22619, Note_on_c, 5, 58, 0
7, 22620, Note_on_c, 5, 60, 114
7, 22679, Note_on_c, 5, 60, 0
7, 22680, Note_on_c, 5, 62, 114
7, 22739, Note_on_c, 5, 62, 0
7, 22740, Note_on_c, 5, 53, 114
7, 22799, Note_on_c, 5, 53, 0
7, 22800, Note_on_c, 5, 55, 114
7, 22859, Note_on_c, 5, 55, 0
7, 22860, Note_on_c, 5, 57, 114
7, 22919, Note_on_c, 5, 57, 0
7, 22920, Note_on_c, 5, 58, 114
7, 22979, Note_on_c, 5, 58, 0
7, 22980, Note_on_c, 5, 60, 114
7, 23039, Note_on_c, 5, 60, 0
7, 23040, Note_on_c, 5, 62, 114
7, 23099, Note_on_c, 5, 62, 0
7, 23100, Note_on_c, 5, 63, 114
7, 23159, Note_on_c, 5, 63, 0
7, 23160, Note_on_c, 5, 65, 114
7, 23219, Note_on_c, 5, 65, 0
7, 23220, Note_on_c, 5, 50, 114
7, 23279, Note_on_c, 5, 50, 0
7, 23280, Note_on_c, 5, 51, 114
7, 23330, Note_on_c, 5, 51, 0
7, 23400, Note_on_c, 5, 53, 114
7, 23450, Note_on_c, 5, 53, 0
7, 23520, Note_on_c, 5, 46, 114
7, 23639, Note_on_c, 5, 46, 0
7, 23700, Note_on_c, 5, 46, 114
7, 23759, Note_on_c, 5, 46, 0
7, 23760, Note_on_c, 5, 48, 114
7, 23819, Note_on_c, 5, 48, 0
7, 23820, Note_on_c, 5, 50, 114
7, 23879, Note_on_c, 5, 50, 0
7, 23880, Note_on_c, 5, 51, 114
7, 23939, Note_on_c, 5, 51, 0
7, 23940, Note_on_c, 5, 53, 114
7, 23999, Note_on_c, 5, 53, 0
7, 24000, Note_on_c, 5, 55, 114
7, 24059, Note_on_c, 5, 55, 0
7, 24060, Note_on_c, 5, 57, 114
7, 24119, Note_on_c, 5, 57, 0
7, 24120, Note_on_c, 5, 58, 114
7, 24179, Note_on_c, 5, 58, 0
7, 24180, Note_on_c, 5, 50, 114
7, 24239, Note_on_c, 5, 50, 0
7, 24240, Note_on_c, 5, 51, 114
7, 24299, Note_on_c, 5, 51, 0
7, 24300, Note_on_c, 5, 53, 114
7, 24359, Note_on_c, 5, 53, 0
7, 24360, Note_on_c, 5, 55, 114
7, 24419, Note_on_c, 5, 55, 0
7, 24420, Note_on_c, 5, 57, 114
7, 24479, Note_on_c, 5, 57, 0
7, 24480, Note_on_c, 5, 58, 114
7, 24539, Note_on_c, 5, 58, 0
7, 24540, Note_on_c, 5, 60, 114
7, 24599, Note_on_c, 5, 60, 0
7, 24600, Note_on_c, 5, 62, 114
7, 24659, Note_on_c, 5, 62, 0
7, 24660, Note_on_c, 5, 53, 114
7, 24719, Note_on_c, 5, 53, 0
7, 24720, Note_on_c, 5, 55, 114
7, 24779, Note_on_c, 5, 55, 0
7, 24780, Note_on_c, 5, 57, 114
7, 24839, Note_on_c, 5, 57, 0
7, 24840, Note_on_c, 5, 58, 114
7, 24899, Note_on_c, 5, 58, 0
7, 24900, Note_on_c, 5, 60, 114
7, 24959, Note_on_c, 5, 60, 0
7, 24960, Note_on_c, 5, 62, 114
7, 25019, Note_on_c, 5, 62, 0
7, 25020, Note_on_c, 5, 63, 114
7, 25079, Note_on_c, 5, 63, 0
7, 25080, Note_on_c, 5, 65, 114
7, 25139, Note_on_c, 5, 65, 0
7, 25140, Note_on_c, 5, 50, 114
7, 25199, Note_on_c, 5, 50, 0
7, 25200, Note_on_c, 5, 51, 114
7, 25250, Note_on_c, 5, 51, 0
7, 25320, Note_on_c, 5, 53, 114
7, 25370, Note_on_c, 5, 53, 0
7, 25440, Note_on_c, 5, 46, 114
7, 25538, Note_on_c, 5, 46, 0
7, 26040, Note_on_c, 5, 51, 114
7, 26054, Note_on_c, 5, 51, 0
7, 26055, Note_on_c, 5, 50, 114
7, 26069, Note_on_c, 5, 50, 0
7, 26070, Note_on_c, 5, 51, 114
7, 26084, Note_on_c, 5, 51, 0
7, 26085, Note_on_c, 5, 50, 114
7, 26099, Note_on_c, 5, 50, 0
7, 26100, Note_on_c, 5, 51, 114
7, 26114, Note_on_c, 5, 51, 0
7, 26115, Note_on_c, 5, 50, 114
7, 26129, Note_on_c, 5, 50, 0
7, 26130, Note_on_c, 5, 48, 114
7, 26144, Note_on_c, 5, 48, 0
7, 26145, Note_on_c, 5, 50, 114
7, 26159, Note_on_c, 5, 50, 0
7, 26160, Note_on_c, 5, 51, 114
7, 26220, Note_on_c, 5, 51, 0
7, 26280, Note_on_c, 5, 53, 114
7, 26340, Note_on_c, 5, 53, 0
7, 26400, Note_on_c, 5, 55, 114
7, 26460, Note_on_c, 5, 55, 0
7, 27000, Note_on_c, 5, 51, 114
7, 27014, Note_on_c, 5, 51, 0
7, 27015, Note_on_c, 5, 50, 114
7, 27029, Note_on_c, 5, 50, 0
7, 27030, Note_on_c, 5, 51, 114
7, 27044, Note_on_c, 5, 51, 0
7, 27045, Note_on_c, 5, 50, 114
7, 27059, Note_on_c, 5, 50, 0
7, 27060, Note_on_c, 5, 51, 114
7, 27074, Note_on_c, 5, 51, 0
7, 27075, Note_on_c, 5, 50, 114
7, 27089, Note_on_c, 5, 50, 0
7, 27090, Note_on_c, 5, 48, 114
7, 27104, Note_on_c, 5, 48, 0
7, 27105, Note_on_c, 5, 50, 114
7, 27119, Note_on_c, 5, 50, 0
7, 27120, Note_on_c, 5, 51, 114
7, 27180, Note_on_c, 5, 51, 0
7, 27240, Note_on_c, 5, 53, 114
7, 27300, Note_on_c, 5, 53, 0
7, 27360, Note_on_c, 5, 46, 114
7, 27390, Note_on_c, 5, 46, 0
7, 27420, Note_on_c, 5, 58, 114
7, 27450, Note_on_c, 5, 58, 0
7, 27480, Note_on_c, 5, 57, 114
7, 27539, Note_on_c, 5, 57, 0
7, 27540, Note_on_c, 5, 58, 114
7, 27599, Note_on_c, 5, 58, 0
7, 27600, Note_on_c, 5, 53, 114
7, 27659, Note_on_c, 5, 53, 0
7, 27660, Note_on_c, 5, 58, 114
7, 27719, Note_on_c, 5, 58, 0
7, 27720, Note_on_c, 5, 50, 114
7, 27779, Note_on_c, 5, 50, 0
7, 27780, Note_on_c, 5, 53, 114
7, 27839, Note_on_c, 5, 53, 0
7, 27840, Note_on_c, 5, 46, 114
7, 27899, Note_on_c, 5, 46, 0
7, 27900, Note_on_c, 5, 58, 114
7, 27959, Note_on_c, 5, 58, 0
7, 27960, Note_on_c, 5, 53, 114
7, 28019, Note_on_c, 5, 53, 0
7, 28020, Note_on_c, 5, 50, 114
7, 28079, Note_on_c, 5, 50, 0
7, 28080, Note_on_c, 5, 46, 114
7, 28199, Note_on_c, 5, 46, 0
7, 28320, Note_on_c, 5, 51, 114
7, 28535, Note_on_c, 5, 51, 0
7, 28560, Note_on_c, 5, 55, 114
7, 28775, Note_on_c, 5, 55, 0
7, 28800, Note_on_c, 5, 58, 114
7, 28844, Note_on_c, 5, 58, 0
7, 28860, Note_on_c, 5, 58, 114
7, 28904, Note_on_c, 5, 58, 0
7, 28920, Note_on_c, 5, 58, 114
7, 28964, Note_on_c, 5, 58, 0
7, 28980, Note_on_c, 5, 58, 114
7, 29024, Note_on_c, 5, 58, 0
7, 29040, Note_on_c, 5, 58, 114
7, 29084, Note_on_c, 5, 58, 0
7, 29100, Note_on_c, 5, 58, 114
7, 29144, Note_on_c, 5, 58, 0
7, 29160, Note_on_c, 5, 58, 114
7, 29204, Note_on_c, 5, 58, 0
7, 29220, Note_on_c, 5, 58, 114
7, 29264, Note_on_c, 5, 58, 0
7, 29280, Note_on_c, 5, 55, 114
7, 29333, Note_on_c, 5, 55, 0
7, 29400, Note_on_c, 5, 51, 114
7, 29453, Note_on_c, 5, 51, 0
7, 29880, Note_on_c, 5, 51, 80
7, 29999, Note_on_c, 5, 51, 0
7, 30000, Note_on_c, 5, 51, 80
7, 30119, Note_on_c, 5, 51, 0
7, 30120, Note_on_c, 5, 51, 80
7, 30239, Note_on_c, 5, 51, 0
7, 30360, Note_on_c, 5, 44, 80
7, 30479, Note_on_c, 5, 44, 0
7, 30480, Note_on_c, 5, 44, 80
7, 30599, Note_on_c, 5, 44, 0
7, 30600, Note_on_c, 5, 44, 80
7, 30719, Note_on_c, 5, 44, 0
7, 30840, Note_on_c, 5, 46, 80
7, 30959, Note_on_c, 5, 46, 0
7, 30960, Note_on_c, 5, 46, 80
7, 31079, Note_on_c, 5, 46, 0
7, 31080, Note_on_c, 5, 46, 80
7, 31199, Note_on_c, 5, 46, 0
7, 31320, Note_on_c, 5, 51, 80
7, 31439, Note_on_c, 5, 51, 0
7, 31440, Note_on_c, 5, 51, 80
7, 31559, Note_on_c, 5, 51, 0
7, 31560, Note_on_c, 5, 51, 80
7, 31679, Note_on_c, 5, 51, 0
7, 31800, Note_on_c, 5, 43, 80
7, 31919, Note_on_c, 5, 43, 0
7, 31920, Note_on_c, 5, 43, 80
7, 32039, Note_on_c, 5, 43, 0
7, 32040, Note_on_c, 5, 43, 80
7, 32159, Note_on_c, 5, 43, 0
7, 32280, Note_on_c, 5, 44, 80
7, 32399, Note_on_c, 5, 44, 0
7, 32400, Note_on_c, 5, 44, 80
7, 32519, Note_on_c, 5, 44, 0
7, 32520, Note_on_c, 5, 44, 80
7, 32639, Note_on_c, 5, 44, 0
7, 32760, Note_on_c, 5, 46, 80
7, 32879, Note_on_c, 5, 46, 0
7, 32880, Note_on_c, 5, 46, 80
7, 32999, Note_on_c, 5, 46, 0
7, 33000, Note_on_c, 5, 46, 80
7, 33119, Note_on_c, 5, 46, 0
7, 33120, Note_on_c, 5, 51, 80
7, 33179, Note_on_c, 5, 51, 0
7, 33180, Note_on_c, 5, 63, 80
7, 33239, Note_on_c, 5, 63, 0
7, 33240, Note_on_c, 5, 62, 80
7, 33299, Note_on_c, 5, 62, 0
7, 33300, Note_on_c, 5, 60, 80
7, 33359, Note_on_c, 5, 60, 0
7, 33360, Note_on_c, 5, 58, 80
7, 33419, Note_on_c, 5, 58, 0
7, 33420, Note_on_c, 5, 56, 80
7, 33479, Note_on_c, 5, 56, 0
7, 33480, Note_on_c, 5, 55, 80
7, 33539, Note_on_c, 5, 55, 0
7, 33540, Note_on_c, 5, 53, 80
7, 33599, Note_on_c, 5, 53, 0
7, 33600, Note_on_c, 5, 51, 114
7, 33797, Note_on_c, 5, 51, 0
7, 33840, Note_on_c, 5, 55, 114
7, 34037, Note_on_c, 5, 55, 0
7, 34080, Note_on_c, 5, 58, 114
7, 34139, Note_on_c, 5, 58, 0
7, 34140, Note_on_c, 5, 58, 114
7, 34199, Note_on_c, 5, 58, 0
7, 34200, Note_on_c, 5, 58, 114
7, 34259, Note_on_c, 5, 58, 0
7, 34260, Note_on_c, 5, 58, 114
7, 34319, Note_on_c, 5, 58, 0
7, 34320, Note_on_c, 5, 58, 114
7, 34379, Note_on_c, 5, 58, 0
7, 34380, Note_on_c, 5, 58, 114
7, 34439, Note_on_c, 5, 58, 0
7, 34440, Note_on_c, 5, 58, 114
7, 34499, Note_on_c, 5, 58, 0
7, 34500, Note_on_c, 5, 58, 114
7, 34559, Note_on_c, 5, 58, 0
7, 34560, Note_on_c, 5, 55, 114
7, 34631, Note_on_c, 5, 55, 0
7, 34680, Note_on_c, 5, 51, 114
7, 34751, Note_on_c, 5, 51, 0
7, 35160, Note_on_c, 5, 51, 80
7, 35279, Note_on_c, 5, 51, 0
7, 35280, Note_on_c, 5, 51, 80
7, 35399, Note_on_c, 5, 51, 0
7, 35400, Note_on_c, 5, 51, 80
7, 35519, Note_on_c, 5, 51, 0
7, 35640, Note_on_c, 5, 44, 80
7, 35759, Note_on_c, 5, 44, 0
7, 35760, Note_on_c, 5, 44, 80
7, 35879, Note_on_c, 5, 44, 0
7, 35880, Note_on_c, 5, 44, 80
7, 35999, Note_on_c, 5, 44, 0
7, 36120, Note_on_c, 5, 46, 80
7, 36239, Note_on_c, 5, 46, 0
7, 36240, Note_on_c, 5, 46, 80
7, 36359, Note_on_c, 5, 46, 0
7, 36360, Note_on_c, 5, 46, 80
7, 36479, Note_on_c, 5, 46, 0
7, 36600, Note_on_c, 5, 51, 80
7, 36719, Note_on_c, 5, 51, 0
7, 36720, Note_on_c, 5, 51, 80
7, 36839, Note_on_c, 5, 51, 0
7, 36840, Note_on_c, 5, 51, 80
7, 36959, Note_on_c, 5, 51, 0
7, 37080, Note_on_c, 5, 43, 80
7, 37199, Note_on_c, 5, 43, 0
7, 37200, Note_on_c, 5, 43, 80
7, 37319, Note_on_c, 5, 43, 0
7, 37320, Note_on_c, 5, 43, 80
7, 37439, Note_on_c, 5, 43, 0
7, 37560, Note_on_c, 5, 44, 80
7, 37679, Note_on_c, 5, 44, 0
7, 37680, Note_on_c, 5, 44, 80
7, 37799, Note_on_c, 5, 44, 0
7, 37800, Note_on_c, 5, 44, 80
7, 37919, Note_on_c, 5, 44, 0
7, 38040, Note_on_c, 5, 46, 80
7, 38159, Note_on_c, 5, 46, 0
7, 38160, Note_on_c, 5, 46, 80
7, 38279, Note_on_c, 5, 46, 0
7, 38280, Note_on_c, 5, 46, 80
7, 38399, Note_on_c, 5, 46, 0
7, 38400, Note_on_c, 5, 51, 80
7, 38459, Note_on_c, 5, 51, 0
7, 38460, Note_on_c, 5, 63, 80
7, 38519, Note_on_c, 5, 63, 0
7, 38520, Note_on_c, 5, 62, 80
7, 38579, Note_on_c, 5, 62, 0
7, 38580, Note_on_c, 5, 60, 80
7, 38639, Note_on_c, 5, 60, 0
7, 38640, Note_on_c, 5, 58, 80
7, 38699, Note_on_c, 5, 58, 0
7, 38700, Note_on_c, 5, 56, 80
7, 38759, Note_on_c, 5, 56, 0
7, 38760, Note_on_c, 5, 55, 80
7, 38819, Note_on_c, 5, 55, 0
7, 38820, Note_on_c, 5, 53, 80
7, 38879, Note_on_c, 5, 53, 0
7, 38880, Note_on_c, 5, 51, 114
7, 38939, Note_on_c, 5, 51, 0
7, 38940, Note_on_c, 5, 51, 58
7, 38999, Note_on_c, 5, 51, 0
7, 39000, Note_on_c, 5, 51, 58
7, 39059, Note_on_c, 5, 51, 0
7, 39060, Note_on_c, 5, 51, 58
7, 39119, Note_on_c, 5, 51, 0
7, 39120, Note_on_c, 5, 51, 58
7, 39179, Note_on_c, 5, 51, 0
7, 39180, Note_on_c, 5, 51, 58
7, 39239, Note_on_c, 5, 51, 0
7, 39240, Note_on_c, 5, 51, 58
7, 39299, Note_on_c, 5, 51, 0
7, 39300, Note_on_c, 5, 51, 58
7, 39359, Note_on_c, 5, 51, 0
7, 39360, Note_on_c, 5, 51, 58
7, 39419, Note_on_c, 5, 51, 0
7, 39420, Note_on_c, 5, 51, 58
7, 39479, Note_on_c, 5, 51, 0
7, 39480, Note_on_c, 5, 51, 58
7, 39539, Note_on_c, 5, 51, 0
7, 39540, Note_on_c, 5, 51, 58
7, 39599, Note_on_c, 5, 51, 0
7, 39600, Note_on_c, 5, 51, 58
7, 39659, Note_on_c, 5, 51, 0
7, 39660, Note_on_c, 5, 51, 58
7, 39719, Note_on_c, 5, 51, 0
7, 39720, Note_on_c, 5, 51, 58
7, 39779, Note_on_c, 5, 51, 0
7, 39780, Note_on_c, 5, 51, 58
7, 39839, Note_on_c, 5, 51, 0
7, 39840, Note_on_c, 5, 51, 114
7, 39899, Note_on_c, 5, 51, 0
7, 39900, Note_on_c, 5, 51, 114
7, 39959, Note_on_c, 5, 51, 0
7, 39960, Note_on_c, 5, 51, 114
7, 40019, Note_on_c, 5, 51, 0
7, 40020, Note_on_c, 5, 51, 114
7, 40079, Note_on_c, 5, 51, 0
7, 40080, Note_on_c, 5, 51, 114
7, 40139, Note_on_c, 5, 51, 0
7, 40140, Note_on_c, 5, 51, 114
7, 40199, Note_on_c, 5, 51, 0
7, 40200, Note_on_c, 5, 51, 114
7, 40259, Note_on_c, 5, 51, 0
7, 40260, Note_on_c, 5, 51, 114
7, 40319, Note_on_c, 5, 51, 0
7, 40320, Note_on_c, 5, 51, 58
7, 40379, Note_on_c, 5, 51, 0
7, 40380, Note_on_c, 5, 51, 58
7, 40439, Note_on_c, 5, 51, 0
7, 40440, Note_on_c, 5, 51, 58
7, 40499, Note_on_c, 5, 51, 0
7, 40500, Note_on_c, 5, 51, 58
7, 40559, Note_on_c, 5, 51, 0
7, 40560, Note_on_c, 5, 51, 58
7, 40619, Note_on_c, 5, 51, 0
7, 40620, Note_on_c, 5, 51, 58
7, 40679, Note_on_c, 5, 51, 0
7, 40680, Note_on_c, 5, 51, 58
7, 40739, Note_on_c, 5, 51, 0
7, 40740, Note_on_c, 5, 51, 58
7, 40799, Note_on_c, 5, 51, 0
7, 40800, Note_on_c, 5, 51, 114
7, 40859, Note_on_c, 5, 51, 0
7, 40860, Note_on_c, 5, 51, 114
7, 40919, Note_on_c, 5, 51, 0
7, 40920, Note_on_c, 5, 51, 114
7, 40979, Note_on_c, 5, 51, 0
7, 40980, Note_on_c, 5, 51, 114
7, 41039, Note_on_c, 5, 51, 0
7, 41040, Note_on_c, 5, 51, 114
7, 41099, Note_on_c, 5, 51, 0
7, 41100, Note_on_c, 5, 51, 114
7, 41159, Note_on_c, 5, 51, 0
7, 41160, Note_on_c, 5, 51, 114
7, 41219, Note_on_c, 5, 51, 0
7, 41220, Note_on_c, 5, 51, 114
7, 41279, Note_on_c, 5, 51, 0
7, 41280, Note_on_c, 5, 51, 114
7, 41339, Note_on_c, 5, 51, 0
7, 41400, Note_on_c, 5, 58, 114
7, 41459, Note_on_c, 5, 58, 0
7, 41520, Note_on_c, 5, 55, 114
7, 41579, Note_on_c, 5, 55, 0
7, 41640, Note_on_c, 5, 51, 114
7, 41699, Note_on_c, 5, 51, 0
7, 41760, Note_on_c, 5, 58, 114
7, 41819, Note_on_c, 5, 58, 0
7, 41820, Note_on_c, 5, 58, 114
7, 41879, Note_on_c, 5, 58, 0
7, 41880, Note_on_c, 5, 57, 114
7, 41939, Note_on_c, 5, 57, 0
7, 41940, Note_on_c, 5, 58, 114
7, 41999, Note_on_c, 5, 58, 0
7, 42000, Note_on_c, 5, 53, 114
7, 42059, Note_on_c, 5, 53, 0
7, 42060, Note_on_c, 5, 58, 114
7, 42119, Note_on_c, 5, 58, 0
7, 42120, Note_on_c, 5, 50, 114
7, 42179, Note_on_c, 5, 50, 0
7, 42180, Note_on_c, 5, 53, 114
7, 42239, Note_on_c, 5, 53, 0
7, 42240, Note_on_c, 5, 46, 114
7, 42299, Note_on_c, 5, 46, 0
7, 42300, Note_on_c, 5, 58, 114
7, 42359, Note_on_c, 5, 58, 0
7, 42360, Note_on_c, 5, 53, 114
7, 42419, Note_on_c, 5, 53, 0
7, 42420, Note_on_c, 5, 50, 114
7, 42479, Note_on_c, 5, 50, 0
7, 42480, Note_on_c, 5, 46, 114
7, 42599, Note_on_c, 5, 46, 0
7, 43200, Note_on_c, 5, 58, 68
7, 43679, Note_on_c, 5, 58, 0
7, 43680, Note_on_c, 5, 58, 68
7, 43739, Note_on_c, 5, 58, 0
7, 43740, Note_on_c, 5, 58, 68
7, 43799, Note_on_c, 5, 58, 0
7, 43800, Note_on_c, 5, 57, 68
7, 43859, Note_on_c, 5, 57, 0
7, 43860, Note_on_c, 5, 55, 68
7, 43919, Note_on_c, 5, 55, 0
7, 43920, Note_on_c, 5, 53, 68
7, 43979, Note_on_c, 5, 53, 0
7, 43980, Note_on_c, 5, 51, 68
7, 44039, Note_on_c, 5, 51, 0
7, 44040, Note_on_c, 5, 50, 68
7, 44099, Note_on_c, 5, 50, 0
7, 44100, Note_on_c, 5, 48, 68
7, 44159, Note_on_c, 5, 48, 0
7, 44160, Note_on_c, 5, 46, 68
7, 44639, Note_on_c, 5, 46, 0
7, 44700, Note_on_c, 5, 58, 92
7, 44759, Note_on_c, 5, 58, 0
7, 44760, Note_on_c, 5, 57, 92
7, 44819, Note_on_c, 5, 57, 0
7, 44820, Note_on_c, 5, 55, 92
7, 44879, Note_on_c, 5, 55, 0
7, 44880, Note_on_c, 5, 53, 92
7, 44939, Note_on_c, 5, 53, 0
7, 44940, Note_on_c, 5, 51, 92
7, 44999, Note_on_c, 5, 51, 0
7, 45000, Note_on_c, 5, 50, 92
7, 45059, Note_on_c, 5, 50, 0
7, 45060, Note_on_c, 5, 48, 92
7, 45119, Note_on_c, 5, 48, 0
7, 45120, Note_on_c, 5, 46, 92
7, 45179, Note_on_c, 5, 46, 0
7, 45180, Note_on_c, 5, 58, 92
7, 45239, Note_on_c, 5, 58, 0
7, 45240, Note_on_c, 5, 57, 92
7, 45299, Note_on_c, 5, 57, 0
7, 45300, Note_on_c, 5, 55, 92
7, 45359, Note_on_c, 5, 55, 0
7, 45360, Note_on_c, 5, 53, 92
7, 45419, Note_on_c, 5, 53, 0
7, 45420, Note_on_c, 5, 51, 92
7, 45479, Note_on_c, 5, 51, 0
7, 45480, Note_on_c, 5, 50, 92
7, 45539, Note_on_c, 5, 50, 0
7, 45540, Note_on_c, 5, 48, 92
7, 45599, Note_on_c, 5, 48, 0
7, 45600, Note_on_c, 5, 46, 114
7, 45641, Note_on_c, 5, 46, 0
7, 45660, Note_on_c, 5, 58, 114
7, 45701, Note_on_c, 5, 58, 0
7, 45720, Note_on_c, 5, 57, 114
7, 45761, Note_on_c, 5, 57, 0
7, 45780, Note_on_c, 5, 58, 114
7, 45821, Note_on_c, 5, 58, 0
7, 45840, Note_on_c, 5, 53, 114
7, 45881, Note_on_c, 5, 53, 0
7, 45900, Note_on_c, 5, 58, 114
7, 45941, Note_on_c, 5, 58, 0
7, 45960, Note_on_c, 5, 50, 114
7, 46001, Note_on_c, 5, 50, 0
7, 46020, Note_on_c, 5, 58, 114
7, 46061, Note_on_c, 5, 58, 0
7, 46080, Note_on_c, 5, 51, 114
7, 46121, Note_on_c, 5, 51, 0
7, 46140, Note_on_c, 5, 58, 114
7, 46181, Note_on_c, 5, 58, 0
7, 46200, Note_on_c, 5, 57, 114
7, 46241, Note_on_c, 5, 57, 0
7, 46260, Note_on_c, 5, 58, 114
7, 46301, Note_on_c, 5, 58, 0
7, 46320, Note_on_c, 5, 55, 114
7, 46361, Note_on_c, 5, 55, 0
7, 46380, Note_on_c, 5, 58, 114
7, 46421, Note_on_c, 5, 58, 0
7, 46440, Note_on_c, 5, 51, 114
7, 46481, Note_on_c, 5, 51, 0
7, 46500, Note_on_c, 5, 55, 114
7, 46541, Note_on_c, 5, 55, 0
7, 46560, Note_on_c, 5, 46, 114
7, 46601, Note_on_c, 5, 46, 0
7, 46620, Note_on_c, 5, 58, 114
7, 46661, Note_on_c, 5, 58, 0
7, 46680, Note_on_c, 5, 57, 114
7, 46721, Note_on_c, 5, 57, 0
7, 46740, Note_on_c, 5, 58, 114
7, 46781, Note_on_c, 5, 58, 0
7, 46800, Note_on_c, 5, 53, 114
7, 46841, Note_on_c, 5, 53, 0
7, 46860, Note_on_c, 5, 58, 114
7, 46901, Note_on_c, 5, 58, 0
7, 46920, Note_on_c, 5, 50, 114
7, 46961, Note_on_c, 5, 50, 0
7, 46980, Note_on_c, 5, 53, 114
7, 47021, Note_on_c, 5, 53, 0
7, 47040, Note_on_c, 5, 51, 114
7, 47081, Note_on_c, 5, 51, 0
7, 47100, Note_on_c, 5, 51, 114
7, 47141, Note_on_c, 5, 51, 0
7, 47160, Note_on_c, 5, 51, 114
7, 47201, Note_on_c, 5, 51, 0
7, 47220, Note_on_c, 5, 51, 114
7, 47261, Note_on_c, 5, 51, 0
7, 47280, Note_on_c, 5, 53, 114
7, 47321, Note_on_c, 5, 53, 0
7, 47340, Note_on_c, 5, 53, 114
7, 47381, Note_on_c, 5, 53, 0
7, 47400, Note_on_c, 5, 41, 114
7, 47441, Note_on_c, 5, 41, 0
7, 47460, Note_on_c, 5, 41, 114
7, 47501, Note_on_c, 5, 41, 0
7, 47520, Note_on_c, 5, 46, 114
7, 47561, Note_on_c, 5, 46, 0
7, 47580, Note_on_c, 5, 58, 114
7, 47621, Note_on_c, 5, 58, 0
7, 47640, Note_on_c, 5, 57, 114
7, 47681, Note_on_c, 5, 57, 0
7, 47700, Note_on_c, 5, 58, 114
7, 47741, Note_on_c, 5, 58, 0
7, 47760, Note_on_c, 5, 53, 114
7, 47801, Note_on_c, 5, 53, 0
7, 47820, Note_on_c, 5, 58, 114
7, 47861, Note_on_c, 5, 58, 0
7, 47880, Note_on_c, 5, 50, 114
7, 47921, Note_on_c, 5, 50, 0
7, 47940, Note_on_c, 5, 58, 114
7, 47981, Note_on_c, 5, 58, 0
7, 48000, Note_on_c, 5, 51, 114
7, 48041, Note_on_c, 5, 51, 0
7, 48060, Note_on_c, 5, 58, 114
7, 48101, Note_on_c, 5, 58, 0
7, 48120, Note_on_c, 5, 57, 114
7, 48161, Note_on_c, 5, 57, 0
7, 48180, Note_on_c, 5, 58, 114
7, 48221, Note_on_c, 5, 58, 0
7, 48240, Note_on_c, 5, 55, 114
7, 48281, Note_on_c, 5, 55, 0
7, 48300, Note_on_c, 5, 58, 114
7, 48341, Note_on_c, 5, 58, 0
7, 48360, Note_on_c, 5, 51, 114
7, 48401, Note_on_c, 5, 51, 0
7, 48420, Note_on_c, 5, 55, 114
7, 48461, Note_on_c, 5, 55, 0
7, 48480, Note_on_c, 5, 46, 114
7, 48521, Note_on_c, 5, 46, 0
7, 48540, Note_on_c, 5, 58, 114
7, 48581, Note_on_c, 5, 58, 0
7, 48600, Note_on_c, 5, 57, 114
7, 48641, Note_on_c, 5, 57, 0
7, 48660, Note_on_c, 5, 58, 114
7, 48701, Note_on_c, 5, 58, 0
7, 48720, Note_on_c, 5, 53, 114
7, 48761, Note_on_c, 5, 53, 0
7, 48780, Note_on_c, 5, 58, 114
7, 48821, Note_on_c, 5, 58, 0
7, 48840, Note_on_c, 5, 50, 114
7, 48881, Note_on_c, 5, 50, 0
7, 48900, Note_on_c, 5, 58, 114
7, 48941, Note_on_c, 5, 58, 0
7, 48960, Note_on_c, 5, 51, 114
7, 49001, Note_on_c, 5, 51, 0
7, 49020, Note_on_c, 5, 51, 114
7, 49061, Note_on_c, 5, 51, 0
7, 49080, Note_on_c, 5, 51, 114
7, 49121, Note_on_c, 5, 51, 0
7, 49140, Note_on_c, 5, 51, 114
7, 49181, Note_on_c, 5, 51, 0
7, 49200, Note_on_c, 5, 53, 114
7, 49241, Note_on_c, 5, 53, 0
7, 49260, Note_on_c, 5, 53, 114
7, 49301, Note_on_c, 5, 53, 0
7, 49320, Note_on_c, 5, 41, 114
7, 49361, Note_on_c, 5, 41, 0
7, 49380, Note_on_c, 5, 41, 114
7, 49421, Note_on_c, 5, 41, 0
7, 49440, Note_on_c, 5, 46, 114
7, 49523, Note_on_c, 5, 46, 0
7, 49620, Note_on_c, 5, 46, 114
7, 49679, Note_on_c, 5, 46, 0
7, 49680, Note_on_c, 5, 48, 114
7, 49739, Note_on_c, 5, 48, 0
7, 49740, Note_on_c, 5, 50, 114
7, 49799, Note_on_c, 5, 50, 0
7, 49800, Note_on_c, 5, 51, 114
7, 49859, Note_on_c, 5, 51, 0
7, 49860, Note_on_c, 5, 53, 114
7, 49919, Note_on_c, 5, 53, 0
7, 49920, Note_on_c, 5, 55, 114
7, 49979, Note_on_c, 5, 55, 0
7, 49980, Note_on_c, 5, 57, 114
7, 50039, Note_on_c, 5, 57, 0
7, 50040, Note_on_c, 5, 58, 114
7, 50099, Note_on_c, 5, 58, 0
7, 50100, Note_on_c, 5, 50, 114
7, 50159, Note_on_c, 5, 50, 0
7, 50160, Note_on_c, 5, 51, 114
7, 50219, Note_on_c, 5, 51, 0
7, 50220, Note_on_c, 5, 53, 114
7, 50279, Note_on_c, 5, 53, 0
7, 50280, Note_on_c, 5, 55, 114
7, 50339, Note_on_c, 5, 55, 0
7, 50340, Note_on_c, 5, 57, 114
7, 50399, Note_on_c, 5, 57, 0
7, 50400, Note_on_c, 5, 58, 114
7, 50459, Note_on_c, 5, 58, 0
7, 50460, Note_on_c, 5, 60, 114
7, 50519, Note_on_c, 5, 60, 0
7, 50520, Note_on_c, 5, 62, 114
7, 50579, Note_on_c, 5, 62, 0
7, 50580, Note_on_c, 5, 53, 114
7, 50639, Note_on_c, 5, 53, 0
7, 50640, Note_on_c, 5, 55, 114
7, 50699, Note_on_c, 5, 55, 0
7, 50700, Note_on_c, 5, 57, 114
7, 50759, Note_on_c, 5, 57, 0
7, 50760, Note_on_c, 5, 58, 114
7, 50819, Note_on_c, 5, 58, 0
7, 50820, Note_on_c, 5, 60, 114
7, 50879, Note_on_c, 5, 60, 0
7, 50880, Note_on_c, 5, 62, 114
7, 50939, Note_on_c, 5, 62, 0
7, 50940, Note_on_c, 5, 63, 114
7, 50999, Note_on_c, 5, 63, 0
7, 51000, Note_on_c, 5, 65, 114
7, 51059, Note_on_c, 5, 65, 0
7, 51060, Note_on_c, 5, 50, 114
7, 51119, Note_on_c, 5, 50, 0
7, 51120, Note_on_c, 5, 51, 114
7, 51170, Note_on_c, 5, 51, 0
7, 51240, Note_on_c, 5, 53, 114
7, 51290, Note_on_c, 5, 53, 0
7, 51360, Note_on_c, 5, 46, 114
7, 51479, Note_on_c, 5, 46, 0
7, 51540, Note_on_c, 5, 46, 114
7, 51599, Note_on_c, 5, 46, 0
7, 51600, Note_on_c, 5, 48, 114
7, 51659, Note_on_c, 5, 48, 0
7, 51660, Note_on_c, 5, 50, 114
7, 51719, Note_on_c, 5, 50, 0
7, 51720, Note_on_c, 5, 51, 114
7, 51779, Note_on_c, 5, 51, 0
7, 51780, Note_on_c, 5, 53, 114
7, 51839, Note_on_c, 5, 53, 0
7, 51840, Note_on_c, 5, 55, 114
7, 51899, Note_on_c, 5, 55, 0
7, 51900, Note_on_c, 5, 57, 114
7, 51959, Note_on_c, 5, 57, 0
7, 51960, Note_on_c, 5, 58, 114
7, 52019, Note_on_c, 5, 58, 0
7, 52020, Note_on_c, 5, 50, 114
7, 52079, Note_on_c, 5, 50, 0
7, 52080, Note_on_c, 5, 51, 114
7, 52139, Note_on_c, 5, 51, 0
7, 52140, Note_on_c, 5, 53, 114
7, 52199, Note_on_c, 5, 53, 0
7, 52200, Note_on_c, 5, 55, 114
7, 52259, Note_on_c, 5, 55, 0
7, 52260, Note_on_c, 5, 57, 114
7, 52319, Note_on_c, 5, 57, 0
7, 52320, Note_on_c, 5, 58, 114
7, 52379, Note_on_c, 5, 58, 0
7, 52380, Note_on_c, 5, 60, 114
7, 52439, Note_on_c, 5, 60, 0
7, 52440, Note_on_c, 5, 62, 114
7, 52499, Note_on_c, 5, 62, 0
7, 52500, Note_on_c, 5, 53, 114
7, 52559, Note_on_c, 5, 53, 0
7, 52560, Note_on_c, 5, 55, 114
7, 52619, Note_on_c, 5, 55, 0
7, 52620, Note_on_c, 5, 57, 114
7, 52679, Note_on_c, 5, 57, 0
7, 52680, Note_on_c, 5, 58, 114
7, 52739, Note_on_c, 5, 58, 0
7, 52740, Note_on_c, 5, 60, 114
7, 52799, Note_on_c, 5, 60, 0
7, 52800, Note_on_c, 5, 62, 114
7, 52859, Note_on_c, 5, 62, 0
7, 52860, Note_on_c, 5, 63, 114
7, 52919, Note_on_c, 5, 63, 0
7, 52920, Note_on_c, 5, 65, 114
7, 52979, Note_on_c, 5, 65, 0
7, 52980, Note_on_c, 5, 50, 114
7, 53039, Note_on_c, 5, 50, 0
7, 53040, Note_on_c, 5, 51, 114
7, 53090, Note_on_c, 5, 51, 0
7, 53160, Note_on_c, 5, 53, 114
7, 53210, Note_on_c, 5, 53, 0
7, 53280, Note_on_c, 5, 46, 114
7, 53378, Note_on_c, 5, 46, 0
7, 53880, Note_on_c, 5, 51, 114
7, 53894, Note_on_c, 5, 51, 0
7, 53895, Note_on_c, 5, 50, 114
7, 53909, Note_on_c, 5, 50, 0
7, 53910, Note_on_c, 5, 51, 114
7, 53924, Note_on_c, 5, 51, 0
7, 53925, Note_on_c, 5, 50, 114
7, 53939, Note_on_c, 5, 50, 0
7, 53940, Note_on_c, 5, 51, 114
7, 53954, Note_on_c, 5, 51, 0
7, 53955, Note_on_c, 5, 50, 114
7, 53969, Note_on_c, 5, 50, 0
7, 53970, Note_on_c, 5, 48, 114
7, 53984, Note_on_c, 5, 48, 0
7, 53985, Note_on_c, 5, 50, 114
7, 53999, Note_on_c, 5, 50, 0
7, 54000, Note_on_c, 5, 51, 114
7, 54060, Note_on_c, 5, 51, 0
7, 54120, Note_on_c, 5, 53, 114
7, 54180, Note_on_c, 5, 53, 0
7, 54240, Note_on_c, 5, 55, 114
7, 54300, Note_on_c, 5, 55, 0
7, 54840, Note_on_c, 5, 51, 114
7, 54854, Note_on_c, 5, 51, 0
7, 54855, Note_on_c, 5, 50, 114
7, 54869, Note_on_c, 5, 50, 0
7, 54870, Note_on_c, 5, 51, 114
7, 54884, Note_on_c, 5, 51, 0
7, 54885, Note_on_c, 5, 50, 114
7, 54899, Note_on_c, 5, 50, 0
7, 54900, Note_on_c, 5, 51, 114
7, 54914, Note_on_c, 5, 51, 0
7, 54915, Note_on_c, 5, 50, 114
7, 54929, Note_on_c, 5, 50, 0
7, 54930, Note_on_c, 5, 48, 114
7, 54944, Note_on_c, 5, 48, 0
7, 54945, Note_on_c, 5, 50, 114
7, 54959, Note_on_c, 5, 50, 0
7, 54960, Note_on_c, 5, 51, 114
7, 55020, Note_on_c, 5, 51, 0
7, 55080, Note_on_c, 5, 53, 114
7, 55140, Note_on_c, 5, 53, 0
7, 55200, Note_on_c, 5, 46, 114
7, 55230, Note_on_c, 5, 46, 0
7, 55260, Note_on_c, 5, 58, 114
7, 55290, Note_on_c, 5, 58, 0
7, 55320, Note_on_c, 5, 57, 114
7, 55379, Note_on_c, 5, 57, 0
7, 55380, Note_on_c, 5, 58, 114
7, 55439, Note_on_c, 5, 58, 0
7, 55440, Note_on_c, 5, 53, 114
7, 55499, Note_on_c, 5, 53, 0
7, 55500, Note_on_c, 5, 58, 114
7, 55559, Note_on_c, 5, 58, 0
7, 55560, Note_on_c, 5, 50, 114
7, 55619, Note_on_c, 5, 50, 0
7, 55620, Note_on_c, 5, 53, 114
7, 55679, Note_on_c, 5, 53, 0
7, 55680, Note_on_c, 5, 46, 114
7, 55739, Note_on_c, 5, 46, 0
7, 55740, Note_on_c, 5, 58, 114
7, 55799, Note_on_c, 5, 58, 0
7, 55800, Note_on_c, 5, 53, 114
7, 55859, Note_on_c, 5, 53, 0
7, 55860, Note_on_c, 5, 50, 114
7, 55919, Note_on_c, 5, 50, 0
7, 55920, Note_on_c, 5, 46, 114
7, 56039, Note_on_c, 5, 46, 0
7, 56160, Note_on_c, 5, 46, 114
7, 56359, Note_on_c, 5, 46, 0
7, 56400, Note_on_c, 5, 50, 114
7, 56598, Note_on_c, 5, 50, 0
7, 56640, Note_on_c, 5, 53, 114
7, 56669, Note_on_c, 5, 53, 0
7, 56700, Note_on_c, 5, 53, 114
7, 56729, Note_on_c, 5, 53, 0
7, 56760, Note_on_c, 5, 53, 114
7, 56789, Note_on_c, 5, 53, 0
7, 56820, Note_on_c, 5, 53, 114
7, 56849, Note_on_c, 5, 53, 0
7, 56880, Note_on_c, 5, 53, 114
7, 56909, Note_on_c, 5, 53, 0
7, 56940, Note_on_c, 5, 53, 114
7, 56969, Note_on_c, 5, 53, 0
7, 57000, Note_on_c, 5, 53, 114
7, 57029, Note_on_c, 5, 53, 0
7, 57060, Note_on_c, 5, 53, 114
7, 57089, Note_on_c, 5, 53, 0
7, 57120, Note_on_c, 5, 50, 114
7, 57178, Note_on_c, 5, 50, 0
7, 57240, Note_on_c, 5, 46, 114
7, 57298, Note_on_c, 5, 46, 0
7, 57720, Note_on_c, 5, 46, 92
7, 57839, Note_on_c, 5, 46, 0
7, 57840, Note_on_c, 5, 46, 92
7, 57959, Note_on_c, 5, 46, 0
7, 57960, Note_on_c, 5, 46, 92
7, 58079, Note_on_c, 5, 46, 0
7, 58200, Note_on_c, 5, 51, 92
7, 58319, Note_on_c, 5, 51, 0
7, 58320, Note_on_c, 5, 51, 92
7, 58439, Note_on_c, 5, 51, 0
7, 58440, Note_on_c, 5, 51, 92
7, 58559, Note_on_c, 5, 51, 0
7, 58680, Note_on_c, 5, 53, 69
7, 58799, Note_on_c, 5, 53, 0
7, 58800, Note_on_c, 5, 53, 86
7, 58919, Note_on_c, 5, 53, 0
7, 58920, Note_on_c, 5, 53, 84
7, 59039, Note_on_c, 5, 53, 0
7, 59160, Note_on_c, 5, 46, 88
7, 59279, Note_on_c, 5, 46, 0
7, 59280, Note_on_c, 5, 46, 81
7, 59399, Note_on_c, 5, 46, 0
7, 59400, Note_on_c, 5, 46, 91
7, 59519, Note_on_c, 5, 46, 0
7, 59640, Note_on_c, 5, 50, 79
7, 59759, Note_on_c, 5, 50, 0
7, 59760, Note_on_c, 5, 50, 88
7, 59879, Note_on_c, 5, 50, 0
7, 59880, Note_on_c, 5, 50, 92
7, 59999, Note_on_c, 5, 50, 0
7, 60120, Note_on_c, 5, 51, 92
7, 60239, Note_on_c, 5, 51, 0
7, 60240, Note_on_c, 5, 51, 92
7, 60359, Note_on_c, 5, 51, 0
7, 60360, Note_on_c, 5, 51, 92
7, 60479, Note_on_c, 5, 51, 0
7, 60600, Note_on_c, 5, 53, 86
7, 60719, Note_on_c, 5, 53, 0
7, 60720, Note_on_c, 5, 53, 92
7, 60839, Note_on_c, 5, 53, 0
7, 60840, Note_on_c, 5, 53, 88
7, 60959, Note_on_c, 5, 53, 0
7, 60960, Note_on_c, 5, 46, 92
7, 61130, Note_on_c, 5, 46, 0
7, 61140, Note_on_c, 5, 56, 92
7, 61199, Note_on_c, 5, 56, 0
7, 61200, Note_on_c, 5, 55, 92
7, 61259, Note_on_c, 5, 55, 0
7, 61260, Note_on_c, 5, 53, 85
7, 61319, Note_on_c, 5, 53, 0
7, 61320, Note_on_c, 5, 51, 92
7, 61379, Note_on_c, 5, 51, 0
7, 61380, Note_on_c, 5, 50, 92
7, 61439, Note_on_c, 5, 50, 0
7, 61440, Note_on_c, 5, 48, 114
7, 61628, Note_on_c, 5, 48, 0
7, 61680, Note_on_c, 5, 51, 114
7, 61868, Note_on_c, 5, 51, 0
7, 61920, Note_on_c, 5, 55, 114
7, 61961, Note_on_c, 5, 55, 0
7, 61980, Note_on_c, 5, 55, 114
7, 62021, Note_on_c, 5, 55, 0
7, 62040, Note_on_c, 5, 55, 114
7, 62081, Note_on_c, 5, 55, 0
7, 62100, Note_on_c, 5, 55, 114
7, 62141, Note_on_c, 5, 55, 0
7, 62160, Note_on_c, 5, 55, 114
7, 62201, Note_on_c, 5, 55, 0
7, 62220, Note_on_c, 5, 55, 114
7, 62261, Note_on_c, 5, 55, 0
7, 62280, Note_on_c, 5, 55, 114
7, 62321, Note_on_c, 5, 55, 0
7, 62340, Note_on_c, 5, 55, 114
7, 62381, Note_on_c, 5, 55, 0
7, 62400, Note_on_c, 5, 51, 114
7, 62458, Note_on_c, 5, 51, 0
7, 62520, Note_on_c, 5, 48, 114
7, 62578, Note_on_c, 5, 48, 0
7, 63000, Note_on_c, 5, 48, 79
7, 63119, Note_on_c, 5, 48, 0
7, 63120, Note_on_c, 5, 48, 85
7, 63239, Note_on_c, 5, 48, 0
7, 63240, Note_on_c, 5, 48, 84
7, 63359, Note_on_c, 5, 48, 0
7, 63480, Note_on_c, 5, 53, 82
7, 63599, Note_on_c, 5, 53, 0
7, 63600, Note_on_c, 5, 53, 62
7, 63719, Note_on_c, 5, 53, 0
7, 63720, Note_on_c, 5, 53, 82
7, 63839, Note_on_c, 5, 53, 0
7, 63960, Note_on_c, 5, 55, 92
7, 64079, Note_on_c, 5, 55, 0
7, 64080, Note_on_c, 5, 55, 92
7, 64199, Note_on_c, 5, 55, 0
7, 64200, Note_on_c, 5, 55, 92
7, 64319, Note_on_c, 5, 55, 0
7, 64440, Note_on_c, 5, 48, 91
7, 64559, Note_on_c, 5, 48, 0
7, 64560, Note_on_c, 5, 48, 79
7, 64679, Note_on_c, 5, 48, 0
7, 64680, Note_on_c, 5, 48, 81
7, 64799, Note_on_c, 5, 48, 0
7, 64920, Note_on_c, 5, 51, 92
7, 65039, Note_on_c, 5, 51, 0
7, 65040, Note_on_c, 5, 51, 92
7, 65159, Note_on_c, 5, 51, 0
7, 65160, Note_on_c, 5, 51, 92
7, 65279, Note_on_c, 5, 51, 0
7, 65400, Note_on_c, 5, 53, 86
7, 65519, Note_on_c, 5, 53, 0
7, 65520, Note_on_c, 5, 53, 91
7, 65639, Note_on_c, 5, 53, 0
7, 65640, Note_on_c, 5, 53, 91
7, 65759, Note_on_c, 5, 53, 0
7, 65880, Note_on_c, 5, 55, 92
7, 65999, Note_on_c, 5, 55, 0
7, 66000, Note_on_c, 5, 55, 92
7, 66119, Note_on_c, 5, 55, 0
7, 66120, Note_on_c, 5, 55, 92
7, 66239, Note_on_c, 5, 55, 0
7, 66240, Note_on_c, 5, 48, 92
7, 66410, Note_on_c, 5, 48, 0
7, 66420, Note_on_c, 5, 56, 92
7, 66479, Note_on_c, 5, 56, 0
7, 66480, Note_on_c, 5, 55, 92
7, 66539, Note_on_c, 5, 55, 0
7, 66540, Note_on_c, 5, 53, 92
7, 66599, Note_on_c, 5, 53, 0
7, 66600, Note_on_c, 5, 51, 92
7, 66659, Note_on_c, 5, 51, 0
7, 66660, Note_on_c, 5, 50, 92
7, 66719, Note_on_c, 5, 50, 0
7, 66720, Note_on_c, 5, 48, 114
7, 66779, Note_on_c, 5, 48, 0
7, 66780, Note_on_c, 5, 48, 110
7, 66839, Note_on_c, 5, 48, 0
7, 66840, Note_on_c, 5, 48, 114
7, 66899, Note_on_c, 5, 48, 0
7, 66900, Note_on_c, 5, 48, 114
7, 66959, Note_on_c, 5, 48, 0
7, 66960, Note_on_c, 5, 48, 114
7, 67019, Note_on_c, 5, 48, 0
7, 67020, Note_on_c, 5, 48, 114
7, 67079, Note_on_c, 5, 48, 0
7, 67080, Note_on_c, 5, 48, 114
7, 67139, Note_on_c, 5, 48, 0
7, 67140, Note_on_c, 5, 48, 114
7, 67199, Note_on_c, 5, 48, 0
7, 67200, Note_on_c, 5, 48, 58
7, 67259, Note_on_c, 5, 48, 0
7, 67260, Note_on_c, 5, 48, 57
7, 67319, Note_on_c, 5, 48, 0
7, 67320, Note_on_c, 5, 48, 58
7, 67379, Note_on_c, 5, 48, 0
7, 67380, Note_on_c, 5, 48, 54
7, 67439, Note_on_c, 5, 48, 0
7, 67440, Note_on_c, 5, 48, 53
7, 67499, Note_on_c, 5, 48, 0
7, 67500, Note_on_c, 5, 48, 55
7, 67559, Note_on_c, 5, 48, 0
7, 67560, Note_on_c, 5, 48, 58
7, 67619, Note_on_c, 5, 48, 0
7, 67620, Note_on_c, 5, 48, 58
7, 67679, Note_on_c, 5, 48, 0
7, 67680, Note_on_c, 5, 48, 114
7, 67739, Note_on_c, 5, 48, 0
7, 67740, Note_on_c, 5, 48, 114
7, 67799, Note_on_c, 5, 48, 0
7, 67800, Note_on_c, 5, 48, 114
7, 67859, Note_on_c, 5, 48, 0
7, 67860, Note_on_c, 5, 48, 113
7, 67919, Note_on_c, 5, 48, 0
7, 67920, Note_on_c, 5, 48, 114
7, 67979, Note_on_c, 5, 48, 0
7, 67980, Note_on_c, 5, 48, 114
7, 68039, Note_on_c, 5, 48, 0
7, 68040, Note_on_c, 5, 48, 114
7, 68099, Note_on_c, 5, 48, 0
7, 68100, Note_on_c, 5, 48, 114
7, 68159, Note_on_c, 5, 48, 0
7, 68160, Note_on_c, 5, 48, 114
7, 68219, Note_on_c, 5, 48, 0
7, 68220, Note_on_c, 5, 48, 53
7, 68279, Note_on_c, 5, 48, 0
7, 68280, Note_on_c, 5, 48, 50
7, 68339, Note_on_c, 5, 48, 0
7, 68340, Note_on_c, 5, 48, 52
7, 68399, Note_on_c, 5, 48, 0
7, 68400, Note_on_c, 5, 48, 60
7, 68459, Note_on_c, 5, 48, 0
7, 68460, Note_on_c, 5, 48, 58
7, 68519, Note_on_c, 5, 48, 0
7, 68520, Note_on_c, 5, 48, 63
7, 68579, Note_on_c, 5, 48, 0
7, 68580, Note_on_c, 5, 48, 66
7, 68639, Note_on_c, 5, 48, 0
7, 68640, Note_on_c, 5, 46, 114
7, 68699, Note_on_c, 5, 46, 0
7, 68700, Note_on_c, 5, 46, 114
7, 68759, Note_on_c, 5, 46, 0
7, 68760, Note_on_c, 5, 46, 114
7, 68819, Note_on_c, 5, 46, 0
7, 68820, Note_on_c, 5, 46, 114
7, 68879, Note_on_c, 5, 46, 0
7, 68880, Note_on_c, 5, 46, 114
7, 68939, Note_on_c, 5, 46, 0
7, 68940, Note_on_c, 5, 46, 114
7, 68999, Note_on_c, 5, 46, 0
7, 69000, Note_on_c, 5, 46, 114
7, 69059, Note_on_c, 5, 46, 0
7, 69060, Note_on_c, 5, 46, 114
7, 69119, Note_on_c, 5, 46, 0
7, 69120, Note_on_c, 5, 46, 114
7, 69179, Note_on_c, 5, 46, 0
7, 69180, Note_on_c, 5, 46, 68
7, 69239, Note_on_c, 5, 46, 0
7, 69240, Note_on_c, 5, 46, 68
7, 69299, Note_on_c, 5, 46, 0
7, 69300, Note_on_c, 5, 46, 68
7, 69359, Note_on_c, 5, 46, 0
7, 69360, Note_on_c, 5, 46, 68
7, 69419, Note_on_c, 5, 46, 0
7, 69420, Note_on_c, 5, 46, 68
7, 69479, Note_on_c, 5, 46, 0
7, 69480, Note_on_c, 5, 46, 68
7, 69539, Note_on_c, 5, 46, 0
7, 69540, Note_on_c, 5, 46, 68
7, 69599, Note_on_c, 5, 46, 0
7, 69600, Note_on_c, 5, 46, 114
7, 69659, Note_on_c, 5, 46, 0
7, 69660, Note_on_c, 5, 46, 114
7, 69719, Note_on_c, 5, 46, 0
7, 69720, Note_on_c, 5, 46, 114
7, 69779, Note_on_c, 5, 46, 0
7, 69780, Note_on_c, 5, 46, 114
7, 69839, Note_on_c, 5, 46, 0
7, 69840, Note_on_c, 5, 46, 114
7, 69899, Note_on_c, 5, 46, 0
7, 69900, Note_on_c, 5, 46, 114
7, 69959, Note_on_c, 5, 46, 0
7, 69960, Note_on_c, 5, 46, 114
7, 70019, Note_on_c, 5, 46, 0
7, 70020, Note_on_c, 5, 46, 114
7, 70079, Note_on_c, 5, 46, 0
7, 70080, Note_on_c, 5, 46, 108
7, 70139, Note_on_c, 5, 46, 0
7, 70140, Note_on_c, 5, 46, 68
7, 70199, Note_on_c, 5, 46, 0
7, 70200, Note_on_c, 5, 46, 68
7, 70259, Note_on_c, 5, 46, 0
7, 70260, Note_on_c, 5, 46, 68
7, 70319, Note_on_c, 5, 46, 0
7, 70320, Note_on_c, 5, 46, 68
7, 70379, Note_on_c, 5, 46, 0
7, 70380, Note_on_c, 5, 46, 68
7, 70439, Note_on_c, 5, 46, 0
7, 70440, Note_on_c, 5, 46, 68
7, 70499, Note_on_c, 5, 46, 0
7, 70500, Note_on_c, 5, 46, 68
7, 70559, Note_on_c, 5, 46, 0
7, 70560, Note_on_c, 5, 45, 114
7, 70619, Note_on_c, 5, 45, 0
7, 70620, Note_on_c, 5, 45, 114
7, 70679, Note_on_c, 5, 45, 0
7, 70680, Note_on_c, 5, 45, 114
7, 70739, Note_on_c, 5, 45, 0
7, 70740, Note_on_c, 5, 45, 114
7, 70799, Note_on_c, 5, 45, 0
7, 70800, Note_on_c, 5, 45, 114
7, 70859, Note_on_c, 5, 45, 0
7, 70860, Note_on_c, 5, 45, 114
7, 70919, Note_on_c, 5, 45, 0
7, 70920, Note_on_c, 5, 45, 114
7, 70979, Note_on_c, 5, 45, 0
7, 70980, Note_on_c, 5, 45, 114
7, 71039, Note_on_c, 5, 45, 0
7, 71040, Note_on_c, 5, 45, 108
7, 71069, Note_on_c, 5, 45, 0
7, 71070, Note_on_c, 5, 45, 67
7, 71099, Note_on_c, 5, 45, 0
7, 71100, Note_on_c, 5, 45, 68
7, 71129, Note_on_c, 5, 45, 0
7, 71130, Note_on_c, 5, 45, 68
7, 71159, Note_on_c, 5, 45, 0
7, 71160, Note_on_c, 5, 45, 68
7, 71189, Note_on_c, 5, 45, 0
7, 71190, Note_on_c, 5, 45, 60
7, 71219, Note_on_c, 5, 45, 0
7, 71220, Note_on_c, 5, 45, 68
7, 71249, Note_on_c, 5, 45, 0
7, 71250, Note_on_c, 5, 45, 68
7, 71279, Note_on_c, 5, 45, 0
7, 71280, Note_on_c, 5, 45, 68
7, 71309, Note_on_c, 5, 45, 0
7, 71310, Note_on_c, 5, 45, 68
7, 71339, Note_on_c, 5, 45, 0
7, 71340, Note_on_c, 5, 45, 68
7, 71369, Note_on_c, 5, 45, 0
7, 71370, Note_on_c, 5, 45, 68
7, 71399, Note_on_c, 5, 45, 0
7, 71400, Note_on_c, 5, 45, 68
7, 71429, Note_on_c, 5, 45, 0
7, 71430, Note_on_c, 5, 45, 68
7, 71459, Note_on_c, 5, 45, 0
7, 71460, Note_on_c, 5, 45, 68
7, 71489, Note_on_c, 5, 45, 0
7, 71490, Note_on_c, 5, 45, 68
7, 71519, Note_on_c, 5, 45, 0
7, 71520, Note_on_c, 5, 46, 114
7, 71579, Note_on_c, 5, 46, 0
7, 71580, Note_on_c, 5, 58, 114
7, 71639, Note_on_c, 5, 58, 0
7, 71640, Note_on_c, 5, 57, 86
7, 71699, Note_on_c, 5, 57, 0
7, 71700, Note_on_c, 5, 58, 114
7, 71759, Note_on_c, 5, 58, 0
7, 71760, Note_on_c, 5, 53, 113
7, 71819, Note_on_c, 5, 53, 0
7, 71820, Note_on_c, 5, 58, 114
7, 71879, Note_on_c, 5, 58, 0
7, 71880, Note_on_c, 5, 50, 114
7, 71939, Note_on_c, 5, 50, 0
7, 71940, Note_on_c, 5, 53, 114
7, 71999, Note_on_c, 5, 53, 0
7, 72000, Note_on_c, 5, 46, 114
7, 72059, Note_on_c, 5, 46, 0
7, 72060, Note_on_c, 5, 58, 114
7, 72119, Note_on_c, 5, 58, 0
7, 72120, Note_on_c, 5, 53, 104
7, 72179, Note_on_c, 5, 53, 0
7, 72180, Note_on_c, 5, 50, 114
7, 72239, Note_on_c, 5, 50, 0
7, 72240, Note_on_c, 5, 46, 114
7, 72359, Note_on_c, 5, 46, 0
7, 72960, Note_on_c, 5, 63, 68
7, 73439, Note_on_c, 5, 63, 0
7, 73500, Note_on_c, 5, 63, 68
7, 73559, Note_on_c, 5, 63, 0
7, 73560, Note_on_c, 5, 62, 64
7, 73619, Note_on_c, 5, 62, 0
7, 73620, Note_on_c, 5, 60, 68
7, 73679, Note_on_c, 5, 60, 0
7, 73680, Note_on_c, 5, 58, 68
7, 73739, Note_on_c, 5, 58, 0
7, 73740, Note_on_c, 5, 56, 68
7, 73799, Note_on_c, 5, 56, 0
7, 73800, Note_on_c, 5, 55, 59
7, 73859, Note_on_c, 5, 55, 0
7, 73860, Note_on_c, 5, 53, 68
7, 73919, Note_on_c, 5, 53, 0
7, 73920, Note_on_c, 5, 51, 68
7, 74399, Note_on_c, 5, 51, 0
7, 74460, Note_on_c, 5, 63, 114
7, 74519, Note_on_c, 5, 63, 0
7, 74520, Note_on_c, 5, 62, 104
7, 74579, Note_on_c, 5, 62, 0
7, 74580, Note_on_c, 5, 60, 112
7, 74639, Note_on_c, 5, 60, 0
7, 74640, Note_on_c, 5, 58, 114
7, 74699, Note_on_c, 5, 58, 0
7, 74700, Note_on_c, 5, 56, 110
7, 74759, Note_on_c, 5, 56, 0
7, 74760, Note_on_c, 5, 55, 95
7, 74819, Note_on_c, 5, 55, 0
7, 74820, Note_on_c, 5, 53, 106
7, 74879, Note_on_c, 5, 53, 0
7, 74880, Note_on_c, 5, 51, 114
7, 74939, Note_on_c, 5, 51, 0
7, 74940, Note_on_c, 5, 63, 104
7, 74999, Note_on_c, 5, 63, 0
7, 75000, Note_on_c, 5, 62, 114
7, 75059, Note_on_c, 5, 62, 0
7, 75060, Note_on_c, 5, 60, 103
7, 75119, Note_on_c, 5, 60, 0
7, 75120, Note_on_c, 5, 58, 114
7, 75179, Note_on_c, 5, 58, 0
7, 75180, Note_on_c, 5, 56, 99
7, 75239, Note_on_c, 5, 56, 0
7, 75240, Note_on_c, 5, 55, 83
7, 75299, Note_on_c, 5, 55, 0
7, 75300, Note_on_c, 5, 53, 81
7, 75359, Note_on_c, 5, 53, 0
7, 75360, Note_on_c, 5, 51, 114
7, 75419, Note_on_c, 5, 51, 0
7, 75420, Note_on_c, 5, 63, 113
7, 75479, Note_on_c, 5, 63, 0
7, 75480, Note_on_c, 5, 62, 110
7, 75539, Note_on_c, 5, 62, 0
7, 75540, Note_on_c, 5, 63, 114
7, 75599, Note_on_c, 5, 63, 0
7, 75600, Note_on_c, 5, 58, 114
7, 75659, Note_on_c, 5, 58, 0
7, 75660, Note_on_c, 5, 63, 114
7, 75719, Note_on_c, 5, 63, 0
7, 75720, Note_on_c, 5, 55, 110
7, 75779, Note_on_c, 5, 55, 0
7, 75780, Note_on_c, 5, 63, 113
7, 75839, Note_on_c, 5, 63, 0
7, 75840, Note_on_c, 5, 56, 110
7, 75899, Note_on_c, 5, 56, 0
7, 75900, Note_on_c, 5, 63, 108
7, 75959, Note_on_c, 5, 63, 0
7, 75960, Note_on_c, 5, 62, 110
7, 76019, Note_on_c, 5, 62, 0
7, 76020, Note_on_c, 5, 63, 114
7, 76079, Note_on_c, 5, 63, 0
7, 76080, Note_on_c, 5, 60, 110
7, 76139, Note_on_c, 5, 60, 0
7, 76140, Note_on_c, 5, 63, 108
7, 76199, Note_on_c, 5, 63, 0
7, 76200, Note_on_c, 5, 56, 110
7, 76259, Note_on_c, 5, 56, 0
7, 76260, Note_on_c, 5, 63, 99
7, 76319, Note_on_c, 5, 63, 0
7, 76320, Note_on_c, 5, 55, 92
7, 76379, Note_on_c, 5, 55, 0
7, 76380, Note_on_c, 5, 63, 114
7, 76439, Note_on_c, 5, 63, 0
7, 76440, Note_on_c, 5, 62, 104
7, 76499, Note_on_c, 5, 62, 0
7, 76500, Note_on_c, 5, 63, 95
7, 76559, Note_on_c, 5, 63, 0
7, 76560, Note_on_c, 5, 58, 113
7, 76619, Note_on_c, 5, 58, 0
7, 76620, Note_on_c, 5, 63, 101
7, 76679, Note_on_c, 5, 63, 0
7, 76680, Note_on_c, 5, 55, 94
7, 76739, Note_on_c, 5, 55, 0
7, 76740, Note_on_c, 5, 63, 106
7, 76799, Note_on_c, 5, 63, 0
7, 76800, Note_on_c, 5, 56, 113
7, 76859, Note_on_c, 5, 56, 0
7, 76860, Note_on_c, 5, 56, 114
7, 76919, Note_on_c, 5, 56, 0
7, 76920, Note_on_c, 5, 56, 114
7, 76979, Note_on_c, 5, 56, 0
7, 76980, Note_on_c, 5, 56, 108
7, 77039, Note_on_c, 5, 56, 0
7, 77040, Note_on_c, 5, 58, 114
7, 77099, Note_on_c, 5, 58, 0
7, 77100, Note_on_c, 5, 58, 114
7, 77159, Note_on_c, 5, 58, 0
7, 77160, Note_on_c, 5, 46, 114
7, 77219, Note_on_c, 5, 46, 0
7, 77220, Note_on_c, 5, 46, 114
7, 77279, Note_on_c, 5, 46, 0
7, 77280, Note_on_c, 5, 51, 114
7, 77339, Note_on_c, 5, 51, 0
7, 77340, Note_on_c, 5, 63, 114
7, 77399, Note_on_c, 5, 63, 0
7, 77400, Note_on_c, 5, 62, 106
7, 77459, Note_on_c, 5, 62, 0
7, 77460, Note_on_c, 5, 63, 114
7, 77519, Note_on_c, 5, 63, 0
7, 77520, Note_on_c, 5, 58, 112
7, 77579, Note_on_c, 5, 58, 0
7, 77580, Note_on_c, 5, 63, 114
7, 77639, Note_on_c, 5, 63, 0
7, 77640, Note_on_c, 5, 55, 95
7, 77699, Note_on_c, 5, 55, 0
7, 77700, Note_on_c, 5, 63, 113
7, 77759, Note_on_c, 5, 63, 0
7, 77760, Note_on_c, 5, 56, 114
7, 77819, Note_on_c, 5, 56, 0
7, 77820, Note_on_c, 5, 63, 114
7, 77879, Note_on_c, 5, 63, 0
7, 77880, Note_on_c, 5, 62, 97
7, 77939, Note_on_c, 5, 62, 0
7, 77940, Note_on_c, 5, 63, 114
7, 77999, Note_on_c, 5, 63, 0
7, 78000, Note_on_c, 5, 60, 97
7, 78059, Note_on_c, 5, 60, 0
7, 78060, Note_on_c, 5, 63, 114
7, 78119, Note_on_c, 5, 63, 0
7, 78120, Note_on_c, 5, 56, 108
7, 78179, Note_on_c, 5, 56, 0
7, 78180, Note_on_c, 5, 63, 101
7, 78239, Note_on_c, 5, 63, 0
7, 78240, Note_on_c, 5, 55, 99
7, 78299, Note_on_c, 5, 55, 0
7, 78300, Note_on_c, 5, 63, 113
7, 78359, Note_on_c, 5, 63, 0
7, 78360, Note_on_c, 5, 62, 110
7, 78419, Note_on_c, 5, 62, 0
7, 78420, Note_on_c, 5, 63, 101
7, 78479, Note_on_c, 5, 63, 0
7, 78480, Note_on_c, 5, 58, 106
7, 78539, Note_on_c, 5, 58, 0
7, 78540, Note_on_c, 5, 63, 92
7, 78599, Note_on_c, 5, 63, 0
7, 78600, Note_on_c, 5, 55, 95
7, 78659, Note_on_c, 5, 55, 0
7, 78660, Note_on_c, 5, 63, 85
7, 78719, Note_on_c, 5, 63, 0
7, 78720, Note_on_c, 5, 56, 114
7, 78779, Note_on_c, 5, 56, 0
7, 78780, Note_on_c, 5, 56, 114
7, 78839, Note_on_c, 5, 56, 0
7, 78840, Note_on_c, 5, 56, 114
7, 78899, Note_on_c, 5, 56, 0
7, 78900, Note_on_c, 5, 56, 114
7, 78959, Note_on_c, 5, 56, 0
7, 78960, Note_on_c, 5, 58, 114
7, 79019, Note_on_c, 5, 58, 0
7, 79020, Note_on_c, 5, 58, 114
7, 79079, Note_on_c, 5, 58, 0
7, 79080, Note_on_c, 5, 46, 114
7, 79139, Note_on_c, 5, 46, 0
7, 79140, Note_on_c, 5, 46, 114
7, 79199, Note_on_c, 5, 46, 0
7, 79200, Note_on_c, 5, 51, 114
7, 79319, Note_on_c, 5, 51, 0
7, 79380, Note_on_c, 5, 43, 112
7, 79439, Note_on_c, 5, 43, 0
7, 79440, Note_on_c, 5, 44, 114
7, 79499, Note_on_c, 5, 44, 0
7, 79500, Note_on_c, 5, 46, 114
7, 79559, Note_on_c, 5, 46, 0
7, 79560, Note_on_c, 5, 48, 77
7, 79619, Note_on_c, 5, 48, 0
7, 79620, Note_on_c, 5, 50, 114
7, 79679, Note_on_c, 5, 50, 0
7, 79680, Note_on_c, 5, 51, 114
7, 79739, Note_on_c, 5, 51, 0
7, 79740, Note_on_c, 5, 53, 110
7, 79799, Note_on_c, 5, 53, 0
7, 79800, Note_on_c, 5, 55, 113
7, 79859, Note_on_c, 5, 55, 0
7, 79860, Note_on_c, 5, 46, 113
7, 79919, Note_on_c, 5, 46, 0
7, 79920, Note_on_c, 5, 48, 94
7, 79979, Note_on_c, 5, 48, 0
7, 79980, Note_on_c, 5, 50, 114
7, 80039, Note_on_c, 5, 50, 0
7, 80040, Note_on_c, 5, 51, 114
7, 80099, Note_on_c, 5, 51, 0
7, 80100, Note_on_c, 5, 53, 110
7, 80159, Note_on_c, 5, 53, 0
7, 80160, Note_on_c, 5, 55, 114
7, 80219, Note_on_c, 5, 55, 0
7, 80220, Note_on_c, 5, 56, 114
7, 80279, Note_on_c, 5, 56, 0
7, 80280, Note_on_c, 5, 58, 114
7, 80339, Note_on_c, 5, 58, 0
7, 80340, Note_on_c, 5, 51, 114
7, 80399, Note_on_c, 5, 51, 0
7, 80400, Note_on_c, 5, 53, 95
7, 80459, Note_on_c, 5, 53, 0
7, 80460, Note_on_c, 5, 55, 104
7, 80519, Note_on_c, 5, 55, 0
7, 80520, Note_on_c, 5, 56, 113
7, 80579, Note_on_c, 5, 56, 0
7, 80580, Note_on_c, 5, 58, 114
7, 80639, Note_on_c, 5, 58, 0
7, 80640, Note_on_c, 5, 60, 70
7, 80699, Note_on_c, 5, 60, 0
7, 80700, Note_on_c, 5, 62, 112
7, 80759, Note_on_c, 5, 62, 0
7, 80760, Note_on_c, 5, 63, 114
7, 80819, Note_on_c, 5, 63, 0
7, 80820, Note_on_c, 5, 55, 99
7, 80879, Note_on_c, 5, 55, 0
7, 80880, Note_on_c, 5, 56, 114
7, 80940, Note_on_c, 5, 56, 0
7, 81000, Note_on_c, 5, 58, 114
7, 81060, Note_on_c, 5, 58, 0
7, 81120, Note_on_c, 5, 51, 114
7, 81180, Note_on_c, 5, 51, 0
7, 81300, Note_on_c, 5, 43, 114
7, 81359, Note_on_c, 5, 43, 0
7, 81360, Note_on_c, 5, 44, 113
7, 81419, Note_on_c, 5, 44, 0
7, 81420, Note_on_c, 5, 46, 114
7, 81479, Note_on_c, 5, 46, 0
7, 81480, Note_on_c, 5, 48, 114
7, 81539, Note_on_c, 5, 48, 0
7, 81540, Note_on_c, 5, 50, 114
7, 81599, Note_on_c, 5, 50, 0
7, 81600, Note_on_c, 5, 51, 114
7, 81659, Note_on_c, 5, 51, 0
7, 81660, Note_on_c, 5, 53, 114
7, 81719, Note_on_c, 5, 53, 0
7, 81720, Note_on_c, 5, 55, 112
7, 81779, Note_on_c, 5, 55, 0
7, 81780, Note_on_c, 5, 46, 114
7, 81839, Note_on_c, 5, 46, 0
7, 81840, Note_on_c, 5, 48, 113
7, 81899, Note_on_c, 5, 48, 0
7, 81900, Note_on_c, 5, 50, 114
7, 81959, Note_on_c, 5, 50, 0
7, 81960, Note_on_c, 5, 51, 114
7, 82019, Note_on_c, 5, 51, 0
7, 82020, Note_on_c, 5, 53, 114
7, 82079, Note_on_c, 5, 53, 0
7, 82080, Note_on_c, 5, 55, 101
7, 82139, Note_on_c, 5, 55, 0
7, 82140, Note_on_c, 5, 56, 114
7, 82199, Note_on_c, 5, 56, 0
7, 82200, Note_on_c, 5, 58, 110
7, 82259, Note_on_c, 5, 58, 0
7, 82260, Note_on_c, 5, 51, 114
7, 82319, Note_on_c, 5, 51, 0
7, 82320, Note_on_c, 5, 53, 114
7, 82379, Note_on_c, 5, 53, 0
7, 82380, Note_on_c, 5, 55, 108
7, 82439, Note_on_c, 5, 55, 0
7, 82440, Note_on_c, 5, 56, 114
7, 82499, Note_on_c, 5, 56, 0
7, 82500, Note_on_c, 5, 58, 114
7, 82559, Note_on_c, 5, 58, 0
7, 82560, Note_on_c, 5, 60, 114
7, 82619, Note_on_c, 5, 60, 0
7, 82620, Note_on_c, 5, 62, 47
7, 82679, Note_on_c, 5, 62, 0
7, 82680, Note_on_c, 5, 63, 114
7, 82739, Note_on_c, 5, 63, 0
7, 82740, Note_on_c, 5, 43, 114
7, 82799, Note_on_c, 5, 43, 0
7, 82800, Note_on_c, 5, 44, 114
7, 82860, Note_on_c, 5, 44, 0
7, 82920, Note_on_c, 5, 46, 114
7, 82980, Note_on_c, 5, 46, 0
7, 83040, Note_on_c, 5, 51, 114
7, 83080, Note_on_c, 5, 51, 0
7, 83640, Note_on_c, 5, 56, 114
7, 83654, Note_on_c, 5, 56, 0
7, 83655, Note_on_c, 5, 55, 104
7, 83669, Note_on_c, 5, 55, 0
7, 83670, Note_on_c, 5, 56, 114
7, 83684, Note_on_c, 5, 56, 0
7, 83685, Note_on_c, 5, 55, 108
7, 83699, Note_on_c, 5, 55, 0
7, 83700, Note_on_c, 5, 56, 114
7, 83714, Note_on_c, 5, 56, 0
7, 83715, Note_on_c, 5, 55, 110
7, 83729, Note_on_c, 5, 55, 0
7, 83730, Note_on_c, 5, 53, 114
7, 83744, Note_on_c, 5, 53, 0
7, 83745, Note_on_c, 5, 55, 114
7, 83759, Note_on_c, 5, 55, 0
7, 83760, Note_on_c, 5, 56, 114
7, 83820, Note_on_c, 5, 56, 0
7, 83880, Note_on_c, 5, 58, 114
7, 83940, Note_on_c, 5, 58, 0
7, 84000, Note_on_c, 5, 60, 114
7, 84059, Note_on_c, 5, 60, 0
7, 84600, Note_on_c, 5, 56, 114
7, 84614, Note_on_c, 5, 56, 0
7, 84615, Note_on_c, 5, 55, 110
7, 84629, Note_on_c, 5, 55, 0
7, 84630, Note_on_c, 5, 56, 114
7, 84644, Note_on_c, 5, 56, 0
7, 84645, Note_on_c, 5, 55, 108
7, 84659, Note_on_c, 5, 55, 0
7, 84660, Note_on_c, 5, 56, 114
7, 84674, Note_on_c, 5, 56, 0
7, 84675, Note_on_c, 5, 55, 112
7, 84689, Note_on_c, 5, 55, 0
7, 84690, Note_on_c, 5, 53, 108
7, 84704, Note_on_c, 5, 53, 0
7, 84705, Note_on_c, 5, 55, 103
7, 84719, Note_on_c, 5, 55, 0
7, 84720, Note_on_c, 5, 56, 114
7, 84780, Note_on_c, 5, 56, 0
7, 84840, Note_on_c, 5, 58, 114
7, 84900, Note_on_c, 5, 58, 0
7, 84960, Note_on_c, 5, 51, 114
7, 84990, Note_on_c, 5, 51, 0
7, 85020, Note_on_c, 5, 63, 114
7, 85079, Note_on_c, 5, 63, 0
7, 85080, Note_on_c, 5, 62, 113
7, 85139, Note_on_c, 5, 62, 0
7, 85140, Note_on_c, 5, 63, 114
7, 85199, Note_on_c, 5, 63, 0
7, 85200, Note_on_c, 5, 58, 114
7, 85259, Note_on_c, 5, 58, 0
7, 85260, Note_on_c, 5, 63, 114
7, 85319, Note_on_c, 5, 63, 0
7, 85320, Note_on_c, 5, 55, 110
7, 85379, Note_on_c, 5, 55, 0
7, 85380, Note_on_c, 5, 58, 88
7, 85439, Note_on_c, 5, 58, 0
7, 85440, Note_on_c, 5, 51, 114
7, 85499, Note_on_c, 5, 51, 0
7, 85500, Note_on_c, 5, 63, 114
7, 85559, Note_on_c, 5, 63, 0
7, 85560, Note_on_c, 5, 58, 114
7, 85619, Note_on_c, 5, 58, 0
7, 85620, Note_on_c, 5, 55, 101
7, 85679, Note_on_c, 5, 55, 0
7, 85680, Note_on_c, 5, 51, 114
7, 85799, Note_on_c, 5, 51, 0
7, 85799, End_track
8, 0, Start_track
8, 0, MIDI_port, 0
8, 0, Title_t, "Bass"
8, 0, Program_c, 6, 43
8, 480, Note_on_c, 6, 39, 92
8, 695, Note_on_c, 6, 39, 0
8, 720, Note_on_c, 6, 43, 92
8, 935, Note_on_c, 6, 43, 0
8, 960, Note_on_c, 6, 46, 92
8, 1004, Note_on_c, 6, 46, 0
8, 1020, Note_on_c, 6, 46, 92
8, 1064, Note_on_c, 6, 46, 0
8, 1080, Note_on_c, 6, 46, 92
8, 1124, Note_on_c, 6, 46, 0
8, 1140, Note_on_c, 6, 46, 92
8, 1184, Note_on_c, 6, 46, 0
8, 1200, Note_on_c, 6, 46, 92
8, 1244, Note_on_c, 6, 46, 0
8, 1260, Note_on_c, 6, 46, 92
8, 1304, Note_on_c, 6, 46, 0
8, 1320, Note_on_c, 6, 46, 92
8, 1364, Note_on_c, 6, 46, 0
8, 1380, Note_on_c, 6, 46, 92
8, 1424, Note_on_c, 6, 46, 0
8, 1440, Note_on_c, 6, 43, 92
8, 1493, Note_on_c, 6, 43, 0
8, 1560, Note_on_c, 6, 39, 92
8, 1613, Note_on_c, 6, 39, 0
8, 2040, Note_on_c, 6, 39, 64
8, 2159, Note_on_c, 6, 39, 0
8, 2160, Note_on_c, 6, 39, 64
8, 2279, Note_on_c, 6, 39, 0
8, 2280, Note_on_c, 6, 39, 64
8, 2399, Note_on_c, 6, 39, 0
8, 2520, Note_on_c, 6, 32, 64
8, 2639, Note_on_c, 6, 32, 0
8, 2640, Note_on_c, 6, 32, 64
8, 2759, Note_on_c, 6, 32, 0
8, 2760, Note_on_c, 6, 32, 64
8, 2879, Note_on_c, 6, 32, 0
8, 3000, Note_on_c, 6, 34, 64
8, 3119, Note_on_c, 6, 34, 0
8, 3120, Note_on_c, 6, 34, 64
8, 3239, Note_on_c, 6, 34, 0
8, 3240, Note_on_c, 6, 34, 64
8, 3359, Note_on_c, 6, 34, 0
8, 3480, Note_on_c, 6, 39, 64
8, 3599, Note_on_c, 6, 39, 0
8, 3600, Note_on_c, 6, 39, 64
8, 3719, Note_on_c, 6, 39, 0
8, 3720, Note_on_c, 6, 39, 64
8, 3839, Note_on_c, 6, 39, 0
8, 3960, Note_on_c, 6, 31, 64
8, 4079, Note_on_c, 6, 31, 0
8, 4080, Note_on_c, 6, 31, 64
8, 4199, Note_on_c, 6, 31, 0
8, 4200, Note_on_c, 6, 31, 64
8, 4319, Note_on_c, 6, 31, 0
8, 4440, Note_on_c, 6, 32, 64
8, 4559, Note_on_c, 6, 32, 0
8, 4560, Note_on_c, 6, 32, 64
8, 4679, Note_on_c, 6, 32, 0
8, 4680, Note_on_c, 6, 32, 64
8, 4799, Note_on_c, 6, 32, 0
8, 4920, Note_on_c, 6, 34, 64
8, 5039, Note_on_c, 6, 34, 0
8, 5040, Note_on_c, 6, 34, 64
8, 5159, Note_on_c, 6, 34, 0
8, 5160, Note_on_c, 6, 34, 64
8, 5279, Note_on_c, 6, 34, 0
8, 5280, Note_on_c, 6, 39, 64
8, 5339, Note_on_c, 6, 39, 0
8, 5340, Note_on_c, 6, 51, 64
8, 5399, Note_on_c, 6, 51, 0
8, 5400, Note_on_c, 6, 50, 64
8, 5459, Note_on_c, 6, 50, 0
8, 5460, Note_on_c, 6, 48, 64
8, 5519, Note_on_c, 6, 48, 0
8, 5520, Note_on_c, 6, 46, 64
8, 5579, Note_on_c, 6, 46, 0
8, 5580, Note_on_c, 6, 44, 64
8, 5639, Note_on_c, 6, 44, 0
8, 5640, Note_on_c, 6, 43, 64
8, 5699, Note_on_c, 6, 43, 0
8, 5700, Note_on_c, 6, 41, 64
8, 5759, Note_on_c, 6, 41, 0
8, 5760, Note_on_c, 6, 39, 92
8, 5957, Note_on_c, 6, 39, 0
8, 6000, Note_on_c, 6, 43, 92
8, 6197, Note_on_c, 6, 43, 0
8, 6240, Note_on_c, 6, 46, 92
8, 6299, Note_on_c, 6, 46, 0
8, 6300, Note_on_c, 6, 46, 92
8, 6359, Note_on_c, 6, 46, 0
8, 6360, Note_on_c, 6, 46, 92
8, 6419, Note_on_c, 6, 46, 0
8, 6420, Note_on_c, 6, 46, 92
8, 6479, Note_on_c, 6, 46, 0
8, 6480, Note_on_c, 6, 46, 92
8, 6539, Note_on_c, 6, 46, 0
8, 6540, Note_on_c, 6, 46, 92
8, 6599, Note_on_c, 6, 46, 0
8, 6600, Note_on_c, 6, 46, 92
8, 6659, Note_on_c, 6, 46, 0
8, 6660, Note_on_c, 6, 46, 92
8, 6719, Note_on_c, 6, 46, 0
8, 6720, Note_on_c, 6, 43, 92
8, 6791, Note_on_c, 6, 43, 0
8, 6840, Note_on_c, 6, 39, 92
8, 6911, Note_on_c, 6, 39, 0
8, 7320, Note_on_c, 6, 39, 64
8, 7439, Note_on_c, 6, 39, 0
8, 7440, Note_on_c, 6, 39, 64
8, 7559, Note_on_c, 6, 39, 0
8, 7560, Note_on_c, 6, 39, 64
8, 7679, Note_on_c, 6, 39, 0
8, 7800, Note_on_c, 6, 32, 64
8, 7919, Note_on_c, 6, 32, 0
8, 7920, Note_on_c, 6, 32, 64
8, 8039, Note_on_c, 6, 32, 0
8, 8040, Note_on_c, 6, 32, 64
8, 8159, Note_on_c, 6, 32, 0
8, 8280, Note_on_c, 6, 34, 64
8, 8399, Note_on_c, 6, 34, 0
8, 8400, Note_on_c, 6, 34, 64
8, 8519, Note_on_c, 6, 34, 0
8, 8520, Note_on_c, 6, 34, 64
8, 8639, Note_on_c, 6, 34, 0
8, 8760, Note_on_c, 6, 39, 64
8, 8879, Note_on_c, 6, 39, 0
8, 8880, Note_on_c, 6, 39, 64
8, 8999, Note_on_c, 6, 39, 0
8, 9000, Note_on_c, 6, 39, 64
8, 9119, Note_on_c, 6, 39, 0
8, 9240, Note_on_c, 6, 31, 64
8, 9359, Note_on_c, 6, 31, 0
8, 9360, Note_on_c, 6, 31, 64
8, 9479, Note_on_c, 6, 31, 0
8, 9480, Note_on_c, 6, 31, 64
8, 9599, Note_on_c, 6, 31, 0
8, 9720, Note_on_c, 6, 32, 64
8, 9839, Note_on_c, 6, 32, 0
8, 9840, Note_on_c, 6, 32, 64
8, 9959, Note_on_c, 6, 32, 0
8, 9960, Note_on_c, 6, 32, 64
8, 10079, Note_on_c, 6, 32, 0
8, 10200, Note_on_c, 6, 34, 64
8, 10319, Note_on_c, 6, 34, 0
8, 10320, Note_on_c, 6, 34, 64
8, 10439, Note_on_c, 6, 34, 0
8, 10440, Note_on_c, 6, 34, 64
8, 10559, Note_on_c, 6, 34, 0
8, 10560, Note_on_c, 6, 39, 64
8, 10619, Note_on_c, 6, 39, 0
8, 10620, Note_on_c, 6, 51, 64
8, 10679, Note_on_c, 6, 51, 0
8, 10680, Note_on_c, 6, 50, 64
8, 10739, Note_on_c, 6, 50, 0
8, 10740, Note_on_c, 6, 48, 64
8, 10799, Note_on_c, 6, 48, 0
8, 10800, Note_on_c, 6, 46, 64
8, 10859, Note_on_c, 6, 46, 0
8, 10860, Note_on_c, 6, 44, 64
8, 10919, Note_on_c, 6, 44, 0
8, 10920, Note_on_c, 6, 43, 64
8, 10979, Note_on_c, 6, 43, 0
8, 10980, Note_on_c, 6, 41, 64
8, 11039, Note_on_c, 6, 41, 0
8, 11040, Note_on_c, 6, 39, 92
8, 11099, Note_on_c, 6, 39, 0
8, 11100, Note_on_c, 6, 39, 46
8, 11159, Note_on_c, 6, 39, 0
8, 11160, Note_on_c, 6, 39, 46
8, 11219, Note_on_c, 6, 39, 0
8, 11220, Note_on_c, 6, 39, 46
8, 11279, Note_on_c, 6, 39, 0
8, 11280, Note_on_c, 6, 39, 46
8, 11339, Note_on_c, 6, 39, 0
8, 11340, Note_on_c, 6, 39, 46
8, 11399, Note_on_c, 6, 39, 0
8, 11400, Note_on_c, 6, 39, 46
8, 11459, Note_on_c, 6, 39, 0
8, 11460, Note_on_c, 6, 39, 46
8, 11519, Note_on_c, 6, 39, 0
8, 11520, Note_on_c, 6, 39, 46
8, 11579, Note_on_c, 6, 39, 0
8, 11580, Note_on_c, 6, 39, 46
8, 11639, Note_on_c, 6, 39, 0
8, 11640, Note_on_c, 6, 39, 46
8, 11699, Note_on_c, 6, 39, 0
8, 11700, Note_on_c, 6, 39, 46
8, 11759, Note_on_c, 6, 39, 0
8, 11760, Note_on_c, 6, 39, 46
8, 11819, Note_on_c, 6, 39, 0
8, 11820, Note_on_c, 6, 39, 46
8, 11879, Note_on_c, 6, 39, 0
8, 11880, Note_on_c, 6, 39, 46
8, 11939, Note_on_c, 6, 39, 0
8, 11940, Note_on_c, 6, 39, 46
8, 11999, Note_on_c, 6, 39, 0
8, 12000, Note_on_c, 6, 39, 92
8, 12059, Note_on_c, 6, 39, 0
8, 12060, Note_on_c, 6, 39, 92
8, 12119, Note_on_c, 6, 39, 0
8, 12120, Note_on_c, 6, 39, 92
8, 12179, Note_on_c, 6, 39, 0
8, 12180, Note_on_c, 6, 39, 92
8, 12239, Note_on_c, 6, 39, 0
8, 12240, Note_on_c, 6, 39, 92
8, 12299, Note_on_c, 6, 39, 0
8, 12300, Note_on_c, 6, 39, 92
8, 12359, Note_on_c, 6, 39, 0
8, 12360, Note_on_c, 6, 39, 92
8, 12419, Note_on_c, 6, 39, 0
8, 12420, Note_on_c, 6, 39, 92
8, 12479, Note_on_c, 6, 39, 0
8, 12480, Note_on_c, 6, 39, 46
8, 12539, Note_on_c, 6, 39, 0
8, 12540, Note_on_c, 6, 39, 46
8, 12599, Note_on_c, 6, 39, 0
8, 12600, Note_on_c, 6, 39, 46
8, 12659, Note_on_c, 6, 39, 0
8, 12660, Note_on_c, 6, 39, 46
8, 12719, Note_on_c, 6, 39, 0
8, 12720, Note_on_c, 6, 39, 46
8, 12779, Note_on_c, 6, 39, 0
8, 12780, Note_on_c, 6, 39, 46
8, 12839, Note_on_c, 6, 39, 0
8, 12840, Note_on_c, 6, 39, 46
8, 12899, Note_on_c, 6, 39, 0
8, 12900, Note_on_c, 6, 39, 46
8, 12959, Note_on_c, 6, 39, 0
8, 12960, Note_on_c, 6, 39, 92
8, 13019, Note_on_c, 6, 39, 0
8, 13020, Note_on_c, 6, 39, 92
8, 13079, Note_on_c, 6, 39, 0
8, 13080, Note_on_c, 6, 39, 92
8, 13139, Note_on_c, 6, 39, 0
8, 13140, Note_on_c, 6, 39, 92
8, 13199, Note_on_c, 6, 39, 0
8, 13200, Note_on_c, 6, 39, 92
8, 13259, Note_on_c, 6, 39, 0
8, 13260, Note_on_c, 6, 39, 92
8, 13319, Note_on_c, 6, 39, 0
8, 13320, Note_on_c, 6, 39, 92
8, 13379, Note_on_c, 6, 39, 0
8, 13380, Note_on_c, 6, 39, 92
8, 13439, Note_on_c, 6, 39, 0
8, 13440, Note_on_c, 6, 39, 92
8, 13499, Note_on_c, 6, 39, 0
8, 13560, Note_on_c, 6, 46, 92
8, 13619, Note_on_c, 6, 46, 0
8, 13680, Note_on_c, 6, 43, 92
8, 13739, Note_on_c, 6, 43, 0
8, 13800, Note_on_c, 6, 39, 92
8, 13859, Note_on_c, 6, 39, 0
8, 13920, Note_on_c, 6, 46, 92
8, 13979, Note_on_c, 6, 46, 0
8, 13980, Note_on_c, 6, 46, 92
8, 14039, Note_on_c, 6, 46, 0
8, 14040, Note_on_c, 6, 45, 92
8, 14099, Note_on_c, 6, 45, 0
8, 14100, Note_on_c, 6, 46, 92
8, 14159, Note_on_c, 6, 46, 0
8, 14160, Note_on_c, 6, 41, 92
8, 14219, Note_on_c, 6, 41, 0
8, 14220, Note_on_c, 6, 46, 92
8, 14279, Note_on_c, 6, 46, 0
8, 14280, Note_on_c, 6, 38, 92
8, 14339, Note_on_c, 6, 38, 0
8, 14340, Note_on_c, 6, 41, 92
8, 14399, Note_on_c, 6, 41, 0
8, 14400, Note_on_c, 6, 34, 92
8, 14459, Note_on_c, 6, 34, 0
8, 14460, Note_on_c, 6, 46, 92
8, 14519, Note_on_c, 6, 46, 0
8, 14520, Note_on_c, 6, 41, 92
8, 14579, Note_on_c, 6, 41, 0
8, 14580, Note_on_c, 6, 38, 92
8, 14639, Note_on_c, 6, 38, 0
8, 14640, Note_on_c, 6, 34, 92
8, 14759, Note_on_c, 6, 34, 0
8, 15360, Note_on_c, 6, 46, 55
8, 15839, Note_on_c, 6, 46, 0
8, 15840, Note_on_c, 6, 46, 55
8, 15899, Note_on_c, 6, 46, 0
8, 15900, Note_on_c, 6, 46, 55
8, 15959, Note_on_c, 6, 46, 0
8, 15960, Note_on_c, 6, 45, 55
8, 16019, Note_on_c, 6, 45, 0
8, 16020, Note_on_c, 6, 43, 55
8, 16079, Note_on_c, 6, 43, 0
8, 16080, Note_on_c, 6, 41, 55
8, 16139, Note_on_c, 6, 41, 0
8, 16140, Note_on_c, 6, 39, 55
8, 16199, Note_on_c, 6, 39, 0
8, 16200, Note_on_c, 6, 38, 55
8, 16259, Note_on_c, 6, 38, 0
8, 16260, Note_on_c, 6, 36, 55
8, 16319, Note_on_c, 6, 36, 0
8, 16320, Note_on_c, 6, 34, 55
8, 16799, Note_on_c, 6, 34, 0
8, 16860, Note_on_c, 6, 46, 74
8, 16919, Note_on_c, 6, 46, 0
8, 16920, Note_on_c, 6, 45, 74
8, 16979, Note_on_c, 6, 45, 0
8, 16980, Note_on_c, 6, 43, 74
8, 17039, Note_on_c, 6, 43, 0
8, 17040, Note_on_c, 6, 41, 74
8, 17099, Note_on_c, 6, 41, 0
8, 17100, Note_on_c, 6, 39, 74
8, 17159, Note_on_c, 6, 39, 0
8, 17160, Note_on_c, 6, 38, 74
8, 17219, Note_on_c, 6, 38, 0
8, 17220, Note_on_c, 6, 36, 74
8, 17279, Note_on_c, 6, 36, 0
8, 17280, Note_on_c, 6, 34, 74
8, 17339, Note_on_c, 6, 34, 0
8, 17340, Note_on_c, 6, 46, 74
8, 17399, Note_on_c, 6, 46, 0
8, 17400, Note_on_c, 6, 45, 74
8, 17459, Note_on_c, 6, 45, 0
8, 17460, Note_on_c, 6, 43, 74
8, 17519, Note_on_c, 6, 43, 0
8, 17520, Note_on_c, 6, 41, 74
8, 17579, Note_on_c, 6, 41, 0
8, 17580, Note_on_c, 6, 39, 74
8, 17639, Note_on_c, 6, 39, 0
8, 17640, Note_on_c, 6, 38, 74
8, 17699, Note_on_c, 6, 38, 0
8, 17700, Note_on_c, 6, 36, 74
8, 17759, Note_on_c, 6, 36, 0
8, 17760, Note_on_c, 6, 34, 92
8, 17801, Note_on_c, 6, 34, 0
8, 17820, Note_on_c, 6, 46, 92
8, 17861, Note_on_c, 6, 46, 0
8, 17880, Note_on_c, 6, 45, 92
8, 17921, Note_on_c, 6, 45, 0
8, 17940, Note_on_c, 6, 46, 92
8, 17981, Note_on_c, 6, 46, 0
8, 18000, Note_on_c, 6, 41, 92
8, 18041, Note_on_c, 6, 41, 0
8, 18060, Note_on_c, 6, 46, 92
8, 18101, Note_on_c, 6, 46, 0
8, 18120, Note_on_c, 6, 38, 92
8, 18161, Note_on_c, 6, 38, 0
8, 18180, Note_on_c, 6, 46, 92
8, 18221, Note_on_c, 6, 46, 0
8, 18240, Note_on_c, 6, 39, 92
8, 18281, Note_on_c, 6, 39, 0
8, 18300, Note_on_c, 6, 46, 92
8, 18341, Note_on_c, 6, 46, 0
8, 18360, Note_on_c, 6, 45, 92
8, 18401, Note_on_c, 6, 45, 0
8, 18420, Note_on_c, 6, 46, 92
8, 18461, Note_on_c, 6, 46, 0
8, 18480, Note_on_c, 6, 43, 92
8, 18521, Note_on_c, 6, 43, 0
8, 18540, Note_on_c, 6, 46, 92
8, 18581, Note_on_c, 6, 46, 0
8, 18600, Note_on_c, 6, 39, 92
8, 18641, Note_on_c, 6, 39, 0
8, 18660, Note_on_c, 6, 43, 92
8, 18701, Note_on_c, 6, 43, 0
8, 18720, Note_on_c, 6, 34, 92
8, 18761, Note_on_c, 6, 34, 0
8, 18780, Note_on_c, 6, 46, 92
8, 18821, Note_on_c, 6, 46, 0
8, 18840, Note_on_c, 6, 45, 92
8, 18881, Note_on_c, 6, 45, 0
8, 18900, Note_on_c, 6, 46, 92
8, 18941, Note_on_c, 6, 46, 0
8, 18960, Note_on_c, 6, 41, 92
8, 19001, Note_on_c, 6, 41, 0
8, 19020, Note_on_c, 6, 46, 92
8, 19061, Note_on_c, 6, 46, 0
8, 19080, Note_on_c, 6, 38, 92
8, 19121, Note_on_c, 6, 38, 0
8, 19140, Note_on_c, 6, 41, 92
8, 19181, Note_on_c, 6, 41, 0
8, 19200, Note_on_c, 6, 39, 92
8, 19241, Note_on_c, 6, 39, 0
8, 19260, Note_on_c, 6, 39, 92
8, 19301, Note_on_c, 6, 39, 0
8, 19320, Note_on_c, 6, 39, 92
8, 19361, Note_on_c, 6, 39, 0
8, 19380, Note_on_c, 6, 39, 92
8, 19421, Note_on_c, 6, 39, 0
8, 19440, Note_on_c, 6, 41, 92
8, 19481, Note_on_c, 6, 41, 0
8, 19500, Note_on_c, 6, 41, 92
8, 19541, Note_on_c, 6, 41, 0
8, 19560, Note_on_c, 6, 29, 92
8, 19601, Note_on_c, 6, 29, 0
8, 19620, Note_on_c, 6, 29, 92
8, 19661, Note_on_c, 6, 29, 0
8, 19680, Note_on_c, 6, 34, 92
8, 19721, Note_on_c, 6, 34, 0
8, 19740, Note_on_c, 6, 46, 92
8, 19781, Note_on_c, 6, 46, 0
8, 19800, Note_on_c, 6, 45, 92
8, 19841, Note_on_c, 6, 45, 0
8, 19860, Note_on_c, 6, 46, 92
8, 19901, Note_on_c, 6, 46, 0
8, 19920, Note_on_c, 6, 41, 92
8, 19961, Note_on_c, 6, 41, 0
8, 19980, Note_on_c, 6, 46, 92
8, 20021, Note_on_c, 6, 46, 0
8, 20040, Note_on_c, 6, 38, 92
8, 20081, Note_on_c, 6, 38, 0
8, 20100, Note_on_c, 6, 46, 92
8, 20141, Note_on_c, 6, 46, 0
8, 20160, Note_on_c, 6, 39, 92
8, 20201, Note_on_c, 6, 39, 0
8, 20220, Note_on_c, 6, 46, 92
8, 20261, Note_on_c, 6, 46, 0
8, 20280, Note_on_c, 6, 45, 92
8, 20321, Note_on_c, 6, 45, 0
8, 20340, Note_on_c, 6, 46, 92
8, 20381, Note_on_c, 6, 46, 0
8, 20400, Note_on_c, 6, 43, 92
8, 20441, Note_on_c, 6, 43, 0
8, 20460, Note_on_c, 6, 46, 92
8, 20501, Note_on_c, 6, 46, 0
8, 20520, Note_on_c, 6, 39, 92
8, 20561, Note_on_c, 6, 39, 0
8, 20580, Note_on_c, 6, 43, 92
8, 20621, Note_on_c, 6, 43, 0
8, 20640, Note_on_c, 6, 34, 92
8, 20681, Note_on_c, 6, 34, 0
8, 20700, Note_on_c, 6, 46, 92
8, 20741, Note_on_c, 6, 46, 0
8, 20760, Note_on_c, 6, 45, 92
8, 20801, Note_on_c, 6, 45, 0
8, 20820, Note_on_c, 6, 46, 92
8, 20861, Note_on_c, 6, 46, 0
8, 20880, Note_on_c, 6, 41, 92
8, 20921, Note_on_c, 6, 41, 0
8, 20940, Note_on_c, 6, 46, 92
8, 20981, Note_on_c, 6, 46, 0
8, 21000, Note_on_c, 6, 38, 92
8, 21041, Note_on_c, 6, 38, 0
8, 21060, Note_on_c, 6, 46, 92
8, 21101, Note_on_c, 6, 46, 0
8, 21120, Note_on_c, 6, 39, 92
8, 21161, Note_on_c, 6, 39, 0
8, 21180, Note_on_c, 6, 39, 92
8, 21221, Note_on_c, 6, 39, 0
8, 21240, Note_on_c, 6, 39, 92
8, 21281, Note_on_c, 6, 39, 0
8, 21300, Note_on_c, 6, 39, 92
8, 21341, Note_on_c, 6, 39, 0
8, 21360, Note_on_c, 6, 41, 92
8, 21401, Note_on_c, 6, 41, 0
8, 21420, Note_on_c, 6, 41, 92
8, 21461, Note_on_c, 6, 41, 0
8, 21480, Note_on_c, 6, 29, 92
8, 21521, Note_on_c, 6, 29, 0
8, 21540, Note_on_c, 6, 29, 92
8, 21581, Note_on_c, 6, 29, 0
8, 21600, Note_on_c, 6, 34, 92
8, 21683, Note_on_c, 6, 34, 0
8, 21780, Note_on_c, 6, 34, 92
8, 21839, Note_on_c, 6, 34, 0
8, 21840, Note_on_c, 6, 36, 92
8, 21899, Note_on_c, 6, 36, 0
8, 21900, Note_on_c, 6, 38, 92
8, 21959, Note_on_c, 6, 38, 0
8, 21960, Note_on_c, 6, 39, 92
8, 22019, Note_on_c, 6, 39, 0
8, 22020, Note_on_c, 6, 41, 92
8, 22079, Note_on_c, 6, 41, 0
8, 22080, Note_on_c, 6, 43, 92
8, 22139, Note_on_c, 6, 43, 0
8, 22140, Note_on_c, 6, 45, 92
8, 22199, Note_on_c, 6, 45, 0
8, 22200, Note_on_c, 6, 46, 92
8, 22259, Note_on_c, 6, 46, 0
8, 22260, Note_on_c, 6, 38, 92
8, 22319, Note_on_c, 6, 38, 0
8, 22320, Note_on_c, 6, 39, 92
8, 22379, Note_on_c, 6, 39, 0
8, 22380, Note_on_c, 6, 41, 92
8, 22439, Note_on_c, 6, 41, 0
8, 22440, Note_on_c, 6, 43, 92
8, 22499, Note_on_c, 6, 43, 0
8, 22500, Note_on_c, 6, 45, 92
8, 22559, Note_on_c, 6, 45, 0
8, 22560, Note_on_c, 6, 46, 92
8, 22619, Note_on_c, 6, 46, 0
8, 22620, Note_on_c, 6, 48, 92
8, 22679, Note_on_c, 6, 48, 0
8, 22680, Note_on_c, 6, 50, 92
8, 22739, Note_on_c, 6, 50, 0
8, 22740, Note_on_c, 6, 41, 92
8, 22799, Note_on_c, 6, 41, 0
8, 22800, Note_on_c, 6, 43, 92
8, 22859, Note_on_c, 6, 43, 0
8, 22860, Note_on_c, 6, 45, 92
8, 22919, Note_on_c, 6, 45, 0
8, 22920, Note_on_c, 6, 46, 92
8, 22979, Note_on_c, 6, 46, 0
8, 22980, Note_on_c, 6, 48, 92
8, 23039, Note_on_c, 6, 48, 0
8, 23040, Note_on_c, 6, 50, 92
8, 23099, Note_on_c, 6, 50, 0
8, 23100, Note_on_c, 6, 51, 92
8, 23159, Note_on_c, 6, 51, 0
8, 23160, Note_on_c, 6, 53, 92
8, 23219, Note_on_c, 6, 53, 0
8, 23220, Note_on_c, 6, 38, 92
8, 23279, Note_on_c, 6, 38, 0
8, 23280, Note_on_c, 6, 39, 92
8, 23330, Note_on_c, 6, 39, 0
8, 23400, Note_on_c, 6, 41, 92
8, 23450, Note_on_c, 6, 41, 0
8, 23520, Note_on_c, 6, 34, 92
8, 23639, Note_on_c, 6, 34, 0
8, 23700, Note_on_c, 6, 34, 92
8, 23759, Note_on_c, 6, 34, 0
8, 23760, Note_on_c, 6, 36, 92
8, 23819, Note_on_c, 6, 36, 0
8, 23820, Note_on_c, 6, 38, 92
8, 23879, Note_on_c, 6, 38, 0
8, 23880, Note_on_c, 6, 39, 92
8, 23939, Note_on_c, 6, 39, 0
8, 23940, Note_on_c, 6, 41, 92
8, 23999, Note_on_c, 6, 41, 0
8, 24000, Note_on_c, 6, 43, 92
8, 24059, Note_on_c, 6, 43, 0
8, 24060, Note_on_c, 6, 45, 92
8, 24119, Note_on_c, 6, 45, 0
8, 24120, Note_on_c, 6, 46, 92
8, 24179, Note_on_c, 6, 46, 0
8, 24180, Note_on_c, 6, 38, 92
8, 24239, Note_on_c, 6, 38, 0
8, 24240, Note_on_c, 6, 39, 92
8, 24299, Note_on_c, 6, 39, 0
8, 24300, Note_on_c, 6, 41, 92
8, 24359, Note_on_c, 6, 41, 0
8, 24360, Note_on_c, 6, 43, 92
8, 24419, Note_on_c, 6, 43, 0
8, 24420, Note_on_c, 6, 45, 92
8, 24479, Note_on_c, 6, 45, 0
8, 24480, Note_on_c, 6, 46, 92
8, 24539, Note_on_c, 6, 46, 0
8, 24540, Note_on_c, 6, 48, 92
8, 24599, Note_on_c, 6, 48, 0
8, 24600, Note_on_c, 6, 50, 92
8, 24659, Note_on_c, 6, 50, 0
8, 24660, Note_on_c, 6, 41, 92
8, 24719, Note_on_c, 6, 41, 0
8, 24720, Note_on_c, 6, 43, 92
8, 24779, Note_on_c, 6, 43, 0
8, 24780, Note_on_c, 6, 45, 92
8, 24839, Note_on_c, 6, 45, 0
8, 24840, Note_on_c, 6, 46, 92
8, 24899, Note_on_c, 6, 46, 0
8, 24900, Note_on_c, 6, 48, 92
8, 24959, Note_on_c, 6, 48, 0
8, 24960, Note_on_c, 6, 50, 92
8, 25019, Note_on_c, 6, 50, 0
8, 25020, Note_on_c, 6, 51, 92
8, 25079, Note_on_c, 6, 51, 0
8, 25080, Note_on_c, 6, 53, 92
8, 25139, Note_on_c, 6, 53, 0
8, 25140, Note_on_c, 6, 38, 92
8, 25199, Note_on_c, 6, 38, 0
8, 25200, Note_on_c, 6, 39, 92
8, 25250, Note_on_c, 6, 39, 0
8, 25320, Note_on_c, 6, 41, 92
8, 25370, Note_on_c, 6, 41, 0
8, 25440, Note_on_c, 6, 34, 92
8, 25538, Note_on_c, 6, 34, 0
8, 26040, Note_on_c, 6, 39, 92
8, 26054, Note_on_c, 6, 39, 0
8, 26055, Note_on_c, 6, 38, 92
8, 26069, Note_on_c, 6, 38, 0
8, 26070, Note_on_c, 6, 39, 92
8, 26084, Note_on_c, 6, 39, 0
8, 26085, Note_on_c, 6, 38, 92
8, 26099, Note_on_c, 6, 38, 0
8, 26100, Note_on_c, 6, 39, 92
8, 26114, Note_on_c, 6, 39, 0
8, 26115, Note_on_c, 6, 38, 92
8, 26129, Note_on_c, 6, 38, 0
8, 26130, Note_on_c, 6, 36, 92
8, 26144, Note_on_c, 6, 36, 0
8, 26145, Note_on_c, 6, 38, 92
8, 26159, Note_on_c, 6, 38, 0
8, 26160, Note_on_c, 6, 39, 92
8, 26220, Note_on_c, 6, 39, 0
8, 26280, Note_on_c, 6, 41, 92
8, 26340, Note_on_c, 6, 41, 0
8, 26400, Note_on_c, 6, 43, 92
8, 26460, Note_on_c, 6, 43, 0
8, 27000, Note_on_c, 6, 39, 92
8, 27014, Note_on_c, 6, 39, 0
8, 27015, Note_on_c, 6, 38, 92
8, 27029, Note_on_c, 6, 38, 0
8, 27030, Note_on_c, 6, 39, 92
8, 27044, Note_on_c, 6, 39, 0
8, 27045, Note_on_c, 6, 38, 92
8, 27059, Note_on_c, 6, 38, 0
8, 27060, Note_on_c, 6, 39, 92
8, 27074, Note_on_c, 6, 39, 0
8, 27075, Note_on_c, 6, 38, 92
8, 27089, Note_on_c, 6, 38, 0
8, 27090, Note_on_c, 6, 36, 92
8, 27104, Note_on_c, 6, 36, 0
8, 27105, Note_on_c, 6, 38, 92
8, 27119, Note_on_c, 6, 38, 0
8, 27120, Note_on_c, 6, 39, 92
8, 27180, Note_on_c, 6, 39, 0
8, 27240, Note_on_c, 6, 41, 92
8, 27300, Note_on_c, 6, 41, 0
8, 27360, Note_on_c, 6, 34, 92
8, 27390, Note_on_c, 6, 34, 0
8, 27420, Note_on_c, 6, 46, 92
8, 27450, Note_on_c, 6, 46, 0
8, 27480, Note_on_c, 6, 45, 92
8, 27539, Note_on_c, 6, 45, 0
8, 27540, Note_on_c, 6, 46, 92
8, 27599, Note_on_c, 6, 46, 0
8, 27600, Note_on_c, 6, 41, 92
8, 27659, Note_on_c, 6, 41, 0
8, 27660, Note_on_c, 6, 46, 92
8, 27719, Note_on_c, 6, 46, 0
8, 27720, Note_on_c, 6, 38, 92
8, 27779, Note_on_c, 6, 38, 0
8, 27780, Note_on_c, 6, 41, 92
8, 27839, Note_on_c, 6, 41, 0
8, 27840, Note_on_c, 6, 34, 92
8, 27899, Note_on_c, 6, 34, 0
8, 27900, Note_on_c, 6, 46, 92
8, 27959, Note_on_c, 6, 46, 0
8, 27960, Note_on_c, 6, 41, 92
8, 28019, Note_on_c, 6, 41, 0
8, 28020, Note_on_c, 6, 38, 92
8, 28079, Note_on_c, 6, 38, 0
8, 28080, Note_on_c, 6, 34, 92
8, 28199, Note_on_c, 6, 34, 0
8, 28320, Note_on_c, 6, 39, 92
8, 28535, Note_on_c, 6, 39, 0
8, 28560, Note_on_c, 6, 43, 92
8, 28775, Note_on_c, 6, 43, 0
8, 28800, Note_on_c, 6, 46, 92
8, 28844, Note_on_c, 6, 46, 0
8, 28860, Note_on_c, 6, 46, 92
8, 28904, Note_on_c, 6, 46, 0
8, 28920, Note_on_c, 6, 46, 92
8, 28964, Note_on_c, 6, 46, 0
8, 28980, Note_on_c, 6, 46, 92
8, 29024, Note_on_c, 6, 46, 0
8, 29040, Note_on_c, 6, 46, 92
8, 29084, Note_on_c, 6, 46, 0
8, 29100, Note_on_c, 6, 46, 92
8, 29144, Note_on_c, 6, 46, 0
8, 29160, Note_on_c, 6, 46, 92
8, 29204, Note_on_c, 6, 46, 0
8, 29220, Note_on_c, 6, 46, 92
8, 29264, Note_on_c, 6, 46, 0
8, 29280, Note_on_c, 6, 43, 92
8, 29333, Note_on_c, 6, 43, 0
8, 29400, Note_on_c, 6, 39, 92
8, 29453, Note_on_c, 6, 39, 0
8, 29880, Note_on_c, 6, 39, 64
8, 29999, Note_on_c, 6, 39, 0
8, 30000, Note_on_c, 6, 39, 64
8, 30119, Note_on_c, 6, 39, 0
8, 30120, Note_on_c, 6, 39, 64
8, 30239, Note_on_c, 6, 39, 0
8, 30360, Note_on_c, 6, 32, 64
8, 30479, Note_on_c, 6, 32, 0
8, 30480, Note_on_c, 6, 32, 64
8, 30599, Note_on_c, 6, 32, 0
8, 30600, Note_on_c, 6, 32, 64
8, 30719, Note_on_c, 6, 32, 0
8, 30840, Note_on_c, 6, 34, 64
8, 30959, Note_on_c, 6, 34, 0
8, 30960, Note_on_c, 6, 34, 64
8, 31079, Note_on_c, 6, 34, 0
8, 31080, Note_on_c, 6, 34, 64
8, 31199, Note_on_c, 6, 34, 0
8, 31320, Note_on_c, 6, 39, 64
8, 31439, Note_on_c, 6, 39, 0
8, 31440, Note_on_c, 6, 39, 64
8, 31559, Note_on_c, 6, 39, 0
8, 31560, Note_on_c, 6, 39, 64
8, 31679, Note_on_c, 6, 39, 0
8, 31800, Note_on_c, 6, 31, 64
8, 31919, Note_on_c, 6, 31, 0
8, 31920, Note_on_c, 6, 31, 64
8, 32039, Note_on_c, 6, 31, 0
8, 32040, Note_on_c, 6, 31, 64
8, 32159, Note_on_c, 6, 31, 0
8, 32280, Note_on_c, 6, 32, 64
8, 32399, Note_on_c, 6, 32, 0
8, 32400, Note_on_c, 6, 32, 64
8, 32519, Note_on_c, 6, 32, 0
8, 32520, Note_on_c, 6, 32, 64
8, 32639, Note_on_c, 6, 32, 0
8, 32760, Note_on_c, 6, 34, 64
8, 32879, Note_on_c, 6, 34, 0
8, 32880, Note_on_c, 6, 34, 64
8, 32999, Note_on_c, 6, 34, 0
8, 33000, Note_on_c, 6, 34, 64
8, 33119, Note_on_c, 6, 34, 0
8, 33120, Note_on_c, 6, 39, 64
8, 33179, Note_on_c, 6, 39, 0
8, 33180, Note_on_c, 6, 51, 64
8, 33239, Note_on_c, 6, 51, 0
8, 33240, Note_on_c, 6, 50, 64
8, 33299, Note_on_c, 6, 50, 0
8, 33300, Note_on_c, 6, 48, 64
8, 33359, Note_on_c, 6, 48, 0
8, 33360, Note_on_c, 6, 46, 64
8, 33419, Note_on_c, 6, 46, 0
8, 33420, Note_on_c, 6, 44, 64
8, 33479, Note_on_c, 6, 44, 0
8, 33480, Note_on_c, 6, 43, 64
8, 33539, Note_on_c, 6, 43, 0
8, 33540, Note_on_c, 6, 41, 64
8, 33599, Note_on_c, 6, 41, 0
8, 33600, Note_on_c, 6, 39, 92
8, 33797, Note_on_c, 6, 39, 0
8, 33840, Note_on_c, 6, 43, 92
8, 34037, Note_on_c, 6, 43, 0
8, 34080, Note_on_c, 6, 46, 92
8, 34139, Note_on_c, 6, 46, 0
8, 34140, Note_on_c, 6, 46, 92
8, 34199, Note_on_c, 6, 46, 0
8, 34200, Note_on_c, 6, 46, 92
8, 34259, Note_on_c, 6, 46, 0
8, 34260, Note_on_c, 6, 46, 92
8, 34319, Note_on_c, 6, 46, 0
8, 34320, Note_on_c, 6, 46, 92
8, 34379, Note_on_c, 6, 46, 0
8, 34380, Note_on_c, 6, 46, 92
8, 34439, Note_on_c, 6, 46, 0
8, 34440, Note_on_c, 6, 46, 92
8, 34499, Note_on_c, 6, 46, 0
8, 34500, Note_on_c, 6, 46, 92
8, 34559, Note_on_c, 6, 46, 0
8, 34560, Note_on_c, 6, 43, 92
8, 34631, Note_on_c, 6, 43, 0
8, 34680, Note_on_c, 6, 39, 92
8, 34751, Note_on_c, 6, 39, 0
8, 35160, Note_on_c, 6, 39, 64
8, 35279, Note_on_c, 6, 39, 0
8, 35280, Note_on_c, 6, 39, 64
8, 35399, Note_on_c, 6, 39, 0
8, 35400, Note_on_c, 6, 39, 64
8, 35519, Note_on_c, 6, 39, 0
8, 35640, Note_on_c, 6, 32, 64
8, 35759, Note_on_c, 6, 32, 0
8, 35760, Note_on_c, 6, 32, 64
8, 35879, Note_on_c, 6, 32, 0
8, 35880, Note_on_c, 6, 32, 64
8, 35999, Note_on_c, 6, 32, 0
8, 36120, Note_on_c, 6, 34, 64
8, 36239, Note_on_c, 6, 34, 0
8, 36240, Note_on_c, 6, 34, 64
8, 36359, Note_on_c, 6, 34, 0
8, 36360, Note_on_c, 6, 34, 64
8, 36479, Note_on_c, 6, 34, 0
8, 36600, Note_on_c, 6, 39, 64
8, 36719, Note_on_c, 6, 39, 0
8, 36720, Note_on_c, 6, 39, 64
8, 36839, Note_on_c, 6, 39, 0
8, 36840, Note_on_c, 6, 39, 64
8, 36959, Note_on_c, 6, 39, 0
8, 37080, Note_on_c, 6, 31, 64
8, 37199, Note_on_c, 6, 31, 0
8, 37200, Note_on_c, 6, 31, 64
8, 37319, Note_on_c, 6, 31, 0
8, 37320, Note_on_c, 6, 31, 64
8, 37439, Note_on_c, 6, 31, 0
8, 37560, Note_on_c, 6, 32, 64
8, 37679, Note_on_c, 6, 32, 0
8, 37680, Note_on_c, 6, 32, 64
8, 37799, Note_on_c, 6, 32, 0
8, 37800, Note_on_c, 6, 32, 64
8, 37919, Note_on_c, 6, 32, 0
8, 38040, Note_on_c, 6, 34, 64
8, 38159, Note_on_c, 6, 34, 0
8, 38160, Note_on_c, 6, 34, 64
8, 38279, Note_on_c, 6, 34, 0
8, 38280, Note_on_c, 6, 34, 64
8, 38399, Note_on_c, 6, 34, 0
8, 38400, Note_on_c, 6, 39, 64
8, 38459, Note_on_c, 6, 39, 0
8, 38460, Note_on_c, 6, 51, 64
8, 38519, Note_on_c, 6, 51, 0
8, 38520, Note_on_c, 6, 50, 64
8, 38579, Note_on_c, 6, 50, 0
8, 38580, Note_on_c, 6, 48, 64
8, 38639, Note_on_c, 6, 48, 0
8, 38640, Note_on_c, 6, 46, 64
8, 38699, Note_on_c, 6, 46, 0
8, 38700, Note_on_c, 6, 44, 64
8, 38759, Note_on_c, 6, 44, 0
8, 38760, Note_on_c, 6, 43, 64
8, 38819, Note_on_c, 6, 43, 0
8, 38820, Note_on_c, 6, 41, 64
8, 38879, Note_on_c, 6, 41, 0
8, 38880, Note_on_c, 6, 39, 92
8, 38939, Note_on_c, 6, 39, 0
8, 38940, Note_on_c, 6, 39, 46
8, 38999, Note_on_c, 6, 39, 0
8, 39000, Note_on_c, 6, 39, 46
8, 39059, Note_on_c, 6, 39, 0
8, 39060, Note_on_c, 6, 39, 46
8, 39119, Note_on_c, 6, 39, 0
8, 39120, Note_on_c, 6, 39, 46
8, 39179, Note_on_c, 6, 39, 0
8, 39180, Note_on_c, 6, 39, 46
8, 39239, Note_on_c, 6, 39, 0
8, 39240, Note_on_c, 6, 39, 46
8, 39299, Note_on_c, 6, 39, 0
8, 39300, Note_on_c, 6, 39, 46
8, 39359, Note_on_c, 6, 39, 0
8, 39360, Note_on_c, 6, 39, 46
8, 39419, Note_on_c, 6, 39, 0
8, 39420, Note_on_c, 6, 39, 46
8, 39479, Note_on_c, 6, 39, 0
8, 39480, Note_on_c, 6, 39, 46
8, 39539, Note_on_c, 6, 39, 0
8, 39540, Note_on_c, 6, 39, 46
8, 39599, Note_on_c, 6, 39, 0
8, 39600, Note_on_c, 6, 39, 46
8, 39659, Note_on_c, 6, 39, 0
8, 39660, Note_on_c, 6, 39, 46
8, 39719, Note_on_c, 6, 39, 0
8, 39720, Note_on_c, 6, 39, 46
8, 39779, Note_on_c, 6, 39, 0
8, 39780, Note_on_c, 6, 39, 46
8, 39839, Note_on_c, 6, 39, 0
8, 39840, Note_on_c, 6, 39, 92
8, 39899, Note_on_c, 6, 39, 0
8, 39900, Note_on_c, 6, 39, 92
8, 39959, Note_on_c, 6, 39, 0
8, 39960, Note_on_c, 6, 39, 92
8, 40019, Note_on_c, 6, 39, 0
8, 40020, Note_on_c, 6, 39, 92
8, 40079, Note_on_c, 6, 39, 0
8, 40080, Note_on_c, 6, 39, 92
8, 40139, Note_on_c, 6, 39, 0
8, 40140, Note_on_c, 6, 39, 92
8, 40199, Note_on_c, 6, 39, 0
8, 40200, Note_on_c, 6, 39, 92
8, 40259, Note_on_c, 6, 39, 0
8, 40260, Note_on_c, 6, 39, 92
8, 40319, Note_on_c, 6, 39, 0
8, 40320, Note_on_c, 6, 39, 46
8, 40379, Note_on_c, 6, 39, 0
8, 40380, Note_on_c, 6, 39, 46
8, 40439, Note_on_c, 6, 39, 0
8, 40440, Note_on_c, 6, 39, 46
8, 40499, Note_on_c, 6, 39, 0
8, 40500, Note_on_c, 6, 39, 46
8, 40559, Note_on_c, 6, 39, 0
8, 40560, Note_on_c, 6, 39, 46
8, 40619, Note_on_c, 6, 39, 0
8, 40620, Note_on_c, 6, 39, 46
8, 40679, Note_on_c, 6, 39, 0
8, 40680, Note_on_c, 6, 39, 46
8, 40739, Note_on_c, 6, 39, 0
8, 40740, Note_on_c, 6, 39, 46
8, 40799, Note_on_c, 6, 39, 0
8, 40800, Note_on_c, 6, 39, 92
8, 40859, Note_on_c, 6, 39, 0
8, 40860, Note_on_c, 6, 39, 92
8, 40919, Note_on_c, 6, 39, 0
8, 40920, Note_on_c, 6, 39, 92
8, 40979, Note_on_c, 6, 39, 0
8, 40980, Note_on_c, 6, 39, 92
8, 41039, Note_on_c, 6, 39, 0
8, 41040, Note_on_c, 6, 39, 92
8, 41099, Note_on_c, 6, 39, 0
8, 41100, Note_on_c, 6, 39, 92
8, 41159, Note_on_c, 6, 39, 0
8, 41160, Note_on_c, 6, 39, 92
8, 41219, Note_on_c, 6, 39, 0
8, 41220, Note_on_c, 6, 39, 92
8, 41279, Note_on_c, 6, 39, 0
8, 41280, Note_on_c, 6, 39, 92
8, 41339, Note_on_c, 6, 39, 0
8, 41400, Note_on_c, 6, 46, 92
8, 41459, Note_on_c, 6, 46, 0
8, 41520, Note_on_c, 6, 43, 92
8, 41579, Note_on_c, 6, 43, 0
8, 41640, Note_on_c, 6, 39, 92
8, 41699, Note_on_c, 6, 39, 0
8, 41760, Note_on_c, 6, 46, 92
8, 41819, Note_on_c, 6, 46, 0
8, 41820, Note_on_c, 6, 46, 92
8, 41879, Note_on_c, 6, 46, 0
8, 41880, Note_on_c, 6, 45, 92
8, 41939, Note_on_c, 6, 45, 0
8, 41940, Note_on_c, 6, 46, 92
8, 41999, Note_on_c, 6, 46, 0
8, 42000, Note_on_c, 6, 41, 92
8, 42059, Note_on_c, 6, 41, 0
8, 42060, Note_on_c, 6, 46, 92
8, 42119, Note_on_c, 6, 46, 0
8, 42120, Note_on_c, 6, 38, 92
8, 42179, Note_on_c, 6, 38, 0
8, 42180, Note_on_c, 6, 41, 92
8, 42239, Note_on_c, 6, 41, 0
8, 42240, Note_on_c, 6, 34, 92
8, 42299, Note_on_c, 6, 34, 0
8, 42300, Note_on_c, 6, 46, 92
8, 42359, Note_on_c, 6, 46, 0
8, 42360, Note_on_c, 6, 41, 92
8, 42419, Note_on_c, 6, 41, 0
8, 42420, Note_on_c, 6, 38, 92
8, 42479, Note_on_c, 6, 38, 0
8, 42480, Note_on_c, 6, 34, 92
8, 42599, Note_on_c, 6, 34, 0
8, 43200, Note_on_c, 6, 46, 55
8, 43679, Note_on_c, 6, 46, 0
8, 43680, Note_on_c, 6, 46, 55
8, 43739, Note_on_c, 6, 46, 0
8, 43740, Note_on_c, 6, 46, 55
8, 43799, Note_on_c, 6, 46, 0
8, 43800, Note_on_c, 6, 45, 55
8, 43859, Note_on_c, 6, 45, 0
8, 43860, Note_on_c, 6, 43, 55
8, 43919, Note_on_c, 6, 43, 0
8, 43920, Note_on_c, 6, 41, 55
8, 43979, Note_on_c, 6, 41, 0
8, 43980, Note_on_c, 6, 39, 55
8, 44039, Note_on_c, 6, 39, 0
8, 44040, Note_on_c, 6, 38, 55
8, 44099, Note_on_c, 6, 38, 0
8, 44100, Note_on_c, 6, 36, 55
8, 44159, Note_on_c, 6, 36, 0
8, 44160, Note_on_c, 6, 34, 55
8, 44639, Note_on_c, 6, 34, 0
8, 44700, Note_on_c, 6, 46, 74
8, 44759, Note_on_c, 6, 46, 0
8, 44760, Note_on_c, 6, 45, 74
8, 44819, Note_on_c, 6, 45, 0
8, 44820, Note_on_c, 6, 43, 74
8, 44879, Note_on_c, 6, 43, 0
8, 44880, Note_on_c, 6, 41, 74
8, 44939, Note_on_c, 6, 41, 0
8, 44940, Note_on_c, 6, 39, 74
8, 44999, Note_on_c, 6, 39, 0
8, 45000, Note_on_c, 6, 38, 74
8, 45059, Note_on_c, 6, 38, 0
8, 45060, Note_on_c, 6, 36, 74
8, 45119, Note_on_c, 6, 36, 0
8, 45120, Note_on_c, 6, 34, 74
8, 45179, Note_on_c, 6, 34, 0
8, 45180, Note_on_c, 6, 46, 74
8, 45239, Note_on_c, 6, 46, 0
8, 45240, Note_on_c, 6, 45, 74
8, 45299, Note_on_c, 6, 45, 0
8, 45300, Note_on_c, 6, 43, 74
8, 45359, Note_on_c, 6, 43, 0
8, 45360, Note_on_c, 6, 41, 74
8, 45419, Note_on_c, 6, 41, 0
8, 45420, Note_on_c, 6, 39, 74
8, 45479, Note_on_c, 6, 39, 0
8, 45480, Note_on_c, 6, 38, 74
8, 45539, Note_on_c, 6, 38, 0
8, 45540, Note_on_c, 6, 36, 74
8, 45599, Note_on_c, 6, 36, 0
8, 45600, Note_on_c, 6, 34, 92
8, 45641, Note_on_c, 6, 34, 0
8, 45660, Note_on_c, 6, 46, 92
8, 45701, Note_on_c, 6, 46, 0
8, 45720, Note_on_c, 6, 45, 92
8, 45761, Note_on_c, 6, 45, 0
8, 45780, Note_on_c, 6, 46, 92
8, 45821, Note_on_c, 6, 46, 0
8, 45840, Note_on_c, 6, 41, 92
8, 45881, Note_on_c, 6, 41, 0
8, 45900, Note_on_c, 6, 46, 92
8, 45941, Note_on_c, 6, 46, 0
8, 45960, Note_on_c, 6, 38, 92
8, 46001, Note_on_c, 6, 38, 0
8, 46020, Note_on_c, 6, 46, 92
8, 46061, Note_on_c, 6, 46, 0
8, 46080, Note_on_c, 6, 39, 92
8, 46121, Note_on_c, 6, 39, 0
8, 46140, Note_on_c, 6, 46, 92
8, 46181, Note_on_c, 6, 46, 0
8, 46200, Note_on_c, 6, 45, 92
8, 46241, Note_on_c, 6, 45, 0
8, 46260, Note_on_c, 6, 46, 92
8, 46301, Note_on_c, 6, 46, 0
8, 46320, Note_on_c, 6, 43, 92
8, 46361, Note_on_c, 6, 43, 0
8, 46380, Note_on_c, 6, 46, 92
8, 46421, Note_on_c, 6, 46, 0
8, 46440, Note_on_c, 6, 39, 92
8, 46481, Note_on_c, 6, 39, 0
8, 46500, Note_on_c, 6, 43, 92
8, 46541, Note_on_c, 6, 43, 0
8, 46560, Note_on_c, 6, 34, 92
8, 46601, Note_on_c, 6, 34, 0
8, 46620, Note_on_c, 6, 46, 92
8, 46661, Note_on_c, 6, 46, 0
8, 46680, Note_on_c, 6, 45, 92
8, 46721, Note_on_c, 6, 45, 0
8, 46740, Note_on_c, 6, 46, 92
8, 46781, Note_on_c, 6, 46, 0
8, 46800, Note_on_c, 6, 41, 92
8, 46841, Note_on_c, 6, 41, 0
8, 46860, Note_on_c, 6, 46, 92
8, 46901, Note_on_c, 6, 46, 0
8, 46920, Note_on_c, 6, 38, 92
8, 46961, Note_on_c, 6, 38, 0
8, 46980, Note_on_c, 6, 41, 92
8, 47021, Note_on_c, 6, 41, 0
8, 47040, Note_on_c, 6, 39, 92
8, 47081, Note_on_c, 6, 39, 0
8, 47100, Note_on_c, 6, 39, 92
8, 47141, Note_on_c, 6, 39, 0
8, 47160, Note_on_c, 6, 39, 92
8, 47201, Note_on_c, 6, 39, 0
8, 47220, Note_on_c, 6, 39, 92
8, 47261, Note_on_c, 6, 39, 0
8, 47280, Note_on_c, 6, 41, 92
8, 47321, Note_on_c, 6, 41, 0
8, 47340, Note_on_c, 6, 41, 92
8, 47381, Note_on_c, 6, 41, 0
8, 47400, Note_on_c, 6, 29, 92
8, 47441, Note_on_c, 6, 29, 0
8, 47460, Note_on_c, 6, 29, 92
8, 47501, Note_on_c, 6, 29, 0
8, 47520, Note_on_c, 6, 34, 92
8, 47561, Note_on_c, 6, 34, 0
8, 47580, Note_on_c, 6, 46, 92
8, 47621, Note_on_c, 6, 46, 0
8, 47640, Note_on_c, 6, 45, 92
8, 47681, Note_on_c, 6, 45, 0
8, 47700, Note_on_c, 6, 46, 92
8, 47741, Note_on_c, 6, 46, 0
8, 47760, Note_on_c, 6, 41, 92
8, 47801, Note_on_c, 6, 41, 0
8, 47820, Note_on_c, 6, 46, 92
8, 47861, Note_on_c, 6, 46, 0
8, 47880, Note_on_c, 6, 38, 92
8, 47921, Note_on_c, 6, 38, 0
8, 47940, Note_on_c, 6, 46, 92
8, 47981, Note_on_c, 6, 46, 0
8, 48000, Note_on_c, 6, 39, 92
8, 48041, Note_on_c, 6, 39, 0
8, 48060, Note_on_c, 6, 46, 92
8, 48101, Note_on_c, 6, 46, 0
8, 48120, Note_on_c, 6, 45, 92
8, 48161, Note_on_c, 6, 45, 0
8, 48180, Note_on_c, 6, 46, 92
8, 48221, Note_on_c, 6, 46, 0
8, 48240, Note_on_c, 6, 43, 92
8, 48281, Note_on_c, 6, 43, 0
8, 48300, Note_on_c, 6, 46, 92
8, 48341, Note_on_c, 6, 46, 0
8, 48360, Note_on_c, 6, 39, 92
8, 48401, Note_on_c, 6, 39, 0
8, 48420, Note_on_c, 6, 43, 92
8, 48461, Note_on_c, 6, 43, 0
8, 48480, Note_on_c, 6, 34, 92
8, 48521, Note_on_c, 6, 34, 0
8, 48540, Note_on_c, 6, 46, 92
8, 48581, Note_on_c, 6, 46, 0
8, 48600, Note_on_c, 6, 45, 92
8, 48641, Note_on_c, 6, 45, 0
8, 48660, Note_on_c, 6, 46, 92
8, 48701, Note_on_c, 6, 46, 0
8, 48720, Note_on_c, 6, 41, 92
8, 48761, Note_on_c, 6, 41, 0
8, 48780, Note_on_c, 6, 46, 92
8, 48821, Note_on_c, 6, 46, 0
8, 48840, Note_on_c, 6, 38, 92
8, 48881, Note_on_c, 6, 38, 0
8, 48900, Note_on_c, 6, 46, 92
8, 48941, Note_on_c, 6, 46, 0
8, 48960, Note_on_c, 6, 39, 92
8, 49001, Note_on_c, 6, 39, 0
8, 49020, Note_on_c, 6, 39, 92
8, 49061, Note_on_c, 6, 39, 0
8, 49080, Note_on_c, 6, 39, 92
8, 49121, Note_on_c, 6, 39, 0
8, 49140, Note_on_c, 6, 39, 92
8, 49181, Note_on_c, 6, 39, 0
8, 49200, Note_on_c, 6, 41, 92
8, 49241, Note_on_c, 6, 41, 0
8, 49260, Note_on_c, 6, 41, 92
8, 49301, Note_on_c, 6, 41, 0
8, 49320, Note_on_c, 6, 29, 92
8, 49361, Note_on_c, 6, 29, 0
8, 49380, Note_on_c, 6, 29, 92
8, 49421, Note_on_c, 6, 29, 0
8, 49440, Note_on_c, 6, 34, 92
8, 49523, Note_on_c, 6, 34, 0
8, 49620, Note_on_c, 6, 34, 92
8, 49679, Note_on_c, 6, 34, 0
8, 49680, Note_on_c, 6, 36, 92
8, 49739, Note_on_c, 6, 36, 0
8, 49740, Note_on_c, 6, 38, 92
8, 49799, Note_on_c, 6, 38, 0
8, 49800, Note_on_c, 6, 39, 92
8, 49859, Note_on_c, 6, 39, 0
8, 49860, Note_on_c, 6, 41, 92
8, 49919, Note_on_c, 6, 41, 0
8, 49920, Note_on_c, 6, 43, 92
8, 49979, Note_on_c, 6, 43, 0
8, 49980, Note_on_c, 6, 45, 92
8, 50039, Note_on_c, 6, 45, 0
8, 50040, Note_on_c, 6, 46, 92
8, 50099, Note_on_c, 6, 46, 0
8, 50100, Note_on_c, 6, 38, 92
8, 50159, Note_on_c, 6, 38, 0
8, 50160, Note_on_c, 6, 39, 92
8, 50219, Note_on_c, 6, 39, 0
8, 50220, Note_on_c, 6, 41, 92
8, 50279, Note_on_c, 6, 41, 0
8, 50280, Note_on_c, 6, 43, 92
8, 50339, Note_on_c, 6, 43, 0
8, 50340, Note_on_c, 6, 45, 92
8, 50399, Note_on_c, 6, 45, 0
8, 50400, Note_on_c, 6, 46, 92
8, 50459, Note_on_c, 6, 46, 0
8, 50460, Note_on_c, 6, 48, 92
8, 50519, Note_on_c, 6, 48, 0
8, 50520, Note_on_c, 6, 50, 92
8, 50579, Note_on_c, 6, 50, 0
8, 50580, Note_on_c, 6, 41, 92
8, 50639, Note_on_c, 6, 41, 0
8, 50640, Note_on_c, 6, 43, 92
8, 50699, Note_on_c, 6, 43, 0
8, 50700, Note_on_c, 6, 45, 92
8, 50759, Note_on_c, 6, 45, 0
8, 50760, Note_on_c, 6, 46, 92
8, 50819, Note_on_c, 6, 46, 0
8, 50820, Note_on_c, 6, 48, 92
8, 50879, Note_on_c, 6, 48, 0
8, 50880, Note_on_c, 6, 50, 92
8, 50939, Note_on_c, 6, 50, 0
8, 50940, Note_on_c, 6, 51, 92
8, 50999, Note_on_c, 6, 51, 0
8, 51000, Note_on_c, 6, 53, 92
8, 51059, Note_on_c, 6, 53, 0
8, 51060, Note_on_c, 6, 38, 92
8, 51119, Note_on_c, 6, 38, 0
8, 51120, Note_on_c, 6, 39, 92
8, 51170, Note_on_c, 6, 39, 0
8, 51240, Note_on_c, 6, 41, 92
8, 51290, Note_on_c, 6, 41, 0
8, 51360, Note_on_c, 6, 34, 92
8, 51479, Note_on_c, 6, 34, 0
8, 51540, Note_on_c, 6, 34, 92
8, 51599, Note_on_c, 6, 34, 0
8, 51600, Note_on_c, 6, 36, 92
8, 51659, Note_on_c, 6, 36, 0
8, 51660, Note_on_c, 6, 38, 92
8, 51719, Note_on_c, 6, 38, 0
8, 51720, Note_on_c, 6, 39, 92
8, 51779, Note_on_c, 6, 39, 0
8, 51780, Note_on_c, 6, 41, 92
8, 51839, Note_on_c, 6, 41, 0
8, 51840, Note_on_c, 6, 43, 92
8, 51899, Note_on_c, 6, 43, 0
8, 51900, Note_on_c, 6, 45, 92
8, 51959, Note_on_c, 6, 45, 0
8, 51960, Note_on_c, 6, 46, 92
8, 52019, Note_on_c, 6, 46, 0
8, 52020, Note_on_c, 6, 38, 92
8, 52079, Note_on_c, 6, 38, 0
8, 52080, Note_on_c, 6, 39, 92
8, 52139, Note_on_c, 6, 39, 0
8, 52140, Note_on_c, 6, 41, 92
8, 52199, Note_on_c, 6, 41, 0
8, 52200, Note_on_c, 6, 43, 92
8, 52259, Note_on_c, 6, 43, 0
8, 52260, Note_on_c, 6, 45, 92
8, 52319, Note_on_c, 6, 45, 0
8, 52320, Note_on_c, 6, 46, 92
8, 52379, Note_on_c, 6, 46, 0
8, 52380, Note_on_c, 6, 48, 92
8, 52439, Note_on_c, 6, 48, 0
8, 52440, Note_on_c, 6, 50, 92
8, 52499, Note_on_c, 6, 50, 0
8, 52500, Note_on_c, 6, 41, 92
8, 52559, Note_on_c, 6, 41, 0
8, 52560, Note_on_c, 6, 43, 92
8, 52619, Note_on_c, 6, 43, 0
8, 52620, Note_on_c, 6, 45, 92
8, 52679, Note_on_c, 6, 45, 0
8, 52680, Note_on_c, 6, 46, 92
8, 52739, Note_on_c, 6, 46, 0
8, 52740, Note_on_c, 6, 48, 92
8, 52799, Note_on_c, 6, 48, 0
8, 52800, Note_on_c, 6, 50, 92
8, 52859, Note_on_c, 6, 50, 0
8, 52860, Note_on_c, 6, 51, 92
8, 52919, Note_on_c, 6, 51, 0
8, 52920, Note_on_c, 6, 53, 92
8, 52979, Note_on_c, 6, 53, 0
8, 52980, Note_on_c, 6, 38, 92
8, 53039, Note_on_c, 6, 38, 0
8, 53040, Note_on_c, 6, 39, 92
8, 53090, Note_on_c, 6, 39, 0
8, 53160, Note_on_c, 6, 41, 92
8, 53210, Note_on_c, 6, 41, 0
8, 53280, Note_on_c, 6, 34, 92
8, 53378, Note_on_c, 6, 34, 0
8, 53880, Note_on_c, 6, 39, 92
8, 53894, Note_on_c, 6, 39, 0
8, 53895, Note_on_c, 6, 38, 92
8, 53909, Note_on_c, 6, 38, 0
8, 53910, Note_on_c, 6, 39, 92
8, 53924, Note_on_c, 6, 39, 0
8, 53925, Note_on_c, 6, 38, 92
8, 53939, Note_on_c, 6, 38, 0
8, 53940, Note_on_c, 6, 39, 92
8, 53954, Note_on_c, 6, 39, 0
8, 53955, Note_on_c, 6, 38, 92
8, 53969, Note_on_c, 6, 38, 0
8, 53970, Note_on_c, 6, 36, 92
8, 53984, Note_on_c, 6, 36, 0
8, 53985, Note_on_c, 6, 38, 92
8, 53999, Note_on_c, 6, 38, 0
8, 54000, Note_on_c, 6, 39, 92
8, 54060, Note_on_c, 6, 39, 0
8, 54120, Note_on_c, 6, 41, 92
8, 54180, Note_on_c, 6, 41, 0
8, 54240, Note_on_c, 6, 43, 92
8, 54300, Note_on_c, 6, 43, 0
8, 54840, Note_on_c, 6, 39, 92
8, 54854, Note_on_c, 6, 39, 0
8, 54855, Note_on_c, 6, 38, 92
8, 54869, Note_on_c, 6, 38, 0
8, 54870, Note_on_c, 6, 39, 92
8, 54884, Note_on_c, 6, 39, 0
8, 54885, Note_on_c, 6, 38, 92
8, 54899, Note_on_c, 6, 38, 0
8, 54900, Note_on_c, 6, 39, 92
8, 54914, Note_on_c, 6, 39, 0
8, 54915, Note_on_c, 6, 38, 92
8, 54929, Note_on_c, 6, 38, 0
8, 54930, Note_on_c, 6, 36, 92
8, 54944, Note_on_c, 6, 36, 0
8, 54945, Note_on_c, 6, 38, 92
8, 54959, Note_on_c, 6, 38, 0
8, 54960, Note_on_c, 6, 39, 92
8, 55020, Note_on_c, 6, 39, 0
8, 55080, Note_on_c, 6, 41, 92
8, 55140, Note_on_c, 6, 41, 0
8, 55200, Note_on_c, 6, 34, 92
8, 55230, Note_on_c, 6, 34, 0
8, 55260, Note_on_c, 6, 46, 92
8, 55290, Note_on_c, 6, 46, 0
8, 55320, Note_on_c, 6, 45, 92
8, 55379, Note_on_c, 6, 45, 0
8, 55380, Note_on_c, 6, 46, 92
8, 55439, Note_on_c, 6, 46, 0
8, 55440, Note_on_c, 6, 41, 92
8, 55499, Note_on_c, 6, 41, 0
8, 55500, Note_on_c, 6, 46, 92
8, 55559, Note_on_c, 6, 46, 0
8, 55560, Note_on_c, 6, 38, 92
8, 55619, Note_on_c, 6, 38, 0
8, 55620, Note_on_c, 6, 41, 92
8, 55679, Note_on_c, 6, 41, 0
8, 55680, Note_on_c, 6, 34, 92
8, 55739, Note_on_c, 6, 34, 0
8, 55740, Note_on_c, 6, 46, 92
8, 55799, Note_on_c, 6, 46, 0
8, 55800, Note_on_c, 6, 41, 92
8, 55859, Note_on_c, 6, 41, 0
8, 55860, Note_on_c, 6, 38, 92
8, 55919, Note_on_c, 6, 38, 0
8, 55920, Note_on_c, 6, 34, 92
8, 56039, Note_on_c, 6, 34, 0
8, 56160, Note_on_c, 6, 34, 92
8, 56359, Note_on_c, 6, 34, 0
8, 56400, Note_on_c, 6, 38, 92
8, 56598, Note_on_c, 6, 38, 0
8, 56640, Note_on_c, 6, 41, 92
8, 56669, Note_on_c, 6, 41, 0
8, 56700, Note_on_c, 6, 41, 92
8, 56729, Note_on_c, 6, 41, 0
8, 56760, Note_on_c, 6, 41, 92
8, 56789, Note_on_c, 6, 41, 0
8, 56820, Note_on_c, 6, 41, 92
8, 56849, Note_on_c, 6, 41, 0
8, 56880, Note_on_c, 6, 41, 92
8, 56909, Note_on_c, 6, 41, 0
8, 56940, Note_on_c, 6, 41, 92
8, 56969, Note_on_c, 6, 41, 0
8, 57000, Note_on_c, 6, 41, 92
8, 57029, Note_on_c, 6, 41, 0
8, 57060, Note_on_c, 6, 41, 92
8, 57089, Note_on_c, 6, 41, 0
8, 57120, Note_on_c, 6, 38, 92
8, 57178, Note_on_c, 6, 38, 0
8, 57240, Note_on_c, 6, 34, 92
8, 57298, Note_on_c, 6, 34, 0
8, 57720, Note_on_c, 6, 34, 74
8, 57839, Note_on_c, 6, 34, 0
8, 57840, Note_on_c, 6, 34, 74
8, 57959, Note_on_c, 6, 34, 0
8, 57960, Note_on_c, 6, 34, 74
8, 58079, Note_on_c, 6, 34, 0
8, 58200, Note_on_c, 6, 39, 74
8, 58319, Note_on_c, 6, 39, 0
8, 58320, Note_on_c, 6, 39, 74
8, 58439, Note_on_c, 6, 39, 0
8, 58440, Note_on_c, 6, 39, 74
8, 58559, Note_on_c, 6, 39, 0
8, 58680, Note_on_c, 6, 41, 56
8, 58799, Note_on_c, 6, 41, 0
8, 58800, Note_on_c, 6, 41, 69
8, 58919, Note_on_c, 6, 41, 0
8, 58920, Note_on_c, 6, 41, 67
8, 59039, Note_on_c, 6, 41, 0
8, 59160, Note_on_c, 6, 34, 70
8, 59279, Note_on_c, 6, 34, 0
8, 59280, Note_on_c, 6, 34, 65
8, 59399, Note_on_c, 6, 34, 0
8, 59400, Note_on_c, 6, 34, 73
8, 59519, Note_on_c, 6, 34, 0
8, 59640, Note_on_c, 6, 38, 63
8, 59759, Note_on_c, 6, 38, 0
8, 59760, Note_on_c, 6, 38, 70
8, 59879, Note_on_c, 6, 38, 0
8, 59880, Note_on_c, 6, 38, 74
8, 59999, Note_on_c, 6, 38, 0
8, 60120, Note_on_c, 6, 39, 74
8, 60239, Note_on_c, 6, 39, 0
8, 60240, Note_on_c, 6, 39, 74
8, 60359, Note_on_c, 6, 39, 0
8, 60360, Note_on_c, 6, 39, 74
8, 60479, Note_on_c, 6, 39, 0
8, 60600, Note_on_c, 6, 41, 69
8, 60719, Note_on_c, 6, 41, 0
8, 60720, Note_on_c, 6, 41, 74
8, 60839, Note_on_c, 6, 41, 0
8, 60840, Note_on_c, 6, 41, 70
8, 60959, Note_on_c, 6, 41, 0
8, 60960, Note_on_c, 6, 34, 74
8, 61130, Note_on_c, 6, 34, 0
8, 61140, Note_on_c, 6, 44, 74
8, 61199, Note_on_c, 6, 44, 0
8, 61200, Note_on_c, 6, 43, 74
8, 61259, Note_on_c, 6, 43, 0
8, 61260, Note_on_c, 6, 41, 68
8, 61319, Note_on_c, 6, 41, 0
8, 61320, Note_on_c, 6, 39, 74
8, 61379, Note_on_c, 6, 39, 0
8, 61380, Note_on_c, 6, 38, 74
8, 61439, Note_on_c, 6, 38, 0
8, 61440, Note_on_c, 6, 36, 92
8, 61628, Note_on_c, 6, 36, 0
8, 61680, Note_on_c, 6, 39, 92
8, 61868, Note_on_c, 6, 39, 0
8, 61920, Note_on_c, 6, 43, 92
8, 61961, Note_on_c, 6, 43, 0
8, 61980, Note_on_c, 6, 43, 92
8, 62021, Note_on_c, 6, 43, 0
8, 62040, Note_on_c, 6, 43, 92
8, 62081, Note_on_c, 6, 43, 0
8, 62100, Note_on_c, 6, 43, 92
8, 62141, Note_on_c, 6, 43, 0
8, 62160, Note_on_c, 6, 43, 92
8, 62201, Note_on_c, 6, 43, 0
8, 62220, Note_on_c, 6, 43, 92
8, 62261, Note_on_c, 6, 43, 0
8, 62280, Note_on_c, 6, 43, 92
8, 62321, Note_on_c, 6, 43, 0
8, 62340, Note_on_c, 6, 43, 92
8, 62381, Note_on_c, 6, 43, 0
8, 62400, Note_on_c, 6, 39, 92
8, 62458, Note_on_c, 6, 39, 0
8, 62520, Note_on_c, 6, 36, 92
8, 62578, Note_on_c, 6, 36, 0
8, 63000, Note_on_c, 6, 36, 63
8, 63119, Note_on_c, 6, 36, 0
8, 63120, Note_on_c, 6, 36, 68
8, 63239, Note_on_c, 6, 36, 0
8, 63240, Note_on_c, 6, 36, 67
8, 63359, Note_on_c, 6, 36, 0
8, 63480, Note_on_c, 6, 41, 66
8, 63599, Note_on_c, 6, 41, 0
8, 63600, Note_on_c, 6, 41, 50
8, 63719, Note_on_c, 6, 41, 0
8, 63720, Note_on_c, 6, 41, 66
8, 63839, Note_on_c, 6, 41, 0
8, 63960, Note_on_c, 6, 43, 74
8, 64079, Note_on_c, 6, 43, 0
8, 64080, Note_on_c, 6, 43, 74
8, 64199, Note_on_c, 6, 43, 0
8, 64200, Note_on_c, 6, 43, 74
8, 64319, Note_on_c, 6, 43, 0
8, 64440, Note_on_c, 6, 36, 73
8, 64559, Note_on_c, 6, 36, 0
8, 64560, Note_on_c, 6, 36, 63
8, 64679, Note_on_c, 6, 36, 0
8, 64680, Note_on_c, 6, 36, 65
8, 64799, Note_on_c, 6, 36, 0
8, 64920, Note_on_c, 6, 39, 74
8, 65039, Note_on_c, 6, 39, 0
8, 65040, Note_on_c, 6, 39, 74
8, 65159, Note_on_c, 6, 39, 0
8, 65160, Note_on_c, 6, 39, 74
8, 65279, Note_on_c, 6, 39, 0
8, 65400, Note_on_c, 6, 41, 69
8, 65519, Note_on_c, 6, 41, 0
8, 65520, Note_on_c, 6, 41, 73
8, 65639, Note_on_c, 6, 41, 0
8, 65640, Note_on_c, 6, 41, 73
8, 65759, Note_on_c, 6, 41, 0
8, 65880, Note_on_c, 6, 43, 74
8, 65999, Note_on_c, 6, 43, 0
8, 66000, Note_on_c, 6, 43, 74
8, 66119, Note_on_c, 6, 43, 0
8, 66120, Note_on_c, 6, 43, 74
8, 66239, Note_on_c, 6, 43, 0
8, 66240, Note_on_c, 6, 36, 74
8, 66410, Note_on_c, 6, 36, 0
8, 66420, Note_on_c, 6, 44, 74
8, 66479, Note_on_c, 6, 44, 0
8, 66480, Note_on_c, 6, 43, 74
8, 66539, Note_on_c, 6, 43, 0
8, 66540, Note_on_c, 6, 41, 74
8, 66599, Note_on_c, 6, 41, 0
8, 66600, Note_on_c, 6, 39, 74
8, 66659, Note_on_c, 6, 39, 0
8, 66660, Note_on_c, 6, 38, 74
8, 66719, Note_on_c, 6, 38, 0
8, 66720, Note_on_c, 6, 36, 92
8, 66779, Note_on_c, 6, 36, 0
8, 66780, Note_on_c, 6, 36, 88
8, 66839, Note_on_c, 6, 36, 0
8, 66840, Note_on_c, 6, 36, 92
8, 66899, Note_on_c, 6, 36, 0
8, 66900, Note_on_c, 6, 36, 92
8, 66959, Note_on_c, 6, 36, 0
8, 66960, Note_on_c, 6, 36, 92
8, 67019, Note_on_c, 6, 36, 0
8, 67020, Note_on_c, 6, 36, 92
8, 67079, Note_on_c, 6, 36, 0
8, 67080, Note_on_c, 6, 36, 92
8, 67139, Note_on_c, 6, 36, 0
8, 67140, Note_on_c, 6, 36, 92
8, 67199, Note_on_c, 6, 36, 0
8, 67200, Note_on_c, 6, 36, 46
8, 67259, Note_on_c, 6, 36, 0
8, 67260, Note_on_c, 6, 36, 45
8, 67319, Note_on_c, 6, 36, 0
8, 67320, Note_on_c, 6, 36, 46
8, 67379, Note_on_c, 6, 36, 0
8, 67380, Note_on_c, 6, 36, 43
8, 67439, Note_on_c, 6, 36, 0
8, 67440, Note_on_c, 6, 36, 42
8, 67499, Note_on_c, 6, 36, 0
8, 67500, Note_on_c, 6, 36, 44
8, 67559, Note_on_c, 6, 36, 0
8, 67560, Note_on_c, 6, 36, 46
8, 67619, Note_on_c, 6, 36, 0
8, 67620, Note_on_c, 6, 36, 46
8, 67679, Note_on_c, 6, 36, 0
8, 67680, Note_on_c, 6, 36, 92
8, 67739, Note_on_c, 6, 36, 0
8, 67740, Note_on_c, 6, 36, 92
8, 67799, Note_on_c, 6, 36, 0
8, 67800, Note_on_c, 6, 36, 92
8, 67859, Note_on_c, 6, 36, 0
8, 67860, Note_on_c, 6, 36, 91
8, 67919, Note_on_c, 6, 36, 0
8, 67920, Note_on_c, 6, 36, 92
8, 67979, Note_on_c, 6, 36, 0
8, 67980, Note_on_c, 6, 36, 92
8, 68039, Note_on_c, 6, 36, 0
8, 68040, Note_on_c, 6, 36, 92
8, 68099, Note_on_c, 6, 36, 0
8, 68100, Note_on_c, 6, 36, 92
8, 68159, Note_on_c, 6, 36, 0
8, 68160, Note_on_c, 6, 36, 92
8, 68219, Note_on_c, 6, 36, 0
8, 68220, Note_on_c, 6, 36, 42
8, 68279, Note_on_c, 6, 36, 0
8, 68280, Note_on_c, 6, 36, 40
8, 68339, Note_on_c, 6, 36, 0
8, 68340, Note_on_c, 6, 36, 41
8, 68399, Note_on_c, 6, 36, 0
8, 68400, Note_on_c, 6, 36, 49
8, 68459, Note_on_c, 6, 36, 0
8, 68460, Note_on_c, 6, 36, 46
8, 68519, Note_on_c, 6, 36, 0
8, 68520, Note_on_c, 6, 36, 50
8, 68579, Note_on_c, 6, 36, 0
8, 68580, Note_on_c, 6, 36, 52
8, 68639, Note_on_c, 6, 36, 0
8, 68640, Note_on_c, 6, 34, 92
8, 68699, Note_on_c, 6, 34, 0
8, 68700, Note_on_c, 6, 34, 92
8, 68759, Note_on_c, 6, 34, 0
8, 68760, Note_on_c, 6, 34, 92
8, 68819, Note_on_c, 6, 34, 0
8, 68820, Note_on_c, 6, 34, 92
8, 68879, Note_on_c, 6, 34, 0
8, 68880, Note_on_c, 6, 34, 92
8, 68939, Note_on_c, 6, 34, 0
8, 68940, Note_on_c, 6, 34, 92
8, 68999, Note_on_c, 6, 34, 0
8, 69000, Note_on_c, 6, 34, 92
8, 69059, Note_on_c, 6, 34, 0
8, 69060, Note_on_c, 6, 34, 92
8, 69119, Note_on_c, 6, 34, 0
8, 69120, Note_on_c, 6, 34, 92
8, 69179, Note_on_c, 6, 34, 0
8, 69180, Note_on_c, 6, 34, 55
8, 69239, Note_on_c, 6, 34, 0
8, 69240, Note_on_c, 6, 34, 55
8, 69299, Note_on_c, 6, 34, 0
8, 69300, Note_on_c, 6, 34, 55
8, 69359, Note_on_c, 6, 34, 0
8, 69360, Note_on_c, 6, 34, 55
8, 69419, Note_on_c, 6, 34, 0
8, 69420, Note_on_c, 6, 34, 55
8, 69479, Note_on_c, 6, 34, 0
8, 69480, Note_on_c, 6, 34, 55
8, 69539, Note_on_c, 6, 34, 0
8, 69540, Note_on_c, 6, 34, 55
8, 69599, Note_on_c, 6, 34, 0
8, 69600, Note_on_c, 6, 34, 92
8, 69659, Note_on_c, 6, 34, 0
8, 69660, Note_on_c, 6, 34, 92
8, 69719, Note_on_c, 6, 34, 0
8, 69720, Note_on_c, 6, 34, 92
8, 69779, Note_on_c, 6, 34, 0
8, 69780, Note_on_c, 6, 34, 92
8, 69839, Note_on_c, 6, 34, 0
8, 69840, Note_on_c, 6, 34, 92
8, 69899, Note_on_c, 6, 34, 0
8, 69900, Note_on_c, 6, 34, 92
8, 69959, Note_on_c, 6, 34, 0
8, 69960, Note_on_c, 6, 34, 92
8, 70019, Note_on_c, 6, 34, 0
8, 70020, Note_on_c, 6, 34, 92
8, 70079, Note_on_c, 6, 34, 0
8, 70080, Note_on_c, 6, 34, 86
8, 70139, Note_on_c, 6, 34, 0
8, 70140, Note_on_c, 6, 34, 55
8, 70199, Note_on_c, 6, 34, 0
8, 70200, Note_on_c, 6, 34, 55
8, 70259, Note_on_c, 6, 34, 0
8, 70260, Note_on_c, 6, 34, 55
8, 70319, Note_on_c, 6, 34, 0
8, 70320, Note_on_c, 6, 34, 55
8, 70379, Note_on_c, 6, 34, 0
8, 70380, Note_on_c, 6, 34, 55
8, 70439, Note_on_c, 6, 34, 0
8, 70440, Note_on_c, 6, 34, 55
8, 70499, Note_on_c, 6, 34, 0
8, 70500, Note_on_c, 6, 34, 55
8, 70559, Note_on_c, 6, 34, 0
8, 70560, Note_on_c, 6, 33, 92
8, 70619, Note_on_c, 6, 33, 0
8, 70620, Note_on_c, 6, 33, 92
8, 70679, Note_on_c, 6, 33, 0
8, 70680, Note_on_c, 6, 33, 92
8, 70739, Note_on_c, 6, 33, 0
8, 70740, Note_on_c, 6, 33, 92
8, 70799, Note_on_c, 6, 33, 0
8, 70800, Note_on_c, 6, 33, 92
8, 70859, Note_on_c, 6, 33, 0
8, 70860, Note_on_c, 6, 33, 92
8, 70919, Note_on_c, 6, 33, 0
8, 70920, Note_on_c, 6, 33, 92
8, 70979, Note_on_c, 6, 33, 0
8, 70980, Note_on_c, 6, 33, 92
8, 71039, Note_on_c, 6, 33, 0
8, 71040, Note_on_c, 6, 33, 86
8, 71069, Note_on_c, 6, 33, 0
8, 71070, Note_on_c, 6, 33, 53
8, 71099, Note_on_c, 6, 33, 0
8, 71100, Note_on_c, 6, 33, 55
8, 71129, Note_on_c, 6, 33, 0
8, 71130, Note_on_c, 6, 33, 55
8, 71159, Note_on_c, 6, 33, 0
8, 71160, Note_on_c, 6, 33, 55
8, 71189, Note_on_c, 6, 33, 0
8, 71190, Note_on_c, 6, 33, 49
8, 71219, Note_on_c, 6, 33, 0
8, 71220, Note_on_c, 6, 33, 55
8, 71249, Note_on_c, 6, 33, 0
8, 71250, Note_on_c, 6, 33, 55
8, 71279, Note_on_c, 6, 33, 0
8, 71280, Note_on_c, 6, 33, 55
8, 71309, Note_on_c, 6, 33, 0
8, 71310, Note_on_c, 6, 33, 55
8, 71339, Note_on_c, 6, 33, 0
8, 71340, Note_on_c, 6, 33, 55
8, 71369, Note_on_c, 6, 33, 0
8, 71370, Note_on_c, 6, 33, 55
8, 71399, Note_on_c, 6, 33, 0
8, 71400, Note_on_c, 6, 33, 55
8, 71429, Note_on_c, 6, 33, 0
8, 71430, Note_on_c, 6, 33, 55
8, 71459, Note_on_c, 6, 33, 0
8, 71460, Note_on_c, 6, 33, 55
8, 71489, Note_on_c, 6, 33, 0
8, 71490, Note_on_c, 6, 33, 55
8, 71519, Note_on_c, 6, 33, 0
8, 71520, Note_on_c, 6, 34, 92
8, 71579, Note_on_c, 6, 34, 0
8, 71580, Note_on_c, 6, 46, 92
8, 71639, Note_on_c, 6, 46, 0
8, 71640, Note_on_c, 6, 45, 69
8, 71699, Note_on_c, 6, 45, 0
8, 71700, Note_on_c, 6, 46, 92
8, 71759, Note_on_c, 6, 46, 0
8, 71760, Note_on_c, 6, 41, 91
8, 71819, Note_on_c, 6, 41, 0
8, 71820, Note_on_c, 6, 46, 92
8, 71879, Note_on_c, 6, 46, 0
8, 71880, Note_on_c, 6, 38, 92
8, 71939, Note_on_c, 6, 38, 0
8, 71940, Note_on_c, 6, 41, 92
8, 71999, Note_on_c, 6, 41, 0
8, 72000, Note_on_c, 6, 34, 92
8, 72059, Note_on_c, 6, 34, 0
8, 72060, Note_on_c, 6, 46, 92
8, 72119, Note_on_c, 6, 46, 0
8, 72120, Note_on_c, 6, 41, 84
8, 72179, Note_on_c, 6, 41, 0
8, 72180, Note_on_c, 6, 38, 92
8, 72239, Note_on_c, 6, 38, 0
8, 72240, Note_on_c, 6, 34, 92
8, 72359, Note_on_c, 6, 34, 0
8, 72960, Note_on_c, 6, 51, 55
8, 73439, Note_on_c, 6, 51, 0
8, 73500, Note_on_c, 6, 51, 55
8, 73559, Note_on_c, 6, 51, 0
8, 73560, Note_on_c, 6, 50, 51
8, 73619, Note_on_c, 6, 50, 0
8, 73620, Note_on_c, 6, 48, 55
8, 73679, Note_on_c, 6, 48, 0
8, 73680, Note_on_c, 6, 46, 55
8, 73739, Note_on_c, 6, 46, 0
8, 73740, Note_on_c, 6, 44, 55
8, 73799, Note_on_c, 6, 44, 0
8, 73800, Note_on_c, 6, 43, 48
8, 73859, Note_on_c, 6, 43, 0
8, 73860, Note_on_c, 6, 41, 55
8, 73919, Note_on_c, 6, 41, 0
8, 73920, Note_on_c, 6, 39, 55
8, 74399, Note_on_c, 6, 39, 0
8, 74460, Note_on_c, 6, 51, 92
8, 74519, Note_on_c, 6, 51, 0
8, 74520, Note_on_c, 6, 50, 84
8, 74579, Note_on_c, 6, 50, 0
8, 74580, Note_on_c, 6, 48, 89
8, 74639, Note_on_c, 6, 48, 0
8, 74640, Note_on_c, 6, 46, 92
8, 74699, Note_on_c, 6, 46, 0
8, 74700, Note_on_c, 6, 44, 88
8, 74759, Note_on_c, 6, 44, 0
8, 74760, Note_on_c, 6, 43, 77
8, 74819, Note_on_c, 6, 43, 0
8, 74820, Note_on_c, 6, 41, 85
8, 74879, Note_on_c, 6, 41, 0
8, 74880, Note_on_c, 6, 39, 92
8, 74939, Note_on_c, 6, 39, 0
8, 74940, Note_on_c, 6, 51, 84
8, 74999, Note_on_c, 6, 51, 0
8, 75000, Note_on_c, 6, 50, 92
8, 75059, Note_on_c, 6, 50, 0
8, 75060, Note_on_c, 6, 48, 82
8, 75119, Note_on_c, 6, 48, 0
8, 75120, Note_on_c, 6, 46, 92
8, 75179, Note_on_c, 6, 46, 0
8, 75180, Note_on_c, 6, 44, 79
8, 75239, Note_on_c, 6, 44, 0
8, 75240, Note_on_c, 6, 43, 67
8, 75299, Note_on_c, 6, 43, 0
8, 75300, Note_on_c, 6, 41, 65
8, 75359, Note_on_c, 6, 41, 0
8, 75360, Note_on_c, 6, 39, 92
8, 75419, Note_on_c, 6, 39, 0
8, 75420, Note_on_c, 6, 51, 91
8, 75479, Note_on_c, 6, 51, 0
8, 75480, Note_on_c, 6, 50, 88
8, 75539, Note_on_c, 6, 50, 0
8, 75540, Note_on_c, 6, 51, 92
8, 75599, Note_on_c, 6, 51, 0
8, 75600, Note_on_c, 6, 46, 92
8, 75659, Note_on_c, 6, 46, 0
8, 75660, Note_on_c, 6, 51, 92
8, 75719, Note_on_c, 6, 51, 0
8, 75720, Note_on_c, 6, 43, 88
8, 75779, Note_on_c, 6, 43, 0
8, 75780, Note_on_c, 6, 51, 91
8, 75839, Note_on_c, 6, 51, 0
8, 75840, Note_on_c, 6, 44, 88
8, 75899, Note_on_c, 6, 44, 0
8, 75900, Note_on_c, 6, 51, 86
8, 75959, Note_on_c, 6, 51, 0
8, 75960, Note_on_c, 6, 50, 88
8, 76019, Note_on_c, 6, 50, 0
8, 76020, Note_on_c, 6, 51, 92
8, 76079, Note_on_c, 6, 51, 0
8, 76080, Note_on_c, 6, 48, 88
8, 76139, Note_on_c, 6, 48, 0
8, 76140, Note_on_c, 6, 51, 86
8, 76199, Note_on_c, 6, 51, 0
8, 76200, Note_on_c, 6, 44, 88
8, 76259, Note_on_c, 6, 44, 0
8, 76260, Note_on_c, 6, 51, 79
8, 76319, Note_on_c, 6, 51, 0
8, 76320, Note_on_c, 6, 43, 74
8, 76379, Note_on_c, 6, 43, 0
8, 76380, Note_on_c, 6, 51, 92
8, 76439, Note_on_c, 6, 51, 0
8, 76440, Note_on_c, 6, 50, 84
8, 76499, Note_on_c, 6, 50, 0
8, 76500, Note_on_c, 6, 51, 77
8, 76559, Note_on_c, 6, 51, 0
8, 76560, Note_on_c, 6, 46, 91
8, 76619, Note_on_c, 6, 46, 0
8, 76620, Note_on_c, 6, 51, 81
8, 76679, Note_on_c, 6, 51, 0
8, 76680, Note_on_c, 6, 43, 75
8, 76739, Note_on_c, 6, 43, 0
8, 76740, Note_on_c, 6, 51, 85
8, 76799, Note_on_c, 6, 51, 0
8, 76800, Note_on_c, 6, 44, 91
8, 76859, Note_on_c, 6, 44, 0
8, 76860, Note_on_c, 6, 44, 92
8, 76919, Note_on_c, 6, 44, 0
8, 76920, Note_on_c, 6, 44, 92
8, 76979, Note_on_c, 6, 44, 0
8, 76980, Note_on_c, 6, 44, 86
8, 77039, Note_on_c, 6, 44, 0
8, 77040, Note_on_c, 6, 46, 92
8, 77099, Note_on_c, 6, 46, 0
8, 77100, Note_on_c, 6, 46, 92
8, 77159, Note_on_c, 6, 46, 0
8, 77160, Note_on_c, 6, 34, 92
8, 77219, Note_on_c, 6, 34, 0
8, 77220, Note_on_c, 6, 34, 92
8, 77279, Note_on_c, 6, 34, 0
8, 77280, Note_on_c, 6, 39, 92
8, 77339, Note_on_c, 6, 39, 0
8, 77340, Note_on_c, 6, 51, 92
8, 77399, Note_on_c, 6, 51, 0
8, 77400, Note_on_c, 6, 50, 85
8, 77459, Note_on_c, 6, 50, 0
8, 77460, Note_on_c, 6, 51, 92
8, 77519, Note_on_c, 6, 51, 0
8, 77520, Note_on_c, 6, 46, 89
8, 77579, Note_on_c, 6, 46, 0
8, 77580, Note_on_c, 6, 51, 92
8, 77639, Note_on_c, 6, 51, 0
8, 77640, Note_on_c, 6, 43, 77
8, 77699, Note_on_c, 6, 43, 0
8, 77700, Note_on_c, 6, 51, 91
8, 77759, Note_on_c, 6, 51, 0
8, 77760, Note_on_c, 6, 44, 92
8, 77819, Note_on_c, 6, 44, 0
8, 77820, Note_on_c, 6, 51, 92
8, 77879, Note_on_c, 6, 51, 0
8, 77880, Note_on_c, 6, 50, 77
8, 77939, Note_on_c, 6, 50, 0
8, 77940, Note_on_c, 6, 51, 92
8, 77999, Note_on_c, 6, 51, 0
8, 78000, Note_on_c, 6, 48, 77
8, 78059, Note_on_c, 6, 48, 0
8, 78060, Note_on_c, 6, 51, 92
8, 78119, Note_on_c, 6, 51, 0
8, 78120, Note_on_c, 6, 44, 86
8, 78179, Note_on_c, 6, 44, 0
8, 78180, Note_on_c, 6, 51, 81
8, 78239, Note_on_c, 6, 51, 0
8, 78240, Note_on_c, 6, 43, 79
8, 78299, Note_on_c, 6, 43, 0
8, 78300, Note_on_c, 6, 51, 91
8, 78359, Note_on_c, 6, 51, 0
8, 78360, Note_on_c, 6, 50, 88
8, 78419, Note_on_c, 6, 50, 0
8, 78420, Note_on_c, 6, 51, 81
8, 78479, Note_on_c, 6, 51, 0
8, 78480, Note_on_c, 6, 46, 85
8, 78539, Note_on_c, 6, 46, 0
8, 78540, Note_on_c, 6, 51, 74
8, 78599, Note_on_c, 6, 51, 0
8, 78600, Note_on_c, 6, 43, 77
8, 78659, Note_on_c, 6, 43, 0
8, 78660, Note_on_c, 6, 51, 68
8, 78719, Note_on_c, 6, 51, 0
8, 78720, Note_on_c, 6, 44, 92
8, 78779, Note_on_c, 6, 44, 0
8, 78780, Note_on_c, 6, 44, 92
8, 78839, Note_on_c, 6, 44, 0
8, 78840, Note_on_c, 6, 44, 92
8, 78899, Note_on_c, 6, 44, 0
8, 78900, Note_on_c, 6, 44, 92
8, 78959, Note_on_c, 6, 44, 0
8, 78960, Note_on_c, 6, 46, 92
8, 79019, Note_on_c, 6, 46, 0
8, 79020, Note_on_c, 6, 46, 92
8, 79079, Note_on_c, 6, 46, 0
8, 79080, Note_on_c, 6, 34, 92
8, 79139, Note_on_c, 6, 34, 0
8, 79140, Note_on_c, 6, 34, 92
8, 79199, Note_on_c, 6, 34, 0
8, 79200, Note_on_c, 6, 39, 92
8, 79319, Note_on_c, 6, 39, 0
8, 79380, Note_on_c, 6, 31, 89
8, 79439, Note_on_c, 6, 31, 0
8, 79440, Note_on_c, 6, 32, 92
8, 79499, Note_on_c, 6, 32, 0
8, 79500, Note_on_c, 6, 34, 92
8, 79559, Note_on_c, 6, 34, 0
8, 79560, Note_on_c, 6, 36, 62
8, 79619, Note_on_c, 6, 36, 0
8, 79620, Note_on_c, 6, 38, 92
8, 79679, Note_on_c, 6, 38, 0
8, 79680, Note_on_c, 6, 39, 92
8, 79739, Note_on_c, 6, 39, 0
8, 79740, Note_on_c, 6, 41, 88
8, 79799, Note_on_c, 6, 41, 0
8, 79800, Note_on_c, 6, 43, 91
8, 79859, Note_on_c, 6, 43, 0
8, 79860, Note_on_c, 6, 34, 91
8, 79919, Note_on_c, 6, 34, 0
8, 79920, Note_on_c, 6, 36, 75
8, 79979, Note_on_c, 6, 36, 0
8, 79980, Note_on_c, 6, 38, 92
8, 80039, Note_on_c, 6, 38, 0
8, 80040, Note_on_c, 6, 39, 92
8, 80099, Note_on_c, 6, 39, 0
8, 80100, Note_on_c, 6, 41, 88
8, 80159, Note_on_c, 6, 41, 0
8, 80160, Note_on_c, 6, 43, 92
8, 80219, Note_on_c, 6, 43, 0
8, 80220, Note_on_c, 6, 44, 92
8, 80279, Note_on_c, 6, 44, 0
8, 80280, Note_on_c, 6, 46, 92
8, 80339, Note_on_c, 6, 46, 0
8, 80340, Note_on_c, 6, 39, 92
8, 80399, Note_on_c, 6, 39, 0
8, 80400, Note_on_c, 6, 41, 77
8, 80459, Note_on_c, 6, 41, 0
8, 80460, Note_on_c, 6, 43, 84
8, 80519, Note_on_c, 6, 43, 0
8, 80520, Note_on_c, 6, 44, 91
8, 80579, Note_on_c, 6, 44, 0
8, 80580, Note_on_c, 6, 46, 92
8, 80639, Note_on_c, 6, 46, 0
8, 80640, Note_on_c, 6, 48, 56
8, 80699, Note_on_c, 6, 48, 0
8, 80700, Note_on_c, 6, 50, 89
8, 80759, Note_on_c, 6, 50, 0
8, 80760, Note_on_c, 6, 51, 92
8, 80819, Note_on_c, 6, 51, 0
8, 80820, Note_on_c, 6, 43, 79
8, 80879, Note_on_c, 6, 43, 0
8, 80880, Note_on_c, 6, 44, 92
8, 80940, Note_on_c, 6, 44, 0
8, 81000, Note_on_c, 6, 46, 92
8, 81060, Note_on_c, 6, 46, 0
8, 81120, Note_on_c, 6, 39, 92
8, 81180, Note_on_c, 6, 39, 0
8, 81300, Note_on_c, 6, 31, 92
8, 81359, Note_on_c, 6, 31, 0
8, 81360, Note_on_c, 6, 32, 91
8, 81419, Note_on_c, 6, 32, 0
8, 81420, Note_on_c, 6, 34, 92
8, 81479, Note_on_c, 6, 34, 0
8, 81480, Note_on_c, 6, 36, 92
8, 81539, Note_on_c, 6, 36, 0
8, 81540, Note_on_c, 6, 38, 92
8, 81599, Note_on_c, 6, 38, 0
8, 81600, Note_on_c, 6, 39, 92
8, 81659, Note_on_c, 6, 39, 0
8, 81660, Note_on_c, 6, 41, 92
8, 81719, Note_on_c, 6, 41, 0
8, 81720, Note_on_c, 6, 43, 89
8, 81779, Note_on_c, 6, 43, 0
8, 81780, Note_on_c, 6, 34, 92
8, 81839, Note_on_c, 6, 34, 0
8, 81840, Note_on_c, 6, 36, 91
8, 81899, Note_on_c, 6, 36, 0
8, 81900, Note_on_c, 6, 38, 92
8, 81959, Note_on_c, 6, 38, 0
8, 81960, Note_on_c, 6, 39, 92
8, 82019, Note_on_c, 6, 39, 0
8, 82020, Note_on_c, 6, 41, 92
8, 82079, Note_on_c, 6, 41, 0
8, 82080, Note_on_c, 6, 43, 81
8, 82139, Note_on_c, 6, 43, 0
8, 82140, Note_on_c, 6, 44, 92
8, 82199, Note_on_c, 6, 44, 0
8, 82200, Note_on_c, 6, 46, 88
8, 82259, Note_on_c, 6, 46, 0
8, 82260, Note_on_c, 6, 39, 92
8, 82319, Note_on_c, 6, 39, 0
8, 82320, Note_on_c, 6, 41, 92
8, 82379, Note_on_c, 6, 41, 0
8, 82380, Note_on_c, 6, 43, 86
8, 82439, Note_on_c, 6, 43, 0
8, 82440, Note_on_c, 6, 44, 92
8, 82499, Note_on_c, 6, 44, 0
8, 82500, Note_on_c, 6, 46, 92
8, 82559, Note_on_c, 6, 46, 0
8, 82560, Note_on_c, 6, 48, 92
8, 82619, Note_on_c, 6, 48, 0
8, 82620, Note_on_c, 6, 50, 38
8, 82679, Note_on_c, 6, 50, 0
8, 82680, Note_on_c, 6, 51, 92
8, 82739, Note_on_c, 6, 51, 0
8, 82740, Note_on_c, 6, 31, 92
8, 82799, Note_on_c, 6, 31, 0
8, 82800, Note_on_c, 6, 32, 92
8, 82860, Note_on_c, 6, 32, 0
8, 82920, Note_on_c, 6, 34, 92
8, 82980, Note_on_c, 6, 34, 0
8, 83040, Note_on_c, 6, 39, 92
8, 83080, Note_on_c, 6, 39, 0
8, 83640, Note_on_c, 6, 44, 92
8, 83654, Note_on_c, 6, 44, 0
8, 83655, Note_on_c, 6, 43, 84
8, 83669, Note_on_c, 6, 43, 0
8, 83670, Note_on_c, 6, 44, 92
8, 83684, Note_on_c, 6, 44, 0
8, 83685, Note_on_c, 6, 43, 86
8, 83699, Note_on_c, 6, 43, 0
8, 83700, Note_on_c, 6, 44, 92
8, 83714, Note_on_c, 6, 44, 0
8, 83715, Note_on_c, 6, 43, 88
8, 83729, Note_on_c, 6, 43, 0
8, 83730, Note_on_c, 6, 41, 92
8, 83744, Note_on_c, 6, 41, 0
8, 83745, Note_on_c, 6, 43, 92
8, 83759, Note_on_c, 6, 43, 0
8, 83760, Note_on_c, 6, 44, 92
8, 83820, Note_on_c, 6, 44, 0
8, 83880, Note_on_c, 6, 46, 92
8, 83940, Note_on_c, 6, 46, 0
8, 84000, Note_on_c, 6, 48, 92
8, 84059, Note_on_c, 6, 48, 0
8, 84600, Note_on_c, 6, 44, 92
8, 84614, Note_on_c, 6, 44, 0
8, 84615, Note_on_c, 6, 43, 88
8, 84629, Note_on_c, 6, 43, 0
8, 84630, Note_on_c, 6, 44, 92
8, 84644, Note_on_c, 6, 44, 0
8, 84645, Note_on_c, 6, 43, 86
8, 84659, Note_on_c, 6, 43, 0
8, 84660, Note_on_c, 6, 44, 92
8, 84674, Note_on_c, 6, 44, 0
8, 84675, Note_on_c, 6, 43, 89
8, 84689, Note_on_c, 6, 43, 0
8, 84690, Note_on_c, 6, 41, 86
8, 84704, Note_on_c, 6, 41, 0
8, 84705, Note_on_c, 6, 43, 82
8, 84719, Note_on_c, 6, 43, 0
8, 84720, Note_on_c, 6, 44, 92
8, 84780, Note_on_c, 6, 44, 0
8, 84840, Note_on_c, 6, 46, 92
8, 84900, Note_on_c, 6, 46, 0
8, 84960, Note_on_c, 6, 39, 92
8, 84990, Note_on_c, 6, 39, 0
8, 85020, Note_on_c, 6, 51, 92
8, 85079, Note_on_c, 6, 51, 0
8, 85080, Note_on_c, 6, 50, 91
8, 85139, Note_on_c, 6, 50, 0
8, 85140, Note_on_c, 6, 51, 92
8, 85199, Note_on_c, 6, 51, 0
8, 85200, Note_on_c, 6, 46, 92
8, 85259, Note_on_c, 6, 46, 0
8, 85260, Note_on_c, 6, 51, 92
8, 85319, Note_on_c, 6, 51, 0
8, 85320, Note_on_c, 6, 43, 88
8, 85379, Note_on_c, 6, 43, 0
8, 85380, Note_on_c, 6, 46, 70
8, 85439, Note_on_c, 6, 46, 0
8, 85440, Note_on_c, 6, 39, 92
8, 85499, Note_on_c, 6, 39, 0
8, 85500, Note_on_c, 6, 51, 92
8, 85559, Note_on_c, 6, 51, 0
8, 85560, Note_on_c, 6, 46, 92
8, 85619, Note_on_c, 6, 46, 0
8, 85620, Note_on_c, 6, 43, 81
8, 85679, Note_on_c, 6, 43, 0
8, 85680, Note_on_c, 6, 39, 92
8, 85799, Note_on_c, 6, 39, 0
8, 85799, End_track
9, 0, Start_track
9, 0, MIDI_port, 0
9, 0, Title_t, "Mozart Sym #1, 1st mov.  K16"
9, 0, End_track
10, 0, Start_track
10, 0, MIDI_port, 0
10, 0, Title_t, "Sequenced by Shane Ellis"
10, 0, End_track
11, 0, Start_track
11, 0, MIDI_port, 0
11, 0, Title_t, "AOL - SSELLIS"
11, 0, End_track
0, 0, End_of_file
