0, 0, Header, 1, 27, 480
1, 0, Start_track
1, 0, Sequencer_specific, 3, 0, 0, 65
1, 0, Time_signature, 4, 2, 24, 8
1, 0, Key_signature, -1, "major"
1, 0, Tempo, 1153846
1, 0, Marker_t, "elvira.mid"
1, 480, Tempo, 1132075
1, 960, Tempo, 1111111
1, 1440, Tempo, 1132075
1, 1920, Tempo, 1071428
1, 2400, Tempo, 1016949
1, 2880, Tempo, 1034482
1, 3360, Tempo, 1034482
1, 3840, Tempo, 1071428
1, 4320, Tempo, 1090909
1, 4800, Tempo, 1090909
1, 5280, Tempo, 1034482
1, 5760, Tempo, 1090909
1, 6240, Tempo, 1034482
1, 6720, Tempo, 1090909
1, 7200, Tempo, 1071428
1, 7680, Tempo, 1132075
1, 8160, Tempo, 1111111
1, 8640, Tempo, 1052631
1, 9120, Tempo, 1052631
1, 9600, Tempo, 1132075
1, 10080, Tempo, 1111111
1, 10560, Tempo, 1034482
1, 11040, Tempo, 1016949
1, 11520, Tempo, 1034482
1, 12000, Tempo, 1111111
1, 12480, Tempo, 1111111
1, 12960, Tempo, 1090909
1, 13440, Tempo, 1111111
1, 13920, Tempo, 1111111
1, 14400, Tempo, 1132075
1, 14880, Tempo, 1111111
1, 15360, Tempo, 1153846
1, 15840, Tempo, 1176470
1, 16320, Tempo, 1132075
1, 16800, Tempo, 1176470
1, 17280, Tempo, 1090909
1, 17760, Tempo, 1132075
1, 18240, Tempo, 1090909
1, 18720, Tempo, 1052631
1, 19200, Tempo, 1111111
1, 19680, Tempo, 1111111
1, 20160, Tempo, 1132075
1, 20640, Tempo, 1132075
1, 21120, Tempo, 1111111
1, 21600, Tempo, 1176470
1, 22080, Tempo, 1111111
1, 22560, Tempo, 1132075
1, 23040, Tempo, 1153846
1, 23520, Tempo, 1153846
1, 24000, Tempo, 1224489
1, 24480, Tempo, 1153846
1, 24960, Tempo, 1153846
1, 25440, Tempo, 1153846
1, 25920, Tempo, 1153846
1, 26400, Tempo, 1176470
1, 26880, Tempo, 1111111
1, 27360, Tempo, 1200000
1, 27840, Tempo, 1200000
1, 28320, Tempo, 1153846
1, 28800, Tempo, 1200000
1, 29280, Tempo, 1176470
1, 29760, Tempo, 1200000
1, 30240, Tempo, 1224489
1, 30720, Tempo, 1132075
1, 31200, Tempo, 1132075
1, 31680, Tempo, 1132075
1, 32160, Tempo, 1176470
1, 32640, Tempo, 1200000
1, 33120, Tempo, 1200000
1, 33600, Tempo, 1153846
1, 34080, Tempo, 1176470
1, 34560, Tempo, 1250000
1, 35040, Tempo, 1153846
1, 35520, Tempo, 1132075
1, 36000, Tempo, 1090909
1, 36480, Tempo, 1224489
1, 36960, Tempo, 1224489
1, 37440, Tempo, 1176470
1, 37920, Tempo, 1153846
1, 38400, Tempo, 1132075
1, 38880, Tempo, 1153846
1, 39360, Tempo, 1176470
1, 39840, Tempo, 1200000
1, 40320, Tempo, 1111111
1, 40800, Tempo, 1090909
1, 41280, Tempo, 1071428
1, 41760, Tempo, 1153846
1, 42240, Tempo, 1111111
1, 42720, Tempo, 1090909
1, 43200, Tempo, 1111111
1, 43680, Tempo, 1153846
1, 44160, Tempo, 1090909
1, 44640, Tempo, 1090909
1, 45120, Tempo, 1090909
1, 45600, Tempo, 1052631
1, 46080, Tempo, 1034482
1, 46560, Tempo, 1052631
1, 47040, Tempo, 1071428
1, 47520, Tempo, 1071428
1, 48000, Tempo, 1090909
1, 48480, Tempo, 1090909
1, 48960, Tempo, 1071428
1, 49440, Tempo, 1052631
1, 49920, Tempo, 1090909
1, 50400, Tempo, 1052631
1, 50880, Tempo, 1090909
1, 51360, Tempo, 1111111
1, 51840, Tempo, 1071428
1, 52320, Tempo, 1034482
1, 52800, Tempo, 1016949
1, 53280, Tempo, 1016949
1, 53760, Tempo, 1034482
1, 54240, Tempo, 1090909
1, 54720, Tempo, 1052631
1, 55200, Tempo, 1052631
1, 55680, Tempo, 1090909
1, 56160, Tempo, 1052631
1, 56640, Tempo, 1052631
1, 57120, Tempo, 1034482
1, 57600, Tempo, 1090909
1, 58080, Tempo, 1071428
1, 58560, Tempo, 1111111
1, 59040, Tempo, 1111111
1, 59520, Tempo, 1111111
1, 60000, Tempo, 1071428
1, 60480, Tempo, 1052631
1, 60960, Tempo, 1052631
1, 61440, Tempo, 1071428
1, 61920, Tempo, 1034482
1, 62400, Tempo, 1052631
1, 62880, Tempo, 937500
1, 63360, Tempo, 983606
1, 63840, Tempo, 967741
1, 64320, Tempo, 1016949
1, 64800, Tempo, 1200000
1, 65280, Tempo, 1111111
1, 65760, Tempo, 1000000
1, 66240, Tempo, 1052631
1, 66720, Tempo, 1071428
1, 67200, Tempo, 1052631
1, 67680, Tempo, 1000000
1, 68160, Tempo, 1071428
1, 68640, Tempo, 1090909
1, 69120, Tempo, 1034482
1, 69600, Tempo, 1016949
1, 70080, Tempo, 967741
1, 70560, Tempo, 1016949
1, 71040, Tempo, 937500
1, 71520, Tempo, 1034482
1, 72000, Tempo, 1034482
1, 72480, Tempo, 1000000
1, 72960, Tempo, 1000000
1, 73440, Tempo, 1052631
1, 73920, Tempo, 967741
1, 74400, Tempo, 952380
1, 74880, Tempo, 983606
1, 75360, Tempo, 1016949
1, 75840, Tempo, 1052631
1, 76320, Tempo, 1016949
1, 76800, Tempo, 1000000
1, 77280, Tempo, 1034482
1, 77760, Tempo, 1052631
1, 78240, Tempo, 1016949
1, 78720, Tempo, 1052631
1, 79200, Tempo, 1090909
1, 79680, Tempo, 1016949
1, 80160, Tempo, 937500
1, 80640, Tempo, 1016949
1, 81120, Tempo, 1000000
1, 81600, Tempo, 1000000
1, 82080, Tempo, 1071428
1, 82560, Tempo, 1052631
1, 83040, Tempo, 1090909
1, 83520, Tempo, 1052631
1, 84000, Tempo, 1000000
1, 84480, Tempo, 1052631
1, 84960, Tempo, 1071428
1, 85440, Tempo, 1016949
1, 85920, Tempo, 1034482
1, 86400, Tempo, 1052631
1, 86880, Tempo, 1052631
1, 87360, Tempo, 1034482
1, 87840, Tempo, 1111111
1, 88320, Tempo, 1000000
1, 88800, Tempo, 1090909
1, 89280, Tempo, 1000000
1, 89760, Tempo, 1052631
1, 90240, Tempo, 1090909
1, 90720, Tempo, 1071428
1, 91200, Tempo, 1034482
1, 91680, Tempo, 1052631
1, 92160, Tempo, 1090909
1, 92640, Tempo, 1052631
1, 93120, Tempo, 1016949
1, 93600, Tempo, 1132075
1, 94080, Tempo, 1111111
1, 94560, Tempo, 1071428
1, 95040, Tempo, 1071428
1, 95520, Tempo, 1090909
1, 96000, Tempo, 1071428
1, 96480, Tempo, 1090909
1, 96960, Tempo, 1052631
1, 97440, Tempo, 1111111
1, 97920, Tempo, 1111111
1, 98400, Tempo, 1111111
1, 98880, Tempo, 1071428
1, 99360, Tempo, 1090909
1, 99840, Tempo, 1090909
1, 100320, Tempo, 1052631
1, 100800, Tempo, 1052631
1, 101280, Tempo, 1111111
1, 101760, Tempo, 1111111
1, 102240, Tempo, 1111111
1, 102720, Tempo, 1200000
1, 102960, Tempo, 1395348
1, 103200, Tempo, 1538461
1, 103440, Tempo, 1875000
1, 103680, Tempo, 1875000
1, 103680, End_track
2, 0, Start_track
2, 0, MIDI_port, 0
2, 0, Title_t, "Violin I"
2, 0, Program_c, 1, 48
2, 0, Control_c, 1, 7, 105
2, 0, Control_c, 1, 10, 42
2, 0, Pitch_bend_c, 1, 8192
2, 0, Control_c, 1, 93, 0
2, 0, Control_c, 1, 64, 0
2, 0, Control_c, 1, 91, 120
2, 1920, Note_on_c, 1, 77, 75
2, 2760, Note_on_c, 1, 77, 0
2, 2760, Note_on_c, 1, 72, 69
2, 2853, Note_on_c, 1, 72, 0
2, 2880, Note_on_c, 1, 81, 77
2, 3720, Note_on_c, 1, 81, 0
2, 3720, Note_on_c, 1, 77, 66
2, 3814, Note_on_c, 1, 77, 0
2, 3840, Note_on_c, 1, 84, 71
2, 5280, Note_on_c, 1, 82, 65
2, 5316, Note_on_c, 1, 84, 0
2, 5393, Note_on_c, 1, 82, 0
2, 5400, Note_on_c, 1, 81, 75
2, 5520, Note_on_c, 1, 79, 71
2, 5526, Note_on_c, 1, 81, 0
2, 5633, Note_on_c, 1, 79, 0
2, 5640, Note_on_c, 1, 77, 71
2, 5760, Note_on_c, 1, 78, 75
2, 5815, Note_on_c, 1, 77, 0
2, 6240, Note_on_c, 1, 79, 67
2, 6262, Note_on_c, 1, 78, 0
2, 6803, Note_on_c, 1, 79, 0
2, 7680, Note_on_c, 1, 72, 75
2, 8640, Note_on_c, 1, 76, 65
2, 8667, Note_on_c, 1, 72, 0
2, 9120, Note_on_c, 1, 79, 71
2, 9150, Note_on_c, 1, 76, 0
2, 9600, Note_on_c, 1, 82, 75
2, 9601, Note_on_c, 1, 79, 0
2, 10800, Note_on_c, 1, 86, 69
2, 10835, Note_on_c, 1, 82, 0
2, 11040, Note_on_c, 1, 84, 63
2, 11048, Note_on_c, 1, 86, 0
2, 11280, Note_on_c, 1, 82, 70
2, 11298, Note_on_c, 1, 84, 0
2, 11520, Note_on_c, 1, 80, 69
2, 11523, Note_on_c, 1, 82, 0
2, 11760, Note_on_c, 1, 81, 70
2, 11804, Note_on_c, 1, 80, 0
2, 11927, Note_on_c, 1, 81, 0
2, 12000, Note_on_c, 1, 81, 63
2, 12538, Note_on_c, 1, 81, 0
2, 13440, Note_on_c, 1, 84, 99
2, 14400, Note_on_c, 1, 57, 83
2, 14403, Note_on_c, 1, 84, 0
2, 15069, Note_on_c, 1, 57, 0
2, 15120, Note_on_c, 1, 57, 71
2, 15351, Note_on_c, 1, 57, 0
2, 15360, Note_on_c, 1, 60, 69
2, 15600, Note_on_c, 1, 58, 63
2, 15649, Note_on_c, 1, 60, 0
2, 15776, Note_on_c, 1, 58, 0
2, 15840, Note_on_c, 1, 58, 61
2, 16420, Note_on_c, 1, 58, 0
2, 17280, Note_on_c, 1, 86, 99
2, 18240, Note_on_c, 1, 59, 68
2, 18250, Note_on_c, 1, 86, 0
2, 18910, Note_on_c, 1, 59, 0
2, 18960, Note_on_c, 1, 59, 71
2, 19200, Note_on_c, 1, 60, 69
2, 19223, Note_on_c, 1, 59, 0
2, 20640, Note_on_c, 1, 84, 70
2, 20661, Note_on_c, 1, 60, 0
2, 21120, Note_on_c, 1, 85, 79
2, 21124, Note_on_c, 1, 84, 0
2, 22560, Note_on_c, 1, 79, 64
2, 22628, Note_on_c, 1, 85, 0
2, 23040, Note_on_c, 1, 84, 78
2, 23056, Note_on_c, 1, 79, 0
2, 24480, Note_on_c, 1, 77, 64
2, 24511, Note_on_c, 1, 84, 0
2, 24960, Note_on_c, 1, 82, 78
2, 24993, Note_on_c, 1, 77, 0
2, 26400, Note_on_c, 1, 76, 70
2, 26421, Note_on_c, 1, 82, 0
2, 26880, Note_on_c, 1, 80, 78
2, 26909, Note_on_c, 1, 76, 0
2, 28320, Note_on_c, 1, 74, 73
2, 28358, Note_on_c, 1, 80, 0
2, 28800, Note_on_c, 1, 79, 78
2, 28812, Note_on_c, 1, 74, 0
2, 30240, Note_on_c, 1, 72, 76
2, 30271, Note_on_c, 1, 79, 0
2, 30718, Note_on_c, 1, 72, 0
2, 30720, Note_on_c, 1, 77, 74
2, 31680, Note_on_c, 1, 76, 71
2, 31707, Note_on_c, 1, 77, 0
2, 31918, Note_on_c, 1, 76, 0
2, 31920, Note_on_c, 1, 74, 62
2, 32159, Note_on_c, 1, 74, 0
2, 32160, Note_on_c, 1, 72, 75
2, 32400, Note_on_c, 1, 70, 74
2, 32404, Note_on_c, 1, 72, 0
2, 32640, Note_on_c, 1, 69, 82
2, 32650, Note_on_c, 1, 70, 0
2, 33120, Note_on_c, 1, 67, 69
2, 33133, Note_on_c, 1, 69, 0
2, 34080, Note_on_c, 1, 72, 68
2, 34118, Note_on_c, 1, 67, 0
2, 34560, Note_on_c, 1, 70, 75
2, 34571, Note_on_c, 1, 72, 0
2, 35040, Note_on_c, 1, 69, 63
2, 35081, Note_on_c, 1, 70, 0
2, 35534, Note_on_c, 1, 69, 0
2, 36480, Note_on_c, 1, 77, 77
2, 37440, Note_on_c, 1, 76, 76
2, 37450, Note_on_c, 1, 77, 0
2, 37680, Note_on_c, 1, 74, 66
2, 37682, Note_on_c, 1, 76, 0
2, 37908, Note_on_c, 1, 74, 0
2, 37920, Note_on_c, 1, 72, 73
2, 38160, Note_on_c, 1, 70, 73
2, 38195, Note_on_c, 1, 72, 0
2, 38399, Note_on_c, 1, 70, 0
2, 38400, Note_on_c, 1, 69, 78
2, 38880, Note_on_c, 1, 67, 72
2, 38915, Note_on_c, 1, 69, 0
2, 39553, Note_on_c, 1, 67, 0
2, 39600, Note_on_c, 1, 69, 78
2, 39660, Note_on_c, 1, 67, 66
2, 39710, Note_on_c, 1, 69, 0
2, 39720, Note_on_c, 1, 66, 66
2, 39737, Note_on_c, 1, 67, 0
2, 39780, Note_on_c, 1, 67, 70
2, 39804, Note_on_c, 1, 66, 0
2, 39840, Note_on_c, 1, 72, 73
2, 39878, Note_on_c, 1, 67, 0
2, 40312, Note_on_c, 1, 72, 0
2, 40320, Note_on_c, 1, 65, 74
2, 40792, Note_on_c, 1, 65, 0
2, 66231, Note_on_c, 1, 81, 68
2, 67183, Note_on_c, 1, 82, 79
2, 67216, Note_on_c, 1, 81, 0
2, 68157, Note_on_c, 1, 73, 84
2, 68184, Note_on_c, 1, 82, 0
2, 69120, Note_on_c, 1, 74, 88
2, 69146, Note_on_c, 1, 73, 0
2, 69280, Note_on_c, 1, 65, 71
2, 69288, Note_on_c, 1, 74, 0
2, 69423, Note_on_c, 1, 65, 0
2, 69440, Note_on_c, 1, 67, 64
2, 69600, Note_on_c, 1, 69, 64
2, 69615, Note_on_c, 1, 67, 0
2, 69690, Note_on_c, 1, 69, 0
2, 69760, Note_on_c, 1, 69, 62
2, 69826, Note_on_c, 1, 69, 0
2, 69920, Note_on_c, 1, 69, 64
2, 70011, Note_on_c, 1, 69, 0
2, 70240, Note_on_c, 1, 65, 56
2, 70400, Note_on_c, 1, 69, 59
2, 70401, Note_on_c, 1, 65, 0
2, 70507, Note_on_c, 1, 69, 0
2, 70720, Note_on_c, 1, 64, 51
2, 70880, Note_on_c, 1, 67, 59
2, 70906, Note_on_c, 1, 64, 0
2, 70986, Note_on_c, 1, 67, 0
2, 71200, Note_on_c, 1, 65, 54
2, 71360, Note_on_c, 1, 67, 54
2, 71374, Note_on_c, 1, 65, 0
2, 71520, Note_on_c, 1, 69, 58
2, 71524, Note_on_c, 1, 67, 0
2, 71624, Note_on_c, 1, 69, 0
2, 71680, Note_on_c, 1, 69, 54
2, 71753, Note_on_c, 1, 69, 0
2, 71840, Note_on_c, 1, 69, 59
2, 71922, Note_on_c, 1, 69, 0
2, 72160, Note_on_c, 1, 65, 54
2, 72307, Note_on_c, 1, 65, 0
2, 72320, Note_on_c, 1, 67, 44
2, 72480, Note_on_c, 1, 69, 54
2, 72497, Note_on_c, 1, 67, 0
2, 72557, Note_on_c, 1, 69, 0
2, 72640, Note_on_c, 1, 69, 56
2, 72704, Note_on_c, 1, 69, 0
2, 72800, Note_on_c, 1, 69, 54
2, 72884, Note_on_c, 1, 69, 0
2, 73120, Note_on_c, 1, 64, 88
2, 73280, Note_on_c, 1, 65, 80
2, 73299, Note_on_c, 1, 64, 0
2, 73440, Note_on_c, 1, 67, 88
2, 73470, Note_on_c, 1, 65, 0
2, 73561, Note_on_c, 1, 67, 0
2, 73600, Note_on_c, 1, 67, 94
2, 73695, Note_on_c, 1, 67, 0
2, 73760, Note_on_c, 1, 67, 94
2, 73851, Note_on_c, 1, 67, 0
2, 74080, Note_on_c, 1, 64, 49
2, 74240, Note_on_c, 1, 65, 49
2, 74250, Note_on_c, 1, 64, 0
2, 74400, Note_on_c, 1, 67, 52
2, 74405, Note_on_c, 1, 65, 0
2, 74473, Note_on_c, 1, 67, 0
2, 74560, Note_on_c, 1, 67, 50
2, 74624, Note_on_c, 1, 67, 0
2, 74720, Note_on_c, 1, 67, 54
2, 74798, Note_on_c, 1, 67, 0
2, 75040, Note_on_c, 1, 64, 51
2, 75186, Note_on_c, 1, 64, 0
2, 75200, Note_on_c, 1, 67, 43
2, 75360, Note_on_c, 1, 69, 54
2, 75368, Note_on_c, 1, 67, 0
2, 75430, Note_on_c, 1, 69, 0
2, 75520, Note_on_c, 1, 69, 56
2, 75592, Note_on_c, 1, 69, 0
2, 75680, Note_on_c, 1, 69, 49
2, 75749, Note_on_c, 1, 69, 0
2, 75840, Note_on_c, 1, 69, 48
2, 75908, Note_on_c, 1, 69, 0
2, 76000, Note_on_c, 1, 69, 51
2, 76062, Note_on_c, 1, 69, 0
2, 76160, Note_on_c, 1, 69, 49
2, 76224, Note_on_c, 1, 69, 0
2, 76320, Note_on_c, 1, 69, 49
2, 76385, Note_on_c, 1, 69, 0
2, 76480, Note_on_c, 1, 69, 51
2, 76541, Note_on_c, 1, 69, 0
2, 76640, Note_on_c, 1, 69, 46
2, 76722, Note_on_c, 1, 69, 0
2, 76800, Note_on_c, 1, 67, 58
2, 76960, Note_on_c, 1, 67, 0
2, 76960, Note_on_c, 1, 72, 62
2, 77032, Note_on_c, 1, 72, 0
2, 77120, Note_on_c, 1, 72, 46
2, 77176, Note_on_c, 1, 72, 0
2, 77280, Note_on_c, 1, 72, 49
2, 77341, Note_on_c, 1, 72, 0
2, 77440, Note_on_c, 1, 72, 51
2, 77503, Note_on_c, 1, 72, 0
2, 77600, Note_on_c, 1, 72, 50
2, 77665, Note_on_c, 1, 72, 0
2, 77760, Note_on_c, 1, 72, 43
2, 77822, Note_on_c, 1, 72, 0
2, 77920, Note_on_c, 1, 72, 40
2, 77971, Note_on_c, 1, 72, 0
2, 78080, Note_on_c, 1, 72, 49
2, 78142, Note_on_c, 1, 72, 0
2, 78240, Note_on_c, 1, 72, 45
2, 78315, Note_on_c, 1, 72, 0
2, 78400, Note_on_c, 1, 72, 51
2, 78463, Note_on_c, 1, 72, 0
2, 78560, Note_on_c, 1, 72, 51
2, 78622, Note_on_c, 1, 72, 0
2, 78720, Note_on_c, 1, 72, 51
2, 78787, Note_on_c, 1, 72, 0
2, 78880, Note_on_c, 1, 72, 43
2, 78944, Note_on_c, 1, 72, 0
2, 79040, Note_on_c, 1, 72, 43
2, 79101, Note_on_c, 1, 72, 0
2, 79200, Note_on_c, 1, 72, 43
2, 79262, Note_on_c, 1, 72, 0
2, 79360, Note_on_c, 1, 72, 42
2, 79417, Note_on_c, 1, 72, 0
2, 79520, Note_on_c, 1, 72, 45
2, 79581, Note_on_c, 1, 72, 0
2, 79680, Note_on_c, 1, 72, 43
2, 79744, Note_on_c, 1, 72, 0
2, 79840, Note_on_c, 1, 72, 49
2, 79907, Note_on_c, 1, 72, 0
2, 80000, Note_on_c, 1, 72, 43
2, 80059, Note_on_c, 1, 72, 0
2, 80160, Note_on_c, 1, 72, 38
2, 80219, Note_on_c, 1, 72, 0
2, 80320, Note_on_c, 1, 72, 43
2, 80379, Note_on_c, 1, 72, 0
2, 80480, Note_on_c, 1, 72, 40
2, 80540, Note_on_c, 1, 72, 0
2, 80640, Note_on_c, 1, 72, 49
2, 80709, Note_on_c, 1, 72, 0
2, 80800, Note_on_c, 1, 72, 49
2, 80863, Note_on_c, 1, 72, 0
2, 80960, Note_on_c, 1, 72, 42
2, 81022, Note_on_c, 1, 72, 0
2, 81120, Note_on_c, 1, 72, 57
2, 81186, Note_on_c, 1, 72, 0
2, 81280, Note_on_c, 1, 72, 44
2, 81341, Note_on_c, 1, 72, 0
2, 81440, Note_on_c, 1, 72, 49
2, 81500, Note_on_c, 1, 72, 0
2, 81600, Note_on_c, 1, 72, 49
2, 81662, Note_on_c, 1, 72, 0
2, 81760, Note_on_c, 1, 72, 46
2, 81825, Note_on_c, 1, 72, 0
2, 81920, Note_on_c, 1, 72, 43
2, 81981, Note_on_c, 1, 72, 0
2, 82080, Note_on_c, 1, 72, 43
2, 82143, Note_on_c, 1, 72, 0
2, 82240, Note_on_c, 1, 72, 52
2, 82303, Note_on_c, 1, 72, 0
2, 82400, Note_on_c, 1, 72, 50
2, 82463, Note_on_c, 1, 72, 0
2, 82560, Note_on_c, 1, 71, 57
2, 83039, Note_on_c, 1, 71, 0
2, 83040, Note_on_c, 1, 79, 59
2, 83520, Note_on_c, 1, 75, 70
2, 83561, Note_on_c, 1, 79, 0
2, 84000, Note_on_c, 1, 72, 71
2, 84024, Note_on_c, 1, 75, 0
2, 84480, Note_on_c, 1, 80, 76
2, 84504, Note_on_c, 1, 72, 0
2, 85920, Note_on_c, 1, 74, 56
2, 85977, Note_on_c, 1, 80, 0
2, 86400, Note_on_c, 1, 79, 71
2, 86406, Note_on_c, 1, 74, 0
2, 87840, Note_on_c, 1, 72, 59
2, 87864, Note_on_c, 1, 79, 0
2, 88320, Note_on_c, 1, 77, 76
2, 88352, Note_on_c, 1, 72, 0
2, 89718, Note_on_c, 1, 77, 0
2, 89760, Note_on_c, 1, 71, 53
2, 90240, Note_on_c, 1, 75, 61
2, 90272, Note_on_c, 1, 71, 0
2, 91680, Note_on_c, 1, 69, 68
2, 91682, Note_on_c, 1, 75, 0
2, 92160, Note_on_c, 1, 74, 68
2, 92184, Note_on_c, 1, 69, 0
2, 93600, Note_on_c, 1, 67, 62
2, 93611, Note_on_c, 1, 74, 0
2, 94080, Note_on_c, 1, 72, 64
2, 94110, Note_on_c, 1, 67, 0
2, 95040, Note_on_c, 1, 71, 71
2, 95051, Note_on_c, 1, 72, 0
2, 95280, Note_on_c, 1, 69, 68
2, 95286, Note_on_c, 1, 71, 0
2, 95520, Note_on_c, 1, 67, 60
2, 95526, Note_on_c, 1, 69, 0
2, 95760, Note_on_c, 1, 65, 60
2, 95783, Note_on_c, 1, 67, 0
2, 96000, Note_on_c, 1, 64, 68
2, 96013, Note_on_c, 1, 65, 0
2, 96480, Note_on_c, 1, 62, 64
2, 96494, Note_on_c, 1, 64, 0
2, 97440, Note_on_c, 1, 67, 68
2, 97442, Note_on_c, 1, 62, 0
2, 97920, Note_on_c, 1, 65, 61
2, 97930, Note_on_c, 1, 67, 0
2, 98400, Note_on_c, 1, 64, 68
2, 98461, Note_on_c, 1, 65, 0
2, 98897, Note_on_c, 1, 64, 0
2, 99840, Note_on_c, 1, 72, 76
2, 100784, Note_on_c, 1, 72, 0
2, 100800, Note_on_c, 1, 71, 80
2, 101040, Note_on_c, 1, 69, 76
2, 101056, Note_on_c, 1, 71, 0
2, 101280, Note_on_c, 1, 67, 71
2, 101293, Note_on_c, 1, 69, 0
2, 101520, Note_on_c, 1, 65, 68
2, 101523, Note_on_c, 1, 67, 0
2, 101760, Note_on_c, 1, 64, 68
2, 101783, Note_on_c, 1, 65, 0
2, 102240, Note_on_c, 1, 62, 64
2, 102254, Note_on_c, 1, 64, 0
2, 103200, Note_on_c, 1, 67, 68
2, 103202, Note_on_c, 1, 62, 0
2, 103680, Note_on_c, 1, 60, 54
2, 103690, Note_on_c, 1, 67, 0
2, 104130, Note_on_c, 1, 60, 0
2, 104130, End_track
3, 0, Start_track
3, 0, MIDI_port, 0
3, 0, Title_t, "Violin I pizz"
3, 0, Program_c, 4, 45
3, 0, Control_c, 4, 7, 105
3, 0, Control_c, 4, 10, 80
3, 0, Pitch_bend_c, 4, 8192
3, 0, Control_c, 4, 93, 0
3, 0, Control_c, 4, 64, 0
3, 0, Control_c, 4, 91, 125
3, 42240, Note_on_c, 4, 65, 47
3, 42480, Note_on_c, 4, 65, 0
3, 42720, Note_on_c, 4, 69, 51
3, 42960, Note_on_c, 4, 69, 0
3, 43200, Note_on_c, 4, 72, 47
3, 43440, Note_on_c, 4, 72, 0
3, 44160, Note_on_c, 4, 65, 45
3, 44400, Note_on_c, 4, 65, 0
3, 44640, Note_on_c, 4, 69, 59
3, 44880, Note_on_c, 4, 69, 0
3, 45120, Note_on_c, 4, 72, 51
3, 45360, Note_on_c, 4, 72, 0
3, 46080, Note_on_c, 4, 65, 46
3, 46320, Note_on_c, 4, 65, 0
3, 46560, Note_on_c, 4, 69, 58
3, 46800, Note_on_c, 4, 69, 0
3, 47040, Note_on_c, 4, 72, 59
3, 47280, Note_on_c, 4, 72, 0
3, 47520, Note_on_c, 4, 65, 54
3, 47760, Note_on_c, 4, 65, 0
3, 48000, Note_on_c, 4, 60, 59
3, 48240, Note_on_c, 4, 60, 0
3, 48480, Note_on_c, 4, 64, 52
3, 48720, Note_on_c, 4, 64, 0
3, 48960, Note_on_c, 4, 67, 64
3, 49200, Note_on_c, 4, 67, 0
3, 49920, Note_on_c, 4, 60, 54
3, 50160, Note_on_c, 4, 60, 0
3, 50400, Note_on_c, 4, 64, 52
3, 50640, Note_on_c, 4, 64, 0
3, 50880, Note_on_c, 4, 67, 48
3, 51120, Note_on_c, 4, 67, 0
3, 51840, Note_on_c, 4, 60, 60
3, 52080, Note_on_c, 4, 60, 0
3, 52320, Note_on_c, 4, 64, 50
3, 52560, Note_on_c, 4, 64, 0
3, 52800, Note_on_c, 4, 67, 47
3, 53040, Note_on_c, 4, 67, 0
3, 53280, Note_on_c, 4, 60, 52
3, 53520, Note_on_c, 4, 60, 0
3, 53760, Note_on_c, 4, 65, 52
3, 54000, Note_on_c, 4, 65, 0
3, 54240, Note_on_c, 4, 69, 55
3, 54480, Note_on_c, 4, 69, 0
3, 54720, Note_on_c, 4, 72, 56
3, 54960, Note_on_c, 4, 72, 0
3, 55680, Note_on_c, 4, 57, 54
3, 55920, Note_on_c, 4, 57, 0
3, 56160, Note_on_c, 4, 60, 49
3, 56400, Note_on_c, 4, 60, 0
3, 56640, Note_on_c, 4, 65, 49
3, 56880, Note_on_c, 4, 65, 0
3, 57600, Note_on_c, 4, 58, 51
3, 57840, Note_on_c, 4, 58, 0
3, 58080, Note_on_c, 4, 62, 56
3, 58320, Note_on_c, 4, 62, 0
3, 58560, Note_on_c, 4, 65, 56
3, 58800, Note_on_c, 4, 65, 0
3, 59520, Note_on_c, 4, 59, 60
3, 59760, Note_on_c, 4, 59, 0
3, 60000, Note_on_c, 4, 62, 44
3, 60240, Note_on_c, 4, 62, 0
3, 60480, Note_on_c, 4, 65, 52
3, 60720, Note_on_c, 4, 65, 0
3, 61440, Note_on_c, 4, 60, 46
3, 61680, Note_on_c, 4, 60, 0
3, 61920, Note_on_c, 4, 65, 54
3, 62160, Note_on_c, 4, 65, 0
3, 62400, Note_on_c, 4, 69, 62
3, 62640, Note_on_c, 4, 69, 0
3, 62880, Note_on_c, 4, 72, 61
3, 63120, Note_on_c, 4, 72, 0
3, 63360, Note_on_c, 4, 70, 46
3, 63600, Note_on_c, 4, 70, 0
3, 63840, Note_on_c, 4, 67, 47
3, 64080, Note_on_c, 4, 67, 0
3, 64320, Note_on_c, 4, 72, 51
3, 64560, Note_on_c, 4, 72, 0
3, 64800, Note_on_c, 4, 60, 50
3, 65040, Note_on_c, 4, 60, 0
3, 65280, Note_on_c, 4, 65, 54
3, 65760, Note_on_c, 4, 65, 0
3, 65760, End_track
4, 0, Start_track
4, 0, MIDI_port, 0
4, 0, Title_t, "Violin II"
4, 0, Program_c, 2, 48
4, 0, Control_c, 2, 7, 105
4, 0, Control_c, 2, 10, 58
4, 0, Pitch_bend_c, 2, 8192
4, 0, Control_c, 2, 93, 0
4, 0, Control_c, 2, 64, 0
4, 0, Control_c, 2, 91, 120
4, 20, Note_on_c, 2, 60, 38
4, 155, Note_on_c, 2, 60, 0
4, 160, Note_on_c, 2, 60, 46
4, 295, Note_on_c, 2, 60, 0
4, 320, Note_on_c, 2, 60, 48
4, 455, Note_on_c, 2, 60, 0
4, 480, Note_on_c, 2, 60, 47
4, 615, Note_on_c, 2, 60, 0
4, 640, Note_on_c, 2, 60, 43
4, 775, Note_on_c, 2, 60, 0
4, 800, Note_on_c, 2, 60, 52
4, 935, Note_on_c, 2, 60, 0
4, 960, Note_on_c, 2, 60, 55
4, 1095, Note_on_c, 2, 60, 0
4, 1120, Note_on_c, 2, 60, 45
4, 1255, Note_on_c, 2, 60, 0
4, 1280, Note_on_c, 2, 60, 52
4, 1415, Note_on_c, 2, 60, 0
4, 1440, Note_on_c, 2, 60, 43
4, 1575, Note_on_c, 2, 60, 0
4, 1600, Note_on_c, 2, 60, 41
4, 1735, Note_on_c, 2, 60, 0
4, 1760, Note_on_c, 2, 60, 42
4, 1895, Note_on_c, 2, 60, 0
4, 1920, Note_on_c, 2, 60, 40
4, 2055, Note_on_c, 2, 60, 0
4, 2080, Note_on_c, 2, 60, 45
4, 2215, Note_on_c, 2, 60, 0
4, 2240, Note_on_c, 2, 60, 38
4, 2375, Note_on_c, 2, 60, 0
4, 2400, Note_on_c, 2, 60, 38
4, 2535, Note_on_c, 2, 60, 0
4, 2560, Note_on_c, 2, 60, 40
4, 2695, Note_on_c, 2, 60, 0
4, 2720, Note_on_c, 2, 60, 39
4, 2855, Note_on_c, 2, 60, 0
4, 2880, Note_on_c, 2, 60, 45
4, 3015, Note_on_c, 2, 60, 0
4, 3040, Note_on_c, 2, 60, 38
4, 3175, Note_on_c, 2, 60, 0
4, 3200, Note_on_c, 2, 60, 43
4, 3335, Note_on_c, 2, 60, 0
4, 3360, Note_on_c, 2, 60, 38
4, 3495, Note_on_c, 2, 60, 0
4, 3520, Note_on_c, 2, 60, 39
4, 3655, Note_on_c, 2, 60, 0
4, 3680, Note_on_c, 2, 60, 38
4, 3815, Note_on_c, 2, 60, 0
4, 3840, Note_on_c, 2, 60, 45
4, 3975, Note_on_c, 2, 60, 0
4, 4000, Note_on_c, 2, 60, 38
4, 4135, Note_on_c, 2, 60, 0
4, 4160, Note_on_c, 2, 60, 40
4, 4295, Note_on_c, 2, 60, 0
4, 4320, Note_on_c, 2, 60, 40
4, 4455, Note_on_c, 2, 60, 0
4, 4480, Note_on_c, 2, 60, 40
4, 4615, Note_on_c, 2, 60, 0
4, 4640, Note_on_c, 2, 60, 44
4, 4775, Note_on_c, 2, 60, 0
4, 4800, Note_on_c, 2, 60, 39
4, 4935, Note_on_c, 2, 60, 0
4, 4960, Note_on_c, 2, 60, 45
4, 5095, Note_on_c, 2, 60, 0
4, 5120, Note_on_c, 2, 60, 38
4, 5255, Note_on_c, 2, 60, 0
4, 5280, Note_on_c, 2, 60, 38
4, 5415, Note_on_c, 2, 60, 0
4, 5440, Note_on_c, 2, 60, 43
4, 5575, Note_on_c, 2, 60, 0
4, 5600, Note_on_c, 2, 60, 44
4, 5735, Note_on_c, 2, 60, 0
4, 5760, Note_on_c, 2, 60, 45
4, 5895, Note_on_c, 2, 60, 0
4, 5920, Note_on_c, 2, 60, 45
4, 6055, Note_on_c, 2, 60, 0
4, 6080, Note_on_c, 2, 60, 43
4, 6215, Note_on_c, 2, 60, 0
4, 6240, Note_on_c, 2, 60, 38
4, 6375, Note_on_c, 2, 60, 0
4, 6400, Note_on_c, 2, 60, 42
4, 6535, Note_on_c, 2, 60, 0
4, 6560, Note_on_c, 2, 60, 39
4, 6695, Note_on_c, 2, 60, 0
4, 6720, Note_on_c, 2, 60, 39
4, 6855, Note_on_c, 2, 60, 0
4, 6880, Note_on_c, 2, 60, 38
4, 7015, Note_on_c, 2, 60, 0
4, 7040, Note_on_c, 2, 60, 38
4, 7175, Note_on_c, 2, 60, 0
4, 7200, Note_on_c, 2, 60, 38
4, 7335, Note_on_c, 2, 60, 0
4, 7360, Note_on_c, 2, 60, 42
4, 7495, Note_on_c, 2, 60, 0
4, 7520, Note_on_c, 2, 60, 39
4, 7655, Note_on_c, 2, 60, 0
4, 7680, Note_on_c, 2, 60, 45
4, 7815, Note_on_c, 2, 60, 0
4, 7840, Note_on_c, 2, 60, 44
4, 7975, Note_on_c, 2, 60, 0
4, 8000, Note_on_c, 2, 60, 43
4, 8135, Note_on_c, 2, 60, 0
4, 8160, Note_on_c, 2, 60, 44
4, 8295, Note_on_c, 2, 60, 0
4, 8320, Note_on_c, 2, 60, 40
4, 8455, Note_on_c, 2, 60, 0
4, 8480, Note_on_c, 2, 60, 43
4, 8615, Note_on_c, 2, 60, 0
4, 8640, Note_on_c, 2, 60, 38
4, 8775, Note_on_c, 2, 60, 0
4, 8800, Note_on_c, 2, 60, 43
4, 8935, Note_on_c, 2, 60, 0
4, 8960, Note_on_c, 2, 60, 44
4, 9095, Note_on_c, 2, 60, 0
4, 9120, Note_on_c, 2, 60, 38
4, 9255, Note_on_c, 2, 60, 0
4, 9280, Note_on_c, 2, 60, 44
4, 9415, Note_on_c, 2, 60, 0
4, 9440, Note_on_c, 2, 60, 43
4, 9575, Note_on_c, 2, 60, 0
4, 9600, Note_on_c, 2, 60, 45
4, 9735, Note_on_c, 2, 60, 0
4, 9760, Note_on_c, 2, 60, 40
4, 9895, Note_on_c, 2, 60, 0
4, 9920, Note_on_c, 2, 60, 40
4, 10055, Note_on_c, 2, 60, 0
4, 10080, Note_on_c, 2, 60, 45
4, 10215, Note_on_c, 2, 60, 0
4, 10240, Note_on_c, 2, 60, 43
4, 10375, Note_on_c, 2, 60, 0
4, 10400, Note_on_c, 2, 60, 42
4, 10535, Note_on_c, 2, 60, 0
4, 10560, Note_on_c, 2, 60, 38
4, 10695, Note_on_c, 2, 60, 0
4, 10720, Note_on_c, 2, 60, 45
4, 10855, Note_on_c, 2, 60, 0
4, 10880, Note_on_c, 2, 60, 45
4, 11015, Note_on_c, 2, 60, 0
4, 11040, Note_on_c, 2, 60, 45
4, 11175, Note_on_c, 2, 60, 0
4, 11200, Note_on_c, 2, 60, 41
4, 11335, Note_on_c, 2, 60, 0
4, 11360, Note_on_c, 2, 60, 45
4, 11495, Note_on_c, 2, 60, 0
4, 11520, Note_on_c, 2, 60, 44
4, 11655, Note_on_c, 2, 60, 0
4, 11680, Note_on_c, 2, 60, 45
4, 11815, Note_on_c, 2, 60, 0
4, 11840, Note_on_c, 2, 60, 45
4, 11975, Note_on_c, 2, 60, 0
4, 12000, Note_on_c, 2, 60, 45
4, 12135, Note_on_c, 2, 60, 0
4, 12160, Note_on_c, 2, 60, 43
4, 12295, Note_on_c, 2, 60, 0
4, 12320, Note_on_c, 2, 60, 40
4, 12455, Note_on_c, 2, 60, 0
4, 12480, Note_on_c, 2, 60, 44
4, 12615, Note_on_c, 2, 60, 0
4, 12640, Note_on_c, 2, 60, 45
4, 12775, Note_on_c, 2, 60, 0
4, 12800, Note_on_c, 2, 60, 38
4, 12935, Note_on_c, 2, 60, 0
4, 12960, Note_on_c, 2, 60, 45
4, 13095, Note_on_c, 2, 60, 0
4, 13120, Note_on_c, 2, 60, 44
4, 13255, Note_on_c, 2, 60, 0
4, 13280, Note_on_c, 2, 60, 41
4, 13415, Note_on_c, 2, 60, 0
4, 13440, Note_on_c, 2, 65, 45
4, 13575, Note_on_c, 2, 65, 0
4, 13600, Note_on_c, 2, 65, 45
4, 13735, Note_on_c, 2, 65, 0
4, 13760, Note_on_c, 2, 65, 45
4, 13895, Note_on_c, 2, 65, 0
4, 13920, Note_on_c, 2, 65, 45
4, 14055, Note_on_c, 2, 65, 0
4, 14080, Note_on_c, 2, 65, 45
4, 14215, Note_on_c, 2, 65, 0
4, 14240, Note_on_c, 2, 65, 45
4, 14375, Note_on_c, 2, 65, 0
4, 14400, Note_on_c, 2, 65, 45
4, 14535, Note_on_c, 2, 65, 0
4, 14560, Note_on_c, 2, 65, 45
4, 14695, Note_on_c, 2, 65, 0
4, 14720, Note_on_c, 2, 65, 45
4, 14855, Note_on_c, 2, 65, 0
4, 14880, Note_on_c, 2, 65, 40
4, 15015, Note_on_c, 2, 65, 0
4, 15040, Note_on_c, 2, 65, 44
4, 15175, Note_on_c, 2, 65, 0
4, 15200, Note_on_c, 2, 65, 44
4, 15335, Note_on_c, 2, 65, 0
4, 15360, Note_on_c, 2, 65, 39
4, 15495, Note_on_c, 2, 65, 0
4, 15520, Note_on_c, 2, 65, 43
4, 15655, Note_on_c, 2, 65, 0
4, 15680, Note_on_c, 2, 65, 43
4, 15815, Note_on_c, 2, 65, 0
4, 15840, Note_on_c, 2, 65, 44
4, 15975, Note_on_c, 2, 65, 0
4, 16000, Note_on_c, 2, 65, 43
4, 16135, Note_on_c, 2, 65, 0
4, 16160, Note_on_c, 2, 65, 45
4, 16295, Note_on_c, 2, 65, 0
4, 16320, Note_on_c, 2, 65, 40
4, 16455, Note_on_c, 2, 65, 0
4, 16480, Note_on_c, 2, 65, 42
4, 16615, Note_on_c, 2, 65, 0
4, 16640, Note_on_c, 2, 65, 45
4, 16775, Note_on_c, 2, 65, 0
4, 16800, Note_on_c, 2, 65, 45
4, 16935, Note_on_c, 2, 65, 0
4, 16960, Note_on_c, 2, 65, 45
4, 17095, Note_on_c, 2, 65, 0
4, 17120, Note_on_c, 2, 65, 45
4, 17255, Note_on_c, 2, 65, 0
4, 17280, Note_on_c, 2, 65, 45
4, 17415, Note_on_c, 2, 65, 0
4, 17440, Note_on_c, 2, 65, 45
4, 17575, Note_on_c, 2, 65, 0
4, 17600, Note_on_c, 2, 65, 45
4, 17735, Note_on_c, 2, 65, 0
4, 17760, Note_on_c, 2, 65, 45
4, 17895, Note_on_c, 2, 65, 0
4, 17920, Note_on_c, 2, 65, 45
4, 18055, Note_on_c, 2, 65, 0
4, 18080, Note_on_c, 2, 65, 45
4, 18215, Note_on_c, 2, 65, 0
4, 18240, Note_on_c, 2, 65, 45
4, 18375, Note_on_c, 2, 65, 0
4, 18400, Note_on_c, 2, 65, 45
4, 18535, Note_on_c, 2, 65, 0
4, 18560, Note_on_c, 2, 65, 45
4, 18695, Note_on_c, 2, 65, 0
4, 18720, Note_on_c, 2, 65, 43
4, 18855, Note_on_c, 2, 65, 0
4, 18880, Note_on_c, 2, 65, 43
4, 19015, Note_on_c, 2, 65, 0
4, 19040, Note_on_c, 2, 65, 45
4, 19175, Note_on_c, 2, 65, 0
4, 19200, Note_on_c, 2, 65, 45
4, 19335, Note_on_c, 2, 65, 0
4, 19360, Note_on_c, 2, 65, 39
4, 19495, Note_on_c, 2, 65, 0
4, 19520, Note_on_c, 2, 65, 40
4, 19655, Note_on_c, 2, 65, 0
4, 19680, Note_on_c, 2, 65, 45
4, 19815, Note_on_c, 2, 65, 0
4, 19840, Note_on_c, 2, 65, 44
4, 19975, Note_on_c, 2, 65, 0
4, 20000, Note_on_c, 2, 65, 42
4, 20135, Note_on_c, 2, 65, 0
4, 20160, Note_on_c, 2, 65, 45
4, 20295, Note_on_c, 2, 65, 0
4, 20320, Note_on_c, 2, 65, 41
4, 20455, Note_on_c, 2, 65, 0
4, 20480, Note_on_c, 2, 65, 45
4, 20615, Note_on_c, 2, 65, 0
4, 20640, Note_on_c, 2, 65, 44
4, 20775, Note_on_c, 2, 65, 0
4, 20800, Note_on_c, 2, 65, 45
4, 20935, Note_on_c, 2, 65, 0
4, 20960, Note_on_c, 2, 65, 45
4, 21095, Note_on_c, 2, 65, 0
4, 21120, Note_on_c, 2, 65, 43
4, 21255, Note_on_c, 2, 65, 0
4, 21280, Note_on_c, 2, 65, 42
4, 21415, Note_on_c, 2, 65, 0
4, 21440, Note_on_c, 2, 65, 45
4, 21575, Note_on_c, 2, 65, 0
4, 21600, Note_on_c, 2, 64, 45
4, 21735, Note_on_c, 2, 64, 0
4, 21760, Note_on_c, 2, 64, 45
4, 21895, Note_on_c, 2, 64, 0
4, 21920, Note_on_c, 2, 64, 43
4, 22055, Note_on_c, 2, 64, 0
4, 22080, Note_on_c, 2, 67, 45
4, 22215, Note_on_c, 2, 67, 0
4, 22240, Note_on_c, 2, 67, 42
4, 22375, Note_on_c, 2, 67, 0
4, 22400, Note_on_c, 2, 67, 39
4, 22535, Note_on_c, 2, 67, 0
4, 22560, Note_on_c, 2, 67, 45
4, 22695, Note_on_c, 2, 67, 0
4, 22720, Note_on_c, 2, 67, 39
4, 22855, Note_on_c, 2, 67, 0
4, 22880, Note_on_c, 2, 67, 41
4, 23015, Note_on_c, 2, 67, 0
4, 23040, Note_on_c, 2, 67, 45
4, 23175, Note_on_c, 2, 67, 0
4, 23200, Note_on_c, 2, 67, 45
4, 23335, Note_on_c, 2, 67, 0
4, 23360, Note_on_c, 2, 67, 41
4, 23495, Note_on_c, 2, 67, 0
4, 23520, Note_on_c, 2, 65, 45
4, 23655, Note_on_c, 2, 65, 0
4, 23680, Note_on_c, 2, 65, 40
4, 23815, Note_on_c, 2, 65, 0
4, 23840, Note_on_c, 2, 65, 45
4, 23975, Note_on_c, 2, 65, 0
4, 24000, Note_on_c, 2, 68, 45
4, 24135, Note_on_c, 2, 68, 0
4, 24160, Note_on_c, 2, 68, 45
4, 24295, Note_on_c, 2, 68, 0
4, 24320, Note_on_c, 2, 68, 45
4, 24455, Note_on_c, 2, 68, 0
4, 24480, Note_on_c, 2, 68, 45
4, 24615, Note_on_c, 2, 68, 0
4, 24640, Note_on_c, 2, 68, 45
4, 24775, Note_on_c, 2, 68, 0
4, 24800, Note_on_c, 2, 68, 45
4, 24935, Note_on_c, 2, 68, 0
4, 24960, Note_on_c, 2, 68, 43
4, 25095, Note_on_c, 2, 68, 0
4, 25120, Note_on_c, 2, 68, 45
4, 25255, Note_on_c, 2, 68, 0
4, 25280, Note_on_c, 2, 68, 39
4, 25415, Note_on_c, 2, 68, 0
4, 25440, Note_on_c, 2, 67, 45
4, 25575, Note_on_c, 2, 67, 0
4, 25600, Note_on_c, 2, 67, 39
4, 25735, Note_on_c, 2, 67, 0
4, 25760, Note_on_c, 2, 67, 45
4, 25895, Note_on_c, 2, 67, 0
4, 25920, Note_on_c, 2, 70, 45
4, 26055, Note_on_c, 2, 70, 0
4, 26080, Note_on_c, 2, 70, 41
4, 26215, Note_on_c, 2, 70, 0
4, 26240, Note_on_c, 2, 70, 45
4, 26375, Note_on_c, 2, 70, 0
4, 26400, Note_on_c, 2, 70, 41
4, 26535, Note_on_c, 2, 70, 0
4, 26560, Note_on_c, 2, 70, 44
4, 26695, Note_on_c, 2, 70, 0
4, 26720, Note_on_c, 2, 70, 39
4, 26855, Note_on_c, 2, 70, 0
4, 26880, Note_on_c, 2, 70, 46
4, 27015, Note_on_c, 2, 70, 0
4, 27040, Note_on_c, 2, 70, 43
4, 27175, Note_on_c, 2, 70, 0
4, 27200, Note_on_c, 2, 70, 43
4, 27335, Note_on_c, 2, 70, 0
4, 27360, Note_on_c, 2, 68, 39
4, 27495, Note_on_c, 2, 68, 0
4, 27520, Note_on_c, 2, 68, 39
4, 27655, Note_on_c, 2, 68, 0
4, 27680, Note_on_c, 2, 68, 44
4, 27815, Note_on_c, 2, 68, 0
4, 27840, Note_on_c, 2, 71, 49
4, 27975, Note_on_c, 2, 71, 0
4, 28000, Note_on_c, 2, 71, 33
4, 28135, Note_on_c, 2, 71, 0
4, 28160, Note_on_c, 2, 71, 31
4, 28295, Note_on_c, 2, 71, 0
4, 28320, Note_on_c, 2, 71, 36
4, 28455, Note_on_c, 2, 71, 0
4, 28480, Note_on_c, 2, 71, 40
4, 28615, Note_on_c, 2, 71, 0
4, 28640, Note_on_c, 2, 71, 37
4, 28775, Note_on_c, 2, 71, 0
4, 28800, Note_on_c, 2, 72, 25
4, 28935, Note_on_c, 2, 72, 0
4, 28960, Note_on_c, 2, 72, 54
4, 29095, Note_on_c, 2, 72, 0
4, 29120, Note_on_c, 2, 72, 53
4, 29255, Note_on_c, 2, 72, 0
4, 29280, Note_on_c, 2, 73, 46
4, 29415, Note_on_c, 2, 73, 0
4, 29440, Note_on_c, 2, 73, 59
4, 29575, Note_on_c, 2, 73, 0
4, 29600, Note_on_c, 2, 73, 54
4, 29735, Note_on_c, 2, 73, 0
4, 29760, Note_on_c, 2, 72, 46
4, 29895, Note_on_c, 2, 72, 0
4, 29920, Note_on_c, 2, 72, 28
4, 30055, Note_on_c, 2, 72, 0
4, 30080, Note_on_c, 2, 72, 37
4, 30215, Note_on_c, 2, 72, 0
4, 30240, Note_on_c, 2, 64, 52
4, 30375, Note_on_c, 2, 64, 0
4, 30400, Note_on_c, 2, 64, 33
4, 30535, Note_on_c, 2, 64, 0
4, 30560, Note_on_c, 2, 64, 36
4, 30695, Note_on_c, 2, 64, 0
4, 30720, Note_on_c, 2, 65, 46
4, 30855, Note_on_c, 2, 65, 0
4, 30880, Note_on_c, 2, 65, 36
4, 31015, Note_on_c, 2, 65, 0
4, 31040, Note_on_c, 2, 65, 35
4, 31175, Note_on_c, 2, 65, 0
4, 31200, Note_on_c, 2, 65, 43
4, 31335, Note_on_c, 2, 65, 0
4, 31360, Note_on_c, 2, 65, 41
4, 31495, Note_on_c, 2, 65, 0
4, 31520, Note_on_c, 2, 65, 40
4, 31655, Note_on_c, 2, 65, 0
4, 31680, Note_on_c, 2, 65, 43
4, 31815, Note_on_c, 2, 65, 0
4, 31840, Note_on_c, 2, 65, 25
4, 31975, Note_on_c, 2, 65, 0
4, 32000, Note_on_c, 2, 65, 38
4, 32135, Note_on_c, 2, 65, 0
4, 32160, Note_on_c, 2, 65, 40
4, 32295, Note_on_c, 2, 65, 0
4, 32320, Note_on_c, 2, 65, 39
4, 32455, Note_on_c, 2, 65, 0
4, 32480, Note_on_c, 2, 65, 40
4, 32615, Note_on_c, 2, 65, 0
4, 32640, Note_on_c, 2, 65, 36
4, 32775, Note_on_c, 2, 65, 0
4, 32800, Note_on_c, 2, 65, 35
4, 32935, Note_on_c, 2, 65, 0
4, 32960, Note_on_c, 2, 65, 39
4, 33095, Note_on_c, 2, 65, 0
4, 33120, Note_on_c, 2, 65, 38
4, 33255, Note_on_c, 2, 65, 0
4, 33280, Note_on_c, 2, 65, 43
4, 33415, Note_on_c, 2, 65, 0
4, 33440, Note_on_c, 2, 65, 43
4, 33575, Note_on_c, 2, 65, 0
4, 33600, Note_on_c, 2, 65, 39
4, 33735, Note_on_c, 2, 65, 0
4, 33760, Note_on_c, 2, 65, 42
4, 33895, Note_on_c, 2, 65, 0
4, 33920, Note_on_c, 2, 65, 38
4, 34055, Note_on_c, 2, 65, 0
4, 34080, Note_on_c, 2, 64, 45
4, 34215, Note_on_c, 2, 64, 0
4, 34240, Note_on_c, 2, 64, 30
4, 34375, Note_on_c, 2, 64, 0
4, 34400, Note_on_c, 2, 64, 40
4, 34535, Note_on_c, 2, 64, 0
4, 34560, Note_on_c, 2, 64, 38
4, 34695, Note_on_c, 2, 64, 0
4, 34720, Note_on_c, 2, 64, 43
4, 34855, Note_on_c, 2, 64, 0
4, 34880, Note_on_c, 2, 64, 39
4, 35015, Note_on_c, 2, 64, 0
4, 35040, Note_on_c, 2, 65, 43
4, 35175, Note_on_c, 2, 65, 0
4, 35200, Note_on_c, 2, 65, 33
4, 35335, Note_on_c, 2, 65, 0
4, 35360, Note_on_c, 2, 65, 36
4, 35495, Note_on_c, 2, 65, 0
4, 35520, Note_on_c, 2, 65, 43
4, 35655, Note_on_c, 2, 65, 0
4, 35680, Note_on_c, 2, 65, 41
4, 35815, Note_on_c, 2, 65, 0
4, 35840, Note_on_c, 2, 65, 43
4, 35975, Note_on_c, 2, 65, 0
4, 36000, Note_on_c, 2, 67, 58
4, 36135, Note_on_c, 2, 67, 0
4, 36160, Note_on_c, 2, 67, 43
4, 36295, Note_on_c, 2, 67, 0
4, 36320, Note_on_c, 2, 67, 41
4, 36455, Note_on_c, 2, 67, 0
4, 36480, Note_on_c, 2, 65, 58
4, 36615, Note_on_c, 2, 65, 0
4, 36640, Note_on_c, 2, 65, 35
4, 36775, Note_on_c, 2, 65, 0
4, 36800, Note_on_c, 2, 65, 46
4, 36935, Note_on_c, 2, 65, 0
4, 36960, Note_on_c, 2, 65, 47
4, 37095, Note_on_c, 2, 65, 0
4, 37120, Note_on_c, 2, 65, 51
4, 37255, Note_on_c, 2, 65, 0
4, 37280, Note_on_c, 2, 65, 42
4, 37415, Note_on_c, 2, 65, 0
4, 37440, Note_on_c, 2, 65, 43
4, 37575, Note_on_c, 2, 65, 0
4, 37600, Note_on_c, 2, 65, 42
4, 37735, Note_on_c, 2, 65, 0
4, 37760, Note_on_c, 2, 65, 43
4, 37895, Note_on_c, 2, 65, 0
4, 37920, Note_on_c, 2, 65, 15
4, 38055, Note_on_c, 2, 65, 0
4, 38080, Note_on_c, 2, 65, 43
4, 38215, Note_on_c, 2, 65, 0
4, 38240, Note_on_c, 2, 65, 48
4, 38375, Note_on_c, 2, 65, 0
4, 38400, Note_on_c, 2, 65, 39
4, 38535, Note_on_c, 2, 65, 0
4, 38560, Note_on_c, 2, 65, 39
4, 38695, Note_on_c, 2, 65, 0
4, 38720, Note_on_c, 2, 65, 36
4, 38855, Note_on_c, 2, 65, 0
4, 38880, Note_on_c, 2, 65, 39
4, 39015, Note_on_c, 2, 65, 0
4, 39040, Note_on_c, 2, 65, 46
4, 39175, Note_on_c, 2, 65, 0
4, 39200, Note_on_c, 2, 65, 44
4, 39335, Note_on_c, 2, 65, 0
4, 39360, Note_on_c, 2, 65, 41
4, 39495, Note_on_c, 2, 65, 0
4, 39520, Note_on_c, 2, 65, 47
4, 39655, Note_on_c, 2, 65, 0
4, 39680, Note_on_c, 2, 65, 51
4, 39815, Note_on_c, 2, 65, 0
4, 39840, Note_on_c, 2, 64, 44
4, 39975, Note_on_c, 2, 64, 0
4, 40000, Note_on_c, 2, 64, 40
4, 40135, Note_on_c, 2, 64, 0
4, 40160, Note_on_c, 2, 64, 42
4, 40295, Note_on_c, 2, 64, 0
4, 40320, Note_on_c, 2, 65, 39
4, 40455, Note_on_c, 2, 65, 0
4, 69280, Note_on_c, 2, 62, 72
4, 69440, Note_on_c, 2, 64, 72
4, 69456, Note_on_c, 2, 62, 0
4, 69600, Note_on_c, 2, 65, 64
4, 69607, Note_on_c, 2, 64, 0
4, 69670, Note_on_c, 2, 65, 0
4, 69760, Note_on_c, 2, 65, 54
4, 69812, Note_on_c, 2, 65, 0
4, 69920, Note_on_c, 2, 65, 56
4, 69984, Note_on_c, 2, 65, 0
4, 70240, Note_on_c, 2, 62, 48
4, 70400, Note_on_c, 2, 65, 54
4, 70407, Note_on_c, 2, 62, 0
4, 70494, Note_on_c, 2, 65, 0
4, 70720, Note_on_c, 2, 61, 59
4, 70880, Note_on_c, 2, 64, 48
4, 70900, Note_on_c, 2, 61, 0
4, 71002, Note_on_c, 2, 64, 0
4, 71200, Note_on_c, 2, 62, 54
4, 71352, Note_on_c, 2, 62, 0
4, 71360, Note_on_c, 2, 64, 46
4, 71520, Note_on_c, 2, 65, 52
4, 71540, Note_on_c, 2, 64, 0
4, 71605, Note_on_c, 2, 65, 0
4, 71680, Note_on_c, 2, 65, 47
4, 71743, Note_on_c, 2, 65, 0
4, 71840, Note_on_c, 2, 65, 52
4, 71906, Note_on_c, 2, 65, 0
4, 72160, Note_on_c, 2, 62, 49
4, 72316, Note_on_c, 2, 62, 0
4, 72320, Note_on_c, 2, 64, 41
4, 72480, Note_on_c, 2, 65, 57
4, 72502, Note_on_c, 2, 64, 0
4, 72573, Note_on_c, 2, 65, 0
4, 72640, Note_on_c, 2, 65, 52
4, 72704, Note_on_c, 2, 65, 0
4, 72800, Note_on_c, 2, 65, 54
4, 72864, Note_on_c, 2, 65, 0
4, 73120, Note_on_c, 2, 55, 84
4, 73280, Note_on_c, 2, 57, 88
4, 73288, Note_on_c, 2, 55, 0
4, 73440, Note_on_c, 2, 58, 72
4, 73465, Note_on_c, 2, 57, 0
4, 73535, Note_on_c, 2, 58, 0
4, 73600, Note_on_c, 2, 58, 84
4, 73686, Note_on_c, 2, 58, 0
4, 73760, Note_on_c, 2, 58, 79
4, 73857, Note_on_c, 2, 58, 0
4, 74080, Note_on_c, 2, 60, 52
4, 74240, Note_on_c, 2, 62, 44
4, 74247, Note_on_c, 2, 60, 0
4, 74400, Note_on_c, 2, 64, 49
4, 74411, Note_on_c, 2, 62, 0
4, 74476, Note_on_c, 2, 64, 0
4, 74560, Note_on_c, 2, 64, 45
4, 74621, Note_on_c, 2, 64, 0
4, 74720, Note_on_c, 2, 64, 39
4, 74785, Note_on_c, 2, 64, 0
4, 75040, Note_on_c, 2, 60, 49
4, 75200, Note_on_c, 2, 64, 47
4, 75201, Note_on_c, 2, 60, 0
4, 75360, Note_on_c, 2, 65, 54
4, 75372, Note_on_c, 2, 64, 0
4, 75424, Note_on_c, 2, 65, 0
4, 75520, Note_on_c, 2, 65, 47
4, 75579, Note_on_c, 2, 65, 0
4, 75680, Note_on_c, 2, 65, 47
4, 75741, Note_on_c, 2, 65, 0
4, 75840, Note_on_c, 2, 65, 48
4, 75909, Note_on_c, 2, 65, 0
4, 76000, Note_on_c, 2, 65, 51
4, 76065, Note_on_c, 2, 65, 0
4, 76160, Note_on_c, 2, 65, 49
4, 76226, Note_on_c, 2, 65, 0
4, 76320, Note_on_c, 2, 65, 54
4, 76389, Note_on_c, 2, 65, 0
4, 76480, Note_on_c, 2, 65, 46
4, 76547, Note_on_c, 2, 65, 0
4, 76640, Note_on_c, 2, 65, 47
4, 76716, Note_on_c, 2, 65, 0
4, 76960, Note_on_c, 2, 67, 46
4, 77021, Note_on_c, 2, 67, 0
4, 77120, Note_on_c, 2, 67, 39
4, 77178, Note_on_c, 2, 67, 0
4, 77280, Note_on_c, 2, 67, 48
4, 77345, Note_on_c, 2, 67, 0
4, 77440, Note_on_c, 2, 67, 42
4, 77500, Note_on_c, 2, 67, 0
4, 77600, Note_on_c, 2, 67, 39
4, 77661, Note_on_c, 2, 67, 0
4, 77760, Note_on_c, 2, 67, 29
4, 77811, Note_on_c, 2, 67, 0
4, 77920, Note_on_c, 2, 67, 46
4, 77982, Note_on_c, 2, 67, 0
4, 78080, Note_on_c, 2, 67, 43
4, 78145, Note_on_c, 2, 67, 0
4, 78240, Note_on_c, 2, 67, 38
4, 78303, Note_on_c, 2, 67, 0
4, 78400, Note_on_c, 2, 67, 49
4, 78466, Note_on_c, 2, 67, 0
4, 78560, Note_on_c, 2, 67, 39
4, 78634, Note_on_c, 2, 67, 0
4, 78720, Note_on_c, 2, 69, 56
4, 78781, Note_on_c, 2, 69, 0
4, 78880, Note_on_c, 2, 69, 51
4, 78939, Note_on_c, 2, 69, 0
4, 79040, Note_on_c, 2, 69, 36
4, 79104, Note_on_c, 2, 69, 0
4, 79200, Note_on_c, 2, 69, 42
4, 79261, Note_on_c, 2, 69, 0
4, 79360, Note_on_c, 2, 69, 40
4, 79414, Note_on_c, 2, 69, 0
4, 79520, Note_on_c, 2, 69, 40
4, 79573, Note_on_c, 2, 69, 0
4, 79680, Note_on_c, 2, 69, 46
4, 79738, Note_on_c, 2, 69, 0
4, 79840, Note_on_c, 2, 69, 39
4, 79898, Note_on_c, 2, 69, 0
4, 80000, Note_on_c, 2, 69, 40
4, 80054, Note_on_c, 2, 69, 0
4, 80160, Note_on_c, 2, 69, 38
4, 80213, Note_on_c, 2, 69, 0
4, 80320, Note_on_c, 2, 69, 40
4, 80376, Note_on_c, 2, 69, 0
4, 80480, Note_on_c, 2, 69, 40
4, 80532, Note_on_c, 2, 69, 0
4, 80640, Note_on_c, 2, 69, 43
4, 80695, Note_on_c, 2, 69, 0
4, 80800, Note_on_c, 2, 69, 30
4, 80849, Note_on_c, 2, 69, 0
4, 80960, Note_on_c, 2, 69, 40
4, 81012, Note_on_c, 2, 69, 0
4, 81120, Note_on_c, 2, 69, 36
4, 81174, Note_on_c, 2, 69, 0
4, 81280, Note_on_c, 2, 69, 48
4, 81338, Note_on_c, 2, 69, 0
4, 81440, Note_on_c, 2, 69, 41
4, 81485, Note_on_c, 2, 69, 0
4, 81600, Note_on_c, 2, 69, 46
4, 81646, Note_on_c, 2, 69, 0
4, 81760, Note_on_c, 2, 69, 40
4, 81813, Note_on_c, 2, 69, 0
4, 81920, Note_on_c, 2, 69, 43
4, 81972, Note_on_c, 2, 69, 0
4, 82080, Note_on_c, 2, 69, 54
4, 82141, Note_on_c, 2, 69, 0
4, 82240, Note_on_c, 2, 69, 55
4, 82286, Note_on_c, 2, 69, 0
4, 82400, Note_on_c, 2, 69, 44
4, 82444, Note_on_c, 2, 69, 0
4, 82560, Note_on_c, 2, 67, 40
4, 82608, Note_on_c, 2, 67, 0
4, 82720, Note_on_c, 2, 67, 51
4, 82775, Note_on_c, 2, 67, 0
4, 82880, Note_on_c, 2, 67, 48
4, 82933, Note_on_c, 2, 67, 0
4, 83040, Note_on_c, 2, 67, 46
4, 83089, Note_on_c, 2, 67, 0
4, 83200, Note_on_c, 2, 67, 49
4, 83246, Note_on_c, 2, 67, 0
4, 83360, Note_on_c, 2, 67, 51
4, 83415, Note_on_c, 2, 67, 0
4, 83520, Note_on_c, 2, 63, 52
4, 83580, Note_on_c, 2, 63, 0
4, 83680, Note_on_c, 2, 63, 51
4, 83737, Note_on_c, 2, 63, 0
4, 83840, Note_on_c, 2, 63, 56
4, 83899, Note_on_c, 2, 63, 0
4, 84000, Note_on_c, 2, 60, 52
4, 84055, Note_on_c, 2, 60, 0
4, 84160, Note_on_c, 2, 60, 49
4, 84215, Note_on_c, 2, 60, 0
4, 84320, Note_on_c, 2, 60, 45
4, 84371, Note_on_c, 2, 60, 0
4, 84480, Note_on_c, 2, 60, 51
4, 84539, Note_on_c, 2, 60, 0
4, 84640, Note_on_c, 2, 60, 49
4, 84692, Note_on_c, 2, 60, 0
4, 84800, Note_on_c, 2, 60, 51
4, 84855, Note_on_c, 2, 60, 0
4, 84960, Note_on_c, 2, 59, 62
4, 85023, Note_on_c, 2, 59, 0
4, 85120, Note_on_c, 2, 59, 58
4, 85189, Note_on_c, 2, 59, 0
4, 85280, Note_on_c, 2, 59, 46
4, 85341, Note_on_c, 2, 59, 0
4, 85440, Note_on_c, 2, 62, 55
4, 85500, Note_on_c, 2, 62, 0
4, 85600, Note_on_c, 2, 62, 46
4, 85655, Note_on_c, 2, 62, 0
4, 85760, Note_on_c, 2, 62, 52
4, 85825, Note_on_c, 2, 62, 0
4, 85920, Note_on_c, 2, 62, 51
4, 85980, Note_on_c, 2, 62, 0
4, 86080, Note_on_c, 2, 62, 48
4, 86135, Note_on_c, 2, 62, 0
4, 86240, Note_on_c, 2, 62, 44
4, 86303, Note_on_c, 2, 62, 0
4, 86400, Note_on_c, 2, 62, 49
4, 86462, Note_on_c, 2, 62, 0
4, 86560, Note_on_c, 2, 62, 49
4, 86618, Note_on_c, 2, 62, 0
4, 86720, Note_on_c, 2, 62, 54
4, 86786, Note_on_c, 2, 62, 0
4, 86880, Note_on_c, 2, 60, 51
4, 86947, Note_on_c, 2, 60, 0
4, 87040, Note_on_c, 2, 60, 49
4, 87097, Note_on_c, 2, 60, 0
4, 87200, Note_on_c, 2, 60, 49
4, 87262, Note_on_c, 2, 60, 0
4, 87360, Note_on_c, 2, 63, 53
4, 87425, Note_on_c, 2, 63, 0
4, 87520, Note_on_c, 2, 63, 49
4, 87585, Note_on_c, 2, 63, 0
4, 87680, Note_on_c, 2, 63, 51
4, 87745, Note_on_c, 2, 63, 0
4, 87840, Note_on_c, 2, 63, 56
4, 87900, Note_on_c, 2, 63, 0
4, 88000, Note_on_c, 2, 63, 54
4, 88061, Note_on_c, 2, 63, 0
4, 88160, Note_on_c, 2, 63, 50
4, 88214, Note_on_c, 2, 63, 0
4, 88320, Note_on_c, 2, 63, 53
4, 88384, Note_on_c, 2, 63, 0
4, 88480, Note_on_c, 2, 63, 52
4, 88546, Note_on_c, 2, 63, 0
4, 88640, Note_on_c, 2, 63, 52
4, 88708, Note_on_c, 2, 63, 0
4, 88800, Note_on_c, 2, 62, 47
4, 88868, Note_on_c, 2, 62, 0
4, 88960, Note_on_c, 2, 62, 44
4, 89020, Note_on_c, 2, 62, 0
4, 89120, Note_on_c, 2, 62, 48
4, 89186, Note_on_c, 2, 62, 0
4, 89280, Note_on_c, 2, 65, 55
4, 89341, Note_on_c, 2, 65, 0
4, 89440, Note_on_c, 2, 65, 56
4, 89504, Note_on_c, 2, 65, 0
4, 89600, Note_on_c, 2, 65, 56
4, 89663, Note_on_c, 2, 65, 0
4, 89760, Note_on_c, 2, 65, 56
4, 89830, Note_on_c, 2, 65, 0
4, 89920, Note_on_c, 2, 65, 52
4, 89976, Note_on_c, 2, 65, 0
4, 90080, Note_on_c, 2, 65, 56
4, 90141, Note_on_c, 2, 65, 0
4, 90240, Note_on_c, 2, 65, 59
4, 90302, Note_on_c, 2, 65, 0
4, 90400, Note_on_c, 2, 65, 57
4, 90455, Note_on_c, 2, 65, 0
4, 90560, Note_on_c, 2, 65, 56
4, 90628, Note_on_c, 2, 65, 0
4, 90720, Note_on_c, 2, 63, 56
4, 90788, Note_on_c, 2, 63, 0
4, 90880, Note_on_c, 2, 63, 54
4, 90952, Note_on_c, 2, 63, 0
4, 91040, Note_on_c, 2, 63, 56
4, 91125, Note_on_c, 2, 63, 0
4, 91200, Note_on_c, 2, 66, 56
4, 91261, Note_on_c, 2, 66, 0
4, 91360, Note_on_c, 2, 66, 56
4, 91427, Note_on_c, 2, 66, 0
4, 91520, Note_on_c, 2, 66, 56
4, 91591, Note_on_c, 2, 66, 0
4, 91680, Note_on_c, 2, 66, 59
4, 91746, Note_on_c, 2, 66, 0
4, 91840, Note_on_c, 2, 66, 56
4, 91908, Note_on_c, 2, 66, 0
4, 92000, Note_on_c, 2, 66, 55
4, 92068, Note_on_c, 2, 66, 0
4, 92160, Note_on_c, 2, 67, 57
4, 92231, Note_on_c, 2, 67, 0
4, 92320, Note_on_c, 2, 67, 59
4, 92385, Note_on_c, 2, 67, 0
4, 92480, Note_on_c, 2, 67, 55
4, 92549, Note_on_c, 2, 67, 0
4, 92640, Note_on_c, 2, 68, 56
4, 92711, Note_on_c, 2, 68, 0
4, 92800, Note_on_c, 2, 68, 59
4, 92864, Note_on_c, 2, 68, 0
4, 92960, Note_on_c, 2, 68, 59
4, 93024, Note_on_c, 2, 68, 0
4, 93120, Note_on_c, 2, 67, 58
4, 93181, Note_on_c, 2, 67, 0
4, 93280, Note_on_c, 2, 67, 54
4, 93335, Note_on_c, 2, 67, 0
4, 93440, Note_on_c, 2, 67, 49
4, 93504, Note_on_c, 2, 67, 0
4, 93600, Note_on_c, 2, 62, 52
4, 93668, Note_on_c, 2, 62, 0
4, 93760, Note_on_c, 2, 62, 55
4, 93826, Note_on_c, 2, 62, 0
4, 93920, Note_on_c, 2, 62, 57
4, 93982, Note_on_c, 2, 62, 0
4, 94080, Note_on_c, 2, 67, 51
4, 94559, Note_on_c, 2, 67, 0
4, 103680, Note_on_c, 2, 55, 54
4, 104127, Note_on_c, 2, 55, 0
4, 104127, End_track
5, 0, Start_track
5, 0, MIDI_port, 0
5, 0, Title_t, "Violin II pizz"
5, 65760, Note_on_c, 4, 69, 55
5, 66000, Note_on_c, 4, 69, 0
5, 66240, Note_on_c, 4, 72, 39
5, 66480, Note_on_c, 4, 72, 0
5, 67200, Note_on_c, 4, 64, 49
5, 67440, Note_on_c, 4, 64, 0
5, 67680, Note_on_c, 4, 67, 47
5, 67920, Note_on_c, 4, 67, 0
5, 68160, Note_on_c, 4, 69, 50
5, 68400, Note_on_c, 4, 69, 0
5, 68640, Note_on_c, 4, 57, 57
5, 68880, Note_on_c, 4, 57, 0
5, 68880, End_track
6, 0, Start_track
6, 0, MIDI_port, 0
6, 0, Title_t, "Viola"
6, 20, Note_on_c, 1, 53, 38
6, 20, Note_on_c, 1, 57, 40
6, 155, Note_on_c, 1, 57, 0
6, 155, Note_on_c, 1, 53, 0
6, 160, Note_on_c, 1, 53, 39
6, 160, Note_on_c, 1, 57, 46
6, 295, Note_on_c, 1, 57, 0
6, 295, Note_on_c, 1, 53, 0
6, 320, Note_on_c, 1, 53, 40
6, 320, Note_on_c, 1, 57, 46
6, 455, Note_on_c, 1, 57, 0
6, 455, Note_on_c, 1, 53, 0
6, 480, Note_on_c, 1, 53, 42
6, 480, Note_on_c, 1, 57, 42
6, 615, Note_on_c, 1, 57, 0
6, 615, Note_on_c, 1, 53, 0
6, 640, Note_on_c, 1, 53, 46
6, 640, Note_on_c, 1, 57, 51
6, 775, Note_on_c, 1, 57, 0
6, 775, Note_on_c, 1, 53, 0
6, 800, Note_on_c, 1, 53, 45
6, 800, Note_on_c, 1, 57, 52
6, 935, Note_on_c, 1, 57, 0
6, 935, Note_on_c, 1, 53, 0
6, 960, Note_on_c, 1, 53, 38
6, 960, Note_on_c, 1, 57, 44
6, 1095, Note_on_c, 1, 57, 0
6, 1095, Note_on_c, 1, 53, 0
6, 1120, Note_on_c, 1, 53, 45
6, 1120, Note_on_c, 1, 57, 54
6, 1255, Note_on_c, 1, 57, 0
6, 1255, Note_on_c, 1, 53, 0
6, 1280, Note_on_c, 1, 53, 44
6, 1280, Note_on_c, 1, 57, 49
6, 1415, Note_on_c, 1, 57, 0
6, 1415, Note_on_c, 1, 53, 0
6, 1440, Note_on_c, 1, 53, 43
6, 1440, Note_on_c, 1, 57, 47
6, 1575, Note_on_c, 1, 57, 0
6, 1575, Note_on_c, 1, 53, 0
6, 1600, Note_on_c, 1, 53, 42
6, 1600, Note_on_c, 1, 57, 48
6, 1735, Note_on_c, 1, 57, 0
6, 1735, Note_on_c, 1, 53, 0
6, 1760, Note_on_c, 1, 53, 40
6, 1760, Note_on_c, 1, 57, 45
6, 1895, Note_on_c, 1, 57, 0
6, 1895, Note_on_c, 1, 53, 0
6, 1920, Note_on_c, 1, 53, 39
6, 1920, Note_on_c, 1, 57, 41
6, 2055, Note_on_c, 1, 57, 0
6, 2055, Note_on_c, 1, 53, 0
6, 2080, Note_on_c, 1, 53, 44
6, 2080, Note_on_c, 1, 57, 40
6, 2215, Note_on_c, 1, 57, 0
6, 2215, Note_on_c, 1, 53, 0
6, 2240, Note_on_c, 1, 53, 38
6, 2240, Note_on_c, 1, 57, 38
6, 2375, Note_on_c, 1, 57, 0
6, 2375, Note_on_c, 1, 53, 0
6, 2400, Note_on_c, 1, 53, 38
6, 2400, Note_on_c, 1, 57, 38
6, 2535, Note_on_c, 1, 57, 0
6, 2535, Note_on_c, 1, 53, 0
6, 2560, Note_on_c, 1, 53, 38
6, 2560, Note_on_c, 1, 57, 43
6, 2695, Note_on_c, 1, 57, 0
6, 2695, Note_on_c, 1, 53, 0
6, 2720, Note_on_c, 1, 53, 38
6, 2720, Note_on_c, 1, 57, 43
6, 2855, Note_on_c, 1, 57, 0
6, 2855, Note_on_c, 1, 53, 0
6, 2880, Note_on_c, 1, 53, 40
6, 2880, Note_on_c, 1, 57, 44
6, 3015, Note_on_c, 1, 57, 0
6, 3015, Note_on_c, 1, 53, 0
6, 3040, Note_on_c, 1, 53, 40
6, 3040, Note_on_c, 1, 57, 45
6, 3175, Note_on_c, 1, 57, 0
6, 3175, Note_on_c, 1, 53, 0
6, 3200, Note_on_c, 1, 53, 39
6, 3200, Note_on_c, 1, 57, 41
6, 3335, Note_on_c, 1, 57, 0
6, 3335, Note_on_c, 1, 53, 0
6, 3360, Note_on_c, 1, 53, 43
6, 3360, Note_on_c, 1, 57, 43
6, 3495, Note_on_c, 1, 57, 0
6, 3495, Note_on_c, 1, 53, 0
6, 3520, Note_on_c, 1, 53, 39
6, 3520, Note_on_c, 1, 57, 45
6, 3655, Note_on_c, 1, 57, 0
6, 3655, Note_on_c, 1, 53, 0
6, 3680, Note_on_c, 1, 53, 38
6, 3680, Note_on_c, 1, 57, 41
6, 3815, Note_on_c, 1, 57, 0
6, 3815, Note_on_c, 1, 53, 0
6, 3840, Note_on_c, 1, 53, 38
6, 3840, Note_on_c, 1, 57, 42
6, 3975, Note_on_c, 1, 57, 0
6, 3975, Note_on_c, 1, 53, 0
6, 4000, Note_on_c, 1, 53, 38
6, 4000, Note_on_c, 1, 57, 45
6, 4135, Note_on_c, 1, 57, 0
6, 4135, Note_on_c, 1, 53, 0
6, 4160, Note_on_c, 1, 53, 38
6, 4160, Note_on_c, 1, 57, 45
6, 4295, Note_on_c, 1, 57, 0
6, 4295, Note_on_c, 1, 53, 0
6, 4320, Note_on_c, 1, 53, 43
6, 4320, Note_on_c, 1, 57, 45
6, 4455, Note_on_c, 1, 57, 0
6, 4455, Note_on_c, 1, 53, 0
6, 4480, Note_on_c, 1, 53, 41
6, 4480, Note_on_c, 1, 57, 45
6, 4615, Note_on_c, 1, 57, 0
6, 4615, Note_on_c, 1, 53, 0
6, 4640, Note_on_c, 1, 53, 38
6, 4640, Note_on_c, 1, 57, 45
6, 4775, Note_on_c, 1, 57, 0
6, 4775, Note_on_c, 1, 53, 0
6, 4800, Note_on_c, 1, 53, 38
6, 4800, Note_on_c, 1, 57, 45
6, 4935, Note_on_c, 1, 57, 0
6, 4935, Note_on_c, 1, 53, 0
6, 4960, Note_on_c, 1, 53, 45
6, 4960, Note_on_c, 1, 57, 45
6, 5095, Note_on_c, 1, 57, 0
6, 5095, Note_on_c, 1, 53, 0
6, 5120, Note_on_c, 1, 53, 41
6, 5120, Note_on_c, 1, 57, 45
6, 5255, Note_on_c, 1, 57, 0
6, 5255, Note_on_c, 1, 53, 0
6, 5280, Note_on_c, 1, 53, 38
6, 5280, Note_on_c, 1, 57, 45
6, 5415, Note_on_c, 1, 57, 0
6, 5415, Note_on_c, 1, 53, 0
6, 5440, Note_on_c, 1, 53, 40
6, 5440, Note_on_c, 1, 57, 45
6, 5575, Note_on_c, 1, 57, 0
6, 5575, Note_on_c, 1, 53, 0
6, 5600, Note_on_c, 1, 53, 38
6, 5600, Note_on_c, 1, 57, 45
6, 5735, Note_on_c, 1, 57, 0
6, 5735, Note_on_c, 1, 53, 0
6, 5760, Note_on_c, 1, 52, 38
6, 5760, Note_on_c, 1, 58, 44
6, 5895, Note_on_c, 1, 58, 0
6, 5895, Note_on_c, 1, 52, 0
6, 5920, Note_on_c, 1, 52, 38
6, 5920, Note_on_c, 1, 58, 45
6, 6055, Note_on_c, 1, 58, 0
6, 6055, Note_on_c, 1, 52, 0
6, 6080, Note_on_c, 1, 52, 42
6, 6080, Note_on_c, 1, 58, 45
6, 6215, Note_on_c, 1, 58, 0
6, 6215, Note_on_c, 1, 52, 0
6, 6240, Note_on_c, 1, 52, 42
6, 6240, Note_on_c, 1, 58, 43
6, 6375, Note_on_c, 1, 58, 0
6, 6375, Note_on_c, 1, 52, 0
6, 6400, Note_on_c, 1, 52, 39
6, 6400, Note_on_c, 1, 58, 45
6, 6535, Note_on_c, 1, 58, 0
6, 6535, Note_on_c, 1, 52, 0
6, 6560, Note_on_c, 1, 52, 43
6, 6560, Note_on_c, 1, 58, 45
6, 6695, Note_on_c, 1, 58, 0
6, 6695, Note_on_c, 1, 52, 0
6, 6720, Note_on_c, 1, 52, 40
6, 6720, Note_on_c, 1, 58, 45
6, 6855, Note_on_c, 1, 58, 0
6, 6855, Note_on_c, 1, 52, 0
6, 6880, Note_on_c, 1, 52, 40
6, 6880, Note_on_c, 1, 58, 45
6, 7015, Note_on_c, 1, 58, 0
6, 7015, Note_on_c, 1, 52, 0
6, 7040, Note_on_c, 1, 52, 38
6, 7040, Note_on_c, 1, 58, 45
6, 7175, Note_on_c, 1, 58, 0
6, 7175, Note_on_c, 1, 52, 0
6, 7200, Note_on_c, 1, 52, 42
6, 7200, Note_on_c, 1, 58, 45
6, 7335, Note_on_c, 1, 58, 0
6, 7335, Note_on_c, 1, 52, 0
6, 7360, Note_on_c, 1, 52, 40
6, 7360, Note_on_c, 1, 58, 45
6, 7495, Note_on_c, 1, 58, 0
6, 7495, Note_on_c, 1, 52, 0
6, 7520, Note_on_c, 1, 52, 38
6, 7520, Note_on_c, 1, 58, 45
6, 7655, Note_on_c, 1, 58, 0
6, 7655, Note_on_c, 1, 52, 0
6, 7680, Note_on_c, 1, 52, 38
6, 7680, Note_on_c, 1, 58, 45
6, 7815, Note_on_c, 1, 58, 0
6, 7815, Note_on_c, 1, 52, 0
6, 7840, Note_on_c, 1, 52, 38
6, 7840, Note_on_c, 1, 58, 45
6, 7975, Note_on_c, 1, 58, 0
6, 7975, Note_on_c, 1, 52, 0
6, 8000, Note_on_c, 1, 52, 45
6, 8000, Note_on_c, 1, 58, 45
6, 8135, Note_on_c, 1, 58, 0
6, 8135, Note_on_c, 1, 52, 0
6, 8160, Note_on_c, 1, 52, 38
6, 8160, Note_on_c, 1, 58, 45
6, 8295, Note_on_c, 1, 58, 0
6, 8295, Note_on_c, 1, 52, 0
6, 8320, Note_on_c, 1, 52, 41
6, 8320, Note_on_c, 1, 58, 45
6, 8455, Note_on_c, 1, 58, 0
6, 8455, Note_on_c, 1, 52, 0
6, 8480, Note_on_c, 1, 52, 38
6, 8480, Note_on_c, 1, 58, 45
6, 8615, Note_on_c, 1, 58, 0
6, 8615, Note_on_c, 1, 52, 0
6, 8640, Note_on_c, 1, 52, 43
6, 8640, Note_on_c, 1, 58, 45
6, 8775, Note_on_c, 1, 58, 0
6, 8775, Note_on_c, 1, 52, 0
6, 8800, Note_on_c, 1, 52, 43
6, 8800, Note_on_c, 1, 58, 45
6, 8935, Note_on_c, 1, 58, 0
6, 8935, Note_on_c, 1, 52, 0
6, 8960, Note_on_c, 1, 52, 38
6, 8960, Note_on_c, 1, 58, 45
6, 9095, Note_on_c, 1, 58, 0
6, 9095, Note_on_c, 1, 52, 0
6, 9120, Note_on_c, 1, 52, 38
6, 9120, Note_on_c, 1, 58, 45
6, 9255, Note_on_c, 1, 58, 0
6, 9255, Note_on_c, 1, 52, 0
6, 9280, Note_on_c, 1, 52, 38
6, 9280, Note_on_c, 1, 58, 45
6, 9415, Note_on_c, 1, 58, 0
6, 9415, Note_on_c, 1, 52, 0
6, 9440, Note_on_c, 1, 52, 38
6, 9440, Note_on_c, 1, 58, 45
6, 9575, Note_on_c, 1, 58, 0
6, 9575, Note_on_c, 1, 52, 0
6, 9600, Note_on_c, 1, 52, 45
6, 9600, Note_on_c, 1, 58, 45
6, 9735, Note_on_c, 1, 58, 0
6, 9735, Note_on_c, 1, 52, 0
6, 9760, Note_on_c, 1, 52, 38
6, 9760, Note_on_c, 1, 58, 45
6, 9895, Note_on_c, 1, 58, 0
6, 9895, Note_on_c, 1, 52, 0
6, 9920, Note_on_c, 1, 52, 38
6, 9920, Note_on_c, 1, 58, 45
6, 10055, Note_on_c, 1, 58, 0
6, 10055, Note_on_c, 1, 52, 0
6, 10080, Note_on_c, 1, 52, 45
6, 10080, Note_on_c, 1, 58, 45
6, 10215, Note_on_c, 1, 58, 0
6, 10215, Note_on_c, 1, 52, 0
6, 10240, Note_on_c, 1, 52, 38
6, 10240, Note_on_c, 1, 58, 45
6, 10375, Note_on_c, 1, 58, 0
6, 10375, Note_on_c, 1, 52, 0
6, 10400, Note_on_c, 1, 52, 39
6, 10400, Note_on_c, 1, 58, 45
6, 10535, Note_on_c, 1, 58, 0
6, 10535, Note_on_c, 1, 52, 0
6, 10560, Note_on_c, 1, 52, 38
6, 10560, Note_on_c, 1, 58, 45
6, 10695, Note_on_c, 1, 58, 0
6, 10695, Note_on_c, 1, 52, 0
6, 10720, Note_on_c, 1, 52, 45
6, 10720, Note_on_c, 1, 58, 45
6, 10855, Note_on_c, 1, 58, 0
6, 10855, Note_on_c, 1, 52, 0
6, 10880, Note_on_c, 1, 52, 38
6, 10880, Note_on_c, 1, 58, 45
6, 11015, Note_on_c, 1, 58, 0
6, 11015, Note_on_c, 1, 52, 0
6, 11040, Note_on_c, 1, 52, 38
6, 11040, Note_on_c, 1, 55, 45
6, 11175, Note_on_c, 1, 55, 0
6, 11175, Note_on_c, 1, 52, 0
6, 11200, Note_on_c, 1, 52, 41
6, 11200, Note_on_c, 1, 55, 45
6, 11335, Note_on_c, 1, 55, 0
6, 11335, Note_on_c, 1, 52, 0
6, 11360, Note_on_c, 1, 52, 45
6, 11360, Note_on_c, 1, 55, 45
6, 11495, Note_on_c, 1, 55, 0
6, 11495, Note_on_c, 1, 52, 0
6, 11520, Note_on_c, 1, 53, 38
6, 11520, Note_on_c, 1, 57, 45
6, 11655, Note_on_c, 1, 57, 0
6, 11655, Note_on_c, 1, 53, 0
6, 11680, Note_on_c, 1, 53, 43
6, 11680, Note_on_c, 1, 57, 45
6, 11815, Note_on_c, 1, 57, 0
6, 11815, Note_on_c, 1, 53, 0
6, 11840, Note_on_c, 1, 53, 38
6, 11840, Note_on_c, 1, 57, 45
6, 11975, Note_on_c, 1, 57, 0
6, 11975, Note_on_c, 1, 53, 0
6, 12000, Note_on_c, 1, 53, 40
6, 12000, Note_on_c, 1, 57, 45
6, 12135, Note_on_c, 1, 57, 0
6, 12135, Note_on_c, 1, 53, 0
6, 12160, Note_on_c, 1, 53, 43
6, 12160, Note_on_c, 1, 57, 45
6, 12295, Note_on_c, 1, 57, 0
6, 12295, Note_on_c, 1, 53, 0
6, 12320, Note_on_c, 1, 53, 45
6, 12320, Note_on_c, 1, 57, 45
6, 12455, Note_on_c, 1, 57, 0
6, 12455, Note_on_c, 1, 53, 0
6, 12480, Note_on_c, 1, 53, 38
6, 12480, Note_on_c, 1, 57, 38
6, 12615, Note_on_c, 1, 57, 0
6, 12615, Note_on_c, 1, 53, 0
6, 12640, Note_on_c, 1, 53, 42
6, 12640, Note_on_c, 1, 57, 45
6, 12775, Note_on_c, 1, 57, 0
6, 12775, Note_on_c, 1, 53, 0
6, 12800, Note_on_c, 1, 53, 42
6, 12800, Note_on_c, 1, 57, 45
6, 12935, Note_on_c, 1, 57, 0
6, 12935, Note_on_c, 1, 53, 0
6, 12960, Note_on_c, 1, 53, 42
6, 12960, Note_on_c, 1, 57, 45
6, 13095, Note_on_c, 1, 57, 0
6, 13095, Note_on_c, 1, 53, 0
6, 13120, Note_on_c, 1, 53, 41
6, 13120, Note_on_c, 1, 57, 45
6, 13255, Note_on_c, 1, 57, 0
6, 13255, Note_on_c, 1, 53, 0
6, 13280, Note_on_c, 1, 53, 38
6, 13280, Note_on_c, 1, 57, 45
6, 13415, Note_on_c, 1, 57, 0
6, 13415, Note_on_c, 1, 53, 0
6, 13440, Note_on_c, 1, 60, 45
6, 13440, Note_on_c, 1, 63, 45
6, 13575, Note_on_c, 1, 63, 0
6, 13575, Note_on_c, 1, 60, 0
6, 13600, Note_on_c, 1, 60, 45
6, 13600, Note_on_c, 1, 63, 45
6, 13735, Note_on_c, 1, 63, 0
6, 13735, Note_on_c, 1, 60, 0
6, 13760, Note_on_c, 1, 60, 45
6, 13760, Note_on_c, 1, 63, 45
6, 13895, Note_on_c, 1, 63, 0
6, 13895, Note_on_c, 1, 60, 0
6, 13920, Note_on_c, 1, 60, 45
6, 13920, Note_on_c, 1, 63, 45
6, 14055, Note_on_c, 1, 63, 0
6, 14055, Note_on_c, 1, 60, 0
6, 14080, Note_on_c, 1, 60, 45
6, 14080, Note_on_c, 1, 63, 45
6, 14215, Note_on_c, 1, 63, 0
6, 14215, Note_on_c, 1, 60, 0
6, 14240, Note_on_c, 1, 60, 45
6, 14240, Note_on_c, 1, 63, 45
6, 14375, Note_on_c, 1, 63, 0
6, 14375, Note_on_c, 1, 60, 0
6, 14400, Note_on_c, 1, 60, 40
6, 14400, Note_on_c, 1, 63, 45
6, 14535, Note_on_c, 1, 63, 0
6, 14535, Note_on_c, 1, 60, 0
6, 14560, Note_on_c, 1, 60, 42
6, 14560, Note_on_c, 1, 63, 45
6, 14695, Note_on_c, 1, 63, 0
6, 14695, Note_on_c, 1, 60, 0
6, 14720, Note_on_c, 1, 60, 39
6, 14720, Note_on_c, 1, 63, 45
6, 14855, Note_on_c, 1, 63, 0
6, 14855, Note_on_c, 1, 60, 0
6, 14880, Note_on_c, 1, 60, 45
6, 14880, Note_on_c, 1, 63, 45
6, 15015, Note_on_c, 1, 63, 0
6, 15015, Note_on_c, 1, 60, 0
6, 15040, Note_on_c, 1, 60, 38
6, 15040, Note_on_c, 1, 63, 45
6, 15175, Note_on_c, 1, 63, 0
6, 15175, Note_on_c, 1, 60, 0
6, 15200, Note_on_c, 1, 60, 45
6, 15200, Note_on_c, 1, 63, 45
6, 15335, Note_on_c, 1, 63, 0
6, 15335, Note_on_c, 1, 60, 0
6, 15360, Note_on_c, 1, 58, 40
6, 15360, Note_on_c, 1, 62, 45
6, 15495, Note_on_c, 1, 62, 0
6, 15495, Note_on_c, 1, 58, 0
6, 15520, Note_on_c, 1, 58, 44
6, 15520, Note_on_c, 1, 62, 45
6, 15655, Note_on_c, 1, 62, 0
6, 15655, Note_on_c, 1, 58, 0
6, 15680, Note_on_c, 1, 58, 38
6, 15680, Note_on_c, 1, 62, 42
6, 15815, Note_on_c, 1, 62, 0
6, 15815, Note_on_c, 1, 58, 0
6, 15840, Note_on_c, 1, 58, 45
6, 15840, Note_on_c, 1, 62, 45
6, 15975, Note_on_c, 1, 62, 0
6, 15975, Note_on_c, 1, 58, 0
6, 16000, Note_on_c, 1, 58, 45
6, 16000, Note_on_c, 1, 62, 45
6, 16135, Note_on_c, 1, 62, 0
6, 16135, Note_on_c, 1, 58, 0
6, 16160, Note_on_c, 1, 58, 40
6, 16160, Note_on_c, 1, 62, 45
6, 16295, Note_on_c, 1, 62, 0
6, 16295, Note_on_c, 1, 58, 0
6, 16320, Note_on_c, 1, 58, 44
6, 16320, Note_on_c, 1, 62, 45
6, 16455, Note_on_c, 1, 62, 0
6, 16455, Note_on_c, 1, 58, 0
6, 16480, Note_on_c, 1, 58, 43
6, 16480, Note_on_c, 1, 62, 45
6, 16615, Note_on_c, 1, 62, 0
6, 16615, Note_on_c, 1, 58, 0
6, 16640, Note_on_c, 1, 58, 40
6, 16640, Note_on_c, 1, 62, 45
6, 16775, Note_on_c, 1, 62, 0
6, 16775, Note_on_c, 1, 58, 0
6, 16800, Note_on_c, 1, 58, 45
6, 16800, Note_on_c, 1, 62, 45
6, 16935, Note_on_c, 1, 62, 0
6, 16935, Note_on_c, 1, 58, 0
6, 16960, Note_on_c, 1, 58, 43
6, 16960, Note_on_c, 1, 62, 45
6, 17095, Note_on_c, 1, 62, 0
6, 17095, Note_on_c, 1, 58, 0
6, 17120, Note_on_c, 1, 58, 43
6, 17120, Note_on_c, 1, 62, 41
6, 17255, Note_on_c, 1, 62, 0
6, 17255, Note_on_c, 1, 58, 0
6, 17280, Note_on_c, 1, 56, 45
6, 17280, Note_on_c, 1, 62, 45
6, 17415, Note_on_c, 1, 62, 0
6, 17415, Note_on_c, 1, 56, 0
6, 17440, Note_on_c, 1, 56, 45
6, 17440, Note_on_c, 1, 62, 45
6, 17575, Note_on_c, 1, 62, 0
6, 17575, Note_on_c, 1, 56, 0
6, 17600, Note_on_c, 1, 56, 45
6, 17600, Note_on_c, 1, 62, 45
6, 17735, Note_on_c, 1, 62, 0
6, 17735, Note_on_c, 1, 56, 0
6, 17760, Note_on_c, 1, 56, 45
6, 17760, Note_on_c, 1, 62, 45
6, 17895, Note_on_c, 1, 62, 0
6, 17895, Note_on_c, 1, 56, 0
6, 17920, Note_on_c, 1, 56, 45
6, 17920, Note_on_c, 1, 62, 45
6, 18055, Note_on_c, 1, 62, 0
6, 18055, Note_on_c, 1, 56, 0
6, 18080, Note_on_c, 1, 56, 45
6, 18080, Note_on_c, 1, 62, 45
6, 18215, Note_on_c, 1, 62, 0
6, 18215, Note_on_c, 1, 56, 0
6, 18240, Note_on_c, 1, 56, 43
6, 18240, Note_on_c, 1, 62, 42
6, 18375, Note_on_c, 1, 62, 0
6, 18375, Note_on_c, 1, 56, 0
6, 18400, Note_on_c, 1, 56, 45
6, 18400, Note_on_c, 1, 62, 45
6, 18535, Note_on_c, 1, 62, 0
6, 18535, Note_on_c, 1, 56, 0
6, 18560, Note_on_c, 1, 56, 45
6, 18560, Note_on_c, 1, 62, 45
6, 18695, Note_on_c, 1, 62, 0
6, 18695, Note_on_c, 1, 56, 0
6, 18720, Note_on_c, 1, 56, 45
6, 18720, Note_on_c, 1, 62, 45
6, 18855, Note_on_c, 1, 62, 0
6, 18855, Note_on_c, 1, 56, 0
6, 18880, Note_on_c, 1, 56, 38
6, 18880, Note_on_c, 1, 62, 45
6, 19015, Note_on_c, 1, 62, 0
6, 19015, Note_on_c, 1, 56, 0
6, 19040, Note_on_c, 1, 56, 43
6, 19040, Note_on_c, 1, 62, 45
6, 19175, Note_on_c, 1, 62, 0
6, 19175, Note_on_c, 1, 56, 0
6, 19200, Note_on_c, 1, 56, 45
6, 19200, Note_on_c, 1, 60, 45
6, 19335, Note_on_c, 1, 60, 0
6, 19335, Note_on_c, 1, 56, 0
6, 19360, Note_on_c, 1, 56, 43
6, 19360, Note_on_c, 1, 60, 45
6, 19495, Note_on_c, 1, 60, 0
6, 19495, Note_on_c, 1, 56, 0
6, 19520, Note_on_c, 1, 56, 38
6, 19520, Note_on_c, 1, 60, 45
6, 19655, Note_on_c, 1, 60, 0
6, 19655, Note_on_c, 1, 56, 0
6, 19680, Note_on_c, 1, 56, 45
6, 19680, Note_on_c, 1, 60, 45
6, 19815, Note_on_c, 1, 60, 0
6, 19815, Note_on_c, 1, 56, 0
6, 19840, Note_on_c, 1, 56, 40
6, 19840, Note_on_c, 1, 60, 45
6, 19975, Note_on_c, 1, 60, 0
6, 19975, Note_on_c, 1, 56, 0
6, 20000, Note_on_c, 1, 56, 38
6, 20000, Note_on_c, 1, 60, 45
6, 20135, Note_on_c, 1, 60, 0
6, 20135, Note_on_c, 1, 56, 0
6, 20160, Note_on_c, 1, 56, 38
6, 20160, Note_on_c, 1, 60, 45
6, 20295, Note_on_c, 1, 60, 0
6, 20295, Note_on_c, 1, 56, 0
6, 20320, Note_on_c, 1, 56, 38
6, 20320, Note_on_c, 1, 60, 45
6, 20455, Note_on_c, 1, 60, 0
6, 20455, Note_on_c, 1, 56, 0
6, 20480, Note_on_c, 1, 56, 39
6, 20480, Note_on_c, 1, 60, 45
6, 20615, Note_on_c, 1, 60, 0
6, 20615, Note_on_c, 1, 56, 0
6, 20640, Note_on_c, 1, 56, 39
6, 20640, Note_on_c, 1, 60, 45
6, 20775, Note_on_c, 1, 60, 0
6, 20775, Note_on_c, 1, 56, 0
6, 20800, Note_on_c, 1, 56, 40
6, 20800, Note_on_c, 1, 60, 45
6, 20935, Note_on_c, 1, 60, 0
6, 20935, Note_on_c, 1, 56, 0
6, 20960, Note_on_c, 1, 56, 39
6, 20960, Note_on_c, 1, 60, 45
6, 21095, Note_on_c, 1, 60, 0
6, 21095, Note_on_c, 1, 56, 0
6, 21120, Note_on_c, 1, 55, 45
6, 21120, Note_on_c, 1, 58, 45
6, 21255, Note_on_c, 1, 58, 0
6, 21255, Note_on_c, 1, 55, 0
6, 21280, Note_on_c, 1, 55, 44
6, 21280, Note_on_c, 1, 58, 43
6, 21415, Note_on_c, 1, 58, 0
6, 21415, Note_on_c, 1, 55, 0
6, 21440, Note_on_c, 1, 55, 41
6, 21440, Note_on_c, 1, 58, 43
6, 21575, Note_on_c, 1, 58, 0
6, 21575, Note_on_c, 1, 55, 0
6, 21600, Note_on_c, 1, 55, 44
6, 21600, Note_on_c, 1, 58, 45
6, 21735, Note_on_c, 1, 58, 0
6, 21735, Note_on_c, 1, 55, 0
6, 21760, Note_on_c, 1, 55, 45
6, 21760, Note_on_c, 1, 58, 45
6, 21895, Note_on_c, 1, 58, 0
6, 21895, Note_on_c, 1, 55, 0
6, 21920, Note_on_c, 1, 55, 45
6, 21920, Note_on_c, 1, 58, 45
6, 22055, Note_on_c, 1, 58, 0
6, 22055, Note_on_c, 1, 55, 0
6, 22080, Note_on_c, 1, 52, 45
6, 22080, Note_on_c, 1, 58, 45
6, 22215, Note_on_c, 1, 58, 0
6, 22215, Note_on_c, 1, 52, 0
6, 22240, Note_on_c, 1, 52, 38
6, 22240, Note_on_c, 1, 58, 45
6, 22375, Note_on_c, 1, 58, 0
6, 22375, Note_on_c, 1, 52, 0
6, 22400, Note_on_c, 1, 52, 38
6, 22400, Note_on_c, 1, 58, 45
6, 22535, Note_on_c, 1, 58, 0
6, 22535, Note_on_c, 1, 52, 0
6, 22560, Note_on_c, 1, 52, 43
6, 22560, Note_on_c, 1, 58, 45
6, 22695, Note_on_c, 1, 58, 0
6, 22695, Note_on_c, 1, 52, 0
6, 22720, Note_on_c, 1, 52, 38
6, 22720, Note_on_c, 1, 58, 45
6, 22855, Note_on_c, 1, 58, 0
6, 22855, Note_on_c, 1, 52, 0
6, 22880, Note_on_c, 1, 52, 38
6, 22880, Note_on_c, 1, 58, 45
6, 23015, Note_on_c, 1, 58, 0
6, 23015, Note_on_c, 1, 52, 0
6, 23040, Note_on_c, 1, 56, 45
6, 23040, Note_on_c, 1, 60, 45
6, 23175, Note_on_c, 1, 60, 0
6, 23175, Note_on_c, 1, 56, 0
6, 23200, Note_on_c, 1, 56, 38
6, 23200, Note_on_c, 1, 60, 45
6, 23335, Note_on_c, 1, 60, 0
6, 23335, Note_on_c, 1, 56, 0
6, 23360, Note_on_c, 1, 56, 39
6, 23360, Note_on_c, 1, 60, 45
6, 23495, Note_on_c, 1, 60, 0
6, 23495, Note_on_c, 1, 56, 0
6, 23520, Note_on_c, 1, 56, 42
6, 23520, Note_on_c, 1, 60, 45
6, 23655, Note_on_c, 1, 60, 0
6, 23655, Note_on_c, 1, 56, 0
6, 23680, Note_on_c, 1, 56, 42
6, 23680, Note_on_c, 1, 60, 45
6, 23815, Note_on_c, 1, 60, 0
6, 23815, Note_on_c, 1, 56, 0
6, 23840, Note_on_c, 1, 56, 44
6, 23840, Note_on_c, 1, 60, 45
6, 23975, Note_on_c, 1, 60, 0
6, 23975, Note_on_c, 1, 56, 0
6, 24000, Note_on_c, 1, 53, 45
6, 24000, Note_on_c, 1, 60, 45
6, 24135, Note_on_c, 1, 60, 0
6, 24135, Note_on_c, 1, 53, 0
6, 24160, Note_on_c, 1, 53, 38
6, 24160, Note_on_c, 1, 60, 45
6, 24295, Note_on_c, 1, 60, 0
6, 24295, Note_on_c, 1, 53, 0
6, 24320, Note_on_c, 1, 53, 44
6, 24320, Note_on_c, 1, 60, 45
6, 24455, Note_on_c, 1, 60, 0
6, 24455, Note_on_c, 1, 53, 0
6, 24480, Note_on_c, 1, 53, 43
6, 24480, Note_on_c, 1, 60, 45
6, 24615, Note_on_c, 1, 60, 0
6, 24615, Note_on_c, 1, 53, 0
6, 24640, Note_on_c, 1, 53, 43
6, 24640, Note_on_c, 1, 60, 45
6, 24775, Note_on_c, 1, 60, 0
6, 24775, Note_on_c, 1, 53, 0
6, 24800, Note_on_c, 1, 53, 45
6, 24800, Note_on_c, 1, 60, 45
6, 24935, Note_on_c, 1, 60, 0
6, 24935, Note_on_c, 1, 53, 0
6, 24960, Note_on_c, 1, 61, 45
6, 24960, Note_on_c, 1, 64, 45
6, 25095, Note_on_c, 1, 64, 0
6, 25095, Note_on_c, 1, 61, 0
6, 25120, Note_on_c, 1, 61, 45
6, 25120, Note_on_c, 1, 64, 45
6, 25255, Note_on_c, 1, 64, 0
6, 25255, Note_on_c, 1, 61, 0
6, 25280, Note_on_c, 1, 61, 45
6, 25280, Note_on_c, 1, 64, 45
6, 25415, Note_on_c, 1, 64, 0
6, 25415, Note_on_c, 1, 61, 0
6, 25440, Note_on_c, 1, 61, 45
6, 25440, Note_on_c, 1, 64, 45
6, 25575, Note_on_c, 1, 64, 0
6, 25575, Note_on_c, 1, 61, 0
6, 25600, Note_on_c, 1, 61, 45
6, 25600, Note_on_c, 1, 64, 45
6, 25735, Note_on_c, 1, 64, 0
6, 25735, Note_on_c, 1, 61, 0
6, 25760, Note_on_c, 1, 61, 45
6, 25760, Note_on_c, 1, 64, 45
6, 25895, Note_on_c, 1, 64, 0
6, 25895, Note_on_c, 1, 61, 0
6, 25920, Note_on_c, 1, 60, 45
6, 25920, Note_on_c, 1, 64, 38
6, 26055, Note_on_c, 1, 64, 0
6, 26055, Note_on_c, 1, 60, 0
6, 26080, Note_on_c, 1, 60, 45
6, 26080, Note_on_c, 1, 64, 45
6, 26215, Note_on_c, 1, 64, 0
6, 26215, Note_on_c, 1, 60, 0
6, 26240, Note_on_c, 1, 60, 45
6, 26240, Note_on_c, 1, 64, 45
6, 26375, Note_on_c, 1, 64, 0
6, 26375, Note_on_c, 1, 60, 0
6, 26400, Note_on_c, 1, 60, 45
6, 26400, Note_on_c, 1, 67, 45
6, 26535, Note_on_c, 1, 67, 0
6, 26535, Note_on_c, 1, 60, 0
6, 26560, Note_on_c, 1, 60, 45
6, 26560, Note_on_c, 1, 67, 45
6, 26695, Note_on_c, 1, 67, 0
6, 26695, Note_on_c, 1, 60, 0
6, 26720, Note_on_c, 1, 60, 45
6, 26720, Note_on_c, 1, 67, 40
6, 26855, Note_on_c, 1, 67, 0
6, 26855, Note_on_c, 1, 60, 0
6, 26880, Note_on_c, 1, 59, 40
6, 26880, Note_on_c, 1, 65, 52
6, 27015, Note_on_c, 1, 65, 0
6, 27015, Note_on_c, 1, 59, 0
6, 27040, Note_on_c, 1, 59, 40
6, 27040, Note_on_c, 1, 65, 41
6, 27175, Note_on_c, 1, 65, 0
6, 27175, Note_on_c, 1, 59, 0
6, 27200, Note_on_c, 1, 59, 50
6, 27200, Note_on_c, 1, 65, 44
6, 27335, Note_on_c, 1, 65, 0
6, 27335, Note_on_c, 1, 59, 0
6, 27360, Note_on_c, 1, 59, 46
6, 27360, Note_on_c, 1, 65, 47
6, 27495, Note_on_c, 1, 65, 0
6, 27495, Note_on_c, 1, 59, 0
6, 27520, Note_on_c, 1, 59, 36
6, 27520, Note_on_c, 1, 65, 42
6, 27655, Note_on_c, 1, 65, 0
6, 27655, Note_on_c, 1, 59, 0
6, 27680, Note_on_c, 1, 59, 39
6, 27680, Note_on_c, 1, 65, 50
6, 27815, Note_on_c, 1, 65, 0
6, 27815, Note_on_c, 1, 59, 0
6, 27840, Note_on_c, 1, 62, 46
6, 27840, Note_on_c, 1, 65, 46
6, 27975, Note_on_c, 1, 65, 0
6, 27975, Note_on_c, 1, 62, 0
6, 28000, Note_on_c, 1, 62, 32
6, 28000, Note_on_c, 1, 65, 45
6, 28135, Note_on_c, 1, 65, 0
6, 28135, Note_on_c, 1, 62, 0
6, 28160, Note_on_c, 1, 62, 42
6, 28160, Note_on_c, 1, 65, 51
6, 28295, Note_on_c, 1, 65, 0
6, 28295, Note_on_c, 1, 62, 0
6, 28320, Note_on_c, 1, 65, 48
6, 28320, Note_on_c, 1, 68, 52
6, 28455, Note_on_c, 1, 68, 0
6, 28455, Note_on_c, 1, 65, 0
6, 28480, Note_on_c, 1, 65, 46
6, 28480, Note_on_c, 1, 68, 50
6, 28615, Note_on_c, 1, 68, 0
6, 28615, Note_on_c, 1, 65, 0
6, 28640, Note_on_c, 1, 65, 48
6, 28640, Note_on_c, 1, 68, 51
6, 28775, Note_on_c, 1, 68, 0
6, 28775, Note_on_c, 1, 65, 0
6, 28800, Note_on_c, 1, 65, 49
6, 28800, Note_on_c, 1, 67, 50
6, 28935, Note_on_c, 1, 67, 0
6, 28935, Note_on_c, 1, 65, 0
6, 28960, Note_on_c, 1, 65, 43
6, 28960, Note_on_c, 1, 67, 39
6, 29095, Note_on_c, 1, 67, 0
6, 29095, Note_on_c, 1, 65, 0
6, 29120, Note_on_c, 1, 65, 33
6, 29120, Note_on_c, 1, 67, 39
6, 29255, Note_on_c, 1, 67, 0
6, 29255, Note_on_c, 1, 65, 0
6, 29280, Note_on_c, 1, 65, 39
6, 29280, Note_on_c, 1, 67, 40
6, 29415, Note_on_c, 1, 67, 0
6, 29415, Note_on_c, 1, 65, 0
6, 29440, Note_on_c, 1, 65, 38
6, 29440, Note_on_c, 1, 67, 43
6, 29575, Note_on_c, 1, 67, 0
6, 29575, Note_on_c, 1, 65, 0
6, 29600, Note_on_c, 1, 65, 40
6, 29600, Note_on_c, 1, 67, 41
6, 29735, Note_on_c, 1, 67, 0
6, 29735, Note_on_c, 1, 65, 0
6, 29760, Note_on_c, 1, 64, 47
6, 29760, Note_on_c, 1, 67, 38
6, 29895, Note_on_c, 1, 67, 0
6, 29895, Note_on_c, 1, 64, 0
6, 29920, Note_on_c, 1, 64, 45
6, 29920, Note_on_c, 1, 67, 46
6, 30055, Note_on_c, 1, 67, 0
6, 30055, Note_on_c, 1, 64, 0
6, 30080, Note_on_c, 1, 64, 41
6, 30080, Note_on_c, 1, 67, 46
6, 30215, Note_on_c, 1, 67, 0
6, 30215, Note_on_c, 1, 64, 0
6, 30240, Note_on_c, 1, 55, 42
6, 30240, Note_on_c, 1, 60, 38
6, 30375, Note_on_c, 1, 60, 0
6, 30375, Note_on_c, 1, 55, 0
6, 30400, Note_on_c, 1, 55, 37
6, 30400, Note_on_c, 1, 60, 44
6, 30535, Note_on_c, 1, 60, 0
6, 30535, Note_on_c, 1, 55, 0
6, 30560, Note_on_c, 1, 55, 38
6, 30560, Note_on_c, 1, 60, 47
6, 30695, Note_on_c, 1, 60, 0
6, 30695, Note_on_c, 1, 55, 0
6, 30720, Note_on_c, 1, 57, 42
6, 30720, Note_on_c, 1, 60, 46
6, 30855, Note_on_c, 1, 60, 0
6, 30855, Note_on_c, 1, 57, 0
6, 30880, Note_on_c, 1, 57, 46
6, 30880, Note_on_c, 1, 60, 42
6, 31015, Note_on_c, 1, 60, 0
6, 31015, Note_on_c, 1, 57, 0
6, 31040, Note_on_c, 1, 57, 42
6, 31040, Note_on_c, 1, 60, 38
6, 31175, Note_on_c, 1, 60, 0
6, 31175, Note_on_c, 1, 57, 0
6, 31200, Note_on_c, 1, 57, 46
6, 31200, Note_on_c, 1, 60, 44
6, 31335, Note_on_c, 1, 60, 0
6, 31335, Note_on_c, 1, 57, 0
6, 31360, Note_on_c, 1, 57, 40
6, 31360, Note_on_c, 1, 60, 41
6, 31495, Note_on_c, 1, 60, 0
6, 31495, Note_on_c, 1, 57, 0
6, 31520, Note_on_c, 1, 57, 42
6, 31520, Note_on_c, 1, 60, 43
6, 31655, Note_on_c, 1, 60, 0
6, 31655, Note_on_c, 1, 57, 0
6, 31680, Note_on_c, 1, 55, 28
6, 31680, Note_on_c, 1, 62, 39
6, 31815, Note_on_c, 1, 62, 0
6, 31815, Note_on_c, 1, 55, 0
6, 31840, Note_on_c, 1, 55, 44
6, 31840, Note_on_c, 1, 62, 47
6, 31975, Note_on_c, 1, 62, 0
6, 31975, Note_on_c, 1, 55, 0
6, 32000, Note_on_c, 1, 55, 45
6, 32000, Note_on_c, 1, 62, 49
6, 32135, Note_on_c, 1, 62, 0
6, 32135, Note_on_c, 1, 55, 0
6, 32160, Note_on_c, 1, 55, 42
6, 32160, Note_on_c, 1, 62, 44
6, 32295, Note_on_c, 1, 62, 0
6, 32295, Note_on_c, 1, 55, 0
6, 32320, Note_on_c, 1, 55, 42
6, 32320, Note_on_c, 1, 62, 44
6, 32455, Note_on_c, 1, 62, 0
6, 32455, Note_on_c, 1, 55, 0
6, 32480, Note_on_c, 1, 55, 45
6, 32480, Note_on_c, 1, 62, 42
6, 32615, Note_on_c, 1, 62, 0
6, 32615, Note_on_c, 1, 55, 0
6, 32640, Note_on_c, 1, 55, 35
6, 32640, Note_on_c, 1, 60, 50
6, 32775, Note_on_c, 1, 60, 0
6, 32775, Note_on_c, 1, 55, 0
6, 32800, Note_on_c, 1, 55, 44
6, 32800, Note_on_c, 1, 60, 47
6, 32935, Note_on_c, 1, 60, 0
6, 32935, Note_on_c, 1, 55, 0
6, 32960, Note_on_c, 1, 55, 38
6, 32960, Note_on_c, 1, 60, 44
6, 33095, Note_on_c, 1, 60, 0
6, 33095, Note_on_c, 1, 55, 0
6, 33120, Note_on_c, 1, 55, 41
6, 33120, Note_on_c, 1, 62, 44
6, 33255, Note_on_c, 1, 62, 0
6, 33255, Note_on_c, 1, 55, 0
6, 33280, Note_on_c, 1, 55, 39
6, 33280, Note_on_c, 1, 62, 44
6, 33415, Note_on_c, 1, 62, 0
6, 33415, Note_on_c, 1, 55, 0
6, 33440, Note_on_c, 1, 55, 33
6, 33440, Note_on_c, 1, 62, 42
6, 33575, Note_on_c, 1, 62, 0
6, 33575, Note_on_c, 1, 55, 0
6, 33600, Note_on_c, 1, 55, 46
6, 33600, Note_on_c, 1, 60, 36
6, 33735, Note_on_c, 1, 60, 0
6, 33735, Note_on_c, 1, 55, 0
6, 33760, Note_on_c, 1, 55, 35
6, 33760, Note_on_c, 1, 60, 32
6, 33895, Note_on_c, 1, 60, 0
6, 33895, Note_on_c, 1, 55, 0
6, 33920, Note_on_c, 1, 55, 37
6, 33920, Note_on_c, 1, 60, 47
6, 34055, Note_on_c, 1, 60, 0
6, 34055, Note_on_c, 1, 55, 0
6, 34080, Note_on_c, 1, 55, 46
6, 34080, Note_on_c, 1, 60, 52
6, 34215, Note_on_c, 1, 60, 0
6, 34215, Note_on_c, 1, 55, 0
6, 34240, Note_on_c, 1, 55, 39
6, 34240, Note_on_c, 1, 60, 47
6, 34375, Note_on_c, 1, 60, 0
6, 34375, Note_on_c, 1, 55, 0
6, 34400, Note_on_c, 1, 55, 43
6, 34400, Note_on_c, 1, 60, 49
6, 34535, Note_on_c, 1, 60, 0
6, 34535, Note_on_c, 1, 55, 0
6, 34560, Note_on_c, 1, 55, 54
6, 34695, Note_on_c, 1, 55, 0
6, 34720, Note_on_c, 1, 55, 46
6, 34855, Note_on_c, 1, 55, 0
6, 34880, Note_on_c, 1, 55, 48
6, 35015, Note_on_c, 1, 55, 0
6, 35040, Note_on_c, 1, 53, 54
6, 35175, Note_on_c, 1, 53, 0
6, 35200, Note_on_c, 1, 53, 52
6, 35335, Note_on_c, 1, 53, 0
6, 35360, Note_on_c, 1, 53, 42
6, 35495, Note_on_c, 1, 53, 0
6, 35520, Note_on_c, 1, 57, 55
6, 35655, Note_on_c, 1, 57, 0
6, 35680, Note_on_c, 1, 57, 40
6, 35815, Note_on_c, 1, 57, 0
6, 35840, Note_on_c, 1, 57, 47
6, 35975, Note_on_c, 1, 57, 0
6, 36000, Note_on_c, 1, 60, 57
6, 36135, Note_on_c, 1, 60, 0
6, 36160, Note_on_c, 1, 60, 54
6, 36295, Note_on_c, 1, 60, 0
6, 36320, Note_on_c, 1, 60, 49
6, 36455, Note_on_c, 1, 60, 0
6, 36480, Note_on_c, 1, 57, 48
6, 36480, Note_on_c, 1, 60, 38
6, 36615, Note_on_c, 1, 60, 0
6, 36615, Note_on_c, 1, 57, 0
6, 36640, Note_on_c, 1, 57, 35
6, 36640, Note_on_c, 1, 60, 43
6, 36775, Note_on_c, 1, 60, 0
6, 36775, Note_on_c, 1, 57, 0
6, 36800, Note_on_c, 1, 57, 46
6, 36800, Note_on_c, 1, 60, 46
6, 36935, Note_on_c, 1, 60, 0
6, 36935, Note_on_c, 1, 57, 0
6, 36960, Note_on_c, 1, 57, 40
6, 36960, Note_on_c, 1, 60, 46
6, 37095, Note_on_c, 1, 60, 0
6, 37095, Note_on_c, 1, 57, 0
6, 37120, Note_on_c, 1, 57, 38
6, 37120, Note_on_c, 1, 60, 42
6, 37255, Note_on_c, 1, 60, 0
6, 37255, Note_on_c, 1, 57, 0
6, 37280, Note_on_c, 1, 57, 40
6, 37280, Note_on_c, 1, 60, 43
6, 37415, Note_on_c, 1, 60, 0
6, 37415, Note_on_c, 1, 57, 0
6, 37440, Note_on_c, 1, 55, 46
6, 37440, Note_on_c, 1, 62, 36
6, 37575, Note_on_c, 1, 62, 0
6, 37575, Note_on_c, 1, 55, 0
6, 37600, Note_on_c, 1, 55, 43
6, 37600, Note_on_c, 1, 62, 49
6, 37735, Note_on_c, 1, 62, 0
6, 37735, Note_on_c, 1, 55, 0
6, 37760, Note_on_c, 1, 55, 40
6, 37760, Note_on_c, 1, 62, 46
6, 37895, Note_on_c, 1, 62, 0
6, 37895, Note_on_c, 1, 55, 0
6, 37920, Note_on_c, 1, 55, 44
6, 37920, Note_on_c, 1, 62, 43
6, 38055, Note_on_c, 1, 62, 0
6, 38055, Note_on_c, 1, 55, 0
6, 38080, Note_on_c, 1, 55, 37
6, 38080, Note_on_c, 1, 62, 44
6, 38215, Note_on_c, 1, 62, 0
6, 38215, Note_on_c, 1, 55, 0
6, 38240, Note_on_c, 1, 55, 39
6, 38240, Note_on_c, 1, 62, 43
6, 38375, Note_on_c, 1, 62, 0
6, 38375, Note_on_c, 1, 55, 0
6, 38400, Note_on_c, 1, 55, 46
6, 38400, Note_on_c, 1, 60, 46
6, 38535, Note_on_c, 1, 60, 0
6, 38535, Note_on_c, 1, 55, 0
6, 38560, Note_on_c, 1, 55, 47
6, 38560, Note_on_c, 1, 60, 52
6, 38695, Note_on_c, 1, 60, 0
6, 38695, Note_on_c, 1, 55, 0
6, 38720, Note_on_c, 1, 55, 43
6, 38720, Note_on_c, 1, 60, 46
6, 38855, Note_on_c, 1, 60, 0
6, 38855, Note_on_c, 1, 55, 0
6, 38880, Note_on_c, 1, 55, 51
6, 38880, Note_on_c, 1, 62, 41
6, 39015, Note_on_c, 1, 62, 0
6, 39015, Note_on_c, 1, 55, 0
6, 39040, Note_on_c, 1, 55, 48
6, 39040, Note_on_c, 1, 62, 47
6, 39175, Note_on_c, 1, 62, 0
6, 39175, Note_on_c, 1, 55, 0
6, 39200, Note_on_c, 1, 55, 52
6, 39200, Note_on_c, 1, 62, 48
6, 39335, Note_on_c, 1, 62, 0
6, 39335, Note_on_c, 1, 55, 0
6, 39360, Note_on_c, 1, 55, 46
6, 39360, Note_on_c, 1, 60, 52
6, 39495, Note_on_c, 1, 60, 0
6, 39495, Note_on_c, 1, 55, 0
6, 39520, Note_on_c, 1, 55, 43
6, 39520, Note_on_c, 1, 60, 50
6, 39655, Note_on_c, 1, 60, 0
6, 39655, Note_on_c, 1, 55, 0
6, 39680, Note_on_c, 1, 55, 49
6, 39680, Note_on_c, 1, 60, 47
6, 39815, Note_on_c, 1, 60, 0
6, 39815, Note_on_c, 1, 55, 0
6, 39840, Note_on_c, 1, 58, 45
6, 39840, Note_on_c, 1, 60, 46
6, 39975, Note_on_c, 1, 60, 0
6, 39975, Note_on_c, 1, 58, 0
6, 40000, Note_on_c, 1, 58, 49
6, 40000, Note_on_c, 1, 60, 50
6, 40135, Note_on_c, 1, 60, 0
6, 40135, Note_on_c, 1, 58, 0
6, 40160, Note_on_c, 1, 58, 51
6, 40160, Note_on_c, 1, 60, 50
6, 40295, Note_on_c, 1, 60, 0
6, 40295, Note_on_c, 1, 58, 0
6, 40320, Note_on_c, 1, 57, 42
6, 40320, Note_on_c, 1, 60, 38
6, 40455, Note_on_c, 1, 60, 0
6, 40455, Note_on_c, 1, 57, 0
6, 69120, Note_on_c, 1, 57, 76
6, 69622, Note_on_c, 1, 57, 0
6, 70080, Note_on_c, 1, 57, 46
6, 71566, Note_on_c, 1, 57, 0
6, 72000, Note_on_c, 1, 57, 51
6, 72535, Note_on_c, 1, 57, 0
6, 72960, Note_on_c, 1, 60, 94
6, 73475, Note_on_c, 1, 60, 0
6, 73920, Note_on_c, 1, 60, 60
6, 74433, Note_on_c, 1, 60, 0
6, 75040, Note_on_c, 1, 60, 40
6, 75111, Note_on_c, 1, 60, 0
6, 75200, Note_on_c, 1, 60, 32
6, 75260, Note_on_c, 1, 60, 0
6, 75360, Note_on_c, 1, 60, 36
6, 75422, Note_on_c, 1, 60, 0
6, 75520, Note_on_c, 1, 60, 37
6, 75578, Note_on_c, 1, 60, 0
6, 75680, Note_on_c, 1, 60, 35
6, 75733, Note_on_c, 1, 60, 0
6, 75840, Note_on_c, 1, 60, 36
6, 75898, Note_on_c, 1, 60, 0
6, 76000, Note_on_c, 1, 60, 39
6, 76059, Note_on_c, 1, 60, 0
6, 76160, Note_on_c, 1, 60, 37
6, 76222, Note_on_c, 1, 60, 0
6, 76320, Note_on_c, 1, 60, 39
6, 76381, Note_on_c, 1, 60, 0
6, 76480, Note_on_c, 1, 60, 38
6, 76542, Note_on_c, 1, 60, 0
6, 76640, Note_on_c, 1, 60, 39
6, 76696, Note_on_c, 1, 60, 0
6, 76800, Note_on_c, 1, 60, 44
6, 76960, Note_on_c, 1, 64, 54
6, 76968, Note_on_c, 1, 60, 0
6, 77027, Note_on_c, 1, 64, 0
6, 77120, Note_on_c, 1, 64, 44
6, 77184, Note_on_c, 1, 64, 0
6, 77280, Note_on_c, 1, 64, 34
6, 77331, Note_on_c, 1, 64, 0
6, 77440, Note_on_c, 1, 64, 42
6, 77498, Note_on_c, 1, 64, 0
6, 77600, Note_on_c, 1, 64, 48
6, 77659, Note_on_c, 1, 64, 0
6, 77760, Note_on_c, 1, 64, 44
6, 77816, Note_on_c, 1, 64, 0
6, 77920, Note_on_c, 1, 64, 48
6, 77979, Note_on_c, 1, 64, 0
6, 78080, Note_on_c, 1, 64, 46
6, 78144, Note_on_c, 1, 64, 0
6, 78240, Note_on_c, 1, 64, 46
6, 78305, Note_on_c, 1, 64, 0
6, 78400, Note_on_c, 1, 64, 47
6, 78459, Note_on_c, 1, 64, 0
6, 78560, Note_on_c, 1, 64, 48
6, 78619, Note_on_c, 1, 64, 0
6, 78720, Note_on_c, 1, 62, 39
6, 78778, Note_on_c, 1, 62, 0
6, 78880, Note_on_c, 1, 62, 38
6, 78939, Note_on_c, 1, 62, 0
6, 79040, Note_on_c, 1, 62, 34
6, 79092, Note_on_c, 1, 62, 0
6, 79200, Note_on_c, 1, 62, 36
6, 79256, Note_on_c, 1, 62, 0
6, 79360, Note_on_c, 1, 62, 39
6, 79423, Note_on_c, 1, 62, 0
6, 79520, Note_on_c, 1, 62, 40
6, 79578, Note_on_c, 1, 62, 0
6, 79680, Note_on_c, 1, 62, 38
6, 79735, Note_on_c, 1, 62, 0
6, 79840, Note_on_c, 1, 62, 40
6, 79892, Note_on_c, 1, 62, 0
6, 80000, Note_on_c, 1, 62, 43
6, 80054, Note_on_c, 1, 62, 0
6, 80160, Note_on_c, 1, 62, 39
6, 80213, Note_on_c, 1, 62, 0
6, 80320, Note_on_c, 1, 62, 47
6, 80379, Note_on_c, 1, 62, 0
6, 80480, Note_on_c, 1, 62, 43
6, 80534, Note_on_c, 1, 62, 0
6, 80640, Note_on_c, 1, 62, 43
6, 80696, Note_on_c, 1, 62, 0
6, 80800, Note_on_c, 1, 62, 40
6, 80854, Note_on_c, 1, 62, 0
6, 80960, Note_on_c, 1, 62, 39
6, 81013, Note_on_c, 1, 62, 0
6, 81120, Note_on_c, 1, 62, 44
6, 81177, Note_on_c, 1, 62, 0
6, 81280, Note_on_c, 1, 62, 43
6, 81336, Note_on_c, 1, 62, 0
6, 81440, Note_on_c, 1, 62, 36
6, 81488, Note_on_c, 1, 62, 0
6, 81600, Note_on_c, 1, 62, 43
6, 81658, Note_on_c, 1, 62, 0
6, 81760, Note_on_c, 1, 62, 40
6, 81815, Note_on_c, 1, 62, 0
6, 81920, Note_on_c, 1, 62, 41
6, 81975, Note_on_c, 1, 62, 0
6, 82080, Note_on_c, 1, 62, 43
6, 82141, Note_on_c, 1, 62, 0
6, 82240, Note_on_c, 1, 62, 42
6, 82295, Note_on_c, 1, 62, 0
6, 82400, Note_on_c, 1, 62, 44
6, 82455, Note_on_c, 1, 62, 0
6, 82560, Note_on_c, 1, 62, 47
6, 82624, Note_on_c, 1, 62, 0
6, 82720, Note_on_c, 1, 62, 54
6, 82788, Note_on_c, 1, 62, 0
6, 82880, Note_on_c, 1, 62, 54
6, 82942, Note_on_c, 1, 62, 0
6, 83040, Note_on_c, 1, 59, 58
6, 83040, Note_on_c, 1, 50, 48
6, 83100, Note_on_c, 1, 59, 0
6, 83101, Note_on_c, 1, 50, 0
6, 83200, Note_on_c, 1, 59, 55
6, 83200, Note_on_c, 1, 50, 44
6, 83259, Note_on_c, 1, 50, 0
6, 83263, Note_on_c, 1, 59, 0
6, 83360, Note_on_c, 1, 59, 63
6, 83360, Note_on_c, 1, 50, 51
6, 83425, Note_on_c, 1, 59, 0
6, 83427, Note_on_c, 1, 50, 0
6, 83520, Note_on_c, 1, 60, 62
6, 83520, Note_on_c, 1, 48, 53
6, 83579, Note_on_c, 1, 48, 0
6, 83582, Note_on_c, 1, 60, 0
6, 83680, Note_on_c, 1, 48, 56
6, 83680, Note_on_c, 1, 60, 61
6, 83732, Note_on_c, 1, 60, 0
6, 83734, Note_on_c, 1, 48, 0
6, 83840, Note_on_c, 1, 60, 71
6, 83840, Note_on_c, 1, 48, 43
6, 83889, Note_on_c, 1, 48, 0
6, 83893, Note_on_c, 1, 60, 0
6, 84000, Note_on_c, 1, 51, 51
6, 84000, Note_on_c, 1, 55, 59
6, 84051, Note_on_c, 1, 55, 0
6, 84067, Note_on_c, 1, 51, 0
6, 84160, Note_on_c, 1, 51, 49
6, 84160, Note_on_c, 1, 55, 51
6, 84211, Note_on_c, 1, 55, 0
6, 84215, Note_on_c, 1, 51, 0
6, 84320, Note_on_c, 1, 51, 59
6, 84320, Note_on_c, 1, 55, 55
6, 84385, Note_on_c, 1, 55, 0
6, 84389, Note_on_c, 1, 51, 0
6, 84480, Note_on_c, 1, 53, 54
6, 84480, Note_on_c, 1, 50, 52
6, 84541, Note_on_c, 1, 50, 0
6, 84549, Note_on_c, 1, 53, 0
6, 84640, Note_on_c, 1, 53, 58
6, 84640, Note_on_c, 1, 50, 51
6, 84703, Note_on_c, 1, 50, 0
6, 84709, Note_on_c, 1, 53, 0
6, 84800, Note_on_c, 1, 50, 44
6, 84800, Note_on_c, 1, 53, 57
6, 84857, Note_on_c, 1, 50, 0
6, 84865, Note_on_c, 1, 53, 0
6, 84960, Note_on_c, 1, 53, 56
6, 84960, Note_on_c, 1, 50, 45
6, 85018, Note_on_c, 1, 50, 0
6, 85024, Note_on_c, 1, 53, 0
6, 85120, Note_on_c, 1, 53, 48
6, 85120, Note_on_c, 1, 50, 32
6, 85162, Note_on_c, 1, 50, 0
6, 85184, Note_on_c, 1, 53, 0
6, 85280, Note_on_c, 1, 50, 36
6, 85280, Note_on_c, 1, 53, 48
6, 85326, Note_on_c, 1, 50, 0
6, 85336, Note_on_c, 1, 53, 0
6, 85440, Note_on_c, 1, 59, 58
6, 85440, Note_on_c, 1, 53, 44
6, 85498, Note_on_c, 1, 59, 0
6, 85502, Note_on_c, 1, 53, 0
6, 85600, Note_on_c, 1, 59, 56
6, 85600, Note_on_c, 1, 53, 48
6, 85658, Note_on_c, 1, 59, 0
6, 85664, Note_on_c, 1, 53, 0
6, 85760, Note_on_c, 1, 53, 38
6, 85760, Note_on_c, 1, 59, 56
6, 85818, Note_on_c, 1, 59, 0
6, 85826, Note_on_c, 1, 53, 0
6, 85920, Note_on_c, 1, 53, 44
6, 85920, Note_on_c, 1, 59, 53
6, 85976, Note_on_c, 1, 53, 0
6, 85977, Note_on_c, 1, 59, 0
6, 86080, Note_on_c, 1, 59, 56
6, 86080, Note_on_c, 1, 53, 43
6, 86136, Note_on_c, 1, 59, 0
6, 86141, Note_on_c, 1, 53, 0
6, 86240, Note_on_c, 1, 53, 43
6, 86240, Note_on_c, 1, 59, 61
6, 86291, Note_on_c, 1, 59, 0
6, 86298, Note_on_c, 1, 53, 0
6, 86400, Note_on_c, 1, 51, 54
6, 86400, Note_on_c, 1, 55, 54
6, 86459, Note_on_c, 1, 55, 0
6, 86459, Note_on_c, 1, 51, 0
6, 86560, Note_on_c, 1, 51, 54
6, 86560, Note_on_c, 1, 55, 55
6, 86621, Note_on_c, 1, 51, 0
6, 86626, Note_on_c, 1, 55, 0
6, 86720, Note_on_c, 1, 51, 50
6, 86720, Note_on_c, 1, 55, 53
6, 86777, Note_on_c, 1, 55, 0
6, 86779, Note_on_c, 1, 51, 0
6, 86880, Note_on_c, 1, 51, 48
6, 86880, Note_on_c, 1, 55, 56
6, 86940, Note_on_c, 1, 55, 0
6, 86945, Note_on_c, 1, 51, 0
6, 87040, Note_on_c, 1, 51, 50
6, 87040, Note_on_c, 1, 55, 54
6, 87090, Note_on_c, 1, 51, 0
6, 87098, Note_on_c, 1, 55, 0
6, 87200, Note_on_c, 1, 55, 49
6, 87200, Note_on_c, 1, 51, 51
6, 87256, Note_on_c, 1, 51, 0
6, 87263, Note_on_c, 1, 55, 0
6, 87360, Note_on_c, 1, 55, 52
6, 87360, Note_on_c, 1, 48, 47
6, 87426, Note_on_c, 1, 48, 0
6, 87433, Note_on_c, 1, 55, 0
6, 87520, Note_on_c, 1, 55, 52
6, 87520, Note_on_c, 1, 48, 48
6, 87582, Note_on_c, 1, 48, 0
6, 87588, Note_on_c, 1, 55, 0
6, 87680, Note_on_c, 1, 55, 54
6, 87680, Note_on_c, 1, 48, 43
6, 87742, Note_on_c, 1, 48, 0
6, 87747, Note_on_c, 1, 55, 0
6, 87840, Note_on_c, 1, 48, 43
6, 87840, Note_on_c, 1, 55, 53
6, 87902, Note_on_c, 1, 48, 0
6, 87903, Note_on_c, 1, 55, 0
6, 88000, Note_on_c, 1, 48, 50
6, 88000, Note_on_c, 1, 55, 48
6, 88058, Note_on_c, 1, 55, 0
6, 88062, Note_on_c, 1, 48, 0
6, 88160, Note_on_c, 1, 48, 51
6, 88160, Note_on_c, 1, 55, 47
6, 88207, Note_on_c, 1, 48, 0
6, 88218, Note_on_c, 1, 55, 0
6, 88320, Note_on_c, 1, 56, 53
6, 88320, Note_on_c, 1, 59, 50
6, 88377, Note_on_c, 1, 59, 0
6, 88380, Note_on_c, 1, 56, 0
6, 88480, Note_on_c, 1, 59, 48
6, 88480, Note_on_c, 1, 56, 48
6, 88539, Note_on_c, 1, 56, 0
6, 88539, Note_on_c, 1, 59, 0
6, 88640, Note_on_c, 1, 56, 46
6, 88640, Note_on_c, 1, 59, 54
6, 88696, Note_on_c, 1, 59, 0
6, 88701, Note_on_c, 1, 56, 0
6, 88800, Note_on_c, 1, 56, 46
6, 88800, Note_on_c, 1, 59, 55
6, 88854, Note_on_c, 1, 59, 0
6, 88862, Note_on_c, 1, 56, 0
6, 88960, Note_on_c, 1, 56, 46
6, 88960, Note_on_c, 1, 59, 53
6, 89010, Note_on_c, 1, 59, 0
6, 89013, Note_on_c, 1, 56, 0
6, 89120, Note_on_c, 1, 56, 45
6, 89120, Note_on_c, 1, 59, 55
6, 89173, Note_on_c, 1, 59, 0
6, 89179, Note_on_c, 1, 56, 0
6, 89280, Note_on_c, 1, 59, 54
6, 89280, Note_on_c, 1, 55, 49
6, 89338, Note_on_c, 1, 59, 0
6, 89344, Note_on_c, 1, 55, 0
6, 89440, Note_on_c, 1, 59, 53
6, 89440, Note_on_c, 1, 55, 40
6, 89499, Note_on_c, 1, 55, 0
6, 89499, Note_on_c, 1, 59, 0
6, 89600, Note_on_c, 1, 59, 56
6, 89600, Note_on_c, 1, 55, 43
6, 89661, Note_on_c, 1, 59, 0
6, 89667, Note_on_c, 1, 55, 0
6, 89760, Note_on_c, 1, 55, 46
6, 89760, Note_on_c, 1, 62, 59
6, 89818, Note_on_c, 1, 62, 0
6, 89829, Note_on_c, 1, 55, 0
6, 89920, Note_on_c, 1, 55, 47
6, 89920, Note_on_c, 1, 62, 55
6, 89975, Note_on_c, 1, 62, 0
6, 89982, Note_on_c, 1, 55, 0
6, 90080, Note_on_c, 1, 62, 52
6, 90080, Note_on_c, 1, 55, 46
6, 90140, Note_on_c, 1, 62, 0
6, 90147, Note_on_c, 1, 55, 0
6, 90240, Note_on_c, 1, 60, 49
6, 90240, Note_on_c, 1, 54, 45
6, 90300, Note_on_c, 1, 54, 0
6, 90300, Note_on_c, 1, 60, 0
6, 90400, Note_on_c, 1, 54, 52
6, 90400, Note_on_c, 1, 60, 46
6, 90456, Note_on_c, 1, 60, 0
6, 90460, Note_on_c, 1, 54, 0
6, 90560, Note_on_c, 1, 54, 51
6, 90560, Note_on_c, 1, 60, 55
6, 90614, Note_on_c, 1, 60, 0
6, 90618, Note_on_c, 1, 54, 0
6, 90720, Note_on_c, 1, 60, 56
6, 90720, Note_on_c, 1, 54, 43
6, 90768, Note_on_c, 1, 54, 0
6, 90777, Note_on_c, 1, 60, 0
6, 90880, Note_on_c, 1, 54, 55
6, 90880, Note_on_c, 1, 60, 52
6, 90937, Note_on_c, 1, 60, 0
6, 90946, Note_on_c, 1, 54, 0
6, 91040, Note_on_c, 1, 54, 60
6, 91040, Note_on_c, 1, 60, 56
6, 91102, Note_on_c, 1, 60, 0
6, 91112, Note_on_c, 1, 54, 0
6, 91200, Note_on_c, 1, 60, 52
6, 91200, Note_on_c, 1, 57, 42
6, 91254, Note_on_c, 1, 57, 0
6, 91255, Note_on_c, 1, 60, 0
6, 91360, Note_on_c, 1, 60, 56
6, 91360, Note_on_c, 1, 57, 43
6, 91412, Note_on_c, 1, 57, 0
6, 91421, Note_on_c, 1, 60, 0
6, 91520, Note_on_c, 1, 57, 47
6, 91520, Note_on_c, 1, 60, 59
6, 91567, Note_on_c, 1, 57, 0
6, 91569, Note_on_c, 1, 60, 0
6, 91680, Note_on_c, 1, 60, 46
6, 91680, Note_on_c, 1, 63, 59
6, 91736, Note_on_c, 1, 63, 0
6, 91743, Note_on_c, 1, 60, 0
6, 91840, Note_on_c, 1, 60, 46
6, 91840, Note_on_c, 1, 63, 58
6, 91899, Note_on_c, 1, 63, 0
6, 91904, Note_on_c, 1, 60, 0
6, 92000, Note_on_c, 1, 63, 55
6, 92000, Note_on_c, 1, 60, 48
6, 92054, Note_on_c, 1, 60, 0
6, 92063, Note_on_c, 1, 63, 0
6, 92160, Note_on_c, 1, 62, 54
6, 92160, Note_on_c, 1, 60, 48
6, 92218, Note_on_c, 1, 62, 0
6, 92224, Note_on_c, 1, 60, 0
6, 92320, Note_on_c, 1, 60, 51
6, 92320, Note_on_c, 1, 62, 50
6, 92374, Note_on_c, 1, 62, 0
6, 92381, Note_on_c, 1, 60, 0
6, 92480, Note_on_c, 1, 62, 45
6, 92480, Note_on_c, 1, 60, 44
6, 92534, Note_on_c, 1, 62, 0
6, 92536, Note_on_c, 1, 60, 0
6, 92640, Note_on_c, 1, 60, 40
6, 92640, Note_on_c, 1, 62, 51
6, 92692, Note_on_c, 1, 62, 0
6, 92697, Note_on_c, 1, 60, 0
6, 92800, Note_on_c, 1, 60, 47
6, 92800, Note_on_c, 1, 62, 50
6, 92853, Note_on_c, 1, 60, 0
6, 92857, Note_on_c, 1, 62, 0
6, 92960, Note_on_c, 1, 60, 48
6, 92960, Note_on_c, 1, 62, 51
6, 93005, Note_on_c, 1, 62, 0
6, 93010, Note_on_c, 1, 60, 0
6, 93120, Note_on_c, 1, 62, 55
6, 93120, Note_on_c, 1, 59, 50
6, 93174, Note_on_c, 1, 59, 0
6, 93179, Note_on_c, 1, 62, 0
6, 93280, Note_on_c, 1, 59, 52
6, 93280, Note_on_c, 1, 62, 59
6, 93336, Note_on_c, 1, 62, 0
6, 93337, Note_on_c, 1, 59, 0
6, 93440, Note_on_c, 1, 59, 52
6, 93440, Note_on_c, 1, 62, 52
6, 93486, Note_on_c, 1, 62, 0
6, 93489, Note_on_c, 1, 59, 0
6, 93600, Note_on_c, 1, 55, 49
6, 93600, Note_on_c, 1, 59, 59
6, 93658, Note_on_c, 1, 59, 0
6, 93665, Note_on_c, 1, 55, 0
6, 93760, Note_on_c, 1, 59, 56
6, 93760, Note_on_c, 1, 55, 42
6, 93820, Note_on_c, 1, 55, 0
6, 93821, Note_on_c, 1, 59, 0
6, 93920, Note_on_c, 1, 55, 45
6, 93920, Note_on_c, 1, 59, 69
6, 93978, Note_on_c, 1, 59, 0
6, 93981, Note_on_c, 1, 55, 0
6, 94080, Note_on_c, 1, 60, 48
6, 94080, Note_on_c, 1, 55, 37
6, 94536, Note_on_c, 1, 55, 0
6, 94539, Note_on_c, 1, 60, 0
6, 103680, Note_on_c, 1, 52, 53
6, 104122, Note_on_c, 1, 52, 0
6, 104122, End_track
7, 0, Start_track
7, 0, MIDI_port, 0
7, 0, Title_t, "Viola pizz"
7, 42240, Note_on_c, 4, 53, 47
7, 42480, Note_on_c, 4, 53, 0
7, 42720, Note_on_c, 4, 57, 51
7, 42960, Note_on_c, 4, 57, 0
7, 43200, Note_on_c, 4, 60, 47
7, 43440, Note_on_c, 4, 60, 0
7, 44160, Note_on_c, 4, 53, 45
7, 44400, Note_on_c, 4, 53, 0
7, 44640, Note_on_c, 4, 57, 59
7, 44880, Note_on_c, 4, 57, 0
7, 45120, Note_on_c, 4, 60, 51
7, 45360, Note_on_c, 4, 60, 0
7, 46080, Note_on_c, 4, 53, 46
7, 46320, Note_on_c, 4, 53, 0
7, 46560, Note_on_c, 4, 57, 58
7, 46800, Note_on_c, 4, 57, 0
7, 47040, Note_on_c, 4, 60, 59
7, 47280, Note_on_c, 4, 60, 0
7, 47520, Note_on_c, 4, 53, 54
7, 47760, Note_on_c, 4, 53, 0
7, 48000, Note_on_c, 4, 48, 59
7, 48240, Note_on_c, 4, 48, 0
7, 48480, Note_on_c, 4, 52, 52
7, 48720, Note_on_c, 4, 52, 0
7, 48960, Note_on_c, 4, 55, 64
7, 49200, Note_on_c, 4, 55, 0
7, 49920, Note_on_c, 4, 48, 54
7, 50160, Note_on_c, 4, 48, 0
7, 50400, Note_on_c, 4, 52, 52
7, 50640, Note_on_c, 4, 52, 0
7, 50880, Note_on_c, 4, 55, 48
7, 51120, Note_on_c, 4, 55, 0
7, 51840, Note_on_c, 4, 48, 60
7, 52080, Note_on_c, 4, 48, 0
7, 52320, Note_on_c, 4, 52, 50
7, 52560, Note_on_c, 4, 52, 0
7, 52800, Note_on_c, 4, 55, 47
7, 53040, Note_on_c, 4, 55, 0
7, 53280, Note_on_c, 4, 48, 52
7, 53520, Note_on_c, 4, 48, 0
7, 53760, Note_on_c, 4, 53, 52
7, 54000, Note_on_c, 4, 53, 0
7, 54240, Note_on_c, 4, 57, 55
7, 54480, Note_on_c, 4, 57, 0
7, 54720, Note_on_c, 4, 60, 56
7, 54960, Note_on_c, 4, 60, 0
7, 55680, Note_on_c, 4, 45, 54
7, 55920, Note_on_c, 4, 45, 0
7, 56160, Note_on_c, 4, 48, 49
7, 56400, Note_on_c, 4, 48, 0
7, 56640, Note_on_c, 4, 53, 49
7, 56880, Note_on_c, 4, 53, 0
7, 57600, Note_on_c, 4, 46, 51
7, 57840, Note_on_c, 4, 46, 0
7, 58080, Note_on_c, 4, 50, 56
7, 58320, Note_on_c, 4, 50, 0
7, 58560, Note_on_c, 4, 53, 56
7, 58800, Note_on_c, 4, 53, 0
7, 59520, Note_on_c, 4, 47, 60
7, 59760, Note_on_c, 4, 47, 0
7, 60000, Note_on_c, 4, 50, 44
7, 60240, Note_on_c, 4, 50, 0
7, 60480, Note_on_c, 4, 53, 52
7, 60720, Note_on_c, 4, 53, 0
7, 61440, Note_on_c, 4, 48, 46
7, 61680, Note_on_c, 4, 48, 0
7, 61920, Note_on_c, 4, 53, 54
7, 62160, Note_on_c, 4, 53, 0
7, 62400, Note_on_c, 4, 57, 62
7, 62640, Note_on_c, 4, 57, 0
7, 62880, Note_on_c, 4, 60, 61
7, 63120, Note_on_c, 4, 60, 0
7, 63360, Note_on_c, 4, 58, 46
7, 63600, Note_on_c, 4, 58, 0
7, 63840, Note_on_c, 4, 55, 47
7, 64080, Note_on_c, 4, 55, 0
7, 64320, Note_on_c, 4, 60, 51
7, 64560, Note_on_c, 4, 60, 0
7, 64800, Note_on_c, 4, 48, 50
7, 65040, Note_on_c, 4, 48, 0
7, 65760, Note_on_c, 4, 57, 55
7, 66000, Note_on_c, 4, 57, 0
7, 66240, Note_on_c, 4, 60, 39
7, 66480, Note_on_c, 4, 60, 0
7, 67200, Note_on_c, 4, 52, 49
7, 67440, Note_on_c, 4, 52, 0
7, 67680, Note_on_c, 4, 55, 47
7, 67920, Note_on_c, 4, 55, 0
7, 68160, Note_on_c, 4, 57, 50
7, 68400, Note_on_c, 4, 57, 0
7, 68640, Note_on_c, 4, 45, 57
7, 68880, Note_on_c, 4, 45, 0
7, 68880, End_track
8, 0, Start_track
8, 0, MIDI_port, 0
8, 0, Title_t, "Cello"
8, 0, Program_c, 3, 48
8, 0, Control_c, 3, 7, 105
8, 0, Control_c, 3, 10, 90
8, 0, Pitch_bend_c, 3, 8192
8, 0, Control_c, 3, 93, 0
8, 0, Control_c, 3, 64, 0
8, 0, Control_c, 3, 91, 120
8, 69120, Note_on_c, 3, 50, 49
8, 69600, Note_on_c, 3, 50, 0
8, 70080, Note_on_c, 3, 62, 57
8, 70320, Note_on_c, 3, 62, 0
8, 70560, Note_on_c, 3, 57, 54
8, 70800, Note_on_c, 3, 57, 0
8, 71040, Note_on_c, 3, 50, 44
8, 71520, Note_on_c, 3, 50, 0
8, 72000, Note_on_c, 3, 50, 46
8, 72480, Note_on_c, 3, 50, 0
8, 72960, Note_on_c, 3, 48, 104
8, 73440, Note_on_c, 3, 48, 0
8, 73920, Note_on_c, 3, 48, 56
8, 74400, Note_on_c, 3, 48, 0
8, 74880, Note_on_c, 3, 53, 54
8, 75360, Note_on_c, 3, 53, 0
8, 75360, End_track
9, 0, Start_track
9, 0, MIDI_port, 0
9, 0, Title_t, "Cello pizz"
9, 94080, Note_on_c, 4, 52, 54
9, 94320, Note_on_c, 4, 52, 0
9, 94560, Note_on_c, 4, 60, 59
9, 94800, Note_on_c, 4, 60, 0
9, 95040, Note_on_c, 4, 53, 56
9, 95280, Note_on_c, 4, 53, 0
9, 95520, Note_on_c, 4, 62, 51
9, 95760, Note_on_c, 4, 62, 0
9, 96000, Note_on_c, 4, 55, 59
9, 96240, Note_on_c, 4, 55, 0
9, 96480, Note_on_c, 4, 53, 54
9, 96720, Note_on_c, 4, 53, 0
9, 96960, Note_on_c, 4, 55, 56
9, 97200, Note_on_c, 4, 55, 0
9, 97440, Note_on_c, 4, 55, 64
9, 97680, Note_on_c, 4, 55, 0
9, 97920, Note_on_c, 4, 56, 61
9, 98160, Note_on_c, 4, 56, 0
9, 98400, Note_on_c, 4, 57, 62
9, 98640, Note_on_c, 4, 57, 0
9, 98880, Note_on_c, 4, 55, 58
9, 99120, Note_on_c, 4, 55, 0
9, 99360, Note_on_c, 4, 53, 54
9, 99600, Note_on_c, 4, 53, 0
9, 99840, Note_on_c, 4, 52, 52
9, 100080, Note_on_c, 4, 52, 0
9, 100320, Note_on_c, 4, 48, 56
9, 100560, Note_on_c, 4, 48, 0
9, 100800, Note_on_c, 4, 53, 61
9, 101040, Note_on_c, 4, 53, 0
9, 101280, Note_on_c, 4, 50, 56
9, 101520, Note_on_c, 4, 50, 0
9, 101760, Note_on_c, 4, 55, 55
9, 102000, Note_on_c, 4, 55, 0
9, 102240, Note_on_c, 4, 53, 61
9, 102480, Note_on_c, 4, 53, 0
9, 102720, Note_on_c, 4, 55, 57
9, 102960, Note_on_c, 4, 55, 0
9, 103200, Note_on_c, 4, 43, 64
9, 103440, Note_on_c, 4, 43, 0
9, 103680, Note_on_c, 4, 48, 58
9, 104080, Note_on_c, 4, 48, 0
9, 104080, End_track
10, 0, Start_track
10, 0, MIDI_port, 0
10, 0, Title_t, "Bass"
10, 20, Note_on_c, 3, 41, 48
10, 260, Note_on_c, 3, 41, 0
10, 480, Note_on_c, 3, 45, 47
10, 720, Note_on_c, 3, 45, 0
10, 960, Note_on_c, 3, 48, 54
10, 1200, Note_on_c, 3, 48, 0
10, 1920, Note_on_c, 3, 41, 48
10, 2160, Note_on_c, 3, 41, 0
10, 2400, Note_on_c, 3, 45, 43
10, 2640, Note_on_c, 3, 45, 0
10, 2880, Note_on_c, 3, 48, 43
10, 3120, Note_on_c, 3, 48, 0
10, 3840, Note_on_c, 3, 41, 44
10, 4080, Note_on_c, 3, 41, 0
10, 4320, Note_on_c, 3, 45, 41
10, 4560, Note_on_c, 3, 45, 0
10, 4800, Note_on_c, 3, 48, 56
10, 5040, Note_on_c, 3, 48, 0
10, 5280, Note_on_c, 3, 41, 53
10, 5520, Note_on_c, 3, 41, 0
10, 5760, Note_on_c, 3, 36, 44
10, 6000, Note_on_c, 3, 36, 0
10, 6240, Note_on_c, 3, 40, 37
10, 6480, Note_on_c, 3, 40, 0
10, 6720, Note_on_c, 3, 43, 56
10, 6960, Note_on_c, 3, 43, 0
10, 7680, Note_on_c, 3, 36, 45
10, 7920, Note_on_c, 3, 36, 0
10, 8160, Note_on_c, 3, 40, 40
10, 8400, Note_on_c, 3, 40, 0
10, 8640, Note_on_c, 3, 43, 55
10, 8880, Note_on_c, 3, 43, 0
10, 9600, Note_on_c, 3, 36, 44
10, 9840, Note_on_c, 3, 36, 0
10, 10080, Note_on_c, 3, 40, 49
10, 10320, Note_on_c, 3, 40, 0
10, 10560, Note_on_c, 3, 43, 56
10, 10800, Note_on_c, 3, 43, 0
10, 11040, Note_on_c, 3, 36, 64
10, 11280, Note_on_c, 3, 36, 0
10, 11520, Note_on_c, 3, 41, 54
10, 11760, Note_on_c, 3, 41, 0
10, 12000, Note_on_c, 3, 45, 59
10, 12240, Note_on_c, 3, 45, 0
10, 12480, Note_on_c, 3, 48, 54
10, 12720, Note_on_c, 3, 48, 0
10, 13440, Note_on_c, 3, 33, 94
10, 13680, Note_on_c, 3, 33, 0
10, 13920, Note_on_c, 3, 36, 106
10, 14160, Note_on_c, 3, 36, 0
10, 14400, Note_on_c, 3, 41, 68
10, 14640, Note_on_c, 3, 41, 0
10, 15360, Note_on_c, 3, 34, 60
10, 15600, Note_on_c, 3, 34, 0
10, 15840, Note_on_c, 3, 38, 77
10, 16080, Note_on_c, 3, 38, 0
10, 16320, Note_on_c, 3, 41, 74
10, 16560, Note_on_c, 3, 41, 0
10, 17280, Note_on_c, 3, 35, 106
10, 17520, Note_on_c, 3, 35, 0
10, 17760, Note_on_c, 3, 38, 106
10, 18000, Note_on_c, 3, 38, 0
10, 18240, Note_on_c, 3, 41, 55
10, 18480, Note_on_c, 3, 41, 0
10, 19200, Note_on_c, 3, 36, 66
10, 19440, Note_on_c, 3, 36, 0
10, 19680, Note_on_c, 3, 41, 71
10, 19920, Note_on_c, 3, 41, 0
10, 20160, Note_on_c, 3, 44, 66
10, 20400, Note_on_c, 3, 44, 0
10, 21120, Note_on_c, 3, 36, 58
10, 21360, Note_on_c, 3, 36, 0
10, 21600, Note_on_c, 3, 43, 63
10, 21840, Note_on_c, 3, 43, 0
10, 22080, Note_on_c, 3, 46, 71
10, 22320, Note_on_c, 3, 46, 0
10, 23040, Note_on_c, 3, 36, 45
10, 23280, Note_on_c, 3, 36, 0
10, 23520, Note_on_c, 3, 44, 74
10, 23760, Note_on_c, 3, 44, 0
10, 24000, Note_on_c, 3, 48, 76
10, 24240, Note_on_c, 3, 48, 0
10, 24960, Note_on_c, 3, 36, 61
10, 25200, Note_on_c, 3, 36, 0
10, 25440, Note_on_c, 3, 40, 60
10, 25680, Note_on_c, 3, 40, 0
10, 25920, Note_on_c, 3, 43, 74
10, 26160, Note_on_c, 3, 43, 0
10, 26880, Note_on_c, 3, 48, 57
10, 27120, Note_on_c, 3, 48, 0
10, 27360, Note_on_c, 3, 53, 60
10, 27600, Note_on_c, 3, 53, 0
10, 27840, Note_on_c, 3, 56, 67
10, 28080, Note_on_c, 3, 56, 0
10, 28800, Note_on_c, 3, 48, 65
10, 29040, Note_on_c, 3, 48, 0
10, 29280, Note_on_c, 3, 55, 72
10, 29520, Note_on_c, 3, 55, 0
10, 29760, Note_on_c, 3, 58, 75
10, 30000, Note_on_c, 3, 58, 0
10, 30240, Note_on_c, 3, 46, 66
10, 30480, Note_on_c, 3, 46, 0
10, 30720, Note_on_c, 3, 45, 69
10, 30960, Note_on_c, 3, 45, 0
10, 31200, Note_on_c, 3, 53, 68
10, 31440, Note_on_c, 3, 53, 0
10, 31680, Note_on_c, 3, 46, 63
10, 31920, Note_on_c, 3, 46, 0
10, 32160, Note_on_c, 3, 55, 68
10, 32400, Note_on_c, 3, 55, 0
10, 32640, Note_on_c, 3, 48, 74
10, 32880, Note_on_c, 3, 48, 0
10, 33120, Note_on_c, 3, 46, 65
10, 33360, Note_on_c, 3, 46, 0
10, 33600, Note_on_c, 3, 48, 72
10, 33840, Note_on_c, 3, 48, 0
10, 34080, Note_on_c, 3, 48, 71
10, 34320, Note_on_c, 3, 48, 0
10, 34560, Note_on_c, 3, 49, 69
10, 34800, Note_on_c, 3, 49, 0
10, 35040, Note_on_c, 3, 50, 69
10, 35280, Note_on_c, 3, 50, 0
10, 35520, Note_on_c, 3, 48, 71
10, 35760, Note_on_c, 3, 48, 0
10, 36000, Note_on_c, 3, 46, 60
10, 36240, Note_on_c, 3, 46, 0
10, 36480, Note_on_c, 3, 45, 75
10, 36720, Note_on_c, 3, 45, 0
10, 36960, Note_on_c, 3, 53, 53
10, 37200, Note_on_c, 3, 53, 0
10, 37440, Note_on_c, 3, 46, 71
10, 37680, Note_on_c, 3, 46, 0
10, 37920, Note_on_c, 3, 55, 60
10, 38160, Note_on_c, 3, 55, 0
10, 38400, Note_on_c, 3, 48, 72
10, 38640, Note_on_c, 3, 48, 0
10, 38880, Note_on_c, 3, 46, 66
10, 39120, Note_on_c, 3, 46, 0
10, 39360, Note_on_c, 3, 48, 71
10, 39600, Note_on_c, 3, 48, 0
10, 39840, Note_on_c, 3, 48, 63
10, 40080, Note_on_c, 3, 48, 0
10, 40320, Note_on_c, 3, 53, 67
10, 40800, Note_on_c, 3, 53, 0
10, 69120, Note_on_c, 3, 38, 49
10, 69600, Note_on_c, 3, 38, 0
10, 70080, Note_on_c, 3, 50, 57
10, 70320, Note_on_c, 3, 50, 0
10, 70560, Note_on_c, 3, 45, 54
10, 70800, Note_on_c, 3, 45, 0
10, 71040, Note_on_c, 3, 38, 44
10, 71520, Note_on_c, 3, 38, 0
10, 72000, Note_on_c, 3, 38, 46
10, 72480, Note_on_c, 3, 38, 0
10, 72960, Note_on_c, 3, 36, 104
10, 73440, Note_on_c, 3, 36, 0
10, 73920, Note_on_c, 3, 36, 56
10, 74400, Note_on_c, 3, 36, 0
10, 74880, Note_on_c, 3, 41, 54
10, 75360, Note_on_c, 3, 41, 0
10, 75360, End_track
11, 0, Start_track
11, 0, MIDI_port, 0
11, 0, Title_t, "Bass pizz"
11, 42240, Note_on_c, 4, 41, 47
11, 42480, Note_on_c, 4, 41, 0
11, 42720, Note_on_c, 4, 45, 51
11, 42960, Note_on_c, 4, 45, 0
11, 43200, Note_on_c, 4, 48, 47
11, 43440, Note_on_c, 4, 48, 0
11, 44160, Note_on_c, 4, 41, 45
11, 44400, Note_on_c, 4, 41, 0
11, 44640, Note_on_c, 4, 45, 59
11, 44880, Note_on_c, 4, 45, 0
11, 45120, Note_on_c, 4, 48, 51
11, 45360, Note_on_c, 4, 48, 0
11, 46080, Note_on_c, 4, 41, 46
11, 46320, Note_on_c, 4, 41, 0
11, 46560, Note_on_c, 4, 45, 58
11, 46800, Note_on_c, 4, 45, 0
11, 47040, Note_on_c, 4, 48, 59
11, 47280, Note_on_c, 4, 48, 0
11, 47520, Note_on_c, 4, 41, 54
11, 47760, Note_on_c, 4, 41, 0
11, 48000, Note_on_c, 4, 36, 59
11, 48240, Note_on_c, 4, 36, 0
11, 48480, Note_on_c, 4, 40, 52
11, 48720, Note_on_c, 4, 40, 0
11, 48960, Note_on_c, 4, 43, 64
11, 49200, Note_on_c, 4, 43, 0
11, 49920, Note_on_c, 4, 36, 54
11, 50160, Note_on_c, 4, 36, 0
11, 50400, Note_on_c, 4, 40, 52
11, 50640, Note_on_c, 4, 40, 0
11, 50880, Note_on_c, 4, 43, 48
11, 51120, Note_on_c, 4, 43, 0
11, 51840, Note_on_c, 4, 36, 60
11, 52080, Note_on_c, 4, 36, 0
11, 52320, Note_on_c, 4, 40, 50
11, 52560, Note_on_c, 4, 40, 0
11, 52800, Note_on_c, 4, 43, 47
11, 53040, Note_on_c, 4, 43, 0
11, 53280, Note_on_c, 4, 36, 52
11, 53520, Note_on_c, 4, 36, 0
11, 53760, Note_on_c, 4, 41, 52
11, 54000, Note_on_c, 4, 41, 0
11, 54240, Note_on_c, 4, 45, 55
11, 54480, Note_on_c, 4, 45, 0
11, 54720, Note_on_c, 4, 48, 56
11, 54960, Note_on_c, 4, 48, 0
11, 55680, Note_on_c, 4, 33, 54
11, 55920, Note_on_c, 4, 33, 0
11, 56160, Note_on_c, 4, 36, 49
11, 56400, Note_on_c, 4, 36, 0
11, 56640, Note_on_c, 4, 41, 49
11, 56880, Note_on_c, 4, 41, 0
11, 57600, Note_on_c, 4, 34, 51
11, 57840, Note_on_c, 4, 34, 0
11, 58080, Note_on_c, 4, 38, 56
11, 58320, Note_on_c, 4, 38, 0
11, 58560, Note_on_c, 4, 41, 56
11, 58800, Note_on_c, 4, 41, 0
11, 59520, Note_on_c, 4, 35, 60
11, 59760, Note_on_c, 4, 35, 0
11, 60000, Note_on_c, 4, 38, 44
11, 60240, Note_on_c, 4, 38, 0
11, 60480, Note_on_c, 4, 41, 52
11, 60720, Note_on_c, 4, 41, 0
11, 61440, Note_on_c, 4, 36, 46
11, 61680, Note_on_c, 4, 36, 0
11, 61920, Note_on_c, 4, 41, 54
11, 62160, Note_on_c, 4, 41, 0
11, 62400, Note_on_c, 4, 45, 62
11, 62640, Note_on_c, 4, 45, 0
11, 62880, Note_on_c, 4, 48, 61
11, 63120, Note_on_c, 4, 48, 0
11, 63360, Note_on_c, 4, 46, 46
11, 63600, Note_on_c, 4, 46, 0
11, 63840, Note_on_c, 4, 43, 47
11, 64080, Note_on_c, 4, 43, 0
11, 64320, Note_on_c, 4, 48, 51
11, 64560, Note_on_c, 4, 48, 0
11, 64800, Note_on_c, 4, 36, 50
11, 65040, Note_on_c, 4, 36, 0
11, 65760, Note_on_c, 4, 45, 55
11, 66000, Note_on_c, 4, 45, 0
11, 66240, Note_on_c, 4, 48, 39
11, 66480, Note_on_c, 4, 48, 0
11, 67200, Note_on_c, 4, 40, 49
11, 67440, Note_on_c, 4, 40, 0
11, 67680, Note_on_c, 4, 43, 47
11, 67920, Note_on_c, 4, 43, 0
11, 68160, Note_on_c, 4, 45, 50
11, 68400, Note_on_c, 4, 45, 0
11, 68640, Note_on_c, 4, 33, 57
11, 68880, Note_on_c, 4, 33, 0
11, 76800, Note_on_c, 4, 40, 51
11, 77040, Note_on_c, 4, 40, 0
11, 77280, Note_on_c, 4, 43, 52
11, 77520, Note_on_c, 4, 43, 0
11, 77760, Note_on_c, 4, 48, 54
11, 78000, Note_on_c, 4, 48, 0
11, 78720, Note_on_c, 4, 41, 55
11, 78960, Note_on_c, 4, 41, 0
11, 79200, Note_on_c, 4, 45, 59
11, 79440, Note_on_c, 4, 45, 0
11, 79680, Note_on_c, 4, 50, 56
11, 79920, Note_on_c, 4, 50, 0
11, 80640, Note_on_c, 4, 42, 57
11, 80880, Note_on_c, 4, 42, 0
11, 81120, Note_on_c, 4, 45, 54
11, 81360, Note_on_c, 4, 45, 0
11, 81600, Note_on_c, 4, 50, 57
11, 81840, Note_on_c, 4, 50, 0
11, 82560, Note_on_c, 4, 43, 58
11, 83040, Note_on_c, 4, 43, 0
11, 84480, Note_on_c, 4, 43, 51
11, 84720, Note_on_c, 4, 43, 0
11, 84960, Note_on_c, 4, 50, 62
11, 85200, Note_on_c, 4, 50, 0
11, 85440, Note_on_c, 4, 53, 50
11, 85680, Note_on_c, 4, 53, 0
11, 86400, Note_on_c, 4, 43, 58
11, 86640, Note_on_c, 4, 43, 0
11, 86880, Note_on_c, 4, 51, 62
11, 87120, Note_on_c, 4, 51, 0
11, 87360, Note_on_c, 4, 55, 59
11, 87600, Note_on_c, 4, 55, 0
11, 88320, Note_on_c, 4, 43, 52
11, 88560, Note_on_c, 4, 43, 0
11, 88800, Note_on_c, 4, 47, 51
11, 89040, Note_on_c, 4, 47, 0
11, 89280, Note_on_c, 4, 50, 62
11, 89520, Note_on_c, 4, 50, 0
11, 90240, Note_on_c, 4, 43, 57
11, 90480, Note_on_c, 4, 43, 0
11, 90720, Note_on_c, 4, 48, 62
11, 90960, Note_on_c, 4, 48, 0
11, 91200, Note_on_c, 4, 51, 68
11, 91440, Note_on_c, 4, 51, 0
11, 92160, Note_on_c, 4, 43, 54
11, 92400, Note_on_c, 4, 43, 0
11, 92640, Note_on_c, 4, 50, 52
11, 92880, Note_on_c, 4, 50, 0
11, 93120, Note_on_c, 4, 53, 51
11, 93360, Note_on_c, 4, 53, 0
11, 93600, Note_on_c, 4, 41, 64
11, 93840, Note_on_c, 4, 41, 0
11, 94080, Note_on_c, 4, 40, 54
11, 94320, Note_on_c, 4, 40, 0
11, 94560, Note_on_c, 4, 48, 59
11, 94800, Note_on_c, 4, 48, 0
11, 95040, Note_on_c, 4, 41, 56
11, 95280, Note_on_c, 4, 41, 0
11, 95520, Note_on_c, 4, 50, 51
11, 95760, Note_on_c, 4, 50, 0
11, 96000, Note_on_c, 4, 43, 59
11, 96240, Note_on_c, 4, 43, 0
11, 96480, Note_on_c, 4, 41, 54
11, 96720, Note_on_c, 4, 41, 0
11, 96960, Note_on_c, 4, 43, 56
11, 97200, Note_on_c, 4, 43, 0
11, 97440, Note_on_c, 4, 43, 64
11, 97680, Note_on_c, 4, 43, 0
11, 97920, Note_on_c, 4, 44, 61
11, 98160, Note_on_c, 4, 44, 0
11, 98400, Note_on_c, 4, 45, 62
11, 98640, Note_on_c, 4, 45, 0
11, 98880, Note_on_c, 4, 43, 58
11, 99120, Note_on_c, 4, 43, 0
11, 99360, Note_on_c, 4, 41, 54
11, 99600, Note_on_c, 4, 41, 0
11, 99840, Note_on_c, 4, 40, 52
11, 100080, Note_on_c, 4, 40, 0
11, 100320, Note_on_c, 4, 36, 56
11, 100560, Note_on_c, 4, 36, 0
11, 100800, Note_on_c, 4, 41, 61
11, 101040, Note_on_c, 4, 41, 0
11, 101280, Note_on_c, 4, 38, 56
11, 101520, Note_on_c, 4, 38, 0
11, 101760, Note_on_c, 4, 43, 55
11, 102000, Note_on_c, 4, 43, 0
11, 102240, Note_on_c, 4, 41, 61
11, 102480, Note_on_c, 4, 41, 0
11, 102720, Note_on_c, 4, 43, 57
11, 102960, Note_on_c, 4, 43, 0
11, 103200, Note_on_c, 4, 31, 64
11, 103440, Note_on_c, 4, 31, 0
11, 103680, Note_on_c, 4, 36, 58
11, 104080, Note_on_c, 4, 36, 0
11, 104080, End_track
12, 0, Start_track
12, 0, MIDI_port, 0
12, 0, Title_t, "Piano Solo RH"
12, 0, Program_c, 0, 0
12, 0, Control_c, 0, 7, 120
12, 0, Control_c, 0, 10, 64
12, 0, Control_c, 0, 64, 0
12, 0, Pitch_bend_c, 0, 8192
12, 0, Control_c, 0, 93, 0
12, 0, Control_c, 0, 91, 100
12, 42316, Control_c, 0, 64, 127
12, 43207, Control_c, 0, 64, 0
12, 43277, Control_c, 0, 64, 127
12, 44150, Control_c, 0, 64, 0
12, 44157, Note_on_c, 0, 77, 98
12, 44278, Control_c, 0, 64, 127
12, 45009, Note_on_c, 0, 72, 90
12, 45036, Note_on_c, 0, 77, 0
12, 45125, Note_on_c, 0, 81, 114
12, 45132, Note_on_c, 0, 72, 0
12, 45168, Control_c, 0, 64, 0
12, 45276, Control_c, 0, 64, 127
12, 45978, Note_on_c, 0, 77, 98
12, 46001, Note_on_c, 0, 81, 0
12, 46092, Note_on_c, 0, 84, 100
12, 46095, Control_c, 0, 64, 0
12, 46105, Note_on_c, 0, 77, 0
12, 46239, Control_c, 0, 64, 127
12, 47035, Control_c, 0, 64, 0
12, 47109, Control_c, 0, 64, 127
12, 47515, Note_on_c, 0, 82, 94
12, 47529, Note_on_c, 0, 84, 0
12, 47552, Control_c, 0, 64, 0
12, 47616, Control_c, 0, 64, 127
12, 47637, Note_on_c, 0, 81, 90
12, 47676, Note_on_c, 0, 82, 0
12, 47760, Note_on_c, 0, 79, 90
12, 47780, Note_on_c, 0, 81, 0
12, 47867, Note_on_c, 0, 79, 0
12, 47870, Note_on_c, 0, 77, 74
12, 47963, Note_on_c, 0, 77, 0
12, 47986, Note_on_c, 0, 78, 90
12, 48006, Control_c, 0, 64, 0
12, 48145, Control_c, 0, 64, 127
12, 48476, Note_on_c, 0, 79, 98
12, 48499, Note_on_c, 0, 78, 0
12, 48499, Control_c, 0, 64, 0
12, 48559, Control_c, 0, 64, 127
12, 48960, Control_c, 0, 64, 0
12, 49041, Control_c, 0, 64, 127
12, 49821, Note_on_c, 0, 79, 0
12, 49926, Note_on_c, 0, 72, 105
12, 49950, Control_c, 0, 64, 0
12, 50102, Control_c, 0, 64, 127
12, 50883, Note_on_c, 0, 76, 100
12, 50896, Control_c, 0, 64, 0
12, 50899, Note_on_c, 0, 72, 0
12, 51019, Control_c, 0, 64, 127
12, 51356, Note_on_c, 0, 79, 102
12, 51360, Note_on_c, 0, 76, 0
12, 51842, Note_on_c, 0, 82, 100
12, 51849, Control_c, 0, 64, 0
12, 51870, Note_on_c, 0, 79, 0
12, 51993, Control_c, 0, 64, 127
12, 52822, Control_c, 0, 64, 0
12, 52902, Control_c, 0, 64, 127
12, 53034, Note_on_c, 0, 86, 98
12, 53051, Note_on_c, 0, 82, 0
12, 53276, Note_on_c, 0, 84, 94
12, 53295, Note_on_c, 0, 86, 0
12, 53516, Note_on_c, 0, 82, 89
12, 53549, Note_on_c, 0, 84, 0
12, 53764, Note_on_c, 0, 80, 90
12, 53789, Note_on_c, 0, 82, 0
12, 53796, Control_c, 0, 64, 0
12, 53913, Control_c, 0, 64, 127
12, 54000, Note_on_c, 0, 81, 70
12, 54088, Note_on_c, 0, 81, 0
12, 54130, Note_on_c, 0, 80, 0
12, 54240, Note_on_c, 0, 81, 100
12, 54699, Control_c, 0, 64, 0
12, 54773, Control_c, 0, 64, 127
12, 55268, Note_on_c, 0, 81, 0
12, 55679, Note_on_c, 0, 84, 102
12, 55693, Control_c, 0, 64, 0
12, 55860, Control_c, 0, 64, 127
12, 56190, Note_on_c, 0, 84, 0
12, 56647, Note_on_c, 0, 45, 102
12, 56663, Control_c, 0, 64, 0
12, 56810, Control_c, 0, 64, 127
12, 57275, Note_on_c, 0, 45, 0
12, 57357, Note_on_c, 0, 45, 98
12, 57599, Note_on_c, 0, 48, 90
12, 57611, Note_on_c, 0, 45, 0
12, 57618, Control_c, 0, 64, 0
12, 57762, Control_c, 0, 64, 127
12, 57823, Note_on_c, 0, 46, 86
12, 57843, Note_on_c, 0, 48, 0
12, 57967, Note_on_c, 0, 46, 0
12, 58063, Note_on_c, 0, 46, 98
12, 58102, Control_c, 0, 64, 0
12, 58198, Control_c, 0, 64, 127
12, 58587, Control_c, 0, 64, 0
12, 58668, Control_c, 0, 64, 127
12, 58796, Note_on_c, 0, 46, 0
12, 59521, Note_on_c, 0, 86, 102
12, 59552, Control_c, 0, 64, 0
12, 59707, Control_c, 0, 64, 127
12, 59931, Note_on_c, 0, 86, 0
12, 60484, Note_on_c, 0, 47, 105
12, 60513, Control_c, 0, 64, 0
12, 60667, Control_c, 0, 64, 127
12, 61143, Note_on_c, 0, 47, 0
12, 61184, Note_on_c, 0, 47, 101
12, 61440, Note_on_c, 0, 48, 98
12, 61457, Note_on_c, 0, 47, 0
12, 61460, Control_c, 0, 64, 0
12, 61585, Control_c, 0, 64, 127
12, 61617, Note_on_c, 0, 48, 0
12, 61917, Note_on_c, 0, 84, 102
12, 62435, Control_c, 0, 64, 0
12, 62484, Control_c, 0, 64, 127
12, 62880, Note_on_c, 0, 82, 94
12, 62912, Note_on_c, 0, 84, 0
12, 62997, Note_on_c, 0, 81, 98
12, 63033, Note_on_c, 0, 82, 0
12, 63116, Note_on_c, 0, 79, 90
12, 63136, Note_on_c, 0, 81, 0
12, 63234, Note_on_c, 0, 77, 86
12, 63243, Note_on_c, 0, 79, 0
12, 63296, Note_on_c, 0, 77, 0
12, 63349, Note_on_c, 0, 77, 90
12, 63398, Control_c, 0, 64, 0
12, 63444, Note_on_c, 0, 76, 90
12, 63454, Note_on_c, 0, 77, 0
12, 63491, Control_c, 0, 64, 127
12, 63501, Note_on_c, 0, 77, 94
12, 63511, Note_on_c, 0, 76, 0
12, 63563, Note_on_c, 0, 76, 81
12, 63567, Note_on_c, 0, 77, 0
12, 63605, Note_on_c, 0, 77, 81
12, 63613, Note_on_c, 0, 76, 0
12, 63655, Note_on_c, 0, 76, 82
12, 63658, Note_on_c, 0, 77, 0
12, 63694, Note_on_c, 0, 77, 74
12, 63704, Note_on_c, 0, 76, 0
12, 63735, Note_on_c, 0, 76, 86
12, 63741, Note_on_c, 0, 77, 0
12, 63770, Note_on_c, 0, 77, 78
12, 63787, Note_on_c, 0, 76, 0
12, 63813, Note_on_c, 0, 77, 0
12, 63817, Note_on_c, 0, 76, 78
12, 63844, Note_on_c, 0, 77, 82
12, 63861, Note_on_c, 0, 76, 0
12, 63884, Note_on_c, 0, 77, 0
12, 63891, Note_on_c, 0, 76, 74
12, 63907, Note_on_c, 0, 77, 86
12, 63924, Note_on_c, 0, 76, 0
12, 63957, Note_on_c, 0, 77, 0
12, 63960, Note_on_c, 0, 76, 88
12, 63982, Note_on_c, 0, 77, 79
12, 64001, Note_on_c, 0, 76, 0
12, 64030, Note_on_c, 0, 77, 0
12, 64036, Note_on_c, 0, 76, 89
12, 64055, Note_on_c, 0, 77, 80
12, 64078, Note_on_c, 0, 76, 0
12, 64103, Note_on_c, 0, 77, 0
12, 64105, Note_on_c, 0, 76, 86
12, 64135, Note_on_c, 0, 77, 74
12, 64152, Note_on_c, 0, 76, 0
12, 64178, Note_on_c, 0, 77, 0
12, 64180, Note_on_c, 0, 76, 86
12, 64208, Note_on_c, 0, 77, 69
12, 64227, Note_on_c, 0, 76, 0
12, 64249, Note_on_c, 0, 77, 0
12, 64254, Note_on_c, 0, 76, 68
12, 64276, Note_on_c, 0, 77, 81
12, 64300, Note_on_c, 0, 76, 0
12, 64320, Note_on_c, 0, 77, 0
12, 64321, Note_on_c, 0, 76, 78
12, 64350, Note_on_c, 0, 77, 78
12, 64368, Note_on_c, 0, 76, 0
12, 64394, Note_on_c, 0, 77, 0
12, 64400, Note_on_c, 0, 76, 74
12, 64426, Note_on_c, 0, 77, 74
12, 64448, Note_on_c, 0, 76, 0
12, 64472, Note_on_c, 0, 77, 0
12, 64475, Note_on_c, 0, 76, 82
12, 64507, Note_on_c, 0, 77, 72
12, 64524, Note_on_c, 0, 76, 0
12, 64548, Note_on_c, 0, 77, 0
12, 64555, Note_on_c, 0, 76, 71
12, 64579, Control_c, 0, 64, 0
12, 64580, Note_on_c, 0, 77, 71
12, 64598, Control_c, 0, 64, 127
12, 64599, Note_on_c, 0, 76, 0
12, 64624, Note_on_c, 0, 77, 0
12, 64630, Note_on_c, 0, 76, 74
12, 64666, Note_on_c, 0, 77, 80
12, 64676, Note_on_c, 0, 76, 0
12, 64696, Note_on_c, 0, 77, 0
12, 64713, Note_on_c, 0, 76, 64
12, 64740, Note_on_c, 0, 77, 90
12, 64751, Note_on_c, 0, 76, 0
12, 64783, Note_on_c, 0, 77, 0
12, 64787, Note_on_c, 0, 76, 74
12, 64818, Note_on_c, 0, 77, 72
12, 64833, Note_on_c, 0, 76, 0
12, 64862, Note_on_c, 0, 77, 0
12, 64867, Note_on_c, 0, 76, 72
12, 64908, Note_on_c, 0, 77, 81
12, 64925, Note_on_c, 0, 76, 0
12, 64948, Note_on_c, 0, 77, 0
12, 64954, Note_on_c, 0, 76, 61
12, 64992, Note_on_c, 0, 77, 90
12, 65003, Note_on_c, 0, 76, 0
12, 65042, Note_on_c, 0, 76, 80
12, 65069, Note_on_c, 0, 77, 0
12, 65120, Note_on_c, 0, 74, 86
12, 65129, Note_on_c, 0, 76, 0
12, 65200, Note_on_c, 0, 76, 81
12, 65215, Note_on_c, 0, 74, 0
12, 65289, Note_on_c, 0, 77, 90
12, 65304, Note_on_c, 0, 76, 0
12, 65318, Control_c, 0, 64, 0
12, 65782, Note_on_c, 0, 77, 0
12, 69123, Note_on_c, 0, 69, 114
12, 69151, Control_c, 0, 64, 127
12, 69295, Note_on_c, 0, 81, 108
12, 69323, Note_on_c, 0, 69, 0
12, 69429, Note_on_c, 0, 81, 0
12, 69613, Note_on_c, 0, 81, 103
12, 69644, Control_c, 0, 64, 0
12, 70128, Control_c, 0, 64, 127
12, 70252, Note_on_c, 0, 77, 84
12, 70283, Note_on_c, 0, 81, 0
12, 70397, Note_on_c, 0, 77, 0
12, 70401, Note_on_c, 0, 74, 80
12, 70560, Note_on_c, 0, 79, 92
12, 70565, Note_on_c, 0, 74, 0
12, 70575, Control_c, 0, 64, 0
12, 70723, Note_on_c, 0, 76, 84
12, 70736, Control_c, 0, 64, 127
12, 70743, Note_on_c, 0, 79, 0
12, 70883, Note_on_c, 0, 73, 92
12, 70886, Note_on_c, 0, 76, 0
12, 71044, Note_on_c, 0, 74, 92
12, 71055, Note_on_c, 0, 73, 0
12, 71059, Control_c, 0, 64, 0
12, 71155, Control_c, 0, 64, 127
12, 71183, Note_on_c, 0, 76, 83
12, 71187, Note_on_c, 0, 74, 0
12, 71220, Note_on_c, 0, 74, 84
12, 71230, Note_on_c, 0, 76, 0
12, 71258, Note_on_c, 0, 73, 76
12, 71263, Note_on_c, 0, 74, 0
12, 71292, Note_on_c, 0, 74, 80
12, 71302, Note_on_c, 0, 73, 0
12, 71458, Note_on_c, 0, 76, 84
12, 71470, Note_on_c, 0, 74, 0
12, 71496, Control_c, 0, 64, 0
12, 71527, Note_on_c, 0, 77, 88
12, 71537, Note_on_c, 0, 76, 0
12, 72004, Note_on_c, 0, 77, 0
12, 72253, Note_on_c, 0, 77, 92
12, 72487, Note_on_c, 0, 79, 92
12, 72509, Note_on_c, 0, 77, 0
12, 72548, Control_c, 0, 64, 127
12, 72755, Note_on_c, 0, 81, 88
12, 72770, Note_on_c, 0, 79, 0
12, 72797, Note_on_c, 0, 81, 0
12, 72994, Note_on_c, 0, 76, 114
12, 73009, Control_c, 0, 64, 0
12, 73055, Note_on_c, 0, 79, 114
12, 73083, Note_on_c, 0, 76, 0
12, 73119, Note_on_c, 0, 82, 114
12, 73144, Note_on_c, 0, 79, 0
12, 73214, Control_c, 0, 64, 127
12, 73274, Note_on_c, 0, 82, 0
12, 73440, Note_on_c, 0, 82, 108
12, 73475, Control_c, 0, 64, 0
12, 73996, Control_c, 0, 64, 127
12, 74039, Note_on_c, 0, 79, 83
12, 74058, Note_on_c, 0, 82, 0
12, 74093, Note_on_c, 0, 79, 0
12, 74154, Note_on_c, 0, 79, 84
12, 74263, Note_on_c, 0, 79, 0
12, 74265, Note_on_c, 0, 76, 83
12, 74313, Note_on_c, 0, 76, 0
12, 74391, Note_on_c, 0, 76, 84
12, 74407, Control_c, 0, 64, 0
12, 74514, Note_on_c, 0, 72, 68
12, 74533, Note_on_c, 0, 76, 0
12, 74637, Control_c, 0, 64, 127
12, 74640, Note_on_c, 0, 79, 58
12, 74642, Note_on_c, 0, 72, 0
12, 74760, Note_on_c, 0, 70, 80
12, 74784, Note_on_c, 0, 79, 0
12, 74887, Note_on_c, 0, 72, 84
12, 74897, Note_on_c, 0, 70, 0
12, 74912, Control_c, 0, 64, 0
12, 75009, Control_c, 0, 64, 127
12, 75035, Note_on_c, 0, 72, 0
12, 75112, Note_on_c, 0, 72, 88
12, 75149, Note_on_c, 0, 72, 0
12, 75156, Note_on_c, 0, 70, 75
12, 75186, Note_on_c, 0, 72, 72
12, 75194, Note_on_c, 0, 70, 0
12, 75215, Note_on_c, 0, 72, 0
12, 75220, Note_on_c, 0, 70, 68
12, 75252, Note_on_c, 0, 72, 84
12, 75259, Note_on_c, 0, 70, 0
12, 75288, Note_on_c, 0, 72, 0
12, 75299, Note_on_c, 0, 70, 63
12, 75317, Note_on_c, 0, 72, 72
12, 75333, Note_on_c, 0, 70, 0
12, 75354, Note_on_c, 0, 70, 72
12, 75362, Note_on_c, 0, 72, 0
12, 75389, Note_on_c, 0, 69, 80
12, 75398, Note_on_c, 0, 70, 0
12, 75410, Control_c, 0, 64, 0
12, 75897, Control_c, 0, 64, 127
12, 75964, Note_on_c, 0, 69, 0
12, 76095, Note_on_c, 0, 72, 76
12, 76331, Note_on_c, 0, 77, 84
12, 76349, Note_on_c, 0, 72, 0
12, 76366, Control_c, 0, 64, 0
12, 76572, Note_on_c, 0, 81, 83
12, 76583, Note_on_c, 0, 77, 0
12, 76810, Note_on_c, 0, 84, 92
12, 76813, Note_on_c, 0, 81, 0
12, 76855, Control_c, 0, 64, 127
12, 77052, Note_on_c, 0, 79, 88
12, 77071, Note_on_c, 0, 84, 0
12, 77119, Note_on_c, 0, 79, 0
12, 77285, Note_on_c, 0, 79, 76
12, 77332, Control_c, 0, 64, 0
12, 77840, Control_c, 0, 64, 127
12, 78242, Note_on_c, 0, 77, 84
12, 78252, Note_on_c, 0, 79, 0
12, 78264, Control_c, 0, 64, 0
12, 78482, Note_on_c, 0, 76, 92
12, 78493, Note_on_c, 0, 77, 0
12, 78713, Note_on_c, 0, 73, 84
12, 78722, Note_on_c, 0, 76, 0
12, 79212, Note_on_c, 0, 74, 84
12, 79270, Note_on_c, 0, 73, 0
12, 79393, Control_c, 0, 64, 127
12, 79704, Control_c, 0, 64, 0
12, 79801, Control_c, 0, 64, 127
12, 79803, Note_on_c, 0, 74, 0
12, 79922, Note_on_c, 0, 74, 92
12, 80044, Note_on_c, 0, 74, 0
12, 80159, Note_on_c, 0, 74, 92
12, 80175, Control_c, 0, 64, 0
12, 80296, Control_c, 0, 64, 127
12, 80344, Note_on_c, 0, 74, 0
12, 80406, Note_on_c, 0, 74, 92
12, 80516, Note_on_c, 0, 74, 0
12, 80646, Note_on_c, 0, 74, 92
12, 80661, Control_c, 0, 64, 0
12, 81007, Note_on_c, 0, 76, 84
12, 81026, Note_on_c, 0, 74, 0
12, 81111, Note_on_c, 0, 78, 80
12, 81112, Note_on_c, 0, 76, 0
12, 81361, Control_c, 0, 64, 127
12, 81503, Note_on_c, 0, 79, 83
12, 81538, Note_on_c, 0, 78, 0
12, 81604, Note_on_c, 0, 79, 0
12, 81606, Note_on_c, 0, 81, 108
12, 81609, Control_c, 0, 64, 0
12, 81989, Note_on_c, 0, 83, 98
12, 82036, Note_on_c, 0, 81, 0
12, 82088, Note_on_c, 0, 83, 0
12, 82094, Note_on_c, 0, 84, 92
12, 82411, Control_c, 0, 64, 127
12, 82449, Note_on_c, 0, 84, 0
12, 82452, Note_on_c, 0, 72, 84
12, 82500, Note_on_c, 0, 72, 0
12, 82567, Note_on_c, 0, 72, 68
12, 82606, Control_c, 0, 64, 0
12, 82687, Note_on_c, 0, 71, 84
12, 82725, Note_on_c, 0, 72, 0
12, 82812, Note_on_c, 0, 69, 76
12, 82813, Note_on_c, 0, 71, 0
12, 82919, Note_on_c, 0, 69, 0
12, 82927, Note_on_c, 0, 67, 83
12, 83003, Note_on_c, 0, 67, 0
12, 83055, Note_on_c, 0, 67, 84
12, 83531, Note_on_c, 0, 67, 0
12, 84004, Note_on_c, 0, 79, 108
12, 84486, Note_on_c, 0, 80, 108
12, 84503, Note_on_c, 0, 79, 0
12, 84730, Control_c, 0, 64, 127
12, 85479, Control_c, 0, 64, 0
12, 85604, Note_on_c, 0, 74, 92
12, 85621, Note_on_c, 0, 80, 0
12, 85764, Note_on_c, 0, 73, 92
12, 85788, Note_on_c, 0, 74, 0
12, 85918, Note_on_c, 0, 74, 98
12, 85924, Note_on_c, 0, 73, 0
12, 86080, Note_on_c, 0, 75, 98
12, 86108, Note_on_c, 0, 74, 0
12, 86245, Note_on_c, 0, 77, 108
12, 86273, Note_on_c, 0, 75, 0
12, 86413, Note_on_c, 0, 79, 94
12, 86445, Note_on_c, 0, 77, 0
12, 86568, Control_c, 0, 64, 127
12, 87408, Control_c, 0, 64, 0
12, 87525, Note_on_c, 0, 72, 84
12, 87563, Note_on_c, 0, 79, 0
12, 87686, Note_on_c, 0, 71, 92
12, 87703, Note_on_c, 0, 72, 0
12, 87843, Note_on_c, 0, 72, 108
12, 87869, Note_on_c, 0, 71, 0
12, 88003, Note_on_c, 0, 74, 108
12, 88024, Note_on_c, 0, 72, 0
12, 88162, Note_on_c, 0, 75, 108
12, 88174, Note_on_c, 0, 74, 0
12, 88326, Note_on_c, 0, 77, 108
12, 88348, Note_on_c, 0, 75, 0
12, 88404, Control_c, 0, 64, 127
12, 89323, Control_c, 0, 64, 0
12, 89452, Note_on_c, 0, 71, 80
12, 89476, Note_on_c, 0, 77, 0
12, 89608, Note_on_c, 0, 69, 88
12, 89618, Note_on_c, 0, 71, 0
12, 89765, Note_on_c, 0, 71, 108
12, 89788, Note_on_c, 0, 69, 0
12, 89926, Note_on_c, 0, 72, 108
12, 89951, Note_on_c, 0, 71, 0
12, 90082, Note_on_c, 0, 74, 108
12, 90086, Note_on_c, 0, 72, 0
12, 90247, Note_on_c, 0, 75, 96
12, 90264, Note_on_c, 0, 74, 0
12, 90392, Control_c, 0, 64, 127
12, 91226, Control_c, 0, 64, 0
12, 91375, Note_on_c, 0, 69, 83
12, 91408, Note_on_c, 0, 75, 0
12, 91530, Note_on_c, 0, 68, 84
12, 91550, Note_on_c, 0, 69, 0
12, 91689, Note_on_c, 0, 69, 108
12, 91698, Note_on_c, 0, 68, 0
12, 91853, Note_on_c, 0, 71, 96
12, 91883, Note_on_c, 0, 69, 0
12, 92015, Note_on_c, 0, 72, 92
12, 92036, Note_on_c, 0, 71, 0
12, 92182, Note_on_c, 0, 74, 92
12, 92201, Note_on_c, 0, 72, 0
12, 92305, Control_c, 0, 64, 127
12, 93117, Control_c, 0, 64, 0
12, 93295, Note_on_c, 0, 67, 84
12, 93303, Note_on_c, 0, 74, 0
12, 93446, Note_on_c, 0, 66, 83
12, 93460, Note_on_c, 0, 67, 0
12, 93604, Note_on_c, 0, 67, 92
12, 93612, Note_on_c, 0, 66, 0
12, 93763, Note_on_c, 0, 69, 92
12, 93780, Control_c, 0, 64, 127
12, 93790, Note_on_c, 0, 67, 0
12, 93921, Note_on_c, 0, 71, 96
12, 93934, Note_on_c, 0, 69, 0
12, 94009, Note_on_c, 0, 71, 0
12, 94080, Note_on_c, 0, 72, 96
12, 94097, Control_c, 0, 64, 0
12, 94100, Control_c, 0, 64, 127
12, 94278, Note_on_c, 0, 84, 98
12, 94293, Note_on_c, 0, 72, 0
12, 94577, Control_c, 0, 64, 0
12, 94715, Control_c, 0, 64, 127
12, 95033, Note_on_c, 0, 83, 98
12, 95037, Note_on_c, 0, 84, 0
12, 95040, Control_c, 0, 64, 0
12, 95197, Control_c, 0, 64, 127
12, 95262, Note_on_c, 0, 81, 92
12, 95279, Note_on_c, 0, 83, 0
12, 95508, Note_on_c, 0, 79, 94
12, 95521, Control_c, 0, 64, 0
12, 95533, Note_on_c, 0, 81, 0
12, 95672, Control_c, 0, 64, 127
12, 95743, Note_on_c, 0, 77, 96
12, 95748, Note_on_c, 0, 79, 0
12, 95993, Note_on_c, 0, 76, 92
12, 96000, Control_c, 0, 64, 0
12, 96015, Note_on_c, 0, 77, 0
12, 96162, Control_c, 0, 64, 127
12, 96472, Control_c, 0, 64, 0
12, 96474, Note_on_c, 0, 74, 88
12, 96487, Note_on_c, 0, 76, 0
12, 96616, Control_c, 0, 64, 127
12, 96979, Control_c, 0, 64, 0
12, 97137, Control_c, 0, 64, 127
12, 97446, Note_on_c, 0, 79, 94
12, 97465, Control_c, 0, 64, 0
12, 97467, Note_on_c, 0, 74, 0
12, 97638, Control_c, 0, 64, 127
12, 97932, Note_on_c, 0, 77, 98
12, 97955, Control_c, 0, 64, 0
12, 97960, Note_on_c, 0, 79, 0
12, 98104, Control_c, 0, 64, 127
12, 98402, Note_on_c, 0, 76, 99
12, 98409, Note_on_c, 0, 77, 0
12, 98426, Control_c, 0, 64, 0
12, 98594, Control_c, 0, 64, 127
12, 98893, Control_c, 0, 64, 0
12, 99046, Control_c, 0, 64, 127
12, 99087, Note_on_c, 0, 76, 0
12, 99354, Control_c, 0, 64, 0
12, 99501, Control_c, 0, 64, 127
12, 99842, Note_on_c, 0, 72, 98
12, 99853, Control_c, 0, 64, 0
12, 99998, Note_on_c, 0, 84, 108
12, 100011, Note_on_c, 0, 72, 0
12, 100344, Control_c, 0, 64, 0
12, 100489, Control_c, 0, 64, 127
12, 100796, Note_on_c, 0, 83, 114
12, 100805, Control_c, 0, 64, 0
12, 100809, Note_on_c, 0, 84, 0
12, 100971, Control_c, 0, 64, 127
12, 101029, Note_on_c, 0, 81, 98
12, 101042, Note_on_c, 0, 83, 0
12, 101279, Note_on_c, 0, 79, 92
12, 101292, Control_c, 0, 64, 0
12, 101301, Note_on_c, 0, 81, 0
12, 101463, Control_c, 0, 64, 127
12, 101510, Note_on_c, 0, 77, 98
12, 101516, Note_on_c, 0, 79, 0
12, 101760, Note_on_c, 0, 76, 98
12, 101776, Control_c, 0, 64, 0
12, 101783, Note_on_c, 0, 77, 0
12, 101944, Control_c, 0, 64, 127
12, 102248, Note_on_c, 0, 74, 92
12, 102267, Note_on_c, 0, 76, 0
12, 102272, Control_c, 0, 64, 0
12, 102440, Control_c, 0, 64, 127
12, 102747, Control_c, 0, 64, 0
12, 102914, Control_c, 0, 64, 127
12, 103202, Note_on_c, 0, 79, 88
12, 103205, Note_on_c, 0, 74, 0
12, 103220, Control_c, 0, 64, 0
12, 103382, Control_c, 0, 64, 127
12, 103694, Note_on_c, 0, 72, 76
12, 103714, Note_on_c, 0, 79, 0
12, 103723, Control_c, 0, 64, 0
12, 104166, Note_on_c, 0, 72, 0
12, 104166, End_track
13, 0, Start_track
13, 0, MIDI_port, 0
13, 0, Title_t, "Piano Solo LH"
13, 42239, Note_on_c, 0, 53, 98
13, 42418, Note_on_c, 0, 57, 64
13, 42418, Note_on_c, 0, 60, 70
13, 42460, Note_on_c, 0, 57, 0
13, 42467, Note_on_c, 0, 60, 0
13, 42574, Note_on_c, 0, 60, 68
13, 42576, Note_on_c, 0, 57, 65
13, 42615, Note_on_c, 0, 57, 0
13, 42624, Note_on_c, 0, 60, 0
13, 42729, Note_on_c, 0, 57, 74
13, 42729, Note_on_c, 0, 60, 74
13, 42795, Note_on_c, 0, 60, 0
13, 42795, Note_on_c, 0, 57, 0
13, 42882, Note_on_c, 0, 57, 81
13, 42884, Note_on_c, 0, 60, 88
13, 42949, Note_on_c, 0, 57, 0
13, 42965, Note_on_c, 0, 60, 0
13, 43040, Note_on_c, 0, 57, 89
13, 43040, Note_on_c, 0, 60, 98
13, 43063, Note_on_c, 0, 53, 0
13, 43198, Note_on_c, 0, 53, 94
13, 43232, Note_on_c, 0, 57, 0
13, 43239, Note_on_c, 0, 60, 0
13, 43356, Note_on_c, 0, 57, 64
13, 43358, Note_on_c, 0, 60, 52
13, 43417, Note_on_c, 0, 57, 0
13, 43419, Note_on_c, 0, 60, 0
13, 43511, Note_on_c, 0, 57, 64
13, 43514, Note_on_c, 0, 60, 65
13, 43571, Note_on_c, 0, 60, 0
13, 43574, Note_on_c, 0, 57, 0
13, 43670, Note_on_c, 0, 57, 66
13, 43672, Note_on_c, 0, 60, 58
13, 43729, Note_on_c, 0, 60, 0
13, 43735, Note_on_c, 0, 57, 0
13, 43834, Note_on_c, 0, 57, 65
13, 43839, Note_on_c, 0, 60, 58
13, 43889, Note_on_c, 0, 57, 0
13, 43894, Note_on_c, 0, 60, 0
13, 44000, Note_on_c, 0, 57, 67
13, 44001, Note_on_c, 0, 60, 64
13, 44006, Note_on_c, 0, 53, 0
13, 44157, Note_on_c, 0, 53, 82
13, 44174, Note_on_c, 0, 60, 0
13, 44188, Note_on_c, 0, 57, 0
13, 44326, Note_on_c, 0, 57, 57
13, 44331, Note_on_c, 0, 60, 45
13, 44373, Note_on_c, 0, 60, 0
13, 44382, Note_on_c, 0, 57, 0
13, 44483, Note_on_c, 0, 60, 57
13, 44484, Note_on_c, 0, 57, 57
13, 44527, Note_on_c, 0, 57, 0
13, 44532, Note_on_c, 0, 60, 0
13, 44640, Note_on_c, 0, 57, 66
13, 44641, Note_on_c, 0, 60, 60
13, 44695, Note_on_c, 0, 57, 0
13, 44697, Note_on_c, 0, 60, 0
13, 44797, Note_on_c, 0, 57, 67
13, 44799, Note_on_c, 0, 60, 60
13, 44861, Note_on_c, 0, 57, 0
13, 44865, Note_on_c, 0, 60, 0
13, 44960, Note_on_c, 0, 57, 66
13, 44962, Note_on_c, 0, 60, 65
13, 45024, Note_on_c, 0, 53, 0
13, 45123, Note_on_c, 0, 53, 78
13, 45150, Note_on_c, 0, 60, 0
13, 45165, Note_on_c, 0, 57, 0
13, 45281, Note_on_c, 0, 57, 68
13, 45284, Note_on_c, 0, 60, 63
13, 45333, Note_on_c, 0, 60, 0
13, 45338, Note_on_c, 0, 57, 0
13, 45442, Note_on_c, 0, 57, 64
13, 45443, Note_on_c, 0, 60, 60
13, 45493, Note_on_c, 0, 57, 0
13, 45497, Note_on_c, 0, 60, 0
13, 45602, Note_on_c, 0, 57, 63
13, 45604, Note_on_c, 0, 60, 61
13, 45650, Note_on_c, 0, 57, 0
13, 45657, Note_on_c, 0, 60, 0
13, 45768, Note_on_c, 0, 57, 62
13, 45770, Note_on_c, 0, 60, 64
13, 45822, Note_on_c, 0, 57, 0
13, 45829, Note_on_c, 0, 60, 0
13, 45927, Note_on_c, 0, 57, 66
13, 45930, Note_on_c, 0, 60, 65
13, 45958, Note_on_c, 0, 53, 0
13, 46089, Note_on_c, 0, 53, 78
13, 46109, Note_on_c, 0, 60, 0
13, 46114, Note_on_c, 0, 57, 0
13, 46251, Note_on_c, 0, 57, 60
13, 46251, Note_on_c, 0, 60, 60
13, 46290, Note_on_c, 0, 57, 0
13, 46299, Note_on_c, 0, 60, 0
13, 46401, Note_on_c, 0, 60, 59
13, 46405, Note_on_c, 0, 57, 55
13, 46466, Note_on_c, 0, 57, 0
13, 46467, Note_on_c, 0, 60, 0
13, 46557, Note_on_c, 0, 57, 65
13, 46558, Note_on_c, 0, 60, 67
13, 46601, Note_on_c, 0, 57, 0
13, 46611, Note_on_c, 0, 60, 0
13, 46714, Note_on_c, 0, 57, 66
13, 46715, Note_on_c, 0, 60, 60
13, 46757, Note_on_c, 0, 57, 0
13, 46758, Note_on_c, 0, 60, 0
13, 46877, Note_on_c, 0, 57, 69
13, 46878, Note_on_c, 0, 60, 64
13, 46893, Note_on_c, 0, 53, 0
13, 47033, Note_on_c, 0, 53, 74
13, 47059, Note_on_c, 0, 57, 0
13, 47064, Note_on_c, 0, 60, 0
13, 47198, Note_on_c, 0, 57, 66
13, 47199, Note_on_c, 0, 60, 63
13, 47246, Note_on_c, 0, 57, 0
13, 47250, Note_on_c, 0, 60, 0
13, 47360, Note_on_c, 0, 57, 62
13, 47360, Note_on_c, 0, 60, 65
13, 47398, Note_on_c, 0, 57, 0
13, 47405, Note_on_c, 0, 60, 0
13, 47519, Note_on_c, 0, 57, 71
13, 47520, Note_on_c, 0, 60, 67
13, 47578, Note_on_c, 0, 57, 0
13, 47581, Note_on_c, 0, 60, 0
13, 47692, Note_on_c, 0, 57, 66
13, 47692, Note_on_c, 0, 60, 66
13, 47732, Note_on_c, 0, 57, 0
13, 47745, Note_on_c, 0, 60, 0
13, 47843, Note_on_c, 0, 57, 72
13, 47848, Note_on_c, 0, 60, 69
13, 47883, Note_on_c, 0, 53, 0
13, 47886, Note_on_c, 0, 60, 0
13, 47890, Note_on_c, 0, 57, 0
13, 47990, Note_on_c, 0, 48, 82
13, 48154, Note_on_c, 0, 55, 59
13, 48156, Note_on_c, 0, 58, 38
13, 48187, Note_on_c, 0, 58, 0
13, 48205, Note_on_c, 0, 55, 0
13, 48313, Note_on_c, 0, 58, 52
13, 48314, Note_on_c, 0, 55, 61
13, 48317, Note_on_c, 0, 52, 65
13, 48377, Note_on_c, 0, 58, 0
13, 48378, Note_on_c, 0, 55, 0
13, 48380, Note_on_c, 0, 52, 0
13, 48481, Note_on_c, 0, 55, 61
13, 48482, Note_on_c, 0, 58, 40
13, 48483, Note_on_c, 0, 52, 67
13, 48540, Note_on_c, 0, 58, 0
13, 48555, Note_on_c, 0, 55, 0
13, 48558, Note_on_c, 0, 52, 0
13, 48644, Note_on_c, 0, 55, 52
13, 48646, Note_on_c, 0, 58, 35
13, 48651, Note_on_c, 0, 52, 50
13, 48681, Note_on_c, 0, 58, 0
13, 48693, Note_on_c, 0, 52, 0
13, 48694, Note_on_c, 0, 55, 0
13, 48808, Note_on_c, 0, 55, 64
13, 48808, Note_on_c, 0, 58, 51
13, 48812, Note_on_c, 0, 52, 62
13, 48866, Note_on_c, 0, 48, 0
13, 48963, Note_on_c, 0, 48, 78
13, 48985, Note_on_c, 0, 58, 0
13, 48989, Note_on_c, 0, 52, 0
13, 48995, Note_on_c, 0, 55, 0
13, 49120, Note_on_c, 0, 55, 56
13, 49120, Note_on_c, 0, 58, 58
13, 49126, Note_on_c, 0, 52, 58
13, 49174, Note_on_c, 0, 58, 0
13, 49185, Note_on_c, 0, 52, 0
13, 49185, Note_on_c, 0, 55, 0
13, 49281, Note_on_c, 0, 55, 59
13, 49283, Note_on_c, 0, 52, 66
13, 49283, Note_on_c, 0, 58, 47
13, 49330, Note_on_c, 0, 58, 0
13, 49338, Note_on_c, 0, 55, 0
13, 49344, Note_on_c, 0, 52, 0
13, 49442, Note_on_c, 0, 55, 56
13, 49445, Note_on_c, 0, 58, 38
13, 49449, Note_on_c, 0, 52, 54
13, 49482, Note_on_c, 0, 58, 0
13, 49489, Note_on_c, 0, 52, 0
13, 49496, Note_on_c, 0, 55, 0
13, 49600, Note_on_c, 0, 55, 49
13, 49603, Note_on_c, 0, 52, 59
13, 49606, Note_on_c, 0, 58, 40
13, 49637, Note_on_c, 0, 58, 0
13, 49648, Note_on_c, 0, 52, 0
13, 49653, Note_on_c, 0, 55, 0
13, 49762, Note_on_c, 0, 55, 63
13, 49766, Note_on_c, 0, 58, 57
13, 49768, Note_on_c, 0, 52, 63
13, 49792, Note_on_c, 0, 48, 0
13, 49862, Note_on_c, 0, 52, 0
13, 49912, Note_on_c, 0, 58, 0
13, 49926, Note_on_c, 0, 48, 74
13, 49936, Note_on_c, 0, 55, 0
13, 50083, Note_on_c, 0, 58, 59
13, 50086, Note_on_c, 0, 52, 66
13, 50086, Note_on_c, 0, 55, 56
13, 50137, Note_on_c, 0, 58, 0
13, 50144, Note_on_c, 0, 55, 0
13, 50150, Note_on_c, 0, 52, 0
13, 50243, Note_on_c, 0, 55, 57
13, 50244, Note_on_c, 0, 58, 50
13, 50248, Note_on_c, 0, 52, 60
13, 50294, Note_on_c, 0, 58, 0
13, 50297, Note_on_c, 0, 52, 0
13, 50304, Note_on_c, 0, 55, 0
13, 50395, Note_on_c, 0, 55, 57
13, 50397, Note_on_c, 0, 58, 50
13, 50402, Note_on_c, 0, 52, 60
13, 50460, Note_on_c, 0, 52, 0
13, 50461, Note_on_c, 0, 58, 0
13, 50465, Note_on_c, 0, 55, 0
13, 50556, Note_on_c, 0, 55, 61
13, 50557, Note_on_c, 0, 58, 48
13, 50562, Note_on_c, 0, 52, 59
13, 50611, Note_on_c, 0, 58, 0
13, 50613, Note_on_c, 0, 52, 0
13, 50618, Note_on_c, 0, 55, 0
13, 50719, Note_on_c, 0, 55, 58
13, 50720, Note_on_c, 0, 58, 45
13, 50722, Note_on_c, 0, 52, 64
13, 50770, Note_on_c, 0, 58, 0
13, 50771, Note_on_c, 0, 55, 0
13, 50775, Note_on_c, 0, 52, 0
13, 50842, Note_on_c, 0, 48, 0
13, 50880, Note_on_c, 0, 48, 89
13, 51040, Note_on_c, 0, 58, 60
13, 51042, Note_on_c, 0, 55, 62
13, 51043, Note_on_c, 0, 52, 67
13, 51094, Note_on_c, 0, 58, 0
13, 51095, Note_on_c, 0, 55, 0
13, 51104, Note_on_c, 0, 52, 0
13, 51199, Note_on_c, 0, 55, 58
13, 51200, Note_on_c, 0, 58, 46
13, 51204, Note_on_c, 0, 52, 60
13, 51252, Note_on_c, 0, 58, 0
13, 51253, Note_on_c, 0, 55, 0
13, 51256, Note_on_c, 0, 52, 0
13, 51357, Note_on_c, 0, 55, 65
13, 51357, Note_on_c, 0, 58, 62
13, 51363, Note_on_c, 0, 52, 64
13, 51414, Note_on_c, 0, 58, 0
13, 51418, Note_on_c, 0, 55, 0
13, 51420, Note_on_c, 0, 52, 0
13, 51515, Note_on_c, 0, 55, 61
13, 51518, Note_on_c, 0, 58, 52
13, 51521, Note_on_c, 0, 52, 55
13, 51554, Note_on_c, 0, 58, 0
13, 51567, Note_on_c, 0, 52, 0
13, 51567, Note_on_c, 0, 55, 0
13, 51677, Note_on_c, 0, 55, 64
13, 51680, Note_on_c, 0, 58, 54
13, 51684, Note_on_c, 0, 52, 65
13, 51716, Note_on_c, 0, 48, 0
13, 51838, Note_on_c, 0, 48, 74
13, 51852, Note_on_c, 0, 58, 0
13, 51859, Note_on_c, 0, 52, 0
13, 51872, Note_on_c, 0, 55, 0
13, 52009, Note_on_c, 0, 55, 58
13, 52012, Note_on_c, 0, 58, 53
13, 52014, Note_on_c, 0, 52, 63
13, 52056, Note_on_c, 0, 58, 0
13, 52069, Note_on_c, 0, 55, 0
13, 52071, Note_on_c, 0, 52, 0
13, 52165, Note_on_c, 0, 55, 53
13, 52165, Note_on_c, 0, 58, 49
13, 52171, Note_on_c, 0, 52, 50
13, 52211, Note_on_c, 0, 58, 0
13, 52215, Note_on_c, 0, 52, 0
13, 52217, Note_on_c, 0, 55, 0
13, 52322, Note_on_c, 0, 55, 54
13, 52325, Note_on_c, 0, 58, 46
13, 52326, Note_on_c, 0, 52, 65
13, 52370, Note_on_c, 0, 58, 0
13, 52382, Note_on_c, 0, 55, 0
13, 52383, Note_on_c, 0, 52, 0
13, 52482, Note_on_c, 0, 55, 45
13, 52483, Note_on_c, 0, 58, 36
13, 52488, Note_on_c, 0, 52, 49
13, 52521, Note_on_c, 0, 58, 0
13, 52527, Note_on_c, 0, 52, 0
13, 52529, Note_on_c, 0, 55, 0
13, 52645, Note_on_c, 0, 55, 50
13, 52651, Note_on_c, 0, 52, 53
13, 52651, Note_on_c, 0, 58, 43
13, 52697, Note_on_c, 0, 48, 0
13, 52805, Note_on_c, 0, 48, 71
13, 52822, Note_on_c, 0, 58, 0
13, 52835, Note_on_c, 0, 52, 0
13, 52838, Note_on_c, 0, 55, 0
13, 52961, Note_on_c, 0, 55, 56
13, 52964, Note_on_c, 0, 58, 53
13, 52968, Note_on_c, 0, 52, 59
13, 53013, Note_on_c, 0, 58, 0
13, 53022, Note_on_c, 0, 55, 0
13, 53025, Note_on_c, 0, 52, 0
13, 53118, Note_on_c, 0, 55, 63
13, 53120, Note_on_c, 0, 52, 62
13, 53120, Note_on_c, 0, 58, 51
13, 53167, Note_on_c, 0, 58, 0
13, 53174, Note_on_c, 0, 55, 0
13, 53180, Note_on_c, 0, 52, 0
13, 53278, Note_on_c, 0, 55, 63
13, 53280, Note_on_c, 0, 52, 71
13, 53280, Note_on_c, 0, 58, 56
13, 53333, Note_on_c, 0, 58, 0
13, 53340, Note_on_c, 0, 55, 0
13, 53343, Note_on_c, 0, 52, 0
13, 53438, Note_on_c, 0, 55, 65
13, 53440, Note_on_c, 0, 58, 55
13, 53442, Note_on_c, 0, 52, 71
13, 53489, Note_on_c, 0, 58, 0
13, 53504, Note_on_c, 0, 52, 0
13, 53504, Note_on_c, 0, 55, 0
13, 53601, Note_on_c, 0, 55, 68
13, 53606, Note_on_c, 0, 52, 68
13, 53608, Note_on_c, 0, 58, 54
13, 53639, Note_on_c, 0, 48, 0
13, 53652, Note_on_c, 0, 52, 0
13, 53656, Note_on_c, 0, 55, 0
13, 53670, Note_on_c, 0, 58, 0
13, 53765, Note_on_c, 0, 53, 82
13, 53923, Note_on_c, 0, 60, 54
13, 53924, Note_on_c, 0, 57, 72
13, 53968, Note_on_c, 0, 57, 0
13, 53976, Note_on_c, 0, 60, 0
13, 54080, Note_on_c, 0, 57, 54
13, 54090, Note_on_c, 0, 60, 45
13, 54101, Note_on_c, 0, 60, 0
13, 54117, Note_on_c, 0, 57, 0
13, 54237, Note_on_c, 0, 60, 60
13, 54239, Note_on_c, 0, 57, 66
13, 54298, Note_on_c, 0, 57, 0
13, 54301, Note_on_c, 0, 60, 0
13, 54398, Note_on_c, 0, 57, 65
13, 54398, Note_on_c, 0, 60, 59
13, 54440, Note_on_c, 0, 57, 0
13, 54446, Note_on_c, 0, 60, 0
13, 54557, Note_on_c, 0, 57, 72
13, 54559, Note_on_c, 0, 60, 61
13, 54573, Note_on_c, 0, 53, 0
13, 54719, Note_on_c, 0, 53, 74
13, 54749, Note_on_c, 0, 57, 0
13, 54752, Note_on_c, 0, 60, 0
13, 54879, Note_on_c, 0, 57, 56
13, 54883, Note_on_c, 0, 60, 44
13, 54920, Note_on_c, 0, 60, 0
13, 54924, Note_on_c, 0, 57, 0
13, 55041, Note_on_c, 0, 57, 53
13, 55041, Note_on_c, 0, 60, 50
13, 55079, Note_on_c, 0, 57, 0
13, 55088, Note_on_c, 0, 60, 0
13, 55200, Note_on_c, 0, 60, 54
13, 55201, Note_on_c, 0, 57, 57
13, 55236, Note_on_c, 0, 57, 0
13, 55244, Note_on_c, 0, 60, 0
13, 55361, Note_on_c, 0, 57, 64
13, 55366, Note_on_c, 0, 60, 50
13, 55397, Note_on_c, 0, 57, 0
13, 55399, Note_on_c, 0, 60, 0
13, 55517, Note_on_c, 0, 57, 70
13, 55528, Note_on_c, 0, 60, 56
13, 55544, Note_on_c, 0, 57, 0
13, 55546, Note_on_c, 0, 53, 0
13, 55562, Note_on_c, 0, 60, 0
13, 55677, Note_on_c, 0, 57, 68
13, 55841, Note_on_c, 0, 60, 57
13, 55841, Note_on_c, 0, 63, 56
13, 55841, Note_on_c, 0, 65, 56
13, 55888, Note_on_c, 0, 63, 0
13, 55890, Note_on_c, 0, 65, 0
13, 55899, Note_on_c, 0, 60, 0
13, 56001, Note_on_c, 0, 60, 59
13, 56001, Note_on_c, 0, 63, 48
13, 56003, Note_on_c, 0, 65, 46
13, 56039, Note_on_c, 0, 63, 0
13, 56043, Note_on_c, 0, 65, 0
13, 56046, Note_on_c, 0, 60, 0
13, 56162, Note_on_c, 0, 63, 50
13, 56164, Note_on_c, 0, 60, 58
13, 56166, Note_on_c, 0, 65, 53
13, 56208, Note_on_c, 0, 65, 0
13, 56210, Note_on_c, 0, 63, 0
13, 56212, Note_on_c, 0, 60, 0
13, 56318, Note_on_c, 0, 63, 57
13, 56319, Note_on_c, 0, 65, 58
13, 56320, Note_on_c, 0, 60, 66
13, 56362, Note_on_c, 0, 63, 0
13, 56368, Note_on_c, 0, 60, 0
13, 56368, Note_on_c, 0, 65, 0
13, 56484, Note_on_c, 0, 63, 56
13, 56485, Note_on_c, 0, 65, 52
13, 56488, Note_on_c, 0, 60, 58
13, 56541, Note_on_c, 0, 57, 0
13, 56642, Note_on_c, 0, 57, 78
13, 56643, Note_on_c, 0, 60, 0
13, 56660, Note_on_c, 0, 63, 0
13, 56671, Note_on_c, 0, 65, 0
13, 56799, Note_on_c, 0, 63, 55
13, 56800, Note_on_c, 0, 60, 62
13, 56800, Note_on_c, 0, 65, 45
13, 56847, Note_on_c, 0, 63, 0
13, 56855, Note_on_c, 0, 65, 0
13, 56856, Note_on_c, 0, 60, 0
13, 56959, Note_on_c, 0, 60, 60
13, 56960, Note_on_c, 0, 63, 55
13, 56960, Note_on_c, 0, 65, 50
13, 57011, Note_on_c, 0, 63, 0
13, 57016, Note_on_c, 0, 65, 0
13, 57017, Note_on_c, 0, 60, 0
13, 57124, Note_on_c, 0, 63, 50
13, 57127, Note_on_c, 0, 60, 57
13, 57127, Note_on_c, 0, 65, 53
13, 57179, Note_on_c, 0, 65, 0
13, 57179, Note_on_c, 0, 63, 0
13, 57180, Note_on_c, 0, 60, 0
13, 57282, Note_on_c, 0, 60, 65
13, 57282, Note_on_c, 0, 63, 56
13, 57289, Note_on_c, 0, 65, 39
13, 57330, Note_on_c, 0, 65, 0
13, 57342, Note_on_c, 0, 63, 0
13, 57347, Note_on_c, 0, 60, 0
13, 57441, Note_on_c, 0, 65, 69
13, 57444, Note_on_c, 0, 63, 68
13, 57445, Note_on_c, 0, 60, 71
13, 57479, Note_on_c, 0, 57, 0
13, 57499, Note_on_c, 0, 60, 0
13, 57519, Note_on_c, 0, 63, 0
13, 57599, Note_on_c, 0, 58, 74
13, 57602, Note_on_c, 0, 65, 0
13, 57754, Note_on_c, 0, 65, 64
13, 57758, Note_on_c, 0, 62, 68
13, 57815, Note_on_c, 0, 62, 0
13, 57823, Note_on_c, 0, 65, 0
13, 57915, Note_on_c, 0, 65, 61
13, 57916, Note_on_c, 0, 62, 65
13, 57973, Note_on_c, 0, 62, 0
13, 57980, Note_on_c, 0, 65, 0
13, 58076, Note_on_c, 0, 65, 67
13, 58078, Note_on_c, 0, 62, 74
13, 58146, Note_on_c, 0, 62, 0
13, 58154, Note_on_c, 0, 65, 0
13, 58241, Note_on_c, 0, 65, 63
13, 58243, Note_on_c, 0, 62, 63
13, 58293, Note_on_c, 0, 62, 0
13, 58300, Note_on_c, 0, 65, 0
13, 58407, Note_on_c, 0, 62, 71
13, 58407, Note_on_c, 0, 65, 69
13, 58424, Note_on_c, 0, 58, 0
13, 58570, Note_on_c, 0, 58, 74
13, 58613, Note_on_c, 0, 65, 0
13, 58613, Note_on_c, 0, 62, 0
13, 58723, Note_on_c, 0, 65, 69
13, 58725, Note_on_c, 0, 62, 63
13, 58773, Note_on_c, 0, 62, 0
13, 58787, Note_on_c, 0, 65, 0
13, 58882, Note_on_c, 0, 65, 64
13, 58884, Note_on_c, 0, 62, 61
13, 58927, Note_on_c, 0, 62, 0
13, 58934, Note_on_c, 0, 65, 0
13, 59039, Note_on_c, 0, 65, 58
13, 59043, Note_on_c, 0, 62, 53
13, 59075, Note_on_c, 0, 62, 0
13, 59088, Note_on_c, 0, 65, 0
13, 59199, Note_on_c, 0, 62, 63
13, 59199, Note_on_c, 0, 65, 63
13, 59251, Note_on_c, 0, 62, 0
13, 59256, Note_on_c, 0, 65, 0
13, 59364, Note_on_c, 0, 65, 66
13, 59365, Note_on_c, 0, 62, 63
13, 59388, Note_on_c, 0, 58, 0
13, 59408, Note_on_c, 0, 62, 0
13, 59472, Note_on_c, 0, 65, 0
13, 59525, Note_on_c, 0, 59, 90
13, 59685, Note_on_c, 0, 65, 66
13, 59689, Note_on_c, 0, 68, 68
13, 59691, Note_on_c, 0, 62, 64
13, 59731, Note_on_c, 0, 68, 0
13, 59745, Note_on_c, 0, 65, 0
13, 59753, Note_on_c, 0, 62, 0
13, 59843, Note_on_c, 0, 65, 64
13, 59848, Note_on_c, 0, 62, 64
13, 59849, Note_on_c, 0, 68, 57
13, 59884, Note_on_c, 0, 68, 0
13, 59900, Note_on_c, 0, 65, 0
13, 59905, Note_on_c, 0, 62, 0
13, 60007, Note_on_c, 0, 65, 63
13, 60009, Note_on_c, 0, 62, 71
13, 60009, Note_on_c, 0, 68, 61
13, 60056, Note_on_c, 0, 68, 0
13, 60058, Note_on_c, 0, 65, 0
13, 60072, Note_on_c, 0, 62, 0
13, 60157, Note_on_c, 0, 65, 64
13, 60160, Note_on_c, 0, 68, 56
13, 60163, Note_on_c, 0, 62, 60
13, 60205, Note_on_c, 0, 62, 0
13, 60215, Note_on_c, 0, 65, 0
13, 60220, Note_on_c, 0, 68, 0
13, 60334, Note_on_c, 0, 65, 61
13, 60337, Note_on_c, 0, 62, 71
13, 60341, Note_on_c, 0, 68, 52
13, 60369, Note_on_c, 0, 59, 0
13, 60483, Note_on_c, 0, 59, 82
13, 60488, Note_on_c, 0, 62, 0
13, 60499, Note_on_c, 0, 68, 0
13, 60511, Note_on_c, 0, 65, 0
13, 60640, Note_on_c, 0, 65, 56
13, 60645, Note_on_c, 0, 62, 61
13, 60650, Note_on_c, 0, 68, 37
13, 60678, Note_on_c, 0, 68, 0
13, 60698, Note_on_c, 0, 65, 0
13, 60702, Note_on_c, 0, 62, 0
13, 60800, Note_on_c, 0, 65, 57
13, 60801, Note_on_c, 0, 68, 56
13, 60803, Note_on_c, 0, 62, 61
13, 60858, Note_on_c, 0, 68, 0
13, 60860, Note_on_c, 0, 65, 0
13, 60868, Note_on_c, 0, 62, 0
13, 60963, Note_on_c, 0, 68, 59
13, 60964, Note_on_c, 0, 65, 64
13, 60967, Note_on_c, 0, 62, 62
13, 61014, Note_on_c, 0, 65, 0
13, 61019, Note_on_c, 0, 68, 0
13, 61021, Note_on_c, 0, 62, 0
13, 61121, Note_on_c, 0, 68, 55
13, 61122, Note_on_c, 0, 62, 61
13, 61122, Note_on_c, 0, 65, 61
13, 61172, Note_on_c, 0, 68, 0
13, 61173, Note_on_c, 0, 65, 0
13, 61180, Note_on_c, 0, 62, 0
13, 61279, Note_on_c, 0, 65, 68
13, 61282, Note_on_c, 0, 62, 66
13, 61282, Note_on_c, 0, 68, 58
13, 61332, Note_on_c, 0, 65, 0
13, 61339, Note_on_c, 0, 62, 0
13, 61340, Note_on_c, 0, 68, 0
13, 61343, Note_on_c, 0, 59, 0
13, 61439, Note_on_c, 0, 60, 80
13, 61606, Note_on_c, 0, 65, 59
13, 61608, Note_on_c, 0, 69, 59
13, 61649, Note_on_c, 0, 69, 0
13, 61658, Note_on_c, 0, 65, 0
13, 61764, Note_on_c, 0, 69, 58
13, 61766, Note_on_c, 0, 65, 47
13, 61801, Note_on_c, 0, 65, 0
13, 61809, Note_on_c, 0, 69, 0
13, 61922, Note_on_c, 0, 65, 69
13, 61922, Note_on_c, 0, 69, 74
13, 61987, Note_on_c, 0, 65, 0
13, 61996, Note_on_c, 0, 69, 0
13, 62080, Note_on_c, 0, 65, 61
13, 62080, Note_on_c, 0, 69, 64
13, 62129, Note_on_c, 0, 65, 0
13, 62137, Note_on_c, 0, 69, 0
13, 62243, Note_on_c, 0, 65, 64
13, 62244, Note_on_c, 0, 69, 64
13, 62308, Note_on_c, 0, 60, 0
13, 62404, Note_on_c, 0, 60, 81
13, 62431, Note_on_c, 0, 69, 0
13, 62439, Note_on_c, 0, 65, 0
13, 62560, Note_on_c, 0, 65, 68
13, 62560, Note_on_c, 0, 69, 66
13, 62610, Note_on_c, 0, 65, 0
13, 62613, Note_on_c, 0, 69, 0
13, 62719, Note_on_c, 0, 65, 60
13, 62720, Note_on_c, 0, 69, 65
13, 62771, Note_on_c, 0, 65, 0
13, 62776, Note_on_c, 0, 69, 0
13, 62881, Note_on_c, 0, 65, 74
13, 62881, Note_on_c, 0, 69, 69
13, 62934, Note_on_c, 0, 65, 0
13, 62935, Note_on_c, 0, 69, 0
13, 63046, Note_on_c, 0, 65, 69
13, 63049, Note_on_c, 0, 69, 71
13, 63100, Note_on_c, 0, 65, 0
13, 63102, Note_on_c, 0, 69, 0
13, 63208, Note_on_c, 0, 65, 74
13, 63213, Note_on_c, 0, 69, 78
13, 63250, Note_on_c, 0, 60, 0
13, 63280, Note_on_c, 0, 65, 0
13, 63281, Note_on_c, 0, 69, 0
13, 63359, Note_on_c, 0, 60, 81
13, 63530, Note_on_c, 0, 67, 67
13, 63534, Note_on_c, 0, 70, 47
13, 63573, Note_on_c, 0, 70, 0
13, 63595, Note_on_c, 0, 67, 0
13, 63683, Note_on_c, 0, 67, 56
13, 63686, Note_on_c, 0, 70, 51
13, 63726, Note_on_c, 0, 70, 0
13, 63742, Note_on_c, 0, 67, 0
13, 63839, Note_on_c, 0, 70, 61
13, 63841, Note_on_c, 0, 67, 56
13, 63888, Note_on_c, 0, 70, 0
13, 63897, Note_on_c, 0, 67, 0
13, 63995, Note_on_c, 0, 67, 65
13, 63996, Note_on_c, 0, 70, 64
13, 64048, Note_on_c, 0, 70, 0
13, 64054, Note_on_c, 0, 67, 0
13, 64151, Note_on_c, 0, 67, 67
13, 64151, Note_on_c, 0, 70, 62
13, 64182, Note_on_c, 0, 60, 0
13, 64306, Note_on_c, 0, 60, 89
13, 64310, Note_on_c, 0, 70, 0
13, 64328, Note_on_c, 0, 67, 0
13, 64480, Note_on_c, 0, 70, 57
13, 64481, Note_on_c, 0, 67, 65
13, 64534, Note_on_c, 0, 70, 0
13, 64544, Note_on_c, 0, 67, 0
13, 64642, Note_on_c, 0, 70, 64
13, 64647, Note_on_c, 0, 67, 59
13, 64692, Note_on_c, 0, 67, 0
13, 64693, Note_on_c, 0, 70, 0
13, 64800, Note_on_c, 0, 70, 64
13, 64802, Note_on_c, 0, 67, 61
13, 64852, Note_on_c, 0, 70, 0
13, 64857, Note_on_c, 0, 67, 0
13, 64954, Note_on_c, 0, 67, 57
13, 64954, Note_on_c, 0, 70, 58
13, 64994, Note_on_c, 0, 70, 0
13, 65002, Note_on_c, 0, 67, 0
13, 65098, Note_on_c, 0, 67, 59
13, 65105, Note_on_c, 0, 70, 65
13, 65194, Note_on_c, 0, 67, 0
13, 65200, Note_on_c, 0, 60, 0
13, 65216, Note_on_c, 0, 70, 0
13, 65290, Note_on_c, 0, 65, 57
13, 65292, Note_on_c, 0, 69, 25
13, 65777, Note_on_c, 0, 69, 0
13, 65782, Note_on_c, 0, 65, 0
13, 69121, Note_on_c, 0, 50, 84
13, 69630, Note_on_c, 0, 50, 0
13, 70086, Note_on_c, 0, 62, 64
13, 70550, Note_on_c, 0, 62, 0
13, 70561, Note_on_c, 0, 57, 66
13, 71040, Note_on_c, 0, 50, 67
13, 71049, Note_on_c, 0, 57, 0
13, 71527, Note_on_c, 0, 50, 0
13, 72002, Note_on_c, 0, 50, 76
13, 72540, Note_on_c, 0, 50, 0
13, 72978, Note_on_c, 0, 48, 84
13, 72978, Note_on_c, 0, 36, 84
13, 73277, Note_on_c, 0, 36, 0
13, 73282, Note_on_c, 0, 48, 0
13, 73931, Note_on_c, 0, 48, 76
13, 74413, Note_on_c, 0, 48, 0
13, 74890, Note_on_c, 0, 53, 67
13, 75400, Note_on_c, 0, 53, 0
13, 75852, Note_on_c, 0, 53, 65
13, 76365, Note_on_c, 0, 53, 0
13, 76809, Note_on_c, 0, 52, 60
13, 77311, Note_on_c, 0, 52, 0
13, 77772, Note_on_c, 0, 52, 59
13, 78310, Note_on_c, 0, 52, 0
13, 78720, Note_on_c, 0, 53, 60
13, 79216, Note_on_c, 0, 53, 0
13, 79682, Note_on_c, 0, 53, 64
13, 80199, Note_on_c, 0, 53, 0
13, 80650, Note_on_c, 0, 54, 55
13, 81127, Note_on_c, 0, 54, 0
13, 81608, Note_on_c, 0, 54, 68
13, 82122, Note_on_c, 0, 54, 0
13, 82573, Note_on_c, 0, 55, 60
13, 83074, Note_on_c, 0, 55, 0
13, 84486, Note_on_c, 0, 55, 84
13, 84487, Note_on_c, 0, 43, 84
13, 85482, Note_on_c, 0, 43, 0
13, 85487, Note_on_c, 0, 55, 0
13, 86415, Note_on_c, 0, 43, 76
13, 86415, Note_on_c, 0, 55, 76
13, 87384, Note_on_c, 0, 43, 0
13, 87388, Note_on_c, 0, 55, 0
13, 88330, Note_on_c, 0, 43, 72
13, 88330, Note_on_c, 0, 55, 64
13, 89310, Note_on_c, 0, 43, 0
13, 89317, Note_on_c, 0, 55, 0
13, 90249, Note_on_c, 0, 43, 68
13, 90250, Note_on_c, 0, 55, 76
13, 91233, Note_on_c, 0, 43, 0
13, 91235, Note_on_c, 0, 55, 0
13, 92186, Note_on_c, 0, 55, 67
13, 92189, Note_on_c, 0, 43, 64
13, 92448, Note_on_c, 0, 43, 0
13, 92573, Note_on_c, 0, 55, 0
13, 93605, Note_on_c, 0, 53, 58
13, 93830, Note_on_c, 0, 53, 0
13, 94080, Note_on_c, 0, 52, 77
13, 94256, Note_on_c, 0, 55, 65
13, 94411, Note_on_c, 0, 60, 77
13, 94418, Note_on_c, 0, 55, 0
13, 94439, Note_on_c, 0, 52, 0
13, 94556, Note_on_c, 0, 60, 0
13, 94562, Note_on_c, 0, 48, 73
13, 94722, Note_on_c, 0, 52, 44
13, 94866, Note_on_c, 0, 48, 0
13, 94876, Note_on_c, 0, 60, 55
13, 94879, Note_on_c, 0, 52, 0
13, 95019, Note_on_c, 0, 60, 0
13, 95034, Note_on_c, 0, 53, 62
13, 95194, Note_on_c, 0, 57, 62
13, 95350, Note_on_c, 0, 53, 0
13, 95351, Note_on_c, 0, 60, 55
13, 95356, Note_on_c, 0, 57, 0
13, 95449, Note_on_c, 0, 60, 0
13, 95508, Note_on_c, 0, 50, 62
13, 95670, Note_on_c, 0, 57, 55
13, 95831, Note_on_c, 0, 60, 61
13, 95845, Note_on_c, 0, 57, 0
13, 95846, Note_on_c, 0, 50, 0
13, 95973, Note_on_c, 0, 60, 0
13, 95994, Note_on_c, 0, 55, 65
13, 96157, Note_on_c, 0, 60, 58
13, 96316, Note_on_c, 0, 62, 50
13, 96332, Note_on_c, 0, 55, 0
13, 96366, Note_on_c, 0, 60, 0
13, 96473, Note_on_c, 0, 62, 0
13, 96475, Note_on_c, 0, 53, 69
13, 96644, Note_on_c, 0, 60, 55
13, 96801, Note_on_c, 0, 62, 55
13, 96816, Note_on_c, 0, 60, 0
13, 96816, Note_on_c, 0, 53, 0
13, 96955, Note_on_c, 0, 55, 59
13, 96958, Note_on_c, 0, 62, 0
13, 97115, Note_on_c, 0, 60, 47
13, 97281, Note_on_c, 0, 62, 50
13, 97302, Note_on_c, 0, 55, 0
13, 97330, Note_on_c, 0, 60, 0
13, 97444, Note_on_c, 0, 55, 65
13, 97450, Note_on_c, 0, 62, 0
13, 97615, Note_on_c, 0, 59, 54
13, 97769, Note_on_c, 0, 62, 60
13, 97777, Note_on_c, 0, 59, 0
13, 97792, Note_on_c, 0, 55, 0
13, 97929, Note_on_c, 0, 56, 69
13, 97941, Note_on_c, 0, 62, 0
13, 98090, Note_on_c, 0, 59, 56
13, 98242, Note_on_c, 0, 62, 65
13, 98248, Note_on_c, 0, 59, 0
13, 98255, Note_on_c, 0, 56, 0
13, 98401, Note_on_c, 0, 57, 69
13, 98412, Note_on_c, 0, 62, 0
13, 98563, Note_on_c, 0, 60, 59
13, 98722, Note_on_c, 0, 64, 63
13, 98724, Note_on_c, 0, 60, 0
13, 98728, Note_on_c, 0, 57, 0
13, 98876, Note_on_c, 0, 64, 0
13, 98878, Note_on_c, 0, 55, 58
13, 99037, Note_on_c, 0, 60, 52
13, 99198, Note_on_c, 0, 55, 0
13, 99199, Note_on_c, 0, 60, 0
13, 99199, Note_on_c, 0, 64, 49
13, 99341, Note_on_c, 0, 64, 0
13, 99355, Note_on_c, 0, 53, 57
13, 99514, Note_on_c, 0, 59, 53
13, 99665, Note_on_c, 0, 62, 63
13, 99685, Note_on_c, 0, 59, 0
13, 99696, Note_on_c, 0, 53, 0
13, 99837, Note_on_c, 0, 52, 69
13, 99841, Note_on_c, 0, 62, 0
13, 100000, Note_on_c, 0, 55, 60
13, 100167, Note_on_c, 0, 60, 61
13, 100178, Note_on_c, 0, 55, 0
13, 100189, Note_on_c, 0, 52, 0
13, 100314, Note_on_c, 0, 60, 0
13, 100325, Note_on_c, 0, 48, 65
13, 100480, Note_on_c, 0, 52, 51
13, 100623, Note_on_c, 0, 48, 0
13, 100639, Note_on_c, 0, 52, 0
13, 100640, Note_on_c, 0, 60, 50
13, 100776, Note_on_c, 0, 60, 0
13, 100796, Note_on_c, 0, 53, 54
13, 100962, Note_on_c, 0, 57, 59
13, 101113, Note_on_c, 0, 57, 0
13, 101114, Note_on_c, 0, 53, 0
13, 101117, Note_on_c, 0, 60, 59
13, 101220, Note_on_c, 0, 60, 0
13, 101279, Note_on_c, 0, 50, 58
13, 101439, Note_on_c, 0, 57, 56
13, 101597, Note_on_c, 0, 60, 65
13, 101606, Note_on_c, 0, 57, 0
13, 101607, Note_on_c, 0, 50, 0
13, 101746, Note_on_c, 0, 60, 0
13, 101756, Note_on_c, 0, 55, 57
13, 101924, Note_on_c, 0, 60, 59
13, 102083, Note_on_c, 0, 62, 53
13, 102088, Note_on_c, 0, 55, 0
13, 102098, Note_on_c, 0, 60, 0
13, 102227, Note_on_c, 0, 62, 0
13, 102242, Note_on_c, 0, 53, 60
13, 102410, Note_on_c, 0, 60, 58
13, 102569, Note_on_c, 0, 62, 58
13, 102577, Note_on_c, 0, 53, 0
13, 102585, Note_on_c, 0, 60, 0
13, 102727, Note_on_c, 0, 55, 65
13, 102740, Note_on_c, 0, 62, 0
13, 102885, Note_on_c, 0, 60, 53
13, 103045, Note_on_c, 0, 55, 0
13, 103046, Note_on_c, 0, 62, 49
13, 103104, Note_on_c, 0, 60, 0
13, 103188, Note_on_c, 0, 62, 0
13, 103202, Note_on_c, 0, 55, 65
13, 103369, Note_on_c, 0, 59, 52
13, 103531, Note_on_c, 0, 59, 0
13, 103533, Note_on_c, 0, 65, 51
13, 103542, Note_on_c, 0, 55, 0
13, 103692, Note_on_c, 0, 60, 60
13, 103693, Note_on_c, 0, 64, 56
13, 103703, Note_on_c, 0, 65, 0
13, 104176, Note_on_c, 0, 64, 0
13, 104179, Note_on_c, 0, 60, 0
13, 104179, End_track
14, 0, Start_track
14, 0, MIDI_port, 0
14, 0, Title_t, "Flutes"
14, 0, Program_c, 5, 73
14, 0, Control_c, 5, 7, 105
14, 0, Control_c, 5, 10, 58
14, 0, Control_c, 5, 93, 0
14, 0, Control_c, 5, 64, 0
14, 0, Pitch_bend_c, 5, 8192
14, 0, Control_c, 5, 91, 80
14, 13440, Note_on_c, 5, 84, 51
14, 15346, Note_on_c, 5, 84, 0
14, 15360, Note_on_c, 5, 82, 35
14, 17280, Note_on_c, 5, 86, 50
14, 17295, Note_on_c, 5, 82, 0
14, 19200, Note_on_c, 5, 84, 49
14, 19245, Note_on_c, 5, 86, 0
14, 21087, Note_on_c, 5, 84, 0
14, 21600, Note_on_c, 5, 73, 53
14, 22073, Note_on_c, 5, 73, 0
14, 22080, Note_on_c, 5, 85, 61
14, 23072, Note_on_c, 5, 85, 0
14, 23520, Note_on_c, 5, 72, 51
14, 23996, Note_on_c, 5, 72, 0
14, 24000, Note_on_c, 5, 84, 59
14, 24992, Note_on_c, 5, 84, 0
14, 25440, Note_on_c, 5, 70, 50
14, 25920, Note_on_c, 5, 82, 42
14, 25935, Note_on_c, 5, 70, 0
14, 26885, Note_on_c, 5, 82, 0
14, 27360, Note_on_c, 5, 68, 55
14, 27840, Note_on_c, 5, 80, 57
14, 27869, Note_on_c, 5, 68, 0
14, 28834, Note_on_c, 5, 80, 0
14, 29280, Note_on_c, 5, 67, 55
14, 29760, Note_on_c, 5, 79, 61
14, 29780, Note_on_c, 5, 67, 0
14, 30756, Note_on_c, 5, 79, 0
14, 35680, Note_on_c, 5, 84, 44
14, 35840, Note_on_c, 5, 85, 50
14, 35873, Note_on_c, 5, 84, 0
14, 36000, Note_on_c, 5, 86, 57
14, 36019, Note_on_c, 5, 85, 0
14, 36160, Note_on_c, 5, 87, 61
14, 36186, Note_on_c, 5, 86, 0
14, 36320, Note_on_c, 5, 88, 69
14, 36344, Note_on_c, 5, 87, 0
14, 36480, Note_on_c, 5, 89, 52
14, 36499, Note_on_c, 5, 88, 0
14, 37440, Note_on_c, 5, 88, 53
14, 37442, Note_on_c, 5, 89, 0
14, 37680, Note_on_c, 5, 86, 52
14, 37700, Note_on_c, 5, 88, 0
14, 37920, Note_on_c, 5, 84, 47
14, 37925, Note_on_c, 5, 86, 0
14, 38160, Note_on_c, 5, 82, 52
14, 38175, Note_on_c, 5, 84, 0
14, 38400, Note_on_c, 5, 81, 69
14, 38414, Note_on_c, 5, 82, 0
14, 38880, Note_on_c, 5, 79, 51
14, 38909, Note_on_c, 5, 81, 0
14, 39600, Note_on_c, 5, 81, 61
14, 39615, Note_on_c, 5, 79, 0
14, 39660, Note_on_c, 5, 79, 52
14, 39687, Note_on_c, 5, 81, 0
14, 39716, Note_on_c, 5, 79, 0
14, 39720, Note_on_c, 5, 78, 52
14, 39780, Note_on_c, 5, 79, 50
14, 39799, Note_on_c, 5, 78, 0
14, 39840, Note_on_c, 5, 84, 50
14, 39868, Note_on_c, 5, 79, 0
14, 40306, Note_on_c, 5, 84, 0
14, 40320, Note_on_c, 5, 77, 49
14, 40480, Note_on_c, 5, 72, 57
14, 40498, Note_on_c, 5, 77, 0
14, 40551, Note_on_c, 5, 72, 0
14, 40640, Note_on_c, 5, 72, 49
14, 40705, Note_on_c, 5, 72, 0
14, 40800, Note_on_c, 5, 72, 55
14, 40949, Note_on_c, 5, 72, 0
14, 40960, Note_on_c, 5, 69, 49
14, 41015, Note_on_c, 5, 69, 0
14, 41120, Note_on_c, 5, 69, 52
14, 41179, Note_on_c, 5, 69, 0
14, 41280, Note_on_c, 5, 69, 51
14, 41440, Note_on_c, 5, 65, 50
14, 41452, Note_on_c, 5, 69, 0
14, 41505, Note_on_c, 5, 65, 0
14, 41600, Note_on_c, 5, 65, 41
14, 41671, Note_on_c, 5, 65, 0
14, 41760, Note_on_c, 5, 65, 52
14, 41825, Note_on_c, 5, 65, 0
14, 41920, Note_on_c, 5, 65, 49
14, 41985, Note_on_c, 5, 65, 0
14, 42080, Note_on_c, 5, 65, 53
14, 42141, Note_on_c, 5, 65, 0
14, 42240, Note_on_c, 5, 65, 44
14, 42750, Note_on_c, 5, 65, 0
14, 55680, Note_on_c, 5, 84, 37
14, 57600, Note_on_c, 5, 84, 0
14, 57600, Note_on_c, 5, 82, 23
14, 59520, Note_on_c, 5, 82, 0
14, 59520, Note_on_c, 5, 86, 30
14, 61440, Note_on_c, 5, 86, 0
14, 61440, Note_on_c, 5, 84, 37
14, 63360, Note_on_c, 5, 84, 0
14, 63360, Note_on_c, 5, 88, 42
14, 65280, Note_on_c, 5, 88, 0
14, 65280, Note_on_c, 5, 89, 49
14, 65440, Note_on_c, 5, 89, 0
14, 65440, Note_on_c, 5, 77, 52
14, 65600, Note_on_c, 5, 77, 0
14, 65600, Note_on_c, 5, 77, 43
14, 65760, Note_on_c, 5, 77, 0
14, 65760, Note_on_c, 5, 77, 51
14, 65920, Note_on_c, 5, 77, 0
14, 65920, Note_on_c, 5, 77, 43
14, 66080, Note_on_c, 5, 77, 0
14, 66080, Note_on_c, 5, 77, 42
14, 66240, Note_on_c, 5, 77, 0
14, 66240, Note_on_c, 5, 77, 41
14, 66400, Note_on_c, 5, 77, 0
14, 66400, Note_on_c, 5, 72, 43
14, 66560, Note_on_c, 5, 72, 0
14, 66560, Note_on_c, 5, 72, 40
14, 66720, Note_on_c, 5, 72, 0
14, 66720, Note_on_c, 5, 72, 43
14, 66880, Note_on_c, 5, 72, 0
14, 66880, Note_on_c, 5, 72, 24
14, 67040, Note_on_c, 5, 72, 0
14, 67040, Note_on_c, 5, 72, 42
14, 67200, Note_on_c, 5, 72, 0
14, 67200, Note_on_c, 5, 73, 34
14, 67360, Note_on_c, 5, 73, 0
14, 67360, Note_on_c, 5, 73, 32
14, 67520, Note_on_c, 5, 73, 0
14, 67520, Note_on_c, 5, 73, 18
14, 67680, Note_on_c, 5, 73, 0
14, 67680, Note_on_c, 5, 73, 39
14, 67840, Note_on_c, 5, 73, 0
14, 67840, Note_on_c, 5, 73, 42
14, 68000, Note_on_c, 5, 73, 0
14, 68000, Note_on_c, 5, 73, 40
14, 68160, Note_on_c, 5, 73, 0
14, 68160, Note_on_c, 5, 85, 36
14, 68320, Note_on_c, 5, 85, 0
14, 68320, Note_on_c, 5, 85, 37
14, 68480, Note_on_c, 5, 85, 0
14, 68480, Note_on_c, 5, 85, 30
14, 68640, Note_on_c, 5, 85, 0
14, 68640, Note_on_c, 5, 85, 40
14, 68800, Note_on_c, 5, 85, 0
14, 68800, Note_on_c, 5, 85, 44
14, 68960, Note_on_c, 5, 85, 0
14, 68960, Note_on_c, 5, 85, 43
14, 69120, Note_on_c, 5, 85, 0
14, 69120, Note_on_c, 5, 86, 18
14, 69600, Note_on_c, 5, 86, 0
14, 84960, Note_on_c, 5, 77, 46
14, 85940, Note_on_c, 5, 77, 0
14, 86880, Note_on_c, 5, 79, 44
14, 87842, Note_on_c, 5, 79, 0
14, 88800, Note_on_c, 5, 80, 46
14, 89280, Note_on_c, 5, 79, 41
14, 89308, Note_on_c, 5, 80, 0
14, 89784, Note_on_c, 5, 79, 0
14, 90720, Note_on_c, 5, 78, 45
14, 91200, Note_on_c, 5, 81, 46
14, 91215, Note_on_c, 5, 78, 0
14, 91735, Note_on_c, 5, 81, 0
14, 92640, Note_on_c, 5, 89, 48
14, 93120, Note_on_c, 5, 86, 36
14, 93134, Note_on_c, 5, 89, 0
14, 93598, Note_on_c, 5, 86, 0
14, 93600, Note_on_c, 5, 83, 49
14, 94080, Note_on_c, 5, 84, 33
14, 94111, Note_on_c, 5, 83, 0
14, 94539, Note_on_c, 5, 84, 0
14, 99840, Note_on_c, 5, 84, 52
14, 100800, Note_on_c, 5, 83, 49
14, 100840, Note_on_c, 5, 84, 0
14, 101040, Note_on_c, 5, 81, 54
14, 101062, Note_on_c, 5, 83, 0
14, 101280, Note_on_c, 5, 79, 49
14, 101287, Note_on_c, 5, 81, 0
14, 101520, Note_on_c, 5, 79, 0
14, 101520, Note_on_c, 5, 77, 42
14, 101760, Note_on_c, 5, 76, 46
14, 101781, Note_on_c, 5, 77, 0
14, 102236, Note_on_c, 5, 76, 0
14, 102240, Note_on_c, 5, 74, 47
14, 103200, Note_on_c, 5, 79, 44
14, 103213, Note_on_c, 5, 74, 0
14, 103680, Note_on_c, 5, 72, 45
14, 103702, Note_on_c, 5, 79, 0
14, 104128, Note_on_c, 5, 72, 0
14, 104128, End_track
15, 0, Start_track
15, 0, MIDI_port, 0
15, 0, Title_t, "Oboes"
15, 0, Program_c, 6, 68
15, 0, Control_c, 6, 7, 105
15, 0, Control_c, 6, 10, 72
15, 0, Pitch_bend_c, 6, 8192
15, 0, Control_c, 6, 93, 0
15, 0, Control_c, 6, 64, 0
15, 0, Control_c, 6, 91, 92
15, 13440, Note_on_c, 6, 77, 51
15, 13440, Note_on_c, 6, 75, 50
15, 15347, Note_on_c, 6, 75, 0
15, 15360, Note_on_c, 6, 74, 49
15, 17280, Note_on_c, 6, 80, 49
15, 17334, Note_on_c, 6, 74, 0
15, 21118, Note_on_c, 6, 80, 0
15, 21133, Note_on_c, 6, 77, 0
15, 21600, Note_on_c, 6, 70, 46
15, 21600, Note_on_c, 6, 79, 58
15, 22080, Note_on_c, 6, 76, 59
15, 22102, Note_on_c, 6, 79, 0
15, 22576, Note_on_c, 6, 76, 0
15, 22579, Note_on_c, 6, 70, 0
15, 23520, Note_on_c, 6, 80, 48
15, 23520, Note_on_c, 6, 72, 51
15, 23983, Note_on_c, 6, 80, 0
15, 24000, Note_on_c, 6, 77, 62
15, 24521, Note_on_c, 6, 72, 0
15, 24555, Note_on_c, 6, 77, 0
15, 25440, Note_on_c, 6, 76, 52
15, 25440, Note_on_c, 6, 73, 50
15, 25919, Note_on_c, 6, 73, 0
15, 25920, Note_on_c, 6, 72, 49
15, 26443, Note_on_c, 6, 76, 0
15, 26447, Note_on_c, 6, 72, 0
15, 27360, Note_on_c, 6, 71, 53
15, 27360, Note_on_c, 6, 77, 49
15, 27840, Note_on_c, 6, 74, 62
15, 27843, Note_on_c, 6, 71, 0
15, 28387, Note_on_c, 6, 77, 0
15, 28407, Note_on_c, 6, 74, 0
15, 29280, Note_on_c, 6, 70, 57
15, 29280, Note_on_c, 6, 77, 51
15, 29760, Note_on_c, 6, 67, 54
15, 29760, Note_on_c, 6, 76, 56
15, 29806, Note_on_c, 6, 77, 0
15, 29814, Note_on_c, 6, 70, 0
15, 30240, Note_on_c, 6, 72, 57
15, 30260, Note_on_c, 6, 76, 0
15, 30261, Note_on_c, 6, 67, 0
15, 30720, Note_on_c, 6, 77, 55
15, 30736, Note_on_c, 6, 72, 0
15, 31680, Note_on_c, 6, 76, 51
15, 31718, Note_on_c, 6, 77, 0
15, 31920, Note_on_c, 6, 74, 41
15, 31938, Note_on_c, 6, 76, 0
15, 32151, Note_on_c, 6, 74, 0
15, 32160, Note_on_c, 6, 72, 52
15, 32400, Note_on_c, 6, 70, 55
15, 32414, Note_on_c, 6, 72, 0
15, 32640, Note_on_c, 6, 69, 61
15, 32670, Note_on_c, 6, 70, 0
15, 33120, Note_on_c, 6, 67, 50
15, 33155, Note_on_c, 6, 69, 0
15, 34080, Note_on_c, 6, 72, 55
15, 34103, Note_on_c, 6, 67, 0
15, 34560, Note_on_c, 6, 70, 61
15, 34581, Note_on_c, 6, 72, 0
15, 35040, Note_on_c, 6, 69, 53
15, 35067, Note_on_c, 6, 70, 0
15, 35542, Note_on_c, 6, 69, 0
15, 35680, Note_on_c, 6, 72, 55
15, 35837, Note_on_c, 6, 72, 0
15, 35840, Note_on_c, 6, 73, 61
15, 35996, Note_on_c, 6, 73, 0
15, 36000, Note_on_c, 6, 74, 64
15, 36160, Note_on_c, 6, 75, 57
15, 36182, Note_on_c, 6, 74, 0
15, 36320, Note_on_c, 6, 76, 52
15, 36355, Note_on_c, 6, 75, 0
15, 36480, Note_on_c, 6, 77, 55
15, 36514, Note_on_c, 6, 76, 0
15, 37438, Note_on_c, 6, 77, 0
15, 37440, Note_on_c, 6, 76, 52
15, 37680, Note_on_c, 6, 74, 52
15, 37687, Note_on_c, 6, 76, 0
15, 37920, Note_on_c, 6, 72, 57
15, 37930, Note_on_c, 6, 74, 0
15, 38160, Note_on_c, 6, 70, 52
15, 38168, Note_on_c, 6, 72, 0
15, 38400, Note_on_c, 6, 69, 57
15, 38455, Note_on_c, 6, 70, 0
15, 38880, Note_on_c, 6, 67, 57
15, 38891, Note_on_c, 6, 69, 0
15, 39600, Note_on_c, 6, 69, 52
15, 39612, Note_on_c, 6, 67, 0
15, 39660, Note_on_c, 6, 67, 48
15, 39703, Note_on_c, 6, 69, 0
15, 39720, Note_on_c, 6, 66, 45
15, 39728, Note_on_c, 6, 67, 0
15, 39774, Note_on_c, 6, 66, 0
15, 39780, Note_on_c, 6, 67, 52
15, 39840, Note_on_c, 6, 72, 64
15, 39912, Note_on_c, 6, 67, 0
15, 40277, Note_on_c, 6, 72, 0
15, 40320, Note_on_c, 6, 65, 55
15, 40440, Note_on_c, 6, 65, 0
15, 40480, Note_on_c, 6, 69, 50
15, 40480, Note_on_c, 6, 65, 33
15, 40538, Note_on_c, 6, 65, 0
15, 40552, Note_on_c, 6, 69, 0
15, 40640, Note_on_c, 6, 65, 41
15, 40640, Note_on_c, 6, 69, 52
15, 40687, Note_on_c, 6, 69, 0
15, 40688, Note_on_c, 6, 65, 0
15, 40800, Note_on_c, 6, 65, 61
15, 40800, Note_on_c, 6, 69, 57
15, 40865, Note_on_c, 6, 65, 0
15, 40866, Note_on_c, 6, 69, 0
15, 40960, Note_on_c, 6, 65, 44
15, 40960, Note_on_c, 6, 60, 48
15, 41010, Note_on_c, 6, 65, 0
15, 41016, Note_on_c, 6, 60, 0
15, 41120, Note_on_c, 6, 65, 42
15, 41120, Note_on_c, 6, 60, 39
15, 41163, Note_on_c, 6, 60, 0
15, 41179, Note_on_c, 6, 65, 0
15, 41280, Note_on_c, 6, 60, 40
15, 41280, Note_on_c, 6, 65, 38
15, 41333, Note_on_c, 6, 60, 0
15, 41336, Note_on_c, 6, 65, 0
15, 41440, Note_on_c, 6, 60, 37
15, 41440, Note_on_c, 6, 65, 36
15, 41492, Note_on_c, 6, 65, 0
15, 41504, Note_on_c, 6, 60, 0
15, 41600, Note_on_c, 6, 60, 39
15, 41600, Note_on_c, 6, 65, 40
15, 41653, Note_on_c, 6, 65, 0
15, 41662, Note_on_c, 6, 60, 0
15, 41760, Note_on_c, 6, 60, 38
15, 41760, Note_on_c, 6, 65, 40
15, 41815, Note_on_c, 6, 65, 0
15, 41822, Note_on_c, 6, 60, 0
15, 41920, Note_on_c, 6, 65, 39
15, 41920, Note_on_c, 6, 60, 34
15, 41980, Note_on_c, 6, 65, 0
15, 41983, Note_on_c, 6, 60, 0
15, 42080, Note_on_c, 6, 60, 35
15, 42080, Note_on_c, 6, 65, 36
15, 42134, Note_on_c, 6, 65, 0
15, 42146, Note_on_c, 6, 60, 0
15, 42240, Note_on_c, 6, 65, 35
15, 42240, Note_on_c, 6, 60, 29
15, 42716, Note_on_c, 6, 60, 0
15, 42718, Note_on_c, 6, 65, 0
15, 55680, Note_on_c, 6, 75, 36
15, 55680, Note_on_c, 6, 77, 39
15, 57600, Note_on_c, 6, 75, 0
15, 57600, Note_on_c, 6, 74, 41
15, 59520, Note_on_c, 6, 74, 0
15, 59520, Note_on_c, 6, 77, 0
15, 59520, Note_on_c, 6, 77, 31
15, 59520, Note_on_c, 6, 80, 38
15, 61440, Note_on_c, 6, 80, 0
15, 61440, Note_on_c, 6, 81, 33
15, 63360, Note_on_c, 6, 81, 0
15, 63360, Note_on_c, 6, 77, 0
15, 63360, Note_on_c, 6, 79, 37
15, 63360, Note_on_c, 6, 82, 24
15, 65280, Note_on_c, 6, 82, 0
15, 65280, Note_on_c, 6, 79, 0
15, 65280, Note_on_c, 6, 77, 43
15, 65280, Note_on_c, 6, 81, 46
15, 65440, Note_on_c, 6, 81, 0
15, 65440, Note_on_c, 6, 77, 0
15, 65440, Note_on_c, 6, 69, 46
15, 65440, Note_on_c, 6, 72, 43
15, 65600, Note_on_c, 6, 72, 0
15, 65600, Note_on_c, 6, 69, 0
15, 65600, Note_on_c, 6, 69, 31
15, 65600, Note_on_c, 6, 72, 37
15, 65760, Note_on_c, 6, 72, 0
15, 65760, Note_on_c, 6, 69, 0
15, 65760, Note_on_c, 6, 69, 35
15, 65760, Note_on_c, 6, 72, 43
15, 65920, Note_on_c, 6, 72, 0
15, 65920, Note_on_c, 6, 69, 0
15, 65920, Note_on_c, 6, 69, 45
15, 65920, Note_on_c, 6, 72, 44
15, 66080, Note_on_c, 6, 72, 0
15, 66080, Note_on_c, 6, 69, 0
15, 66080, Note_on_c, 6, 69, 46
15, 66080, Note_on_c, 6, 72, 42
15, 66240, Note_on_c, 6, 72, 0
15, 66240, Note_on_c, 6, 69, 0
15, 66240, Note_on_c, 6, 69, 45
15, 66240, Note_on_c, 6, 72, 49
15, 66400, Note_on_c, 6, 72, 0
15, 66400, Note_on_c, 6, 69, 0
15, 66400, Note_on_c, 6, 65, 50
15, 66400, Note_on_c, 6, 69, 46
15, 66560, Note_on_c, 6, 69, 0
15, 66560, Note_on_c, 6, 65, 0
15, 66560, Note_on_c, 6, 65, 44
15, 66560, Note_on_c, 6, 69, 43
15, 66720, Note_on_c, 6, 69, 0
15, 66720, Note_on_c, 6, 65, 0
15, 66720, Note_on_c, 6, 65, 45
15, 66720, Note_on_c, 6, 69, 45
15, 66880, Note_on_c, 6, 69, 0
15, 66880, Note_on_c, 6, 65, 0
15, 66880, Note_on_c, 6, 65, 48
15, 66880, Note_on_c, 6, 69, 44
15, 67040, Note_on_c, 6, 69, 0
15, 67040, Note_on_c, 6, 65, 0
15, 67040, Note_on_c, 6, 65, 48
15, 67040, Note_on_c, 6, 69, 44
15, 67200, Note_on_c, 6, 69, 0
15, 67200, Note_on_c, 6, 65, 0
15, 67200, Note_on_c, 6, 67, 37
15, 67200, Note_on_c, 6, 70, 32
15, 67360, Note_on_c, 6, 70, 0
15, 67360, Note_on_c, 6, 67, 0
15, 67360, Note_on_c, 6, 67, 32
15, 67360, Note_on_c, 6, 70, 34
15, 67520, Note_on_c, 6, 70, 0
15, 67520, Note_on_c, 6, 67, 0
15, 67520, Note_on_c, 6, 67, 39
15, 67520, Note_on_c, 6, 70, 33
15, 67680, Note_on_c, 6, 70, 0
15, 67680, Note_on_c, 6, 67, 0
15, 67680, Note_on_c, 6, 67, 39
15, 67680, Note_on_c, 6, 70, 32
15, 67840, Note_on_c, 6, 70, 0
15, 67840, Note_on_c, 6, 67, 0
15, 67840, Note_on_c, 6, 67, 31
15, 67840, Note_on_c, 6, 70, 33
15, 68000, Note_on_c, 6, 70, 0
15, 68000, Note_on_c, 6, 67, 0
15, 68000, Note_on_c, 6, 67, 36
15, 68000, Note_on_c, 6, 70, 38
15, 68160, Note_on_c, 6, 70, 0
15, 68160, Note_on_c, 6, 67, 0
15, 68160, Note_on_c, 6, 76, 36
15, 68160, Note_on_c, 6, 79, 37
15, 68320, Note_on_c, 6, 79, 0
15, 68320, Note_on_c, 6, 76, 0
15, 68320, Note_on_c, 6, 76, 35
15, 68320, Note_on_c, 6, 79, 38
15, 68480, Note_on_c, 6, 79, 0
15, 68480, Note_on_c, 6, 76, 0
15, 68480, Note_on_c, 6, 76, 42
15, 68480, Note_on_c, 6, 79, 44
15, 68640, Note_on_c, 6, 79, 0
15, 68640, Note_on_c, 6, 76, 0
15, 68640, Note_on_c, 6, 76, 43
15, 68640, Note_on_c, 6, 79, 43
15, 68800, Note_on_c, 6, 79, 0
15, 68800, Note_on_c, 6, 76, 0
15, 68800, Note_on_c, 6, 76, 27
15, 68800, Note_on_c, 6, 79, 38
15, 68960, Note_on_c, 6, 79, 0
15, 68960, Note_on_c, 6, 76, 0
15, 68960, Note_on_c, 6, 76, 46
15, 68960, Note_on_c, 6, 79, 49
15, 69120, Note_on_c, 6, 79, 0
15, 69120, Note_on_c, 6, 76, 0
15, 69120, Note_on_c, 6, 74, 22
15, 69120, Note_on_c, 6, 77, 18
15, 69600, Note_on_c, 6, 77, 0
15, 69600, Note_on_c, 6, 74, 0
15, 83040, Note_on_c, 6, 79, 47
15, 83520, Note_on_c, 6, 75, 40
15, 83537, Note_on_c, 6, 79, 0
15, 84000, Note_on_c, 6, 72, 49
15, 84028, Note_on_c, 6, 75, 0
15, 84960, Note_on_c, 6, 71, 48
15, 84960, Note_on_c, 6, 62, 39
15, 84983, Note_on_c, 6, 72, 0
15, 85415, Note_on_c, 6, 62, 0
15, 85440, Note_on_c, 6, 74, 49
15, 85942, Note_on_c, 6, 71, 0
15, 86880, Note_on_c, 6, 63, 39
15, 86880, Note_on_c, 6, 72, 47
15, 86898, Note_on_c, 6, 74, 0
15, 87360, Note_on_c, 6, 75, 46
15, 87389, Note_on_c, 6, 63, 0
15, 87884, Note_on_c, 6, 72, 0
15, 88800, Note_on_c, 6, 74, 48
15, 88800, Note_on_c, 6, 71, 41
15, 88836, Note_on_c, 6, 75, 0
15, 89280, Note_on_c, 6, 77, 44
15, 89290, Note_on_c, 6, 74, 0
15, 89771, Note_on_c, 6, 71, 0
15, 90720, Note_on_c, 6, 72, 42
15, 90720, Note_on_c, 6, 75, 42
15, 90765, Note_on_c, 6, 77, 0
15, 91200, Note_on_c, 6, 78, 41
15, 91202, Note_on_c, 6, 75, 0
15, 91691, Note_on_c, 6, 72, 0
15, 92160, Note_on_c, 6, 79, 47
15, 92185, Note_on_c, 6, 78, 0
15, 92640, Note_on_c, 6, 80, 42
15, 92640, Note_on_c, 6, 72, 33
15, 92667, Note_on_c, 6, 79, 0
15, 93120, Note_on_c, 6, 79, 41
15, 93120, Note_on_c, 6, 71, 33
15, 93167, Note_on_c, 6, 80, 0
15, 93182, Note_on_c, 6, 72, 0
15, 93590, Note_on_c, 6, 71, 0
15, 93610, Note_on_c, 6, 79, 0
15, 93610, End_track
16, 0, Start_track
16, 0, MIDI_port, 0
16, 0, Title_t, "Bassoons"
16, 0, Program_c, 7, 70
16, 0, Control_c, 7, 7, 105
16, 0, Control_c, 7, 10, 90
16, 0, Pitch_bend_c, 7, 8192
16, 0, Control_c, 7, 93, 0
16, 0, Control_c, 7, 64, 0
16, 0, Control_c, 7, 91, 80
16, 13440, Note_on_c, 7, 60, 45
16, 13440, Note_on_c, 7, 57, 44
16, 15340, Note_on_c, 7, 60, 0
16, 15360, Note_on_c, 7, 58, 49
16, 15360, Note_on_c, 7, 62, 56
16, 15364, Note_on_c, 7, 57, 0
16, 17280, Note_on_c, 7, 59, 61
16, 17316, Note_on_c, 7, 58, 0
16, 19200, Note_on_c, 7, 60, 61
16, 19208, Note_on_c, 7, 59, 0
16, 19213, Note_on_c, 7, 62, 0
16, 20160, Note_on_c, 7, 48, 55
16, 20640, Note_on_c, 7, 53, 48
16, 20708, Note_on_c, 7, 60, 0
16, 21583, Note_on_c, 7, 53, 0
16, 21600, Note_on_c, 7, 52, 59
16, 22080, Note_on_c, 7, 55, 63
16, 22109, Note_on_c, 7, 52, 0
16, 23520, Note_on_c, 7, 53, 67
16, 23543, Note_on_c, 7, 55, 0
16, 24000, Note_on_c, 7, 56, 61
16, 24031, Note_on_c, 7, 53, 0
16, 25440, Note_on_c, 7, 55, 54
16, 25499, Note_on_c, 7, 56, 0
16, 25920, Note_on_c, 7, 58, 57
16, 25928, Note_on_c, 7, 55, 0
16, 27357, Note_on_c, 7, 58, 0
16, 27360, Note_on_c, 7, 56, 71
16, 27818, Note_on_c, 7, 56, 0
16, 27840, Note_on_c, 7, 59, 67
16, 28800, Note_on_c, 7, 60, 71
16, 28831, Note_on_c, 7, 59, 0
16, 29271, Note_on_c, 7, 60, 0
16, 29280, Note_on_c, 7, 61, 71
16, 29760, Note_on_c, 7, 60, 57
16, 29767, Note_on_c, 7, 61, 0
16, 30240, Note_on_c, 7, 46, 49
16, 30253, Note_on_c, 7, 60, 0
16, 30256, Note_on_c, 7, 48, 0
16, 30720, Note_on_c, 7, 45, 45
16, 30763, Note_on_c, 7, 46, 0
16, 31210, Note_on_c, 7, 45, 0
16, 35680, Note_on_c, 7, 60, 47
16, 35840, Note_on_c, 7, 61, 51
16, 35873, Note_on_c, 7, 60, 0
16, 36000, Note_on_c, 7, 62, 53
16, 36013, Note_on_c, 7, 61, 0
16, 36160, Note_on_c, 7, 63, 55
16, 36175, Note_on_c, 7, 62, 0
16, 36320, Note_on_c, 7, 64, 61
16, 36339, Note_on_c, 7, 63, 0
16, 36480, Note_on_c, 7, 65, 61
16, 36500, Note_on_c, 7, 64, 0
16, 37440, Note_on_c, 7, 64, 42
16, 37455, Note_on_c, 7, 65, 0
16, 37680, Note_on_c, 7, 62, 49
16, 37681, Note_on_c, 7, 64, 0
16, 37914, Note_on_c, 7, 62, 0
16, 37920, Note_on_c, 7, 60, 53
16, 38153, Note_on_c, 7, 60, 0
16, 38160, Note_on_c, 7, 58, 51
16, 38400, Note_on_c, 7, 57, 48
16, 38417, Note_on_c, 7, 58, 0
16, 38880, Note_on_c, 7, 55, 52
16, 38913, Note_on_c, 7, 57, 0
16, 39553, Note_on_c, 7, 55, 0
16, 39600, Note_on_c, 7, 57, 61
16, 39660, Note_on_c, 7, 55, 57
16, 39715, Note_on_c, 7, 57, 0
16, 39720, Note_on_c, 7, 54, 53
16, 39746, Note_on_c, 7, 55, 0
16, 39780, Note_on_c, 7, 55, 51
16, 39803, Note_on_c, 7, 54, 0
16, 39840, Note_on_c, 7, 60, 69
16, 39868, Note_on_c, 7, 55, 0
16, 40302, Note_on_c, 7, 60, 0
16, 40320, Note_on_c, 7, 53, 53
16, 40434, Note_on_c, 7, 53, 0
16, 40480, Note_on_c, 7, 53, 41
16, 40480, Note_on_c, 7, 57, 57
16, 40545, Note_on_c, 7, 57, 0
16, 40548, Note_on_c, 7, 53, 0
16, 40640, Note_on_c, 7, 53, 44
16, 40640, Note_on_c, 7, 57, 51
16, 40695, Note_on_c, 7, 57, 0
16, 40700, Note_on_c, 7, 53, 0
16, 40800, Note_on_c, 7, 57, 45
16, 40800, Note_on_c, 7, 53, 47
16, 40871, Note_on_c, 7, 53, 0
16, 40902, Note_on_c, 7, 57, 0
16, 40960, Note_on_c, 7, 53, 55
16, 41011, Note_on_c, 7, 53, 0
16, 41120, Note_on_c, 7, 53, 57
16, 41183, Note_on_c, 7, 53, 0
16, 41280, Note_on_c, 7, 53, 51
16, 41380, Note_on_c, 7, 53, 0
16, 41440, Note_on_c, 7, 48, 57
16, 41440, Note_on_c, 7, 41, 54
16, 41504, Note_on_c, 7, 48, 0
16, 41509, Note_on_c, 7, 41, 0
16, 41600, Note_on_c, 7, 41, 39
16, 41600, Note_on_c, 7, 48, 49
16, 41664, Note_on_c, 7, 48, 0
16, 41674, Note_on_c, 7, 41, 0
16, 41760, Note_on_c, 7, 41, 45
16, 41760, Note_on_c, 7, 48, 44
16, 41837, Note_on_c, 7, 48, 0
16, 41838, Note_on_c, 7, 41, 0
16, 41920, Note_on_c, 7, 41, 44
16, 41920, Note_on_c, 7, 48, 39
16, 41990, Note_on_c, 7, 41, 0
16, 41996, Note_on_c, 7, 48, 0
16, 42080, Note_on_c, 7, 41, 47
16, 42080, Note_on_c, 7, 48, 43
16, 42151, Note_on_c, 7, 41, 0
16, 42155, Note_on_c, 7, 48, 0
16, 42240, Note_on_c, 7, 41, 33
16, 42240, Note_on_c, 7, 48, 41
16, 42722, Note_on_c, 7, 48, 0
16, 42724, Note_on_c, 7, 41, 0
16, 55680, Note_on_c, 7, 57, 31
16, 55680, Note_on_c, 7, 60, 36
16, 57600, Note_on_c, 7, 60, 0
16, 57600, Note_on_c, 7, 57, 0
16, 57600, Note_on_c, 7, 58, 30
16, 57600, Note_on_c, 7, 62, 40
16, 59520, Note_on_c, 7, 58, 0
16, 59520, Note_on_c, 7, 59, 43
16, 61440, Note_on_c, 7, 59, 0
16, 61440, Note_on_c, 7, 62, 0
16, 61440, Note_on_c, 7, 60, 36
16, 62400, Note_on_c, 7, 57, 36
16, 63360, Note_on_c, 7, 57, 0
16, 63360, Note_on_c, 7, 60, 0
16, 63360, Note_on_c, 7, 55, 36
16, 63360, Note_on_c, 7, 64, 42
16, 65280, Note_on_c, 7, 64, 0
16, 65280, Note_on_c, 7, 55, 0
16, 65280, Note_on_c, 7, 53, 36
16, 65280, Note_on_c, 7, 65, 33
16, 65760, Note_on_c, 7, 65, 0
16, 65760, Note_on_c, 7, 53, 0
16, 66400, Note_on_c, 7, 53, 39
16, 66400, Note_on_c, 7, 57, 40
16, 66560, Note_on_c, 7, 57, 0
16, 66560, Note_on_c, 7, 53, 0
16, 66560, Note_on_c, 7, 53, 33
16, 66560, Note_on_c, 7, 57, 34
16, 66720, Note_on_c, 7, 57, 0
16, 66720, Note_on_c, 7, 53, 0
16, 66720, Note_on_c, 7, 53, 34
16, 66720, Note_on_c, 7, 57, 39
16, 66880, Note_on_c, 7, 57, 0
16, 66880, Note_on_c, 7, 53, 0
16, 66880, Note_on_c, 7, 53, 40
16, 66880, Note_on_c, 7, 57, 43
16, 67040, Note_on_c, 7, 57, 0
16, 67040, Note_on_c, 7, 53, 0
16, 67040, Note_on_c, 7, 53, 39
16, 67040, Note_on_c, 7, 57, 46
16, 67200, Note_on_c, 7, 57, 0
16, 67200, Note_on_c, 7, 53, 0
16, 67200, Note_on_c, 7, 52, 24
16, 67200, Note_on_c, 7, 55, 35
16, 67360, Note_on_c, 7, 55, 0
16, 67360, Note_on_c, 7, 52, 0
16, 67360, Note_on_c, 7, 52, 26
16, 67360, Note_on_c, 7, 55, 40
16, 67520, Note_on_c, 7, 55, 0
16, 67520, Note_on_c, 7, 52, 0
16, 67520, Note_on_c, 7, 52, 21
16, 67520, Note_on_c, 7, 55, 33
16, 67680, Note_on_c, 7, 55, 0
16, 67680, Note_on_c, 7, 52, 0
16, 67680, Note_on_c, 7, 52, 26
16, 67680, Note_on_c, 7, 55, 38
16, 67840, Note_on_c, 7, 55, 0
16, 67840, Note_on_c, 7, 52, 0
16, 67840, Note_on_c, 7, 52, 26
16, 67840, Note_on_c, 7, 55, 30
16, 68000, Note_on_c, 7, 55, 0
16, 68000, Note_on_c, 7, 52, 0
16, 68000, Note_on_c, 7, 52, 32
16, 68000, Note_on_c, 7, 55, 37
16, 68160, Note_on_c, 7, 55, 0
16, 68160, Note_on_c, 7, 52, 0
16, 68160, Note_on_c, 7, 55, 32
16, 68160, Note_on_c, 7, 61, 35
16, 68320, Note_on_c, 7, 61, 0
16, 68320, Note_on_c, 7, 55, 0
16, 68320, Note_on_c, 7, 55, 29
16, 68320, Note_on_c, 7, 61, 43
16, 68480, Note_on_c, 7, 61, 0
16, 68480, Note_on_c, 7, 55, 0
16, 68480, Note_on_c, 7, 55, 35
16, 68480, Note_on_c, 7, 61, 40
16, 68640, Note_on_c, 7, 61, 0
16, 68640, Note_on_c, 7, 55, 0
16, 68640, Note_on_c, 7, 55, 36
16, 68640, Note_on_c, 7, 61, 43
16, 68800, Note_on_c, 7, 61, 0
16, 68800, Note_on_c, 7, 55, 0
16, 68800, Note_on_c, 7, 55, 47
16, 68800, Note_on_c, 7, 61, 46
16, 68960, Note_on_c, 7, 61, 0
16, 68960, Note_on_c, 7, 55, 0
16, 68960, Note_on_c, 7, 55, 50
16, 68960, Note_on_c, 7, 61, 44
16, 69120, Note_on_c, 7, 61, 0
16, 69120, Note_on_c, 7, 55, 0
16, 69120, Note_on_c, 7, 53, 16
16, 69120, Note_on_c, 7, 62, 17
16, 69600, Note_on_c, 7, 62, 0
16, 69600, Note_on_c, 7, 53, 0
16, 82560, Note_on_c, 7, 43, 42
16, 84960, Note_on_c, 7, 56, 41
16, 86411, Note_on_c, 7, 56, 0
16, 86880, Note_on_c, 7, 55, 46
16, 87360, Note_on_c, 7, 67, 47
16, 87390, Note_on_c, 7, 55, 0
16, 88361, Note_on_c, 7, 67, 0
16, 88800, Note_on_c, 7, 53, 38
16, 89280, Note_on_c, 7, 65, 44
16, 89326, Note_on_c, 7, 53, 0
16, 90244, Note_on_c, 7, 65, 0
16, 90720, Note_on_c, 7, 51, 36
16, 91199, Note_on_c, 7, 51, 0
16, 91200, Note_on_c, 7, 63, 41
16, 92208, Note_on_c, 7, 63, 0
16, 92640, Note_on_c, 7, 50, 42
16, 93120, Note_on_c, 7, 62, 38
16, 93129, Note_on_c, 7, 50, 0
16, 93600, Note_on_c, 7, 41, 42
16, 93612, Note_on_c, 7, 43, 0
16, 94080, Note_on_c, 7, 40, 43
16, 94080, Note_on_c, 7, 60, 46
16, 94129, Note_on_c, 7, 41, 0
16, 94129, Note_on_c, 7, 62, 0
16, 94506, Note_on_c, 7, 60, 0
16, 94517, Note_on_c, 7, 40, 0
16, 99840, Note_on_c, 7, 60, 52
16, 100800, Note_on_c, 7, 59, 49
16, 100840, Note_on_c, 7, 60, 0
16, 101040, Note_on_c, 7, 57, 54
16, 101062, Note_on_c, 7, 59, 0
16, 101280, Note_on_c, 7, 55, 49
16, 101287, Note_on_c, 7, 57, 0
16, 101520, Note_on_c, 7, 55, 0
16, 101520, Note_on_c, 7, 53, 42
16, 101760, Note_on_c, 7, 52, 46
16, 101781, Note_on_c, 7, 53, 0
16, 102236, Note_on_c, 7, 52, 0
16, 102240, Note_on_c, 7, 50, 47
16, 103200, Note_on_c, 7, 55, 44
16, 103213, Note_on_c, 7, 50, 0
16, 103680, Note_on_c, 7, 48, 45
16, 103702, Note_on_c, 7, 55, 0
16, 104128, Note_on_c, 7, 48, 0
16, 104128, End_track
17, 0, Start_track
17, 0, MIDI_port, 0
17, 0, Title_t, "Horns"
17, 0, Program_c, 8, 60
17, 0, Control_c, 8, 7, 105
17, 0, Control_c, 8, 10, 50
17, 0, Pitch_bend_c, 8, 8192
17, 0, Control_c, 8, 93, 0
17, 0, Control_c, 8, 64, 0
17, 0, Control_c, 8, 91, 68
17, 13440, Note_on_c, 8, 65, 39
17, 13440, Note_on_c, 8, 53, 38
17, 17200, Note_on_c, 8, 65, 0
17, 17222, Note_on_c, 8, 53, 0
17, 17280, Note_on_c, 8, 65, 46
17, 17280, Note_on_c, 8, 53, 37
17, 19200, Note_on_c, 8, 60, 50
17, 19200, Note_on_c, 8, 48, 34
17, 19249, Note_on_c, 8, 53, 0
17, 19254, Note_on_c, 8, 65, 0
17, 30773, Note_on_c, 8, 48, 0
17, 30780, Note_on_c, 8, 60, 0
17, 36480, Note_on_c, 8, 53, 51
17, 36480, Note_on_c, 8, 65, 50
17, 38384, Note_on_c, 8, 53, 0
17, 38387, Note_on_c, 8, 65, 0
17, 38400, Note_on_c, 8, 60, 57
17, 38400, Note_on_c, 8, 48, 51
17, 38880, Note_on_c, 8, 53, 45
17, 38880, Note_on_c, 8, 65, 43
17, 38918, Note_on_c, 8, 60, 0
17, 38930, Note_on_c, 8, 48, 0
17, 39360, Note_on_c, 8, 48, 37
17, 39360, Note_on_c, 8, 60, 47
17, 39399, Note_on_c, 8, 53, 0
17, 39403, Note_on_c, 8, 65, 0
17, 40250, Note_on_c, 8, 60, 0
17, 40320, Note_on_c, 8, 60, 57
17, 40320, Note_on_c, 8, 53, 54
17, 40349, Note_on_c, 8, 48, 0
17, 40413, Note_on_c, 8, 60, 0
17, 40438, Note_on_c, 8, 53, 0
17, 40480, Note_on_c, 8, 60, 49
17, 40480, Note_on_c, 8, 65, 47
17, 40542, Note_on_c, 8, 65, 0
17, 40548, Note_on_c, 8, 60, 0
17, 40640, Note_on_c, 8, 60, 51
17, 40640, Note_on_c, 8, 65, 50
17, 40707, Note_on_c, 8, 60, 0
17, 40710, Note_on_c, 8, 65, 0
17, 40800, Note_on_c, 8, 65, 54
17, 40800, Note_on_c, 8, 60, 51
17, 40864, Note_on_c, 8, 60, 0
17, 40866, Note_on_c, 8, 65, 0
17, 40960, Note_on_c, 8, 60, 46
17, 40960, Note_on_c, 8, 57, 54
17, 41018, Note_on_c, 8, 60, 0
17, 41019, Note_on_c, 8, 57, 0
17, 41120, Note_on_c, 8, 57, 41
17, 41120, Note_on_c, 8, 60, 49
17, 41177, Note_on_c, 8, 60, 0
17, 41187, Note_on_c, 8, 57, 0
17, 41280, Note_on_c, 8, 60, 51
17, 41280, Note_on_c, 8, 57, 46
17, 41336, Note_on_c, 8, 60, 0
17, 41344, Note_on_c, 8, 57, 0
17, 41440, Note_on_c, 8, 57, 55
17, 41440, Note_on_c, 8, 53, 41
17, 41507, Note_on_c, 8, 53, 0
17, 41508, Note_on_c, 8, 57, 0
17, 41600, Note_on_c, 8, 53, 39
17, 41600, Note_on_c, 8, 57, 52
17, 41665, Note_on_c, 8, 53, 0
17, 41668, Note_on_c, 8, 57, 0
17, 41760, Note_on_c, 8, 57, 47
17, 41760, Note_on_c, 8, 53, 34
17, 41832, Note_on_c, 8, 57, 0
17, 41833, Note_on_c, 8, 53, 0
17, 41920, Note_on_c, 8, 57, 49
17, 41920, Note_on_c, 8, 53, 26
17, 41986, Note_on_c, 8, 53, 0
17, 41986, Note_on_c, 8, 57, 0
17, 42080, Note_on_c, 8, 53, 36
17, 42080, Note_on_c, 8, 57, 50
17, 42143, Note_on_c, 8, 53, 0
17, 42144, Note_on_c, 8, 57, 0
17, 42240, Note_on_c, 8, 53, 36
17, 42240, Note_on_c, 8, 57, 48
17, 42774, Note_on_c, 8, 57, 0
17, 42795, Note_on_c, 8, 53, 0
17, 55680, Note_on_c, 8, 53, 28
17, 55680, Note_on_c, 8, 65, 35
17, 61440, Note_on_c, 8, 65, 0
17, 61440, Note_on_c, 8, 53, 0
17, 61440, Note_on_c, 8, 65, 39
17, 61440, Note_on_c, 8, 69, 41
17, 63360, Note_on_c, 8, 69, 0
17, 63360, Note_on_c, 8, 65, 0
17, 63360, Note_on_c, 8, 60, 30
17, 63360, Note_on_c, 8, 67, 35
17, 65280, Note_on_c, 8, 67, 0
17, 65280, Note_on_c, 8, 60, 0
17, 65280, Note_on_c, 8, 57, 46
17, 65280, Note_on_c, 8, 65, 46
17, 65760, Note_on_c, 8, 65, 0
17, 65760, Note_on_c, 8, 57, 0
17, 68160, Note_on_c, 8, 57, 31
17, 68160, Note_on_c, 8, 69, 25
17, 68320, Note_on_c, 8, 69, 0
17, 68320, Note_on_c, 8, 57, 0
17, 68320, Note_on_c, 8, 57, 33
17, 68320, Note_on_c, 8, 69, 42
17, 68480, Note_on_c, 8, 69, 0
17, 68480, Note_on_c, 8, 57, 0
17, 68480, Note_on_c, 8, 57, 38
17, 68480, Note_on_c, 8, 69, 42
17, 68640, Note_on_c, 8, 69, 0
17, 68640, Note_on_c, 8, 57, 0
17, 68640, Note_on_c, 8, 57, 41
17, 68640, Note_on_c, 8, 69, 43
17, 68800, Note_on_c, 8, 69, 0
17, 68800, Note_on_c, 8, 57, 0
17, 68800, Note_on_c, 8, 57, 30
17, 68800, Note_on_c, 8, 69, 41
17, 68960, Note_on_c, 8, 69, 0
17, 68960, Note_on_c, 8, 57, 0
17, 68960, Note_on_c, 8, 57, 40
17, 68960, Note_on_c, 8, 69, 46
17, 69120, Note_on_c, 8, 69, 0
17, 69120, Note_on_c, 8, 57, 0
17, 69120, Note_on_c, 8, 57, 17
17, 69120, Note_on_c, 8, 69, 16
17, 69600, Note_on_c, 8, 69, 0
17, 69600, Note_on_c, 8, 57, 0
17, 71040, Poly_aftertouch_c, 8, 21, 77
17, 71050, Poly_aftertouch_c, 8, 21, 84
17, 71060, Poly_aftertouch_c, 8, 21, 65
17, 71060, End_track
18, 0, Start_track
18, 0, MIDI_port, 0
18, 0, Title_t, "Strings"
18, 0, Program_c, 13, 48
18, 0, Control_c, 13, 7, 105
18, 0, Control_c, 13, 10, 64
18, 0, Pitch_bend_c, 13, 8192
18, 0, Control_c, 13, 93, 0
18, 0, Control_c, 13, 64, 0
18, 0, Control_c, 13, 91, 120
18, 20, Note_on_c, 13, 41, 48
18, 20, Note_on_c, 13, 53, 38
18, 20, Note_on_c, 13, 57, 40
18, 20, Note_on_c, 13, 60, 38
18, 155, Note_on_c, 13, 60, 0
18, 155, Note_on_c, 13, 57, 0
18, 155, Note_on_c, 13, 53, 0
18, 160, Note_on_c, 13, 53, 39
18, 160, Note_on_c, 13, 57, 46
18, 160, Note_on_c, 13, 60, 46
18, 260, Note_on_c, 13, 41, 0
18, 295, Note_on_c, 13, 53, 0
18, 295, Note_on_c, 13, 57, 0
18, 295, Note_on_c, 13, 60, 0
18, 320, Note_on_c, 13, 53, 40
18, 320, Note_on_c, 13, 57, 46
18, 320, Note_on_c, 13, 60, 48
18, 455, Note_on_c, 13, 60, 0
18, 455, Note_on_c, 13, 57, 0
18, 455, Note_on_c, 13, 53, 0
18, 480, Note_on_c, 13, 45, 47
18, 480, Note_on_c, 13, 53, 42
18, 480, Note_on_c, 13, 57, 42
18, 480, Note_on_c, 13, 60, 47
18, 615, Note_on_c, 13, 60, 0
18, 615, Note_on_c, 13, 57, 0
18, 615, Note_on_c, 13, 53, 0
18, 640, Note_on_c, 13, 53, 46
18, 640, Note_on_c, 13, 57, 51
18, 640, Note_on_c, 13, 60, 43
18, 720, Note_on_c, 13, 45, 0
18, 775, Note_on_c, 13, 53, 0
18, 775, Note_on_c, 13, 57, 0
18, 775, Note_on_c, 13, 60, 0
18, 800, Note_on_c, 13, 53, 45
18, 800, Note_on_c, 13, 57, 52
18, 800, Note_on_c, 13, 60, 52
18, 935, Note_on_c, 13, 60, 0
18, 935, Note_on_c, 13, 57, 0
18, 935, Note_on_c, 13, 53, 0
18, 960, Note_on_c, 13, 48, 54
18, 960, Note_on_c, 13, 53, 38
18, 960, Note_on_c, 13, 57, 44
18, 960, Note_on_c, 13, 60, 55
18, 1095, Note_on_c, 13, 60, 0
18, 1095, Note_on_c, 13, 57, 0
18, 1095, Note_on_c, 13, 53, 0
18, 1120, Note_on_c, 13, 53, 45
18, 1120, Note_on_c, 13, 57, 54
18, 1120, Note_on_c, 13, 60, 45
18, 1200, Note_on_c, 13, 48, 0
18, 1255, Note_on_c, 13, 53, 0
18, 1255, Note_on_c, 13, 57, 0
18, 1255, Note_on_c, 13, 60, 0
18, 1280, Note_on_c, 13, 53, 44
18, 1280, Note_on_c, 13, 57, 49
18, 1280, Note_on_c, 13, 60, 52
18, 1415, Note_on_c, 13, 60, 0
18, 1415, Note_on_c, 13, 57, 0
18, 1415, Note_on_c, 13, 53, 0
18, 1440, Note_on_c, 13, 53, 43
18, 1440, Note_on_c, 13, 57, 47
18, 1440, Note_on_c, 13, 60, 43
18, 1575, Note_on_c, 13, 60, 0
18, 1575, Note_on_c, 13, 57, 0
18, 1575, Note_on_c, 13, 53, 0
18, 1600, Note_on_c, 13, 53, 42
18, 1600, Note_on_c, 13, 57, 48
18, 1600, Note_on_c, 13, 60, 41
18, 1735, Note_on_c, 13, 60, 0
18, 1735, Note_on_c, 13, 57, 0
18, 1735, Note_on_c, 13, 53, 0
18, 1760, Note_on_c, 13, 53, 40
18, 1760, Note_on_c, 13, 57, 45
18, 1760, Note_on_c, 13, 60, 42
18, 1895, Note_on_c, 13, 60, 0
18, 1895, Note_on_c, 13, 57, 0
18, 1895, Note_on_c, 13, 53, 0
18, 1920, Note_on_c, 13, 41, 48
18, 1920, Note_on_c, 13, 53, 39
18, 1920, Note_on_c, 13, 57, 41
18, 1920, Note_on_c, 13, 60, 40
18, 1920, Note_on_c, 13, 77, 75
18, 2055, Note_on_c, 13, 60, 0
18, 2055, Note_on_c, 13, 57, 0
18, 2055, Note_on_c, 13, 53, 0
18, 2080, Note_on_c, 13, 53, 44
18, 2080, Note_on_c, 13, 57, 40
18, 2080, Note_on_c, 13, 60, 45
18, 2160, Note_on_c, 13, 41, 0
18, 2215, Note_on_c, 13, 57, 0
18, 2215, Note_on_c, 13, 60, 0
18, 2215, Note_on_c, 13, 53, 0
18, 2240, Note_on_c, 13, 53, 38
18, 2240, Note_on_c, 13, 57, 38
18, 2240, Note_on_c, 13, 60, 38
18, 2375, Note_on_c, 13, 60, 0
18, 2375, Note_on_c, 13, 57, 0
18, 2375, Note_on_c, 13, 53, 0
18, 2400, Note_on_c, 13, 45, 43
18, 2400, Note_on_c, 13, 53, 38
18, 2400, Note_on_c, 13, 57, 38
18, 2400, Note_on_c, 13, 60, 38
18, 2535, Note_on_c, 13, 60, 0
18, 2535, Note_on_c, 13, 53, 0
18, 2535, Note_on_c, 13, 57, 0
18, 2560, Note_on_c, 13, 53, 38
18, 2560, Note_on_c, 13, 57, 43
18, 2560, Note_on_c, 13, 60, 40
18, 2640, Note_on_c, 13, 45, 0
18, 2695, Note_on_c, 13, 57, 0
18, 2695, Note_on_c, 13, 60, 0
18, 2695, Note_on_c, 13, 53, 0
18, 2720, Note_on_c, 13, 53, 38
18, 2720, Note_on_c, 13, 57, 43
18, 2720, Note_on_c, 13, 60, 39
18, 2760, Note_on_c, 13, 77, 0
18, 2760, Note_on_c, 13, 72, 69
18, 2853, Note_on_c, 13, 72, 0
18, 2855, Note_on_c, 13, 60, 0
18, 2855, Note_on_c, 13, 57, 0
18, 2855, Note_on_c, 13, 53, 0
18, 2880, Note_on_c, 13, 48, 43
18, 2880, Note_on_c, 13, 53, 40
18, 2880, Note_on_c, 13, 57, 44
18, 2880, Note_on_c, 13, 60, 45
18, 2880, Note_on_c, 13, 81, 77
18, 3015, Note_on_c, 13, 60, 0
18, 3015, Note_on_c, 13, 57, 0
18, 3015, Note_on_c, 13, 53, 0
18, 3040, Note_on_c, 13, 53, 40
18, 3040, Note_on_c, 13, 57, 45
18, 3040, Note_on_c, 13, 60, 38
18, 3120, Note_on_c, 13, 48, 0
18, 3175, Note_on_c, 13, 57, 0
18, 3175, Note_on_c, 13, 60, 0
18, 3175, Note_on_c, 13, 53, 0
18, 3200, Note_on_c, 13, 53, 39
18, 3200, Note_on_c, 13, 57, 41
18, 3200, Note_on_c, 13, 60, 43
18, 3335, Note_on_c, 13, 60, 0
18, 3335, Note_on_c, 13, 57, 0
18, 3335, Note_on_c, 13, 53, 0
18, 3360, Note_on_c, 13, 53, 43
18, 3360, Note_on_c, 13, 57, 43
18, 3360, Note_on_c, 13, 60, 38
18, 3495, Note_on_c, 13, 60, 0
18, 3495, Note_on_c, 13, 57, 0
18, 3495, Note_on_c, 13, 53, 0
18, 3520, Note_on_c, 13, 53, 39
18, 3520, Note_on_c, 13, 57, 45
18, 3520, Note_on_c, 13, 60, 39
18, 3655, Note_on_c, 13, 60, 0
18, 3655, Note_on_c, 13, 57, 0
18, 3655, Note_on_c, 13, 53, 0
18, 3680, Note_on_c, 13, 53, 38
18, 3680, Note_on_c, 13, 57, 41
18, 3680, Note_on_c, 13, 60, 38
18, 3720, Note_on_c, 13, 81, 0
18, 3720, Note_on_c, 13, 77, 66
18, 3814, Note_on_c, 13, 77, 0
18, 3815, Note_on_c, 13, 60, 0
18, 3815, Note_on_c, 13, 57, 0
18, 3815, Note_on_c, 13, 53, 0
18, 3840, Note_on_c, 13, 41, 44
18, 3840, Note_on_c, 13, 53, 38
18, 3840, Note_on_c, 13, 57, 42
18, 3840, Note_on_c, 13, 60, 45
18, 3840, Note_on_c, 13, 84, 71
18, 3975, Note_on_c, 13, 60, 0
18, 3975, Note_on_c, 13, 57, 0
18, 3975, Note_on_c, 13, 53, 0
18, 4000, Note_on_c, 13, 53, 38
18, 4000, Note_on_c, 13, 57, 45
18, 4000, Note_on_c, 13, 60, 38
18, 4080, Note_on_c, 13, 41, 0
18, 4135, Note_on_c, 13, 57, 0
18, 4135, Note_on_c, 13, 60, 0
18, 4135, Note_on_c, 13, 53, 0
18, 4160, Note_on_c, 13, 53, 38
18, 4160, Note_on_c, 13, 57, 45
18, 4160, Note_on_c, 13, 60, 40
18, 4295, Note_on_c, 13, 60, 0
18, 4295, Note_on_c, 13, 57, 0
18, 4295, Note_on_c, 13, 53, 0
18, 4320, Note_on_c, 13, 45, 41
18, 4320, Note_on_c, 13, 53, 43
18, 4320, Note_on_c, 13, 57, 45
18, 4320, Note_on_c, 13, 60, 40
18, 4455, Note_on_c, 13, 60, 0
18, 4455, Note_on_c, 13, 53, 0
18, 4455, Note_on_c, 13, 57, 0
18, 4480, Note_on_c, 13, 53, 41
18, 4480, Note_on_c, 13, 57, 45
18, 4480, Note_on_c, 13, 60, 40
18, 4560, Note_on_c, 13, 45, 0
18, 4615, Note_on_c, 13, 57, 0
18, 4615, Note_on_c, 13, 60, 0
18, 4615, Note_on_c, 13, 53, 0
18, 4640, Note_on_c, 13, 53, 38
18, 4640, Note_on_c, 13, 57, 45
18, 4640, Note_on_c, 13, 60, 44
18, 4775, Note_on_c, 13, 60, 0
18, 4775, Note_on_c, 13, 57, 0
18, 4775, Note_on_c, 13, 53, 0
18, 4800, Note_on_c, 13, 48, 56
18, 4800, Note_on_c, 13, 53, 38
18, 4800, Note_on_c, 13, 57, 45
18, 4800, Note_on_c, 13, 60, 39
18, 4935, Note_on_c, 13, 60, 0
18, 4935, Note_on_c, 13, 53, 0
18, 4935, Note_on_c, 13, 57, 0
18, 4960, Note_on_c, 13, 53, 45
18, 4960, Note_on_c, 13, 57, 45
18, 4960, Note_on_c, 13, 60, 45
18, 5040, Note_on_c, 13, 48, 0
18, 5095, Note_on_c, 13, 57, 0
18, 5095, Note_on_c, 13, 60, 0
18, 5095, Note_on_c, 13, 53, 0
18, 5120, Note_on_c, 13, 53, 41
18, 5120, Note_on_c, 13, 57, 45
18, 5120, Note_on_c, 13, 60, 38
18, 5255, Note_on_c, 13, 60, 0
18, 5255, Note_on_c, 13, 57, 0
18, 5255, Note_on_c, 13, 53, 0
18, 5280, Note_on_c, 13, 41, 53
18, 5280, Note_on_c, 13, 53, 38
18, 5280, Note_on_c, 13, 57, 45
18, 5280, Note_on_c, 13, 60, 38
18, 5280, Note_on_c, 13, 82, 65
18, 5316, Note_on_c, 13, 84, 0
18, 5393, Note_on_c, 13, 82, 0
18, 5400, Note_on_c, 13, 81, 75
18, 5415, Note_on_c, 13, 57, 0
18, 5415, Note_on_c, 13, 60, 0
18, 5415, Note_on_c, 13, 53, 0
18, 5440, Note_on_c, 13, 53, 40
18, 5440, Note_on_c, 13, 57, 45
18, 5440, Note_on_c, 13, 60, 43
18, 5520, Note_on_c, 13, 41, 0
18, 5520, Note_on_c, 13, 79, 71
18, 5526, Note_on_c, 13, 81, 0
18, 5575, Note_on_c, 13, 60, 0
18, 5575, Note_on_c, 13, 57, 0
18, 5575, Note_on_c, 13, 53, 0
18, 5600, Note_on_c, 13, 53, 38
18, 5600, Note_on_c, 13, 57, 45
18, 5600, Note_on_c, 13, 60, 44
18, 5633, Note_on_c, 13, 79, 0
18, 5640, Note_on_c, 13, 77, 71
18, 5735, Note_on_c, 13, 53, 0
18, 5735, Note_on_c, 13, 60, 0
18, 5735, Note_on_c, 13, 57, 0
18, 5760, Note_on_c, 13, 36, 44
18, 5760, Note_on_c, 13, 52, 38
18, 5760, Note_on_c, 13, 58, 44
18, 5760, Note_on_c, 13, 60, 45
18, 5760, Note_on_c, 13, 78, 75
18, 5815, Note_on_c, 13, 77, 0
18, 5895, Note_on_c, 13, 60, 0
18, 5895, Note_on_c, 13, 58, 0
18, 5895, Note_on_c, 13, 52, 0
18, 5920, Note_on_c, 13, 52, 38
18, 5920, Note_on_c, 13, 58, 45
18, 5920, Note_on_c, 13, 60, 45
18, 6000, Note_on_c, 13, 36, 0
18, 6055, Note_on_c, 13, 58, 0
18, 6055, Note_on_c, 13, 60, 0
18, 6055, Note_on_c, 13, 52, 0
18, 6080, Note_on_c, 13, 52, 42
18, 6080, Note_on_c, 13, 58, 45
18, 6080, Note_on_c, 13, 60, 43
18, 6215, Note_on_c, 13, 60, 0
18, 6215, Note_on_c, 13, 58, 0
18, 6215, Note_on_c, 13, 52, 0
18, 6240, Note_on_c, 13, 40, 37
18, 6240, Note_on_c, 13, 52, 42
18, 6240, Note_on_c, 13, 58, 43
18, 6240, Note_on_c, 13, 60, 38
18, 6240, Note_on_c, 13, 79, 67
18, 6262, Note_on_c, 13, 78, 0
18, 6375, Note_on_c, 13, 60, 0
18, 6375, Note_on_c, 13, 58, 0
18, 6375, Note_on_c, 13, 52, 0
18, 6400, Note_on_c, 13, 52, 39
18, 6400, Note_on_c, 13, 58, 45
18, 6400, Note_on_c, 13, 60, 42
18, 6480, Note_on_c, 13, 40, 0
18, 6535, Note_on_c, 13, 58, 0
18, 6535, Note_on_c, 13, 60, 0
18, 6535, Note_on_c, 13, 52, 0
18, 6560, Note_on_c, 13, 52, 43
18, 6560, Note_on_c, 13, 58, 45
18, 6560, Note_on_c, 13, 60, 39
18, 6695, Note_on_c, 13, 60, 0
18, 6695, Note_on_c, 13, 58, 0
18, 6695, Note_on_c, 13, 52, 0
18, 6720, Note_on_c, 13, 43, 56
18, 6720, Note_on_c, 13, 52, 40
18, 6720, Note_on_c, 13, 58, 45
18, 6720, Note_on_c, 13, 60, 39
18, 6803, Note_on_c, 13, 79, 0
18, 6855, Note_on_c, 13, 58, 0
18, 6855, Note_on_c, 13, 60, 0
18, 6855, Note_on_c, 13, 52, 0
18, 6880, Note_on_c, 13, 52, 40
18, 6880, Note_on_c, 13, 58, 45
18, 6880, Note_on_c, 13, 60, 38
18, 6960, Note_on_c, 13, 43, 0
18, 7015, Note_on_c, 13, 52, 0
18, 7015, Note_on_c, 13, 58, 0
18, 7015, Note_on_c, 13, 60, 0
18, 7040, Note_on_c, 13, 52, 38
18, 7040, Note_on_c, 13, 58, 45
18, 7040, Note_on_c, 13, 60, 38
18, 7175, Note_on_c, 13, 60, 0
18, 7175, Note_on_c, 13, 58, 0
18, 7175, Note_on_c, 13, 52, 0
18, 7200, Note_on_c, 13, 52, 42
18, 7200, Note_on_c, 13, 58, 45
18, 7200, Note_on_c, 13, 60, 38
18, 7335, Note_on_c, 13, 60, 0
18, 7335, Note_on_c, 13, 58, 0
18, 7335, Note_on_c, 13, 52, 0
18, 7360, Note_on_c, 13, 52, 40
18, 7360, Note_on_c, 13, 58, 45
18, 7360, Note_on_c, 13, 60, 42
18, 7495, Note_on_c, 13, 60, 0
18, 7495, Note_on_c, 13, 58, 0
18, 7495, Note_on_c, 13, 52, 0
18, 7520, Note_on_c, 13, 52, 38
18, 7520, Note_on_c, 13, 58, 45
18, 7520, Note_on_c, 13, 60, 39
18, 7655, Note_on_c, 13, 60, 0
18, 7655, Note_on_c, 13, 58, 0
18, 7655, Note_on_c, 13, 52, 0
18, 7680, Note_on_c, 13, 36, 45
18, 7680, Note_on_c, 13, 52, 38
18, 7680, Note_on_c, 13, 58, 45
18, 7680, Note_on_c, 13, 60, 45
18, 7680, Note_on_c, 13, 72, 75
18, 7815, Note_on_c, 13, 60, 0
18, 7815, Note_on_c, 13, 58, 0
18, 7815, Note_on_c, 13, 52, 0
18, 7840, Note_on_c, 13, 52, 38
18, 7840, Note_on_c, 13, 58, 45
18, 7840, Note_on_c, 13, 60, 44
18, 7920, Note_on_c, 13, 36, 0
18, 7975, Note_on_c, 13, 58, 0
18, 7975, Note_on_c, 13, 60, 0
18, 7975, Note_on_c, 13, 52, 0
18, 8000, Note_on_c, 13, 52, 45
18, 8000, Note_on_c, 13, 58, 45
18, 8000, Note_on_c, 13, 60, 43
18, 8135, Note_on_c, 13, 60, 0
18, 8135, Note_on_c, 13, 58, 0
18, 8135, Note_on_c, 13, 52, 0
18, 8160, Note_on_c, 13, 40, 40
18, 8160, Note_on_c, 13, 52, 38
18, 8160, Note_on_c, 13, 58, 45
18, 8160, Note_on_c, 13, 60, 44
18, 8295, Note_on_c, 13, 60, 0
18, 8295, Note_on_c, 13, 52, 0
18, 8295, Note_on_c, 13, 58, 0
18, 8320, Note_on_c, 13, 52, 41
18, 8320, Note_on_c, 13, 58, 45
18, 8320, Note_on_c, 13, 60, 40
18, 8400, Note_on_c, 13, 40, 0
18, 8455, Note_on_c, 13, 58, 0
18, 8455, Note_on_c, 13, 60, 0
18, 8455, Note_on_c, 13, 52, 0
18, 8480, Note_on_c, 13, 52, 38
18, 8480, Note_on_c, 13, 58, 45
18, 8480, Note_on_c, 13, 60, 43
18, 8615, Note_on_c, 13, 60, 0
18, 8615, Note_on_c, 13, 58, 0
18, 8615, Note_on_c, 13, 52, 0
18, 8640, Note_on_c, 13, 43, 55
18, 8640, Note_on_c, 13, 52, 43
18, 8640, Note_on_c, 13, 58, 45
18, 8640, Note_on_c, 13, 60, 38
18, 8640, Note_on_c, 13, 76, 65
18, 8667, Note_on_c, 13, 72, 0
18, 8775, Note_on_c, 13, 60, 0
18, 8775, Note_on_c, 13, 58, 0
18, 8775, Note_on_c, 13, 52, 0
18, 8800, Note_on_c, 13, 52, 43
18, 8800, Note_on_c, 13, 58, 45
18, 8800, Note_on_c, 13, 60, 43
18, 8880, Note_on_c, 13, 43, 0
18, 8935, Note_on_c, 13, 58, 0
18, 8935, Note_on_c, 13, 60, 0
18, 8935, Note_on_c, 13, 52, 0
18, 8960, Note_on_c, 13, 52, 38
18, 8960, Note_on_c, 13, 58, 45
18, 8960, Note_on_c, 13, 60, 44
18, 9095, Note_on_c, 13, 60, 0
18, 9095, Note_on_c, 13, 58, 0
18, 9095, Note_on_c, 13, 52, 0
18, 9120, Note_on_c, 13, 52, 38
18, 9120, Note_on_c, 13, 58, 45
18, 9120, Note_on_c, 13, 60, 38
18, 9120, Note_on_c, 13, 79, 71
18, 9150, Note_on_c, 13, 76, 0
18, 9255, Note_on_c, 13, 60, 0
18, 9255, Note_on_c, 13, 52, 0
18, 9255, Note_on_c, 13, 58, 0
18, 9280, Note_on_c, 13, 52, 38
18, 9280, Note_on_c, 13, 58, 45
18, 9280, Note_on_c, 13, 60, 44
18, 9415, Note_on_c, 13, 60, 0
18, 9415, Note_on_c, 13, 58, 0
18, 9415, Note_on_c, 13, 52, 0
18, 9440, Note_on_c, 13, 52, 38
18, 9440, Note_on_c, 13, 58, 45
18, 9440, Note_on_c, 13, 60, 43
18, 9575, Note_on_c, 13, 60, 0
18, 9575, Note_on_c, 13, 58, 0
18, 9575, Note_on_c, 13, 52, 0
18, 9600, Note_on_c, 13, 36, 44
18, 9600, Note_on_c, 13, 52, 45
18, 9600, Note_on_c, 13, 58, 45
18, 9600, Note_on_c, 13, 60, 45
18, 9600, Note_on_c, 13, 82, 75
18, 9601, Note_on_c, 13, 79, 0
18, 9735, Note_on_c, 13, 60, 0
18, 9735, Note_on_c, 13, 58, 0
18, 9735, Note_on_c, 13, 52, 0
18, 9760, Note_on_c, 13, 52, 38
18, 9760, Note_on_c, 13, 58, 45
18, 9760, Note_on_c, 13, 60, 40
18, 9840, Note_on_c, 13, 36, 0
18, 9895, Note_on_c, 13, 58, 0
18, 9895, Note_on_c, 13, 60, 0
18, 9895, Note_on_c, 13, 52, 0
18, 9920, Note_on_c, 13, 52, 38
18, 9920, Note_on_c, 13, 58, 45
18, 9920, Note_on_c, 13, 60, 40
18, 10055, Note_on_c, 13, 60, 0
18, 10055, Note_on_c, 13, 58, 0
18, 10055, Note_on_c, 13, 52, 0
18, 10080, Note_on_c, 13, 40, 49
18, 10080, Note_on_c, 13, 52, 45
18, 10080, Note_on_c, 13, 58, 45
18, 10080, Note_on_c, 13, 60, 45
18, 10215, Note_on_c, 13, 60, 0
18, 10215, Note_on_c, 13, 52, 0
18, 10215, Note_on_c, 13, 58, 0
18, 10240, Note_on_c, 13, 52, 38
18, 10240, Note_on_c, 13, 58, 45
18, 10240, Note_on_c, 13, 60, 43
18, 10320, Note_on_c, 13, 40, 0
18, 10375, Note_on_c, 13, 58, 0
18, 10375, Note_on_c, 13, 60, 0
18, 10375, Note_on_c, 13, 52, 0
18, 10400, Note_on_c, 13, 52, 39
18, 10400, Note_on_c, 13, 58, 45
18, 10400, Note_on_c, 13, 60, 42
18, 10535, Note_on_c, 13, 60, 0
18, 10535, Note_on_c, 13, 58, 0
18, 10535, Note_on_c, 13, 52, 0
18, 10560, Note_on_c, 13, 43, 56
18, 10560, Note_on_c, 13, 52, 38
18, 10560, Note_on_c, 13, 58, 45
18, 10560, Note_on_c, 13, 60, 38
18, 10695, Note_on_c, 13, 60, 0
18, 10695, Note_on_c, 13, 52, 0
18, 10695, Note_on_c, 13, 58, 0
18, 10720, Note_on_c, 13, 52, 45
18, 10720, Note_on_c, 13, 58, 45
18, 10720, Note_on_c, 13, 60, 45
18, 10800, Note_on_c, 13, 43, 0
18, 10800, Note_on_c, 13, 86, 69
18, 10835, Note_on_c, 13, 82, 0
18, 10855, Note_on_c, 13, 60, 0
18, 10855, Note_on_c, 13, 58, 0
18, 10855, Note_on_c, 13, 52, 0
18, 10880, Note_on_c, 13, 52, 38
18, 10880, Note_on_c, 13, 58, 45
18, 10880, Note_on_c, 13, 60, 45
18, 11015, Note_on_c, 13, 60, 0
18, 11015, Note_on_c, 13, 58, 0
18, 11015, Note_on_c, 13, 52, 0
18, 11040, Note_on_c, 13, 36, 64
18, 11040, Note_on_c, 13, 52, 38
18, 11040, Note_on_c, 13, 55, 45
18, 11040, Note_on_c, 13, 60, 45
18, 11040, Note_on_c, 13, 84, 63
18, 11048, Note_on_c, 13, 86, 0
18, 11175, Note_on_c, 13, 60, 0
18, 11175, Note_on_c, 13, 55, 0
18, 11175, Note_on_c, 13, 52, 0
18, 11200, Note_on_c, 13, 52, 41
18, 11200, Note_on_c, 13, 55, 45
18, 11200, Note_on_c, 13, 60, 41
18, 11280, Note_on_c, 13, 36, 0
18, 11280, Note_on_c, 13, 82, 70
18, 11298, Note_on_c, 13, 84, 0
18, 11335, Note_on_c, 13, 60, 0
18, 11335, Note_on_c, 13, 55, 0
18, 11335, Note_on_c, 13, 52, 0
18, 11360, Note_on_c, 13, 52, 45
18, 11360, Note_on_c, 13, 55, 45
18, 11360, Note_on_c, 13, 60, 45
18, 11495, Note_on_c, 13, 60, 0
18, 11495, Note_on_c, 13, 55, 0
18, 11495, Note_on_c, 13, 52, 0
18, 11520, Note_on_c, 13, 41, 54
18, 11520, Note_on_c, 13, 53, 38
18, 11520, Note_on_c, 13, 57, 45
18, 11520, Note_on_c, 13, 60, 44
18, 11520, Note_on_c, 13, 80, 69
18, 11523, Note_on_c, 13, 82, 0
18, 11655, Note_on_c, 13, 60, 0
18, 11655, Note_on_c, 13, 57, 0
18, 11655, Note_on_c, 13, 53, 0
18, 11680, Note_on_c, 13, 53, 43
18, 11680, Note_on_c, 13, 57, 45
18, 11680, Note_on_c, 13, 60, 45
18, 11760, Note_on_c, 13, 41, 0
18, 11760, Note_on_c, 13, 81, 70
18, 11804, Note_on_c, 13, 80, 0
18, 11815, Note_on_c, 13, 60, 0
18, 11815, Note_on_c, 13, 57, 0
18, 11815, Note_on_c, 13, 53, 0
18, 11840, Note_on_c, 13, 53, 38
18, 11840, Note_on_c, 13, 57, 45
18, 11840, Note_on_c, 13, 60, 45
18, 11927, Note_on_c, 13, 81, 0
18, 11975, Note_on_c, 13, 53, 0
18, 11975, Note_on_c, 13, 57, 0
18, 11975, Note_on_c, 13, 60, 0
18, 12000, Note_on_c, 13, 45, 59
18, 12000, Note_on_c, 13, 53, 40
18, 12000, Note_on_c, 13, 57, 45
18, 12000, Note_on_c, 13, 60, 45
18, 12000, Note_on_c, 13, 81, 63
18, 12135, Note_on_c, 13, 60, 0
18, 12135, Note_on_c, 13, 57, 0
18, 12135, Note_on_c, 13, 53, 0
18, 12160, Note_on_c, 13, 53, 43
18, 12160, Note_on_c, 13, 57, 45
18, 12160, Note_on_c, 13, 60, 43
18, 12240, Note_on_c, 13, 45, 0
18, 12295, Note_on_c, 13, 57, 0
18, 12295, Note_on_c, 13, 60, 0
18, 12295, Note_on_c, 13, 53, 0
18, 12320, Note_on_c, 13, 53, 45
18, 12320, Note_on_c, 13, 57, 45
18, 12320, Note_on_c, 13, 60, 40
18, 12455, Note_on_c, 13, 60, 0
18, 12455, Note_on_c, 13, 57, 0
18, 12455, Note_on_c, 13, 53, 0
18, 12480, Note_on_c, 13, 48, 54
18, 12480, Note_on_c, 13, 53, 38
18, 12480, Note_on_c, 13, 57, 38
18, 12480, Note_on_c, 13, 60, 44
18, 12538, Note_on_c, 13, 81, 0
18, 12615, Note_on_c, 13, 57, 0
18, 12615, Note_on_c, 13, 60, 0
18, 12615, Note_on_c, 13, 53, 0
18, 12640, Note_on_c, 13, 53, 42
18, 12640, Note_on_c, 13, 57, 45
18, 12640, Note_on_c, 13, 60, 45
18, 12720, Note_on_c, 13, 48, 0
18, 12775, Note_on_c, 13, 53, 0
18, 12775, Note_on_c, 13, 57, 0
18, 12775, Note_on_c, 13, 60, 0
18, 12800, Note_on_c, 13, 53, 42
18, 12800, Note_on_c, 13, 57, 45
18, 12800, Note_on_c, 13, 60, 38
18, 12935, Note_on_c, 13, 60, 0
18, 12935, Note_on_c, 13, 57, 0
18, 12935, Note_on_c, 13, 53, 0
18, 12960, Note_on_c, 13, 53, 42
18, 12960, Note_on_c, 13, 57, 45
18, 12960, Note_on_c, 13, 60, 45
18, 13095, Note_on_c, 13, 60, 0
18, 13095, Note_on_c, 13, 57, 0
18, 13095, Note_on_c, 13, 53, 0
18, 13120, Note_on_c, 13, 53, 41
18, 13120, Note_on_c, 13, 57, 45
18, 13120, Note_on_c, 13, 60, 44
18, 13255, Note_on_c, 13, 60, 0
18, 13255, Note_on_c, 13, 57, 0
18, 13255, Note_on_c, 13, 53, 0
18, 13280, Note_on_c, 13, 53, 38
18, 13280, Note_on_c, 13, 57, 45
18, 13280, Note_on_c, 13, 60, 41
18, 13415, Note_on_c, 13, 60, 0
18, 13415, Note_on_c, 13, 57, 0
18, 13415, Note_on_c, 13, 53, 0
18, 13440, Note_on_c, 13, 33, 94
18, 13440, Note_on_c, 13, 60, 45
18, 13440, Note_on_c, 13, 63, 45
18, 13440, Note_on_c, 13, 65, 45
18, 13440, Note_on_c, 13, 84, 99
18, 13575, Note_on_c, 13, 65, 0
18, 13575, Note_on_c, 13, 63, 0
18, 13575, Note_on_c, 13, 60, 0
18, 13600, Note_on_c, 13, 60, 45
18, 13600, Note_on_c, 13, 63, 45
18, 13600, Note_on_c, 13, 65, 45
18, 13680, Note_on_c, 13, 33, 0
18, 13735, Note_on_c, 13, 63, 0
18, 13735, Note_on_c, 13, 65, 0
18, 13735, Note_on_c, 13, 60, 0
18, 13760, Note_on_c, 13, 60, 45
18, 13760, Note_on_c, 13, 63, 45
18, 13760, Note_on_c, 13, 65, 45
18, 13895, Note_on_c, 13, 65, 0
18, 13895, Note_on_c, 13, 63, 0
18, 13895, Note_on_c, 13, 60, 0
18, 13920, Note_on_c, 13, 36, 106
18, 13920, Note_on_c, 13, 60, 45
18, 13920, Note_on_c, 13, 63, 45
18, 13920, Note_on_c, 13, 65, 45
18, 14055, Note_on_c, 13, 65, 0
18, 14055, Note_on_c, 13, 60, 0
18, 14055, Note_on_c, 13, 63, 0
18, 14080, Note_on_c, 13, 60, 45
18, 14080, Note_on_c, 13, 63, 45
18, 14080, Note_on_c, 13, 65, 45
18, 14160, Note_on_c, 13, 36, 0
18, 14215, Note_on_c, 13, 63, 0
18, 14215, Note_on_c, 13, 65, 0
18, 14215, Note_on_c, 13, 60, 0
18, 14240, Note_on_c, 13, 60, 45
18, 14240, Note_on_c, 13, 63, 45
18, 14240, Note_on_c, 13, 65, 45
18, 14375, Note_on_c, 13, 65, 0
18, 14375, Note_on_c, 13, 63, 0
18, 14375, Note_on_c, 13, 60, 0
18, 14400, Note_on_c, 13, 41, 68
18, 14400, Note_on_c, 13, 60, 40
18, 14400, Note_on_c, 13, 63, 45
18, 14400, Note_on_c, 13, 65, 45
18, 14400, Note_on_c, 13, 57, 83
18, 14403, Note_on_c, 13, 84, 0
18, 14535, Note_on_c, 13, 65, 0
18, 14535, Note_on_c, 13, 63, 0
18, 14535, Note_on_c, 13, 60, 0
18, 14560, Note_on_c, 13, 60, 42
18, 14560, Note_on_c, 13, 63, 45
18, 14560, Note_on_c, 13, 65, 45
18, 14640, Note_on_c, 13, 41, 0
18, 14695, Note_on_c, 13, 63, 0
18, 14695, Note_on_c, 13, 65, 0
18, 14695, Note_on_c, 13, 60, 0
18, 14720, Note_on_c, 13, 60, 39
18, 14720, Note_on_c, 13, 63, 45
18, 14720, Note_on_c, 13, 65, 45
18, 14855, Note_on_c, 13, 65, 0
18, 14855, Note_on_c, 13, 63, 0
18, 14855, Note_on_c, 13, 60, 0
18, 14880, Note_on_c, 13, 60, 45
18, 14880, Note_on_c, 13, 63, 45
18, 14880, Note_on_c, 13, 65, 40
18, 15015, Note_on_c, 13, 65, 0
18, 15015, Note_on_c, 13, 63, 0
18, 15015, Note_on_c, 13, 60, 0
18, 15040, Note_on_c, 13, 60, 38
18, 15040, Note_on_c, 13, 63, 45
18, 15040, Note_on_c, 13, 65, 44
18, 15069, Note_on_c, 13, 57, 0
18, 15120, Note_on_c, 13, 57, 71
18, 15175, Note_on_c, 13, 60, 0
18, 15175, Note_on_c, 13, 65, 0
18, 15175, Note_on_c, 13, 63, 0
18, 15200, Note_on_c, 13, 60, 45
18, 15200, Note_on_c, 13, 63, 45
18, 15200, Note_on_c, 13, 65, 44
18, 15335, Note_on_c, 13, 65, 0
18, 15335, Note_on_c, 13, 63, 0
18, 15335, Note_on_c, 13, 60, 0
18, 15351, Note_on_c, 13, 57, 0
18, 15360, Note_on_c, 13, 34, 60
18, 15360, Note_on_c, 13, 58, 40
18, 15360, Note_on_c, 13, 62, 45
18, 15360, Note_on_c, 13, 65, 39
18, 15360, Note_on_c, 13, 60, 69
18, 15495, Note_on_c, 13, 65, 0
18, 15495, Note_on_c, 13, 62, 0
18, 15495, Note_on_c, 13, 58, 0
18, 15520, Note_on_c, 13, 58, 44
18, 15520, Note_on_c, 13, 62, 45
18, 15520, Note_on_c, 13, 65, 43
18, 15600, Note_on_c, 13, 34, 0
18, 15600, Note_on_c, 13, 58, 63
18, 15649, Note_on_c, 13, 60, 0
18, 15655, Note_on_c, 13, 65, 0
18, 15655, Note_on_c, 13, 62, 0
18, 15655, Note_on_c, 13, 58, 0
18, 15680, Note_on_c, 13, 58, 38
18, 15680, Note_on_c, 13, 62, 42
18, 15680, Note_on_c, 13, 65, 43
18, 15776, Note_on_c, 13, 58, 0
18, 15815, Note_on_c, 13, 58, 0
18, 15815, Note_on_c, 13, 62, 0
18, 15815, Note_on_c, 13, 65, 0
18, 15840, Note_on_c, 13, 38, 77
18, 15840, Note_on_c, 13, 58, 45
18, 15840, Note_on_c, 13, 62, 45
18, 15840, Note_on_c, 13, 65, 44
18, 15840, Note_on_c, 13, 58, 61
18, 15975, Note_on_c, 13, 58, 0
18, 15975, Note_on_c, 13, 62, 0
18, 15975, Note_on_c, 13, 65, 0
18, 16000, Note_on_c, 13, 58, 45
18, 16000, Note_on_c, 13, 62, 45
18, 16000, Note_on_c, 13, 65, 43
18, 16080, Note_on_c, 13, 38, 0
18, 16135, Note_on_c, 13, 62, 0
18, 16135, Note_on_c, 13, 65, 0
18, 16135, Note_on_c, 13, 58, 0
18, 16160, Note_on_c, 13, 58, 40
18, 16160, Note_on_c, 13, 62, 45
18, 16160, Note_on_c, 13, 65, 45
18, 16295, Note_on_c, 13, 65, 0
18, 16295, Note_on_c, 13, 62, 0
18, 16295, Note_on_c, 13, 58, 0
18, 16320, Note_on_c, 13, 41, 74
18, 16320, Note_on_c, 13, 58, 44
18, 16320, Note_on_c, 13, 62, 45
18, 16320, Note_on_c, 13, 65, 40
18, 16420, Note_on_c, 13, 58, 0
18, 16455, Note_on_c, 13, 62, 0
18, 16455, Note_on_c, 13, 65, 0
18, 16455, Note_on_c, 13, 58, 0
18, 16480, Note_on_c, 13, 58, 43
18, 16480, Note_on_c, 13, 62, 45
18, 16480, Note_on_c, 13, 65, 42
18, 16560, Note_on_c, 13, 41, 0
18, 16615, Note_on_c, 13, 58, 0
18, 16615, Note_on_c, 13, 62, 0
18, 16615, Note_on_c, 13, 65, 0
18, 16640, Note_on_c, 13, 58, 40
18, 16640, Note_on_c, 13, 62, 45
18, 16640, Note_on_c, 13, 65, 45
18, 16775, Note_on_c, 13, 65, 0
18, 16775, Note_on_c, 13, 62, 0
18, 16775, Note_on_c, 13, 58, 0
18, 16800, Note_on_c, 13, 58, 45
18, 16800, Note_on_c, 13, 62, 45
18, 16800, Note_on_c, 13, 65, 45
18, 16935, Note_on_c, 13, 65, 0
18, 16935, Note_on_c, 13, 62, 0
18, 16935, Note_on_c, 13, 58, 0
18, 16960, Note_on_c, 13, 58, 43
18, 16960, Note_on_c, 13, 62, 45
18, 16960, Note_on_c, 13, 65, 45
18, 17095, Note_on_c, 13, 65, 0
18, 17095, Note_on_c, 13, 62, 0
18, 17095, Note_on_c, 13, 58, 0
18, 17120, Note_on_c, 13, 58, 43
18, 17120, Note_on_c, 13, 62, 41
18, 17120, Note_on_c, 13, 65, 45
18, 17255, Note_on_c, 13, 65, 0
18, 17255, Note_on_c, 13, 62, 0
18, 17255, Note_on_c, 13, 58, 0
18, 17280, Note_on_c, 13, 35, 106
18, 17280, Note_on_c, 13, 56, 45
18, 17280, Note_on_c, 13, 62, 45
18, 17280, Note_on_c, 13, 65, 45
18, 17280, Note_on_c, 13, 86, 99
18, 17415, Note_on_c, 13, 65, 0
18, 17415, Note_on_c, 13, 62, 0
18, 17415, Note_on_c, 13, 56, 0
18, 17440, Note_on_c, 13, 56, 45
18, 17440, Note_on_c, 13, 62, 45
18, 17440, Note_on_c, 13, 65, 45
18, 17520, Note_on_c, 13, 35, 0
18, 17575, Note_on_c, 13, 62, 0
18, 17575, Note_on_c, 13, 65, 0
18, 17575, Note_on_c, 13, 56, 0
18, 17600, Note_on_c, 13, 56, 45
18, 17600, Note_on_c, 13, 62, 45
18, 17600, Note_on_c, 13, 65, 45
18, 17735, Note_on_c, 13, 65, 0
18, 17735, Note_on_c, 13, 62, 0
18, 17735, Note_on_c, 13, 56, 0
18, 17760, Note_on_c, 13, 38, 106
18, 17760, Note_on_c, 13, 56, 45
18, 17760, Note_on_c, 13, 62, 45
18, 17760, Note_on_c, 13, 65, 45
18, 17895, Note_on_c, 13, 65, 0
18, 17895, Note_on_c, 13, 56, 0
18, 17895, Note_on_c, 13, 62, 0
18, 17920, Note_on_c, 13, 56, 45
18, 17920, Note_on_c, 13, 62, 45
18, 17920, Note_on_c, 13, 65, 45
18, 18000, Note_on_c, 13, 38, 0
18, 18055, Note_on_c, 13, 62, 0
18, 18055, Note_on_c, 13, 65, 0
18, 18055, Note_on_c, 13, 56, 0
18, 18080, Note_on_c, 13, 56, 45
18, 18080, Note_on_c, 13, 62, 45
18, 18080, Note_on_c, 13, 65, 45
18, 18215, Note_on_c, 13, 65, 0
18, 18215, Note_on_c, 13, 62, 0
18, 18215, Note_on_c, 13, 56, 0
18, 18240, Note_on_c, 13, 41, 55
18, 18240, Note_on_c, 13, 56, 43
18, 18240, Note_on_c, 13, 62, 42
18, 18240, Note_on_c, 13, 65, 45
18, 18240, Note_on_c, 13, 59, 68
18, 18250, Note_on_c, 13, 86, 0
18, 18375, Note_on_c, 13, 65, 0
18, 18375, Note_on_c, 13, 62, 0
18, 18375, Note_on_c, 13, 56, 0
18, 18400, Note_on_c, 13, 56, 45
18, 18400, Note_on_c, 13, 62, 45
18, 18400, Note_on_c, 13, 65, 45
18, 18480, Note_on_c, 13, 41, 0
18, 18535, Note_on_c, 13, 62, 0
18, 18535, Note_on_c, 13, 65, 0
18, 18535, Note_on_c, 13, 56, 0
18, 18560, Note_on_c, 13, 56, 45
18, 18560, Note_on_c, 13, 62, 45
18, 18560, Note_on_c, 13, 65, 45
18, 18695, Note_on_c, 13, 65, 0
18, 18695, Note_on_c, 13, 62, 0
18, 18695, Note_on_c, 13, 56, 0
18, 18720, Note_on_c, 13, 56, 45
18, 18720, Note_on_c, 13, 62, 45
18, 18720, Note_on_c, 13, 65, 43
18, 18855, Note_on_c, 13, 65, 0
18, 18855, Note_on_c, 13, 62, 0
18, 18855, Note_on_c, 13, 56, 0
18, 18880, Note_on_c, 13, 56, 38
18, 18880, Note_on_c, 13, 62, 45
18, 18880, Note_on_c, 13, 65, 43
18, 18910, Note_on_c, 13, 59, 0
18, 18960, Note_on_c, 13, 59, 71
18, 19015, Note_on_c, 13, 56, 0
18, 19015, Note_on_c, 13, 65, 0
18, 19015, Note_on_c, 13, 62, 0
18, 19040, Note_on_c, 13, 56, 43
18, 19040, Note_on_c, 13, 62, 45
18, 19040, Note_on_c, 13, 65, 45
18, 19175, Note_on_c, 13, 65, 0
18, 19175, Note_on_c, 13, 62, 0
18, 19175, Note_on_c, 13, 56, 0
18, 19200, Note_on_c, 13, 36, 66
18, 19200, Note_on_c, 13, 56, 45
18, 19200, Note_on_c, 13, 60, 45
18, 19200, Note_on_c, 13, 65, 45
18, 19200, Note_on_c, 13, 60, 69
18, 19223, Note_on_c, 13, 59, 0
18, 19335, Note_on_c, 13, 56, 0
18, 19335, Note_on_c, 13, 65, 0
18, 19335, Note_on_c, 13, 60, 0
18, 19360, Note_on_c, 13, 56, 43
18, 19360, Note_on_c, 13, 60, 45
18, 19360, Note_on_c, 13, 65, 39
18, 19440, Note_on_c, 13, 36, 0
18, 19495, Note_on_c, 13, 60, 0
18, 19495, Note_on_c, 13, 65, 0
18, 19495, Note_on_c, 13, 56, 0
18, 19520, Note_on_c, 13, 56, 38
18, 19520, Note_on_c, 13, 60, 45
18, 19520, Note_on_c, 13, 65, 40
18, 19655, Note_on_c, 13, 65, 0
18, 19655, Note_on_c, 13, 60, 0
18, 19655, Note_on_c, 13, 56, 0
18, 19680, Note_on_c, 13, 41, 71
18, 19680, Note_on_c, 13, 56, 45
18, 19680, Note_on_c, 13, 60, 45
18, 19680, Note_on_c, 13, 65, 45
18, 19815, Note_on_c, 13, 65, 0
18, 19815, Note_on_c, 13, 56, 0
18, 19815, Note_on_c, 13, 60, 0
18, 19840, Note_on_c, 13, 56, 40
18, 19840, Note_on_c, 13, 60, 45
18, 19840, Note_on_c, 13, 65, 44
18, 19920, Note_on_c, 13, 41, 0
18, 19975, Note_on_c, 13, 60, 0
18, 19975, Note_on_c, 13, 65, 0
18, 19975, Note_on_c, 13, 56, 0
18, 20000, Note_on_c, 13, 56, 38
18, 20000, Note_on_c, 13, 60, 45
18, 20000, Note_on_c, 13, 65, 42
18, 20135, Note_on_c, 13, 65, 0
18, 20135, Note_on_c, 13, 60, 0
18, 20135, Note_on_c, 13, 56, 0
18, 20160, Note_on_c, 13, 44, 66
18, 20160, Note_on_c, 13, 56, 38
18, 20160, Note_on_c, 13, 60, 45
18, 20160, Note_on_c, 13, 65, 45
18, 20295, Note_on_c, 13, 65, 0
18, 20295, Note_on_c, 13, 56, 0
18, 20295, Note_on_c, 13, 60, 0
18, 20320, Note_on_c, 13, 56, 38
18, 20320, Note_on_c, 13, 60, 45
18, 20320, Note_on_c, 13, 65, 41
18, 20400, Note_on_c, 13, 44, 0
18, 20455, Note_on_c, 13, 60, 0
18, 20455, Note_on_c, 13, 65, 0
18, 20455, Note_on_c, 13, 56, 0
18, 20480, Note_on_c, 13, 56, 39
18, 20480, Note_on_c, 13, 60, 45
18, 20480, Note_on_c, 13, 65, 45
18, 20615, Note_on_c, 13, 65, 0
18, 20615, Note_on_c, 13, 60, 0
18, 20615, Note_on_c, 13, 56, 0
18, 20640, Note_on_c, 13, 56, 39
18, 20640, Note_on_c, 13, 60, 45
18, 20640, Note_on_c, 13, 65, 44
18, 20640, Note_on_c, 13, 84, 70
18, 20661, Note_on_c, 13, 60, 0
18, 20775, Note_on_c, 13, 65, 0
18, 20775, Note_on_c, 13, 60, 0
18, 20775, Note_on_c, 13, 56, 0
18, 20800, Note_on_c, 13, 56, 40
18, 20800, Note_on_c, 13, 60, 45
18, 20800, Note_on_c, 13, 65, 45
18, 20935, Note_on_c, 13, 65, 0
18, 20935, Note_on_c, 13, 60, 0
18, 20935, Note_on_c, 13, 56, 0
18, 20960, Note_on_c, 13, 56, 39
18, 20960, Note_on_c, 13, 60, 45
18, 20960, Note_on_c, 13, 65, 45
18, 21095, Note_on_c, 13, 65, 0
18, 21095, Note_on_c, 13, 60, 0
18, 21095, Note_on_c, 13, 56, 0
18, 21120, Note_on_c, 13, 36, 58
18, 21120, Note_on_c, 13, 55, 45
18, 21120, Note_on_c, 13, 58, 45
18, 21120, Note_on_c, 13, 65, 43
18, 21120, Note_on_c, 13, 85, 79
18, 21124, Note_on_c, 13, 84, 0
18, 21255, Note_on_c, 13, 65, 0
18, 21255, Note_on_c, 13, 58, 0
18, 21255, Note_on_c, 13, 55, 0
18, 21280, Note_on_c, 13, 55, 44
18, 21280, Note_on_c, 13, 58, 43
18, 21280, Note_on_c, 13, 65, 42
18, 21360, Note_on_c, 13, 36, 0
18, 21415, Note_on_c, 13, 58, 0
18, 21415, Note_on_c, 13, 65, 0
18, 21415, Note_on_c, 13, 55, 0
18, 21440, Note_on_c, 13, 55, 41
18, 21440, Note_on_c, 13, 58, 43
18, 21440, Note_on_c, 13, 65, 45
18, 21575, Note_on_c, 13, 65, 0
18, 21575, Note_on_c, 13, 58, 0
18, 21575, Note_on_c, 13, 55, 0
18, 21600, Note_on_c, 13, 43, 63
18, 21600, Note_on_c, 13, 55, 44
18, 21600, Note_on_c, 13, 58, 45
18, 21600, Note_on_c, 13, 64, 45
18, 21735, Note_on_c, 13, 64, 0
18, 21735, Note_on_c, 13, 55, 0
18, 21735, Note_on_c, 13, 58, 0
18, 21760, Note_on_c, 13, 55, 45
18, 21760, Note_on_c, 13, 58, 45
18, 21760, Note_on_c, 13, 64, 45
18, 21840, Note_on_c, 13, 43, 0
18, 21895, Note_on_c, 13, 58, 0
18, 21895, Note_on_c, 13, 64, 0
18, 21895, Note_on_c, 13, 55, 0
18, 21920, Note_on_c, 13, 55, 45
18, 21920, Note_on_c, 13, 58, 45
18, 21920, Note_on_c, 13, 64, 43
18, 22055, Note_on_c, 13, 64, 0
18, 22055, Note_on_c, 13, 58, 0
18, 22055, Note_on_c, 13, 55, 0
18, 22080, Note_on_c, 13, 46, 71
18, 22080, Note_on_c, 13, 52, 45
18, 22080, Note_on_c, 13, 58, 45
18, 22080, Note_on_c, 13, 67, 45
18, 22215, Note_on_c, 13, 67, 0
18, 22215, Note_on_c, 13, 52, 0
18, 22215, Note_on_c, 13, 58, 0
18, 22240, Note_on_c, 13, 52, 38
18, 22240, Note_on_c, 13, 58, 45
18, 22240, Note_on_c, 13, 67, 42
18, 22320, Note_on_c, 13, 46, 0
18, 22375, Note_on_c, 13, 58, 0
18, 22375, Note_on_c, 13, 67, 0
18, 22375, Note_on_c, 13, 52, 0
18, 22400, Note_on_c, 13, 52, 38
18, 22400, Note_on_c, 13, 58, 45
18, 22400, Note_on_c, 13, 67, 39
18, 22535, Note_on_c, 13, 67, 0
18, 22535, Note_on_c, 13, 58, 0
18, 22535, Note_on_c, 13, 52, 0
18, 22560, Note_on_c, 13, 52, 43
18, 22560, Note_on_c, 13, 58, 45
18, 22560, Note_on_c, 13, 67, 45
18, 22560, Note_on_c, 13, 79, 64
18, 22628, Note_on_c, 13, 85, 0
18, 22695, Note_on_c, 13, 67, 0
18, 22695, Note_on_c, 13, 52, 0
18, 22695, Note_on_c, 13, 58, 0
18, 22720, Note_on_c, 13, 52, 38
18, 22720, Note_on_c, 13, 58, 45
18, 22720, Note_on_c, 13, 67, 39
18, 22855, Note_on_c, 13, 67, 0
18, 22855, Note_on_c, 13, 58, 0
18, 22855, Note_on_c, 13, 52, 0
18, 22880, Note_on_c, 13, 52, 38
18, 22880, Note_on_c, 13, 58, 45
18, 22880, Note_on_c, 13, 67, 41
18, 23015, Note_on_c, 13, 67, 0
18, 23015, Note_on_c, 13, 58, 0
18, 23015, Note_on_c, 13, 52, 0
18, 23040, Note_on_c, 13, 36, 45
18, 23040, Note_on_c, 13, 56, 45
18, 23040, Note_on_c, 13, 60, 45
18, 23040, Note_on_c, 13, 67, 45
18, 23040, Note_on_c, 13, 84, 78
18, 23056, Note_on_c, 13, 79, 0
18, 23175, Note_on_c, 13, 67, 0
18, 23175, Note_on_c, 13, 60, 0
18, 23175, Note_on_c, 13, 56, 0
18, 23200, Note_on_c, 13, 56, 38
18, 23200, Note_on_c, 13, 60, 45
18, 23200, Note_on_c, 13, 67, 45
18, 23280, Note_on_c, 13, 36, 0
18, 23335, Note_on_c, 13, 60, 0
18, 23335, Note_on_c, 13, 67, 0
18, 23335, Note_on_c, 13, 56, 0
18, 23360, Note_on_c, 13, 56, 39
18, 23360, Note_on_c, 13, 60, 45
18, 23360, Note_on_c, 13, 67, 41
18, 23495, Note_on_c, 13, 67, 0
18, 23495, Note_on_c, 13, 60, 0
18, 23495, Note_on_c, 13, 56, 0
18, 23520, Note_on_c, 13, 44, 74
18, 23520, Note_on_c, 13, 56, 42
18, 23520, Note_on_c, 13, 60, 45
18, 23520, Note_on_c, 13, 65, 45
18, 23655, Note_on_c, 13, 65, 0
18, 23655, Note_on_c, 13, 56, 0
18, 23655, Note_on_c, 13, 60, 0
18, 23680, Note_on_c, 13, 56, 42
18, 23680, Note_on_c, 13, 60, 45
18, 23680, Note_on_c, 13, 65, 40
18, 23760, Note_on_c, 13, 44, 0
18, 23815, Note_on_c, 13, 60, 0
18, 23815, Note_on_c, 13, 65, 0
18, 23815, Note_on_c, 13, 56, 0
18, 23840, Note_on_c, 13, 56, 44
18, 23840, Note_on_c, 13, 60, 45
18, 23840, Note_on_c, 13, 65, 45
18, 23975, Note_on_c, 13, 65, 0
18, 23975, Note_on_c, 13, 60, 0
18, 23975, Note_on_c, 13, 56, 0
18, 24000, Note_on_c, 13, 48, 76
18, 24000, Note_on_c, 13, 53, 45
18, 24000, Note_on_c, 13, 60, 45
18, 24000, Note_on_c, 13, 68, 45
18, 24135, Note_on_c, 13, 68, 0
18, 24135, Note_on_c, 13, 53, 0
18, 24135, Note_on_c, 13, 60, 0
18, 24160, Note_on_c, 13, 53, 38
18, 24160, Note_on_c, 13, 60, 45
18, 24160, Note_on_c, 13, 68, 45
18, 24240, Note_on_c, 13, 48, 0
18, 24295, Note_on_c, 13, 60, 0
18, 24295, Note_on_c, 13, 68, 0
18, 24295, Note_on_c, 13, 53, 0
18, 24320, Note_on_c, 13, 53, 44
18, 24320, Note_on_c, 13, 60, 45
18, 24320, Note_on_c, 13, 68, 45
18, 24455, Note_on_c, 13, 68, 0
18, 24455, Note_on_c, 13, 60, 0
18, 24455, Note_on_c, 13, 53, 0
18, 24480, Note_on_c, 13, 53, 43
18, 24480, Note_on_c, 13, 60, 45
18, 24480, Note_on_c, 13, 68, 45
18, 24480, Note_on_c, 13, 77, 64
18, 24511, Note_on_c, 13, 84, 0
18, 24615, Note_on_c, 13, 68, 0
18, 24615, Note_on_c, 13, 53, 0
18, 24615, Note_on_c, 13, 60, 0
18, 24640, Note_on_c, 13, 53, 43
18, 24640, Note_on_c, 13, 60, 45
18, 24640, Note_on_c, 13, 68, 45
18, 24775, Note_on_c, 13, 68, 0
18, 24775, Note_on_c, 13, 60, 0
18, 24775, Note_on_c, 13, 53, 0
18, 24800, Note_on_c, 13, 53, 45
18, 24800, Note_on_c, 13, 60, 45
18, 24800, Note_on_c, 13, 68, 45
18, 24935, Note_on_c, 13, 68, 0
18, 24935, Note_on_c, 13, 60, 0
18, 24935, Note_on_c, 13, 53, 0
18, 24960, Note_on_c, 13, 36, 61
18, 24960, Note_on_c, 13, 61, 45
18, 24960, Note_on_c, 13, 64, 45
18, 24960, Note_on_c, 13, 68, 43
18, 24960, Note_on_c, 13, 82, 78
18, 24993, Note_on_c, 13, 77, 0
18, 25095, Note_on_c, 13, 68, 0
18, 25095, Note_on_c, 13, 64, 0
18, 25095, Note_on_c, 13, 61, 0
18, 25120, Note_on_c, 13, 61, 45
18, 25120, Note_on_c, 13, 64, 45
18, 25120, Note_on_c, 13, 68, 45
18, 25200, Note_on_c, 13, 36, 0
18, 25255, Note_on_c, 13, 64, 0
18, 25255, Note_on_c, 13, 68, 0
18, 25255, Note_on_c, 13, 61, 0
18, 25280, Note_on_c, 13, 61, 45
18, 25280, Note_on_c, 13, 64, 45
18, 25280, Note_on_c, 13, 68, 39
18, 25415, Note_on_c, 13, 68, 0
18, 25415, Note_on_c, 13, 64, 0
18, 25415, Note_on_c, 13, 61, 0
18, 25440, Note_on_c, 13, 40, 60
18, 25440, Note_on_c, 13, 61, 45
18, 25440, Note_on_c, 13, 64, 45
18, 25440, Note_on_c, 13, 67, 45
18, 25575, Note_on_c, 13, 67, 0
18, 25575, Note_on_c, 13, 61, 0
18, 25575, Note_on_c, 13, 64, 0
18, 25600, Note_on_c, 13, 61, 45
18, 25600, Note_on_c, 13, 64, 45
18, 25600, Note_on_c, 13, 67, 39
18, 25680, Note_on_c, 13, 40, 0
18, 25735, Note_on_c, 13, 64, 0
18, 25735, Note_on_c, 13, 67, 0
18, 25735, Note_on_c, 13, 61, 0
18, 25760, Note_on_c, 13, 61, 45
18, 25760, Note_on_c, 13, 64, 45
18, 25760, Note_on_c, 13, 67, 45
18, 25895, Note_on_c, 13, 67, 0
18, 25895, Note_on_c, 13, 64, 0
18, 25895, Note_on_c, 13, 61, 0
18, 25920, Note_on_c, 13, 43, 74
18, 25920, Note_on_c, 13, 60, 45
18, 25920, Note_on_c, 13, 64, 38
18, 25920, Note_on_c, 13, 70, 45
18, 26055, Note_on_c, 13, 70, 0
18, 26055, Note_on_c, 13, 60, 0
18, 26055, Note_on_c, 13, 64, 0
18, 26080, Note_on_c, 13, 60, 45
18, 26080, Note_on_c, 13, 64, 45
18, 26080, Note_on_c, 13, 70, 41
18, 26160, Note_on_c, 13, 43, 0
18, 26215, Note_on_c, 13, 64, 0
18, 26215, Note_on_c, 13, 70, 0
18, 26215, Note_on_c, 13, 60, 0
18, 26240, Note_on_c, 13, 60, 45
18, 26240, Note_on_c, 13, 64, 45
18, 26240, Note_on_c, 13, 70, 45
18, 26375, Note_on_c, 13, 70, 0
18, 26375, Note_on_c, 13, 64, 0
18, 26375, Note_on_c, 13, 60, 0
18, 26400, Note_on_c, 13, 60, 45
18, 26400, Note_on_c, 13, 67, 45
18, 26400, Note_on_c, 13, 70, 41
18, 26400, Note_on_c, 13, 76, 70
18, 26421, Note_on_c, 13, 82, 0
18, 26535, Note_on_c, 13, 70, 0
18, 26535, Note_on_c, 13, 60, 0
18, 26535, Note_on_c, 13, 67, 0
18, 26560, Note_on_c, 13, 60, 45
18, 26560, Note_on_c, 13, 67, 45
18, 26560, Note_on_c, 13, 70, 44
18, 26695, Note_on_c, 13, 70, 0
18, 26695, Note_on_c, 13, 67, 0
18, 26695, Note_on_c, 13, 60, 0
18, 26720, Note_on_c, 13, 60, 45
18, 26720, Note_on_c, 13, 67, 40
18, 26720, Note_on_c, 13, 70, 39
18, 26855, Note_on_c, 13, 70, 0
18, 26855, Note_on_c, 13, 67, 0
18, 26855, Note_on_c, 13, 60, 0
18, 26880, Note_on_c, 13, 48, 57
18, 26880, Note_on_c, 13, 59, 40
18, 26880, Note_on_c, 13, 65, 52
18, 26880, Note_on_c, 13, 70, 46
18, 26880, Note_on_c, 13, 80, 78
18, 26909, Note_on_c, 13, 76, 0
18, 27015, Note_on_c, 13, 70, 0
18, 27015, Note_on_c, 13, 65, 0
18, 27015, Note_on_c, 13, 59, 0
18, 27040, Note_on_c, 13, 59, 40
18, 27040, Note_on_c, 13, 65, 41
18, 27040, Note_on_c, 13, 70, 43
18, 27120, Note_on_c, 13, 48, 0
18, 27175, Note_on_c, 13, 65, 0
18, 27175, Note_on_c, 13, 70, 0
18, 27175, Note_on_c, 13, 59, 0
18, 27200, Note_on_c, 13, 59, 50
18, 27200, Note_on_c, 13, 65, 44
18, 27200, Note_on_c, 13, 70, 43
18, 27335, Note_on_c, 13, 70, 0
18, 27335, Note_on_c, 13, 65, 0
18, 27335, Note_on_c, 13, 59, 0
18, 27360, Note_on_c, 13, 53, 60
18, 27360, Note_on_c, 13, 59, 46
18, 27360, Note_on_c, 13, 65, 47
18, 27360, Note_on_c, 13, 68, 39
18, 27495, Note_on_c, 13, 68, 0
18, 27495, Note_on_c, 13, 59, 0
18, 27495, Note_on_c, 13, 65, 0
18, 27520, Note_on_c, 13, 59, 36
18, 27520, Note_on_c, 13, 65, 42
18, 27520, Note_on_c, 13, 68, 39
18, 27600, Note_on_c, 13, 53, 0
18, 27655, Note_on_c, 13, 65, 0
18, 27655, Note_on_c, 13, 68, 0
18, 27655, Note_on_c, 13, 59, 0
18, 27680, Note_on_c, 13, 59, 39
18, 27680, Note_on_c, 13, 65, 50
18, 27680, Note_on_c, 13, 68, 44
18, 27815, Note_on_c, 13, 68, 0
18, 27815, Note_on_c, 13, 65, 0
18, 27815, Note_on_c, 13, 59, 0
18, 27840, Note_on_c, 13, 56, 67
18, 27840, Note_on_c, 13, 62, 46
18, 27840, Note_on_c, 13, 65, 46
18, 27840, Note_on_c, 13, 71, 49
18, 27975, Note_on_c, 13, 71, 0
18, 27975, Note_on_c, 13, 62, 0
18, 27975, Note_on_c, 13, 65, 0
18, 28000, Note_on_c, 13, 62, 32
18, 28000, Note_on_c, 13, 65, 45
18, 28000, Note_on_c, 13, 71, 33
18, 28080, Note_on_c, 13, 56, 0
18, 28135, Note_on_c, 13, 65, 0
18, 28135, Note_on_c, 13, 71, 0
18, 28135, Note_on_c, 13, 62, 0
18, 28160, Note_on_c, 13, 62, 42
18, 28160, Note_on_c, 13, 65, 51
18, 28160, Note_on_c, 13, 71, 31
18, 28295, Note_on_c, 13, 71, 0
18, 28295, Note_on_c, 13, 65, 0
18, 28295, Note_on_c, 13, 62, 0
18, 28320, Note_on_c, 13, 65, 48
18, 28320, Note_on_c, 13, 68, 52
18, 28320, Note_on_c, 13, 71, 36
18, 28320, Note_on_c, 13, 74, 73
18, 28358, Note_on_c, 13, 80, 0
18, 28455, Note_on_c, 13, 71, 0
18, 28455, Note_on_c, 13, 65, 0
18, 28455, Note_on_c, 13, 68, 0
18, 28480, Note_on_c, 13, 65, 46
18, 28480, Note_on_c, 13, 68, 50
18, 28480, Note_on_c, 13, 71, 40
18, 28615, Note_on_c, 13, 71, 0
18, 28615, Note_on_c, 13, 68, 0
18, 28615, Note_on_c, 13, 65, 0
18, 28640, Note_on_c, 13, 65, 48
18, 28640, Note_on_c, 13, 68, 51
18, 28640, Note_on_c, 13, 71, 37
18, 28775, Note_on_c, 13, 71, 0
18, 28775, Note_on_c, 13, 68, 0
18, 28775, Note_on_c, 13, 65, 0
18, 28800, Note_on_c, 13, 48, 65
18, 28800, Note_on_c, 13, 65, 49
18, 28800, Note_on_c, 13, 67, 50
18, 28800, Note_on_c, 13, 72, 25
18, 28800, Note_on_c, 13, 79, 78
18, 28812, Note_on_c, 13, 74, 0
18, 28935, Note_on_c, 13, 72, 0
18, 28935, Note_on_c, 13, 67, 0
18, 28935, Note_on_c, 13, 65, 0
18, 28960, Note_on_c, 13, 65, 43
18, 28960, Note_on_c, 13, 67, 39
18, 28960, Note_on_c, 13, 72, 54
18, 29040, Note_on_c, 13, 48, 0
18, 29095, Note_on_c, 13, 67, 0
18, 29095, Note_on_c, 13, 72, 0
18, 29095, Note_on_c, 13, 65, 0
18, 29120, Note_on_c, 13, 65, 33
18, 29120, Note_on_c, 13, 67, 39
18, 29120, Note_on_c, 13, 72, 53
18, 29255, Note_on_c, 13, 72, 0
18, 29255, Note_on_c, 13, 67, 0
18, 29255, Note_on_c, 13, 65, 0
18, 29280, Note_on_c, 13, 55, 72
18, 29280, Note_on_c, 13, 65, 39
18, 29280, Note_on_c, 13, 67, 40
18, 29280, Note_on_c, 13, 73, 46
18, 29415, Note_on_c, 13, 73, 0
18, 29415, Note_on_c, 13, 65, 0
18, 29415, Note_on_c, 13, 67, 0
18, 29440, Note_on_c, 13, 65, 38
18, 29440, Note_on_c, 13, 67, 43
18, 29440, Note_on_c, 13, 73, 59
18, 29520, Note_on_c, 13, 55, 0
18, 29575, Note_on_c, 13, 67, 0
18, 29575, Note_on_c, 13, 73, 0
18, 29575, Note_on_c, 13, 65, 0
18, 29600, Note_on_c, 13, 65, 40
18, 29600, Note_on_c, 13, 67, 41
18, 29600, Note_on_c, 13, 73, 54
18, 29735, Note_on_c, 13, 73, 0
18, 29735, Note_on_c, 13, 67, 0
18, 29735, Note_on_c, 13, 65, 0
18, 29760, Note_on_c, 13, 58, 75
18, 29760, Note_on_c, 13, 64, 47
18, 29760, Note_on_c, 13, 67, 38
18, 29760, Note_on_c, 13, 72, 46
18, 29895, Note_on_c, 13, 72, 0
18, 29895, Note_on_c, 13, 64, 0
18, 29895, Note_on_c, 13, 67, 0
18, 29920, Note_on_c, 13, 64, 45
18, 29920, Note_on_c, 13, 67, 46
18, 29920, Note_on_c, 13, 72, 28
18, 30000, Note_on_c, 13, 58, 0
18, 30055, Note_on_c, 13, 67, 0
18, 30055, Note_on_c, 13, 72, 0
18, 30055, Note_on_c, 13, 64, 0
18, 30080, Note_on_c, 13, 64, 41
18, 30080, Note_on_c, 13, 67, 46
18, 30080, Note_on_c, 13, 72, 37
18, 30215, Note_on_c, 13, 72, 0
18, 30215, Note_on_c, 13, 67, 0
18, 30215, Note_on_c, 13, 64, 0
18, 30240, Note_on_c, 13, 46, 66
18, 30240, Note_on_c, 13, 55, 42
18, 30240, Note_on_c, 13, 60, 38
18, 30240, Note_on_c, 13, 64, 52
18, 30240, Note_on_c, 13, 72, 76
18, 30271, Note_on_c, 13, 79, 0
18, 30375, Note_on_c, 13, 64, 0
18, 30375, Note_on_c, 13, 60, 0
18, 30375, Note_on_c, 13, 55, 0
18, 30400, Note_on_c, 13, 55, 37
18, 30400, Note_on_c, 13, 60, 44
18, 30400, Note_on_c, 13, 64, 33
18, 30480, Note_on_c, 13, 46, 0
18, 30535, Note_on_c, 13, 60, 0
18, 30535, Note_on_c, 13, 64, 0
18, 30535, Note_on_c, 13, 55, 0
18, 30560, Note_on_c, 13, 55, 38
18, 30560, Note_on_c, 13, 60, 47
18, 30560, Note_on_c, 13, 64, 36
18, 30695, Note_on_c, 13, 64, 0
18, 30695, Note_on_c, 13, 60, 0
18, 30695, Note_on_c, 13, 55, 0
18, 30718, Note_on_c, 13, 72, 0
18, 30720, Note_on_c, 13, 45, 69
18, 30720, Note_on_c, 13, 57, 42
18, 30720, Note_on_c, 13, 60, 46
18, 30720, Note_on_c, 13, 65, 46
18, 30720, Note_on_c, 13, 77, 74
18, 30855, Note_on_c, 13, 65, 0
18, 30855, Note_on_c, 13, 60, 0
18, 30855, Note_on_c, 13, 57, 0
18, 30880, Note_on_c, 13, 57, 46
18, 30880, Note_on_c, 13, 60, 42
18, 30880, Note_on_c, 13, 65, 36
18, 30960, Note_on_c, 13, 45, 0
18, 31015, Note_on_c, 13, 60, 0
18, 31015, Note_on_c, 13, 65, 0
18, 31015, Note_on_c, 13, 57, 0
18, 31040, Note_on_c, 13, 57, 42
18, 31040, Note_on_c, 13, 60, 38
18, 31040, Note_on_c, 13, 65, 35
18, 31175, Note_on_c, 13, 65, 0
18, 31175, Note_on_c, 13, 60, 0
18, 31175, Note_on_c, 13, 57, 0
18, 31200, Note_on_c, 13, 53, 68
18, 31200, Note_on_c, 13, 57, 46
18, 31200, Note_on_c, 13, 60, 44
18, 31200, Note_on_c, 13, 65, 43
18, 31335, Note_on_c, 13, 65, 0
18, 31335, Note_on_c, 13, 57, 0
18, 31335, Note_on_c, 13, 60, 0
18, 31360, Note_on_c, 13, 57, 40
18, 31360, Note_on_c, 13, 60, 41
18, 31360, Note_on_c, 13, 65, 41
18, 31440, Note_on_c, 13, 53, 0
18, 31495, Note_on_c, 13, 60, 0
18, 31495, Note_on_c, 13, 65, 0
18, 31495, Note_on_c, 13, 57, 0
18, 31520, Note_on_c, 13, 57, 42
18, 31520, Note_on_c, 13, 60, 43
18, 31520, Note_on_c, 13, 65, 40
18, 31655, Note_on_c, 13, 65, 0
18, 31655, Note_on_c, 13, 60, 0
18, 31655, Note_on_c, 13, 57, 0
18, 31680, Note_on_c, 13, 46, 63
18, 31680, Note_on_c, 13, 55, 28
18, 31680, Note_on_c, 13, 62, 39
18, 31680, Note_on_c, 13, 65, 43
18, 31680, Note_on_c, 13, 76, 71
18, 31707, Note_on_c, 13, 77, 0
18, 31815, Note_on_c, 13, 65, 0
18, 31815, Note_on_c, 13, 62, 0
18, 31815, Note_on_c, 13, 55, 0
18, 31840, Note_on_c, 13, 55, 44
18, 31840, Note_on_c, 13, 62, 47
18, 31840, Note_on_c, 13, 65, 25
18, 31918, Note_on_c, 13, 76, 0
18, 31920, Note_on_c, 13, 46, 0
18, 31920, Note_on_c, 13, 74, 62
18, 31975, Note_on_c, 13, 62, 0
18, 31975, Note_on_c, 13, 65, 0
18, 31975, Note_on_c, 13, 55, 0
18, 32000, Note_on_c, 13, 55, 45
18, 32000, Note_on_c, 13, 62, 49
18, 32000, Note_on_c, 13, 65, 38
18, 32135, Note_on_c, 13, 65, 0
18, 32135, Note_on_c, 13, 62, 0
18, 32135, Note_on_c, 13, 55, 0
18, 32159, Note_on_c, 13, 74, 0
18, 32160, Note_on_c, 13, 55, 68
18, 32160, Note_on_c, 13, 55, 42
18, 32160, Note_on_c, 13, 62, 44
18, 32160, Note_on_c, 13, 65, 40
18, 32160, Note_on_c, 13, 72, 75
18, 32295, Note_on_c, 13, 65, 0
18, 32295, Note_on_c, 13, 62, 0
18, 32295, Note_on_c, 13, 55, 0
18, 32320, Note_on_c, 13, 55, 42
18, 32320, Note_on_c, 13, 62, 44
18, 32320, Note_on_c, 13, 65, 39
18, 32400, Note_on_c, 13, 55, 0
18, 32400, Note_on_c, 13, 70, 74
18, 32404, Note_on_c, 13, 72, 0
18, 32455, Note_on_c, 13, 65, 0
18, 32455, Note_on_c, 13, 55, 0
18, 32455, Note_on_c, 13, 62, 0
18, 32480, Note_on_c, 13, 55, 45
18, 32480, Note_on_c, 13, 62, 42
18, 32480, Note_on_c, 13, 65, 40
18, 32615, Note_on_c, 13, 65, 0
18, 32615, Note_on_c, 13, 62, 0
18, 32615, Note_on_c, 13, 55, 0
18, 32640, Note_on_c, 13, 48, 74
18, 32640, Note_on_c, 13, 55, 35
18, 32640, Note_on_c, 13, 60, 50
18, 32640, Note_on_c, 13, 65, 36
18, 32640, Note_on_c, 13, 69, 82
18, 32650, Note_on_c, 13, 70, 0
18, 32775, Note_on_c, 13, 65, 0
18, 32775, Note_on_c, 13, 60, 0
18, 32775, Note_on_c, 13, 55, 0
18, 32800, Note_on_c, 13, 55, 44
18, 32800, Note_on_c, 13, 60, 47
18, 32800, Note_on_c, 13, 65, 35
18, 32880, Note_on_c, 13, 48, 0
18, 32935, Note_on_c, 13, 60, 0
18, 32935, Note_on_c, 13, 65, 0
18, 32935, Note_on_c, 13, 55, 0
18, 32960, Note_on_c, 13, 55, 38
18, 32960, Note_on_c, 13, 60, 44
18, 32960, Note_on_c, 13, 65, 39
18, 33095, Note_on_c, 13, 65, 0
18, 33095, Note_on_c, 13, 60, 0
18, 33095, Note_on_c, 13, 55, 0
18, 33120, Note_on_c, 13, 46, 65
18, 33120, Note_on_c, 13, 55, 41
18, 33120, Note_on_c, 13, 62, 44
18, 33120, Note_on_c, 13, 65, 38
18, 33120, Note_on_c, 13, 67, 69
18, 33133, Note_on_c, 13, 69, 0
18, 33255, Note_on_c, 13, 65, 0
18, 33255, Note_on_c, 13, 62, 0
18, 33255, Note_on_c, 13, 55, 0
18, 33280, Note_on_c, 13, 55, 39
18, 33280, Note_on_c, 13, 62, 44
18, 33280, Note_on_c, 13, 65, 43
18, 33360, Note_on_c, 13, 46, 0
18, 33415, Note_on_c, 13, 62, 0
18, 33415, Note_on_c, 13, 65, 0
18, 33415, Note_on_c, 13, 55, 0
18, 33440, Note_on_c, 13, 55, 33
18, 33440, Note_on_c, 13, 62, 42
18, 33440, Note_on_c, 13, 65, 43
18, 33575, Note_on_c, 13, 65, 0
18, 33575, Note_on_c, 13, 62, 0
18, 33575, Note_on_c, 13, 55, 0
18, 33600, Note_on_c, 13, 48, 72
18, 33600, Note_on_c, 13, 55, 46
18, 33600, Note_on_c, 13, 60, 36
18, 33600, Note_on_c, 13, 65, 39
18, 33735, Note_on_c, 13, 65, 0
18, 33735, Note_on_c, 13, 55, 0
18, 33735, Note_on_c, 13, 60, 0
18, 33760, Note_on_c, 13, 55, 35
18, 33760, Note_on_c, 13, 60, 32
18, 33760, Note_on_c, 13, 65, 42
18, 33840, Note_on_c, 13, 48, 0
18, 33895, Note_on_c, 13, 60, 0
18, 33895, Note_on_c, 13, 65, 0
18, 33895, Note_on_c, 13, 55, 0
18, 33920, Note_on_c, 13, 55, 37
18, 33920, Note_on_c, 13, 60, 47
18, 33920, Note_on_c, 13, 65, 38
18, 34055, Note_on_c, 13, 65, 0
18, 34055, Note_on_c, 13, 60, 0
18, 34055, Note_on_c, 13, 55, 0
18, 34080, Note_on_c, 13, 48, 71
18, 34080, Note_on_c, 13, 55, 46
18, 34080, Note_on_c, 13, 60, 52
18, 34080, Note_on_c, 13, 64, 45
18, 34080, Note_on_c, 13, 72, 68
18, 34118, Note_on_c, 13, 67, 0
18, 34215, Note_on_c, 13, 64, 0
18, 34215, Note_on_c, 13, 60, 0
18, 34215, Note_on_c, 13, 55, 0
18, 34240, Note_on_c, 13, 55, 39
18, 34240, Note_on_c, 13, 60, 47
18, 34240, Note_on_c, 13, 64, 30
18, 34320, Note_on_c, 13, 48, 0
18, 34375, Note_on_c, 13, 60, 0
18, 34375, Note_on_c, 13, 64, 0
18, 34375, Note_on_c, 13, 55, 0
18, 34400, Note_on_c, 13, 55, 43
18, 34400, Note_on_c, 13, 60, 49
18, 34400, Note_on_c, 13, 64, 40
18, 34535, Note_on_c, 13, 64, 0
18, 34535, Note_on_c, 13, 60, 0
18, 34535, Note_on_c, 13, 55, 0
18, 34560, Note_on_c, 13, 49, 69
18, 34560, Note_on_c, 13, 55, 54
18, 34560, Note_on_c, 13, 64, 38
18, 34560, Note_on_c, 13, 70, 75
18, 34571, Note_on_c, 13, 72, 0
18, 34695, Note_on_c, 13, 64, 0
18, 34695, Note_on_c, 13, 55, 0
18, 34720, Note_on_c, 13, 55, 46
18, 34720, Note_on_c, 13, 64, 43
18, 34800, Note_on_c, 13, 49, 0
18, 34855, Note_on_c, 13, 64, 0
18, 34855, Note_on_c, 13, 55, 0
18, 34880, Note_on_c, 13, 55, 48
18, 34880, Note_on_c, 13, 64, 39
18, 35015, Note_on_c, 13, 64, 0
18, 35015, Note_on_c, 13, 55, 0
18, 35040, Note_on_c, 13, 50, 69
18, 35040, Note_on_c, 13, 53, 54
18, 35040, Note_on_c, 13, 65, 43
18, 35040, Note_on_c, 13, 69, 63
18, 35081, Note_on_c, 13, 70, 0
18, 35175, Note_on_c, 13, 65, 0
18, 35175, Note_on_c, 13, 53, 0
18, 35200, Note_on_c, 13, 53, 52
18, 35200, Note_on_c, 13, 65, 33
18, 35280, Note_on_c, 13, 50, 0
18, 35335, Note_on_c, 13, 65, 0
18, 35335, Note_on_c, 13, 53, 0
18, 35360, Note_on_c, 13, 53, 42
18, 35360, Note_on_c, 13, 65, 36
18, 35495, Note_on_c, 13, 65, 0
18, 35495, Note_on_c, 13, 53, 0
18, 35520, Note_on_c, 13, 48, 71
18, 35520, Note_on_c, 13, 57, 55
18, 35520, Note_on_c, 13, 65, 43
18, 35534, Note_on_c, 13, 69, 0
18, 35655, Note_on_c, 13, 65, 0
18, 35655, Note_on_c, 13, 57, 0
18, 35680, Note_on_c, 13, 57, 40
18, 35680, Note_on_c, 13, 65, 41
18, 35760, Note_on_c, 13, 48, 0
18, 35815, Note_on_c, 13, 65, 0
18, 35815, Note_on_c, 13, 57, 0
18, 35840, Note_on_c, 13, 57, 47
18, 35840, Note_on_c, 13, 65, 43
18, 35975, Note_on_c, 13, 65, 0
18, 35975, Note_on_c, 13, 57, 0
18, 36000, Note_on_c, 13, 46, 60
18, 36000, Note_on_c, 13, 60, 57
18, 36000, Note_on_c, 13, 67, 58
18, 36135, Note_on_c, 13, 67, 0
18, 36135, Note_on_c, 13, 60, 0
18, 36160, Note_on_c, 13, 60, 54
18, 36160, Note_on_c, 13, 67, 43
18, 36240, Note_on_c, 13, 46, 0
18, 36295, Note_on_c, 13, 67, 0
18, 36295, Note_on_c, 13, 60, 0
18, 36320, Note_on_c, 13, 60, 49
18, 36320, Note_on_c, 13, 67, 41
18, 36455, Note_on_c, 13, 67, 0
18, 36455, Note_on_c, 13, 60, 0
18, 36480, Note_on_c, 13, 45, 75
18, 36480, Note_on_c, 13, 57, 48
18, 36480, Note_on_c, 13, 60, 38
18, 36480, Note_on_c, 13, 65, 58
18, 36480, Note_on_c, 13, 77, 77
18, 36615, Note_on_c, 13, 65, 0
18, 36615, Note_on_c, 13, 60, 0
18, 36615, Note_on_c, 13, 57, 0
18, 36640, Note_on_c, 13, 57, 35
18, 36640, Note_on_c, 13, 60, 43
18, 36640, Note_on_c, 13, 65, 35
18, 36720, Note_on_c, 13, 45, 0
18, 36775, Note_on_c, 13, 60, 0
18, 36775, Note_on_c, 13, 65, 0
18, 36775, Note_on_c, 13, 57, 0
18, 36800, Note_on_c, 13, 57, 46
18, 36800, Note_on_c, 13, 60, 46
18, 36800, Note_on_c, 13, 65, 46
18, 36935, Note_on_c, 13, 65, 0
18, 36935, Note_on_c, 13, 60, 0
18, 36935, Note_on_c, 13, 57, 0
18, 36960, Note_on_c, 13, 53, 53
18, 36960, Note_on_c, 13, 57, 40
18, 36960, Note_on_c, 13, 60, 46
18, 36960, Note_on_c, 13, 65, 47
18, 37095, Note_on_c, 13, 65, 0
18, 37095, Note_on_c, 13, 57, 0
18, 37095, Note_on_c, 13, 60, 0
18, 37120, Note_on_c, 13, 57, 38
18, 37120, Note_on_c, 13, 60, 42
18, 37120, Note_on_c, 13, 65, 51
18, 37200, Note_on_c, 13, 53, 0
18, 37255, Note_on_c, 13, 60, 0
18, 37255, Note_on_c, 13, 65, 0
18, 37255, Note_on_c, 13, 57, 0
18, 37280, Note_on_c, 13, 57, 40
18, 37280, Note_on_c, 13, 60, 43
18, 37280, Note_on_c, 13, 65, 42
18, 37415, Note_on_c, 13, 65, 0
18, 37415, Note_on_c, 13, 60, 0
18, 37415, Note_on_c, 13, 57, 0
18, 37440, Note_on_c, 13, 46, 71
18, 37440, Note_on_c, 13, 55, 46
18, 37440, Note_on_c, 13, 62, 36
18, 37440, Note_on_c, 13, 65, 43
18, 37440, Note_on_c, 13, 76, 76
18, 37450, Note_on_c, 13, 77, 0
18, 37575, Note_on_c, 13, 65, 0
18, 37575, Note_on_c, 13, 62, 0
18, 37575, Note_on_c, 13, 55, 0
18, 37600, Note_on_c, 13, 55, 43
18, 37600, Note_on_c, 13, 62, 49
18, 37600, Note_on_c, 13, 65, 42
18, 37680, Note_on_c, 13, 46, 0
18, 37680, Note_on_c, 13, 74, 66
18, 37682, Note_on_c, 13, 76, 0
18, 37735, Note_on_c, 13, 65, 0
18, 37735, Note_on_c, 13, 62, 0
18, 37735, Note_on_c, 13, 55, 0
18, 37760, Note_on_c, 13, 55, 40
18, 37760, Note_on_c, 13, 62, 46
18, 37760, Note_on_c, 13, 65, 43
18, 37895, Note_on_c, 13, 65, 0
18, 37895, Note_on_c, 13, 62, 0
18, 37895, Note_on_c, 13, 55, 0
18, 37908, Note_on_c, 13, 74, 0
18, 37920, Note_on_c, 13, 55, 60
18, 37920, Note_on_c, 13, 55, 44
18, 37920, Note_on_c, 13, 62, 43
18, 37920, Note_on_c, 13, 65, 15
18, 37920, Note_on_c, 13, 72, 73
18, 38055, Note_on_c, 13, 65, 0
18, 38055, Note_on_c, 13, 62, 0
18, 38055, Note_on_c, 13, 55, 0
18, 38080, Note_on_c, 13, 55, 37
18, 38080, Note_on_c, 13, 62, 44
18, 38080, Note_on_c, 13, 65, 43
18, 38160, Note_on_c, 13, 55, 0
18, 38160, Note_on_c, 13, 70, 73
18, 38195, Note_on_c, 13, 72, 0
18, 38215, Note_on_c, 13, 65, 0
18, 38215, Note_on_c, 13, 55, 0
18, 38215, Note_on_c, 13, 62, 0
18, 38240, Note_on_c, 13, 55, 39
18, 38240, Note_on_c, 13, 62, 43
18, 38240, Note_on_c, 13, 65, 48
18, 38375, Note_on_c, 13, 65, 0
18, 38375, Note_on_c, 13, 62, 0
18, 38375, Note_on_c, 13, 55, 0
18, 38399, Note_on_c, 13, 70, 0
18, 38400, Note_on_c, 13, 48, 72
18, 38400, Note_on_c, 13, 55, 46
18, 38400, Note_on_c, 13, 60, 46
18, 38400, Note_on_c, 13, 65, 39
18, 38400, Note_on_c, 13, 69, 78
18, 38535, Note_on_c, 13, 65, 0
18, 38535, Note_on_c, 13, 60, 0
18, 38535, Note_on_c, 13, 55, 0
18, 38560, Note_on_c, 13, 55, 47
18, 38560, Note_on_c, 13, 60, 52
18, 38560, Note_on_c, 13, 65, 39
18, 38640, Note_on_c, 13, 48, 0
18, 38695, Note_on_c, 13, 60, 0
18, 38695, Note_on_c, 13, 65, 0
18, 38695, Note_on_c, 13, 55, 0
18, 38720, Note_on_c, 13, 55, 43
18, 38720, Note_on_c, 13, 60, 46
18, 38720, Note_on_c, 13, 65, 36
18, 38855, Note_on_c, 13, 65, 0
18, 38855, Note_on_c, 13, 60, 0
18, 38855, Note_on_c, 13, 55, 0
18, 38880, Note_on_c, 13, 46, 66
18, 38880, Note_on_c, 13, 55, 51
18, 38880, Note_on_c, 13, 62, 41
18, 38880, Note_on_c, 13, 65, 39
18, 38880, Note_on_c, 13, 67, 72
18, 38915, Note_on_c, 13, 69, 0
18, 39015, Note_on_c, 13, 65, 0
18, 39015, Note_on_c, 13, 62, 0
18, 39015, Note_on_c, 13, 55, 0
18, 39040, Note_on_c, 13, 55, 48
18, 39040, Note_on_c, 13, 62, 47
18, 39040, Note_on_c, 13, 65, 46
18, 39120, Note_on_c, 13, 46, 0
18, 39175, Note_on_c, 13, 62, 0
18, 39175, Note_on_c, 13, 65, 0
18, 39175, Note_on_c, 13, 55, 0
18, 39200, Note_on_c, 13, 55, 52
18, 39200, Note_on_c, 13, 62, 48
18, 39200, Note_on_c, 13, 65, 44
18, 39335, Note_on_c, 13, 65, 0
18, 39335, Note_on_c, 13, 62, 0
18, 39335, Note_on_c, 13, 55, 0
18, 39360, Note_on_c, 13, 48, 71
18, 39360, Note_on_c, 13, 55, 46
18, 39360, Note_on_c, 13, 60, 52
18, 39360, Note_on_c, 13, 65, 41
18, 39495, Note_on_c, 13, 65, 0
18, 39495, Note_on_c, 13, 55, 0
18, 39495, Note_on_c, 13, 60, 0
18, 39520, Note_on_c, 13, 55, 43
18, 39520, Note_on_c, 13, 60, 50
18, 39520, Note_on_c, 13, 65, 47
18, 39553, Note_on_c, 13, 67, 0
18, 39600, Note_on_c, 13, 48, 0
18, 39600, Note_on_c, 13, 69, 78
18, 39655, Note_on_c, 13, 60, 0
18, 39655, Note_on_c, 13, 65, 0
18, 39655, Note_on_c, 13, 55, 0
18, 39660, Note_on_c, 13, 67, 66
18, 39680, Note_on_c, 13, 55, 49
18, 39680, Note_on_c, 13, 60, 47
18, 39680, Note_on_c, 13, 65, 51
18, 39710, Note_on_c, 13, 69, 0
18, 39720, Note_on_c, 13, 66, 66
18, 39737, Note_on_c, 13, 67, 0
18, 39780, Note_on_c, 13, 67, 70
18, 39804, Note_on_c, 13, 66, 0
18, 39815, Note_on_c, 13, 65, 0
18, 39815, Note_on_c, 13, 60, 0
18, 39815, Note_on_c, 13, 55, 0
18, 39840, Note_on_c, 13, 48, 63
18, 39840, Note_on_c, 13, 58, 45
18, 39840, Note_on_c, 13, 60, 46
18, 39840, Note_on_c, 13, 64, 44
18, 39840, Note_on_c, 13, 72, 73
18, 39878, Note_on_c, 13, 67, 0
18, 39975, Note_on_c, 13, 64, 0
18, 39975, Note_on_c, 13, 60, 0
18, 39975, Note_on_c, 13, 58, 0
18, 40000, Note_on_c, 13, 58, 49
18, 40000, Note_on_c, 13, 60, 50
18, 40000, Note_on_c, 13, 64, 40
18, 40080, Note_on_c, 13, 48, 0
18, 40135, Note_on_c, 13, 60, 0
18, 40135, Note_on_c, 13, 64, 0
18, 40135, Note_on_c, 13, 58, 0
18, 40160, Note_on_c, 13, 58, 51
18, 40160, Note_on_c, 13, 60, 50
18, 40160, Note_on_c, 13, 64, 42
18, 40295, Note_on_c, 13, 64, 0
18, 40295, Note_on_c, 13, 60, 0
18, 40295, Note_on_c, 13, 58, 0
18, 40312, Note_on_c, 13, 72, 0
18, 40320, Note_on_c, 13, 53, 67
18, 40320, Note_on_c, 13, 57, 42
18, 40320, Note_on_c, 13, 60, 38
18, 40320, Note_on_c, 13, 65, 39
18, 40320, Note_on_c, 13, 65, 74
18, 40455, Note_on_c, 13, 65, 0
18, 40455, Note_on_c, 13, 60, 0
18, 40455, Note_on_c, 13, 57, 0
18, 40792, Note_on_c, 13, 65, 0
18, 40800, Note_on_c, 13, 53, 0
18, 66231, Note_on_c, 13, 81, 68
18, 67183, Note_on_c, 13, 82, 79
18, 67216, Note_on_c, 13, 81, 0
18, 68157, Note_on_c, 13, 73, 84
18, 68184, Note_on_c, 13, 82, 0
18, 69120, Note_on_c, 13, 38, 49
18, 69120, Note_on_c, 13, 50, 49
18, 69120, Note_on_c, 13, 57, 76
18, 69120, Note_on_c, 13, 74, 88
18, 69146, Note_on_c, 13, 73, 0
18, 69280, Note_on_c, 13, 62, 72
18, 69280, Note_on_c, 13, 65, 71
18, 69288, Note_on_c, 13, 74, 0
18, 69423, Note_on_c, 13, 65, 0
18, 69440, Note_on_c, 13, 64, 72
18, 69440, Note_on_c, 13, 67, 64
18, 69456, Note_on_c, 13, 62, 0
18, 69600, Note_on_c, 13, 38, 0
18, 69600, Note_on_c, 13, 50, 0
18, 69600, Note_on_c, 13, 65, 64
18, 69600, Note_on_c, 13, 69, 64
18, 69607, Note_on_c, 13, 64, 0
18, 69615, Note_on_c, 13, 67, 0
18, 69622, Note_on_c, 13, 57, 0
18, 69670, Note_on_c, 13, 65, 0
18, 69690, Note_on_c, 13, 69, 0
18, 69760, Note_on_c, 13, 65, 54
18, 69760, Note_on_c, 13, 69, 62
18, 69812, Note_on_c, 13, 65, 0
18, 69826, Note_on_c, 13, 69, 0
18, 69920, Note_on_c, 13, 65, 56
18, 69920, Note_on_c, 13, 69, 64
18, 69984, Note_on_c, 13, 65, 0
18, 70011, Note_on_c, 13, 69, 0
18, 70080, Note_on_c, 13, 50, 57
18, 70080, Note_on_c, 13, 62, 57
18, 70080, Note_on_c, 13, 57, 46
18, 70240, Note_on_c, 13, 62, 48
18, 70240, Note_on_c, 13, 65, 56
18, 70320, Note_on_c, 13, 62, 0
18, 70320, Note_on_c, 13, 50, 0
18, 70400, Note_on_c, 13, 65, 54
18, 70400, Note_on_c, 13, 69, 59
18, 70401, Note_on_c, 13, 65, 0
18, 70407, Note_on_c, 13, 62, 0
18, 70494, Note_on_c, 13, 65, 0
18, 70507, Note_on_c, 13, 69, 0
18, 70560, Note_on_c, 13, 45, 54
18, 70560, Note_on_c, 13, 57, 54
18, 70720, Note_on_c, 13, 61, 59
18, 70720, Note_on_c, 13, 64, 51
18, 70800, Note_on_c, 13, 57, 0
18, 70800, Note_on_c, 13, 45, 0
18, 70880, Note_on_c, 13, 64, 48
18, 70880, Note_on_c, 13, 67, 59
18, 70900, Note_on_c, 13, 61, 0
18, 70906, Note_on_c, 13, 64, 0
18, 70986, Note_on_c, 13, 67, 0
18, 71002, Note_on_c, 13, 64, 0
18, 71040, Note_on_c, 13, 38, 44
18, 71040, Note_on_c, 13, 50, 44
18, 71200, Note_on_c, 13, 62, 54
18, 71200, Note_on_c, 13, 65, 54
18, 71352, Note_on_c, 13, 62, 0
18, 71360, Note_on_c, 13, 64, 46
18, 71360, Note_on_c, 13, 67, 54
18, 71374, Note_on_c, 13, 65, 0
18, 71520, Note_on_c, 13, 50, 0
18, 71520, Note_on_c, 13, 38, 0
18, 71520, Note_on_c, 13, 65, 52
18, 71520, Note_on_c, 13, 69, 58
18, 71524, Note_on_c, 13, 67, 0
18, 71540, Note_on_c, 13, 64, 0
18, 71566, Note_on_c, 13, 57, 0
18, 71605, Note_on_c, 13, 65, 0
18, 71624, Note_on_c, 13, 69, 0
18, 71680, Note_on_c, 13, 65, 47
18, 71680, Note_on_c, 13, 69, 54
18, 71743, Note_on_c, 13, 65, 0
18, 71753, Note_on_c, 13, 69, 0
18, 71840, Note_on_c, 13, 65, 52
18, 71840, Note_on_c, 13, 69, 59
18, 71906, Note_on_c, 13, 65, 0
18, 71922, Note_on_c, 13, 69, 0
18, 72000, Note_on_c, 13, 38, 46
18, 72000, Note_on_c, 13, 50, 46
18, 72000, Note_on_c, 13, 57, 51
18, 72160, Note_on_c, 13, 62, 49
18, 72160, Note_on_c, 13, 65, 54
18, 72307, Note_on_c, 13, 65, 0
18, 72316, Note_on_c, 13, 62, 0
18, 72320, Note_on_c, 13, 64, 41
18, 72320, Note_on_c, 13, 67, 44
18, 72480, Note_on_c, 13, 38, 0
18, 72480, Note_on_c, 13, 50, 0
18, 72480, Note_on_c, 13, 65, 57
18, 72480, Note_on_c, 13, 69, 54
18, 72497, Note_on_c, 13, 67, 0
18, 72502, Note_on_c, 13, 64, 0
18, 72535, Note_on_c, 13, 57, 0
18, 72557, Note_on_c, 13, 69, 0
18, 72573, Note_on_c, 13, 65, 0
18, 72640, Note_on_c, 13, 65, 52
18, 72640, Note_on_c, 13, 69, 56
18, 72704, Note_on_c, 13, 69, 0
18, 72704, Note_on_c, 13, 65, 0
18, 72800, Note_on_c, 13, 65, 54
18, 72800, Note_on_c, 13, 69, 54
18, 72864, Note_on_c, 13, 65, 0
18, 72884, Note_on_c, 13, 69, 0
18, 72960, Note_on_c, 13, 36, 104
18, 72960, Note_on_c, 13, 48, 104
18, 72960, Note_on_c, 13, 60, 94
18, 73120, Note_on_c, 13, 55, 84
18, 73120, Note_on_c, 13, 64, 88
18, 73280, Note_on_c, 13, 57, 88
18, 73280, Note_on_c, 13, 65, 80
18, 73288, Note_on_c, 13, 55, 0
18, 73299, Note_on_c, 13, 64, 0
18, 73440, Note_on_c, 13, 36, 0
18, 73440, Note_on_c, 13, 48, 0
18, 73440, Note_on_c, 13, 58, 72
18, 73440, Note_on_c, 13, 67, 88
18, 73465, Note_on_c, 13, 57, 0
18, 73470, Note_on_c, 13, 65, 0
18, 73475, Note_on_c, 13, 60, 0
18, 73535, Note_on_c, 13, 58, 0
18, 73561, Note_on_c, 13, 67, 0
18, 73600, Note_on_c, 13, 58, 84
18, 73600, Note_on_c, 13, 67, 94
18, 73686, Note_on_c, 13, 58, 0
18, 73695, Note_on_c, 13, 67, 0
18, 73760, Note_on_c, 13, 58, 79
18, 73760, Note_on_c, 13, 67, 94
18, 73851, Note_on_c, 13, 67, 0
18, 73857, Note_on_c, 13, 58, 0
18, 73920, Note_on_c, 13, 36, 56
18, 73920, Note_on_c, 13, 48, 56
18, 73920, Note_on_c, 13, 60, 60
18, 74080, Note_on_c, 13, 60, 52
18, 74080, Note_on_c, 13, 64, 49
18, 74240, Note_on_c, 13, 62, 44
18, 74240, Note_on_c, 13, 65, 49
18, 74247, Note_on_c, 13, 60, 0
18, 74250, Note_on_c, 13, 64, 0
18, 74400, Note_on_c, 13, 36, 0
18, 74400, Note_on_c, 13, 48, 0
18, 74400, Note_on_c, 13, 64, 49
18, 74400, Note_on_c, 13, 67, 52
18, 74405, Note_on_c, 13, 65, 0
18, 74411, Note_on_c, 13, 62, 0
18, 74433, Note_on_c, 13, 60, 0
18, 74473, Note_on_c, 13, 67, 0
18, 74476, Note_on_c, 13, 64, 0
18, 74560, Note_on_c, 13, 64, 45
18, 74560, Note_on_c, 13, 67, 50
18, 74621, Note_on_c, 13, 64, 0
18, 74624, Note_on_c, 13, 67, 0
18, 74720, Note_on_c, 13, 64, 39
18, 74720, Note_on_c, 13, 67, 54
18, 74785, Note_on_c, 13, 64, 0
18, 74798, Note_on_c, 13, 67, 0
18, 74880, Note_on_c, 13, 41, 54
18, 74880, Note_on_c, 13, 53, 54
18, 75040, Note_on_c, 13, 60, 40
18, 75040, Note_on_c, 13, 60, 49
18, 75040, Note_on_c, 13, 64, 51
18, 75111, Note_on_c, 13, 60, 0
18, 75186, Note_on_c, 13, 64, 0
18, 75200, Note_on_c, 13, 60, 32
18, 75200, Note_on_c, 13, 64, 47
18, 75200, Note_on_c, 13, 67, 43
18, 75201, Note_on_c, 13, 60, 0
18, 75260, Note_on_c, 13, 60, 0
18, 75360, Note_on_c, 13, 41, 0
18, 75360, Note_on_c, 13, 53, 0
18, 75360, Note_on_c, 13, 60, 36
18, 75360, Note_on_c, 13, 65, 54
18, 75360, Note_on_c, 13, 69, 54
18, 75368, Note_on_c, 13, 67, 0
18, 75372, Note_on_c, 13, 64, 0
18, 75422, Note_on_c, 13, 60, 0
18, 75424, Note_on_c, 13, 65, 0
18, 75430, Note_on_c, 13, 69, 0
18, 75520, Note_on_c, 13, 60, 37
18, 75520, Note_on_c, 13, 65, 47
18, 75520, Note_on_c, 13, 69, 56
18, 75578, Note_on_c, 13, 60, 0
18, 75579, Note_on_c, 13, 65, 0
18, 75592, Note_on_c, 13, 69, 0
18, 75680, Note_on_c, 13, 60, 35
18, 75680, Note_on_c, 13, 65, 47
18, 75680, Note_on_c, 13, 69, 49
18, 75733, Note_on_c, 13, 60, 0
18, 75741, Note_on_c, 13, 65, 0
18, 75749, Note_on_c, 13, 69, 0
18, 75840, Note_on_c, 13, 60, 36
18, 75840, Note_on_c, 13, 65, 48
18, 75840, Note_on_c, 13, 69, 48
18, 75898, Note_on_c, 13, 60, 0
18, 75908, Note_on_c, 13, 69, 0
18, 75909, Note_on_c, 13, 65, 0
18, 76000, Note_on_c, 13, 60, 39
18, 76000, Note_on_c, 13, 65, 51
18, 76000, Note_on_c, 13, 69, 51
18, 76059, Note_on_c, 13, 60, 0
18, 76062, Note_on_c, 13, 69, 0
18, 76065, Note_on_c, 13, 65, 0
18, 76160, Note_on_c, 13, 60, 37
18, 76160, Note_on_c, 13, 65, 49
18, 76160, Note_on_c, 13, 69, 49
18, 76222, Note_on_c, 13, 60, 0
18, 76224, Note_on_c, 13, 69, 0
18, 76226, Note_on_c, 13, 65, 0
18, 76320, Note_on_c, 13, 60, 39
18, 76320, Note_on_c, 13, 65, 54
18, 76320, Note_on_c, 13, 69, 49
18, 76381, Note_on_c, 13, 60, 0
18, 76385, Note_on_c, 13, 69, 0
18, 76389, Note_on_c, 13, 65, 0
18, 76480, Note_on_c, 13, 60, 38
18, 76480, Note_on_c, 13, 65, 46
18, 76480, Note_on_c, 13, 69, 51
18, 76541, Note_on_c, 13, 69, 0
18, 76542, Note_on_c, 13, 60, 0
18, 76547, Note_on_c, 13, 65, 0
18, 76640, Note_on_c, 13, 60, 39
18, 76640, Note_on_c, 13, 65, 47
18, 76640, Note_on_c, 13, 69, 46
18, 76696, Note_on_c, 13, 60, 0
18, 76716, Note_on_c, 13, 65, 0
18, 76722, Note_on_c, 13, 69, 0
18, 76800, Note_on_c, 13, 60, 44
18, 76800, Note_on_c, 13, 67, 58
18, 76960, Note_on_c, 13, 67, 0
18, 76960, Note_on_c, 13, 64, 54
18, 76960, Note_on_c, 13, 67, 46
18, 76960, Note_on_c, 13, 72, 62
18, 76968, Note_on_c, 13, 60, 0
18, 77021, Note_on_c, 13, 67, 0
18, 77027, Note_on_c, 13, 64, 0
18, 77032, Note_on_c, 13, 72, 0
18, 77120, Note_on_c, 13, 64, 44
18, 77120, Note_on_c, 13, 67, 39
18, 77120, Note_on_c, 13, 72, 46
18, 77176, Note_on_c, 13, 72, 0
18, 77178, Note_on_c, 13, 67, 0
18, 77184, Note_on_c, 13, 64, 0
18, 77280, Note_on_c, 13, 64, 34
18, 77280, Note_on_c, 13, 67, 48
18, 77280, Note_on_c, 13, 72, 49
18, 77331, Note_on_c, 13, 64, 0
18, 77341, Note_on_c, 13, 72, 0
18, 77345, Note_on_c, 13, 67, 0
18, 77440, Note_on_c, 13, 64, 42
18, 77440, Note_on_c, 13, 67, 42
18, 77440, Note_on_c, 13, 72, 51
18, 77498, Note_on_c, 13, 64, 0
18, 77500, Note_on_c, 13, 67, 0
18, 77503, Note_on_c, 13, 72, 0
18, 77600, Note_on_c, 13, 64, 48
18, 77600, Note_on_c, 13, 67, 39
18, 77600, Note_on_c, 13, 72, 50
18, 77659, Note_on_c, 13, 64, 0
18, 77661, Note_on_c, 13, 67, 0
18, 77665, Note_on_c, 13, 72, 0
18, 77760, Note_on_c, 13, 64, 44
18, 77760, Note_on_c, 13, 67, 29
18, 77760, Note_on_c, 13, 72, 43
18, 77811, Note_on_c, 13, 67, 0
18, 77816, Note_on_c, 13, 64, 0
18, 77822, Note_on_c, 13, 72, 0
18, 77920, Note_on_c, 13, 64, 48
18, 77920, Note_on_c, 13, 67, 46
18, 77920, Note_on_c, 13, 72, 40
18, 77971, Note_on_c, 13, 72, 0
18, 77979, Note_on_c, 13, 64, 0
18, 77982, Note_on_c, 13, 67, 0
18, 78080, Note_on_c, 13, 64, 46
18, 78080, Note_on_c, 13, 67, 43
18, 78080, Note_on_c, 13, 72, 49
18, 78142, Note_on_c, 13, 72, 0
18, 78144, Note_on_c, 13, 64, 0
18, 78145, Note_on_c, 13, 67, 0
18, 78240, Note_on_c, 13, 64, 46
18, 78240, Note_on_c, 13, 67, 38
18, 78240, Note_on_c, 13, 72, 45
18, 78303, Note_on_c, 13, 67, 0
18, 78305, Note_on_c, 13, 64, 0
18, 78315, Note_on_c, 13, 72, 0
18, 78400, Note_on_c, 13, 64, 47
18, 78400, Note_on_c, 13, 67, 49
18, 78400, Note_on_c, 13, 72, 51
18, 78459, Note_on_c, 13, 64, 0
18, 78463, Note_on_c, 13, 72, 0
18, 78466, Note_on_c, 13, 67, 0
18, 78560, Note_on_c, 13, 64, 48
18, 78560, Note_on_c, 13, 67, 39
18, 78560, Note_on_c, 13, 72, 51
18, 78619, Note_on_c, 13, 64, 0
18, 78622, Note_on_c, 13, 72, 0
18, 78634, Note_on_c, 13, 67, 0
18, 78720, Note_on_c, 13, 62, 39
18, 78720, Note_on_c, 13, 69, 56
18, 78720, Note_on_c, 13, 72, 51
18, 78778, Note_on_c, 13, 62, 0
18, 78781, Note_on_c, 13, 69, 0
18, 78787, Note_on_c, 13, 72, 0
18, 78880, Note_on_c, 13, 62, 38
18, 78880, Note_on_c, 13, 69, 51
18, 78880, Note_on_c, 13, 72, 43
18, 78939, Note_on_c, 13, 69, 0
18, 78939, Note_on_c, 13, 62, 0
18, 78944, Note_on_c, 13, 72, 0
18, 79040, Note_on_c, 13, 62, 34
18, 79040, Note_on_c, 13, 69, 36
18, 79040, Note_on_c, 13, 72, 43
18, 79092, Note_on_c, 13, 62, 0
18, 79101, Note_on_c, 13, 72, 0
18, 79104, Note_on_c, 13, 69, 0
18, 79200, Note_on_c, 13, 62, 36
18, 79200, Note_on_c, 13, 69, 42
18, 79200, Note_on_c, 13, 72, 43
18, 79256, Note_on_c, 13, 62, 0
18, 79261, Note_on_c, 13, 69, 0
18, 79262, Note_on_c, 13, 72, 0
18, 79360, Note_on_c, 13, 62, 39
18, 79360, Note_on_c, 13, 69, 40
18, 79360, Note_on_c, 13, 72, 42
18, 79414, Note_on_c, 13, 69, 0
18, 79417, Note_on_c, 13, 72, 0
18, 79423, Note_on_c, 13, 62, 0
18, 79520, Note_on_c, 13, 62, 40
18, 79520, Note_on_c, 13, 69, 40
18, 79520, Note_on_c, 13, 72, 45
18, 79573, Note_on_c, 13, 69, 0
18, 79578, Note_on_c, 13, 62, 0
18, 79581, Note_on_c, 13, 72, 0
18, 79680, Note_on_c, 13, 62, 38
18, 79680, Note_on_c, 13, 69, 46
18, 79680, Note_on_c, 13, 72, 43
18, 79735, Note_on_c, 13, 62, 0
18, 79738, Note_on_c, 13, 69, 0
18, 79744, Note_on_c, 13, 72, 0
18, 79840, Note_on_c, 13, 62, 40
18, 79840, Note_on_c, 13, 69, 39
18, 79840, Note_on_c, 13, 72, 49
18, 79892, Note_on_c, 13, 62, 0
18, 79898, Note_on_c, 13, 69, 0
18, 79907, Note_on_c, 13, 72, 0
18, 80000, Note_on_c, 13, 62, 43
18, 80000, Note_on_c, 13, 69, 40
18, 80000, Note_on_c, 13, 72, 43
18, 80054, Note_on_c, 13, 69, 0
18, 80054, Note_on_c, 13, 62, 0
18, 80059, Note_on_c, 13, 72, 0
18, 80160, Note_on_c, 13, 62, 39
18, 80160, Note_on_c, 13, 69, 38
18, 80160, Note_on_c, 13, 72, 38
18, 80213, Note_on_c, 13, 69, 0
18, 80213, Note_on_c, 13, 62, 0
18, 80219, Note_on_c, 13, 72, 0
18, 80320, Note_on_c, 13, 62, 47
18, 80320, Note_on_c, 13, 69, 40
18, 80320, Note_on_c, 13, 72, 43
18, 80376, Note_on_c, 13, 69, 0
18, 80379, Note_on_c, 13, 72, 0
18, 80379, Note_on_c, 13, 62, 0
18, 80480, Note_on_c, 13, 62, 43
18, 80480, Note_on_c, 13, 69, 40
18, 80480, Note_on_c, 13, 72, 40
18, 80532, Note_on_c, 13, 69, 0
18, 80534, Note_on_c, 13, 62, 0
18, 80540, Note_on_c, 13, 72, 0
18, 80640, Note_on_c, 13, 62, 43
18, 80640, Note_on_c, 13, 69, 43
18, 80640, Note_on_c, 13, 72, 49
18, 80695, Note_on_c, 13, 69, 0
18, 80696, Note_on_c, 13, 62, 0
18, 80709, Note_on_c, 13, 72, 0
18, 80800, Note_on_c, 13, 62, 40
18, 80800, Note_on_c, 13, 69, 30
18, 80800, Note_on_c, 13, 72, 49
18, 80849, Note_on_c, 13, 69, 0
18, 80854, Note_on_c, 13, 62, 0
18, 80863, Note_on_c, 13, 72, 0
18, 80960, Note_on_c, 13, 62, 39
18, 80960, Note_on_c, 13, 69, 40
18, 80960, Note_on_c, 13, 72, 42
18, 81012, Note_on_c, 13, 69, 0
18, 81013, Note_on_c, 13, 62, 0
18, 81022, Note_on_c, 13, 72, 0
18, 81120, Note_on_c, 13, 62, 44
18, 81120, Note_on_c, 13, 69, 36
18, 81120, Note_on_c, 13, 72, 57
18, 81174, Note_on_c, 13, 69, 0
18, 81177, Note_on_c, 13, 62, 0
18, 81186, Note_on_c, 13, 72, 0
18, 81280, Note_on_c, 13, 62, 43
18, 81280, Note_on_c, 13, 69, 48
18, 81280, Note_on_c, 13, 72, 44
18, 81336, Note_on_c, 13, 62, 0
18, 81338, Note_on_c, 13, 69, 0
18, 81341, Note_on_c, 13, 72, 0
18, 81440, Note_on_c, 13, 62, 36
18, 81440, Note_on_c, 13, 69, 41
18, 81440, Note_on_c, 13, 72, 49
18, 81485, Note_on_c, 13, 69, 0
18, 81488, Note_on_c, 13, 62, 0
18, 81500, Note_on_c, 13, 72, 0
18, 81600, Note_on_c, 13, 62, 43
18, 81600, Note_on_c, 13, 69, 46
18, 81600, Note_on_c, 13, 72, 49
18, 81646, Note_on_c, 13, 69, 0
18, 81658, Note_on_c, 13, 62, 0
18, 81662, Note_on_c, 13, 72, 0
18, 81760, Note_on_c, 13, 62, 40
18, 81760, Note_on_c, 13, 69, 40
18, 81760, Note_on_c, 13, 72, 46
18, 81813, Note_on_c, 13, 69, 0
18, 81815, Note_on_c, 13, 62, 0
18, 81825, Note_on_c, 13, 72, 0
18, 81920, Note_on_c, 13, 62, 41
18, 81920, Note_on_c, 13, 69, 43
18, 81920, Note_on_c, 13, 72, 43
18, 81972, Note_on_c, 13, 69, 0
18, 81975, Note_on_c, 13, 62, 0
18, 81981, Note_on_c, 13, 72, 0
18, 82080, Note_on_c, 13, 62, 43
18, 82080, Note_on_c, 13, 69, 54
18, 82080, Note_on_c, 13, 72, 43
18, 82141, Note_on_c, 13, 69, 0
18, 82141, Note_on_c, 13, 62, 0
18, 82143, Note_on_c, 13, 72, 0
18, 82240, Note_on_c, 13, 62, 42
18, 82240, Note_on_c, 13, 69, 55
18, 82240, Note_on_c, 13, 72, 52
18, 82286, Note_on_c, 13, 69, 0
18, 82295, Note_on_c, 13, 62, 0
18, 82303, Note_on_c, 13, 72, 0
18, 82400, Note_on_c, 13, 62, 44
18, 82400, Note_on_c, 13, 69, 44
18, 82400, Note_on_c, 13, 72, 50
18, 82444, Note_on_c, 13, 69, 0
18, 82455, Note_on_c, 13, 62, 0
18, 82463, Note_on_c, 13, 72, 0
18, 82560, Note_on_c, 13, 62, 47
18, 82560, Note_on_c, 13, 67, 40
18, 82560, Note_on_c, 13, 71, 57
18, 82608, Note_on_c, 13, 67, 0
18, 82624, Note_on_c, 13, 62, 0
18, 82720, Note_on_c, 13, 62, 54
18, 82720, Note_on_c, 13, 67, 51
18, 82775, Note_on_c, 13, 67, 0
18, 82788, Note_on_c, 13, 62, 0
18, 82880, Note_on_c, 13, 62, 54
18, 82880, Note_on_c, 13, 67, 48
18, 82933, Note_on_c, 13, 67, 0
18, 82942, Note_on_c, 13, 62, 0
18, 83039, Note_on_c, 13, 71, 0
18, 83040, Note_on_c, 13, 59, 58
18, 83040, Note_on_c, 13, 50, 48
18, 83040, Note_on_c, 13, 67, 46
18, 83040, Note_on_c, 13, 79, 59
18, 83089, Note_on_c, 13, 67, 0
18, 83100, Note_on_c, 13, 59, 0
18, 83101, Note_on_c, 13, 50, 0
18, 83200, Note_on_c, 13, 59, 55
18, 83200, Note_on_c, 13, 50, 44
18, 83200, Note_on_c, 13, 67, 49
18, 83246, Note_on_c, 13, 67, 0
18, 83259, Note_on_c, 13, 50, 0
18, 83263, Note_on_c, 13, 59, 0
18, 83360, Note_on_c, 13, 59, 63
18, 83360, Note_on_c, 13, 50, 51
18, 83360, Note_on_c, 13, 67, 51
18, 83415, Note_on_c, 13, 67, 0
18, 83425, Note_on_c, 13, 59, 0
18, 83427, Note_on_c, 13, 50, 0
18, 83520, Note_on_c, 13, 60, 62
18, 83520, Note_on_c, 13, 48, 53
18, 83520, Note_on_c, 13, 63, 52
18, 83520, Note_on_c, 13, 75, 70
18, 83561, Note_on_c, 13, 79, 0
18, 83579, Note_on_c, 13, 48, 0
18, 83580, Note_on_c, 13, 63, 0
18, 83582, Note_on_c, 13, 60, 0
18, 83680, Note_on_c, 13, 48, 56
18, 83680, Note_on_c, 13, 60, 61
18, 83680, Note_on_c, 13, 63, 51
18, 83732, Note_on_c, 13, 60, 0
18, 83734, Note_on_c, 13, 48, 0
18, 83737, Note_on_c, 13, 63, 0
18, 83840, Note_on_c, 13, 60, 71
18, 83840, Note_on_c, 13, 48, 43
18, 83840, Note_on_c, 13, 63, 56
18, 83889, Note_on_c, 13, 48, 0
18, 83893, Note_on_c, 13, 60, 0
18, 83899, Note_on_c, 13, 63, 0
18, 84000, Note_on_c, 13, 51, 51
18, 84000, Note_on_c, 13, 55, 59
18, 84000, Note_on_c, 13, 60, 52
18, 84000, Note_on_c, 13, 72, 71
18, 84024, Note_on_c, 13, 75, 0
18, 84051, Note_on_c, 13, 55, 0
18, 84055, Note_on_c, 13, 60, 0
18, 84067, Note_on_c, 13, 51, 0
18, 84160, Note_on_c, 13, 51, 49
18, 84160, Note_on_c, 13, 55, 51
18, 84160, Note_on_c, 13, 60, 49
18, 84211, Note_on_c, 13, 55, 0
18, 84215, Note_on_c, 13, 60, 0
18, 84215, Note_on_c, 13, 51, 0
18, 84320, Note_on_c, 13, 51, 59
18, 84320, Note_on_c, 13, 55, 55
18, 84320, Note_on_c, 13, 60, 45
18, 84371, Note_on_c, 13, 60, 0
18, 84385, Note_on_c, 13, 55, 0
18, 84389, Note_on_c, 13, 51, 0
18, 84480, Note_on_c, 13, 53, 54
18, 84480, Note_on_c, 13, 50, 52
18, 84480, Note_on_c, 13, 60, 51
18, 84480, Note_on_c, 13, 80, 76
18, 84504, Note_on_c, 13, 72, 0
18, 84539, Note_on_c, 13, 60, 0
18, 84541, Note_on_c, 13, 50, 0
18, 84549, Note_on_c, 13, 53, 0
18, 84640, Note_on_c, 13, 53, 58
18, 84640, Note_on_c, 13, 50, 51
18, 84640, Note_on_c, 13, 60, 49
18, 84692, Note_on_c, 13, 60, 0
18, 84703, Note_on_c, 13, 50, 0
18, 84709, Note_on_c, 13, 53, 0
18, 84800, Note_on_c, 13, 50, 44
18, 84800, Note_on_c, 13, 53, 57
18, 84800, Note_on_c, 13, 60, 51
18, 84855, Note_on_c, 13, 60, 0
18, 84857, Note_on_c, 13, 50, 0
18, 84865, Note_on_c, 13, 53, 0
18, 84960, Note_on_c, 13, 53, 56
18, 84960, Note_on_c, 13, 50, 45
18, 84960, Note_on_c, 13, 59, 62
18, 85018, Note_on_c, 13, 50, 0
18, 85023, Note_on_c, 13, 59, 0
18, 85024, Note_on_c, 13, 53, 0
18, 85120, Note_on_c, 13, 53, 48
18, 85120, Note_on_c, 13, 50, 32
18, 85120, Note_on_c, 13, 59, 58
18, 85162, Note_on_c, 13, 50, 0
18, 85184, Note_on_c, 13, 53, 0
18, 85189, Note_on_c, 13, 59, 0
18, 85280, Note_on_c, 13, 50, 36
18, 85280, Note_on_c, 13, 53, 48
18, 85280, Note_on_c, 13, 59, 46
18, 85326, Note_on_c, 13, 50, 0
18, 85336, Note_on_c, 13, 53, 0
18, 85341, Note_on_c, 13, 59, 0
18, 85440, Note_on_c, 13, 59, 58
18, 85440, Note_on_c, 13, 53, 44
18, 85440, Note_on_c, 13, 62, 55
18, 85498, Note_on_c, 13, 59, 0
18, 85500, Note_on_c, 13, 62, 0
18, 85502, Note_on_c, 13, 53, 0
18, 85600, Note_on_c, 13, 59, 56
18, 85600, Note_on_c, 13, 53, 48
18, 85600, Note_on_c, 13, 62, 46
18, 85655, Note_on_c, 13, 62, 0
18, 85658, Note_on_c, 13, 59, 0
18, 85664, Note_on_c, 13, 53, 0
18, 85760, Note_on_c, 13, 53, 38
18, 85760, Note_on_c, 13, 59, 56
18, 85760, Note_on_c, 13, 62, 52
18, 85818, Note_on_c, 13, 59, 0
18, 85825, Note_on_c, 13, 62, 0
18, 85826, Note_on_c, 13, 53, 0
18, 85920, Note_on_c, 13, 53, 44
18, 85920, Note_on_c, 13, 59, 53
18, 85920, Note_on_c, 13, 62, 51
18, 85920, Note_on_c, 13, 74, 56
18, 85976, Note_on_c, 13, 53, 0
18, 85977, Note_on_c, 13, 80, 0
18, 85977, Note_on_c, 13, 59, 0
18, 85980, Note_on_c, 13, 62, 0
18, 86080, Note_on_c, 13, 59, 56
18, 86080, Note_on_c, 13, 53, 43
18, 86080, Note_on_c, 13, 62, 48
18, 86135, Note_on_c, 13, 62, 0
18, 86136, Note_on_c, 13, 59, 0
18, 86141, Note_on_c, 13, 53, 0
18, 86240, Note_on_c, 13, 53, 43
18, 86240, Note_on_c, 13, 59, 61
18, 86240, Note_on_c, 13, 62, 44
18, 86291, Note_on_c, 13, 59, 0
18, 86298, Note_on_c, 13, 53, 0
18, 86303, Note_on_c, 13, 62, 0
18, 86400, Note_on_c, 13, 51, 54
18, 86400, Note_on_c, 13, 55, 54
18, 86400, Note_on_c, 13, 62, 49
18, 86400, Note_on_c, 13, 79, 71
18, 86406, Note_on_c, 13, 74, 0
18, 86459, Note_on_c, 13, 51, 0
18, 86459, Note_on_c, 13, 55, 0
18, 86462, Note_on_c, 13, 62, 0
18, 86560, Note_on_c, 13, 51, 54
18, 86560, Note_on_c, 13, 55, 55
18, 86560, Note_on_c, 13, 62, 49
18, 86618, Note_on_c, 13, 62, 0
18, 86621, Note_on_c, 13, 51, 0
18, 86626, Note_on_c, 13, 55, 0
18, 86720, Note_on_c, 13, 51, 50
18, 86720, Note_on_c, 13, 55, 53
18, 86720, Note_on_c, 13, 62, 54
18, 86777, Note_on_c, 13, 55, 0
18, 86779, Note_on_c, 13, 51, 0
18, 86786, Note_on_c, 13, 62, 0
18, 86880, Note_on_c, 13, 51, 48
18, 86880, Note_on_c, 13, 55, 56
18, 86880, Note_on_c, 13, 60, 51
18, 86940, Note_on_c, 13, 55, 0
18, 86945, Note_on_c, 13, 51, 0
18, 86947, Note_on_c, 13, 60, 0
18, 87040, Note_on_c, 13, 51, 50
18, 87040, Note_on_c, 13, 55, 54
18, 87040, Note_on_c, 13, 60, 49
18, 87090, Note_on_c, 13, 51, 0
18, 87097, Note_on_c, 13, 60, 0
18, 87098, Note_on_c, 13, 55, 0
18, 87200, Note_on_c, 13, 55, 49
18, 87200, Note_on_c, 13, 51, 51
18, 87200, Note_on_c, 13, 60, 49
18, 87256, Note_on_c, 13, 51, 0
18, 87262, Note_on_c, 13, 60, 0
18, 87263, Note_on_c, 13, 55, 0
18, 87360, Note_on_c, 13, 55, 52
18, 87360, Note_on_c, 13, 48, 47
18, 87360, Note_on_c, 13, 63, 53
18, 87425, Note_on_c, 13, 63, 0
18, 87426, Note_on_c, 13, 48, 0
18, 87433, Note_on_c, 13, 55, 0
18, 87520, Note_on_c, 13, 55, 52
18, 87520, Note_on_c, 13, 48, 48
18, 87520, Note_on_c, 13, 63, 49
18, 87582, Note_on_c, 13, 48, 0
18, 87585, Note_on_c, 13, 63, 0
18, 87588, Note_on_c, 13, 55, 0
18, 87680, Note_on_c, 13, 55, 54
18, 87680, Note_on_c, 13, 48, 43
18, 87680, Note_on_c, 13, 63, 51
18, 87742, Note_on_c, 13, 48, 0
18, 87745, Note_on_c, 13, 63, 0
18, 87747, Note_on_c, 13, 55, 0
18, 87840, Note_on_c, 13, 48, 43
18, 87840, Note_on_c, 13, 55, 53
18, 87840, Note_on_c, 13, 63, 56
18, 87840, Note_on_c, 13, 72, 59
18, 87864, Note_on_c, 13, 79, 0
18, 87900, Note_on_c, 13, 63, 0
18, 87902, Note_on_c, 13, 48, 0
18, 87903, Note_on_c, 13, 55, 0
18, 88000, Note_on_c, 13, 48, 50
18, 88000, Note_on_c, 13, 55, 48
18, 88000, Note_on_c, 13, 63, 54
18, 88058, Note_on_c, 13, 55, 0
18, 88061, Note_on_c, 13, 63, 0
18, 88062, Note_on_c, 13, 48, 0
18, 88160, Note_on_c, 13, 48, 51
18, 88160, Note_on_c, 13, 55, 47
18, 88160, Note_on_c, 13, 63, 50
18, 88207, Note_on_c, 13, 48, 0
18, 88214, Note_on_c, 13, 63, 0
18, 88218, Note_on_c, 13, 55, 0
18, 88320, Note_on_c, 13, 56, 53
18, 88320, Note_on_c, 13, 59, 50
18, 88320, Note_on_c, 13, 63, 53
18, 88320, Note_on_c, 13, 77, 76
18, 88352, Note_on_c, 13, 72, 0
18, 88377, Note_on_c, 13, 59, 0
18, 88380, Note_on_c, 13, 56, 0
18, 88384, Note_on_c, 13, 63, 0
18, 88480, Note_on_c, 13, 59, 48
18, 88480, Note_on_c, 13, 56, 48
18, 88480, Note_on_c, 13, 63, 52
18, 88539, Note_on_c, 13, 56, 0
18, 88539, Note_on_c, 13, 59, 0
18, 88546, Note_on_c, 13, 63, 0
18, 88640, Note_on_c, 13, 56, 46
18, 88640, Note_on_c, 13, 59, 54
18, 88640, Note_on_c, 13, 63, 52
18, 88696, Note_on_c, 13, 59, 0
18, 88701, Note_on_c, 13, 56, 0
18, 88708, Note_on_c, 13, 63, 0
18, 88800, Note_on_c, 13, 56, 46
18, 88800, Note_on_c, 13, 59, 55
18, 88800, Note_on_c, 13, 62, 47
18, 88854, Note_on_c, 13, 59, 0
18, 88862, Note_on_c, 13, 56, 0
18, 88868, Note_on_c, 13, 62, 0
18, 88960, Note_on_c, 13, 56, 46
18, 88960, Note_on_c, 13, 59, 53
18, 88960, Note_on_c, 13, 62, 44
18, 89010, Note_on_c, 13, 59, 0
18, 89013, Note_on_c, 13, 56, 0
18, 89020, Note_on_c, 13, 62, 0
18, 89120, Note_on_c, 13, 56, 45
18, 89120, Note_on_c, 13, 59, 55
18, 89120, Note_on_c, 13, 62, 48
18, 89173, Note_on_c, 13, 59, 0
18, 89179, Note_on_c, 13, 56, 0
18, 89186, Note_on_c, 13, 62, 0
18, 89280, Note_on_c, 13, 59, 54
18, 89280, Note_on_c, 13, 55, 49
18, 89280, Note_on_c, 13, 65, 55
18, 89338, Note_on_c, 13, 59, 0
18, 89341, Note_on_c, 13, 65, 0
18, 89344, Note_on_c, 13, 55, 0
18, 89440, Note_on_c, 13, 59, 53
18, 89440, Note_on_c, 13, 55, 40
18, 89440, Note_on_c, 13, 65, 56
18, 89499, Note_on_c, 13, 55, 0
18, 89499, Note_on_c, 13, 59, 0
18, 89504, Note_on_c, 13, 65, 0
18, 89600, Note_on_c, 13, 59, 56
18, 89600, Note_on_c, 13, 55, 43
18, 89600, Note_on_c, 13, 65, 56
18, 89661, Note_on_c, 13, 59, 0
18, 89663, Note_on_c, 13, 65, 0
18, 89667, Note_on_c, 13, 55, 0
18, 89718, Note_on_c, 13, 77, 0
18, 89760, Note_on_c, 13, 55, 46
18, 89760, Note_on_c, 13, 62, 59
18, 89760, Note_on_c, 13, 65, 56
18, 89760, Note_on_c, 13, 71, 53
18, 89818, Note_on_c, 13, 62, 0
18, 89829, Note_on_c, 13, 55, 0
18, 89830, Note_on_c, 13, 65, 0
18, 89920, Note_on_c, 13, 55, 47
18, 89920, Note_on_c, 13, 62, 55
18, 89920, Note_on_c, 13, 65, 52
18, 89975, Note_on_c, 13, 62, 0
18, 89976, Note_on_c, 13, 65, 0
18, 89982, Note_on_c, 13, 55, 0
18, 90080, Note_on_c, 13, 62, 52
18, 90080, Note_on_c, 13, 55, 46
18, 90080, Note_on_c, 13, 65, 56
18, 90140, Note_on_c, 13, 62, 0
18, 90141, Note_on_c, 13, 65, 0
18, 90147, Note_on_c, 13, 55, 0
18, 90240, Note_on_c, 13, 60, 49
18, 90240, Note_on_c, 13, 54, 45
18, 90240, Note_on_c, 13, 65, 59
18, 90240, Note_on_c, 13, 75, 61
18, 90272, Note_on_c, 13, 71, 0
18, 90300, Note_on_c, 13, 60, 0
18, 90300, Note_on_c, 13, 54, 0
18, 90302, Note_on_c, 13, 65, 0
18, 90400, Note_on_c, 13, 54, 52
18, 90400, Note_on_c, 13, 60, 46
18, 90400, Note_on_c, 13, 65, 57
18, 90455, Note_on_c, 13, 65, 0
18, 90456, Note_on_c, 13, 60, 0
18, 90460, Note_on_c, 13, 54, 0
18, 90560, Note_on_c, 13, 54, 51
18, 90560, Note_on_c, 13, 60, 55
18, 90560, Note_on_c, 13, 65, 56
18, 90614, Note_on_c, 13, 60, 0
18, 90618, Note_on_c, 13, 54, 0
18, 90628, Note_on_c, 13, 65, 0
18, 90720, Note_on_c, 13, 60, 56
18, 90720, Note_on_c, 13, 54, 43
18, 90720, Note_on_c, 13, 63, 56
18, 90768, Note_on_c, 13, 54, 0
18, 90777, Note_on_c, 13, 60, 0
18, 90788, Note_on_c, 13, 63, 0
18, 90880, Note_on_c, 13, 54, 55
18, 90880, Note_on_c, 13, 60, 52
18, 90880, Note_on_c, 13, 63, 54
18, 90937, Note_on_c, 13, 60, 0
18, 90946, Note_on_c, 13, 54, 0
18, 90952, Note_on_c, 13, 63, 0
18, 91040, Note_on_c, 13, 54, 60
18, 91040, Note_on_c, 13, 60, 56
18, 91040, Note_on_c, 13, 63, 56
18, 91102, Note_on_c, 13, 60, 0
18, 91112, Note_on_c, 13, 54, 0
18, 91125, Note_on_c, 13, 63, 0
18, 91200, Note_on_c, 13, 60, 52
18, 91200, Note_on_c, 13, 57, 42
18, 91200, Note_on_c, 13, 66, 56
18, 91254, Note_on_c, 13, 57, 0
18, 91255, Note_on_c, 13, 60, 0
18, 91261, Note_on_c, 13, 66, 0
18, 91360, Note_on_c, 13, 60, 56
18, 91360, Note_on_c, 13, 57, 43
18, 91360, Note_on_c, 13, 66, 56
18, 91412, Note_on_c, 13, 57, 0
18, 91421, Note_on_c, 13, 60, 0
18, 91427, Note_on_c, 13, 66, 0
18, 91520, Note_on_c, 13, 57, 47
18, 91520, Note_on_c, 13, 60, 59
18, 91520, Note_on_c, 13, 66, 56
18, 91567, Note_on_c, 13, 57, 0
18, 91569, Note_on_c, 13, 60, 0
18, 91591, Note_on_c, 13, 66, 0
18, 91680, Note_on_c, 13, 60, 46
18, 91680, Note_on_c, 13, 63, 59
18, 91680, Note_on_c, 13, 66, 59
18, 91680, Note_on_c, 13, 69, 68
18, 91682, Note_on_c, 13, 75, 0
18, 91736, Note_on_c, 13, 63, 0
18, 91743, Note_on_c, 13, 60, 0
18, 91746, Note_on_c, 13, 66, 0
18, 91840, Note_on_c, 13, 60, 46
18, 91840, Note_on_c, 13, 63, 58
18, 91840, Note_on_c, 13, 66, 56
18, 91899, Note_on_c, 13, 63, 0
18, 91904, Note_on_c, 13, 60, 0
18, 91908, Note_on_c, 13, 66, 0
18, 92000, Note_on_c, 13, 63, 55
18, 92000, Note_on_c, 13, 60, 48
18, 92000, Note_on_c, 13, 66, 55
18, 92054, Note_on_c, 13, 60, 0
18, 92063, Note_on_c, 13, 63, 0
18, 92068, Note_on_c, 13, 66, 0
18, 92160, Note_on_c, 13, 62, 54
18, 92160, Note_on_c, 13, 60, 48
18, 92160, Note_on_c, 13, 67, 57
18, 92160, Note_on_c, 13, 74, 68
18, 92184, Note_on_c, 13, 69, 0
18, 92218, Note_on_c, 13, 62, 0
18, 92224, Note_on_c, 13, 60, 0
18, 92231, Note_on_c, 13, 67, 0
18, 92320, Note_on_c, 13, 60, 51
18, 92320, Note_on_c, 13, 62, 50
18, 92320, Note_on_c, 13, 67, 59
18, 92374, Note_on_c, 13, 62, 0
18, 92381, Note_on_c, 13, 60, 0
18, 92385, Note_on_c, 13, 67, 0
18, 92480, Note_on_c, 13, 62, 45
18, 92480, Note_on_c, 13, 60, 44
18, 92480, Note_on_c, 13, 67, 55
18, 92534, Note_on_c, 13, 62, 0
18, 92536, Note_on_c, 13, 60, 0
18, 92549, Note_on_c, 13, 67, 0
18, 92640, Note_on_c, 13, 60, 40
18, 92640, Note_on_c, 13, 62, 51
18, 92640, Note_on_c, 13, 68, 56
18, 92692, Note_on_c, 13, 62, 0
18, 92697, Note_on_c, 13, 60, 0
18, 92711, Note_on_c, 13, 68, 0
18, 92800, Note_on_c, 13, 60, 47
18, 92800, Note_on_c, 13, 62, 50
18, 92800, Note_on_c, 13, 68, 59
18, 92853, Note_on_c, 13, 60, 0
18, 92857, Note_on_c, 13, 62, 0
18, 92864, Note_on_c, 13, 68, 0
18, 92960, Note_on_c, 13, 60, 48
18, 92960, Note_on_c, 13, 62, 51
18, 92960, Note_on_c, 13, 68, 59
18, 93005, Note_on_c, 13, 62, 0
18, 93010, Note_on_c, 13, 60, 0
18, 93024, Note_on_c, 13, 68, 0
18, 93120, Note_on_c, 13, 62, 55
18, 93120, Note_on_c, 13, 59, 50
18, 93120, Note_on_c, 13, 67, 58
18, 93174, Note_on_c, 13, 59, 0
18, 93179, Note_on_c, 13, 62, 0
18, 93181, Note_on_c, 13, 67, 0
18, 93280, Note_on_c, 13, 59, 52
18, 93280, Note_on_c, 13, 62, 59
18, 93280, Note_on_c, 13, 67, 54
18, 93335, Note_on_c, 13, 67, 0
18, 93336, Note_on_c, 13, 62, 0
18, 93337, Note_on_c, 13, 59, 0
18, 93440, Note_on_c, 13, 59, 52
18, 93440, Note_on_c, 13, 62, 52
18, 93440, Note_on_c, 13, 67, 49
18, 93486, Note_on_c, 13, 62, 0
18, 93489, Note_on_c, 13, 59, 0
18, 93504, Note_on_c, 13, 67, 0
18, 93600, Note_on_c, 13, 55, 49
18, 93600, Note_on_c, 13, 59, 59
18, 93600, Note_on_c, 13, 62, 52
18, 93600, Note_on_c, 13, 67, 62
18, 93611, Note_on_c, 13, 74, 0
18, 93658, Note_on_c, 13, 59, 0
18, 93665, Note_on_c, 13, 55, 0
18, 93668, Note_on_c, 13, 62, 0
18, 93760, Note_on_c, 13, 59, 56
18, 93760, Note_on_c, 13, 55, 42
18, 93760, Note_on_c, 13, 62, 55
18, 93820, Note_on_c, 13, 55, 0
18, 93821, Note_on_c, 13, 59, 0
18, 93826, Note_on_c, 13, 62, 0
18, 93920, Note_on_c, 13, 55, 45
18, 93920, Note_on_c, 13, 59, 69
18, 93920, Note_on_c, 13, 62, 57
18, 93978, Note_on_c, 13, 59, 0
18, 93981, Note_on_c, 13, 55, 0
18, 93982, Note_on_c, 13, 62, 0
18, 94080, Note_on_c, 13, 60, 48
18, 94080, Note_on_c, 13, 55, 37
18, 94080, Note_on_c, 13, 67, 51
18, 94080, Note_on_c, 13, 72, 64
18, 94110, Note_on_c, 13, 67, 0
18, 94536, Note_on_c, 13, 55, 0
18, 94539, Note_on_c, 13, 60, 0
18, 94559, Note_on_c, 13, 67, 0
18, 95040, Note_on_c, 13, 71, 71
18, 95051, Note_on_c, 13, 72, 0
18, 95280, Note_on_c, 13, 69, 68
18, 95286, Note_on_c, 13, 71, 0
18, 95520, Note_on_c, 13, 67, 60
18, 95526, Note_on_c, 13, 69, 0
18, 95760, Note_on_c, 13, 65, 60
18, 95783, Note_on_c, 13, 67, 0
18, 96000, Note_on_c, 13, 64, 68
18, 96013, Note_on_c, 13, 65, 0
18, 96480, Note_on_c, 13, 62, 64
18, 96494, Note_on_c, 13, 64, 0
18, 97440, Note_on_c, 13, 67, 68
18, 97442, Note_on_c, 13, 62, 0
18, 97920, Note_on_c, 13, 65, 61
18, 97930, Note_on_c, 13, 67, 0
18, 98400, Note_on_c, 13, 64, 68
18, 98461, Note_on_c, 13, 65, 0
18, 98897, Note_on_c, 13, 64, 0
18, 99840, Note_on_c, 13, 72, 76
18, 100784, Note_on_c, 13, 72, 0
18, 100800, Note_on_c, 13, 71, 80
18, 101040, Note_on_c, 13, 69, 76
18, 101056, Note_on_c, 13, 71, 0
18, 101280, Note_on_c, 13, 67, 71
18, 101293, Note_on_c, 13, 69, 0
18, 101520, Note_on_c, 13, 65, 68
18, 101523, Note_on_c, 13, 67, 0
18, 101760, Note_on_c, 13, 64, 68
18, 101783, Note_on_c, 13, 65, 0
18, 102240, Note_on_c, 13, 62, 64
18, 102254, Note_on_c, 13, 64, 0
18, 103200, Note_on_c, 13, 67, 68
18, 103202, Note_on_c, 13, 62, 0
18, 103680, Note_on_c, 13, 52, 53
18, 103680, Note_on_c, 13, 55, 54
18, 103680, Note_on_c, 13, 60, 54
18, 103690, Note_on_c, 13, 67, 0
18, 104122, Note_on_c, 13, 52, 0
18, 104127, Note_on_c, 13, 55, 0
18, 104130, Note_on_c, 13, 60, 0
18, 104130, End_track
19, 0, Start_track
19, 0, MIDI_port, 0
19, 0, Title_t, "Pizz Strings"
19, 0, Program_c, 14, 45
19, 0, Control_c, 14, 7, 105
19, 0, Control_c, 14, 10, 80
19, 0, Pitch_bend_c, 14, 8192
19, 0, Control_c, 14, 93, 0
19, 0, Control_c, 14, 64, 0
19, 0, Control_c, 14, 91, 125
19, 42240, Note_on_c, 14, 41, 47
19, 42240, Note_on_c, 14, 53, 47
19, 42240, Note_on_c, 14, 65, 47
19, 42480, Note_on_c, 14, 65, 0
19, 42480, Note_on_c, 14, 53, 0
19, 42480, Note_on_c, 14, 41, 0
19, 42720, Note_on_c, 14, 45, 51
19, 42720, Note_on_c, 14, 57, 51
19, 42720, Note_on_c, 14, 69, 51
19, 42960, Note_on_c, 14, 69, 0
19, 42960, Note_on_c, 14, 57, 0
19, 42960, Note_on_c, 14, 45, 0
19, 43200, Note_on_c, 14, 48, 47
19, 43200, Note_on_c, 14, 60, 47
19, 43200, Note_on_c, 14, 72, 47
19, 43440, Note_on_c, 14, 72, 0
19, 43440, Note_on_c, 14, 60, 0
19, 43440, Note_on_c, 14, 48, 0
19, 44160, Note_on_c, 14, 41, 45
19, 44160, Note_on_c, 14, 53, 45
19, 44160, Note_on_c, 14, 65, 45
19, 44400, Note_on_c, 14, 65, 0
19, 44400, Note_on_c, 14, 53, 0
19, 44400, Note_on_c, 14, 41, 0
19, 44640, Note_on_c, 14, 45, 59
19, 44640, Note_on_c, 14, 57, 59
19, 44640, Note_on_c, 14, 69, 59
19, 44880, Note_on_c, 14, 69, 0
19, 44880, Note_on_c, 14, 57, 0
19, 44880, Note_on_c, 14, 45, 0
19, 45120, Note_on_c, 14, 48, 51
19, 45120, Note_on_c, 14, 60, 51
19, 45120, Note_on_c, 14, 72, 51
19, 45360, Note_on_c, 14, 72, 0
19, 45360, Note_on_c, 14, 60, 0
19, 45360, Note_on_c, 14, 48, 0
19, 46080, Note_on_c, 14, 41, 46
19, 46080, Note_on_c, 14, 53, 46
19, 46080, Note_on_c, 14, 65, 46
19, 46320, Note_on_c, 14, 65, 0
19, 46320, Note_on_c, 14, 53, 0
19, 46320, Note_on_c, 14, 41, 0
19, 46560, Note_on_c, 14, 45, 58
19, 46560, Note_on_c, 14, 57, 58
19, 46560, Note_on_c, 14, 69, 58
19, 46800, Note_on_c, 14, 69, 0
19, 46800, Note_on_c, 14, 57, 0
19, 46800, Note_on_c, 14, 45, 0
19, 47040, Note_on_c, 14, 48, 59
19, 47040, Note_on_c, 14, 60, 59
19, 47040, Note_on_c, 14, 72, 59
19, 47280, Note_on_c, 14, 72, 0
19, 47280, Note_on_c, 14, 60, 0
19, 47280, Note_on_c, 14, 48, 0
19, 47520, Note_on_c, 14, 41, 54
19, 47520, Note_on_c, 14, 53, 54
19, 47520, Note_on_c, 14, 65, 54
19, 47760, Note_on_c, 14, 65, 0
19, 47760, Note_on_c, 14, 53, 0
19, 47760, Note_on_c, 14, 41, 0
19, 48000, Note_on_c, 14, 36, 59
19, 48000, Note_on_c, 14, 48, 59
19, 48000, Note_on_c, 14, 60, 59
19, 48240, Note_on_c, 14, 60, 0
19, 48240, Note_on_c, 14, 48, 0
19, 48240, Note_on_c, 14, 36, 0
19, 48480, Note_on_c, 14, 40, 52
19, 48480, Note_on_c, 14, 52, 52
19, 48480, Note_on_c, 14, 64, 52
19, 48720, Note_on_c, 14, 64, 0
19, 48720, Note_on_c, 14, 52, 0
19, 48720, Note_on_c, 14, 40, 0
19, 48960, Note_on_c, 14, 43, 64
19, 48960, Note_on_c, 14, 55, 64
19, 48960, Note_on_c, 14, 67, 64
19, 49200, Note_on_c, 14, 67, 0
19, 49200, Note_on_c, 14, 55, 0
19, 49200, Note_on_c, 14, 43, 0
19, 49920, Note_on_c, 14, 36, 54
19, 49920, Note_on_c, 14, 48, 54
19, 49920, Note_on_c, 14, 60, 54
19, 50160, Note_on_c, 14, 60, 0
19, 50160, Note_on_c, 14, 48, 0
19, 50160, Note_on_c, 14, 36, 0
19, 50400, Note_on_c, 14, 40, 52
19, 50400, Note_on_c, 14, 52, 52
19, 50400, Note_on_c, 14, 64, 52
19, 50640, Note_on_c, 14, 64, 0
19, 50640, Note_on_c, 14, 52, 0
19, 50640, Note_on_c, 14, 40, 0
19, 50880, Note_on_c, 14, 43, 48
19, 50880, Note_on_c, 14, 55, 48
19, 50880, Note_on_c, 14, 67, 48
19, 51120, Note_on_c, 14, 67, 0
19, 51120, Note_on_c, 14, 55, 0
19, 51120, Note_on_c, 14, 43, 0
19, 51840, Note_on_c, 14, 36, 60
19, 51840, Note_on_c, 14, 48, 60
19, 51840, Note_on_c, 14, 60, 60
19, 52080, Note_on_c, 14, 60, 0
19, 52080, Note_on_c, 14, 48, 0
19, 52080, Note_on_c, 14, 36, 0
19, 52320, Note_on_c, 14, 40, 50
19, 52320, Note_on_c, 14, 52, 50
19, 52320, Note_on_c, 14, 64, 50
19, 52560, Note_on_c, 14, 64, 0
19, 52560, Note_on_c, 14, 52, 0
19, 52560, Note_on_c, 14, 40, 0
19, 52800, Note_on_c, 14, 43, 47
19, 52800, Note_on_c, 14, 55, 47
19, 52800, Note_on_c, 14, 67, 47
19, 53040, Note_on_c, 14, 67, 0
19, 53040, Note_on_c, 14, 55, 0
19, 53040, Note_on_c, 14, 43, 0
19, 53280, Note_on_c, 14, 36, 52
19, 53280, Note_on_c, 14, 48, 52
19, 53280, Note_on_c, 14, 60, 52
19, 53520, Note_on_c, 14, 60, 0
19, 53520, Note_on_c, 14, 48, 0
19, 53520, Note_on_c, 14, 36, 0
19, 53760, Note_on_c, 14, 41, 52
19, 53760, Note_on_c, 14, 53, 52
19, 53760, Note_on_c, 14, 65, 52
19, 54000, Note_on_c, 14, 65, 0
19, 54000, Note_on_c, 14, 53, 0
19, 54000, Note_on_c, 14, 41, 0
19, 54240, Note_on_c, 14, 45, 55
19, 54240, Note_on_c, 14, 57, 55
19, 54240, Note_on_c, 14, 69, 55
19, 54480, Note_on_c, 14, 69, 0
19, 54480, Note_on_c, 14, 57, 0
19, 54480, Note_on_c, 14, 45, 0
19, 54720, Note_on_c, 14, 48, 56
19, 54720, Note_on_c, 14, 60, 56
19, 54720, Note_on_c, 14, 72, 56
19, 54960, Note_on_c, 14, 72, 0
19, 54960, Note_on_c, 14, 60, 0
19, 54960, Note_on_c, 14, 48, 0
19, 55680, Note_on_c, 14, 33, 54
19, 55680, Note_on_c, 14, 45, 54
19, 55680, Note_on_c, 14, 57, 54
19, 55920, Note_on_c, 14, 57, 0
19, 55920, Note_on_c, 14, 45, 0
19, 55920, Note_on_c, 14, 33, 0
19, 56160, Note_on_c, 14, 36, 49
19, 56160, Note_on_c, 14, 48, 49
19, 56160, Note_on_c, 14, 60, 49
19, 56400, Note_on_c, 14, 60, 0
19, 56400, Note_on_c, 14, 48, 0
19, 56400, Note_on_c, 14, 36, 0
19, 56640, Note_on_c, 14, 41, 49
19, 56640, Note_on_c, 14, 53, 49
19, 56640, Note_on_c, 14, 65, 49
19, 56880, Note_on_c, 14, 65, 0
19, 56880, Note_on_c, 14, 53, 0
19, 56880, Note_on_c, 14, 41, 0
19, 57600, Note_on_c, 14, 34, 51
19, 57600, Note_on_c, 14, 46, 51
19, 57600, Note_on_c, 14, 58, 51
19, 57840, Note_on_c, 14, 58, 0
19, 57840, Note_on_c, 14, 46, 0
19, 57840, Note_on_c, 14, 34, 0
19, 58080, Note_on_c, 14, 38, 56
19, 58080, Note_on_c, 14, 50, 56
19, 58080, Note_on_c, 14, 62, 56
19, 58320, Note_on_c, 14, 62, 0
19, 58320, Note_on_c, 14, 50, 0
19, 58320, Note_on_c, 14, 38, 0
19, 58560, Note_on_c, 14, 41, 56
19, 58560, Note_on_c, 14, 53, 56
19, 58560, Note_on_c, 14, 65, 56
19, 58800, Note_on_c, 14, 65, 0
19, 58800, Note_on_c, 14, 53, 0
19, 58800, Note_on_c, 14, 41, 0
19, 59520, Note_on_c, 14, 35, 60
19, 59520, Note_on_c, 14, 47, 60
19, 59520, Note_on_c, 14, 59, 60
19, 59760, Note_on_c, 14, 59, 0
19, 59760, Note_on_c, 14, 47, 0
19, 59760, Note_on_c, 14, 35, 0
19, 60000, Note_on_c, 14, 38, 44
19, 60000, Note_on_c, 14, 50, 44
19, 60000, Note_on_c, 14, 62, 44
19, 60240, Note_on_c, 14, 62, 0
19, 60240, Note_on_c, 14, 50, 0
19, 60240, Note_on_c, 14, 38, 0
19, 60480, Note_on_c, 14, 41, 52
19, 60480, Note_on_c, 14, 53, 52
19, 60480, Note_on_c, 14, 65, 52
19, 60720, Note_on_c, 14, 65, 0
19, 60720, Note_on_c, 14, 53, 0
19, 60720, Note_on_c, 14, 41, 0
19, 61440, Note_on_c, 14, 36, 46
19, 61440, Note_on_c, 14, 48, 46
19, 61440, Note_on_c, 14, 60, 46
19, 61680, Note_on_c, 14, 60, 0
19, 61680, Note_on_c, 14, 48, 0
19, 61680, Note_on_c, 14, 36, 0
19, 61920, Note_on_c, 14, 41, 54
19, 61920, Note_on_c, 14, 53, 54
19, 61920, Note_on_c, 14, 65, 54
19, 62160, Note_on_c, 14, 65, 0
19, 62160, Note_on_c, 14, 53, 0
19, 62160, Note_on_c, 14, 41, 0
19, 62400, Note_on_c, 14, 45, 62
19, 62400, Note_on_c, 14, 57, 62
19, 62400, Note_on_c, 14, 69, 62
19, 62640, Note_on_c, 14, 69, 0
19, 62640, Note_on_c, 14, 57, 0
19, 62640, Note_on_c, 14, 45, 0
19, 62880, Note_on_c, 14, 48, 61
19, 62880, Note_on_c, 14, 60, 61
19, 62880, Note_on_c, 14, 72, 61
19, 63120, Note_on_c, 14, 72, 0
19, 63120, Note_on_c, 14, 60, 0
19, 63120, Note_on_c, 14, 48, 0
19, 63360, Note_on_c, 14, 46, 46
19, 63360, Note_on_c, 14, 58, 46
19, 63360, Note_on_c, 14, 70, 46
19, 63600, Note_on_c, 14, 70, 0
19, 63600, Note_on_c, 14, 58, 0
19, 63600, Note_on_c, 14, 46, 0
19, 63840, Note_on_c, 14, 43, 47
19, 63840, Note_on_c, 14, 55, 47
19, 63840, Note_on_c, 14, 67, 47
19, 64080, Note_on_c, 14, 67, 0
19, 64080, Note_on_c, 14, 55, 0
19, 64080, Note_on_c, 14, 43, 0
19, 64320, Note_on_c, 14, 48, 51
19, 64320, Note_on_c, 14, 60, 51
19, 64320, Note_on_c, 14, 72, 51
19, 64560, Note_on_c, 14, 72, 0
19, 64560, Note_on_c, 14, 60, 0
19, 64560, Note_on_c, 14, 48, 0
19, 64800, Note_on_c, 14, 36, 50
19, 64800, Note_on_c, 14, 48, 50
19, 64800, Note_on_c, 14, 60, 50
19, 65040, Note_on_c, 14, 60, 0
19, 65040, Note_on_c, 14, 48, 0
19, 65040, Note_on_c, 14, 36, 0
19, 65280, Note_on_c, 14, 65, 54
19, 65760, Note_on_c, 14, 65, 0
19, 65760, Note_on_c, 14, 45, 55
19, 65760, Note_on_c, 14, 57, 55
19, 65760, Note_on_c, 14, 69, 55
19, 66000, Note_on_c, 14, 69, 0
19, 66000, Note_on_c, 14, 57, 0
19, 66000, Note_on_c, 14, 45, 0
19, 66240, Note_on_c, 14, 48, 39
19, 66240, Note_on_c, 14, 60, 39
19, 66240, Note_on_c, 14, 72, 39
19, 66480, Note_on_c, 14, 72, 0
19, 66480, Note_on_c, 14, 60, 0
19, 66480, Note_on_c, 14, 48, 0
19, 67200, Note_on_c, 14, 40, 49
19, 67200, Note_on_c, 14, 52, 49
19, 67200, Note_on_c, 14, 64, 49
19, 67440, Note_on_c, 14, 64, 0
19, 67440, Note_on_c, 14, 52, 0
19, 67440, Note_on_c, 14, 40, 0
19, 67680, Note_on_c, 14, 43, 47
19, 67680, Note_on_c, 14, 55, 47
19, 67680, Note_on_c, 14, 67, 47
19, 67920, Note_on_c, 14, 67, 0
19, 67920, Note_on_c, 14, 55, 0
19, 67920, Note_on_c, 14, 43, 0
19, 68160, Note_on_c, 14, 45, 50
19, 68160, Note_on_c, 14, 57, 50
19, 68160, Note_on_c, 14, 69, 50
19, 68400, Note_on_c, 14, 69, 0
19, 68400, Note_on_c, 14, 57, 0
19, 68400, Note_on_c, 14, 45, 0
19, 68640, Note_on_c, 14, 33, 57
19, 68640, Note_on_c, 14, 45, 57
19, 68640, Note_on_c, 14, 57, 57
19, 68880, Note_on_c, 14, 57, 0
19, 68880, Note_on_c, 14, 45, 0
19, 68880, Note_on_c, 14, 33, 0
19, 76800, Note_on_c, 14, 40, 51
19, 77040, Note_on_c, 14, 40, 0
19, 77280, Note_on_c, 14, 43, 52
19, 77520, Note_on_c, 14, 43, 0
19, 77760, Note_on_c, 14, 48, 54
19, 78000, Note_on_c, 14, 48, 0
19, 78720, Note_on_c, 14, 41, 55
19, 78960, Note_on_c, 14, 41, 0
19, 79200, Note_on_c, 14, 45, 59
19, 79440, Note_on_c, 14, 45, 0
19, 79680, Note_on_c, 14, 50, 56
19, 79920, Note_on_c, 14, 50, 0
19, 80640, Note_on_c, 14, 42, 57
19, 80880, Note_on_c, 14, 42, 0
19, 81120, Note_on_c, 14, 45, 54
19, 81360, Note_on_c, 14, 45, 0
19, 81600, Note_on_c, 14, 50, 57
19, 81840, Note_on_c, 14, 50, 0
19, 82560, Note_on_c, 14, 43, 58
19, 83040, Note_on_c, 14, 43, 0
19, 84480, Note_on_c, 14, 43, 51
19, 84720, Note_on_c, 14, 43, 0
19, 84960, Note_on_c, 14, 50, 62
19, 85200, Note_on_c, 14, 50, 0
19, 85440, Note_on_c, 14, 53, 50
19, 85680, Note_on_c, 14, 53, 0
19, 86400, Note_on_c, 14, 43, 58
19, 86640, Note_on_c, 14, 43, 0
19, 86880, Note_on_c, 14, 51, 62
19, 87120, Note_on_c, 14, 51, 0
19, 87360, Note_on_c, 14, 55, 59
19, 87600, Note_on_c, 14, 55, 0
19, 88320, Note_on_c, 14, 43, 52
19, 88560, Note_on_c, 14, 43, 0
19, 88800, Note_on_c, 14, 47, 51
19, 89040, Note_on_c, 14, 47, 0
19, 89280, Note_on_c, 14, 50, 62
19, 89520, Note_on_c, 14, 50, 0
19, 90240, Note_on_c, 14, 43, 57
19, 90480, Note_on_c, 14, 43, 0
19, 90720, Note_on_c, 14, 48, 62
19, 90960, Note_on_c, 14, 48, 0
19, 91200, Note_on_c, 14, 51, 68
19, 91440, Note_on_c, 14, 51, 0
19, 92160, Note_on_c, 14, 43, 54
19, 92400, Note_on_c, 14, 43, 0
19, 92640, Note_on_c, 14, 50, 52
19, 92880, Note_on_c, 14, 50, 0
19, 93120, Note_on_c, 14, 53, 51
19, 93360, Note_on_c, 14, 53, 0
19, 93600, Note_on_c, 14, 41, 64
19, 93840, Note_on_c, 14, 41, 0
19, 94080, Note_on_c, 14, 40, 54
19, 94080, Note_on_c, 14, 52, 54
19, 94320, Note_on_c, 14, 52, 0
19, 94320, Note_on_c, 14, 40, 0
19, 94560, Note_on_c, 14, 48, 59
19, 94560, Note_on_c, 14, 60, 59
19, 94800, Note_on_c, 14, 60, 0
19, 94800, Note_on_c, 14, 48, 0
19, 95040, Note_on_c, 14, 41, 56
19, 95040, Note_on_c, 14, 53, 56
19, 95280, Note_on_c, 14, 53, 0
19, 95280, Note_on_c, 14, 41, 0
19, 95520, Note_on_c, 14, 50, 51
19, 95520, Note_on_c, 14, 62, 51
19, 95760, Note_on_c, 14, 62, 0
19, 95760, Note_on_c, 14, 50, 0
19, 96000, Note_on_c, 14, 43, 59
19, 96000, Note_on_c, 14, 55, 59
19, 96240, Note_on_c, 14, 55, 0
19, 96240, Note_on_c, 14, 43, 0
19, 96480, Note_on_c, 14, 41, 54
19, 96480, Note_on_c, 14, 53, 54
19, 96720, Note_on_c, 14, 53, 0
19, 96720, Note_on_c, 14, 41, 0
19, 96960, Note_on_c, 14, 43, 56
19, 96960, Note_on_c, 14, 55, 56
19, 97200, Note_on_c, 14, 55, 0
19, 97200, Note_on_c, 14, 43, 0
19, 97440, Note_on_c, 14, 43, 64
19, 97440, Note_on_c, 14, 55, 64
19, 97680, Note_on_c, 14, 55, 0
19, 97680, Note_on_c, 14, 43, 0
19, 97920, Note_on_c, 14, 44, 61
19, 97920, Note_on_c, 14, 56, 61
19, 98160, Note_on_c, 14, 56, 0
19, 98160, Note_on_c, 14, 44, 0
19, 98400, Note_on_c, 14, 45, 62
19, 98400, Note_on_c, 14, 57, 62
19, 98640, Note_on_c, 14, 57, 0
19, 98640, Note_on_c, 14, 45, 0
19, 98880, Note_on_c, 14, 43, 58
19, 98880, Note_on_c, 14, 55, 58
19, 99120, Note_on_c, 14, 55, 0
19, 99120, Note_on_c, 14, 43, 0
19, 99360, Note_on_c, 14, 41, 54
19, 99360, Note_on_c, 14, 53, 54
19, 99600, Note_on_c, 14, 53, 0
19, 99600, Note_on_c, 14, 41, 0
19, 99840, Note_on_c, 14, 40, 52
19, 99840, Note_on_c, 14, 52, 52
19, 100080, Note_on_c, 14, 52, 0
19, 100080, Note_on_c, 14, 40, 0
19, 100320, Note_on_c, 14, 36, 56
19, 100320, Note_on_c, 14, 48, 56
19, 100560, Note_on_c, 14, 48, 0
19, 100560, Note_on_c, 14, 36, 0
19, 100800, Note_on_c, 14, 41, 61
19, 100800, Note_on_c, 14, 53, 61
19, 101040, Note_on_c, 14, 53, 0
19, 101040, Note_on_c, 14, 41, 0
19, 101280, Note_on_c, 14, 38, 56
19, 101280, Note_on_c, 14, 50, 56
19, 101520, Note_on_c, 14, 50, 0
19, 101520, Note_on_c, 14, 38, 0
19, 101760, Note_on_c, 14, 43, 55
19, 101760, Note_on_c, 14, 55, 55
19, 102000, Note_on_c, 14, 55, 0
19, 102000, Note_on_c, 14, 43, 0
19, 102240, Note_on_c, 14, 41, 61
19, 102240, Note_on_c, 14, 53, 61
19, 102480, Note_on_c, 14, 53, 0
19, 102480, Note_on_c, 14, 41, 0
19, 102720, Note_on_c, 14, 43, 57
19, 102720, Note_on_c, 14, 55, 57
19, 102960, Note_on_c, 14, 55, 0
19, 102960, Note_on_c, 14, 43, 0
19, 103200, Note_on_c, 14, 31, 64
19, 103200, Note_on_c, 14, 43, 64
19, 103440, Note_on_c, 14, 43, 0
19, 103440, Note_on_c, 14, 31, 0
19, 103680, Note_on_c, 14, 36, 58
19, 103680, Note_on_c, 14, 48, 58
19, 104080, Note_on_c, 14, 48, 0
19, 104080, Note_on_c, 14, 36, 0
19, 104080, End_track
20, 0, Start_track
20, 0, MIDI_port, 0
20, 0, Title_t, "Piano Solo RH"
20, 0, Program_c, 12, 0
20, 0, Control_c, 12, 7, 120
20, 0, Control_c, 12, 10, 64
20, 0, Control_c, 12, 64, 0
20, 0, Pitch_bend_c, 12, 8192
20, 0, Control_c, 12, 93, 0
20, 0, Control_c, 12, 91, 100
20, 42316, Control_c, 12, 64, 127
20, 43207, Control_c, 12, 64, 0
20, 43277, Control_c, 12, 64, 127
20, 44150, Control_c, 12, 64, 0
20, 44157, Note_on_c, 12, 77, 98
20, 44278, Control_c, 12, 64, 127
20, 45009, Note_on_c, 12, 72, 90
20, 45036, Note_on_c, 12, 77, 0
20, 45125, Note_on_c, 12, 81, 114
20, 45132, Note_on_c, 12, 72, 0
20, 45168, Control_c, 12, 64, 0
20, 45276, Control_c, 12, 64, 127
20, 45978, Note_on_c, 12, 77, 98
20, 46001, Note_on_c, 12, 81, 0
20, 46092, Note_on_c, 12, 84, 100
20, 46095, Control_c, 12, 64, 0
20, 46105, Note_on_c, 12, 77, 0
20, 46239, Control_c, 12, 64, 127
20, 47035, Control_c, 12, 64, 0
20, 47109, Control_c, 12, 64, 127
20, 47515, Note_on_c, 12, 82, 94
20, 47529, Note_on_c, 12, 84, 0
20, 47552, Control_c, 12, 64, 0
20, 47616, Control_c, 12, 64, 127
20, 47637, Note_on_c, 12, 81, 90
20, 47676, Note_on_c, 12, 82, 0
20, 47760, Note_on_c, 12, 79, 90
20, 47780, Note_on_c, 12, 81, 0
20, 47867, Note_on_c, 12, 79, 0
20, 47870, Note_on_c, 12, 77, 74
20, 47963, Note_on_c, 12, 77, 0
20, 47986, Note_on_c, 12, 78, 90
20, 48006, Control_c, 12, 64, 0
20, 48145, Control_c, 12, 64, 127
20, 48476, Note_on_c, 12, 79, 98
20, 48499, Note_on_c, 12, 78, 0
20, 48499, Control_c, 12, 64, 0
20, 48559, Control_c, 12, 64, 127
20, 48960, Control_c, 12, 64, 0
20, 49041, Control_c, 12, 64, 127
20, 49821, Note_on_c, 12, 79, 0
20, 49926, Note_on_c, 12, 72, 105
20, 49950, Control_c, 12, 64, 0
20, 50102, Control_c, 12, 64, 127
20, 50883, Note_on_c, 12, 76, 100
20, 50896, Control_c, 12, 64, 0
20, 50899, Note_on_c, 12, 72, 0
20, 51019, Control_c, 12, 64, 127
20, 51356, Note_on_c, 12, 79, 102
20, 51360, Note_on_c, 12, 76, 0
20, 51842, Note_on_c, 12, 82, 100
20, 51849, Control_c, 12, 64, 0
20, 51870, Note_on_c, 12, 79, 0
20, 51993, Control_c, 12, 64, 127
20, 52822, Control_c, 12, 64, 0
20, 52902, Control_c, 12, 64, 127
20, 53034, Note_on_c, 12, 86, 98
20, 53051, Note_on_c, 12, 82, 0
20, 53276, Note_on_c, 12, 84, 94
20, 53295, Note_on_c, 12, 86, 0
20, 53516, Note_on_c, 12, 82, 89
20, 53549, Note_on_c, 12, 84, 0
20, 53764, Note_on_c, 12, 80, 90
20, 53789, Note_on_c, 12, 82, 0
20, 53796, Control_c, 12, 64, 0
20, 53913, Control_c, 12, 64, 127
20, 54000, Note_on_c, 12, 81, 70
20, 54088, Note_on_c, 12, 81, 0
20, 54130, Note_on_c, 12, 80, 0
20, 54240, Note_on_c, 12, 81, 100
20, 54699, Control_c, 12, 64, 0
20, 54773, Control_c, 12, 64, 127
20, 55268, Note_on_c, 12, 81, 0
20, 55679, Note_on_c, 12, 84, 102
20, 55693, Control_c, 12, 64, 0
20, 55860, Control_c, 12, 64, 127
20, 56190, Note_on_c, 12, 84, 0
20, 56647, Note_on_c, 12, 45, 102
20, 56663, Control_c, 12, 64, 0
20, 56810, Control_c, 12, 64, 127
20, 57275, Note_on_c, 12, 45, 0
20, 57357, Note_on_c, 12, 45, 98
20, 57599, Note_on_c, 12, 48, 90
20, 57611, Note_on_c, 12, 45, 0
20, 57618, Control_c, 12, 64, 0
20, 57762, Control_c, 12, 64, 127
20, 57823, Note_on_c, 12, 46, 86
20, 57843, Note_on_c, 12, 48, 0
20, 57967, Note_on_c, 12, 46, 0
20, 58063, Note_on_c, 12, 46, 98
20, 58102, Control_c, 12, 64, 0
20, 58198, Control_c, 12, 64, 127
20, 58587, Control_c, 12, 64, 0
20, 58668, Control_c, 12, 64, 127
20, 58796, Note_on_c, 12, 46, 0
20, 59521, Note_on_c, 12, 86, 102
20, 59552, Control_c, 12, 64, 0
20, 59707, Control_c, 12, 64, 127
20, 59931, Note_on_c, 12, 86, 0
20, 60484, Note_on_c, 12, 47, 105
20, 60513, Control_c, 12, 64, 0
20, 60667, Control_c, 12, 64, 127
20, 61143, Note_on_c, 12, 47, 0
20, 61184, Note_on_c, 12, 47, 101
20, 61440, Note_on_c, 12, 48, 98
20, 61457, Note_on_c, 12, 47, 0
20, 61460, Control_c, 12, 64, 0
20, 61585, Control_c, 12, 64, 127
20, 61617, Note_on_c, 12, 48, 0
20, 61917, Note_on_c, 12, 84, 102
20, 62435, Control_c, 12, 64, 0
20, 62484, Control_c, 12, 64, 127
20, 62880, Note_on_c, 12, 82, 94
20, 62912, Note_on_c, 12, 84, 0
20, 62997, Note_on_c, 12, 81, 98
20, 63033, Note_on_c, 12, 82, 0
20, 63116, Note_on_c, 12, 79, 90
20, 63136, Note_on_c, 12, 81, 0
20, 63234, Note_on_c, 12, 77, 86
20, 63243, Note_on_c, 12, 79, 0
20, 63296, Note_on_c, 12, 77, 0
20, 63349, Note_on_c, 12, 77, 90
20, 63398, Control_c, 12, 64, 0
20, 63444, Note_on_c, 12, 76, 90
20, 63454, Note_on_c, 12, 77, 0
20, 63491, Control_c, 12, 64, 127
20, 63501, Note_on_c, 12, 77, 94
20, 63511, Note_on_c, 12, 76, 0
20, 63563, Note_on_c, 12, 76, 81
20, 63567, Note_on_c, 12, 77, 0
20, 63605, Note_on_c, 12, 77, 81
20, 63613, Note_on_c, 12, 76, 0
20, 63655, Note_on_c, 12, 76, 82
20, 63658, Note_on_c, 12, 77, 0
20, 63694, Note_on_c, 12, 77, 74
20, 63704, Note_on_c, 12, 76, 0
20, 63735, Note_on_c, 12, 76, 86
20, 63741, Note_on_c, 12, 77, 0
20, 63770, Note_on_c, 12, 77, 78
20, 63787, Note_on_c, 12, 76, 0
20, 63813, Note_on_c, 12, 77, 0
20, 63817, Note_on_c, 12, 76, 78
20, 63844, Note_on_c, 12, 77, 82
20, 63861, Note_on_c, 12, 76, 0
20, 63884, Note_on_c, 12, 77, 0
20, 63891, Note_on_c, 12, 76, 74
20, 63907, Note_on_c, 12, 77, 86
20, 63924, Note_on_c, 12, 76, 0
20, 63957, Note_on_c, 12, 77, 0
20, 63960, Note_on_c, 12, 76, 88
20, 63982, Note_on_c, 12, 77, 79
20, 64001, Note_on_c, 12, 76, 0
20, 64030, Note_on_c, 12, 77, 0
20, 64036, Note_on_c, 12, 76, 89
20, 64055, Note_on_c, 12, 77, 80
20, 64078, Note_on_c, 12, 76, 0
20, 64103, Note_on_c, 12, 77, 0
20, 64105, Note_on_c, 12, 76, 86
20, 64135, Note_on_c, 12, 77, 74
20, 64152, Note_on_c, 12, 76, 0
20, 64178, Note_on_c, 12, 77, 0
20, 64180, Note_on_c, 12, 76, 86
20, 64208, Note_on_c, 12, 77, 69
20, 64227, Note_on_c, 12, 76, 0
20, 64249, Note_on_c, 12, 77, 0
20, 64254, Note_on_c, 12, 76, 68
20, 64276, Note_on_c, 12, 77, 81
20, 64300, Note_on_c, 12, 76, 0
20, 64320, Note_on_c, 12, 77, 0
20, 64321, Note_on_c, 12, 76, 78
20, 64350, Note_on_c, 12, 77, 78
20, 64368, Note_on_c, 12, 76, 0
20, 64394, Note_on_c, 12, 77, 0
20, 64400, Note_on_c, 12, 76, 74
20, 64426, Note_on_c, 12, 77, 74
20, 64448, Note_on_c, 12, 76, 0
20, 64472, Note_on_c, 12, 77, 0
20, 64475, Note_on_c, 12, 76, 82
20, 64507, Note_on_c, 12, 77, 72
20, 64524, Note_on_c, 12, 76, 0
20, 64548, Note_on_c, 12, 77, 0
20, 64555, Note_on_c, 12, 76, 71
20, 64579, Control_c, 12, 64, 0
20, 64580, Note_on_c, 12, 77, 71
20, 64598, Control_c, 12, 64, 127
20, 64599, Note_on_c, 12, 76, 0
20, 64624, Note_on_c, 12, 77, 0
20, 64630, Note_on_c, 12, 76, 74
20, 64666, Note_on_c, 12, 77, 80
20, 64676, Note_on_c, 12, 76, 0
20, 64696, Note_on_c, 12, 77, 0
20, 64713, Note_on_c, 12, 76, 64
20, 64740, Note_on_c, 12, 77, 90
20, 64751, Note_on_c, 12, 76, 0
20, 64783, Note_on_c, 12, 77, 0
20, 64787, Note_on_c, 12, 76, 74
20, 64818, Note_on_c, 12, 77, 72
20, 64833, Note_on_c, 12, 76, 0
20, 64862, Note_on_c, 12, 77, 0
20, 64867, Note_on_c, 12, 76, 72
20, 64908, Note_on_c, 12, 77, 81
20, 64925, Note_on_c, 12, 76, 0
20, 64948, Note_on_c, 12, 77, 0
20, 64954, Note_on_c, 12, 76, 61
20, 64992, Note_on_c, 12, 77, 90
20, 65003, Note_on_c, 12, 76, 0
20, 65042, Note_on_c, 12, 76, 80
20, 65069, Note_on_c, 12, 77, 0
20, 65120, Note_on_c, 12, 74, 86
20, 65129, Note_on_c, 12, 76, 0
20, 65200, Note_on_c, 12, 76, 81
20, 65215, Note_on_c, 12, 74, 0
20, 65289, Note_on_c, 12, 77, 90
20, 65304, Note_on_c, 12, 76, 0
20, 65318, Control_c, 12, 64, 0
20, 65782, Note_on_c, 12, 77, 0
20, 69123, Note_on_c, 12, 69, 114
20, 69151, Control_c, 12, 64, 127
20, 69295, Note_on_c, 12, 81, 108
20, 69323, Note_on_c, 12, 69, 0
20, 69429, Note_on_c, 12, 81, 0
20, 69613, Note_on_c, 12, 81, 103
20, 69644, Control_c, 12, 64, 0
20, 70128, Control_c, 12, 64, 127
20, 70252, Note_on_c, 12, 77, 84
20, 70283, Note_on_c, 12, 81, 0
20, 70397, Note_on_c, 12, 77, 0
20, 70401, Note_on_c, 12, 74, 80
20, 70560, Note_on_c, 12, 79, 92
20, 70565, Note_on_c, 12, 74, 0
20, 70575, Control_c, 12, 64, 0
20, 70723, Note_on_c, 12, 76, 84
20, 70736, Control_c, 12, 64, 127
20, 70743, Note_on_c, 12, 79, 0
20, 70883, Note_on_c, 12, 73, 92
20, 70886, Note_on_c, 12, 76, 0
20, 71044, Note_on_c, 12, 74, 92
20, 71055, Note_on_c, 12, 73, 0
20, 71059, Control_c, 12, 64, 0
20, 71155, Control_c, 12, 64, 127
20, 71183, Note_on_c, 12, 76, 83
20, 71187, Note_on_c, 12, 74, 0
20, 71220, Note_on_c, 12, 74, 84
20, 71230, Note_on_c, 12, 76, 0
20, 71258, Note_on_c, 12, 73, 76
20, 71263, Note_on_c, 12, 74, 0
20, 71292, Note_on_c, 12, 74, 80
20, 71302, Note_on_c, 12, 73, 0
20, 71458, Note_on_c, 12, 76, 84
20, 71470, Note_on_c, 12, 74, 0
20, 71496, Control_c, 12, 64, 0
20, 71527, Note_on_c, 12, 77, 88
20, 71537, Note_on_c, 12, 76, 0
20, 72004, Note_on_c, 12, 77, 0
20, 72253, Note_on_c, 12, 77, 92
20, 72487, Note_on_c, 12, 79, 92
20, 72509, Note_on_c, 12, 77, 0
20, 72548, Control_c, 12, 64, 127
20, 72755, Note_on_c, 12, 81, 88
20, 72770, Note_on_c, 12, 79, 0
20, 72797, Note_on_c, 12, 81, 0
20, 72994, Note_on_c, 12, 76, 114
20, 73009, Control_c, 12, 64, 0
20, 73055, Note_on_c, 12, 79, 114
20, 73083, Note_on_c, 12, 76, 0
20, 73119, Note_on_c, 12, 82, 114
20, 73144, Note_on_c, 12, 79, 0
20, 73214, Control_c, 12, 64, 127
20, 73274, Note_on_c, 12, 82, 0
20, 73440, Note_on_c, 12, 82, 108
20, 73475, Control_c, 12, 64, 0
20, 73996, Control_c, 12, 64, 127
20, 74039, Note_on_c, 12, 79, 83
20, 74058, Note_on_c, 12, 82, 0
20, 74093, Note_on_c, 12, 79, 0
20, 74154, Note_on_c, 12, 79, 84
20, 74263, Note_on_c, 12, 79, 0
20, 74265, Note_on_c, 12, 76, 83
20, 74313, Note_on_c, 12, 76, 0
20, 74391, Note_on_c, 12, 76, 84
20, 74407, Control_c, 12, 64, 0
20, 74514, Note_on_c, 12, 72, 68
20, 74533, Note_on_c, 12, 76, 0
20, 74637, Control_c, 12, 64, 127
20, 74640, Note_on_c, 12, 79, 58
20, 74642, Note_on_c, 12, 72, 0
20, 74760, Note_on_c, 12, 70, 80
20, 74784, Note_on_c, 12, 79, 0
20, 74887, Note_on_c, 12, 72, 84
20, 74897, Note_on_c, 12, 70, 0
20, 74912, Control_c, 12, 64, 0
20, 75009, Control_c, 12, 64, 127
20, 75035, Note_on_c, 12, 72, 0
20, 75112, Note_on_c, 12, 72, 88
20, 75149, Note_on_c, 12, 72, 0
20, 75156, Note_on_c, 12, 70, 75
20, 75186, Note_on_c, 12, 72, 72
20, 75194, Note_on_c, 12, 70, 0
20, 75215, Note_on_c, 12, 72, 0
20, 75220, Note_on_c, 12, 70, 68
20, 75252, Note_on_c, 12, 72, 84
20, 75259, Note_on_c, 12, 70, 0
20, 75288, Note_on_c, 12, 72, 0
20, 75299, Note_on_c, 12, 70, 63
20, 75317, Note_on_c, 12, 72, 72
20, 75333, Note_on_c, 12, 70, 0
20, 75354, Note_on_c, 12, 70, 72
20, 75362, Note_on_c, 12, 72, 0
20, 75389, Note_on_c, 12, 69, 80
20, 75398, Note_on_c, 12, 70, 0
20, 75410, Control_c, 12, 64, 0
20, 75897, Control_c, 12, 64, 127
20, 75964, Note_on_c, 12, 69, 0
20, 76095, Note_on_c, 12, 72, 76
20, 76331, Note_on_c, 12, 77, 84
20, 76349, Note_on_c, 12, 72, 0
20, 76366, Control_c, 12, 64, 0
20, 76572, Note_on_c, 12, 81, 83
20, 76583, Note_on_c, 12, 77, 0
20, 76810, Note_on_c, 12, 84, 92
20, 76813, Note_on_c, 12, 81, 0
20, 76855, Control_c, 12, 64, 127
20, 77052, Note_on_c, 12, 79, 88
20, 77071, Note_on_c, 12, 84, 0
20, 77119, Note_on_c, 12, 79, 0
20, 77285, Note_on_c, 12, 79, 76
20, 77332, Control_c, 12, 64, 0
20, 77840, Control_c, 12, 64, 127
20, 78242, Note_on_c, 12, 77, 84
20, 78252, Note_on_c, 12, 79, 0
20, 78264, Control_c, 12, 64, 0
20, 78482, Note_on_c, 12, 76, 92
20, 78493, Note_on_c, 12, 77, 0
20, 78713, Note_on_c, 12, 73, 84
20, 78722, Note_on_c, 12, 76, 0
20, 79212, Note_on_c, 12, 74, 84
20, 79270, Note_on_c, 12, 73, 0
20, 79393, Control_c, 12, 64, 127
20, 79704, Control_c, 12, 64, 0
20, 79801, Control_c, 12, 64, 127
20, 79803, Note_on_c, 12, 74, 0
20, 79922, Note_on_c, 12, 74, 92
20, 80044, Note_on_c, 12, 74, 0
20, 80159, Note_on_c, 12, 74, 92
20, 80175, Control_c, 12, 64, 0
20, 80296, Control_c, 12, 64, 127
20, 80344, Note_on_c, 12, 74, 0
20, 80406, Note_on_c, 12, 74, 92
20, 80516, Note_on_c, 12, 74, 0
20, 80646, Note_on_c, 12, 74, 92
20, 80661, Control_c, 12, 64, 0
20, 81007, Note_on_c, 12, 76, 84
20, 81026, Note_on_c, 12, 74, 0
20, 81111, Note_on_c, 12, 78, 80
20, 81112, Note_on_c, 12, 76, 0
20, 81361, Control_c, 12, 64, 127
20, 81503, Note_on_c, 12, 79, 83
20, 81538, Note_on_c, 12, 78, 0
20, 81604, Note_on_c, 12, 79, 0
20, 81606, Note_on_c, 12, 81, 108
20, 81609, Control_c, 12, 64, 0
20, 81989, Note_on_c, 12, 83, 98
20, 82036, Note_on_c, 12, 81, 0
20, 82088, Note_on_c, 12, 83, 0
20, 82094, Note_on_c, 12, 84, 92
20, 82411, Control_c, 12, 64, 127
20, 82449, Note_on_c, 12, 84, 0
20, 82452, Note_on_c, 12, 72, 84
20, 82500, Note_on_c, 12, 72, 0
20, 82567, Note_on_c, 12, 72, 68
20, 82606, Control_c, 12, 64, 0
20, 82687, Note_on_c, 12, 71, 84
20, 82725, Note_on_c, 12, 72, 0
20, 82812, Note_on_c, 12, 69, 76
20, 82813, Note_on_c, 12, 71, 0
20, 82919, Note_on_c, 12, 69, 0
20, 82927, Note_on_c, 12, 67, 83
20, 83003, Note_on_c, 12, 67, 0
20, 83055, Note_on_c, 12, 67, 84
20, 83531, Note_on_c, 12, 67, 0
20, 84004, Note_on_c, 12, 79, 108
20, 84486, Note_on_c, 12, 80, 108
20, 84503, Note_on_c, 12, 79, 0
20, 84730, Control_c, 12, 64, 127
20, 85479, Control_c, 12, 64, 0
20, 85604, Note_on_c, 12, 74, 92
20, 85621, Note_on_c, 12, 80, 0
20, 85764, Note_on_c, 12, 73, 92
20, 85788, Note_on_c, 12, 74, 0
20, 85918, Note_on_c, 12, 74, 98
20, 85924, Note_on_c, 12, 73, 0
20, 86080, Note_on_c, 12, 75, 98
20, 86108, Note_on_c, 12, 74, 0
20, 86245, Note_on_c, 12, 77, 108
20, 86273, Note_on_c, 12, 75, 0
20, 86413, Note_on_c, 12, 79, 94
20, 86445, Note_on_c, 12, 77, 0
20, 86568, Control_c, 12, 64, 127
20, 87408, Control_c, 12, 64, 0
20, 87525, Note_on_c, 12, 72, 84
20, 87563, Note_on_c, 12, 79, 0
20, 87686, Note_on_c, 12, 71, 92
20, 87703, Note_on_c, 12, 72, 0
20, 87843, Note_on_c, 12, 72, 108
20, 87869, Note_on_c, 12, 71, 0
20, 88003, Note_on_c, 12, 74, 108
20, 88024, Note_on_c, 12, 72, 0
20, 88162, Note_on_c, 12, 75, 108
20, 88174, Note_on_c, 12, 74, 0
20, 88326, Note_on_c, 12, 77, 108
20, 88348, Note_on_c, 12, 75, 0
20, 88404, Control_c, 12, 64, 127
20, 89323, Control_c, 12, 64, 0
20, 89452, Note_on_c, 12, 71, 80
20, 89476, Note_on_c, 12, 77, 0
20, 89608, Note_on_c, 12, 69, 88
20, 89618, Note_on_c, 12, 71, 0
20, 89765, Note_on_c, 12, 71, 108
20, 89788, Note_on_c, 12, 69, 0
20, 89926, Note_on_c, 12, 72, 108
20, 89951, Note_on_c, 12, 71, 0
20, 90082, Note_on_c, 12, 74, 108
20, 90086, Note_on_c, 12, 72, 0
20, 90247, Note_on_c, 12, 75, 96
20, 90264, Note_on_c, 12, 74, 0
20, 90392, Control_c, 12, 64, 127
20, 91226, Control_c, 12, 64, 0
20, 91375, Note_on_c, 12, 69, 83
20, 91408, Note_on_c, 12, 75, 0
20, 91530, Note_on_c, 12, 68, 84
20, 91550, Note_on_c, 12, 69, 0
20, 91689, Note_on_c, 12, 69, 108
20, 91698, Note_on_c, 12, 68, 0
20, 91853, Note_on_c, 12, 71, 96
20, 91883, Note_on_c, 12, 69, 0
20, 92015, Note_on_c, 12, 72, 92
20, 92036, Note_on_c, 12, 71, 0
20, 92182, Note_on_c, 12, 74, 92
20, 92201, Note_on_c, 12, 72, 0
20, 92305, Control_c, 12, 64, 127
20, 93117, Control_c, 12, 64, 0
20, 93295, Note_on_c, 12, 67, 84
20, 93303, Note_on_c, 12, 74, 0
20, 93446, Note_on_c, 12, 66, 83
20, 93460, Note_on_c, 12, 67, 0
20, 93604, Note_on_c, 12, 67, 92
20, 93612, Note_on_c, 12, 66, 0
20, 93763, Note_on_c, 12, 69, 92
20, 93780, Control_c, 12, 64, 127
20, 93790, Note_on_c, 12, 67, 0
20, 93921, Note_on_c, 12, 71, 96
20, 93934, Note_on_c, 12, 69, 0
20, 94009, Note_on_c, 12, 71, 0
20, 94080, Note_on_c, 12, 72, 96
20, 94097, Control_c, 12, 64, 0
20, 94100, Control_c, 12, 64, 127
20, 94278, Note_on_c, 12, 84, 98
20, 94293, Note_on_c, 12, 72, 0
20, 94577, Control_c, 12, 64, 0
20, 94715, Control_c, 12, 64, 127
20, 95033, Note_on_c, 12, 83, 98
20, 95037, Note_on_c, 12, 84, 0
20, 95040, Control_c, 12, 64, 0
20, 95197, Control_c, 12, 64, 127
20, 95262, Note_on_c, 12, 81, 92
20, 95279, Note_on_c, 12, 83, 0
20, 95508, Note_on_c, 12, 79, 94
20, 95521, Control_c, 12, 64, 0
20, 95533, Note_on_c, 12, 81, 0
20, 95672, Control_c, 12, 64, 127
20, 95743, Note_on_c, 12, 77, 96
20, 95748, Note_on_c, 12, 79, 0
20, 95993, Note_on_c, 12, 76, 92
20, 96000, Control_c, 12, 64, 0
20, 96015, Note_on_c, 12, 77, 0
20, 96162, Control_c, 12, 64, 127
20, 96472, Control_c, 12, 64, 0
20, 96474, Note_on_c, 12, 74, 88
20, 96487, Note_on_c, 12, 76, 0
20, 96616, Control_c, 12, 64, 127
20, 96979, Control_c, 12, 64, 0
20, 97137, Control_c, 12, 64, 127
20, 97446, Note_on_c, 12, 79, 94
20, 97465, Control_c, 12, 64, 0
20, 97467, Note_on_c, 12, 74, 0
20, 97638, Control_c, 12, 64, 127
20, 97932, Note_on_c, 12, 77, 98
20, 97955, Control_c, 12, 64, 0
20, 97960, Note_on_c, 12, 79, 0
20, 98104, Control_c, 12, 64, 127
20, 98402, Note_on_c, 12, 76, 99
20, 98409, Note_on_c, 12, 77, 0
20, 98426, Control_c, 12, 64, 0
20, 98594, Control_c, 12, 64, 127
20, 98893, Control_c, 12, 64, 0
20, 99046, Control_c, 12, 64, 127
20, 99087, Note_on_c, 12, 76, 0
20, 99354, Control_c, 12, 64, 0
20, 99501, Control_c, 12, 64, 127
20, 99842, Note_on_c, 12, 72, 98
20, 99853, Control_c, 12, 64, 0
20, 99998, Note_on_c, 12, 84, 108
20, 100011, Note_on_c, 12, 72, 0
20, 100344, Control_c, 12, 64, 0
20, 100489, Control_c, 12, 64, 127
20, 100796, Note_on_c, 12, 83, 114
20, 100805, Control_c, 12, 64, 0
20, 100809, Note_on_c, 12, 84, 0
20, 100971, Control_c, 12, 64, 127
20, 101029, Note_on_c, 12, 81, 98
20, 101042, Note_on_c, 12, 83, 0
20, 101279, Note_on_c, 12, 79, 92
20, 101292, Control_c, 12, 64, 0
20, 101301, Note_on_c, 12, 81, 0
20, 101463, Control_c, 12, 64, 127
20, 101510, Note_on_c, 12, 77, 98
20, 101516, Note_on_c, 12, 79, 0
20, 101760, Note_on_c, 12, 76, 98
20, 101776, Control_c, 12, 64, 0
20, 101783, Note_on_c, 12, 77, 0
20, 101944, Control_c, 12, 64, 127
20, 102248, Note_on_c, 12, 74, 92
20, 102267, Note_on_c, 12, 76, 0
20, 102272, Control_c, 12, 64, 0
20, 102440, Control_c, 12, 64, 127
20, 102747, Control_c, 12, 64, 0
20, 102914, Control_c, 12, 64, 127
20, 103202, Note_on_c, 12, 79, 88
20, 103205, Note_on_c, 12, 74, 0
20, 103220, Control_c, 12, 64, 0
20, 103382, Control_c, 12, 64, 127
20, 103694, Note_on_c, 12, 72, 76
20, 103714, Note_on_c, 12, 79, 0
20, 103723, Control_c, 12, 64, 0
20, 104166, Note_on_c, 12, 72, 0
20, 104166, End_track
21, 0, Start_track
21, 0, MIDI_port, 0
21, 0, Title_t, "Piano Solo LH"
21, 42239, Note_on_c, 12, 53, 98
21, 42418, Note_on_c, 12, 57, 64
21, 42418, Note_on_c, 12, 60, 70
21, 42460, Note_on_c, 12, 57, 0
21, 42467, Note_on_c, 12, 60, 0
21, 42574, Note_on_c, 12, 60, 68
21, 42576, Note_on_c, 12, 57, 65
21, 42615, Note_on_c, 12, 57, 0
21, 42624, Note_on_c, 12, 60, 0
21, 42729, Note_on_c, 12, 57, 74
21, 42729, Note_on_c, 12, 60, 74
21, 42795, Note_on_c, 12, 60, 0
21, 42795, Note_on_c, 12, 57, 0
21, 42882, Note_on_c, 12, 57, 81
21, 42884, Note_on_c, 12, 60, 88
21, 42949, Note_on_c, 12, 57, 0
21, 42965, Note_on_c, 12, 60, 0
21, 43040, Note_on_c, 12, 57, 89
21, 43040, Note_on_c, 12, 60, 98
21, 43063, Note_on_c, 12, 53, 0
21, 43198, Note_on_c, 12, 53, 94
21, 43232, Note_on_c, 12, 57, 0
21, 43239, Note_on_c, 12, 60, 0
21, 43356, Note_on_c, 12, 57, 64
21, 43358, Note_on_c, 12, 60, 52
21, 43417, Note_on_c, 12, 57, 0
21, 43419, Note_on_c, 12, 60, 0
21, 43511, Note_on_c, 12, 57, 64
21, 43514, Note_on_c, 12, 60, 65
21, 43571, Note_on_c, 12, 60, 0
21, 43574, Note_on_c, 12, 57, 0
21, 43670, Note_on_c, 12, 57, 66
21, 43672, Note_on_c, 12, 60, 58
21, 43729, Note_on_c, 12, 60, 0
21, 43735, Note_on_c, 12, 57, 0
21, 43834, Note_on_c, 12, 57, 65
21, 43839, Note_on_c, 12, 60, 58
21, 43889, Note_on_c, 12, 57, 0
21, 43894, Note_on_c, 12, 60, 0
21, 44000, Note_on_c, 12, 57, 67
21, 44001, Note_on_c, 12, 60, 64
21, 44006, Note_on_c, 12, 53, 0
21, 44157, Note_on_c, 12, 53, 82
21, 44174, Note_on_c, 12, 60, 0
21, 44188, Note_on_c, 12, 57, 0
21, 44326, Note_on_c, 12, 57, 57
21, 44331, Note_on_c, 12, 60, 45
21, 44373, Note_on_c, 12, 60, 0
21, 44382, Note_on_c, 12, 57, 0
21, 44483, Note_on_c, 12, 60, 57
21, 44484, Note_on_c, 12, 57, 57
21, 44527, Note_on_c, 12, 57, 0
21, 44532, Note_on_c, 12, 60, 0
21, 44640, Note_on_c, 12, 57, 66
21, 44641, Note_on_c, 12, 60, 60
21, 44695, Note_on_c, 12, 57, 0
21, 44697, Note_on_c, 12, 60, 0
21, 44797, Note_on_c, 12, 57, 67
21, 44799, Note_on_c, 12, 60, 60
21, 44861, Note_on_c, 12, 57, 0
21, 44865, Note_on_c, 12, 60, 0
21, 44960, Note_on_c, 12, 57, 66
21, 44962, Note_on_c, 12, 60, 65
21, 45024, Note_on_c, 12, 53, 0
21, 45123, Note_on_c, 12, 53, 78
21, 45150, Note_on_c, 12, 60, 0
21, 45165, Note_on_c, 12, 57, 0
21, 45281, Note_on_c, 12, 57, 68
21, 45284, Note_on_c, 12, 60, 63
21, 45333, Note_on_c, 12, 60, 0
21, 45338, Note_on_c, 12, 57, 0
21, 45442, Note_on_c, 12, 57, 64
21, 45443, Note_on_c, 12, 60, 60
21, 45493, Note_on_c, 12, 57, 0
21, 45497, Note_on_c, 12, 60, 0
21, 45602, Note_on_c, 12, 57, 63
21, 45604, Note_on_c, 12, 60, 61
21, 45650, Note_on_c, 12, 57, 0
21, 45657, Note_on_c, 12, 60, 0
21, 45768, Note_on_c, 12, 57, 62
21, 45770, Note_on_c, 12, 60, 64
21, 45822, Note_on_c, 12, 57, 0
21, 45829, Note_on_c, 12, 60, 0
21, 45927, Note_on_c, 12, 57, 66
21, 45930, Note_on_c, 12, 60, 65
21, 45958, Note_on_c, 12, 53, 0
21, 46089, Note_on_c, 12, 53, 78
21, 46109, Note_on_c, 12, 60, 0
21, 46114, Note_on_c, 12, 57, 0
21, 46251, Note_on_c, 12, 57, 60
21, 46251, Note_on_c, 12, 60, 60
21, 46290, Note_on_c, 12, 57, 0
21, 46299, Note_on_c, 12, 60, 0
21, 46401, Note_on_c, 12, 60, 59
21, 46405, Note_on_c, 12, 57, 55
21, 46466, Note_on_c, 12, 57, 0
21, 46467, Note_on_c, 12, 60, 0
21, 46557, Note_on_c, 12, 57, 65
21, 46558, Note_on_c, 12, 60, 67
21, 46601, Note_on_c, 12, 57, 0
21, 46611, Note_on_c, 12, 60, 0
21, 46714, Note_on_c, 12, 57, 66
21, 46715, Note_on_c, 12, 60, 60
21, 46757, Note_on_c, 12, 57, 0
21, 46758, Note_on_c, 12, 60, 0
21, 46877, Note_on_c, 12, 57, 69
21, 46878, Note_on_c, 12, 60, 64
21, 46893, Note_on_c, 12, 53, 0
21, 47033, Note_on_c, 12, 53, 74
21, 47059, Note_on_c, 12, 57, 0
21, 47064, Note_on_c, 12, 60, 0
21, 47198, Note_on_c, 12, 57, 66
21, 47199, Note_on_c, 12, 60, 63
21, 47246, Note_on_c, 12, 57, 0
21, 47250, Note_on_c, 12, 60, 0
21, 47360, Note_on_c, 12, 57, 62
21, 47360, Note_on_c, 12, 60, 65
21, 47398, Note_on_c, 12, 57, 0
21, 47405, Note_on_c, 12, 60, 0
21, 47519, Note_on_c, 12, 57, 71
21, 47520, Note_on_c, 12, 60, 67
21, 47578, Note_on_c, 12, 57, 0
21, 47581, Note_on_c, 12, 60, 0
21, 47692, Note_on_c, 12, 57, 66
21, 47692, Note_on_c, 12, 60, 66
21, 47732, Note_on_c, 12, 57, 0
21, 47745, Note_on_c, 12, 60, 0
21, 47843, Note_on_c, 12, 57, 72
21, 47848, Note_on_c, 12, 60, 69
21, 47883, Note_on_c, 12, 53, 0
21, 47886, Note_on_c, 12, 60, 0
21, 47890, Note_on_c, 12, 57, 0
21, 47990, Note_on_c, 12, 48, 82
21, 48154, Note_on_c, 12, 55, 59
21, 48156, Note_on_c, 12, 58, 38
21, 48187, Note_on_c, 12, 58, 0
21, 48205, Note_on_c, 12, 55, 0
21, 48313, Note_on_c, 12, 58, 52
21, 48314, Note_on_c, 12, 55, 61
21, 48317, Note_on_c, 12, 52, 65
21, 48377, Note_on_c, 12, 58, 0
21, 48378, Note_on_c, 12, 55, 0
21, 48380, Note_on_c, 12, 52, 0
21, 48481, Note_on_c, 12, 55, 61
21, 48482, Note_on_c, 12, 58, 40
21, 48483, Note_on_c, 12, 52, 67
21, 48540, Note_on_c, 12, 58, 0
21, 48555, Note_on_c, 12, 55, 0
21, 48558, Note_on_c, 12, 52, 0
21, 48644, Note_on_c, 12, 55, 52
21, 48646, Note_on_c, 12, 58, 35
21, 48651, Note_on_c, 12, 52, 50
21, 48681, Note_on_c, 12, 58, 0
21, 48693, Note_on_c, 12, 52, 0
21, 48694, Note_on_c, 12, 55, 0
21, 48808, Note_on_c, 12, 55, 64
21, 48808, Note_on_c, 12, 58, 51
21, 48812, Note_on_c, 12, 52, 62
21, 48866, Note_on_c, 12, 48, 0
21, 48963, Note_on_c, 12, 48, 78
21, 48985, Note_on_c, 12, 58, 0
21, 48989, Note_on_c, 12, 52, 0
21, 48995, Note_on_c, 12, 55, 0
21, 49120, Note_on_c, 12, 55, 56
21, 49120, Note_on_c, 12, 58, 58
21, 49126, Note_on_c, 12, 52, 58
21, 49174, Note_on_c, 12, 58, 0
21, 49185, Note_on_c, 12, 52, 0
21, 49185, Note_on_c, 12, 55, 0
21, 49281, Note_on_c, 12, 55, 59
21, 49283, Note_on_c, 12, 52, 66
21, 49283, Note_on_c, 12, 58, 47
21, 49330, Note_on_c, 12, 58, 0
21, 49338, Note_on_c, 12, 55, 0
21, 49344, Note_on_c, 12, 52, 0
21, 49442, Note_on_c, 12, 55, 56
21, 49445, Note_on_c, 12, 58, 38
21, 49449, Note_on_c, 12, 52, 54
21, 49482, Note_on_c, 12, 58, 0
21, 49489, Note_on_c, 12, 52, 0
21, 49496, Note_on_c, 12, 55, 0
21, 49600, Note_on_c, 12, 55, 49
21, 49603, Note_on_c, 12, 52, 59
21, 49606, Note_on_c, 12, 58, 40
21, 49637, Note_on_c, 12, 58, 0
21, 49648, Note_on_c, 12, 52, 0
21, 49653, Note_on_c, 12, 55, 0
21, 49762, Note_on_c, 12, 55, 63
21, 49766, Note_on_c, 12, 58, 57
21, 49768, Note_on_c, 12, 52, 63
21, 49792, Note_on_c, 12, 48, 0
21, 49862, Note_on_c, 12, 52, 0
21, 49912, Note_on_c, 12, 58, 0
21, 49926, Note_on_c, 12, 48, 74
21, 49936, Note_on_c, 12, 55, 0
21, 50083, Note_on_c, 12, 58, 59
21, 50086, Note_on_c, 12, 52, 66
21, 50086, Note_on_c, 12, 55, 56
21, 50137, Note_on_c, 12, 58, 0
21, 50144, Note_on_c, 12, 55, 0
21, 50150, Note_on_c, 12, 52, 0
21, 50243, Note_on_c, 12, 55, 57
21, 50244, Note_on_c, 12, 58, 50
21, 50248, Note_on_c, 12, 52, 60
21, 50294, Note_on_c, 12, 58, 0
21, 50297, Note_on_c, 12, 52, 0
21, 50304, Note_on_c, 12, 55, 0
21, 50395, Note_on_c, 12, 55, 57
21, 50397, Note_on_c, 12, 58, 50
21, 50402, Note_on_c, 12, 52, 60
21, 50460, Note_on_c, 12, 52, 0
21, 50461, Note_on_c, 12, 58, 0
21, 50465, Note_on_c, 12, 55, 0
21, 50556, Note_on_c, 12, 55, 61
21, 50557, Note_on_c, 12, 58, 48
21, 50562, Note_on_c, 12, 52, 59
21, 50611, Note_on_c, 12, 58, 0
21, 50613, Note_on_c, 12, 52, 0
21, 50618, Note_on_c, 12, 55, 0
21, 50719, Note_on_c, 12, 55, 58
21, 50720, Note_on_c, 12, 58, 45
21, 50722, Note_on_c, 12, 52, 64
21, 50770, Note_on_c, 12, 58, 0
21, 50771, Note_on_c, 12, 55, 0
21, 50775, Note_on_c, 12, 52, 0
21, 50842, Note_on_c, 12, 48, 0
21, 50880, Note_on_c, 12, 48, 89
21, 51040, Note_on_c, 12, 58, 60
21, 51042, Note_on_c, 12, 55, 62
21, 51043, Note_on_c, 12, 52, 67
21, 51094, Note_on_c, 12, 58, 0
21, 51095, Note_on_c, 12, 55, 0
21, 51104, Note_on_c, 12, 52, 0
21, 51199, Note_on_c, 12, 55, 58
21, 51200, Note_on_c, 12, 58, 46
21, 51204, Note_on_c, 12, 52, 60
21, 51252, Note_on_c, 12, 58, 0
21, 51253, Note_on_c, 12, 55, 0
21, 51256, Note_on_c, 12, 52, 0
21, 51357, Note_on_c, 12, 55, 65
21, 51357, Note_on_c, 12, 58, 62
21, 51363, Note_on_c, 12, 52, 64
21, 51414, Note_on_c, 12, 58, 0
21, 51418, Note_on_c, 12, 55, 0
21, 51420, Note_on_c, 12, 52, 0
21, 51515, Note_on_c, 12, 55, 61
21, 51518, Note_on_c, 12, 58, 52
21, 51521, Note_on_c, 12, 52, 55
21, 51554, Note_on_c, 12, 58, 0
21, 51567, Note_on_c, 12, 52, 0
21, 51567, Note_on_c, 12, 55, 0
21, 51677, Note_on_c, 12, 55, 64
21, 51680, Note_on_c, 12, 58, 54
21, 51684, Note_on_c, 12, 52, 65
21, 51716, Note_on_c, 12, 48, 0
21, 51838, Note_on_c, 12, 48, 74
21, 51852, Note_on_c, 12, 58, 0
21, 51859, Note_on_c, 12, 52, 0
21, 51872, Note_on_c, 12, 55, 0
21, 52009, Note_on_c, 12, 55, 58
21, 52012, Note_on_c, 12, 58, 53
21, 52014, Note_on_c, 12, 52, 63
21, 52056, Note_on_c, 12, 58, 0
21, 52069, Note_on_c, 12, 55, 0
21, 52071, Note_on_c, 12, 52, 0
21, 52165, Note_on_c, 12, 55, 53
21, 52165, Note_on_c, 12, 58, 49
21, 52171, Note_on_c, 12, 52, 50
21, 52211, Note_on_c, 12, 58, 0
21, 52215, Note_on_c, 12, 52, 0
21, 52217, Note_on_c, 12, 55, 0
21, 52322, Note_on_c, 12, 55, 54
21, 52325, Note_on_c, 12, 58, 46
21, 52326, Note_on_c, 12, 52, 65
21, 52370, Note_on_c, 12, 58, 0
21, 52382, Note_on_c, 12, 55, 0
21, 52383, Note_on_c, 12, 52, 0
21, 52482, Note_on_c, 12, 55, 45
21, 52483, Note_on_c, 12, 58, 36
21, 52488, Note_on_c, 12, 52, 49
21, 52521, Note_on_c, 12, 58, 0
21, 52527, Note_on_c, 12, 52, 0
21, 52529, Note_on_c, 12, 55, 0
21, 52645, Note_on_c, 12, 55, 50
21, 52651, Note_on_c, 12, 52, 53
21, 52651, Note_on_c, 12, 58, 43
21, 52697, Note_on_c, 12, 48, 0
21, 52805, Note_on_c, 12, 48, 71
21, 52822, Note_on_c, 12, 58, 0
21, 52835, Note_on_c, 12, 52, 0
21, 52838, Note_on_c, 12, 55, 0
21, 52961, Note_on_c, 12, 55, 56
21, 52964, Note_on_c, 12, 58, 53
21, 52968, Note_on_c, 12, 52, 59
21, 53013, Note_on_c, 12, 58, 0
21, 53022, Note_on_c, 12, 55, 0
21, 53025, Note_on_c, 12, 52, 0
21, 53118, Note_on_c, 12, 55, 63
21, 53120, Note_on_c, 12, 52, 62
21, 53120, Note_on_c, 12, 58, 51
21, 53167, Note_on_c, 12, 58, 0
21, 53174, Note_on_c, 12, 55, 0
21, 53180, Note_on_c, 12, 52, 0
21, 53278, Note_on_c, 12, 55, 63
21, 53280, Note_on_c, 12, 52, 71
21, 53280, Note_on_c, 12, 58, 56
21, 53333, Note_on_c, 12, 58, 0
21, 53340, Note_on_c, 12, 55, 0
21, 53343, Note_on_c, 12, 52, 0
21, 53438, Note_on_c, 12, 55, 65
21, 53440, Note_on_c, 12, 58, 55
21, 53442, Note_on_c, 12, 52, 71
21, 53489, Note_on_c, 12, 58, 0
21, 53504, Note_on_c, 12, 52, 0
21, 53504, Note_on_c, 12, 55, 0
21, 53601, Note_on_c, 12, 55, 68
21, 53606, Note_on_c, 12, 52, 68
21, 53608, Note_on_c, 12, 58, 54
21, 53639, Note_on_c, 12, 48, 0
21, 53652, Note_on_c, 12, 52, 0
21, 53656, Note_on_c, 12, 55, 0
21, 53670, Note_on_c, 12, 58, 0
21, 53765, Note_on_c, 12, 53, 82
21, 53923, Note_on_c, 12, 60, 54
21, 53924, Note_on_c, 12, 57, 72
21, 53968, Note_on_c, 12, 57, 0
21, 53976, Note_on_c, 12, 60, 0
21, 54080, Note_on_c, 12, 57, 54
21, 54090, Note_on_c, 12, 60, 45
21, 54101, Note_on_c, 12, 60, 0
21, 54117, Note_on_c, 12, 57, 0
21, 54237, Note_on_c, 12, 60, 60
21, 54239, Note_on_c, 12, 57, 66
21, 54298, Note_on_c, 12, 57, 0
21, 54301, Note_on_c, 12, 60, 0
21, 54398, Note_on_c, 12, 57, 65
21, 54398, Note_on_c, 12, 60, 59
21, 54440, Note_on_c, 12, 57, 0
21, 54446, Note_on_c, 12, 60, 0
21, 54557, Note_on_c, 12, 57, 72
21, 54559, Note_on_c, 12, 60, 61
21, 54573, Note_on_c, 12, 53, 0
21, 54719, Note_on_c, 12, 53, 74
21, 54749, Note_on_c, 12, 57, 0
21, 54752, Note_on_c, 12, 60, 0
21, 54879, Note_on_c, 12, 57, 56
21, 54883, Note_on_c, 12, 60, 44
21, 54920, Note_on_c, 12, 60, 0
21, 54924, Note_on_c, 12, 57, 0
21, 55041, Note_on_c, 12, 57, 53
21, 55041, Note_on_c, 12, 60, 50
21, 55079, Note_on_c, 12, 57, 0
21, 55088, Note_on_c, 12, 60, 0
21, 55200, Note_on_c, 12, 60, 54
21, 55201, Note_on_c, 12, 57, 57
21, 55236, Note_on_c, 12, 57, 0
21, 55244, Note_on_c, 12, 60, 0
21, 55361, Note_on_c, 12, 57, 64
21, 55366, Note_on_c, 12, 60, 50
21, 55397, Note_on_c, 12, 57, 0
21, 55399, Note_on_c, 12, 60, 0
21, 55517, Note_on_c, 12, 57, 70
21, 55528, Note_on_c, 12, 60, 56
21, 55544, Note_on_c, 12, 57, 0
21, 55546, Note_on_c, 12, 53, 0
21, 55562, Note_on_c, 12, 60, 0
21, 55677, Note_on_c, 12, 57, 68
21, 55841, Note_on_c, 12, 60, 57
21, 55841, Note_on_c, 12, 63, 56
21, 55841, Note_on_c, 12, 65, 56
21, 55888, Note_on_c, 12, 63, 0
21, 55890, Note_on_c, 12, 65, 0
21, 55899, Note_on_c, 12, 60, 0
21, 56001, Note_on_c, 12, 60, 59
21, 56001, Note_on_c, 12, 63, 48
21, 56003, Note_on_c, 12, 65, 46
21, 56039, Note_on_c, 12, 63, 0
21, 56043, Note_on_c, 12, 65, 0
21, 56046, Note_on_c, 12, 60, 0
21, 56162, Note_on_c, 12, 63, 50
21, 56164, Note_on_c, 12, 60, 58
21, 56166, Note_on_c, 12, 65, 53
21, 56208, Note_on_c, 12, 65, 0
21, 56210, Note_on_c, 12, 63, 0
21, 56212, Note_on_c, 12, 60, 0
21, 56318, Note_on_c, 12, 63, 57
21, 56319, Note_on_c, 12, 65, 58
21, 56320, Note_on_c, 12, 60, 66
21, 56362, Note_on_c, 12, 63, 0
21, 56368, Note_on_c, 12, 60, 0
21, 56368, Note_on_c, 12, 65, 0
21, 56484, Note_on_c, 12, 63, 56
21, 56485, Note_on_c, 12, 65, 52
21, 56488, Note_on_c, 12, 60, 58
21, 56541, Note_on_c, 12, 57, 0
21, 56642, Note_on_c, 12, 57, 78
21, 56643, Note_on_c, 12, 60, 0
21, 56660, Note_on_c, 12, 63, 0
21, 56671, Note_on_c, 12, 65, 0
21, 56799, Note_on_c, 12, 63, 55
21, 56800, Note_on_c, 12, 60, 62
21, 56800, Note_on_c, 12, 65, 45
21, 56847, Note_on_c, 12, 63, 0
21, 56855, Note_on_c, 12, 65, 0
21, 56856, Note_on_c, 12, 60, 0
21, 56959, Note_on_c, 12, 60, 60
21, 56960, Note_on_c, 12, 63, 55
21, 56960, Note_on_c, 12, 65, 50
21, 57011, Note_on_c, 12, 63, 0
21, 57016, Note_on_c, 12, 65, 0
21, 57017, Note_on_c, 12, 60, 0
21, 57124, Note_on_c, 12, 63, 50
21, 57127, Note_on_c, 12, 60, 57
21, 57127, Note_on_c, 12, 65, 53
21, 57179, Note_on_c, 12, 65, 0
21, 57179, Note_on_c, 12, 63, 0
21, 57180, Note_on_c, 12, 60, 0
21, 57282, Note_on_c, 12, 60, 65
21, 57282, Note_on_c, 12, 63, 56
21, 57289, Note_on_c, 12, 65, 39
21, 57330, Note_on_c, 12, 65, 0
21, 57342, Note_on_c, 12, 63, 0
21, 57347, Note_on_c, 12, 60, 0
21, 57441, Note_on_c, 12, 65, 69
21, 57444, Note_on_c, 12, 63, 68
21, 57445, Note_on_c, 12, 60, 71
21, 57479, Note_on_c, 12, 57, 0
21, 57499, Note_on_c, 12, 60, 0
21, 57519, Note_on_c, 12, 63, 0
21, 57599, Note_on_c, 12, 58, 74
21, 57602, Note_on_c, 12, 65, 0
21, 57754, Note_on_c, 12, 65, 64
21, 57758, Note_on_c, 12, 62, 68
21, 57815, Note_on_c, 12, 62, 0
21, 57823, Note_on_c, 12, 65, 0
21, 57915, Note_on_c, 12, 65, 61
21, 57916, Note_on_c, 12, 62, 65
21, 57973, Note_on_c, 12, 62, 0
21, 57980, Note_on_c, 12, 65, 0
21, 58076, Note_on_c, 12, 65, 67
21, 58078, Note_on_c, 12, 62, 74
21, 58146, Note_on_c, 12, 62, 0
21, 58154, Note_on_c, 12, 65, 0
21, 58241, Note_on_c, 12, 65, 63
21, 58243, Note_on_c, 12, 62, 63
21, 58293, Note_on_c, 12, 62, 0
21, 58300, Note_on_c, 12, 65, 0
21, 58407, Note_on_c, 12, 62, 71
21, 58407, Note_on_c, 12, 65, 69
21, 58424, Note_on_c, 12, 58, 0
21, 58570, Note_on_c, 12, 58, 74
21, 58613, Note_on_c, 12, 65, 0
21, 58613, Note_on_c, 12, 62, 0
21, 58723, Note_on_c, 12, 65, 69
21, 58725, Note_on_c, 12, 62, 63
21, 58773, Note_on_c, 12, 62, 0
21, 58787, Note_on_c, 12, 65, 0
21, 58882, Note_on_c, 12, 65, 64
21, 58884, Note_on_c, 12, 62, 61
21, 58927, Note_on_c, 12, 62, 0
21, 58934, Note_on_c, 12, 65, 0
21, 59039, Note_on_c, 12, 65, 58
21, 59043, Note_on_c, 12, 62, 53
21, 59075, Note_on_c, 12, 62, 0
21, 59088, Note_on_c, 12, 65, 0
21, 59199, Note_on_c, 12, 62, 63
21, 59199, Note_on_c, 12, 65, 63
21, 59251, Note_on_c, 12, 62, 0
21, 59256, Note_on_c, 12, 65, 0
21, 59364, Note_on_c, 12, 65, 66
21, 59365, Note_on_c, 12, 62, 63
21, 59388, Note_on_c, 12, 58, 0
21, 59408, Note_on_c, 12, 62, 0
21, 59472, Note_on_c, 12, 65, 0
21, 59525, Note_on_c, 12, 59, 90
21, 59685, Note_on_c, 12, 65, 66
21, 59689, Note_on_c, 12, 68, 68
21, 59691, Note_on_c, 12, 62, 64
21, 59731, Note_on_c, 12, 68, 0
21, 59745, Note_on_c, 12, 65, 0
21, 59753, Note_on_c, 12, 62, 0
21, 59843, Note_on_c, 12, 65, 64
21, 59848, Note_on_c, 12, 62, 64
21, 59849, Note_on_c, 12, 68, 57
21, 59884, Note_on_c, 12, 68, 0
21, 59900, Note_on_c, 12, 65, 0
21, 59905, Note_on_c, 12, 62, 0
21, 60007, Note_on_c, 12, 65, 63
21, 60009, Note_on_c, 12, 62, 71
21, 60009, Note_on_c, 12, 68, 61
21, 60056, Note_on_c, 12, 68, 0
21, 60058, Note_on_c, 12, 65, 0
21, 60072, Note_on_c, 12, 62, 0
21, 60157, Note_on_c, 12, 65, 64
21, 60160, Note_on_c, 12, 68, 56
21, 60163, Note_on_c, 12, 62, 60
21, 60205, Note_on_c, 12, 62, 0
21, 60215, Note_on_c, 12, 65, 0
21, 60220, Note_on_c, 12, 68, 0
21, 60334, Note_on_c, 12, 65, 61
21, 60337, Note_on_c, 12, 62, 71
21, 60341, Note_on_c, 12, 68, 52
21, 60369, Note_on_c, 12, 59, 0
21, 60483, Note_on_c, 12, 59, 82
21, 60488, Note_on_c, 12, 62, 0
21, 60499, Note_on_c, 12, 68, 0
21, 60511, Note_on_c, 12, 65, 0
21, 60640, Note_on_c, 12, 65, 56
21, 60645, Note_on_c, 12, 62, 61
21, 60650, Note_on_c, 12, 68, 37
21, 60678, Note_on_c, 12, 68, 0
21, 60698, Note_on_c, 12, 65, 0
21, 60702, Note_on_c, 12, 62, 0
21, 60800, Note_on_c, 12, 65, 57
21, 60801, Note_on_c, 12, 68, 56
21, 60803, Note_on_c, 12, 62, 61
21, 60858, Note_on_c, 12, 68, 0
21, 60860, Note_on_c, 12, 65, 0
21, 60868, Note_on_c, 12, 62, 0
21, 60963, Note_on_c, 12, 68, 59
21, 60964, Note_on_c, 12, 65, 64
21, 60967, Note_on_c, 12, 62, 62
21, 61014, Note_on_c, 12, 65, 0
21, 61019, Note_on_c, 12, 68, 0
21, 61021, Note_on_c, 12, 62, 0
21, 61121, Note_on_c, 12, 68, 55
21, 61122, Note_on_c, 12, 62, 61
21, 61122, Note_on_c, 12, 65, 61
21, 61172, Note_on_c, 12, 68, 0
21, 61173, Note_on_c, 12, 65, 0
21, 61180, Note_on_c, 12, 62, 0
21, 61279, Note_on_c, 12, 65, 68
21, 61282, Note_on_c, 12, 62, 66
21, 61282, Note_on_c, 12, 68, 58
21, 61332, Note_on_c, 12, 65, 0
21, 61339, Note_on_c, 12, 62, 0
21, 61340, Note_on_c, 12, 68, 0
21, 61343, Note_on_c, 12, 59, 0
21, 61439, Note_on_c, 12, 60, 80
21, 61606, Note_on_c, 12, 65, 59
21, 61608, Note_on_c, 12, 69, 59
21, 61649, Note_on_c, 12, 69, 0
21, 61658, Note_on_c, 12, 65, 0
21, 61764, Note_on_c, 12, 69, 58
21, 61766, Note_on_c, 12, 65, 47
21, 61801, Note_on_c, 12, 65, 0
21, 61809, Note_on_c, 12, 69, 0
21, 61922, Note_on_c, 12, 65, 69
21, 61922, Note_on_c, 12, 69, 74
21, 61987, Note_on_c, 12, 65, 0
21, 61996, Note_on_c, 12, 69, 0
21, 62080, Note_on_c, 12, 65, 61
21, 62080, Note_on_c, 12, 69, 64
21, 62129, Note_on_c, 12, 65, 0
21, 62137, Note_on_c, 12, 69, 0
21, 62243, Note_on_c, 12, 65, 64
21, 62244, Note_on_c, 12, 69, 64
21, 62308, Note_on_c, 12, 60, 0
21, 62404, Note_on_c, 12, 60, 81
21, 62431, Note_on_c, 12, 69, 0
21, 62439, Note_on_c, 12, 65, 0
21, 62560, Note_on_c, 12, 65, 68
21, 62560, Note_on_c, 12, 69, 66
21, 62610, Note_on_c, 12, 65, 0
21, 62613, Note_on_c, 12, 69, 0
21, 62719, Note_on_c, 12, 65, 60
21, 62720, Note_on_c, 12, 69, 65
21, 62771, Note_on_c, 12, 65, 0
21, 62776, Note_on_c, 12, 69, 0
21, 62881, Note_on_c, 12, 65, 74
21, 62881, Note_on_c, 12, 69, 69
21, 62934, Note_on_c, 12, 65, 0
21, 62935, Note_on_c, 12, 69, 0
21, 63046, Note_on_c, 12, 65, 69
21, 63049, Note_on_c, 12, 69, 71
21, 63100, Note_on_c, 12, 65, 0
21, 63102, Note_on_c, 12, 69, 0
21, 63208, Note_on_c, 12, 65, 74
21, 63213, Note_on_c, 12, 69, 78
21, 63250, Note_on_c, 12, 60, 0
21, 63280, Note_on_c, 12, 65, 0
21, 63281, Note_on_c, 12, 69, 0
21, 63359, Note_on_c, 12, 60, 81
21, 63530, Note_on_c, 12, 67, 67
21, 63534, Note_on_c, 12, 70, 47
21, 63573, Note_on_c, 12, 70, 0
21, 63595, Note_on_c, 12, 67, 0
21, 63683, Note_on_c, 12, 67, 56
21, 63686, Note_on_c, 12, 70, 51
21, 63726, Note_on_c, 12, 70, 0
21, 63742, Note_on_c, 12, 67, 0
21, 63839, Note_on_c, 12, 70, 61
21, 63841, Note_on_c, 12, 67, 56
21, 63888, Note_on_c, 12, 70, 0
21, 63897, Note_on_c, 12, 67, 0
21, 63995, Note_on_c, 12, 67, 65
21, 63996, Note_on_c, 12, 70, 64
21, 64048, Note_on_c, 12, 70, 0
21, 64054, Note_on_c, 12, 67, 0
21, 64151, Note_on_c, 12, 67, 67
21, 64151, Note_on_c, 12, 70, 62
21, 64182, Note_on_c, 12, 60, 0
21, 64306, Note_on_c, 12, 60, 89
21, 64310, Note_on_c, 12, 70, 0
21, 64328, Note_on_c, 12, 67, 0
21, 64480, Note_on_c, 12, 70, 57
21, 64481, Note_on_c, 12, 67, 65
21, 64534, Note_on_c, 12, 70, 0
21, 64544, Note_on_c, 12, 67, 0
21, 64642, Note_on_c, 12, 70, 64
21, 64647, Note_on_c, 12, 67, 59
21, 64692, Note_on_c, 12, 67, 0
21, 64693, Note_on_c, 12, 70, 0
21, 64800, Note_on_c, 12, 70, 64
21, 64802, Note_on_c, 12, 67, 61
21, 64852, Note_on_c, 12, 70, 0
21, 64857, Note_on_c, 12, 67, 0
21, 64954, Note_on_c, 12, 67, 57
21, 64954, Note_on_c, 12, 70, 58
21, 64994, Note_on_c, 12, 70, 0
21, 65002, Note_on_c, 12, 67, 0
21, 65098, Note_on_c, 12, 67, 59
21, 65105, Note_on_c, 12, 70, 65
21, 65194, Note_on_c, 12, 67, 0
21, 65200, Note_on_c, 12, 60, 0
21, 65216, Note_on_c, 12, 70, 0
21, 65290, Note_on_c, 12, 65, 57
21, 65292, Note_on_c, 12, 69, 25
21, 65777, Note_on_c, 12, 69, 0
21, 65782, Note_on_c, 12, 65, 0
21, 69121, Note_on_c, 12, 50, 84
21, 69630, Note_on_c, 12, 50, 0
21, 70086, Note_on_c, 12, 62, 64
21, 70550, Note_on_c, 12, 62, 0
21, 70561, Note_on_c, 12, 57, 66
21, 71040, Note_on_c, 12, 50, 67
21, 71049, Note_on_c, 12, 57, 0
21, 71527, Note_on_c, 12, 50, 0
21, 72002, Note_on_c, 12, 50, 76
21, 72540, Note_on_c, 12, 50, 0
21, 72978, Note_on_c, 12, 48, 84
21, 72978, Note_on_c, 12, 36, 84
21, 73277, Note_on_c, 12, 36, 0
21, 73282, Note_on_c, 12, 48, 0
21, 73931, Note_on_c, 12, 48, 76
21, 74413, Note_on_c, 12, 48, 0
21, 74890, Note_on_c, 12, 53, 67
21, 75400, Note_on_c, 12, 53, 0
21, 75852, Note_on_c, 12, 53, 65
21, 76365, Note_on_c, 12, 53, 0
21, 76809, Note_on_c, 12, 52, 60
21, 77311, Note_on_c, 12, 52, 0
21, 77772, Note_on_c, 12, 52, 59
21, 78310, Note_on_c, 12, 52, 0
21, 78720, Note_on_c, 12, 53, 60
21, 79216, Note_on_c, 12, 53, 0
21, 79682, Note_on_c, 12, 53, 64
21, 80199, Note_on_c, 12, 53, 0
21, 80650, Note_on_c, 12, 54, 55
21, 81127, Note_on_c, 12, 54, 0
21, 81608, Note_on_c, 12, 54, 68
21, 82122, Note_on_c, 12, 54, 0
21, 82573, Note_on_c, 12, 55, 60
21, 83074, Note_on_c, 12, 55, 0
21, 84486, Note_on_c, 12, 55, 84
21, 84487, Note_on_c, 12, 43, 84
21, 85482, Note_on_c, 12, 43, 0
21, 85487, Note_on_c, 12, 55, 0
21, 86415, Note_on_c, 12, 43, 76
21, 86415, Note_on_c, 12, 55, 76
21, 87384, Note_on_c, 12, 43, 0
21, 87388, Note_on_c, 12, 55, 0
21, 88330, Note_on_c, 12, 43, 72
21, 88330, Note_on_c, 12, 55, 64
21, 89310, Note_on_c, 12, 43, 0
21, 89317, Note_on_c, 12, 55, 0
21, 90249, Note_on_c, 12, 43, 68
21, 90250, Note_on_c, 12, 55, 76
21, 91233, Note_on_c, 12, 43, 0
21, 91235, Note_on_c, 12, 55, 0
21, 92186, Note_on_c, 12, 55, 67
21, 92189, Note_on_c, 12, 43, 64
21, 92448, Note_on_c, 12, 43, 0
21, 92573, Note_on_c, 12, 55, 0
21, 93605, Note_on_c, 12, 53, 58
21, 93830, Note_on_c, 12, 53, 0
21, 94080, Note_on_c, 12, 52, 77
21, 94256, Note_on_c, 12, 55, 65
21, 94411, Note_on_c, 12, 60, 77
21, 94418, Note_on_c, 12, 55, 0
21, 94439, Note_on_c, 12, 52, 0
21, 94556, Note_on_c, 12, 60, 0
21, 94562, Note_on_c, 12, 48, 73
21, 94722, Note_on_c, 12, 52, 44
21, 94866, Note_on_c, 12, 48, 0
21, 94876, Note_on_c, 12, 60, 55
21, 94879, Note_on_c, 12, 52, 0
21, 95019, Note_on_c, 12, 60, 0
21, 95034, Note_on_c, 12, 53, 62
21, 95194, Note_on_c, 12, 57, 62
21, 95350, Note_on_c, 12, 53, 0
21, 95351, Note_on_c, 12, 60, 55
21, 95356, Note_on_c, 12, 57, 0
21, 95449, Note_on_c, 12, 60, 0
21, 95508, Note_on_c, 12, 50, 62
21, 95670, Note_on_c, 12, 57, 55
21, 95831, Note_on_c, 12, 60, 61
21, 95845, Note_on_c, 12, 57, 0
21, 95846, Note_on_c, 12, 50, 0
21, 95973, Note_on_c, 12, 60, 0
21, 95994, Note_on_c, 12, 55, 65
21, 96157, Note_on_c, 12, 60, 58
21, 96316, Note_on_c, 12, 62, 50
21, 96332, Note_on_c, 12, 55, 0
21, 96366, Note_on_c, 12, 60, 0
21, 96473, Note_on_c, 12, 62, 0
21, 96475, Note_on_c, 12, 53, 69
21, 96644, Note_on_c, 12, 60, 55
21, 96801, Note_on_c, 12, 62, 55
21, 96816, Note_on_c, 12, 60, 0
21, 96816, Note_on_c, 12, 53, 0
21, 96955, Note_on_c, 12, 55, 59
21, 96958, Note_on_c, 12, 62, 0
21, 97115, Note_on_c, 12, 60, 47
21, 97281, Note_on_c, 12, 62, 50
21, 97302, Note_on_c, 12, 55, 0
21, 97330, Note_on_c, 12, 60, 0
21, 97444, Note_on_c, 12, 55, 65
21, 97450, Note_on_c, 12, 62, 0
21, 97615, Note_on_c, 12, 59, 54
21, 97769, Note_on_c, 12, 62, 60
21, 97777, Note_on_c, 12, 59, 0
21, 97792, Note_on_c, 12, 55, 0
21, 97929, Note_on_c, 12, 56, 69
21, 97941, Note_on_c, 12, 62, 0
21, 98090, Note_on_c, 12, 59, 56
21, 98242, Note_on_c, 12, 62, 65
21, 98248, Note_on_c, 12, 59, 0
21, 98255, Note_on_c, 12, 56, 0
21, 98401, Note_on_c, 12, 57, 69
21, 98412, Note_on_c, 12, 62, 0
21, 98563, Note_on_c, 12, 60, 59
21, 98722, Note_on_c, 12, 64, 63
21, 98724, Note_on_c, 12, 60, 0
21, 98728, Note_on_c, 12, 57, 0
21, 98876, Note_on_c, 12, 64, 0
21, 98878, Note_on_c, 12, 55, 58
21, 99037, Note_on_c, 12, 60, 52
21, 99198, Note_on_c, 12, 55, 0
21, 99199, Note_on_c, 12, 60, 0
21, 99199, Note_on_c, 12, 64, 49
21, 99341, Note_on_c, 12, 64, 0
21, 99355, Note_on_c, 12, 53, 57
21, 99514, Note_on_c, 12, 59, 53
21, 99665, Note_on_c, 12, 62, 63
21, 99685, Note_on_c, 12, 59, 0
21, 99696, Note_on_c, 12, 53, 0
21, 99837, Note_on_c, 12, 52, 69
21, 99841, Note_on_c, 12, 62, 0
21, 100000, Note_on_c, 12, 55, 60
21, 100167, Note_on_c, 12, 60, 61
21, 100178, Note_on_c, 12, 55, 0
21, 100189, Note_on_c, 12, 52, 0
21, 100314, Note_on_c, 12, 60, 0
21, 100325, Note_on_c, 12, 48, 65
21, 100480, Note_on_c, 12, 52, 51
21, 100623, Note_on_c, 12, 48, 0
21, 100639, Note_on_c, 12, 52, 0
21, 100640, Note_on_c, 12, 60, 50
21, 100776, Note_on_c, 12, 60, 0
21, 100796, Note_on_c, 12, 53, 54
21, 100962, Note_on_c, 12, 57, 59
21, 101113, Note_on_c, 12, 57, 0
21, 101114, Note_on_c, 12, 53, 0
21, 101117, Note_on_c, 12, 60, 59
21, 101220, Note_on_c, 12, 60, 0
21, 101279, Note_on_c, 12, 50, 58
21, 101439, Note_on_c, 12, 57, 56
21, 101597, Note_on_c, 12, 60, 65
21, 101606, Note_on_c, 12, 57, 0
21, 101607, Note_on_c, 12, 50, 0
21, 101746, Note_on_c, 12, 60, 0
21, 101756, Note_on_c, 12, 55, 57
21, 101924, Note_on_c, 12, 60, 59
21, 102083, Note_on_c, 12, 62, 53
21, 102088, Note_on_c, 12, 55, 0
21, 102098, Note_on_c, 12, 60, 0
21, 102227, Note_on_c, 12, 62, 0
21, 102242, Note_on_c, 12, 53, 60
21, 102410, Note_on_c, 12, 60, 58
21, 102569, Note_on_c, 12, 62, 58
21, 102577, Note_on_c, 12, 53, 0
21, 102585, Note_on_c, 12, 60, 0
21, 102727, Note_on_c, 12, 55, 65
21, 102740, Note_on_c, 12, 62, 0
21, 102885, Note_on_c, 12, 60, 53
21, 103045, Note_on_c, 12, 55, 0
21, 103046, Note_on_c, 12, 62, 49
21, 103104, Note_on_c, 12, 60, 0
21, 103188, Note_on_c, 12, 62, 0
21, 103202, Note_on_c, 12, 55, 65
21, 103369, Note_on_c, 12, 59, 52
21, 103531, Note_on_c, 12, 59, 0
21, 103533, Note_on_c, 12, 65, 51
21, 103542, Note_on_c, 12, 55, 0
21, 103692, Note_on_c, 12, 60, 60
21, 103693, Note_on_c, 12, 64, 56
21, 103703, Note_on_c, 12, 65, 0
21, 104176, Note_on_c, 12, 64, 0
21, 104179, Note_on_c, 12, 60, 0
21, 104179, End_track
22, 0, Start_track
22, 0, MIDI_port, 0
22, 0, Title_t, "Flutes"
22, 0, Program_c, 10, 73
22, 0, Control_c, 10, 7, 105
22, 0, Control_c, 10, 10, 58
22, 0, Control_c, 10, 93, 0
22, 0, Control_c, 10, 64, 0
22, 0, Pitch_bend_c, 10, 8192
22, 0, Control_c, 10, 91, 80
22, 13440, Note_on_c, 10, 84, 51
22, 15346, Note_on_c, 10, 84, 0
22, 15360, Note_on_c, 10, 82, 35
22, 17280, Note_on_c, 10, 86, 50
22, 17295, Note_on_c, 10, 82, 0
22, 19200, Note_on_c, 10, 84, 49
22, 19245, Note_on_c, 10, 86, 0
22, 21087, Note_on_c, 10, 84, 0
22, 21600, Note_on_c, 10, 73, 53
22, 22073, Note_on_c, 10, 73, 0
22, 22080, Note_on_c, 10, 85, 61
22, 23072, Note_on_c, 10, 85, 0
22, 23520, Note_on_c, 10, 72, 51
22, 23996, Note_on_c, 10, 72, 0
22, 24000, Note_on_c, 10, 84, 59
22, 24992, Note_on_c, 10, 84, 0
22, 25440, Note_on_c, 10, 70, 50
22, 25920, Note_on_c, 10, 82, 42
22, 25935, Note_on_c, 10, 70, 0
22, 26885, Note_on_c, 10, 82, 0
22, 27360, Note_on_c, 10, 68, 55
22, 27840, Note_on_c, 10, 80, 57
22, 27869, Note_on_c, 10, 68, 0
22, 28834, Note_on_c, 10, 80, 0
22, 29280, Note_on_c, 10, 67, 55
22, 29760, Note_on_c, 10, 79, 61
22, 29780, Note_on_c, 10, 67, 0
22, 30756, Note_on_c, 10, 79, 0
22, 35680, Note_on_c, 10, 84, 44
22, 35840, Note_on_c, 10, 85, 50
22, 35873, Note_on_c, 10, 84, 0
22, 36000, Note_on_c, 10, 86, 57
22, 36019, Note_on_c, 10, 85, 0
22, 36160, Note_on_c, 10, 87, 61
22, 36186, Note_on_c, 10, 86, 0
22, 36320, Note_on_c, 10, 88, 69
22, 36344, Note_on_c, 10, 87, 0
22, 36480, Note_on_c, 10, 89, 52
22, 36499, Note_on_c, 10, 88, 0
22, 37440, Note_on_c, 10, 88, 53
22, 37442, Note_on_c, 10, 89, 0
22, 37680, Note_on_c, 10, 86, 52
22, 37700, Note_on_c, 10, 88, 0
22, 37920, Note_on_c, 10, 84, 47
22, 37925, Note_on_c, 10, 86, 0
22, 38160, Note_on_c, 10, 82, 52
22, 38175, Note_on_c, 10, 84, 0
22, 38400, Note_on_c, 10, 81, 69
22, 38414, Note_on_c, 10, 82, 0
22, 38880, Note_on_c, 10, 79, 51
22, 38909, Note_on_c, 10, 81, 0
22, 39600, Note_on_c, 10, 81, 61
22, 39615, Note_on_c, 10, 79, 0
22, 39660, Note_on_c, 10, 79, 52
22, 39687, Note_on_c, 10, 81, 0
22, 39716, Note_on_c, 10, 79, 0
22, 39720, Note_on_c, 10, 78, 52
22, 39780, Note_on_c, 10, 79, 50
22, 39799, Note_on_c, 10, 78, 0
22, 39840, Note_on_c, 10, 84, 50
22, 39868, Note_on_c, 10, 79, 0
22, 40306, Note_on_c, 10, 84, 0
22, 40320, Note_on_c, 10, 77, 49
22, 40480, Note_on_c, 10, 72, 57
22, 40498, Note_on_c, 10, 77, 0
22, 40551, Note_on_c, 10, 72, 0
22, 40640, Note_on_c, 10, 72, 49
22, 40705, Note_on_c, 10, 72, 0
22, 40800, Note_on_c, 10, 72, 55
22, 40949, Note_on_c, 10, 72, 0
22, 40960, Note_on_c, 10, 69, 49
22, 41015, Note_on_c, 10, 69, 0
22, 41120, Note_on_c, 10, 69, 52
22, 41179, Note_on_c, 10, 69, 0
22, 41280, Note_on_c, 10, 69, 51
22, 41440, Note_on_c, 10, 65, 50
22, 41452, Note_on_c, 10, 69, 0
22, 41505, Note_on_c, 10, 65, 0
22, 41600, Note_on_c, 10, 65, 41
22, 41671, Note_on_c, 10, 65, 0
22, 41760, Note_on_c, 10, 65, 52
22, 41825, Note_on_c, 10, 65, 0
22, 41920, Note_on_c, 10, 65, 49
22, 41985, Note_on_c, 10, 65, 0
22, 42080, Note_on_c, 10, 65, 53
22, 42141, Note_on_c, 10, 65, 0
22, 42240, Note_on_c, 10, 65, 44
22, 42750, Note_on_c, 10, 65, 0
22, 55680, Note_on_c, 10, 84, 37
22, 57600, Note_on_c, 10, 84, 0
22, 57600, Note_on_c, 10, 82, 23
22, 59520, Note_on_c, 10, 82, 0
22, 59520, Note_on_c, 10, 86, 30
22, 61440, Note_on_c, 10, 86, 0
22, 61440, Note_on_c, 10, 84, 37
22, 63360, Note_on_c, 10, 84, 0
22, 63360, Note_on_c, 10, 88, 42
22, 65280, Note_on_c, 10, 88, 0
22, 65280, Note_on_c, 10, 89, 49
22, 65440, Note_on_c, 10, 89, 0
22, 65440, Note_on_c, 10, 77, 52
22, 65600, Note_on_c, 10, 77, 0
22, 65600, Note_on_c, 10, 77, 43
22, 65760, Note_on_c, 10, 77, 0
22, 65760, Note_on_c, 10, 77, 51
22, 65920, Note_on_c, 10, 77, 0
22, 65920, Note_on_c, 10, 77, 43
22, 66080, Note_on_c, 10, 77, 0
22, 66080, Note_on_c, 10, 77, 42
22, 66240, Note_on_c, 10, 77, 0
22, 66240, Note_on_c, 10, 77, 41
22, 66400, Note_on_c, 10, 77, 0
22, 66400, Note_on_c, 10, 72, 43
22, 66560, Note_on_c, 10, 72, 0
22, 66560, Note_on_c, 10, 72, 40
22, 66720, Note_on_c, 10, 72, 0
22, 66720, Note_on_c, 10, 72, 43
22, 66880, Note_on_c, 10, 72, 0
22, 66880, Note_on_c, 10, 72, 24
22, 67040, Note_on_c, 10, 72, 0
22, 67040, Note_on_c, 10, 72, 42
22, 67200, Note_on_c, 10, 72, 0
22, 67200, Note_on_c, 10, 73, 34
22, 67360, Note_on_c, 10, 73, 0
22, 67360, Note_on_c, 10, 73, 32
22, 67520, Note_on_c, 10, 73, 0
22, 67520, Note_on_c, 10, 73, 18
22, 67680, Note_on_c, 10, 73, 0
22, 67680, Note_on_c, 10, 73, 39
22, 67840, Note_on_c, 10, 73, 0
22, 67840, Note_on_c, 10, 73, 42
22, 68000, Note_on_c, 10, 73, 0
22, 68000, Note_on_c, 10, 73, 40
22, 68160, Note_on_c, 10, 73, 0
22, 68160, Note_on_c, 10, 85, 36
22, 68320, Note_on_c, 10, 85, 0
22, 68320, Note_on_c, 10, 85, 37
22, 68480, Note_on_c, 10, 85, 0
22, 68480, Note_on_c, 10, 85, 30
22, 68640, Note_on_c, 10, 85, 0
22, 68640, Note_on_c, 10, 85, 40
22, 68800, Note_on_c, 10, 85, 0
22, 68800, Note_on_c, 10, 85, 44
22, 68960, Note_on_c, 10, 85, 0
22, 68960, Note_on_c, 10, 85, 43
22, 69120, Note_on_c, 10, 85, 0
22, 69120, Note_on_c, 10, 86, 18
22, 69600, Note_on_c, 10, 86, 0
22, 84960, Note_on_c, 10, 77, 46
22, 85940, Note_on_c, 10, 77, 0
22, 86880, Note_on_c, 10, 79, 44
22, 87842, Note_on_c, 10, 79, 0
22, 88800, Note_on_c, 10, 80, 46
22, 89280, Note_on_c, 10, 79, 41
22, 89308, Note_on_c, 10, 80, 0
22, 89784, Note_on_c, 10, 79, 0
22, 90720, Note_on_c, 10, 78, 45
22, 91200, Note_on_c, 10, 81, 46
22, 91215, Note_on_c, 10, 78, 0
22, 91735, Note_on_c, 10, 81, 0
22, 92640, Note_on_c, 10, 89, 48
22, 93120, Note_on_c, 10, 86, 36
22, 93134, Note_on_c, 10, 89, 0
22, 93598, Note_on_c, 10, 86, 0
22, 93600, Note_on_c, 10, 83, 49
22, 94080, Note_on_c, 10, 84, 33
22, 94111, Note_on_c, 10, 83, 0
22, 94539, Note_on_c, 10, 84, 0
22, 99840, Note_on_c, 10, 84, 52
22, 100800, Note_on_c, 10, 83, 49
22, 100840, Note_on_c, 10, 84, 0
22, 101040, Note_on_c, 10, 81, 54
22, 101062, Note_on_c, 10, 83, 0
22, 101280, Note_on_c, 10, 79, 49
22, 101287, Note_on_c, 10, 81, 0
22, 101520, Note_on_c, 10, 79, 0
22, 101520, Note_on_c, 10, 77, 42
22, 101760, Note_on_c, 10, 76, 46
22, 101781, Note_on_c, 10, 77, 0
22, 102236, Note_on_c, 10, 76, 0
22, 102240, Note_on_c, 10, 74, 47
22, 103200, Note_on_c, 10, 79, 44
22, 103213, Note_on_c, 10, 74, 0
22, 103680, Note_on_c, 10, 72, 45
22, 103702, Note_on_c, 10, 79, 0
22, 104128, Note_on_c, 10, 72, 0
22, 104128, End_track
23, 0, Start_track
23, 0, MIDI_port, 0
23, 0, Title_t, "Oboes"
23, 13440, Note_on_c, 10, 77, 51
23, 13440, Note_on_c, 10, 75, 50
23, 15347, Note_on_c, 10, 75, 0
23, 15360, Note_on_c, 10, 74, 49
23, 17280, Note_on_c, 10, 80, 49
23, 17334, Note_on_c, 10, 74, 0
23, 21118, Note_on_c, 10, 80, 0
23, 21133, Note_on_c, 10, 77, 0
23, 21600, Note_on_c, 10, 70, 46
23, 21600, Note_on_c, 10, 79, 58
23, 22080, Note_on_c, 10, 76, 59
23, 22102, Note_on_c, 10, 79, 0
23, 22576, Note_on_c, 10, 76, 0
23, 22579, Note_on_c, 10, 70, 0
23, 23520, Note_on_c, 10, 80, 48
23, 23520, Note_on_c, 10, 72, 51
23, 23983, Note_on_c, 10, 80, 0
23, 24000, Note_on_c, 10, 77, 62
23, 24521, Note_on_c, 10, 72, 0
23, 24555, Note_on_c, 10, 77, 0
23, 25440, Note_on_c, 10, 76, 52
23, 25440, Note_on_c, 10, 73, 50
23, 25919, Note_on_c, 10, 73, 0
23, 25920, Note_on_c, 10, 72, 49
23, 26443, Note_on_c, 10, 76, 0
23, 26447, Note_on_c, 10, 72, 0
23, 27360, Note_on_c, 10, 71, 53
23, 27360, Note_on_c, 10, 77, 49
23, 27840, Note_on_c, 10, 74, 62
23, 27843, Note_on_c, 10, 71, 0
23, 28387, Note_on_c, 10, 77, 0
23, 28407, Note_on_c, 10, 74, 0
23, 29280, Note_on_c, 10, 70, 57
23, 29280, Note_on_c, 10, 77, 51
23, 29760, Note_on_c, 10, 67, 54
23, 29760, Note_on_c, 10, 76, 56
23, 29806, Note_on_c, 10, 77, 0
23, 29814, Note_on_c, 10, 70, 0
23, 30240, Note_on_c, 10, 72, 57
23, 30260, Note_on_c, 10, 76, 0
23, 30261, Note_on_c, 10, 67, 0
23, 30720, Note_on_c, 10, 77, 55
23, 30736, Note_on_c, 10, 72, 0
23, 31680, Note_on_c, 10, 76, 51
23, 31718, Note_on_c, 10, 77, 0
23, 31920, Note_on_c, 10, 74, 41
23, 31938, Note_on_c, 10, 76, 0
23, 32151, Note_on_c, 10, 74, 0
23, 32160, Note_on_c, 10, 72, 52
23, 32400, Note_on_c, 10, 70, 55
23, 32414, Note_on_c, 10, 72, 0
23, 32640, Note_on_c, 10, 69, 61
23, 32670, Note_on_c, 10, 70, 0
23, 33120, Note_on_c, 10, 67, 50
23, 33155, Note_on_c, 10, 69, 0
23, 34080, Note_on_c, 10, 72, 55
23, 34103, Note_on_c, 10, 67, 0
23, 34560, Note_on_c, 10, 70, 61
23, 34581, Note_on_c, 10, 72, 0
23, 35040, Note_on_c, 10, 69, 53
23, 35067, Note_on_c, 10, 70, 0
23, 35542, Note_on_c, 10, 69, 0
23, 35680, Note_on_c, 10, 72, 55
23, 35837, Note_on_c, 10, 72, 0
23, 35840, Note_on_c, 10, 73, 61
23, 35996, Note_on_c, 10, 73, 0
23, 36000, Note_on_c, 10, 74, 64
23, 36160, Note_on_c, 10, 75, 57
23, 36182, Note_on_c, 10, 74, 0
23, 36320, Note_on_c, 10, 76, 52
23, 36355, Note_on_c, 10, 75, 0
23, 36480, Note_on_c, 10, 77, 55
23, 36514, Note_on_c, 10, 76, 0
23, 37438, Note_on_c, 10, 77, 0
23, 37440, Note_on_c, 10, 76, 52
23, 37680, Note_on_c, 10, 74, 52
23, 37687, Note_on_c, 10, 76, 0
23, 37920, Note_on_c, 10, 72, 57
23, 37930, Note_on_c, 10, 74, 0
23, 38160, Note_on_c, 10, 70, 52
23, 38168, Note_on_c, 10, 72, 0
23, 38400, Note_on_c, 10, 69, 57
23, 38455, Note_on_c, 10, 70, 0
23, 38880, Note_on_c, 10, 67, 57
23, 38891, Note_on_c, 10, 69, 0
23, 39600, Note_on_c, 10, 69, 52
23, 39612, Note_on_c, 10, 67, 0
23, 39660, Note_on_c, 10, 67, 48
23, 39703, Note_on_c, 10, 69, 0
23, 39720, Note_on_c, 10, 66, 45
23, 39728, Note_on_c, 10, 67, 0
23, 39774, Note_on_c, 10, 66, 0
23, 39780, Note_on_c, 10, 67, 52
23, 39840, Note_on_c, 10, 72, 64
23, 39912, Note_on_c, 10, 67, 0
23, 40277, Note_on_c, 10, 72, 0
23, 40320, Note_on_c, 10, 65, 55
23, 40440, Note_on_c, 10, 65, 0
23, 40480, Note_on_c, 10, 69, 50
23, 40480, Note_on_c, 10, 65, 33
23, 40538, Note_on_c, 10, 65, 0
23, 40552, Note_on_c, 10, 69, 0
23, 40640, Note_on_c, 10, 65, 41
23, 40640, Note_on_c, 10, 69, 52
23, 40687, Note_on_c, 10, 69, 0
23, 40688, Note_on_c, 10, 65, 0
23, 40800, Note_on_c, 10, 65, 61
23, 40800, Note_on_c, 10, 69, 57
23, 40865, Note_on_c, 10, 65, 0
23, 40866, Note_on_c, 10, 69, 0
23, 40960, Note_on_c, 10, 65, 44
23, 40960, Note_on_c, 10, 60, 48
23, 41010, Note_on_c, 10, 65, 0
23, 41016, Note_on_c, 10, 60, 0
23, 41120, Note_on_c, 10, 65, 42
23, 41120, Note_on_c, 10, 60, 39
23, 41163, Note_on_c, 10, 60, 0
23, 41179, Note_on_c, 10, 65, 0
23, 41280, Note_on_c, 10, 60, 40
23, 41280, Note_on_c, 10, 65, 38
23, 41333, Note_on_c, 10, 60, 0
23, 41336, Note_on_c, 10, 65, 0
23, 41440, Note_on_c, 10, 60, 37
23, 41440, Note_on_c, 10, 65, 36
23, 41492, Note_on_c, 10, 65, 0
23, 41504, Note_on_c, 10, 60, 0
23, 41600, Note_on_c, 10, 60, 39
23, 41600, Note_on_c, 10, 65, 40
23, 41653, Note_on_c, 10, 65, 0
23, 41662, Note_on_c, 10, 60, 0
23, 41760, Note_on_c, 10, 60, 38
23, 41760, Note_on_c, 10, 65, 40
23, 41815, Note_on_c, 10, 65, 0
23, 41822, Note_on_c, 10, 60, 0
23, 41920, Note_on_c, 10, 65, 39
23, 41920, Note_on_c, 10, 60, 34
23, 41980, Note_on_c, 10, 65, 0
23, 41983, Note_on_c, 10, 60, 0
23, 42080, Note_on_c, 10, 60, 35
23, 42080, Note_on_c, 10, 65, 36
23, 42134, Note_on_c, 10, 65, 0
23, 42146, Note_on_c, 10, 60, 0
23, 42240, Note_on_c, 10, 65, 35
23, 42240, Note_on_c, 10, 60, 29
23, 42716, Note_on_c, 10, 60, 0
23, 42718, Note_on_c, 10, 65, 0
23, 55680, Note_on_c, 10, 75, 36
23, 55680, Note_on_c, 10, 77, 39
23, 57600, Note_on_c, 10, 75, 0
23, 57600, Note_on_c, 10, 74, 41
23, 59520, Note_on_c, 10, 74, 0
23, 59520, Note_on_c, 10, 77, 0
23, 59520, Note_on_c, 10, 77, 31
23, 59520, Note_on_c, 10, 80, 38
23, 61440, Note_on_c, 10, 80, 0
23, 61440, Note_on_c, 10, 81, 33
23, 63360, Note_on_c, 10, 81, 0
23, 63360, Note_on_c, 10, 77, 0
23, 63360, Note_on_c, 10, 79, 37
23, 63360, Note_on_c, 10, 82, 24
23, 65280, Note_on_c, 10, 82, 0
23, 65280, Note_on_c, 10, 79, 0
23, 65280, Note_on_c, 10, 77, 43
23, 65280, Note_on_c, 10, 81, 46
23, 65440, Note_on_c, 10, 81, 0
23, 65440, Note_on_c, 10, 77, 0
23, 65440, Note_on_c, 10, 69, 46
23, 65440, Note_on_c, 10, 72, 43
23, 65600, Note_on_c, 10, 72, 0
23, 65600, Note_on_c, 10, 69, 0
23, 65600, Note_on_c, 10, 69, 31
23, 65600, Note_on_c, 10, 72, 37
23, 65760, Note_on_c, 10, 72, 0
23, 65760, Note_on_c, 10, 69, 0
23, 65760, Note_on_c, 10, 69, 35
23, 65760, Note_on_c, 10, 72, 43
23, 65920, Note_on_c, 10, 72, 0
23, 65920, Note_on_c, 10, 69, 0
23, 65920, Note_on_c, 10, 69, 45
23, 65920, Note_on_c, 10, 72, 44
23, 66080, Note_on_c, 10, 72, 0
23, 66080, Note_on_c, 10, 69, 0
23, 66080, Note_on_c, 10, 69, 46
23, 66080, Note_on_c, 10, 72, 42
23, 66240, Note_on_c, 10, 72, 0
23, 66240, Note_on_c, 10, 69, 0
23, 66240, Note_on_c, 10, 69, 45
23, 66240, Note_on_c, 10, 72, 49
23, 66400, Note_on_c, 10, 72, 0
23, 66400, Note_on_c, 10, 69, 0
23, 66400, Note_on_c, 10, 65, 50
23, 66400, Note_on_c, 10, 69, 46
23, 66560, Note_on_c, 10, 69, 0
23, 66560, Note_on_c, 10, 65, 0
23, 66560, Note_on_c, 10, 65, 44
23, 66560, Note_on_c, 10, 69, 43
23, 66720, Note_on_c, 10, 69, 0
23, 66720, Note_on_c, 10, 65, 0
23, 66720, Note_on_c, 10, 65, 45
23, 66720, Note_on_c, 10, 69, 45
23, 66880, Note_on_c, 10, 69, 0
23, 66880, Note_on_c, 10, 65, 0
23, 66880, Note_on_c, 10, 65, 48
23, 66880, Note_on_c, 10, 69, 44
23, 67040, Note_on_c, 10, 69, 0
23, 67040, Note_on_c, 10, 65, 0
23, 67040, Note_on_c, 10, 65, 48
23, 67040, Note_on_c, 10, 69, 44
23, 67200, Note_on_c, 10, 69, 0
23, 67200, Note_on_c, 10, 65, 0
23, 67200, Note_on_c, 10, 67, 37
23, 67200, Note_on_c, 10, 70, 32
23, 67360, Note_on_c, 10, 70, 0
23, 67360, Note_on_c, 10, 67, 0
23, 67360, Note_on_c, 10, 67, 32
23, 67360, Note_on_c, 10, 70, 34
23, 67520, Note_on_c, 10, 70, 0
23, 67520, Note_on_c, 10, 67, 0
23, 67520, Note_on_c, 10, 67, 39
23, 67520, Note_on_c, 10, 70, 33
23, 67680, Note_on_c, 10, 70, 0
23, 67680, Note_on_c, 10, 67, 0
23, 67680, Note_on_c, 10, 67, 39
23, 67680, Note_on_c, 10, 70, 32
23, 67840, Note_on_c, 10, 70, 0
23, 67840, Note_on_c, 10, 67, 0
23, 67840, Note_on_c, 10, 67, 31
23, 67840, Note_on_c, 10, 70, 33
23, 68000, Note_on_c, 10, 70, 0
23, 68000, Note_on_c, 10, 67, 0
23, 68000, Note_on_c, 10, 67, 36
23, 68000, Note_on_c, 10, 70, 38
23, 68160, Note_on_c, 10, 70, 0
23, 68160, Note_on_c, 10, 67, 0
23, 68160, Note_on_c, 10, 76, 36
23, 68160, Note_on_c, 10, 79, 37
23, 68320, Note_on_c, 10, 79, 0
23, 68320, Note_on_c, 10, 76, 0
23, 68320, Note_on_c, 10, 76, 35
23, 68320, Note_on_c, 10, 79, 38
23, 68480, Note_on_c, 10, 79, 0
23, 68480, Note_on_c, 10, 76, 0
23, 68480, Note_on_c, 10, 76, 42
23, 68480, Note_on_c, 10, 79, 44
23, 68640, Note_on_c, 10, 79, 0
23, 68640, Note_on_c, 10, 76, 0
23, 68640, Note_on_c, 10, 76, 43
23, 68640, Note_on_c, 10, 79, 43
23, 68800, Note_on_c, 10, 79, 0
23, 68800, Note_on_c, 10, 76, 0
23, 68800, Note_on_c, 10, 76, 27
23, 68800, Note_on_c, 10, 79, 38
23, 68960, Note_on_c, 10, 79, 0
23, 68960, Note_on_c, 10, 76, 0
23, 68960, Note_on_c, 10, 76, 46
23, 68960, Note_on_c, 10, 79, 49
23, 69120, Note_on_c, 10, 79, 0
23, 69120, Note_on_c, 10, 76, 0
23, 69120, Note_on_c, 10, 74, 22
23, 69120, Note_on_c, 10, 77, 18
23, 69600, Note_on_c, 10, 77, 0
23, 69600, Note_on_c, 10, 74, 0
23, 83040, Note_on_c, 10, 79, 47
23, 83520, Note_on_c, 10, 75, 40
23, 83537, Note_on_c, 10, 79, 0
23, 84000, Note_on_c, 10, 72, 49
23, 84028, Note_on_c, 10, 75, 0
23, 84960, Note_on_c, 10, 71, 48
23, 84960, Note_on_c, 10, 62, 39
23, 84983, Note_on_c, 10, 72, 0
23, 85415, Note_on_c, 10, 62, 0
23, 85440, Note_on_c, 10, 74, 49
23, 85942, Note_on_c, 10, 71, 0
23, 86880, Note_on_c, 10, 63, 39
23, 86880, Note_on_c, 10, 72, 47
23, 86898, Note_on_c, 10, 74, 0
23, 87360, Note_on_c, 10, 75, 46
23, 87389, Note_on_c, 10, 63, 0
23, 87884, Note_on_c, 10, 72, 0
23, 88800, Note_on_c, 10, 74, 48
23, 88800, Note_on_c, 10, 71, 41
23, 88836, Note_on_c, 10, 75, 0
23, 89280, Note_on_c, 10, 77, 44
23, 89290, Note_on_c, 10, 74, 0
23, 89771, Note_on_c, 10, 71, 0
23, 90720, Note_on_c, 10, 72, 42
23, 90720, Note_on_c, 10, 75, 42
23, 90765, Note_on_c, 10, 77, 0
23, 91200, Note_on_c, 10, 78, 41
23, 91202, Note_on_c, 10, 75, 0
23, 91691, Note_on_c, 10, 72, 0
23, 92160, Note_on_c, 10, 79, 47
23, 92185, Note_on_c, 10, 78, 0
23, 92640, Note_on_c, 10, 80, 42
23, 92640, Note_on_c, 10, 72, 33
23, 92667, Note_on_c, 10, 79, 0
23, 93120, Note_on_c, 10, 79, 41
23, 93120, Note_on_c, 10, 71, 33
23, 93167, Note_on_c, 10, 80, 0
23, 93182, Note_on_c, 10, 72, 0
23, 93590, Note_on_c, 10, 71, 0
23, 93610, Note_on_c, 10, 79, 0
23, 93610, End_track
24, 0, Start_track
24, 0, MIDI_port, 0
24, 0, Title_t, "Bassoons"
24, 13440, Note_on_c, 11, 60, 45
24, 13440, Note_on_c, 11, 57, 44
24, 15340, Note_on_c, 11, 60, 0
24, 15360, Note_on_c, 11, 58, 49
24, 15360, Note_on_c, 11, 62, 56
24, 15364, Note_on_c, 11, 57, 0
24, 17280, Note_on_c, 11, 59, 61
24, 17316, Note_on_c, 11, 58, 0
24, 19200, Note_on_c, 11, 60, 61
24, 19208, Note_on_c, 11, 59, 0
24, 19213, Note_on_c, 11, 62, 0
24, 20160, Note_on_c, 11, 48, 55
24, 20640, Note_on_c, 11, 53, 48
24, 20708, Note_on_c, 11, 60, 0
24, 21583, Note_on_c, 11, 53, 0
24, 21600, Note_on_c, 11, 52, 59
24, 22080, Note_on_c, 11, 55, 63
24, 22109, Note_on_c, 11, 52, 0
24, 23520, Note_on_c, 11, 53, 67
24, 23543, Note_on_c, 11, 55, 0
24, 24000, Note_on_c, 11, 56, 61
24, 24031, Note_on_c, 11, 53, 0
24, 25440, Note_on_c, 11, 55, 54
24, 25499, Note_on_c, 11, 56, 0
24, 25920, Note_on_c, 11, 58, 57
24, 25928, Note_on_c, 11, 55, 0
24, 27357, Note_on_c, 11, 58, 0
24, 27360, Note_on_c, 11, 56, 71
24, 27818, Note_on_c, 11, 56, 0
24, 27840, Note_on_c, 11, 59, 67
24, 28800, Note_on_c, 11, 60, 71
24, 28831, Note_on_c, 11, 59, 0
24, 29271, Note_on_c, 11, 60, 0
24, 29280, Note_on_c, 11, 61, 71
24, 29760, Note_on_c, 11, 60, 57
24, 29767, Note_on_c, 11, 61, 0
24, 30240, Note_on_c, 11, 46, 49
24, 30253, Note_on_c, 11, 60, 0
24, 30256, Note_on_c, 11, 48, 0
24, 30720, Note_on_c, 11, 45, 45
24, 30763, Note_on_c, 11, 46, 0
24, 31210, Note_on_c, 11, 45, 0
24, 35680, Note_on_c, 11, 60, 47
24, 35840, Note_on_c, 11, 61, 51
24, 35873, Note_on_c, 11, 60, 0
24, 36000, Note_on_c, 11, 62, 53
24, 36013, Note_on_c, 11, 61, 0
24, 36160, Note_on_c, 11, 63, 55
24, 36175, Note_on_c, 11, 62, 0
24, 36320, Note_on_c, 11, 64, 61
24, 36339, Note_on_c, 11, 63, 0
24, 36480, Note_on_c, 11, 65, 61
24, 36500, Note_on_c, 11, 64, 0
24, 37440, Note_on_c, 11, 64, 42
24, 37455, Note_on_c, 11, 65, 0
24, 37680, Note_on_c, 11, 62, 49
24, 37681, Note_on_c, 11, 64, 0
24, 37914, Note_on_c, 11, 62, 0
24, 37920, Note_on_c, 11, 60, 53
24, 38153, Note_on_c, 11, 60, 0
24, 38160, Note_on_c, 11, 58, 51
24, 38400, Note_on_c, 11, 57, 48
24, 38417, Note_on_c, 11, 58, 0
24, 38880, Note_on_c, 11, 55, 52
24, 38913, Note_on_c, 11, 57, 0
24, 39553, Note_on_c, 11, 55, 0
24, 39600, Note_on_c, 11, 57, 61
24, 39660, Note_on_c, 11, 55, 57
24, 39715, Note_on_c, 11, 57, 0
24, 39720, Note_on_c, 11, 54, 53
24, 39746, Note_on_c, 11, 55, 0
24, 39780, Note_on_c, 11, 55, 51
24, 39803, Note_on_c, 11, 54, 0
24, 39840, Note_on_c, 11, 60, 69
24, 39868, Note_on_c, 11, 55, 0
24, 40302, Note_on_c, 11, 60, 0
24, 40320, Note_on_c, 11, 53, 53
24, 40434, Note_on_c, 11, 53, 0
24, 40480, Note_on_c, 11, 53, 41
24, 40480, Note_on_c, 11, 57, 57
24, 40545, Note_on_c, 11, 57, 0
24, 40548, Note_on_c, 11, 53, 0
24, 40640, Note_on_c, 11, 53, 44
24, 40640, Note_on_c, 11, 57, 51
24, 40695, Note_on_c, 11, 57, 0
24, 40700, Note_on_c, 11, 53, 0
24, 40800, Note_on_c, 11, 57, 45
24, 40800, Note_on_c, 11, 53, 47
24, 40871, Note_on_c, 11, 53, 0
24, 40902, Note_on_c, 11, 57, 0
24, 40960, Note_on_c, 11, 53, 55
24, 41011, Note_on_c, 11, 53, 0
24, 41120, Note_on_c, 11, 53, 57
24, 41183, Note_on_c, 11, 53, 0
24, 41280, Note_on_c, 11, 53, 51
24, 41380, Note_on_c, 11, 53, 0
24, 41440, Note_on_c, 11, 48, 57
24, 41440, Note_on_c, 11, 41, 54
24, 41504, Note_on_c, 11, 48, 0
24, 41509, Note_on_c, 11, 41, 0
24, 41600, Note_on_c, 11, 41, 39
24, 41600, Note_on_c, 11, 48, 49
24, 41664, Note_on_c, 11, 48, 0
24, 41674, Note_on_c, 11, 41, 0
24, 41760, Note_on_c, 11, 41, 45
24, 41760, Note_on_c, 11, 48, 44
24, 41837, Note_on_c, 11, 48, 0
24, 41838, Note_on_c, 11, 41, 0
24, 41920, Note_on_c, 11, 41, 44
24, 41920, Note_on_c, 11, 48, 39
24, 41990, Note_on_c, 11, 41, 0
24, 41996, Note_on_c, 11, 48, 0
24, 42080, Note_on_c, 11, 41, 47
24, 42080, Note_on_c, 11, 48, 43
24, 42151, Note_on_c, 11, 41, 0
24, 42155, Note_on_c, 11, 48, 0
24, 42240, Note_on_c, 11, 41, 33
24, 42240, Note_on_c, 11, 48, 41
24, 42722, Note_on_c, 11, 48, 0
24, 42724, Note_on_c, 11, 41, 0
24, 55680, Note_on_c, 11, 57, 31
24, 55680, Note_on_c, 11, 60, 36
24, 57600, Note_on_c, 11, 60, 0
24, 57600, Note_on_c, 11, 57, 0
24, 57600, Note_on_c, 11, 58, 30
24, 57600, Note_on_c, 11, 62, 40
24, 59520, Note_on_c, 11, 58, 0
24, 59520, Note_on_c, 11, 59, 43
24, 61440, Note_on_c, 11, 59, 0
24, 61440, Note_on_c, 11, 62, 0
24, 61440, Note_on_c, 11, 60, 36
24, 62400, Note_on_c, 11, 57, 36
24, 63360, Note_on_c, 11, 57, 0
24, 63360, Note_on_c, 11, 60, 0
24, 63360, Note_on_c, 11, 55, 36
24, 63360, Note_on_c, 11, 64, 42
24, 65280, Note_on_c, 11, 64, 0
24, 65280, Note_on_c, 11, 55, 0
24, 65280, Note_on_c, 11, 53, 36
24, 65280, Note_on_c, 11, 65, 33
24, 65760, Note_on_c, 11, 65, 0
24, 65760, Note_on_c, 11, 53, 0
24, 66400, Note_on_c, 11, 53, 39
24, 66400, Note_on_c, 11, 57, 40
24, 66560, Note_on_c, 11, 57, 0
24, 66560, Note_on_c, 11, 53, 0
24, 66560, Note_on_c, 11, 53, 33
24, 66560, Note_on_c, 11, 57, 34
24, 66720, Note_on_c, 11, 57, 0
24, 66720, Note_on_c, 11, 53, 0
24, 66720, Note_on_c, 11, 53, 34
24, 66720, Note_on_c, 11, 57, 39
24, 66880, Note_on_c, 11, 57, 0
24, 66880, Note_on_c, 11, 53, 0
24, 66880, Note_on_c, 11, 53, 40
24, 66880, Note_on_c, 11, 57, 43
24, 67040, Note_on_c, 11, 57, 0
24, 67040, Note_on_c, 11, 53, 0
24, 67040, Note_on_c, 11, 53, 39
24, 67040, Note_on_c, 11, 57, 46
24, 67200, Note_on_c, 11, 57, 0
24, 67200, Note_on_c, 11, 53, 0
24, 67200, Note_on_c, 11, 52, 24
24, 67200, Note_on_c, 11, 55, 35
24, 67360, Note_on_c, 11, 55, 0
24, 67360, Note_on_c, 11, 52, 0
24, 67360, Note_on_c, 11, 52, 26
24, 67360, Note_on_c, 11, 55, 40
24, 67520, Note_on_c, 11, 55, 0
24, 67520, Note_on_c, 11, 52, 0
24, 67520, Note_on_c, 11, 52, 21
24, 67520, Note_on_c, 11, 55, 33
24, 67680, Note_on_c, 11, 55, 0
24, 67680, Note_on_c, 11, 52, 0
24, 67680, Note_on_c, 11, 52, 26
24, 67680, Note_on_c, 11, 55, 38
24, 67840, Note_on_c, 11, 55, 0
24, 67840, Note_on_c, 11, 52, 0
24, 67840, Note_on_c, 11, 52, 26
24, 67840, Note_on_c, 11, 55, 30
24, 68000, Note_on_c, 11, 55, 0
24, 68000, Note_on_c, 11, 52, 0
24, 68000, Note_on_c, 11, 52, 32
24, 68000, Note_on_c, 11, 55, 37
24, 68160, Note_on_c, 11, 55, 0
24, 68160, Note_on_c, 11, 52, 0
24, 68160, Note_on_c, 11, 55, 32
24, 68160, Note_on_c, 11, 61, 35
24, 68320, Note_on_c, 11, 61, 0
24, 68320, Note_on_c, 11, 55, 0
24, 68320, Note_on_c, 11, 55, 29
24, 68320, Note_on_c, 11, 61, 43
24, 68480, Note_on_c, 11, 61, 0
24, 68480, Note_on_c, 11, 55, 0
24, 68480, Note_on_c, 11, 55, 35
24, 68480, Note_on_c, 11, 61, 40
24, 68640, Note_on_c, 11, 61, 0
24, 68640, Note_on_c, 11, 55, 0
24, 68640, Note_on_c, 11, 55, 36
24, 68640, Note_on_c, 11, 61, 43
24, 68800, Note_on_c, 11, 61, 0
24, 68800, Note_on_c, 11, 55, 0
24, 68800, Note_on_c, 11, 55, 47
24, 68800, Note_on_c, 11, 61, 46
24, 68960, Note_on_c, 11, 61, 0
24, 68960, Note_on_c, 11, 55, 0
24, 68960, Note_on_c, 11, 55, 50
24, 68960, Note_on_c, 11, 61, 44
24, 69120, Note_on_c, 11, 61, 0
24, 69120, Note_on_c, 11, 55, 0
24, 69120, Note_on_c, 11, 53, 16
24, 69120, Note_on_c, 11, 62, 17
24, 69600, Note_on_c, 11, 62, 0
24, 69600, Note_on_c, 11, 53, 0
24, 82560, Note_on_c, 11, 43, 42
24, 84960, Note_on_c, 11, 56, 41
24, 86411, Note_on_c, 11, 56, 0
24, 86880, Note_on_c, 11, 55, 46
24, 87360, Note_on_c, 11, 67, 47
24, 87390, Note_on_c, 11, 55, 0
24, 88361, Note_on_c, 11, 67, 0
24, 88800, Note_on_c, 11, 53, 38
24, 89280, Note_on_c, 11, 65, 44
24, 89326, Note_on_c, 11, 53, 0
24, 90244, Note_on_c, 11, 65, 0
24, 90720, Note_on_c, 11, 51, 36
24, 91199, Note_on_c, 11, 51, 0
24, 91200, Note_on_c, 11, 63, 41
24, 92208, Note_on_c, 11, 63, 0
24, 92640, Note_on_c, 11, 50, 42
24, 93120, Note_on_c, 11, 62, 38
24, 93129, Note_on_c, 11, 50, 0
24, 93600, Note_on_c, 11, 41, 42
24, 93612, Note_on_c, 11, 43, 0
24, 94080, Note_on_c, 11, 40, 43
24, 94080, Note_on_c, 11, 60, 46
24, 94129, Note_on_c, 11, 41, 0
24, 94129, Note_on_c, 11, 62, 0
24, 94506, Note_on_c, 11, 60, 0
24, 94517, Note_on_c, 11, 40, 0
24, 99840, Note_on_c, 11, 60, 52
24, 100800, Note_on_c, 11, 59, 49
24, 100840, Note_on_c, 11, 60, 0
24, 101040, Note_on_c, 11, 57, 54
24, 101062, Note_on_c, 11, 59, 0
24, 101280, Note_on_c, 11, 55, 49
24, 101287, Note_on_c, 11, 57, 0
24, 101520, Note_on_c, 11, 55, 0
24, 101520, Note_on_c, 11, 53, 42
24, 101760, Note_on_c, 11, 52, 46
24, 101781, Note_on_c, 11, 53, 0
24, 102236, Note_on_c, 11, 52, 0
24, 102240, Note_on_c, 11, 50, 47
24, 103200, Note_on_c, 11, 55, 44
24, 103213, Note_on_c, 11, 50, 0
24, 103680, Note_on_c, 11, 48, 45
24, 103702, Note_on_c, 11, 55, 0
24, 104128, Note_on_c, 11, 48, 0
24, 104128, End_track
25, 0, Start_track
25, 0, MIDI_port, 0
25, 0, Title_t, "Horns"
25, 0, Program_c, 11, 60
25, 0, Control_c, 11, 7, 105
25, 0, Control_c, 11, 10, 50
25, 0, Pitch_bend_c, 11, 8192
25, 0, Control_c, 11, 93, 0
25, 0, Control_c, 11, 64, 0
25, 0, Control_c, 11, 91, 68
25, 13440, Note_on_c, 11, 65, 39
25, 13440, Note_on_c, 11, 53, 38
25, 17200, Note_on_c, 11, 65, 0
25, 17222, Note_on_c, 11, 53, 0
25, 17280, Note_on_c, 11, 65, 46
25, 17280, Note_on_c, 11, 53, 37
25, 19200, Note_on_c, 11, 60, 50
25, 19200, Note_on_c, 11, 48, 34
25, 19249, Note_on_c, 11, 53, 0
25, 19254, Note_on_c, 11, 65, 0
25, 30773, Note_on_c, 11, 48, 0
25, 30780, Note_on_c, 11, 60, 0
25, 36480, Note_on_c, 11, 53, 51
25, 36480, Note_on_c, 11, 65, 50
25, 38384, Note_on_c, 11, 53, 0
25, 38387, Note_on_c, 11, 65, 0
25, 38400, Note_on_c, 11, 60, 57
25, 38400, Note_on_c, 11, 48, 51
25, 38880, Note_on_c, 11, 53, 45
25, 38880, Note_on_c, 11, 65, 43
25, 38918, Note_on_c, 11, 60, 0
25, 38930, Note_on_c, 11, 48, 0
25, 39360, Note_on_c, 11, 48, 37
25, 39360, Note_on_c, 11, 60, 47
25, 39399, Note_on_c, 11, 53, 0
25, 39403, Note_on_c, 11, 65, 0
25, 40250, Note_on_c, 11, 60, 0
25, 40320, Note_on_c, 11, 60, 57
25, 40320, Note_on_c, 11, 53, 54
25, 40349, Note_on_c, 11, 48, 0
25, 40413, Note_on_c, 11, 60, 0
25, 40438, Note_on_c, 11, 53, 0
25, 40480, Note_on_c, 11, 60, 49
25, 40480, Note_on_c, 11, 65, 47
25, 40542, Note_on_c, 11, 65, 0
25, 40548, Note_on_c, 11, 60, 0
25, 40640, Note_on_c, 11, 60, 51
25, 40640, Note_on_c, 11, 65, 50
25, 40707, Note_on_c, 11, 60, 0
25, 40710, Note_on_c, 11, 65, 0
25, 40800, Note_on_c, 11, 65, 54
25, 40800, Note_on_c, 11, 60, 51
25, 40864, Note_on_c, 11, 60, 0
25, 40866, Note_on_c, 11, 65, 0
25, 40960, Note_on_c, 11, 60, 46
25, 40960, Note_on_c, 11, 57, 54
25, 41018, Note_on_c, 11, 60, 0
25, 41019, Note_on_c, 11, 57, 0
25, 41120, Note_on_c, 11, 57, 41
25, 41120, Note_on_c, 11, 60, 49
25, 41177, Note_on_c, 11, 60, 0
25, 41187, Note_on_c, 11, 57, 0
25, 41280, Note_on_c, 11, 60, 51
25, 41280, Note_on_c, 11, 57, 46
25, 41336, Note_on_c, 11, 60, 0
25, 41344, Note_on_c, 11, 57, 0
25, 41440, Note_on_c, 11, 57, 55
25, 41440, Note_on_c, 11, 53, 41
25, 41507, Note_on_c, 11, 53, 0
25, 41508, Note_on_c, 11, 57, 0
25, 41600, Note_on_c, 11, 53, 39
25, 41600, Note_on_c, 11, 57, 52
25, 41665, Note_on_c, 11, 53, 0
25, 41668, Note_on_c, 11, 57, 0
25, 41760, Note_on_c, 11, 57, 47
25, 41760, Note_on_c, 11, 53, 34
25, 41832, Note_on_c, 11, 57, 0
25, 41833, Note_on_c, 11, 53, 0
25, 41920, Note_on_c, 11, 57, 49
25, 41920, Note_on_c, 11, 53, 26
25, 41986, Note_on_c, 11, 53, 0
25, 41986, Note_on_c, 11, 57, 0
25, 42080, Note_on_c, 11, 53, 36
25, 42080, Note_on_c, 11, 57, 50
25, 42143, Note_on_c, 11, 53, 0
25, 42144, Note_on_c, 11, 57, 0
25, 42240, Note_on_c, 11, 53, 36
25, 42240, Note_on_c, 11, 57, 48
25, 42774, Note_on_c, 11, 57, 0
25, 42795, Note_on_c, 11, 53, 0
25, 55680, Note_on_c, 11, 53, 28
25, 55680, Note_on_c, 11, 65, 35
25, 61440, Note_on_c, 11, 65, 0
25, 61440, Note_on_c, 11, 53, 0
25, 61440, Note_on_c, 11, 65, 39
25, 61440, Note_on_c, 11, 69, 41
25, 63360, Note_on_c, 11, 69, 0
25, 63360, Note_on_c, 11, 65, 0
25, 63360, Note_on_c, 11, 60, 30
25, 63360, Note_on_c, 11, 67, 35
25, 65280, Note_on_c, 11, 67, 0
25, 65280, Note_on_c, 11, 60, 0
25, 65280, Note_on_c, 11, 57, 46
25, 65280, Note_on_c, 11, 65, 46
25, 65760, Note_on_c, 11, 65, 0
25, 65760, Note_on_c, 11, 57, 0
25, 68160, Note_on_c, 11, 57, 31
25, 68160, Note_on_c, 11, 69, 25
25, 68320, Note_on_c, 11, 69, 0
25, 68320, Note_on_c, 11, 57, 0
25, 68320, Note_on_c, 11, 57, 33
25, 68320, Note_on_c, 11, 69, 42
25, 68480, Note_on_c, 11, 69, 0
25, 68480, Note_on_c, 11, 57, 0
25, 68480, Note_on_c, 11, 57, 38
25, 68480, Note_on_c, 11, 69, 42
25, 68640, Note_on_c, 11, 69, 0
25, 68640, Note_on_c, 11, 57, 0
25, 68640, Note_on_c, 11, 57, 41
25, 68640, Note_on_c, 11, 69, 43
25, 68800, Note_on_c, 11, 69, 0
25, 68800, Note_on_c, 11, 57, 0
25, 68800, Note_on_c, 11, 57, 30
25, 68800, Note_on_c, 11, 69, 41
25, 68960, Note_on_c, 11, 69, 0
25, 68960, Note_on_c, 11, 57, 0
25, 68960, Note_on_c, 11, 57, 40
25, 68960, Note_on_c, 11, 69, 46
25, 69120, Note_on_c, 11, 69, 0
25, 69120, Note_on_c, 11, 57, 0
25, 69120, Note_on_c, 11, 57, 17
25, 69120, Note_on_c, 11, 69, 16
25, 69600, Note_on_c, 11, 69, 0
25, 69600, Note_on_c, 11, 57, 0
25, 71040, Poly_aftertouch_c, 11, 21, 77
25, 71050, Poly_aftertouch_c, 11, 21, 84
25, 71060, Poly_aftertouch_c, 11, 21, 65
25, 71060, End_track
26, 0, Start_track
26, 0, MIDI_port, 0
26, 0, Title_t, "Copyright (C) 1992 MTA"
26, 0, End_track
27, 0, Start_track
27, 0, MIDI_port, 0
27, 0, Title_t, "All rights reserved."
27, 0, End_track
0, 0, End_of_file
