0, 0, Header, 1, 19, 120
1, 0, Start_track
1, 0, Sequencer_specific, 3, 0, 0, 65
1, 0, Time_signature, 4, 2, 24, 8
1, 0, Key_signature, 0, "major"
1, 0, Tempo, 1016949
1, 0, Marker_t, "Seq-1"
1, 0, Copyright_t, "(C) 1993 Michael Ford Archvies"
1, 0, Marker_t, "For ENSONIQ Corp."
1, 1320, Tempo, 895522
1, 1920, Tempo, 937500
1, 1980, Tempo, 937500
1, 1985, Tempo, 952380
1, 2035, Tempo, 967741
1, 2040, Tempo, 983606
1, 2080, Tempo, 983606
1, 2085, Tempo, 1000000
1, 2120, Tempo, 1000000
1, 2125, Tempo, 1016949
1, 2160, Tempo, 1034482
1, 2165, Tempo, 1034482
1, 2190, Tempo, 1052631
1, 2195, Tempo, 1052631
1, 2220, Tempo, 1071428
1, 2225, Tempo, 1090909
1, 2245, Tempo, 1090909
1, 2250, Tempo, 1111111
1, 2270, Tempo, 1111111
1, 2275, Tempo, 1132075
1, 2290, Tempo, 1132075
1, 2295, Tempo, 1153846
1, 2310, Tempo, 1153846
1, 2315, Tempo, 1176470
1, 2330, Tempo, 1176470
1, 2335, Tempo, 1200000
1, 2350, Tempo, 1224489
1, 2355, Tempo, 1224489
1, 2365, Tempo, 1224489
1, 2370, Tempo, 1250000
1, 2380, Tempo, 1250000
1, 2385, Tempo, 1276595
1, 2395, Tempo, 1276595
1, 2400, Tempo, 1016949
1, 3240, Tempo, 895522
1, 3840, Tempo, 983606
1, 3910, Tempo, 1000000
1, 3915, Tempo, 1000000
1, 3970, Tempo, 1016949
1, 3975, Tempo, 1034482
1, 4020, Tempo, 1034482
1, 4025, Tempo, 1052631
1, 4065, Tempo, 1052631
1, 4070, Tempo, 1071428
1, 4105, Tempo, 1090909
1, 4110, Tempo, 1090909
1, 4135, Tempo, 1090909
1, 4140, Tempo, 1111111
1, 4170, Tempo, 1132075
1, 4175, Tempo, 1132075
1, 4195, Tempo, 1153846
1, 4200, Tempo, 1153846
1, 4220, Tempo, 1176470
1, 4225, Tempo, 1176470
1, 4245, Tempo, 1200000
1, 4250, Tempo, 1200000
1, 4265, Tempo, 1224489
1, 4270, Tempo, 1224489
1, 4285, Tempo, 1250000
1, 4290, Tempo, 1250000
1, 4305, Tempo, 1276595
1, 4310, Tempo, 1276595
1, 4315, Tempo, 1276595
1, 4320, Tempo, 1034482
1, 5160, Tempo, 869565
1, 5400, Tempo, 937500
1, 5760, Tempo, 1200000
1, 7080, Tempo, 1500000
1, 7320, Tempo, 1200000
1, 7320, End_track
2, 0, Start_track
2, 0, MIDI_port, 0
2, 0, Title_t, "Piccolo"
2, 0, Program_c, 0, 72
2, 0, Pitch_bend_c, 0, 8192
2, 0, Control_c, 0, 64, 0
2, 0, Control_c, 0, 1, 0
2, 3333, Note_on_c, 0, 79, 127
2, 3347, Note_on_c, 0, 79, 0
2, 3371, Note_on_c, 0, 84, 127
2, 3870, Note_on_c, 0, 84, 0
2, 3870, End_track
3, 0, Start_track
3, 0, MIDI_port, 0
3, 0, Title_t, "Oboe 1"
3, 0, Program_c, 1, 68
3, 0, Control_c, 1, 7, 80
3, 0, Pitch_bend_c, 1, 8192
3, 0, Control_c, 1, 64, 0
3, 0, Control_c, 1, 1, 0
3, 0, End_track
4, 0, Start_track
4, 0, MIDI_port, 0
4, 0, Title_t, "Organ"
4, 0, Program_c, 2, 70
4, 0, Control_c, 2, 7, 15
4, 0, Control_c, 2, 10, 90
4, 0, Pitch_bend_c, 2, 8192
4, 0, Control_c, 2, 64, 0
4, 0, Control_c, 2, 1, 0
4, 12, Note_on_c, 2, 24, 127
4, 1581, Note_on_c, 2, 24, 0
4, 1581, End_track
5, 0, Start_track
5, 0, MIDI_port, 0
5, 0, Title_t, "French Horn 4"
5, 0, Program_c, 3, 60
5, 0, Control_c, 3, 10, 45
5, 1412, Note_on_c, 3, 55, 127
5, 1434, Note_on_c, 3, 55, 0
5, 1461, Note_on_c, 3, 55, 127
5, 1945, Note_on_c, 3, 55, 0
5, 5305, Note_on_c, 3, 60, 72
5, 5749, Note_on_c, 3, 60, 0
5, 6378, Note_on_c, 3, 67, 127
5, 6419, Note_on_c, 3, 67, 0
5, 6435, Note_on_c, 3, 64, 127
5, 6468, Note_on_c, 3, 64, 0
5, 6492, Note_on_c, 3, 60, 127
5, 6521, Note_on_c, 3, 60, 0
5, 6548, Note_on_c, 3, 55, 127
5, 6577, Note_on_c, 3, 55, 0
5, 6602, Note_on_c, 3, 52, 127
5, 6634, Note_on_c, 3, 52, 0
5, 6662, Note_on_c, 3, 48, 127
5, 6693, Note_on_c, 3, 48, 0
5, 6720, Note_on_c, 3, 43, 127
5, 6943, Note_on_c, 3, 43, 0
5, 6969, Note_on_c, 3, 45, 127
5, 7091, Note_on_c, 3, 45, 0
5, 7099, Note_on_c, 3, 43, 127
5, 7238, Note_on_c, 3, 43, 0
5, 7253, Note_on_c, 3, 48, 127
5, 8177, Note_on_c, 3, 48, 0
5, 8177, End_track
6, 0, Start_track
6, 0, MIDI_port, 0
6, 0, Title_t, "French Horn 1"
6, 0, Program_c, 3, 60
6, 0, Control_c, 3, 7, 73
6, 0, Control_c, 3, 10, 35
6, 0, Pitch_bend_c, 3, 8192
6, 0, Control_c, 3, 64, 0
6, 0, Control_c, 3, 1, 0
6, 474, Control_c, 3, 7, 67
6, 478, Control_c, 3, 7, 66
6, 479, Note_on_c, 3, 60, 127
6, 483, Control_c, 3, 7, 64
6, 487, Control_c, 3, 7, 62
6, 491, Control_c, 3, 7, 60
6, 496, Control_c, 3, 7, 59
6, 500, Control_c, 3, 7, 58
6, 518, Control_c, 3, 7, 57
6, 523, Control_c, 3, 7, 56
6, 531, Control_c, 3, 7, 55
6, 549, Control_c, 3, 7, 56
6, 558, Control_c, 3, 7, 55
6, 567, Control_c, 3, 7, 56
6, 584, Control_c, 3, 7, 55
6, 593, Control_c, 3, 7, 56
6, 602, Control_c, 3, 7, 55
6, 620, Control_c, 3, 7, 56
6, 637, Control_c, 3, 7, 55
6, 646, Control_c, 3, 7, 56
6, 702, Note_on_c, 3, 60, 0
6, 728, Note_on_c, 3, 67, 127
6, 935, Control_c, 3, 7, 57
6, 944, Note_on_c, 3, 67, 0
6, 944, Control_c, 3, 7, 58
6, 953, Control_c, 3, 7, 59
6, 966, Control_c, 3, 7, 65
6, 969, Note_on_c, 3, 72, 127
6, 975, Control_c, 3, 7, 66
6, 984, Control_c, 3, 7, 67
6, 1055, Control_c, 3, 7, 65
6, 1059, Control_c, 3, 7, 64
6, 1072, Control_c, 3, 7, 63
6, 1077, Control_c, 3, 7, 62
6, 1090, Control_c, 3, 7, 60
6, 1099, Control_c, 3, 7, 59
6, 1108, Control_c, 3, 7, 60
6, 1112, Control_c, 3, 7, 61
6, 1117, Control_c, 3, 7, 62
6, 1121, Control_c, 3, 7, 63
6, 1126, Control_c, 3, 7, 64
6, 1130, Control_c, 3, 7, 65
6, 1139, Control_c, 3, 7, 66
6, 1148, Control_c, 3, 7, 67
6, 1157, Control_c, 3, 7, 68
6, 1166, Control_c, 3, 7, 69
6, 1175, Control_c, 3, 7, 70
6, 1179, Control_c, 3, 7, 71
6, 1183, Control_c, 3, 7, 72
6, 1188, Control_c, 3, 7, 73
6, 1192, Control_c, 3, 7, 74
6, 1197, Control_c, 3, 7, 75
6, 1201, Control_c, 3, 7, 76
6, 1206, Control_c, 3, 7, 77
6, 1210, Control_c, 3, 7, 78
6, 1219, Control_c, 3, 7, 79
6, 1224, Control_c, 3, 7, 80
6, 1228, Control_c, 3, 7, 82
6, 1233, Control_c, 3, 7, 83
6, 1237, Control_c, 3, 7, 84
6, 1242, Control_c, 3, 7, 86
6, 1246, Control_c, 3, 7, 87
6, 1250, Control_c, 3, 7, 88
6, 1255, Control_c, 3, 7, 90
6, 1259, Control_c, 3, 7, 91
6, 1268, Control_c, 3, 7, 92
6, 1273, Control_c, 3, 7, 93
6, 1277, Control_c, 3, 7, 95
6, 1281, Control_c, 3, 7, 96
6, 1286, Control_c, 3, 7, 97
6, 1290, Control_c, 3, 7, 99
6, 1299, Control_c, 3, 7, 100
6, 1304, Control_c, 3, 7, 101
6, 1308, Control_c, 3, 7, 102
6, 1312, Control_c, 3, 7, 103
6, 1317, Control_c, 3, 7, 104
6, 1320, Program_c, 3, 60
6, 1321, Control_c, 3, 7, 105
6, 1326, Control_c, 3, 7, 107
6, 1330, Control_c, 3, 7, 108
6, 1334, Control_c, 3, 7, 109
6, 1339, Control_c, 3, 7, 110
6, 1348, Control_c, 3, 7, 111
6, 1357, Control_c, 3, 7, 113
6, 1361, Control_c, 3, 7, 114
6, 1365, Control_c, 3, 7, 116
6, 1367, Note_on_c, 3, 72, 0
6, 1370, Control_c, 3, 7, 117
6, 1374, Control_c, 3, 7, 119
6, 1379, Control_c, 3, 7, 120
6, 1383, Control_c, 3, 7, 118
6, 1387, Control_c, 3, 7, 114
6, 1392, Control_c, 3, 7, 108
6, 1396, Control_c, 3, 7, 101
6, 1401, Control_c, 3, 7, 92
6, 1405, Control_c, 3, 7, 85
6, 1405, Note_on_c, 3, 67, 127
6, 1406, Note_on_c, 3, 64, 127
6, 1406, Note_on_c, 3, 60, 127
6, 1410, Control_c, 3, 7, 80
6, 1414, Control_c, 3, 7, 77
6, 1418, Control_c, 3, 7, 76
6, 1419, Note_on_c, 3, 60, 0
6, 1420, Note_on_c, 3, 64, 0
6, 1423, Note_on_c, 3, 67, 0
6, 1432, Control_c, 3, 7, 77
6, 1441, Control_c, 3, 7, 78
6, 1454, Control_c, 3, 7, 79
6, 1455, Note_on_c, 3, 67, 127
6, 1455, Note_on_c, 3, 60, 127
6, 1456, Note_on_c, 3, 63, 127
6, 1459, Control_c, 3, 7, 80
6, 1463, Control_c, 3, 7, 82
6, 1467, Control_c, 3, 7, 84
6, 1472, Control_c, 3, 7, 85
6, 1477, Control_c, 3, 7, 86
6, 1516, Control_c, 3, 7, 85
6, 1623, Control_c, 3, 7, 84
6, 1627, Control_c, 3, 7, 83
6, 1636, Control_c, 3, 7, 82
6, 1645, Control_c, 3, 7, 81
6, 1649, Control_c, 3, 7, 80
6, 1654, Control_c, 3, 7, 79
6, 1658, Control_c, 3, 7, 78
6, 1663, Control_c, 3, 7, 77
6, 1667, Control_c, 3, 7, 76
6, 1672, Control_c, 3, 7, 75
6, 1676, Control_c, 3, 7, 73
6, 1680, Control_c, 3, 7, 72
6, 1689, Control_c, 3, 7, 70
6, 1694, Control_c, 3, 7, 69
6, 1698, Control_c, 3, 7, 68
6, 1702, Control_c, 3, 7, 67
6, 1707, Control_c, 3, 7, 66
6, 1716, Control_c, 3, 7, 65
6, 1720, Control_c, 3, 7, 64
6, 1725, Control_c, 3, 7, 62
6, 1729, Control_c, 3, 7, 61
6, 1733, Control_c, 3, 7, 59
6, 1738, Control_c, 3, 7, 58
6, 1743, Control_c, 3, 7, 57
6, 1747, Control_c, 3, 7, 56
6, 1752, Control_c, 3, 7, 54
6, 1756, Control_c, 3, 7, 53
6, 1765, Control_c, 3, 7, 52
6, 1778, Control_c, 3, 7, 53
6, 1796, Control_c, 3, 7, 54
6, 1800, Control_c, 3, 7, 55
6, 1805, Control_c, 3, 7, 57
6, 1809, Control_c, 3, 7, 59
6, 1814, Control_c, 3, 7, 62
6, 1818, Control_c, 3, 7, 63
6, 1823, Control_c, 3, 7, 65
6, 1827, Control_c, 3, 7, 66
6, 1831, Control_c, 3, 7, 67
6, 1836, Control_c, 3, 7, 69
6, 1840, Control_c, 3, 7, 70
6, 1845, Control_c, 3, 7, 71
6, 1849, Control_c, 3, 7, 73
6, 1854, Control_c, 3, 7, 74
6, 1858, Control_c, 3, 7, 76
6, 1863, Control_c, 3, 7, 77
6, 1867, Control_c, 3, 7, 78
6, 1871, Control_c, 3, 7, 79
6, 1876, Control_c, 3, 7, 80
6, 1880, Control_c, 3, 7, 81
6, 1885, Control_c, 3, 7, 83
6, 1889, Control_c, 3, 7, 84
6, 1894, Control_c, 3, 7, 86
6, 1898, Control_c, 3, 7, 88
6, 1903, Control_c, 3, 7, 90
6, 1907, Control_c, 3, 7, 92
6, 1911, Control_c, 3, 7, 94
6, 1916, Control_c, 3, 7, 96
6, 1920, Control_c, 3, 7, 98
6, 1924, Control_c, 3, 7, 99
6, 1928, Control_c, 3, 7, 101
6, 1932, Control_c, 3, 7, 103
6, 1936, Control_c, 3, 7, 104
6, 1941, Control_c, 3, 7, 112
6, 1945, Control_c, 3, 7, 113
6, 1949, Control_c, 3, 7, 114
6, 1951, Note_on_c, 3, 60, 0
6, 1951, Note_on_c, 3, 67, 0
6, 1953, Note_on_c, 3, 63, 0
6, 1953, Control_c, 3, 7, 116
6, 1961, Control_c, 3, 7, 115
6, 1965, Control_c, 3, 7, 113
6, 1970, Control_c, 3, 7, 110
6, 1974, Control_c, 3, 7, 105
6, 1978, Control_c, 3, 7, 102
6, 1982, Control_c, 3, 7, 98
6, 1986, Control_c, 3, 7, 96
6, 1990, Control_c, 3, 7, 94
6, 1994, Control_c, 3, 7, 93
6, 1998, Control_c, 3, 7, 92
6, 2007, Control_c, 3, 7, 91
6, 2011, Control_c, 3, 7, 90
6, 2015, Control_c, 3, 7, 89
6, 2019, Control_c, 3, 7, 88
6, 2023, Control_c, 3, 7, 87
6, 2027, Control_c, 3, 7, 86
6, 2079, Control_c, 3, 7, 85
6, 2083, Control_c, 3, 7, 84
6, 2087, Control_c, 3, 7, 83
6, 2091, Control_c, 3, 7, 82
6, 2102, Control_c, 3, 7, 81
6, 2122, Control_c, 3, 7, 80
6, 2133, Control_c, 3, 7, 81
6, 2255, Control_c, 3, 7, 79
6, 2276, Control_c, 3, 7, 78
6, 2375, Control_c, 3, 7, 76
6, 2385, Control_c, 3, 7, 77
6, 2397, Control_c, 3, 7, 76
6, 2408, Note_on_c, 3, 60, 127
6, 2603, Note_on_c, 3, 60, 0
6, 2627, Control_c, 3, 7, 79
6, 2631, Control_c, 3, 7, 80
6, 2640, Note_on_c, 3, 67, 127
6, 2651, Control_c, 3, 7, 81
6, 2854, Note_on_c, 3, 67, 0
6, 2866, Control_c, 3, 7, 83
6, 2870, Control_c, 3, 7, 84
6, 2872, Note_on_c, 3, 72, 127
6, 2878, Control_c, 3, 7, 85
6, 2886, Control_c, 3, 7, 86
6, 2894, Control_c, 3, 7, 84
6, 2898, Control_c, 3, 7, 81
6, 2902, Control_c, 3, 7, 78
6, 2906, Control_c, 3, 7, 76
6, 2910, Control_c, 3, 7, 75
6, 2914, Control_c, 3, 7, 74
6, 2918, Control_c, 3, 7, 73
6, 2927, Control_c, 3, 7, 71
6, 2931, Control_c, 3, 7, 69
6, 2935, Control_c, 3, 7, 66
6, 2938, Control_c, 3, 7, 64
6, 2942, Control_c, 3, 7, 63
6, 2946, Control_c, 3, 7, 62
6, 2966, Control_c, 3, 7, 63
6, 2970, Control_c, 3, 7, 64
6, 2974, Control_c, 3, 7, 65
6, 2978, Control_c, 3, 7, 67
6, 2982, Control_c, 3, 7, 68
6, 2990, Control_c, 3, 7, 69
6, 2994, Control_c, 3, 7, 70
6, 2998, Control_c, 3, 7, 71
6, 3002, Control_c, 3, 7, 72
6, 3006, Control_c, 3, 7, 73
6, 3018, Control_c, 3, 7, 75
6, 3022, Control_c, 3, 7, 76
6, 3026, Control_c, 3, 7, 77
6, 3038, Control_c, 3, 7, 78
6, 3042, Control_c, 3, 7, 79
6, 3050, Control_c, 3, 7, 80
6, 3054, Control_c, 3, 7, 81
6, 3062, Control_c, 3, 7, 82
6, 3066, Control_c, 3, 7, 83
6, 3070, Control_c, 3, 7, 84
6, 3078, Control_c, 3, 7, 85
6, 3086, Control_c, 3, 7, 86
6, 3090, Control_c, 3, 7, 87
6, 3094, Control_c, 3, 7, 88
6, 3102, Control_c, 3, 7, 89
6, 3106, Control_c, 3, 7, 90
6, 3109, Control_c, 3, 7, 91
6, 3113, Control_c, 3, 7, 92
6, 3118, Control_c, 3, 7, 93
6, 3122, Control_c, 3, 7, 94
6, 3126, Control_c, 3, 7, 95
6, 3130, Control_c, 3, 7, 96
6, 3133, Control_c, 3, 7, 98
6, 3141, Control_c, 3, 7, 99
6, 3145, Control_c, 3, 7, 100
6, 3149, Control_c, 3, 7, 101
6, 3153, Control_c, 3, 7, 102
6, 3158, Control_c, 3, 7, 103
6, 3162, Control_c, 3, 7, 104
6, 3170, Control_c, 3, 7, 106
6, 3182, Control_c, 3, 7, 107
6, 3186, Control_c, 3, 7, 108
6, 3194, Control_c, 3, 7, 109
6, 3197, Control_c, 3, 7, 110
6, 3202, Control_c, 3, 7, 111
6, 3214, Control_c, 3, 7, 112
6, 3218, Control_c, 3, 7, 113
6, 3221, Control_c, 3, 7, 114
6, 3233, Control_c, 3, 7, 115
6, 3237, Control_c, 3, 7, 116
6, 3241, Control_c, 3, 7, 117
6, 3245, Control_c, 3, 7, 118
6, 3249, Control_c, 3, 7, 119
6, 3277, Control_c, 3, 7, 118
6, 3281, Control_c, 3, 7, 115
6, 3285, Control_c, 3, 7, 111
6, 3288, Note_on_c, 3, 72, 0
6, 3289, Control_c, 3, 7, 105
6, 3293, Control_c, 3, 7, 100
6, 3297, Control_c, 3, 7, 95
6, 3301, Control_c, 3, 7, 91
6, 3305, Control_c, 3, 7, 89
6, 3309, Control_c, 3, 7, 88
6, 3313, Control_c, 3, 7, 87
6, 3321, Control_c, 3, 7, 86
6, 3332, Note_on_c, 3, 67, 127
6, 3332, Note_on_c, 3, 63, 127
6, 3332, Note_on_c, 3, 60, 127
6, 3333, Control_c, 3, 7, 87
6, 3337, Control_c, 3, 7, 86
6, 3341, Control_c, 3, 7, 85
6, 3343, Note_on_c, 3, 60, 0
6, 3345, Note_on_c, 3, 63, 0
6, 3348, Note_on_c, 3, 67, 0
6, 3353, Control_c, 3, 7, 86
6, 3357, Control_c, 3, 7, 88
6, 3361, Control_c, 3, 7, 91
6, 3365, Control_c, 3, 7, 94
6, 3369, Control_c, 3, 7, 95
6, 3373, Control_c, 3, 7, 96
6, 3373, Note_on_c, 3, 67, 127
6, 3373, Note_on_c, 3, 60, 127
6, 3374, Note_on_c, 3, 64, 127
6, 3377, Control_c, 3, 7, 98
6, 3381, Control_c, 3, 7, 100
6, 3385, Control_c, 3, 7, 102
6, 3389, Control_c, 3, 7, 103
6, 3397, Control_c, 3, 7, 102
6, 3401, Control_c, 3, 7, 100
6, 3405, Control_c, 3, 7, 99
6, 3410, Control_c, 3, 7, 98
6, 3433, Control_c, 3, 7, 97
6, 3445, Control_c, 3, 7, 96
6, 3473, Control_c, 3, 7, 95
6, 3477, Control_c, 3, 7, 94
6, 3485, Control_c, 3, 7, 93
6, 3493, Control_c, 3, 7, 92
6, 3501, Control_c, 3, 7, 91
6, 3517, Control_c, 3, 7, 89
6, 3521, Control_c, 3, 7, 88
6, 3529, Control_c, 3, 7, 87
6, 3541, Control_c, 3, 7, 86
6, 3553, Control_c, 3, 7, 85
6, 3564, Control_c, 3, 7, 84
6, 3573, Control_c, 3, 7, 83
6, 3577, Control_c, 3, 7, 82
6, 3585, Control_c, 3, 7, 81
6, 3589, Control_c, 3, 7, 80
6, 3596, Control_c, 3, 7, 79
6, 3600, Control_c, 3, 7, 78
6, 3609, Control_c, 3, 7, 77
6, 3616, Control_c, 3, 7, 76
6, 3620, Control_c, 3, 7, 75
6, 3624, Control_c, 3, 7, 74
6, 3628, Control_c, 3, 7, 73
6, 3637, Control_c, 3, 7, 72
6, 3645, Control_c, 3, 7, 71
6, 3653, Control_c, 3, 7, 70
6, 3657, Control_c, 3, 7, 69
6, 3677, Control_c, 3, 7, 70
6, 3680, Control_c, 3, 7, 71
6, 3684, Control_c, 3, 7, 72
6, 3688, Control_c, 3, 7, 74
6, 3693, Control_c, 3, 7, 75
6, 3697, Control_c, 3, 7, 76
6, 3701, Control_c, 3, 7, 77
6, 3704, Control_c, 3, 7, 78
6, 3708, Control_c, 3, 7, 80
6, 3712, Control_c, 3, 7, 81
6, 3724, Control_c, 3, 7, 82
6, 3728, Control_c, 3, 7, 83
6, 3732, Control_c, 3, 7, 84
6, 3736, Control_c, 3, 7, 85
6, 3740, Control_c, 3, 7, 86
6, 3744, Control_c, 3, 7, 87
6, 3748, Control_c, 3, 7, 88
6, 3756, Control_c, 3, 7, 89
6, 3760, Control_c, 3, 7, 91
6, 3764, Control_c, 3, 7, 92
6, 3768, Control_c, 3, 7, 93
6, 3772, Control_c, 3, 7, 94
6, 3776, Control_c, 3, 7, 95
6, 3780, Control_c, 3, 7, 96
6, 3784, Control_c, 3, 7, 97
6, 3788, Control_c, 3, 7, 98
6, 3796, Control_c, 3, 7, 99
6, 3800, Control_c, 3, 7, 100
6, 3804, Control_c, 3, 7, 101
6, 3812, Control_c, 3, 7, 103
6, 3816, Control_c, 3, 7, 104
6, 3820, Control_c, 3, 7, 106
6, 3824, Control_c, 3, 7, 107
6, 3836, Control_c, 3, 7, 108
6, 3844, Control_c, 3, 7, 109
6, 3855, Control_c, 3, 7, 110
6, 3859, Control_c, 3, 7, 111
6, 3864, Note_on_c, 3, 60, 0
6, 3864, Note_on_c, 3, 67, 0
6, 3865, Note_on_c, 3, 64, 0
6, 3867, Control_c, 3, 7, 112
6, 3880, Control_c, 3, 7, 113
6, 3891, Control_c, 3, 7, 111
6, 3895, Control_c, 3, 7, 108
6, 3899, Control_c, 3, 7, 105
6, 3903, Control_c, 3, 7, 101
6, 3907, Control_c, 3, 7, 97
6, 3911, Control_c, 3, 7, 95
6, 3915, Control_c, 3, 7, 94
6, 3919, Control_c, 3, 7, 92
6, 3923, Control_c, 3, 7, 90
6, 3927, Control_c, 3, 7, 89
6, 3931, Control_c, 3, 7, 87
6, 3934, Control_c, 3, 7, 86
6, 3938, Control_c, 3, 7, 85
6, 3946, Control_c, 3, 7, 84
6, 3950, Control_c, 3, 7, 83
6, 3954, Control_c, 3, 7, 82
6, 3958, Control_c, 3, 7, 81
6, 3962, Control_c, 3, 7, 80
6, 3977, Control_c, 3, 7, 79
6, 3988, Control_c, 3, 7, 80
6, 4114, Control_c, 3, 7, 78
6, 4121, Control_c, 3, 7, 79
6, 4160, Control_c, 3, 7, 78
6, 4320, Note_on_c, 3, 60, 127
6, 4448, Control_c, 3, 7, 86
6, 4468, Control_c, 3, 7, 87
6, 4500, Control_c, 3, 7, 88
6, 4515, Control_c, 3, 7, 89
6, 4523, Note_on_c, 3, 60, 0
6, 4523, Control_c, 3, 7, 90
6, 4544, Control_c, 3, 7, 91
6, 4560, Note_on_c, 3, 67, 127
6, 4564, Control_c, 3, 7, 92
6, 4576, Control_c, 3, 7, 91
6, 4735, Control_c, 3, 7, 93
6, 4747, Control_c, 3, 7, 94
6, 4766, Control_c, 3, 7, 92
6, 4771, Control_c, 3, 7, 91
6, 4775, Control_c, 3, 7, 90
6, 4779, Control_c, 3, 7, 87
6, 4780, Note_on_c, 3, 67, 0
6, 4783, Control_c, 3, 7, 85
6, 4787, Control_c, 3, 7, 84
6, 4791, Control_c, 3, 7, 83
6, 4795, Control_c, 3, 7, 82
6, 4799, Control_c, 3, 7, 81
6, 4800, Note_on_c, 3, 72, 127
6, 4815, Control_c, 3, 7, 80
6, 4914, Control_c, 3, 7, 78
6, 4974, Control_c, 3, 7, 84
6, 4978, Control_c, 3, 7, 85
6, 4982, Control_c, 3, 7, 86
6, 4986, Control_c, 3, 7, 87
6, 4990, Control_c, 3, 7, 88
6, 4994, Control_c, 3, 7, 89
6, 4998, Control_c, 3, 7, 90
6, 5002, Control_c, 3, 7, 91
6, 5006, Control_c, 3, 7, 92
6, 5014, Control_c, 3, 7, 93
6, 5018, Control_c, 3, 7, 94
6, 5022, Control_c, 3, 7, 95
6, 5030, Control_c, 3, 7, 96
6, 5034, Control_c, 3, 7, 97
6, 5038, Control_c, 3, 7, 98
6, 5042, Control_c, 3, 7, 99
6, 5050, Control_c, 3, 7, 100
6, 5062, Control_c, 3, 7, 102
6, 5074, Control_c, 3, 7, 103
6, 5082, Control_c, 3, 7, 104
6, 5090, Control_c, 3, 7, 105
6, 5102, Control_c, 3, 7, 106
6, 5114, Control_c, 3, 7, 107
6, 5130, Control_c, 3, 7, 108
6, 5138, Control_c, 3, 7, 109
6, 5146, Control_c, 3, 7, 110
6, 5157, Control_c, 3, 7, 111
6, 5174, Control_c, 3, 7, 112
6, 5181, Control_c, 3, 7, 113
6, 5193, Control_c, 3, 7, 114
6, 5209, Control_c, 3, 7, 112
6, 5213, Control_c, 3, 7, 109
6, 5214, Note_on_c, 3, 72, 0
6, 5217, Control_c, 3, 7, 104
6, 5221, Control_c, 3, 7, 100
6, 5225, Control_c, 3, 7, 96
6, 5229, Control_c, 3, 7, 93
6, 5233, Control_c, 3, 7, 91
6, 5237, Control_c, 3, 7, 89
6, 5241, Control_c, 3, 7, 87
6, 5245, Control_c, 3, 7, 84
6, 5249, Control_c, 3, 7, 82
6, 5253, Control_c, 3, 7, 79
6, 5255, Note_on_c, 3, 64, 127
6, 5255, Note_on_c, 3, 60, 127
6, 5258, Control_c, 3, 7, 77
6, 5262, Control_c, 3, 7, 75
6, 5266, Control_c, 3, 7, 74
6, 5273, Control_c, 3, 7, 75
6, 5274, Note_on_c, 3, 60, 0
6, 5276, Note_on_c, 3, 64, 0
6, 5277, Control_c, 3, 7, 76
6, 5281, Control_c, 3, 7, 77
6, 5285, Control_c, 3, 7, 79
6, 5289, Control_c, 3, 7, 82
6, 5293, Control_c, 3, 7, 85
6, 5294, Note_on_c, 3, 65, 127
6, 5294, Note_on_c, 3, 69, 127
6, 5297, Control_c, 3, 7, 89
6, 5301, Control_c, 3, 7, 94
6, 5305, Control_c, 3, 7, 100
6, 5309, Control_c, 3, 7, 104
6, 5313, Control_c, 3, 7, 107
6, 5317, Control_c, 3, 7, 108
6, 5325, Control_c, 3, 7, 107
6, 5337, Control_c, 3, 7, 106
6, 5341, Control_c, 3, 7, 105
6, 5349, Control_c, 3, 7, 104
6, 5389, Control_c, 3, 7, 103
6, 5405, Control_c, 3, 7, 102
6, 5433, Control_c, 3, 7, 101
6, 5488, Control_c, 3, 7, 100
6, 5497, Control_c, 3, 7, 99
6, 5501, Control_c, 3, 7, 97
6, 5505, Control_c, 3, 7, 96
6, 5509, Control_c, 3, 7, 95
6, 5513, Control_c, 3, 7, 94
6, 5517, Control_c, 3, 7, 93
6, 5521, Control_c, 3, 7, 92
6, 5524, Control_c, 3, 7, 90
6, 5528, Control_c, 3, 7, 89
6, 5532, Control_c, 3, 7, 88
6, 5537, Control_c, 3, 7, 86
6, 5541, Control_c, 3, 7, 84
6, 5545, Control_c, 3, 7, 82
6, 5548, Control_c, 3, 7, 79
6, 5552, Control_c, 3, 7, 77
6, 5556, Control_c, 3, 7, 74
6, 5560, Control_c, 3, 7, 71
6, 5564, Control_c, 3, 7, 69
6, 5572, Control_c, 3, 7, 68
6, 5576, Control_c, 3, 7, 67
6, 5584, Control_c, 3, 7, 66
6, 5604, Control_c, 3, 7, 67
6, 5608, Control_c, 3, 7, 68
6, 5612, Control_c, 3, 7, 70
6, 5616, Control_c, 3, 7, 72
6, 5620, Control_c, 3, 7, 74
6, 5624, Control_c, 3, 7, 75
6, 5628, Control_c, 3, 7, 77
6, 5632, Control_c, 3, 7, 78
6, 5636, Control_c, 3, 7, 79
6, 5640, Control_c, 3, 7, 81
6, 5644, Control_c, 3, 7, 83
6, 5648, Control_c, 3, 7, 85
6, 5652, Control_c, 3, 7, 87
6, 5656, Control_c, 3, 7, 88
6, 5660, Control_c, 3, 7, 89
6, 5664, Control_c, 3, 7, 90
6, 5668, Control_c, 3, 7, 91
6, 5672, Control_c, 3, 7, 92
6, 5676, Control_c, 3, 7, 93
6, 5680, Control_c, 3, 7, 94
6, 5684, Control_c, 3, 7, 96
6, 5688, Control_c, 3, 7, 97
6, 5692, Control_c, 3, 7, 98
6, 5696, Control_c, 3, 7, 100
6, 5700, Control_c, 3, 7, 101
6, 5704, Control_c, 3, 7, 102
6, 5712, Control_c, 3, 7, 104
6, 5716, Control_c, 3, 7, 105
6, 5719, Control_c, 3, 7, 106
6, 5723, Control_c, 3, 7, 107
6, 5730, Note_on_c, 3, 69, 0
6, 5731, Note_on_c, 3, 65, 0
6, 5736, Control_c, 3, 7, 108
6, 5740, Control_c, 3, 7, 109
6, 5744, Control_c, 3, 7, 110
6, 5756, Control_c, 3, 7, 111
6, 5760, Control_c, 3, 7, 112
6, 5814, Control_c, 3, 7, 112
6, 6275, Note_on_c, 3, 64, 84
6, 6275, Note_on_c, 3, 60, 93
6, 6321, Note_on_c, 3, 60, 0
6, 6325, Note_on_c, 3, 64, 0
6, 6331, Note_on_c, 3, 62, 125
6, 6331, Note_on_c, 3, 65, 127
6, 6378, Note_on_c, 3, 62, 0
6, 6382, Note_on_c, 3, 65, 0
6, 6394, Note_on_c, 3, 67, 120
6, 6394, Note_on_c, 3, 64, 120
6, 6635, Note_on_c, 3, 64, 0
6, 6635, Note_on_c, 3, 67, 0
6, 6661, Note_on_c, 3, 67, 127
6, 6670, Note_on_c, 3, 64, 84
6, 6670, Note_on_c, 3, 60, 58
6, 6675, Note_on_c, 3, 67, 0
6, 6695, Note_on_c, 3, 67, 127
6, 6696, Note_on_c, 3, 60, 0
6, 6698, Note_on_c, 3, 65, 55
6, 6698, Note_on_c, 3, 62, 48
6, 6701, Note_on_c, 3, 64, 0
6, 6710, Note_on_c, 3, 67, 0
6, 6717, Note_on_c, 3, 62, 0
6, 6722, Note_on_c, 3, 65, 0
6, 6729, Note_on_c, 3, 67, 127
6, 6733, Note_on_c, 3, 67, 79
6, 6733, Note_on_c, 3, 64, 96
6, 6929, Note_on_c, 3, 64, 0
6, 6945, Note_on_c, 3, 67, 0
6, 6947, Note_on_c, 3, 67, 0
6, 6964, Note_on_c, 3, 64, 111
6, 6964, Note_on_c, 3, 69, 108
6, 6965, Note_on_c, 3, 60, 127
6, 7023, Control_c, 3, 7, 103
6, 7032, Control_c, 3, 7, 102
6, 7039, Control_c, 3, 7, 101
6, 7048, Control_c, 3, 7, 100
6, 7080, Control_c, 3, 7, 99
6, 7086, Note_on_c, 3, 64, 0
6, 7088, Note_on_c, 3, 60, 0
6, 7093, Note_on_c, 3, 69, 0
6, 7099, Note_on_c, 3, 62, 127
6, 7100, Note_on_c, 3, 67, 127
6, 7100, Note_on_c, 3, 71, 127
6, 7122, Control_c, 3, 7, 98
6, 7212, Control_c, 3, 7, 96
6, 7225, Control_c, 3, 7, 95
6, 7228, Control_c, 3, 7, 94
6, 7234, Note_on_c, 3, 62, 0
6, 7237, Note_on_c, 3, 71, 0
6, 7237, Note_on_c, 3, 67, 0
6, 7238, Control_c, 3, 7, 93
6, 7243, Note_on_c, 3, 67, 127
6, 7243, Note_on_c, 3, 64, 127
6, 7243, Note_on_c, 3, 60, 127
6, 7270, Control_c, 3, 7, 92
6, 7273, Control_c, 3, 7, 90
6, 7276, Control_c, 3, 7, 89
6, 7287, Control_c, 3, 7, 90
6, 7309, Control_c, 3, 7, 89
6, 7315, Control_c, 3, 7, 88
6, 7319, Control_c, 3, 7, 87
6, 7322, Control_c, 3, 7, 86
6, 7325, Control_c, 3, 7, 85
6, 7328, Control_c, 3, 7, 84
6, 7331, Control_c, 3, 7, 83
6, 7351, Control_c, 3, 7, 84
6, 7354, Control_c, 3, 7, 85
6, 7360, Control_c, 3, 7, 86
6, 7389, Control_c, 3, 7, 87
6, 7396, Control_c, 3, 7, 88
6, 7434, Control_c, 3, 7, 83
6, 7441, Control_c, 3, 7, 82
6, 7447, Control_c, 3, 7, 81
6, 7450, Control_c, 3, 7, 80
6, 7453, Control_c, 3, 7, 79
6, 7460, Control_c, 3, 7, 78
6, 7473, Control_c, 3, 7, 77
6, 7483, Control_c, 3, 7, 76
6, 7489, Control_c, 3, 7, 75
6, 7499, Control_c, 3, 7, 74
6, 7512, Control_c, 3, 7, 73
6, 7521, Control_c, 3, 7, 72
6, 7540, Control_c, 3, 7, 71
6, 7569, Control_c, 3, 7, 70
6, 7585, Control_c, 3, 7, 69
6, 7595, Control_c, 3, 7, 68
6, 7605, Control_c, 3, 7, 67
6, 7611, Control_c, 3, 7, 66
6, 7618, Control_c, 3, 7, 65
6, 7624, Control_c, 3, 7, 64
6, 7627, Control_c, 3, 7, 63
6, 7634, Control_c, 3, 7, 62
6, 7640, Control_c, 3, 7, 61
6, 7650, Control_c, 3, 7, 60
6, 7653, Control_c, 3, 7, 59
6, 7659, Control_c, 3, 7, 58
6, 7662, Control_c, 3, 7, 57
6, 7669, Control_c, 3, 7, 56
6, 7676, Control_c, 3, 7, 55
6, 7682, Control_c, 3, 7, 54
6, 7685, Control_c, 3, 7, 53
6, 7689, Control_c, 3, 7, 52
6, 7692, Control_c, 3, 7, 51
6, 7695, Control_c, 3, 7, 50
6, 7705, Control_c, 3, 7, 49
6, 7708, Control_c, 3, 7, 48
6, 7711, Control_c, 3, 7, 47
6, 7714, Control_c, 3, 7, 46
6, 7717, Control_c, 3, 7, 45
6, 7721, Control_c, 3, 7, 44
6, 7724, Control_c, 3, 7, 43
6, 7730, Control_c, 3, 7, 42
6, 7733, Control_c, 3, 7, 41
6, 7737, Control_c, 3, 7, 40
6, 7740, Control_c, 3, 7, 39
6, 7743, Control_c, 3, 7, 38
6, 7746, Control_c, 3, 7, 37
6, 7753, Control_c, 3, 7, 36
6, 7756, Control_c, 3, 7, 35
6, 7769, Control_c, 3, 7, 34
6, 7772, Control_c, 3, 7, 32
6, 7775, Control_c, 3, 7, 31
6, 7782, Control_c, 3, 7, 30
6, 7794, Control_c, 3, 7, 29
6, 7798, Control_c, 3, 7, 28
6, 7801, Control_c, 3, 7, 27
6, 7817, Control_c, 3, 7, 28
6, 7823, Control_c, 3, 7, 29
6, 7827, Control_c, 3, 7, 30
6, 7830, Control_c, 3, 7, 31
6, 7839, Control_c, 3, 7, 32
6, 7849, Control_c, 3, 7, 33
6, 7859, Control_c, 3, 7, 34
6, 7862, Control_c, 3, 7, 35
6, 7865, Control_c, 3, 7, 36
6, 7869, Control_c, 3, 7, 37
6, 7872, Control_c, 3, 7, 38
6, 7875, Control_c, 3, 7, 39
6, 7878, Control_c, 3, 7, 41
6, 7881, Control_c, 3, 7, 42
6, 7885, Control_c, 3, 7, 43
6, 7891, Control_c, 3, 7, 44
6, 7894, Control_c, 3, 7, 45
6, 7898, Control_c, 3, 7, 46
6, 7901, Control_c, 3, 7, 48
6, 7904, Control_c, 3, 7, 49
6, 7907, Control_c, 3, 7, 50
6, 7910, Control_c, 3, 7, 52
6, 7914, Control_c, 3, 7, 53
6, 7917, Control_c, 3, 7, 55
6, 7923, Control_c, 3, 7, 57
6, 7926, Control_c, 3, 7, 58
6, 7930, Control_c, 3, 7, 60
6, 7933, Control_c, 3, 7, 61
6, 7936, Control_c, 3, 7, 62
6, 7939, Control_c, 3, 7, 63
6, 7942, Control_c, 3, 7, 65
6, 7946, Control_c, 3, 7, 66
6, 7949, Control_c, 3, 7, 67
6, 7952, Control_c, 3, 7, 69
6, 7958, Control_c, 3, 7, 71
6, 7962, Control_c, 3, 7, 73
6, 7965, Control_c, 3, 7, 74
6, 7968, Control_c, 3, 7, 76
6, 7971, Control_c, 3, 7, 78
6, 7975, Control_c, 3, 7, 79
6, 7978, Control_c, 3, 7, 80
6, 7981, Control_c, 3, 7, 81
6, 7984, Control_c, 3, 7, 82
6, 7991, Control_c, 3, 7, 84
6, 7994, Control_c, 3, 7, 85
6, 7997, Control_c, 3, 7, 87
6, 8000, Control_c, 3, 7, 88
6, 8003, Control_c, 3, 7, 89
6, 8007, Control_c, 3, 7, 90
6, 8010, Control_c, 3, 7, 91
6, 8013, Control_c, 3, 7, 92
6, 8016, Control_c, 3, 7, 93
6, 8023, Control_c, 3, 7, 94
6, 8026, Control_c, 3, 7, 95
6, 8029, Control_c, 3, 7, 96
6, 8032, Control_c, 3, 7, 97
6, 8042, Control_c, 3, 7, 98
6, 8052, Control_c, 3, 7, 99
6, 8062, Control_c, 3, 7, 100
6, 8065, Control_c, 3, 7, 101
6, 8068, Control_c, 3, 7, 102
6, 8071, Control_c, 3, 7, 103
6, 8078, Control_c, 3, 7, 104
6, 8087, Control_c, 3, 7, 105
6, 8094, Control_c, 3, 7, 106
6, 8100, Control_c, 3, 7, 107
6, 8107, Control_c, 3, 7, 109
6, 8116, Control_c, 3, 7, 110
6, 8119, Control_c, 3, 7, 111
6, 8123, Control_c, 3, 7, 112
6, 8126, Control_c, 3, 7, 113
6, 8135, Control_c, 3, 7, 114
6, 8139, Control_c, 3, 7, 115
6, 8145, Control_c, 3, 7, 116
6, 8148, Control_c, 3, 7, 117
6, 8151, Control_c, 3, 7, 118
6, 8158, Control_c, 3, 7, 119
6, 8167, Note_on_c, 3, 60, 0
6, 8167, Note_on_c, 3, 64, 0
6, 8167, Note_on_c, 3, 67, 0
6, 8167, Control_c, 3, 7, 121
6, 8171, Control_c, 3, 7, 122
6, 8174, Control_c, 3, 7, 123
6, 8180, Control_c, 3, 7, 124
6, 8190, Control_c, 3, 7, 126
6, 8200, Control_c, 3, 7, 127
6, 8206, Control_c, 3, 7, 126
6, 8206, End_track
7, 0, Start_track
7, 0, MIDI_port, 0
7, 0, Title_t, "Trumpet 1"
7, 0, Program_c, 4, 61
7, 0, Control_c, 4, 7, 45
7, 0, Control_c, 4, 10, 40
7, 0, Pitch_bend_c, 4, 8192
7, 0, Control_c, 4, 64, 0
7, 0, Control_c, 4, 1, 0
7, 474, Control_c, 4, 7, 39
7, 478, Control_c, 4, 7, 38
7, 479, Note_on_c, 4, 60, 127
7, 483, Control_c, 4, 7, 36
7, 487, Control_c, 4, 7, 34
7, 492, Control_c, 4, 7, 32
7, 496, Control_c, 4, 7, 31
7, 500, Control_c, 4, 7, 30
7, 518, Control_c, 4, 7, 29
7, 523, Control_c, 4, 7, 28
7, 531, Control_c, 4, 7, 27
7, 549, Control_c, 4, 7, 28
7, 558, Control_c, 4, 7, 27
7, 567, Control_c, 4, 7, 28
7, 585, Control_c, 4, 7, 27
7, 594, Control_c, 4, 7, 28
7, 603, Control_c, 4, 7, 27
7, 620, Control_c, 4, 7, 28
7, 638, Control_c, 4, 7, 27
7, 647, Control_c, 4, 7, 28
7, 702, Note_on_c, 4, 60, 0
7, 728, Note_on_c, 4, 67, 127
7, 935, Control_c, 4, 7, 29
7, 944, Note_on_c, 4, 67, 0
7, 944, Control_c, 4, 7, 30
7, 953, Control_c, 4, 7, 31
7, 967, Control_c, 4, 7, 37
7, 969, Note_on_c, 4, 72, 127
7, 976, Control_c, 4, 7, 38
7, 984, Control_c, 4, 7, 39
7, 1055, Control_c, 4, 7, 37
7, 1060, Control_c, 4, 7, 36
7, 1073, Control_c, 4, 7, 35
7, 1077, Control_c, 4, 7, 34
7, 1091, Control_c, 4, 7, 32
7, 1099, Control_c, 4, 7, 31
7, 1108, Control_c, 4, 7, 32
7, 1113, Control_c, 4, 7, 33
7, 1117, Control_c, 4, 7, 34
7, 1122, Control_c, 4, 7, 35
7, 1126, Control_c, 4, 7, 36
7, 1130, Control_c, 4, 7, 37
7, 1139, Control_c, 4, 7, 38
7, 1148, Control_c, 4, 7, 39
7, 1157, Control_c, 4, 7, 40
7, 1166, Control_c, 4, 7, 41
7, 1175, Control_c, 4, 7, 42
7, 1179, Control_c, 4, 7, 43
7, 1184, Control_c, 4, 7, 44
7, 1188, Control_c, 4, 7, 45
7, 1193, Control_c, 4, 7, 46
7, 1197, Control_c, 4, 7, 47
7, 1201, Control_c, 4, 7, 48
7, 1206, Control_c, 4, 7, 49
7, 1211, Control_c, 4, 7, 50
7, 1220, Control_c, 4, 7, 51
7, 1224, Control_c, 4, 7, 52
7, 1228, Control_c, 4, 7, 54
7, 1233, Control_c, 4, 7, 55
7, 1237, Control_c, 4, 7, 56
7, 1242, Control_c, 4, 7, 58
7, 1246, Control_c, 4, 7, 59
7, 1250, Control_c, 4, 7, 60
7, 1255, Control_c, 4, 7, 62
7, 1259, Control_c, 4, 7, 63
7, 1268, Control_c, 4, 7, 64
7, 1273, Control_c, 4, 7, 65
7, 1277, Control_c, 4, 7, 67
7, 1282, Control_c, 4, 7, 68
7, 1286, Control_c, 4, 7, 69
7, 1290, Control_c, 4, 7, 71
7, 1299, Control_c, 4, 7, 72
7, 1304, Control_c, 4, 7, 73
7, 1308, Control_c, 4, 7, 74
7, 1313, Control_c, 4, 7, 75
7, 1317, Control_c, 4, 7, 76
7, 1322, Control_c, 4, 7, 77
7, 1326, Control_c, 4, 7, 79
7, 1331, Control_c, 4, 7, 80
7, 1335, Control_c, 4, 7, 81
7, 1339, Control_c, 4, 7, 82
7, 1348, Control_c, 4, 7, 83
7, 1357, Control_c, 4, 7, 85
7, 1361, Control_c, 4, 7, 86
7, 1366, Control_c, 4, 7, 88
7, 1367, Note_on_c, 4, 72, 0
7, 1370, Control_c, 4, 7, 89
7, 1375, Control_c, 4, 7, 91
7, 1379, Control_c, 4, 7, 92
7, 1384, Control_c, 4, 7, 90
7, 1388, Control_c, 4, 7, 86
7, 1392, Control_c, 4, 7, 80
7, 1397, Control_c, 4, 7, 73
7, 1401, Control_c, 4, 7, 64
7, 1405, Note_on_c, 4, 67, 127
7, 1406, Control_c, 4, 7, 57
7, 1406, Note_on_c, 4, 76, 127
7, 1406, Note_on_c, 4, 72, 127
7, 1410, Control_c, 4, 7, 52
7, 1414, Control_c, 4, 7, 49
7, 1419, Note_on_c, 4, 72, 0
7, 1419, Control_c, 4, 7, 48
7, 1420, Note_on_c, 4, 76, 0
7, 1423, Note_on_c, 4, 67, 0
7, 1432, Control_c, 4, 7, 49
7, 1441, Control_c, 4, 7, 50
7, 1454, Control_c, 4, 7, 51
7, 1455, Note_on_c, 4, 67, 127
7, 1455, Note_on_c, 4, 72, 127
7, 1456, Note_on_c, 4, 75, 127
7, 1459, Control_c, 4, 7, 52
7, 1463, Control_c, 4, 7, 54
7, 1467, Control_c, 4, 7, 56
7, 1472, Control_c, 4, 7, 57
7, 1477, Control_c, 4, 7, 58
7, 1517, Control_c, 4, 7, 57
7, 1623, Control_c, 4, 7, 56
7, 1628, Control_c, 4, 7, 55
7, 1637, Control_c, 4, 7, 54
7, 1645, Control_c, 4, 7, 53
7, 1650, Control_c, 4, 7, 52
7, 1654, Control_c, 4, 7, 51
7, 1659, Control_c, 4, 7, 50
7, 1663, Control_c, 4, 7, 49
7, 1668, Control_c, 4, 7, 48
7, 1672, Control_c, 4, 7, 47
7, 1676, Control_c, 4, 7, 45
7, 1681, Control_c, 4, 7, 44
7, 1690, Control_c, 4, 7, 42
7, 1694, Control_c, 4, 7, 41
7, 1698, Control_c, 4, 7, 40
7, 1703, Control_c, 4, 7, 39
7, 1707, Control_c, 4, 7, 38
7, 1716, Control_c, 4, 7, 37
7, 1721, Control_c, 4, 7, 36
7, 1725, Control_c, 4, 7, 34
7, 1729, Control_c, 4, 7, 33
7, 1734, Control_c, 4, 7, 31
7, 1738, Control_c, 4, 7, 30
7, 1743, Control_c, 4, 7, 29
7, 1748, Control_c, 4, 7, 28
7, 1752, Control_c, 4, 7, 26
7, 1757, Control_c, 4, 7, 25
7, 1766, Control_c, 4, 7, 24
7, 1779, Control_c, 4, 7, 25
7, 1796, Control_c, 4, 7, 26
7, 1801, Control_c, 4, 7, 27
7, 1805, Control_c, 4, 7, 29
7, 1810, Control_c, 4, 7, 31
7, 1814, Control_c, 4, 7, 34
7, 1819, Control_c, 4, 7, 35
7, 1823, Control_c, 4, 7, 37
7, 1827, Control_c, 4, 7, 38
7, 1832, Control_c, 4, 7, 39
7, 1836, Control_c, 4, 7, 41
7, 1841, Control_c, 4, 7, 42
7, 1845, Control_c, 4, 7, 43
7, 1850, Control_c, 4, 7, 45
7, 1854, Control_c, 4, 7, 46
7, 1858, Control_c, 4, 7, 48
7, 1863, Control_c, 4, 7, 49
7, 1867, Control_c, 4, 7, 50
7, 1872, Control_c, 4, 7, 51
7, 1876, Control_c, 4, 7, 52
7, 1880, Control_c, 4, 7, 53
7, 1885, Control_c, 4, 7, 55
7, 1889, Control_c, 4, 7, 56
7, 1894, Control_c, 4, 7, 58
7, 1898, Control_c, 4, 7, 60
7, 1903, Control_c, 4, 7, 62
7, 1907, Control_c, 4, 7, 64
7, 1911, Control_c, 4, 7, 66
7, 1916, Control_c, 4, 7, 68
7, 1920, Control_c, 4, 7, 70
7, 1925, Control_c, 4, 7, 71
7, 1929, Control_c, 4, 7, 73
7, 1933, Control_c, 4, 7, 75
7, 1937, Control_c, 4, 7, 76
7, 1941, Control_c, 4, 7, 84
7, 1945, Control_c, 4, 7, 85
7, 1949, Control_c, 4, 7, 86
7, 1951, Note_on_c, 4, 72, 0
7, 1951, Note_on_c, 4, 67, 0
7, 1953, Note_on_c, 4, 75, 0
7, 1954, Control_c, 4, 7, 88
7, 1962, Control_c, 4, 7, 87
7, 1966, Control_c, 4, 7, 85
7, 1970, Control_c, 4, 7, 82
7, 1974, Control_c, 4, 7, 77
7, 1978, Control_c, 4, 7, 74
7, 1982, Control_c, 4, 7, 70
7, 1986, Control_c, 4, 7, 68
7, 1990, Control_c, 4, 7, 66
7, 1995, Control_c, 4, 7, 65
7, 1999, Control_c, 4, 7, 64
7, 2007, Control_c, 4, 7, 63
7, 2011, Control_c, 4, 7, 62
7, 2015, Control_c, 4, 7, 61
7, 2019, Control_c, 4, 7, 60
7, 2023, Control_c, 4, 7, 59
7, 2027, Control_c, 4, 7, 58
7, 2079, Control_c, 4, 7, 57
7, 2083, Control_c, 4, 7, 56
7, 2087, Control_c, 4, 7, 55
7, 2091, Control_c, 4, 7, 54
7, 2103, Control_c, 4, 7, 53
7, 2122, Control_c, 4, 7, 52
7, 2134, Control_c, 4, 7, 53
7, 2256, Control_c, 4, 7, 51
7, 2277, Control_c, 4, 7, 50
7, 2375, Control_c, 4, 7, 48
7, 2385, Control_c, 4, 7, 49
7, 2397, Control_c, 4, 7, 48
7, 2408, Note_on_c, 4, 60, 127
7, 2603, Note_on_c, 4, 60, 0
7, 2627, Control_c, 4, 7, 51
7, 2631, Control_c, 4, 7, 52
7, 2640, Note_on_c, 4, 67, 127
7, 2651, Control_c, 4, 7, 53
7, 2854, Note_on_c, 4, 67, 0
7, 2867, Control_c, 4, 7, 55
7, 2871, Control_c, 4, 7, 56
7, 2872, Note_on_c, 4, 72, 127
7, 2879, Control_c, 4, 7, 57
7, 2887, Control_c, 4, 7, 58
7, 2895, Control_c, 4, 7, 56
7, 2898, Control_c, 4, 7, 53
7, 2902, Control_c, 4, 7, 50
7, 2906, Control_c, 4, 7, 48
7, 2910, Control_c, 4, 7, 47
7, 2914, Control_c, 4, 7, 46
7, 2919, Control_c, 4, 7, 45
7, 2927, Control_c, 4, 7, 43
7, 2931, Control_c, 4, 7, 41
7, 2935, Control_c, 4, 7, 38
7, 2939, Control_c, 4, 7, 36
7, 2943, Control_c, 4, 7, 35
7, 2947, Control_c, 4, 7, 34
7, 2967, Control_c, 4, 7, 35
7, 2971, Control_c, 4, 7, 36
7, 2975, Control_c, 4, 7, 37
7, 2979, Control_c, 4, 7, 39
7, 2983, Control_c, 4, 7, 40
7, 2990, Control_c, 4, 7, 41
7, 2994, Control_c, 4, 7, 42
7, 2998, Control_c, 4, 7, 43
7, 3002, Control_c, 4, 7, 44
7, 3007, Control_c, 4, 7, 45
7, 3018, Control_c, 4, 7, 47
7, 3022, Control_c, 4, 7, 48
7, 3026, Control_c, 4, 7, 49
7, 3038, Control_c, 4, 7, 50
7, 3042, Control_c, 4, 7, 51
7, 3050, Control_c, 4, 7, 52
7, 3054, Control_c, 4, 7, 53
7, 3062, Control_c, 4, 7, 54
7, 3066, Control_c, 4, 7, 55
7, 3070, Control_c, 4, 7, 56
7, 3078, Control_c, 4, 7, 57
7, 3086, Control_c, 4, 7, 58
7, 3090, Control_c, 4, 7, 59
7, 3094, Control_c, 4, 7, 60
7, 3102, Control_c, 4, 7, 61
7, 3106, Control_c, 4, 7, 62
7, 3110, Control_c, 4, 7, 63
7, 3114, Control_c, 4, 7, 64
7, 3118, Control_c, 4, 7, 65
7, 3122, Control_c, 4, 7, 66
7, 3126, Control_c, 4, 7, 67
7, 3130, Control_c, 4, 7, 68
7, 3134, Control_c, 4, 7, 70
7, 3142, Control_c, 4, 7, 71
7, 3146, Control_c, 4, 7, 72
7, 3150, Control_c, 4, 7, 73
7, 3154, Control_c, 4, 7, 74
7, 3158, Control_c, 4, 7, 75
7, 3162, Control_c, 4, 7, 76
7, 3170, Control_c, 4, 7, 78
7, 3182, Control_c, 4, 7, 79
7, 3186, Control_c, 4, 7, 80
7, 3194, Control_c, 4, 7, 81
7, 3198, Control_c, 4, 7, 82
7, 3202, Control_c, 4, 7, 83
7, 3214, Control_c, 4, 7, 84
7, 3218, Control_c, 4, 7, 85
7, 3222, Control_c, 4, 7, 86
7, 3234, Control_c, 4, 7, 87
7, 3238, Control_c, 4, 7, 88
7, 3242, Control_c, 4, 7, 89
7, 3246, Control_c, 4, 7, 90
7, 3250, Control_c, 4, 7, 91
7, 3277, Control_c, 4, 7, 90
7, 3281, Control_c, 4, 7, 87
7, 3286, Control_c, 4, 7, 83
7, 3288, Note_on_c, 4, 72, 0
7, 3290, Control_c, 4, 7, 77
7, 3293, Control_c, 4, 7, 72
7, 3297, Control_c, 4, 7, 67
7, 3301, Control_c, 4, 7, 63
7, 3305, Control_c, 4, 7, 61
7, 3309, Control_c, 4, 7, 60
7, 3313, Control_c, 4, 7, 59
7, 3321, Control_c, 4, 7, 58
7, 3332, Note_on_c, 4, 67, 127
7, 3332, Note_on_c, 4, 75, 127
7, 3332, Note_on_c, 4, 72, 127
7, 3333, Control_c, 4, 7, 59
7, 3337, Control_c, 4, 7, 58
7, 3341, Control_c, 4, 7, 57
7, 3343, Note_on_c, 4, 72, 0
7, 3345, Note_on_c, 4, 75, 0
7, 3348, Note_on_c, 4, 67, 0
7, 3353, Control_c, 4, 7, 58
7, 3357, Control_c, 4, 7, 60
7, 3361, Control_c, 4, 7, 63
7, 3365, Control_c, 4, 7, 66
7, 3369, Control_c, 4, 7, 67
7, 3373, Note_on_c, 4, 67, 127
7, 3373, Note_on_c, 4, 72, 127
7, 3374, Control_c, 4, 7, 68
7, 3374, Note_on_c, 4, 76, 127
7, 3377, Control_c, 4, 7, 70
7, 3381, Control_c, 4, 7, 72
7, 3385, Control_c, 4, 7, 74
7, 3389, Control_c, 4, 7, 75
7, 3398, Control_c, 4, 7, 74
7, 3402, Control_c, 4, 7, 72
7, 3406, Control_c, 4, 7, 71
7, 3410, Control_c, 4, 7, 70
7, 3434, Control_c, 4, 7, 69
7, 3445, Control_c, 4, 7, 68
7, 3473, Control_c, 4, 7, 67
7, 3477, Control_c, 4, 7, 66
7, 3485, Control_c, 4, 7, 65
7, 3493, Control_c, 4, 7, 64
7, 3501, Control_c, 4, 7, 63
7, 3517, Control_c, 4, 7, 61
7, 3521, Control_c, 4, 7, 60
7, 3529, Control_c, 4, 7, 59
7, 3541, Control_c, 4, 7, 58
7, 3553, Control_c, 4, 7, 57
7, 3565, Control_c, 4, 7, 56
7, 3573, Control_c, 4, 7, 55
7, 3577, Control_c, 4, 7, 54
7, 3585, Control_c, 4, 7, 53
7, 3589, Control_c, 4, 7, 52
7, 3597, Control_c, 4, 7, 51
7, 3601, Control_c, 4, 7, 50
7, 3609, Control_c, 4, 7, 49
7, 3617, Control_c, 4, 7, 48
7, 3621, Control_c, 4, 7, 47
7, 3625, Control_c, 4, 7, 46
7, 3629, Control_c, 4, 7, 45
7, 3637, Control_c, 4, 7, 44
7, 3645, Control_c, 4, 7, 43
7, 3653, Control_c, 4, 7, 42
7, 3657, Control_c, 4, 7, 41
7, 3677, Control_c, 4, 7, 42
7, 3681, Control_c, 4, 7, 43
7, 3685, Control_c, 4, 7, 44
7, 3689, Control_c, 4, 7, 46
7, 3693, Control_c, 4, 7, 47
7, 3697, Control_c, 4, 7, 48
7, 3701, Control_c, 4, 7, 49
7, 3705, Control_c, 4, 7, 50
7, 3709, Control_c, 4, 7, 52
7, 3713, Control_c, 4, 7, 53
7, 3725, Control_c, 4, 7, 54
7, 3728, Control_c, 4, 7, 55
7, 3733, Control_c, 4, 7, 56
7, 3737, Control_c, 4, 7, 57
7, 3741, Control_c, 4, 7, 58
7, 3745, Control_c, 4, 7, 59
7, 3749, Control_c, 4, 7, 60
7, 3756, Control_c, 4, 7, 61
7, 3760, Control_c, 4, 7, 63
7, 3764, Control_c, 4, 7, 64
7, 3768, Control_c, 4, 7, 65
7, 3772, Control_c, 4, 7, 66
7, 3776, Control_c, 4, 7, 67
7, 3780, Control_c, 4, 7, 68
7, 3784, Control_c, 4, 7, 69
7, 3788, Control_c, 4, 7, 70
7, 3796, Control_c, 4, 7, 71
7, 3800, Control_c, 4, 7, 72
7, 3804, Control_c, 4, 7, 73
7, 3812, Control_c, 4, 7, 75
7, 3816, Control_c, 4, 7, 76
7, 3820, Control_c, 4, 7, 78
7, 3824, Control_c, 4, 7, 79
7, 3836, Control_c, 4, 7, 80
7, 3844, Control_c, 4, 7, 81
7, 3856, Control_c, 4, 7, 82
7, 3860, Control_c, 4, 7, 83
7, 3864, Note_on_c, 4, 72, 0
7, 3864, Note_on_c, 4, 67, 0
7, 3865, Note_on_c, 4, 76, 0
7, 3868, Control_c, 4, 7, 84
7, 3880, Control_c, 4, 7, 85
7, 3892, Control_c, 4, 7, 83
7, 3896, Control_c, 4, 7, 80
7, 3900, Control_c, 4, 7, 77
7, 3904, Control_c, 4, 7, 73
7, 3908, Control_c, 4, 7, 69
7, 3912, Control_c, 4, 7, 67
7, 3916, Control_c, 4, 7, 66
7, 3919, Control_c, 4, 7, 64
7, 3923, Control_c, 4, 7, 62
7, 3927, Control_c, 4, 7, 61
7, 3931, Control_c, 4, 7, 59
7, 3935, Control_c, 4, 7, 58
7, 3939, Control_c, 4, 7, 57
7, 3946, Control_c, 4, 7, 56
7, 3950, Control_c, 4, 7, 55
7, 3954, Control_c, 4, 7, 54
7, 3958, Control_c, 4, 7, 53
7, 3962, Control_c, 4, 7, 52
7, 3977, Control_c, 4, 7, 51
7, 3989, Control_c, 4, 7, 52
7, 4115, Control_c, 4, 7, 50
7, 4122, Control_c, 4, 7, 51
7, 4160, Control_c, 4, 7, 50
7, 4320, Note_on_c, 4, 60, 127
7, 4448, Control_c, 4, 7, 58
7, 4468, Control_c, 4, 7, 59
7, 4500, Control_c, 4, 7, 60
7, 4516, Control_c, 4, 7, 61
7, 4523, Note_on_c, 4, 60, 0
7, 4524, Control_c, 4, 7, 62
7, 4544, Control_c, 4, 7, 63
7, 4560, Note_on_c, 4, 67, 127
7, 4564, Control_c, 4, 7, 64
7, 4576, Control_c, 4, 7, 63
7, 4735, Control_c, 4, 7, 65
7, 4747, Control_c, 4, 7, 66
7, 4767, Control_c, 4, 7, 64
7, 4771, Control_c, 4, 7, 63
7, 4775, Control_c, 4, 7, 62
7, 4779, Control_c, 4, 7, 59
7, 4780, Note_on_c, 4, 67, 0
7, 4783, Control_c, 4, 7, 57
7, 4787, Control_c, 4, 7, 56
7, 4791, Control_c, 4, 7, 55
7, 4795, Control_c, 4, 7, 54
7, 4799, Control_c, 4, 7, 53
7, 4800, Note_on_c, 4, 72, 127
7, 4815, Control_c, 4, 7, 52
7, 4915, Control_c, 4, 7, 50
7, 4974, Control_c, 4, 7, 56
7, 4978, Control_c, 4, 7, 57
7, 4982, Control_c, 4, 7, 58
7, 4986, Control_c, 4, 7, 59
7, 4990, Control_c, 4, 7, 60
7, 4994, Control_c, 4, 7, 61
7, 4998, Control_c, 4, 7, 62
7, 5002, Control_c, 4, 7, 63
7, 5006, Control_c, 4, 7, 64
7, 5014, Control_c, 4, 7, 65
7, 5019, Control_c, 4, 7, 66
7, 5023, Control_c, 4, 7, 67
7, 5031, Control_c, 4, 7, 68
7, 5034, Control_c, 4, 7, 69
7, 5038, Control_c, 4, 7, 70
7, 5042, Control_c, 4, 7, 71
7, 5050, Control_c, 4, 7, 72
7, 5062, Control_c, 4, 7, 74
7, 5074, Control_c, 4, 7, 75
7, 5082, Control_c, 4, 7, 76
7, 5090, Control_c, 4, 7, 77
7, 5102, Control_c, 4, 7, 78
7, 5114, Control_c, 4, 7, 79
7, 5130, Control_c, 4, 7, 80
7, 5138, Control_c, 4, 7, 81
7, 5146, Control_c, 4, 7, 82
7, 5158, Control_c, 4, 7, 83
7, 5174, Control_c, 4, 7, 84
7, 5182, Control_c, 4, 7, 85
7, 5194, Control_c, 4, 7, 86
7, 5209, Control_c, 4, 7, 84
7, 5213, Control_c, 4, 7, 81
7, 5214, Note_on_c, 4, 72, 0
7, 5218, Control_c, 4, 7, 76
7, 5222, Control_c, 4, 7, 72
7, 5226, Control_c, 4, 7, 68
7, 5229, Control_c, 4, 7, 65
7, 5233, Control_c, 4, 7, 63
7, 5237, Control_c, 4, 7, 61
7, 5241, Control_c, 4, 7, 59
7, 5245, Control_c, 4, 7, 56
7, 5249, Control_c, 4, 7, 54
7, 5253, Control_c, 4, 7, 51
7, 5253, Note_on_c, 4, 48, 84
7, 5255, Note_on_c, 4, 64, 127
7, 5255, Note_on_c, 4, 60, 127
7, 5258, Control_c, 4, 7, 49
7, 5262, Control_c, 4, 7, 47
7, 5266, Control_c, 4, 7, 46
7, 5274, Note_on_c, 4, 60, 0
7, 5274, Control_c, 4, 7, 47
7, 5276, Note_on_c, 4, 64, 0
7, 5278, Control_c, 4, 7, 48
7, 5281, Note_on_c, 4, 48, 0
7, 5282, Control_c, 4, 7, 49
7, 5286, Control_c, 4, 7, 51
7, 5290, Control_c, 4, 7, 54
7, 5293, Control_c, 4, 7, 57
7, 5298, Control_c, 4, 7, 61
7, 5302, Control_c, 4, 7, 66
7, 5302, Note_on_c, 4, 65, 127
7, 5302, Note_on_c, 4, 60, 127
7, 5302, Note_on_c, 4, 69, 127
7, 5302, Note_on_c, 4, 41, 127
7, 5306, Control_c, 4, 7, 72
7, 5310, Control_c, 4, 7, 76
7, 5314, Control_c, 4, 7, 79
7, 5317, Control_c, 4, 7, 80
7, 5325, Control_c, 4, 7, 79
7, 5337, Control_c, 4, 7, 78
7, 5341, Control_c, 4, 7, 77
7, 5349, Control_c, 4, 7, 76
7, 5389, Control_c, 4, 7, 75
7, 5405, Control_c, 4, 7, 74
7, 5433, Control_c, 4, 7, 73
7, 5488, Control_c, 4, 7, 72
7, 5497, Control_c, 4, 7, 71
7, 5501, Control_c, 4, 7, 69
7, 5505, Control_c, 4, 7, 68
7, 5509, Control_c, 4, 7, 67
7, 5513, Control_c, 4, 7, 66
7, 5517, Control_c, 4, 7, 65
7, 5521, Control_c, 4, 7, 64
7, 5525, Control_c, 4, 7, 62
7, 5529, Control_c, 4, 7, 61
7, 5533, Control_c, 4, 7, 60
7, 5537, Control_c, 4, 7, 58
7, 5541, Control_c, 4, 7, 56
7, 5545, Control_c, 4, 7, 54
7, 5549, Control_c, 4, 7, 51
7, 5553, Control_c, 4, 7, 49
7, 5557, Control_c, 4, 7, 46
7, 5561, Control_c, 4, 7, 43
7, 5565, Control_c, 4, 7, 41
7, 5572, Control_c, 4, 7, 40
7, 5577, Control_c, 4, 7, 39
7, 5585, Control_c, 4, 7, 38
7, 5604, Control_c, 4, 7, 39
7, 5608, Control_c, 4, 7, 40
7, 5612, Control_c, 4, 7, 42
7, 5616, Control_c, 4, 7, 44
7, 5621, Control_c, 4, 7, 46
7, 5624, Control_c, 4, 7, 47
7, 5628, Control_c, 4, 7, 49
7, 5632, Control_c, 4, 7, 50
7, 5636, Control_c, 4, 7, 51
7, 5640, Control_c, 4, 7, 53
7, 5644, Control_c, 4, 7, 55
7, 5648, Control_c, 4, 7, 57
7, 5652, Control_c, 4, 7, 59
7, 5656, Control_c, 4, 7, 60
7, 5660, Control_c, 4, 7, 61
7, 5664, Control_c, 4, 7, 62
7, 5668, Control_c, 4, 7, 63
7, 5672, Control_c, 4, 7, 64
7, 5676, Control_c, 4, 7, 65
7, 5680, Control_c, 4, 7, 66
7, 5684, Control_c, 4, 7, 68
7, 5688, Control_c, 4, 7, 69
7, 5692, Control_c, 4, 7, 70
7, 5696, Control_c, 4, 7, 72
7, 5697, Note_on_c, 4, 60, 0
7, 5700, Control_c, 4, 7, 73
7, 5704, Control_c, 4, 7, 74
7, 5712, Control_c, 4, 7, 76
7, 5716, Control_c, 4, 7, 77
7, 5720, Control_c, 4, 7, 78
7, 5724, Control_c, 4, 7, 79
7, 5736, Control_c, 4, 7, 80
7, 5738, Note_on_c, 4, 69, 0
7, 5739, Note_on_c, 4, 65, 0
7, 5740, Control_c, 4, 7, 81
7, 5744, Control_c, 4, 7, 82
7, 5756, Control_c, 4, 7, 83
7, 5760, Control_c, 4, 7, 84
7, 5814, Control_c, 4, 7, 84
7, 6274, Note_on_c, 4, 76, 102
7, 6274, Note_on_c, 4, 72, 77
7, 6280, Note_on_c, 4, 41, 0
7, 6315, Note_on_c, 4, 72, 0
7, 6324, Note_on_c, 4, 76, 0
7, 6326, Note_on_c, 4, 77, 96
7, 6326, Note_on_c, 4, 74, 89
7, 6369, Note_on_c, 4, 74, 0
7, 6379, Note_on_c, 4, 77, 0
7, 6384, Note_on_c, 4, 79, 96
7, 6385, Note_on_c, 4, 76, 74
7, 6647, Note_on_c, 4, 76, 0
7, 6647, Note_on_c, 4, 79, 0
7, 6965, Note_on_c, 4, 60, 127
7, 7023, Control_c, 4, 7, 100
7, 7032, Control_c, 4, 7, 99
7, 7039, Control_c, 4, 7, 98
7, 7048, Control_c, 4, 7, 97
7, 7081, Control_c, 4, 7, 96
7, 7088, Note_on_c, 4, 60, 0
7, 7099, Note_on_c, 4, 62, 127
7, 7123, Control_c, 4, 7, 95
7, 7213, Control_c, 4, 7, 93
7, 7225, Control_c, 4, 7, 92
7, 7229, Control_c, 4, 7, 91
7, 7234, Note_on_c, 4, 62, 0
7, 7238, Control_c, 4, 7, 90
7, 7243, Note_on_c, 4, 67, 127
7, 7243, Note_on_c, 4, 64, 127
7, 7243, Note_on_c, 4, 60, 127
7, 7270, Control_c, 4, 7, 89
7, 7274, Control_c, 4, 7, 87
7, 7277, Control_c, 4, 7, 86
7, 7287, Control_c, 4, 7, 87
7, 7309, Control_c, 4, 7, 86
7, 7316, Control_c, 4, 7, 85
7, 7319, Control_c, 4, 7, 84
7, 7322, Control_c, 4, 7, 83
7, 7325, Control_c, 4, 7, 82
7, 7328, Control_c, 4, 7, 81
7, 7332, Control_c, 4, 7, 80
7, 7351, Control_c, 4, 7, 81
7, 7354, Control_c, 4, 7, 82
7, 7361, Control_c, 4, 7, 83
7, 7389, Control_c, 4, 7, 84
7, 7396, Control_c, 4, 7, 85
7, 7434, Control_c, 4, 7, 80
7, 7441, Control_c, 4, 7, 79
7, 7447, Control_c, 4, 7, 78
7, 7450, Control_c, 4, 7, 77
7, 7454, Control_c, 4, 7, 76
7, 7460, Control_c, 4, 7, 75
7, 7473, Control_c, 4, 7, 74
7, 7483, Control_c, 4, 7, 73
7, 7489, Control_c, 4, 7, 72
7, 7499, Control_c, 4, 7, 71
7, 7512, Control_c, 4, 7, 70
7, 7521, Control_c, 4, 7, 69
7, 7541, Control_c, 4, 7, 68
7, 7570, Control_c, 4, 7, 67
7, 7586, Control_c, 4, 7, 66
7, 7595, Control_c, 4, 7, 65
7, 7605, Control_c, 4, 7, 64
7, 7611, Control_c, 4, 7, 63
7, 7618, Control_c, 4, 7, 62
7, 7624, Control_c, 4, 7, 61
7, 7627, Control_c, 4, 7, 60
7, 7634, Control_c, 4, 7, 59
7, 7640, Control_c, 4, 7, 58
7, 7650, Control_c, 4, 7, 57
7, 7653, Control_c, 4, 7, 56
7, 7659, Control_c, 4, 7, 55
7, 7663, Control_c, 4, 7, 54
7, 7670, Control_c, 4, 7, 53
7, 7676, Control_c, 4, 7, 52
7, 7682, Control_c, 4, 7, 51
7, 7686, Control_c, 4, 7, 50
7, 7689, Control_c, 4, 7, 49
7, 7692, Control_c, 4, 7, 48
7, 7695, Control_c, 4, 7, 47
7, 7705, Control_c, 4, 7, 46
7, 7708, Control_c, 4, 7, 45
7, 7711, Control_c, 4, 7, 44
7, 7714, Control_c, 4, 7, 43
7, 7718, Control_c, 4, 7, 42
7, 7721, Control_c, 4, 7, 41
7, 7724, Control_c, 4, 7, 40
7, 7730, Control_c, 4, 7, 39
7, 7734, Control_c, 4, 7, 38
7, 7737, Control_c, 4, 7, 37
7, 7740, Control_c, 4, 7, 36
7, 7743, Control_c, 4, 7, 35
7, 7747, Control_c, 4, 7, 34
7, 7753, Control_c, 4, 7, 33
7, 7756, Control_c, 4, 7, 32
7, 7769, Control_c, 4, 7, 31
7, 7772, Control_c, 4, 7, 29
7, 7775, Control_c, 4, 7, 28
7, 7782, Control_c, 4, 7, 27
7, 7795, Control_c, 4, 7, 26
7, 7798, Control_c, 4, 7, 25
7, 7801, Control_c, 4, 7, 24
7, 7817, Control_c, 4, 7, 25
7, 7824, Control_c, 4, 7, 26
7, 7827, Control_c, 4, 7, 27
7, 7830, Control_c, 4, 7, 28
7, 7840, Control_c, 4, 7, 29
7, 7849, Control_c, 4, 7, 30
7, 7859, Control_c, 4, 7, 31
7, 7862, Control_c, 4, 7, 32
7, 7866, Control_c, 4, 7, 33
7, 7869, Control_c, 4, 7, 34
7, 7872, Control_c, 4, 7, 35
7, 7875, Control_c, 4, 7, 36
7, 7879, Control_c, 4, 7, 38
7, 7882, Control_c, 4, 7, 39
7, 7885, Control_c, 4, 7, 40
7, 7891, Control_c, 4, 7, 41
7, 7895, Control_c, 4, 7, 42
7, 7898, Control_c, 4, 7, 43
7, 7901, Control_c, 4, 7, 45
7, 7904, Control_c, 4, 7, 46
7, 7907, Control_c, 4, 7, 47
7, 7911, Control_c, 4, 7, 49
7, 7914, Control_c, 4, 7, 50
7, 7917, Control_c, 4, 7, 52
7, 7923, Control_c, 4, 7, 54
7, 7927, Control_c, 4, 7, 55
7, 7930, Control_c, 4, 7, 57
7, 7933, Control_c, 4, 7, 58
7, 7936, Control_c, 4, 7, 59
7, 7939, Control_c, 4, 7, 60
7, 7943, Control_c, 4, 7, 62
7, 7946, Control_c, 4, 7, 63
7, 7949, Control_c, 4, 7, 64
7, 7952, Control_c, 4, 7, 66
7, 7959, Control_c, 4, 7, 68
7, 7962, Control_c, 4, 7, 70
7, 7965, Control_c, 4, 7, 71
7, 7968, Control_c, 4, 7, 73
7, 7972, Control_c, 4, 7, 75
7, 7975, Control_c, 4, 7, 76
7, 7978, Control_c, 4, 7, 77
7, 7981, Control_c, 4, 7, 78
7, 7984, Control_c, 4, 7, 79
7, 7991, Control_c, 4, 7, 81
7, 7994, Control_c, 4, 7, 82
7, 7997, Control_c, 4, 7, 84
7, 8000, Control_c, 4, 7, 85
7, 8004, Control_c, 4, 7, 86
7, 8007, Control_c, 4, 7, 87
7, 8010, Control_c, 4, 7, 88
7, 8013, Control_c, 4, 7, 89
7, 8016, Control_c, 4, 7, 90
7, 8023, Control_c, 4, 7, 91
7, 8026, Control_c, 4, 7, 92
7, 8029, Control_c, 4, 7, 93
7, 8033, Control_c, 4, 7, 94
7, 8042, Control_c, 4, 7, 95
7, 8052, Control_c, 4, 7, 96
7, 8062, Control_c, 4, 7, 97
7, 8065, Control_c, 4, 7, 98
7, 8068, Control_c, 4, 7, 99
7, 8071, Control_c, 4, 7, 100
7, 8078, Control_c, 4, 7, 101
7, 8087, Control_c, 4, 7, 102
7, 8094, Control_c, 4, 7, 103
7, 8100, Control_c, 4, 7, 104
7, 8107, Control_c, 4, 7, 106
7, 8116, Control_c, 4, 7, 107
7, 8120, Control_c, 4, 7, 108
7, 8123, Control_c, 4, 7, 109
7, 8126, Control_c, 4, 7, 110
7, 8136, Control_c, 4, 7, 111
7, 8139, Control_c, 4, 7, 112
7, 8145, Control_c, 4, 7, 113
7, 8148, Control_c, 4, 7, 114
7, 8152, Control_c, 4, 7, 115
7, 8158, Control_c, 4, 7, 116
7, 8167, Note_on_c, 4, 60, 0
7, 8167, Note_on_c, 4, 64, 0
7, 8167, Note_on_c, 4, 67, 0
7, 8168, Control_c, 4, 7, 118
7, 8171, Control_c, 4, 7, 119
7, 8174, Control_c, 4, 7, 120
7, 8181, Control_c, 4, 7, 121
7, 8190, Control_c, 4, 7, 123
7, 8200, Control_c, 4, 7, 124
7, 8206, Control_c, 4, 7, 123
7, 8406, Control_c, 4, 7, 93
7, 8410, Control_c, 4, 7, 91
7, 8413, Control_c, 4, 7, 90
7, 8419, Control_c, 4, 7, 89
7, 8419, End_track
8, 0, Start_track
8, 0, MIDI_port, 0
8, 0, Title_t, "Tuba"
8, 0, Program_c, 4, 61
8, 5298, Note_on_c, 4, 41, 127
8, 6020, Note_on_c, 4, 41, 0
8, 6020, End_track
9, 0, Start_track
9, 0, MIDI_port, 0
9, 0, Title_t, "Trombone 1"
9, 0, Program_c, 5, 57
9, 0, Control_c, 5, 7, 41
9, 0, Control_c, 5, 10, 45
9, 0, Pitch_bend_c, 5, 8192
9, 0, Control_c, 5, 64, 0
9, 0, Control_c, 5, 1, 0
9, 474, Control_c, 5, 7, 35
9, 479, Control_c, 5, 7, 34
9, 483, Control_c, 5, 7, 32
9, 488, Control_c, 5, 7, 30
9, 492, Control_c, 5, 7, 28
9, 497, Control_c, 5, 7, 27
9, 501, Control_c, 5, 7, 26
9, 519, Control_c, 5, 7, 25
9, 523, Control_c, 5, 7, 24
9, 532, Control_c, 5, 7, 23
9, 550, Control_c, 5, 7, 24
9, 558, Control_c, 5, 7, 23
9, 567, Control_c, 5, 7, 24
9, 585, Control_c, 5, 7, 23
9, 594, Control_c, 5, 7, 24
9, 603, Control_c, 5, 7, 23
9, 621, Control_c, 5, 7, 24
9, 638, Control_c, 5, 7, 23
9, 647, Control_c, 5, 7, 24
9, 935, Control_c, 5, 7, 25
9, 945, Control_c, 5, 7, 26
9, 954, Control_c, 5, 7, 27
9, 967, Control_c, 5, 7, 33
9, 976, Control_c, 5, 7, 34
9, 985, Control_c, 5, 7, 35
9, 1056, Control_c, 5, 7, 33
9, 1060, Control_c, 5, 7, 32
9, 1073, Control_c, 5, 7, 31
9, 1078, Control_c, 5, 7, 30
9, 1091, Control_c, 5, 7, 28
9, 1100, Control_c, 5, 7, 27
9, 1109, Control_c, 5, 7, 28
9, 1113, Control_c, 5, 7, 29
9, 1118, Control_c, 5, 7, 30
9, 1122, Control_c, 5, 7, 31
9, 1126, Control_c, 5, 7, 32
9, 1131, Control_c, 5, 7, 33
9, 1140, Control_c, 5, 7, 34
9, 1149, Control_c, 5, 7, 35
9, 1157, Control_c, 5, 7, 36
9, 1166, Control_c, 5, 7, 37
9, 1175, Control_c, 5, 7, 38
9, 1179, Control_c, 5, 7, 39
9, 1184, Control_c, 5, 7, 40
9, 1188, Control_c, 5, 7, 41
9, 1193, Control_c, 5, 7, 42
9, 1197, Control_c, 5, 7, 43
9, 1202, Control_c, 5, 7, 44
9, 1206, Control_c, 5, 7, 45
9, 1211, Control_c, 5, 7, 46
9, 1220, Control_c, 5, 7, 47
9, 1224, Control_c, 5, 7, 48
9, 1229, Control_c, 5, 7, 50
9, 1233, Control_c, 5, 7, 51
9, 1238, Control_c, 5, 7, 52
9, 1242, Control_c, 5, 7, 54
9, 1247, Control_c, 5, 7, 55
9, 1251, Control_c, 5, 7, 56
9, 1255, Control_c, 5, 7, 58
9, 1260, Control_c, 5, 7, 59
9, 1269, Control_c, 5, 7, 60
9, 1273, Control_c, 5, 7, 61
9, 1277, Control_c, 5, 7, 63
9, 1282, Control_c, 5, 7, 64
9, 1286, Control_c, 5, 7, 65
9, 1291, Control_c, 5, 7, 67
9, 1300, Control_c, 5, 7, 68
9, 1304, Control_c, 5, 7, 69
9, 1308, Control_c, 5, 7, 70
9, 1313, Control_c, 5, 7, 71
9, 1317, Control_c, 5, 7, 72
9, 1322, Control_c, 5, 7, 73
9, 1326, Control_c, 5, 7, 75
9, 1331, Control_c, 5, 7, 76
9, 1335, Control_c, 5, 7, 77
9, 1339, Control_c, 5, 7, 78
9, 1348, Control_c, 5, 7, 79
9, 1357, Control_c, 5, 7, 81
9, 1362, Control_c, 5, 7, 82
9, 1366, Control_c, 5, 7, 84
9, 1371, Control_c, 5, 7, 85
9, 1375, Control_c, 5, 7, 87
9, 1380, Control_c, 5, 7, 88
9, 1384, Control_c, 5, 7, 86
9, 1388, Control_c, 5, 7, 82
9, 1393, Control_c, 5, 7, 76
9, 1397, Control_c, 5, 7, 69
9, 1402, Control_c, 5, 7, 60
9, 1406, Control_c, 5, 7, 53
9, 1411, Control_c, 5, 7, 48
9, 1415, Control_c, 5, 7, 45
9, 1419, Control_c, 5, 7, 44
9, 1433, Control_c, 5, 7, 45
9, 1441, Control_c, 5, 7, 46
9, 1455, Control_c, 5, 7, 47
9, 1459, Control_c, 5, 7, 48
9, 1464, Control_c, 5, 7, 50
9, 1468, Control_c, 5, 7, 52
9, 1472, Control_c, 5, 7, 53
9, 1477, Control_c, 5, 7, 54
9, 1517, Control_c, 5, 7, 53
9, 1623, Control_c, 5, 7, 52
9, 1628, Control_c, 5, 7, 51
9, 1637, Control_c, 5, 7, 50
9, 1646, Control_c, 5, 7, 49
9, 1650, Control_c, 5, 7, 48
9, 1654, Control_c, 5, 7, 47
9, 1659, Control_c, 5, 7, 46
9, 1663, Control_c, 5, 7, 45
9, 1668, Control_c, 5, 7, 44
9, 1672, Control_c, 5, 7, 43
9, 1677, Control_c, 5, 7, 41
9, 1681, Control_c, 5, 7, 40
9, 1690, Control_c, 5, 7, 38
9, 1694, Control_c, 5, 7, 37
9, 1699, Control_c, 5, 7, 36
9, 1703, Control_c, 5, 7, 35
9, 1708, Control_c, 5, 7, 34
9, 1717, Control_c, 5, 7, 33
9, 1721, Control_c, 5, 7, 32
9, 1726, Control_c, 5, 7, 30
9, 1730, Control_c, 5, 7, 29
9, 1734, Control_c, 5, 7, 27
9, 1739, Control_c, 5, 7, 26
9, 1743, Control_c, 5, 7, 25
9, 1748, Control_c, 5, 7, 24
9, 1752, Control_c, 5, 7, 22
9, 1757, Control_c, 5, 7, 21
9, 1766, Control_c, 5, 7, 20
9, 1779, Control_c, 5, 7, 21
9, 1797, Control_c, 5, 7, 22
9, 1801, Control_c, 5, 7, 23
9, 1806, Control_c, 5, 7, 25
9, 1810, Control_c, 5, 7, 27
9, 1815, Control_c, 5, 7, 30
9, 1819, Control_c, 5, 7, 31
9, 1824, Control_c, 5, 7, 33
9, 1828, Control_c, 5, 7, 34
9, 1832, Control_c, 5, 7, 35
9, 1837, Control_c, 5, 7, 37
9, 1841, Control_c, 5, 7, 38
9, 1846, Control_c, 5, 7, 39
9, 1850, Control_c, 5, 7, 41
9, 1854, Control_c, 5, 7, 42
9, 1859, Control_c, 5, 7, 44
9, 1863, Control_c, 5, 7, 45
9, 1868, Control_c, 5, 7, 46
9, 1872, Control_c, 5, 7, 47
9, 1877, Control_c, 5, 7, 48
9, 1881, Control_c, 5, 7, 49
9, 1885, Control_c, 5, 7, 51
9, 1890, Control_c, 5, 7, 52
9, 1894, Control_c, 5, 7, 54
9, 1899, Control_c, 5, 7, 56
9, 1903, Control_c, 5, 7, 58
9, 1907, Control_c, 5, 7, 60
9, 1912, Control_c, 5, 7, 62
9, 1916, Control_c, 5, 7, 64
9, 1921, Control_c, 5, 7, 66
9, 1925, Control_c, 5, 7, 67
9, 1929, Control_c, 5, 7, 69
9, 1933, Control_c, 5, 7, 71
9, 1937, Control_c, 5, 7, 72
9, 1941, Control_c, 5, 7, 80
9, 1945, Control_c, 5, 7, 81
9, 1950, Control_c, 5, 7, 82
9, 1954, Control_c, 5, 7, 84
9, 1962, Control_c, 5, 7, 83
9, 1966, Control_c, 5, 7, 81
9, 1970, Control_c, 5, 7, 78
9, 1974, Control_c, 5, 7, 73
9, 1979, Control_c, 5, 7, 70
9, 1983, Control_c, 5, 7, 66
9, 1987, Control_c, 5, 7, 64
9, 1991, Control_c, 5, 7, 62
9, 1995, Control_c, 5, 7, 61
9, 1999, Control_c, 5, 7, 60
9, 2007, Control_c, 5, 7, 59
9, 2012, Control_c, 5, 7, 58
9, 2016, Control_c, 5, 7, 57
9, 2020, Control_c, 5, 7, 56
9, 2024, Control_c, 5, 7, 55
9, 2028, Control_c, 5, 7, 54
9, 2079, Control_c, 5, 7, 53
9, 2083, Control_c, 5, 7, 52
9, 2087, Control_c, 5, 7, 51
9, 2091, Control_c, 5, 7, 50
9, 2103, Control_c, 5, 7, 49
9, 2122, Control_c, 5, 7, 48
9, 2134, Control_c, 5, 7, 49
9, 2256, Control_c, 5, 7, 47
9, 2277, Control_c, 5, 7, 46
9, 2376, Control_c, 5, 7, 44
9, 2385, Control_c, 5, 7, 45
9, 2397, Control_c, 5, 7, 44
9, 2406, Note_on_c, 5, 60, 127
9, 2619, Note_on_c, 5, 60, 0
9, 2628, Control_c, 5, 7, 47
9, 2632, Control_c, 5, 7, 48
9, 2640, Note_on_c, 5, 67, 127
9, 2652, Control_c, 5, 7, 49
9, 2853, Note_on_c, 5, 67, 0
9, 2867, Control_c, 5, 7, 51
9, 2871, Note_on_c, 5, 72, 127
9, 2871, Control_c, 5, 7, 52
9, 2879, Control_c, 5, 7, 53
9, 2887, Control_c, 5, 7, 54
9, 2895, Control_c, 5, 7, 52
9, 2899, Control_c, 5, 7, 49
9, 2903, Control_c, 5, 7, 46
9, 2907, Control_c, 5, 7, 44
9, 2911, Control_c, 5, 7, 43
9, 2915, Control_c, 5, 7, 42
9, 2919, Control_c, 5, 7, 41
9, 2927, Control_c, 5, 7, 39
9, 2931, Control_c, 5, 7, 37
9, 2935, Control_c, 5, 7, 34
9, 2939, Control_c, 5, 7, 32
9, 2943, Control_c, 5, 7, 31
9, 2947, Control_c, 5, 7, 30
9, 2967, Control_c, 5, 7, 31
9, 2971, Control_c, 5, 7, 32
9, 2975, Control_c, 5, 7, 33
9, 2979, Control_c, 5, 7, 35
9, 2983, Control_c, 5, 7, 36
9, 2991, Control_c, 5, 7, 37
9, 2995, Control_c, 5, 7, 38
9, 2999, Control_c, 5, 7, 39
9, 3003, Control_c, 5, 7, 40
9, 3007, Control_c, 5, 7, 41
9, 3019, Control_c, 5, 7, 43
9, 3023, Control_c, 5, 7, 44
9, 3027, Control_c, 5, 7, 45
9, 3038, Control_c, 5, 7, 46
9, 3042, Control_c, 5, 7, 47
9, 3051, Control_c, 5, 7, 48
9, 3055, Control_c, 5, 7, 49
9, 3062, Control_c, 5, 7, 50
9, 3066, Control_c, 5, 7, 51
9, 3070, Control_c, 5, 7, 52
9, 3078, Control_c, 5, 7, 53
9, 3086, Control_c, 5, 7, 54
9, 3090, Control_c, 5, 7, 55
9, 3094, Control_c, 5, 7, 56
9, 3102, Control_c, 5, 7, 57
9, 3106, Control_c, 5, 7, 58
9, 3110, Control_c, 5, 7, 59
9, 3114, Control_c, 5, 7, 60
9, 3118, Control_c, 5, 7, 61
9, 3122, Control_c, 5, 7, 62
9, 3126, Control_c, 5, 7, 63
9, 3130, Control_c, 5, 7, 64
9, 3134, Control_c, 5, 7, 66
9, 3142, Control_c, 5, 7, 67
9, 3146, Control_c, 5, 7, 68
9, 3150, Control_c, 5, 7, 69
9, 3154, Control_c, 5, 7, 70
9, 3158, Control_c, 5, 7, 71
9, 3162, Control_c, 5, 7, 72
9, 3171, Control_c, 5, 7, 74
9, 3182, Control_c, 5, 7, 75
9, 3186, Control_c, 5, 7, 76
9, 3194, Control_c, 5, 7, 77
9, 3198, Control_c, 5, 7, 78
9, 3202, Control_c, 5, 7, 79
9, 3214, Control_c, 5, 7, 80
9, 3218, Control_c, 5, 7, 81
9, 3222, Control_c, 5, 7, 82
9, 3234, Control_c, 5, 7, 83
9, 3238, Control_c, 5, 7, 84
9, 3242, Control_c, 5, 7, 85
9, 3246, Control_c, 5, 7, 86
9, 3250, Control_c, 5, 7, 87
9, 3278, Control_c, 5, 7, 86
9, 3282, Control_c, 5, 7, 83
9, 3284, Note_on_c, 5, 72, 0
9, 3286, Control_c, 5, 7, 79
9, 3290, Control_c, 5, 7, 73
9, 3294, Control_c, 5, 7, 68
9, 3298, Control_c, 5, 7, 63
9, 3302, Control_c, 5, 7, 59
9, 3306, Control_c, 5, 7, 57
9, 3310, Control_c, 5, 7, 56
9, 3314, Control_c, 5, 7, 55
9, 3321, Control_c, 5, 7, 54
9, 3332, Note_on_c, 5, 72, 127
9, 3333, Note_on_c, 5, 67, 127
9, 3333, Note_on_c, 5, 75, 127
9, 3334, Control_c, 5, 7, 55
9, 3338, Control_c, 5, 7, 54
9, 3342, Note_on_c, 5, 67, 0
9, 3342, Control_c, 5, 7, 53
9, 3344, Note_on_c, 5, 72, 0
9, 3348, Note_on_c, 5, 75, 0
9, 3353, Control_c, 5, 7, 54
9, 3357, Control_c, 5, 7, 56
9, 3361, Control_c, 5, 7, 59
9, 3365, Control_c, 5, 7, 62
9, 3370, Control_c, 5, 7, 63
9, 3373, Note_on_c, 5, 76, 127
9, 3373, Note_on_c, 5, 72, 127
9, 3374, Control_c, 5, 7, 64
9, 3374, Note_on_c, 5, 67, 127
9, 3378, Control_c, 5, 7, 66
9, 3382, Control_c, 5, 7, 68
9, 3386, Control_c, 5, 7, 70
9, 3390, Control_c, 5, 7, 71
9, 3398, Control_c, 5, 7, 70
9, 3402, Control_c, 5, 7, 68
9, 3406, Control_c, 5, 7, 67
9, 3410, Control_c, 5, 7, 66
9, 3434, Control_c, 5, 7, 65
9, 3446, Control_c, 5, 7, 64
9, 3474, Control_c, 5, 7, 63
9, 3478, Control_c, 5, 7, 62
9, 3486, Control_c, 5, 7, 61
9, 3494, Control_c, 5, 7, 60
9, 3502, Control_c, 5, 7, 59
9, 3517, Control_c, 5, 7, 57
9, 3521, Control_c, 5, 7, 56
9, 3529, Control_c, 5, 7, 55
9, 3541, Control_c, 5, 7, 54
9, 3553, Control_c, 5, 7, 53
9, 3565, Control_c, 5, 7, 52
9, 3573, Control_c, 5, 7, 51
9, 3577, Control_c, 5, 7, 50
9, 3585, Control_c, 5, 7, 49
9, 3589, Control_c, 5, 7, 48
9, 3597, Control_c, 5, 7, 47
9, 3601, Control_c, 5, 7, 46
9, 3609, Control_c, 5, 7, 45
9, 3617, Control_c, 5, 7, 44
9, 3621, Control_c, 5, 7, 43
9, 3625, Control_c, 5, 7, 42
9, 3629, Control_c, 5, 7, 41
9, 3637, Control_c, 5, 7, 40
9, 3645, Control_c, 5, 7, 39
9, 3653, Control_c, 5, 7, 38
9, 3657, Control_c, 5, 7, 37
9, 3677, Control_c, 5, 7, 38
9, 3681, Control_c, 5, 7, 39
9, 3685, Control_c, 5, 7, 40
9, 3689, Control_c, 5, 7, 42
9, 3693, Control_c, 5, 7, 43
9, 3697, Control_c, 5, 7, 44
9, 3701, Control_c, 5, 7, 45
9, 3705, Control_c, 5, 7, 46
9, 3709, Control_c, 5, 7, 48
9, 3713, Control_c, 5, 7, 49
9, 3725, Control_c, 5, 7, 50
9, 3729, Control_c, 5, 7, 51
9, 3733, Control_c, 5, 7, 52
9, 3737, Control_c, 5, 7, 53
9, 3741, Control_c, 5, 7, 54
9, 3745, Control_c, 5, 7, 55
9, 3749, Control_c, 5, 7, 56
9, 3757, Control_c, 5, 7, 57
9, 3761, Control_c, 5, 7, 59
9, 3765, Control_c, 5, 7, 60
9, 3769, Control_c, 5, 7, 61
9, 3773, Control_c, 5, 7, 62
9, 3777, Control_c, 5, 7, 63
9, 3781, Control_c, 5, 7, 64
9, 3785, Control_c, 5, 7, 65
9, 3789, Control_c, 5, 7, 66
9, 3797, Control_c, 5, 7, 67
9, 3800, Control_c, 5, 7, 68
9, 3804, Control_c, 5, 7, 69
9, 3812, Control_c, 5, 7, 71
9, 3817, Control_c, 5, 7, 72
9, 3821, Control_c, 5, 7, 74
9, 3824, Control_c, 5, 7, 75
9, 3836, Control_c, 5, 7, 76
9, 3844, Control_c, 5, 7, 77
9, 3856, Control_c, 5, 7, 78
9, 3860, Control_c, 5, 7, 79
9, 3868, Control_c, 5, 7, 80
9, 3871, Note_on_c, 5, 67, 0
9, 3873, Note_on_c, 5, 72, 0
9, 3874, Note_on_c, 5, 76, 0
9, 3880, Control_c, 5, 7, 81
9, 3892, Control_c, 5, 7, 79
9, 3896, Control_c, 5, 7, 76
9, 3900, Control_c, 5, 7, 73
9, 3904, Control_c, 5, 7, 69
9, 3908, Control_c, 5, 7, 65
9, 3912, Control_c, 5, 7, 63
9, 3916, Control_c, 5, 7, 62
9, 3919, Control_c, 5, 7, 60
9, 3923, Control_c, 5, 7, 58
9, 3927, Control_c, 5, 7, 57
9, 3931, Control_c, 5, 7, 55
9, 3935, Control_c, 5, 7, 54
9, 3939, Control_c, 5, 7, 53
9, 3947, Control_c, 5, 7, 52
9, 3950, Control_c, 5, 7, 51
9, 3954, Control_c, 5, 7, 50
9, 3958, Control_c, 5, 7, 49
9, 3962, Control_c, 5, 7, 48
9, 3977, Control_c, 5, 7, 47
9, 3989, Control_c, 5, 7, 48
9, 4115, Control_c, 5, 7, 46
9, 4122, Control_c, 5, 7, 47
9, 4161, Control_c, 5, 7, 46
9, 4320, Note_on_c, 5, 60, 127
9, 4448, Control_c, 5, 7, 54
9, 4468, Control_c, 5, 7, 55
9, 4500, Control_c, 5, 7, 56
9, 4516, Control_c, 5, 7, 57
9, 4524, Control_c, 5, 7, 58
9, 4528, Note_on_c, 5, 60, 0
9, 4544, Control_c, 5, 7, 59
9, 4560, Note_on_c, 5, 67, 127
9, 4564, Control_c, 5, 7, 60
9, 4576, Control_c, 5, 7, 59
9, 4735, Control_c, 5, 7, 61
9, 4747, Control_c, 5, 7, 62
9, 4762, Note_on_c, 5, 67, 0
9, 4767, Control_c, 5, 7, 60
9, 4771, Control_c, 5, 7, 59
9, 4775, Control_c, 5, 7, 58
9, 4779, Control_c, 5, 7, 55
9, 4784, Control_c, 5, 7, 53
9, 4788, Control_c, 5, 7, 52
9, 4792, Control_c, 5, 7, 51
9, 4796, Control_c, 5, 7, 50
9, 4800, Control_c, 5, 7, 49
9, 4800, Note_on_c, 5, 72, 127
9, 4815, Control_c, 5, 7, 48
9, 4915, Control_c, 5, 7, 46
9, 4974, Control_c, 5, 7, 52
9, 4979, Control_c, 5, 7, 53
9, 4983, Control_c, 5, 7, 54
9, 4987, Control_c, 5, 7, 55
9, 4991, Control_c, 5, 7, 56
9, 4994, Control_c, 5, 7, 57
9, 4998, Control_c, 5, 7, 58
9, 5002, Control_c, 5, 7, 59
9, 5006, Control_c, 5, 7, 60
9, 5014, Control_c, 5, 7, 61
9, 5019, Control_c, 5, 7, 62
9, 5023, Control_c, 5, 7, 63
9, 5031, Control_c, 5, 7, 64
9, 5035, Control_c, 5, 7, 65
9, 5039, Control_c, 5, 7, 66
9, 5043, Control_c, 5, 7, 67
9, 5051, Control_c, 5, 7, 68
9, 5063, Control_c, 5, 7, 70
9, 5075, Control_c, 5, 7, 71
9, 5082, Control_c, 5, 7, 72
9, 5090, Control_c, 5, 7, 73
9, 5103, Control_c, 5, 7, 74
9, 5114, Control_c, 5, 7, 75
9, 5130, Control_c, 5, 7, 76
9, 5138, Control_c, 5, 7, 77
9, 5146, Control_c, 5, 7, 78
9, 5158, Control_c, 5, 7, 79
9, 5174, Control_c, 5, 7, 80
9, 5182, Control_c, 5, 7, 81
9, 5194, Control_c, 5, 7, 82
9, 5210, Control_c, 5, 7, 80
9, 5214, Control_c, 5, 7, 77
9, 5218, Control_c, 5, 7, 72
9, 5221, Note_on_c, 5, 72, 0
9, 5222, Control_c, 5, 7, 68
9, 5226, Control_c, 5, 7, 64
9, 5230, Control_c, 5, 7, 61
9, 5234, Control_c, 5, 7, 59
9, 5238, Control_c, 5, 7, 57
9, 5242, Control_c, 5, 7, 55
9, 5246, Control_c, 5, 7, 52
9, 5250, Control_c, 5, 7, 50
9, 5253, Control_c, 5, 7, 47
9, 5255, Note_on_c, 5, 64, 127
9, 5255, Note_on_c, 5, 60, 127
9, 5258, Control_c, 5, 7, 45
9, 5262, Control_c, 5, 7, 43
9, 5266, Control_c, 5, 7, 42
9, 5272, Note_on_c, 5, 60, 0
9, 5274, Control_c, 5, 7, 43
9, 5277, Note_on_c, 5, 64, 0
9, 5278, Control_c, 5, 7, 44
9, 5282, Control_c, 5, 7, 45
9, 5286, Control_c, 5, 7, 47
9, 5290, Control_c, 5, 7, 50
9, 5294, Control_c, 5, 7, 53
9, 5296, Note_on_c, 5, 69, 127
9, 5297, Note_on_c, 5, 65, 127
9, 5298, Control_c, 5, 7, 57
9, 5302, Control_c, 5, 7, 62
9, 5306, Control_c, 5, 7, 68
9, 5310, Control_c, 5, 7, 72
9, 5314, Control_c, 5, 7, 75
9, 5318, Control_c, 5, 7, 76
9, 5326, Control_c, 5, 7, 75
9, 5338, Control_c, 5, 7, 74
9, 5342, Control_c, 5, 7, 73
9, 5350, Control_c, 5, 7, 72
9, 5389, Control_c, 5, 7, 71
9, 5405, Control_c, 5, 7, 70
9, 5433, Control_c, 5, 7, 69
9, 5489, Control_c, 5, 7, 68
9, 5497, Control_c, 5, 7, 67
9, 5501, Control_c, 5, 7, 65
9, 5505, Control_c, 5, 7, 64
9, 5509, Control_c, 5, 7, 63
9, 5513, Control_c, 5, 7, 62
9, 5517, Control_c, 5, 7, 61
9, 5521, Control_c, 5, 7, 60
9, 5525, Control_c, 5, 7, 58
9, 5529, Control_c, 5, 7, 57
9, 5533, Control_c, 5, 7, 56
9, 5537, Control_c, 5, 7, 54
9, 5541, Control_c, 5, 7, 52
9, 5545, Control_c, 5, 7, 50
9, 5549, Control_c, 5, 7, 47
9, 5553, Control_c, 5, 7, 45
9, 5557, Control_c, 5, 7, 42
9, 5561, Control_c, 5, 7, 39
9, 5565, Control_c, 5, 7, 37
9, 5573, Control_c, 5, 7, 36
9, 5577, Control_c, 5, 7, 35
9, 5585, Control_c, 5, 7, 34
9, 5605, Control_c, 5, 7, 35
9, 5609, Control_c, 5, 7, 36
9, 5613, Control_c, 5, 7, 38
9, 5617, Control_c, 5, 7, 40
9, 5621, Control_c, 5, 7, 42
9, 5625, Control_c, 5, 7, 43
9, 5629, Control_c, 5, 7, 45
9, 5633, Control_c, 5, 7, 46
9, 5637, Control_c, 5, 7, 47
9, 5641, Control_c, 5, 7, 49
9, 5645, Control_c, 5, 7, 51
9, 5648, Control_c, 5, 7, 53
9, 5652, Control_c, 5, 7, 55
9, 5656, Control_c, 5, 7, 56
9, 5661, Control_c, 5, 7, 57
9, 5665, Control_c, 5, 7, 58
9, 5669, Control_c, 5, 7, 59
9, 5672, Control_c, 5, 7, 60
9, 5676, Control_c, 5, 7, 61
9, 5680, Control_c, 5, 7, 62
9, 5684, Control_c, 5, 7, 64
9, 5688, Control_c, 5, 7, 65
9, 5692, Control_c, 5, 7, 66
9, 5696, Control_c, 5, 7, 68
9, 5700, Control_c, 5, 7, 69
9, 5704, Control_c, 5, 7, 70
9, 5712, Control_c, 5, 7, 72
9, 5716, Control_c, 5, 7, 73
9, 5720, Control_c, 5, 7, 74
9, 5724, Control_c, 5, 7, 75
9, 5729, Note_on_c, 5, 69, 0
9, 5733, Note_on_c, 5, 65, 0
9, 5736, Control_c, 5, 7, 76
9, 5740, Control_c, 5, 7, 77
9, 5745, Control_c, 5, 7, 78
9, 5757, Control_c, 5, 7, 79
9, 5760, Control_c, 5, 7, 80
9, 5788, Note_on_c, 5, 53, 93
9, 5814, Control_c, 5, 7, 80
9, 6134, Note_on_c, 5, 68, 127
9, 6135, Note_on_c, 5, 65, 127
9, 6223, Note_on_c, 5, 53, 0
9, 6249, Note_on_c, 5, 68, 0
9, 6252, Note_on_c, 5, 65, 0
9, 6321, Note_on_c, 5, 62, 127
9, 6360, Control_c, 5, 7, 127
9, 6372, Note_on_c, 5, 62, 0
9, 6378, Note_on_c, 5, 67, 127
9, 6379, Note_on_c, 5, 64, 70
9, 6419, Note_on_c, 5, 67, 0
9, 6435, Note_on_c, 5, 64, 127
9, 6468, Note_on_c, 5, 64, 0
9, 6492, Note_on_c, 5, 60, 127
9, 6521, Note_on_c, 5, 60, 0
9, 6548, Note_on_c, 5, 55, 127
9, 6577, Note_on_c, 5, 55, 0
9, 6602, Note_on_c, 5, 52, 127
9, 6634, Note_on_c, 5, 52, 0
9, 6634, Note_on_c, 5, 64, 0
9, 6662, Note_on_c, 5, 48, 127
9, 6664, Note_on_c, 5, 60, 90
9, 6693, Note_on_c, 5, 48, 0
9, 6694, Note_on_c, 5, 60, 0
9, 6696, Note_on_c, 5, 62, 90
9, 6720, Note_on_c, 5, 62, 0
9, 6720, Note_on_c, 5, 43, 127
9, 6729, Note_on_c, 5, 64, 90
9, 6937, Note_on_c, 5, 64, 0
9, 6943, Note_on_c, 5, 43, 0
9, 6958, Note_on_c, 5, 60, 90
9, 7023, Control_c, 5, 7, 96
9, 7033, Control_c, 5, 7, 95
9, 7039, Control_c, 5, 7, 94
9, 7049, Control_c, 5, 7, 93
9, 7076, Note_on_c, 5, 60, 0
9, 7081, Control_c, 5, 7, 92
9, 7090, Note_on_c, 5, 62, 127
9, 7123, Control_c, 5, 7, 91
9, 7213, Control_c, 5, 7, 89
9, 7226, Control_c, 5, 7, 88
9, 7229, Control_c, 5, 7, 87
9, 7238, Control_c, 5, 7, 86
9, 7243, Note_on_c, 5, 62, 0
9, 7271, Control_c, 5, 7, 85
9, 7274, Control_c, 5, 7, 83
9, 7277, Control_c, 5, 7, 82
9, 7287, Control_c, 5, 7, 83
9, 7309, Control_c, 5, 7, 82
9, 7316, Control_c, 5, 7, 81
9, 7319, Control_c, 5, 7, 80
9, 7322, Control_c, 5, 7, 79
9, 7326, Control_c, 5, 7, 78
9, 7329, Control_c, 5, 7, 77
9, 7332, Control_c, 5, 7, 76
9, 7351, Control_c, 5, 7, 77
9, 7354, Control_c, 5, 7, 78
9, 7361, Control_c, 5, 7, 79
9, 7390, Control_c, 5, 7, 80
9, 7396, Control_c, 5, 7, 81
9, 7435, Control_c, 5, 7, 76
9, 7441, Control_c, 5, 7, 75
9, 7447, Control_c, 5, 7, 74
9, 7451, Control_c, 5, 7, 73
9, 7454, Control_c, 5, 7, 72
9, 7460, Control_c, 5, 7, 71
9, 7473, Control_c, 5, 7, 70
9, 7483, Control_c, 5, 7, 69
9, 7490, Control_c, 5, 7, 68
9, 7499, Control_c, 5, 7, 67
9, 7512, Control_c, 5, 7, 66
9, 7522, Control_c, 5, 7, 65
9, 7541, Control_c, 5, 7, 64
9, 7570, Control_c, 5, 7, 63
9, 7586, Control_c, 5, 7, 62
9, 7596, Control_c, 5, 7, 61
9, 7605, Control_c, 5, 7, 60
9, 7612, Control_c, 5, 7, 59
9, 7618, Control_c, 5, 7, 58
9, 7624, Control_c, 5, 7, 57
9, 7628, Control_c, 5, 7, 56
9, 7634, Control_c, 5, 7, 55
9, 7640, Control_c, 5, 7, 54
9, 7650, Control_c, 5, 7, 53
9, 7653, Control_c, 5, 7, 52
9, 7660, Control_c, 5, 7, 51
9, 7663, Control_c, 5, 7, 50
9, 7670, Control_c, 5, 7, 49
9, 7676, Control_c, 5, 7, 48
9, 7683, Control_c, 5, 7, 47
9, 7686, Control_c, 5, 7, 46
9, 7689, Control_c, 5, 7, 45
9, 7692, Control_c, 5, 7, 44
9, 7695, Control_c, 5, 7, 43
9, 7705, Control_c, 5, 7, 42
9, 7708, Control_c, 5, 7, 41
9, 7712, Control_c, 5, 7, 40
9, 7715, Control_c, 5, 7, 39
9, 7718, Control_c, 5, 7, 38
9, 7721, Control_c, 5, 7, 37
9, 7724, Control_c, 5, 7, 36
9, 7731, Control_c, 5, 7, 35
9, 7734, Control_c, 5, 7, 34
9, 7737, Control_c, 5, 7, 33
9, 7740, Control_c, 5, 7, 32
9, 7744, Control_c, 5, 7, 31
9, 7747, Control_c, 5, 7, 30
9, 7753, Control_c, 5, 7, 29
9, 7756, Control_c, 5, 7, 28
9, 7769, Control_c, 5, 7, 27
9, 7772, Control_c, 5, 7, 25
9, 7776, Control_c, 5, 7, 24
9, 7782, Control_c, 5, 7, 23
9, 7795, Control_c, 5, 7, 22
9, 7798, Control_c, 5, 7, 21
9, 7801, Control_c, 5, 7, 20
9, 7817, Control_c, 5, 7, 21
9, 7824, Control_c, 5, 7, 22
9, 7827, Control_c, 5, 7, 23
9, 7830, Control_c, 5, 7, 24
9, 7840, Control_c, 5, 7, 25
9, 7849, Control_c, 5, 7, 26
9, 7859, Control_c, 5, 7, 27
9, 7863, Control_c, 5, 7, 28
9, 7866, Control_c, 5, 7, 29
9, 7869, Control_c, 5, 7, 30
9, 7872, Control_c, 5, 7, 31
9, 7876, Control_c, 5, 7, 32
9, 7879, Control_c, 5, 7, 34
9, 7882, Control_c, 5, 7, 35
9, 7885, Control_c, 5, 7, 36
9, 7892, Control_c, 5, 7, 37
9, 7895, Control_c, 5, 7, 38
9, 7898, Control_c, 5, 7, 39
9, 7901, Control_c, 5, 7, 41
9, 7904, Control_c, 5, 7, 42
9, 7908, Control_c, 5, 7, 43
9, 7911, Control_c, 5, 7, 45
9, 7914, Control_c, 5, 7, 46
9, 7917, Control_c, 5, 7, 48
9, 7924, Control_c, 5, 7, 50
9, 7927, Control_c, 5, 7, 51
9, 7930, Control_c, 5, 7, 53
9, 7933, Control_c, 5, 7, 54
9, 7937, Control_c, 5, 7, 55
9, 7940, Control_c, 5, 7, 56
9, 7943, Control_c, 5, 7, 58
9, 7946, Control_c, 5, 7, 59
9, 7949, Control_c, 5, 7, 60
9, 7953, Control_c, 5, 7, 62
9, 7959, Control_c, 5, 7, 64
9, 7962, Control_c, 5, 7, 66
9, 7965, Control_c, 5, 7, 67
9, 7969, Control_c, 5, 7, 69
9, 7972, Control_c, 5, 7, 71
9, 7975, Control_c, 5, 7, 72
9, 7978, Control_c, 5, 7, 73
9, 7981, Control_c, 5, 7, 74
9, 7985, Control_c, 5, 7, 75
9, 7991, Control_c, 5, 7, 77
9, 7994, Control_c, 5, 7, 78
9, 7997, Control_c, 5, 7, 80
9, 8001, Control_c, 5, 7, 81
9, 8004, Control_c, 5, 7, 82
9, 8007, Control_c, 5, 7, 83
9, 8010, Control_c, 5, 7, 84
9, 8014, Control_c, 5, 7, 85
9, 8017, Control_c, 5, 7, 86
9, 8023, Control_c, 5, 7, 87
9, 8026, Control_c, 5, 7, 88
9, 8030, Control_c, 5, 7, 89
9, 8033, Control_c, 5, 7, 90
9, 8042, Control_c, 5, 7, 91
9, 8052, Control_c, 5, 7, 92
9, 8062, Control_c, 5, 7, 93
9, 8065, Control_c, 5, 7, 94
9, 8068, Control_c, 5, 7, 95
9, 8072, Control_c, 5, 7, 96
9, 8078, Control_c, 5, 7, 97
9, 8088, Control_c, 5, 7, 98
9, 8094, Control_c, 5, 7, 99
9, 8101, Control_c, 5, 7, 100
9, 8107, Control_c, 5, 7, 102
9, 8117, Control_c, 5, 7, 103
9, 8120, Control_c, 5, 7, 104
9, 8123, Control_c, 5, 7, 105
9, 8126, Control_c, 5, 7, 106
9, 8136, Control_c, 5, 7, 107
9, 8139, Control_c, 5, 7, 108
9, 8146, Control_c, 5, 7, 109
9, 8149, Control_c, 5, 7, 110
9, 8152, Control_c, 5, 7, 111
9, 8158, Control_c, 5, 7, 112
9, 8168, Control_c, 5, 7, 114
9, 8171, Control_c, 5, 7, 115
9, 8174, Control_c, 5, 7, 116
9, 8181, Control_c, 5, 7, 117
9, 8190, Control_c, 5, 7, 119
9, 8200, Control_c, 5, 7, 120
9, 8206, Control_c, 5, 7, 119
9, 8206, End_track
10, 0, Start_track
10, 0, MIDI_port, 0
10, 0, Title_t, "Violin 2"
10, 0, Program_c, 6, 48
10, 0, Control_c, 6, 10, 70
10, 1406, Note_on_c, 6, 72, 74
10, 1406, Note_on_c, 6, 60, 84
10, 1429, Note_on_c, 6, 60, 0
10, 1430, Note_on_c, 6, 72, 0
10, 1457, Note_on_c, 6, 72, 96
10, 1457, Note_on_c, 6, 60, 111
10, 1961, Note_on_c, 6, 72, 0
10, 1968, Note_on_c, 6, 60, 0
10, 3330, Note_on_c, 6, 75, 84
10, 3331, Note_on_c, 6, 67, 81
10, 3349, Note_on_c, 6, 67, 0
10, 3349, Note_on_c, 6, 75, 0
10, 3372, Note_on_c, 6, 76, 117
10, 3373, Note_on_c, 6, 67, 93
10, 3879, Note_on_c, 6, 67, 0
10, 3880, Note_on_c, 6, 76, 0
10, 3880, End_track
11, 0, Start_track
11, 0, MIDI_port, 0
11, 0, Title_t, "Cello"
11, 0, Program_c, 6, 48
11, 0, Control_c, 6, 10, 33
11, 5252, Note_on_c, 6, 64, 102
11, 5253, Note_on_c, 6, 60, 58
11, 5280, Note_on_c, 6, 64, 0
11, 5282, Note_on_c, 6, 60, 0
11, 5291, Note_on_c, 6, 65, 102
11, 5768, Note_on_c, 6, 65, 0
11, 5779, Note_on_c, 6, 69, 124
11, 5779, Note_on_c, 6, 65, 124
11, 5815, Note_on_c, 6, 71, 124
11, 5815, Note_on_c, 6, 67, 124
11, 5821, Note_on_c, 6, 65, 0
11, 5822, Note_on_c, 6, 69, 0
11, 5852, Note_on_c, 6, 72, 124
11, 5855, Note_on_c, 6, 69, 124
11, 5861, Note_on_c, 6, 67, 0
11, 5863, Note_on_c, 6, 71, 0
11, 6146, Note_on_c, 6, 68, 124
11, 6151, Note_on_c, 6, 69, 0
11, 6276, Note_on_c, 6, 68, 0
11, 6319, Note_on_c, 6, 72, 0
11, 6665, Note_on_c, 6, 64, 127
11, 6698, Note_on_c, 6, 65, 127
11, 6703, Note_on_c, 6, 64, 0
11, 6729, Note_on_c, 6, 67, 127
11, 6731, Note_on_c, 6, 65, 0
11, 6945, Note_on_c, 6, 67, 0
11, 6962, Note_on_c, 6, 69, 127
11, 6962, Note_on_c, 6, 64, 127
11, 7109, Note_on_c, 6, 69, 0
11, 7109, Note_on_c, 6, 62, 127
11, 7110, Note_on_c, 6, 64, 0
11, 7110, Note_on_c, 6, 67, 127
11, 7251, Note_on_c, 6, 67, 0
11, 7265, Note_on_c, 6, 67, 100
11, 7266, Note_on_c, 6, 62, 0
11, 7266, Note_on_c, 6, 60, 100
11, 8180, Note_on_c, 6, 60, 0
11, 8183, Note_on_c, 6, 67, 0
11, 8183, End_track
12, 0, Start_track
12, 0, MIDI_port, 0
12, 0, Title_t, "Violin 1"
12, 0, Program_c, 6, 48
12, 0, Control_c, 6, 7, 66
12, 0, Control_c, 6, 10, 70
12, 0, Pitch_bend_c, 6, 8192
12, 0, Control_c, 6, 64, 0
12, 0, Control_c, 6, 1, 0
12, 1356, Control_c, 6, 7, 72
12, 1361, Control_c, 6, 7, 73
12, 1365, Control_c, 6, 7, 75
12, 1369, Control_c, 6, 7, 77
12, 1374, Control_c, 6, 7, 78
12, 1378, Control_c, 6, 7, 80
12, 1383, Control_c, 6, 7, 82
12, 1387, Control_c, 6, 7, 84
12, 1392, Control_c, 6, 7, 86
12, 1397, Control_c, 6, 7, 88
12, 1401, Control_c, 6, 7, 90
12, 1405, Control_c, 6, 7, 92
12, 1407, Note_on_c, 6, 72, 111
12, 1407, Note_on_c, 6, 67, 124
12, 1408, Note_on_c, 6, 76, 111
12, 1408, Note_on_c, 6, 60, 93
12, 1410, Control_c, 6, 7, 94
12, 1414, Control_c, 6, 7, 96
12, 1419, Control_c, 6, 7, 98
12, 1426, Note_on_c, 6, 67, 0
12, 1427, Note_on_c, 6, 72, 0
12, 1427, Note_on_c, 6, 60, 0
12, 1427, Control_c, 6, 7, 99
12, 1428, Note_on_c, 6, 76, 0
12, 1449, Note_on_c, 6, 72, 108
12, 1449, Note_on_c, 6, 67, 96
12, 1449, Note_on_c, 6, 75, 127
12, 1450, Note_on_c, 6, 60, 127
12, 1463, Control_c, 6, 7, 100
12, 1476, Control_c, 6, 7, 101
12, 1499, Control_c, 6, 7, 100
12, 1503, Control_c, 6, 7, 101
12, 1521, Control_c, 6, 7, 102
12, 1538, Control_c, 6, 7, 101
12, 1547, Control_c, 6, 7, 102
12, 1565, Control_c, 6, 7, 103
12, 1676, Control_c, 6, 7, 101
12, 1685, Control_c, 6, 7, 100
12, 1694, Control_c, 6, 7, 99
12, 1698, Control_c, 6, 7, 98
12, 1703, Control_c, 6, 7, 97
12, 1707, Control_c, 6, 7, 96
12, 1712, Control_c, 6, 7, 95
12, 1720, Control_c, 6, 7, 94
12, 1725, Control_c, 6, 7, 93
12, 1729, Control_c, 6, 7, 92
12, 1734, Control_c, 6, 7, 91
12, 1747, Control_c, 6, 7, 90
12, 1751, Control_c, 6, 7, 89
12, 1756, Control_c, 6, 7, 88
12, 1760, Control_c, 6, 7, 87
12, 1778, Control_c, 6, 7, 86
12, 1787, Control_c, 6, 7, 85
12, 1796, Control_c, 6, 7, 86
12, 1800, Control_c, 6, 7, 87
12, 1805, Control_c, 6, 7, 88
12, 1809, Control_c, 6, 7, 89
12, 1814, Control_c, 6, 7, 90
12, 1822, Control_c, 6, 7, 91
12, 1831, Control_c, 6, 7, 92
12, 1836, Control_c, 6, 7, 93
12, 1840, Control_c, 6, 7, 94
12, 1845, Control_c, 6, 7, 95
12, 1849, Control_c, 6, 7, 96
12, 1853, Control_c, 6, 7, 97
12, 1862, Control_c, 6, 7, 98
12, 1867, Control_c, 6, 7, 99
12, 1871, Control_c, 6, 7, 100
12, 1880, Control_c, 6, 7, 101
12, 1884, Control_c, 6, 7, 102
12, 1889, Control_c, 6, 7, 103
12, 1893, Control_c, 6, 7, 104
12, 1898, Control_c, 6, 7, 105
12, 1902, Control_c, 6, 7, 106
12, 1906, Control_c, 6, 7, 107
12, 1911, Control_c, 6, 7, 109
12, 1915, Control_c, 6, 7, 110
12, 1920, Control_c, 6, 7, 112
12, 1924, Control_c, 6, 7, 114
12, 1928, Control_c, 6, 7, 116
12, 1933, Control_c, 6, 7, 117
12, 1937, Control_c, 6, 7, 118
12, 1941, Control_c, 6, 7, 120
12, 1942, Note_on_c, 6, 67, 0
12, 1942, Note_on_c, 6, 72, 0
12, 1943, Note_on_c, 6, 75, 0
12, 1945, Control_c, 6, 7, 122
12, 1946, Note_on_c, 6, 60, 0
12, 1949, Control_c, 6, 7, 124
12, 1962, Control_c, 6, 7, 122
12, 1966, Control_c, 6, 7, 119
12, 1970, Control_c, 6, 7, 118
12, 1974, Control_c, 6, 7, 117
12, 1978, Control_c, 6, 7, 116
12, 1986, Control_c, 6, 7, 114
12, 1990, Control_c, 6, 7, 111
12, 1994, Control_c, 6, 7, 106
12, 1998, Control_c, 6, 7, 101
12, 2002, Control_c, 6, 7, 95
12, 2007, Control_c, 6, 7, 91
12, 2011, Control_c, 6, 7, 88
12, 2015, Control_c, 6, 7, 84
12, 2019, Control_c, 6, 7, 81
12, 2023, Control_c, 6, 7, 77
12, 2027, Control_c, 6, 7, 75
12, 2031, Control_c, 6, 7, 73
12, 2035, Control_c, 6, 7, 72
12, 2039, Control_c, 6, 7, 71
12, 2051, Control_c, 6, 7, 70
12, 3245, Control_c, 6, 7, 96
12, 3249, Control_c, 6, 7, 99
12, 3253, Control_c, 6, 7, 100
12, 3257, Control_c, 6, 7, 101
12, 3265, Control_c, 6, 7, 102
12, 3269, Control_c, 6, 7, 103
12, 3273, Control_c, 6, 7, 104
12, 3277, Control_c, 6, 7, 105
12, 3285, Control_c, 6, 7, 106
12, 3289, Control_c, 6, 7, 107
12, 3301, Control_c, 6, 7, 108
12, 3317, Control_c, 6, 7, 109
12, 3321, Control_c, 6, 7, 112
12, 3325, Control_c, 6, 7, 114
12, 3329, Control_c, 6, 7, 115
12, 3333, Note_on_c, 6, 75, 77
12, 3333, Control_c, 6, 7, 116
12, 3333, Note_on_c, 6, 79, 96
12, 3333, Note_on_c, 6, 67, 127
12, 3337, Control_c, 6, 7, 117
12, 3341, Control_c, 6, 7, 118
12, 3345, Control_c, 6, 7, 119
12, 3348, Note_on_c, 6, 75, 0
12, 3351, Note_on_c, 6, 67, 0
12, 3352, Note_on_c, 6, 79, 0
12, 3357, Control_c, 6, 7, 120
12, 3369, Control_c, 6, 7, 121
12, 3373, Control_c, 6, 7, 125
12, 3374, Note_on_c, 6, 76, 127
12, 3375, Note_on_c, 6, 84, 127
12, 3375, Note_on_c, 6, 67, 127
12, 3377, Control_c, 6, 7, 127
12, 3381, Control_c, 6, 7, 127
12, 3385, Control_c, 6, 7, 127
12, 3397, Control_c, 6, 7, 127
12, 3452, Control_c, 6, 7, 127
12, 3456, Control_c, 6, 7, 127
12, 3472, Control_c, 6, 7, 127
12, 3480, Control_c, 6, 7, 126
12, 3484, Control_c, 6, 7, 125
12, 3492, Control_c, 6, 7, 124
12, 3504, Control_c, 6, 7, 123
12, 3508, Control_c, 6, 7, 122
12, 3524, Control_c, 6, 7, 121
12, 3532, Control_c, 6, 7, 120
12, 3536, Control_c, 6, 7, 119
12, 3540, Control_c, 6, 7, 118
12, 3544, Control_c, 6, 7, 117
12, 3552, Control_c, 6, 7, 116
12, 3560, Control_c, 6, 7, 115
12, 3568, Control_c, 6, 7, 113
12, 3576, Control_c, 6, 7, 112
12, 3580, Control_c, 6, 7, 111
12, 3588, Control_c, 6, 7, 110
12, 3592, Control_c, 6, 7, 109
12, 3600, Control_c, 6, 7, 108
12, 3604, Control_c, 6, 7, 107
12, 3608, Control_c, 6, 7, 106
12, 3616, Control_c, 6, 7, 105
12, 3620, Control_c, 6, 7, 104
12, 3624, Control_c, 6, 7, 103
12, 3628, Control_c, 6, 7, 101
12, 3632, Control_c, 6, 7, 100
12, 3636, Control_c, 6, 7, 99
12, 3644, Control_c, 6, 7, 98
12, 3652, Control_c, 6, 7, 97
12, 3660, Control_c, 6, 7, 96
12, 3668, Control_c, 6, 7, 95
12, 3676, Control_c, 6, 7, 94
12, 3680, Control_c, 6, 7, 93
12, 3688, Control_c, 6, 7, 92
12, 3692, Control_c, 6, 7, 91
12, 3704, Control_c, 6, 7, 90
12, 3719, Control_c, 6, 7, 91
12, 3724, Control_c, 6, 7, 92
12, 3728, Control_c, 6, 7, 94
12, 3732, Control_c, 6, 7, 95
12, 3735, Control_c, 6, 7, 96
12, 3739, Control_c, 6, 7, 97
12, 3743, Control_c, 6, 7, 98
12, 3751, Control_c, 6, 7, 100
12, 3755, Control_c, 6, 7, 101
12, 3759, Control_c, 6, 7, 102
12, 3763, Control_c, 6, 7, 104
12, 3767, Control_c, 6, 7, 105
12, 3771, Control_c, 6, 7, 106
12, 3775, Control_c, 6, 7, 108
12, 3779, Control_c, 6, 7, 109
12, 3783, Control_c, 6, 7, 111
12, 3787, Control_c, 6, 7, 112
12, 3791, Control_c, 6, 7, 113
12, 3795, Control_c, 6, 7, 114
12, 3799, Control_c, 6, 7, 115
12, 3803, Control_c, 6, 7, 116
12, 3808, Control_c, 6, 7, 117
12, 3820, Control_c, 6, 7, 118
12, 3828, Control_c, 6, 7, 119
12, 3839, Control_c, 6, 7, 120
12, 3863, Note_on_c, 6, 84, 0
12, 3863, Note_on_c, 6, 76, 0
12, 3866, Note_on_c, 6, 67, 0
12, 3871, Control_c, 6, 7, 113
12, 3875, Control_c, 6, 7, 110
12, 3879, Control_c, 6, 7, 107
12, 3883, Control_c, 6, 7, 105
12, 3887, Control_c, 6, 7, 104
12, 3891, Control_c, 6, 7, 103
12, 3895, Control_c, 6, 7, 101
12, 3899, Control_c, 6, 7, 99
12, 3902, Control_c, 6, 7, 96
12, 3906, Control_c, 6, 7, 94
12, 3910, Control_c, 6, 7, 91
12, 3914, Control_c, 6, 7, 89
12, 3918, Control_c, 6, 7, 87
12, 3922, Control_c, 6, 7, 85
12, 3926, Control_c, 6, 7, 83
12, 3930, Control_c, 6, 7, 80
12, 3934, Control_c, 6, 7, 79
12, 3937, Control_c, 6, 7, 77
12, 3941, Control_c, 6, 7, 76
12, 3949, Control_c, 6, 7, 75
12, 3953, Control_c, 6, 7, 74
12, 3957, Control_c, 6, 7, 73
12, 3961, Control_c, 6, 7, 72
12, 3980, Control_c, 6, 7, 73
12, 4905, Control_c, 6, 7, 77
12, 4909, Control_c, 6, 7, 78
12, 4913, Control_c, 6, 7, 79
12, 4917, Control_c, 6, 7, 80
12, 4926, Control_c, 6, 7, 81
12, 4929, Control_c, 6, 7, 82
12, 4942, Control_c, 6, 7, 83
12, 4946, Control_c, 6, 7, 84
12, 4950, Control_c, 6, 7, 85
12, 4954, Control_c, 6, 7, 86
12, 4958, Control_c, 6, 7, 87
12, 4962, Control_c, 6, 7, 89
12, 4966, Control_c, 6, 7, 91
12, 4970, Control_c, 6, 7, 93
12, 4974, Control_c, 6, 7, 95
12, 4978, Control_c, 6, 7, 97
12, 4982, Control_c, 6, 7, 99
12, 4986, Control_c, 6, 7, 101
12, 4990, Control_c, 6, 7, 102
12, 4993, Control_c, 6, 7, 103
12, 4997, Control_c, 6, 7, 104
12, 5001, Control_c, 6, 7, 105
12, 5005, Control_c, 6, 7, 106
12, 5017, Control_c, 6, 7, 107
12, 5057, Control_c, 6, 7, 108
12, 5169, Control_c, 6, 7, 110
12, 5189, Control_c, 6, 7, 111
12, 5201, Control_c, 6, 7, 112
12, 5221, Control_c, 6, 7, 113
12, 5249, Control_c, 6, 7, 114
12, 5252, Note_on_c, 6, 76, 127
12, 5252, Note_on_c, 6, 72, 124
12, 5261, Control_c, 6, 7, 115
12, 5265, Control_c, 6, 7, 116
12, 5273, Control_c, 6, 7, 117
12, 5275, Note_on_c, 6, 72, 0
12, 5277, Note_on_c, 6, 76, 0
12, 5284, Control_c, 6, 7, 118
12, 5290, Note_on_c, 6, 72, 93
12, 5291, Note_on_c, 6, 81, 108
12, 5291, Note_on_c, 6, 77, 127
12, 5292, Note_on_c, 6, 69, 108
12, 5316, Control_c, 6, 7, 122
12, 5348, Control_c, 6, 7, 121
12, 5356, Control_c, 6, 7, 122
12, 5364, Control_c, 6, 7, 121
12, 5372, Control_c, 6, 7, 122
12, 5380, Control_c, 6, 7, 121
12, 5388, Control_c, 6, 7, 122
12, 5428, Control_c, 6, 7, 119
12, 5432, Control_c, 6, 7, 118
12, 5444, Control_c, 6, 7, 117
12, 5460, Control_c, 6, 7, 116
12, 5484, Control_c, 6, 7, 115
12, 5488, Control_c, 6, 7, 114
12, 5496, Control_c, 6, 7, 113
12, 5500, Control_c, 6, 7, 112
12, 5504, Control_c, 6, 7, 111
12, 5508, Control_c, 6, 7, 110
12, 5512, Control_c, 6, 7, 108
12, 5516, Control_c, 6, 7, 107
12, 5520, Control_c, 6, 7, 106
12, 5524, Control_c, 6, 7, 105
12, 5536, Control_c, 6, 7, 104
12, 5540, Control_c, 6, 7, 103
12, 5544, Control_c, 6, 7, 101
12, 5548, Control_c, 6, 7, 100
12, 5552, Control_c, 6, 7, 99
12, 5559, Control_c, 6, 7, 98
12, 5568, Control_c, 6, 7, 97
12, 5572, Control_c, 6, 7, 96
12, 5576, Control_c, 6, 7, 95
12, 5583, Control_c, 6, 7, 94
12, 5595, Control_c, 6, 7, 93
12, 5603, Control_c, 6, 7, 92
12, 5607, Control_c, 6, 7, 91
12, 5619, Control_c, 6, 7, 90
12, 5627, Control_c, 6, 7, 89
12, 5639, Control_c, 6, 7, 88
12, 5643, Control_c, 6, 7, 89
12, 5651, Control_c, 6, 7, 92
12, 5655, Control_c, 6, 7, 93
12, 5660, Control_c, 6, 7, 94
12, 5664, Control_c, 6, 7, 95
12, 5671, Control_c, 6, 7, 96
12, 5675, Control_c, 6, 7, 97
12, 5679, Control_c, 6, 7, 98
12, 5683, Control_c, 6, 7, 100
12, 5692, Control_c, 6, 7, 101
12, 5695, Control_c, 6, 7, 102
12, 5699, Control_c, 6, 7, 103
12, 5703, Control_c, 6, 7, 104
12, 5707, Control_c, 6, 7, 106
12, 5711, Control_c, 6, 7, 107
12, 5715, Control_c, 6, 7, 108
12, 5723, Control_c, 6, 7, 109
12, 5727, Control_c, 6, 7, 110
12, 5731, Control_c, 6, 7, 112
12, 5735, Control_c, 6, 7, 113
12, 5739, Control_c, 6, 7, 114
12, 5747, Control_c, 6, 7, 115
12, 5749, Note_on_c, 6, 81, 0
12, 5750, Note_on_c, 6, 77, 0
12, 5751, Control_c, 6, 7, 116
12, 5755, Control_c, 6, 7, 117
12, 5759, Control_c, 6, 7, 118
12, 5766, Note_on_c, 6, 72, 0
12, 5767, Control_c, 6, 7, 119
12, 5768, Note_on_c, 6, 69, 0
12, 5770, Note_on_c, 6, 77, 114
12, 5771, Control_c, 6, 7, 121
12, 5771, Note_on_c, 6, 81, 127
12, 5779, Control_c, 6, 7, 122
12, 5783, Control_c, 6, 7, 123
12, 5791, Control_c, 6, 7, 124
12, 5795, Control_c, 6, 7, 125
12, 5807, Control_c, 6, 7, 127
12, 5807, Note_on_c, 6, 83, 99
12, 5808, Note_on_c, 6, 79, 124
12, 5811, Control_c, 6, 7, 127
12, 5813, Note_on_c, 6, 81, 0
12, 5814, Note_on_c, 6, 77, 0
12, 5815, Control_c, 6, 7, 127
12, 5819, Control_c, 6, 7, 127
12, 5838, Control_c, 6, 7, 127
12, 5841, Note_on_c, 6, 84, 93
12, 5842, Note_on_c, 6, 81, 117
12, 5847, Note_on_c, 6, 79, 0
12, 5847, Control_c, 6, 7, 127
12, 5851, Note_on_c, 6, 83, 0
12, 6118, Note_on_c, 6, 86, 125
12, 6119, Note_on_c, 6, 74, 111
12, 6125, Note_on_c, 6, 81, 0
12, 6128, Note_on_c, 6, 84, 0
12, 6200, Note_on_c, 6, 74, 0
12, 6251, Note_on_c, 6, 76, 127
12, 6252, Note_on_c, 6, 88, 127
12, 6260, Note_on_c, 6, 86, 0
12, 6310, Note_on_c, 6, 88, 0
12, 6311, Note_on_c, 6, 77, 127
12, 6312, Note_on_c, 6, 89, 127
12, 6314, Note_on_c, 6, 76, 0
12, 6373, Note_on_c, 6, 77, 0
12, 6379, Note_on_c, 6, 91, 127
12, 6380, Note_on_c, 6, 79, 127
12, 6390, Note_on_c, 6, 89, 0
12, 6642, Note_on_c, 6, 79, 0
12, 6664, Note_on_c, 6, 88, 127
12, 6665, Note_on_c, 6, 76, 127
12, 6666, Note_on_c, 6, 91, 0
12, 6693, Note_on_c, 6, 77, 127
12, 6695, Note_on_c, 6, 89, 127
12, 6698, Note_on_c, 6, 76, 0
12, 6700, Note_on_c, 6, 88, 0
12, 6726, Note_on_c, 6, 79, 127
12, 6726, Note_on_c, 6, 91, 127
12, 6728, Note_on_c, 6, 77, 0
12, 6736, Note_on_c, 6, 89, 0
12, 6954, Control_c, 6, 7, 127
12, 6957, Note_on_c, 6, 91, 0
12, 6961, Note_on_c, 6, 93, 127
12, 6962, Note_on_c, 6, 81, 127
12, 6967, Note_on_c, 6, 79, 0
12, 6971, Control_c, 6, 7, 127
12, 7102, Note_on_c, 6, 93, 0
12, 7105, Note_on_c, 6, 83, 127
12, 7107, Note_on_c, 6, 95, 127
12, 7109, Note_on_c, 6, 81, 0
12, 7151, Control_c, 6, 7, 127
12, 7173, Control_c, 6, 7, 127
12, 7180, Control_c, 6, 7, 127
12, 7250, Note_on_c, 6, 95, 0
12, 7251, Note_on_c, 6, 84, 127
12, 7251, Note_on_c, 6, 96, 127
12, 7252, Note_on_c, 6, 76, 127
12, 7259, Note_on_c, 6, 83, 0
12, 7328, Control_c, 6, 7, 127
12, 7337, Control_c, 6, 7, 127
12, 7360, Control_c, 6, 7, 127
12, 7369, Control_c, 6, 7, 127
12, 7372, Control_c, 6, 7, 127
12, 7437, Control_c, 6, 7, 127
12, 7447, Control_c, 6, 7, 127
12, 7543, Control_c, 6, 7, 127
12, 7556, Control_c, 6, 7, 127
12, 7572, Control_c, 6, 7, 127
12, 7575, Control_c, 6, 7, 127
12, 7581, Control_c, 6, 7, 127
12, 7591, Control_c, 6, 7, 126
12, 7598, Control_c, 6, 7, 125
12, 7604, Control_c, 6, 7, 124
12, 7608, Control_c, 6, 7, 123
12, 7617, Control_c, 6, 7, 122
12, 7620, Control_c, 6, 7, 121
12, 7624, Control_c, 6, 7, 120
12, 7627, Control_c, 6, 7, 119
12, 7646, Control_c, 6, 7, 117
12, 7652, Control_c, 6, 7, 116
12, 7665, Control_c, 6, 7, 115
12, 7672, Control_c, 6, 7, 114
12, 7678, Control_c, 6, 7, 113
12, 7688, Control_c, 6, 7, 112
12, 7691, Control_c, 6, 7, 111
12, 7697, Control_c, 6, 7, 110
12, 7707, Control_c, 6, 7, 109
12, 7710, Control_c, 6, 7, 108
12, 7713, Control_c, 6, 7, 107
12, 7717, Control_c, 6, 7, 106
12, 7723, Control_c, 6, 7, 105
12, 7729, Control_c, 6, 7, 104
12, 7736, Control_c, 6, 7, 103
12, 7742, Control_c, 6, 7, 102
12, 7749, Control_c, 6, 7, 101
12, 7755, Control_c, 6, 7, 100
12, 7758, Control_c, 6, 7, 99
12, 7765, Control_c, 6, 7, 98
12, 7778, Control_c, 6, 7, 97
12, 7781, Control_c, 6, 7, 96
12, 7784, Control_c, 6, 7, 95
12, 7787, Control_c, 6, 7, 94
12, 7797, Control_c, 6, 7, 93
12, 7804, Control_c, 6, 7, 92
12, 7810, Control_c, 6, 7, 91
12, 7813, Control_c, 6, 7, 90
12, 7817, Control_c, 6, 7, 89
12, 7820, Control_c, 6, 7, 87
12, 7823, Control_c, 6, 7, 85
12, 7826, Control_c, 6, 7, 83
12, 7829, Control_c, 6, 7, 82
12, 7833, Control_c, 6, 7, 81
12, 7839, Control_c, 6, 7, 79
12, 7842, Control_c, 6, 7, 78
12, 7845, Control_c, 6, 7, 77
12, 7858, Control_c, 6, 7, 79
12, 7861, Control_c, 6, 7, 82
12, 7865, Control_c, 6, 7, 84
12, 7868, Control_c, 6, 7, 86
12, 7871, Control_c, 6, 7, 88
12, 7874, Control_c, 6, 7, 89
12, 7877, Control_c, 6, 7, 91
12, 7881, Control_c, 6, 7, 92
12, 7884, Control_c, 6, 7, 93
12, 7887, Control_c, 6, 7, 94
12, 7897, Control_c, 6, 7, 95
12, 7900, Control_c, 6, 7, 96
12, 7903, Control_c, 6, 7, 97
12, 7906, Control_c, 6, 7, 98
12, 7910, Control_c, 6, 7, 99
12, 7913, Control_c, 6, 7, 100
12, 7919, Control_c, 6, 7, 101
12, 7922, Control_c, 6, 7, 103
12, 7926, Control_c, 6, 7, 104
12, 7929, Control_c, 6, 7, 105
12, 7935, Control_c, 6, 7, 106
12, 7938, Control_c, 6, 7, 107
12, 7942, Control_c, 6, 7, 108
12, 7945, Control_c, 6, 7, 109
12, 7948, Control_c, 6, 7, 110
12, 7955, Control_c, 6, 7, 111
12, 7958, Control_c, 6, 7, 112
12, 7964, Control_c, 6, 7, 113
12, 7971, Control_c, 6, 7, 114
12, 7980, Control_c, 6, 7, 115
12, 7983, Control_c, 6, 7, 116
12, 7990, Control_c, 6, 7, 117
12, 8000, Control_c, 6, 7, 118
12, 8006, Control_c, 6, 7, 119
12, 8009, Control_c, 6, 7, 120
12, 8016, Control_c, 6, 7, 121
12, 8022, Control_c, 6, 7, 122
12, 8029, Control_c, 6, 7, 123
12, 8035, Control_c, 6, 7, 124
12, 8045, Control_c, 6, 7, 125
12, 8051, Control_c, 6, 7, 126
12, 8054, Control_c, 6, 7, 127
12, 8064, Control_c, 6, 7, 127
12, 8071, Control_c, 6, 7, 127
12, 8074, Control_c, 6, 7, 127
12, 8080, Control_c, 6, 7, 127
12, 8090, Control_c, 6, 7, 127
12, 8093, Control_c, 6, 7, 127
12, 8096, Control_c, 6, 7, 127
12, 8099, Control_c, 6, 7, 127
12, 8103, Control_c, 6, 7, 127
12, 8109, Control_c, 6, 7, 127
12, 8125, Control_c, 6, 7, 127
12, 8135, Control_c, 6, 7, 127
12, 8138, Control_c, 6, 7, 127
12, 8141, Control_c, 6, 7, 127
12, 8169, Note_on_c, 6, 76, 0
12, 8169, Note_on_c, 6, 96, 0
12, 8175, Note_on_c, 6, 84, 0
12, 8175, End_track
13, 0, Start_track
13, 0, MIDI_port, 0
13, 0, Title_t, "Contrabass"
13, 0, Program_c, 7, 48
13, 0, Control_c, 7, 7, 65
13, 0, Control_c, 7, 10, 100
13, 0, Pitch_bend_c, 7, 8192
13, 0, Control_c, 7, 64, 0
13, 0, Control_c, 7, 1, 0
13, 0, Note_on_c, 7, 24, 55
13, 348, Control_c, 7, 7, 65
13, 1462, Control_c, 7, 7, 64
13, 1466, Control_c, 7, 7, 66
13, 1488, Control_c, 7, 7, 67
13, 1493, Control_c, 7, 7, 66
13, 1572, Control_c, 7, 7, 69
13, 1586, Control_c, 7, 7, 70
13, 1594, Control_c, 7, 7, 71
13, 1603, Control_c, 7, 7, 72
13, 1622, Control_c, 7, 7, 73
13, 1644, Control_c, 7, 7, 74
13, 1670, Control_c, 7, 7, 75
13, 1675, Control_c, 7, 7, 76
13, 1684, Control_c, 7, 7, 77
13, 1701, Control_c, 7, 7, 78
13, 1710, Control_c, 7, 7, 79
13, 1732, Control_c, 7, 7, 80
13, 1755, Control_c, 7, 7, 81
13, 1768, Control_c, 7, 7, 82
13, 1795, Control_c, 7, 7, 83
13, 1812, Control_c, 7, 7, 84
13, 1821, Control_c, 7, 7, 85
13, 1834, Control_c, 7, 7, 86
13, 1848, Control_c, 7, 7, 87
13, 1865, Control_c, 7, 7, 86
13, 1888, Control_c, 7, 7, 87
13, 1897, Control_c, 7, 7, 89
13, 1910, Control_c, 7, 7, 90
13, 1952, Control_c, 7, 7, 91
13, 1964, Control_c, 7, 7, 92
13, 1969, Control_c, 7, 7, 91
13, 1973, Control_c, 7, 7, 89
13, 1977, Control_c, 7, 7, 87
13, 1981, Control_c, 7, 7, 86
13, 1985, Control_c, 7, 7, 85
13, 1989, Control_c, 7, 7, 84
13, 1997, Control_c, 7, 7, 83
13, 2001, Control_c, 7, 7, 82
13, 2005, Control_c, 7, 7, 81
13, 2013, Control_c, 7, 7, 80
13, 2018, Control_c, 7, 7, 79
13, 2022, Control_c, 7, 7, 78
13, 2030, Control_c, 7, 7, 77
13, 2038, Control_c, 7, 7, 76
13, 2042, Control_c, 7, 7, 75
13, 2046, Control_c, 7, 7, 74
13, 2058, Control_c, 7, 7, 73
13, 2120, Control_c, 7, 7, 70
13, 2129, Control_c, 7, 7, 69
13, 2148, Control_c, 7, 7, 68
13, 2163, Control_c, 7, 7, 67
13, 2174, Control_c, 7, 7, 66
13, 2196, Control_c, 7, 7, 65
13, 2203, Control_c, 7, 7, 66
13, 2211, Control_c, 7, 7, 65
13, 2326, Control_c, 7, 7, 63
13, 2336, Control_c, 7, 7, 62
13, 2342, Control_c, 7, 7, 63
13, 2346, Control_c, 7, 7, 62
13, 2391, Note_on_c, 7, 24, 0
13, 2416, Note_on_c, 7, 24, 55
13, 3336, Control_c, 7, 7, 64
13, 3356, Control_c, 7, 7, 65
13, 3364, Control_c, 7, 7, 66
13, 3372, Control_c, 7, 7, 68
13, 3376, Control_c, 7, 7, 70
13, 3380, Control_c, 7, 7, 71
13, 3384, Control_c, 7, 7, 73
13, 3388, Control_c, 7, 7, 75
13, 3392, Control_c, 7, 7, 76
13, 3396, Control_c, 7, 7, 78
13, 3400, Control_c, 7, 7, 79
13, 3408, Control_c, 7, 7, 80
13, 3427, Control_c, 7, 7, 81
13, 3451, Control_c, 7, 7, 82
13, 3463, Control_c, 7, 7, 83
13, 3527, Control_c, 7, 7, 80
13, 3531, Control_c, 7, 7, 79
13, 3535, Control_c, 7, 7, 78
13, 3539, Control_c, 7, 7, 77
13, 3547, Control_c, 7, 7, 76
13, 3551, Control_c, 7, 7, 75
13, 3555, Control_c, 7, 7, 74
13, 3559, Control_c, 7, 7, 73
13, 3579, Control_c, 7, 7, 72
13, 3583, Control_c, 7, 7, 71
13, 3591, Control_c, 7, 7, 70
13, 3603, Control_c, 7, 7, 69
13, 3619, Control_c, 7, 7, 68
13, 3627, Control_c, 7, 7, 69
13, 3643, Control_c, 7, 7, 70
13, 3658, Note_on_c, 7, 24, 0
13, 3659, Control_c, 7, 7, 71
13, 3683, Control_c, 7, 7, 72
13, 3695, Control_c, 7, 7, 73
13, 3722, Control_c, 7, 7, 74
13, 3734, Control_c, 7, 7, 75
13, 3742, Control_c, 7, 7, 76
13, 3750, Control_c, 7, 7, 77
13, 3763, Control_c, 7, 7, 78
13, 3783, Control_c, 7, 7, 79
13, 3807, Control_c, 7, 7, 80
13, 3822, Control_c, 7, 7, 81
13, 3830, Note_on_c, 7, 24, 55
13, 3846, Control_c, 7, 7, 80
13, 3889, Control_c, 7, 7, 83
13, 3897, Control_c, 7, 7, 81
13, 3901, Control_c, 7, 7, 80
13, 3905, Control_c, 7, 7, 79
13, 3909, Control_c, 7, 7, 77
13, 3913, Control_c, 7, 7, 76
13, 3917, Control_c, 7, 7, 75
13, 3921, Control_c, 7, 7, 74
13, 3925, Control_c, 7, 7, 72
13, 3932, Control_c, 7, 7, 71
13, 3936, Control_c, 7, 7, 69
13, 3940, Control_c, 7, 7, 68
13, 3944, Control_c, 7, 7, 67
13, 3956, Control_c, 7, 7, 66
13, 4116, Control_c, 7, 7, 64
13, 4297, Note_on_c, 7, 24, 0
13, 4328, Note_on_c, 7, 24, 91
13, 4418, Control_c, 7, 7, 61
13, 5275, Note_on_c, 7, 24, 0
13, 5308, Note_on_c, 7, 29, 127
13, 6065, Control_c, 7, 7, 85
13, 6240, Note_on_c, 7, 52, 127
13, 6240, Note_on_c, 7, 60, 127
13, 6240, Note_on_c, 7, 43, 124
13, 6275, Note_on_c, 7, 29, 0
13, 6285, Note_on_c, 7, 52, 0
13, 6299, Note_on_c, 7, 60, 0
13, 6331, Note_on_c, 7, 62, 127
13, 6331, Note_on_c, 7, 53, 127
13, 6341, Control_c, 7, 7, 87
13, 6387, Note_on_c, 7, 55, 127
13, 6387, Note_on_c, 7, 64, 127
13, 6393, Note_on_c, 7, 53, 0
13, 6395, Note_on_c, 7, 62, 0
13, 6637, Note_on_c, 7, 55, 0
13, 6645, Note_on_c, 7, 64, 0
13, 6660, Note_on_c, 7, 60, 127
13, 6660, Note_on_c, 7, 52, 127
13, 6685, Note_on_c, 7, 52, 0
13, 6695, Note_on_c, 7, 43, 0
13, 6696, Note_on_c, 7, 62, 127
13, 6697, Note_on_c, 7, 53, 127
13, 6702, Note_on_c, 7, 60, 0
13, 6718, Note_on_c, 7, 53, 0
13, 6733, Note_on_c, 7, 64, 127
13, 6734, Note_on_c, 7, 55, 127
13, 6737, Note_on_c, 7, 43, 127
13, 6740, Note_on_c, 7, 62, 0
13, 6904, Control_c, 7, 7, 89
13, 6908, Control_c, 7, 7, 90
13, 6927, Note_on_c, 7, 64, 0
13, 6946, Note_on_c, 7, 55, 0
13, 6949, Note_on_c, 7, 60, 127
13, 6950, Note_on_c, 7, 52, 127
13, 6965, Note_on_c, 7, 45, 126
13, 6969, Note_on_c, 7, 43, 0
13, 7009, Control_c, 7, 7, 91
13, 7021, Control_c, 7, 7, 90
13, 7034, Control_c, 7, 7, 91
13, 7077, Note_on_c, 7, 52, 0
13, 7080, Note_on_c, 7, 60, 0
13, 7086, Note_on_c, 7, 59, 127
13, 7087, Note_on_c, 7, 50, 127
13, 7099, Note_on_c, 7, 43, 125
13, 7103, Note_on_c, 7, 45, 0
13, 7195, Control_c, 7, 7, 92
13, 7259, Note_on_c, 7, 59, 0
13, 7259, Note_on_c, 7, 55, 127
13, 7260, Note_on_c, 7, 48, 127
13, 7264, Note_on_c, 7, 50, 0
13, 7264, Note_on_c, 7, 36, 108
13, 7267, Note_on_c, 7, 43, 0
13, 7671, Control_c, 7, 7, 89
13, 7674, Control_c, 7, 7, 88
13, 7677, Control_c, 7, 7, 87
13, 7687, Control_c, 7, 7, 86
13, 7693, Control_c, 7, 7, 85
13, 7700, Control_c, 7, 7, 84
13, 7709, Control_c, 7, 7, 83
13, 7712, Control_c, 7, 7, 82
13, 7719, Control_c, 7, 7, 81
13, 7725, Control_c, 7, 7, 80
13, 7732, Control_c, 7, 7, 78
13, 7738, Control_c, 7, 7, 77
13, 7745, Control_c, 7, 7, 76
13, 7757, Control_c, 7, 7, 75
13, 7774, Control_c, 7, 7, 74
13, 7777, Control_c, 7, 7, 73
13, 7796, Control_c, 7, 7, 74
13, 7800, Control_c, 7, 7, 75
13, 7809, Control_c, 7, 7, 76
13, 7889, Control_c, 7, 7, 79
13, 7899, Control_c, 7, 7, 80
13, 7905, Control_c, 7, 7, 81
13, 7909, Control_c, 7, 7, 82
13, 7912, Control_c, 7, 7, 83
13, 7921, Control_c, 7, 7, 84
13, 7934, Control_c, 7, 7, 85
13, 7944, Control_c, 7, 7, 86
13, 7957, Control_c, 7, 7, 87
13, 7967, Control_c, 7, 7, 88
13, 7983, Control_c, 7, 7, 89
13, 7992, Control_c, 7, 7, 90
13, 8002, Control_c, 7, 7, 91
13, 8012, Control_c, 7, 7, 92
13, 8018, Control_c, 7, 7, 93
13, 8028, Control_c, 7, 7, 94
13, 8041, Control_c, 7, 7, 95
13, 8047, Control_c, 7, 7, 96
13, 8050, Control_c, 7, 7, 97
13, 8066, Control_c, 7, 7, 98
13, 8069, Control_c, 7, 7, 99
13, 8073, Control_c, 7, 7, 100
13, 8082, Control_c, 7, 7, 101
13, 8092, Control_c, 7, 7, 102
13, 8095, Control_c, 7, 7, 103
13, 8108, Control_c, 7, 7, 104
13, 8114, Control_c, 7, 7, 105
13, 8130, Control_c, 7, 7, 106
13, 8137, Control_c, 7, 7, 107
13, 8146, Control_c, 7, 7, 108
13, 8157, Control_c, 7, 7, 109
13, 8163, Control_c, 7, 7, 110
13, 8164, Note_on_c, 7, 48, 0
13, 8165, Note_on_c, 7, 55, 0
13, 8166, Control_c, 7, 7, 111
13, 8176, Control_c, 7, 7, 112
13, 8185, Control_c, 7, 7, 113
13, 8196, Note_on_c, 7, 36, 0
13, 8196, End_track
14, 0, Start_track
14, 0, MIDI_port, 0
14, 0, Title_t, "Tympani"
14, 0, Program_c, 8, 47
14, 0, Control_c, 8, 7, 65
14, 0, Control_c, 8, 10, 70
14, 0, Pitch_bend_c, 8, 8192
14, 0, Control_c, 8, 64, 0
14, 0, Control_c, 8, 1, 0
14, 1688, Note_on_c, 8, 48, 55
14, 1696, Note_on_c, 8, 48, 0
14, 1698, Note_on_c, 8, 50, 64
14, 1705, Note_on_c, 8, 50, 0
14, 1712, Note_on_c, 8, 48, 35
14, 1716, Note_on_c, 8, 48, 0
14, 1719, Note_on_c, 8, 50, 48
14, 1725, Note_on_c, 8, 50, 0
14, 1730, Note_on_c, 8, 48, 66
14, 1735, Note_on_c, 8, 48, 0
14, 1737, Note_on_c, 8, 50, 66
14, 1744, Note_on_c, 8, 50, 0
14, 1747, Note_on_c, 8, 48, 66
14, 1753, Note_on_c, 8, 48, 0
14, 1754, Note_on_c, 8, 50, 66
14, 1762, Note_on_c, 8, 50, 0
14, 1765, Note_on_c, 8, 48, 124
14, 1772, Note_on_c, 8, 48, 0
14, 1773, Note_on_c, 8, 50, 81
14, 1780, Note_on_c, 8, 50, 0
14, 1782, Note_on_c, 8, 48, 84
14, 1788, Note_on_c, 8, 48, 0
14, 1790, Note_on_c, 8, 50, 117
14, 1797, Note_on_c, 8, 50, 0
14, 1800, Note_on_c, 8, 48, 86
14, 1807, Note_on_c, 8, 48, 0
14, 1807, Note_on_c, 8, 50, 96
14, 1814, Note_on_c, 8, 50, 0
14, 1816, Note_on_c, 8, 48, 127
14, 1823, Note_on_c, 8, 48, 0
14, 1825, Note_on_c, 8, 50, 127
14, 1832, Note_on_c, 8, 50, 0
14, 1834, Note_on_c, 8, 48, 127
14, 1841, Note_on_c, 8, 48, 0
14, 1841, Note_on_c, 8, 50, 127
14, 1848, Note_on_c, 8, 50, 0
14, 1851, Note_on_c, 8, 48, 102
14, 1857, Note_on_c, 8, 48, 0
14, 1858, Note_on_c, 8, 50, 102
14, 1865, Note_on_c, 8, 50, 0
14, 1867, Note_on_c, 8, 48, 127
14, 1873, Note_on_c, 8, 48, 0
14, 1874, Note_on_c, 8, 50, 127
14, 1880, Note_on_c, 8, 50, 0
14, 1883, Note_on_c, 8, 48, 102
14, 1890, Note_on_c, 8, 48, 0
14, 1890, Note_on_c, 8, 50, 127
14, 1896, Note_on_c, 8, 50, 0
14, 1900, Note_on_c, 8, 48, 127
14, 1906, Note_on_c, 8, 50, 127
14, 1907, Note_on_c, 8, 48, 0
14, 1913, Note_on_c, 8, 50, 0
14, 1916, Note_on_c, 8, 48, 127
14, 1919, Note_on_c, 8, 48, 0
14, 1930, Note_on_c, 8, 48, 127
14, 1942, Note_on_c, 8, 48, 0
14, 1967, Note_on_c, 8, 43, 99
14, 1978, Note_on_c, 8, 43, 0
14, 2004, Note_on_c, 8, 48, 102
14, 2016, Note_on_c, 8, 48, 0
14, 2042, Note_on_c, 8, 43, 127
14, 2055, Note_on_c, 8, 43, 0
14, 2079, Note_on_c, 8, 48, 102
14, 2090, Note_on_c, 8, 48, 0
14, 2118, Note_on_c, 8, 43, 127
14, 2131, Note_on_c, 8, 43, 0
14, 2156, Note_on_c, 8, 48, 127
14, 2167, Note_on_c, 8, 48, 0
14, 2196, Note_on_c, 8, 43, 124
14, 2208, Note_on_c, 8, 43, 0
14, 2234, Note_on_c, 8, 48, 127
14, 2245, Note_on_c, 8, 48, 0
14, 2277, Note_on_c, 8, 43, 127
14, 2289, Note_on_c, 8, 43, 0
14, 2317, Note_on_c, 8, 48, 127
14, 2328, Note_on_c, 8, 48, 0
14, 2359, Note_on_c, 8, 43, 127
14, 2371, Note_on_c, 8, 43, 0
14, 2406, Note_on_c, 8, 48, 127
14, 2432, Note_on_c, 8, 48, 0
14, 2630, Control_c, 8, 7, 79
14, 2633, Control_c, 8, 7, 78
14, 2636, Control_c, 8, 7, 77
14, 2639, Control_c, 8, 7, 76
14, 2654, Control_c, 8, 7, 75
14, 3601, Note_on_c, 8, 48, 48
14, 3609, Note_on_c, 8, 48, 0
14, 3613, Note_on_c, 8, 50, 43
14, 3619, Note_on_c, 8, 50, 0
14, 3624, Note_on_c, 8, 48, 48
14, 3629, Note_on_c, 8, 48, 0
14, 3635, Note_on_c, 8, 50, 48
14, 3642, Note_on_c, 8, 50, 0
14, 3645, Note_on_c, 8, 48, 64
14, 3652, Note_on_c, 8, 48, 0
14, 3656, Note_on_c, 8, 50, 55
14, 3664, Note_on_c, 8, 50, 0
14, 3666, Note_on_c, 8, 48, 66
14, 3672, Note_on_c, 8, 48, 0
14, 3676, Note_on_c, 8, 50, 89
14, 3684, Note_on_c, 8, 50, 0
14, 3685, Note_on_c, 8, 48, 96
14, 3692, Note_on_c, 8, 48, 0
14, 3695, Note_on_c, 8, 50, 66
14, 3702, Note_on_c, 8, 50, 0
14, 3704, Note_on_c, 8, 48, 102
14, 3711, Note_on_c, 8, 48, 0
14, 3713, Note_on_c, 8, 50, 93
14, 3721, Note_on_c, 8, 50, 0
14, 3723, Note_on_c, 8, 48, 84
14, 3731, Note_on_c, 8, 48, 0
14, 3731, Note_on_c, 8, 50, 111
14, 3738, Note_on_c, 8, 50, 0
14, 3741, Note_on_c, 8, 48, 127
14, 3749, Note_on_c, 8, 48, 0
14, 3750, Note_on_c, 8, 50, 127
14, 3758, Note_on_c, 8, 50, 0
14, 3760, Note_on_c, 8, 48, 123
14, 3767, Note_on_c, 8, 48, 0
14, 3768, Note_on_c, 8, 50, 127
14, 3776, Note_on_c, 8, 50, 0
14, 3778, Note_on_c, 8, 48, 114
14, 3785, Note_on_c, 8, 48, 0
14, 3787, Note_on_c, 8, 50, 127
14, 3794, Note_on_c, 8, 50, 0
14, 3795, Note_on_c, 8, 48, 127
14, 3802, Note_on_c, 8, 48, 0
14, 3805, Note_on_c, 8, 50, 127
14, 3811, Note_on_c, 8, 48, 117
14, 3813, Note_on_c, 8, 50, 0
14, 3818, Note_on_c, 8, 48, 0
14, 3821, Note_on_c, 8, 50, 114
14, 3824, Note_on_c, 8, 48, 84
14, 3829, Note_on_c, 8, 50, 0
14, 3831, Note_on_c, 8, 48, 0
14, 3842, Note_on_c, 8, 48, 127
14, 3853, Note_on_c, 8, 48, 0
14, 3884, Note_on_c, 8, 43, 127
14, 3895, Note_on_c, 8, 43, 0
14, 3924, Note_on_c, 8, 48, 102
14, 3933, Note_on_c, 8, 48, 0
14, 3962, Note_on_c, 8, 43, 127
14, 3974, Note_on_c, 8, 43, 0
14, 4000, Note_on_c, 8, 48, 127
14, 4010, Note_on_c, 8, 48, 0
14, 4037, Note_on_c, 8, 43, 127
14, 4047, Note_on_c, 8, 43, 0
14, 4075, Note_on_c, 8, 48, 127
14, 4085, Note_on_c, 8, 48, 0
14, 4116, Note_on_c, 8, 43, 123
14, 4127, Note_on_c, 8, 43, 0
14, 4156, Note_on_c, 8, 48, 102
14, 4166, Note_on_c, 8, 48, 0
14, 4196, Note_on_c, 8, 43, 127
14, 4206, Note_on_c, 8, 43, 0
14, 4237, Note_on_c, 8, 48, 127
14, 4247, Note_on_c, 8, 48, 0
14, 4278, Note_on_c, 8, 43, 127
14, 4288, Note_on_c, 8, 43, 0
14, 4322, Note_on_c, 8, 48, 127
14, 4338, Note_on_c, 8, 48, 0
14, 5519, Note_on_c, 8, 48, 30
14, 5526, Note_on_c, 8, 48, 0
14, 5533, Note_on_c, 8, 50, 30
14, 5539, Note_on_c, 8, 50, 0
14, 5545, Note_on_c, 8, 48, 22
14, 5549, Note_on_c, 8, 48, 0
14, 5555, Note_on_c, 8, 50, 30
14, 5560, Note_on_c, 8, 50, 0
14, 5564, Note_on_c, 8, 48, 48
14, 5569, Note_on_c, 8, 48, 0
14, 5575, Note_on_c, 8, 50, 43
14, 5581, Note_on_c, 8, 50, 0
14, 5585, Note_on_c, 8, 48, 43
14, 5590, Note_on_c, 8, 48, 0
14, 5594, Note_on_c, 8, 50, 43
14, 5601, Note_on_c, 8, 50, 0
14, 5605, Note_on_c, 8, 48, 48
14, 5611, Note_on_c, 8, 48, 0
14, 5614, Note_on_c, 8, 50, 55
14, 5621, Note_on_c, 8, 50, 0
14, 5624, Note_on_c, 8, 48, 64
14, 5630, Note_on_c, 8, 48, 0
14, 5632, Note_on_c, 8, 50, 79
14, 5640, Note_on_c, 8, 50, 0
14, 5642, Note_on_c, 8, 48, 79
14, 5649, Note_on_c, 8, 48, 0
14, 5650, Note_on_c, 8, 50, 89
14, 5658, Note_on_c, 8, 50, 0
14, 5661, Note_on_c, 8, 48, 117
14, 5669, Note_on_c, 8, 48, 0
14, 5670, Note_on_c, 8, 50, 127
14, 5678, Note_on_c, 8, 50, 0
14, 5680, Note_on_c, 8, 48, 124
14, 5687, Note_on_c, 8, 48, 0
14, 5689, Note_on_c, 8, 50, 127
14, 5697, Note_on_c, 8, 50, 0
14, 5698, Note_on_c, 8, 48, 127
14, 5705, Note_on_c, 8, 48, 0
14, 5708, Note_on_c, 8, 50, 102
14, 5715, Note_on_c, 8, 50, 0
14, 5716, Note_on_c, 8, 48, 127
14, 5723, Note_on_c, 8, 48, 0
14, 5726, Note_on_c, 8, 50, 114
14, 5732, Note_on_c, 8, 48, 120
14, 5733, Note_on_c, 8, 50, 0
14, 5739, Note_on_c, 8, 48, 0
14, 5743, Note_on_c, 8, 50, 127
14, 5748, Note_on_c, 8, 48, 127
14, 5751, Note_on_c, 8, 50, 0
14, 5754, Note_on_c, 8, 48, 0
14, 5760, Note_on_c, 8, 50, 127
14, 5761, Note_on_c, 8, 48, 127
14, 5767, Note_on_c, 8, 48, 0
14, 5767, Note_on_c, 8, 50, 0
14, 6055, Note_on_c, 8, 50, 51
14, 6064, Note_on_c, 8, 50, 0
14, 6066, Note_on_c, 8, 48, 35
14, 6072, Note_on_c, 8, 48, 0
14, 6075, Note_on_c, 8, 50, 39
14, 6082, Note_on_c, 8, 50, 0
14, 6082, Note_on_c, 8, 48, 64
14, 6089, Note_on_c, 8, 48, 0
14, 6092, Note_on_c, 8, 50, 51
14, 6098, Note_on_c, 8, 48, 55
14, 6099, Note_on_c, 8, 50, 0
14, 6106, Note_on_c, 8, 48, 0
14, 6107, Note_on_c, 8, 50, 58
14, 6114, Note_on_c, 8, 48, 66
14, 6115, Note_on_c, 8, 50, 0
14, 6122, Note_on_c, 8, 48, 0
14, 6123, Note_on_c, 8, 50, 84
14, 6131, Note_on_c, 8, 50, 0
14, 6131, Note_on_c, 8, 48, 66
14, 6138, Note_on_c, 8, 48, 0
14, 6140, Note_on_c, 8, 50, 102
14, 6149, Note_on_c, 8, 48, 58
14, 6150, Note_on_c, 8, 50, 0
14, 6156, Note_on_c, 8, 48, 0
14, 6157, Note_on_c, 8, 50, 96
14, 6165, Note_on_c, 8, 48, 58
14, 6166, Note_on_c, 8, 50, 0
14, 6173, Note_on_c, 8, 48, 0
14, 6175, Note_on_c, 8, 50, 77
14, 6183, Note_on_c, 8, 50, 0
14, 6183, Note_on_c, 8, 48, 77
14, 6191, Note_on_c, 8, 48, 0
14, 6193, Note_on_c, 8, 50, 123
14, 6201, Note_on_c, 8, 48, 74
14, 6202, Note_on_c, 8, 50, 0
14, 6208, Note_on_c, 8, 48, 0
14, 6210, Note_on_c, 8, 50, 125
14, 6217, Note_on_c, 8, 48, 58
14, 6218, Note_on_c, 8, 50, 0
14, 6224, Note_on_c, 8, 48, 0
14, 6226, Note_on_c, 8, 50, 108
14, 6233, Note_on_c, 8, 48, 69
14, 6234, Note_on_c, 8, 50, 0
14, 6240, Note_on_c, 8, 48, 0
14, 6240, Note_on_c, 8, 50, 84
14, 6248, Note_on_c, 8, 50, 0
14, 6249, Note_on_c, 8, 48, 48
14, 6254, Note_on_c, 8, 48, 0
14, 6256, Note_on_c, 8, 50, 125
14, 6266, Note_on_c, 8, 50, 0
14, 6267, Note_on_c, 8, 48, 127
14, 6282, Note_on_c, 8, 48, 0
14, 6613, Note_on_c, 8, 52, 127
14, 6621, Note_on_c, 8, 52, 0
14, 6669, Note_on_c, 8, 48, 127
14, 6669, Control_c, 8, 7, 98
14, 6679, Note_on_c, 8, 48, 0
14, 6742, Note_on_c, 8, 43, 127
14, 6938, Note_on_c, 8, 43, 0
14, 6970, Note_on_c, 8, 48, 127
14, 6977, Note_on_c, 8, 48, 0
14, 7114, Note_on_c, 8, 43, 127
14, 7202, Note_on_c, 8, 43, 0
14, 7252, Note_on_c, 8, 36, 127
14, 7252, Control_c, 8, 7, 65
14, 7265, Note_on_c, 8, 36, 0
14, 7417, Note_on_c, 8, 48, 48
14, 7424, Note_on_c, 8, 48, 0
14, 7429, Note_on_c, 8, 50, 51
14, 7435, Note_on_c, 8, 50, 0
14, 7444, Note_on_c, 8, 48, 43
14, 7450, Note_on_c, 8, 48, 0
14, 7455, Note_on_c, 8, 50, 48
14, 7461, Note_on_c, 8, 50, 0
14, 7468, Note_on_c, 8, 48, 43
14, 7474, Note_on_c, 8, 48, 0
14, 7480, Note_on_c, 8, 50, 48
14, 7486, Note_on_c, 8, 50, 0
14, 7492, Note_on_c, 8, 48, 26
14, 7497, Note_on_c, 8, 48, 0
14, 7504, Note_on_c, 8, 50, 48
14, 7511, Note_on_c, 8, 50, 0
14, 7516, Note_on_c, 8, 48, 48
14, 7522, Note_on_c, 8, 48, 0
14, 7527, Note_on_c, 8, 50, 39
14, 7534, Note_on_c, 8, 50, 0
14, 7538, Note_on_c, 8, 48, 55
14, 7545, Note_on_c, 8, 48, 0
14, 7551, Note_on_c, 8, 50, 58
14, 7558, Note_on_c, 8, 50, 0
14, 7562, Note_on_c, 8, 48, 72
14, 7569, Note_on_c, 8, 48, 0
14, 7574, Note_on_c, 8, 50, 79
14, 7581, Note_on_c, 8, 50, 0
14, 7585, Note_on_c, 8, 48, 69
14, 7591, Note_on_c, 8, 48, 0
14, 7596, Note_on_c, 8, 50, 84
14, 7603, Note_on_c, 8, 50, 0
14, 7608, Note_on_c, 8, 48, 72
14, 7615, Note_on_c, 8, 48, 0
14, 7619, Note_on_c, 8, 50, 72
14, 7626, Note_on_c, 8, 50, 0
14, 7632, Note_on_c, 8, 48, 74
14, 7638, Note_on_c, 8, 48, 0
14, 7644, Note_on_c, 8, 50, 58
14, 7650, Note_on_c, 8, 50, 0
14, 7655, Note_on_c, 8, 48, 72
14, 7661, Note_on_c, 8, 48, 0
14, 7667, Note_on_c, 8, 50, 77
14, 7673, Note_on_c, 8, 50, 0
14, 7679, Note_on_c, 8, 48, 72
14, 7684, Note_on_c, 8, 48, 0
14, 7691, Note_on_c, 8, 50, 81
14, 7695, Note_on_c, 8, 50, 0
14, 7703, Note_on_c, 8, 48, 72
14, 7706, Note_on_c, 8, 48, 0
14, 7714, Note_on_c, 8, 50, 79
14, 7717, Note_on_c, 8, 50, 0
14, 7727, Note_on_c, 8, 48, 72
14, 7730, Note_on_c, 8, 48, 0
14, 7737, Note_on_c, 8, 50, 74
14, 7742, Note_on_c, 8, 50, 0
14, 7750, Note_on_c, 8, 48, 66
14, 7753, Note_on_c, 8, 48, 0
14, 7761, Note_on_c, 8, 50, 84
14, 7764, Note_on_c, 8, 50, 0
14, 7774, Note_on_c, 8, 48, 74
14, 7777, Note_on_c, 8, 48, 0
14, 7788, Note_on_c, 8, 50, 66
14, 7791, Note_on_c, 8, 50, 0
14, 7802, Note_on_c, 8, 48, 55
14, 7806, Note_on_c, 8, 48, 0
14, 7814, Note_on_c, 8, 50, 77
14, 7817, Note_on_c, 8, 50, 0
14, 7828, Note_on_c, 8, 48, 69
14, 7833, Note_on_c, 8, 48, 0
14, 7840, Note_on_c, 8, 50, 79
14, 7843, Note_on_c, 8, 50, 0
14, 7854, Note_on_c, 8, 48, 66
14, 7857, Note_on_c, 8, 48, 0
14, 7867, Note_on_c, 8, 50, 84
14, 7870, Note_on_c, 8, 50, 0
14, 7879, Note_on_c, 8, 48, 74
14, 7884, Note_on_c, 8, 48, 0
14, 7891, Note_on_c, 8, 50, 102
14, 7896, Note_on_c, 8, 50, 0
14, 7905, Note_on_c, 8, 48, 66
14, 7910, Note_on_c, 8, 48, 0
14, 7915, Note_on_c, 8, 50, 93
14, 7920, Note_on_c, 8, 50, 0
14, 7928, Note_on_c, 8, 48, 79
14, 7935, Note_on_c, 8, 48, 0
14, 7938, Note_on_c, 8, 50, 117
14, 7944, Note_on_c, 8, 50, 0
14, 7950, Note_on_c, 8, 48, 127
14, 7957, Note_on_c, 8, 48, 0
14, 7960, Note_on_c, 8, 50, 99
14, 7966, Note_on_c, 8, 50, 0
14, 7971, Note_on_c, 8, 48, 127
14, 7978, Note_on_c, 8, 48, 0
14, 7981, Note_on_c, 8, 50, 127
14, 7988, Note_on_c, 8, 50, 0
14, 7992, Note_on_c, 8, 48, 127
14, 8000, Note_on_c, 8, 48, 0
14, 8004, Note_on_c, 8, 50, 127
14, 8011, Note_on_c, 8, 50, 0
14, 8014, Note_on_c, 8, 48, 127
14, 8021, Note_on_c, 8, 48, 0
14, 8024, Note_on_c, 8, 50, 111
14, 8031, Note_on_c, 8, 50, 0
14, 8035, Note_on_c, 8, 48, 127
14, 8042, Note_on_c, 8, 48, 0
14, 8045, Note_on_c, 8, 50, 126
14, 8052, Note_on_c, 8, 50, 0
14, 8056, Note_on_c, 8, 48, 127
14, 8063, Note_on_c, 8, 48, 0
14, 8067, Note_on_c, 8, 50, 108
14, 8074, Note_on_c, 8, 50, 0
14, 8077, Note_on_c, 8, 48, 127
14, 8084, Note_on_c, 8, 48, 0
14, 8087, Note_on_c, 8, 50, 114
14, 8093, Note_on_c, 8, 50, 0
14, 8098, Note_on_c, 8, 48, 127
14, 8104, Note_on_c, 8, 48, 0
14, 8107, Note_on_c, 8, 50, 127
14, 8113, Note_on_c, 8, 50, 0
14, 8117, Note_on_c, 8, 48, 127
14, 8123, Note_on_c, 8, 48, 0
14, 8126, Note_on_c, 8, 50, 127
14, 8132, Note_on_c, 8, 50, 0
14, 8136, Note_on_c, 8, 48, 127
14, 8142, Note_on_c, 8, 48, 0
14, 8146, Note_on_c, 8, 50, 127
14, 8152, Note_on_c, 8, 50, 0
14, 8154, Note_on_c, 8, 48, 127
14, 8161, Note_on_c, 8, 48, 0
14, 8161, End_track
15, 0, Start_track
15, 0, MIDI_port, 0
15, 0, Title_t, "Cymbal"
15, 0, Program_c, 9, 0
15, 0, Control_c, 9, 7, 100
15, 0, Control_c, 9, 10, 20
15, 0, Pitch_bend_c, 9, 8192
15, 0, Control_c, 9, 64, 0
15, 0, Control_c, 9, 1, 0
15, 1452, Note_on_c, 9, 49, 127
15, 1628, Note_on_c, 9, 49, 0
15, 3374, Note_on_c, 9, 57, 127
15, 3487, Note_on_c, 9, 57, 0
15, 5300, Note_on_c, 9, 57, 127
15, 5434, Note_on_c, 9, 57, 0
15, 6267, Note_on_c, 9, 57, 127
15, 6370, Note_on_c, 9, 57, 0
15, 7244, Note_on_c, 9, 57, 127
15, 7392, Note_on_c, 9, 57, 0
15, 7392, End_track
16, 0, Start_track
16, 0, MIDI_port, 0
16, 0, Title_t, "copyright '93"
16, 0, Pitch_bend_c, 10, 8192
16, 0, Control_c, 10, 64, 0
16, 0, Control_c, 10, 1, 0
16, 0, End_track
17, 0, Start_track
17, 0, MIDI_port, 0
17, 0, Title_t, "Michael Ford   "
17, 0, Pitch_bend_c, 11, 8192
17, 0, Control_c, 11, 64, 0
17, 0, Control_c, 11, 1, 0
17, 0, End_track
18, 0, Start_track
18, 0, MIDI_port, 0
18, 0, Title_t, "   Archives"
18, 0, Pitch_bend_c, 12, 8192
18, 0, Control_c, 12, 64, 0
18, 0, Control_c, 12, 1, 0
18, 0, End_track
19, 0, Start_track
19, 0, MIDI_port, 0
19, 0, Title_t, "215 8899744"
19, 0, Pitch_bend_c, 13, 8192
19, 0, Control_c, 13, 64, 0
19, 0, Control_c, 13, 1, 0
19, 0, End_track
0, 0, End_of_file
