0, 0, Header, 1, 25, 192
1, 0, Start_track
1, 0, Title_t, "untitled"
1, 0, Time_signature, 3, 2, 24, 8
1, 0, Key_signature, -3, "major"
1, 0, Tempo, 1071429
1, 18816, Tempo, 1304348
1, 19008, Tempo, 857143
1, 32832, Tempo, 750000
1, 40704, Tempo, 1500000
1, 40896, Tempo, 789474
1, 43776, Time_signature, 4, 2, 24, 8
1, 43776, Tempo, 697674
1, 57600, Tempo, 250000
1, 59136, Tempo, 454545
1, 197376, Tempo, 461538
1, 244224, Tempo, 468750
1, 245760, Tempo, 483871
1, 246528, Tempo, 491803
1, 248064, Tempo, 508475
1, 248832, Tempo, 521739
1, 249600, Tempo, 535714
1, 251104, Tempo, 555556
1, 251136, Time_signature, 3, 2, 24, 8
1, 251296, Tempo, 576923
1, 251872, Tempo, 600000
1, 252448, Tempo, 625000
1, 253024, Tempo, 681818
1, 253600, Tempo, 714286
1, 254176, Tempo, 750000
1, 254752, Tempo, 789474
1, 255328, Tempo, 833333
1, 255904, Tempo, 882353
1, 256320, Tempo, 1000000
1, 257472, Tempo, 1153846
1, 257856, Tempo, 1000000
1, 259200, Tempo, 857143
1, 260352, Tempo, 1000000
1, 262080, Tempo, 857143
1, 263616, Tempo, 1000000
1, 266112, Tempo, 857143
1, 267264, Tempo, 1000000
1, 270144, Time_signature, 4, 2, 24, 8
1, 270144, Tempo, 329670
1, 301632, Tempo, 545455
1, 302208, Tempo, 625000
1, 302400, Tempo, 681818
1, 302400, End_track
2, 0, Start_track
2, 0, MIDI_port, 0
2, 0, Title_t, "Violins"
2, 0, Program_c, 0, 48
2, 0, Control_c, 0, 7, 110
2, 0, Control_c, 0, 10, 98
2, 19008, Note_on_c, 0, 55, 66
2, 19296, Note_on_c, 0, 55, 0
2, 19296, Note_on_c, 0, 59, 66
2, 19328, Note_on_c, 0, 59, 0
2, 19328, Note_on_c, 0, 59, 66
2, 19360, Note_on_c, 0, 59, 0
2, 19360, Note_on_c, 0, 59, 66
2, 19392, Note_on_c, 0, 59, 0
2, 19392, Note_on_c, 0, 62, 66
2, 19424, Note_on_c, 0, 62, 0
2, 19424, Note_on_c, 0, 62, 66
2, 19456, Note_on_c, 0, 62, 0
2, 19456, Note_on_c, 0, 62, 66
2, 19488, Note_on_c, 0, 62, 0
2, 19488, Note_on_c, 0, 67, 66
2, 19520, Note_on_c, 0, 67, 0
2, 19520, Note_on_c, 0, 67, 66
2, 19552, Note_on_c, 0, 67, 0
2, 19552, Note_on_c, 0, 67, 66
2, 19584, Note_on_c, 0, 67, 0
2, 19584, Note_on_c, 0, 71, 73
2, 19632, Note_on_c, 0, 71, 0
2, 19632, Note_on_c, 0, 71, 73
2, 19680, Note_on_c, 0, 71, 0
2, 19680, Note_on_c, 0, 74, 73
2, 19728, Note_on_c, 0, 74, 0
2, 19728, Note_on_c, 0, 74, 73
2, 19776, Note_on_c, 0, 74, 0
2, 19776, Note_on_c, 0, 77, 73
2, 19824, Note_on_c, 0, 77, 0
2, 19824, Note_on_c, 0, 77, 73
2, 19872, Note_on_c, 0, 77, 0
2, 19872, Note_on_c, 0, 79, 73
2, 19920, Note_on_c, 0, 79, 0
2, 19920, Note_on_c, 0, 79, 73
2, 20160, Note_on_c, 0, 79, 0
2, 20160, Note_on_c, 0, 72, 66
2, 20160, Note_on_c, 0, 84, 66
2, 20208, Note_on_c, 0, 84, 0
2, 20208, Note_on_c, 0, 72, 0
2, 20208, Note_on_c, 0, 63, 66
2, 20256, Note_on_c, 0, 63, 0
2, 20256, Note_on_c, 0, 63, 66
2, 20304, Note_on_c, 0, 63, 0
2, 20304, Note_on_c, 0, 63, 66
2, 20352, Note_on_c, 0, 63, 0
2, 20352, Note_on_c, 0, 63, 66
2, 20400, Note_on_c, 0, 63, 0
2, 20400, Note_on_c, 0, 63, 66
2, 20448, Note_on_c, 0, 63, 0
2, 20448, Note_on_c, 0, 63, 66
2, 20496, Note_on_c, 0, 63, 0
2, 20496, Note_on_c, 0, 63, 66
2, 20544, Note_on_c, 0, 63, 0
2, 20544, Note_on_c, 0, 63, 66
2, 20592, Note_on_c, 0, 63, 0
2, 20592, Note_on_c, 0, 63, 66
2, 20640, Note_on_c, 0, 63, 0
2, 20640, Note_on_c, 0, 63, 66
2, 20688, Note_on_c, 0, 63, 0
2, 20688, Note_on_c, 0, 63, 66
2, 20736, Note_on_c, 0, 63, 0
2, 20736, Note_on_c, 0, 63, 66
2, 20784, Note_on_c, 0, 63, 0
2, 20784, Note_on_c, 0, 63, 66
2, 20832, Note_on_c, 0, 63, 0
2, 20832, Note_on_c, 0, 63, 66
2, 20880, Note_on_c, 0, 63, 0
2, 20880, Note_on_c, 0, 63, 66
2, 20928, Note_on_c, 0, 63, 0
2, 20928, Note_on_c, 0, 63, 66
2, 20976, Note_on_c, 0, 63, 0
2, 20976, Note_on_c, 0, 63, 66
2, 21024, Note_on_c, 0, 63, 0
2, 21024, Note_on_c, 0, 63, 66
2, 21072, Note_on_c, 0, 63, 0
2, 21072, Note_on_c, 0, 63, 66
2, 21120, Note_on_c, 0, 63, 0
2, 21120, Note_on_c, 0, 63, 66
2, 21168, Note_on_c, 0, 63, 0
2, 21168, Note_on_c, 0, 63, 66
2, 21216, Note_on_c, 0, 63, 0
2, 21216, Note_on_c, 0, 63, 66
2, 21264, Note_on_c, 0, 63, 0
2, 21264, Note_on_c, 0, 63, 66
2, 21312, Note_on_c, 0, 63, 0
2, 26496, Note_on_c, 0, 63, 66
2, 26544, Note_on_c, 0, 63, 0
2, 26544, Note_on_c, 0, 63, 66
2, 26592, Note_on_c, 0, 63, 0
2, 26592, Note_on_c, 0, 63, 66
2, 26640, Note_on_c, 0, 63, 0
2, 26640, Note_on_c, 0, 63, 66
2, 26688, Note_on_c, 0, 63, 0
2, 26688, Note_on_c, 0, 63, 66
2, 26736, Note_on_c, 0, 63, 0
2, 26736, Note_on_c, 0, 63, 66
2, 26784, Note_on_c, 0, 63, 0
2, 26784, Note_on_c, 0, 63, 66
2, 26832, Note_on_c, 0, 63, 0
2, 26832, Note_on_c, 0, 63, 66
2, 26880, Note_on_c, 0, 63, 0
2, 26880, Note_on_c, 0, 63, 66
2, 26928, Note_on_c, 0, 63, 0
2, 26928, Note_on_c, 0, 63, 66
2, 26976, Note_on_c, 0, 63, 0
2, 26976, Note_on_c, 0, 63, 66
2, 27024, Note_on_c, 0, 63, 0
2, 27024, Note_on_c, 0, 63, 66
2, 27072, Note_on_c, 0, 63, 0
2, 27216, Note_on_c, 0, 58, 66
2, 27232, Note_on_c, 0, 58, 0
2, 27232, Note_on_c, 0, 60, 66
2, 27248, Note_on_c, 0, 60, 0
2, 27248, Note_on_c, 0, 62, 66
2, 27264, Note_on_c, 0, 62, 0
2, 27264, Note_on_c, 0, 63, 66
2, 27360, Note_on_c, 0, 63, 0
2, 27408, Note_on_c, 0, 62, 66
2, 27424, Note_on_c, 0, 62, 0
2, 27424, Note_on_c, 0, 63, 66
2, 27440, Note_on_c, 0, 63, 0
2, 27440, Note_on_c, 0, 65, 66
2, 27456, Note_on_c, 0, 65, 0
2, 27456, Note_on_c, 0, 66, 66
2, 27552, Note_on_c, 0, 66, 0
2, 27600, Note_on_c, 0, 66, 66
2, 27616, Note_on_c, 0, 66, 0
2, 27616, Note_on_c, 0, 68, 66
2, 27632, Note_on_c, 0, 68, 0
2, 27632, Note_on_c, 0, 69, 66
2, 27648, Note_on_c, 0, 69, 0
2, 27648, Note_on_c, 0, 70, 66
2, 27744, Note_on_c, 0, 70, 0
2, 27792, Note_on_c, 0, 70, 66
2, 27808, Note_on_c, 0, 70, 0
2, 27808, Note_on_c, 0, 71, 66
2, 27824, Note_on_c, 0, 71, 0
2, 27824, Note_on_c, 0, 73, 66
2, 27840, Note_on_c, 0, 73, 0
2, 27840, Note_on_c, 0, 75, 66
2, 27936, Note_on_c, 0, 75, 0
2, 27984, Note_on_c, 0, 75, 66
2, 28000, Note_on_c, 0, 75, 0
2, 28000, Note_on_c, 0, 77, 66
2, 28016, Note_on_c, 0, 77, 0
2, 28016, Note_on_c, 0, 78, 66
2, 28032, Note_on_c, 0, 78, 0
2, 28032, Note_on_c, 0, 79, 66
2, 28128, Note_on_c, 0, 79, 0
2, 28176, Note_on_c, 0, 79, 66
2, 28192, Note_on_c, 0, 79, 0
2, 28192, Note_on_c, 0, 80, 66
2, 28208, Note_on_c, 0, 80, 0
2, 28208, Note_on_c, 0, 82, 66
2, 28224, Note_on_c, 0, 82, 0
2, 28224, Note_on_c, 0, 83, 66
2, 28320, Note_on_c, 0, 83, 0
2, 29520, Note_on_c, 0, 59, 66
2, 29536, Note_on_c, 0, 59, 0
2, 29536, Note_on_c, 0, 61, 66
2, 29552, Note_on_c, 0, 61, 0
2, 29552, Note_on_c, 0, 62, 66
2, 29568, Note_on_c, 0, 62, 0
2, 29568, Note_on_c, 0, 63, 66
2, 29664, Note_on_c, 0, 63, 0
2, 29712, Note_on_c, 0, 63, 66
2, 29728, Note_on_c, 0, 63, 0
2, 29728, Note_on_c, 0, 64, 66
2, 29744, Note_on_c, 0, 64, 0
2, 29744, Note_on_c, 0, 66, 66
2, 29760, Note_on_c, 0, 66, 0
2, 29760, Note_on_c, 0, 68, 66
2, 29856, Note_on_c, 0, 68, 0
2, 29904, Note_on_c, 0, 68, 66
2, 29920, Note_on_c, 0, 68, 0
2, 29920, Note_on_c, 0, 69, 66
2, 29936, Note_on_c, 0, 69, 0
2, 29936, Note_on_c, 0, 70, 66
2, 29952, Note_on_c, 0, 70, 0
2, 29952, Note_on_c, 0, 71, 66
2, 30048, Note_on_c, 0, 71, 0
2, 30096, Note_on_c, 0, 72, 66
2, 30112, Note_on_c, 0, 72, 0
2, 30112, Note_on_c, 0, 73, 66
2, 30128, Note_on_c, 0, 73, 0
2, 30128, Note_on_c, 0, 75, 66
2, 30144, Note_on_c, 0, 75, 0
2, 30144, Note_on_c, 0, 76, 66
2, 30240, Note_on_c, 0, 76, 0
2, 30288, Note_on_c, 0, 76, 66
2, 30304, Note_on_c, 0, 76, 0
2, 30304, Note_on_c, 0, 78, 66
2, 30320, Note_on_c, 0, 78, 0
2, 30320, Note_on_c, 0, 79, 66
2, 30336, Note_on_c, 0, 79, 0
2, 30336, Note_on_c, 0, 80, 66
2, 30432, Note_on_c, 0, 80, 0
2, 30480, Note_on_c, 0, 80, 66
2, 30496, Note_on_c, 0, 80, 0
2, 30496, Note_on_c, 0, 81, 66
2, 30512, Note_on_c, 0, 81, 0
2, 30512, Note_on_c, 0, 83, 66
2, 30528, Note_on_c, 0, 83, 0
2, 30528, Note_on_c, 0, 68, 66
2, 30528, Note_on_c, 0, 61, 66
2, 30528, Note_on_c, 0, 85, 66
2, 30624, Note_on_c, 0, 85, 0
2, 30624, Note_on_c, 0, 61, 0
2, 30624, Note_on_c, 0, 68, 0
2, 30912, Note_on_c, 0, 74, 66
2, 30912, Note_on_c, 0, 86, 66
2, 31056, Note_on_c, 0, 86, 0
2, 31056, Note_on_c, 0, 74, 0
2, 31056, Note_on_c, 0, 85, 66
2, 31056, Note_on_c, 0, 73, 66
2, 31104, Note_on_c, 0, 73, 0
2, 31104, Note_on_c, 0, 85, 0
2, 31104, Note_on_c, 0, 66, 66
2, 31104, Note_on_c, 0, 78, 66
2, 31200, Note_on_c, 0, 78, 0
2, 31200, Note_on_c, 0, 66, 0
2, 31488, Note_on_c, 0, 76, 66
2, 31488, Note_on_c, 0, 88, 66
2, 31632, Note_on_c, 0, 88, 0
2, 31632, Note_on_c, 0, 76, 0
2, 31632, Note_on_c, 0, 86, 66
2, 31632, Note_on_c, 0, 74, 66
2, 31680, Note_on_c, 0, 74, 0
2, 31680, Note_on_c, 0, 86, 0
2, 31680, Note_on_c, 0, 67, 66
2, 31680, Note_on_c, 0, 79, 66
2, 31776, Note_on_c, 0, 79, 0
2, 31776, Note_on_c, 0, 67, 0
2, 32064, Note_on_c, 0, 89, 66
2, 32064, Note_on_c, 0, 77, 66
2, 32208, Note_on_c, 0, 77, 0
2, 32208, Note_on_c, 0, 89, 0
2, 32208, Note_on_c, 0, 88, 66
2, 32208, Note_on_c, 0, 76, 66
2, 32256, Note_on_c, 0, 76, 0
2, 32256, Note_on_c, 0, 88, 0
2, 32256, Note_on_c, 0, 76, 66
2, 32256, Note_on_c, 0, 64, 66
2, 32352, Note_on_c, 0, 64, 0
2, 32352, Note_on_c, 0, 76, 0
2, 32448, Note_on_c, 0, 79, 66
2, 32448, Note_on_c, 0, 91, 66
2, 32592, Note_on_c, 0, 91, 0
2, 32592, Note_on_c, 0, 79, 0
2, 32592, Note_on_c, 0, 90, 66
2, 32592, Note_on_c, 0, 78, 66
2, 32640, Note_on_c, 0, 78, 0
2, 32640, Note_on_c, 0, 90, 0
2, 32640, Note_on_c, 0, 66, 66
2, 32640, Note_on_c, 0, 78, 66
2, 32736, Note_on_c, 0, 78, 0
2, 32736, Note_on_c, 0, 66, 0
2, 33648, Note_on_c, 0, 60, 66
2, 33696, Note_on_c, 0, 60, 0
2, 33696, Note_on_c, 0, 61, 66
2, 33744, Note_on_c, 0, 61, 0
2, 33744, Note_on_c, 0, 60, 66
2, 33744, Note_on_c, 0, 63, 66
2, 33792, Note_on_c, 0, 63, 0
2, 33792, Note_on_c, 0, 60, 0
2, 33792, Note_on_c, 0, 61, 66
2, 33792, Note_on_c, 0, 64, 66
2, 33840, Note_on_c, 0, 64, 0
2, 33840, Note_on_c, 0, 61, 0
2, 33840, Note_on_c, 0, 63, 66
2, 33840, Note_on_c, 0, 72, 66
2, 33888, Note_on_c, 0, 72, 0
2, 33888, Note_on_c, 0, 63, 0
2, 33888, Note_on_c, 0, 64, 66
2, 33888, Note_on_c, 0, 73, 66
2, 33936, Note_on_c, 0, 73, 0
2, 33936, Note_on_c, 0, 64, 0
2, 33936, Note_on_c, 0, 75, 66
2, 33936, Note_on_c, 0, 68, 66
2, 33984, Note_on_c, 0, 68, 0
2, 33984, Note_on_c, 0, 75, 0
2, 33984, Note_on_c, 0, 73, 66
2, 33984, Note_on_c, 0, 76, 66
2, 34032, Note_on_c, 0, 76, 0
2, 34032, Note_on_c, 0, 73, 0
2, 34032, Note_on_c, 0, 64, 66
2, 34032, Note_on_c, 0, 73, 66
2, 34080, Note_on_c, 0, 73, 0
2, 34080, Note_on_c, 0, 64, 0
2, 34080, Note_on_c, 0, 80, 66
2, 34080, Note_on_c, 0, 73, 66
2, 34128, Note_on_c, 0, 73, 0
2, 34128, Note_on_c, 0, 80, 0
2, 34128, Note_on_c, 0, 73, 66
2, 34128, Note_on_c, 0, 68, 66
2, 34176, Note_on_c, 0, 68, 0
2, 34176, Note_on_c, 0, 73, 0
2, 34176, Note_on_c, 0, 76, 66
2, 34176, Note_on_c, 0, 85, 66
2, 34272, Note_on_c, 0, 85, 0
2, 34272, Note_on_c, 0, 76, 0
2, 35424, Note_on_c, 0, 77, 66
2, 35424, Note_on_c, 0, 71, 66
2, 35520, Note_on_c, 0, 71, 0
2, 35520, Note_on_c, 0, 77, 0
2, 35520, Note_on_c, 0, 71, 66
2, 35520, Note_on_c, 0, 78, 66
2, 35616, Note_on_c, 0, 78, 0
2, 35616, Note_on_c, 0, 71, 0
2, 35616, Note_on_c, 0, 80, 66
2, 35616, Note_on_c, 0, 71, 66
2, 35712, Note_on_c, 0, 71, 0
2, 35712, Note_on_c, 0, 80, 0
2, 35712, Note_on_c, 0, 81, 66
2, 35712, Note_on_c, 0, 69, 66
2, 35752, Note_on_c, 0, 81, 0
2, 35760, Note_on_c, 0, 69, 0
2, 35760, Note_on_c, 0, 69, 66
2, 35760, Note_on_c, 0, 78, 66
2, 35800, Note_on_c, 0, 78, 0
2, 35808, Note_on_c, 0, 69, 0
2, 35808, Note_on_c, 0, 69, 66
2, 35808, Note_on_c, 0, 66, 66
2, 35808, Note_on_c, 0, 73, 66
2, 35856, Note_on_c, 0, 73, 0
2, 35856, Note_on_c, 0, 66, 0
2, 35856, Note_on_c, 0, 69, 0
2, 35856, Note_on_c, 0, 69, 66
2, 35856, Note_on_c, 0, 66, 66
2, 35904, Note_on_c, 0, 66, 0
2, 35904, Note_on_c, 0, 69, 0
2, 35952, Note_on_c, 0, 65, 66
2, 35992, Note_on_c, 0, 65, 0
2, 36000, Note_on_c, 0, 66, 66
2, 36040, Note_on_c, 0, 66, 0
2, 36048, Note_on_c, 0, 65, 66
2, 36048, Note_on_c, 0, 68, 66
2, 36088, Note_on_c, 0, 68, 0
2, 36088, Note_on_c, 0, 65, 0
2, 36096, Note_on_c, 0, 69, 66
2, 36096, Note_on_c, 0, 66, 66
2, 36136, Note_on_c, 0, 66, 0
2, 36136, Note_on_c, 0, 69, 0
2, 36144, Note_on_c, 0, 68, 66
2, 36144, Note_on_c, 0, 77, 66
2, 36184, Note_on_c, 0, 77, 0
2, 36184, Note_on_c, 0, 68, 0
2, 36192, Note_on_c, 0, 69, 66
2, 36192, Note_on_c, 0, 78, 66
2, 36232, Note_on_c, 0, 78, 0
2, 36232, Note_on_c, 0, 69, 0
2, 36240, Note_on_c, 0, 80, 66
2, 36240, Note_on_c, 0, 73, 66
2, 36280, Note_on_c, 0, 73, 0
2, 36280, Note_on_c, 0, 80, 0
2, 36288, Note_on_c, 0, 78, 66
2, 36288, Note_on_c, 0, 81, 66
2, 36328, Note_on_c, 0, 81, 0
2, 36328, Note_on_c, 0, 78, 0
2, 36336, Note_on_c, 0, 78, 66
2, 36336, Note_on_c, 0, 69, 66
2, 36376, Note_on_c, 0, 78, 0
2, 36384, Note_on_c, 0, 69, 0
2, 36384, Note_on_c, 0, 78, 66
2, 36384, Note_on_c, 0, 85, 66
2, 36424, Note_on_c, 0, 85, 0
2, 36424, Note_on_c, 0, 78, 0
2, 36432, Note_on_c, 0, 73, 66
2, 36432, Note_on_c, 0, 78, 66
2, 36472, Note_on_c, 0, 78, 0
2, 36480, Note_on_c, 0, 73, 0
2, 36480, Note_on_c, 0, 81, 66
2, 36480, Note_on_c, 0, 90, 66
2, 36576, Note_on_c, 0, 90, 0
2, 36576, Note_on_c, 0, 81, 0
2, 37728, Note_on_c, 0, 82, 66
2, 37824, Note_on_c, 0, 82, 0
2, 37824, Note_on_c, 0, 83, 66
2, 37920, Note_on_c, 0, 83, 0
2, 37920, Note_on_c, 0, 85, 66
2, 38016, Note_on_c, 0, 85, 0
2, 38016, Note_on_c, 0, 86, 66
2, 38056, Note_on_c, 0, 86, 0
2, 38064, Note_on_c, 0, 83, 66
2, 38064, Note_on_c, 0, 78, 66
2, 38104, Note_on_c, 0, 83, 0
2, 38112, Note_on_c, 0, 78, 0
2, 38112, Note_on_c, 0, 74, 66
2, 38112, Note_on_c, 0, 78, 66
2, 38152, Note_on_c, 0, 78, 0
2, 38160, Note_on_c, 0, 74, 0
2, 38160, Note_on_c, 0, 74, 66
2, 38160, Note_on_c, 0, 71, 66
2, 38200, Note_on_c, 0, 74, 0
2, 38208, Note_on_c, 0, 71, 0
2, 38256, Note_on_c, 0, 72, 66
2, 38256, Note_on_c, 0, 66, 66
2, 38296, Note_on_c, 0, 66, 0
2, 38296, Note_on_c, 0, 72, 0
2, 38304, Note_on_c, 0, 72, 66
2, 38304, Note_on_c, 0, 78, 66
2, 38344, Note_on_c, 0, 78, 0
2, 38344, Note_on_c, 0, 72, 0
2, 38352, Note_on_c, 0, 84, 66
2, 38352, Note_on_c, 0, 78, 66
2, 38392, Note_on_c, 0, 78, 0
2, 38392, Note_on_c, 0, 84, 0
2, 38400, Note_on_c, 0, 83, 66
2, 38400, Note_on_c, 0, 79, 66
2, 38440, Note_on_c, 0, 83, 0
2, 38448, Note_on_c, 0, 79, 0
2, 38448, Note_on_c, 0, 71, 66
2, 38448, Note_on_c, 0, 79, 66
2, 38488, Note_on_c, 0, 79, 0
2, 38496, Note_on_c, 0, 71, 0
2, 38496, Note_on_c, 0, 71, 66
2, 38496, Note_on_c, 0, 79, 66
2, 38536, Note_on_c, 0, 79, 0
2, 38536, Note_on_c, 0, 71, 0
2, 38544, Note_on_c, 0, 83, 66
2, 38544, Note_on_c, 0, 83, 66
2, 38584, Note_on_c, 0, 83, 0
2, 38584, Note_on_c, 0, 83, 0
2, 38592, Note_on_c, 0, 80, 66
2, 38592, Note_on_c, 0, 86, 66
2, 38632, Note_on_c, 0, 86, 0
2, 38632, Note_on_c, 0, 80, 0
2, 38640, Note_on_c, 0, 68, 66
2, 38640, Note_on_c, 0, 74, 66
2, 38680, Note_on_c, 0, 74, 0
2, 38680, Note_on_c, 0, 68, 0
2, 38688, Note_on_c, 0, 74, 66
2, 38688, Note_on_c, 0, 80, 66
2, 38728, Note_on_c, 0, 80, 0
2, 38728, Note_on_c, 0, 74, 0
2, 38736, Note_on_c, 0, 86, 66
2, 38736, Note_on_c, 0, 80, 66
2, 38776, Note_on_c, 0, 80, 0
2, 38776, Note_on_c, 0, 86, 0
2, 38784, Note_on_c, 0, 85, 66
2, 38784, Note_on_c, 0, 81, 66
2, 38824, Note_on_c, 0, 81, 0
2, 38824, Note_on_c, 0, 85, 0
2, 38832, Note_on_c, 0, 81, 66
2, 38832, Note_on_c, 0, 73, 66
2, 38872, Note_on_c, 0, 73, 0
2, 38872, Note_on_c, 0, 81, 0
2, 38880, Note_on_c, 0, 81, 66
2, 38880, Note_on_c, 0, 73, 66
2, 38920, Note_on_c, 0, 73, 0
2, 38920, Note_on_c, 0, 81, 0
2, 38928, Note_on_c, 0, 85, 66
2, 38928, Note_on_c, 0, 81, 66
2, 38968, Note_on_c, 0, 81, 0
2, 38968, Note_on_c, 0, 85, 0
2, 38976, Note_on_c, 0, 88, 66
2, 38976, Note_on_c, 0, 82, 66
2, 39016, Note_on_c, 0, 82, 0
2, 39016, Note_on_c, 0, 88, 0
2, 39024, Note_on_c, 0, 76, 66
2, 39024, Note_on_c, 0, 70, 66
2, 39064, Note_on_c, 0, 70, 0
2, 39064, Note_on_c, 0, 76, 0
2, 39072, Note_on_c, 0, 82, 66
2, 39072, Note_on_c, 0, 76, 66
2, 39112, Note_on_c, 0, 76, 0
2, 39112, Note_on_c, 0, 82, 0
2, 39120, Note_on_c, 0, 82, 66
2, 39120, Note_on_c, 0, 88, 66
2, 39160, Note_on_c, 0, 88, 0
2, 39160, Note_on_c, 0, 82, 0
2, 39168, Note_on_c, 0, 86, 66
2, 39168, Note_on_c, 0, 83, 66
2, 39208, Note_on_c, 0, 83, 0
2, 39208, Note_on_c, 0, 86, 0
2, 39216, Note_on_c, 0, 74, 66
2, 39216, Note_on_c, 0, 83, 66
2, 39256, Note_on_c, 0, 83, 0
2, 39256, Note_on_c, 0, 74, 0
2, 39264, Note_on_c, 0, 83, 66
2, 39264, Note_on_c, 0, 74, 66
2, 39304, Note_on_c, 0, 83, 0
2, 39312, Note_on_c, 0, 74, 0
2, 39312, Note_on_c, 0, 86, 66
2, 39312, Note_on_c, 0, 83, 66
2, 39352, Note_on_c, 0, 86, 0
2, 39360, Note_on_c, 0, 83, 0
2, 39360, Note_on_c, 0, 84, 66
2, 39360, Note_on_c, 0, 78, 66
2, 39442, Note_on_c, 0, 78, 0
2, 39442, Note_on_c, 0, 84, 0
2, 39456, Note_on_c, 0, 60, 66
2, 39552, Note_on_c, 0, 60, 0
2, 39552, Note_on_c, 0, 63, 66
2, 39634, Note_on_c, 0, 63, 0
2, 39648, Note_on_c, 0, 66, 66
2, 39730, Note_on_c, 0, 66, 0
2, 39744, Note_on_c, 0, 69, 66
2, 39744, Note_on_c, 0, 63, 66
2, 39744, Note_on_c, 0, 66, 66
2, 39826, Note_on_c, 0, 63, 0
2, 39826, Note_on_c, 0, 69, 0
2, 39840, Note_on_c, 0, 66, 0
2, 39840, Note_on_c, 0, 72, 66
2, 39840, Note_on_c, 0, 66, 66
2, 39840, Note_on_c, 0, 63, 66
2, 39922, Note_on_c, 0, 66, 0
2, 39922, Note_on_c, 0, 72, 0
2, 39936, Note_on_c, 0, 63, 0
2, 39936, Note_on_c, 0, 63, 66
2, 39936, Note_on_c, 0, 75, 66
2, 39936, Note_on_c, 0, 72, 66
2, 40018, Note_on_c, 0, 72, 0
2, 40018, Note_on_c, 0, 75, 0
2, 40032, Note_on_c, 0, 63, 0
2, 40032, Note_on_c, 0, 69, 66
2, 40032, Note_on_c, 0, 72, 66
2, 40032, Note_on_c, 0, 78, 66
2, 40114, Note_on_c, 0, 78, 0
2, 40114, Note_on_c, 0, 72, 0
2, 40128, Note_on_c, 0, 69, 0
2, 40128, Note_on_c, 0, 66, 66
2, 40128, Note_on_c, 0, 75, 66
2, 40128, Note_on_c, 0, 81, 66
2, 40128, Note_on_c, 0, 69, 66
2, 40210, Note_on_c, 0, 81, 0
2, 40224, Note_on_c, 0, 66, 0
2, 40224, Note_on_c, 0, 75, 0
2, 40224, Note_on_c, 0, 69, 0
2, 40224, Note_on_c, 0, 87, 66
2, 40224, Note_on_c, 0, 69, 66
2, 40224, Note_on_c, 0, 66, 66
2, 40224, Note_on_c, 0, 75, 66
2, 40306, Note_on_c, 0, 87, 0
2, 40320, Note_on_c, 0, 69, 0
2, 40320, Note_on_c, 0, 66, 0
2, 40320, Note_on_c, 0, 75, 0
2, 40320, Note_on_c, 0, 63, 66
2, 40320, Note_on_c, 0, 70, 66
2, 40320, Note_on_c, 0, 78, 66
2, 40320, Note_on_c, 0, 90, 66
2, 40486, Note_on_c, 0, 90, 0
2, 40486, Note_on_c, 0, 78, 0
2, 40512, Note_on_c, 0, 70, 0
2, 40512, Note_on_c, 0, 63, 0
2, 40512, Note_on_c, 0, 72, 66
2, 40512, Note_on_c, 0, 90, 66
2, 40512, Note_on_c, 0, 63, 66
2, 40512, Note_on_c, 0, 78, 66
2, 40678, Note_on_c, 0, 78, 0
2, 40678, Note_on_c, 0, 90, 0
2, 40704, Note_on_c, 0, 63, 0
2, 40704, Note_on_c, 0, 72, 0
2, 47280, Note_on_c, 0, 70, 66
2, 47280, Note_on_c, 0, 82, 66
2, 47328, Note_on_c, 0, 82, 0
2, 47328, Note_on_c, 0, 70, 0
2, 47328, Note_on_c, 0, 72, 66
2, 47328, Note_on_c, 0, 84, 66
2, 47376, Note_on_c, 0, 84, 0
2, 47376, Note_on_c, 0, 72, 0
2, 47376, Note_on_c, 0, 74, 66
2, 47376, Note_on_c, 0, 86, 66
2, 47376, Note_on_c, 0, 86, 66
2, 47424, Note_on_c, 0, 86, 0
2, 47424, Note_on_c, 0, 86, 0
2, 47424, Note_on_c, 0, 74, 0
2, 47424, Note_on_c, 0, 87, 66
2, 47424, Note_on_c, 0, 75, 66
2, 47424, Note_on_c, 0, 87, 66
2, 47472, Note_on_c, 0, 87, 0
2, 47472, Note_on_c, 0, 75, 0
2, 47472, Note_on_c, 0, 87, 0
2, 47472, Note_on_c, 0, 77, 66
2, 47472, Note_on_c, 0, 77, 66
2, 47472, Note_on_c, 0, 89, 66
2, 47520, Note_on_c, 0, 89, 0
2, 47520, Note_on_c, 0, 77, 0
2, 47520, Note_on_c, 0, 77, 0
2, 47520, Note_on_c, 0, 91, 66
2, 47520, Note_on_c, 0, 79, 66
2, 47568, Note_on_c, 0, 79, 0
2, 47568, Note_on_c, 0, 91, 0
2, 47568, Note_on_c, 0, 92, 66
2, 47568, Note_on_c, 0, 80, 66
2, 47616, Note_on_c, 0, 80, 0
2, 47616, Note_on_c, 0, 92, 0
2, 47616, Note_on_c, 0, 94, 66
2, 47616, Note_on_c, 0, 82, 66
2, 48118, Note_on_c, 0, 94, 0
2, 48256, Note_on_c, 0, 82, 0
2, 48256, Note_on_c, 0, 81, 66
2, 48256, Note_on_c, 0, 93, 66
2, 48288, Note_on_c, 0, 82, 66
2, 48310, Note_on_c, 0, 93, 0
2, 48310, Note_on_c, 0, 81, 0
2, 48320, Note_on_c, 0, 94, 66
2, 48352, Note_on_c, 0, 82, 0
2, 48384, Note_on_c, 0, 94, 0
2, 48384, Note_on_c, 0, 94, 66
2, 48384, Note_on_c, 0, 82, 66
2, 48576, Note_on_c, 0, 82, 0
2, 48576, Note_on_c, 0, 94, 0
2, 48576, Note_on_c, 0, 75, 66
2, 48576, Note_on_c, 0, 87, 66
2, 49024, Note_on_c, 0, 87, 0
2, 49024, Note_on_c, 0, 75, 0
2, 49024, Note_on_c, 0, 74, 66
2, 49024, Note_on_c, 0, 86, 66
2, 49088, Note_on_c, 0, 86, 0
2, 49088, Note_on_c, 0, 74, 0
2, 49088, Note_on_c, 0, 73, 66
2, 49088, Note_on_c, 0, 85, 66
2, 49152, Note_on_c, 0, 85, 0
2, 49152, Note_on_c, 0, 73, 0
2, 49152, Note_on_c, 0, 72, 66
2, 49152, Note_on_c, 0, 84, 66
2, 49654, Note_on_c, 0, 72, 0
2, 49728, Note_on_c, 0, 84, 0
2, 49728, Note_on_c, 0, 73, 66
2, 49728, Note_on_c, 0, 85, 66
2, 49792, Note_on_c, 0, 85, 0
2, 49792, Note_on_c, 0, 73, 0
2, 49792, Note_on_c, 0, 84, 66
2, 49792, Note_on_c, 0, 72, 66
2, 49856, Note_on_c, 0, 72, 0
2, 49856, Note_on_c, 0, 84, 0
2, 49856, Note_on_c, 0, 71, 66
2, 49856, Note_on_c, 0, 83, 66
2, 49920, Note_on_c, 0, 83, 0
2, 49920, Note_on_c, 0, 71, 0
2, 49920, Note_on_c, 0, 70, 66
2, 49920, Note_on_c, 0, 82, 66
2, 50422, Note_on_c, 0, 82, 0
2, 50422, Note_on_c, 0, 70, 0
2, 50496, Note_on_c, 0, 82, 66
2, 50496, Note_on_c, 0, 79, 66
2, 50560, Note_on_c, 0, 79, 0
2, 50560, Note_on_c, 0, 82, 0
2, 50560, Note_on_c, 0, 75, 66
2, 50560, Note_on_c, 0, 79, 66
2, 50624, Note_on_c, 0, 79, 0
2, 50624, Note_on_c, 0, 75, 0
2, 50624, Note_on_c, 0, 75, 66
2, 50624, Note_on_c, 0, 70, 66
2, 50688, Note_on_c, 0, 70, 0
2, 50688, Note_on_c, 0, 75, 0
2, 50688, Note_on_c, 0, 67, 66
2, 50688, Note_on_c, 0, 70, 66
2, 50784, Note_on_c, 0, 70, 0
2, 50784, Note_on_c, 0, 67, 0
2, 51264, Note_on_c, 0, 75, 66
2, 51264, Note_on_c, 0, 79, 66
2, 51328, Note_on_c, 0, 79, 0
2, 51328, Note_on_c, 0, 75, 0
2, 51328, Note_on_c, 0, 75, 66
2, 51328, Note_on_c, 0, 70, 66
2, 51392, Note_on_c, 0, 70, 0
2, 51392, Note_on_c, 0, 75, 0
2, 51392, Note_on_c, 0, 70, 66
2, 51392, Note_on_c, 0, 67, 66
2, 51456, Note_on_c, 0, 67, 0
2, 51456, Note_on_c, 0, 70, 0
2, 51456, Note_on_c, 0, 63, 66
2, 51456, Note_on_c, 0, 67, 66
2, 51552, Note_on_c, 0, 67, 0
2, 51552, Note_on_c, 0, 63, 0
2, 52032, Note_on_c, 0, 75, 66
2, 52032, Note_on_c, 0, 79, 66
2, 52032, Note_on_c, 0, 75, 66
2, 52086, Note_on_c, 0, 75, 0
2, 52096, Note_on_c, 0, 75, 0
2, 52096, Note_on_c, 0, 79, 0
2, 52096, Note_on_c, 0, 70, 66
2, 52096, Note_on_c, 0, 75, 66
2, 52160, Note_on_c, 0, 75, 0
2, 52160, Note_on_c, 0, 70, 0
2, 52160, Note_on_c, 0, 70, 66
2, 52160, Note_on_c, 0, 67, 66
2, 52224, Note_on_c, 0, 67, 0
2, 52224, Note_on_c, 0, 70, 0
2, 52224, Note_on_c, 0, 66, 66
2, 52224, Note_on_c, 0, 63, 66
2, 52320, Note_on_c, 0, 63, 0
2, 52320, Note_on_c, 0, 66, 0
2, 52560, Note_on_c, 0, 59, 66
2, 52600, Note_on_c, 0, 59, 0
2, 52608, Note_on_c, 0, 71, 66
2, 52774, Note_on_c, 0, 71, 0
2, 52800, Note_on_c, 0, 59, 56
2, 52992, Note_on_c, 0, 59, 0
2, 53328, Note_on_c, 0, 59, 66
2, 53368, Note_on_c, 0, 59, 0
2, 53376, Note_on_c, 0, 71, 66
2, 53542, Note_on_c, 0, 71, 0
2, 53568, Note_on_c, 0, 59, 56
2, 53734, Note_on_c, 0, 59, 0
2, 54096, Note_on_c, 0, 59, 66
2, 54136, Note_on_c, 0, 59, 0
2, 54144, Note_on_c, 0, 71, 66
2, 54478, Note_on_c, 0, 71, 0
2, 54864, Note_on_c, 0, 59, 66
2, 54904, Note_on_c, 0, 59, 0
2, 54912, Note_on_c, 0, 71, 66
2, 55246, Note_on_c, 0, 71, 0
2, 55296, Note_on_c, 0, 66, 66
2, 55296, Note_on_c, 0, 57, 66
2, 55440, Note_on_c, 0, 59, 66
2, 55480, Note_on_c, 0, 59, 0
2, 55488, Note_on_c, 0, 71, 66
2, 55680, Note_on_c, 0, 57, 0
2, 55680, Note_on_c, 0, 66, 0
2, 55680, Note_on_c, 0, 66, 66
2, 55680, Note_on_c, 0, 57, 66
2, 55776, Note_on_c, 0, 71, 0
2, 55824, Note_on_c, 0, 59, 66
2, 55864, Note_on_c, 0, 59, 0
2, 55872, Note_on_c, 0, 71, 66
2, 56064, Note_on_c, 0, 57, 0
2, 56064, Note_on_c, 0, 66, 0
2, 56064, Note_on_c, 0, 66, 66
2, 56064, Note_on_c, 0, 57, 66
2, 56160, Note_on_c, 0, 71, 0
2, 56208, Note_on_c, 0, 59, 66
2, 56248, Note_on_c, 0, 59, 0
2, 56256, Note_on_c, 0, 71, 66
2, 56640, Note_on_c, 0, 57, 0
2, 56640, Note_on_c, 0, 66, 0
2, 56717, Note_on_c, 0, 71, 0
2, 56784, Note_on_c, 0, 59, 66
2, 56824, Note_on_c, 0, 59, 0
2, 56832, Note_on_c, 0, 59, 66
2, 57586, Note_on_c, 0, 59, 0
2, 58944, Note_on_c, 0, 59, 66
2, 59004, Note_on_c, 0, 59, 0
2, 59136, Note_on_c, 0, 71, 66
2, 59232, Note_on_c, 0, 68, 66
2, 59292, Note_on_c, 0, 68, 0
2, 59328, Note_on_c, 0, 65, 66
2, 59376, Note_on_c, 0, 70, 66
2, 59388, Note_on_c, 0, 71, 0
2, 59416, Note_on_c, 0, 70, 0
2, 59424, Note_on_c, 0, 65, 0
2, 59424, Note_on_c, 0, 62, 66
2, 59424, Note_on_c, 0, 68, 66
2, 59464, Note_on_c, 0, 68, 0
2, 59472, Note_on_c, 0, 70, 66
2, 59484, Note_on_c, 0, 62, 0
2, 59512, Note_on_c, 0, 70, 0
2, 59520, Note_on_c, 0, 68, 66
2, 59560, Note_on_c, 0, 68, 0
2, 59568, Note_on_c, 0, 66, 66
2, 59608, Note_on_c, 0, 66, 0
2, 59616, Note_on_c, 0, 65, 66
2, 59656, Note_on_c, 0, 65, 0
2, 59664, Note_on_c, 0, 63, 66
2, 59704, Note_on_c, 0, 63, 0
2, 59712, Note_on_c, 0, 62, 66
2, 59772, Note_on_c, 0, 62, 0
2, 59808, Note_on_c, 0, 59, 66
2, 59808, Note_on_c, 0, 65, 66
2, 59868, Note_on_c, 0, 65, 0
2, 59868, Note_on_c, 0, 59, 0
2, 59904, Note_on_c, 0, 59, 66
2, 59964, Note_on_c, 0, 59, 0
2, 60000, Note_on_c, 0, 56, 66
2, 60000, Note_on_c, 0, 63, 66
2, 60060, Note_on_c, 0, 63, 0
2, 60060, Note_on_c, 0, 56, 0
2, 60096, Note_on_c, 0, 56, 66
2, 60156, Note_on_c, 0, 56, 0
2, 60192, Note_on_c, 0, 59, 66
2, 60252, Note_on_c, 0, 59, 0
2, 60768, Note_on_c, 0, 58, 66
2, 60850, Note_on_c, 0, 58, 0
2, 60864, Note_on_c, 0, 58, 66
2, 60960, Note_on_c, 0, 58, 0
2, 61152, Note_on_c, 0, 58, 66
2, 61234, Note_on_c, 0, 58, 0
2, 61248, Note_on_c, 0, 58, 66
2, 61330, Note_on_c, 0, 58, 0
2, 61536, Note_on_c, 0, 58, 66
2, 61536, Note_on_c, 0, 63, 66
2, 61618, Note_on_c, 0, 63, 0
2, 61618, Note_on_c, 0, 58, 0
2, 61632, Note_on_c, 0, 63, 66
2, 61632, Note_on_c, 0, 57, 66
2, 61714, Note_on_c, 0, 57, 0
2, 61714, Note_on_c, 0, 63, 0
2, 61920, Note_on_c, 0, 63, 66
2, 61920, Note_on_c, 0, 66, 66
2, 61920, Note_on_c, 0, 57, 66
2, 62002, Note_on_c, 0, 66, 0
2, 62002, Note_on_c, 0, 63, 0
2, 62016, Note_on_c, 0, 57, 0
2, 62016, Note_on_c, 0, 66, 66
2, 62016, Note_on_c, 0, 58, 66
2, 62016, Note_on_c, 0, 63, 66
2, 62098, Note_on_c, 0, 63, 0
2, 62098, Note_on_c, 0, 66, 0
2, 62112, Note_on_c, 0, 58, 0
2, 62592, Note_on_c, 0, 59, 66
2, 62592, Note_on_c, 0, 63, 66
2, 62717, Note_on_c, 0, 63, 0
2, 62717, Note_on_c, 0, 59, 0
2, 62736, Note_on_c, 0, 65, 66
2, 62776, Note_on_c, 0, 65, 0
2, 62784, Note_on_c, 0, 63, 66
2, 62824, Note_on_c, 0, 63, 0
2, 62832, Note_on_c, 0, 58, 66
2, 62872, Note_on_c, 0, 58, 0
2, 62880, Note_on_c, 0, 59, 66
2, 62920, Note_on_c, 0, 59, 0
2, 62928, Note_on_c, 0, 61, 66
2, 62968, Note_on_c, 0, 61, 0
2, 62976, Note_on_c, 0, 63, 66
2, 63016, Note_on_c, 0, 63, 0
2, 63024, Note_on_c, 0, 61, 66
2, 63064, Note_on_c, 0, 61, 0
2, 63072, Note_on_c, 0, 63, 66
2, 63112, Note_on_c, 0, 63, 0
2, 63120, Note_on_c, 0, 65, 66
2, 63160, Note_on_c, 0, 65, 0
2, 63168, Note_on_c, 0, 66, 66
2, 63208, Note_on_c, 0, 66, 0
2, 63216, Note_on_c, 0, 65, 66
2, 63256, Note_on_c, 0, 65, 0
2, 63264, Note_on_c, 0, 66, 66
2, 63304, Note_on_c, 0, 66, 0
2, 63312, Note_on_c, 0, 68, 66
2, 63352, Note_on_c, 0, 68, 0
2, 63360, Note_on_c, 0, 65, 66
2, 63360, Note_on_c, 0, 70, 66
2, 63504, Note_on_c, 0, 70, 0
2, 63504, Note_on_c, 0, 68, 66
2, 63544, Note_on_c, 0, 68, 0
2, 63552, Note_on_c, 0, 65, 0
2, 63552, Note_on_c, 0, 66, 66
2, 63552, Note_on_c, 0, 63, 66
2, 63592, Note_on_c, 0, 63, 0
2, 63600, Note_on_c, 0, 63, 66
2, 63640, Note_on_c, 0, 63, 0
2, 63648, Note_on_c, 0, 66, 0
2, 63648, Note_on_c, 0, 65, 66
2, 63688, Note_on_c, 0, 65, 0
2, 63696, Note_on_c, 0, 66, 66
2, 63736, Note_on_c, 0, 66, 0
2, 63744, Note_on_c, 0, 68, 66
2, 63784, Note_on_c, 0, 68, 0
2, 63792, Note_on_c, 0, 66, 66
2, 63832, Note_on_c, 0, 66, 0
2, 63840, Note_on_c, 0, 68, 66
2, 63880, Note_on_c, 0, 68, 0
2, 63888, Note_on_c, 0, 70, 66
2, 63928, Note_on_c, 0, 70, 0
2, 63936, Note_on_c, 0, 72, 66
2, 63976, Note_on_c, 0, 72, 0
2, 63984, Note_on_c, 0, 70, 66
2, 64024, Note_on_c, 0, 70, 0
2, 64032, Note_on_c, 0, 72, 66
2, 64072, Note_on_c, 0, 72, 0
2, 64080, Note_on_c, 0, 73, 66
2, 64120, Note_on_c, 0, 73, 0
2, 64128, Note_on_c, 0, 75, 66
2, 64128, Note_on_c, 0, 69, 66
2, 64224, Note_on_c, 0, 69, 0
2, 64224, Note_on_c, 0, 70, 66
2, 64320, Note_on_c, 0, 70, 0
2, 64320, Note_on_c, 0, 71, 66
2, 64416, Note_on_c, 0, 71, 0
2, 64416, Note_on_c, 0, 75, 0
2, 64416, Note_on_c, 0, 71, 66
2, 64416, Note_on_c, 0, 78, 66
2, 64476, Note_on_c, 0, 78, 0
2, 64476, Note_on_c, 0, 71, 0
2, 64512, Note_on_c, 0, 74, 66
2, 64512, Note_on_c, 0, 68, 66
2, 64572, Note_on_c, 0, 68, 0
2, 64572, Note_on_c, 0, 74, 0
2, 64608, Note_on_c, 0, 70, 66
2, 64608, Note_on_c, 0, 75, 66
2, 64668, Note_on_c, 0, 75, 0
2, 64668, Note_on_c, 0, 70, 0
2, 64704, Note_on_c, 0, 70, 66
2, 64704, Note_on_c, 0, 65, 66
2, 64764, Note_on_c, 0, 65, 0
2, 64764, Note_on_c, 0, 70, 0
2, 64800, Note_on_c, 0, 71, 66
2, 64800, Note_on_c, 0, 66, 66
2, 64860, Note_on_c, 0, 66, 0
2, 64860, Note_on_c, 0, 71, 0
2, 64896, Note_on_c, 0, 65, 66
2, 64896, Note_on_c, 0, 59, 66
2, 64956, Note_on_c, 0, 59, 0
2, 64956, Note_on_c, 0, 65, 0
2, 64992, Note_on_c, 0, 66, 66
2, 64992, Note_on_c, 0, 60, 66
2, 65052, Note_on_c, 0, 60, 0
2, 65052, Note_on_c, 0, 66, 0
2, 65088, Note_on_c, 0, 62, 66
2, 65088, Note_on_c, 0, 56, 66
2, 65148, Note_on_c, 0, 56, 0
2, 65148, Note_on_c, 0, 62, 0
2, 65184, Note_on_c, 0, 59, 66
2, 65244, Note_on_c, 0, 59, 0
2, 65280, Note_on_c, 0, 71, 66
2, 65376, Note_on_c, 0, 68, 66
2, 65472, Note_on_c, 0, 68, 0
2, 65472, Note_on_c, 0, 65, 66
2, 65488, Note_on_c, 0, 71, 0
2, 65520, Note_on_c, 0, 70, 66
2, 65560, Note_on_c, 0, 70, 0
2, 65568, Note_on_c, 0, 65, 0
2, 65568, Note_on_c, 0, 68, 66
2, 65568, Note_on_c, 0, 62, 66
2, 65608, Note_on_c, 0, 68, 0
2, 65616, Note_on_c, 0, 70, 66
2, 65656, Note_on_c, 0, 70, 0
2, 65664, Note_on_c, 0, 62, 0
2, 65664, Note_on_c, 0, 68, 66
2, 65704, Note_on_c, 0, 68, 0
2, 65712, Note_on_c, 0, 66, 66
2, 65752, Note_on_c, 0, 66, 0
2, 65760, Note_on_c, 0, 65, 66
2, 65800, Note_on_c, 0, 65, 0
2, 65808, Note_on_c, 0, 63, 66
2, 65848, Note_on_c, 0, 63, 0
2, 65856, Note_on_c, 0, 62, 66
2, 65916, Note_on_c, 0, 62, 0
2, 65952, Note_on_c, 0, 59, 66
2, 65952, Note_on_c, 0, 65, 66
2, 66012, Note_on_c, 0, 65, 0
2, 66048, Note_on_c, 0, 59, 0
2, 66048, Note_on_c, 0, 59, 66
2, 66108, Note_on_c, 0, 59, 0
2, 66144, Note_on_c, 0, 63, 66
2, 66144, Note_on_c, 0, 56, 66
2, 66204, Note_on_c, 0, 56, 0
2, 66204, Note_on_c, 0, 63, 0
2, 66240, Note_on_c, 0, 56, 66
2, 66300, Note_on_c, 0, 56, 0
2, 66336, Note_on_c, 0, 59, 66
2, 66396, Note_on_c, 0, 59, 0
2, 66672, Note_on_c, 0, 58, 66
2, 66712, Note_on_c, 0, 58, 0
2, 66720, Note_on_c, 0, 60, 66
2, 66760, Note_on_c, 0, 60, 0
2, 66768, Note_on_c, 0, 62, 66
2, 66808, Note_on_c, 0, 62, 0
2, 66816, Note_on_c, 0, 63, 66
2, 66912, Note_on_c, 0, 58, 66
2, 67008, Note_on_c, 0, 58, 0
2, 67008, Note_on_c, 0, 58, 66
2, 67024, Note_on_c, 0, 63, 0
2, 67056, Note_on_c, 0, 62, 66
2, 67096, Note_on_c, 0, 62, 0
2, 67104, Note_on_c, 0, 58, 0
2, 67104, Note_on_c, 0, 63, 66
2, 67144, Note_on_c, 0, 63, 0
2, 67152, Note_on_c, 0, 65, 66
2, 67192, Note_on_c, 0, 65, 0
2, 67200, Note_on_c, 0, 68, 66
2, 67240, Note_on_c, 0, 68, 0
2, 67248, Note_on_c, 0, 66, 66
2, 67288, Note_on_c, 0, 66, 0
2, 67296, Note_on_c, 0, 58, 66
2, 67296, Note_on_c, 0, 63, 66
2, 67392, Note_on_c, 0, 63, 0
2, 67392, Note_on_c, 0, 58, 0
2, 67392, Note_on_c, 0, 63, 66
2, 67392, Note_on_c, 0, 58, 66
2, 67440, Note_on_c, 0, 63, 66
2, 67480, Note_on_c, 0, 63, 0
2, 67488, Note_on_c, 0, 63, 0
2, 67488, Note_on_c, 0, 58, 0
2, 67488, Note_on_c, 0, 65, 66
2, 67528, Note_on_c, 0, 65, 0
2, 67536, Note_on_c, 0, 67, 66
2, 67576, Note_on_c, 0, 67, 0
2, 67584, Note_on_c, 0, 68, 66
2, 67680, Note_on_c, 0, 63, 66
2, 67680, Note_on_c, 0, 56, 66
2, 67776, Note_on_c, 0, 56, 0
2, 67776, Note_on_c, 0, 63, 0
2, 67776, Note_on_c, 0, 58, 66
2, 67776, Note_on_c, 0, 63, 66
2, 67792, Note_on_c, 0, 68, 0
2, 67824, Note_on_c, 0, 67, 66
2, 67864, Note_on_c, 0, 67, 0
2, 67872, Note_on_c, 0, 63, 0
2, 67872, Note_on_c, 0, 58, 0
2, 67872, Note_on_c, 0, 68, 66
2, 67912, Note_on_c, 0, 68, 0
2, 67920, Note_on_c, 0, 70, 66
2, 67960, Note_on_c, 0, 70, 0
2, 67968, Note_on_c, 0, 73, 66
2, 68008, Note_on_c, 0, 73, 0
2, 68016, Note_on_c, 0, 71, 66
2, 68056, Note_on_c, 0, 71, 0
2, 68064, Note_on_c, 0, 63, 66
2, 68064, Note_on_c, 0, 68, 66
2, 68146, Note_on_c, 0, 68, 0
2, 68160, Note_on_c, 0, 63, 0
2, 68160, Note_on_c, 0, 63, 66
2, 68242, Note_on_c, 0, 63, 0
2, 68256, Note_on_c, 0, 75, 66
2, 68338, Note_on_c, 0, 75, 0
2, 68352, Note_on_c, 0, 74, 66
2, 68434, Note_on_c, 0, 74, 0
2, 68448, Note_on_c, 0, 74, 66
2, 68448, Note_on_c, 0, 65, 66
2, 68448, Note_on_c, 0, 77, 66
2, 68514, Note_on_c, 0, 77, 0
2, 68514, Note_on_c, 0, 65, 0
2, 68514, Note_on_c, 0, 74, 0
2, 68544, Note_on_c, 0, 68, 66
2, 68626, Note_on_c, 0, 68, 0
2, 68640, Note_on_c, 0, 71, 66
2, 68640, Note_on_c, 0, 59, 66
2, 68640, Note_on_c, 0, 68, 66
2, 68722, Note_on_c, 0, 68, 0
2, 68722, Note_on_c, 0, 71, 0
2, 68736, Note_on_c, 0, 59, 0
2, 68736, Note_on_c, 0, 62, 66
2, 68818, Note_on_c, 0, 62, 0
2, 68832, Note_on_c, 0, 62, 66
2, 68832, Note_on_c, 0, 65, 66
2, 68832, Note_on_c, 0, 59, 66
2, 68914, Note_on_c, 0, 65, 0
2, 68914, Note_on_c, 0, 62, 0
2, 68928, Note_on_c, 0, 59, 0
2, 68928, Note_on_c, 0, 58, 66
2, 69010, Note_on_c, 0, 58, 0
2, 69024, Note_on_c, 0, 75, 66
2, 69024, Note_on_c, 0, 71, 66
2, 69106, Note_on_c, 0, 71, 0
2, 69106, Note_on_c, 0, 75, 0
2, 69120, Note_on_c, 0, 74, 66
2, 69202, Note_on_c, 0, 74, 0
2, 69216, Note_on_c, 0, 65, 66
2, 69216, Note_on_c, 0, 74, 66
2, 69216, Note_on_c, 0, 77, 66
2, 69282, Note_on_c, 0, 77, 0
2, 69282, Note_on_c, 0, 74, 0
2, 69282, Note_on_c, 0, 65, 0
2, 69312, Note_on_c, 0, 68, 66
2, 69394, Note_on_c, 0, 68, 0
2, 69408, Note_on_c, 0, 59, 66
2, 69408, Note_on_c, 0, 71, 66
2, 69408, Note_on_c, 0, 68, 66
2, 69490, Note_on_c, 0, 68, 0
2, 69490, Note_on_c, 0, 71, 0
2, 69504, Note_on_c, 0, 59, 0
2, 69504, Note_on_c, 0, 62, 66
2, 69586, Note_on_c, 0, 62, 0
2, 69600, Note_on_c, 0, 59, 66
2, 69600, Note_on_c, 0, 65, 66
2, 69600, Note_on_c, 0, 62, 66
2, 69682, Note_on_c, 0, 62, 0
2, 69682, Note_on_c, 0, 65, 0
2, 69696, Note_on_c, 0, 59, 0
2, 69696, Note_on_c, 0, 58, 66
2, 69778, Note_on_c, 0, 58, 0
2, 69792, Note_on_c, 0, 75, 66
2, 69792, Note_on_c, 0, 70, 66
2, 69874, Note_on_c, 0, 70, 0
2, 69874, Note_on_c, 0, 75, 0
2, 69888, Note_on_c, 0, 70, 66
2, 69888, Note_on_c, 0, 74, 66
2, 69970, Note_on_c, 0, 74, 0
2, 69970, Note_on_c, 0, 70, 0
2, 69984, Note_on_c, 0, 70, 66
2, 69984, Note_on_c, 0, 75, 66
2, 70066, Note_on_c, 0, 75, 0
2, 70066, Note_on_c, 0, 70, 0
2, 70176, Note_on_c, 0, 71, 66
2, 70176, Note_on_c, 0, 76, 66
2, 70258, Note_on_c, 0, 76, 0
2, 70258, Note_on_c, 0, 71, 0
2, 70272, Note_on_c, 0, 75, 66
2, 70272, Note_on_c, 0, 71, 66
2, 70354, Note_on_c, 0, 71, 0
2, 70354, Note_on_c, 0, 75, 0
2, 70368, Note_on_c, 0, 76, 66
2, 70368, Note_on_c, 0, 71, 66
2, 70450, Note_on_c, 0, 71, 0
2, 70450, Note_on_c, 0, 76, 0
2, 70560, Note_on_c, 0, 72, 66
2, 70560, Note_on_c, 0, 77, 66
2, 70642, Note_on_c, 0, 77, 0
2, 70642, Note_on_c, 0, 72, 0
2, 70656, Note_on_c, 0, 72, 66
2, 70656, Note_on_c, 0, 76, 66
2, 70738, Note_on_c, 0, 76, 0
2, 70738, Note_on_c, 0, 72, 0
2, 70752, Note_on_c, 0, 77, 66
2, 70752, Note_on_c, 0, 72, 66
2, 70834, Note_on_c, 0, 72, 0
2, 70834, Note_on_c, 0, 77, 0
2, 70944, Note_on_c, 0, 73, 66
2, 70944, Note_on_c, 0, 78, 66
2, 71026, Note_on_c, 0, 78, 0
2, 71026, Note_on_c, 0, 73, 0
2, 71040, Note_on_c, 0, 77, 66
2, 71040, Note_on_c, 0, 73, 66
2, 71122, Note_on_c, 0, 73, 0
2, 71122, Note_on_c, 0, 77, 0
2, 71136, Note_on_c, 0, 78, 66
2, 71136, Note_on_c, 0, 73, 66
2, 71218, Note_on_c, 0, 73, 0
2, 71218, Note_on_c, 0, 78, 0
2, 71328, Note_on_c, 0, 74, 66
2, 71328, Note_on_c, 0, 79, 66
2, 71410, Note_on_c, 0, 79, 0
2, 71410, Note_on_c, 0, 74, 0
2, 71424, Note_on_c, 0, 78, 66
2, 71424, Note_on_c, 0, 74, 66
2, 71506, Note_on_c, 0, 74, 0
2, 71506, Note_on_c, 0, 78, 0
2, 71520, Note_on_c, 0, 74, 66
2, 71520, Note_on_c, 0, 79, 66
2, 71602, Note_on_c, 0, 79, 0
2, 71602, Note_on_c, 0, 74, 0
2, 71712, Note_on_c, 0, 80, 66
2, 71712, Note_on_c, 0, 75, 66
2, 71904, Note_on_c, 0, 75, 0
2, 71904, Note_on_c, 0, 80, 0
2, 71904, Note_on_c, 0, 81, 66
2, 71904, Note_on_c, 0, 75, 66
2, 72070, Note_on_c, 0, 75, 0
2, 72070, Note_on_c, 0, 81, 0
2, 72096, Note_on_c, 0, 77, 66
2, 72096, Note_on_c, 0, 82, 66
2, 72178, Note_on_c, 0, 82, 0
2, 72178, Note_on_c, 0, 77, 0
2, 72192, Note_on_c, 0, 81, 66
2, 72192, Note_on_c, 0, 77, 66
2, 72274, Note_on_c, 0, 77, 0
2, 72274, Note_on_c, 0, 81, 0
2, 72288, Note_on_c, 0, 82, 66
2, 72288, Note_on_c, 0, 77, 66
2, 72370, Note_on_c, 0, 77, 0
2, 72370, Note_on_c, 0, 82, 0
2, 72480, Note_on_c, 0, 83, 66
2, 72480, Note_on_c, 0, 78, 66
2, 72646, Note_on_c, 0, 78, 0
2, 72646, Note_on_c, 0, 83, 0
2, 72672, Note_on_c, 0, 78, 66
2, 72672, Note_on_c, 0, 84, 66
2, 72838, Note_on_c, 0, 84, 0
2, 72838, Note_on_c, 0, 78, 0
2, 72864, Note_on_c, 0, 85, 66
2, 72864, Note_on_c, 0, 79, 66
2, 72946, Note_on_c, 0, 79, 0
2, 72946, Note_on_c, 0, 85, 0
2, 72960, Note_on_c, 0, 84, 66
2, 72960, Note_on_c, 0, 81, 66
2, 73042, Note_on_c, 0, 81, 0
2, 73042, Note_on_c, 0, 84, 0
2, 73056, Note_on_c, 0, 79, 66
2, 73056, Note_on_c, 0, 85, 66
2, 73138, Note_on_c, 0, 85, 0
2, 73138, Note_on_c, 0, 79, 0
2, 73248, Note_on_c, 0, 80, 66
2, 73248, Note_on_c, 0, 86, 66
2, 73330, Note_on_c, 0, 86, 0
2, 73330, Note_on_c, 0, 80, 0
2, 73344, Note_on_c, 0, 81, 66
2, 73344, Note_on_c, 0, 85, 66
2, 73426, Note_on_c, 0, 85, 0
2, 73426, Note_on_c, 0, 81, 0
2, 73440, Note_on_c, 0, 86, 66
2, 73440, Note_on_c, 0, 80, 66
2, 73522, Note_on_c, 0, 80, 0
2, 73522, Note_on_c, 0, 86, 0
2, 73632, Note_on_c, 0, 87, 66
2, 73632, Note_on_c, 0, 81, 66
2, 73714, Note_on_c, 0, 81, 0
2, 73714, Note_on_c, 0, 87, 0
2, 73728, Note_on_c, 0, 86, 66
2, 73728, Note_on_c, 0, 82, 66
2, 73810, Note_on_c, 0, 82, 0
2, 73810, Note_on_c, 0, 86, 0
2, 73824, Note_on_c, 0, 87, 66
2, 73824, Note_on_c, 0, 81, 66
2, 73906, Note_on_c, 0, 81, 0
2, 73906, Note_on_c, 0, 87, 0
2, 74016, Note_on_c, 0, 82, 66
2, 74016, Note_on_c, 0, 88, 66
2, 74098, Note_on_c, 0, 88, 0
2, 74098, Note_on_c, 0, 82, 0
2, 74112, Note_on_c, 0, 87, 66
2, 74112, Note_on_c, 0, 83, 66
2, 74194, Note_on_c, 0, 83, 0
2, 74194, Note_on_c, 0, 87, 0
2, 74208, Note_on_c, 0, 88, 66
2, 74208, Note_on_c, 0, 83, 66
2, 74374, Note_on_c, 0, 83, 0
2, 74374, Note_on_c, 0, 88, 0
2, 74400, Note_on_c, 0, 87, 66
2, 74400, Note_on_c, 0, 89, 66
2, 74482, Note_on_c, 0, 89, 0
2, 74482, Note_on_c, 0, 87, 0
2, 74496, Note_on_c, 0, 87, 66
2, 74496, Note_on_c, 0, 90, 66
2, 74556, Note_on_c, 0, 90, 0
2, 74556, Note_on_c, 0, 87, 0
2, 74592, Note_on_c, 0, 90, 66
2, 74758, Note_on_c, 0, 90, 0
2, 74784, Note_on_c, 0, 89, 66
2, 74824, Note_on_c, 0, 89, 0
2, 74832, Note_on_c, 0, 87, 66
2, 74872, Note_on_c, 0, 87, 0
2, 74880, Note_on_c, 0, 86, 66
2, 74920, Note_on_c, 0, 86, 0
2, 74928, Note_on_c, 0, 87, 66
2, 74968, Note_on_c, 0, 87, 0
2, 74976, Note_on_c, 0, 85, 66
2, 75016, Note_on_c, 0, 85, 0
2, 75024, Note_on_c, 0, 83, 66
2, 75064, Note_on_c, 0, 83, 0
2, 75072, Note_on_c, 0, 82, 66
2, 75112, Note_on_c, 0, 82, 0
2, 75120, Note_on_c, 0, 83, 66
2, 75160, Note_on_c, 0, 83, 0
2, 75168, Note_on_c, 0, 82, 66
2, 75208, Note_on_c, 0, 82, 0
2, 75216, Note_on_c, 0, 80, 66
2, 75256, Note_on_c, 0, 80, 0
2, 75264, Note_on_c, 0, 78, 66
2, 75304, Note_on_c, 0, 78, 0
2, 75312, Note_on_c, 0, 80, 66
2, 75352, Note_on_c, 0, 80, 0
2, 75360, Note_on_c, 0, 78, 66
2, 75400, Note_on_c, 0, 78, 0
2, 75408, Note_on_c, 0, 77, 66
2, 75448, Note_on_c, 0, 77, 0
2, 75456, Note_on_c, 0, 75, 66
2, 75496, Note_on_c, 0, 75, 0
2, 75504, Note_on_c, 0, 77, 66
2, 75544, Note_on_c, 0, 77, 0
2, 75552, Note_on_c, 0, 75, 66
2, 75592, Note_on_c, 0, 75, 0
2, 75600, Note_on_c, 0, 73, 66
2, 75640, Note_on_c, 0, 73, 0
2, 75648, Note_on_c, 0, 71, 66
2, 75688, Note_on_c, 0, 71, 0
2, 75696, Note_on_c, 0, 68, 66
2, 75736, Note_on_c, 0, 68, 0
2, 75744, Note_on_c, 0, 65, 66
2, 75784, Note_on_c, 0, 65, 0
2, 75792, Note_on_c, 0, 62, 66
2, 75832, Note_on_c, 0, 62, 0
2, 75840, Note_on_c, 0, 59, 66
2, 75880, Note_on_c, 0, 59, 0
2, 75888, Note_on_c, 0, 58, 66
2, 75928, Note_on_c, 0, 58, 0
2, 75936, Note_on_c, 0, 57, 66
2, 75976, Note_on_c, 0, 57, 0
2, 75984, Note_on_c, 0, 58, 66
2, 76024, Note_on_c, 0, 58, 0
2, 76032, Note_on_c, 0, 63, 66
2, 76114, Note_on_c, 0, 63, 0
2, 76848, Note_on_c, 0, 63, 66
2, 76888, Note_on_c, 0, 63, 0
2, 76896, Note_on_c, 0, 65, 66
2, 76936, Note_on_c, 0, 65, 0
2, 76944, Note_on_c, 0, 66, 66
2, 76984, Note_on_c, 0, 66, 0
2, 76992, Note_on_c, 0, 68, 66
2, 77032, Note_on_c, 0, 68, 0
2, 77040, Note_on_c, 0, 70, 66
2, 77080, Note_on_c, 0, 70, 0
2, 77088, Note_on_c, 0, 71, 66
2, 77128, Note_on_c, 0, 71, 0
2, 77136, Note_on_c, 0, 75, 66
2, 77176, Note_on_c, 0, 75, 0
2, 77184, Note_on_c, 0, 73, 66
2, 77232, Note_on_c, 0, 77, 66
2, 77272, Note_on_c, 0, 77, 0
2, 77280, Note_on_c, 0, 79, 66
2, 77320, Note_on_c, 0, 79, 0
2, 77328, Note_on_c, 0, 80, 66
2, 77368, Note_on_c, 0, 80, 0
2, 77376, Note_on_c, 0, 82, 66
2, 77416, Note_on_c, 0, 82, 0
2, 77424, Note_on_c, 0, 83, 66
2, 77464, Note_on_c, 0, 83, 0
2, 77472, Note_on_c, 0, 85, 66
2, 77512, Note_on_c, 0, 85, 0
2, 77520, Note_on_c, 0, 83, 66
2, 77560, Note_on_c, 0, 83, 0
2, 77568, Note_on_c, 0, 82, 66
2, 77608, Note_on_c, 0, 82, 0
2, 77616, Note_on_c, 0, 73, 0
2, 77616, Note_on_c, 0, 70, 66
2, 77656, Note_on_c, 0, 70, 0
2, 77664, Note_on_c, 0, 71, 66
2, 77704, Note_on_c, 0, 71, 0
2, 77712, Note_on_c, 0, 73, 66
2, 77752, Note_on_c, 0, 73, 0
2, 77760, Note_on_c, 0, 63, 66
2, 77760, Note_on_c, 0, 75, 66
2, 77800, Note_on_c, 0, 75, 0
2, 77808, Note_on_c, 0, 63, 0
2, 77808, Note_on_c, 0, 77, 66
2, 77808, Note_on_c, 0, 61, 66
2, 77848, Note_on_c, 0, 77, 0
2, 77856, Note_on_c, 0, 61, 0
2, 77856, Note_on_c, 0, 78, 66
2, 77856, Note_on_c, 0, 60, 66
2, 77896, Note_on_c, 0, 78, 0
2, 77904, Note_on_c, 0, 60, 0
2, 77904, Note_on_c, 0, 59, 66
2, 77904, Note_on_c, 0, 80, 66
2, 77952, Note_on_c, 0, 80, 0
2, 77952, Note_on_c, 0, 59, 0
2, 77952, Note_on_c, 0, 58, 66
2, 77952, Note_on_c, 0, 82, 66
2, 78048, Note_on_c, 0, 82, 0
2, 78048, Note_on_c, 0, 58, 0
2, 78384, Note_on_c, 0, 66, 66
2, 78432, Note_on_c, 0, 66, 0
2, 78432, Note_on_c, 0, 68, 66
2, 78480, Note_on_c, 0, 68, 0
2, 78480, Note_on_c, 0, 70, 66
2, 78528, Note_on_c, 0, 70, 0
2, 78528, Note_on_c, 0, 71, 66
2, 78576, Note_on_c, 0, 71, 0
2, 78576, Note_on_c, 0, 73, 66
2, 78624, Note_on_c, 0, 73, 0
2, 78624, Note_on_c, 0, 75, 66
2, 78672, Note_on_c, 0, 75, 0
2, 78672, Note_on_c, 0, 78, 66
2, 78720, Note_on_c, 0, 78, 0
2, 78720, Note_on_c, 0, 77, 66
2, 78816, Note_on_c, 0, 82, 66
2, 78864, Note_on_c, 0, 82, 0
2, 78864, Note_on_c, 0, 83, 66
2, 78912, Note_on_c, 0, 83, 0
2, 78912, Note_on_c, 0, 85, 66
2, 78960, Note_on_c, 0, 85, 0
2, 78960, Note_on_c, 0, 87, 66
2, 79008, Note_on_c, 0, 87, 0
2, 79008, Note_on_c, 0, 89, 66
2, 79056, Note_on_c, 0, 89, 0
2, 79056, Note_on_c, 0, 87, 66
2, 79104, Note_on_c, 0, 87, 0
2, 79104, Note_on_c, 0, 74, 66
2, 79104, Note_on_c, 0, 86, 66
2, 79152, Note_on_c, 0, 86, 0
2, 79152, Note_on_c, 0, 74, 0
2, 79152, Note_on_c, 0, 77, 0
2, 79152, Note_on_c, 0, 74, 66
2, 79200, Note_on_c, 0, 74, 0
2, 79200, Note_on_c, 0, 75, 66
2, 79248, Note_on_c, 0, 75, 0
2, 79248, Note_on_c, 0, 77, 66
2, 79296, Note_on_c, 0, 77, 0
2, 79296, Note_on_c, 0, 79, 66
2, 79344, Note_on_c, 0, 79, 0
2, 79344, Note_on_c, 0, 81, 66
2, 79392, Note_on_c, 0, 81, 0
2, 79392, Note_on_c, 0, 82, 66
2, 79440, Note_on_c, 0, 82, 0
2, 79440, Note_on_c, 0, 84, 66
2, 79488, Note_on_c, 0, 84, 0
2, 79488, Note_on_c, 0, 86, 66
2, 79536, Note_on_c, 0, 86, 0
2, 79920, Note_on_c, 0, 58, 66
2, 79920, Note_on_c, 0, 70, 66
2, 79968, Note_on_c, 0, 70, 0
2, 79968, Note_on_c, 0, 58, 0
2, 79968, Note_on_c, 0, 72, 66
2, 79968, Note_on_c, 0, 60, 66
2, 80016, Note_on_c, 0, 60, 0
2, 80016, Note_on_c, 0, 72, 0
2, 80016, Note_on_c, 0, 61, 66
2, 80016, Note_on_c, 0, 73, 66
2, 80064, Note_on_c, 0, 73, 0
2, 80064, Note_on_c, 0, 61, 0
2, 80064, Note_on_c, 0, 62, 66
2, 80064, Note_on_c, 0, 74, 66
2, 80112, Note_on_c, 0, 74, 0
2, 80112, Note_on_c, 0, 62, 0
2, 80112, Note_on_c, 0, 75, 66
2, 80112, Note_on_c, 0, 63, 66
2, 80160, Note_on_c, 0, 63, 0
2, 80160, Note_on_c, 0, 75, 0
2, 80160, Note_on_c, 0, 77, 66
2, 80160, Note_on_c, 0, 65, 66
2, 80208, Note_on_c, 0, 65, 0
2, 80208, Note_on_c, 0, 77, 0
2, 80208, Note_on_c, 0, 79, 66
2, 80208, Note_on_c, 0, 67, 66
2, 80256, Note_on_c, 0, 67, 0
2, 80256, Note_on_c, 0, 79, 0
2, 80256, Note_on_c, 0, 81, 66
2, 80256, Note_on_c, 0, 69, 66
2, 80338, Note_on_c, 0, 81, 0
2, 80352, Note_on_c, 0, 69, 0
2, 80688, Note_on_c, 0, 65, 66
2, 80688, Note_on_c, 0, 77, 66
2, 80736, Note_on_c, 0, 77, 0
2, 80736, Note_on_c, 0, 65, 0
2, 80736, Note_on_c, 0, 78, 66
2, 80736, Note_on_c, 0, 66, 66
2, 80784, Note_on_c, 0, 66, 0
2, 80784, Note_on_c, 0, 78, 0
2, 80784, Note_on_c, 0, 79, 66
2, 80784, Note_on_c, 0, 67, 66
2, 80832, Note_on_c, 0, 67, 0
2, 80832, Note_on_c, 0, 79, 0
2, 80832, Note_on_c, 0, 68, 66
2, 80832, Note_on_c, 0, 80, 66
2, 80880, Note_on_c, 0, 80, 0
2, 80880, Note_on_c, 0, 68, 0
2, 80880, Note_on_c, 0, 69, 66
2, 80880, Note_on_c, 0, 81, 66
2, 80928, Note_on_c, 0, 81, 0
2, 80928, Note_on_c, 0, 69, 0
2, 80928, Note_on_c, 0, 70, 66
2, 80928, Note_on_c, 0, 82, 66
2, 80976, Note_on_c, 0, 82, 0
2, 80976, Note_on_c, 0, 70, 0
2, 80976, Note_on_c, 0, 84, 66
2, 80976, Note_on_c, 0, 72, 66
2, 81024, Note_on_c, 0, 72, 0
2, 81024, Note_on_c, 0, 84, 0
2, 81024, Note_on_c, 0, 74, 66
2, 81024, Note_on_c, 0, 86, 66
2, 81072, Note_on_c, 0, 86, 0
2, 81120, Note_on_c, 0, 74, 0
2, 81456, Note_on_c, 0, 79, 66
2, 81456, Note_on_c, 0, 67, 66
2, 81504, Note_on_c, 0, 67, 0
2, 81504, Note_on_c, 0, 79, 0
2, 81504, Note_on_c, 0, 69, 66
2, 81504, Note_on_c, 0, 81, 66
2, 81552, Note_on_c, 0, 81, 0
2, 81552, Note_on_c, 0, 69, 0
2, 81552, Note_on_c, 0, 70, 66
2, 81552, Note_on_c, 0, 82, 66
2, 81600, Note_on_c, 0, 82, 0
2, 81600, Note_on_c, 0, 70, 0
2, 81600, Note_on_c, 0, 71, 66
2, 81600, Note_on_c, 0, 83, 66
2, 81648, Note_on_c, 0, 83, 0
2, 81648, Note_on_c, 0, 71, 0
2, 81648, Note_on_c, 0, 72, 66
2, 81648, Note_on_c, 0, 84, 66
2, 81696, Note_on_c, 0, 84, 0
2, 81696, Note_on_c, 0, 72, 0
2, 81696, Note_on_c, 0, 86, 66
2, 81696, Note_on_c, 0, 74, 66
2, 81744, Note_on_c, 0, 74, 0
2, 81744, Note_on_c, 0, 86, 0
2, 81744, Note_on_c, 0, 87, 66
2, 81744, Note_on_c, 0, 75, 66
2, 81792, Note_on_c, 0, 75, 0
2, 81792, Note_on_c, 0, 87, 0
2, 81792, Note_on_c, 0, 77, 66
2, 81792, Note_on_c, 0, 89, 66
2, 81888, Note_on_c, 0, 89, 0
2, 81888, Note_on_c, 0, 77, 0
2, 82224, Note_on_c, 0, 72, 66
2, 82224, Note_on_c, 0, 63, 66
2, 82272, Note_on_c, 0, 63, 0
2, 82272, Note_on_c, 0, 72, 0
2, 82272, Note_on_c, 0, 74, 66
2, 82272, Note_on_c, 0, 65, 66
2, 82320, Note_on_c, 0, 65, 0
2, 82320, Note_on_c, 0, 74, 0
2, 82320, Note_on_c, 0, 67, 66
2, 82320, Note_on_c, 0, 75, 66
2, 82368, Note_on_c, 0, 75, 0
2, 82368, Note_on_c, 0, 67, 0
2, 82368, Note_on_c, 0, 77, 66
2, 82368, Note_on_c, 0, 69, 66
2, 82416, Note_on_c, 0, 69, 0
2, 82416, Note_on_c, 0, 77, 0
2, 82416, Note_on_c, 0, 70, 66
2, 82416, Note_on_c, 0, 78, 66
2, 82464, Note_on_c, 0, 78, 0
2, 82464, Note_on_c, 0, 70, 0
2, 82464, Note_on_c, 0, 79, 66
2, 82464, Note_on_c, 0, 71, 66
2, 82512, Note_on_c, 0, 71, 0
2, 82512, Note_on_c, 0, 79, 0
2, 82512, Note_on_c, 0, 72, 66
2, 82512, Note_on_c, 0, 81, 66
2, 82560, Note_on_c, 0, 81, 0
2, 82560, Note_on_c, 0, 72, 0
2, 82560, Note_on_c, 0, 82, 66
2, 82560, Note_on_c, 0, 74, 66
2, 82642, Note_on_c, 0, 82, 0
2, 82656, Note_on_c, 0, 74, 0
2, 82992, Note_on_c, 0, 58, 66
2, 83040, Note_on_c, 0, 58, 0
2, 83040, Note_on_c, 0, 60, 66
2, 83088, Note_on_c, 0, 60, 0
2, 83088, Note_on_c, 0, 62, 66
2, 83136, Note_on_c, 0, 62, 0
2, 83136, Note_on_c, 0, 63, 66
2, 83184, Note_on_c, 0, 63, 0
2, 83184, Note_on_c, 0, 65, 66
2, 83232, Note_on_c, 0, 65, 0
2, 83232, Note_on_c, 0, 67, 66
2, 83280, Note_on_c, 0, 67, 0
2, 83280, Note_on_c, 0, 70, 66
2, 83328, Note_on_c, 0, 70, 0
2, 83328, Note_on_c, 0, 69, 66
2, 83376, Note_on_c, 0, 73, 66
2, 83418, Note_on_c, 0, 73, 0
2, 83424, Note_on_c, 0, 74, 66
2, 83472, Note_on_c, 0, 74, 0
2, 83472, Note_on_c, 0, 76, 66
2, 83520, Note_on_c, 0, 76, 0
2, 83520, Note_on_c, 0, 77, 66
2, 83568, Note_on_c, 0, 77, 0
2, 83568, Note_on_c, 0, 79, 66
2, 83616, Note_on_c, 0, 79, 0
2, 83616, Note_on_c, 0, 81, 66
2, 83664, Note_on_c, 0, 81, 0
2, 83664, Note_on_c, 0, 79, 66
2, 83712, Note_on_c, 0, 79, 0
2, 83712, Note_on_c, 0, 77, 66
2, 83760, Note_on_c, 0, 77, 0
2, 83760, Note_on_c, 0, 69, 0
2, 83760, Note_on_c, 0, 65, 66
2, 83808, Note_on_c, 0, 65, 0
2, 83808, Note_on_c, 0, 67, 66
2, 83856, Note_on_c, 0, 67, 0
2, 83856, Note_on_c, 0, 69, 66
2, 83904, Note_on_c, 0, 69, 0
2, 83904, Note_on_c, 0, 70, 66
2, 83952, Note_on_c, 0, 70, 0
2, 83952, Note_on_c, 0, 73, 66
2, 84000, Note_on_c, 0, 73, 0
2, 84000, Note_on_c, 0, 74, 66
2, 84048, Note_on_c, 0, 74, 0
2, 84048, Note_on_c, 0, 76, 66
2, 84096, Note_on_c, 0, 76, 0
2, 84096, Note_on_c, 0, 77, 66
2, 84144, Note_on_c, 0, 57, 66
2, 84178, Note_on_c, 0, 77, 0
2, 84192, Note_on_c, 0, 57, 0
2, 84192, Note_on_c, 0, 59, 66
2, 84240, Note_on_c, 0, 59, 0
2, 84240, Note_on_c, 0, 61, 66
2, 84288, Note_on_c, 0, 61, 0
2, 84288, Note_on_c, 0, 62, 66
2, 84336, Note_on_c, 0, 62, 0
2, 84336, Note_on_c, 0, 61, 66
2, 84384, Note_on_c, 0, 61, 0
2, 84384, Note_on_c, 0, 62, 66
2, 84432, Note_on_c, 0, 62, 0
2, 84432, Note_on_c, 0, 64, 66
2, 84480, Note_on_c, 0, 64, 0
2, 84480, Note_on_c, 0, 65, 66
2, 84528, Note_on_c, 0, 62, 66
2, 84576, Note_on_c, 0, 62, 0
2, 84576, Note_on_c, 0, 65, 0
2, 84576, Note_on_c, 0, 64, 66
2, 84624, Note_on_c, 0, 64, 0
2, 84624, Note_on_c, 0, 65, 66
2, 84672, Note_on_c, 0, 65, 0
2, 84672, Note_on_c, 0, 67, 66
2, 84720, Note_on_c, 0, 67, 0
2, 84720, Note_on_c, 0, 69, 66
2, 84768, Note_on_c, 0, 69, 0
2, 84768, Note_on_c, 0, 70, 66
2, 84816, Note_on_c, 0, 70, 0
2, 84816, Note_on_c, 0, 74, 66
2, 84864, Note_on_c, 0, 74, 0
2, 84864, Note_on_c, 0, 72, 66
2, 84912, Note_on_c, 0, 76, 66
2, 84960, Note_on_c, 0, 76, 0
2, 84960, Note_on_c, 0, 78, 66
2, 85008, Note_on_c, 0, 78, 0
2, 85008, Note_on_c, 0, 79, 66
2, 85056, Note_on_c, 0, 79, 0
2, 85056, Note_on_c, 0, 81, 66
2, 85104, Note_on_c, 0, 81, 0
2, 85104, Note_on_c, 0, 82, 66
2, 85152, Note_on_c, 0, 82, 0
2, 85152, Note_on_c, 0, 84, 66
2, 85200, Note_on_c, 0, 84, 0
2, 85200, Note_on_c, 0, 82, 66
2, 85248, Note_on_c, 0, 82, 0
2, 85248, Note_on_c, 0, 72, 66
2, 85248, Note_on_c, 0, 81, 66
2, 85296, Note_on_c, 0, 81, 0
2, 85296, Note_on_c, 0, 72, 0
2, 85296, Note_on_c, 0, 72, 0
2, 85296, Note_on_c, 0, 69, 66
2, 85344, Note_on_c, 0, 69, 0
2, 85344, Note_on_c, 0, 70, 66
2, 85392, Note_on_c, 0, 70, 0
2, 85392, Note_on_c, 0, 72, 66
2, 85440, Note_on_c, 0, 72, 0
2, 85440, Note_on_c, 0, 74, 66
2, 85488, Note_on_c, 0, 74, 0
2, 85488, Note_on_c, 0, 76, 66
2, 85536, Note_on_c, 0, 76, 0
2, 85536, Note_on_c, 0, 77, 66
2, 85584, Note_on_c, 0, 77, 0
2, 85584, Note_on_c, 0, 79, 66
2, 85632, Note_on_c, 0, 79, 0
2, 85632, Note_on_c, 0, 81, 66
2, 85714, Note_on_c, 0, 81, 0
2, 86064, Note_on_c, 0, 77, 66
2, 86064, Note_on_c, 0, 65, 66
2, 86112, Note_on_c, 0, 65, 0
2, 86112, Note_on_c, 0, 77, 0
2, 86112, Note_on_c, 0, 79, 66
2, 86112, Note_on_c, 0, 67, 66
2, 86160, Note_on_c, 0, 67, 0
2, 86160, Note_on_c, 0, 79, 0
2, 86160, Note_on_c, 0, 80, 66
2, 86160, Note_on_c, 0, 68, 66
2, 86208, Note_on_c, 0, 68, 0
2, 86208, Note_on_c, 0, 80, 0
2, 86208, Note_on_c, 0, 69, 66
2, 86208, Note_on_c, 0, 81, 66
2, 86256, Note_on_c, 0, 81, 0
2, 86256, Note_on_c, 0, 69, 0
2, 86256, Note_on_c, 0, 70, 66
2, 86256, Note_on_c, 0, 82, 66
2, 86304, Note_on_c, 0, 82, 0
2, 86304, Note_on_c, 0, 70, 0
2, 86304, Note_on_c, 0, 72, 66
2, 86304, Note_on_c, 0, 84, 66
2, 86352, Note_on_c, 0, 84, 0
2, 86352, Note_on_c, 0, 72, 0
2, 86352, Note_on_c, 0, 86, 66
2, 86352, Note_on_c, 0, 74, 66
2, 86400, Note_on_c, 0, 74, 0
2, 86400, Note_on_c, 0, 86, 0
2, 86400, Note_on_c, 0, 88, 66
2, 86400, Note_on_c, 0, 76, 66
2, 86482, Note_on_c, 0, 88, 0
2, 86496, Note_on_c, 0, 76, 0
2, 86832, Note_on_c, 0, 84, 66
2, 86832, Note_on_c, 0, 72, 66
2, 86880, Note_on_c, 0, 72, 0
2, 86880, Note_on_c, 0, 84, 0
2, 86880, Note_on_c, 0, 73, 66
2, 86880, Note_on_c, 0, 85, 66
2, 86928, Note_on_c, 0, 85, 0
2, 86928, Note_on_c, 0, 73, 0
2, 86928, Note_on_c, 0, 74, 66
2, 86928, Note_on_c, 0, 86, 66
2, 86976, Note_on_c, 0, 86, 0
2, 86976, Note_on_c, 0, 74, 0
2, 86976, Note_on_c, 0, 75, 66
2, 86976, Note_on_c, 0, 87, 66
2, 87024, Note_on_c, 0, 87, 0
2, 87024, Note_on_c, 0, 75, 0
2, 87024, Note_on_c, 0, 88, 66
2, 87024, Note_on_c, 0, 76, 66
2, 87072, Note_on_c, 0, 76, 0
2, 87072, Note_on_c, 0, 88, 0
2, 87072, Note_on_c, 0, 77, 66
2, 87072, Note_on_c, 0, 89, 66
2, 87120, Note_on_c, 0, 89, 0
2, 87120, Note_on_c, 0, 77, 0
2, 87120, Note_on_c, 0, 79, 66
2, 87120, Note_on_c, 0, 91, 66
2, 87168, Note_on_c, 0, 91, 0
2, 87168, Note_on_c, 0, 79, 0
2, 87168, Note_on_c, 0, 81, 66
2, 87168, Note_on_c, 0, 93, 66
2, 87216, Note_on_c, 0, 81, 0
2, 87264, Note_on_c, 0, 93, 0
2, 87600, Note_on_c, 0, 62, 66
2, 87600, Note_on_c, 0, 74, 66
2, 87648, Note_on_c, 0, 74, 0
2, 87648, Note_on_c, 0, 62, 0
2, 87648, Note_on_c, 0, 76, 66
2, 87648, Note_on_c, 0, 64, 66
2, 87696, Note_on_c, 0, 64, 0
2, 87696, Note_on_c, 0, 76, 0
2, 87696, Note_on_c, 0, 77, 66
2, 87696, Note_on_c, 0, 65, 66
2, 87744, Note_on_c, 0, 65, 0
2, 87744, Note_on_c, 0, 77, 0
2, 87744, Note_on_c, 0, 78, 66
2, 87744, Note_on_c, 0, 66, 66
2, 87792, Note_on_c, 0, 66, 0
2, 87792, Note_on_c, 0, 78, 0
2, 87792, Note_on_c, 0, 79, 66
2, 87792, Note_on_c, 0, 67, 66
2, 87840, Note_on_c, 0, 67, 0
2, 87840, Note_on_c, 0, 79, 0
2, 87840, Note_on_c, 0, 69, 66
2, 87840, Note_on_c, 0, 81, 66
2, 87888, Note_on_c, 0, 81, 0
2, 87888, Note_on_c, 0, 69, 0
2, 87888, Note_on_c, 0, 70, 66
2, 87888, Note_on_c, 0, 82, 66
2, 87936, Note_on_c, 0, 82, 0
2, 87936, Note_on_c, 0, 70, 0
2, 87936, Note_on_c, 0, 84, 66
2, 87936, Note_on_c, 0, 72, 66
2, 88018, Note_on_c, 0, 84, 0
2, 88032, Note_on_c, 0, 72, 0
2, 88368, Note_on_c, 0, 67, 66
2, 88368, Note_on_c, 0, 58, 66
2, 88416, Note_on_c, 0, 58, 0
2, 88416, Note_on_c, 0, 67, 0
2, 88416, Note_on_c, 0, 69, 66
2, 88416, Note_on_c, 0, 60, 66
2, 88464, Note_on_c, 0, 60, 0
2, 88464, Note_on_c, 0, 69, 0
2, 88464, Note_on_c, 0, 62, 66
2, 88464, Note_on_c, 0, 70, 66
2, 88512, Note_on_c, 0, 70, 0
2, 88512, Note_on_c, 0, 62, 0
2, 88512, Note_on_c, 0, 71, 66
2, 88512, Note_on_c, 0, 63, 66
2, 88560, Note_on_c, 0, 63, 0
2, 88560, Note_on_c, 0, 71, 0
2, 88560, Note_on_c, 0, 64, 66
2, 88560, Note_on_c, 0, 72, 66
2, 88608, Note_on_c, 0, 72, 0
2, 88608, Note_on_c, 0, 64, 0
2, 88608, Note_on_c, 0, 65, 66
2, 88608, Note_on_c, 0, 74, 66
2, 88656, Note_on_c, 0, 74, 0
2, 88656, Note_on_c, 0, 65, 0
2, 88656, Note_on_c, 0, 67, 66
2, 88656, Note_on_c, 0, 76, 66
2, 88704, Note_on_c, 0, 76, 0
2, 88704, Note_on_c, 0, 67, 0
2, 88704, Note_on_c, 0, 69, 66
2, 88704, Note_on_c, 0, 77, 66
2, 88800, Note_on_c, 0, 77, 0
2, 88800, Note_on_c, 0, 69, 0
2, 89136, Note_on_c, 0, 71, 66
2, 89136, Note_on_c, 0, 62, 66
2, 89184, Note_on_c, 0, 62, 0
2, 89184, Note_on_c, 0, 71, 0
2, 89184, Note_on_c, 0, 72, 66
2, 89184, Note_on_c, 0, 63, 66
2, 89232, Note_on_c, 0, 63, 0
2, 89232, Note_on_c, 0, 72, 0
2, 89232, Note_on_c, 0, 64, 66
2, 89232, Note_on_c, 0, 73, 66
2, 89280, Note_on_c, 0, 73, 0
2, 89280, Note_on_c, 0, 64, 0
2, 89280, Note_on_c, 0, 74, 66
2, 89280, Note_on_c, 0, 65, 66
2, 89328, Note_on_c, 0, 65, 0
2, 89328, Note_on_c, 0, 74, 0
2, 89328, Note_on_c, 0, 76, 66
2, 89328, Note_on_c, 0, 67, 66
2, 89376, Note_on_c, 0, 67, 0
2, 89376, Note_on_c, 0, 76, 0
2, 89376, Note_on_c, 0, 74, 66
2, 89376, Note_on_c, 0, 77, 66
2, 89424, Note_on_c, 0, 77, 0
2, 89424, Note_on_c, 0, 79, 66
2, 89472, Note_on_c, 0, 79, 0
2, 89472, Note_on_c, 0, 74, 0
2, 89472, Note_on_c, 0, 81, 66
2, 89472, Note_on_c, 0, 73, 66
2, 89554, Note_on_c, 0, 81, 0
2, 89568, Note_on_c, 0, 73, 0
2, 89904, Note_on_c, 0, 65, 66
2, 89904, Note_on_c, 0, 74, 66
2, 89952, Note_on_c, 0, 74, 0
2, 89952, Note_on_c, 0, 65, 0
2, 89952, Note_on_c, 0, 75, 66
2, 89952, Note_on_c, 0, 66, 66
2, 90000, Note_on_c, 0, 66, 0
2, 90000, Note_on_c, 0, 75, 0
2, 90000, Note_on_c, 0, 67, 66
2, 90000, Note_on_c, 0, 76, 66
2, 90048, Note_on_c, 0, 76, 0
2, 90048, Note_on_c, 0, 67, 0
2, 90048, Note_on_c, 0, 69, 66
2, 90048, Note_on_c, 0, 77, 66
2, 90096, Note_on_c, 0, 77, 0
2, 90096, Note_on_c, 0, 69, 0
2, 90096, Note_on_c, 0, 79, 66
2, 90096, Note_on_c, 0, 70, 66
2, 90144, Note_on_c, 0, 70, 0
2, 90144, Note_on_c, 0, 79, 0
2, 90144, Note_on_c, 0, 77, 66
2, 90144, Note_on_c, 0, 81, 66
2, 90192, Note_on_c, 0, 81, 0
2, 90192, Note_on_c, 0, 82, 66
2, 90240, Note_on_c, 0, 82, 0
2, 90240, Note_on_c, 0, 77, 0
2, 90240, Note_on_c, 0, 84, 66
2, 90240, Note_on_c, 0, 76, 66
2, 90336, Note_on_c, 0, 76, 0
2, 90336, Note_on_c, 0, 84, 0
2, 90672, Note_on_c, 0, 84, 66
2, 90672, Note_on_c, 0, 72, 66
2, 90720, Note_on_c, 0, 72, 0
2, 90720, Note_on_c, 0, 84, 0
2, 90720, Note_on_c, 0, 75, 66
2, 90720, Note_on_c, 0, 87, 66
2, 90768, Note_on_c, 0, 87, 0
2, 90768, Note_on_c, 0, 75, 0
2, 90768, Note_on_c, 0, 77, 66
2, 90768, Note_on_c, 0, 89, 66
2, 90816, Note_on_c, 0, 89, 0
2, 90816, Note_on_c, 0, 77, 0
2, 90816, Note_on_c, 0, 78, 66
2, 90816, Note_on_c, 0, 90, 66
2, 90912, Note_on_c, 0, 90, 0
2, 90912, Note_on_c, 0, 78, 0
2, 91056, Note_on_c, 0, 75, 66
2, 91056, Note_on_c, 0, 87, 66
2, 91104, Note_on_c, 0, 87, 0
2, 91104, Note_on_c, 0, 75, 0
2, 91104, Note_on_c, 0, 90, 66
2, 91104, Note_on_c, 0, 78, 66
2, 91152, Note_on_c, 0, 78, 0
2, 91152, Note_on_c, 0, 90, 0
2, 91152, Note_on_c, 0, 92, 66
2, 91152, Note_on_c, 0, 80, 66
2, 91200, Note_on_c, 0, 80, 0
2, 91200, Note_on_c, 0, 92, 0
2, 91200, Note_on_c, 0, 93, 66
2, 91200, Note_on_c, 0, 81, 66
2, 91296, Note_on_c, 0, 81, 0
2, 91296, Note_on_c, 0, 93, 0
2, 91440, Note_on_c, 0, 78, 66
2, 91440, Note_on_c, 0, 90, 66
2, 91440, Note_on_c, 0, 78, 66
2, 91488, Note_on_c, 0, 78, 0
2, 91488, Note_on_c, 0, 90, 0
2, 91488, Note_on_c, 0, 78, 0
2, 91488, Note_on_c, 0, 93, 66
2, 91488, Note_on_c, 0, 81, 66
2, 91536, Note_on_c, 0, 81, 0
2, 91536, Note_on_c, 0, 93, 0
2, 91536, Note_on_c, 0, 95, 66
2, 91536, Note_on_c, 0, 83, 66
2, 91576, Note_on_c, 0, 83, 0
2, 91584, Note_on_c, 0, 95, 0
2, 92928, Note_on_c, 0, 48, 99
2, 92968, Note_on_c, 0, 48, 0
2, 92976, Note_on_c, 0, 59, 99
2, 93016, Note_on_c, 0, 59, 0
2, 93024, Note_on_c, 0, 60, 99
2, 93064, Note_on_c, 0, 60, 0
2, 93072, Note_on_c, 0, 62, 99
2, 93112, Note_on_c, 0, 62, 0
2, 93120, Note_on_c, 0, 63, 99
2, 93352, Note_on_c, 0, 63, 0
2, 93360, Note_on_c, 0, 62, 99
2, 93400, Note_on_c, 0, 62, 0
2, 93408, Note_on_c, 0, 63, 99
2, 93448, Note_on_c, 0, 63, 0
2, 93456, Note_on_c, 0, 65, 99
2, 93496, Note_on_c, 0, 65, 0
2, 93504, Note_on_c, 0, 66, 99
2, 93736, Note_on_c, 0, 66, 0
2, 93744, Note_on_c, 0, 65, 99
2, 93784, Note_on_c, 0, 65, 0
2, 93792, Note_on_c, 0, 66, 99
2, 93832, Note_on_c, 0, 66, 0
2, 93840, Note_on_c, 0, 69, 99
2, 93880, Note_on_c, 0, 69, 0
2, 93888, Note_on_c, 0, 70, 99
2, 93928, Note_on_c, 0, 70, 0
2, 93936, Note_on_c, 0, 69, 99
2, 93976, Note_on_c, 0, 69, 0
2, 93984, Note_on_c, 0, 70, 99
2, 94024, Note_on_c, 0, 70, 0
2, 94032, Note_on_c, 0, 74, 99
2, 94072, Note_on_c, 0, 74, 0
2, 94080, Note_on_c, 0, 75, 99
2, 94120, Note_on_c, 0, 75, 0
2, 94128, Note_on_c, 0, 74, 99
2, 94168, Note_on_c, 0, 74, 0
2, 94176, Note_on_c, 0, 75, 99
2, 94216, Note_on_c, 0, 75, 0
2, 94224, Note_on_c, 0, 77, 99
2, 94264, Note_on_c, 0, 77, 0
2, 94272, Note_on_c, 0, 78, 99
2, 94332, Note_on_c, 0, 78, 0
2, 94368, Note_on_c, 0, 75, 111
2, 94418, Note_on_c, 0, 75, 0
2, 94464, Note_on_c, 0, 83, 80
2, 94630, Note_on_c, 0, 83, 0
2, 94656, Note_on_c, 0, 80, 66
2, 94656, Note_on_c, 0, 83, 66
2, 94696, Note_on_c, 0, 83, 0
2, 94696, Note_on_c, 0, 80, 0
2, 94704, Note_on_c, 0, 82, 66
2, 94744, Note_on_c, 0, 82, 0
2, 94752, Note_on_c, 0, 80, 66
2, 94792, Note_on_c, 0, 80, 0
2, 94800, Note_on_c, 0, 82, 66
2, 94840, Note_on_c, 0, 82, 0
2, 94848, Note_on_c, 0, 80, 66
2, 94888, Note_on_c, 0, 80, 0
2, 94896, Note_on_c, 0, 78, 66
2, 94936, Note_on_c, 0, 78, 0
2, 94944, Note_on_c, 0, 77, 66
2, 94984, Note_on_c, 0, 77, 0
2, 94992, Note_on_c, 0, 75, 66
2, 95032, Note_on_c, 0, 75, 0
2, 95040, Note_on_c, 0, 74, 66
2, 95100, Note_on_c, 0, 74, 0
2, 95136, Note_on_c, 0, 77, 78
2, 95196, Note_on_c, 0, 77, 0
2, 95232, Note_on_c, 0, 71, 66
2, 95292, Note_on_c, 0, 71, 0
2, 95328, Note_on_c, 0, 75, 78
2, 95388, Note_on_c, 0, 75, 0
2, 95424, Note_on_c, 0, 68, 66
2, 95484, Note_on_c, 0, 68, 0
2, 95520, Note_on_c, 0, 71, 78
2, 95580, Note_on_c, 0, 71, 0
2, 95616, Note_on_c, 0, 65, 66
2, 95676, Note_on_c, 0, 65, 0
2, 95712, Note_on_c, 0, 68, 78
2, 95772, Note_on_c, 0, 68, 0
2, 95808, Note_on_c, 0, 58, 66
2, 95856, Note_on_c, 0, 58, 0
2, 95856, Note_on_c, 0, 58, 66
2, 95856, Note_on_c, 0, 70, 66
2, 95904, Note_on_c, 0, 70, 0
2, 95904, Note_on_c, 0, 58, 0
2, 95904, Note_on_c, 0, 72, 66
2, 95904, Note_on_c, 0, 60, 66
2, 95952, Note_on_c, 0, 60, 0
2, 95952, Note_on_c, 0, 72, 0
2, 95952, Note_on_c, 0, 74, 66
2, 95952, Note_on_c, 0, 62, 66
2, 96000, Note_on_c, 0, 62, 0
2, 96000, Note_on_c, 0, 74, 0
2, 96000, Note_on_c, 0, 63, 66
2, 96000, Note_on_c, 0, 63, 66
2, 96000, Note_on_c, 0, 75, 66
2, 96208, Note_on_c, 0, 63, 0
2, 96208, Note_on_c, 0, 63, 0
2, 96240, Note_on_c, 0, 75, 0
2, 96240, Note_on_c, 0, 74, 66
2, 96240, Note_on_c, 0, 62, 66
2, 96240, Note_on_c, 0, 62, 66
2, 96280, Note_on_c, 0, 62, 0
2, 96280, Note_on_c, 0, 62, 0
2, 96288, Note_on_c, 0, 74, 0
2, 96288, Note_on_c, 0, 75, 66
2, 96288, Note_on_c, 0, 63, 66
2, 96288, Note_on_c, 0, 63, 66
2, 96328, Note_on_c, 0, 63, 0
2, 96328, Note_on_c, 0, 63, 0
2, 96336, Note_on_c, 0, 75, 0
2, 96336, Note_on_c, 0, 65, 66
2, 96336, Note_on_c, 0, 65, 66
2, 96336, Note_on_c, 0, 77, 66
2, 96376, Note_on_c, 0, 65, 0
2, 96376, Note_on_c, 0, 65, 0
2, 96384, Note_on_c, 0, 77, 0
2, 96384, Note_on_c, 0, 68, 66
2, 96384, Note_on_c, 0, 68, 66
2, 96384, Note_on_c, 0, 80, 66
2, 96424, Note_on_c, 0, 68, 0
2, 96424, Note_on_c, 0, 68, 0
2, 96432, Note_on_c, 0, 80, 0
2, 96432, Note_on_c, 0, 66, 66
2, 96432, Note_on_c, 0, 78, 66
2, 96432, Note_on_c, 0, 66, 66
2, 96472, Note_on_c, 0, 66, 0
2, 96472, Note_on_c, 0, 66, 0
2, 96480, Note_on_c, 0, 78, 0
2, 96624, Note_on_c, 0, 63, 66
2, 96624, Note_on_c, 0, 75, 66
2, 96672, Note_on_c, 0, 75, 0
2, 96672, Note_on_c, 0, 63, 0
2, 96672, Note_on_c, 0, 65, 66
2, 96672, Note_on_c, 0, 77, 66
2, 96720, Note_on_c, 0, 77, 0
2, 96720, Note_on_c, 0, 65, 0
2, 96720, Note_on_c, 0, 79, 66
2, 96720, Note_on_c, 0, 67, 66
2, 96768, Note_on_c, 0, 67, 0
2, 96768, Note_on_c, 0, 79, 0
2, 96768, Note_on_c, 0, 68, 66
2, 96768, Note_on_c, 0, 80, 66
2, 96768, Note_on_c, 0, 68, 66
2, 96976, Note_on_c, 0, 68, 0
2, 96976, Note_on_c, 0, 68, 0
2, 97008, Note_on_c, 0, 80, 0
2, 97008, Note_on_c, 0, 67, 66
2, 97008, Note_on_c, 0, 67, 66
2, 97008, Note_on_c, 0, 79, 66
2, 97048, Note_on_c, 0, 67, 0
2, 97048, Note_on_c, 0, 67, 0
2, 97056, Note_on_c, 0, 79, 0
2, 97056, Note_on_c, 0, 80, 66
2, 97056, Note_on_c, 0, 68, 66
2, 97056, Note_on_c, 0, 68, 66
2, 97096, Note_on_c, 0, 68, 0
2, 97096, Note_on_c, 0, 68, 0
2, 97104, Note_on_c, 0, 80, 0
2, 97104, Note_on_c, 0, 70, 66
2, 97104, Note_on_c, 0, 82, 66
2, 97104, Note_on_c, 0, 70, 66
2, 97144, Note_on_c, 0, 70, 0
2, 97144, Note_on_c, 0, 70, 0
2, 97152, Note_on_c, 0, 82, 0
2, 97152, Note_on_c, 0, 85, 66
2, 97152, Note_on_c, 0, 73, 66
2, 97152, Note_on_c, 0, 73, 66
2, 97192, Note_on_c, 0, 73, 0
2, 97192, Note_on_c, 0, 73, 0
2, 97200, Note_on_c, 0, 85, 0
2, 97200, Note_on_c, 0, 83, 66
2, 97200, Note_on_c, 0, 71, 66
2, 97200, Note_on_c, 0, 71, 66
2, 97240, Note_on_c, 0, 71, 0
2, 97240, Note_on_c, 0, 71, 0
2, 97248, Note_on_c, 0, 83, 0
2, 97392, Note_on_c, 0, 70, 66
2, 97392, Note_on_c, 0, 70, 66
2, 97392, Note_on_c, 0, 82, 66
2, 97432, Note_on_c, 0, 70, 0
2, 97432, Note_on_c, 0, 70, 0
2, 97440, Note_on_c, 0, 82, 0
2, 97440, Note_on_c, 0, 71, 66
2, 97440, Note_on_c, 0, 71, 66
2, 97440, Note_on_c, 0, 83, 66
2, 97480, Note_on_c, 0, 71, 0
2, 97480, Note_on_c, 0, 71, 0
2, 97488, Note_on_c, 0, 83, 0
2, 97488, Note_on_c, 0, 74, 66
2, 97488, Note_on_c, 0, 86, 66
2, 97488, Note_on_c, 0, 74, 66
2, 97528, Note_on_c, 0, 74, 0
2, 97528, Note_on_c, 0, 74, 0
2, 97536, Note_on_c, 0, 86, 0
2, 97536, Note_on_c, 0, 77, 66
2, 97536, Note_on_c, 0, 89, 66
2, 97576, Note_on_c, 0, 77, 0
2, 97584, Note_on_c, 0, 89, 0
2, 97584, Note_on_c, 0, 75, 66
2, 97584, Note_on_c, 0, 87, 66
2, 97624, Note_on_c, 0, 75, 0
2, 97632, Note_on_c, 0, 87, 0
2, 97776, Note_on_c, 0, 86, 66
2, 97776, Note_on_c, 0, 74, 66
2, 97816, Note_on_c, 0, 74, 0
2, 97824, Note_on_c, 0, 86, 0
2, 97824, Note_on_c, 0, 75, 66
2, 97824, Note_on_c, 0, 87, 66
2, 97864, Note_on_c, 0, 75, 0
2, 97872, Note_on_c, 0, 87, 0
2, 97872, Note_on_c, 0, 77, 66
2, 97872, Note_on_c, 0, 89, 66
2, 97912, Note_on_c, 0, 77, 0
2, 97920, Note_on_c, 0, 89, 0
2, 97920, Note_on_c, 0, 80, 66
2, 97920, Note_on_c, 0, 92, 66
2, 97960, Note_on_c, 0, 80, 0
2, 97968, Note_on_c, 0, 92, 0
2, 97968, Note_on_c, 0, 78, 66
2, 97968, Note_on_c, 0, 90, 66
2, 98008, Note_on_c, 0, 78, 0
2, 98016, Note_on_c, 0, 90, 0
2, 98160, Note_on_c, 0, 89, 66
2, 98160, Note_on_c, 0, 77, 66
2, 98200, Note_on_c, 0, 77, 0
2, 98208, Note_on_c, 0, 89, 0
2, 98208, Note_on_c, 0, 90, 66
2, 98208, Note_on_c, 0, 78, 66
2, 98248, Note_on_c, 0, 78, 0
2, 98256, Note_on_c, 0, 90, 0
2, 98256, Note_on_c, 0, 80, 66
2, 98256, Note_on_c, 0, 92, 66
2, 98296, Note_on_c, 0, 80, 0
2, 98304, Note_on_c, 0, 92, 0
2, 111168, Note_on_c, 0, 66, 66
2, 111168, Note_on_c, 0, 78, 66
2, 111360, Note_on_c, 0, 78, 0
2, 111360, Note_on_c, 0, 66, 0
2, 111360, Note_on_c, 0, 73, 66
2, 111360, Note_on_c, 0, 85, 66
2, 111648, Note_on_c, 0, 85, 0
2, 111648, Note_on_c, 0, 73, 0
2, 111648, Note_on_c, 0, 73, 66
2, 111648, Note_on_c, 0, 85, 66
2, 111744, Note_on_c, 0, 85, 0
2, 111744, Note_on_c, 0, 73, 0
2, 111744, Note_on_c, 0, 73, 66
2, 111744, Note_on_c, 0, 85, 66
2, 111840, Note_on_c, 0, 85, 0
2, 111840, Note_on_c, 0, 73, 0
2, 111840, Note_on_c, 0, 71, 66
2, 111840, Note_on_c, 0, 83, 66
2, 111936, Note_on_c, 0, 83, 0
2, 111936, Note_on_c, 0, 71, 0
2, 111936, Note_on_c, 0, 82, 66
2, 111936, Note_on_c, 0, 70, 66
2, 112032, Note_on_c, 0, 70, 0
2, 112032, Note_on_c, 0, 82, 0
2, 112032, Note_on_c, 0, 80, 66
2, 112032, Note_on_c, 0, 68, 66
2, 112128, Note_on_c, 0, 68, 0
2, 112128, Note_on_c, 0, 80, 0
2, 112128, Note_on_c, 0, 73, 66
2, 112128, Note_on_c, 0, 85, 66
2, 112608, Note_on_c, 0, 85, 0
2, 112608, Note_on_c, 0, 73, 0
2, 112704, Note_on_c, 0, 68, 66
2, 112704, Note_on_c, 0, 80, 66
2, 112896, Note_on_c, 0, 80, 0
2, 112896, Note_on_c, 0, 68, 0
2, 112896, Note_on_c, 0, 85, 66
2, 112896, Note_on_c, 0, 73, 66
2, 113184, Note_on_c, 0, 73, 0
2, 113184, Note_on_c, 0, 85, 0
2, 113184, Note_on_c, 0, 73, 66
2, 113184, Note_on_c, 0, 85, 66
2, 113280, Note_on_c, 0, 85, 0
2, 113280, Note_on_c, 0, 73, 0
2, 113280, Note_on_c, 0, 85, 66
2, 113280, Note_on_c, 0, 73, 66
2, 113376, Note_on_c, 0, 73, 0
2, 113376, Note_on_c, 0, 85, 0
2, 113376, Note_on_c, 0, 83, 66
2, 113376, Note_on_c, 0, 71, 66
2, 113472, Note_on_c, 0, 71, 0
2, 113472, Note_on_c, 0, 83, 0
2, 113472, Note_on_c, 0, 82, 66
2, 113472, Note_on_c, 0, 70, 66
2, 113568, Note_on_c, 0, 70, 0
2, 113568, Note_on_c, 0, 82, 0
2, 113568, Note_on_c, 0, 68, 66
2, 113568, Note_on_c, 0, 80, 66
2, 113664, Note_on_c, 0, 80, 0
2, 113664, Note_on_c, 0, 68, 0
2, 113664, Note_on_c, 0, 73, 66
2, 113664, Note_on_c, 0, 85, 66
2, 114144, Note_on_c, 0, 85, 0
2, 114144, Note_on_c, 0, 73, 0
2, 114240, Note_on_c, 0, 73, 66
2, 114240, Note_on_c, 0, 61, 66
2, 114432, Note_on_c, 0, 61, 0
2, 114432, Note_on_c, 0, 73, 0
2, 114432, Note_on_c, 0, 75, 66
2, 114432, Note_on_c, 0, 63, 66
2, 114624, Note_on_c, 0, 63, 0
2, 114624, Note_on_c, 0, 75, 0
2, 114624, Note_on_c, 0, 78, 66
2, 114624, Note_on_c, 0, 66, 66
2, 114816, Note_on_c, 0, 66, 0
2, 114816, Note_on_c, 0, 78, 0
2, 114816, Note_on_c, 0, 68, 66
2, 114816, Note_on_c, 0, 80, 66
2, 115008, Note_on_c, 0, 80, 0
2, 115008, Note_on_c, 0, 68, 0
2, 115008, Note_on_c, 0, 70, 66
2, 115008, Note_on_c, 0, 82, 66
2, 115104, Note_on_c, 0, 82, 0
2, 115104, Note_on_c, 0, 70, 0
2, 115104, Note_on_c, 0, 71, 66
2, 115104, Note_on_c, 0, 83, 66
2, 115200, Note_on_c, 0, 83, 0
2, 115200, Note_on_c, 0, 71, 0
2, 115200, Note_on_c, 0, 73, 66
2, 115200, Note_on_c, 0, 85, 66
2, 115680, Note_on_c, 0, 85, 0
2, 115680, Note_on_c, 0, 73, 0
2, 115776, Note_on_c, 0, 73, 66
2, 115776, Note_on_c, 0, 85, 66
2, 115968, Note_on_c, 0, 85, 0
2, 115968, Note_on_c, 0, 73, 0
2, 115968, Note_on_c, 0, 75, 66
2, 115968, Note_on_c, 0, 87, 66
2, 116160, Note_on_c, 0, 87, 0
2, 116160, Note_on_c, 0, 75, 0
2, 116160, Note_on_c, 0, 78, 66
2, 116160, Note_on_c, 0, 90, 66
2, 116352, Note_on_c, 0, 90, 0
2, 116352, Note_on_c, 0, 78, 0
2, 116352, Note_on_c, 0, 77, 66
2, 116352, Note_on_c, 0, 89, 66
2, 116544, Note_on_c, 0, 89, 0
2, 116544, Note_on_c, 0, 77, 0
2, 116544, Note_on_c, 0, 87, 66
2, 116544, Note_on_c, 0, 75, 66
2, 116640, Note_on_c, 0, 75, 0
2, 116640, Note_on_c, 0, 87, 0
2, 116640, Note_on_c, 0, 73, 66
2, 116640, Note_on_c, 0, 85, 66
2, 116736, Note_on_c, 0, 85, 0
2, 116736, Note_on_c, 0, 73, 0
2, 116736, Note_on_c, 0, 90, 66
2, 116736, Note_on_c, 0, 78, 66
2, 117216, Note_on_c, 0, 78, 0
2, 117216, Note_on_c, 0, 90, 0
2, 117312, Note_on_c, 0, 61, 66
2, 117312, Note_on_c, 0, 73, 66
2, 117504, Note_on_c, 0, 73, 0
2, 117504, Note_on_c, 0, 61, 0
2, 117504, Note_on_c, 0, 63, 66
2, 117504, Note_on_c, 0, 75, 66
2, 117696, Note_on_c, 0, 75, 0
2, 117696, Note_on_c, 0, 63, 0
2, 117696, Note_on_c, 0, 78, 66
2, 117696, Note_on_c, 0, 66, 66
2, 117888, Note_on_c, 0, 66, 0
2, 117888, Note_on_c, 0, 78, 0
2, 117888, Note_on_c, 0, 68, 66
2, 117888, Note_on_c, 0, 80, 66
2, 118080, Note_on_c, 0, 80, 0
2, 118080, Note_on_c, 0, 68, 0
2, 118080, Note_on_c, 0, 70, 66
2, 118080, Note_on_c, 0, 82, 66
2, 118176, Note_on_c, 0, 82, 0
2, 118176, Note_on_c, 0, 70, 0
2, 118176, Note_on_c, 0, 71, 66
2, 118176, Note_on_c, 0, 83, 66
2, 118272, Note_on_c, 0, 83, 0
2, 118272, Note_on_c, 0, 71, 0
2, 118272, Note_on_c, 0, 85, 66
2, 118272, Note_on_c, 0, 73, 66
2, 118848, Note_on_c, 0, 73, 0
2, 118848, Note_on_c, 0, 85, 0
2, 118848, Note_on_c, 0, 85, 66
2, 118848, Note_on_c, 0, 73, 66
2, 119040, Note_on_c, 0, 73, 0
2, 119040, Note_on_c, 0, 85, 0
2, 119040, Note_on_c, 0, 87, 66
2, 119040, Note_on_c, 0, 75, 66
2, 119232, Note_on_c, 0, 75, 0
2, 119232, Note_on_c, 0, 87, 0
2, 119232, Note_on_c, 0, 90, 66
2, 119232, Note_on_c, 0, 78, 66
2, 119424, Note_on_c, 0, 78, 0
2, 119424, Note_on_c, 0, 90, 0
2, 119424, Note_on_c, 0, 89, 66
2, 119424, Note_on_c, 0, 77, 66
2, 119616, Note_on_c, 0, 77, 0
2, 119616, Note_on_c, 0, 89, 0
2, 119616, Note_on_c, 0, 87, 66
2, 119616, Note_on_c, 0, 75, 66
2, 119712, Note_on_c, 0, 75, 0
2, 119712, Note_on_c, 0, 87, 0
2, 119712, Note_on_c, 0, 85, 66
2, 119712, Note_on_c, 0, 73, 66
2, 119808, Note_on_c, 0, 73, 0
2, 119808, Note_on_c, 0, 85, 0
2, 119808, Note_on_c, 0, 90, 66
2, 119808, Note_on_c, 0, 78, 66
2, 120384, Note_on_c, 0, 78, 0
2, 120384, Note_on_c, 0, 90, 0
2, 120384, Note_on_c, 0, 78, 66
2, 120384, Note_on_c, 0, 90, 66
2, 120576, Note_on_c, 0, 90, 0
2, 120576, Note_on_c, 0, 78, 0
2, 120576, Note_on_c, 0, 79, 66
2, 120576, Note_on_c, 0, 91, 66
2, 120768, Note_on_c, 0, 91, 0
2, 120768, Note_on_c, 0, 79, 0
2, 120768, Note_on_c, 0, 78, 66
2, 120768, Note_on_c, 0, 90, 66
2, 120960, Note_on_c, 0, 90, 0
2, 120960, Note_on_c, 0, 78, 0
2, 120960, Note_on_c, 0, 78, 66
2, 120960, Note_on_c, 0, 90, 66
2, 121152, Note_on_c, 0, 90, 0
2, 121152, Note_on_c, 0, 78, 0
2, 121152, Note_on_c, 0, 88, 66
2, 121152, Note_on_c, 0, 76, 66
2, 121344, Note_on_c, 0, 76, 0
2, 121344, Note_on_c, 0, 88, 0
2, 121344, Note_on_c, 0, 88, 66
2, 121344, Note_on_c, 0, 76, 66
2, 121536, Note_on_c, 0, 76, 0
2, 121536, Note_on_c, 0, 88, 0
2, 121536, Note_on_c, 0, 90, 66
2, 121536, Note_on_c, 0, 78, 66
2, 121728, Note_on_c, 0, 78, 0
2, 121728, Note_on_c, 0, 90, 0
2, 121728, Note_on_c, 0, 90, 66
2, 121728, Note_on_c, 0, 78, 66
2, 121920, Note_on_c, 0, 78, 0
2, 121920, Note_on_c, 0, 90, 0
2, 121920, Note_on_c, 0, 91, 66
2, 121920, Note_on_c, 0, 79, 66
2, 122112, Note_on_c, 0, 79, 0
2, 122112, Note_on_c, 0, 91, 0
2, 122112, Note_on_c, 0, 79, 66
2, 122112, Note_on_c, 0, 91, 66
2, 122304, Note_on_c, 0, 91, 0
2, 122304, Note_on_c, 0, 79, 0
2, 122304, Note_on_c, 0, 74, 66
2, 122304, Note_on_c, 0, 86, 66
2, 122496, Note_on_c, 0, 86, 0
2, 122496, Note_on_c, 0, 74, 0
2, 122496, Note_on_c, 0, 86, 66
2, 122496, Note_on_c, 0, 74, 66
2, 122688, Note_on_c, 0, 74, 0
2, 122688, Note_on_c, 0, 86, 0
2, 122688, Note_on_c, 0, 84, 66
2, 122688, Note_on_c, 0, 72, 66
2, 122880, Note_on_c, 0, 72, 0
2, 122880, Note_on_c, 0, 84, 0
2, 122880, Note_on_c, 0, 84, 66
2, 122880, Note_on_c, 0, 72, 66
2, 122976, Note_on_c, 0, 72, 0
2, 122976, Note_on_c, 0, 84, 0
2, 122976, Note_on_c, 0, 83, 66
2, 122976, Note_on_c, 0, 71, 66
2, 123072, Note_on_c, 0, 71, 0
2, 123072, Note_on_c, 0, 83, 0
2, 123072, Note_on_c, 0, 88, 66
2, 123072, Note_on_c, 0, 76, 66
2, 123168, Note_on_c, 0, 76, 0
2, 123168, Note_on_c, 0, 88, 0
2, 123168, Note_on_c, 0, 74, 66
2, 123168, Note_on_c, 0, 86, 66
2, 123264, Note_on_c, 0, 86, 0
2, 123264, Note_on_c, 0, 74, 0
2, 123264, Note_on_c, 0, 81, 66
2, 123264, Note_on_c, 0, 69, 66
2, 123456, Note_on_c, 0, 69, 0
2, 123456, Note_on_c, 0, 81, 0
2, 123456, Note_on_c, 0, 86, 66
2, 123456, Note_on_c, 0, 74, 66
2, 123648, Note_on_c, 0, 74, 0
2, 123648, Note_on_c, 0, 86, 0
2, 123648, Note_on_c, 0, 79, 66
2, 123648, Note_on_c, 0, 91, 66
2, 123840, Note_on_c, 0, 91, 0
2, 123840, Note_on_c, 0, 79, 0
2, 123840, Note_on_c, 0, 90, 66
2, 123840, Note_on_c, 0, 78, 66
2, 124032, Note_on_c, 0, 78, 0
2, 124032, Note_on_c, 0, 90, 0
2, 124032, Note_on_c, 0, 78, 66
2, 124032, Note_on_c, 0, 90, 66
2, 124224, Note_on_c, 0, 90, 0
2, 124224, Note_on_c, 0, 78, 0
2, 124224, Note_on_c, 0, 88, 66
2, 124224, Note_on_c, 0, 76, 66
2, 124416, Note_on_c, 0, 76, 0
2, 124416, Note_on_c, 0, 88, 0
2, 124416, Note_on_c, 0, 76, 66
2, 124416, Note_on_c, 0, 88, 66
2, 124608, Note_on_c, 0, 88, 0
2, 124608, Note_on_c, 0, 76, 0
2, 124608, Note_on_c, 0, 90, 66
2, 124608, Note_on_c, 0, 78, 66
2, 124800, Note_on_c, 0, 78, 0
2, 124800, Note_on_c, 0, 90, 0
2, 124800, Note_on_c, 0, 90, 66
2, 124800, Note_on_c, 0, 78, 66
2, 124992, Note_on_c, 0, 78, 0
2, 124992, Note_on_c, 0, 90, 0
2, 124992, Note_on_c, 0, 79, 66
2, 124992, Note_on_c, 0, 91, 66
2, 125184, Note_on_c, 0, 91, 0
2, 125184, Note_on_c, 0, 79, 0
2, 125184, Note_on_c, 0, 79, 66
2, 125184, Note_on_c, 0, 91, 66
2, 125376, Note_on_c, 0, 91, 0
2, 125376, Note_on_c, 0, 79, 0
2, 125376, Note_on_c, 0, 77, 66
2, 125376, Note_on_c, 0, 89, 66
2, 125568, Note_on_c, 0, 89, 0
2, 125568, Note_on_c, 0, 77, 0
2, 125568, Note_on_c, 0, 89, 66
2, 125568, Note_on_c, 0, 77, 66
2, 125760, Note_on_c, 0, 77, 0
2, 125760, Note_on_c, 0, 89, 0
2, 125760, Note_on_c, 0, 87, 66
2, 125760, Note_on_c, 0, 75, 66
2, 125952, Note_on_c, 0, 75, 0
2, 125952, Note_on_c, 0, 87, 0
2, 125952, Note_on_c, 0, 87, 66
2, 125952, Note_on_c, 0, 75, 66
2, 126144, Note_on_c, 0, 75, 0
2, 126144, Note_on_c, 0, 87, 0
2, 126144, Note_on_c, 0, 89, 66
2, 126144, Note_on_c, 0, 77, 66
2, 126336, Note_on_c, 0, 77, 0
2, 126336, Note_on_c, 0, 89, 0
2, 126336, Note_on_c, 0, 77, 66
2, 126336, Note_on_c, 0, 89, 66
2, 126528, Note_on_c, 0, 89, 0
2, 126528, Note_on_c, 0, 77, 0
2, 126528, Note_on_c, 0, 78, 66
2, 126528, Note_on_c, 0, 90, 66
2, 126720, Note_on_c, 0, 90, 0
2, 126720, Note_on_c, 0, 78, 0
2, 126720, Note_on_c, 0, 90, 66
2, 126720, Note_on_c, 0, 78, 66
2, 126912, Note_on_c, 0, 78, 0
2, 126912, Note_on_c, 0, 90, 0
2, 126912, Note_on_c, 0, 77, 66
2, 126912, Note_on_c, 0, 89, 66
2, 127104, Note_on_c, 0, 89, 0
2, 127104, Note_on_c, 0, 77, 0
2, 127104, Note_on_c, 0, 77, 66
2, 127104, Note_on_c, 0, 89, 66
2, 127296, Note_on_c, 0, 89, 0
2, 127296, Note_on_c, 0, 77, 0
2, 127296, Note_on_c, 0, 75, 66
2, 127296, Note_on_c, 0, 87, 66
2, 127488, Note_on_c, 0, 87, 0
2, 127488, Note_on_c, 0, 75, 0
2, 127488, Note_on_c, 0, 75, 66
2, 127488, Note_on_c, 0, 87, 66
2, 127680, Note_on_c, 0, 87, 0
2, 127680, Note_on_c, 0, 75, 0
2, 127680, Note_on_c, 0, 89, 66
2, 127680, Note_on_c, 0, 77, 66
2, 127872, Note_on_c, 0, 77, 0
2, 127872, Note_on_c, 0, 89, 0
2, 127872, Note_on_c, 0, 77, 66
2, 127872, Note_on_c, 0, 89, 66
2, 128064, Note_on_c, 0, 89, 0
2, 128064, Note_on_c, 0, 77, 0
2, 128064, Note_on_c, 0, 78, 66
2, 128064, Note_on_c, 0, 90, 66
2, 128256, Note_on_c, 0, 90, 0
2, 128256, Note_on_c, 0, 78, 0
2, 128256, Note_on_c, 0, 79, 66
2, 128256, Note_on_c, 0, 91, 66
2, 128640, Note_on_c, 0, 91, 0
2, 128640, Note_on_c, 0, 79, 0
2, 128640, Note_on_c, 0, 89, 66
2, 128640, Note_on_c, 0, 77, 66
2, 129024, Note_on_c, 0, 77, 0
2, 129024, Note_on_c, 0, 89, 0
2, 129024, Note_on_c, 0, 87, 66
2, 129024, Note_on_c, 0, 75, 66
2, 129134, Note_on_c, 0, 75, 0
2, 129134, Note_on_c, 0, 87, 0
2, 129152, Note_on_c, 0, 74, 66
2, 129152, Note_on_c, 0, 86, 66
2, 129262, Note_on_c, 0, 86, 0
2, 129262, Note_on_c, 0, 74, 0
2, 129280, Note_on_c, 0, 84, 66
2, 129280, Note_on_c, 0, 72, 66
2, 129390, Note_on_c, 0, 72, 0
2, 129390, Note_on_c, 0, 84, 0
2, 129408, Note_on_c, 0, 70, 66
2, 129408, Note_on_c, 0, 82, 66
2, 129518, Note_on_c, 0, 82, 0
2, 129518, Note_on_c, 0, 70, 0
2, 129536, Note_on_c, 0, 69, 66
2, 129536, Note_on_c, 0, 81, 66
2, 129646, Note_on_c, 0, 81, 0
2, 129646, Note_on_c, 0, 69, 0
2, 129664, Note_on_c, 0, 68, 66
2, 129664, Note_on_c, 0, 80, 66
2, 129774, Note_on_c, 0, 80, 0
2, 129774, Note_on_c, 0, 68, 0
2, 129792, Note_on_c, 0, 79, 66
2, 129792, Note_on_c, 0, 67, 66
2, 130176, Note_on_c, 0, 67, 0
2, 130176, Note_on_c, 0, 79, 0
2, 130176, Note_on_c, 0, 65, 66
2, 130176, Note_on_c, 0, 77, 66
2, 130560, Note_on_c, 0, 77, 0
2, 130560, Note_on_c, 0, 65, 0
2, 130560, Note_on_c, 0, 63, 66
2, 130560, Note_on_c, 0, 75, 66
2, 130670, Note_on_c, 0, 75, 0
2, 130688, Note_on_c, 0, 63, 0
2, 130688, Note_on_c, 0, 74, 66
2, 130688, Note_on_c, 0, 62, 66
2, 130798, Note_on_c, 0, 74, 0
2, 130816, Note_on_c, 0, 62, 0
2, 130816, Note_on_c, 0, 60, 66
2, 130816, Note_on_c, 0, 72, 66
2, 130926, Note_on_c, 0, 72, 0
2, 130944, Note_on_c, 0, 60, 0
2, 130944, Note_on_c, 0, 70, 66
2, 130944, Note_on_c, 0, 58, 66
2, 131054, Note_on_c, 0, 70, 0
2, 131072, Note_on_c, 0, 58, 0
2, 131072, Note_on_c, 0, 69, 66
2, 131182, Note_on_c, 0, 69, 0
2, 131200, Note_on_c, 0, 70, 66
2, 131310, Note_on_c, 0, 70, 0
2, 131328, Note_on_c, 0, 67, 66
2, 131456, Note_on_c, 0, 67, 0
2, 131456, Note_on_c, 0, 63, 66
2, 131584, Note_on_c, 0, 63, 0
2, 131584, Note_on_c, 0, 60, 66
2, 131712, Note_on_c, 0, 60, 0
2, 131712, Note_on_c, 0, 58, 66
2, 131808, Note_on_c, 0, 58, 0
2, 131904, Note_on_c, 0, 58, 66
2, 132096, Note_on_c, 0, 58, 0
2, 132096, Note_on_c, 0, 57, 66
2, 132288, Note_on_c, 0, 57, 0
2, 132288, Note_on_c, 0, 63, 66
2, 132480, Note_on_c, 0, 63, 0
2, 132480, Note_on_c, 0, 65, 66
2, 132672, Note_on_c, 0, 65, 0
2, 132672, Note_on_c, 0, 67, 66
2, 132768, Note_on_c, 0, 67, 0
2, 132768, Note_on_c, 0, 68, 66
2, 132864, Note_on_c, 0, 68, 0
2, 132864, Note_on_c, 0, 70, 66
2, 133440, Note_on_c, 0, 70, 0
2, 133440, Note_on_c, 0, 70, 66
2, 133632, Note_on_c, 0, 70, 0
2, 133632, Note_on_c, 0, 72, 66
2, 133824, Note_on_c, 0, 72, 0
2, 133824, Note_on_c, 0, 75, 66
2, 134016, Note_on_c, 0, 75, 0
2, 134016, Note_on_c, 0, 70, 66
2, 134208, Note_on_c, 0, 70, 0
2, 134208, Note_on_c, 0, 69, 66
2, 134304, Note_on_c, 0, 69, 0
2, 134304, Note_on_c, 0, 68, 66
2, 134400, Note_on_c, 0, 68, 0
2, 134400, Note_on_c, 0, 66, 66
2, 134784, Note_on_c, 0, 66, 0
2, 134784, Note_on_c, 0, 65, 66
2, 134976, Note_on_c, 0, 65, 0
2, 134976, Note_on_c, 0, 58, 66
2, 135168, Note_on_c, 0, 58, 0
2, 135168, Note_on_c, 0, 60, 66
2, 135360, Note_on_c, 0, 60, 0
2, 135360, Note_on_c, 0, 63, 66
2, 135552, Note_on_c, 0, 63, 0
2, 135552, Note_on_c, 0, 65, 66
2, 135744, Note_on_c, 0, 65, 0
2, 135744, Note_on_c, 0, 66, 66
2, 135840, Note_on_c, 0, 66, 0
2, 135840, Note_on_c, 0, 68, 66
2, 135936, Note_on_c, 0, 68, 0
2, 135936, Note_on_c, 0, 70, 66
2, 136512, Note_on_c, 0, 70, 0
2, 136512, Note_on_c, 0, 58, 66
2, 136704, Note_on_c, 0, 58, 0
2, 136704, Note_on_c, 0, 60, 66
2, 136896, Note_on_c, 0, 60, 0
2, 136896, Note_on_c, 0, 63, 66
2, 137088, Note_on_c, 0, 63, 0
2, 137088, Note_on_c, 0, 65, 66
2, 137280, Note_on_c, 0, 65, 0
2, 137280, Note_on_c, 0, 66, 66
2, 137376, Note_on_c, 0, 66, 0
2, 137376, Note_on_c, 0, 68, 66
2, 137472, Note_on_c, 0, 68, 0
2, 137472, Note_on_c, 0, 70, 66
2, 137856, Note_on_c, 0, 70, 0
2, 137856, Note_on_c, 0, 65, 66
2, 138240, Note_on_c, 0, 63, 66
2, 138336, Note_on_c, 0, 63, 0
2, 138336, Note_on_c, 0, 65, 0
2, 138624, Note_on_c, 0, 65, 66
2, 139008, Note_on_c, 0, 65, 0
2, 139008, Note_on_c, 0, 63, 66
2, 139104, Note_on_c, 0, 63, 0
2, 139392, Note_on_c, 0, 65, 66
2, 139776, Note_on_c, 0, 65, 0
2, 139776, Note_on_c, 0, 63, 66
2, 139872, Note_on_c, 0, 63, 0
2, 141312, Note_on_c, 0, 65, 66
2, 142176, Note_on_c, 0, 65, 0
2, 157152, Note_on_c, 0, 63, 66
2, 157234, Note_on_c, 0, 63, 0
2, 157248, Note_on_c, 0, 75, 66
2, 157288, Note_on_c, 0, 75, 0
2, 157296, Note_on_c, 0, 73, 66
2, 157336, Note_on_c, 0, 73, 0
2, 157344, Note_on_c, 0, 72, 66
2, 157384, Note_on_c, 0, 72, 0
2, 157392, Note_on_c, 0, 73, 66
2, 157432, Note_on_c, 0, 73, 0
2, 157440, Note_on_c, 0, 72, 66
2, 157480, Note_on_c, 0, 72, 0
2, 157488, Note_on_c, 0, 70, 66
2, 157528, Note_on_c, 0, 70, 0
2, 157536, Note_on_c, 0, 69, 66
2, 157576, Note_on_c, 0, 69, 0
2, 157584, Note_on_c, 0, 70, 66
2, 157624, Note_on_c, 0, 70, 0
2, 157632, Note_on_c, 0, 69, 66
2, 157714, Note_on_c, 0, 69, 0
2, 157728, Note_on_c, 0, 66, 66
2, 157810, Note_on_c, 0, 66, 0
2, 157824, Note_on_c, 0, 65, 66
2, 157906, Note_on_c, 0, 65, 0
2, 157920, Note_on_c, 0, 64, 66
2, 158002, Note_on_c, 0, 64, 0
2, 158016, Note_on_c, 0, 63, 66
2, 158098, Note_on_c, 0, 63, 0
2, 158304, Note_on_c, 0, 65, 66
2, 158374, Note_on_c, 0, 65, 0
2, 158400, Note_on_c, 0, 66, 66
2, 158482, Note_on_c, 0, 66, 0
2, 158688, Note_on_c, 0, 68, 66
2, 158758, Note_on_c, 0, 68, 0
2, 158784, Note_on_c, 0, 69, 66
2, 158866, Note_on_c, 0, 69, 0
2, 159072, Note_on_c, 0, 71, 66
2, 159142, Note_on_c, 0, 71, 0
2, 159168, Note_on_c, 0, 72, 66
2, 159250, Note_on_c, 0, 72, 0
2, 159456, Note_on_c, 0, 74, 66
2, 159526, Note_on_c, 0, 74, 0
2, 159552, Note_on_c, 0, 75, 66
2, 159634, Note_on_c, 0, 75, 0
2, 159936, Note_on_c, 0, 75, 66
2, 159936, Note_on_c, 0, 66, 66
2, 160102, Note_on_c, 0, 66, 0
2, 160102, Note_on_c, 0, 75, 0
2, 160128, Note_on_c, 0, 65, 66
2, 160128, Note_on_c, 0, 74, 66
2, 160294, Note_on_c, 0, 74, 0
2, 160294, Note_on_c, 0, 65, 0
2, 160320, Note_on_c, 0, 75, 66
2, 160320, Note_on_c, 0, 66, 66
2, 160486, Note_on_c, 0, 66, 0
2, 160486, Note_on_c, 0, 75, 0
2, 160704, Note_on_c, 0, 67, 66
2, 160704, Note_on_c, 0, 76, 66
2, 160870, Note_on_c, 0, 76, 0
2, 160896, Note_on_c, 0, 67, 0
2, 160896, Note_on_c, 0, 66, 66
2, 160896, Note_on_c, 0, 75, 66
2, 161062, Note_on_c, 0, 75, 0
2, 161088, Note_on_c, 0, 66, 0
2, 161088, Note_on_c, 0, 76, 66
2, 161088, Note_on_c, 0, 67, 66
2, 161280, Note_on_c, 0, 67, 0
2, 161280, Note_on_c, 0, 76, 0
2, 161856, Note_on_c, 0, 63, 66
2, 161856, Note_on_c, 0, 75, 66
2, 161952, Note_on_c, 0, 75, 0
2, 161952, Note_on_c, 0, 63, 0
2, 161952, Note_on_c, 0, 75, 66
2, 161952, Note_on_c, 0, 63, 66
2, 162000, Note_on_c, 0, 63, 0
2, 162000, Note_on_c, 0, 75, 0
2, 162000, Note_on_c, 0, 63, 66
2, 162000, Note_on_c, 0, 75, 66
2, 162048, Note_on_c, 0, 75, 0
2, 162048, Note_on_c, 0, 63, 0
2, 162048, Note_on_c, 0, 80, 66
2, 162048, Note_on_c, 0, 68, 66
2, 162240, Note_on_c, 0, 68, 0
2, 162240, Note_on_c, 0, 80, 0
2, 162240, Note_on_c, 0, 68, 66
2, 162240, Note_on_c, 0, 80, 66
2, 162432, Note_on_c, 0, 80, 0
2, 162432, Note_on_c, 0, 68, 0
2, 162432, Note_on_c, 0, 81, 66
2, 162432, Note_on_c, 0, 69, 66
2, 162624, Note_on_c, 0, 69, 0
2, 162624, Note_on_c, 0, 81, 0
2, 162624, Note_on_c, 0, 81, 66
2, 162624, Note_on_c, 0, 69, 66
2, 162816, Note_on_c, 0, 69, 0
2, 162816, Note_on_c, 0, 81, 0
2, 162816, Note_on_c, 0, 82, 66
2, 162816, Note_on_c, 0, 70, 66
2, 162898, Note_on_c, 0, 70, 0
2, 162912, Note_on_c, 0, 82, 0
2, 162912, Note_on_c, 0, 72, 66
2, 162912, Note_on_c, 0, 84, 66
2, 162994, Note_on_c, 0, 72, 0
2, 163008, Note_on_c, 0, 84, 0
2, 163008, Note_on_c, 0, 73, 66
2, 163008, Note_on_c, 0, 85, 66
2, 163090, Note_on_c, 0, 73, 0
2, 163104, Note_on_c, 0, 85, 0
2, 163776, Note_on_c, 0, 55, 66
2, 163776, Note_on_c, 0, 58, 66
2, 164064, Note_on_c, 0, 58, 0
2, 164064, Note_on_c, 0, 55, 0
2, 164160, Note_on_c, 0, 58, 66
2, 164160, Note_on_c, 0, 61, 66
2, 164448, Note_on_c, 0, 61, 0
2, 164448, Note_on_c, 0, 58, 0
2, 164448, Note_on_c, 0, 58, 66
2, 164448, Note_on_c, 0, 55, 66
2, 164488, Note_on_c, 0, 58, 0
2, 164496, Note_on_c, 0, 55, 0
2, 164496, Note_on_c, 0, 55, 66
2, 164496, Note_on_c, 0, 58, 66
2, 164536, Note_on_c, 0, 58, 0
2, 164544, Note_on_c, 0, 55, 0
2, 164544, Note_on_c, 0, 70, 66
2, 164544, Note_on_c, 0, 67, 66
2, 164626, Note_on_c, 0, 67, 0
2, 164626, Note_on_c, 0, 70, 0
2, 164640, Note_on_c, 0, 58, 66
2, 164640, Note_on_c, 0, 61, 66
2, 164680, Note_on_c, 0, 61, 0
2, 164688, Note_on_c, 0, 58, 0
2, 164688, Note_on_c, 0, 61, 66
2, 164688, Note_on_c, 0, 58, 66
2, 164728, Note_on_c, 0, 61, 0
2, 164736, Note_on_c, 0, 58, 0
2, 164736, Note_on_c, 0, 73, 66
2, 164736, Note_on_c, 0, 70, 66
2, 164818, Note_on_c, 0, 70, 0
2, 164818, Note_on_c, 0, 73, 0
2, 164832, Note_on_c, 0, 64, 66
2, 164832, Note_on_c, 0, 61, 66
2, 164872, Note_on_c, 0, 64, 0
2, 164880, Note_on_c, 0, 61, 0
2, 164880, Note_on_c, 0, 64, 66
2, 164880, Note_on_c, 0, 61, 66
2, 164920, Note_on_c, 0, 64, 0
2, 164928, Note_on_c, 0, 61, 0
2, 164928, Note_on_c, 0, 73, 66
2, 164928, Note_on_c, 0, 76, 66
2, 165010, Note_on_c, 0, 76, 0
2, 165010, Note_on_c, 0, 73, 0
2, 165312, Note_on_c, 0, 76, 66
2, 165312, Note_on_c, 0, 67, 66
2, 165478, Note_on_c, 0, 76, 0
2, 165504, Note_on_c, 0, 67, 0
2, 165504, Note_on_c, 0, 75, 66
2, 165504, Note_on_c, 0, 66, 66
2, 165670, Note_on_c, 0, 75, 0
2, 165696, Note_on_c, 0, 66, 0
2, 165696, Note_on_c, 0, 76, 66
2, 165696, Note_on_c, 0, 67, 66
2, 165862, Note_on_c, 0, 76, 0
2, 165888, Note_on_c, 0, 67, 0
2, 166080, Note_on_c, 0, 77, 66
2, 166080, Note_on_c, 0, 68, 66
2, 166246, Note_on_c, 0, 77, 0
2, 166272, Note_on_c, 0, 68, 0
2, 166272, Note_on_c, 0, 76, 66
2, 166272, Note_on_c, 0, 67, 66
2, 166438, Note_on_c, 0, 76, 0
2, 166464, Note_on_c, 0, 67, 0
2, 166464, Note_on_c, 0, 68, 66
2, 166464, Note_on_c, 0, 77, 66
2, 166560, Note_on_c, 0, 77, 0
2, 166560, Note_on_c, 0, 68, 0
2, 167232, Note_on_c, 0, 64, 66
2, 167232, Note_on_c, 0, 76, 66
2, 167328, Note_on_c, 0, 76, 0
2, 167328, Note_on_c, 0, 64, 0
2, 167328, Note_on_c, 0, 76, 66
2, 167328, Note_on_c, 0, 64, 66
2, 167376, Note_on_c, 0, 64, 0
2, 167376, Note_on_c, 0, 76, 0
2, 167376, Note_on_c, 0, 64, 66
2, 167376, Note_on_c, 0, 64, 66
2, 167376, Note_on_c, 0, 76, 66
2, 167424, Note_on_c, 0, 76, 0
2, 167424, Note_on_c, 0, 64, 0
2, 167424, Note_on_c, 0, 64, 0
2, 167424, Note_on_c, 0, 81, 66
2, 167424, Note_on_c, 0, 69, 66
2, 167590, Note_on_c, 0, 69, 0
2, 167616, Note_on_c, 0, 81, 0
2, 167616, Note_on_c, 0, 81, 66
2, 167616, Note_on_c, 0, 69, 66
2, 167782, Note_on_c, 0, 69, 0
2, 167808, Note_on_c, 0, 81, 0
2, 167808, Note_on_c, 0, 70, 66
2, 167808, Note_on_c, 0, 82, 66
2, 168000, Note_on_c, 0, 82, 0
2, 168000, Note_on_c, 0, 70, 0
2, 168000, Note_on_c, 0, 70, 66
2, 168000, Note_on_c, 0, 70, 66
2, 168000, Note_on_c, 0, 82, 66
2, 168166, Note_on_c, 0, 70, 0
2, 168192, Note_on_c, 0, 82, 0
2, 168192, Note_on_c, 0, 70, 0
2, 168192, Note_on_c, 0, 71, 66
2, 168192, Note_on_c, 0, 83, 66
2, 168274, Note_on_c, 0, 71, 0
2, 168288, Note_on_c, 0, 83, 0
2, 168288, Note_on_c, 0, 73, 66
2, 168288, Note_on_c, 0, 85, 66
2, 168370, Note_on_c, 0, 73, 0
2, 168384, Note_on_c, 0, 85, 0
2, 168384, Note_on_c, 0, 86, 66
2, 168384, Note_on_c, 0, 74, 66
2, 168466, Note_on_c, 0, 74, 0
2, 168480, Note_on_c, 0, 86, 0
2, 169248, Note_on_c, 0, 62, 66
2, 169248, Note_on_c, 0, 56, 66
2, 169536, Note_on_c, 0, 56, 0
2, 169536, Note_on_c, 0, 62, 0
2, 169536, Note_on_c, 0, 59, 66
2, 169536, Note_on_c, 0, 62, 66
2, 169824, Note_on_c, 0, 62, 0
2, 169824, Note_on_c, 0, 59, 0
2, 169824, Note_on_c, 0, 59, 66
2, 169824, Note_on_c, 0, 56, 66
2, 169864, Note_on_c, 0, 59, 0
2, 169872, Note_on_c, 0, 56, 0
2, 169872, Note_on_c, 0, 59, 66
2, 169872, Note_on_c, 0, 56, 66
2, 169912, Note_on_c, 0, 59, 0
2, 169920, Note_on_c, 0, 56, 0
2, 169920, Note_on_c, 0, 68, 66
2, 169920, Note_on_c, 0, 71, 66
2, 170002, Note_on_c, 0, 71, 0
2, 170002, Note_on_c, 0, 68, 0
2, 170016, Note_on_c, 0, 62, 66
2, 170016, Note_on_c, 0, 59, 66
2, 170056, Note_on_c, 0, 62, 0
2, 170064, Note_on_c, 0, 59, 0
2, 170064, Note_on_c, 0, 59, 66
2, 170064, Note_on_c, 0, 62, 66
2, 170104, Note_on_c, 0, 62, 0
2, 170112, Note_on_c, 0, 59, 0
2, 170112, Note_on_c, 0, 74, 66
2, 170112, Note_on_c, 0, 71, 66
2, 170194, Note_on_c, 0, 71, 0
2, 170194, Note_on_c, 0, 74, 0
2, 170208, Note_on_c, 0, 65, 66
2, 170208, Note_on_c, 0, 62, 66
2, 170248, Note_on_c, 0, 65, 0
2, 170256, Note_on_c, 0, 62, 0
2, 170256, Note_on_c, 0, 62, 66
2, 170256, Note_on_c, 0, 65, 66
2, 170296, Note_on_c, 0, 65, 0
2, 170304, Note_on_c, 0, 62, 0
2, 170304, Note_on_c, 0, 74, 66
2, 170304, Note_on_c, 0, 77, 66
2, 170386, Note_on_c, 0, 77, 0
2, 170386, Note_on_c, 0, 74, 0
2, 170400, Note_on_c, 0, 78, 66
2, 170400, Note_on_c, 0, 75, 66
2, 170482, Note_on_c, 0, 75, 0
2, 170482, Note_on_c, 0, 78, 0
2, 170688, Note_on_c, 0, 63, 66
2, 170688, Note_on_c, 0, 60, 66
2, 170976, Note_on_c, 0, 60, 0
2, 170976, Note_on_c, 0, 63, 0
2, 171072, Note_on_c, 0, 63, 66
2, 171072, Note_on_c, 0, 66, 66
2, 171360, Note_on_c, 0, 66, 0
2, 171360, Note_on_c, 0, 63, 0
2, 171360, Note_on_c, 0, 63, 66
2, 171360, Note_on_c, 0, 60, 66
2, 171400, Note_on_c, 0, 63, 0
2, 171408, Note_on_c, 0, 60, 0
2, 171408, Note_on_c, 0, 60, 66
2, 171408, Note_on_c, 0, 63, 66
2, 171448, Note_on_c, 0, 63, 0
2, 171456, Note_on_c, 0, 60, 0
2, 171456, Note_on_c, 0, 75, 66
2, 171456, Note_on_c, 0, 72, 66
2, 171538, Note_on_c, 0, 72, 0
2, 171538, Note_on_c, 0, 75, 0
2, 171552, Note_on_c, 0, 66, 66
2, 171552, Note_on_c, 0, 63, 66
2, 171592, Note_on_c, 0, 66, 0
2, 171600, Note_on_c, 0, 63, 0
2, 171600, Note_on_c, 0, 63, 66
2, 171600, Note_on_c, 0, 66, 66
2, 171640, Note_on_c, 0, 66, 0
2, 171648, Note_on_c, 0, 63, 0
2, 171648, Note_on_c, 0, 78, 66
2, 171648, Note_on_c, 0, 75, 66
2, 171744, Note_on_c, 0, 75, 0
2, 171744, Note_on_c, 0, 78, 0
2, 171744, Note_on_c, 0, 66, 66
2, 171744, Note_on_c, 0, 69, 66
2, 171784, Note_on_c, 0, 69, 0
2, 171792, Note_on_c, 0, 66, 0
2, 171792, Note_on_c, 0, 69, 66
2, 171792, Note_on_c, 0, 66, 66
2, 171832, Note_on_c, 0, 69, 0
2, 171840, Note_on_c, 0, 66, 0
2, 171840, Note_on_c, 0, 81, 66
2, 171840, Note_on_c, 0, 78, 66
2, 171936, Note_on_c, 0, 78, 0
2, 171936, Note_on_c, 0, 81, 0
2, 171936, Note_on_c, 0, 82, 66
2, 171936, Note_on_c, 0, 79, 66
2, 172018, Note_on_c, 0, 79, 0
2, 172018, Note_on_c, 0, 82, 0
2, 172128, Note_on_c, 0, 70, 66
2, 172128, Note_on_c, 0, 67, 66
2, 172168, Note_on_c, 0, 70, 0
2, 172176, Note_on_c, 0, 67, 0
2, 172176, Note_on_c, 0, 67, 66
2, 172176, Note_on_c, 0, 70, 66
2, 172216, Note_on_c, 0, 70, 0
2, 172224, Note_on_c, 0, 67, 0
2, 172224, Note_on_c, 0, 79, 66
2, 172224, Note_on_c, 0, 82, 66
2, 172306, Note_on_c, 0, 82, 0
2, 172320, Note_on_c, 0, 79, 0
2, 172320, Note_on_c, 0, 83, 66
2, 172320, Note_on_c, 0, 79, 66
2, 172368, Note_on_c, 0, 79, 0
2, 172368, Note_on_c, 0, 79, 66
2, 172402, Note_on_c, 0, 83, 0
2, 172416, Note_on_c, 0, 79, 0
2, 172416, Note_on_c, 0, 85, 66
2, 172416, Note_on_c, 0, 79, 66
2, 172512, Note_on_c, 0, 79, 0
2, 172512, Note_on_c, 0, 67, 66
2, 172512, Note_on_c, 0, 73, 66
2, 172560, Note_on_c, 0, 73, 0
2, 172560, Note_on_c, 0, 67, 0
2, 172560, Note_on_c, 0, 67, 66
2, 172560, Note_on_c, 0, 73, 66
2, 172582, Note_on_c, 0, 85, 0
2, 172608, Note_on_c, 0, 73, 0
2, 172608, Note_on_c, 0, 67, 0
2, 172608, Note_on_c, 0, 63, 66
2, 172608, Note_on_c, 0, 66, 66
2, 172656, Note_on_c, 0, 66, 0
2, 172656, Note_on_c, 0, 63, 0
2, 172656, Note_on_c, 0, 67, 66
2, 172656, Note_on_c, 0, 64, 66
2, 172656, Note_on_c, 0, 67, 66
2, 172704, Note_on_c, 0, 67, 0
2, 172704, Note_on_c, 0, 64, 0
2, 172704, Note_on_c, 0, 67, 0
2, 172704, Note_on_c, 0, 70, 66
2, 172704, Note_on_c, 0, 76, 66
2, 172752, Note_on_c, 0, 76, 0
2, 172752, Note_on_c, 0, 70, 0
2, 172752, Note_on_c, 0, 76, 66
2, 172752, Note_on_c, 0, 70, 66
2, 172800, Note_on_c, 0, 70, 0
2, 172800, Note_on_c, 0, 76, 0
2, 172848, Note_on_c, 0, 70, 66
2, 172848, Note_on_c, 0, 67, 66
2, 172848, Note_on_c, 0, 70, 66
2, 172896, Note_on_c, 0, 70, 0
2, 172896, Note_on_c, 0, 67, 0
2, 172896, Note_on_c, 0, 70, 0
2, 172896, Note_on_c, 0, 79, 66
2, 172896, Note_on_c, 0, 73, 66
2, 172978, Note_on_c, 0, 73, 0
2, 172978, Note_on_c, 0, 79, 0
2, 172992, Note_on_c, 0, 69, 66
2, 172992, Note_on_c, 0, 72, 66
2, 173032, Note_on_c, 0, 72, 0
2, 173040, Note_on_c, 0, 69, 0
2, 173040, Note_on_c, 0, 73, 66
2, 173040, Note_on_c, 0, 70, 66
2, 173080, Note_on_c, 0, 73, 0
2, 173088, Note_on_c, 0, 70, 0
2, 173088, Note_on_c, 0, 82, 66
2, 173088, Note_on_c, 0, 76, 66
2, 173136, Note_on_c, 0, 82, 0
2, 173136, Note_on_c, 0, 82, 66
2, 173170, Note_on_c, 0, 76, 0
2, 173184, Note_on_c, 0, 82, 0
2, 173184, Note_on_c, 0, 72, 66
2, 173184, Note_on_c, 0, 75, 66
2, 173232, Note_on_c, 0, 75, 0
2, 173232, Note_on_c, 0, 72, 0
2, 173232, Note_on_c, 0, 73, 66
2, 173232, Note_on_c, 0, 76, 66
2, 173280, Note_on_c, 0, 76, 0
2, 173280, Note_on_c, 0, 73, 0
2, 173280, Note_on_c, 0, 85, 66
2, 173280, Note_on_c, 0, 79, 66
2, 173328, Note_on_c, 0, 79, 0
2, 173328, Note_on_c, 0, 85, 0
2, 173328, Note_on_c, 0, 85, 66
2, 173328, Note_on_c, 0, 79, 66
2, 173376, Note_on_c, 0, 79, 0
2, 173376, Note_on_c, 0, 85, 0
2, 173376, Note_on_c, 0, 75, 66
2, 173424, Note_on_c, 0, 75, 0
2, 173424, Note_on_c, 0, 79, 66
2, 173424, Note_on_c, 0, 76, 66
2, 173464, Note_on_c, 0, 79, 0
2, 173472, Note_on_c, 0, 76, 0
2, 173472, Note_on_c, 0, 89, 66
2, 173472, Note_on_c, 0, 85, 66
2, 173472, Note_on_c, 0, 79, 66
2, 173520, Note_on_c, 0, 79, 0
2, 173520, Note_on_c, 0, 85, 0
2, 173520, Note_on_c, 0, 79, 66
2, 173520, Note_on_c, 0, 85, 66
2, 173554, Note_on_c, 0, 89, 0
2, 173568, Note_on_c, 0, 85, 0
2, 173568, Note_on_c, 0, 79, 0
2, 173664, Note_on_c, 0, 64, 66
2, 173664, Note_on_c, 0, 67, 66
2, 173704, Note_on_c, 0, 67, 0
2, 173712, Note_on_c, 0, 64, 0
2, 173712, Note_on_c, 0, 64, 66
2, 173712, Note_on_c, 0, 67, 66
2, 173752, Note_on_c, 0, 67, 0
2, 173760, Note_on_c, 0, 64, 0
2, 173760, Note_on_c, 0, 79, 66
2, 173760, Note_on_c, 0, 76, 66
2, 173856, Note_on_c, 0, 76, 0
2, 173856, Note_on_c, 0, 79, 0
2, 173856, Note_on_c, 0, 76, 66
2, 173856, Note_on_c, 0, 80, 66
2, 173952, Note_on_c, 0, 80, 0
2, 173952, Note_on_c, 0, 76, 0
2, 173952, Note_on_c, 0, 82, 66
2, 173952, Note_on_c, 0, 76, 66
2, 174048, Note_on_c, 0, 76, 0
2, 174048, Note_on_c, 0, 82, 0
2, 174048, Note_on_c, 0, 64, 66
2, 174048, Note_on_c, 0, 70, 66
2, 174096, Note_on_c, 0, 70, 0
2, 174096, Note_on_c, 0, 64, 0
2, 174096, Note_on_c, 0, 70, 66
2, 174096, Note_on_c, 0, 64, 66
2, 174144, Note_on_c, 0, 64, 0
2, 174144, Note_on_c, 0, 70, 0
2, 174144, Note_on_c, 0, 63, 66
2, 174144, Note_on_c, 0, 60, 66
2, 174192, Note_on_c, 0, 60, 0
2, 174192, Note_on_c, 0, 63, 0
2, 174192, Note_on_c, 0, 64, 66
2, 174192, Note_on_c, 0, 61, 66
2, 174240, Note_on_c, 0, 61, 0
2, 174240, Note_on_c, 0, 64, 0
2, 174240, Note_on_c, 0, 73, 66
2, 174240, Note_on_c, 0, 67, 66
2, 174288, Note_on_c, 0, 67, 0
2, 174288, Note_on_c, 0, 73, 0
2, 174288, Note_on_c, 0, 67, 66
2, 174288, Note_on_c, 0, 73, 66
2, 174336, Note_on_c, 0, 73, 0
2, 174336, Note_on_c, 0, 67, 0
2, 174336, Note_on_c, 0, 66, 66
2, 174336, Note_on_c, 0, 63, 66
2, 174384, Note_on_c, 0, 63, 0
2, 174384, Note_on_c, 0, 66, 0
2, 174384, Note_on_c, 0, 64, 66
2, 174384, Note_on_c, 0, 67, 66
2, 174432, Note_on_c, 0, 67, 0
2, 174432, Note_on_c, 0, 64, 0
2, 174432, Note_on_c, 0, 76, 66
2, 174432, Note_on_c, 0, 70, 66
2, 174480, Note_on_c, 0, 70, 0
2, 174480, Note_on_c, 0, 76, 0
2, 174480, Note_on_c, 0, 70, 66
2, 174480, Note_on_c, 0, 76, 66
2, 174528, Note_on_c, 0, 76, 0
2, 174528, Note_on_c, 0, 70, 0
2, 174528, Note_on_c, 0, 69, 66
2, 174528, Note_on_c, 0, 66, 66
2, 174568, Note_on_c, 0, 69, 0
2, 174576, Note_on_c, 0, 66, 0
2, 174576, Note_on_c, 0, 70, 66
2, 174576, Note_on_c, 0, 67, 66
2, 174616, Note_on_c, 0, 70, 0
2, 174624, Note_on_c, 0, 67, 0
2, 174624, Note_on_c, 0, 79, 66
2, 174624, Note_on_c, 0, 73, 66
2, 174672, Note_on_c, 0, 73, 0
2, 174672, Note_on_c, 0, 79, 0
2, 174672, Note_on_c, 0, 73, 66
2, 174672, Note_on_c, 0, 79, 66
2, 174720, Note_on_c, 0, 79, 0
2, 174720, Note_on_c, 0, 73, 0
2, 174720, Note_on_c, 0, 72, 66
2, 174720, Note_on_c, 0, 69, 66
2, 174768, Note_on_c, 0, 69, 0
2, 174768, Note_on_c, 0, 72, 0
2, 174768, Note_on_c, 0, 70, 66
2, 174768, Note_on_c, 0, 73, 66
2, 174816, Note_on_c, 0, 73, 0
2, 174816, Note_on_c, 0, 70, 0
2, 174816, Note_on_c, 0, 76, 66
2, 174816, Note_on_c, 0, 82, 66
2, 174864, Note_on_c, 0, 82, 0
2, 174864, Note_on_c, 0, 76, 0
2, 174864, Note_on_c, 0, 76, 66
2, 174864, Note_on_c, 0, 82, 66
2, 174912, Note_on_c, 0, 82, 0
2, 174912, Note_on_c, 0, 76, 0
2, 174912, Note_on_c, 0, 75, 66
2, 174912, Note_on_c, 0, 72, 66
2, 174960, Note_on_c, 0, 72, 0
2, 174960, Note_on_c, 0, 75, 0
2, 174960, Note_on_c, 0, 73, 66
2, 174960, Note_on_c, 0, 76, 66
2, 175008, Note_on_c, 0, 76, 0
2, 175008, Note_on_c, 0, 73, 0
2, 175008, Note_on_c, 0, 85, 66
2, 175008, Note_on_c, 0, 82, 66
2, 175056, Note_on_c, 0, 82, 0
2, 175056, Note_on_c, 0, 85, 0
2, 175056, Note_on_c, 0, 85, 66
2, 175056, Note_on_c, 0, 82, 66
2, 175104, Note_on_c, 0, 82, 0
2, 175104, Note_on_c, 0, 85, 0
2, 175200, Note_on_c, 0, 70, 66
2, 175200, Note_on_c, 0, 73, 66
2, 175248, Note_on_c, 0, 73, 0
2, 175248, Note_on_c, 0, 70, 0
2, 175248, Note_on_c, 0, 73, 66
2, 175248, Note_on_c, 0, 70, 66
2, 175296, Note_on_c, 0, 70, 0
2, 175296, Note_on_c, 0, 73, 0
2, 175296, Note_on_c, 0, 85, 66
2, 175296, Note_on_c, 0, 82, 66
2, 175392, Note_on_c, 0, 82, 0
2, 175392, Note_on_c, 0, 85, 0
2, 175392, Note_on_c, 0, 87, 66
2, 175392, Note_on_c, 0, 82, 66
2, 175488, Note_on_c, 0, 82, 0
2, 175488, Note_on_c, 0, 87, 0
2, 175488, Note_on_c, 0, 88, 66
2, 175488, Note_on_c, 0, 82, 66
2, 175584, Note_on_c, 0, 82, 0
2, 175584, Note_on_c, 0, 88, 0
2, 175584, Note_on_c, 0, 70, 66
2, 175584, Note_on_c, 0, 76, 66
2, 175632, Note_on_c, 0, 76, 0
2, 175632, Note_on_c, 0, 70, 0
2, 175632, Note_on_c, 0, 76, 66
2, 175632, Note_on_c, 0, 70, 66
2, 175680, Note_on_c, 0, 70, 0
2, 175680, Note_on_c, 0, 76, 0
2, 175680, Note_on_c, 0, 70, 66
2, 175720, Note_on_c, 0, 70, 0
2, 175728, Note_on_c, 0, 71, 66
2, 175776, Note_on_c, 0, 73, 66
2, 175776, Note_on_c, 0, 79, 66
2, 175824, Note_on_c, 0, 79, 0
2, 175824, Note_on_c, 0, 73, 0
2, 175824, Note_on_c, 0, 73, 66
2, 175824, Note_on_c, 0, 79, 66
2, 175853, Note_on_c, 0, 71, 0
2, 175872, Note_on_c, 0, 79, 0
2, 175872, Note_on_c, 0, 73, 0
2, 175872, Note_on_c, 0, 69, 66
2, 175872, Note_on_c, 0, 72, 66
2, 175920, Note_on_c, 0, 72, 0
2, 175920, Note_on_c, 0, 69, 0
2, 175920, Note_on_c, 0, 73, 66
2, 175920, Note_on_c, 0, 70, 66
2, 175968, Note_on_c, 0, 70, 0
2, 175968, Note_on_c, 0, 73, 0
2, 175968, Note_on_c, 0, 80, 66
2, 175968, Note_on_c, 0, 76, 66
2, 176016, Note_on_c, 0, 76, 0
2, 176016, Note_on_c, 0, 80, 0
2, 176016, Note_on_c, 0, 76, 66
2, 176016, Note_on_c, 0, 80, 66
2, 176064, Note_on_c, 0, 80, 0
2, 176064, Note_on_c, 0, 76, 0
2, 176064, Note_on_c, 0, 72, 66
2, 176064, Note_on_c, 0, 75, 66
2, 176112, Note_on_c, 0, 75, 0
2, 176112, Note_on_c, 0, 72, 0
2, 176112, Note_on_c, 0, 73, 66
2, 176112, Note_on_c, 0, 76, 66
2, 176160, Note_on_c, 0, 76, 0
2, 176160, Note_on_c, 0, 73, 0
2, 176160, Note_on_c, 0, 85, 66
2, 176160, Note_on_c, 0, 79, 66
2, 176208, Note_on_c, 0, 79, 0
2, 176208, Note_on_c, 0, 85, 0
2, 176208, Note_on_c, 0, 85, 66
2, 176208, Note_on_c, 0, 79, 66
2, 176256, Note_on_c, 0, 79, 0
2, 176256, Note_on_c, 0, 85, 0
2, 176256, Note_on_c, 0, 75, 66
2, 176256, Note_on_c, 0, 78, 66
2, 176304, Note_on_c, 0, 78, 0
2, 176304, Note_on_c, 0, 75, 0
2, 176304, Note_on_c, 0, 79, 66
2, 176304, Note_on_c, 0, 76, 66
2, 176352, Note_on_c, 0, 76, 0
2, 176352, Note_on_c, 0, 79, 0
2, 176352, Note_on_c, 0, 88, 66
2, 176352, Note_on_c, 0, 82, 66
2, 176400, Note_on_c, 0, 82, 0
2, 176400, Note_on_c, 0, 88, 0
2, 176400, Note_on_c, 0, 82, 66
2, 176400, Note_on_c, 0, 88, 66
2, 176448, Note_on_c, 0, 88, 0
2, 176448, Note_on_c, 0, 82, 0
2, 176448, Note_on_c, 0, 81, 66
2, 176448, Note_on_c, 0, 78, 66
2, 176496, Note_on_c, 0, 78, 0
2, 176496, Note_on_c, 0, 81, 0
2, 176496, Note_on_c, 0, 79, 66
2, 176496, Note_on_c, 0, 82, 66
2, 176544, Note_on_c, 0, 82, 0
2, 176544, Note_on_c, 0, 79, 0
2, 176544, Note_on_c, 0, 88, 66
2, 176544, Note_on_c, 0, 82, 66
2, 176592, Note_on_c, 0, 82, 0
2, 176592, Note_on_c, 0, 88, 0
2, 176592, Note_on_c, 0, 82, 66
2, 176592, Note_on_c, 0, 88, 66
2, 176640, Note_on_c, 0, 88, 0
2, 176640, Note_on_c, 0, 82, 0
2, 176736, Note_on_c, 0, 67, 66
2, 176736, Note_on_c, 0, 70, 66
2, 176776, Note_on_c, 0, 70, 0
2, 176784, Note_on_c, 0, 67, 0
2, 176784, Note_on_c, 0, 70, 66
2, 176784, Note_on_c, 0, 67, 66
2, 176824, Note_on_c, 0, 70, 0
2, 176832, Note_on_c, 0, 67, 0
2, 176832, Note_on_c, 0, 79, 66
2, 176832, Note_on_c, 0, 82, 66
2, 176914, Note_on_c, 0, 82, 0
2, 176928, Note_on_c, 0, 79, 0
2, 176928, Note_on_c, 0, 79, 66
2, 176928, Note_on_c, 0, 83, 66
2, 177010, Note_on_c, 0, 83, 0
2, 177024, Note_on_c, 0, 79, 0
2, 177024, Note_on_c, 0, 85, 66
2, 177024, Note_on_c, 0, 79, 66
2, 177120, Note_on_c, 0, 79, 0
2, 177120, Note_on_c, 0, 67, 66
2, 177120, Note_on_c, 0, 73, 66
2, 177168, Note_on_c, 0, 73, 0
2, 177168, Note_on_c, 0, 67, 0
2, 177168, Note_on_c, 0, 67, 66
2, 177168, Note_on_c, 0, 73, 66
2, 177190, Note_on_c, 0, 85, 0
2, 177216, Note_on_c, 0, 73, 0
2, 177216, Note_on_c, 0, 67, 0
2, 177216, Note_on_c, 0, 66, 66
2, 177216, Note_on_c, 0, 63, 66
2, 177264, Note_on_c, 0, 63, 0
2, 177264, Note_on_c, 0, 66, 0
2, 177264, Note_on_c, 0, 67, 66
2, 177264, Note_on_c, 0, 64, 66
2, 177312, Note_on_c, 0, 64, 0
2, 177312, Note_on_c, 0, 67, 0
2, 177504, Note_on_c, 0, 67, 66
2, 177504, Note_on_c, 0, 70, 66
2, 177552, Note_on_c, 0, 70, 0
2, 177552, Note_on_c, 0, 67, 0
2, 177552, Note_on_c, 0, 70, 66
2, 177552, Note_on_c, 0, 67, 66
2, 177600, Note_on_c, 0, 67, 0
2, 177600, Note_on_c, 0, 70, 0
2, 177600, Note_on_c, 0, 79, 66
2, 177600, Note_on_c, 0, 82, 66
2, 177682, Note_on_c, 0, 82, 0
2, 177696, Note_on_c, 0, 79, 0
2, 177696, Note_on_c, 0, 79, 66
2, 177696, Note_on_c, 0, 83, 66
2, 177778, Note_on_c, 0, 83, 0
2, 177792, Note_on_c, 0, 79, 0
2, 177792, Note_on_c, 0, 85, 66
2, 177792, Note_on_c, 0, 79, 66
2, 177888, Note_on_c, 0, 79, 0
2, 177888, Note_on_c, 0, 67, 66
2, 177888, Note_on_c, 0, 73, 66
2, 177936, Note_on_c, 0, 73, 0
2, 177936, Note_on_c, 0, 67, 0
2, 177936, Note_on_c, 0, 73, 66
2, 177936, Note_on_c, 0, 67, 66
2, 177958, Note_on_c, 0, 85, 0
2, 177984, Note_on_c, 0, 67, 0
2, 177984, Note_on_c, 0, 73, 0
2, 177984, Note_on_c, 0, 66, 66
2, 177984, Note_on_c, 0, 63, 66
2, 178032, Note_on_c, 0, 63, 0
2, 178032, Note_on_c, 0, 66, 0
2, 178032, Note_on_c, 0, 64, 66
2, 178032, Note_on_c, 0, 67, 66
2, 178080, Note_on_c, 0, 67, 0
2, 178080, Note_on_c, 0, 64, 0
2, 178272, Note_on_c, 0, 71, 66
2, 178272, Note_on_c, 0, 68, 66
2, 178312, Note_on_c, 0, 71, 0
2, 178320, Note_on_c, 0, 68, 0
2, 178320, Note_on_c, 0, 71, 66
2, 178320, Note_on_c, 0, 68, 66
2, 178360, Note_on_c, 0, 71, 0
2, 178368, Note_on_c, 0, 68, 0
2, 178368, Note_on_c, 0, 83, 66
2, 178368, Note_on_c, 0, 80, 66
2, 178450, Note_on_c, 0, 83, 0
2, 178464, Note_on_c, 0, 80, 0
2, 178464, Note_on_c, 0, 80, 66
2, 178464, Note_on_c, 0, 85, 66
2, 178546, Note_on_c, 0, 85, 0
2, 178560, Note_on_c, 0, 80, 0
2, 178560, Note_on_c, 0, 80, 66
2, 178560, Note_on_c, 0, 86, 66
2, 178656, Note_on_c, 0, 80, 0
2, 178656, Note_on_c, 0, 68, 66
2, 178656, Note_on_c, 0, 74, 66
2, 178704, Note_on_c, 0, 74, 0
2, 178704, Note_on_c, 0, 68, 0
2, 178704, Note_on_c, 0, 68, 66
2, 178704, Note_on_c, 0, 74, 66
2, 178726, Note_on_c, 0, 86, 0
2, 178752, Note_on_c, 0, 74, 0
2, 178752, Note_on_c, 0, 68, 0
2, 178752, Note_on_c, 0, 64, 66
2, 178752, Note_on_c, 0, 67, 66
2, 178800, Note_on_c, 0, 67, 0
2, 178800, Note_on_c, 0, 64, 0
2, 178800, Note_on_c, 0, 65, 66
2, 178800, Note_on_c, 0, 68, 66
2, 178848, Note_on_c, 0, 68, 0
2, 178848, Note_on_c, 0, 65, 0
2, 179040, Note_on_c, 0, 69, 66
2, 179040, Note_on_c, 0, 72, 66
2, 179080, Note_on_c, 0, 72, 0
2, 179088, Note_on_c, 0, 69, 0
2, 179088, Note_on_c, 0, 72, 66
2, 179088, Note_on_c, 0, 69, 66
2, 179128, Note_on_c, 0, 72, 0
2, 179136, Note_on_c, 0, 69, 0
2, 179136, Note_on_c, 0, 81, 66
2, 179136, Note_on_c, 0, 84, 66
2, 179218, Note_on_c, 0, 84, 0
2, 179232, Note_on_c, 0, 81, 0
2, 179232, Note_on_c, 0, 86, 66
2, 179232, Note_on_c, 0, 81, 66
2, 179314, Note_on_c, 0, 86, 0
2, 179328, Note_on_c, 0, 81, 0
2, 179328, Note_on_c, 0, 81, 66
2, 179328, Note_on_c, 0, 87, 66
2, 179424, Note_on_c, 0, 81, 0
2, 179424, Note_on_c, 0, 69, 66
2, 179424, Note_on_c, 0, 75, 66
2, 179472, Note_on_c, 0, 75, 0
2, 179472, Note_on_c, 0, 69, 0
2, 179472, Note_on_c, 0, 69, 66
2, 179472, Note_on_c, 0, 75, 66
2, 179494, Note_on_c, 0, 87, 0
2, 179520, Note_on_c, 0, 75, 0
2, 179520, Note_on_c, 0, 69, 0
2, 179520, Note_on_c, 0, 68, 66
2, 179520, Note_on_c, 0, 65, 66
2, 179568, Note_on_c, 0, 65, 0
2, 179568, Note_on_c, 0, 68, 0
2, 179568, Note_on_c, 0, 69, 66
2, 179568, Note_on_c, 0, 66, 66
2, 179616, Note_on_c, 0, 66, 0
2, 179616, Note_on_c, 0, 69, 0
2, 179616, Note_on_c, 0, 78, 66
2, 179616, Note_on_c, 0, 72, 66
2, 179664, Note_on_c, 0, 72, 0
2, 179664, Note_on_c, 0, 78, 0
2, 179664, Note_on_c, 0, 78, 66
2, 179664, Note_on_c, 0, 72, 66
2, 179712, Note_on_c, 0, 72, 0
2, 179712, Note_on_c, 0, 78, 0
2, 179712, Note_on_c, 0, 68, 66
2, 179712, Note_on_c, 0, 71, 66
2, 179752, Note_on_c, 0, 71, 0
2, 179752, Note_on_c, 0, 68, 0
2, 179760, Note_on_c, 0, 69, 66
2, 179760, Note_on_c, 0, 72, 66
2, 179808, Note_on_c, 0, 72, 0
2, 179808, Note_on_c, 0, 69, 0
2, 179808, Note_on_c, 0, 81, 66
2, 179808, Note_on_c, 0, 75, 66
2, 179856, Note_on_c, 0, 75, 0
2, 179856, Note_on_c, 0, 81, 0
2, 179856, Note_on_c, 0, 75, 66
2, 179904, Note_on_c, 0, 75, 0
2, 179904, Note_on_c, 0, 74, 66
2, 179904, Note_on_c, 0, 71, 66
2, 179944, Note_on_c, 0, 74, 0
2, 179952, Note_on_c, 0, 71, 0
2, 179952, Note_on_c, 0, 72, 66
2, 179952, Note_on_c, 0, 75, 66
2, 179992, Note_on_c, 0, 75, 0
2, 180000, Note_on_c, 0, 72, 0
2, 180000, Note_on_c, 0, 78, 66
2, 180000, Note_on_c, 0, 84, 66
2, 180048, Note_on_c, 0, 84, 0
2, 180048, Note_on_c, 0, 78, 0
2, 180048, Note_on_c, 0, 78, 66
2, 180048, Note_on_c, 0, 84, 66
2, 180096, Note_on_c, 0, 84, 0
2, 180096, Note_on_c, 0, 78, 0
2, 180096, Note_on_c, 0, 74, 66
2, 180096, Note_on_c, 0, 77, 66
2, 180136, Note_on_c, 0, 77, 0
2, 180144, Note_on_c, 0, 74, 0
2, 180144, Note_on_c, 0, 78, 66
2, 180144, Note_on_c, 0, 76, 66
2, 180184, Note_on_c, 0, 78, 0
2, 180192, Note_on_c, 0, 76, 0
2, 180192, Note_on_c, 0, 87, 66
2, 180192, Note_on_c, 0, 81, 66
2, 180240, Note_on_c, 0, 81, 0
2, 180240, Note_on_c, 0, 87, 0
2, 180240, Note_on_c, 0, 81, 66
2, 180240, Note_on_c, 0, 87, 66
2, 180288, Note_on_c, 0, 87, 0
2, 180288, Note_on_c, 0, 81, 0
2, 180288, Note_on_c, 0, 81, 66
2, 180288, Note_on_c, 0, 80, 66
2, 180328, Note_on_c, 0, 80, 0
2, 180336, Note_on_c, 0, 81, 0
2, 180336, Note_on_c, 0, 83, 66
2, 180336, Note_on_c, 0, 81, 66
2, 180376, Note_on_c, 0, 81, 0
2, 180384, Note_on_c, 0, 83, 0
2, 180384, Note_on_c, 0, 91, 66
2, 180384, Note_on_c, 0, 84, 66
2, 180430, Note_on_c, 0, 84, 0
2, 180432, Note_on_c, 0, 91, 0
2, 180432, Note_on_c, 0, 81, 66
2, 180432, Note_on_c, 0, 90, 66
2, 180480, Note_on_c, 0, 90, 0
2, 180480, Note_on_c, 0, 81, 0
2, 180480, Note_on_c, 0, 89, 66
2, 180480, Note_on_c, 0, 80, 66
2, 180528, Note_on_c, 0, 80, 0
2, 180528, Note_on_c, 0, 89, 0
2, 180528, Note_on_c, 0, 81, 66
2, 180528, Note_on_c, 0, 90, 66
2, 180576, Note_on_c, 0, 90, 0
2, 180576, Note_on_c, 0, 81, 0
2, 180576, Note_on_c, 0, 81, 66
2, 180576, Note_on_c, 0, 90, 66
2, 180624, Note_on_c, 0, 90, 0
2, 180624, Note_on_c, 0, 81, 0
2, 180624, Note_on_c, 0, 90, 66
2, 180624, Note_on_c, 0, 81, 66
2, 180672, Note_on_c, 0, 81, 0
2, 180672, Note_on_c, 0, 90, 0
2, 180672, Note_on_c, 0, 80, 66
2, 180672, Note_on_c, 0, 89, 66
2, 180720, Note_on_c, 0, 89, 0
2, 180720, Note_on_c, 0, 80, 0
2, 180720, Note_on_c, 0, 90, 66
2, 180720, Note_on_c, 0, 81, 66
2, 180768, Note_on_c, 0, 81, 0
2, 180768, Note_on_c, 0, 90, 0
2, 180768, Note_on_c, 0, 90, 66
2, 180768, Note_on_c, 0, 81, 66
2, 180816, Note_on_c, 0, 81, 0
2, 180816, Note_on_c, 0, 90, 0
2, 180816, Note_on_c, 0, 81, 66
2, 180816, Note_on_c, 0, 90, 66
2, 180864, Note_on_c, 0, 90, 0
2, 180864, Note_on_c, 0, 81, 0
2, 180864, Note_on_c, 0, 80, 66
2, 180864, Note_on_c, 0, 89, 66
2, 180912, Note_on_c, 0, 89, 0
2, 180912, Note_on_c, 0, 80, 0
2, 180912, Note_on_c, 0, 81, 66
2, 180912, Note_on_c, 0, 90, 66
2, 180960, Note_on_c, 0, 90, 0
2, 180960, Note_on_c, 0, 81, 0
2, 180960, Note_on_c, 0, 90, 66
2, 180960, Note_on_c, 0, 81, 66
2, 181008, Note_on_c, 0, 81, 0
2, 181008, Note_on_c, 0, 90, 0
2, 181008, Note_on_c, 0, 81, 66
2, 181008, Note_on_c, 0, 90, 66
2, 181056, Note_on_c, 0, 90, 0
2, 181056, Note_on_c, 0, 81, 0
2, 181056, Note_on_c, 0, 80, 66
2, 181056, Note_on_c, 0, 89, 66
2, 181104, Note_on_c, 0, 89, 0
2, 181104, Note_on_c, 0, 80, 0
2, 181104, Note_on_c, 0, 81, 66
2, 181104, Note_on_c, 0, 90, 66
2, 181152, Note_on_c, 0, 90, 0
2, 181152, Note_on_c, 0, 81, 0
2, 181152, Note_on_c, 0, 90, 66
2, 181152, Note_on_c, 0, 81, 66
2, 181200, Note_on_c, 0, 81, 0
2, 181200, Note_on_c, 0, 90, 0
2, 181200, Note_on_c, 0, 81, 66
2, 181200, Note_on_c, 0, 90, 66
2, 181248, Note_on_c, 0, 90, 0
2, 181248, Note_on_c, 0, 81, 0
2, 181248, Note_on_c, 0, 86, 66
2, 181248, Note_on_c, 0, 77, 66
2, 181296, Note_on_c, 0, 77, 0
2, 181296, Note_on_c, 0, 86, 0
2, 181296, Note_on_c, 0, 87, 66
2, 181296, Note_on_c, 0, 78, 66
2, 181344, Note_on_c, 0, 78, 0
2, 181344, Note_on_c, 0, 87, 0
2, 181344, Note_on_c, 0, 78, 66
2, 181344, Note_on_c, 0, 87, 66
2, 181392, Note_on_c, 0, 87, 0
2, 181392, Note_on_c, 0, 78, 0
2, 181392, Note_on_c, 0, 87, 66
2, 181392, Note_on_c, 0, 78, 66
2, 181440, Note_on_c, 0, 78, 0
2, 181440, Note_on_c, 0, 87, 0
2, 181440, Note_on_c, 0, 81, 66
2, 181440, Note_on_c, 0, 77, 66
2, 181488, Note_on_c, 0, 77, 0
2, 181488, Note_on_c, 0, 81, 0
2, 181488, Note_on_c, 0, 82, 66
2, 181488, Note_on_c, 0, 78, 66
2, 181488, Note_on_c, 0, 82, 66
2, 181536, Note_on_c, 0, 82, 0
2, 181536, Note_on_c, 0, 78, 0
2, 181536, Note_on_c, 0, 82, 0
2, 181536, Note_on_c, 0, 78, 66
2, 181536, Note_on_c, 0, 82, 66
2, 181584, Note_on_c, 0, 82, 0
2, 181584, Note_on_c, 0, 78, 0
2, 181584, Note_on_c, 0, 82, 66
2, 181584, Note_on_c, 0, 78, 66
2, 181632, Note_on_c, 0, 78, 0
2, 181632, Note_on_c, 0, 82, 0
2, 181632, Note_on_c, 0, 74, 66
2, 181632, Note_on_c, 0, 77, 66
2, 181680, Note_on_c, 0, 77, 0
2, 181680, Note_on_c, 0, 74, 0
2, 181680, Note_on_c, 0, 75, 66
2, 181680, Note_on_c, 0, 78, 66
2, 181680, Note_on_c, 0, 78, 66
2, 181728, Note_on_c, 0, 78, 0
2, 181728, Note_on_c, 0, 78, 0
2, 181728, Note_on_c, 0, 75, 0
2, 181728, Note_on_c, 0, 75, 66
2, 181728, Note_on_c, 0, 78, 66
2, 181776, Note_on_c, 0, 78, 0
2, 181776, Note_on_c, 0, 75, 0
2, 181776, Note_on_c, 0, 75, 66
2, 181776, Note_on_c, 0, 78, 66
2, 181824, Note_on_c, 0, 78, 0
2, 181824, Note_on_c, 0, 75, 0
2, 181824, Note_on_c, 0, 65, 66
2, 181824, Note_on_c, 0, 74, 66
2, 181872, Note_on_c, 0, 74, 0
2, 181872, Note_on_c, 0, 65, 0
2, 181872, Note_on_c, 0, 66, 66
2, 181872, Note_on_c, 0, 75, 66
2, 181920, Note_on_c, 0, 75, 0
2, 181920, Note_on_c, 0, 66, 0
2, 181920, Note_on_c, 0, 75, 66
2, 181920, Note_on_c, 0, 66, 66
2, 181968, Note_on_c, 0, 66, 0
2, 181968, Note_on_c, 0, 75, 0
2, 181968, Note_on_c, 0, 75, 66
2, 181968, Note_on_c, 0, 66, 66
2, 182016, Note_on_c, 0, 66, 0
2, 182016, Note_on_c, 0, 75, 0
2, 182016, Note_on_c, 0, 62, 66
2, 182016, Note_on_c, 0, 70, 66
2, 182064, Note_on_c, 0, 70, 0
2, 182064, Note_on_c, 0, 62, 0
2, 182064, Note_on_c, 0, 71, 66
2, 182064, Note_on_c, 0, 63, 66
2, 182112, Note_on_c, 0, 63, 0
2, 182112, Note_on_c, 0, 71, 0
2, 182112, Note_on_c, 0, 71, 66
2, 182112, Note_on_c, 0, 63, 66
2, 182160, Note_on_c, 0, 63, 0
2, 182160, Note_on_c, 0, 71, 0
2, 182160, Note_on_c, 0, 71, 66
2, 182160, Note_on_c, 0, 63, 66
2, 182208, Note_on_c, 0, 63, 0
2, 182208, Note_on_c, 0, 71, 0
2, 182208, Note_on_c, 0, 65, 66
2, 182208, Note_on_c, 0, 62, 66
2, 182256, Note_on_c, 0, 62, 0
2, 182256, Note_on_c, 0, 65, 0
2, 182256, Note_on_c, 0, 64, 66
2, 182256, Note_on_c, 0, 66, 66
2, 182304, Note_on_c, 0, 66, 0
2, 182304, Note_on_c, 0, 64, 0
2, 182304, Note_on_c, 0, 58, 66
2, 182304, Note_on_c, 0, 62, 66
2, 182352, Note_on_c, 0, 62, 0
2, 182352, Note_on_c, 0, 58, 0
2, 182352, Note_on_c, 0, 61, 66
2, 182352, Note_on_c, 0, 59, 66
2, 182400, Note_on_c, 0, 59, 0
2, 182400, Note_on_c, 0, 61, 0
2, 182400, Note_on_c, 0, 58, 66
2, 182448, Note_on_c, 0, 58, 0
2, 182448, Note_on_c, 0, 59, 66
2, 182496, Note_on_c, 0, 59, 0
2, 182688, Note_on_c, 0, 75, 66
2, 182748, Note_on_c, 0, 75, 0
2, 182784, Note_on_c, 0, 83, 66
2, 183024, Note_on_c, 0, 83, 0
2, 183024, Note_on_c, 0, 82, 66
2, 183072, Note_on_c, 0, 82, 0
2, 183072, Note_on_c, 0, 80, 66
2, 183120, Note_on_c, 0, 80, 0
2, 183120, Note_on_c, 0, 82, 66
2, 183168, Note_on_c, 0, 82, 0
2, 183168, Note_on_c, 0, 80, 66
2, 183216, Note_on_c, 0, 80, 0
2, 183216, Note_on_c, 0, 78, 66
2, 183264, Note_on_c, 0, 78, 0
2, 183264, Note_on_c, 0, 77, 66
2, 183312, Note_on_c, 0, 77, 0
2, 183312, Note_on_c, 0, 75, 66
2, 183360, Note_on_c, 0, 75, 0
2, 183360, Note_on_c, 0, 74, 66
2, 183408, Note_on_c, 0, 74, 0
2, 183456, Note_on_c, 0, 77, 66
2, 183520, Note_on_c, 0, 77, 0
2, 183552, Note_on_c, 0, 71, 66
2, 183600, Note_on_c, 0, 71, 0
2, 183648, Note_on_c, 0, 75, 66
2, 183712, Note_on_c, 0, 75, 0
2, 183744, Note_on_c, 0, 68, 66
2, 183792, Note_on_c, 0, 68, 0
2, 183840, Note_on_c, 0, 71, 66
2, 183904, Note_on_c, 0, 71, 0
2, 183936, Note_on_c, 0, 65, 66
2, 183984, Note_on_c, 0, 65, 0
2, 184032, Note_on_c, 0, 68, 66
2, 184096, Note_on_c, 0, 68, 0
2, 184128, Note_on_c, 0, 58, 66
2, 184176, Note_on_c, 0, 58, 0
2, 184176, Note_on_c, 0, 70, 66
2, 184176, Note_on_c, 0, 58, 66
2, 184216, Note_on_c, 0, 70, 0
2, 184224, Note_on_c, 0, 58, 0
2, 184224, Note_on_c, 0, 60, 66
2, 184224, Note_on_c, 0, 72, 66
2, 184264, Note_on_c, 0, 72, 0
2, 184272, Note_on_c, 0, 60, 0
2, 184272, Note_on_c, 0, 74, 66
2, 184272, Note_on_c, 0, 62, 66
2, 184312, Note_on_c, 0, 74, 0
2, 184320, Note_on_c, 0, 62, 0
2, 184320, Note_on_c, 0, 63, 66
2, 184320, Note_on_c, 0, 75, 66
2, 184560, Note_on_c, 0, 75, 0
2, 184560, Note_on_c, 0, 63, 0
2, 184560, Note_on_c, 0, 62, 66
2, 184560, Note_on_c, 0, 74, 66
2, 184600, Note_on_c, 0, 74, 0
2, 184608, Note_on_c, 0, 62, 0
2, 184608, Note_on_c, 0, 75, 66
2, 184608, Note_on_c, 0, 63, 66
2, 184648, Note_on_c, 0, 75, 0
2, 184656, Note_on_c, 0, 63, 0
2, 184656, Note_on_c, 0, 77, 66
2, 184656, Note_on_c, 0, 65, 66
2, 184696, Note_on_c, 0, 77, 0
2, 184704, Note_on_c, 0, 65, 0
2, 184704, Note_on_c, 0, 68, 66
2, 184704, Note_on_c, 0, 80, 66
2, 184752, Note_on_c, 0, 80, 0
2, 184752, Note_on_c, 0, 68, 0
2, 184752, Note_on_c, 0, 66, 66
2, 184752, Note_on_c, 0, 78, 66
2, 184800, Note_on_c, 0, 78, 0
2, 184800, Note_on_c, 0, 66, 0
2, 184896, Note_on_c, 0, 70, 66
2, 184896, Note_on_c, 0, 75, 66
2, 184896, Note_on_c, 0, 67, 66
2, 184936, Note_on_c, 0, 67, 0
2, 184936, Note_on_c, 0, 75, 0
2, 184936, Note_on_c, 0, 70, 0
2, 184944, Note_on_c, 0, 75, 66
2, 184944, Note_on_c, 0, 63, 66
2, 184984, Note_on_c, 0, 75, 0
2, 184992, Note_on_c, 0, 63, 0
2, 184992, Note_on_c, 0, 77, 66
2, 184992, Note_on_c, 0, 65, 66
2, 185032, Note_on_c, 0, 77, 0
2, 185040, Note_on_c, 0, 65, 0
2, 185040, Note_on_c, 0, 79, 66
2, 185040, Note_on_c, 0, 67, 66
2, 185080, Note_on_c, 0, 79, 0
2, 185088, Note_on_c, 0, 67, 0
2, 185088, Note_on_c, 0, 68, 66
2, 185088, Note_on_c, 0, 80, 66
2, 185328, Note_on_c, 0, 80, 0
2, 185328, Note_on_c, 0, 68, 0
2, 185328, Note_on_c, 0, 67, 66
2, 185328, Note_on_c, 0, 79, 66
2, 185368, Note_on_c, 0, 79, 0
2, 185376, Note_on_c, 0, 67, 0
2, 185376, Note_on_c, 0, 68, 66
2, 185376, Note_on_c, 0, 80, 66
2, 185416, Note_on_c, 0, 80, 0
2, 185424, Note_on_c, 0, 68, 0
2, 185424, Note_on_c, 0, 82, 66
2, 185424, Note_on_c, 0, 70, 66
2, 185464, Note_on_c, 0, 82, 0
2, 185472, Note_on_c, 0, 70, 0
2, 185472, Note_on_c, 0, 85, 66
2, 185472, Note_on_c, 0, 73, 66
2, 185512, Note_on_c, 0, 85, 0
2, 185520, Note_on_c, 0, 73, 0
2, 185520, Note_on_c, 0, 71, 66
2, 185520, Note_on_c, 0, 83, 66
2, 185560, Note_on_c, 0, 83, 0
2, 185568, Note_on_c, 0, 71, 0
2, 185712, Note_on_c, 0, 82, 66
2, 185712, Note_on_c, 0, 70, 66
2, 185752, Note_on_c, 0, 82, 0
2, 185760, Note_on_c, 0, 70, 0
2, 185760, Note_on_c, 0, 83, 66
2, 185760, Note_on_c, 0, 71, 66
2, 185800, Note_on_c, 0, 83, 0
2, 185808, Note_on_c, 0, 71, 0
2, 185808, Note_on_c, 0, 74, 66
2, 185808, Note_on_c, 0, 86, 66
2, 185848, Note_on_c, 0, 86, 0
2, 185856, Note_on_c, 0, 74, 0
2, 185856, Note_on_c, 0, 77, 66
2, 185856, Note_on_c, 0, 89, 66
2, 185896, Note_on_c, 0, 77, 0
2, 185904, Note_on_c, 0, 89, 0
2, 185904, Note_on_c, 0, 75, 66
2, 185904, Note_on_c, 0, 87, 66
2, 185944, Note_on_c, 0, 75, 0
2, 185952, Note_on_c, 0, 87, 0
2, 186096, Note_on_c, 0, 74, 66
2, 186096, Note_on_c, 0, 86, 66
2, 186136, Note_on_c, 0, 74, 0
2, 186144, Note_on_c, 0, 86, 0
2, 186144, Note_on_c, 0, 87, 66
2, 186144, Note_on_c, 0, 75, 66
2, 186184, Note_on_c, 0, 75, 0
2, 186192, Note_on_c, 0, 87, 0
2, 186192, Note_on_c, 0, 77, 66
2, 186192, Note_on_c, 0, 89, 66
2, 186232, Note_on_c, 0, 77, 0
2, 186240, Note_on_c, 0, 89, 0
2, 186240, Note_on_c, 0, 92, 66
2, 186240, Note_on_c, 0, 80, 66
2, 186280, Note_on_c, 0, 80, 0
2, 186288, Note_on_c, 0, 92, 0
2, 186288, Note_on_c, 0, 90, 66
2, 186288, Note_on_c, 0, 78, 66
2, 186328, Note_on_c, 0, 78, 0
2, 186336, Note_on_c, 0, 90, 0
2, 186336, Note_on_c, 0, 78, 66
2, 186336, Note_on_c, 0, 90, 66
2, 186376, Note_on_c, 0, 78, 0
2, 186384, Note_on_c, 0, 90, 0
2, 186384, Note_on_c, 0, 90, 66
2, 186384, Note_on_c, 0, 78, 66
2, 186424, Note_on_c, 0, 78, 0
2, 186432, Note_on_c, 0, 90, 0
2, 186432, Note_on_c, 0, 78, 66
2, 186432, Note_on_c, 0, 90, 66
2, 186472, Note_on_c, 0, 78, 0
2, 186480, Note_on_c, 0, 90, 0
2, 186480, Note_on_c, 0, 90, 66
2, 186480, Note_on_c, 0, 78, 66
2, 186520, Note_on_c, 0, 78, 0
2, 186528, Note_on_c, 0, 90, 0
2, 186528, Note_on_c, 0, 78, 66
2, 186528, Note_on_c, 0, 90, 66
2, 186568, Note_on_c, 0, 78, 0
2, 186576, Note_on_c, 0, 90, 0
2, 186576, Note_on_c, 0, 90, 66
2, 186576, Note_on_c, 0, 78, 66
2, 186616, Note_on_c, 0, 78, 0
2, 186624, Note_on_c, 0, 90, 0
2, 198720, Note_on_c, 0, 75, 66
2, 198720, Note_on_c, 0, 63, 66
2, 198912, Note_on_c, 0, 63, 0
2, 198912, Note_on_c, 0, 75, 0
2, 198912, Note_on_c, 0, 70, 66
2, 198912, Note_on_c, 0, 82, 66
2, 199200, Note_on_c, 0, 82, 0
2, 199200, Note_on_c, 0, 70, 0
2, 199200, Note_on_c, 0, 82, 66
2, 199200, Note_on_c, 0, 70, 66
2, 199294, Note_on_c, 0, 70, 0
2, 199294, Note_on_c, 0, 82, 0
2, 199296, Note_on_c, 0, 82, 66
2, 199296, Note_on_c, 0, 70, 66
2, 199392, Note_on_c, 0, 70, 0
2, 199392, Note_on_c, 0, 82, 0
2, 199392, Note_on_c, 0, 80, 66
2, 199392, Note_on_c, 0, 68, 66
2, 199488, Note_on_c, 0, 68, 0
2, 199488, Note_on_c, 0, 80, 0
2, 199488, Note_on_c, 0, 67, 66
2, 199488, Note_on_c, 0, 79, 66
2, 199584, Note_on_c, 0, 79, 0
2, 199584, Note_on_c, 0, 67, 0
2, 199584, Note_on_c, 0, 65, 66
2, 199584, Note_on_c, 0, 77, 66
2, 199680, Note_on_c, 0, 77, 0
2, 199680, Note_on_c, 0, 65, 0
2, 199680, Note_on_c, 0, 70, 66
2, 199680, Note_on_c, 0, 82, 66
2, 199872, Note_on_c, 0, 82, 0
2, 199872, Note_on_c, 0, 70, 0
2, 199872, Note_on_c, 0, 82, 66
2, 199872, Note_on_c, 0, 70, 66
2, 200256, Note_on_c, 0, 70, 0
2, 200256, Note_on_c, 0, 82, 0
2, 200256, Note_on_c, 0, 65, 66
2, 200256, Note_on_c, 0, 77, 66
2, 200448, Note_on_c, 0, 77, 0
2, 200448, Note_on_c, 0, 65, 0
2, 200448, Note_on_c, 0, 70, 66
2, 200448, Note_on_c, 0, 82, 66
2, 200736, Note_on_c, 0, 82, 0
2, 200736, Note_on_c, 0, 70, 0
2, 200736, Note_on_c, 0, 70, 66
2, 200736, Note_on_c, 0, 82, 66
2, 200830, Note_on_c, 0, 82, 0
2, 200830, Note_on_c, 0, 70, 0
2, 200832, Note_on_c, 0, 70, 66
2, 200832, Note_on_c, 0, 82, 66
2, 200928, Note_on_c, 0, 82, 0
2, 200928, Note_on_c, 0, 70, 0
2, 200928, Note_on_c, 0, 80, 66
2, 200928, Note_on_c, 0, 68, 66
2, 201024, Note_on_c, 0, 68, 0
2, 201024, Note_on_c, 0, 80, 0
2, 201024, Note_on_c, 0, 67, 66
2, 201024, Note_on_c, 0, 79, 66
2, 201120, Note_on_c, 0, 79, 0
2, 201120, Note_on_c, 0, 67, 0
2, 201120, Note_on_c, 0, 65, 66
2, 201120, Note_on_c, 0, 77, 66
2, 201216, Note_on_c, 0, 77, 0
2, 201216, Note_on_c, 0, 65, 0
2, 201216, Note_on_c, 0, 82, 66
2, 201216, Note_on_c, 0, 70, 66
2, 201696, Note_on_c, 0, 70, 0
2, 201696, Note_on_c, 0, 82, 0
2, 201792, Note_on_c, 0, 58, 66
2, 201792, Note_on_c, 0, 70, 66
2, 201984, Note_on_c, 0, 70, 0
2, 201984, Note_on_c, 0, 58, 0
2, 201984, Note_on_c, 0, 60, 66
2, 201984, Note_on_c, 0, 72, 66
2, 202176, Note_on_c, 0, 72, 0
2, 202176, Note_on_c, 0, 60, 0
2, 202176, Note_on_c, 0, 63, 66
2, 202176, Note_on_c, 0, 75, 66
2, 202368, Note_on_c, 0, 75, 0
2, 202368, Note_on_c, 0, 63, 0
2, 202368, Note_on_c, 0, 77, 66
2, 202368, Note_on_c, 0, 65, 66
2, 202560, Note_on_c, 0, 65, 0
2, 202560, Note_on_c, 0, 77, 0
2, 202560, Note_on_c, 0, 67, 66
2, 202560, Note_on_c, 0, 79, 66
2, 202656, Note_on_c, 0, 79, 0
2, 202656, Note_on_c, 0, 67, 0
2, 202656, Note_on_c, 0, 68, 66
2, 202656, Note_on_c, 0, 80, 66
2, 202752, Note_on_c, 0, 80, 0
2, 202752, Note_on_c, 0, 68, 0
2, 202752, Note_on_c, 0, 82, 66
2, 202752, Note_on_c, 0, 70, 66
2, 203328, Note_on_c, 0, 70, 0
2, 203328, Note_on_c, 0, 82, 0
2, 203328, Note_on_c, 0, 82, 66
2, 203328, Note_on_c, 0, 70, 66
2, 203520, Note_on_c, 0, 70, 0
2, 203520, Note_on_c, 0, 82, 0
2, 203520, Note_on_c, 0, 84, 66
2, 203520, Note_on_c, 0, 72, 66
2, 203712, Note_on_c, 0, 72, 0
2, 203712, Note_on_c, 0, 84, 0
2, 203712, Note_on_c, 0, 75, 66
2, 203712, Note_on_c, 0, 87, 66
2, 203904, Note_on_c, 0, 87, 0
2, 203904, Note_on_c, 0, 75, 0
2, 203904, Note_on_c, 0, 74, 66
2, 203904, Note_on_c, 0, 86, 66
2, 204096, Note_on_c, 0, 86, 0
2, 204096, Note_on_c, 0, 74, 0
2, 204096, Note_on_c, 0, 84, 66
2, 204096, Note_on_c, 0, 72, 66
2, 204192, Note_on_c, 0, 72, 0
2, 204192, Note_on_c, 0, 84, 0
2, 204192, Note_on_c, 0, 82, 66
2, 204192, Note_on_c, 0, 70, 66
2, 204288, Note_on_c, 0, 70, 0
2, 204288, Note_on_c, 0, 82, 0
2, 204288, Note_on_c, 0, 75, 66
2, 204288, Note_on_c, 0, 87, 66
2, 204672, Note_on_c, 0, 87, 0
2, 204672, Note_on_c, 0, 75, 0
2, 204864, Note_on_c, 0, 70, 66
2, 205056, Note_on_c, 0, 70, 0
2, 205056, Note_on_c, 0, 72, 66
2, 205056, Note_on_c, 0, 60, 66
2, 205248, Note_on_c, 0, 60, 0
2, 205248, Note_on_c, 0, 72, 0
2, 205248, Note_on_c, 0, 75, 66
2, 205248, Note_on_c, 0, 63, 66
2, 205440, Note_on_c, 0, 63, 0
2, 205440, Note_on_c, 0, 75, 0
2, 205440, Note_on_c, 0, 65, 66
2, 205440, Note_on_c, 0, 77, 66
2, 205632, Note_on_c, 0, 77, 0
2, 205632, Note_on_c, 0, 65, 0
2, 205632, Note_on_c, 0, 67, 66
2, 205632, Note_on_c, 0, 79, 66
2, 205728, Note_on_c, 0, 79, 0
2, 205728, Note_on_c, 0, 67, 0
2, 205728, Note_on_c, 0, 80, 66
2, 205728, Note_on_c, 0, 68, 66
2, 205824, Note_on_c, 0, 68, 0
2, 205824, Note_on_c, 0, 80, 0
2, 205824, Note_on_c, 0, 82, 66
2, 205824, Note_on_c, 0, 70, 66
2, 206400, Note_on_c, 0, 70, 0
2, 206400, Note_on_c, 0, 82, 0
2, 206400, Note_on_c, 0, 70, 66
2, 206400, Note_on_c, 0, 82, 66
2, 206592, Note_on_c, 0, 82, 0
2, 206592, Note_on_c, 0, 70, 0
2, 206592, Note_on_c, 0, 72, 66
2, 206592, Note_on_c, 0, 84, 66
2, 206784, Note_on_c, 0, 84, 0
2, 206784, Note_on_c, 0, 72, 0
2, 206784, Note_on_c, 0, 75, 66
2, 206784, Note_on_c, 0, 87, 66
2, 206976, Note_on_c, 0, 87, 0
2, 206976, Note_on_c, 0, 75, 0
2, 206976, Note_on_c, 0, 74, 66
2, 206976, Note_on_c, 0, 86, 66
2, 207168, Note_on_c, 0, 86, 0
2, 207168, Note_on_c, 0, 74, 0
2, 207168, Note_on_c, 0, 72, 66
2, 207168, Note_on_c, 0, 84, 66
2, 207264, Note_on_c, 0, 84, 0
2, 207264, Note_on_c, 0, 72, 0
2, 207264, Note_on_c, 0, 82, 66
2, 207264, Note_on_c, 0, 70, 66
2, 207360, Note_on_c, 0, 70, 0
2, 207360, Note_on_c, 0, 82, 0
2, 207360, Note_on_c, 0, 87, 66
2, 207360, Note_on_c, 0, 75, 66
2, 207744, Note_on_c, 0, 75, 0
2, 207744, Note_on_c, 0, 87, 0
2, 207936, Note_on_c, 0, 58, 66
2, 207936, Note_on_c, 0, 70, 66
2, 208128, Note_on_c, 0, 70, 0
2, 208128, Note_on_c, 0, 58, 0
2, 208128, Note_on_c, 0, 60, 66
2, 208128, Note_on_c, 0, 72, 66
2, 208320, Note_on_c, 0, 72, 0
2, 208320, Note_on_c, 0, 60, 0
2, 208320, Note_on_c, 0, 75, 66
2, 208320, Note_on_c, 0, 63, 66
2, 208512, Note_on_c, 0, 63, 0
2, 208512, Note_on_c, 0, 75, 0
2, 208512, Note_on_c, 0, 65, 66
2, 208512, Note_on_c, 0, 77, 66
2, 208704, Note_on_c, 0, 77, 0
2, 208704, Note_on_c, 0, 65, 0
2, 208704, Note_on_c, 0, 78, 66
2, 208704, Note_on_c, 0, 66, 66
2, 208800, Note_on_c, 0, 66, 0
2, 208800, Note_on_c, 0, 78, 0
2, 208800, Note_on_c, 0, 68, 66
2, 208800, Note_on_c, 0, 80, 66
2, 208896, Note_on_c, 0, 80, 0
2, 208896, Note_on_c, 0, 68, 0
2, 208896, Note_on_c, 0, 82, 66
2, 208896, Note_on_c, 0, 70, 66
2, 209280, Note_on_c, 0, 82, 0
2, 209472, Note_on_c, 0, 70, 0
2, 209472, Note_on_c, 0, 70, 66
2, 209472, Note_on_c, 0, 58, 66
2, 209664, Note_on_c, 0, 58, 0
2, 209664, Note_on_c, 0, 70, 0
2, 209664, Note_on_c, 0, 72, 66
2, 209664, Note_on_c, 0, 60, 66
2, 209856, Note_on_c, 0, 60, 0
2, 209856, Note_on_c, 0, 72, 0
2, 209856, Note_on_c, 0, 75, 66
2, 209856, Note_on_c, 0, 63, 66
2, 210048, Note_on_c, 0, 63, 0
2, 210048, Note_on_c, 0, 75, 0
2, 210048, Note_on_c, 0, 65, 66
2, 210048, Note_on_c, 0, 77, 66
2, 210240, Note_on_c, 0, 77, 0
2, 210240, Note_on_c, 0, 65, 0
2, 210240, Note_on_c, 0, 78, 66
2, 210240, Note_on_c, 0, 66, 66
2, 210336, Note_on_c, 0, 66, 0
2, 210336, Note_on_c, 0, 78, 0
2, 210336, Note_on_c, 0, 68, 66
2, 210336, Note_on_c, 0, 80, 66
2, 210432, Note_on_c, 0, 80, 0
2, 210432, Note_on_c, 0, 68, 0
2, 210432, Note_on_c, 0, 82, 66
2, 210432, Note_on_c, 0, 70, 66
2, 211008, Note_on_c, 0, 70, 0
2, 211008, Note_on_c, 0, 82, 0
2, 211008, Note_on_c, 0, 58, 66
2, 211008, Note_on_c, 0, 70, 66
2, 211200, Note_on_c, 0, 70, 0
2, 211200, Note_on_c, 0, 58, 0
2, 211200, Note_on_c, 0, 60, 66
2, 211200, Note_on_c, 0, 72, 66
2, 211392, Note_on_c, 0, 72, 0
2, 211392, Note_on_c, 0, 60, 0
2, 211392, Note_on_c, 0, 63, 66
2, 211392, Note_on_c, 0, 75, 66
2, 211584, Note_on_c, 0, 75, 0
2, 211584, Note_on_c, 0, 63, 0
2, 211584, Note_on_c, 0, 77, 66
2, 211584, Note_on_c, 0, 65, 66
2, 211776, Note_on_c, 0, 65, 0
2, 211776, Note_on_c, 0, 77, 0
2, 211776, Note_on_c, 0, 66, 66
2, 211776, Note_on_c, 0, 78, 66
2, 211872, Note_on_c, 0, 78, 0
2, 211872, Note_on_c, 0, 66, 0
2, 211872, Note_on_c, 0, 80, 66
2, 211872, Note_on_c, 0, 68, 66
2, 211968, Note_on_c, 0, 68, 0
2, 211968, Note_on_c, 0, 80, 0
2, 211968, Note_on_c, 0, 70, 66
2, 211968, Note_on_c, 0, 82, 66
2, 212160, Note_on_c, 0, 82, 0
2, 212160, Note_on_c, 0, 70, 0
2, 212160, Note_on_c, 0, 70, 66
2, 212160, Note_on_c, 0, 82, 66
2, 212256, Note_on_c, 0, 82, 0
2, 212256, Note_on_c, 0, 70, 0
2, 212256, Note_on_c, 0, 71, 66
2, 212256, Note_on_c, 0, 83, 66
2, 212352, Note_on_c, 0, 83, 0
2, 212352, Note_on_c, 0, 71, 0
2, 212352, Note_on_c, 0, 82, 66
2, 212352, Note_on_c, 0, 70, 66
2, 212736, Note_on_c, 0, 70, 40
2, 212736, Note_on_c, 0, 82, 66
2, 212928, Note_on_c, 0, 82, 0
2, 212928, Note_on_c, 0, 82, 0
2, 212928, Note_on_c, 0, 70, 0
2, 212928, Note_on_c, 0, 70, 0
2, 212928, Note_on_c, 0, 82, 66
2, 212928, Note_on_c, 0, 70, 66
2, 213024, Note_on_c, 0, 70, 0
2, 213024, Note_on_c, 0, 82, 0
2, 213024, Note_on_c, 0, 83, 66
2, 213024, Note_on_c, 0, 71, 66
2, 213120, Note_on_c, 0, 71, 0
2, 213120, Note_on_c, 0, 83, 0
2, 213120, Note_on_c, 0, 82, 66
2, 213120, Note_on_c, 0, 70, 66
2, 213696, Note_on_c, 0, 70, 0
2, 213696, Note_on_c, 0, 82, 0
2, 213696, Note_on_c, 0, 70, 66
2, 213696, Note_on_c, 0, 82, 66
2, 213792, Note_on_c, 0, 82, 0
2, 213792, Note_on_c, 0, 70, 0
2, 213792, Note_on_c, 0, 83, 66
2, 213792, Note_on_c, 0, 71, 66
2, 213888, Note_on_c, 0, 71, 0
2, 213888, Note_on_c, 0, 83, 0
2, 213888, Note_on_c, 0, 70, 66
2, 213888, Note_on_c, 0, 82, 66
2, 214320, Note_on_c, 0, 82, 0
2, 214320, Note_on_c, 0, 70, 0
2, 214368, Note_on_c, 0, 70, 66
2, 214368, Note_on_c, 0, 82, 66
2, 214408, Note_on_c, 0, 82, 0
2, 214416, Note_on_c, 0, 70, 0
2, 214416, Note_on_c, 0, 71, 66
2, 214416, Note_on_c, 0, 83, 66
2, 214456, Note_on_c, 0, 83, 0
2, 214464, Note_on_c, 0, 71, 0
2, 214464, Note_on_c, 0, 70, 66
2, 214464, Note_on_c, 0, 82, 66
2, 214488, Note_on_c, 0, 82, 0
2, 214488, Note_on_c, 0, 70, 0
2, 214560, Note_on_c, 0, 68, 66
2, 214560, Note_on_c, 0, 80, 66
2, 214584, Note_on_c, 0, 80, 0
2, 214608, Note_on_c, 0, 68, 0
2, 214656, Note_on_c, 0, 66, 66
2, 214656, Note_on_c, 0, 78, 66
2, 214704, Note_on_c, 0, 78, 0
2, 214704, Note_on_c, 0, 66, 0
2, 214752, Note_on_c, 0, 66, 66
2, 214752, Note_on_c, 0, 78, 66
2, 214776, Note_on_c, 0, 78, 0
2, 214776, Note_on_c, 0, 66, 0
2, 214848, Note_on_c, 0, 68, 66
2, 214848, Note_on_c, 0, 80, 66
2, 214944, Note_on_c, 0, 80, 0
2, 214944, Note_on_c, 0, 68, 0
2, 214944, Note_on_c, 0, 63, 66
2, 214944, Note_on_c, 0, 75, 66
2, 215040, Note_on_c, 0, 75, 0
2, 215040, Note_on_c, 0, 63, 0
2, 215040, Note_on_c, 0, 66, 66
2, 215040, Note_on_c, 0, 78, 66
2, 215064, Note_on_c, 0, 78, 0
2, 215064, Note_on_c, 0, 66, 0
2, 215136, Note_on_c, 0, 78, 66
2, 215136, Note_on_c, 0, 63, 66
2, 215160, Note_on_c, 0, 63, 0
2, 215160, Note_on_c, 0, 78, 0
2, 215232, Note_on_c, 0, 68, 66
2, 215232, Note_on_c, 0, 75, 66
2, 215328, Note_on_c, 0, 68, 0
2, 215328, Note_on_c, 0, 65, 66
2, 215424, Note_on_c, 0, 65, 0
2, 215424, Note_on_c, 0, 75, 0
2, 215424, Note_on_c, 0, 70, 66
2, 215424, Note_on_c, 0, 78, 66
2, 215520, Note_on_c, 0, 78, 0
2, 215520, Note_on_c, 0, 77, 66
2, 215560, Note_on_c, 0, 77, 0
2, 215568, Note_on_c, 0, 78, 66
2, 215608, Note_on_c, 0, 78, 0
2, 215616, Note_on_c, 0, 70, 0
2, 215616, Note_on_c, 0, 68, 66
2, 215616, Note_on_c, 0, 80, 66
2, 215640, Note_on_c, 0, 80, 0
2, 215712, Note_on_c, 0, 75, 66
2, 215736, Note_on_c, 0, 75, 0
2, 215808, Note_on_c, 0, 68, 0
2, 215808, Note_on_c, 0, 70, 66
2, 215808, Note_on_c, 0, 82, 66
2, 216000, Note_on_c, 0, 82, 0
2, 216000, Note_on_c, 0, 75, 66
2, 216024, Note_on_c, 0, 75, 0
2, 216096, Note_on_c, 0, 75, 66
2, 216120, Note_on_c, 0, 75, 0
2, 216192, Note_on_c, 0, 70, 0
2, 216192, Note_on_c, 0, 75, 66
2, 216192, Note_on_c, 0, 68, 66
2, 216288, Note_on_c, 0, 75, 0
2, 216288, Note_on_c, 0, 78, 66
2, 216384, Note_on_c, 0, 78, 0
2, 216384, Note_on_c, 0, 77, 66
2, 216408, Note_on_c, 0, 77, 0
2, 216480, Note_on_c, 0, 75, 66
2, 216504, Note_on_c, 0, 75, 0
2, 216576, Note_on_c, 0, 68, 0
2, 216576, Note_on_c, 0, 82, 66
2, 216576, Note_on_c, 0, 70, 66
2, 216768, Note_on_c, 0, 82, 0
2, 216768, Note_on_c, 0, 75, 66
2, 216792, Note_on_c, 0, 75, 0
2, 216864, Note_on_c, 0, 75, 66
2, 216888, Note_on_c, 0, 75, 0
2, 216960, Note_on_c, 0, 70, 0
2, 216960, Note_on_c, 0, 75, 66
2, 216960, Note_on_c, 0, 68, 66
2, 217056, Note_on_c, 0, 75, 0
2, 217056, Note_on_c, 0, 78, 66
2, 217152, Note_on_c, 0, 78, 0
2, 217152, Note_on_c, 0, 77, 66
2, 217176, Note_on_c, 0, 77, 0
2, 217248, Note_on_c, 0, 75, 66
2, 217344, Note_on_c, 0, 75, 0
2, 217344, Note_on_c, 0, 68, 0
2, 217344, Note_on_c, 0, 70, 66
2, 217344, Note_on_c, 0, 82, 66
2, 217368, Note_on_c, 0, 82, 0
2, 217368, Note_on_c, 0, 70, 0
2, 217440, Note_on_c, 0, 70, 66
2, 217480, Note_on_c, 0, 70, 0
2, 217488, Note_on_c, 0, 71, 66
2, 217528, Note_on_c, 0, 71, 0
2, 217536, Note_on_c, 0, 70, 66
2, 217560, Note_on_c, 0, 70, 0
2, 217632, Note_on_c, 0, 68, 66
2, 217656, Note_on_c, 0, 68, 0
2, 217728, Note_on_c, 0, 66, 66
2, 217776, Note_on_c, 0, 66, 0
2, 217824, Note_on_c, 0, 66, 66
2, 217872, Note_on_c, 0, 66, 0
2, 217920, Note_on_c, 0, 68, 66
2, 218016, Note_on_c, 0, 68, 0
2, 218016, Note_on_c, 0, 63, 66
2, 218112, Note_on_c, 0, 63, 0
2, 218112, Note_on_c, 0, 66, 66
2, 218208, Note_on_c, 0, 66, 0
2, 222336, Note_on_c, 0, 79, 96
2, 222336, Note_on_c, 0, 82, 96
2, 222360, Note_on_c, 0, 82, 0
2, 222360, Note_on_c, 0, 79, 0
2, 222432, Note_on_c, 0, 79, 96
2, 222432, Note_on_c, 0, 82, 96
2, 222456, Note_on_c, 0, 82, 0
2, 222456, Note_on_c, 0, 79, 0
2, 222480, Note_on_c, 0, 79, 96
2, 222480, Note_on_c, 0, 84, 96
2, 222504, Note_on_c, 0, 84, 0
2, 222504, Note_on_c, 0, 79, 0
2, 222528, Note_on_c, 0, 82, 96
2, 222528, Note_on_c, 0, 79, 96
2, 222552, Note_on_c, 0, 79, 0
2, 222552, Note_on_c, 0, 82, 0
2, 222624, Note_on_c, 0, 75, 96
2, 222624, Note_on_c, 0, 80, 96
2, 222648, Note_on_c, 0, 80, 0
2, 222648, Note_on_c, 0, 75, 0
2, 222720, Note_on_c, 0, 79, 96
2, 222720, Note_on_c, 0, 75, 96
2, 222744, Note_on_c, 0, 75, 0
2, 222744, Note_on_c, 0, 79, 0
2, 222816, Note_on_c, 0, 75, 96
2, 222816, Note_on_c, 0, 79, 96
2, 222840, Note_on_c, 0, 79, 0
2, 222840, Note_on_c, 0, 75, 0
2, 222864, Note_on_c, 0, 80, 96
2, 222864, Note_on_c, 0, 75, 96
2, 222888, Note_on_c, 0, 75, 0
2, 222888, Note_on_c, 0, 80, 0
2, 222912, Note_on_c, 0, 79, 96
2, 222912, Note_on_c, 0, 75, 96
2, 222936, Note_on_c, 0, 75, 0
2, 222936, Note_on_c, 0, 79, 0
2, 223008, Note_on_c, 0, 77, 96
2, 223008, Note_on_c, 0, 72, 96
2, 223032, Note_on_c, 0, 72, 0
2, 223032, Note_on_c, 0, 77, 0
2, 223104, Note_on_c, 0, 72, 96
2, 223104, Note_on_c, 0, 76, 96
2, 223128, Note_on_c, 0, 76, 0
2, 223128, Note_on_c, 0, 72, 0
2, 223200, Note_on_c, 0, 72, 96
2, 223200, Note_on_c, 0, 76, 96
2, 223224, Note_on_c, 0, 76, 0
2, 223224, Note_on_c, 0, 72, 0
2, 223248, Note_on_c, 0, 72, 96
2, 223248, Note_on_c, 0, 77, 96
2, 223272, Note_on_c, 0, 77, 0
2, 223272, Note_on_c, 0, 72, 0
2, 223296, Note_on_c, 0, 72, 96
2, 223296, Note_on_c, 0, 76, 96
2, 223320, Note_on_c, 0, 76, 0
2, 223320, Note_on_c, 0, 72, 0
2, 223392, Note_on_c, 0, 73, 96
2, 223392, Note_on_c, 0, 68, 96
2, 223416, Note_on_c, 0, 68, 0
2, 223416, Note_on_c, 0, 73, 0
2, 223488, Note_on_c, 0, 72, 96
2, 223488, Note_on_c, 0, 67, 96
2, 223512, Note_on_c, 0, 67, 0
2, 223512, Note_on_c, 0, 72, 0
2, 223584, Note_on_c, 0, 67, 96
2, 223584, Note_on_c, 0, 72, 96
2, 223608, Note_on_c, 0, 72, 0
2, 223608, Note_on_c, 0, 67, 0
2, 223632, Note_on_c, 0, 67, 96
2, 223632, Note_on_c, 0, 73, 96
2, 223656, Note_on_c, 0, 73, 0
2, 223656, Note_on_c, 0, 67, 0
2, 223680, Note_on_c, 0, 67, 96
2, 223680, Note_on_c, 0, 72, 96
2, 223704, Note_on_c, 0, 72, 0
2, 223704, Note_on_c, 0, 67, 0
2, 223776, Note_on_c, 0, 64, 96
2, 223776, Note_on_c, 0, 70, 96
2, 223800, Note_on_c, 0, 70, 0
2, 223800, Note_on_c, 0, 64, 0
2, 223872, Note_on_c, 0, 68, 96
2, 223872, Note_on_c, 0, 68, 96
2, 223872, Note_on_c, 0, 65, 96
2, 223896, Note_on_c, 0, 65, 0
2, 223896, Note_on_c, 0, 68, 0
2, 223896, Note_on_c, 0, 68, 0
2, 223968, Note_on_c, 0, 68, 96
2, 223968, Note_on_c, 0, 65, 96
2, 223992, Note_on_c, 0, 65, 0
2, 223992, Note_on_c, 0, 68, 0
2, 224016, Note_on_c, 0, 70, 96
2, 224016, Note_on_c, 0, 65, 96
2, 224040, Note_on_c, 0, 65, 0
2, 224040, Note_on_c, 0, 70, 0
2, 224064, Note_on_c, 0, 65, 96
2, 224064, Note_on_c, 0, 68, 96
2, 224088, Note_on_c, 0, 68, 0
2, 224088, Note_on_c, 0, 65, 0
2, 224160, Note_on_c, 0, 62, 96
2, 224160, Note_on_c, 0, 67, 96
2, 224184, Note_on_c, 0, 67, 0
2, 224184, Note_on_c, 0, 62, 0
2, 224256, Note_on_c, 0, 60, 96
2, 224256, Note_on_c, 0, 65, 96
2, 224280, Note_on_c, 0, 65, 0
2, 224280, Note_on_c, 0, 60, 0
2, 225408, Note_on_c, 0, 84, 96
2, 225408, Note_on_c, 0, 80, 96
2, 225432, Note_on_c, 0, 80, 0
2, 225432, Note_on_c, 0, 84, 0
2, 225504, Note_on_c, 0, 81, 96
2, 225504, Note_on_c, 0, 84, 96
2, 225528, Note_on_c, 0, 84, 0
2, 225528, Note_on_c, 0, 81, 0
2, 225552, Note_on_c, 0, 85, 96
2, 225552, Note_on_c, 0, 81, 96
2, 225576, Note_on_c, 0, 81, 0
2, 225576, Note_on_c, 0, 85, 0
2, 225600, Note_on_c, 0, 84, 96
2, 225600, Note_on_c, 0, 80, 96
2, 225624, Note_on_c, 0, 80, 0
2, 225624, Note_on_c, 0, 84, 0
2, 225696, Note_on_c, 0, 82, 96
2, 225696, Note_on_c, 0, 77, 96
2, 225720, Note_on_c, 0, 77, 0
2, 225720, Note_on_c, 0, 82, 0
2, 225792, Note_on_c, 0, 80, 96
2, 225792, Note_on_c, 0, 77, 96
2, 225816, Note_on_c, 0, 77, 0
2, 225816, Note_on_c, 0, 80, 0
2, 225888, Note_on_c, 0, 77, 96
2, 225888, Note_on_c, 0, 80, 96
2, 225912, Note_on_c, 0, 80, 0
2, 225912, Note_on_c, 0, 77, 0
2, 225936, Note_on_c, 0, 82, 96
2, 225936, Note_on_c, 0, 77, 96
2, 225960, Note_on_c, 0, 77, 0
2, 225960, Note_on_c, 0, 82, 0
2, 225984, Note_on_c, 0, 77, 96
2, 225984, Note_on_c, 0, 80, 96
2, 226008, Note_on_c, 0, 80, 0
2, 226008, Note_on_c, 0, 77, 0
2, 226080, Note_on_c, 0, 79, 96
2, 226080, Note_on_c, 0, 73, 96
2, 226080, Note_on_c, 0, 73, 96
2, 226104, Note_on_c, 0, 73, 0
2, 226104, Note_on_c, 0, 73, 0
2, 226104, Note_on_c, 0, 79, 0
2, 226176, Note_on_c, 0, 77, 96
2, 226176, Note_on_c, 0, 72, 96
2, 226176, Note_on_c, 0, 72, 96
2, 226200, Note_on_c, 0, 72, 0
2, 226200, Note_on_c, 0, 72, 0
2, 226200, Note_on_c, 0, 77, 0
2, 226272, Note_on_c, 0, 72, 96
2, 226272, Note_on_c, 0, 77, 96
2, 226296, Note_on_c, 0, 77, 0
2, 226296, Note_on_c, 0, 72, 0
2, 226320, Note_on_c, 0, 72, 96
2, 226320, Note_on_c, 0, 79, 96
2, 226344, Note_on_c, 0, 79, 0
2, 226344, Note_on_c, 0, 72, 0
2, 226368, Note_on_c, 0, 72, 96
2, 226368, Note_on_c, 0, 77, 96
2, 226392, Note_on_c, 0, 77, 0
2, 226392, Note_on_c, 0, 72, 0
2, 226464, Note_on_c, 0, 75, 96
2, 226464, Note_on_c, 0, 70, 96
2, 226488, Note_on_c, 0, 70, 0
2, 226488, Note_on_c, 0, 75, 0
2, 226560, Note_on_c, 0, 69, 96
2, 226560, Note_on_c, 0, 74, 96
2, 226584, Note_on_c, 0, 74, 0
2, 226584, Note_on_c, 0, 69, 0
2, 226656, Note_on_c, 0, 74, 96
2, 226656, Note_on_c, 0, 69, 96
2, 226680, Note_on_c, 0, 69, 0
2, 226680, Note_on_c, 0, 74, 0
2, 226704, Note_on_c, 0, 69, 96
2, 226704, Note_on_c, 0, 75, 96
2, 226728, Note_on_c, 0, 75, 0
2, 226728, Note_on_c, 0, 69, 0
2, 226752, Note_on_c, 0, 74, 96
2, 226752, Note_on_c, 0, 69, 96
2, 226776, Note_on_c, 0, 69, 0
2, 226776, Note_on_c, 0, 74, 0
2, 226848, Note_on_c, 0, 72, 96
2, 226848, Note_on_c, 0, 63, 96
2, 226872, Note_on_c, 0, 63, 0
2, 226872, Note_on_c, 0, 72, 0
2, 226944, Note_on_c, 0, 63, 96
2, 226944, Note_on_c, 0, 70, 96
2, 226968, Note_on_c, 0, 70, 0
2, 226968, Note_on_c, 0, 63, 0
2, 227040, Note_on_c, 0, 70, 96
2, 227040, Note_on_c, 0, 64, 96
2, 227064, Note_on_c, 0, 64, 0
2, 227064, Note_on_c, 0, 70, 0
2, 227088, Note_on_c, 0, 72, 96
2, 227088, Note_on_c, 0, 64, 96
2, 227112, Note_on_c, 0, 64, 0
2, 227112, Note_on_c, 0, 72, 0
2, 227136, Note_on_c, 0, 64, 96
2, 227136, Note_on_c, 0, 70, 96
2, 227160, Note_on_c, 0, 70, 0
2, 227160, Note_on_c, 0, 64, 0
2, 227232, Note_on_c, 0, 69, 96
2, 227232, Note_on_c, 0, 66, 96
2, 227256, Note_on_c, 0, 66, 0
2, 227256, Note_on_c, 0, 69, 0
2, 227328, Note_on_c, 0, 67, 96
2, 227328, Note_on_c, 0, 62, 96
2, 227328, Note_on_c, 0, 67, 96
2, 227376, Note_on_c, 0, 67, 0
2, 227376, Note_on_c, 0, 62, 0
2, 227376, Note_on_c, 0, 67, 0
2, 227424, Note_on_c, 0, 86, 96
2, 227472, Note_on_c, 0, 86, 0
2, 227472, Note_on_c, 0, 87, 96
2, 227520, Note_on_c, 0, 87, 0
2, 227520, Note_on_c, 0, 86, 96
2, 227568, Note_on_c, 0, 86, 0
2, 227616, Note_on_c, 0, 84, 96
2, 227664, Note_on_c, 0, 84, 0
2, 227712, Note_on_c, 0, 82, 96
2, 227734, Note_on_c, 0, 82, 0
2, 227760, Note_on_c, 0, 81, 96
2, 227782, Note_on_c, 0, 81, 0
2, 227808, Note_on_c, 0, 79, 96
2, 227830, Note_on_c, 0, 79, 0
2, 227856, Note_on_c, 0, 75, 96
2, 227878, Note_on_c, 0, 75, 0
2, 227904, Note_on_c, 0, 74, 96
2, 227926, Note_on_c, 0, 74, 0
2, 227952, Note_on_c, 0, 75, 96
2, 227974, Note_on_c, 0, 75, 0
2, 228000, Note_on_c, 0, 74, 96
2, 228022, Note_on_c, 0, 74, 0
2, 228048, Note_on_c, 0, 72, 96
2, 228070, Note_on_c, 0, 72, 0
2, 228096, Note_on_c, 0, 70, 96
2, 228118, Note_on_c, 0, 70, 0
2, 228144, Note_on_c, 0, 72, 96
2, 228166, Note_on_c, 0, 72, 0
2, 228192, Note_on_c, 0, 70, 96
2, 228214, Note_on_c, 0, 70, 0
2, 228240, Note_on_c, 0, 67, 96
2, 228262, Note_on_c, 0, 67, 0
2, 228288, Note_on_c, 0, 62, 96
2, 228310, Note_on_c, 0, 62, 0
2, 228336, Note_on_c, 0, 62, 96
2, 228358, Note_on_c, 0, 62, 0
2, 228384, Note_on_c, 0, 64, 96
2, 228406, Note_on_c, 0, 64, 0
2, 228432, Note_on_c, 0, 66, 96
2, 228454, Note_on_c, 0, 66, 0
2, 228480, Note_on_c, 0, 67, 96
2, 228502, Note_on_c, 0, 67, 0
2, 228528, Note_on_c, 0, 69, 96
2, 228550, Note_on_c, 0, 69, 0
2, 228576, Note_on_c, 0, 70, 96
2, 228598, Note_on_c, 0, 70, 0
2, 228624, Note_on_c, 0, 74, 96
2, 228646, Note_on_c, 0, 74, 0
2, 228672, Note_on_c, 0, 79, 96
2, 228694, Note_on_c, 0, 79, 0
2, 228720, Note_on_c, 0, 77, 96
2, 228742, Note_on_c, 0, 77, 0
2, 228768, Note_on_c, 0, 75, 96
2, 228790, Note_on_c, 0, 75, 0
2, 228816, Note_on_c, 0, 74, 96
2, 228838, Note_on_c, 0, 74, 0
2, 228864, Note_on_c, 0, 72, 96
2, 228912, Note_on_c, 0, 72, 0
2, 228960, Note_on_c, 0, 91, 96
2, 228982, Note_on_c, 0, 91, 0
2, 229008, Note_on_c, 0, 92, 96
2, 229030, Note_on_c, 0, 92, 0
2, 229056, Note_on_c, 0, 91, 96
2, 229056, Note_on_c, 0, 91, 96
2, 229104, Note_on_c, 0, 91, 0
2, 229104, Note_on_c, 0, 91, 0
2, 229152, Note_on_c, 0, 89, 96
2, 229152, Note_on_c, 0, 89, 96
2, 229200, Note_on_c, 0, 89, 0
2, 229200, Note_on_c, 0, 89, 0
2, 229248, Note_on_c, 0, 87, 96
2, 229270, Note_on_c, 0, 87, 0
2, 229296, Note_on_c, 0, 86, 96
2, 229318, Note_on_c, 0, 86, 0
2, 229344, Note_on_c, 0, 84, 96
2, 229366, Note_on_c, 0, 84, 0
2, 229392, Note_on_c, 0, 80, 96
2, 229414, Note_on_c, 0, 80, 0
2, 229440, Note_on_c, 0, 79, 96
2, 229462, Note_on_c, 0, 79, 0
2, 229488, Note_on_c, 0, 80, 96
2, 229510, Note_on_c, 0, 80, 0
2, 229536, Note_on_c, 0, 79, 96
2, 229558, Note_on_c, 0, 79, 0
2, 229584, Note_on_c, 0, 77, 96
2, 229606, Note_on_c, 0, 77, 0
2, 229632, Note_on_c, 0, 75, 96
2, 229654, Note_on_c, 0, 75, 0
2, 229680, Note_on_c, 0, 77, 96
2, 229702, Note_on_c, 0, 77, 0
2, 229728, Note_on_c, 0, 75, 96
2, 229750, Note_on_c, 0, 75, 0
2, 229776, Note_on_c, 0, 72, 96
2, 229798, Note_on_c, 0, 72, 0
2, 229824, Note_on_c, 0, 67, 96
2, 229846, Note_on_c, 0, 67, 0
2, 229872, Note_on_c, 0, 67, 96
2, 229894, Note_on_c, 0, 67, 0
2, 229920, Note_on_c, 0, 69, 96
2, 229942, Note_on_c, 0, 69, 0
2, 229968, Note_on_c, 0, 71, 96
2, 229990, Note_on_c, 0, 71, 0
2, 230016, Note_on_c, 0, 72, 96
2, 230038, Note_on_c, 0, 72, 0
2, 230064, Note_on_c, 0, 74, 96
2, 230086, Note_on_c, 0, 74, 0
2, 230112, Note_on_c, 0, 75, 96
2, 230134, Note_on_c, 0, 75, 0
2, 230160, Note_on_c, 0, 79, 96
2, 230182, Note_on_c, 0, 79, 0
2, 230208, Note_on_c, 0, 84, 96
2, 230230, Note_on_c, 0, 84, 0
2, 230256, Note_on_c, 0, 82, 96
2, 230278, Note_on_c, 0, 82, 0
2, 230304, Note_on_c, 0, 80, 96
2, 230326, Note_on_c, 0, 80, 0
2, 230352, Note_on_c, 0, 79, 96
2, 230374, Note_on_c, 0, 79, 0
2, 230400, Note_on_c, 0, 77, 99
2, 230448, Note_on_c, 0, 77, 0
2, 230448, Note_on_c, 0, 80, 99
2, 230470, Note_on_c, 0, 80, 0
2, 230496, Note_on_c, 0, 79, 99
2, 230518, Note_on_c, 0, 79, 0
2, 230544, Note_on_c, 0, 77, 99
2, 230566, Note_on_c, 0, 77, 0
2, 230592, Note_on_c, 0, 76, 99
2, 230614, Note_on_c, 0, 76, 0
2, 230640, Note_on_c, 0, 77, 99
2, 230662, Note_on_c, 0, 77, 0
2, 230688, Note_on_c, 0, 76, 99
2, 230710, Note_on_c, 0, 76, 0
2, 230736, Note_on_c, 0, 73, 99
2, 230758, Note_on_c, 0, 73, 0
2, 230784, Note_on_c, 0, 72, 99
2, 230806, Note_on_c, 0, 72, 0
2, 230832, Note_on_c, 0, 71, 99
2, 230854, Note_on_c, 0, 71, 0
2, 230880, Note_on_c, 0, 72, 99
2, 230902, Note_on_c, 0, 72, 0
2, 230928, Note_on_c, 0, 74, 99
2, 230950, Note_on_c, 0, 74, 0
2, 230976, Note_on_c, 0, 76, 99
2, 230998, Note_on_c, 0, 76, 0
2, 231024, Note_on_c, 0, 72, 99
2, 231046, Note_on_c, 0, 72, 0
2, 231072, Note_on_c, 0, 74, 99
2, 231094, Note_on_c, 0, 74, 0
2, 231120, Note_on_c, 0, 76, 99
2, 231142, Note_on_c, 0, 76, 0
2, 231168, Note_on_c, 0, 77, 99
2, 231190, Note_on_c, 0, 77, 0
2, 231216, Note_on_c, 0, 72, 99
2, 231238, Note_on_c, 0, 72, 0
2, 231264, Note_on_c, 0, 70, 99
2, 231286, Note_on_c, 0, 70, 0
2, 231312, Note_on_c, 0, 68, 99
2, 231334, Note_on_c, 0, 68, 0
2, 231360, Note_on_c, 0, 67, 99
2, 231382, Note_on_c, 0, 67, 0
2, 231408, Note_on_c, 0, 70, 99
2, 231430, Note_on_c, 0, 70, 0
2, 231456, Note_on_c, 0, 68, 99
2, 231478, Note_on_c, 0, 68, 0
2, 231504, Note_on_c, 0, 67, 99
2, 231526, Note_on_c, 0, 67, 0
2, 231552, Note_on_c, 0, 68, 99
2, 231574, Note_on_c, 0, 68, 0
2, 231600, Note_on_c, 0, 61, 99
2, 231622, Note_on_c, 0, 61, 0
2, 231648, Note_on_c, 0, 65, 99
2, 231670, Note_on_c, 0, 65, 0
2, 231696, Note_on_c, 0, 66, 99
2, 231718, Note_on_c, 0, 66, 0
2, 231744, Note_on_c, 0, 67, 99
2, 231766, Note_on_c, 0, 67, 0
2, 231792, Note_on_c, 0, 68, 99
2, 231814, Note_on_c, 0, 68, 0
2, 231840, Note_on_c, 0, 73, 99
2, 231862, Note_on_c, 0, 73, 0
2, 231888, Note_on_c, 0, 77, 99
2, 231910, Note_on_c, 0, 77, 0
2, 231936, Note_on_c, 0, 78, 99
2, 231958, Note_on_c, 0, 78, 0
2, 231984, Note_on_c, 0, 82, 99
2, 232006, Note_on_c, 0, 82, 0
2, 232032, Note_on_c, 0, 80, 99
2, 232054, Note_on_c, 0, 80, 0
2, 232080, Note_on_c, 0, 78, 99
2, 232102, Note_on_c, 0, 78, 0
2, 232128, Note_on_c, 0, 77, 99
2, 232150, Note_on_c, 0, 77, 0
2, 232176, Note_on_c, 0, 78, 99
2, 232198, Note_on_c, 0, 78, 0
2, 232224, Note_on_c, 0, 77, 99
2, 232246, Note_on_c, 0, 77, 0
2, 232272, Note_on_c, 0, 75, 99
2, 232294, Note_on_c, 0, 75, 0
2, 232320, Note_on_c, 0, 73, 99
2, 232342, Note_on_c, 0, 73, 0
2, 232368, Note_on_c, 0, 72, 99
2, 232390, Note_on_c, 0, 72, 0
2, 232416, Note_on_c, 0, 73, 99
2, 232438, Note_on_c, 0, 73, 0
2, 232464, Note_on_c, 0, 75, 99
2, 232486, Note_on_c, 0, 75, 0
2, 232512, Note_on_c, 0, 77, 99
2, 232534, Note_on_c, 0, 77, 0
2, 232560, Note_on_c, 0, 73, 99
2, 232582, Note_on_c, 0, 73, 0
2, 232608, Note_on_c, 0, 75, 99
2, 232630, Note_on_c, 0, 75, 0
2, 232656, Note_on_c, 0, 77, 99
2, 232678, Note_on_c, 0, 77, 0
2, 232704, Note_on_c, 0, 78, 99
2, 232726, Note_on_c, 0, 78, 0
2, 232752, Note_on_c, 0, 73, 99
2, 232774, Note_on_c, 0, 73, 0
2, 232800, Note_on_c, 0, 71, 99
2, 232822, Note_on_c, 0, 71, 0
2, 232848, Note_on_c, 0, 70, 99
2, 232870, Note_on_c, 0, 70, 0
2, 232896, Note_on_c, 0, 68, 99
2, 232918, Note_on_c, 0, 68, 0
2, 232944, Note_on_c, 0, 71, 99
2, 232966, Note_on_c, 0, 71, 0
2, 232992, Note_on_c, 0, 70, 99
2, 233014, Note_on_c, 0, 70, 0
2, 233040, Note_on_c, 0, 68, 99
2, 233062, Note_on_c, 0, 68, 0
2, 233088, Note_on_c, 0, 70, 99
2, 233110, Note_on_c, 0, 70, 0
2, 233136, Note_on_c, 0, 63, 99
2, 233158, Note_on_c, 0, 63, 0
2, 233184, Note_on_c, 0, 67, 99
2, 233206, Note_on_c, 0, 67, 0
2, 233232, Note_on_c, 0, 68, 99
2, 233254, Note_on_c, 0, 68, 0
2, 233280, Note_on_c, 0, 69, 99
2, 233302, Note_on_c, 0, 69, 0
2, 233328, Note_on_c, 0, 70, 99
2, 233350, Note_on_c, 0, 70, 0
2, 233376, Note_on_c, 0, 75, 99
2, 233398, Note_on_c, 0, 75, 0
2, 233424, Note_on_c, 0, 79, 99
2, 233446, Note_on_c, 0, 79, 0
2, 270240, Note_on_c, 0, 82, 66
2, 270240, Note_on_c, 0, 79, 66
2, 270264, Note_on_c, 0, 79, 0
2, 270280, Note_on_c, 0, 82, 0
2, 270288, Note_on_c, 0, 79, 66
2, 270288, Note_on_c, 0, 82, 66
2, 270312, Note_on_c, 0, 79, 0
2, 270328, Note_on_c, 0, 82, 0
2, 270336, Note_on_c, 0, 79, 66
2, 270336, Note_on_c, 0, 87, 66
2, 270432, Note_on_c, 0, 87, 0
2, 270432, Note_on_c, 0, 79, 0
2, 270432, Note_on_c, 0, 82, 66
2, 270432, Note_on_c, 0, 89, 66
2, 270528, Note_on_c, 0, 89, 0
2, 270528, Note_on_c, 0, 82, 0
2, 270528, Note_on_c, 0, 87, 66
2, 270528, Note_on_c, 0, 91, 66
2, 270624, Note_on_c, 0, 91, 0
2, 270624, Note_on_c, 0, 87, 0
2, 270624, Note_on_c, 0, 89, 66
2, 270624, Note_on_c, 0, 82, 66
2, 270720, Note_on_c, 0, 82, 0
2, 270720, Note_on_c, 0, 89, 0
2, 270720, Note_on_c, 0, 87, 66
2, 270720, Note_on_c, 0, 79, 66
2, 270816, Note_on_c, 0, 79, 0
2, 270816, Note_on_c, 0, 87, 0
2, 270816, Note_on_c, 0, 82, 66
2, 270816, Note_on_c, 0, 89, 66
2, 270912, Note_on_c, 0, 89, 0
2, 270912, Note_on_c, 0, 82, 0
2, 270912, Note_on_c, 0, 91, 66
2, 270912, Note_on_c, 0, 87, 66
2, 270994, Note_on_c, 0, 87, 0
2, 270994, Note_on_c, 0, 91, 0
2, 271104, Note_on_c, 0, 79, 66
2, 271104, Note_on_c, 0, 87, 66
2, 271186, Note_on_c, 0, 87, 0
2, 271186, Note_on_c, 0, 79, 0
2, 271296, Note_on_c, 0, 79, 66
2, 271296, Note_on_c, 0, 87, 66
2, 271630, Note_on_c, 0, 87, 0
2, 271630, Note_on_c, 0, 79, 0
2, 271776, Note_on_c, 0, 82, 66
2, 271816, Note_on_c, 0, 82, 0
2, 271824, Note_on_c, 0, 82, 66
2, 271864, Note_on_c, 0, 82, 0
2, 271872, Note_on_c, 0, 79, 66
2, 271872, Note_on_c, 0, 87, 66
2, 271954, Note_on_c, 0, 87, 0
2, 271954, Note_on_c, 0, 79, 0
2, 271968, Note_on_c, 0, 89, 66
2, 271968, Note_on_c, 0, 82, 66
2, 272050, Note_on_c, 0, 82, 0
2, 272050, Note_on_c, 0, 89, 0
2, 272064, Note_on_c, 0, 91, 66
2, 272064, Note_on_c, 0, 87, 66
2, 272146, Note_on_c, 0, 87, 0
2, 272146, Note_on_c, 0, 91, 0
2, 272160, Note_on_c, 0, 89, 66
2, 272160, Note_on_c, 0, 82, 66
2, 272242, Note_on_c, 0, 82, 0
2, 272242, Note_on_c, 0, 89, 0
2, 272256, Note_on_c, 0, 79, 66
2, 272256, Note_on_c, 0, 87, 66
2, 272338, Note_on_c, 0, 87, 0
2, 272338, Note_on_c, 0, 79, 0
2, 272352, Note_on_c, 0, 89, 66
2, 272352, Note_on_c, 0, 82, 66
2, 272434, Note_on_c, 0, 82, 0
2, 272434, Note_on_c, 0, 89, 0
2, 272448, Note_on_c, 0, 91, 66
2, 272448, Note_on_c, 0, 87, 66
2, 272530, Note_on_c, 0, 87, 0
2, 272530, Note_on_c, 0, 91, 0
2, 272640, Note_on_c, 0, 79, 66
2, 272640, Note_on_c, 0, 87, 66
2, 272722, Note_on_c, 0, 87, 0
2, 272722, Note_on_c, 0, 79, 0
2, 272832, Note_on_c, 0, 79, 66
2, 272832, Note_on_c, 0, 87, 66
2, 273166, Note_on_c, 0, 87, 0
2, 273166, Note_on_c, 0, 79, 0
2, 273312, Note_on_c, 0, 84, 66
2, 273312, Note_on_c, 0, 80, 66
2, 273336, Note_on_c, 0, 80, 0
2, 273352, Note_on_c, 0, 84, 0
2, 273360, Note_on_c, 0, 84, 66
2, 273360, Note_on_c, 0, 80, 66
2, 273384, Note_on_c, 0, 80, 0
2, 273400, Note_on_c, 0, 84, 0
2, 273408, Note_on_c, 0, 80, 66
2, 273408, Note_on_c, 0, 89, 66
2, 273490, Note_on_c, 0, 89, 0
2, 273490, Note_on_c, 0, 80, 0
2, 273504, Note_on_c, 0, 84, 66
2, 273504, Note_on_c, 0, 91, 66
2, 273586, Note_on_c, 0, 91, 0
2, 273586, Note_on_c, 0, 84, 0
2, 273600, Note_on_c, 0, 89, 66
2, 273600, Note_on_c, 0, 80, 66
2, 273682, Note_on_c, 0, 80, 0
2, 273682, Note_on_c, 0, 89, 0
2, 273696, Note_on_c, 0, 79, 66
2, 273696, Note_on_c, 0, 84, 66
2, 273778, Note_on_c, 0, 84, 0
2, 273778, Note_on_c, 0, 79, 0
2, 273792, Note_on_c, 0, 77, 66
2, 273792, Note_on_c, 0, 80, 66
2, 273874, Note_on_c, 0, 80, 0
2, 273874, Note_on_c, 0, 77, 0
2, 273888, Note_on_c, 0, 84, 66
2, 273888, Note_on_c, 0, 79, 66
2, 273970, Note_on_c, 0, 79, 0
2, 273970, Note_on_c, 0, 84, 0
2, 273984, Note_on_c, 0, 80, 66
2, 273984, Note_on_c, 0, 89, 66
2, 274066, Note_on_c, 0, 89, 0
2, 274066, Note_on_c, 0, 80, 0
2, 274080, Note_on_c, 0, 79, 66
2, 274080, Note_on_c, 0, 84, 66
2, 274162, Note_on_c, 0, 84, 0
2, 274162, Note_on_c, 0, 79, 0
2, 274176, Note_on_c, 0, 80, 66
2, 274176, Note_on_c, 0, 77, 66
2, 274258, Note_on_c, 0, 77, 0
2, 274258, Note_on_c, 0, 80, 0
2, 274272, Note_on_c, 0, 84, 66
2, 274272, Note_on_c, 0, 79, 66
2, 274354, Note_on_c, 0, 79, 0
2, 274354, Note_on_c, 0, 84, 0
2, 274368, Note_on_c, 0, 80, 66
2, 274368, Note_on_c, 0, 89, 66
2, 274702, Note_on_c, 0, 89, 0
2, 274702, Note_on_c, 0, 80, 0
2, 274848, Note_on_c, 0, 79, 66
2, 274848, Note_on_c, 0, 82, 66
2, 274880, Note_on_c, 0, 79, 0
2, 274888, Note_on_c, 0, 82, 0
2, 274896, Note_on_c, 0, 79, 66
2, 274896, Note_on_c, 0, 82, 66
2, 274928, Note_on_c, 0, 79, 0
2, 274936, Note_on_c, 0, 82, 0
2, 274944, Note_on_c, 0, 87, 66
2, 274944, Note_on_c, 0, 79, 66
2, 275026, Note_on_c, 0, 79, 0
2, 275026, Note_on_c, 0, 87, 0
2, 275040, Note_on_c, 0, 82, 66
2, 275040, Note_on_c, 0, 89, 66
2, 275122, Note_on_c, 0, 89, 0
2, 275122, Note_on_c, 0, 82, 0
2, 275136, Note_on_c, 0, 79, 66
2, 275136, Note_on_c, 0, 87, 66
2, 275218, Note_on_c, 0, 87, 0
2, 275218, Note_on_c, 0, 79, 0
2, 275232, Note_on_c, 0, 77, 66
2, 275232, Note_on_c, 0, 91, 66
2, 275232, Note_on_c, 0, 82, 66
2, 275232, Note_on_c, 0, 82, 66
2, 275280, Note_on_c, 0, 82, 0
2, 275280, Note_on_c, 0, 91, 0
2, 275314, Note_on_c, 0, 77, 0
2, 275314, Note_on_c, 0, 82, 0
2, 275328, Note_on_c, 0, 75, 66
2, 275328, Note_on_c, 0, 79, 66
2, 275410, Note_on_c, 0, 79, 0
2, 275410, Note_on_c, 0, 75, 0
2, 275424, Note_on_c, 0, 77, 66
2, 275424, Note_on_c, 0, 82, 66
2, 275506, Note_on_c, 0, 82, 0
2, 275506, Note_on_c, 0, 77, 0
2, 275520, Note_on_c, 0, 79, 66
2, 275520, Note_on_c, 0, 87, 66
2, 275616, Note_on_c, 0, 87, 0
2, 275616, Note_on_c, 0, 79, 0
2, 275616, Note_on_c, 0, 82, 66
2, 275616, Note_on_c, 0, 77, 66
2, 275712, Note_on_c, 0, 77, 0
2, 275712, Note_on_c, 0, 82, 0
2, 275712, Note_on_c, 0, 79, 66
2, 275712, Note_on_c, 0, 75, 66
2, 275808, Note_on_c, 0, 75, 0
2, 275808, Note_on_c, 0, 79, 0
2, 275808, Note_on_c, 0, 82, 66
2, 275808, Note_on_c, 0, 77, 66
2, 275904, Note_on_c, 0, 77, 0
2, 275904, Note_on_c, 0, 82, 0
2, 275904, Note_on_c, 0, 87, 66
2, 275904, Note_on_c, 0, 79, 66
2, 276288, Note_on_c, 0, 79, 0
2, 276288, Note_on_c, 0, 87, 0
2, 276384, Note_on_c, 0, 82, 66
2, 276384, Note_on_c, 0, 79, 66
2, 276408, Note_on_c, 0, 79, 0
2, 276424, Note_on_c, 0, 82, 0
2, 276432, Note_on_c, 0, 79, 66
2, 276432, Note_on_c, 0, 82, 66
2, 276456, Note_on_c, 0, 79, 0
2, 276472, Note_on_c, 0, 82, 0
2, 276480, Note_on_c, 0, 79, 66
2, 276480, Note_on_c, 0, 87, 66
2, 276576, Note_on_c, 0, 87, 0
2, 276576, Note_on_c, 0, 79, 0
2, 276576, Note_on_c, 0, 82, 66
2, 276576, Note_on_c, 0, 89, 66
2, 276672, Note_on_c, 0, 89, 0
2, 276672, Note_on_c, 0, 82, 0
2, 276672, Note_on_c, 0, 87, 66
2, 276672, Note_on_c, 0, 91, 66
2, 276768, Note_on_c, 0, 91, 0
2, 276768, Note_on_c, 0, 87, 0
2, 276768, Note_on_c, 0, 89, 66
2, 276768, Note_on_c, 0, 82, 66
2, 276864, Note_on_c, 0, 82, 0
2, 276864, Note_on_c, 0, 89, 0
2, 276864, Note_on_c, 0, 87, 66
2, 276864, Note_on_c, 0, 79, 66
2, 276960, Note_on_c, 0, 79, 0
2, 276960, Note_on_c, 0, 87, 0
2, 276960, Note_on_c, 0, 82, 66
2, 276960, Note_on_c, 0, 89, 66
2, 277056, Note_on_c, 0, 89, 0
2, 277056, Note_on_c, 0, 82, 0
2, 277056, Note_on_c, 0, 91, 66
2, 277056, Note_on_c, 0, 87, 66
2, 277138, Note_on_c, 0, 87, 0
2, 277138, Note_on_c, 0, 91, 0
2, 277248, Note_on_c, 0, 79, 66
2, 277248, Note_on_c, 0, 87, 66
2, 277330, Note_on_c, 0, 87, 0
2, 277330, Note_on_c, 0, 79, 0
2, 277440, Note_on_c, 0, 79, 66
2, 277440, Note_on_c, 0, 87, 66
2, 277774, Note_on_c, 0, 87, 0
2, 277774, Note_on_c, 0, 79, 0
2, 277920, Note_on_c, 0, 82, 66
2, 277960, Note_on_c, 0, 82, 0
2, 277968, Note_on_c, 0, 82, 66
2, 278008, Note_on_c, 0, 82, 0
2, 278016, Note_on_c, 0, 79, 66
2, 278016, Note_on_c, 0, 87, 66
2, 278098, Note_on_c, 0, 87, 0
2, 278098, Note_on_c, 0, 79, 0
2, 278112, Note_on_c, 0, 89, 66
2, 278112, Note_on_c, 0, 82, 66
2, 278194, Note_on_c, 0, 82, 0
2, 278194, Note_on_c, 0, 89, 0
2, 278208, Note_on_c, 0, 91, 66
2, 278208, Note_on_c, 0, 87, 66
2, 278290, Note_on_c, 0, 87, 0
2, 278290, Note_on_c, 0, 91, 0
2, 278304, Note_on_c, 0, 89, 66
2, 278304, Note_on_c, 0, 82, 66
2, 278386, Note_on_c, 0, 82, 0
2, 278386, Note_on_c, 0, 89, 0
2, 278400, Note_on_c, 0, 79, 66
2, 278400, Note_on_c, 0, 87, 66
2, 278482, Note_on_c, 0, 87, 0
2, 278482, Note_on_c, 0, 79, 0
2, 278496, Note_on_c, 0, 89, 66
2, 278496, Note_on_c, 0, 82, 66
2, 278578, Note_on_c, 0, 82, 0
2, 278578, Note_on_c, 0, 89, 0
2, 278592, Note_on_c, 0, 91, 66
2, 278592, Note_on_c, 0, 87, 66
2, 278674, Note_on_c, 0, 87, 0
2, 278674, Note_on_c, 0, 91, 0
2, 278784, Note_on_c, 0, 79, 66
2, 278784, Note_on_c, 0, 87, 66
2, 278866, Note_on_c, 0, 87, 0
2, 278866, Note_on_c, 0, 79, 0
2, 278976, Note_on_c, 0, 79, 66
2, 278976, Note_on_c, 0, 87, 66
2, 279310, Note_on_c, 0, 87, 0
2, 279310, Note_on_c, 0, 79, 0
2, 279456, Note_on_c, 0, 84, 66
2, 279456, Note_on_c, 0, 80, 66
2, 279480, Note_on_c, 0, 80, 0
2, 279496, Note_on_c, 0, 84, 0
2, 279504, Note_on_c, 0, 84, 66
2, 279504, Note_on_c, 0, 80, 66
2, 279528, Note_on_c, 0, 80, 0
2, 279544, Note_on_c, 0, 84, 0
2, 279552, Note_on_c, 0, 80, 66
2, 279552, Note_on_c, 0, 89, 66
2, 279634, Note_on_c, 0, 89, 0
2, 279634, Note_on_c, 0, 80, 0
2, 279648, Note_on_c, 0, 84, 66
2, 279648, Note_on_c, 0, 91, 66
2, 279730, Note_on_c, 0, 91, 0
2, 279730, Note_on_c, 0, 84, 0
2, 279744, Note_on_c, 0, 89, 66
2, 279744, Note_on_c, 0, 80, 66
2, 279826, Note_on_c, 0, 80, 0
2, 279826, Note_on_c, 0, 89, 0
2, 279840, Note_on_c, 0, 79, 66
2, 279840, Note_on_c, 0, 84, 66
2, 279922, Note_on_c, 0, 84, 0
2, 279922, Note_on_c, 0, 79, 0
2, 279936, Note_on_c, 0, 77, 66
2, 279936, Note_on_c, 0, 80, 66
2, 280018, Note_on_c, 0, 80, 0
2, 280018, Note_on_c, 0, 77, 0
2, 280032, Note_on_c, 0, 84, 66
2, 280032, Note_on_c, 0, 79, 66
2, 280114, Note_on_c, 0, 79, 0
2, 280114, Note_on_c, 0, 84, 0
2, 280128, Note_on_c, 0, 80, 66
2, 280128, Note_on_c, 0, 89, 66
2, 280210, Note_on_c, 0, 89, 0
2, 280210, Note_on_c, 0, 80, 0
2, 280224, Note_on_c, 0, 79, 66
2, 280224, Note_on_c, 0, 84, 66
2, 280306, Note_on_c, 0, 84, 0
2, 280306, Note_on_c, 0, 79, 0
2, 280320, Note_on_c, 0, 80, 66
2, 280320, Note_on_c, 0, 77, 66
2, 280402, Note_on_c, 0, 77, 0
2, 280402, Note_on_c, 0, 80, 0
2, 280416, Note_on_c, 0, 84, 66
2, 280416, Note_on_c, 0, 79, 66
2, 280498, Note_on_c, 0, 79, 0
2, 280498, Note_on_c, 0, 84, 0
2, 280512, Note_on_c, 0, 80, 66
2, 280512, Note_on_c, 0, 89, 66
2, 280846, Note_on_c, 0, 89, 0
2, 280846, Note_on_c, 0, 80, 0
2, 280992, Note_on_c, 0, 79, 66
2, 280992, Note_on_c, 0, 82, 66
2, 281024, Note_on_c, 0, 79, 0
2, 281032, Note_on_c, 0, 82, 0
2, 281040, Note_on_c, 0, 79, 66
2, 281040, Note_on_c, 0, 82, 66
2, 281072, Note_on_c, 0, 79, 0
2, 281080, Note_on_c, 0, 82, 0
2, 281088, Note_on_c, 0, 87, 66
2, 281088, Note_on_c, 0, 79, 66
2, 281170, Note_on_c, 0, 79, 0
2, 281170, Note_on_c, 0, 87, 0
2, 281184, Note_on_c, 0, 82, 66
2, 281184, Note_on_c, 0, 89, 66
2, 281266, Note_on_c, 0, 89, 0
2, 281266, Note_on_c, 0, 82, 0
2, 281280, Note_on_c, 0, 79, 66
2, 281280, Note_on_c, 0, 87, 66
2, 281362, Note_on_c, 0, 87, 0
2, 281362, Note_on_c, 0, 79, 0
2, 281376, Note_on_c, 0, 77, 66
2, 281376, Note_on_c, 0, 91, 66
2, 281376, Note_on_c, 0, 82, 66
2, 281376, Note_on_c, 0, 82, 66
2, 281424, Note_on_c, 0, 82, 0
2, 281424, Note_on_c, 0, 91, 0
2, 281458, Note_on_c, 0, 77, 0
2, 281458, Note_on_c, 0, 82, 0
2, 281472, Note_on_c, 0, 75, 66
2, 281472, Note_on_c, 0, 79, 66
2, 281554, Note_on_c, 0, 79, 0
2, 281554, Note_on_c, 0, 75, 0
2, 281568, Note_on_c, 0, 77, 66
2, 281568, Note_on_c, 0, 82, 66
2, 281650, Note_on_c, 0, 82, 0
2, 281650, Note_on_c, 0, 77, 0
2, 281664, Note_on_c, 0, 79, 66
2, 281664, Note_on_c, 0, 87, 66
2, 281760, Note_on_c, 0, 87, 0
2, 281760, Note_on_c, 0, 79, 0
2, 281760, Note_on_c, 0, 82, 66
2, 281760, Note_on_c, 0, 77, 66
2, 281856, Note_on_c, 0, 77, 0
2, 281856, Note_on_c, 0, 82, 0
2, 281856, Note_on_c, 0, 79, 66
2, 281856, Note_on_c, 0, 75, 66
2, 281952, Note_on_c, 0, 75, 0
2, 281952, Note_on_c, 0, 79, 0
2, 281952, Note_on_c, 0, 82, 66
2, 281952, Note_on_c, 0, 77, 66
2, 282048, Note_on_c, 0, 77, 0
2, 282048, Note_on_c, 0, 82, 0
2, 282048, Note_on_c, 0, 87, 66
2, 282048, Note_on_c, 0, 79, 66
2, 282432, Note_on_c, 0, 79, 0
2, 282432, Note_on_c, 0, 87, 0
2, 282624, Note_on_c, 0, 75, 85
2, 282624, Note_on_c, 0, 80, 85
2, 282624, Note_on_c, 0, 84, 85
2, 282688, Note_on_c, 0, 84, 0
2, 282688, Note_on_c, 0, 80, 0
2, 282688, Note_on_c, 0, 75, 0
2, 282688, Note_on_c, 0, 75, 85
2, 282688, Note_on_c, 0, 80, 85
2, 282688, Note_on_c, 0, 84, 85
2, 282752, Note_on_c, 0, 84, 0
2, 282752, Note_on_c, 0, 80, 0
2, 282752, Note_on_c, 0, 75, 0
2, 282752, Note_on_c, 0, 75, 85
2, 282752, Note_on_c, 0, 80, 85
2, 282752, Note_on_c, 0, 84, 85
2, 282816, Note_on_c, 0, 84, 0
2, 282816, Note_on_c, 0, 80, 0
2, 282816, Note_on_c, 0, 75, 0
2, 282816, Note_on_c, 0, 80, 85
2, 282816, Note_on_c, 0, 84, 85
2, 282816, Note_on_c, 0, 87, 85
2, 282912, Note_on_c, 0, 87, 0
2, 282912, Note_on_c, 0, 84, 0
2, 282912, Note_on_c, 0, 80, 0
2, 283008, Note_on_c, 0, 75, 85
2, 283008, Note_on_c, 0, 80, 85
2, 283008, Note_on_c, 0, 84, 85
2, 283119, Note_on_c, 0, 84, 0
2, 283119, Note_on_c, 0, 80, 0
2, 283119, Note_on_c, 0, 75, 0
2, 283392, Note_on_c, 0, 74, 85
2, 283392, Note_on_c, 0, 77, 85
2, 283392, Note_on_c, 0, 82, 85
2, 283456, Note_on_c, 0, 82, 0
2, 283456, Note_on_c, 0, 77, 0
2, 283456, Note_on_c, 0, 74, 0
2, 283456, Note_on_c, 0, 74, 85
2, 283456, Note_on_c, 0, 77, 85
2, 283456, Note_on_c, 0, 82, 85
2, 283520, Note_on_c, 0, 82, 0
2, 283520, Note_on_c, 0, 77, 0
2, 283520, Note_on_c, 0, 74, 0
2, 283520, Note_on_c, 0, 74, 85
2, 283520, Note_on_c, 0, 77, 85
2, 283520, Note_on_c, 0, 82, 85
2, 283584, Note_on_c, 0, 82, 0
2, 283584, Note_on_c, 0, 77, 0
2, 283584, Note_on_c, 0, 74, 0
2, 283584, Note_on_c, 0, 77, 85
2, 283584, Note_on_c, 0, 82, 85
2, 283584, Note_on_c, 0, 86, 85
2, 283680, Note_on_c, 0, 86, 0
2, 283680, Note_on_c, 0, 82, 0
2, 283680, Note_on_c, 0, 77, 0
2, 283776, Note_on_c, 0, 74, 85
2, 283776, Note_on_c, 0, 77, 85
2, 283776, Note_on_c, 0, 82, 85
2, 283887, Note_on_c, 0, 82, 0
2, 283887, Note_on_c, 0, 77, 0
2, 283887, Note_on_c, 0, 74, 0
2, 284160, Note_on_c, 0, 73, 66
2, 284160, Note_on_c, 0, 76, 66
2, 284224, Note_on_c, 0, 76, 0
2, 284224, Note_on_c, 0, 73, 0
2, 284224, Note_on_c, 0, 76, 66
2, 284224, Note_on_c, 0, 73, 66
2, 284288, Note_on_c, 0, 73, 0
2, 284288, Note_on_c, 0, 76, 0
2, 284288, Note_on_c, 0, 76, 66
2, 284288, Note_on_c, 0, 73, 66
2, 284352, Note_on_c, 0, 73, 0
2, 284352, Note_on_c, 0, 76, 0
2, 284352, Note_on_c, 0, 82, 66
2, 284352, Note_on_c, 0, 85, 66
2, 284528, Note_on_c, 0, 85, 0
2, 284528, Note_on_c, 0, 82, 0
2, 284544, Note_on_c, 0, 77, 66
2, 284544, Note_on_c, 0, 84, 66
2, 284720, Note_on_c, 0, 84, 0
2, 284720, Note_on_c, 0, 77, 0
2, 284736, Note_on_c, 0, 84, 66
2, 284736, Note_on_c, 0, 87, 66
2, 284912, Note_on_c, 0, 87, 0
2, 284912, Note_on_c, 0, 84, 0
2, 284928, Note_on_c, 0, 86, 66
2, 284928, Note_on_c, 0, 74, 66
2, 285104, Note_on_c, 0, 74, 0
2, 285104, Note_on_c, 0, 86, 0
2, 285120, Note_on_c, 0, 89, 66
2, 285120, Note_on_c, 0, 86, 66
2, 285296, Note_on_c, 0, 86, 0
2, 285296, Note_on_c, 0, 89, 0
2, 285312, Note_on_c, 0, 87, 66
2, 285312, Note_on_c, 0, 75, 66
2, 285488, Note_on_c, 0, 75, 0
2, 285488, Note_on_c, 0, 87, 0
2, 285504, Note_on_c, 0, 94, 66
2, 285504, Note_on_c, 0, 82, 66
2, 285614, Note_on_c, 0, 82, 0
2, 285615, Note_on_c, 0, 94, 0
2, 285632, Note_on_c, 0, 81, 66
2, 285632, Note_on_c, 0, 93, 66
2, 285742, Note_on_c, 0, 81, 0
2, 285743, Note_on_c, 0, 93, 0
2, 285760, Note_on_c, 0, 80, 66
2, 285760, Note_on_c, 0, 92, 66
2, 285870, Note_on_c, 0, 80, 0
2, 285871, Note_on_c, 0, 92, 0
2, 285888, Note_on_c, 0, 79, 66
2, 285888, Note_on_c, 0, 91, 66
2, 285998, Note_on_c, 0, 79, 0
2, 285999, Note_on_c, 0, 91, 0
2, 286016, Note_on_c, 0, 90, 66
2, 286016, Note_on_c, 0, 78, 66
2, 286126, Note_on_c, 0, 78, 0
2, 286127, Note_on_c, 0, 90, 0
2, 286144, Note_on_c, 0, 89, 66
2, 286144, Note_on_c, 0, 77, 66
2, 286254, Note_on_c, 0, 77, 0
2, 286255, Note_on_c, 0, 89, 0
2, 286272, Note_on_c, 0, 76, 66
2, 286272, Note_on_c, 0, 88, 66
2, 286382, Note_on_c, 0, 76, 0
2, 286383, Note_on_c, 0, 88, 0
2, 286400, Note_on_c, 0, 75, 66
2, 286400, Note_on_c, 0, 87, 66
2, 286510, Note_on_c, 0, 75, 0
2, 286511, Note_on_c, 0, 87, 0
2, 286528, Note_on_c, 0, 86, 66
2, 286528, Note_on_c, 0, 74, 66
2, 286638, Note_on_c, 0, 74, 0
2, 286639, Note_on_c, 0, 86, 0
2, 286656, Note_on_c, 0, 73, 66
2, 286656, Note_on_c, 0, 85, 66
2, 286766, Note_on_c, 0, 73, 0
2, 286767, Note_on_c, 0, 85, 0
2, 286784, Note_on_c, 0, 84, 66
2, 286784, Note_on_c, 0, 72, 66
2, 286894, Note_on_c, 0, 72, 0
2, 286895, Note_on_c, 0, 84, 0
2, 286912, Note_on_c, 0, 71, 66
2, 286912, Note_on_c, 0, 83, 66
2, 287022, Note_on_c, 0, 71, 0
2, 287023, Note_on_c, 0, 83, 0
2, 287040, Note_on_c, 0, 62, 66
2, 287040, Note_on_c, 0, 70, 66
2, 287040, Note_on_c, 0, 82, 66
2, 287168, Note_on_c, 0, 82, 0
2, 287206, Note_on_c, 0, 70, 0
2, 287206, Note_on_c, 0, 62, 0
2, 287424, Note_on_c, 0, 71, 66
2, 287424, Note_on_c, 0, 79, 66
2, 287424, Note_on_c, 0, 83, 66
2, 287552, Note_on_c, 0, 83, 0
2, 287590, Note_on_c, 0, 79, 0
2, 287590, Note_on_c, 0, 71, 0
2, 287808, Note_on_c, 0, 72, 66
2, 287808, Note_on_c, 0, 79, 66
2, 287808, Note_on_c, 0, 84, 66
2, 287936, Note_on_c, 0, 84, 0
2, 287974, Note_on_c, 0, 79, 0
2, 287974, Note_on_c, 0, 72, 0
2, 288192, Note_on_c, 0, 86, 66
2, 288192, Note_on_c, 0, 62, 66
2, 288192, Note_on_c, 0, 68, 66
2, 288192, Note_on_c, 0, 80, 66
2, 288192, Note_on_c, 0, 74, 66
2, 288320, Note_on_c, 0, 80, 0
2, 288320, Note_on_c, 0, 62, 0
2, 288320, Note_on_c, 0, 86, 0
2, 288358, Note_on_c, 0, 68, 0
2, 288358, Note_on_c, 0, 74, 0
2, 288576, Note_on_c, 0, 75, 66
2, 288576, Note_on_c, 0, 82, 66
2, 288576, Note_on_c, 0, 79, 66
2, 288576, Note_on_c, 0, 70, 66
2, 288576, Note_on_c, 0, 91, 66
2, 288576, Note_on_c, 0, 63, 66
2, 288576, Note_on_c, 0, 67, 66
2, 288768, Note_on_c, 0, 67, 0
2, 288768, Note_on_c, 0, 91, 0
2, 288768, Note_on_c, 0, 82, 0
2, 288768, Note_on_c, 0, 79, 0
2, 288768, Note_on_c, 0, 75, 0
2, 288768, Note_on_c, 0, 63, 0
2, 288768, Note_on_c, 0, 70, 0
2, 288960, Note_on_c, 0, 70, 66
2, 288960, Note_on_c, 0, 62, 66
2, 288960, Note_on_c, 0, 89, 66
2, 288960, Note_on_c, 0, 77, 66
2, 289152, Note_on_c, 0, 77, 0
2, 289152, Note_on_c, 0, 70, 0
2, 289152, Note_on_c, 0, 62, 0
2, 289152, Note_on_c, 0, 89, 0
2, 289152, Note_on_c, 0, 62, 66
2, 289152, Note_on_c, 0, 74, 66
2, 289152, Note_on_c, 0, 86, 66
2, 289344, Note_on_c, 0, 86, 0
2, 289344, Note_on_c, 0, 74, 0
2, 289344, Note_on_c, 0, 62, 0
2, 289344, Note_on_c, 0, 75, 66
2, 289344, Note_on_c, 0, 91, 66
2, 289344, Note_on_c, 0, 67, 66
2, 289344, Note_on_c, 0, 82, 66
2, 289344, Note_on_c, 0, 79, 66
2, 289536, Note_on_c, 0, 79, 0
2, 289536, Note_on_c, 0, 67, 0
2, 289536, Note_on_c, 0, 75, 0
2, 289536, Note_on_c, 0, 91, 0
2, 289536, Note_on_c, 0, 82, 0
2, 289728, Note_on_c, 0, 77, 66
2, 289728, Note_on_c, 0, 70, 66
2, 289728, Note_on_c, 0, 89, 66
2, 289728, Note_on_c, 0, 62, 66
2, 289920, Note_on_c, 0, 62, 0
2, 289920, Note_on_c, 0, 77, 0
2, 289920, Note_on_c, 0, 70, 0
2, 289920, Note_on_c, 0, 89, 0
2, 289920, Note_on_c, 0, 74, 66
2, 289920, Note_on_c, 0, 86, 66
2, 289920, Note_on_c, 0, 62, 66
2, 290112, Note_on_c, 0, 62, 0
2, 290112, Note_on_c, 0, 86, 0
2, 290112, Note_on_c, 0, 74, 0
2, 290112, Note_on_c, 0, 67, 66
2, 290112, Note_on_c, 0, 75, 66
2, 290112, Note_on_c, 0, 87, 66
2, 290304, Note_on_c, 0, 87, 0
2, 290304, Note_on_c, 0, 75, 0
2, 290304, Note_on_c, 0, 67, 0
2, 290304, Note_on_c, 0, 86, 66
2, 290304, Note_on_c, 0, 77, 66
2, 290304, Note_on_c, 0, 68, 66
2, 290496, Note_on_c, 0, 68, 0
2, 290496, Note_on_c, 0, 77, 0
2, 290496, Note_on_c, 0, 86, 0
2, 290496, Note_on_c, 0, 87, 66
2, 290496, Note_on_c, 0, 70, 66
2, 290496, Note_on_c, 0, 79, 66
2, 290688, Note_on_c, 0, 79, 0
2, 290688, Note_on_c, 0, 70, 0
2, 290688, Note_on_c, 0, 87, 0
2, 290688, Note_on_c, 0, 86, 66
2, 290688, Note_on_c, 0, 68, 66
2, 290688, Note_on_c, 0, 77, 66
2, 290880, Note_on_c, 0, 77, 0
2, 290880, Note_on_c, 0, 68, 0
2, 290880, Note_on_c, 0, 86, 0
2, 290880, Note_on_c, 0, 87, 66
2, 290880, Note_on_c, 0, 67, 66
2, 290880, Note_on_c, 0, 75, 66
2, 291072, Note_on_c, 0, 75, 0
2, 291072, Note_on_c, 0, 67, 0
2, 291072, Note_on_c, 0, 87, 0
2, 291072, Note_on_c, 0, 77, 66
2, 291072, Note_on_c, 0, 86, 66
2, 291072, Note_on_c, 0, 68, 66
2, 291264, Note_on_c, 0, 68, 0
2, 291264, Note_on_c, 0, 86, 0
2, 291264, Note_on_c, 0, 77, 0
2, 291264, Note_on_c, 0, 70, 66
2, 291264, Note_on_c, 0, 87, 66
2, 291264, Note_on_c, 0, 79, 66
2, 291456, Note_on_c, 0, 79, 0
2, 291456, Note_on_c, 0, 87, 0
2, 291456, Note_on_c, 0, 70, 0
2, 291456, Note_on_c, 0, 77, 66
2, 291456, Note_on_c, 0, 86, 66
2, 291456, Note_on_c, 0, 68, 66
2, 291648, Note_on_c, 0, 68, 0
2, 291648, Note_on_c, 0, 86, 0
2, 291648, Note_on_c, 0, 77, 0
2, 291648, Note_on_c, 0, 79, 66
2, 291648, Note_on_c, 0, 87, 66
2, 291648, Note_on_c, 0, 70, 66
2, 291840, Note_on_c, 0, 70, 0
2, 291840, Note_on_c, 0, 87, 0
2, 291840, Note_on_c, 0, 79, 0
2, 291840, Note_on_c, 0, 62, 66
2, 291840, Note_on_c, 0, 71, 66
2, 291840, Note_on_c, 0, 86, 66
2, 291840, Note_on_c, 0, 79, 66
2, 292032, Note_on_c, 0, 79, 0
2, 292032, Note_on_c, 0, 62, 0
2, 292032, Note_on_c, 0, 71, 0
2, 292032, Note_on_c, 0, 86, 0
2, 292032, Note_on_c, 0, 87, 66
2, 292032, Note_on_c, 0, 79, 66
2, 292032, Note_on_c, 0, 72, 66
2, 292032, Note_on_c, 0, 63, 66
2, 292224, Note_on_c, 0, 63, 0
2, 292224, Note_on_c, 0, 87, 0
2, 292224, Note_on_c, 0, 79, 0
2, 292224, Note_on_c, 0, 72, 0
2, 292224, Note_on_c, 0, 62, 66
2, 292224, Note_on_c, 0, 79, 66
2, 292224, Note_on_c, 0, 71, 66
2, 292224, Note_on_c, 0, 86, 66
2, 292416, Note_on_c, 0, 86, 0
2, 292416, Note_on_c, 0, 62, 0
2, 292416, Note_on_c, 0, 79, 0
2, 292416, Note_on_c, 0, 71, 0
2, 292416, Note_on_c, 0, 79, 66
2, 292416, Note_on_c, 0, 63, 66
2, 292416, Note_on_c, 0, 72, 66
2, 292416, Note_on_c, 0, 87, 66
2, 292608, Note_on_c, 0, 87, 0
2, 292608, Note_on_c, 0, 79, 0
2, 292608, Note_on_c, 0, 63, 0
2, 292608, Note_on_c, 0, 72, 0
2, 292608, Note_on_c, 0, 71, 66
2, 292608, Note_on_c, 0, 79, 66
2, 292608, Note_on_c, 0, 62, 66
2, 292608, Note_on_c, 0, 86, 66
2, 292800, Note_on_c, 0, 86, 0
2, 292800, Note_on_c, 0, 71, 0
2, 292800, Note_on_c, 0, 79, 0
2, 292800, Note_on_c, 0, 62, 0
2, 292800, Note_on_c, 0, 87, 66
2, 292800, Note_on_c, 0, 79, 66
2, 292800, Note_on_c, 0, 63, 66
2, 292800, Note_on_c, 0, 72, 66
2, 292992, Note_on_c, 0, 72, 0
2, 292992, Note_on_c, 0, 87, 0
2, 292992, Note_on_c, 0, 79, 0
2, 292992, Note_on_c, 0, 63, 0
2, 292992, Note_on_c, 0, 82, 66
2, 292992, Note_on_c, 0, 86, 66
2, 293184, Note_on_c, 0, 86, 0
2, 293184, Note_on_c, 0, 82, 0
2, 293184, Note_on_c, 0, 87, 66
2, 293184, Note_on_c, 0, 82, 66
2, 293280, Note_on_c, 0, 82, 0
2, 293280, Note_on_c, 0, 87, 0
2, 293952, Note_on_c, 0, 87, 66
2, 293952, Note_on_c, 0, 91, 66
2, 293952, Note_on_c, 0, 79, 66
2, 294048, Note_on_c, 0, 79, 0
2, 294048, Note_on_c, 0, 91, 0
2, 294048, Note_on_c, 0, 87, 0
2, 294720, Note_on_c, 0, 87, 66
2, 294720, Note_on_c, 0, 79, 66
2, 294720, Note_on_c, 0, 82, 66
2, 294720, Note_on_c, 0, 75, 66
2, 294816, Note_on_c, 0, 75, 0
2, 294816, Note_on_c, 0, 87, 0
2, 294816, Note_on_c, 0, 79, 0
2, 294816, Note_on_c, 0, 82, 0
2, 295488, Note_on_c, 0, 70, 66
2, 295488, Note_on_c, 0, 75, 66
2, 295488, Note_on_c, 0, 79, 66
2, 295488, Note_on_c, 0, 67, 66
2, 295584, Note_on_c, 0, 67, 0
2, 295584, Note_on_c, 0, 70, 0
2, 295584, Note_on_c, 0, 75, 0
2, 295584, Note_on_c, 0, 79, 0
2, 296256, Note_on_c, 0, 75, 66
2, 296256, Note_on_c, 0, 67, 66
2, 296256, Note_on_c, 0, 70, 66
2, 296367, Note_on_c, 0, 70, 0
2, 296367, Note_on_c, 0, 67, 0
2, 296367, Note_on_c, 0, 75, 0
2, 296640, Note_on_c, 0, 63, 66
2, 296640, Note_on_c, 0, 55, 66
2, 296890, Note_on_c, 0, 55, 0
2, 296890, Note_on_c, 0, 63, 0
2, 296928, Note_on_c, 0, 63, 66
2, 296928, Note_on_c, 0, 55, 66
2, 297010, Note_on_c, 0, 55, 0
2, 297010, Note_on_c, 0, 63, 0
2, 297024, Note_on_c, 0, 67, 66
2, 297024, Note_on_c, 0, 58, 66
2, 297358, Note_on_c, 0, 58, 0
2, 297358, Note_on_c, 0, 67, 0
2, 297408, Note_on_c, 0, 63, 66
2, 297408, Note_on_c, 0, 70, 66
2, 297742, Note_on_c, 0, 70, 0
2, 297742, Note_on_c, 0, 63, 0
2, 297792, Note_on_c, 0, 67, 66
2, 297792, Note_on_c, 0, 58, 66
2, 297792, Note_on_c, 0, 55, 66
2, 297792, Note_on_c, 0, 75, 66
2, 297792, Note_on_c, 0, 63, 66
2, 297792, Note_on_c, 0, 70, 66
2, 298126, Note_on_c, 0, 70, 0
2, 298126, Note_on_c, 0, 67, 0
2, 298126, Note_on_c, 0, 75, 0
2, 298176, Note_on_c, 0, 58, 0
2, 298176, Note_on_c, 0, 63, 0
2, 298176, Note_on_c, 0, 55, 0
2, 298560, Note_on_c, 0, 63, 66
2, 298560, Note_on_c, 0, 75, 66
2, 298560, Note_on_c, 0, 79, 66
2, 298560, Note_on_c, 0, 55, 66
2, 298560, Note_on_c, 0, 70, 66
2, 298560, Note_on_c, 0, 58, 66
2, 298560, Note_on_c, 0, 55, 66
2, 298560, Note_on_c, 0, 70, 66
2, 298560, Note_on_c, 0, 63, 66
2, 298560, Note_on_c, 0, 67, 66
2, 298894, Note_on_c, 0, 70, 0
2, 298894, Note_on_c, 0, 79, 0
2, 298894, Note_on_c, 0, 75, 0
2, 298944, Note_on_c, 0, 63, 0
2, 298944, Note_on_c, 0, 55, 0
2, 298944, Note_on_c, 0, 58, 0
2, 298944, Note_on_c, 0, 67, 0
2, 298944, Note_on_c, 0, 63, 0
2, 298944, Note_on_c, 0, 70, 0
2, 298944, Note_on_c, 0, 55, 0
2, 299328, Note_on_c, 0, 63, 89
2, 299712, Note_on_c, 0, 63, 89
2, 299760, Note_on_c, 0, 63, 0
2, 299766, Note_on_c, 0, 65, 89
2, 299814, Note_on_c, 0, 65, 0
2, 299821, Note_on_c, 0, 67, 89
2, 299869, Note_on_c, 0, 67, 0
2, 299877, Note_on_c, 0, 68, 89
2, 299904, Note_on_c, 0, 63, 0
2, 299925, Note_on_c, 0, 68, 0
2, 299931, Note_on_c, 0, 70, 89
2, 299979, Note_on_c, 0, 70, 0
2, 299986, Note_on_c, 0, 72, 89
2, 300034, Note_on_c, 0, 72, 0
2, 300042, Note_on_c, 0, 74, 89
2, 300090, Note_on_c, 0, 74, 0
2, 300096, Note_on_c, 0, 75, 89
2, 300480, Note_on_c, 0, 75, 89
2, 300480, Note_on_c, 0, 63, 89
2, 300528, Note_on_c, 0, 63, 0
2, 300528, Note_on_c, 0, 75, 0
2, 300534, Note_on_c, 0, 65, 89
2, 300534, Note_on_c, 0, 77, 89
2, 300582, Note_on_c, 0, 77, 0
2, 300582, Note_on_c, 0, 65, 0
2, 300589, Note_on_c, 0, 79, 89
2, 300589, Note_on_c, 0, 67, 89
2, 300637, Note_on_c, 0, 67, 0
2, 300637, Note_on_c, 0, 79, 0
2, 300645, Note_on_c, 0, 80, 89
2, 300645, Note_on_c, 0, 68, 89
2, 300672, Note_on_c, 0, 75, 0
2, 300693, Note_on_c, 0, 68, 0
2, 300693, Note_on_c, 0, 80, 0
2, 300699, Note_on_c, 0, 82, 89
2, 300699, Note_on_c, 0, 70, 89
2, 300747, Note_on_c, 0, 70, 0
2, 300747, Note_on_c, 0, 82, 0
2, 300754, Note_on_c, 0, 72, 89
2, 300754, Note_on_c, 0, 84, 89
2, 300802, Note_on_c, 0, 84, 0
2, 300802, Note_on_c, 0, 72, 0
2, 300810, Note_on_c, 0, 74, 89
2, 300810, Note_on_c, 0, 86, 89
2, 300858, Note_on_c, 0, 86, 0
2, 300858, Note_on_c, 0, 74, 0
2, 300864, Note_on_c, 0, 87, 113
2, 300864, Note_on_c, 0, 75, 89
2, 300960, Note_on_c, 0, 75, 0
2, 300960, Note_on_c, 0, 87, 0
2, 301632, Note_on_c, 0, 63, 78
2, 302205, Note_on_c, 0, 63, 0
2, 302208, Note_on_c, 0, 63, 78
2, 302388, Note_on_c, 0, 63, 0
2, 302400, Note_on_c, 0, 63, 78
2, 303070, Note_on_c, 0, 63, 0
2, 303070, End_track
3, 0, Start_track
3, 0, MIDI_port, 0
3, 0, Title_t, "Sostennuto Strings"
3, 0, Program_c, 0, 48
3, 0, Control_c, 0, 7, 100
3, 0, Control_c, 0, 10, 33
3, 96, Program_c, 0, 48
3, 96, Control_c, 0, 7, 120
3, 19008, Note_on_c, 0, 55, 67
3, 19296, Note_on_c, 0, 55, 0
3, 19296, Note_on_c, 0, 59, 67
3, 19328, Note_on_c, 0, 59, 0
3, 19328, Note_on_c, 0, 59, 67
3, 19360, Note_on_c, 0, 59, 0
3, 19360, Note_on_c, 0, 59, 67
3, 19392, Note_on_c, 0, 59, 0
3, 19392, Note_on_c, 0, 62, 67
3, 19424, Note_on_c, 0, 62, 0
3, 19424, Note_on_c, 0, 62, 67
3, 19456, Note_on_c, 0, 62, 0
3, 19456, Note_on_c, 0, 62, 67
3, 19488, Note_on_c, 0, 62, 0
3, 19488, Note_on_c, 0, 67, 67
3, 19520, Note_on_c, 0, 67, 0
3, 19520, Note_on_c, 0, 67, 67
3, 19552, Note_on_c, 0, 67, 0
3, 19552, Note_on_c, 0, 67, 67
3, 19584, Note_on_c, 0, 67, 0
3, 20160, Note_on_c, 0, 72, 67
3, 20160, Note_on_c, 0, 84, 67
3, 20208, Note_on_c, 0, 84, 0
3, 20208, Note_on_c, 0, 72, 0
3, 20208, Note_on_c, 0, 63, 67
3, 20256, Note_on_c, 0, 63, 0
3, 20256, Note_on_c, 0, 63, 67
3, 20304, Note_on_c, 0, 63, 0
3, 20304, Note_on_c, 0, 63, 67
3, 20352, Note_on_c, 0, 63, 0
3, 20352, Note_on_c, 0, 63, 67
3, 20400, Note_on_c, 0, 63, 0
3, 20400, Note_on_c, 0, 63, 67
3, 20448, Note_on_c, 0, 63, 0
3, 20448, Note_on_c, 0, 63, 67
3, 20496, Note_on_c, 0, 63, 0
3, 20496, Note_on_c, 0, 63, 67
3, 20544, Note_on_c, 0, 63, 0
3, 20544, Note_on_c, 0, 63, 67
3, 20592, Note_on_c, 0, 63, 0
3, 20592, Note_on_c, 0, 63, 67
3, 20640, Note_on_c, 0, 63, 0
3, 20640, Note_on_c, 0, 63, 67
3, 20688, Note_on_c, 0, 63, 0
3, 20688, Note_on_c, 0, 63, 67
3, 20736, Note_on_c, 0, 63, 0
3, 20736, Note_on_c, 0, 63, 67
3, 20784, Note_on_c, 0, 63, 0
3, 20784, Note_on_c, 0, 63, 67
3, 20832, Note_on_c, 0, 63, 0
3, 20832, Note_on_c, 0, 63, 67
3, 20880, Note_on_c, 0, 63, 0
3, 20880, Note_on_c, 0, 63, 67
3, 20928, Note_on_c, 0, 63, 0
3, 20928, Note_on_c, 0, 63, 67
3, 20976, Note_on_c, 0, 63, 0
3, 20976, Note_on_c, 0, 63, 67
3, 21024, Note_on_c, 0, 63, 0
3, 21024, Note_on_c, 0, 63, 67
3, 21072, Note_on_c, 0, 63, 0
3, 21072, Note_on_c, 0, 63, 67
3, 21120, Note_on_c, 0, 63, 0
3, 21120, Note_on_c, 0, 63, 67
3, 21168, Note_on_c, 0, 63, 0
3, 21168, Note_on_c, 0, 63, 67
3, 21216, Note_on_c, 0, 63, 0
3, 21216, Note_on_c, 0, 63, 67
3, 21264, Note_on_c, 0, 63, 0
3, 21264, Note_on_c, 0, 63, 67
3, 21312, Note_on_c, 0, 63, 0
3, 21312, Note_on_c, 0, 63, 67
3, 21360, Note_on_c, 0, 63, 0
3, 21360, Note_on_c, 0, 63, 67
3, 21408, Note_on_c, 0, 63, 0
3, 21408, Note_on_c, 0, 63, 67
3, 21456, Note_on_c, 0, 63, 0
3, 21456, Note_on_c, 0, 63, 67
3, 21504, Note_on_c, 0, 63, 0
3, 21504, Note_on_c, 0, 63, 67
3, 21552, Note_on_c, 0, 63, 0
3, 21552, Note_on_c, 0, 63, 67
3, 21600, Note_on_c, 0, 63, 0
3, 21600, Note_on_c, 0, 63, 67
3, 21648, Note_on_c, 0, 63, 0
3, 21648, Note_on_c, 0, 63, 67
3, 21696, Note_on_c, 0, 63, 0
3, 21696, Note_on_c, 0, 63, 67
3, 21744, Note_on_c, 0, 63, 0
3, 21744, Note_on_c, 0, 63, 67
3, 21792, Note_on_c, 0, 63, 0
3, 21792, Note_on_c, 0, 63, 67
3, 21840, Note_on_c, 0, 63, 0
3, 21840, Note_on_c, 0, 63, 67
3, 21888, Note_on_c, 0, 63, 0
3, 21888, Note_on_c, 0, 63, 67
3, 21936, Note_on_c, 0, 63, 0
3, 21936, Note_on_c, 0, 63, 67
3, 21984, Note_on_c, 0, 63, 0
3, 21984, Note_on_c, 0, 63, 67
3, 22032, Note_on_c, 0, 63, 0
3, 22032, Note_on_c, 0, 63, 67
3, 22080, Note_on_c, 0, 63, 0
3, 22080, Note_on_c, 0, 63, 67
3, 22128, Note_on_c, 0, 63, 0
3, 22128, Note_on_c, 0, 63, 67
3, 22176, Note_on_c, 0, 63, 0
3, 22176, Note_on_c, 0, 63, 67
3, 22224, Note_on_c, 0, 63, 0
3, 22224, Note_on_c, 0, 63, 67
3, 22272, Note_on_c, 0, 63, 0
3, 22272, Note_on_c, 0, 63, 67
3, 22320, Note_on_c, 0, 63, 0
3, 22320, Note_on_c, 0, 63, 67
3, 22368, Note_on_c, 0, 63, 0
3, 22368, Note_on_c, 0, 63, 67
3, 22416, Note_on_c, 0, 63, 0
3, 22416, Note_on_c, 0, 63, 67
3, 22464, Note_on_c, 0, 63, 0
3, 22464, Note_on_c, 0, 63, 67
3, 22512, Note_on_c, 0, 63, 0
3, 25920, Note_on_c, 0, 63, 67
3, 25968, Note_on_c, 0, 63, 0
3, 25968, Note_on_c, 0, 63, 67
3, 26016, Note_on_c, 0, 63, 0
3, 26016, Note_on_c, 0, 63, 67
3, 26064, Note_on_c, 0, 63, 0
3, 26064, Note_on_c, 0, 63, 67
3, 26112, Note_on_c, 0, 63, 0
3, 26112, Note_on_c, 0, 63, 67
3, 26160, Note_on_c, 0, 63, 0
3, 26160, Note_on_c, 0, 63, 67
3, 26208, Note_on_c, 0, 63, 0
3, 26208, Note_on_c, 0, 63, 67
3, 26256, Note_on_c, 0, 63, 0
3, 26256, Note_on_c, 0, 63, 67
3, 26304, Note_on_c, 0, 63, 0
3, 26304, Note_on_c, 0, 63, 67
3, 26352, Note_on_c, 0, 63, 0
3, 26352, Note_on_c, 0, 63, 67
3, 26400, Note_on_c, 0, 63, 0
3, 26400, Note_on_c, 0, 63, 67
3, 26448, Note_on_c, 0, 63, 0
3, 26448, Note_on_c, 0, 63, 67
3, 26496, Note_on_c, 0, 63, 0
3, 26496, Note_on_c, 0, 63, 67
3, 26544, Note_on_c, 0, 63, 0
3, 26544, Note_on_c, 0, 63, 67
3, 26592, Note_on_c, 0, 63, 0
3, 26592, Note_on_c, 0, 63, 67
3, 26640, Note_on_c, 0, 63, 0
3, 26640, Note_on_c, 0, 63, 67
3, 26688, Note_on_c, 0, 63, 0
3, 26688, Note_on_c, 0, 63, 67
3, 26736, Note_on_c, 0, 63, 0
3, 26736, Note_on_c, 0, 63, 67
3, 26784, Note_on_c, 0, 63, 0
3, 26784, Note_on_c, 0, 63, 67
3, 26832, Note_on_c, 0, 63, 0
3, 26832, Note_on_c, 0, 63, 67
3, 26880, Note_on_c, 0, 63, 0
3, 26880, Note_on_c, 0, 63, 67
3, 26928, Note_on_c, 0, 63, 0
3, 26928, Note_on_c, 0, 63, 67
3, 26976, Note_on_c, 0, 63, 0
3, 26976, Note_on_c, 0, 63, 67
3, 27024, Note_on_c, 0, 63, 0
3, 27024, Note_on_c, 0, 63, 67
3, 27072, Note_on_c, 0, 63, 0
3, 27216, Note_on_c, 0, 58, 67
3, 27232, Note_on_c, 0, 58, 0
3, 27232, Note_on_c, 0, 60, 67
3, 27248, Note_on_c, 0, 60, 0
3, 27248, Note_on_c, 0, 62, 67
3, 27264, Note_on_c, 0, 62, 0
3, 27264, Note_on_c, 0, 63, 67
3, 27360, Note_on_c, 0, 63, 0
3, 27408, Note_on_c, 0, 62, 67
3, 27424, Note_on_c, 0, 62, 0
3, 27424, Note_on_c, 0, 63, 67
3, 27440, Note_on_c, 0, 63, 0
3, 27440, Note_on_c, 0, 65, 67
3, 27456, Note_on_c, 0, 65, 0
3, 27456, Note_on_c, 0, 66, 67
3, 27552, Note_on_c, 0, 66, 0
3, 27600, Note_on_c, 0, 66, 67
3, 27616, Note_on_c, 0, 66, 0
3, 27616, Note_on_c, 0, 68, 67
3, 27632, Note_on_c, 0, 68, 0
3, 27632, Note_on_c, 0, 69, 67
3, 27648, Note_on_c, 0, 69, 0
3, 27648, Note_on_c, 0, 70, 67
3, 27744, Note_on_c, 0, 70, 0
3, 27792, Note_on_c, 0, 70, 67
3, 27808, Note_on_c, 0, 70, 0
3, 27808, Note_on_c, 0, 71, 67
3, 27824, Note_on_c, 0, 71, 0
3, 27824, Note_on_c, 0, 73, 67
3, 27840, Note_on_c, 0, 73, 0
3, 27840, Note_on_c, 0, 75, 67
3, 27936, Note_on_c, 0, 75, 0
3, 27984, Note_on_c, 0, 75, 67
3, 28000, Note_on_c, 0, 75, 0
3, 28000, Note_on_c, 0, 77, 67
3, 28016, Note_on_c, 0, 77, 0
3, 28016, Note_on_c, 0, 78, 67
3, 28032, Note_on_c, 0, 78, 0
3, 28032, Note_on_c, 0, 79, 67
3, 28128, Note_on_c, 0, 79, 0
3, 28176, Note_on_c, 0, 79, 67
3, 28192, Note_on_c, 0, 79, 0
3, 28192, Note_on_c, 0, 80, 67
3, 28208, Note_on_c, 0, 80, 0
3, 28208, Note_on_c, 0, 82, 67
3, 28224, Note_on_c, 0, 82, 0
3, 28224, Note_on_c, 0, 83, 67
3, 28320, Note_on_c, 0, 83, 0
3, 29520, Note_on_c, 0, 59, 67
3, 29536, Note_on_c, 0, 59, 0
3, 29536, Note_on_c, 0, 61, 67
3, 29552, Note_on_c, 0, 61, 0
3, 29552, Note_on_c, 0, 62, 67
3, 29568, Note_on_c, 0, 62, 0
3, 29568, Note_on_c, 0, 63, 67
3, 29664, Note_on_c, 0, 63, 0
3, 29712, Note_on_c, 0, 63, 67
3, 29728, Note_on_c, 0, 63, 0
3, 29728, Note_on_c, 0, 64, 67
3, 29744, Note_on_c, 0, 64, 0
3, 29744, Note_on_c, 0, 66, 67
3, 29760, Note_on_c, 0, 66, 0
3, 29760, Note_on_c, 0, 68, 67
3, 29856, Note_on_c, 0, 68, 0
3, 29904, Note_on_c, 0, 68, 67
3, 29920, Note_on_c, 0, 68, 0
3, 29920, Note_on_c, 0, 69, 67
3, 29936, Note_on_c, 0, 69, 0
3, 29936, Note_on_c, 0, 70, 67
3, 29952, Note_on_c, 0, 70, 0
3, 29952, Note_on_c, 0, 71, 67
3, 30048, Note_on_c, 0, 71, 0
3, 30096, Note_on_c, 0, 72, 67
3, 30112, Note_on_c, 0, 72, 0
3, 30112, Note_on_c, 0, 73, 67
3, 30128, Note_on_c, 0, 73, 0
3, 30128, Note_on_c, 0, 75, 67
3, 30144, Note_on_c, 0, 75, 0
3, 30144, Note_on_c, 0, 76, 67
3, 30240, Note_on_c, 0, 76, 0
3, 30288, Note_on_c, 0, 76, 67
3, 30304, Note_on_c, 0, 76, 0
3, 30304, Note_on_c, 0, 78, 67
3, 30320, Note_on_c, 0, 78, 0
3, 30320, Note_on_c, 0, 79, 67
3, 30336, Note_on_c, 0, 79, 0
3, 30336, Note_on_c, 0, 80, 67
3, 30432, Note_on_c, 0, 80, 0
3, 30480, Note_on_c, 0, 80, 67
3, 30496, Note_on_c, 0, 80, 0
3, 30496, Note_on_c, 0, 81, 67
3, 30512, Note_on_c, 0, 81, 0
3, 30512, Note_on_c, 0, 83, 67
3, 30528, Note_on_c, 0, 83, 0
3, 30528, Note_on_c, 0, 68, 67
3, 30528, Note_on_c, 0, 85, 67
3, 30528, Note_on_c, 0, 61, 67
3, 30624, Note_on_c, 0, 61, 0
3, 30624, Note_on_c, 0, 85, 0
3, 30624, Note_on_c, 0, 68, 0
3, 30912, Note_on_c, 0, 74, 67
3, 30912, Note_on_c, 0, 86, 67
3, 31056, Note_on_c, 0, 86, 0
3, 31056, Note_on_c, 0, 74, 0
3, 31056, Note_on_c, 0, 85, 67
3, 31056, Note_on_c, 0, 73, 67
3, 31104, Note_on_c, 0, 73, 0
3, 31104, Note_on_c, 0, 85, 0
3, 31104, Note_on_c, 0, 78, 67
3, 31104, Note_on_c, 0, 66, 67
3, 31200, Note_on_c, 0, 66, 0
3, 31200, Note_on_c, 0, 78, 0
3, 31488, Note_on_c, 0, 88, 67
3, 31488, Note_on_c, 0, 76, 67
3, 31632, Note_on_c, 0, 76, 0
3, 31632, Note_on_c, 0, 88, 0
3, 31632, Note_on_c, 0, 86, 67
3, 31632, Note_on_c, 0, 74, 67
3, 31680, Note_on_c, 0, 74, 0
3, 31680, Note_on_c, 0, 86, 0
3, 31680, Note_on_c, 0, 79, 67
3, 31680, Note_on_c, 0, 67, 67
3, 31776, Note_on_c, 0, 67, 0
3, 31776, Note_on_c, 0, 79, 0
3, 32064, Note_on_c, 0, 89, 67
3, 32064, Note_on_c, 0, 77, 67
3, 32208, Note_on_c, 0, 77, 0
3, 32208, Note_on_c, 0, 89, 0
3, 32208, Note_on_c, 0, 76, 67
3, 32208, Note_on_c, 0, 88, 67
3, 32256, Note_on_c, 0, 88, 0
3, 32256, Note_on_c, 0, 76, 0
3, 32256, Note_on_c, 0, 76, 67
3, 32256, Note_on_c, 0, 64, 67
3, 32352, Note_on_c, 0, 64, 0
3, 32352, Note_on_c, 0, 76, 0
3, 32448, Note_on_c, 0, 79, 67
3, 32448, Note_on_c, 0, 91, 67
3, 32592, Note_on_c, 0, 91, 0
3, 32592, Note_on_c, 0, 79, 0
3, 32592, Note_on_c, 0, 78, 67
3, 32592, Note_on_c, 0, 90, 67
3, 32640, Note_on_c, 0, 90, 0
3, 32640, Note_on_c, 0, 78, 0
3, 32640, Note_on_c, 0, 66, 67
3, 32640, Note_on_c, 0, 78, 67
3, 32736, Note_on_c, 0, 78, 0
3, 32736, Note_on_c, 0, 66, 0
3, 33648, Note_on_c, 0, 60, 67
3, 33696, Note_on_c, 0, 60, 0
3, 33696, Note_on_c, 0, 61, 67
3, 33744, Note_on_c, 0, 61, 0
3, 33744, Note_on_c, 0, 63, 67
3, 33744, Note_on_c, 0, 60, 67
3, 33792, Note_on_c, 0, 60, 0
3, 33792, Note_on_c, 0, 63, 0
3, 33792, Note_on_c, 0, 61, 67
3, 33792, Note_on_c, 0, 64, 67
3, 33840, Note_on_c, 0, 64, 0
3, 33840, Note_on_c, 0, 61, 0
3, 33840, Note_on_c, 0, 63, 67
3, 33840, Note_on_c, 0, 72, 67
3, 33888, Note_on_c, 0, 72, 0
3, 33888, Note_on_c, 0, 63, 0
3, 33888, Note_on_c, 0, 73, 67
3, 33888, Note_on_c, 0, 64, 67
3, 33936, Note_on_c, 0, 64, 0
3, 33936, Note_on_c, 0, 73, 0
3, 33936, Note_on_c, 0, 75, 67
3, 33936, Note_on_c, 0, 68, 67
3, 33984, Note_on_c, 0, 68, 0
3, 33984, Note_on_c, 0, 75, 0
3, 33984, Note_on_c, 0, 73, 67
3, 33984, Note_on_c, 0, 76, 67
3, 34032, Note_on_c, 0, 76, 0
3, 34032, Note_on_c, 0, 73, 0
3, 34032, Note_on_c, 0, 73, 67
3, 34032, Note_on_c, 0, 64, 67
3, 34080, Note_on_c, 0, 64, 0
3, 34080, Note_on_c, 0, 73, 0
3, 34080, Note_on_c, 0, 73, 67
3, 34080, Note_on_c, 0, 80, 67
3, 34128, Note_on_c, 0, 80, 0
3, 34128, Note_on_c, 0, 73, 0
3, 34128, Note_on_c, 0, 73, 67
3, 34128, Note_on_c, 0, 68, 67
3, 34176, Note_on_c, 0, 68, 0
3, 34176, Note_on_c, 0, 73, 0
3, 34176, Note_on_c, 0, 76, 67
3, 34176, Note_on_c, 0, 85, 67
3, 34272, Note_on_c, 0, 85, 0
3, 34272, Note_on_c, 0, 76, 0
3, 35424, Note_on_c, 0, 77, 67
3, 35424, Note_on_c, 0, 71, 67
3, 35520, Note_on_c, 0, 71, 0
3, 35520, Note_on_c, 0, 77, 0
3, 35520, Note_on_c, 0, 71, 67
3, 35520, Note_on_c, 0, 78, 67
3, 35616, Note_on_c, 0, 78, 0
3, 35616, Note_on_c, 0, 71, 0
3, 35616, Note_on_c, 0, 71, 67
3, 35616, Note_on_c, 0, 80, 67
3, 35712, Note_on_c, 0, 80, 0
3, 35712, Note_on_c, 0, 71, 0
3, 35712, Note_on_c, 0, 69, 67
3, 35712, Note_on_c, 0, 81, 67
3, 35752, Note_on_c, 0, 81, 0
3, 35760, Note_on_c, 0, 69, 0
3, 35760, Note_on_c, 0, 78, 67
3, 35760, Note_on_c, 0, 69, 67
3, 35800, Note_on_c, 0, 78, 0
3, 35808, Note_on_c, 0, 69, 0
3, 35808, Note_on_c, 0, 69, 67
3, 35808, Note_on_c, 0, 73, 67
3, 35808, Note_on_c, 0, 66, 67
3, 35856, Note_on_c, 0, 66, 0
3, 35856, Note_on_c, 0, 73, 0
3, 35856, Note_on_c, 0, 69, 0
3, 35856, Note_on_c, 0, 69, 67
3, 35856, Note_on_c, 0, 66, 67
3, 35904, Note_on_c, 0, 66, 0
3, 35904, Note_on_c, 0, 69, 0
3, 35952, Note_on_c, 0, 65, 67
3, 35992, Note_on_c, 0, 65, 0
3, 36000, Note_on_c, 0, 66, 67
3, 36040, Note_on_c, 0, 66, 0
3, 36048, Note_on_c, 0, 65, 67
3, 36048, Note_on_c, 0, 68, 67
3, 36088, Note_on_c, 0, 68, 0
3, 36088, Note_on_c, 0, 65, 0
3, 36096, Note_on_c, 0, 69, 67
3, 36096, Note_on_c, 0, 66, 67
3, 36136, Note_on_c, 0, 66, 0
3, 36136, Note_on_c, 0, 69, 0
3, 36144, Note_on_c, 0, 77, 67
3, 36144, Note_on_c, 0, 68, 67
3, 36184, Note_on_c, 0, 68, 0
3, 36184, Note_on_c, 0, 77, 0
3, 36192, Note_on_c, 0, 69, 67
3, 36192, Note_on_c, 0, 78, 67
3, 36232, Note_on_c, 0, 78, 0
3, 36232, Note_on_c, 0, 69, 0
3, 36240, Note_on_c, 0, 80, 67
3, 36240, Note_on_c, 0, 73, 67
3, 36280, Note_on_c, 0, 73, 0
3, 36280, Note_on_c, 0, 80, 0
3, 36288, Note_on_c, 0, 81, 67
3, 36288, Note_on_c, 0, 78, 67
3, 36328, Note_on_c, 0, 78, 0
3, 36328, Note_on_c, 0, 81, 0
3, 36336, Note_on_c, 0, 78, 67
3, 36336, Note_on_c, 0, 69, 67
3, 36376, Note_on_c, 0, 78, 0
3, 36384, Note_on_c, 0, 69, 0
3, 36384, Note_on_c, 0, 78, 67
3, 36384, Note_on_c, 0, 85, 67
3, 36424, Note_on_c, 0, 85, 0
3, 36424, Note_on_c, 0, 78, 0
3, 36432, Note_on_c, 0, 73, 67
3, 36432, Note_on_c, 0, 78, 67
3, 36472, Note_on_c, 0, 78, 0
3, 36480, Note_on_c, 0, 73, 0
3, 36480, Note_on_c, 0, 81, 67
3, 36480, Note_on_c, 0, 90, 67
3, 36576, Note_on_c, 0, 90, 0
3, 36576, Note_on_c, 0, 81, 0
3, 37728, Note_on_c, 0, 82, 67
3, 37824, Note_on_c, 0, 82, 0
3, 37824, Note_on_c, 0, 83, 67
3, 37920, Note_on_c, 0, 83, 0
3, 37920, Note_on_c, 0, 85, 67
3, 38016, Note_on_c, 0, 85, 0
3, 38016, Note_on_c, 0, 86, 67
3, 38056, Note_on_c, 0, 86, 0
3, 38064, Note_on_c, 0, 83, 67
3, 38064, Note_on_c, 0, 78, 67
3, 38104, Note_on_c, 0, 83, 0
3, 38112, Note_on_c, 0, 78, 0
3, 38112, Note_on_c, 0, 74, 67
3, 38112, Note_on_c, 0, 78, 67
3, 38152, Note_on_c, 0, 78, 0
3, 38160, Note_on_c, 0, 74, 0
3, 38160, Note_on_c, 0, 71, 67
3, 38160, Note_on_c, 0, 74, 67
3, 38200, Note_on_c, 0, 74, 0
3, 38208, Note_on_c, 0, 71, 0
3, 38256, Note_on_c, 0, 72, 67
3, 38256, Note_on_c, 0, 66, 67
3, 38296, Note_on_c, 0, 66, 0
3, 38296, Note_on_c, 0, 72, 0
3, 38304, Note_on_c, 0, 78, 67
3, 38304, Note_on_c, 0, 72, 67
3, 38344, Note_on_c, 0, 72, 0
3, 38344, Note_on_c, 0, 78, 0
3, 38352, Note_on_c, 0, 84, 67
3, 38352, Note_on_c, 0, 78, 67
3, 38392, Note_on_c, 0, 78, 0
3, 38392, Note_on_c, 0, 84, 0
3, 38400, Note_on_c, 0, 79, 67
3, 38400, Note_on_c, 0, 83, 67
3, 38440, Note_on_c, 0, 83, 0
3, 38448, Note_on_c, 0, 79, 0
3, 38448, Note_on_c, 0, 79, 67
3, 38448, Note_on_c, 0, 71, 67
3, 38488, Note_on_c, 0, 79, 0
3, 38496, Note_on_c, 0, 71, 0
3, 38496, Note_on_c, 0, 71, 67
3, 38496, Note_on_c, 0, 79, 67
3, 38536, Note_on_c, 0, 79, 0
3, 38536, Note_on_c, 0, 71, 0
3, 38544, Note_on_c, 0, 83, 67
3, 38544, Note_on_c, 0, 83, 67
3, 38584, Note_on_c, 0, 83, 0
3, 38584, Note_on_c, 0, 83, 0
3, 38592, Note_on_c, 0, 86, 67
3, 38592, Note_on_c, 0, 80, 67
3, 38632, Note_on_c, 0, 80, 0
3, 38632, Note_on_c, 0, 86, 0
3, 38640, Note_on_c, 0, 74, 67
3, 38640, Note_on_c, 0, 68, 67
3, 38680, Note_on_c, 0, 68, 0
3, 38680, Note_on_c, 0, 74, 0
3, 38688, Note_on_c, 0, 74, 67
3, 38688, Note_on_c, 0, 80, 67
3, 38728, Note_on_c, 0, 80, 0
3, 38728, Note_on_c, 0, 74, 0
3, 38736, Note_on_c, 0, 80, 67
3, 38736, Note_on_c, 0, 86, 67
3, 38776, Note_on_c, 0, 86, 0
3, 38776, Note_on_c, 0, 80, 0
3, 38784, Note_on_c, 0, 81, 67
3, 38784, Note_on_c, 0, 85, 67
3, 38824, Note_on_c, 0, 85, 0
3, 38824, Note_on_c, 0, 81, 0
3, 38832, Note_on_c, 0, 81, 67
3, 38832, Note_on_c, 0, 73, 67
3, 38872, Note_on_c, 0, 73, 0
3, 38872, Note_on_c, 0, 81, 0
3, 38880, Note_on_c, 0, 73, 67
3, 38880, Note_on_c, 0, 81, 67
3, 38920, Note_on_c, 0, 81, 0
3, 38920, Note_on_c, 0, 73, 0
3, 38928, Note_on_c, 0, 85, 67
3, 38928, Note_on_c, 0, 81, 67
3, 38968, Note_on_c, 0, 81, 0
3, 38968, Note_on_c, 0, 85, 0
3, 38976, Note_on_c, 0, 88, 67
3, 38976, Note_on_c, 0, 82, 67
3, 39016, Note_on_c, 0, 82, 0
3, 39016, Note_on_c, 0, 88, 0
3, 39024, Note_on_c, 0, 70, 67
3, 39024, Note_on_c, 0, 76, 67
3, 39064, Note_on_c, 0, 76, 0
3, 39064, Note_on_c, 0, 70, 0
3, 39072, Note_on_c, 0, 82, 67
3, 39072, Note_on_c, 0, 76, 67
3, 39112, Note_on_c, 0, 76, 0
3, 39112, Note_on_c, 0, 82, 0
3, 39120, Note_on_c, 0, 82, 67
3, 39120, Note_on_c, 0, 88, 67
3, 39160, Note_on_c, 0, 88, 0
3, 39160, Note_on_c, 0, 82, 0
3, 39168, Note_on_c, 0, 83, 67
3, 39168, Note_on_c, 0, 86, 67
3, 39208, Note_on_c, 0, 86, 0
3, 39208, Note_on_c, 0, 83, 0
3, 39216, Note_on_c, 0, 74, 67
3, 39216, Note_on_c, 0, 83, 67
3, 39256, Note_on_c, 0, 83, 0
3, 39256, Note_on_c, 0, 74, 0
3, 39264, Note_on_c, 0, 83, 67
3, 39264, Note_on_c, 0, 74, 67
3, 39304, Note_on_c, 0, 83, 0
3, 39312, Note_on_c, 0, 74, 0
3, 39312, Note_on_c, 0, 86, 67
3, 39312, Note_on_c, 0, 83, 67
3, 39352, Note_on_c, 0, 86, 0
3, 39360, Note_on_c, 0, 83, 0
3, 39360, Note_on_c, 0, 78, 67
3, 39360, Note_on_c, 0, 84, 67
3, 39442, Note_on_c, 0, 84, 0
3, 39442, Note_on_c, 0, 78, 0
3, 39456, Note_on_c, 0, 60, 67
3, 39552, Note_on_c, 0, 60, 0
3, 39552, Note_on_c, 0, 63, 67
3, 39634, Note_on_c, 0, 63, 0
3, 39648, Note_on_c, 0, 66, 67
3, 39730, Note_on_c, 0, 66, 0
3, 39744, Note_on_c, 0, 63, 67
3, 39744, Note_on_c, 0, 69, 67
3, 39744, Note_on_c, 0, 66, 67
3, 39826, Note_on_c, 0, 69, 0
3, 39826, Note_on_c, 0, 63, 0
3, 39840, Note_on_c, 0, 66, 0
3, 39840, Note_on_c, 0, 63, 67
3, 39840, Note_on_c, 0, 72, 67
3, 39840, Note_on_c, 0, 66, 67
3, 39922, Note_on_c, 0, 66, 0
3, 39922, Note_on_c, 0, 72, 0
3, 39936, Note_on_c, 0, 63, 0
3, 39936, Note_on_c, 0, 63, 67
3, 39936, Note_on_c, 0, 75, 67
3, 39936, Note_on_c, 0, 72, 67
3, 40018, Note_on_c, 0, 72, 0
3, 40018, Note_on_c, 0, 75, 0
3, 40032, Note_on_c, 0, 63, 0
3, 40032, Note_on_c, 0, 78, 67
3, 40032, Note_on_c, 0, 69, 67
3, 40032, Note_on_c, 0, 72, 67
3, 40114, Note_on_c, 0, 72, 0
3, 40114, Note_on_c, 0, 78, 0
3, 40128, Note_on_c, 0, 69, 0
3, 40128, Note_on_c, 0, 75, 67
3, 40128, Note_on_c, 0, 81, 67
3, 40128, Note_on_c, 0, 66, 67
3, 40128, Note_on_c, 0, 69, 67
3, 40210, Note_on_c, 0, 81, 0
3, 40224, Note_on_c, 0, 75, 0
3, 40224, Note_on_c, 0, 66, 0
3, 40224, Note_on_c, 0, 69, 0
3, 40224, Note_on_c, 0, 87, 67
3, 40224, Note_on_c, 0, 75, 67
3, 40224, Note_on_c, 0, 69, 67
3, 40224, Note_on_c, 0, 66, 67
3, 40306, Note_on_c, 0, 87, 0
3, 40320, Note_on_c, 0, 75, 0
3, 40320, Note_on_c, 0, 69, 0
3, 40320, Note_on_c, 0, 66, 0
3, 40320, Note_on_c, 0, 78, 67
3, 40320, Note_on_c, 0, 90, 67
3, 40320, Note_on_c, 0, 63, 67
3, 40320, Note_on_c, 0, 70, 67
3, 40486, Note_on_c, 0, 90, 0
3, 40486, Note_on_c, 0, 78, 0
3, 40512, Note_on_c, 0, 63, 0
3, 40512, Note_on_c, 0, 70, 0
3, 40512, Note_on_c, 0, 90, 67
3, 40512, Note_on_c, 0, 78, 67
3, 40512, Note_on_c, 0, 72, 67
3, 40512, Note_on_c, 0, 63, 67
3, 40678, Note_on_c, 0, 78, 0
3, 40678, Note_on_c, 0, 90, 0
3, 40704, Note_on_c, 0, 72, 0
3, 40704, Note_on_c, 0, 63, 0
3, 47280, Note_on_c, 0, 82, 67
3, 47280, Note_on_c, 0, 70, 67
3, 47328, Note_on_c, 0, 70, 0
3, 47328, Note_on_c, 0, 82, 0
3, 47328, Note_on_c, 0, 72, 67
3, 47328, Note_on_c, 0, 84, 67
3, 47376, Note_on_c, 0, 84, 0
3, 47376, Note_on_c, 0, 72, 0
3, 47376, Note_on_c, 0, 86, 67
3, 47376, Note_on_c, 0, 74, 67
3, 47376, Note_on_c, 0, 86, 67
3, 47424, Note_on_c, 0, 86, 0
3, 47424, Note_on_c, 0, 74, 0
3, 47424, Note_on_c, 0, 86, 0
3, 47424, Note_on_c, 0, 87, 67
3, 47424, Note_on_c, 0, 75, 67
3, 47424, Note_on_c, 0, 87, 67
3, 47472, Note_on_c, 0, 87, 0
3, 47472, Note_on_c, 0, 75, 0
3, 47472, Note_on_c, 0, 87, 0
3, 47472, Note_on_c, 0, 89, 67
3, 47472, Note_on_c, 0, 77, 67
3, 47472, Note_on_c, 0, 77, 67
3, 47520, Note_on_c, 0, 77, 0
3, 47520, Note_on_c, 0, 77, 0
3, 47520, Note_on_c, 0, 89, 0
3, 47520, Note_on_c, 0, 79, 67
3, 47520, Note_on_c, 0, 91, 67
3, 47568, Note_on_c, 0, 91, 0
3, 47568, Note_on_c, 0, 79, 0
3, 47568, Note_on_c, 0, 92, 67
3, 47568, Note_on_c, 0, 80, 67
3, 47616, Note_on_c, 0, 80, 0
3, 47616, Note_on_c, 0, 92, 0
3, 47616, Note_on_c, 0, 94, 67
3, 47616, Note_on_c, 0, 82, 67
3, 48118, Note_on_c, 0, 94, 0
3, 48256, Note_on_c, 0, 82, 0
3, 48256, Note_on_c, 0, 93, 67
3, 48256, Note_on_c, 0, 81, 67
3, 48288, Note_on_c, 0, 82, 67
3, 48310, Note_on_c, 0, 81, 0
3, 48310, Note_on_c, 0, 93, 0
3, 48320, Note_on_c, 0, 94, 67
3, 48352, Note_on_c, 0, 82, 0
3, 48384, Note_on_c, 0, 94, 0
3, 48384, Note_on_c, 0, 94, 67
3, 48384, Note_on_c, 0, 82, 67
3, 48576, Note_on_c, 0, 82, 0
3, 48576, Note_on_c, 0, 94, 0
3, 48576, Note_on_c, 0, 75, 67
3, 48576, Note_on_c, 0, 87, 67
3, 49024, Note_on_c, 0, 87, 0
3, 49024, Note_on_c, 0, 75, 0
3, 49024, Note_on_c, 0, 86, 67
3, 49024, Note_on_c, 0, 74, 67
3, 49088, Note_on_c, 0, 74, 0
3, 49088, Note_on_c, 0, 86, 0
3, 49088, Note_on_c, 0, 85, 67
3, 49088, Note_on_c, 0, 73, 67
3, 49152, Note_on_c, 0, 73, 0
3, 49152, Note_on_c, 0, 85, 0
3, 49152, Note_on_c, 0, 84, 67
3, 49152, Note_on_c, 0, 72, 67
3, 49654, Note_on_c, 0, 72, 0
3, 49728, Note_on_c, 0, 84, 0
3, 49728, Note_on_c, 0, 73, 67
3, 49728, Note_on_c, 0, 85, 67
3, 49792, Note_on_c, 0, 85, 0
3, 49792, Note_on_c, 0, 73, 0
3, 49792, Note_on_c, 0, 72, 67
3, 49792, Note_on_c, 0, 84, 67
3, 49856, Note_on_c, 0, 84, 0
3, 49856, Note_on_c, 0, 72, 0
3, 49856, Note_on_c, 0, 71, 67
3, 49856, Note_on_c, 0, 83, 67
3, 49920, Note_on_c, 0, 83, 0
3, 49920, Note_on_c, 0, 71, 0
3, 49920, Note_on_c, 0, 82, 67
3, 49920, Note_on_c, 0, 70, 67
3, 50422, Note_on_c, 0, 70, 0
3, 50422, Note_on_c, 0, 82, 0
3, 50496, Note_on_c, 0, 82, 67
3, 50496, Note_on_c, 0, 79, 67
3, 50560, Note_on_c, 0, 79, 0
3, 50560, Note_on_c, 0, 82, 0
3, 50560, Note_on_c, 0, 79, 67
3, 50560, Note_on_c, 0, 75, 67
3, 50624, Note_on_c, 0, 75, 0
3, 50624, Note_on_c, 0, 79, 0
3, 50624, Note_on_c, 0, 75, 67
3, 50624, Note_on_c, 0, 70, 67
3, 50688, Note_on_c, 0, 70, 0
3, 50688, Note_on_c, 0, 75, 0
3, 50688, Note_on_c, 0, 67, 67
3, 50688, Note_on_c, 0, 70, 67
3, 50784, Note_on_c, 0, 70, 0
3, 50784, Note_on_c, 0, 67, 0
3, 51264, Note_on_c, 0, 79, 67
3, 51264, Note_on_c, 0, 75, 67
3, 51328, Note_on_c, 0, 75, 0
3, 51328, Note_on_c, 0, 79, 0
3, 51328, Note_on_c, 0, 75, 67
3, 51328, Note_on_c, 0, 70, 67
3, 51392, Note_on_c, 0, 70, 0
3, 51392, Note_on_c, 0, 75, 0
3, 51392, Note_on_c, 0, 70, 67
3, 51392, Note_on_c, 0, 67, 67
3, 51456, Note_on_c, 0, 67, 0
3, 51456, Note_on_c, 0, 70, 0
3, 51456, Note_on_c, 0, 67, 67
3, 51456, Note_on_c, 0, 63, 67
3, 51552, Note_on_c, 0, 63, 0
3, 51552, Note_on_c, 0, 67, 0
3, 52032, Note_on_c, 0, 75, 67
3, 52032, Note_on_c, 0, 79, 67
3, 52032, Note_on_c, 0, 75, 67
3, 52086, Note_on_c, 0, 75, 0
3, 52096, Note_on_c, 0, 75, 0
3, 52096, Note_on_c, 0, 79, 0
3, 52096, Note_on_c, 0, 70, 67
3, 52096, Note_on_c, 0, 75, 67
3, 52160, Note_on_c, 0, 75, 0
3, 52160, Note_on_c, 0, 70, 0
3, 52160, Note_on_c, 0, 67, 67
3, 52160, Note_on_c, 0, 70, 67
3, 52224, Note_on_c, 0, 70, 0
3, 52224, Note_on_c, 0, 67, 0
3, 52224, Note_on_c, 0, 63, 67
3, 52224, Note_on_c, 0, 66, 67
3, 52320, Note_on_c, 0, 66, 0
3, 52320, Note_on_c, 0, 63, 0
3, 52560, Note_on_c, 0, 59, 67
3, 52600, Note_on_c, 0, 59, 0
3, 52608, Note_on_c, 0, 71, 67
3, 52774, Note_on_c, 0, 71, 0
3, 52800, Note_on_c, 0, 54, 46
3, 52800, Note_on_c, 0, 59, 46
3, 52800, Note_on_c, 0, 57, 46
3, 52966, Note_on_c, 0, 57, 0
3, 52966, Note_on_c, 0, 59, 0
3, 52966, Note_on_c, 0, 54, 0
3, 53328, Note_on_c, 0, 59, 67
3, 53368, Note_on_c, 0, 59, 0
3, 53376, Note_on_c, 0, 71, 67
3, 53542, Note_on_c, 0, 71, 0
3, 53568, Note_on_c, 0, 59, 46
3, 53568, Note_on_c, 0, 57, 46
3, 53568, Note_on_c, 0, 54, 46
3, 53734, Note_on_c, 0, 54, 0
3, 53734, Note_on_c, 0, 57, 0
3, 53734, Note_on_c, 0, 59, 0
3, 54096, Note_on_c, 0, 59, 67
3, 54136, Note_on_c, 0, 59, 0
3, 54144, Note_on_c, 0, 71, 67
3, 54478, Note_on_c, 0, 71, 0
3, 54864, Note_on_c, 0, 59, 67
3, 54904, Note_on_c, 0, 59, 0
3, 54912, Note_on_c, 0, 71, 67
3, 55246, Note_on_c, 0, 71, 0
3, 55296, Note_on_c, 0, 57, 60
3, 55296, Note_on_c, 0, 66, 67
3, 55440, Note_on_c, 0, 59, 67
3, 55480, Note_on_c, 0, 59, 0
3, 55488, Note_on_c, 0, 71, 67
3, 55680, Note_on_c, 0, 66, 0
3, 55680, Note_on_c, 0, 57, 0
3, 55680, Note_on_c, 0, 57, 67
3, 55680, Note_on_c, 0, 66, 67
3, 55776, Note_on_c, 0, 71, 0
3, 55824, Note_on_c, 0, 59, 67
3, 55864, Note_on_c, 0, 59, 0
3, 55872, Note_on_c, 0, 71, 67
3, 56064, Note_on_c, 0, 66, 0
3, 56064, Note_on_c, 0, 57, 0
3, 56064, Note_on_c, 0, 66, 67
3, 56064, Note_on_c, 0, 57, 67
3, 56160, Note_on_c, 0, 71, 0
3, 56208, Note_on_c, 0, 59, 67
3, 56248, Note_on_c, 0, 59, 0
3, 56256, Note_on_c, 0, 71, 67
3, 56640, Note_on_c, 0, 57, 0
3, 56640, Note_on_c, 0, 66, 0
3, 56717, Note_on_c, 0, 71, 0
3, 56784, Note_on_c, 0, 59, 67
3, 56824, Note_on_c, 0, 59, 0
3, 56832, Note_on_c, 0, 59, 67
3, 57586, Note_on_c, 0, 59, 0
3, 58944, Note_on_c, 0, 59, 67
3, 59004, Note_on_c, 0, 59, 0
3, 59136, Note_on_c, 0, 71, 67
3, 59232, Note_on_c, 0, 68, 67
3, 59292, Note_on_c, 0, 68, 0
3, 59328, Note_on_c, 0, 65, 67
3, 59376, Note_on_c, 0, 70, 67
3, 59388, Note_on_c, 0, 71, 0
3, 59416, Note_on_c, 0, 70, 0
3, 59424, Note_on_c, 0, 65, 0
3, 59424, Note_on_c, 0, 68, 67
3, 59424, Note_on_c, 0, 62, 67
3, 59464, Note_on_c, 0, 68, 0
3, 59472, Note_on_c, 0, 70, 67
3, 59484, Note_on_c, 0, 62, 0
3, 59512, Note_on_c, 0, 70, 0
3, 59520, Note_on_c, 0, 68, 67
3, 59560, Note_on_c, 0, 68, 0
3, 59568, Note_on_c, 0, 66, 67
3, 59608, Note_on_c, 0, 66, 0
3, 59616, Note_on_c, 0, 65, 67
3, 59656, Note_on_c, 0, 65, 0
3, 59664, Note_on_c, 0, 63, 67
3, 59704, Note_on_c, 0, 63, 0
3, 59712, Note_on_c, 0, 62, 67
3, 59772, Note_on_c, 0, 62, 0
3, 59808, Note_on_c, 0, 59, 67
3, 59808, Note_on_c, 0, 65, 67
3, 59868, Note_on_c, 0, 65, 0
3, 59868, Note_on_c, 0, 59, 0
3, 59904, Note_on_c, 0, 59, 67
3, 59964, Note_on_c, 0, 59, 0
3, 60000, Note_on_c, 0, 57, 67
3, 60000, Note_on_c, 0, 63, 67
3, 60060, Note_on_c, 0, 63, 0
3, 60060, Note_on_c, 0, 57, 0
3, 60096, Note_on_c, 0, 56, 67
3, 60156, Note_on_c, 0, 56, 0
3, 60192, Note_on_c, 0, 59, 67
3, 60252, Note_on_c, 0, 59, 0
3, 60768, Note_on_c, 0, 58, 67
3, 60850, Note_on_c, 0, 58, 0
3, 60864, Note_on_c, 0, 58, 67
3, 60960, Note_on_c, 0, 58, 0
3, 61152, Note_on_c, 0, 58, 67
3, 61234, Note_on_c, 0, 58, 0
3, 61248, Note_on_c, 0, 58, 67
3, 61330, Note_on_c, 0, 58, 0
3, 61536, Note_on_c, 0, 58, 67
3, 61536, Note_on_c, 0, 63, 67
3, 61618, Note_on_c, 0, 63, 0
3, 61618, Note_on_c, 0, 58, 0
3, 61632, Note_on_c, 0, 57, 67
3, 61632, Note_on_c, 0, 63, 67
3, 61714, Note_on_c, 0, 63, 0
3, 61714, Note_on_c, 0, 57, 0
3, 61920, Note_on_c, 0, 66, 67
3, 61920, Note_on_c, 0, 57, 67
3, 61920, Note_on_c, 0, 63, 67
3, 62002, Note_on_c, 0, 63, 0
3, 62002, Note_on_c, 0, 66, 0
3, 62016, Note_on_c, 0, 57, 0
3, 62016, Note_on_c, 0, 58, 67
3, 62016, Note_on_c, 0, 63, 67
3, 62016, Note_on_c, 0, 66, 67
3, 62098, Note_on_c, 0, 66, 0
3, 62098, Note_on_c, 0, 63, 0
3, 62112, Note_on_c, 0, 58, 0
3, 62592, Note_on_c, 0, 59, 67
3, 62592, Note_on_c, 0, 63, 67
3, 62717, Note_on_c, 0, 63, 0
3, 62717, Note_on_c, 0, 59, 0
3, 62736, Note_on_c, 0, 65, 67
3, 62776, Note_on_c, 0, 65, 0
3, 62784, Note_on_c, 0, 63, 67
3, 62824, Note_on_c, 0, 63, 0
3, 62832, Note_on_c, 0, 58, 67
3, 62872, Note_on_c, 0, 58, 0
3, 62880, Note_on_c, 0, 59, 67
3, 62920, Note_on_c, 0, 59, 0
3, 62928, Note_on_c, 0, 61, 67
3, 62968, Note_on_c, 0, 61, 0
3, 62976, Note_on_c, 0, 63, 67
3, 63016, Note_on_c, 0, 63, 0
3, 63024, Note_on_c, 0, 61, 67
3, 63064, Note_on_c, 0, 61, 0
3, 63072, Note_on_c, 0, 63, 67
3, 63112, Note_on_c, 0, 63, 0
3, 63120, Note_on_c, 0, 65, 67
3, 63160, Note_on_c, 0, 65, 0
3, 63168, Note_on_c, 0, 66, 67
3, 63208, Note_on_c, 0, 66, 0
3, 63216, Note_on_c, 0, 65, 67
3, 63256, Note_on_c, 0, 65, 0
3, 63264, Note_on_c, 0, 66, 67
3, 63304, Note_on_c, 0, 66, 0
3, 63312, Note_on_c, 0, 68, 67
3, 63352, Note_on_c, 0, 68, 0
3, 63360, Note_on_c, 0, 70, 67
3, 63360, Note_on_c, 0, 65, 67
3, 63504, Note_on_c, 0, 68, 67
3, 63544, Note_on_c, 0, 68, 0
3, 63552, Note_on_c, 0, 65, 0
3, 63552, Note_on_c, 0, 66, 67
3, 63552, Note_on_c, 0, 63, 67
3, 63592, Note_on_c, 0, 63, 0
3, 63600, Note_on_c, 0, 63, 67
3, 63640, Note_on_c, 0, 63, 0
3, 63648, Note_on_c, 0, 66, 0
3, 63648, Note_on_c, 0, 70, 0
3, 63648, Note_on_c, 0, 65, 67
3, 63688, Note_on_c, 0, 65, 0
3, 63696, Note_on_c, 0, 66, 67
3, 63736, Note_on_c, 0, 66, 0
3, 63744, Note_on_c, 0, 68, 67
3, 63784, Note_on_c, 0, 68, 0
3, 63792, Note_on_c, 0, 66, 67
3, 63832, Note_on_c, 0, 66, 0
3, 63840, Note_on_c, 0, 68, 67
3, 63880, Note_on_c, 0, 68, 0
3, 63888, Note_on_c, 0, 70, 67
3, 63928, Note_on_c, 0, 70, 0
3, 63936, Note_on_c, 0, 72, 67
3, 63976, Note_on_c, 0, 72, 0
3, 63984, Note_on_c, 0, 70, 67
3, 64024, Note_on_c, 0, 70, 0
3, 64032, Note_on_c, 0, 72, 67
3, 64072, Note_on_c, 0, 72, 0
3, 64080, Note_on_c, 0, 73, 67
3, 64120, Note_on_c, 0, 73, 0
3, 64128, Note_on_c, 0, 75, 67
3, 64128, Note_on_c, 0, 69, 67
3, 64224, Note_on_c, 0, 69, 0
3, 64224, Note_on_c, 0, 70, 67
3, 64320, Note_on_c, 0, 70, 0
3, 64320, Note_on_c, 0, 71, 67
3, 64416, Note_on_c, 0, 71, 0
3, 64416, Note_on_c, 0, 75, 0
3, 64416, Note_on_c, 0, 78, 67
3, 64416, Note_on_c, 0, 71, 67
3, 64476, Note_on_c, 0, 71, 0
3, 64476, Note_on_c, 0, 78, 0
3, 64512, Note_on_c, 0, 74, 67
3, 64512, Note_on_c, 0, 68, 67
3, 64608, Note_on_c, 0, 68, 0
3, 64608, Note_on_c, 0, 74, 0
3, 64608, Note_on_c, 0, 70, 67
3, 64608, Note_on_c, 0, 75, 67
3, 64704, Note_on_c, 0, 75, 0
3, 64704, Note_on_c, 0, 70, 0
3, 64704, Note_on_c, 0, 65, 67
3, 64704, Note_on_c, 0, 70, 67
3, 64800, Note_on_c, 0, 70, 0
3, 64800, Note_on_c, 0, 65, 0
3, 64800, Note_on_c, 0, 66, 67
3, 64800, Note_on_c, 0, 71, 67
3, 64896, Note_on_c, 0, 71, 0
3, 64896, Note_on_c, 0, 66, 0
3, 64896, Note_on_c, 0, 59, 67
3, 64896, Note_on_c, 0, 65, 67
3, 64992, Note_on_c, 0, 65, 0
3, 64992, Note_on_c, 0, 59, 0
3, 64992, Note_on_c, 0, 66, 67
3, 64992, Note_on_c, 0, 60, 67
3, 65088, Note_on_c, 0, 60, 0
3, 65088, Note_on_c, 0, 66, 0
3, 65088, Note_on_c, 0, 62, 67
3, 65088, Note_on_c, 0, 56, 67
3, 65184, Note_on_c, 0, 56, 0
3, 65184, Note_on_c, 0, 62, 0
3, 65184, Note_on_c, 0, 59, 67
3, 65280, Note_on_c, 0, 59, 0
3, 65280, Note_on_c, 0, 71, 67
3, 65376, Note_on_c, 0, 68, 67
3, 65472, Note_on_c, 0, 68, 0
3, 65472, Note_on_c, 0, 65, 67
3, 65488, Note_on_c, 0, 71, 0
3, 65520, Note_on_c, 0, 70, 67
3, 65560, Note_on_c, 0, 70, 0
3, 65568, Note_on_c, 0, 65, 0
3, 65568, Note_on_c, 0, 68, 67
3, 65568, Note_on_c, 0, 62, 67
3, 65608, Note_on_c, 0, 68, 0
3, 65616, Note_on_c, 0, 70, 67
3, 65656, Note_on_c, 0, 70, 0
3, 65664, Note_on_c, 0, 62, 0
3, 65664, Note_on_c, 0, 68, 67
3, 65704, Note_on_c, 0, 68, 0
3, 65712, Note_on_c, 0, 66, 67
3, 65752, Note_on_c, 0, 66, 0
3, 65760, Note_on_c, 0, 65, 67
3, 65800, Note_on_c, 0, 65, 0
3, 65808, Note_on_c, 0, 63, 67
3, 65848, Note_on_c, 0, 63, 0
3, 65856, Note_on_c, 0, 62, 67
3, 65938, Note_on_c, 0, 62, 0
3, 65952, Note_on_c, 0, 59, 67
3, 65952, Note_on_c, 0, 65, 67
3, 66034, Note_on_c, 0, 65, 0
3, 66048, Note_on_c, 0, 59, 0
3, 66048, Note_on_c, 0, 59, 67
3, 66130, Note_on_c, 0, 59, 0
3, 66144, Note_on_c, 0, 56, 67
3, 66144, Note_on_c, 0, 63, 67
3, 66226, Note_on_c, 0, 63, 0
3, 66240, Note_on_c, 0, 56, 0
3, 66240, Note_on_c, 0, 56, 67
3, 66322, Note_on_c, 0, 56, 0
3, 66336, Note_on_c, 0, 59, 67
3, 66418, Note_on_c, 0, 59, 0
3, 66672, Note_on_c, 0, 58, 67
3, 66712, Note_on_c, 0, 58, 0
3, 66720, Note_on_c, 0, 60, 67
3, 66760, Note_on_c, 0, 60, 0
3, 66768, Note_on_c, 0, 62, 67
3, 66808, Note_on_c, 0, 62, 0
3, 66816, Note_on_c, 0, 63, 67
3, 66912, Note_on_c, 0, 58, 67
3, 67008, Note_on_c, 0, 58, 0
3, 67008, Note_on_c, 0, 58, 67
3, 67024, Note_on_c, 0, 63, 0
3, 67056, Note_on_c, 0, 62, 67
3, 67096, Note_on_c, 0, 62, 0
3, 67104, Note_on_c, 0, 58, 0
3, 67104, Note_on_c, 0, 63, 67
3, 67144, Note_on_c, 0, 63, 0
3, 67152, Note_on_c, 0, 65, 67
3, 67192, Note_on_c, 0, 65, 0
3, 67200, Note_on_c, 0, 68, 67
3, 67240, Note_on_c, 0, 68, 0
3, 67248, Note_on_c, 0, 66, 67
3, 67288, Note_on_c, 0, 66, 0
3, 67296, Note_on_c, 0, 63, 67
3, 67296, Note_on_c, 0, 58, 67
3, 67392, Note_on_c, 0, 58, 0
3, 67392, Note_on_c, 0, 63, 0
3, 67392, Note_on_c, 0, 63, 67
3, 67392, Note_on_c, 0, 58, 67
3, 67440, Note_on_c, 0, 63, 67
3, 67480, Note_on_c, 0, 63, 0
3, 67488, Note_on_c, 0, 63, 0
3, 67488, Note_on_c, 0, 58, 0
3, 67488, Note_on_c, 0, 65, 67
3, 67528, Note_on_c, 0, 65, 0
3, 67536, Note_on_c, 0, 66, 67
3, 67576, Note_on_c, 0, 66, 0
3, 67584, Note_on_c, 0, 68, 67
3, 67680, Note_on_c, 0, 63, 67
3, 67680, Note_on_c, 0, 56, 67
3, 67776, Note_on_c, 0, 56, 0
3, 67776, Note_on_c, 0, 63, 0
3, 67776, Note_on_c, 0, 58, 67
3, 67776, Note_on_c, 0, 63, 67
3, 67792, Note_on_c, 0, 68, 0
3, 67824, Note_on_c, 0, 67, 67
3, 67864, Note_on_c, 0, 67, 0
3, 67872, Note_on_c, 0, 63, 0
3, 67872, Note_on_c, 0, 58, 0
3, 67872, Note_on_c, 0, 68, 67
3, 67912, Note_on_c, 0, 68, 0
3, 67920, Note_on_c, 0, 70, 67
3, 67960, Note_on_c, 0, 70, 0
3, 67968, Note_on_c, 0, 73, 67
3, 68008, Note_on_c, 0, 73, 0
3, 68016, Note_on_c, 0, 71, 67
3, 68056, Note_on_c, 0, 71, 0
3, 68064, Note_on_c, 0, 68, 67
3, 68064, Note_on_c, 0, 63, 67
3, 68146, Note_on_c, 0, 68, 0
3, 68160, Note_on_c, 0, 63, 0
3, 68160, Note_on_c, 0, 63, 67
3, 68242, Note_on_c, 0, 63, 0
3, 68256, Note_on_c, 0, 75, 67
3, 68338, Note_on_c, 0, 75, 0
3, 68352, Note_on_c, 0, 74, 67
3, 68434, Note_on_c, 0, 74, 0
3, 68448, Note_on_c, 0, 77, 67
3, 68448, Note_on_c, 0, 74, 67
3, 68448, Note_on_c, 0, 65, 67
3, 68530, Note_on_c, 0, 74, 0
3, 68530, Note_on_c, 0, 77, 0
3, 68544, Note_on_c, 0, 65, 0
3, 68544, Note_on_c, 0, 68, 67
3, 68626, Note_on_c, 0, 68, 0
3, 68640, Note_on_c, 0, 59, 67
3, 68640, Note_on_c, 0, 71, 67
3, 68640, Note_on_c, 0, 68, 67
3, 68722, Note_on_c, 0, 68, 0
3, 68722, Note_on_c, 0, 71, 0
3, 68736, Note_on_c, 0, 59, 0
3, 68736, Note_on_c, 0, 62, 67
3, 68818, Note_on_c, 0, 62, 0
3, 68832, Note_on_c, 0, 62, 67
3, 68832, Note_on_c, 0, 59, 67
3, 68832, Note_on_c, 0, 65, 67
3, 68914, Note_on_c, 0, 65, 0
3, 68914, Note_on_c, 0, 62, 0
3, 68928, Note_on_c, 0, 59, 0
3, 68928, Note_on_c, 0, 58, 67
3, 69010, Note_on_c, 0, 58, 0
3, 69024, Note_on_c, 0, 71, 67
3, 69024, Note_on_c, 0, 75, 67
3, 69106, Note_on_c, 0, 75, 0
3, 69106, Note_on_c, 0, 71, 0
3, 69120, Note_on_c, 0, 74, 67
3, 69202, Note_on_c, 0, 74, 0
3, 69216, Note_on_c, 0, 74, 67
3, 69216, Note_on_c, 0, 65, 67
3, 69216, Note_on_c, 0, 77, 67
3, 69298, Note_on_c, 0, 77, 0
3, 69298, Note_on_c, 0, 74, 0
3, 69312, Note_on_c, 0, 65, 0
3, 69312, Note_on_c, 0, 68, 67
3, 69394, Note_on_c, 0, 68, 0
3, 69408, Note_on_c, 0, 68, 67
3, 69408, Note_on_c, 0, 59, 67
3, 69408, Note_on_c, 0, 71, 67
3, 69490, Note_on_c, 0, 71, 0
3, 69490, Note_on_c, 0, 68, 0
3, 69504, Note_on_c, 0, 59, 0
3, 69504, Note_on_c, 0, 62, 67
3, 69586, Note_on_c, 0, 62, 0
3, 69600, Note_on_c, 0, 59, 67
3, 69600, Note_on_c, 0, 65, 67
3, 69600, Note_on_c, 0, 62, 67
3, 69682, Note_on_c, 0, 62, 0
3, 69682, Note_on_c, 0, 65, 0
3, 69696, Note_on_c, 0, 59, 0
3, 69696, Note_on_c, 0, 58, 67
3, 69778, Note_on_c, 0, 58, 0
3, 69792, Note_on_c, 0, 75, 67
3, 69792, Note_on_c, 0, 71, 67
3, 69874, Note_on_c, 0, 71, 0
3, 69874, Note_on_c, 0, 75, 0
3, 69888, Note_on_c, 0, 70, 67
3, 69888, Note_on_c, 0, 73, 67
3, 69970, Note_on_c, 0, 73, 0
3, 69970, Note_on_c, 0, 70, 0
3, 69984, Note_on_c, 0, 75, 67
3, 69984, Note_on_c, 0, 70, 67
3, 70066, Note_on_c, 0, 70, 0
3, 70066, Note_on_c, 0, 75, 0
3, 70176, Note_on_c, 0, 76, 67
3, 70176, Note_on_c, 0, 71, 67
3, 70258, Note_on_c, 0, 71, 0
3, 70258, Note_on_c, 0, 76, 0
3, 70272, Note_on_c, 0, 71, 67
3, 70272, Note_on_c, 0, 75, 67
3, 70354, Note_on_c, 0, 75, 0
3, 70354, Note_on_c, 0, 71, 0
3, 70368, Note_on_c, 0, 76, 67
3, 70368, Note_on_c, 0, 71, 67
3, 70450, Note_on_c, 0, 71, 0
3, 70450, Note_on_c, 0, 76, 0
3, 70560, Note_on_c, 0, 77, 67
3, 70560, Note_on_c, 0, 72, 67
3, 70642, Note_on_c, 0, 72, 0
3, 70642, Note_on_c, 0, 77, 0
3, 70656, Note_on_c, 0, 76, 67
3, 70656, Note_on_c, 0, 72, 67
3, 70738, Note_on_c, 0, 72, 0
3, 70738, Note_on_c, 0, 76, 0
3, 70752, Note_on_c, 0, 77, 67
3, 70752, Note_on_c, 0, 72, 67
3, 70834, Note_on_c, 0, 72, 0
3, 70834, Note_on_c, 0, 77, 0
3, 70944, Note_on_c, 0, 78, 67
3, 70944, Note_on_c, 0, 73, 67
3, 71026, Note_on_c, 0, 73, 0
3, 71026, Note_on_c, 0, 78, 0
3, 71040, Note_on_c, 0, 73, 67
3, 71040, Note_on_c, 0, 77, 67
3, 71122, Note_on_c, 0, 77, 0
3, 71122, Note_on_c, 0, 73, 0
3, 71136, Note_on_c, 0, 73, 67
3, 71136, Note_on_c, 0, 78, 67
3, 71218, Note_on_c, 0, 78, 0
3, 71218, Note_on_c, 0, 73, 0
3, 71328, Note_on_c, 0, 74, 67
3, 71328, Note_on_c, 0, 79, 67
3, 71410, Note_on_c, 0, 79, 0
3, 71410, Note_on_c, 0, 74, 0
3, 71424, Note_on_c, 0, 74, 67
3, 71424, Note_on_c, 0, 78, 67
3, 71506, Note_on_c, 0, 78, 0
3, 71506, Note_on_c, 0, 74, 0
3, 71520, Note_on_c, 0, 74, 67
3, 71520, Note_on_c, 0, 79, 67
3, 71602, Note_on_c, 0, 79, 0
3, 71602, Note_on_c, 0, 74, 0
3, 71712, Note_on_c, 0, 75, 67
3, 71712, Note_on_c, 0, 80, 67
3, 71904, Note_on_c, 0, 80, 0
3, 71904, Note_on_c, 0, 75, 0
3, 71904, Note_on_c, 0, 81, 67
3, 71904, Note_on_c, 0, 75, 67
3, 72070, Note_on_c, 0, 75, 0
3, 72070, Note_on_c, 0, 81, 0
3, 72096, Note_on_c, 0, 82, 67
3, 72096, Note_on_c, 0, 77, 67
3, 72178, Note_on_c, 0, 77, 0
3, 72178, Note_on_c, 0, 82, 0
3, 72192, Note_on_c, 0, 81, 67
3, 72192, Note_on_c, 0, 77, 67
3, 72274, Note_on_c, 0, 77, 0
3, 72274, Note_on_c, 0, 81, 0
3, 72288, Note_on_c, 0, 82, 67
3, 72288, Note_on_c, 0, 77, 67
3, 72370, Note_on_c, 0, 77, 0
3, 72370, Note_on_c, 0, 82, 0
3, 72480, Note_on_c, 0, 78, 67
3, 72480, Note_on_c, 0, 83, 67
3, 72646, Note_on_c, 0, 83, 0
3, 72646, Note_on_c, 0, 78, 0
3, 72672, Note_on_c, 0, 84, 67
3, 72672, Note_on_c, 0, 78, 67
3, 72838, Note_on_c, 0, 78, 0
3, 72838, Note_on_c, 0, 84, 0
3, 72864, Note_on_c, 0, 85, 67
3, 72864, Note_on_c, 0, 79, 67
3, 72946, Note_on_c, 0, 79, 0
3, 72946, Note_on_c, 0, 85, 0
3, 72960, Note_on_c, 0, 84, 67
3, 72960, Note_on_c, 0, 81, 67
3, 73042, Note_on_c, 0, 81, 0
3, 73042, Note_on_c, 0, 84, 0
3, 73056, Note_on_c, 0, 79, 67
3, 73056, Note_on_c, 0, 85, 67
3, 73138, Note_on_c, 0, 85, 0
3, 73138, Note_on_c, 0, 79, 0
3, 73248, Note_on_c, 0, 86, 67
3, 73248, Note_on_c, 0, 80, 67
3, 73330, Note_on_c, 0, 80, 0
3, 73330, Note_on_c, 0, 86, 0
3, 73344, Note_on_c, 0, 81, 67
3, 73344, Note_on_c, 0, 85, 67
3, 73426, Note_on_c, 0, 85, 0
3, 73426, Note_on_c, 0, 81, 0
3, 73440, Note_on_c, 0, 86, 67
3, 73440, Note_on_c, 0, 80, 67
3, 73522, Note_on_c, 0, 80, 0
3, 73522, Note_on_c, 0, 86, 0
3, 73632, Note_on_c, 0, 81, 67
3, 73632, Note_on_c, 0, 87, 67
3, 73714, Note_on_c, 0, 87, 0
3, 73714, Note_on_c, 0, 81, 0
3, 73728, Note_on_c, 0, 82, 67
3, 73728, Note_on_c, 0, 86, 67
3, 73810, Note_on_c, 0, 86, 0
3, 73810, Note_on_c, 0, 82, 0
3, 73824, Note_on_c, 0, 87, 67
3, 73824, Note_on_c, 0, 81, 67
3, 73906, Note_on_c, 0, 81, 0
3, 73906, Note_on_c, 0, 87, 0
3, 74016, Note_on_c, 0, 82, 67
3, 74016, Note_on_c, 0, 88, 67
3, 74098, Note_on_c, 0, 88, 0
3, 74098, Note_on_c, 0, 82, 0
3, 74112, Note_on_c, 0, 83, 67
3, 74112, Note_on_c, 0, 87, 67
3, 74194, Note_on_c, 0, 87, 0
3, 74194, Note_on_c, 0, 83, 0
3, 74208, Note_on_c, 0, 83, 67
3, 74208, Note_on_c, 0, 88, 67
3, 74374, Note_on_c, 0, 88, 0
3, 74374, Note_on_c, 0, 83, 0
3, 74400, Note_on_c, 0, 89, 67
3, 74400, Note_on_c, 0, 87, 67
3, 74482, Note_on_c, 0, 87, 0
3, 74482, Note_on_c, 0, 89, 0
3, 74496, Note_on_c, 0, 87, 67
3, 74496, Note_on_c, 0, 90, 67
3, 74578, Note_on_c, 0, 90, 0
3, 74578, Note_on_c, 0, 87, 0
3, 74592, Note_on_c, 0, 90, 67
3, 74758, Note_on_c, 0, 90, 0
3, 74784, Note_on_c, 0, 89, 67
3, 74824, Note_on_c, 0, 89, 0
3, 74832, Note_on_c, 0, 87, 67
3, 74872, Note_on_c, 0, 87, 0
3, 74880, Note_on_c, 0, 86, 67
3, 74920, Note_on_c, 0, 86, 0
3, 74928, Note_on_c, 0, 87, 67
3, 74968, Note_on_c, 0, 87, 0
3, 74976, Note_on_c, 0, 85, 67
3, 75016, Note_on_c, 0, 85, 0
3, 75024, Note_on_c, 0, 83, 67
3, 75064, Note_on_c, 0, 83, 0
3, 75072, Note_on_c, 0, 82, 67
3, 75112, Note_on_c, 0, 82, 0
3, 75120, Note_on_c, 0, 83, 67
3, 75160, Note_on_c, 0, 83, 0
3, 75168, Note_on_c, 0, 82, 67
3, 75208, Note_on_c, 0, 82, 0
3, 75216, Note_on_c, 0, 80, 67
3, 75256, Note_on_c, 0, 80, 0
3, 75264, Note_on_c, 0, 78, 67
3, 75304, Note_on_c, 0, 78, 0
3, 75312, Note_on_c, 0, 80, 67
3, 75352, Note_on_c, 0, 80, 0
3, 75360, Note_on_c, 0, 78, 67
3, 75400, Note_on_c, 0, 78, 0
3, 75408, Note_on_c, 0, 77, 67
3, 75448, Note_on_c, 0, 77, 0
3, 75456, Note_on_c, 0, 75, 67
3, 75496, Note_on_c, 0, 75, 0
3, 75504, Note_on_c, 0, 77, 67
3, 75544, Note_on_c, 0, 77, 0
3, 75552, Note_on_c, 0, 75, 67
3, 75592, Note_on_c, 0, 75, 0
3, 75600, Note_on_c, 0, 73, 67
3, 75640, Note_on_c, 0, 73, 0
3, 75648, Note_on_c, 0, 71, 67
3, 75688, Note_on_c, 0, 71, 0
3, 75696, Note_on_c, 0, 68, 67
3, 75736, Note_on_c, 0, 68, 0
3, 75744, Note_on_c, 0, 65, 67
3, 75784, Note_on_c, 0, 65, 0
3, 75792, Note_on_c, 0, 62, 67
3, 75832, Note_on_c, 0, 62, 0
3, 75840, Note_on_c, 0, 59, 67
3, 75880, Note_on_c, 0, 59, 0
3, 75888, Note_on_c, 0, 58, 67
3, 75928, Note_on_c, 0, 58, 0
3, 75936, Note_on_c, 0, 57, 67
3, 75976, Note_on_c, 0, 57, 0
3, 75984, Note_on_c, 0, 58, 67
3, 76024, Note_on_c, 0, 58, 0
3, 76032, Note_on_c, 0, 63, 67
3, 76114, Note_on_c, 0, 63, 0
3, 76848, Note_on_c, 0, 63, 67
3, 76888, Note_on_c, 0, 63, 0
3, 76896, Note_on_c, 0, 65, 67
3, 76936, Note_on_c, 0, 65, 0
3, 76944, Note_on_c, 0, 66, 67
3, 76984, Note_on_c, 0, 66, 0
3, 76992, Note_on_c, 0, 68, 67
3, 77032, Note_on_c, 0, 68, 0
3, 77040, Note_on_c, 0, 70, 67
3, 77080, Note_on_c, 0, 70, 0
3, 77088, Note_on_c, 0, 71, 67
3, 77128, Note_on_c, 0, 71, 0
3, 77136, Note_on_c, 0, 75, 67
3, 77176, Note_on_c, 0, 75, 0
3, 77184, Note_on_c, 0, 73, 67
3, 77280, Note_on_c, 0, 78, 67
3, 77320, Note_on_c, 0, 78, 0
3, 77328, Note_on_c, 0, 80, 67
3, 77368, Note_on_c, 0, 80, 0
3, 77376, Note_on_c, 0, 82, 67
3, 77416, Note_on_c, 0, 82, 0
3, 77424, Note_on_c, 0, 83, 67
3, 77464, Note_on_c, 0, 83, 0
3, 77472, Note_on_c, 0, 85, 67
3, 77512, Note_on_c, 0, 85, 0
3, 77520, Note_on_c, 0, 83, 67
3, 77560, Note_on_c, 0, 83, 0
3, 77568, Note_on_c, 0, 82, 67
3, 77608, Note_on_c, 0, 82, 0
3, 77616, Note_on_c, 0, 73, 0
3, 77616, Note_on_c, 0, 70, 67
3, 77656, Note_on_c, 0, 70, 0
3, 77664, Note_on_c, 0, 71, 67
3, 77704, Note_on_c, 0, 71, 0
3, 77712, Note_on_c, 0, 73, 67
3, 77752, Note_on_c, 0, 73, 0
3, 77760, Note_on_c, 0, 75, 67
3, 77760, Note_on_c, 0, 63, 67
3, 77800, Note_on_c, 0, 75, 0
3, 77808, Note_on_c, 0, 63, 0
3, 77808, Note_on_c, 0, 77, 67
3, 77808, Note_on_c, 0, 61, 67
3, 77848, Note_on_c, 0, 77, 0
3, 77856, Note_on_c, 0, 61, 0
3, 77856, Note_on_c, 0, 60, 67
3, 77856, Note_on_c, 0, 78, 67
3, 77896, Note_on_c, 0, 78, 0
3, 77904, Note_on_c, 0, 60, 0
3, 77904, Note_on_c, 0, 59, 67
3, 77904, Note_on_c, 0, 80, 67
3, 77944, Note_on_c, 0, 80, 0
3, 77952, Note_on_c, 0, 59, 0
3, 77952, Note_on_c, 0, 58, 67
3, 77952, Note_on_c, 0, 82, 67
3, 78048, Note_on_c, 0, 82, 0
3, 78048, Note_on_c, 0, 58, 0
3, 78384, Note_on_c, 0, 66, 67
3, 78424, Note_on_c, 0, 66, 0
3, 78432, Note_on_c, 0, 68, 67
3, 78472, Note_on_c, 0, 68, 0
3, 78480, Note_on_c, 0, 70, 67
3, 78520, Note_on_c, 0, 70, 0
3, 78528, Note_on_c, 0, 71, 67
3, 78568, Note_on_c, 0, 71, 0
3, 78576, Note_on_c, 0, 73, 67
3, 78616, Note_on_c, 0, 73, 0
3, 78624, Note_on_c, 0, 75, 67
3, 78664, Note_on_c, 0, 75, 0
3, 78672, Note_on_c, 0, 78, 67
3, 78712, Note_on_c, 0, 78, 0
3, 78720, Note_on_c, 0, 77, 67
3, 78816, Note_on_c, 0, 82, 67
3, 78856, Note_on_c, 0, 82, 0
3, 78864, Note_on_c, 0, 83, 67
3, 78904, Note_on_c, 0, 83, 0
3, 78912, Note_on_c, 0, 85, 67
3, 78952, Note_on_c, 0, 85, 0
3, 78960, Note_on_c, 0, 87, 67
3, 79000, Note_on_c, 0, 87, 0
3, 79008, Note_on_c, 0, 89, 67
3, 79048, Note_on_c, 0, 89, 0
3, 79056, Note_on_c, 0, 87, 67
3, 79096, Note_on_c, 0, 87, 0
3, 79104, Note_on_c, 0, 86, 67
3, 79104, Note_on_c, 0, 74, 67
3, 79144, Note_on_c, 0, 74, 0
3, 79144, Note_on_c, 0, 86, 0
3, 79152, Note_on_c, 0, 77, 0
3, 79152, Note_on_c, 0, 74, 67
3, 79192, Note_on_c, 0, 74, 0
3, 79200, Note_on_c, 0, 75, 67
3, 79240, Note_on_c, 0, 75, 0
3, 79248, Note_on_c, 0, 77, 67
3, 79288, Note_on_c, 0, 77, 0
3, 79296, Note_on_c, 0, 79, 67
3, 79336, Note_on_c, 0, 79, 0
3, 79344, Note_on_c, 0, 81, 67
3, 79384, Note_on_c, 0, 81, 0
3, 79392, Note_on_c, 0, 82, 67
3, 79432, Note_on_c, 0, 82, 0
3, 79440, Note_on_c, 0, 84, 67
3, 79480, Note_on_c, 0, 84, 0
3, 79488, Note_on_c, 0, 86, 67
3, 79528, Note_on_c, 0, 86, 0
3, 79920, Note_on_c, 0, 70, 67
3, 79920, Note_on_c, 0, 58, 67
3, 79960, Note_on_c, 0, 70, 0
3, 79968, Note_on_c, 0, 58, 0
3, 79968, Note_on_c, 0, 72, 67
3, 79968, Note_on_c, 0, 60, 67
3, 80008, Note_on_c, 0, 72, 0
3, 80016, Note_on_c, 0, 60, 0
3, 80016, Note_on_c, 0, 73, 67
3, 80016, Note_on_c, 0, 61, 67
3, 80056, Note_on_c, 0, 73, 0
3, 80064, Note_on_c, 0, 61, 0
3, 80064, Note_on_c, 0, 62, 67
3, 80064, Note_on_c, 0, 74, 67
3, 80104, Note_on_c, 0, 74, 0
3, 80112, Note_on_c, 0, 62, 0
3, 80112, Note_on_c, 0, 75, 67
3, 80112, Note_on_c, 0, 63, 67
3, 80152, Note_on_c, 0, 75, 0
3, 80160, Note_on_c, 0, 63, 0
3, 80160, Note_on_c, 0, 77, 67
3, 80160, Note_on_c, 0, 65, 67
3, 80200, Note_on_c, 0, 77, 0
3, 80208, Note_on_c, 0, 65, 0
3, 80208, Note_on_c, 0, 79, 67
3, 80208, Note_on_c, 0, 67, 67
3, 80248, Note_on_c, 0, 79, 0
3, 80256, Note_on_c, 0, 67, 0
3, 80256, Note_on_c, 0, 69, 67
3, 80256, Note_on_c, 0, 81, 67
3, 80338, Note_on_c, 0, 81, 0
3, 80352, Note_on_c, 0, 69, 0
3, 80688, Note_on_c, 0, 65, 67
3, 80688, Note_on_c, 0, 77, 67
3, 80728, Note_on_c, 0, 77, 0
3, 80736, Note_on_c, 0, 65, 0
3, 80736, Note_on_c, 0, 78, 67
3, 80736, Note_on_c, 0, 66, 67
3, 80776, Note_on_c, 0, 78, 0
3, 80784, Note_on_c, 0, 66, 0
3, 80784, Note_on_c, 0, 67, 67
3, 80784, Note_on_c, 0, 79, 67
3, 80824, Note_on_c, 0, 79, 0
3, 80832, Note_on_c, 0, 67, 0
3, 80832, Note_on_c, 0, 68, 67
3, 80832, Note_on_c, 0, 80, 67
3, 80872, Note_on_c, 0, 80, 0
3, 80880, Note_on_c, 0, 68, 0
3, 80880, Note_on_c, 0, 81, 67
3, 80880, Note_on_c, 0, 69, 67
3, 80920, Note_on_c, 0, 81, 0
3, 80928, Note_on_c, 0, 69, 0
3, 80928, Note_on_c, 0, 82, 67
3, 80928, Note_on_c, 0, 70, 67
3, 80968, Note_on_c, 0, 82, 0
3, 80976, Note_on_c, 0, 70, 0
3, 80976, Note_on_c, 0, 72, 67
3, 80976, Note_on_c, 0, 84, 67
3, 81016, Note_on_c, 0, 84, 0
3, 81024, Note_on_c, 0, 72, 0
3, 81024, Note_on_c, 0, 86, 67
3, 81024, Note_on_c, 0, 74, 67
3, 81064, Note_on_c, 0, 86, 0
3, 81120, Note_on_c, 0, 74, 0
3, 81456, Note_on_c, 0, 79, 67
3, 81456, Note_on_c, 0, 67, 67
3, 81496, Note_on_c, 0, 79, 0
3, 81504, Note_on_c, 0, 67, 0
3, 81504, Note_on_c, 0, 81, 67
3, 81504, Note_on_c, 0, 69, 67
3, 81544, Note_on_c, 0, 81, 0
3, 81552, Note_on_c, 0, 69, 0
3, 81552, Note_on_c, 0, 70, 67
3, 81552, Note_on_c, 0, 82, 67
3, 81592, Note_on_c, 0, 82, 0
3, 81600, Note_on_c, 0, 70, 0
3, 81600, Note_on_c, 0, 83, 67
3, 81600, Note_on_c, 0, 71, 67
3, 81640, Note_on_c, 0, 83, 0
3, 81648, Note_on_c, 0, 71, 0
3, 81648, Note_on_c, 0, 84, 67
3, 81648, Note_on_c, 0, 72, 67
3, 81688, Note_on_c, 0, 84, 0
3, 81696, Note_on_c, 0, 72, 0
3, 81696, Note_on_c, 0, 74, 67
3, 81696, Note_on_c, 0, 86, 67
3, 81736, Note_on_c, 0, 86, 0
3, 81744, Note_on_c, 0, 74, 0
3, 81744, Note_on_c, 0, 87, 67
3, 81744, Note_on_c, 0, 75, 67
3, 81784, Note_on_c, 0, 87, 0
3, 81792, Note_on_c, 0, 75, 0
3, 81792, Note_on_c, 0, 89, 67
3, 81792, Note_on_c, 0, 77, 67
3, 81888, Note_on_c, 0, 77, 0
3, 81888, Note_on_c, 0, 89, 0
3, 82224, Note_on_c, 0, 63, 67
3, 82224, Note_on_c, 0, 72, 67
3, 82264, Note_on_c, 0, 72, 0
3, 82272, Note_on_c, 0, 63, 0
3, 82272, Note_on_c, 0, 74, 67
3, 82272, Note_on_c, 0, 65, 67
3, 82312, Note_on_c, 0, 74, 0
3, 82320, Note_on_c, 0, 65, 0
3, 82320, Note_on_c, 0, 75, 67
3, 82320, Note_on_c, 0, 67, 67
3, 82360, Note_on_c, 0, 75, 0
3, 82368, Note_on_c, 0, 67, 0
3, 82368, Note_on_c, 0, 69, 67
3, 82368, Note_on_c, 0, 77, 67
3, 82408, Note_on_c, 0, 77, 0
3, 82416, Note_on_c, 0, 69, 0
3, 82416, Note_on_c, 0, 70, 67
3, 82416, Note_on_c, 0, 78, 67
3, 82456, Note_on_c, 0, 78, 0
3, 82464, Note_on_c, 0, 70, 0
3, 82464, Note_on_c, 0, 79, 67
3, 82464, Note_on_c, 0, 71, 67
3, 82504, Note_on_c, 0, 79, 0
3, 82512, Note_on_c, 0, 71, 0
3, 82512, Note_on_c, 0, 81, 67
3, 82512, Note_on_c, 0, 72, 67
3, 82552, Note_on_c, 0, 81, 0
3, 82560, Note_on_c, 0, 72, 0
3, 82560, Note_on_c, 0, 74, 67
3, 82560, Note_on_c, 0, 82, 67
3, 82642, Note_on_c, 0, 82, 0
3, 82656, Note_on_c, 0, 74, 0
3, 82992, Note_on_c, 0, 58, 67
3, 83040, Note_on_c, 0, 58, 0
3, 83040, Note_on_c, 0, 60, 67
3, 83088, Note_on_c, 0, 60, 0
3, 83088, Note_on_c, 0, 62, 67
3, 83136, Note_on_c, 0, 62, 0
3, 83136, Note_on_c, 0, 63, 67
3, 83184, Note_on_c, 0, 63, 0
3, 83184, Note_on_c, 0, 65, 67
3, 83232, Note_on_c, 0, 65, 0
3, 83232, Note_on_c, 0, 67, 67
3, 83280, Note_on_c, 0, 67, 0
3, 83280, Note_on_c, 0, 70, 67
3, 83328, Note_on_c, 0, 70, 0
3, 83328, Note_on_c, 0, 76, 67
3, 83328, Note_on_c, 0, 69, 67
3, 83410, Note_on_c, 0, 76, 0
3, 83424, Note_on_c, 0, 78, 67
3, 83464, Note_on_c, 0, 78, 0
3, 83472, Note_on_c, 0, 79, 67
3, 83512, Note_on_c, 0, 79, 0
3, 83520, Note_on_c, 0, 81, 67
3, 83560, Note_on_c, 0, 81, 0
3, 83568, Note_on_c, 0, 82, 67
3, 83608, Note_on_c, 0, 82, 0
3, 83616, Note_on_c, 0, 84, 67
3, 83656, Note_on_c, 0, 84, 0
3, 83664, Note_on_c, 0, 82, 67
3, 83704, Note_on_c, 0, 82, 0
3, 83712, Note_on_c, 0, 77, 67
3, 83752, Note_on_c, 0, 77, 0
3, 83760, Note_on_c, 0, 69, 0
3, 83760, Note_on_c, 0, 65, 67
3, 83800, Note_on_c, 0, 65, 0
3, 83808, Note_on_c, 0, 67, 67
3, 83848, Note_on_c, 0, 67, 0
3, 83856, Note_on_c, 0, 69, 67
3, 83896, Note_on_c, 0, 69, 0
3, 83904, Note_on_c, 0, 70, 67
3, 83944, Note_on_c, 0, 70, 0
3, 83952, Note_on_c, 0, 73, 67
3, 83992, Note_on_c, 0, 73, 0
3, 84000, Note_on_c, 0, 74, 67
3, 84040, Note_on_c, 0, 74, 0
3, 84048, Note_on_c, 0, 76, 67
3, 84088, Note_on_c, 0, 76, 0
3, 84096, Note_on_c, 0, 77, 67
3, 84144, Note_on_c, 0, 57, 67
3, 84178, Note_on_c, 0, 77, 0
3, 84192, Note_on_c, 0, 57, 0
3, 84192, Note_on_c, 0, 59, 67
3, 84240, Note_on_c, 0, 59, 0
3, 84240, Note_on_c, 0, 61, 67
3, 84288, Note_on_c, 0, 61, 0
3, 84288, Note_on_c, 0, 62, 67
3, 84336, Note_on_c, 0, 62, 0
3, 84336, Note_on_c, 0, 61, 67
3, 84384, Note_on_c, 0, 61, 0
3, 84384, Note_on_c, 0, 62, 67
3, 84432, Note_on_c, 0, 62, 0
3, 84432, Note_on_c, 0, 64, 67
3, 84480, Note_on_c, 0, 64, 0
3, 84480, Note_on_c, 0, 65, 67
3, 84528, Note_on_c, 0, 62, 67
3, 84576, Note_on_c, 0, 62, 0
3, 84576, Note_on_c, 0, 65, 0
3, 84576, Note_on_c, 0, 64, 67
3, 84624, Note_on_c, 0, 64, 0
3, 84624, Note_on_c, 0, 65, 67
3, 84672, Note_on_c, 0, 65, 0
3, 84672, Note_on_c, 0, 67, 67
3, 84720, Note_on_c, 0, 67, 0
3, 84720, Note_on_c, 0, 69, 67
3, 84768, Note_on_c, 0, 69, 0
3, 84768, Note_on_c, 0, 70, 67
3, 84816, Note_on_c, 0, 70, 0
3, 84816, Note_on_c, 0, 74, 67
3, 84864, Note_on_c, 0, 74, 0
3, 84864, Note_on_c, 0, 72, 67
3, 84912, Note_on_c, 0, 76, 67
3, 84960, Note_on_c, 0, 76, 0
3, 84960, Note_on_c, 0, 78, 67
3, 85000, Note_on_c, 0, 78, 0
3, 85008, Note_on_c, 0, 79, 67
3, 85048, Note_on_c, 0, 79, 0
3, 85056, Note_on_c, 0, 81, 67
3, 85096, Note_on_c, 0, 81, 0
3, 85104, Note_on_c, 0, 82, 67
3, 85144, Note_on_c, 0, 82, 0
3, 85152, Note_on_c, 0, 84, 67
3, 85192, Note_on_c, 0, 84, 0
3, 85200, Note_on_c, 0, 82, 67
3, 85240, Note_on_c, 0, 82, 0
3, 85248, Note_on_c, 0, 72, 67
3, 85248, Note_on_c, 0, 81, 67
3, 85288, Note_on_c, 0, 81, 0
3, 85296, Note_on_c, 0, 72, 0
3, 85296, Note_on_c, 0, 72, 0
3, 85296, Note_on_c, 0, 69, 67
3, 85336, Note_on_c, 0, 69, 0
3, 85344, Note_on_c, 0, 70, 67
3, 85384, Note_on_c, 0, 70, 0
3, 85392, Note_on_c, 0, 72, 67
3, 85432, Note_on_c, 0, 72, 0
3, 85440, Note_on_c, 0, 74, 67
3, 85480, Note_on_c, 0, 74, 0
3, 85488, Note_on_c, 0, 76, 67
3, 85528, Note_on_c, 0, 76, 0
3, 85536, Note_on_c, 0, 77, 67
3, 85576, Note_on_c, 0, 77, 0
3, 85584, Note_on_c, 0, 79, 67
3, 85624, Note_on_c, 0, 79, 0
3, 85632, Note_on_c, 0, 81, 67
3, 85714, Note_on_c, 0, 81, 0
3, 86064, Note_on_c, 0, 65, 67
3, 86064, Note_on_c, 0, 77, 67
3, 86104, Note_on_c, 0, 77, 0
3, 86112, Note_on_c, 0, 65, 0
3, 86112, Note_on_c, 0, 79, 67
3, 86112, Note_on_c, 0, 67, 67
3, 86152, Note_on_c, 0, 79, 0
3, 86160, Note_on_c, 0, 67, 0
3, 86160, Note_on_c, 0, 68, 67
3, 86160, Note_on_c, 0, 81, 67
3, 86200, Note_on_c, 0, 81, 0
3, 86208, Note_on_c, 0, 68, 0
3, 86208, Note_on_c, 0, 81, 67
3, 86208, Note_on_c, 0, 69, 67
3, 86248, Note_on_c, 0, 81, 0
3, 86256, Note_on_c, 0, 69, 0
3, 86256, Note_on_c, 0, 83, 67
3, 86256, Note_on_c, 0, 70, 67
3, 86296, Note_on_c, 0, 83, 0
3, 86304, Note_on_c, 0, 70, 0
3, 86304, Note_on_c, 0, 72, 67
3, 86304, Note_on_c, 0, 84, 67
3, 86344, Note_on_c, 0, 84, 0
3, 86352, Note_on_c, 0, 72, 0
3, 86352, Note_on_c, 0, 74, 67
3, 86352, Note_on_c, 0, 86, 67
3, 86392, Note_on_c, 0, 86, 0
3, 86400, Note_on_c, 0, 74, 0
3, 86400, Note_on_c, 0, 88, 67
3, 86400, Note_on_c, 0, 76, 67
3, 86482, Note_on_c, 0, 88, 0
3, 86496, Note_on_c, 0, 76, 0
3, 86832, Note_on_c, 0, 72, 67
3, 86832, Note_on_c, 0, 84, 67
3, 86872, Note_on_c, 0, 72, 0
3, 86880, Note_on_c, 0, 84, 0
3, 86880, Note_on_c, 0, 73, 67
3, 86880, Note_on_c, 0, 85, 67
3, 86920, Note_on_c, 0, 73, 0
3, 86928, Note_on_c, 0, 85, 0
3, 86928, Note_on_c, 0, 86, 67
3, 86928, Note_on_c, 0, 74, 67
3, 86968, Note_on_c, 0, 74, 0
3, 86976, Note_on_c, 0, 86, 0
3, 86976, Note_on_c, 0, 87, 67
3, 86976, Note_on_c, 0, 75, 67
3, 87016, Note_on_c, 0, 75, 0
3, 87024, Note_on_c, 0, 87, 0
3, 87024, Note_on_c, 0, 88, 67
3, 87024, Note_on_c, 0, 76, 67
3, 87064, Note_on_c, 0, 76, 0
3, 87072, Note_on_c, 0, 88, 0
3, 87072, Note_on_c, 0, 77, 67
3, 87072, Note_on_c, 0, 89, 67
3, 87112, Note_on_c, 0, 77, 0
3, 87120, Note_on_c, 0, 89, 0
3, 87120, Note_on_c, 0, 91, 67
3, 87120, Note_on_c, 0, 79, 67
3, 87160, Note_on_c, 0, 79, 0
3, 87168, Note_on_c, 0, 91, 0
3, 87168, Note_on_c, 0, 93, 67
3, 87168, Note_on_c, 0, 81, 67
3, 87208, Note_on_c, 0, 81, 0
3, 87264, Note_on_c, 0, 93, 0
3, 87600, Note_on_c, 0, 62, 67
3, 87600, Note_on_c, 0, 74, 67
3, 87640, Note_on_c, 0, 74, 0
3, 87648, Note_on_c, 0, 62, 0
3, 87648, Note_on_c, 0, 64, 67
3, 87648, Note_on_c, 0, 76, 67
3, 87688, Note_on_c, 0, 76, 0
3, 87696, Note_on_c, 0, 64, 0
3, 87696, Note_on_c, 0, 77, 67
3, 87696, Note_on_c, 0, 65, 67
3, 87736, Note_on_c, 0, 77, 0
3, 87744, Note_on_c, 0, 65, 0
3, 87744, Note_on_c, 0, 77, 67
3, 87744, Note_on_c, 0, 66, 67
3, 87784, Note_on_c, 0, 77, 0
3, 87792, Note_on_c, 0, 66, 0
3, 87792, Note_on_c, 0, 67, 67
3, 87792, Note_on_c, 0, 79, 67
3, 87832, Note_on_c, 0, 79, 0
3, 87840, Note_on_c, 0, 67, 0
3, 87840, Note_on_c, 0, 81, 67
3, 87840, Note_on_c, 0, 69, 67
3, 87880, Note_on_c, 0, 81, 0
3, 87888, Note_on_c, 0, 69, 0
3, 87888, Note_on_c, 0, 83, 67
3, 87888, Note_on_c, 0, 70, 67
3, 87928, Note_on_c, 0, 83, 0
3, 87936, Note_on_c, 0, 70, 0
3, 87936, Note_on_c, 0, 84, 67
3, 87936, Note_on_c, 0, 72, 67
3, 88018, Note_on_c, 0, 84, 0
3, 88032, Note_on_c, 0, 72, 0
3, 88368, Note_on_c, 0, 67, 67
3, 88368, Note_on_c, 0, 58, 67
3, 88416, Note_on_c, 0, 58, 0
3, 88416, Note_on_c, 0, 67, 0
3, 88416, Note_on_c, 0, 69, 67
3, 88416, Note_on_c, 0, 60, 67
3, 88464, Note_on_c, 0, 60, 0
3, 88464, Note_on_c, 0, 69, 0
3, 88464, Note_on_c, 0, 70, 67
3, 88464, Note_on_c, 0, 62, 67
3, 88512, Note_on_c, 0, 62, 0
3, 88512, Note_on_c, 0, 70, 0
3, 88512, Note_on_c, 0, 63, 67
3, 88512, Note_on_c, 0, 71, 67
3, 88560, Note_on_c, 0, 71, 0
3, 88560, Note_on_c, 0, 63, 0
3, 88560, Note_on_c, 0, 64, 67
3, 88560, Note_on_c, 0, 72, 67
3, 88608, Note_on_c, 0, 72, 0
3, 88608, Note_on_c, 0, 64, 0
3, 88608, Note_on_c, 0, 74, 67
3, 88608, Note_on_c, 0, 65, 67
3, 88656, Note_on_c, 0, 65, 0
3, 88656, Note_on_c, 0, 74, 0
3, 88656, Note_on_c, 0, 76, 67
3, 88656, Note_on_c, 0, 67, 67
3, 88704, Note_on_c, 0, 67, 0
3, 88704, Note_on_c, 0, 76, 0
3, 88704, Note_on_c, 0, 69, 67
3, 88704, Note_on_c, 0, 77, 67
3, 88800, Note_on_c, 0, 77, 0
3, 88800, Note_on_c, 0, 69, 0
3, 89136, Note_on_c, 0, 71, 67
3, 89136, Note_on_c, 0, 62, 67
3, 89176, Note_on_c, 0, 71, 0
3, 89184, Note_on_c, 0, 62, 0
3, 89184, Note_on_c, 0, 72, 67
3, 89184, Note_on_c, 0, 63, 67
3, 89224, Note_on_c, 0, 72, 0
3, 89232, Note_on_c, 0, 63, 0
3, 89232, Note_on_c, 0, 73, 67
3, 89232, Note_on_c, 0, 64, 67
3, 89272, Note_on_c, 0, 73, 0
3, 89280, Note_on_c, 0, 64, 0
3, 89280, Note_on_c, 0, 65, 67
3, 89280, Note_on_c, 0, 74, 67
3, 89320, Note_on_c, 0, 74, 0
3, 89328, Note_on_c, 0, 65, 0
3, 89328, Note_on_c, 0, 76, 67
3, 89328, Note_on_c, 0, 67, 67
3, 89368, Note_on_c, 0, 76, 0
3, 89376, Note_on_c, 0, 67, 0
3, 89376, Note_on_c, 0, 77, 67
3, 89376, Note_on_c, 0, 74, 67
3, 89416, Note_on_c, 0, 77, 0
3, 89424, Note_on_c, 0, 79, 67
3, 89464, Note_on_c, 0, 79, 0
3, 89472, Note_on_c, 0, 74, 0
3, 89472, Note_on_c, 0, 81, 67
3, 89472, Note_on_c, 0, 73, 67
3, 89554, Note_on_c, 0, 81, 0
3, 89568, Note_on_c, 0, 73, 0
3, 89904, Note_on_c, 0, 74, 67
3, 89904, Note_on_c, 0, 65, 67
3, 89944, Note_on_c, 0, 74, 0
3, 89952, Note_on_c, 0, 65, 0
3, 89952, Note_on_c, 0, 66, 67
3, 89952, Note_on_c, 0, 75, 67
3, 89992, Note_on_c, 0, 75, 0
3, 90000, Note_on_c, 0, 66, 0
3, 90000, Note_on_c, 0, 76, 67
3, 90000, Note_on_c, 0, 67, 67
3, 90040, Note_on_c, 0, 76, 0
3, 90048, Note_on_c, 0, 67, 0
3, 90048, Note_on_c, 0, 77, 67
3, 90048, Note_on_c, 0, 69, 67
3, 90088, Note_on_c, 0, 77, 0
3, 90096, Note_on_c, 0, 69, 0
3, 90096, Note_on_c, 0, 70, 67
3, 90096, Note_on_c, 0, 79, 67
3, 90136, Note_on_c, 0, 79, 0
3, 90144, Note_on_c, 0, 70, 0
3, 90144, Note_on_c, 0, 77, 67
3, 90144, Note_on_c, 0, 81, 67
3, 90144, Note_on_c, 0, 70, 67
3, 90184, Note_on_c, 0, 81, 0
3, 90192, Note_on_c, 0, 82, 67
3, 90240, Note_on_c, 0, 82, 0
3, 90240, Note_on_c, 0, 70, 0
3, 90240, Note_on_c, 0, 77, 0
3, 90240, Note_on_c, 0, 84, 67
3, 90240, Note_on_c, 0, 76, 67
3, 90336, Note_on_c, 0, 76, 0
3, 90336, Note_on_c, 0, 84, 0
3, 90672, Note_on_c, 0, 84, 67
3, 90672, Note_on_c, 0, 72, 67
3, 90720, Note_on_c, 0, 72, 0
3, 90720, Note_on_c, 0, 84, 0
3, 90720, Note_on_c, 0, 87, 67
3, 90720, Note_on_c, 0, 75, 67
3, 90768, Note_on_c, 0, 75, 0
3, 90768, Note_on_c, 0, 87, 0
3, 90768, Note_on_c, 0, 89, 67
3, 90768, Note_on_c, 0, 77, 67
3, 90816, Note_on_c, 0, 77, 0
3, 90816, Note_on_c, 0, 89, 0
3, 90816, Note_on_c, 0, 78, 67
3, 90816, Note_on_c, 0, 90, 67
3, 90912, Note_on_c, 0, 90, 0
3, 90912, Note_on_c, 0, 78, 0
3, 91056, Note_on_c, 0, 87, 67
3, 91056, Note_on_c, 0, 75, 67
3, 91104, Note_on_c, 0, 75, 0
3, 91104, Note_on_c, 0, 87, 0
3, 91104, Note_on_c, 0, 90, 67
3, 91104, Note_on_c, 0, 78, 67
3, 91152, Note_on_c, 0, 78, 0
3, 91152, Note_on_c, 0, 90, 0
3, 91152, Note_on_c, 0, 80, 67
3, 91152, Note_on_c, 0, 92, 67
3, 91200, Note_on_c, 0, 92, 0
3, 91200, Note_on_c, 0, 80, 0
3, 91200, Note_on_c, 0, 93, 67
3, 91200, Note_on_c, 0, 81, 67
3, 91296, Note_on_c, 0, 81, 0
3, 91296, Note_on_c, 0, 93, 0
3, 91440, Note_on_c, 0, 90, 67
3, 91440, Note_on_c, 0, 78, 67
3, 91440, Note_on_c, 0, 78, 67
3, 91488, Note_on_c, 0, 78, 0
3, 91488, Note_on_c, 0, 78, 0
3, 91488, Note_on_c, 0, 90, 0
3, 91488, Note_on_c, 0, 93, 67
3, 91488, Note_on_c, 0, 81, 67
3, 91536, Note_on_c, 0, 81, 0
3, 91536, Note_on_c, 0, 93, 0
3, 91536, Note_on_c, 0, 95, 67
3, 91536, Note_on_c, 0, 83, 67
3, 91584, Note_on_c, 0, 83, 0
3, 91584, Note_on_c, 0, 95, 0
3, 92928, Note_on_c, 0, 63, 67
3, 92928, Note_on_c, 0, 57, 67
3, 92968, Note_on_c, 0, 57, 0
3, 92968, Note_on_c, 0, 63, 0
3, 92976, Program_c, 0, 48
3, 93024, Note_on_c, 0, 60, 67
3, 93064, Note_on_c, 0, 60, 0
3, 93072, Note_on_c, 0, 62, 67
3, 93112, Note_on_c, 0, 62, 0
3, 93120, Note_on_c, 0, 63, 67
3, 93328, Note_on_c, 0, 63, 0
3, 93360, Note_on_c, 0, 62, 67
3, 93400, Note_on_c, 0, 62, 0
3, 93408, Note_on_c, 0, 63, 67
3, 93448, Note_on_c, 0, 63, 0
3, 93456, Note_on_c, 0, 48, 67
3, 93496, Note_on_c, 0, 48, 0
3, 93504, Note_on_c, 0, 48, 67
3, 93712, Note_on_c, 0, 48, 0
3, 93744, Note_on_c, 0, 48, 67
3, 93792, Note_on_c, 0, 66, 67
3, 93832, Note_on_c, 0, 66, 0
3, 93840, Note_on_c, 0, 68, 67
3, 93880, Note_on_c, 0, 68, 0
3, 93888, Note_on_c, 0, 70, 67
3, 93928, Note_on_c, 0, 70, 0
3, 93936, Note_on_c, 0, 48, 0
3, 93936, Note_on_c, 0, 68, 67
3, 93976, Note_on_c, 0, 68, 0
3, 93984, Note_on_c, 0, 70, 67
3, 94024, Note_on_c, 0, 70, 0
3, 94032, Note_on_c, 0, 73, 67
3, 94072, Note_on_c, 0, 73, 0
3, 94080, Note_on_c, 0, 75, 67
3, 94120, Note_on_c, 0, 75, 0
3, 94128, Note_on_c, 0, 73, 67
3, 94168, Note_on_c, 0, 73, 0
3, 94176, Note_on_c, 0, 75, 67
3, 94216, Note_on_c, 0, 75, 0
3, 94224, Note_on_c, 0, 77, 67
3, 94264, Note_on_c, 0, 77, 0
3, 94272, Note_on_c, 0, 78, 67
3, 94272, Note_on_c, 0, 71, 67
3, 94332, Note_on_c, 0, 71, 0
3, 94332, Note_on_c, 0, 78, 0
3, 94368, Note_on_c, 0, 75, 79
3, 94418, Note_on_c, 0, 75, 0
3, 94464, Note_on_c, 0, 83, 67
3, 94630, Note_on_c, 0, 83, 0
3, 94656, Note_on_c, 0, 83, 67
3, 94656, Note_on_c, 0, 80, 67
3, 94696, Note_on_c, 0, 80, 0
3, 94696, Note_on_c, 0, 83, 0
3, 94704, Note_on_c, 0, 82, 67
3, 94744, Note_on_c, 0, 82, 0
3, 94752, Note_on_c, 0, 80, 67
3, 94792, Note_on_c, 0, 80, 0
3, 94800, Note_on_c, 0, 82, 67
3, 94840, Note_on_c, 0, 82, 0
3, 94848, Note_on_c, 0, 80, 67
3, 94888, Note_on_c, 0, 80, 0
3, 94896, Note_on_c, 0, 78, 67
3, 94936, Note_on_c, 0, 78, 0
3, 94944, Note_on_c, 0, 77, 67
3, 94984, Note_on_c, 0, 77, 0
3, 94992, Note_on_c, 0, 75, 67
3, 95032, Note_on_c, 0, 75, 0
3, 95040, Note_on_c, 0, 74, 67
3, 95122, Note_on_c, 0, 74, 0
3, 95136, Note_on_c, 0, 77, 67
3, 95218, Note_on_c, 0, 77, 0
3, 95232, Note_on_c, 0, 71, 67
3, 95328, Note_on_c, 0, 71, 0
3, 95328, Note_on_c, 0, 75, 67
3, 95424, Note_on_c, 0, 75, 0
3, 95424, Note_on_c, 0, 68, 67
3, 95520, Note_on_c, 0, 68, 0
3, 95520, Note_on_c, 0, 71, 67
3, 95616, Note_on_c, 0, 71, 0
3, 95616, Note_on_c, 0, 65, 67
3, 95712, Note_on_c, 0, 65, 0
3, 95712, Note_on_c, 0, 68, 67
3, 95808, Note_on_c, 0, 68, 0
3, 95808, Note_on_c, 0, 58, 67
3, 95856, Note_on_c, 0, 58, 0
3, 95856, Note_on_c, 0, 58, 67
3, 95856, Note_on_c, 0, 70, 67
3, 95904, Note_on_c, 0, 70, 0
3, 95904, Note_on_c, 0, 58, 0
3, 95904, Note_on_c, 0, 72, 67
3, 95904, Note_on_c, 0, 60, 67
3, 95952, Note_on_c, 0, 60, 0
3, 95952, Note_on_c, 0, 72, 0
3, 95952, Note_on_c, 0, 62, 67
3, 95952, Note_on_c, 0, 74, 67
3, 96000, Note_on_c, 0, 74, 0
3, 96000, Note_on_c, 0, 62, 0
3, 96000, Note_on_c, 0, 63, 67
3, 96000, Note_on_c, 0, 75, 67
3, 96000, Note_on_c, 0, 63, 67
3, 96208, Note_on_c, 0, 63, 0
3, 96208, Note_on_c, 0, 63, 0
3, 96240, Note_on_c, 0, 75, 0
3, 96240, Note_on_c, 0, 74, 67
3, 96240, Note_on_c, 0, 62, 67
3, 96240, Note_on_c, 0, 62, 67
3, 96280, Note_on_c, 0, 62, 0
3, 96280, Note_on_c, 0, 62, 0
3, 96288, Note_on_c, 0, 74, 0
3, 96288, Note_on_c, 0, 63, 67
3, 96288, Note_on_c, 0, 75, 67
3, 96288, Note_on_c, 0, 63, 67
3, 96328, Note_on_c, 0, 63, 0
3, 96328, Note_on_c, 0, 63, 0
3, 96336, Note_on_c, 0, 75, 0
3, 96336, Note_on_c, 0, 65, 67
3, 96336, Note_on_c, 0, 77, 67
3, 96336, Note_on_c, 0, 65, 67
3, 96376, Note_on_c, 0, 65, 0
3, 96376, Note_on_c, 0, 65, 0
3, 96384, Note_on_c, 0, 77, 0
3, 96384, Note_on_c, 0, 80, 67
3, 96384, Note_on_c, 0, 68, 67
3, 96384, Note_on_c, 0, 68, 67
3, 96424, Note_on_c, 0, 68, 0
3, 96424, Note_on_c, 0, 68, 0
3, 96432, Note_on_c, 0, 80, 0
3, 96432, Note_on_c, 0, 78, 67
3, 96432, Note_on_c, 0, 66, 67
3, 96432, Note_on_c, 0, 66, 67
3, 96472, Note_on_c, 0, 66, 0
3, 96472, Note_on_c, 0, 66, 0
3, 96480, Note_on_c, 0, 78, 0
3, 96624, Note_on_c, 0, 63, 67
3, 96624, Note_on_c, 0, 75, 67
3, 96672, Note_on_c, 0, 75, 0
3, 96672, Note_on_c, 0, 63, 0
3, 96672, Note_on_c, 0, 65, 67
3, 96672, Note_on_c, 0, 77, 67
3, 96720, Note_on_c, 0, 77, 0
3, 96720, Note_on_c, 0, 65, 0
3, 96720, Note_on_c, 0, 67, 67
3, 96720, Note_on_c, 0, 79, 67
3, 96768, Note_on_c, 0, 79, 0
3, 96768, Note_on_c, 0, 67, 0
3, 96768, Note_on_c, 0, 80, 67
3, 96768, Note_on_c, 0, 68, 67
3, 96768, Note_on_c, 0, 68, 67
3, 96976, Note_on_c, 0, 68, 0
3, 96976, Note_on_c, 0, 68, 0
3, 97008, Note_on_c, 0, 80, 0
3, 97008, Note_on_c, 0, 79, 67
3, 97008, Note_on_c, 0, 67, 67
3, 97008, Note_on_c, 0, 67, 67
3, 97048, Note_on_c, 0, 67, 0
3, 97048, Note_on_c, 0, 67, 0
3, 97056, Note_on_c, 0, 79, 0
3, 97056, Note_on_c, 0, 80, 67
3, 97056, Note_on_c, 0, 68, 67
3, 97056, Note_on_c, 0, 68, 67
3, 97096, Note_on_c, 0, 68, 0
3, 97096, Note_on_c, 0, 68, 0
3, 97104, Note_on_c, 0, 80, 0
3, 97104, Note_on_c, 0, 70, 67
3, 97104, Note_on_c, 0, 82, 67
3, 97104, Note_on_c, 0, 70, 67
3, 97144, Note_on_c, 0, 70, 0
3, 97144, Note_on_c, 0, 70, 0
3, 97152, Note_on_c, 0, 82, 0
3, 97152, Note_on_c, 0, 73, 67
3, 97152, Note_on_c, 0, 85, 67
3, 97152, Note_on_c, 0, 73, 67
3, 97192, Note_on_c, 0, 73, 0
3, 97192, Note_on_c, 0, 73, 0
3, 97200, Note_on_c, 0, 85, 0
3, 97200, Note_on_c, 0, 71, 67
3, 97200, Note_on_c, 0, 83, 67
3, 97200, Note_on_c, 0, 71, 67
3, 97240, Note_on_c, 0, 71, 0
3, 97240, Note_on_c, 0, 71, 0
3, 97248, Note_on_c, 0, 83, 0
3, 97392, Note_on_c, 0, 82, 67
3, 97392, Note_on_c, 0, 70, 67
3, 97392, Note_on_c, 0, 70, 67
3, 97432, Note_on_c, 0, 70, 0
3, 97432, Note_on_c, 0, 70, 0
3, 97440, Note_on_c, 0, 82, 0
3, 97440, Note_on_c, 0, 83, 67
3, 97440, Note_on_c, 0, 71, 67
3, 97440, Note_on_c, 0, 71, 67
3, 97480, Note_on_c, 0, 71, 0
3, 97480, Note_on_c, 0, 71, 0
3, 97488, Note_on_c, 0, 83, 0
3, 97488, Note_on_c, 0, 86, 67
3, 97488, Note_on_c, 0, 74, 67
3, 97488, Note_on_c, 0, 74, 67
3, 97528, Note_on_c, 0, 74, 0
3, 97528, Note_on_c, 0, 74, 0
3, 97536, Note_on_c, 0, 86, 0
3, 97536, Note_on_c, 0, 89, 67
3, 97536, Note_on_c, 0, 77, 67
3, 97576, Note_on_c, 0, 77, 0
3, 97584, Note_on_c, 0, 89, 0
3, 97584, Note_on_c, 0, 75, 67
3, 97584, Note_on_c, 0, 87, 67
3, 97624, Note_on_c, 0, 75, 0
3, 97632, Note_on_c, 0, 87, 0
3, 97776, Note_on_c, 0, 86, 67
3, 97776, Note_on_c, 0, 74, 67
3, 97816, Note_on_c, 0, 74, 0
3, 97824, Note_on_c, 0, 86, 0
3, 97824, Note_on_c, 0, 87, 67
3, 97824, Note_on_c, 0, 75, 67
3, 97864, Note_on_c, 0, 75, 0
3, 97872, Note_on_c, 0, 87, 0
3, 97872, Note_on_c, 0, 89, 67
3, 97872, Note_on_c, 0, 77, 67
3, 97912, Note_on_c, 0, 77, 0
3, 97920, Note_on_c, 0, 89, 0
3, 97920, Note_on_c, 0, 80, 67
3, 97920, Note_on_c, 0, 92, 67
3, 97960, Note_on_c, 0, 80, 0
3, 97968, Note_on_c, 0, 92, 0
3, 97968, Note_on_c, 0, 90, 67
3, 97968, Note_on_c, 0, 78, 67
3, 98008, Note_on_c, 0, 78, 0
3, 98016, Note_on_c, 0, 90, 0
3, 98160, Note_on_c, 0, 89, 67
3, 98160, Note_on_c, 0, 77, 67
3, 98200, Note_on_c, 0, 77, 0
3, 98208, Note_on_c, 0, 89, 0
3, 98208, Note_on_c, 0, 90, 67
3, 98208, Note_on_c, 0, 78, 67
3, 98248, Note_on_c, 0, 78, 0
3, 98256, Note_on_c, 0, 90, 0
3, 98256, Note_on_c, 0, 80, 67
3, 98256, Note_on_c, 0, 92, 67
3, 98296, Note_on_c, 0, 80, 0
3, 98304, Note_on_c, 0, 92, 0
3, 111168, Note_on_c, 0, 78, 67
3, 111168, Note_on_c, 0, 66, 67
3, 111360, Note_on_c, 0, 66, 0
3, 111360, Note_on_c, 0, 78, 0
3, 111360, Note_on_c, 0, 85, 67
3, 111360, Note_on_c, 0, 73, 67
3, 111648, Note_on_c, 0, 73, 0
3, 111648, Note_on_c, 0, 85, 0
3, 111648, Note_on_c, 0, 73, 67
3, 111648, Note_on_c, 0, 85, 67
3, 111742, Note_on_c, 0, 85, 0
3, 111742, Note_on_c, 0, 73, 0
3, 111744, Note_on_c, 0, 73, 67
3, 111744, Note_on_c, 0, 85, 67
3, 111840, Note_on_c, 0, 85, 0
3, 111840, Note_on_c, 0, 73, 0
3, 111840, Note_on_c, 0, 71, 67
3, 111840, Note_on_c, 0, 83, 67
3, 111936, Note_on_c, 0, 83, 0
3, 111936, Note_on_c, 0, 71, 0
3, 111936, Note_on_c, 0, 82, 67
3, 111936, Note_on_c, 0, 70, 67
3, 112032, Note_on_c, 0, 70, 0
3, 112032, Note_on_c, 0, 82, 0
3, 112032, Note_on_c, 0, 68, 67
3, 112032, Note_on_c, 0, 80, 67
3, 112128, Note_on_c, 0, 80, 0
3, 112128, Note_on_c, 0, 68, 0
3, 112128, Note_on_c, 0, 85, 67
3, 112128, Note_on_c, 0, 73, 67
3, 112608, Note_on_c, 0, 73, 0
3, 112608, Note_on_c, 0, 85, 0
3, 112704, Note_on_c, 0, 80, 67
3, 112704, Note_on_c, 0, 68, 67
3, 112896, Note_on_c, 0, 68, 0
3, 112896, Note_on_c, 0, 80, 0
3, 112896, Note_on_c, 0, 73, 67
3, 112896, Note_on_c, 0, 85, 67
3, 113184, Note_on_c, 0, 85, 0
3, 113184, Note_on_c, 0, 73, 0
3, 113184, Note_on_c, 0, 85, 67
3, 113184, Note_on_c, 0, 73, 67
3, 113278, Note_on_c, 0, 73, 0
3, 113278, Note_on_c, 0, 85, 0
3, 113280, Note_on_c, 0, 85, 67
3, 113280, Note_on_c, 0, 73, 67
3, 113376, Note_on_c, 0, 73, 0
3, 113376, Note_on_c, 0, 85, 0
3, 113376, Note_on_c, 0, 83, 67
3, 113376, Note_on_c, 0, 71, 67
3, 113472, Note_on_c, 0, 71, 0
3, 113472, Note_on_c, 0, 83, 0
3, 113472, Note_on_c, 0, 70, 67
3, 113472, Note_on_c, 0, 82, 67
3, 113568, Note_on_c, 0, 82, 0
3, 113568, Note_on_c, 0, 70, 0
3, 113568, Note_on_c, 0, 80, 67
3, 113568, Note_on_c, 0, 68, 67
3, 113664, Note_on_c, 0, 68, 0
3, 113664, Note_on_c, 0, 80, 0
3, 113664, Note_on_c, 0, 73, 67
3, 113664, Note_on_c, 0, 85, 67
3, 114144, Note_on_c, 0, 85, 0
3, 114144, Note_on_c, 0, 73, 0
3, 114240, Note_on_c, 0, 61, 67
3, 114240, Note_on_c, 0, 73, 67
3, 114432, Note_on_c, 0, 73, 0
3, 114432, Note_on_c, 0, 61, 0
3, 114432, Note_on_c, 0, 63, 67
3, 114432, Note_on_c, 0, 75, 67
3, 114624, Note_on_c, 0, 75, 0
3, 114624, Note_on_c, 0, 63, 0
3, 114624, Note_on_c, 0, 78, 67
3, 114624, Note_on_c, 0, 66, 67
3, 114816, Note_on_c, 0, 66, 0
3, 114816, Note_on_c, 0, 78, 0
3, 114816, Note_on_c, 0, 68, 67
3, 114816, Note_on_c, 0, 80, 67
3, 115008, Note_on_c, 0, 80, 0
3, 115008, Note_on_c, 0, 68, 0
3, 115008, Note_on_c, 0, 70, 67
3, 115008, Note_on_c, 0, 82, 67
3, 115104, Note_on_c, 0, 82, 0
3, 115104, Note_on_c, 0, 70, 0
3, 115104, Note_on_c, 0, 83, 67
3, 115104, Note_on_c, 0, 71, 67
3, 115200, Note_on_c, 0, 71, 0
3, 115200, Note_on_c, 0, 83, 0
3, 115200, Note_on_c, 0, 85, 67
3, 115200, Note_on_c, 0, 73, 67
3, 115680, Note_on_c, 0, 73, 0
3, 115680, Note_on_c, 0, 85, 0
3, 115776, Note_on_c, 0, 73, 67
3, 115776, Note_on_c, 0, 85, 67
3, 115968, Note_on_c, 0, 85, 0
3, 115968, Note_on_c, 0, 73, 0
3, 115968, Note_on_c, 0, 75, 67
3, 115968, Note_on_c, 0, 87, 67
3, 116160, Note_on_c, 0, 87, 0
3, 116160, Note_on_c, 0, 75, 0
3, 116160, Note_on_c, 0, 90, 67
3, 116160, Note_on_c, 0, 78, 67
3, 116352, Note_on_c, 0, 78, 0
3, 116352, Note_on_c, 0, 90, 0
3, 116352, Note_on_c, 0, 77, 67
3, 116352, Note_on_c, 0, 89, 67
3, 116544, Note_on_c, 0, 89, 0
3, 116544, Note_on_c, 0, 77, 0
3, 116544, Note_on_c, 0, 87, 67
3, 116544, Note_on_c, 0, 75, 67
3, 116640, Note_on_c, 0, 75, 0
3, 116640, Note_on_c, 0, 87, 0
3, 116640, Note_on_c, 0, 73, 67
3, 116640, Note_on_c, 0, 85, 67
3, 116736, Note_on_c, 0, 85, 0
3, 116736, Note_on_c, 0, 73, 0
3, 116736, Note_on_c, 0, 78, 67
3, 116736, Note_on_c, 0, 90, 67
3, 117216, Note_on_c, 0, 90, 0
3, 117216, Note_on_c, 0, 78, 0
3, 117312, Note_on_c, 0, 73, 67
3, 117312, Note_on_c, 0, 61, 67
3, 117504, Note_on_c, 0, 61, 0
3, 117504, Note_on_c, 0, 73, 0
3, 117504, Note_on_c, 0, 75, 67
3, 117504, Note_on_c, 0, 63, 67
3, 117696, Note_on_c, 0, 63, 0
3, 117696, Note_on_c, 0, 75, 0
3, 117696, Note_on_c, 0, 78, 67
3, 117696, Note_on_c, 0, 66, 67
3, 117888, Note_on_c, 0, 66, 0
3, 117888, Note_on_c, 0, 78, 0
3, 117888, Note_on_c, 0, 80, 67
3, 117888, Note_on_c, 0, 68, 67
3, 118080, Note_on_c, 0, 68, 0
3, 118080, Note_on_c, 0, 80, 0
3, 118080, Note_on_c, 0, 82, 67
3, 118080, Note_on_c, 0, 70, 67
3, 118176, Note_on_c, 0, 70, 0
3, 118176, Note_on_c, 0, 82, 0
3, 118176, Note_on_c, 0, 83, 67
3, 118176, Note_on_c, 0, 71, 67
3, 118272, Note_on_c, 0, 71, 0
3, 118272, Note_on_c, 0, 83, 0
3, 118272, Note_on_c, 0, 85, 67
3, 118272, Note_on_c, 0, 73, 67
3, 118848, Note_on_c, 0, 73, 0
3, 118848, Note_on_c, 0, 85, 0
3, 118848, Note_on_c, 0, 73, 67
3, 118848, Note_on_c, 0, 85, 67
3, 119040, Note_on_c, 0, 85, 0
3, 119040, Note_on_c, 0, 73, 0
3, 119040, Note_on_c, 0, 75, 67
3, 119040, Note_on_c, 0, 87, 67
3, 119232, Note_on_c, 0, 87, 0
3, 119232, Note_on_c, 0, 75, 0
3, 119232, Note_on_c, 0, 90, 67
3, 119232, Note_on_c, 0, 78, 67
3, 119424, Note_on_c, 0, 78, 0
3, 119424, Note_on_c, 0, 90, 0
3, 119424, Note_on_c, 0, 77, 67
3, 119424, Note_on_c, 0, 89, 67
3, 119616, Note_on_c, 0, 89, 0
3, 119616, Note_on_c, 0, 77, 0
3, 119616, Note_on_c, 0, 87, 67
3, 119616, Note_on_c, 0, 75, 67
3, 119712, Note_on_c, 0, 75, 0
3, 119712, Note_on_c, 0, 87, 0
3, 119712, Note_on_c, 0, 85, 67
3, 119712, Note_on_c, 0, 73, 67
3, 119808, Note_on_c, 0, 73, 0
3, 119808, Note_on_c, 0, 85, 0
3, 119808, Note_on_c, 0, 78, 67
3, 119808, Note_on_c, 0, 90, 67
3, 120384, Note_on_c, 0, 90, 0
3, 120384, Note_on_c, 0, 78, 0
3, 120384, Note_on_c, 0, 90, 67
3, 120384, Note_on_c, 0, 78, 67
3, 120576, Note_on_c, 0, 78, 0
3, 120576, Note_on_c, 0, 90, 0
3, 120576, Note_on_c, 0, 79, 67
3, 120576, Note_on_c, 0, 91, 67
3, 120768, Note_on_c, 0, 91, 0
3, 120768, Note_on_c, 0, 79, 0
3, 120768, Note_on_c, 0, 90, 67
3, 120768, Note_on_c, 0, 78, 67
3, 120960, Note_on_c, 0, 78, 0
3, 120960, Note_on_c, 0, 90, 0
3, 120960, Note_on_c, 0, 90, 67
3, 120960, Note_on_c, 0, 78, 67
3, 121152, Note_on_c, 0, 78, 0
3, 121152, Note_on_c, 0, 90, 0
3, 121152, Note_on_c, 0, 88, 67
3, 121152, Note_on_c, 0, 76, 67
3, 121344, Note_on_c, 0, 76, 0
3, 121344, Note_on_c, 0, 88, 0
3, 121344, Note_on_c, 0, 76, 67
3, 121344, Note_on_c, 0, 88, 67
3, 121536, Note_on_c, 0, 88, 0
3, 121536, Note_on_c, 0, 76, 0
3, 121536, Note_on_c, 0, 90, 67
3, 121536, Note_on_c, 0, 78, 67
3, 121728, Note_on_c, 0, 78, 0
3, 121728, Note_on_c, 0, 90, 0
3, 121728, Note_on_c, 0, 78, 67
3, 121728, Note_on_c, 0, 90, 67
3, 121920, Note_on_c, 0, 90, 0
3, 121920, Note_on_c, 0, 78, 0
3, 121920, Note_on_c, 0, 91, 67
3, 121920, Note_on_c, 0, 79, 67
3, 122112, Note_on_c, 0, 79, 0
3, 122112, Note_on_c, 0, 91, 0
3, 122112, Note_on_c, 0, 91, 67
3, 122112, Note_on_c, 0, 79, 67
3, 122304, Note_on_c, 0, 79, 0
3, 122304, Note_on_c, 0, 91, 0
3, 122304, Note_on_c, 0, 86, 67
3, 122304, Note_on_c, 0, 74, 67
3, 122496, Note_on_c, 0, 74, 0
3, 122496, Note_on_c, 0, 86, 0
3, 122496, Note_on_c, 0, 86, 67
3, 122496, Note_on_c, 0, 74, 67
3, 122688, Note_on_c, 0, 74, 0
3, 122688, Note_on_c, 0, 86, 0
3, 122688, Note_on_c, 0, 72, 67
3, 122688, Note_on_c, 0, 84, 67
3, 122880, Note_on_c, 0, 84, 0
3, 122880, Note_on_c, 0, 72, 0
3, 122880, Note_on_c, 0, 84, 67
3, 122880, Note_on_c, 0, 72, 67
3, 122976, Note_on_c, 0, 72, 0
3, 122976, Note_on_c, 0, 84, 0
3, 122976, Note_on_c, 0, 71, 67
3, 122976, Note_on_c, 0, 83, 67
3, 123072, Note_on_c, 0, 83, 0
3, 123072, Note_on_c, 0, 71, 0
3, 123072, Note_on_c, 0, 76, 67
3, 123072, Note_on_c, 0, 88, 67
3, 123168, Note_on_c, 0, 88, 0
3, 123168, Note_on_c, 0, 76, 0
3, 123168, Note_on_c, 0, 86, 67
3, 123168, Note_on_c, 0, 74, 67
3, 123264, Note_on_c, 0, 74, 0
3, 123264, Note_on_c, 0, 86, 0
3, 123264, Note_on_c, 0, 69, 67
3, 123264, Note_on_c, 0, 81, 67
3, 123456, Note_on_c, 0, 81, 0
3, 123456, Note_on_c, 0, 69, 0
3, 123456, Note_on_c, 0, 74, 67
3, 123456, Note_on_c, 0, 86, 67
3, 123648, Note_on_c, 0, 86, 0
3, 123648, Note_on_c, 0, 74, 0
3, 123648, Note_on_c, 0, 91, 67
3, 123648, Note_on_c, 0, 79, 67
3, 123840, Note_on_c, 0, 79, 0
3, 123840, Note_on_c, 0, 91, 0
3, 123840, Note_on_c, 0, 90, 67
3, 123840, Note_on_c, 0, 78, 67
3, 124032, Note_on_c, 0, 78, 0
3, 124032, Note_on_c, 0, 90, 0
3, 124032, Note_on_c, 0, 90, 67
3, 124032, Note_on_c, 0, 78, 67
3, 124224, Note_on_c, 0, 78, 0
3, 124224, Note_on_c, 0, 90, 0
3, 124224, Note_on_c, 0, 76, 67
3, 124224, Note_on_c, 0, 88, 67
3, 124416, Note_on_c, 0, 88, 0
3, 124416, Note_on_c, 0, 76, 0
3, 124416, Note_on_c, 0, 76, 67
3, 124416, Note_on_c, 0, 88, 67
3, 124608, Note_on_c, 0, 88, 0
3, 124608, Note_on_c, 0, 76, 0
3, 124608, Note_on_c, 0, 90, 67
3, 124608, Note_on_c, 0, 78, 67
3, 124800, Note_on_c, 0, 78, 0
3, 124800, Note_on_c, 0, 90, 0
3, 124800, Note_on_c, 0, 90, 67
3, 124800, Note_on_c, 0, 78, 67
3, 124992, Note_on_c, 0, 78, 0
3, 124992, Note_on_c, 0, 90, 0
3, 124992, Note_on_c, 0, 91, 67
3, 124992, Note_on_c, 0, 79, 67
3, 125184, Note_on_c, 0, 79, 0
3, 125184, Note_on_c, 0, 91, 0
3, 125184, Note_on_c, 0, 79, 67
3, 125184, Note_on_c, 0, 91, 67
3, 125376, Note_on_c, 0, 91, 0
3, 125376, Note_on_c, 0, 79, 0
3, 125376, Note_on_c, 0, 89, 67
3, 125376, Note_on_c, 0, 77, 67
3, 125568, Note_on_c, 0, 77, 0
3, 125568, Note_on_c, 0, 89, 0
3, 125568, Note_on_c, 0, 77, 67
3, 125568, Note_on_c, 0, 89, 67
3, 125760, Note_on_c, 0, 89, 0
3, 125760, Note_on_c, 0, 77, 0
3, 125760, Note_on_c, 0, 87, 67
3, 125760, Note_on_c, 0, 75, 67
3, 125952, Note_on_c, 0, 75, 0
3, 125952, Note_on_c, 0, 87, 0
3, 125952, Note_on_c, 0, 87, 67
3, 125952, Note_on_c, 0, 75, 67
3, 126144, Note_on_c, 0, 75, 0
3, 126144, Note_on_c, 0, 87, 0
3, 126144, Note_on_c, 0, 89, 67
3, 126144, Note_on_c, 0, 77, 67
3, 126336, Note_on_c, 0, 77, 0
3, 126336, Note_on_c, 0, 89, 0
3, 126336, Note_on_c, 0, 89, 67
3, 126336, Note_on_c, 0, 77, 67
3, 126528, Note_on_c, 0, 77, 0
3, 126528, Note_on_c, 0, 89, 0
3, 126528, Note_on_c, 0, 90, 67
3, 126528, Note_on_c, 0, 78, 67
3, 126720, Note_on_c, 0, 78, 0
3, 126720, Note_on_c, 0, 90, 0
3, 126720, Note_on_c, 0, 90, 67
3, 126720, Note_on_c, 0, 78, 67
3, 126912, Note_on_c, 0, 78, 0
3, 126912, Note_on_c, 0, 90, 0
3, 126912, Note_on_c, 0, 89, 67
3, 126912, Note_on_c, 0, 77, 67
3, 127104, Note_on_c, 0, 77, 0
3, 127104, Note_on_c, 0, 89, 0
3, 127104, Note_on_c, 0, 89, 67
3, 127104, Note_on_c, 0, 77, 67
3, 127296, Note_on_c, 0, 77, 0
3, 127296, Note_on_c, 0, 89, 0
3, 127296, Note_on_c, 0, 87, 67
3, 127296, Note_on_c, 0, 75, 67
3, 127488, Note_on_c, 0, 75, 0
3, 127488, Note_on_c, 0, 87, 0
3, 127488, Note_on_c, 0, 87, 67
3, 127488, Note_on_c, 0, 75, 67
3, 127680, Note_on_c, 0, 75, 0
3, 127680, Note_on_c, 0, 87, 0
3, 127680, Note_on_c, 0, 89, 67
3, 127680, Note_on_c, 0, 77, 67
3, 127872, Note_on_c, 0, 77, 0
3, 127872, Note_on_c, 0, 89, 0
3, 127872, Note_on_c, 0, 89, 67
3, 127872, Note_on_c, 0, 77, 67
3, 128064, Note_on_c, 0, 77, 0
3, 128064, Note_on_c, 0, 89, 0
3, 128064, Note_on_c, 0, 90, 67
3, 128064, Note_on_c, 0, 78, 67
3, 128256, Note_on_c, 0, 78, 0
3, 128256, Note_on_c, 0, 90, 0
3, 128256, Note_on_c, 0, 79, 67
3, 128256, Note_on_c, 0, 91, 67
3, 128640, Note_on_c, 0, 91, 0
3, 128640, Note_on_c, 0, 79, 0
3, 128640, Note_on_c, 0, 77, 67
3, 128640, Note_on_c, 0, 89, 67
3, 129024, Note_on_c, 0, 89, 0
3, 129024, Note_on_c, 0, 77, 0
3, 129024, Note_on_c, 0, 87, 67
3, 129024, Note_on_c, 0, 75, 67
3, 129134, Note_on_c, 0, 75, 0
3, 129134, Note_on_c, 0, 87, 0
3, 129152, Note_on_c, 0, 86, 67
3, 129152, Note_on_c, 0, 74, 67
3, 129262, Note_on_c, 0, 74, 0
3, 129262, Note_on_c, 0, 86, 0
3, 129280, Note_on_c, 0, 84, 67
3, 129280, Note_on_c, 0, 72, 67
3, 129390, Note_on_c, 0, 72, 0
3, 129390, Note_on_c, 0, 84, 0
3, 129408, Note_on_c, 0, 70, 67
3, 129408, Note_on_c, 0, 82, 67
3, 129518, Note_on_c, 0, 82, 0
3, 129518, Note_on_c, 0, 70, 0
3, 129536, Note_on_c, 0, 81, 67
3, 129536, Note_on_c, 0, 69, 67
3, 129646, Note_on_c, 0, 69, 0
3, 129646, Note_on_c, 0, 81, 0
3, 129664, Note_on_c, 0, 68, 67
3, 129664, Note_on_c, 0, 80, 67
3, 129774, Note_on_c, 0, 80, 0
3, 129774, Note_on_c, 0, 68, 0
3, 129792, Note_on_c, 0, 79, 67
3, 129792, Note_on_c, 0, 67, 67
3, 130176, Note_on_c, 0, 67, 0
3, 130176, Note_on_c, 0, 79, 0
3, 130176, Note_on_c, 0, 65, 67
3, 130176, Note_on_c, 0, 77, 67
3, 130560, Note_on_c, 0, 77, 0
3, 130560, Note_on_c, 0, 65, 0
3, 130560, Note_on_c, 0, 63, 67
3, 130560, Note_on_c, 0, 75, 67
3, 130670, Note_on_c, 0, 75, 0
3, 130688, Note_on_c, 0, 63, 0
3, 130688, Note_on_c, 0, 74, 67
3, 130688, Note_on_c, 0, 62, 67
3, 130798, Note_on_c, 0, 74, 0
3, 130816, Note_on_c, 0, 62, 0
3, 130816, Note_on_c, 0, 60, 67
3, 130816, Note_on_c, 0, 72, 67
3, 130926, Note_on_c, 0, 72, 0
3, 130944, Note_on_c, 0, 60, 0
3, 130944, Note_on_c, 0, 58, 67
3, 130944, Note_on_c, 0, 70, 67
3, 131054, Note_on_c, 0, 70, 0
3, 131072, Note_on_c, 0, 58, 0
3, 131072, Note_on_c, 0, 69, 67
3, 131182, Note_on_c, 0, 69, 0
3, 131200, Note_on_c, 0, 70, 67
3, 131310, Note_on_c, 0, 70, 0
3, 131328, Note_on_c, 0, 67, 67
3, 131456, Note_on_c, 0, 67, 0
3, 131456, Note_on_c, 0, 63, 67
3, 131584, Note_on_c, 0, 63, 0
3, 131584, Note_on_c, 0, 60, 67
3, 131712, Note_on_c, 0, 60, 0
3, 131712, Note_on_c, 0, 58, 67
3, 131808, Note_on_c, 0, 58, 0
3, 131904, Note_on_c, 0, 58, 67
3, 132096, Note_on_c, 0, 58, 0
3, 132096, Note_on_c, 0, 57, 67
3, 132288, Note_on_c, 0, 57, 0
3, 132288, Note_on_c, 0, 63, 67
3, 132480, Note_on_c, 0, 63, 0
3, 132480, Note_on_c, 0, 65, 67
3, 132672, Note_on_c, 0, 65, 0
3, 132672, Note_on_c, 0, 67, 67
3, 132768, Note_on_c, 0, 67, 0
3, 132768, Note_on_c, 0, 68, 67
3, 132864, Note_on_c, 0, 68, 0
3, 132864, Note_on_c, 0, 70, 67
3, 133440, Note_on_c, 0, 70, 0
3, 133440, Note_on_c, 0, 70, 67
3, 133632, Note_on_c, 0, 70, 0
3, 133632, Note_on_c, 0, 72, 67
3, 133824, Note_on_c, 0, 72, 0
3, 133824, Note_on_c, 0, 75, 67
3, 134016, Note_on_c, 0, 75, 0
3, 134016, Note_on_c, 0, 70, 67
3, 134208, Note_on_c, 0, 70, 0
3, 134208, Note_on_c, 0, 69, 67
3, 134304, Note_on_c, 0, 69, 0
3, 134304, Note_on_c, 0, 68, 67
3, 134400, Note_on_c, 0, 68, 0
3, 134400, Note_on_c, 0, 66, 67
3, 134784, Note_on_c, 0, 66, 0
3, 134784, Note_on_c, 0, 65, 67
3, 134976, Note_on_c, 0, 65, 0
3, 134976, Note_on_c, 0, 58, 67
3, 135168, Note_on_c, 0, 58, 0
3, 135168, Note_on_c, 0, 60, 67
3, 135360, Note_on_c, 0, 60, 0
3, 135360, Note_on_c, 0, 63, 67
3, 135552, Note_on_c, 0, 63, 0
3, 135552, Note_on_c, 0, 65, 67
3, 135744, Note_on_c, 0, 65, 0
3, 135744, Note_on_c, 0, 66, 67
3, 135840, Note_on_c, 0, 66, 0
3, 135840, Note_on_c, 0, 68, 67
3, 135936, Note_on_c, 0, 68, 0
3, 135936, Note_on_c, 0, 70, 67
3, 136512, Note_on_c, 0, 70, 0
3, 136512, Note_on_c, 0, 58, 67
3, 136704, Note_on_c, 0, 58, 0
3, 136704, Note_on_c, 0, 60, 67
3, 136896, Note_on_c, 0, 60, 0
3, 136896, Note_on_c, 0, 63, 67
3, 137088, Note_on_c, 0, 63, 0
3, 137088, Note_on_c, 0, 65, 67
3, 137280, Note_on_c, 0, 65, 0
3, 137280, Note_on_c, 0, 66, 67
3, 137376, Note_on_c, 0, 66, 0
3, 137376, Note_on_c, 0, 68, 67
3, 137472, Note_on_c, 0, 68, 0
3, 137472, Note_on_c, 0, 70, 67
3, 137856, Note_on_c, 0, 70, 0
3, 137856, Note_on_c, 0, 65, 67
3, 138240, Note_on_c, 0, 63, 67
3, 138336, Note_on_c, 0, 63, 0
3, 138336, Note_on_c, 0, 65, 0
3, 138624, Note_on_c, 0, 65, 67
3, 139008, Note_on_c, 0, 65, 0
3, 139008, Note_on_c, 0, 63, 67
3, 139104, Note_on_c, 0, 63, 0
3, 139392, Note_on_c, 0, 65, 67
3, 139776, Note_on_c, 0, 65, 0
3, 139776, Note_on_c, 0, 63, 67
3, 139872, Note_on_c, 0, 63, 0
3, 141312, Note_on_c, 0, 65, 67
3, 142176, Note_on_c, 0, 65, 0
3, 150528, Note_on_c, 0, 58, 104
3, 150576, Note_on_c, 0, 58, 0
3, 150624, Note_on_c, 0, 58, 104
3, 150672, Note_on_c, 0, 58, 0
3, 150672, Note_on_c, 0, 59, 104
3, 150720, Note_on_c, 0, 59, 0
3, 150720, Note_on_c, 0, 58, 104
3, 150768, Note_on_c, 0, 58, 0
3, 150816, Note_on_c, 0, 56, 104
3, 150864, Note_on_c, 0, 56, 0
3, 150912, Note_on_c, 0, 54, 104
3, 150960, Note_on_c, 0, 54, 0
3, 151008, Note_on_c, 0, 54, 104
3, 151056, Note_on_c, 0, 54, 0
3, 151104, Note_on_c, 0, 56, 104
3, 151200, Note_on_c, 0, 56, 0
3, 151200, Note_on_c, 0, 51, 104
3, 151296, Note_on_c, 0, 51, 0
3, 157152, Note_on_c, 0, 63, 67
3, 157234, Note_on_c, 0, 63, 0
3, 157248, Note_on_c, 0, 75, 67
3, 157288, Note_on_c, 0, 75, 0
3, 157296, Note_on_c, 0, 73, 67
3, 157336, Note_on_c, 0, 73, 0
3, 157344, Note_on_c, 0, 72, 67
3, 157384, Note_on_c, 0, 72, 0
3, 157392, Note_on_c, 0, 73, 67
3, 157432, Note_on_c, 0, 73, 0
3, 157440, Note_on_c, 0, 72, 67
3, 157480, Note_on_c, 0, 72, 0
3, 157488, Note_on_c, 0, 70, 67
3, 157528, Note_on_c, 0, 70, 0
3, 157536, Note_on_c, 0, 69, 67
3, 157576, Note_on_c, 0, 69, 0
3, 157584, Note_on_c, 0, 70, 67
3, 157624, Note_on_c, 0, 70, 0
3, 157632, Note_on_c, 0, 69, 67
3, 157680, Note_on_c, 0, 69, 0
3, 157728, Note_on_c, 0, 66, 67
3, 157776, Note_on_c, 0, 66, 0
3, 157824, Note_on_c, 0, 65, 67
3, 157872, Note_on_c, 0, 65, 0
3, 157920, Note_on_c, 0, 64, 67
3, 157968, Note_on_c, 0, 64, 0
3, 158016, Note_on_c, 0, 63, 67
3, 158064, Note_on_c, 0, 63, 0
3, 158304, Note_on_c, 0, 65, 67
3, 158374, Note_on_c, 0, 65, 0
3, 158400, Note_on_c, 0, 66, 67
3, 158482, Note_on_c, 0, 66, 0
3, 158688, Note_on_c, 0, 68, 67
3, 158758, Note_on_c, 0, 68, 0
3, 158784, Note_on_c, 0, 69, 67
3, 158866, Note_on_c, 0, 69, 0
3, 159072, Note_on_c, 0, 71, 67
3, 159142, Note_on_c, 0, 71, 0
3, 159168, Note_on_c, 0, 72, 67
3, 159250, Note_on_c, 0, 72, 0
3, 159456, Note_on_c, 0, 74, 67
3, 159526, Note_on_c, 0, 74, 0
3, 159552, Note_on_c, 0, 75, 67
3, 159634, Note_on_c, 0, 75, 0
3, 159936, Note_on_c, 0, 66, 67
3, 159936, Note_on_c, 0, 75, 67
3, 160102, Note_on_c, 0, 75, 0
3, 160102, Note_on_c, 0, 66, 0
3, 160128, Note_on_c, 0, 65, 67
3, 160128, Note_on_c, 0, 74, 67
3, 160294, Note_on_c, 0, 74, 0
3, 160294, Note_on_c, 0, 65, 0
3, 160320, Note_on_c, 0, 66, 67
3, 160320, Note_on_c, 0, 75, 67
3, 160486, Note_on_c, 0, 75, 0
3, 160486, Note_on_c, 0, 66, 0
3, 160704, Note_on_c, 0, 76, 67
3, 160704, Note_on_c, 0, 67, 67
3, 160870, Note_on_c, 0, 76, 0
3, 160896, Note_on_c, 0, 67, 0
3, 160896, Note_on_c, 0, 75, 67
3, 160896, Note_on_c, 0, 66, 67
3, 161062, Note_on_c, 0, 75, 0
3, 161088, Note_on_c, 0, 66, 0
3, 161088, Note_on_c, 0, 76, 67
3, 161088, Note_on_c, 0, 67, 67
3, 161170, Note_on_c, 0, 76, 0
3, 161280, Note_on_c, 0, 67, 0
3, 161856, Note_on_c, 0, 75, 67
3, 161856, Note_on_c, 0, 63, 67
3, 161952, Note_on_c, 0, 63, 0
3, 161952, Note_on_c, 0, 75, 0
3, 161952, Note_on_c, 0, 63, 67
3, 161952, Note_on_c, 0, 75, 67
3, 162000, Note_on_c, 0, 75, 0
3, 162000, Note_on_c, 0, 63, 0
3, 162000, Note_on_c, 0, 63, 67
3, 162000, Note_on_c, 0, 75, 67
3, 162048, Note_on_c, 0, 75, 0
3, 162048, Note_on_c, 0, 63, 0
3, 162048, Note_on_c, 0, 68, 67
3, 162048, Note_on_c, 0, 80, 67
3, 162240, Note_on_c, 0, 80, 0
3, 162240, Note_on_c, 0, 68, 0
3, 162240, Note_on_c, 0, 80, 67
3, 162240, Note_on_c, 0, 68, 67
3, 162432, Note_on_c, 0, 68, 0
3, 162432, Note_on_c, 0, 80, 0
3, 162432, Note_on_c, 0, 69, 67
3, 162432, Note_on_c, 0, 81, 67
3, 162624, Note_on_c, 0, 81, 0
3, 162624, Note_on_c, 0, 69, 0
3, 162624, Note_on_c, 0, 69, 67
3, 162624, Note_on_c, 0, 81, 67
3, 162816, Note_on_c, 0, 81, 0
3, 162816, Note_on_c, 0, 69, 0
3, 162816, Note_on_c, 0, 82, 67
3, 162816, Note_on_c, 0, 70, 67
3, 162898, Note_on_c, 0, 70, 0
3, 162912, Note_on_c, 0, 82, 0
3, 162912, Note_on_c, 0, 84, 67
3, 162912, Note_on_c, 0, 72, 67
3, 162994, Note_on_c, 0, 72, 0
3, 163008, Note_on_c, 0, 84, 0
3, 163008, Note_on_c, 0, 85, 67
3, 163008, Note_on_c, 0, 73, 67
3, 163090, Note_on_c, 0, 73, 0
3, 163104, Note_on_c, 0, 85, 0
3, 163776, Note_on_c, 0, 55, 67
3, 163776, Note_on_c, 0, 58, 67
3, 164064, Note_on_c, 0, 58, 0
3, 164064, Note_on_c, 0, 55, 0
3, 164160, Note_on_c, 0, 58, 67
3, 164160, Note_on_c, 0, 61, 67
3, 164448, Note_on_c, 0, 61, 0
3, 164448, Note_on_c, 0, 58, 0
3, 164448, Note_on_c, 0, 58, 67
3, 164448, Note_on_c, 0, 55, 67
3, 164488, Note_on_c, 0, 58, 0
3, 164496, Note_on_c, 0, 55, 0
3, 164496, Note_on_c, 0, 58, 67
3, 164496, Note_on_c, 0, 55, 67
3, 164536, Note_on_c, 0, 58, 0
3, 164544, Note_on_c, 0, 55, 0
3, 164544, Note_on_c, 0, 67, 67
3, 164544, Note_on_c, 0, 70, 67
3, 164626, Note_on_c, 0, 70, 0
3, 164626, Note_on_c, 0, 67, 0
3, 164640, Note_on_c, 0, 58, 67
3, 164640, Note_on_c, 0, 61, 67
3, 164680, Note_on_c, 0, 61, 0
3, 164688, Note_on_c, 0, 58, 0
3, 164688, Note_on_c, 0, 58, 67
3, 164688, Note_on_c, 0, 61, 67
3, 164728, Note_on_c, 0, 61, 0
3, 164736, Note_on_c, 0, 58, 0
3, 164736, Note_on_c, 0, 73, 67
3, 164736, Note_on_c, 0, 70, 67
3, 164818, Note_on_c, 0, 70, 0
3, 164818, Note_on_c, 0, 73, 0
3, 164832, Note_on_c, 0, 61, 67
3, 164832, Note_on_c, 0, 64, 67
3, 164872, Note_on_c, 0, 64, 0
3, 164880, Note_on_c, 0, 61, 0
3, 164880, Note_on_c, 0, 64, 67
3, 164880, Note_on_c, 0, 61, 67
3, 164920, Note_on_c, 0, 64, 0
3, 164928, Note_on_c, 0, 61, 0
3, 164928, Note_on_c, 0, 73, 67
3, 164928, Note_on_c, 0, 76, 67
3, 165010, Note_on_c, 0, 76, 0
3, 165010, Note_on_c, 0, 73, 0
3, 165312, Note_on_c, 0, 67, 67
3, 165312, Note_on_c, 0, 76, 67
3, 165478, Note_on_c, 0, 76, 0
3, 165504, Note_on_c, 0, 67, 0
3, 165504, Note_on_c, 0, 75, 67
3, 165504, Note_on_c, 0, 66, 67
3, 165670, Note_on_c, 0, 75, 0
3, 165696, Note_on_c, 0, 66, 0
3, 165696, Note_on_c, 0, 67, 67
3, 165696, Note_on_c, 0, 76, 67
3, 165862, Note_on_c, 0, 76, 0
3, 165888, Note_on_c, 0, 67, 0
3, 166080, Note_on_c, 0, 77, 67
3, 166080, Note_on_c, 0, 68, 67
3, 166246, Note_on_c, 0, 77, 0
3, 166272, Note_on_c, 0, 68, 0
3, 166272, Note_on_c, 0, 67, 67
3, 166272, Note_on_c, 0, 76, 67
3, 166438, Note_on_c, 0, 76, 0
3, 166464, Note_on_c, 0, 67, 0
3, 166464, Note_on_c, 0, 68, 67
3, 166464, Note_on_c, 0, 77, 67
3, 166560, Note_on_c, 0, 77, 0
3, 166560, Note_on_c, 0, 68, 0
3, 167232, Note_on_c, 0, 76, 67
3, 167232, Note_on_c, 0, 64, 67
3, 167328, Note_on_c, 0, 64, 0
3, 167328, Note_on_c, 0, 76, 0
3, 167328, Note_on_c, 0, 64, 67
3, 167328, Note_on_c, 0, 76, 67
3, 167376, Note_on_c, 0, 76, 0
3, 167376, Note_on_c, 0, 64, 0
3, 167376, Note_on_c, 0, 64, 67
3, 167376, Note_on_c, 0, 76, 67
3, 167376, Note_on_c, 0, 64, 67
3, 167424, Note_on_c, 0, 64, 0
3, 167424, Note_on_c, 0, 76, 0
3, 167424, Note_on_c, 0, 64, 0
3, 167424, Note_on_c, 0, 69, 67
3, 167424, Note_on_c, 0, 81, 67
3, 167590, Note_on_c, 0, 69, 0
3, 167616, Note_on_c, 0, 81, 0
3, 167616, Note_on_c, 0, 81, 67
3, 167616, Note_on_c, 0, 69, 67
3, 167782, Note_on_c, 0, 69, 0
3, 167808, Note_on_c, 0, 81, 0
3, 167808, Note_on_c, 0, 70, 67
3, 167808, Note_on_c, 0, 82, 67
3, 168000, Note_on_c, 0, 82, 0
3, 168000, Note_on_c, 0, 70, 0
3, 168000, Note_on_c, 0, 82, 67
3, 168000, Note_on_c, 0, 70, 67
3, 168000, Note_on_c, 0, 70, 67
3, 168166, Note_on_c, 0, 70, 0
3, 168192, Note_on_c, 0, 70, 0
3, 168192, Note_on_c, 0, 82, 0
3, 168192, Note_on_c, 0, 83, 67
3, 168192, Note_on_c, 0, 71, 67
3, 168274, Note_on_c, 0, 71, 0
3, 168288, Note_on_c, 0, 83, 0
3, 168288, Note_on_c, 0, 85, 67
3, 168288, Note_on_c, 0, 73, 67
3, 168370, Note_on_c, 0, 73, 0
3, 168384, Note_on_c, 0, 85, 0
3, 168384, Note_on_c, 0, 86, 67
3, 168384, Note_on_c, 0, 74, 67
3, 168466, Note_on_c, 0, 74, 0
3, 168480, Note_on_c, 0, 86, 0
3, 169248, Note_on_c, 0, 56, 67
3, 169248, Note_on_c, 0, 62, 67
3, 169536, Note_on_c, 0, 62, 0
3, 169536, Note_on_c, 0, 56, 0
3, 169536, Note_on_c, 0, 62, 67
3, 169536, Note_on_c, 0, 59, 67
3, 169824, Note_on_c, 0, 59, 0
3, 169824, Note_on_c, 0, 62, 0
3, 169824, Note_on_c, 0, 59, 67
3, 169824, Note_on_c, 0, 56, 67
3, 169864, Note_on_c, 0, 59, 0
3, 169872, Note_on_c, 0, 56, 0
3, 169872, Note_on_c, 0, 59, 67
3, 169872, Note_on_c, 0, 56, 67
3, 169912, Note_on_c, 0, 59, 0
3, 169920, Note_on_c, 0, 56, 0
3, 169920, Note_on_c, 0, 71, 67
3, 169920, Note_on_c, 0, 68, 67
3, 170002, Note_on_c, 0, 68, 0
3, 170002, Note_on_c, 0, 71, 0
3, 170016, Note_on_c, 0, 62, 67
3, 170016, Note_on_c, 0, 59, 67
3, 170056, Note_on_c, 0, 62, 0
3, 170064, Note_on_c, 0, 59, 0
3, 170064, Note_on_c, 0, 59, 67
3, 170064, Note_on_c, 0, 62, 67
3, 170104, Note_on_c, 0, 62, 0
3, 170112, Note_on_c, 0, 59, 0
3, 170112, Note_on_c, 0, 74, 67
3, 170112, Note_on_c, 0, 71, 67
3, 170194, Note_on_c, 0, 71, 0
3, 170194, Note_on_c, 0, 74, 0
3, 170208, Note_on_c, 0, 62, 67
3, 170208, Note_on_c, 0, 65, 67
3, 170248, Note_on_c, 0, 65, 0
3, 170256, Note_on_c, 0, 62, 0
3, 170256, Note_on_c, 0, 62, 67
3, 170256, Note_on_c, 0, 65, 67
3, 170296, Note_on_c, 0, 65, 0
3, 170304, Note_on_c, 0, 62, 0
3, 170304, Note_on_c, 0, 77, 67
3, 170304, Note_on_c, 0, 74, 67
3, 170386, Note_on_c, 0, 74, 0
3, 170386, Note_on_c, 0, 77, 0
3, 170400, Note_on_c, 0, 75, 67
3, 170400, Note_on_c, 0, 78, 67
3, 170482, Note_on_c, 0, 78, 0
3, 170482, Note_on_c, 0, 75, 0
3, 170688, Note_on_c, 0, 60, 67
3, 170688, Note_on_c, 0, 63, 67
3, 170976, Note_on_c, 0, 63, 0
3, 170976, Note_on_c, 0, 60, 0
3, 171072, Note_on_c, 0, 66, 67
3, 171072, Note_on_c, 0, 63, 67
3, 171360, Note_on_c, 0, 63, 0
3, 171360, Note_on_c, 0, 66, 0
3, 171360, Note_on_c, 0, 63, 67
3, 171360, Note_on_c, 0, 60, 67
3, 171400, Note_on_c, 0, 63, 0
3, 171408, Note_on_c, 0, 60, 0
3, 171408, Note_on_c, 0, 63, 67
3, 171408, Note_on_c, 0, 60, 67
3, 171448, Note_on_c, 0, 63, 0
3, 171456, Note_on_c, 0, 60, 0
3, 171456, Note_on_c, 0, 72, 67
3, 171456, Note_on_c, 0, 75, 67
3, 171538, Note_on_c, 0, 75, 0
3, 171538, Note_on_c, 0, 72, 0
3, 171552, Note_on_c, 0, 63, 67
3, 171552, Note_on_c, 0, 66, 67
3, 171592, Note_on_c, 0, 66, 0
3, 171600, Note_on_c, 0, 63, 0
3, 171600, Note_on_c, 0, 66, 67
3, 171600, Note_on_c, 0, 63, 67
3, 171640, Note_on_c, 0, 66, 0
3, 171648, Note_on_c, 0, 63, 0
3, 171648, Note_on_c, 0, 75, 67
3, 171648, Note_on_c, 0, 78, 67
3, 171744, Note_on_c, 0, 78, 0
3, 171744, Note_on_c, 0, 75, 0
3, 171744, Note_on_c, 0, 66, 67
3, 171744, Note_on_c, 0, 69, 67
3, 171784, Note_on_c, 0, 69, 0
3, 171792, Note_on_c, 0, 66, 0
3, 171792, Note_on_c, 0, 69, 67
3, 171792, Note_on_c, 0, 66, 67
3, 171832, Note_on_c, 0, 69, 0
3, 171840, Note_on_c, 0, 66, 0
3, 171840, Note_on_c, 0, 81, 67
3, 171840, Note_on_c, 0, 78, 67
3, 171936, Note_on_c, 0, 78, 0
3, 171936, Note_on_c, 0, 81, 0
3, 171936, Note_on_c, 0, 82, 67
3, 171936, Note_on_c, 0, 79, 67
3, 172018, Note_on_c, 0, 79, 0
3, 172018, Note_on_c, 0, 82, 0
3, 172128, Note_on_c, 0, 67, 67
3, 172128, Note_on_c, 0, 70, 67
3, 172168, Note_on_c, 0, 70, 0
3, 172176, Note_on_c, 0, 67, 0
3, 172176, Note_on_c, 0, 67, 67
3, 172176, Note_on_c, 0, 70, 67
3, 172216, Note_on_c, 0, 70, 0
3, 172224, Note_on_c, 0, 67, 0
3, 172224, Note_on_c, 0, 79, 67
3, 172224, Note_on_c, 0, 82, 67
3, 172306, Note_on_c, 0, 82, 0
3, 172320, Note_on_c, 0, 79, 0
3, 172320, Note_on_c, 0, 83, 67
3, 172320, Note_on_c, 0, 79, 67
3, 172368, Note_on_c, 0, 79, 0
3, 172368, Note_on_c, 0, 79, 67
3, 172402, Note_on_c, 0, 83, 0
3, 172416, Note_on_c, 0, 79, 0
3, 172416, Note_on_c, 0, 85, 67
3, 172416, Note_on_c, 0, 79, 67
3, 172512, Note_on_c, 0, 79, 0
3, 172512, Note_on_c, 0, 73, 67
3, 172512, Note_on_c, 0, 67, 67
3, 172560, Note_on_c, 0, 67, 0
3, 172560, Note_on_c, 0, 73, 0
3, 172560, Note_on_c, 0, 73, 67
3, 172560, Note_on_c, 0, 67, 67
3, 172582, Note_on_c, 0, 85, 0
3, 172608, Note_on_c, 0, 67, 0
3, 172608, Note_on_c, 0, 73, 0
3, 172608, Note_on_c, 0, 63, 67
3, 172608, Note_on_c, 0, 66, 67
3, 172656, Note_on_c, 0, 66, 0
3, 172656, Note_on_c, 0, 63, 0
3, 172656, Note_on_c, 0, 67, 67
3, 172656, Note_on_c, 0, 64, 67
3, 172656, Note_on_c, 0, 67, 67
3, 172704, Note_on_c, 0, 67, 0
3, 172704, Note_on_c, 0, 64, 0
3, 172704, Note_on_c, 0, 67, 0
3, 172704, Note_on_c, 0, 76, 67
3, 172704, Note_on_c, 0, 70, 67
3, 172752, Note_on_c, 0, 70, 0
3, 172752, Note_on_c, 0, 76, 0
3, 172752, Note_on_c, 0, 76, 67
3, 172752, Note_on_c, 0, 70, 67
3, 172800, Note_on_c, 0, 70, 0
3, 172800, Note_on_c, 0, 76, 0
3, 172848, Note_on_c, 0, 70, 67
3, 172848, Note_on_c, 0, 70, 67
3, 172848, Note_on_c, 0, 67, 67
3, 172896, Note_on_c, 0, 67, 0
3, 172896, Note_on_c, 0, 70, 0
3, 172896, Note_on_c, 0, 70, 0
3, 172896, Note_on_c, 0, 79, 67
3, 172896, Note_on_c, 0, 73, 67
3, 172978, Note_on_c, 0, 73, 0
3, 172978, Note_on_c, 0, 79, 0
3, 172992, Note_on_c, 0, 69, 67
3, 172992, Note_on_c, 0, 72, 67
3, 173032, Note_on_c, 0, 72, 0
3, 173040, Note_on_c, 0, 69, 0
3, 173040, Note_on_c, 0, 73, 67
3, 173040, Note_on_c, 0, 70, 67
3, 173080, Note_on_c, 0, 73, 0
3, 173088, Note_on_c, 0, 70, 0
3, 173088, Note_on_c, 0, 82, 67
3, 173088, Note_on_c, 0, 76, 67
3, 173136, Note_on_c, 0, 82, 0
3, 173136, Note_on_c, 0, 82, 67
3, 173170, Note_on_c, 0, 76, 0
3, 173184, Note_on_c, 0, 82, 0
3, 173184, Note_on_c, 0, 75, 67
3, 173184, Note_on_c, 0, 72, 67
3, 173232, Note_on_c, 0, 72, 0
3, 173232, Note_on_c, 0, 75, 0
3, 173232, Note_on_c, 0, 76, 67
3, 173232, Note_on_c, 0, 73, 67
3, 173280, Note_on_c, 0, 73, 0
3, 173280, Note_on_c, 0, 76, 0
3, 173280, Note_on_c, 0, 79, 67
3, 173280, Note_on_c, 0, 85, 67
3, 173328, Note_on_c, 0, 85, 0
3, 173328, Note_on_c, 0, 79, 0
3, 173328, Note_on_c, 0, 85, 67
3, 173328, Note_on_c, 0, 79, 67
3, 173376, Note_on_c, 0, 79, 0
3, 173376, Note_on_c, 0, 85, 0
3, 173376, Note_on_c, 0, 75, 67
3, 173424, Note_on_c, 0, 75, 0
3, 173424, Note_on_c, 0, 76, 67
3, 173424, Note_on_c, 0, 79, 67
3, 173464, Note_on_c, 0, 79, 0
3, 173472, Note_on_c, 0, 76, 0
3, 173472, Note_on_c, 0, 89, 67
3, 173472, Note_on_c, 0, 79, 67
3, 173472, Note_on_c, 0, 85, 67
3, 173520, Note_on_c, 0, 85, 0
3, 173520, Note_on_c, 0, 79, 0
3, 173520, Note_on_c, 0, 85, 67
3, 173520, Note_on_c, 0, 79, 67
3, 173554, Note_on_c, 0, 89, 0
3, 173568, Note_on_c, 0, 79, 0
3, 173568, Note_on_c, 0, 85, 0
3, 173664, Note_on_c, 0, 67, 67
3, 173664, Note_on_c, 0, 64, 67
3, 173704, Note_on_c, 0, 67, 0
3, 173712, Note_on_c, 0, 64, 0
3, 173712, Note_on_c, 0, 64, 67
3, 173712, Note_on_c, 0, 67, 67
3, 173752, Note_on_c, 0, 67, 0
3, 173760, Note_on_c, 0, 64, 0
3, 173760, Note_on_c, 0, 76, 67
3, 173760, Note_on_c, 0, 79, 67
3, 173856, Note_on_c, 0, 79, 0
3, 173856, Note_on_c, 0, 76, 0
3, 173856, Note_on_c, 0, 80, 67
3, 173856, Note_on_c, 0, 76, 67
3, 173952, Note_on_c, 0, 76, 0
3, 173952, Note_on_c, 0, 80, 0
3, 173952, Note_on_c, 0, 76, 67
3, 173952, Note_on_c, 0, 82, 67
3, 174048, Note_on_c, 0, 82, 0
3, 174048, Note_on_c, 0, 76, 0
3, 174048, Note_on_c, 0, 64, 67
3, 174048, Note_on_c, 0, 70, 67
3, 174096, Note_on_c, 0, 70, 0
3, 174096, Note_on_c, 0, 64, 0
3, 174096, Note_on_c, 0, 64, 67
3, 174096, Note_on_c, 0, 70, 67
3, 174144, Note_on_c, 0, 70, 0
3, 174144, Note_on_c, 0, 64, 0
3, 174144, Note_on_c, 0, 60, 67
3, 174144, Note_on_c, 0, 63, 67
3, 174192, Note_on_c, 0, 63, 0
3, 174192, Note_on_c, 0, 60, 0
3, 174192, Note_on_c, 0, 64, 67
3, 174192, Note_on_c, 0, 61, 67
3, 174240, Note_on_c, 0, 61, 0
3, 174240, Note_on_c, 0, 64, 0
3, 174240, Note_on_c, 0, 67, 67
3, 174240, Note_on_c, 0, 73, 67
3, 174288, Note_on_c, 0, 73, 0
3, 174288, Note_on_c, 0, 67, 0
3, 174288, Note_on_c, 0, 73, 67
3, 174288, Note_on_c, 0, 67, 67
3, 174336, Note_on_c, 0, 67, 0
3, 174336, Note_on_c, 0, 73, 0
3, 174336, Note_on_c, 0, 63, 67
3, 174336, Note_on_c, 0, 66, 67
3, 174384, Note_on_c, 0, 66, 0
3, 174384, Note_on_c, 0, 63, 0
3, 174384, Note_on_c, 0, 64, 67
3, 174384, Note_on_c, 0, 67, 67
3, 174432, Note_on_c, 0, 67, 0
3, 174432, Note_on_c, 0, 64, 0
3, 174432, Note_on_c, 0, 70, 67
3, 174432, Note_on_c, 0, 76, 67
3, 174480, Note_on_c, 0, 76, 0
3, 174480, Note_on_c, 0, 70, 0
3, 174480, Note_on_c, 0, 76, 67
3, 174480, Note_on_c, 0, 70, 67
3, 174528, Note_on_c, 0, 70, 0
3, 174528, Note_on_c, 0, 76, 0
3, 174528, Note_on_c, 0, 69, 67
3, 174528, Note_on_c, 0, 66, 67
3, 174568, Note_on_c, 0, 69, 0
3, 174576, Note_on_c, 0, 66, 0
3, 174576, Note_on_c, 0, 67, 67
3, 174576, Note_on_c, 0, 70, 67
3, 174616, Note_on_c, 0, 70, 0
3, 174624, Note_on_c, 0, 67, 0
3, 174624, Note_on_c, 0, 73, 67
3, 174624, Note_on_c, 0, 79, 67
3, 174672, Note_on_c, 0, 79, 0
3, 174672, Note_on_c, 0, 73, 0
3, 174672, Note_on_c, 0, 79, 67
3, 174672, Note_on_c, 0, 73, 67
3, 174720, Note_on_c, 0, 73, 0
3, 174720, Note_on_c, 0, 79, 0
3, 174720, Note_on_c, 0, 69, 67
3, 174720, Note_on_c, 0, 72, 67
3, 174768, Note_on_c, 0, 72, 0
3, 174768, Note_on_c, 0, 69, 0
3, 174768, Note_on_c, 0, 70, 67
3, 174768, Note_on_c, 0, 73, 67
3, 174816, Note_on_c, 0, 73, 0
3, 174816, Note_on_c, 0, 70, 0
3, 174816, Note_on_c, 0, 82, 67
3, 174816, Note_on_c, 0, 76, 67
3, 174864, Note_on_c, 0, 76, 0
3, 174864, Note_on_c, 0, 82, 0
3, 174864, Note_on_c, 0, 82, 67
3, 174864, Note_on_c, 0, 76, 67
3, 174912, Note_on_c, 0, 76, 0
3, 174912, Note_on_c, 0, 82, 0
3, 174912, Note_on_c, 0, 72, 67
3, 174912, Note_on_c, 0, 75, 67
3, 174960, Note_on_c, 0, 75, 0
3, 174960, Note_on_c, 0, 72, 0
3, 174960, Note_on_c, 0, 73, 67
3, 174960, Note_on_c, 0, 76, 67
3, 175008, Note_on_c, 0, 76, 0
3, 175008, Note_on_c, 0, 73, 0
3, 175008, Note_on_c, 0, 82, 67
3, 175008, Note_on_c, 0, 85, 67
3, 175056, Note_on_c, 0, 85, 0
3, 175056, Note_on_c, 0, 82, 0
3, 175056, Note_on_c, 0, 85, 67
3, 175056, Note_on_c, 0, 82, 67
3, 175104, Note_on_c, 0, 82, 0
3, 175104, Note_on_c, 0, 85, 0
3, 175200, Note_on_c, 0, 73, 67
3, 175200, Note_on_c, 0, 70, 67
3, 175248, Note_on_c, 0, 70, 0
3, 175248, Note_on_c, 0, 73, 0
3, 175248, Note_on_c, 0, 70, 67
3, 175248, Note_on_c, 0, 73, 67
3, 175296, Note_on_c, 0, 73, 0
3, 175296, Note_on_c, 0, 70, 0
3, 175296, Note_on_c, 0, 82, 67
3, 175296, Note_on_c, 0, 85, 67
3, 175392, Note_on_c, 0, 85, 0
3, 175392, Note_on_c, 0, 82, 0
3, 175392, Note_on_c, 0, 87, 67
3, 175392, Note_on_c, 0, 82, 67
3, 175488, Note_on_c, 0, 82, 0
3, 175488, Note_on_c, 0, 87, 0
3, 175488, Note_on_c, 0, 82, 67
3, 175488, Note_on_c, 0, 88, 67
3, 175584, Note_on_c, 0, 88, 0
3, 175584, Note_on_c, 0, 82, 0
3, 175584, Note_on_c, 0, 76, 67
3, 175584, Note_on_c, 0, 70, 67
3, 175632, Note_on_c, 0, 70, 0
3, 175632, Note_on_c, 0, 76, 0
3, 175632, Note_on_c, 0, 76, 67
3, 175632, Note_on_c, 0, 70, 67
3, 175680, Note_on_c, 0, 70, 0
3, 175680, Note_on_c, 0, 76, 0
3, 175680, Note_on_c, 0, 70, 67
3, 175720, Note_on_c, 0, 70, 0
3, 175728, Note_on_c, 0, 71, 67
3, 175776, Note_on_c, 0, 73, 67
3, 175776, Note_on_c, 0, 79, 67
3, 175824, Note_on_c, 0, 79, 0
3, 175824, Note_on_c, 0, 73, 0
3, 175824, Note_on_c, 0, 79, 67
3, 175824, Note_on_c, 0, 73, 67
3, 175853, Note_on_c, 0, 71, 0
3, 175872, Note_on_c, 0, 73, 0
3, 175872, Note_on_c, 0, 79, 0
3, 175872, Note_on_c, 0, 72, 67
3, 175872, Note_on_c, 0, 69, 67
3, 175920, Note_on_c, 0, 69, 0
3, 175920, Note_on_c, 0, 72, 0
3, 175920, Note_on_c, 0, 70, 67
3, 175920, Note_on_c, 0, 73, 67
3, 175968, Note_on_c, 0, 73, 0
3, 175968, Note_on_c, 0, 70, 0
3, 175968, Note_on_c, 0, 76, 67
3, 175968, Note_on_c, 0, 80, 67
3, 176016, Note_on_c, 0, 80, 0
3, 176016, Note_on_c, 0, 76, 0
3, 176016, Note_on_c, 0, 80, 67
3, 176016, Note_on_c, 0, 76, 67
3, 176064, Note_on_c, 0, 76, 0
3, 176064, Note_on_c, 0, 80, 0
3, 176064, Note_on_c, 0, 72, 67
3, 176064, Note_on_c, 0, 75, 67
3, 176112, Note_on_c, 0, 75, 0
3, 176112, Note_on_c, 0, 72, 0
3, 176112, Note_on_c, 0, 73, 67
3, 176112, Note_on_c, 0, 76, 67
3, 176160, Note_on_c, 0, 76, 0
3, 176160, Note_on_c, 0, 73, 0
3, 176160, Note_on_c, 0, 85, 67
3, 176160, Note_on_c, 0, 79, 67
3, 176208, Note_on_c, 0, 79, 0
3, 176208, Note_on_c, 0, 85, 0
3, 176208, Note_on_c, 0, 85, 67
3, 176208, Note_on_c, 0, 79, 67
3, 176256, Note_on_c, 0, 79, 0
3, 176256, Note_on_c, 0, 85, 0
3, 176256, Note_on_c, 0, 75, 67
3, 176256, Note_on_c, 0, 78, 67
3, 176304, Note_on_c, 0, 78, 0
3, 176304, Note_on_c, 0, 75, 0
3, 176304, Note_on_c, 0, 76, 67
3, 176304, Note_on_c, 0, 79, 67
3, 176352, Note_on_c, 0, 79, 0
3, 176352, Note_on_c, 0, 76, 0
3, 176352, Note_on_c, 0, 82, 67
3, 176352, Note_on_c, 0, 88, 67
3, 176400, Note_on_c, 0, 88, 0
3, 176400, Note_on_c, 0, 82, 0
3, 176400, Note_on_c, 0, 82, 67
3, 176400, Note_on_c, 0, 88, 67
3, 176448, Note_on_c, 0, 88, 0
3, 176448, Note_on_c, 0, 82, 0
3, 176448, Note_on_c, 0, 81, 67
3, 176448, Note_on_c, 0, 78, 67
3, 176496, Note_on_c, 0, 78, 0
3, 176496, Note_on_c, 0, 81, 0
3, 176496, Note_on_c, 0, 82, 67
3, 176496, Note_on_c, 0, 79, 67
3, 176544, Note_on_c, 0, 79, 0
3, 176544, Note_on_c, 0, 82, 0
3, 176544, Note_on_c, 0, 88, 67
3, 176544, Note_on_c, 0, 82, 67
3, 176592, Note_on_c, 0, 82, 0
3, 176592, Note_on_c, 0, 88, 0
3, 176592, Note_on_c, 0, 88, 67
3, 176592, Note_on_c, 0, 82, 67
3, 176640, Note_on_c, 0, 82, 0
3, 176640, Note_on_c, 0, 88, 0
3, 176736, Note_on_c, 0, 70, 67
3, 176736, Note_on_c, 0, 67, 67
3, 176776, Note_on_c, 0, 70, 0
3, 176784, Note_on_c, 0, 67, 0
3, 176784, Note_on_c, 0, 67, 67
3, 176784, Note_on_c, 0, 70, 67
3, 176824, Note_on_c, 0, 70, 0
3, 176832, Note_on_c, 0, 67, 0
3, 176832, Note_on_c, 0, 82, 67
3, 176832, Note_on_c, 0, 79, 67
3, 176914, Note_on_c, 0, 82, 0
3, 176928, Note_on_c, 0, 79, 0
3, 176928, Note_on_c, 0, 83, 67
3, 176928, Note_on_c, 0, 79, 67
3, 177010, Note_on_c, 0, 83, 0
3, 177024, Note_on_c, 0, 79, 0
3, 177024, Note_on_c, 0, 85, 67
3, 177024, Note_on_c, 0, 79, 67
3, 177120, Note_on_c, 0, 79, 0
3, 177120, Note_on_c, 0, 67, 67
3, 177120, Note_on_c, 0, 73, 67
3, 177168, Note_on_c, 0, 73, 0
3, 177168, Note_on_c, 0, 67, 0
3, 177168, Note_on_c, 0, 67, 67
3, 177168, Note_on_c, 0, 73, 67
3, 177190, Note_on_c, 0, 85, 0
3, 177216, Note_on_c, 0, 73, 0
3, 177216, Note_on_c, 0, 67, 0
3, 177216, Note_on_c, 0, 66, 67
3, 177216, Note_on_c, 0, 63, 67
3, 177264, Note_on_c, 0, 63, 0
3, 177264, Note_on_c, 0, 66, 0
3, 177264, Note_on_c, 0, 67, 67
3, 177264, Note_on_c, 0, 64, 67
3, 177312, Note_on_c, 0, 64, 0
3, 177312, Note_on_c, 0, 67, 0
3, 177504, Note_on_c, 0, 70, 67
3, 177504, Note_on_c, 0, 67, 67
3, 177552, Note_on_c, 0, 67, 0
3, 177552, Note_on_c, 0, 70, 0
3, 177552, Note_on_c, 0, 70, 67
3, 177552, Note_on_c, 0, 67, 67
3, 177600, Note_on_c, 0, 67, 0
3, 177600, Note_on_c, 0, 70, 0
3, 177600, Note_on_c, 0, 82, 67
3, 177600, Note_on_c, 0, 79, 67
3, 177682, Note_on_c, 0, 82, 0
3, 177696, Note_on_c, 0, 79, 0
3, 177696, Note_on_c, 0, 79, 67
3, 177696, Note_on_c, 0, 83, 67
3, 177778, Note_on_c, 0, 83, 0
3, 177792, Note_on_c, 0, 79, 0
3, 177792, Note_on_c, 0, 79, 67
3, 177792, Note_on_c, 0, 85, 67
3, 177888, Note_on_c, 0, 79, 0
3, 177888, Note_on_c, 0, 73, 67
3, 177888, Note_on_c, 0, 67, 67
3, 177936, Note_on_c, 0, 67, 0
3, 177936, Note_on_c, 0, 73, 0
3, 177936, Note_on_c, 0, 73, 67
3, 177936, Note_on_c, 0, 67, 67
3, 177958, Note_on_c, 0, 85, 0
3, 177984, Note_on_c, 0, 67, 0
3, 177984, Note_on_c, 0, 73, 0
3, 177984, Note_on_c, 0, 66, 67
3, 177984, Note_on_c, 0, 63, 67
3, 178032, Note_on_c, 0, 63, 0
3, 178032, Note_on_c, 0, 66, 0
3, 178032, Note_on_c, 0, 64, 67
3, 178032, Note_on_c, 0, 67, 67
3, 178080, Note_on_c, 0, 67, 0
3, 178080, Note_on_c, 0, 64, 0
3, 178272, Note_on_c, 0, 71, 67
3, 178272, Note_on_c, 0, 68, 67
3, 178312, Note_on_c, 0, 71, 0
3, 178320, Note_on_c, 0, 68, 0
3, 178320, Note_on_c, 0, 71, 67
3, 178320, Note_on_c, 0, 68, 67
3, 178360, Note_on_c, 0, 71, 0
3, 178368, Note_on_c, 0, 68, 0
3, 178368, Note_on_c, 0, 80, 67
3, 178368, Note_on_c, 0, 83, 67
3, 178450, Note_on_c, 0, 83, 0
3, 178464, Note_on_c, 0, 80, 0
3, 178464, Note_on_c, 0, 80, 67
3, 178464, Note_on_c, 0, 85, 67
3, 178546, Note_on_c, 0, 85, 0
3, 178560, Note_on_c, 0, 80, 0
3, 178560, Note_on_c, 0, 80, 67
3, 178560, Note_on_c, 0, 86, 67
3, 178656, Note_on_c, 0, 80, 0
3, 178656, Note_on_c, 0, 74, 67
3, 178656, Note_on_c, 0, 68, 67
3, 178704, Note_on_c, 0, 68, 0
3, 178704, Note_on_c, 0, 74, 0
3, 178704, Note_on_c, 0, 74, 67
3, 178704, Note_on_c, 0, 68, 67
3, 178726, Note_on_c, 0, 86, 0
3, 178752, Note_on_c, 0, 68, 0
3, 178752, Note_on_c, 0, 74, 0
3, 178752, Note_on_c, 0, 64, 67
3, 178752, Note_on_c, 0, 67, 67
3, 178800, Note_on_c, 0, 67, 0
3, 178800, Note_on_c, 0, 64, 0
3, 178800, Note_on_c, 0, 68, 67
3, 178800, Note_on_c, 0, 65, 67
3, 178848, Note_on_c, 0, 65, 0
3, 178848, Note_on_c, 0, 68, 0
3, 179040, Note_on_c, 0, 69, 67
3, 179040, Note_on_c, 0, 72, 67
3, 179080, Note_on_c, 0, 72, 0
3, 179088, Note_on_c, 0, 69, 0
3, 179088, Note_on_c, 0, 72, 67
3, 179088, Note_on_c, 0, 69, 67
3, 179128, Note_on_c, 0, 72, 0
3, 179136, Note_on_c, 0, 69, 0
3, 179136, Note_on_c, 0, 81, 67
3, 179136, Note_on_c, 0, 84, 67
3, 179218, Note_on_c, 0, 84, 0
3, 179232, Note_on_c, 0, 81, 0
3, 179232, Note_on_c, 0, 86, 67
3, 179232, Note_on_c, 0, 81, 67
3, 179314, Note_on_c, 0, 86, 0
3, 179328, Note_on_c, 0, 81, 0
3, 179328, Note_on_c, 0, 81, 67
3, 179328, Note_on_c, 0, 87, 67
3, 179424, Note_on_c, 0, 81, 0
3, 179424, Note_on_c, 0, 69, 67
3, 179424, Note_on_c, 0, 75, 67
3, 179472, Note_on_c, 0, 75, 0
3, 179472, Note_on_c, 0, 69, 0
3, 179472, Note_on_c, 0, 75, 67
3, 179472, Note_on_c, 0, 69, 67
3, 179494, Note_on_c, 0, 87, 0
3, 179520, Note_on_c, 0, 69, 0
3, 179520, Note_on_c, 0, 75, 0
3, 179520, Note_on_c, 0, 68, 67
3, 179520, Note_on_c, 0, 65, 67
3, 179568, Note_on_c, 0, 65, 0
3, 179568, Note_on_c, 0, 68, 0
3, 179568, Note_on_c, 0, 66, 67
3, 179568, Note_on_c, 0, 69, 67
3, 179616, Note_on_c, 0, 69, 0
3, 179616, Note_on_c, 0, 66, 0
3, 179616, Note_on_c, 0, 78, 67
3, 179616, Note_on_c, 0, 72, 67
3, 179664, Note_on_c, 0, 72, 0
3, 179664, Note_on_c, 0, 78, 0
3, 179664, Note_on_c, 0, 78, 67
3, 179664, Note_on_c, 0, 72, 67
3, 179712, Note_on_c, 0, 72, 0
3, 179712, Note_on_c, 0, 78, 0
3, 179712, Note_on_c, 0, 68, 67
3, 179712, Note_on_c, 0, 71, 67
3, 179752, Note_on_c, 0, 71, 0
3, 179752, Note_on_c, 0, 68, 0
3, 179760, Note_on_c, 0, 69, 67
3, 179760, Note_on_c, 0, 72, 67
3, 179808, Note_on_c, 0, 72, 0
3, 179808, Note_on_c, 0, 69, 0
3, 179808, Note_on_c, 0, 81, 67
3, 179808, Note_on_c, 0, 75, 67
3, 179856, Note_on_c, 0, 75, 0
3, 179856, Note_on_c, 0, 81, 0
3, 179856, Note_on_c, 0, 75, 67
3, 179904, Note_on_c, 0, 75, 0
3, 179904, Note_on_c, 0, 71, 67
3, 179904, Note_on_c, 0, 74, 67
3, 179944, Note_on_c, 0, 74, 0
3, 179952, Note_on_c, 0, 71, 0
3, 179952, Note_on_c, 0, 75, 67
3, 179952, Note_on_c, 0, 72, 67
3, 179992, Note_on_c, 0, 75, 0
3, 180000, Note_on_c, 0, 72, 0
3, 180000, Note_on_c, 0, 84, 67
3, 180000, Note_on_c, 0, 78, 67
3, 180048, Note_on_c, 0, 78, 0
3, 180048, Note_on_c, 0, 84, 0
3, 180048, Note_on_c, 0, 78, 67
3, 180048, Note_on_c, 0, 84, 67
3, 180096, Note_on_c, 0, 84, 0
3, 180096, Note_on_c, 0, 78, 0
3, 180096, Note_on_c, 0, 77, 67
3, 180096, Note_on_c, 0, 74, 67
3, 180136, Note_on_c, 0, 77, 0
3, 180144, Note_on_c, 0, 74, 0
3, 180144, Note_on_c, 0, 78, 67
3, 180144, Note_on_c, 0, 76, 67
3, 180184, Note_on_c, 0, 78, 0
3, 180192, Note_on_c, 0, 76, 0
3, 180192, Note_on_c, 0, 81, 67
3, 180192, Note_on_c, 0, 87, 67
3, 180240, Note_on_c, 0, 87, 0
3, 180240, Note_on_c, 0, 81, 0
3, 180240, Note_on_c, 0, 81, 67
3, 180240, Note_on_c, 0, 87, 67
3, 180288, Note_on_c, 0, 87, 0
3, 180288, Note_on_c, 0, 81, 0
3, 180288, Note_on_c, 0, 81, 67
3, 180288, Note_on_c, 0, 80, 67
3, 180328, Note_on_c, 0, 80, 0
3, 180336, Note_on_c, 0, 81, 0
3, 180336, Note_on_c, 0, 83, 67
3, 180336, Note_on_c, 0, 81, 67
3, 180376, Note_on_c, 0, 81, 0
3, 180384, Note_on_c, 0, 83, 0
3, 180384, Note_on_c, 0, 91, 67
3, 180384, Note_on_c, 0, 84, 67
3, 180430, Note_on_c, 0, 84, 0
3, 180432, Note_on_c, 0, 91, 0
3, 180432, Note_on_c, 0, 90, 67
3, 180432, Note_on_c, 0, 81, 67
3, 180480, Note_on_c, 0, 81, 0
3, 180480, Note_on_c, 0, 90, 0
3, 180480, Note_on_c, 0, 89, 67
3, 180480, Note_on_c, 0, 80, 67
3, 180528, Note_on_c, 0, 80, 0
3, 180528, Note_on_c, 0, 89, 0
3, 180528, Note_on_c, 0, 90, 67
3, 180528, Note_on_c, 0, 81, 67
3, 180576, Note_on_c, 0, 81, 0
3, 180576, Note_on_c, 0, 90, 0
3, 180576, Note_on_c, 0, 81, 67
3, 180576, Note_on_c, 0, 90, 67
3, 180624, Note_on_c, 0, 90, 0
3, 180624, Note_on_c, 0, 81, 0
3, 180624, Note_on_c, 0, 90, 67
3, 180624, Note_on_c, 0, 81, 67
3, 180672, Note_on_c, 0, 81, 0
3, 180672, Note_on_c, 0, 90, 0
3, 180672, Note_on_c, 0, 89, 67
3, 180672, Note_on_c, 0, 80, 67
3, 180720, Note_on_c, 0, 80, 0
3, 180720, Note_on_c, 0, 89, 0
3, 180720, Note_on_c, 0, 81, 67
3, 180720, Note_on_c, 0, 90, 67
3, 180768, Note_on_c, 0, 90, 0
3, 180768, Note_on_c, 0, 81, 0
3, 180768, Note_on_c, 0, 81, 67
3, 180768, Note_on_c, 0, 90, 67
3, 180816, Note_on_c, 0, 90, 0
3, 180816, Note_on_c, 0, 81, 0
3, 180816, Note_on_c, 0, 90, 67
3, 180816, Note_on_c, 0, 81, 67
3, 180864, Note_on_c, 0, 81, 0
3, 180864, Note_on_c, 0, 90, 0
3, 180864, Note_on_c, 0, 89, 67
3, 180864, Note_on_c, 0, 80, 67
3, 180912, Note_on_c, 0, 80, 0
3, 180912, Note_on_c, 0, 89, 0
3, 180912, Note_on_c, 0, 81, 67
3, 180912, Note_on_c, 0, 90, 67
3, 180960, Note_on_c, 0, 90, 0
3, 180960, Note_on_c, 0, 81, 0
3, 180960, Note_on_c, 0, 90, 67
3, 180960, Note_on_c, 0, 81, 67
3, 181008, Note_on_c, 0, 81, 0
3, 181008, Note_on_c, 0, 90, 0
3, 181008, Note_on_c, 0, 90, 67
3, 181008, Note_on_c, 0, 81, 67
3, 181056, Note_on_c, 0, 81, 0
3, 181056, Note_on_c, 0, 90, 0
3, 181056, Note_on_c, 0, 89, 67
3, 181056, Note_on_c, 0, 80, 67
3, 181104, Note_on_c, 0, 80, 0
3, 181104, Note_on_c, 0, 89, 0
3, 181104, Note_on_c, 0, 81, 67
3, 181104, Note_on_c, 0, 90, 67
3, 181152, Note_on_c, 0, 90, 0
3, 181152, Note_on_c, 0, 81, 0
3, 181152, Note_on_c, 0, 90, 67
3, 181152, Note_on_c, 0, 81, 67
3, 181200, Note_on_c, 0, 81, 0
3, 181200, Note_on_c, 0, 90, 0
3, 181200, Note_on_c, 0, 90, 67
3, 181200, Note_on_c, 0, 81, 67
3, 181248, Note_on_c, 0, 81, 0
3, 181248, Note_on_c, 0, 90, 0
3, 181248, Note_on_c, 0, 77, 67
3, 181248, Note_on_c, 0, 86, 67
3, 181296, Note_on_c, 0, 86, 0
3, 181296, Note_on_c, 0, 77, 0
3, 181296, Note_on_c, 0, 78, 67
3, 181296, Note_on_c, 0, 87, 67
3, 181344, Note_on_c, 0, 87, 0
3, 181344, Note_on_c, 0, 78, 0
3, 181344, Note_on_c, 0, 87, 67
3, 181344, Note_on_c, 0, 78, 67
3, 181392, Note_on_c, 0, 78, 0
3, 181392, Note_on_c, 0, 87, 0
3, 181392, Note_on_c, 0, 87, 67
3, 181392, Note_on_c, 0, 78, 67
3, 181440, Note_on_c, 0, 78, 0
3, 181440, Note_on_c, 0, 87, 0
3, 181440, Note_on_c, 0, 77, 67
3, 181440, Note_on_c, 0, 81, 67
3, 181488, Note_on_c, 0, 81, 0
3, 181488, Note_on_c, 0, 77, 0
3, 181488, Note_on_c, 0, 82, 67
3, 181488, Note_on_c, 0, 78, 67
3, 181488, Note_on_c, 0, 82, 67
3, 181536, Note_on_c, 0, 82, 0
3, 181536, Note_on_c, 0, 78, 0
3, 181536, Note_on_c, 0, 82, 0
3, 181536, Note_on_c, 0, 82, 67
3, 181536, Note_on_c, 0, 78, 67
3, 181584, Note_on_c, 0, 78, 0
3, 181584, Note_on_c, 0, 82, 0
3, 181584, Note_on_c, 0, 82, 67
3, 181584, Note_on_c, 0, 78, 67
3, 181632, Note_on_c, 0, 78, 0
3, 181632, Note_on_c, 0, 82, 0
3, 181632, Note_on_c, 0, 77, 67
3, 181632, Note_on_c, 0, 74, 67
3, 181680, Note_on_c, 0, 74, 0
3, 181680, Note_on_c, 0, 77, 0
3, 181680, Note_on_c, 0, 78, 67
3, 181680, Note_on_c, 0, 78, 67
3, 181680, Note_on_c, 0, 75, 67
3, 181728, Note_on_c, 0, 75, 0
3, 181728, Note_on_c, 0, 78, 0
3, 181728, Note_on_c, 0, 78, 0
3, 181728, Note_on_c, 0, 75, 67
3, 181728, Note_on_c, 0, 78, 67
3, 181776, Note_on_c, 0, 78, 0
3, 181776, Note_on_c, 0, 75, 0
3, 181776, Note_on_c, 0, 75, 67
3, 181776, Note_on_c, 0, 78, 67
3, 181824, Note_on_c, 0, 78, 0
3, 181824, Note_on_c, 0, 75, 0
3, 181824, Note_on_c, 0, 74, 67
3, 181824, Note_on_c, 0, 65, 67
3, 181872, Note_on_c, 0, 65, 0
3, 181872, Note_on_c, 0, 74, 0
3, 181872, Note_on_c, 0, 75, 67
3, 181872, Note_on_c, 0, 66, 67
3, 181920, Note_on_c, 0, 66, 0
3, 181920, Note_on_c, 0, 75, 0
3, 181920, Note_on_c, 0, 66, 67
3, 181920, Note_on_c, 0, 75, 67
3, 181968, Note_on_c, 0, 75, 0
3, 181968, Note_on_c, 0, 66, 0
3, 181968, Note_on_c, 0, 66, 67
3, 181968, Note_on_c, 0, 75, 67
3, 182016, Note_on_c, 0, 75, 0
3, 182016, Note_on_c, 0, 66, 0
3, 182016, Note_on_c, 0, 70, 67
3, 182016, Note_on_c, 0, 62, 67
3, 182064, Note_on_c, 0, 62, 0
3, 182064, Note_on_c, 0, 70, 0
3, 182064, Note_on_c, 0, 71, 67
3, 182064, Note_on_c, 0, 63, 67
3, 182112, Note_on_c, 0, 63, 0
3, 182112, Note_on_c, 0, 71, 0
3, 182112, Note_on_c, 0, 63, 67
3, 182112, Note_on_c, 0, 71, 67
3, 182160, Note_on_c, 0, 71, 0
3, 182160, Note_on_c, 0, 63, 0
3, 182160, Note_on_c, 0, 63, 67
3, 182160, Note_on_c, 0, 71, 67
3, 182208, Note_on_c, 0, 71, 0
3, 182208, Note_on_c, 0, 63, 0
3, 182208, Note_on_c, 0, 65, 67
3, 182208, Note_on_c, 0, 62, 67
3, 182256, Note_on_c, 0, 62, 0
3, 182256, Note_on_c, 0, 65, 0
3, 182256, Note_on_c, 0, 64, 67
3, 182256, Note_on_c, 0, 66, 67
3, 182304, Note_on_c, 0, 66, 0
3, 182304, Note_on_c, 0, 64, 0
3, 182304, Note_on_c, 0, 58, 67
3, 182304, Note_on_c, 0, 62, 67
3, 182352, Note_on_c, 0, 62, 0
3, 182352, Note_on_c, 0, 58, 0
3, 182352, Note_on_c, 0, 59, 67
3, 182352, Note_on_c, 0, 61, 67
3, 182400, Note_on_c, 0, 61, 0
3, 182400, Note_on_c, 0, 59, 0
3, 182400, Note_on_c, 0, 58, 67
3, 182448, Note_on_c, 0, 58, 0
3, 182448, Note_on_c, 0, 59, 67
3, 182496, Note_on_c, 0, 59, 0
3, 182688, Note_on_c, 0, 75, 67
3, 182748, Note_on_c, 0, 75, 0
3, 182784, Note_on_c, 0, 83, 67
3, 183024, Note_on_c, 0, 83, 0
3, 183024, Note_on_c, 0, 82, 67
3, 183072, Note_on_c, 0, 82, 0
3, 183072, Note_on_c, 0, 80, 67
3, 183120, Note_on_c, 0, 80, 0
3, 183120, Note_on_c, 0, 82, 67
3, 183168, Note_on_c, 0, 82, 0
3, 183168, Note_on_c, 0, 80, 67
3, 183216, Note_on_c, 0, 80, 0
3, 183216, Note_on_c, 0, 78, 67
3, 183264, Note_on_c, 0, 78, 0
3, 183264, Note_on_c, 0, 77, 67
3, 183312, Note_on_c, 0, 77, 0
3, 183312, Note_on_c, 0, 75, 67
3, 183360, Note_on_c, 0, 75, 0
3, 183360, Note_on_c, 0, 74, 67
3, 183408, Note_on_c, 0, 74, 0
3, 183456, Note_on_c, 0, 77, 67
3, 183520, Note_on_c, 0, 77, 0
3, 183552, Note_on_c, 0, 71, 67
3, 183600, Note_on_c, 0, 71, 0
3, 183648, Note_on_c, 0, 75, 67
3, 183712, Note_on_c, 0, 75, 0
3, 183744, Note_on_c, 0, 68, 67
3, 183792, Note_on_c, 0, 68, 0
3, 183840, Note_on_c, 0, 71, 67
3, 183904, Note_on_c, 0, 71, 0
3, 183936, Note_on_c, 0, 65, 67
3, 183984, Note_on_c, 0, 65, 0
3, 184032, Note_on_c, 0, 68, 67
3, 184096, Note_on_c, 0, 68, 0
3, 184128, Note_on_c, 0, 58, 67
3, 184176, Note_on_c, 0, 58, 0
3, 184176, Note_on_c, 0, 58, 67
3, 184176, Note_on_c, 0, 70, 67
3, 184216, Note_on_c, 0, 70, 0
3, 184224, Note_on_c, 0, 58, 0
3, 184224, Note_on_c, 0, 60, 67
3, 184224, Note_on_c, 0, 72, 67
3, 184264, Note_on_c, 0, 72, 0
3, 184272, Note_on_c, 0, 60, 0
3, 184272, Note_on_c, 0, 74, 67
3, 184272, Note_on_c, 0, 62, 67
3, 184312, Note_on_c, 0, 74, 0
3, 184320, Note_on_c, 0, 62, 0
3, 184320, Note_on_c, 0, 75, 67
3, 184320, Note_on_c, 0, 63, 67
3, 184560, Note_on_c, 0, 63, 0
3, 184560, Note_on_c, 0, 75, 0
3, 184560, Note_on_c, 0, 62, 67
3, 184560, Note_on_c, 0, 74, 67
3, 184600, Note_on_c, 0, 74, 0
3, 184608, Note_on_c, 0, 62, 0
3, 184608, Note_on_c, 0, 63, 67
3, 184608, Note_on_c, 0, 75, 67
3, 184648, Note_on_c, 0, 75, 0
3, 184656, Note_on_c, 0, 63, 0
3, 184656, Note_on_c, 0, 77, 67
3, 184656, Note_on_c, 0, 65, 67
3, 184696, Note_on_c, 0, 77, 0
3, 184704, Note_on_c, 0, 65, 0
3, 184704, Note_on_c, 0, 80, 67
3, 184704, Note_on_c, 0, 68, 67
3, 184752, Note_on_c, 0, 68, 0
3, 184752, Note_on_c, 0, 80, 0
3, 184752, Note_on_c, 0, 66, 67
3, 184752, Note_on_c, 0, 78, 67
3, 184800, Note_on_c, 0, 78, 0
3, 184800, Note_on_c, 0, 66, 0
3, 184896, Note_on_c, 0, 70, 67
3, 184896, Note_on_c, 0, 67, 67
3, 184896, Note_on_c, 0, 75, 67
3, 184936, Note_on_c, 0, 75, 0
3, 184936, Note_on_c, 0, 67, 0
3, 184936, Note_on_c, 0, 70, 0
3, 184944, Note_on_c, 0, 63, 67
3, 184944, Note_on_c, 0, 75, 67
3, 184984, Note_on_c, 0, 75, 0
3, 184992, Note_on_c, 0, 63, 0
3, 184992, Note_on_c, 0, 77, 67
3, 184992, Note_on_c, 0, 65, 67
3, 185032, Note_on_c, 0, 77, 0
3, 185040, Note_on_c, 0, 65, 0
3, 185040, Note_on_c, 0, 79, 67
3, 185040, Note_on_c, 0, 67, 67
3, 185080, Note_on_c, 0, 79, 0
3, 185088, Note_on_c, 0, 67, 0
3, 185088, Note_on_c, 0, 68, 67
3, 185088, Note_on_c, 0, 80, 67
3, 185328, Note_on_c, 0, 80, 0
3, 185328, Note_on_c, 0, 68, 0
3, 185328, Note_on_c, 0, 67, 67
3, 185328, Note_on_c, 0, 79, 67
3, 185368, Note_on_c, 0, 79, 0
3, 185376, Note_on_c, 0, 67, 0
3, 185376, Note_on_c, 0, 80, 67
3, 185376, Note_on_c, 0, 68, 67
3, 185416, Note_on_c, 0, 80, 0
3, 185424, Note_on_c, 0, 68, 0
3, 185424, Note_on_c, 0, 82, 67
3, 185424, Note_on_c, 0, 70, 67
3, 185464, Note_on_c, 0, 82, 0
3, 185472, Note_on_c, 0, 70, 0
3, 185472, Note_on_c, 0, 73, 67
3, 185472, Note_on_c, 0, 85, 67
3, 185512, Note_on_c, 0, 85, 0
3, 185520, Note_on_c, 0, 73, 0
3, 185520, Note_on_c, 0, 83, 67
3, 185520, Note_on_c, 0, 71, 67
3, 185560, Note_on_c, 0, 83, 0
3, 185568, Note_on_c, 0, 71, 0
3, 185712, Note_on_c, 0, 82, 67
3, 185712, Note_on_c, 0, 70, 67
3, 185752, Note_on_c, 0, 82, 0
3, 185760, Note_on_c, 0, 70, 0
3, 185760, Note_on_c, 0, 71, 67
3, 185760, Note_on_c, 0, 83, 67
3, 185800, Note_on_c, 0, 83, 0
3, 185808, Note_on_c, 0, 71, 0
3, 185808, Note_on_c, 0, 74, 67
3, 185808, Note_on_c, 0, 86, 67
3, 185848, Note_on_c, 0, 86, 0
3, 185856, Note_on_c, 0, 74, 0
3, 185856, Note_on_c, 0, 89, 67
3, 185856, Note_on_c, 0, 77, 67
3, 185896, Note_on_c, 0, 77, 0
3, 185904, Note_on_c, 0, 89, 0
3, 185904, Note_on_c, 0, 87, 67
3, 185904, Note_on_c, 0, 75, 67
3, 185944, Note_on_c, 0, 75, 0
3, 185952, Note_on_c, 0, 87, 0
3, 186096, Note_on_c, 0, 74, 67
3, 186096, Note_on_c, 0, 86, 67
3, 186136, Note_on_c, 0, 74, 0
3, 186144, Note_on_c, 0, 86, 0
3, 186144, Note_on_c, 0, 87, 67
3, 186144, Note_on_c, 0, 75, 67
3, 186184, Note_on_c, 0, 75, 0
3, 186192, Note_on_c, 0, 87, 0
3, 186192, Note_on_c, 0, 89, 67
3, 186192, Note_on_c, 0, 77, 67
3, 186232, Note_on_c, 0, 77, 0
3, 186240, Note_on_c, 0, 89, 0
3, 186240, Note_on_c, 0, 92, 67
3, 186240, Note_on_c, 0, 80, 67
3, 186280, Note_on_c, 0, 80, 0
3, 186288, Note_on_c, 0, 92, 0
3, 186288, Note_on_c, 0, 78, 67
3, 186288, Note_on_c, 0, 90, 67
3, 186328, Note_on_c, 0, 78, 0
3, 186336, Note_on_c, 0, 90, 0
3, 186336, Note_on_c, 0, 90, 67
3, 186336, Note_on_c, 0, 78, 67
3, 186376, Note_on_c, 0, 78, 0
3, 186384, Note_on_c, 0, 90, 0
3, 186384, Note_on_c, 0, 90, 67
3, 186384, Note_on_c, 0, 78, 67
3, 186424, Note_on_c, 0, 78, 0
3, 186432, Note_on_c, 0, 90, 0
3, 186432, Note_on_c, 0, 78, 67
3, 186432, Note_on_c, 0, 90, 67
3, 186472, Note_on_c, 0, 78, 0
3, 186480, Note_on_c, 0, 90, 0
3, 186480, Note_on_c, 0, 78, 67
3, 186480, Note_on_c, 0, 90, 67
3, 186520, Note_on_c, 0, 78, 0
3, 186528, Note_on_c, 0, 90, 0
3, 186528, Note_on_c, 0, 90, 67
3, 186528, Note_on_c, 0, 78, 67
3, 186568, Note_on_c, 0, 78, 0
3, 186576, Note_on_c, 0, 90, 0
3, 186576, Note_on_c, 0, 90, 67
3, 186576, Note_on_c, 0, 78, 67
3, 186616, Note_on_c, 0, 78, 0
3, 186624, Note_on_c, 0, 90, 0
3, 198720, Note_on_c, 0, 75, 67
3, 198720, Note_on_c, 0, 63, 67
3, 198912, Note_on_c, 0, 63, 0
3, 198912, Note_on_c, 0, 75, 0
3, 198912, Note_on_c, 0, 82, 67
3, 198912, Note_on_c, 0, 70, 67
3, 199200, Note_on_c, 0, 70, 0
3, 199200, Note_on_c, 0, 82, 0
3, 199200, Note_on_c, 0, 82, 67
3, 199200, Note_on_c, 0, 70, 67
3, 199294, Note_on_c, 0, 70, 0
3, 199294, Note_on_c, 0, 82, 0
3, 199296, Note_on_c, 0, 70, 67
3, 199296, Note_on_c, 0, 82, 67
3, 199392, Note_on_c, 0, 82, 0
3, 199392, Note_on_c, 0, 70, 0
3, 199392, Note_on_c, 0, 68, 67
3, 199392, Note_on_c, 0, 80, 67
3, 199488, Note_on_c, 0, 80, 0
3, 199488, Note_on_c, 0, 68, 0
3, 199488, Note_on_c, 0, 79, 67
3, 199488, Note_on_c, 0, 67, 67
3, 199584, Note_on_c, 0, 67, 0
3, 199584, Note_on_c, 0, 79, 0
3, 199584, Note_on_c, 0, 77, 67
3, 199584, Note_on_c, 0, 65, 67
3, 199680, Note_on_c, 0, 65, 0
3, 199680, Note_on_c, 0, 77, 0
3, 199680, Note_on_c, 0, 70, 67
3, 199680, Note_on_c, 0, 82, 67
3, 199872, Note_on_c, 0, 82, 0
3, 199872, Note_on_c, 0, 70, 0
3, 199872, Note_on_c, 0, 82, 67
3, 199872, Note_on_c, 0, 70, 67
3, 200256, Note_on_c, 0, 70, 0
3, 200256, Note_on_c, 0, 82, 0
3, 200256, Note_on_c, 0, 77, 67
3, 200256, Note_on_c, 0, 65, 67
3, 200448, Note_on_c, 0, 65, 0
3, 200448, Note_on_c, 0, 77, 0
3, 200448, Note_on_c, 0, 82, 67
3, 200448, Note_on_c, 0, 70, 67
3, 200736, Note_on_c, 0, 70, 0
3, 200736, Note_on_c, 0, 82, 0
3, 200736, Note_on_c, 0, 70, 67
3, 200736, Note_on_c, 0, 82, 67
3, 200830, Note_on_c, 0, 82, 0
3, 200830, Note_on_c, 0, 70, 0
3, 200832, Note_on_c, 0, 70, 67
3, 200832, Note_on_c, 0, 82, 67
3, 200928, Note_on_c, 0, 82, 0
3, 200928, Note_on_c, 0, 70, 0
3, 200928, Note_on_c, 0, 80, 67
3, 200928, Note_on_c, 0, 68, 67
3, 201024, Note_on_c, 0, 68, 0
3, 201024, Note_on_c, 0, 80, 0
3, 201024, Note_on_c, 0, 79, 67
3, 201024, Note_on_c, 0, 67, 67
3, 201120, Note_on_c, 0, 67, 0
3, 201120, Note_on_c, 0, 79, 0
3, 201120, Note_on_c, 0, 65, 67
3, 201120, Note_on_c, 0, 77, 67
3, 201216, Note_on_c, 0, 77, 0
3, 201216, Note_on_c, 0, 65, 0
3, 201216, Note_on_c, 0, 82, 67
3, 201216, Note_on_c, 0, 70, 67
3, 201696, Note_on_c, 0, 70, 0
3, 201696, Note_on_c, 0, 82, 0
3, 201792, Note_on_c, 0, 58, 67
3, 201792, Note_on_c, 0, 70, 67
3, 201984, Note_on_c, 0, 70, 0
3, 201984, Note_on_c, 0, 58, 0
3, 201984, Note_on_c, 0, 60, 67
3, 201984, Note_on_c, 0, 72, 67
3, 202176, Note_on_c, 0, 72, 0
3, 202176, Note_on_c, 0, 60, 0
3, 202176, Note_on_c, 0, 75, 67
3, 202176, Note_on_c, 0, 63, 67
3, 202368, Note_on_c, 0, 63, 0
3, 202368, Note_on_c, 0, 75, 0
3, 202368, Note_on_c, 0, 77, 67
3, 202368, Note_on_c, 0, 65, 67
3, 202560, Note_on_c, 0, 65, 0
3, 202560, Note_on_c, 0, 77, 0
3, 202560, Note_on_c, 0, 79, 67
3, 202560, Note_on_c, 0, 67, 67
3, 202656, Note_on_c, 0, 67, 0
3, 202656, Note_on_c, 0, 79, 0
3, 202656, Note_on_c, 0, 68, 67
3, 202656, Note_on_c, 0, 80, 67
3, 202752, Note_on_c, 0, 80, 0
3, 202752, Note_on_c, 0, 68, 0
3, 202752, Note_on_c, 0, 82, 67
3, 202752, Note_on_c, 0, 70, 67
3, 203328, Note_on_c, 0, 70, 0
3, 203328, Note_on_c, 0, 82, 0
3, 203328, Note_on_c, 0, 82, 67
3, 203328, Note_on_c, 0, 70, 67
3, 203520, Note_on_c, 0, 70, 0
3, 203520, Note_on_c, 0, 82, 0
3, 203520, Note_on_c, 0, 84, 67
3, 203520, Note_on_c, 0, 72, 67
3, 203712, Note_on_c, 0, 72, 0
3, 203712, Note_on_c, 0, 84, 0
3, 203712, Note_on_c, 0, 75, 67
3, 203712, Note_on_c, 0, 87, 67
3, 203904, Note_on_c, 0, 87, 0
3, 203904, Note_on_c, 0, 75, 0
3, 203904, Note_on_c, 0, 74, 67
3, 203904, Note_on_c, 0, 86, 67
3, 204096, Note_on_c, 0, 86, 0
3, 204096, Note_on_c, 0, 74, 0
3, 204096, Note_on_c, 0, 84, 67
3, 204096, Note_on_c, 0, 72, 67
3, 204192, Note_on_c, 0, 72, 0
3, 204192, Note_on_c, 0, 84, 0
3, 204192, Note_on_c, 0, 70, 67
3, 204192, Note_on_c, 0, 82, 67
3, 204288, Note_on_c, 0, 82, 0
3, 204288, Note_on_c, 0, 70, 0
3, 204288, Note_on_c, 0, 87, 67
3, 204288, Note_on_c, 0, 75, 67
3, 204672, Note_on_c, 0, 75, 0
3, 204672, Note_on_c, 0, 87, 0
3, 204864, Note_on_c, 0, 70, 67
3, 205056, Note_on_c, 0, 70, 0
3, 205056, Note_on_c, 0, 60, 67
3, 205056, Note_on_c, 0, 72, 67
3, 205248, Note_on_c, 0, 72, 0
3, 205248, Note_on_c, 0, 60, 0
3, 205248, Note_on_c, 0, 63, 67
3, 205248, Note_on_c, 0, 75, 67
3, 205440, Note_on_c, 0, 75, 0
3, 205440, Note_on_c, 0, 63, 0
3, 205440, Note_on_c, 0, 77, 67
3, 205440, Note_on_c, 0, 65, 67
3, 205632, Note_on_c, 0, 65, 0
3, 205632, Note_on_c, 0, 77, 0
3, 205632, Note_on_c, 0, 67, 67
3, 205632, Note_on_c, 0, 79, 67
3, 205728, Note_on_c, 0, 79, 0
3, 205728, Note_on_c, 0, 67, 0
3, 205728, Note_on_c, 0, 80, 67
3, 205728, Note_on_c, 0, 68, 67
3, 205824, Note_on_c, 0, 68, 0
3, 205824, Note_on_c, 0, 80, 0
3, 205824, Note_on_c, 0, 82, 67
3, 205824, Note_on_c, 0, 70, 67
3, 206400, Note_on_c, 0, 70, 0
3, 206400, Note_on_c, 0, 82, 0
3, 206400, Note_on_c, 0, 82, 67
3, 206400, Note_on_c, 0, 70, 67
3, 206592, Note_on_c, 0, 70, 0
3, 206592, Note_on_c, 0, 82, 0
3, 206592, Note_on_c, 0, 72, 67
3, 206592, Note_on_c, 0, 84, 67
3, 206784, Note_on_c, 0, 84, 0
3, 206784, Note_on_c, 0, 72, 0
3, 206784, Note_on_c, 0, 87, 67
3, 206784, Note_on_c, 0, 75, 67
3, 206976, Note_on_c, 0, 75, 0
3, 206976, Note_on_c, 0, 87, 0
3, 206976, Note_on_c, 0, 74, 67
3, 206976, Note_on_c, 0, 86, 67
3, 207168, Note_on_c, 0, 86, 0
3, 207168, Note_on_c, 0, 74, 0
3, 207168, Note_on_c, 0, 72, 67
3, 207168, Note_on_c, 0, 84, 67
3, 207264, Note_on_c, 0, 84, 0
3, 207264, Note_on_c, 0, 72, 0
3, 207264, Note_on_c, 0, 82, 67
3, 207264, Note_on_c, 0, 70, 67
3, 207360, Note_on_c, 0, 70, 0
3, 207360, Note_on_c, 0, 82, 0
3, 207360, Note_on_c, 0, 87, 67
3, 207360, Note_on_c, 0, 75, 67
3, 207744, Note_on_c, 0, 75, 0
3, 207744, Note_on_c, 0, 87, 0
3, 207936, Note_on_c, 0, 70, 67
3, 207936, Note_on_c, 0, 58, 67
3, 208128, Note_on_c, 0, 58, 0
3, 208128, Note_on_c, 0, 70, 0
3, 208128, Note_on_c, 0, 72, 67
3, 208128, Note_on_c, 0, 60, 67
3, 208320, Note_on_c, 0, 60, 0
3, 208320, Note_on_c, 0, 72, 0
3, 208320, Note_on_c, 0, 75, 67
3, 208320, Note_on_c, 0, 63, 67
3, 208512, Note_on_c, 0, 63, 0
3, 208512, Note_on_c, 0, 75, 0
3, 208512, Note_on_c, 0, 65, 67
3, 208512, Note_on_c, 0, 77, 67
3, 208704, Note_on_c, 0, 77, 0
3, 208704, Note_on_c, 0, 65, 0
3, 208704, Note_on_c, 0, 66, 67
3, 208704, Note_on_c, 0, 78, 67
3, 208800, Note_on_c, 0, 78, 0
3, 208800, Note_on_c, 0, 66, 0
3, 208800, Note_on_c, 0, 80, 67
3, 208800, Note_on_c, 0, 68, 67
3, 208896, Note_on_c, 0, 68, 0
3, 208896, Note_on_c, 0, 80, 0
3, 208896, Note_on_c, 0, 70, 67
3, 208896, Note_on_c, 0, 82, 67
3, 209280, Note_on_c, 0, 82, 0
3, 209472, Note_on_c, 0, 70, 0
3, 209472, Note_on_c, 0, 70, 67
3, 209472, Note_on_c, 0, 58, 67
3, 209664, Note_on_c, 0, 58, 0
3, 209664, Note_on_c, 0, 70, 0
3, 209664, Note_on_c, 0, 72, 67
3, 209664, Note_on_c, 0, 60, 67
3, 209856, Note_on_c, 0, 60, 0
3, 209856, Note_on_c, 0, 72, 0
3, 209856, Note_on_c, 0, 75, 67
3, 209856, Note_on_c, 0, 63, 67
3, 210048, Note_on_c, 0, 63, 0
3, 210048, Note_on_c, 0, 75, 0
3, 210048, Note_on_c, 0, 77, 67
3, 210048, Note_on_c, 0, 65, 67
3, 210240, Note_on_c, 0, 65, 0
3, 210240, Note_on_c, 0, 77, 0
3, 210240, Note_on_c, 0, 66, 67
3, 210240, Note_on_c, 0, 78, 67
3, 210336, Note_on_c, 0, 78, 0
3, 210336, Note_on_c, 0, 66, 0
3, 210336, Note_on_c, 0, 68, 67
3, 210336, Note_on_c, 0, 80, 67
3, 210432, Note_on_c, 0, 80, 0
3, 210432, Note_on_c, 0, 68, 0
3, 210432, Note_on_c, 0, 82, 67
3, 210432, Note_on_c, 0, 70, 67
3, 211008, Note_on_c, 0, 70, 0
3, 211008, Note_on_c, 0, 82, 0
3, 211008, Note_on_c, 0, 58, 67
3, 211008, Note_on_c, 0, 70, 67
3, 211200, Note_on_c, 0, 70, 0
3, 211200, Note_on_c, 0, 58, 0
3, 211200, Note_on_c, 0, 60, 67
3, 211200, Note_on_c, 0, 72, 67
3, 211392, Note_on_c, 0, 72, 0
3, 211392, Note_on_c, 0, 60, 0
3, 211392, Note_on_c, 0, 75, 67
3, 211392, Note_on_c, 0, 63, 67
3, 211584, Note_on_c, 0, 63, 0
3, 211584, Note_on_c, 0, 75, 0
3, 211584, Note_on_c, 0, 65, 67
3, 211584, Note_on_c, 0, 77, 67
3, 211776, Note_on_c, 0, 77, 0
3, 211776, Note_on_c, 0, 65, 0
3, 211776, Note_on_c, 0, 66, 67
3, 211776, Note_on_c, 0, 78, 67
3, 211872, Note_on_c, 0, 78, 0
3, 211872, Note_on_c, 0, 66, 0
3, 211872, Note_on_c, 0, 68, 67
3, 211872, Note_on_c, 0, 80, 67
3, 211968, Note_on_c, 0, 80, 0
3, 211968, Note_on_c, 0, 68, 0
3, 211968, Note_on_c, 0, 82, 67
3, 211968, Note_on_c, 0, 70, 67
3, 212160, Note_on_c, 0, 70, 0
3, 212160, Note_on_c, 0, 82, 0
3, 212160, Note_on_c, 0, 70, 67
3, 212160, Note_on_c, 0, 82, 67
3, 212256, Note_on_c, 0, 82, 0
3, 212256, Note_on_c, 0, 70, 0
3, 212256, Note_on_c, 0, 71, 67
3, 212256, Note_on_c, 0, 83, 67
3, 212352, Note_on_c, 0, 83, 0
3, 212352, Note_on_c, 0, 71, 0
3, 212352, Note_on_c, 0, 82, 67
3, 212352, Note_on_c, 0, 70, 67
3, 212736, Note_on_c, 0, 82, 67
3, 212928, Note_on_c, 0, 82, 0
3, 212928, Note_on_c, 0, 70, 0
3, 212928, Note_on_c, 0, 82, 0
3, 212928, Note_on_c, 0, 70, 67
3, 212928, Note_on_c, 0, 82, 67
3, 213024, Note_on_c, 0, 82, 0
3, 213024, Note_on_c, 0, 70, 0
3, 213024, Note_on_c, 0, 83, 67
3, 213024, Note_on_c, 0, 71, 67
3, 213120, Note_on_c, 0, 71, 0
3, 213120, Note_on_c, 0, 83, 0
3, 213120, Note_on_c, 0, 70, 67
3, 213120, Note_on_c, 0, 82, 67
3, 213696, Note_on_c, 0, 82, 0
3, 213696, Note_on_c, 0, 70, 0
3, 213696, Note_on_c, 0, 70, 67
3, 213696, Note_on_c, 0, 82, 67
3, 213792, Note_on_c, 0, 82, 0
3, 213792, Note_on_c, 0, 70, 0
3, 213792, Note_on_c, 0, 71, 67
3, 213792, Note_on_c, 0, 83, 67
3, 213888, Note_on_c, 0, 83, 0
3, 213888, Note_on_c, 0, 71, 0
3, 213888, Note_on_c, 0, 82, 67
3, 213888, Note_on_c, 0, 70, 67
3, 214320, Note_on_c, 0, 70, 0
3, 214320, Note_on_c, 0, 82, 0
3, 214368, Note_on_c, 0, 82, 67
3, 214368, Note_on_c, 0, 70, 67
3, 214408, Note_on_c, 0, 82, 0
3, 214416, Note_on_c, 0, 70, 0
3, 214416, Note_on_c, 0, 71, 67
3, 214416, Note_on_c, 0, 83, 67
3, 214456, Note_on_c, 0, 83, 0
3, 214464, Note_on_c, 0, 71, 0
3, 214464, Note_on_c, 0, 82, 67
3, 214464, Note_on_c, 0, 70, 67
3, 214488, Note_on_c, 0, 70, 0
3, 214488, Note_on_c, 0, 82, 0
3, 214560, Note_on_c, 0, 80, 67
3, 214560, Note_on_c, 0, 68, 67
3, 214584, Note_on_c, 0, 68, 0
3, 214584, Note_on_c, 0, 80, 0
3, 214656, Note_on_c, 0, 78, 67
3, 214656, Note_on_c, 0, 66, 67
3, 214752, Note_on_c, 0, 66, 0
3, 214752, Note_on_c, 0, 78, 0
3, 214752, Note_on_c, 0, 66, 67
3, 214752, Note_on_c, 0, 78, 67
3, 214776, Note_on_c, 0, 78, 0
3, 214776, Note_on_c, 0, 66, 0
3, 214848, Note_on_c, 0, 80, 67
3, 214848, Note_on_c, 0, 68, 67
3, 214944, Note_on_c, 0, 68, 0
3, 214944, Note_on_c, 0, 80, 0
3, 214944, Note_on_c, 0, 63, 67
3, 214944, Note_on_c, 0, 75, 67
3, 215040, Note_on_c, 0, 75, 0
3, 215040, Note_on_c, 0, 63, 0
3, 215040, Note_on_c, 0, 78, 67
3, 215040, Note_on_c, 0, 66, 67
3, 215064, Note_on_c, 0, 66, 0
3, 215064, Note_on_c, 0, 78, 0
3, 215136, Note_on_c, 0, 78, 67
3, 215136, Note_on_c, 0, 63, 67
3, 215160, Note_on_c, 0, 63, 0
3, 215160, Note_on_c, 0, 78, 0
3, 215232, Note_on_c, 0, 75, 67
3, 215232, Note_on_c, 0, 68, 67
3, 215328, Note_on_c, 0, 68, 0
3, 215328, Note_on_c, 0, 65, 67
3, 215424, Note_on_c, 0, 65, 0
3, 215424, Note_on_c, 0, 75, 0
3, 215424, Note_on_c, 0, 78, 67
3, 215424, Note_on_c, 0, 70, 67
3, 215520, Note_on_c, 0, 78, 0
3, 215520, Note_on_c, 0, 77, 67
3, 215560, Note_on_c, 0, 77, 0
3, 215568, Note_on_c, 0, 78, 67
3, 215608, Note_on_c, 0, 78, 0
3, 215616, Note_on_c, 0, 70, 0
3, 215616, Note_on_c, 0, 68, 67
3, 215616, Note_on_c, 0, 80, 67
3, 215640, Note_on_c, 0, 80, 0
3, 215712, Note_on_c, 0, 75, 67
3, 215736, Note_on_c, 0, 75, 0
3, 215808, Note_on_c, 0, 68, 0
3, 215808, Note_on_c, 0, 70, 67
3, 215808, Note_on_c, 0, 82, 67
3, 216000, Note_on_c, 0, 82, 0
3, 216000, Note_on_c, 0, 75, 67
3, 216024, Note_on_c, 0, 75, 0
3, 216096, Note_on_c, 0, 75, 67
3, 216120, Note_on_c, 0, 75, 0
3, 216192, Note_on_c, 0, 70, 0
3, 216192, Note_on_c, 0, 75, 67
3, 216192, Note_on_c, 0, 68, 67
3, 216288, Note_on_c, 0, 75, 0
3, 216288, Note_on_c, 0, 78, 67
3, 216384, Note_on_c, 0, 78, 0
3, 216384, Note_on_c, 0, 77, 67
3, 216408, Note_on_c, 0, 77, 0
3, 216480, Note_on_c, 0, 75, 67
3, 216504, Note_on_c, 0, 75, 0
3, 216576, Note_on_c, 0, 68, 0
3, 216576, Note_on_c, 0, 82, 67
3, 216576, Note_on_c, 0, 70, 67
3, 216768, Note_on_c, 0, 82, 0
3, 216768, Note_on_c, 0, 75, 67
3, 216792, Note_on_c, 0, 75, 0
3, 216864, Note_on_c, 0, 75, 67
3, 216888, Note_on_c, 0, 75, 0
3, 216960, Note_on_c, 0, 70, 0
3, 216960, Note_on_c, 0, 68, 67
3, 216960, Note_on_c, 0, 75, 67
3, 217056, Note_on_c, 0, 75, 0
3, 217056, Note_on_c, 0, 78, 67
3, 217152, Note_on_c, 0, 78, 0
3, 217152, Note_on_c, 0, 77, 67
3, 217176, Note_on_c, 0, 77, 0
3, 217248, Note_on_c, 0, 75, 67
3, 217344, Note_on_c, 0, 75, 0
3, 217344, Note_on_c, 0, 68, 0
3, 217344, Note_on_c, 0, 82, 67
3, 217344, Note_on_c, 0, 70, 67
3, 217368, Note_on_c, 0, 70, 0
3, 217368, Note_on_c, 0, 82, 0
3, 217440, Note_on_c, 0, 70, 67
3, 217480, Note_on_c, 0, 70, 0
3, 217488, Note_on_c, 0, 71, 67
3, 217528, Note_on_c, 0, 71, 0
3, 217536, Note_on_c, 0, 70, 67
3, 217560, Note_on_c, 0, 70, 0
3, 217632, Note_on_c, 0, 68, 67
3, 217656, Note_on_c, 0, 68, 0
3, 217728, Note_on_c, 0, 66, 67
3, 217824, Note_on_c, 0, 66, 0
3, 217824, Note_on_c, 0, 66, 67
3, 217848, Note_on_c, 0, 66, 0
3, 217920, Note_on_c, 0, 68, 67
3, 218016, Note_on_c, 0, 68, 0
3, 218016, Note_on_c, 0, 63, 67
3, 218112, Note_on_c, 0, 63, 0
3, 218112, Note_on_c, 0, 66, 67
3, 218208, Note_on_c, 0, 66, 0
3, 284160, Note_on_c, 0, 73, 67
3, 284160, Note_on_c, 0, 76, 67
3, 284224, Note_on_c, 0, 76, 0
3, 284224, Note_on_c, 0, 73, 0
3, 284224, Note_on_c, 0, 73, 67
3, 284224, Note_on_c, 0, 76, 67
3, 284288, Note_on_c, 0, 76, 0
3, 284288, Note_on_c, 0, 73, 0
3, 284288, Note_on_c, 0, 76, 67
3, 284288, Note_on_c, 0, 73, 67
3, 284352, Note_on_c, 0, 73, 0
3, 284352, Note_on_c, 0, 76, 0
3, 284352, Note_on_c, 0, 82, 67
3, 284352, Note_on_c, 0, 85, 67
3, 284544, Note_on_c, 0, 85, 0
3, 284544, Note_on_c, 0, 82, 0
3, 284544, Note_on_c, 0, 77, 67
3, 284544, Note_on_c, 0, 84, 67
3, 284736, Note_on_c, 0, 84, 0
3, 284736, Note_on_c, 0, 77, 0
3, 284736, Note_on_c, 0, 87, 67
3, 284736, Note_on_c, 0, 84, 67
3, 284928, Note_on_c, 0, 84, 0
3, 284928, Note_on_c, 0, 87, 0
3, 284928, Note_on_c, 0, 86, 67
3, 284928, Note_on_c, 0, 74, 67
3, 285120, Note_on_c, 0, 74, 0
3, 285120, Note_on_c, 0, 86, 0
3, 285120, Note_on_c, 0, 89, 67
3, 285120, Note_on_c, 0, 86, 67
3, 285312, Note_on_c, 0, 86, 0
3, 285312, Note_on_c, 0, 89, 0
3, 285312, Note_on_c, 0, 75, 67
3, 285312, Note_on_c, 0, 87, 67
3, 285504, Note_on_c, 0, 87, 0
3, 285504, Note_on_c, 0, 75, 0
3, 285504, Note_on_c, 0, 94, 67
3, 285504, Note_on_c, 0, 82, 67
3, 285614, Note_on_c, 0, 82, 0
3, 285615, Note_on_c, 0, 94, 0
3, 285632, Note_on_c, 0, 81, 67
3, 285632, Note_on_c, 0, 93, 67
3, 285742, Note_on_c, 0, 81, 0
3, 285743, Note_on_c, 0, 93, 0
3, 285760, Note_on_c, 0, 92, 67
3, 285760, Note_on_c, 0, 80, 67
3, 285870, Note_on_c, 0, 80, 0
3, 285871, Note_on_c, 0, 92, 0
3, 285888, Note_on_c, 0, 79, 67
3, 285888, Note_on_c, 0, 91, 67
3, 285998, Note_on_c, 0, 79, 0
3, 285999, Note_on_c, 0, 91, 0
3, 286016, Note_on_c, 0, 90, 67
3, 286016, Note_on_c, 0, 78, 67
3, 286126, Note_on_c, 0, 78, 0
3, 286127, Note_on_c, 0, 90, 0
3, 286144, Note_on_c, 0, 77, 67
3, 286144, Note_on_c, 0, 89, 67
3, 286254, Note_on_c, 0, 77, 0
3, 286255, Note_on_c, 0, 89, 0
3, 286272, Note_on_c, 0, 88, 67
3, 286272, Note_on_c, 0, 76, 67
3, 286382, Note_on_c, 0, 76, 0
3, 286383, Note_on_c, 0, 88, 0
3, 286400, Note_on_c, 0, 75, 67
3, 286400, Note_on_c, 0, 87, 67
3, 286510, Note_on_c, 0, 75, 0
3, 286511, Note_on_c, 0, 87, 0
3, 286528, Note_on_c, 0, 86, 67
3, 286528, Note_on_c, 0, 74, 67
3, 286638, Note_on_c, 0, 74, 0
3, 286639, Note_on_c, 0, 86, 0
3, 286656, Note_on_c, 0, 85, 67
3, 286656, Note_on_c, 0, 73, 67
3, 286766, Note_on_c, 0, 73, 0
3, 286767, Note_on_c, 0, 85, 0
3, 286784, Note_on_c, 0, 84, 67
3, 286784, Note_on_c, 0, 72, 67
3, 286894, Note_on_c, 0, 72, 0
3, 286895, Note_on_c, 0, 84, 0
3, 286912, Note_on_c, 0, 71, 67
3, 286912, Note_on_c, 0, 83, 67
3, 287022, Note_on_c, 0, 71, 0
3, 287023, Note_on_c, 0, 83, 0
3, 287040, Note_on_c, 0, 70, 67
3, 287040, Note_on_c, 0, 62, 67
3, 287040, Note_on_c, 0, 82, 67
3, 287168, Note_on_c, 0, 82, 0
3, 287206, Note_on_c, 0, 62, 0
3, 287206, Note_on_c, 0, 70, 0
3, 287424, Note_on_c, 0, 83, 67
3, 287424, Note_on_c, 0, 71, 67
3, 287424, Note_on_c, 0, 79, 67
3, 287552, Note_on_c, 0, 83, 0
3, 287590, Note_on_c, 0, 79, 0
3, 287590, Note_on_c, 0, 71, 0
3, 287808, Note_on_c, 0, 84, 67
3, 287808, Note_on_c, 0, 79, 67
3, 287808, Note_on_c, 0, 72, 67
3, 287936, Note_on_c, 0, 84, 0
3, 287974, Note_on_c, 0, 72, 0
3, 287974, Note_on_c, 0, 79, 0
3, 288192, Note_on_c, 0, 86, 67
3, 288192, Note_on_c, 0, 80, 67
3, 288192, Note_on_c, 0, 74, 67
3, 288192, Note_on_c, 0, 62, 67
3, 288192, Note_on_c, 0, 68, 67
3, 288320, Note_on_c, 0, 62, 0
3, 288320, Note_on_c, 0, 80, 0
3, 288320, Note_on_c, 0, 86, 0
3, 288358, Note_on_c, 0, 74, 0
3, 288358, Note_on_c, 0, 68, 0
3, 288358, End_track
4, 0, Start_track
4, 0, MIDI_port, 0
4, 0, Title_t, "Tremolo Strings"
4, 0, Program_c, 0, 48
4, 0, Control_c, 0, 7, 100
4, 0, Control_c, 0, 10, 100
4, 19584, Note_on_c, 0, 47, 89
4, 19584, Note_on_c, 0, 59, 86
4, 19632, Note_on_c, 0, 59, 0
4, 19632, Note_on_c, 0, 47, 0
4, 19632, Note_on_c, 0, 50, 89
4, 19632, Note_on_c, 0, 62, 80
4, 19680, Note_on_c, 0, 62, 0
4, 19680, Note_on_c, 0, 50, 0
4, 19680, Note_on_c, 0, 67, 72
4, 19680, Note_on_c, 0, 55, 89
4, 19728, Note_on_c, 0, 55, 0
4, 19728, Note_on_c, 0, 67, 0
4, 19728, Note_on_c, 0, 71, 81
4, 19728, Note_on_c, 0, 59, 89
4, 19776, Note_on_c, 0, 59, 0
4, 19776, Note_on_c, 0, 71, 0
4, 19776, Note_on_c, 0, 62, 89
4, 19776, Note_on_c, 0, 74, 82
4, 19824, Note_on_c, 0, 74, 0
4, 19824, Note_on_c, 0, 62, 0
4, 19824, Note_on_c, 0, 67, 77
4, 19824, Note_on_c, 0, 55, 89
4, 19872, Note_on_c, 0, 55, 0
4, 19872, Note_on_c, 0, 67, 0
4, 19872, Note_on_c, 0, 71, 77
4, 19872, Note_on_c, 0, 59, 86
4, 19920, Note_on_c, 0, 59, 0
4, 19920, Note_on_c, 0, 71, 0
4, 19920, Note_on_c, 0, 74, 89
4, 19920, Note_on_c, 0, 62, 89
4, 19968, Note_on_c, 0, 62, 0
4, 19968, Note_on_c, 0, 74, 0
4, 19968, Note_on_c, 0, 55, 86
4, 19968, Note_on_c, 0, 79, 89
4, 19968, Note_on_c, 0, 67, 89
4, 20016, Note_on_c, 0, 67, 0
4, 20016, Note_on_c, 0, 79, 0
4, 20016, Note_on_c, 0, 55, 0
4, 20016, Note_on_c, 0, 59, 86
4, 20016, Note_on_c, 0, 83, 89
4, 20016, Note_on_c, 0, 71, 89
4, 20064, Note_on_c, 0, 71, 0
4, 20064, Note_on_c, 0, 83, 0
4, 20064, Note_on_c, 0, 59, 0
4, 20064, Note_on_c, 0, 62, 89
4, 20064, Note_on_c, 0, 74, 89
4, 20064, Note_on_c, 0, 86, 89
4, 20112, Note_on_c, 0, 86, 0
4, 20112, Note_on_c, 0, 74, 0
4, 20112, Note_on_c, 0, 62, 0
4, 20112, Note_on_c, 0, 79, 43
4, 20112, Note_on_c, 0, 67, 89
4, 20112, Note_on_c, 0, 91, 89
4, 20112, Note_on_c, 0, 67, 86
4, 20160, Note_on_c, 0, 67, 0
4, 20160, Note_on_c, 0, 79, 0
4, 20160, Note_on_c, 0, 67, 0
4, 20160, Note_on_c, 0, 91, 0
4, 20736, Note_on_c, 0, 63, 5
4, 20736, Note_on_c, 0, 60, 70
4, 21312, Note_on_c, 0, 60, 0
4, 21312, Note_on_c, 0, 63, 0
4, 21312, Note_on_c, 0, 63, 48
4, 21312, Note_on_c, 0, 60, 70
4, 21888, Note_on_c, 0, 60, 0
4, 21888, Note_on_c, 0, 63, 0
4, 21888, Note_on_c, 0, 63, 58
4, 21888, Note_on_c, 0, 60, 70
4, 22464, Note_on_c, 0, 60, 0
4, 22464, Note_on_c, 0, 63, 0
4, 22464, Note_on_c, 0, 60, 45
4, 22464, Note_on_c, 0, 61, 86
4, 22464, Note_on_c, 0, 65, 46
4, 23040, Note_on_c, 0, 65, 0
4, 23040, Note_on_c, 0, 61, 0
4, 23040, Note_on_c, 0, 60, 0
4, 23040, Note_on_c, 0, 65, 46
4, 23040, Note_on_c, 0, 60, 70
4, 23040, Note_on_c, 0, 61, 49
4, 23616, Note_on_c, 0, 61, 0
4, 23616, Note_on_c, 0, 60, 0
4, 23616, Note_on_c, 0, 65, 0
4, 23616, Note_on_c, 0, 65, 52
4, 23616, Note_on_c, 0, 59, 70
4, 23616, Note_on_c, 0, 61, 51
4, 23616, Note_on_c, 0, 65, 49
4, 24192, Note_on_c, 0, 65, 0
4, 24192, Note_on_c, 0, 65, 0
4, 24192, Note_on_c, 0, 59, 0
4, 24192, Note_on_c, 0, 61, 0
4, 24192, Note_on_c, 0, 59, 70
4, 24192, Note_on_c, 0, 61, 49
4, 24192, Note_on_c, 0, 65, 56
4, 24768, Note_on_c, 0, 65, 0
4, 24768, Note_on_c, 0, 61, 0
4, 24768, Note_on_c, 0, 59, 0
4, 24768, Note_on_c, 0, 65, 66
4, 24768, Note_on_c, 0, 58, 86
4, 24768, Note_on_c, 0, 62, 66
4, 24960, Note_on_c, 0, 62, 0
4, 24960, Note_on_c, 0, 58, 0
4, 24960, Note_on_c, 0, 65, 0
4, 24960, Note_on_c, 0, 65, 46
4, 24960, Note_on_c, 0, 62, 86
4, 24960, Note_on_c, 0, 58, 52
4, 25344, Note_on_c, 0, 58, 0
4, 25344, Note_on_c, 0, 62, 0
4, 25344, Note_on_c, 0, 65, 0
4, 25344, Note_on_c, 0, 63, 49
4, 25344, Note_on_c, 0, 58, 86
4, 25344, Note_on_c, 0, 66, 49
4, 25728, Note_on_c, 0, 66, 0
4, 25728, Note_on_c, 0, 58, 0
4, 25728, Note_on_c, 0, 63, 0
4, 25728, Note_on_c, 0, 68, 55
4, 25728, Note_on_c, 0, 58, 86
4, 25728, Note_on_c, 0, 65, 49
4, 25728, Note_on_c, 0, 56, 39
4, 25920, Note_on_c, 0, 56, 0
4, 25920, Note_on_c, 0, 68, 0
4, 25920, Note_on_c, 0, 58, 0
4, 25920, Note_on_c, 0, 65, 0
4, 26496, Note_on_c, 0, 66, 86
4, 27072, Note_on_c, 0, 66, 0
4, 27072, Note_on_c, 0, 66, 86
4, 27072, Note_on_c, 0, 63, 46
4, 27648, Note_on_c, 0, 63, 0
4, 27648, Note_on_c, 0, 66, 0
4, 27648, Note_on_c, 0, 63, 46
4, 27648, Note_on_c, 0, 67, 86
4, 28224, Note_on_c, 0, 67, 0
4, 28224, Note_on_c, 0, 63, 0
4, 28224, Note_on_c, 0, 64, 66
4, 28224, Note_on_c, 0, 68, 86
4, 28800, Note_on_c, 0, 68, 0
4, 28800, Note_on_c, 0, 64, 0
4, 28800, Note_on_c, 0, 64, 46
4, 28800, Note_on_c, 0, 68, 86
4, 29376, Note_on_c, 0, 68, 0
4, 29376, Note_on_c, 0, 64, 0
4, 29376, Note_on_c, 0, 64, 56
4, 29376, Note_on_c, 0, 68, 86
4, 29952, Note_on_c, 0, 68, 0
4, 29952, Note_on_c, 0, 64, 0
4, 29952, Note_on_c, 0, 68, 86
4, 29952, Note_on_c, 0, 64, 56
4, 30528, Note_on_c, 0, 64, 0
4, 30528, Note_on_c, 0, 68, 0
4, 32832, Note_on_c, 0, 81, 47
4, 32832, Note_on_c, 0, 93, 54
4, 32832, Note_on_c, 0, 69, 49
4, 32880, Note_on_c, 0, 69, 0
4, 32880, Note_on_c, 0, 93, 0
4, 32880, Note_on_c, 0, 81, 0
4, 32880, Note_on_c, 0, 68, 45
4, 32880, Note_on_c, 0, 80, 42
4, 32880, Note_on_c, 0, 92, 51
4, 32928, Note_on_c, 0, 92, 0
4, 32928, Note_on_c, 0, 80, 0
4, 32928, Note_on_c, 0, 68, 0
4, 32928, Note_on_c, 0, 64, 48
4, 32928, Note_on_c, 0, 88, 53
4, 32928, Note_on_c, 0, 76, 43
4, 32976, Note_on_c, 0, 76, 0
4, 32976, Note_on_c, 0, 88, 0
4, 32976, Note_on_c, 0, 64, 0
4, 32976, Note_on_c, 0, 61, 46
4, 32976, Note_on_c, 0, 85, 46
4, 32976, Note_on_c, 0, 73, 46
4, 33024, Note_on_c, 0, 73, 0
4, 33024, Note_on_c, 0, 85, 0
4, 33024, Note_on_c, 0, 61, 0
4, 33024, Note_on_c, 0, 81, 53
4, 33024, Note_on_c, 0, 69, 45
4, 33024, Note_on_c, 0, 69, 44
4, 33072, Note_on_c, 0, 69, 0
4, 33072, Note_on_c, 0, 69, 0
4, 33072, Note_on_c, 0, 81, 0
4, 33072, Note_on_c, 0, 80, 49
4, 33072, Note_on_c, 0, 68, 48
4, 33072, Note_on_c, 0, 68, 47
4, 33120, Note_on_c, 0, 68, 0
4, 33120, Note_on_c, 0, 68, 0
4, 33120, Note_on_c, 0, 80, 0
4, 33120, Note_on_c, 0, 64, 48
4, 33120, Note_on_c, 0, 76, 48
4, 33120, Note_on_c, 0, 64, 45
4, 33168, Note_on_c, 0, 64, 0
4, 33168, Note_on_c, 0, 76, 0
4, 33168, Note_on_c, 0, 64, 0
4, 33168, Note_on_c, 0, 61, 42
4, 33168, Note_on_c, 0, 73, 32
4, 33168, Note_on_c, 0, 61, 40
4, 33216, Note_on_c, 0, 61, 0
4, 33216, Note_on_c, 0, 73, 0
4, 33216, Note_on_c, 0, 61, 0
4, 33216, Note_on_c, 0, 69, 56
4, 33216, Note_on_c, 0, 57, 49
4, 33264, Note_on_c, 0, 57, 0
4, 33264, Note_on_c, 0, 69, 0
4, 33264, Note_on_c, 0, 56, 46
4, 33264, Note_on_c, 0, 68, 58
4, 33312, Note_on_c, 0, 68, 0
4, 33312, Note_on_c, 0, 56, 0
4, 33312, Note_on_c, 0, 52, 53
4, 33312, Note_on_c, 0, 64, 60
4, 33360, Note_on_c, 0, 64, 0
4, 33360, Note_on_c, 0, 52, 0
4, 33360, Note_on_c, 0, 49, 46
4, 33360, Note_on_c, 0, 61, 53
4, 33408, Note_on_c, 0, 61, 0
4, 33408, Note_on_c, 0, 49, 0
4, 33408, Note_on_c, 0, 57, 86
4, 33456, Note_on_c, 0, 57, 0
4, 33456, Note_on_c, 0, 56, 86
4, 33504, Note_on_c, 0, 56, 0
4, 33504, Note_on_c, 0, 52, 86
4, 33552, Note_on_c, 0, 52, 0
4, 33552, Note_on_c, 0, 49, 86
4, 33600, Note_on_c, 0, 49, 0
4, 91584, Note_on_c, 0, 96, 46
4, 91584, Note_on_c, 0, 84, 42
4, 91584, Note_on_c, 0, 72, 86
4, 91680, Note_on_c, 0, 72, 0
4, 91680, Note_on_c, 0, 84, 0
4, 91680, Note_on_c, 0, 96, 0
4, 91680, Note_on_c, 0, 93, 49
4, 91680, Note_on_c, 0, 81, 43
4, 91680, Note_on_c, 0, 81, 39
4, 91680, Note_on_c, 0, 69, 86
4, 91776, Note_on_c, 0, 69, 0
4, 91776, Note_on_c, 0, 93, 0
4, 91776, Note_on_c, 0, 81, 0
4, 91776, Note_on_c, 0, 81, 0
4, 91776, Note_on_c, 0, 78, 46
4, 91776, Note_on_c, 0, 90, 53
4, 91776, Note_on_c, 0, 66, 86
4, 91872, Note_on_c, 0, 66, 0
4, 91872, Note_on_c, 0, 90, 0
4, 91872, Note_on_c, 0, 78, 0
4, 91872, Note_on_c, 0, 63, 86
4, 91872, Note_on_c, 0, 75, 40
4, 91872, Note_on_c, 0, 87, 46
4, 91968, Note_on_c, 0, 87, 0
4, 91968, Note_on_c, 0, 75, 0
4, 91968, Note_on_c, 0, 63, 0
4, 91968, Note_on_c, 0, 60, 86
4, 91968, Note_on_c, 0, 84, 48
4, 91968, Note_on_c, 0, 72, 38
4, 92064, Note_on_c, 0, 72, 0
4, 92064, Note_on_c, 0, 84, 0
4, 92064, Note_on_c, 0, 60, 0
4, 92064, Note_on_c, 0, 57, 86
4, 92064, Note_on_c, 0, 69, 37
4, 92064, Note_on_c, 0, 81, 49
4, 92160, Note_on_c, 0, 81, 0
4, 92160, Note_on_c, 0, 69, 0
4, 92160, Note_on_c, 0, 57, 0
4, 92160, Note_on_c, 0, 66, 46
4, 92160, Note_on_c, 0, 78, 51
4, 92256, Note_on_c, 0, 78, 0
4, 92256, Note_on_c, 0, 66, 0
4, 92256, Note_on_c, 0, 63, 39
4, 92256, Note_on_c, 0, 75, 46
4, 92352, Note_on_c, 0, 75, 0
4, 92352, Note_on_c, 0, 63, 0
4, 92352, Note_on_c, 0, 78, 53
4, 92352, Note_on_c, 0, 75, 86
4, 92352, Note_on_c, 0, 69, 86
4, 92448, Note_on_c, 0, 69, 0
4, 92448, Note_on_c, 0, 75, 0
4, 92448, Note_on_c, 0, 78, 0
4, 92448, Note_on_c, 0, 75, 45
4, 92448, Note_on_c, 0, 69, 45
4, 92448, Note_on_c, 0, 66, 86
4, 92544, Note_on_c, 0, 66, 0
4, 92544, Note_on_c, 0, 69, 0
4, 92544, Note_on_c, 0, 75, 0
4, 92544, Note_on_c, 0, 66, 42
4, 92544, Note_on_c, 0, 69, 46
4, 92544, Note_on_c, 0, 63, 86
4, 92640, Note_on_c, 0, 63, 0
4, 92640, Note_on_c, 0, 69, 0
4, 92640, Note_on_c, 0, 66, 0
4, 92640, Note_on_c, 0, 66, 42
4, 92640, Note_on_c, 0, 63, 42
4, 92640, Note_on_c, 0, 57, 86
4, 92736, Note_on_c, 0, 57, 0
4, 92736, Note_on_c, 0, 63, 0
4, 92736, Note_on_c, 0, 66, 0
4, 92736, Note_on_c, 0, 68, 86
4, 92736, Note_on_c, 0, 63, 86
4, 92736, Note_on_c, 0, 66, 86
4, 92832, Note_on_c, 0, 66, 0
4, 92832, Note_on_c, 0, 63, 0
4, 92832, Note_on_c, 0, 68, 0
4, 92832, Note_on_c, 0, 66, 46
4, 92832, Note_on_c, 0, 63, 47
4, 92832, Note_on_c, 0, 57, 86
4, 92928, Note_on_c, 0, 57, 0
4, 92928, Note_on_c, 0, 63, 0
4, 92928, Note_on_c, 0, 66, 0
4, 98304, Note_on_c, 0, 93, 86
4, 98304, Note_on_c, 0, 69, 86
4, 98304, Note_on_c, 0, 81, 86
4, 99072, Note_on_c, 0, 81, 0
4, 99072, Note_on_c, 0, 69, 0
4, 99072, Note_on_c, 0, 93, 0
4, 99072, Note_on_c, 0, 81, 43
4, 99072, Note_on_c, 0, 93, 48
4, 99072, Note_on_c, 0, 69, 62
4, 99168, Note_on_c, 0, 69, 0
4, 99168, Note_on_c, 0, 93, 0
4, 99168, Note_on_c, 0, 81, 0
4, 99168, Note_on_c, 0, 90, 54
4, 99168, Note_on_c, 0, 66, 46
4, 99168, Note_on_c, 0, 78, 46
4, 99264, Note_on_c, 0, 78, 0
4, 99264, Note_on_c, 0, 66, 0
4, 99264, Note_on_c, 0, 90, 0
4, 99264, Note_on_c, 0, 67, 38
4, 99264, Note_on_c, 0, 79, 38
4, 99264, Note_on_c, 0, 91, 49
4, 99360, Note_on_c, 0, 91, 0
4, 99360, Note_on_c, 0, 79, 0
4, 99360, Note_on_c, 0, 67, 0
4, 99360, Note_on_c, 0, 80, 42
4, 99360, Note_on_c, 0, 68, 42
4, 99360, Note_on_c, 0, 92, 47
4, 99456, Note_on_c, 0, 92, 0
4, 99456, Note_on_c, 0, 68, 0
4, 99456, Note_on_c, 0, 80, 0
4, 99456, Note_on_c, 0, 81, 42
4, 99456, Note_on_c, 0, 93, 46
4, 99456, Note_on_c, 0, 69, 42
4, 99552, Note_on_c, 0, 69, 0
4, 99552, Note_on_c, 0, 93, 0
4, 99552, Note_on_c, 0, 81, 0
4, 99552, Note_on_c, 0, 95, 49
4, 99552, Note_on_c, 0, 83, 42
4, 99552, Note_on_c, 0, 71, 42
4, 99648, Note_on_c, 0, 71, 0
4, 99648, Note_on_c, 0, 83, 0
4, 99648, Note_on_c, 0, 95, 0
4, 99648, Note_on_c, 0, 96, 49
4, 99648, Note_on_c, 0, 84, 43
4, 99648, Note_on_c, 0, 72, 43
4, 99744, Note_on_c, 0, 72, 0
4, 99744, Note_on_c, 0, 84, 0
4, 99744, Note_on_c, 0, 96, 0
4, 99744, Note_on_c, 0, 97, 46
4, 99744, Note_on_c, 0, 85, 42
4, 99744, Note_on_c, 0, 73, 42
4, 99840, Note_on_c, 0, 73, 0
4, 99840, Note_on_c, 0, 85, 0
4, 99840, Note_on_c, 0, 97, 0
4, 99840, Note_on_c, 0, 98, 45
4, 99840, Note_on_c, 0, 98, 49
4, 99840, Note_on_c, 0, 74, 38
4, 99840, Note_on_c, 0, 86, 38
4, 99936, Note_on_c, 0, 86, 0
4, 99936, Note_on_c, 0, 98, 0
4, 99936, Note_on_c, 0, 98, 0
4, 99936, Note_on_c, 0, 74, 0
4, 99936, Note_on_c, 0, 85, 46
4, 99936, Note_on_c, 0, 73, 46
4, 99936, Note_on_c, 0, 97, 47
4, 100032, Note_on_c, 0, 97, 0
4, 100032, Note_on_c, 0, 73, 0
4, 100032, Note_on_c, 0, 85, 0
4, 100032, Note_on_c, 0, 83, 42
4, 100032, Note_on_c, 0, 71, 42
4, 100032, Note_on_c, 0, 95, 46
4, 100128, Note_on_c, 0, 95, 0
4, 100128, Note_on_c, 0, 71, 0
4, 100128, Note_on_c, 0, 83, 0
4, 100128, Note_on_c, 0, 82, 39
4, 100128, Note_on_c, 0, 70, 39
4, 100128, Note_on_c, 0, 94, 46
4, 100224, Note_on_c, 0, 94, 0
4, 100224, Note_on_c, 0, 70, 0
4, 100224, Note_on_c, 0, 82, 0
4, 100224, Note_on_c, 0, 93, 49
4, 100224, Note_on_c, 0, 81, 45
4, 100224, Note_on_c, 0, 69, 45
4, 100320, Note_on_c, 0, 69, 0
4, 100320, Note_on_c, 0, 81, 0
4, 100320, Note_on_c, 0, 93, 0
4, 100320, Note_on_c, 0, 79, 38
4, 100320, Note_on_c, 0, 91, 46
4, 100320, Note_on_c, 0, 67, 38
4, 100416, Note_on_c, 0, 67, 0
4, 100416, Note_on_c, 0, 91, 0
4, 100416, Note_on_c, 0, 79, 0
4, 100416, Note_on_c, 0, 77, 42
4, 100416, Note_on_c, 0, 90, 51
4, 100416, Note_on_c, 0, 65, 42
4, 100512, Note_on_c, 0, 65, 0
4, 100512, Note_on_c, 0, 90, 0
4, 100512, Note_on_c, 0, 77, 0
4, 100512, Note_on_c, 0, 76, 38
4, 100512, Note_on_c, 0, 88, 49
4, 100512, Note_on_c, 0, 64, 86
4, 100608, Note_on_c, 0, 64, 0
4, 100608, Note_on_c, 0, 88, 0
4, 100608, Note_on_c, 0, 76, 0
4, 100608, Note_on_c, 0, 86, 49
4, 100608, Note_on_c, 0, 74, 40
4, 100608, Note_on_c, 0, 62, 86
4, 100704, Note_on_c, 0, 62, 0
4, 100704, Note_on_c, 0, 74, 0
4, 100704, Note_on_c, 0, 86, 0
4, 100704, Note_on_c, 0, 85, 49
4, 100704, Note_on_c, 0, 73, 45
4, 100704, Note_on_c, 0, 61, 86
4, 100800, Note_on_c, 0, 61, 0
4, 100800, Note_on_c, 0, 73, 0
4, 100800, Note_on_c, 0, 85, 0
4, 100800, Note_on_c, 0, 83, 49
4, 100800, Note_on_c, 0, 59, 86
4, 100800, Note_on_c, 0, 71, 35
4, 100896, Note_on_c, 0, 71, 0
4, 100896, Note_on_c, 0, 59, 0
4, 100896, Note_on_c, 0, 83, 0
4, 100896, Note_on_c, 0, 82, 46
4, 100896, Note_on_c, 0, 70, 40
4, 100896, Note_on_c, 0, 58, 86
4, 100992, Note_on_c, 0, 58, 0
4, 100992, Note_on_c, 0, 70, 0
4, 100992, Note_on_c, 0, 82, 0
4, 100992, Note_on_c, 0, 69, 40
4, 100992, Note_on_c, 0, 81, 49
4, 101088, Note_on_c, 0, 81, 0
4, 101088, Note_on_c, 0, 69, 0
4, 101088, Note_on_c, 0, 83, 53
4, 101088, Note_on_c, 0, 71, 44
4, 101088, Note_on_c, 0, 71, 40
4, 101184, Note_on_c, 0, 71, 0
4, 101184, Note_on_c, 0, 71, 0
4, 101184, Note_on_c, 0, 83, 0
4, 101184, Note_on_c, 0, 84, 53
4, 101184, Note_on_c, 0, 72, 42
4, 101280, Note_on_c, 0, 72, 0
4, 101280, Note_on_c, 0, 84, 0
4, 101280, Note_on_c, 0, 73, 42
4, 101280, Note_on_c, 0, 85, 47
4, 101376, Note_on_c, 0, 85, 0
4, 101376, Note_on_c, 0, 73, 0
4, 101376, Note_on_c, 0, 74, 42
4, 101376, Note_on_c, 0, 86, 49
4, 101472, Note_on_c, 0, 86, 0
4, 101472, Note_on_c, 0, 74, 0
4, 101472, Note_on_c, 0, 73, 46
4, 101472, Note_on_c, 0, 85, 51
4, 101568, Note_on_c, 0, 85, 0
4, 101568, Note_on_c, 0, 73, 0
4, 101568, Note_on_c, 0, 83, 53
4, 101568, Note_on_c, 0, 71, 38
4, 101664, Note_on_c, 0, 71, 0
4, 101664, Note_on_c, 0, 83, 0
4, 101664, Note_on_c, 0, 70, 43
4, 101664, Note_on_c, 0, 82, 46
4, 101760, Note_on_c, 0, 82, 0
4, 101760, Note_on_c, 0, 70, 0
4, 101760, Note_on_c, 0, 81, 49
4, 101760, Note_on_c, 0, 69, 39
4, 101856, Note_on_c, 0, 69, 0
4, 101856, Note_on_c, 0, 81, 0
4, 101856, Note_on_c, 0, 79, 49
4, 101856, Note_on_c, 0, 67, 46
4, 101856, Note_on_c, 0, 79, 51
4, 101952, Note_on_c, 0, 79, 0
4, 101952, Note_on_c, 0, 67, 0
4, 101952, Note_on_c, 0, 79, 0
4, 101952, Note_on_c, 0, 78, 54
4, 101952, Note_on_c, 0, 66, 49
4, 102048, Note_on_c, 0, 66, 0
4, 102048, Note_on_c, 0, 78, 0
4, 102048, Note_on_c, 0, 64, 44
4, 102048, Note_on_c, 0, 76, 52
4, 102144, Note_on_c, 0, 76, 0
4, 102144, Note_on_c, 0, 64, 0
4, 102144, Note_on_c, 0, 74, 49
4, 102144, Note_on_c, 0, 62, 46
4, 102240, Note_on_c, 0, 62, 0
4, 102240, Note_on_c, 0, 74, 0
4, 102240, Note_on_c, 0, 61, 46
4, 102240, Note_on_c, 0, 73, 54
4, 102240, Note_on_c, 0, 73, 53
4, 102336, Note_on_c, 0, 73, 0
4, 102336, Note_on_c, 0, 73, 0
4, 102336, Note_on_c, 0, 61, 0
4, 102336, Note_on_c, 0, 71, 49
4, 102336, Note_on_c, 0, 59, 44
4, 102432, Note_on_c, 0, 59, 0
4, 102432, Note_on_c, 0, 71, 0
4, 102432, Note_on_c, 0, 70, 49
4, 102432, Note_on_c, 0, 58, 43
4, 102528, Note_on_c, 0, 58, 0
4, 102528, Note_on_c, 0, 70, 0
4, 102528, Note_on_c, 0, 57, 82
4, 102528, Note_on_c, 0, 69, 60
4, 102624, Note_on_c, 0, 69, 0
4, 102624, Note_on_c, 0, 57, 0
4, 102624, Note_on_c, 0, 55, 85
4, 102624, Note_on_c, 0, 67, 57
4, 102720, Note_on_c, 0, 67, 0
4, 102720, Note_on_c, 0, 55, 0
4, 102720, Note_on_c, 0, 54, 79
4, 102720, Note_on_c, 0, 66, 53
4, 102816, Note_on_c, 0, 66, 0
4, 102816, Note_on_c, 0, 54, 0
4, 102816, Note_on_c, 0, 52, 79
4, 102816, Note_on_c, 0, 64, 54
4, 102912, Note_on_c, 0, 64, 0
4, 102912, Note_on_c, 0, 52, 0
4, 102912, Note_on_c, 0, 50, 79
4, 102912, Note_on_c, 0, 62, 58
4, 103008, Note_on_c, 0, 62, 0
4, 103008, Note_on_c, 0, 50, 0
4, 103008, Note_on_c, 0, 61, 53
4, 103008, Note_on_c, 0, 49, 79
4, 103104, Note_on_c, 0, 49, 0
4, 103104, Note_on_c, 0, 61, 0
4, 103104, Note_on_c, 0, 47, 79
4, 103104, Note_on_c, 0, 59, 53
4, 103200, Note_on_c, 0, 59, 0
4, 103200, Note_on_c, 0, 47, 0
4, 103200, Note_on_c, 0, 46, 79
4, 103200, Note_on_c, 0, 58, 51
4, 103296, Note_on_c, 0, 58, 0
4, 103296, Note_on_c, 0, 46, 0
4, 103296, Note_on_c, 0, 57, 57
4, 103296, Note_on_c, 0, 45, 79
4, 103392, Note_on_c, 0, 45, 0
4, 103392, Note_on_c, 0, 57, 0
4, 103392, Note_on_c, 0, 55, 79
4, 103488, Note_on_c, 0, 55, 0
4, 103488, Note_on_c, 0, 54, 79
4, 103584, Note_on_c, 0, 54, 0
4, 103584, Note_on_c, 0, 52, 79
4, 103680, Note_on_c, 0, 52, 0
4, 103680, Note_on_c, 0, 50, 86
4, 103776, Note_on_c, 0, 50, 0
4, 103776, Note_on_c, 0, 49, 86
4, 103872, Note_on_c, 0, 49, 0
4, 103872, Note_on_c, 0, 48, 86
4, 103968, Note_on_c, 0, 48, 0
4, 103968, Note_on_c, 0, 47, 86
4, 104064, Note_on_c, 0, 47, 0
4, 104064, Note_on_c, 0, 46, 86
4, 104160, Note_on_c, 0, 46, 0
4, 104160, Note_on_c, 0, 45, 86
4, 104256, Note_on_c, 0, 45, 0
4, 104256, Note_on_c, 0, 47, 86
4, 104352, Note_on_c, 0, 47, 0
4, 104352, Note_on_c, 0, 49, 86
4, 104448, Note_on_c, 0, 49, 0
4, 104448, Note_on_c, 0, 50, 89
4, 104528, Note_on_c, 0, 50, 0
4, 104544, Note_on_c, 0, 49, 89
4, 104624, Note_on_c, 0, 49, 0
4, 104640, Note_on_c, 0, 48, 89
4, 104720, Note_on_c, 0, 48, 0
4, 104736, Note_on_c, 0, 47, 89
4, 104816, Note_on_c, 0, 47, 0
4, 104832, Note_on_c, 0, 46, 89
4, 104912, Note_on_c, 0, 46, 0
4, 104928, Note_on_c, 0, 45, 89
4, 105008, Note_on_c, 0, 45, 0
4, 105024, Note_on_c, 0, 47, 89
4, 105104, Note_on_c, 0, 47, 0
4, 105120, Note_on_c, 0, 49, 89
4, 105200, Note_on_c, 0, 49, 0
4, 105216, Note_on_c, 0, 50, 67
4, 105296, Note_on_c, 0, 50, 0
4, 105312, Note_on_c, 0, 49, 67
4, 105392, Note_on_c, 0, 49, 0
4, 105408, Note_on_c, 0, 48, 67
4, 105488, Note_on_c, 0, 48, 0
4, 105504, Note_on_c, 0, 47, 67
4, 105584, Note_on_c, 0, 47, 0
4, 105600, Note_on_c, 0, 46, 67
4, 105680, Note_on_c, 0, 46, 0
4, 105696, Note_on_c, 0, 45, 67
4, 105776, Note_on_c, 0, 45, 0
4, 105792, Note_on_c, 0, 47, 67
4, 105872, Note_on_c, 0, 47, 0
4, 105888, Note_on_c, 0, 49, 67
4, 105968, Note_on_c, 0, 49, 0
4, 105984, Note_on_c, 0, 50, 50
4, 106064, Note_on_c, 0, 50, 0
4, 106080, Note_on_c, 0, 49, 50
4, 106160, Note_on_c, 0, 49, 0
4, 106176, Note_on_c, 0, 48, 50
4, 106256, Note_on_c, 0, 48, 0
4, 106272, Note_on_c, 0, 47, 50
4, 106352, Note_on_c, 0, 47, 0
4, 106368, Note_on_c, 0, 46, 50
4, 106448, Note_on_c, 0, 46, 0
4, 106464, Note_on_c, 0, 45, 50
4, 106544, Note_on_c, 0, 45, 0
4, 106560, Note_on_c, 0, 47, 50
4, 106640, Note_on_c, 0, 47, 0
4, 106656, Note_on_c, 0, 49, 50
4, 106736, Note_on_c, 0, 49, 0
4, 106752, Note_on_c, 0, 50, 36
4, 106832, Note_on_c, 0, 50, 0
4, 106848, Note_on_c, 0, 49, 36
4, 106928, Note_on_c, 0, 49, 0
4, 106944, Note_on_c, 0, 48, 36
4, 107024, Note_on_c, 0, 48, 0
4, 107040, Note_on_c, 0, 47, 36
4, 107120, Note_on_c, 0, 47, 0
4, 107136, Note_on_c, 0, 46, 36
4, 107216, Note_on_c, 0, 46, 0
4, 107232, Note_on_c, 0, 45, 36
4, 107312, Note_on_c, 0, 45, 0
4, 107328, Note_on_c, 0, 47, 36
4, 107408, Note_on_c, 0, 47, 0
4, 107424, Note_on_c, 0, 49, 34
4, 107520, Note_on_c, 0, 50, 36
4, 107600, Note_on_c, 0, 50, 0
4, 107616, Note_on_c, 0, 49, 0
4, 107616, Note_on_c, 0, 49, 36
4, 107696, Note_on_c, 0, 49, 0
4, 107712, Note_on_c, 0, 48, 36
4, 107792, Note_on_c, 0, 48, 0
4, 107808, Note_on_c, 0, 47, 36
4, 107888, Note_on_c, 0, 47, 0
4, 107904, Note_on_c, 0, 46, 36
4, 107984, Note_on_c, 0, 46, 0
4, 108000, Note_on_c, 0, 45, 36
4, 108080, Note_on_c, 0, 45, 0
4, 108096, Note_on_c, 0, 47, 36
4, 108176, Note_on_c, 0, 47, 0
4, 108192, Note_on_c, 0, 49, 36
4, 108272, Note_on_c, 0, 49, 0
4, 108288, Note_on_c, 0, 50, 36
4, 108368, Note_on_c, 0, 50, 0
4, 108384, Note_on_c, 0, 49, 36
4, 108464, Note_on_c, 0, 49, 0
4, 108480, Note_on_c, 0, 47, 36
4, 108560, Note_on_c, 0, 47, 0
4, 108576, Note_on_c, 0, 45, 36
4, 108656, Note_on_c, 0, 45, 0
4, 108672, Note_on_c, 0, 50, 36
4, 108752, Note_on_c, 0, 50, 0
4, 108768, Note_on_c, 0, 49, 36
4, 108848, Note_on_c, 0, 49, 0
4, 108864, Note_on_c, 0, 47, 36
4, 108944, Note_on_c, 0, 47, 0
4, 108960, Note_on_c, 0, 45, 36
4, 109040, Note_on_c, 0, 45, 0
4, 109056, Note_on_c, 0, 50, 36
4, 109136, Note_on_c, 0, 50, 0
4, 109152, Note_on_c, 0, 49, 36
4, 109232, Note_on_c, 0, 49, 0
4, 109248, Note_on_c, 0, 47, 36
4, 109328, Note_on_c, 0, 47, 0
4, 109344, Note_on_c, 0, 45, 36
4, 109424, Note_on_c, 0, 45, 0
4, 109440, Note_on_c, 0, 50, 36
4, 109520, Note_on_c, 0, 50, 0
4, 109536, Note_on_c, 0, 49, 36
4, 109616, Note_on_c, 0, 49, 0
4, 109632, Note_on_c, 0, 47, 36
4, 109712, Note_on_c, 0, 47, 0
4, 109728, Note_on_c, 0, 45, 34
4, 109824, Note_on_c, 0, 45, 0
4, 109824, Note_on_c, 0, 50, 29
4, 110592, Note_on_c, 0, 50, 0
4, 186624, Note_on_c, 0, 78, 86
4, 186624, Note_on_c, 0, 90, 86
4, 186624, Note_on_c, 0, 66, 86
4, 187200, Note_on_c, 0, 66, 0
4, 187200, Note_on_c, 0, 90, 0
4, 187200, Note_on_c, 0, 78, 0
4, 187200, Note_on_c, 0, 92, 86
4, 187200, Note_on_c, 0, 68, 86
4, 187200, Note_on_c, 0, 80, 86
4, 187296, Note_on_c, 0, 80, 0
4, 187296, Note_on_c, 0, 68, 0
4, 187296, Note_on_c, 0, 92, 0
4, 187296, Note_on_c, 0, 94, 86
4, 187296, Note_on_c, 0, 70, 86
4, 187296, Note_on_c, 0, 82, 86
4, 187392, Note_on_c, 0, 82, 0
4, 187392, Note_on_c, 0, 70, 0
4, 187392, Note_on_c, 0, 94, 0
4, 187392, Note_on_c, 0, 83, 37
4, 187392, Note_on_c, 0, 59, 37
4, 187392, Note_on_c, 0, 95, 46
4, 187488, Note_on_c, 0, 95, 0
4, 187488, Note_on_c, 0, 59, 0
4, 187488, Note_on_c, 0, 83, 0
4, 187488, Note_on_c, 0, 82, 42
4, 187488, Note_on_c, 0, 94, 47
4, 187488, Note_on_c, 0, 58, 42
4, 187584, Note_on_c, 0, 58, 0
4, 187584, Note_on_c, 0, 94, 0
4, 187584, Note_on_c, 0, 82, 0
4, 187584, Note_on_c, 0, 80, 39
4, 187584, Note_on_c, 0, 92, 48
4, 187584, Note_on_c, 0, 56, 39
4, 187680, Note_on_c, 0, 56, 0
4, 187680, Note_on_c, 0, 92, 0
4, 187680, Note_on_c, 0, 80, 0
4, 187680, Note_on_c, 0, 91, 49
4, 187680, Note_on_c, 0, 79, 45
4, 187680, Note_on_c, 0, 55, 45
4, 187776, Note_on_c, 0, 55, 0
4, 187776, Note_on_c, 0, 79, 0
4, 187776, Note_on_c, 0, 91, 0
4, 187776, Note_on_c, 0, 90, 51
4, 187776, Note_on_c, 0, 78, 47
4, 187776, Note_on_c, 0, 54, 47
4, 187872, Note_on_c, 0, 54, 0
4, 187872, Note_on_c, 0, 78, 0
4, 187872, Note_on_c, 0, 90, 0
4, 187872, Note_on_c, 0, 88, 49
4, 187872, Note_on_c, 0, 76, 33
4, 187872, Note_on_c, 0, 52, 33
4, 187968, Note_on_c, 0, 52, 0
4, 187968, Note_on_c, 0, 76, 0
4, 187968, Note_on_c, 0, 88, 0
4, 187968, Note_on_c, 0, 51, 42
4, 187968, Note_on_c, 0, 75, 42
4, 187968, Note_on_c, 0, 87, 49
4, 188064, Note_on_c, 0, 87, 0
4, 188064, Note_on_c, 0, 75, 0
4, 188064, Note_on_c, 0, 51, 0
4, 188064, Note_on_c, 0, 49, 86
4, 188064, Note_on_c, 0, 85, 46
4, 188064, Note_on_c, 0, 73, 42
4, 188160, Note_on_c, 0, 73, 0
4, 188160, Note_on_c, 0, 85, 0
4, 188160, Note_on_c, 0, 49, 0
4, 188160, Note_on_c, 0, 83, 49
4, 188160, Note_on_c, 0, 71, 40
4, 188160, Note_on_c, 0, 59, 40
4, 188256, Note_on_c, 0, 59, 0
4, 188256, Note_on_c, 0, 71, 0
4, 188256, Note_on_c, 0, 83, 0
4, 188256, Note_on_c, 0, 58, 42
4, 188256, Note_on_c, 0, 70, 42
4, 188256, Note_on_c, 0, 82, 46
4, 188352, Note_on_c, 0, 82, 0
4, 188352, Note_on_c, 0, 70, 0
4, 188352, Note_on_c, 0, 58, 0
4, 188352, Note_on_c, 0, 80, 49
4, 188352, Note_on_c, 0, 56, 46
4, 188352, Note_on_c, 0, 68, 46
4, 188448, Note_on_c, 0, 68, 0
4, 188448, Note_on_c, 0, 56, 0
4, 188448, Note_on_c, 0, 80, 0
4, 188448, Note_on_c, 0, 79, 52
4, 188448, Note_on_c, 0, 55, 43
4, 188448, Note_on_c, 0, 67, 43
4, 188544, Note_on_c, 0, 67, 0
4, 188544, Note_on_c, 0, 55, 0
4, 188544, Note_on_c, 0, 79, 0
4, 188544, Note_on_c, 0, 78, 51
4, 188544, Note_on_c, 0, 66, 39
4, 188640, Note_on_c, 0, 66, 0
4, 188640, Note_on_c, 0, 78, 0
4, 188640, Note_on_c, 0, 67, 38
4, 188640, Note_on_c, 0, 79, 46
4, 188736, Note_on_c, 0, 79, 0
4, 188736, Note_on_c, 0, 67, 0
4, 188736, Note_on_c, 0, 80, 47
4, 188736, Note_on_c, 0, 68, 45
4, 188832, Note_on_c, 0, 68, 0
4, 188832, Note_on_c, 0, 80, 0
4, 188832, Note_on_c, 0, 69, 38
4, 188832, Note_on_c, 0, 81, 49
4, 188928, Note_on_c, 0, 81, 0
4, 188928, Note_on_c, 0, 69, 0
4, 188928, Note_on_c, 0, 82, 48
4, 188928, Note_on_c, 0, 70, 40
4, 189024, Note_on_c, 0, 70, 0
4, 189024, Note_on_c, 0, 82, 0
4, 189024, Note_on_c, 0, 71, 38
4, 189024, Note_on_c, 0, 83, 49
4, 189120, Note_on_c, 0, 83, 0
4, 189120, Note_on_c, 0, 71, 0
4, 189120, Note_on_c, 0, 82, 46
4, 189120, Note_on_c, 0, 70, 44
4, 189216, Note_on_c, 0, 70, 0
4, 189216, Note_on_c, 0, 82, 0
4, 189216, Note_on_c, 0, 80, 55
4, 189216, Note_on_c, 0, 68, 45
4, 189312, Note_on_c, 0, 68, 0
4, 189312, Note_on_c, 0, 80, 0
4, 189312, Note_on_c, 0, 79, 49
4, 189312, Note_on_c, 0, 67, 40
4, 189408, Note_on_c, 0, 67, 0
4, 189408, Note_on_c, 0, 79, 0
4, 189408, Note_on_c, 0, 78, 53
4, 189408, Note_on_c, 0, 66, 39
4, 189504, Note_on_c, 0, 66, 0
4, 189504, Note_on_c, 0, 78, 0
4, 189504, Note_on_c, 0, 76, 55
4, 189504, Note_on_c, 0, 64, 45
4, 189600, Note_on_c, 0, 64, 0
4, 189600, Note_on_c, 0, 76, 0
4, 189600, Note_on_c, 0, 75, 54
4, 189600, Note_on_c, 0, 63, 42
4, 189696, Note_on_c, 0, 63, 0
4, 189696, Note_on_c, 0, 75, 0
4, 189696, Note_on_c, 0, 73, 53
4, 189696, Note_on_c, 0, 61, 42
4, 189792, Note_on_c, 0, 61, 0
4, 189792, Note_on_c, 0, 73, 0
4, 189792, Note_on_c, 0, 71, 49
4, 189792, Note_on_c, 0, 59, 44
4, 189888, Note_on_c, 0, 59, 0
4, 189888, Note_on_c, 0, 71, 0
4, 189888, Note_on_c, 0, 70, 45
4, 189888, Note_on_c, 0, 58, 40
4, 189984, Note_on_c, 0, 58, 0
4, 189984, Note_on_c, 0, 70, 0
4, 189984, Note_on_c, 0, 56, 46
4, 189984, Note_on_c, 0, 68, 55
4, 190080, Note_on_c, 0, 68, 0
4, 190080, Note_on_c, 0, 56, 0
4, 190080, Note_on_c, 0, 54, 86
4, 190080, Note_on_c, 0, 66, 49
4, 190176, Note_on_c, 0, 66, 0
4, 190176, Note_on_c, 0, 54, 0
4, 190176, Note_on_c, 0, 52, 86
4, 190176, Note_on_c, 0, 64, 42
4, 190272, Note_on_c, 0, 64, 0
4, 190272, Note_on_c, 0, 52, 0
4, 190272, Note_on_c, 0, 63, 47
4, 190272, Note_on_c, 0, 51, 86
4, 190368, Note_on_c, 0, 51, 0
4, 190368, Note_on_c, 0, 63, 0
4, 190368, Note_on_c, 0, 49, 86
4, 190368, Note_on_c, 0, 61, 54
4, 190464, Note_on_c, 0, 61, 0
4, 190464, Note_on_c, 0, 49, 0
4, 190464, Note_on_c, 0, 59, 57
4, 190464, Note_on_c, 0, 47, 86
4, 190560, Note_on_c, 0, 47, 0
4, 190560, Note_on_c, 0, 59, 0
4, 190560, Note_on_c, 0, 58, 49
4, 190560, Note_on_c, 0, 46, 86
4, 190656, Note_on_c, 0, 46, 0
4, 190656, Note_on_c, 0, 58, 0
4, 190656, Note_on_c, 0, 44, 86
4, 190656, Note_on_c, 0, 56, 53
4, 190752, Note_on_c, 0, 56, 0
4, 190752, Note_on_c, 0, 44, 0
4, 190752, Note_on_c, 0, 43, 86
4, 190752, Note_on_c, 0, 55, 57
4, 190848, Note_on_c, 0, 55, 0
4, 190848, Note_on_c, 0, 43, 0
4, 190848, Note_on_c, 0, 54, 86
4, 190944, Note_on_c, 0, 54, 0
4, 190944, Note_on_c, 0, 52, 86
4, 191040, Note_on_c, 0, 52, 0
4, 191040, Note_on_c, 0, 51, 86
4, 191136, Note_on_c, 0, 51, 0
4, 191136, Note_on_c, 0, 49, 86
4, 191232, Note_on_c, 0, 49, 0
4, 191232, Note_on_c, 0, 47, 52
4, 191328, Note_on_c, 0, 47, 0
4, 191328, Note_on_c, 0, 46, 48
4, 191424, Note_on_c, 0, 46, 0
4, 191424, Note_on_c, 0, 45, 57
4, 191520, Note_on_c, 0, 45, 0
4, 191520, Note_on_c, 0, 44, 46
4, 191616, Note_on_c, 0, 44, 0
4, 191616, Note_on_c, 0, 43, 53
4, 191712, Note_on_c, 0, 43, 0
4, 191712, Note_on_c, 0, 42, 55
4, 191808, Note_on_c, 0, 42, 0
4, 191808, Note_on_c, 0, 44, 53
4, 191904, Note_on_c, 0, 44, 0
4, 191904, Note_on_c, 0, 46, 55
4, 192000, Note_on_c, 0, 46, 0
4, 192000, Note_on_c, 0, 47, 39
4, 192096, Note_on_c, 0, 47, 0
4, 192096, Note_on_c, 0, 46, 42
4, 192192, Note_on_c, 0, 46, 0
4, 192192, Note_on_c, 0, 45, 49
4, 192288, Note_on_c, 0, 45, 0
4, 192288, Note_on_c, 0, 44, 47
4, 192384, Note_on_c, 0, 44, 0
4, 192384, Note_on_c, 0, 43, 49
4, 192480, Note_on_c, 0, 43, 0
4, 192480, Note_on_c, 0, 42, 53
4, 192576, Note_on_c, 0, 42, 0
4, 192576, Note_on_c, 0, 44, 53
4, 192672, Note_on_c, 0, 44, 0
4, 192672, Note_on_c, 0, 46, 49
4, 192768, Note_on_c, 0, 46, 0
4, 192768, Note_on_c, 0, 47, 52
4, 192864, Note_on_c, 0, 47, 0
4, 192864, Note_on_c, 0, 46, 48
4, 192960, Note_on_c, 0, 46, 0
4, 192960, Note_on_c, 0, 45, 57
4, 193056, Note_on_c, 0, 45, 0
4, 193056, Note_on_c, 0, 44, 46
4, 193152, Note_on_c, 0, 44, 0
4, 193152, Note_on_c, 0, 43, 53
4, 193248, Note_on_c, 0, 43, 0
4, 193248, Note_on_c, 0, 42, 55
4, 193344, Note_on_c, 0, 42, 0
4, 193344, Note_on_c, 0, 44, 53
4, 193440, Note_on_c, 0, 44, 0
4, 193440, Note_on_c, 0, 46, 55
4, 193536, Note_on_c, 0, 46, 0
4, 193536, Note_on_c, 0, 47, 39
4, 193632, Note_on_c, 0, 47, 0
4, 193632, Note_on_c, 0, 46, 42
4, 193728, Note_on_c, 0, 46, 0
4, 193728, Note_on_c, 0, 45, 49
4, 193824, Note_on_c, 0, 45, 0
4, 193824, Note_on_c, 0, 44, 47
4, 193920, Note_on_c, 0, 44, 0
4, 193920, Note_on_c, 0, 43, 49
4, 194016, Note_on_c, 0, 43, 0
4, 194016, Note_on_c, 0, 42, 53
4, 194112, Note_on_c, 0, 42, 0
4, 194112, Note_on_c, 0, 44, 53
4, 194208, Note_on_c, 0, 44, 0
4, 194208, Note_on_c, 0, 46, 49
4, 194304, Note_on_c, 0, 46, 0
4, 194304, Note_on_c, 0, 47, 52
4, 194400, Note_on_c, 0, 47, 0
4, 194400, Note_on_c, 0, 46, 48
4, 194496, Note_on_c, 0, 46, 0
4, 194496, Note_on_c, 0, 45, 57
4, 194592, Note_on_c, 0, 45, 0
4, 194592, Note_on_c, 0, 44, 46
4, 194688, Note_on_c, 0, 44, 0
4, 194688, Note_on_c, 0, 43, 53
4, 194784, Note_on_c, 0, 43, 0
4, 194784, Note_on_c, 0, 42, 55
4, 194880, Note_on_c, 0, 42, 0
4, 194880, Note_on_c, 0, 44, 53
4, 194976, Note_on_c, 0, 44, 0
4, 194976, Note_on_c, 0, 46, 55
4, 195072, Note_on_c, 0, 46, 0
4, 195072, Note_on_c, 0, 47, 39
4, 195168, Note_on_c, 0, 47, 0
4, 195168, Note_on_c, 0, 46, 42
4, 195264, Note_on_c, 0, 46, 0
4, 195264, Note_on_c, 0, 45, 49
4, 195360, Note_on_c, 0, 45, 0
4, 195360, Note_on_c, 0, 44, 47
4, 195456, Note_on_c, 0, 44, 0
4, 195456, Note_on_c, 0, 43, 49
4, 195552, Note_on_c, 0, 43, 0
4, 195552, Note_on_c, 0, 42, 53
4, 195648, Note_on_c, 0, 42, 0
4, 195648, Note_on_c, 0, 44, 53
4, 195744, Note_on_c, 0, 44, 0
4, 195744, Note_on_c, 0, 46, 49
4, 195840, Note_on_c, 0, 46, 0
4, 195840, Note_on_c, 0, 47, 49
4, 195936, Note_on_c, 0, 47, 0
4, 195936, Note_on_c, 0, 46, 49
4, 196032, Note_on_c, 0, 46, 0
4, 196032, Note_on_c, 0, 44, 53
4, 196128, Note_on_c, 0, 44, 0
4, 196128, Note_on_c, 0, 42, 54
4, 196224, Note_on_c, 0, 42, 0
4, 196224, Note_on_c, 0, 47, 53
4, 196320, Note_on_c, 0, 47, 0
4, 196320, Note_on_c, 0, 46, 46
4, 196416, Note_on_c, 0, 46, 0
4, 196416, Note_on_c, 0, 44, 53
4, 196512, Note_on_c, 0, 44, 0
4, 196512, Note_on_c, 0, 42, 55
4, 196608, Note_on_c, 0, 42, 0
4, 196608, Note_on_c, 0, 47, 46
4, 196704, Note_on_c, 0, 47, 0
4, 196704, Note_on_c, 0, 46, 49
4, 196800, Note_on_c, 0, 46, 0
4, 196800, Note_on_c, 0, 44, 54
4, 196896, Note_on_c, 0, 44, 0
4, 196896, Note_on_c, 0, 42, 53
4, 196992, Note_on_c, 0, 42, 0
4, 196992, Note_on_c, 0, 47, 49
4, 197088, Note_on_c, 0, 47, 0
4, 197088, Note_on_c, 0, 46, 55
4, 197184, Note_on_c, 0, 46, 0
4, 197184, Note_on_c, 0, 44, 55
4, 197280, Note_on_c, 0, 44, 0
4, 197280, Note_on_c, 0, 42, 55
4, 197376, Note_on_c, 0, 42, 0
4, 233472, Note_on_c, 0, 80, 46
4, 233472, Note_on_c, 0, 56, 46
4, 233472, Note_on_c, 0, 68, 46
4, 233664, Note_on_c, 0, 68, 0
4, 233664, Note_on_c, 0, 56, 0
4, 233664, Note_on_c, 0, 80, 0
4, 233664, Note_on_c, 0, 78, 46
4, 233664, Note_on_c, 0, 54, 46
4, 233664, Note_on_c, 0, 66, 46
4, 233856, Note_on_c, 0, 66, 0
4, 233856, Note_on_c, 0, 54, 0
4, 233856, Note_on_c, 0, 78, 0
4, 233856, Note_on_c, 0, 65, 42
4, 233856, Note_on_c, 0, 53, 45
4, 233856, Note_on_c, 0, 77, 49
4, 233952, Note_on_c, 0, 77, 0
4, 233952, Note_on_c, 0, 53, 0
4, 233952, Note_on_c, 0, 65, 0
4, 233952, Note_on_c, 0, 67, 40
4, 233952, Note_on_c, 0, 55, 48
4, 233952, Note_on_c, 0, 79, 47
4, 234048, Note_on_c, 0, 79, 0
4, 234048, Note_on_c, 0, 55, 0
4, 234048, Note_on_c, 0, 67, 0
4, 234048, Note_on_c, 0, 81, 54
4, 234048, Note_on_c, 0, 57, 46
4, 234048, Note_on_c, 0, 69, 40
4, 234144, Note_on_c, 0, 69, 0
4, 234144, Note_on_c, 0, 57, 0
4, 234144, Note_on_c, 0, 81, 0
4, 234144, Note_on_c, 0, 53, 49
4, 234144, Note_on_c, 0, 65, 43
4, 234144, Note_on_c, 0, 77, 49
4, 234240, Note_on_c, 0, 77, 0
4, 234240, Note_on_c, 0, 65, 0
4, 234240, Note_on_c, 0, 53, 0
4, 234240, Note_on_c, 0, 58, 46
4, 234240, Note_on_c, 0, 82, 49
4, 234240, Note_on_c, 0, 70, 44
4, 234432, Note_on_c, 0, 70, 0
4, 234432, Note_on_c, 0, 82, 0
4, 234432, Note_on_c, 0, 58, 0
4, 234432, Note_on_c, 0, 69, 46
4, 234432, Note_on_c, 0, 57, 46
4, 234432, Note_on_c, 0, 81, 54
4, 234624, Note_on_c, 0, 81, 0
4, 234624, Note_on_c, 0, 57, 0
4, 234624, Note_on_c, 0, 69, 0
4, 234624, Note_on_c, 0, 55, 47
4, 234624, Note_on_c, 0, 79, 52
4, 234624, Note_on_c, 0, 67, 37
4, 234720, Note_on_c, 0, 67, 0
4, 234720, Note_on_c, 0, 79, 0
4, 234720, Note_on_c, 0, 55, 0
4, 234720, Note_on_c, 0, 69, 39
4, 234720, Note_on_c, 0, 57, 51
4, 234720, Note_on_c, 0, 81, 49
4, 234816, Note_on_c, 0, 81, 0
4, 234816, Note_on_c, 0, 57, 0
4, 234816, Note_on_c, 0, 69, 0
4, 234816, Note_on_c, 0, 59, 49
4, 234816, Note_on_c, 0, 83, 47
4, 234816, Note_on_c, 0, 71, 38
4, 234912, Note_on_c, 0, 71, 0
4, 234912, Note_on_c, 0, 83, 0
4, 234912, Note_on_c, 0, 59, 0
4, 234912, Note_on_c, 0, 55, 53
4, 234912, Note_on_c, 0, 67, 42
4, 234912, Note_on_c, 0, 79, 46
4, 235008, Note_on_c, 0, 79, 0
4, 235008, Note_on_c, 0, 67, 0
4, 235008, Note_on_c, 0, 55, 0
4, 235008, Note_on_c, 0, 60, 46
4, 235008, Note_on_c, 0, 84, 45
4, 235008, Note_on_c, 0, 72, 37
4, 235200, Note_on_c, 0, 72, 0
4, 235200, Note_on_c, 0, 84, 0
4, 235200, Note_on_c, 0, 60, 0
4, 235200, Note_on_c, 0, 58, 46
4, 235200, Note_on_c, 0, 82, 49
4, 235200, Note_on_c, 0, 70, 42
4, 235392, Note_on_c, 0, 70, 0
4, 235392, Note_on_c, 0, 82, 0
4, 235392, Note_on_c, 0, 58, 0
4, 235392, Note_on_c, 0, 68, 44
4, 235392, Note_on_c, 0, 80, 53
4, 235392, Note_on_c, 0, 56, 46
4, 235488, Note_on_c, 0, 56, 0
4, 235488, Note_on_c, 0, 80, 0
4, 235488, Note_on_c, 0, 68, 0
4, 235488, Note_on_c, 0, 70, 42
4, 235488, Note_on_c, 0, 58, 49
4, 235488, Note_on_c, 0, 82, 53
4, 235584, Note_on_c, 0, 82, 0
4, 235584, Note_on_c, 0, 58, 0
4, 235584, Note_on_c, 0, 70, 0
4, 235584, Note_on_c, 0, 60, 46
4, 235584, Note_on_c, 0, 84, 51
4, 235584, Note_on_c, 0, 72, 40
4, 235680, Note_on_c, 0, 72, 0
4, 235680, Note_on_c, 0, 84, 0
4, 235680, Note_on_c, 0, 60, 0
4, 235680, Note_on_c, 0, 56, 49
4, 235680, Note_on_c, 0, 68, 46
4, 235680, Note_on_c, 0, 80, 53
4, 235776, Note_on_c, 0, 80, 0
4, 235776, Note_on_c, 0, 68, 0
4, 235776, Note_on_c, 0, 56, 0
4, 235776, Note_on_c, 0, 85, 48
4, 235776, Note_on_c, 0, 61, 46
4, 235776, Note_on_c, 0, 73, 39
4, 235968, Note_on_c, 0, 73, 0
4, 235968, Note_on_c, 0, 61, 0
4, 235968, Note_on_c, 0, 85, 0
4, 235968, Note_on_c, 0, 84, 46
4, 235968, Note_on_c, 0, 72, 40
4, 235968, Note_on_c, 0, 60, 46
4, 236160, Note_on_c, 0, 60, 0
4, 236160, Note_on_c, 0, 72, 0
4, 236160, Note_on_c, 0, 84, 0
4, 236160, Note_on_c, 0, 58, 51
4, 236160, Note_on_c, 0, 82, 49
4, 236160, Note_on_c, 0, 70, 38
4, 236256, Note_on_c, 0, 70, 0
4, 236256, Note_on_c, 0, 82, 0
4, 236256, Note_on_c, 0, 58, 0
4, 236256, Note_on_c, 0, 60, 46
4, 236256, Note_on_c, 0, 72, 44
4, 236256, Note_on_c, 0, 84, 54
4, 236352, Note_on_c, 0, 84, 0
4, 236352, Note_on_c, 0, 72, 0
4, 236352, Note_on_c, 0, 60, 0
4, 236352, Note_on_c, 0, 74, 45
4, 236352, Note_on_c, 0, 86, 52
4, 236352, Note_on_c, 0, 62, 48
4, 236448, Note_on_c, 0, 62, 0
4, 236448, Note_on_c, 0, 86, 0
4, 236448, Note_on_c, 0, 74, 0
4, 236448, Note_on_c, 0, 58, 53
4, 236448, Note_on_c, 0, 70, 42
4, 236448, Note_on_c, 0, 82, 49
4, 236544, Note_on_c, 0, 82, 0
4, 236544, Note_on_c, 0, 70, 0
4, 236544, Note_on_c, 0, 58, 0
4, 236544, Note_on_c, 0, 79, 51
4, 236544, Note_on_c, 0, 87, 20
4, 236544, Note_on_c, 0, 82, 20
4, 236626, Note_on_c, 0, 82, 0
4, 236626, Note_on_c, 0, 87, 0
4, 236640, Note_on_c, 0, 79, 0
4, 236640, Note_on_c, 0, 86, 89
4, 236640, Note_on_c, 0, 80, 89
4, 236640, Note_on_c, 0, 77, 55
4, 236722, Note_on_c, 0, 80, 0
4, 236722, Note_on_c, 0, 86, 0
4, 236736, Note_on_c, 0, 77, 0
4, 236736, Note_on_c, 0, 84, 89
4, 236736, Note_on_c, 0, 75, 46
4, 236736, Note_on_c, 0, 79, 89
4, 236818, Note_on_c, 0, 79, 0
4, 236818, Note_on_c, 0, 84, 0
4, 236832, Note_on_c, 0, 75, 0
4, 236832, Note_on_c, 0, 74, 49
4, 236832, Note_on_c, 0, 77, 89
4, 236832, Note_on_c, 0, 82, 89
4, 236914, Note_on_c, 0, 82, 0
4, 236914, Note_on_c, 0, 77, 0
4, 236928, Note_on_c, 0, 74, 0
4, 236928, Note_on_c, 0, 72, 49
4, 236928, Note_on_c, 0, 75, 89
4, 236928, Note_on_c, 0, 80, 89
4, 237010, Note_on_c, 0, 80, 0
4, 237010, Note_on_c, 0, 75, 0
4, 237024, Note_on_c, 0, 72, 0
4, 237024, Note_on_c, 0, 70, 53
4, 237024, Note_on_c, 0, 74, 89
4, 237024, Note_on_c, 0, 79, 89
4, 237106, Note_on_c, 0, 79, 0
4, 237106, Note_on_c, 0, 74, 0
4, 237120, Note_on_c, 0, 70, 0
4, 237120, Note_on_c, 0, 68, 55
4, 237120, Note_on_c, 0, 72, 89
4, 237120, Note_on_c, 0, 77, 89
4, 237202, Note_on_c, 0, 77, 0
4, 237202, Note_on_c, 0, 72, 0
4, 237216, Note_on_c, 0, 68, 0
4, 237216, Note_on_c, 0, 70, 89
4, 237216, Note_on_c, 0, 75, 89
4, 237216, Note_on_c, 0, 67, 56
4, 237298, Note_on_c, 0, 75, 0
4, 237298, Note_on_c, 0, 70, 0
4, 237312, Note_on_c, 0, 67, 0
4, 237312, Note_on_c, 0, 80, 89
4, 237312, Note_on_c, 0, 72, 51
4, 237312, Note_on_c, 0, 75, 89
4, 237394, Note_on_c, 0, 75, 0
4, 237394, Note_on_c, 0, 80, 0
4, 237408, Note_on_c, 0, 72, 0
4, 237408, Note_on_c, 0, 79, 89
4, 237408, Note_on_c, 0, 74, 89
4, 237408, Note_on_c, 0, 70, 46
4, 237490, Note_on_c, 0, 74, 0
4, 237490, Note_on_c, 0, 79, 0
4, 237504, Note_on_c, 0, 70, 0
4, 237504, Note_on_c, 0, 68, 54
4, 237504, Note_on_c, 0, 72, 89
4, 237504, Note_on_c, 0, 77, 89
4, 237586, Note_on_c, 0, 77, 0
4, 237586, Note_on_c, 0, 72, 0
4, 237600, Note_on_c, 0, 68, 0
4, 237600, Note_on_c, 0, 75, 89
4, 237600, Note_on_c, 0, 67, 54
4, 237600, Note_on_c, 0, 70, 89
4, 237682, Note_on_c, 0, 70, 0
4, 237682, Note_on_c, 0, 75, 0
4, 237696, Note_on_c, 0, 67, 0
4, 237696, Note_on_c, 0, 74, 89
4, 237696, Note_on_c, 0, 65, 55
4, 237696, Note_on_c, 0, 68, 89
4, 237778, Note_on_c, 0, 68, 0
4, 237778, Note_on_c, 0, 74, 0
4, 237792, Note_on_c, 0, 65, 0
4, 237792, Note_on_c, 0, 67, 89
4, 237792, Note_on_c, 0, 63, 56
4, 237792, Note_on_c, 0, 72, 89
4, 237874, Note_on_c, 0, 72, 0
4, 237874, Note_on_c, 0, 67, 0
4, 237888, Note_on_c, 0, 63, 0
4, 237888, Note_on_c, 0, 70, 89
4, 237888, Note_on_c, 0, 65, 89
4, 237888, Note_on_c, 0, 62, 56
4, 237970, Note_on_c, 0, 65, 0
4, 237970, Note_on_c, 0, 70, 0
4, 237984, Note_on_c, 0, 62, 0
4, 237984, Note_on_c, 0, 60, 52
4, 237984, Note_on_c, 0, 63, 89
4, 237984, Note_on_c, 0, 68, 89
4, 238066, Note_on_c, 0, 68, 0
4, 238066, Note_on_c, 0, 63, 0
4, 238080, Note_on_c, 0, 60, 0
4, 238080, Note_on_c, 0, 58, 49
4, 238080, Note_on_c, 0, 62, 89
4, 238080, Note_on_c, 0, 67, 89
4, 238162, Note_on_c, 0, 67, 0
4, 238162, Note_on_c, 0, 62, 0
4, 238176, Note_on_c, 0, 58, 0
4, 238176, Note_on_c, 0, 68, 89
4, 238176, Note_on_c, 0, 63, 89
4, 238176, Note_on_c, 0, 60, 54
4, 238258, Note_on_c, 0, 63, 0
4, 238258, Note_on_c, 0, 68, 0
4, 238272, Note_on_c, 0, 60, 0
4, 238272, Note_on_c, 0, 70, 89
4, 238272, Note_on_c, 0, 65, 89
4, 238272, Note_on_c, 0, 62, 54
4, 238354, Note_on_c, 0, 65, 0
4, 238354, Note_on_c, 0, 70, 0
4, 238368, Note_on_c, 0, 62, 0
4, 238368, Note_on_c, 0, 67, 89
4, 238368, Note_on_c, 0, 72, 89
4, 238368, Note_on_c, 0, 63, 47
4, 238450, Note_on_c, 0, 72, 0
4, 238450, Note_on_c, 0, 67, 0
4, 238464, Note_on_c, 0, 63, 0
4, 238464, Note_on_c, 0, 74, 89
4, 238464, Note_on_c, 0, 68, 89
4, 238464, Note_on_c, 0, 65, 51
4, 238546, Note_on_c, 0, 68, 0
4, 238546, Note_on_c, 0, 74, 0
4, 238560, Note_on_c, 0, 65, 0
4, 238560, Note_on_c, 0, 75, 89
4, 238560, Note_on_c, 0, 70, 89
4, 238560, Note_on_c, 0, 67, 49
4, 238642, Note_on_c, 0, 70, 0
4, 238642, Note_on_c, 0, 75, 0
4, 238656, Note_on_c, 0, 67, 0
4, 238656, Note_on_c, 0, 79, 89
4, 238656, Note_on_c, 0, 75, 89
4, 238656, Note_on_c, 0, 70, 49
4, 238738, Note_on_c, 0, 75, 0
4, 238738, Note_on_c, 0, 79, 0
4, 238752, Note_on_c, 0, 70, 0
4, 238752, Note_on_c, 0, 75, 54
4, 238752, Note_on_c, 0, 82, 89
4, 238752, Note_on_c, 0, 79, 89
4, 238834, Note_on_c, 0, 79, 0
4, 238834, Note_on_c, 0, 82, 0
4, 238848, Note_on_c, 0, 75, 0
4, 238848, Note_on_c, 0, 82, 89
4, 238848, Note_on_c, 0, 79, 44
4, 238848, Note_on_c, 0, 87, 89
4, 238930, Note_on_c, 0, 87, 0
4, 238930, Note_on_c, 0, 82, 0
4, 238944, Note_on_c, 0, 79, 0
4, 238944, Note_on_c, 0, 80, 89
4, 238944, Note_on_c, 0, 86, 89
4, 238944, Note_on_c, 0, 77, 52
4, 239026, Note_on_c, 0, 86, 0
4, 239026, Note_on_c, 0, 80, 0
4, 239040, Note_on_c, 0, 77, 0
4, 239040, Note_on_c, 0, 79, 89
4, 239040, Note_on_c, 0, 84, 89
4, 239040, Note_on_c, 0, 75, 47
4, 239122, Note_on_c, 0, 84, 0
4, 239122, Note_on_c, 0, 79, 0
4, 239136, Note_on_c, 0, 75, 0
4, 239136, Note_on_c, 0, 74, 53
4, 239136, Note_on_c, 0, 82, 89
4, 239136, Note_on_c, 0, 77, 89
4, 239218, Note_on_c, 0, 77, 0
4, 239218, Note_on_c, 0, 82, 0
4, 239232, Note_on_c, 0, 74, 0
4, 239232, Note_on_c, 0, 75, 46
4, 239232, Note_on_c, 0, 84, 89
4, 239232, Note_on_c, 0, 79, 89
4, 239314, Note_on_c, 0, 79, 0
4, 239314, Note_on_c, 0, 84, 0
4, 239328, Note_on_c, 0, 75, 0
4, 239328, Note_on_c, 0, 82, 89
4, 239328, Note_on_c, 0, 74, 53
4, 239328, Note_on_c, 0, 77, 89
4, 239410, Note_on_c, 0, 77, 0
4, 239410, Note_on_c, 0, 82, 0
4, 239424, Note_on_c, 0, 74, 0
4, 239424, Note_on_c, 0, 80, 89
4, 239424, Note_on_c, 0, 72, 43
4, 239424, Note_on_c, 0, 75, 89
4, 239506, Note_on_c, 0, 75, 0
4, 239506, Note_on_c, 0, 80, 0
4, 239520, Note_on_c, 0, 72, 0
4, 239520, Note_on_c, 0, 70, 49
4, 239520, Note_on_c, 0, 74, 89
4, 239520, Note_on_c, 0, 79, 89
4, 239602, Note_on_c, 0, 79, 0
4, 239602, Note_on_c, 0, 74, 0
4, 239616, Note_on_c, 0, 70, 0
4, 239616, Note_on_c, 0, 72, 86
4, 239616, Note_on_c, 0, 68, 53
4, 239616, Note_on_c, 0, 77, 89
4, 239782, Note_on_c, 0, 77, 0
4, 239808, Note_on_c, 0, 68, 0
4, 239808, Note_on_c, 0, 72, 0
4, 239808, Note_on_c, 0, 76, 89
4, 239808, Note_on_c, 0, 72, 86
4, 239808, Note_on_c, 0, 70, 86
4, 239808, Note_on_c, 0, 65, 54
4, 239974, Note_on_c, 0, 76, 0
4, 240000, Note_on_c, 0, 72, 0
4, 240000, Note_on_c, 0, 70, 0
4, 240000, Note_on_c, 0, 65, 0
4, 240000, Note_on_c, 0, 77, 89
4, 240000, Note_on_c, 0, 72, 86
4, 240000, Note_on_c, 0, 67, 52
4, 240000, Note_on_c, 0, 68, 86
4, 240166, Note_on_c, 0, 77, 0
4, 240192, Note_on_c, 0, 72, 0
4, 240192, Note_on_c, 0, 67, 0
4, 240192, Note_on_c, 0, 68, 0
4, 240192, Note_on_c, 0, 72, 86
4, 240192, Note_on_c, 0, 67, 86
4, 240192, Note_on_c, 0, 79, 89
4, 240192, Note_on_c, 0, 60, 49
4, 240358, Note_on_c, 0, 79, 0
4, 240384, Note_on_c, 0, 72, 0
4, 240384, Note_on_c, 0, 67, 0
4, 240384, Note_on_c, 0, 60, 0
4, 240384, Note_on_c, 0, 80, 89
4, 240384, Note_on_c, 0, 77, 89
4, 240384, Note_on_c, 0, 65, 53
4, 240550, Note_on_c, 0, 77, 0
4, 240550, Note_on_c, 0, 80, 0
4, 240576, Note_on_c, 0, 65, 0
4, 240576, Note_on_c, 0, 81, 89
4, 240576, Note_on_c, 0, 65, 51
4, 240576, Note_on_c, 0, 75, 89
4, 240742, Note_on_c, 0, 75, 0
4, 240742, Note_on_c, 0, 81, 0
4, 240768, Note_on_c, 0, 65, 0
4, 240768, Note_on_c, 0, 82, 89
4, 240768, Note_on_c, 0, 65, 58
4, 240768, Note_on_c, 0, 74, 89
4, 240934, Note_on_c, 0, 74, 0
4, 240934, Note_on_c, 0, 82, 0
4, 240960, Note_on_c, 0, 65, 0
4, 240960, Note_on_c, 0, 84, 89
4, 240960, Note_on_c, 0, 72, 89
4, 240960, Note_on_c, 0, 65, 53
4, 241126, Note_on_c, 0, 72, 0
4, 241126, Note_on_c, 0, 84, 0
4, 241152, Note_on_c, 0, 65, 0
4, 241152, Note_on_c, 0, 86, 89
4, 241152, Note_on_c, 0, 82, 89
4, 241152, Note_on_c, 0, 77, 49
4, 241318, Note_on_c, 0, 82, 0
4, 241318, Note_on_c, 0, 86, 0
4, 241344, Note_on_c, 0, 77, 0
4, 241344, Note_on_c, 0, 82, 89
4, 241344, Note_on_c, 0, 75, 51
4, 241344, Note_on_c, 0, 87, 89
4, 241510, Note_on_c, 0, 87, 0
4, 241510, Note_on_c, 0, 82, 0
4, 241536, Note_on_c, 0, 75, 0
4, 241536, Note_on_c, 0, 86, 89
4, 241536, Note_on_c, 0, 82, 49
4, 241536, Note_on_c, 0, 89, 89
4, 241702, Note_on_c, 0, 89, 0
4, 241702, Note_on_c, 0, 86, 0
4, 241728, Note_on_c, 0, 82, 0
4, 241728, Note_on_c, 0, 87, 89
4, 241728, Note_on_c, 0, 82, 48
4, 241728, Note_on_c, 0, 91, 89
4, 241894, Note_on_c, 0, 91, 0
4, 241894, Note_on_c, 0, 87, 0
4, 241920, Note_on_c, 0, 82, 0
4, 241920, Note_on_c, 0, 89, 89
4, 241920, Note_on_c, 0, 92, 89
4, 241920, Note_on_c, 0, 77, 52
4, 242086, Note_on_c, 0, 92, 0
4, 242086, Note_on_c, 0, 89, 0
4, 242112, Note_on_c, 0, 77, 0
4, 242112, Note_on_c, 0, 93, 89
4, 242112, Note_on_c, 0, 89, 89
4, 242112, Note_on_c, 0, 65, 51
4, 242300, Note_on_c, 0, 89, 0
4, 242301, Note_on_c, 0, 65, 0
4, 242301, Note_on_c, 0, 93, 0
4, 242304, Note_on_c, 0, 94, 63
4, 242304, Note_on_c, 0, 86, 68
4, 242400, Note_on_c, 0, 86, 0
4, 242400, Note_on_c, 0, 94, 0
4, 242400, Note_on_c, 0, 92, 47
4, 242400, Note_on_c, 0, 68, 53
4, 242400, Note_on_c, 0, 80, 38
4, 242496, Note_on_c, 0, 80, 0
4, 242496, Note_on_c, 0, 68, 0
4, 242496, Note_on_c, 0, 92, 0
4, 242496, Note_on_c, 0, 79, 40
4, 242496, Note_on_c, 0, 91, 49
4, 242496, Note_on_c, 0, 67, 49
4, 242592, Note_on_c, 0, 67, 0
4, 242592, Note_on_c, 0, 91, 0
4, 242592, Note_on_c, 0, 79, 0
4, 242592, Note_on_c, 0, 77, 46
4, 242592, Note_on_c, 0, 89, 49
4, 242592, Note_on_c, 0, 89, 49
4, 242592, Note_on_c, 0, 65, 53
4, 242688, Note_on_c, 0, 65, 0
4, 242688, Note_on_c, 0, 77, 0
4, 242688, Note_on_c, 0, 89, 0
4, 242688, Note_on_c, 0, 89, 0
4, 242688, Note_on_c, 0, 91, 46
4, 242688, Note_on_c, 0, 79, 38
4, 242688, Note_on_c, 0, 67, 53
4, 242784, Note_on_c, 0, 67, 0
4, 242784, Note_on_c, 0, 79, 0
4, 242784, Note_on_c, 0, 91, 0
4, 242784, Note_on_c, 0, 89, 49
4, 242784, Note_on_c, 0, 65, 55
4, 242784, Note_on_c, 0, 77, 44
4, 242880, Note_on_c, 0, 77, 0
4, 242880, Note_on_c, 0, 65, 0
4, 242880, Note_on_c, 0, 89, 0
4, 242880, Note_on_c, 0, 87, 48
4, 242880, Note_on_c, 0, 75, 43
4, 242880, Note_on_c, 0, 63, 49
4, 242976, Note_on_c, 0, 63, 0
4, 242976, Note_on_c, 0, 75, 0
4, 242976, Note_on_c, 0, 87, 0
4, 242976, Note_on_c, 0, 62, 54
4, 242976, Note_on_c, 0, 74, 46
4, 242976, Note_on_c, 0, 86, 49
4, 243072, Note_on_c, 0, 86, 0
4, 243072, Note_on_c, 0, 74, 0
4, 243072, Note_on_c, 0, 62, 0
4, 243072, Note_on_c, 0, 65, 52
4, 243072, Note_on_c, 0, 77, 44
4, 243072, Note_on_c, 0, 89, 49
4, 243168, Note_on_c, 0, 89, 0
4, 243168, Note_on_c, 0, 77, 0
4, 243168, Note_on_c, 0, 65, 0
4, 243168, Note_on_c, 0, 63, 58
4, 243168, Note_on_c, 0, 75, 46
4, 243168, Note_on_c, 0, 87, 53
4, 243264, Note_on_c, 0, 87, 0
4, 243264, Note_on_c, 0, 75, 0
4, 243264, Note_on_c, 0, 63, 0
4, 243264, Note_on_c, 0, 62, 56
4, 243264, Note_on_c, 0, 74, 43
4, 243264, Note_on_c, 0, 86, 53
4, 243360, Note_on_c, 0, 86, 0
4, 243360, Note_on_c, 0, 74, 0
4, 243360, Note_on_c, 0, 62, 0
4, 243360, Note_on_c, 0, 72, 46
4, 243360, Note_on_c, 0, 60, 51
4, 243360, Note_on_c, 0, 84, 49
4, 243456, Note_on_c, 0, 84, 0
4, 243456, Note_on_c, 0, 60, 0
4, 243456, Note_on_c, 0, 72, 0
4, 243456, Note_on_c, 0, 87, 48
4, 243456, Note_on_c, 0, 63, 61
4, 243456, Note_on_c, 0, 75, 42
4, 243552, Note_on_c, 0, 75, 0
4, 243552, Note_on_c, 0, 63, 0
4, 243552, Note_on_c, 0, 87, 0
4, 243552, Note_on_c, 0, 74, 45
4, 243552, Note_on_c, 0, 86, 53
4, 243552, Note_on_c, 0, 62, 60
4, 243648, Note_on_c, 0, 62, 0
4, 243648, Note_on_c, 0, 86, 0
4, 243648, Note_on_c, 0, 74, 0
4, 243648, Note_on_c, 0, 72, 43
4, 243648, Note_on_c, 0, 60, 46
4, 243648, Note_on_c, 0, 84, 51
4, 243744, Note_on_c, 0, 84, 0
4, 243744, Note_on_c, 0, 60, 0
4, 243744, Note_on_c, 0, 72, 0
4, 243744, Note_on_c, 0, 58, 58
4, 243744, Note_on_c, 0, 82, 49
4, 243744, Note_on_c, 0, 70, 46
4, 243840, Note_on_c, 0, 70, 0
4, 243840, Note_on_c, 0, 82, 0
4, 243840, Note_on_c, 0, 58, 0
4, 243840, Note_on_c, 0, 79, 42
4, 243840, Note_on_c, 0, 67, 57
4, 243840, Note_on_c, 0, 91, 46
4, 243936, Note_on_c, 0, 91, 0
4, 243936, Note_on_c, 0, 67, 0
4, 243936, Note_on_c, 0, 79, 0
4, 243936, Note_on_c, 0, 77, 38
4, 243936, Note_on_c, 0, 65, 56
4, 243936, Note_on_c, 0, 89, 48
4, 244032, Note_on_c, 0, 89, 0
4, 244032, Note_on_c, 0, 65, 0
4, 244032, Note_on_c, 0, 77, 0
4, 244032, Note_on_c, 0, 87, 51
4, 244032, Note_on_c, 0, 75, 46
4, 244032, Note_on_c, 0, 63, 54
4, 244128, Note_on_c, 0, 63, 0
4, 244128, Note_on_c, 0, 75, 0
4, 244128, Note_on_c, 0, 87, 0
4, 244128, Note_on_c, 0, 62, 60
4, 244128, Note_on_c, 0, 74, 44
4, 244128, Note_on_c, 0, 86, 52
4, 244224, Note_on_c, 0, 86, 0
4, 244224, Note_on_c, 0, 74, 0
4, 244224, Note_on_c, 0, 62, 0
4, 244224, Note_on_c, 0, 77, 40
4, 244224, Note_on_c, 0, 89, 49
4, 244224, Note_on_c, 0, 65, 58
4, 244320, Note_on_c, 0, 65, 0
4, 244320, Note_on_c, 0, 89, 0
4, 244320, Note_on_c, 0, 77, 0
4, 244320, Note_on_c, 0, 63, 51
4, 244320, Note_on_c, 0, 75, 44
4, 244320, Note_on_c, 0, 87, 53
4, 244416, Note_on_c, 0, 87, 0
4, 244416, Note_on_c, 0, 75, 0
4, 244416, Note_on_c, 0, 63, 0
4, 244416, Note_on_c, 0, 74, 42
4, 244416, Note_on_c, 0, 86, 55
4, 244416, Note_on_c, 0, 62, 58
4, 244512, Note_on_c, 0, 62, 0
4, 244512, Note_on_c, 0, 86, 0
4, 244512, Note_on_c, 0, 74, 0
4, 244512, Note_on_c, 0, 84, 51
4, 244512, Note_on_c, 0, 72, 40
4, 244512, Note_on_c, 0, 60, 53
4, 244608, Note_on_c, 0, 60, 0
4, 244608, Note_on_c, 0, 72, 0
4, 244608, Note_on_c, 0, 84, 0
4, 244608, Note_on_c, 0, 75, 48
4, 244608, Note_on_c, 0, 87, 54
4, 244608, Note_on_c, 0, 87, 53
4, 244608, Note_on_c, 0, 63, 56
4, 244704, Note_on_c, 0, 63, 0
4, 244704, Note_on_c, 0, 75, 0
4, 244704, Note_on_c, 0, 87, 0
4, 244704, Note_on_c, 0, 87, 0
4, 244704, Note_on_c, 0, 86, 49
4, 244704, Note_on_c, 0, 74, 46
4, 244704, Note_on_c, 0, 62, 55
4, 244800, Note_on_c, 0, 62, 0
4, 244800, Note_on_c, 0, 74, 0
4, 244800, Note_on_c, 0, 86, 0
4, 244800, Note_on_c, 0, 84, 53
4, 244800, Note_on_c, 0, 72, 44
4, 244800, Note_on_c, 0, 60, 55
4, 244896, Note_on_c, 0, 60, 0
4, 244896, Note_on_c, 0, 72, 0
4, 244896, Note_on_c, 0, 84, 0
4, 244896, Note_on_c, 0, 58, 49
4, 244896, Note_on_c, 0, 82, 49
4, 244896, Note_on_c, 0, 70, 45
4, 244992, Note_on_c, 0, 70, 0
4, 244992, Note_on_c, 0, 82, 0
4, 244992, Note_on_c, 0, 58, 0
4, 244992, Note_on_c, 0, 86, 52
4, 244992, Note_on_c, 0, 62, 56
4, 244992, Note_on_c, 0, 74, 40
4, 245088, Note_on_c, 0, 74, 0
4, 245088, Note_on_c, 0, 62, 0
4, 245088, Note_on_c, 0, 86, 0
4, 245088, Note_on_c, 0, 72, 42
4, 245088, Note_on_c, 0, 84, 49
4, 245088, Note_on_c, 0, 60, 53
4, 245184, Note_on_c, 0, 60, 0
4, 245184, Note_on_c, 0, 84, 0
4, 245184, Note_on_c, 0, 72, 0
4, 245184, Note_on_c, 0, 82, 46
4, 245184, Note_on_c, 0, 58, 49
4, 245184, Note_on_c, 0, 70, 46
4, 245280, Note_on_c, 0, 70, 0
4, 245280, Note_on_c, 0, 58, 0
4, 245280, Note_on_c, 0, 82, 0
4, 245280, Note_on_c, 0, 80, 49
4, 245280, Note_on_c, 0, 68, 42
4, 245280, Note_on_c, 0, 56, 55
4, 245376, Note_on_c, 0, 56, 0
4, 245376, Note_on_c, 0, 68, 0
4, 245376, Note_on_c, 0, 80, 0
4, 245376, Note_on_c, 0, 89, 49
4, 245376, Note_on_c, 0, 77, 42
4, 245376, Note_on_c, 0, 65, 55
4, 245472, Note_on_c, 0, 65, 0
4, 245472, Note_on_c, 0, 77, 0
4, 245472, Note_on_c, 0, 89, 0
4, 245472, Note_on_c, 0, 75, 46
4, 245472, Note_on_c, 0, 87, 53
4, 245472, Note_on_c, 0, 63, 53
4, 245568, Note_on_c, 0, 63, 0
4, 245568, Note_on_c, 0, 87, 0
4, 245568, Note_on_c, 0, 75, 0
4, 245568, Note_on_c, 0, 86, 56
4, 245568, Note_on_c, 0, 74, 46
4, 245568, Note_on_c, 0, 62, 56
4, 245664, Note_on_c, 0, 62, 0
4, 245664, Note_on_c, 0, 74, 0
4, 245664, Note_on_c, 0, 86, 0
4, 245664, Note_on_c, 0, 60, 53
4, 245664, Note_on_c, 0, 84, 52
4, 245664, Note_on_c, 0, 72, 40
4, 245760, Note_on_c, 0, 72, 0
4, 245760, Note_on_c, 0, 84, 0
4, 245760, Note_on_c, 0, 60, 0
4, 245760, Note_on_c, 0, 75, 44
4, 245760, Note_on_c, 0, 63, 51
4, 245760, Note_on_c, 0, 87, 55
4, 245856, Note_on_c, 0, 87, 0
4, 245856, Note_on_c, 0, 63, 0
4, 245856, Note_on_c, 0, 75, 0
4, 245856, Note_on_c, 0, 74, 49
4, 245856, Note_on_c, 0, 86, 56
4, 245856, Note_on_c, 0, 62, 60
4, 245952, Note_on_c, 0, 62, 0
4, 245952, Note_on_c, 0, 86, 0
4, 245952, Note_on_c, 0, 74, 0
4, 245952, Note_on_c, 0, 84, 53
4, 245952, Note_on_c, 0, 60, 56
4, 245952, Note_on_c, 0, 72, 42
4, 246048, Note_on_c, 0, 72, 0
4, 246048, Note_on_c, 0, 60, 0
4, 246048, Note_on_c, 0, 84, 0
4, 246048, Note_on_c, 0, 58, 54
4, 246048, Note_on_c, 0, 82, 49
4, 246048, Note_on_c, 0, 70, 44
4, 246144, Note_on_c, 0, 70, 0
4, 246144, Note_on_c, 0, 82, 0
4, 246144, Note_on_c, 0, 58, 0
4, 246144, Note_on_c, 0, 87, 49
4, 246144, Note_on_c, 0, 75, 44
4, 246144, Note_on_c, 0, 63, 53
4, 246240, Note_on_c, 0, 63, 0
4, 246240, Note_on_c, 0, 75, 0
4, 246240, Note_on_c, 0, 87, 0
4, 246240, Note_on_c, 0, 74, 42
4, 246240, Note_on_c, 0, 62, 58
4, 246240, Note_on_c, 0, 86, 53
4, 246336, Note_on_c, 0, 86, 0
4, 246336, Note_on_c, 0, 62, 0
4, 246336, Note_on_c, 0, 74, 0
4, 246336, Note_on_c, 0, 72, 40
4, 246336, Note_on_c, 0, 84, 52
4, 246336, Note_on_c, 0, 60, 56
4, 246432, Note_on_c, 0, 60, 0
4, 246432, Note_on_c, 0, 84, 0
4, 246432, Note_on_c, 0, 72, 0
4, 246432, Note_on_c, 0, 70, 47
4, 246432, Note_on_c, 0, 58, 51
4, 246432, Note_on_c, 0, 70, 46
4, 246432, Note_on_c, 0, 82, 53
4, 246528, Note_on_c, 0, 82, 0
4, 246528, Note_on_c, 0, 70, 0
4, 246528, Note_on_c, 0, 58, 0
4, 246528, Note_on_c, 0, 70, 0
4, 246528, Note_on_c, 0, 86, 49
4, 246528, Note_on_c, 0, 74, 46
4, 246528, Note_on_c, 0, 62, 57
4, 246624, Note_on_c, 0, 62, 0
4, 246624, Note_on_c, 0, 74, 0
4, 246624, Note_on_c, 0, 86, 0
4, 246624, Note_on_c, 0, 72, 45
4, 246624, Note_on_c, 0, 60, 56
4, 246624, Note_on_c, 0, 84, 55
4, 246720, Note_on_c, 0, 84, 0
4, 246720, Note_on_c, 0, 60, 0
4, 246720, Note_on_c, 0, 72, 0
4, 246720, Note_on_c, 0, 58, 55
4, 246720, Note_on_c, 0, 70, 47
4, 246720, Note_on_c, 0, 82, 49
4, 246816, Note_on_c, 0, 82, 0
4, 246816, Note_on_c, 0, 70, 0
4, 246816, Note_on_c, 0, 58, 0
4, 246816, Note_on_c, 0, 68, 46
4, 246816, Note_on_c, 0, 56, 55
4, 246816, Note_on_c, 0, 80, 54
4, 246912, Note_on_c, 0, 80, 0
4, 246912, Note_on_c, 0, 56, 0
4, 246912, Note_on_c, 0, 68, 0
4, 246912, Note_on_c, 0, 86, 53
4, 246912, Note_on_c, 0, 74, 47
4, 246912, Note_on_c, 0, 62, 53
4, 247008, Note_on_c, 0, 62, 0
4, 247008, Note_on_c, 0, 74, 0
4, 247008, Note_on_c, 0, 86, 0
4, 247008, Note_on_c, 0, 72, 43
4, 247008, Note_on_c, 0, 84, 54
4, 247008, Note_on_c, 0, 60, 54
4, 247104, Note_on_c, 0, 60, 0
4, 247104, Note_on_c, 0, 84, 0
4, 247104, Note_on_c, 0, 72, 0
4, 247104, Note_on_c, 0, 82, 53
4, 247104, Note_on_c, 0, 58, 53
4, 247104, Note_on_c, 0, 70, 47
4, 247200, Note_on_c, 0, 70, 0
4, 247200, Note_on_c, 0, 58, 0
4, 247200, Note_on_c, 0, 82, 0
4, 247200, Note_on_c, 0, 68, 49
4, 247200, Note_on_c, 0, 56, 53
4, 247200, Note_on_c, 0, 80, 54
4, 247296, Note_on_c, 0, 80, 0
4, 247296, Note_on_c, 0, 56, 0
4, 247296, Note_on_c, 0, 68, 0
4, 247296, Note_on_c, 0, 84, 54
4, 247296, Note_on_c, 0, 72, 45
4, 247296, Note_on_c, 0, 60, 52
4, 247392, Note_on_c, 0, 60, 0
4, 247392, Note_on_c, 0, 72, 0
4, 247392, Note_on_c, 0, 84, 0
4, 247392, Note_on_c, 0, 58, 53
4, 247392, Note_on_c, 0, 70, 49
4, 247392, Note_on_c, 0, 82, 49
4, 247488, Note_on_c, 0, 82, 0
4, 247488, Note_on_c, 0, 70, 0
4, 247488, Note_on_c, 0, 58, 0
4, 247488, Note_on_c, 0, 68, 51
4, 247488, Note_on_c, 0, 56, 55
4, 247488, Note_on_c, 0, 80, 55
4, 247584, Note_on_c, 0, 80, 0
4, 247584, Note_on_c, 0, 56, 0
4, 247584, Note_on_c, 0, 68, 0
4, 247584, Note_on_c, 0, 55, 58
4, 247584, Note_on_c, 0, 67, 46
4, 247584, Note_on_c, 0, 79, 55
4, 247680, Note_on_c, 0, 79, 0
4, 247680, Note_on_c, 0, 67, 0
4, 247680, Note_on_c, 0, 55, 0
4, 247680, Note_on_c, 0, 72, 48
4, 247680, Note_on_c, 0, 60, 55
4, 247680, Note_on_c, 0, 84, 49
4, 247776, Note_on_c, 0, 84, 0
4, 247776, Note_on_c, 0, 60, 0
4, 247776, Note_on_c, 0, 72, 0
4, 247776, Note_on_c, 0, 70, 51
4, 247776, Note_on_c, 0, 58, 58
4, 247776, Note_on_c, 0, 82, 53
4, 247776, Note_on_c, 0, 70, 47
4, 247776, Note_on_c, 0, 82, 49
4, 247872, Note_on_c, 0, 82, 0
4, 247872, Note_on_c, 0, 82, 0
4, 247872, Note_on_c, 0, 70, 0
4, 247872, Note_on_c, 0, 58, 0
4, 247872, Note_on_c, 0, 70, 0
4, 247872, Note_on_c, 0, 80, 54
4, 247872, Note_on_c, 0, 56, 55
4, 247872, Note_on_c, 0, 68, 47
4, 247968, Note_on_c, 0, 68, 0
4, 247968, Note_on_c, 0, 56, 0
4, 247968, Note_on_c, 0, 80, 0
4, 247968, Note_on_c, 0, 79, 55
4, 247968, Note_on_c, 0, 55, 55
4, 247968, Note_on_c, 0, 67, 44
4, 248064, Note_on_c, 0, 67, 0
4, 248064, Note_on_c, 0, 55, 0
4, 248064, Note_on_c, 0, 79, 0
4, 248064, Note_on_c, 0, 58, 58
4, 248064, Note_on_c, 0, 82, 48
4, 248064, Note_on_c, 0, 70, 47
4, 248160, Note_on_c, 0, 70, 0
4, 248160, Note_on_c, 0, 82, 0
4, 248160, Note_on_c, 0, 58, 0
4, 248160, Note_on_c, 0, 80, 55
4, 248160, Note_on_c, 0, 56, 56
4, 248160, Note_on_c, 0, 80, 54
4, 248160, Note_on_c, 0, 68, 51
4, 248256, Note_on_c, 0, 68, 0
4, 248256, Note_on_c, 0, 80, 0
4, 248256, Note_on_c, 0, 56, 0
4, 248256, Note_on_c, 0, 80, 0
4, 248256, Note_on_c, 0, 67, 40
4, 248256, Note_on_c, 0, 55, 60
4, 248256, Note_on_c, 0, 79, 49
4, 248352, Note_on_c, 0, 79, 0
4, 248352, Note_on_c, 0, 55, 0
4, 248352, Note_on_c, 0, 67, 0
4, 248352, Note_on_c, 0, 65, 42
4, 248352, Note_on_c, 0, 53, 58
4, 248352, Note_on_c, 0, 77, 49
4, 248448, Note_on_c, 0, 77, 0
4, 248448, Note_on_c, 0, 53, 0
4, 248448, Note_on_c, 0, 65, 0
4, 248448, Note_on_c, 0, 82, 49
4, 248448, Note_on_c, 0, 58, 57
4, 248448, Note_on_c, 0, 70, 53
4, 248544, Note_on_c, 0, 70, 0
4, 248544, Note_on_c, 0, 58, 0
4, 248544, Note_on_c, 0, 82, 0
4, 248544, Note_on_c, 0, 80, 53
4, 248544, Note_on_c, 0, 56, 56
4, 248544, Note_on_c, 0, 68, 46
4, 248640, Note_on_c, 0, 68, 0
4, 248640, Note_on_c, 0, 56, 0
4, 248640, Note_on_c, 0, 80, 0
4, 248640, Note_on_c, 0, 67, 45
4, 248640, Note_on_c, 0, 55, 60
4, 248640, Note_on_c, 0, 79, 54
4, 248736, Note_on_c, 0, 79, 0
4, 248736, Note_on_c, 0, 55, 0
4, 248736, Note_on_c, 0, 67, 0
4, 248736, Note_on_c, 0, 53, 55
4, 248736, Note_on_c, 0, 65, 43
4, 248736, Note_on_c, 0, 77, 55
4, 248736, Note_on_c, 0, 65, 39
4, 248832, Note_on_c, 0, 65, 0
4, 248832, Note_on_c, 0, 53, 0
4, 248832, Note_on_c, 0, 65, 0
4, 248832, Note_on_c, 0, 77, 0
4, 248832, Note_on_c, 0, 56, 53
4, 248832, Note_on_c, 0, 68, 46
4, 248832, Note_on_c, 0, 80, 53
4, 248928, Note_on_c, 0, 80, 0
4, 248928, Note_on_c, 0, 68, 0
4, 248928, Note_on_c, 0, 56, 0
4, 248928, Note_on_c, 0, 67, 48
4, 248928, Note_on_c, 0, 55, 54
4, 248928, Note_on_c, 0, 79, 56
4, 249024, Note_on_c, 0, 79, 0
4, 249024, Note_on_c, 0, 55, 0
4, 249024, Note_on_c, 0, 67, 0
4, 249024, Note_on_c, 0, 77, 55
4, 249024, Note_on_c, 0, 53, 56
4, 249024, Note_on_c, 0, 65, 46
4, 249120, Note_on_c, 0, 65, 0
4, 249120, Note_on_c, 0, 53, 0
4, 249120, Note_on_c, 0, 77, 0
4, 249120, Note_on_c, 0, 63, 48
4, 249120, Note_on_c, 0, 75, 57
4, 249120, Note_on_c, 0, 51, 57
4, 249216, Note_on_c, 0, 51, 0
4, 249216, Note_on_c, 0, 75, 0
4, 249216, Note_on_c, 0, 63, 0
4, 249216, Note_on_c, 0, 80, 51
4, 249216, Note_on_c, 0, 56, 57
4, 249216, Note_on_c, 0, 68, 55
4, 249312, Note_on_c, 0, 68, 0
4, 249312, Note_on_c, 0, 56, 0
4, 249312, Note_on_c, 0, 80, 0
4, 249312, Note_on_c, 0, 55, 55
4, 249312, Note_on_c, 0, 79, 55
4, 249312, Note_on_c, 0, 67, 46
4, 249408, Note_on_c, 0, 67, 0
4, 249408, Note_on_c, 0, 79, 0
4, 249408, Note_on_c, 0, 55, 0
4, 249408, Note_on_c, 0, 53, 52
4, 249408, Note_on_c, 0, 77, 54
4, 249408, Note_on_c, 0, 65, 42
4, 249504, Note_on_c, 0, 65, 0
4, 249504, Note_on_c, 0, 77, 0
4, 249504, Note_on_c, 0, 53, 0
4, 249504, Note_on_c, 0, 51, 56
4, 249504, Note_on_c, 0, 75, 54
4, 249504, Note_on_c, 0, 63, 46
4, 249600, Note_on_c, 0, 63, 0
4, 249600, Note_on_c, 0, 75, 0
4, 249600, Note_on_c, 0, 51, 0
4, 249600, Note_on_c, 0, 55, 56
4, 249600, Note_on_c, 0, 79, 52
4, 249600, Note_on_c, 0, 67, 46
4, 249696, Note_on_c, 0, 67, 0
4, 249696, Note_on_c, 0, 79, 0
4, 249696, Note_on_c, 0, 55, 0
4, 249696, Note_on_c, 0, 65, 46
4, 249696, Note_on_c, 0, 53, 55
4, 249696, Note_on_c, 0, 77, 53
4, 249792, Note_on_c, 0, 77, 0
4, 249792, Note_on_c, 0, 53, 0
4, 249792, Note_on_c, 0, 65, 0
4, 249792, Note_on_c, 0, 63, 46
4, 249792, Note_on_c, 0, 51, 63
4, 249792, Note_on_c, 0, 75, 55
4, 249888, Note_on_c, 0, 75, 0
4, 249888, Note_on_c, 0, 51, 0
4, 249888, Note_on_c, 0, 63, 0
4, 249888, Note_on_c, 0, 50, 63
4, 249888, Note_on_c, 0, 62, 46
4, 249888, Note_on_c, 0, 74, 54
4, 249984, Note_on_c, 0, 74, 0
4, 249984, Note_on_c, 0, 62, 0
4, 249984, Note_on_c, 0, 50, 0
4, 249984, Note_on_c, 0, 55, 60
4, 249984, Note_on_c, 0, 79, 49
4, 249984, Note_on_c, 0, 67, 48
4, 250080, Note_on_c, 0, 67, 0
4, 250080, Note_on_c, 0, 79, 0
4, 250080, Note_on_c, 0, 55, 0
4, 250080, Note_on_c, 0, 53, 51
4, 250080, Note_on_c, 0, 65, 48
4, 250080, Note_on_c, 0, 77, 56
4, 250176, Note_on_c, 0, 77, 0
4, 250176, Note_on_c, 0, 65, 0
4, 250176, Note_on_c, 0, 53, 0
4, 250176, Note_on_c, 0, 75, 56
4, 250176, Note_on_c, 0, 63, 49
4, 250176, Note_on_c, 0, 51, 55
4, 250272, Note_on_c, 0, 51, 0
4, 250272, Note_on_c, 0, 63, 0
4, 250272, Note_on_c, 0, 75, 0
4, 250272, Note_on_c, 0, 74, 56
4, 250272, Note_on_c, 0, 50, 62
4, 250272, Note_on_c, 0, 62, 46
4, 250368, Note_on_c, 0, 62, 0
4, 250368, Note_on_c, 0, 50, 0
4, 250368, Note_on_c, 0, 74, 0
4, 250368, Note_on_c, 0, 77, 56
4, 250368, Note_on_c, 0, 53, 57
4, 250368, Note_on_c, 0, 65, 49
4, 250464, Note_on_c, 0, 65, 0
4, 250464, Note_on_c, 0, 53, 0
4, 250464, Note_on_c, 0, 77, 0
4, 250464, Note_on_c, 0, 63, 45
4, 250464, Note_on_c, 0, 51, 56
4, 250464, Note_on_c, 0, 75, 53
4, 250560, Note_on_c, 0, 75, 0
4, 250560, Note_on_c, 0, 51, 0
4, 250560, Note_on_c, 0, 63, 0
4, 250560, Note_on_c, 0, 50, 56
4, 250560, Note_on_c, 0, 74, 56
4, 250560, Note_on_c, 0, 62, 49
4, 250656, Note_on_c, 0, 62, 0
4, 250656, Note_on_c, 0, 74, 0
4, 250656, Note_on_c, 0, 50, 0
4, 250656, Note_on_c, 0, 48, 55
4, 250656, Note_on_c, 0, 72, 52
4, 250656, Note_on_c, 0, 60, 44
4, 250752, Note_on_c, 0, 60, 0
4, 250752, Note_on_c, 0, 72, 0
4, 250752, Note_on_c, 0, 48, 0
4, 250752, Note_on_c, 0, 53, 60
4, 250752, Note_on_c, 0, 65, 46
4, 250752, Note_on_c, 0, 77, 53
4, 250848, Note_on_c, 0, 77, 0
4, 250848, Note_on_c, 0, 65, 0
4, 250848, Note_on_c, 0, 53, 0
4, 250848, Note_on_c, 0, 63, 49
4, 250848, Note_on_c, 0, 75, 53
4, 250848, Note_on_c, 0, 51, 60
4, 250944, Note_on_c, 0, 51, 0
4, 250944, Note_on_c, 0, 75, 0
4, 250944, Note_on_c, 0, 63, 0
4, 250944, Note_on_c, 0, 74, 55
4, 250944, Note_on_c, 0, 50, 58
4, 250944, Note_on_c, 0, 62, 42
4, 251040, Note_on_c, 0, 62, 0
4, 251040, Note_on_c, 0, 50, 0
4, 251040, Note_on_c, 0, 74, 0
4, 251040, Note_on_c, 0, 48, 55
4, 251040, Note_on_c, 0, 60, 45
4, 251040, Note_on_c, 0, 72, 53
4, 251136, Note_on_c, 0, 72, 0
4, 251136, Note_on_c, 0, 60, 0
4, 251136, Note_on_c, 0, 48, 0
4, 251136, Note_on_c, 0, 51, 89
4, 251136, Note_on_c, 0, 75, 55
4, 251136, Note_on_c, 0, 63, 43
4, 251218, Note_on_c, 0, 51, 0
4, 251232, Note_on_c, 0, 63, 0
4, 251232, Note_on_c, 0, 75, 0
4, 251232, Note_on_c, 0, 74, 56
4, 251232, Note_on_c, 0, 62, 49
4, 251232, Note_on_c, 0, 50, 89
4, 251314, Note_on_c, 0, 50, 0
4, 251328, Note_on_c, 0, 62, 0
4, 251328, Note_on_c, 0, 74, 0
4, 251328, Note_on_c, 0, 48, 89
4, 251328, Note_on_c, 0, 60, 44
4, 251328, Note_on_c, 0, 72, 55
4, 251410, Note_on_c, 0, 48, 0
4, 251424, Note_on_c, 0, 72, 0
4, 251424, Note_on_c, 0, 60, 0
4, 251424, Note_on_c, 0, 70, 49
4, 251424, Note_on_c, 0, 58, 45
4, 251424, Note_on_c, 0, 46, 89
4, 251506, Note_on_c, 0, 46, 0
4, 251520, Note_on_c, 0, 58, 0
4, 251520, Note_on_c, 0, 70, 0
4, 251520, Note_on_c, 0, 75, 51
4, 251520, Note_on_c, 0, 51, 89
4, 251520, Note_on_c, 0, 63, 49
4, 251602, Note_on_c, 0, 51, 0
4, 251616, Note_on_c, 0, 63, 0
4, 251616, Note_on_c, 0, 75, 0
4, 251616, Note_on_c, 0, 74, 56
4, 251616, Note_on_c, 0, 50, 89
4, 251616, Note_on_c, 0, 62, 49
4, 251698, Note_on_c, 0, 50, 0
4, 251712, Note_on_c, 0, 62, 0
4, 251712, Note_on_c, 0, 74, 0
4, 251712, Note_on_c, 0, 72, 51
4, 251712, Note_on_c, 0, 48, 89
4, 251712, Note_on_c, 0, 60, 44
4, 251794, Note_on_c, 0, 48, 0
4, 251808, Note_on_c, 0, 60, 0
4, 251808, Note_on_c, 0, 72, 0
4, 251808, Note_on_c, 0, 58, 43
4, 251808, Note_on_c, 0, 46, 89
4, 251808, Note_on_c, 0, 70, 51
4, 251890, Note_on_c, 0, 46, 0
4, 251904, Note_on_c, 0, 70, 0
4, 251904, Note_on_c, 0, 58, 0
4, 251904, Note_on_c, 0, 75, 53
4, 251904, Note_on_c, 0, 51, 89
4, 251904, Note_on_c, 0, 63, 46
4, 251986, Note_on_c, 0, 51, 0
4, 252000, Note_on_c, 0, 63, 0
4, 252000, Note_on_c, 0, 75, 0
4, 252000, Note_on_c, 0, 74, 57
4, 252000, Note_on_c, 0, 50, 89
4, 252000, Note_on_c, 0, 74, 56
4, 252000, Note_on_c, 0, 62, 47
4, 252082, Note_on_c, 0, 50, 0
4, 252096, Note_on_c, 0, 74, 0
4, 252096, Note_on_c, 0, 74, 0
4, 252096, Note_on_c, 0, 62, 0
4, 252096, Note_on_c, 0, 72, 49
4, 252096, Note_on_c, 0, 60, 45
4, 252096, Note_on_c, 0, 48, 89
4, 252178, Note_on_c, 0, 48, 0
4, 252192, Note_on_c, 0, 60, 0
4, 252192, Note_on_c, 0, 72, 0
4, 252192, Note_on_c, 0, 58, 46
4, 252192, Note_on_c, 0, 46, 89
4, 252192, Note_on_c, 0, 70, 54
4, 252274, Note_on_c, 0, 46, 0
4, 252288, Note_on_c, 0, 70, 0
4, 252288, Note_on_c, 0, 58, 0
4, 252288, Note_on_c, 0, 74, 58
4, 252288, Note_on_c, 0, 50, 89
4, 252288, Note_on_c, 0, 62, 89
4, 252370, Note_on_c, 0, 62, 0
4, 252370, Note_on_c, 0, 50, 0
4, 252384, Note_on_c, 0, 74, 0
4, 252384, Note_on_c, 0, 60, 89
4, 252384, Note_on_c, 0, 48, 89
4, 252384, Note_on_c, 0, 72, 60
4, 252466, Note_on_c, 0, 48, 0
4, 252466, Note_on_c, 0, 60, 0
4, 252480, Note_on_c, 0, 72, 0
4, 252480, Note_on_c, 0, 46, 89
4, 252480, Note_on_c, 0, 58, 89
4, 252480, Note_on_c, 0, 70, 53
4, 252562, Note_on_c, 0, 58, 0
4, 252562, Note_on_c, 0, 46, 0
4, 252576, Note_on_c, 0, 70, 0
4, 252576, Note_on_c, 0, 56, 89
4, 252576, Note_on_c, 0, 68, 56
4, 252576, Note_on_c, 0, 44, 89
4, 252658, Note_on_c, 0, 44, 0
4, 252658, Note_on_c, 0, 56, 0
4, 252672, Note_on_c, 0, 68, 0
4, 252672, Note_on_c, 0, 74, 62
4, 252672, Note_on_c, 0, 62, 89
4, 252672, Note_on_c, 0, 50, 89
4, 252754, Note_on_c, 0, 50, 0
4, 252754, Note_on_c, 0, 62, 0
4, 252768, Note_on_c, 0, 74, 0
4, 252768, Note_on_c, 0, 72, 56
4, 252768, Note_on_c, 0, 60, 89
4, 252768, Note_on_c, 0, 48, 89
4, 252850, Note_on_c, 0, 48, 0
4, 252850, Note_on_c, 0, 60, 0
4, 252864, Note_on_c, 0, 72, 0
4, 252864, Note_on_c, 0, 46, 89
4, 252864, Note_on_c, 0, 70, 53
4, 252864, Note_on_c, 0, 58, 89
4, 252946, Note_on_c, 0, 58, 0
4, 252946, Note_on_c, 0, 46, 0
4, 252960, Note_on_c, 0, 70, 0
4, 252960, Note_on_c, 0, 56, 89
4, 252960, Note_on_c, 0, 44, 89
4, 252960, Note_on_c, 0, 68, 56
4, 253042, Note_on_c, 0, 44, 0
4, 253042, Note_on_c, 0, 56, 0
4, 253056, Note_on_c, 0, 68, 0
4, 253056, Note_on_c, 0, 74, 60
4, 253056, Note_on_c, 0, 50, 89
4, 253056, Note_on_c, 0, 62, 89
4, 253138, Note_on_c, 0, 62, 0
4, 253138, Note_on_c, 0, 50, 0
4, 253152, Note_on_c, 0, 74, 0
4, 253152, Note_on_c, 0, 48, 89
4, 253152, Note_on_c, 0, 60, 89
4, 253152, Note_on_c, 0, 72, 60
4, 253234, Note_on_c, 0, 60, 0
4, 253234, Note_on_c, 0, 48, 0
4, 253248, Note_on_c, 0, 72, 0
4, 253248, Note_on_c, 0, 58, 89
4, 253248, Note_on_c, 0, 46, 89
4, 253248, Note_on_c, 0, 70, 56
4, 253330, Note_on_c, 0, 46, 0
4, 253330, Note_on_c, 0, 58, 0
4, 253344, Note_on_c, 0, 70, 0
4, 253344, Note_on_c, 0, 56, 89
4, 253344, Note_on_c, 0, 68, 58
4, 253344, Note_on_c, 0, 44, 89
4, 253426, Note_on_c, 0, 44, 0
4, 253426, Note_on_c, 0, 56, 0
4, 253440, Note_on_c, 0, 68, 0
4, 253440, Note_on_c, 0, 72, 55
4, 253440, Note_on_c, 0, 48, 89
4, 253440, Note_on_c, 0, 60, 89
4, 253522, Note_on_c, 0, 60, 0
4, 253522, Note_on_c, 0, 48, 0
4, 253536, Note_on_c, 0, 72, 0
4, 253536, Note_on_c, 0, 46, 89
4, 253536, Note_on_c, 0, 58, 89
4, 253536, Note_on_c, 0, 70, 53
4, 253618, Note_on_c, 0, 58, 0
4, 253618, Note_on_c, 0, 46, 0
4, 253632, Note_on_c, 0, 70, 0
4, 253632, Note_on_c, 0, 44, 89
4, 253632, Note_on_c, 0, 56, 89
4, 253632, Note_on_c, 0, 68, 57
4, 253714, Note_on_c, 0, 56, 0
4, 253714, Note_on_c, 0, 44, 0
4, 253728, Note_on_c, 0, 68, 0
4, 253728, Note_on_c, 0, 43, 89
4, 253728, Note_on_c, 0, 55, 89
4, 253728, Note_on_c, 0, 67, 54
4, 253810, Note_on_c, 0, 55, 0
4, 253810, Note_on_c, 0, 43, 0
4, 253824, Note_on_c, 0, 67, 0
4, 253824, Note_on_c, 0, 60, 89
4, 253824, Note_on_c, 0, 72, 60
4, 253824, Note_on_c, 0, 48, 89
4, 253906, Note_on_c, 0, 48, 0
4, 253906, Note_on_c, 0, 60, 0
4, 253920, Note_on_c, 0, 72, 0
4, 253920, Note_on_c, 0, 58, 89
4, 253920, Note_on_c, 0, 70, 49
4, 253920, Note_on_c, 0, 46, 89
4, 254002, Note_on_c, 0, 46, 0
4, 254002, Note_on_c, 0, 58, 0
4, 254016, Note_on_c, 0, 70, 0
4, 254016, Note_on_c, 0, 44, 89
4, 254016, Note_on_c, 0, 68, 58
4, 254016, Note_on_c, 0, 56, 89
4, 254098, Note_on_c, 0, 56, 0
4, 254098, Note_on_c, 0, 44, 0
4, 254112, Note_on_c, 0, 68, 0
4, 254112, Note_on_c, 0, 43, 89
4, 254112, Note_on_c, 0, 67, 58
4, 254112, Note_on_c, 0, 55, 89
4, 254194, Note_on_c, 0, 55, 0
4, 254194, Note_on_c, 0, 43, 0
4, 254208, Note_on_c, 0, 67, 0
4, 254208, Note_on_c, 0, 60, 89
4, 254208, Note_on_c, 0, 48, 89
4, 254208, Note_on_c, 0, 72, 60
4, 254290, Note_on_c, 0, 48, 0
4, 254290, Note_on_c, 0, 60, 0
4, 254304, Note_on_c, 0, 72, 0
4, 254304, Note_on_c, 0, 58, 89
4, 254304, Note_on_c, 0, 46, 89
4, 254304, Note_on_c, 0, 70, 55
4, 254386, Note_on_c, 0, 46, 0
4, 254386, Note_on_c, 0, 58, 0
4, 254400, Note_on_c, 0, 70, 0
4, 254400, Note_on_c, 0, 56, 89
4, 254400, Note_on_c, 0, 44, 89
4, 254400, Note_on_c, 0, 68, 58
4, 254482, Note_on_c, 0, 44, 0
4, 254482, Note_on_c, 0, 56, 0
4, 254496, Note_on_c, 0, 68, 0
4, 254496, Note_on_c, 0, 43, 89
4, 254496, Note_on_c, 0, 55, 89
4, 254496, Note_on_c, 0, 67, 62
4, 254578, Note_on_c, 0, 55, 0
4, 254578, Note_on_c, 0, 43, 0
4, 254592, Note_on_c, 0, 67, 0
4, 254592, Note_on_c, 0, 46, 89
4, 254592, Note_on_c, 0, 70, 89
4, 254592, Note_on_c, 0, 58, 89
4, 254632, Note_on_c, 0, 70, 0
4, 254674, Note_on_c, 0, 58, 0
4, 254674, Note_on_c, 0, 46, 0
4, 254688, Note_on_c, 0, 44, 89
4, 254688, Note_on_c, 0, 56, 89
4, 254688, Note_on_c, 0, 68, 89
4, 254728, Note_on_c, 0, 68, 0
4, 254770, Note_on_c, 0, 56, 0
4, 254770, Note_on_c, 0, 44, 0
4, 254784, Note_on_c, 0, 55, 89
4, 254784, Note_on_c, 0, 43, 89
4, 254784, Note_on_c, 0, 67, 89
4, 254824, Note_on_c, 0, 67, 0
4, 254866, Note_on_c, 0, 43, 0
4, 254866, Note_on_c, 0, 55, 0
4, 254880, Note_on_c, 0, 41, 89
4, 254880, Note_on_c, 0, 53, 89
4, 254880, Note_on_c, 0, 65, 89
4, 254920, Note_on_c, 0, 65, 0
4, 254962, Note_on_c, 0, 53, 0
4, 254962, Note_on_c, 0, 41, 0
4, 254976, Note_on_c, 0, 46, 89
4, 254976, Note_on_c, 0, 58, 89
4, 254976, Note_on_c, 0, 70, 89
4, 255016, Note_on_c, 0, 70, 0
4, 255058, Note_on_c, 0, 58, 0
4, 255058, Note_on_c, 0, 46, 0
4, 255072, Note_on_c, 0, 56, 89
4, 255072, Note_on_c, 0, 44, 89
4, 255072, Note_on_c, 0, 68, 89
4, 255112, Note_on_c, 0, 68, 0
4, 255154, Note_on_c, 0, 44, 0
4, 255154, Note_on_c, 0, 56, 0
4, 255168, Note_on_c, 0, 55, 89
4, 255168, Note_on_c, 0, 43, 89
4, 255168, Note_on_c, 0, 67, 89
4, 255208, Note_on_c, 0, 67, 0
4, 255250, Note_on_c, 0, 43, 0
4, 255250, Note_on_c, 0, 55, 0
4, 255264, Note_on_c, 0, 41, 89
4, 255264, Note_on_c, 0, 53, 89
4, 255264, Note_on_c, 0, 65, 89
4, 255304, Note_on_c, 0, 65, 0
4, 255346, Note_on_c, 0, 53, 0
4, 255346, Note_on_c, 0, 41, 0
4, 255360, Note_on_c, 0, 58, 89
4, 255360, Note_on_c, 0, 46, 89
4, 255360, Note_on_c, 0, 70, 89
4, 255400, Note_on_c, 0, 70, 0
4, 255442, Note_on_c, 0, 46, 0
4, 255442, Note_on_c, 0, 58, 0
4, 255456, Note_on_c, 0, 56, 89
4, 255456, Note_on_c, 0, 68, 89
4, 255456, Note_on_c, 0, 44, 89
4, 255496, Note_on_c, 0, 68, 0
4, 255538, Note_on_c, 0, 44, 0
4, 255538, Note_on_c, 0, 56, 0
4, 255552, Note_on_c, 0, 55, 89
4, 255552, Note_on_c, 0, 67, 89
4, 255552, Note_on_c, 0, 43, 89
4, 255592, Note_on_c, 0, 67, 0
4, 255634, Note_on_c, 0, 43, 0
4, 255634, Note_on_c, 0, 55, 0
4, 255648, Note_on_c, 0, 41, 89
4, 255648, Note_on_c, 0, 65, 89
4, 255648, Note_on_c, 0, 53, 89
4, 255688, Note_on_c, 0, 65, 0
4, 255730, Note_on_c, 0, 53, 0
4, 255730, Note_on_c, 0, 41, 0
4, 255744, Note_on_c, 0, 44, 89
4, 255744, Note_on_c, 0, 68, 57
4, 255744, Note_on_c, 0, 56, 89
4, 255821, Note_on_c, 0, 56, 0
4, 255821, Note_on_c, 0, 68, 0
4, 255821, Note_on_c, 0, 44, 0
4, 255840, Note_on_c, 0, 43, 89
4, 255840, Note_on_c, 0, 55, 89
4, 255840, Note_on_c, 0, 67, 63
4, 255917, Note_on_c, 0, 67, 0
4, 255917, Note_on_c, 0, 55, 0
4, 255917, Note_on_c, 0, 43, 0
4, 255936, Note_on_c, 0, 41, 89
4, 255936, Note_on_c, 0, 53, 89
4, 255936, Note_on_c, 0, 65, 89
4, 256013, Note_on_c, 0, 65, 0
4, 256013, Note_on_c, 0, 53, 0
4, 256013, Note_on_c, 0, 41, 0
4, 256032, Note_on_c, 0, 39, 89
4, 256032, Note_on_c, 0, 51, 89
4, 256032, Note_on_c, 0, 63, 89
4, 256109, Note_on_c, 0, 63, 0
4, 256109, Note_on_c, 0, 51, 0
4, 256109, Note_on_c, 0, 39, 0
4, 256128, Note_on_c, 0, 56, 89
4, 256128, Note_on_c, 0, 44, 89
4, 256128, Note_on_c, 0, 68, 89
4, 256205, Note_on_c, 0, 68, 0
4, 256205, Note_on_c, 0, 44, 0
4, 256205, Note_on_c, 0, 56, 0
4, 256224, Note_on_c, 0, 43, 89
4, 256224, Note_on_c, 0, 67, 89
4, 256224, Note_on_c, 0, 55, 89
4, 256301, Note_on_c, 0, 55, 0
4, 256301, Note_on_c, 0, 67, 0
4, 256301, Note_on_c, 0, 43, 0
4, 256320, Note_on_c, 0, 41, 89
4, 256320, Note_on_c, 0, 53, 89
4, 256320, Note_on_c, 0, 65, 89
4, 256397, Note_on_c, 0, 65, 0
4, 256397, Note_on_c, 0, 53, 0
4, 256397, Note_on_c, 0, 41, 0
4, 256416, Note_on_c, 0, 39, 89
4, 256416, Note_on_c, 0, 51, 89
4, 256416, Note_on_c, 0, 63, 89
4, 256493, Note_on_c, 0, 63, 0
4, 256493, Note_on_c, 0, 51, 0
4, 256493, Note_on_c, 0, 39, 0
4, 256512, Note_on_c, 0, 44, 89
4, 256512, Note_on_c, 0, 56, 89
4, 256512, Note_on_c, 0, 68, 89
4, 256589, Note_on_c, 0, 68, 0
4, 256589, Note_on_c, 0, 56, 0
4, 256589, Note_on_c, 0, 44, 0
4, 256608, Note_on_c, 0, 55, 89
4, 256608, Note_on_c, 0, 43, 89
4, 256608, Note_on_c, 0, 67, 89
4, 256685, Note_on_c, 0, 67, 0
4, 256685, Note_on_c, 0, 43, 0
4, 256685, Note_on_c, 0, 55, 0
4, 256704, Note_on_c, 0, 41, 89
4, 256704, Note_on_c, 0, 53, 89
4, 256704, Note_on_c, 0, 65, 89
4, 256781, Note_on_c, 0, 65, 0
4, 256781, Note_on_c, 0, 53, 0
4, 256781, Note_on_c, 0, 41, 0
4, 256800, Note_on_c, 0, 51, 89
4, 256800, Note_on_c, 0, 39, 89
4, 256800, Note_on_c, 0, 63, 89
4, 256877, Note_on_c, 0, 63, 0
4, 256877, Note_on_c, 0, 39, 0
4, 256877, Note_on_c, 0, 51, 0
4, 256896, Note_on_c, 0, 43, 91
4, 256896, Note_on_c, 0, 55, 89
4, 256896, Note_on_c, 0, 55, 89
4, 256896, Note_on_c, 0, 67, 89
4, 256950, Note_on_c, 0, 67, 0
4, 256950, Note_on_c, 0, 43, 0
4, 256950, Note_on_c, 0, 55, 0
4, 256950, Note_on_c, 0, 55, 0
4, 256992, Note_on_c, 0, 41, 91
4, 256992, Note_on_c, 0, 53, 89
4, 256992, Note_on_c, 0, 53, 89
4, 256992, Note_on_c, 0, 65, 89
4, 257046, Note_on_c, 0, 65, 0
4, 257046, Note_on_c, 0, 41, 0
4, 257046, Note_on_c, 0, 53, 0
4, 257046, Note_on_c, 0, 53, 0
4, 257088, Note_on_c, 0, 39, 91
4, 257088, Note_on_c, 0, 51, 89
4, 257088, Note_on_c, 0, 63, 89
4, 257088, Note_on_c, 0, 51, 89
4, 257142, Note_on_c, 0, 51, 0
4, 257142, Note_on_c, 0, 39, 0
4, 257142, Note_on_c, 0, 51, 0
4, 257142, Note_on_c, 0, 63, 0
4, 257184, Note_on_c, 0, 38, 91
4, 257184, Note_on_c, 0, 50, 89
4, 257184, Note_on_c, 0, 62, 89
4, 257184, Note_on_c, 0, 50, 89
4, 257238, Note_on_c, 0, 50, 0
4, 257238, Note_on_c, 0, 38, 0
4, 257238, Note_on_c, 0, 50, 0
4, 257238, Note_on_c, 0, 62, 0
4, 257280, Note_on_c, 0, 43, 91
4, 257280, Note_on_c, 0, 55, 89
4, 257280, Note_on_c, 0, 67, 89
4, 257280, Note_on_c, 0, 55, 89
4, 257334, Note_on_c, 0, 55, 0
4, 257334, Note_on_c, 0, 43, 0
4, 257334, Note_on_c, 0, 55, 0
4, 257334, Note_on_c, 0, 67, 0
4, 257376, Note_on_c, 0, 41, 91
4, 257376, Note_on_c, 0, 53, 89
4, 257376, Note_on_c, 0, 65, 89
4, 257376, Note_on_c, 0, 53, 89
4, 257430, Note_on_c, 0, 53, 0
4, 257430, Note_on_c, 0, 41, 0
4, 257430, Note_on_c, 0, 53, 0
4, 257430, Note_on_c, 0, 65, 0
4, 257472, Note_on_c, 0, 39, 91
4, 257472, Note_on_c, 0, 51, 86
4, 257472, Note_on_c, 0, 63, 89
4, 257526, Note_on_c, 0, 63, 0
4, 257526, Note_on_c, 0, 51, 0
4, 257526, Note_on_c, 0, 39, 0
4, 257568, Note_on_c, 0, 38, 91
4, 257568, Note_on_c, 0, 62, 89
4, 257568, Note_on_c, 0, 50, 86
4, 257622, Note_on_c, 0, 50, 0
4, 257622, Note_on_c, 0, 62, 0
4, 257622, Note_on_c, 0, 38, 0
4, 257664, Note_on_c, 0, 43, 91
4, 257664, Note_on_c, 0, 67, 89
4, 257664, Note_on_c, 0, 55, 86
4, 257718, Note_on_c, 0, 55, 0
4, 257718, Note_on_c, 0, 67, 0
4, 257718, Note_on_c, 0, 43, 0
4, 257760, Note_on_c, 0, 41, 91
4, 257760, Note_on_c, 0, 65, 89
4, 257760, Note_on_c, 0, 53, 86
4, 257814, Note_on_c, 0, 53, 0
4, 257814, Note_on_c, 0, 65, 0
4, 257814, Note_on_c, 0, 41, 0
4, 259248, Note_on_c, 0, 48, 49
4, 259248, Note_on_c, 0, 48, 49
4, 259248, Note_on_c, 0, 48, 49
4, 259248, Note_on_c, 0, 60, 46
4, 259248, Note_on_c, 0, 75, 89
4, 259248, Note_on_c, 0, 80, 89
4, 259288, Note_on_c, 0, 80, 0
4, 259288, Note_on_c, 0, 75, 0
4, 259296, Note_on_c, 0, 48, 0
4, 259296, Note_on_c, 0, 48, 0
4, 259296, Note_on_c, 0, 48, 0
4, 259296, Note_on_c, 0, 60, 0
4, 259296, Note_on_c, 0, 49, 49
4, 259296, Note_on_c, 0, 49, 49
4, 259296, Note_on_c, 0, 82, 89
4, 259296, Note_on_c, 0, 49, 49
4, 259296, Note_on_c, 0, 61, 46
4, 259296, Note_on_c, 0, 77, 89
4, 259296, Note_on_c, 0, 82, 89
4, 259336, Note_on_c, 0, 82, 0
4, 259336, Note_on_c, 0, 82, 0
4, 259336, Note_on_c, 0, 77, 0
4, 259344, Note_on_c, 0, 49, 0
4, 259344, Note_on_c, 0, 49, 0
4, 259344, Note_on_c, 0, 49, 0
4, 259344, Note_on_c, 0, 61, 0
4, 259344, Note_on_c, 0, 51, 49
4, 259344, Note_on_c, 0, 51, 49
4, 259344, Note_on_c, 0, 51, 49
4, 259344, Note_on_c, 0, 84, 89
4, 259344, Note_on_c, 0, 63, 48
4, 259344, Note_on_c, 0, 79, 89
4, 259384, Note_on_c, 0, 79, 0
4, 259384, Note_on_c, 0, 84, 0
4, 259392, Note_on_c, 0, 51, 0
4, 259392, Note_on_c, 0, 51, 0
4, 259392, Note_on_c, 0, 51, 0
4, 259392, Note_on_c, 0, 63, 0
4, 259392, Note_on_c, 0, 53, 51
4, 259392, Note_on_c, 0, 53, 51
4, 259392, Note_on_c, 0, 53, 51
4, 259392, Note_on_c, 0, 85, 89
4, 259392, Note_on_c, 0, 65, 48
4, 259392, Note_on_c, 0, 80, 89
4, 259432, Note_on_c, 0, 80, 0
4, 259432, Note_on_c, 0, 85, 0
4, 259440, Note_on_c, 0, 53, 0
4, 259440, Note_on_c, 0, 53, 0
4, 259440, Note_on_c, 0, 53, 0
4, 259440, Note_on_c, 0, 65, 0
4, 259440, Note_on_c, 0, 55, 54
4, 259440, Note_on_c, 0, 55, 54
4, 259440, Note_on_c, 0, 82, 89
4, 259440, Note_on_c, 0, 55, 54
4, 259440, Note_on_c, 0, 87, 89
4, 259440, Note_on_c, 0, 67, 53
4, 259480, Note_on_c, 0, 87, 0
4, 259480, Note_on_c, 0, 82, 0
4, 259488, Note_on_c, 0, 55, 0
4, 259488, Note_on_c, 0, 55, 0
4, 259488, Note_on_c, 0, 67, 0
4, 259488, Note_on_c, 0, 55, 0
4, 259488, Note_on_c, 0, 56, 48
4, 259488, Note_on_c, 0, 56, 48
4, 259488, Note_on_c, 0, 84, 89
4, 259488, Note_on_c, 0, 56, 48
4, 259488, Note_on_c, 0, 89, 89
4, 259488, Note_on_c, 0, 68, 48
4, 259528, Note_on_c, 0, 89, 0
4, 259528, Note_on_c, 0, 84, 0
4, 259536, Note_on_c, 0, 56, 0
4, 259536, Note_on_c, 0, 56, 0
4, 259536, Note_on_c, 0, 68, 0
4, 259536, Note_on_c, 0, 56, 0
4, 259536, Note_on_c, 0, 58, 48
4, 259536, Note_on_c, 0, 58, 48
4, 259536, Note_on_c, 0, 58, 48
4, 259536, Note_on_c, 0, 91, 89
4, 259536, Note_on_c, 0, 86, 89
4, 259536, Note_on_c, 0, 70, 51
4, 259576, Note_on_c, 0, 86, 0
4, 259576, Note_on_c, 0, 91, 0
4, 259584, Note_on_c, 0, 58, 0
4, 259584, Note_on_c, 0, 58, 0
4, 259584, Note_on_c, 0, 70, 0
4, 259584, Note_on_c, 0, 58, 0
4, 259584, Note_on_c, 0, 87, 89
4, 259584, Note_on_c, 0, 92, 89
4, 259584, Note_on_c, 0, 72, 49
4, 259584, Note_on_c, 0, 60, 49
4, 259584, Note_on_c, 0, 60, 49
4, 259584, Note_on_c, 0, 60, 49
4, 259624, Note_on_c, 0, 92, 0
4, 259624, Note_on_c, 0, 87, 0
4, 259632, Note_on_c, 0, 60, 0
4, 259632, Note_on_c, 0, 60, 0
4, 259632, Note_on_c, 0, 60, 0
4, 259632, Note_on_c, 0, 72, 0
4, 259632, Note_on_c, 0, 58, 51
4, 259632, Note_on_c, 0, 58, 51
4, 259632, Note_on_c, 0, 91, 89
4, 259632, Note_on_c, 0, 58, 51
4, 259632, Note_on_c, 0, 86, 89
4, 259632, Note_on_c, 0, 70, 48
4, 259672, Note_on_c, 0, 86, 0
4, 259672, Note_on_c, 0, 91, 0
4, 259680, Note_on_c, 0, 58, 0
4, 259680, Note_on_c, 0, 58, 0
4, 259680, Note_on_c, 0, 70, 0
4, 259680, Note_on_c, 0, 58, 0
4, 259680, Note_on_c, 0, 56, 48
4, 259680, Note_on_c, 0, 56, 48
4, 259680, Note_on_c, 0, 56, 48
4, 259680, Note_on_c, 0, 84, 89
4, 259680, Note_on_c, 0, 68, 51
4, 259680, Note_on_c, 0, 89, 89
4, 259720, Note_on_c, 0, 89, 0
4, 259720, Note_on_c, 0, 84, 0
4, 259728, Note_on_c, 0, 56, 0
4, 259728, Note_on_c, 0, 56, 0
4, 259728, Note_on_c, 0, 56, 0
4, 259728, Note_on_c, 0, 68, 0
4, 259728, Note_on_c, 0, 55, 54
4, 259728, Note_on_c, 0, 55, 54
4, 259728, Note_on_c, 0, 55, 54
4, 259728, Note_on_c, 0, 87, 89
4, 259728, Note_on_c, 0, 82, 89
4, 259728, Note_on_c, 0, 67, 56
4, 259768, Note_on_c, 0, 82, 0
4, 259768, Note_on_c, 0, 87, 0
4, 259776, Note_on_c, 0, 55, 0
4, 259776, Note_on_c, 0, 55, 0
4, 259776, Note_on_c, 0, 67, 0
4, 259776, Note_on_c, 0, 55, 0
4, 259776, Note_on_c, 0, 91, 89
4, 259776, Note_on_c, 0, 96, 89
4, 259776, Note_on_c, 0, 63, 53
4, 259776, Note_on_c, 0, 75, 53
4, 259776, Note_on_c, 0, 63, 53
4, 259776, Note_on_c, 0, 63, 53
4, 259816, Note_on_c, 0, 96, 0
4, 259816, Note_on_c, 0, 91, 0
4, 259824, Note_on_c, 0, 63, 0
4, 259824, Note_on_c, 0, 75, 0
4, 259824, Note_on_c, 0, 63, 0
4, 259824, Note_on_c, 0, 63, 0
4, 259824, Note_on_c, 0, 94, 89
4, 259824, Note_on_c, 0, 74, 53
4, 259824, Note_on_c, 0, 62, 53
4, 259824, Note_on_c, 0, 89, 89
4, 259824, Note_on_c, 0, 62, 53
4, 259824, Note_on_c, 0, 62, 53
4, 259864, Note_on_c, 0, 89, 0
4, 259864, Note_on_c, 0, 94, 0
4, 259872, Note_on_c, 0, 62, 0
4, 259872, Note_on_c, 0, 74, 0
4, 259872, Note_on_c, 0, 62, 0
4, 259872, Note_on_c, 0, 62, 0
4, 259872, Note_on_c, 0, 87, 89
4, 259872, Note_on_c, 0, 92, 89
4, 259872, Note_on_c, 0, 60, 51
4, 259872, Note_on_c, 0, 60, 51
4, 259872, Note_on_c, 0, 72, 51
4, 259872, Note_on_c, 0, 60, 51
4, 259912, Note_on_c, 0, 92, 0
4, 259912, Note_on_c, 0, 87, 0
4, 259920, Note_on_c, 0, 72, 0
4, 259920, Note_on_c, 0, 60, 0
4, 259920, Note_on_c, 0, 60, 0
4, 259920, Note_on_c, 0, 60, 0
4, 259920, Note_on_c, 0, 58, 48
4, 259920, Note_on_c, 0, 58, 48
4, 259920, Note_on_c, 0, 58, 48
4, 259920, Note_on_c, 0, 86, 89
4, 259920, Note_on_c, 0, 91, 89
4, 259920, Note_on_c, 0, 70, 48
4, 259960, Note_on_c, 0, 91, 0
4, 259960, Note_on_c, 0, 86, 0
4, 259968, Note_on_c, 0, 58, 0
4, 259968, Note_on_c, 0, 58, 0
4, 259968, Note_on_c, 0, 70, 0
4, 259968, Note_on_c, 0, 58, 0
4, 259968, Note_on_c, 0, 56, 48
4, 259968, Note_on_c, 0, 56, 48
4, 259968, Note_on_c, 0, 56, 48
4, 259968, Note_on_c, 0, 89, 89
4, 259968, Note_on_c, 0, 68, 48
4, 259968, Note_on_c, 0, 84, 89
4, 260008, Note_on_c, 0, 84, 0
4, 260008, Note_on_c, 0, 89, 0
4, 260016, Note_on_c, 0, 56, 0
4, 260016, Note_on_c, 0, 56, 0
4, 260016, Note_on_c, 0, 56, 0
4, 260016, Note_on_c, 0, 68, 0
4, 260016, Note_on_c, 0, 55, 56
4, 260016, Note_on_c, 0, 55, 56
4, 260016, Note_on_c, 0, 55, 56
4, 260016, Note_on_c, 0, 67, 56
4, 260016, Note_on_c, 0, 82, 89
4, 260016, Note_on_c, 0, 87, 89
4, 260056, Note_on_c, 0, 87, 0
4, 260056, Note_on_c, 0, 82, 0
4, 260064, Note_on_c, 0, 55, 0
4, 260064, Note_on_c, 0, 55, 0
4, 260064, Note_on_c, 0, 55, 0
4, 260064, Note_on_c, 0, 67, 0
4, 260064, Note_on_c, 0, 53, 55
4, 260064, Note_on_c, 0, 53, 55
4, 260064, Note_on_c, 0, 86, 89
4, 260064, Note_on_c, 0, 53, 55
4, 260064, Note_on_c, 0, 80, 89
4, 260064, Note_on_c, 0, 65, 55
4, 260104, Note_on_c, 0, 80, 0
4, 260104, Note_on_c, 0, 86, 0
4, 260112, Note_on_c, 0, 53, 0
4, 260112, Note_on_c, 0, 53, 0
4, 260112, Note_on_c, 0, 65, 0
4, 260112, Note_on_c, 0, 53, 0
4, 260112, Note_on_c, 0, 51, 57
4, 260112, Note_on_c, 0, 51, 57
4, 260112, Note_on_c, 0, 84, 89
4, 260112, Note_on_c, 0, 51, 57
4, 260112, Note_on_c, 0, 79, 89
4, 260112, Note_on_c, 0, 63, 57
4, 260152, Note_on_c, 0, 79, 0
4, 260152, Note_on_c, 0, 84, 0
4, 260160, Note_on_c, 0, 51, 0
4, 260160, Note_on_c, 0, 51, 0
4, 260160, Note_on_c, 0, 63, 0
4, 260160, Note_on_c, 0, 51, 0
4, 260160, Note_on_c, 0, 50, 56
4, 260160, Note_on_c, 0, 50, 56
4, 260160, Note_on_c, 0, 82, 89
4, 260160, Note_on_c, 0, 50, 56
4, 260160, Note_on_c, 0, 62, 56
4, 260160, Note_on_c, 0, 77, 89
4, 260200, Note_on_c, 0, 77, 0
4, 260200, Note_on_c, 0, 82, 0
4, 260208, Note_on_c, 0, 50, 0
4, 260208, Note_on_c, 0, 50, 0
4, 260208, Note_on_c, 0, 50, 0
4, 260208, Note_on_c, 0, 62, 0
4, 260208, Note_on_c, 0, 48, 46
4, 260208, Note_on_c, 0, 48, 46
4, 260208, Note_on_c, 0, 80, 89
4, 260208, Note_on_c, 0, 48, 46
4, 260208, Note_on_c, 0, 60, 46
4, 260208, Note_on_c, 0, 75, 89
4, 260248, Note_on_c, 0, 75, 0
4, 260248, Note_on_c, 0, 80, 0
4, 260256, Note_on_c, 0, 48, 0
4, 260256, Note_on_c, 0, 48, 0
4, 260256, Note_on_c, 0, 48, 0
4, 260256, Note_on_c, 0, 60, 0
4, 260256, Note_on_c, 0, 58, 53
4, 260256, Note_on_c, 0, 46, 53
4, 260256, Note_on_c, 0, 46, 53
4, 260256, Note_on_c, 0, 74, 89
4, 260256, Note_on_c, 0, 46, 53
4, 260256, Note_on_c, 0, 79, 89
4, 260296, Note_on_c, 0, 79, 0
4, 260296, Note_on_c, 0, 74, 0
4, 260304, Note_on_c, 0, 46, 0
4, 260304, Note_on_c, 0, 58, 0
4, 260304, Note_on_c, 0, 46, 0
4, 260304, Note_on_c, 0, 46, 0
4, 260304, Note_on_c, 0, 44, 53
4, 260304, Note_on_c, 0, 44, 53
4, 260304, Note_on_c, 0, 44, 53
4, 260304, Note_on_c, 0, 77, 89
4, 260304, Note_on_c, 0, 56, 53
4, 260304, Note_on_c, 0, 72, 89
4, 260344, Note_on_c, 0, 72, 0
4, 260344, Note_on_c, 0, 77, 0
4, 260352, Note_on_c, 0, 44, 0
4, 260352, Note_on_c, 0, 44, 0
4, 260352, Note_on_c, 0, 44, 0
4, 260352, Note_on_c, 0, 56, 0
4, 262128, Note_on_c, 0, 43, 53
4, 262128, Note_on_c, 0, 55, 53
4, 262128, Note_on_c, 0, 70, 89
4, 262128, Note_on_c, 0, 75, 89
4, 262168, Note_on_c, 0, 75, 0
4, 262168, Note_on_c, 0, 70, 0
4, 262176, Note_on_c, 0, 55, 0
4, 262176, Note_on_c, 0, 43, 0
4, 262176, Note_on_c, 0, 77, 89
4, 262176, Note_on_c, 0, 44, 54
4, 262176, Note_on_c, 0, 56, 54
4, 262176, Note_on_c, 0, 72, 89
4, 262216, Note_on_c, 0, 72, 0
4, 262216, Note_on_c, 0, 77, 0
4, 262224, Note_on_c, 0, 56, 0
4, 262224, Note_on_c, 0, 44, 0
4, 262224, Note_on_c, 0, 58, 51
4, 262224, Note_on_c, 0, 79, 89
4, 262224, Note_on_c, 0, 46, 51
4, 262224, Note_on_c, 0, 74, 89
4, 262264, Note_on_c, 0, 74, 0
4, 262264, Note_on_c, 0, 79, 0
4, 262272, Note_on_c, 0, 46, 0
4, 262272, Note_on_c, 0, 58, 0
4, 262272, Note_on_c, 0, 80, 89
4, 262272, Note_on_c, 0, 48, 53
4, 262272, Note_on_c, 0, 75, 89
4, 262272, Note_on_c, 0, 60, 53
4, 262312, Note_on_c, 0, 75, 0
4, 262312, Note_on_c, 0, 80, 0
4, 262320, Note_on_c, 0, 48, 0
4, 262320, Note_on_c, 0, 60, 0
4, 262320, Note_on_c, 0, 82, 89
4, 262320, Note_on_c, 0, 50, 56
4, 262320, Note_on_c, 0, 77, 89
4, 262320, Note_on_c, 0, 62, 56
4, 262360, Note_on_c, 0, 77, 0
4, 262360, Note_on_c, 0, 82, 0
4, 262368, Note_on_c, 0, 50, 0
4, 262368, Note_on_c, 0, 62, 0
4, 262368, Note_on_c, 0, 84, 89
4, 262368, Note_on_c, 0, 79, 89
4, 262368, Note_on_c, 0, 51, 53
4, 262368, Note_on_c, 0, 63, 53
4, 262408, Note_on_c, 0, 79, 0
4, 262408, Note_on_c, 0, 84, 0
4, 262416, Note_on_c, 0, 51, 0
4, 262416, Note_on_c, 0, 63, 0
4, 262416, Note_on_c, 0, 53, 49
4, 262416, Note_on_c, 0, 86, 89
4, 262416, Note_on_c, 0, 65, 49
4, 262416, Note_on_c, 0, 80, 89
4, 262456, Note_on_c, 0, 80, 0
4, 262456, Note_on_c, 0, 86, 0
4, 262464, Note_on_c, 0, 65, 0
4, 262464, Note_on_c, 0, 53, 0
4, 262464, Note_on_c, 0, 87, 89
4, 262464, Note_on_c, 0, 55, 56
4, 262464, Note_on_c, 0, 82, 89
4, 262464, Note_on_c, 0, 67, 56
4, 262504, Note_on_c, 0, 82, 0
4, 262504, Note_on_c, 0, 87, 0
4, 262512, Note_on_c, 0, 55, 0
4, 262512, Note_on_c, 0, 67, 0
4, 262512, Note_on_c, 0, 53, 53
4, 262512, Note_on_c, 0, 86, 89
4, 262512, Note_on_c, 0, 80, 89
4, 262512, Note_on_c, 0, 65, 53
4, 262552, Note_on_c, 0, 80, 0
4, 262552, Note_on_c, 0, 86, 0
4, 262560, Note_on_c, 0, 53, 0
4, 262560, Note_on_c, 0, 65, 0
4, 262560, Note_on_c, 0, 51, 53
4, 262560, Note_on_c, 0, 79, 89
4, 262560, Note_on_c, 0, 84, 89
4, 262560, Note_on_c, 0, 63, 53
4, 262600, Note_on_c, 0, 84, 0
4, 262600, Note_on_c, 0, 79, 0
4, 262608, Note_on_c, 0, 51, 0
4, 262608, Note_on_c, 0, 63, 0
4, 262608, Note_on_c, 0, 50, 57
4, 262608, Note_on_c, 0, 62, 57
4, 262608, Note_on_c, 0, 82, 89
4, 262608, Note_on_c, 0, 77, 89
4, 262648, Note_on_c, 0, 77, 0
4, 262648, Note_on_c, 0, 82, 0
4, 262656, Note_on_c, 0, 62, 0
4, 262656, Note_on_c, 0, 50, 0
4, 262656, Note_on_c, 0, 58, 53
4, 262656, Note_on_c, 0, 91, 89
4, 262656, Note_on_c, 0, 70, 53
4, 262656, Note_on_c, 0, 86, 89
4, 262696, Note_on_c, 0, 86, 0
4, 262696, Note_on_c, 0, 91, 0
4, 262704, Note_on_c, 0, 70, 0
4, 262704, Note_on_c, 0, 58, 0
4, 262704, Note_on_c, 0, 56, 53
4, 262704, Note_on_c, 0, 89, 89
4, 262704, Note_on_c, 0, 68, 53
4, 262704, Note_on_c, 0, 84, 89
4, 262744, Note_on_c, 0, 84, 0
4, 262744, Note_on_c, 0, 89, 0
4, 262752, Note_on_c, 0, 68, 0
4, 262752, Note_on_c, 0, 56, 0
4, 262752, Note_on_c, 0, 87, 89
4, 262752, Note_on_c, 0, 55, 53
4, 262752, Note_on_c, 0, 82, 89
4, 262752, Note_on_c, 0, 67, 53
4, 262792, Note_on_c, 0, 82, 0
4, 262792, Note_on_c, 0, 87, 0
4, 262800, Note_on_c, 0, 55, 0
4, 262800, Note_on_c, 0, 67, 0
4, 262800, Note_on_c, 0, 53, 54
4, 262800, Note_on_c, 0, 65, 54
4, 262800, Note_on_c, 0, 86, 89
4, 262800, Note_on_c, 0, 80, 89
4, 262840, Note_on_c, 0, 80, 0
4, 262840, Note_on_c, 0, 86, 0
4, 262848, Note_on_c, 0, 65, 0
4, 262848, Note_on_c, 0, 53, 0
4, 262848, Note_on_c, 0, 89, 89
4, 262848, Note_on_c, 0, 56, 51
4, 262848, Note_on_c, 0, 68, 51
4, 262848, Note_on_c, 0, 84, 89
4, 262888, Note_on_c, 0, 84, 0
4, 262888, Note_on_c, 0, 89, 0
4, 262896, Note_on_c, 0, 68, 0
4, 262896, Note_on_c, 0, 56, 0
4, 262896, Note_on_c, 0, 55, 51
4, 262896, Note_on_c, 0, 67, 51
4, 262896, Note_on_c, 0, 82, 89
4, 262896, Note_on_c, 0, 87, 89
4, 262936, Note_on_c, 0, 87, 0
4, 262936, Note_on_c, 0, 82, 0
4, 262944, Note_on_c, 0, 67, 0
4, 262944, Note_on_c, 0, 55, 0
4, 262944, Note_on_c, 0, 53, 53
4, 262944, Note_on_c, 0, 80, 89
4, 262944, Note_on_c, 0, 86, 89
4, 262944, Note_on_c, 0, 65, 53
4, 262984, Note_on_c, 0, 86, 0
4, 262984, Note_on_c, 0, 80, 0
4, 262992, Note_on_c, 0, 53, 0
4, 262992, Note_on_c, 0, 65, 0
4, 262992, Note_on_c, 0, 51, 51
4, 262992, Note_on_c, 0, 63, 51
4, 262992, Note_on_c, 0, 84, 89
4, 262992, Note_on_c, 0, 79, 89
4, 263032, Note_on_c, 0, 79, 0
4, 263032, Note_on_c, 0, 84, 0
4, 263040, Note_on_c, 0, 63, 0
4, 263040, Note_on_c, 0, 51, 0
4, 263040, Note_on_c, 0, 87, 89
4, 263040, Note_on_c, 0, 55, 56
4, 263040, Note_on_c, 0, 82, 89
4, 263040, Note_on_c, 0, 67, 56
4, 263080, Note_on_c, 0, 82, 0
4, 263080, Note_on_c, 0, 87, 0
4, 263088, Note_on_c, 0, 55, 0
4, 263088, Note_on_c, 0, 67, 0
4, 263088, Note_on_c, 0, 53, 54
4, 263088, Note_on_c, 0, 86, 89
4, 263088, Note_on_c, 0, 65, 54
4, 263088, Note_on_c, 0, 80, 89
4, 263128, Note_on_c, 0, 80, 0
4, 263128, Note_on_c, 0, 86, 0
4, 263136, Note_on_c, 0, 65, 0
4, 263136, Note_on_c, 0, 53, 0
4, 263136, Note_on_c, 0, 51, 53
4, 263136, Note_on_c, 0, 79, 89
4, 263136, Note_on_c, 0, 84, 89
4, 263136, Note_on_c, 0, 63, 53
4, 263176, Note_on_c, 0, 84, 0
4, 263176, Note_on_c, 0, 79, 0
4, 263184, Note_on_c, 0, 51, 0
4, 263184, Note_on_c, 0, 63, 0
4, 263184, Note_on_c, 0, 62, 56
4, 263184, Note_on_c, 0, 50, 56
4, 263184, Note_on_c, 0, 77, 89
4, 263184, Note_on_c, 0, 82, 89
4, 263224, Note_on_c, 0, 82, 0
4, 263224, Note_on_c, 0, 77, 0
4, 263232, Note_on_c, 0, 50, 0
4, 263232, Note_on_c, 0, 62, 0
4, 263232, Note_on_c, 0, 84, 89
4, 263232, Note_on_c, 0, 51, 49
4, 263232, Note_on_c, 0, 79, 89
4, 263232, Note_on_c, 0, 63, 49
4, 263272, Note_on_c, 0, 79, 0
4, 263272, Note_on_c, 0, 84, 0
4, 263280, Note_on_c, 0, 51, 0
4, 263280, Note_on_c, 0, 63, 0
4, 263280, Note_on_c, 0, 82, 89
4, 263280, Note_on_c, 0, 50, 55
4, 263280, Note_on_c, 0, 77, 89
4, 263280, Note_on_c, 0, 62, 55
4, 263320, Note_on_c, 0, 77, 0
4, 263320, Note_on_c, 0, 82, 0
4, 263328, Note_on_c, 0, 50, 0
4, 263328, Note_on_c, 0, 62, 0
4, 263328, Note_on_c, 0, 80, 89
4, 263328, Note_on_c, 0, 75, 89
4, 263328, Note_on_c, 0, 48, 53
4, 263328, Note_on_c, 0, 60, 53
4, 263368, Note_on_c, 0, 75, 0
4, 263368, Note_on_c, 0, 80, 0
4, 263376, Note_on_c, 0, 48, 0
4, 263376, Note_on_c, 0, 60, 0
4, 263376, Note_on_c, 0, 58, 54
4, 263376, Note_on_c, 0, 79, 89
4, 263376, Note_on_c, 0, 46, 54
4, 263376, Note_on_c, 0, 74, 89
4, 263416, Note_on_c, 0, 74, 0
4, 263416, Note_on_c, 0, 79, 0
4, 263424, Note_on_c, 0, 46, 0
4, 263424, Note_on_c, 0, 58, 0
4, 263424, Note_on_c, 0, 50, 57
4, 263424, Note_on_c, 0, 77, 89
4, 263424, Note_on_c, 0, 82, 89
4, 263424, Note_on_c, 0, 62, 57
4, 263464, Note_on_c, 0, 82, 0
4, 263464, Note_on_c, 0, 77, 0
4, 263472, Note_on_c, 0, 50, 0
4, 263472, Note_on_c, 0, 62, 0
4, 263472, Note_on_c, 0, 48, 51
4, 263472, Note_on_c, 0, 80, 89
4, 263472, Note_on_c, 0, 60, 51
4, 263472, Note_on_c, 0, 75, 89
4, 263512, Note_on_c, 0, 75, 0
4, 263512, Note_on_c, 0, 80, 0
4, 263520, Note_on_c, 0, 60, 0
4, 263520, Note_on_c, 0, 48, 0
4, 263520, Note_on_c, 0, 46, 51
4, 263520, Note_on_c, 0, 58, 51
4, 263520, Note_on_c, 0, 74, 89
4, 263520, Note_on_c, 0, 79, 89
4, 263560, Note_on_c, 0, 79, 0
4, 263560, Note_on_c, 0, 74, 0
4, 263568, Note_on_c, 0, 58, 0
4, 263568, Note_on_c, 0, 46, 0
4, 263568, Note_on_c, 0, 44, 48
4, 263568, Note_on_c, 0, 56, 48
4, 263568, Note_on_c, 0, 77, 89
4, 263568, Note_on_c, 0, 72, 89
4, 263608, Note_on_c, 0, 72, 0
4, 263608, Note_on_c, 0, 77, 0
4, 263616, Note_on_c, 0, 56, 0
4, 263616, Note_on_c, 0, 44, 0
4, 263616, Note_on_c, 0, 48, 49
4, 263616, Note_on_c, 0, 55, 49
4, 263616, Note_on_c, 0, 36, 44
4, 263712, Note_on_c, 0, 36, 0
4, 263712, Note_on_c, 0, 55, 0
4, 263712, Note_on_c, 0, 48, 0
4, 266160, Note_on_c, 0, 80, 89
4, 266160, Note_on_c, 0, 48, 45
4, 266160, Note_on_c, 0, 75, 89
4, 266160, Note_on_c, 0, 60, 45
4, 266200, Note_on_c, 0, 75, 0
4, 266200, Note_on_c, 0, 80, 0
4, 266208, Note_on_c, 0, 48, 0
4, 266208, Note_on_c, 0, 60, 0
4, 266208, Note_on_c, 0, 77, 89
4, 266208, Note_on_c, 0, 49, 48
4, 266208, Note_on_c, 0, 61, 48
4, 266208, Note_on_c, 0, 82, 89
4, 266248, Note_on_c, 0, 82, 0
4, 266248, Note_on_c, 0, 77, 0
4, 266256, Note_on_c, 0, 61, 0
4, 266256, Note_on_c, 0, 49, 0
4, 266256, Note_on_c, 0, 51, 45
4, 266256, Note_on_c, 0, 79, 89
4, 266256, Note_on_c, 0, 84, 89
4, 266256, Note_on_c, 0, 63, 45
4, 266296, Note_on_c, 0, 84, 0
4, 266296, Note_on_c, 0, 79, 0
4, 266304, Note_on_c, 0, 51, 0
4, 266304, Note_on_c, 0, 63, 0
4, 266304, Note_on_c, 0, 85, 89
4, 266304, Note_on_c, 0, 65, 49
4, 266304, Note_on_c, 0, 53, 49
4, 266304, Note_on_c, 0, 80, 89
4, 266344, Note_on_c, 0, 80, 0
4, 266344, Note_on_c, 0, 85, 0
4, 266352, Note_on_c, 0, 53, 0
4, 266352, Note_on_c, 0, 65, 0
4, 266352, Note_on_c, 0, 87, 89
4, 266352, Note_on_c, 0, 55, 56
4, 266352, Note_on_c, 0, 82, 89
4, 266352, Note_on_c, 0, 67, 56
4, 266392, Note_on_c, 0, 82, 0
4, 266392, Note_on_c, 0, 87, 0
4, 266400, Note_on_c, 0, 55, 0
4, 266400, Note_on_c, 0, 67, 0
4, 266400, Note_on_c, 0, 56, 47
4, 266400, Note_on_c, 0, 89, 89
4, 266400, Note_on_c, 0, 68, 47
4, 266400, Note_on_c, 0, 84, 89
4, 266440, Note_on_c, 0, 84, 0
4, 266440, Note_on_c, 0, 89, 0
4, 266448, Note_on_c, 0, 68, 0
4, 266448, Note_on_c, 0, 56, 0
4, 266448, Note_on_c, 0, 91, 89
4, 266448, Note_on_c, 0, 58, 51
4, 266448, Note_on_c, 0, 85, 89
4, 266448, Note_on_c, 0, 70, 51
4, 266488, Note_on_c, 0, 85, 0
4, 266488, Note_on_c, 0, 91, 0
4, 266496, Note_on_c, 0, 58, 0
4, 266496, Note_on_c, 0, 70, 0
4, 266496, Note_on_c, 0, 92, 89
4, 266496, Note_on_c, 0, 72, 53
4, 266496, Note_on_c, 0, 87, 89
4, 266496, Note_on_c, 0, 60, 53
4, 266536, Note_on_c, 0, 87, 0
4, 266536, Note_on_c, 0, 92, 0
4, 266544, Note_on_c, 0, 72, 0
4, 266544, Note_on_c, 0, 60, 0
4, 266544, Note_on_c, 0, 73, 49
4, 266544, Note_on_c, 0, 89, 89
4, 266544, Note_on_c, 0, 94, 89
4, 266544, Note_on_c, 0, 61, 49
4, 266584, Note_on_c, 0, 94, 0
4, 266584, Note_on_c, 0, 89, 0
4, 266592, Note_on_c, 0, 73, 0
4, 266592, Note_on_c, 0, 61, 0
4, 266592, Note_on_c, 0, 72, 54
4, 266592, Note_on_c, 0, 87, 89
4, 266592, Note_on_c, 0, 92, 89
4, 266592, Note_on_c, 0, 60, 54
4, 266632, Note_on_c, 0, 92, 0
4, 266632, Note_on_c, 0, 87, 0
4, 266640, Note_on_c, 0, 72, 0
4, 266640, Note_on_c, 0, 60, 0
4, 266640, Note_on_c, 0, 58, 51
4, 266640, Note_on_c, 0, 91, 89
4, 266640, Note_on_c, 0, 70, 51
4, 266640, Note_on_c, 0, 86, 89
4, 266680, Note_on_c, 0, 86, 0
4, 266680, Note_on_c, 0, 91, 0
4, 266688, Note_on_c, 0, 70, 0
4, 266688, Note_on_c, 0, 58, 0
4, 266688, Note_on_c, 0, 56, 49
4, 266688, Note_on_c, 0, 89, 89
4, 266688, Note_on_c, 0, 84, 89
4, 266688, Note_on_c, 0, 68, 49
4, 266728, Note_on_c, 0, 84, 0
4, 266728, Note_on_c, 0, 89, 0
4, 266736, Note_on_c, 0, 56, 0
4, 266736, Note_on_c, 0, 68, 0
4, 266736, Note_on_c, 0, 58, 49
4, 266736, Note_on_c, 0, 91, 89
4, 266736, Note_on_c, 0, 86, 89
4, 266736, Note_on_c, 0, 70, 49
4, 266776, Note_on_c, 0, 86, 0
4, 266776, Note_on_c, 0, 91, 0
4, 266784, Note_on_c, 0, 58, 0
4, 266784, Note_on_c, 0, 70, 0
4, 266784, Note_on_c, 0, 56, 53
4, 266784, Note_on_c, 0, 89, 89
4, 266784, Note_on_c, 0, 84, 89
4, 266784, Note_on_c, 0, 68, 53
4, 266824, Note_on_c, 0, 84, 0
4, 266824, Note_on_c, 0, 89, 0
4, 266832, Note_on_c, 0, 56, 0
4, 266832, Note_on_c, 0, 68, 0
4, 266832, Note_on_c, 0, 87, 89
4, 266832, Note_on_c, 0, 67, 57
4, 266832, Note_on_c, 0, 55, 57
4, 266832, Note_on_c, 0, 82, 89
4, 266872, Note_on_c, 0, 82, 0
4, 266872, Note_on_c, 0, 87, 0
4, 266880, Note_on_c, 0, 55, 0
4, 266880, Note_on_c, 0, 67, 0
4, 266880, Note_on_c, 0, 80, 89
4, 266880, Note_on_c, 0, 53, 54
4, 266880, Note_on_c, 0, 86, 89
4, 266880, Note_on_c, 0, 65, 54
4, 266920, Note_on_c, 0, 86, 0
4, 266920, Note_on_c, 0, 80, 0
4, 266928, Note_on_c, 0, 53, 0
4, 266928, Note_on_c, 0, 65, 0
4, 266928, Note_on_c, 0, 82, 89
4, 266928, Note_on_c, 0, 87, 89
4, 266928, Note_on_c, 0, 55, 49
4, 266928, Note_on_c, 0, 67, 49
4, 266968, Note_on_c, 0, 87, 0
4, 266968, Note_on_c, 0, 82, 0
4, 266976, Note_on_c, 0, 55, 0
4, 266976, Note_on_c, 0, 67, 0
4, 266976, Note_on_c, 0, 53, 55
4, 266976, Note_on_c, 0, 86, 89
4, 266976, Note_on_c, 0, 80, 89
4, 266976, Note_on_c, 0, 65, 55
4, 267016, Note_on_c, 0, 80, 0
4, 267016, Note_on_c, 0, 86, 0
4, 267024, Note_on_c, 0, 53, 0
4, 267024, Note_on_c, 0, 65, 0
4, 267024, Note_on_c, 0, 51, 49
4, 267024, Note_on_c, 0, 79, 89
4, 267024, Note_on_c, 0, 84, 89
4, 267024, Note_on_c, 0, 63, 49
4, 267064, Note_on_c, 0, 84, 0
4, 267064, Note_on_c, 0, 79, 0
4, 267072, Note_on_c, 0, 51, 0
4, 267072, Note_on_c, 0, 63, 0
4, 267072, Note_on_c, 0, 50, 53
4, 267072, Note_on_c, 0, 82, 89
4, 267072, Note_on_c, 0, 62, 53
4, 267072, Note_on_c, 0, 77, 89
4, 267112, Note_on_c, 0, 77, 0
4, 267112, Note_on_c, 0, 82, 0
4, 267120, Note_on_c, 0, 62, 0
4, 267120, Note_on_c, 0, 50, 0
4, 267120, Note_on_c, 0, 84, 89
4, 267120, Note_on_c, 0, 51, 86
4, 267120, Note_on_c, 0, 79, 89
4, 267120, Note_on_c, 0, 63, 86
4, 267160, Note_on_c, 0, 79, 0
4, 267160, Note_on_c, 0, 84, 0
4, 267168, Note_on_c, 0, 51, 0
4, 267168, Note_on_c, 0, 63, 0
4, 267168, Note_on_c, 0, 82, 89
4, 267168, Note_on_c, 0, 50, 86
4, 267168, Note_on_c, 0, 77, 89
4, 267168, Note_on_c, 0, 62, 86
4, 267208, Note_on_c, 0, 77, 0
4, 267208, Note_on_c, 0, 82, 0
4, 267216, Note_on_c, 0, 50, 0
4, 267216, Note_on_c, 0, 62, 0
4, 267216, Note_on_c, 0, 48, 86
4, 267216, Note_on_c, 0, 80, 89
4, 267216, Note_on_c, 0, 60, 86
4, 267216, Note_on_c, 0, 75, 89
4, 267256, Note_on_c, 0, 75, 0
4, 267256, Note_on_c, 0, 80, 0
4, 267264, Note_on_c, 0, 60, 0
4, 267264, Note_on_c, 0, 48, 0
4, 269040, Note_on_c, 0, 72, 55
4, 269040, Note_on_c, 0, 60, 49
4, 269088, Note_on_c, 0, 60, 0
4, 269088, Note_on_c, 0, 72, 0
4, 269088, Note_on_c, 0, 74, 53
4, 269088, Note_on_c, 0, 62, 48
4, 269136, Note_on_c, 0, 62, 0
4, 269136, Note_on_c, 0, 74, 0
4, 269136, Note_on_c, 0, 75, 48
4, 269136, Note_on_c, 0, 63, 48
4, 269184, Note_on_c, 0, 63, 0
4, 269184, Note_on_c, 0, 75, 0
4, 269184, Note_on_c, 0, 65, 53
4, 269184, Note_on_c, 0, 77, 58
4, 269232, Note_on_c, 0, 77, 0
4, 269232, Note_on_c, 0, 65, 0
4, 269232, Note_on_c, 0, 75, 51
4, 269232, Note_on_c, 0, 63, 46
4, 269280, Note_on_c, 0, 63, 0
4, 269280, Note_on_c, 0, 75, 0
4, 269280, Note_on_c, 0, 65, 53
4, 269280, Note_on_c, 0, 77, 55
4, 269328, Note_on_c, 0, 77, 0
4, 269328, Note_on_c, 0, 65, 0
4, 269328, Note_on_c, 0, 79, 52
4, 269328, Note_on_c, 0, 67, 56
4, 269376, Note_on_c, 0, 67, 0
4, 269376, Note_on_c, 0, 79, 0
4, 269376, Note_on_c, 0, 80, 51
4, 269376, Note_on_c, 0, 68, 53
4, 269424, Note_on_c, 0, 68, 0
4, 269424, Note_on_c, 0, 80, 0
4, 269424, Note_on_c, 0, 77, 49
4, 269424, Note_on_c, 0, 65, 55
4, 269472, Note_on_c, 0, 65, 0
4, 269472, Note_on_c, 0, 77, 0
4, 269472, Note_on_c, 0, 67, 54
4, 269472, Note_on_c, 0, 79, 54
4, 269520, Note_on_c, 0, 79, 0
4, 269520, Note_on_c, 0, 67, 0
4, 269520, Note_on_c, 0, 68, 48
4, 269520, Note_on_c, 0, 80, 53
4, 269568, Note_on_c, 0, 80, 0
4, 269568, Note_on_c, 0, 68, 0
4, 269568, Note_on_c, 0, 70, 49
4, 269568, Note_on_c, 0, 82, 48
4, 269616, Note_on_c, 0, 82, 0
4, 269616, Note_on_c, 0, 70, 0
4, 269616, Note_on_c, 0, 80, 49
4, 269616, Note_on_c, 0, 68, 53
4, 269664, Note_on_c, 0, 68, 0
4, 269664, Note_on_c, 0, 80, 0
4, 269664, Note_on_c, 0, 67, 60
4, 269664, Note_on_c, 0, 79, 54
4, 269712, Note_on_c, 0, 79, 0
4, 269712, Note_on_c, 0, 67, 0
4, 269712, Note_on_c, 0, 65, 56
4, 269712, Note_on_c, 0, 77, 40
4, 269760, Note_on_c, 0, 77, 0
4, 269760, Note_on_c, 0, 65, 0
4, 269760, Note_on_c, 0, 70, 46
4, 269760, Note_on_c, 0, 82, 51
4, 269808, Note_on_c, 0, 82, 0
4, 269808, Note_on_c, 0, 70, 0
4, 269808, Note_on_c, 0, 68, 53
4, 269808, Note_on_c, 0, 80, 53
4, 269856, Note_on_c, 0, 80, 0
4, 269856, Note_on_c, 0, 68, 0
4, 269856, Note_on_c, 0, 67, 56
4, 269856, Note_on_c, 0, 79, 56
4, 269904, Note_on_c, 0, 79, 0
4, 269904, Note_on_c, 0, 67, 0
4, 269904, Note_on_c, 0, 77, 52
4, 269904, Note_on_c, 0, 65, 45
4, 269952, Note_on_c, 0, 65, 0
4, 269952, Note_on_c, 0, 77, 0
4, 269952, Note_on_c, 0, 82, 60
4, 269952, Note_on_c, 0, 70, 49
4, 270000, Note_on_c, 0, 70, 0
4, 270000, Note_on_c, 0, 82, 0
4, 270000, Note_on_c, 0, 80, 57
4, 270000, Note_on_c, 0, 68, 56
4, 270048, Note_on_c, 0, 68, 0
4, 270048, Note_on_c, 0, 80, 0
4, 270048, Note_on_c, 0, 79, 60
4, 270048, Note_on_c, 0, 67, 58
4, 270096, Note_on_c, 0, 67, 0
4, 270096, Note_on_c, 0, 79, 0
4, 270096, Note_on_c, 0, 77, 52
4, 270096, Note_on_c, 0, 65, 60
4, 270144, Note_on_c, 0, 65, 0
4, 270144, Note_on_c, 0, 77, 0
4, 270144, End_track
5, 0, Start_track
5, 0, MIDI_port, 0
5, 0, Title_t, "Violas"
5, 0, Program_c, 0, 48
5, 0, Control_c, 0, 7, 90
5, 0, Control_c, 0, 10, 42
5, 384, Note_on_c, 0, 63, 65
5, 384, Note_on_c, 0, 51, 65
5, 384, Note_on_c, 0, 55, 65
5, 384, Note_on_c, 0, 58, 65
5, 477, Note_on_c, 0, 58, 0
5, 477, Note_on_c, 0, 63, 0
5, 477, Note_on_c, 0, 51, 0
5, 477, Note_on_c, 0, 55, 0
5, 480, Note_on_c, 0, 58, 65
5, 480, Note_on_c, 0, 51, 65
5, 480, Note_on_c, 0, 63, 65
5, 480, Note_on_c, 0, 55, 65
5, 573, Note_on_c, 0, 55, 0
5, 573, Note_on_c, 0, 58, 0
5, 573, Note_on_c, 0, 51, 0
5, 573, Note_on_c, 0, 63, 0
5, 576, Note_on_c, 0, 53, 65
5, 576, Note_on_c, 0, 46, 65
5, 576, Note_on_c, 0, 62, 65
5, 576, Note_on_c, 0, 58, 65
5, 576, Note_on_c, 0, 65, 65
5, 576, Note_on_c, 0, 50, 65
5, 762, Note_on_c, 0, 50, 0
5, 762, Note_on_c, 0, 46, 0
5, 762, Note_on_c, 0, 62, 0
5, 762, Note_on_c, 0, 53, 0
5, 762, Note_on_c, 0, 65, 0
5, 762, Note_on_c, 0, 58, 0
5, 768, Note_on_c, 0, 58, 65
5, 768, Note_on_c, 0, 63, 65
5, 768, Note_on_c, 0, 67, 65
5, 768, Note_on_c, 0, 51, 65
5, 768, Note_on_c, 0, 55, 65
5, 954, Note_on_c, 0, 67, 0
5, 954, Note_on_c, 0, 58, 0
5, 954, Note_on_c, 0, 63, 0
5, 958, Note_on_c, 0, 51, 0
5, 958, Note_on_c, 0, 55, 0
5, 960, Note_on_c, 0, 51, 65
5, 960, Note_on_c, 0, 58, 65
5, 960, Note_on_c, 0, 55, 65
5, 960, Note_on_c, 0, 63, 65
5, 1053, Note_on_c, 0, 63, 0
5, 1053, Note_on_c, 0, 51, 0
5, 1053, Note_on_c, 0, 58, 0
5, 1053, Note_on_c, 0, 55, 0
5, 1056, Note_on_c, 0, 55, 65
5, 1056, Note_on_c, 0, 51, 65
5, 1056, Note_on_c, 0, 58, 65
5, 1056, Note_on_c, 0, 63, 65
5, 1149, Note_on_c, 0, 63, 0
5, 1149, Note_on_c, 0, 55, 0
5, 1149, Note_on_c, 0, 51, 0
5, 1149, Note_on_c, 0, 58, 0
5, 1152, Note_on_c, 0, 65, 65
5, 1152, Note_on_c, 0, 62, 65
5, 1152, Note_on_c, 0, 46, 65
5, 1152, Note_on_c, 0, 58, 65
5, 1152, Note_on_c, 0, 53, 36
5, 1152, Note_on_c, 0, 50, 36
5, 1245, Note_on_c, 0, 58, 0
5, 1245, Note_on_c, 0, 46, 0
5, 1245, Note_on_c, 0, 65, 0
5, 1245, Note_on_c, 0, 62, 0
5, 1246, Note_on_c, 0, 50, 0
5, 1246, Note_on_c, 0, 53, 0
5, 1248, Note_on_c, 0, 58, 63
5, 1248, Note_on_c, 0, 63, 65
5, 1248, Note_on_c, 0, 67, 65
5, 1248, Note_on_c, 0, 51, 65
5, 1248, Note_on_c, 0, 55, 65
5, 1341, Note_on_c, 0, 51, 0
5, 1341, Note_on_c, 0, 67, 0
5, 1341, Note_on_c, 0, 58, 0
5, 1341, Note_on_c, 0, 63, 0
5, 1342, Note_on_c, 0, 55, 0
5, 1344, Note_on_c, 0, 68, 65
5, 1344, Note_on_c, 0, 63, 65
5, 1344, Note_on_c, 0, 44, 65
5, 1344, Note_on_c, 0, 60, 65
5, 1344, Note_on_c, 0, 56, 63
5, 1344, Note_on_c, 0, 51, 63
5, 1437, Note_on_c, 0, 60, 0
5, 1437, Note_on_c, 0, 44, 0
5, 1437, Note_on_c, 0, 68, 0
5, 1437, Note_on_c, 0, 63, 0
5, 1438, Note_on_c, 0, 51, 0
5, 1438, Note_on_c, 0, 56, 0
5, 1440, Note_on_c, 0, 44, 65
5, 1440, Note_on_c, 0, 68, 65
5, 1440, Note_on_c, 0, 63, 65
5, 1440, Note_on_c, 0, 60, 65
5, 1440, Note_on_c, 0, 56, 63
5, 1440, Note_on_c, 0, 51, 63
5, 1533, Note_on_c, 0, 60, 0
5, 1533, Note_on_c, 0, 63, 0
5, 1533, Note_on_c, 0, 44, 0
5, 1533, Note_on_c, 0, 68, 0
5, 1534, Note_on_c, 0, 51, 0
5, 1534, Note_on_c, 0, 56, 0
5, 1536, Note_on_c, 0, 44, 65
5, 1536, Note_on_c, 0, 63, 65
5, 1536, Note_on_c, 0, 68, 65
5, 1536, Note_on_c, 0, 60, 65
5, 1536, Note_on_c, 0, 51, 63
5, 1536, Note_on_c, 0, 56, 63
5, 2300, Note_on_c, 0, 60, 0
5, 2300, Note_on_c, 0, 68, 0
5, 2300, Note_on_c, 0, 44, 0
5, 2300, Note_on_c, 0, 63, 0
5, 2302, Note_on_c, 0, 56, 0
5, 2302, Note_on_c, 0, 51, 0
5, 2304, Note_on_c, 0, 67, 65
5, 2304, Note_on_c, 0, 63, 65
5, 2304, Note_on_c, 0, 58, 65
5, 2304, Note_on_c, 0, 51, 65
5, 2304, Note_on_c, 0, 55, 63
5, 2397, Note_on_c, 0, 51, 0
5, 2397, Note_on_c, 0, 58, 0
5, 2397, Note_on_c, 0, 67, 0
5, 2397, Note_on_c, 0, 63, 0
5, 2398, Note_on_c, 0, 55, 0
5, 2400, Note_on_c, 0, 63, 65
5, 2400, Note_on_c, 0, 51, 65
5, 2400, Note_on_c, 0, 58, 65
5, 2400, Note_on_c, 0, 67, 65
5, 2400, Note_on_c, 0, 55, 63
5, 2493, Note_on_c, 0, 67, 0
5, 2493, Note_on_c, 0, 58, 0
5, 2493, Note_on_c, 0, 63, 0
5, 2493, Note_on_c, 0, 51, 0
5, 2494, Note_on_c, 0, 55, 0
5, 2496, Note_on_c, 0, 58, 65
5, 2496, Note_on_c, 0, 51, 65
5, 2496, Note_on_c, 0, 67, 65
5, 2496, Note_on_c, 0, 63, 65
5, 2496, Note_on_c, 0, 55, 63
5, 2589, Note_on_c, 0, 63, 0
5, 2589, Note_on_c, 0, 67, 0
5, 2589, Note_on_c, 0, 58, 0
5, 2589, Note_on_c, 0, 51, 0
5, 2590, Note_on_c, 0, 55, 0
5, 2592, Note_on_c, 0, 51, 65
5, 2592, Note_on_c, 0, 67, 65
5, 2592, Note_on_c, 0, 58, 65
5, 2592, Note_on_c, 0, 63, 65
5, 2592, Note_on_c, 0, 55, 63
5, 2685, Note_on_c, 0, 63, 0
5, 2685, Note_on_c, 0, 58, 0
5, 2685, Note_on_c, 0, 51, 0
5, 2685, Note_on_c, 0, 67, 0
5, 2686, Note_on_c, 0, 55, 0
5, 2688, Note_on_c, 0, 63, 65
5, 2688, Note_on_c, 0, 58, 65
5, 2688, Note_on_c, 0, 51, 65
5, 2688, Note_on_c, 0, 67, 65
5, 2688, Note_on_c, 0, 55, 63
5, 3068, Note_on_c, 0, 55, 0
5, 3068, Note_on_c, 0, 51, 0
5, 3068, Note_on_c, 0, 63, 0
5, 3068, Note_on_c, 0, 58, 0
5, 3068, Note_on_c, 0, 67, 0
5, 3072, Note_on_c, 0, 58, 65
5, 3072, Note_on_c, 0, 63, 65
5, 3072, Note_on_c, 0, 67, 65
5, 3072, Note_on_c, 0, 51, 65
5, 3072, Note_on_c, 0, 55, 63
5, 3260, Note_on_c, 0, 51, 0
5, 3260, Note_on_c, 0, 67, 0
5, 3260, Note_on_c, 0, 58, 0
5, 3260, Note_on_c, 0, 63, 0
5, 3262, Note_on_c, 0, 55, 0
5, 3264, Note_on_c, 0, 58, 65
5, 3264, Note_on_c, 0, 63, 65
5, 3264, Note_on_c, 0, 67, 65
5, 3264, Note_on_c, 0, 51, 65
5, 3264, Note_on_c, 0, 55, 63
5, 3452, Note_on_c, 0, 51, 0
5, 3452, Note_on_c, 0, 67, 0
5, 3452, Note_on_c, 0, 58, 0
5, 3452, Note_on_c, 0, 63, 0
5, 3454, Note_on_c, 0, 55, 0
5, 3456, Note_on_c, 0, 65, 65
5, 3456, Note_on_c, 0, 46, 65
5, 3456, Note_on_c, 0, 62, 65
5, 3456, Note_on_c, 0, 58, 65
5, 3456, Note_on_c, 0, 50, 63
5, 3456, Note_on_c, 0, 53, 63
5, 3735, Note_on_c, 0, 53, 0
5, 3735, Note_on_c, 0, 46, 0
5, 3735, Note_on_c, 0, 62, 0
5, 3735, Note_on_c, 0, 65, 0
5, 3735, Note_on_c, 0, 50, 0
5, 3735, Note_on_c, 0, 58, 0
5, 3744, Note_on_c, 0, 65, 65
5, 3744, Note_on_c, 0, 58, 65
5, 3744, Note_on_c, 0, 62, 65
5, 3744, Note_on_c, 0, 46, 65
5, 3744, Note_on_c, 0, 50, 35
5, 3744, Note_on_c, 0, 53, 38
5, 3827, Note_on_c, 0, 53, 0
5, 3827, Note_on_c, 0, 50, 0
5, 3837, Note_on_c, 0, 62, 0
5, 3837, Note_on_c, 0, 65, 0
5, 3837, Note_on_c, 0, 58, 0
5, 3837, Note_on_c, 0, 46, 0
5, 3840, Note_on_c, 0, 65, 65
5, 3840, Note_on_c, 0, 62, 65
5, 3840, Note_on_c, 0, 58, 65
5, 3840, Note_on_c, 0, 46, 65
5, 3840, Note_on_c, 0, 50, 57
5, 3840, Note_on_c, 0, 53, 32
5, 3923, Note_on_c, 0, 53, 0
5, 3933, Note_on_c, 0, 62, 0
5, 3933, Note_on_c, 0, 58, 0
5, 3933, Note_on_c, 0, 65, 0
5, 3933, Note_on_c, 0, 46, 0
5, 3934, Note_on_c, 0, 50, 0
5, 3936, Note_on_c, 0, 65, 65
5, 3936, Note_on_c, 0, 62, 65
5, 3936, Note_on_c, 0, 58, 65
5, 3936, Note_on_c, 0, 46, 65
5, 3936, Note_on_c, 0, 53, 63
5, 3936, Note_on_c, 0, 50, 63
5, 4029, Note_on_c, 0, 50, 0
5, 4029, Note_on_c, 0, 62, 0
5, 4029, Note_on_c, 0, 58, 0
5, 4029, Note_on_c, 0, 65, 0
5, 4029, Note_on_c, 0, 53, 0
5, 4029, Note_on_c, 0, 46, 0
5, 4032, Note_on_c, 0, 67, 65
5, 4032, Note_on_c, 0, 63, 65
5, 4032, Note_on_c, 0, 51, 65
5, 4032, Note_on_c, 0, 58, 65
5, 4032, Note_on_c, 0, 55, 63
5, 4412, Note_on_c, 0, 58, 0
5, 4412, Note_on_c, 0, 51, 0
5, 4412, Note_on_c, 0, 67, 0
5, 4412, Note_on_c, 0, 63, 0
5, 4414, Note_on_c, 0, 55, 0
5, 4416, Note_on_c, 0, 55, 65
5, 4416, Note_on_c, 0, 60, 65
5, 4416, Note_on_c, 0, 63, 65
5, 4416, Note_on_c, 0, 48, 65
5, 4416, Note_on_c, 0, 51, 32
5, 4600, Note_on_c, 0, 48, 0
5, 4600, Note_on_c, 0, 63, 0
5, 4600, Note_on_c, 0, 55, 0
5, 4600, Note_on_c, 0, 60, 0
5, 4606, Note_on_c, 0, 51, 0
5, 4608, Note_on_c, 0, 58, 65
5, 4608, Note_on_c, 0, 62, 65
5, 4608, Note_on_c, 0, 65, 65
5, 4608, Note_on_c, 0, 46, 65
5, 4608, Note_on_c, 0, 53, 63
5, 4608, Note_on_c, 0, 50, 40
5, 4792, Note_on_c, 0, 46, 0
5, 4794, Note_on_c, 0, 65, 0
5, 4794, Note_on_c, 0, 58, 0
5, 4794, Note_on_c, 0, 62, 0
5, 4798, Note_on_c, 0, 50, 0
5, 4798, Note_on_c, 0, 53, 0
5, 4800, Note_on_c, 0, 58, 65
5, 4800, Note_on_c, 0, 67, 65
5, 4800, Note_on_c, 0, 63, 65
5, 4800, Note_on_c, 0, 51, 63
5, 4800, Note_on_c, 0, 55, 63
5, 4986, Note_on_c, 0, 63, 0
5, 4986, Note_on_c, 0, 58, 0
5, 4986, Note_on_c, 0, 67, 0
5, 4992, Note_on_c, 0, 55, 65
5, 4992, Note_on_c, 0, 51, 65
5, 4992, Note_on_c, 0, 63, 65
5, 4992, Note_on_c, 0, 58, 65
5, 5176, Note_on_c, 0, 58, 0
5, 5176, Note_on_c, 0, 63, 0
5, 5178, Note_on_c, 0, 55, 0
5, 5178, Note_on_c, 0, 51, 0
5, 5182, Note_on_c, 0, 55, 0
5, 5182, Note_on_c, 0, 51, 0
5, 5184, Note_on_c, 0, 65, 63
5, 5184, Note_on_c, 0, 58, 65
5, 5184, Note_on_c, 0, 62, 65
5, 5184, Note_on_c, 0, 46, 65
5, 5184, Note_on_c, 0, 50, 63
5, 5184, Note_on_c, 0, 53, 63
5, 5277, Note_on_c, 0, 46, 0
5, 5277, Note_on_c, 0, 62, 0
5, 5277, Note_on_c, 0, 65, 0
5, 5277, Note_on_c, 0, 58, 0
5, 5278, Note_on_c, 0, 53, 0
5, 5278, Note_on_c, 0, 50, 0
5, 5280, Note_on_c, 0, 58, 65
5, 5280, Note_on_c, 0, 51, 65
5, 5280, Note_on_c, 0, 63, 65
5, 5280, Note_on_c, 0, 67, 65
5, 5280, Note_on_c, 0, 55, 63
5, 5373, Note_on_c, 0, 67, 0
5, 5373, Note_on_c, 0, 63, 0
5, 5373, Note_on_c, 0, 58, 0
5, 5373, Note_on_c, 0, 51, 0
5, 5374, Note_on_c, 0, 55, 0
5, 5376, Note_on_c, 0, 60, 65
5, 5376, Note_on_c, 0, 68, 65
5, 5376, Note_on_c, 0, 44, 65
5, 5376, Note_on_c, 0, 63, 65
5, 5376, Note_on_c, 0, 56, 65
5, 5376, Note_on_c, 0, 51, 63
5, 5469, Note_on_c, 0, 56, 0
5, 5469, Note_on_c, 0, 63, 0
5, 5469, Note_on_c, 0, 44, 0
5, 5469, Note_on_c, 0, 60, 0
5, 5469, Note_on_c, 0, 68, 0
5, 5470, Note_on_c, 0, 51, 0
5, 5472, Note_on_c, 0, 60, 65
5, 5472, Note_on_c, 0, 68, 65
5, 5472, Note_on_c, 0, 63, 65
5, 5472, Note_on_c, 0, 44, 65
5, 5472, Note_on_c, 0, 56, 65
5, 5472, Note_on_c, 0, 51, 63
5, 5565, Note_on_c, 0, 56, 0
5, 5565, Note_on_c, 0, 44, 0
5, 5565, Note_on_c, 0, 63, 0
5, 5565, Note_on_c, 0, 60, 0
5, 5565, Note_on_c, 0, 68, 0
5, 5566, Note_on_c, 0, 51, 0
5, 5568, Note_on_c, 0, 60, 65
5, 5568, Note_on_c, 0, 68, 65
5, 5568, Note_on_c, 0, 63, 65
5, 5568, Note_on_c, 0, 56, 65
5, 5568, Note_on_c, 0, 44, 65
5, 5568, Note_on_c, 0, 51, 63
5, 5661, Note_on_c, 0, 44, 0
5, 5661, Note_on_c, 0, 56, 0
5, 5661, Note_on_c, 0, 63, 0
5, 5661, Note_on_c, 0, 60, 0
5, 5661, Note_on_c, 0, 68, 0
5, 5662, Note_on_c, 0, 51, 0
5, 5664, Note_on_c, 0, 60, 65
5, 5664, Note_on_c, 0, 44, 65
5, 5664, Note_on_c, 0, 63, 65
5, 5664, Note_on_c, 0, 56, 65
5, 5664, Note_on_c, 0, 68, 65
5, 5664, Note_on_c, 0, 51, 63
5, 5757, Note_on_c, 0, 68, 0
5, 5757, Note_on_c, 0, 56, 0
5, 5757, Note_on_c, 0, 63, 0
5, 5757, Note_on_c, 0, 60, 0
5, 5757, Note_on_c, 0, 44, 0
5, 5758, Note_on_c, 0, 51, 0
5, 5760, Note_on_c, 0, 60, 65
5, 5760, Note_on_c, 0, 44, 65
5, 5760, Note_on_c, 0, 63, 65
5, 5760, Note_on_c, 0, 56, 65
5, 5760, Note_on_c, 0, 68, 65
5, 5760, Note_on_c, 0, 51, 63
5, 5853, Note_on_c, 0, 68, 0
5, 5853, Note_on_c, 0, 56, 0
5, 5853, Note_on_c, 0, 63, 0
5, 5853, Note_on_c, 0, 60, 0
5, 5853, Note_on_c, 0, 44, 0
5, 5854, Note_on_c, 0, 51, 0
5, 5856, Note_on_c, 0, 60, 65
5, 5856, Note_on_c, 0, 56, 65
5, 5856, Note_on_c, 0, 63, 65
5, 5856, Note_on_c, 0, 68, 65
5, 5856, Note_on_c, 0, 44, 65
5, 5856, Note_on_c, 0, 51, 63
5, 5949, Note_on_c, 0, 44, 0
5, 5949, Note_on_c, 0, 68, 0
5, 5949, Note_on_c, 0, 63, 0
5, 5949, Note_on_c, 0, 60, 0
5, 5949, Note_on_c, 0, 56, 0
5, 5950, Note_on_c, 0, 51, 0
5, 5952, Note_on_c, 0, 60, 65
5, 5952, Note_on_c, 0, 44, 65
5, 5952, Note_on_c, 0, 63, 65
5, 5952, Note_on_c, 0, 68, 65
5, 5952, Note_on_c, 0, 56, 65
5, 5952, Note_on_c, 0, 51, 63
5, 6045, Note_on_c, 0, 56, 0
5, 6045, Note_on_c, 0, 68, 0
5, 6045, Note_on_c, 0, 63, 0
5, 6045, Note_on_c, 0, 60, 0
5, 6045, Note_on_c, 0, 44, 0
5, 6046, Note_on_c, 0, 51, 0
5, 6048, Note_on_c, 0, 60, 65
5, 6048, Note_on_c, 0, 44, 65
5, 6048, Note_on_c, 0, 63, 65
5, 6048, Note_on_c, 0, 68, 65
5, 6048, Note_on_c, 0, 56, 65
5, 6048, Note_on_c, 0, 51, 63
5, 6141, Note_on_c, 0, 56, 0
5, 6141, Note_on_c, 0, 68, 0
5, 6141, Note_on_c, 0, 63, 0
5, 6141, Note_on_c, 0, 60, 0
5, 6141, Note_on_c, 0, 44, 0
5, 6142, Note_on_c, 0, 51, 0
5, 6144, Note_on_c, 0, 60, 65
5, 6144, Note_on_c, 0, 56, 65
5, 6144, Note_on_c, 0, 68, 65
5, 6144, Note_on_c, 0, 44, 65
5, 6144, Note_on_c, 0, 63, 65
5, 6144, Note_on_c, 0, 51, 63
5, 6237, Note_on_c, 0, 63, 0
5, 6237, Note_on_c, 0, 44, 0
5, 6237, Note_on_c, 0, 68, 0
5, 6237, Note_on_c, 0, 60, 0
5, 6237, Note_on_c, 0, 56, 0
5, 6238, Note_on_c, 0, 51, 0
5, 6240, Note_on_c, 0, 60, 65
5, 6240, Note_on_c, 0, 56, 65
5, 6240, Note_on_c, 0, 44, 65
5, 6240, Note_on_c, 0, 63, 65
5, 6240, Note_on_c, 0, 68, 65
5, 6240, Note_on_c, 0, 51, 63
5, 6333, Note_on_c, 0, 68, 0
5, 6333, Note_on_c, 0, 63, 0
5, 6333, Note_on_c, 0, 44, 0
5, 6333, Note_on_c, 0, 60, 0
5, 6333, Note_on_c, 0, 56, 0
5, 6334, Note_on_c, 0, 51, 0
5, 6336, Note_on_c, 0, 60, 65
5, 6336, Note_on_c, 0, 63, 65
5, 6336, Note_on_c, 0, 44, 65
5, 6336, Note_on_c, 0, 56, 65
5, 6336, Note_on_c, 0, 68, 65
5, 6336, Note_on_c, 0, 51, 63
5, 6429, Note_on_c, 0, 68, 0
5, 6429, Note_on_c, 0, 56, 0
5, 6429, Note_on_c, 0, 44, 0
5, 6429, Note_on_c, 0, 60, 0
5, 6429, Note_on_c, 0, 63, 0
5, 6430, Note_on_c, 0, 51, 0
5, 6432, Note_on_c, 0, 60, 65
5, 6432, Note_on_c, 0, 56, 65
5, 6432, Note_on_c, 0, 68, 65
5, 6432, Note_on_c, 0, 63, 65
5, 6432, Note_on_c, 0, 44, 65
5, 6432, Note_on_c, 0, 51, 63
5, 6525, Note_on_c, 0, 44, 0
5, 6525, Note_on_c, 0, 63, 0
5, 6525, Note_on_c, 0, 68, 0
5, 6525, Note_on_c, 0, 60, 0
5, 6525, Note_on_c, 0, 56, 0
5, 6526, Note_on_c, 0, 51, 0
5, 6528, Note_on_c, 0, 60, 65
5, 6528, Note_on_c, 0, 56, 65
5, 6528, Note_on_c, 0, 63, 65
5, 6528, Note_on_c, 0, 44, 65
5, 6528, Note_on_c, 0, 68, 65
5, 6528, Note_on_c, 0, 51, 63
5, 6621, Note_on_c, 0, 68, 0
5, 6621, Note_on_c, 0, 44, 0
5, 6621, Note_on_c, 0, 63, 0
5, 6621, Note_on_c, 0, 60, 0
5, 6621, Note_on_c, 0, 56, 0
5, 6622, Note_on_c, 0, 51, 0
5, 6624, Note_on_c, 0, 58, 65
5, 6624, Note_on_c, 0, 63, 65
5, 6624, Note_on_c, 0, 39, 65
5, 6624, Note_on_c, 0, 55, 65
5, 6624, Note_on_c, 0, 67, 65
5, 6624, Note_on_c, 0, 51, 63
5, 6717, Note_on_c, 0, 67, 0
5, 6717, Note_on_c, 0, 55, 0
5, 6717, Note_on_c, 0, 39, 0
5, 6717, Note_on_c, 0, 58, 0
5, 6717, Note_on_c, 0, 63, 0
5, 6718, Note_on_c, 0, 51, 0
5, 6720, Note_on_c, 0, 60, 65
5, 6720, Note_on_c, 0, 68, 65
5, 6720, Note_on_c, 0, 56, 65
5, 6720, Note_on_c, 0, 63, 65
5, 6720, Note_on_c, 0, 44, 65
5, 6720, Note_on_c, 0, 51, 63
5, 7484, Note_on_c, 0, 51, 0
5, 7484, Note_on_c, 0, 68, 0
5, 7484, Note_on_c, 0, 56, 0
5, 7484, Note_on_c, 0, 60, 0
5, 7484, Note_on_c, 0, 44, 0
5, 7484, Note_on_c, 0, 63, 0
5, 7488, Note_on_c, 0, 58, 65
5, 7488, Note_on_c, 0, 67, 65
5, 7488, Note_on_c, 0, 63, 65
5, 7488, Note_on_c, 0, 51, 65
5, 7488, Note_on_c, 0, 55, 63
5, 7581, Note_on_c, 0, 51, 0
5, 7581, Note_on_c, 0, 63, 0
5, 7581, Note_on_c, 0, 58, 0
5, 7581, Note_on_c, 0, 67, 0
5, 7582, Note_on_c, 0, 55, 0
5, 7584, Note_on_c, 0, 51, 65
5, 7584, Note_on_c, 0, 63, 65
5, 7584, Note_on_c, 0, 67, 65
5, 7584, Note_on_c, 0, 58, 65
5, 7584, Note_on_c, 0, 55, 63
5, 7677, Note_on_c, 0, 58, 0
5, 7677, Note_on_c, 0, 67, 0
5, 7677, Note_on_c, 0, 51, 0
5, 7677, Note_on_c, 0, 63, 0
5, 7678, Note_on_c, 0, 55, 0
5, 7680, Note_on_c, 0, 58, 65
5, 7680, Note_on_c, 0, 67, 65
5, 7680, Note_on_c, 0, 63, 65
5, 7680, Note_on_c, 0, 51, 65
5, 7680, Note_on_c, 0, 55, 63
5, 7773, Note_on_c, 0, 51, 0
5, 7773, Note_on_c, 0, 63, 0
5, 7773, Note_on_c, 0, 58, 0
5, 7773, Note_on_c, 0, 67, 0
5, 7774, Note_on_c, 0, 55, 0
5, 7776, Note_on_c, 0, 63, 65
5, 7776, Note_on_c, 0, 58, 65
5, 7776, Note_on_c, 0, 51, 65
5, 7776, Note_on_c, 0, 67, 65
5, 7776, Note_on_c, 0, 55, 63
5, 7869, Note_on_c, 0, 67, 0
5, 7869, Note_on_c, 0, 51, 0
5, 7869, Note_on_c, 0, 63, 0
5, 7869, Note_on_c, 0, 58, 0
5, 7870, Note_on_c, 0, 55, 0
5, 7872, Note_on_c, 0, 67, 65
5, 7872, Note_on_c, 0, 58, 65
5, 7872, Note_on_c, 0, 51, 65
5, 7872, Note_on_c, 0, 63, 65
5, 7872, Note_on_c, 0, 55, 63
5, 7965, Note_on_c, 0, 63, 0
5, 7965, Note_on_c, 0, 51, 0
5, 7965, Note_on_c, 0, 67, 0
5, 7965, Note_on_c, 0, 58, 0
5, 7966, Note_on_c, 0, 55, 0
5, 7968, Note_on_c, 0, 67, 65
5, 7968, Note_on_c, 0, 58, 65
5, 7968, Note_on_c, 0, 51, 65
5, 7968, Note_on_c, 0, 63, 65
5, 7968, Note_on_c, 0, 55, 63
5, 8061, Note_on_c, 0, 63, 0
5, 8061, Note_on_c, 0, 51, 0
5, 8061, Note_on_c, 0, 67, 0
5, 8061, Note_on_c, 0, 58, 0
5, 8062, Note_on_c, 0, 55, 0
5, 8064, Note_on_c, 0, 65, 65
5, 8064, Note_on_c, 0, 58, 65
5, 8064, Note_on_c, 0, 46, 65
5, 8064, Note_on_c, 0, 62, 65
5, 8064, Note_on_c, 0, 50, 63
5, 8064, Note_on_c, 0, 53, 63
5, 8349, Note_on_c, 0, 62, 0
5, 8349, Note_on_c, 0, 46, 0
5, 8349, Note_on_c, 0, 65, 0
5, 8349, Note_on_c, 0, 58, 0
5, 8350, Note_on_c, 0, 53, 0
5, 8350, Note_on_c, 0, 50, 0
5, 8352, Note_on_c, 0, 65, 65
5, 8352, Note_on_c, 0, 46, 65
5, 8352, Note_on_c, 0, 58, 65
5, 8352, Note_on_c, 0, 62, 65
5, 8352, Note_on_c, 0, 53, 63
5, 8352, Note_on_c, 0, 50, 63
5, 8445, Note_on_c, 0, 62, 0
5, 8445, Note_on_c, 0, 58, 0
5, 8445, Note_on_c, 0, 65, 0
5, 8445, Note_on_c, 0, 46, 0
5, 8446, Note_on_c, 0, 50, 0
5, 8446, Note_on_c, 0, 53, 0
5, 8448, Note_on_c, 0, 63, 65
5, 8448, Note_on_c, 0, 58, 65
5, 8448, Note_on_c, 0, 67, 65
5, 8448, Note_on_c, 0, 51, 65
5, 8448, Note_on_c, 0, 55, 63
5, 9020, Note_on_c, 0, 51, 0
5, 9020, Note_on_c, 0, 67, 0
5, 9020, Note_on_c, 0, 63, 0
5, 9020, Note_on_c, 0, 58, 0
5, 9022, Note_on_c, 0, 55, 0
5, 9024, Note_on_c, 0, 60, 65
5, 9024, Note_on_c, 0, 55, 65
5, 9024, Note_on_c, 0, 63, 65
5, 9024, Note_on_c, 0, 48, 65
5, 9117, Note_on_c, 0, 48, 0
5, 9117, Note_on_c, 0, 60, 0
5, 9117, Note_on_c, 0, 55, 0
5, 9117, Note_on_c, 0, 63, 0
5, 9120, Note_on_c, 0, 55, 65
5, 9120, Note_on_c, 0, 48, 65
5, 9120, Note_on_c, 0, 60, 65
5, 9120, Note_on_c, 0, 63, 65
5, 9213, Note_on_c, 0, 63, 0
5, 9213, Note_on_c, 0, 55, 0
5, 9213, Note_on_c, 0, 48, 0
5, 9213, Note_on_c, 0, 60, 0
5, 9216, Note_on_c, 0, 65, 63
5, 9216, Note_on_c, 0, 58, 65
5, 9216, Note_on_c, 0, 62, 65
5, 9216, Note_on_c, 0, 46, 65
5, 9216, Note_on_c, 0, 53, 63
5, 9216, Note_on_c, 0, 50, 63
5, 9406, Note_on_c, 0, 50, 0
5, 9408, Note_on_c, 0, 58, 0
5, 9408, Note_on_c, 0, 62, 0
5, 9408, Note_on_c, 0, 65, 0
5, 9408, Note_on_c, 0, 53, 0
5, 9408, Note_on_c, 0, 46, 0
5, 9408, Note_on_c, 0, 58, 65
5, 9408, Note_on_c, 0, 67, 65
5, 9408, Note_on_c, 0, 51, 65
5, 9408, Note_on_c, 0, 63, 65
5, 9408, Note_on_c, 0, 55, 63
5, 9596, Note_on_c, 0, 63, 0
5, 9596, Note_on_c, 0, 51, 0
5, 9596, Note_on_c, 0, 67, 0
5, 9598, Note_on_c, 0, 55, 0
5, 9600, Note_on_c, 0, 58, 0
5, 9600, Note_on_c, 0, 63, 65
5, 9600, Note_on_c, 0, 58, 65
5, 9600, Note_on_c, 0, 51, 65
5, 9600, Note_on_c, 0, 55, 65
5, 9693, Note_on_c, 0, 55, 0
5, 9693, Note_on_c, 0, 63, 0
5, 9693, Note_on_c, 0, 58, 0
5, 9693, Note_on_c, 0, 51, 0
5, 9696, Note_on_c, 0, 58, 65
5, 9696, Note_on_c, 0, 55, 65
5, 9696, Note_on_c, 0, 63, 65
5, 9696, Note_on_c, 0, 51, 65
5, 9789, Note_on_c, 0, 51, 0
5, 9789, Note_on_c, 0, 58, 0
5, 9789, Note_on_c, 0, 55, 0
5, 9789, Note_on_c, 0, 63, 0
5, 9792, Note_on_c, 0, 65, 65
5, 9792, Note_on_c, 0, 58, 65
5, 9792, Note_on_c, 0, 62, 65
5, 9792, Note_on_c, 0, 46, 65
5, 9792, Note_on_c, 0, 53, 63
5, 9792, Note_on_c, 0, 50, 63
5, 9885, Note_on_c, 0, 46, 0
5, 9885, Note_on_c, 0, 62, 0
5, 9885, Note_on_c, 0, 65, 0
5, 9885, Note_on_c, 0, 58, 0
5, 9886, Note_on_c, 0, 50, 0
5, 9886, Note_on_c, 0, 53, 0
5, 9888, Note_on_c, 0, 58, 63
5, 9888, Note_on_c, 0, 63, 65
5, 9888, Note_on_c, 0, 51, 65
5, 9888, Note_on_c, 0, 67, 65
5, 9888, Note_on_c, 0, 55, 63
5, 9982, Note_on_c, 0, 55, 0
5, 9984, Note_on_c, 0, 51, 0
5, 9984, Note_on_c, 0, 58, 0
5, 9984, Note_on_c, 0, 63, 0
5, 9984, Note_on_c, 0, 67, 0
5, 9984, Note_on_c, 0, 63, 30
5, 9984, Note_on_c, 0, 68, 65
5, 9984, Note_on_c, 0, 60, 65
5, 9984, Note_on_c, 0, 44, 65
5, 9984, Note_on_c, 0, 51, 63
5, 9984, Note_on_c, 0, 56, 63
5, 10748, Note_on_c, 0, 44, 0
5, 10748, Note_on_c, 0, 60, 0
5, 10748, Note_on_c, 0, 63, 0
5, 10748, Note_on_c, 0, 68, 0
5, 10750, Note_on_c, 0, 56, 0
5, 10750, Note_on_c, 0, 51, 0
5, 10848, Note_on_c, 0, 63, 82
5, 10848, Note_on_c, 0, 58, 82
5, 10848, Note_on_c, 0, 67, 82
5, 10848, Note_on_c, 0, 39, 82
5, 10848, Note_on_c, 0, 55, 79
5, 10848, Note_on_c, 0, 51, 79
5, 10942, Note_on_c, 0, 51, 0
5, 10942, Note_on_c, 0, 58, 0
5, 10942, Note_on_c, 0, 67, 0
5, 10942, Note_on_c, 0, 63, 0
5, 10942, Note_on_c, 0, 55, 0
5, 10942, Note_on_c, 0, 39, 0
5, 10944, Note_on_c, 0, 39, 82
5, 10944, Note_on_c, 0, 58, 82
5, 10944, Note_on_c, 0, 63, 82
5, 10944, Note_on_c, 0, 67, 82
5, 10944, Note_on_c, 0, 55, 79
5, 10944, Note_on_c, 0, 51, 79
5, 11326, Note_on_c, 0, 51, 0
5, 11326, Note_on_c, 0, 55, 0
5, 11328, Note_on_c, 0, 63, 0
5, 11328, Note_on_c, 0, 39, 0
5, 11328, Note_on_c, 0, 58, 0
5, 11328, Note_on_c, 0, 67, 0
5, 11328, Note_on_c, 0, 39, 82
5, 11328, Note_on_c, 0, 67, 82
5, 11328, Note_on_c, 0, 58, 82
5, 11328, Note_on_c, 0, 63, 82
5, 11328, Note_on_c, 0, 51, 79
5, 11328, Note_on_c, 0, 55, 79
5, 11422, Note_on_c, 0, 55, 0
5, 11422, Note_on_c, 0, 67, 0
5, 11422, Note_on_c, 0, 58, 0
5, 11422, Note_on_c, 0, 39, 0
5, 11422, Note_on_c, 0, 51, 0
5, 11422, Note_on_c, 0, 63, 0
5, 11424, Note_on_c, 0, 63, 82
5, 11424, Note_on_c, 0, 67, 82
5, 11424, Note_on_c, 0, 58, 82
5, 11424, Note_on_c, 0, 39, 82
5, 11424, Note_on_c, 0, 55, 79
5, 11424, Note_on_c, 0, 51, 79
5, 11518, Note_on_c, 0, 51, 0
5, 11518, Note_on_c, 0, 67, 0
5, 11518, Note_on_c, 0, 58, 0
5, 11518, Note_on_c, 0, 63, 0
5, 11518, Note_on_c, 0, 55, 0
5, 11518, Note_on_c, 0, 39, 0
5, 11520, Note_on_c, 0, 65, 82
5, 11520, Note_on_c, 0, 58, 82
5, 11520, Note_on_c, 0, 62, 82
5, 11520, Note_on_c, 0, 46, 82
5, 11520, Note_on_c, 0, 50, 79
5, 11520, Note_on_c, 0, 53, 79
5, 11902, Note_on_c, 0, 53, 0
5, 11902, Note_on_c, 0, 50, 0
5, 11904, Note_on_c, 0, 62, 0
5, 11904, Note_on_c, 0, 65, 0
5, 11904, Note_on_c, 0, 58, 0
5, 11904, Note_on_c, 0, 46, 0
5, 11904, Note_on_c, 0, 65, 82
5, 11904, Note_on_c, 0, 62, 82
5, 11904, Note_on_c, 0, 46, 82
5, 11904, Note_on_c, 0, 58, 82
5, 11904, Note_on_c, 0, 53, 79
5, 11904, Note_on_c, 0, 50, 79
5, 12094, Note_on_c, 0, 50, 0
5, 12094, Note_on_c, 0, 62, 0
5, 12094, Note_on_c, 0, 46, 0
5, 12094, Note_on_c, 0, 65, 0
5, 12094, Note_on_c, 0, 53, 0
5, 12094, Note_on_c, 0, 58, 0
5, 12096, Note_on_c, 0, 67, 82
5, 12096, Note_on_c, 0, 62, 82
5, 12096, Note_on_c, 0, 43, 82
5, 12096, Note_on_c, 0, 59, 82
5, 12096, Note_on_c, 0, 50, 79
5, 12096, Note_on_c, 0, 55, 79
5, 12720, Note_on_c, 0, 55, 0
5, 12720, Note_on_c, 0, 62, 0
5, 12720, Note_on_c, 0, 43, 0
5, 12720, Note_on_c, 0, 67, 0
5, 12720, Note_on_c, 0, 50, 0
5, 12720, Note_on_c, 0, 59, 0
5, 13248, Control_c, 0, 7, 120
5, 14496, Note_on_c, 0, 60, 20
5, 14496, Note_on_c, 0, 56, 20
5, 14496, Note_on_c, 0, 48, 20
5, 14590, Note_on_c, 0, 48, 0
5, 14590, Note_on_c, 0, 56, 0
5, 14590, Note_on_c, 0, 60, 0
5, 14592, Note_on_c, 0, 48, 20
5, 14592, Note_on_c, 0, 60, 20
5, 14592, Note_on_c, 0, 56, 20
5, 14782, Note_on_c, 0, 56, 0
5, 14782, Note_on_c, 0, 60, 0
5, 14782, Note_on_c, 0, 48, 0
5, 14784, Note_on_c, 0, 56, 20
5, 14784, Note_on_c, 0, 48, 20
5, 14784, Note_on_c, 0, 60, 20
5, 14878, Note_on_c, 0, 60, 0
5, 14878, Note_on_c, 0, 48, 0
5, 14878, Note_on_c, 0, 56, 0
5, 14880, Note_on_c, 0, 48, 20
5, 14880, Note_on_c, 0, 60, 20
5, 14880, Note_on_c, 0, 56, 20
5, 14974, Note_on_c, 0, 56, 0
5, 14974, Note_on_c, 0, 60, 0
5, 14974, Note_on_c, 0, 48, 0
5, 14976, Note_on_c, 0, 55, 20
5, 14976, Note_on_c, 0, 60, 20
5, 15358, Note_on_c, 0, 60, 0
5, 15358, Note_on_c, 0, 55, 0
5, 15360, Note_on_c, 0, 60, 20
5, 15360, Note_on_c, 0, 55, 20
5, 15550, Note_on_c, 0, 55, 0
5, 15550, Note_on_c, 0, 60, 0
5, 15552, Note_on_c, 0, 62, 20
5, 15552, Note_on_c, 0, 70, 20
5, 15934, Note_on_c, 0, 70, 0
5, 15934, Note_on_c, 0, 62, 0
5, 16224, Note_on_c, 0, 56, 20
5, 16224, Note_on_c, 0, 72, 20
5, 16224, Note_on_c, 0, 63, 20
5, 16318, Note_on_c, 0, 63, 0
5, 16318, Note_on_c, 0, 72, 0
5, 16318, Note_on_c, 0, 56, 0
5, 16320, Note_on_c, 0, 56, 20
5, 16320, Note_on_c, 0, 72, 20
5, 16320, Note_on_c, 0, 63, 20
5, 16512, Note_on_c, 0, 63, 0
5, 16512, Note_on_c, 0, 72, 0
5, 16512, Note_on_c, 0, 56, 0
5, 16512, Note_on_c, 0, 53, 63
5, 16512, Note_on_c, 0, 61, 20
5, 16512, Note_on_c, 0, 68, 20
5, 16704, Note_on_c, 0, 68, 0
5, 16704, Note_on_c, 0, 61, 0
5, 16704, Note_on_c, 0, 53, 0
5, 16704, Note_on_c, 0, 73, 39
5, 16704, Note_on_c, 0, 65, 39
5, 16704, Note_on_c, 0, 58, 39
5, 17086, Note_on_c, 0, 58, 0
5, 17086, Note_on_c, 0, 65, 0
5, 17086, Note_on_c, 0, 73, 0
5, 17376, Note_on_c, 0, 63, 57
5, 17376, Note_on_c, 0, 72, 57
5, 17376, Note_on_c, 0, 75, 57
5, 17470, Note_on_c, 0, 75, 0
5, 17470, Note_on_c, 0, 72, 0
5, 17470, Note_on_c, 0, 63, 0
5, 17472, Note_on_c, 0, 63, 57
5, 17472, Note_on_c, 0, 75, 57
5, 17472, Note_on_c, 0, 72, 57
5, 17662, Note_on_c, 0, 72, 0
5, 17662, Note_on_c, 0, 75, 0
5, 17662, Note_on_c, 0, 63, 0
5, 17664, Note_on_c, 0, 72, 57
5, 17664, Note_on_c, 0, 65, 57
5, 17854, Note_on_c, 0, 65, 0
5, 17854, Note_on_c, 0, 72, 0
5, 17856, Note_on_c, 0, 65, 57
5, 17856, Note_on_c, 0, 77, 57
5, 17856, Note_on_c, 0, 73, 57
5, 18238, Note_on_c, 0, 73, 0
5, 18238, Note_on_c, 0, 77, 0
5, 18238, Note_on_c, 0, 65, 0
5, 18240, Note_on_c, 0, 77, 57
5, 18240, Note_on_c, 0, 65, 57
5, 18240, Note_on_c, 0, 73, 57
5, 18622, Note_on_c, 0, 73, 0
5, 18622, Note_on_c, 0, 65, 0
5, 18622, Note_on_c, 0, 77, 0
5, 18624, Note_on_c, 0, 73, 75
5, 18624, Note_on_c, 0, 65, 75
5, 18624, Note_on_c, 0, 77, 75
5, 19006, Note_on_c, 0, 77, 0
5, 19006, Note_on_c, 0, 65, 0
5, 19006, Note_on_c, 0, 73, 0
5, 19008, Note_on_c, 0, 55, 75
5, 19294, Note_on_c, 0, 55, 0
5, 19296, Note_on_c, 0, 59, 75
5, 19390, Note_on_c, 0, 59, 0
5, 19392, Note_on_c, 0, 59, 75
5, 19392, Note_on_c, 0, 59, 75
5, 19392, Note_on_c, 0, 50, 75
5, 19486, Note_on_c, 0, 50, 0
5, 19486, Note_on_c, 0, 59, 0
5, 19486, Note_on_c, 0, 59, 0
5, 19488, Note_on_c, 0, 50, 75
5, 19488, Note_on_c, 0, 50, 75
5, 19488, Note_on_c, 0, 55, 75
5, 19582, Note_on_c, 0, 55, 0
5, 19582, Note_on_c, 0, 50, 0
5, 19582, Note_on_c, 0, 50, 0
5, 19584, Note_on_c, 0, 55, 75
5, 19584, Note_on_c, 0, 55, 75
5, 19678, Note_on_c, 0, 55, 0
5, 19678, Note_on_c, 0, 55, 0
5, 20160, Note_on_c, 0, 60, 56
5, 20254, Note_on_c, 0, 60, 0
5, 20256, Note_on_c, 0, 60, 1
5, 20256, Note_on_c, 0, 60, 56
5, 20350, Note_on_c, 0, 60, 0
5, 20350, Note_on_c, 0, 60, 0
5, 20352, Note_on_c, 0, 60, 1
5, 20352, Note_on_c, 0, 60, 56
5, 20446, Note_on_c, 0, 60, 0
5, 20446, Note_on_c, 0, 60, 0
5, 20448, Note_on_c, 0, 60, 1
5, 20448, Note_on_c, 0, 60, 56
5, 20542, Note_on_c, 0, 60, 0
5, 20542, Note_on_c, 0, 60, 0
5, 20544, Note_on_c, 0, 60, 1
5, 20544, Note_on_c, 0, 60, 56
5, 20638, Note_on_c, 0, 60, 0
5, 20638, Note_on_c, 0, 60, 0
5, 20640, Note_on_c, 0, 60, 1
5, 20640, Note_on_c, 0, 60, 56
5, 20734, Note_on_c, 0, 60, 0
5, 20734, Note_on_c, 0, 60, 0
5, 20736, Note_on_c, 0, 60, 56
5, 20830, Note_on_c, 0, 60, 0
5, 20832, Note_on_c, 0, 60, 56
5, 20928, Note_on_c, 0, 60, 0
5, 20928, Note_on_c, 0, 60, 56
5, 21024, Note_on_c, 0, 60, 0
5, 21024, Note_on_c, 0, 60, 56
5, 21120, Note_on_c, 0, 60, 0
5, 21120, Note_on_c, 0, 60, 56
5, 21216, Note_on_c, 0, 60, 0
5, 21216, Note_on_c, 0, 60, 56
5, 21312, Note_on_c, 0, 60, 0
5, 21312, Note_on_c, 0, 60, 56
5, 21888, Note_on_c, 0, 60, 0
5, 25920, Note_on_c, 0, 54, 34
5, 26014, Note_on_c, 0, 54, 0
5, 26016, Note_on_c, 0, 66, 35
5, 26016, Note_on_c, 0, 66, 35
5, 26110, Note_on_c, 0, 66, 0
5, 26110, Note_on_c, 0, 66, 0
5, 26112, Note_on_c, 0, 66, 38
5, 26206, Note_on_c, 0, 66, 0
5, 26208, Note_on_c, 0, 66, 42
5, 26304, Note_on_c, 0, 66, 0
5, 26304, Note_on_c, 0, 66, 46
5, 26400, Note_on_c, 0, 66, 0
5, 26400, Note_on_c, 0, 66, 50
5, 26496, Note_on_c, 0, 66, 0
5, 30528, Note_on_c, 0, 65, 57
5, 30622, Note_on_c, 0, 65, 0
5, 30912, Note_on_c, 0, 62, 57
5, 31006, Note_on_c, 0, 62, 0
5, 31104, Note_on_c, 0, 61, 57
5, 31104, Note_on_c, 0, 66, 57
5, 31198, Note_on_c, 0, 66, 0
5, 31198, Note_on_c, 0, 61, 0
5, 31488, Note_on_c, 0, 64, 57
5, 31582, Note_on_c, 0, 64, 0
5, 31680, Note_on_c, 0, 62, 57
5, 31680, Note_on_c, 0, 67, 57
5, 31774, Note_on_c, 0, 67, 0
5, 31774, Note_on_c, 0, 62, 0
5, 32064, Note_on_c, 0, 65, 57
5, 32158, Note_on_c, 0, 65, 0
5, 32256, Note_on_c, 0, 64, 57
5, 32256, Note_on_c, 0, 64, 57
5, 32350, Note_on_c, 0, 64, 0
5, 32350, Note_on_c, 0, 64, 0
5, 32448, Note_on_c, 0, 67, 57
5, 32542, Note_on_c, 0, 67, 0
5, 32640, Note_on_c, 0, 66, 57
5, 32640, Note_on_c, 0, 66, 57
5, 32734, Note_on_c, 0, 66, 0
5, 32734, Note_on_c, 0, 66, 0
5, 33600, Note_on_c, 0, 57, 75
5, 33886, Note_on_c, 0, 57, 0
5, 33888, Note_on_c, 0, 56, 75
5, 33982, Note_on_c, 0, 56, 0
5, 33984, Note_on_c, 0, 52, 36
5, 34078, Note_on_c, 0, 52, 0
5, 34080, Note_on_c, 0, 51, 39
5, 34174, Note_on_c, 0, 51, 0
5, 34176, Note_on_c, 0, 49, 38
5, 34270, Note_on_c, 0, 49, 0
5, 34272, Note_on_c, 0, 48, 34
5, 34366, Note_on_c, 0, 48, 0
5, 34368, Note_on_c, 0, 49, 39
5, 34462, Note_on_c, 0, 49, 0
5, 34464, Note_on_c, 0, 52, 43
5, 34558, Note_on_c, 0, 52, 0
5, 34560, Note_on_c, 0, 56, 75
5, 34654, Note_on_c, 0, 56, 0
5, 34752, Note_on_c, 0, 61, 75
5, 34752, Note_on_c, 0, 64, 75
5, 34846, Note_on_c, 0, 61, 0
5, 35038, Note_on_c, 0, 64, 0
5, 35040, Note_on_c, 0, 61, 75
5, 35134, Note_on_c, 0, 61, 0
5, 35136, Note_on_c, 0, 56, 75
5, 35230, Note_on_c, 0, 56, 0
5, 35328, Note_on_c, 0, 52, 75
5, 35328, Note_on_c, 0, 49, 39
5, 35422, Note_on_c, 0, 49, 0
5, 35422, Note_on_c, 0, 52, 0
5, 35424, Note_on_c, 0, 73, 77
5, 35518, Note_on_c, 0, 73, 0
5, 35520, Note_on_c, 0, 73, 77
5, 35614, Note_on_c, 0, 73, 0
5, 35616, Note_on_c, 0, 73, 77
5, 35710, Note_on_c, 0, 73, 0
5, 35712, Note_on_c, 0, 73, 77
5, 35806, Note_on_c, 0, 73, 0
5, 35808, Note_on_c, 0, 73, 77
5, 35808, Note_on_c, 0, 73, 77
5, 35902, Note_on_c, 0, 73, 0
5, 35902, Note_on_c, 0, 73, 0
5, 35904, Note_on_c, 0, 66, 77
5, 35998, Note_on_c, 0, 66, 0
5, 36480, Note_on_c, 0, 62, 75
5, 36766, Note_on_c, 0, 62, 0
5, 36768, Note_on_c, 0, 61, 75
5, 36862, Note_on_c, 0, 61, 0
5, 36864, Note_on_c, 0, 57, 75
5, 36958, Note_on_c, 0, 57, 0
5, 36960, Note_on_c, 0, 56, 75
5, 37054, Note_on_c, 0, 56, 0
5, 37056, Note_on_c, 0, 54, 75
5, 37150, Note_on_c, 0, 54, 0
5, 37152, Note_on_c, 0, 53, 75
5, 37246, Note_on_c, 0, 53, 0
5, 37248, Note_on_c, 0, 54, 75
5, 37342, Note_on_c, 0, 54, 0
5, 37344, Note_on_c, 0, 57, 75
5, 37438, Note_on_c, 0, 57, 0
5, 37440, Note_on_c, 0, 61, 75
5, 37534, Note_on_c, 0, 61, 0
5, 37632, Note_on_c, 0, 66, 75
5, 37632, Note_on_c, 0, 69, 75
5, 37726, Note_on_c, 0, 69, 0
5, 37726, Note_on_c, 0, 66, 0
5, 37728, Note_on_c, 0, 70, 75
5, 37822, Note_on_c, 0, 70, 0
5, 37824, Note_on_c, 0, 71, 75
5, 37918, Note_on_c, 0, 71, 0
5, 37920, Note_on_c, 0, 73, 75
5, 38014, Note_on_c, 0, 73, 0
5, 38016, Note_on_c, 0, 74, 75
5, 38110, Note_on_c, 0, 74, 0
5, 38112, Note_on_c, 0, 74, 75
5, 38112, Note_on_c, 0, 71, 75
5, 38206, Note_on_c, 0, 71, 0
5, 38206, Note_on_c, 0, 74, 0
5, 38208, Note_on_c, 0, 71, 75
5, 38208, Note_on_c, 0, 66, 75
5, 38208, Note_on_c, 0, 60, 75
5, 38302, Note_on_c, 0, 71, 0
5, 38398, Note_on_c, 0, 60, 0
5, 38398, Note_on_c, 0, 66, 0
5, 38400, Note_on_c, 0, 59, 75
5, 38400, Note_on_c, 0, 67, 75
5, 38590, Note_on_c, 0, 67, 0
5, 38590, Note_on_c, 0, 59, 0
5, 38592, Note_on_c, 0, 68, 75
5, 38592, Note_on_c, 0, 62, 75
5, 38782, Note_on_c, 0, 62, 0
5, 38782, Note_on_c, 0, 68, 0
5, 38784, Note_on_c, 0, 61, 75
5, 38784, Note_on_c, 0, 69, 75
5, 38974, Note_on_c, 0, 69, 0
5, 38974, Note_on_c, 0, 61, 0
5, 38976, Note_on_c, 0, 70, 75
5, 38976, Note_on_c, 0, 64, 75
5, 39166, Note_on_c, 0, 64, 0
5, 39166, Note_on_c, 0, 70, 0
5, 39168, Note_on_c, 0, 71, 75
5, 39168, Note_on_c, 0, 62, 75
5, 39358, Note_on_c, 0, 62, 0
5, 39358, Note_on_c, 0, 71, 0
5, 39360, Note_on_c, 0, 72, 75
5, 39360, Note_on_c, 0, 66, 75
5, 39454, Note_on_c, 0, 66, 0
5, 39454, Note_on_c, 0, 72, 0
5, 39744, Note_on_c, 0, 63, 75
5, 39744, Note_on_c, 0, 69, 75
5, 39838, Note_on_c, 0, 69, 0
5, 39838, Note_on_c, 0, 63, 0
5, 39840, Note_on_c, 0, 60, 75
5, 39934, Note_on_c, 0, 60, 0
5, 39936, Note_on_c, 0, 63, 75
5, 39936, Note_on_c, 0, 69, 75
5, 40030, Note_on_c, 0, 69, 0
5, 40030, Note_on_c, 0, 63, 0
5, 40032, Note_on_c, 0, 66, 75
5, 40126, Note_on_c, 0, 66, 0
5, 40128, Note_on_c, 0, 69, 75
5, 40128, Note_on_c, 0, 63, 75
5, 40222, Note_on_c, 0, 63, 0
5, 40222, Note_on_c, 0, 69, 0
5, 40224, Note_on_c, 0, 63, 75
5, 40224, Note_on_c, 0, 69, 75
5, 40318, Note_on_c, 0, 69, 0
5, 40318, Note_on_c, 0, 63, 0
5, 40320, Note_on_c, 0, 75, 75
5, 40320, Note_on_c, 0, 66, 75
5, 40510, Note_on_c, 0, 66, 0
5, 40510, Note_on_c, 0, 75, 0
5, 40512, Note_on_c, 0, 66, 75
5, 40512, Note_on_c, 0, 75, 75
5, 40702, Note_on_c, 0, 75, 0
5, 40702, Note_on_c, 0, 66, 0
5, 47328, Note_on_c, 0, 58, 35
5, 47328, Note_on_c, 0, 60, 38
5, 47422, Note_on_c, 0, 60, 0
5, 47422, Note_on_c, 0, 58, 0
5, 47424, Note_on_c, 0, 62, 36
5, 47424, Note_on_c, 0, 63, 35
5, 47518, Note_on_c, 0, 63, 0
5, 47518, Note_on_c, 0, 62, 0
5, 47520, Note_on_c, 0, 65, 37
5, 47520, Note_on_c, 0, 67, 35
5, 47614, Note_on_c, 0, 67, 0
5, 47614, Note_on_c, 0, 65, 0
5, 47616, Note_on_c, 0, 68, 38
5, 47616, Note_on_c, 0, 70, 39
5, 47710, Note_on_c, 0, 68, 0
5, 48190, Note_on_c, 0, 70, 0
5, 48288, Note_on_c, 0, 69, 39
5, 48382, Note_on_c, 0, 69, 0
5, 48384, Note_on_c, 0, 70, 34
5, 48384, Note_on_c, 0, 70, 39
5, 48478, Note_on_c, 0, 70, 0
5, 48574, Note_on_c, 0, 70, 0
5, 48576, Note_on_c, 0, 63, 39
5, 48958, Note_on_c, 0, 63, 0
5, 49056, Note_on_c, 0, 62, 35
5, 49150, Note_on_c, 0, 62, 0
5, 49152, Note_on_c, 0, 61, 39
5, 49152, Note_on_c, 0, 60, 39
5, 49246, Note_on_c, 0, 61, 0
5, 49726, Note_on_c, 0, 60, 0
5, 49728, Note_on_c, 0, 61, 39
5, 49822, Note_on_c, 0, 61, 0
5, 49824, Note_on_c, 0, 60, 39
5, 49918, Note_on_c, 0, 60, 0
5, 49920, Note_on_c, 0, 59, 39
5, 49920, Note_on_c, 0, 58, 39
5, 50014, Note_on_c, 0, 59, 0
5, 50494, Note_on_c, 0, 58, 0
5, 50496, Note_on_c, 0, 75, 39
5, 50590, Note_on_c, 0, 75, 0
5, 50592, Note_on_c, 0, 70, 39
5, 50686, Note_on_c, 0, 70, 0
5, 50688, Note_on_c, 0, 67, 39
5, 50688, Note_on_c, 0, 63, 39
5, 50782, Note_on_c, 0, 63, 0
5, 50782, Note_on_c, 0, 67, 0
5, 51264, Note_on_c, 0, 70, 39
5, 51358, Note_on_c, 0, 70, 0
5, 51360, Note_on_c, 0, 67, 39
5, 51454, Note_on_c, 0, 67, 0
5, 51456, Note_on_c, 0, 63, 39
5, 51456, Note_on_c, 0, 58, 39
5, 51550, Note_on_c, 0, 58, 0
5, 51550, Note_on_c, 0, 63, 0
5, 52032, Note_on_c, 0, 67, 39
5, 52126, Note_on_c, 0, 67, 0
5, 52128, Note_on_c, 0, 63, 39
5, 52222, Note_on_c, 0, 63, 0
5, 52224, Note_on_c, 0, 58, 39
5, 52224, Note_on_c, 0, 57, 39
5, 52318, Note_on_c, 0, 57, 0
5, 52318, Note_on_c, 0, 58, 0
5, 55296, Note_on_c, 0, 54, 2
5, 55296, Note_on_c, 0, 63, 2
5, 55678, Note_on_c, 0, 63, 0
5, 55678, Note_on_c, 0, 54, 0
5, 55680, Note_on_c, 0, 54, 2
5, 55680, Note_on_c, 0, 63, 2
5, 56062, Note_on_c, 0, 63, 0
5, 56062, Note_on_c, 0, 54, 0
5, 56064, Note_on_c, 0, 63, 39
5, 56064, Note_on_c, 0, 54, 39
5, 56638, Note_on_c, 0, 54, 0
5, 56638, Note_on_c, 0, 63, 0
5, 59232, Note_on_c, 0, 65, 57
5, 59292, Note_on_c, 0, 65, 0
5, 59328, Note_on_c, 0, 62, 57
5, 59388, Note_on_c, 0, 62, 0
5, 59424, Note_on_c, 0, 59, 57
5, 59484, Note_on_c, 0, 59, 0
5, 59616, Note_on_c, 0, 59, 57
5, 59676, Note_on_c, 0, 59, 0
5, 59712, Note_on_c, 0, 56, 57
5, 59772, Note_on_c, 0, 56, 0
5, 59808, Note_on_c, 0, 56, 57
5, 59868, Note_on_c, 0, 56, 0
5, 60000, Note_on_c, 0, 53, 57
5, 60060, Note_on_c, 0, 53, 0
5, 60192, Note_on_c, 0, 53, 57
5, 60252, Note_on_c, 0, 53, 0
5, 60288, Note_on_c, 0, 53, 57
5, 60348, Note_on_c, 0, 53, 0
5, 60384, Note_on_c, 0, 56, 57
5, 60444, Note_on_c, 0, 56, 0
5, 60768, Note_on_c, 0, 58, 57
5, 60828, Note_on_c, 0, 58, 0
5, 60864, Note_on_c, 0, 56, 57
5, 60924, Note_on_c, 0, 56, 0
5, 61152, Note_on_c, 0, 54, 57
5, 61199, Note_on_c, 0, 54, 0
5, 61248, Note_on_c, 0, 53, 57
5, 61295, Note_on_c, 0, 53, 0
5, 61296, Note_on_c, 0, 50, 57
5, 61343, Note_on_c, 0, 50, 0
5, 61344, Note_on_c, 0, 51, 57
5, 61391, Note_on_c, 0, 51, 0
5, 61392, Note_on_c, 0, 53, 57
5, 61439, Note_on_c, 0, 53, 0
5, 61440, Note_on_c, 0, 54, 57
5, 61630, Note_on_c, 0, 54, 0
5, 61680, Note_on_c, 0, 54, 79
5, 61728, Note_on_c, 0, 53, 79
5, 61774, Note_on_c, 0, 54, 0
5, 61776, Note_on_c, 0, 58, 79
5, 61822, Note_on_c, 0, 53, 0
5, 61824, Note_on_c, 0, 57, 79
5, 61870, Note_on_c, 0, 58, 0
5, 61884, Note_on_c, 0, 57, 0
5, 62064, Note_on_c, 0, 54, 79
5, 62104, Note_on_c, 0, 54, 0
5, 62112, Note_on_c, 0, 56, 79
5, 62152, Note_on_c, 0, 56, 0
5, 62160, Note_on_c, 0, 58, 79
5, 62200, Note_on_c, 0, 58, 0
5, 62208, Note_on_c, 0, 60, 79
5, 62248, Note_on_c, 0, 60, 0
5, 62256, Note_on_c, 0, 58, 79
5, 62296, Note_on_c, 0, 58, 0
5, 62304, Note_on_c, 0, 60, 79
5, 62344, Note_on_c, 0, 60, 0
5, 62352, Note_on_c, 0, 62, 79
5, 62392, Note_on_c, 0, 62, 0
5, 62400, Note_on_c, 0, 63, 79
5, 62440, Note_on_c, 0, 63, 0
5, 62448, Note_on_c, 0, 62, 79
5, 62488, Note_on_c, 0, 62, 0
5, 62496, Note_on_c, 0, 63, 79
5, 62536, Note_on_c, 0, 63, 0
5, 62544, Note_on_c, 0, 65, 79
5, 62584, Note_on_c, 0, 65, 0
5, 62592, Note_on_c, 0, 66, 79
5, 62732, Note_on_c, 0, 66, 0
5, 62736, Note_on_c, 0, 65, 91
5, 62776, Note_on_c, 0, 65, 0
5, 62784, Note_on_c, 0, 63, 79
5, 62878, Note_on_c, 0, 63, 0
5, 63360, Note_on_c, 0, 58, 57
5, 63550, Note_on_c, 0, 58, 0
5, 63552, Note_on_c, 0, 58, 57
5, 63646, Note_on_c, 0, 58, 0
5, 64128, Note_on_c, 0, 63, 46
5, 64222, Note_on_c, 0, 63, 0
5, 64224, Note_on_c, 0, 63, 41
5, 64318, Note_on_c, 0, 63, 0
5, 64320, Note_on_c, 0, 63, 43
5, 64414, Note_on_c, 0, 63, 0
5, 64416, Note_on_c, 0, 63, 54
5, 64510, Note_on_c, 0, 63, 0
5, 64512, Note_on_c, 0, 59, 48
5, 64572, Note_on_c, 0, 59, 0
5, 64608, Note_on_c, 0, 58, 46
5, 64668, Note_on_c, 0, 58, 0
5, 64704, Note_on_c, 0, 56, 47
5, 64764, Note_on_c, 0, 56, 0
5, 64800, Note_on_c, 0, 54, 45
5, 64860, Note_on_c, 0, 54, 0
5, 64896, Note_on_c, 0, 53, 47
5, 64956, Note_on_c, 0, 53, 0
5, 64992, Note_on_c, 0, 51, 40
5, 65052, Note_on_c, 0, 51, 0
5, 65088, Note_on_c, 0, 59, 46
5, 65148, Note_on_c, 0, 59, 0
5, 65376, Note_on_c, 0, 65, 47
5, 65470, Note_on_c, 0, 65, 0
5, 65472, Note_on_c, 0, 62, 49
5, 65566, Note_on_c, 0, 62, 0
5, 65568, Note_on_c, 0, 59, 47
5, 65662, Note_on_c, 0, 59, 0
5, 65760, Note_on_c, 0, 59, 45
5, 65854, Note_on_c, 0, 59, 0
5, 65856, Note_on_c, 0, 56, 42
5, 65950, Note_on_c, 0, 56, 0
5, 65952, Note_on_c, 0, 56, 57
5, 66046, Note_on_c, 0, 56, 0
5, 66144, Note_on_c, 0, 53, 51
5, 66238, Note_on_c, 0, 53, 0
5, 66336, Note_on_c, 0, 53, 57
5, 66430, Note_on_c, 0, 53, 0
5, 66432, Note_on_c, 0, 53, 46
5, 66526, Note_on_c, 0, 53, 0
5, 66528, Note_on_c, 0, 56, 49
5, 66622, Note_on_c, 0, 56, 0
5, 66912, Note_on_c, 0, 58, 45
5, 67006, Note_on_c, 0, 58, 0
5, 67008, Note_on_c, 0, 56, 46
5, 67102, Note_on_c, 0, 56, 0
5, 67296, Note_on_c, 0, 54, 45
5, 67390, Note_on_c, 0, 54, 0
5, 67392, Note_on_c, 0, 55, 50
5, 67486, Note_on_c, 0, 55, 0
5, 67680, Note_on_c, 0, 59, 45
5, 67774, Note_on_c, 0, 59, 0
5, 67776, Note_on_c, 0, 61, 45
5, 67870, Note_on_c, 0, 61, 0
5, 68064, Note_on_c, 0, 68, 47
5, 68064, Note_on_c, 0, 59, 39
5, 68158, Note_on_c, 0, 59, 0
5, 68158, Note_on_c, 0, 68, 0
5, 68160, Note_on_c, 0, 59, 39
5, 68160, Note_on_c, 0, 66, 45
5, 68254, Note_on_c, 0, 66, 0
5, 68254, Note_on_c, 0, 59, 0
5, 68256, Note_on_c, 0, 66, 48
5, 68350, Note_on_c, 0, 66, 0
5, 68448, Note_on_c, 0, 71, 48
5, 68542, Note_on_c, 0, 71, 0
5, 68640, Note_on_c, 0, 65, 53
5, 68734, Note_on_c, 0, 65, 0
5, 68832, Note_on_c, 0, 53, 50
5, 68926, Note_on_c, 0, 53, 0
5, 68928, Note_on_c, 0, 51, 42
5, 69022, Note_on_c, 0, 51, 0
5, 69024, Note_on_c, 0, 66, 48
5, 69118, Note_on_c, 0, 66, 0
5, 69216, Note_on_c, 0, 71, 48
5, 69310, Note_on_c, 0, 71, 0
5, 69408, Note_on_c, 0, 65, 45
5, 69502, Note_on_c, 0, 65, 0
5, 69600, Note_on_c, 0, 53, 48
5, 69694, Note_on_c, 0, 53, 0
5, 69696, Note_on_c, 0, 51, 48
5, 69790, Note_on_c, 0, 51, 0
5, 69792, Note_on_c, 0, 58, 36
5, 69792, Note_on_c, 0, 63, 35
5, 69886, Note_on_c, 0, 63, 0
5, 69886, Note_on_c, 0, 58, 0
5, 69888, Note_on_c, 0, 62, 40
5, 69888, Note_on_c, 0, 58, 39
5, 69982, Note_on_c, 0, 58, 0
5, 69982, Note_on_c, 0, 62, 0
5, 69984, Note_on_c, 0, 63, 43
5, 69984, Note_on_c, 0, 58, 41
5, 70078, Note_on_c, 0, 58, 0
5, 70078, Note_on_c, 0, 63, 0
5, 70176, Note_on_c, 0, 59, 41
5, 70176, Note_on_c, 0, 64, 47
5, 70270, Note_on_c, 0, 64, 0
5, 70270, Note_on_c, 0, 59, 0
5, 70272, Note_on_c, 0, 59, 42
5, 70272, Note_on_c, 0, 63, 38
5, 70366, Note_on_c, 0, 63, 0
5, 70366, Note_on_c, 0, 59, 0
5, 70368, Note_on_c, 0, 59, 39
5, 70368, Note_on_c, 0, 64, 40
5, 70462, Note_on_c, 0, 64, 0
5, 70462, Note_on_c, 0, 59, 0
5, 70560, Note_on_c, 0, 60, 40
5, 70560, Note_on_c, 0, 65, 39
5, 70654, Note_on_c, 0, 65, 0
5, 70654, Note_on_c, 0, 60, 0
5, 70656, Note_on_c, 0, 64, 39
5, 70656, Note_on_c, 0, 60, 42
5, 70750, Note_on_c, 0, 60, 0
5, 70750, Note_on_c, 0, 64, 0
5, 70752, Note_on_c, 0, 65, 41
5, 70752, Note_on_c, 0, 60, 43
5, 70846, Note_on_c, 0, 60, 0
5, 70846, Note_on_c, 0, 65, 0
5, 70944, Note_on_c, 0, 62, 38
5, 70944, Note_on_c, 0, 66, 35
5, 71038, Note_on_c, 0, 66, 0
5, 71038, Note_on_c, 0, 62, 0
5, 71040, Note_on_c, 0, 65, 44
5, 71040, Note_on_c, 0, 62, 35
5, 71134, Note_on_c, 0, 62, 0
5, 71134, Note_on_c, 0, 65, 0
5, 71136, Note_on_c, 0, 66, 38
5, 71136, Note_on_c, 0, 62, 36
5, 71230, Note_on_c, 0, 62, 0
5, 71230, Note_on_c, 0, 66, 0
5, 71328, Note_on_c, 0, 67, 39
5, 71328, Note_on_c, 0, 62, 38
5, 71422, Note_on_c, 0, 62, 0
5, 71422, Note_on_c, 0, 67, 0
5, 71424, Note_on_c, 0, 62, 45
5, 71424, Note_on_c, 0, 66, 39
5, 71518, Note_on_c, 0, 66, 0
5, 71518, Note_on_c, 0, 62, 0
5, 71520, Note_on_c, 0, 67, 45
5, 71520, Note_on_c, 0, 62, 35
5, 71614, Note_on_c, 0, 62, 0
5, 71614, Note_on_c, 0, 67, 0
5, 71712, Note_on_c, 0, 63, 37
5, 71712, Note_on_c, 0, 68, 40
5, 71902, Note_on_c, 0, 68, 0
5, 71902, Note_on_c, 0, 63, 0
5, 71904, Note_on_c, 0, 63, 35
5, 71904, Note_on_c, 0, 69, 42
5, 72094, Note_on_c, 0, 69, 0
5, 72094, Note_on_c, 0, 63, 0
5, 72096, Note_on_c, 0, 65, 42
5, 72096, Note_on_c, 0, 70, 39
5, 72190, Note_on_c, 0, 70, 0
5, 72190, Note_on_c, 0, 65, 0
5, 72192, Note_on_c, 0, 65, 44
5, 72192, Note_on_c, 0, 69, 40
5, 72286, Note_on_c, 0, 69, 0
5, 72286, Note_on_c, 0, 65, 0
5, 72288, Note_on_c, 0, 70, 40
5, 72288, Note_on_c, 0, 65, 42
5, 72382, Note_on_c, 0, 65, 0
5, 72382, Note_on_c, 0, 70, 0
5, 72480, Note_on_c, 0, 71, 49
5, 72480, Note_on_c, 0, 66, 39
5, 72670, Note_on_c, 0, 66, 0
5, 72670, Note_on_c, 0, 71, 0
5, 72672, Note_on_c, 0, 72, 42
5, 72672, Note_on_c, 0, 66, 35
5, 72862, Note_on_c, 0, 66, 0
5, 72862, Note_on_c, 0, 72, 0
5, 72864, Note_on_c, 0, 73, 42
5, 72864, Note_on_c, 0, 67, 48
5, 72958, Note_on_c, 0, 67, 0
5, 72958, Note_on_c, 0, 73, 0
5, 72960, Note_on_c, 0, 68, 39
5, 72960, Note_on_c, 0, 72, 39
5, 73054, Note_on_c, 0, 72, 0
5, 73054, Note_on_c, 0, 68, 0
5, 73056, Note_on_c, 0, 73, 42
5, 73056, Note_on_c, 0, 67, 43
5, 73150, Note_on_c, 0, 67, 0
5, 73150, Note_on_c, 0, 73, 0
5, 73248, Note_on_c, 0, 68, 39
5, 73248, Note_on_c, 0, 74, 44
5, 73342, Note_on_c, 0, 74, 0
5, 73342, Note_on_c, 0, 68, 0
5, 73344, Note_on_c, 0, 73, 39
5, 73344, Note_on_c, 0, 69, 41
5, 73438, Note_on_c, 0, 69, 0
5, 73438, Note_on_c, 0, 73, 0
5, 73440, Note_on_c, 0, 74, 42
5, 73440, Note_on_c, 0, 68, 43
5, 73534, Note_on_c, 0, 68, 0
5, 73534, Note_on_c, 0, 74, 0
5, 73632, Note_on_c, 0, 75, 40
5, 73632, Note_on_c, 0, 69, 45
5, 73726, Note_on_c, 0, 69, 0
5, 73726, Note_on_c, 0, 75, 0
5, 73728, Note_on_c, 0, 74, 43
5, 73728, Note_on_c, 0, 70, 39
5, 73822, Note_on_c, 0, 70, 0
5, 73822, Note_on_c, 0, 74, 0
5, 73824, Note_on_c, 0, 69, 40
5, 73824, Note_on_c, 0, 75, 35
5, 73918, Note_on_c, 0, 75, 0
5, 73918, Note_on_c, 0, 69, 0
5, 74016, Note_on_c, 0, 70, 38
5, 74016, Note_on_c, 0, 76, 40
5, 74110, Note_on_c, 0, 76, 0
5, 74110, Note_on_c, 0, 70, 0
5, 74112, Note_on_c, 0, 75, 42
5, 74112, Note_on_c, 0, 71, 42
5, 74206, Note_on_c, 0, 71, 0
5, 74206, Note_on_c, 0, 75, 0
5, 74208, Note_on_c, 0, 76, 39
5, 74208, Note_on_c, 0, 71, 42
5, 74398, Note_on_c, 0, 71, 0
5, 74398, Note_on_c, 0, 76, 0
5, 74400, Note_on_c, 0, 71, 38
5, 74400, Note_on_c, 0, 77, 39
5, 74494, Note_on_c, 0, 77, 0
5, 74494, Note_on_c, 0, 71, 0
5, 74496, Note_on_c, 0, 75, 56
5, 74496, Note_on_c, 0, 78, 56
5, 74556, Note_on_c, 0, 78, 0
5, 74556, Note_on_c, 0, 75, 0
5, 74592, Note_on_c, 0, 78, 56
5, 74758, Note_on_c, 0, 78, 0
5, 74784, Note_on_c, 0, 77, 56
5, 74824, Note_on_c, 0, 77, 0
5, 74832, Note_on_c, 0, 75, 56
5, 74872, Note_on_c, 0, 75, 0
5, 74880, Note_on_c, 0, 74, 56
5, 74920, Note_on_c, 0, 74, 0
5, 74928, Note_on_c, 0, 75, 56
5, 74968, Note_on_c, 0, 75, 0
5, 74976, Note_on_c, 0, 73, 56
5, 75016, Note_on_c, 0, 73, 0
5, 75024, Note_on_c, 0, 71, 56
5, 75064, Note_on_c, 0, 71, 0
5, 75072, Note_on_c, 0, 70, 56
5, 75112, Note_on_c, 0, 70, 0
5, 75120, Note_on_c, 0, 71, 56
5, 75160, Note_on_c, 0, 71, 0
5, 75168, Note_on_c, 0, 70, 56
5, 75208, Note_on_c, 0, 70, 0
5, 75216, Note_on_c, 0, 68, 56
5, 75256, Note_on_c, 0, 68, 0
5, 75264, Note_on_c, 0, 66, 56
5, 75304, Note_on_c, 0, 66, 0
5, 75312, Note_on_c, 0, 68, 56
5, 75352, Note_on_c, 0, 68, 0
5, 75360, Note_on_c, 0, 66, 56
5, 75400, Note_on_c, 0, 66, 0
5, 75408, Note_on_c, 0, 65, 56
5, 75448, Note_on_c, 0, 65, 0
5, 75456, Note_on_c, 0, 63, 56
5, 75496, Note_on_c, 0, 63, 0
5, 75504, Note_on_c, 0, 65, 56
5, 75544, Note_on_c, 0, 65, 0
5, 75552, Note_on_c, 0, 63, 56
5, 75592, Note_on_c, 0, 63, 0
5, 75600, Note_on_c, 0, 61, 56
5, 75640, Note_on_c, 0, 61, 0
5, 75648, Note_on_c, 0, 59, 56
5, 75688, Note_on_c, 0, 59, 0
5, 75696, Note_on_c, 0, 56, 56
5, 75736, Note_on_c, 0, 56, 0
5, 75744, Note_on_c, 0, 53, 56
5, 75784, Note_on_c, 0, 53, 0
5, 75792, Note_on_c, 0, 50, 56
5, 75832, Note_on_c, 0, 50, 0
5, 75840, Note_on_c, 0, 47, 56
5, 75880, Note_on_c, 0, 47, 0
5, 75888, Note_on_c, 0, 46, 56
5, 75928, Note_on_c, 0, 46, 0
5, 75936, Note_on_c, 0, 45, 56
5, 75976, Note_on_c, 0, 45, 0
5, 75984, Note_on_c, 0, 46, 56
5, 76024, Note_on_c, 0, 46, 0
5, 76032, Note_on_c, 0, 51, 56
5, 76114, Note_on_c, 0, 51, 0
5, 76464, Note_on_c, 0, 62, 65
5, 76510, Note_on_c, 0, 62, 0
5, 76512, Note_on_c, 0, 63, 65
5, 76558, Note_on_c, 0, 63, 0
5, 76560, Note_on_c, 0, 65, 65
5, 76606, Note_on_c, 0, 65, 0
5, 76608, Note_on_c, 0, 66, 65
5, 76654, Note_on_c, 0, 66, 0
5, 76656, Note_on_c, 0, 65, 65
5, 76702, Note_on_c, 0, 65, 0
5, 76704, Note_on_c, 0, 66, 65
5, 76750, Note_on_c, 0, 66, 0
5, 76752, Note_on_c, 0, 68, 65
5, 76798, Note_on_c, 0, 68, 0
5, 76800, Note_on_c, 0, 70, 65
5, 76894, Note_on_c, 0, 70, 0
5, 77280, Note_on_c, 0, 71, 65
5, 77374, Note_on_c, 0, 71, 0
5, 77376, Note_on_c, 0, 70, 65
5, 77470, Note_on_c, 0, 70, 0
5, 77472, Note_on_c, 0, 68, 65
5, 77566, Note_on_c, 0, 68, 0
5, 77568, Note_on_c, 0, 66, 65
5, 77662, Note_on_c, 0, 66, 0
5, 78000, Note_on_c, 0, 65, 65
5, 78046, Note_on_c, 0, 65, 0
5, 78048, Note_on_c, 0, 66, 65
5, 78094, Note_on_c, 0, 66, 0
5, 78096, Note_on_c, 0, 68, 65
5, 78142, Note_on_c, 0, 68, 0
5, 78144, Note_on_c, 0, 70, 65
5, 78190, Note_on_c, 0, 70, 0
5, 78192, Note_on_c, 0, 68, 65
5, 78238, Note_on_c, 0, 68, 0
5, 78240, Note_on_c, 0, 70, 65
5, 78286, Note_on_c, 0, 70, 0
5, 78288, Note_on_c, 0, 71, 65
5, 78334, Note_on_c, 0, 71, 0
5, 78336, Note_on_c, 0, 73, 65
5, 78382, Note_on_c, 0, 73, 0
5, 78384, Note_on_c, 0, 66, 65
5, 78430, Note_on_c, 0, 66, 0
5, 78816, Note_on_c, 0, 75, 65
5, 78910, Note_on_c, 0, 75, 0
5, 78912, Note_on_c, 0, 74, 65
5, 79006, Note_on_c, 0, 74, 0
5, 79008, Note_on_c, 0, 72, 65
5, 79102, Note_on_c, 0, 72, 0
5, 79104, Note_on_c, 0, 70, 65
5, 79150, Note_on_c, 0, 70, 0
5, 79152, Note_on_c, 0, 58, 65
5, 79198, Note_on_c, 0, 58, 0
5, 79200, Note_on_c, 0, 60, 65
5, 79246, Note_on_c, 0, 60, 0
5, 79248, Note_on_c, 0, 62, 65
5, 79294, Note_on_c, 0, 62, 0
5, 79296, Note_on_c, 0, 63, 65
5, 79342, Note_on_c, 0, 63, 0
5, 79344, Note_on_c, 0, 65, 65
5, 79390, Note_on_c, 0, 65, 0
5, 79392, Note_on_c, 0, 67, 65
5, 79438, Note_on_c, 0, 67, 0
5, 79440, Note_on_c, 0, 69, 65
5, 79486, Note_on_c, 0, 69, 0
5, 79488, Note_on_c, 0, 70, 65
5, 79534, Note_on_c, 0, 70, 0
5, 79536, Note_on_c, 0, 65, 65
5, 79582, Note_on_c, 0, 65, 0
5, 79584, Note_on_c, 0, 64, 65
5, 79630, Note_on_c, 0, 64, 0
5, 79632, Note_on_c, 0, 63, 65
5, 79678, Note_on_c, 0, 63, 0
5, 79680, Note_on_c, 0, 62, 65
5, 79726, Note_on_c, 0, 62, 0
5, 79728, Note_on_c, 0, 61, 65
5, 79774, Note_on_c, 0, 61, 0
5, 79776, Note_on_c, 0, 60, 65
5, 79822, Note_on_c, 0, 60, 0
5, 79824, Note_on_c, 0, 59, 65
5, 79870, Note_on_c, 0, 59, 0
5, 79872, Note_on_c, 0, 58, 65
5, 79966, Note_on_c, 0, 58, 0
5, 80304, Note_on_c, 0, 72, 65
5, 80350, Note_on_c, 0, 72, 0
5, 80352, Note_on_c, 0, 71, 65
5, 80398, Note_on_c, 0, 71, 0
5, 80400, Note_on_c, 0, 70, 65
5, 80446, Note_on_c, 0, 70, 0
5, 80448, Note_on_c, 0, 69, 65
5, 80494, Note_on_c, 0, 69, 0
5, 80496, Note_on_c, 0, 67, 65
5, 80542, Note_on_c, 0, 67, 0
5, 80544, Note_on_c, 0, 65, 65
5, 80590, Note_on_c, 0, 65, 0
5, 80592, Note_on_c, 0, 63, 65
5, 80638, Note_on_c, 0, 63, 0
5, 80640, Note_on_c, 0, 62, 65
5, 80734, Note_on_c, 0, 62, 0
5, 81072, Note_on_c, 0, 68, 65
5, 81118, Note_on_c, 0, 68, 0
5, 81120, Note_on_c, 0, 67, 65
5, 81166, Note_on_c, 0, 67, 0
5, 81168, Note_on_c, 0, 66, 65
5, 81214, Note_on_c, 0, 66, 0
5, 81216, Note_on_c, 0, 65, 65
5, 81262, Note_on_c, 0, 65, 0
5, 81264, Note_on_c, 0, 63, 65
5, 81310, Note_on_c, 0, 63, 0
5, 81312, Note_on_c, 0, 62, 65
5, 81358, Note_on_c, 0, 62, 0
5, 81360, Note_on_c, 0, 60, 65
5, 81406, Note_on_c, 0, 60, 0
5, 81408, Note_on_c, 0, 58, 65
5, 81502, Note_on_c, 0, 58, 0
5, 81840, Note_on_c, 0, 53, 65
5, 81886, Note_on_c, 0, 53, 0
5, 81888, Note_on_c, 0, 54, 65
5, 81934, Note_on_c, 0, 54, 0
5, 81936, Note_on_c, 0, 55, 65
5, 81982, Note_on_c, 0, 55, 0
5, 81984, Note_on_c, 0, 56, 65
5, 82030, Note_on_c, 0, 56, 0
5, 82032, Note_on_c, 0, 57, 65
5, 82078, Note_on_c, 0, 57, 0
5, 82080, Note_on_c, 0, 58, 65
5, 82126, Note_on_c, 0, 58, 0
5, 82128, Note_on_c, 0, 60, 65
5, 82174, Note_on_c, 0, 60, 0
5, 82176, Note_on_c, 0, 62, 65
5, 82222, Note_on_c, 0, 62, 0
5, 82224, Note_on_c, 0, 70, 65
5, 82270, Note_on_c, 0, 70, 0
5, 82272, Note_on_c, 0, 69, 65
5, 82318, Note_on_c, 0, 69, 0
5, 82320, Note_on_c, 0, 67, 65
5, 82366, Note_on_c, 0, 67, 0
5, 82368, Note_on_c, 0, 65, 65
5, 82414, Note_on_c, 0, 65, 0
5, 82416, Note_on_c, 0, 63, 65
5, 82462, Note_on_c, 0, 63, 0
5, 82464, Note_on_c, 0, 62, 65
5, 82510, Note_on_c, 0, 62, 0
5, 82512, Note_on_c, 0, 60, 65
5, 82558, Note_on_c, 0, 60, 0
5, 82560, Note_on_c, 0, 58, 65
5, 82654, Note_on_c, 0, 58, 0
5, 83424, Note_on_c, 0, 67, 65
5, 83518, Note_on_c, 0, 67, 0
5, 83520, Note_on_c, 0, 65, 65
5, 83614, Note_on_c, 0, 65, 0
5, 83616, Note_on_c, 0, 64, 65
5, 83710, Note_on_c, 0, 64, 0
5, 83712, Note_on_c, 0, 62, 65
5, 83806, Note_on_c, 0, 62, 0
5, 84144, Note_on_c, 0, 61, 65
5, 84190, Note_on_c, 0, 61, 0
5, 84192, Note_on_c, 0, 62, 65
5, 84238, Note_on_c, 0, 62, 0
5, 84240, Note_on_c, 0, 64, 65
5, 84286, Note_on_c, 0, 64, 0
5, 84288, Note_on_c, 0, 65, 65
5, 84334, Note_on_c, 0, 65, 0
5, 84336, Note_on_c, 0, 64, 65
5, 84382, Note_on_c, 0, 64, 0
5, 84384, Note_on_c, 0, 65, 65
5, 84430, Note_on_c, 0, 65, 0
5, 84432, Note_on_c, 0, 67, 65
5, 84478, Note_on_c, 0, 67, 0
5, 84480, Note_on_c, 0, 69, 65
5, 84574, Note_on_c, 0, 69, 0
5, 84960, Note_on_c, 0, 70, 65
5, 85054, Note_on_c, 0, 70, 0
5, 85056, Note_on_c, 0, 69, 65
5, 85150, Note_on_c, 0, 69, 0
5, 85152, Note_on_c, 0, 67, 65
5, 85246, Note_on_c, 0, 67, 0
5, 85248, Note_on_c, 0, 65, 65
5, 85294, Note_on_c, 0, 65, 0
5, 85296, Note_on_c, 0, 53, 65
5, 85342, Note_on_c, 0, 53, 0
5, 85344, Note_on_c, 0, 55, 65
5, 85390, Note_on_c, 0, 55, 0
5, 85392, Note_on_c, 0, 57, 65
5, 85438, Note_on_c, 0, 57, 0
5, 85440, Note_on_c, 0, 58, 65
5, 85486, Note_on_c, 0, 58, 0
5, 85488, Note_on_c, 0, 60, 65
5, 85534, Note_on_c, 0, 60, 0
5, 85536, Note_on_c, 0, 62, 65
5, 85582, Note_on_c, 0, 62, 0
5, 85584, Note_on_c, 0, 64, 65
5, 85630, Note_on_c, 0, 64, 0
5, 85632, Note_on_c, 0, 65, 65
5, 85678, Note_on_c, 0, 65, 0
5, 85680, Note_on_c, 0, 60, 65
5, 85726, Note_on_c, 0, 60, 0
5, 85728, Note_on_c, 0, 59, 65
5, 85774, Note_on_c, 0, 59, 0
5, 85776, Note_on_c, 0, 58, 65
5, 85822, Note_on_c, 0, 58, 0
5, 85824, Note_on_c, 0, 57, 65
5, 85870, Note_on_c, 0, 57, 0
5, 85872, Note_on_c, 0, 56, 65
5, 85918, Note_on_c, 0, 56, 0
5, 85920, Note_on_c, 0, 55, 65
5, 85966, Note_on_c, 0, 55, 0
5, 85968, Note_on_c, 0, 54, 65
5, 86014, Note_on_c, 0, 54, 0
5, 86016, Note_on_c, 0, 53, 65
5, 86110, Note_on_c, 0, 53, 0
5, 86448, Note_on_c, 0, 67, 65
5, 86494, Note_on_c, 0, 67, 0
5, 86496, Note_on_c, 0, 66, 65
5, 86542, Note_on_c, 0, 66, 0
5, 86544, Note_on_c, 0, 65, 65
5, 86590, Note_on_c, 0, 65, 0
5, 86592, Note_on_c, 0, 64, 65
5, 86638, Note_on_c, 0, 64, 0
5, 86640, Note_on_c, 0, 62, 65
5, 86686, Note_on_c, 0, 62, 0
5, 86688, Note_on_c, 0, 60, 65
5, 86734, Note_on_c, 0, 60, 0
5, 86736, Note_on_c, 0, 58, 65
5, 86782, Note_on_c, 0, 58, 0
5, 86784, Note_on_c, 0, 57, 65
5, 86878, Note_on_c, 0, 57, 0
5, 87216, Note_on_c, 0, 75, 65
5, 87262, Note_on_c, 0, 75, 0
5, 87264, Note_on_c, 0, 74, 65
5, 87310, Note_on_c, 0, 74, 0
5, 87312, Note_on_c, 0, 73, 65
5, 87358, Note_on_c, 0, 73, 0
5, 87360, Note_on_c, 0, 72, 65
5, 87406, Note_on_c, 0, 72, 0
5, 87408, Note_on_c, 0, 70, 65
5, 87454, Note_on_c, 0, 70, 0
5, 87456, Note_on_c, 0, 69, 65
5, 87502, Note_on_c, 0, 69, 0
5, 87504, Note_on_c, 0, 67, 65
5, 87550, Note_on_c, 0, 67, 0
5, 87552, Note_on_c, 0, 65, 65
5, 87646, Note_on_c, 0, 65, 0
5, 87984, Note_on_c, 0, 60, 65
5, 88030, Note_on_c, 0, 60, 0
5, 88032, Note_on_c, 0, 61, 65
5, 88078, Note_on_c, 0, 61, 0
5, 88080, Note_on_c, 0, 62, 65
5, 88126, Note_on_c, 0, 62, 0
5, 88128, Note_on_c, 0, 63, 65
5, 88174, Note_on_c, 0, 63, 0
5, 88176, Note_on_c, 0, 64, 65
5, 88222, Note_on_c, 0, 64, 0
5, 88224, Note_on_c, 0, 65, 65
5, 88270, Note_on_c, 0, 65, 0
5, 88272, Note_on_c, 0, 67, 65
5, 88318, Note_on_c, 0, 67, 0
5, 88320, Note_on_c, 0, 69, 65
5, 88366, Note_on_c, 0, 69, 0
5, 88368, Note_on_c, 0, 65, 65
5, 88414, Note_on_c, 0, 65, 0
5, 88416, Note_on_c, 0, 64, 65
5, 88462, Note_on_c, 0, 64, 0
5, 88464, Note_on_c, 0, 62, 65
5, 88510, Note_on_c, 0, 62, 0
5, 88512, Note_on_c, 0, 60, 65
5, 88558, Note_on_c, 0, 60, 0
5, 88560, Note_on_c, 0, 58, 65
5, 88606, Note_on_c, 0, 58, 0
5, 88608, Note_on_c, 0, 57, 65
5, 88654, Note_on_c, 0, 57, 0
5, 88656, Note_on_c, 0, 55, 65
5, 88702, Note_on_c, 0, 55, 0
5, 88704, Note_on_c, 0, 53, 65
5, 88798, Note_on_c, 0, 53, 0
5, 89136, Note_on_c, 0, 67, 65
5, 89182, Note_on_c, 0, 67, 0
5, 89184, Note_on_c, 0, 65, 65
5, 89230, Note_on_c, 0, 65, 0
5, 89232, Note_on_c, 0, 64, 65
5, 89278, Note_on_c, 0, 64, 0
5, 89280, Note_on_c, 0, 62, 65
5, 89326, Note_on_c, 0, 62, 0
5, 89328, Note_on_c, 0, 61, 65
5, 89374, Note_on_c, 0, 61, 0
5, 89376, Note_on_c, 0, 60, 65
5, 89422, Note_on_c, 0, 60, 0
5, 89424, Note_on_c, 0, 59, 65
5, 89470, Note_on_c, 0, 59, 0
5, 89472, Note_on_c, 0, 57, 65
5, 89566, Note_on_c, 0, 57, 0
5, 89904, Note_on_c, 0, 70, 65
5, 89950, Note_on_c, 0, 70, 0
5, 89952, Note_on_c, 0, 69, 65
5, 89998, Note_on_c, 0, 69, 0
5, 90000, Note_on_c, 0, 67, 65
5, 90046, Note_on_c, 0, 67, 0
5, 90048, Note_on_c, 0, 65, 65
5, 90094, Note_on_c, 0, 65, 0
5, 90096, Note_on_c, 0, 64, 65
5, 90142, Note_on_c, 0, 64, 0
5, 90144, Note_on_c, 0, 63, 65
5, 90190, Note_on_c, 0, 63, 0
5, 90192, Note_on_c, 0, 62, 65
5, 90238, Note_on_c, 0, 62, 0
5, 90240, Note_on_c, 0, 60, 65
5, 90334, Note_on_c, 0, 60, 0
5, 90720, Note_on_c, 0, 63, 65
5, 90720, Note_on_c, 0, 72, 65
5, 90910, Note_on_c, 0, 72, 0
5, 90910, Note_on_c, 0, 63, 0
5, 91104, Note_on_c, 0, 69, 65
5, 91104, Note_on_c, 0, 66, 65
5, 91294, Note_on_c, 0, 66, 0
5, 91294, Note_on_c, 0, 69, 0
5, 91584, Note_on_c, 0, 69, 65
5, 91584, Note_on_c, 0, 63, 65
5, 91678, Note_on_c, 0, 63, 0
5, 91678, Note_on_c, 0, 69, 0
5, 91968, Note_on_c, 0, 69, 65
5, 91968, Note_on_c, 0, 63, 65
5, 92062, Note_on_c, 0, 63, 0
5, 92062, Note_on_c, 0, 69, 0
5, 92160, Note_on_c, 0, 63, 65
5, 92160, Note_on_c, 0, 69, 65
5, 92254, Note_on_c, 0, 69, 0
5, 92254, Note_on_c, 0, 63, 0
5, 92352, Note_on_c, 0, 60, 65
5, 92446, Note_on_c, 0, 60, 0
5, 92544, Note_on_c, 0, 60, 65
5, 92638, Note_on_c, 0, 60, 0
5, 92736, Note_on_c, 0, 60, 65
5, 92830, Note_on_c, 0, 60, 0
5, 92928, Note_on_c, 0, 48, 71
5, 92968, Note_on_c, 0, 48, 0
5, 92976, Note_on_c, 0, 59, 71
5, 93016, Note_on_c, 0, 59, 0
5, 93024, Note_on_c, 0, 60, 71
5, 93064, Note_on_c, 0, 60, 0
5, 93072, Note_on_c, 0, 62, 71
5, 93112, Note_on_c, 0, 62, 0
5, 93120, Note_on_c, 0, 63, 71
5, 93328, Note_on_c, 0, 63, 0
5, 93360, Note_on_c, 0, 62, 71
5, 93400, Note_on_c, 0, 62, 0
5, 93408, Note_on_c, 0, 63, 71
5, 93448, Note_on_c, 0, 63, 0
5, 93456, Note_on_c, 0, 65, 71
5, 93496, Note_on_c, 0, 65, 0
5, 93504, Note_on_c, 0, 66, 71
5, 93712, Note_on_c, 0, 66, 0
5, 93744, Note_on_c, 0, 65, 71
5, 93784, Note_on_c, 0, 65, 0
5, 93792, Note_on_c, 0, 66, 71
5, 93832, Note_on_c, 0, 66, 0
5, 93840, Note_on_c, 0, 69, 71
5, 93880, Note_on_c, 0, 69, 0
5, 93888, Note_on_c, 0, 70, 71
5, 93928, Note_on_c, 0, 70, 0
5, 93936, Note_on_c, 0, 69, 71
5, 93976, Note_on_c, 0, 69, 0
5, 93984, Note_on_c, 0, 70, 71
5, 94024, Note_on_c, 0, 70, 0
5, 94032, Note_on_c, 0, 74, 71
5, 94072, Note_on_c, 0, 74, 0
5, 94080, Note_on_c, 0, 75, 71
5, 94120, Note_on_c, 0, 75, 0
5, 94128, Note_on_c, 0, 74, 71
5, 94168, Note_on_c, 0, 74, 0
5, 94176, Note_on_c, 0, 75, 71
5, 94216, Note_on_c, 0, 75, 0
5, 94224, Note_on_c, 0, 77, 71
5, 94264, Note_on_c, 0, 77, 0
5, 94272, Note_on_c, 0, 78, 71
5, 94332, Note_on_c, 0, 78, 0
5, 94560, Note_on_c, 0, 53, 50
5, 94654, Note_on_c, 0, 53, 0
5, 94656, Note_on_c, 0, 65, 53
5, 94750, Note_on_c, 0, 65, 0
5, 95136, Note_on_c, 0, 59, 43
5, 95136, Note_on_c, 0, 68, 45
5, 95230, Note_on_c, 0, 68, 0
5, 95230, Note_on_c, 0, 59, 0
5, 95328, Note_on_c, 0, 63, 77
5, 95328, Note_on_c, 0, 68, 77
5, 95422, Note_on_c, 0, 68, 0
5, 95422, Note_on_c, 0, 63, 0
5, 95520, Note_on_c, 0, 65, 77
5, 95520, Note_on_c, 0, 59, 77
5, 95614, Note_on_c, 0, 59, 0
5, 95614, Note_on_c, 0, 65, 0
5, 95712, Note_on_c, 0, 56, 77
5, 95712, Note_on_c, 0, 65, 77
5, 95806, Note_on_c, 0, 65, 0
5, 95806, Note_on_c, 0, 56, 0
5, 95808, Note_on_c, 0, 58, 77
5, 95902, Note_on_c, 0, 58, 0
5, 95904, Note_on_c, 0, 58, 77
5, 95904, Note_on_c, 0, 60, 77
5, 95998, Note_on_c, 0, 60, 0
5, 95998, Note_on_c, 0, 58, 0
5, 96096, Note_on_c, 0, 54, 65
5, 96190, Note_on_c, 0, 54, 0
5, 96192, Note_on_c, 0, 53, 65
5, 96286, Note_on_c, 0, 53, 0
5, 96480, Note_on_c, 0, 53, 65
5, 96574, Note_on_c, 0, 53, 0
5, 96576, Note_on_c, 0, 49, 65
5, 96622, Note_on_c, 0, 49, 0
5, 96624, Note_on_c, 0, 51, 65
5, 96670, Note_on_c, 0, 51, 0
5, 96672, Note_on_c, 0, 53, 65
5, 96718, Note_on_c, 0, 53, 0
5, 96720, Note_on_c, 0, 55, 65
5, 96766, Note_on_c, 0, 55, 0
5, 96768, Note_on_c, 0, 56, 65
5, 97006, Note_on_c, 0, 56, 0
5, 97008, Note_on_c, 0, 55, 65
5, 97054, Note_on_c, 0, 55, 0
5, 97056, Note_on_c, 0, 56, 65
5, 97102, Note_on_c, 0, 56, 0
5, 97104, Note_on_c, 0, 58, 65
5, 97150, Note_on_c, 0, 58, 0
5, 97152, Note_on_c, 0, 61, 65
5, 97198, Note_on_c, 0, 61, 0
5, 97200, Note_on_c, 0, 59, 65
5, 97246, Note_on_c, 0, 59, 0
5, 97392, Note_on_c, 0, 58, 65
5, 97438, Note_on_c, 0, 58, 0
5, 97440, Note_on_c, 0, 59, 65
5, 97486, Note_on_c, 0, 59, 0
5, 97488, Note_on_c, 0, 62, 65
5, 97534, Note_on_c, 0, 62, 0
5, 97536, Note_on_c, 0, 65, 65
5, 97582, Note_on_c, 0, 65, 0
5, 97584, Note_on_c, 0, 63, 65
5, 97630, Note_on_c, 0, 63, 0
5, 97776, Note_on_c, 0, 62, 65
5, 97822, Note_on_c, 0, 62, 0
5, 97824, Note_on_c, 0, 63, 65
5, 97870, Note_on_c, 0, 63, 0
5, 97872, Note_on_c, 0, 65, 65
5, 97918, Note_on_c, 0, 65, 0
5, 97920, Note_on_c, 0, 68, 65
5, 97966, Note_on_c, 0, 68, 0
5, 97968, Note_on_c, 0, 66, 65
5, 98014, Note_on_c, 0, 66, 0
5, 98160, Note_on_c, 0, 65, 65
5, 98206, Note_on_c, 0, 65, 0
5, 98208, Note_on_c, 0, 66, 65
5, 98254, Note_on_c, 0, 66, 0
5, 98256, Note_on_c, 0, 68, 65
5, 98302, Note_on_c, 0, 68, 0
5, 98304, Note_on_c, 0, 68, 68
5, 98398, Note_on_c, 0, 68, 0
5, 100992, Note_on_c, 0, 57, 48
5, 101086, Note_on_c, 0, 57, 0
5, 111168, Note_on_c, 0, 54, 2
5, 111358, Note_on_c, 0, 54, 0
5, 111360, Note_on_c, 0, 61, 15
5, 111646, Note_on_c, 0, 61, 0
5, 111648, Note_on_c, 0, 61, 15
5, 111742, Note_on_c, 0, 61, 0
5, 111744, Note_on_c, 0, 61, 15
5, 111838, Note_on_c, 0, 61, 0
5, 111840, Note_on_c, 0, 59, 15
5, 111934, Note_on_c, 0, 59, 0
5, 111936, Note_on_c, 0, 58, 15
5, 112030, Note_on_c, 0, 58, 0
5, 112032, Note_on_c, 0, 56, 15
5, 112126, Note_on_c, 0, 56, 0
5, 112128, Note_on_c, 0, 61, 15
5, 112222, Note_on_c, 0, 61, 0
5, 112320, Note_on_c, 0, 61, 15
5, 112414, Note_on_c, 0, 61, 0
5, 112704, Note_on_c, 0, 56, 15
5, 112894, Note_on_c, 0, 56, 0
5, 112896, Note_on_c, 0, 61, 15
5, 113182, Note_on_c, 0, 61, 0
5, 113184, Note_on_c, 0, 61, 15
5, 113278, Note_on_c, 0, 61, 0
5, 113280, Note_on_c, 0, 61, 15
5, 113374, Note_on_c, 0, 61, 0
5, 113376, Note_on_c, 0, 59, 15
5, 113470, Note_on_c, 0, 59, 0
5, 113472, Note_on_c, 0, 58, 15
5, 113566, Note_on_c, 0, 58, 0
5, 113568, Note_on_c, 0, 56, 15
5, 113662, Note_on_c, 0, 56, 0
5, 113664, Note_on_c, 0, 61, 15
5, 114144, Note_on_c, 0, 61, 0
5, 114240, Note_on_c, 0, 49, 15
5, 114430, Note_on_c, 0, 49, 0
5, 114432, Note_on_c, 0, 51, 15
5, 114622, Note_on_c, 0, 51, 0
5, 114624, Note_on_c, 0, 54, 15
5, 114814, Note_on_c, 0, 54, 0
5, 114816, Note_on_c, 0, 56, 15
5, 115006, Note_on_c, 0, 56, 0
5, 115008, Note_on_c, 0, 58, 15
5, 115102, Note_on_c, 0, 58, 0
5, 115104, Note_on_c, 0, 59, 15
5, 115198, Note_on_c, 0, 59, 0
5, 115200, Note_on_c, 0, 61, 15
5, 115680, Note_on_c, 0, 61, 0
5, 115776, Note_on_c, 0, 61, 15
5, 115966, Note_on_c, 0, 61, 0
5, 115968, Note_on_c, 0, 63, 15
5, 116158, Note_on_c, 0, 63, 0
5, 116160, Note_on_c, 0, 66, 15
5, 116350, Note_on_c, 0, 66, 0
5, 116352, Note_on_c, 0, 65, 15
5, 116542, Note_on_c, 0, 65, 0
5, 116544, Note_on_c, 0, 63, 15
5, 116638, Note_on_c, 0, 63, 0
5, 116640, Note_on_c, 0, 61, 15
5, 116734, Note_on_c, 0, 61, 0
5, 116736, Note_on_c, 0, 66, 15
5, 117216, Note_on_c, 0, 66, 0
5, 117312, Note_on_c, 0, 49, 15
5, 117502, Note_on_c, 0, 49, 0
5, 117504, Note_on_c, 0, 51, 15
5, 117694, Note_on_c, 0, 51, 0
5, 117696, Note_on_c, 0, 54, 16
5, 117886, Note_on_c, 0, 54, 0
5, 117888, Note_on_c, 0, 56, 7
5, 118078, Note_on_c, 0, 56, 0
5, 118080, Note_on_c, 0, 58, 9
5, 118174, Note_on_c, 0, 58, 0
5, 118176, Note_on_c, 0, 59, 9
5, 118270, Note_on_c, 0, 59, 0
5, 118272, Note_on_c, 0, 61, 10
5, 118752, Note_on_c, 0, 61, 0
5, 118848, Note_on_c, 0, 61, 29
5, 119038, Note_on_c, 0, 61, 0
5, 119040, Note_on_c, 0, 63, 35
5, 119230, Note_on_c, 0, 63, 0
5, 119232, Note_on_c, 0, 66, 41
5, 119422, Note_on_c, 0, 66, 0
5, 119424, Note_on_c, 0, 65, 47
5, 119614, Note_on_c, 0, 65, 0
5, 119616, Note_on_c, 0, 63, 56
5, 119710, Note_on_c, 0, 63, 0
5, 119712, Note_on_c, 0, 61, 56
5, 119806, Note_on_c, 0, 61, 0
5, 119808, Note_on_c, 0, 66, 59
5, 120382, Note_on_c, 0, 66, 0
5, 120384, Note_on_c, 0, 66, 57
5, 120574, Note_on_c, 0, 66, 0
5, 120576, Note_on_c, 0, 67, 39
5, 120766, Note_on_c, 0, 67, 0
5, 120768, Note_on_c, 0, 66, 35
5, 120958, Note_on_c, 0, 66, 0
5, 120960, Note_on_c, 0, 66, 41
5, 121150, Note_on_c, 0, 66, 0
5, 121152, Note_on_c, 0, 64, 39
5, 121342, Note_on_c, 0, 64, 0
5, 121344, Note_on_c, 0, 64, 43
5, 121534, Note_on_c, 0, 64, 0
5, 121536, Note_on_c, 0, 66, 40
5, 121726, Note_on_c, 0, 66, 0
5, 121728, Note_on_c, 0, 66, 42
5, 121918, Note_on_c, 0, 66, 0
5, 121920, Note_on_c, 0, 67, 42
5, 122110, Note_on_c, 0, 67, 0
5, 122112, Note_on_c, 0, 67, 46
5, 122302, Note_on_c, 0, 67, 0
5, 122304, Note_on_c, 0, 62, 41
5, 122494, Note_on_c, 0, 62, 0
5, 122496, Note_on_c, 0, 62, 42
5, 122686, Note_on_c, 0, 62, 0
5, 122688, Note_on_c, 0, 60, 42
5, 122878, Note_on_c, 0, 60, 0
5, 122880, Note_on_c, 0, 60, 38
5, 122974, Note_on_c, 0, 60, 0
5, 122976, Note_on_c, 0, 59, 45
5, 123070, Note_on_c, 0, 59, 0
5, 123072, Note_on_c, 0, 64, 42
5, 123166, Note_on_c, 0, 64, 0
5, 123168, Note_on_c, 0, 62, 46
5, 123262, Note_on_c, 0, 62, 0
5, 123264, Note_on_c, 0, 57, 41
5, 123454, Note_on_c, 0, 57, 0
5, 123456, Note_on_c, 0, 62, 39
5, 123646, Note_on_c, 0, 62, 0
5, 123648, Note_on_c, 0, 67, 38
5, 123838, Note_on_c, 0, 67, 0
5, 123840, Note_on_c, 0, 66, 39
5, 124030, Note_on_c, 0, 66, 0
5, 124032, Note_on_c, 0, 66, 45
5, 124222, Note_on_c, 0, 66, 0
5, 124224, Note_on_c, 0, 64, 42
5, 124414, Note_on_c, 0, 64, 0
5, 124416, Note_on_c, 0, 64, 44
5, 124606, Note_on_c, 0, 64, 0
5, 124608, Note_on_c, 0, 66, 36
5, 124798, Note_on_c, 0, 66, 0
5, 124800, Note_on_c, 0, 66, 43
5, 124990, Note_on_c, 0, 66, 0
5, 124992, Note_on_c, 0, 67, 46
5, 125182, Note_on_c, 0, 67, 0
5, 125184, Note_on_c, 0, 67, 42
5, 125374, Note_on_c, 0, 67, 0
5, 125376, Note_on_c, 0, 65, 42
5, 125566, Note_on_c, 0, 65, 0
5, 125568, Note_on_c, 0, 65, 39
5, 125758, Note_on_c, 0, 65, 0
5, 125760, Note_on_c, 0, 63, 35
5, 125950, Note_on_c, 0, 63, 0
5, 125952, Note_on_c, 0, 63, 39
5, 126142, Note_on_c, 0, 63, 0
5, 126144, Note_on_c, 0, 65, 38
5, 126334, Note_on_c, 0, 65, 0
5, 126336, Note_on_c, 0, 65, 36
5, 126526, Note_on_c, 0, 65, 0
5, 126528, Note_on_c, 0, 66, 39
5, 126718, Note_on_c, 0, 66, 0
5, 126720, Note_on_c, 0, 66, 42
5, 126910, Note_on_c, 0, 66, 0
5, 126912, Note_on_c, 0, 65, 42
5, 127102, Note_on_c, 0, 65, 0
5, 127104, Note_on_c, 0, 65, 42
5, 127294, Note_on_c, 0, 65, 0
5, 127296, Note_on_c, 0, 63, 39
5, 127486, Note_on_c, 0, 63, 0
5, 127488, Note_on_c, 0, 63, 42
5, 127678, Note_on_c, 0, 63, 0
5, 127680, Note_on_c, 0, 65, 39
5, 127870, Note_on_c, 0, 65, 0
5, 127872, Note_on_c, 0, 65, 38
5, 128062, Note_on_c, 0, 65, 0
5, 128064, Note_on_c, 0, 66, 43
5, 128254, Note_on_c, 0, 66, 0
5, 128256, Note_on_c, 0, 67, 42
5, 128638, Note_on_c, 0, 67, 0
5, 128640, Note_on_c, 0, 65, 46
5, 129022, Note_on_c, 0, 65, 0
5, 129024, Note_on_c, 0, 63, 39
5, 129118, Note_on_c, 0, 63, 0
5, 129216, Note_on_c, 0, 62, 45
5, 129310, Note_on_c, 0, 62, 0
5, 129312, Note_on_c, 0, 60, 44
5, 129406, Note_on_c, 0, 60, 0
5, 129408, Note_on_c, 0, 58, 42
5, 129502, Note_on_c, 0, 58, 0
5, 129600, Note_on_c, 0, 57, 47
5, 129694, Note_on_c, 0, 57, 0
5, 129696, Note_on_c, 0, 56, 42
5, 129790, Note_on_c, 0, 56, 0
5, 129792, Note_on_c, 0, 55, 39
5, 130174, Note_on_c, 0, 55, 0
5, 130176, Note_on_c, 0, 53, 44
5, 130558, Note_on_c, 0, 53, 0
5, 130560, Note_on_c, 0, 51, 39
5, 130654, Note_on_c, 0, 51, 0
5, 130752, Note_on_c, 0, 50, 42
5, 130846, Note_on_c, 0, 50, 0
5, 130848, Note_on_c, 0, 48, 42
5, 130942, Note_on_c, 0, 48, 0
5, 130944, Note_on_c, 0, 58, 39
5, 131038, Note_on_c, 0, 58, 0
5, 131136, Note_on_c, 0, 57, 45
5, 131230, Note_on_c, 0, 57, 0
5, 131232, Note_on_c, 0, 56, 39
5, 131326, Note_on_c, 0, 56, 0
5, 131328, Note_on_c, 0, 55, 45
5, 131422, Note_on_c, 0, 55, 0
5, 131520, Note_on_c, 0, 51, 41
5, 131614, Note_on_c, 0, 51, 0
5, 131616, Note_on_c, 0, 48, 38
5, 131710, Note_on_c, 0, 48, 0
5, 132096, Note_on_c, 0, 48, 27
5, 132286, Note_on_c, 0, 48, 0
5, 132288, Note_on_c, 0, 51, 39
5, 132478, Note_on_c, 0, 51, 0
5, 132480, Note_on_c, 0, 53, 42
5, 132670, Note_on_c, 0, 53, 0
5, 132672, Note_on_c, 0, 55, 39
5, 132766, Note_on_c, 0, 55, 0
5, 132768, Note_on_c, 0, 56, 39
5, 132862, Note_on_c, 0, 56, 0
5, 132864, Note_on_c, 0, 58, 57
5, 133438, Note_on_c, 0, 58, 0
5, 133440, Note_on_c, 0, 58, 57
5, 133630, Note_on_c, 0, 58, 0
5, 133632, Note_on_c, 0, 60, 39
5, 133822, Note_on_c, 0, 60, 0
5, 133824, Note_on_c, 0, 63, 42
5, 134014, Note_on_c, 0, 63, 0
5, 134016, Note_on_c, 0, 58, 46
5, 134206, Note_on_c, 0, 58, 0
5, 134208, Note_on_c, 0, 57, 44
5, 134302, Note_on_c, 0, 57, 0
5, 134304, Note_on_c, 0, 56, 39
5, 134398, Note_on_c, 0, 56, 0
5, 134400, Note_on_c, 0, 54, 45
5, 134782, Note_on_c, 0, 54, 0
5, 134784, Note_on_c, 0, 53, 45
5, 134974, Note_on_c, 0, 53, 0
5, 135168, Note_on_c, 0, 48, 43
5, 135358, Note_on_c, 0, 48, 0
5, 135360, Note_on_c, 0, 51, 39
5, 135550, Note_on_c, 0, 51, 0
5, 135552, Note_on_c, 0, 53, 42
5, 135742, Note_on_c, 0, 53, 0
5, 135744, Note_on_c, 0, 54, 39
5, 135838, Note_on_c, 0, 54, 0
5, 135840, Note_on_c, 0, 56, 42
5, 135934, Note_on_c, 0, 56, 0
5, 135936, Note_on_c, 0, 58, 42
5, 136510, Note_on_c, 0, 58, 0
5, 136704, Note_on_c, 0, 48, 40
5, 136894, Note_on_c, 0, 48, 0
5, 136896, Note_on_c, 0, 51, 42
5, 137086, Note_on_c, 0, 51, 0
5, 137088, Note_on_c, 0, 53, 44
5, 137278, Note_on_c, 0, 53, 0
5, 137280, Note_on_c, 0, 54, 45
5, 137374, Note_on_c, 0, 54, 0
5, 137376, Note_on_c, 0, 56, 42
5, 137470, Note_on_c, 0, 56, 0
5, 137472, Note_on_c, 0, 58, 48
5, 137854, Note_on_c, 0, 58, 0
5, 137856, Note_on_c, 0, 53, 47
5, 138238, Note_on_c, 0, 53, 0
5, 138240, Note_on_c, 0, 54, 42
5, 138334, Note_on_c, 0, 54, 0
5, 138624, Note_on_c, 0, 53, 41
5, 139006, Note_on_c, 0, 53, 0
5, 139008, Note_on_c, 0, 54, 41
5, 139102, Note_on_c, 0, 54, 0
5, 141312, Note_on_c, 0, 53, 39
5, 142174, Note_on_c, 0, 53, 0
5, 143712, Note_on_c, 0, 54, 39
5, 143806, Note_on_c, 0, 54, 0
5, 143904, Note_on_c, 0, 56, 39
5, 143998, Note_on_c, 0, 56, 0
5, 144000, Note_on_c, 0, 58, 39
5, 144190, Note_on_c, 0, 58, 0
5, 144192, Note_on_c, 0, 59, 39
5, 144382, Note_on_c, 0, 59, 0
5, 144480, Note_on_c, 0, 54, 39
5, 144574, Note_on_c, 0, 54, 0
5, 144672, Note_on_c, 0, 56, 39
5, 144766, Note_on_c, 0, 56, 0
5, 144768, Note_on_c, 0, 58, 39
5, 144958, Note_on_c, 0, 58, 0
5, 144960, Note_on_c, 0, 59, 39
5, 145150, Note_on_c, 0, 59, 0
5, 145248, Note_on_c, 0, 54, 39
5, 145342, Note_on_c, 0, 54, 0
5, 145440, Note_on_c, 0, 56, 39
5, 145534, Note_on_c, 0, 56, 0
5, 145536, Note_on_c, 0, 58, 39
5, 145630, Note_on_c, 0, 58, 0
5, 145728, Note_on_c, 0, 59, 39
5, 145822, Note_on_c, 0, 59, 0
5, 146016, Note_on_c, 0, 54, 39
5, 146110, Note_on_c, 0, 54, 0
5, 146208, Note_on_c, 0, 56, 39
5, 146302, Note_on_c, 0, 56, 0
5, 146304, Note_on_c, 0, 58, 39
5, 146398, Note_on_c, 0, 58, 0
5, 146496, Note_on_c, 0, 59, 39
5, 146590, Note_on_c, 0, 59, 0
5, 146784, Note_on_c, 0, 54, 39
5, 146878, Note_on_c, 0, 54, 0
5, 146976, Note_on_c, 0, 56, 39
5, 147070, Note_on_c, 0, 56, 0
5, 147072, Note_on_c, 0, 58, 39
5, 147166, Note_on_c, 0, 58, 0
5, 147264, Note_on_c, 0, 59, 39
5, 147358, Note_on_c, 0, 59, 0
5, 147552, Note_on_c, 0, 54, 37
5, 147646, Note_on_c, 0, 54, 0
5, 147744, Note_on_c, 0, 56, 37
5, 147838, Note_on_c, 0, 56, 0
5, 147840, Note_on_c, 0, 58, 37
5, 147934, Note_on_c, 0, 58, 0
5, 148032, Note_on_c, 0, 59, 37
5, 148126, Note_on_c, 0, 59, 0
5, 148320, Note_on_c, 0, 54, 37
5, 148414, Note_on_c, 0, 54, 0
5, 148512, Note_on_c, 0, 56, 37
5, 148606, Note_on_c, 0, 56, 0
5, 148608, Note_on_c, 0, 58, 37
5, 148702, Note_on_c, 0, 58, 0
5, 148800, Note_on_c, 0, 59, 37
5, 148894, Note_on_c, 0, 59, 0
5, 149088, Note_on_c, 0, 54, 37
5, 149182, Note_on_c, 0, 54, 0
5, 149280, Note_on_c, 0, 56, 37
5, 149374, Note_on_c, 0, 56, 0
5, 149376, Note_on_c, 0, 58, 37
5, 149470, Note_on_c, 0, 58, 0
5, 149568, Note_on_c, 0, 59, 37
5, 149662, Note_on_c, 0, 59, 0
5, 149856, Note_on_c, 0, 54, 37
5, 149950, Note_on_c, 0, 54, 0
5, 150048, Note_on_c, 0, 56, 37
5, 150142, Note_on_c, 0, 56, 0
5, 150144, Note_on_c, 0, 58, 37
5, 150238, Note_on_c, 0, 58, 0
5, 150336, Note_on_c, 0, 59, 37
5, 150430, Note_on_c, 0, 59, 0
5, 150624, Note_on_c, 0, 54, 37
5, 150718, Note_on_c, 0, 54, 0
5, 150816, Note_on_c, 0, 56, 37
5, 150910, Note_on_c, 0, 56, 0
5, 150912, Note_on_c, 0, 58, 37
5, 151006, Note_on_c, 0, 58, 0
5, 151104, Note_on_c, 0, 59, 37
5, 151198, Note_on_c, 0, 59, 0
5, 151392, Note_on_c, 0, 54, 37
5, 151486, Note_on_c, 0, 54, 0
5, 151584, Note_on_c, 0, 56, 37
5, 151678, Note_on_c, 0, 56, 0
5, 151680, Note_on_c, 0, 58, 37
5, 151774, Note_on_c, 0, 58, 0
5, 151872, Note_on_c, 0, 59, 37
5, 151966, Note_on_c, 0, 59, 0
5, 152160, Note_on_c, 0, 54, 37
5, 152254, Note_on_c, 0, 54, 0
5, 152352, Note_on_c, 0, 56, 37
5, 152446, Note_on_c, 0, 56, 0
5, 152448, Note_on_c, 0, 58, 37
5, 152542, Note_on_c, 0, 58, 0
5, 152640, Note_on_c, 0, 59, 37
5, 152734, Note_on_c, 0, 59, 0
5, 152832, Note_on_c, 0, 58, 37
5, 152926, Note_on_c, 0, 58, 0
5, 153024, Note_on_c, 0, 59, 37
5, 153118, Note_on_c, 0, 59, 0
5, 153216, Note_on_c, 0, 58, 37
5, 153310, Note_on_c, 0, 58, 0
5, 153408, Note_on_c, 0, 59, 37
5, 153502, Note_on_c, 0, 59, 0
5, 153600, Note_on_c, 0, 58, 95
5, 153640, Note_on_c, 0, 58, 0
5, 153696, Note_on_c, 0, 58, 95
5, 153736, Note_on_c, 0, 58, 0
5, 153744, Note_on_c, 0, 59, 95
5, 153784, Note_on_c, 0, 59, 0
5, 153792, Note_on_c, 0, 58, 95
5, 153832, Note_on_c, 0, 58, 0
5, 153888, Note_on_c, 0, 56, 95
5, 153948, Note_on_c, 0, 56, 0
5, 153984, Note_on_c, 0, 54, 95
5, 154024, Note_on_c, 0, 54, 0
5, 154080, Note_on_c, 0, 54, 95
5, 154120, Note_on_c, 0, 54, 0
5, 154128, Note_on_c, 0, 56, 95
5, 154168, Note_on_c, 0, 56, 0
5, 154176, Note_on_c, 0, 54, 80
5, 154216, Note_on_c, 0, 54, 0
5, 154272, Note_on_c, 0, 53, 72
5, 154332, Note_on_c, 0, 53, 0
5, 154368, Note_on_c, 0, 51, 54
5, 154704, Note_on_c, 0, 51, 0
5, 156960, Note_on_c, 0, 54, 39
5, 157054, Note_on_c, 0, 54, 0
5, 157056, Note_on_c, 0, 56, 39
5, 157246, Note_on_c, 0, 56, 0
5, 157344, Note_on_c, 0, 65, 38
5, 157344, Note_on_c, 0, 63, 37
5, 157438, Note_on_c, 0, 63, 0
5, 157438, Note_on_c, 0, 65, 0
5, 157440, Note_on_c, 0, 65, 39
5, 157440, Note_on_c, 0, 63, 41
5, 157534, Note_on_c, 0, 63, 0
5, 157534, Note_on_c, 0, 65, 0
5, 157536, Note_on_c, 0, 61, 39
5, 157536, Note_on_c, 0, 60, 38
5, 157630, Note_on_c, 0, 60, 0
5, 157630, Note_on_c, 0, 61, 0
5, 157632, Note_on_c, 0, 61, 39
5, 157632, Note_on_c, 0, 60, 42
5, 157726, Note_on_c, 0, 60, 0
5, 157726, Note_on_c, 0, 61, 0
5, 157728, Note_on_c, 0, 58, 37
5, 157822, Note_on_c, 0, 58, 0
5, 157824, Note_on_c, 0, 57, 40
5, 157918, Note_on_c, 0, 57, 0
5, 157920, Note_on_c, 0, 55, 39
5, 158014, Note_on_c, 0, 55, 0
5, 158016, Note_on_c, 0, 54, 35
5, 158110, Note_on_c, 0, 54, 0
5, 158304, Note_on_c, 0, 56, 38
5, 158374, Note_on_c, 0, 56, 0
5, 158400, Note_on_c, 0, 57, 45
5, 158494, Note_on_c, 0, 57, 0
5, 158688, Note_on_c, 0, 59, 42
5, 158758, Note_on_c, 0, 59, 0
5, 158784, Note_on_c, 0, 60, 39
5, 158878, Note_on_c, 0, 60, 0
5, 159072, Note_on_c, 0, 62, 40
5, 159142, Note_on_c, 0, 62, 0
5, 159168, Note_on_c, 0, 63, 43
5, 159262, Note_on_c, 0, 63, 0
5, 159456, Note_on_c, 0, 65, 42
5, 159526, Note_on_c, 0, 65, 0
5, 159552, Note_on_c, 0, 66, 2
5, 159742, Note_on_c, 0, 66, 0
5, 159936, Note_on_c, 0, 57, 40
5, 160126, Note_on_c, 0, 57, 0
5, 160128, Note_on_c, 0, 56, 59
5, 160318, Note_on_c, 0, 56, 0
5, 160320, Note_on_c, 0, 57, 35
5, 160510, Note_on_c, 0, 57, 0
5, 160704, Note_on_c, 0, 58, 42
5, 160894, Note_on_c, 0, 58, 0
5, 160896, Note_on_c, 0, 57, 54
5, 161086, Note_on_c, 0, 57, 0
5, 161088, Note_on_c, 0, 58, 45
5, 161278, Note_on_c, 0, 58, 0
5, 161856, Note_on_c, 0, 51, 57
5, 161950, Note_on_c, 0, 51, 0
5, 161952, Note_on_c, 0, 51, 57
5, 162046, Note_on_c, 0, 51, 0
5, 162048, Note_on_c, 0, 51, 57
5, 162048, Note_on_c, 0, 56, 57
5, 162142, Note_on_c, 0, 51, 0
5, 162238, Note_on_c, 0, 56, 0
5, 162240, Note_on_c, 0, 56, 57
5, 162430, Note_on_c, 0, 56, 0
5, 162432, Note_on_c, 0, 57, 57
5, 162622, Note_on_c, 0, 57, 0
5, 162624, Note_on_c, 0, 57, 57
5, 162814, Note_on_c, 0, 57, 0
5, 162816, Note_on_c, 0, 58, 57
5, 162910, Note_on_c, 0, 58, 0
5, 162912, Note_on_c, 0, 60, 57
5, 163006, Note_on_c, 0, 60, 0
5, 163008, Note_on_c, 0, 61, 57
5, 163102, Note_on_c, 0, 61, 0
5, 163680, Note_on_c, 0, 49, 57
5, 163774, Note_on_c, 0, 49, 0
5, 163776, Note_on_c, 0, 49, 57
5, 163776, Note_on_c, 0, 61, 57
5, 163870, Note_on_c, 0, 49, 0
5, 164062, Note_on_c, 0, 61, 0
5, 164064, Note_on_c, 0, 52, 57
5, 164158, Note_on_c, 0, 52, 0
5, 164160, Note_on_c, 0, 52, 57
5, 164160, Note_on_c, 0, 64, 57
5, 164254, Note_on_c, 0, 52, 0
5, 164446, Note_on_c, 0, 64, 0
5, 164448, Note_on_c, 0, 52, 57
5, 164542, Note_on_c, 0, 52, 0
5, 164544, Note_on_c, 0, 52, 57
5, 164544, Note_on_c, 0, 64, 57
5, 164638, Note_on_c, 0, 64, 0
5, 164638, Note_on_c, 0, 52, 0
5, 164640, Note_on_c, 0, 55, 57
5, 164734, Note_on_c, 0, 55, 0
5, 164736, Note_on_c, 0, 55, 57
5, 164736, Note_on_c, 0, 67, 57
5, 164830, Note_on_c, 0, 67, 0
5, 164830, Note_on_c, 0, 55, 0
5, 164832, Note_on_c, 0, 58, 57
5, 164926, Note_on_c, 0, 58, 0
5, 164928, Note_on_c, 0, 58, 57
5, 164928, Note_on_c, 0, 70, 57
5, 165022, Note_on_c, 0, 70, 0
5, 165022, Note_on_c, 0, 58, 0
5, 165312, Note_on_c, 0, 58, 39
5, 165502, Note_on_c, 0, 58, 0
5, 165504, Note_on_c, 0, 57, 54
5, 165694, Note_on_c, 0, 57, 0
5, 165696, Note_on_c, 0, 58, 42
5, 165886, Note_on_c, 0, 58, 0
5, 166080, Note_on_c, 0, 59, 35
5, 166270, Note_on_c, 0, 59, 0
5, 166272, Note_on_c, 0, 58, 49
5, 166462, Note_on_c, 0, 58, 0
5, 166464, Note_on_c, 0, 59, 48
5, 166654, Note_on_c, 0, 59, 0
5, 167232, Note_on_c, 0, 52, 46
5, 167326, Note_on_c, 0, 52, 0
5, 167328, Note_on_c, 0, 52, 46
5, 167422, Note_on_c, 0, 52, 0
5, 167424, Note_on_c, 0, 52, 46
5, 167424, Note_on_c, 0, 57, 45
5, 167518, Note_on_c, 0, 52, 0
5, 167614, Note_on_c, 0, 57, 0
5, 167616, Note_on_c, 0, 57, 48
5, 167806, Note_on_c, 0, 57, 0
5, 167808, Note_on_c, 0, 58, 48
5, 167998, Note_on_c, 0, 58, 0
5, 168000, Note_on_c, 0, 58, 47
5, 168190, Note_on_c, 0, 58, 0
5, 168192, Note_on_c, 0, 59, 47
5, 168286, Note_on_c, 0, 59, 0
5, 168288, Note_on_c, 0, 61, 42
5, 168382, Note_on_c, 0, 61, 0
5, 168384, Note_on_c, 0, 62, 50
5, 168478, Note_on_c, 0, 62, 0
5, 169056, Note_on_c, 0, 50, 43
5, 169150, Note_on_c, 0, 50, 0
5, 169152, Note_on_c, 0, 50, 46
5, 169152, Note_on_c, 0, 62, 51
5, 169246, Note_on_c, 0, 50, 0
5, 169438, Note_on_c, 0, 62, 0
5, 169440, Note_on_c, 0, 53, 36
5, 169534, Note_on_c, 0, 53, 0
5, 169536, Note_on_c, 0, 53, 42
5, 169536, Note_on_c, 0, 65, 49
5, 169630, Note_on_c, 0, 53, 0
5, 169822, Note_on_c, 0, 65, 0
5, 169824, Note_on_c, 0, 53, 42
5, 169918, Note_on_c, 0, 53, 0
5, 169920, Note_on_c, 0, 53, 44
5, 169920, Note_on_c, 0, 65, 50
5, 170014, Note_on_c, 0, 65, 0
5, 170014, Note_on_c, 0, 53, 0
5, 170016, Note_on_c, 0, 56, 42
5, 170110, Note_on_c, 0, 56, 0
5, 170112, Note_on_c, 0, 56, 45
5, 170112, Note_on_c, 0, 68, 49
5, 170206, Note_on_c, 0, 68, 0
5, 170206, Note_on_c, 0, 56, 0
5, 170208, Note_on_c, 0, 59, 43
5, 170302, Note_on_c, 0, 59, 0
5, 170304, Note_on_c, 0, 59, 45
5, 170304, Note_on_c, 0, 71, 46
5, 170398, Note_on_c, 0, 71, 0
5, 170398, Note_on_c, 0, 59, 0
5, 170400, Note_on_c, 0, 72, 54
5, 170494, Note_on_c, 0, 72, 0
5, 170592, Note_on_c, 0, 54, 57
5, 170686, Note_on_c, 0, 54, 0
5, 170688, Note_on_c, 0, 54, 57
5, 170688, Note_on_c, 0, 66, 57
5, 170782, Note_on_c, 0, 54, 0
5, 170974, Note_on_c, 0, 66, 0
5, 170976, Note_on_c, 0, 57, 57
5, 171070, Note_on_c, 0, 57, 0
5, 171072, Note_on_c, 0, 57, 57
5, 171072, Note_on_c, 0, 69, 57
5, 171166, Note_on_c, 0, 57, 0
5, 171358, Note_on_c, 0, 69, 0
5, 171360, Note_on_c, 0, 57, 57
5, 171454, Note_on_c, 0, 57, 0
5, 171456, Note_on_c, 0, 57, 57
5, 171456, Note_on_c, 0, 69, 57
5, 171550, Note_on_c, 0, 69, 0
5, 171550, Note_on_c, 0, 57, 0
5, 171552, Note_on_c, 0, 60, 57
5, 171646, Note_on_c, 0, 60, 0
5, 171648, Note_on_c, 0, 60, 57
5, 171648, Note_on_c, 0, 72, 57
5, 171742, Note_on_c, 0, 72, 0
5, 171742, Note_on_c, 0, 60, 0
5, 171744, Note_on_c, 0, 63, 57
5, 171838, Note_on_c, 0, 63, 0
5, 171840, Note_on_c, 0, 63, 57
5, 171840, Note_on_c, 0, 75, 57
5, 171934, Note_on_c, 0, 75, 0
5, 171934, Note_on_c, 0, 63, 0
5, 171936, Note_on_c, 0, 76, 57
5, 172030, Note_on_c, 0, 76, 0
5, 172128, Note_on_c, 0, 64, 75
5, 172222, Note_on_c, 0, 64, 0
5, 172224, Note_on_c, 0, 64, 75
5, 172224, Note_on_c, 0, 76, 75
5, 172318, Note_on_c, 0, 76, 0
5, 172318, Note_on_c, 0, 64, 0
5, 172320, Note_on_c, 0, 76, 75
5, 172414, Note_on_c, 0, 76, 0
5, 172416, Note_on_c, 0, 76, 75
5, 172510, Note_on_c, 0, 76, 0
5, 172512, Note_on_c, 0, 64, 75
5, 172606, Note_on_c, 0, 64, 0
5, 172608, Note_on_c, 0, 64, 75
5, 172608, Note_on_c, 0, 60, 38
5, 172702, Note_on_c, 0, 60, 0
5, 172702, Note_on_c, 0, 64, 0
5, 172704, Note_on_c, 0, 61, 35
5, 172704, Note_on_c, 0, 67, 45
5, 172798, Note_on_c, 0, 67, 0
5, 172798, Note_on_c, 0, 61, 0
5, 172800, Note_on_c, 0, 67, 42
5, 172800, Note_on_c, 0, 61, 45
5, 172894, Note_on_c, 0, 61, 0
5, 172894, Note_on_c, 0, 67, 0
5, 172896, Note_on_c, 0, 62, 49
5, 172896, Note_on_c, 0, 70, 41
5, 172990, Note_on_c, 0, 70, 0
5, 172990, Note_on_c, 0, 62, 0
5, 172992, Note_on_c, 0, 70, 40
5, 172992, Note_on_c, 0, 66, 39
5, 173086, Note_on_c, 0, 66, 0
5, 173086, Note_on_c, 0, 70, 0
5, 173088, Note_on_c, 0, 67, 48
5, 173088, Note_on_c, 0, 73, 43
5, 173182, Note_on_c, 0, 73, 0
5, 173182, Note_on_c, 0, 67, 0
5, 173184, Note_on_c, 0, 73, 40
5, 173184, Note_on_c, 0, 69, 42
5, 173278, Note_on_c, 0, 69, 0
5, 173278, Note_on_c, 0, 73, 0
5, 173280, Note_on_c, 0, 70, 39
5, 173280, Note_on_c, 0, 76, 42
5, 173374, Note_on_c, 0, 76, 0
5, 173374, Note_on_c, 0, 70, 0
5, 173376, Note_on_c, 0, 76, 45
5, 173376, Note_on_c, 0, 72, 42
5, 173470, Note_on_c, 0, 72, 0
5, 173470, Note_on_c, 0, 76, 0
5, 173472, Note_on_c, 0, 73, 39
5, 173472, Note_on_c, 0, 76, 44
5, 173566, Note_on_c, 0, 76, 0
5, 173566, Note_on_c, 0, 73, 0
5, 173568, Note_on_c, 0, 76, 39
5, 173662, Note_on_c, 0, 76, 0
5, 173664, Note_on_c, 0, 61, 39
5, 173758, Note_on_c, 0, 61, 0
5, 173760, Note_on_c, 0, 61, 39
5, 173760, Note_on_c, 0, 73, 40
5, 173854, Note_on_c, 0, 73, 0
5, 173854, Note_on_c, 0, 61, 0
5, 173856, Note_on_c, 0, 73, 39
5, 173950, Note_on_c, 0, 73, 0
5, 173952, Note_on_c, 0, 73, 45
5, 174046, Note_on_c, 0, 73, 0
5, 174048, Note_on_c, 0, 61, 39
5, 174142, Note_on_c, 0, 61, 0
5, 174144, Note_on_c, 0, 61, 39
5, 174144, Note_on_c, 0, 57, 38
5, 174238, Note_on_c, 0, 57, 0
5, 174238, Note_on_c, 0, 61, 0
5, 174240, Note_on_c, 0, 57, 36
5, 174240, Note_on_c, 0, 64, 40
5, 174334, Note_on_c, 0, 64, 0
5, 174334, Note_on_c, 0, 57, 0
5, 174336, Note_on_c, 0, 64, 43
5, 174336, Note_on_c, 0, 60, 40
5, 174430, Note_on_c, 0, 60, 0
5, 174430, Note_on_c, 0, 64, 0
5, 174432, Note_on_c, 0, 61, 39
5, 174432, Note_on_c, 0, 67, 40
5, 174526, Note_on_c, 0, 67, 0
5, 174526, Note_on_c, 0, 61, 0
5, 174528, Note_on_c, 0, 67, 45
5, 174528, Note_on_c, 0, 63, 35
5, 174622, Note_on_c, 0, 63, 0
5, 174622, Note_on_c, 0, 67, 0
5, 174624, Note_on_c, 0, 64, 42
5, 174624, Note_on_c, 0, 70, 36
5, 174718, Note_on_c, 0, 70, 0
5, 174718, Note_on_c, 0, 64, 0
5, 174720, Note_on_c, 0, 70, 39
5, 174720, Note_on_c, 0, 66, 39
5, 174814, Note_on_c, 0, 66, 0
5, 174814, Note_on_c, 0, 70, 0
5, 174816, Note_on_c, 0, 67, 45
5, 174816, Note_on_c, 0, 73, 40
5, 174910, Note_on_c, 0, 73, 0
5, 174910, Note_on_c, 0, 67, 0
5, 174912, Note_on_c, 0, 73, 40
5, 174912, Note_on_c, 0, 69, 42
5, 175006, Note_on_c, 0, 69, 0
5, 175006, Note_on_c, 0, 73, 0
5, 175008, Note_on_c, 0, 70, 40
5, 175008, Note_on_c, 0, 79, 44
5, 175102, Note_on_c, 0, 79, 0
5, 175102, Note_on_c, 0, 70, 0
5, 175104, Note_on_c, 0, 79, 47
5, 175198, Note_on_c, 0, 79, 0
5, 175200, Note_on_c, 0, 67, 45
5, 175294, Note_on_c, 0, 67, 0
5, 175296, Note_on_c, 0, 67, 51
5, 175296, Note_on_c, 0, 79, 75
5, 175390, Note_on_c, 0, 79, 0
5, 175390, Note_on_c, 0, 67, 0
5, 175392, Note_on_c, 0, 79, 75
5, 175486, Note_on_c, 0, 79, 0
5, 175488, Note_on_c, 0, 79, 75
5, 175582, Note_on_c, 0, 79, 0
5, 175584, Note_on_c, 0, 67, 46
5, 175678, Note_on_c, 0, 67, 0
5, 175680, Note_on_c, 0, 67, 45
5, 175680, Note_on_c, 0, 61, 43
5, 175774, Note_on_c, 0, 61, 0
5, 175774, Note_on_c, 0, 67, 0
5, 175776, Note_on_c, 0, 62, 47
5, 175776, Note_on_c, 0, 70, 42
5, 175870, Note_on_c, 0, 70, 0
5, 175870, Note_on_c, 0, 62, 0
5, 175872, Note_on_c, 0, 70, 45
5, 175872, Note_on_c, 0, 66, 47
5, 175966, Note_on_c, 0, 66, 0
5, 175966, Note_on_c, 0, 70, 0
5, 175968, Note_on_c, 0, 67, 50
5, 175968, Note_on_c, 0, 73, 42
5, 176062, Note_on_c, 0, 73, 0
5, 176062, Note_on_c, 0, 67, 0
5, 176064, Note_on_c, 0, 73, 43
5, 176064, Note_on_c, 0, 69, 43
5, 176158, Note_on_c, 0, 69, 0
5, 176158, Note_on_c, 0, 73, 0
5, 176160, Note_on_c, 0, 70, 42
5, 176160, Note_on_c, 0, 76, 38
5, 176254, Note_on_c, 0, 76, 0
5, 176254, Note_on_c, 0, 70, 0
5, 176256, Note_on_c, 0, 76, 43
5, 176256, Note_on_c, 0, 72, 42
5, 176350, Note_on_c, 0, 72, 0
5, 176350, Note_on_c, 0, 76, 0
5, 176352, Note_on_c, 0, 73, 42
5, 176352, Note_on_c, 0, 79, 45
5, 176446, Note_on_c, 0, 79, 0
5, 176446, Note_on_c, 0, 73, 0
5, 176448, Note_on_c, 0, 79, 42
5, 176448, Note_on_c, 0, 75, 42
5, 176542, Note_on_c, 0, 75, 0
5, 176542, Note_on_c, 0, 79, 0
5, 176544, Note_on_c, 0, 76, 44
5, 176544, Note_on_c, 0, 79, 39
5, 176638, Note_on_c, 0, 79, 0
5, 176638, Note_on_c, 0, 76, 0
5, 176640, Note_on_c, 0, 79, 46
5, 176734, Note_on_c, 0, 79, 0
5, 176736, Note_on_c, 0, 64, 75
5, 176830, Note_on_c, 0, 64, 0
5, 176832, Note_on_c, 0, 64, 75
5, 176832, Note_on_c, 0, 79, 75
5, 176926, Note_on_c, 0, 79, 0
5, 176926, Note_on_c, 0, 64, 0
5, 176928, Note_on_c, 0, 79, 75
5, 177022, Note_on_c, 0, 79, 0
5, 177024, Note_on_c, 0, 79, 75
5, 177118, Note_on_c, 0, 79, 0
5, 177120, Note_on_c, 0, 64, 75
5, 177214, Note_on_c, 0, 64, 0
5, 177216, Note_on_c, 0, 64, 75
5, 177216, Note_on_c, 0, 60, 75
5, 177310, Note_on_c, 0, 60, 0
5, 177310, Note_on_c, 0, 64, 0
5, 177312, Note_on_c, 0, 61, 75
5, 177406, Note_on_c, 0, 61, 0
5, 177504, Note_on_c, 0, 64, 75
5, 177598, Note_on_c, 0, 64, 0
5, 177600, Note_on_c, 0, 64, 75
5, 177600, Note_on_c, 0, 79, 75
5, 177694, Note_on_c, 0, 79, 0
5, 177694, Note_on_c, 0, 64, 0
5, 177696, Note_on_c, 0, 79, 75
5, 177790, Note_on_c, 0, 79, 0
5, 177792, Note_on_c, 0, 79, 75
5, 177886, Note_on_c, 0, 79, 0
5, 177888, Note_on_c, 0, 64, 75
5, 177982, Note_on_c, 0, 64, 0
5, 177984, Note_on_c, 0, 64, 75
5, 177984, Note_on_c, 0, 60, 75
5, 178078, Note_on_c, 0, 60, 0
5, 178078, Note_on_c, 0, 64, 0
5, 178080, Note_on_c, 0, 61, 75
5, 178174, Note_on_c, 0, 61, 0
5, 178272, Note_on_c, 0, 65, 75
5, 178366, Note_on_c, 0, 65, 0
5, 178368, Note_on_c, 0, 65, 75
5, 178368, Note_on_c, 0, 77, 75
5, 178462, Note_on_c, 0, 77, 0
5, 178462, Note_on_c, 0, 65, 0
5, 178464, Note_on_c, 0, 77, 75
5, 178558, Note_on_c, 0, 77, 0
5, 178560, Note_on_c, 0, 77, 75
5, 178654, Note_on_c, 0, 77, 0
5, 178656, Note_on_c, 0, 65, 75
5, 178750, Note_on_c, 0, 65, 0
5, 178752, Note_on_c, 0, 65, 75
5, 178752, Note_on_c, 0, 61, 75
5, 178846, Note_on_c, 0, 61, 0
5, 178846, Note_on_c, 0, 65, 0
5, 178848, Note_on_c, 0, 62, 75
5, 178942, Note_on_c, 0, 62, 0
5, 179040, Note_on_c, 0, 66, 75
5, 179134, Note_on_c, 0, 66, 0
5, 179136, Note_on_c, 0, 66, 75
5, 179136, Note_on_c, 0, 80, 75
5, 179230, Note_on_c, 0, 80, 0
5, 179230, Note_on_c, 0, 66, 0
5, 179232, Note_on_c, 0, 80, 75
5, 179326, Note_on_c, 0, 80, 0
5, 179328, Note_on_c, 0, 80, 75
5, 179422, Note_on_c, 0, 80, 0
5, 179424, Note_on_c, 0, 66, 75
5, 179518, Note_on_c, 0, 66, 0
5, 179520, Note_on_c, 0, 66, 75
5, 179520, Note_on_c, 0, 62, 75
5, 179614, Note_on_c, 0, 62, 0
5, 179614, Note_on_c, 0, 66, 0
5, 179616, Note_on_c, 0, 63, 75
5, 179616, Note_on_c, 0, 69, 75
5, 179710, Note_on_c, 0, 69, 0
5, 179710, Note_on_c, 0, 63, 0
5, 179712, Note_on_c, 0, 69, 71
5, 179712, Note_on_c, 0, 65, 71
5, 179806, Note_on_c, 0, 65, 0
5, 179806, Note_on_c, 0, 69, 0
5, 179808, Note_on_c, 0, 66, 71
5, 179808, Note_on_c, 0, 72, 71
5, 179902, Note_on_c, 0, 72, 0
5, 179902, Note_on_c, 0, 66, 0
5, 179904, Note_on_c, 0, 72, 71
5, 179904, Note_on_c, 0, 68, 71
5, 179998, Note_on_c, 0, 68, 0
5, 179998, Note_on_c, 0, 72, 0
5, 180000, Note_on_c, 0, 69, 71
5, 180000, Note_on_c, 0, 75, 71
5, 180094, Note_on_c, 0, 75, 0
5, 180094, Note_on_c, 0, 69, 0
5, 180096, Note_on_c, 0, 75, 71
5, 180096, Note_on_c, 0, 71, 74
5, 180190, Note_on_c, 0, 71, 0
5, 180190, Note_on_c, 0, 75, 0
5, 180192, Note_on_c, 0, 72, 74
5, 180192, Note_on_c, 0, 78, 74
5, 180286, Note_on_c, 0, 78, 0
5, 180286, Note_on_c, 0, 72, 0
5, 180288, Note_on_c, 0, 78, 74
5, 180288, Note_on_c, 0, 71, 74
5, 180382, Note_on_c, 0, 71, 0
5, 180382, Note_on_c, 0, 78, 0
5, 180384, Note_on_c, 0, 72, 74
5, 180384, Note_on_c, 0, 69, 35
5, 180384, Note_on_c, 0, 78, 74
5, 180478, Note_on_c, 0, 78, 0
5, 180478, Note_on_c, 0, 69, 0
5, 180478, Note_on_c, 0, 72, 0
5, 180480, Note_on_c, 0, 69, 71
5, 180480, Note_on_c, 0, 78, 71
5, 180480, Note_on_c, 0, 68, 71
5, 180480, Note_on_c, 0, 77, 71
5, 180574, Note_on_c, 0, 77, 0
5, 180574, Note_on_c, 0, 69, 0
5, 180574, Note_on_c, 0, 78, 0
5, 180574, Note_on_c, 0, 68, 0
5, 180576, Note_on_c, 0, 78, 71
5, 180576, Note_on_c, 0, 69, 71
5, 180576, Note_on_c, 0, 69, 71
5, 180576, Note_on_c, 0, 78, 71
5, 180670, Note_on_c, 0, 78, 0
5, 180670, Note_on_c, 0, 78, 0
5, 180670, Note_on_c, 0, 69, 0
5, 180670, Note_on_c, 0, 69, 0
5, 180672, Note_on_c, 0, 69, 71
5, 180672, Note_on_c, 0, 78, 71
5, 180672, Note_on_c, 0, 77, 74
5, 180672, Note_on_c, 0, 68, 74
5, 180766, Note_on_c, 0, 68, 0
5, 180766, Note_on_c, 0, 69, 0
5, 180766, Note_on_c, 0, 78, 0
5, 180766, Note_on_c, 0, 77, 0
5, 180768, Note_on_c, 0, 78, 74
5, 180768, Note_on_c, 0, 69, 74
5, 180768, Note_on_c, 0, 69, 74
5, 180768, Note_on_c, 0, 78, 74
5, 180862, Note_on_c, 0, 78, 0
5, 180862, Note_on_c, 0, 78, 0
5, 180862, Note_on_c, 0, 69, 0
5, 180862, Note_on_c, 0, 69, 0
5, 180864, Note_on_c, 0, 69, 74
5, 180864, Note_on_c, 0, 78, 74
5, 180864, Note_on_c, 0, 69, 74
5, 180864, Note_on_c, 0, 77, 74
5, 180958, Note_on_c, 0, 77, 0
5, 180958, Note_on_c, 0, 69, 0
5, 180958, Note_on_c, 0, 78, 0
5, 180958, Note_on_c, 0, 69, 0
5, 180960, Note_on_c, 0, 78, 74
5, 180960, Note_on_c, 0, 69, 74
5, 180960, Note_on_c, 0, 69, 74
5, 180960, Note_on_c, 0, 78, 74
5, 181054, Note_on_c, 0, 78, 0
5, 181054, Note_on_c, 0, 78, 0
5, 181054, Note_on_c, 0, 69, 0
5, 181054, Note_on_c, 0, 69, 0
5, 181056, Note_on_c, 0, 69, 74
5, 181056, Note_on_c, 0, 78, 74
5, 181056, Note_on_c, 0, 77, 74
5, 181056, Note_on_c, 0, 68, 74
5, 181150, Note_on_c, 0, 68, 0
5, 181150, Note_on_c, 0, 69, 0
5, 181150, Note_on_c, 0, 78, 0
5, 181150, Note_on_c, 0, 77, 0
5, 181152, Note_on_c, 0, 78, 74
5, 181152, Note_on_c, 0, 69, 74
5, 181152, Note_on_c, 0, 78, 74
5, 181152, Note_on_c, 0, 69, 74
5, 181246, Note_on_c, 0, 69, 0
5, 181246, Note_on_c, 0, 78, 0
5, 181246, Note_on_c, 0, 69, 0
5, 181246, Note_on_c, 0, 78, 0
5, 181248, Note_on_c, 0, 69, 74
5, 181248, Note_on_c, 0, 78, 74
5, 181248, Note_on_c, 0, 74, 74
5, 181248, Note_on_c, 0, 65, 74
5, 181342, Note_on_c, 0, 65, 0
5, 181342, Note_on_c, 0, 69, 0
5, 181342, Note_on_c, 0, 78, 0
5, 181342, Note_on_c, 0, 74, 0
5, 181344, Note_on_c, 0, 75, 74
5, 181344, Note_on_c, 0, 66, 74
5, 181344, Note_on_c, 0, 66, 74
5, 181344, Note_on_c, 0, 75, 74
5, 181438, Note_on_c, 0, 75, 0
5, 181438, Note_on_c, 0, 75, 0
5, 181438, Note_on_c, 0, 66, 0
5, 181438, Note_on_c, 0, 66, 0
5, 181440, Note_on_c, 0, 66, 74
5, 181440, Note_on_c, 0, 75, 74
5, 181440, Note_on_c, 0, 65, 74
5, 181440, Note_on_c, 0, 69, 74
5, 181534, Note_on_c, 0, 69, 0
5, 181534, Note_on_c, 0, 66, 0
5, 181534, Note_on_c, 0, 75, 0
5, 181534, Note_on_c, 0, 65, 0
5, 181536, Note_on_c, 0, 70, 74
5, 181536, Note_on_c, 0, 66, 74
5, 181536, Note_on_c, 0, 66, 74
5, 181536, Note_on_c, 0, 70, 74
5, 181630, Note_on_c, 0, 70, 0
5, 181630, Note_on_c, 0, 70, 0
5, 181630, Note_on_c, 0, 66, 0
5, 181630, Note_on_c, 0, 66, 0
5, 181632, Note_on_c, 0, 66, 74
5, 181632, Note_on_c, 0, 70, 74
5, 181632, Note_on_c, 0, 62, 74
5, 181632, Note_on_c, 0, 65, 74
5, 181726, Note_on_c, 0, 65, 0
5, 181726, Note_on_c, 0, 66, 0
5, 181726, Note_on_c, 0, 70, 0
5, 181726, Note_on_c, 0, 62, 0
5, 181728, Note_on_c, 0, 63, 74
5, 181728, Note_on_c, 0, 66, 74
5, 181728, Note_on_c, 0, 66, 74
5, 181728, Note_on_c, 0, 63, 74
5, 181822, Note_on_c, 0, 63, 0
5, 181822, Note_on_c, 0, 63, 0
5, 181822, Note_on_c, 0, 66, 0
5, 181822, Note_on_c, 0, 66, 0
5, 181824, Note_on_c, 0, 66, 77
5, 181824, Note_on_c, 0, 63, 77
5, 181824, Note_on_c, 0, 65, 77
5, 181824, Note_on_c, 0, 74, 77
5, 181918, Note_on_c, 0, 74, 0
5, 181918, Note_on_c, 0, 66, 0
5, 181918, Note_on_c, 0, 63, 0
5, 181918, Note_on_c, 0, 65, 0
5, 181920, Note_on_c, 0, 75, 77
5, 181920, Note_on_c, 0, 66, 77
5, 181920, Note_on_c, 0, 66, 77
5, 181920, Note_on_c, 0, 75, 77
5, 182014, Note_on_c, 0, 75, 0
5, 182014, Note_on_c, 0, 75, 0
5, 182014, Note_on_c, 0, 66, 0
5, 182014, Note_on_c, 0, 66, 0
5, 182016, Note_on_c, 0, 75, 77
5, 182016, Note_on_c, 0, 66, 77
5, 182016, Note_on_c, 0, 62, 74
5, 182016, Note_on_c, 0, 70, 74
5, 182110, Note_on_c, 0, 70, 0
5, 182110, Note_on_c, 0, 75, 0
5, 182110, Note_on_c, 0, 66, 0
5, 182110, Note_on_c, 0, 62, 0
5, 182112, Note_on_c, 0, 71, 74
5, 182112, Note_on_c, 0, 63, 74
5, 182112, Note_on_c, 0, 63, 74
5, 182112, Note_on_c, 0, 71, 74
5, 182206, Note_on_c, 0, 71, 0
5, 182206, Note_on_c, 0, 71, 0
5, 182206, Note_on_c, 0, 63, 0
5, 182206, Note_on_c, 0, 63, 0
5, 182208, Note_on_c, 0, 71, 74
5, 182208, Note_on_c, 0, 63, 74
5, 182208, Note_on_c, 0, 62, 77
5, 182208, Note_on_c, 0, 65, 77
5, 182302, Note_on_c, 0, 65, 0
5, 182302, Note_on_c, 0, 71, 0
5, 182302, Note_on_c, 0, 63, 0
5, 182302, Note_on_c, 0, 62, 0
5, 182304, Note_on_c, 0, 66, 36
5, 182304, Note_on_c, 0, 63, 75
5, 182304, Note_on_c, 0, 58, 75
5, 182304, Note_on_c, 0, 62, 75
5, 182398, Note_on_c, 0, 62, 0
5, 182398, Note_on_c, 0, 66, 0
5, 182398, Note_on_c, 0, 63, 0
5, 182398, Note_on_c, 0, 58, 0
5, 182400, Note_on_c, 0, 63, 75
5, 182400, Note_on_c, 0, 59, 75
5, 182400, Note_on_c, 0, 54, 75
5, 182494, Note_on_c, 0, 54, 0
5, 182494, Note_on_c, 0, 59, 0
5, 182494, Note_on_c, 0, 63, 0
5, 182496, Note_on_c, 0, 57, 75
5, 182496, Note_on_c, 0, 50, 75
5, 182590, Note_on_c, 0, 50, 0
5, 182590, Note_on_c, 0, 57, 0
5, 182592, Note_on_c, 0, 51, 75
5, 182686, Note_on_c, 0, 51, 0
5, 182880, Note_on_c, 0, 53, 75
5, 182974, Note_on_c, 0, 53, 0
5, 182976, Note_on_c, 0, 65, 75
5, 183070, Note_on_c, 0, 65, 0
5, 183456, Note_on_c, 0, 59, 75
5, 183456, Note_on_c, 0, 68, 75
5, 183550, Note_on_c, 0, 68, 0
5, 183550, Note_on_c, 0, 59, 0
5, 183648, Note_on_c, 0, 68, 75
5, 183648, Note_on_c, 0, 63, 75
5, 183742, Note_on_c, 0, 63, 0
5, 183742, Note_on_c, 0, 68, 0
5, 183840, Note_on_c, 0, 65, 75
5, 183840, Note_on_c, 0, 59, 75
5, 183934, Note_on_c, 0, 59, 0
5, 183934, Note_on_c, 0, 65, 0
5, 184032, Note_on_c, 0, 65, 75
5, 184032, Note_on_c, 0, 56, 75
5, 184126, Note_on_c, 0, 56, 0
5, 184126, Note_on_c, 0, 65, 0
5, 184128, Note_on_c, 0, 58, 71
5, 184222, Note_on_c, 0, 58, 0
5, 184224, Note_on_c, 0, 58, 71
5, 184224, Note_on_c, 0, 60, 71
5, 184318, Note_on_c, 0, 60, 0
5, 184318, Note_on_c, 0, 58, 0
5, 184320, Note_on_c, 0, 62, 71
5, 184320, Note_on_c, 0, 63, 71
5, 184414, Note_on_c, 0, 62, 0
5, 184510, Note_on_c, 0, 63, 0
5, 184608, Note_on_c, 0, 62, 71
5, 184608, Note_on_c, 0, 63, 71
5, 184702, Note_on_c, 0, 63, 0
5, 184702, Note_on_c, 0, 62, 0
5, 184704, Note_on_c, 0, 65, 71
5, 184704, Note_on_c, 0, 68, 71
5, 184798, Note_on_c, 0, 68, 0
5, 184798, Note_on_c, 0, 65, 0
5, 184800, Note_on_c, 0, 66, 71
5, 184894, Note_on_c, 0, 66, 0
5, 184992, Note_on_c, 0, 51, 71
5, 184992, Note_on_c, 0, 53, 71
5, 185086, Note_on_c, 0, 53, 0
5, 185086, Note_on_c, 0, 51, 0
5, 185088, Note_on_c, 0, 55, 71
5, 185088, Note_on_c, 0, 56, 71
5, 185182, Note_on_c, 0, 55, 0
5, 185278, Note_on_c, 0, 56, 0
5, 185376, Note_on_c, 0, 55, 71
5, 185376, Note_on_c, 0, 56, 71
5, 185470, Note_on_c, 0, 56, 0
5, 185470, Note_on_c, 0, 55, 0
5, 185472, Note_on_c, 0, 58, 71
5, 185472, Note_on_c, 0, 61, 71
5, 185566, Note_on_c, 0, 61, 0
5, 185566, Note_on_c, 0, 58, 0
5, 185568, Note_on_c, 0, 60, 71
5, 185662, Note_on_c, 0, 60, 0
5, 185760, Note_on_c, 0, 58, 77
5, 185760, Note_on_c, 0, 60, 77
5, 185854, Note_on_c, 0, 60, 0
5, 185854, Note_on_c, 0, 58, 0
5, 185856, Note_on_c, 0, 62, 74
5, 185856, Note_on_c, 0, 65, 71
5, 185950, Note_on_c, 0, 65, 0
5, 185950, Note_on_c, 0, 62, 0
5, 185952, Note_on_c, 0, 63, 71
5, 186046, Note_on_c, 0, 63, 0
5, 186144, Note_on_c, 0, 62, 74
5, 186144, Note_on_c, 0, 63, 74
5, 186238, Note_on_c, 0, 63, 0
5, 186238, Note_on_c, 0, 62, 0
5, 186240, Note_on_c, 0, 65, 74
5, 186240, Note_on_c, 0, 68, 74
5, 186334, Note_on_c, 0, 68, 0
5, 186334, Note_on_c, 0, 65, 0
5, 186336, Note_on_c, 0, 66, 74
5, 186336, Note_on_c, 0, 66, 74
5, 186430, Note_on_c, 0, 66, 0
5, 186430, Note_on_c, 0, 66, 0
5, 186432, Note_on_c, 0, 66, 74
5, 186432, Note_on_c, 0, 66, 74
5, 186526, Note_on_c, 0, 66, 0
5, 186526, Note_on_c, 0, 66, 0
5, 186528, Note_on_c, 0, 66, 71
5, 186528, Note_on_c, 0, 66, 71
5, 186622, Note_on_c, 0, 66, 0
5, 186622, Note_on_c, 0, 66, 0
5, 186624, Note_on_c, 0, 66, 71
5, 186718, Note_on_c, 0, 66, 0
5, 188544, Note_on_c, 0, 54, 42
5, 188638, Note_on_c, 0, 54, 0
5, 190848, Note_on_c, 0, 54, 75
5, 190942, Note_on_c, 0, 54, 0
5, 198528, Note_on_c, 0, 57, 57
5, 198910, Note_on_c, 0, 57, 0
5, 198912, Note_on_c, 0, 58, 2
5, 199006, Note_on_c, 0, 58, 0
5, 199488, Note_on_c, 0, 58, 2
5, 199678, Note_on_c, 0, 58, 0
5, 199680, Note_on_c, 0, 60, 28
5, 199774, Note_on_c, 0, 60, 0
5, 199872, Note_on_c, 0, 61, 28
5, 199966, Note_on_c, 0, 61, 0
5, 200064, Note_on_c, 0, 62, 28
5, 200158, Note_on_c, 0, 62, 0
5, 200256, Note_on_c, 0, 68, 28
5, 200350, Note_on_c, 0, 68, 0
5, 200448, Note_on_c, 0, 67, 2
5, 200830, Note_on_c, 0, 67, 0
5, 200832, Note_on_c, 0, 65, 2
5, 201022, Note_on_c, 0, 65, 0
5, 201024, Note_on_c, 0, 58, 2
5, 201214, Note_on_c, 0, 58, 0
5, 201216, Note_on_c, 0, 60, 28
5, 201310, Note_on_c, 0, 60, 0
5, 201408, Note_on_c, 0, 61, 28
5, 201502, Note_on_c, 0, 61, 0
5, 201600, Note_on_c, 0, 62, 28
5, 201694, Note_on_c, 0, 62, 0
5, 201792, Note_on_c, 0, 68, 2
5, 201982, Note_on_c, 0, 68, 0
5, 201984, Note_on_c, 0, 67, 28
5, 202366, Note_on_c, 0, 67, 0
5, 202368, Note_on_c, 0, 62, 28
5, 202462, Note_on_c, 0, 62, 0
5, 202560, Note_on_c, 0, 58, 28
5, 202654, Note_on_c, 0, 58, 0
5, 202752, Note_on_c, 0, 60, 20
5, 202942, Note_on_c, 0, 60, 0
5, 202944, Note_on_c, 0, 63, 20
5, 203134, Note_on_c, 0, 63, 0
5, 203136, Note_on_c, 0, 65, 20
5, 203326, Note_on_c, 0, 65, 0
5, 203328, Note_on_c, 0, 67, 20
5, 203422, Note_on_c, 0, 67, 0
5, 203424, Note_on_c, 0, 68, 20
5, 203518, Note_on_c, 0, 68, 0
5, 203520, Note_on_c, 0, 70, 39
5, 204094, Note_on_c, 0, 70, 0
5, 204096, Note_on_c, 0, 70, 39
5, 204286, Note_on_c, 0, 70, 0
5, 204288, Note_on_c, 0, 72, 39
5, 204478, Note_on_c, 0, 72, 0
5, 204480, Note_on_c, 0, 75, 53
5, 204574, Note_on_c, 0, 75, 0
5, 204672, Note_on_c, 0, 70, 53
5, 204766, Note_on_c, 0, 70, 0
5, 204864, Note_on_c, 0, 69, 53
5, 204958, Note_on_c, 0, 69, 0
5, 204960, Note_on_c, 0, 68, 53
5, 205054, Note_on_c, 0, 68, 0
5, 205056, Note_on_c, 0, 67, 53
5, 205342, Note_on_c, 0, 67, 0
5, 205440, Note_on_c, 0, 65, 50
5, 205630, Note_on_c, 0, 65, 0
5, 205632, Note_on_c, 0, 58, 50
5, 205726, Note_on_c, 0, 58, 0
5, 205824, Note_on_c, 0, 60, 50
5, 206014, Note_on_c, 0, 60, 0
5, 206016, Note_on_c, 0, 63, 53
5, 206110, Note_on_c, 0, 63, 0
5, 206208, Note_on_c, 0, 65, 53
5, 206302, Note_on_c, 0, 65, 0
5, 206400, Note_on_c, 0, 67, 59
5, 206494, Note_on_c, 0, 67, 0
5, 206496, Note_on_c, 0, 68, 59
5, 206590, Note_on_c, 0, 68, 0
5, 206592, Note_on_c, 0, 70, 50
5, 207166, Note_on_c, 0, 70, 0
5, 207168, Note_on_c, 0, 70, 50
5, 207262, Note_on_c, 0, 70, 0
5, 207360, Note_on_c, 0, 72, 56
5, 207454, Note_on_c, 0, 72, 0
5, 207552, Note_on_c, 0, 75, 62
5, 207646, Note_on_c, 0, 75, 0
5, 207744, Note_on_c, 0, 70, 59
5, 207838, Note_on_c, 0, 70, 0
5, 207936, Note_on_c, 0, 69, 62
5, 208030, Note_on_c, 0, 69, 0
5, 208032, Note_on_c, 0, 68, 59
5, 208126, Note_on_c, 0, 68, 0
5, 208128, Note_on_c, 0, 66, 59
5, 208510, Note_on_c, 0, 66, 0
5, 208512, Note_on_c, 0, 65, 28
5, 208606, Note_on_c, 0, 65, 0
5, 208704, Note_on_c, 0, 58, 28
5, 208798, Note_on_c, 0, 58, 0
5, 208896, Note_on_c, 0, 60, 28
5, 208990, Note_on_c, 0, 60, 0
5, 209088, Note_on_c, 0, 63, 28
5, 209182, Note_on_c, 0, 63, 0
5, 209280, Note_on_c, 0, 65, 28
5, 209374, Note_on_c, 0, 65, 0
5, 209472, Note_on_c, 0, 66, 28
5, 209566, Note_on_c, 0, 66, 0
5, 209568, Note_on_c, 0, 68, 28
5, 209662, Note_on_c, 0, 68, 0
5, 209664, Note_on_c, 0, 70, 28
5, 209950, Note_on_c, 0, 70, 0
5, 210240, Note_on_c, 0, 58, 28
5, 210334, Note_on_c, 0, 58, 0
5, 210432, Note_on_c, 0, 60, 2
5, 210622, Note_on_c, 0, 60, 0
5, 210624, Note_on_c, 0, 63, 28
5, 210718, Note_on_c, 0, 63, 0
5, 210816, Note_on_c, 0, 65, 28
5, 210910, Note_on_c, 0, 65, 0
5, 211008, Note_on_c, 0, 66, 28
5, 211102, Note_on_c, 0, 66, 0
5, 211104, Note_on_c, 0, 68, 28
5, 211198, Note_on_c, 0, 68, 0
5, 211200, Note_on_c, 0, 70, 28
5, 211486, Note_on_c, 0, 70, 0
5, 211776, Note_on_c, 0, 58, 28
5, 211870, Note_on_c, 0, 58, 0
5, 211968, Note_on_c, 0, 63, 28
5, 212062, Note_on_c, 0, 63, 0
5, 212160, Note_on_c, 0, 66, 28
5, 212254, Note_on_c, 0, 66, 0
5, 212352, Note_on_c, 0, 70, 28
5, 212446, Note_on_c, 0, 70, 0
5, 212544, Note_on_c, 0, 72, 28
5, 212638, Note_on_c, 0, 72, 0
5, 212640, Note_on_c, 0, 74, 28
5, 212734, Note_on_c, 0, 74, 0
5, 212736, Note_on_c, 0, 75, 28
5, 213022, Note_on_c, 0, 75, 0
5, 213216, Note_on_c, 0, 74, 28
5, 213310, Note_on_c, 0, 74, 0
5, 213312, Note_on_c, 0, 72, 28
5, 213406, Note_on_c, 0, 72, 0
5, 213408, Note_on_c, 0, 74, 28
5, 213502, Note_on_c, 0, 74, 0
5, 213504, Note_on_c, 0, 75, 28
5, 213790, Note_on_c, 0, 75, 0
5, 213984, Note_on_c, 0, 74, 28
5, 214078, Note_on_c, 0, 74, 0
5, 214080, Note_on_c, 0, 72, 28
5, 214174, Note_on_c, 0, 72, 0
5, 214176, Note_on_c, 0, 74, 28
5, 214270, Note_on_c, 0, 74, 0
5, 214272, Note_on_c, 0, 75, 39
5, 214366, Note_on_c, 0, 75, 0
5, 214752, Note_on_c, 0, 58, 39
5, 214846, Note_on_c, 0, 58, 0
5, 214848, Note_on_c, 0, 59, 39
5, 215038, Note_on_c, 0, 59, 0
5, 215040, Note_on_c, 0, 58, 39
5, 215134, Note_on_c, 0, 58, 0
5, 215136, Note_on_c, 0, 58, 39
5, 215230, Note_on_c, 0, 58, 0
5, 215232, Note_on_c, 0, 63, 39
5, 215326, Note_on_c, 0, 63, 0
5, 215328, Note_on_c, 0, 59, 39
5, 215422, Note_on_c, 0, 59, 0
5, 215424, Note_on_c, 0, 58, 39
5, 215614, Note_on_c, 0, 58, 0
5, 215616, Note_on_c, 0, 60, 39
5, 215806, Note_on_c, 0, 60, 0
5, 215808, Note_on_c, 0, 58, 39
5, 215902, Note_on_c, 0, 58, 0
5, 215904, Note_on_c, 0, 56, 39
5, 215998, Note_on_c, 0, 56, 0
5, 216000, Note_on_c, 0, 54, 39
5, 216190, Note_on_c, 0, 54, 0
5, 216192, Note_on_c, 0, 63, 39
5, 216382, Note_on_c, 0, 63, 0
5, 216384, Note_on_c, 0, 59, 39
5, 216574, Note_on_c, 0, 59, 0
5, 216576, Note_on_c, 0, 58, 39
5, 216670, Note_on_c, 0, 58, 0
5, 216672, Note_on_c, 0, 56, 20
5, 216766, Note_on_c, 0, 56, 0
5, 216768, Note_on_c, 0, 54, 39
5, 216958, Note_on_c, 0, 54, 0
5, 216960, Note_on_c, 0, 63, 20
5, 217150, Note_on_c, 0, 63, 0
5, 217152, Note_on_c, 0, 59, 39
5, 217342, Note_on_c, 0, 59, 0
5, 217344, Note_on_c, 0, 58, 39
5, 217438, Note_on_c, 0, 58, 0
5, 218112, Note_on_c, 0, 58, 51
5, 218152, Note_on_c, 0, 58, 0
5, 218208, Note_on_c, 0, 58, 51
5, 218256, Note_on_c, 0, 58, 0
5, 218256, Note_on_c, 0, 59, 51
5, 218302, Note_on_c, 0, 59, 0
5, 218304, Note_on_c, 0, 58, 51
5, 218344, Note_on_c, 0, 58, 0
5, 218400, Note_on_c, 0, 56, 51
5, 218494, Note_on_c, 0, 56, 0
5, 218496, Note_on_c, 0, 54, 51
5, 218536, Note_on_c, 0, 54, 0
5, 218592, Note_on_c, 0, 54, 51
5, 218640, Note_on_c, 0, 54, 0
5, 218688, Note_on_c, 0, 56, 51
5, 218782, Note_on_c, 0, 56, 0
5, 218784, Note_on_c, 0, 51, 51
5, 218878, Note_on_c, 0, 51, 0
5, 218880, Note_on_c, 0, 54, 46
5, 218974, Note_on_c, 0, 54, 0
5, 222336, Note_on_c, 0, 75, 39
5, 222430, Note_on_c, 0, 75, 0
5, 222432, Note_on_c, 0, 75, 39
5, 222526, Note_on_c, 0, 75, 0
5, 222528, Note_on_c, 0, 75, 39
5, 222528, Note_on_c, 0, 75, 39
5, 222622, Note_on_c, 0, 75, 0
5, 222622, Note_on_c, 0, 75, 0
5, 222624, Note_on_c, 0, 72, 39
5, 222718, Note_on_c, 0, 72, 0
5, 222720, Note_on_c, 0, 70, 39
5, 222814, Note_on_c, 0, 70, 0
5, 222816, Note_on_c, 0, 70, 39
5, 222910, Note_on_c, 0, 70, 0
5, 222912, Note_on_c, 0, 70, 39
5, 222912, Note_on_c, 0, 70, 39
5, 223006, Note_on_c, 0, 70, 0
5, 223006, Note_on_c, 0, 70, 0
5, 223008, Note_on_c, 0, 68, 39
5, 223102, Note_on_c, 0, 68, 0
5, 223104, Note_on_c, 0, 67, 39
5, 223198, Note_on_c, 0, 67, 0
5, 223200, Note_on_c, 0, 67, 39
5, 223294, Note_on_c, 0, 67, 0
5, 223296, Note_on_c, 0, 67, 39
5, 223296, Note_on_c, 0, 67, 39
5, 223390, Note_on_c, 0, 67, 0
5, 223390, Note_on_c, 0, 67, 0
5, 223392, Note_on_c, 0, 65, 39
5, 223486, Note_on_c, 0, 65, 0
5, 223488, Note_on_c, 0, 64, 30
5, 223582, Note_on_c, 0, 64, 0
5, 223584, Note_on_c, 0, 64, 30
5, 223678, Note_on_c, 0, 64, 0
5, 223680, Note_on_c, 0, 64, 30
5, 223680, Note_on_c, 0, 64, 30
5, 223774, Note_on_c, 0, 64, 0
5, 223774, Note_on_c, 0, 64, 0
5, 223776, Note_on_c, 0, 61, 30
5, 223870, Note_on_c, 0, 61, 0
5, 223872, Note_on_c, 0, 62, 30
5, 223966, Note_on_c, 0, 62, 0
5, 223968, Note_on_c, 0, 62, 30
5, 224062, Note_on_c, 0, 62, 0
5, 224064, Note_on_c, 0, 62, 30
5, 224064, Note_on_c, 0, 64, 30
5, 224158, Note_on_c, 0, 64, 0
5, 224158, Note_on_c, 0, 62, 0
5, 224160, Note_on_c, 0, 58, 30
5, 224254, Note_on_c, 0, 58, 0
5, 224256, Note_on_c, 0, 56, 30
5, 224350, Note_on_c, 0, 56, 0
5, 225408, Note_on_c, 0, 77, 40
5, 225502, Note_on_c, 0, 77, 0
5, 225504, Note_on_c, 0, 77, 41
5, 225598, Note_on_c, 0, 77, 0
5, 225600, Note_on_c, 0, 77, 42
5, 225600, Note_on_c, 0, 77, 38
5, 225694, Note_on_c, 0, 77, 0
5, 225694, Note_on_c, 0, 77, 0
5, 225696, Note_on_c, 0, 73, 42
5, 225790, Note_on_c, 0, 73, 0
5, 225792, Note_on_c, 0, 72, 43
5, 225886, Note_on_c, 0, 72, 0
5, 225888, Note_on_c, 0, 72, 13
5, 225982, Note_on_c, 0, 72, 0
5, 225984, Note_on_c, 0, 72, 13
5, 225984, Note_on_c, 0, 72, 13
5, 226078, Note_on_c, 0, 72, 0
5, 226078, Note_on_c, 0, 72, 0
5, 226080, Note_on_c, 0, 70, 13
5, 226174, Note_on_c, 0, 70, 0
5, 226176, Note_on_c, 0, 68, 10
5, 226270, Note_on_c, 0, 68, 0
5, 226272, Note_on_c, 0, 68, 10
5, 226366, Note_on_c, 0, 68, 0
5, 226368, Note_on_c, 0, 68, 10
5, 226368, Note_on_c, 0, 68, 10
5, 226462, Note_on_c, 0, 68, 0
5, 226462, Note_on_c, 0, 68, 0
5, 226464, Note_on_c, 0, 67, 10
5, 226558, Note_on_c, 0, 67, 0
5, 226560, Note_on_c, 0, 66, 10
5, 226654, Note_on_c, 0, 66, 0
5, 226656, Note_on_c, 0, 66, 10
5, 226750, Note_on_c, 0, 66, 0
5, 226752, Note_on_c, 0, 66, 10
5, 226752, Note_on_c, 0, 66, 10
5, 226846, Note_on_c, 0, 66, 0
5, 226846, Note_on_c, 0, 66, 0
5, 226848, Note_on_c, 0, 66, 10
5, 226942, Note_on_c, 0, 66, 0
5, 226944, Note_on_c, 0, 67, 13
5, 227038, Note_on_c, 0, 67, 0
5, 227040, Note_on_c, 0, 67, 16
5, 227134, Note_on_c, 0, 67, 0
5, 227136, Note_on_c, 0, 67, 16
5, 227136, Note_on_c, 0, 67, 16
5, 227230, Note_on_c, 0, 67, 0
5, 227230, Note_on_c, 0, 67, 0
5, 227232, Note_on_c, 0, 60, 20
5, 227326, Note_on_c, 0, 60, 0
5, 227328, Note_on_c, 0, 58, 43
5, 227422, Note_on_c, 0, 58, 0
5, 230880, Note_on_c, 0, 48, 20
5, 230974, Note_on_c, 0, 48, 0
5, 230976, Note_on_c, 0, 48, 20
5, 230976, Note_on_c, 0, 48, 20
5, 231070, Note_on_c, 0, 48, 0
5, 231070, Note_on_c, 0, 48, 0
5, 231072, Note_on_c, 0, 48, 20
5, 231166, Note_on_c, 0, 48, 0
5, 231168, Note_on_c, 0, 48, 20
5, 231262, Note_on_c, 0, 48, 0
5, 232416, Note_on_c, 0, 49, 20
5, 232510, Note_on_c, 0, 49, 0
5, 232512, Note_on_c, 0, 49, 20
5, 232512, Note_on_c, 0, 49, 20
5, 232606, Note_on_c, 0, 49, 0
5, 232606, Note_on_c, 0, 49, 0
5, 232608, Note_on_c, 0, 49, 20
5, 232702, Note_on_c, 0, 49, 0
5, 232704, Note_on_c, 0, 49, 20
5, 232798, Note_on_c, 0, 49, 0
5, 257856, Note_on_c, 0, 51, 75
5, 257950, Note_on_c, 0, 51, 0
5, 263616, Note_on_c, 0, 55, 75
5, 263710, Note_on_c, 0, 55, 0
5, 267264, Note_on_c, 0, 58, 75
5, 267358, Note_on_c, 0, 58, 0
5, 270144, Note_on_c, 0, 63, 75
5, 270238, Note_on_c, 0, 63, 0
5, 270240, Note_on_c, 0, 58, 75
5, 270240, Note_on_c, 0, 55, 75
5, 270334, Note_on_c, 0, 55, 0
5, 270334, Note_on_c, 0, 58, 0
5, 270336, Note_on_c, 0, 55, 75
5, 270336, Note_on_c, 0, 58, 75
5, 270336, Note_on_c, 0, 55, 75
5, 270336, Note_on_c, 0, 63, 75
5, 270430, Note_on_c, 0, 63, 0
5, 270430, Note_on_c, 0, 55, 0
5, 270430, Note_on_c, 0, 58, 0
5, 270430, Note_on_c, 0, 55, 0
5, 270432, Note_on_c, 0, 65, 75
5, 270432, Note_on_c, 0, 60, 75
5, 270526, Note_on_c, 0, 60, 0
5, 270526, Note_on_c, 0, 65, 0
5, 270528, Note_on_c, 0, 67, 75
5, 270528, Note_on_c, 0, 63, 75
5, 270622, Note_on_c, 0, 63, 0
5, 270622, Note_on_c, 0, 67, 0
5, 270624, Note_on_c, 0, 58, 75
5, 270624, Note_on_c, 0, 65, 75
5, 270718, Note_on_c, 0, 65, 0
5, 270718, Note_on_c, 0, 58, 0
5, 270720, Note_on_c, 0, 55, 75
5, 270720, Note_on_c, 0, 63, 75
5, 270814, Note_on_c, 0, 63, 0
5, 270814, Note_on_c, 0, 55, 0
5, 270816, Note_on_c, 0, 65, 75
5, 270816, Note_on_c, 0, 58, 75
5, 270910, Note_on_c, 0, 58, 0
5, 270910, Note_on_c, 0, 65, 0
5, 270912, Note_on_c, 0, 67, 75
5, 270912, Note_on_c, 0, 63, 75
5, 271006, Note_on_c, 0, 63, 0
5, 271006, Note_on_c, 0, 67, 0
5, 271104, Note_on_c, 0, 63, 75
5, 271104, Note_on_c, 0, 75, 75
5, 271104, Note_on_c, 0, 67, 75
5, 271104, Note_on_c, 0, 55, 75
5, 271198, Note_on_c, 0, 55, 0
5, 271198, Note_on_c, 0, 63, 0
5, 271198, Note_on_c, 0, 75, 0
5, 271198, Note_on_c, 0, 67, 0
5, 271296, Note_on_c, 0, 55, 75
5, 271296, Note_on_c, 0, 67, 75
5, 271296, Note_on_c, 0, 75, 75
5, 271296, Note_on_c, 0, 63, 75
5, 271678, Note_on_c, 0, 63, 0
5, 271678, Note_on_c, 0, 55, 0
5, 271678, Note_on_c, 0, 67, 0
5, 271678, Note_on_c, 0, 75, 0
5, 271776, Note_on_c, 0, 55, 75
5, 271776, Note_on_c, 0, 58, 75
5, 271870, Note_on_c, 0, 58, 0
5, 271870, Note_on_c, 0, 55, 0
5, 271872, Note_on_c, 0, 58, 75
5, 271872, Note_on_c, 0, 55, 75
5, 271872, Note_on_c, 0, 63, 35
5, 271872, Note_on_c, 0, 55, 39
5, 271966, Note_on_c, 0, 55, 0
5, 271966, Note_on_c, 0, 58, 0
5, 271966, Note_on_c, 0, 55, 0
5, 271966, Note_on_c, 0, 63, 0
5, 271968, Note_on_c, 0, 65, 48
5, 271968, Note_on_c, 0, 58, 33
5, 272062, Note_on_c, 0, 58, 0
5, 272062, Note_on_c, 0, 65, 0
5, 272064, Note_on_c, 0, 63, 40
5, 272064, Note_on_c, 0, 67, 42
5, 272158, Note_on_c, 0, 67, 0
5, 272158, Note_on_c, 0, 63, 0
5, 272160, Note_on_c, 0, 65, 49
5, 272160, Note_on_c, 0, 58, 35
5, 272254, Note_on_c, 0, 58, 0
5, 272254, Note_on_c, 0, 65, 0
5, 272256, Note_on_c, 0, 55, 39
5, 272256, Note_on_c, 0, 63, 39
5, 272350, Note_on_c, 0, 63, 0
5, 272350, Note_on_c, 0, 55, 0
5, 272352, Note_on_c, 0, 65, 48
5, 272352, Note_on_c, 0, 58, 32
5, 272446, Note_on_c, 0, 58, 0
5, 272446, Note_on_c, 0, 65, 0
5, 272448, Note_on_c, 0, 63, 75
5, 272448, Note_on_c, 0, 67, 75
5, 272542, Note_on_c, 0, 67, 0
5, 272542, Note_on_c, 0, 63, 0
5, 272640, Note_on_c, 0, 63, 75
5, 272640, Note_on_c, 0, 75, 75
5, 272640, Note_on_c, 0, 67, 75
5, 272640, Note_on_c, 0, 55, 75
5, 272734, Note_on_c, 0, 55, 0
5, 272734, Note_on_c, 0, 63, 0
5, 272734, Note_on_c, 0, 75, 0
5, 272734, Note_on_c, 0, 67, 0
5, 272832, Note_on_c, 0, 67, 75
5, 272832, Note_on_c, 0, 75, 75
5, 272832, Note_on_c, 0, 55, 75
5, 272832, Note_on_c, 0, 63, 75
5, 273214, Note_on_c, 0, 63, 0
5, 273214, Note_on_c, 0, 67, 0
5, 273214, Note_on_c, 0, 75, 0
5, 273214, Note_on_c, 0, 55, 0
5, 273312, Note_on_c, 0, 60, 42
5, 273312, Note_on_c, 0, 56, 42
5, 273406, Note_on_c, 0, 56, 0
5, 273406, Note_on_c, 0, 60, 0
5, 273408, Note_on_c, 0, 60, 42
5, 273408, Note_on_c, 0, 56, 43
5, 273408, Note_on_c, 0, 56, 39
5, 273408, Note_on_c, 0, 65, 48
5, 273502, Note_on_c, 0, 65, 0
5, 273502, Note_on_c, 0, 60, 0
5, 273502, Note_on_c, 0, 56, 0
5, 273502, Note_on_c, 0, 56, 0
5, 273504, Note_on_c, 0, 60, 42
5, 273504, Note_on_c, 0, 67, 42
5, 273598, Note_on_c, 0, 67, 0
5, 273598, Note_on_c, 0, 60, 0
5, 273600, Note_on_c, 0, 56, 39
5, 273600, Note_on_c, 0, 65, 46
5, 273694, Note_on_c, 0, 65, 0
5, 273694, Note_on_c, 0, 56, 0
5, 273696, Note_on_c, 0, 55, 34
5, 273696, Note_on_c, 0, 60, 39
5, 273790, Note_on_c, 0, 60, 0
5, 273790, Note_on_c, 0, 55, 0
5, 273792, Note_on_c, 0, 53, 42
5, 273792, Note_on_c, 0, 56, 35
5, 273886, Note_on_c, 0, 56, 0
5, 273886, Note_on_c, 0, 53, 0
5, 273888, Note_on_c, 0, 60, 38
5, 273888, Note_on_c, 0, 55, 42
5, 273982, Note_on_c, 0, 55, 0
5, 273982, Note_on_c, 0, 60, 0
5, 273984, Note_on_c, 0, 56, 35
5, 273984, Note_on_c, 0, 65, 47
5, 274078, Note_on_c, 0, 65, 0
5, 274078, Note_on_c, 0, 56, 0
5, 274080, Note_on_c, 0, 55, 39
5, 274080, Note_on_c, 0, 63, 27
5, 274174, Note_on_c, 0, 63, 0
5, 274174, Note_on_c, 0, 55, 0
5, 274176, Note_on_c, 0, 56, 35
5, 274176, Note_on_c, 0, 53, 42
5, 274270, Note_on_c, 0, 53, 0
5, 274270, Note_on_c, 0, 56, 0
5, 274272, Note_on_c, 0, 55, 75
5, 274272, Note_on_c, 0, 60, 36
5, 274366, Note_on_c, 0, 60, 0
5, 274366, Note_on_c, 0, 55, 0
5, 274368, Note_on_c, 0, 56, 75
5, 274368, Note_on_c, 0, 65, 75
5, 274750, Note_on_c, 0, 65, 0
5, 274750, Note_on_c, 0, 56, 0
5, 274848, Note_on_c, 0, 55, 75
5, 274848, Note_on_c, 0, 58, 75
5, 274942, Note_on_c, 0, 58, 0
5, 274942, Note_on_c, 0, 55, 0
5, 274944, Note_on_c, 0, 58, 75
5, 274944, Note_on_c, 0, 55, 75
5, 274944, Note_on_c, 0, 63, 32
5, 274944, Note_on_c, 0, 55, 39
5, 275038, Note_on_c, 0, 55, 0
5, 275038, Note_on_c, 0, 58, 0
5, 275038, Note_on_c, 0, 55, 0
5, 275038, Note_on_c, 0, 63, 0
5, 275040, Note_on_c, 0, 58, 33
5, 275040, Note_on_c, 0, 65, 43
5, 275134, Note_on_c, 0, 65, 0
5, 275134, Note_on_c, 0, 58, 0
5, 275136, Note_on_c, 0, 55, 36
5, 275136, Note_on_c, 0, 63, 39
5, 275230, Note_on_c, 0, 63, 0
5, 275230, Note_on_c, 0, 55, 0
5, 275232, Note_on_c, 0, 58, 35
5, 275232, Note_on_c, 0, 53, 43
5, 275326, Note_on_c, 0, 53, 0
5, 275326, Note_on_c, 0, 58, 0
5, 275328, Note_on_c, 0, 55, 42
5, 275328, Note_on_c, 0, 51, 39
5, 275422, Note_on_c, 0, 51, 0
5, 275422, Note_on_c, 0, 55, 0
5, 275424, Note_on_c, 0, 58, 35
5, 275424, Note_on_c, 0, 53, 42
5, 275518, Note_on_c, 0, 53, 0
5, 275518, Note_on_c, 0, 58, 0
5, 275520, Note_on_c, 0, 55, 39
5, 275520, Note_on_c, 0, 63, 35
5, 275614, Note_on_c, 0, 63, 0
5, 275614, Note_on_c, 0, 55, 0
5, 275616, Note_on_c, 0, 58, 36
5, 275616, Note_on_c, 0, 53, 32
5, 275710, Note_on_c, 0, 53, 0
5, 275710, Note_on_c, 0, 58, 0
5, 275712, Note_on_c, 0, 51, 40
5, 275712, Note_on_c, 0, 55, 42
5, 275806, Note_on_c, 0, 55, 0
5, 275806, Note_on_c, 0, 51, 0
5, 275808, Note_on_c, 0, 53, 35
5, 275808, Note_on_c, 0, 58, 32
5, 275902, Note_on_c, 0, 58, 0
5, 275902, Note_on_c, 0, 53, 0
5, 275904, Note_on_c, 0, 55, 34
5, 275904, Note_on_c, 0, 63, 32
5, 276286, Note_on_c, 0, 63, 0
5, 276286, Note_on_c, 0, 55, 0
5, 284160, Note_on_c, 0, 70, 75
5, 284254, Note_on_c, 0, 70, 0
5, 284256, Note_on_c, 0, 70, 75
5, 284350, Note_on_c, 0, 70, 0
5, 284352, Note_on_c, 0, 70, 75
5, 284352, Note_on_c, 0, 76, 75
5, 284446, Note_on_c, 0, 70, 0
5, 284542, Note_on_c, 0, 76, 0
5, 284544, Note_on_c, 0, 72, 75
5, 284734, Note_on_c, 0, 72, 0
5, 284736, Note_on_c, 0, 78, 45
5, 284926, Note_on_c, 0, 78, 0
5, 284928, Note_on_c, 0, 79, 40
5, 285118, Note_on_c, 0, 79, 0
5, 285120, Note_on_c, 0, 80, 45
5, 285310, Note_on_c, 0, 80, 0
5, 285312, Note_on_c, 0, 81, 42
5, 285502, Note_on_c, 0, 81, 0
5, 285504, Note_on_c, 0, 70, 47
5, 285598, Note_on_c, 0, 70, 0
5, 285696, Note_on_c, 0, 69, 42
5, 285790, Note_on_c, 0, 69, 0
5, 285792, Note_on_c, 0, 68, 46
5, 285886, Note_on_c, 0, 68, 0
5, 285888, Note_on_c, 0, 67, 51
5, 285982, Note_on_c, 0, 67, 0
5, 286080, Note_on_c, 0, 66, 48
5, 286174, Note_on_c, 0, 66, 0
5, 286176, Note_on_c, 0, 65, 51
5, 286270, Note_on_c, 0, 65, 0
5, 286272, Note_on_c, 0, 64, 48
5, 286366, Note_on_c, 0, 64, 0
5, 286464, Note_on_c, 0, 63, 48
5, 286558, Note_on_c, 0, 63, 0
5, 286560, Note_on_c, 0, 62, 49
5, 286654, Note_on_c, 0, 62, 0
5, 286656, Note_on_c, 0, 61, 46
5, 286750, Note_on_c, 0, 61, 0
5, 286848, Note_on_c, 0, 60, 49
5, 286942, Note_on_c, 0, 60, 0
5, 286944, Note_on_c, 0, 59, 54
5, 287038, Note_on_c, 0, 59, 0
5, 287040, Note_on_c, 0, 70, 46
5, 287134, Note_on_c, 0, 70, 0
5, 287232, Note_on_c, 0, 69, 48
5, 287326, Note_on_c, 0, 69, 0
5, 287328, Note_on_c, 0, 68, 45
5, 287422, Note_on_c, 0, 68, 0
5, 287424, Note_on_c, 0, 67, 48
5, 287518, Note_on_c, 0, 67, 0
5, 287616, Note_on_c, 0, 66, 45
5, 287710, Note_on_c, 0, 66, 0
5, 287712, Note_on_c, 0, 65, 45
5, 287806, Note_on_c, 0, 65, 0
5, 287808, Note_on_c, 0, 67, 48
5, 287902, Note_on_c, 0, 67, 0
5, 288192, Note_on_c, 0, 62, 47
5, 288192, Note_on_c, 0, 74, 75
5, 288286, Note_on_c, 0, 74, 0
5, 288286, Note_on_c, 0, 62, 0
5, 288576, Note_on_c, 0, 58, 75
5, 288576, Note_on_c, 0, 51, 75
5, 288576, Note_on_c, 0, 67, 48
5, 288766, Note_on_c, 0, 67, 0
5, 288766, Note_on_c, 0, 51, 0
5, 288766, Note_on_c, 0, 58, 0
5, 288960, Note_on_c, 0, 65, 75
5, 288960, Note_on_c, 0, 58, 75
5, 289150, Note_on_c, 0, 58, 0
5, 289150, Note_on_c, 0, 65, 0
5, 289152, Note_on_c, 0, 65, 39
5, 289152, Note_on_c, 0, 58, 50
5, 289342, Note_on_c, 0, 58, 0
5, 289342, Note_on_c, 0, 65, 0
5, 289344, Note_on_c, 0, 70, 75
5, 289344, Note_on_c, 0, 63, 48
5, 289534, Note_on_c, 0, 63, 0
5, 289534, Note_on_c, 0, 70, 0
5, 289728, Note_on_c, 0, 65, 75
5, 289728, Note_on_c, 0, 58, 75
5, 289918, Note_on_c, 0, 58, 0
5, 289918, Note_on_c, 0, 65, 0
5, 289920, Note_on_c, 0, 58, 75
5, 289920, Note_on_c, 0, 65, 75
5, 290110, Note_on_c, 0, 65, 0
5, 290110, Note_on_c, 0, 58, 0
5, 290112, Note_on_c, 0, 70, 46
5, 290112, Note_on_c, 0, 63, 75
5, 290112, Note_on_c, 0, 70, 48
5, 290112, Note_on_c, 0, 55, 75
5, 290302, Note_on_c, 0, 55, 0
5, 290302, Note_on_c, 0, 70, 0
5, 290302, Note_on_c, 0, 63, 0
5, 290302, Note_on_c, 0, 70, 0
5, 290304, Note_on_c, 0, 74, 75
5, 290304, Note_on_c, 0, 62, 45
5, 290494, Note_on_c, 0, 62, 0
5, 290494, Note_on_c, 0, 74, 0
5, 290496, Note_on_c, 0, 75, 40
5, 290496, Note_on_c, 0, 67, 45
5, 290686, Note_on_c, 0, 67, 0
5, 290686, Note_on_c, 0, 75, 0
5, 290688, Note_on_c, 0, 62, 42
5, 290688, Note_on_c, 0, 74, 48
5, 290878, Note_on_c, 0, 74, 0
5, 290878, Note_on_c, 0, 62, 0
5, 290880, Note_on_c, 0, 75, 39
5, 290880, Note_on_c, 0, 67, 39
5, 291070, Note_on_c, 0, 67, 0
5, 291070, Note_on_c, 0, 75, 0
5, 291072, Note_on_c, 0, 62, 42
5, 291072, Note_on_c, 0, 74, 49
5, 291262, Note_on_c, 0, 74, 0
5, 291262, Note_on_c, 0, 62, 0
5, 291264, Note_on_c, 0, 67, 45
5, 291264, Note_on_c, 0, 75, 42
5, 291454, Note_on_c, 0, 75, 0
5, 291454, Note_on_c, 0, 67, 0
5, 291456, Note_on_c, 0, 62, 36
5, 291456, Note_on_c, 0, 74, 48
5, 291646, Note_on_c, 0, 74, 0
5, 291646, Note_on_c, 0, 62, 0
5, 291648, Note_on_c, 0, 67, 43
5, 291648, Note_on_c, 0, 75, 42
5, 291838, Note_on_c, 0, 75, 0
5, 291838, Note_on_c, 0, 67, 0
5, 291840, Note_on_c, 0, 74, 48
5, 291840, Note_on_c, 0, 62, 39
5, 292030, Note_on_c, 0, 62, 0
5, 292030, Note_on_c, 0, 74, 0
5, 292032, Note_on_c, 0, 75, 42
5, 292032, Note_on_c, 0, 67, 44
5, 292222, Note_on_c, 0, 67, 0
5, 292222, Note_on_c, 0, 75, 0
5, 292224, Note_on_c, 0, 74, 48
5, 292224, Note_on_c, 0, 62, 39
5, 292414, Note_on_c, 0, 62, 0
5, 292414, Note_on_c, 0, 74, 0
5, 292416, Note_on_c, 0, 75, 39
5, 292416, Note_on_c, 0, 67, 40
5, 292606, Note_on_c, 0, 67, 0
5, 292606, Note_on_c, 0, 75, 0
5, 292608, Note_on_c, 0, 74, 48
5, 292608, Note_on_c, 0, 62, 39
5, 292798, Note_on_c, 0, 62, 0
5, 292798, Note_on_c, 0, 74, 0
5, 292800, Note_on_c, 0, 67, 40
5, 292800, Note_on_c, 0, 75, 39
5, 292990, Note_on_c, 0, 75, 0
5, 292990, Note_on_c, 0, 67, 0
5, 292992, Note_on_c, 0, 77, 54
5, 293182, Note_on_c, 0, 77, 0
5, 293184, Note_on_c, 0, 79, 42
5, 293278, Note_on_c, 0, 79, 0
5, 293952, Note_on_c, 0, 75, 75
5, 293952, Note_on_c, 0, 58, 75
5, 293952, Note_on_c, 0, 67, 75
5, 294046, Note_on_c, 0, 67, 0
5, 294046, Note_on_c, 0, 58, 0
5, 294046, Note_on_c, 0, 75, 0
5, 294720, Note_on_c, 0, 67, 75
5, 294720, Note_on_c, 0, 75, 75
5, 294720, Note_on_c, 0, 58, 75
5, 294814, Note_on_c, 0, 58, 0
5, 294814, Note_on_c, 0, 75, 0
5, 294814, Note_on_c, 0, 67, 0
5, 295488, Note_on_c, 0, 58, 75
5, 295488, Note_on_c, 0, 75, 75
5, 295488, Note_on_c, 0, 67, 75
5, 295582, Note_on_c, 0, 67, 0
5, 295582, Note_on_c, 0, 75, 0
5, 295582, Note_on_c, 0, 58, 0
5, 296256, Note_on_c, 0, 75, 75
5, 296256, Note_on_c, 0, 58, 75
5, 296256, Note_on_c, 0, 67, 75
5, 296367, Note_on_c, 0, 67, 0
5, 296367, Note_on_c, 0, 58, 0
5, 296367, Note_on_c, 0, 75, 0
5, 296640, Note_on_c, 0, 58, 75
5, 296926, Note_on_c, 0, 58, 0
5, 296928, Note_on_c, 0, 58, 75
5, 297022, Note_on_c, 0, 58, 0
5, 297024, Note_on_c, 0, 55, 75
5, 297024, Note_on_c, 0, 63, 75
5, 297406, Note_on_c, 0, 63, 0
5, 297406, Note_on_c, 0, 55, 0
5, 297408, Note_on_c, 0, 58, 75
5, 297408, Note_on_c, 0, 67, 75
5, 297790, Note_on_c, 0, 67, 0
5, 297790, Note_on_c, 0, 58, 0
5, 297792, Note_on_c, 0, 67, 75
5, 297792, Note_on_c, 0, 58, 75
5, 298174, Note_on_c, 0, 58, 0
5, 298174, Note_on_c, 0, 67, 0
5, 298560, Note_on_c, 0, 63, 75
5, 298560, Note_on_c, 0, 55, 75
5, 298560, Note_on_c, 0, 70, 75
5, 298942, Note_on_c, 0, 70, 0
5, 298942, Note_on_c, 0, 55, 0
5, 298942, Note_on_c, 0, 63, 0
5, 299328, Note_on_c, 0, 51, 75
5, 299710, Note_on_c, 0, 51, 0
5, 299712, Note_on_c, 0, 51, 41
5, 299808, Note_on_c, 0, 53, 40
5, 299808, Note_on_c, 0, 55, 42
5, 299902, Note_on_c, 0, 55, 0
5, 299902, Note_on_c, 0, 53, 0
5, 299902, Note_on_c, 0, 51, 0
5, 299904, Note_on_c, 0, 56, 41
5, 299998, Note_on_c, 0, 56, 0
5, 300000, Note_on_c, 0, 58, 45
5, 300000, Note_on_c, 0, 60, 42
5, 300094, Note_on_c, 0, 60, 0
5, 300094, Note_on_c, 0, 58, 0
5, 300096, Note_on_c, 0, 62, 48
5, 300096, Note_on_c, 0, 63, 75
5, 300190, Note_on_c, 0, 62, 0
5, 300480, Note_on_c, 0, 51, 39
5, 300574, Note_on_c, 0, 51, 0
5, 300576, Note_on_c, 0, 53, 43
5, 300576, Note_on_c, 0, 55, 42
5, 300670, Note_on_c, 0, 55, 0
5, 300670, Note_on_c, 0, 53, 0
5, 300670, Note_on_c, 0, 63, 0
5, 300672, Note_on_c, 0, 56, 39
5, 300766, Note_on_c, 0, 56, 0
5, 300768, Note_on_c, 0, 58, 37
5, 300768, Note_on_c, 0, 60, 36
5, 300862, Note_on_c, 0, 60, 0
5, 300862, Note_on_c, 0, 58, 0
5, 300864, Note_on_c, 0, 62, 48
5, 300864, Note_on_c, 0, 63, 75
5, 300958, Note_on_c, 0, 62, 0
5, 301054, Note_on_c, 0, 63, 0
5, 301632, Note_on_c, 0, 51, 75
5, 302205, Note_on_c, 0, 51, 0
5, 302208, Note_on_c, 0, 51, 75
5, 302397, Note_on_c, 0, 51, 0
5, 302400, Note_on_c, 0, 51, 75
5, 303166, Note_on_c, 0, 51, 0
5, 303166, End_track
6, 0, Start_track
6, 0, MIDI_port, 0
6, 0, Title_t, "Basses"
6, 0, Program_c, 0, 48
6, 0, Control_c, 0, 7, 116
6, 0, Control_c, 0, 10, 22
6, 19008, Note_on_c, 0, 31, 68
6, 19296, Note_on_c, 0, 31, 0
6, 19296, Note_on_c, 0, 35, 111
6, 19328, Note_on_c, 0, 35, 0
6, 19328, Note_on_c, 0, 35, 111
6, 19360, Note_on_c, 0, 35, 0
6, 19360, Note_on_c, 0, 35, 111
6, 19392, Note_on_c, 0, 35, 0
6, 19392, Note_on_c, 0, 38, 111
6, 19424, Note_on_c, 0, 38, 0
6, 19424, Note_on_c, 0, 38, 111
6, 19456, Note_on_c, 0, 38, 0
6, 19456, Note_on_c, 0, 38, 111
6, 19488, Note_on_c, 0, 38, 0
6, 19488, Note_on_c, 0, 43, 111
6, 19520, Note_on_c, 0, 43, 0
6, 19520, Note_on_c, 0, 43, 111
6, 19552, Note_on_c, 0, 43, 0
6, 19552, Note_on_c, 0, 43, 111
6, 19584, Note_on_c, 0, 43, 0
6, 19968, Note_on_c, 0, 55, 111
6, 20064, Note_on_c, 0, 55, 0
6, 20160, Note_on_c, 0, 48, 88
6, 20256, Note_on_c, 0, 48, 0
6, 21376, Note_on_c, 0, 30, 60
6, 21376, Note_on_c, 0, 30, 60
6, 21440, Note_on_c, 0, 30, 0
6, 21440, Note_on_c, 0, 30, 0
6, 21440, Note_on_c, 0, 31, 56
6, 21440, Note_on_c, 0, 31, 56
6, 21504, Note_on_c, 0, 31, 0
6, 21504, Note_on_c, 0, 31, 0
6, 21504, Note_on_c, 0, 36, 56
6, 21504, Note_on_c, 0, 36, 56
6, 21568, Note_on_c, 0, 36, 0
6, 21568, Note_on_c, 0, 36, 0
6, 21568, Note_on_c, 0, 39, 56
6, 21568, Note_on_c, 0, 39, 56
6, 21632, Note_on_c, 0, 39, 0
6, 21632, Note_on_c, 0, 39, 0
6, 21632, Note_on_c, 0, 42, 55
6, 21632, Note_on_c, 0, 42, 55
6, 21696, Note_on_c, 0, 42, 0
6, 21696, Note_on_c, 0, 42, 0
6, 21696, Note_on_c, 0, 43, 56
6, 21696, Note_on_c, 0, 43, 56
6, 21760, Note_on_c, 0, 43, 0
6, 21760, Note_on_c, 0, 43, 0
6, 21760, Note_on_c, 0, 48, 56
6, 21760, Note_on_c, 0, 48, 56
6, 21824, Note_on_c, 0, 48, 0
6, 21824, Note_on_c, 0, 48, 0
6, 21824, Note_on_c, 0, 51, 60
6, 21824, Note_on_c, 0, 51, 60
6, 21888, Note_on_c, 0, 51, 0
6, 21888, Note_on_c, 0, 51, 0
6, 21888, Note_on_c, 0, 54, 91
6, 21888, Note_on_c, 0, 54, 91
6, 22013, Note_on_c, 0, 54, 0
6, 22013, Note_on_c, 0, 54, 0
6, 22032, Note_on_c, 0, 55, 91
6, 22032, Note_on_c, 0, 55, 91
6, 22072, Note_on_c, 0, 55, 0
6, 22072, Note_on_c, 0, 55, 0
6, 22080, Note_on_c, 0, 55, 91
6, 22080, Note_on_c, 0, 55, 91
6, 22272, Note_on_c, 0, 43, 88
6, 22272, Note_on_c, 0, 43, 88
6, 22414, Note_on_c, 0, 55, 0
6, 22414, Note_on_c, 0, 55, 0
6, 22464, Note_on_c, 0, 43, 0
6, 22464, Note_on_c, 0, 43, 0
6, 22464, Note_on_c, 0, 36, 88
6, 22464, Note_on_c, 0, 36, 88
6, 22560, Note_on_c, 0, 36, 0
6, 22560, Note_on_c, 0, 36, 0
6, 23680, Note_on_c, 0, 31, 47
6, 23680, Note_on_c, 0, 31, 47
6, 23744, Note_on_c, 0, 31, 0
6, 23744, Note_on_c, 0, 31, 0
6, 23744, Note_on_c, 0, 32, 59
6, 23744, Note_on_c, 0, 32, 59
6, 23808, Note_on_c, 0, 32, 0
6, 23808, Note_on_c, 0, 32, 0
6, 23808, Note_on_c, 0, 37, 47
6, 23808, Note_on_c, 0, 37, 47
6, 23872, Note_on_c, 0, 37, 0
6, 23872, Note_on_c, 0, 37, 0
6, 23872, Note_on_c, 0, 40, 51
6, 23872, Note_on_c, 0, 40, 51
6, 23936, Note_on_c, 0, 40, 0
6, 23936, Note_on_c, 0, 40, 0
6, 23936, Note_on_c, 0, 41, 59
6, 23936, Note_on_c, 0, 41, 59
6, 24000, Note_on_c, 0, 41, 0
6, 24000, Note_on_c, 0, 41, 0
6, 24000, Note_on_c, 0, 44, 55
6, 24000, Note_on_c, 0, 44, 55
6, 24064, Note_on_c, 0, 44, 0
6, 24064, Note_on_c, 0, 44, 0
6, 24064, Note_on_c, 0, 49, 60
6, 24064, Note_on_c, 0, 49, 60
6, 24128, Note_on_c, 0, 49, 0
6, 24128, Note_on_c, 0, 49, 0
6, 24128, Note_on_c, 0, 53, 52
6, 24128, Note_on_c, 0, 53, 52
6, 24192, Note_on_c, 0, 53, 0
6, 24192, Note_on_c, 0, 53, 0
6, 24192, Note_on_c, 0, 55, 91
6, 24192, Note_on_c, 0, 55, 91
6, 24317, Note_on_c, 0, 55, 0
6, 24317, Note_on_c, 0, 55, 0
6, 24336, Note_on_c, 0, 56, 91
6, 24336, Note_on_c, 0, 56, 91
6, 24376, Note_on_c, 0, 56, 0
6, 24376, Note_on_c, 0, 56, 0
6, 24384, Note_on_c, 0, 56, 91
6, 24384, Note_on_c, 0, 56, 91
6, 24576, Note_on_c, 0, 44, 88
6, 24576, Note_on_c, 0, 44, 88
6, 24718, Note_on_c, 0, 56, 0
6, 24718, Note_on_c, 0, 56, 0
6, 24768, Note_on_c, 0, 44, 0
6, 24768, Note_on_c, 0, 44, 0
6, 24768, Note_on_c, 0, 32, 88
6, 24960, Note_on_c, 0, 32, 0
6, 24960, Note_on_c, 0, 44, 88
6, 24960, Note_on_c, 0, 44, 88
6, 25152, Note_on_c, 0, 44, 0
6, 25152, Note_on_c, 0, 44, 0
6, 25152, Note_on_c, 0, 32, 88
6, 25152, Note_on_c, 0, 32, 88
6, 25344, Note_on_c, 0, 32, 0
6, 25344, Note_on_c, 0, 32, 0
6, 25344, Note_on_c, 0, 30, 88
6, 25536, Note_on_c, 0, 30, 0
6, 25536, Note_on_c, 0, 42, 88
6, 25728, Note_on_c, 0, 42, 0
6, 25728, Note_on_c, 0, 41, 88
6, 25920, Note_on_c, 0, 41, 0
6, 25920, Note_on_c, 0, 39, 88
6, 26016, Note_on_c, 0, 39, 0
6, 27072, Note_on_c, 0, 51, 88
6, 27168, Note_on_c, 0, 51, 0
6, 28224, Note_on_c, 0, 39, 88
6, 28320, Note_on_c, 0, 39, 0
6, 29376, Note_on_c, 0, 51, 88
6, 29472, Note_on_c, 0, 51, 0
6, 30528, Note_on_c, 0, 37, 88
6, 30624, Note_on_c, 0, 37, 0
6, 30720, Note_on_c, 0, 50, 88
6, 30864, Note_on_c, 0, 50, 0
6, 30864, Note_on_c, 0, 49, 88
6, 30912, Note_on_c, 0, 49, 0
6, 30912, Note_on_c, 0, 37, 88
6, 31008, Note_on_c, 0, 37, 0
6, 31104, Note_on_c, 0, 42, 88
6, 31200, Note_on_c, 0, 42, 0
6, 31296, Note_on_c, 0, 52, 88
6, 31440, Note_on_c, 0, 52, 0
6, 31440, Note_on_c, 0, 50, 88
6, 31488, Note_on_c, 0, 50, 0
6, 31488, Note_on_c, 0, 38, 88
6, 31584, Note_on_c, 0, 38, 0
6, 31680, Note_on_c, 0, 43, 84
6, 31776, Note_on_c, 0, 43, 0
6, 31872, Note_on_c, 0, 53, 112
6, 31997, Note_on_c, 0, 53, 0
6, 32016, Note_on_c, 0, 52, 112
6, 32056, Note_on_c, 0, 52, 0
6, 32064, Note_on_c, 0, 45, 112
6, 32230, Note_on_c, 0, 45, 0
6, 32256, Note_on_c, 0, 55, 112
6, 32381, Note_on_c, 0, 55, 0
6, 32400, Note_on_c, 0, 54, 112
6, 32440, Note_on_c, 0, 54, 0
6, 32448, Note_on_c, 0, 47, 112
6, 32614, Note_on_c, 0, 47, 0
6, 32640, Note_on_c, 0, 57, 88
6, 32784, Note_on_c, 0, 57, 0
6, 32784, Note_on_c, 0, 56, 88
6, 32832, Note_on_c, 0, 56, 0
6, 32832, Note_on_c, 0, 49, 88
6, 32928, Note_on_c, 0, 49, 0
6, 33600, Note_on_c, 0, 45, 112
6, 33850, Note_on_c, 0, 45, 0
6, 33888, Note_on_c, 0, 44, 112
6, 33970, Note_on_c, 0, 44, 0
6, 33984, Note_on_c, 0, 40, 112
6, 34066, Note_on_c, 0, 40, 0
6, 34080, Note_on_c, 0, 39, 112
6, 34162, Note_on_c, 0, 39, 0
6, 34176, Note_on_c, 0, 37, 112
6, 34258, Note_on_c, 0, 37, 0
6, 34272, Note_on_c, 0, 36, 112
6, 34354, Note_on_c, 0, 36, 0
6, 34368, Note_on_c, 0, 37, 112
6, 34450, Note_on_c, 0, 37, 0
6, 34464, Note_on_c, 0, 40, 112
6, 34546, Note_on_c, 0, 40, 0
6, 34560, Note_on_c, 0, 44, 112
6, 34685, Note_on_c, 0, 44, 0
6, 34704, Note_on_c, 0, 49, 111
6, 34752, Note_on_c, 0, 49, 0
6, 34752, Note_on_c, 0, 52, 111
6, 35040, Note_on_c, 0, 52, 0
6, 35040, Note_on_c, 0, 49, 111
6, 35136, Note_on_c, 0, 49, 0
6, 35136, Note_on_c, 0, 44, 112
6, 35261, Note_on_c, 0, 44, 0
6, 35280, Note_on_c, 0, 40, 112
6, 35320, Note_on_c, 0, 40, 0
6, 35328, Note_on_c, 0, 37, 112
6, 35410, Note_on_c, 0, 37, 0
6, 35424, Note_on_c, 0, 37, 112
6, 35506, Note_on_c, 0, 37, 0
6, 35520, Note_on_c, 0, 39, 112
6, 35602, Note_on_c, 0, 39, 0
6, 35616, Note_on_c, 0, 41, 112
6, 35698, Note_on_c, 0, 41, 0
6, 35712, Note_on_c, 0, 42, 112
6, 35794, Note_on_c, 0, 42, 0
6, 35904, Note_on_c, 0, 50, 111
6, 36192, Note_on_c, 0, 50, 0
6, 36192, Note_on_c, 0, 49, 88
6, 36288, Note_on_c, 0, 49, 0
6, 36288, Note_on_c, 0, 45, 88
6, 36384, Note_on_c, 0, 45, 0
6, 36384, Note_on_c, 0, 44, 112
6, 36466, Note_on_c, 0, 44, 0
6, 36480, Note_on_c, 0, 42, 112
6, 36562, Note_on_c, 0, 42, 0
6, 36576, Note_on_c, 0, 41, 112
6, 36658, Note_on_c, 0, 41, 0
6, 36672, Note_on_c, 0, 42, 112
6, 36754, Note_on_c, 0, 42, 0
6, 36768, Note_on_c, 0, 45, 88
6, 36864, Note_on_c, 0, 45, 0
6, 36864, Note_on_c, 0, 49, 112
6, 36989, Note_on_c, 0, 49, 0
6, 37008, Note_on_c, 0, 54, 112
6, 37048, Note_on_c, 0, 54, 0
6, 37056, Note_on_c, 0, 57, 111
6, 37344, Note_on_c, 0, 57, 0
6, 37344, Note_on_c, 0, 54, 112
6, 37426, Note_on_c, 0, 54, 0
6, 37440, Note_on_c, 0, 49, 112
6, 37565, Note_on_c, 0, 49, 0
6, 37584, Note_on_c, 0, 45, 112
6, 37624, Note_on_c, 0, 45, 0
6, 37632, Note_on_c, 0, 42, 112
6, 37714, Note_on_c, 0, 42, 0
6, 37728, Note_on_c, 0, 54, 112
6, 37810, Note_on_c, 0, 54, 0
6, 37824, Note_on_c, 0, 56, 112
6, 37906, Note_on_c, 0, 56, 0
6, 37920, Note_on_c, 0, 58, 112
6, 38002, Note_on_c, 0, 58, 0
6, 38016, Note_on_c, 0, 47, 112
6, 38098, Note_on_c, 0, 47, 0
6, 38208, Note_on_c, 0, 52, 112
6, 38333, Note_on_c, 0, 52, 0
6, 38352, Note_on_c, 0, 50, 112
6, 38392, Note_on_c, 0, 50, 0
6, 38400, Note_on_c, 0, 43, 112
6, 38482, Note_on_c, 0, 43, 0
6, 38592, Note_on_c, 0, 53, 112
6, 38717, Note_on_c, 0, 53, 0
6, 38736, Note_on_c, 0, 52, 112
6, 38776, Note_on_c, 0, 52, 0
6, 38784, Note_on_c, 0, 45, 112
6, 38866, Note_on_c, 0, 45, 0
6, 38976, Note_on_c, 0, 55, 112
6, 39101, Note_on_c, 0, 55, 0
6, 39120, Note_on_c, 0, 54, 112
6, 39160, Note_on_c, 0, 54, 0
6, 39168, Note_on_c, 0, 47, 111
6, 39264, Note_on_c, 0, 47, 0
6, 39360, Note_on_c, 0, 57, 111
6, 39504, Note_on_c, 0, 57, 0
6, 39504, Note_on_c, 0, 56, 111
6, 39552, Note_on_c, 0, 56, 0
6, 39552, Note_on_c, 0, 54, 111
6, 39612, Note_on_c, 0, 54, 0
6, 39648, Note_on_c, 0, 51, 111
6, 39744, Note_on_c, 0, 51, 0
6, 39744, Note_on_c, 0, 48, 88
6, 39840, Note_on_c, 0, 48, 0
6, 39840, Note_on_c, 0, 45, 112
6, 39922, Note_on_c, 0, 45, 0
6, 39936, Note_on_c, 0, 42, 112
6, 40018, Note_on_c, 0, 42, 0
6, 40032, Note_on_c, 0, 39, 112
6, 40114, Note_on_c, 0, 39, 0
6, 40128, Note_on_c, 0, 36, 112
6, 40210, Note_on_c, 0, 36, 0
6, 40224, Note_on_c, 0, 35, 112
6, 40306, Note_on_c, 0, 35, 0
6, 40320, Note_on_c, 0, 34, 112
6, 40486, Note_on_c, 0, 34, 0
6, 40512, Note_on_c, 0, 33, 112
6, 40678, Note_on_c, 0, 33, 0
6, 40896, Note_on_c, 0, 54, 112
6, 41146, Note_on_c, 0, 54, 0
6, 41184, Note_on_c, 0, 53, 112
6, 41266, Note_on_c, 0, 53, 0
6, 41280, Note_on_c, 0, 51, 112
6, 41362, Note_on_c, 0, 51, 0
6, 41376, Note_on_c, 0, 47, 112
6, 41458, Note_on_c, 0, 47, 0
6, 41472, Note_on_c, 0, 46, 112
6, 41526, Note_on_c, 0, 46, 0
6, 41536, Note_on_c, 0, 45, 112
6, 41590, Note_on_c, 0, 45, 0
6, 41600, Note_on_c, 0, 42, 112
6, 41654, Note_on_c, 0, 42, 0
6, 41664, Note_on_c, 0, 39, 112
6, 41830, Note_on_c, 0, 39, 0
6, 41856, Note_on_c, 0, 37, 112
6, 42022, Note_on_c, 0, 37, 0
6, 42048, Note_on_c, 0, 35, 112
6, 42116, Note_on_c, 0, 35, 0
6, 42144, Note_on_c, 0, 47, 112
6, 42310, Note_on_c, 0, 47, 0
6, 42336, Note_on_c, 0, 42, 112
6, 42418, Note_on_c, 0, 42, 0
6, 42432, Note_on_c, 0, 39, 112
6, 42514, Note_on_c, 0, 39, 0
6, 42528, Note_on_c, 0, 35, 112
6, 42610, Note_on_c, 0, 35, 0
6, 42624, Note_on_c, 0, 30, 111
6, 43008, Note_on_c, 0, 30, 0
6, 43008, Note_on_c, 0, 32, 90
6, 43392, Note_on_c, 0, 32, 0
6, 43392, Note_on_c, 0, 39, 80
6, 43558, Note_on_c, 0, 39, 0
6, 43584, Note_on_c, 0, 33, 70
6, 43750, Note_on_c, 0, 33, 0
6, 43776, Note_on_c, 0, 34, 60
6, 54144, Note_on_c, 0, 34, 0
6, 54528, Note_on_c, 0, 34, 11
6, 54912, Note_on_c, 0, 34, 0
6, 55296, Note_on_c, 0, 34, 11
6, 55680, Note_on_c, 0, 34, 0
6, 55680, Note_on_c, 0, 34, 11
6, 56064, Note_on_c, 0, 34, 0
6, 56064, Note_on_c, 0, 34, 47
6, 56640, Note_on_c, 0, 34, 0
6, 60192, Note_on_c, 0, 44, 65
6, 60252, Note_on_c, 0, 44, 0
6, 60384, Note_on_c, 0, 39, 65
6, 60444, Note_on_c, 0, 39, 0
6, 60480, Note_on_c, 0, 38, 65
6, 60540, Note_on_c, 0, 38, 0
6, 60768, Note_on_c, 0, 42, 44
6, 60828, Note_on_c, 0, 42, 0
6, 60864, Note_on_c, 0, 41, 48
6, 60924, Note_on_c, 0, 41, 0
6, 61152, Note_on_c, 0, 39, 49
6, 61212, Note_on_c, 0, 39, 0
6, 61248, Note_on_c, 0, 38, 51
6, 61308, Note_on_c, 0, 38, 0
6, 61536, Note_on_c, 0, 37, 49
6, 61596, Note_on_c, 0, 37, 0
6, 61632, Note_on_c, 0, 36, 48
6, 61692, Note_on_c, 0, 36, 0
6, 61920, Note_on_c, 0, 35, 65
6, 61980, Note_on_c, 0, 35, 0
6, 62016, Note_on_c, 0, 34, 65
6, 62076, Note_on_c, 0, 34, 0
6, 62592, Note_on_c, 0, 33, 64
6, 62784, Note_on_c, 0, 33, 0
6, 62784, Note_on_c, 0, 34, 48
6, 62844, Note_on_c, 0, 34, 0
6, 63360, Note_on_c, 0, 38, 62
6, 63552, Note_on_c, 0, 38, 0
6, 63552, Note_on_c, 0, 39, 50
6, 63612, Note_on_c, 0, 39, 0
6, 64128, Note_on_c, 0, 41, 84
6, 64181, Note_on_c, 0, 41, 0
6, 64224, Note_on_c, 0, 42, 84
6, 64277, Note_on_c, 0, 42, 0
6, 64320, Note_on_c, 0, 44, 84
6, 64373, Note_on_c, 0, 44, 0
6, 64416, Note_on_c, 0, 45, 84
6, 64469, Note_on_c, 0, 45, 0
6, 64512, Note_on_c, 0, 41, 68
6, 64565, Note_on_c, 0, 41, 0
6, 64608, Note_on_c, 0, 42, 68
6, 64661, Note_on_c, 0, 42, 0
6, 64704, Note_on_c, 0, 38, 68
6, 64757, Note_on_c, 0, 38, 0
6, 64800, Note_on_c, 0, 39, 68
6, 64853, Note_on_c, 0, 39, 0
6, 64896, Note_on_c, 0, 32, 68
6, 64949, Note_on_c, 0, 32, 0
6, 64992, Note_on_c, 0, 33, 68
6, 65045, Note_on_c, 0, 33, 0
6, 65088, Note_on_c, 0, 29, 68
6, 65141, Note_on_c, 0, 29, 0
6, 66336, Note_on_c, 0, 44, 65
6, 66389, Note_on_c, 0, 44, 0
6, 66528, Note_on_c, 0, 39, 65
6, 66581, Note_on_c, 0, 39, 0
6, 66624, Note_on_c, 0, 38, 65
6, 66677, Note_on_c, 0, 38, 0
6, 66912, Note_on_c, 0, 42, 65
6, 66965, Note_on_c, 0, 42, 0
6, 67008, Note_on_c, 0, 41, 68
6, 67061, Note_on_c, 0, 41, 0
6, 67296, Note_on_c, 0, 39, 68
6, 67349, Note_on_c, 0, 39, 0
6, 67392, Note_on_c, 0, 37, 68
6, 67445, Note_on_c, 0, 37, 0
6, 67680, Note_on_c, 0, 35, 68
6, 67733, Note_on_c, 0, 35, 0
6, 67776, Note_on_c, 0, 34, 68
6, 67829, Note_on_c, 0, 34, 0
6, 68064, Note_on_c, 0, 32, 68
6, 68117, Note_on_c, 0, 32, 0
6, 68160, Note_on_c, 0, 32, 68
6, 68213, Note_on_c, 0, 32, 0
6, 68256, Note_on_c, 0, 45, 68
6, 68309, Note_on_c, 0, 45, 0
6, 68448, Note_on_c, 0, 44, 54
6, 68501, Note_on_c, 0, 44, 0
6, 68640, Note_on_c, 0, 39, 48
6, 68693, Note_on_c, 0, 39, 0
6, 68832, Note_on_c, 0, 32, 51
6, 68885, Note_on_c, 0, 32, 0
6, 68928, Note_on_c, 0, 30, 50
6, 68981, Note_on_c, 0, 30, 0
6, 69024, Note_on_c, 0, 45, 54
6, 69077, Note_on_c, 0, 45, 0
6, 69216, Note_on_c, 0, 44, 54
6, 69269, Note_on_c, 0, 44, 0
6, 69408, Note_on_c, 0, 39, 53
6, 69461, Note_on_c, 0, 39, 0
6, 69600, Note_on_c, 0, 32, 47
6, 69653, Note_on_c, 0, 32, 0
6, 69696, Note_on_c, 0, 30, 54
6, 69749, Note_on_c, 0, 30, 0
6, 69792, Note_on_c, 0, 42, 51
6, 69845, Note_on_c, 0, 42, 0
6, 69984, Note_on_c, 0, 42, 84
6, 70037, Note_on_c, 0, 42, 0
6, 70080, Note_on_c, 0, 43, 84
6, 70133, Note_on_c, 0, 43, 0
6, 70176, Note_on_c, 0, 44, 84
6, 70229, Note_on_c, 0, 44, 0
6, 70368, Note_on_c, 0, 43, 84
6, 70421, Note_on_c, 0, 43, 0
6, 70464, Note_on_c, 0, 44, 84
6, 70517, Note_on_c, 0, 44, 0
6, 70560, Note_on_c, 0, 45, 84
6, 70613, Note_on_c, 0, 45, 0
6, 70752, Note_on_c, 0, 44, 84
6, 70805, Note_on_c, 0, 44, 0
6, 70848, Note_on_c, 0, 45, 84
6, 70901, Note_on_c, 0, 45, 0
6, 70944, Note_on_c, 0, 46, 84
6, 70997, Note_on_c, 0, 46, 0
6, 71136, Note_on_c, 0, 45, 84
6, 71189, Note_on_c, 0, 45, 0
6, 71232, Note_on_c, 0, 46, 84
6, 71285, Note_on_c, 0, 46, 0
6, 71328, Note_on_c, 0, 47, 84
6, 71381, Note_on_c, 0, 47, 0
6, 71520, Note_on_c, 0, 46, 84
6, 71573, Note_on_c, 0, 46, 0
6, 71616, Note_on_c, 0, 47, 84
6, 71669, Note_on_c, 0, 47, 0
6, 71712, Note_on_c, 0, 48, 84
6, 71765, Note_on_c, 0, 48, 0
6, 71808, Note_on_c, 0, 41, 84
6, 71861, Note_on_c, 0, 41, 0
6, 71904, Note_on_c, 0, 42, 84
6, 71957, Note_on_c, 0, 42, 0
6, 72000, Note_on_c, 0, 36, 84
6, 72053, Note_on_c, 0, 36, 0
6, 72096, Note_on_c, 0, 37, 84
6, 72149, Note_on_c, 0, 37, 0
6, 72288, Note_on_c, 0, 49, 84
6, 72341, Note_on_c, 0, 49, 0
6, 72384, Note_on_c, 0, 50, 84
6, 72437, Note_on_c, 0, 50, 0
6, 72480, Note_on_c, 0, 51, 84
6, 72533, Note_on_c, 0, 51, 0
6, 72576, Note_on_c, 0, 44, 84
6, 72629, Note_on_c, 0, 44, 0
6, 72672, Note_on_c, 0, 45, 84
6, 72725, Note_on_c, 0, 45, 0
6, 72768, Note_on_c, 0, 38, 84
6, 72821, Note_on_c, 0, 38, 0
6, 72864, Note_on_c, 0, 39, 84
6, 72917, Note_on_c, 0, 39, 0
6, 73056, Note_on_c, 0, 39, 84
6, 73109, Note_on_c, 0, 39, 0
6, 73152, Note_on_c, 0, 40, 84
6, 73205, Note_on_c, 0, 40, 0
6, 73248, Note_on_c, 0, 41, 84
6, 73301, Note_on_c, 0, 41, 0
6, 73440, Note_on_c, 0, 40, 84
6, 73493, Note_on_c, 0, 40, 0
6, 73536, Note_on_c, 0, 41, 84
6, 73589, Note_on_c, 0, 41, 0
6, 73632, Note_on_c, 0, 42, 84
6, 73685, Note_on_c, 0, 42, 0
6, 73824, Note_on_c, 0, 41, 84
6, 73877, Note_on_c, 0, 41, 0
6, 73920, Note_on_c, 0, 42, 84
6, 73973, Note_on_c, 0, 42, 0
6, 74016, Note_on_c, 0, 43, 84
6, 74069, Note_on_c, 0, 43, 0
6, 74208, Note_on_c, 0, 43, 84
6, 74261, Note_on_c, 0, 43, 0
6, 74304, Note_on_c, 0, 44, 84
6, 74357, Note_on_c, 0, 44, 0
6, 74400, Note_on_c, 0, 45, 84
6, 74453, Note_on_c, 0, 45, 0
6, 74496, Note_on_c, 0, 46, 65
6, 74549, Note_on_c, 0, 46, 0
6, 75072, Note_on_c, 0, 34, 65
6, 75168, Note_on_c, 0, 34, 0
6, 75264, Note_on_c, 0, 34, 83
6, 75360, Note_on_c, 0, 34, 0
6, 75456, Note_on_c, 0, 34, 83
6, 75552, Note_on_c, 0, 34, 0
6, 75648, Note_on_c, 0, 34, 83
6, 76032, Note_on_c, 0, 34, 0
6, 76032, Note_on_c, 0, 39, 51
6, 76080, Note_on_c, 0, 39, 0
6, 76080, Note_on_c, 0, 39, 50
6, 76128, Note_on_c, 0, 39, 0
6, 76128, Note_on_c, 0, 41, 53
6, 76176, Note_on_c, 0, 41, 0
6, 76176, Note_on_c, 0, 42, 50
6, 76224, Note_on_c, 0, 42, 0
6, 76224, Note_on_c, 0, 44, 50
6, 76272, Note_on_c, 0, 44, 0
6, 76272, Note_on_c, 0, 46, 49
6, 76320, Note_on_c, 0, 46, 0
6, 76320, Note_on_c, 0, 48, 51
6, 76368, Note_on_c, 0, 48, 0
6, 76368, Note_on_c, 0, 50, 54
6, 76416, Note_on_c, 0, 50, 0
6, 76416, Note_on_c, 0, 51, 51
6, 76464, Note_on_c, 0, 51, 0
6, 77280, Note_on_c, 0, 47, 55
6, 77376, Note_on_c, 0, 47, 0
6, 77376, Note_on_c, 0, 46, 54
6, 77472, Note_on_c, 0, 46, 0
6, 77472, Note_on_c, 0, 44, 55
6, 77568, Note_on_c, 0, 44, 0
6, 77568, Note_on_c, 0, 42, 47
6, 77616, Note_on_c, 0, 42, 0
6, 77616, Note_on_c, 0, 42, 50
6, 77664, Note_on_c, 0, 42, 0
6, 77664, Note_on_c, 0, 44, 53
6, 77712, Note_on_c, 0, 44, 0
6, 77712, Note_on_c, 0, 46, 56
6, 77760, Note_on_c, 0, 46, 0
6, 77760, Note_on_c, 0, 47, 54
6, 77808, Note_on_c, 0, 47, 0
6, 77808, Note_on_c, 0, 49, 55
6, 77856, Note_on_c, 0, 49, 0
6, 77856, Note_on_c, 0, 51, 55
6, 77904, Note_on_c, 0, 51, 0
6, 77904, Note_on_c, 0, 53, 51
6, 77952, Note_on_c, 0, 53, 0
6, 77952, Note_on_c, 0, 54, 57
6, 78000, Note_on_c, 0, 54, 0
6, 78816, Note_on_c, 0, 51, 51
6, 78912, Note_on_c, 0, 51, 0
6, 78912, Note_on_c, 0, 50, 58
6, 79008, Note_on_c, 0, 50, 0
6, 79008, Note_on_c, 0, 48, 52
6, 79104, Note_on_c, 0, 48, 0
6, 79104, Note_on_c, 0, 46, 57
6, 79200, Note_on_c, 0, 46, 0
6, 79536, Note_on_c, 0, 41, 84
6, 79576, Note_on_c, 0, 41, 0
6, 79584, Note_on_c, 0, 40, 84
6, 79624, Note_on_c, 0, 40, 0
6, 79632, Note_on_c, 0, 39, 84
6, 79672, Note_on_c, 0, 39, 0
6, 79680, Note_on_c, 0, 38, 84
6, 79720, Note_on_c, 0, 38, 0
6, 79728, Note_on_c, 0, 37, 84
6, 79768, Note_on_c, 0, 37, 0
6, 79776, Note_on_c, 0, 36, 84
6, 79816, Note_on_c, 0, 36, 0
6, 79824, Note_on_c, 0, 35, 84
6, 79864, Note_on_c, 0, 35, 0
6, 79872, Note_on_c, 0, 34, 84
6, 79912, Note_on_c, 0, 34, 0
6, 80304, Note_on_c, 0, 48, 84
6, 80344, Note_on_c, 0, 48, 0
6, 80352, Note_on_c, 0, 47, 84
6, 80392, Note_on_c, 0, 47, 0
6, 80400, Note_on_c, 0, 46, 84
6, 80440, Note_on_c, 0, 46, 0
6, 80448, Note_on_c, 0, 45, 84
6, 80488, Note_on_c, 0, 45, 0
6, 80496, Note_on_c, 0, 43, 84
6, 80536, Note_on_c, 0, 43, 0
6, 80544, Note_on_c, 0, 41, 84
6, 80584, Note_on_c, 0, 41, 0
6, 80592, Note_on_c, 0, 39, 84
6, 80632, Note_on_c, 0, 39, 0
6, 80640, Note_on_c, 0, 38, 65
6, 80736, Note_on_c, 0, 38, 0
6, 81072, Note_on_c, 0, 44, 47
6, 81120, Note_on_c, 0, 44, 0
6, 81120, Note_on_c, 0, 43, 52
6, 81168, Note_on_c, 0, 43, 0
6, 81168, Note_on_c, 0, 42, 47
6, 81216, Note_on_c, 0, 42, 0
6, 81216, Note_on_c, 0, 41, 51
6, 81264, Note_on_c, 0, 41, 0
6, 81264, Note_on_c, 0, 39, 50
6, 81312, Note_on_c, 0, 39, 0
6, 81312, Note_on_c, 0, 38, 54
6, 81360, Note_on_c, 0, 38, 0
6, 81360, Note_on_c, 0, 36, 51
6, 81408, Note_on_c, 0, 36, 0
6, 81408, Note_on_c, 0, 34, 65
6, 81504, Note_on_c, 0, 34, 0
6, 81840, Note_on_c, 0, 29, 54
6, 81888, Note_on_c, 0, 29, 0
6, 81888, Note_on_c, 0, 30, 50
6, 81936, Note_on_c, 0, 30, 0
6, 81936, Note_on_c, 0, 31, 53
6, 81984, Note_on_c, 0, 31, 0
6, 81984, Note_on_c, 0, 32, 48
6, 82032, Note_on_c, 0, 32, 0
6, 82032, Note_on_c, 0, 33, 54
6, 82080, Note_on_c, 0, 33, 0
6, 82080, Note_on_c, 0, 34, 54
6, 82128, Note_on_c, 0, 34, 0
6, 82128, Note_on_c, 0, 36, 52
6, 82176, Note_on_c, 0, 36, 0
6, 82176, Note_on_c, 0, 38, 65
6, 82272, Note_on_c, 0, 38, 0
6, 82608, Note_on_c, 0, 45, 54
6, 82656, Note_on_c, 0, 45, 0
6, 82656, Note_on_c, 0, 46, 48
6, 82704, Note_on_c, 0, 46, 0
6, 82704, Note_on_c, 0, 48, 53
6, 82752, Note_on_c, 0, 48, 0
6, 82752, Note_on_c, 0, 50, 56
6, 82800, Note_on_c, 0, 50, 0
6, 82800, Note_on_c, 0, 49, 51
6, 82848, Note_on_c, 0, 49, 0
6, 82848, Note_on_c, 0, 50, 57
6, 82896, Note_on_c, 0, 50, 0
6, 82896, Note_on_c, 0, 51, 54
6, 82944, Note_on_c, 0, 51, 0
6, 82944, Note_on_c, 0, 49, 65
6, 83040, Note_on_c, 0, 49, 0
6, 83424, Note_on_c, 0, 43, 65
6, 83520, Note_on_c, 0, 43, 0
6, 83520, Note_on_c, 0, 41, 65
6, 83616, Note_on_c, 0, 41, 0
6, 83616, Note_on_c, 0, 40, 65
6, 83712, Note_on_c, 0, 40, 0
6, 83712, Note_on_c, 0, 38, 54
6, 83760, Note_on_c, 0, 38, 0
6, 83760, Note_on_c, 0, 38, 54
6, 83808, Note_on_c, 0, 38, 0
6, 83808, Note_on_c, 0, 40, 54
6, 83856, Note_on_c, 0, 40, 0
6, 83856, Note_on_c, 0, 41, 49
6, 83904, Note_on_c, 0, 41, 0
6, 83904, Note_on_c, 0, 43, 54
6, 83952, Note_on_c, 0, 43, 0
6, 83952, Note_on_c, 0, 45, 54
6, 84000, Note_on_c, 0, 45, 0
6, 84000, Note_on_c, 0, 47, 52
6, 84048, Note_on_c, 0, 47, 0
6, 84048, Note_on_c, 0, 49, 48
6, 84096, Note_on_c, 0, 49, 0
6, 84096, Note_on_c, 0, 50, 57
6, 84192, Note_on_c, 0, 50, 0
6, 84960, Note_on_c, 0, 46, 50
6, 85056, Note_on_c, 0, 46, 0
6, 85056, Note_on_c, 0, 45, 51
6, 85152, Note_on_c, 0, 45, 0
6, 85152, Note_on_c, 0, 43, 54
6, 85248, Note_on_c, 0, 43, 0
6, 85248, Note_on_c, 0, 41, 53
6, 85344, Note_on_c, 0, 41, 0
6, 85680, Note_on_c, 0, 48, 48
6, 85728, Note_on_c, 0, 48, 0
6, 85728, Note_on_c, 0, 47, 54
6, 85776, Note_on_c, 0, 47, 0
6, 85776, Note_on_c, 0, 46, 51
6, 85824, Note_on_c, 0, 46, 0
6, 85824, Note_on_c, 0, 45, 56
6, 85872, Note_on_c, 0, 45, 0
6, 85872, Note_on_c, 0, 44, 53
6, 85920, Note_on_c, 0, 44, 0
6, 85920, Note_on_c, 0, 43, 54
6, 85968, Note_on_c, 0, 43, 0
6, 85968, Note_on_c, 0, 42, 53
6, 86016, Note_on_c, 0, 42, 0
6, 86016, Note_on_c, 0, 41, 49
6, 86112, Note_on_c, 0, 41, 0
6, 86448, Note_on_c, 0, 43, 46
6, 86496, Note_on_c, 0, 43, 0
6, 86496, Note_on_c, 0, 42, 47
6, 86544, Note_on_c, 0, 42, 0
6, 86544, Note_on_c, 0, 41, 49
6, 86592, Note_on_c, 0, 41, 0
6, 86592, Note_on_c, 0, 40, 52
6, 86640, Note_on_c, 0, 40, 0
6, 86640, Note_on_c, 0, 38, 57
6, 86688, Note_on_c, 0, 38, 0
6, 86688, Note_on_c, 0, 36, 51
6, 86736, Note_on_c, 0, 36, 0
6, 86736, Note_on_c, 0, 34, 51
6, 86784, Note_on_c, 0, 34, 0
6, 86784, Note_on_c, 0, 33, 56
6, 86880, Note_on_c, 0, 33, 0
6, 87216, Note_on_c, 0, 51, 51
6, 87264, Note_on_c, 0, 51, 0
6, 87264, Note_on_c, 0, 50, 52
6, 87312, Note_on_c, 0, 50, 0
6, 87312, Note_on_c, 0, 49, 46
6, 87360, Note_on_c, 0, 49, 0
6, 87360, Note_on_c, 0, 48, 50
6, 87408, Note_on_c, 0, 48, 0
6, 87408, Note_on_c, 0, 46, 49
6, 87456, Note_on_c, 0, 46, 0
6, 87456, Note_on_c, 0, 45, 55
6, 87504, Note_on_c, 0, 45, 0
6, 87504, Note_on_c, 0, 43, 56
6, 87552, Note_on_c, 0, 43, 0
6, 87552, Note_on_c, 0, 41, 53
6, 87648, Note_on_c, 0, 41, 0
6, 88368, Note_on_c, 0, 41, 52
6, 88416, Note_on_c, 0, 41, 0
6, 88416, Note_on_c, 0, 40, 51
6, 88464, Note_on_c, 0, 40, 0
6, 88464, Note_on_c, 0, 38, 54
6, 88512, Note_on_c, 0, 38, 0
6, 88512, Note_on_c, 0, 36, 51
6, 88560, Note_on_c, 0, 36, 0
6, 88560, Note_on_c, 0, 34, 54
6, 88608, Note_on_c, 0, 34, 0
6, 88608, Note_on_c, 0, 33, 54
6, 88656, Note_on_c, 0, 33, 0
6, 88656, Note_on_c, 0, 31, 54
6, 88704, Note_on_c, 0, 31, 0
6, 88704, Note_on_c, 0, 29, 54
6, 88800, Note_on_c, 0, 29, 0
6, 89136, Note_on_c, 0, 43, 51
6, 89184, Note_on_c, 0, 43, 0
6, 89184, Note_on_c, 0, 41, 54
6, 89232, Note_on_c, 0, 41, 0
6, 89232, Note_on_c, 0, 40, 52
6, 89280, Note_on_c, 0, 40, 0
6, 89280, Note_on_c, 0, 38, 54
6, 89328, Note_on_c, 0, 38, 0
6, 89328, Note_on_c, 0, 37, 54
6, 89376, Note_on_c, 0, 37, 0
6, 89376, Note_on_c, 0, 36, 53
6, 89424, Note_on_c, 0, 36, 0
6, 89424, Note_on_c, 0, 35, 51
6, 89472, Note_on_c, 0, 35, 0
6, 89472, Note_on_c, 0, 33, 56
6, 89568, Note_on_c, 0, 33, 0
6, 89904, Note_on_c, 0, 46, 51
6, 89952, Note_on_c, 0, 46, 0
6, 89952, Note_on_c, 0, 45, 51
6, 90000, Note_on_c, 0, 45, 0
6, 90000, Note_on_c, 0, 43, 54
6, 90048, Note_on_c, 0, 43, 0
6, 90048, Note_on_c, 0, 41, 54
6, 90096, Note_on_c, 0, 41, 0
6, 90096, Note_on_c, 0, 40, 56
6, 90144, Note_on_c, 0, 40, 0
6, 90144, Note_on_c, 0, 39, 50
6, 90192, Note_on_c, 0, 39, 0
6, 90192, Note_on_c, 0, 38, 56
6, 90240, Note_on_c, 0, 38, 0
6, 90240, Note_on_c, 0, 36, 53
6, 90336, Note_on_c, 0, 36, 0
6, 90720, Note_on_c, 0, 45, 65
6, 90912, Note_on_c, 0, 45, 0
6, 91104, Note_on_c, 0, 48, 65
6, 91296, Note_on_c, 0, 48, 0
6, 91584, Note_on_c, 0, 51, 84
6, 91666, Note_on_c, 0, 51, 0
6, 91968, Note_on_c, 0, 51, 84
6, 92050, Note_on_c, 0, 51, 0
6, 92160, Note_on_c, 0, 51, 84
6, 92242, Note_on_c, 0, 51, 0
6, 92352, Note_on_c, 0, 36, 84
6, 92434, Note_on_c, 0, 36, 0
6, 92544, Note_on_c, 0, 36, 84
6, 92626, Note_on_c, 0, 36, 0
6, 92736, Note_on_c, 0, 36, 84
6, 92818, Note_on_c, 0, 36, 0
6, 92928, Note_on_c, 0, 36, 65
6, 93024, Note_on_c, 0, 36, 0
6, 93216, Note_on_c, 0, 36, 83
6, 93312, Note_on_c, 0, 36, 0
6, 93312, Note_on_c, 0, 35, 83
6, 93408, Note_on_c, 0, 35, 0
6, 93600, Note_on_c, 0, 35, 83
6, 93696, Note_on_c, 0, 35, 0
6, 93696, Note_on_c, 0, 34, 83
6, 93792, Note_on_c, 0, 34, 0
6, 93792, Note_on_c, 0, 34, 83
6, 93984, Note_on_c, 0, 34, 0
6, 93984, Note_on_c, 0, 34, 83
6, 94176, Note_on_c, 0, 34, 0
6, 94176, Note_on_c, 0, 34, 83
6, 94272, Note_on_c, 0, 34, 0
6, 94368, Note_on_c, 0, 33, 83
6, 94464, Note_on_c, 0, 33, 0
6, 94560, Note_on_c, 0, 32, 84
6, 94642, Note_on_c, 0, 32, 0
6, 94656, Note_on_c, 0, 44, 83
6, 94752, Note_on_c, 0, 44, 0
6, 95136, Note_on_c, 0, 51, 83
6, 95232, Note_on_c, 0, 51, 0
6, 95328, Note_on_c, 0, 47, 83
6, 95424, Note_on_c, 0, 47, 0
6, 95520, Note_on_c, 0, 44, 83
6, 95616, Note_on_c, 0, 44, 0
6, 95712, Note_on_c, 0, 39, 83
6, 95808, Note_on_c, 0, 39, 0
6, 95808, Note_on_c, 0, 38, 83
6, 95904, Note_on_c, 0, 38, 0
6, 96096, Note_on_c, 0, 42, 84
6, 96178, Note_on_c, 0, 42, 0
6, 96192, Note_on_c, 0, 41, 84
6, 96274, Note_on_c, 0, 41, 0
6, 96480, Note_on_c, 0, 39, 84
6, 96562, Note_on_c, 0, 39, 0
6, 96576, Note_on_c, 0, 37, 84
6, 96658, Note_on_c, 0, 37, 0
6, 96864, Note_on_c, 0, 35, 83
6, 96960, Note_on_c, 0, 35, 0
6, 96960, Note_on_c, 0, 34, 83
6, 97056, Note_on_c, 0, 34, 0
6, 97248, Note_on_c, 0, 32, 83
6, 97344, Note_on_c, 0, 32, 0
6, 97344, Note_on_c, 0, 33, 83
6, 97440, Note_on_c, 0, 33, 0
6, 97632, Note_on_c, 0, 33, 83
6, 97728, Note_on_c, 0, 33, 0
6, 97728, Note_on_c, 0, 34, 83
6, 97824, Note_on_c, 0, 34, 0
6, 98016, Note_on_c, 0, 34, 83
6, 98112, Note_on_c, 0, 34, 0
6, 98112, Note_on_c, 0, 35, 83
6, 98208, Note_on_c, 0, 35, 0
6, 98400, Note_on_c, 0, 36, 84
6, 98566, Note_on_c, 0, 36, 0
6, 98592, Note_on_c, 0, 37, 84
6, 98758, Note_on_c, 0, 37, 0
6, 98784, Note_on_c, 0, 38, 84
6, 98950, Note_on_c, 0, 38, 0
6, 98976, Note_on_c, 0, 39, 84
6, 99058, Note_on_c, 0, 39, 0
6, 99072, Note_on_c, 0, 40, 83
6, 99168, Note_on_c, 0, 40, 0
6, 99264, Note_on_c, 0, 40, 83
6, 99456, Note_on_c, 0, 40, 0
6, 109824, Note_on_c, 0, 38, 65
6, 111360, Note_on_c, 0, 38, 0
6, 111360, Note_on_c, 0, 37, 11
6, 112128, Note_on_c, 0, 37, 0
6, 112128, Note_on_c, 0, 37, 11
6, 112896, Note_on_c, 0, 37, 0
6, 112896, Note_on_c, 0, 37, 11
6, 113664, Note_on_c, 0, 37, 0
6, 113664, Note_on_c, 0, 37, 11
6, 114432, Note_on_c, 0, 37, 0
6, 114432, Note_on_c, 0, 37, 11
6, 115200, Note_on_c, 0, 37, 0
6, 115200, Note_on_c, 0, 37, 11
6, 115968, Note_on_c, 0, 37, 0
6, 115968, Note_on_c, 0, 37, 11
6, 116736, Note_on_c, 0, 37, 0
6, 116736, Note_on_c, 0, 37, 11
6, 117504, Note_on_c, 0, 37, 0
6, 117504, Note_on_c, 0, 37, 11
6, 118272, Note_on_c, 0, 37, 0
6, 118272, Note_on_c, 0, 37, 11
6, 119040, Note_on_c, 0, 37, 0
6, 119040, Note_on_c, 0, 37, 29
6, 119808, Note_on_c, 0, 37, 0
6, 119808, Note_on_c, 0, 42, 47
6, 120192, Note_on_c, 0, 42, 0
6, 120192, Note_on_c, 0, 38, 47
6, 120576, Note_on_c, 0, 38, 0
6, 120576, Note_on_c, 0, 31, 48
6, 120960, Note_on_c, 0, 31, 0
6, 120960, Note_on_c, 0, 38, 55
6, 121344, Note_on_c, 0, 38, 0
6, 121344, Note_on_c, 0, 43, 52
6, 121728, Note_on_c, 0, 43, 0
6, 121728, Note_on_c, 0, 38, 53
6, 122112, Note_on_c, 0, 38, 0
6, 122112, Note_on_c, 0, 31, 48
6, 122496, Note_on_c, 0, 31, 0
6, 122496, Note_on_c, 0, 38, 55
6, 122880, Note_on_c, 0, 38, 0
6, 122880, Note_on_c, 0, 43, 54
6, 122880, Note_on_c, 0, 43, 25
6, 123214, Note_on_c, 0, 43, 0
6, 123264, Note_on_c, 0, 43, 0
6, 123264, Note_on_c, 0, 38, 56
6, 123264, Note_on_c, 0, 38, 25
6, 123598, Note_on_c, 0, 38, 0
6, 123648, Note_on_c, 0, 38, 0
6, 123648, Note_on_c, 0, 31, 47
6, 124032, Note_on_c, 0, 31, 0
6, 124032, Note_on_c, 0, 38, 54
6, 124416, Note_on_c, 0, 38, 0
6, 124416, Note_on_c, 0, 43, 53
6, 124800, Note_on_c, 0, 43, 0
6, 124800, Note_on_c, 0, 38, 56
6, 125184, Note_on_c, 0, 38, 0
6, 125184, Note_on_c, 0, 39, 51
6, 125568, Note_on_c, 0, 39, 0
6, 125568, Note_on_c, 0, 35, 51
6, 125952, Note_on_c, 0, 35, 0
6, 125952, Note_on_c, 0, 39, 48
6, 126336, Note_on_c, 0, 39, 0
6, 126336, Note_on_c, 0, 35, 51
6, 126720, Note_on_c, 0, 35, 0
6, 126720, Note_on_c, 0, 39, 48
6, 127104, Note_on_c, 0, 39, 0
6, 127104, Note_on_c, 0, 35, 52
6, 127488, Note_on_c, 0, 35, 0
6, 127488, Note_on_c, 0, 39, 53
6, 127872, Note_on_c, 0, 39, 0
6, 127872, Note_on_c, 0, 35, 51
6, 128256, Note_on_c, 0, 35, 0
6, 128256, Note_on_c, 0, 34, 51
6, 131328, Note_on_c, 0, 34, 0
6, 131328, Note_on_c, 0, 34, 51
6, 139872, Note_on_c, 0, 34, 0
6, 140544, Note_on_c, 0, 34, 47
6, 142176, Note_on_c, 0, 34, 0
6, 143616, Note_on_c, 0, 39, 44
6, 144000, Note_on_c, 0, 39, 0
6, 144384, Note_on_c, 0, 39, 44
6, 144768, Note_on_c, 0, 39, 0
6, 145152, Note_on_c, 0, 39, 44
6, 145536, Note_on_c, 0, 39, 0
6, 145920, Note_on_c, 0, 39, 44
6, 146304, Note_on_c, 0, 39, 0
6, 146688, Note_on_c, 0, 39, 44
6, 147072, Note_on_c, 0, 39, 0
6, 147456, Note_on_c, 0, 39, 44
6, 147840, Note_on_c, 0, 39, 0
6, 148224, Note_on_c, 0, 39, 44
6, 148608, Note_on_c, 0, 39, 0
6, 148992, Note_on_c, 0, 39, 44
6, 149376, Note_on_c, 0, 39, 0
6, 149760, Note_on_c, 0, 39, 44
6, 150144, Note_on_c, 0, 39, 0
6, 150528, Note_on_c, 0, 39, 44
6, 153984, Note_on_c, 0, 39, 0
6, 154368, Note_on_c, 0, 39, 44
6, 154752, Note_on_c, 0, 39, 0
6, 156672, Note_on_c, 0, 36, 44
6, 158016, Note_on_c, 0, 36, 0
6, 158016, Note_on_c, 0, 36, 44
6, 158112, Note_on_c, 0, 36, 0
6, 158112, Note_on_c, 0, 37, 84
6, 158194, Note_on_c, 0, 37, 0
6, 158208, Note_on_c, 0, 39, 84
6, 158458, Note_on_c, 0, 39, 0
6, 158496, Note_on_c, 0, 41, 84
6, 158578, Note_on_c, 0, 41, 0
6, 158592, Note_on_c, 0, 42, 84
6, 158842, Note_on_c, 0, 42, 0
6, 158880, Note_on_c, 0, 44, 84
6, 158962, Note_on_c, 0, 44, 0
6, 158976, Note_on_c, 0, 45, 84
6, 159226, Note_on_c, 0, 45, 0
6, 159264, Note_on_c, 0, 47, 84
6, 159346, Note_on_c, 0, 47, 0
6, 159360, Note_on_c, 0, 48, 47
6, 159744, Note_on_c, 0, 48, 0
6, 159936, Note_on_c, 0, 36, 47
6, 160512, Note_on_c, 0, 36, 0
6, 160704, Note_on_c, 0, 36, 65
6, 161280, Note_on_c, 0, 36, 0
6, 161280, Note_on_c, 0, 44, 65
6, 161357, Note_on_c, 0, 44, 0
6, 161376, Note_on_c, 0, 43, 84
6, 161453, Note_on_c, 0, 43, 0
6, 161472, Note_on_c, 0, 41, 84
6, 161549, Note_on_c, 0, 41, 0
6, 161568, Note_on_c, 0, 39, 84
6, 161645, Note_on_c, 0, 39, 0
6, 161664, Note_on_c, 0, 37, 84
6, 161741, Note_on_c, 0, 37, 0
6, 161760, Note_on_c, 0, 41, 84
6, 161837, Note_on_c, 0, 41, 0
6, 161856, Note_on_c, 0, 39, 84
6, 161933, Note_on_c, 0, 39, 0
6, 161952, Note_on_c, 0, 37, 84
6, 162029, Note_on_c, 0, 37, 0
6, 162048, Note_on_c, 0, 36, 84
6, 162125, Note_on_c, 0, 36, 0
6, 162144, Note_on_c, 0, 32, 84
6, 162221, Note_on_c, 0, 32, 0
6, 162240, Note_on_c, 0, 36, 84
6, 162317, Note_on_c, 0, 36, 0
6, 162336, Note_on_c, 0, 39, 84
6, 162413, Note_on_c, 0, 39, 0
6, 162432, Note_on_c, 0, 41, 84
6, 162509, Note_on_c, 0, 41, 0
6, 162528, Note_on_c, 0, 42, 84
6, 162605, Note_on_c, 0, 42, 0
6, 162624, Note_on_c, 0, 41, 84
6, 162701, Note_on_c, 0, 41, 0
6, 162720, Note_on_c, 0, 39, 84
6, 162797, Note_on_c, 0, 39, 0
6, 162816, Note_on_c, 0, 37, 84
6, 162893, Note_on_c, 0, 37, 0
6, 162912, Note_on_c, 0, 36, 84
6, 162989, Note_on_c, 0, 36, 0
6, 163008, Note_on_c, 0, 34, 84
6, 163174, Note_on_c, 0, 34, 0
6, 163296, Note_on_c, 0, 32, 84
6, 163373, Note_on_c, 0, 32, 0
6, 163392, Note_on_c, 0, 31, 84
6, 163469, Note_on_c, 0, 31, 0
6, 163488, Note_on_c, 0, 29, 84
6, 163565, Note_on_c, 0, 29, 0
6, 163584, Note_on_c, 0, 28, 61
6, 163872, Note_on_c, 0, 28, 0
6, 163872, Note_on_c, 0, 30, 61
6, 163948, Note_on_c, 0, 30, 0
6, 163968, Note_on_c, 0, 31, 61
6, 164256, Note_on_c, 0, 31, 0
6, 164256, Note_on_c, 0, 32, 64
6, 164332, Note_on_c, 0, 32, 0
6, 164352, Note_on_c, 0, 34, 47
6, 164428, Note_on_c, 0, 34, 0
6, 164448, Note_on_c, 0, 36, 84
6, 164524, Note_on_c, 0, 36, 0
6, 164544, Note_on_c, 0, 37, 84
6, 164620, Note_on_c, 0, 37, 0
6, 164640, Note_on_c, 0, 39, 84
6, 164716, Note_on_c, 0, 39, 0
6, 164736, Note_on_c, 0, 40, 84
6, 164812, Note_on_c, 0, 40, 0
6, 164832, Note_on_c, 0, 42, 84
6, 164908, Note_on_c, 0, 42, 0
6, 164928, Note_on_c, 0, 43, 84
6, 165004, Note_on_c, 0, 43, 0
6, 165312, Note_on_c, 0, 37, 47
6, 165888, Note_on_c, 0, 37, 0
6, 166080, Note_on_c, 0, 37, 65
6, 166656, Note_on_c, 0, 37, 0
6, 166656, Note_on_c, 0, 45, 84
6, 166730, Note_on_c, 0, 45, 0
6, 166752, Note_on_c, 0, 44, 84
6, 166826, Note_on_c, 0, 44, 0
6, 166848, Note_on_c, 0, 42, 84
6, 166922, Note_on_c, 0, 42, 0
6, 166944, Note_on_c, 0, 40, 84
6, 167018, Note_on_c, 0, 40, 0
6, 167040, Note_on_c, 0, 38, 84
6, 167114, Note_on_c, 0, 38, 0
6, 167136, Note_on_c, 0, 42, 84
6, 167210, Note_on_c, 0, 42, 0
6, 167232, Note_on_c, 0, 40, 84
6, 167306, Note_on_c, 0, 40, 0
6, 167328, Note_on_c, 0, 38, 84
6, 167402, Note_on_c, 0, 38, 0
6, 167424, Note_on_c, 0, 37, 84
6, 167498, Note_on_c, 0, 37, 0
6, 167520, Note_on_c, 0, 33, 84
6, 167594, Note_on_c, 0, 33, 0
6, 167616, Note_on_c, 0, 37, 84
6, 167690, Note_on_c, 0, 37, 0
6, 167712, Note_on_c, 0, 40, 84
6, 167786, Note_on_c, 0, 40, 0
6, 167808, Note_on_c, 0, 42, 84
6, 167882, Note_on_c, 0, 42, 0
6, 167904, Note_on_c, 0, 43, 84
6, 167978, Note_on_c, 0, 43, 0
6, 168000, Note_on_c, 0, 42, 84
6, 168074, Note_on_c, 0, 42, 0
6, 168096, Note_on_c, 0, 40, 84
6, 168170, Note_on_c, 0, 40, 0
6, 168192, Note_on_c, 0, 38, 84
6, 168266, Note_on_c, 0, 38, 0
6, 168288, Note_on_c, 0, 37, 84
6, 168362, Note_on_c, 0, 37, 0
6, 168384, Note_on_c, 0, 35, 84
6, 168533, Note_on_c, 0, 35, 0
6, 168672, Note_on_c, 0, 33, 84
6, 168746, Note_on_c, 0, 33, 0
6, 168768, Note_on_c, 0, 32, 84
6, 168842, Note_on_c, 0, 32, 0
6, 168864, Note_on_c, 0, 30, 84
6, 168938, Note_on_c, 0, 30, 0
6, 168960, Note_on_c, 0, 29, 65
6, 169248, Note_on_c, 0, 29, 0
6, 169248, Note_on_c, 0, 30, 65
6, 169322, Note_on_c, 0, 30, 0
6, 169344, Note_on_c, 0, 32, 65
6, 169632, Note_on_c, 0, 32, 0
6, 169632, Note_on_c, 0, 33, 65
6, 169706, Note_on_c, 0, 33, 0
6, 169728, Note_on_c, 0, 35, 48
6, 169802, Note_on_c, 0, 35, 0
6, 169824, Note_on_c, 0, 37, 51
6, 169898, Note_on_c, 0, 37, 0
6, 169920, Note_on_c, 0, 38, 51
6, 169994, Note_on_c, 0, 38, 0
6, 170016, Note_on_c, 0, 40, 51
6, 170090, Note_on_c, 0, 40, 0
6, 170112, Note_on_c, 0, 41, 48
6, 170186, Note_on_c, 0, 41, 0
6, 170208, Note_on_c, 0, 43, 53
6, 170282, Note_on_c, 0, 43, 0
6, 170304, Note_on_c, 0, 44, 46
6, 170378, Note_on_c, 0, 44, 0
6, 170400, Note_on_c, 0, 45, 51
6, 170474, Note_on_c, 0, 45, 0
6, 170496, Note_on_c, 0, 33, 84
6, 170784, Note_on_c, 0, 33, 0
6, 170784, Note_on_c, 0, 35, 65
6, 170858, Note_on_c, 0, 35, 0
6, 170880, Note_on_c, 0, 36, 64
6, 171168, Note_on_c, 0, 36, 0
6, 171168, Note_on_c, 0, 38, 65
6, 171242, Note_on_c, 0, 38, 0
6, 171264, Note_on_c, 0, 39, 84
6, 171338, Note_on_c, 0, 39, 0
6, 171360, Note_on_c, 0, 41, 84
6, 171434, Note_on_c, 0, 41, 0
6, 171456, Note_on_c, 0, 42, 84
6, 171530, Note_on_c, 0, 42, 0
6, 171552, Note_on_c, 0, 44, 84
6, 171626, Note_on_c, 0, 44, 0
6, 171648, Note_on_c, 0, 45, 84
6, 171722, Note_on_c, 0, 45, 0
6, 171744, Note_on_c, 0, 47, 84
6, 171818, Note_on_c, 0, 47, 0
6, 171840, Note_on_c, 0, 48, 84
6, 171914, Note_on_c, 0, 48, 0
6, 171936, Note_on_c, 0, 49, 84
6, 172010, Note_on_c, 0, 49, 0
6, 172032, Note_on_c, 0, 37, 84
6, 172282, Note_on_c, 0, 37, 0
6, 172320, Note_on_c, 0, 35, 84
6, 172394, Note_on_c, 0, 35, 0
6, 172416, Note_on_c, 0, 34, 84
6, 172490, Note_on_c, 0, 34, 0
6, 173472, Note_on_c, 0, 46, 83
6, 173568, Note_on_c, 0, 46, 0
6, 173568, Note_on_c, 0, 34, 84
6, 173818, Note_on_c, 0, 34, 0
6, 173856, Note_on_c, 0, 32, 84
6, 173938, Note_on_c, 0, 32, 0
6, 173952, Note_on_c, 0, 31, 84
6, 174048, Note_on_c, 0, 31, 0
6, 175008, Note_on_c, 0, 52, 83
6, 175104, Note_on_c, 0, 52, 0
6, 175104, Note_on_c, 0, 40, 68
6, 175354, Note_on_c, 0, 40, 0
6, 175392, Note_on_c, 0, 39, 68
6, 175474, Note_on_c, 0, 39, 0
6, 175488, Note_on_c, 0, 37, 83
6, 175584, Note_on_c, 0, 37, 0
6, 176448, Note_on_c, 0, 49, 65
6, 176544, Note_on_c, 0, 49, 0
6, 176640, Note_on_c, 0, 37, 68
6, 176890, Note_on_c, 0, 37, 0
6, 176928, Note_on_c, 0, 35, 68
6, 177010, Note_on_c, 0, 35, 0
6, 177024, Note_on_c, 0, 34, 83
6, 177120, Note_on_c, 0, 34, 0
6, 177312, Note_on_c, 0, 49, 68
6, 177394, Note_on_c, 0, 49, 0
6, 177408, Note_on_c, 0, 37, 68
6, 177658, Note_on_c, 0, 37, 0
6, 177696, Note_on_c, 0, 35, 68
6, 177778, Note_on_c, 0, 35, 0
6, 177792, Note_on_c, 0, 34, 83
6, 177888, Note_on_c, 0, 34, 0
6, 178080, Note_on_c, 0, 50, 68
6, 178162, Note_on_c, 0, 50, 0
6, 178176, Note_on_c, 0, 38, 68
6, 178426, Note_on_c, 0, 38, 0
6, 178464, Note_on_c, 0, 37, 68
6, 178546, Note_on_c, 0, 37, 0
6, 178560, Note_on_c, 0, 35, 83
6, 178656, Note_on_c, 0, 35, 0
6, 178848, Note_on_c, 0, 51, 68
6, 178930, Note_on_c, 0, 51, 0
6, 178944, Note_on_c, 0, 39, 68
6, 179194, Note_on_c, 0, 39, 0
6, 179232, Note_on_c, 0, 38, 68
6, 179314, Note_on_c, 0, 38, 0
6, 179328, Note_on_c, 0, 36, 83
6, 179424, Note_on_c, 0, 36, 0
6, 180384, Note_on_c, 0, 48, 83
6, 180480, Note_on_c, 0, 48, 0
6, 180480, Note_on_c, 0, 36, 83
6, 180768, Note_on_c, 0, 36, 0
6, 180768, Note_on_c, 0, 48, 83
6, 180864, Note_on_c, 0, 48, 0
6, 180864, Note_on_c, 0, 35, 83
6, 181152, Note_on_c, 0, 35, 0
6, 181152, Note_on_c, 0, 47, 83
6, 181248, Note_on_c, 0, 47, 0
6, 181248, Note_on_c, 0, 34, 46
6, 181344, Note_on_c, 0, 34, 0
6, 181344, Note_on_c, 0, 34, 54
6, 181440, Note_on_c, 0, 34, 0
6, 181536, Note_on_c, 0, 34, 48
6, 181632, Note_on_c, 0, 34, 0
6, 181728, Note_on_c, 0, 34, 49
6, 181824, Note_on_c, 0, 34, 0
6, 181920, Note_on_c, 0, 34, 49
6, 182016, Note_on_c, 0, 34, 0
6, 182112, Note_on_c, 0, 33, 58
6, 182208, Note_on_c, 0, 33, 0
6, 182400, Note_on_c, 0, 46, 51
6, 182496, Note_on_c, 0, 46, 0
6, 182496, Note_on_c, 0, 47, 51
6, 182592, Note_on_c, 0, 47, 0
6, 182592, Note_on_c, 0, 42, 53
6, 182688, Note_on_c, 0, 42, 0
6, 182688, Note_on_c, 0, 44, 51
6, 182784, Note_on_c, 0, 44, 0
6, 182880, Note_on_c, 0, 32, 84
6, 182962, Note_on_c, 0, 32, 0
6, 182976, Note_on_c, 0, 44, 84
6, 183036, Note_on_c, 0, 44, 0
6, 183456, Note_on_c, 0, 51, 83
6, 183552, Note_on_c, 0, 51, 0
6, 183648, Note_on_c, 0, 47, 47
6, 183744, Note_on_c, 0, 47, 0
6, 183840, Note_on_c, 0, 44, 48
6, 183936, Note_on_c, 0, 44, 0
6, 184032, Note_on_c, 0, 39, 50
6, 184128, Note_on_c, 0, 39, 0
6, 184128, Note_on_c, 0, 38, 51
6, 184224, Note_on_c, 0, 38, 0
6, 184416, Note_on_c, 0, 42, 51
6, 184512, Note_on_c, 0, 42, 0
6, 184512, Note_on_c, 0, 41, 50
6, 184608, Note_on_c, 0, 41, 0
6, 184800, Note_on_c, 0, 39, 50
6, 184896, Note_on_c, 0, 39, 0
6, 184896, Note_on_c, 0, 37, 53
6, 184992, Note_on_c, 0, 37, 0
6, 185184, Note_on_c, 0, 35, 48
6, 185280, Note_on_c, 0, 35, 0
6, 185280, Note_on_c, 0, 34, 48
6, 185376, Note_on_c, 0, 34, 0
6, 185568, Note_on_c, 0, 32, 51
6, 185664, Note_on_c, 0, 32, 0
6, 185664, Note_on_c, 0, 33, 56
6, 185760, Note_on_c, 0, 33, 0
6, 185952, Note_on_c, 0, 33, 49
6, 186048, Note_on_c, 0, 33, 0
6, 186048, Note_on_c, 0, 34, 48
6, 186144, Note_on_c, 0, 34, 0
6, 186336, Note_on_c, 0, 35, 84
6, 186502, Note_on_c, 0, 35, 0
6, 186528, Note_on_c, 0, 36, 84
6, 186694, Note_on_c, 0, 36, 0
6, 186720, Note_on_c, 0, 37, 84
6, 186886, Note_on_c, 0, 37, 0
6, 186912, Note_on_c, 0, 39, 84
6, 186994, Note_on_c, 0, 39, 0
6, 187008, Note_on_c, 0, 40, 84
6, 187090, Note_on_c, 0, 40, 0
6, 197376, Note_on_c, 0, 35, 61
6, 198912, Note_on_c, 0, 35, 0
6, 198912, Note_on_c, 0, 34, 39
6, 200448, Note_on_c, 0, 34, 0
6, 200448, Note_on_c, 0, 34, 39
6, 201984, Note_on_c, 0, 34, 0
6, 201984, Note_on_c, 0, 34, 31
6, 203520, Note_on_c, 0, 34, 0
6, 203520, Note_on_c, 0, 34, 55
6, 205056, Note_on_c, 0, 34, 0
6, 205056, Note_on_c, 0, 34, 55
6, 206592, Note_on_c, 0, 34, 0
6, 206592, Note_on_c, 0, 34, 39
6, 208128, Note_on_c, 0, 34, 0
6, 208128, Note_on_c, 0, 34, 55
6, 209664, Note_on_c, 0, 34, 0
6, 209664, Note_on_c, 0, 34, 55
6, 211200, Note_on_c, 0, 34, 0
6, 211200, Note_on_c, 0, 34, 55
6, 212736, Note_on_c, 0, 34, 0
6, 212736, Note_on_c, 0, 34, 55
6, 214272, Note_on_c, 0, 34, 0
6, 214272, Note_on_c, 0, 34, 49
6, 215808, Note_on_c, 0, 34, 0
6, 215808, Note_on_c, 0, 34, 47
6, 217344, Note_on_c, 0, 34, 0
6, 217344, Note_on_c, 0, 46, 47
6, 218112, Note_on_c, 0, 46, 0
6, 218112, Note_on_c, 0, 34, 47
6, 218208, Note_on_c, 0, 34, 0
6, 218880, Note_on_c, 0, 34, 47
6, 218976, Note_on_c, 0, 34, 0
6, 219744, Note_on_c, 0, 39, 55
6, 219792, Note_on_c, 0, 39, 0
6, 219792, Note_on_c, 0, 41, 55
6, 219840, Note_on_c, 0, 41, 0
6, 219840, Note_on_c, 0, 39, 55
6, 219864, Note_on_c, 0, 39, 0
6, 219936, Note_on_c, 0, 37, 55
6, 220032, Note_on_c, 0, 37, 0
6, 220032, Note_on_c, 0, 36, 55
6, 220056, Note_on_c, 0, 36, 0
6, 220128, Note_on_c, 0, 36, 55
6, 220176, Note_on_c, 0, 36, 0
6, 220176, Note_on_c, 0, 38, 55
6, 220224, Note_on_c, 0, 38, 0
6, 220224, Note_on_c, 0, 36, 47
6, 220248, Note_on_c, 0, 36, 0
6, 220320, Note_on_c, 0, 35, 47
6, 220416, Note_on_c, 0, 35, 0
6, 220416, Note_on_c, 0, 34, 39
6, 236544, Note_on_c, 0, 34, 0
6, 236544, Note_on_c, 0, 34, 51
6, 236608, Note_on_c, 0, 34, 0
6, 236608, Note_on_c, 0, 34, 56
6, 236672, Note_on_c, 0, 34, 0
6, 236672, Note_on_c, 0, 34, 58
6, 236736, Note_on_c, 0, 34, 0
6, 236736, Note_on_c, 0, 34, 59
6, 236800, Note_on_c, 0, 34, 0
6, 236800, Note_on_c, 0, 34, 57
6, 236864, Note_on_c, 0, 34, 0
6, 236864, Note_on_c, 0, 34, 56
6, 236928, Note_on_c, 0, 34, 0
6, 236928, Note_on_c, 0, 34, 49
6, 236992, Note_on_c, 0, 34, 0
6, 236992, Note_on_c, 0, 34, 53
6, 237056, Note_on_c, 0, 34, 0
6, 237056, Note_on_c, 0, 34, 51
6, 237120, Note_on_c, 0, 34, 0
6, 237120, Note_on_c, 0, 34, 51
6, 237184, Note_on_c, 0, 34, 0
6, 237184, Note_on_c, 0, 34, 53
6, 237248, Note_on_c, 0, 34, 0
6, 237248, Note_on_c, 0, 34, 54
6, 237312, Note_on_c, 0, 34, 0
6, 237312, Note_on_c, 0, 34, 51
6, 237376, Note_on_c, 0, 34, 0
6, 237376, Note_on_c, 0, 34, 56
6, 237440, Note_on_c, 0, 34, 0
6, 237440, Note_on_c, 0, 34, 58
6, 237504, Note_on_c, 0, 34, 0
6, 237504, Note_on_c, 0, 34, 59
6, 237568, Note_on_c, 0, 34, 0
6, 237568, Note_on_c, 0, 34, 57
6, 237632, Note_on_c, 0, 34, 0
6, 237632, Note_on_c, 0, 34, 56
6, 237696, Note_on_c, 0, 34, 0
6, 237696, Note_on_c, 0, 34, 49
6, 237760, Note_on_c, 0, 34, 0
6, 237760, Note_on_c, 0, 34, 53
6, 237824, Note_on_c, 0, 34, 0
6, 237824, Note_on_c, 0, 34, 51
6, 237888, Note_on_c, 0, 34, 0
6, 237888, Note_on_c, 0, 34, 51
6, 237952, Note_on_c, 0, 34, 0
6, 237952, Note_on_c, 0, 34, 53
6, 238016, Note_on_c, 0, 34, 0
6, 238016, Note_on_c, 0, 34, 54
6, 238080, Note_on_c, 0, 34, 0
6, 238080, Note_on_c, 0, 34, 51
6, 238144, Note_on_c, 0, 34, 0
6, 238144, Note_on_c, 0, 34, 56
6, 238208, Note_on_c, 0, 34, 0
6, 238208, Note_on_c, 0, 34, 58
6, 238272, Note_on_c, 0, 34, 0
6, 238272, Note_on_c, 0, 34, 59
6, 238336, Note_on_c, 0, 34, 0
6, 238336, Note_on_c, 0, 34, 57
6, 238400, Note_on_c, 0, 34, 0
6, 238400, Note_on_c, 0, 34, 56
6, 238464, Note_on_c, 0, 34, 0
6, 238464, Note_on_c, 0, 34, 49
6, 238528, Note_on_c, 0, 34, 0
6, 238528, Note_on_c, 0, 34, 53
6, 238592, Note_on_c, 0, 34, 0
6, 238592, Note_on_c, 0, 34, 51
6, 238656, Note_on_c, 0, 34, 0
6, 238656, Note_on_c, 0, 34, 51
6, 238720, Note_on_c, 0, 34, 0
6, 238720, Note_on_c, 0, 34, 53
6, 238784, Note_on_c, 0, 34, 0
6, 238784, Note_on_c, 0, 34, 54
6, 238848, Note_on_c, 0, 34, 0
6, 238848, Note_on_c, 0, 34, 51
6, 238912, Note_on_c, 0, 34, 0
6, 238912, Note_on_c, 0, 34, 56
6, 238976, Note_on_c, 0, 34, 0
6, 238976, Note_on_c, 0, 34, 58
6, 239040, Note_on_c, 0, 34, 0
6, 239040, Note_on_c, 0, 34, 59
6, 239104, Note_on_c, 0, 34, 0
6, 239104, Note_on_c, 0, 34, 57
6, 239168, Note_on_c, 0, 34, 0
6, 239168, Note_on_c, 0, 34, 56
6, 239232, Note_on_c, 0, 34, 0
6, 239232, Note_on_c, 0, 34, 49
6, 239296, Note_on_c, 0, 34, 0
6, 239296, Note_on_c, 0, 34, 53
6, 239360, Note_on_c, 0, 34, 0
6, 239360, Note_on_c, 0, 34, 51
6, 239424, Note_on_c, 0, 34, 0
6, 239424, Note_on_c, 0, 34, 51
6, 239488, Note_on_c, 0, 34, 0
6, 239488, Note_on_c, 0, 34, 53
6, 239552, Note_on_c, 0, 34, 0
6, 239552, Note_on_c, 0, 34, 54
6, 239616, Note_on_c, 0, 34, 0
6, 239616, Note_on_c, 0, 34, 51
6, 239808, Note_on_c, 0, 34, 0
6, 239808, Note_on_c, 0, 34, 54
6, 240000, Note_on_c, 0, 34, 0
6, 240000, Note_on_c, 0, 34, 54
6, 240192, Note_on_c, 0, 34, 0
6, 240192, Note_on_c, 0, 34, 54
6, 240384, Note_on_c, 0, 34, 0
6, 240385, Note_on_c, 0, 34, 54
6, 240576, Note_on_c, 0, 34, 57
6, 240577, Note_on_c, 0, 34, 0
6, 240768, Note_on_c, 0, 34, 0
6, 240768, Note_on_c, 0, 34, 56
6, 240960, Note_on_c, 0, 34, 0
6, 240960, Note_on_c, 0, 34, 54
6, 241152, Note_on_c, 0, 34, 0
6, 241152, Note_on_c, 0, 34, 53
6, 241344, Note_on_c, 0, 34, 0
6, 241344, Note_on_c, 0, 34, 55
6, 241536, Note_on_c, 0, 34, 0
6, 241536, Note_on_c, 0, 34, 56
6, 241728, Note_on_c, 0, 34, 0
6, 241728, Note_on_c, 0, 34, 54
6, 241920, Note_on_c, 0, 34, 0
6, 241920, Note_on_c, 0, 34, 83
6, 242112, Note_on_c, 0, 34, 0
6, 242112, Note_on_c, 0, 34, 83
6, 242304, Note_on_c, 0, 34, 0
6, 242304, Note_on_c, 0, 34, 83
6, 242400, Note_on_c, 0, 34, 0
6, 256896, Note_on_c, 0, 43, 86
6, 256977, Note_on_c, 0, 43, 0
6, 256992, Note_on_c, 0, 41, 86
6, 257073, Note_on_c, 0, 41, 0
6, 257088, Note_on_c, 0, 39, 86
6, 257169, Note_on_c, 0, 39, 0
6, 257184, Note_on_c, 0, 38, 86
6, 257265, Note_on_c, 0, 38, 0
6, 257280, Note_on_c, 0, 43, 86
6, 257361, Note_on_c, 0, 43, 0
6, 257376, Note_on_c, 0, 41, 86
6, 257457, Note_on_c, 0, 41, 0
6, 257472, Note_on_c, 0, 39, 86
6, 257553, Note_on_c, 0, 39, 0
6, 257568, Note_on_c, 0, 38, 86
6, 257649, Note_on_c, 0, 38, 0
6, 257664, Note_on_c, 0, 43, 86
6, 257745, Note_on_c, 0, 43, 0
6, 257760, Note_on_c, 0, 41, 86
6, 257841, Note_on_c, 0, 41, 0
6, 257856, Note_on_c, 0, 39, 86
6, 257952, Note_on_c, 0, 39, 0
6, 257952, Note_on_c, 0, 39, 86
6, 258048, Note_on_c, 0, 39, 0
6, 258048, Note_on_c, 0, 46, 83
6, 258240, Note_on_c, 0, 46, 0
6, 258240, Note_on_c, 0, 51, 83
6, 258432, Note_on_c, 0, 51, 0
6, 258432, Note_on_c, 0, 51, 83
6, 258528, Note_on_c, 0, 51, 0
6, 258528, Note_on_c, 0, 51, 83
6, 258624, Note_on_c, 0, 51, 0
6, 258624, Note_on_c, 0, 46, 83
6, 258720, Note_on_c, 0, 46, 0
6, 258720, Note_on_c, 0, 51, 83
6, 258816, Note_on_c, 0, 51, 0
6, 258816, Note_on_c, 0, 44, 83
6, 258912, Note_on_c, 0, 44, 0
6, 258912, Note_on_c, 0, 44, 83
6, 259008, Note_on_c, 0, 44, 0
6, 260352, Note_on_c, 0, 39, 83
6, 260448, Note_on_c, 0, 39, 0
6, 260448, Note_on_c, 0, 39, 83
6, 260544, Note_on_c, 0, 39, 0
6, 260544, Note_on_c, 0, 39, 83
6, 260640, Note_on_c, 0, 39, 0
6, 260640, Note_on_c, 0, 39, 83
6, 260736, Note_on_c, 0, 39, 0
6, 260736, Note_on_c, 0, 39, 83
6, 261120, Note_on_c, 0, 39, 0
6, 261120, Note_on_c, 0, 39, 83
6, 261312, Note_on_c, 0, 39, 0
6, 261312, Note_on_c, 0, 43, 83
6, 261504, Note_on_c, 0, 43, 0
6, 261504, Note_on_c, 0, 46, 83
6, 261792, Note_on_c, 0, 46, 0
6, 261792, Note_on_c, 0, 46, 83
6, 261888, Note_on_c, 0, 46, 0
6, 261888, Note_on_c, 0, 46, 83
6, 261984, Note_on_c, 0, 46, 0
6, 261984, Note_on_c, 0, 46, 83
6, 262080, Note_on_c, 0, 46, 0
6, 262080, Note_on_c, 0, 39, 83
6, 262176, Note_on_c, 0, 39, 0
6, 263616, Note_on_c, 0, 36, 83
6, 263808, Note_on_c, 0, 36, 0
6, 263808, Note_on_c, 0, 34, 83
6, 264000, Note_on_c, 0, 34, 0
6, 264000, Note_on_c, 0, 39, 83
6, 264192, Note_on_c, 0, 39, 0
6, 264192, Note_on_c, 0, 39, 83
6, 264384, Note_on_c, 0, 39, 0
6, 264384, Note_on_c, 0, 34, 51
6, 264480, Note_on_c, 0, 34, 0
6, 264480, Note_on_c, 0, 39, 50
6, 264576, Note_on_c, 0, 39, 0
6, 264576, Note_on_c, 0, 32, 50
6, 264672, Note_on_c, 0, 32, 0
6, 264672, Note_on_c, 0, 36, 48
6, 264768, Note_on_c, 0, 36, 0
6, 264768, Note_on_c, 0, 39, 48
6, 264864, Note_on_c, 0, 39, 0
6, 264864, Note_on_c, 0, 44, 48
6, 264960, Note_on_c, 0, 44, 0
6, 264960, Note_on_c, 0, 48, 50
6, 265056, Note_on_c, 0, 48, 0
6, 265056, Note_on_c, 0, 51, 53
6, 265152, Note_on_c, 0, 51, 0
6, 265152, Note_on_c, 0, 56, 53
6, 265248, Note_on_c, 0, 56, 0
6, 265248, Note_on_c, 0, 51, 56
6, 265344, Note_on_c, 0, 51, 0
6, 265344, Note_on_c, 0, 48, 54
6, 265440, Note_on_c, 0, 48, 0
6, 265440, Note_on_c, 0, 44, 53
6, 265536, Note_on_c, 0, 44, 0
6, 265536, Note_on_c, 0, 39, 50
6, 265632, Note_on_c, 0, 39, 0
6, 265632, Note_on_c, 0, 36, 48
6, 265728, Note_on_c, 0, 36, 0
6, 265728, Note_on_c, 0, 32, 54
6, 265824, Note_on_c, 0, 32, 0
6, 265824, Note_on_c, 0, 39, 48
6, 265920, Note_on_c, 0, 39, 0
6, 267264, Note_on_c, 0, 39, 83
6, 267360, Note_on_c, 0, 39, 0
6, 267360, Note_on_c, 0, 39, 84
6, 267442, Note_on_c, 0, 39, 0
6, 267456, Note_on_c, 0, 39, 84
6, 267538, Note_on_c, 0, 39, 0
6, 267552, Note_on_c, 0, 39, 84
6, 267634, Note_on_c, 0, 39, 0
6, 267648, Note_on_c, 0, 39, 83
6, 268032, Note_on_c, 0, 39, 0
6, 268032, Note_on_c, 0, 48, 83
6, 268224, Note_on_c, 0, 48, 0
6, 268224, Note_on_c, 0, 48, 83
6, 268416, Note_on_c, 0, 48, 0
6, 268416, Note_on_c, 0, 43, 83
6, 268704, Note_on_c, 0, 43, 0
6, 268704, Note_on_c, 0, 43, 83
6, 268800, Note_on_c, 0, 43, 0
6, 268800, Note_on_c, 0, 43, 83
6, 268992, Note_on_c, 0, 43, 0
6, 268992, Note_on_c, 0, 46, 83
6, 269280, Note_on_c, 0, 46, 0
6, 269280, Note_on_c, 0, 46, 83
6, 269312, Note_on_c, 0, 46, 0
6, 269312, Note_on_c, 0, 46, 83
6, 269344, Note_on_c, 0, 46, 0
6, 269344, Note_on_c, 0, 46, 83
6, 269376, Note_on_c, 0, 46, 0
6, 269376, Note_on_c, 0, 46, 83
6, 269472, Note_on_c, 0, 46, 0
6, 269472, Note_on_c, 0, 46, 83
6, 269568, Note_on_c, 0, 46, 0
6, 269568, Note_on_c, 0, 34, 83
6, 269856, Note_on_c, 0, 34, 0
6, 269856, Note_on_c, 0, 34, 83
6, 269952, Note_on_c, 0, 34, 0
6, 269952, Note_on_c, 0, 34, 83
6, 270048, Note_on_c, 0, 34, 0
6, 270048, Note_on_c, 0, 34, 83
6, 270144, Note_on_c, 0, 34, 0
6, 270144, Note_on_c, 0, 39, 84
6, 270226, Note_on_c, 0, 39, 0
6, 270336, Note_on_c, 0, 34, 84
6, 270418, Note_on_c, 0, 34, 0
6, 270528, Note_on_c, 0, 39, 84
6, 270610, Note_on_c, 0, 39, 0
6, 270720, Note_on_c, 0, 34, 84
6, 270802, Note_on_c, 0, 34, 0
6, 270912, Note_on_c, 0, 39, 84
6, 270994, Note_on_c, 0, 39, 0
6, 271104, Note_on_c, 0, 34, 84
6, 271186, Note_on_c, 0, 34, 0
6, 271296, Note_on_c, 0, 39, 84
6, 271378, Note_on_c, 0, 39, 0
6, 271488, Note_on_c, 0, 34, 84
6, 271570, Note_on_c, 0, 34, 0
6, 271680, Note_on_c, 0, 39, 84
6, 271762, Note_on_c, 0, 39, 0
6, 271872, Note_on_c, 0, 34, 84
6, 271954, Note_on_c, 0, 34, 0
6, 272064, Note_on_c, 0, 39, 84
6, 272146, Note_on_c, 0, 39, 0
6, 272256, Note_on_c, 0, 34, 84
6, 272338, Note_on_c, 0, 34, 0
6, 272448, Note_on_c, 0, 39, 84
6, 272530, Note_on_c, 0, 39, 0
6, 272640, Note_on_c, 0, 34, 84
6, 272722, Note_on_c, 0, 34, 0
6, 272832, Note_on_c, 0, 39, 84
6, 272914, Note_on_c, 0, 39, 0
6, 273024, Note_on_c, 0, 34, 84
6, 273106, Note_on_c, 0, 34, 0
6, 273216, Note_on_c, 0, 39, 84
6, 273298, Note_on_c, 0, 39, 0
6, 273408, Note_on_c, 0, 34, 84
6, 273490, Note_on_c, 0, 34, 0
6, 273600, Note_on_c, 0, 39, 84
6, 273682, Note_on_c, 0, 39, 0
6, 273792, Note_on_c, 0, 34, 84
6, 273874, Note_on_c, 0, 34, 0
6, 273984, Note_on_c, 0, 39, 84
6, 274066, Note_on_c, 0, 39, 0
6, 274176, Note_on_c, 0, 34, 84
6, 274258, Note_on_c, 0, 34, 0
6, 274368, Note_on_c, 0, 39, 84
6, 274450, Note_on_c, 0, 39, 0
6, 274560, Note_on_c, 0, 34, 84
6, 274642, Note_on_c, 0, 34, 0
6, 274752, Note_on_c, 0, 39, 83
6, 274848, Note_on_c, 0, 39, 0
6, 274944, Note_on_c, 0, 34, 83
6, 275040, Note_on_c, 0, 34, 0
6, 275136, Note_on_c, 0, 39, 83
6, 275232, Note_on_c, 0, 39, 0
6, 275328, Note_on_c, 0, 34, 83
6, 275424, Note_on_c, 0, 34, 0
6, 275520, Note_on_c, 0, 39, 83
6, 275616, Note_on_c, 0, 39, 0
6, 275712, Note_on_c, 0, 34, 83
6, 275808, Note_on_c, 0, 34, 0
6, 275904, Note_on_c, 0, 39, 83
6, 276000, Note_on_c, 0, 39, 0
6, 276096, Note_on_c, 0, 34, 83
6, 276192, Note_on_c, 0, 34, 0
6, 276288, Note_on_c, 0, 34, 93
6, 276288, Note_on_c, 0, 34, 93
6, 277025, Note_on_c, 0, 34, 0
6, 277025, Note_on_c, 0, 34, 0
6, 277056, Note_on_c, 0, 36, 93
6, 277056, Note_on_c, 0, 36, 93
6, 277425, Note_on_c, 0, 36, 0
6, 277425, Note_on_c, 0, 36, 0
6, 277440, Note_on_c, 0, 36, 93
6, 277440, Note_on_c, 0, 36, 93
6, 277809, Note_on_c, 0, 36, 0
6, 277809, Note_on_c, 0, 36, 0
6, 277824, Note_on_c, 0, 34, 93
6, 277824, Note_on_c, 0, 34, 93
6, 278377, Note_on_c, 0, 34, 0
6, 278377, Note_on_c, 0, 34, 0
6, 278400, Note_on_c, 0, 31, 93
6, 278400, Note_on_c, 0, 31, 93
6, 278584, Note_on_c, 0, 31, 0
6, 278584, Note_on_c, 0, 31, 0
6, 278592, Note_on_c, 0, 27, 93
6, 278592, Note_on_c, 0, 27, 93
6, 279329, Note_on_c, 0, 27, 0
6, 279329, Note_on_c, 0, 27, 0
6, 279360, Note_on_c, 0, 39, 93
6, 279360, Note_on_c, 0, 39, 93
6, 280097, Note_on_c, 0, 39, 0
6, 280097, Note_on_c, 0, 39, 0
6, 280128, Note_on_c, 0, 38, 93
6, 280128, Note_on_c, 0, 38, 93
6, 280497, Note_on_c, 0, 38, 0
6, 280497, Note_on_c, 0, 38, 0
6, 280512, Note_on_c, 0, 36, 93
6, 280512, Note_on_c, 0, 36, 93
6, 280881, Note_on_c, 0, 36, 0
6, 280881, Note_on_c, 0, 36, 0
6, 280896, Note_on_c, 0, 34, 93
6, 280896, Note_on_c, 0, 34, 93
6, 281633, Note_on_c, 0, 34, 0
6, 281633, Note_on_c, 0, 34, 0
6, 281664, Note_on_c, 0, 36, 93
6, 281664, Note_on_c, 0, 36, 93
6, 282401, Note_on_c, 0, 36, 0
6, 282401, Note_on_c, 0, 36, 0
6, 282432, Note_on_c, 0, 32, 93
6, 282432, Note_on_c, 0, 32, 93
6, 283169, Note_on_c, 0, 32, 0
6, 283169, Note_on_c, 0, 32, 0
6, 283200, Note_on_c, 0, 34, 93
6, 283200, Note_on_c, 0, 34, 93
6, 283569, Note_on_c, 0, 34, 0
6, 283569, Note_on_c, 0, 34, 0
6, 283584, Note_on_c, 0, 34, 93
6, 283584, Note_on_c, 0, 34, 93
6, 283953, Note_on_c, 0, 34, 0
6, 283953, Note_on_c, 0, 34, 0
6, 283968, Note_on_c, 0, 31, 106
6, 284521, Note_on_c, 0, 31, 0
6, 284544, Note_on_c, 0, 32, 106
6, 284728, Note_on_c, 0, 32, 0
6, 284736, Note_on_c, 0, 33, 69
6, 284920, Note_on_c, 0, 33, 0
6, 284928, Note_on_c, 0, 34, 62
6, 285112, Note_on_c, 0, 34, 0
6, 285120, Note_on_c, 0, 35, 69
6, 285304, Note_on_c, 0, 35, 0
6, 285312, Note_on_c, 0, 36, 66
6, 285496, Note_on_c, 0, 36, 0
6, 285504, Note_on_c, 0, 34, 90
6, 285632, Note_on_c, 0, 34, 0
6, 285632, Note_on_c, 0, 34, 68
6, 285760, Note_on_c, 0, 34, 0
6, 285760, Note_on_c, 0, 34, 67
6, 285888, Note_on_c, 0, 34, 0
6, 285888, Note_on_c, 0, 34, 67
6, 286016, Note_on_c, 0, 34, 0
6, 286016, Note_on_c, 0, 34, 63
6, 286144, Note_on_c, 0, 34, 0
6, 286144, Note_on_c, 0, 34, 63
6, 286272, Note_on_c, 0, 34, 0
6, 286272, Note_on_c, 0, 34, 67
6, 286400, Note_on_c, 0, 34, 0
6, 286400, Note_on_c, 0, 34, 66
6, 286528, Note_on_c, 0, 34, 0
6, 286528, Note_on_c, 0, 34, 63
6, 286656, Note_on_c, 0, 34, 0
6, 286656, Note_on_c, 0, 34, 68
6, 286784, Note_on_c, 0, 34, 0
6, 286784, Note_on_c, 0, 34, 63
6, 286912, Note_on_c, 0, 34, 0
6, 286912, Note_on_c, 0, 34, 67
6, 287040, Note_on_c, 0, 34, 0
6, 287040, Note_on_c, 0, 46, 67
6, 287168, Note_on_c, 0, 46, 0
6, 287168, Note_on_c, 0, 45, 70
6, 287296, Note_on_c, 0, 45, 0
6, 287296, Note_on_c, 0, 44, 66
6, 287424, Note_on_c, 0, 44, 0
6, 287424, Note_on_c, 0, 43, 69
6, 287552, Note_on_c, 0, 43, 0
6, 287552, Note_on_c, 0, 42, 66
6, 287680, Note_on_c, 0, 42, 0
6, 287680, Note_on_c, 0, 41, 66
6, 287808, Note_on_c, 0, 41, 0
6, 287808, Note_on_c, 0, 40, 70
6, 287936, Note_on_c, 0, 40, 0
6, 287936, Note_on_c, 0, 39, 67
6, 288064, Note_on_c, 0, 39, 0
6, 288064, Note_on_c, 0, 38, 73
6, 288192, Note_on_c, 0, 38, 0
6, 288192, Note_on_c, 0, 36, 68
6, 288320, Note_on_c, 0, 36, 0
6, 288320, Note_on_c, 0, 35, 66
6, 288448, Note_on_c, 0, 35, 0
6, 288448, Note_on_c, 0, 34, 68
6, 288576, Note_on_c, 0, 34, 0
6, 288576, Note_on_c, 0, 39, 69
6, 288768, Note_on_c, 0, 39, 0
6, 288960, Note_on_c, 0, 34, 102
6, 289152, Note_on_c, 0, 34, 0
6, 289152, Note_on_c, 0, 34, 72
6, 289344, Note_on_c, 0, 34, 0
6, 289344, Note_on_c, 0, 39, 102
6, 289536, Note_on_c, 0, 39, 0
6, 289728, Note_on_c, 0, 34, 102
6, 289920, Note_on_c, 0, 34, 0
6, 289920, Note_on_c, 0, 34, 102
6, 290112, Note_on_c, 0, 34, 0
6, 290112, Note_on_c, 0, 39, 58
6, 290304, Note_on_c, 0, 39, 0
6, 290304, Note_on_c, 0, 47, 62
6, 290496, Note_on_c, 0, 47, 0
6, 290496, Note_on_c, 0, 39, 60
6, 290688, Note_on_c, 0, 39, 0
6, 290688, Note_on_c, 0, 47, 67
6, 290880, Note_on_c, 0, 47, 0
6, 290880, Note_on_c, 0, 39, 61
6, 291072, Note_on_c, 0, 39, 0
6, 291072, Note_on_c, 0, 47, 67
6, 291264, Note_on_c, 0, 47, 0
6, 291264, Note_on_c, 0, 39, 60
6, 291456, Note_on_c, 0, 39, 0
6, 291456, Note_on_c, 0, 47, 68
6, 291648, Note_on_c, 0, 47, 0
6, 291648, Note_on_c, 0, 39, 63
6, 291840, Note_on_c, 0, 39, 0
6, 291840, Note_on_c, 0, 43, 72
6, 292032, Note_on_c, 0, 43, 0
6, 292032, Note_on_c, 0, 36, 63
6, 292224, Note_on_c, 0, 36, 0
6, 292224, Note_on_c, 0, 43, 72
6, 292416, Note_on_c, 0, 43, 0
6, 292416, Note_on_c, 0, 36, 60
6, 292608, Note_on_c, 0, 36, 0
6, 292608, Note_on_c, 0, 43, 70
6, 292800, Note_on_c, 0, 43, 0
6, 292800, Note_on_c, 0, 36, 102
6, 292992, Note_on_c, 0, 36, 0
6, 292992, Note_on_c, 0, 34, 102
6, 293184, Note_on_c, 0, 34, 0
6, 293184, Note_on_c, 0, 39, 102
6, 293280, Note_on_c, 0, 39, 0
6, 293952, Note_on_c, 0, 39, 102
6, 294048, Note_on_c, 0, 39, 0
6, 294720, Note_on_c, 0, 39, 102
6, 294816, Note_on_c, 0, 39, 0
6, 295488, Note_on_c, 0, 39, 102
6, 295584, Note_on_c, 0, 39, 0
6, 296256, Note_on_c, 0, 39, 102
6, 296367, Note_on_c, 0, 39, 0
6, 296640, Note_on_c, 0, 39, 102
6, 296928, Note_on_c, 0, 39, 0
6, 296928, Note_on_c, 0, 39, 102
6, 297024, Note_on_c, 0, 39, 0
6, 297024, Note_on_c, 0, 39, 102
6, 297408, Note_on_c, 0, 39, 0
6, 297408, Note_on_c, 0, 39, 102
6, 297792, Note_on_c, 0, 39, 0
6, 297792, Note_on_c, 0, 39, 102
6, 298176, Note_on_c, 0, 39, 0
6, 298560, Note_on_c, 0, 39, 102
6, 298944, Note_on_c, 0, 39, 0
6, 299328, Note_on_c, 0, 39, 102
6, 299712, Note_on_c, 0, 39, 61
6, 299760, Note_on_c, 0, 39, 0
6, 299766, Note_on_c, 0, 41, 60
6, 299814, Note_on_c, 0, 41, 0
6, 299821, Note_on_c, 0, 43, 63
6, 299869, Note_on_c, 0, 43, 0
6, 299877, Note_on_c, 0, 44, 61
6, 299904, Note_on_c, 0, 39, 0
6, 299925, Note_on_c, 0, 44, 0
6, 299931, Note_on_c, 0, 46, 66
6, 299979, Note_on_c, 0, 46, 0
6, 299986, Note_on_c, 0, 48, 63
6, 300034, Note_on_c, 0, 48, 0
6, 300042, Note_on_c, 0, 50, 69
6, 300090, Note_on_c, 0, 50, 0
6, 300096, Note_on_c, 0, 51, 102
6, 300480, Note_on_c, 0, 51, 0
6, 300864, Note_on_c, 0, 51, 102
6, 301056, Note_on_c, 0, 51, 0
6, 301632, Note_on_c, 0, 27, 67
6, 301632, Note_on_c, 0, 39, 117
6, 302196, Note_on_c, 0, 27, 0
6, 302205, Note_on_c, 0, 39, 0
6, 302208, Note_on_c, 0, 27, 67
6, 302208, Note_on_c, 0, 39, 117
6, 302388, Note_on_c, 0, 27, 0
6, 302397, Note_on_c, 0, 39, 0
6, 302400, Note_on_c, 0, 27, 67
6, 302400, Note_on_c, 0, 39, 117
6, 303168, Note_on_c, 0, 39, 0
6, 303168, Note_on_c, 0, 27, 0
6, 303168, End_track
7, 0, Start_track
7, 0, MIDI_port, 0
7, 0, Title_t, "Piccolo"
7, 0, Program_c, 1, 72
7, 0, Control_c, 1, 7, 102
7, 0, Control_c, 1, 10, 90
7, 96, Control_c, 1, 7, 102
7, 16800, Note_on_c, 1, 82, 56
7, 16800, Note_on_c, 1, 85, 56
7, 16896, Note_on_c, 1, 85, 0
7, 16896, Note_on_c, 1, 82, 0
7, 16896, Note_on_c, 1, 85, 56
7, 16896, Note_on_c, 1, 82, 56
7, 17088, Note_on_c, 1, 82, 0
7, 17088, Note_on_c, 1, 85, 0
7, 17088, Note_on_c, 1, 79, 56
7, 17088, Note_on_c, 1, 82, 56
7, 17280, Note_on_c, 1, 82, 0
7, 17280, Note_on_c, 1, 79, 0
7, 17280, Note_on_c, 1, 87, 56
7, 17280, Note_on_c, 1, 84, 56
7, 17568, Note_on_c, 1, 84, 0
7, 17568, Note_on_c, 1, 87, 0
7, 40224, Note_on_c, 1, 75, 78
7, 40320, Note_on_c, 1, 75, 0
7, 40320, Note_on_c, 1, 78, 78
7, 40512, Note_on_c, 1, 78, 0
7, 40512, Note_on_c, 1, 79, 78
7, 40704, Note_on_c, 1, 79, 0
7, 72480, Note_on_c, 1, 71, 78
7, 72672, Note_on_c, 1, 71, 0
7, 72672, Note_on_c, 1, 72, 78
7, 72864, Note_on_c, 1, 72, 0
7, 72864, Note_on_c, 1, 73, 78
7, 72960, Note_on_c, 1, 73, 0
7, 72960, Note_on_c, 1, 72, 78
7, 73056, Note_on_c, 1, 72, 0
7, 73056, Note_on_c, 1, 73, 78
7, 73152, Note_on_c, 1, 73, 0
7, 73248, Note_on_c, 1, 74, 78
7, 73344, Note_on_c, 1, 74, 0
7, 73344, Note_on_c, 1, 73, 78
7, 73440, Note_on_c, 1, 73, 0
7, 73440, Note_on_c, 1, 74, 78
7, 73536, Note_on_c, 1, 74, 0
7, 73632, Note_on_c, 1, 75, 78
7, 73728, Note_on_c, 1, 75, 0
7, 73728, Note_on_c, 1, 74, 78
7, 73824, Note_on_c, 1, 74, 0
7, 73824, Note_on_c, 1, 75, 78
7, 73920, Note_on_c, 1, 75, 0
7, 74016, Note_on_c, 1, 76, 78
7, 74112, Note_on_c, 1, 76, 0
7, 74112, Note_on_c, 1, 75, 78
7, 74208, Note_on_c, 1, 75, 0
7, 74208, Note_on_c, 1, 76, 78
7, 74400, Note_on_c, 1, 76, 0
7, 74400, Note_on_c, 1, 77, 78
7, 74496, Note_on_c, 1, 77, 0
7, 74496, Note_on_c, 1, 78, 78
7, 74592, Note_on_c, 1, 78, 0
7, 90672, Note_on_c, 1, 72, 78
7, 90720, Note_on_c, 1, 72, 0
7, 90720, Note_on_c, 1, 75, 78
7, 90768, Note_on_c, 1, 75, 0
7, 90768, Note_on_c, 1, 77, 78
7, 90816, Note_on_c, 1, 77, 0
7, 90816, Note_on_c, 1, 78, 78
7, 90912, Note_on_c, 1, 78, 0
7, 91056, Note_on_c, 1, 75, 78
7, 91104, Note_on_c, 1, 75, 0
7, 91104, Note_on_c, 1, 78, 78
7, 91152, Note_on_c, 1, 78, 0
7, 91152, Note_on_c, 1, 80, 78
7, 91200, Note_on_c, 1, 80, 0
7, 91200, Note_on_c, 1, 81, 78
7, 91296, Note_on_c, 1, 81, 0
7, 91440, Note_on_c, 1, 78, 78
7, 91488, Note_on_c, 1, 78, 0
7, 91488, Note_on_c, 1, 81, 78
7, 91536, Note_on_c, 1, 81, 0
7, 91536, Note_on_c, 1, 83, 78
7, 91584, Note_on_c, 1, 83, 0
7, 91584, Note_on_c, 1, 84, 78
7, 91680, Note_on_c, 1, 84, 0
7, 91680, Note_on_c, 1, 81, 78
7, 91776, Note_on_c, 1, 81, 0
7, 91776, Note_on_c, 1, 78, 78
7, 91872, Note_on_c, 1, 78, 0
7, 91872, Note_on_c, 1, 75, 78
7, 91968, Note_on_c, 1, 75, 0
7, 91968, Note_on_c, 1, 72, 78
7, 92064, Note_on_c, 1, 72, 0
7, 92064, Note_on_c, 1, 69, 78
7, 92160, Note_on_c, 1, 69, 0
7, 92160, Note_on_c, 1, 66, 78
7, 92256, Note_on_c, 1, 66, 0
7, 92256, Note_on_c, 1, 63, 78
7, 92352, Note_on_c, 1, 63, 0
7, 97392, Note_on_c, 1, 70, 78
7, 97440, Note_on_c, 1, 70, 0
7, 97440, Note_on_c, 1, 71, 78
7, 97488, Note_on_c, 1, 71, 0
7, 97488, Note_on_c, 1, 74, 78
7, 97536, Note_on_c, 1, 74, 0
7, 97536, Note_on_c, 1, 77, 78
7, 97584, Note_on_c, 1, 77, 0
7, 97584, Note_on_c, 1, 75, 78
7, 97632, Note_on_c, 1, 75, 0
7, 97776, Note_on_c, 1, 74, 78
7, 97824, Note_on_c, 1, 74, 0
7, 97824, Note_on_c, 1, 75, 78
7, 97872, Note_on_c, 1, 75, 0
7, 97872, Note_on_c, 1, 77, 78
7, 97920, Note_on_c, 1, 77, 0
7, 97920, Note_on_c, 1, 80, 78
7, 97968, Note_on_c, 1, 80, 0
7, 97968, Note_on_c, 1, 78, 78
7, 98016, Note_on_c, 1, 78, 0
7, 98160, Note_on_c, 1, 77, 78
7, 98208, Note_on_c, 1, 77, 0
7, 98208, Note_on_c, 1, 78, 78
7, 98256, Note_on_c, 1, 78, 0
7, 98256, Note_on_c, 1, 80, 78
7, 98304, Note_on_c, 1, 80, 0
7, 98304, Note_on_c, 1, 81, 78
7, 99072, Note_on_c, 1, 81, 78
7, 99168, Note_on_c, 1, 81, 0
7, 99168, Note_on_c, 1, 81, 0
7, 99168, Note_on_c, 1, 78, 78
7, 99264, Note_on_c, 1, 78, 0
7, 99264, Note_on_c, 1, 79, 78
7, 99360, Note_on_c, 1, 79, 0
7, 99360, Note_on_c, 1, 80, 78
7, 99456, Note_on_c, 1, 80, 0
7, 99456, Note_on_c, 1, 81, 78
7, 99552, Note_on_c, 1, 81, 0
7, 99552, Note_on_c, 1, 83, 78
7, 99648, Note_on_c, 1, 83, 0
7, 99648, Note_on_c, 1, 84, 78
7, 99744, Note_on_c, 1, 84, 0
7, 99744, Note_on_c, 1, 85, 78
7, 99840, Note_on_c, 1, 85, 0
7, 99840, Note_on_c, 1, 86, 78
7, 99936, Note_on_c, 1, 86, 0
7, 99936, Note_on_c, 1, 85, 78
7, 100032, Note_on_c, 1, 85, 0
7, 100032, Note_on_c, 1, 84, 78
7, 100128, Note_on_c, 1, 84, 0
7, 100128, Note_on_c, 1, 82, 78
7, 100224, Note_on_c, 1, 82, 0
7, 100224, Note_on_c, 1, 81, 78
7, 100320, Note_on_c, 1, 81, 0
7, 100320, Note_on_c, 1, 79, 78
7, 100416, Note_on_c, 1, 79, 0
7, 100416, Note_on_c, 1, 78, 78
7, 100512, Note_on_c, 1, 78, 0
7, 100512, Note_on_c, 1, 76, 78
7, 100608, Note_on_c, 1, 76, 0
7, 100608, Note_on_c, 1, 74, 78
7, 100704, Note_on_c, 1, 74, 0
7, 100704, Note_on_c, 1, 73, 78
7, 100800, Note_on_c, 1, 73, 0
7, 100800, Note_on_c, 1, 71, 78
7, 100896, Note_on_c, 1, 71, 0
7, 100896, Note_on_c, 1, 70, 78
7, 100992, Note_on_c, 1, 70, 0
7, 100992, Note_on_c, 1, 69, 78
7, 101088, Note_on_c, 1, 69, 0
7, 101088, Note_on_c, 1, 71, 78
7, 101184, Note_on_c, 1, 71, 0
7, 101184, Note_on_c, 1, 72, 78
7, 101280, Note_on_c, 1, 72, 0
7, 101280, Note_on_c, 1, 73, 78
7, 101376, Note_on_c, 1, 73, 0
7, 101376, Note_on_c, 1, 74, 78
7, 101472, Note_on_c, 1, 74, 0
7, 101472, Note_on_c, 1, 73, 78
7, 101568, Note_on_c, 1, 73, 0
7, 101568, Note_on_c, 1, 71, 78
7, 101664, Note_on_c, 1, 71, 0
7, 101664, Note_on_c, 1, 70, 78
7, 101760, Note_on_c, 1, 70, 0
7, 101760, Note_on_c, 1, 69, 78
7, 101856, Note_on_c, 1, 69, 0
7, 173760, Note_on_c, 1, 67, 78
7, 173856, Note_on_c, 1, 67, 0
7, 173856, Note_on_c, 1, 68, 78
7, 173952, Note_on_c, 1, 68, 0
7, 173952, Note_on_c, 1, 70, 78
7, 174048, Note_on_c, 1, 70, 0
7, 175296, Note_on_c, 1, 73, 78
7, 175392, Note_on_c, 1, 73, 0
7, 175392, Note_on_c, 1, 75, 78
7, 175488, Note_on_c, 1, 75, 0
7, 175488, Note_on_c, 1, 76, 78
7, 175584, Note_on_c, 1, 76, 0
7, 176832, Note_on_c, 1, 70, 78
7, 176928, Note_on_c, 1, 70, 0
7, 176928, Note_on_c, 1, 71, 78
7, 177024, Note_on_c, 1, 71, 0
7, 177024, Note_on_c, 1, 73, 78
7, 177120, Note_on_c, 1, 73, 0
7, 177600, Note_on_c, 1, 70, 78
7, 177696, Note_on_c, 1, 70, 0
7, 177696, Note_on_c, 1, 71, 78
7, 177792, Note_on_c, 1, 71, 0
7, 177792, Note_on_c, 1, 73, 78
7, 177888, Note_on_c, 1, 73, 0
7, 178368, Note_on_c, 1, 71, 78
7, 178464, Note_on_c, 1, 71, 0
7, 178464, Note_on_c, 1, 73, 78
7, 178560, Note_on_c, 1, 73, 0
7, 178560, Note_on_c, 1, 74, 78
7, 178656, Note_on_c, 1, 74, 0
7, 179136, Note_on_c, 1, 72, 78
7, 179232, Note_on_c, 1, 72, 0
7, 179232, Note_on_c, 1, 74, 78
7, 179328, Note_on_c, 1, 74, 0
7, 179328, Note_on_c, 1, 75, 78
7, 179424, Note_on_c, 1, 75, 0
7, 180384, Note_on_c, 1, 78, 78
7, 180432, Note_on_c, 1, 78, 0
7, 180480, Note_on_c, 1, 77, 78
7, 180528, Note_on_c, 1, 77, 0
7, 180528, Note_on_c, 1, 78, 78
7, 180576, Note_on_c, 1, 78, 0
7, 180576, Note_on_c, 1, 78, 78
7, 180672, Note_on_c, 1, 78, 0
7, 180672, Note_on_c, 1, 77, 78
7, 180720, Note_on_c, 1, 77, 0
7, 180720, Note_on_c, 1, 78, 78
7, 180768, Note_on_c, 1, 78, 0
7, 180768, Note_on_c, 1, 78, 78
7, 180864, Note_on_c, 1, 78, 0
7, 180864, Note_on_c, 1, 77, 78
7, 180912, Note_on_c, 1, 77, 0
7, 180912, Note_on_c, 1, 78, 78
7, 180960, Note_on_c, 1, 78, 0
7, 180960, Note_on_c, 1, 78, 78
7, 181056, Note_on_c, 1, 78, 0
7, 181056, Note_on_c, 1, 77, 78
7, 181104, Note_on_c, 1, 77, 0
7, 181104, Note_on_c, 1, 78, 78
7, 181152, Note_on_c, 1, 78, 0
7, 181152, Note_on_c, 1, 78, 78
7, 181248, Note_on_c, 1, 78, 0
7, 181248, Note_on_c, 1, 74, 78
7, 181296, Note_on_c, 1, 74, 0
7, 181296, Note_on_c, 1, 75, 78
7, 181344, Note_on_c, 1, 75, 0
7, 181344, Note_on_c, 1, 75, 78
7, 181440, Note_on_c, 1, 75, 0
7, 181440, Note_on_c, 1, 69, 78
7, 181488, Note_on_c, 1, 69, 0
7, 181488, Note_on_c, 1, 70, 78
7, 181536, Note_on_c, 1, 70, 0
7, 181536, Note_on_c, 1, 70, 78
7, 181632, Note_on_c, 1, 70, 0
7, 185712, Note_on_c, 1, 70, 78
7, 185760, Note_on_c, 1, 70, 0
7, 185760, Note_on_c, 1, 71, 78
7, 185808, Note_on_c, 1, 71, 0
7, 185808, Note_on_c, 1, 74, 78
7, 185856, Note_on_c, 1, 74, 0
7, 185856, Note_on_c, 1, 77, 78
7, 185904, Note_on_c, 1, 77, 0
7, 185904, Note_on_c, 1, 75, 78
7, 185952, Note_on_c, 1, 75, 0
7, 186096, Note_on_c, 1, 74, 78
7, 186144, Note_on_c, 1, 74, 0
7, 186144, Note_on_c, 1, 75, 78
7, 186192, Note_on_c, 1, 75, 0
7, 186192, Note_on_c, 1, 77, 78
7, 186240, Note_on_c, 1, 77, 0
7, 186240, Note_on_c, 1, 80, 78
7, 186288, Note_on_c, 1, 80, 0
7, 186288, Note_on_c, 1, 78, 78
7, 186336, Note_on_c, 1, 78, 0
7, 186336, Note_on_c, 1, 78, 78
7, 186528, Note_on_c, 1, 78, 0
7, 186528, Note_on_c, 1, 78, 78
7, 186720, Note_on_c, 1, 78, 0
7, 186720, Note_on_c, 1, 78, 78
7, 186912, Note_on_c, 1, 78, 0
7, 186912, Note_on_c, 1, 78, 78
7, 187104, Note_on_c, 1, 78, 0
7, 187104, Note_on_c, 1, 77, 78
7, 187200, Note_on_c, 1, 77, 0
7, 187200, Note_on_c, 1, 80, 78
7, 187296, Note_on_c, 1, 80, 0
7, 187296, Note_on_c, 1, 82, 78
7, 187392, Note_on_c, 1, 82, 0
7, 187392, Note_on_c, 1, 83, 78
7, 187488, Note_on_c, 1, 83, 0
7, 187488, Note_on_c, 1, 82, 78
7, 187584, Note_on_c, 1, 82, 0
7, 187584, Note_on_c, 1, 80, 78
7, 187680, Note_on_c, 1, 80, 0
7, 187680, Note_on_c, 1, 79, 78
7, 187776, Note_on_c, 1, 79, 0
7, 187776, Note_on_c, 1, 78, 78
7, 187872, Note_on_c, 1, 78, 0
7, 187872, Note_on_c, 1, 76, 78
7, 187968, Note_on_c, 1, 76, 0
7, 187968, Note_on_c, 1, 75, 78
7, 188064, Note_on_c, 1, 75, 0
7, 188064, Note_on_c, 1, 73, 78
7, 188160, Note_on_c, 1, 73, 0
7, 188160, Note_on_c, 1, 71, 78
7, 188256, Note_on_c, 1, 71, 0
7, 233472, Note_on_c, 1, 68, 78
7, 233664, Note_on_c, 1, 68, 0
7, 233664, Note_on_c, 1, 70, 78
7, 233856, Note_on_c, 1, 70, 0
7, 233856, Note_on_c, 1, 72, 78
7, 233952, Note_on_c, 1, 72, 0
7, 234240, Note_on_c, 1, 70, 78
7, 234240, Note_on_c, 1, 62, 78
7, 234432, Note_on_c, 1, 62, 0
7, 234432, Note_on_c, 1, 70, 0
7, 234432, Note_on_c, 1, 72, 78
7, 234624, Note_on_c, 1, 72, 0
7, 234624, Note_on_c, 1, 74, 78
7, 234720, Note_on_c, 1, 74, 0
7, 235008, Note_on_c, 1, 72, 78
7, 235200, Note_on_c, 1, 72, 0
7, 235200, Note_on_c, 1, 74, 78
7, 235392, Note_on_c, 1, 74, 0
7, 235392, Note_on_c, 1, 75, 78
7, 235488, Note_on_c, 1, 75, 0
7, 235776, Note_on_c, 1, 73, 78
7, 235968, Note_on_c, 1, 73, 0
7, 235968, Note_on_c, 1, 75, 78
7, 236160, Note_on_c, 1, 75, 0
7, 236160, Note_on_c, 1, 77, 78
7, 236256, Note_on_c, 1, 77, 0
7, 236256, End_track
8, 0, Start_track
8, 0, MIDI_port, 0
8, 0, Title_t, "Flutes"
8, 0, Program_c, 2, 73
8, 0, Control_c, 2, 7, 102
8, 0, Control_c, 2, 10, 39
8, 96, Control_c, 2, 7, 102
8, 12768, Note_on_c, 2, 71, 78
8, 12768, Note_on_c, 2, 79, 78
8, 12864, Note_on_c, 2, 79, 0
8, 12864, Note_on_c, 2, 71, 0
8, 12864, Note_on_c, 2, 79, 78
8, 12864, Note_on_c, 2, 71, 78
8, 13056, Note_on_c, 2, 71, 0
8, 13056, Note_on_c, 2, 79, 0
8, 13056, Note_on_c, 2, 71, 78
8, 13056, Note_on_c, 2, 79, 78
8, 13152, Note_on_c, 2, 79, 0
8, 13152, Note_on_c, 2, 71, 0
8, 13152, Note_on_c, 2, 71, 78
8, 13152, Note_on_c, 2, 79, 78
8, 13248, Note_on_c, 2, 79, 0
8, 13248, Note_on_c, 2, 71, 0
8, 13248, Note_on_c, 2, 74, 68
8, 13248, Note_on_c, 2, 77, 71
8, 13632, Note_on_c, 2, 77, 0
8, 13632, Note_on_c, 2, 74, 0
8, 13632, Note_on_c, 2, 74, 68
8, 13632, Note_on_c, 2, 77, 71
8, 13824, Note_on_c, 2, 77, 0
8, 13824, Note_on_c, 2, 74, 0
8, 13824, Note_on_c, 2, 77, 78
8, 13824, Note_on_c, 2, 80, 78
8, 14592, Note_on_c, 2, 80, 0
8, 14592, Note_on_c, 2, 77, 0
8, 15648, Note_on_c, 2, 82, 78
8, 15648, Note_on_c, 2, 79, 78
8, 15744, Note_on_c, 2, 79, 0
8, 15744, Note_on_c, 2, 82, 0
8, 15744, Note_on_c, 2, 79, 78
8, 15744, Note_on_c, 2, 82, 78
8, 15936, Note_on_c, 2, 82, 0
8, 15936, Note_on_c, 2, 79, 0
8, 15936, Note_on_c, 2, 79, 85
8, 15936, Note_on_c, 2, 75, 78
8, 16128, Note_on_c, 2, 75, 0
8, 16128, Note_on_c, 2, 79, 0
8, 16128, Note_on_c, 2, 80, 78
8, 16128, Note_on_c, 2, 84, 78
8, 16416, Note_on_c, 2, 84, 0
8, 16416, Note_on_c, 2, 80, 0
8, 16800, Note_on_c, 2, 70, 56
8, 16800, Note_on_c, 2, 73, 56
8, 16896, Note_on_c, 2, 73, 0
8, 16896, Note_on_c, 2, 70, 0
8, 16896, Note_on_c, 2, 73, 56
8, 16896, Note_on_c, 2, 70, 56
8, 17088, Note_on_c, 2, 70, 0
8, 17088, Note_on_c, 2, 73, 0
8, 17088, Note_on_c, 2, 67, 56
8, 17088, Note_on_c, 2, 70, 56
8, 17280, Note_on_c, 2, 70, 0
8, 17280, Note_on_c, 2, 67, 0
8, 17280, Note_on_c, 2, 75, 56
8, 17280, Note_on_c, 2, 72, 56
8, 17568, Note_on_c, 2, 72, 0
8, 17568, Note_on_c, 2, 75, 0
8, 18048, Note_on_c, 2, 89, 78
8, 18048, Note_on_c, 2, 85, 78
8, 18432, Note_on_c, 2, 85, 0
8, 18432, Note_on_c, 2, 89, 0
8, 18432, Note_on_c, 2, 85, 78
8, 18432, Note_on_c, 2, 89, 78
8, 18816, Note_on_c, 2, 89, 0
8, 18816, Note_on_c, 2, 85, 0
8, 18816, Note_on_c, 2, 89, 78
8, 18816, Note_on_c, 2, 85, 78
8, 19008, Note_on_c, 2, 85, 0
8, 19008, Note_on_c, 2, 89, 0
8, 19200, Note_on_c, 2, 89, 78
8, 19200, Note_on_c, 2, 92, 78
8, 19392, Note_on_c, 2, 92, 0
8, 19392, Note_on_c, 2, 89, 0
8, 19392, Note_on_c, 2, 91, 78
8, 19392, Note_on_c, 2, 89, 78
8, 19776, Note_on_c, 2, 89, 0
8, 19776, Note_on_c, 2, 91, 0
8, 19776, Note_on_c, 2, 91, 78
8, 19776, Note_on_c, 2, 89, 78
8, 19968, Note_on_c, 2, 89, 0
8, 19968, Note_on_c, 2, 91, 78
8, 19968, Note_on_c, 2, 89, 78
8, 20160, Note_on_c, 2, 89, 0
8, 20160, Note_on_c, 2, 91, 0
8, 20160, Note_on_c, 2, 84, 78
8, 20256, Note_on_c, 2, 84, 0
8, 20544, Note_on_c, 2, 91, 0
8, 24960, Note_on_c, 2, 83, 78
8, 25248, Note_on_c, 2, 83, 0
8, 25248, Note_on_c, 2, 82, 78
8, 25344, Note_on_c, 2, 82, 0
8, 25344, Note_on_c, 2, 81, 78
8, 25440, Note_on_c, 2, 81, 0
8, 25440, Note_on_c, 2, 82, 78
8, 25536, Note_on_c, 2, 82, 0
8, 25536, Note_on_c, 2, 83, 78
8, 25632, Note_on_c, 2, 83, 0
8, 25632, Note_on_c, 2, 84, 78
8, 25728, Note_on_c, 2, 84, 0
8, 25728, Note_on_c, 2, 85, 78
8, 25824, Note_on_c, 2, 85, 0
8, 25824, Note_on_c, 2, 86, 78
8, 25920, Note_on_c, 2, 86, 0
8, 25920, Note_on_c, 2, 87, 78
8, 26016, Note_on_c, 2, 87, 0
8, 27168, Note_on_c, 2, 82, 78
8, 27264, Note_on_c, 2, 82, 0
8, 27264, Note_on_c, 2, 81, 78
8, 27360, Note_on_c, 2, 81, 0
8, 27360, Note_on_c, 2, 82, 78
8, 27456, Note_on_c, 2, 82, 0
8, 27456, Note_on_c, 2, 83, 78
8, 27552, Note_on_c, 2, 83, 0
8, 27552, Note_on_c, 2, 85, 78
8, 27648, Note_on_c, 2, 85, 0
8, 27648, Note_on_c, 2, 87, 78
8, 27744, Note_on_c, 2, 87, 0
8, 27744, Note_on_c, 2, 85, 78
8, 27840, Note_on_c, 2, 85, 0
8, 27840, Note_on_c, 2, 83, 78
8, 27936, Note_on_c, 2, 83, 0
8, 27936, Note_on_c, 2, 82, 78
8, 28032, Note_on_c, 2, 82, 0
8, 28032, Note_on_c, 2, 81, 78
8, 28128, Note_on_c, 2, 81, 0
8, 28128, Note_on_c, 2, 82, 78
8, 28224, Note_on_c, 2, 82, 0
8, 28224, Note_on_c, 2, 83, 78
8, 28320, Note_on_c, 2, 83, 0
8, 29472, Note_on_c, 2, 83, 78
8, 29568, Note_on_c, 2, 83, 0
8, 29568, Note_on_c, 2, 82, 78
8, 29664, Note_on_c, 2, 82, 0
8, 29664, Note_on_c, 2, 83, 78
8, 29760, Note_on_c, 2, 83, 0
8, 29760, Note_on_c, 2, 85, 78
8, 29856, Note_on_c, 2, 85, 0
8, 29856, Note_on_c, 2, 87, 78
8, 29952, Note_on_c, 2, 87, 0
8, 29952, Note_on_c, 2, 88, 78
8, 30048, Note_on_c, 2, 88, 0
8, 30048, Note_on_c, 2, 86, 78
8, 30144, Note_on_c, 2, 86, 0
8, 30144, Note_on_c, 2, 85, 78
8, 30240, Note_on_c, 2, 85, 0
8, 30240, Note_on_c, 2, 83, 78
8, 30336, Note_on_c, 2, 83, 0
8, 30336, Note_on_c, 2, 82, 78
8, 30432, Note_on_c, 2, 82, 0
8, 30432, Note_on_c, 2, 83, 78
8, 30528, Note_on_c, 2, 83, 0
8, 30528, Note_on_c, 2, 85, 78
8, 30624, Note_on_c, 2, 85, 0
8, 30912, Note_on_c, 2, 86, 78
8, 30912, Note_on_c, 2, 74, 78
8, 31056, Note_on_c, 2, 74, 0
8, 31056, Note_on_c, 2, 86, 0
8, 31056, Note_on_c, 2, 85, 78
8, 31056, Note_on_c, 2, 73, 78
8, 31104, Note_on_c, 2, 73, 0
8, 31104, Note_on_c, 2, 85, 0
8, 31104, Note_on_c, 2, 78, 78
8, 31200, Note_on_c, 2, 78, 0
8, 31488, Note_on_c, 2, 76, 78
8, 31488, Note_on_c, 2, 88, 78
8, 31632, Note_on_c, 2, 88, 0
8, 31632, Note_on_c, 2, 76, 0
8, 31632, Note_on_c, 2, 86, 78
8, 31632, Note_on_c, 2, 74, 78
8, 31680, Note_on_c, 2, 74, 0
8, 31680, Note_on_c, 2, 86, 0
8, 31680, Note_on_c, 2, 79, 78
8, 31776, Note_on_c, 2, 79, 0
8, 32064, Note_on_c, 2, 89, 78
8, 32064, Note_on_c, 2, 77, 78
8, 32208, Note_on_c, 2, 77, 0
8, 32208, Note_on_c, 2, 89, 0
8, 32208, Note_on_c, 2, 88, 78
8, 32208, Note_on_c, 2, 76, 78
8, 32256, Note_on_c, 2, 76, 0
8, 32256, Note_on_c, 2, 88, 0
8, 32256, Note_on_c, 2, 76, 78
8, 32352, Note_on_c, 2, 76, 0
8, 32448, Note_on_c, 2, 79, 78
8, 32448, Note_on_c, 2, 91, 78
8, 32592, Note_on_c, 2, 91, 0
8, 32592, Note_on_c, 2, 79, 0
8, 32592, Note_on_c, 2, 90, 78
8, 32592, Note_on_c, 2, 78, 78
8, 32640, Note_on_c, 2, 78, 0
8, 32640, Note_on_c, 2, 90, 0
8, 32640, Note_on_c, 2, 78, 78
8, 32736, Note_on_c, 2, 78, 0
8, 32832, Note_on_c, 2, 81, 78
8, 32832, Note_on_c, 2, 93, 78
8, 32880, Note_on_c, 2, 93, 0
8, 32880, Note_on_c, 2, 81, 0
8, 32880, Note_on_c, 2, 92, 78
8, 32880, Note_on_c, 2, 80, 78
8, 32928, Note_on_c, 2, 80, 0
8, 32928, Note_on_c, 2, 92, 0
8, 32928, Note_on_c, 2, 76, 78
8, 32928, Note_on_c, 2, 88, 78
8, 32976, Note_on_c, 2, 88, 0
8, 32976, Note_on_c, 2, 76, 0
8, 32976, Note_on_c, 2, 73, 78
8, 32976, Note_on_c, 2, 85, 78
8, 33024, Note_on_c, 2, 85, 0
8, 33024, Note_on_c, 2, 73, 0
8, 33024, Note_on_c, 2, 81, 78
8, 33072, Note_on_c, 2, 81, 0
8, 33072, Note_on_c, 2, 80, 78
8, 33120, Note_on_c, 2, 80, 0
8, 33120, Note_on_c, 2, 76, 78
8, 33168, Note_on_c, 2, 76, 0
8, 33168, Note_on_c, 2, 73, 78
8, 33216, Note_on_c, 2, 73, 0
8, 33216, Note_on_c, 2, 69, 78
8, 33264, Note_on_c, 2, 69, 0
8, 33264, Note_on_c, 2, 68, 78
8, 33312, Note_on_c, 2, 68, 0
8, 33840, Note_on_c, 2, 72, 78
8, 33888, Note_on_c, 2, 72, 0
8, 33888, Note_on_c, 2, 73, 78
8, 33936, Note_on_c, 2, 73, 0
8, 33936, Note_on_c, 2, 75, 78
8, 33984, Note_on_c, 2, 75, 0
8, 33984, Note_on_c, 2, 76, 78
8, 34032, Note_on_c, 2, 76, 0
8, 34032, Note_on_c, 2, 73, 78
8, 34080, Note_on_c, 2, 73, 0
8, 34080, Note_on_c, 2, 80, 78
8, 34128, Note_on_c, 2, 80, 0
8, 34128, Note_on_c, 2, 73, 78
8, 34176, Note_on_c, 2, 73, 0
8, 34176, Note_on_c, 2, 76, 78
8, 34176, Note_on_c, 2, 85, 78
8, 34272, Note_on_c, 2, 85, 0
8, 34272, Note_on_c, 2, 76, 0
8, 34752, Note_on_c, 2, 81, 78
8, 35040, Note_on_c, 2, 81, 0
8, 35040, Note_on_c, 2, 80, 78
8, 35136, Note_on_c, 2, 80, 0
8, 35136, Note_on_c, 2, 76, 78
8, 35232, Note_on_c, 2, 76, 0
8, 35232, Note_on_c, 2, 75, 78
8, 35328, Note_on_c, 2, 75, 0
8, 35328, Note_on_c, 2, 73, 78
8, 35424, Note_on_c, 2, 73, 0
8, 35424, Note_on_c, 2, 77, 78
8, 35520, Note_on_c, 2, 77, 0
8, 35520, Note_on_c, 2, 78, 78
8, 35616, Note_on_c, 2, 78, 0
8, 35616, Note_on_c, 2, 80, 78
8, 35712, Note_on_c, 2, 80, 0
8, 35712, Note_on_c, 2, 81, 78
8, 35760, Note_on_c, 2, 81, 0
8, 35760, Note_on_c, 2, 78, 78
8, 35808, Note_on_c, 2, 78, 0
8, 35808, Note_on_c, 2, 73, 78
8, 35856, Note_on_c, 2, 73, 0
8, 35856, Note_on_c, 2, 69, 78
8, 35904, Note_on_c, 2, 69, 0
8, 35952, Note_on_c, 2, 65, 78
8, 36000, Note_on_c, 2, 65, 0
8, 36000, Note_on_c, 2, 66, 78
8, 36048, Note_on_c, 2, 66, 0
8, 36048, Note_on_c, 2, 68, 78
8, 36096, Note_on_c, 2, 68, 0
8, 36096, Note_on_c, 2, 69, 78
8, 36144, Note_on_c, 2, 69, 0
8, 36144, Note_on_c, 2, 77, 78
8, 36144, Note_on_c, 2, 67, 78
8, 36192, Note_on_c, 2, 67, 0
8, 36192, Note_on_c, 2, 77, 0
8, 36192, Note_on_c, 2, 78, 78
8, 36192, Note_on_c, 2, 69, 78
8, 36240, Note_on_c, 2, 69, 0
8, 36240, Note_on_c, 2, 78, 0
8, 36240, Note_on_c, 2, 80, 78
8, 36240, Note_on_c, 2, 73, 78
8, 36288, Note_on_c, 2, 73, 0
8, 36288, Note_on_c, 2, 80, 0
8, 36288, Note_on_c, 2, 81, 78
8, 36288, Note_on_c, 2, 78, 78
8, 36336, Note_on_c, 2, 78, 0
8, 36336, Note_on_c, 2, 81, 0
8, 36336, Note_on_c, 2, 78, 78
8, 36384, Note_on_c, 2, 78, 0
8, 36384, Note_on_c, 2, 85, 78
8, 36384, Note_on_c, 2, 78, 78
8, 36432, Note_on_c, 2, 78, 0
8, 36432, Note_on_c, 2, 85, 0
8, 36432, Note_on_c, 2, 78, 78
8, 36480, Note_on_c, 2, 78, 0
8, 36480, Note_on_c, 2, 90, 78
8, 36576, Note_on_c, 2, 90, 0
8, 37728, Note_on_c, 2, 82, 78
8, 37824, Note_on_c, 2, 82, 0
8, 37824, Note_on_c, 2, 83, 78
8, 37920, Note_on_c, 2, 83, 0
8, 37920, Note_on_c, 2, 85, 78
8, 38016, Note_on_c, 2, 85, 0
8, 38016, Note_on_c, 2, 86, 78
8, 38064, Note_on_c, 2, 86, 0
8, 38064, Note_on_c, 2, 83, 78
8, 38112, Note_on_c, 2, 83, 0
8, 38112, Note_on_c, 2, 78, 78
8, 38160, Note_on_c, 2, 78, 0
8, 38160, Note_on_c, 2, 74, 78
8, 38208, Note_on_c, 2, 74, 0
8, 38256, Note_on_c, 2, 72, 78
8, 38304, Note_on_c, 2, 72, 0
8, 38304, Note_on_c, 2, 78, 78
8, 38352, Note_on_c, 2, 78, 0
8, 38352, Note_on_c, 2, 84, 78
8, 38400, Note_on_c, 2, 84, 0
8, 38400, Note_on_c, 2, 83, 78
8, 38448, Note_on_c, 2, 83, 0
8, 38448, Note_on_c, 2, 79, 78
8, 38496, Note_on_c, 2, 79, 0
8, 38496, Note_on_c, 2, 79, 78
8, 38544, Note_on_c, 2, 79, 0
8, 38544, Note_on_c, 2, 83, 78
8, 38592, Note_on_c, 2, 83, 0
8, 38592, Note_on_c, 2, 86, 78
8, 38640, Note_on_c, 2, 86, 0
8, 38640, Note_on_c, 2, 74, 78
8, 38688, Note_on_c, 2, 74, 0
8, 38688, Note_on_c, 2, 80, 78
8, 38736, Note_on_c, 2, 80, 0
8, 38736, Note_on_c, 2, 86, 78
8, 38784, Note_on_c, 2, 86, 0
8, 38784, Note_on_c, 2, 85, 78
8, 38832, Note_on_c, 2, 85, 0
8, 38832, Note_on_c, 2, 81, 78
8, 38880, Note_on_c, 2, 81, 0
8, 38880, Note_on_c, 2, 81, 78
8, 38928, Note_on_c, 2, 81, 0
8, 38928, Note_on_c, 2, 85, 78
8, 38976, Note_on_c, 2, 85, 0
8, 38976, Note_on_c, 2, 88, 78
8, 39024, Note_on_c, 2, 88, 0
8, 39024, Note_on_c, 2, 76, 78
8, 39072, Note_on_c, 2, 76, 0
8, 39072, Note_on_c, 2, 85, 78
8, 39120, Note_on_c, 2, 85, 0
8, 39120, Note_on_c, 2, 88, 78
8, 39168, Note_on_c, 2, 88, 0
8, 39168, Note_on_c, 2, 86, 78
8, 39216, Note_on_c, 2, 86, 0
8, 39216, Note_on_c, 2, 83, 78
8, 39264, Note_on_c, 2, 83, 0
8, 39264, Note_on_c, 2, 83, 78
8, 39312, Note_on_c, 2, 83, 0
8, 39312, Note_on_c, 2, 86, 78
8, 39360, Note_on_c, 2, 86, 0
8, 39360, Note_on_c, 2, 84, 78
8, 39456, Note_on_c, 2, 84, 0
8, 40224, Note_on_c, 2, 87, 78
8, 40320, Note_on_c, 2, 87, 0
8, 40320, Note_on_c, 2, 90, 78
8, 40320, Note_on_c, 2, 87, 78
8, 40512, Note_on_c, 2, 87, 0
8, 40512, Note_on_c, 2, 90, 0
8, 40512, Note_on_c, 2, 87, 78
8, 40512, Note_on_c, 2, 90, 78
8, 40704, Note_on_c, 2, 90, 0
8, 40704, Note_on_c, 2, 87, 0
8, 72480, Note_on_c, 2, 83, 78
8, 72672, Note_on_c, 2, 83, 0
8, 72672, Note_on_c, 2, 84, 78
8, 72864, Note_on_c, 2, 84, 0
8, 72864, Note_on_c, 2, 85, 78
8, 72960, Note_on_c, 2, 85, 0
8, 72960, Note_on_c, 2, 84, 78
8, 73056, Note_on_c, 2, 84, 0
8, 73056, Note_on_c, 2, 85, 78
8, 73152, Note_on_c, 2, 85, 0
8, 73248, Note_on_c, 2, 86, 78
8, 73344, Note_on_c, 2, 86, 0
8, 73344, Note_on_c, 2, 85, 78
8, 73440, Note_on_c, 2, 85, 0
8, 73440, Note_on_c, 2, 86, 78
8, 73536, Note_on_c, 2, 86, 0
8, 73632, Note_on_c, 2, 87, 78
8, 73728, Note_on_c, 2, 87, 0
8, 73728, Note_on_c, 2, 86, 78
8, 73824, Note_on_c, 2, 86, 0
8, 73824, Note_on_c, 2, 87, 78
8, 73920, Note_on_c, 2, 87, 0
8, 74016, Note_on_c, 2, 88, 78
8, 74112, Note_on_c, 2, 88, 0
8, 74112, Note_on_c, 2, 87, 78
8, 74208, Note_on_c, 2, 87, 0
8, 74208, Note_on_c, 2, 88, 78
8, 74400, Note_on_c, 2, 88, 0
8, 74400, Note_on_c, 2, 89, 78
8, 74496, Note_on_c, 2, 89, 0
8, 74496, Note_on_c, 2, 90, 78
8, 74592, Note_on_c, 2, 90, 0
8, 74592, Note_on_c, 2, 90, 78
8, 74784, Note_on_c, 2, 90, 0
8, 74784, Note_on_c, 2, 89, 78
8, 74832, Note_on_c, 2, 89, 0
8, 74832, Note_on_c, 2, 87, 78
8, 74880, Note_on_c, 2, 87, 0
8, 74880, Note_on_c, 2, 86, 78
8, 74928, Note_on_c, 2, 86, 0
8, 74928, Note_on_c, 2, 87, 78
8, 74976, Note_on_c, 2, 87, 0
8, 74976, Note_on_c, 2, 85, 78
8, 75024, Note_on_c, 2, 85, 0
8, 75024, Note_on_c, 2, 83, 78
8, 75072, Note_on_c, 2, 83, 0
8, 75072, Note_on_c, 2, 82, 78
8, 75120, Note_on_c, 2, 82, 0
8, 75120, Note_on_c, 2, 80, 78
8, 75168, Note_on_c, 2, 80, 0
8, 75168, Note_on_c, 2, 82, 78
8, 75216, Note_on_c, 2, 82, 0
8, 75216, Note_on_c, 2, 80, 78
8, 75264, Note_on_c, 2, 80, 0
8, 75264, Note_on_c, 2, 78, 78
8, 75312, Note_on_c, 2, 78, 0
8, 75312, Note_on_c, 2, 80, 78
8, 75360, Note_on_c, 2, 80, 0
8, 75360, Note_on_c, 2, 78, 78
8, 75408, Note_on_c, 2, 78, 0
8, 75408, Note_on_c, 2, 77, 78
8, 75456, Note_on_c, 2, 77, 0
8, 75456, Note_on_c, 2, 75, 78
8, 75504, Note_on_c, 2, 75, 0
8, 75504, Note_on_c, 2, 77, 78
8, 75552, Note_on_c, 2, 77, 0
8, 75552, Note_on_c, 2, 75, 78
8, 75600, Note_on_c, 2, 75, 0
8, 75600, Note_on_c, 2, 73, 78
8, 75648, Note_on_c, 2, 73, 0
8, 75648, Note_on_c, 2, 71, 78
8, 75696, Note_on_c, 2, 71, 0
8, 77232, Note_on_c, 2, 77, 78
8, 77280, Note_on_c, 2, 77, 0
8, 77280, Note_on_c, 2, 79, 78
8, 77328, Note_on_c, 2, 79, 0
8, 77328, Note_on_c, 2, 80, 78
8, 77376, Note_on_c, 2, 80, 0
8, 77376, Note_on_c, 2, 82, 78
8, 77424, Note_on_c, 2, 82, 0
8, 77424, Note_on_c, 2, 83, 78
8, 77472, Note_on_c, 2, 83, 0
8, 77472, Note_on_c, 2, 85, 78
8, 77520, Note_on_c, 2, 85, 0
8, 77520, Note_on_c, 2, 83, 78
8, 77568, Note_on_c, 2, 83, 0
8, 77568, Note_on_c, 2, 82, 78
8, 77722, Note_on_c, 2, 82, 0
8, 78768, Note_on_c, 2, 81, 78
8, 78816, Note_on_c, 2, 82, 78
8, 78845, Note_on_c, 2, 81, 0
8, 78864, Note_on_c, 2, 84, 78
8, 78893, Note_on_c, 2, 82, 0
8, 78912, Note_on_c, 2, 86, 78
8, 78941, Note_on_c, 2, 84, 0
8, 78960, Note_on_c, 2, 87, 78
8, 78989, Note_on_c, 2, 86, 0
8, 79008, Note_on_c, 2, 89, 78
8, 79037, Note_on_c, 2, 87, 0
8, 79056, Note_on_c, 2, 87, 78
8, 79085, Note_on_c, 2, 89, 0
8, 79104, Note_on_c, 2, 86, 78
8, 79133, Note_on_c, 2, 87, 0
8, 79152, Note_on_c, 2, 74, 78
8, 79200, Note_on_c, 2, 75, 78
8, 79229, Note_on_c, 2, 74, 0
8, 79248, Note_on_c, 2, 77, 78
8, 79258, Note_on_c, 2, 86, 0
8, 79277, Note_on_c, 2, 75, 0
8, 79296, Note_on_c, 2, 79, 78
8, 79325, Note_on_c, 2, 77, 0
8, 79344, Note_on_c, 2, 81, 78
8, 79373, Note_on_c, 2, 79, 0
8, 79392, Note_on_c, 2, 82, 78
8, 79421, Note_on_c, 2, 81, 0
8, 79440, Note_on_c, 2, 84, 78
8, 79469, Note_on_c, 2, 82, 0
8, 79488, Note_on_c, 2, 86, 78
8, 79517, Note_on_c, 2, 84, 0
8, 79642, Note_on_c, 2, 86, 0
8, 79920, Note_on_c, 2, 70, 78
8, 79968, Note_on_c, 2, 72, 78
8, 79997, Note_on_c, 2, 70, 0
8, 80016, Note_on_c, 2, 73, 78
8, 80045, Note_on_c, 2, 72, 0
8, 80064, Note_on_c, 2, 74, 78
8, 80093, Note_on_c, 2, 73, 0
8, 80112, Note_on_c, 2, 75, 78
8, 80141, Note_on_c, 2, 74, 0
8, 80160, Note_on_c, 2, 77, 78
8, 80189, Note_on_c, 2, 75, 0
8, 80208, Note_on_c, 2, 79, 78
8, 80237, Note_on_c, 2, 77, 0
8, 80256, Note_on_c, 2, 81, 78
8, 80285, Note_on_c, 2, 79, 0
8, 80410, Note_on_c, 2, 81, 0
8, 80688, Note_on_c, 2, 77, 78
8, 80736, Note_on_c, 2, 78, 78
8, 80765, Note_on_c, 2, 77, 0
8, 80784, Note_on_c, 2, 79, 78
8, 80813, Note_on_c, 2, 78, 0
8, 80832, Note_on_c, 2, 80, 78
8, 80861, Note_on_c, 2, 79, 0
8, 80880, Note_on_c, 2, 81, 78
8, 80909, Note_on_c, 2, 80, 0
8, 80928, Note_on_c, 2, 82, 78
8, 80957, Note_on_c, 2, 81, 0
8, 80976, Note_on_c, 2, 84, 78
8, 81005, Note_on_c, 2, 82, 0
8, 81024, Note_on_c, 2, 86, 78
8, 81053, Note_on_c, 2, 84, 0
8, 81178, Note_on_c, 2, 86, 0
8, 81456, Note_on_c, 2, 79, 78
8, 81504, Note_on_c, 2, 81, 78
8, 81533, Note_on_c, 2, 79, 0
8, 81552, Note_on_c, 2, 82, 78
8, 81581, Note_on_c, 2, 81, 0
8, 81600, Note_on_c, 2, 83, 78
8, 81629, Note_on_c, 2, 82, 0
8, 81648, Note_on_c, 2, 84, 78
8, 81677, Note_on_c, 2, 83, 0
8, 81696, Note_on_c, 2, 86, 78
8, 81725, Note_on_c, 2, 84, 0
8, 81744, Note_on_c, 2, 87, 78
8, 81773, Note_on_c, 2, 86, 0
8, 81792, Note_on_c, 2, 89, 78
8, 81821, Note_on_c, 2, 87, 0
8, 81946, Note_on_c, 2, 89, 0
8, 82224, Note_on_c, 2, 72, 78
8, 82272, Note_on_c, 2, 74, 78
8, 82301, Note_on_c, 2, 72, 0
8, 82320, Note_on_c, 2, 75, 78
8, 82349, Note_on_c, 2, 74, 0
8, 82368, Note_on_c, 2, 77, 78
8, 82397, Note_on_c, 2, 75, 0
8, 82416, Note_on_c, 2, 78, 78
8, 82445, Note_on_c, 2, 77, 0
8, 82464, Note_on_c, 2, 79, 78
8, 82493, Note_on_c, 2, 78, 0
8, 82512, Note_on_c, 2, 81, 78
8, 82541, Note_on_c, 2, 79, 0
8, 82560, Note_on_c, 2, 82, 78
8, 82589, Note_on_c, 2, 81, 0
8, 82714, Note_on_c, 2, 82, 0
8, 83376, Note_on_c, 2, 73, 78
8, 83424, Note_on_c, 2, 74, 78
8, 83453, Note_on_c, 2, 73, 0
8, 83472, Note_on_c, 2, 76, 78
8, 83501, Note_on_c, 2, 74, 0
8, 83520, Note_on_c, 2, 77, 78
8, 83549, Note_on_c, 2, 76, 0
8, 83568, Note_on_c, 2, 79, 78
8, 83597, Note_on_c, 2, 77, 0
8, 83616, Note_on_c, 2, 81, 78
8, 83645, Note_on_c, 2, 79, 0
8, 83664, Note_on_c, 2, 79, 78
8, 83693, Note_on_c, 2, 81, 0
8, 83712, Note_on_c, 2, 77, 78
8, 83712, Note_on_c, 2, 77, 78
8, 83741, Note_on_c, 2, 79, 0
8, 83760, Note_on_c, 2, 65, 78
8, 83789, Note_on_c, 2, 77, 0
8, 83808, Note_on_c, 2, 67, 78
8, 83837, Note_on_c, 2, 65, 0
8, 83856, Note_on_c, 2, 69, 78
8, 83866, Note_on_c, 2, 77, 0
8, 83885, Note_on_c, 2, 67, 0
8, 83904, Note_on_c, 2, 70, 78
8, 83933, Note_on_c, 2, 69, 0
8, 83952, Note_on_c, 2, 73, 78
8, 83981, Note_on_c, 2, 70, 0
8, 84000, Note_on_c, 2, 74, 78
8, 84029, Note_on_c, 2, 73, 0
8, 84048, Note_on_c, 2, 76, 78
8, 84077, Note_on_c, 2, 74, 0
8, 84096, Note_on_c, 2, 77, 78
8, 84125, Note_on_c, 2, 76, 0
8, 84250, Note_on_c, 2, 77, 0
8, 84912, Note_on_c, 2, 76, 78
8, 84960, Note_on_c, 2, 78, 78
8, 84989, Note_on_c, 2, 76, 0
8, 85008, Note_on_c, 2, 79, 78
8, 85037, Note_on_c, 2, 78, 0
8, 85056, Note_on_c, 2, 81, 78
8, 85085, Note_on_c, 2, 79, 0
8, 85104, Note_on_c, 2, 82, 78
8, 85133, Note_on_c, 2, 81, 0
8, 85152, Note_on_c, 2, 84, 78
8, 85181, Note_on_c, 2, 82, 0
8, 85200, Note_on_c, 2, 82, 78
8, 85229, Note_on_c, 2, 84, 0
8, 85248, Note_on_c, 2, 81, 78
8, 85277, Note_on_c, 2, 82, 0
8, 85402, Note_on_c, 2, 81, 0
8, 86064, Note_on_c, 2, 77, 78
8, 86112, Note_on_c, 2, 79, 78
8, 86141, Note_on_c, 2, 77, 0
8, 86160, Note_on_c, 2, 80, 78
8, 86189, Note_on_c, 2, 79, 0
8, 86208, Note_on_c, 2, 81, 78
8, 86237, Note_on_c, 2, 80, 0
8, 86256, Note_on_c, 2, 82, 78
8, 86285, Note_on_c, 2, 81, 0
8, 86304, Note_on_c, 2, 84, 78
8, 86333, Note_on_c, 2, 82, 0
8, 86352, Note_on_c, 2, 86, 78
8, 86381, Note_on_c, 2, 84, 0
8, 86400, Note_on_c, 2, 88, 78
8, 86429, Note_on_c, 2, 86, 0
8, 86554, Note_on_c, 2, 88, 0
8, 86832, Note_on_c, 2, 84, 78
8, 86880, Note_on_c, 2, 85, 78
8, 86909, Note_on_c, 2, 84, 0
8, 86928, Note_on_c, 2, 86, 78
8, 86957, Note_on_c, 2, 85, 0
8, 86976, Note_on_c, 2, 87, 78
8, 87005, Note_on_c, 2, 86, 0
8, 87024, Note_on_c, 2, 88, 78
8, 87053, Note_on_c, 2, 87, 0
8, 87072, Note_on_c, 2, 89, 78
8, 87101, Note_on_c, 2, 88, 0
8, 87120, Note_on_c, 2, 91, 63
8, 87149, Note_on_c, 2, 89, 0
8, 87168, Note_on_c, 2, 93, 78
8, 87197, Note_on_c, 2, 91, 0
8, 87322, Note_on_c, 2, 93, 0
8, 87600, Note_on_c, 2, 74, 78
8, 87648, Note_on_c, 2, 76, 78
8, 87677, Note_on_c, 2, 74, 0
8, 87696, Note_on_c, 2, 77, 78
8, 87725, Note_on_c, 2, 76, 0
8, 87744, Note_on_c, 2, 78, 78
8, 87773, Note_on_c, 2, 77, 0
8, 87792, Note_on_c, 2, 79, 78
8, 87821, Note_on_c, 2, 78, 0
8, 87840, Note_on_c, 2, 81, 78
8, 87869, Note_on_c, 2, 79, 0
8, 87888, Note_on_c, 2, 82, 78
8, 87917, Note_on_c, 2, 81, 0
8, 87936, Note_on_c, 2, 84, 78
8, 87965, Note_on_c, 2, 82, 0
8, 88090, Note_on_c, 2, 84, 0
8, 88368, Note_on_c, 2, 67, 78
8, 88416, Note_on_c, 2, 69, 78
8, 88445, Note_on_c, 2, 67, 0
8, 88464, Note_on_c, 2, 70, 78
8, 88493, Note_on_c, 2, 69, 0
8, 88512, Note_on_c, 2, 71, 78
8, 88541, Note_on_c, 2, 70, 0
8, 88560, Note_on_c, 2, 72, 78
8, 88589, Note_on_c, 2, 71, 0
8, 88608, Note_on_c, 2, 74, 78
8, 88637, Note_on_c, 2, 72, 0
8, 88656, Note_on_c, 2, 76, 78
8, 88685, Note_on_c, 2, 74, 0
8, 88704, Note_on_c, 2, 77, 78
8, 88733, Note_on_c, 2, 76, 0
8, 88858, Note_on_c, 2, 77, 0
8, 89136, Note_on_c, 2, 71, 78
8, 89184, Note_on_c, 2, 72, 78
8, 89213, Note_on_c, 2, 71, 0
8, 89232, Note_on_c, 2, 73, 78
8, 89261, Note_on_c, 2, 72, 0
8, 89280, Note_on_c, 2, 74, 78
8, 89309, Note_on_c, 2, 73, 0
8, 89328, Note_on_c, 2, 76, 78
8, 89357, Note_on_c, 2, 74, 0
8, 89376, Note_on_c, 2, 77, 78
8, 89405, Note_on_c, 2, 76, 0
8, 89424, Note_on_c, 2, 79, 78
8, 89453, Note_on_c, 2, 77, 0
8, 89472, Note_on_c, 2, 81, 78
8, 89501, Note_on_c, 2, 79, 0
8, 89626, Note_on_c, 2, 81, 0
8, 89904, Note_on_c, 2, 74, 78
8, 89952, Note_on_c, 2, 74, 0
8, 89952, Note_on_c, 2, 75, 78
8, 90000, Note_on_c, 2, 75, 0
8, 90000, Note_on_c, 2, 76, 78
8, 90048, Note_on_c, 2, 76, 0
8, 90048, Note_on_c, 2, 77, 78
8, 90096, Note_on_c, 2, 77, 0
8, 90096, Note_on_c, 2, 79, 78
8, 90144, Note_on_c, 2, 79, 0
8, 90144, Note_on_c, 2, 81, 78
8, 90192, Note_on_c, 2, 81, 0
8, 90192, Note_on_c, 2, 82, 78
8, 90240, Note_on_c, 2, 82, 0
8, 90240, Note_on_c, 2, 84, 78
8, 90336, Note_on_c, 2, 84, 0
8, 90672, Note_on_c, 2, 72, 78
8, 90672, Note_on_c, 2, 84, 78
8, 90720, Note_on_c, 2, 84, 0
8, 90720, Note_on_c, 2, 72, 0
8, 90720, Note_on_c, 2, 87, 78
8, 90768, Note_on_c, 2, 87, 0
8, 90768, Note_on_c, 2, 89, 78
8, 90768, Note_on_c, 2, 77, 78
8, 90816, Note_on_c, 2, 77, 0
8, 90816, Note_on_c, 2, 89, 0
8, 90816, Note_on_c, 2, 90, 78
8, 90816, Note_on_c, 2, 78, 78
8, 90912, Note_on_c, 2, 78, 0
8, 90912, Note_on_c, 2, 90, 0
8, 91056, Note_on_c, 2, 75, 78
8, 91056, Note_on_c, 2, 87, 78
8, 91104, Note_on_c, 2, 87, 0
8, 91104, Note_on_c, 2, 75, 0
8, 91104, Note_on_c, 2, 90, 78
8, 91104, Note_on_c, 2, 78, 78
8, 91152, Note_on_c, 2, 78, 0
8, 91152, Note_on_c, 2, 90, 0
8, 91152, Note_on_c, 2, 92, 78
8, 91152, Note_on_c, 2, 80, 78
8, 91200, Note_on_c, 2, 80, 0
8, 91200, Note_on_c, 2, 92, 0
8, 91200, Note_on_c, 2, 81, 78
8, 91200, Note_on_c, 2, 93, 78
8, 91296, Note_on_c, 2, 93, 0
8, 91296, Note_on_c, 2, 81, 0
8, 91440, Note_on_c, 2, 78, 78
8, 91488, Note_on_c, 2, 78, 0
8, 91488, Note_on_c, 2, 81, 78
8, 91536, Note_on_c, 2, 81, 0
8, 91536, Note_on_c, 2, 83, 78
8, 91584, Note_on_c, 2, 83, 0
8, 91584, Note_on_c, 2, 84, 78
8, 91680, Note_on_c, 2, 84, 0
8, 91680, Note_on_c, 2, 81, 78
8, 91776, Note_on_c, 2, 81, 0
8, 91776, Note_on_c, 2, 90, 78
8, 91776, Note_on_c, 2, 78, 78
8, 91872, Note_on_c, 2, 78, 0
8, 91872, Note_on_c, 2, 90, 0
8, 91872, Note_on_c, 2, 87, 78
8, 91872, Note_on_c, 2, 75, 78
8, 91968, Note_on_c, 2, 75, 0
8, 91968, Note_on_c, 2, 87, 0
8, 91968, Note_on_c, 2, 72, 78
8, 91968, Note_on_c, 2, 84, 78
8, 92064, Note_on_c, 2, 84, 0
8, 92064, Note_on_c, 2, 72, 0
8, 92064, Note_on_c, 2, 69, 78
8, 92064, Note_on_c, 2, 81, 78
8, 92160, Note_on_c, 2, 81, 0
8, 92160, Note_on_c, 2, 69, 0
8, 92160, Note_on_c, 2, 78, 78
8, 92256, Note_on_c, 2, 78, 0
8, 92256, Note_on_c, 2, 75, 78
8, 92352, Note_on_c, 2, 75, 0
8, 94368, Note_on_c, 2, 75, 78
8, 94464, Note_on_c, 2, 75, 0
8, 94464, Note_on_c, 2, 84, 78
8, 94704, Note_on_c, 2, 84, 0
8, 94704, Note_on_c, 2, 82, 78
8, 94752, Note_on_c, 2, 82, 0
8, 94752, Note_on_c, 2, 80, 78
8, 94800, Note_on_c, 2, 80, 0
8, 94800, Note_on_c, 2, 82, 78
8, 94848, Note_on_c, 2, 82, 0
8, 94848, Note_on_c, 2, 80, 78
8, 94896, Note_on_c, 2, 80, 0
8, 94896, Note_on_c, 2, 78, 78
8, 94944, Note_on_c, 2, 78, 0
8, 94944, Note_on_c, 2, 77, 78
8, 94992, Note_on_c, 2, 77, 0
8, 94992, Note_on_c, 2, 75, 78
8, 95040, Note_on_c, 2, 75, 0
8, 95040, Note_on_c, 2, 74, 78
8, 95136, Note_on_c, 2, 74, 0
8, 95136, Note_on_c, 2, 77, 78
8, 95196, Note_on_c, 2, 77, 0
8, 95232, Note_on_c, 2, 71, 78
8, 95328, Note_on_c, 2, 71, 0
8, 95328, Note_on_c, 2, 75, 78
8, 95388, Note_on_c, 2, 75, 0
8, 95424, Note_on_c, 2, 68, 78
8, 95520, Note_on_c, 2, 68, 0
8, 95520, Note_on_c, 2, 71, 78
8, 95580, Note_on_c, 2, 71, 0
8, 95616, Note_on_c, 2, 65, 78
8, 95712, Note_on_c, 2, 65, 0
8, 95712, Note_on_c, 2, 68, 78
8, 95772, Note_on_c, 2, 68, 0
8, 95856, Note_on_c, 2, 70, 78
8, 95904, Note_on_c, 2, 70, 0
8, 95904, Note_on_c, 2, 72, 78
8, 95952, Note_on_c, 2, 72, 0
8, 95952, Note_on_c, 2, 74, 78
8, 96000, Note_on_c, 2, 74, 0
8, 96000, Note_on_c, 2, 75, 78
8, 96240, Note_on_c, 2, 75, 0
8, 96240, Note_on_c, 2, 74, 78
8, 96288, Note_on_c, 2, 74, 0
8, 96288, Note_on_c, 2, 75, 78
8, 96336, Note_on_c, 2, 75, 0
8, 96336, Note_on_c, 2, 77, 78
8, 96384, Note_on_c, 2, 77, 0
8, 96384, Note_on_c, 2, 80, 78
8, 96432, Note_on_c, 2, 80, 0
8, 96432, Note_on_c, 2, 78, 78
8, 96480, Note_on_c, 2, 78, 0
8, 96624, Note_on_c, 2, 75, 78
8, 96672, Note_on_c, 2, 75, 0
8, 96672, Note_on_c, 2, 77, 78
8, 96720, Note_on_c, 2, 77, 0
8, 96720, Note_on_c, 2, 79, 78
8, 96768, Note_on_c, 2, 79, 0
8, 96768, Note_on_c, 2, 80, 78
8, 97008, Note_on_c, 2, 80, 0
8, 97008, Note_on_c, 2, 79, 78
8, 97056, Note_on_c, 2, 79, 0
8, 97056, Note_on_c, 2, 80, 78
8, 97104, Note_on_c, 2, 80, 0
8, 97104, Note_on_c, 2, 82, 78
8, 97152, Note_on_c, 2, 82, 0
8, 97152, Note_on_c, 2, 85, 78
8, 97200, Note_on_c, 2, 85, 0
8, 97200, Note_on_c, 2, 83, 78
8, 97248, Note_on_c, 2, 83, 0
8, 97392, Note_on_c, 2, 82, 78
8, 97440, Note_on_c, 2, 82, 0
8, 97440, Note_on_c, 2, 83, 78
8, 97488, Note_on_c, 2, 83, 0
8, 97488, Note_on_c, 2, 86, 78
8, 97536, Note_on_c, 2, 86, 0
8, 97536, Note_on_c, 2, 89, 78
8, 97584, Note_on_c, 2, 89, 0
8, 97584, Note_on_c, 2, 87, 78
8, 97632, Note_on_c, 2, 87, 0
8, 97776, Note_on_c, 2, 86, 78
8, 97824, Note_on_c, 2, 86, 0
8, 97824, Note_on_c, 2, 87, 78
8, 97872, Note_on_c, 2, 87, 0
8, 97872, Note_on_c, 2, 89, 78
8, 97920, Note_on_c, 2, 89, 0
8, 97920, Note_on_c, 2, 92, 78
8, 97968, Note_on_c, 2, 92, 0
8, 97968, Note_on_c, 2, 90, 78
8, 98016, Note_on_c, 2, 90, 0
8, 98160, Note_on_c, 2, 89, 78
8, 98208, Note_on_c, 2, 89, 0
8, 98208, Note_on_c, 2, 90, 78
8, 98256, Note_on_c, 2, 90, 0
8, 98256, Note_on_c, 2, 92, 78
8, 98304, Note_on_c, 2, 92, 0
8, 98304, Note_on_c, 2, 93, 78
8, 99168, Note_on_c, 2, 93, 0
8, 99168, Note_on_c, 2, 90, 78
8, 99168, Note_on_c, 2, 78, 78
8, 99264, Note_on_c, 2, 78, 0
8, 99264, Note_on_c, 2, 90, 0
8, 99264, Note_on_c, 2, 91, 78
8, 99264, Note_on_c, 2, 79, 78
8, 99360, Note_on_c, 2, 79, 0
8, 99360, Note_on_c, 2, 91, 0
8, 99360, Note_on_c, 2, 80, 78
8, 99360, Note_on_c, 2, 92, 78
8, 99456, Note_on_c, 2, 92, 0
8, 99456, Note_on_c, 2, 80, 0
8, 99456, Note_on_c, 2, 93, 78
8, 99456, Note_on_c, 2, 81, 78
8, 99552, Note_on_c, 2, 81, 0
8, 99552, Note_on_c, 2, 93, 0
8, 99552, Note_on_c, 2, 83, 78
8, 99648, Note_on_c, 2, 83, 0
8, 99648, Note_on_c, 2, 84, 78
8, 99744, Note_on_c, 2, 84, 0
8, 99744, Note_on_c, 2, 85, 78
8, 99840, Note_on_c, 2, 85, 0
8, 99840, Note_on_c, 2, 86, 78
8, 99936, Note_on_c, 2, 86, 0
8, 99936, Note_on_c, 2, 85, 78
8, 100032, Note_on_c, 2, 85, 0
8, 100032, Note_on_c, 2, 84, 78
8, 100128, Note_on_c, 2, 84, 0
8, 100128, Note_on_c, 2, 82, 78
8, 100224, Note_on_c, 2, 82, 0
8, 100224, Note_on_c, 2, 81, 78
8, 100320, Note_on_c, 2, 81, 0
8, 100320, Note_on_c, 2, 91, 78
8, 100320, Note_on_c, 2, 79, 78
8, 100416, Note_on_c, 2, 79, 0
8, 100416, Note_on_c, 2, 91, 0
8, 100416, Note_on_c, 2, 78, 78
8, 100416, Note_on_c, 2, 90, 78
8, 100512, Note_on_c, 2, 90, 0
8, 100512, Note_on_c, 2, 78, 0
8, 100512, Note_on_c, 2, 88, 78
8, 100512, Note_on_c, 2, 76, 78
8, 100608, Note_on_c, 2, 76, 0
8, 100608, Note_on_c, 2, 88, 0
8, 100608, Note_on_c, 2, 86, 78
8, 100608, Note_on_c, 2, 74, 78
8, 100704, Note_on_c, 2, 74, 0
8, 100704, Note_on_c, 2, 86, 0
8, 100704, Note_on_c, 2, 85, 78
8, 100704, Note_on_c, 2, 73, 78
8, 100800, Note_on_c, 2, 73, 0
8, 100800, Note_on_c, 2, 85, 0
8, 100800, Note_on_c, 2, 71, 78
8, 100800, Note_on_c, 2, 83, 78
8, 100896, Note_on_c, 2, 83, 0
8, 100896, Note_on_c, 2, 71, 0
8, 100896, Note_on_c, 2, 70, 78
8, 100896, Note_on_c, 2, 82, 78
8, 100992, Note_on_c, 2, 82, 0
8, 100992, Note_on_c, 2, 70, 0
8, 100992, Note_on_c, 2, 69, 78
8, 100992, Note_on_c, 2, 81, 78
8, 101088, Note_on_c, 2, 81, 0
8, 101088, Note_on_c, 2, 69, 0
8, 101088, Note_on_c, 2, 83, 78
8, 101184, Note_on_c, 2, 83, 0
8, 101184, Note_on_c, 2, 84, 78
8, 101280, Note_on_c, 2, 84, 0
8, 101280, Note_on_c, 2, 85, 78
8, 101376, Note_on_c, 2, 85, 0
8, 101376, Note_on_c, 2, 86, 78
8, 101472, Note_on_c, 2, 86, 0
8, 101472, Note_on_c, 2, 85, 78
8, 101568, Note_on_c, 2, 85, 0
8, 101568, Note_on_c, 2, 84, 78
8, 101664, Note_on_c, 2, 84, 0
8, 101664, Note_on_c, 2, 82, 78
8, 101760, Note_on_c, 2, 82, 0
8, 101760, Note_on_c, 2, 81, 78
8, 101856, Note_on_c, 2, 81, 0
8, 101856, Note_on_c, 2, 79, 78
8, 101952, Note_on_c, 2, 79, 0
8, 101952, Note_on_c, 2, 78, 78
8, 102048, Note_on_c, 2, 78, 0
8, 102048, Note_on_c, 2, 76, 78
8, 102144, Note_on_c, 2, 76, 0
8, 102144, Note_on_c, 2, 74, 78
8, 102240, Note_on_c, 2, 74, 0
8, 102240, Note_on_c, 2, 73, 78
8, 102336, Note_on_c, 2, 73, 0
8, 102336, Note_on_c, 2, 71, 78
8, 102432, Note_on_c, 2, 71, 0
8, 102432, Note_on_c, 2, 70, 78
8, 102528, Note_on_c, 2, 70, 0
8, 102528, Note_on_c, 2, 69, 78
8, 102624, Note_on_c, 2, 69, 0
8, 110976, Note_on_c, 2, 69, 78
8, 111360, Note_on_c, 2, 69, 0
8, 111360, Note_on_c, 2, 73, 73
8, 111744, Note_on_c, 2, 73, 0
8, 111744, Note_on_c, 2, 73, 73
8, 112128, Note_on_c, 2, 73, 0
8, 112128, Note_on_c, 2, 73, 73
8, 112512, Note_on_c, 2, 73, 0
8, 112512, Note_on_c, 2, 73, 73
8, 112896, Note_on_c, 2, 73, 0
8, 112896, Note_on_c, 2, 73, 73
8, 113280, Note_on_c, 2, 73, 0
8, 113280, Note_on_c, 2, 73, 73
8, 113664, Note_on_c, 2, 73, 0
8, 113664, Note_on_c, 2, 73, 73
8, 114048, Note_on_c, 2, 73, 0
8, 114048, Note_on_c, 2, 73, 73
8, 114432, Note_on_c, 2, 73, 0
8, 114432, Note_on_c, 2, 73, 73
8, 114816, Note_on_c, 2, 73, 0
8, 114816, Note_on_c, 2, 73, 73
8, 115200, Note_on_c, 2, 73, 0
8, 115200, Note_on_c, 2, 73, 73
8, 115584, Note_on_c, 2, 73, 0
8, 115584, Note_on_c, 2, 73, 73
8, 115968, Note_on_c, 2, 73, 0
8, 115968, Note_on_c, 2, 73, 73
8, 116352, Note_on_c, 2, 73, 0
8, 116352, Note_on_c, 2, 73, 73
8, 116736, Note_on_c, 2, 73, 0
8, 116736, Note_on_c, 2, 73, 73
8, 117120, Note_on_c, 2, 73, 0
8, 117120, Note_on_c, 2, 73, 73
8, 117504, Note_on_c, 2, 73, 0
8, 117504, Note_on_c, 2, 73, 73
8, 117888, Note_on_c, 2, 73, 0
8, 117888, Note_on_c, 2, 73, 73
8, 118272, Note_on_c, 2, 73, 0
8, 118272, Note_on_c, 2, 73, 73
8, 118656, Note_on_c, 2, 73, 0
8, 118656, Note_on_c, 2, 73, 73
8, 119040, Note_on_c, 2, 73, 0
8, 119040, Note_on_c, 2, 73, 78
8, 119424, Note_on_c, 2, 73, 0
8, 119424, Note_on_c, 2, 73, 78
8, 119808, Note_on_c, 2, 73, 0
8, 119808, Note_on_c, 2, 73, 78
8, 120192, Note_on_c, 2, 73, 0
8, 120192, Note_on_c, 2, 74, 71
8, 120576, Note_on_c, 2, 74, 0
8, 120576, Note_on_c, 2, 74, 78
8, 120960, Note_on_c, 2, 74, 0
8, 120960, Note_on_c, 2, 74, 78
8, 121344, Note_on_c, 2, 74, 0
8, 121344, Note_on_c, 2, 74, 78
8, 121728, Note_on_c, 2, 74, 0
8, 121728, Note_on_c, 2, 74, 78
8, 122112, Note_on_c, 2, 74, 0
8, 122112, Note_on_c, 2, 74, 78
8, 122496, Note_on_c, 2, 74, 0
8, 122496, Note_on_c, 2, 74, 78
8, 122880, Note_on_c, 2, 74, 0
8, 122880, Note_on_c, 2, 74, 78
8, 123264, Note_on_c, 2, 74, 0
8, 123264, Note_on_c, 2, 74, 78
8, 123648, Note_on_c, 2, 74, 0
8, 123648, Note_on_c, 2, 74, 78
8, 124032, Note_on_c, 2, 74, 0
8, 124032, Note_on_c, 2, 74, 78
8, 124416, Note_on_c, 2, 74, 0
8, 124416, Note_on_c, 2, 74, 78
8, 124800, Note_on_c, 2, 74, 0
8, 124800, Note_on_c, 2, 72, 78
8, 125184, Note_on_c, 2, 72, 0
8, 125184, Note_on_c, 2, 70, 78
8, 125568, Note_on_c, 2, 70, 0
8, 125568, Note_on_c, 2, 68, 78
8, 125952, Note_on_c, 2, 68, 0
8, 125952, Note_on_c, 2, 70, 78
8, 126336, Note_on_c, 2, 70, 0
8, 126336, Note_on_c, 2, 68, 78
8, 126720, Note_on_c, 2, 68, 0
8, 126720, Note_on_c, 2, 70, 78
8, 127104, Note_on_c, 2, 70, 0
8, 127104, Note_on_c, 2, 68, 78
8, 127488, Note_on_c, 2, 68, 0
8, 127488, Note_on_c, 2, 70, 78
8, 127872, Note_on_c, 2, 70, 0
8, 127872, Note_on_c, 2, 68, 78
8, 128064, Note_on_c, 2, 68, 0
8, 128064, Note_on_c, 2, 69, 78
8, 128064, Note_on_c, 2, 75, 78
8, 128256, Note_on_c, 2, 75, 0
8, 128256, Note_on_c, 2, 69, 0
8, 128256, Note_on_c, 2, 82, 78
8, 128256, Note_on_c, 2, 70, 78
8, 128544, Note_on_c, 2, 82, 0
8, 128544, Note_on_c, 2, 82, 78
8, 128640, Note_on_c, 2, 82, 0
8, 128640, Note_on_c, 2, 70, 0
8, 128640, Note_on_c, 2, 82, 78
8, 128640, Note_on_c, 2, 68, 78
8, 128736, Note_on_c, 2, 82, 0
8, 128736, Note_on_c, 2, 80, 78
8, 128832, Note_on_c, 2, 80, 0
8, 128832, Note_on_c, 2, 79, 78
8, 128928, Note_on_c, 2, 79, 0
8, 128928, Note_on_c, 2, 77, 78
8, 129024, Note_on_c, 2, 77, 0
8, 129024, Note_on_c, 2, 68, 0
8, 129024, Note_on_c, 2, 82, 78
8, 129024, Note_on_c, 2, 67, 78
8, 129216, Note_on_c, 2, 82, 0
8, 129216, Note_on_c, 2, 82, 78
8, 129408, Note_on_c, 2, 82, 0
8, 129408, Note_on_c, 2, 67, 0
8, 129408, Note_on_c, 2, 68, 78
8, 129600, Note_on_c, 2, 77, 78
8, 129792, Note_on_c, 2, 77, 0
8, 129792, Note_on_c, 2, 68, 0
8, 129792, Note_on_c, 2, 70, 78
8, 129792, Note_on_c, 2, 82, 78
8, 129792, Note_on_c, 2, 67, 78
8, 130080, Note_on_c, 2, 82, 0
8, 130080, Note_on_c, 2, 82, 78
8, 130176, Note_on_c, 2, 82, 0
8, 130176, Note_on_c, 2, 67, 0
8, 130176, Note_on_c, 2, 70, 0
8, 130176, Note_on_c, 2, 68, 78
8, 130176, Note_on_c, 2, 82, 78
8, 130176, Note_on_c, 2, 68, 78
8, 130272, Note_on_c, 2, 82, 0
8, 130272, Note_on_c, 2, 80, 78
8, 130368, Note_on_c, 2, 80, 0
8, 130368, Note_on_c, 2, 79, 78
8, 130464, Note_on_c, 2, 79, 0
8, 130464, Note_on_c, 2, 77, 78
8, 130560, Note_on_c, 2, 77, 0
8, 130560, Note_on_c, 2, 68, 0
8, 130560, Note_on_c, 2, 68, 0
8, 130560, Note_on_c, 2, 67, 78
8, 130560, Note_on_c, 2, 82, 78
8, 130944, Note_on_c, 2, 67, 0
8, 130944, Note_on_c, 2, 68, 78
8, 131136, Note_on_c, 2, 82, 0
8, 131136, Note_on_c, 2, 70, 78
8, 131328, Note_on_c, 2, 70, 0
8, 131328, Note_on_c, 2, 68, 0
8, 131328, Note_on_c, 2, 67, 78
8, 131328, Note_on_c, 2, 72, 78
8, 131520, Note_on_c, 2, 72, 0
8, 131520, Note_on_c, 2, 75, 78
8, 131712, Note_on_c, 2, 75, 0
8, 131712, Note_on_c, 2, 67, 0
8, 131712, Note_on_c, 2, 77, 78
8, 131712, Note_on_c, 2, 68, 78
8, 131904, Note_on_c, 2, 77, 0
8, 131904, Note_on_c, 2, 79, 78
8, 132000, Note_on_c, 2, 79, 0
8, 132000, Note_on_c, 2, 80, 78
8, 132096, Note_on_c, 2, 80, 0
8, 132096, Note_on_c, 2, 68, 0
8, 132096, Note_on_c, 2, 67, 78
8, 132096, Note_on_c, 2, 82, 78
8, 132480, Note_on_c, 2, 67, 0
8, 132480, Note_on_c, 2, 68, 78
8, 132672, Note_on_c, 2, 82, 0
8, 132672, Note_on_c, 2, 82, 78
8, 132864, Note_on_c, 2, 82, 0
8, 132864, Note_on_c, 2, 68, 0
8, 132864, Note_on_c, 2, 84, 78
8, 132864, Note_on_c, 2, 67, 78
8, 133056, Note_on_c, 2, 84, 0
8, 133056, Note_on_c, 2, 87, 78
8, 133248, Note_on_c, 2, 87, 0
8, 133248, Note_on_c, 2, 67, 0
8, 133248, Note_on_c, 2, 86, 78
8, 133248, Note_on_c, 2, 68, 78
8, 133440, Note_on_c, 2, 86, 0
8, 133440, Note_on_c, 2, 84, 78
8, 133536, Note_on_c, 2, 84, 0
8, 133536, Note_on_c, 2, 82, 78
8, 133632, Note_on_c, 2, 82, 0
8, 133632, Note_on_c, 2, 68, 0
8, 133632, Note_on_c, 2, 70, 78
8, 133632, Note_on_c, 2, 87, 78
8, 134016, Note_on_c, 2, 70, 0
8, 134016, Note_on_c, 2, 65, 78
8, 134208, Note_on_c, 2, 87, 0
8, 134208, Note_on_c, 2, 70, 78
8, 134400, Note_on_c, 2, 70, 0
8, 134400, Note_on_c, 2, 65, 0
8, 134400, Note_on_c, 2, 66, 78
8, 134400, Note_on_c, 2, 72, 78
8, 134592, Note_on_c, 2, 72, 0
8, 134592, Note_on_c, 2, 75, 78
8, 134784, Note_on_c, 2, 75, 0
8, 134784, Note_on_c, 2, 66, 0
8, 134784, Note_on_c, 2, 68, 78
8, 134784, Note_on_c, 2, 77, 78
8, 134976, Note_on_c, 2, 77, 0
8, 134976, Note_on_c, 2, 78, 78
8, 135072, Note_on_c, 2, 78, 0
8, 135072, Note_on_c, 2, 80, 78
8, 135168, Note_on_c, 2, 80, 0
8, 135168, Note_on_c, 2, 68, 0
8, 135168, Note_on_c, 2, 82, 78
8, 135168, Note_on_c, 2, 66, 78
8, 135552, Note_on_c, 2, 66, 0
8, 135552, Note_on_c, 2, 68, 78
8, 135744, Note_on_c, 2, 82, 0
8, 135744, Note_on_c, 2, 70, 78
8, 135936, Note_on_c, 2, 70, 0
8, 135936, Note_on_c, 2, 68, 0
8, 135936, Note_on_c, 2, 66, 78
8, 135936, Note_on_c, 2, 72, 78
8, 136128, Note_on_c, 2, 72, 0
8, 136128, Note_on_c, 2, 75, 78
8, 136320, Note_on_c, 2, 75, 0
8, 136320, Note_on_c, 2, 66, 0
8, 136320, Note_on_c, 2, 77, 78
8, 136320, Note_on_c, 2, 68, 78
8, 136512, Note_on_c, 2, 77, 0
8, 136512, Note_on_c, 2, 78, 78
8, 136608, Note_on_c, 2, 78, 0
8, 136608, Note_on_c, 2, 80, 78
8, 136704, Note_on_c, 2, 80, 0
8, 136704, Note_on_c, 2, 68, 0
8, 136704, Note_on_c, 2, 66, 78
8, 136704, Note_on_c, 2, 82, 78
8, 137088, Note_on_c, 2, 66, 0
8, 137088, Note_on_c, 2, 68, 78
8, 137280, Note_on_c, 2, 82, 0
8, 137280, Note_on_c, 2, 70, 78
8, 137472, Note_on_c, 2, 70, 0
8, 137472, Note_on_c, 2, 68, 0
8, 137472, Note_on_c, 2, 72, 78
8, 137472, Note_on_c, 2, 66, 78
8, 137664, Note_on_c, 2, 72, 0
8, 137664, Note_on_c, 2, 75, 78
8, 137856, Note_on_c, 2, 75, 0
8, 137856, Note_on_c, 2, 66, 0
8, 137856, Note_on_c, 2, 77, 78
8, 137856, Note_on_c, 2, 68, 78
8, 138048, Note_on_c, 2, 77, 0
8, 138048, Note_on_c, 2, 78, 78
8, 138144, Note_on_c, 2, 78, 0
8, 138144, Note_on_c, 2, 80, 78
8, 138240, Note_on_c, 2, 80, 0
8, 138240, Note_on_c, 2, 68, 0
8, 138240, Note_on_c, 2, 66, 78
8, 138240, Note_on_c, 2, 82, 78
8, 138432, Note_on_c, 2, 82, 0
8, 138432, Note_on_c, 2, 82, 78
8, 138528, Note_on_c, 2, 82, 0
8, 138528, Note_on_c, 2, 83, 78
8, 138624, Note_on_c, 2, 83, 0
8, 138624, Note_on_c, 2, 66, 0
8, 138624, Note_on_c, 2, 68, 78
8, 138624, Note_on_c, 2, 82, 78
8, 139008, Note_on_c, 2, 68, 0
8, 139008, Note_on_c, 2, 66, 78
8, 139200, Note_on_c, 2, 82, 0
8, 139200, Note_on_c, 2, 82, 78
8, 139296, Note_on_c, 2, 82, 0
8, 139296, Note_on_c, 2, 83, 78
8, 139392, Note_on_c, 2, 83, 0
8, 139392, Note_on_c, 2, 66, 0
8, 139392, Note_on_c, 2, 68, 78
8, 139392, Note_on_c, 2, 82, 78
8, 139776, Note_on_c, 2, 68, 0
8, 139776, Note_on_c, 2, 66, 78
8, 139968, Note_on_c, 2, 82, 0
8, 139968, Note_on_c, 2, 82, 78
8, 140064, Note_on_c, 2, 82, 0
8, 140064, Note_on_c, 2, 83, 78
8, 140160, Note_on_c, 2, 83, 0
8, 140160, Note_on_c, 2, 82, 78
8, 140352, Note_on_c, 2, 82, 0
8, 140352, Note_on_c, 2, 82, 78
8, 140448, Note_on_c, 2, 82, 0
8, 140448, Note_on_c, 2, 83, 78
8, 140544, Note_on_c, 2, 83, 0
8, 140544, Note_on_c, 2, 82, 78
8, 140640, Note_on_c, 2, 66, 0
8, 140736, Note_on_c, 2, 82, 0
8, 140736, Note_on_c, 2, 82, 78
8, 140832, Note_on_c, 2, 82, 0
8, 140832, Note_on_c, 2, 83, 78
8, 140928, Note_on_c, 2, 83, 0
8, 140928, Note_on_c, 2, 82, 78
8, 141120, Note_on_c, 2, 82, 0
8, 141120, Note_on_c, 2, 82, 78
8, 141216, Note_on_c, 2, 82, 0
8, 141216, Note_on_c, 2, 83, 78
8, 141312, Note_on_c, 2, 83, 0
8, 141312, Note_on_c, 2, 68, 78
8, 141312, Note_on_c, 2, 82, 78
8, 141504, Note_on_c, 2, 82, 0
8, 141504, Note_on_c, 2, 82, 78
8, 141600, Note_on_c, 2, 82, 0
8, 141600, Note_on_c, 2, 83, 78
8, 141696, Note_on_c, 2, 83, 0
8, 141696, Note_on_c, 2, 82, 78
8, 141888, Note_on_c, 2, 82, 0
8, 141888, Note_on_c, 2, 82, 78
8, 141984, Note_on_c, 2, 82, 0
8, 141984, Note_on_c, 2, 83, 78
8, 142080, Note_on_c, 2, 83, 0
8, 142080, Note_on_c, 2, 82, 78
8, 142176, Note_on_c, 2, 68, 0
8, 142272, Note_on_c, 2, 82, 0
8, 142272, Note_on_c, 2, 82, 78
8, 142368, Note_on_c, 2, 82, 0
8, 142368, Note_on_c, 2, 83, 78
8, 142464, Note_on_c, 2, 83, 0
8, 142464, Note_on_c, 2, 82, 78
8, 142656, Note_on_c, 2, 82, 0
8, 142656, Note_on_c, 2, 82, 78
8, 142752, Note_on_c, 2, 82, 0
8, 142752, Note_on_c, 2, 83, 78
8, 142848, Note_on_c, 2, 83, 0
8, 142848, Note_on_c, 2, 82, 78
8, 143040, Note_on_c, 2, 82, 0
8, 143040, Note_on_c, 2, 82, 78
8, 143136, Note_on_c, 2, 82, 0
8, 143136, Note_on_c, 2, 83, 78
8, 143232, Note_on_c, 2, 83, 0
8, 143232, Note_on_c, 2, 82, 78
8, 143424, Note_on_c, 2, 82, 0
8, 143424, Note_on_c, 2, 82, 78
8, 143520, Note_on_c, 2, 82, 0
8, 143520, Note_on_c, 2, 83, 78
8, 143616, Note_on_c, 2, 83, 0
8, 143616, Note_on_c, 2, 82, 71
8, 143640, Note_on_c, 2, 82, 0
8, 143712, Note_on_c, 2, 82, 71
8, 143760, Note_on_c, 2, 82, 0
8, 143760, Note_on_c, 2, 83, 71
8, 143808, Note_on_c, 2, 83, 0
8, 143808, Note_on_c, 2, 82, 71
8, 143832, Note_on_c, 2, 82, 0
8, 143904, Note_on_c, 2, 80, 71
8, 144000, Note_on_c, 2, 80, 0
8, 144000, Note_on_c, 2, 78, 71
8, 144048, Note_on_c, 2, 78, 0
8, 144096, Note_on_c, 2, 78, 71
8, 144120, Note_on_c, 2, 78, 0
8, 144192, Note_on_c, 2, 80, 71
8, 144288, Note_on_c, 2, 80, 0
8, 144288, Note_on_c, 2, 75, 71
8, 144384, Note_on_c, 2, 75, 0
8, 144384, Note_on_c, 2, 78, 71
8, 144408, Note_on_c, 2, 78, 0
8, 144480, Note_on_c, 2, 78, 71
8, 144504, Note_on_c, 2, 78, 0
8, 144576, Note_on_c, 2, 75, 71
8, 144768, Note_on_c, 2, 75, 0
8, 144768, Note_on_c, 2, 78, 71
8, 144864, Note_on_c, 2, 78, 0
8, 144864, Note_on_c, 2, 77, 71
8, 144912, Note_on_c, 2, 77, 0
8, 144912, Note_on_c, 2, 78, 71
8, 144960, Note_on_c, 2, 78, 0
8, 144960, Note_on_c, 2, 80, 71
8, 144984, Note_on_c, 2, 80, 0
8, 145056, Note_on_c, 2, 75, 71
8, 145080, Note_on_c, 2, 75, 0
8, 145152, Note_on_c, 2, 82, 71
8, 145344, Note_on_c, 2, 82, 0
8, 145344, Note_on_c, 2, 75, 71
8, 145404, Note_on_c, 2, 75, 0
8, 145440, Note_on_c, 2, 75, 71
8, 145464, Note_on_c, 2, 75, 0
8, 145536, Note_on_c, 2, 75, 71
8, 145632, Note_on_c, 2, 75, 0
8, 145632, Note_on_c, 2, 78, 71
8, 145728, Note_on_c, 2, 78, 0
8, 145728, Note_on_c, 2, 77, 71
8, 145752, Note_on_c, 2, 77, 0
8, 145824, Note_on_c, 2, 75, 71
8, 145848, Note_on_c, 2, 75, 0
8, 145920, Note_on_c, 2, 82, 71
8, 146112, Note_on_c, 2, 82, 0
8, 146112, Note_on_c, 2, 75, 71
8, 146172, Note_on_c, 2, 75, 0
8, 146208, Note_on_c, 2, 75, 71
8, 146232, Note_on_c, 2, 75, 0
8, 146304, Note_on_c, 2, 75, 71
8, 146400, Note_on_c, 2, 75, 0
8, 146400, Note_on_c, 2, 78, 71
8, 146496, Note_on_c, 2, 78, 0
8, 146496, Note_on_c, 2, 77, 71
8, 146592, Note_on_c, 2, 77, 0
8, 146592, Note_on_c, 2, 75, 71
8, 146688, Note_on_c, 2, 75, 0
8, 146688, Note_on_c, 2, 82, 78
8, 146688, Note_on_c, 2, 70, 36
8, 146712, Note_on_c, 2, 82, 0
8, 146784, Note_on_c, 2, 70, 0
8, 146784, Note_on_c, 2, 82, 78
8, 146808, Note_on_c, 2, 82, 0
8, 146880, Note_on_c, 2, 82, 78
8, 146904, Note_on_c, 2, 82, 0
8, 146976, Note_on_c, 2, 82, 78
8, 147000, Note_on_c, 2, 82, 0
8, 147072, Note_on_c, 2, 82, 78
8, 147168, Note_on_c, 2, 82, 0
8, 147168, Note_on_c, 2, 85, 78
8, 147216, Note_on_c, 2, 85, 0
8, 147216, Note_on_c, 2, 82, 78
8, 147264, Note_on_c, 2, 82, 0
8, 147264, Note_on_c, 2, 80, 78
8, 147288, Note_on_c, 2, 80, 0
8, 147360, Note_on_c, 2, 77, 78
8, 147408, Note_on_c, 2, 77, 0
8, 147456, Note_on_c, 2, 78, 78
8, 147504, Note_on_c, 2, 78, 0
8, 147552, Note_on_c, 2, 78, 78
8, 147600, Note_on_c, 2, 78, 0
8, 147648, Note_on_c, 2, 75, 78
8, 147840, Note_on_c, 2, 75, 0
8, 147840, Note_on_c, 2, 78, 78
8, 147936, Note_on_c, 2, 78, 0
8, 147936, Note_on_c, 2, 77, 78
8, 147984, Note_on_c, 2, 77, 0
8, 147984, Note_on_c, 2, 78, 78
8, 148032, Note_on_c, 2, 78, 0
8, 148032, Note_on_c, 2, 80, 78
8, 148056, Note_on_c, 2, 80, 0
8, 148128, Note_on_c, 2, 75, 78
8, 148152, Note_on_c, 2, 75, 0
8, 148224, Note_on_c, 2, 82, 78
8, 148416, Note_on_c, 2, 82, 0
8, 148416, Note_on_c, 2, 75, 78
8, 148476, Note_on_c, 2, 75, 0
8, 148512, Note_on_c, 2, 75, 78
8, 148536, Note_on_c, 2, 75, 0
8, 148608, Note_on_c, 2, 75, 78
8, 148704, Note_on_c, 2, 75, 0
8, 148704, Note_on_c, 2, 78, 78
8, 148800, Note_on_c, 2, 78, 0
8, 148800, Note_on_c, 2, 77, 78
8, 148824, Note_on_c, 2, 77, 0
8, 148896, Note_on_c, 2, 75, 78
8, 148920, Note_on_c, 2, 75, 0
8, 148992, Note_on_c, 2, 82, 78
8, 149184, Note_on_c, 2, 82, 0
8, 149184, Note_on_c, 2, 75, 78
8, 149244, Note_on_c, 2, 75, 0
8, 149280, Note_on_c, 2, 75, 78
8, 149304, Note_on_c, 2, 75, 0
8, 149376, Note_on_c, 2, 75, 78
8, 149424, Note_on_c, 2, 75, 0
8, 149424, Note_on_c, 2, 77, 78
8, 149472, Note_on_c, 2, 77, 0
8, 149472, Note_on_c, 2, 78, 78
8, 149483, Note_on_c, 2, 78, 0
8, 149520, Note_on_c, 2, 78, 78
8, 149531, Note_on_c, 2, 78, 0
8, 149568, Note_on_c, 2, 77, 76
8, 149616, Note_on_c, 2, 77, 0
8, 149616, Note_on_c, 2, 75, 74
8, 149664, Note_on_c, 2, 75, 0
8, 149664, Note_on_c, 2, 73, 71
8, 149675, Note_on_c, 2, 73, 0
8, 149712, Note_on_c, 2, 71, 68
8, 149723, Note_on_c, 2, 71, 0
8, 149760, Note_on_c, 2, 70, 64
8, 149856, Note_on_c, 2, 70, 0
8, 172224, Note_on_c, 2, 82, 78
8, 172320, Note_on_c, 2, 82, 0
8, 172320, Note_on_c, 2, 83, 78
8, 172416, Note_on_c, 2, 83, 0
8, 172416, Note_on_c, 2, 85, 78
8, 172512, Note_on_c, 2, 85, 0
8, 173760, Note_on_c, 2, 79, 78
8, 173856, Note_on_c, 2, 79, 0
8, 173856, Note_on_c, 2, 80, 78
8, 173952, Note_on_c, 2, 80, 0
8, 173952, Note_on_c, 2, 82, 78
8, 174048, Note_on_c, 2, 82, 0
8, 175296, Note_on_c, 2, 85, 78
8, 175392, Note_on_c, 2, 85, 0
8, 175392, Note_on_c, 2, 87, 78
8, 175488, Note_on_c, 2, 87, 0
8, 175488, Note_on_c, 2, 88, 78
8, 175584, Note_on_c, 2, 88, 0
8, 176832, Note_on_c, 2, 82, 78
8, 176928, Note_on_c, 2, 82, 0
8, 176928, Note_on_c, 2, 83, 78
8, 177024, Note_on_c, 2, 83, 0
8, 177024, Note_on_c, 2, 85, 78
8, 177120, Note_on_c, 2, 85, 0
8, 177600, Note_on_c, 2, 82, 78
8, 177696, Note_on_c, 2, 82, 0
8, 177696, Note_on_c, 2, 83, 78
8, 177792, Note_on_c, 2, 83, 0
8, 177792, Note_on_c, 2, 85, 78
8, 177888, Note_on_c, 2, 85, 0
8, 178368, Note_on_c, 2, 83, 78
8, 178464, Note_on_c, 2, 83, 0
8, 178464, Note_on_c, 2, 85, 78
8, 178560, Note_on_c, 2, 85, 0
8, 178560, Note_on_c, 2, 86, 78
8, 178656, Note_on_c, 2, 86, 0
8, 179136, Note_on_c, 2, 84, 78
8, 179232, Note_on_c, 2, 84, 0
8, 179232, Note_on_c, 2, 86, 78
8, 179328, Note_on_c, 2, 86, 0
8, 179328, Note_on_c, 2, 87, 78
8, 179424, Note_on_c, 2, 87, 0
8, 180288, Note_on_c, 2, 80, 78
8, 180336, Note_on_c, 2, 80, 0
8, 180336, Note_on_c, 2, 81, 78
8, 180384, Note_on_c, 2, 81, 0
8, 180384, Note_on_c, 2, 90, 78
8, 180384, Note_on_c, 2, 81, 78
8, 180432, Note_on_c, 2, 81, 0
8, 180432, Note_on_c, 2, 90, 0
8, 180432, Note_on_c, 2, 81, 78
8, 180480, Note_on_c, 2, 81, 0
8, 180480, Note_on_c, 2, 89, 78
8, 180480, Note_on_c, 2, 80, 78
8, 180528, Note_on_c, 2, 80, 0
8, 180528, Note_on_c, 2, 89, 0
8, 180528, Note_on_c, 2, 81, 78
8, 180528, Note_on_c, 2, 90, 78
8, 180576, Note_on_c, 2, 90, 0
8, 180576, Note_on_c, 2, 81, 0
8, 180576, Note_on_c, 2, 81, 78
8, 180576, Note_on_c, 2, 90, 78
8, 180672, Note_on_c, 2, 90, 0
8, 180672, Note_on_c, 2, 81, 0
8, 180672, Note_on_c, 2, 80, 78
8, 180672, Note_on_c, 2, 89, 78
8, 180720, Note_on_c, 2, 89, 0
8, 180720, Note_on_c, 2, 80, 0
8, 180720, Note_on_c, 2, 90, 78
8, 180720, Note_on_c, 2, 81, 78
8, 180768, Note_on_c, 2, 81, 0
8, 180768, Note_on_c, 2, 90, 0
8, 180768, Note_on_c, 2, 90, 78
8, 180768, Note_on_c, 2, 81, 78
8, 180864, Note_on_c, 2, 81, 0
8, 180864, Note_on_c, 2, 90, 0
8, 180864, Note_on_c, 2, 89, 78
8, 180864, Note_on_c, 2, 80, 78
8, 180912, Note_on_c, 2, 80, 0
8, 180912, Note_on_c, 2, 89, 0
8, 180912, Note_on_c, 2, 90, 78
8, 180912, Note_on_c, 2, 81, 78
8, 180960, Note_on_c, 2, 81, 0
8, 180960, Note_on_c, 2, 90, 0
8, 180960, Note_on_c, 2, 90, 78
8, 180960, Note_on_c, 2, 81, 78
8, 181056, Note_on_c, 2, 81, 0
8, 181056, Note_on_c, 2, 90, 0
8, 181056, Note_on_c, 2, 89, 78
8, 181056, Note_on_c, 2, 80, 78
8, 181104, Note_on_c, 2, 80, 0
8, 181104, Note_on_c, 2, 89, 0
8, 181104, Note_on_c, 2, 90, 78
8, 181104, Note_on_c, 2, 81, 78
8, 181152, Note_on_c, 2, 81, 0
8, 181152, Note_on_c, 2, 90, 0
8, 181152, Note_on_c, 2, 90, 78
8, 181152, Note_on_c, 2, 81, 78
8, 181248, Note_on_c, 2, 81, 0
8, 181248, Note_on_c, 2, 90, 0
8, 181248, Note_on_c, 2, 86, 78
8, 181296, Note_on_c, 2, 86, 0
8, 181296, Note_on_c, 2, 87, 78
8, 181344, Note_on_c, 2, 87, 0
8, 181344, Note_on_c, 2, 87, 78
8, 181440, Note_on_c, 2, 87, 0
8, 181440, Note_on_c, 2, 81, 78
8, 181488, Note_on_c, 2, 81, 0
8, 181488, Note_on_c, 2, 82, 78
8, 181536, Note_on_c, 2, 82, 0
8, 181536, Note_on_c, 2, 82, 78
8, 181632, Note_on_c, 2, 82, 0
8, 181632, Note_on_c, 2, 77, 78
8, 181680, Note_on_c, 2, 77, 0
8, 181680, Note_on_c, 2, 78, 78
8, 181728, Note_on_c, 2, 78, 0
8, 181728, Note_on_c, 2, 78, 78
8, 181824, Note_on_c, 2, 78, 0
8, 181824, Note_on_c, 2, 74, 78
8, 181872, Note_on_c, 2, 74, 0
8, 181872, Note_on_c, 2, 75, 78
8, 181920, Note_on_c, 2, 75, 0
8, 181920, Note_on_c, 2, 75, 78
8, 182016, Note_on_c, 2, 75, 0
8, 182016, Note_on_c, 2, 70, 78
8, 182064, Note_on_c, 2, 70, 0
8, 182064, Note_on_c, 2, 71, 78
8, 182112, Note_on_c, 2, 71, 0
8, 182112, Note_on_c, 2, 71, 78
8, 182208, Note_on_c, 2, 71, 0
8, 182688, Note_on_c, 2, 75, 78
8, 182748, Note_on_c, 2, 75, 0
8, 182784, Note_on_c, 2, 83, 78
8, 183024, Note_on_c, 2, 83, 0
8, 183024, Note_on_c, 2, 82, 78
8, 183072, Note_on_c, 2, 82, 0
8, 183072, Note_on_c, 2, 80, 78
8, 183120, Note_on_c, 2, 80, 0
8, 183120, Note_on_c, 2, 82, 78
8, 183168, Note_on_c, 2, 82, 0
8, 183168, Note_on_c, 2, 80, 78
8, 183216, Note_on_c, 2, 80, 0
8, 183216, Note_on_c, 2, 78, 78
8, 183264, Note_on_c, 2, 78, 0
8, 183264, Note_on_c, 2, 77, 78
8, 183312, Note_on_c, 2, 77, 0
8, 183312, Note_on_c, 2, 75, 78
8, 183360, Note_on_c, 2, 75, 0
8, 183360, Note_on_c, 2, 74, 78
8, 183424, Note_on_c, 2, 74, 0
8, 183456, Note_on_c, 2, 77, 78
8, 183520, Note_on_c, 2, 77, 0
8, 183552, Note_on_c, 2, 71, 78
8, 183616, Note_on_c, 2, 71, 0
8, 183648, Note_on_c, 2, 75, 78
8, 183712, Note_on_c, 2, 75, 0
8, 183744, Note_on_c, 2, 68, 78
8, 183808, Note_on_c, 2, 68, 0
8, 183840, Note_on_c, 2, 71, 78
8, 183904, Note_on_c, 2, 71, 0
8, 183936, Note_on_c, 2, 65, 78
8, 184000, Note_on_c, 2, 65, 0
8, 184032, Note_on_c, 2, 68, 78
8, 184096, Note_on_c, 2, 68, 0
8, 184176, Note_on_c, 2, 70, 78
8, 184224, Note_on_c, 2, 70, 0
8, 184224, Note_on_c, 2, 72, 78
8, 184272, Note_on_c, 2, 72, 0
8, 184272, Note_on_c, 2, 74, 78
8, 184320, Note_on_c, 2, 74, 0
8, 184320, Note_on_c, 2, 75, 78
8, 184560, Note_on_c, 2, 75, 0
8, 184560, Note_on_c, 2, 74, 78
8, 184608, Note_on_c, 2, 74, 0
8, 184608, Note_on_c, 2, 75, 78
8, 184656, Note_on_c, 2, 75, 0
8, 184656, Note_on_c, 2, 77, 78
8, 184704, Note_on_c, 2, 77, 0
8, 184704, Note_on_c, 2, 80, 78
8, 184752, Note_on_c, 2, 80, 0
8, 184752, Note_on_c, 2, 78, 78
8, 184800, Note_on_c, 2, 78, 0
8, 184944, Note_on_c, 2, 75, 78
8, 184992, Note_on_c, 2, 75, 0
8, 184992, Note_on_c, 2, 77, 78
8, 185040, Note_on_c, 2, 77, 0
8, 185040, Note_on_c, 2, 79, 78
8, 185088, Note_on_c, 2, 79, 0
8, 185088, Note_on_c, 2, 80, 78
8, 185328, Note_on_c, 2, 80, 0
8, 185328, Note_on_c, 2, 79, 78
8, 185376, Note_on_c, 2, 79, 0
8, 185376, Note_on_c, 2, 80, 78
8, 185424, Note_on_c, 2, 80, 0
8, 185424, Note_on_c, 2, 82, 78
8, 185472, Note_on_c, 2, 82, 0
8, 185472, Note_on_c, 2, 85, 78
8, 185520, Note_on_c, 2, 85, 0
8, 185520, Note_on_c, 2, 83, 78
8, 185568, Note_on_c, 2, 83, 0
8, 185712, Note_on_c, 2, 82, 78
8, 185760, Note_on_c, 2, 82, 0
8, 185760, Note_on_c, 2, 83, 78
8, 185808, Note_on_c, 2, 83, 0
8, 185808, Note_on_c, 2, 86, 78
8, 185856, Note_on_c, 2, 86, 0
8, 185856, Note_on_c, 2, 89, 78
8, 185904, Note_on_c, 2, 89, 0
8, 185904, Note_on_c, 2, 87, 78
8, 185952, Note_on_c, 2, 87, 0
8, 186096, Note_on_c, 2, 86, 78
8, 186144, Note_on_c, 2, 86, 0
8, 186144, Note_on_c, 2, 87, 78
8, 186192, Note_on_c, 2, 87, 0
8, 186192, Note_on_c, 2, 89, 78
8, 186240, Note_on_c, 2, 89, 0
8, 186240, Note_on_c, 2, 92, 78
8, 186288, Note_on_c, 2, 92, 0
8, 186288, Note_on_c, 2, 90, 78
8, 186336, Note_on_c, 2, 90, 0
8, 186336, Note_on_c, 2, 90, 78
8, 186528, Note_on_c, 2, 90, 0
8, 186528, Note_on_c, 2, 90, 78
8, 186720, Note_on_c, 2, 90, 0
8, 186720, Note_on_c, 2, 90, 78
8, 186912, Note_on_c, 2, 90, 0
8, 186912, Note_on_c, 2, 90, 78
8, 187104, Note_on_c, 2, 90, 0
8, 187104, Note_on_c, 2, 77, 78
8, 187104, Note_on_c, 2, 89, 78
8, 187200, Note_on_c, 2, 89, 0
8, 187200, Note_on_c, 2, 77, 0
8, 187200, Note_on_c, 2, 92, 78
8, 187200, Note_on_c, 2, 80, 78
8, 187296, Note_on_c, 2, 80, 0
8, 187296, Note_on_c, 2, 92, 0
8, 187296, Note_on_c, 2, 94, 78
8, 187296, Note_on_c, 2, 82, 78
8, 187392, Note_on_c, 2, 82, 0
8, 187392, Note_on_c, 2, 94, 0
8, 187392, Note_on_c, 2, 83, 78
8, 187392, Note_on_c, 2, 95, 78
8, 187488, Note_on_c, 2, 95, 0
8, 187488, Note_on_c, 2, 83, 0
8, 187488, Note_on_c, 2, 94, 78
8, 187488, Note_on_c, 2, 82, 78
8, 187584, Note_on_c, 2, 82, 0
8, 187584, Note_on_c, 2, 94, 0
8, 187584, Note_on_c, 2, 92, 78
8, 187584, Note_on_c, 2, 80, 78
8, 187680, Note_on_c, 2, 80, 0
8, 187680, Note_on_c, 2, 92, 0
8, 187680, Note_on_c, 2, 79, 78
8, 187680, Note_on_c, 2, 91, 78
8, 187776, Note_on_c, 2, 91, 0
8, 187776, Note_on_c, 2, 79, 0
8, 187776, Note_on_c, 2, 78, 78
8, 187776, Note_on_c, 2, 90, 78
8, 187872, Note_on_c, 2, 90, 0
8, 187872, Note_on_c, 2, 78, 0
8, 187872, Note_on_c, 2, 88, 78
8, 187968, Note_on_c, 2, 88, 0
8, 187968, Note_on_c, 2, 87, 78
8, 188064, Note_on_c, 2, 87, 0
8, 188064, Note_on_c, 2, 85, 78
8, 188160, Note_on_c, 2, 85, 0
8, 188160, Note_on_c, 2, 83, 78
8, 188256, Note_on_c, 2, 83, 0
8, 188256, Note_on_c, 2, 82, 78
8, 188352, Note_on_c, 2, 82, 0
8, 188352, Note_on_c, 2, 80, 78
8, 188448, Note_on_c, 2, 80, 0
8, 188448, Note_on_c, 2, 79, 78
8, 188544, Note_on_c, 2, 79, 0
8, 188544, Note_on_c, 2, 78, 78
8, 188640, Note_on_c, 2, 78, 0
8, 188640, Note_on_c, 2, 80, 78
8, 188736, Note_on_c, 2, 80, 0
8, 188736, Note_on_c, 2, 81, 78
8, 188832, Note_on_c, 2, 81, 0
8, 188832, Note_on_c, 2, 82, 78
8, 188928, Note_on_c, 2, 82, 0
8, 188928, Note_on_c, 2, 83, 78
8, 189024, Note_on_c, 2, 83, 0
8, 189024, Note_on_c, 2, 82, 78
8, 189120, Note_on_c, 2, 82, 0
8, 189120, Note_on_c, 2, 80, 78
8, 189216, Note_on_c, 2, 80, 0
8, 189216, Note_on_c, 2, 79, 78
8, 189312, Note_on_c, 2, 79, 0
8, 189312, Note_on_c, 2, 78, 78
8, 189408, Note_on_c, 2, 78, 0
8, 189408, Note_on_c, 2, 76, 78
8, 189504, Note_on_c, 2, 76, 0
8, 189504, Note_on_c, 2, 75, 78
8, 189600, Note_on_c, 2, 75, 0
8, 189600, Note_on_c, 2, 73, 78
8, 189696, Note_on_c, 2, 73, 0
8, 189696, Note_on_c, 2, 71, 78
8, 189792, Note_on_c, 2, 71, 0
8, 189792, Note_on_c, 2, 70, 78
8, 189888, Note_on_c, 2, 70, 0
8, 189888, Note_on_c, 2, 68, 78
8, 189984, Note_on_c, 2, 68, 0
8, 189984, Note_on_c, 2, 67, 78
8, 190080, Note_on_c, 2, 67, 0
8, 190080, Note_on_c, 2, 66, 78
8, 190176, Note_on_c, 2, 66, 0
8, 198720, Note_on_c, 2, 75, 71
8, 198912, Note_on_c, 2, 75, 0
8, 198912, Note_on_c, 2, 70, 78
8, 198912, Note_on_c, 2, 82, 78
8, 199200, Note_on_c, 2, 82, 0
8, 199200, Note_on_c, 2, 82, 78
8, 199296, Note_on_c, 2, 82, 0
8, 199296, Note_on_c, 2, 70, 0
8, 199296, Note_on_c, 2, 82, 78
8, 199296, Note_on_c, 2, 70, 78
8, 199392, Note_on_c, 2, 82, 0
8, 199392, Note_on_c, 2, 80, 78
8, 199488, Note_on_c, 2, 80, 0
8, 199488, Note_on_c, 2, 79, 78
8, 199584, Note_on_c, 2, 79, 0
8, 199584, Note_on_c, 2, 77, 78
8, 199680, Note_on_c, 2, 77, 0
8, 199680, Note_on_c, 2, 70, 0
8, 199680, Note_on_c, 2, 70, 78
8, 199680, Note_on_c, 2, 82, 78
8, 199872, Note_on_c, 2, 82, 0
8, 199872, Note_on_c, 2, 82, 78
8, 200064, Note_on_c, 2, 70, 0
8, 200064, Note_on_c, 2, 70, 78
8, 200256, Note_on_c, 2, 82, 0
8, 200256, Note_on_c, 2, 77, 78
8, 200448, Note_on_c, 2, 77, 0
8, 200448, Note_on_c, 2, 70, 0
8, 200448, Note_on_c, 2, 82, 78
8, 200448, Note_on_c, 2, 70, 78
8, 200736, Note_on_c, 2, 82, 0
8, 200736, Note_on_c, 2, 82, 78
8, 200832, Note_on_c, 2, 82, 0
8, 200832, Note_on_c, 2, 70, 0
8, 200832, Note_on_c, 2, 82, 78
8, 200832, Note_on_c, 2, 70, 78
8, 200928, Note_on_c, 2, 82, 0
8, 200928, Note_on_c, 2, 80, 78
8, 201024, Note_on_c, 2, 80, 0
8, 201024, Note_on_c, 2, 79, 78
8, 201120, Note_on_c, 2, 79, 0
8, 201120, Note_on_c, 2, 77, 78
8, 201216, Note_on_c, 2, 77, 0
8, 201216, Note_on_c, 2, 70, 0
8, 201216, Note_on_c, 2, 70, 78
8, 201216, Note_on_c, 2, 82, 78
8, 201600, Note_on_c, 2, 70, 0
8, 201600, Note_on_c, 2, 70, 78
8, 201792, Note_on_c, 2, 82, 0
8, 201792, Note_on_c, 2, 70, 78
8, 201984, Note_on_c, 2, 70, 0
8, 201984, Note_on_c, 2, 70, 0
8, 201984, Note_on_c, 2, 70, 78
8, 201984, Note_on_c, 2, 72, 78
8, 202176, Note_on_c, 2, 72, 0
8, 202176, Note_on_c, 2, 75, 78
8, 202368, Note_on_c, 2, 75, 0
8, 202368, Note_on_c, 2, 70, 0
8, 202368, Note_on_c, 2, 77, 78
8, 202368, Note_on_c, 2, 70, 78
8, 202560, Note_on_c, 2, 77, 0
8, 202560, Note_on_c, 2, 79, 78
8, 202656, Note_on_c, 2, 79, 0
8, 202656, Note_on_c, 2, 80, 78
8, 202752, Note_on_c, 2, 80, 0
8, 202752, Note_on_c, 2, 70, 0
8, 202752, Note_on_c, 2, 70, 78
8, 202752, Note_on_c, 2, 82, 78
8, 203136, Note_on_c, 2, 70, 0
8, 203136, Note_on_c, 2, 70, 78
8, 203328, Note_on_c, 2, 82, 0
8, 203328, Note_on_c, 2, 82, 78
8, 203520, Note_on_c, 2, 82, 0
8, 203520, Note_on_c, 2, 70, 0
8, 203520, Note_on_c, 2, 84, 78
8, 203520, Note_on_c, 2, 70, 78
8, 203712, Note_on_c, 2, 84, 0
8, 203712, Note_on_c, 2, 87, 78
8, 203904, Note_on_c, 2, 87, 0
8, 203904, Note_on_c, 2, 70, 0
8, 203904, Note_on_c, 2, 86, 78
8, 203904, Note_on_c, 2, 70, 78
8, 204096, Note_on_c, 2, 86, 0
8, 204096, Note_on_c, 2, 84, 78
8, 204192, Note_on_c, 2, 84, 0
8, 204192, Note_on_c, 2, 82, 78
8, 204288, Note_on_c, 2, 82, 0
8, 204288, Note_on_c, 2, 70, 0
8, 204288, Note_on_c, 2, 87, 78
8, 204288, Note_on_c, 2, 70, 78
8, 204672, Note_on_c, 2, 70, 0
8, 204672, Note_on_c, 2, 87, 0
8, 204672, Note_on_c, 2, 70, 78
8, 204864, Note_on_c, 2, 70, 78
8, 205056, Note_on_c, 2, 70, 0
8, 205056, Note_on_c, 2, 70, 0
8, 205056, Note_on_c, 2, 70, 78
8, 205056, Note_on_c, 2, 72, 78
8, 205248, Note_on_c, 2, 72, 0
8, 205248, Note_on_c, 2, 75, 78
8, 205440, Note_on_c, 2, 75, 0
8, 205440, Note_on_c, 2, 70, 0
8, 205440, Note_on_c, 2, 77, 78
8, 205440, Note_on_c, 2, 70, 78
8, 205632, Note_on_c, 2, 77, 0
8, 205632, Note_on_c, 2, 79, 78
8, 205728, Note_on_c, 2, 79, 0
8, 205728, Note_on_c, 2, 80, 78
8, 205824, Note_on_c, 2, 80, 0
8, 205824, Note_on_c, 2, 70, 0
8, 205824, Note_on_c, 2, 82, 78
8, 205824, Note_on_c, 2, 70, 78
8, 206208, Note_on_c, 2, 70, 0
8, 206208, Note_on_c, 2, 70, 78
8, 206400, Note_on_c, 2, 82, 0
8, 206400, Note_on_c, 2, 82, 78
8, 206592, Note_on_c, 2, 82, 0
8, 206592, Note_on_c, 2, 70, 0
8, 206592, Note_on_c, 2, 84, 78
8, 206592, Note_on_c, 2, 70, 78
8, 206784, Note_on_c, 2, 84, 0
8, 206784, Note_on_c, 2, 87, 78
8, 206976, Note_on_c, 2, 87, 0
8, 206976, Note_on_c, 2, 70, 0
8, 206976, Note_on_c, 2, 86, 78
8, 206976, Note_on_c, 2, 70, 78
8, 207168, Note_on_c, 2, 86, 0
8, 207168, Note_on_c, 2, 84, 78
8, 207264, Note_on_c, 2, 84, 0
8, 207264, Note_on_c, 2, 82, 78
8, 207360, Note_on_c, 2, 82, 0
8, 207360, Note_on_c, 2, 70, 0
8, 207360, Note_on_c, 2, 70, 78
8, 207360, Note_on_c, 2, 87, 78
8, 207744, Note_on_c, 2, 87, 0
8, 207744, Note_on_c, 2, 70, 0
8, 207744, Note_on_c, 2, 70, 78
8, 207936, Note_on_c, 2, 70, 78
8, 208128, Note_on_c, 2, 70, 0
8, 208128, Note_on_c, 2, 70, 0
8, 208128, Note_on_c, 2, 70, 78
8, 208128, Note_on_c, 2, 72, 78
8, 208320, Note_on_c, 2, 72, 0
8, 208320, Note_on_c, 2, 75, 78
8, 208512, Note_on_c, 2, 75, 0
8, 208512, Note_on_c, 2, 70, 0
8, 208512, Note_on_c, 2, 77, 78
8, 208512, Note_on_c, 2, 70, 78
8, 208704, Note_on_c, 2, 77, 0
8, 208704, Note_on_c, 2, 78, 78
8, 208800, Note_on_c, 2, 78, 0
8, 208800, Note_on_c, 2, 80, 78
8, 208896, Note_on_c, 2, 80, 0
8, 208896, Note_on_c, 2, 70, 0
8, 208896, Note_on_c, 2, 70, 78
8, 208896, Note_on_c, 2, 82, 78
8, 209280, Note_on_c, 2, 70, 0
8, 209280, Note_on_c, 2, 70, 78
8, 209472, Note_on_c, 2, 82, 0
8, 209472, Note_on_c, 2, 70, 78
8, 209664, Note_on_c, 2, 70, 0
8, 209664, Note_on_c, 2, 70, 0
8, 209664, Note_on_c, 2, 70, 78
8, 209664, Note_on_c, 2, 72, 78
8, 209856, Note_on_c, 2, 72, 0
8, 209856, Note_on_c, 2, 75, 78
8, 210048, Note_on_c, 2, 75, 0
8, 210048, Note_on_c, 2, 70, 0
8, 210048, Note_on_c, 2, 70, 78
8, 210048, Note_on_c, 2, 77, 78
8, 210240, Note_on_c, 2, 77, 0
8, 210240, Note_on_c, 2, 78, 78
8, 210336, Note_on_c, 2, 78, 0
8, 210336, Note_on_c, 2, 80, 78
8, 210432, Note_on_c, 2, 80, 0
8, 210432, Note_on_c, 2, 70, 0
8, 210432, Note_on_c, 2, 70, 78
8, 210432, Note_on_c, 2, 82, 78
8, 210816, Note_on_c, 2, 70, 0
8, 210816, Note_on_c, 2, 70, 78
8, 211008, Note_on_c, 2, 82, 0
8, 211200, Note_on_c, 2, 70, 0
8, 211200, Note_on_c, 2, 72, 78
8, 211200, Note_on_c, 2, 70, 78
8, 211392, Note_on_c, 2, 72, 0
8, 211392, Note_on_c, 2, 75, 78
8, 211584, Note_on_c, 2, 75, 0
8, 211584, Note_on_c, 2, 70, 0
8, 211584, Note_on_c, 2, 70, 78
8, 211584, Note_on_c, 2, 77, 78
8, 211776, Note_on_c, 2, 77, 0
8, 211776, Note_on_c, 2, 78, 78
8, 211872, Note_on_c, 2, 78, 0
8, 211872, Note_on_c, 2, 80, 78
8, 211968, Note_on_c, 2, 80, 0
8, 211968, Note_on_c, 2, 70, 0
8, 211968, Note_on_c, 2, 70, 78
8, 211968, Note_on_c, 2, 82, 78
8, 212160, Note_on_c, 2, 82, 0
8, 212160, Note_on_c, 2, 82, 78
8, 212256, Note_on_c, 2, 82, 0
8, 212256, Note_on_c, 2, 83, 78
8, 212352, Note_on_c, 2, 83, 0
8, 212352, Note_on_c, 2, 70, 0
8, 212352, Note_on_c, 2, 70, 78
8, 212352, Note_on_c, 2, 82, 78
8, 212736, Note_on_c, 2, 70, 0
8, 212736, Note_on_c, 2, 70, 78
8, 212928, Note_on_c, 2, 82, 0
8, 212928, Note_on_c, 2, 82, 78
8, 213024, Note_on_c, 2, 82, 0
8, 213024, Note_on_c, 2, 83, 78
8, 213120, Note_on_c, 2, 83, 0
8, 213120, Note_on_c, 2, 70, 0
8, 213120, Note_on_c, 2, 70, 78
8, 213120, Note_on_c, 2, 82, 78
8, 213504, Note_on_c, 2, 70, 0
8, 213504, Note_on_c, 2, 70, 78
8, 213696, Note_on_c, 2, 82, 0
8, 213696, Note_on_c, 2, 82, 78
8, 213888, Note_on_c, 2, 70, 0
8, 213888, Note_on_c, 2, 70, 78
8, 214176, Note_on_c, 2, 82, 0
8, 214272, Note_on_c, 2, 70, 0
8, 214272, Note_on_c, 2, 70, 78
8, 214368, Note_on_c, 2, 70, 0
8, 227328, Note_on_c, 2, 62, 65
8, 227424, Note_on_c, 2, 62, 0
8, 227520, Note_on_c, 2, 66, 78
8, 227616, Note_on_c, 2, 66, 0
8, 227712, Note_on_c, 2, 70, 78
8, 227808, Note_on_c, 2, 70, 0
8, 227904, Note_on_c, 2, 66, 78
8, 228000, Note_on_c, 2, 66, 0
8, 228096, Note_on_c, 2, 62, 78
8, 228192, Note_on_c, 2, 62, 0
8, 228864, Note_on_c, 2, 67, 78
8, 228960, Note_on_c, 2, 67, 0
8, 229056, Note_on_c, 2, 71, 78
8, 229152, Note_on_c, 2, 71, 0
8, 229248, Note_on_c, 2, 75, 78
8, 229344, Note_on_c, 2, 75, 0
8, 229440, Note_on_c, 2, 71, 78
8, 229536, Note_on_c, 2, 71, 0
8, 229632, Note_on_c, 2, 72, 78
8, 229728, Note_on_c, 2, 72, 0
8, 230112, Note_on_c, 2, 72, 78
8, 230160, Note_on_c, 2, 72, 0
8, 230160, Note_on_c, 2, 72, 78
8, 230208, Note_on_c, 2, 72, 0
8, 230208, Note_on_c, 2, 72, 78
8, 230304, Note_on_c, 2, 72, 0
8, 230304, Note_on_c, 2, 72, 78
8, 230400, Note_on_c, 2, 72, 0
8, 230400, Note_on_c, 2, 68, 78
8, 230400, Note_on_c, 2, 77, 78
8, 230592, Note_on_c, 2, 77, 0
8, 230592, Note_on_c, 2, 68, 0
8, 230592, Note_on_c, 2, 79, 78
8, 230592, Note_on_c, 2, 72, 78
8, 230784, Note_on_c, 2, 72, 0
8, 230784, Note_on_c, 2, 79, 0
8, 230784, Note_on_c, 2, 77, 78
8, 230784, Note_on_c, 2, 80, 78
8, 230976, Note_on_c, 2, 80, 0
8, 230976, Note_on_c, 2, 77, 0
8, 230976, Note_on_c, 2, 72, 78
8, 230976, Note_on_c, 2, 79, 78
8, 231168, Note_on_c, 2, 79, 0
8, 231168, Note_on_c, 2, 72, 0
8, 231168, Note_on_c, 2, 77, 78
8, 231168, Note_on_c, 2, 72, 78
8, 231360, Note_on_c, 2, 72, 0
8, 231360, Note_on_c, 2, 77, 0
8, 231360, Note_on_c, 2, 75, 78
8, 231360, Note_on_c, 2, 72, 78
8, 231552, Note_on_c, 2, 72, 0
8, 231552, Note_on_c, 2, 75, 0
8, 231552, Note_on_c, 2, 71, 78
8, 231552, Note_on_c, 2, 73, 78
8, 231648, Note_on_c, 2, 73, 0
8, 231648, Note_on_c, 2, 71, 0
8, 231648, Note_on_c, 2, 71, 78
8, 231648, Note_on_c, 2, 73, 78
8, 231696, Note_on_c, 2, 73, 0
8, 231696, Note_on_c, 2, 71, 0
8, 231696, Note_on_c, 2, 73, 78
8, 231696, Note_on_c, 2, 71, 78
8, 231744, Note_on_c, 2, 71, 0
8, 231744, Note_on_c, 2, 73, 0
8, 231744, Note_on_c, 2, 71, 78
8, 231744, Note_on_c, 2, 73, 78
8, 231840, Note_on_c, 2, 73, 0
8, 231840, Note_on_c, 2, 71, 0
8, 231840, Note_on_c, 2, 71, 78
8, 231840, Note_on_c, 2, 73, 78
8, 231936, Note_on_c, 2, 73, 0
8, 231936, Note_on_c, 2, 71, 0
8, 231936, Note_on_c, 2, 70, 78
8, 231936, Note_on_c, 2, 78, 78
8, 232128, Note_on_c, 2, 78, 0
8, 232128, Note_on_c, 2, 70, 0
8, 232128, Note_on_c, 2, 80, 78
8, 232128, Note_on_c, 2, 73, 78
8, 232320, Note_on_c, 2, 73, 0
8, 232320, Note_on_c, 2, 80, 0
8, 232320, Note_on_c, 2, 82, 78
8, 232320, Note_on_c, 2, 78, 78
8, 232512, Note_on_c, 2, 78, 0
8, 232512, Note_on_c, 2, 82, 0
8, 232512, Note_on_c, 2, 80, 78
8, 232512, Note_on_c, 2, 73, 78
8, 232704, Note_on_c, 2, 73, 0
8, 232704, Note_on_c, 2, 80, 0
8, 232704, Note_on_c, 2, 73, 78
8, 232704, Note_on_c, 2, 78, 78
8, 232896, Note_on_c, 2, 78, 0
8, 232896, Note_on_c, 2, 73, 0
8, 232896, Note_on_c, 2, 77, 78
8, 232896, Note_on_c, 2, 73, 78
8, 233088, Note_on_c, 2, 73, 0
8, 233088, Note_on_c, 2, 77, 0
8, 233088, Note_on_c, 2, 75, 78
8, 233088, Note_on_c, 2, 73, 78
8, 233184, Note_on_c, 2, 73, 0
8, 233184, Note_on_c, 2, 75, 0
8, 233184, Note_on_c, 2, 73, 78
8, 233184, Note_on_c, 2, 75, 71
8, 233232, Note_on_c, 2, 75, 0
8, 233232, Note_on_c, 2, 73, 0
8, 233232, Note_on_c, 2, 73, 71
8, 233232, Note_on_c, 2, 75, 71
8, 233280, Note_on_c, 2, 75, 0
8, 233280, Note_on_c, 2, 73, 0
8, 233280, Note_on_c, 2, 75, 71
8, 233280, Note_on_c, 2, 73, 71
8, 233376, Note_on_c, 2, 73, 0
8, 233376, Note_on_c, 2, 75, 0
8, 233376, Note_on_c, 2, 73, 71
8, 233376, Note_on_c, 2, 75, 71
8, 233472, Note_on_c, 2, 75, 0
8, 233472, Note_on_c, 2, 73, 0
8, 233472, Note_on_c, 2, 80, 78
8, 233472, Note_on_c, 2, 72, 78
8, 233664, Note_on_c, 2, 72, 0
8, 233664, Note_on_c, 2, 80, 0
8, 233664, Note_on_c, 2, 82, 78
8, 233664, Note_on_c, 2, 75, 78
8, 233856, Note_on_c, 2, 75, 0
8, 233856, Note_on_c, 2, 82, 0
8, 233856, Note_on_c, 2, 84, 78
8, 233856, Note_on_c, 2, 81, 78
8, 233952, Note_on_c, 2, 81, 0
8, 233952, Note_on_c, 2, 84, 0
8, 233952, Note_on_c, 2, 77, 78
8, 234000, Note_on_c, 2, 77, 0
8, 234000, Note_on_c, 2, 77, 78
8, 234048, Note_on_c, 2, 77, 0
8, 234048, Note_on_c, 2, 77, 78
8, 234144, Note_on_c, 2, 77, 0
8, 234144, Note_on_c, 2, 77, 78
8, 234240, Note_on_c, 2, 77, 0
8, 234240, Note_on_c, 2, 82, 78
8, 234240, Note_on_c, 2, 74, 78
8, 234432, Note_on_c, 2, 74, 0
8, 234432, Note_on_c, 2, 82, 0
8, 234432, Note_on_c, 2, 77, 78
8, 234432, Note_on_c, 2, 84, 78
8, 234624, Note_on_c, 2, 84, 0
8, 234624, Note_on_c, 2, 77, 0
8, 234624, Note_on_c, 2, 83, 78
8, 234624, Note_on_c, 2, 86, 78
8, 234720, Note_on_c, 2, 86, 0
8, 234720, Note_on_c, 2, 83, 0
8, 234720, Note_on_c, 2, 79, 78
8, 234768, Note_on_c, 2, 79, 0
8, 234768, Note_on_c, 2, 79, 78
8, 234816, Note_on_c, 2, 79, 0
8, 234816, Note_on_c, 2, 79, 78
8, 234912, Note_on_c, 2, 79, 0
8, 234912, Note_on_c, 2, 79, 78
8, 235008, Note_on_c, 2, 79, 0
8, 235008, Note_on_c, 2, 84, 78
8, 235008, Note_on_c, 2, 75, 78
8, 235200, Note_on_c, 2, 75, 0
8, 235200, Note_on_c, 2, 84, 0
8, 235200, Note_on_c, 2, 86, 78
8, 235200, Note_on_c, 2, 79, 78
8, 235392, Note_on_c, 2, 79, 0
8, 235392, Note_on_c, 2, 86, 0
8, 235392, Note_on_c, 2, 84, 78
8, 235392, Note_on_c, 2, 87, 78
8, 235488, Note_on_c, 2, 87, 0
8, 235488, Note_on_c, 2, 84, 0
8, 235488, Note_on_c, 2, 80, 78
8, 235536, Note_on_c, 2, 80, 0
8, 235536, Note_on_c, 2, 80, 78
8, 235584, Note_on_c, 2, 80, 0
8, 235584, Note_on_c, 2, 80, 78
8, 235680, Note_on_c, 2, 80, 0
8, 235680, Note_on_c, 2, 80, 78
8, 235776, Note_on_c, 2, 80, 0
8, 235776, Note_on_c, 2, 85, 78
8, 235968, Note_on_c, 2, 85, 0
8, 235968, Note_on_c, 2, 87, 78
8, 236160, Note_on_c, 2, 87, 0
8, 236160, Note_on_c, 2, 89, 78
8, 236256, Note_on_c, 2, 89, 0
8, 236544, Note_on_c, 2, 91, 78
8, 236544, Note_on_c, 2, 94, 78
8, 236640, Note_on_c, 2, 94, 0
8, 236640, Note_on_c, 2, 91, 0
8, 236640, Note_on_c, 2, 89, 78
8, 236640, Note_on_c, 2, 92, 78
8, 236736, Note_on_c, 2, 92, 0
8, 236736, Note_on_c, 2, 89, 0
8, 236736, Note_on_c, 2, 87, 78
8, 236736, Note_on_c, 2, 91, 78
8, 236832, Note_on_c, 2, 91, 0
8, 236832, Note_on_c, 2, 87, 0
8, 236832, Note_on_c, 2, 89, 78
8, 236832, Note_on_c, 2, 86, 78
8, 236928, Note_on_c, 2, 86, 0
8, 236928, Note_on_c, 2, 89, 0
8, 236928, Note_on_c, 2, 87, 78
8, 236928, Note_on_c, 2, 92, 78
8, 237024, Note_on_c, 2, 92, 0
8, 237024, Note_on_c, 2, 87, 0
8, 237024, Note_on_c, 2, 86, 78
8, 237024, Note_on_c, 2, 91, 78
8, 237120, Note_on_c, 2, 91, 0
8, 237120, Note_on_c, 2, 86, 0
8, 237120, Note_on_c, 2, 89, 78
8, 237120, Note_on_c, 2, 84, 78
8, 237216, Note_on_c, 2, 84, 0
8, 237216, Note_on_c, 2, 89, 0
8, 237216, Note_on_c, 2, 82, 78
8, 237216, Note_on_c, 2, 87, 78
8, 237312, Note_on_c, 2, 87, 0
8, 237312, Note_on_c, 2, 82, 0
8, 237312, Note_on_c, 2, 92, 78
8, 237312, Note_on_c, 2, 87, 78
8, 237408, Note_on_c, 2, 87, 0
8, 237408, Note_on_c, 2, 92, 0
8, 237408, Note_on_c, 2, 86, 78
8, 237408, Note_on_c, 2, 91, 78
8, 237504, Note_on_c, 2, 91, 0
8, 237504, Note_on_c, 2, 86, 0
8, 237504, Note_on_c, 2, 84, 78
8, 237600, Note_on_c, 2, 84, 0
8, 237600, Note_on_c, 2, 82, 78
8, 237600, Note_on_c, 2, 87, 78
8, 237696, Note_on_c, 2, 87, 0
8, 237696, Note_on_c, 2, 82, 0
8, 237696, Note_on_c, 2, 86, 78
8, 237792, Note_on_c, 2, 86, 0
8, 237792, Note_on_c, 2, 84, 78
8, 237888, Note_on_c, 2, 84, 0
8, 237888, Note_on_c, 2, 82, 78
8, 237984, Note_on_c, 2, 82, 0
8, 237984, Note_on_c, 2, 80, 78
8, 238080, Note_on_c, 2, 80, 0
8, 238080, Note_on_c, 2, 79, 78
8, 238176, Note_on_c, 2, 79, 0
8, 238176, Note_on_c, 2, 80, 78
8, 238272, Note_on_c, 2, 80, 0
8, 238272, Note_on_c, 2, 82, 78
8, 238368, Note_on_c, 2, 82, 0
8, 238368, Note_on_c, 2, 84, 78
8, 238464, Note_on_c, 2, 84, 0
8, 238464, Note_on_c, 2, 80, 78
8, 238464, Note_on_c, 2, 86, 78
8, 238560, Note_on_c, 2, 86, 0
8, 238560, Note_on_c, 2, 80, 0
8, 238560, Note_on_c, 2, 82, 78
8, 238560, Note_on_c, 2, 87, 78
8, 238656, Note_on_c, 2, 87, 0
8, 238656, Note_on_c, 2, 82, 0
8, 238656, Note_on_c, 2, 87, 78
8, 238656, Note_on_c, 2, 91, 78
8, 238752, Note_on_c, 2, 91, 0
8, 238752, Note_on_c, 2, 87, 0
8, 238752, Note_on_c, 2, 91, 78
8, 238848, Note_on_c, 2, 91, 0
8, 238848, Note_on_c, 2, 91, 78
8, 238848, Note_on_c, 2, 94, 78
8, 238944, Note_on_c, 2, 94, 0
8, 238944, Note_on_c, 2, 91, 0
8, 238944, Note_on_c, 2, 92, 78
8, 238944, Note_on_c, 2, 89, 78
8, 239040, Note_on_c, 2, 89, 0
8, 239040, Note_on_c, 2, 92, 0
8, 239040, Note_on_c, 2, 91, 8
8, 239040, Note_on_c, 2, 87, 78
8, 239136, Note_on_c, 2, 87, 0
8, 239136, Note_on_c, 2, 91, 0
8, 239136, Note_on_c, 2, 89, 78
8, 239136, Note_on_c, 2, 86, 78
8, 239232, Note_on_c, 2, 86, 0
8, 239232, Note_on_c, 2, 89, 0
8, 239232, Note_on_c, 2, 87, 78
8, 239232, Note_on_c, 2, 91, 78
8, 239328, Note_on_c, 2, 91, 0
8, 239328, Note_on_c, 2, 87, 0
8, 239328, Note_on_c, 2, 86, 78
8, 239328, Note_on_c, 2, 89, 78
8, 239424, Note_on_c, 2, 89, 0
8, 239424, Note_on_c, 2, 86, 0
8, 239424, Note_on_c, 2, 84, 78
8, 239424, Note_on_c, 2, 87, 78
8, 239520, Note_on_c, 2, 87, 0
8, 239520, Note_on_c, 2, 84, 0
8, 239520, Note_on_c, 2, 82, 78
8, 239520, Note_on_c, 2, 86, 78
8, 239616, Note_on_c, 2, 86, 0
8, 239616, Note_on_c, 2, 82, 0
8, 239616, Note_on_c, 2, 80, 78
8, 239616, Note_on_c, 2, 84, 78
8, 239808, Note_on_c, 2, 84, 0
8, 239808, Note_on_c, 2, 80, 0
8, 239808, Note_on_c, 2, 88, 78
8, 239808, Note_on_c, 2, 84, 78
8, 240000, Note_on_c, 2, 84, 0
8, 240000, Note_on_c, 2, 88, 0
8, 240000, Note_on_c, 2, 84, 78
8, 240000, Note_on_c, 2, 89, 78
8, 240192, Note_on_c, 2, 89, 0
8, 240192, Note_on_c, 2, 84, 0
8, 240192, Note_on_c, 2, 84, 78
8, 240192, Note_on_c, 2, 91, 78
8, 240384, Note_on_c, 2, 91, 0
8, 240384, Note_on_c, 2, 84, 0
8, 240384, Note_on_c, 2, 89, 78
8, 240576, Note_on_c, 2, 89, 0
8, 240576, Note_on_c, 2, 89, 78
8, 240768, Note_on_c, 2, 89, 0
8, 240768, Note_on_c, 2, 89, 78
8, 240960, Note_on_c, 2, 89, 0
8, 240960, Note_on_c, 2, 89, 78
8, 241152, Note_on_c, 2, 89, 0
8, 241152, Note_on_c, 2, 94, 78
8, 241152, Note_on_c, 2, 89, 78
8, 241344, Note_on_c, 2, 89, 0
8, 241344, Note_on_c, 2, 94, 0
8, 241344, Note_on_c, 2, 87, 78
8, 241344, Note_on_c, 2, 94, 78
8, 241536, Note_on_c, 2, 94, 0
8, 241536, Note_on_c, 2, 87, 0
8, 241536, Note_on_c, 2, 94, 78
8, 241536, Note_on_c, 2, 89, 61
8, 241728, Note_on_c, 2, 89, 0
8, 241728, Note_on_c, 2, 94, 0
8, 241728, Note_on_c, 2, 91, 78
8, 241728, Note_on_c, 2, 94, 78
8, 241920, Note_on_c, 2, 94, 0
8, 241920, Note_on_c, 2, 91, 0
8, 241920, Note_on_c, 2, 89, 78
8, 241920, Note_on_c, 2, 92, 78
8, 242112, Note_on_c, 2, 92, 0
8, 242112, Note_on_c, 2, 89, 0
8, 242112, Note_on_c, 2, 89, 78
8, 242112, Note_on_c, 2, 93, 78
8, 242304, Note_on_c, 2, 93, 0
8, 242304, Note_on_c, 2, 89, 0
8, 242304, Note_on_c, 2, 94, 83
8, 242304, Note_on_c, 2, 89, 78
8, 242400, Note_on_c, 2, 89, 0
8, 242400, Note_on_c, 2, 94, 0
8, 242400, Note_on_c, 2, 92, 78
8, 242496, Note_on_c, 2, 92, 0
8, 242496, Note_on_c, 2, 91, 78
8, 242592, Note_on_c, 2, 91, 0
8, 242592, Note_on_c, 2, 89, 78
8, 242688, Note_on_c, 2, 89, 0
8, 242688, Note_on_c, 2, 91, 78
8, 242784, Note_on_c, 2, 91, 0
8, 242784, Note_on_c, 2, 89, 78
8, 242880, Note_on_c, 2, 89, 0
8, 242880, Note_on_c, 2, 87, 78
8, 242976, Note_on_c, 2, 87, 0
8, 242976, Note_on_c, 2, 86, 78
8, 243072, Note_on_c, 2, 86, 0
8, 243072, Note_on_c, 2, 89, 78
8, 243168, Note_on_c, 2, 89, 0
8, 243168, Note_on_c, 2, 87, 78
8, 243264, Note_on_c, 2, 87, 0
8, 243264, Note_on_c, 2, 86, 78
8, 243360, Note_on_c, 2, 86, 0
8, 243360, Note_on_c, 2, 84, 78
8, 243456, Note_on_c, 2, 84, 0
8, 243456, Note_on_c, 2, 87, 78
8, 243552, Note_on_c, 2, 87, 0
8, 243552, Note_on_c, 2, 86, 78
8, 243648, Note_on_c, 2, 86, 0
8, 243648, Note_on_c, 2, 84, 78
8, 243744, Note_on_c, 2, 84, 0
8, 243744, Note_on_c, 2, 82, 78
8, 243840, Note_on_c, 2, 82, 0
8, 243840, Note_on_c, 2, 91, 78
8, 243936, Note_on_c, 2, 91, 0
8, 243936, Note_on_c, 2, 89, 78
8, 244032, Note_on_c, 2, 89, 0
8, 244032, Note_on_c, 2, 87, 78
8, 244128, Note_on_c, 2, 87, 0
8, 244128, Note_on_c, 2, 86, 78
8, 244224, Note_on_c, 2, 86, 0
8, 244224, Note_on_c, 2, 89, 78
8, 244320, Note_on_c, 2, 89, 0
8, 244320, Note_on_c, 2, 87, 78
8, 244416, Note_on_c, 2, 87, 0
8, 244416, Note_on_c, 2, 86, 78
8, 244512, Note_on_c, 2, 86, 0
8, 244512, Note_on_c, 2, 84, 78
8, 244608, Note_on_c, 2, 84, 0
8, 244608, Note_on_c, 2, 87, 78
8, 244704, Note_on_c, 2, 87, 0
8, 244704, Note_on_c, 2, 86, 78
8, 244800, Note_on_c, 2, 86, 0
8, 244800, Note_on_c, 2, 84, 78
8, 244896, Note_on_c, 2, 84, 0
8, 244896, Note_on_c, 2, 82, 78
8, 244992, Note_on_c, 2, 82, 0
8, 244992, Note_on_c, 2, 86, 78
8, 245088, Note_on_c, 2, 86, 0
8, 245088, Note_on_c, 2, 84, 78
8, 245184, Note_on_c, 2, 84, 0
8, 245184, Note_on_c, 2, 82, 78
8, 245280, Note_on_c, 2, 82, 0
8, 245280, Note_on_c, 2, 80, 78
8, 245376, Note_on_c, 2, 80, 0
8, 245376, Note_on_c, 2, 89, 78
8, 245472, Note_on_c, 2, 89, 0
8, 245472, Note_on_c, 2, 87, 78
8, 245568, Note_on_c, 2, 87, 0
8, 245568, Note_on_c, 2, 86, 78
8, 245664, Note_on_c, 2, 86, 0
8, 245664, Note_on_c, 2, 84, 78
8, 245760, Note_on_c, 2, 84, 0
8, 245760, Note_on_c, 2, 87, 78
8, 245856, Note_on_c, 2, 87, 0
8, 245856, Note_on_c, 2, 86, 78
8, 245952, Note_on_c, 2, 86, 0
8, 245952, Note_on_c, 2, 84, 78
8, 246048, Note_on_c, 2, 84, 0
8, 246048, Note_on_c, 2, 82, 78
8, 246144, Note_on_c, 2, 82, 0
8, 246144, Note_on_c, 2, 87, 78
8, 246240, Note_on_c, 2, 87, 0
8, 246240, Note_on_c, 2, 86, 78
8, 246336, Note_on_c, 2, 86, 0
8, 246336, Note_on_c, 2, 84, 78
8, 246432, Note_on_c, 2, 84, 0
8, 246432, Note_on_c, 2, 82, 78
8, 246528, Note_on_c, 2, 82, 0
8, 246528, Note_on_c, 2, 86, 78
8, 246624, Note_on_c, 2, 86, 0
8, 246624, Note_on_c, 2, 84, 78
8, 246720, Note_on_c, 2, 84, 0
8, 246720, Note_on_c, 2, 82, 78
8, 246816, Note_on_c, 2, 82, 0
8, 246816, Note_on_c, 2, 80, 78
8, 246912, Note_on_c, 2, 80, 0
8, 246912, Note_on_c, 2, 86, 78
8, 247008, Note_on_c, 2, 86, 0
8, 247008, Note_on_c, 2, 84, 78
8, 247104, Note_on_c, 2, 84, 0
8, 247104, Note_on_c, 2, 82, 78
8, 247200, Note_on_c, 2, 82, 0
8, 247200, Note_on_c, 2, 80, 78
8, 247296, Note_on_c, 2, 80, 0
8, 247296, Note_on_c, 2, 84, 78
8, 247392, Note_on_c, 2, 84, 0
8, 247392, Note_on_c, 2, 82, 78
8, 247488, Note_on_c, 2, 82, 0
8, 247488, Note_on_c, 2, 80, 78
8, 247584, Note_on_c, 2, 80, 0
8, 247584, Note_on_c, 2, 79, 78
8, 247680, Note_on_c, 2, 79, 0
8, 247680, Note_on_c, 2, 84, 78
8, 247776, Note_on_c, 2, 84, 0
8, 247776, Note_on_c, 2, 82, 78
8, 247872, Note_on_c, 2, 82, 0
8, 247872, Note_on_c, 2, 80, 78
8, 247968, Note_on_c, 2, 80, 0
8, 247968, Note_on_c, 2, 79, 78
8, 248064, Note_on_c, 2, 79, 0
8, 248064, Note_on_c, 2, 82, 78
8, 248160, Note_on_c, 2, 82, 0
8, 248160, Note_on_c, 2, 80, 78
8, 248256, Note_on_c, 2, 80, 0
8, 248256, Note_on_c, 2, 79, 78
8, 248352, Note_on_c, 2, 79, 0
8, 248352, Note_on_c, 2, 77, 78
8, 248448, Note_on_c, 2, 77, 0
8, 248448, Note_on_c, 2, 82, 78
8, 248544, Note_on_c, 2, 82, 0
8, 248544, Note_on_c, 2, 80, 78
8, 248640, Note_on_c, 2, 80, 0
8, 248640, Note_on_c, 2, 79, 78
8, 248736, Note_on_c, 2, 79, 0
8, 248736, Note_on_c, 2, 77, 78
8, 248832, Note_on_c, 2, 77, 0
8, 248832, Note_on_c, 2, 80, 78
8, 248928, Note_on_c, 2, 80, 0
8, 248928, Note_on_c, 2, 79, 78
8, 249024, Note_on_c, 2, 79, 0
8, 249024, Note_on_c, 2, 77, 78
8, 249120, Note_on_c, 2, 77, 0
8, 249120, Note_on_c, 2, 75, 78
8, 249216, Note_on_c, 2, 75, 0
8, 249216, Note_on_c, 2, 80, 78
8, 249312, Note_on_c, 2, 80, 0
8, 249312, Note_on_c, 2, 79, 78
8, 249408, Note_on_c, 2, 79, 0
8, 249408, Note_on_c, 2, 77, 78
8, 249504, Note_on_c, 2, 77, 0
8, 249504, Note_on_c, 2, 75, 78
8, 249600, Note_on_c, 2, 75, 0
8, 249600, Note_on_c, 2, 79, 78
8, 249696, Note_on_c, 2, 79, 0
8, 249696, Note_on_c, 2, 77, 78
8, 249792, Note_on_c, 2, 77, 0
8, 249792, Note_on_c, 2, 75, 78
8, 249888, Note_on_c, 2, 75, 0
8, 249888, Note_on_c, 2, 74, 78
8, 249984, Note_on_c, 2, 74, 0
8, 249984, Note_on_c, 2, 79, 78
8, 250080, Note_on_c, 2, 79, 0
8, 250080, Note_on_c, 2, 77, 78
8, 250176, Note_on_c, 2, 77, 0
8, 250176, Note_on_c, 2, 75, 78
8, 250272, Note_on_c, 2, 75, 0
8, 250272, Note_on_c, 2, 74, 78
8, 250368, Note_on_c, 2, 74, 0
8, 250368, Note_on_c, 2, 77, 78
8, 250464, Note_on_c, 2, 77, 0
8, 250464, Note_on_c, 2, 75, 78
8, 250560, Note_on_c, 2, 75, 0
8, 250560, Note_on_c, 2, 74, 78
8, 250656, Note_on_c, 2, 74, 0
8, 250656, Note_on_c, 2, 72, 78
8, 250752, Note_on_c, 2, 72, 0
8, 250752, Note_on_c, 2, 77, 78
8, 250848, Note_on_c, 2, 77, 0
8, 250848, Note_on_c, 2, 75, 78
8, 250944, Note_on_c, 2, 75, 0
8, 250944, Note_on_c, 2, 74, 78
8, 251040, Note_on_c, 2, 74, 0
8, 251040, Note_on_c, 2, 72, 78
8, 251136, Note_on_c, 2, 72, 0
8, 251136, Note_on_c, 2, 75, 78
8, 251232, Note_on_c, 2, 75, 0
8, 251232, Note_on_c, 2, 74, 78
8, 251328, Note_on_c, 2, 74, 0
8, 251328, Note_on_c, 2, 72, 78
8, 251424, Note_on_c, 2, 72, 0
8, 251424, Note_on_c, 2, 70, 78
8, 251520, Note_on_c, 2, 70, 0
8, 251520, Note_on_c, 2, 75, 78
8, 251616, Note_on_c, 2, 75, 0
8, 251616, Note_on_c, 2, 74, 78
8, 251712, Note_on_c, 2, 74, 0
8, 251712, Note_on_c, 2, 72, 78
8, 251808, Note_on_c, 2, 72, 0
8, 251808, Note_on_c, 2, 70, 78
8, 251904, Note_on_c, 2, 70, 0
8, 251904, Note_on_c, 2, 75, 78
8, 252000, Note_on_c, 2, 75, 0
8, 252000, Note_on_c, 2, 74, 78
8, 252096, Note_on_c, 2, 74, 0
8, 252096, Note_on_c, 2, 72, 78
8, 252192, Note_on_c, 2, 72, 0
8, 252192, Note_on_c, 2, 70, 78
8, 252288, Note_on_c, 2, 70, 0
8, 252288, Note_on_c, 2, 74, 78
8, 252384, Note_on_c, 2, 74, 0
8, 252384, Note_on_c, 2, 72, 78
8, 252480, Note_on_c, 2, 72, 0
8, 252480, Note_on_c, 2, 70, 78
8, 252576, Note_on_c, 2, 70, 0
8, 252576, Note_on_c, 2, 68, 78
8, 252672, Note_on_c, 2, 68, 0
8, 252672, Note_on_c, 2, 74, 78
8, 252768, Note_on_c, 2, 74, 0
8, 252768, Note_on_c, 2, 72, 78
8, 252864, Note_on_c, 2, 72, 0
8, 252864, Note_on_c, 2, 70, 78
8, 252960, Note_on_c, 2, 70, 0
8, 252960, Note_on_c, 2, 68, 78
8, 253056, Note_on_c, 2, 68, 0
8, 253056, Note_on_c, 2, 74, 78
8, 253152, Note_on_c, 2, 74, 0
8, 253152, Note_on_c, 2, 72, 78
8, 253248, Note_on_c, 2, 72, 0
8, 253248, Note_on_c, 2, 70, 78
8, 253344, Note_on_c, 2, 70, 0
8, 253344, Note_on_c, 2, 68, 78
8, 253440, Note_on_c, 2, 68, 0
8, 253440, Note_on_c, 2, 72, 78
8, 253536, Note_on_c, 2, 72, 0
8, 253536, Note_on_c, 2, 70, 78
8, 253632, Note_on_c, 2, 70, 0
8, 253632, Note_on_c, 2, 68, 78
8, 253728, Note_on_c, 2, 68, 0
8, 253728, Note_on_c, 2, 67, 78
8, 253824, Note_on_c, 2, 67, 0
8, 253824, Note_on_c, 2, 72, 78
8, 253920, Note_on_c, 2, 72, 0
8, 253920, Note_on_c, 2, 70, 78
8, 254016, Note_on_c, 2, 70, 0
8, 254016, Note_on_c, 2, 68, 78
8, 254112, Note_on_c, 2, 68, 0
8, 254112, Note_on_c, 2, 67, 78
8, 254208, Note_on_c, 2, 67, 0
8, 254208, Note_on_c, 2, 72, 78
8, 254304, Note_on_c, 2, 72, 0
8, 254304, Note_on_c, 2, 70, 78
8, 254400, Note_on_c, 2, 70, 0
8, 254400, Note_on_c, 2, 68, 78
8, 254496, Note_on_c, 2, 68, 0
8, 254496, Note_on_c, 2, 67, 78
8, 254592, Note_on_c, 2, 67, 0
8, 254592, Note_on_c, 2, 70, 78
8, 254688, Note_on_c, 2, 70, 0
8, 254688, Note_on_c, 2, 68, 78
8, 254784, Note_on_c, 2, 68, 0
8, 254784, Note_on_c, 2, 67, 78
8, 254880, Note_on_c, 2, 67, 0
8, 254880, Note_on_c, 2, 65, 78
8, 254976, Note_on_c, 2, 65, 0
8, 254976, Note_on_c, 2, 70, 78
8, 255072, Note_on_c, 2, 70, 0
8, 255072, Note_on_c, 2, 68, 78
8, 255168, Note_on_c, 2, 68, 0
8, 255168, Note_on_c, 2, 67, 78
8, 255264, Note_on_c, 2, 67, 0
8, 255264, Note_on_c, 2, 65, 78
8, 255360, Note_on_c, 2, 65, 0
8, 255360, Note_on_c, 2, 70, 78
8, 255456, Note_on_c, 2, 70, 0
8, 255456, Note_on_c, 2, 68, 78
8, 255552, Note_on_c, 2, 68, 0
8, 255552, Note_on_c, 2, 67, 78
8, 255648, Note_on_c, 2, 67, 0
8, 255648, Note_on_c, 2, 65, 78
8, 255744, Note_on_c, 2, 65, 0
8, 255744, Note_on_c, 2, 68, 78
8, 255840, Note_on_c, 2, 68, 0
8, 255840, Note_on_c, 2, 67, 78
8, 255936, Note_on_c, 2, 67, 0
8, 255936, Note_on_c, 2, 65, 78
8, 256032, Note_on_c, 2, 65, 0
8, 256032, Note_on_c, 2, 63, 78
8, 256128, Note_on_c, 2, 63, 0
8, 256128, Note_on_c, 2, 68, 78
8, 256224, Note_on_c, 2, 68, 0
8, 256224, Note_on_c, 2, 67, 78
8, 256320, Note_on_c, 2, 67, 0
8, 256320, Note_on_c, 2, 65, 78
8, 256416, Note_on_c, 2, 65, 0
8, 256416, Note_on_c, 2, 63, 78
8, 256512, Note_on_c, 2, 63, 0
8, 256512, Note_on_c, 2, 68, 78
8, 256608, Note_on_c, 2, 68, 0
8, 256608, Note_on_c, 2, 67, 78
8, 256704, Note_on_c, 2, 67, 0
8, 256704, Note_on_c, 2, 65, 78
8, 256800, Note_on_c, 2, 65, 0
8, 256800, Note_on_c, 2, 63, 78
8, 256896, Note_on_c, 2, 63, 0
8, 256896, Note_on_c, 2, 67, 78
8, 256992, Note_on_c, 2, 67, 0
8, 256992, Note_on_c, 2, 65, 78
8, 257088, Note_on_c, 2, 65, 0
8, 257088, Note_on_c, 2, 63, 78
8, 257184, Note_on_c, 2, 63, 0
8, 257184, Note_on_c, 2, 62, 78
8, 257280, Note_on_c, 2, 62, 0
8, 257280, Note_on_c, 2, 67, 78
8, 257376, Note_on_c, 2, 67, 0
8, 257376, Note_on_c, 2, 65, 78
8, 257472, Note_on_c, 2, 65, 0
8, 257472, Note_on_c, 2, 63, 78
8, 257568, Note_on_c, 2, 63, 0
8, 257568, Note_on_c, 2, 62, 78
8, 257664, Note_on_c, 2, 62, 0
8, 257664, Note_on_c, 2, 67, 78
8, 257760, Note_on_c, 2, 67, 0
8, 257760, Note_on_c, 2, 65, 78
8, 257856, Note_on_c, 2, 65, 0
8, 257856, Note_on_c, 2, 75, 78
8, 257952, Note_on_c, 2, 75, 0
8, 257952, Note_on_c, 2, 75, 78
8, 258048, Note_on_c, 2, 75, 0
8, 258048, Note_on_c, 2, 77, 78
8, 258240, Note_on_c, 2, 77, 0
8, 258240, Note_on_c, 2, 79, 78
8, 258432, Note_on_c, 2, 79, 0
8, 258432, Note_on_c, 2, 75, 78
8, 258528, Note_on_c, 2, 75, 0
8, 258528, Note_on_c, 2, 75, 78
8, 258624, Note_on_c, 2, 75, 0
8, 258624, Note_on_c, 2, 77, 78
8, 258720, Note_on_c, 2, 77, 0
8, 258720, Note_on_c, 2, 79, 78
8, 258816, Note_on_c, 2, 79, 0
8, 258816, Note_on_c, 2, 80, 78
8, 258912, Note_on_c, 2, 80, 0
8, 258912, Note_on_c, 2, 80, 78
8, 259008, Note_on_c, 2, 80, 0
8, 259008, Note_on_c, 2, 80, 78
8, 259248, Note_on_c, 2, 80, 0
8, 259248, Note_on_c, 2, 80, 78
8, 259248, Note_on_c, 2, 75, 78
8, 259296, Note_on_c, 2, 75, 0
8, 259296, Note_on_c, 2, 80, 0
8, 259296, Note_on_c, 2, 77, 78
8, 259296, Note_on_c, 2, 82, 78
8, 259344, Note_on_c, 2, 82, 0
8, 259344, Note_on_c, 2, 77, 0
8, 259344, Note_on_c, 2, 79, 78
8, 259344, Note_on_c, 2, 84, 78
8, 259392, Note_on_c, 2, 84, 0
8, 259392, Note_on_c, 2, 79, 0
8, 259392, Note_on_c, 2, 85, 78
8, 259392, Note_on_c, 2, 80, 78
8, 259440, Note_on_c, 2, 80, 0
8, 259440, Note_on_c, 2, 85, 0
8, 259440, Note_on_c, 2, 82, 78
8, 259440, Note_on_c, 2, 87, 78
8, 259488, Note_on_c, 2, 87, 0
8, 259488, Note_on_c, 2, 82, 0
8, 259488, Note_on_c, 2, 89, 78
8, 259488, Note_on_c, 2, 84, 78
8, 259536, Note_on_c, 2, 84, 0
8, 259536, Note_on_c, 2, 89, 0
8, 259536, Note_on_c, 2, 85, 78
8, 259536, Note_on_c, 2, 91, 78
8, 259584, Note_on_c, 2, 91, 0
8, 259584, Note_on_c, 2, 85, 0
8, 259584, Note_on_c, 2, 92, 78
8, 259584, Note_on_c, 2, 87, 78
8, 259632, Note_on_c, 2, 87, 0
8, 259632, Note_on_c, 2, 92, 0
8, 259632, Note_on_c, 2, 91, 78
8, 259632, Note_on_c, 2, 85, 78
8, 259680, Note_on_c, 2, 85, 0
8, 259680, Note_on_c, 2, 91, 0
8, 259680, Note_on_c, 2, 89, 78
8, 259680, Note_on_c, 2, 84, 78
8, 259728, Note_on_c, 2, 84, 0
8, 259728, Note_on_c, 2, 89, 0
8, 259728, Note_on_c, 2, 87, 78
8, 259728, Note_on_c, 2, 82, 78
8, 259776, Note_on_c, 2, 82, 0
8, 259776, Note_on_c, 2, 87, 0
8, 259776, Note_on_c, 2, 91, 78
8, 259824, Note_on_c, 2, 91, 0
8, 259824, Note_on_c, 2, 89, 78
8, 259872, Note_on_c, 2, 89, 0
8, 259872, Note_on_c, 2, 87, 78
8, 259920, Note_on_c, 2, 87, 0
8, 259920, Note_on_c, 2, 86, 78
8, 259968, Note_on_c, 2, 86, 0
8, 259968, Note_on_c, 2, 84, 78
8, 259968, Note_on_c, 2, 89, 78
8, 260016, Note_on_c, 2, 89, 0
8, 260016, Note_on_c, 2, 84, 0
8, 260016, Note_on_c, 2, 87, 78
8, 260016, Note_on_c, 2, 82, 78
8, 260064, Note_on_c, 2, 82, 0
8, 260064, Note_on_c, 2, 87, 0
8, 260064, Note_on_c, 2, 86, 78
8, 260064, Note_on_c, 2, 80, 78
8, 260112, Note_on_c, 2, 80, 0
8, 260112, Note_on_c, 2, 86, 0
8, 260112, Note_on_c, 2, 84, 78
8, 260112, Note_on_c, 2, 79, 78
8, 260160, Note_on_c, 2, 79, 0
8, 260160, Note_on_c, 2, 84, 0
8, 260160, Note_on_c, 2, 77, 78
8, 260160, Note_on_c, 2, 82, 78
8, 260208, Note_on_c, 2, 82, 0
8, 260208, Note_on_c, 2, 77, 0
8, 260208, Note_on_c, 2, 80, 78
8, 260208, Note_on_c, 2, 75, 78
8, 260256, Note_on_c, 2, 75, 0
8, 260256, Note_on_c, 2, 80, 0
8, 260256, Note_on_c, 2, 79, 78
8, 260256, Note_on_c, 2, 74, 78
8, 260304, Note_on_c, 2, 74, 0
8, 260304, Note_on_c, 2, 79, 0
8, 260304, Note_on_c, 2, 72, 78
8, 260304, Note_on_c, 2, 77, 78
8, 260352, Note_on_c, 2, 77, 0
8, 260352, Note_on_c, 2, 72, 0
8, 260352, Note_on_c, 2, 79, 78
8, 260448, Note_on_c, 2, 79, 0
8, 260448, Note_on_c, 2, 79, 78
8, 260544, Note_on_c, 2, 79, 0
8, 260544, Note_on_c, 2, 79, 78
8, 260640, Note_on_c, 2, 79, 0
8, 260640, Note_on_c, 2, 79, 78
8, 260736, Note_on_c, 2, 79, 0
8, 260736, Note_on_c, 2, 79, 78
8, 261120, Note_on_c, 2, 79, 0
8, 261120, Note_on_c, 2, 79, 78
8, 261312, Note_on_c, 2, 79, 0
8, 261312, Note_on_c, 2, 79, 78
8, 261504, Note_on_c, 2, 79, 0
8, 261504, Note_on_c, 2, 77, 78
8, 261792, Note_on_c, 2, 77, 0
8, 261792, Note_on_c, 2, 77, 78
8, 261888, Note_on_c, 2, 77, 0
8, 261888, Note_on_c, 2, 77, 78
8, 261984, Note_on_c, 2, 77, 0
8, 261984, Note_on_c, 2, 77, 78
8, 262080, Note_on_c, 2, 77, 0
8, 262080, Note_on_c, 2, 79, 78
8, 262128, Note_on_c, 2, 79, 0
8, 262128, Note_on_c, 2, 75, 78
8, 262128, Note_on_c, 2, 70, 78
8, 262176, Note_on_c, 2, 70, 0
8, 262176, Note_on_c, 2, 75, 0
8, 262176, Note_on_c, 2, 72, 78
8, 262176, Note_on_c, 2, 77, 78
8, 262224, Note_on_c, 2, 77, 0
8, 262224, Note_on_c, 2, 72, 0
8, 262224, Note_on_c, 2, 79, 78
8, 262224, Note_on_c, 2, 74, 78
8, 262272, Note_on_c, 2, 74, 0
8, 262272, Note_on_c, 2, 79, 0
8, 262272, Note_on_c, 2, 75, 78
8, 262272, Note_on_c, 2, 80, 78
8, 262320, Note_on_c, 2, 80, 0
8, 262320, Note_on_c, 2, 75, 0
8, 262320, Note_on_c, 2, 77, 78
8, 262320, Note_on_c, 2, 82, 78
8, 262368, Note_on_c, 2, 82, 0
8, 262368, Note_on_c, 2, 77, 0
8, 262368, Note_on_c, 2, 79, 78
8, 262416, Note_on_c, 2, 79, 0
8, 262416, Note_on_c, 2, 80, 78
8, 262416, Note_on_c, 2, 86, 78
8, 262464, Note_on_c, 2, 86, 0
8, 262464, Note_on_c, 2, 80, 0
8, 262464, Note_on_c, 2, 87, 78
8, 262464, Note_on_c, 2, 82, 78
8, 262512, Note_on_c, 2, 82, 0
8, 262512, Note_on_c, 2, 87, 0
8, 262512, Note_on_c, 2, 80, 78
8, 262512, Note_on_c, 2, 86, 78
8, 262560, Note_on_c, 2, 86, 0
8, 262560, Note_on_c, 2, 80, 0
8, 262560, Note_on_c, 2, 79, 78
8, 262560, Note_on_c, 2, 84, 78
8, 262608, Note_on_c, 2, 84, 0
8, 262608, Note_on_c, 2, 79, 0
8, 262608, Note_on_c, 2, 82, 78
8, 262608, Note_on_c, 2, 77, 78
8, 262656, Note_on_c, 2, 77, 0
8, 262656, Note_on_c, 2, 82, 0
8, 262656, Note_on_c, 2, 91, 78
8, 262656, Note_on_c, 2, 86, 78
8, 262704, Note_on_c, 2, 86, 0
8, 262704, Note_on_c, 2, 91, 0
8, 262704, Note_on_c, 2, 89, 78
8, 262704, Note_on_c, 2, 84, 78
8, 262752, Note_on_c, 2, 84, 0
8, 262752, Note_on_c, 2, 89, 0
8, 262752, Note_on_c, 2, 87, 78
8, 262752, Note_on_c, 2, 82, 78
8, 262800, Note_on_c, 2, 82, 0
8, 262800, Note_on_c, 2, 87, 0
8, 262800, Note_on_c, 2, 80, 78
8, 262800, Note_on_c, 2, 86, 78
8, 262848, Note_on_c, 2, 86, 0
8, 262848, Note_on_c, 2, 80, 0
8, 262848, Note_on_c, 2, 84, 78
8, 262848, Note_on_c, 2, 89, 78
8, 262896, Note_on_c, 2, 89, 0
8, 262896, Note_on_c, 2, 84, 0
8, 262896, Note_on_c, 2, 87, 78
8, 262896, Note_on_c, 2, 82, 78
8, 262944, Note_on_c, 2, 82, 0
8, 262944, Note_on_c, 2, 87, 0
8, 262944, Note_on_c, 2, 86, 78
8, 262944, Note_on_c, 2, 80, 78
8, 262992, Note_on_c, 2, 80, 0
8, 262992, Note_on_c, 2, 86, 0
8, 262992, Note_on_c, 2, 79, 78
8, 262992, Note_on_c, 2, 84, 78
8, 263040, Note_on_c, 2, 84, 0
8, 263040, Note_on_c, 2, 79, 0
8, 263040, Note_on_c, 2, 87, 78
8, 263040, Note_on_c, 2, 82, 78
8, 263088, Note_on_c, 2, 82, 0
8, 263088, Note_on_c, 2, 87, 0
8, 263088, Note_on_c, 2, 80, 78
8, 263088, Note_on_c, 2, 86, 78
8, 263136, Note_on_c, 2, 86, 0
8, 263136, Note_on_c, 2, 80, 0
8, 263136, Note_on_c, 2, 84, 78
8, 263136, Note_on_c, 2, 79, 78
8, 263184, Note_on_c, 2, 79, 0
8, 263184, Note_on_c, 2, 84, 0
8, 263184, Note_on_c, 2, 77, 78
8, 263184, Note_on_c, 2, 82, 78
8, 263232, Note_on_c, 2, 82, 0
8, 263232, Note_on_c, 2, 77, 0
8, 263232, Note_on_c, 2, 84, 78
8, 263232, Note_on_c, 2, 79, 78
8, 263280, Note_on_c, 2, 79, 0
8, 263280, Note_on_c, 2, 84, 0
8, 263280, Note_on_c, 2, 82, 78
8, 263280, Note_on_c, 2, 77, 78
8, 263328, Note_on_c, 2, 77, 0
8, 263328, Note_on_c, 2, 82, 0
8, 263328, Note_on_c, 2, 75, 78
8, 263328, Note_on_c, 2, 80, 78
8, 263376, Note_on_c, 2, 80, 0
8, 263376, Note_on_c, 2, 75, 0
8, 263376, Note_on_c, 2, 74, 78
8, 263376, Note_on_c, 2, 79, 78
8, 263424, Note_on_c, 2, 79, 0
8, 263424, Note_on_c, 2, 74, 0
8, 263424, Note_on_c, 2, 82, 78
8, 263424, Note_on_c, 2, 77, 78
8, 263472, Note_on_c, 2, 77, 0
8, 263472, Note_on_c, 2, 82, 0
8, 263472, Note_on_c, 2, 80, 78
8, 263472, Note_on_c, 2, 75, 78
8, 263520, Note_on_c, 2, 75, 0
8, 263520, Note_on_c, 2, 80, 0
8, 263520, Note_on_c, 2, 74, 78
8, 263520, Note_on_c, 2, 79, 78
8, 263568, Note_on_c, 2, 79, 0
8, 263568, Note_on_c, 2, 74, 0
8, 263568, Note_on_c, 2, 77, 78
8, 263568, Note_on_c, 2, 72, 78
8, 263616, Note_on_c, 2, 72, 0
8, 263616, Note_on_c, 2, 77, 0
8, 263616, Note_on_c, 2, 75, 78
8, 263808, Note_on_c, 2, 75, 0
8, 263808, Note_on_c, 2, 77, 78
8, 264000, Note_on_c, 2, 77, 0
8, 264000, Note_on_c, 2, 79, 78
8, 264192, Note_on_c, 2, 79, 0
8, 264192, Note_on_c, 2, 75, 78
8, 264384, Note_on_c, 2, 75, 0
8, 264384, Note_on_c, 2, 77, 78
8, 264480, Note_on_c, 2, 77, 0
8, 264480, Note_on_c, 2, 79, 78
8, 264576, Note_on_c, 2, 79, 0
8, 264576, Note_on_c, 2, 80, 78
8, 264672, Note_on_c, 2, 80, 0
8, 264672, Note_on_c, 2, 80, 78
8, 264768, Note_on_c, 2, 80, 0
8, 264768, Note_on_c, 2, 80, 78
8, 264864, Note_on_c, 2, 80, 0
8, 264864, Note_on_c, 2, 80, 78
8, 264960, Note_on_c, 2, 80, 0
8, 264960, Note_on_c, 2, 80, 78
8, 265056, Note_on_c, 2, 80, 0
8, 265056, Note_on_c, 2, 80, 78
8, 265152, Note_on_c, 2, 80, 0
8, 265152, Note_on_c, 2, 80, 78
8, 265248, Note_on_c, 2, 80, 0
8, 265248, Note_on_c, 2, 80, 78
8, 265344, Note_on_c, 2, 80, 0
8, 265344, Note_on_c, 2, 80, 78
8, 265440, Note_on_c, 2, 80, 0
8, 265440, Note_on_c, 2, 80, 78
8, 265536, Note_on_c, 2, 80, 0
8, 265536, Note_on_c, 2, 80, 78
8, 265632, Note_on_c, 2, 80, 0
8, 265632, Note_on_c, 2, 80, 78
8, 265728, Note_on_c, 2, 80, 0
8, 265728, Note_on_c, 2, 80, 78
8, 265824, Note_on_c, 2, 80, 0
8, 265824, Note_on_c, 2, 79, 78
8, 265920, Note_on_c, 2, 79, 0
8, 265920, Note_on_c, 2, 80, 78
8, 266160, Note_on_c, 2, 80, 0
8, 266160, Note_on_c, 2, 80, 78
8, 266160, Note_on_c, 2, 75, 78
8, 266208, Note_on_c, 2, 75, 0
8, 266208, Note_on_c, 2, 80, 0
8, 266208, Note_on_c, 2, 82, 78
8, 266208, Note_on_c, 2, 77, 78
8, 266256, Note_on_c, 2, 77, 0
8, 266256, Note_on_c, 2, 82, 0
8, 266256, Note_on_c, 2, 79, 78
8, 266256, Note_on_c, 2, 84, 78
8, 266304, Note_on_c, 2, 84, 0
8, 266304, Note_on_c, 2, 79, 0
8, 266304, Note_on_c, 2, 85, 78
8, 266304, Note_on_c, 2, 80, 78
8, 266352, Note_on_c, 2, 80, 0
8, 266352, Note_on_c, 2, 85, 0
8, 266352, Note_on_c, 2, 82, 78
8, 266352, Note_on_c, 2, 87, 78
8, 266400, Note_on_c, 2, 87, 0
8, 266400, Note_on_c, 2, 82, 0
8, 266400, Note_on_c, 2, 89, 78
8, 266400, Note_on_c, 2, 84, 78
8, 266448, Note_on_c, 2, 84, 0
8, 266448, Note_on_c, 2, 89, 0
8, 266448, Note_on_c, 2, 91, 78
8, 266448, Note_on_c, 2, 85, 78
8, 266496, Note_on_c, 2, 85, 0
8, 266496, Note_on_c, 2, 91, 0
8, 266496, Note_on_c, 2, 87, 78
8, 266496, Note_on_c, 2, 92, 78
8, 266544, Note_on_c, 2, 92, 0
8, 266544, Note_on_c, 2, 87, 0
8, 266544, Note_on_c, 2, 85, 78
8, 266544, Note_on_c, 2, 91, 78
8, 266592, Note_on_c, 2, 91, 0
8, 266592, Note_on_c, 2, 85, 0
8, 266592, Note_on_c, 2, 84, 78
8, 266592, Note_on_c, 2, 89, 78
8, 266640, Note_on_c, 2, 89, 0
8, 266640, Note_on_c, 2, 84, 0
8, 266640, Note_on_c, 2, 82, 78
8, 266640, Note_on_c, 2, 87, 78
8, 266688, Note_on_c, 2, 87, 0
8, 266688, Note_on_c, 2, 82, 0
8, 266688, Note_on_c, 2, 89, 78
8, 266688, Note_on_c, 2, 84, 78
8, 266736, Note_on_c, 2, 84, 0
8, 266736, Note_on_c, 2, 89, 0
8, 266736, Note_on_c, 2, 91, 78
8, 266736, Note_on_c, 2, 86, 78
8, 266784, Note_on_c, 2, 86, 0
8, 266784, Note_on_c, 2, 91, 0
8, 266784, Note_on_c, 2, 89, 78
8, 266784, Note_on_c, 2, 84, 78
8, 266832, Note_on_c, 2, 84, 0
8, 266832, Note_on_c, 2, 89, 0
8, 266832, Note_on_c, 2, 87, 78
8, 266832, Note_on_c, 2, 82, 78
8, 266880, Note_on_c, 2, 82, 0
8, 266880, Note_on_c, 2, 87, 0
8, 266880, Note_on_c, 2, 86, 78
8, 266880, Note_on_c, 2, 80, 78
8, 266928, Note_on_c, 2, 80, 0
8, 266928, Note_on_c, 2, 86, 0
8, 266928, Note_on_c, 2, 82, 78
8, 266928, Note_on_c, 2, 87, 78
8, 266976, Note_on_c, 2, 87, 0
8, 266976, Note_on_c, 2, 82, 0
8, 266976, Note_on_c, 2, 80, 78
8, 266976, Note_on_c, 2, 86, 78
8, 267024, Note_on_c, 2, 86, 0
8, 267024, Note_on_c, 2, 80, 0
8, 267024, Note_on_c, 2, 79, 78
8, 267024, Note_on_c, 2, 84, 78
8, 267072, Note_on_c, 2, 84, 0
8, 267072, Note_on_c, 2, 79, 0
8, 267072, Note_on_c, 2, 77, 78
8, 267072, Note_on_c, 2, 82, 78
8, 267120, Note_on_c, 2, 82, 0
8, 267120, Note_on_c, 2, 77, 0
8, 267120, Note_on_c, 2, 84, 78
8, 267120, Note_on_c, 2, 79, 78
8, 267168, Note_on_c, 2, 79, 0
8, 267168, Note_on_c, 2, 84, 0
8, 267168, Note_on_c, 2, 77, 78
8, 267168, Note_on_c, 2, 82, 78
8, 267216, Note_on_c, 2, 82, 0
8, 267216, Note_on_c, 2, 77, 0
8, 267216, Note_on_c, 2, 80, 78
8, 267216, Note_on_c, 2, 75, 78
8, 267264, Note_on_c, 2, 75, 0
8, 267264, Note_on_c, 2, 80, 0
8, 267264, Note_on_c, 2, 79, 78
8, 267360, Note_on_c, 2, 79, 0
8, 267360, Note_on_c, 2, 79, 78
8, 267456, Note_on_c, 2, 79, 0
8, 267456, Note_on_c, 2, 79, 78
8, 267552, Note_on_c, 2, 79, 0
8, 267552, Note_on_c, 2, 79, 78
8, 267648, Note_on_c, 2, 79, 0
8, 267648, Note_on_c, 2, 79, 78
8, 268032, Note_on_c, 2, 79, 0
8, 268032, Note_on_c, 2, 79, 78
8, 268224, Note_on_c, 2, 79, 0
8, 268224, Note_on_c, 2, 79, 78
8, 268416, Note_on_c, 2, 79, 0
8, 268416, Note_on_c, 2, 82, 78
8, 268704, Note_on_c, 2, 82, 0
8, 268704, Note_on_c, 2, 79, 78
8, 268800, Note_on_c, 2, 79, 0
8, 268800, Note_on_c, 2, 75, 78
8, 268992, Note_on_c, 2, 75, 0
8, 268992, Note_on_c, 2, 77, 78
8, 268992, Note_on_c, 2, 75, 78
8, 269040, Note_on_c, 2, 75, 0
8, 269040, Note_on_c, 2, 77, 0
8, 269040, Note_on_c, 2, 84, 78
8, 269088, Note_on_c, 2, 84, 0
8, 269088, Note_on_c, 2, 86, 78
8, 269136, Note_on_c, 2, 86, 0
8, 269136, Note_on_c, 2, 87, 78
8, 269184, Note_on_c, 2, 87, 0
8, 269184, Note_on_c, 2, 89, 78
8, 269232, Note_on_c, 2, 89, 0
8, 269232, Note_on_c, 2, 87, 78
8, 269280, Note_on_c, 2, 87, 0
8, 269280, Note_on_c, 2, 89, 78
8, 269328, Note_on_c, 2, 89, 0
8, 269328, Note_on_c, 2, 91, 78
8, 269376, Note_on_c, 2, 91, 0
8, 269376, Note_on_c, 2, 92, 78
8, 269424, Note_on_c, 2, 92, 0
8, 269424, Note_on_c, 2, 89, 78
8, 269472, Note_on_c, 2, 89, 0
8, 269472, Note_on_c, 2, 91, 78
8, 269520, Note_on_c, 2, 91, 0
8, 269520, Note_on_c, 2, 92, 78
8, 269568, Note_on_c, 2, 92, 0
8, 269568, Note_on_c, 2, 94, 78
8, 269616, Note_on_c, 2, 94, 0
8, 269616, Note_on_c, 2, 92, 78
8, 269664, Note_on_c, 2, 92, 0
8, 269664, Note_on_c, 2, 91, 78
8, 269712, Note_on_c, 2, 91, 0
8, 269712, Note_on_c, 2, 89, 78
8, 269760, Note_on_c, 2, 89, 0
8, 269760, Note_on_c, 2, 94, 78
8, 269808, Note_on_c, 2, 94, 0
8, 269808, Note_on_c, 2, 92, 78
8, 269856, Note_on_c, 2, 92, 0
8, 269856, Note_on_c, 2, 91, 78
8, 269904, Note_on_c, 2, 91, 0
8, 269904, Note_on_c, 2, 89, 78
8, 269952, Note_on_c, 2, 89, 0
8, 269952, Note_on_c, 2, 94, 78
8, 270000, Note_on_c, 2, 94, 0
8, 270000, Note_on_c, 2, 92, 78
8, 270048, Note_on_c, 2, 92, 0
8, 270048, Note_on_c, 2, 91, 78
8, 270096, Note_on_c, 2, 91, 0
8, 270096, Note_on_c, 2, 89, 78
8, 270144, Note_on_c, 2, 89, 0
8, 270144, Note_on_c, 2, 87, 78
8, 270240, Note_on_c, 2, 87, 0
8, 270240, Note_on_c, 2, 79, 8
8, 270240, Note_on_c, 2, 82, 78
8, 270288, Note_on_c, 2, 82, 0
8, 270288, Note_on_c, 2, 79, 0
8, 270288, Note_on_c, 2, 79, 78
8, 270288, Note_on_c, 2, 82, 78
8, 270336, Note_on_c, 2, 82, 0
8, 270336, Note_on_c, 2, 79, 0
8, 270336, Note_on_c, 2, 79, 78
8, 270336, Note_on_c, 2, 87, 78
8, 270432, Note_on_c, 2, 87, 0
8, 270432, Note_on_c, 2, 79, 0
8, 270432, Note_on_c, 2, 82, 78
8, 270528, Note_on_c, 2, 82, 0
8, 270528, Note_on_c, 2, 91, 78
8, 270528, Note_on_c, 2, 87, 78
8, 270624, Note_on_c, 2, 87, 0
8, 270624, Note_on_c, 2, 91, 0
8, 270624, Note_on_c, 2, 89, 78
8, 270624, Note_on_c, 2, 82, 78
8, 270720, Note_on_c, 2, 82, 0
8, 270720, Note_on_c, 2, 89, 0
8, 270720, Note_on_c, 2, 79, 78
8, 270720, Note_on_c, 2, 87, 78
8, 270816, Note_on_c, 2, 87, 0
8, 270816, Note_on_c, 2, 79, 0
8, 270816, Note_on_c, 2, 82, 78
8, 270816, Note_on_c, 2, 89, 78
8, 270912, Note_on_c, 2, 89, 0
8, 270912, Note_on_c, 2, 82, 0
8, 270912, Note_on_c, 2, 87, 78
8, 270912, Note_on_c, 2, 91, 78
8, 271008, Note_on_c, 2, 91, 0
8, 271008, Note_on_c, 2, 87, 0
8, 271104, Note_on_c, 2, 79, 78
8, 271104, Note_on_c, 2, 87, 78
8, 271200, Note_on_c, 2, 87, 0
8, 271200, Note_on_c, 2, 79, 0
8, 271296, Note_on_c, 2, 79, 78
8, 271296, Note_on_c, 2, 87, 78
8, 271680, Note_on_c, 2, 87, 0
8, 271680, Note_on_c, 2, 79, 0
8, 271776, Note_on_c, 2, 82, 78
8, 271776, Note_on_c, 2, 79, 78
8, 271824, Note_on_c, 2, 79, 0
8, 271824, Note_on_c, 2, 82, 0
8, 271824, Note_on_c, 2, 79, 78
8, 271824, Note_on_c, 2, 82, 78
8, 271872, Note_on_c, 2, 82, 0
8, 271872, Note_on_c, 2, 79, 0
8, 271872, Note_on_c, 2, 87, 78
8, 271872, Note_on_c, 2, 79, 78
8, 271968, Note_on_c, 2, 79, 0
8, 271968, Note_on_c, 2, 87, 0
8, 271968, Note_on_c, 2, 82, 78
8, 271968, Note_on_c, 2, 89, 78
8, 272064, Note_on_c, 2, 89, 0
8, 272064, Note_on_c, 2, 82, 0
8, 272064, Note_on_c, 2, 91, 78
8, 272064, Note_on_c, 2, 87, 78
8, 272160, Note_on_c, 2, 87, 0
8, 272160, Note_on_c, 2, 91, 0
8, 272160, Note_on_c, 2, 89, 78
8, 272160, Note_on_c, 2, 82, 78
8, 272256, Note_on_c, 2, 82, 0
8, 272256, Note_on_c, 2, 89, 0
8, 272256, Note_on_c, 2, 79, 78
8, 272256, Note_on_c, 2, 87, 78
8, 272352, Note_on_c, 2, 87, 0
8, 272352, Note_on_c, 2, 79, 0
8, 272352, Note_on_c, 2, 82, 78
8, 272352, Note_on_c, 2, 89, 78
8, 272448, Note_on_c, 2, 89, 0
8, 272448, Note_on_c, 2, 82, 0
8, 272448, Note_on_c, 2, 87, 78
8, 272448, Note_on_c, 2, 91, 78
8, 272544, Note_on_c, 2, 91, 0
8, 272544, Note_on_c, 2, 87, 0
8, 272640, Note_on_c, 2, 87, 78
8, 272640, Note_on_c, 2, 79, 78
8, 272736, Note_on_c, 2, 79, 0
8, 272736, Note_on_c, 2, 87, 0
8, 272832, Note_on_c, 2, 87, 78
8, 272832, Note_on_c, 2, 79, 78
8, 273216, Note_on_c, 2, 79, 0
8, 273216, Note_on_c, 2, 87, 0
8, 273312, Note_on_c, 2, 80, 78
8, 273312, Note_on_c, 2, 84, 78
8, 273360, Note_on_c, 2, 84, 0
8, 273360, Note_on_c, 2, 80, 0
8, 273360, Note_on_c, 2, 80, 78
8, 273360, Note_on_c, 2, 84, 78
8, 273408, Note_on_c, 2, 84, 0
8, 273408, Note_on_c, 2, 80, 0
8, 273408, Note_on_c, 2, 80, 78
8, 273408, Note_on_c, 2, 89, 78
8, 273504, Note_on_c, 2, 89, 0
8, 273504, Note_on_c, 2, 80, 0
8, 273504, Note_on_c, 2, 84, 78
8, 273504, Note_on_c, 2, 91, 78
8, 273600, Note_on_c, 2, 91, 0
8, 273600, Note_on_c, 2, 84, 0
8, 273600, Note_on_c, 2, 80, 78
8, 273600, Note_on_c, 2, 89, 78
8, 273696, Note_on_c, 2, 89, 0
8, 273696, Note_on_c, 2, 80, 0
8, 273696, Note_on_c, 2, 84, 78
8, 273696, Note_on_c, 2, 79, 78
8, 273792, Note_on_c, 2, 79, 0
8, 273792, Note_on_c, 2, 84, 0
8, 273792, Note_on_c, 2, 80, 78
8, 273792, Note_on_c, 2, 77, 78
8, 273888, Note_on_c, 2, 77, 0
8, 273888, Note_on_c, 2, 80, 0
8, 273888, Note_on_c, 2, 84, 78
8, 273888, Note_on_c, 2, 79, 78
8, 273984, Note_on_c, 2, 79, 0
8, 273984, Note_on_c, 2, 84, 0
8, 273984, Note_on_c, 2, 89, 78
8, 273984, Note_on_c, 2, 80, 78
8, 274080, Note_on_c, 2, 80, 0
8, 274080, Note_on_c, 2, 89, 0
8, 274080, Note_on_c, 2, 84, 78
8, 274080, Note_on_c, 2, 79, 78
8, 274176, Note_on_c, 2, 79, 0
8, 274176, Note_on_c, 2, 84, 0
8, 274176, Note_on_c, 2, 80, 78
8, 274176, Note_on_c, 2, 77, 78
8, 274272, Note_on_c, 2, 77, 0
8, 274272, Note_on_c, 2, 80, 0
8, 274272, Note_on_c, 2, 79, 78
8, 274272, Note_on_c, 2, 84, 78
8, 274368, Note_on_c, 2, 84, 0
8, 274368, Note_on_c, 2, 79, 0
8, 274368, Note_on_c, 2, 89, 78
8, 274368, Note_on_c, 2, 80, 78
8, 274752, Note_on_c, 2, 80, 0
8, 274752, Note_on_c, 2, 89, 0
8, 274848, Note_on_c, 2, 82, 78
8, 274848, Note_on_c, 2, 79, 78
8, 274896, Note_on_c, 2, 79, 0
8, 274896, Note_on_c, 2, 82, 0
8, 274896, Note_on_c, 2, 82, 78
8, 274896, Note_on_c, 2, 79, 78
8, 274944, Note_on_c, 2, 79, 0
8, 274944, Note_on_c, 2, 82, 0
8, 274944, Note_on_c, 2, 87, 78
8, 274944, Note_on_c, 2, 79, 78
8, 275040, Note_on_c, 2, 79, 0
8, 275040, Note_on_c, 2, 87, 0
8, 275040, Note_on_c, 2, 89, 78
8, 275040, Note_on_c, 2, 82, 78
8, 275136, Note_on_c, 2, 82, 0
8, 275136, Note_on_c, 2, 89, 0
8, 275136, Note_on_c, 2, 87, 78
8, 275136, Note_on_c, 2, 79, 78
8, 275232, Note_on_c, 2, 79, 0
8, 275232, Note_on_c, 2, 87, 0
8, 275232, Note_on_c, 2, 77, 78
8, 275232, Note_on_c, 2, 82, 78
8, 275328, Note_on_c, 2, 82, 0
8, 275328, Note_on_c, 2, 77, 0
8, 275328, Note_on_c, 2, 75, 78
8, 275328, Note_on_c, 2, 79, 78
8, 275424, Note_on_c, 2, 79, 0
8, 275424, Note_on_c, 2, 75, 0
8, 275424, Note_on_c, 2, 77, 78
8, 275424, Note_on_c, 2, 82, 78
8, 275520, Note_on_c, 2, 82, 0
8, 275520, Note_on_c, 2, 77, 0
8, 275520, Note_on_c, 2, 79, 78
8, 275520, Note_on_c, 2, 87, 78
8, 275616, Note_on_c, 2, 87, 0
8, 275616, Note_on_c, 2, 79, 0
8, 275616, Note_on_c, 2, 77, 78
8, 275616, Note_on_c, 2, 82, 78
8, 275712, Note_on_c, 2, 82, 0
8, 275712, Note_on_c, 2, 77, 0
8, 275712, Note_on_c, 2, 79, 78
8, 275712, Note_on_c, 2, 75, 78
8, 275808, Note_on_c, 2, 75, 0
8, 275808, Note_on_c, 2, 79, 0
8, 275808, Note_on_c, 2, 77, 78
8, 275808, Note_on_c, 2, 82, 78
8, 275904, Note_on_c, 2, 82, 0
8, 275904, Note_on_c, 2, 77, 0
8, 275904, Note_on_c, 2, 79, 78
8, 275904, Note_on_c, 2, 87, 78
8, 276288, Note_on_c, 2, 87, 0
8, 276288, Note_on_c, 2, 79, 0
8, 276288, Note_on_c, 2, 87, 78
8, 276384, Note_on_c, 2, 87, 0
8, 276384, Note_on_c, 2, 79, 8
8, 276384, Note_on_c, 2, 82, 78
8, 276432, Note_on_c, 2, 82, 0
8, 276432, Note_on_c, 2, 79, 0
8, 276432, Note_on_c, 2, 79, 78
8, 276432, Note_on_c, 2, 82, 78
8, 276480, Note_on_c, 2, 82, 0
8, 276480, Note_on_c, 2, 79, 0
8, 276480, Note_on_c, 2, 79, 78
8, 276480, Note_on_c, 2, 87, 78
8, 276576, Note_on_c, 2, 87, 0
8, 276576, Note_on_c, 2, 79, 0
8, 276576, Note_on_c, 2, 82, 78
8, 276672, Note_on_c, 2, 82, 0
8, 276672, Note_on_c, 2, 91, 78
8, 276672, Note_on_c, 2, 87, 78
8, 276768, Note_on_c, 2, 87, 0
8, 276768, Note_on_c, 2, 91, 0
8, 276768, Note_on_c, 2, 89, 78
8, 276768, Note_on_c, 2, 82, 78
8, 276864, Note_on_c, 2, 82, 0
8, 276864, Note_on_c, 2, 89, 0
8, 276864, Note_on_c, 2, 79, 78
8, 276864, Note_on_c, 2, 87, 78
8, 276960, Note_on_c, 2, 87, 0
8, 276960, Note_on_c, 2, 79, 0
8, 276960, Note_on_c, 2, 82, 78
8, 276960, Note_on_c, 2, 89, 78
8, 277056, Note_on_c, 2, 89, 0
8, 277056, Note_on_c, 2, 82, 0
8, 277056, Note_on_c, 2, 87, 78
8, 277056, Note_on_c, 2, 91, 78
8, 277152, Note_on_c, 2, 91, 0
8, 277152, Note_on_c, 2, 87, 0
8, 277248, Note_on_c, 2, 79, 78
8, 277248, Note_on_c, 2, 87, 78
8, 277344, Note_on_c, 2, 87, 0
8, 277344, Note_on_c, 2, 79, 0
8, 277440, Note_on_c, 2, 79, 78
8, 277440, Note_on_c, 2, 87, 78
8, 277824, Note_on_c, 2, 87, 0
8, 277824, Note_on_c, 2, 79, 0
8, 277920, Note_on_c, 2, 82, 78
8, 277920, Note_on_c, 2, 79, 78
8, 277968, Note_on_c, 2, 79, 0
8, 277968, Note_on_c, 2, 82, 0
8, 277968, Note_on_c, 2, 79, 78
8, 277968, Note_on_c, 2, 82, 78
8, 278016, Note_on_c, 2, 82, 0
8, 278016, Note_on_c, 2, 79, 0
8, 278016, Note_on_c, 2, 87, 78
8, 278016, Note_on_c, 2, 79, 78
8, 278112, Note_on_c, 2, 79, 0
8, 278112, Note_on_c, 2, 87, 0
8, 278112, Note_on_c, 2, 82, 78
8, 278112, Note_on_c, 2, 89, 78
8, 278208, Note_on_c, 2, 89, 0
8, 278208, Note_on_c, 2, 82, 0
8, 278208, Note_on_c, 2, 91, 78
8, 278208, Note_on_c, 2, 87, 78
8, 278304, Note_on_c, 2, 87, 0
8, 278304, Note_on_c, 2, 91, 0
8, 278304, Note_on_c, 2, 89, 78
8, 278304, Note_on_c, 2, 82, 78
8, 278400, Note_on_c, 2, 82, 0
8, 278400, Note_on_c, 2, 89, 0
8, 278400, Note_on_c, 2, 79, 78
8, 278400, Note_on_c, 2, 87, 78
8, 278496, Note_on_c, 2, 87, 0
8, 278496, Note_on_c, 2, 79, 0
8, 278496, Note_on_c, 2, 82, 78
8, 278496, Note_on_c, 2, 89, 78
8, 278592, Note_on_c, 2, 89, 0
8, 278592, Note_on_c, 2, 82, 0
8, 278592, Note_on_c, 2, 87, 78
8, 278592, Note_on_c, 2, 91, 78
8, 278688, Note_on_c, 2, 91, 0
8, 278688, Note_on_c, 2, 87, 0
8, 278784, Note_on_c, 2, 87, 78
8, 278784, Note_on_c, 2, 79, 78
8, 278880, Note_on_c, 2, 79, 0
8, 278880, Note_on_c, 2, 87, 0
8, 278976, Note_on_c, 2, 87, 78
8, 278976, Note_on_c, 2, 79, 78
8, 279360, Note_on_c, 2, 79, 0
8, 279360, Note_on_c, 2, 87, 0
8, 279456, Note_on_c, 2, 80, 78
8, 279456, Note_on_c, 2, 84, 78
8, 279504, Note_on_c, 2, 84, 0
8, 279504, Note_on_c, 2, 80, 0
8, 279504, Note_on_c, 2, 80, 78
8, 279504, Note_on_c, 2, 84, 78
8, 279552, Note_on_c, 2, 84, 0
8, 279552, Note_on_c, 2, 80, 0
8, 279552, Note_on_c, 2, 80, 78
8, 279552, Note_on_c, 2, 89, 78
8, 279648, Note_on_c, 2, 89, 0
8, 279648, Note_on_c, 2, 80, 0
8, 279648, Note_on_c, 2, 84, 78
8, 279648, Note_on_c, 2, 91, 78
8, 279744, Note_on_c, 2, 91, 0
8, 279744, Note_on_c, 2, 84, 0
8, 279744, Note_on_c, 2, 80, 78
8, 279744, Note_on_c, 2, 89, 78
8, 279840, Note_on_c, 2, 89, 0
8, 279840, Note_on_c, 2, 80, 0
8, 279840, Note_on_c, 2, 84, 78
8, 279840, Note_on_c, 2, 79, 78
8, 279936, Note_on_c, 2, 79, 0
8, 279936, Note_on_c, 2, 84, 0
8, 279936, Note_on_c, 2, 80, 78
8, 279936, Note_on_c, 2, 77, 78
8, 280032, Note_on_c, 2, 77, 0
8, 280032, Note_on_c, 2, 80, 0
8, 280032, Note_on_c, 2, 84, 78
8, 280032, Note_on_c, 2, 79, 78
8, 280128, Note_on_c, 2, 79, 0
8, 280128, Note_on_c, 2, 84, 0
8, 280128, Note_on_c, 2, 89, 78
8, 280128, Note_on_c, 2, 80, 78
8, 280224, Note_on_c, 2, 80, 0
8, 280224, Note_on_c, 2, 89, 0
8, 280224, Note_on_c, 2, 84, 78
8, 280224, Note_on_c, 2, 79, 78
8, 280320, Note_on_c, 2, 79, 0
8, 280320, Note_on_c, 2, 84, 0
8, 280320, Note_on_c, 2, 80, 78
8, 280320, Note_on_c, 2, 77, 78
8, 280416, Note_on_c, 2, 77, 0
8, 280416, Note_on_c, 2, 80, 0
8, 280416, Note_on_c, 2, 79, 78
8, 280416, Note_on_c, 2, 84, 78
8, 280512, Note_on_c, 2, 84, 0
8, 280512, Note_on_c, 2, 79, 0
8, 280512, Note_on_c, 2, 89, 78
8, 280512, Note_on_c, 2, 80, 78
8, 280896, Note_on_c, 2, 80, 0
8, 280896, Note_on_c, 2, 89, 0
8, 280992, Note_on_c, 2, 82, 78
8, 280992, Note_on_c, 2, 79, 78
8, 281040, Note_on_c, 2, 79, 0
8, 281040, Note_on_c, 2, 82, 0
8, 281040, Note_on_c, 2, 82, 78
8, 281040, Note_on_c, 2, 79, 78
8, 281088, Note_on_c, 2, 79, 0
8, 281088, Note_on_c, 2, 82, 0
8, 281088, Note_on_c, 2, 87, 78
8, 281088, Note_on_c, 2, 79, 78
8, 281184, Note_on_c, 2, 79, 0
8, 281184, Note_on_c, 2, 87, 0
8, 281184, Note_on_c, 2, 89, 78
8, 281184, Note_on_c, 2, 82, 78
8, 281280, Note_on_c, 2, 82, 0
8, 281280, Note_on_c, 2, 89, 0
8, 281280, Note_on_c, 2, 87, 78
8, 281280, Note_on_c, 2, 79, 78
8, 281376, Note_on_c, 2, 79, 0
8, 281376, Note_on_c, 2, 87, 0
8, 281376, Note_on_c, 2, 77, 78
8, 281376, Note_on_c, 2, 82, 78
8, 281472, Note_on_c, 2, 82, 0
8, 281472, Note_on_c, 2, 77, 0
8, 281472, Note_on_c, 2, 75, 78
8, 281472, Note_on_c, 2, 79, 78
8, 281568, Note_on_c, 2, 79, 0
8, 281568, Note_on_c, 2, 75, 0
8, 281568, Note_on_c, 2, 77, 78
8, 281568, Note_on_c, 2, 82, 78
8, 281664, Note_on_c, 2, 82, 0
8, 281664, Note_on_c, 2, 77, 0
8, 281664, Note_on_c, 2, 79, 78
8, 281664, Note_on_c, 2, 87, 78
8, 281760, Note_on_c, 2, 87, 0
8, 281760, Note_on_c, 2, 79, 0
8, 281760, Note_on_c, 2, 77, 78
8, 281760, Note_on_c, 2, 82, 78
8, 281856, Note_on_c, 2, 82, 0
8, 281856, Note_on_c, 2, 77, 0
8, 281856, Note_on_c, 2, 79, 78
8, 281856, Note_on_c, 2, 75, 78
8, 281952, Note_on_c, 2, 75, 0
8, 281952, Note_on_c, 2, 79, 0
8, 281952, Note_on_c, 2, 77, 78
8, 281952, Note_on_c, 2, 82, 78
8, 282048, Note_on_c, 2, 82, 0
8, 282048, Note_on_c, 2, 77, 0
8, 282048, Note_on_c, 2, 79, 78
8, 282048, Note_on_c, 2, 87, 78
8, 282432, Note_on_c, 2, 87, 0
8, 282432, Note_on_c, 2, 79, 0
8, 282624, Note_on_c, 2, 77, 85
8, 282624, Note_on_c, 2, 80, 85
8, 282624, Note_on_c, 2, 84, 85
8, 282688, Note_on_c, 2, 84, 0
8, 282688, Note_on_c, 2, 80, 0
8, 282688, Note_on_c, 2, 77, 0
8, 282688, Note_on_c, 2, 77, 85
8, 282688, Note_on_c, 2, 80, 85
8, 282688, Note_on_c, 2, 84, 85
8, 282752, Note_on_c, 2, 84, 0
8, 282752, Note_on_c, 2, 80, 0
8, 282752, Note_on_c, 2, 77, 0
8, 282752, Note_on_c, 2, 77, 85
8, 282752, Note_on_c, 2, 80, 85
8, 282752, Note_on_c, 2, 84, 85
8, 282816, Note_on_c, 2, 84, 0
8, 282816, Note_on_c, 2, 80, 0
8, 282816, Note_on_c, 2, 77, 0
8, 282816, Note_on_c, 2, 80, 85
8, 282816, Note_on_c, 2, 84, 85
8, 282816, Note_on_c, 2, 87, 85
8, 283008, Note_on_c, 2, 87, 0
8, 283008, Note_on_c, 2, 84, 0
8, 283008, Note_on_c, 2, 80, 0
8, 283008, Note_on_c, 2, 77, 85
8, 283008, Note_on_c, 2, 80, 85
8, 283008, Note_on_c, 2, 84, 85
8, 283200, Note_on_c, 2, 84, 0
8, 283200, Note_on_c, 2, 80, 0
8, 283200, Note_on_c, 2, 77, 0
8, 283392, Note_on_c, 2, 74, 85
8, 283392, Note_on_c, 2, 77, 85
8, 283392, Note_on_c, 2, 82, 85
8, 283456, Note_on_c, 2, 82, 0
8, 283456, Note_on_c, 2, 77, 0
8, 283456, Note_on_c, 2, 74, 0
8, 283456, Note_on_c, 2, 74, 85
8, 283456, Note_on_c, 2, 77, 85
8, 283456, Note_on_c, 2, 82, 85
8, 283520, Note_on_c, 2, 82, 0
8, 283520, Note_on_c, 2, 77, 0
8, 283520, Note_on_c, 2, 74, 0
8, 283520, Note_on_c, 2, 74, 85
8, 283520, Note_on_c, 2, 77, 85
8, 283520, Note_on_c, 2, 82, 85
8, 283584, Note_on_c, 2, 82, 0
8, 283584, Note_on_c, 2, 77, 0
8, 283584, Note_on_c, 2, 74, 0
8, 283584, Note_on_c, 2, 77, 85
8, 283584, Note_on_c, 2, 82, 85
8, 283584, Note_on_c, 2, 86, 85
8, 283776, Note_on_c, 2, 86, 0
8, 283776, Note_on_c, 2, 82, 0
8, 283776, Note_on_c, 2, 77, 0
8, 283776, Note_on_c, 2, 74, 85
8, 283776, Note_on_c, 2, 77, 85
8, 283776, Note_on_c, 2, 82, 85
8, 283968, Note_on_c, 2, 82, 0
8, 283968, Note_on_c, 2, 77, 0
8, 283968, Note_on_c, 2, 74, 0
8, 284160, Note_on_c, 2, 82, 78
8, 284224, Note_on_c, 2, 82, 0
8, 284224, Note_on_c, 2, 82, 78
8, 284288, Note_on_c, 2, 82, 0
8, 284288, Note_on_c, 2, 82, 78
8, 284352, Note_on_c, 2, 82, 0
8, 284352, Note_on_c, 2, 82, 78
8, 284352, Note_on_c, 2, 85, 78
8, 284544, Note_on_c, 2, 85, 0
8, 284544, Note_on_c, 2, 82, 0
8, 284544, Note_on_c, 2, 84, 78
8, 284736, Note_on_c, 2, 84, 0
8, 284736, Note_on_c, 2, 87, 78
8, 284736, Note_on_c, 2, 84, 78
8, 284928, Note_on_c, 2, 84, 0
8, 284928, Note_on_c, 2, 87, 0
8, 284928, Note_on_c, 2, 86, 78
8, 285120, Note_on_c, 2, 86, 0
8, 285120, Note_on_c, 2, 86, 78
8, 285120, Note_on_c, 2, 89, 78
8, 285312, Note_on_c, 2, 89, 0
8, 285312, Note_on_c, 2, 86, 0
8, 285312, Note_on_c, 2, 87, 78
8, 285504, Note_on_c, 2, 87, 0
8, 285504, Note_on_c, 2, 87, 78
8, 285504, Note_on_c, 2, 94, 78
8, 285632, Note_on_c, 2, 94, 0
8, 285632, Note_on_c, 2, 87, 0
8, 285632, Note_on_c, 2, 93, 78
8, 285632, Note_on_c, 2, 87, 78
8, 285760, Note_on_c, 2, 87, 0
8, 285760, Note_on_c, 2, 93, 0
8, 285760, Note_on_c, 2, 92, 78
8, 285760, Note_on_c, 2, 87, 78
8, 285888, Note_on_c, 2, 87, 0
8, 285888, Note_on_c, 2, 92, 0
8, 285888, Note_on_c, 2, 91, 78
8, 285888, Note_on_c, 2, 87, 78
8, 286016, Note_on_c, 2, 87, 0
8, 286016, Note_on_c, 2, 91, 0
8, 286016, Note_on_c, 2, 90, 78
8, 286144, Note_on_c, 2, 90, 0
8, 286144, Note_on_c, 2, 89, 78
8, 286272, Note_on_c, 2, 89, 0
8, 286272, Note_on_c, 2, 88, 78
8, 286400, Note_on_c, 2, 88, 0
8, 286400, Note_on_c, 2, 87, 78
8, 286528, Note_on_c, 2, 87, 0
8, 286528, Note_on_c, 2, 86, 78
8, 286656, Note_on_c, 2, 86, 0
8, 286656, Note_on_c, 2, 85, 78
8, 286784, Note_on_c, 2, 85, 0
8, 286784, Note_on_c, 2, 84, 78
8, 286912, Note_on_c, 2, 84, 0
8, 286912, Note_on_c, 2, 83, 78
8, 287040, Note_on_c, 2, 83, 0
8, 287040, Note_on_c, 2, 82, 78
8, 287168, Note_on_c, 2, 82, 0
8, 287424, Note_on_c, 2, 83, 78
8, 287552, Note_on_c, 2, 83, 0
8, 287808, Note_on_c, 2, 84, 78
8, 287936, Note_on_c, 2, 84, 0
8, 288192, Note_on_c, 2, 86, 78
8, 288320, Note_on_c, 2, 86, 0
8, 288768, Note_on_c, 2, 82, 78
8, 288832, Note_on_c, 2, 82, 0
8, 288832, Note_on_c, 2, 82, 78
8, 288896, Note_on_c, 2, 82, 0
8, 288896, Note_on_c, 2, 82, 78
8, 288960, Note_on_c, 2, 82, 0
8, 288960, Note_on_c, 2, 89, 78
8, 289152, Note_on_c, 2, 89, 0
8, 289152, Note_on_c, 2, 86, 78
8, 289344, Note_on_c, 2, 86, 0
8, 289536, Note_on_c, 2, 82, 78
8, 289600, Note_on_c, 2, 82, 0
8, 289600, Note_on_c, 2, 82, 78
8, 289664, Note_on_c, 2, 82, 0
8, 289664, Note_on_c, 2, 82, 78
8, 289728, Note_on_c, 2, 82, 0
8, 289728, Note_on_c, 2, 89, 78
8, 289920, Note_on_c, 2, 89, 0
8, 289920, Note_on_c, 2, 86, 78
8, 290112, Note_on_c, 2, 86, 0
8, 290112, Note_on_c, 2, 87, 78
8, 290304, Note_on_c, 2, 87, 0
8, 290304, Note_on_c, 2, 86, 78
8, 290496, Note_on_c, 2, 86, 0
8, 290496, Note_on_c, 2, 87, 78
8, 290688, Note_on_c, 2, 87, 0
8, 290688, Note_on_c, 2, 86, 78
8, 290880, Note_on_c, 2, 86, 0
8, 290880, Note_on_c, 2, 87, 78
8, 291072, Note_on_c, 2, 87, 0
8, 291072, Note_on_c, 2, 86, 78
8, 291264, Note_on_c, 2, 86, 0
8, 291264, Note_on_c, 2, 87, 78
8, 291456, Note_on_c, 2, 87, 0
8, 291456, Note_on_c, 2, 86, 78
8, 291648, Note_on_c, 2, 86, 0
8, 291648, Note_on_c, 2, 87, 78
8, 291840, Note_on_c, 2, 87, 0
8, 291840, Note_on_c, 2, 86, 78
8, 292032, Note_on_c, 2, 86, 0
8, 292032, Note_on_c, 2, 87, 78
8, 292224, Note_on_c, 2, 87, 0
8, 292224, Note_on_c, 2, 86, 78
8, 292416, Note_on_c, 2, 86, 0
8, 292416, Note_on_c, 2, 87, 78
8, 292608, Note_on_c, 2, 87, 0
8, 292608, Note_on_c, 2, 86, 78
8, 292800, Note_on_c, 2, 86, 0
8, 292800, Note_on_c, 2, 87, 78
8, 292992, Note_on_c, 2, 87, 0
8, 292992, Note_on_c, 2, 86, 78
8, 293184, Note_on_c, 2, 86, 0
8, 293184, Note_on_c, 2, 87, 78
8, 293280, Note_on_c, 2, 87, 0
8, 293280, Note_on_c, 2, 82, 78
8, 293328, Note_on_c, 2, 82, 0
8, 293328, Note_on_c, 2, 82, 78
8, 293376, Note_on_c, 2, 82, 0
8, 293376, Note_on_c, 2, 79, 78
8, 293376, Note_on_c, 2, 87, 78
8, 293472, Note_on_c, 2, 87, 0
8, 293472, Note_on_c, 2, 79, 0
8, 293472, Note_on_c, 2, 89, 78
8, 293472, Note_on_c, 2, 82, 78
8, 293568, Note_on_c, 2, 82, 0
8, 293568, Note_on_c, 2, 89, 0
8, 293568, Note_on_c, 2, 87, 78
8, 293568, Note_on_c, 2, 91, 78
8, 293664, Note_on_c, 2, 91, 0
8, 293664, Note_on_c, 2, 87, 0
8, 293664, Note_on_c, 2, 82, 78
8, 293664, Note_on_c, 2, 89, 78
8, 293760, Note_on_c, 2, 89, 0
8, 293760, Note_on_c, 2, 82, 0
8, 293760, Note_on_c, 2, 79, 78
8, 293760, Note_on_c, 2, 87, 78
8, 293856, Note_on_c, 2, 87, 0
8, 293856, Note_on_c, 2, 79, 0
8, 293856, Note_on_c, 2, 82, 78
8, 293952, Note_on_c, 2, 82, 0
8, 293952, Note_on_c, 2, 87, 78
8, 293952, Note_on_c, 2, 91, 78
8, 294048, Note_on_c, 2, 91, 0
8, 294048, Note_on_c, 2, 87, 0
8, 294048, Note_on_c, 2, 82, 78
8, 294096, Note_on_c, 2, 82, 0
8, 294096, Note_on_c, 2, 82, 78
8, 294144, Note_on_c, 2, 82, 0
8, 294144, Note_on_c, 2, 79, 78
8, 294240, Note_on_c, 2, 79, 0
8, 294240, Note_on_c, 2, 82, 78
8, 294336, Note_on_c, 2, 82, 0
8, 294336, Note_on_c, 2, 87, 78
8, 294432, Note_on_c, 2, 87, 0
8, 294432, Note_on_c, 2, 82, 78
8, 294528, Note_on_c, 2, 82, 0
8, 294528, Note_on_c, 2, 79, 78
8, 294624, Note_on_c, 2, 79, 0
8, 294624, Note_on_c, 2, 82, 78
8, 294720, Note_on_c, 2, 82, 0
8, 294720, Note_on_c, 2, 87, 78
8, 294816, Note_on_c, 2, 87, 0
8, 294816, Note_on_c, 2, 70, 78
8, 294864, Note_on_c, 2, 70, 0
8, 294864, Note_on_c, 2, 70, 78
8, 294912, Note_on_c, 2, 70, 0
8, 294912, Note_on_c, 2, 75, 78
8, 295008, Note_on_c, 2, 75, 0
8, 295008, Note_on_c, 2, 77, 78
8, 295104, Note_on_c, 2, 77, 0
8, 295104, Note_on_c, 2, 79, 78
8, 295200, Note_on_c, 2, 79, 0
8, 295200, Note_on_c, 2, 77, 78
8, 295296, Note_on_c, 2, 77, 0
8, 295296, Note_on_c, 2, 75, 78
8, 295392, Note_on_c, 2, 75, 0
8, 295392, Note_on_c, 2, 77, 78
8, 295488, Note_on_c, 2, 77, 0
8, 295488, Note_on_c, 2, 79, 78
8, 295584, Note_on_c, 2, 79, 0
8, 295584, Note_on_c, 2, 70, 78
8, 295632, Note_on_c, 2, 70, 0
8, 295632, Note_on_c, 2, 70, 78
8, 295680, Note_on_c, 2, 70, 0
8, 295680, Note_on_c, 2, 67, 78
8, 295776, Note_on_c, 2, 67, 0
8, 295776, Note_on_c, 2, 70, 78
8, 295872, Note_on_c, 2, 70, 0
8, 295872, Note_on_c, 2, 75, 78
8, 295968, Note_on_c, 2, 75, 0
8, 295968, Note_on_c, 2, 70, 78
8, 296064, Note_on_c, 2, 70, 0
8, 296064, Note_on_c, 2, 67, 78
8, 296160, Note_on_c, 2, 67, 0
8, 296160, Note_on_c, 2, 70, 20
8, 296256, Note_on_c, 2, 70, 0
8, 296256, Note_on_c, 2, 75, 78
8, 296367, Note_on_c, 2, 75, 0
8, 296640, Note_on_c, 2, 63, 78
8, 296928, Note_on_c, 2, 63, 0
8, 296928, Note_on_c, 2, 63, 78
8, 297024, Note_on_c, 2, 63, 0
8, 297024, Note_on_c, 2, 67, 78
8, 297408, Note_on_c, 2, 67, 0
8, 297408, Note_on_c, 2, 70, 78
8, 297792, Note_on_c, 2, 70, 0
8, 297792, Note_on_c, 2, 75, 78
8, 298176, Note_on_c, 2, 75, 0
8, 298560, Note_on_c, 2, 79, 78
8, 298944, Note_on_c, 2, 79, 0
8, 299328, Note_on_c, 2, 63, 78
8, 299712, Note_on_c, 2, 63, 0
8, 300096, Note_on_c, 2, 75, 78
8, 300480, Note_on_c, 2, 75, 0
8, 300864, Note_on_c, 2, 87, 78
8, 300960, Note_on_c, 2, 87, 0
8, 301632, Note_on_c, 2, 63, 78
8, 302205, Note_on_c, 2, 63, 0
8, 302208, Note_on_c, 2, 63, 78
8, 302397, Note_on_c, 2, 63, 0
8, 302400, Note_on_c, 2, 63, 78
8, 303168, Note_on_c, 2, 63, 0
8, 303168, End_track
9, 0, Start_track
9, 0, MIDI_port, 0
9, 0, Title_t, "Bassoons"
9, 0, Program_c, 3, 70
9, 0, Control_c, 3, 7, 80
9, 0, Control_c, 3, 10, 32
9, 13824, Note_on_c, 3, 56, 22
9, 13824, Note_on_c, 3, 53, 22
9, 14592, Note_on_c, 3, 53, 0
9, 14592, Note_on_c, 3, 56, 0
9, 15648, Note_on_c, 3, 55, 59
9, 15744, Note_on_c, 3, 55, 0
9, 15744, Note_on_c, 3, 55, 59
9, 15936, Note_on_c, 3, 55, 0
9, 15936, Note_on_c, 3, 60, 59
9, 16128, Note_on_c, 3, 60, 0
9, 16128, Note_on_c, 3, 56, 59
9, 16416, Note_on_c, 3, 56, 0
9, 16800, Note_on_c, 3, 58, 59
9, 16896, Note_on_c, 3, 58, 0
9, 16896, Note_on_c, 3, 58, 59
9, 17088, Note_on_c, 3, 58, 0
9, 17088, Note_on_c, 3, 63, 59
9, 17280, Note_on_c, 3, 63, 0
9, 17280, Note_on_c, 3, 60, 59
9, 17568, Note_on_c, 3, 60, 0
9, 18048, Note_on_c, 3, 61, 77
9, 18432, Note_on_c, 3, 61, 0
9, 18432, Note_on_c, 3, 61, 77
9, 18816, Note_on_c, 3, 61, 0
9, 18816, Note_on_c, 3, 61, 77
9, 19008, Note_on_c, 3, 61, 0
9, 19200, Note_on_c, 3, 71, 95
9, 19392, Note_on_c, 3, 71, 0
9, 19392, Note_on_c, 3, 71, 95
9, 19776, Note_on_c, 3, 71, 0
9, 19776, Note_on_c, 3, 71, 95
9, 19968, Note_on_c, 3, 71, 0
9, 19968, Note_on_c, 3, 71, 95
9, 20160, Note_on_c, 3, 71, 0
9, 20160, Note_on_c, 3, 48, 95
9, 20160, Note_on_c, 3, 36, 95
9, 20256, Note_on_c, 3, 36, 0
9, 20256, Note_on_c, 3, 48, 0
9, 25536, Note_on_c, 3, 59, 77
9, 25632, Note_on_c, 3, 59, 0
9, 25632, Note_on_c, 3, 60, 77
9, 25728, Note_on_c, 3, 60, 0
9, 25728, Note_on_c, 3, 61, 77
9, 25824, Note_on_c, 3, 61, 0
9, 25824, Note_on_c, 3, 62, 77
9, 25920, Note_on_c, 3, 62, 0
9, 25920, Note_on_c, 3, 63, 77
9, 26016, Note_on_c, 3, 63, 0
9, 26112, Note_on_c, 3, 59, 77
9, 26400, Note_on_c, 3, 59, 0
9, 26400, Note_on_c, 3, 58, 77
9, 26496, Note_on_c, 3, 58, 0
9, 26496, Note_on_c, 3, 57, 77
9, 26560, Note_on_c, 3, 57, 0
9, 26560, Note_on_c, 3, 58, 77
9, 26624, Note_on_c, 3, 58, 0
9, 26624, Note_on_c, 3, 59, 77
9, 26688, Note_on_c, 3, 59, 0
9, 26688, Note_on_c, 3, 58, 77
9, 26752, Note_on_c, 3, 58, 0
9, 26752, Note_on_c, 3, 54, 77
9, 26816, Note_on_c, 3, 54, 0
9, 26816, Note_on_c, 3, 51, 77
9, 26880, Note_on_c, 3, 51, 0
9, 26880, Note_on_c, 3, 47, 77
9, 26944, Note_on_c, 3, 47, 0
9, 26944, Note_on_c, 3, 44, 77
9, 27008, Note_on_c, 3, 44, 0
9, 27008, Note_on_c, 3, 46, 77
9, 27072, Note_on_c, 3, 46, 0
9, 27072, Note_on_c, 3, 39, 77
9, 27168, Note_on_c, 3, 39, 0
9, 28320, Note_on_c, 3, 39, 55
9, 28320, Note_on_c, 3, 51, 57
9, 28416, Note_on_c, 3, 51, 0
9, 28416, Note_on_c, 3, 39, 0
9, 28416, Note_on_c, 3, 59, 59
9, 28704, Note_on_c, 3, 59, 0
9, 28704, Note_on_c, 3, 58, 58
9, 28800, Note_on_c, 3, 58, 0
9, 28800, Note_on_c, 3, 56, 55
9, 28864, Note_on_c, 3, 56, 0
9, 28864, Note_on_c, 3, 58, 59
9, 28928, Note_on_c, 3, 58, 0
9, 28928, Note_on_c, 3, 61, 55
9, 28992, Note_on_c, 3, 61, 0
9, 28992, Note_on_c, 3, 59, 58
9, 29056, Note_on_c, 3, 59, 0
9, 29056, Note_on_c, 3, 56, 53
9, 29120, Note_on_c, 3, 56, 0
9, 29120, Note_on_c, 3, 51, 52
9, 29184, Note_on_c, 3, 51, 0
9, 29184, Note_on_c, 3, 49, 58
9, 29248, Note_on_c, 3, 49, 0
9, 29248, Note_on_c, 3, 46, 55
9, 29312, Note_on_c, 3, 46, 0
9, 29312, Note_on_c, 3, 47, 58
9, 29376, Note_on_c, 3, 47, 0
9, 29376, Note_on_c, 3, 51, 55
9, 29376, Note_on_c, 3, 39, 54
9, 29472, Note_on_c, 3, 39, 0
9, 29472, Note_on_c, 3, 51, 0
9, 29472, Note_on_c, 3, 59, 54
9, 29568, Note_on_c, 3, 59, 0
9, 29568, Note_on_c, 3, 58, 58
9, 29664, Note_on_c, 3, 58, 0
9, 29664, Note_on_c, 3, 59, 62
9, 29760, Note_on_c, 3, 59, 0
9, 29760, Note_on_c, 3, 61, 58
9, 29856, Note_on_c, 3, 61, 0
9, 29856, Note_on_c, 3, 63, 53
9, 29952, Note_on_c, 3, 63, 0
9, 29952, Note_on_c, 3, 64, 51
9, 30048, Note_on_c, 3, 64, 0
9, 30048, Note_on_c, 3, 62, 59
9, 30144, Note_on_c, 3, 62, 0
9, 30144, Note_on_c, 3, 61, 55
9, 30240, Note_on_c, 3, 61, 0
9, 30240, Note_on_c, 3, 59, 58
9, 30336, Note_on_c, 3, 59, 0
9, 30336, Note_on_c, 3, 58, 55
9, 30432, Note_on_c, 3, 58, 0
9, 30432, Note_on_c, 3, 59, 59
9, 30528, Note_on_c, 3, 59, 0
9, 30528, Note_on_c, 3, 61, 66
9, 30528, Note_on_c, 3, 49, 62
9, 30624, Note_on_c, 3, 49, 0
9, 30624, Note_on_c, 3, 61, 0
9, 30720, Note_on_c, 3, 50, 65
9, 30720, Note_on_c, 3, 62, 71
9, 30864, Note_on_c, 3, 62, 0
9, 30864, Note_on_c, 3, 50, 0
9, 30864, Note_on_c, 3, 48, 52
9, 30864, Note_on_c, 3, 60, 61
9, 30912, Note_on_c, 3, 60, 0
9, 30912, Note_on_c, 3, 48, 0
9, 30912, Note_on_c, 3, 49, 65
9, 30912, Note_on_c, 3, 37, 59
9, 31008, Note_on_c, 3, 37, 0
9, 31008, Note_on_c, 3, 49, 0
9, 31104, Note_on_c, 3, 54, 62
9, 31104, Note_on_c, 3, 42, 58
9, 31200, Note_on_c, 3, 42, 0
9, 31200, Note_on_c, 3, 54, 0
9, 31296, Note_on_c, 3, 64, 65
9, 31296, Note_on_c, 3, 52, 52
9, 31440, Note_on_c, 3, 52, 0
9, 31440, Note_on_c, 3, 64, 0
9, 31440, Note_on_c, 3, 50, 59
9, 31440, Note_on_c, 3, 62, 66
9, 31488, Note_on_c, 3, 62, 0
9, 31488, Note_on_c, 3, 50, 0
9, 31488, Note_on_c, 3, 38, 58
9, 31488, Note_on_c, 3, 50, 68
9, 31584, Note_on_c, 3, 50, 0
9, 31584, Note_on_c, 3, 38, 0
9, 31680, Note_on_c, 3, 55, 58
9, 31680, Note_on_c, 3, 43, 54
9, 31776, Note_on_c, 3, 43, 0
9, 31776, Note_on_c, 3, 55, 0
9, 31872, Note_on_c, 3, 65, 67
9, 31872, Note_on_c, 3, 53, 95
9, 32016, Note_on_c, 3, 53, 0
9, 32016, Note_on_c, 3, 65, 0
9, 32016, Note_on_c, 3, 64, 63
9, 32016, Note_on_c, 3, 52, 54
9, 32064, Note_on_c, 3, 52, 0
9, 32064, Note_on_c, 3, 64, 0
9, 32064, Note_on_c, 3, 57, 64
9, 32064, Note_on_c, 3, 45, 52
9, 32160, Note_on_c, 3, 45, 0
9, 32160, Note_on_c, 3, 57, 0
9, 32256, Note_on_c, 3, 67, 95
9, 32256, Note_on_c, 3, 55, 59
9, 32400, Note_on_c, 3, 55, 0
9, 32400, Note_on_c, 3, 67, 0
9, 32400, Note_on_c, 3, 66, 65
9, 32400, Note_on_c, 3, 54, 54
9, 32448, Note_on_c, 3, 54, 0
9, 32448, Note_on_c, 3, 66, 0
9, 32448, Note_on_c, 3, 59, 63
9, 32448, Note_on_c, 3, 47, 50
9, 32544, Note_on_c, 3, 47, 0
9, 32544, Note_on_c, 3, 59, 0
9, 32640, Note_on_c, 3, 69, 69
9, 32640, Note_on_c, 3, 57, 60
9, 32784, Note_on_c, 3, 57, 0
9, 32784, Note_on_c, 3, 69, 0
9, 32784, Note_on_c, 3, 56, 55
9, 32784, Note_on_c, 3, 68, 62
9, 32832, Note_on_c, 3, 68, 0
9, 32832, Note_on_c, 3, 56, 0
9, 32832, Note_on_c, 3, 61, 59
9, 32832, Note_on_c, 3, 49, 56
9, 32928, Note_on_c, 3, 49, 0
9, 32928, Note_on_c, 3, 61, 0
9, 33024, Note_on_c, 3, 69, 62
9, 33072, Note_on_c, 3, 69, 0
9, 33072, Note_on_c, 3, 68, 60
9, 33120, Note_on_c, 3, 68, 0
9, 33120, Note_on_c, 3, 64, 59
9, 33168, Note_on_c, 3, 64, 0
9, 33168, Note_on_c, 3, 61, 62
9, 33216, Note_on_c, 3, 61, 0
9, 33216, Note_on_c, 3, 69, 59
9, 33216, Note_on_c, 3, 57, 52
9, 33264, Note_on_c, 3, 57, 0
9, 33264, Note_on_c, 3, 69, 0
9, 33264, Note_on_c, 3, 56, 55
9, 33264, Note_on_c, 3, 68, 62
9, 33312, Note_on_c, 3, 68, 0
9, 33312, Note_on_c, 3, 56, 0
9, 33312, Note_on_c, 3, 52, 52
9, 33312, Note_on_c, 3, 64, 59
9, 33360, Note_on_c, 3, 64, 0
9, 33360, Note_on_c, 3, 52, 0
9, 33360, Note_on_c, 3, 49, 53
9, 33360, Note_on_c, 3, 61, 59
9, 33408, Note_on_c, 3, 61, 0
9, 33408, Note_on_c, 3, 49, 0
9, 33408, Note_on_c, 3, 57, 62
9, 33408, Note_on_c, 3, 45, 52
9, 33456, Note_on_c, 3, 45, 0
9, 33456, Note_on_c, 3, 57, 0
9, 33456, Note_on_c, 3, 44, 55
9, 33456, Note_on_c, 3, 56, 55
9, 33504, Note_on_c, 3, 56, 0
9, 33504, Note_on_c, 3, 44, 0
9, 33504, Note_on_c, 3, 52, 64
9, 33504, Note_on_c, 3, 40, 54
9, 33552, Note_on_c, 3, 40, 0
9, 33552, Note_on_c, 3, 52, 0
9, 33552, Note_on_c, 3, 49, 62
9, 33552, Note_on_c, 3, 37, 59
9, 33600, Note_on_c, 3, 37, 0
9, 33600, Note_on_c, 3, 49, 0
9, 33600, Note_on_c, 3, 45, 58
9, 33600, Note_on_c, 3, 57, 64
9, 33888, Note_on_c, 3, 57, 0
9, 33888, Note_on_c, 3, 45, 0
9, 33888, Note_on_c, 3, 56, 95
9, 33888, Note_on_c, 3, 44, 95
9, 33984, Note_on_c, 3, 44, 0
9, 33984, Note_on_c, 3, 56, 0
9, 33984, Note_on_c, 3, 40, 54
9, 33984, Note_on_c, 3, 52, 66
9, 34080, Note_on_c, 3, 52, 0
9, 34080, Note_on_c, 3, 40, 0
9, 34080, Note_on_c, 3, 39, 59
9, 34080, Note_on_c, 3, 51, 61
9, 34176, Note_on_c, 3, 51, 0
9, 34176, Note_on_c, 3, 39, 0
9, 34176, Note_on_c, 3, 37, 59
9, 34176, Note_on_c, 3, 49, 65
9, 34272, Note_on_c, 3, 49, 0
9, 34272, Note_on_c, 3, 37, 0
9, 34272, Note_on_c, 3, 36, 1
9, 34272, Note_on_c, 3, 48, 64
9, 34368, Note_on_c, 3, 48, 0
9, 34368, Note_on_c, 3, 36, 0
9, 34368, Note_on_c, 3, 37, 59
9, 34368, Note_on_c, 3, 49, 63
9, 34464, Note_on_c, 3, 49, 0
9, 34464, Note_on_c, 3, 37, 0
9, 34464, Note_on_c, 3, 52, 66
9, 34464, Note_on_c, 3, 40, 58
9, 34560, Note_on_c, 3, 40, 0
9, 34560, Note_on_c, 3, 52, 0
9, 34560, Note_on_c, 3, 44, 65
9, 34560, Note_on_c, 3, 56, 62
9, 34704, Note_on_c, 3, 56, 0
9, 34704, Note_on_c, 3, 44, 0
9, 34704, Note_on_c, 3, 49, 62
9, 34704, Note_on_c, 3, 61, 62
9, 34752, Note_on_c, 3, 61, 0
9, 34752, Note_on_c, 3, 49, 0
9, 34752, Note_on_c, 3, 52, 68
9, 34752, Note_on_c, 3, 64, 66
9, 35040, Note_on_c, 3, 64, 0
9, 35040, Note_on_c, 3, 52, 0
9, 35040, Note_on_c, 3, 61, 62
9, 35040, Note_on_c, 3, 49, 62
9, 35136, Note_on_c, 3, 49, 0
9, 35136, Note_on_c, 3, 61, 0
9, 35136, Note_on_c, 3, 44, 55
9, 35136, Note_on_c, 3, 56, 61
9, 35280, Note_on_c, 3, 56, 0
9, 35280, Note_on_c, 3, 44, 0
9, 35280, Note_on_c, 3, 52, 65
9, 35280, Note_on_c, 3, 40, 55
9, 35328, Note_on_c, 3, 40, 0
9, 35328, Note_on_c, 3, 52, 0
9, 35328, Note_on_c, 3, 49, 65
9, 35328, Note_on_c, 3, 37, 56
9, 35424, Note_on_c, 3, 37, 0
9, 35424, Note_on_c, 3, 49, 0
9, 35424, Note_on_c, 3, 49, 61
9, 35424, Note_on_c, 3, 37, 57
9, 35520, Note_on_c, 3, 37, 0
9, 35520, Note_on_c, 3, 49, 0
9, 35520, Note_on_c, 3, 39, 53
9, 35520, Note_on_c, 3, 51, 59
9, 35616, Note_on_c, 3, 51, 0
9, 35616, Note_on_c, 3, 39, 0
9, 35616, Note_on_c, 3, 53, 61
9, 35616, Note_on_c, 3, 41, 53
9, 35712, Note_on_c, 3, 41, 0
9, 35712, Note_on_c, 3, 53, 0
9, 35712, Note_on_c, 3, 54, 62
9, 35712, Note_on_c, 3, 42, 59
9, 35808, Note_on_c, 3, 42, 0
9, 35808, Note_on_c, 3, 54, 0
9, 35904, Note_on_c, 3, 50, 61
9, 36192, Note_on_c, 3, 50, 0
9, 36192, Note_on_c, 3, 49, 55
9, 36288, Note_on_c, 3, 49, 0
9, 36288, Note_on_c, 3, 45, 60
9, 36384, Note_on_c, 3, 45, 0
9, 36384, Note_on_c, 3, 44, 52
9, 36480, Note_on_c, 3, 44, 0
9, 36480, Note_on_c, 3, 42, 59
9, 36576, Note_on_c, 3, 42, 0
9, 36576, Note_on_c, 3, 41, 59
9, 36672, Note_on_c, 3, 41, 0
9, 36672, Note_on_c, 3, 42, 59
9, 36768, Note_on_c, 3, 42, 0
9, 36768, Note_on_c, 3, 45, 59
9, 36864, Note_on_c, 3, 45, 0
9, 36864, Note_on_c, 3, 49, 62
9, 37008, Note_on_c, 3, 49, 0
9, 37008, Note_on_c, 3, 54, 55
9, 37056, Note_on_c, 3, 54, 0
9, 37056, Note_on_c, 3, 57, 62
9, 37344, Note_on_c, 3, 57, 0
9, 37344, Note_on_c, 3, 54, 58
9, 37440, Note_on_c, 3, 54, 0
9, 37440, Note_on_c, 3, 49, 63
9, 37584, Note_on_c, 3, 49, 0
9, 37584, Note_on_c, 3, 45, 62
9, 37632, Note_on_c, 3, 45, 0
9, 37632, Note_on_c, 3, 42, 60
9, 37728, Note_on_c, 3, 42, 0
9, 37728, Note_on_c, 3, 54, 58
9, 37728, Note_on_c, 3, 42, 55
9, 37824, Note_on_c, 3, 42, 0
9, 37824, Note_on_c, 3, 54, 0
9, 37824, Note_on_c, 3, 56, 59
9, 37824, Note_on_c, 3, 44, 51
9, 37920, Note_on_c, 3, 44, 0
9, 37920, Note_on_c, 3, 56, 0
9, 37920, Note_on_c, 3, 46, 53
9, 37920, Note_on_c, 3, 58, 59
9, 38016, Note_on_c, 3, 58, 0
9, 38016, Note_on_c, 3, 46, 0
9, 38016, Note_on_c, 3, 59, 62
9, 38016, Note_on_c, 3, 47, 55
9, 38112, Note_on_c, 3, 47, 0
9, 38112, Note_on_c, 3, 59, 0
9, 38208, Note_on_c, 3, 52, 54
9, 38208, Note_on_c, 3, 64, 62
9, 38352, Note_on_c, 3, 64, 0
9, 38352, Note_on_c, 3, 52, 0
9, 38352, Note_on_c, 3, 62, 62
9, 38352, Note_on_c, 3, 50, 56
9, 38400, Note_on_c, 3, 50, 0
9, 38400, Note_on_c, 3, 62, 0
9, 38400, Note_on_c, 3, 55, 62
9, 38496, Note_on_c, 3, 55, 0
9, 38592, Note_on_c, 3, 65, 62
9, 38592, Note_on_c, 3, 53, 59
9, 38736, Note_on_c, 3, 53, 0
9, 38736, Note_on_c, 3, 65, 0
9, 38736, Note_on_c, 3, 52, 52
9, 38736, Note_on_c, 3, 64, 61
9, 38784, Note_on_c, 3, 64, 0
9, 38784, Note_on_c, 3, 52, 0
9, 38784, Note_on_c, 3, 45, 54
9, 38784, Note_on_c, 3, 57, 62
9, 38880, Note_on_c, 3, 57, 0
9, 38880, Note_on_c, 3, 45, 0
9, 38976, Note_on_c, 3, 55, 52
9, 38976, Note_on_c, 3, 67, 59
9, 39120, Note_on_c, 3, 67, 0
9, 39120, Note_on_c, 3, 55, 0
9, 39120, Note_on_c, 3, 54, 52
9, 39120, Note_on_c, 3, 66, 59
9, 39168, Note_on_c, 3, 66, 0
9, 39168, Note_on_c, 3, 54, 0
9, 39168, Note_on_c, 3, 47, 52
9, 39168, Note_on_c, 3, 59, 59
9, 39264, Note_on_c, 3, 59, 0
9, 39264, Note_on_c, 3, 47, 0
9, 39360, Note_on_c, 3, 57, 56
9, 39360, Note_on_c, 3, 69, 59
9, 39504, Note_on_c, 3, 69, 0
9, 39504, Note_on_c, 3, 57, 0
9, 39504, Note_on_c, 3, 68, 65
9, 39504, Note_on_c, 3, 56, 59
9, 39552, Note_on_c, 3, 56, 0
9, 39552, Note_on_c, 3, 68, 0
9, 39552, Note_on_c, 3, 54, 52
9, 39552, Note_on_c, 3, 66, 62
9, 39648, Note_on_c, 3, 66, 0
9, 39648, Note_on_c, 3, 54, 0
9, 39648, Note_on_c, 3, 63, 58
9, 39648, Note_on_c, 3, 51, 54
9, 39744, Note_on_c, 3, 51, 0
9, 39744, Note_on_c, 3, 63, 0
9, 39744, Note_on_c, 3, 63, 61
9, 39840, Note_on_c, 3, 63, 0
9, 39840, Note_on_c, 3, 45, 49
9, 39840, Note_on_c, 3, 57, 62
9, 39936, Note_on_c, 3, 57, 0
9, 39936, Note_on_c, 3, 45, 0
9, 39936, Note_on_c, 3, 54, 60
9, 39936, Note_on_c, 3, 42, 57
9, 40032, Note_on_c, 3, 42, 0
9, 40032, Note_on_c, 3, 54, 0
9, 40032, Note_on_c, 3, 39, 55
9, 40032, Note_on_c, 3, 51, 59
9, 40128, Note_on_c, 3, 51, 0
9, 40128, Note_on_c, 3, 39, 0
9, 40128, Note_on_c, 3, 36, 54
9, 40128, Note_on_c, 3, 48, 62
9, 40224, Note_on_c, 3, 48, 0
9, 40224, Note_on_c, 3, 36, 0
9, 40224, Note_on_c, 3, 47, 63
9, 40320, Note_on_c, 3, 47, 0
9, 40320, Note_on_c, 3, 46, 66
9, 40320, Note_on_c, 3, 34, 62
9, 40512, Note_on_c, 3, 34, 0
9, 40512, Note_on_c, 3, 46, 0
9, 40512, Note_on_c, 3, 45, 68
9, 40704, Note_on_c, 3, 45, 0
9, 40896, Note_on_c, 3, 66, 68
9, 40896, Note_on_c, 3, 54, 59
9, 41184, Note_on_c, 3, 54, 0
9, 41184, Note_on_c, 3, 66, 0
9, 41184, Note_on_c, 3, 53, 55
9, 41184, Note_on_c, 3, 65, 65
9, 41280, Note_on_c, 3, 65, 0
9, 41280, Note_on_c, 3, 53, 0
9, 41280, Note_on_c, 3, 63, 62
9, 41280, Note_on_c, 3, 51, 55
9, 41376, Note_on_c, 3, 51, 0
9, 41376, Note_on_c, 3, 63, 0
9, 41376, Note_on_c, 3, 59, 65
9, 41376, Note_on_c, 3, 47, 55
9, 41472, Note_on_c, 3, 47, 0
9, 41472, Note_on_c, 3, 59, 0
9, 41472, Note_on_c, 3, 58, 60
9, 41536, Note_on_c, 3, 58, 0
9, 41536, Note_on_c, 3, 45, 52
9, 41536, Note_on_c, 3, 57, 65
9, 41600, Note_on_c, 3, 57, 0
9, 41600, Note_on_c, 3, 45, 0
9, 41600, Note_on_c, 3, 42, 58
9, 41600, Note_on_c, 3, 54, 59
9, 41664, Note_on_c, 3, 54, 0
9, 41664, Note_on_c, 3, 42, 0
9, 41664, Note_on_c, 3, 39, 55
9, 41664, Note_on_c, 3, 51, 61
9, 41856, Note_on_c, 3, 51, 0
9, 41856, Note_on_c, 3, 39, 0
9, 41856, Note_on_c, 3, 37, 58
9, 41856, Note_on_c, 3, 49, 65
9, 42048, Note_on_c, 3, 49, 0
9, 42048, Note_on_c, 3, 37, 0
9, 42048, Note_on_c, 3, 47, 66
9, 42048, Note_on_c, 3, 35, 52
9, 42144, Note_on_c, 3, 35, 0
9, 42144, Note_on_c, 3, 47, 0
9, 42144, Note_on_c, 3, 59, 65
9, 42144, Note_on_c, 3, 47, 55
9, 42336, Note_on_c, 3, 47, 0
9, 42336, Note_on_c, 3, 59, 0
9, 42336, Note_on_c, 3, 66, 65
9, 42336, Note_on_c, 3, 54, 53
9, 42432, Note_on_c, 3, 54, 0
9, 42432, Note_on_c, 3, 66, 0
9, 42432, Note_on_c, 3, 51, 55
9, 42432, Note_on_c, 3, 63, 61
9, 42528, Note_on_c, 3, 63, 0
9, 42528, Note_on_c, 3, 51, 0
9, 42528, Note_on_c, 3, 59, 62
9, 42528, Note_on_c, 3, 47, 52
9, 42624, Note_on_c, 3, 47, 0
9, 42624, Note_on_c, 3, 59, 0
9, 42624, Note_on_c, 3, 42, 95
9, 43008, Note_on_c, 3, 42, 0
9, 43008, Note_on_c, 3, 44, 95
9, 43392, Note_on_c, 3, 44, 0
9, 43392, Note_on_c, 3, 39, 88
9, 43392, Note_on_c, 3, 51, 88
9, 43584, Note_on_c, 3, 51, 0
9, 43584, Note_on_c, 3, 39, 0
9, 43584, Note_on_c, 3, 45, 80
9, 43776, Note_on_c, 3, 45, 0
9, 43776, Note_on_c, 3, 46, 70
9, 43872, Note_on_c, 3, 46, 0
9, 59808, Note_on_c, 3, 56, 55
9, 59808, Note_on_c, 3, 51, 55
9, 59904, Note_on_c, 3, 51, 0
9, 59904, Note_on_c, 3, 56, 0
9, 60000, Note_on_c, 3, 53, 58
9, 60000, Note_on_c, 3, 47, 56
9, 60096, Note_on_c, 3, 47, 0
9, 60096, Note_on_c, 3, 53, 0
9, 60192, Note_on_c, 3, 51, 59
9, 60192, Note_on_c, 3, 44, 59
9, 60288, Note_on_c, 3, 44, 0
9, 60288, Note_on_c, 3, 51, 0
9, 60384, Note_on_c, 3, 47, 59
9, 60384, Note_on_c, 3, 39, 58
9, 60480, Note_on_c, 3, 39, 0
9, 60480, Note_on_c, 3, 47, 0
9, 60480, Note_on_c, 3, 46, 62
9, 60480, Note_on_c, 3, 38, 58
9, 60576, Note_on_c, 3, 38, 0
9, 60576, Note_on_c, 3, 46, 0
9, 60768, Note_on_c, 3, 46, 53
9, 60864, Note_on_c, 3, 46, 0
9, 60864, Note_on_c, 3, 46, 60
9, 60960, Note_on_c, 3, 46, 0
9, 61152, Note_on_c, 3, 46, 57
9, 61248, Note_on_c, 3, 46, 0
9, 61248, Note_on_c, 3, 46, 56
9, 61344, Note_on_c, 3, 46, 0
9, 61536, Note_on_c, 3, 54, 55
9, 61632, Note_on_c, 3, 54, 0
9, 61632, Note_on_c, 3, 54, 59
9, 61728, Note_on_c, 3, 54, 0
9, 65376, Note_on_c, 3, 65, 62
9, 65472, Note_on_c, 3, 65, 0
9, 65472, Note_on_c, 3, 62, 62
9, 65568, Note_on_c, 3, 62, 0
9, 65568, Note_on_c, 3, 59, 59
9, 65664, Note_on_c, 3, 59, 0
9, 65760, Note_on_c, 3, 56, 60
9, 65856, Note_on_c, 3, 56, 0
9, 65856, Note_on_c, 3, 53, 64
9, 65952, Note_on_c, 3, 53, 0
9, 65952, Note_on_c, 3, 51, 57
9, 65952, Note_on_c, 3, 56, 59
9, 66048, Note_on_c, 3, 56, 0
9, 66048, Note_on_c, 3, 51, 0
9, 66144, Note_on_c, 3, 53, 50
9, 66144, Note_on_c, 3, 47, 53
9, 66240, Note_on_c, 3, 47, 0
9, 66240, Note_on_c, 3, 53, 0
9, 66336, Note_on_c, 3, 51, 61
9, 66336, Note_on_c, 3, 44, 59
9, 66432, Note_on_c, 3, 44, 0
9, 66432, Note_on_c, 3, 51, 0
9, 66528, Note_on_c, 3, 39, 59
9, 66528, Note_on_c, 3, 47, 62
9, 66624, Note_on_c, 3, 47, 0
9, 66624, Note_on_c, 3, 39, 0
9, 66624, Note_on_c, 3, 38, 59
9, 66624, Note_on_c, 3, 46, 59
9, 66720, Note_on_c, 3, 46, 0
9, 66720, Note_on_c, 3, 38, 0
9, 66912, Note_on_c, 3, 42, 55
9, 66912, Note_on_c, 3, 54, 62
9, 67008, Note_on_c, 3, 54, 0
9, 67008, Note_on_c, 3, 42, 0
9, 67008, Note_on_c, 3, 41, 55
9, 67008, Note_on_c, 3, 53, 62
9, 67104, Note_on_c, 3, 53, 0
9, 67104, Note_on_c, 3, 41, 0
9, 67296, Note_on_c, 3, 51, 57
9, 67296, Note_on_c, 3, 39, 53
9, 67392, Note_on_c, 3, 39, 0
9, 67392, Note_on_c, 3, 51, 0
9, 67392, Note_on_c, 3, 37, 53
9, 67392, Note_on_c, 3, 49, 58
9, 67488, Note_on_c, 3, 49, 0
9, 67488, Note_on_c, 3, 37, 0
9, 67680, Note_on_c, 3, 47, 61
9, 67680, Note_on_c, 3, 35, 56
9, 67776, Note_on_c, 3, 35, 0
9, 67776, Note_on_c, 3, 47, 0
9, 67776, Note_on_c, 3, 34, 55
9, 67776, Note_on_c, 3, 46, 60
9, 67872, Note_on_c, 3, 46, 0
9, 67872, Note_on_c, 3, 34, 0
9, 68064, Note_on_c, 3, 44, 59
9, 68160, Note_on_c, 3, 44, 0
9, 68160, Note_on_c, 3, 45, 61
9, 68256, Note_on_c, 3, 45, 0
9, 68256, Note_on_c, 3, 45, 56
9, 68256, Note_on_c, 3, 57, 62
9, 68352, Note_on_c, 3, 57, 0
9, 68352, Note_on_c, 3, 45, 0
9, 77568, Note_on_c, 3, 42, 55
9, 77568, Note_on_c, 3, 54, 77
9, 77616, Note_on_c, 3, 42, 0
9, 77616, Note_on_c, 3, 42, 59
9, 77664, Note_on_c, 3, 42, 0
9, 77664, Note_on_c, 3, 54, 0
9, 77664, Note_on_c, 3, 44, 53
9, 77712, Note_on_c, 3, 44, 0
9, 77712, Note_on_c, 3, 46, 55
9, 77760, Note_on_c, 3, 46, 0
9, 77760, Note_on_c, 3, 47, 59
9, 77808, Note_on_c, 3, 47, 0
9, 77808, Note_on_c, 3, 49, 55
9, 77856, Note_on_c, 3, 49, 0
9, 77856, Note_on_c, 3, 51, 55
9, 77904, Note_on_c, 3, 51, 0
9, 77904, Note_on_c, 3, 53, 50
9, 77952, Note_on_c, 3, 53, 0
9, 77952, Note_on_c, 3, 54, 50
9, 78000, Note_on_c, 3, 54, 0
9, 78000, Note_on_c, 3, 53, 59
9, 78048, Note_on_c, 3, 53, 0
9, 78048, Note_on_c, 3, 54, 55
9, 78096, Note_on_c, 3, 54, 0
9, 78096, Note_on_c, 3, 56, 58
9, 78144, Note_on_c, 3, 56, 0
9, 78144, Note_on_c, 3, 58, 55
9, 78192, Note_on_c, 3, 58, 0
9, 78192, Note_on_c, 3, 56, 57
9, 78240, Note_on_c, 3, 56, 0
9, 78240, Note_on_c, 3, 58, 56
9, 78288, Note_on_c, 3, 58, 0
9, 78288, Note_on_c, 3, 59, 56
9, 78336, Note_on_c, 3, 59, 0
9, 78336, Note_on_c, 3, 61, 77
9, 78432, Note_on_c, 3, 61, 0
9, 78816, Note_on_c, 3, 63, 60
9, 78816, Note_on_c, 3, 51, 53
9, 78912, Note_on_c, 3, 51, 0
9, 78912, Note_on_c, 3, 63, 0
9, 78912, Note_on_c, 3, 62, 65
9, 78912, Note_on_c, 3, 50, 55
9, 79008, Note_on_c, 3, 50, 0
9, 79008, Note_on_c, 3, 62, 0
9, 79008, Note_on_c, 3, 60, 56
9, 79008, Note_on_c, 3, 48, 52
9, 79104, Note_on_c, 3, 48, 0
9, 79104, Note_on_c, 3, 60, 0
9, 79104, Note_on_c, 3, 46, 55
9, 79104, Note_on_c, 3, 58, 55
9, 79152, Note_on_c, 3, 46, 0
9, 79152, Note_on_c, 3, 46, 59
9, 79200, Note_on_c, 3, 46, 0
9, 79200, Note_on_c, 3, 58, 0
9, 79200, Note_on_c, 3, 48, 59
9, 79248, Note_on_c, 3, 48, 0
9, 79248, Note_on_c, 3, 50, 55
9, 79296, Note_on_c, 3, 50, 0
9, 79296, Note_on_c, 3, 51, 58
9, 79344, Note_on_c, 3, 51, 0
9, 79344, Note_on_c, 3, 53, 58
9, 79392, Note_on_c, 3, 53, 0
9, 79392, Note_on_c, 3, 55, 59
9, 79440, Note_on_c, 3, 55, 0
9, 79440, Note_on_c, 3, 57, 56
9, 79488, Note_on_c, 3, 57, 0
9, 79488, Note_on_c, 3, 58, 55
9, 79536, Note_on_c, 3, 58, 0
9, 79536, Note_on_c, 3, 41, 52
9, 79536, Note_on_c, 3, 53, 59
9, 79584, Note_on_c, 3, 53, 0
9, 79584, Note_on_c, 3, 41, 0
9, 79584, Note_on_c, 3, 52, 58
9, 79584, Note_on_c, 3, 40, 52
9, 79632, Note_on_c, 3, 40, 0
9, 79632, Note_on_c, 3, 52, 0
9, 79632, Note_on_c, 3, 39, 55
9, 79632, Note_on_c, 3, 51, 55
9, 79680, Note_on_c, 3, 51, 0
9, 79680, Note_on_c, 3, 39, 0
9, 79680, Note_on_c, 3, 38, 42
9, 79680, Note_on_c, 3, 50, 61
9, 79728, Note_on_c, 3, 50, 0
9, 79728, Note_on_c, 3, 38, 0
9, 79728, Note_on_c, 3, 37, 55
9, 79728, Note_on_c, 3, 49, 59
9, 79776, Note_on_c, 3, 49, 0
9, 79776, Note_on_c, 3, 37, 0
9, 79776, Note_on_c, 3, 36, 52
9, 79776, Note_on_c, 3, 48, 58
9, 79824, Note_on_c, 3, 48, 0
9, 79824, Note_on_c, 3, 36, 0
9, 79824, Note_on_c, 3, 47, 64
9, 79824, Note_on_c, 3, 35, 58
9, 79872, Note_on_c, 3, 35, 0
9, 79872, Note_on_c, 3, 47, 0
9, 79872, Note_on_c, 3, 34, 52
9, 79872, Note_on_c, 3, 46, 62
9, 79968, Note_on_c, 3, 46, 0
9, 79968, Note_on_c, 3, 34, 0
9, 80304, Note_on_c, 3, 48, 49
9, 80352, Note_on_c, 3, 48, 0
9, 80352, Note_on_c, 3, 47, 52
9, 80400, Note_on_c, 3, 47, 0
9, 80400, Note_on_c, 3, 46, 59
9, 80448, Note_on_c, 3, 46, 0
9, 80448, Note_on_c, 3, 45, 55
9, 80496, Note_on_c, 3, 45, 0
9, 80496, Note_on_c, 3, 43, 45
9, 80544, Note_on_c, 3, 43, 0
9, 80544, Note_on_c, 3, 41, 54
9, 80592, Note_on_c, 3, 41, 0
9, 80592, Note_on_c, 3, 39, 59
9, 80640, Note_on_c, 3, 39, 0
9, 80640, Note_on_c, 3, 38, 57
9, 80736, Note_on_c, 3, 38, 0
9, 81072, Note_on_c, 3, 56, 59
9, 81072, Note_on_c, 3, 44, 54
9, 81120, Note_on_c, 3, 44, 0
9, 81120, Note_on_c, 3, 56, 0
9, 81120, Note_on_c, 3, 55, 63
9, 81120, Note_on_c, 3, 43, 54
9, 81168, Note_on_c, 3, 43, 0
9, 81168, Note_on_c, 3, 55, 0
9, 81168, Note_on_c, 3, 54, 59
9, 81168, Note_on_c, 3, 42, 55
9, 81216, Note_on_c, 3, 42, 0
9, 81216, Note_on_c, 3, 54, 0
9, 81216, Note_on_c, 3, 41, 52
9, 81216, Note_on_c, 3, 53, 60
9, 81264, Note_on_c, 3, 53, 0
9, 81264, Note_on_c, 3, 41, 0
9, 81264, Note_on_c, 3, 51, 59
9, 81264, Note_on_c, 3, 39, 55
9, 81312, Note_on_c, 3, 39, 0
9, 81312, Note_on_c, 3, 51, 0
9, 81312, Note_on_c, 3, 38, 54
9, 81312, Note_on_c, 3, 50, 67
9, 81360, Note_on_c, 3, 50, 0
9, 81360, Note_on_c, 3, 38, 0
9, 81360, Note_on_c, 3, 48, 62
9, 81360, Note_on_c, 3, 36, 54
9, 81408, Note_on_c, 3, 36, 0
9, 81408, Note_on_c, 3, 48, 0
9, 81408, Note_on_c, 3, 46, 60
9, 81408, Note_on_c, 3, 34, 53
9, 81504, Note_on_c, 3, 34, 0
9, 81504, Note_on_c, 3, 46, 0
9, 81840, Note_on_c, 3, 41, 58
9, 81888, Note_on_c, 3, 41, 0
9, 81888, Note_on_c, 3, 42, 53
9, 81936, Note_on_c, 3, 42, 0
9, 81936, Note_on_c, 3, 43, 60
9, 81984, Note_on_c, 3, 43, 0
9, 81984, Note_on_c, 3, 44, 57
9, 82032, Note_on_c, 3, 44, 0
9, 82032, Note_on_c, 3, 45, 52
9, 82080, Note_on_c, 3, 45, 0
9, 82080, Note_on_c, 3, 46, 59
9, 82128, Note_on_c, 3, 46, 0
9, 82128, Note_on_c, 3, 47, 59
9, 82176, Note_on_c, 3, 47, 0
9, 82176, Note_on_c, 3, 50, 46
9, 82224, Note_on_c, 3, 58, 62
9, 82272, Note_on_c, 3, 58, 0
9, 82272, Note_on_c, 3, 50, 0
9, 82272, Note_on_c, 3, 57, 53
9, 82320, Note_on_c, 3, 57, 0
9, 82320, Note_on_c, 3, 55, 57
9, 82368, Note_on_c, 3, 55, 0
9, 82368, Note_on_c, 3, 53, 52
9, 82416, Note_on_c, 3, 53, 0
9, 82416, Note_on_c, 3, 51, 55
9, 82464, Note_on_c, 3, 51, 0
9, 82464, Note_on_c, 3, 50, 59
9, 82512, Note_on_c, 3, 50, 0
9, 82512, Note_on_c, 3, 48, 59
9, 82560, Note_on_c, 3, 48, 0
9, 82560, Note_on_c, 3, 46, 59
9, 82608, Note_on_c, 3, 46, 0
9, 82608, Note_on_c, 3, 45, 58
9, 82656, Note_on_c, 3, 45, 0
9, 82656, Note_on_c, 3, 46, 59
9, 82704, Note_on_c, 3, 46, 0
9, 82704, Note_on_c, 3, 48, 59
9, 82752, Note_on_c, 3, 48, 0
9, 82752, Note_on_c, 3, 50, 60
9, 82800, Note_on_c, 3, 50, 0
9, 82800, Note_on_c, 3, 49, 56
9, 82848, Note_on_c, 3, 49, 0
9, 82848, Note_on_c, 3, 50, 62
9, 82896, Note_on_c, 3, 50, 0
9, 82896, Note_on_c, 3, 51, 56
9, 82944, Note_on_c, 3, 51, 0
9, 82944, Note_on_c, 3, 53, 59
9, 83040, Note_on_c, 3, 53, 0
9, 83424, Note_on_c, 3, 43, 52
9, 83424, Note_on_c, 3, 55, 61
9, 83520, Note_on_c, 3, 55, 0
9, 83520, Note_on_c, 3, 43, 0
9, 83520, Note_on_c, 3, 41, 56
9, 83520, Note_on_c, 3, 53, 49
9, 83616, Note_on_c, 3, 53, 0
9, 83616, Note_on_c, 3, 41, 0
9, 83616, Note_on_c, 3, 52, 64
9, 83616, Note_on_c, 3, 40, 54
9, 83712, Note_on_c, 3, 40, 0
9, 83712, Note_on_c, 3, 52, 0
9, 83712, Note_on_c, 3, 50, 62
9, 83712, Note_on_c, 3, 38, 49
9, 83760, Note_on_c, 3, 38, 0
9, 83760, Note_on_c, 3, 50, 0
9, 83760, Note_on_c, 3, 38, 55
9, 83808, Note_on_c, 3, 38, 0
9, 83808, Note_on_c, 3, 40, 52
9, 83856, Note_on_c, 3, 40, 0
9, 83856, Note_on_c, 3, 41, 52
9, 83904, Note_on_c, 3, 41, 0
9, 83904, Note_on_c, 3, 43, 59
9, 83952, Note_on_c, 3, 43, 0
9, 83952, Note_on_c, 3, 45, 54
9, 84000, Note_on_c, 3, 45, 0
9, 84000, Note_on_c, 3, 47, 59
9, 84048, Note_on_c, 3, 47, 0
9, 84048, Note_on_c, 3, 49, 56
9, 84096, Note_on_c, 3, 49, 0
9, 84096, Note_on_c, 3, 50, 52
9, 84144, Note_on_c, 3, 50, 0
9, 84144, Note_on_c, 3, 49, 53
9, 84192, Note_on_c, 3, 49, 0
9, 84192, Note_on_c, 3, 50, 62
9, 84240, Note_on_c, 3, 50, 0
9, 84240, Note_on_c, 3, 52, 57
9, 84288, Note_on_c, 3, 52, 0
9, 84288, Note_on_c, 3, 53, 59
9, 84336, Note_on_c, 3, 53, 0
9, 84336, Note_on_c, 3, 52, 62
9, 84384, Note_on_c, 3, 52, 0
9, 84384, Note_on_c, 3, 53, 58
9, 84432, Note_on_c, 3, 53, 0
9, 84432, Note_on_c, 3, 55, 54
9, 84480, Note_on_c, 3, 55, 0
9, 84480, Note_on_c, 3, 57, 62
9, 84576, Note_on_c, 3, 57, 0
9, 84960, Note_on_c, 3, 46, 53
9, 84960, Note_on_c, 3, 58, 59
9, 85056, Note_on_c, 3, 58, 0
9, 85056, Note_on_c, 3, 46, 0
9, 85056, Note_on_c, 3, 57, 62
9, 85056, Note_on_c, 3, 45, 58
9, 85152, Note_on_c, 3, 45, 0
9, 85152, Note_on_c, 3, 57, 0
9, 85152, Note_on_c, 3, 43, 52
9, 85152, Note_on_c, 3, 55, 62
9, 85248, Note_on_c, 3, 55, 0
9, 85248, Note_on_c, 3, 43, 0
9, 85248, Note_on_c, 3, 41, 52
9, 85248, Note_on_c, 3, 53, 59
9, 85296, Note_on_c, 3, 53, 0
9, 85296, Note_on_c, 3, 41, 0
9, 85296, Note_on_c, 3, 41, 52
9, 85344, Note_on_c, 3, 41, 0
9, 85344, Note_on_c, 3, 43, 57
9, 85392, Note_on_c, 3, 43, 0
9, 85392, Note_on_c, 3, 45, 59
9, 85440, Note_on_c, 3, 45, 0
9, 85440, Note_on_c, 3, 46, 55
9, 85488, Note_on_c, 3, 46, 0
9, 85488, Note_on_c, 3, 48, 52
9, 85536, Note_on_c, 3, 48, 0
9, 85536, Note_on_c, 3, 50, 62
9, 85584, Note_on_c, 3, 50, 0
9, 85584, Note_on_c, 3, 52, 56
9, 85632, Note_on_c, 3, 52, 0
9, 85632, Note_on_c, 3, 53, 60
9, 85680, Note_on_c, 3, 53, 0
9, 85680, Note_on_c, 3, 60, 55
9, 85680, Note_on_c, 3, 48, 48
9, 85728, Note_on_c, 3, 48, 0
9, 85728, Note_on_c, 3, 60, 0
9, 85728, Note_on_c, 3, 59, 59
9, 85728, Note_on_c, 3, 47, 50
9, 85776, Note_on_c, 3, 47, 0
9, 85776, Note_on_c, 3, 59, 0
9, 85776, Note_on_c, 3, 58, 57
9, 85776, Note_on_c, 3, 46, 52
9, 85824, Note_on_c, 3, 46, 0
9, 85824, Note_on_c, 3, 58, 0
9, 85824, Note_on_c, 3, 45, 50
9, 85824, Note_on_c, 3, 57, 65
9, 85872, Note_on_c, 3, 57, 0
9, 85872, Note_on_c, 3, 45, 0
9, 85872, Note_on_c, 3, 56, 62
9, 85872, Note_on_c, 3, 44, 52
9, 85920, Note_on_c, 3, 44, 0
9, 85920, Note_on_c, 3, 56, 0
9, 85920, Note_on_c, 3, 55, 65
9, 85920, Note_on_c, 3, 43, 55
9, 85968, Note_on_c, 3, 43, 0
9, 85968, Note_on_c, 3, 55, 0
9, 85968, Note_on_c, 3, 42, 58
9, 85968, Note_on_c, 3, 54, 60
9, 86016, Note_on_c, 3, 54, 0
9, 86016, Note_on_c, 3, 42, 0
9, 86016, Note_on_c, 3, 41, 56
9, 86016, Note_on_c, 3, 53, 58
9, 86112, Note_on_c, 3, 53, 0
9, 86112, Note_on_c, 3, 41, 0
9, 86448, Note_on_c, 3, 55, 59
9, 86448, Note_on_c, 3, 43, 50
9, 86496, Note_on_c, 3, 43, 0
9, 86496, Note_on_c, 3, 55, 0
9, 86496, Note_on_c, 3, 42, 52
9, 86496, Note_on_c, 3, 54, 59
9, 86544, Note_on_c, 3, 54, 0
9, 86544, Note_on_c, 3, 42, 0
9, 86544, Note_on_c, 3, 41, 52
9, 86544, Note_on_c, 3, 53, 62
9, 86592, Note_on_c, 3, 53, 0
9, 86592, Note_on_c, 3, 41, 0
9, 86592, Note_on_c, 3, 40, 51
9, 86592, Note_on_c, 3, 52, 62
9, 86640, Note_on_c, 3, 52, 0
9, 86640, Note_on_c, 3, 40, 0
9, 86640, Note_on_c, 3, 38, 52
9, 86640, Note_on_c, 3, 50, 60
9, 86688, Note_on_c, 3, 50, 0
9, 86688, Note_on_c, 3, 38, 0
9, 86688, Note_on_c, 3, 36, 56
9, 86688, Note_on_c, 3, 48, 62
9, 86736, Note_on_c, 3, 48, 0
9, 86736, Note_on_c, 3, 36, 0
9, 86736, Note_on_c, 3, 34, 54
9, 86736, Note_on_c, 3, 46, 62
9, 86784, Note_on_c, 3, 46, 0
9, 86784, Note_on_c, 3, 34, 0
9, 86784, Note_on_c, 3, 45, 59
9, 86880, Note_on_c, 3, 45, 0
9, 87216, Note_on_c, 3, 51, 43
9, 87264, Note_on_c, 3, 51, 0
9, 87264, Note_on_c, 3, 50, 50
9, 87312, Note_on_c, 3, 50, 0
9, 87312, Note_on_c, 3, 49, 53
9, 87360, Note_on_c, 3, 49, 0
9, 87360, Note_on_c, 3, 48, 52
9, 87408, Note_on_c, 3, 48, 0
9, 87408, Note_on_c, 3, 46, 55
9, 87456, Note_on_c, 3, 46, 0
9, 87456, Note_on_c, 3, 45, 58
9, 87504, Note_on_c, 3, 45, 0
9, 87504, Note_on_c, 3, 43, 61
9, 87552, Note_on_c, 3, 43, 0
9, 87552, Note_on_c, 3, 41, 77
9, 87648, Note_on_c, 3, 41, 0
9, 87984, Note_on_c, 3, 48, 56
9, 88032, Note_on_c, 3, 48, 0
9, 88032, Note_on_c, 3, 49, 59
9, 88080, Note_on_c, 3, 49, 0
9, 88080, Note_on_c, 3, 50, 58
9, 88128, Note_on_c, 3, 50, 0
9, 88128, Note_on_c, 3, 51, 58
9, 88176, Note_on_c, 3, 51, 0
9, 88176, Note_on_c, 3, 52, 57
9, 88224, Note_on_c, 3, 52, 0
9, 88224, Note_on_c, 3, 53, 58
9, 88272, Note_on_c, 3, 53, 0
9, 88272, Note_on_c, 3, 55, 56
9, 88320, Note_on_c, 3, 55, 0
9, 88320, Note_on_c, 3, 57, 59
9, 88368, Note_on_c, 3, 57, 0
9, 88368, Note_on_c, 3, 53, 52
9, 88416, Note_on_c, 3, 53, 0
9, 88416, Note_on_c, 3, 52, 56
9, 88464, Note_on_c, 3, 52, 0
9, 88464, Note_on_c, 3, 50, 62
9, 88512, Note_on_c, 3, 50, 0
9, 88512, Note_on_c, 3, 48, 54
9, 88560, Note_on_c, 3, 48, 0
9, 88560, Note_on_c, 3, 46, 55
9, 88608, Note_on_c, 3, 46, 0
9, 88608, Note_on_c, 3, 45, 56
9, 88656, Note_on_c, 3, 45, 0
9, 88656, Note_on_c, 3, 43, 59
9, 88704, Note_on_c, 3, 43, 0
9, 88704, Note_on_c, 3, 41, 58
9, 88800, Note_on_c, 3, 41, 0
9, 89136, Note_on_c, 3, 55, 59
9, 89136, Note_on_c, 3, 43, 51
9, 89184, Note_on_c, 3, 43, 0
9, 89184, Note_on_c, 3, 55, 0
9, 89184, Note_on_c, 3, 53, 59
9, 89184, Note_on_c, 3, 41, 55
9, 89232, Note_on_c, 3, 41, 0
9, 89232, Note_on_c, 3, 53, 0
9, 89232, Note_on_c, 3, 40, 42
9, 89232, Note_on_c, 3, 52, 59
9, 89280, Note_on_c, 3, 52, 0
9, 89280, Note_on_c, 3, 40, 0
9, 89280, Note_on_c, 3, 38, 51
9, 89280, Note_on_c, 3, 50, 62
9, 89328, Note_on_c, 3, 50, 0
9, 89328, Note_on_c, 3, 38, 0
9, 89328, Note_on_c, 3, 49, 59
9, 89328, Note_on_c, 3, 37, 53
9, 89376, Note_on_c, 3, 37, 0
9, 89376, Note_on_c, 3, 49, 0
9, 89376, Note_on_c, 3, 48, 61
9, 89376, Note_on_c, 3, 36, 52
9, 89424, Note_on_c, 3, 36, 0
9, 89424, Note_on_c, 3, 48, 0
9, 89424, Note_on_c, 3, 46, 59
9, 89424, Note_on_c, 3, 34, 50
9, 89472, Note_on_c, 3, 34, 0
9, 89472, Note_on_c, 3, 46, 0
9, 89472, Note_on_c, 3, 43, 63
9, 89568, Note_on_c, 3, 43, 0
9, 89904, Note_on_c, 3, 58, 57
9, 89904, Note_on_c, 3, 46, 53
9, 89952, Note_on_c, 3, 46, 0
9, 89952, Note_on_c, 3, 58, 0
9, 89952, Note_on_c, 3, 57, 62
9, 89952, Note_on_c, 3, 45, 46
9, 90000, Note_on_c, 3, 45, 0
9, 90000, Note_on_c, 3, 57, 0
9, 90000, Note_on_c, 3, 43, 51
9, 90000, Note_on_c, 3, 55, 65
9, 90048, Note_on_c, 3, 55, 0
9, 90048, Note_on_c, 3, 43, 0
9, 90048, Note_on_c, 3, 41, 52
9, 90048, Note_on_c, 3, 53, 62
9, 90096, Note_on_c, 3, 53, 0
9, 90096, Note_on_c, 3, 41, 0
9, 90096, Note_on_c, 3, 52, 65
9, 90096, Note_on_c, 3, 40, 51
9, 90144, Note_on_c, 3, 40, 0
9, 90144, Note_on_c, 3, 52, 0
9, 90144, Note_on_c, 3, 39, 55
9, 90144, Note_on_c, 3, 51, 62
9, 90192, Note_on_c, 3, 51, 0
9, 90192, Note_on_c, 3, 39, 0
9, 90192, Note_on_c, 3, 38, 51
9, 90192, Note_on_c, 3, 50, 62
9, 90240, Note_on_c, 3, 50, 0
9, 90240, Note_on_c, 3, 38, 0
9, 90240, Note_on_c, 3, 36, 58
9, 90240, Note_on_c, 3, 48, 62
9, 90336, Note_on_c, 3, 48, 0
9, 90336, Note_on_c, 3, 36, 0
9, 90720, Note_on_c, 3, 54, 52
9, 90720, Note_on_c, 3, 45, 58
9, 90912, Note_on_c, 3, 45, 0
9, 90912, Note_on_c, 3, 54, 0
9, 91104, Note_on_c, 3, 45, 65
9, 91104, Note_on_c, 3, 51, 55
9, 91296, Note_on_c, 3, 51, 0
9, 91296, Note_on_c, 3, 45, 0
9, 91584, Note_on_c, 3, 45, 55
9, 91584, Note_on_c, 3, 54, 50
9, 91680, Note_on_c, 3, 54, 0
9, 91680, Note_on_c, 3, 45, 0
9, 91968, Note_on_c, 3, 54, 52
9, 91968, Note_on_c, 3, 45, 58
9, 92064, Note_on_c, 3, 45, 0
9, 92064, Note_on_c, 3, 54, 0
9, 92160, Note_on_c, 3, 45, 59
9, 92160, Note_on_c, 3, 54, 55
9, 92256, Note_on_c, 3, 54, 0
9, 92256, Note_on_c, 3, 45, 0
9, 92352, Note_on_c, 3, 36, 55
9, 92352, Note_on_c, 3, 48, 62
9, 92448, Note_on_c, 3, 48, 0
9, 92448, Note_on_c, 3, 36, 0
9, 92544, Note_on_c, 3, 48, 67
9, 92544, Note_on_c, 3, 36, 55
9, 92640, Note_on_c, 3, 36, 0
9, 92640, Note_on_c, 3, 48, 0
9, 92736, Note_on_c, 3, 36, 58
9, 92736, Note_on_c, 3, 48, 62
9, 92832, Note_on_c, 3, 48, 0
9, 92832, Note_on_c, 3, 36, 0
9, 92928, Note_on_c, 3, 36, 54
9, 92928, Note_on_c, 3, 48, 63
9, 93024, Note_on_c, 3, 48, 0
9, 93024, Note_on_c, 3, 36, 0
9, 94560, Note_on_c, 3, 44, 95
9, 94656, Note_on_c, 3, 44, 0
9, 94656, Note_on_c, 3, 56, 95
9, 94656, Note_on_c, 3, 44, 95
9, 94752, Note_on_c, 3, 44, 0
9, 94752, Note_on_c, 3, 56, 0
9, 95136, Note_on_c, 3, 68, 95
9, 95136, Note_on_c, 3, 51, 95
9, 95232, Note_on_c, 3, 51, 0
9, 95232, Note_on_c, 3, 68, 0
9, 95328, Note_on_c, 3, 65, 95
9, 95328, Note_on_c, 3, 47, 95
9, 95424, Note_on_c, 3, 47, 0
9, 95424, Note_on_c, 3, 65, 0
9, 95520, Note_on_c, 3, 59, 95
9, 95520, Note_on_c, 3, 44, 95
9, 95616, Note_on_c, 3, 44, 0
9, 95616, Note_on_c, 3, 59, 0
9, 95712, Note_on_c, 3, 39, 95
9, 95712, Note_on_c, 3, 51, 95
9, 95808, Note_on_c, 3, 51, 0
9, 95808, Note_on_c, 3, 39, 0
9, 95808, Note_on_c, 3, 50, 95
9, 95808, Note_on_c, 3, 38, 95
9, 95904, Note_on_c, 3, 38, 0
9, 95904, Note_on_c, 3, 50, 0
9, 96096, Note_on_c, 3, 42, 53
9, 96096, Note_on_c, 3, 54, 56
9, 96192, Note_on_c, 3, 54, 0
9, 96192, Note_on_c, 3, 42, 0
9, 96192, Note_on_c, 3, 41, 59
9, 96192, Note_on_c, 3, 53, 65
9, 96288, Note_on_c, 3, 53, 0
9, 96288, Note_on_c, 3, 41, 0
9, 96480, Note_on_c, 3, 51, 59
9, 96480, Note_on_c, 3, 39, 55
9, 96576, Note_on_c, 3, 39, 0
9, 96576, Note_on_c, 3, 51, 0
9, 96576, Note_on_c, 3, 37, 57
9, 96576, Note_on_c, 3, 49, 61
9, 96672, Note_on_c, 3, 49, 0
9, 96672, Note_on_c, 3, 37, 0
9, 96864, Note_on_c, 3, 47, 60
9, 96864, Note_on_c, 3, 35, 56
9, 96960, Note_on_c, 3, 35, 0
9, 96960, Note_on_c, 3, 47, 0
9, 96960, Note_on_c, 3, 34, 52
9, 96960, Note_on_c, 3, 46, 58
9, 97056, Note_on_c, 3, 46, 0
9, 97056, Note_on_c, 3, 34, 0
9, 97248, Note_on_c, 3, 44, 59
9, 97344, Note_on_c, 3, 44, 0
9, 97344, Note_on_c, 3, 45, 59
9, 97440, Note_on_c, 3, 45, 0
9, 97632, Note_on_c, 3, 45, 59
9, 97728, Note_on_c, 3, 45, 0
9, 97728, Note_on_c, 3, 34, 54
9, 97728, Note_on_c, 3, 46, 62
9, 97824, Note_on_c, 3, 46, 0
9, 97824, Note_on_c, 3, 34, 0
9, 98016, Note_on_c, 3, 46, 62
9, 98112, Note_on_c, 3, 46, 0
9, 98112, Note_on_c, 3, 47, 63
9, 98112, Note_on_c, 3, 35, 55
9, 98208, Note_on_c, 3, 35, 0
9, 98208, Note_on_c, 3, 47, 0
9, 98400, Note_on_c, 3, 48, 60
9, 98400, Note_on_c, 3, 36, 55
9, 98592, Note_on_c, 3, 36, 0
9, 98592, Note_on_c, 3, 48, 0
9, 98592, Note_on_c, 3, 49, 60
9, 98592, Note_on_c, 3, 37, 55
9, 98784, Note_on_c, 3, 37, 0
9, 98784, Note_on_c, 3, 49, 0
9, 98784, Note_on_c, 3, 38, 50
9, 98784, Note_on_c, 3, 50, 61
9, 98976, Note_on_c, 3, 50, 0
9, 98976, Note_on_c, 3, 38, 0
9, 98976, Note_on_c, 3, 39, 52
9, 98976, Note_on_c, 3, 51, 58
9, 99072, Note_on_c, 3, 51, 0
9, 99072, Note_on_c, 3, 39, 0
9, 99072, Note_on_c, 3, 52, 95
9, 99072, Note_on_c, 3, 40, 95
9, 99168, Note_on_c, 3, 40, 0
9, 99168, Note_on_c, 3, 52, 0
9, 99264, Note_on_c, 3, 40, 95
9, 99264, Note_on_c, 3, 52, 95
9, 99456, Note_on_c, 3, 52, 0
9, 99456, Note_on_c, 3, 40, 0
9, 99552, Note_on_c, 3, 57, 62
9, 99600, Note_on_c, 3, 57, 0
9, 99600, Note_on_c, 3, 57, 59
9, 99648, Note_on_c, 3, 57, 0
9, 99648, Note_on_c, 3, 57, 54
9, 99744, Note_on_c, 3, 57, 0
9, 99744, Note_on_c, 3, 57, 59
9, 99840, Note_on_c, 3, 57, 0
9, 99840, Note_on_c, 3, 54, 55
9, 99840, Note_on_c, 3, 62, 63
9, 100032, Note_on_c, 3, 62, 0
9, 100032, Note_on_c, 3, 54, 0
9, 100032, Note_on_c, 3, 62, 61
9, 100032, Note_on_c, 3, 54, 59
9, 100224, Note_on_c, 3, 54, 0
9, 100224, Note_on_c, 3, 62, 0
9, 100224, Note_on_c, 3, 64, 54
9, 100224, Note_on_c, 3, 57, 58
9, 100416, Note_on_c, 3, 57, 0
9, 100416, Note_on_c, 3, 64, 0
9, 100416, Note_on_c, 3, 57, 61
9, 100416, Note_on_c, 3, 64, 59
9, 100608, Note_on_c, 3, 64, 0
9, 100608, Note_on_c, 3, 57, 0
9, 100608, Note_on_c, 3, 69, 59
9, 100608, Note_on_c, 3, 66, 59
9, 100896, Note_on_c, 3, 66, 0
9, 100896, Note_on_c, 3, 69, 0
9, 100896, Note_on_c, 3, 66, 53
9, 100896, Note_on_c, 3, 62, 57
9, 100992, Note_on_c, 3, 62, 0
9, 100992, Note_on_c, 3, 66, 0
9, 100992, Note_on_c, 3, 54, 55
9, 100992, Note_on_c, 3, 62, 58
9, 101088, Note_on_c, 3, 62, 0
9, 101088, Note_on_c, 3, 54, 0
9, 101088, Note_on_c, 3, 57, 95
9, 101136, Note_on_c, 3, 57, 0
9, 101136, Note_on_c, 3, 57, 95
9, 101184, Note_on_c, 3, 57, 0
9, 101184, Note_on_c, 3, 57, 95
9, 101280, Note_on_c, 3, 57, 0
9, 101280, Note_on_c, 3, 57, 95
9, 101376, Note_on_c, 3, 57, 0
9, 101376, Note_on_c, 3, 54, 55
9, 101376, Note_on_c, 3, 62, 63
9, 101568, Note_on_c, 3, 62, 0
9, 101568, Note_on_c, 3, 54, 0
9, 101568, Note_on_c, 3, 62, 61
9, 101568, Note_on_c, 3, 54, 59
9, 101760, Note_on_c, 3, 54, 0
9, 101760, Note_on_c, 3, 62, 0
9, 101760, Note_on_c, 3, 57, 58
9, 101760, Note_on_c, 3, 64, 54
9, 101952, Note_on_c, 3, 64, 0
9, 101952, Note_on_c, 3, 57, 0
9, 101952, Note_on_c, 3, 57, 61
9, 101952, Note_on_c, 3, 64, 59
9, 102144, Note_on_c, 3, 64, 0
9, 102144, Note_on_c, 3, 57, 0
9, 102144, Note_on_c, 3, 66, 59
9, 102144, Note_on_c, 3, 69, 59
9, 102432, Note_on_c, 3, 69, 0
9, 102432, Note_on_c, 3, 66, 0
9, 102432, Note_on_c, 3, 62, 57
9, 102432, Note_on_c, 3, 66, 53
9, 102528, Note_on_c, 3, 66, 0
9, 102528, Note_on_c, 3, 62, 0
9, 102528, Note_on_c, 3, 54, 55
9, 102528, Note_on_c, 3, 62, 58
9, 102624, Note_on_c, 3, 62, 0
9, 102624, Note_on_c, 3, 54, 0
9, 102624, Note_on_c, 3, 57, 95
9, 102672, Note_on_c, 3, 57, 0
9, 102672, Note_on_c, 3, 57, 95
9, 102720, Note_on_c, 3, 57, 0
9, 102720, Note_on_c, 3, 57, 95
9, 102816, Note_on_c, 3, 57, 0
9, 102816, Note_on_c, 3, 57, 95
9, 102912, Note_on_c, 3, 57, 0
9, 102912, Note_on_c, 3, 42, 95
9, 103104, Note_on_c, 3, 42, 0
9, 103104, Note_on_c, 3, 42, 95
9, 103296, Note_on_c, 3, 42, 0
9, 103296, Note_on_c, 3, 45, 95
9, 103488, Note_on_c, 3, 45, 0
9, 103488, Note_on_c, 3, 45, 95
9, 103680, Note_on_c, 3, 45, 0
9, 103680, Note_on_c, 3, 54, 95
9, 103968, Note_on_c, 3, 54, 0
9, 103968, Note_on_c, 3, 50, 95
9, 104064, Note_on_c, 3, 50, 0
9, 104064, Note_on_c, 3, 42, 95
9, 104448, Note_on_c, 3, 42, 0
9, 107520, Note_on_c, 3, 42, 74
9, 107904, Note_on_c, 3, 42, 0
9, 108480, Note_on_c, 3, 50, 80
9, 108480, Note_on_c, 3, 42, 80
9, 108672, Note_on_c, 3, 42, 0
9, 108672, Note_on_c, 3, 50, 0
9, 108864, Note_on_c, 3, 42, 80
9, 108864, Note_on_c, 3, 50, 80
9, 109056, Note_on_c, 3, 50, 0
9, 109056, Note_on_c, 3, 42, 0
9, 109248, Note_on_c, 3, 50, 80
9, 109248, Note_on_c, 3, 42, 80
9, 109440, Note_on_c, 3, 42, 0
9, 109440, Note_on_c, 3, 50, 0
9, 109632, Note_on_c, 3, 42, 80
9, 109632, Note_on_c, 3, 50, 80
9, 109824, Note_on_c, 3, 50, 0
9, 109824, Note_on_c, 3, 42, 0
9, 109824, Note_on_c, 3, 62, 77
9, 110016, Note_on_c, 3, 54, 77
9, 110976, Note_on_c, 3, 62, 0
9, 111360, Note_on_c, 3, 54, 0
9, 111360, Note_on_c, 3, 61, 24
9, 111360, Note_on_c, 3, 54, 24
9, 111744, Note_on_c, 3, 54, 0
9, 111744, Note_on_c, 3, 61, 0
9, 111744, Note_on_c, 3, 53, 24
9, 111744, Note_on_c, 3, 61, 24
9, 112128, Note_on_c, 3, 61, 0
9, 112128, Note_on_c, 3, 53, 0
9, 112128, Note_on_c, 3, 54, 24
9, 112128, Note_on_c, 3, 61, 24
9, 112512, Note_on_c, 3, 61, 0
9, 112512, Note_on_c, 3, 54, 0
9, 112512, Note_on_c, 3, 61, 21
9, 112512, Note_on_c, 3, 53, 21
9, 112896, Note_on_c, 3, 53, 0
9, 112896, Note_on_c, 3, 61, 0
9, 112896, Note_on_c, 3, 54, 21
9, 112896, Note_on_c, 3, 61, 21
9, 113280, Note_on_c, 3, 61, 0
9, 113280, Note_on_c, 3, 54, 0
9, 113280, Note_on_c, 3, 61, 24
9, 113280, Note_on_c, 3, 53, 24
9, 113664, Note_on_c, 3, 53, 0
9, 113664, Note_on_c, 3, 61, 0
9, 113664, Note_on_c, 3, 61, 24
9, 113664, Note_on_c, 3, 54, 24
9, 114048, Note_on_c, 3, 54, 0
9, 114048, Note_on_c, 3, 61, 0
9, 114048, Note_on_c, 3, 53, 24
9, 114048, Note_on_c, 3, 61, 24
9, 114432, Note_on_c, 3, 61, 0
9, 114432, Note_on_c, 3, 53, 0
9, 114432, Note_on_c, 3, 54, 24
9, 114432, Note_on_c, 3, 61, 24
9, 114816, Note_on_c, 3, 61, 0
9, 114816, Note_on_c, 3, 54, 0
9, 114816, Note_on_c, 3, 53, 24
9, 114816, Note_on_c, 3, 61, 24
9, 115200, Note_on_c, 3, 61, 0
9, 115200, Note_on_c, 3, 53, 0
9, 115200, Note_on_c, 3, 61, 24
9, 115200, Note_on_c, 3, 54, 24
9, 115584, Note_on_c, 3, 54, 0
9, 115584, Note_on_c, 3, 61, 0
9, 115584, Note_on_c, 3, 53, 27
9, 115584, Note_on_c, 3, 61, 27
9, 115968, Note_on_c, 3, 61, 0
9, 115968, Note_on_c, 3, 53, 0
9, 115968, Note_on_c, 3, 54, 21
9, 115968, Note_on_c, 3, 61, 21
9, 116352, Note_on_c, 3, 61, 0
9, 116352, Note_on_c, 3, 54, 0
9, 116352, Note_on_c, 3, 56, 21
9, 116352, Note_on_c, 3, 61, 21
9, 116736, Note_on_c, 3, 61, 0
9, 116736, Note_on_c, 3, 56, 0
9, 116736, Note_on_c, 3, 54, 21
9, 116736, Note_on_c, 3, 61, 21
9, 117120, Note_on_c, 3, 61, 0
9, 117120, Note_on_c, 3, 54, 0
9, 117120, Note_on_c, 3, 53, 21
9, 117120, Note_on_c, 3, 61, 21
9, 117504, Note_on_c, 3, 61, 0
9, 117504, Note_on_c, 3, 53, 0
9, 117504, Note_on_c, 3, 61, 21
9, 117504, Note_on_c, 3, 54, 21
9, 117888, Note_on_c, 3, 54, 0
9, 117888, Note_on_c, 3, 61, 0
9, 117888, Note_on_c, 3, 61, 21
9, 117888, Note_on_c, 3, 53, 21
9, 118272, Note_on_c, 3, 53, 0
9, 118272, Note_on_c, 3, 61, 0
9, 118272, Note_on_c, 3, 54, 21
9, 118272, Note_on_c, 3, 61, 21
9, 118656, Note_on_c, 3, 61, 0
9, 118656, Note_on_c, 3, 54, 0
9, 118656, Note_on_c, 3, 53, 21
9, 118656, Note_on_c, 3, 61, 21
9, 119040, Note_on_c, 3, 61, 0
9, 119040, Note_on_c, 3, 53, 0
9, 119040, Note_on_c, 3, 61, 21
9, 119040, Note_on_c, 3, 54, 21
9, 119424, Note_on_c, 3, 54, 0
9, 119424, Note_on_c, 3, 61, 0
9, 119424, Note_on_c, 3, 56, 21
9, 119424, Note_on_c, 3, 61, 21
9, 119808, Note_on_c, 3, 61, 0
9, 119808, Note_on_c, 3, 56, 0
9, 119808, Note_on_c, 3, 54, 21
9, 119808, Note_on_c, 3, 61, 21
9, 120192, Note_on_c, 3, 61, 0
9, 120192, Note_on_c, 3, 54, 0
9, 120192, Note_on_c, 3, 62, 21
9, 120192, Note_on_c, 3, 60, 21
9, 120576, Note_on_c, 3, 60, 0
9, 120576, Note_on_c, 3, 62, 0
9, 120576, Note_on_c, 3, 59, 59
9, 120576, Note_on_c, 3, 62, 62
9, 120960, Note_on_c, 3, 62, 0
9, 120960, Note_on_c, 3, 59, 0
9, 120960, Note_on_c, 3, 62, 64
9, 120960, Note_on_c, 3, 60, 58
9, 121344, Note_on_c, 3, 60, 0
9, 121344, Note_on_c, 3, 62, 0
9, 121344, Note_on_c, 3, 59, 58
9, 121344, Note_on_c, 3, 62, 61
9, 121728, Note_on_c, 3, 62, 0
9, 121728, Note_on_c, 3, 59, 0
9, 121728, Note_on_c, 3, 62, 62
9, 121728, Note_on_c, 3, 60, 50
9, 122112, Note_on_c, 3, 60, 0
9, 122112, Note_on_c, 3, 62, 0
9, 122112, Note_on_c, 3, 59, 66
9, 122112, Note_on_c, 3, 62, 66
9, 122496, Note_on_c, 3, 62, 0
9, 122496, Note_on_c, 3, 59, 0
9, 122496, Note_on_c, 3, 57, 59
9, 122496, Note_on_c, 3, 62, 61
9, 122880, Note_on_c, 3, 62, 0
9, 122880, Note_on_c, 3, 57, 0
9, 122880, Note_on_c, 3, 59, 62
9, 122880, Note_on_c, 3, 62, 65
9, 123264, Note_on_c, 3, 62, 0
9, 123264, Note_on_c, 3, 59, 0
9, 123264, Note_on_c, 3, 60, 62
9, 123264, Note_on_c, 3, 62, 64
9, 123648, Note_on_c, 3, 62, 0
9, 123648, Note_on_c, 3, 60, 0
9, 123648, Note_on_c, 3, 62, 65
9, 123648, Note_on_c, 3, 59, 62
9, 124032, Note_on_c, 3, 59, 0
9, 124032, Note_on_c, 3, 62, 0
9, 124032, Note_on_c, 3, 62, 66
9, 124032, Note_on_c, 3, 60, 62
9, 124416, Note_on_c, 3, 60, 0
9, 124416, Note_on_c, 3, 62, 0
9, 124416, Note_on_c, 3, 59, 65
9, 124416, Note_on_c, 3, 62, 68
9, 124800, Note_on_c, 3, 62, 0
9, 124800, Note_on_c, 3, 59, 0
9, 124800, Note_on_c, 3, 62, 68
9, 125184, Note_on_c, 3, 62, 0
9, 125184, Note_on_c, 3, 63, 59
9, 125184, Note_on_c, 3, 58, 60
9, 125568, Note_on_c, 3, 58, 0
9, 125568, Note_on_c, 3, 63, 0
9, 125568, Note_on_c, 3, 56, 56
9, 125568, Note_on_c, 3, 51, 59
9, 125952, Note_on_c, 3, 51, 0
9, 125952, Note_on_c, 3, 56, 0
9, 125952, Note_on_c, 3, 54, 59
9, 125952, Note_on_c, 3, 58, 55
9, 126336, Note_on_c, 3, 58, 0
9, 126336, Note_on_c, 3, 54, 0
9, 126336, Note_on_c, 3, 51, 56
9, 126336, Note_on_c, 3, 56, 55
9, 126720, Note_on_c, 3, 56, 0
9, 126720, Note_on_c, 3, 51, 0
9, 126720, Note_on_c, 3, 58, 59
9, 126720, Note_on_c, 3, 54, 55
9, 127104, Note_on_c, 3, 54, 0
9, 127104, Note_on_c, 3, 58, 0
9, 127104, Note_on_c, 3, 51, 59
9, 127104, Note_on_c, 3, 56, 55
9, 127488, Note_on_c, 3, 56, 0
9, 127488, Note_on_c, 3, 51, 0
9, 127488, Note_on_c, 3, 58, 57
9, 127488, Note_on_c, 3, 54, 59
9, 127872, Note_on_c, 3, 54, 0
9, 127872, Note_on_c, 3, 58, 0
9, 127872, Note_on_c, 3, 51, 60
9, 127872, Note_on_c, 3, 56, 69
9, 128064, Note_on_c, 3, 56, 0
9, 128064, Note_on_c, 3, 57, 71
9, 128256, Note_on_c, 3, 57, 0
9, 128256, Note_on_c, 3, 51, 0
9, 128256, Note_on_c, 3, 51, 60
9, 128256, Note_on_c, 3, 58, 59
9, 128640, Note_on_c, 3, 58, 0
9, 128640, Note_on_c, 3, 51, 0
9, 128640, Note_on_c, 3, 50, 59
9, 128640, Note_on_c, 3, 56, 55
9, 129024, Note_on_c, 3, 56, 0
9, 129024, Note_on_c, 3, 50, 0
9, 129024, Note_on_c, 3, 51, 61
9, 129024, Note_on_c, 3, 55, 61
9, 129408, Note_on_c, 3, 55, 0
9, 129408, Note_on_c, 3, 51, 0
9, 129408, Note_on_c, 3, 56, 57
9, 129408, Note_on_c, 3, 50, 55
9, 129792, Note_on_c, 3, 50, 0
9, 129792, Note_on_c, 3, 56, 0
9, 129792, Note_on_c, 3, 51, 59
9, 129792, Note_on_c, 3, 55, 62
9, 130176, Note_on_c, 3, 55, 0
9, 130176, Note_on_c, 3, 51, 0
9, 130176, Note_on_c, 3, 56, 58
9, 130560, Note_on_c, 3, 56, 0
9, 130560, Note_on_c, 3, 55, 62
9, 130560, Note_on_c, 3, 51, 58
9, 130944, Note_on_c, 3, 51, 0
9, 130944, Note_on_c, 3, 55, 0
9, 130944, Note_on_c, 3, 56, 57
9, 130944, Note_on_c, 3, 50, 56
9, 131328, Note_on_c, 3, 50, 0
9, 131328, Note_on_c, 3, 56, 0
9, 131328, Note_on_c, 3, 55, 61
9, 131328, Note_on_c, 3, 51, 58
9, 131712, Note_on_c, 3, 51, 0
9, 131712, Note_on_c, 3, 55, 0
9, 131712, Note_on_c, 3, 50, 61
9, 131712, Note_on_c, 3, 56, 58
9, 132096, Note_on_c, 3, 56, 0
9, 132096, Note_on_c, 3, 50, 0
9, 132096, Note_on_c, 3, 55, 62
9, 132480, Note_on_c, 3, 55, 0
9, 132480, Note_on_c, 3, 56, 58
9, 132480, Note_on_c, 3, 50, 59
9, 132864, Note_on_c, 3, 50, 0
9, 132864, Note_on_c, 3, 56, 0
9, 132864, Note_on_c, 3, 51, 59
9, 132864, Note_on_c, 3, 55, 61
9, 133248, Note_on_c, 3, 55, 0
9, 133248, Note_on_c, 3, 51, 0
9, 133248, Note_on_c, 3, 53, 59
9, 133248, Note_on_c, 3, 56, 61
9, 133632, Note_on_c, 3, 56, 0
9, 133632, Note_on_c, 3, 53, 0
9, 133632, Note_on_c, 3, 55, 65
9, 133632, Note_on_c, 3, 58, 57
9, 134016, Note_on_c, 3, 58, 0
9, 134016, Note_on_c, 3, 55, 0
9, 134016, Note_on_c, 3, 53, 59
9, 134400, Note_on_c, 3, 53, 0
9, 134400, Note_on_c, 3, 51, 59
9, 134400, Note_on_c, 3, 54, 63
9, 134784, Note_on_c, 3, 54, 0
9, 134784, Note_on_c, 3, 51, 0
9, 134784, Note_on_c, 3, 56, 52
9, 134784, Note_on_c, 3, 50, 12
9, 135168, Note_on_c, 3, 50, 0
9, 135168, Note_on_c, 3, 56, 0
9, 135168, Note_on_c, 3, 51, 63
9, 135168, Note_on_c, 3, 54, 55
9, 135552, Note_on_c, 3, 54, 0
9, 135552, Note_on_c, 3, 51, 0
9, 135552, Note_on_c, 3, 56, 52
9, 135552, Note_on_c, 3, 50, 59
9, 135936, Note_on_c, 3, 50, 0
9, 135936, Note_on_c, 3, 56, 0
9, 135936, Note_on_c, 3, 54, 59
9, 135936, Note_on_c, 3, 51, 56
9, 136320, Note_on_c, 3, 51, 0
9, 136320, Note_on_c, 3, 54, 0
9, 136320, Note_on_c, 3, 50, 62
9, 136320, Note_on_c, 3, 56, 54
9, 136704, Note_on_c, 3, 56, 0
9, 136704, Note_on_c, 3, 50, 0
9, 136704, Note_on_c, 3, 54, 56
9, 136704, Note_on_c, 3, 51, 59
9, 137088, Note_on_c, 3, 51, 0
9, 137088, Note_on_c, 3, 54, 0
9, 137088, Note_on_c, 3, 50, 62
9, 137088, Note_on_c, 3, 56, 56
9, 137472, Note_on_c, 3, 56, 0
9, 137472, Note_on_c, 3, 50, 0
9, 137472, Note_on_c, 3, 51, 63
9, 137472, Note_on_c, 3, 54, 60
9, 137856, Note_on_c, 3, 54, 0
9, 137856, Note_on_c, 3, 51, 0
9, 137856, Note_on_c, 3, 56, 56
9, 137856, Note_on_c, 3, 50, 59
9, 138240, Note_on_c, 3, 50, 0
9, 138240, Note_on_c, 3, 56, 0
9, 138240, Note_on_c, 3, 54, 59
9, 138240, Note_on_c, 3, 51, 60
9, 138624, Note_on_c, 3, 51, 0
9, 138624, Note_on_c, 3, 54, 0
9, 138624, Note_on_c, 3, 50, 59
9, 138624, Note_on_c, 3, 56, 55
9, 139008, Note_on_c, 3, 56, 0
9, 139008, Note_on_c, 3, 50, 0
9, 139008, Note_on_c, 3, 54, 59
9, 139008, Note_on_c, 3, 51, 62
9, 139392, Note_on_c, 3, 51, 0
9, 139392, Note_on_c, 3, 54, 0
9, 139392, Note_on_c, 3, 56, 59
9, 139392, Note_on_c, 3, 50, 16
9, 139776, Note_on_c, 3, 50, 0
9, 139776, Note_on_c, 3, 56, 0
9, 139776, Note_on_c, 3, 51, 67
9, 139776, Note_on_c, 3, 54, 60
9, 140640, Note_on_c, 3, 54, 0
9, 140640, Note_on_c, 3, 51, 0
9, 141312, Note_on_c, 3, 56, 59
9, 141312, Note_on_c, 3, 50, 59
9, 142176, Note_on_c, 3, 50, 0
9, 142176, Note_on_c, 3, 56, 0
9, 151296, Note_on_c, 3, 46, 85
9, 151320, Note_on_c, 3, 46, 0
9, 151392, Note_on_c, 3, 46, 85
9, 151440, Note_on_c, 3, 46, 0
9, 151440, Note_on_c, 3, 47, 85
9, 151488, Note_on_c, 3, 47, 0
9, 151488, Note_on_c, 3, 46, 85
9, 151536, Note_on_c, 3, 46, 0
9, 151584, Note_on_c, 3, 44, 85
9, 151632, Note_on_c, 3, 44, 0
9, 151680, Note_on_c, 3, 42, 85
9, 151728, Note_on_c, 3, 42, 0
9, 151776, Note_on_c, 3, 42, 85
9, 151824, Note_on_c, 3, 42, 0
9, 151872, Note_on_c, 3, 44, 85
9, 151968, Note_on_c, 3, 44, 0
9, 151968, Note_on_c, 3, 39, 85
9, 152064, Note_on_c, 3, 39, 0
9, 152064, Note_on_c, 3, 46, 85
9, 152088, Note_on_c, 3, 46, 0
9, 152160, Note_on_c, 3, 46, 85
9, 152208, Note_on_c, 3, 46, 0
9, 152208, Note_on_c, 3, 47, 85
9, 152256, Note_on_c, 3, 47, 0
9, 152256, Note_on_c, 3, 46, 85
9, 152304, Note_on_c, 3, 46, 0
9, 152352, Note_on_c, 3, 44, 85
9, 152400, Note_on_c, 3, 44, 0
9, 152448, Note_on_c, 3, 42, 85
9, 152496, Note_on_c, 3, 42, 0
9, 152544, Note_on_c, 3, 42, 85
9, 152592, Note_on_c, 3, 42, 0
9, 152640, Note_on_c, 3, 44, 85
9, 152736, Note_on_c, 3, 44, 0
9, 152736, Note_on_c, 3, 39, 85
9, 152832, Note_on_c, 3, 39, 0
9, 152832, Note_on_c, 3, 46, 85
9, 152856, Note_on_c, 3, 46, 0
9, 152928, Note_on_c, 3, 46, 85
9, 152952, Note_on_c, 3, 46, 0
9, 153024, Note_on_c, 3, 44, 85
9, 153120, Note_on_c, 3, 44, 0
9, 153120, Note_on_c, 3, 39, 85
9, 153216, Note_on_c, 3, 39, 0
9, 153216, Note_on_c, 3, 46, 85
9, 153240, Note_on_c, 3, 46, 0
9, 153312, Note_on_c, 3, 46, 85
9, 153336, Note_on_c, 3, 46, 0
9, 153408, Note_on_c, 3, 44, 85
9, 153504, Note_on_c, 3, 44, 0
9, 153504, Note_on_c, 3, 39, 85
9, 153600, Note_on_c, 3, 39, 0
9, 153600, Note_on_c, 3, 46, 85
9, 153984, Note_on_c, 3, 46, 0
9, 161472, Note_on_c, 3, 53, 59
9, 161568, Note_on_c, 3, 53, 0
9, 161568, Note_on_c, 3, 53, 59
9, 161616, Note_on_c, 3, 53, 0
9, 161616, Note_on_c, 3, 53, 59
9, 161664, Note_on_c, 3, 53, 0
9, 161664, Note_on_c, 3, 58, 59
9, 161856, Note_on_c, 3, 58, 0
9, 161856, Note_on_c, 3, 58, 59
9, 162048, Note_on_c, 3, 58, 0
9, 162048, Note_on_c, 3, 63, 59
9, 162336, Note_on_c, 3, 63, 0
9, 162336, Note_on_c, 3, 60, 59
9, 162432, Note_on_c, 3, 60, 0
9, 162432, Note_on_c, 3, 57, 59
9, 162528, Note_on_c, 3, 57, 0
9, 163872, Note_on_c, 3, 61, 77
9, 163872, Note_on_c, 3, 53, 77
9, 163920, Note_on_c, 3, 53, 0
9, 163920, Note_on_c, 3, 61, 0
9, 163920, Note_on_c, 3, 53, 77
9, 163920, Note_on_c, 3, 61, 77
9, 163968, Note_on_c, 3, 61, 0
9, 163968, Note_on_c, 3, 53, 0
9, 163968, Note_on_c, 3, 61, 77
9, 163968, Note_on_c, 3, 53, 77
9, 164160, Note_on_c, 3, 53, 0
9, 164160, Note_on_c, 3, 61, 0
9, 164160, Note_on_c, 3, 53, 77
9, 164160, Note_on_c, 3, 61, 77
9, 164352, Note_on_c, 3, 61, 0
9, 164352, Note_on_c, 3, 53, 0
9, 164352, Note_on_c, 3, 61, 77
9, 164352, Note_on_c, 3, 55, 77
9, 164448, Note_on_c, 3, 55, 0
9, 164448, Note_on_c, 3, 61, 0
9, 166848, Note_on_c, 3, 54, 59
9, 166944, Note_on_c, 3, 54, 0
9, 166944, Note_on_c, 3, 54, 59
9, 166992, Note_on_c, 3, 54, 0
9, 166992, Note_on_c, 3, 54, 59
9, 167040, Note_on_c, 3, 54, 0
9, 167040, Note_on_c, 3, 59, 59
9, 167232, Note_on_c, 3, 59, 0
9, 167232, Note_on_c, 3, 59, 59
9, 167424, Note_on_c, 3, 59, 0
9, 167424, Note_on_c, 3, 64, 59
9, 167712, Note_on_c, 3, 64, 0
9, 167712, Note_on_c, 3, 61, 59
9, 167808, Note_on_c, 3, 61, 0
9, 167808, Note_on_c, 3, 58, 59
9, 167904, Note_on_c, 3, 58, 0
9, 168480, Note_on_c, 3, 62, 77
9, 168480, Note_on_c, 3, 54, 77
9, 168528, Note_on_c, 3, 54, 0
9, 168528, Note_on_c, 3, 62, 0
9, 168528, Note_on_c, 3, 62, 77
9, 168528, Note_on_c, 3, 54, 77
9, 168576, Note_on_c, 3, 54, 0
9, 168576, Note_on_c, 3, 62, 0
9, 168576, Note_on_c, 3, 54, 77
9, 168576, Note_on_c, 3, 62, 77
9, 168768, Note_on_c, 3, 62, 0
9, 168768, Note_on_c, 3, 54, 0
9, 168768, Note_on_c, 3, 62, 77
9, 168768, Note_on_c, 3, 54, 77
9, 168960, Note_on_c, 3, 54, 0
9, 168960, Note_on_c, 3, 62, 0
9, 168960, Note_on_c, 3, 62, 77
9, 168960, Note_on_c, 3, 56, 77
9, 169056, Note_on_c, 3, 56, 0
9, 169056, Note_on_c, 3, 62, 0
9, 171936, Note_on_c, 3, 49, 88
9, 171936, Note_on_c, 3, 61, 88
9, 172032, Note_on_c, 3, 61, 0
9, 172032, Note_on_c, 3, 49, 0
9, 172032, Note_on_c, 3, 49, 66
9, 172320, Note_on_c, 3, 49, 0
9, 172320, Note_on_c, 3, 35, 56
9, 172320, Note_on_c, 3, 47, 62
9, 172416, Note_on_c, 3, 47, 0
9, 172416, Note_on_c, 3, 35, 0
9, 172416, Note_on_c, 3, 34, 56
9, 172416, Note_on_c, 3, 46, 62
9, 172512, Note_on_c, 3, 46, 0
9, 172512, Note_on_c, 3, 34, 0
9, 172512, Note_on_c, 3, 46, 53
9, 172512, Note_on_c, 3, 58, 59
9, 172608, Note_on_c, 3, 58, 0
9, 172608, Note_on_c, 3, 46, 0
9, 172704, Note_on_c, 3, 58, 59
9, 172800, Note_on_c, 3, 58, 0
9, 172896, Note_on_c, 3, 61, 61
9, 172896, Note_on_c, 3, 52, 55
9, 172992, Note_on_c, 3, 52, 0
9, 172992, Note_on_c, 3, 61, 0
9, 173088, Note_on_c, 3, 55, 59
9, 173088, Note_on_c, 3, 64, 62
9, 173184, Note_on_c, 3, 64, 0
9, 173184, Note_on_c, 3, 55, 0
9, 173280, Note_on_c, 3, 58, 58
9, 173280, Note_on_c, 3, 67, 63
9, 173376, Note_on_c, 3, 67, 0
9, 173376, Note_on_c, 3, 58, 0
9, 173472, Note_on_c, 3, 58, 62
9, 173472, Note_on_c, 3, 46, 56
9, 173568, Note_on_c, 3, 46, 0
9, 173568, Note_on_c, 3, 58, 0
9, 173568, Note_on_c, 3, 46, 60
9, 173856, Note_on_c, 3, 46, 0
9, 173856, Note_on_c, 3, 46, 58
9, 173952, Note_on_c, 3, 46, 0
9, 173952, Note_on_c, 3, 43, 57
9, 174048, Note_on_c, 3, 43, 0
9, 174048, Note_on_c, 3, 43, 47
9, 174048, Note_on_c, 3, 52, 62
9, 174144, Note_on_c, 3, 52, 0
9, 174144, Note_on_c, 3, 43, 0
9, 174240, Note_on_c, 3, 46, 57
9, 174240, Note_on_c, 3, 55, 63
9, 174336, Note_on_c, 3, 55, 0
9, 174336, Note_on_c, 3, 46, 0
9, 174432, Note_on_c, 3, 58, 59
9, 174432, Note_on_c, 3, 49, 58
9, 174528, Note_on_c, 3, 49, 0
9, 174528, Note_on_c, 3, 58, 0
9, 174624, Note_on_c, 3, 61, 59
9, 174624, Note_on_c, 3, 52, 55
9, 174720, Note_on_c, 3, 52, 0
9, 174720, Note_on_c, 3, 61, 0
9, 174816, Note_on_c, 3, 64, 60
9, 174816, Note_on_c, 3, 55, 54
9, 174912, Note_on_c, 3, 55, 0
9, 174912, Note_on_c, 3, 64, 0
9, 175008, Note_on_c, 3, 52, 59
9, 175008, Note_on_c, 3, 64, 62
9, 175104, Note_on_c, 3, 64, 0
9, 175104, Note_on_c, 3, 52, 0
9, 175104, Note_on_c, 3, 40, 59
9, 175104, Note_on_c, 3, 52, 63
9, 175392, Note_on_c, 3, 52, 0
9, 175392, Note_on_c, 3, 40, 0
9, 175392, Note_on_c, 3, 39, 57
9, 175392, Note_on_c, 3, 51, 60
9, 175488, Note_on_c, 3, 51, 0
9, 175488, Note_on_c, 3, 39, 0
9, 175488, Note_on_c, 3, 37, 56
9, 175488, Note_on_c, 3, 49, 59
9, 175584, Note_on_c, 3, 49, 0
9, 175584, Note_on_c, 3, 37, 0
9, 175584, Note_on_c, 3, 49, 59
9, 175584, Note_on_c, 3, 55, 62
9, 175680, Note_on_c, 3, 55, 0
9, 175680, Note_on_c, 3, 49, 0
9, 175776, Note_on_c, 3, 52, 53
9, 175776, Note_on_c, 3, 58, 59
9, 175872, Note_on_c, 3, 58, 0
9, 175872, Note_on_c, 3, 52, 0
9, 175968, Note_on_c, 3, 61, 60
9, 176064, Note_on_c, 3, 61, 0
9, 176064, Note_on_c, 3, 64, 62
9, 176064, Note_on_c, 3, 58, 55
9, 176160, Note_on_c, 3, 58, 0
9, 176160, Note_on_c, 3, 64, 0
9, 176256, Note_on_c, 3, 67, 65
9, 176256, Note_on_c, 3, 61, 55
9, 176352, Note_on_c, 3, 61, 0
9, 176352, Note_on_c, 3, 67, 0
9, 176448, Note_on_c, 3, 61, 65
9, 176544, Note_on_c, 3, 61, 0
9, 176640, Note_on_c, 3, 49, 69
9, 176640, Note_on_c, 3, 37, 61
9, 176928, Note_on_c, 3, 37, 0
9, 176928, Note_on_c, 3, 49, 0
9, 176928, Note_on_c, 3, 47, 62
9, 176928, Note_on_c, 3, 35, 58
9, 177024, Note_on_c, 3, 35, 0
9, 177024, Note_on_c, 3, 47, 0
9, 177024, Note_on_c, 3, 34, 58
9, 177024, Note_on_c, 3, 46, 66
9, 177120, Note_on_c, 3, 46, 0
9, 177120, Note_on_c, 3, 34, 0
9, 177120, Note_on_c, 3, 46, 95
9, 177120, Note_on_c, 3, 58, 62
9, 177216, Note_on_c, 3, 58, 0
9, 177216, Note_on_c, 3, 46, 0
9, 177312, Note_on_c, 3, 61, 62
9, 177312, Note_on_c, 3, 49, 57
9, 177408, Note_on_c, 3, 49, 0
9, 177408, Note_on_c, 3, 61, 0
9, 177408, Note_on_c, 3, 37, 61
9, 177408, Note_on_c, 3, 49, 69
9, 177696, Note_on_c, 3, 49, 0
9, 177696, Note_on_c, 3, 37, 0
9, 177696, Note_on_c, 3, 47, 62
9, 177696, Note_on_c, 3, 35, 58
9, 177792, Note_on_c, 3, 35, 0
9, 177792, Note_on_c, 3, 47, 0
9, 177792, Note_on_c, 3, 46, 66
9, 177792, Note_on_c, 3, 34, 58
9, 177888, Note_on_c, 3, 34, 0
9, 177888, Note_on_c, 3, 46, 0
9, 177888, Note_on_c, 3, 58, 62
9, 177888, Note_on_c, 3, 46, 95
9, 177984, Note_on_c, 3, 46, 0
9, 177984, Note_on_c, 3, 58, 0
9, 178080, Note_on_c, 3, 50, 57
9, 178080, Note_on_c, 3, 62, 62
9, 178176, Note_on_c, 3, 62, 0
9, 178176, Note_on_c, 3, 50, 0
9, 178176, Note_on_c, 3, 38, 61
9, 178176, Note_on_c, 3, 50, 69
9, 178464, Note_on_c, 3, 50, 0
9, 178464, Note_on_c, 3, 38, 0
9, 178464, Note_on_c, 3, 37, 95
9, 178464, Note_on_c, 3, 49, 62
9, 178560, Note_on_c, 3, 49, 0
9, 178560, Note_on_c, 3, 37, 0
9, 178560, Note_on_c, 3, 35, 95
9, 178560, Note_on_c, 3, 47, 66
9, 178656, Note_on_c, 3, 47, 0
9, 178656, Note_on_c, 3, 35, 0
9, 178656, Note_on_c, 3, 47, 95
9, 178656, Note_on_c, 3, 58, 62
9, 178752, Note_on_c, 3, 58, 0
9, 178752, Note_on_c, 3, 47, 0
9, 178848, Note_on_c, 3, 51, 57
9, 178848, Note_on_c, 3, 63, 62
9, 178944, Note_on_c, 3, 63, 0
9, 178944, Note_on_c, 3, 51, 0
9, 178944, Note_on_c, 3, 39, 56
9, 178944, Note_on_c, 3, 51, 62
9, 179232, Note_on_c, 3, 51, 0
9, 179232, Note_on_c, 3, 39, 0
9, 179232, Note_on_c, 3, 38, 56
9, 179232, Note_on_c, 3, 50, 64
9, 179328, Note_on_c, 3, 50, 0
9, 179328, Note_on_c, 3, 38, 0
9, 179328, Note_on_c, 3, 36, 56
9, 179328, Note_on_c, 3, 48, 64
9, 179424, Note_on_c, 3, 48, 0
9, 179424, Note_on_c, 3, 36, 0
9, 179424, Note_on_c, 3, 48, 56
9, 179424, Note_on_c, 3, 57, 61
9, 179520, Note_on_c, 3, 57, 0
9, 179520, Note_on_c, 3, 48, 0
9, 179616, Note_on_c, 3, 60, 62
9, 179616, Note_on_c, 3, 51, 61
9, 179712, Note_on_c, 3, 51, 0
9, 179712, Note_on_c, 3, 60, 0
9, 180384, Note_on_c, 3, 60, 60
9, 180384, Note_on_c, 3, 48, 55
9, 180480, Note_on_c, 3, 48, 0
9, 180480, Note_on_c, 3, 60, 0
9, 180480, Note_on_c, 3, 36, 54
9, 180480, Note_on_c, 3, 48, 65
9, 180768, Note_on_c, 3, 48, 0
9, 180768, Note_on_c, 3, 36, 0
9, 180768, Note_on_c, 3, 60, 62
9, 180768, Note_on_c, 3, 48, 53
9, 180864, Note_on_c, 3, 48, 0
9, 180864, Note_on_c, 3, 60, 0
9, 180864, Note_on_c, 3, 35, 51
9, 180864, Note_on_c, 3, 47, 62
9, 181152, Note_on_c, 3, 47, 0
9, 181152, Note_on_c, 3, 35, 0
9, 181152, Note_on_c, 3, 59, 65
9, 181152, Note_on_c, 3, 47, 58
9, 181248, Note_on_c, 3, 47, 0
9, 181248, Note_on_c, 3, 59, 0
9, 181248, Note_on_c, 3, 46, 59
9, 181248, Note_on_c, 3, 34, 46
9, 181344, Note_on_c, 3, 34, 0
9, 181344, Note_on_c, 3, 46, 0
9, 181344, Note_on_c, 3, 46, 63
9, 181344, Note_on_c, 3, 34, 56
9, 181440, Note_on_c, 3, 34, 0
9, 181440, Note_on_c, 3, 46, 0
9, 181536, Note_on_c, 3, 46, 62
9, 181536, Note_on_c, 3, 34, 51
9, 181632, Note_on_c, 3, 34, 0
9, 181632, Note_on_c, 3, 46, 0
9, 181728, Note_on_c, 3, 46, 62
9, 181728, Note_on_c, 3, 34, 56
9, 181824, Note_on_c, 3, 34, 0
9, 181824, Note_on_c, 3, 46, 0
9, 181920, Note_on_c, 3, 46, 61
9, 181920, Note_on_c, 3, 34, 53
9, 182016, Note_on_c, 3, 34, 0
9, 182016, Note_on_c, 3, 46, 0
9, 182112, Note_on_c, 3, 45, 59
9, 182208, Note_on_c, 3, 45, 0
9, 182208, Note_on_c, 3, 62, 62
9, 182256, Note_on_c, 3, 62, 0
9, 182256, Note_on_c, 3, 63, 66
9, 182304, Note_on_c, 3, 63, 0
9, 182304, Note_on_c, 3, 58, 62
9, 182352, Note_on_c, 3, 58, 0
9, 182352, Note_on_c, 3, 59, 65
9, 182400, Note_on_c, 3, 59, 0
9, 182400, Note_on_c, 3, 54, 62
9, 182448, Note_on_c, 3, 54, 0
9, 182448, Note_on_c, 3, 56, 59
9, 182496, Note_on_c, 3, 56, 0
9, 182496, Note_on_c, 3, 50, 64
9, 182544, Note_on_c, 3, 50, 0
9, 182544, Note_on_c, 3, 51, 60
9, 182592, Note_on_c, 3, 51, 0
9, 182592, Note_on_c, 3, 46, 59
9, 182640, Note_on_c, 3, 46, 0
9, 182640, Note_on_c, 3, 47, 61
9, 182688, Note_on_c, 3, 47, 0
9, 182688, Note_on_c, 3, 46, 59
9, 182688, Note_on_c, 3, 42, 59
9, 182736, Note_on_c, 3, 42, 0
9, 182736, Note_on_c, 3, 46, 0
9, 182736, Note_on_c, 3, 47, 58
9, 182736, Note_on_c, 3, 44, 59
9, 182784, Note_on_c, 3, 44, 0
9, 182784, Note_on_c, 3, 47, 0
9, 182880, Note_on_c, 3, 44, 59
9, 182976, Note_on_c, 3, 44, 0
9, 182976, Note_on_c, 3, 44, 57
9, 182976, Note_on_c, 3, 56, 62
9, 183072, Note_on_c, 3, 56, 0
9, 183072, Note_on_c, 3, 44, 0
9, 183456, Note_on_c, 3, 51, 58
9, 183456, Note_on_c, 3, 68, 66
9, 183552, Note_on_c, 3, 68, 0
9, 183552, Note_on_c, 3, 51, 0
9, 183648, Note_on_c, 3, 65, 66
9, 183648, Note_on_c, 3, 47, 65
9, 183744, Note_on_c, 3, 47, 0
9, 183744, Note_on_c, 3, 65, 0
9, 183840, Note_on_c, 3, 59, 62
9, 183840, Note_on_c, 3, 44, 56
9, 183936, Note_on_c, 3, 44, 0
9, 183936, Note_on_c, 3, 59, 0
9, 184032, Note_on_c, 3, 39, 58
9, 184032, Note_on_c, 3, 51, 59
9, 184128, Note_on_c, 3, 51, 0
9, 184128, Note_on_c, 3, 39, 0
9, 184128, Note_on_c, 3, 50, 66
9, 184128, Note_on_c, 3, 38, 55
9, 184224, Note_on_c, 3, 38, 0
9, 184224, Note_on_c, 3, 50, 0
9, 184416, Note_on_c, 3, 54, 59
9, 184416, Note_on_c, 3, 42, 54
9, 184512, Note_on_c, 3, 42, 0
9, 184512, Note_on_c, 3, 54, 0
9, 184512, Note_on_c, 3, 41, 4
9, 184512, Note_on_c, 3, 53, 62
9, 184608, Note_on_c, 3, 53, 0
9, 184608, Note_on_c, 3, 41, 0
9, 184800, Note_on_c, 3, 39, 56
9, 184800, Note_on_c, 3, 51, 60
9, 184896, Note_on_c, 3, 51, 0
9, 184896, Note_on_c, 3, 39, 0
9, 184896, Note_on_c, 3, 37, 58
9, 184896, Note_on_c, 3, 49, 62
9, 184992, Note_on_c, 3, 49, 0
9, 184992, Note_on_c, 3, 37, 0
9, 185184, Note_on_c, 3, 35, 57
9, 185184, Note_on_c, 3, 47, 62
9, 185280, Note_on_c, 3, 47, 0
9, 185280, Note_on_c, 3, 35, 0
9, 185280, Note_on_c, 3, 34, 57
9, 185280, Note_on_c, 3, 46, 65
9, 185376, Note_on_c, 3, 46, 0
9, 185376, Note_on_c, 3, 34, 0
9, 185568, Note_on_c, 3, 44, 59
9, 185664, Note_on_c, 3, 44, 0
9, 185664, Note_on_c, 3, 45, 64
9, 185760, Note_on_c, 3, 45, 0
9, 185952, Note_on_c, 3, 45, 62
9, 186048, Note_on_c, 3, 45, 0
9, 186048, Note_on_c, 3, 46, 66
9, 186048, Note_on_c, 3, 34, 59
9, 186144, Note_on_c, 3, 34, 0
9, 186144, Note_on_c, 3, 46, 0
9, 186336, Note_on_c, 3, 47, 67
9, 186336, Note_on_c, 3, 35, 55
9, 186528, Note_on_c, 3, 35, 0
9, 186528, Note_on_c, 3, 47, 0
9, 186528, Note_on_c, 3, 36, 52
9, 186528, Note_on_c, 3, 48, 59
9, 186720, Note_on_c, 3, 48, 0
9, 186720, Note_on_c, 3, 36, 0
9, 186720, Note_on_c, 3, 49, 58
9, 186720, Note_on_c, 3, 37, 56
9, 186912, Note_on_c, 3, 37, 0
9, 186912, Note_on_c, 3, 49, 0
9, 186912, Note_on_c, 3, 39, 55
9, 186912, Note_on_c, 3, 51, 61
9, 187008, Note_on_c, 3, 51, 0
9, 187008, Note_on_c, 3, 39, 0
9, 187008, Note_on_c, 3, 52, 64
9, 187008, Note_on_c, 3, 40, 56
9, 187104, Note_on_c, 3, 40, 0
9, 187104, Note_on_c, 3, 52, 0
9, 187104, Note_on_c, 3, 42, 59
9, 187152, Note_on_c, 3, 42, 0
9, 187152, Note_on_c, 3, 42, 62
9, 187200, Note_on_c, 3, 42, 0
9, 187200, Note_on_c, 3, 42, 60
9, 187296, Note_on_c, 3, 42, 0
9, 187296, Note_on_c, 3, 42, 61
9, 187392, Note_on_c, 3, 42, 0
9, 187392, Note_on_c, 3, 59, 62
9, 187392, Note_on_c, 3, 51, 58
9, 187584, Note_on_c, 3, 51, 0
9, 187584, Note_on_c, 3, 59, 0
9, 187584, Note_on_c, 3, 51, 55
9, 187584, Note_on_c, 3, 59, 49
9, 187776, Note_on_c, 3, 59, 0
9, 187776, Note_on_c, 3, 51, 0
9, 187776, Note_on_c, 3, 61, 59
9, 187776, Note_on_c, 3, 54, 53
9, 187968, Note_on_c, 3, 54, 0
9, 187968, Note_on_c, 3, 61, 0
9, 187968, Note_on_c, 3, 54, 59
9, 187968, Note_on_c, 3, 61, 60
9, 188160, Note_on_c, 3, 61, 0
9, 188160, Note_on_c, 3, 54, 0
9, 188160, Note_on_c, 3, 63, 59
9, 188160, Note_on_c, 3, 66, 59
9, 188448, Note_on_c, 3, 66, 0
9, 188448, Note_on_c, 3, 63, 0
9, 188448, Note_on_c, 3, 63, 53
9, 188448, Note_on_c, 3, 59, 58
9, 188544, Note_on_c, 3, 59, 0
9, 188544, Note_on_c, 3, 63, 0
9, 188544, Note_on_c, 3, 59, 56
9, 188544, Note_on_c, 3, 51, 56
9, 188640, Note_on_c, 3, 51, 0
9, 188640, Note_on_c, 3, 59, 0
9, 188640, Note_on_c, 3, 54, 95
9, 188688, Note_on_c, 3, 54, 0
9, 188688, Note_on_c, 3, 54, 95
9, 188736, Note_on_c, 3, 54, 0
9, 188736, Note_on_c, 3, 54, 95
9, 188832, Note_on_c, 3, 54, 0
9, 188832, Note_on_c, 3, 54, 95
9, 188928, Note_on_c, 3, 54, 0
9, 188928, Note_on_c, 3, 51, 58
9, 189120, Note_on_c, 3, 51, 0
9, 189120, Note_on_c, 3, 51, 55
9, 189312, Note_on_c, 3, 51, 0
9, 189312, Note_on_c, 3, 54, 53
9, 189504, Note_on_c, 3, 54, 0
9, 189504, Note_on_c, 3, 54, 59
9, 189696, Note_on_c, 3, 54, 0
9, 189696, Note_on_c, 3, 63, 59
9, 189984, Note_on_c, 3, 63, 0
9, 189984, Note_on_c, 3, 59, 58
9, 190080, Note_on_c, 3, 59, 0
9, 190080, Note_on_c, 3, 51, 56
9, 190176, Note_on_c, 3, 51, 0
9, 190176, Note_on_c, 3, 42, 95
9, 190224, Note_on_c, 3, 42, 0
9, 190224, Note_on_c, 3, 42, 95
9, 190272, Note_on_c, 3, 42, 0
9, 190272, Note_on_c, 3, 42, 95
9, 190368, Note_on_c, 3, 42, 0
9, 190368, Note_on_c, 3, 42, 95
9, 190464, Note_on_c, 3, 42, 0
9, 190464, Note_on_c, 3, 39, 61
9, 190464, Note_on_c, 3, 47, 62
9, 190656, Note_on_c, 3, 47, 0
9, 190656, Note_on_c, 3, 39, 0
9, 190656, Note_on_c, 3, 39, 61
9, 190656, Note_on_c, 3, 47, 64
9, 190848, Note_on_c, 3, 47, 0
9, 190848, Note_on_c, 3, 39, 0
9, 190848, Note_on_c, 3, 42, 58
9, 190848, Note_on_c, 3, 49, 62
9, 191040, Note_on_c, 3, 49, 0
9, 191040, Note_on_c, 3, 42, 0
9, 191040, Note_on_c, 3, 42, 95
9, 191040, Note_on_c, 3, 49, 65
9, 191232, Note_on_c, 3, 49, 0
9, 191232, Note_on_c, 3, 42, 0
9, 191232, Note_on_c, 3, 51, 61
9, 191232, Note_on_c, 3, 54, 59
9, 191520, Note_on_c, 3, 54, 0
9, 191520, Note_on_c, 3, 51, 0
9, 191520, Note_on_c, 3, 47, 58
9, 191520, Note_on_c, 3, 51, 53
9, 191616, Note_on_c, 3, 51, 0
9, 191616, Note_on_c, 3, 47, 0
9, 191616, Note_on_c, 3, 47, 95
9, 191616, Note_on_c, 3, 39, 59
9, 191808, Note_on_c, 3, 39, 0
9, 191808, Note_on_c, 3, 47, 0
9, 195072, Note_on_c, 3, 46, 68
9, 195072, Note_on_c, 3, 39, 46
9, 195456, Note_on_c, 3, 39, 0
9, 195456, Note_on_c, 3, 46, 0
9, 197568, Note_on_c, 3, 49, 50
9, 197760, Note_on_c, 3, 59, 50
9, 198912, Note_on_c, 3, 59, 0
9, 198912, Note_on_c, 3, 49, 0
9, 198912, Note_on_c, 3, 51, 24
9, 198912, Note_on_c, 3, 58, 25
9, 199296, Note_on_c, 3, 58, 0
9, 199296, Note_on_c, 3, 51, 0
9, 199296, Note_on_c, 3, 50, 26
9, 199296, Note_on_c, 3, 58, 24
9, 199680, Note_on_c, 3, 58, 0
9, 199680, Note_on_c, 3, 50, 0
9, 199680, Note_on_c, 3, 51, 11
9, 199680, Note_on_c, 3, 58, 27
9, 200064, Note_on_c, 3, 58, 0
9, 200064, Note_on_c, 3, 51, 0
9, 200064, Note_on_c, 3, 50, 27
9, 200064, Note_on_c, 3, 58, 22
9, 200448, Note_on_c, 3, 58, 0
9, 200448, Note_on_c, 3, 50, 0
9, 200448, Note_on_c, 3, 58, 28
9, 200448, Note_on_c, 3, 51, 28
9, 200832, Note_on_c, 3, 51, 0
9, 200832, Note_on_c, 3, 58, 0
9, 200832, Note_on_c, 3, 50, 26
9, 200832, Note_on_c, 3, 58, 27
9, 201216, Note_on_c, 3, 58, 0
9, 201216, Note_on_c, 3, 50, 0
9, 201216, Note_on_c, 3, 51, 27
9, 201216, Note_on_c, 3, 58, 28
9, 201600, Note_on_c, 3, 58, 0
9, 201600, Note_on_c, 3, 51, 0
9, 201600, Note_on_c, 3, 58, 25
9, 201600, Note_on_c, 3, 50, 27
9, 201984, Note_on_c, 3, 50, 0
9, 201984, Note_on_c, 3, 58, 0
9, 201984, Note_on_c, 3, 51, 28
9, 201984, Note_on_c, 3, 58, 21
9, 202368, Note_on_c, 3, 58, 0
9, 202368, Note_on_c, 3, 51, 0
9, 202368, Note_on_c, 3, 58, 25
9, 202368, Note_on_c, 3, 50, 28
9, 202752, Note_on_c, 3, 50, 0
9, 202752, Note_on_c, 3, 58, 0
9, 202752, Note_on_c, 3, 51, 30
9, 202752, Note_on_c, 3, 58, 26
9, 203136, Note_on_c, 3, 58, 0
9, 203136, Note_on_c, 3, 51, 0
9, 203136, Note_on_c, 3, 58, 25
9, 203136, Note_on_c, 3, 50, 30
9, 203520, Note_on_c, 3, 50, 0
9, 203520, Note_on_c, 3, 58, 0
9, 203520, Note_on_c, 3, 58, 30
9, 203520, Note_on_c, 3, 51, 30
9, 203904, Note_on_c, 3, 51, 0
9, 203904, Note_on_c, 3, 58, 0
9, 203904, Note_on_c, 3, 58, 29
9, 203904, Note_on_c, 3, 53, 30
9, 204288, Note_on_c, 3, 53, 0
9, 204288, Note_on_c, 3, 58, 0
9, 204288, Note_on_c, 3, 51, 28
9, 204288, Note_on_c, 3, 58, 24
9, 204672, Note_on_c, 3, 58, 0
9, 204672, Note_on_c, 3, 51, 0
9, 204672, Note_on_c, 3, 50, 24
9, 204672, Note_on_c, 3, 58, 26
9, 205056, Note_on_c, 3, 58, 0
9, 205056, Note_on_c, 3, 50, 0
9, 205056, Note_on_c, 3, 58, 27
9, 205056, Note_on_c, 3, 51, 30
9, 205440, Note_on_c, 3, 51, 0
9, 205440, Note_on_c, 3, 58, 0
9, 205440, Note_on_c, 3, 50, 27
9, 205440, Note_on_c, 3, 58, 27
9, 205824, Note_on_c, 3, 58, 0
9, 205824, Note_on_c, 3, 50, 0
9, 205824, Note_on_c, 3, 51, 30
9, 205824, Note_on_c, 3, 58, 28
9, 206208, Note_on_c, 3, 58, 0
9, 206208, Note_on_c, 3, 51, 0
9, 206208, Note_on_c, 3, 58, 27
9, 206208, Note_on_c, 3, 53, 28
9, 206592, Note_on_c, 3, 53, 0
9, 206592, Note_on_c, 3, 58, 0
9, 206592, Note_on_c, 3, 58, 27
9, 206592, Note_on_c, 3, 55, 30
9, 206976, Note_on_c, 3, 55, 0
9, 206976, Note_on_c, 3, 58, 0
9, 206976, Note_on_c, 3, 53, 30
9, 206976, Note_on_c, 3, 58, 28
9, 207360, Note_on_c, 3, 58, 0
9, 207360, Note_on_c, 3, 53, 0
9, 207360, Note_on_c, 3, 51, 27
9, 207360, Note_on_c, 3, 58, 28
9, 207744, Note_on_c, 3, 58, 0
9, 207744, Note_on_c, 3, 51, 0
9, 207744, Note_on_c, 3, 58, 30
9, 207744, Note_on_c, 3, 50, 30
9, 208128, Note_on_c, 3, 50, 0
9, 208128, Note_on_c, 3, 58, 0
9, 208128, Note_on_c, 3, 58, 27
9, 208128, Note_on_c, 3, 51, 27
9, 208512, Note_on_c, 3, 51, 0
9, 208512, Note_on_c, 3, 58, 0
9, 208512, Note_on_c, 3, 58, 30
9, 208512, Note_on_c, 3, 50, 3
9, 208896, Note_on_c, 3, 50, 0
9, 208896, Note_on_c, 3, 58, 0
9, 208896, Note_on_c, 3, 58, 30
9, 208896, Note_on_c, 3, 51, 28
9, 209280, Note_on_c, 3, 51, 0
9, 209280, Note_on_c, 3, 58, 0
9, 209280, Note_on_c, 3, 58, 27
9, 209280, Note_on_c, 3, 50, 30
9, 209664, Note_on_c, 3, 50, 0
9, 209664, Note_on_c, 3, 58, 0
9, 209664, Note_on_c, 3, 58, 30
9, 209664, Note_on_c, 3, 51, 27
9, 210048, Note_on_c, 3, 51, 0
9, 210048, Note_on_c, 3, 58, 0
9, 210048, Note_on_c, 3, 50, 32
9, 210048, Note_on_c, 3, 58, 30
9, 210432, Note_on_c, 3, 58, 0
9, 210432, Note_on_c, 3, 50, 0
9, 210432, Note_on_c, 3, 58, 30
9, 210432, Note_on_c, 3, 51, 30
9, 210816, Note_on_c, 3, 51, 0
9, 210816, Note_on_c, 3, 58, 0
9, 210816, Note_on_c, 3, 50, 33
9, 210816, Note_on_c, 3, 58, 27
9, 211200, Note_on_c, 3, 58, 0
9, 211200, Note_on_c, 3, 50, 0
9, 211200, Note_on_c, 3, 51, 28
9, 211200, Note_on_c, 3, 58, 30
9, 211584, Note_on_c, 3, 58, 0
9, 211584, Note_on_c, 3, 51, 0
9, 211584, Note_on_c, 3, 58, 27
9, 211584, Note_on_c, 3, 50, 31
9, 211968, Note_on_c, 3, 50, 0
9, 211968, Note_on_c, 3, 58, 0
9, 211968, Note_on_c, 3, 58, 29
9, 211968, Note_on_c, 3, 51, 30
9, 212352, Note_on_c, 3, 51, 0
9, 212352, Note_on_c, 3, 58, 0
9, 212352, Note_on_c, 3, 58, 30
9, 212352, Note_on_c, 3, 53, 27
9, 212736, Note_on_c, 3, 53, 0
9, 212736, Note_on_c, 3, 58, 0
9, 212736, Note_on_c, 3, 58, 30
9, 212736, Note_on_c, 3, 51, 30
9, 213120, Note_on_c, 3, 51, 0
9, 213120, Note_on_c, 3, 58, 0
9, 213120, Note_on_c, 3, 58, 32
9, 213120, Note_on_c, 3, 53, 29
9, 213504, Note_on_c, 3, 53, 0
9, 213504, Note_on_c, 3, 58, 0
9, 213504, Note_on_c, 3, 51, 28
9, 213504, Note_on_c, 3, 58, 28
9, 213888, Note_on_c, 3, 58, 0
9, 213888, Note_on_c, 3, 51, 0
9, 213888, Note_on_c, 3, 58, 30
9, 213888, Note_on_c, 3, 53, 40
9, 214272, Note_on_c, 3, 53, 0
9, 214272, Note_on_c, 3, 58, 0
9, 214272, Note_on_c, 3, 46, 30
9, 214272, Note_on_c, 3, 58, 30
9, 214368, Note_on_c, 3, 58, 0
9, 215808, Note_on_c, 3, 46, 0
9, 215808, Note_on_c, 3, 46, 59
9, 217344, Note_on_c, 3, 46, 0
9, 217344, Note_on_c, 3, 34, 22
9, 218976, Note_on_c, 3, 34, 0
9, 228096, Note_on_c, 3, 46, 61
9, 228096, Note_on_c, 3, 50, 14
9, 228192, Note_on_c, 3, 50, 0
9, 228192, Note_on_c, 3, 46, 0
9, 228288, Note_on_c, 3, 54, 22
9, 228288, Note_on_c, 3, 50, 22
9, 228384, Note_on_c, 3, 50, 0
9, 228384, Note_on_c, 3, 54, 0
9, 228480, Note_on_c, 3, 55, 22
9, 228480, Note_on_c, 3, 58, 22
9, 228576, Note_on_c, 3, 58, 0
9, 228576, Note_on_c, 3, 55, 0
9, 228672, Note_on_c, 3, 59, 22
9, 228672, Note_on_c, 3, 53, 22
9, 228768, Note_on_c, 3, 53, 0
9, 228768, Note_on_c, 3, 59, 0
9, 228864, Note_on_c, 3, 51, 22
9, 228864, Note_on_c, 3, 60, 22
9, 228960, Note_on_c, 3, 60, 0
9, 228960, Note_on_c, 3, 51, 0
9, 229632, Note_on_c, 3, 51, 53
9, 229632, Note_on_c, 3, 55, 57
9, 229728, Note_on_c, 3, 55, 0
9, 229728, Note_on_c, 3, 51, 0
9, 229824, Note_on_c, 3, 59, 59
9, 229824, Note_on_c, 3, 55, 58
9, 229920, Note_on_c, 3, 55, 0
9, 229920, Note_on_c, 3, 59, 0
9, 230016, Note_on_c, 3, 63, 53
9, 230016, Note_on_c, 3, 60, 58
9, 230112, Note_on_c, 3, 60, 0
9, 230112, Note_on_c, 3, 63, 0
9, 230208, Note_on_c, 3, 64, 59
9, 230208, Note_on_c, 3, 58, 59
9, 230304, Note_on_c, 3, 58, 0
9, 230304, Note_on_c, 3, 64, 0
9, 230400, Note_on_c, 3, 65, 64
9, 230400, Note_on_c, 3, 56, 59
9, 230496, Note_on_c, 3, 56, 0
9, 230496, Note_on_c, 3, 65, 0
9, 231168, Note_on_c, 3, 53, 63
9, 231168, Note_on_c, 3, 44, 55
9, 231264, Note_on_c, 3, 44, 0
9, 231264, Note_on_c, 3, 53, 0
9, 231360, Note_on_c, 3, 55, 58
9, 231360, Note_on_c, 3, 48, 56
9, 231456, Note_on_c, 3, 48, 0
9, 231456, Note_on_c, 3, 55, 0
9, 231552, Note_on_c, 3, 53, 55
9, 231552, Note_on_c, 3, 56, 52
9, 231648, Note_on_c, 3, 56, 0
9, 231648, Note_on_c, 3, 53, 0
9, 231744, Note_on_c, 3, 53, 58
9, 231744, Note_on_c, 3, 49, 58
9, 231840, Note_on_c, 3, 49, 0
9, 231840, Note_on_c, 3, 53, 0
9, 231936, Note_on_c, 3, 49, 59
9, 231936, Note_on_c, 3, 54, 52
9, 232032, Note_on_c, 3, 54, 0
9, 232032, Note_on_c, 3, 49, 0
9, 232704, Note_on_c, 3, 54, 55
9, 232704, Note_on_c, 3, 46, 57
9, 232800, Note_on_c, 3, 46, 0
9, 232800, Note_on_c, 3, 54, 0
9, 232896, Note_on_c, 3, 49, 59
9, 232896, Note_on_c, 3, 56, 53
9, 232992, Note_on_c, 3, 56, 0
9, 232992, Note_on_c, 3, 49, 0
9, 233088, Note_on_c, 3, 58, 47
9, 233088, Note_on_c, 3, 55, 59
9, 233184, Note_on_c, 3, 55, 0
9, 233184, Note_on_c, 3, 58, 0
9, 233280, Note_on_c, 3, 55, 62
9, 233376, Note_on_c, 3, 55, 0
9, 233472, Note_on_c, 3, 56, 60
9, 233472, Note_on_c, 3, 51, 63
9, 233568, Note_on_c, 3, 51, 0
9, 233568, Note_on_c, 3, 56, 0
9, 233568, Note_on_c, 3, 51, 55
9, 233616, Note_on_c, 3, 51, 0
9, 233616, Note_on_c, 3, 51, 55
9, 233664, Note_on_c, 3, 51, 0
9, 233664, Note_on_c, 3, 51, 55
9, 233760, Note_on_c, 3, 51, 0
9, 233760, Note_on_c, 3, 51, 55
9, 233856, Note_on_c, 3, 51, 0
9, 233856, Note_on_c, 3, 48, 55
9, 233856, Note_on_c, 3, 57, 55
9, 233952, Note_on_c, 3, 57, 0
9, 233952, Note_on_c, 3, 48, 0
9, 233952, Note_on_c, 3, 58, 58
9, 233952, Note_on_c, 3, 49, 58
9, 234048, Note_on_c, 3, 49, 0
9, 234048, Note_on_c, 3, 58, 0
9, 234048, Note_on_c, 3, 51, 58
9, 234048, Note_on_c, 3, 60, 58
9, 234144, Note_on_c, 3, 60, 0
9, 234144, Note_on_c, 3, 51, 0
9, 234336, Note_on_c, 3, 53, 58
9, 234384, Note_on_c, 3, 53, 0
9, 234384, Note_on_c, 3, 53, 58
9, 234432, Note_on_c, 3, 53, 0
9, 234432, Note_on_c, 3, 53, 58
9, 234528, Note_on_c, 3, 53, 0
9, 234528, Note_on_c, 3, 53, 61
9, 234624, Note_on_c, 3, 53, 0
9, 234624, Note_on_c, 3, 59, 61
9, 234720, Note_on_c, 3, 59, 0
9, 234720, Note_on_c, 3, 60, 61
9, 234720, Note_on_c, 3, 51, 61
9, 234816, Note_on_c, 3, 51, 0
9, 234816, Note_on_c, 3, 60, 0
9, 234816, Note_on_c, 3, 53, 61
9, 234816, Note_on_c, 3, 62, 61
9, 234912, Note_on_c, 3, 62, 0
9, 234912, Note_on_c, 3, 53, 0
9, 235104, Note_on_c, 3, 55, 67
9, 235152, Note_on_c, 3, 55, 0
9, 235152, Note_on_c, 3, 55, 70
9, 235200, Note_on_c, 3, 55, 0
9, 235200, Note_on_c, 3, 55, 73
9, 235296, Note_on_c, 3, 55, 0
9, 235296, Note_on_c, 3, 55, 73
9, 235392, Note_on_c, 3, 55, 0
9, 235392, Note_on_c, 3, 60, 76
9, 235392, Note_on_c, 3, 51, 76
9, 235488, Note_on_c, 3, 51, 0
9, 235488, Note_on_c, 3, 60, 0
9, 235488, Note_on_c, 3, 61, 79
9, 235584, Note_on_c, 3, 61, 0
9, 235584, Note_on_c, 3, 63, 79
9, 235584, Note_on_c, 3, 54, 79
9, 235680, Note_on_c, 3, 54, 0
9, 235680, Note_on_c, 3, 63, 0
9, 235872, Note_on_c, 3, 56, 85
9, 235920, Note_on_c, 3, 56, 0
9, 235920, Note_on_c, 3, 56, 85
9, 235968, Note_on_c, 3, 56, 0
9, 235968, Note_on_c, 3, 56, 85
9, 236064, Note_on_c, 3, 56, 0
9, 236064, Note_on_c, 3, 56, 88
9, 236160, Note_on_c, 3, 56, 0
9, 236160, Note_on_c, 3, 53, 88
9, 236160, Note_on_c, 3, 62, 88
9, 236256, Note_on_c, 3, 62, 0
9, 236256, Note_on_c, 3, 53, 0
9, 236256, Note_on_c, 3, 55, 88
9, 236256, Note_on_c, 3, 63, 88
9, 236352, Note_on_c, 3, 63, 0
9, 236352, Note_on_c, 3, 55, 0
9, 236352, Note_on_c, 3, 65, 88
9, 236352, Note_on_c, 3, 56, 88
9, 236448, Note_on_c, 3, 56, 0
9, 236448, Note_on_c, 3, 65, 0
9, 236544, Note_on_c, 3, 70, 53
9, 236544, Note_on_c, 3, 67, 57
9, 236640, Note_on_c, 3, 67, 0
9, 236640, Note_on_c, 3, 70, 0
9, 236640, Note_on_c, 3, 65, 59
9, 236640, Note_on_c, 3, 68, 59
9, 236736, Note_on_c, 3, 68, 0
9, 236736, Note_on_c, 3, 65, 0
9, 236736, Note_on_c, 3, 67, 62
9, 236736, Note_on_c, 3, 63, 55
9, 236832, Note_on_c, 3, 63, 0
9, 236832, Note_on_c, 3, 67, 0
9, 236832, Note_on_c, 3, 62, 58
9, 236832, Note_on_c, 3, 65, 56
9, 236928, Note_on_c, 3, 65, 0
9, 236928, Note_on_c, 3, 62, 0
9, 236928, Note_on_c, 3, 63, 55
9, 236928, Note_on_c, 3, 60, 50
9, 237024, Note_on_c, 3, 60, 0
9, 237024, Note_on_c, 3, 63, 0
9, 237024, Note_on_c, 3, 62, 64
9, 237024, Note_on_c, 3, 58, 55
9, 237120, Note_on_c, 3, 58, 0
9, 237120, Note_on_c, 3, 62, 0
9, 237120, Note_on_c, 3, 56, 55
9, 237120, Note_on_c, 3, 60, 58
9, 237216, Note_on_c, 3, 60, 0
9, 237216, Note_on_c, 3, 56, 0
9, 237216, Note_on_c, 3, 58, 54
9, 237216, Note_on_c, 3, 55, 95
9, 237312, Note_on_c, 3, 55, 0
9, 237312, Note_on_c, 3, 58, 0
9, 237312, Note_on_c, 3, 60, 65
9, 237312, Note_on_c, 3, 63, 55
9, 237408, Note_on_c, 3, 63, 0
9, 237408, Note_on_c, 3, 60, 0
9, 237408, Note_on_c, 3, 62, 68
9, 237408, Note_on_c, 3, 58, 60
9, 237504, Note_on_c, 3, 58, 0
9, 237504, Note_on_c, 3, 62, 0
9, 237504, Note_on_c, 3, 56, 53
9, 237504, Note_on_c, 3, 60, 95
9, 237600, Note_on_c, 3, 60, 0
9, 237600, Note_on_c, 3, 56, 0
9, 237600, Note_on_c, 3, 55, 62
9, 237600, Note_on_c, 3, 58, 55
9, 237696, Note_on_c, 3, 58, 0
9, 237696, Note_on_c, 3, 55, 0
9, 237696, Note_on_c, 3, 56, 58
9, 237792, Note_on_c, 3, 56, 0
9, 237792, Note_on_c, 3, 51, 55
9, 237792, Note_on_c, 3, 55, 56
9, 237888, Note_on_c, 3, 55, 0
9, 237888, Note_on_c, 3, 51, 0
9, 237888, Note_on_c, 3, 50, 50
9, 237888, Note_on_c, 3, 53, 54
9, 237984, Note_on_c, 3, 53, 0
9, 237984, Note_on_c, 3, 50, 0
9, 237984, Note_on_c, 3, 48, 58
9, 237984, Note_on_c, 3, 51, 52
9, 238080, Note_on_c, 3, 51, 0
9, 238080, Note_on_c, 3, 48, 0
9, 238080, Note_on_c, 3, 46, 59
9, 238080, Note_on_c, 3, 50, 68
9, 238176, Note_on_c, 3, 50, 0
9, 238176, Note_on_c, 3, 46, 0
9, 238176, Note_on_c, 3, 51, 55
9, 238176, Note_on_c, 3, 48, 58
9, 238272, Note_on_c, 3, 48, 0
9, 238272, Note_on_c, 3, 51, 0
9, 238272, Note_on_c, 3, 53, 56
9, 238272, Note_on_c, 3, 50, 59
9, 238368, Note_on_c, 3, 50, 0
9, 238368, Note_on_c, 3, 53, 0
9, 238368, Note_on_c, 3, 55, 56
9, 238368, Note_on_c, 3, 51, 56
9, 238464, Note_on_c, 3, 51, 0
9, 238464, Note_on_c, 3, 55, 0
9, 238464, Note_on_c, 3, 53, 56
9, 238464, Note_on_c, 3, 56, 60
9, 238560, Note_on_c, 3, 56, 0
9, 238560, Note_on_c, 3, 53, 0
9, 238560, Note_on_c, 3, 58, 59
9, 238560, Note_on_c, 3, 55, 59
9, 238656, Note_on_c, 3, 55, 0
9, 238656, Note_on_c, 3, 58, 0
9, 238656, Note_on_c, 3, 58, 59
9, 238656, Note_on_c, 3, 63, 54
9, 238752, Note_on_c, 3, 63, 0
9, 238752, Note_on_c, 3, 58, 0
9, 238752, Note_on_c, 3, 63, 49
9, 238752, Note_on_c, 3, 67, 62
9, 238848, Note_on_c, 3, 67, 0
9, 238848, Note_on_c, 3, 63, 0
9, 238848, Note_on_c, 3, 70, 56
9, 238848, Note_on_c, 3, 67, 61
9, 238944, Note_on_c, 3, 67, 0
9, 238944, Note_on_c, 3, 70, 0
9, 238944, Note_on_c, 3, 65, 65
9, 238944, Note_on_c, 3, 68, 59
9, 239040, Note_on_c, 3, 68, 0
9, 239040, Note_on_c, 3, 65, 0
9, 239040, Note_on_c, 3, 67, 62
9, 239040, Note_on_c, 3, 63, 59
9, 239136, Note_on_c, 3, 63, 0
9, 239136, Note_on_c, 3, 67, 0
9, 239136, Note_on_c, 3, 62, 66
9, 239136, Note_on_c, 3, 65, 55
9, 239232, Note_on_c, 3, 65, 0
9, 239232, Note_on_c, 3, 62, 0
9, 239232, Note_on_c, 3, 65, 61
9, 239232, Note_on_c, 3, 68, 60
9, 239328, Note_on_c, 3, 68, 0
9, 239328, Note_on_c, 3, 65, 0
9, 239328, Note_on_c, 3, 62, 59
9, 239328, Note_on_c, 3, 65, 60
9, 239424, Note_on_c, 3, 65, 0
9, 239424, Note_on_c, 3, 62, 0
9, 239424, Note_on_c, 3, 63, 55
9, 239424, Note_on_c, 3, 60, 59
9, 239520, Note_on_c, 3, 60, 0
9, 239520, Note_on_c, 3, 63, 0
9, 239520, Note_on_c, 3, 62, 70
9, 239520, Note_on_c, 3, 58, 59
9, 239616, Note_on_c, 3, 58, 0
9, 239616, Note_on_c, 3, 62, 0
9, 239616, Note_on_c, 3, 60, 57
9, 239616, Note_on_c, 3, 56, 55
9, 239808, Note_on_c, 3, 56, 0
9, 239808, Note_on_c, 3, 60, 0
9, 239808, Note_on_c, 3, 34, 56
9, 239808, Note_on_c, 3, 46, 62
9, 240000, Note_on_c, 3, 46, 0
9, 240000, Note_on_c, 3, 34, 0
9, 240000, Note_on_c, 3, 46, 64
9, 240000, Note_on_c, 3, 34, 55
9, 240000, Note_on_c, 3, 46, 66
9, 240192, Note_on_c, 3, 46, 0
9, 240192, Note_on_c, 3, 34, 0
9, 240192, Note_on_c, 3, 46, 0
9, 240192, Note_on_c, 3, 34, 55
9, 240192, Note_on_c, 3, 46, 65
9, 240384, Note_on_c, 3, 46, 0
9, 240384, Note_on_c, 3, 34, 0
9, 240384, Note_on_c, 3, 46, 59
9, 240384, Note_on_c, 3, 34, 52
9, 240576, Note_on_c, 3, 34, 0
9, 240576, Note_on_c, 3, 46, 0
9, 240576, Note_on_c, 3, 34, 55
9, 240576, Note_on_c, 3, 46, 65
9, 240768, Note_on_c, 3, 46, 0
9, 240768, Note_on_c, 3, 34, 0
9, 240768, Note_on_c, 3, 34, 52
9, 240768, Note_on_c, 3, 46, 62
9, 240960, Note_on_c, 3, 46, 0
9, 240960, Note_on_c, 3, 34, 0
9, 240960, Note_on_c, 3, 45, 65
9, 240960, Note_on_c, 3, 34, 59
9, 241152, Note_on_c, 3, 34, 0
9, 241152, Note_on_c, 3, 45, 0
9, 241152, Note_on_c, 3, 45, 63
9, 241152, Note_on_c, 3, 34, 54
9, 241344, Note_on_c, 3, 34, 0
9, 241344, Note_on_c, 3, 45, 0
9, 241344, Note_on_c, 3, 34, 57
9, 241344, Note_on_c, 3, 43, 63
9, 241536, Note_on_c, 3, 43, 0
9, 241536, Note_on_c, 3, 34, 0
9, 241536, Note_on_c, 3, 41, 60
9, 241536, Note_on_c, 3, 34, 50
9, 241728, Note_on_c, 3, 34, 0
9, 241728, Note_on_c, 3, 41, 0
9, 241728, Note_on_c, 3, 34, 58
9, 241728, Note_on_c, 3, 39, 62
9, 241920, Note_on_c, 3, 39, 0
9, 241920, Note_on_c, 3, 34, 0
9, 241920, Note_on_c, 3, 34, 55
9, 241920, Note_on_c, 3, 38, 61
9, 242112, Note_on_c, 3, 38, 0
9, 242112, Note_on_c, 3, 34, 0
9, 242112, Note_on_c, 3, 36, 62
9, 242112, Note_on_c, 3, 34, 50
9, 242304, Note_on_c, 3, 34, 0
9, 242304, Note_on_c, 3, 36, 0
9, 242688, Note_on_c, 3, 67, 54
9, 242784, Note_on_c, 3, 67, 0
9, 242784, Note_on_c, 3, 65, 59
9, 242880, Note_on_c, 3, 65, 0
9, 242880, Note_on_c, 3, 63, 55
9, 242976, Note_on_c, 3, 63, 0
9, 242976, Note_on_c, 3, 62, 59
9, 243072, Note_on_c, 3, 62, 0
9, 243072, Note_on_c, 3, 65, 58
9, 243168, Note_on_c, 3, 65, 0
9, 243168, Note_on_c, 3, 63, 58
9, 243264, Note_on_c, 3, 63, 0
9, 243264, Note_on_c, 3, 62, 61
9, 243360, Note_on_c, 3, 62, 0
9, 243360, Note_on_c, 3, 60, 57
9, 243456, Note_on_c, 3, 60, 0
9, 243456, Note_on_c, 3, 63, 45
9, 243552, Note_on_c, 3, 63, 0
9, 243552, Note_on_c, 3, 62, 46
9, 243648, Note_on_c, 3, 62, 0
9, 243648, Note_on_c, 3, 60, 27
9, 243744, Note_on_c, 3, 60, 0
9, 243744, Note_on_c, 3, 58, 53
9, 243840, Note_on_c, 3, 58, 0
9, 243840, Note_on_c, 3, 67, 51
9, 243936, Note_on_c, 3, 67, 0
9, 243936, Note_on_c, 3, 65, 52
9, 244032, Note_on_c, 3, 65, 0
9, 244032, Note_on_c, 3, 63, 51
9, 244128, Note_on_c, 3, 63, 0
9, 244128, Note_on_c, 3, 62, 50
9, 244224, Note_on_c, 3, 62, 0
9, 244224, Note_on_c, 3, 65, 49
9, 244320, Note_on_c, 3, 65, 0
9, 244320, Note_on_c, 3, 63, 49
9, 244416, Note_on_c, 3, 63, 0
9, 244416, Note_on_c, 3, 62, 49
9, 244512, Note_on_c, 3, 62, 0
9, 244512, Note_on_c, 3, 60, 54
9, 244608, Note_on_c, 3, 60, 0
9, 244608, Note_on_c, 3, 63, 49
9, 244704, Note_on_c, 3, 63, 0
9, 244704, Note_on_c, 3, 62, 59
9, 244800, Note_on_c, 3, 62, 0
9, 244800, Note_on_c, 3, 60, 56
9, 244896, Note_on_c, 3, 60, 0
9, 244896, Note_on_c, 3, 58, 48
9, 244992, Note_on_c, 3, 58, 0
9, 244992, Note_on_c, 3, 62, 56
9, 245088, Note_on_c, 3, 62, 0
9, 245088, Note_on_c, 3, 60, 50
9, 245184, Note_on_c, 3, 60, 0
9, 245184, Note_on_c, 3, 58, 50
9, 245280, Note_on_c, 3, 58, 0
9, 245280, Note_on_c, 3, 56, 55
9, 245376, Note_on_c, 3, 56, 0
9, 245376, Note_on_c, 3, 65, 46
9, 245472, Note_on_c, 3, 65, 0
9, 245472, Note_on_c, 3, 63, 53
9, 245568, Note_on_c, 3, 63, 0
9, 245568, Note_on_c, 3, 62, 54
9, 245664, Note_on_c, 3, 62, 0
9, 245664, Note_on_c, 3, 60, 54
9, 245760, Note_on_c, 3, 60, 0
9, 245760, Note_on_c, 3, 63, 55
9, 245856, Note_on_c, 3, 63, 0
9, 245856, Note_on_c, 3, 62, 43
9, 245952, Note_on_c, 3, 62, 0
9, 245952, Note_on_c, 3, 60, 48
9, 246048, Note_on_c, 3, 60, 0
9, 246048, Note_on_c, 3, 58, 54
9, 246144, Note_on_c, 3, 58, 0
9, 246144, Note_on_c, 3, 63, 53
9, 246240, Note_on_c, 3, 63, 0
9, 246240, Note_on_c, 3, 62, 49
9, 246336, Note_on_c, 3, 62, 0
9, 246336, Note_on_c, 3, 60, 45
9, 246432, Note_on_c, 3, 60, 0
9, 246432, Note_on_c, 3, 58, 52
9, 246528, Note_on_c, 3, 58, 0
9, 246528, Note_on_c, 3, 62, 58
9, 246624, Note_on_c, 3, 62, 0
9, 246624, Note_on_c, 3, 60, 52
9, 246720, Note_on_c, 3, 60, 0
9, 246720, Note_on_c, 3, 58, 50
9, 246816, Note_on_c, 3, 58, 0
9, 246816, Note_on_c, 3, 56, 48
9, 246912, Note_on_c, 3, 56, 0
9, 246912, Note_on_c, 3, 62, 62
9, 247008, Note_on_c, 3, 62, 0
9, 247008, Note_on_c, 3, 60, 58
9, 247104, Note_on_c, 3, 60, 0
9, 247104, Note_on_c, 3, 58, 55
9, 247200, Note_on_c, 3, 58, 0
9, 247200, Note_on_c, 3, 56, 59
9, 247296, Note_on_c, 3, 56, 0
9, 247296, Note_on_c, 3, 60, 52
9, 247392, Note_on_c, 3, 60, 0
9, 247392, Note_on_c, 3, 58, 53
9, 247488, Note_on_c, 3, 58, 0
9, 247488, Note_on_c, 3, 56, 53
9, 247584, Note_on_c, 3, 56, 0
9, 247584, Note_on_c, 3, 55, 54
9, 247680, Note_on_c, 3, 55, 0
9, 247680, Note_on_c, 3, 60, 53
9, 247776, Note_on_c, 3, 60, 0
9, 247776, Note_on_c, 3, 58, 50
9, 247872, Note_on_c, 3, 58, 0
9, 247872, Note_on_c, 3, 56, 55
9, 247968, Note_on_c, 3, 56, 0
9, 247968, Note_on_c, 3, 55, 58
9, 248064, Note_on_c, 3, 55, 0
9, 248064, Note_on_c, 3, 58, 54
9, 248160, Note_on_c, 3, 58, 0
9, 248160, Note_on_c, 3, 56, 52
9, 248256, Note_on_c, 3, 56, 0
9, 248256, Note_on_c, 3, 55, 52
9, 248352, Note_on_c, 3, 55, 0
9, 248352, Note_on_c, 3, 53, 51
9, 248448, Note_on_c, 3, 53, 0
9, 248448, Note_on_c, 3, 58, 55
9, 248544, Note_on_c, 3, 58, 0
9, 248544, Note_on_c, 3, 56, 55
9, 248640, Note_on_c, 3, 56, 0
9, 248640, Note_on_c, 3, 55, 54
9, 248736, Note_on_c, 3, 55, 0
9, 248736, Note_on_c, 3, 53, 53
9, 248832, Note_on_c, 3, 53, 0
9, 248832, Note_on_c, 3, 56, 49
9, 248928, Note_on_c, 3, 56, 0
9, 248928, Note_on_c, 3, 55, 47
9, 249024, Note_on_c, 3, 55, 0
9, 249024, Note_on_c, 3, 53, 59
9, 249120, Note_on_c, 3, 53, 0
9, 249120, Note_on_c, 3, 51, 55
9, 249216, Note_on_c, 3, 51, 0
9, 249216, Note_on_c, 3, 56, 50
9, 249312, Note_on_c, 3, 56, 0
9, 249312, Note_on_c, 3, 55, 47
9, 249408, Note_on_c, 3, 55, 0
9, 249408, Note_on_c, 3, 53, 43
9, 249504, Note_on_c, 3, 53, 0
9, 249504, Note_on_c, 3, 51, 55
9, 249600, Note_on_c, 3, 51, 0
9, 249600, Note_on_c, 3, 55, 57
9, 249696, Note_on_c, 3, 55, 0
9, 249696, Note_on_c, 3, 53, 55
9, 249792, Note_on_c, 3, 53, 0
9, 249792, Note_on_c, 3, 51, 55
9, 249888, Note_on_c, 3, 51, 0
9, 249888, Note_on_c, 3, 50, 55
9, 249984, Note_on_c, 3, 50, 0
9, 249984, Note_on_c, 3, 55, 62
9, 250080, Note_on_c, 3, 55, 0
9, 250080, Note_on_c, 3, 53, 62
9, 250176, Note_on_c, 3, 53, 0
9, 250176, Note_on_c, 3, 51, 59
9, 250272, Note_on_c, 3, 51, 0
9, 250272, Note_on_c, 3, 50, 55
9, 250368, Note_on_c, 3, 50, 0
9, 250368, Note_on_c, 3, 53, 56
9, 250464, Note_on_c, 3, 53, 0
9, 250464, Note_on_c, 3, 51, 55
9, 250560, Note_on_c, 3, 51, 0
9, 250560, Note_on_c, 3, 50, 52
9, 250656, Note_on_c, 3, 50, 0
9, 250656, Note_on_c, 3, 48, 59
9, 250752, Note_on_c, 3, 48, 0
9, 250752, Note_on_c, 3, 53, 62
9, 250848, Note_on_c, 3, 53, 0
9, 250848, Note_on_c, 3, 51, 62
9, 250944, Note_on_c, 3, 51, 0
9, 250944, Note_on_c, 3, 50, 65
9, 251040, Note_on_c, 3, 50, 0
9, 251040, Note_on_c, 3, 48, 60
9, 251136, Note_on_c, 3, 48, 0
9, 251136, Note_on_c, 3, 51, 55
9, 251232, Note_on_c, 3, 51, 0
9, 251232, Note_on_c, 3, 50, 50
9, 251328, Note_on_c, 3, 50, 0
9, 251328, Note_on_c, 3, 48, 53
9, 251424, Note_on_c, 3, 48, 0
9, 251424, Note_on_c, 3, 46, 49
9, 251520, Note_on_c, 3, 46, 0
9, 251520, Note_on_c, 3, 51, 50
9, 251616, Note_on_c, 3, 51, 0
9, 251616, Note_on_c, 3, 50, 29
9, 251712, Note_on_c, 3, 50, 0
9, 251712, Note_on_c, 3, 48, 48
9, 251808, Note_on_c, 3, 48, 0
9, 251808, Note_on_c, 3, 46, 52
9, 251904, Note_on_c, 3, 46, 0
9, 251904, Note_on_c, 3, 51, 52
9, 252000, Note_on_c, 3, 51, 0
9, 252000, Note_on_c, 3, 50, 46
9, 252096, Note_on_c, 3, 50, 0
9, 252096, Note_on_c, 3, 48, 32
9, 252192, Note_on_c, 3, 48, 0
9, 252192, Note_on_c, 3, 46, 53
9, 252288, Note_on_c, 3, 46, 0
9, 252288, Note_on_c, 3, 50, 52
9, 252384, Note_on_c, 3, 50, 0
9, 252384, Note_on_c, 3, 48, 55
9, 252480, Note_on_c, 3, 48, 0
9, 252480, Note_on_c, 3, 46, 55
9, 252576, Note_on_c, 3, 46, 0
9, 252576, Note_on_c, 3, 44, 53
9, 252672, Note_on_c, 3, 44, 0
9, 252672, Note_on_c, 3, 50, 58
9, 252768, Note_on_c, 3, 50, 0
9, 252768, Note_on_c, 3, 48, 59
9, 252864, Note_on_c, 3, 48, 0
9, 252864, Note_on_c, 3, 46, 53
9, 252960, Note_on_c, 3, 46, 0
9, 252960, Note_on_c, 3, 44, 55
9, 253056, Note_on_c, 3, 44, 0
9, 253056, Note_on_c, 3, 50, 50
9, 253152, Note_on_c, 3, 50, 0
9, 253152, Note_on_c, 3, 48, 41
9, 253248, Note_on_c, 3, 48, 0
9, 253248, Note_on_c, 3, 46, 52
9, 253344, Note_on_c, 3, 46, 0
9, 253344, Note_on_c, 3, 44, 54
9, 253440, Note_on_c, 3, 44, 0
9, 253440, Note_on_c, 3, 48, 52
9, 253536, Note_on_c, 3, 48, 0
9, 253536, Note_on_c, 3, 46, 53
9, 253632, Note_on_c, 3, 46, 0
9, 253632, Note_on_c, 3, 44, 53
9, 253728, Note_on_c, 3, 44, 0
9, 253728, Note_on_c, 3, 43, 55
9, 253824, Note_on_c, 3, 43, 0
9, 253824, Note_on_c, 3, 48, 56
9, 253920, Note_on_c, 3, 48, 0
9, 253920, Note_on_c, 3, 46, 49
9, 254016, Note_on_c, 3, 46, 0
9, 254016, Note_on_c, 3, 44, 59
9, 254112, Note_on_c, 3, 44, 0
9, 254112, Note_on_c, 3, 43, 52
9, 254208, Note_on_c, 3, 43, 0
9, 254208, Note_on_c, 3, 48, 55
9, 254304, Note_on_c, 3, 48, 0
9, 254304, Note_on_c, 3, 46, 49
9, 254400, Note_on_c, 3, 46, 0
9, 254400, Note_on_c, 3, 44, 59
9, 254496, Note_on_c, 3, 44, 0
9, 254496, Note_on_c, 3, 43, 56
9, 254592, Note_on_c, 3, 43, 0
9, 254592, Note_on_c, 3, 46, 53
9, 254688, Note_on_c, 3, 46, 0
9, 254688, Note_on_c, 3, 44, 55
9, 254784, Note_on_c, 3, 44, 0
9, 254784, Note_on_c, 3, 43, 51
9, 254880, Note_on_c, 3, 43, 0
9, 254880, Note_on_c, 3, 41, 57
9, 254976, Note_on_c, 3, 41, 0
9, 254976, Note_on_c, 3, 46, 53
9, 255072, Note_on_c, 3, 46, 0
9, 255072, Note_on_c, 3, 44, 58
9, 255168, Note_on_c, 3, 44, 0
9, 255168, Note_on_c, 3, 43, 52
9, 255264, Note_on_c, 3, 43, 0
9, 255264, Note_on_c, 3, 41, 56
9, 255360, Note_on_c, 3, 41, 0
9, 255360, Note_on_c, 3, 46, 59
9, 255456, Note_on_c, 3, 46, 0
9, 255456, Note_on_c, 3, 44, 55
9, 255552, Note_on_c, 3, 44, 0
9, 255552, Note_on_c, 3, 43, 54
9, 255648, Note_on_c, 3, 43, 0
9, 255648, Note_on_c, 3, 41, 54
9, 255744, Note_on_c, 3, 41, 0
9, 255744, Note_on_c, 3, 44, 55
9, 255827, Note_on_c, 3, 44, 0
9, 255840, Note_on_c, 3, 43, 55
9, 255923, Note_on_c, 3, 43, 0
9, 255936, Note_on_c, 3, 41, 56
9, 256019, Note_on_c, 3, 41, 0
9, 256032, Note_on_c, 3, 39, 58
9, 256115, Note_on_c, 3, 39, 0
9, 256128, Note_on_c, 3, 44, 59
9, 256211, Note_on_c, 3, 44, 0
9, 256224, Note_on_c, 3, 43, 50
9, 256307, Note_on_c, 3, 43, 0
9, 256320, Note_on_c, 3, 41, 48
9, 256403, Note_on_c, 3, 41, 0
9, 256416, Note_on_c, 3, 39, 56
9, 256499, Note_on_c, 3, 39, 0
9, 256512, Note_on_c, 3, 44, 55
9, 256595, Note_on_c, 3, 44, 0
9, 256608, Note_on_c, 3, 43, 56
9, 256691, Note_on_c, 3, 43, 0
9, 256704, Note_on_c, 3, 41, 54
9, 256787, Note_on_c, 3, 41, 0
9, 256800, Note_on_c, 3, 39, 62
9, 256883, Note_on_c, 3, 39, 0
9, 256896, Note_on_c, 3, 43, 61
9, 256976, Note_on_c, 3, 43, 0
9, 256992, Note_on_c, 3, 41, 70
9, 257072, Note_on_c, 3, 41, 0
9, 257088, Note_on_c, 3, 39, 70
9, 257168, Note_on_c, 3, 39, 0
9, 257184, Note_on_c, 3, 38, 76
9, 257264, Note_on_c, 3, 38, 0
9, 257280, Note_on_c, 3, 43, 82
9, 257360, Note_on_c, 3, 43, 0
9, 257376, Note_on_c, 3, 41, 85
9, 257456, Note_on_c, 3, 41, 0
9, 257472, Note_on_c, 3, 39, 88
9, 257552, Note_on_c, 3, 39, 0
9, 257568, Note_on_c, 3, 38, 63
9, 257648, Note_on_c, 3, 38, 0
9, 257664, Note_on_c, 3, 43, 62
9, 257744, Note_on_c, 3, 43, 0
9, 257760, Note_on_c, 3, 41, 65
9, 257840, Note_on_c, 3, 41, 0
9, 257856, Note_on_c, 3, 39, 95
9, 257856, Note_on_c, 3, 51, 68
9, 257952, Note_on_c, 3, 51, 0
9, 257952, Note_on_c, 3, 39, 0
9, 257952, Note_on_c, 3, 39, 95
9, 257952, Note_on_c, 3, 51, 65
9, 258048, Note_on_c, 3, 51, 0
9, 258048, Note_on_c, 3, 39, 0
9, 258048, Note_on_c, 3, 46, 95
9, 258048, Note_on_c, 3, 58, 95
9, 258240, Note_on_c, 3, 58, 0
9, 258240, Note_on_c, 3, 46, 0
9, 258240, Note_on_c, 3, 51, 95
9, 258240, Note_on_c, 3, 58, 95
9, 258432, Note_on_c, 3, 58, 0
9, 258432, Note_on_c, 3, 51, 0
9, 258432, Note_on_c, 3, 58, 95
9, 258432, Note_on_c, 3, 51, 95
9, 258528, Note_on_c, 3, 51, 0
9, 258528, Note_on_c, 3, 58, 0
9, 258528, Note_on_c, 3, 58, 95
9, 258528, Note_on_c, 3, 51, 95
9, 258624, Note_on_c, 3, 51, 0
9, 258624, Note_on_c, 3, 58, 0
9, 258624, Note_on_c, 3, 46, 95
9, 258624, Note_on_c, 3, 58, 95
9, 258720, Note_on_c, 3, 58, 0
9, 258720, Note_on_c, 3, 46, 0
9, 258720, Note_on_c, 3, 51, 95
9, 258720, Note_on_c, 3, 58, 95
9, 258816, Note_on_c, 3, 58, 0
9, 258816, Note_on_c, 3, 51, 0
9, 258816, Note_on_c, 3, 56, 95
9, 258816, Note_on_c, 3, 44, 95
9, 258912, Note_on_c, 3, 44, 0
9, 258912, Note_on_c, 3, 56, 0
9, 258912, Note_on_c, 3, 56, 95
9, 258912, Note_on_c, 3, 44, 95
9, 259008, Note_on_c, 3, 44, 0
9, 259008, Note_on_c, 3, 56, 0
9, 259008, Note_on_c, 3, 56, 95
9, 259008, Note_on_c, 3, 44, 95
9, 259248, Note_on_c, 3, 44, 0
9, 259248, Note_on_c, 3, 56, 0
9, 259248, Note_on_c, 3, 48, 59
9, 259296, Note_on_c, 3, 48, 0
9, 259296, Note_on_c, 3, 49, 58
9, 259344, Note_on_c, 3, 49, 0
9, 259344, Note_on_c, 3, 51, 59
9, 259392, Note_on_c, 3, 51, 0
9, 259392, Note_on_c, 3, 53, 55
9, 259440, Note_on_c, 3, 53, 0
9, 259440, Note_on_c, 3, 55, 62
9, 259488, Note_on_c, 3, 55, 0
9, 259488, Note_on_c, 3, 56, 56
9, 259536, Note_on_c, 3, 56, 0
9, 259536, Note_on_c, 3, 58, 59
9, 259584, Note_on_c, 3, 58, 0
9, 259584, Note_on_c, 3, 60, 60
9, 259632, Note_on_c, 3, 60, 0
9, 259632, Note_on_c, 3, 58, 65
9, 259680, Note_on_c, 3, 58, 0
9, 259680, Note_on_c, 3, 56, 62
9, 259728, Note_on_c, 3, 56, 0
9, 259728, Note_on_c, 3, 55, 65
9, 259776, Note_on_c, 3, 55, 0
9, 259776, Note_on_c, 3, 63, 60
9, 259824, Note_on_c, 3, 63, 0
9, 259824, Note_on_c, 3, 62, 65
9, 259872, Note_on_c, 3, 62, 0
9, 259872, Note_on_c, 3, 60, 58
9, 259920, Note_on_c, 3, 60, 0
9, 259920, Note_on_c, 3, 58, 55
9, 259968, Note_on_c, 3, 58, 0
9, 259968, Note_on_c, 3, 56, 60
9, 260016, Note_on_c, 3, 56, 0
9, 260016, Note_on_c, 3, 55, 54
9, 260064, Note_on_c, 3, 55, 0
9, 260064, Note_on_c, 3, 53, 58
9, 260112, Note_on_c, 3, 53, 0
9, 260112, Note_on_c, 3, 51, 54
9, 260160, Note_on_c, 3, 51, 0
9, 260160, Note_on_c, 3, 50, 62
9, 260208, Note_on_c, 3, 50, 0
9, 260208, Note_on_c, 3, 48, 59
9, 260256, Note_on_c, 3, 48, 0
9, 260256, Note_on_c, 3, 46, 60
9, 260304, Note_on_c, 3, 46, 0
9, 260304, Note_on_c, 3, 44, 59
9, 260352, Note_on_c, 3, 44, 0
9, 260352, Note_on_c, 3, 39, 59
9, 260352, Note_on_c, 3, 51, 65
9, 260448, Note_on_c, 3, 51, 0
9, 260448, Note_on_c, 3, 39, 0
9, 260448, Note_on_c, 3, 39, 95
9, 260448, Note_on_c, 3, 51, 65
9, 260544, Note_on_c, 3, 51, 0
9, 260544, Note_on_c, 3, 39, 0
9, 260544, Note_on_c, 3, 39, 59
9, 260544, Note_on_c, 3, 51, 95
9, 260640, Note_on_c, 3, 51, 0
9, 260640, Note_on_c, 3, 39, 0
9, 260640, Note_on_c, 3, 39, 59
9, 260640, Note_on_c, 3, 51, 67
9, 260736, Note_on_c, 3, 51, 0
9, 260736, Note_on_c, 3, 39, 0
9, 260736, Note_on_c, 3, 51, 67
9, 260736, Note_on_c, 3, 39, 62
9, 261120, Note_on_c, 3, 39, 0
9, 261120, Note_on_c, 3, 51, 0
9, 261120, Note_on_c, 3, 51, 95
9, 261120, Note_on_c, 3, 39, 58
9, 261312, Note_on_c, 3, 39, 0
9, 261312, Note_on_c, 3, 51, 0
9, 261312, Note_on_c, 3, 55, 95
9, 261312, Note_on_c, 3, 43, 95
9, 261504, Note_on_c, 3, 43, 0
9, 261504, Note_on_c, 3, 55, 0
9, 261504, Note_on_c, 3, 46, 95
9, 261792, Note_on_c, 3, 46, 0
9, 261792, Note_on_c, 3, 46, 95
9, 261888, Note_on_c, 3, 46, 0
9, 261888, Note_on_c, 3, 46, 95
9, 261984, Note_on_c, 3, 46, 0
9, 261984, Note_on_c, 3, 46, 95
9, 262080, Note_on_c, 3, 46, 0
9, 262080, Note_on_c, 3, 39, 59
9, 262080, Note_on_c, 3, 51, 63
9, 262128, Note_on_c, 3, 51, 0
9, 262128, Note_on_c, 3, 39, 0
9, 262128, Note_on_c, 3, 43, 59
9, 262176, Note_on_c, 3, 43, 0
9, 262176, Note_on_c, 3, 44, 54
9, 262224, Note_on_c, 3, 44, 0
9, 262224, Note_on_c, 3, 46, 62
9, 262272, Note_on_c, 3, 46, 0
9, 262272, Note_on_c, 3, 48, 59
9, 262320, Note_on_c, 3, 48, 0
9, 262320, Note_on_c, 3, 50, 67
9, 262368, Note_on_c, 3, 50, 0
9, 262368, Note_on_c, 3, 51, 59
9, 262416, Note_on_c, 3, 51, 0
9, 262416, Note_on_c, 3, 53, 63
9, 262464, Note_on_c, 3, 53, 0
9, 262464, Note_on_c, 3, 55, 64
9, 262512, Note_on_c, 3, 55, 0
9, 262512, Note_on_c, 3, 53, 62
9, 262560, Note_on_c, 3, 53, 0
9, 262560, Note_on_c, 3, 51, 60
9, 262608, Note_on_c, 3, 51, 0
9, 262608, Note_on_c, 3, 50, 66
9, 262656, Note_on_c, 3, 50, 0
9, 262656, Note_on_c, 3, 58, 59
9, 262704, Note_on_c, 3, 58, 0
9, 262704, Note_on_c, 3, 56, 61
9, 262752, Note_on_c, 3, 56, 0
9, 262752, Note_on_c, 3, 55, 54
9, 262800, Note_on_c, 3, 55, 0
9, 262800, Note_on_c, 3, 53, 60
9, 262848, Note_on_c, 3, 53, 0
9, 262848, Note_on_c, 3, 56, 59
9, 262896, Note_on_c, 3, 56, 0
9, 262896, Note_on_c, 3, 55, 64
9, 262944, Note_on_c, 3, 55, 0
9, 262944, Note_on_c, 3, 53, 62
9, 262992, Note_on_c, 3, 53, 0
9, 262992, Note_on_c, 3, 51, 56
9, 263040, Note_on_c, 3, 51, 0
9, 263040, Note_on_c, 3, 55, 59
9, 263088, Note_on_c, 3, 55, 0
9, 263088, Note_on_c, 3, 53, 63
9, 263136, Note_on_c, 3, 53, 0
9, 263136, Note_on_c, 3, 51, 59
9, 263184, Note_on_c, 3, 51, 0
9, 263184, Note_on_c, 3, 50, 64
9, 263232, Note_on_c, 3, 50, 0
9, 263232, Note_on_c, 3, 51, 59
9, 263280, Note_on_c, 3, 51, 0
9, 263280, Note_on_c, 3, 50, 63
9, 263328, Note_on_c, 3, 50, 0
9, 263328, Note_on_c, 3, 48, 60
9, 263376, Note_on_c, 3, 48, 0
9, 263376, Note_on_c, 3, 46, 55
9, 263424, Note_on_c, 3, 46, 0
9, 263424, Note_on_c, 3, 50, 61
9, 263472, Note_on_c, 3, 50, 0
9, 263472, Note_on_c, 3, 48, 56
9, 263520, Note_on_c, 3, 48, 0
9, 263520, Note_on_c, 3, 46, 59
9, 263568, Note_on_c, 3, 46, 0
9, 263568, Note_on_c, 3, 44, 62
9, 263616, Note_on_c, 3, 44, 0
9, 263616, Note_on_c, 3, 36, 57
9, 263808, Note_on_c, 3, 36, 0
9, 263808, Note_on_c, 3, 34, 54
9, 264000, Note_on_c, 3, 34, 0
9, 264000, Note_on_c, 3, 39, 59
9, 264000, Note_on_c, 3, 51, 65
9, 264192, Note_on_c, 3, 51, 0
9, 264192, Note_on_c, 3, 39, 0
9, 264192, Note_on_c, 3, 39, 59
9, 264192, Note_on_c, 3, 51, 65
9, 264384, Note_on_c, 3, 51, 0
9, 264384, Note_on_c, 3, 39, 0
9, 264384, Note_on_c, 3, 34, 57
9, 264384, Note_on_c, 3, 46, 68
9, 264480, Note_on_c, 3, 46, 0
9, 264480, Note_on_c, 3, 34, 0
9, 264480, Note_on_c, 3, 51, 62
9, 264480, Note_on_c, 3, 39, 58
9, 264576, Note_on_c, 3, 39, 0
9, 264576, Note_on_c, 3, 51, 0
9, 264576, Note_on_c, 3, 44, 62
9, 264672, Note_on_c, 3, 44, 0
9, 264672, Note_on_c, 3, 36, 57
9, 264672, Note_on_c, 3, 48, 64
9, 264768, Note_on_c, 3, 48, 0
9, 264768, Note_on_c, 3, 36, 0
9, 264768, Note_on_c, 3, 39, 58
9, 264768, Note_on_c, 3, 51, 61
9, 264864, Note_on_c, 3, 51, 0
9, 264864, Note_on_c, 3, 39, 0
9, 264864, Note_on_c, 3, 56, 67
9, 264864, Note_on_c, 3, 44, 61
9, 264960, Note_on_c, 3, 44, 0
9, 264960, Note_on_c, 3, 56, 0
9, 264960, Note_on_c, 3, 48, 63
9, 265056, Note_on_c, 3, 48, 0
9, 265056, Note_on_c, 3, 51, 62
9, 265152, Note_on_c, 3, 51, 0
9, 265152, Note_on_c, 3, 56, 61
9, 265248, Note_on_c, 3, 56, 0
9, 265248, Note_on_c, 3, 51, 63
9, 265344, Note_on_c, 3, 51, 0
9, 265344, Note_on_c, 3, 48, 62
9, 265440, Note_on_c, 3, 48, 0
9, 265440, Note_on_c, 3, 56, 62
9, 265440, Note_on_c, 3, 44, 55
9, 265536, Note_on_c, 3, 44, 0
9, 265536, Note_on_c, 3, 56, 0
9, 265536, Note_on_c, 3, 39, 57
9, 265536, Note_on_c, 3, 51, 62
9, 265632, Note_on_c, 3, 51, 0
9, 265632, Note_on_c, 3, 39, 0
9, 265632, Note_on_c, 3, 36, 59
9, 265632, Note_on_c, 3, 48, 66
9, 265728, Note_on_c, 3, 48, 0
9, 265728, Note_on_c, 3, 36, 0
9, 265728, Note_on_c, 3, 44, 60
9, 265824, Note_on_c, 3, 44, 0
9, 265824, Note_on_c, 3, 51, 62
9, 265824, Note_on_c, 3, 39, 59
9, 265920, Note_on_c, 3, 39, 0
9, 265920, Note_on_c, 3, 51, 0
9, 265920, Note_on_c, 3, 44, 71
9, 266160, Note_on_c, 3, 44, 0
9, 266160, Note_on_c, 3, 48, 59
9, 266208, Note_on_c, 3, 48, 0
9, 266208, Note_on_c, 3, 49, 55
9, 266256, Note_on_c, 3, 49, 0
9, 266256, Note_on_c, 3, 51, 57
9, 266304, Note_on_c, 3, 51, 0
9, 266304, Note_on_c, 3, 53, 62
9, 266352, Note_on_c, 3, 53, 0
9, 266352, Note_on_c, 3, 55, 64
9, 266400, Note_on_c, 3, 55, 0
9, 266400, Note_on_c, 3, 56, 61
9, 266448, Note_on_c, 3, 56, 0
9, 266448, Note_on_c, 3, 58, 63
9, 266496, Note_on_c, 3, 58, 0
9, 266496, Note_on_c, 3, 60, 64
9, 266544, Note_on_c, 3, 60, 0
9, 266544, Note_on_c, 3, 61, 60
9, 266592, Note_on_c, 3, 61, 0
9, 266592, Note_on_c, 3, 60, 59
9, 266640, Note_on_c, 3, 60, 0
9, 266640, Note_on_c, 3, 58, 55
9, 266688, Note_on_c, 3, 58, 0
9, 266688, Note_on_c, 3, 56, 61
9, 266736, Note_on_c, 3, 56, 0
9, 266736, Note_on_c, 3, 58, 59
9, 266784, Note_on_c, 3, 58, 0
9, 266784, Note_on_c, 3, 56, 62
9, 266832, Note_on_c, 3, 56, 0
9, 266832, Note_on_c, 3, 55, 64
9, 266880, Note_on_c, 3, 55, 0
9, 266880, Note_on_c, 3, 53, 62
9, 266928, Note_on_c, 3, 53, 0
9, 266928, Note_on_c, 3, 55, 62
9, 266976, Note_on_c, 3, 55, 0
9, 266976, Note_on_c, 3, 53, 63
9, 267024, Note_on_c, 3, 53, 0
9, 267024, Note_on_c, 3, 51, 59
9, 267072, Note_on_c, 3, 51, 0
9, 267072, Note_on_c, 3, 50, 64
9, 267120, Note_on_c, 3, 50, 0
9, 267120, Note_on_c, 3, 51, 61
9, 267168, Note_on_c, 3, 51, 0
9, 267168, Note_on_c, 3, 50, 68
9, 267216, Note_on_c, 3, 50, 0
9, 267264, Note_on_c, 3, 51, 65
9, 267264, Note_on_c, 3, 39, 59
9, 267360, Note_on_c, 3, 39, 0
9, 267360, Note_on_c, 3, 51, 0
9, 267360, Note_on_c, 3, 39, 59
9, 267360, Note_on_c, 3, 51, 65
9, 267456, Note_on_c, 3, 51, 0
9, 267456, Note_on_c, 3, 39, 0
9, 267456, Note_on_c, 3, 39, 59
9, 267456, Note_on_c, 3, 51, 63
9, 267552, Note_on_c, 3, 51, 0
9, 267552, Note_on_c, 3, 39, 0
9, 267552, Note_on_c, 3, 39, 62
9, 267552, Note_on_c, 3, 51, 65
9, 267648, Note_on_c, 3, 51, 0
9, 267648, Note_on_c, 3, 39, 0
9, 267648, Note_on_c, 3, 51, 66
9, 267648, Note_on_c, 3, 39, 60
9, 268032, Note_on_c, 3, 39, 0
9, 268032, Note_on_c, 3, 51, 0
9, 268032, Note_on_c, 3, 48, 65
9, 268224, Note_on_c, 3, 48, 0
9, 268224, Note_on_c, 3, 48, 66
9, 268416, Note_on_c, 3, 48, 0
9, 268416, Note_on_c, 3, 43, 95
9, 268416, Note_on_c, 3, 55, 71
9, 268704, Note_on_c, 3, 55, 0
9, 268704, Note_on_c, 3, 43, 0
9, 268704, Note_on_c, 3, 43, 58
9, 268704, Note_on_c, 3, 55, 67
9, 268800, Note_on_c, 3, 55, 0
9, 268800, Note_on_c, 3, 43, 0
9, 268800, Note_on_c, 3, 43, 55
9, 268800, Note_on_c, 3, 55, 64
9, 268992, Note_on_c, 3, 55, 0
9, 268992, Note_on_c, 3, 43, 0
9, 268992, Note_on_c, 3, 46, 59
9, 268992, Note_on_c, 3, 58, 65
9, 269280, Note_on_c, 3, 58, 0
9, 269280, Note_on_c, 3, 46, 0
9, 269280, Note_on_c, 3, 46, 57
9, 269280, Note_on_c, 3, 58, 62
9, 269312, Note_on_c, 3, 58, 0
9, 269312, Note_on_c, 3, 46, 0
9, 269312, Note_on_c, 3, 46, 59
9, 269312, Note_on_c, 3, 58, 63
9, 269344, Note_on_c, 3, 58, 0
9, 269344, Note_on_c, 3, 46, 0
9, 269344, Note_on_c, 3, 58, 62
9, 269344, Note_on_c, 3, 46, 59
9, 269376, Note_on_c, 3, 46, 0
9, 269376, Note_on_c, 3, 58, 0
9, 269376, Note_on_c, 3, 46, 7
9, 269376, Note_on_c, 3, 58, 59
9, 269472, Note_on_c, 3, 58, 0
9, 269472, Note_on_c, 3, 46, 0
9, 269472, Note_on_c, 3, 46, 58
9, 269472, Note_on_c, 3, 58, 61
9, 269568, Note_on_c, 3, 58, 0
9, 269568, Note_on_c, 3, 46, 0
9, 269568, Note_on_c, 3, 46, 65
9, 269856, Note_on_c, 3, 46, 0
9, 269856, Note_on_c, 3, 34, 56
9, 269856, Note_on_c, 3, 46, 64
9, 269952, Note_on_c, 3, 46, 0
9, 269952, Note_on_c, 3, 34, 0
9, 269952, Note_on_c, 3, 46, 65
9, 269952, Note_on_c, 3, 34, 56
9, 270048, Note_on_c, 3, 34, 0
9, 270048, Note_on_c, 3, 46, 0
9, 270048, Note_on_c, 3, 46, 66
9, 270144, Note_on_c, 3, 46, 0
9, 270144, Note_on_c, 3, 39, 59
9, 270144, Note_on_c, 3, 51, 61
9, 270240, Note_on_c, 3, 51, 0
9, 270240, Note_on_c, 3, 39, 0
9, 270336, Note_on_c, 3, 46, 68
9, 270336, Note_on_c, 3, 34, 61
9, 270432, Note_on_c, 3, 34, 0
9, 270432, Note_on_c, 3, 46, 0
9, 270528, Note_on_c, 3, 51, 63
9, 270528, Note_on_c, 3, 39, 59
9, 270624, Note_on_c, 3, 39, 0
9, 270624, Note_on_c, 3, 51, 0
9, 270720, Note_on_c, 3, 34, 59
9, 270720, Note_on_c, 3, 46, 66
9, 270816, Note_on_c, 3, 46, 0
9, 270816, Note_on_c, 3, 34, 0
9, 270912, Note_on_c, 3, 39, 59
9, 270912, Note_on_c, 3, 51, 65
9, 271008, Note_on_c, 3, 51, 0
9, 271008, Note_on_c, 3, 39, 0
9, 271104, Note_on_c, 3, 34, 55
9, 271104, Note_on_c, 3, 46, 64
9, 271200, Note_on_c, 3, 46, 0
9, 271200, Note_on_c, 3, 34, 0
9, 271296, Note_on_c, 3, 39, 11
9, 271296, Note_on_c, 3, 51, 64
9, 271392, Note_on_c, 3, 51, 0
9, 271392, Note_on_c, 3, 39, 0
9, 271488, Note_on_c, 3, 46, 66
9, 271488, Note_on_c, 3, 34, 58
9, 271584, Note_on_c, 3, 34, 0
9, 271584, Note_on_c, 3, 46, 0
9, 271680, Note_on_c, 3, 51, 61
9, 271680, Note_on_c, 3, 39, 59
9, 271776, Note_on_c, 3, 39, 0
9, 271776, Note_on_c, 3, 51, 0
9, 271872, Note_on_c, 3, 34, 61
9, 271872, Note_on_c, 3, 46, 68
9, 271968, Note_on_c, 3, 46, 0
9, 271968, Note_on_c, 3, 34, 0
9, 272064, Note_on_c, 3, 39, 59
9, 272064, Note_on_c, 3, 51, 63
9, 272160, Note_on_c, 3, 51, 0
9, 272160, Note_on_c, 3, 39, 0
9, 272256, Note_on_c, 3, 46, 66
9, 272256, Note_on_c, 3, 34, 59
9, 272352, Note_on_c, 3, 34, 0
9, 272352, Note_on_c, 3, 46, 0
9, 272448, Note_on_c, 3, 39, 59
9, 272448, Note_on_c, 3, 51, 65
9, 272544, Note_on_c, 3, 51, 0
9, 272544, Note_on_c, 3, 39, 0
9, 272640, Note_on_c, 3, 46, 64
9, 272640, Note_on_c, 3, 34, 55
9, 272736, Note_on_c, 3, 34, 0
9, 272736, Note_on_c, 3, 46, 0
9, 272832, Note_on_c, 3, 39, 11
9, 272832, Note_on_c, 3, 51, 64
9, 272928, Note_on_c, 3, 51, 0
9, 272928, Note_on_c, 3, 39, 0
9, 273024, Note_on_c, 3, 46, 66
9, 273024, Note_on_c, 3, 34, 58
9, 273120, Note_on_c, 3, 34, 0
9, 273120, Note_on_c, 3, 46, 0
9, 273216, Note_on_c, 3, 39, 59
9, 273216, Note_on_c, 3, 51, 61
9, 273312, Note_on_c, 3, 51, 0
9, 273312, Note_on_c, 3, 39, 0
9, 273408, Note_on_c, 3, 34, 61
9, 273408, Note_on_c, 3, 46, 68
9, 273504, Note_on_c, 3, 46, 0
9, 273504, Note_on_c, 3, 34, 0
9, 273600, Note_on_c, 3, 51, 63
9, 273600, Note_on_c, 3, 39, 59
9, 273696, Note_on_c, 3, 39, 0
9, 273696, Note_on_c, 3, 51, 0
9, 273792, Note_on_c, 3, 34, 59
9, 273792, Note_on_c, 3, 46, 66
9, 273888, Note_on_c, 3, 46, 0
9, 273888, Note_on_c, 3, 34, 0
9, 273984, Note_on_c, 3, 39, 59
9, 273984, Note_on_c, 3, 51, 65
9, 274080, Note_on_c, 3, 51, 0
9, 274080, Note_on_c, 3, 39, 0
9, 274176, Note_on_c, 3, 46, 64
9, 274176, Note_on_c, 3, 34, 55
9, 274272, Note_on_c, 3, 34, 0
9, 274272, Note_on_c, 3, 46, 0
9, 274368, Note_on_c, 3, 51, 64
9, 274368, Note_on_c, 3, 39, 11
9, 274464, Note_on_c, 3, 39, 0
9, 274464, Note_on_c, 3, 51, 0
9, 274560, Note_on_c, 3, 34, 58
9, 274560, Note_on_c, 3, 46, 66
9, 274656, Note_on_c, 3, 46, 0
9, 274656, Note_on_c, 3, 34, 0
9, 274752, Note_on_c, 3, 51, 61
9, 274752, Note_on_c, 3, 39, 59
9, 274848, Note_on_c, 3, 39, 0
9, 274848, Note_on_c, 3, 51, 0
9, 274944, Note_on_c, 3, 34, 61
9, 274944, Note_on_c, 3, 46, 68
9, 275040, Note_on_c, 3, 46, 0
9, 275040, Note_on_c, 3, 34, 0
9, 275136, Note_on_c, 3, 51, 63
9, 275136, Note_on_c, 3, 39, 59
9, 275232, Note_on_c, 3, 39, 0
9, 275232, Note_on_c, 3, 51, 0
9, 275328, Note_on_c, 3, 46, 66
9, 275328, Note_on_c, 3, 34, 59
9, 275424, Note_on_c, 3, 34, 0
9, 275424, Note_on_c, 3, 46, 0
9, 275520, Note_on_c, 3, 51, 65
9, 275520, Note_on_c, 3, 39, 59
9, 275616, Note_on_c, 3, 39, 0
9, 275616, Note_on_c, 3, 51, 0
9, 275712, Note_on_c, 3, 34, 55
9, 275712, Note_on_c, 3, 46, 64
9, 275808, Note_on_c, 3, 46, 0
9, 275808, Note_on_c, 3, 34, 0
9, 275904, Note_on_c, 3, 51, 64
9, 275904, Note_on_c, 3, 39, 11
9, 276000, Note_on_c, 3, 39, 0
9, 276000, Note_on_c, 3, 51, 0
9, 276096, Note_on_c, 3, 34, 58
9, 276096, Note_on_c, 3, 46, 66
9, 276192, Note_on_c, 3, 46, 0
9, 276192, Note_on_c, 3, 34, 0
9, 283968, Note_on_c, 3, 43, 95
9, 283968, Note_on_c, 3, 55, 95
9, 284544, Note_on_c, 3, 55, 0
9, 284544, Note_on_c, 3, 43, 0
9, 284544, Note_on_c, 3, 44, 95
9, 284544, Note_on_c, 3, 56, 95
9, 284736, Note_on_c, 3, 56, 0
9, 284736, Note_on_c, 3, 44, 0
9, 284736, Note_on_c, 3, 45, 56
9, 284736, Note_on_c, 3, 57, 68
9, 284928, Note_on_c, 3, 57, 0
9, 284928, Note_on_c, 3, 45, 0
9, 284928, Note_on_c, 3, 46, 57
9, 284928, Note_on_c, 3, 58, 62
9, 285120, Note_on_c, 3, 58, 0
9, 285120, Note_on_c, 3, 46, 0
9, 285120, Note_on_c, 3, 59, 66
9, 285120, Note_on_c, 3, 47, 54
9, 285312, Note_on_c, 3, 47, 0
9, 285312, Note_on_c, 3, 59, 0
9, 285312, Note_on_c, 3, 48, 54
9, 285312, Note_on_c, 3, 60, 64
9, 285504, Note_on_c, 3, 60, 0
9, 285504, Note_on_c, 3, 48, 0
9, 285504, Note_on_c, 3, 58, 59
9, 285504, Note_on_c, 3, 46, 55
9, 285632, Note_on_c, 3, 46, 0
9, 285632, Note_on_c, 3, 58, 0
9, 285632, Note_on_c, 3, 34, 58
9, 285632, Note_on_c, 3, 46, 65
9, 285760, Note_on_c, 3, 46, 0
9, 285760, Note_on_c, 3, 34, 0
9, 285760, Note_on_c, 3, 34, 58
9, 285760, Note_on_c, 3, 46, 62
9, 285888, Note_on_c, 3, 46, 0
9, 285888, Note_on_c, 3, 34, 0
9, 285888, Note_on_c, 3, 34, 58
9, 285888, Note_on_c, 3, 46, 65
9, 286016, Note_on_c, 3, 46, 0
9, 286016, Note_on_c, 3, 34, 0
9, 286016, Note_on_c, 3, 34, 58
9, 286016, Note_on_c, 3, 46, 67
9, 286144, Note_on_c, 3, 46, 0
9, 286144, Note_on_c, 3, 34, 0
9, 286144, Note_on_c, 3, 34, 58
9, 286144, Note_on_c, 3, 46, 67
9, 286272, Note_on_c, 3, 46, 0
9, 286272, Note_on_c, 3, 34, 0
9, 286272, Note_on_c, 3, 46, 66
9, 286272, Note_on_c, 3, 34, 54
9, 286400, Note_on_c, 3, 34, 0
9, 286400, Note_on_c, 3, 46, 0
9, 286400, Note_on_c, 3, 34, 59
9, 286400, Note_on_c, 3, 46, 64
9, 286528, Note_on_c, 3, 46, 0
9, 286528, Note_on_c, 3, 34, 0
9, 286528, Note_on_c, 3, 34, 59
9, 286528, Note_on_c, 3, 46, 64
9, 286656, Note_on_c, 3, 46, 0
9, 286656, Note_on_c, 3, 34, 0
9, 286656, Note_on_c, 3, 34, 57
9, 286656, Note_on_c, 3, 46, 62
9, 286784, Note_on_c, 3, 46, 0
9, 286784, Note_on_c, 3, 34, 0
9, 286784, Note_on_c, 3, 34, 1
9, 286784, Note_on_c, 3, 46, 65
9, 286912, Note_on_c, 3, 46, 0
9, 286912, Note_on_c, 3, 34, 0
9, 286912, Note_on_c, 3, 34, 56
9, 286912, Note_on_c, 3, 46, 65
9, 287040, Note_on_c, 3, 46, 0
9, 287040, Note_on_c, 3, 34, 0
9, 287040, Note_on_c, 3, 58, 62
9, 287040, Note_on_c, 3, 46, 55
9, 287168, Note_on_c, 3, 46, 0
9, 287168, Note_on_c, 3, 58, 0
9, 287168, Note_on_c, 3, 45, 57
9, 287168, Note_on_c, 3, 57, 68
9, 287296, Note_on_c, 3, 57, 0
9, 287296, Note_on_c, 3, 45, 0
9, 287296, Note_on_c, 3, 44, 7
9, 287296, Note_on_c, 3, 56, 63
9, 287424, Note_on_c, 3, 56, 0
9, 287424, Note_on_c, 3, 44, 0
9, 287424, Note_on_c, 3, 43, 59
9, 287424, Note_on_c, 3, 55, 69
9, 287552, Note_on_c, 3, 55, 0
9, 287552, Note_on_c, 3, 43, 0
9, 287552, Note_on_c, 3, 42, 59
9, 287552, Note_on_c, 3, 54, 63
9, 287680, Note_on_c, 3, 54, 0
9, 287680, Note_on_c, 3, 42, 0
9, 287680, Note_on_c, 3, 53, 67
9, 287680, Note_on_c, 3, 41, 59
9, 287808, Note_on_c, 3, 41, 0
9, 287808, Note_on_c, 3, 53, 0
9, 287808, Note_on_c, 3, 52, 68
9, 287808, Note_on_c, 3, 40, 59
9, 287936, Note_on_c, 3, 40, 0
9, 287936, Note_on_c, 3, 52, 0
9, 287936, Note_on_c, 3, 51, 63
9, 287936, Note_on_c, 3, 39, 60
9, 288064, Note_on_c, 3, 39, 0
9, 288064, Note_on_c, 3, 51, 0
9, 288064, Note_on_c, 3, 38, 52
9, 288064, Note_on_c, 3, 50, 67
9, 288192, Note_on_c, 3, 50, 0
9, 288192, Note_on_c, 3, 38, 0
9, 288192, Note_on_c, 3, 36, 58
9, 288192, Note_on_c, 3, 48, 66
9, 288320, Note_on_c, 3, 48, 0
9, 288320, Note_on_c, 3, 36, 0
9, 288320, Note_on_c, 3, 47, 66
9, 288320, Note_on_c, 3, 35, 56
9, 288448, Note_on_c, 3, 35, 0
9, 288448, Note_on_c, 3, 47, 0
9, 288448, Note_on_c, 3, 34, 59
9, 288448, Note_on_c, 3, 46, 67
9, 288576, Note_on_c, 3, 46, 0
9, 288576, Note_on_c, 3, 34, 0
9, 288576, Note_on_c, 3, 51, 65
9, 288768, Note_on_c, 3, 51, 0
9, 288960, Note_on_c, 3, 34, 61
9, 288960, Note_on_c, 3, 46, 68
9, 289152, Note_on_c, 3, 46, 0
9, 289152, Note_on_c, 3, 34, 0
9, 289152, Note_on_c, 3, 46, 68
9, 289152, Note_on_c, 3, 34, 58
9, 289344, Note_on_c, 3, 34, 0
9, 289344, Note_on_c, 3, 46, 0
9, 289344, Note_on_c, 3, 51, 68
9, 289536, Note_on_c, 3, 51, 0
9, 289728, Note_on_c, 3, 34, 56
9, 289728, Note_on_c, 3, 46, 65
9, 289920, Note_on_c, 3, 46, 0
9, 289920, Note_on_c, 3, 34, 0
9, 289920, Note_on_c, 3, 46, 65
9, 289920, Note_on_c, 3, 34, 56
9, 290112, Note_on_c, 3, 34, 0
9, 290112, Note_on_c, 3, 46, 0
9, 290112, Note_on_c, 3, 51, 62
9, 290112, Note_on_c, 3, 39, 58
9, 290304, Note_on_c, 3, 39, 0
9, 290304, Note_on_c, 3, 51, 0
9, 290304, Note_on_c, 3, 47, 65
9, 290496, Note_on_c, 3, 47, 0
9, 290496, Note_on_c, 3, 51, 62
9, 290496, Note_on_c, 3, 39, 61
9, 290688, Note_on_c, 3, 39, 0
9, 290688, Note_on_c, 3, 51, 0
9, 290688, Note_on_c, 3, 47, 65
9, 290880, Note_on_c, 3, 47, 0
9, 290880, Note_on_c, 3, 39, 60
9, 290880, Note_on_c, 3, 51, 61
9, 291072, Note_on_c, 3, 51, 0
9, 291072, Note_on_c, 3, 39, 0
9, 291072, Note_on_c, 3, 47, 63
9, 291264, Note_on_c, 3, 47, 0
9, 291264, Note_on_c, 3, 39, 59
9, 291456, Note_on_c, 3, 39, 0
9, 291456, Note_on_c, 3, 47, 63
9, 291648, Note_on_c, 3, 47, 0
9, 291648, Note_on_c, 3, 51, 63
9, 291648, Note_on_c, 3, 39, 65
9, 291840, Note_on_c, 3, 39, 0
9, 291840, Note_on_c, 3, 51, 0
9, 291840, Note_on_c, 3, 55, 66
9, 291840, Note_on_c, 3, 43, 57
9, 292032, Note_on_c, 3, 43, 0
9, 292032, Note_on_c, 3, 55, 0
9, 292032, Note_on_c, 3, 48, 66
9, 292032, Note_on_c, 3, 36, 56
9, 292224, Note_on_c, 3, 36, 0
9, 292224, Note_on_c, 3, 48, 0
9, 292224, Note_on_c, 3, 43, 57
9, 292224, Note_on_c, 3, 55, 62
9, 292416, Note_on_c, 3, 55, 0
9, 292416, Note_on_c, 3, 43, 0
9, 292416, Note_on_c, 3, 48, 68
9, 292416, Note_on_c, 3, 36, 58
9, 292608, Note_on_c, 3, 36, 0
9, 292608, Note_on_c, 3, 48, 0
9, 292608, Note_on_c, 3, 43, 59
9, 292608, Note_on_c, 3, 55, 70
9, 292800, Note_on_c, 3, 55, 0
9, 292800, Note_on_c, 3, 43, 0
9, 292800, Note_on_c, 3, 48, 67
9, 292800, Note_on_c, 3, 36, 58
9, 292992, Note_on_c, 3, 36, 0
9, 292992, Note_on_c, 3, 48, 0
9, 292992, Note_on_c, 3, 34, 56
9, 292992, Note_on_c, 3, 46, 68
9, 293184, Note_on_c, 3, 46, 0
9, 293184, Note_on_c, 3, 34, 0
9, 293184, Note_on_c, 3, 39, 60
9, 293280, Note_on_c, 3, 39, 0
9, 293952, Note_on_c, 3, 39, 63
9, 294048, Note_on_c, 3, 39, 0
9, 294720, Note_on_c, 3, 39, 95
9, 294816, Note_on_c, 3, 39, 0
9, 295488, Note_on_c, 3, 39, 60
9, 295584, Note_on_c, 3, 39, 0
9, 296256, Note_on_c, 3, 39, 59
9, 296367, Note_on_c, 3, 39, 0
9, 301632, Note_on_c, 3, 51, 65
9, 301632, Note_on_c, 3, 39, 60
9, 302205, Note_on_c, 3, 39, 0
9, 302205, Note_on_c, 3, 51, 0
9, 302208, Note_on_c, 3, 51, 65
9, 302208, Note_on_c, 3, 39, 95
9, 302397, Note_on_c, 3, 39, 0
9, 302397, Note_on_c, 3, 51, 0
9, 302400, Note_on_c, 3, 51, 69
9, 302400, Note_on_c, 3, 39, 66
9, 303168, Note_on_c, 3, 39, 0
9, 303168, Note_on_c, 3, 51, 0
9, 303168, End_track
10, 0, Start_track
10, 0, MIDI_port, 0
10, 0, Title_t, "Oboes"
10, 0, Program_c, 3, 68
10, 0, Control_c, 3, 7, 86
10, 0, Control_c, 3, 10, 89
10, 576, Control_c, 3, 7, 86
10, 13824, Note_on_c, 3, 68, 56
10, 14592, Note_on_c, 3, 68, 0
10, 15648, Note_on_c, 3, 70, 83
10, 15648, Note_on_c, 3, 67, 78
10, 15744, Note_on_c, 3, 67, 0
10, 15744, Note_on_c, 3, 70, 0
10, 15744, Note_on_c, 3, 67, 78
10, 15744, Note_on_c, 3, 70, 78
10, 15936, Note_on_c, 3, 70, 0
10, 15936, Note_on_c, 3, 67, 0
10, 15936, Note_on_c, 3, 63, 83
10, 15936, Note_on_c, 3, 67, 78
10, 16128, Note_on_c, 3, 67, 0
10, 16128, Note_on_c, 3, 63, 0
10, 16128, Note_on_c, 3, 72, 78
10, 16128, Note_on_c, 3, 68, 78
10, 16416, Note_on_c, 3, 68, 0
10, 16416, Note_on_c, 3, 72, 0
10, 16800, Note_on_c, 3, 70, 83
10, 16800, Note_on_c, 3, 73, 83
10, 16896, Note_on_c, 3, 73, 0
10, 16896, Note_on_c, 3, 70, 0
10, 16896, Note_on_c, 3, 70, 83
10, 16896, Note_on_c, 3, 73, 78
10, 17088, Note_on_c, 3, 73, 0
10, 17088, Note_on_c, 3, 70, 0
10, 17088, Note_on_c, 3, 70, 83
10, 17088, Note_on_c, 3, 67, 83
10, 17280, Note_on_c, 3, 67, 0
10, 17280, Note_on_c, 3, 70, 0
10, 17280, Note_on_c, 3, 75, 83
10, 17280, Note_on_c, 3, 72, 78
10, 17280, Note_on_c, 3, 79, 78
10, 17568, Note_on_c, 3, 79, 0
10, 17568, Note_on_c, 3, 72, 0
10, 17568, Note_on_c, 3, 75, 0
10, 18048, Note_on_c, 3, 80, 78
10, 18048, Note_on_c, 3, 73, 78
10, 18432, Note_on_c, 3, 73, 0
10, 18432, Note_on_c, 3, 80, 0
10, 18432, Note_on_c, 3, 73, 78
10, 18432, Note_on_c, 3, 80, 78
10, 18816, Note_on_c, 3, 80, 0
10, 18816, Note_on_c, 3, 73, 0
10, 18816, Note_on_c, 3, 80, 78
10, 18816, Note_on_c, 3, 73, 78
10, 19008, Note_on_c, 3, 73, 0
10, 19008, Note_on_c, 3, 80, 0
10, 19200, Note_on_c, 3, 86, 78
10, 19200, Note_on_c, 3, 80, 78
10, 19392, Note_on_c, 3, 80, 0
10, 19392, Note_on_c, 3, 86, 0
10, 19392, Note_on_c, 3, 86, 78
10, 19392, Note_on_c, 3, 79, 78
10, 19776, Note_on_c, 3, 79, 0
10, 19776, Note_on_c, 3, 86, 0
10, 19776, Note_on_c, 3, 86, 78
10, 19776, Note_on_c, 3, 79, 78
10, 19968, Note_on_c, 3, 79, 0
10, 19968, Note_on_c, 3, 86, 0
10, 19968, Note_on_c, 3, 86, 78
10, 19968, Note_on_c, 3, 79, 78
10, 20160, Note_on_c, 3, 79, 0
10, 20160, Note_on_c, 3, 86, 0
10, 20160, Note_on_c, 3, 75, 78
10, 20160, Note_on_c, 3, 79, 78
10, 20256, Note_on_c, 3, 79, 0
10, 20256, Note_on_c, 3, 75, 0
10, 20352, Note_on_c, 3, 80, 78
10, 20640, Note_on_c, 3, 80, 0
10, 20640, Note_on_c, 3, 79, 78
10, 20736, Note_on_c, 3, 79, 0
10, 20736, Note_on_c, 3, 72, 78
10, 20832, Note_on_c, 3, 72, 0
10, 20832, Note_on_c, 3, 74, 78
10, 20928, Note_on_c, 3, 74, 0
10, 20928, Note_on_c, 3, 75, 78
10, 21024, Note_on_c, 3, 75, 0
10, 21024, Note_on_c, 3, 74, 78
10, 21072, Note_on_c, 3, 72, 78
10, 21096, Note_on_c, 3, 72, 0
10, 21100, Note_on_c, 3, 74, 78
10, 21120, Note_on_c, 3, 74, 0
10, 21120, Note_on_c, 3, 72, 78
10, 21124, Note_on_c, 3, 74, 0
10, 21216, Note_on_c, 3, 72, 0
10, 21216, Note_on_c, 3, 68, 78
10, 21312, Note_on_c, 3, 68, 0
10, 21312, Note_on_c, 3, 67, 78
10, 21408, Note_on_c, 3, 67, 0
10, 22656, Note_on_c, 3, 80, 78
10, 22944, Note_on_c, 3, 80, 0
10, 22944, Note_on_c, 3, 79, 78
10, 23040, Note_on_c, 3, 79, 0
10, 23040, Note_on_c, 3, 77, 78
10, 23136, Note_on_c, 3, 77, 0
10, 23136, Note_on_c, 3, 79, 78
10, 23232, Note_on_c, 3, 79, 0
10, 23232, Note_on_c, 3, 80, 78
10, 23328, Note_on_c, 3, 80, 0
10, 23328, Note_on_c, 3, 79, 78
10, 23376, Note_on_c, 3, 77, 78
10, 23400, Note_on_c, 3, 77, 0
10, 23400, Note_on_c, 3, 79, 78
10, 23424, Note_on_c, 3, 79, 0
10, 23424, Note_on_c, 3, 79, 0
10, 23424, Note_on_c, 3, 77, 78
10, 23520, Note_on_c, 3, 77, 0
10, 23520, Note_on_c, 3, 75, 78
10, 23616, Note_on_c, 3, 75, 0
10, 23616, Note_on_c, 3, 73, 78
10, 23712, Note_on_c, 3, 73, 0
10, 27168, Note_on_c, 3, 70, 78
10, 27264, Note_on_c, 3, 70, 0
10, 27264, Note_on_c, 3, 69, 78
10, 27360, Note_on_c, 3, 69, 0
10, 27360, Note_on_c, 3, 70, 78
10, 27456, Note_on_c, 3, 70, 0
10, 27456, Note_on_c, 3, 71, 78
10, 27552, Note_on_c, 3, 71, 0
10, 27552, Note_on_c, 3, 73, 78
10, 27648, Note_on_c, 3, 73, 0
10, 27648, Note_on_c, 3, 75, 78
10, 27744, Note_on_c, 3, 75, 0
10, 27744, Note_on_c, 3, 73, 78
10, 27840, Note_on_c, 3, 73, 0
10, 27840, Note_on_c, 3, 71, 78
10, 27936, Note_on_c, 3, 71, 0
10, 27936, Note_on_c, 3, 70, 78
10, 28032, Note_on_c, 3, 70, 0
10, 28032, Note_on_c, 3, 69, 78
10, 28128, Note_on_c, 3, 69, 0
10, 28128, Note_on_c, 3, 70, 78
10, 28224, Note_on_c, 3, 70, 0
10, 28224, Note_on_c, 3, 71, 78
10, 28320, Note_on_c, 3, 71, 0
10, 29472, Note_on_c, 3, 71, 78
10, 29568, Note_on_c, 3, 71, 0
10, 29568, Note_on_c, 3, 70, 78
10, 29664, Note_on_c, 3, 70, 0
10, 29664, Note_on_c, 3, 71, 78
10, 29760, Note_on_c, 3, 71, 0
10, 29760, Note_on_c, 3, 73, 78
10, 29856, Note_on_c, 3, 73, 0
10, 29856, Note_on_c, 3, 75, 78
10, 29952, Note_on_c, 3, 75, 0
10, 29952, Note_on_c, 3, 76, 78
10, 30048, Note_on_c, 3, 76, 0
10, 30048, Note_on_c, 3, 74, 73
10, 30144, Note_on_c, 3, 74, 0
10, 30144, Note_on_c, 3, 73, 78
10, 30240, Note_on_c, 3, 73, 0
10, 30240, Note_on_c, 3, 71, 78
10, 30336, Note_on_c, 3, 71, 0
10, 30336, Note_on_c, 3, 70, 78
10, 30432, Note_on_c, 3, 70, 0
10, 30432, Note_on_c, 3, 71, 78
10, 30528, Note_on_c, 3, 71, 0
10, 30528, Note_on_c, 3, 73, 78
10, 30624, Note_on_c, 3, 73, 0
10, 30912, Note_on_c, 3, 62, 78
10, 31056, Note_on_c, 3, 62, 0
10, 31056, Note_on_c, 3, 61, 78
10, 31104, Note_on_c, 3, 61, 0
10, 31104, Note_on_c, 3, 69, 78
10, 31104, Note_on_c, 3, 61, 78
10, 31296, Note_on_c, 3, 61, 0
10, 31296, Note_on_c, 3, 69, 0
10, 31296, Note_on_c, 3, 60, 78
10, 31296, Note_on_c, 3, 69, 78
10, 31680, Note_on_c, 3, 69, 0
10, 31680, Note_on_c, 3, 60, 0
10, 31680, Note_on_c, 3, 62, 78
10, 31680, Note_on_c, 3, 71, 78
10, 32064, Note_on_c, 3, 71, 0
10, 32064, Note_on_c, 3, 62, 0
10, 32064, Note_on_c, 3, 69, 78
10, 32064, Note_on_c, 3, 72, 78
10, 32256, Note_on_c, 3, 72, 0
10, 32256, Note_on_c, 3, 69, 0
10, 32256, Note_on_c, 3, 70, 78
10, 32256, Note_on_c, 3, 73, 78
10, 32448, Note_on_c, 3, 73, 0
10, 32448, Note_on_c, 3, 70, 0
10, 32448, Note_on_c, 3, 71, 78
10, 32448, Note_on_c, 3, 74, 78
10, 32640, Note_on_c, 3, 74, 0
10, 32640, Note_on_c, 3, 71, 0
10, 32640, Note_on_c, 3, 75, 78
10, 32640, Note_on_c, 3, 72, 78
10, 32832, Note_on_c, 3, 72, 0
10, 32832, Note_on_c, 3, 75, 0
10, 32832, Note_on_c, 3, 73, 78
10, 32832, Note_on_c, 3, 76, 78
10, 32928, Note_on_c, 3, 76, 0
10, 32928, Note_on_c, 3, 73, 0
10, 32928, Note_on_c, 3, 76, 78
10, 32928, Note_on_c, 3, 73, 78
10, 32960, Note_on_c, 3, 73, 0
10, 32960, Note_on_c, 3, 76, 0
10, 32960, Note_on_c, 3, 76, 78
10, 32960, Note_on_c, 3, 73, 78
10, 32992, Note_on_c, 3, 73, 0
10, 32992, Note_on_c, 3, 76, 0
10, 32992, Note_on_c, 3, 73, 78
10, 32992, Note_on_c, 3, 76, 78
10, 33024, Note_on_c, 3, 76, 0
10, 33024, Note_on_c, 3, 73, 0
10, 33024, Note_on_c, 3, 73, 78
10, 33024, Note_on_c, 3, 76, 78
10, 33216, Note_on_c, 3, 76, 0
10, 33216, Note_on_c, 3, 73, 0
10, 33216, Note_on_c, 3, 73, 78
10, 33216, Note_on_c, 3, 76, 78
10, 33312, Note_on_c, 3, 76, 0
10, 33312, Note_on_c, 3, 73, 0
10, 33312, Note_on_c, 3, 76, 78
10, 33312, Note_on_c, 3, 73, 78
10, 33344, Note_on_c, 3, 73, 0
10, 33344, Note_on_c, 3, 76, 0
10, 33344, Note_on_c, 3, 76, 78
10, 33344, Note_on_c, 3, 73, 78
10, 33376, Note_on_c, 3, 73, 0
10, 33376, Note_on_c, 3, 76, 0
10, 33376, Note_on_c, 3, 76, 78
10, 33376, Note_on_c, 3, 73, 78
10, 33408, Note_on_c, 3, 73, 0
10, 33408, Note_on_c, 3, 76, 0
10, 33408, Note_on_c, 3, 73, 78
10, 33408, Note_on_c, 3, 76, 78
10, 33600, Note_on_c, 3, 76, 0
10, 33600, Note_on_c, 3, 73, 0
10, 33648, Note_on_c, 3, 60, 78
10, 33696, Note_on_c, 3, 60, 0
10, 33696, Note_on_c, 3, 61, 78
10, 33744, Note_on_c, 3, 61, 0
10, 33744, Note_on_c, 3, 64, 20
10, 33744, Note_on_c, 3, 60, 78
10, 33792, Note_on_c, 3, 60, 0
10, 33792, Note_on_c, 3, 64, 0
10, 33792, Note_on_c, 3, 61, 78
10, 33792, Note_on_c, 3, 64, 78
10, 33840, Note_on_c, 3, 64, 0
10, 33840, Note_on_c, 3, 61, 0
10, 33840, Note_on_c, 3, 63, 78
10, 33840, Note_on_c, 3, 72, 78
10, 33888, Note_on_c, 3, 72, 0
10, 33888, Note_on_c, 3, 63, 0
10, 33888, Note_on_c, 3, 64, 78
10, 33888, Note_on_c, 3, 73, 78
10, 33936, Note_on_c, 3, 73, 0
10, 33936, Note_on_c, 3, 64, 0
10, 33936, Note_on_c, 3, 68, 78
10, 33936, Note_on_c, 3, 75, 78
10, 33984, Note_on_c, 3, 75, 0
10, 33984, Note_on_c, 3, 68, 0
10, 33984, Note_on_c, 3, 73, 78
10, 33984, Note_on_c, 3, 76, 78
10, 34032, Note_on_c, 3, 76, 0
10, 34032, Note_on_c, 3, 73, 0
10, 34032, Note_on_c, 3, 64, 78
10, 34032, Note_on_c, 3, 73, 78
10, 34080, Note_on_c, 3, 73, 0
10, 34080, Note_on_c, 3, 64, 0
10, 34080, Note_on_c, 3, 80, 78
10, 34080, Note_on_c, 3, 73, 78
10, 34128, Note_on_c, 3, 73, 0
10, 34128, Note_on_c, 3, 80, 0
10, 34128, Note_on_c, 3, 68, 78
10, 34128, Note_on_c, 3, 73, 78
10, 34176, Note_on_c, 3, 73, 0
10, 34176, Note_on_c, 3, 68, 0
10, 34176, Note_on_c, 3, 76, 78
10, 34176, Note_on_c, 3, 85, 78
10, 34272, Note_on_c, 3, 85, 0
10, 34272, Note_on_c, 3, 76, 0
10, 34464, Note_on_c, 3, 68, 78
10, 34560, Note_on_c, 3, 68, 0
10, 34560, Note_on_c, 3, 64, 78
10, 34656, Note_on_c, 3, 64, 0
10, 34656, Note_on_c, 3, 63, 78
10, 34752, Note_on_c, 3, 63, 0
10, 34752, Note_on_c, 3, 61, 78
10, 34848, Note_on_c, 3, 61, 0
10, 34848, Note_on_c, 3, 60, 78
10, 34944, Note_on_c, 3, 60, 0
10, 34944, Note_on_c, 3, 61, 78
10, 35040, Note_on_c, 3, 61, 0
10, 35040, Note_on_c, 3, 64, 78
10, 35136, Note_on_c, 3, 64, 0
10, 35136, Note_on_c, 3, 68, 78
10, 35280, Note_on_c, 3, 68, 0
10, 35280, Note_on_c, 3, 73, 78
10, 35328, Note_on_c, 3, 73, 0
10, 35328, Note_on_c, 3, 76, 78
10, 35424, Note_on_c, 3, 76, 0
10, 35424, Note_on_c, 3, 73, 78
10, 35424, Note_on_c, 3, 71, 78
10, 35520, Note_on_c, 3, 71, 0
10, 35520, Note_on_c, 3, 73, 0
10, 35520, Note_on_c, 3, 71, 78
10, 35520, Note_on_c, 3, 73, 78
10, 35616, Note_on_c, 3, 73, 0
10, 35616, Note_on_c, 3, 71, 0
10, 35616, Note_on_c, 3, 71, 78
10, 35616, Note_on_c, 3, 73, 78
10, 35712, Note_on_c, 3, 73, 0
10, 35712, Note_on_c, 3, 71, 0
10, 35712, Note_on_c, 3, 73, 78
10, 35712, Note_on_c, 3, 69, 78
10, 35760, Note_on_c, 3, 69, 0
10, 35760, Note_on_c, 3, 73, 0
10, 35760, Note_on_c, 3, 69, 78
10, 35760, Note_on_c, 3, 73, 78
10, 35808, Note_on_c, 3, 73, 0
10, 35808, Note_on_c, 3, 69, 0
10, 35808, Note_on_c, 3, 66, 78
10, 35808, Note_on_c, 3, 69, 78
10, 35856, Note_on_c, 3, 69, 0
10, 35856, Note_on_c, 3, 66, 0
10, 35856, Note_on_c, 3, 66, 78
10, 35856, Note_on_c, 3, 69, 78
10, 35904, Note_on_c, 3, 69, 0
10, 35904, Note_on_c, 3, 66, 0
10, 35952, Note_on_c, 3, 65, 78
10, 36000, Note_on_c, 3, 65, 0
10, 36000, Note_on_c, 3, 66, 78
10, 36048, Note_on_c, 3, 66, 0
10, 36048, Note_on_c, 3, 65, 78
10, 36048, Note_on_c, 3, 68, 78
10, 36096, Note_on_c, 3, 68, 0
10, 36096, Note_on_c, 3, 65, 0
10, 36096, Note_on_c, 3, 69, 78
10, 36096, Note_on_c, 3, 66, 78
10, 36144, Note_on_c, 3, 66, 0
10, 36144, Note_on_c, 3, 69, 0
10, 36144, Note_on_c, 3, 68, 78
10, 36144, Note_on_c, 3, 77, 78
10, 36192, Note_on_c, 3, 77, 0
10, 36192, Note_on_c, 3, 68, 0
10, 36192, Note_on_c, 3, 78, 78
10, 36192, Note_on_c, 3, 69, 78
10, 36240, Note_on_c, 3, 69, 0
10, 36240, Note_on_c, 3, 78, 0
10, 36240, Note_on_c, 3, 73, 78
10, 36240, Note_on_c, 3, 80, 78
10, 36288, Note_on_c, 3, 80, 0
10, 36288, Note_on_c, 3, 73, 0
10, 36288, Note_on_c, 3, 78, 78
10, 36288, Note_on_c, 3, 81, 78
10, 36336, Note_on_c, 3, 81, 0
10, 36336, Note_on_c, 3, 78, 0
10, 36336, Note_on_c, 3, 78, 78
10, 36336, Note_on_c, 3, 69, 78
10, 36384, Note_on_c, 3, 69, 0
10, 36384, Note_on_c, 3, 78, 0
10, 36384, Note_on_c, 3, 85, 78
10, 36384, Note_on_c, 3, 78, 78
10, 36432, Note_on_c, 3, 78, 0
10, 36432, Note_on_c, 3, 85, 0
10, 36432, Note_on_c, 3, 78, 78
10, 36432, Note_on_c, 3, 73, 78
10, 36480, Note_on_c, 3, 73, 0
10, 36480, Note_on_c, 3, 78, 0
10, 36480, Note_on_c, 3, 78, 78
10, 36480, Note_on_c, 3, 81, 78
10, 36576, Note_on_c, 3, 81, 0
10, 36576, Note_on_c, 3, 78, 0
10, 37056, Note_on_c, 3, 74, 78
10, 37344, Note_on_c, 3, 74, 0
10, 37344, Note_on_c, 3, 73, 78
10, 37440, Note_on_c, 3, 73, 0
10, 37440, Note_on_c, 3, 68, 78
10, 37536, Note_on_c, 3, 68, 0
10, 37536, Note_on_c, 3, 68, 78
10, 37632, Note_on_c, 3, 68, 0
10, 37632, Note_on_c, 3, 66, 78
10, 37728, Note_on_c, 3, 66, 0
10, 37728, Note_on_c, 3, 76, 78
10, 37728, Note_on_c, 3, 78, 78
10, 37824, Note_on_c, 3, 78, 0
10, 37824, Note_on_c, 3, 76, 0
10, 37824, Note_on_c, 3, 78, 78
10, 37824, Note_on_c, 3, 76, 78
10, 37920, Note_on_c, 3, 76, 0
10, 37920, Note_on_c, 3, 78, 0
10, 37920, Note_on_c, 3, 76, 78
10, 37920, Note_on_c, 3, 78, 78
10, 38016, Note_on_c, 3, 78, 0
10, 38016, Note_on_c, 3, 76, 0
10, 38016, Note_on_c, 3, 74, 78
10, 38016, Note_on_c, 3, 78, 78
10, 38064, Note_on_c, 3, 78, 0
10, 38064, Note_on_c, 3, 74, 0
10, 38064, Note_on_c, 3, 78, 78
10, 38064, Note_on_c, 3, 74, 78
10, 38112, Note_on_c, 3, 74, 0
10, 38112, Note_on_c, 3, 78, 0
10, 38112, Note_on_c, 3, 71, 78
10, 38112, Note_on_c, 3, 74, 78
10, 38160, Note_on_c, 3, 74, 0
10, 38160, Note_on_c, 3, 71, 0
10, 38160, Note_on_c, 3, 71, 78
10, 38160, Note_on_c, 3, 74, 78
10, 38208, Note_on_c, 3, 74, 0
10, 38208, Note_on_c, 3, 71, 0
10, 38208, Note_on_c, 3, 78, 78
10, 38208, Note_on_c, 3, 72, 78
10, 38400, Note_on_c, 3, 72, 0
10, 38400, Note_on_c, 3, 78, 0
10, 38400, Note_on_c, 3, 79, 78
10, 38400, Note_on_c, 3, 71, 78
10, 38592, Note_on_c, 3, 71, 0
10, 38592, Note_on_c, 3, 79, 0
10, 38592, Note_on_c, 3, 74, 78
10, 38592, Note_on_c, 3, 80, 78
10, 38784, Note_on_c, 3, 80, 0
10, 38784, Note_on_c, 3, 74, 0
10, 38784, Note_on_c, 3, 81, 78
10, 38784, Note_on_c, 3, 73, 78
10, 38976, Note_on_c, 3, 73, 0
10, 38976, Note_on_c, 3, 81, 0
10, 38976, Note_on_c, 3, 76, 78
10, 38976, Note_on_c, 3, 82, 78
10, 39168, Note_on_c, 3, 82, 0
10, 39168, Note_on_c, 3, 76, 0
10, 39168, Note_on_c, 3, 81, 78
10, 39168, Note_on_c, 3, 74, 78
10, 39360, Note_on_c, 3, 74, 0
10, 39360, Note_on_c, 3, 81, 0
10, 39360, Note_on_c, 3, 78, 78
10, 39360, Note_on_c, 3, 84, 78
10, 39456, Note_on_c, 3, 84, 0
10, 39456, Note_on_c, 3, 78, 0
10, 39744, Note_on_c, 3, 66, 10
10, 39744, Note_on_c, 3, 63, 78
10, 39840, Note_on_c, 3, 63, 0
10, 39840, Note_on_c, 3, 66, 0
10, 39840, Note_on_c, 3, 66, 78
10, 39840, Note_on_c, 3, 63, 78
10, 39936, Note_on_c, 3, 63, 0
10, 39936, Note_on_c, 3, 66, 0
10, 39936, Note_on_c, 3, 69, 78
10, 39936, Note_on_c, 3, 72, 78
10, 40032, Note_on_c, 3, 72, 0
10, 40032, Note_on_c, 3, 69, 0
10, 40032, Note_on_c, 3, 69, 78
10, 40032, Note_on_c, 3, 72, 78
10, 40128, Note_on_c, 3, 72, 0
10, 40128, Note_on_c, 3, 69, 0
10, 40128, Note_on_c, 3, 75, 78
10, 40128, Note_on_c, 3, 78, 78
10, 40224, Note_on_c, 3, 78, 0
10, 40224, Note_on_c, 3, 75, 0
10, 40224, Note_on_c, 3, 75, 78
10, 40224, Note_on_c, 3, 78, 78
10, 40320, Note_on_c, 3, 78, 0
10, 40320, Note_on_c, 3, 75, 0
10, 40320, Note_on_c, 3, 78, 78
10, 40320, Note_on_c, 3, 75, 78
10, 40512, Note_on_c, 3, 75, 0
10, 40512, Note_on_c, 3, 78, 0
10, 40512, Note_on_c, 3, 75, 78
10, 40512, Note_on_c, 3, 78, 78
10, 40704, Note_on_c, 3, 78, 0
10, 40704, Note_on_c, 3, 75, 0
10, 44592, Note_on_c, 3, 70, 78
10, 44612, Note_on_c, 3, 70, 0
10, 44616, Note_on_c, 3, 70, 78
10, 44636, Note_on_c, 3, 70, 0
10, 44640, Note_on_c, 3, 67, 78
10, 44640, Note_on_c, 3, 75, 78
10, 44676, Note_on_c, 3, 75, 0
10, 44676, Note_on_c, 3, 67, 0
10, 44688, Note_on_c, 3, 70, 78
10, 44688, Note_on_c, 3, 77, 78
10, 44724, Note_on_c, 3, 77, 0
10, 44724, Note_on_c, 3, 70, 0
10, 44736, Note_on_c, 3, 75, 78
10, 44736, Note_on_c, 3, 79, 78
10, 44772, Note_on_c, 3, 79, 0
10, 44772, Note_on_c, 3, 75, 0
10, 44784, Note_on_c, 3, 70, 78
10, 44784, Note_on_c, 3, 77, 78
10, 44820, Note_on_c, 3, 77, 0
10, 44820, Note_on_c, 3, 70, 0
10, 44832, Note_on_c, 3, 67, 78
10, 44832, Note_on_c, 3, 75, 78
10, 44868, Note_on_c, 3, 75, 0
10, 44868, Note_on_c, 3, 67, 0
10, 44880, Note_on_c, 3, 77, 78
10, 44880, Note_on_c, 3, 70, 78
10, 44916, Note_on_c, 3, 70, 0
10, 44916, Note_on_c, 3, 77, 0
10, 44928, Note_on_c, 3, 75, 78
10, 44928, Note_on_c, 3, 79, 78
10, 44964, Note_on_c, 3, 79, 0
10, 44964, Note_on_c, 3, 75, 0
10, 45024, Note_on_c, 3, 75, 78
10, 45024, Note_on_c, 3, 67, 78
10, 45060, Note_on_c, 3, 67, 0
10, 45060, Note_on_c, 3, 75, 0
10, 45120, Note_on_c, 3, 75, 78
10, 45120, Note_on_c, 3, 67, 78
10, 45312, Note_on_c, 3, 67, 0
10, 45312, Note_on_c, 3, 75, 0
10, 45360, Note_on_c, 3, 70, 78
10, 45380, Note_on_c, 3, 70, 0
10, 45384, Note_on_c, 3, 70, 78
10, 45404, Note_on_c, 3, 70, 0
10, 45408, Note_on_c, 3, 67, 78
10, 45408, Note_on_c, 3, 75, 78
10, 45444, Note_on_c, 3, 75, 0
10, 45444, Note_on_c, 3, 67, 0
10, 45456, Note_on_c, 3, 70, 78
10, 45456, Note_on_c, 3, 77, 78
10, 45492, Note_on_c, 3, 77, 0
10, 45492, Note_on_c, 3, 70, 0
10, 45504, Note_on_c, 3, 79, 78
10, 45504, Note_on_c, 3, 75, 78
10, 45540, Note_on_c, 3, 75, 0
10, 45540, Note_on_c, 3, 79, 0
10, 45552, Note_on_c, 3, 70, 78
10, 45552, Note_on_c, 3, 77, 78
10, 45588, Note_on_c, 3, 77, 0
10, 45588, Note_on_c, 3, 70, 0
10, 45600, Note_on_c, 3, 75, 78
10, 45600, Note_on_c, 3, 67, 78
10, 45636, Note_on_c, 3, 67, 0
10, 45636, Note_on_c, 3, 75, 0
10, 45648, Note_on_c, 3, 77, 78
10, 45648, Note_on_c, 3, 70, 78
10, 45684, Note_on_c, 3, 70, 0
10, 45684, Note_on_c, 3, 77, 0
10, 45696, Note_on_c, 3, 79, 78
10, 45696, Note_on_c, 3, 75, 78
10, 45732, Note_on_c, 3, 75, 0
10, 45732, Note_on_c, 3, 79, 0
10, 45792, Note_on_c, 3, 75, 78
10, 45792, Note_on_c, 3, 67, 78
10, 45828, Note_on_c, 3, 67, 0
10, 45828, Note_on_c, 3, 75, 0
10, 45888, Note_on_c, 3, 67, 78
10, 45888, Note_on_c, 3, 75, 78
10, 46080, Note_on_c, 3, 75, 0
10, 46080, Note_on_c, 3, 67, 0
10, 46128, Note_on_c, 3, 72, 78
10, 46148, Note_on_c, 3, 72, 0
10, 46152, Note_on_c, 3, 72, 78
10, 46172, Note_on_c, 3, 72, 0
10, 46176, Note_on_c, 3, 68, 78
10, 46176, Note_on_c, 3, 77, 78
10, 46212, Note_on_c, 3, 77, 0
10, 46212, Note_on_c, 3, 68, 0
10, 46224, Note_on_c, 3, 80, 78
10, 46224, Note_on_c, 3, 72, 78
10, 46260, Note_on_c, 3, 72, 0
10, 46260, Note_on_c, 3, 80, 0
10, 46272, Note_on_c, 3, 77, 78
10, 46272, Note_on_c, 3, 68, 78
10, 46308, Note_on_c, 3, 68, 0
10, 46308, Note_on_c, 3, 77, 0
10, 46320, Note_on_c, 3, 67, 78
10, 46320, Note_on_c, 3, 72, 78
10, 46356, Note_on_c, 3, 72, 0
10, 46356, Note_on_c, 3, 67, 0
10, 46368, Note_on_c, 3, 68, 78
10, 46368, Note_on_c, 3, 65, 78
10, 46404, Note_on_c, 3, 65, 0
10, 46404, Note_on_c, 3, 68, 0
10, 46416, Note_on_c, 3, 67, 78
10, 46416, Note_on_c, 3, 72, 78
10, 46452, Note_on_c, 3, 72, 0
10, 46452, Note_on_c, 3, 67, 0
10, 46464, Note_on_c, 3, 77, 78
10, 46464, Note_on_c, 3, 68, 78
10, 46500, Note_on_c, 3, 68, 0
10, 46500, Note_on_c, 3, 77, 0
10, 46512, Note_on_c, 3, 67, 78
10, 46512, Note_on_c, 3, 72, 78
10, 46548, Note_on_c, 3, 72, 0
10, 46548, Note_on_c, 3, 67, 0
10, 46560, Note_on_c, 3, 65, 78
10, 46560, Note_on_c, 3, 68, 78
10, 46596, Note_on_c, 3, 68, 0
10, 46596, Note_on_c, 3, 65, 0
10, 46608, Note_on_c, 3, 72, 78
10, 46608, Note_on_c, 3, 67, 78
10, 46644, Note_on_c, 3, 67, 0
10, 46644, Note_on_c, 3, 72, 0
10, 46656, Note_on_c, 3, 68, 78
10, 46656, Note_on_c, 3, 77, 78
10, 46848, Note_on_c, 3, 77, 0
10, 46848, Note_on_c, 3, 68, 0
10, 46896, Note_on_c, 3, 70, 78
10, 46916, Note_on_c, 3, 70, 0
10, 46920, Note_on_c, 3, 70, 78
10, 46940, Note_on_c, 3, 70, 0
10, 46944, Note_on_c, 3, 67, 78
10, 46944, Note_on_c, 3, 75, 78
10, 46980, Note_on_c, 3, 75, 0
10, 46980, Note_on_c, 3, 67, 0
10, 46992, Note_on_c, 3, 77, 78
10, 46992, Note_on_c, 3, 70, 78
10, 47028, Note_on_c, 3, 70, 0
10, 47028, Note_on_c, 3, 77, 0
10, 47040, Note_on_c, 3, 67, 78
10, 47040, Note_on_c, 3, 75, 78
10, 47076, Note_on_c, 3, 75, 0
10, 47076, Note_on_c, 3, 67, 0
10, 47088, Note_on_c, 3, 70, 78
10, 47088, Note_on_c, 3, 65, 78
10, 47124, Note_on_c, 3, 65, 0
10, 47124, Note_on_c, 3, 70, 0
10, 47136, Note_on_c, 3, 67, 78
10, 47136, Note_on_c, 3, 63, 78
10, 47172, Note_on_c, 3, 63, 0
10, 47172, Note_on_c, 3, 67, 0
10, 47184, Note_on_c, 3, 65, 78
10, 47184, Note_on_c, 3, 70, 78
10, 47220, Note_on_c, 3, 70, 0
10, 47220, Note_on_c, 3, 65, 0
10, 47232, Note_on_c, 3, 75, 78
10, 47232, Note_on_c, 3, 67, 78
10, 47268, Note_on_c, 3, 67, 0
10, 47268, Note_on_c, 3, 75, 0
10, 47280, Note_on_c, 3, 70, 78
10, 47280, Note_on_c, 3, 65, 78
10, 47316, Note_on_c, 3, 65, 0
10, 47316, Note_on_c, 3, 70, 0
10, 47328, Note_on_c, 3, 67, 78
10, 47328, Note_on_c, 3, 63, 78
10, 47364, Note_on_c, 3, 63, 0
10, 47364, Note_on_c, 3, 67, 0
10, 47376, Note_on_c, 3, 65, 78
10, 47376, Note_on_c, 3, 70, 78
10, 47412, Note_on_c, 3, 70, 0
10, 47412, Note_on_c, 3, 65, 0
10, 47424, Note_on_c, 3, 75, 78
10, 47424, Note_on_c, 3, 67, 78
10, 47616, Note_on_c, 3, 67, 0
10, 47616, Note_on_c, 3, 75, 0
10, 67296, Note_on_c, 3, 63, 78
10, 67392, Note_on_c, 3, 63, 0
10, 67392, Note_on_c, 3, 63, 78
10, 67488, Note_on_c, 3, 63, 0
10, 67680, Note_on_c, 3, 63, 78
10, 67776, Note_on_c, 3, 63, 0
10, 67776, Note_on_c, 3, 63, 78
10, 67872, Note_on_c, 3, 63, 0
10, 68064, Note_on_c, 3, 68, 78
10, 68160, Note_on_c, 3, 68, 0
10, 68160, Note_on_c, 3, 66, 78
10, 68256, Note_on_c, 3, 66, 0
10, 68256, Note_on_c, 3, 71, 78
10, 68256, Note_on_c, 3, 66, 78
10, 68352, Note_on_c, 3, 66, 0
10, 68352, Note_on_c, 3, 71, 0
10, 68448, Note_on_c, 3, 74, 78
10, 68448, Note_on_c, 3, 71, 78
10, 68544, Note_on_c, 3, 71, 0
10, 68544, Note_on_c, 3, 74, 0
10, 68640, Note_on_c, 3, 65, 78
10, 68640, Note_on_c, 3, 68, 78
10, 68736, Note_on_c, 3, 68, 0
10, 68736, Note_on_c, 3, 65, 0
10, 68832, Note_on_c, 3, 59, 78
10, 68832, Note_on_c, 3, 62, 78
10, 68928, Note_on_c, 3, 62, 0
10, 68928, Note_on_c, 3, 59, 0
10, 69024, Note_on_c, 3, 71, 78
10, 69024, Note_on_c, 3, 66, 78
10, 69120, Note_on_c, 3, 66, 0
10, 69120, Note_on_c, 3, 71, 0
10, 69216, Note_on_c, 3, 71, 78
10, 69216, Note_on_c, 3, 74, 78
10, 69312, Note_on_c, 3, 74, 0
10, 69312, Note_on_c, 3, 71, 0
10, 69408, Note_on_c, 3, 68, 78
10, 69408, Note_on_c, 3, 65, 78
10, 69504, Note_on_c, 3, 65, 0
10, 69504, Note_on_c, 3, 68, 0
10, 69600, Note_on_c, 3, 59, 78
10, 69600, Note_on_c, 3, 62, 78
10, 69696, Note_on_c, 3, 62, 0
10, 69696, Note_on_c, 3, 59, 0
10, 69792, Note_on_c, 3, 70, 78
10, 69792, Note_on_c, 3, 75, 78
10, 69888, Note_on_c, 3, 75, 0
10, 69888, Note_on_c, 3, 70, 0
10, 69888, Note_on_c, 3, 70, 78
10, 69888, Note_on_c, 3, 74, 78
10, 69984, Note_on_c, 3, 74, 0
10, 69984, Note_on_c, 3, 70, 0
10, 69984, Note_on_c, 3, 75, 78
10, 69984, Note_on_c, 3, 70, 78
10, 70080, Note_on_c, 3, 70, 0
10, 70080, Note_on_c, 3, 75, 0
10, 70176, Note_on_c, 3, 71, 78
10, 70176, Note_on_c, 3, 76, 78
10, 70272, Note_on_c, 3, 76, 0
10, 70272, Note_on_c, 3, 71, 0
10, 70272, Note_on_c, 3, 75, 78
10, 70272, Note_on_c, 3, 71, 78
10, 70368, Note_on_c, 3, 71, 0
10, 70368, Note_on_c, 3, 75, 0
10, 70368, Note_on_c, 3, 76, 78
10, 70368, Note_on_c, 3, 71, 78
10, 70464, Note_on_c, 3, 71, 0
10, 70464, Note_on_c, 3, 76, 0
10, 70560, Note_on_c, 3, 77, 78
10, 70560, Note_on_c, 3, 72, 78
10, 70656, Note_on_c, 3, 72, 0
10, 70656, Note_on_c, 3, 77, 0
10, 70656, Note_on_c, 3, 72, 78
10, 70656, Note_on_c, 3, 76, 78
10, 70752, Note_on_c, 3, 76, 0
10, 70752, Note_on_c, 3, 72, 0
10, 70752, Note_on_c, 3, 77, 78
10, 70752, Note_on_c, 3, 71, 78
10, 70848, Note_on_c, 3, 71, 0
10, 70848, Note_on_c, 3, 77, 0
10, 70944, Note_on_c, 3, 78, 78
10, 70944, Note_on_c, 3, 73, 78
10, 71040, Note_on_c, 3, 73, 0
10, 71040, Note_on_c, 3, 78, 0
10, 71040, Note_on_c, 3, 77, 78
10, 71040, Note_on_c, 3, 73, 78
10, 71136, Note_on_c, 3, 73, 0
10, 71136, Note_on_c, 3, 77, 0
10, 71136, Note_on_c, 3, 78, 78
10, 71136, Note_on_c, 3, 73, 78
10, 71232, Note_on_c, 3, 73, 0
10, 71232, Note_on_c, 3, 78, 0
10, 71328, Note_on_c, 3, 79, 78
10, 71328, Note_on_c, 3, 74, 78
10, 71424, Note_on_c, 3, 74, 0
10, 71424, Note_on_c, 3, 79, 0
10, 71424, Note_on_c, 3, 78, 78
10, 71424, Note_on_c, 3, 74, 78
10, 71520, Note_on_c, 3, 74, 0
10, 71520, Note_on_c, 3, 78, 0
10, 71520, Note_on_c, 3, 79, 78
10, 71520, Note_on_c, 3, 74, 78
10, 71616, Note_on_c, 3, 74, 0
10, 71616, Note_on_c, 3, 79, 0
10, 71712, Note_on_c, 3, 75, 78
10, 71712, Note_on_c, 3, 80, 78
10, 71904, Note_on_c, 3, 80, 0
10, 71904, Note_on_c, 3, 75, 0
10, 71904, Note_on_c, 3, 75, 78
10, 71904, Note_on_c, 3, 81, 78
10, 72096, Note_on_c, 3, 81, 0
10, 72096, Note_on_c, 3, 75, 0
10, 72096, Note_on_c, 3, 82, 78
10, 72096, Note_on_c, 3, 77, 78
10, 72192, Note_on_c, 3, 77, 0
10, 72192, Note_on_c, 3, 82, 0
10, 72192, Note_on_c, 3, 77, 78
10, 72192, Note_on_c, 3, 81, 78
10, 72288, Note_on_c, 3, 81, 0
10, 72288, Note_on_c, 3, 77, 0
10, 72288, Note_on_c, 3, 77, 78
10, 72288, Note_on_c, 3, 82, 78
10, 72384, Note_on_c, 3, 82, 0
10, 72384, Note_on_c, 3, 77, 0
10, 72480, Note_on_c, 3, 78, 78
10, 72480, Note_on_c, 3, 71, 78
10, 72672, Note_on_c, 3, 71, 0
10, 72672, Note_on_c, 3, 78, 0
10, 72672, Note_on_c, 3, 78, 78
10, 72672, Note_on_c, 3, 72, 78
10, 72864, Note_on_c, 3, 72, 0
10, 72864, Note_on_c, 3, 78, 0
10, 72864, Note_on_c, 3, 79, 78
10, 72864, Note_on_c, 3, 73, 78
10, 72960, Note_on_c, 3, 73, 0
10, 72960, Note_on_c, 3, 79, 0
10, 72960, Note_on_c, 3, 80, 78
10, 72960, Note_on_c, 3, 72, 78
10, 73056, Note_on_c, 3, 72, 0
10, 73056, Note_on_c, 3, 80, 0
10, 73056, Note_on_c, 3, 79, 78
10, 73056, Note_on_c, 3, 73, 78
10, 73152, Note_on_c, 3, 73, 0
10, 73152, Note_on_c, 3, 79, 0
10, 73248, Note_on_c, 3, 80, 78
10, 73248, Note_on_c, 3, 74, 78
10, 73344, Note_on_c, 3, 74, 0
10, 73344, Note_on_c, 3, 80, 0
10, 73344, Note_on_c, 3, 81, 78
10, 73344, Note_on_c, 3, 73, 78
10, 73440, Note_on_c, 3, 73, 0
10, 73440, Note_on_c, 3, 81, 0
10, 73440, Note_on_c, 3, 74, 78
10, 73440, Note_on_c, 3, 80, 78
10, 73536, Note_on_c, 3, 80, 0
10, 73536, Note_on_c, 3, 74, 0
10, 73632, Note_on_c, 3, 81, 78
10, 73632, Note_on_c, 3, 75, 78
10, 73728, Note_on_c, 3, 75, 0
10, 73728, Note_on_c, 3, 81, 0
10, 73728, Note_on_c, 3, 74, 78
10, 73728, Note_on_c, 3, 82, 78
10, 73824, Note_on_c, 3, 82, 0
10, 73824, Note_on_c, 3, 74, 0
10, 73824, Note_on_c, 3, 81, 78
10, 73824, Note_on_c, 3, 75, 78
10, 73920, Note_on_c, 3, 75, 0
10, 73920, Note_on_c, 3, 81, 0
10, 74016, Note_on_c, 3, 82, 78
10, 74016, Note_on_c, 3, 76, 78
10, 74112, Note_on_c, 3, 76, 0
10, 74112, Note_on_c, 3, 82, 0
10, 74112, Note_on_c, 3, 83, 78
10, 74112, Note_on_c, 3, 75, 78
10, 74208, Note_on_c, 3, 75, 0
10, 74208, Note_on_c, 3, 83, 0
10, 74208, Note_on_c, 3, 76, 78
10, 74208, Note_on_c, 3, 83, 78
10, 74400, Note_on_c, 3, 83, 0
10, 74400, Note_on_c, 3, 76, 0
10, 74400, Note_on_c, 3, 87, 78
10, 74400, Note_on_c, 3, 83, 78
10, 74496, Note_on_c, 3, 83, 0
10, 74496, Note_on_c, 3, 87, 0
10, 74496, Note_on_c, 3, 87, 78
10, 74496, Note_on_c, 3, 82, 78
10, 74592, Note_on_c, 3, 82, 0
10, 74592, Note_on_c, 3, 87, 0
10, 74688, Note_on_c, 3, 78, 78
10, 74688, Note_on_c, 3, 82, 78
10, 74880, Note_on_c, 3, 82, 0
10, 74880, Note_on_c, 3, 78, 0
10, 75072, Note_on_c, 3, 66, 78
10, 75072, Note_on_c, 3, 63, 78
10, 75168, Note_on_c, 3, 63, 0
10, 75168, Note_on_c, 3, 66, 0
10, 75264, Note_on_c, 3, 63, 78
10, 75264, Note_on_c, 3, 66, 78
10, 75360, Note_on_c, 3, 66, 0
10, 75360, Note_on_c, 3, 63, 0
10, 75456, Note_on_c, 3, 63, 78
10, 75456, Note_on_c, 3, 66, 78
10, 75552, Note_on_c, 3, 66, 0
10, 75552, Note_on_c, 3, 63, 0
10, 75648, Note_on_c, 3, 62, 78
10, 76032, Note_on_c, 3, 62, 0
10, 76032, Note_on_c, 3, 63, 78
10, 76128, Note_on_c, 3, 63, 0
10, 77616, Note_on_c, 3, 70, 78
10, 77664, Note_on_c, 3, 71, 78
10, 77693, Note_on_c, 3, 70, 0
10, 77712, Note_on_c, 3, 73, 78
10, 77741, Note_on_c, 3, 71, 0
10, 77760, Note_on_c, 3, 75, 78
10, 77789, Note_on_c, 3, 73, 0
10, 77808, Note_on_c, 3, 77, 78
10, 77837, Note_on_c, 3, 75, 0
10, 77856, Note_on_c, 3, 78, 78
10, 77885, Note_on_c, 3, 77, 0
10, 77904, Note_on_c, 3, 80, 78
10, 77933, Note_on_c, 3, 78, 0
10, 77952, Note_on_c, 3, 82, 78
10, 77981, Note_on_c, 3, 80, 0
10, 78106, Note_on_c, 3, 82, 0
10, 79152, Note_on_c, 3, 74, 78
10, 79200, Note_on_c, 3, 75, 78
10, 79229, Note_on_c, 3, 74, 0
10, 79248, Note_on_c, 3, 77, 78
10, 79277, Note_on_c, 3, 75, 0
10, 79296, Note_on_c, 3, 79, 78
10, 79325, Note_on_c, 3, 77, 0
10, 79344, Note_on_c, 3, 81, 78
10, 79373, Note_on_c, 3, 79, 0
10, 79392, Note_on_c, 3, 82, 78
10, 79421, Note_on_c, 3, 81, 0
10, 79440, Note_on_c, 3, 84, 78
10, 79469, Note_on_c, 3, 82, 0
10, 79488, Note_on_c, 3, 86, 78
10, 79517, Note_on_c, 3, 84, 0
10, 79642, Note_on_c, 3, 86, 0
10, 79920, Note_on_c, 3, 70, 78
10, 79968, Note_on_c, 3, 72, 78
10, 79997, Note_on_c, 3, 70, 0
10, 80016, Note_on_c, 3, 73, 78
10, 80045, Note_on_c, 3, 72, 0
10, 80064, Note_on_c, 3, 74, 78
10, 80093, Note_on_c, 3, 73, 0
10, 80112, Note_on_c, 3, 75, 78
10, 80141, Note_on_c, 3, 74, 0
10, 80160, Note_on_c, 3, 77, 78
10, 80189, Note_on_c, 3, 75, 0
10, 80208, Note_on_c, 3, 79, 78
10, 80237, Note_on_c, 3, 77, 0
10, 80256, Note_on_c, 3, 81, 78
10, 80285, Note_on_c, 3, 79, 0
10, 80410, Note_on_c, 3, 81, 0
10, 80688, Note_on_c, 3, 65, 78
10, 80736, Note_on_c, 3, 66, 78
10, 80765, Note_on_c, 3, 65, 0
10, 80784, Note_on_c, 3, 67, 78
10, 80813, Note_on_c, 3, 66, 0
10, 80832, Note_on_c, 3, 68, 78
10, 80861, Note_on_c, 3, 67, 0
10, 80880, Note_on_c, 3, 69, 78
10, 80909, Note_on_c, 3, 68, 0
10, 80928, Note_on_c, 3, 70, 78
10, 80957, Note_on_c, 3, 69, 0
10, 80976, Note_on_c, 3, 72, 78
10, 81005, Note_on_c, 3, 70, 0
10, 81024, Note_on_c, 3, 74, 78
10, 81053, Note_on_c, 3, 72, 0
10, 81178, Note_on_c, 3, 74, 0
10, 81456, Note_on_c, 3, 67, 78
10, 81504, Note_on_c, 3, 69, 78
10, 81533, Note_on_c, 3, 67, 0
10, 81552, Note_on_c, 3, 70, 78
10, 81581, Note_on_c, 3, 69, 0
10, 81600, Note_on_c, 3, 71, 78
10, 81629, Note_on_c, 3, 70, 0
10, 81648, Note_on_c, 3, 72, 78
10, 81677, Note_on_c, 3, 71, 0
10, 81696, Note_on_c, 3, 74, 78
10, 81725, Note_on_c, 3, 72, 0
10, 81744, Note_on_c, 3, 75, 78
10, 81773, Note_on_c, 3, 74, 0
10, 81792, Note_on_c, 3, 77, 78
10, 81821, Note_on_c, 3, 75, 0
10, 81946, Note_on_c, 3, 77, 0
10, 82224, Note_on_c, 3, 72, 78
10, 82224, Note_on_c, 3, 63, 78
10, 82272, Note_on_c, 3, 74, 78
10, 82272, Note_on_c, 3, 65, 78
10, 82301, Note_on_c, 3, 63, 0
10, 82301, Note_on_c, 3, 72, 0
10, 82320, Note_on_c, 3, 75, 78
10, 82320, Note_on_c, 3, 67, 78
10, 82349, Note_on_c, 3, 74, 0
10, 82349, Note_on_c, 3, 65, 0
10, 82368, Note_on_c, 3, 69, 78
10, 82368, Note_on_c, 3, 77, 78
10, 82397, Note_on_c, 3, 75, 0
10, 82397, Note_on_c, 3, 67, 0
10, 82416, Note_on_c, 3, 78, 78
10, 82416, Note_on_c, 3, 70, 78
10, 82445, Note_on_c, 3, 69, 0
10, 82445, Note_on_c, 3, 77, 0
10, 82464, Note_on_c, 3, 71, 78
10, 82464, Note_on_c, 3, 79, 78
10, 82493, Note_on_c, 3, 78, 0
10, 82493, Note_on_c, 3, 70, 0
10, 82512, Note_on_c, 3, 81, 78
10, 82512, Note_on_c, 3, 72, 78
10, 82541, Note_on_c, 3, 71, 0
10, 82541, Note_on_c, 3, 79, 0
10, 82560, Note_on_c, 3, 73, 78
10, 82560, Note_on_c, 3, 82, 78
10, 82589, Note_on_c, 3, 81, 0
10, 82589, Note_on_c, 3, 72, 0
10, 82637, Note_on_c, 3, 73, 0
10, 82714, Note_on_c, 3, 82, 0
10, 83760, Note_on_c, 3, 65, 78
10, 83808, Note_on_c, 3, 67, 78
10, 83837, Note_on_c, 3, 65, 0
10, 83856, Note_on_c, 3, 69, 78
10, 83885, Note_on_c, 3, 67, 0
10, 83904, Note_on_c, 3, 70, 78
10, 83933, Note_on_c, 3, 69, 0
10, 83952, Note_on_c, 3, 73, 78
10, 83981, Note_on_c, 3, 70, 0
10, 84000, Note_on_c, 3, 74, 78
10, 84029, Note_on_c, 3, 73, 0
10, 84048, Note_on_c, 3, 76, 78
10, 84077, Note_on_c, 3, 74, 0
10, 84096, Note_on_c, 3, 77, 78
10, 84125, Note_on_c, 3, 76, 0
10, 84250, Note_on_c, 3, 77, 0
10, 85296, Note_on_c, 3, 69, 78
10, 85344, Note_on_c, 3, 70, 78
10, 85373, Note_on_c, 3, 69, 0
10, 85392, Note_on_c, 3, 72, 78
10, 85421, Note_on_c, 3, 70, 0
10, 85440, Note_on_c, 3, 74, 78
10, 85469, Note_on_c, 3, 72, 0
10, 85488, Note_on_c, 3, 76, 78
10, 85517, Note_on_c, 3, 74, 0
10, 85536, Note_on_c, 3, 77, 78
10, 85565, Note_on_c, 3, 76, 0
10, 85584, Note_on_c, 3, 79, 78
10, 85613, Note_on_c, 3, 77, 0
10, 85632, Note_on_c, 3, 81, 78
10, 85661, Note_on_c, 3, 79, 0
10, 85786, Note_on_c, 3, 81, 0
10, 86064, Note_on_c, 3, 65, 78
10, 86112, Note_on_c, 3, 67, 78
10, 86141, Note_on_c, 3, 65, 0
10, 86160, Note_on_c, 3, 68, 78
10, 86189, Note_on_c, 3, 67, 0
10, 86208, Note_on_c, 3, 69, 78
10, 86237, Note_on_c, 3, 68, 0
10, 86256, Note_on_c, 3, 70, 78
10, 86285, Note_on_c, 3, 69, 0
10, 86304, Note_on_c, 3, 72, 78
10, 86333, Note_on_c, 3, 70, 0
10, 86352, Note_on_c, 3, 74, 78
10, 86381, Note_on_c, 3, 72, 0
10, 86400, Note_on_c, 3, 76, 78
10, 86429, Note_on_c, 3, 74, 0
10, 86554, Note_on_c, 3, 76, 0
10, 86832, Note_on_c, 3, 65, 78
10, 86880, Note_on_c, 3, 67, 78
10, 86909, Note_on_c, 3, 65, 0
10, 86928, Note_on_c, 3, 68, 78
10, 86957, Note_on_c, 3, 67, 0
10, 86976, Note_on_c, 3, 69, 78
10, 87005, Note_on_c, 3, 68, 0
10, 87024, Note_on_c, 3, 70, 78
10, 87053, Note_on_c, 3, 69, 0
10, 87072, Note_on_c, 3, 72, 68
10, 87101, Note_on_c, 3, 70, 0
10, 87120, Note_on_c, 3, 74, 78
10, 87149, Note_on_c, 3, 72, 0
10, 87168, Note_on_c, 3, 76, 78
10, 87197, Note_on_c, 3, 74, 0
10, 87322, Note_on_c, 3, 76, 0
10, 87600, Note_on_c, 3, 62, 78
10, 87648, Note_on_c, 3, 64, 78
10, 87677, Note_on_c, 3, 62, 0
10, 87696, Note_on_c, 3, 65, 78
10, 87725, Note_on_c, 3, 64, 0
10, 87744, Note_on_c, 3, 66, 78
10, 87773, Note_on_c, 3, 65, 0
10, 87792, Note_on_c, 3, 67, 78
10, 87821, Note_on_c, 3, 66, 0
10, 87840, Note_on_c, 3, 69, 78
10, 87869, Note_on_c, 3, 67, 0
10, 87888, Note_on_c, 3, 70, 78
10, 87917, Note_on_c, 3, 69, 0
10, 87936, Note_on_c, 3, 72, 78
10, 87965, Note_on_c, 3, 70, 0
10, 88090, Note_on_c, 3, 72, 0
10, 88368, Note_on_c, 3, 67, 78
10, 88416, Note_on_c, 3, 69, 78
10, 88445, Note_on_c, 3, 67, 0
10, 88464, Note_on_c, 3, 70, 78
10, 88493, Note_on_c, 3, 69, 0
10, 88512, Note_on_c, 3, 71, 78
10, 88541, Note_on_c, 3, 70, 0
10, 88560, Note_on_c, 3, 72, 78
10, 88589, Note_on_c, 3, 71, 0
10, 88608, Note_on_c, 3, 74, 78
10, 88637, Note_on_c, 3, 72, 0
10, 88656, Note_on_c, 3, 76, 78
10, 88685, Note_on_c, 3, 74, 0
10, 88704, Note_on_c, 3, 77, 78
10, 88733, Note_on_c, 3, 76, 0
10, 88858, Note_on_c, 3, 77, 0
10, 89136, Note_on_c, 3, 71, 78
10, 89136, Note_on_c, 3, 62, 78
10, 89184, Note_on_c, 3, 63, 78
10, 89184, Note_on_c, 3, 72, 78
10, 89213, Note_on_c, 3, 62, 0
10, 89213, Note_on_c, 3, 71, 0
10, 89232, Note_on_c, 3, 73, 78
10, 89232, Note_on_c, 3, 64, 78
10, 89261, Note_on_c, 3, 63, 0
10, 89261, Note_on_c, 3, 72, 0
10, 89280, Note_on_c, 3, 65, 78
10, 89280, Note_on_c, 3, 74, 78
10, 89309, Note_on_c, 3, 73, 0
10, 89309, Note_on_c, 3, 64, 0
10, 89328, Note_on_c, 3, 76, 78
10, 89328, Note_on_c, 3, 67, 78
10, 89357, Note_on_c, 3, 65, 0
10, 89357, Note_on_c, 3, 74, 0
10, 89376, Note_on_c, 3, 77, 78
10, 89376, Note_on_c, 3, 74, 78
10, 89405, Note_on_c, 3, 76, 0
10, 89405, Note_on_c, 3, 67, 0
10, 89424, Note_on_c, 3, 79, 78
10, 89453, Note_on_c, 3, 77, 0
10, 89472, Note_on_c, 3, 81, 78
10, 89472, Note_on_c, 3, 73, 78
10, 89501, Note_on_c, 3, 79, 0
10, 89530, Note_on_c, 3, 74, 0
10, 89626, Note_on_c, 3, 81, 0
10, 89626, Note_on_c, 3, 73, 0
10, 89904, Note_on_c, 3, 65, 78
10, 89904, Note_on_c, 3, 74, 78
10, 89952, Note_on_c, 3, 74, 0
10, 89952, Note_on_c, 3, 65, 0
10, 89952, Note_on_c, 3, 75, 78
10, 89952, Note_on_c, 3, 66, 78
10, 90000, Note_on_c, 3, 66, 0
10, 90000, Note_on_c, 3, 75, 0
10, 90000, Note_on_c, 3, 67, 78
10, 90000, Note_on_c, 3, 76, 78
10, 90048, Note_on_c, 3, 76, 0
10, 90048, Note_on_c, 3, 67, 0
10, 90048, Note_on_c, 3, 69, 78
10, 90048, Note_on_c, 3, 77, 78
10, 90096, Note_on_c, 3, 77, 0
10, 90096, Note_on_c, 3, 69, 0
10, 90096, Note_on_c, 3, 79, 78
10, 90096, Note_on_c, 3, 70, 78
10, 90144, Note_on_c, 3, 70, 0
10, 90144, Note_on_c, 3, 79, 0
10, 90144, Note_on_c, 3, 81, 78
10, 90144, Note_on_c, 3, 77, 78
10, 90192, Note_on_c, 3, 81, 0
10, 90192, Note_on_c, 3, 82, 78
10, 90240, Note_on_c, 3, 82, 0
10, 90240, Note_on_c, 3, 77, 0
10, 90240, Note_on_c, 3, 76, 78
10, 90240, Note_on_c, 3, 84, 78
10, 90336, Note_on_c, 3, 84, 0
10, 90336, Note_on_c, 3, 76, 0
10, 90720, Note_on_c, 3, 66, 78
10, 90720, Note_on_c, 3, 72, 78
10, 90912, Note_on_c, 3, 72, 0
10, 90912, Note_on_c, 3, 66, 0
10, 91104, Note_on_c, 3, 75, 78
10, 91296, Note_on_c, 3, 75, 0
10, 91584, Note_on_c, 3, 78, 78
10, 91584, Note_on_c, 3, 72, 78
10, 91680, Note_on_c, 3, 72, 0
10, 91680, Note_on_c, 3, 78, 0
10, 91968, Note_on_c, 3, 78, 78
10, 91968, Note_on_c, 3, 72, 78
10, 92064, Note_on_c, 3, 72, 0
10, 92064, Note_on_c, 3, 78, 0
10, 92160, Note_on_c, 3, 78, 78
10, 92160, Note_on_c, 3, 72, 78
10, 92256, Note_on_c, 3, 72, 0
10, 92256, Note_on_c, 3, 78, 0
10, 92352, Note_on_c, 3, 78, 78
10, 92352, Note_on_c, 3, 69, 78
10, 92448, Note_on_c, 3, 69, 0
10, 92448, Note_on_c, 3, 78, 0
10, 92448, Note_on_c, 3, 75, 78
10, 92448, Note_on_c, 3, 66, 78
10, 92544, Note_on_c, 3, 66, 0
10, 92544, Note_on_c, 3, 75, 0
10, 92544, Note_on_c, 3, 69, 78
10, 92544, Note_on_c, 3, 63, 78
10, 92640, Note_on_c, 3, 63, 0
10, 92640, Note_on_c, 3, 69, 0
10, 92640, Note_on_c, 3, 66, 78
10, 92736, Note_on_c, 3, 66, 0
10, 92736, Note_on_c, 3, 66, 78
10, 92736, Note_on_c, 3, 63, 78
10, 92832, Note_on_c, 3, 63, 0
10, 92832, Note_on_c, 3, 66, 0
10, 94560, Note_on_c, 3, 63, 78
10, 94560, Note_on_c, 3, 59, 78
10, 94656, Note_on_c, 3, 59, 0
10, 94656, Note_on_c, 3, 63, 0
10, 94656, Note_on_c, 3, 75, 78
10, 94656, Note_on_c, 3, 71, 78
10, 94752, Note_on_c, 3, 71, 0
10, 94752, Note_on_c, 3, 75, 0
10, 95136, Note_on_c, 3, 71, 78
10, 95136, Note_on_c, 3, 77, 78
10, 95232, Note_on_c, 3, 77, 0
10, 95232, Note_on_c, 3, 71, 0
10, 95328, Note_on_c, 3, 75, 78
10, 95328, Note_on_c, 3, 68, 78
10, 95424, Note_on_c, 3, 68, 0
10, 95424, Note_on_c, 3, 75, 0
10, 95520, Note_on_c, 3, 65, 78
10, 95520, Note_on_c, 3, 71, 78
10, 95616, Note_on_c, 3, 71, 0
10, 95616, Note_on_c, 3, 65, 0
10, 96096, Note_on_c, 3, 70, 78
10, 96192, Note_on_c, 3, 70, 0
10, 96192, Note_on_c, 3, 70, 78
10, 96192, Note_on_c, 3, 68, 78
10, 96288, Note_on_c, 3, 68, 0
10, 96288, Note_on_c, 3, 70, 0
10, 96480, Note_on_c, 3, 75, 78
10, 96480, Note_on_c, 3, 66, 78
10, 96576, Note_on_c, 3, 66, 0
10, 96576, Note_on_c, 3, 75, 0
10, 96576, Note_on_c, 3, 67, 78
10, 96576, Note_on_c, 3, 75, 78
10, 96672, Note_on_c, 3, 75, 0
10, 96672, Note_on_c, 3, 67, 0
10, 96864, Note_on_c, 3, 75, 78
10, 96864, Note_on_c, 3, 71, 78
10, 96960, Note_on_c, 3, 71, 0
10, 96960, Note_on_c, 3, 75, 0
10, 96960, Note_on_c, 3, 75, 78
10, 96960, Note_on_c, 3, 73, 78
10, 97056, Note_on_c, 3, 73, 0
10, 97056, Note_on_c, 3, 75, 0
10, 97248, Note_on_c, 3, 80, 78
10, 97248, Note_on_c, 3, 75, 78
10, 97344, Note_on_c, 3, 75, 0
10, 97344, Note_on_c, 3, 80, 0
10, 97344, Note_on_c, 3, 75, 78
10, 97344, Note_on_c, 3, 78, 78
10, 97440, Note_on_c, 3, 78, 0
10, 97440, Note_on_c, 3, 75, 0
10, 97632, Note_on_c, 3, 78, 78
10, 97728, Note_on_c, 3, 78, 0
10, 97728, Note_on_c, 3, 78, 78
10, 97728, Note_on_c, 3, 75, 78
10, 97824, Note_on_c, 3, 75, 0
10, 97824, Note_on_c, 3, 78, 0
10, 98016, Note_on_c, 3, 75, 78
10, 98016, Note_on_c, 3, 78, 78
10, 98112, Note_on_c, 3, 78, 0
10, 98112, Note_on_c, 3, 75, 0
10, 98112, Note_on_c, 3, 75, 78
10, 98112, Note_on_c, 3, 78, 78
10, 98208, Note_on_c, 3, 78, 0
10, 98208, Note_on_c, 3, 75, 0
10, 98400, Note_on_c, 3, 75, 78
10, 98400, Note_on_c, 3, 78, 78
10, 98592, Note_on_c, 3, 78, 0
10, 98592, Note_on_c, 3, 75, 0
10, 98592, Note_on_c, 3, 78, 78
10, 98592, Note_on_c, 3, 73, 78
10, 98784, Note_on_c, 3, 73, 0
10, 98784, Note_on_c, 3, 78, 0
10, 98784, Note_on_c, 3, 78, 78
10, 98784, Note_on_c, 3, 71, 78
10, 98976, Note_on_c, 3, 71, 0
10, 98976, Note_on_c, 3, 78, 0
10, 98976, Note_on_c, 3, 72, 78
10, 98976, Note_on_c, 3, 78, 78
10, 99072, Note_on_c, 3, 78, 0
10, 99072, Note_on_c, 3, 72, 0
10, 99072, Note_on_c, 3, 73, 78
10, 99072, Note_on_c, 3, 79, 78
10, 99168, Note_on_c, 3, 79, 0
10, 99168, Note_on_c, 3, 73, 0
10, 99264, Note_on_c, 3, 79, 78
10, 99264, Note_on_c, 3, 73, 78
10, 99456, Note_on_c, 3, 73, 0
10, 99456, Note_on_c, 3, 79, 0
10, 99552, Note_on_c, 3, 69, 78
10, 99600, Note_on_c, 3, 69, 0
10, 99600, Note_on_c, 3, 69, 78
10, 99648, Note_on_c, 3, 69, 0
10, 99648, Note_on_c, 3, 69, 78
10, 99744, Note_on_c, 3, 69, 0
10, 99744, Note_on_c, 3, 69, 78
10, 99840, Note_on_c, 3, 69, 0
10, 99840, Note_on_c, 3, 74, 78
10, 99840, Note_on_c, 3, 66, 78
10, 100032, Note_on_c, 3, 66, 0
10, 100032, Note_on_c, 3, 74, 0
10, 100032, Note_on_c, 3, 66, 78
10, 100032, Note_on_c, 3, 74, 78
10, 100224, Note_on_c, 3, 74, 0
10, 100224, Note_on_c, 3, 66, 0
10, 100224, Note_on_c, 3, 69, 78
10, 100224, Note_on_c, 3, 76, 78
10, 100416, Note_on_c, 3, 76, 0
10, 100416, Note_on_c, 3, 69, 0
10, 100416, Note_on_c, 3, 76, 78
10, 100416, Note_on_c, 3, 69, 78
10, 100608, Note_on_c, 3, 69, 0
10, 100608, Note_on_c, 3, 76, 0
10, 100608, Note_on_c, 3, 81, 78
10, 100608, Note_on_c, 3, 78, 78
10, 100896, Note_on_c, 3, 78, 0
10, 100896, Note_on_c, 3, 81, 0
10, 100896, Note_on_c, 3, 78, 78
10, 100896, Note_on_c, 3, 74, 78
10, 100992, Note_on_c, 3, 74, 0
10, 100992, Note_on_c, 3, 78, 0
10, 100992, Note_on_c, 3, 74, 78
10, 100992, Note_on_c, 3, 66, 78
10, 101088, Note_on_c, 3, 66, 0
10, 101088, Note_on_c, 3, 74, 0
10, 101376, Note_on_c, 3, 62, 78
10, 101568, Note_on_c, 3, 62, 0
10, 101568, Note_on_c, 3, 62, 78
10, 101760, Note_on_c, 3, 62, 0
10, 101760, Note_on_c, 3, 64, 78
10, 101952, Note_on_c, 3, 64, 0
10, 101952, Note_on_c, 3, 64, 78
10, 102144, Note_on_c, 3, 64, 0
10, 102144, Note_on_c, 3, 69, 78
10, 102432, Note_on_c, 3, 69, 0
10, 102432, Note_on_c, 3, 66, 78
10, 102528, Note_on_c, 3, 66, 0
10, 102528, Note_on_c, 3, 62, 78
10, 102624, Note_on_c, 3, 62, 0
10, 105216, Note_on_c, 3, 81, 78
10, 105216, Note_on_c, 3, 78, 78
10, 105792, Note_on_c, 3, 78, 0
10, 105792, Note_on_c, 3, 81, 0
10, 105792, Note_on_c, 3, 74, 78
10, 105792, Note_on_c, 3, 78, 78
10, 105984, Note_on_c, 3, 78, 0
10, 105984, Note_on_c, 3, 74, 0
10, 105984, Note_on_c, 3, 74, 78
10, 105984, Note_on_c, 3, 66, 78
10, 106368, Note_on_c, 3, 66, 0
10, 106368, Note_on_c, 3, 74, 0
10, 110784, Note_on_c, 3, 60, 78
10, 110976, Note_on_c, 3, 69, 78
10, 111360, Note_on_c, 3, 69, 0
10, 111360, Note_on_c, 3, 60, 0
10, 111360, Note_on_c, 3, 73, 59
10, 111360, Note_on_c, 3, 70, 59
10, 111744, Note_on_c, 3, 70, 0
10, 111744, Note_on_c, 3, 73, 0
10, 111744, Note_on_c, 3, 71, 59
10, 111744, Note_on_c, 3, 73, 59
10, 112128, Note_on_c, 3, 73, 0
10, 112128, Note_on_c, 3, 71, 0
10, 112128, Note_on_c, 3, 70, 59
10, 112128, Note_on_c, 3, 73, 59
10, 112512, Note_on_c, 3, 73, 0
10, 112512, Note_on_c, 3, 70, 0
10, 112512, Note_on_c, 3, 73, 59
10, 112512, Note_on_c, 3, 71, 59
10, 112896, Note_on_c, 3, 71, 0
10, 112896, Note_on_c, 3, 73, 0
10, 112896, Note_on_c, 3, 73, 59
10, 112896, Note_on_c, 3, 70, 59
10, 113280, Note_on_c, 3, 70, 0
10, 113280, Note_on_c, 3, 73, 0
10, 113280, Note_on_c, 3, 73, 59
10, 113280, Note_on_c, 3, 71, 59
10, 113664, Note_on_c, 3, 71, 0
10, 113664, Note_on_c, 3, 73, 0
10, 113664, Note_on_c, 3, 70, 59
10, 113664, Note_on_c, 3, 73, 59
10, 114048, Note_on_c, 3, 73, 0
10, 114048, Note_on_c, 3, 70, 0
10, 114048, Note_on_c, 3, 73, 59
10, 114048, Note_on_c, 3, 71, 59
10, 114432, Note_on_c, 3, 71, 0
10, 114432, Note_on_c, 3, 73, 0
10, 114432, Note_on_c, 3, 73, 59
10, 114432, Note_on_c, 3, 70, 59
10, 114816, Note_on_c, 3, 70, 0
10, 114816, Note_on_c, 3, 73, 0
10, 114816, Note_on_c, 3, 73, 59
10, 114816, Note_on_c, 3, 71, 59
10, 115200, Note_on_c, 3, 71, 0
10, 115200, Note_on_c, 3, 73, 0
10, 115200, Note_on_c, 3, 70, 59
10, 115200, Note_on_c, 3, 73, 59
10, 115584, Note_on_c, 3, 73, 0
10, 115584, Note_on_c, 3, 70, 0
10, 115584, Note_on_c, 3, 71, 59
10, 115584, Note_on_c, 3, 73, 59
10, 115968, Note_on_c, 3, 73, 0
10, 115968, Note_on_c, 3, 71, 0
10, 115968, Note_on_c, 3, 70, 59
10, 115968, Note_on_c, 3, 73, 59
10, 116352, Note_on_c, 3, 73, 0
10, 116352, Note_on_c, 3, 70, 0
10, 116352, Note_on_c, 3, 73, 59
10, 116352, Note_on_c, 3, 71, 59
10, 116736, Note_on_c, 3, 71, 0
10, 116736, Note_on_c, 3, 73, 0
10, 116736, Note_on_c, 3, 73, 59
10, 116736, Note_on_c, 3, 70, 59
10, 117120, Note_on_c, 3, 70, 0
10, 117120, Note_on_c, 3, 73, 0
10, 117120, Note_on_c, 3, 71, 59
10, 117120, Note_on_c, 3, 73, 59
10, 117504, Note_on_c, 3, 73, 0
10, 117504, Note_on_c, 3, 71, 0
10, 117504, Note_on_c, 3, 73, 59
10, 117504, Note_on_c, 3, 70, 59
10, 117888, Note_on_c, 3, 70, 0
10, 117888, Note_on_c, 3, 73, 0
10, 117888, Note_on_c, 3, 73, 59
10, 117888, Note_on_c, 3, 71, 59
10, 118272, Note_on_c, 3, 71, 0
10, 118272, Note_on_c, 3, 73, 0
10, 118272, Note_on_c, 3, 70, 78
10, 118272, Note_on_c, 3, 73, 78
10, 118656, Note_on_c, 3, 73, 0
10, 118656, Note_on_c, 3, 70, 0
10, 118656, Note_on_c, 3, 71, 78
10, 118656, Note_on_c, 3, 73, 78
10, 119040, Note_on_c, 3, 73, 0
10, 119040, Note_on_c, 3, 71, 0
10, 119040, Note_on_c, 3, 70, 78
10, 119040, Note_on_c, 3, 73, 78
10, 119424, Note_on_c, 3, 73, 0
10, 119424, Note_on_c, 3, 70, 0
10, 119424, Note_on_c, 3, 71, 78
10, 119424, Note_on_c, 3, 73, 78
10, 119808, Note_on_c, 3, 73, 0
10, 119808, Note_on_c, 3, 71, 0
10, 119808, Note_on_c, 3, 70, 78
10, 119808, Note_on_c, 3, 73, 78
10, 120192, Note_on_c, 3, 73, 0
10, 120192, Note_on_c, 3, 70, 0
10, 120192, Note_on_c, 3, 69, 78
10, 120192, Note_on_c, 3, 74, 56
10, 120576, Note_on_c, 3, 74, 0
10, 120576, Note_on_c, 3, 69, 0
10, 120576, Note_on_c, 3, 67, 78
10, 120576, Note_on_c, 3, 74, 78
10, 120960, Note_on_c, 3, 74, 0
10, 120960, Note_on_c, 3, 67, 0
10, 120960, Note_on_c, 3, 69, 78
10, 120960, Note_on_c, 3, 74, 78
10, 121344, Note_on_c, 3, 74, 0
10, 121344, Note_on_c, 3, 69, 0
10, 121344, Note_on_c, 3, 67, 78
10, 121344, Note_on_c, 3, 74, 78
10, 121728, Note_on_c, 3, 74, 0
10, 121728, Note_on_c, 3, 67, 0
10, 121728, Note_on_c, 3, 74, 78
10, 121728, Note_on_c, 3, 69, 78
10, 122112, Note_on_c, 3, 69, 0
10, 122112, Note_on_c, 3, 74, 0
10, 122112, Note_on_c, 3, 67, 78
10, 122112, Note_on_c, 3, 74, 78
10, 122496, Note_on_c, 3, 74, 0
10, 122496, Note_on_c, 3, 67, 0
10, 122496, Note_on_c, 3, 66, 78
10, 122496, Note_on_c, 3, 74, 78
10, 122880, Note_on_c, 3, 74, 0
10, 122880, Note_on_c, 3, 66, 0
10, 122880, Note_on_c, 3, 67, 78
10, 122880, Note_on_c, 3, 74, 78
10, 123264, Note_on_c, 3, 74, 0
10, 123264, Note_on_c, 3, 67, 0
10, 123264, Note_on_c, 3, 66, 78
10, 123264, Note_on_c, 3, 74, 78
10, 123648, Note_on_c, 3, 74, 0
10, 123648, Note_on_c, 3, 66, 0
10, 123648, Note_on_c, 3, 67, 78
10, 123648, Note_on_c, 3, 74, 78
10, 124032, Note_on_c, 3, 74, 0
10, 124032, Note_on_c, 3, 67, 0
10, 124032, Note_on_c, 3, 69, 78
10, 124032, Note_on_c, 3, 74, 78
10, 124416, Note_on_c, 3, 74, 0
10, 124416, Note_on_c, 3, 69, 0
10, 124416, Note_on_c, 3, 67, 78
10, 124416, Note_on_c, 3, 74, 78
10, 124800, Note_on_c, 3, 74, 0
10, 124800, Note_on_c, 3, 67, 0
10, 124800, Note_on_c, 3, 72, 78
10, 124800, Note_on_c, 3, 66, 78
10, 125184, Note_on_c, 3, 66, 0
10, 125184, Note_on_c, 3, 72, 0
10, 125184, Note_on_c, 3, 70, 78
10, 125184, Note_on_c, 3, 67, 78
10, 125568, Note_on_c, 3, 67, 0
10, 125568, Note_on_c, 3, 70, 0
10, 128064, Note_on_c, 3, 63, 78
10, 128064, Note_on_c, 3, 75, 78
10, 128256, Note_on_c, 3, 75, 0
10, 128256, Note_on_c, 3, 63, 0
10, 128256, Note_on_c, 3, 70, 78
10, 128256, Note_on_c, 3, 82, 78
10, 128544, Note_on_c, 3, 82, 0
10, 128544, Note_on_c, 3, 70, 78
10, 128544, Note_on_c, 3, 82, 78
10, 128640, Note_on_c, 3, 82, 0
10, 128640, Note_on_c, 3, 70, 0
10, 128640, Note_on_c, 3, 70, 0
10, 128640, Note_on_c, 3, 82, 78
10, 128640, Note_on_c, 3, 68, 78
10, 128736, Note_on_c, 3, 82, 0
10, 128736, Note_on_c, 3, 80, 78
10, 128832, Note_on_c, 3, 80, 0
10, 128832, Note_on_c, 3, 79, 78
10, 128832, Note_on_c, 3, 67, 78
10, 128928, Note_on_c, 3, 67, 0
10, 128928, Note_on_c, 3, 79, 0
10, 128928, Note_on_c, 3, 77, 78
10, 128928, Note_on_c, 3, 65, 78
10, 129024, Note_on_c, 3, 65, 0
10, 129024, Note_on_c, 3, 77, 0
10, 129024, Note_on_c, 3, 68, 0
10, 129024, Note_on_c, 3, 70, 73
10, 129024, Note_on_c, 3, 82, 78
10, 129216, Note_on_c, 3, 82, 0
10, 129216, Note_on_c, 3, 70, 0
10, 129216, Note_on_c, 3, 70, 78
10, 129216, Note_on_c, 3, 82, 78
10, 129408, Note_on_c, 3, 82, 0
10, 129408, Note_on_c, 3, 70, 0
10, 129600, Note_on_c, 3, 65, 78
10, 129600, Note_on_c, 3, 77, 78
10, 129792, Note_on_c, 3, 77, 0
10, 129792, Note_on_c, 3, 65, 0
10, 129792, Note_on_c, 3, 82, 78
10, 129792, Note_on_c, 3, 70, 78
10, 130080, Note_on_c, 3, 70, 0
10, 130080, Note_on_c, 3, 82, 0
10, 130080, Note_on_c, 3, 70, 78
10, 130080, Note_on_c, 3, 82, 78
10, 130176, Note_on_c, 3, 82, 0
10, 130176, Note_on_c, 3, 70, 0
10, 130176, Note_on_c, 3, 70, 78
10, 130176, Note_on_c, 3, 82, 78
10, 130272, Note_on_c, 3, 82, 0
10, 130272, Note_on_c, 3, 70, 0
10, 130272, Note_on_c, 3, 80, 78
10, 130272, Note_on_c, 3, 68, 78
10, 130368, Note_on_c, 3, 68, 0
10, 130368, Note_on_c, 3, 80, 0
10, 130368, Note_on_c, 3, 79, 78
10, 130368, Note_on_c, 3, 67, 78
10, 130464, Note_on_c, 3, 67, 0
10, 130464, Note_on_c, 3, 79, 0
10, 130464, Note_on_c, 3, 65, 78
10, 130464, Note_on_c, 3, 77, 78
10, 130560, Note_on_c, 3, 77, 0
10, 130560, Note_on_c, 3, 65, 0
10, 130560, Note_on_c, 3, 70, 78
10, 130560, Note_on_c, 3, 82, 78
10, 131136, Note_on_c, 3, 82, 0
10, 131136, Note_on_c, 3, 70, 0
10, 131136, Note_on_c, 3, 70, 78
10, 131328, Note_on_c, 3, 70, 0
10, 131328, Note_on_c, 3, 72, 78
10, 131520, Note_on_c, 3, 72, 0
10, 131520, Note_on_c, 3, 75, 78
10, 131712, Note_on_c, 3, 75, 0
10, 131712, Note_on_c, 3, 77, 78
10, 131904, Note_on_c, 3, 77, 0
10, 131904, Note_on_c, 3, 79, 78
10, 132000, Note_on_c, 3, 79, 0
10, 132000, Note_on_c, 3, 80, 78
10, 132096, Note_on_c, 3, 80, 0
10, 132096, Note_on_c, 3, 82, 78
10, 132672, Note_on_c, 3, 82, 0
10, 132672, Note_on_c, 3, 82, 78
10, 132864, Note_on_c, 3, 82, 0
10, 132864, Note_on_c, 3, 84, 78
10, 132864, Note_on_c, 3, 72, 78
10, 133056, Note_on_c, 3, 72, 0
10, 133056, Note_on_c, 3, 84, 0
10, 133056, Note_on_c, 3, 75, 78
10, 133056, Note_on_c, 3, 87, 78
10, 133248, Note_on_c, 3, 87, 0
10, 133248, Note_on_c, 3, 75, 0
10, 133248, Note_on_c, 3, 74, 78
10, 133248, Note_on_c, 3, 86, 78
10, 133440, Note_on_c, 3, 86, 0
10, 133440, Note_on_c, 3, 74, 0
10, 133440, Note_on_c, 3, 84, 78
10, 133440, Note_on_c, 3, 72, 78
10, 133536, Note_on_c, 3, 72, 0
10, 133536, Note_on_c, 3, 84, 0
10, 133536, Note_on_c, 3, 70, 78
10, 133536, Note_on_c, 3, 82, 78
10, 133632, Note_on_c, 3, 82, 0
10, 133632, Note_on_c, 3, 70, 0
10, 133632, Note_on_c, 3, 87, 78
10, 133632, Note_on_c, 3, 75, 78
10, 134016, Note_on_c, 3, 75, 0
10, 134208, Note_on_c, 3, 87, 0
10, 134208, Note_on_c, 3, 70, 78
10, 134400, Note_on_c, 3, 70, 0
10, 134400, Note_on_c, 3, 72, 78
10, 134592, Note_on_c, 3, 72, 0
10, 134592, Note_on_c, 3, 75, 78
10, 134784, Note_on_c, 3, 75, 0
10, 134784, Note_on_c, 3, 77, 78
10, 134976, Note_on_c, 3, 77, 0
10, 134976, Note_on_c, 3, 78, 78
10, 135072, Note_on_c, 3, 78, 0
10, 135072, Note_on_c, 3, 80, 78
10, 135168, Note_on_c, 3, 80, 0
10, 135168, Note_on_c, 3, 82, 78
10, 135744, Note_on_c, 3, 82, 0
10, 135744, Note_on_c, 3, 70, 78
10, 135936, Note_on_c, 3, 70, 0
10, 135936, Note_on_c, 3, 72, 78
10, 136128, Note_on_c, 3, 72, 0
10, 136128, Note_on_c, 3, 75, 78
10, 136320, Note_on_c, 3, 75, 0
10, 136320, Note_on_c, 3, 77, 78
10, 136512, Note_on_c, 3, 77, 0
10, 136512, Note_on_c, 3, 78, 78
10, 136608, Note_on_c, 3, 78, 0
10, 136608, Note_on_c, 3, 80, 78
10, 136704, Note_on_c, 3, 80, 0
10, 136704, Note_on_c, 3, 82, 78
10, 137280, Note_on_c, 3, 82, 0
10, 137280, Note_on_c, 3, 70, 78
10, 137472, Note_on_c, 3, 70, 0
10, 137472, Note_on_c, 3, 72, 78
10, 137664, Note_on_c, 3, 72, 0
10, 137664, Note_on_c, 3, 75, 78
10, 137856, Note_on_c, 3, 75, 0
10, 137856, Note_on_c, 3, 77, 78
10, 138048, Note_on_c, 3, 77, 0
10, 138048, Note_on_c, 3, 78, 78
10, 138144, Note_on_c, 3, 78, 0
10, 138144, Note_on_c, 3, 80, 78
10, 138240, Note_on_c, 3, 80, 0
10, 138240, Note_on_c, 3, 82, 78
10, 138432, Note_on_c, 3, 82, 0
10, 138432, Note_on_c, 3, 82, 78
10, 138528, Note_on_c, 3, 82, 0
10, 138528, Note_on_c, 3, 83, 78
10, 138624, Note_on_c, 3, 83, 0
10, 138624, Note_on_c, 3, 82, 78
10, 139200, Note_on_c, 3, 82, 0
10, 139200, Note_on_c, 3, 82, 78
10, 139296, Note_on_c, 3, 82, 0
10, 139296, Note_on_c, 3, 83, 78
10, 139392, Note_on_c, 3, 83, 0
10, 139392, Note_on_c, 3, 82, 78
10, 139968, Note_on_c, 3, 82, 0
10, 139968, Note_on_c, 3, 82, 78
10, 140064, Note_on_c, 3, 82, 0
10, 140064, Note_on_c, 3, 83, 78
10, 140160, Note_on_c, 3, 83, 0
10, 140160, Note_on_c, 3, 82, 78
10, 140352, Note_on_c, 3, 82, 0
10, 140352, Note_on_c, 3, 82, 78
10, 140448, Note_on_c, 3, 82, 0
10, 140448, Note_on_c, 3, 83, 78
10, 140544, Note_on_c, 3, 83, 0
10, 140544, Note_on_c, 3, 82, 78
10, 140736, Note_on_c, 3, 82, 0
10, 140736, Note_on_c, 3, 82, 78
10, 140832, Note_on_c, 3, 82, 0
10, 140832, Note_on_c, 3, 83, 78
10, 140928, Note_on_c, 3, 83, 0
10, 140928, Note_on_c, 3, 82, 78
10, 141120, Note_on_c, 3, 82, 0
10, 141120, Note_on_c, 3, 82, 78
10, 141216, Note_on_c, 3, 82, 0
10, 141216, Note_on_c, 3, 83, 78
10, 141312, Note_on_c, 3, 83, 0
10, 141312, Note_on_c, 3, 82, 78
10, 141408, Note_on_c, 3, 82, 0
10, 149760, Note_on_c, 3, 70, 76
10, 149784, Note_on_c, 3, 70, 0
10, 149856, Note_on_c, 3, 70, 76
10, 149904, Note_on_c, 3, 70, 0
10, 149904, Note_on_c, 3, 71, 76
10, 149952, Note_on_c, 3, 71, 0
10, 149952, Note_on_c, 3, 70, 76
10, 149976, Note_on_c, 3, 70, 0
10, 150048, Note_on_c, 3, 68, 76
10, 150072, Note_on_c, 3, 68, 0
10, 150144, Note_on_c, 3, 66, 76
10, 150168, Note_on_c, 3, 66, 0
10, 150240, Note_on_c, 3, 66, 76
10, 150264, Note_on_c, 3, 66, 0
10, 150336, Note_on_c, 3, 68, 76
10, 150432, Note_on_c, 3, 68, 0
10, 150432, Note_on_c, 3, 63, 76
10, 150528, Note_on_c, 3, 63, 0
10, 150528, Note_on_c, 3, 66, 76
10, 150720, Note_on_c, 3, 66, 0
10, 150720, Note_on_c, 3, 63, 76
10, 151104, Note_on_c, 3, 63, 0
10, 162528, Note_on_c, 3, 72, 78
10, 162576, Note_on_c, 3, 72, 0
10, 162576, Note_on_c, 3, 72, 78
10, 162624, Note_on_c, 3, 72, 0
10, 162624, Note_on_c, 3, 72, 78
10, 162720, Note_on_c, 3, 72, 0
10, 162720, Note_on_c, 3, 72, 78
10, 162816, Note_on_c, 3, 72, 0
10, 162816, Note_on_c, 3, 77, 78
10, 163104, Note_on_c, 3, 77, 0
10, 163104, Note_on_c, 3, 73, 78
10, 163200, Note_on_c, 3, 73, 0
10, 163200, Note_on_c, 3, 70, 78
10, 163296, Note_on_c, 3, 70, 0
10, 167904, Note_on_c, 3, 61, 78
10, 167904, Note_on_c, 3, 73, 78
10, 167952, Note_on_c, 3, 73, 0
10, 167952, Note_on_c, 3, 61, 0
10, 167952, Note_on_c, 3, 73, 78
10, 167952, Note_on_c, 3, 61, 78
10, 168000, Note_on_c, 3, 61, 0
10, 168000, Note_on_c, 3, 73, 0
10, 168000, Note_on_c, 3, 61, 78
10, 168000, Note_on_c, 3, 73, 78
10, 168096, Note_on_c, 3, 73, 0
10, 168096, Note_on_c, 3, 61, 0
10, 168096, Note_on_c, 3, 61, 78
10, 168096, Note_on_c, 3, 73, 78
10, 168192, Note_on_c, 3, 73, 0
10, 168192, Note_on_c, 3, 61, 0
10, 168192, Note_on_c, 3, 78, 78
10, 168192, Note_on_c, 3, 66, 78
10, 168480, Note_on_c, 3, 66, 0
10, 168480, Note_on_c, 3, 78, 0
10, 168480, Note_on_c, 3, 74, 78
10, 168576, Note_on_c, 3, 74, 0
10, 168576, Note_on_c, 3, 71, 78
10, 168672, Note_on_c, 3, 71, 0
10, 172224, Note_on_c, 3, 82, 78
10, 172224, Note_on_c, 3, 79, 78
10, 172320, Note_on_c, 3, 79, 0
10, 172320, Note_on_c, 3, 82, 0
10, 172320, Note_on_c, 3, 83, 78
10, 172320, Note_on_c, 3, 79, 78
10, 172416, Note_on_c, 3, 79, 0
10, 172416, Note_on_c, 3, 83, 0
10, 172416, Note_on_c, 3, 85, 78
10, 172416, Note_on_c, 3, 79, 78
10, 172512, Note_on_c, 3, 79, 0
10, 172512, Note_on_c, 3, 85, 0
10, 173760, Note_on_c, 3, 79, 78
10, 173760, Note_on_c, 3, 76, 78
10, 173856, Note_on_c, 3, 76, 0
10, 173856, Note_on_c, 3, 79, 0
10, 173856, Note_on_c, 3, 76, 78
10, 173856, Note_on_c, 3, 80, 78
10, 173952, Note_on_c, 3, 80, 0
10, 173952, Note_on_c, 3, 76, 0
10, 173952, Note_on_c, 3, 76, 78
10, 173952, Note_on_c, 3, 82, 78
10, 174048, Note_on_c, 3, 82, 0
10, 174048, Note_on_c, 3, 76, 0
10, 175296, Note_on_c, 3, 79, 78
10, 175296, Note_on_c, 3, 82, 78
10, 175392, Note_on_c, 3, 82, 0
10, 175392, Note_on_c, 3, 79, 0
10, 175392, Note_on_c, 3, 82, 78
10, 175392, Note_on_c, 3, 79, 78
10, 175488, Note_on_c, 3, 79, 0
10, 175488, Note_on_c, 3, 82, 0
10, 175488, Note_on_c, 3, 82, 78
10, 175488, Note_on_c, 3, 79, 78
10, 175584, Note_on_c, 3, 79, 0
10, 175584, Note_on_c, 3, 82, 0
10, 176832, Note_on_c, 3, 79, 78
10, 176832, Note_on_c, 3, 82, 78
10, 176928, Note_on_c, 3, 82, 0
10, 176928, Note_on_c, 3, 79, 0
10, 176928, Note_on_c, 3, 79, 78
10, 176928, Note_on_c, 3, 83, 78
10, 177024, Note_on_c, 3, 83, 0
10, 177024, Note_on_c, 3, 79, 0
10, 177024, Note_on_c, 3, 85, 78
10, 177024, Note_on_c, 3, 79, 78
10, 177120, Note_on_c, 3, 79, 0
10, 177120, Note_on_c, 3, 85, 0
10, 177600, Note_on_c, 3, 82, 78
10, 177600, Note_on_c, 3, 79, 78
10, 177696, Note_on_c, 3, 79, 0
10, 177696, Note_on_c, 3, 82, 0
10, 177696, Note_on_c, 3, 79, 78
10, 177696, Note_on_c, 3, 83, 78
10, 177792, Note_on_c, 3, 83, 0
10, 177792, Note_on_c, 3, 79, 0
10, 177792, Note_on_c, 3, 79, 78
10, 177792, Note_on_c, 3, 85, 78
10, 177888, Note_on_c, 3, 85, 0
10, 177888, Note_on_c, 3, 79, 0
10, 178368, Note_on_c, 3, 79, 78
10, 178368, Note_on_c, 3, 83, 78
10, 178464, Note_on_c, 3, 83, 0
10, 178464, Note_on_c, 3, 79, 0
10, 178464, Note_on_c, 3, 79, 78
10, 178464, Note_on_c, 3, 85, 78
10, 178560, Note_on_c, 3, 85, 0
10, 178560, Note_on_c, 3, 79, 0
10, 178560, Note_on_c, 3, 79, 78
10, 178560, Note_on_c, 3, 86, 78
10, 178656, Note_on_c, 3, 86, 0
10, 178656, Note_on_c, 3, 79, 0
10, 179136, Note_on_c, 3, 84, 78
10, 179136, Note_on_c, 3, 81, 78
10, 179232, Note_on_c, 3, 81, 0
10, 179232, Note_on_c, 3, 84, 0
10, 179232, Note_on_c, 3, 81, 78
10, 179232, Note_on_c, 3, 86, 78
10, 179328, Note_on_c, 3, 86, 0
10, 179328, Note_on_c, 3, 81, 0
10, 179328, Note_on_c, 3, 81, 78
10, 179328, Note_on_c, 3, 87, 78
10, 179424, Note_on_c, 3, 87, 0
10, 179424, Note_on_c, 3, 81, 0
10, 180384, Note_on_c, 3, 78, 78
10, 180384, Note_on_c, 3, 90, 78
10, 180384, Note_on_c, 3, 81, 78
10, 180432, Note_on_c, 3, 81, 0
10, 180432, Note_on_c, 3, 90, 0
10, 180432, Note_on_c, 3, 78, 0
10, 180432, Note_on_c, 3, 81, 78
10, 180432, Note_on_c, 3, 78, 78
10, 180480, Note_on_c, 3, 78, 0
10, 180480, Note_on_c, 3, 81, 0
10, 180480, Note_on_c, 3, 80, 78
10, 180480, Note_on_c, 3, 77, 78
10, 180528, Note_on_c, 3, 77, 0
10, 180528, Note_on_c, 3, 80, 0
10, 180528, Note_on_c, 3, 78, 78
10, 180528, Note_on_c, 3, 81, 78
10, 180576, Note_on_c, 3, 81, 0
10, 180576, Note_on_c, 3, 78, 0
10, 180576, Note_on_c, 3, 81, 78
10, 180576, Note_on_c, 3, 78, 78
10, 180672, Note_on_c, 3, 78, 0
10, 180672, Note_on_c, 3, 81, 0
10, 180672, Note_on_c, 3, 80, 78
10, 180672, Note_on_c, 3, 77, 78
10, 180720, Note_on_c, 3, 77, 0
10, 180720, Note_on_c, 3, 80, 0
10, 180720, Note_on_c, 3, 81, 78
10, 180720, Note_on_c, 3, 78, 78
10, 180768, Note_on_c, 3, 78, 0
10, 180768, Note_on_c, 3, 81, 0
10, 180768, Note_on_c, 3, 81, 78
10, 180768, Note_on_c, 3, 78, 78
10, 180864, Note_on_c, 3, 78, 0
10, 180864, Note_on_c, 3, 81, 0
10, 180864, Note_on_c, 3, 80, 78
10, 180864, Note_on_c, 3, 77, 78
10, 180912, Note_on_c, 3, 77, 0
10, 180912, Note_on_c, 3, 80, 0
10, 180912, Note_on_c, 3, 78, 78
10, 180912, Note_on_c, 3, 81, 78
10, 180960, Note_on_c, 3, 81, 0
10, 180960, Note_on_c, 3, 78, 0
10, 180960, Note_on_c, 3, 81, 78
10, 180960, Note_on_c, 3, 78, 78
10, 181056, Note_on_c, 3, 78, 0
10, 181056, Note_on_c, 3, 81, 0
10, 181056, Note_on_c, 3, 77, 78
10, 181056, Note_on_c, 3, 80, 78
10, 181104, Note_on_c, 3, 80, 0
10, 181104, Note_on_c, 3, 77, 0
10, 181104, Note_on_c, 3, 81, 78
10, 181104, Note_on_c, 3, 78, 78
10, 181152, Note_on_c, 3, 78, 0
10, 181152, Note_on_c, 3, 81, 0
10, 181152, Note_on_c, 3, 78, 78
10, 181152, Note_on_c, 3, 90, 78
10, 181152, Note_on_c, 3, 81, 78
10, 181248, Note_on_c, 3, 81, 0
10, 181248, Note_on_c, 3, 90, 0
10, 181248, Note_on_c, 3, 78, 0
10, 181248, Note_on_c, 3, 74, 78
10, 181248, Note_on_c, 3, 77, 78
10, 181296, Note_on_c, 3, 77, 0
10, 181296, Note_on_c, 3, 74, 0
10, 181296, Note_on_c, 3, 75, 78
10, 181296, Note_on_c, 3, 78, 78
10, 181344, Note_on_c, 3, 78, 0
10, 181344, Note_on_c, 3, 75, 0
10, 181344, Note_on_c, 3, 78, 78
10, 181344, Note_on_c, 3, 75, 78
10, 181440, Note_on_c, 3, 75, 0
10, 181440, Note_on_c, 3, 78, 0
10, 181440, Note_on_c, 3, 77, 78
10, 181440, Note_on_c, 3, 69, 78
10, 181488, Note_on_c, 3, 69, 0
10, 181488, Note_on_c, 3, 77, 0
10, 181488, Note_on_c, 3, 78, 78
10, 181488, Note_on_c, 3, 70, 78
10, 181536, Note_on_c, 3, 70, 0
10, 181536, Note_on_c, 3, 78, 0
10, 181536, Note_on_c, 3, 70, 78
10, 181536, Note_on_c, 3, 78, 75
10, 181632, Note_on_c, 3, 78, 0
10, 181632, Note_on_c, 3, 70, 0
10, 181632, Note_on_c, 3, 65, 78
10, 181632, Note_on_c, 3, 74, 78
10, 181680, Note_on_c, 3, 74, 0
10, 181680, Note_on_c, 3, 65, 0
10, 181680, Note_on_c, 3, 75, 78
10, 181680, Note_on_c, 3, 66, 78
10, 181728, Note_on_c, 3, 66, 0
10, 181728, Note_on_c, 3, 75, 0
10, 181728, Note_on_c, 3, 66, 78
10, 181728, Note_on_c, 3, 75, 78
10, 181824, Note_on_c, 3, 75, 0
10, 181824, Note_on_c, 3, 66, 0
10, 181824, Note_on_c, 3, 65, 78
10, 181824, Note_on_c, 3, 74, 78
10, 181872, Note_on_c, 3, 74, 0
10, 181872, Note_on_c, 3, 65, 0
10, 181872, Note_on_c, 3, 75, 78
10, 181872, Note_on_c, 3, 66, 78
10, 181920, Note_on_c, 3, 66, 0
10, 181920, Note_on_c, 3, 75, 0
10, 181920, Note_on_c, 3, 66, 78
10, 181920, Note_on_c, 3, 75, 78
10, 182016, Note_on_c, 3, 75, 0
10, 182016, Note_on_c, 3, 66, 0
10, 182016, Note_on_c, 3, 62, 78
10, 182016, Note_on_c, 3, 70, 78
10, 182064, Note_on_c, 3, 70, 0
10, 182064, Note_on_c, 3, 62, 0
10, 182064, Note_on_c, 3, 71, 78
10, 182064, Note_on_c, 3, 63, 78
10, 182112, Note_on_c, 3, 63, 0
10, 182112, Note_on_c, 3, 71, 0
10, 182112, Note_on_c, 3, 63, 78
10, 182112, Note_on_c, 3, 71, 78
10, 182208, Note_on_c, 3, 71, 0
10, 182208, Note_on_c, 3, 63, 0
10, 182688, Note_on_c, 3, 75, 78
10, 182748, Note_on_c, 3, 75, 0
10, 182784, Note_on_c, 3, 83, 78
10, 183024, Note_on_c, 3, 83, 0
10, 183024, Note_on_c, 3, 82, 78
10, 183072, Note_on_c, 3, 82, 0
10, 183072, Note_on_c, 3, 80, 78
10, 183120, Note_on_c, 3, 80, 0
10, 183120, Note_on_c, 3, 82, 78
10, 183168, Note_on_c, 3, 82, 0
10, 183168, Note_on_c, 3, 80, 78
10, 183216, Note_on_c, 3, 80, 0
10, 183216, Note_on_c, 3, 78, 78
10, 183264, Note_on_c, 3, 78, 0
10, 183264, Note_on_c, 3, 77, 78
10, 183312, Note_on_c, 3, 77, 0
10, 183312, Note_on_c, 3, 75, 78
10, 183360, Note_on_c, 3, 75, 0
10, 183360, Note_on_c, 3, 74, 78
10, 183424, Note_on_c, 3, 74, 0
10, 183456, Note_on_c, 3, 77, 78
10, 183456, Note_on_c, 3, 71, 78
10, 183520, Note_on_c, 3, 71, 0
10, 183520, Note_on_c, 3, 77, 0
10, 183648, Note_on_c, 3, 75, 78
10, 183648, Note_on_c, 3, 68, 78
10, 183712, Note_on_c, 3, 68, 0
10, 183712, Note_on_c, 3, 75, 0
10, 183840, Note_on_c, 3, 65, 78
10, 183840, Note_on_c, 3, 71, 78
10, 183904, Note_on_c, 3, 71, 0
10, 183904, Note_on_c, 3, 65, 0
10, 184416, Note_on_c, 3, 70, 78
10, 184512, Note_on_c, 3, 70, 0
10, 184512, Note_on_c, 3, 68, 78
10, 184512, Note_on_c, 3, 70, 78
10, 184608, Note_on_c, 3, 70, 0
10, 184608, Note_on_c, 3, 68, 0
10, 184800, Note_on_c, 3, 75, 78
10, 184800, Note_on_c, 3, 66, 78
10, 184896, Note_on_c, 3, 66, 0
10, 184896, Note_on_c, 3, 75, 0
10, 184896, Note_on_c, 3, 67, 78
10, 184896, Note_on_c, 3, 75, 78
10, 184992, Note_on_c, 3, 75, 0
10, 184992, Note_on_c, 3, 67, 0
10, 185184, Note_on_c, 3, 75, 78
10, 185184, Note_on_c, 3, 71, 78
10, 185280, Note_on_c, 3, 71, 0
10, 185280, Note_on_c, 3, 75, 0
10, 185280, Note_on_c, 3, 73, 78
10, 185280, Note_on_c, 3, 75, 78
10, 185376, Note_on_c, 3, 75, 0
10, 185376, Note_on_c, 3, 73, 0
10, 185568, Note_on_c, 3, 75, 78
10, 185568, Note_on_c, 3, 80, 78
10, 185664, Note_on_c, 3, 80, 0
10, 185664, Note_on_c, 3, 75, 0
10, 185664, Note_on_c, 3, 75, 78
10, 185664, Note_on_c, 3, 78, 78
10, 185760, Note_on_c, 3, 78, 0
10, 185760, Note_on_c, 3, 75, 0
10, 185952, Note_on_c, 3, 78, 78
10, 185952, Note_on_c, 3, 75, 78
10, 186048, Note_on_c, 3, 75, 0
10, 186048, Note_on_c, 3, 78, 0
10, 186048, Note_on_c, 3, 78, 78
10, 186048, Note_on_c, 3, 75, 78
10, 186144, Note_on_c, 3, 75, 0
10, 186144, Note_on_c, 3, 78, 0
10, 186336, Note_on_c, 3, 69, 78
10, 186336, Note_on_c, 3, 75, 78
10, 186528, Note_on_c, 3, 75, 0
10, 186528, Note_on_c, 3, 69, 0
10, 186528, Note_on_c, 3, 74, 78
10, 186528, Note_on_c, 3, 69, 78
10, 186720, Note_on_c, 3, 69, 0
10, 186720, Note_on_c, 3, 74, 0
10, 186720, Note_on_c, 3, 69, 78
10, 186720, Note_on_c, 3, 73, 78
10, 186912, Note_on_c, 3, 73, 0
10, 186912, Note_on_c, 3, 69, 0
10, 186912, Note_on_c, 3, 71, 78
10, 186912, Note_on_c, 3, 69, 78
10, 187008, Note_on_c, 3, 69, 0
10, 187008, Note_on_c, 3, 71, 0
10, 187008, Note_on_c, 3, 73, 78
10, 187008, Note_on_c, 3, 70, 78
10, 187104, Note_on_c, 3, 70, 0
10, 187104, Note_on_c, 3, 73, 0
10, 187104, Note_on_c, 3, 66, 78
10, 187152, Note_on_c, 3, 66, 0
10, 187152, Note_on_c, 3, 66, 78
10, 187200, Note_on_c, 3, 66, 0
10, 187200, Note_on_c, 3, 66, 78
10, 187296, Note_on_c, 3, 66, 0
10, 187296, Note_on_c, 3, 66, 78
10, 187392, Note_on_c, 3, 66, 0
10, 187392, Note_on_c, 3, 63, 78
10, 187392, Note_on_c, 3, 71, 78
10, 187584, Note_on_c, 3, 71, 0
10, 187584, Note_on_c, 3, 63, 0
10, 187584, Note_on_c, 3, 63, 78
10, 187584, Note_on_c, 3, 71, 78
10, 187776, Note_on_c, 3, 71, 0
10, 187776, Note_on_c, 3, 63, 0
10, 187776, Note_on_c, 3, 73, 78
10, 187776, Note_on_c, 3, 66, 78
10, 187968, Note_on_c, 3, 66, 0
10, 187968, Note_on_c, 3, 73, 0
10, 187968, Note_on_c, 3, 66, 78
10, 187968, Note_on_c, 3, 73, 78
10, 188160, Note_on_c, 3, 73, 0
10, 188160, Note_on_c, 3, 66, 0
10, 188160, Note_on_c, 3, 78, 78
10, 188160, Note_on_c, 3, 75, 78
10, 188448, Note_on_c, 3, 75, 0
10, 188448, Note_on_c, 3, 78, 0
10, 188448, Note_on_c, 3, 71, 78
10, 188448, Note_on_c, 3, 75, 78
10, 188544, Note_on_c, 3, 75, 0
10, 188544, Note_on_c, 3, 71, 0
10, 188544, Note_on_c, 3, 71, 78
10, 188544, Note_on_c, 3, 63, 78
10, 188640, Note_on_c, 3, 63, 0
10, 188640, Note_on_c, 3, 71, 0
10, 188928, Note_on_c, 3, 59, 78
10, 189120, Note_on_c, 3, 59, 0
10, 189120, Note_on_c, 3, 59, 78
10, 189312, Note_on_c, 3, 59, 0
10, 189312, Note_on_c, 3, 61, 78
10, 189504, Note_on_c, 3, 61, 0
10, 189504, Note_on_c, 3, 61, 78
10, 189696, Note_on_c, 3, 61, 0
10, 189696, Note_on_c, 3, 66, 78
10, 189984, Note_on_c, 3, 66, 0
10, 189984, Note_on_c, 3, 63, 78
10, 190080, Note_on_c, 3, 63, 0
10, 190080, Note_on_c, 3, 59, 78
10, 190176, Note_on_c, 3, 59, 0
10, 192768, Note_on_c, 3, 78, 78
10, 192768, Note_on_c, 3, 75, 78
10, 193344, Note_on_c, 3, 75, 0
10, 193344, Note_on_c, 3, 78, 0
10, 193344, Note_on_c, 3, 75, 78
10, 193344, Note_on_c, 3, 71, 78
10, 193536, Note_on_c, 3, 71, 0
10, 193536, Note_on_c, 3, 75, 0
10, 193536, Note_on_c, 3, 71, 78
10, 193536, Note_on_c, 3, 63, 78
10, 194064, Note_on_c, 3, 63, 0
10, 194064, Note_on_c, 3, 71, 0
10, 198528, Note_on_c, 3, 66, 62
10, 198912, Note_on_c, 3, 66, 0
10, 198912, Note_on_c, 3, 67, 62
10, 198912, Note_on_c, 3, 70, 62
10, 199296, Note_on_c, 3, 70, 0
10, 199296, Note_on_c, 3, 67, 0
10, 199296, Note_on_c, 3, 70, 62
10, 199296, Note_on_c, 3, 68, 62
10, 199680, Note_on_c, 3, 68, 0
10, 199680, Note_on_c, 3, 70, 0
10, 199680, Note_on_c, 3, 70, 62
10, 199680, Note_on_c, 3, 67, 62
10, 200064, Note_on_c, 3, 67, 0
10, 200064, Note_on_c, 3, 70, 0
10, 200064, Note_on_c, 3, 68, 62
10, 200064, Note_on_c, 3, 70, 62
10, 200448, Note_on_c, 3, 70, 0
10, 200448, Note_on_c, 3, 68, 0
10, 200448, Note_on_c, 3, 70, 62
10, 200448, Note_on_c, 3, 67, 62
10, 200832, Note_on_c, 3, 67, 0
10, 200832, Note_on_c, 3, 70, 0
10, 200832, Note_on_c, 3, 70, 62
10, 200832, Note_on_c, 3, 68, 62
10, 201216, Note_on_c, 3, 68, 0
10, 201216, Note_on_c, 3, 70, 0
10, 201216, Note_on_c, 3, 67, 62
10, 201216, Note_on_c, 3, 70, 62
10, 201600, Note_on_c, 3, 70, 0
10, 201600, Note_on_c, 3, 67, 0
10, 201600, Note_on_c, 3, 70, 62
10, 201600, Note_on_c, 3, 68, 62
10, 201984, Note_on_c, 3, 68, 0
10, 201984, Note_on_c, 3, 70, 0
10, 201984, Note_on_c, 3, 70, 62
10, 201984, Note_on_c, 3, 67, 62
10, 202368, Note_on_c, 3, 67, 0
10, 202368, Note_on_c, 3, 70, 0
10, 202368, Note_on_c, 3, 70, 62
10, 202368, Note_on_c, 3, 68, 62
10, 202752, Note_on_c, 3, 68, 0
10, 202752, Note_on_c, 3, 70, 0
10, 202752, Note_on_c, 3, 67, 62
10, 202752, Note_on_c, 3, 70, 62
10, 203136, Note_on_c, 3, 70, 0
10, 203136, Note_on_c, 3, 67, 0
10, 203136, Note_on_c, 3, 68, 62
10, 203136, Note_on_c, 3, 70, 62
10, 203520, Note_on_c, 3, 70, 0
10, 203520, Note_on_c, 3, 68, 0
10, 203520, Note_on_c, 3, 70, 62
10, 203904, Note_on_c, 3, 70, 0
10, 203904, Note_on_c, 3, 70, 62
10, 203904, Note_on_c, 3, 68, 62
10, 204288, Note_on_c, 3, 68, 0
10, 204288, Note_on_c, 3, 70, 0
10, 204288, Note_on_c, 3, 67, 62
10, 204288, Note_on_c, 3, 70, 62
10, 204672, Note_on_c, 3, 70, 0
10, 204672, Note_on_c, 3, 67, 0
10, 204672, Note_on_c, 3, 70, 62
10, 204672, Note_on_c, 3, 68, 62
10, 205056, Note_on_c, 3, 68, 0
10, 205056, Note_on_c, 3, 70, 0
10, 205056, Note_on_c, 3, 70, 62
10, 205056, Note_on_c, 3, 67, 62
10, 205440, Note_on_c, 3, 67, 0
10, 205440, Note_on_c, 3, 70, 0
10, 205440, Note_on_c, 3, 70, 62
10, 205440, Note_on_c, 3, 68, 62
10, 205824, Note_on_c, 3, 68, 0
10, 205824, Note_on_c, 3, 70, 0
10, 205824, Note_on_c, 3, 67, 62
10, 205824, Note_on_c, 3, 70, 62
10, 206208, Note_on_c, 3, 70, 0
10, 206208, Note_on_c, 3, 67, 0
10, 206208, Note_on_c, 3, 68, 62
10, 206208, Note_on_c, 3, 70, 62
10, 206592, Note_on_c, 3, 70, 0
10, 206592, Note_on_c, 3, 68, 0
10, 206592, Note_on_c, 3, 70, 62
10, 206976, Note_on_c, 3, 70, 0
10, 206976, Note_on_c, 3, 68, 62
10, 206976, Note_on_c, 3, 70, 62
10, 207360, Note_on_c, 3, 70, 0
10, 207360, Note_on_c, 3, 68, 0
10, 207360, Note_on_c, 3, 67, 62
10, 207360, Note_on_c, 3, 70, 62
10, 207744, Note_on_c, 3, 70, 0
10, 207744, Note_on_c, 3, 67, 0
10, 207744, Note_on_c, 3, 70, 62
10, 207744, Note_on_c, 3, 65, 62
10, 208128, Note_on_c, 3, 65, 0
10, 208128, Note_on_c, 3, 70, 0
10, 208128, Note_on_c, 3, 70, 62
10, 208128, Note_on_c, 3, 66, 62
10, 208512, Note_on_c, 3, 66, 0
10, 208512, Note_on_c, 3, 70, 0
10, 208512, Note_on_c, 3, 68, 62
10, 208512, Note_on_c, 3, 70, 62
10, 208896, Note_on_c, 3, 70, 0
10, 208896, Note_on_c, 3, 68, 0
10, 208896, Note_on_c, 3, 70, 62
10, 208896, Note_on_c, 3, 66, 62
10, 209280, Note_on_c, 3, 66, 0
10, 209280, Note_on_c, 3, 70, 0
10, 209280, Note_on_c, 3, 68, 62
10, 209280, Note_on_c, 3, 70, 62
10, 209664, Note_on_c, 3, 70, 0
10, 209664, Note_on_c, 3, 68, 0
10, 209664, Note_on_c, 3, 70, 62
10, 209664, Note_on_c, 3, 66, 62
10, 210048, Note_on_c, 3, 66, 0
10, 210048, Note_on_c, 3, 70, 0
10, 210048, Note_on_c, 3, 68, 62
10, 210048, Note_on_c, 3, 70, 62
10, 210432, Note_on_c, 3, 70, 0
10, 210432, Note_on_c, 3, 68, 0
10, 210432, Note_on_c, 3, 70, 62
10, 210432, Note_on_c, 3, 66, 62
10, 210816, Note_on_c, 3, 66, 0
10, 210816, Note_on_c, 3, 70, 0
10, 210816, Note_on_c, 3, 70, 62
10, 210816, Note_on_c, 3, 68, 62
10, 211200, Note_on_c, 3, 68, 0
10, 211200, Note_on_c, 3, 70, 0
10, 211200, Note_on_c, 3, 66, 62
10, 211200, Note_on_c, 3, 70, 62
10, 211584, Note_on_c, 3, 70, 0
10, 211584, Note_on_c, 3, 66, 0
10, 211584, Note_on_c, 3, 70, 62
10, 211584, Note_on_c, 3, 68, 62
10, 211968, Note_on_c, 3, 68, 0
10, 211968, Note_on_c, 3, 70, 0
10, 211968, Note_on_c, 3, 66, 62
10, 211968, Note_on_c, 3, 70, 62
10, 212352, Note_on_c, 3, 70, 0
10, 212352, Note_on_c, 3, 66, 0
10, 212352, Note_on_c, 3, 70, 62
10, 212352, Note_on_c, 3, 68, 62
10, 212736, Note_on_c, 3, 68, 0
10, 212736, Note_on_c, 3, 70, 0
10, 212736, Note_on_c, 3, 66, 62
10, 212736, Note_on_c, 3, 70, 62
10, 213120, Note_on_c, 3, 70, 0
10, 213120, Note_on_c, 3, 66, 0
10, 213120, Note_on_c, 3, 68, 62
10, 213120, Note_on_c, 3, 70, 62
10, 213504, Note_on_c, 3, 70, 0
10, 213504, Note_on_c, 3, 68, 0
10, 213504, Note_on_c, 3, 66, 62
10, 213504, Note_on_c, 3, 70, 62
10, 213888, Note_on_c, 3, 70, 0
10, 213888, Note_on_c, 3, 66, 0
10, 213888, Note_on_c, 3, 70, 62
10, 213888, Note_on_c, 3, 68, 62
10, 214272, Note_on_c, 3, 68, 0
10, 214272, Note_on_c, 3, 70, 0
10, 214272, Note_on_c, 3, 70, 62
10, 214272, Note_on_c, 3, 66, 62
10, 214368, Note_on_c, 3, 66, 0
10, 214368, Note_on_c, 3, 70, 0
10, 214656, Note_on_c, 3, 63, 58
10, 215424, Note_on_c, 3, 63, 0
10, 215424, Note_on_c, 3, 63, 58
10, 216192, Note_on_c, 3, 63, 0
10, 216192, Note_on_c, 3, 63, 58
10, 216960, Note_on_c, 3, 63, 0
10, 216960, Note_on_c, 3, 63, 58
10, 217920, Note_on_c, 3, 63, 0
10, 217920, Note_on_c, 3, 63, 56
10, 218112, Note_on_c, 3, 63, 0
10, 218112, Note_on_c, 3, 63, 56
10, 218208, Note_on_c, 3, 63, 0
10, 227328, Note_on_c, 3, 67, 56
10, 227424, Note_on_c, 3, 67, 0
10, 227520, Note_on_c, 3, 69, 56
10, 227616, Note_on_c, 3, 69, 0
10, 227712, Note_on_c, 3, 70, 56
10, 227808, Note_on_c, 3, 70, 0
10, 227904, Note_on_c, 3, 69, 56
10, 228000, Note_on_c, 3, 69, 0
10, 228096, Note_on_c, 3, 67, 56
10, 228192, Note_on_c, 3, 67, 0
10, 228864, Note_on_c, 3, 72, 56
10, 228960, Note_on_c, 3, 72, 0
10, 229056, Note_on_c, 3, 74, 56
10, 229152, Note_on_c, 3, 74, 0
10, 229248, Note_on_c, 3, 75, 56
10, 229344, Note_on_c, 3, 75, 0
10, 229440, Note_on_c, 3, 74, 56
10, 229536, Note_on_c, 3, 74, 0
10, 229632, Note_on_c, 3, 72, 78
10, 229728, Note_on_c, 3, 72, 0
10, 230112, Note_on_c, 3, 72, 78
10, 230160, Note_on_c, 3, 72, 0
10, 230160, Note_on_c, 3, 72, 78
10, 230208, Note_on_c, 3, 72, 0
10, 230208, Note_on_c, 3, 72, 78
10, 230304, Note_on_c, 3, 72, 0
10, 230304, Note_on_c, 3, 72, 78
10, 230400, Note_on_c, 3, 72, 0
10, 230400, Note_on_c, 3, 68, 78
10, 230400, Note_on_c, 3, 77, 78
10, 230592, Note_on_c, 3, 77, 0
10, 230592, Note_on_c, 3, 68, 0
10, 230592, Note_on_c, 3, 72, 78
10, 230592, Note_on_c, 3, 79, 78
10, 230784, Note_on_c, 3, 79, 0
10, 230784, Note_on_c, 3, 72, 0
10, 230784, Note_on_c, 3, 77, 78
10, 230784, Note_on_c, 3, 80, 78
10, 230976, Note_on_c, 3, 80, 0
10, 230976, Note_on_c, 3, 77, 0
10, 230976, Note_on_c, 3, 72, 78
10, 230976, Note_on_c, 3, 79, 78
10, 231168, Note_on_c, 3, 79, 0
10, 231168, Note_on_c, 3, 72, 0
10, 231168, Note_on_c, 3, 77, 78
10, 231168, Note_on_c, 3, 72, 78
10, 231360, Note_on_c, 3, 72, 0
10, 231360, Note_on_c, 3, 77, 0
10, 231360, Note_on_c, 3, 75, 78
10, 231360, Note_on_c, 3, 72, 78
10, 231552, Note_on_c, 3, 72, 0
10, 231552, Note_on_c, 3, 75, 0
10, 231552, Note_on_c, 3, 73, 78
10, 231552, Note_on_c, 3, 71, 78
10, 231648, Note_on_c, 3, 71, 0
10, 231648, Note_on_c, 3, 73, 0
10, 231648, Note_on_c, 3, 73, 78
10, 231648, Note_on_c, 3, 71, 78
10, 231696, Note_on_c, 3, 71, 0
10, 231696, Note_on_c, 3, 73, 0
10, 231696, Note_on_c, 3, 71, 78
10, 231696, Note_on_c, 3, 73, 78
10, 231744, Note_on_c, 3, 73, 0
10, 231744, Note_on_c, 3, 71, 0
10, 231744, Note_on_c, 3, 73, 78
10, 231744, Note_on_c, 3, 71, 78
10, 231840, Note_on_c, 3, 71, 0
10, 231840, Note_on_c, 3, 73, 0
10, 231840, Note_on_c, 3, 73, 78
10, 231840, Note_on_c, 3, 71, 78
10, 231936, Note_on_c, 3, 71, 0
10, 231936, Note_on_c, 3, 73, 0
10, 231936, Note_on_c, 3, 78, 78
10, 231936, Note_on_c, 3, 70, 78
10, 232128, Note_on_c, 3, 70, 0
10, 232128, Note_on_c, 3, 78, 0
10, 232128, Note_on_c, 3, 80, 78
10, 232128, Note_on_c, 3, 73, 78
10, 232320, Note_on_c, 3, 73, 0
10, 232320, Note_on_c, 3, 80, 0
10, 232320, Note_on_c, 3, 82, 78
10, 232320, Note_on_c, 3, 78, 78
10, 232512, Note_on_c, 3, 78, 0
10, 232512, Note_on_c, 3, 82, 0
10, 232512, Note_on_c, 3, 73, 78
10, 232512, Note_on_c, 3, 80, 78
10, 232704, Note_on_c, 3, 80, 0
10, 232704, Note_on_c, 3, 73, 0
10, 232704, Note_on_c, 3, 73, 78
10, 232704, Note_on_c, 3, 78, 78
10, 232896, Note_on_c, 3, 78, 0
10, 232896, Note_on_c, 3, 73, 0
10, 232896, Note_on_c, 3, 73, 78
10, 232896, Note_on_c, 3, 77, 78
10, 233088, Note_on_c, 3, 77, 0
10, 233088, Note_on_c, 3, 73, 0
10, 233088, Note_on_c, 3, 75, 78
10, 233088, Note_on_c, 3, 73, 78
10, 233184, Note_on_c, 3, 73, 0
10, 233184, Note_on_c, 3, 75, 0
10, 233184, Note_on_c, 3, 73, 78
10, 233184, Note_on_c, 3, 75, 56
10, 233232, Note_on_c, 3, 75, 0
10, 233232, Note_on_c, 3, 73, 0
10, 233232, Note_on_c, 3, 75, 56
10, 233232, Note_on_c, 3, 73, 56
10, 233280, Note_on_c, 3, 73, 0
10, 233280, Note_on_c, 3, 75, 0
10, 233280, Note_on_c, 3, 73, 56
10, 233280, Note_on_c, 3, 75, 56
10, 233376, Note_on_c, 3, 75, 0
10, 233376, Note_on_c, 3, 73, 0
10, 233376, Note_on_c, 3, 75, 56
10, 233376, Note_on_c, 3, 73, 56
10, 233472, Note_on_c, 3, 73, 0
10, 233472, Note_on_c, 3, 75, 0
10, 233472, Note_on_c, 3, 72, 78
10, 233472, Note_on_c, 3, 80, 78
10, 233664, Note_on_c, 3, 80, 0
10, 233664, Note_on_c, 3, 72, 0
10, 233664, Note_on_c, 3, 82, 78
10, 233664, Note_on_c, 3, 75, 78
10, 233856, Note_on_c, 3, 75, 0
10, 233856, Note_on_c, 3, 82, 0
10, 233856, Note_on_c, 3, 81, 78
10, 233856, Note_on_c, 3, 84, 78
10, 233952, Note_on_c, 3, 84, 0
10, 233952, Note_on_c, 3, 81, 0
10, 233952, Note_on_c, 3, 77, 78
10, 234000, Note_on_c, 3, 77, 0
10, 234000, Note_on_c, 3, 77, 78
10, 234048, Note_on_c, 3, 77, 0
10, 234048, Note_on_c, 3, 77, 78
10, 234144, Note_on_c, 3, 77, 0
10, 234144, Note_on_c, 3, 77, 78
10, 234240, Note_on_c, 3, 77, 0
10, 234240, Note_on_c, 3, 74, 78
10, 234240, Note_on_c, 3, 82, 78
10, 234432, Note_on_c, 3, 82, 0
10, 234432, Note_on_c, 3, 74, 0
10, 234432, Note_on_c, 3, 84, 78
10, 234432, Note_on_c, 3, 77, 78
10, 234624, Note_on_c, 3, 77, 0
10, 234624, Note_on_c, 3, 84, 0
10, 234624, Note_on_c, 3, 83, 78
10, 234624, Note_on_c, 3, 86, 78
10, 234720, Note_on_c, 3, 86, 0
10, 234720, Note_on_c, 3, 83, 0
10, 234720, Note_on_c, 3, 79, 78
10, 234768, Note_on_c, 3, 79, 0
10, 234768, Note_on_c, 3, 79, 78
10, 234816, Note_on_c, 3, 79, 0
10, 234816, Note_on_c, 3, 79, 78
10, 234912, Note_on_c, 3, 79, 0
10, 234912, Note_on_c, 3, 79, 78
10, 235008, Note_on_c, 3, 79, 0
10, 235008, Note_on_c, 3, 75, 78
10, 235008, Note_on_c, 3, 84, 78
10, 235200, Note_on_c, 3, 84, 0
10, 235200, Note_on_c, 3, 75, 0
10, 235200, Note_on_c, 3, 86, 78
10, 235200, Note_on_c, 3, 79, 78
10, 235392, Note_on_c, 3, 79, 0
10, 235392, Note_on_c, 3, 86, 0
10, 235392, Note_on_c, 3, 87, 78
10, 235392, Note_on_c, 3, 84, 78
10, 235488, Note_on_c, 3, 84, 0
10, 235488, Note_on_c, 3, 87, 0
10, 235488, Note_on_c, 3, 80, 78
10, 235536, Note_on_c, 3, 80, 0
10, 235536, Note_on_c, 3, 80, 78
10, 235584, Note_on_c, 3, 80, 0
10, 235584, Note_on_c, 3, 80, 78
10, 235680, Note_on_c, 3, 80, 0
10, 235680, Note_on_c, 3, 80, 78
10, 235776, Note_on_c, 3, 80, 0
10, 235776, Note_on_c, 3, 77, 56
10, 235968, Note_on_c, 3, 77, 0
10, 235968, Note_on_c, 3, 80, 56
10, 236160, Note_on_c, 3, 80, 0
10, 236160, Note_on_c, 3, 86, 56
10, 236256, Note_on_c, 3, 86, 0
10, 236544, Note_on_c, 3, 82, 78
10, 236544, Note_on_c, 3, 87, 78
10, 236640, Note_on_c, 3, 87, 0
10, 236640, Note_on_c, 3, 82, 0
10, 236640, Note_on_c, 3, 86, 78
10, 236640, Note_on_c, 3, 80, 78
10, 236736, Note_on_c, 3, 80, 0
10, 236736, Note_on_c, 3, 86, 0
10, 236736, Note_on_c, 3, 84, 78
10, 236736, Note_on_c, 3, 79, 78
10, 236832, Note_on_c, 3, 79, 0
10, 236832, Note_on_c, 3, 84, 0
10, 236832, Note_on_c, 3, 82, 78
10, 236832, Note_on_c, 3, 77, 78
10, 236928, Note_on_c, 3, 77, 0
10, 236928, Note_on_c, 3, 82, 0
10, 236928, Note_on_c, 3, 84, 78
10, 236928, Note_on_c, 3, 80, 78
10, 237024, Note_on_c, 3, 80, 0
10, 237024, Note_on_c, 3, 84, 0
10, 237024, Note_on_c, 3, 79, 78
10, 237024, Note_on_c, 3, 82, 78
10, 237120, Note_on_c, 3, 82, 0
10, 237120, Note_on_c, 3, 79, 0
10, 237120, Note_on_c, 3, 77, 78
10, 237120, Note_on_c, 3, 80, 78
10, 237216, Note_on_c, 3, 80, 0
10, 237216, Note_on_c, 3, 77, 0
10, 237216, Note_on_c, 3, 75, 78
10, 237216, Note_on_c, 3, 79, 78
10, 237312, Note_on_c, 3, 79, 0
10, 237312, Note_on_c, 3, 75, 0
10, 237312, Note_on_c, 3, 80, 78
10, 237312, Note_on_c, 3, 84, 78
10, 237408, Note_on_c, 3, 84, 0
10, 237408, Note_on_c, 3, 80, 0
10, 237408, Note_on_c, 3, 79, 78
10, 237408, Note_on_c, 3, 82, 78
10, 237504, Note_on_c, 3, 82, 0
10, 237504, Note_on_c, 3, 79, 0
10, 237504, Note_on_c, 3, 80, 78
10, 237504, Note_on_c, 3, 77, 78
10, 237600, Note_on_c, 3, 77, 0
10, 237600, Note_on_c, 3, 80, 0
10, 237600, Note_on_c, 3, 79, 78
10, 237600, Note_on_c, 3, 75, 78
10, 237696, Note_on_c, 3, 75, 0
10, 237696, Note_on_c, 3, 79, 0
10, 237696, Note_on_c, 3, 80, 78
10, 237792, Note_on_c, 3, 80, 0
10, 237792, Note_on_c, 3, 75, 78
10, 237792, Note_on_c, 3, 79, 78
10, 237888, Note_on_c, 3, 79, 0
10, 237888, Note_on_c, 3, 75, 0
10, 237888, Note_on_c, 3, 77, 78
10, 237888, Note_on_c, 3, 74, 78
10, 237984, Note_on_c, 3, 74, 0
10, 237984, Note_on_c, 3, 77, 0
10, 237984, Note_on_c, 3, 75, 78
10, 237984, Note_on_c, 3, 72, 78
10, 238080, Note_on_c, 3, 72, 0
10, 238080, Note_on_c, 3, 75, 0
10, 238080, Note_on_c, 3, 74, 78
10, 238080, Note_on_c, 3, 70, 78
10, 238176, Note_on_c, 3, 70, 0
10, 238176, Note_on_c, 3, 74, 0
10, 238176, Note_on_c, 3, 75, 78
10, 238176, Note_on_c, 3, 72, 78
10, 238272, Note_on_c, 3, 72, 0
10, 238272, Note_on_c, 3, 75, 0
10, 238272, Note_on_c, 3, 74, 78
10, 238272, Note_on_c, 3, 77, 78
10, 238368, Note_on_c, 3, 77, 0
10, 238368, Note_on_c, 3, 74, 0
10, 238368, Note_on_c, 3, 79, 78
10, 238368, Note_on_c, 3, 75, 78
10, 238464, Note_on_c, 3, 75, 0
10, 238464, Note_on_c, 3, 79, 0
10, 238464, Note_on_c, 3, 77, 78
10, 238464, Note_on_c, 3, 80, 78
10, 238560, Note_on_c, 3, 80, 0
10, 238560, Note_on_c, 3, 77, 0
10, 238560, Note_on_c, 3, 82, 78
10, 238560, Note_on_c, 3, 79, 78
10, 238656, Note_on_c, 3, 79, 0
10, 238656, Note_on_c, 3, 82, 0
10, 238656, Note_on_c, 3, 82, 78
10, 238656, Note_on_c, 3, 87, 78
10, 238752, Note_on_c, 3, 87, 0
10, 238752, Note_on_c, 3, 82, 0
10, 238752, Note_on_c, 3, 82, 78
10, 238752, Note_on_c, 3, 87, 78
10, 238776, Note_on_c, 3, 87, 0
10, 238776, Note_on_c, 3, 82, 0
10, 238848, Note_on_c, 3, 82, 78
10, 238848, Note_on_c, 3, 87, 78
10, 238944, Note_on_c, 3, 87, 0
10, 238944, Note_on_c, 3, 82, 0
10, 238944, Note_on_c, 3, 86, 78
10, 238944, Note_on_c, 3, 80, 78
10, 239040, Note_on_c, 3, 80, 0
10, 239040, Note_on_c, 3, 86, 0
10, 239040, Note_on_c, 3, 84, 78
10, 239040, Note_on_c, 3, 79, 78
10, 239136, Note_on_c, 3, 79, 0
10, 239136, Note_on_c, 3, 84, 0
10, 239136, Note_on_c, 3, 82, 78
10, 239136, Note_on_c, 3, 77, 78
10, 239232, Note_on_c, 3, 77, 0
10, 239232, Note_on_c, 3, 82, 0
10, 239232, Note_on_c, 3, 84, 78
10, 239232, Note_on_c, 3, 79, 78
10, 239328, Note_on_c, 3, 79, 0
10, 239328, Note_on_c, 3, 84, 0
10, 239328, Note_on_c, 3, 82, 78
10, 239328, Note_on_c, 3, 77, 78
10, 239424, Note_on_c, 3, 77, 0
10, 239424, Note_on_c, 3, 82, 0
10, 239424, Note_on_c, 3, 75, 78
10, 239424, Note_on_c, 3, 80, 78
10, 239520, Note_on_c, 3, 80, 0
10, 239520, Note_on_c, 3, 75, 0
10, 239520, Note_on_c, 3, 74, 78
10, 239520, Note_on_c, 3, 79, 78
10, 239616, Note_on_c, 3, 79, 0
10, 239616, Note_on_c, 3, 74, 0
10, 239616, Note_on_c, 3, 72, 78
10, 239616, Note_on_c, 3, 77, 78
10, 239808, Note_on_c, 3, 77, 0
10, 239808, Note_on_c, 3, 72, 0
10, 239808, Note_on_c, 3, 82, 78
10, 239808, Note_on_c, 3, 84, 78
10, 240000, Note_on_c, 3, 84, 0
10, 240000, Note_on_c, 3, 82, 0
10, 240000, Note_on_c, 3, 80, 78
10, 240000, Note_on_c, 3, 84, 78
10, 240192, Note_on_c, 3, 84, 0
10, 240192, Note_on_c, 3, 80, 0
10, 240192, Note_on_c, 3, 84, 78
10, 240192, Note_on_c, 3, 79, 78
10, 240384, Note_on_c, 3, 79, 0
10, 240384, Note_on_c, 3, 84, 0
10, 240384, Note_on_c, 3, 77, 78
10, 240384, Note_on_c, 3, 80, 78
10, 240576, Note_on_c, 3, 80, 0
10, 240576, Note_on_c, 3, 77, 0
10, 240576, Note_on_c, 3, 81, 78
10, 240576, Note_on_c, 3, 77, 78
10, 240768, Note_on_c, 3, 77, 0
10, 240768, Note_on_c, 3, 81, 0
10, 240768, Note_on_c, 3, 82, 78
10, 240768, Note_on_c, 3, 77, 78
10, 240960, Note_on_c, 3, 77, 0
10, 240960, Note_on_c, 3, 82, 0
10, 240960, Note_on_c, 3, 77, 78
10, 240960, Note_on_c, 3, 84, 78
10, 241152, Note_on_c, 3, 84, 0
10, 241152, Note_on_c, 3, 77, 0
10, 241152, Note_on_c, 3, 82, 78
10, 241152, Note_on_c, 3, 86, 78
10, 241344, Note_on_c, 3, 86, 0
10, 241344, Note_on_c, 3, 82, 0
10, 241344, Note_on_c, 3, 82, 78
10, 241344, Note_on_c, 3, 87, 78
10, 241536, Note_on_c, 3, 87, 0
10, 241536, Note_on_c, 3, 82, 0
10, 241536, Note_on_c, 3, 86, 78
10, 241536, Note_on_c, 3, 82, 78
10, 241728, Note_on_c, 3, 82, 0
10, 241728, Note_on_c, 3, 86, 0
10, 241728, Note_on_c, 3, 82, 78
10, 241728, Note_on_c, 3, 87, 78
10, 241920, Note_on_c, 3, 87, 0
10, 241920, Note_on_c, 3, 82, 0
10, 241920, Note_on_c, 3, 80, 78
10, 241920, Note_on_c, 3, 77, 78
10, 242112, Note_on_c, 3, 77, 0
10, 242112, Note_on_c, 3, 80, 0
10, 242112, Note_on_c, 3, 87, 78
10, 242112, Note_on_c, 3, 81, 78
10, 242304, Note_on_c, 3, 81, 0
10, 242304, Note_on_c, 3, 87, 0
10, 242304, Note_on_c, 3, 86, 78
10, 242304, Note_on_c, 3, 82, 78
10, 242400, Note_on_c, 3, 82, 0
10, 242400, Note_on_c, 3, 86, 0
10, 242400, Note_on_c, 3, 68, 78
10, 242400, Note_on_c, 3, 80, 78
10, 242496, Note_on_c, 3, 80, 0
10, 242496, Note_on_c, 3, 68, 0
10, 242496, Note_on_c, 3, 79, 78
10, 242496, Note_on_c, 3, 67, 78
10, 242592, Note_on_c, 3, 67, 0
10, 242592, Note_on_c, 3, 79, 0
10, 242592, Note_on_c, 3, 77, 78
10, 242592, Note_on_c, 3, 65, 78
10, 242688, Note_on_c, 3, 65, 0
10, 242688, Note_on_c, 3, 77, 0
10, 242688, Note_on_c, 3, 67, 78
10, 242688, Note_on_c, 3, 79, 78
10, 242784, Note_on_c, 3, 79, 0
10, 242784, Note_on_c, 3, 67, 0
10, 242784, Note_on_c, 3, 77, 78
10, 242784, Note_on_c, 3, 65, 78
10, 242880, Note_on_c, 3, 65, 0
10, 242880, Note_on_c, 3, 77, 0
10, 242880, Note_on_c, 3, 75, 78
10, 242880, Note_on_c, 3, 63, 78
10, 242976, Note_on_c, 3, 63, 0
10, 242976, Note_on_c, 3, 75, 0
10, 242976, Note_on_c, 3, 62, 78
10, 242976, Note_on_c, 3, 74, 78
10, 243072, Note_on_c, 3, 74, 0
10, 243072, Note_on_c, 3, 62, 0
10, 243072, Note_on_c, 3, 77, 78
10, 243072, Note_on_c, 3, 65, 78
10, 243168, Note_on_c, 3, 65, 0
10, 243168, Note_on_c, 3, 77, 0
10, 243168, Note_on_c, 3, 63, 78
10, 243168, Note_on_c, 3, 75, 78
10, 243264, Note_on_c, 3, 75, 0
10, 243264, Note_on_c, 3, 63, 0
10, 243264, Note_on_c, 3, 74, 78
10, 243264, Note_on_c, 3, 62, 78
10, 243360, Note_on_c, 3, 62, 0
10, 243360, Note_on_c, 3, 74, 0
10, 243360, Note_on_c, 3, 60, 78
10, 243360, Note_on_c, 3, 72, 78
10, 243456, Note_on_c, 3, 72, 0
10, 243456, Note_on_c, 3, 60, 0
10, 243456, Note_on_c, 3, 75, 78
10, 243552, Note_on_c, 3, 75, 0
10, 243552, Note_on_c, 3, 74, 78
10, 243648, Note_on_c, 3, 74, 0
10, 243648, Note_on_c, 3, 72, 71
10, 243744, Note_on_c, 3, 72, 0
10, 243744, Note_on_c, 3, 70, 78
10, 243840, Note_on_c, 3, 70, 0
10, 243840, Note_on_c, 3, 79, 78
10, 243936, Note_on_c, 3, 79, 0
10, 243936, Note_on_c, 3, 77, 78
10, 244032, Note_on_c, 3, 77, 0
10, 244032, Note_on_c, 3, 75, 78
10, 244128, Note_on_c, 3, 75, 0
10, 244128, Note_on_c, 3, 74, 78
10, 244224, Note_on_c, 3, 74, 0
10, 244224, Note_on_c, 3, 77, 78
10, 244320, Note_on_c, 3, 77, 0
10, 244320, Note_on_c, 3, 75, 78
10, 244416, Note_on_c, 3, 75, 0
10, 244416, Note_on_c, 3, 74, 78
10, 244512, Note_on_c, 3, 74, 0
10, 244512, Note_on_c, 3, 72, 78
10, 244608, Note_on_c, 3, 72, 0
10, 244608, Note_on_c, 3, 75, 78
10, 244704, Note_on_c, 3, 75, 0
10, 244704, Note_on_c, 3, 74, 78
10, 244800, Note_on_c, 3, 74, 0
10, 244800, Note_on_c, 3, 72, 78
10, 244896, Note_on_c, 3, 72, 0
10, 244896, Note_on_c, 3, 70, 78
10, 244992, Note_on_c, 3, 70, 0
10, 244992, Note_on_c, 3, 74, 78
10, 245088, Note_on_c, 3, 74, 0
10, 245088, Note_on_c, 3, 72, 78
10, 245184, Note_on_c, 3, 72, 0
10, 245184, Note_on_c, 3, 70, 78
10, 245280, Note_on_c, 3, 70, 0
10, 245280, Note_on_c, 3, 68, 78
10, 245376, Note_on_c, 3, 68, 0
10, 245376, Note_on_c, 3, 77, 78
10, 245472, Note_on_c, 3, 77, 0
10, 245472, Note_on_c, 3, 75, 78
10, 245568, Note_on_c, 3, 75, 0
10, 245568, Note_on_c, 3, 74, 78
10, 245664, Note_on_c, 3, 74, 0
10, 245664, Note_on_c, 3, 72, 78
10, 245760, Note_on_c, 3, 72, 0
10, 245760, Note_on_c, 3, 75, 78
10, 245856, Note_on_c, 3, 75, 0
10, 245856, Note_on_c, 3, 74, 78
10, 245952, Note_on_c, 3, 74, 0
10, 245952, Note_on_c, 3, 72, 78
10, 246048, Note_on_c, 3, 72, 0
10, 246048, Note_on_c, 3, 70, 78
10, 246144, Note_on_c, 3, 70, 0
10, 246144, Note_on_c, 3, 75, 78
10, 246240, Note_on_c, 3, 75, 0
10, 246240, Note_on_c, 3, 74, 78
10, 246336, Note_on_c, 3, 74, 0
10, 246336, Note_on_c, 3, 72, 78
10, 246432, Note_on_c, 3, 72, 0
10, 246432, Note_on_c, 3, 70, 78
10, 246528, Note_on_c, 3, 70, 0
10, 246528, Note_on_c, 3, 74, 78
10, 246624, Note_on_c, 3, 74, 0
10, 246624, Note_on_c, 3, 72, 78
10, 246720, Note_on_c, 3, 72, 0
10, 246720, Note_on_c, 3, 70, 78
10, 246816, Note_on_c, 3, 70, 0
10, 246816, Note_on_c, 3, 68, 78
10, 246912, Note_on_c, 3, 68, 0
10, 246912, Note_on_c, 3, 74, 78
10, 247008, Note_on_c, 3, 74, 0
10, 247008, Note_on_c, 3, 72, 78
10, 247104, Note_on_c, 3, 72, 0
10, 247104, Note_on_c, 3, 70, 78
10, 247200, Note_on_c, 3, 70, 0
10, 247200, Note_on_c, 3, 68, 78
10, 247296, Note_on_c, 3, 68, 0
10, 247296, Note_on_c, 3, 72, 78
10, 247392, Note_on_c, 3, 72, 0
10, 247392, Note_on_c, 3, 70, 78
10, 247488, Note_on_c, 3, 70, 0
10, 247488, Note_on_c, 3, 68, 78
10, 247584, Note_on_c, 3, 68, 0
10, 247584, Note_on_c, 3, 67, 78
10, 247680, Note_on_c, 3, 67, 0
10, 247680, Note_on_c, 3, 72, 78
10, 247776, Note_on_c, 3, 72, 0
10, 247776, Note_on_c, 3, 70, 78
10, 247872, Note_on_c, 3, 70, 0
10, 247872, Note_on_c, 3, 68, 78
10, 247968, Note_on_c, 3, 68, 0
10, 247968, Note_on_c, 3, 67, 78
10, 248064, Note_on_c, 3, 67, 0
10, 248064, Note_on_c, 3, 70, 78
10, 248160, Note_on_c, 3, 70, 0
10, 248160, Note_on_c, 3, 68, 78
10, 248256, Note_on_c, 3, 68, 0
10, 248256, Note_on_c, 3, 67, 78
10, 248352, Note_on_c, 3, 67, 0
10, 248352, Note_on_c, 3, 65, 78
10, 248448, Note_on_c, 3, 65, 0
10, 248448, Note_on_c, 3, 70, 78
10, 248544, Note_on_c, 3, 70, 0
10, 248544, Note_on_c, 3, 68, 78
10, 248640, Note_on_c, 3, 68, 0
10, 248640, Note_on_c, 3, 67, 78
10, 248736, Note_on_c, 3, 67, 0
10, 248736, Note_on_c, 3, 65, 78
10, 248832, Note_on_c, 3, 65, 0
10, 248832, Note_on_c, 3, 68, 78
10, 248928, Note_on_c, 3, 68, 0
10, 248928, Note_on_c, 3, 67, 78
10, 249024, Note_on_c, 3, 67, 0
10, 249024, Note_on_c, 3, 65, 78
10, 249120, Note_on_c, 3, 65, 0
10, 249120, Note_on_c, 3, 63, 78
10, 249216, Note_on_c, 3, 63, 0
10, 249216, Note_on_c, 3, 68, 78
10, 249312, Note_on_c, 3, 68, 0
10, 249312, Note_on_c, 3, 67, 78
10, 249408, Note_on_c, 3, 67, 0
10, 249408, Note_on_c, 3, 65, 78
10, 249504, Note_on_c, 3, 65, 0
10, 249504, Note_on_c, 3, 63, 78
10, 249600, Note_on_c, 3, 63, 0
10, 249600, Note_on_c, 3, 67, 78
10, 249696, Note_on_c, 3, 67, 0
10, 249696, Note_on_c, 3, 65, 78
10, 249792, Note_on_c, 3, 65, 0
10, 249792, Note_on_c, 3, 63, 78
10, 249888, Note_on_c, 3, 63, 0
10, 249888, Note_on_c, 3, 62, 78
10, 249984, Note_on_c, 3, 62, 0
10, 249984, Note_on_c, 3, 67, 78
10, 250080, Note_on_c, 3, 67, 0
10, 250080, Note_on_c, 3, 65, 78
10, 250176, Note_on_c, 3, 65, 0
10, 250176, Note_on_c, 3, 63, 78
10, 250272, Note_on_c, 3, 63, 0
10, 250272, Note_on_c, 3, 62, 78
10, 250368, Note_on_c, 3, 62, 0
10, 250368, Note_on_c, 3, 65, 78
10, 250368, Note_on_c, 3, 77, 78
10, 250464, Note_on_c, 3, 77, 0
10, 250464, Note_on_c, 3, 65, 0
10, 250464, Note_on_c, 3, 63, 78
10, 250464, Note_on_c, 3, 75, 78
10, 250560, Note_on_c, 3, 75, 0
10, 250560, Note_on_c, 3, 63, 0
10, 250560, Note_on_c, 3, 62, 78
10, 250560, Note_on_c, 3, 74, 78
10, 250656, Note_on_c, 3, 74, 0
10, 250656, Note_on_c, 3, 62, 0
10, 250656, Note_on_c, 3, 60, 78
10, 250656, Note_on_c, 3, 72, 78
10, 250752, Note_on_c, 3, 72, 0
10, 250752, Note_on_c, 3, 60, 0
10, 250752, Note_on_c, 3, 65, 78
10, 250752, Note_on_c, 3, 77, 78
10, 250848, Note_on_c, 3, 77, 0
10, 250848, Note_on_c, 3, 65, 0
10, 250848, Note_on_c, 3, 63, 78
10, 250848, Note_on_c, 3, 75, 78
10, 250944, Note_on_c, 3, 75, 0
10, 250944, Note_on_c, 3, 63, 0
10, 250944, Note_on_c, 3, 74, 78
10, 250944, Note_on_c, 3, 62, 78
10, 251040, Note_on_c, 3, 62, 0
10, 251040, Note_on_c, 3, 74, 0
10, 251040, Note_on_c, 3, 60, 78
10, 251040, Note_on_c, 3, 72, 78
10, 251136, Note_on_c, 3, 72, 0
10, 251136, Note_on_c, 3, 60, 0
10, 251136, Note_on_c, 3, 75, 78
10, 251232, Note_on_c, 3, 75, 0
10, 251232, Note_on_c, 3, 74, 78
10, 251328, Note_on_c, 3, 74, 0
10, 251328, Note_on_c, 3, 72, 78
10, 251424, Note_on_c, 3, 72, 0
10, 251424, Note_on_c, 3, 70, 78
10, 251520, Note_on_c, 3, 70, 0
10, 251520, Note_on_c, 3, 75, 78
10, 251616, Note_on_c, 3, 75, 0
10, 251616, Note_on_c, 3, 74, 73
10, 251712, Note_on_c, 3, 74, 0
10, 251712, Note_on_c, 3, 72, 78
10, 251808, Note_on_c, 3, 72, 0
10, 251808, Note_on_c, 3, 70, 78
10, 251904, Note_on_c, 3, 70, 0
10, 251904, Note_on_c, 3, 75, 78
10, 252000, Note_on_c, 3, 75, 0
10, 252000, Note_on_c, 3, 74, 78
10, 252096, Note_on_c, 3, 74, 0
10, 252096, Note_on_c, 3, 72, 78
10, 252192, Note_on_c, 3, 72, 0
10, 252192, Note_on_c, 3, 70, 78
10, 252288, Note_on_c, 3, 70, 0
10, 252288, Note_on_c, 3, 74, 78
10, 252384, Note_on_c, 3, 74, 0
10, 252384, Note_on_c, 3, 72, 78
10, 252480, Note_on_c, 3, 72, 0
10, 252480, Note_on_c, 3, 70, 78
10, 252576, Note_on_c, 3, 70, 0
10, 252576, Note_on_c, 3, 68, 78
10, 252672, Note_on_c, 3, 68, 0
10, 252672, Note_on_c, 3, 74, 78
10, 252768, Note_on_c, 3, 74, 0
10, 252768, Note_on_c, 3, 72, 78
10, 252864, Note_on_c, 3, 72, 0
10, 252864, Note_on_c, 3, 70, 78
10, 252960, Note_on_c, 3, 70, 0
10, 252960, Note_on_c, 3, 68, 78
10, 253056, Note_on_c, 3, 68, 0
10, 253056, Note_on_c, 3, 74, 78
10, 253152, Note_on_c, 3, 74, 0
10, 253152, Note_on_c, 3, 72, 78
10, 253248, Note_on_c, 3, 72, 0
10, 253248, Note_on_c, 3, 70, 78
10, 253344, Note_on_c, 3, 70, 0
10, 253344, Note_on_c, 3, 68, 78
10, 253440, Note_on_c, 3, 68, 0
10, 253440, Note_on_c, 3, 72, 78
10, 253536, Note_on_c, 3, 72, 0
10, 253536, Note_on_c, 3, 70, 78
10, 253632, Note_on_c, 3, 70, 0
10, 253632, Note_on_c, 3, 68, 78
10, 253728, Note_on_c, 3, 68, 0
10, 253728, Note_on_c, 3, 67, 78
10, 253824, Note_on_c, 3, 67, 0
10, 253824, Note_on_c, 3, 72, 78
10, 253920, Note_on_c, 3, 72, 0
10, 253920, Note_on_c, 3, 70, 78
10, 254016, Note_on_c, 3, 70, 0
10, 254016, Note_on_c, 3, 68, 78
10, 254112, Note_on_c, 3, 68, 0
10, 254112, Note_on_c, 3, 67, 78
10, 254208, Note_on_c, 3, 67, 0
10, 254208, Note_on_c, 3, 72, 78
10, 254304, Note_on_c, 3, 72, 0
10, 254304, Note_on_c, 3, 70, 78
10, 254400, Note_on_c, 3, 70, 0
10, 254400, Note_on_c, 3, 68, 78
10, 254496, Note_on_c, 3, 68, 0
10, 254496, Note_on_c, 3, 67, 78
10, 254592, Note_on_c, 3, 67, 0
10, 254592, Note_on_c, 3, 70, 78
10, 254688, Note_on_c, 3, 70, 0
10, 254688, Note_on_c, 3, 68, 78
10, 254784, Note_on_c, 3, 68, 0
10, 254784, Note_on_c, 3, 67, 78
10, 254880, Note_on_c, 3, 67, 0
10, 254880, Note_on_c, 3, 65, 78
10, 254976, Note_on_c, 3, 65, 0
10, 254976, Note_on_c, 3, 70, 78
10, 255072, Note_on_c, 3, 70, 0
10, 255072, Note_on_c, 3, 68, 78
10, 255168, Note_on_c, 3, 68, 0
10, 255168, Note_on_c, 3, 67, 78
10, 255264, Note_on_c, 3, 67, 0
10, 255264, Note_on_c, 3, 65, 78
10, 255360, Note_on_c, 3, 65, 0
10, 255360, Note_on_c, 3, 70, 78
10, 255456, Note_on_c, 3, 70, 0
10, 255456, Note_on_c, 3, 68, 78
10, 255552, Note_on_c, 3, 68, 0
10, 255552, Note_on_c, 3, 67, 78
10, 255648, Note_on_c, 3, 67, 0
10, 255648, Note_on_c, 3, 65, 78
10, 255744, Note_on_c, 3, 65, 0
10, 255744, Note_on_c, 3, 68, 78
10, 255827, Note_on_c, 3, 68, 0
10, 255840, Note_on_c, 3, 67, 78
10, 255923, Note_on_c, 3, 67, 0
10, 255936, Note_on_c, 3, 65, 78
10, 256019, Note_on_c, 3, 65, 0
10, 256032, Note_on_c, 3, 63, 78
10, 256115, Note_on_c, 3, 63, 0
10, 256128, Note_on_c, 3, 68, 78
10, 256211, Note_on_c, 3, 68, 0
10, 256224, Note_on_c, 3, 67, 78
10, 256307, Note_on_c, 3, 67, 0
10, 256320, Note_on_c, 3, 65, 78
10, 256403, Note_on_c, 3, 65, 0
10, 256416, Note_on_c, 3, 63, 78
10, 256499, Note_on_c, 3, 63, 0
10, 256512, Note_on_c, 3, 68, 78
10, 256595, Note_on_c, 3, 68, 0
10, 256608, Note_on_c, 3, 67, 78
10, 256691, Note_on_c, 3, 67, 0
10, 256704, Note_on_c, 3, 65, 78
10, 256787, Note_on_c, 3, 65, 0
10, 256800, Note_on_c, 3, 63, 78
10, 256883, Note_on_c, 3, 63, 0
10, 256896, Note_on_c, 3, 67, 78
10, 256962, Note_on_c, 3, 67, 0
10, 256992, Note_on_c, 3, 65, 78
10, 257058, Note_on_c, 3, 65, 0
10, 257088, Note_on_c, 3, 63, 78
10, 257154, Note_on_c, 3, 63, 0
10, 257184, Note_on_c, 3, 62, 78
10, 257250, Note_on_c, 3, 62, 0
10, 257280, Note_on_c, 3, 67, 78
10, 257346, Note_on_c, 3, 67, 0
10, 257376, Note_on_c, 3, 65, 78
10, 257442, Note_on_c, 3, 65, 0
10, 257472, Note_on_c, 3, 63, 78
10, 257538, Note_on_c, 3, 63, 0
10, 257568, Note_on_c, 3, 62, 78
10, 257634, Note_on_c, 3, 62, 0
10, 257664, Note_on_c, 3, 67, 78
10, 257730, Note_on_c, 3, 67, 0
10, 257760, Note_on_c, 3, 65, 78
10, 257843, Note_on_c, 3, 65, 0
10, 257856, Note_on_c, 3, 70, 78
10, 257856, Note_on_c, 3, 75, 78
10, 257952, Note_on_c, 3, 75, 0
10, 257952, Note_on_c, 3, 70, 0
10, 257952, Note_on_c, 3, 75, 78
10, 257952, Note_on_c, 3, 70, 78
10, 258048, Note_on_c, 3, 70, 0
10, 258048, Note_on_c, 3, 75, 0
10, 258048, Note_on_c, 3, 77, 78
10, 258048, Note_on_c, 3, 74, 78
10, 258240, Note_on_c, 3, 74, 0
10, 258240, Note_on_c, 3, 77, 0
10, 258240, Note_on_c, 3, 75, 78
10, 258240, Note_on_c, 3, 79, 78
10, 258432, Note_on_c, 3, 79, 0
10, 258432, Note_on_c, 3, 75, 0
10, 258432, Note_on_c, 3, 70, 78
10, 258432, Note_on_c, 3, 75, 78
10, 258528, Note_on_c, 3, 75, 0
10, 258528, Note_on_c, 3, 70, 0
10, 258528, Note_on_c, 3, 70, 78
10, 258528, Note_on_c, 3, 75, 78
10, 258624, Note_on_c, 3, 75, 0
10, 258624, Note_on_c, 3, 70, 0
10, 258624, Note_on_c, 3, 77, 78
10, 258624, Note_on_c, 3, 74, 78
10, 258720, Note_on_c, 3, 74, 0
10, 258720, Note_on_c, 3, 77, 0
10, 258720, Note_on_c, 3, 75, 78
10, 258720, Note_on_c, 3, 79, 78
10, 258816, Note_on_c, 3, 79, 0
10, 258816, Note_on_c, 3, 75, 0
10, 258816, Note_on_c, 3, 80, 78
10, 258816, Note_on_c, 3, 75, 78
10, 258912, Note_on_c, 3, 75, 0
10, 258912, Note_on_c, 3, 80, 0
10, 258912, Note_on_c, 3, 75, 78
10, 258912, Note_on_c, 3, 80, 78
10, 259008, Note_on_c, 3, 80, 0
10, 259008, Note_on_c, 3, 75, 0
10, 259008, Note_on_c, 3, 80, 78
10, 259008, Note_on_c, 3, 75, 78
10, 259248, Note_on_c, 3, 75, 0
10, 259248, Note_on_c, 3, 80, 0
10, 259248, Note_on_c, 3, 63, 78
10, 259248, Note_on_c, 3, 68, 78
10, 259296, Note_on_c, 3, 68, 0
10, 259296, Note_on_c, 3, 63, 0
10, 259296, Note_on_c, 3, 70, 78
10, 259296, Note_on_c, 3, 65, 78
10, 259344, Note_on_c, 3, 65, 0
10, 259344, Note_on_c, 3, 70, 0
10, 259344, Note_on_c, 3, 67, 78
10, 259344, Note_on_c, 3, 72, 78
10, 259392, Note_on_c, 3, 72, 0
10, 259392, Note_on_c, 3, 67, 0
10, 259392, Note_on_c, 3, 68, 78
10, 259392, Note_on_c, 3, 73, 78
10, 259440, Note_on_c, 3, 73, 0
10, 259440, Note_on_c, 3, 68, 0
10, 259440, Note_on_c, 3, 75, 78
10, 259440, Note_on_c, 3, 70, 78
10, 259488, Note_on_c, 3, 70, 0
10, 259488, Note_on_c, 3, 75, 0
10, 259488, Note_on_c, 3, 72, 78
10, 259488, Note_on_c, 3, 77, 78
10, 259536, Note_on_c, 3, 77, 0
10, 259536, Note_on_c, 3, 72, 0
10, 259536, Note_on_c, 3, 79, 78
10, 259536, Note_on_c, 3, 73, 78
10, 259584, Note_on_c, 3, 73, 0
10, 259584, Note_on_c, 3, 79, 0
10, 259584, Note_on_c, 3, 75, 78
10, 259584, Note_on_c, 3, 80, 78
10, 259632, Note_on_c, 3, 80, 0
10, 259632, Note_on_c, 3, 75, 0
10, 259632, Note_on_c, 3, 79, 78
10, 259632, Note_on_c, 3, 73, 78
10, 259680, Note_on_c, 3, 73, 0
10, 259680, Note_on_c, 3, 79, 0
10, 259680, Note_on_c, 3, 77, 78
10, 259680, Note_on_c, 3, 72, 78
10, 259728, Note_on_c, 3, 72, 0
10, 259728, Note_on_c, 3, 77, 0
10, 259728, Note_on_c, 3, 75, 78
10, 259728, Note_on_c, 3, 70, 78
10, 259776, Note_on_c, 3, 70, 0
10, 259776, Note_on_c, 3, 75, 0
10, 259776, Note_on_c, 3, 84, 78
10, 259776, Note_on_c, 3, 79, 78
10, 259824, Note_on_c, 3, 79, 0
10, 259824, Note_on_c, 3, 84, 0
10, 259824, Note_on_c, 3, 82, 78
10, 259824, Note_on_c, 3, 77, 78
10, 259872, Note_on_c, 3, 77, 0
10, 259872, Note_on_c, 3, 82, 0
10, 259872, Note_on_c, 3, 75, 78
10, 259872, Note_on_c, 3, 80, 78
10, 259920, Note_on_c, 3, 80, 0
10, 259920, Note_on_c, 3, 75, 0
10, 259920, Note_on_c, 3, 79, 78
10, 259920, Note_on_c, 3, 74, 78
10, 259968, Note_on_c, 3, 74, 0
10, 259968, Note_on_c, 3, 79, 0
10, 259968, Note_on_c, 3, 77, 78
10, 259968, Note_on_c, 3, 77, 78
10, 259968, Note_on_c, 3, 72, 78
10, 260016, Note_on_c, 3, 72, 0
10, 260016, Note_on_c, 3, 77, 0
10, 260016, Note_on_c, 3, 77, 0
10, 260016, Note_on_c, 3, 75, 78
10, 260016, Note_on_c, 3, 70, 78
10, 260064, Note_on_c, 3, 70, 0
10, 260064, Note_on_c, 3, 75, 0
10, 260064, Note_on_c, 3, 74, 78
10, 260064, Note_on_c, 3, 68, 78
10, 260112, Note_on_c, 3, 68, 0
10, 260112, Note_on_c, 3, 74, 0
10, 260112, Note_on_c, 3, 67, 78
10, 260112, Note_on_c, 3, 72, 78
10, 260160, Note_on_c, 3, 72, 0
10, 260160, Note_on_c, 3, 67, 0
10, 260160, Note_on_c, 3, 65, 78
10, 260160, Note_on_c, 3, 70, 78
10, 260208, Note_on_c, 3, 70, 0
10, 260208, Note_on_c, 3, 65, 0
10, 260208, Note_on_c, 3, 68, 78
10, 260208, Note_on_c, 3, 63, 78
10, 260256, Note_on_c, 3, 63, 0
10, 260256, Note_on_c, 3, 68, 0
10, 260256, Note_on_c, 3, 62, 78
10, 260256, Note_on_c, 3, 67, 78
10, 260304, Note_on_c, 3, 67, 0
10, 260304, Note_on_c, 3, 62, 0
10, 260304, Note_on_c, 3, 60, 78
10, 260304, Note_on_c, 3, 65, 78
10, 260352, Note_on_c, 3, 65, 0
10, 260352, Note_on_c, 3, 60, 0
10, 260352, Note_on_c, 3, 75, 78
10, 260352, Note_on_c, 3, 79, 78
10, 260448, Note_on_c, 3, 79, 0
10, 260448, Note_on_c, 3, 75, 0
10, 260448, Note_on_c, 3, 79, 78
10, 260448, Note_on_c, 3, 75, 78
10, 260544, Note_on_c, 3, 75, 0
10, 260544, Note_on_c, 3, 79, 0
10, 260544, Note_on_c, 3, 79, 78
10, 260544, Note_on_c, 3, 75, 78
10, 260640, Note_on_c, 3, 75, 0
10, 260640, Note_on_c, 3, 79, 0
10, 260640, Note_on_c, 3, 75, 78
10, 260640, Note_on_c, 3, 79, 78
10, 260736, Note_on_c, 3, 79, 0
10, 260736, Note_on_c, 3, 75, 0
10, 260736, Note_on_c, 3, 79, 78
10, 260736, Note_on_c, 3, 75, 78
10, 261120, Note_on_c, 3, 75, 0
10, 261120, Note_on_c, 3, 79, 0
10, 261120, Note_on_c, 3, 79, 78
10, 261120, Note_on_c, 3, 75, 78
10, 261312, Note_on_c, 3, 75, 0
10, 261312, Note_on_c, 3, 79, 0
10, 261312, Note_on_c, 3, 79, 78
10, 261312, Note_on_c, 3, 75, 78
10, 261504, Note_on_c, 3, 75, 0
10, 261504, Note_on_c, 3, 79, 0
10, 261504, Note_on_c, 3, 74, 78
10, 261504, Note_on_c, 3, 77, 78
10, 261792, Note_on_c, 3, 77, 0
10, 261792, Note_on_c, 3, 74, 0
10, 261792, Note_on_c, 3, 77, 78
10, 261792, Note_on_c, 3, 74, 78
10, 261888, Note_on_c, 3, 74, 0
10, 261888, Note_on_c, 3, 77, 0
10, 261888, Note_on_c, 3, 77, 78
10, 261888, Note_on_c, 3, 74, 78
10, 261984, Note_on_c, 3, 74, 0
10, 261984, Note_on_c, 3, 77, 0
10, 261984, Note_on_c, 3, 74, 78
10, 261984, Note_on_c, 3, 77, 78
10, 262080, Note_on_c, 3, 77, 0
10, 262080, Note_on_c, 3, 74, 0
10, 262080, Note_on_c, 3, 75, 78
10, 262080, Note_on_c, 3, 79, 78
10, 262128, Note_on_c, 3, 79, 0
10, 262128, Note_on_c, 3, 75, 0
10, 262128, Note_on_c, 3, 63, 78
10, 262176, Note_on_c, 3, 63, 0
10, 262176, Note_on_c, 3, 65, 78
10, 262224, Note_on_c, 3, 65, 0
10, 262224, Note_on_c, 3, 67, 78
10, 262272, Note_on_c, 3, 67, 0
10, 262272, Note_on_c, 3, 68, 78
10, 262272, Note_on_c, 3, 63, 78
10, 262320, Note_on_c, 3, 63, 0
10, 262320, Note_on_c, 3, 68, 0
10, 262320, Note_on_c, 3, 70, 78
10, 262320, Note_on_c, 3, 65, 78
10, 262368, Note_on_c, 3, 65, 0
10, 262368, Note_on_c, 3, 70, 0
10, 262368, Note_on_c, 3, 67, 78
10, 262368, Note_on_c, 3, 72, 78
10, 262416, Note_on_c, 3, 72, 0
10, 262416, Note_on_c, 3, 67, 0
10, 262416, Note_on_c, 3, 74, 78
10, 262416, Note_on_c, 3, 68, 78
10, 262464, Note_on_c, 3, 68, 0
10, 262464, Note_on_c, 3, 74, 0
10, 262464, Note_on_c, 3, 75, 78
10, 262464, Note_on_c, 3, 70, 78
10, 262512, Note_on_c, 3, 70, 0
10, 262512, Note_on_c, 3, 75, 0
10, 262512, Note_on_c, 3, 68, 78
10, 262512, Note_on_c, 3, 74, 78
10, 262560, Note_on_c, 3, 74, 0
10, 262560, Note_on_c, 3, 68, 0
10, 262560, Note_on_c, 3, 67, 78
10, 262560, Note_on_c, 3, 72, 78
10, 262608, Note_on_c, 3, 72, 0
10, 262608, Note_on_c, 3, 67, 0
10, 262608, Note_on_c, 3, 65, 78
10, 262608, Note_on_c, 3, 70, 78
10, 262656, Note_on_c, 3, 70, 0
10, 262656, Note_on_c, 3, 65, 0
10, 262656, Note_on_c, 3, 79, 78
10, 262656, Note_on_c, 3, 74, 78
10, 262704, Note_on_c, 3, 74, 0
10, 262704, Note_on_c, 3, 79, 0
10, 262704, Note_on_c, 3, 77, 78
10, 262704, Note_on_c, 3, 72, 78
10, 262752, Note_on_c, 3, 72, 0
10, 262752, Note_on_c, 3, 77, 0
10, 262752, Note_on_c, 3, 70, 78
10, 262752, Note_on_c, 3, 75, 78
10, 262800, Note_on_c, 3, 75, 0
10, 262800, Note_on_c, 3, 70, 0
10, 262800, Note_on_c, 3, 74, 78
10, 262800, Note_on_c, 3, 68, 78
10, 262848, Note_on_c, 3, 68, 0
10, 262848, Note_on_c, 3, 74, 0
10, 262848, Note_on_c, 3, 77, 78
10, 262848, Note_on_c, 3, 72, 78
10, 262896, Note_on_c, 3, 72, 0
10, 262896, Note_on_c, 3, 77, 0
10, 262896, Note_on_c, 3, 70, 78
10, 262896, Note_on_c, 3, 75, 78
10, 262944, Note_on_c, 3, 75, 0
10, 262944, Note_on_c, 3, 70, 0
10, 262944, Note_on_c, 3, 68, 78
10, 262944, Note_on_c, 3, 74, 78
10, 262992, Note_on_c, 3, 74, 0
10, 262992, Note_on_c, 3, 68, 0
10, 262992, Note_on_c, 3, 72, 78
10, 262992, Note_on_c, 3, 67, 78
10, 263040, Note_on_c, 3, 67, 0
10, 263040, Note_on_c, 3, 72, 0
10, 263040, Note_on_c, 3, 75, 78
10, 263040, Note_on_c, 3, 70, 78
10, 263088, Note_on_c, 3, 70, 0
10, 263088, Note_on_c, 3, 75, 0
10, 263088, Note_on_c, 3, 68, 78
10, 263088, Note_on_c, 3, 74, 78
10, 263136, Note_on_c, 3, 74, 0
10, 263136, Note_on_c, 3, 68, 0
10, 263136, Note_on_c, 3, 72, 78
10, 263136, Note_on_c, 3, 67, 78
10, 263184, Note_on_c, 3, 67, 0
10, 263184, Note_on_c, 3, 72, 0
10, 263184, Note_on_c, 3, 70, 78
10, 263184, Note_on_c, 3, 65, 78
10, 263232, Note_on_c, 3, 65, 0
10, 263232, Note_on_c, 3, 70, 0
10, 263232, Note_on_c, 3, 72, 78
10, 263232, Note_on_c, 3, 67, 78
10, 263280, Note_on_c, 3, 67, 0
10, 263280, Note_on_c, 3, 72, 0
10, 263280, Note_on_c, 3, 65, 78
10, 263280, Note_on_c, 3, 70, 78
10, 263328, Note_on_c, 3, 70, 0
10, 263328, Note_on_c, 3, 65, 0
10, 263328, Note_on_c, 3, 63, 78
10, 263328, Note_on_c, 3, 68, 78
10, 263376, Note_on_c, 3, 68, 0
10, 263376, Note_on_c, 3, 63, 0
10, 263376, Note_on_c, 3, 67, 78
10, 263376, Note_on_c, 3, 62, 78
10, 263424, Note_on_c, 3, 62, 0
10, 263424, Note_on_c, 3, 67, 0
10, 263424, Note_on_c, 3, 65, 78
10, 263424, Note_on_c, 3, 70, 78
10, 263472, Note_on_c, 3, 70, 0
10, 263472, Note_on_c, 3, 65, 0
10, 263472, Note_on_c, 3, 63, 78
10, 263472, Note_on_c, 3, 68, 78
10, 263520, Note_on_c, 3, 68, 0
10, 263520, Note_on_c, 3, 63, 0
10, 263520, Note_on_c, 3, 67, 78
10, 263520, Note_on_c, 3, 62, 78
10, 263568, Note_on_c, 3, 62, 0
10, 263568, Note_on_c, 3, 67, 0
10, 263568, Note_on_c, 3, 60, 78
10, 263568, Note_on_c, 3, 65, 78
10, 263616, Note_on_c, 3, 65, 0
10, 263616, Note_on_c, 3, 60, 0
10, 263616, Note_on_c, 3, 72, 78
10, 263616, Note_on_c, 3, 75, 78
10, 263808, Note_on_c, 3, 75, 0
10, 263808, Note_on_c, 3, 72, 0
10, 263808, Note_on_c, 3, 77, 78
10, 263808, Note_on_c, 3, 74, 78
10, 264000, Note_on_c, 3, 74, 0
10, 264000, Note_on_c, 3, 77, 0
10, 264000, Note_on_c, 3, 79, 78
10, 264000, Note_on_c, 3, 75, 78
10, 264192, Note_on_c, 3, 75, 0
10, 264192, Note_on_c, 3, 79, 0
10, 264192, Note_on_c, 3, 70, 78
10, 264192, Note_on_c, 3, 75, 78
10, 264384, Note_on_c, 3, 75, 0
10, 264384, Note_on_c, 3, 70, 0
10, 264384, Note_on_c, 3, 74, 78
10, 264384, Note_on_c, 3, 77, 78
10, 264480, Note_on_c, 3, 77, 0
10, 264480, Note_on_c, 3, 74, 0
10, 264480, Note_on_c, 3, 79, 78
10, 264480, Note_on_c, 3, 75, 78
10, 264576, Note_on_c, 3, 75, 0
10, 264576, Note_on_c, 3, 79, 0
10, 264576, Note_on_c, 3, 75, 78
10, 264576, Note_on_c, 3, 80, 78
10, 264672, Note_on_c, 3, 80, 0
10, 264672, Note_on_c, 3, 75, 0
10, 264672, Note_on_c, 3, 80, 78
10, 264672, Note_on_c, 3, 75, 78
10, 264768, Note_on_c, 3, 75, 0
10, 264768, Note_on_c, 3, 80, 0
10, 264768, Note_on_c, 3, 80, 78
10, 264768, Note_on_c, 3, 75, 78
10, 264864, Note_on_c, 3, 75, 0
10, 264864, Note_on_c, 3, 80, 0
10, 264864, Note_on_c, 3, 80, 78
10, 264864, Note_on_c, 3, 75, 78
10, 264960, Note_on_c, 3, 75, 0
10, 264960, Note_on_c, 3, 80, 0
10, 264960, Note_on_c, 3, 80, 78
10, 264960, Note_on_c, 3, 75, 78
10, 265056, Note_on_c, 3, 75, 0
10, 265056, Note_on_c, 3, 80, 0
10, 265056, Note_on_c, 3, 80, 78
10, 265056, Note_on_c, 3, 75, 78
10, 265152, Note_on_c, 3, 75, 0
10, 265152, Note_on_c, 3, 80, 0
10, 265152, Note_on_c, 3, 75, 78
10, 265152, Note_on_c, 3, 80, 78
10, 265248, Note_on_c, 3, 80, 0
10, 265248, Note_on_c, 3, 75, 0
10, 265248, Note_on_c, 3, 75, 78
10, 265248, Note_on_c, 3, 80, 78
10, 265344, Note_on_c, 3, 80, 0
10, 265344, Note_on_c, 3, 75, 0
10, 265344, Note_on_c, 3, 80, 78
10, 265344, Note_on_c, 3, 75, 78
10, 265440, Note_on_c, 3, 75, 0
10, 265440, Note_on_c, 3, 80, 0
10, 265440, Note_on_c, 3, 80, 78
10, 265440, Note_on_c, 3, 75, 78
10, 265536, Note_on_c, 3, 75, 0
10, 265536, Note_on_c, 3, 80, 0
10, 265536, Note_on_c, 3, 80, 78
10, 265536, Note_on_c, 3, 75, 78
10, 265632, Note_on_c, 3, 75, 0
10, 265632, Note_on_c, 3, 80, 0
10, 265632, Note_on_c, 3, 80, 78
10, 265632, Note_on_c, 3, 75, 78
10, 265728, Note_on_c, 3, 75, 0
10, 265728, Note_on_c, 3, 80, 0
10, 265728, Note_on_c, 3, 75, 78
10, 265728, Note_on_c, 3, 80, 78
10, 265824, Note_on_c, 3, 80, 0
10, 265824, Note_on_c, 3, 75, 0
10, 265824, Note_on_c, 3, 75, 78
10, 265824, Note_on_c, 3, 79, 78
10, 265920, Note_on_c, 3, 79, 0
10, 265920, Note_on_c, 3, 75, 0
10, 265920, Note_on_c, 3, 75, 78
10, 265920, Note_on_c, 3, 80, 78
10, 266160, Note_on_c, 3, 80, 0
10, 266160, Note_on_c, 3, 75, 0
10, 266160, Note_on_c, 3, 68, 78
10, 266160, Note_on_c, 3, 63, 78
10, 266208, Note_on_c, 3, 63, 0
10, 266208, Note_on_c, 3, 68, 0
10, 266208, Note_on_c, 3, 65, 78
10, 266208, Note_on_c, 3, 70, 78
10, 266256, Note_on_c, 3, 70, 0
10, 266256, Note_on_c, 3, 65, 0
10, 266256, Note_on_c, 3, 67, 78
10, 266256, Note_on_c, 3, 72, 78
10, 266304, Note_on_c, 3, 72, 0
10, 266304, Note_on_c, 3, 67, 0
10, 266304, Note_on_c, 3, 68, 78
10, 266304, Note_on_c, 3, 73, 78
10, 266352, Note_on_c, 3, 73, 0
10, 266352, Note_on_c, 3, 68, 0
10, 266352, Note_on_c, 3, 70, 78
10, 266352, Note_on_c, 3, 75, 20
10, 266400, Note_on_c, 3, 75, 0
10, 266400, Note_on_c, 3, 70, 0
10, 266400, Note_on_c, 3, 72, 78
10, 266400, Note_on_c, 3, 77, 78
10, 266448, Note_on_c, 3, 77, 0
10, 266448, Note_on_c, 3, 72, 0
10, 266448, Note_on_c, 3, 73, 78
10, 266448, Note_on_c, 3, 79, 78
10, 266496, Note_on_c, 3, 79, 0
10, 266496, Note_on_c, 3, 73, 0
10, 266496, Note_on_c, 3, 75, 78
10, 266496, Note_on_c, 3, 80, 78
10, 266544, Note_on_c, 3, 80, 0
10, 266544, Note_on_c, 3, 75, 0
10, 266544, Note_on_c, 3, 77, 78
10, 266544, Note_on_c, 3, 82, 78
10, 266592, Note_on_c, 3, 82, 0
10, 266592, Note_on_c, 3, 77, 0
10, 266592, Note_on_c, 3, 75, 78
10, 266592, Note_on_c, 3, 80, 78
10, 266640, Note_on_c, 3, 80, 0
10, 266640, Note_on_c, 3, 75, 0
10, 266640, Note_on_c, 3, 74, 78
10, 266640, Note_on_c, 3, 80, 78
10, 266688, Note_on_c, 3, 80, 0
10, 266688, Note_on_c, 3, 74, 0
10, 266688, Note_on_c, 3, 72, 78
10, 266688, Note_on_c, 3, 77, 78
10, 266736, Note_on_c, 3, 77, 0
10, 266736, Note_on_c, 3, 72, 0
10, 266736, Note_on_c, 3, 74, 78
10, 266736, Note_on_c, 3, 79, 78
10, 266784, Note_on_c, 3, 79, 0
10, 266784, Note_on_c, 3, 74, 0
10, 266784, Note_on_c, 3, 72, 78
10, 266784, Note_on_c, 3, 77, 78
10, 266832, Note_on_c, 3, 77, 0
10, 266832, Note_on_c, 3, 72, 0
10, 266832, Note_on_c, 3, 70, 78
10, 266832, Note_on_c, 3, 75, 78
10, 266880, Note_on_c, 3, 75, 0
10, 266880, Note_on_c, 3, 70, 0
10, 266880, Note_on_c, 3, 74, 78
10, 266880, Note_on_c, 3, 68, 78
10, 266928, Note_on_c, 3, 68, 0
10, 266928, Note_on_c, 3, 74, 0
10, 266928, Note_on_c, 3, 70, 78
10, 266928, Note_on_c, 3, 75, 78
10, 266976, Note_on_c, 3, 75, 0
10, 266976, Note_on_c, 3, 70, 0
10, 266976, Note_on_c, 3, 74, 78
10, 266976, Note_on_c, 3, 68, 78
10, 267024, Note_on_c, 3, 68, 0
10, 267024, Note_on_c, 3, 74, 0
10, 267024, Note_on_c, 3, 72, 78
10, 267024, Note_on_c, 3, 67, 78
10, 267072, Note_on_c, 3, 67, 0
10, 267072, Note_on_c, 3, 72, 0
10, 267072, Note_on_c, 3, 70, 78
10, 267072, Note_on_c, 3, 65, 78
10, 267120, Note_on_c, 3, 65, 0
10, 267120, Note_on_c, 3, 70, 0
10, 267120, Note_on_c, 3, 72, 78
10, 267120, Note_on_c, 3, 67, 78
10, 267168, Note_on_c, 3, 67, 0
10, 267168, Note_on_c, 3, 72, 0
10, 267168, Note_on_c, 3, 65, 78
10, 267168, Note_on_c, 3, 70, 78
10, 267216, Note_on_c, 3, 70, 0
10, 267216, Note_on_c, 3, 65, 0
10, 267216, Note_on_c, 3, 63, 78
10, 267216, Note_on_c, 3, 68, 78
10, 267264, Note_on_c, 3, 68, 0
10, 267264, Note_on_c, 3, 63, 0
10, 267264, Note_on_c, 3, 79, 78
10, 267264, Note_on_c, 3, 75, 78
10, 267360, Note_on_c, 3, 75, 0
10, 267360, Note_on_c, 3, 79, 0
10, 267360, Note_on_c, 3, 75, 78
10, 267360, Note_on_c, 3, 79, 78
10, 267456, Note_on_c, 3, 79, 0
10, 267456, Note_on_c, 3, 75, 0
10, 267456, Note_on_c, 3, 79, 78
10, 267456, Note_on_c, 3, 75, 78
10, 267552, Note_on_c, 3, 75, 0
10, 267552, Note_on_c, 3, 79, 0
10, 267552, Note_on_c, 3, 75, 78
10, 267552, Note_on_c, 3, 79, 78
10, 267648, Note_on_c, 3, 79, 0
10, 267648, Note_on_c, 3, 75, 0
10, 267648, Note_on_c, 3, 79, 78
10, 267648, Note_on_c, 3, 75, 78
10, 268032, Note_on_c, 3, 75, 0
10, 268032, Note_on_c, 3, 79, 0
10, 268032, Note_on_c, 3, 75, 78
10, 268032, Note_on_c, 3, 79, 78
10, 268224, Note_on_c, 3, 79, 0
10, 268224, Note_on_c, 3, 75, 0
10, 268224, Note_on_c, 3, 79, 78
10, 268224, Note_on_c, 3, 75, 78
10, 268416, Note_on_c, 3, 75, 0
10, 268416, Note_on_c, 3, 79, 0
10, 268416, Note_on_c, 3, 82, 78
10, 268416, Note_on_c, 3, 75, 78
10, 268704, Note_on_c, 3, 75, 0
10, 268704, Note_on_c, 3, 82, 0
10, 268704, Note_on_c, 3, 75, 78
10, 268704, Note_on_c, 3, 79, 78
10, 268800, Note_on_c, 3, 79, 0
10, 268800, Note_on_c, 3, 75, 0
10, 268800, Note_on_c, 3, 75, 78
10, 268800, Note_on_c, 3, 70, 78
10, 268992, Note_on_c, 3, 70, 0
10, 268992, Note_on_c, 3, 75, 0
10, 268992, Note_on_c, 3, 75, 78
10, 268992, Note_on_c, 3, 77, 78
10, 269280, Note_on_c, 3, 77, 0
10, 269280, Note_on_c, 3, 75, 0
10, 269280, Note_on_c, 3, 77, 78
10, 269280, Note_on_c, 3, 75, 78
10, 269312, Note_on_c, 3, 75, 0
10, 269312, Note_on_c, 3, 77, 0
10, 269312, Note_on_c, 3, 75, 78
10, 269312, Note_on_c, 3, 77, 5
10, 269344, Note_on_c, 3, 77, 0
10, 269344, Note_on_c, 3, 75, 0
10, 269344, Note_on_c, 3, 75, 78
10, 269344, Note_on_c, 3, 77, 78
10, 269376, Note_on_c, 3, 77, 0
10, 269376, Note_on_c, 3, 75, 0
10, 269376, Note_on_c, 3, 75, 78
10, 269376, Note_on_c, 3, 77, 78
10, 269472, Note_on_c, 3, 77, 0
10, 269472, Note_on_c, 3, 75, 0
10, 269472, Note_on_c, 3, 77, 78
10, 269472, Note_on_c, 3, 75, 78
10, 269568, Note_on_c, 3, 75, 0
10, 269568, Note_on_c, 3, 77, 0
10, 269568, Note_on_c, 3, 74, 78
10, 269568, Note_on_c, 3, 77, 78
10, 269856, Note_on_c, 3, 77, 0
10, 269856, Note_on_c, 3, 74, 0
10, 269856, Note_on_c, 3, 70, 78
10, 269856, Note_on_c, 3, 74, 78
10, 269952, Note_on_c, 3, 74, 0
10, 269952, Note_on_c, 3, 70, 0
10, 269952, Note_on_c, 3, 65, 78
10, 269952, Note_on_c, 3, 70, 78
10, 270048, Note_on_c, 3, 70, 0
10, 270048, Note_on_c, 3, 65, 0
10, 270048, Note_on_c, 3, 70, 78
10, 270048, Note_on_c, 3, 74, 78
10, 270144, Note_on_c, 3, 74, 0
10, 270144, Note_on_c, 3, 70, 0
10, 270144, Note_on_c, 3, 75, 78
10, 270144, Note_on_c, 3, 70, 78
10, 270240, Note_on_c, 3, 70, 0
10, 270240, Note_on_c, 3, 75, 0
10, 270240, Note_on_c, 3, 79, 5
10, 270240, Note_on_c, 3, 70, 78
10, 270288, Note_on_c, 3, 70, 0
10, 270288, Note_on_c, 3, 79, 0
10, 270288, Note_on_c, 3, 70, 78
10, 270288, Note_on_c, 3, 79, 78
10, 270336, Note_on_c, 3, 79, 0
10, 270336, Note_on_c, 3, 70, 0
10, 270336, Note_on_c, 3, 67, 78
10, 270336, Note_on_c, 3, 75, 78
10, 270432, Note_on_c, 3, 75, 0
10, 270432, Note_on_c, 3, 67, 0
10, 270432, Note_on_c, 3, 70, 78
10, 270432, Note_on_c, 3, 77, 78
10, 270528, Note_on_c, 3, 77, 0
10, 270528, Note_on_c, 3, 70, 0
10, 270528, Note_on_c, 3, 75, 78
10, 270528, Note_on_c, 3, 79, 78
10, 270624, Note_on_c, 3, 79, 0
10, 270624, Note_on_c, 3, 75, 0
10, 270624, Note_on_c, 3, 70, 78
10, 270624, Note_on_c, 3, 77, 78
10, 270720, Note_on_c, 3, 77, 0
10, 270720, Note_on_c, 3, 70, 0
10, 270720, Note_on_c, 3, 75, 78
10, 270720, Note_on_c, 3, 67, 78
10, 270816, Note_on_c, 3, 67, 0
10, 270816, Note_on_c, 3, 75, 0
10, 270816, Note_on_c, 3, 77, 78
10, 270816, Note_on_c, 3, 70, 78
10, 270912, Note_on_c, 3, 70, 0
10, 270912, Note_on_c, 3, 77, 0
10, 270912, Note_on_c, 3, 79, 78
10, 270912, Note_on_c, 3, 75, 78
10, 271008, Note_on_c, 3, 75, 0
10, 271008, Note_on_c, 3, 79, 0
10, 271104, Note_on_c, 3, 79, 78
10, 271104, Note_on_c, 3, 75, 78
10, 271200, Note_on_c, 3, 75, 0
10, 271200, Note_on_c, 3, 79, 0
10, 271296, Note_on_c, 3, 75, 78
10, 271296, Note_on_c, 3, 79, 78
10, 271680, Note_on_c, 3, 79, 0
10, 271680, Note_on_c, 3, 75, 0
10, 271776, Note_on_c, 3, 79, 78
10, 271776, Note_on_c, 3, 70, 78
10, 271824, Note_on_c, 3, 70, 0
10, 271824, Note_on_c, 3, 79, 0
10, 271824, Note_on_c, 3, 70, 78
10, 271824, Note_on_c, 3, 79, 78
10, 271872, Note_on_c, 3, 79, 0
10, 271872, Note_on_c, 3, 70, 0
10, 271872, Note_on_c, 3, 67, 78
10, 271872, Note_on_c, 3, 75, 78
10, 271968, Note_on_c, 3, 75, 0
10, 271968, Note_on_c, 3, 67, 0
10, 271968, Note_on_c, 3, 70, 78
10, 271968, Note_on_c, 3, 77, 78
10, 272064, Note_on_c, 3, 77, 0
10, 272064, Note_on_c, 3, 70, 0
10, 272064, Note_on_c, 3, 79, 78
10, 272064, Note_on_c, 3, 75, 78
10, 272160, Note_on_c, 3, 75, 0
10, 272160, Note_on_c, 3, 79, 0
10, 272160, Note_on_c, 3, 70, 78
10, 272160, Note_on_c, 3, 77, 78
10, 272256, Note_on_c, 3, 77, 0
10, 272256, Note_on_c, 3, 70, 0
10, 272256, Note_on_c, 3, 75, 78
10, 272256, Note_on_c, 3, 67, 78
10, 272352, Note_on_c, 3, 67, 0
10, 272352, Note_on_c, 3, 75, 0
10, 272352, Note_on_c, 3, 77, 78
10, 272352, Note_on_c, 3, 70, 78
10, 272448, Note_on_c, 3, 70, 0
10, 272448, Note_on_c, 3, 77, 0
10, 272448, Note_on_c, 3, 75, 78
10, 272448, Note_on_c, 3, 79, 78
10, 272544, Note_on_c, 3, 79, 0
10, 272544, Note_on_c, 3, 75, 0
10, 272640, Note_on_c, 3, 75, 78
10, 272640, Note_on_c, 3, 79, 78
10, 272736, Note_on_c, 3, 79, 0
10, 272736, Note_on_c, 3, 75, 0
10, 272832, Note_on_c, 3, 75, 78
10, 272832, Note_on_c, 3, 79, 78
10, 273216, Note_on_c, 3, 79, 0
10, 273216, Note_on_c, 3, 75, 0
10, 273312, Note_on_c, 3, 70, 78
10, 273312, Note_on_c, 3, 79, 78
10, 273360, Note_on_c, 3, 79, 0
10, 273360, Note_on_c, 3, 70, 0
10, 273360, Note_on_c, 3, 79, 78
10, 273360, Note_on_c, 3, 70, 78
10, 273408, Note_on_c, 3, 70, 0
10, 273408, Note_on_c, 3, 79, 0
10, 273408, Note_on_c, 3, 67, 78
10, 273408, Note_on_c, 3, 75, 78
10, 273504, Note_on_c, 3, 75, 0
10, 273504, Note_on_c, 3, 67, 0
10, 273504, Note_on_c, 3, 77, 78
10, 273504, Note_on_c, 3, 70, 78
10, 273600, Note_on_c, 3, 70, 0
10, 273600, Note_on_c, 3, 77, 0
10, 273600, Note_on_c, 3, 79, 78
10, 273600, Note_on_c, 3, 75, 78
10, 273696, Note_on_c, 3, 75, 0
10, 273696, Note_on_c, 3, 79, 0
10, 273696, Note_on_c, 3, 70, 78
10, 273696, Note_on_c, 3, 77, 78
10, 273792, Note_on_c, 3, 77, 0
10, 273792, Note_on_c, 3, 70, 0
10, 273792, Note_on_c, 3, 67, 78
10, 273792, Note_on_c, 3, 75, 78
10, 273888, Note_on_c, 3, 75, 0
10, 273888, Note_on_c, 3, 67, 0
10, 273888, Note_on_c, 3, 70, 78
10, 273888, Note_on_c, 3, 77, 78
10, 273984, Note_on_c, 3, 77, 0
10, 273984, Note_on_c, 3, 70, 0
10, 273984, Note_on_c, 3, 79, 78
10, 273984, Note_on_c, 3, 75, 78
10, 274080, Note_on_c, 3, 75, 0
10, 274080, Note_on_c, 3, 79, 0
10, 274080, Note_on_c, 3, 70, 78
10, 274080, Note_on_c, 3, 77, 78
10, 274176, Note_on_c, 3, 77, 0
10, 274176, Note_on_c, 3, 70, 0
10, 274176, Note_on_c, 3, 67, 78
10, 274176, Note_on_c, 3, 75, 78
10, 274272, Note_on_c, 3, 75, 0
10, 274272, Note_on_c, 3, 67, 0
10, 274272, Note_on_c, 3, 77, 78
10, 274272, Note_on_c, 3, 70, 78
10, 274368, Note_on_c, 3, 70, 0
10, 274368, Note_on_c, 3, 77, 0
10, 274368, Note_on_c, 3, 79, 78
10, 274368, Note_on_c, 3, 75, 78
10, 274560, Note_on_c, 3, 75, 0
10, 274560, Note_on_c, 3, 79, 0
10, 274848, Note_on_c, 3, 70, 78
10, 274848, Note_on_c, 3, 79, 78
10, 274896, Note_on_c, 3, 79, 0
10, 274896, Note_on_c, 3, 70, 0
10, 274896, Note_on_c, 3, 79, 78
10, 274896, Note_on_c, 3, 70, 78
10, 274944, Note_on_c, 3, 70, 0
10, 274944, Note_on_c, 3, 79, 0
10, 274944, Note_on_c, 3, 79, 78
10, 274944, Note_on_c, 3, 70, 78
10, 275040, Note_on_c, 3, 70, 0
10, 275040, Note_on_c, 3, 79, 0
10, 275040, Note_on_c, 3, 77, 78
10, 275040, Note_on_c, 3, 82, 78
10, 275136, Note_on_c, 3, 82, 0
10, 275136, Note_on_c, 3, 77, 0
10, 275136, Note_on_c, 3, 79, 78
10, 275136, Note_on_c, 3, 75, 78
10, 275232, Note_on_c, 3, 75, 0
10, 275232, Note_on_c, 3, 79, 0
10, 275232, Note_on_c, 3, 70, 78
10, 275232, Note_on_c, 3, 77, 78
10, 275328, Note_on_c, 3, 77, 0
10, 275328, Note_on_c, 3, 70, 0
10, 275328, Note_on_c, 3, 75, 78
10, 275424, Note_on_c, 3, 75, 0
10, 275424, Note_on_c, 3, 70, 78
10, 275424, Note_on_c, 3, 77, 32
10, 275520, Note_on_c, 3, 77, 0
10, 275520, Note_on_c, 3, 70, 0
10, 275520, Note_on_c, 3, 75, 78
10, 275520, Note_on_c, 3, 79, 78
10, 275616, Note_on_c, 3, 79, 0
10, 275616, Note_on_c, 3, 75, 0
10, 275616, Note_on_c, 3, 77, 78
10, 275712, Note_on_c, 3, 77, 0
10, 275712, Note_on_c, 3, 75, 78
10, 275712, Note_on_c, 3, 67, 78
10, 275808, Note_on_c, 3, 67, 0
10, 275808, Note_on_c, 3, 75, 0
10, 275808, Note_on_c, 3, 70, 78
10, 275808, Note_on_c, 3, 77, 78
10, 275904, Note_on_c, 3, 77, 0
10, 275904, Note_on_c, 3, 70, 0
10, 275904, Note_on_c, 3, 75, 78
10, 275904, Note_on_c, 3, 79, 78
10, 276288, Note_on_c, 3, 79, 0
10, 276288, Note_on_c, 3, 75, 0
10, 276288, Note_on_c, 3, 75, 78
10, 276288, Note_on_c, 3, 70, 78
10, 276384, Note_on_c, 3, 70, 0
10, 276384, Note_on_c, 3, 75, 0
10, 276384, Note_on_c, 3, 79, 5
10, 276384, Note_on_c, 3, 70, 78
10, 276432, Note_on_c, 3, 70, 0
10, 276432, Note_on_c, 3, 79, 0
10, 276432, Note_on_c, 3, 70, 78
10, 276432, Note_on_c, 3, 79, 78
10, 276480, Note_on_c, 3, 79, 0
10, 276480, Note_on_c, 3, 70, 0
10, 276480, Note_on_c, 3, 67, 78
10, 276480, Note_on_c, 3, 75, 78
10, 276576, Note_on_c, 3, 75, 0
10, 276576, Note_on_c, 3, 67, 0
10, 276576, Note_on_c, 3, 70, 78
10, 276576, Note_on_c, 3, 77, 78
10, 276672, Note_on_c, 3, 77, 0
10, 276672, Note_on_c, 3, 70, 0
10, 276672, Note_on_c, 3, 75, 78
10, 276672, Note_on_c, 3, 79, 78
10, 276768, Note_on_c, 3, 79, 0
10, 276768, Note_on_c, 3, 75, 0
10, 276768, Note_on_c, 3, 70, 78
10, 276768, Note_on_c, 3, 77, 78
10, 276864, Note_on_c, 3, 77, 0
10, 276864, Note_on_c, 3, 70, 0
10, 276864, Note_on_c, 3, 75, 78
10, 276864, Note_on_c, 3, 67, 78
10, 276960, Note_on_c, 3, 67, 0
10, 276960, Note_on_c, 3, 75, 0
10, 276960, Note_on_c, 3, 77, 78
10, 276960, Note_on_c, 3, 70, 78
10, 277056, Note_on_c, 3, 70, 0
10, 277056, Note_on_c, 3, 77, 0
10, 277056, Note_on_c, 3, 79, 78
10, 277056, Note_on_c, 3, 75, 78
10, 277152, Note_on_c, 3, 75, 0
10, 277152, Note_on_c, 3, 79, 0
10, 277248, Note_on_c, 3, 79, 78
10, 277248, Note_on_c, 3, 75, 78
10, 277344, Note_on_c, 3, 75, 0
10, 277344, Note_on_c, 3, 79, 0
10, 277440, Note_on_c, 3, 75, 78
10, 277440, Note_on_c, 3, 79, 78
10, 277824, Note_on_c, 3, 79, 0
10, 277824, Note_on_c, 3, 75, 0
10, 277920, Note_on_c, 3, 79, 78
10, 277920, Note_on_c, 3, 70, 78
10, 277968, Note_on_c, 3, 70, 0
10, 277968, Note_on_c, 3, 79, 0
10, 277968, Note_on_c, 3, 70, 78
10, 277968, Note_on_c, 3, 79, 78
10, 278016, Note_on_c, 3, 79, 0
10, 278016, Note_on_c, 3, 70, 0
10, 278016, Note_on_c, 3, 67, 78
10, 278016, Note_on_c, 3, 75, 78
10, 278112, Note_on_c, 3, 75, 0
10, 278112, Note_on_c, 3, 67, 0
10, 278112, Note_on_c, 3, 70, 78
10, 278112, Note_on_c, 3, 77, 78
10, 278208, Note_on_c, 3, 77, 0
10, 278208, Note_on_c, 3, 70, 0
10, 278208, Note_on_c, 3, 79, 78
10, 278208, Note_on_c, 3, 75, 78
10, 278304, Note_on_c, 3, 75, 0
10, 278304, Note_on_c, 3, 79, 0
10, 278304, Note_on_c, 3, 70, 78
10, 278304, Note_on_c, 3, 77, 78
10, 278400, Note_on_c, 3, 77, 0
10, 278400, Note_on_c, 3, 70, 0
10, 278400, Note_on_c, 3, 75, 78
10, 278400, Note_on_c, 3, 67, 78
10, 278496, Note_on_c, 3, 67, 0
10, 278496, Note_on_c, 3, 75, 0
10, 278496, Note_on_c, 3, 77, 78
10, 278496, Note_on_c, 3, 70, 78
10, 278592, Note_on_c, 3, 70, 0
10, 278592, Note_on_c, 3, 77, 0
10, 278592, Note_on_c, 3, 75, 78
10, 278592, Note_on_c, 3, 79, 78
10, 278688, Note_on_c, 3, 79, 0
10, 278688, Note_on_c, 3, 75, 0
10, 278784, Note_on_c, 3, 75, 78
10, 278784, Note_on_c, 3, 79, 78
10, 278880, Note_on_c, 3, 79, 0
10, 278880, Note_on_c, 3, 75, 0
10, 278976, Note_on_c, 3, 75, 78
10, 278976, Note_on_c, 3, 79, 78
10, 279360, Note_on_c, 3, 79, 0
10, 279360, Note_on_c, 3, 75, 0
10, 279456, Note_on_c, 3, 70, 78
10, 279456, Note_on_c, 3, 79, 78
10, 279504, Note_on_c, 3, 79, 0
10, 279504, Note_on_c, 3, 70, 0
10, 279504, Note_on_c, 3, 79, 78
10, 279504, Note_on_c, 3, 70, 78
10, 279552, Note_on_c, 3, 70, 0
10, 279552, Note_on_c, 3, 79, 0
10, 279552, Note_on_c, 3, 67, 78
10, 279552, Note_on_c, 3, 75, 78
10, 279648, Note_on_c, 3, 75, 0
10, 279648, Note_on_c, 3, 67, 0
10, 279648, Note_on_c, 3, 77, 78
10, 279648, Note_on_c, 3, 70, 78
10, 279744, Note_on_c, 3, 70, 0
10, 279744, Note_on_c, 3, 77, 0
10, 279744, Note_on_c, 3, 79, 78
10, 279744, Note_on_c, 3, 75, 78
10, 279840, Note_on_c, 3, 75, 0
10, 279840, Note_on_c, 3, 79, 0
10, 279840, Note_on_c, 3, 70, 78
10, 279840, Note_on_c, 3, 77, 78
10, 279936, Note_on_c, 3, 77, 0
10, 279936, Note_on_c, 3, 70, 0
10, 279936, Note_on_c, 3, 67, 78
10, 279936, Note_on_c, 3, 75, 78
10, 280032, Note_on_c, 3, 75, 0
10, 280032, Note_on_c, 3, 67, 0
10, 280032, Note_on_c, 3, 70, 78
10, 280032, Note_on_c, 3, 77, 78
10, 280128, Note_on_c, 3, 77, 0
10, 280128, Note_on_c, 3, 70, 0
10, 280128, Note_on_c, 3, 79, 78
10, 280128, Note_on_c, 3, 75, 78
10, 280224, Note_on_c, 3, 75, 0
10, 280224, Note_on_c, 3, 79, 0
10, 280224, Note_on_c, 3, 70, 78
10, 280224, Note_on_c, 3, 77, 78
10, 280320, Note_on_c, 3, 77, 0
10, 280320, Note_on_c, 3, 70, 0
10, 280320, Note_on_c, 3, 67, 78
10, 280320, Note_on_c, 3, 75, 78
10, 280416, Note_on_c, 3, 75, 0
10, 280416, Note_on_c, 3, 67, 0
10, 280416, Note_on_c, 3, 77, 78
10, 280416, Note_on_c, 3, 70, 78
10, 280512, Note_on_c, 3, 70, 0
10, 280512, Note_on_c, 3, 77, 0
10, 280512, Note_on_c, 3, 79, 78
10, 280512, Note_on_c, 3, 75, 78
10, 280704, Note_on_c, 3, 75, 0
10, 280704, Note_on_c, 3, 79, 0
10, 280992, Note_on_c, 3, 70, 78
10, 280992, Note_on_c, 3, 79, 78
10, 281040, Note_on_c, 3, 79, 0
10, 281040, Note_on_c, 3, 70, 0
10, 281040, Note_on_c, 3, 79, 78
10, 281040, Note_on_c, 3, 70, 78
10, 281088, Note_on_c, 3, 70, 0
10, 281088, Note_on_c, 3, 79, 0
10, 281088, Note_on_c, 3, 79, 78
10, 281088, Note_on_c, 3, 70, 78
10, 281184, Note_on_c, 3, 70, 0
10, 281184, Note_on_c, 3, 79, 0
10, 281184, Note_on_c, 3, 77, 78
10, 281184, Note_on_c, 3, 82, 78
10, 281280, Note_on_c, 3, 82, 0
10, 281280, Note_on_c, 3, 77, 0
10, 281280, Note_on_c, 3, 79, 78
10, 281280, Note_on_c, 3, 75, 78
10, 281376, Note_on_c, 3, 75, 0
10, 281376, Note_on_c, 3, 79, 0
10, 281376, Note_on_c, 3, 70, 78
10, 281376, Note_on_c, 3, 77, 78
10, 281472, Note_on_c, 3, 77, 0
10, 281472, Note_on_c, 3, 70, 0
10, 281472, Note_on_c, 3, 75, 78
10, 281568, Note_on_c, 3, 75, 0
10, 281568, Note_on_c, 3, 70, 78
10, 281568, Note_on_c, 3, 77, 32
10, 281664, Note_on_c, 3, 77, 0
10, 281664, Note_on_c, 3, 70, 0
10, 281664, Note_on_c, 3, 75, 78
10, 281664, Note_on_c, 3, 79, 78
10, 281760, Note_on_c, 3, 79, 0
10, 281760, Note_on_c, 3, 75, 0
10, 281760, Note_on_c, 3, 77, 78
10, 281856, Note_on_c, 3, 77, 0
10, 281856, Note_on_c, 3, 75, 78
10, 281856, Note_on_c, 3, 67, 78
10, 281952, Note_on_c, 3, 67, 0
10, 281952, Note_on_c, 3, 75, 0
10, 281952, Note_on_c, 3, 70, 78
10, 281952, Note_on_c, 3, 77, 78
10, 282048, Note_on_c, 3, 77, 0
10, 282048, Note_on_c, 3, 70, 0
10, 282048, Note_on_c, 3, 75, 78
10, 282048, Note_on_c, 3, 79, 78
10, 282432, Note_on_c, 3, 79, 0
10, 282432, Note_on_c, 3, 75, 0
10, 282624, Note_on_c, 3, 80, 85
10, 282624, Note_on_c, 3, 77, 85
10, 282624, Note_on_c, 3, 72, 85
10, 282688, Note_on_c, 3, 72, 0
10, 282688, Note_on_c, 3, 77, 0
10, 282688, Note_on_c, 3, 80, 0
10, 282688, Note_on_c, 3, 80, 85
10, 282688, Note_on_c, 3, 77, 85
10, 282688, Note_on_c, 3, 72, 85
10, 282752, Note_on_c, 3, 72, 0
10, 282752, Note_on_c, 3, 77, 0
10, 282752, Note_on_c, 3, 80, 0
10, 282752, Note_on_c, 3, 80, 85
10, 282752, Note_on_c, 3, 77, 85
10, 282752, Note_on_c, 3, 72, 85
10, 282816, Note_on_c, 3, 72, 0
10, 282816, Note_on_c, 3, 77, 0
10, 282816, Note_on_c, 3, 80, 0
10, 282816, Note_on_c, 3, 84, 85
10, 282816, Note_on_c, 3, 80, 85
10, 282816, Note_on_c, 3, 75, 85
10, 283008, Note_on_c, 3, 75, 0
10, 283008, Note_on_c, 3, 80, 0
10, 283008, Note_on_c, 3, 84, 0
10, 283008, Note_on_c, 3, 80, 85
10, 283008, Note_on_c, 3, 77, 85
10, 283008, Note_on_c, 3, 72, 85
10, 283200, Note_on_c, 3, 72, 0
10, 283200, Note_on_c, 3, 77, 0
10, 283200, Note_on_c, 3, 80, 0
10, 283392, Note_on_c, 3, 77, 85
10, 283392, Note_on_c, 3, 74, 85
10, 283392, Note_on_c, 3, 70, 85
10, 283456, Note_on_c, 3, 70, 0
10, 283456, Note_on_c, 3, 74, 0
10, 283456, Note_on_c, 3, 77, 0
10, 283456, Note_on_c, 3, 77, 85
10, 283456, Note_on_c, 3, 74, 85
10, 283456, Note_on_c, 3, 70, 85
10, 283520, Note_on_c, 3, 70, 0
10, 283520, Note_on_c, 3, 74, 0
10, 283520, Note_on_c, 3, 77, 0
10, 283520, Note_on_c, 3, 77, 85
10, 283520, Note_on_c, 3, 74, 85
10, 283520, Note_on_c, 3, 70, 85
10, 283584, Note_on_c, 3, 70, 0
10, 283584, Note_on_c, 3, 74, 0
10, 283584, Note_on_c, 3, 77, 0
10, 283584, Note_on_c, 3, 80, 85
10, 283584, Note_on_c, 3, 77, 85
10, 283584, Note_on_c, 3, 74, 85
10, 283776, Note_on_c, 3, 74, 0
10, 283776, Note_on_c, 3, 77, 0
10, 283776, Note_on_c, 3, 80, 0
10, 283776, Note_on_c, 3, 77, 85
10, 283776, Note_on_c, 3, 74, 85
10, 283776, Note_on_c, 3, 70, 85
10, 283968, Note_on_c, 3, 70, 0
10, 283968, Note_on_c, 3, 74, 0
10, 283968, Note_on_c, 3, 77, 0
10, 284160, Note_on_c, 3, 76, 78
10, 284160, Note_on_c, 3, 82, 78
10, 284224, Note_on_c, 3, 82, 0
10, 284224, Note_on_c, 3, 76, 0
10, 284224, Note_on_c, 3, 76, 78
10, 284224, Note_on_c, 3, 82, 78
10, 284288, Note_on_c, 3, 82, 0
10, 284288, Note_on_c, 3, 76, 0
10, 284288, Note_on_c, 3, 76, 78
10, 284288, Note_on_c, 3, 82, 78
10, 284352, Note_on_c, 3, 82, 0
10, 284352, Note_on_c, 3, 76, 0
10, 284352, Note_on_c, 3, 82, 78
10, 284352, Note_on_c, 3, 76, 78
10, 284544, Note_on_c, 3, 76, 0
10, 284544, Note_on_c, 3, 82, 0
10, 284544, Note_on_c, 3, 84, 78
10, 284544, Note_on_c, 3, 77, 78
10, 284736, Note_on_c, 3, 77, 0
10, 284736, Note_on_c, 3, 84, 0
10, 284736, Note_on_c, 3, 78, 78
10, 284736, Note_on_c, 3, 84, 78
10, 284928, Note_on_c, 3, 84, 0
10, 284928, Note_on_c, 3, 78, 0
10, 284928, Note_on_c, 3, 86, 78
10, 284928, Note_on_c, 3, 79, 78
10, 285120, Note_on_c, 3, 79, 0
10, 285120, Note_on_c, 3, 86, 0
10, 285120, Note_on_c, 3, 86, 78
10, 285120, Note_on_c, 3, 80, 78
10, 285312, Note_on_c, 3, 80, 0
10, 285312, Note_on_c, 3, 86, 0
10, 285312, Note_on_c, 3, 81, 78
10, 285312, Note_on_c, 3, 87, 78
10, 285504, Note_on_c, 3, 87, 0
10, 285504, Note_on_c, 3, 81, 0
10, 285504, Note_on_c, 3, 87, 78
10, 285504, Note_on_c, 3, 82, 78
10, 285632, Note_on_c, 3, 82, 0
10, 285632, Note_on_c, 3, 87, 0
10, 285632, Note_on_c, 3, 82, 78
10, 285632, Note_on_c, 3, 87, 78
10, 285744, Note_on_c, 3, 87, 78
10, 285760, Note_on_c, 3, 87, 0
10, 285760, Note_on_c, 3, 82, 0
10, 285760, Note_on_c, 3, 82, 78
10, 285872, Note_on_c, 3, 87, 0
10, 285888, Note_on_c, 3, 82, 0
10, 285888, Note_on_c, 3, 87, 78
10, 285888, Note_on_c, 3, 82, 78
10, 286016, Note_on_c, 3, 82, 0
10, 286016, Note_on_c, 3, 87, 0
10, 286016, Note_on_c, 3, 79, 78
10, 286016, Note_on_c, 3, 82, 78
10, 286144, Note_on_c, 3, 82, 0
10, 286144, Note_on_c, 3, 79, 0
10, 286144, Note_on_c, 3, 79, 78
10, 286144, Note_on_c, 3, 82, 78
10, 286272, Note_on_c, 3, 82, 0
10, 286272, Note_on_c, 3, 79, 0
10, 286272, Note_on_c, 3, 82, 78
10, 286272, Note_on_c, 3, 79, 78
10, 286400, Note_on_c, 3, 79, 0
10, 286400, Note_on_c, 3, 82, 0
10, 286400, Note_on_c, 3, 75, 78
10, 286400, Note_on_c, 3, 79, 78
10, 286528, Note_on_c, 3, 79, 0
10, 286528, Note_on_c, 3, 75, 0
10, 286528, Note_on_c, 3, 79, 78
10, 286528, Note_on_c, 3, 75, 78
10, 286656, Note_on_c, 3, 75, 0
10, 286656, Note_on_c, 3, 79, 0
10, 286656, Note_on_c, 3, 75, 78
10, 286656, Note_on_c, 3, 79, 78
10, 286784, Note_on_c, 3, 79, 0
10, 286784, Note_on_c, 3, 75, 0
10, 286784, Note_on_c, 3, 79, 78
10, 286784, Note_on_c, 3, 75, 78
10, 286912, Note_on_c, 3, 75, 0
10, 286912, Note_on_c, 3, 79, 0
10, 286912, Note_on_c, 3, 75, 78
10, 286912, Note_on_c, 3, 79, 78
10, 287040, Note_on_c, 3, 79, 0
10, 287040, Note_on_c, 3, 75, 0
10, 287040, Note_on_c, 3, 77, 78
10, 287040, Note_on_c, 3, 74, 78
10, 287168, Note_on_c, 3, 74, 0
10, 287168, Note_on_c, 3, 77, 0
10, 287424, Note_on_c, 3, 79, 78
10, 287424, Note_on_c, 3, 83, 78
10, 287552, Note_on_c, 3, 83, 0
10, 287552, Note_on_c, 3, 79, 0
10, 287808, Note_on_c, 3, 84, 78
10, 287808, Note_on_c, 3, 79, 78
10, 287936, Note_on_c, 3, 79, 0
10, 287936, Note_on_c, 3, 84, 0
10, 288192, Note_on_c, 3, 80, 78
10, 288192, Note_on_c, 3, 86, 78
10, 288320, Note_on_c, 3, 86, 0
10, 288320, Note_on_c, 3, 80, 0
10, 288576, Note_on_c, 3, 82, 78
10, 288768, Note_on_c, 3, 82, 0
10, 288768, Note_on_c, 3, 70, 78
10, 288768, Note_on_c, 3, 82, 78
10, 288832, Note_on_c, 3, 82, 0
10, 288832, Note_on_c, 3, 70, 0
10, 288832, Note_on_c, 3, 82, 78
10, 288832, Note_on_c, 3, 70, 78
10, 288896, Note_on_c, 3, 70, 0
10, 288896, Note_on_c, 3, 82, 0
10, 288896, Note_on_c, 3, 70, 78
10, 288896, Note_on_c, 3, 82, 78
10, 288960, Note_on_c, 3, 82, 0
10, 288960, Note_on_c, 3, 70, 0
10, 288960, Note_on_c, 3, 82, 78
10, 288960, Note_on_c, 3, 86, 78
10, 289152, Note_on_c, 3, 86, 0
10, 289152, Note_on_c, 3, 82, 0
10, 289152, Note_on_c, 3, 77, 78
10, 289152, Note_on_c, 3, 82, 78
10, 289344, Note_on_c, 3, 82, 0
10, 289344, Note_on_c, 3, 77, 0
10, 289344, Note_on_c, 3, 82, 78
10, 289536, Note_on_c, 3, 82, 0
10, 289536, Note_on_c, 3, 82, 78
10, 289536, Note_on_c, 3, 70, 78
10, 289600, Note_on_c, 3, 70, 0
10, 289600, Note_on_c, 3, 82, 0
10, 289600, Note_on_c, 3, 82, 78
10, 289600, Note_on_c, 3, 70, 78
10, 289664, Note_on_c, 3, 70, 0
10, 289664, Note_on_c, 3, 82, 0
10, 289664, Note_on_c, 3, 70, 78
10, 289664, Note_on_c, 3, 82, 78
10, 289728, Note_on_c, 3, 82, 0
10, 289728, Note_on_c, 3, 70, 0
10, 289728, Note_on_c, 3, 86, 78
10, 289728, Note_on_c, 3, 82, 78
10, 289920, Note_on_c, 3, 82, 0
10, 289920, Note_on_c, 3, 86, 0
10, 289920, Note_on_c, 3, 89, 78
10, 289920, Note_on_c, 3, 82, 78
10, 289920, Note_on_c, 3, 77, 78
10, 290112, Note_on_c, 3, 77, 0
10, 290112, Note_on_c, 3, 82, 0
10, 290112, Note_on_c, 3, 89, 0
10, 290112, Note_on_c, 3, 79, 78
10, 290112, Note_on_c, 3, 82, 78
10, 290304, Note_on_c, 3, 82, 0
10, 290304, Note_on_c, 3, 79, 0
10, 290304, Note_on_c, 3, 77, 78
10, 290304, Note_on_c, 3, 80, 78
10, 290496, Note_on_c, 3, 80, 0
10, 290496, Note_on_c, 3, 77, 0
10, 290496, Note_on_c, 3, 79, 78
10, 290496, Note_on_c, 3, 82, 78
10, 290688, Note_on_c, 3, 82, 0
10, 290688, Note_on_c, 3, 79, 0
10, 290688, Note_on_c, 3, 77, 78
10, 290688, Note_on_c, 3, 80, 78
10, 290880, Note_on_c, 3, 80, 0
10, 290880, Note_on_c, 3, 77, 0
10, 290880, Note_on_c, 3, 82, 78
10, 290880, Note_on_c, 3, 79, 78
10, 291072, Note_on_c, 3, 79, 0
10, 291072, Note_on_c, 3, 82, 0
10, 291072, Note_on_c, 3, 77, 78
10, 291072, Note_on_c, 3, 80, 78
10, 291264, Note_on_c, 3, 80, 0
10, 291264, Note_on_c, 3, 77, 0
10, 291264, Note_on_c, 3, 82, 78
10, 291264, Note_on_c, 3, 79, 78
10, 291456, Note_on_c, 3, 79, 0
10, 291456, Note_on_c, 3, 82, 0
10, 291456, Note_on_c, 3, 80, 78
10, 291456, Note_on_c, 3, 77, 78
10, 291648, Note_on_c, 3, 77, 0
10, 291648, Note_on_c, 3, 80, 0
10, 291648, Note_on_c, 3, 82, 78
10, 291648, Note_on_c, 3, 79, 78
10, 291840, Note_on_c, 3, 79, 0
10, 291840, Note_on_c, 3, 82, 0
10, 291840, Note_on_c, 3, 79, 78
10, 291840, Note_on_c, 3, 83, 78
10, 292032, Note_on_c, 3, 83, 0
10, 292032, Note_on_c, 3, 79, 0
10, 292032, Note_on_c, 3, 79, 78
10, 292032, Note_on_c, 3, 84, 78
10, 292224, Note_on_c, 3, 84, 0
10, 292224, Note_on_c, 3, 79, 0
10, 292224, Note_on_c, 3, 79, 78
10, 292224, Note_on_c, 3, 83, 78
10, 292416, Note_on_c, 3, 83, 0
10, 292416, Note_on_c, 3, 79, 0
10, 292416, Note_on_c, 3, 84, 78
10, 292416, Note_on_c, 3, 79, 78
10, 292608, Note_on_c, 3, 79, 0
10, 292608, Note_on_c, 3, 84, 0
10, 292608, Note_on_c, 3, 83, 78
10, 292608, Note_on_c, 3, 79, 78
10, 292800, Note_on_c, 3, 79, 0
10, 292800, Note_on_c, 3, 83, 0
10, 292800, Note_on_c, 3, 84, 78
10, 292800, Note_on_c, 3, 79, 78
10, 292992, Note_on_c, 3, 79, 0
10, 292992, Note_on_c, 3, 84, 0
10, 292992, Note_on_c, 3, 82, 78
10, 292992, Note_on_c, 3, 77, 78
10, 293184, Note_on_c, 3, 77, 0
10, 293184, Note_on_c, 3, 82, 0
10, 293184, Note_on_c, 3, 79, 78
10, 293184, Note_on_c, 3, 82, 78
10, 293280, Note_on_c, 3, 82, 0
10, 293280, Note_on_c, 3, 79, 0
10, 293280, Note_on_c, 3, 82, 78
10, 293280, Note_on_c, 3, 70, 78
10, 293328, Note_on_c, 3, 70, 0
10, 293328, Note_on_c, 3, 82, 0
10, 293328, Note_on_c, 3, 82, 78
10, 293328, Note_on_c, 3, 70, 78
10, 293376, Note_on_c, 3, 70, 0
10, 293376, Note_on_c, 3, 82, 0
10, 293376, Note_on_c, 3, 79, 78
10, 293376, Note_on_c, 3, 75, 78
10, 293472, Note_on_c, 3, 75, 0
10, 293472, Note_on_c, 3, 79, 0
10, 293472, Note_on_c, 3, 77, 78
10, 293472, Note_on_c, 3, 82, 78
10, 293568, Note_on_c, 3, 82, 0
10, 293568, Note_on_c, 3, 77, 0
10, 293568, Note_on_c, 3, 79, 78
10, 293568, Note_on_c, 3, 87, 78
10, 293664, Note_on_c, 3, 87, 0
10, 293664, Note_on_c, 3, 79, 0
10, 293664, Note_on_c, 3, 77, 78
10, 293664, Note_on_c, 3, 82, 78
10, 293760, Note_on_c, 3, 82, 0
10, 293760, Note_on_c, 3, 77, 0
10, 293760, Note_on_c, 3, 75, 78
10, 293760, Note_on_c, 3, 79, 78
10, 293856, Note_on_c, 3, 79, 0
10, 293856, Note_on_c, 3, 75, 0
10, 293856, Note_on_c, 3, 82, 78
10, 293856, Note_on_c, 3, 77, 78
10, 293952, Note_on_c, 3, 77, 0
10, 293952, Note_on_c, 3, 82, 0
10, 293952, Note_on_c, 3, 79, 78
10, 293952, Note_on_c, 3, 87, 78
10, 294048, Note_on_c, 3, 87, 0
10, 294048, Note_on_c, 3, 79, 0
10, 294048, Note_on_c, 3, 74, 78
10, 294048, Note_on_c, 3, 82, 78
10, 294096, Note_on_c, 3, 82, 0
10, 294096, Note_on_c, 3, 74, 0
10, 294096, Note_on_c, 3, 82, 78
10, 294096, Note_on_c, 3, 74, 78
10, 294144, Note_on_c, 3, 74, 0
10, 294144, Note_on_c, 3, 82, 0
10, 294144, Note_on_c, 3, 75, 78
10, 294144, Note_on_c, 3, 91, 78
10, 294144, Note_on_c, 3, 79, 78
10, 294192, Note_on_c, 3, 79, 0
10, 294240, Note_on_c, 3, 91, 0
10, 294240, Note_on_c, 3, 75, 0
10, 294240, Note_on_c, 3, 82, 78
10, 294240, Note_on_c, 3, 77, 78
10, 294288, Note_on_c, 3, 77, 0
10, 294288, Note_on_c, 3, 82, 0
10, 294336, Note_on_c, 3, 75, 78
10, 294336, Note_on_c, 3, 79, 78
10, 294384, Note_on_c, 3, 75, 0
10, 294432, Note_on_c, 3, 79, 0
10, 294432, Note_on_c, 3, 82, 78
10, 294432, Note_on_c, 3, 77, 78
10, 294480, Note_on_c, 3, 77, 0
10, 294528, Note_on_c, 3, 82, 0
10, 294528, Note_on_c, 3, 75, 78
10, 294528, Note_on_c, 3, 79, 78
10, 294576, Note_on_c, 3, 79, 0
10, 294624, Note_on_c, 3, 75, 0
10, 294624, Note_on_c, 3, 77, 78
10, 294624, Note_on_c, 3, 82, 78
10, 294672, Note_on_c, 3, 77, 0
10, 294720, Note_on_c, 3, 82, 0
10, 294720, Note_on_c, 3, 75, 78
10, 294720, Note_on_c, 3, 79, 78
10, 294768, Note_on_c, 3, 75, 0
10, 294816, Note_on_c, 3, 79, 0
10, 294816, Note_on_c, 3, 70, 78
10, 294816, Note_on_c, 3, 82, 78
10, 294864, Note_on_c, 3, 70, 0
10, 294864, Note_on_c, 3, 70, 78
10, 294912, Note_on_c, 3, 70, 0
10, 294912, Note_on_c, 3, 82, 0
10, 294912, Note_on_c, 3, 67, 78
10, 294912, Note_on_c, 3, 75, 78
10, 295008, Note_on_c, 3, 75, 0
10, 295008, Note_on_c, 3, 67, 0
10, 295008, Note_on_c, 3, 70, 78
10, 295008, Note_on_c, 3, 77, 78
10, 295104, Note_on_c, 3, 77, 0
10, 295104, Note_on_c, 3, 70, 0
10, 295104, Note_on_c, 3, 79, 78
10, 295104, Note_on_c, 3, 75, 78
10, 295200, Note_on_c, 3, 75, 0
10, 295200, Note_on_c, 3, 79, 0
10, 295200, Note_on_c, 3, 77, 78
10, 295200, Note_on_c, 3, 70, 78
10, 295296, Note_on_c, 3, 70, 0
10, 295296, Note_on_c, 3, 77, 0
10, 295296, Note_on_c, 3, 75, 78
10, 295296, Note_on_c, 3, 67, 78
10, 295392, Note_on_c, 3, 67, 0
10, 295392, Note_on_c, 3, 75, 0
10, 295392, Note_on_c, 3, 77, 78
10, 295392, Note_on_c, 3, 70, 78
10, 295488, Note_on_c, 3, 70, 0
10, 295488, Note_on_c, 3, 77, 0
10, 295488, Note_on_c, 3, 75, 78
10, 295488, Note_on_c, 3, 79, 78
10, 295584, Note_on_c, 3, 79, 0
10, 295584, Note_on_c, 3, 75, 0
10, 295584, Note_on_c, 3, 70, 78
10, 295584, Note_on_c, 3, 62, 78
10, 295632, Note_on_c, 3, 62, 0
10, 295632, Note_on_c, 3, 70, 0
10, 295632, Note_on_c, 3, 70, 78
10, 295632, Note_on_c, 3, 62, 78
10, 295680, Note_on_c, 3, 62, 0
10, 295680, Note_on_c, 3, 70, 0
10, 295680, Note_on_c, 3, 63, 78
10, 295680, Note_on_c, 3, 67, 78
10, 295776, Note_on_c, 3, 67, 0
10, 295776, Note_on_c, 3, 63, 0
10, 295776, Note_on_c, 3, 70, 78
10, 295776, Note_on_c, 3, 65, 78
10, 295872, Note_on_c, 3, 65, 0
10, 295872, Note_on_c, 3, 70, 0
10, 295872, Note_on_c, 3, 75, 78
10, 295872, Note_on_c, 3, 67, 78
10, 295968, Note_on_c, 3, 67, 0
10, 295968, Note_on_c, 3, 75, 0
10, 295968, Note_on_c, 3, 70, 78
10, 295968, Note_on_c, 3, 65, 78
10, 296064, Note_on_c, 3, 65, 0
10, 296064, Note_on_c, 3, 70, 0
10, 296064, Note_on_c, 3, 63, 78
10, 296064, Note_on_c, 3, 67, 78
10, 296160, Note_on_c, 3, 67, 0
10, 296160, Note_on_c, 3, 63, 0
10, 296160, Note_on_c, 3, 65, 78
10, 296160, Note_on_c, 3, 70, 78
10, 296256, Note_on_c, 3, 70, 0
10, 296256, Note_on_c, 3, 65, 0
10, 296256, Note_on_c, 3, 75, 78
10, 296256, Note_on_c, 3, 67, 78
10, 296367, Note_on_c, 3, 67, 0
10, 296367, Note_on_c, 3, 75, 0
10, 296640, Note_on_c, 3, 63, 78
10, 296928, Note_on_c, 3, 63, 0
10, 296928, Note_on_c, 3, 63, 78
10, 297024, Note_on_c, 3, 63, 0
10, 297024, Note_on_c, 3, 67, 78
10, 297024, Note_on_c, 3, 63, 78
10, 297408, Note_on_c, 3, 63, 0
10, 297408, Note_on_c, 3, 67, 0
10, 297408, Note_on_c, 3, 67, 78
10, 297408, Note_on_c, 3, 70, 78
10, 297792, Note_on_c, 3, 70, 0
10, 297792, Note_on_c, 3, 67, 0
10, 297792, Note_on_c, 3, 70, 78
10, 297792, Note_on_c, 3, 75, 78
10, 298176, Note_on_c, 3, 75, 0
10, 298176, Note_on_c, 3, 70, 0
10, 298560, Note_on_c, 3, 75, 78
10, 298560, Note_on_c, 3, 79, 78
10, 298944, Note_on_c, 3, 79, 0
10, 298944, Note_on_c, 3, 75, 0
10, 299328, Note_on_c, 3, 63, 78
10, 299712, Note_on_c, 3, 63, 0
10, 300096, Note_on_c, 3, 75, 78
10, 300096, Note_on_c, 3, 70, 78
10, 300480, Note_on_c, 3, 70, 0
10, 300480, Note_on_c, 3, 75, 0
10, 300864, Note_on_c, 3, 79, 78
10, 300864, Note_on_c, 3, 82, 78
10, 301056, Note_on_c, 3, 82, 0
10, 301056, Note_on_c, 3, 79, 0
10, 301632, Note_on_c, 3, 63, 78
10, 302205, Note_on_c, 3, 63, 0
10, 302208, Note_on_c, 3, 63, 78
10, 302397, Note_on_c, 3, 63, 0
10, 302400, Note_on_c, 3, 63, 78
10, 303168, Note_on_c, 3, 63, 0
10, 303168, End_track
11, 0, Start_track
11, 0, MIDI_port, 0
11, 0, Title_t, "Clarinets"
11, 0, Program_c, 4, 71
11, 0, Control_c, 4, 7, 86
11, 0, Control_c, 4, 10, 27
11, 12768, Note_on_c, 4, 67, 56
11, 12768, Note_on_c, 4, 74, 56
11, 12864, Note_on_c, 4, 74, 0
11, 12864, Note_on_c, 4, 67, 0
11, 12864, Note_on_c, 4, 74, 56
11, 12864, Note_on_c, 4, 67, 56
11, 13056, Note_on_c, 4, 67, 0
11, 13056, Note_on_c, 4, 74, 0
11, 13056, Note_on_c, 4, 74, 56
11, 13056, Note_on_c, 4, 67, 56
11, 13248, Note_on_c, 4, 67, 0
11, 13248, Note_on_c, 4, 74, 0
11, 13248, Note_on_c, 4, 70, 56
11, 13248, Note_on_c, 4, 74, 56
11, 13632, Note_on_c, 4, 74, 0
11, 13632, Note_on_c, 4, 70, 0
11, 13632, Note_on_c, 4, 74, 56
11, 13632, Note_on_c, 4, 70, 56
11, 13824, Note_on_c, 4, 70, 0
11, 13824, Note_on_c, 4, 74, 0
11, 13824, Note_on_c, 4, 72, 56
11, 13824, Note_on_c, 4, 65, 56
11, 14592, Note_on_c, 4, 65, 0
11, 14592, Note_on_c, 4, 72, 0
11, 15648, Note_on_c, 4, 62, 78
11, 15648, Note_on_c, 4, 70, 78
11, 15744, Note_on_c, 4, 70, 0
11, 15744, Note_on_c, 4, 62, 0
11, 15744, Note_on_c, 4, 70, 78
11, 15744, Note_on_c, 4, 62, 78
11, 15936, Note_on_c, 4, 62, 0
11, 15936, Note_on_c, 4, 70, 0
11, 15936, Note_on_c, 4, 72, 78
11, 15936, Note_on_c, 4, 63, 78
11, 16128, Note_on_c, 4, 63, 0
11, 16128, Note_on_c, 4, 72, 0
11, 16128, Note_on_c, 4, 72, 78
11, 16128, Note_on_c, 4, 63, 78
11, 16512, Note_on_c, 4, 63, 0
11, 16512, Note_on_c, 4, 72, 0
11, 16800, Note_on_c, 4, 65, 83
11, 16800, Note_on_c, 4, 73, 78
11, 16896, Note_on_c, 4, 73, 0
11, 16896, Note_on_c, 4, 65, 0
11, 16896, Note_on_c, 4, 65, 83
11, 16896, Note_on_c, 4, 73, 78
11, 17088, Note_on_c, 4, 73, 0
11, 17088, Note_on_c, 4, 65, 0
11, 17088, Note_on_c, 4, 70, 78
11, 17088, Note_on_c, 4, 67, 78
11, 17280, Note_on_c, 4, 67, 0
11, 17280, Note_on_c, 4, 70, 0
11, 17280, Note_on_c, 4, 75, 78
11, 17280, Note_on_c, 4, 67, 78
11, 17568, Note_on_c, 4, 67, 0
11, 17568, Note_on_c, 4, 75, 0
11, 18048, Note_on_c, 4, 77, 78
11, 18048, Note_on_c, 4, 68, 78
11, 18432, Note_on_c, 4, 68, 0
11, 18432, Note_on_c, 4, 77, 0
11, 18432, Note_on_c, 4, 77, 78
11, 18432, Note_on_c, 4, 68, 78
11, 18816, Note_on_c, 4, 68, 0
11, 18816, Note_on_c, 4, 77, 0
11, 18816, Note_on_c, 4, 68, 78
11, 18816, Note_on_c, 4, 77, 78
11, 19008, Note_on_c, 4, 77, 0
11, 19008, Note_on_c, 4, 68, 0
11, 19200, Note_on_c, 4, 83, 78
11, 19200, Note_on_c, 4, 77, 78
11, 19392, Note_on_c, 4, 77, 0
11, 19392, Note_on_c, 4, 83, 0
11, 19392, Note_on_c, 4, 77, 78
11, 19392, Note_on_c, 4, 83, 78
11, 19776, Note_on_c, 4, 83, 0
11, 19776, Note_on_c, 4, 77, 0
11, 19776, Note_on_c, 4, 77, 78
11, 19776, Note_on_c, 4, 83, 78
11, 19968, Note_on_c, 4, 83, 0
11, 19968, Note_on_c, 4, 77, 0
11, 19968, Note_on_c, 4, 77, 78
11, 19968, Note_on_c, 4, 83, 78
11, 20160, Note_on_c, 4, 83, 0
11, 20160, Note_on_c, 4, 77, 0
11, 20160, Note_on_c, 4, 75, 78
11, 20160, Note_on_c, 4, 79, 78
11, 20256, Note_on_c, 4, 79, 0
11, 20256, Note_on_c, 4, 75, 0
11, 24960, Note_on_c, 4, 71, 78
11, 25248, Note_on_c, 4, 71, 0
11, 25248, Note_on_c, 4, 70, 78
11, 25344, Note_on_c, 4, 70, 0
11, 25344, Note_on_c, 4, 69, 78
11, 25440, Note_on_c, 4, 69, 0
11, 25440, Note_on_c, 4, 70, 65
11, 25536, Note_on_c, 4, 70, 0
11, 25536, Note_on_c, 4, 71, 78
11, 25632, Note_on_c, 4, 71, 0
11, 25632, Note_on_c, 4, 72, 78
11, 25728, Note_on_c, 4, 72, 0
11, 25728, Note_on_c, 4, 73, 78
11, 25824, Note_on_c, 4, 73, 0
11, 25824, Note_on_c, 4, 74, 78
11, 25920, Note_on_c, 4, 74, 0
11, 25920, Note_on_c, 4, 75, 78
11, 26016, Note_on_c, 4, 75, 0
11, 27168, Note_on_c, 4, 58, 78
11, 27264, Note_on_c, 4, 58, 0
11, 27264, Note_on_c, 4, 57, 78
11, 27360, Note_on_c, 4, 57, 0
11, 27360, Note_on_c, 4, 58, 78
11, 27456, Note_on_c, 4, 58, 0
11, 27456, Note_on_c, 4, 59, 78
11, 27552, Note_on_c, 4, 59, 0
11, 27552, Note_on_c, 4, 61, 78
11, 27648, Note_on_c, 4, 61, 0
11, 27648, Note_on_c, 4, 63, 78
11, 27744, Note_on_c, 4, 63, 0
11, 27744, Note_on_c, 4, 61, 78
11, 27840, Note_on_c, 4, 61, 0
11, 27840, Note_on_c, 4, 59, 78
11, 27936, Note_on_c, 4, 59, 0
11, 27936, Note_on_c, 4, 58, 78
11, 28032, Note_on_c, 4, 58, 0
11, 28032, Note_on_c, 4, 57, 78
11, 28128, Note_on_c, 4, 57, 0
11, 28128, Note_on_c, 4, 58, 78
11, 28224, Note_on_c, 4, 58, 0
11, 28224, Note_on_c, 4, 59, 78
11, 28320, Note_on_c, 4, 59, 0
11, 29472, Note_on_c, 4, 59, 78
11, 29568, Note_on_c, 4, 59, 0
11, 29568, Note_on_c, 4, 58, 78
11, 29664, Note_on_c, 4, 58, 0
11, 29664, Note_on_c, 4, 59, 78
11, 29760, Note_on_c, 4, 59, 0
11, 29760, Note_on_c, 4, 61, 78
11, 29856, Note_on_c, 4, 61, 0
11, 29856, Note_on_c, 4, 63, 78
11, 29952, Note_on_c, 4, 63, 0
11, 29952, Note_on_c, 4, 64, 78
11, 30048, Note_on_c, 4, 64, 0
11, 30048, Note_on_c, 4, 62, 73
11, 30144, Note_on_c, 4, 62, 0
11, 30144, Note_on_c, 4, 61, 78
11, 30240, Note_on_c, 4, 61, 0
11, 30240, Note_on_c, 4, 59, 78
11, 30336, Note_on_c, 4, 59, 0
11, 30336, Note_on_c, 4, 58, 78
11, 30432, Note_on_c, 4, 58, 0
11, 30432, Note_on_c, 4, 59, 78
11, 30528, Note_on_c, 4, 59, 0
11, 30528, Note_on_c, 4, 61, 78
11, 30576, Note_on_c, 4, 61, 0
11, 30576, Note_on_c, 4, 68, 78
11, 30576, Note_on_c, 4, 61, 78
11, 30624, Note_on_c, 4, 61, 0
11, 30624, Note_on_c, 4, 68, 0
11, 30624, Note_on_c, 4, 68, 78
11, 30624, Note_on_c, 4, 61, 78
11, 30672, Note_on_c, 4, 61, 0
11, 30672, Note_on_c, 4, 68, 0
11, 30672, Note_on_c, 4, 68, 78
11, 30672, Note_on_c, 4, 61, 78
11, 30720, Note_on_c, 4, 61, 0
11, 30720, Note_on_c, 4, 68, 0
11, 30720, Note_on_c, 4, 68, 78
11, 30720, Note_on_c, 4, 59, 78
11, 31104, Note_on_c, 4, 59, 0
11, 31104, Note_on_c, 4, 68, 0
11, 31104, Note_on_c, 4, 69, 78
11, 31104, Note_on_c, 4, 61, 78
11, 31296, Note_on_c, 4, 61, 0
11, 31296, Note_on_c, 4, 69, 0
11, 31296, Note_on_c, 4, 69, 78
11, 31296, Note_on_c, 4, 60, 78
11, 31680, Note_on_c, 4, 60, 0
11, 31680, Note_on_c, 4, 69, 0
11, 31680, Note_on_c, 4, 71, 78
11, 31680, Note_on_c, 4, 62, 78
11, 32064, Note_on_c, 4, 62, 0
11, 32064, Note_on_c, 4, 71, 0
11, 32064, Note_on_c, 4, 69, 78
11, 32064, Note_on_c, 4, 72, 78
11, 32256, Note_on_c, 4, 72, 0
11, 32256, Note_on_c, 4, 69, 0
11, 32256, Note_on_c, 4, 70, 78
11, 32256, Note_on_c, 4, 73, 78
11, 32448, Note_on_c, 4, 73, 0
11, 32448, Note_on_c, 4, 70, 0
11, 32448, Note_on_c, 4, 71, 78
11, 32448, Note_on_c, 4, 74, 78
11, 32640, Note_on_c, 4, 74, 0
11, 32640, Note_on_c, 4, 71, 0
11, 32640, Note_on_c, 4, 72, 78
11, 32640, Note_on_c, 4, 75, 78
11, 32832, Note_on_c, 4, 75, 0
11, 32832, Note_on_c, 4, 72, 0
11, 32832, Note_on_c, 4, 76, 78
11, 32832, Note_on_c, 4, 73, 78
11, 32928, Note_on_c, 4, 73, 0
11, 32928, Note_on_c, 4, 76, 0
11, 32928, Note_on_c, 4, 76, 78
11, 32928, Note_on_c, 4, 73, 78
11, 32960, Note_on_c, 4, 73, 0
11, 32960, Note_on_c, 4, 76, 0
11, 32960, Note_on_c, 4, 73, 78
11, 32960, Note_on_c, 4, 76, 78
11, 32992, Note_on_c, 4, 76, 0
11, 32992, Note_on_c, 4, 73, 0
11, 32992, Note_on_c, 4, 73, 78
11, 32992, Note_on_c, 4, 76, 78
11, 33024, Note_on_c, 4, 76, 0
11, 33024, Note_on_c, 4, 73, 0
11, 33024, Note_on_c, 4, 73, 78
11, 33024, Note_on_c, 4, 76, 78
11, 33216, Note_on_c, 4, 76, 0
11, 33216, Note_on_c, 4, 73, 0
11, 33216, Note_on_c, 4, 76, 78
11, 33216, Note_on_c, 4, 73, 78
11, 33312, Note_on_c, 4, 73, 0
11, 33312, Note_on_c, 4, 76, 0
11, 33312, Note_on_c, 4, 73, 78
11, 33312, Note_on_c, 4, 76, 78
11, 33344, Note_on_c, 4, 76, 0
11, 33344, Note_on_c, 4, 73, 0
11, 33344, Note_on_c, 4, 73, 78
11, 33344, Note_on_c, 4, 76, 78
11, 33376, Note_on_c, 4, 76, 0
11, 33376, Note_on_c, 4, 73, 0
11, 33376, Note_on_c, 4, 73, 78
11, 33376, Note_on_c, 4, 76, 78
11, 33408, Note_on_c, 4, 76, 0
11, 33408, Note_on_c, 4, 73, 0
11, 33408, Note_on_c, 4, 76, 78
11, 33408, Note_on_c, 4, 73, 78
11, 33600, Note_on_c, 4, 73, 0
11, 33600, Note_on_c, 4, 76, 0
11, 33648, Note_on_c, 4, 60, 78
11, 33696, Note_on_c, 4, 60, 0
11, 33696, Note_on_c, 4, 61, 78
11, 33744, Note_on_c, 4, 61, 0
11, 33744, Note_on_c, 4, 64, 20
11, 33744, Note_on_c, 4, 60, 78
11, 33792, Note_on_c, 4, 60, 0
11, 33792, Note_on_c, 4, 64, 0
11, 33792, Note_on_c, 4, 61, 78
11, 33792, Note_on_c, 4, 64, 78
11, 33840, Note_on_c, 4, 64, 0
11, 33840, Note_on_c, 4, 61, 0
11, 33840, Note_on_c, 4, 63, 78
11, 33840, Note_on_c, 4, 72, 78
11, 33888, Note_on_c, 4, 72, 0
11, 33888, Note_on_c, 4, 63, 0
11, 33888, Note_on_c, 4, 64, 78
11, 33888, Note_on_c, 4, 73, 78
11, 33936, Note_on_c, 4, 73, 0
11, 33936, Note_on_c, 4, 64, 0
11, 33936, Note_on_c, 4, 75, 78
11, 33936, Note_on_c, 4, 68, 78
11, 33984, Note_on_c, 4, 68, 0
11, 33984, Note_on_c, 4, 75, 0
11, 33984, Note_on_c, 4, 73, 78
11, 33984, Note_on_c, 4, 76, 78
11, 34032, Note_on_c, 4, 76, 0
11, 34032, Note_on_c, 4, 73, 0
11, 34032, Note_on_c, 4, 64, 78
11, 34032, Note_on_c, 4, 73, 78
11, 34080, Note_on_c, 4, 73, 0
11, 34080, Note_on_c, 4, 64, 0
11, 34080, Note_on_c, 4, 80, 78
11, 34080, Note_on_c, 4, 73, 78
11, 34128, Note_on_c, 4, 73, 0
11, 34128, Note_on_c, 4, 80, 0
11, 34128, Note_on_c, 4, 68, 78
11, 34128, Note_on_c, 4, 73, 78
11, 34176, Note_on_c, 4, 73, 0
11, 34176, Note_on_c, 4, 68, 0
11, 34176, Note_on_c, 4, 76, 78
11, 34176, Note_on_c, 4, 85, 78
11, 34272, Note_on_c, 4, 85, 0
11, 34272, Note_on_c, 4, 76, 0
11, 34752, Note_on_c, 4, 81, 78
11, 35040, Note_on_c, 4, 81, 0
11, 35040, Note_on_c, 4, 80, 78
11, 35136, Note_on_c, 4, 80, 0
11, 35136, Note_on_c, 4, 76, 78
11, 35232, Note_on_c, 4, 76, 0
11, 35232, Note_on_c, 4, 75, 78
11, 35328, Note_on_c, 4, 75, 0
11, 35328, Note_on_c, 4, 73, 78
11, 35424, Note_on_c, 4, 73, 0
11, 35424, Note_on_c, 4, 73, 78
11, 35424, Note_on_c, 4, 71, 78
11, 35520, Note_on_c, 4, 71, 0
11, 35520, Note_on_c, 4, 73, 0
11, 35520, Note_on_c, 4, 73, 78
11, 35520, Note_on_c, 4, 71, 78
11, 35616, Note_on_c, 4, 71, 0
11, 35616, Note_on_c, 4, 73, 0
11, 35616, Note_on_c, 4, 73, 78
11, 35616, Note_on_c, 4, 71, 78
11, 35712, Note_on_c, 4, 71, 0
11, 35712, Note_on_c, 4, 73, 0
11, 35712, Note_on_c, 4, 69, 78
11, 35712, Note_on_c, 4, 73, 78
11, 35760, Note_on_c, 4, 73, 0
11, 35760, Note_on_c, 4, 69, 0
11, 35760, Note_on_c, 4, 73, 78
11, 35760, Note_on_c, 4, 69, 78
11, 35808, Note_on_c, 4, 69, 0
11, 35808, Note_on_c, 4, 73, 0
11, 35808, Note_on_c, 4, 66, 78
11, 35808, Note_on_c, 4, 69, 78
11, 35856, Note_on_c, 4, 69, 0
11, 35856, Note_on_c, 4, 66, 0
11, 35856, Note_on_c, 4, 69, 78
11, 35856, Note_on_c, 4, 66, 78
11, 35904, Note_on_c, 4, 66, 0
11, 35904, Note_on_c, 4, 69, 0
11, 35952, Note_on_c, 4, 65, 78
11, 36000, Note_on_c, 4, 65, 0
11, 36000, Note_on_c, 4, 66, 78
11, 36048, Note_on_c, 4, 66, 0
11, 36048, Note_on_c, 4, 68, 78
11, 36048, Note_on_c, 4, 65, 78
11, 36096, Note_on_c, 4, 65, 0
11, 36096, Note_on_c, 4, 68, 0
11, 36096, Note_on_c, 4, 69, 78
11, 36096, Note_on_c, 4, 66, 78
11, 36144, Note_on_c, 4, 66, 0
11, 36144, Note_on_c, 4, 69, 0
11, 36144, Note_on_c, 4, 77, 78
11, 36144, Note_on_c, 4, 68, 78
11, 36192, Note_on_c, 4, 68, 0
11, 36192, Note_on_c, 4, 77, 0
11, 36192, Note_on_c, 4, 78, 78
11, 36192, Note_on_c, 4, 69, 78
11, 36240, Note_on_c, 4, 69, 0
11, 36240, Note_on_c, 4, 78, 0
11, 36240, Note_on_c, 4, 80, 78
11, 36240, Note_on_c, 4, 73, 78
11, 36288, Note_on_c, 4, 73, 0
11, 36288, Note_on_c, 4, 80, 0
11, 36288, Note_on_c, 4, 78, 78
11, 36288, Note_on_c, 4, 81, 78
11, 36336, Note_on_c, 4, 81, 0
11, 36336, Note_on_c, 4, 78, 0
11, 36336, Note_on_c, 4, 69, 78
11, 36336, Note_on_c, 4, 78, 78
11, 36384, Note_on_c, 4, 78, 0
11, 36384, Note_on_c, 4, 69, 0
11, 36384, Note_on_c, 4, 85, 78
11, 36384, Note_on_c, 4, 78, 78
11, 36432, Note_on_c, 4, 78, 0
11, 36432, Note_on_c, 4, 85, 0
11, 36432, Note_on_c, 4, 78, 78
11, 36432, Note_on_c, 4, 73, 78
11, 36480, Note_on_c, 4, 73, 0
11, 36480, Note_on_c, 4, 78, 0
11, 36480, Note_on_c, 4, 78, 78
11, 36480, Note_on_c, 4, 81, 78
11, 36576, Note_on_c, 4, 81, 0
11, 36576, Note_on_c, 4, 78, 0
11, 37056, Note_on_c, 4, 74, 78
11, 37344, Note_on_c, 4, 74, 0
11, 37344, Note_on_c, 4, 73, 78
11, 37440, Note_on_c, 4, 73, 0
11, 37440, Note_on_c, 4, 68, 78
11, 37536, Note_on_c, 4, 68, 0
11, 37536, Note_on_c, 4, 68, 78
11, 37632, Note_on_c, 4, 68, 0
11, 37632, Note_on_c, 4, 66, 78
11, 37728, Note_on_c, 4, 66, 0
11, 37728, Note_on_c, 4, 76, 78
11, 37728, Note_on_c, 4, 78, 78
11, 37824, Note_on_c, 4, 78, 0
11, 37824, Note_on_c, 4, 76, 0
11, 37824, Note_on_c, 4, 78, 78
11, 37824, Note_on_c, 4, 76, 78
11, 37920, Note_on_c, 4, 76, 0
11, 37920, Note_on_c, 4, 78, 0
11, 37920, Note_on_c, 4, 76, 78
11, 37920, Note_on_c, 4, 78, 78
11, 38016, Note_on_c, 4, 78, 0
11, 38016, Note_on_c, 4, 76, 0
11, 38016, Note_on_c, 4, 74, 78
11, 38016, Note_on_c, 4, 78, 78
11, 38064, Note_on_c, 4, 78, 0
11, 38064, Note_on_c, 4, 74, 0
11, 38064, Note_on_c, 4, 78, 78
11, 38064, Note_on_c, 4, 74, 78
11, 38112, Note_on_c, 4, 74, 0
11, 38112, Note_on_c, 4, 78, 0
11, 38112, Note_on_c, 4, 71, 78
11, 38112, Note_on_c, 4, 74, 78
11, 38160, Note_on_c, 4, 74, 0
11, 38160, Note_on_c, 4, 71, 0
11, 38160, Note_on_c, 4, 74, 78
11, 38160, Note_on_c, 4, 71, 78
11, 38208, Note_on_c, 4, 71, 0
11, 38208, Note_on_c, 4, 74, 0
11, 38208, Note_on_c, 4, 72, 78
11, 38208, Note_on_c, 4, 78, 78
11, 38400, Note_on_c, 4, 78, 0
11, 38400, Note_on_c, 4, 72, 0
11, 38400, Note_on_c, 4, 71, 78
11, 38400, Note_on_c, 4, 79, 78
11, 38592, Note_on_c, 4, 79, 0
11, 38592, Note_on_c, 4, 71, 0
11, 38592, Note_on_c, 4, 74, 78
11, 38592, Note_on_c, 4, 80, 78
11, 38784, Note_on_c, 4, 80, 0
11, 38784, Note_on_c, 4, 74, 0
11, 38784, Note_on_c, 4, 73, 78
11, 38784, Note_on_c, 4, 81, 78
11, 38976, Note_on_c, 4, 81, 0
11, 38976, Note_on_c, 4, 73, 0
11, 38976, Note_on_c, 4, 76, 78
11, 38976, Note_on_c, 4, 82, 78
11, 39168, Note_on_c, 4, 82, 0
11, 39168, Note_on_c, 4, 76, 0
11, 39168, Note_on_c, 4, 74, 78
11, 39168, Note_on_c, 4, 83, 78
11, 39360, Note_on_c, 4, 83, 0
11, 39360, Note_on_c, 4, 74, 0
11, 39360, Note_on_c, 4, 78, 78
11, 39360, Note_on_c, 4, 84, 78
11, 39456, Note_on_c, 4, 84, 0
11, 39456, Note_on_c, 4, 78, 0
11, 39456, Note_on_c, 4, 60, 78
11, 39552, Note_on_c, 4, 60, 0
11, 39552, Note_on_c, 4, 63, 78
11, 39648, Note_on_c, 4, 63, 0
11, 39648, Note_on_c, 4, 66, 78
11, 39744, Note_on_c, 4, 66, 0
11, 39744, Note_on_c, 4, 69, 78
11, 39840, Note_on_c, 4, 69, 0
11, 39840, Note_on_c, 4, 72, 78
11, 39840, Note_on_c, 4, 60, 78
11, 39936, Note_on_c, 4, 60, 0
11, 39936, Note_on_c, 4, 72, 0
11, 39936, Note_on_c, 4, 75, 78
11, 39936, Note_on_c, 4, 63, 78
11, 40032, Note_on_c, 4, 63, 0
11, 40032, Note_on_c, 4, 75, 0
11, 40032, Note_on_c, 4, 66, 78
11, 40032, Note_on_c, 4, 78, 78
11, 40128, Note_on_c, 4, 78, 0
11, 40128, Note_on_c, 4, 66, 0
11, 40128, Note_on_c, 4, 81, 78
11, 40128, Note_on_c, 4, 69, 78
11, 40224, Note_on_c, 4, 69, 0
11, 40224, Note_on_c, 4, 81, 0
11, 40224, Note_on_c, 4, 81, 78
11, 40224, Note_on_c, 4, 69, 78
11, 40320, Note_on_c, 4, 69, 0
11, 40320, Note_on_c, 4, 81, 0
11, 40320, Note_on_c, 4, 82, 78
11, 40320, Note_on_c, 4, 70, 78
11, 40512, Note_on_c, 4, 70, 0
11, 40512, Note_on_c, 4, 82, 0
11, 40512, Note_on_c, 4, 72, 78
11, 40512, Note_on_c, 4, 84, 78
11, 40704, Note_on_c, 4, 84, 0
11, 40704, Note_on_c, 4, 72, 0
11, 44592, Note_on_c, 4, 70, 78
11, 44610, Note_on_c, 4, 70, 0
11, 44616, Note_on_c, 4, 70, 78
11, 44634, Note_on_c, 4, 70, 0
11, 44640, Note_on_c, 4, 67, 78
11, 44640, Note_on_c, 4, 75, 78
11, 44676, Note_on_c, 4, 75, 0
11, 44676, Note_on_c, 4, 67, 0
11, 44688, Note_on_c, 4, 70, 78
11, 44688, Note_on_c, 4, 77, 78
11, 44724, Note_on_c, 4, 77, 0
11, 44724, Note_on_c, 4, 70, 0
11, 44736, Note_on_c, 4, 79, 78
11, 44736, Note_on_c, 4, 75, 78
11, 44772, Note_on_c, 4, 75, 0
11, 44772, Note_on_c, 4, 79, 0
11, 44784, Note_on_c, 4, 70, 78
11, 44784, Note_on_c, 4, 77, 78
11, 44820, Note_on_c, 4, 77, 0
11, 44820, Note_on_c, 4, 70, 0
11, 44832, Note_on_c, 4, 75, 78
11, 44832, Note_on_c, 4, 67, 78
11, 44868, Note_on_c, 4, 67, 0
11, 44868, Note_on_c, 4, 75, 0
11, 44880, Note_on_c, 4, 77, 78
11, 44880, Note_on_c, 4, 70, 78
11, 44916, Note_on_c, 4, 70, 0
11, 44916, Note_on_c, 4, 77, 0
11, 44928, Note_on_c, 4, 75, 78
11, 44928, Note_on_c, 4, 79, 78
11, 44946, Note_on_c, 4, 79, 0
11, 44946, Note_on_c, 4, 75, 0
11, 45024, Note_on_c, 4, 75, 78
11, 45024, Note_on_c, 4, 67, 78
11, 45042, Note_on_c, 4, 67, 0
11, 45042, Note_on_c, 4, 75, 0
11, 45120, Note_on_c, 4, 75, 78
11, 45120, Note_on_c, 4, 67, 78
11, 45311, Note_on_c, 4, 67, 0
11, 45311, Note_on_c, 4, 75, 0
11, 45360, Note_on_c, 4, 70, 78
11, 45378, Note_on_c, 4, 70, 0
11, 45384, Note_on_c, 4, 70, 78
11, 45402, Note_on_c, 4, 70, 0
11, 45408, Note_on_c, 4, 75, 78
11, 45408, Note_on_c, 4, 67, 78
11, 45444, Note_on_c, 4, 67, 0
11, 45444, Note_on_c, 4, 75, 0
11, 45456, Note_on_c, 4, 70, 78
11, 45456, Note_on_c, 4, 77, 78
11, 45492, Note_on_c, 4, 77, 0
11, 45492, Note_on_c, 4, 70, 0
11, 45504, Note_on_c, 4, 79, 78
11, 45504, Note_on_c, 4, 75, 78
11, 45540, Note_on_c, 4, 75, 0
11, 45540, Note_on_c, 4, 79, 0
11, 45552, Note_on_c, 4, 70, 78
11, 45552, Note_on_c, 4, 77, 78
11, 45588, Note_on_c, 4, 77, 0
11, 45588, Note_on_c, 4, 70, 0
11, 45600, Note_on_c, 4, 75, 78
11, 45600, Note_on_c, 4, 67, 78
11, 45636, Note_on_c, 4, 67, 0
11, 45636, Note_on_c, 4, 75, 0
11, 45648, Note_on_c, 4, 77, 78
11, 45648, Note_on_c, 4, 70, 78
11, 45684, Note_on_c, 4, 70, 0
11, 45684, Note_on_c, 4, 77, 0
11, 45696, Note_on_c, 4, 79, 78
11, 45696, Note_on_c, 4, 75, 78
11, 45714, Note_on_c, 4, 75, 0
11, 45714, Note_on_c, 4, 79, 0
11, 45792, Note_on_c, 4, 75, 78
11, 45792, Note_on_c, 4, 67, 78
11, 45810, Note_on_c, 4, 67, 0
11, 45810, Note_on_c, 4, 75, 0
11, 45888, Note_on_c, 4, 67, 78
11, 45888, Note_on_c, 4, 75, 78
11, 46079, Note_on_c, 4, 75, 0
11, 46079, Note_on_c, 4, 67, 0
11, 46128, Note_on_c, 4, 72, 78
11, 46146, Note_on_c, 4, 72, 0
11, 46152, Note_on_c, 4, 72, 78
11, 46170, Note_on_c, 4, 72, 0
11, 46176, Note_on_c, 4, 77, 78
11, 46176, Note_on_c, 4, 68, 78
11, 46212, Note_on_c, 4, 68, 0
11, 46212, Note_on_c, 4, 77, 0
11, 46224, Note_on_c, 4, 72, 78
11, 46224, Note_on_c, 4, 80, 78
11, 46260, Note_on_c, 4, 80, 0
11, 46260, Note_on_c, 4, 72, 0
11, 46272, Note_on_c, 4, 68, 78
11, 46272, Note_on_c, 4, 77, 78
11, 46308, Note_on_c, 4, 77, 0
11, 46308, Note_on_c, 4, 68, 0
11, 46320, Note_on_c, 4, 67, 78
11, 46320, Note_on_c, 4, 72, 78
11, 46356, Note_on_c, 4, 72, 0
11, 46356, Note_on_c, 4, 67, 0
11, 46368, Note_on_c, 4, 65, 78
11, 46368, Note_on_c, 4, 68, 78
11, 46404, Note_on_c, 4, 68, 0
11, 46404, Note_on_c, 4, 65, 0
11, 46416, Note_on_c, 4, 67, 78
11, 46416, Note_on_c, 4, 72, 78
11, 46452, Note_on_c, 4, 72, 0
11, 46452, Note_on_c, 4, 67, 0
11, 46464, Note_on_c, 4, 77, 78
11, 46464, Note_on_c, 4, 68, 78
11, 46500, Note_on_c, 4, 68, 0
11, 46500, Note_on_c, 4, 77, 0
11, 46512, Note_on_c, 4, 67, 78
11, 46512, Note_on_c, 4, 72, 78
11, 46548, Note_on_c, 4, 72, 0
11, 46548, Note_on_c, 4, 67, 0
11, 46560, Note_on_c, 4, 68, 78
11, 46560, Note_on_c, 4, 65, 78
11, 46596, Note_on_c, 4, 65, 0
11, 46596, Note_on_c, 4, 68, 0
11, 46608, Note_on_c, 4, 72, 78
11, 46608, Note_on_c, 4, 67, 78
11, 46644, Note_on_c, 4, 67, 0
11, 46644, Note_on_c, 4, 72, 0
11, 46656, Note_on_c, 4, 77, 78
11, 46656, Note_on_c, 4, 68, 78
11, 46847, Note_on_c, 4, 68, 0
11, 46847, Note_on_c, 4, 77, 0
11, 46896, Note_on_c, 4, 70, 78
11, 46896, Note_on_c, 4, 70, 78
11, 46914, Note_on_c, 4, 70, 0
11, 46914, Note_on_c, 4, 70, 0
11, 46944, Note_on_c, 4, 75, 78
11, 46944, Note_on_c, 4, 67, 78
11, 46980, Note_on_c, 4, 67, 0
11, 46980, Note_on_c, 4, 75, 0
11, 46992, Note_on_c, 4, 70, 78
11, 46992, Note_on_c, 4, 77, 78
11, 47028, Note_on_c, 4, 77, 0
11, 47028, Note_on_c, 4, 70, 0
11, 47040, Note_on_c, 4, 67, 78
11, 47040, Note_on_c, 4, 75, 78
11, 47076, Note_on_c, 4, 75, 0
11, 47076, Note_on_c, 4, 67, 0
11, 47088, Note_on_c, 4, 65, 78
11, 47088, Note_on_c, 4, 70, 78
11, 47124, Note_on_c, 4, 70, 0
11, 47124, Note_on_c, 4, 65, 0
11, 47136, Note_on_c, 4, 67, 78
11, 47136, Note_on_c, 4, 63, 78
11, 47172, Note_on_c, 4, 63, 0
11, 47172, Note_on_c, 4, 67, 0
11, 47184, Note_on_c, 4, 65, 78
11, 47184, Note_on_c, 4, 70, 78
11, 47220, Note_on_c, 4, 70, 0
11, 47220, Note_on_c, 4, 65, 0
11, 47232, Note_on_c, 4, 67, 78
11, 47232, Note_on_c, 4, 75, 78
11, 47268, Note_on_c, 4, 75, 0
11, 47268, Note_on_c, 4, 67, 0
11, 47280, Note_on_c, 4, 70, 78
11, 47280, Note_on_c, 4, 65, 78
11, 47316, Note_on_c, 4, 65, 0
11, 47316, Note_on_c, 4, 70, 0
11, 47328, Note_on_c, 4, 63, 78
11, 47328, Note_on_c, 4, 67, 78
11, 47364, Note_on_c, 4, 67, 0
11, 47364, Note_on_c, 4, 63, 0
11, 47376, Note_on_c, 4, 65, 78
11, 47376, Note_on_c, 4, 70, 78
11, 47412, Note_on_c, 4, 70, 0
11, 47412, Note_on_c, 4, 65, 0
11, 47424, Note_on_c, 4, 75, 78
11, 47424, Note_on_c, 4, 67, 78
11, 47615, Note_on_c, 4, 67, 0
11, 47615, Note_on_c, 4, 75, 0
11, 59808, Note_on_c, 4, 59, 78
11, 59808, Note_on_c, 4, 65, 78
11, 59904, Note_on_c, 4, 65, 0
11, 59904, Note_on_c, 4, 59, 0
11, 60000, Note_on_c, 4, 56, 78
11, 60000, Note_on_c, 4, 63, 78
11, 60096, Note_on_c, 4, 63, 0
11, 60096, Note_on_c, 4, 56, 0
11, 60192, Note_on_c, 4, 59, 78
11, 60192, Note_on_c, 4, 53, 78
11, 60288, Note_on_c, 4, 53, 0
11, 60288, Note_on_c, 4, 59, 0
11, 60384, Note_on_c, 4, 56, 78
11, 60480, Note_on_c, 4, 56, 0
11, 65184, Note_on_c, 4, 59, 78
11, 65280, Note_on_c, 4, 59, 0
11, 65280, Note_on_c, 4, 71, 78
11, 65376, Note_on_c, 4, 68, 78
11, 65472, Note_on_c, 4, 68, 0
11, 65472, Note_on_c, 4, 65, 78
11, 65520, Note_on_c, 4, 71, 0
11, 65520, Note_on_c, 4, 70, 78
11, 65568, Note_on_c, 4, 70, 0
11, 65568, Note_on_c, 4, 65, 0
11, 65568, Note_on_c, 4, 68, 78
11, 65568, Note_on_c, 4, 62, 78
11, 65616, Note_on_c, 4, 68, 0
11, 65616, Note_on_c, 4, 70, 78
11, 65664, Note_on_c, 4, 70, 0
11, 65664, Note_on_c, 4, 62, 0
11, 65664, Note_on_c, 4, 68, 78
11, 65712, Note_on_c, 4, 68, 0
11, 65712, Note_on_c, 4, 66, 78
11, 65760, Note_on_c, 4, 66, 0
11, 65760, Note_on_c, 4, 59, 78
11, 65760, Note_on_c, 4, 65, 78
11, 65808, Note_on_c, 4, 65, 0
11, 65808, Note_on_c, 4, 63, 78
11, 65856, Note_on_c, 4, 63, 0
11, 65856, Note_on_c, 4, 59, 0
11, 65856, Note_on_c, 4, 56, 78
11, 65856, Note_on_c, 4, 62, 78
11, 65916, Note_on_c, 4, 62, 0
11, 65916, Note_on_c, 4, 56, 0
11, 65952, Note_on_c, 4, 59, 78
11, 65952, Note_on_c, 4, 65, 78
11, 66012, Note_on_c, 4, 65, 0
11, 66012, Note_on_c, 4, 59, 0
11, 66048, Note_on_c, 4, 59, 78
11, 66108, Note_on_c, 4, 59, 0
11, 66144, Note_on_c, 4, 56, 78
11, 66144, Note_on_c, 4, 63, 78
11, 66204, Note_on_c, 4, 63, 0
11, 66204, Note_on_c, 4, 56, 0
11, 66240, Note_on_c, 4, 56, 78
11, 66300, Note_on_c, 4, 56, 0
11, 66336, Note_on_c, 4, 59, 78
11, 66396, Note_on_c, 4, 59, 0
11, 66432, Note_on_c, 4, 53, 78
11, 66492, Note_on_c, 4, 53, 0
11, 66528, Note_on_c, 4, 56, 78
11, 66588, Note_on_c, 4, 56, 0
11, 66672, Note_on_c, 4, 58, 78
11, 66720, Note_on_c, 4, 58, 0
11, 66720, Note_on_c, 4, 60, 78
11, 66768, Note_on_c, 4, 60, 0
11, 66768, Note_on_c, 4, 62, 78
11, 66816, Note_on_c, 4, 62, 0
11, 66816, Note_on_c, 4, 63, 78
11, 66912, Note_on_c, 4, 58, 78
11, 67008, Note_on_c, 4, 58, 0
11, 67008, Note_on_c, 4, 58, 78
11, 67056, Note_on_c, 4, 63, 0
11, 67056, Note_on_c, 4, 62, 78
11, 67104, Note_on_c, 4, 62, 0
11, 67104, Note_on_c, 4, 58, 0
11, 67104, Note_on_c, 4, 63, 78
11, 67152, Note_on_c, 4, 63, 0
11, 67152, Note_on_c, 4, 65, 78
11, 67200, Note_on_c, 4, 65, 0
11, 67200, Note_on_c, 4, 68, 78
11, 67248, Note_on_c, 4, 68, 0
11, 67248, Note_on_c, 4, 66, 78
11, 67296, Note_on_c, 4, 66, 0
11, 67296, Note_on_c, 4, 54, 78
11, 67392, Note_on_c, 4, 54, 0
11, 67392, Note_on_c, 4, 55, 78
11, 67440, Note_on_c, 4, 63, 78
11, 67488, Note_on_c, 4, 63, 0
11, 67488, Note_on_c, 4, 55, 0
11, 67488, Note_on_c, 4, 65, 78
11, 67536, Note_on_c, 4, 65, 0
11, 67536, Note_on_c, 4, 67, 78
11, 67584, Note_on_c, 4, 67, 0
11, 67584, Note_on_c, 4, 68, 78
11, 67680, Note_on_c, 4, 56, 78
11, 67776, Note_on_c, 4, 56, 0
11, 67776, Note_on_c, 4, 58, 78
11, 67824, Note_on_c, 4, 68, 0
11, 67824, Note_on_c, 4, 67, 78
11, 67872, Note_on_c, 4, 67, 0
11, 67872, Note_on_c, 4, 58, 0
11, 67872, Note_on_c, 4, 68, 78
11, 67920, Note_on_c, 4, 68, 0
11, 67920, Note_on_c, 4, 70, 78
11, 67968, Note_on_c, 4, 70, 0
11, 67968, Note_on_c, 4, 73, 78
11, 68016, Note_on_c, 4, 73, 0
11, 68064, Note_on_c, 4, 59, 78
11, 68160, Note_on_c, 4, 59, 0
11, 68160, Note_on_c, 4, 59, 78
11, 68256, Note_on_c, 4, 59, 0
11, 68256, Note_on_c, 4, 75, 78
11, 68316, Note_on_c, 4, 75, 0
11, 68352, Note_on_c, 4, 74, 78
11, 68412, Note_on_c, 4, 74, 0
11, 68448, Note_on_c, 4, 77, 78
11, 68508, Note_on_c, 4, 77, 0
11, 68544, Note_on_c, 4, 68, 78
11, 68604, Note_on_c, 4, 68, 0
11, 68640, Note_on_c, 4, 71, 78
11, 68700, Note_on_c, 4, 71, 0
11, 68736, Note_on_c, 4, 62, 78
11, 68796, Note_on_c, 4, 62, 0
11, 68832, Note_on_c, 4, 65, 78
11, 68892, Note_on_c, 4, 65, 0
11, 68928, Note_on_c, 4, 58, 78
11, 68988, Note_on_c, 4, 58, 0
11, 69024, Note_on_c, 4, 75, 78
11, 69084, Note_on_c, 4, 75, 0
11, 69120, Note_on_c, 4, 74, 78
11, 69180, Note_on_c, 4, 74, 0
11, 69216, Note_on_c, 4, 77, 78
11, 69276, Note_on_c, 4, 77, 0
11, 69312, Note_on_c, 4, 68, 78
11, 69372, Note_on_c, 4, 68, 0
11, 69408, Note_on_c, 4, 71, 78
11, 69468, Note_on_c, 4, 71, 0
11, 69504, Note_on_c, 4, 62, 78
11, 69564, Note_on_c, 4, 62, 0
11, 69600, Note_on_c, 4, 65, 78
11, 69660, Note_on_c, 4, 65, 0
11, 69696, Note_on_c, 4, 58, 78
11, 69756, Note_on_c, 4, 58, 0
11, 69792, Note_on_c, 4, 70, 78
11, 69792, Note_on_c, 4, 75, 78
11, 69852, Note_on_c, 4, 75, 0
11, 69852, Note_on_c, 4, 70, 0
11, 69888, Note_on_c, 4, 70, 78
11, 69888, Note_on_c, 4, 74, 78
11, 69946, Note_on_c, 4, 74, 0
11, 69946, Note_on_c, 4, 70, 0
11, 69984, Note_on_c, 4, 70, 78
11, 69984, Note_on_c, 4, 75, 78
11, 70042, Note_on_c, 4, 75, 0
11, 70042, Note_on_c, 4, 70, 0
11, 70176, Note_on_c, 4, 71, 78
11, 70176, Note_on_c, 4, 76, 78
11, 70234, Note_on_c, 4, 76, 0
11, 70234, Note_on_c, 4, 71, 0
11, 70272, Note_on_c, 4, 75, 78
11, 70272, Note_on_c, 4, 71, 78
11, 70330, Note_on_c, 4, 71, 0
11, 70330, Note_on_c, 4, 75, 0
11, 70368, Note_on_c, 4, 76, 78
11, 70368, Note_on_c, 4, 71, 78
11, 70426, Note_on_c, 4, 71, 0
11, 70426, Note_on_c, 4, 76, 0
11, 70560, Note_on_c, 4, 72, 78
11, 70560, Note_on_c, 4, 77, 78
11, 70618, Note_on_c, 4, 77, 0
11, 70618, Note_on_c, 4, 72, 0
11, 70656, Note_on_c, 4, 72, 78
11, 70656, Note_on_c, 4, 76, 78
11, 70714, Note_on_c, 4, 76, 0
11, 70714, Note_on_c, 4, 72, 0
11, 70752, Note_on_c, 4, 77, 78
11, 70752, Note_on_c, 4, 71, 78
11, 70810, Note_on_c, 4, 71, 0
11, 70810, Note_on_c, 4, 77, 0
11, 70944, Note_on_c, 4, 73, 78
11, 70944, Note_on_c, 4, 78, 78
11, 71002, Note_on_c, 4, 78, 0
11, 71002, Note_on_c, 4, 73, 0
11, 71040, Note_on_c, 4, 73, 78
11, 71040, Note_on_c, 4, 77, 78
11, 71098, Note_on_c, 4, 77, 0
11, 71098, Note_on_c, 4, 73, 0
11, 71136, Note_on_c, 4, 78, 78
11, 71136, Note_on_c, 4, 73, 78
11, 71194, Note_on_c, 4, 73, 0
11, 71194, Note_on_c, 4, 78, 0
11, 71328, Note_on_c, 4, 74, 78
11, 71328, Note_on_c, 4, 79, 78
11, 71386, Note_on_c, 4, 79, 0
11, 71386, Note_on_c, 4, 74, 0
11, 71424, Note_on_c, 4, 78, 78
11, 71424, Note_on_c, 4, 74, 78
11, 71482, Note_on_c, 4, 74, 0
11, 71482, Note_on_c, 4, 78, 0
11, 71520, Note_on_c, 4, 79, 78
11, 71520, Note_on_c, 4, 74, 78
11, 71580, Note_on_c, 4, 74, 0
11, 71580, Note_on_c, 4, 79, 0
11, 71712, Note_on_c, 4, 80, 78
11, 71712, Note_on_c, 4, 75, 78
11, 71904, Note_on_c, 4, 75, 0
11, 71904, Note_on_c, 4, 80, 0
11, 71904, Note_on_c, 4, 81, 78
11, 71904, Note_on_c, 4, 75, 78
11, 72096, Note_on_c, 4, 75, 0
11, 72096, Note_on_c, 4, 81, 0
11, 72096, Note_on_c, 4, 77, 78
11, 72096, Note_on_c, 4, 82, 78
11, 72156, Note_on_c, 4, 82, 0
11, 72156, Note_on_c, 4, 77, 0
11, 72192, Note_on_c, 4, 77, 78
11, 72192, Note_on_c, 4, 81, 78
11, 72252, Note_on_c, 4, 81, 0
11, 72252, Note_on_c, 4, 77, 0
11, 72288, Note_on_c, 4, 77, 78
11, 72288, Note_on_c, 4, 82, 78
11, 72348, Note_on_c, 4, 82, 0
11, 72348, Note_on_c, 4, 77, 0
11, 72480, Note_on_c, 4, 78, 78
11, 72480, Note_on_c, 4, 71, 78
11, 72672, Note_on_c, 4, 71, 0
11, 72672, Note_on_c, 4, 78, 0
11, 72672, Note_on_c, 4, 78, 78
11, 72672, Note_on_c, 4, 72, 78
11, 72864, Note_on_c, 4, 72, 0
11, 72864, Note_on_c, 4, 78, 0
11, 72864, Note_on_c, 4, 73, 78
11, 72864, Note_on_c, 4, 79, 78
11, 72924, Note_on_c, 4, 79, 0
11, 72924, Note_on_c, 4, 73, 0
11, 72960, Note_on_c, 4, 80, 78
11, 72960, Note_on_c, 4, 72, 78
11, 73019, Note_on_c, 4, 72, 0
11, 73019, Note_on_c, 4, 80, 0
11, 73056, Note_on_c, 4, 73, 78
11, 73056, Note_on_c, 4, 79, 78
11, 73115, Note_on_c, 4, 79, 0
11, 73115, Note_on_c, 4, 73, 0
11, 73248, Note_on_c, 4, 80, 78
11, 73248, Note_on_c, 4, 74, 78
11, 73307, Note_on_c, 4, 74, 0
11, 73307, Note_on_c, 4, 80, 0
11, 73344, Note_on_c, 4, 81, 78
11, 73344, Note_on_c, 4, 73, 78
11, 73403, Note_on_c, 4, 73, 0
11, 73403, Note_on_c, 4, 81, 0
11, 73440, Note_on_c, 4, 80, 78
11, 73440, Note_on_c, 4, 74, 78
11, 73499, Note_on_c, 4, 74, 0
11, 73499, Note_on_c, 4, 80, 0
11, 73632, Note_on_c, 4, 75, 78
11, 73632, Note_on_c, 4, 81, 78
11, 73691, Note_on_c, 4, 81, 0
11, 73691, Note_on_c, 4, 75, 0
11, 73728, Note_on_c, 4, 74, 78
11, 73728, Note_on_c, 4, 82, 78
11, 73787, Note_on_c, 4, 82, 0
11, 73787, Note_on_c, 4, 74, 0
11, 73824, Note_on_c, 4, 75, 78
11, 73824, Note_on_c, 4, 81, 78
11, 73883, Note_on_c, 4, 81, 0
11, 73883, Note_on_c, 4, 75, 0
11, 74016, Note_on_c, 4, 76, 78
11, 74016, Note_on_c, 4, 82, 78
11, 74075, Note_on_c, 4, 82, 0
11, 74075, Note_on_c, 4, 76, 0
11, 74112, Note_on_c, 4, 75, 78
11, 74112, Note_on_c, 4, 83, 78
11, 74171, Note_on_c, 4, 83, 0
11, 74171, Note_on_c, 4, 75, 0
11, 74208, Note_on_c, 4, 83, 78
11, 74208, Note_on_c, 4, 76, 78
11, 74400, Note_on_c, 4, 76, 0
11, 74400, Note_on_c, 4, 83, 0
11, 74400, Note_on_c, 4, 77, 78
11, 74400, Note_on_c, 4, 83, 78
11, 74460, Note_on_c, 4, 83, 0
11, 74460, Note_on_c, 4, 77, 0
11, 74496, Note_on_c, 4, 82, 78
11, 74496, Note_on_c, 4, 78, 78
11, 74556, Note_on_c, 4, 78, 0
11, 74556, Note_on_c, 4, 82, 0
11, 74592, Note_on_c, 4, 78, 78
11, 74784, Note_on_c, 4, 78, 0
11, 74784, Note_on_c, 4, 77, 78
11, 74832, Note_on_c, 4, 77, 0
11, 74832, Note_on_c, 4, 75, 78
11, 74880, Note_on_c, 4, 75, 0
11, 74880, Note_on_c, 4, 74, 78
11, 74928, Note_on_c, 4, 74, 0
11, 74928, Note_on_c, 4, 75, 78
11, 74976, Note_on_c, 4, 75, 0
11, 74976, Note_on_c, 4, 73, 78
11, 75024, Note_on_c, 4, 73, 0
11, 75024, Note_on_c, 4, 71, 78
11, 75072, Note_on_c, 4, 71, 0
11, 75072, Note_on_c, 4, 70, 78
11, 75120, Note_on_c, 4, 70, 0
11, 75120, Note_on_c, 4, 71, 78
11, 75168, Note_on_c, 4, 71, 0
11, 75168, Note_on_c, 4, 70, 78
11, 75216, Note_on_c, 4, 70, 0
11, 75216, Note_on_c, 4, 68, 78
11, 75264, Note_on_c, 4, 68, 0
11, 75264, Note_on_c, 4, 66, 78
11, 75312, Note_on_c, 4, 66, 0
11, 75312, Note_on_c, 4, 68, 78
11, 75360, Note_on_c, 4, 68, 0
11, 75360, Note_on_c, 4, 66, 78
11, 75408, Note_on_c, 4, 66, 0
11, 75408, Note_on_c, 4, 65, 78
11, 75456, Note_on_c, 4, 65, 0
11, 75456, Note_on_c, 4, 63, 78
11, 75504, Note_on_c, 4, 63, 0
11, 75504, Note_on_c, 4, 65, 78
11, 75552, Note_on_c, 4, 65, 0
11, 75552, Note_on_c, 4, 63, 78
11, 75600, Note_on_c, 4, 63, 0
11, 75600, Note_on_c, 4, 61, 78
11, 75648, Note_on_c, 4, 61, 0
11, 75648, Note_on_c, 4, 59, 78
11, 75696, Note_on_c, 4, 59, 0
11, 75696, Note_on_c, 4, 68, 78
11, 75744, Note_on_c, 4, 68, 0
11, 75744, Note_on_c, 4, 65, 78
11, 75792, Note_on_c, 4, 65, 0
11, 75792, Note_on_c, 4, 62, 78
11, 75840, Note_on_c, 4, 62, 0
11, 75840, Note_on_c, 4, 59, 78
11, 75888, Note_on_c, 4, 59, 0
11, 75888, Note_on_c, 4, 58, 78
11, 75936, Note_on_c, 4, 58, 0
11, 75936, Note_on_c, 4, 57, 78
11, 75984, Note_on_c, 4, 57, 0
11, 75984, Note_on_c, 4, 58, 78
11, 76032, Note_on_c, 4, 58, 0
11, 76032, Note_on_c, 4, 63, 78
11, 76032, Note_on_c, 4, 51, 78
11, 76128, Note_on_c, 4, 51, 0
11, 76128, Note_on_c, 4, 63, 0
11, 76464, Note_on_c, 4, 58, 78
11, 76512, Note_on_c, 4, 58, 0
11, 76512, Note_on_c, 4, 60, 78
11, 76560, Note_on_c, 4, 60, 0
11, 76560, Note_on_c, 4, 62, 78
11, 76608, Note_on_c, 4, 62, 0
11, 76608, Note_on_c, 4, 63, 78
11, 76656, Note_on_c, 4, 63, 0
11, 76656, Note_on_c, 4, 62, 78
11, 76704, Note_on_c, 4, 62, 0
11, 76704, Note_on_c, 4, 63, 78
11, 76752, Note_on_c, 4, 63, 0
11, 76752, Note_on_c, 4, 65, 78
11, 76800, Note_on_c, 4, 65, 0
11, 76800, Note_on_c, 4, 66, 78
11, 76848, Note_on_c, 4, 63, 78
11, 76896, Note_on_c, 4, 63, 0
11, 76896, Note_on_c, 4, 66, 0
11, 76896, Note_on_c, 4, 65, 78
11, 76896, Note_on_c, 4, 63, 78
11, 76944, Note_on_c, 4, 65, 0
11, 76944, Note_on_c, 4, 66, 78
11, 76992, Note_on_c, 4, 66, 0
11, 76992, Note_on_c, 4, 63, 0
11, 76992, Note_on_c, 4, 59, 78
11, 76992, Note_on_c, 4, 68, 78
11, 77040, Note_on_c, 4, 68, 0
11, 77040, Note_on_c, 4, 70, 78
11, 77088, Note_on_c, 4, 70, 0
11, 77088, Note_on_c, 4, 59, 0
11, 77088, Note_on_c, 4, 56, 78
11, 77088, Note_on_c, 4, 71, 78
11, 77136, Note_on_c, 4, 71, 0
11, 77136, Note_on_c, 4, 75, 78
11, 77184, Note_on_c, 4, 75, 0
11, 77184, Note_on_c, 4, 56, 0
11, 77184, Note_on_c, 4, 73, 78
11, 77184, Note_on_c, 4, 61, 78
11, 77568, Note_on_c, 4, 61, 0
11, 77616, Note_on_c, 4, 66, 78
11, 77664, Note_on_c, 4, 73, 0
11, 77664, Note_on_c, 4, 65, 78
11, 77693, Note_on_c, 4, 66, 0
11, 77712, Note_on_c, 4, 64, 78
11, 77741, Note_on_c, 4, 65, 0
11, 77760, Note_on_c, 4, 63, 78
11, 77789, Note_on_c, 4, 64, 0
11, 77914, Note_on_c, 4, 63, 0
11, 78000, Note_on_c, 4, 61, 78
11, 78048, Note_on_c, 4, 63, 78
11, 78077, Note_on_c, 4, 61, 0
11, 78096, Note_on_c, 4, 65, 78
11, 78125, Note_on_c, 4, 63, 0
11, 78144, Note_on_c, 4, 66, 78
11, 78173, Note_on_c, 4, 65, 0
11, 78192, Note_on_c, 4, 65, 78
11, 78221, Note_on_c, 4, 66, 0
11, 78240, Note_on_c, 4, 66, 78
11, 78269, Note_on_c, 4, 65, 0
11, 78288, Note_on_c, 4, 68, 78
11, 78317, Note_on_c, 4, 66, 0
11, 78336, Note_on_c, 4, 70, 78
11, 78365, Note_on_c, 4, 68, 0
11, 78384, Note_on_c, 4, 66, 78
11, 78432, Note_on_c, 4, 68, 78
11, 78432, Note_on_c, 4, 66, 78
11, 78461, Note_on_c, 4, 66, 0
11, 78480, Note_on_c, 4, 70, 78
11, 78490, Note_on_c, 4, 70, 0
11, 78509, Note_on_c, 4, 68, 0
11, 78528, Note_on_c, 4, 71, 78
11, 78528, Note_on_c, 4, 63, 78
11, 78557, Note_on_c, 4, 70, 0
11, 78576, Note_on_c, 4, 73, 78
11, 78586, Note_on_c, 4, 66, 0
11, 78605, Note_on_c, 4, 71, 0
11, 78624, Note_on_c, 4, 75, 78
11, 78624, Note_on_c, 4, 59, 78
11, 78653, Note_on_c, 4, 73, 0
11, 78672, Note_on_c, 4, 78, 78
11, 78682, Note_on_c, 4, 63, 0
11, 78701, Note_on_c, 4, 75, 0
11, 78720, Note_on_c, 4, 77, 78
11, 78720, Note_on_c, 4, 65, 78
11, 78749, Note_on_c, 4, 78, 0
11, 78778, Note_on_c, 4, 59, 0
11, 79152, Note_on_c, 4, 74, 78
11, 79200, Note_on_c, 4, 72, 78
11, 79229, Note_on_c, 4, 74, 0
11, 79248, Note_on_c, 4, 71, 78
11, 79277, Note_on_c, 4, 72, 0
11, 79296, Note_on_c, 4, 70, 78
11, 79325, Note_on_c, 4, 71, 0
11, 79334, Note_on_c, 4, 65, 0
11, 79344, Note_on_c, 4, 69, 78
11, 79373, Note_on_c, 4, 70, 0
11, 79392, Note_on_c, 4, 67, 78
11, 79421, Note_on_c, 4, 69, 0
11, 79440, Note_on_c, 4, 66, 78
11, 79469, Note_on_c, 4, 67, 0
11, 79488, Note_on_c, 4, 77, 0
11, 79488, Note_on_c, 4, 65, 78
11, 79517, Note_on_c, 4, 66, 0
11, 79642, Note_on_c, 4, 65, 0
11, 79920, Note_on_c, 4, 58, 78
11, 79968, Note_on_c, 4, 60, 78
11, 79997, Note_on_c, 4, 58, 0
11, 80016, Note_on_c, 4, 61, 78
11, 80045, Note_on_c, 4, 60, 0
11, 80064, Note_on_c, 4, 62, 78
11, 80093, Note_on_c, 4, 61, 0
11, 80112, Note_on_c, 4, 63, 78
11, 80141, Note_on_c, 4, 62, 0
11, 80160, Note_on_c, 4, 65, 78
11, 80189, Note_on_c, 4, 63, 0
11, 80208, Note_on_c, 4, 67, 78
11, 80237, Note_on_c, 4, 65, 0
11, 80256, Note_on_c, 4, 69, 78
11, 80285, Note_on_c, 4, 67, 0
11, 80304, Note_on_c, 4, 60, 78
11, 80352, Note_on_c, 4, 59, 78
11, 80381, Note_on_c, 4, 60, 0
11, 80400, Note_on_c, 4, 58, 78
11, 80410, Note_on_c, 4, 69, 0
11, 80429, Note_on_c, 4, 59, 0
11, 80448, Note_on_c, 4, 57, 78
11, 80477, Note_on_c, 4, 58, 0
11, 80496, Note_on_c, 4, 55, 78
11, 80525, Note_on_c, 4, 57, 0
11, 80544, Note_on_c, 4, 53, 78
11, 80573, Note_on_c, 4, 55, 0
11, 80592, Note_on_c, 4, 51, 78
11, 80621, Note_on_c, 4, 53, 0
11, 80640, Note_on_c, 4, 50, 78
11, 80669, Note_on_c, 4, 51, 0
11, 80688, Note_on_c, 4, 65, 78
11, 80736, Note_on_c, 4, 66, 78
11, 80765, Note_on_c, 4, 65, 0
11, 80784, Note_on_c, 4, 67, 78
11, 80794, Note_on_c, 4, 50, 0
11, 80813, Note_on_c, 4, 66, 0
11, 80832, Note_on_c, 4, 68, 78
11, 80861, Note_on_c, 4, 67, 0
11, 80880, Note_on_c, 4, 69, 78
11, 80909, Note_on_c, 4, 68, 0
11, 80928, Note_on_c, 4, 70, 78
11, 80957, Note_on_c, 4, 69, 0
11, 80976, Note_on_c, 4, 71, 78
11, 81005, Note_on_c, 4, 70, 0
11, 81024, Note_on_c, 4, 74, 78
11, 81053, Note_on_c, 4, 71, 0
11, 81072, Note_on_c, 4, 56, 78
11, 81120, Note_on_c, 4, 55, 78
11, 81149, Note_on_c, 4, 56, 0
11, 81168, Note_on_c, 4, 54, 78
11, 81178, Note_on_c, 4, 74, 0
11, 81197, Note_on_c, 4, 55, 0
11, 81216, Note_on_c, 4, 53, 78
11, 81245, Note_on_c, 4, 54, 0
11, 81264, Note_on_c, 4, 51, 78
11, 81293, Note_on_c, 4, 53, 0
11, 81312, Note_on_c, 4, 50, 78
11, 81341, Note_on_c, 4, 51, 0
11, 81456, Note_on_c, 4, 67, 78
11, 81466, Note_on_c, 4, 50, 0
11, 81504, Note_on_c, 4, 69, 78
11, 81533, Note_on_c, 4, 67, 0
11, 81552, Note_on_c, 4, 70, 78
11, 81581, Note_on_c, 4, 69, 0
11, 81600, Note_on_c, 4, 71, 78
11, 81629, Note_on_c, 4, 70, 0
11, 81648, Note_on_c, 4, 72, 78
11, 81677, Note_on_c, 4, 71, 0
11, 81696, Note_on_c, 4, 74, 78
11, 81725, Note_on_c, 4, 72, 0
11, 81744, Note_on_c, 4, 75, 78
11, 81773, Note_on_c, 4, 74, 0
11, 81792, Note_on_c, 4, 77, 78
11, 81821, Note_on_c, 4, 75, 0
11, 81946, Note_on_c, 4, 77, 0
11, 82224, Note_on_c, 4, 63, 78
11, 82272, Note_on_c, 4, 65, 78
11, 82301, Note_on_c, 4, 63, 0
11, 82320, Note_on_c, 4, 67, 78
11, 82349, Note_on_c, 4, 65, 0
11, 82368, Note_on_c, 4, 69, 78
11, 82397, Note_on_c, 4, 67, 0
11, 82416, Note_on_c, 4, 70, 78
11, 82445, Note_on_c, 4, 69, 0
11, 82464, Note_on_c, 4, 71, 78
11, 82493, Note_on_c, 4, 70, 0
11, 82512, Note_on_c, 4, 72, 78
11, 82541, Note_on_c, 4, 71, 0
11, 82560, Note_on_c, 4, 73, 78
11, 82589, Note_on_c, 4, 72, 0
11, 82608, Note_on_c, 4, 53, 78
11, 82656, Note_on_c, 4, 55, 78
11, 82685, Note_on_c, 4, 53, 0
11, 82704, Note_on_c, 4, 57, 78
11, 82714, Note_on_c, 4, 73, 0
11, 82733, Note_on_c, 4, 55, 0
11, 82752, Note_on_c, 4, 58, 78
11, 82781, Note_on_c, 4, 57, 0
11, 82800, Note_on_c, 4, 57, 78
11, 82829, Note_on_c, 4, 58, 0
11, 82848, Note_on_c, 4, 58, 78
11, 82877, Note_on_c, 4, 57, 0
11, 82896, Note_on_c, 4, 60, 78
11, 82925, Note_on_c, 4, 58, 0
11, 82944, Note_on_c, 4, 62, 78
11, 82973, Note_on_c, 4, 60, 0
11, 82992, Note_on_c, 4, 58, 78
11, 83040, Note_on_c, 4, 60, 78
11, 83040, Note_on_c, 4, 58, 78
11, 83069, Note_on_c, 4, 58, 0
11, 83088, Note_on_c, 4, 62, 78
11, 83098, Note_on_c, 4, 62, 0
11, 83117, Note_on_c, 4, 60, 0
11, 83136, Note_on_c, 4, 55, 78
11, 83136, Note_on_c, 4, 63, 78
11, 83165, Note_on_c, 4, 62, 0
11, 83184, Note_on_c, 4, 65, 78
11, 83194, Note_on_c, 4, 58, 0
11, 83213, Note_on_c, 4, 63, 0
11, 83232, Note_on_c, 4, 67, 78
11, 83232, Note_on_c, 4, 51, 78
11, 83261, Note_on_c, 4, 65, 0
11, 83280, Note_on_c, 4, 70, 78
11, 83290, Note_on_c, 4, 55, 0
11, 83309, Note_on_c, 4, 67, 0
11, 83328, Note_on_c, 4, 69, 78
11, 83328, Note_on_c, 4, 57, 78
11, 83357, Note_on_c, 4, 70, 0
11, 83386, Note_on_c, 4, 51, 0
11, 83942, Note_on_c, 4, 57, 0
11, 84096, Note_on_c, 4, 69, 0
11, 84144, Note_on_c, 4, 57, 78
11, 84192, Note_on_c, 4, 59, 78
11, 84221, Note_on_c, 4, 57, 0
11, 84240, Note_on_c, 4, 61, 78
11, 84269, Note_on_c, 4, 59, 0
11, 84288, Note_on_c, 4, 62, 78
11, 84317, Note_on_c, 4, 61, 0
11, 84336, Note_on_c, 4, 61, 78
11, 84365, Note_on_c, 4, 62, 0
11, 84384, Note_on_c, 4, 62, 78
11, 84413, Note_on_c, 4, 61, 0
11, 84432, Note_on_c, 4, 64, 78
11, 84461, Note_on_c, 4, 62, 0
11, 84480, Note_on_c, 4, 65, 78
11, 84509, Note_on_c, 4, 64, 0
11, 84528, Note_on_c, 4, 62, 78
11, 84576, Note_on_c, 4, 62, 78
11, 84576, Note_on_c, 4, 64, 78
11, 84605, Note_on_c, 4, 62, 0
11, 84624, Note_on_c, 4, 65, 78
11, 84634, Note_on_c, 4, 65, 0
11, 84653, Note_on_c, 4, 64, 0
11, 84672, Note_on_c, 4, 67, 78
11, 84672, Note_on_c, 4, 58, 78
11, 84701, Note_on_c, 4, 65, 0
11, 84720, Note_on_c, 4, 69, 78
11, 84730, Note_on_c, 4, 62, 0
11, 84749, Note_on_c, 4, 67, 0
11, 84768, Note_on_c, 4, 55, 78
11, 84768, Note_on_c, 4, 70, 78
11, 84797, Note_on_c, 4, 69, 0
11, 84816, Note_on_c, 4, 74, 78
11, 84826, Note_on_c, 4, 58, 0
11, 84845, Note_on_c, 4, 70, 0
11, 84864, Note_on_c, 4, 60, 78
11, 84864, Note_on_c, 4, 72, 78
11, 84893, Note_on_c, 4, 74, 0
11, 84922, Note_on_c, 4, 55, 0
11, 85296, Note_on_c, 4, 69, 78
11, 85344, Note_on_c, 4, 70, 78
11, 85344, Note_on_c, 4, 67, 78
11, 85373, Note_on_c, 4, 69, 0
11, 85392, Note_on_c, 4, 72, 78
11, 85392, Note_on_c, 4, 66, 78
11, 85421, Note_on_c, 4, 70, 0
11, 85421, Note_on_c, 4, 67, 0
11, 85440, Note_on_c, 4, 65, 78
11, 85440, Note_on_c, 4, 74, 78
11, 85469, Note_on_c, 4, 72, 0
11, 85469, Note_on_c, 4, 66, 0
11, 85478, Note_on_c, 4, 60, 0
11, 85488, Note_on_c, 4, 64, 78
11, 85488, Note_on_c, 4, 76, 78
11, 85517, Note_on_c, 4, 65, 0
11, 85517, Note_on_c, 4, 74, 0
11, 85536, Note_on_c, 4, 77, 78
11, 85555, Note_on_c, 4, 72, 0
11, 85565, Note_on_c, 4, 64, 0
11, 85565, Note_on_c, 4, 76, 0
11, 85584, Note_on_c, 4, 79, 78
11, 85584, Note_on_c, 4, 61, 78
11, 85613, Note_on_c, 4, 77, 0
11, 85632, Note_on_c, 4, 60, 78
11, 85661, Note_on_c, 4, 61, 0
11, 85661, Note_on_c, 4, 79, 0
11, 85680, Note_on_c, 4, 60, 78
11, 85709, Note_on_c, 4, 60, 0
11, 85728, Note_on_c, 4, 59, 78
11, 85757, Note_on_c, 4, 60, 0
11, 85776, Note_on_c, 4, 58, 78
11, 85805, Note_on_c, 4, 59, 0
11, 85824, Note_on_c, 4, 57, 78
11, 85824, Note_on_c, 4, 81, 78
11, 85853, Note_on_c, 4, 58, 0
11, 85872, Note_on_c, 4, 56, 78
11, 85901, Note_on_c, 4, 57, 0
11, 85920, Note_on_c, 4, 55, 78
11, 85949, Note_on_c, 4, 56, 0
11, 85968, Note_on_c, 4, 54, 78
11, 85978, Note_on_c, 4, 81, 0
11, 85997, Note_on_c, 4, 55, 0
11, 86016, Note_on_c, 4, 53, 78
11, 86045, Note_on_c, 4, 54, 0
11, 86170, Note_on_c, 4, 53, 0
11, 87216, Note_on_c, 4, 63, 78
11, 87264, Note_on_c, 4, 62, 78
11, 87293, Note_on_c, 4, 63, 0
11, 87312, Note_on_c, 4, 61, 78
11, 87341, Note_on_c, 4, 62, 0
11, 87360, Note_on_c, 4, 60, 78
11, 87389, Note_on_c, 4, 61, 0
11, 87408, Note_on_c, 4, 58, 78
11, 87437, Note_on_c, 4, 60, 0
11, 87456, Note_on_c, 4, 57, 78
11, 87485, Note_on_c, 4, 58, 0
11, 87504, Note_on_c, 4, 55, 78
11, 87533, Note_on_c, 4, 57, 0
11, 87552, Note_on_c, 4, 53, 78
11, 87581, Note_on_c, 4, 55, 0
11, 87706, Note_on_c, 4, 53, 0
11, 87984, Note_on_c, 4, 60, 78
11, 88032, Note_on_c, 4, 61, 78
11, 88061, Note_on_c, 4, 60, 0
11, 88080, Note_on_c, 4, 62, 78
11, 88109, Note_on_c, 4, 61, 0
11, 88128, Note_on_c, 4, 63, 78
11, 88157, Note_on_c, 4, 62, 0
11, 88176, Note_on_c, 4, 64, 78
11, 88205, Note_on_c, 4, 63, 0
11, 88224, Note_on_c, 4, 65, 78
11, 88253, Note_on_c, 4, 64, 0
11, 88272, Note_on_c, 4, 67, 78
11, 88301, Note_on_c, 4, 65, 0
11, 88320, Note_on_c, 4, 69, 78
11, 88349, Note_on_c, 4, 67, 0
11, 88368, Note_on_c, 4, 58, 78
11, 88397, Note_on_c, 4, 69, 0
11, 88416, Note_on_c, 4, 60, 78
11, 88445, Note_on_c, 4, 58, 0
11, 88464, Note_on_c, 4, 62, 78
11, 88493, Note_on_c, 4, 60, 0
11, 88512, Note_on_c, 4, 63, 78
11, 88541, Note_on_c, 4, 62, 0
11, 88560, Note_on_c, 4, 64, 78
11, 88589, Note_on_c, 4, 63, 0
11, 88608, Note_on_c, 4, 65, 78
11, 88637, Note_on_c, 4, 64, 0
11, 88656, Note_on_c, 4, 67, 78
11, 88685, Note_on_c, 4, 65, 0
11, 88704, Note_on_c, 4, 69, 78
11, 88733, Note_on_c, 4, 67, 0
11, 88858, Note_on_c, 4, 69, 0
11, 89136, Note_on_c, 4, 62, 78
11, 89136, Note_on_c, 4, 71, 78
11, 89184, Note_on_c, 4, 63, 78
11, 89184, Note_on_c, 4, 72, 78
11, 89213, Note_on_c, 4, 71, 0
11, 89213, Note_on_c, 4, 62, 0
11, 89232, Note_on_c, 4, 73, 78
11, 89232, Note_on_c, 4, 64, 78
11, 89261, Note_on_c, 4, 63, 0
11, 89261, Note_on_c, 4, 72, 0
11, 89280, Note_on_c, 4, 74, 78
11, 89280, Note_on_c, 4, 65, 78
11, 89309, Note_on_c, 4, 73, 0
11, 89309, Note_on_c, 4, 64, 0
11, 89328, Note_on_c, 4, 67, 78
11, 89328, Note_on_c, 4, 76, 78
11, 89357, Note_on_c, 4, 74, 0
11, 89357, Note_on_c, 4, 65, 0
11, 89376, Note_on_c, 4, 77, 78
11, 89376, Note_on_c, 4, 74, 78
11, 89405, Note_on_c, 4, 67, 0
11, 89405, Note_on_c, 4, 76, 0
11, 89424, Note_on_c, 4, 79, 78
11, 89453, Note_on_c, 4, 77, 0
11, 89472, Note_on_c, 4, 73, 78
11, 89472, Note_on_c, 4, 81, 78
11, 89501, Note_on_c, 4, 79, 0
11, 89530, Note_on_c, 4, 74, 0
11, 89626, Note_on_c, 4, 73, 0
11, 89626, Note_on_c, 4, 81, 0
11, 89904, Note_on_c, 4, 74, 78
11, 89904, Note_on_c, 4, 65, 78
11, 89952, Note_on_c, 4, 65, 0
11, 89952, Note_on_c, 4, 74, 0
11, 89952, Note_on_c, 4, 66, 78
11, 89952, Note_on_c, 4, 75, 78
11, 90000, Note_on_c, 4, 75, 0
11, 90000, Note_on_c, 4, 66, 0
11, 90000, Note_on_c, 4, 67, 78
11, 90000, Note_on_c, 4, 76, 78
11, 90048, Note_on_c, 4, 76, 0
11, 90048, Note_on_c, 4, 67, 0
11, 90048, Note_on_c, 4, 77, 78
11, 90048, Note_on_c, 4, 69, 78
11, 90096, Note_on_c, 4, 69, 0
11, 90096, Note_on_c, 4, 77, 0
11, 90096, Note_on_c, 4, 70, 78
11, 90096, Note_on_c, 4, 79, 78
11, 90144, Note_on_c, 4, 79, 0
11, 90144, Note_on_c, 4, 70, 0
11, 90144, Note_on_c, 4, 77, 78
11, 90144, Note_on_c, 4, 81, 78
11, 90192, Note_on_c, 4, 81, 0
11, 90192, Note_on_c, 4, 82, 78
11, 90240, Note_on_c, 4, 82, 0
11, 90240, Note_on_c, 4, 77, 0
11, 90240, Note_on_c, 4, 84, 78
11, 90240, Note_on_c, 4, 76, 78
11, 90336, Note_on_c, 4, 76, 0
11, 90336, Note_on_c, 4, 84, 0
11, 90720, Note_on_c, 4, 66, 78
11, 90720, Note_on_c, 4, 72, 78
11, 90912, Note_on_c, 4, 72, 0
11, 90912, Note_on_c, 4, 66, 0
11, 91104, Note_on_c, 4, 68, 78
11, 91104, Note_on_c, 4, 75, 78
11, 91296, Note_on_c, 4, 75, 0
11, 91296, Note_on_c, 4, 68, 0
11, 91584, Note_on_c, 4, 66, 78
11, 91584, Note_on_c, 4, 78, 78
11, 91680, Note_on_c, 4, 78, 0
11, 91680, Note_on_c, 4, 66, 0
11, 91968, Note_on_c, 4, 66, 10
11, 91968, Note_on_c, 4, 78, 78
11, 92064, Note_on_c, 4, 78, 0
11, 92064, Note_on_c, 4, 66, 0
11, 92160, Note_on_c, 4, 66, 78
11, 92160, Note_on_c, 4, 78, 78
11, 92256, Note_on_c, 4, 78, 0
11, 92256, Note_on_c, 4, 66, 0
11, 92352, Note_on_c, 4, 75, 78
11, 92448, Note_on_c, 4, 75, 0
11, 92448, Note_on_c, 4, 69, 78
11, 92544, Note_on_c, 4, 69, 0
11, 92544, Note_on_c, 4, 66, 78
11, 92640, Note_on_c, 4, 66, 0
11, 92736, Note_on_c, 4, 57, 78
11, 92832, Note_on_c, 4, 57, 0
11, 94368, Note_on_c, 4, 75, 78
11, 94464, Note_on_c, 4, 75, 0
11, 94464, Note_on_c, 4, 83, 78
11, 94704, Note_on_c, 4, 83, 0
11, 94704, Note_on_c, 4, 82, 78
11, 94752, Note_on_c, 4, 82, 0
11, 94752, Note_on_c, 4, 80, 78
11, 94800, Note_on_c, 4, 80, 0
11, 94800, Note_on_c, 4, 82, 78
11, 94848, Note_on_c, 4, 82, 0
11, 94848, Note_on_c, 4, 80, 78
11, 94896, Note_on_c, 4, 80, 0
11, 94896, Note_on_c, 4, 78, 78
11, 94944, Note_on_c, 4, 78, 0
11, 94944, Note_on_c, 4, 77, 78
11, 94992, Note_on_c, 4, 77, 0
11, 94992, Note_on_c, 4, 75, 78
11, 95040, Note_on_c, 4, 75, 0
11, 95040, Note_on_c, 4, 74, 78
11, 95100, Note_on_c, 4, 74, 0
11, 95136, Note_on_c, 4, 77, 78
11, 95196, Note_on_c, 4, 77, 0
11, 95232, Note_on_c, 4, 71, 78
11, 95292, Note_on_c, 4, 71, 0
11, 95328, Note_on_c, 4, 75, 78
11, 95388, Note_on_c, 4, 75, 0
11, 95424, Note_on_c, 4, 68, 78
11, 95484, Note_on_c, 4, 68, 0
11, 95520, Note_on_c, 4, 71, 78
11, 95580, Note_on_c, 4, 71, 0
11, 95616, Note_on_c, 4, 65, 78
11, 95676, Note_on_c, 4, 65, 0
11, 95712, Note_on_c, 4, 68, 78
11, 95772, Note_on_c, 4, 68, 0
11, 95808, Note_on_c, 4, 58, 78
11, 95856, Note_on_c, 4, 58, 0
11, 95856, Note_on_c, 4, 58, 78
11, 95904, Note_on_c, 4, 58, 0
11, 95904, Note_on_c, 4, 60, 78
11, 95952, Note_on_c, 4, 60, 0
11, 95952, Note_on_c, 4, 62, 78
11, 96000, Note_on_c, 4, 62, 0
11, 96000, Note_on_c, 4, 63, 78
11, 96240, Note_on_c, 4, 63, 0
11, 96240, Note_on_c, 4, 62, 78
11, 96288, Note_on_c, 4, 62, 0
11, 96288, Note_on_c, 4, 63, 78
11, 96336, Note_on_c, 4, 63, 0
11, 96336, Note_on_c, 4, 65, 78
11, 96384, Note_on_c, 4, 65, 0
11, 96384, Note_on_c, 4, 68, 78
11, 96432, Note_on_c, 4, 68, 0
11, 96432, Note_on_c, 4, 66, 78
11, 96480, Note_on_c, 4, 66, 0
11, 96624, Note_on_c, 4, 51, 78
11, 96624, Note_on_c, 4, 63, 78
11, 96672, Note_on_c, 4, 63, 0
11, 96672, Note_on_c, 4, 51, 0
11, 96672, Note_on_c, 4, 53, 78
11, 96672, Note_on_c, 4, 65, 78
11, 96720, Note_on_c, 4, 65, 0
11, 96720, Note_on_c, 4, 53, 0
11, 96720, Note_on_c, 4, 67, 78
11, 96768, Note_on_c, 4, 67, 0
11, 96768, Note_on_c, 4, 56, 78
11, 96768, Note_on_c, 4, 68, 78
11, 97008, Note_on_c, 4, 68, 0
11, 97008, Note_on_c, 4, 56, 0
11, 97008, Note_on_c, 4, 67, 78
11, 97008, Note_on_c, 4, 55, 78
11, 97056, Note_on_c, 4, 55, 0
11, 97056, Note_on_c, 4, 67, 0
11, 97056, Note_on_c, 4, 56, 78
11, 97056, Note_on_c, 4, 68, 78
11, 97104, Note_on_c, 4, 68, 0
11, 97104, Note_on_c, 4, 56, 0
11, 97104, Note_on_c, 4, 58, 78
11, 97104, Note_on_c, 4, 70, 78
11, 97152, Note_on_c, 4, 70, 0
11, 97152, Note_on_c, 4, 58, 0
11, 97152, Note_on_c, 4, 73, 78
11, 97152, Note_on_c, 4, 61, 78
11, 97200, Note_on_c, 4, 61, 0
11, 97200, Note_on_c, 4, 73, 0
11, 97200, Note_on_c, 4, 59, 78
11, 97200, Note_on_c, 4, 71, 78
11, 97248, Note_on_c, 4, 71, 0
11, 97248, Note_on_c, 4, 59, 0
11, 97392, Note_on_c, 4, 70, 78
11, 97392, Note_on_c, 4, 58, 78
11, 97440, Note_on_c, 4, 58, 0
11, 97440, Note_on_c, 4, 70, 0
11, 97440, Note_on_c, 4, 59, 78
11, 97440, Note_on_c, 4, 71, 78
11, 97488, Note_on_c, 4, 71, 0
11, 97488, Note_on_c, 4, 59, 0
11, 97488, Note_on_c, 4, 62, 78
11, 97488, Note_on_c, 4, 74, 78
11, 97536, Note_on_c, 4, 74, 0
11, 97536, Note_on_c, 4, 62, 0
11, 97536, Note_on_c, 4, 77, 78
11, 97536, Note_on_c, 4, 65, 78
11, 97584, Note_on_c, 4, 65, 0
11, 97584, Note_on_c, 4, 77, 0
11, 97584, Note_on_c, 4, 63, 78
11, 97584, Note_on_c, 4, 75, 78
11, 97632, Note_on_c, 4, 75, 0
11, 97632, Note_on_c, 4, 63, 0
11, 97776, Note_on_c, 4, 74, 78
11, 97776, Note_on_c, 4, 62, 78
11, 97824, Note_on_c, 4, 62, 0
11, 97824, Note_on_c, 4, 74, 0
11, 97824, Note_on_c, 4, 63, 78
11, 97824, Note_on_c, 4, 75, 78
11, 97872, Note_on_c, 4, 75, 0
11, 97872, Note_on_c, 4, 63, 0
11, 97872, Note_on_c, 4, 77, 78
11, 97872, Note_on_c, 4, 65, 78
11, 97920, Note_on_c, 4, 65, 0
11, 97920, Note_on_c, 4, 77, 0
11, 97920, Note_on_c, 4, 80, 78
11, 97920, Note_on_c, 4, 68, 78
11, 97968, Note_on_c, 4, 68, 0
11, 97968, Note_on_c, 4, 80, 0
11, 97968, Note_on_c, 4, 78, 78
11, 97968, Note_on_c, 4, 66, 78
11, 98016, Note_on_c, 4, 66, 0
11, 98016, Note_on_c, 4, 78, 0
11, 98160, Note_on_c, 4, 77, 78
11, 98160, Note_on_c, 4, 65, 78
11, 98208, Note_on_c, 4, 65, 0
11, 98208, Note_on_c, 4, 77, 0
11, 98208, Note_on_c, 4, 66, 78
11, 98208, Note_on_c, 4, 78, 78
11, 98256, Note_on_c, 4, 78, 0
11, 98256, Note_on_c, 4, 66, 0
11, 98256, Note_on_c, 4, 68, 78
11, 98256, Note_on_c, 4, 80, 78
11, 98304, Note_on_c, 4, 80, 0
11, 98304, Note_on_c, 4, 68, 0
11, 98304, Note_on_c, 4, 69, 78
11, 98304, Note_on_c, 4, 81, 78
11, 99168, Note_on_c, 4, 81, 0
11, 99168, Note_on_c, 4, 69, 0
11, 99168, Note_on_c, 4, 78, 78
11, 99168, Note_on_c, 4, 66, 78
11, 99264, Note_on_c, 4, 66, 0
11, 99264, Note_on_c, 4, 78, 0
11, 99264, Note_on_c, 4, 79, 78
11, 99264, Note_on_c, 4, 67, 78
11, 99360, Note_on_c, 4, 67, 0
11, 99360, Note_on_c, 4, 79, 0
11, 99360, Note_on_c, 4, 68, 78
11, 99360, Note_on_c, 4, 80, 78
11, 99456, Note_on_c, 4, 80, 0
11, 99456, Note_on_c, 4, 68, 0
11, 99456, Note_on_c, 4, 68, 78
11, 99456, Note_on_c, 4, 80, 78
11, 99552, Note_on_c, 4, 80, 0
11, 99552, Note_on_c, 4, 68, 0
11, 99552, Note_on_c, 4, 71, 78
11, 99648, Note_on_c, 4, 71, 0
11, 99648, Note_on_c, 4, 72, 78
11, 99744, Note_on_c, 4, 72, 0
11, 99744, Note_on_c, 4, 73, 78
11, 99840, Note_on_c, 4, 73, 0
11, 99840, Note_on_c, 4, 74, 78
11, 99936, Note_on_c, 4, 74, 0
11, 99936, Note_on_c, 4, 73, 78
11, 100032, Note_on_c, 4, 73, 0
11, 100032, Note_on_c, 4, 71, 78
11, 100128, Note_on_c, 4, 71, 0
11, 100128, Note_on_c, 4, 70, 78
11, 100224, Note_on_c, 4, 70, 0
11, 100224, Note_on_c, 4, 69, 78
11, 100320, Note_on_c, 4, 69, 0
11, 100320, Note_on_c, 4, 79, 78
11, 100320, Note_on_c, 4, 67, 78
11, 100416, Note_on_c, 4, 67, 0
11, 100416, Note_on_c, 4, 79, 0
11, 100416, Note_on_c, 4, 66, 78
11, 100416, Note_on_c, 4, 78, 78
11, 100512, Note_on_c, 4, 78, 0
11, 100512, Note_on_c, 4, 66, 0
11, 100512, Note_on_c, 4, 76, 78
11, 100512, Note_on_c, 4, 64, 78
11, 100608, Note_on_c, 4, 64, 0
11, 100608, Note_on_c, 4, 76, 0
11, 100608, Note_on_c, 4, 62, 78
11, 100608, Note_on_c, 4, 74, 78
11, 100704, Note_on_c, 4, 74, 0
11, 100704, Note_on_c, 4, 62, 0
11, 100704, Note_on_c, 4, 61, 78
11, 100704, Note_on_c, 4, 73, 78
11, 100800, Note_on_c, 4, 73, 0
11, 100800, Note_on_c, 4, 61, 0
11, 100800, Note_on_c, 4, 59, 78
11, 100800, Note_on_c, 4, 71, 78
11, 100896, Note_on_c, 4, 71, 0
11, 100896, Note_on_c, 4, 59, 0
11, 100896, Note_on_c, 4, 58, 78
11, 100896, Note_on_c, 4, 70, 78
11, 100992, Note_on_c, 4, 70, 0
11, 100992, Note_on_c, 4, 58, 0
11, 100992, Note_on_c, 4, 57, 78
11, 100992, Note_on_c, 4, 69, 78
11, 101088, Note_on_c, 4, 69, 0
11, 101088, Note_on_c, 4, 57, 0
11, 101088, Note_on_c, 4, 71, 78
11, 101184, Note_on_c, 4, 71, 0
11, 101184, Note_on_c, 4, 72, 78
11, 101280, Note_on_c, 4, 72, 0
11, 101280, Note_on_c, 4, 73, 78
11, 101376, Note_on_c, 4, 73, 0
11, 101376, Note_on_c, 4, 74, 78
11, 101472, Note_on_c, 4, 74, 0
11, 101472, Note_on_c, 4, 73, 78
11, 101568, Note_on_c, 4, 73, 0
11, 101568, Note_on_c, 4, 71, 78
11, 101664, Note_on_c, 4, 71, 0
11, 101664, Note_on_c, 4, 70, 78
11, 101760, Note_on_c, 4, 70, 0
11, 101760, Note_on_c, 4, 69, 78
11, 101856, Note_on_c, 4, 69, 0
11, 101856, Note_on_c, 4, 67, 78
11, 101952, Note_on_c, 4, 67, 0
11, 101952, Note_on_c, 4, 66, 78
11, 102048, Note_on_c, 4, 66, 0
11, 102048, Note_on_c, 4, 64, 78
11, 102144, Note_on_c, 4, 64, 0
11, 102144, Note_on_c, 4, 62, 78
11, 102240, Note_on_c, 4, 62, 0
11, 102240, Note_on_c, 4, 61, 78
11, 102336, Note_on_c, 4, 61, 0
11, 102336, Note_on_c, 4, 59, 78
11, 102432, Note_on_c, 4, 59, 0
11, 102432, Note_on_c, 4, 58, 78
11, 102528, Note_on_c, 4, 58, 0
11, 102528, Note_on_c, 4, 57, 78
11, 102624, Note_on_c, 4, 57, 0
11, 102912, Note_on_c, 4, 50, 78
11, 103104, Note_on_c, 4, 50, 0
11, 103104, Note_on_c, 4, 50, 78
11, 103296, Note_on_c, 4, 50, 0
11, 103296, Note_on_c, 4, 52, 78
11, 103488, Note_on_c, 4, 52, 0
11, 103488, Note_on_c, 4, 52, 78
11, 103680, Note_on_c, 4, 52, 0
11, 103680, Note_on_c, 4, 57, 78
11, 103968, Note_on_c, 4, 57, 0
11, 103968, Note_on_c, 4, 54, 78
11, 104064, Note_on_c, 4, 54, 0
11, 104064, Note_on_c, 4, 50, 78
11, 104448, Note_on_c, 4, 50, 0
11, 105216, Note_on_c, 4, 78, 78
11, 105216, Note_on_c, 4, 81, 78
11, 105792, Note_on_c, 4, 81, 0
11, 105792, Note_on_c, 4, 78, 0
11, 105792, Note_on_c, 4, 78, 78
11, 105792, Note_on_c, 4, 74, 78
11, 105984, Note_on_c, 4, 74, 0
11, 105984, Note_on_c, 4, 78, 0
11, 105984, Note_on_c, 4, 66, 78
11, 105984, Note_on_c, 4, 74, 78
11, 106368, Note_on_c, 4, 74, 0
11, 106368, Note_on_c, 4, 66, 0
11, 107520, Note_on_c, 4, 50, 78
11, 107904, Note_on_c, 4, 50, 0
11, 108480, Note_on_c, 4, 62, 78
11, 108480, Note_on_c, 4, 54, 78
11, 108672, Note_on_c, 4, 54, 0
11, 108672, Note_on_c, 4, 62, 0
11, 108864, Note_on_c, 4, 62, 78
11, 108864, Note_on_c, 4, 54, 78
11, 109056, Note_on_c, 4, 54, 0
11, 109056, Note_on_c, 4, 62, 0
11, 109248, Note_on_c, 4, 62, 78
11, 109248, Note_on_c, 4, 54, 78
11, 109440, Note_on_c, 4, 54, 0
11, 109440, Note_on_c, 4, 62, 0
11, 109632, Note_on_c, 4, 62, 78
11, 109632, Note_on_c, 4, 54, 78
11, 109824, Note_on_c, 4, 54, 0
11, 109824, Note_on_c, 4, 62, 0
11, 110400, Note_on_c, 4, 57, 78
11, 110592, Note_on_c, 4, 66, 63
11, 111360, Note_on_c, 4, 66, 0
11, 111360, Note_on_c, 4, 57, 0
11, 111360, Note_on_c, 4, 58, 59
11, 111360, Note_on_c, 4, 66, 59
11, 111744, Note_on_c, 4, 66, 0
11, 111744, Note_on_c, 4, 58, 0
11, 111744, Note_on_c, 4, 65, 59
11, 111744, Note_on_c, 4, 59, 59
11, 112128, Note_on_c, 4, 59, 0
11, 112128, Note_on_c, 4, 65, 0
11, 112128, Note_on_c, 4, 66, 59
11, 112128, Note_on_c, 4, 58, 59
11, 112512, Note_on_c, 4, 58, 0
11, 112512, Note_on_c, 4, 66, 0
11, 112512, Note_on_c, 4, 59, 59
11, 112512, Note_on_c, 4, 65, 59
11, 112896, Note_on_c, 4, 65, 0
11, 112896, Note_on_c, 4, 59, 0
11, 112896, Note_on_c, 4, 66, 59
11, 112896, Note_on_c, 4, 58, 59
11, 113280, Note_on_c, 4, 58, 0
11, 113280, Note_on_c, 4, 66, 0
11, 113280, Note_on_c, 4, 65, 59
11, 113280, Note_on_c, 4, 59, 59
11, 113664, Note_on_c, 4, 59, 0
11, 113664, Note_on_c, 4, 65, 0
11, 113664, Note_on_c, 4, 58, 59
11, 113664, Note_on_c, 4, 66, 59
11, 114048, Note_on_c, 4, 66, 0
11, 114048, Note_on_c, 4, 58, 0
11, 114048, Note_on_c, 4, 65, 59
11, 114048, Note_on_c, 4, 59, 59
11, 114432, Note_on_c, 4, 59, 0
11, 114432, Note_on_c, 4, 65, 0
11, 114432, Note_on_c, 4, 58, 59
11, 114432, Note_on_c, 4, 66, 59
11, 114816, Note_on_c, 4, 66, 0
11, 114816, Note_on_c, 4, 58, 0
11, 114816, Note_on_c, 4, 59, 59
11, 114816, Note_on_c, 4, 59, 59
11, 114816, Note_on_c, 4, 65, 59
11, 115200, Note_on_c, 4, 65, 0
11, 115200, Note_on_c, 4, 59, 0
11, 115200, Note_on_c, 4, 59, 0
11, 115200, Note_on_c, 4, 58, 59
11, 115200, Note_on_c, 4, 66, 59
11, 115584, Note_on_c, 4, 66, 0
11, 115584, Note_on_c, 4, 58, 0
11, 115584, Note_on_c, 4, 63, 59
11, 115584, Note_on_c, 4, 59, 59
11, 115968, Note_on_c, 4, 59, 0
11, 115968, Note_on_c, 4, 63, 0
11, 115968, Note_on_c, 4, 66, 59
11, 115968, Note_on_c, 4, 58, 59
11, 116352, Note_on_c, 4, 58, 0
11, 116352, Note_on_c, 4, 66, 0
11, 116352, Note_on_c, 4, 59, 59
11, 116352, Note_on_c, 4, 66, 59
11, 116736, Note_on_c, 4, 66, 0
11, 116736, Note_on_c, 4, 59, 0
11, 116736, Note_on_c, 4, 58, 59
11, 116736, Note_on_c, 4, 66, 59
11, 117120, Note_on_c, 4, 66, 0
11, 117120, Note_on_c, 4, 58, 0
11, 117120, Note_on_c, 4, 65, 59
11, 117120, Note_on_c, 4, 59, 59
11, 117504, Note_on_c, 4, 59, 0
11, 117504, Note_on_c, 4, 65, 0
11, 117504, Note_on_c, 4, 66, 59
11, 117504, Note_on_c, 4, 58, 59
11, 117888, Note_on_c, 4, 58, 0
11, 117888, Note_on_c, 4, 66, 0
11, 117888, Note_on_c, 4, 59, 59
11, 117888, Note_on_c, 4, 59, 59
11, 117888, Note_on_c, 4, 65, 59
11, 118272, Note_on_c, 4, 65, 0
11, 118272, Note_on_c, 4, 59, 0
11, 118272, Note_on_c, 4, 59, 0
11, 118272, Note_on_c, 4, 58, 59
11, 118272, Note_on_c, 4, 66, 59
11, 118656, Note_on_c, 4, 66, 0
11, 118656, Note_on_c, 4, 58, 0
11, 118656, Note_on_c, 4, 65, 59
11, 118656, Note_on_c, 4, 59, 59
11, 119040, Note_on_c, 4, 59, 0
11, 119040, Note_on_c, 4, 65, 0
11, 119040, Note_on_c, 4, 66, 71
11, 119040, Note_on_c, 4, 58, 71
11, 119424, Note_on_c, 4, 58, 0
11, 119424, Note_on_c, 4, 66, 0
11, 119424, Note_on_c, 4, 59, 78
11, 119424, Note_on_c, 4, 68, 78
11, 119808, Note_on_c, 4, 68, 0
11, 119808, Note_on_c, 4, 59, 0
11, 119808, Note_on_c, 4, 58, 78
11, 119808, Note_on_c, 4, 66, 78
11, 120192, Note_on_c, 4, 66, 0
11, 120192, Note_on_c, 4, 58, 0
11, 120192, Note_on_c, 4, 72, 78
11, 120192, Note_on_c, 4, 60, 78
11, 120576, Note_on_c, 4, 60, 0
11, 120576, Note_on_c, 4, 72, 0
11, 120576, Note_on_c, 4, 55, 78
11, 120576, Note_on_c, 4, 71, 78
11, 120960, Note_on_c, 4, 71, 0
11, 120960, Note_on_c, 4, 55, 0
11, 120960, Note_on_c, 4, 72, 78
11, 120960, Note_on_c, 4, 57, 78
11, 121344, Note_on_c, 4, 57, 0
11, 121344, Note_on_c, 4, 72, 0
11, 121344, Note_on_c, 4, 71, 78
11, 121344, Note_on_c, 4, 55, 78
11, 121728, Note_on_c, 4, 55, 0
11, 121728, Note_on_c, 4, 71, 0
11, 121728, Note_on_c, 4, 57, 78
11, 121728, Note_on_c, 4, 72, 78
11, 122112, Note_on_c, 4, 72, 0
11, 122112, Note_on_c, 4, 57, 0
11, 122112, Note_on_c, 4, 71, 78
11, 122112, Note_on_c, 4, 55, 78
11, 122496, Note_on_c, 4, 55, 0
11, 122496, Note_on_c, 4, 71, 0
11, 122496, Note_on_c, 4, 54, 78
11, 122496, Note_on_c, 4, 69, 78
11, 122880, Note_on_c, 4, 69, 0
11, 122880, Note_on_c, 4, 54, 0
11, 122880, Note_on_c, 4, 55, 78
11, 122880, Note_on_c, 4, 71, 78
11, 123264, Note_on_c, 4, 71, 0
11, 123264, Note_on_c, 4, 55, 0
11, 123264, Note_on_c, 4, 54, 78
11, 123264, Note_on_c, 4, 72, 78
11, 123648, Note_on_c, 4, 72, 0
11, 123648, Note_on_c, 4, 54, 0
11, 123648, Note_on_c, 4, 55, 78
11, 123648, Note_on_c, 4, 71, 78
11, 124032, Note_on_c, 4, 71, 0
11, 124032, Note_on_c, 4, 55, 0
11, 124032, Note_on_c, 4, 57, 78
11, 124032, Note_on_c, 4, 72, 78
11, 124416, Note_on_c, 4, 72, 0
11, 124416, Note_on_c, 4, 57, 0
11, 124416, Note_on_c, 4, 55, 78
11, 124416, Note_on_c, 4, 71, 78
11, 124800, Note_on_c, 4, 71, 0
11, 124800, Note_on_c, 4, 55, 0
11, 124800, Note_on_c, 4, 57, 78
11, 124800, Note_on_c, 4, 69, 78
11, 125184, Note_on_c, 4, 69, 0
11, 125184, Note_on_c, 4, 57, 0
11, 125184, Note_on_c, 4, 55, 78
11, 125184, Note_on_c, 4, 67, 78
11, 125568, Note_on_c, 4, 67, 0
11, 125568, Note_on_c, 4, 55, 0
11, 128064, Note_on_c, 4, 63, 78
11, 128064, Note_on_c, 4, 75, 78
11, 128256, Note_on_c, 4, 75, 0
11, 128256, Note_on_c, 4, 63, 0
11, 128256, Note_on_c, 4, 70, 78
11, 128256, Note_on_c, 4, 82, 78
11, 128544, Note_on_c, 4, 82, 0
11, 128544, Note_on_c, 4, 70, 78
11, 128544, Note_on_c, 4, 82, 78
11, 128640, Note_on_c, 4, 82, 0
11, 128640, Note_on_c, 4, 70, 0
11, 128640, Note_on_c, 4, 70, 0
11, 128640, Note_on_c, 4, 68, 78
11, 128640, Note_on_c, 4, 82, 78
11, 128736, Note_on_c, 4, 82, 0
11, 128736, Note_on_c, 4, 80, 78
11, 128832, Note_on_c, 4, 80, 0
11, 128832, Note_on_c, 4, 79, 78
11, 128832, Note_on_c, 4, 67, 78
11, 128928, Note_on_c, 4, 67, 0
11, 128928, Note_on_c, 4, 79, 0
11, 128928, Note_on_c, 4, 77, 78
11, 128928, Note_on_c, 4, 65, 78
11, 129024, Note_on_c, 4, 65, 0
11, 129024, Note_on_c, 4, 77, 0
11, 129024, Note_on_c, 4, 68, 0
11, 129024, Note_on_c, 4, 82, 78
11, 129024, Note_on_c, 4, 70, 73
11, 129216, Note_on_c, 4, 70, 0
11, 129216, Note_on_c, 4, 82, 0
11, 129216, Note_on_c, 4, 82, 78
11, 129216, Note_on_c, 4, 70, 78
11, 129408, Note_on_c, 4, 70, 0
11, 129408, Note_on_c, 4, 82, 0
11, 129600, Note_on_c, 4, 65, 78
11, 129600, Note_on_c, 4, 77, 78
11, 129792, Note_on_c, 4, 77, 0
11, 129792, Note_on_c, 4, 65, 0
11, 129792, Note_on_c, 4, 82, 78
11, 129792, Note_on_c, 4, 70, 78
11, 130080, Note_on_c, 4, 70, 0
11, 130080, Note_on_c, 4, 82, 0
11, 130080, Note_on_c, 4, 82, 78
11, 130080, Note_on_c, 4, 70, 78
11, 130176, Note_on_c, 4, 70, 0
11, 130176, Note_on_c, 4, 82, 0
11, 130176, Note_on_c, 4, 82, 78
11, 130176, Note_on_c, 4, 70, 78
11, 130272, Note_on_c, 4, 70, 0
11, 130272, Note_on_c, 4, 82, 0
11, 130272, Note_on_c, 4, 80, 78
11, 130272, Note_on_c, 4, 68, 78
11, 130368, Note_on_c, 4, 68, 0
11, 130368, Note_on_c, 4, 80, 0
11, 130368, Note_on_c, 4, 79, 78
11, 130368, Note_on_c, 4, 67, 78
11, 130464, Note_on_c, 4, 67, 0
11, 130464, Note_on_c, 4, 79, 0
11, 130464, Note_on_c, 4, 77, 78
11, 130464, Note_on_c, 4, 65, 78
11, 130560, Note_on_c, 4, 65, 0
11, 130560, Note_on_c, 4, 77, 0
11, 130560, Note_on_c, 4, 82, 78
11, 130560, Note_on_c, 4, 70, 78
11, 131136, Note_on_c, 4, 70, 0
11, 131136, Note_on_c, 4, 82, 0
11, 131136, Note_on_c, 4, 58, 78
11, 131328, Note_on_c, 4, 58, 0
11, 131328, Note_on_c, 4, 60, 78
11, 131520, Note_on_c, 4, 60, 0
11, 131520, Note_on_c, 4, 63, 78
11, 131712, Note_on_c, 4, 63, 0
11, 131712, Note_on_c, 4, 65, 78
11, 131904, Note_on_c, 4, 65, 0
11, 131904, Note_on_c, 4, 67, 78
11, 132000, Note_on_c, 4, 67, 0
11, 132000, Note_on_c, 4, 68, 78
11, 132096, Note_on_c, 4, 68, 0
11, 132096, Note_on_c, 4, 70, 78
11, 132672, Note_on_c, 4, 70, 0
11, 132672, Note_on_c, 4, 70, 78
11, 132864, Note_on_c, 4, 70, 0
11, 132864, Note_on_c, 4, 72, 78
11, 133056, Note_on_c, 4, 72, 0
11, 133056, Note_on_c, 4, 75, 78
11, 133248, Note_on_c, 4, 75, 0
11, 133248, Note_on_c, 4, 74, 78
11, 133440, Note_on_c, 4, 74, 0
11, 133440, Note_on_c, 4, 72, 78
11, 133536, Note_on_c, 4, 72, 0
11, 133536, Note_on_c, 4, 70, 78
11, 133632, Note_on_c, 4, 70, 0
11, 133632, Note_on_c, 4, 75, 78
11, 134016, Note_on_c, 4, 75, 0
11, 134208, Note_on_c, 4, 58, 78
11, 134400, Note_on_c, 4, 58, 0
11, 134400, Note_on_c, 4, 60, 78
11, 134592, Note_on_c, 4, 60, 0
11, 134592, Note_on_c, 4, 63, 78
11, 134784, Note_on_c, 4, 63, 0
11, 134784, Note_on_c, 4, 65, 78
11, 134976, Note_on_c, 4, 65, 0
11, 134976, Note_on_c, 4, 66, 78
11, 135072, Note_on_c, 4, 66, 0
11, 135072, Note_on_c, 4, 68, 78
11, 135168, Note_on_c, 4, 68, 0
11, 135168, Note_on_c, 4, 70, 78
11, 135744, Note_on_c, 4, 70, 0
11, 135744, Note_on_c, 4, 58, 78
11, 135936, Note_on_c, 4, 58, 0
11, 135936, Note_on_c, 4, 60, 78
11, 136128, Note_on_c, 4, 60, 0
11, 136128, Note_on_c, 4, 63, 78
11, 136320, Note_on_c, 4, 63, 0
11, 136320, Note_on_c, 4, 65, 78
11, 136512, Note_on_c, 4, 65, 0
11, 136512, Note_on_c, 4, 66, 78
11, 136608, Note_on_c, 4, 66, 0
11, 136608, Note_on_c, 4, 68, 78
11, 136704, Note_on_c, 4, 68, 0
11, 136704, Note_on_c, 4, 70, 78
11, 137280, Note_on_c, 4, 70, 0
11, 137280, Note_on_c, 4, 58, 78
11, 137472, Note_on_c, 4, 58, 0
11, 137472, Note_on_c, 4, 60, 78
11, 137664, Note_on_c, 4, 60, 0
11, 137664, Note_on_c, 4, 63, 78
11, 137856, Note_on_c, 4, 63, 0
11, 137856, Note_on_c, 4, 65, 78
11, 138048, Note_on_c, 4, 65, 0
11, 138048, Note_on_c, 4, 66, 78
11, 138144, Note_on_c, 4, 66, 0
11, 138144, Note_on_c, 4, 68, 78
11, 138240, Note_on_c, 4, 68, 0
11, 138240, Note_on_c, 4, 70, 78
11, 138432, Note_on_c, 4, 70, 0
11, 138432, Note_on_c, 4, 70, 78
11, 138528, Note_on_c, 4, 70, 0
11, 138528, Note_on_c, 4, 71, 78
11, 138624, Note_on_c, 4, 71, 0
11, 138624, Note_on_c, 4, 70, 78
11, 139200, Note_on_c, 4, 70, 0
11, 139200, Note_on_c, 4, 70, 78
11, 139296, Note_on_c, 4, 70, 0
11, 139296, Note_on_c, 4, 71, 78
11, 139392, Note_on_c, 4, 71, 0
11, 139392, Note_on_c, 4, 70, 78
11, 139968, Note_on_c, 4, 70, 0
11, 139968, Note_on_c, 4, 70, 78
11, 140064, Note_on_c, 4, 70, 0
11, 140064, Note_on_c, 4, 71, 78
11, 140160, Note_on_c, 4, 71, 0
11, 140160, Note_on_c, 4, 70, 78
11, 140352, Note_on_c, 4, 70, 0
11, 140352, Note_on_c, 4, 70, 78
11, 140448, Note_on_c, 4, 70, 0
11, 140448, Note_on_c, 4, 71, 78
11, 140544, Note_on_c, 4, 71, 0
11, 140544, Note_on_c, 4, 70, 78
11, 140736, Note_on_c, 4, 70, 0
11, 140736, Note_on_c, 4, 70, 78
11, 140832, Note_on_c, 4, 70, 0
11, 140832, Note_on_c, 4, 71, 78
11, 140928, Note_on_c, 4, 71, 0
11, 140928, Note_on_c, 4, 70, 78
11, 141120, Note_on_c, 4, 70, 0
11, 141120, Note_on_c, 4, 70, 78
11, 141216, Note_on_c, 4, 70, 0
11, 141216, Note_on_c, 4, 71, 78
11, 141312, Note_on_c, 4, 71, 0
11, 141312, Note_on_c, 4, 70, 78
11, 141504, Note_on_c, 4, 70, 0
11, 143808, Note_on_c, 4, 51, 56
11, 144384, Note_on_c, 4, 51, 0
11, 144576, Note_on_c, 4, 51, 56
11, 145152, Note_on_c, 4, 51, 0
11, 145344, Note_on_c, 4, 51, 56
11, 145920, Note_on_c, 4, 51, 0
11, 146112, Note_on_c, 4, 51, 56
11, 146688, Note_on_c, 4, 51, 0
11, 146880, Note_on_c, 4, 51, 56
11, 147456, Note_on_c, 4, 51, 0
11, 147648, Note_on_c, 4, 51, 56
11, 148224, Note_on_c, 4, 51, 0
11, 148416, Note_on_c, 4, 51, 56
11, 148992, Note_on_c, 4, 51, 0
11, 149184, Note_on_c, 4, 51, 56
11, 149760, Note_on_c, 4, 51, 0
11, 149952, Note_on_c, 4, 51, 56
11, 150528, Note_on_c, 4, 51, 0
11, 150528, Note_on_c, 4, 58, 88
11, 150588, Note_on_c, 4, 58, 0
11, 150624, Note_on_c, 4, 58, 88
11, 150664, Note_on_c, 4, 58, 0
11, 150672, Note_on_c, 4, 59, 88
11, 150720, Note_on_c, 4, 59, 0
11, 150720, Note_on_c, 4, 51, 78
11, 150720, Note_on_c, 4, 58, 88
11, 150780, Note_on_c, 4, 58, 0
11, 150816, Note_on_c, 4, 56, 88
11, 150876, Note_on_c, 4, 56, 0
11, 150912, Note_on_c, 4, 54, 88
11, 150972, Note_on_c, 4, 54, 0
11, 151008, Note_on_c, 4, 54, 88
11, 151068, Note_on_c, 4, 54, 0
11, 151104, Note_on_c, 4, 56, 88
11, 151200, Note_on_c, 4, 56, 0
11, 151200, Note_on_c, 4, 51, 88
11, 151260, Note_on_c, 4, 51, 0
11, 151296, Note_on_c, 4, 51, 0
11, 151296, Note_on_c, 4, 58, 78
11, 151488, Note_on_c, 4, 58, 0
11, 151488, Note_on_c, 4, 51, 78
11, 153600, Note_on_c, 4, 54, 78
11, 153984, Note_on_c, 4, 54, 0
11, 153984, Note_on_c, 4, 51, 0
11, 163104, Note_on_c, 4, 65, 78
11, 163104, Note_on_c, 4, 58, 78
11, 163144, Note_on_c, 4, 58, 0
11, 163144, Note_on_c, 4, 65, 0
11, 163152, Note_on_c, 4, 58, 78
11, 163152, Note_on_c, 4, 65, 78
11, 163192, Note_on_c, 4, 65, 0
11, 163192, Note_on_c, 4, 58, 0
11, 163200, Note_on_c, 4, 58, 78
11, 163200, Note_on_c, 4, 65, 78
11, 163392, Note_on_c, 4, 65, 0
11, 163392, Note_on_c, 4, 58, 0
11, 163392, Note_on_c, 4, 58, 78
11, 163392, Note_on_c, 4, 65, 78
11, 163584, Note_on_c, 4, 65, 0
11, 163584, Note_on_c, 4, 58, 0
11, 163584, Note_on_c, 4, 58, 83
11, 163584, Note_on_c, 4, 67, 78
11, 163644, Note_on_c, 4, 58, 0
11, 163680, Note_on_c, 4, 67, 0
11, 168480, Note_on_c, 4, 66, 78
11, 168480, Note_on_c, 4, 59, 78
11, 168528, Note_on_c, 4, 59, 0
11, 168528, Note_on_c, 4, 66, 0
11, 168528, Note_on_c, 4, 59, 78
11, 168528, Note_on_c, 4, 66, 78
11, 168576, Note_on_c, 4, 66, 0
11, 168576, Note_on_c, 4, 59, 0
11, 168576, Note_on_c, 4, 66, 78
11, 168576, Note_on_c, 4, 59, 78
11, 168768, Note_on_c, 4, 59, 0
11, 168768, Note_on_c, 4, 66, 0
11, 168768, Note_on_c, 4, 59, 78
11, 168768, Note_on_c, 4, 66, 78
11, 168960, Note_on_c, 4, 66, 0
11, 168960, Note_on_c, 4, 59, 0
11, 168960, Note_on_c, 4, 59, 78
11, 168960, Note_on_c, 4, 66, 78
11, 169056, Note_on_c, 4, 66, 0
11, 169056, Note_on_c, 4, 59, 0
11, 172224, Note_on_c, 4, 79, 78
11, 172224, Note_on_c, 4, 76, 78
11, 172320, Note_on_c, 4, 76, 0
11, 172320, Note_on_c, 4, 79, 0
11, 172320, Note_on_c, 4, 79, 78
11, 172320, Note_on_c, 4, 76, 78
11, 172416, Note_on_c, 4, 76, 0
11, 172416, Note_on_c, 4, 79, 0
11, 172416, Note_on_c, 4, 79, 78
11, 172416, Note_on_c, 4, 76, 78
11, 172512, Note_on_c, 4, 76, 0
11, 172512, Note_on_c, 4, 79, 0
11, 173856, Note_on_c, 4, 76, 78
11, 173856, Note_on_c, 4, 73, 78
11, 173952, Note_on_c, 4, 73, 0
11, 173952, Note_on_c, 4, 76, 0
11, 173952, Note_on_c, 4, 76, 78
11, 173952, Note_on_c, 4, 73, 78
11, 174048, Note_on_c, 4, 73, 0
11, 174048, Note_on_c, 4, 76, 0
11, 174048, Note_on_c, 4, 73, 78
11, 174048, Note_on_c, 4, 76, 78
11, 174144, Note_on_c, 4, 76, 0
11, 174144, Note_on_c, 4, 73, 0
11, 175296, Note_on_c, 4, 73, 78
11, 175296, Note_on_c, 4, 82, 78
11, 175392, Note_on_c, 4, 82, 0
11, 175392, Note_on_c, 4, 73, 0
11, 175392, Note_on_c, 4, 82, 78
11, 175392, Note_on_c, 4, 75, 78
11, 175488, Note_on_c, 4, 75, 0
11, 175488, Note_on_c, 4, 82, 0
11, 175488, Note_on_c, 4, 76, 78
11, 175488, Note_on_c, 4, 82, 78
11, 175584, Note_on_c, 4, 82, 0
11, 175584, Note_on_c, 4, 76, 0
11, 175584, Note_on_c, 4, 58, 78
11, 175584, Note_on_c, 4, 64, 78
11, 175680, Note_on_c, 4, 64, 0
11, 175680, Note_on_c, 4, 58, 0
11, 175776, Note_on_c, 4, 67, 78
11, 175776, Note_on_c, 4, 61, 78
11, 175872, Note_on_c, 4, 61, 0
11, 175872, Note_on_c, 4, 67, 0
11, 175968, Note_on_c, 4, 64, 78
11, 175968, Note_on_c, 4, 70, 78
11, 176064, Note_on_c, 4, 70, 0
11, 176064, Note_on_c, 4, 64, 0
11, 176160, Note_on_c, 4, 65, 78
11, 176160, Note_on_c, 4, 73, 78
11, 176256, Note_on_c, 4, 73, 0
11, 176256, Note_on_c, 4, 65, 0
11, 176352, Note_on_c, 4, 70, 78
11, 176352, Note_on_c, 4, 76, 78
11, 176448, Note_on_c, 4, 76, 0
11, 176448, Note_on_c, 4, 70, 0
11, 176832, Note_on_c, 4, 79, 78
11, 176832, Note_on_c, 4, 76, 78
11, 176928, Note_on_c, 4, 76, 0
11, 176928, Note_on_c, 4, 79, 0
11, 176928, Note_on_c, 4, 76, 78
11, 176928, Note_on_c, 4, 79, 78
11, 177024, Note_on_c, 4, 79, 0
11, 177024, Note_on_c, 4, 76, 0
11, 177024, Note_on_c, 4, 79, 78
11, 177120, Note_on_c, 4, 79, 0
11, 177600, Note_on_c, 4, 76, 78
11, 177600, Note_on_c, 4, 79, 78
11, 177696, Note_on_c, 4, 79, 0
11, 177696, Note_on_c, 4, 76, 0
11, 177696, Note_on_c, 4, 76, 78
11, 177696, Note_on_c, 4, 79, 14
11, 177792, Note_on_c, 4, 79, 0
11, 177792, Note_on_c, 4, 76, 0
11, 177792, Note_on_c, 4, 79, 78
11, 177888, Note_on_c, 4, 79, 0
11, 178368, Note_on_c, 4, 80, 78
11, 178368, Note_on_c, 4, 77, 78
11, 178464, Note_on_c, 4, 77, 0
11, 178464, Note_on_c, 4, 80, 0
11, 178464, Note_on_c, 4, 80, 78
11, 178464, Note_on_c, 4, 77, 78
11, 178560, Note_on_c, 4, 77, 0
11, 178560, Note_on_c, 4, 80, 0
11, 178560, Note_on_c, 4, 80, 78
11, 178560, Note_on_c, 4, 77, 78
11, 178656, Note_on_c, 4, 77, 0
11, 178656, Note_on_c, 4, 80, 0
11, 179136, Note_on_c, 4, 81, 78
11, 179136, Note_on_c, 4, 78, 78
11, 179232, Note_on_c, 4, 78, 0
11, 179232, Note_on_c, 4, 81, 0
11, 179232, Note_on_c, 4, 78, 78
11, 179232, Note_on_c, 4, 81, 78
11, 179328, Note_on_c, 4, 81, 0
11, 179328, Note_on_c, 4, 78, 0
11, 179328, Note_on_c, 4, 78, 78
11, 179328, Note_on_c, 4, 81, 78
11, 179424, Note_on_c, 4, 81, 0
11, 179424, Note_on_c, 4, 78, 0
11, 179808, Note_on_c, 4, 63, 78
11, 179808, Note_on_c, 4, 69, 78
11, 179904, Note_on_c, 4, 69, 0
11, 179904, Note_on_c, 4, 63, 0
11, 180000, Note_on_c, 4, 66, 78
11, 180000, Note_on_c, 4, 72, 78
11, 180096, Note_on_c, 4, 72, 0
11, 180096, Note_on_c, 4, 66, 0
11, 180192, Note_on_c, 4, 69, 78
11, 180192, Note_on_c, 4, 75, 78
11, 180288, Note_on_c, 4, 75, 0
11, 180288, Note_on_c, 4, 69, 0
11, 180288, Note_on_c, 4, 71, 78
11, 180288, Note_on_c, 4, 77, 78
11, 180336, Note_on_c, 4, 77, 0
11, 180336, Note_on_c, 4, 71, 0
11, 180336, Note_on_c, 4, 78, 78
11, 180336, Note_on_c, 4, 72, 78
11, 180384, Note_on_c, 4, 72, 0
11, 180384, Note_on_c, 4, 78, 0
11, 180384, Note_on_c, 4, 78, 78
11, 180384, Note_on_c, 4, 69, 78
11, 180432, Note_on_c, 4, 69, 0
11, 180432, Note_on_c, 4, 78, 0
11, 180432, Note_on_c, 4, 69, 78
11, 180432, Note_on_c, 4, 78, 78
11, 180480, Note_on_c, 4, 78, 0
11, 180480, Note_on_c, 4, 69, 0
11, 180480, Note_on_c, 4, 77, 78
11, 180480, Note_on_c, 4, 68, 78
11, 180528, Note_on_c, 4, 68, 0
11, 180528, Note_on_c, 4, 77, 0
11, 180528, Note_on_c, 4, 78, 78
11, 180528, Note_on_c, 4, 69, 78
11, 180576, Note_on_c, 4, 69, 0
11, 180576, Note_on_c, 4, 78, 0
11, 180576, Note_on_c, 4, 69, 78
11, 180576, Note_on_c, 4, 78, 78
11, 180672, Note_on_c, 4, 78, 0
11, 180672, Note_on_c, 4, 69, 0
11, 180672, Note_on_c, 4, 77, 78
11, 180672, Note_on_c, 4, 68, 78
11, 180720, Note_on_c, 4, 68, 0
11, 180720, Note_on_c, 4, 77, 0
11, 180720, Note_on_c, 4, 69, 78
11, 180720, Note_on_c, 4, 78, 78
11, 180768, Note_on_c, 4, 78, 0
11, 180768, Note_on_c, 4, 69, 0
11, 180768, Note_on_c, 4, 69, 78
11, 180768, Note_on_c, 4, 78, 78
11, 180864, Note_on_c, 4, 78, 0
11, 180864, Note_on_c, 4, 69, 0
11, 180864, Note_on_c, 4, 68, 78
11, 180864, Note_on_c, 4, 77, 78
11, 180912, Note_on_c, 4, 77, 0
11, 180912, Note_on_c, 4, 68, 0
11, 180912, Note_on_c, 4, 69, 78
11, 180912, Note_on_c, 4, 78, 78
11, 180960, Note_on_c, 4, 78, 0
11, 180960, Note_on_c, 4, 69, 0
11, 180960, Note_on_c, 4, 78, 78
11, 180960, Note_on_c, 4, 69, 78
11, 181056, Note_on_c, 4, 69, 0
11, 181056, Note_on_c, 4, 78, 0
11, 181056, Note_on_c, 4, 68, 78
11, 181056, Note_on_c, 4, 77, 78
11, 181104, Note_on_c, 4, 77, 0
11, 181104, Note_on_c, 4, 68, 0
11, 181104, Note_on_c, 4, 78, 78
11, 181104, Note_on_c, 4, 69, 78
11, 181152, Note_on_c, 4, 69, 0
11, 181152, Note_on_c, 4, 78, 0
11, 181152, Note_on_c, 4, 69, 78
11, 181152, Note_on_c, 4, 78, 78
11, 181248, Note_on_c, 4, 78, 0
11, 181248, Note_on_c, 4, 69, 0
11, 181248, Note_on_c, 4, 65, 78
11, 181248, Note_on_c, 4, 74, 78
11, 181296, Note_on_c, 4, 74, 0
11, 181296, Note_on_c, 4, 65, 0
11, 181296, Note_on_c, 4, 66, 78
11, 181296, Note_on_c, 4, 75, 78
11, 181344, Note_on_c, 4, 75, 0
11, 181344, Note_on_c, 4, 66, 0
11, 181344, Note_on_c, 4, 75, 78
11, 181344, Note_on_c, 4, 66, 78
11, 181440, Note_on_c, 4, 66, 0
11, 181440, Note_on_c, 4, 75, 0
11, 181440, Note_on_c, 4, 69, 78
11, 181440, Note_on_c, 4, 65, 78
11, 181488, Note_on_c, 4, 65, 0
11, 181488, Note_on_c, 4, 69, 0
11, 181488, Note_on_c, 4, 66, 78
11, 181488, Note_on_c, 4, 70, 78
11, 181536, Note_on_c, 4, 70, 0
11, 181536, Note_on_c, 4, 66, 0
11, 181536, Note_on_c, 4, 66, 78
11, 181536, Note_on_c, 4, 70, 78
11, 181632, Note_on_c, 4, 70, 0
11, 181632, Note_on_c, 4, 66, 0
11, 181632, Note_on_c, 4, 65, 78
11, 181632, Note_on_c, 4, 62, 78
11, 181680, Note_on_c, 4, 62, 0
11, 181680, Note_on_c, 4, 65, 0
11, 181680, Note_on_c, 4, 66, 78
11, 181680, Note_on_c, 4, 63, 78
11, 181728, Note_on_c, 4, 63, 0
11, 181728, Note_on_c, 4, 66, 0
11, 181728, Note_on_c, 4, 63, 78
11, 181728, Note_on_c, 4, 66, 78
11, 181824, Note_on_c, 4, 66, 0
11, 181824, Note_on_c, 4, 63, 0
11, 181824, Note_on_c, 4, 74, 78
11, 181824, Note_on_c, 4, 65, 78
11, 181872, Note_on_c, 4, 65, 0
11, 181872, Note_on_c, 4, 74, 0
11, 181872, Note_on_c, 4, 66, 78
11, 181872, Note_on_c, 4, 75, 78
11, 181920, Note_on_c, 4, 75, 0
11, 181920, Note_on_c, 4, 66, 0
11, 181920, Note_on_c, 4, 75, 78
11, 181920, Note_on_c, 4, 66, 78
11, 182016, Note_on_c, 4, 66, 0
11, 182016, Note_on_c, 4, 75, 0
11, 182016, Note_on_c, 4, 70, 78
11, 182016, Note_on_c, 4, 62, 78
11, 182064, Note_on_c, 4, 62, 0
11, 182064, Note_on_c, 4, 70, 0
11, 182064, Note_on_c, 4, 63, 78
11, 182064, Note_on_c, 4, 71, 78
11, 182112, Note_on_c, 4, 71, 0
11, 182112, Note_on_c, 4, 63, 0
11, 182112, Note_on_c, 4, 71, 78
11, 182112, Note_on_c, 4, 63, 78
11, 182208, Note_on_c, 4, 63, 0
11, 182208, Note_on_c, 4, 71, 0
11, 182208, Note_on_c, 4, 65, 78
11, 182256, Note_on_c, 4, 65, 0
11, 182256, Note_on_c, 4, 66, 78
11, 182304, Note_on_c, 4, 66, 0
11, 182304, Note_on_c, 4, 62, 78
11, 182352, Note_on_c, 4, 62, 0
11, 182352, Note_on_c, 4, 63, 78
11, 182400, Note_on_c, 4, 63, 0
11, 182400, Note_on_c, 4, 58, 78
11, 182448, Note_on_c, 4, 58, 0
11, 182448, Note_on_c, 4, 59, 78
11, 182496, Note_on_c, 4, 59, 0
11, 182496, Note_on_c, 4, 53, 78
11, 182544, Note_on_c, 4, 53, 0
11, 182544, Note_on_c, 4, 54, 78
11, 182592, Note_on_c, 4, 54, 0
11, 182592, Note_on_c, 4, 52, 78
11, 182640, Note_on_c, 4, 52, 0
11, 182640, Note_on_c, 4, 53, 78
11, 182688, Note_on_c, 4, 53, 0
11, 182880, Note_on_c, 4, 59, 78
11, 182880, Note_on_c, 4, 63, 78
11, 182976, Note_on_c, 4, 63, 0
11, 182976, Note_on_c, 4, 59, 0
11, 182976, Note_on_c, 4, 75, 78
11, 182976, Note_on_c, 4, 71, 78
11, 183072, Note_on_c, 4, 71, 0
11, 183072, Note_on_c, 4, 75, 0
11, 183456, Note_on_c, 4, 77, 78
11, 183456, Note_on_c, 4, 71, 78
11, 183520, Note_on_c, 4, 71, 0
11, 183520, Note_on_c, 4, 77, 0
11, 183552, Note_on_c, 4, 71, 78
11, 183600, Note_on_c, 4, 71, 0
11, 183648, Note_on_c, 4, 75, 78
11, 183712, Note_on_c, 4, 75, 0
11, 183744, Note_on_c, 4, 68, 78
11, 183792, Note_on_c, 4, 68, 0
11, 183840, Note_on_c, 4, 71, 78
11, 183904, Note_on_c, 4, 71, 0
11, 183936, Note_on_c, 4, 65, 78
11, 183984, Note_on_c, 4, 65, 0
11, 184032, Note_on_c, 4, 68, 78
11, 184096, Note_on_c, 4, 68, 0
11, 184128, Note_on_c, 4, 58, 78
11, 184176, Note_on_c, 4, 58, 0
11, 184176, Note_on_c, 4, 58, 78
11, 184224, Note_on_c, 4, 58, 0
11, 184224, Note_on_c, 4, 60, 78
11, 184272, Note_on_c, 4, 60, 0
11, 184272, Note_on_c, 4, 62, 78
11, 184320, Note_on_c, 4, 62, 0
11, 184320, Note_on_c, 4, 63, 78
11, 184560, Note_on_c, 4, 63, 0
11, 184560, Note_on_c, 4, 62, 78
11, 184608, Note_on_c, 4, 62, 0
11, 184608, Note_on_c, 4, 63, 78
11, 184656, Note_on_c, 4, 63, 0
11, 184656, Note_on_c, 4, 65, 78
11, 184704, Note_on_c, 4, 65, 0
11, 184704, Note_on_c, 4, 68, 78
11, 184752, Note_on_c, 4, 68, 0
11, 184752, Note_on_c, 4, 66, 78
11, 184800, Note_on_c, 4, 66, 0
11, 184944, Note_on_c, 4, 51, 78
11, 184944, Note_on_c, 4, 63, 78
11, 184992, Note_on_c, 4, 63, 0
11, 184992, Note_on_c, 4, 51, 0
11, 184992, Note_on_c, 4, 65, 78
11, 184992, Note_on_c, 4, 53, 78
11, 185040, Note_on_c, 4, 53, 0
11, 185040, Note_on_c, 4, 65, 0
11, 185040, Note_on_c, 4, 67, 78
11, 185040, Note_on_c, 4, 55, 78
11, 185088, Note_on_c, 4, 55, 0
11, 185088, Note_on_c, 4, 67, 0
11, 185088, Note_on_c, 4, 56, 78
11, 185088, Note_on_c, 4, 68, 78
11, 185328, Note_on_c, 4, 68, 0
11, 185328, Note_on_c, 4, 56, 0
11, 185328, Note_on_c, 4, 55, 78
11, 185328, Note_on_c, 4, 67, 78
11, 185376, Note_on_c, 4, 67, 0
11, 185376, Note_on_c, 4, 55, 0
11, 185376, Note_on_c, 4, 56, 78
11, 185376, Note_on_c, 4, 68, 78
11, 185424, Note_on_c, 4, 68, 0
11, 185424, Note_on_c, 4, 56, 0
11, 185424, Note_on_c, 4, 70, 78
11, 185424, Note_on_c, 4, 58, 78
11, 185472, Note_on_c, 4, 58, 0
11, 185472, Note_on_c, 4, 70, 0
11, 185472, Note_on_c, 4, 61, 78
11, 185472, Note_on_c, 4, 73, 78
11, 185520, Note_on_c, 4, 73, 0
11, 185520, Note_on_c, 4, 61, 0
11, 185520, Note_on_c, 4, 59, 78
11, 185520, Note_on_c, 4, 71, 78
11, 185568, Note_on_c, 4, 71, 0
11, 185568, Note_on_c, 4, 59, 0
11, 185712, Note_on_c, 4, 58, 78
11, 185712, Note_on_c, 4, 70, 78
11, 185760, Note_on_c, 4, 70, 0
11, 185760, Note_on_c, 4, 58, 0
11, 185760, Note_on_c, 4, 59, 78
11, 185760, Note_on_c, 4, 71, 78
11, 185808, Note_on_c, 4, 71, 0
11, 185808, Note_on_c, 4, 59, 0
11, 185808, Note_on_c, 4, 62, 78
11, 185808, Note_on_c, 4, 74, 78
11, 185856, Note_on_c, 4, 74, 0
11, 185856, Note_on_c, 4, 62, 0
11, 185856, Note_on_c, 4, 77, 78
11, 185856, Note_on_c, 4, 65, 78
11, 185904, Note_on_c, 4, 65, 0
11, 185904, Note_on_c, 4, 77, 0
11, 185904, Note_on_c, 4, 63, 78
11, 185904, Note_on_c, 4, 75, 78
11, 185952, Note_on_c, 4, 75, 0
11, 185952, Note_on_c, 4, 63, 0
11, 186096, Note_on_c, 4, 74, 78
11, 186096, Note_on_c, 4, 62, 78
11, 186144, Note_on_c, 4, 62, 0
11, 186144, Note_on_c, 4, 74, 0
11, 186144, Note_on_c, 4, 63, 78
11, 186144, Note_on_c, 4, 75, 78
11, 186192, Note_on_c, 4, 75, 0
11, 186192, Note_on_c, 4, 63, 0
11, 186192, Note_on_c, 4, 65, 78
11, 186192, Note_on_c, 4, 77, 78
11, 186240, Note_on_c, 4, 77, 0
11, 186240, Note_on_c, 4, 65, 0
11, 186240, Note_on_c, 4, 80, 78
11, 186240, Note_on_c, 4, 68, 78
11, 186288, Note_on_c, 4, 68, 0
11, 186288, Note_on_c, 4, 80, 0
11, 186288, Note_on_c, 4, 78, 78
11, 186288, Note_on_c, 4, 66, 78
11, 186336, Note_on_c, 4, 66, 0
11, 186336, Note_on_c, 4, 78, 0
11, 186336, Note_on_c, 4, 78, 78
11, 186336, Note_on_c, 4, 66, 78
11, 186528, Note_on_c, 4, 66, 0
11, 186528, Note_on_c, 4, 78, 0
11, 186528, Note_on_c, 4, 78, 78
11, 186528, Note_on_c, 4, 66, 78
11, 186720, Note_on_c, 4, 66, 0
11, 186720, Note_on_c, 4, 78, 0
11, 186720, Note_on_c, 4, 66, 78
11, 186720, Note_on_c, 4, 78, 78
11, 186912, Note_on_c, 4, 78, 0
11, 186912, Note_on_c, 4, 66, 0
11, 186912, Note_on_c, 4, 78, 78
11, 186912, Note_on_c, 4, 66, 78
11, 187104, Note_on_c, 4, 66, 0
11, 187104, Note_on_c, 4, 78, 0
11, 187104, Note_on_c, 4, 78, 78
11, 187104, Note_on_c, 4, 66, 78
11, 187200, Note_on_c, 4, 66, 0
11, 187200, Note_on_c, 4, 78, 0
11, 187200, Note_on_c, 4, 80, 78
11, 187200, Note_on_c, 4, 68, 78
11, 187296, Note_on_c, 4, 68, 0
11, 187296, Note_on_c, 4, 80, 0
11, 187296, Note_on_c, 4, 82, 78
11, 187296, Note_on_c, 4, 70, 78
11, 187392, Note_on_c, 4, 70, 0
11, 187392, Note_on_c, 4, 82, 0
11, 187392, Note_on_c, 4, 83, 78
11, 187392, Note_on_c, 4, 71, 78
11, 187488, Note_on_c, 4, 71, 0
11, 187488, Note_on_c, 4, 83, 0
11, 187488, Note_on_c, 4, 82, 78
11, 187488, Note_on_c, 4, 70, 78
11, 187584, Note_on_c, 4, 70, 0
11, 187584, Note_on_c, 4, 82, 0
11, 187584, Note_on_c, 4, 80, 78
11, 187584, Note_on_c, 4, 68, 78
11, 187680, Note_on_c, 4, 68, 0
11, 187680, Note_on_c, 4, 80, 0
11, 187680, Note_on_c, 4, 67, 78
11, 187680, Note_on_c, 4, 79, 78
11, 187776, Note_on_c, 4, 79, 0
11, 187776, Note_on_c, 4, 67, 0
11, 187776, Note_on_c, 4, 78, 78
11, 187776, Note_on_c, 4, 66, 78
11, 187872, Note_on_c, 4, 66, 0
11, 187872, Note_on_c, 4, 78, 0
11, 187872, Note_on_c, 4, 76, 78
11, 187872, Note_on_c, 4, 64, 78
11, 187968, Note_on_c, 4, 64, 0
11, 187968, Note_on_c, 4, 76, 0
11, 187968, Note_on_c, 4, 63, 78
11, 187968, Note_on_c, 4, 75, 78
11, 188064, Note_on_c, 4, 75, 0
11, 188064, Note_on_c, 4, 63, 0
11, 188064, Note_on_c, 4, 73, 78
11, 188064, Note_on_c, 4, 61, 78
11, 188160, Note_on_c, 4, 61, 0
11, 188160, Note_on_c, 4, 73, 0
11, 188160, Note_on_c, 4, 59, 78
11, 188160, Note_on_c, 4, 71, 78
11, 188256, Note_on_c, 4, 71, 0
11, 188256, Note_on_c, 4, 59, 0
11, 188256, Note_on_c, 4, 58, 78
11, 188256, Note_on_c, 4, 70, 78
11, 188352, Note_on_c, 4, 70, 0
11, 188352, Note_on_c, 4, 58, 0
11, 188352, Note_on_c, 4, 68, 78
11, 188352, Note_on_c, 4, 56, 78
11, 188448, Note_on_c, 4, 56, 0
11, 188448, Note_on_c, 4, 68, 0
11, 188448, Note_on_c, 4, 55, 78
11, 188448, Note_on_c, 4, 67, 78
11, 188544, Note_on_c, 4, 67, 0
11, 188544, Note_on_c, 4, 55, 0
11, 188544, Note_on_c, 4, 66, 78
11, 188640, Note_on_c, 4, 66, 0
11, 188640, Note_on_c, 4, 68, 78
11, 188736, Note_on_c, 4, 68, 0
11, 188736, Note_on_c, 4, 69, 78
11, 188832, Note_on_c, 4, 69, 0
11, 188832, Note_on_c, 4, 70, 78
11, 188928, Note_on_c, 4, 70, 0
11, 188928, Note_on_c, 4, 71, 78
11, 189024, Note_on_c, 4, 71, 0
11, 189024, Note_on_c, 4, 70, 78
11, 189120, Note_on_c, 4, 70, 0
11, 189120, Note_on_c, 4, 68, 78
11, 189216, Note_on_c, 4, 68, 0
11, 189216, Note_on_c, 4, 67, 78
11, 189312, Note_on_c, 4, 67, 0
11, 189312, Note_on_c, 4, 66, 78
11, 189408, Note_on_c, 4, 66, 0
11, 189408, Note_on_c, 4, 64, 78
11, 189504, Note_on_c, 4, 64, 0
11, 189504, Note_on_c, 4, 63, 78
11, 189600, Note_on_c, 4, 63, 0
11, 189600, Note_on_c, 4, 61, 78
11, 189696, Note_on_c, 4, 61, 0
11, 189696, Note_on_c, 4, 59, 78
11, 189792, Note_on_c, 4, 59, 0
11, 189792, Note_on_c, 4, 58, 78
11, 189888, Note_on_c, 4, 58, 0
11, 189888, Note_on_c, 4, 56, 78
11, 189984, Note_on_c, 4, 56, 0
11, 189984, Note_on_c, 4, 55, 78
11, 190080, Note_on_c, 4, 55, 0
11, 190080, Note_on_c, 4, 54, 78
11, 190176, Note_on_c, 4, 54, 0
11, 192768, Note_on_c, 4, 75, 78
11, 192768, Note_on_c, 4, 78, 78
11, 193344, Note_on_c, 4, 78, 0
11, 193344, Note_on_c, 4, 75, 0
11, 193344, Note_on_c, 4, 75, 78
11, 193344, Note_on_c, 4, 71, 78
11, 193536, Note_on_c, 4, 71, 0
11, 193536, Note_on_c, 4, 75, 0
11, 193536, Note_on_c, 4, 63, 78
11, 193536, Note_on_c, 4, 71, 78
11, 194064, Note_on_c, 4, 71, 0
11, 194064, Note_on_c, 4, 63, 0
11, 197952, Note_on_c, 4, 54, 74
11, 198144, Note_on_c, 4, 63, 74
11, 198912, Note_on_c, 4, 63, 0
11, 198912, Note_on_c, 4, 54, 0
11, 198912, Note_on_c, 4, 63, 62
11, 198912, Note_on_c, 4, 55, 62
11, 199296, Note_on_c, 4, 55, 0
11, 199296, Note_on_c, 4, 63, 0
11, 199296, Note_on_c, 4, 62, 62
11, 199296, Note_on_c, 4, 56, 62
11, 199680, Note_on_c, 4, 56, 0
11, 199680, Note_on_c, 4, 62, 0
11, 199680, Note_on_c, 4, 55, 62
11, 199680, Note_on_c, 4, 63, 62
11, 200064, Note_on_c, 4, 63, 0
11, 200064, Note_on_c, 4, 55, 0
11, 200064, Note_on_c, 4, 62, 62
11, 200064, Note_on_c, 4, 56, 62
11, 200448, Note_on_c, 4, 56, 0
11, 200448, Note_on_c, 4, 62, 0
11, 200448, Note_on_c, 4, 55, 62
11, 200448, Note_on_c, 4, 63, 62
11, 200832, Note_on_c, 4, 63, 0
11, 200832, Note_on_c, 4, 55, 0
11, 200832, Note_on_c, 4, 62, 62
11, 200832, Note_on_c, 4, 56, 62
11, 201216, Note_on_c, 4, 56, 0
11, 201216, Note_on_c, 4, 62, 0
11, 201216, Note_on_c, 4, 55, 62
11, 201216, Note_on_c, 4, 63, 62
11, 201600, Note_on_c, 4, 63, 0
11, 201600, Note_on_c, 4, 55, 0
11, 201600, Note_on_c, 4, 62, 62
11, 201600, Note_on_c, 4, 56, 62
11, 201984, Note_on_c, 4, 56, 0
11, 201984, Note_on_c, 4, 62, 0
11, 201984, Note_on_c, 4, 63, 62
11, 201984, Note_on_c, 4, 55, 62
11, 202368, Note_on_c, 4, 55, 0
11, 202368, Note_on_c, 4, 63, 0
11, 202368, Note_on_c, 4, 62, 62
11, 202368, Note_on_c, 4, 56, 62
11, 202752, Note_on_c, 4, 56, 0
11, 202752, Note_on_c, 4, 62, 0
11, 202752, Note_on_c, 4, 55, 62
11, 202752, Note_on_c, 4, 63, 62
11, 203136, Note_on_c, 4, 63, 0
11, 203136, Note_on_c, 4, 55, 0
11, 203136, Note_on_c, 4, 62, 62
11, 203136, Note_on_c, 4, 56, 62
11, 203520, Note_on_c, 4, 56, 0
11, 203520, Note_on_c, 4, 62, 0
11, 203520, Note_on_c, 4, 63, 62
11, 203520, Note_on_c, 4, 55, 62
11, 203904, Note_on_c, 4, 55, 0
11, 203904, Note_on_c, 4, 63, 0
11, 203904, Note_on_c, 4, 65, 62
11, 203904, Note_on_c, 4, 56, 62
11, 204288, Note_on_c, 4, 56, 0
11, 204288, Note_on_c, 4, 65, 0
11, 204288, Note_on_c, 4, 67, 62
11, 204288, Note_on_c, 4, 58, 62
11, 204672, Note_on_c, 4, 58, 0
11, 204672, Note_on_c, 4, 67, 0
11, 204672, Note_on_c, 4, 56, 62
11, 204672, Note_on_c, 4, 65, 62
11, 205056, Note_on_c, 4, 65, 0
11, 205056, Note_on_c, 4, 56, 0
11, 205056, Note_on_c, 4, 63, 62
11, 205056, Note_on_c, 4, 55, 62
11, 205440, Note_on_c, 4, 55, 0
11, 205440, Note_on_c, 4, 63, 0
11, 205440, Note_on_c, 4, 62, 62
11, 205440, Note_on_c, 4, 56, 62
11, 205824, Note_on_c, 4, 56, 0
11, 205824, Note_on_c, 4, 62, 0
11, 205824, Note_on_c, 4, 55, 62
11, 205824, Note_on_c, 4, 63, 62
11, 206208, Note_on_c, 4, 63, 0
11, 206208, Note_on_c, 4, 55, 0
11, 206208, Note_on_c, 4, 65, 62
11, 206208, Note_on_c, 4, 56, 62
11, 206592, Note_on_c, 4, 56, 0
11, 206592, Note_on_c, 4, 65, 0
11, 206592, Note_on_c, 4, 58, 62
11, 206592, Note_on_c, 4, 67, 62
11, 206976, Note_on_c, 4, 67, 0
11, 206976, Note_on_c, 4, 58, 0
11, 206976, Note_on_c, 4, 56, 62
11, 206976, Note_on_c, 4, 65, 62
11, 207360, Note_on_c, 4, 65, 0
11, 207360, Note_on_c, 4, 56, 0
11, 207360, Note_on_c, 4, 63, 62
11, 207360, Note_on_c, 4, 55, 62
11, 207744, Note_on_c, 4, 55, 0
11, 207744, Note_on_c, 4, 63, 0
11, 207744, Note_on_c, 4, 62, 62
11, 207744, Note_on_c, 4, 53, 62
11, 208128, Note_on_c, 4, 53, 0
11, 208128, Note_on_c, 4, 62, 0
11, 208128, Note_on_c, 4, 63, 62
11, 208128, Note_on_c, 4, 54, 62
11, 208512, Note_on_c, 4, 54, 0
11, 208512, Note_on_c, 4, 63, 0
11, 208512, Note_on_c, 4, 56, 62
11, 208512, Note_on_c, 4, 62, 62
11, 208896, Note_on_c, 4, 62, 0
11, 208896, Note_on_c, 4, 56, 0
11, 208896, Note_on_c, 4, 63, 62
11, 208896, Note_on_c, 4, 54, 62
11, 209280, Note_on_c, 4, 54, 0
11, 209280, Note_on_c, 4, 63, 0
11, 209280, Note_on_c, 4, 62, 62
11, 209280, Note_on_c, 4, 56, 62
11, 209664, Note_on_c, 4, 56, 0
11, 209664, Note_on_c, 4, 62, 0
11, 209664, Note_on_c, 4, 63, 62
11, 209664, Note_on_c, 4, 54, 62
11, 210048, Note_on_c, 4, 54, 0
11, 210048, Note_on_c, 4, 63, 0
11, 210048, Note_on_c, 4, 62, 62
11, 210048, Note_on_c, 4, 56, 62
11, 210432, Note_on_c, 4, 56, 0
11, 210432, Note_on_c, 4, 62, 0
11, 210432, Note_on_c, 4, 54, 62
11, 210432, Note_on_c, 4, 63, 62
11, 210816, Note_on_c, 4, 63, 0
11, 210816, Note_on_c, 4, 54, 0
11, 210816, Note_on_c, 4, 62, 62
11, 210816, Note_on_c, 4, 56, 62
11, 211200, Note_on_c, 4, 56, 0
11, 211200, Note_on_c, 4, 62, 0
11, 211200, Note_on_c, 4, 63, 62
11, 211200, Note_on_c, 4, 54, 62
11, 211584, Note_on_c, 4, 54, 0
11, 211584, Note_on_c, 4, 63, 0
11, 211584, Note_on_c, 4, 56, 62
11, 211584, Note_on_c, 4, 62, 62
11, 211968, Note_on_c, 4, 62, 0
11, 211968, Note_on_c, 4, 56, 0
11, 211968, Note_on_c, 4, 63, 62
11, 211968, Note_on_c, 4, 54, 62
11, 212352, Note_on_c, 4, 54, 0
11, 212352, Note_on_c, 4, 63, 0
11, 212352, Note_on_c, 4, 56, 62
11, 212352, Note_on_c, 4, 65, 62
11, 212736, Note_on_c, 4, 65, 0
11, 212736, Note_on_c, 4, 56, 0
11, 212736, Note_on_c, 4, 54, 62
11, 212736, Note_on_c, 4, 63, 62
11, 213120, Note_on_c, 4, 63, 0
11, 213120, Note_on_c, 4, 54, 0
11, 213120, Note_on_c, 4, 65, 62
11, 213120, Note_on_c, 4, 56, 62
11, 213504, Note_on_c, 4, 56, 0
11, 213504, Note_on_c, 4, 65, 0
11, 213504, Note_on_c, 4, 63, 62
11, 213504, Note_on_c, 4, 54, 62
11, 213888, Note_on_c, 4, 54, 0
11, 213888, Note_on_c, 4, 63, 0
11, 213888, Note_on_c, 4, 65, 62
11, 213888, Note_on_c, 4, 56, 62
11, 214272, Note_on_c, 4, 56, 0
11, 214272, Note_on_c, 4, 65, 0
11, 214272, Note_on_c, 4, 54, 62
11, 214272, Note_on_c, 4, 63, 62
11, 214368, Note_on_c, 4, 63, 0
11, 214368, Note_on_c, 4, 54, 0
11, 217344, Note_on_c, 4, 58, 56
11, 217344, Note_on_c, 4, 54, 56
11, 217920, Note_on_c, 4, 54, 0
11, 217920, Note_on_c, 4, 58, 0
11, 217920, Note_on_c, 4, 59, 56
11, 217920, Note_on_c, 4, 53, 56
11, 218112, Note_on_c, 4, 53, 0
11, 218112, Note_on_c, 4, 59, 0
11, 218112, Note_on_c, 4, 54, 56
11, 218112, Note_on_c, 4, 58, 56
11, 218208, Note_on_c, 4, 58, 0
11, 218208, Note_on_c, 4, 54, 0
11, 227328, Note_on_c, 4, 67, 56
11, 227424, Note_on_c, 4, 67, 0
11, 227520, Note_on_c, 4, 69, 56
11, 227616, Note_on_c, 4, 69, 0
11, 227712, Note_on_c, 4, 70, 56
11, 227808, Note_on_c, 4, 70, 0
11, 227904, Note_on_c, 4, 69, 56
11, 228000, Note_on_c, 4, 69, 0
11, 228096, Note_on_c, 4, 67, 56
11, 228096, Note_on_c, 4, 55, 56
11, 228192, Note_on_c, 4, 55, 0
11, 228192, Note_on_c, 4, 67, 0
11, 228288, Note_on_c, 4, 57, 56
11, 228384, Note_on_c, 4, 57, 0
11, 228864, Note_on_c, 4, 72, 56
11, 228960, Note_on_c, 4, 72, 0
11, 229056, Note_on_c, 4, 74, 56
11, 229152, Note_on_c, 4, 74, 0
11, 229248, Note_on_c, 4, 75, 56
11, 229344, Note_on_c, 4, 75, 0
11, 229440, Note_on_c, 4, 74, 56
11, 229536, Note_on_c, 4, 74, 0
11, 229632, Note_on_c, 4, 60, 56
11, 229632, Note_on_c, 4, 72, 56
11, 229728, Note_on_c, 4, 72, 0
11, 229728, Note_on_c, 4, 60, 0
11, 229824, Note_on_c, 4, 62, 56
11, 229920, Note_on_c, 4, 62, 0
11, 230112, Note_on_c, 4, 72, 56
11, 230160, Note_on_c, 4, 72, 0
11, 230160, Note_on_c, 4, 72, 56
11, 230208, Note_on_c, 4, 72, 0
11, 230208, Note_on_c, 4, 72, 56
11, 230304, Note_on_c, 4, 72, 0
11, 230304, Note_on_c, 4, 72, 56
11, 230400, Note_on_c, 4, 72, 0
11, 230400, Note_on_c, 4, 77, 78
11, 230400, Note_on_c, 4, 68, 78
11, 230592, Note_on_c, 4, 68, 0
11, 230592, Note_on_c, 4, 77, 0
11, 230592, Note_on_c, 4, 72, 78
11, 230592, Note_on_c, 4, 79, 78
11, 230784, Note_on_c, 4, 79, 0
11, 230784, Note_on_c, 4, 72, 0
11, 230784, Note_on_c, 4, 77, 78
11, 230784, Note_on_c, 4, 80, 78
11, 230976, Note_on_c, 4, 80, 0
11, 230976, Note_on_c, 4, 77, 0
11, 230976, Note_on_c, 4, 72, 78
11, 230976, Note_on_c, 4, 79, 78
11, 231168, Note_on_c, 4, 79, 0
11, 231168, Note_on_c, 4, 72, 0
11, 231168, Note_on_c, 4, 72, 78
11, 231168, Note_on_c, 4, 77, 78
11, 231360, Note_on_c, 4, 77, 0
11, 231360, Note_on_c, 4, 72, 0
11, 231360, Note_on_c, 4, 72, 78
11, 231360, Note_on_c, 4, 75, 78
11, 231552, Note_on_c, 4, 75, 0
11, 231552, Note_on_c, 4, 72, 0
11, 231552, Note_on_c, 4, 73, 78
11, 231552, Note_on_c, 4, 71, 78
11, 231648, Note_on_c, 4, 71, 0
11, 231648, Note_on_c, 4, 73, 0
11, 231648, Note_on_c, 4, 73, 78
11, 231648, Note_on_c, 4, 71, 78
11, 231696, Note_on_c, 4, 71, 0
11, 231696, Note_on_c, 4, 73, 0
11, 231696, Note_on_c, 4, 71, 78
11, 231696, Note_on_c, 4, 73, 78
11, 231744, Note_on_c, 4, 73, 0
11, 231744, Note_on_c, 4, 71, 0
11, 231744, Note_on_c, 4, 71, 78
11, 231744, Note_on_c, 4, 73, 78
11, 231840, Note_on_c, 4, 73, 0
11, 231840, Note_on_c, 4, 71, 0
11, 231840, Note_on_c, 4, 73, 78
11, 231840, Note_on_c, 4, 71, 78
11, 231936, Note_on_c, 4, 71, 0
11, 231936, Note_on_c, 4, 73, 0
11, 231936, Note_on_c, 4, 70, 78
11, 231936, Note_on_c, 4, 78, 78
11, 232128, Note_on_c, 4, 78, 0
11, 232128, Note_on_c, 4, 70, 0
11, 232128, Note_on_c, 4, 80, 78
11, 232128, Note_on_c, 4, 73, 78
11, 232320, Note_on_c, 4, 73, 0
11, 232320, Note_on_c, 4, 80, 0
11, 232320, Note_on_c, 4, 78, 78
11, 232320, Note_on_c, 4, 82, 78
11, 232512, Note_on_c, 4, 82, 0
11, 232512, Note_on_c, 4, 78, 0
11, 232512, Note_on_c, 4, 73, 78
11, 232512, Note_on_c, 4, 80, 78
11, 232704, Note_on_c, 4, 80, 0
11, 232704, Note_on_c, 4, 73, 0
11, 232704, Note_on_c, 4, 73, 78
11, 232704, Note_on_c, 4, 78, 78
11, 232896, Note_on_c, 4, 78, 0
11, 232896, Note_on_c, 4, 73, 0
11, 232896, Note_on_c, 4, 73, 78
11, 232896, Note_on_c, 4, 77, 78
11, 233088, Note_on_c, 4, 77, 0
11, 233088, Note_on_c, 4, 73, 0
11, 233088, Note_on_c, 4, 75, 78
11, 233088, Note_on_c, 4, 73, 78
11, 233184, Note_on_c, 4, 73, 0
11, 233184, Note_on_c, 4, 75, 0
11, 233184, Note_on_c, 4, 75, 56
11, 233184, Note_on_c, 4, 73, 78
11, 233232, Note_on_c, 4, 73, 0
11, 233232, Note_on_c, 4, 75, 0
11, 233232, Note_on_c, 4, 75, 56
11, 233232, Note_on_c, 4, 73, 56
11, 233280, Note_on_c, 4, 73, 0
11, 233280, Note_on_c, 4, 75, 0
11, 233280, Note_on_c, 4, 73, 56
11, 233280, Note_on_c, 4, 75, 56
11, 233376, Note_on_c, 4, 75, 0
11, 233376, Note_on_c, 4, 73, 0
11, 233376, Note_on_c, 4, 75, 56
11, 233376, Note_on_c, 4, 73, 56
11, 233472, Note_on_c, 4, 73, 0
11, 233472, Note_on_c, 4, 75, 0
11, 233472, Note_on_c, 4, 80, 78
11, 233472, Note_on_c, 4, 72, 78
11, 233664, Note_on_c, 4, 72, 0
11, 233664, Note_on_c, 4, 80, 0
11, 233664, Note_on_c, 4, 82, 78
11, 233664, Note_on_c, 4, 75, 78
11, 233856, Note_on_c, 4, 75, 0
11, 233856, Note_on_c, 4, 82, 0
11, 233856, Note_on_c, 4, 84, 78
11, 233856, Note_on_c, 4, 81, 78
11, 233952, Note_on_c, 4, 81, 0
11, 233952, Note_on_c, 4, 84, 0
11, 233952, Note_on_c, 4, 77, 78
11, 234000, Note_on_c, 4, 77, 0
11, 234000, Note_on_c, 4, 77, 78
11, 234048, Note_on_c, 4, 77, 0
11, 234048, Note_on_c, 4, 77, 78
11, 234144, Note_on_c, 4, 77, 0
11, 234144, Note_on_c, 4, 77, 78
11, 234240, Note_on_c, 4, 77, 0
11, 234240, Note_on_c, 4, 74, 78
11, 234240, Note_on_c, 4, 82, 78
11, 234432, Note_on_c, 4, 82, 0
11, 234432, Note_on_c, 4, 74, 0
11, 234432, Note_on_c, 4, 77, 78
11, 234432, Note_on_c, 4, 84, 78
11, 234624, Note_on_c, 4, 84, 0
11, 234624, Note_on_c, 4, 77, 0
11, 234624, Note_on_c, 4, 83, 78
11, 234624, Note_on_c, 4, 86, 78
11, 234720, Note_on_c, 4, 86, 0
11, 234720, Note_on_c, 4, 83, 0
11, 234720, Note_on_c, 4, 79, 78
11, 234768, Note_on_c, 4, 79, 0
11, 234768, Note_on_c, 4, 79, 78
11, 234816, Note_on_c, 4, 79, 0
11, 234816, Note_on_c, 4, 79, 78
11, 234912, Note_on_c, 4, 79, 0
11, 234912, Note_on_c, 4, 79, 78
11, 235008, Note_on_c, 4, 79, 0
11, 235008, Note_on_c, 4, 84, 78
11, 235008, Note_on_c, 4, 75, 78
11, 235200, Note_on_c, 4, 75, 0
11, 235200, Note_on_c, 4, 84, 0
11, 235200, Note_on_c, 4, 79, 78
11, 235200, Note_on_c, 4, 86, 78
11, 235392, Note_on_c, 4, 86, 0
11, 235392, Note_on_c, 4, 79, 0
11, 235392, Note_on_c, 4, 84, 78
11, 235392, Note_on_c, 4, 87, 78
11, 235488, Note_on_c, 4, 87, 0
11, 235488, Note_on_c, 4, 84, 0
11, 235488, Note_on_c, 4, 80, 78
11, 235536, Note_on_c, 4, 80, 0
11, 235536, Note_on_c, 4, 80, 78
11, 235584, Note_on_c, 4, 80, 0
11, 235584, Note_on_c, 4, 80, 78
11, 235680, Note_on_c, 4, 80, 0
11, 235680, Note_on_c, 4, 80, 78
11, 235776, Note_on_c, 4, 80, 0
11, 235776, Note_on_c, 4, 73, 78
11, 235776, Note_on_c, 4, 65, 78
11, 235968, Note_on_c, 4, 65, 0
11, 235968, Note_on_c, 4, 73, 0
11, 235968, Note_on_c, 4, 68, 78
11, 235968, Note_on_c, 4, 75, 78
11, 236160, Note_on_c, 4, 75, 0
11, 236160, Note_on_c, 4, 68, 0
11, 236160, Note_on_c, 4, 74, 78
11, 236160, Note_on_c, 4, 77, 78
11, 236256, Note_on_c, 4, 77, 0
11, 236256, Note_on_c, 4, 74, 0
11, 236544, Note_on_c, 4, 79, 78
11, 236544, Note_on_c, 4, 75, 78
11, 236640, Note_on_c, 4, 75, 0
11, 236640, Note_on_c, 4, 79, 0
11, 236640, Note_on_c, 4, 74, 78
11, 236640, Note_on_c, 4, 77, 78
11, 236736, Note_on_c, 4, 77, 0
11, 236736, Note_on_c, 4, 74, 0
11, 236736, Note_on_c, 4, 75, 78
11, 236736, Note_on_c, 4, 72, 78
11, 236832, Note_on_c, 4, 72, 0
11, 236832, Note_on_c, 4, 75, 0
11, 236832, Note_on_c, 4, 74, 78
11, 236832, Note_on_c, 4, 70, 78
11, 236928, Note_on_c, 4, 70, 0
11, 236928, Note_on_c, 4, 74, 0
11, 236928, Note_on_c, 4, 75, 78
11, 236928, Note_on_c, 4, 72, 78
11, 237024, Note_on_c, 4, 72, 0
11, 237024, Note_on_c, 4, 75, 0
11, 237024, Note_on_c, 4, 74, 78
11, 237024, Note_on_c, 4, 70, 78
11, 237120, Note_on_c, 4, 70, 0
11, 237120, Note_on_c, 4, 74, 0
11, 237120, Note_on_c, 4, 72, 78
11, 237120, Note_on_c, 4, 68, 78
11, 237216, Note_on_c, 4, 68, 0
11, 237216, Note_on_c, 4, 72, 0
11, 237216, Note_on_c, 4, 67, 78
11, 237216, Note_on_c, 4, 70, 78
11, 237312, Note_on_c, 4, 70, 0
11, 237312, Note_on_c, 4, 67, 0
11, 237312, Note_on_c, 4, 72, 78
11, 237312, Note_on_c, 4, 75, 78
11, 237408, Note_on_c, 4, 75, 0
11, 237408, Note_on_c, 4, 72, 0
11, 237408, Note_on_c, 4, 70, 78
11, 237408, Note_on_c, 4, 74, 78
11, 237504, Note_on_c, 4, 74, 0
11, 237504, Note_on_c, 4, 70, 0
11, 237504, Note_on_c, 4, 68, 78
11, 237504, Note_on_c, 4, 72, 78
11, 237600, Note_on_c, 4, 72, 0
11, 237600, Note_on_c, 4, 68, 0
11, 237600, Note_on_c, 4, 67, 78
11, 237600, Note_on_c, 4, 70, 78
11, 237696, Note_on_c, 4, 70, 0
11, 237696, Note_on_c, 4, 67, 0
11, 237696, Note_on_c, 4, 80, 78
11, 237696, Note_on_c, 4, 77, 78
11, 237792, Note_on_c, 4, 77, 0
11, 237792, Note_on_c, 4, 80, 0
11, 237792, Note_on_c, 4, 75, 78
11, 237792, Note_on_c, 4, 79, 78
11, 237888, Note_on_c, 4, 79, 0
11, 237888, Note_on_c, 4, 75, 0
11, 237888, Note_on_c, 4, 77, 78
11, 237888, Note_on_c, 4, 74, 78
11, 237984, Note_on_c, 4, 74, 0
11, 237984, Note_on_c, 4, 77, 0
11, 237984, Note_on_c, 4, 75, 78
11, 237984, Note_on_c, 4, 72, 78
11, 238080, Note_on_c, 4, 72, 0
11, 238080, Note_on_c, 4, 75, 0
11, 238080, Note_on_c, 4, 70, 78
11, 238080, Note_on_c, 4, 74, 78
11, 238176, Note_on_c, 4, 74, 0
11, 238176, Note_on_c, 4, 70, 0
11, 238176, Note_on_c, 4, 75, 78
11, 238176, Note_on_c, 4, 72, 78
11, 238272, Note_on_c, 4, 72, 0
11, 238272, Note_on_c, 4, 75, 0
11, 238272, Note_on_c, 4, 77, 78
11, 238272, Note_on_c, 4, 74, 78
11, 238368, Note_on_c, 4, 74, 0
11, 238368, Note_on_c, 4, 77, 0
11, 238368, Note_on_c, 4, 75, 78
11, 238368, Note_on_c, 4, 79, 78
11, 238464, Note_on_c, 4, 79, 0
11, 238464, Note_on_c, 4, 75, 0
11, 238464, Note_on_c, 4, 77, 78
11, 238464, Note_on_c, 4, 80, 78
11, 238560, Note_on_c, 4, 80, 0
11, 238560, Note_on_c, 4, 77, 0
11, 238560, Note_on_c, 4, 79, 78
11, 238560, Note_on_c, 4, 82, 78
11, 238656, Note_on_c, 4, 82, 0
11, 238656, Note_on_c, 4, 79, 0
11, 238656, Note_on_c, 4, 75, 78
11, 238656, Note_on_c, 4, 79, 78
11, 238752, Note_on_c, 4, 79, 0
11, 238752, Note_on_c, 4, 75, 0
11, 238752, Note_on_c, 4, 79, 78
11, 238752, Note_on_c, 4, 75, 78
11, 238776, Note_on_c, 4, 75, 0
11, 238776, Note_on_c, 4, 79, 0
11, 238848, Note_on_c, 4, 79, 78
11, 238848, Note_on_c, 4, 75, 78
11, 238944, Note_on_c, 4, 75, 0
11, 238944, Note_on_c, 4, 79, 0
11, 238944, Note_on_c, 4, 77, 78
11, 238944, Note_on_c, 4, 74, 78
11, 239040, Note_on_c, 4, 74, 0
11, 239040, Note_on_c, 4, 77, 0
11, 239040, Note_on_c, 4, 75, 78
11, 239040, Note_on_c, 4, 72, 78
11, 239136, Note_on_c, 4, 72, 0
11, 239136, Note_on_c, 4, 75, 0
11, 239136, Note_on_c, 4, 70, 78
11, 239136, Note_on_c, 4, 74, 78
11, 239232, Note_on_c, 4, 74, 0
11, 239232, Note_on_c, 4, 70, 0
11, 239232, Note_on_c, 4, 79, 78
11, 239328, Note_on_c, 4, 79, 0
11, 239328, Note_on_c, 4, 74, 78
11, 239328, Note_on_c, 4, 77, 78
11, 239424, Note_on_c, 4, 77, 0
11, 239424, Note_on_c, 4, 74, 0
11, 239424, Note_on_c, 4, 75, 78
11, 239424, Note_on_c, 4, 72, 78
11, 239520, Note_on_c, 4, 72, 0
11, 239520, Note_on_c, 4, 75, 0
11, 239520, Note_on_c, 4, 70, 78
11, 239520, Note_on_c, 4, 74, 78
11, 239616, Note_on_c, 4, 74, 0
11, 239616, Note_on_c, 4, 70, 0
11, 239616, Note_on_c, 4, 68, 78
11, 239616, Note_on_c, 4, 72, 78
11, 239808, Note_on_c, 4, 72, 0
11, 239808, Note_on_c, 4, 68, 0
11, 239808, Note_on_c, 4, 82, 78
11, 239808, Note_on_c, 4, 76, 78
11, 240000, Note_on_c, 4, 76, 0
11, 240000, Note_on_c, 4, 82, 0
11, 240000, Note_on_c, 4, 80, 78
11, 240000, Note_on_c, 4, 77, 78
11, 240192, Note_on_c, 4, 77, 0
11, 240192, Note_on_c, 4, 80, 0
11, 240192, Note_on_c, 4, 79, 78
11, 240192, Note_on_c, 4, 72, 78
11, 240384, Note_on_c, 4, 72, 0
11, 240384, Note_on_c, 4, 79, 0
11, 240384, Note_on_c, 4, 75, 78
11, 240384, Note_on_c, 4, 78, 78
11, 240576, Note_on_c, 4, 78, 0
11, 240576, Note_on_c, 4, 75, 0
11, 240576, Note_on_c, 4, 79, 78
11, 240576, Note_on_c, 4, 75, 78
11, 240768, Note_on_c, 4, 75, 0
11, 240768, Note_on_c, 4, 79, 0
11, 240768, Note_on_c, 4, 75, 78
11, 240768, Note_on_c, 4, 80, 78
11, 240960, Note_on_c, 4, 80, 0
11, 240960, Note_on_c, 4, 75, 0
11, 240960, Note_on_c, 4, 75, 78
11, 240960, Note_on_c, 4, 82, 78
11, 241152, Note_on_c, 4, 82, 0
11, 241152, Note_on_c, 4, 75, 0
11, 241152, Note_on_c, 4, 80, 78
11, 241152, Note_on_c, 4, 84, 78
11, 241344, Note_on_c, 4, 84, 0
11, 241344, Note_on_c, 4, 80, 0
11, 241344, Note_on_c, 4, 85, 78
11, 241344, Note_on_c, 4, 80, 78
11, 241536, Note_on_c, 4, 80, 0
11, 241536, Note_on_c, 4, 85, 0
11, 241536, Note_on_c, 4, 82, 78
11, 241536, Note_on_c, 4, 86, 78
11, 241728, Note_on_c, 4, 86, 0
11, 241728, Note_on_c, 4, 82, 0
11, 241728, Note_on_c, 4, 80, 78
11, 241728, Note_on_c, 4, 85, 78
11, 241920, Note_on_c, 4, 85, 0
11, 241920, Note_on_c, 4, 80, 0
11, 241920, Note_on_c, 4, 77, 78
11, 241920, Note_on_c, 4, 80, 78
11, 242112, Note_on_c, 4, 80, 0
11, 242112, Note_on_c, 4, 77, 0
11, 242112, Note_on_c, 4, 77, 78
11, 242112, Note_on_c, 4, 75, 78
11, 242304, Note_on_c, 4, 75, 0
11, 242304, Note_on_c, 4, 77, 0
11, 242304, Note_on_c, 4, 82, 83
11, 242304, Note_on_c, 4, 74, 78
11, 242400, Note_on_c, 4, 74, 0
11, 242400, Note_on_c, 4, 82, 0
11, 242400, Note_on_c, 4, 80, 78
11, 242400, Note_on_c, 4, 68, 78
11, 242496, Note_on_c, 4, 68, 0
11, 242496, Note_on_c, 4, 80, 0
11, 242496, Note_on_c, 4, 79, 78
11, 242496, Note_on_c, 4, 67, 78
11, 242592, Note_on_c, 4, 67, 0
11, 242592, Note_on_c, 4, 79, 0
11, 242592, Note_on_c, 4, 77, 78
11, 242592, Note_on_c, 4, 65, 78
11, 242688, Note_on_c, 4, 65, 0
11, 242688, Note_on_c, 4, 77, 0
11, 242688, Note_on_c, 4, 67, 78
11, 242688, Note_on_c, 4, 79, 78
11, 242784, Note_on_c, 4, 79, 0
11, 242784, Note_on_c, 4, 67, 0
11, 242784, Note_on_c, 4, 65, 78
11, 242784, Note_on_c, 4, 77, 78
11, 242880, Note_on_c, 4, 77, 0
11, 242880, Note_on_c, 4, 65, 0
11, 242880, Note_on_c, 4, 63, 78
11, 242880, Note_on_c, 4, 75, 78
11, 242976, Note_on_c, 4, 75, 0
11, 242976, Note_on_c, 4, 63, 0
11, 242976, Note_on_c, 4, 62, 78
11, 242976, Note_on_c, 4, 74, 78
11, 243072, Note_on_c, 4, 74, 0
11, 243072, Note_on_c, 4, 62, 0
11, 243072, Note_on_c, 4, 77, 78
11, 243072, Note_on_c, 4, 65, 78
11, 243168, Note_on_c, 4, 65, 0
11, 243168, Note_on_c, 4, 77, 0
11, 243168, Note_on_c, 4, 63, 78
11, 243168, Note_on_c, 4, 75, 78
11, 243264, Note_on_c, 4, 75, 0
11, 243264, Note_on_c, 4, 63, 0
11, 243264, Note_on_c, 4, 62, 78
11, 243264, Note_on_c, 4, 74, 78
11, 243360, Note_on_c, 4, 74, 0
11, 243360, Note_on_c, 4, 62, 0
11, 243360, Note_on_c, 4, 60, 78
11, 243360, Note_on_c, 4, 72, 78
11, 243456, Note_on_c, 4, 72, 0
11, 243456, Note_on_c, 4, 60, 0
11, 243456, Note_on_c, 4, 63, 78
11, 243552, Note_on_c, 4, 63, 0
11, 243552, Note_on_c, 4, 62, 78
11, 243648, Note_on_c, 4, 62, 0
11, 243648, Note_on_c, 4, 60, 71
11, 243744, Note_on_c, 4, 60, 0
11, 243744, Note_on_c, 4, 58, 78
11, 243840, Note_on_c, 4, 58, 0
11, 243840, Note_on_c, 4, 67, 78
11, 243936, Note_on_c, 4, 67, 0
11, 243936, Note_on_c, 4, 65, 78
11, 244032, Note_on_c, 4, 65, 0
11, 244032, Note_on_c, 4, 63, 78
11, 244128, Note_on_c, 4, 63, 0
11, 244128, Note_on_c, 4, 62, 78
11, 244224, Note_on_c, 4, 62, 0
11, 244224, Note_on_c, 4, 65, 78
11, 244320, Note_on_c, 4, 65, 0
11, 244320, Note_on_c, 4, 63, 78
11, 244416, Note_on_c, 4, 63, 0
11, 244416, Note_on_c, 4, 62, 78
11, 244512, Note_on_c, 4, 62, 0
11, 244512, Note_on_c, 4, 60, 78
11, 244608, Note_on_c, 4, 60, 0
11, 244608, Note_on_c, 4, 63, 78
11, 244704, Note_on_c, 4, 63, 0
11, 244704, Note_on_c, 4, 62, 78
11, 244800, Note_on_c, 4, 62, 0
11, 244800, Note_on_c, 4, 60, 78
11, 244896, Note_on_c, 4, 60, 0
11, 244896, Note_on_c, 4, 58, 78
11, 244992, Note_on_c, 4, 58, 0
11, 244992, Note_on_c, 4, 62, 78
11, 245088, Note_on_c, 4, 62, 0
11, 245088, Note_on_c, 4, 60, 78
11, 245184, Note_on_c, 4, 60, 0
11, 245184, Note_on_c, 4, 58, 78
11, 245280, Note_on_c, 4, 58, 0
11, 245280, Note_on_c, 4, 56, 78
11, 245376, Note_on_c, 4, 56, 0
11, 245376, Note_on_c, 4, 65, 78
11, 245472, Note_on_c, 4, 65, 0
11, 245472, Note_on_c, 4, 63, 78
11, 245568, Note_on_c, 4, 63, 0
11, 245568, Note_on_c, 4, 62, 78
11, 245664, Note_on_c, 4, 62, 0
11, 245664, Note_on_c, 4, 60, 78
11, 245760, Note_on_c, 4, 60, 0
11, 245760, Note_on_c, 4, 63, 78
11, 245856, Note_on_c, 4, 63, 0
11, 245856, Note_on_c, 4, 62, 78
11, 245952, Note_on_c, 4, 62, 0
11, 245952, Note_on_c, 4, 60, 78
11, 246048, Note_on_c, 4, 60, 0
11, 246048, Note_on_c, 4, 58, 78
11, 246144, Note_on_c, 4, 58, 0
11, 246144, Note_on_c, 4, 63, 78
11, 246240, Note_on_c, 4, 63, 0
11, 246240, Note_on_c, 4, 62, 78
11, 246336, Note_on_c, 4, 62, 0
11, 246336, Note_on_c, 4, 60, 78
11, 246432, Note_on_c, 4, 60, 0
11, 246432, Note_on_c, 4, 58, 78
11, 246528, Note_on_c, 4, 58, 0
11, 246528, Note_on_c, 4, 62, 78
11, 246624, Note_on_c, 4, 62, 0
11, 246624, Note_on_c, 4, 60, 78
11, 246720, Note_on_c, 4, 60, 0
11, 246720, Note_on_c, 4, 58, 78
11, 246816, Note_on_c, 4, 58, 0
11, 246816, Note_on_c, 4, 56, 78
11, 246912, Note_on_c, 4, 56, 0
11, 246912, Note_on_c, 4, 62, 78
11, 247008, Note_on_c, 4, 62, 0
11, 247008, Note_on_c, 4, 60, 78
11, 247104, Note_on_c, 4, 60, 0
11, 247104, Note_on_c, 4, 58, 78
11, 247200, Note_on_c, 4, 58, 0
11, 247200, Note_on_c, 4, 56, 78
11, 247296, Note_on_c, 4, 56, 0
11, 247296, Note_on_c, 4, 60, 78
11, 247392, Note_on_c, 4, 60, 0
11, 247392, Note_on_c, 4, 58, 78
11, 247488, Note_on_c, 4, 58, 0
11, 247488, Note_on_c, 4, 56, 78
11, 247584, Note_on_c, 4, 56, 0
11, 247584, Note_on_c, 4, 55, 78
11, 247680, Note_on_c, 4, 55, 0
11, 247680, Note_on_c, 4, 60, 78
11, 247776, Note_on_c, 4, 60, 0
11, 247776, Note_on_c, 4, 58, 78
11, 247872, Note_on_c, 4, 58, 0
11, 247872, Note_on_c, 4, 56, 78
11, 247968, Note_on_c, 4, 56, 0
11, 247968, Note_on_c, 4, 55, 78
11, 248064, Note_on_c, 4, 55, 0
11, 248064, Note_on_c, 4, 58, 78
11, 248160, Note_on_c, 4, 58, 0
11, 248160, Note_on_c, 4, 56, 78
11, 248256, Note_on_c, 4, 56, 0
11, 248256, Note_on_c, 4, 55, 78
11, 248352, Note_on_c, 4, 55, 0
11, 248352, Note_on_c, 4, 53, 78
11, 248448, Note_on_c, 4, 53, 0
11, 248448, Note_on_c, 4, 58, 78
11, 248544, Note_on_c, 4, 58, 0
11, 248544, Note_on_c, 4, 56, 78
11, 248640, Note_on_c, 4, 56, 0
11, 248640, Note_on_c, 4, 55, 78
11, 248736, Note_on_c, 4, 55, 0
11, 248736, Note_on_c, 4, 53, 78
11, 248832, Note_on_c, 4, 53, 0
11, 248832, Note_on_c, 4, 56, 78
11, 248928, Note_on_c, 4, 56, 0
11, 248928, Note_on_c, 4, 55, 78
11, 249024, Note_on_c, 4, 55, 0
11, 249024, Note_on_c, 4, 53, 78
11, 249120, Note_on_c, 4, 53, 0
11, 249120, Note_on_c, 4, 51, 78
11, 249216, Note_on_c, 4, 51, 0
11, 249216, Note_on_c, 4, 56, 78
11, 249312, Note_on_c, 4, 56, 0
11, 249312, Note_on_c, 4, 55, 78
11, 249408, Note_on_c, 4, 55, 0
11, 249408, Note_on_c, 4, 53, 78
11, 249504, Note_on_c, 4, 53, 0
11, 249504, Note_on_c, 4, 51, 78
11, 249600, Note_on_c, 4, 51, 0
11, 249600, Note_on_c, 4, 55, 78
11, 249696, Note_on_c, 4, 55, 0
11, 249696, Note_on_c, 4, 53, 78
11, 249792, Note_on_c, 4, 53, 0
11, 249792, Note_on_c, 4, 51, 78
11, 249888, Note_on_c, 4, 51, 0
11, 249888, Note_on_c, 4, 50, 78
11, 249984, Note_on_c, 4, 50, 0
11, 249984, Note_on_c, 4, 55, 78
11, 250080, Note_on_c, 4, 55, 0
11, 250080, Note_on_c, 4, 53, 78
11, 250176, Note_on_c, 4, 53, 0
11, 250176, Note_on_c, 4, 51, 78
11, 250272, Note_on_c, 4, 51, 0
11, 250272, Note_on_c, 4, 50, 78
11, 250368, Note_on_c, 4, 50, 0
11, 250368, Note_on_c, 4, 65, 78
11, 250464, Note_on_c, 4, 65, 0
11, 250464, Note_on_c, 4, 63, 78
11, 250560, Note_on_c, 4, 63, 0
11, 250560, Note_on_c, 4, 62, 78
11, 250656, Note_on_c, 4, 62, 0
11, 250656, Note_on_c, 4, 60, 78
11, 250752, Note_on_c, 4, 60, 0
11, 250752, Note_on_c, 4, 65, 78
11, 250848, Note_on_c, 4, 65, 0
11, 250848, Note_on_c, 4, 63, 78
11, 250944, Note_on_c, 4, 63, 0
11, 250944, Note_on_c, 4, 62, 78
11, 251040, Note_on_c, 4, 62, 0
11, 251040, Note_on_c, 4, 60, 78
11, 251136, Note_on_c, 4, 60, 0
11, 251136, Note_on_c, 4, 63, 78
11, 251232, Note_on_c, 4, 63, 0
11, 251232, Note_on_c, 4, 62, 78
11, 251328, Note_on_c, 4, 62, 0
11, 251328, Note_on_c, 4, 60, 78
11, 251424, Note_on_c, 4, 60, 0
11, 251424, Note_on_c, 4, 58, 78
11, 251520, Note_on_c, 4, 58, 0
11, 251520, Note_on_c, 4, 63, 78
11, 251616, Note_on_c, 4, 63, 0
11, 251616, Note_on_c, 4, 62, 78
11, 251712, Note_on_c, 4, 62, 0
11, 251712, Note_on_c, 4, 60, 78
11, 251808, Note_on_c, 4, 60, 0
11, 251808, Note_on_c, 4, 58, 78
11, 251904, Note_on_c, 4, 58, 0
11, 251904, Note_on_c, 4, 63, 78
11, 252000, Note_on_c, 4, 63, 0
11, 252000, Note_on_c, 4, 62, 78
11, 252096, Note_on_c, 4, 62, 0
11, 252096, Note_on_c, 4, 60, 78
11, 252192, Note_on_c, 4, 60, 0
11, 252192, Note_on_c, 4, 58, 78
11, 252288, Note_on_c, 4, 58, 0
11, 252288, Note_on_c, 4, 62, 78
11, 252384, Note_on_c, 4, 62, 0
11, 252384, Note_on_c, 4, 60, 78
11, 252480, Note_on_c, 4, 60, 0
11, 252480, Note_on_c, 4, 58, 78
11, 252576, Note_on_c, 4, 58, 0
11, 252576, Note_on_c, 4, 56, 78
11, 252672, Note_on_c, 4, 56, 0
11, 252672, Note_on_c, 4, 62, 78
11, 252768, Note_on_c, 4, 62, 0
11, 252768, Note_on_c, 4, 60, 78
11, 252864, Note_on_c, 4, 60, 0
11, 252864, Note_on_c, 4, 58, 78
11, 252960, Note_on_c, 4, 58, 0
11, 252960, Note_on_c, 4, 56, 78
11, 253056, Note_on_c, 4, 56, 0
11, 253056, Note_on_c, 4, 62, 78
11, 253152, Note_on_c, 4, 62, 0
11, 253152, Note_on_c, 4, 60, 78
11, 253248, Note_on_c, 4, 60, 0
11, 253248, Note_on_c, 4, 58, 78
11, 253344, Note_on_c, 4, 58, 0
11, 253344, Note_on_c, 4, 56, 78
11, 253440, Note_on_c, 4, 56, 0
11, 253440, Note_on_c, 4, 60, 78
11, 253536, Note_on_c, 4, 60, 0
11, 253536, Note_on_c, 4, 58, 78
11, 253632, Note_on_c, 4, 58, 0
11, 253632, Note_on_c, 4, 56, 78
11, 253728, Note_on_c, 4, 56, 0
11, 253728, Note_on_c, 4, 55, 78
11, 253824, Note_on_c, 4, 55, 0
11, 253824, Note_on_c, 4, 60, 78
11, 253920, Note_on_c, 4, 60, 0
11, 253920, Note_on_c, 4, 58, 78
11, 254016, Note_on_c, 4, 58, 0
11, 254016, Note_on_c, 4, 56, 78
11, 254112, Note_on_c, 4, 56, 0
11, 254112, Note_on_c, 4, 55, 78
11, 254208, Note_on_c, 4, 55, 0
11, 254208, Note_on_c, 4, 60, 78
11, 254304, Note_on_c, 4, 60, 0
11, 254304, Note_on_c, 4, 58, 78
11, 254400, Note_on_c, 4, 58, 0
11, 254400, Note_on_c, 4, 56, 78
11, 254496, Note_on_c, 4, 56, 0
11, 254496, Note_on_c, 4, 55, 78
11, 254592, Note_on_c, 4, 55, 0
11, 254592, Note_on_c, 4, 58, 78
11, 254688, Note_on_c, 4, 58, 0
11, 254688, Note_on_c, 4, 56, 78
11, 254784, Note_on_c, 4, 56, 0
11, 254784, Note_on_c, 4, 55, 78
11, 254880, Note_on_c, 4, 55, 0
11, 254880, Note_on_c, 4, 53, 78
11, 254976, Note_on_c, 4, 53, 0
11, 254976, Note_on_c, 4, 58, 78
11, 255072, Note_on_c, 4, 58, 0
11, 255072, Note_on_c, 4, 56, 78
11, 255168, Note_on_c, 4, 56, 0
11, 255168, Note_on_c, 4, 55, 78
11, 255264, Note_on_c, 4, 55, 0
11, 255264, Note_on_c, 4, 53, 78
11, 255360, Note_on_c, 4, 53, 0
11, 255360, Note_on_c, 4, 58, 78
11, 255456, Note_on_c, 4, 58, 0
11, 255456, Note_on_c, 4, 56, 78
11, 255552, Note_on_c, 4, 56, 0
11, 255552, Note_on_c, 4, 55, 78
11, 255648, Note_on_c, 4, 55, 0
11, 255648, Note_on_c, 4, 53, 78
11, 255744, Note_on_c, 4, 53, 0
11, 255744, Note_on_c, 4, 56, 78
11, 255821, Note_on_c, 4, 56, 0
11, 255840, Note_on_c, 4, 55, 78
11, 255917, Note_on_c, 4, 55, 0
11, 255936, Note_on_c, 4, 53, 78
11, 256013, Note_on_c, 4, 53, 0
11, 256032, Note_on_c, 4, 51, 78
11, 256109, Note_on_c, 4, 51, 0
11, 256128, Note_on_c, 4, 56, 78
11, 256205, Note_on_c, 4, 56, 0
11, 256224, Note_on_c, 4, 55, 78
11, 256301, Note_on_c, 4, 55, 0
11, 256320, Note_on_c, 4, 53, 78
11, 256397, Note_on_c, 4, 53, 0
11, 256416, Note_on_c, 4, 51, 78
11, 256493, Note_on_c, 4, 51, 0
11, 256512, Note_on_c, 4, 56, 78
11, 256589, Note_on_c, 4, 56, 0
11, 256608, Note_on_c, 4, 55, 78
11, 256685, Note_on_c, 4, 55, 0
11, 256704, Note_on_c, 4, 53, 78
11, 256781, Note_on_c, 4, 53, 0
11, 256800, Note_on_c, 4, 51, 78
11, 256877, Note_on_c, 4, 51, 0
11, 256896, Note_on_c, 4, 67, 78
11, 256973, Note_on_c, 4, 67, 0
11, 256992, Note_on_c, 4, 65, 78
11, 257069, Note_on_c, 4, 65, 0
11, 257088, Note_on_c, 4, 63, 78
11, 257165, Note_on_c, 4, 63, 0
11, 257184, Note_on_c, 4, 62, 78
11, 257261, Note_on_c, 4, 62, 0
11, 257280, Note_on_c, 4, 67, 78
11, 257357, Note_on_c, 4, 67, 0
11, 257376, Note_on_c, 4, 65, 78
11, 257453, Note_on_c, 4, 65, 0
11, 257472, Note_on_c, 4, 63, 78
11, 257549, Note_on_c, 4, 63, 0
11, 257568, Note_on_c, 4, 62, 78
11, 257645, Note_on_c, 4, 62, 0
11, 257664, Note_on_c, 4, 67, 78
11, 257741, Note_on_c, 4, 67, 0
11, 257760, Note_on_c, 4, 65, 78
11, 257837, Note_on_c, 4, 65, 0
11, 257837, End_track
12, 0, Start_track
12, 0, MIDI_port, 0
12, 0, Title_t, "English Horn"
12, 0, Program_c, 5, 69
12, 0, Control_c, 5, 7, 84
12, 0, Control_c, 5, 10, 102
12, 12768, Note_on_c, 5, 67, 71
12, 12864, Note_on_c, 5, 67, 0
12, 12864, Note_on_c, 5, 67, 71
12, 13056, Note_on_c, 5, 67, 0
12, 13056, Note_on_c, 5, 67, 71
12, 13152, Note_on_c, 5, 67, 0
12, 13152, Note_on_c, 5, 67, 71
12, 13248, Note_on_c, 5, 67, 0
12, 13248, Note_on_c, 5, 70, 71
12, 13632, Note_on_c, 5, 70, 0
12, 13632, Note_on_c, 5, 70, 71
12, 13824, Note_on_c, 5, 70, 0
12, 13824, Note_on_c, 5, 68, 71
12, 14592, Note_on_c, 5, 68, 0
12, 15648, Note_on_c, 5, 67, 78
12, 15744, Note_on_c, 5, 67, 0
12, 15744, Note_on_c, 5, 67, 78
12, 15936, Note_on_c, 5, 67, 0
12, 15936, Note_on_c, 5, 67, 78
12, 16128, Note_on_c, 5, 67, 0
12, 16128, Note_on_c, 5, 68, 78
12, 16416, Note_on_c, 5, 68, 0
12, 16800, Note_on_c, 5, 70, 78
12, 16896, Note_on_c, 5, 70, 0
12, 16896, Note_on_c, 5, 70, 78
12, 17088, Note_on_c, 5, 70, 0
12, 17088, Note_on_c, 5, 70, 78
12, 17280, Note_on_c, 5, 70, 0
12, 17280, Note_on_c, 5, 72, 78
12, 17568, Note_on_c, 5, 72, 0
12, 18048, Note_on_c, 5, 73, 78
12, 18432, Note_on_c, 5, 73, 0
12, 18432, Note_on_c, 5, 73, 78
12, 18816, Note_on_c, 5, 73, 0
12, 18816, Note_on_c, 5, 73, 78
12, 19008, Note_on_c, 5, 73, 0
12, 19200, Note_on_c, 5, 80, 78
12, 19392, Note_on_c, 5, 80, 0
12, 19392, Note_on_c, 5, 79, 78
12, 19776, Note_on_c, 5, 79, 0
12, 19776, Note_on_c, 5, 79, 78
12, 19968, Note_on_c, 5, 79, 0
12, 19968, Note_on_c, 5, 79, 78
12, 20160, Note_on_c, 5, 79, 0
12, 20160, Note_on_c, 5, 79, 78
12, 20256, Note_on_c, 5, 79, 0
12, 27168, Note_on_c, 5, 65, 78
12, 27264, Note_on_c, 5, 65, 0
12, 27264, Note_on_c, 5, 64, 78
12, 27360, Note_on_c, 5, 64, 0
12, 27360, Note_on_c, 5, 65, 78
12, 27456, Note_on_c, 5, 65, 0
12, 27456, Note_on_c, 5, 66, 78
12, 27552, Note_on_c, 5, 66, 0
12, 27552, Note_on_c, 5, 68, 78
12, 27648, Note_on_c, 5, 68, 0
12, 27648, Note_on_c, 5, 70, 78
12, 27744, Note_on_c, 5, 70, 0
12, 27744, Note_on_c, 5, 68, 78
12, 27840, Note_on_c, 5, 68, 0
12, 27840, Note_on_c, 5, 66, 78
12, 27936, Note_on_c, 5, 66, 0
12, 27936, Note_on_c, 5, 65, 78
12, 28032, Note_on_c, 5, 65, 0
12, 28032, Note_on_c, 5, 64, 78
12, 28128, Note_on_c, 5, 64, 0
12, 28128, Note_on_c, 5, 65, 78
12, 28224, Note_on_c, 5, 65, 0
12, 28224, Note_on_c, 5, 66, 78
12, 28320, Note_on_c, 5, 66, 0
12, 29472, Note_on_c, 5, 78, 78
12, 29568, Note_on_c, 5, 78, 0
12, 29568, Note_on_c, 5, 77, 78
12, 29664, Note_on_c, 5, 77, 0
12, 29664, Note_on_c, 5, 78, 78
12, 29760, Note_on_c, 5, 78, 0
12, 29760, Note_on_c, 5, 80, 78
12, 29856, Note_on_c, 5, 80, 0
12, 29856, Note_on_c, 5, 82, 78
12, 29952, Note_on_c, 5, 82, 0
12, 29952, Note_on_c, 5, 83, 78
12, 30048, Note_on_c, 5, 83, 0
12, 30048, Note_on_c, 5, 81, 78
12, 30144, Note_on_c, 5, 81, 0
12, 30144, Note_on_c, 5, 80, 78
12, 30240, Note_on_c, 5, 80, 0
12, 30240, Note_on_c, 5, 78, 78
12, 30336, Note_on_c, 5, 78, 0
12, 30336, Note_on_c, 5, 77, 78
12, 30432, Note_on_c, 5, 77, 0
12, 30432, Note_on_c, 5, 78, 78
12, 30528, Note_on_c, 5, 78, 0
12, 30528, Note_on_c, 5, 80, 78
12, 30576, Note_on_c, 5, 80, 0
12, 30576, Note_on_c, 5, 72, 78
12, 30624, Note_on_c, 5, 72, 0
12, 30624, Note_on_c, 5, 72, 78
12, 30672, Note_on_c, 5, 72, 0
12, 30672, Note_on_c, 5, 72, 78
12, 30720, Note_on_c, 5, 72, 0
12, 30720, Note_on_c, 5, 72, 78
12, 31104, Note_on_c, 5, 72, 0
12, 31104, Note_on_c, 5, 73, 78
12, 31200, Note_on_c, 5, 73, 0
12, 31488, Note_on_c, 5, 71, 78
12, 31632, Note_on_c, 5, 71, 0
12, 31632, Note_on_c, 5, 69, 78
12, 31680, Note_on_c, 5, 69, 0
12, 31680, Note_on_c, 5, 74, 78
12, 31776, Note_on_c, 5, 74, 0
12, 32064, Note_on_c, 5, 72, 78
12, 32208, Note_on_c, 5, 72, 0
12, 32208, Note_on_c, 5, 71, 78
12, 32256, Note_on_c, 5, 71, 0
12, 32256, Note_on_c, 5, 71, 78
12, 32352, Note_on_c, 5, 71, 0
12, 32448, Note_on_c, 5, 74, 78
12, 32592, Note_on_c, 5, 74, 0
12, 32592, Note_on_c, 5, 73, 78
12, 32640, Note_on_c, 5, 73, 0
12, 32640, Note_on_c, 5, 73, 78
12, 32736, Note_on_c, 5, 73, 0
12, 32832, Note_on_c, 5, 76, 78
12, 32880, Note_on_c, 5, 76, 0
12, 32880, Note_on_c, 5, 75, 78
12, 32928, Note_on_c, 5, 75, 0
12, 32928, Note_on_c, 5, 71, 78
12, 32976, Note_on_c, 5, 71, 0
12, 32976, Note_on_c, 5, 68, 78
12, 33024, Note_on_c, 5, 68, 0
12, 33024, Note_on_c, 5, 76, 78
12, 33072, Note_on_c, 5, 76, 0
12, 33072, Note_on_c, 5, 75, 78
12, 33120, Note_on_c, 5, 75, 0
12, 33120, Note_on_c, 5, 71, 78
12, 33168, Note_on_c, 5, 71, 0
12, 33168, Note_on_c, 5, 68, 78
12, 33216, Note_on_c, 5, 68, 0
12, 33216, Note_on_c, 5, 76, 78
12, 33264, Note_on_c, 5, 76, 0
12, 33264, Note_on_c, 5, 75, 78
12, 33312, Note_on_c, 5, 75, 0
12, 33312, Note_on_c, 5, 71, 78
12, 33360, Note_on_c, 5, 71, 0
12, 33360, Note_on_c, 5, 68, 78
12, 33408, Note_on_c, 5, 68, 0
12, 33408, Note_on_c, 5, 64, 78
12, 33456, Note_on_c, 5, 64, 0
12, 33456, Note_on_c, 5, 63, 78
12, 33504, Note_on_c, 5, 63, 0
12, 34176, Note_on_c, 5, 76, 78
12, 34464, Note_on_c, 5, 76, 0
12, 34464, Note_on_c, 5, 75, 78
12, 34560, Note_on_c, 5, 75, 0
12, 34560, Note_on_c, 5, 71, 78
12, 34656, Note_on_c, 5, 71, 0
12, 34656, Note_on_c, 5, 70, 78
12, 34752, Note_on_c, 5, 70, 0
12, 34752, Note_on_c, 5, 68, 78
12, 34848, Note_on_c, 5, 68, 0
12, 34848, Note_on_c, 5, 67, 78
12, 34944, Note_on_c, 5, 67, 0
12, 34944, Note_on_c, 5, 68, 78
12, 35040, Note_on_c, 5, 68, 0
12, 35040, Note_on_c, 5, 71, 78
12, 35136, Note_on_c, 5, 71, 0
12, 35136, Note_on_c, 5, 75, 78
12, 35280, Note_on_c, 5, 75, 0
12, 35280, Note_on_c, 5, 80, 78
12, 35328, Note_on_c, 5, 80, 0
12, 35328, Note_on_c, 5, 83, 78
12, 35424, Note_on_c, 5, 83, 0
12, 35424, Note_on_c, 5, 72, 78
12, 35520, Note_on_c, 5, 72, 0
12, 35520, Note_on_c, 5, 73, 78
12, 35616, Note_on_c, 5, 73, 0
12, 35616, Note_on_c, 5, 75, 78
12, 35712, Note_on_c, 5, 75, 0
12, 35712, Note_on_c, 5, 76, 78
12, 35808, Note_on_c, 5, 76, 0
12, 36480, Note_on_c, 5, 69, 78
12, 36768, Note_on_c, 5, 69, 0
12, 36768, Note_on_c, 5, 68, 78
12, 36864, Note_on_c, 5, 68, 0
12, 36864, Note_on_c, 5, 64, 78
12, 36960, Note_on_c, 5, 64, 0
12, 36960, Note_on_c, 5, 63, 78
12, 37056, Note_on_c, 5, 63, 0
12, 37056, Note_on_c, 5, 61, 78
12, 37152, Note_on_c, 5, 61, 0
12, 37152, Note_on_c, 5, 60, 78
12, 37248, Note_on_c, 5, 60, 0
12, 37248, Note_on_c, 5, 61, 78
12, 37344, Note_on_c, 5, 61, 0
12, 37344, Note_on_c, 5, 64, 78
12, 37440, Note_on_c, 5, 64, 0
12, 37440, Note_on_c, 5, 68, 78
12, 37584, Note_on_c, 5, 68, 0
12, 37584, Note_on_c, 5, 73, 78
12, 37632, Note_on_c, 5, 73, 0
12, 37632, Note_on_c, 5, 76, 78
12, 37728, Note_on_c, 5, 76, 0
12, 37728, Note_on_c, 5, 77, 78
12, 37824, Note_on_c, 5, 77, 0
12, 37824, Note_on_c, 5, 78, 78
12, 37920, Note_on_c, 5, 78, 0
12, 37920, Note_on_c, 5, 80, 78
12, 38016, Note_on_c, 5, 80, 0
12, 38016, Note_on_c, 5, 81, 78
12, 38112, Note_on_c, 5, 81, 0
12, 38208, Note_on_c, 5, 73, 78
12, 38400, Note_on_c, 5, 73, 0
12, 38400, Note_on_c, 5, 74, 78
12, 38592, Note_on_c, 5, 74, 0
12, 38592, Note_on_c, 5, 75, 78
12, 38784, Note_on_c, 5, 75, 0
12, 38784, Note_on_c, 5, 76, 78
12, 38976, Note_on_c, 5, 76, 0
12, 38976, Note_on_c, 5, 77, 78
12, 39168, Note_on_c, 5, 77, 0
12, 39168, Note_on_c, 5, 78, 78
12, 39360, Note_on_c, 5, 78, 0
12, 39360, Note_on_c, 5, 79, 78
12, 39456, Note_on_c, 5, 79, 0
12, 39456, Note_on_c, 5, 67, 78
12, 39552, Note_on_c, 5, 67, 0
12, 39552, Note_on_c, 5, 70, 78
12, 39648, Note_on_c, 5, 70, 0
12, 39648, Note_on_c, 5, 73, 78
12, 39744, Note_on_c, 5, 73, 0
12, 39744, Note_on_c, 5, 76, 78
12, 39840, Note_on_c, 5, 76, 0
12, 39840, Note_on_c, 5, 67, 78
12, 39936, Note_on_c, 5, 67, 0
12, 39936, Note_on_c, 5, 70, 78
12, 40032, Note_on_c, 5, 70, 0
12, 40032, Note_on_c, 5, 73, 78
12, 40128, Note_on_c, 5, 73, 0
12, 40128, Note_on_c, 5, 76, 78
12, 40224, Note_on_c, 5, 76, 0
12, 40224, Note_on_c, 5, 76, 78
12, 40320, Note_on_c, 5, 76, 0
12, 40320, Note_on_c, 5, 75, 78
12, 40512, Note_on_c, 5, 75, 0
12, 40512, Note_on_c, 5, 77, 78
12, 40704, Note_on_c, 5, 77, 0
12, 66912, Note_on_c, 5, 65, 78
12, 67008, Note_on_c, 5, 65, 0
12, 67008, Note_on_c, 5, 63, 78
12, 67104, Note_on_c, 5, 63, 0
12, 67296, Note_on_c, 5, 65, 78
12, 67392, Note_on_c, 5, 65, 0
12, 67392, Note_on_c, 5, 65, 78
12, 67488, Note_on_c, 5, 65, 0
12, 67680, Note_on_c, 5, 66, 78
12, 67776, Note_on_c, 5, 66, 0
12, 67776, Note_on_c, 5, 68, 78
12, 67872, Note_on_c, 5, 68, 0
12, 68064, Note_on_c, 5, 70, 78
12, 68160, Note_on_c, 5, 70, 0
12, 68160, Note_on_c, 5, 70, 78
12, 68256, Note_on_c, 5, 70, 0
12, 68448, Note_on_c, 5, 72, 78
12, 68544, Note_on_c, 5, 72, 0
12, 68640, Note_on_c, 5, 66, 78
12, 68736, Note_on_c, 5, 66, 0
12, 69216, Note_on_c, 5, 72, 78
12, 69312, Note_on_c, 5, 72, 0
12, 69408, Note_on_c, 5, 66, 78
12, 69504, Note_on_c, 5, 66, 0
12, 69792, Note_on_c, 5, 61, 78
12, 69888, Note_on_c, 5, 61, 0
12, 69984, Note_on_c, 5, 61, 78
12, 70080, Note_on_c, 5, 61, 0
12, 70080, Note_on_c, 5, 62, 78
12, 70176, Note_on_c, 5, 62, 0
12, 70176, Note_on_c, 5, 63, 78
12, 70272, Note_on_c, 5, 63, 0
12, 70368, Note_on_c, 5, 62, 78
12, 70464, Note_on_c, 5, 62, 0
12, 70464, Note_on_c, 5, 63, 78
12, 70560, Note_on_c, 5, 63, 0
12, 70560, Note_on_c, 5, 64, 78
12, 70656, Note_on_c, 5, 64, 0
12, 70752, Note_on_c, 5, 63, 78
12, 70848, Note_on_c, 5, 63, 0
12, 70848, Note_on_c, 5, 64, 78
12, 70944, Note_on_c, 5, 64, 0
12, 70944, Note_on_c, 5, 65, 78
12, 71040, Note_on_c, 5, 65, 0
12, 71136, Note_on_c, 5, 64, 78
12, 71232, Note_on_c, 5, 64, 0
12, 71232, Note_on_c, 5, 65, 78
12, 71328, Note_on_c, 5, 65, 0
12, 71328, Note_on_c, 5, 66, 78
12, 71424, Note_on_c, 5, 66, 0
12, 71520, Note_on_c, 5, 65, 78
12, 71616, Note_on_c, 5, 65, 0
12, 71616, Note_on_c, 5, 66, 78
12, 71712, Note_on_c, 5, 66, 0
12, 71712, Note_on_c, 5, 67, 78
12, 71808, Note_on_c, 5, 67, 0
12, 71808, Note_on_c, 5, 60, 78
12, 71904, Note_on_c, 5, 60, 0
12, 71904, Note_on_c, 5, 61, 78
12, 72000, Note_on_c, 5, 61, 0
12, 72288, Note_on_c, 5, 68, 78
12, 72384, Note_on_c, 5, 68, 0
12, 72384, Note_on_c, 5, 69, 78
12, 72480, Note_on_c, 5, 69, 0
12, 72480, Note_on_c, 5, 70, 78
12, 72576, Note_on_c, 5, 70, 0
12, 72576, Note_on_c, 5, 63, 78
12, 72672, Note_on_c, 5, 63, 0
12, 72672, Note_on_c, 5, 64, 78
12, 72768, Note_on_c, 5, 64, 0
12, 72864, Note_on_c, 5, 74, 78
12, 72960, Note_on_c, 5, 74, 0
12, 72960, Note_on_c, 5, 75, 78
12, 73056, Note_on_c, 5, 75, 0
12, 73056, Note_on_c, 5, 74, 78
12, 73152, Note_on_c, 5, 74, 0
12, 73248, Note_on_c, 5, 75, 78
12, 73344, Note_on_c, 5, 75, 0
12, 73344, Note_on_c, 5, 76, 78
12, 73440, Note_on_c, 5, 76, 0
12, 73440, Note_on_c, 5, 75, 78
12, 73536, Note_on_c, 5, 75, 0
12, 73632, Note_on_c, 5, 76, 78
12, 73728, Note_on_c, 5, 76, 0
12, 73728, Note_on_c, 5, 77, 78
12, 73824, Note_on_c, 5, 77, 0
12, 73824, Note_on_c, 5, 76, 78
12, 73920, Note_on_c, 5, 76, 0
12, 74016, Note_on_c, 5, 78, 78
12, 74112, Note_on_c, 5, 78, 0
12, 74112, Note_on_c, 5, 80, 78
12, 74208, Note_on_c, 5, 80, 0
12, 74208, Note_on_c, 5, 78, 78
12, 74400, Note_on_c, 5, 78, 0
12, 74400, Note_on_c, 5, 84, 78
12, 74496, Note_on_c, 5, 84, 0
12, 74496, Note_on_c, 5, 85, 78
12, 74592, Note_on_c, 5, 85, 0
12, 74688, Note_on_c, 5, 82, 78
12, 74880, Note_on_c, 5, 82, 0
12, 75648, Note_on_c, 5, 69, 78
12, 76032, Note_on_c, 5, 69, 0
12, 76032, Note_on_c, 5, 70, 78
12, 76128, Note_on_c, 5, 70, 0
12, 77760, Note_on_c, 5, 70, 78
12, 77808, Note_on_c, 5, 68, 78
12, 77837, Note_on_c, 5, 70, 0
12, 77856, Note_on_c, 5, 67, 78
12, 77885, Note_on_c, 5, 68, 0
12, 77904, Note_on_c, 5, 66, 78
12, 77933, Note_on_c, 5, 67, 0
12, 77952, Note_on_c, 5, 65, 78
12, 77981, Note_on_c, 5, 66, 0
12, 78106, Note_on_c, 5, 65, 0
12, 79152, Note_on_c, 5, 81, 78
12, 79200, Note_on_c, 5, 79, 78
12, 79229, Note_on_c, 5, 81, 0
12, 79248, Note_on_c, 5, 78, 78
12, 79277, Note_on_c, 5, 79, 0
12, 79296, Note_on_c, 5, 77, 78
12, 79325, Note_on_c, 5, 78, 0
12, 79344, Note_on_c, 5, 76, 78
12, 79373, Note_on_c, 5, 77, 0
12, 79392, Note_on_c, 5, 74, 78
12, 79421, Note_on_c, 5, 76, 0
12, 79440, Note_on_c, 5, 73, 78
12, 79469, Note_on_c, 5, 74, 0
12, 79488, Note_on_c, 5, 72, 78
12, 79517, Note_on_c, 5, 73, 0
12, 79642, Note_on_c, 5, 72, 0
12, 79920, Note_on_c, 5, 65, 78
12, 79968, Note_on_c, 5, 67, 78
12, 79997, Note_on_c, 5, 65, 0
12, 80016, Note_on_c, 5, 68, 78
12, 80045, Note_on_c, 5, 67, 0
12, 80064, Note_on_c, 5, 69, 78
12, 80093, Note_on_c, 5, 68, 0
12, 80112, Note_on_c, 5, 70, 78
12, 80141, Note_on_c, 5, 69, 0
12, 80160, Note_on_c, 5, 72, 78
12, 80189, Note_on_c, 5, 70, 0
12, 80208, Note_on_c, 5, 74, 78
12, 80237, Note_on_c, 5, 72, 0
12, 80256, Note_on_c, 5, 76, 78
12, 80285, Note_on_c, 5, 74, 0
12, 80410, Note_on_c, 5, 76, 0
12, 83760, Note_on_c, 5, 69, 78
12, 83808, Note_on_c, 5, 68, 78
12, 83837, Note_on_c, 5, 69, 0
12, 83856, Note_on_c, 5, 67, 78
12, 83885, Note_on_c, 5, 68, 0
12, 83904, Note_on_c, 5, 65, 78
12, 83933, Note_on_c, 5, 67, 0
12, 83952, Note_on_c, 5, 64, 78
12, 83981, Note_on_c, 5, 65, 0
12, 84000, Note_on_c, 5, 63, 78
12, 84029, Note_on_c, 5, 64, 0
12, 84048, Note_on_c, 5, 62, 78
12, 84077, Note_on_c, 5, 63, 0
12, 84096, Note_on_c, 5, 60, 78
12, 84125, Note_on_c, 5, 62, 0
12, 84250, Note_on_c, 5, 60, 0
12, 85296, Note_on_c, 5, 76, 78
12, 85344, Note_on_c, 5, 74, 78
12, 85373, Note_on_c, 5, 76, 0
12, 85392, Note_on_c, 5, 73, 78
12, 85421, Note_on_c, 5, 74, 0
12, 85440, Note_on_c, 5, 72, 78
12, 85469, Note_on_c, 5, 73, 0
12, 85488, Note_on_c, 5, 71, 78
12, 85517, Note_on_c, 5, 72, 0
12, 85536, Note_on_c, 5, 69, 78
12, 85565, Note_on_c, 5, 71, 0
12, 85584, Note_on_c, 5, 68, 78
12, 85613, Note_on_c, 5, 69, 0
12, 85632, Note_on_c, 5, 67, 78
12, 85661, Note_on_c, 5, 68, 0
12, 85786, Note_on_c, 5, 67, 0
12, 90720, Note_on_c, 5, 67, 78
12, 90912, Note_on_c, 5, 67, 0
12, 91104, Note_on_c, 5, 70, 78
12, 91296, Note_on_c, 5, 70, 0
12, 91584, Note_on_c, 5, 67, 78
12, 91680, Note_on_c, 5, 67, 0
12, 91968, Note_on_c, 5, 67, 78
12, 92064, Note_on_c, 5, 67, 0
12, 92160, Note_on_c, 5, 67, 78
12, 92256, Note_on_c, 5, 67, 0
12, 94560, Note_on_c, 5, 70, 78
12, 94656, Note_on_c, 5, 70, 0
12, 94656, Note_on_c, 5, 78, 78
12, 94752, Note_on_c, 5, 78, 0
12, 95136, Note_on_c, 5, 75, 78
12, 95232, Note_on_c, 5, 75, 0
12, 95328, Note_on_c, 5, 72, 78
12, 95424, Note_on_c, 5, 72, 0
12, 95520, Note_on_c, 5, 70, 78
12, 95616, Note_on_c, 5, 70, 0
12, 95616, Note_on_c, 5, 72, 78
12, 95712, Note_on_c, 5, 72, 0
12, 95712, Note_on_c, 5, 75, 78
12, 95808, Note_on_c, 5, 75, 0
12, 95808, Note_on_c, 5, 65, 78
12, 95856, Note_on_c, 5, 65, 0
12, 95856, Note_on_c, 5, 65, 78
12, 95904, Note_on_c, 5, 65, 0
12, 95904, Note_on_c, 5, 67, 78
12, 95952, Note_on_c, 5, 67, 0
12, 95952, Note_on_c, 5, 69, 78
12, 96000, Note_on_c, 5, 69, 0
12, 96000, Note_on_c, 5, 70, 78
12, 96240, Note_on_c, 5, 70, 0
12, 96240, Note_on_c, 5, 69, 78
12, 96288, Note_on_c, 5, 69, 0
12, 96288, Note_on_c, 5, 70, 78
12, 96336, Note_on_c, 5, 70, 0
12, 96336, Note_on_c, 5, 72, 78
12, 96384, Note_on_c, 5, 72, 0
12, 96384, Note_on_c, 5, 75, 78
12, 96432, Note_on_c, 5, 75, 0
12, 96432, Note_on_c, 5, 73, 78
12, 96480, Note_on_c, 5, 73, 0
12, 96624, Note_on_c, 5, 70, 78
12, 96672, Note_on_c, 5, 70, 0
12, 96672, Note_on_c, 5, 72, 78
12, 96720, Note_on_c, 5, 72, 0
12, 96720, Note_on_c, 5, 74, 78
12, 96768, Note_on_c, 5, 74, 0
12, 96768, Note_on_c, 5, 75, 78
12, 97008, Note_on_c, 5, 75, 0
12, 97008, Note_on_c, 5, 74, 78
12, 97056, Note_on_c, 5, 74, 0
12, 97056, Note_on_c, 5, 75, 78
12, 97104, Note_on_c, 5, 75, 0
12, 97104, Note_on_c, 5, 77, 78
12, 97152, Note_on_c, 5, 77, 0
12, 97152, Note_on_c, 5, 68, 78
12, 97200, Note_on_c, 5, 68, 0
12, 97200, Note_on_c, 5, 66, 78
12, 97248, Note_on_c, 5, 66, 0
12, 97392, Note_on_c, 5, 65, 78
12, 97440, Note_on_c, 5, 65, 0
12, 97440, Note_on_c, 5, 66, 78
12, 97488, Note_on_c, 5, 66, 0
12, 97488, Note_on_c, 5, 69, 78
12, 97536, Note_on_c, 5, 69, 0
12, 97536, Note_on_c, 5, 72, 78
12, 97584, Note_on_c, 5, 72, 0
12, 97584, Note_on_c, 5, 70, 78
12, 97632, Note_on_c, 5, 70, 0
12, 97776, Note_on_c, 5, 69, 78
12, 97824, Note_on_c, 5, 69, 0
12, 97824, Note_on_c, 5, 70, 78
12, 97872, Note_on_c, 5, 70, 0
12, 97872, Note_on_c, 5, 72, 78
12, 97920, Note_on_c, 5, 72, 0
12, 97920, Note_on_c, 5, 75, 78
12, 97968, Note_on_c, 5, 75, 0
12, 97968, Note_on_c, 5, 73, 78
12, 98016, Note_on_c, 5, 73, 0
12, 98160, Note_on_c, 5, 72, 78
12, 98208, Note_on_c, 5, 72, 0
12, 98208, Note_on_c, 5, 73, 78
12, 98256, Note_on_c, 5, 73, 0
12, 98256, Note_on_c, 5, 75, 78
12, 98304, Note_on_c, 5, 75, 0
12, 98304, Note_on_c, 5, 76, 78
12, 99168, Note_on_c, 5, 76, 0
12, 99168, Note_on_c, 5, 73, 78
12, 99264, Note_on_c, 5, 73, 0
12, 99264, Note_on_c, 5, 74, 78
12, 99360, Note_on_c, 5, 74, 0
12, 99360, Note_on_c, 5, 75, 78
12, 99456, Note_on_c, 5, 75, 0
12, 99456, Note_on_c, 5, 76, 78
12, 99552, Note_on_c, 5, 76, 0
12, 99552, Note_on_c, 5, 78, 78
12, 99648, Note_on_c, 5, 78, 0
12, 99648, Note_on_c, 5, 79, 78
12, 99744, Note_on_c, 5, 79, 0
12, 99744, Note_on_c, 5, 80, 78
12, 99840, Note_on_c, 5, 80, 0
12, 99840, Note_on_c, 5, 81, 78
12, 99936, Note_on_c, 5, 81, 0
12, 99936, Note_on_c, 5, 80, 78
12, 100032, Note_on_c, 5, 80, 0
12, 100032, Note_on_c, 5, 78, 78
12, 100128, Note_on_c, 5, 78, 0
12, 100128, Note_on_c, 5, 77, 78
12, 100224, Note_on_c, 5, 77, 0
12, 100224, Note_on_c, 5, 76, 78
12, 100320, Note_on_c, 5, 76, 0
12, 100320, Note_on_c, 5, 74, 78
12, 100416, Note_on_c, 5, 74, 0
12, 100416, Note_on_c, 5, 73, 78
12, 100512, Note_on_c, 5, 73, 0
12, 100512, Note_on_c, 5, 71, 78
12, 100608, Note_on_c, 5, 71, 0
12, 100608, Note_on_c, 5, 69, 78
12, 100704, Note_on_c, 5, 69, 0
12, 100704, Note_on_c, 5, 68, 78
12, 100800, Note_on_c, 5, 68, 0
12, 100800, Note_on_c, 5, 66, 78
12, 100896, Note_on_c, 5, 66, 0
12, 100896, Note_on_c, 5, 65, 78
12, 100992, Note_on_c, 5, 65, 0
12, 100992, Note_on_c, 5, 64, 78
12, 101088, Note_on_c, 5, 64, 0
12, 101376, Note_on_c, 5, 61, 78
12, 101568, Note_on_c, 5, 61, 0
12, 101568, Note_on_c, 5, 61, 78
12, 101760, Note_on_c, 5, 61, 0
12, 101760, Note_on_c, 5, 64, 78
12, 101952, Note_on_c, 5, 64, 0
12, 101952, Note_on_c, 5, 64, 78
12, 102144, Note_on_c, 5, 64, 0
12, 102144, Note_on_c, 5, 73, 78
12, 102432, Note_on_c, 5, 73, 0
12, 102432, Note_on_c, 5, 69, 78
12, 102528, Note_on_c, 5, 69, 0
12, 102528, Note_on_c, 5, 61, 78
12, 102624, Note_on_c, 5, 61, 0
12, 110784, Note_on_c, 5, 67, 78
12, 111360, Note_on_c, 5, 67, 0
12, 111360, Note_on_c, 5, 77, 73
12, 111744, Note_on_c, 5, 77, 0
12, 111744, Note_on_c, 5, 78, 73
12, 112128, Note_on_c, 5, 78, 0
12, 112128, Note_on_c, 5, 77, 73
12, 112512, Note_on_c, 5, 77, 0
12, 112512, Note_on_c, 5, 78, 73
12, 112896, Note_on_c, 5, 78, 0
12, 112896, Note_on_c, 5, 77, 73
12, 113280, Note_on_c, 5, 77, 0
12, 113280, Note_on_c, 5, 78, 73
12, 113664, Note_on_c, 5, 78, 0
12, 113664, Note_on_c, 5, 77, 73
12, 114048, Note_on_c, 5, 77, 0
12, 114048, Note_on_c, 5, 78, 73
12, 114432, Note_on_c, 5, 78, 0
12, 114432, Note_on_c, 5, 77, 73
12, 114816, Note_on_c, 5, 77, 0
12, 114816, Note_on_c, 5, 78, 73
12, 115200, Note_on_c, 5, 78, 0
12, 115200, Note_on_c, 5, 77, 73
12, 115584, Note_on_c, 5, 77, 0
12, 115584, Note_on_c, 5, 78, 73
12, 115968, Note_on_c, 5, 78, 0
12, 115968, Note_on_c, 5, 77, 73
12, 116352, Note_on_c, 5, 77, 0
12, 116352, Note_on_c, 5, 78, 73
12, 116736, Note_on_c, 5, 78, 0
12, 116736, Note_on_c, 5, 77, 73
12, 117120, Note_on_c, 5, 77, 0
12, 117120, Note_on_c, 5, 78, 73
12, 117504, Note_on_c, 5, 78, 0
12, 117504, Note_on_c, 5, 77, 73
12, 117888, Note_on_c, 5, 77, 0
12, 117888, Note_on_c, 5, 78, 73
12, 118272, Note_on_c, 5, 78, 0
12, 118272, Note_on_c, 5, 77, 73
12, 118656, Note_on_c, 5, 77, 0
12, 118656, Note_on_c, 5, 78, 73
12, 119040, Note_on_c, 5, 78, 0
12, 119040, Note_on_c, 5, 77, 78
12, 119424, Note_on_c, 5, 77, 0
12, 119424, Note_on_c, 5, 78, 78
12, 119808, Note_on_c, 5, 78, 0
12, 119808, Note_on_c, 5, 77, 78
12, 120192, Note_on_c, 5, 77, 0
12, 120192, Note_on_c, 5, 76, 78
12, 120576, Note_on_c, 5, 76, 0
12, 120576, Note_on_c, 5, 74, 78
12, 120960, Note_on_c, 5, 74, 0
12, 120960, Note_on_c, 5, 76, 78
12, 121344, Note_on_c, 5, 76, 0
12, 121344, Note_on_c, 5, 74, 78
12, 121728, Note_on_c, 5, 74, 0
12, 121728, Note_on_c, 5, 76, 78
12, 122112, Note_on_c, 5, 76, 0
12, 122112, Note_on_c, 5, 74, 78
12, 122496, Note_on_c, 5, 74, 0
12, 122496, Note_on_c, 5, 73, 78
12, 122880, Note_on_c, 5, 73, 0
12, 122880, Note_on_c, 5, 74, 78
12, 123264, Note_on_c, 5, 74, 0
12, 123264, Note_on_c, 5, 73, 78
12, 123648, Note_on_c, 5, 73, 0
12, 123648, Note_on_c, 5, 74, 78
12, 124032, Note_on_c, 5, 74, 0
12, 124032, Note_on_c, 5, 76, 78
12, 124416, Note_on_c, 5, 76, 0
12, 124416, Note_on_c, 5, 74, 78
12, 124800, Note_on_c, 5, 74, 0
12, 124800, Note_on_c, 5, 73, 78
12, 125184, Note_on_c, 5, 73, 0
12, 125184, Note_on_c, 5, 74, 78
12, 125568, Note_on_c, 5, 74, 0
12, 125568, Note_on_c, 5, 70, 78
12, 125952, Note_on_c, 5, 70, 0
12, 125952, Note_on_c, 5, 73, 78
12, 126336, Note_on_c, 5, 73, 0
12, 126336, Note_on_c, 5, 70, 78
12, 126720, Note_on_c, 5, 70, 0
12, 126720, Note_on_c, 5, 73, 78
12, 127104, Note_on_c, 5, 73, 0
12, 127104, Note_on_c, 5, 70, 78
12, 127488, Note_on_c, 5, 70, 0
12, 127488, Note_on_c, 5, 73, 78
12, 127872, Note_on_c, 5, 73, 0
12, 127872, Note_on_c, 5, 70, 78
12, 128256, Note_on_c, 5, 70, 0
12, 128256, Note_on_c, 5, 70, 78
12, 128640, Note_on_c, 5, 70, 0
12, 128640, Note_on_c, 5, 68, 78
12, 129024, Note_on_c, 5, 68, 0
12, 129024, Note_on_c, 5, 70, 78
12, 129408, Note_on_c, 5, 70, 0
12, 129408, Note_on_c, 5, 68, 78
12, 129792, Note_on_c, 5, 68, 0
12, 129792, Note_on_c, 5, 70, 78
12, 130176, Note_on_c, 5, 70, 0
12, 130176, Note_on_c, 5, 68, 78
12, 130560, Note_on_c, 5, 68, 0
12, 130560, Note_on_c, 5, 70, 78
12, 130944, Note_on_c, 5, 70, 0
12, 130944, Note_on_c, 5, 68, 78
12, 131328, Note_on_c, 5, 68, 0
12, 131328, Note_on_c, 5, 70, 78
12, 131712, Note_on_c, 5, 70, 0
12, 131712, Note_on_c, 5, 68, 78
12, 132096, Note_on_c, 5, 68, 0
12, 132096, Note_on_c, 5, 70, 78
12, 132480, Note_on_c, 5, 70, 0
12, 132480, Note_on_c, 5, 68, 78
12, 132864, Note_on_c, 5, 68, 0
12, 132864, Note_on_c, 5, 70, 78
12, 133248, Note_on_c, 5, 70, 0
12, 133248, Note_on_c, 5, 72, 78
12, 133632, Note_on_c, 5, 72, 0
12, 133632, Note_on_c, 5, 74, 78
12, 134016, Note_on_c, 5, 74, 0
12, 134016, Note_on_c, 5, 68, 78
12, 134400, Note_on_c, 5, 68, 0
12, 134400, Note_on_c, 5, 70, 78
12, 134784, Note_on_c, 5, 70, 0
12, 134784, Note_on_c, 5, 68, 78
12, 135168, Note_on_c, 5, 68, 0
12, 135168, Note_on_c, 5, 70, 78
12, 135552, Note_on_c, 5, 70, 0
12, 135552, Note_on_c, 5, 68, 78
12, 135936, Note_on_c, 5, 68, 0
12, 135936, Note_on_c, 5, 70, 78
12, 136320, Note_on_c, 5, 70, 0
12, 136320, Note_on_c, 5, 68, 78
12, 136704, Note_on_c, 5, 68, 0
12, 136704, Note_on_c, 5, 70, 78
12, 137088, Note_on_c, 5, 70, 0
12, 137088, Note_on_c, 5, 68, 78
12, 137472, Note_on_c, 5, 68, 0
12, 137472, Note_on_c, 5, 70, 78
12, 137856, Note_on_c, 5, 70, 0
12, 137856, Note_on_c, 5, 68, 78
12, 138240, Note_on_c, 5, 68, 0
12, 138240, Note_on_c, 5, 70, 78
12, 138624, Note_on_c, 5, 70, 0
12, 138624, Note_on_c, 5, 68, 78
12, 139008, Note_on_c, 5, 68, 0
12, 139008, Note_on_c, 5, 70, 78
12, 139392, Note_on_c, 5, 70, 0
12, 139392, Note_on_c, 5, 68, 78
12, 139776, Note_on_c, 5, 68, 0
12, 139776, Note_on_c, 5, 70, 78
12, 140640, Note_on_c, 5, 70, 0
12, 141312, Note_on_c, 5, 68, 78
12, 142176, Note_on_c, 5, 68, 0
12, 142272, Note_on_c, 5, 82, 78
12, 142368, Note_on_c, 5, 82, 0
12, 142368, Note_on_c, 5, 83, 78
12, 142464, Note_on_c, 5, 83, 0
12, 142464, Note_on_c, 5, 82, 78
12, 142656, Note_on_c, 5, 82, 0
12, 142656, Note_on_c, 5, 82, 78
12, 142752, Note_on_c, 5, 82, 0
12, 142752, Note_on_c, 5, 83, 78
12, 142848, Note_on_c, 5, 83, 0
12, 142848, Note_on_c, 5, 82, 78
12, 143040, Note_on_c, 5, 82, 0
12, 143040, Note_on_c, 5, 82, 78
12, 143136, Note_on_c, 5, 82, 0
12, 143136, Note_on_c, 5, 83, 78
12, 143232, Note_on_c, 5, 83, 0
12, 143232, Note_on_c, 5, 82, 78
12, 143424, Note_on_c, 5, 82, 0
12, 143424, Note_on_c, 5, 82, 78
12, 143520, Note_on_c, 5, 82, 0
12, 143520, Note_on_c, 5, 83, 78
12, 143616, Note_on_c, 5, 83, 0
12, 143616, Note_on_c, 5, 82, 78
12, 143640, Note_on_c, 5, 82, 0
12, 143712, Note_on_c, 5, 82, 78
12, 143760, Note_on_c, 5, 82, 0
12, 143760, Note_on_c, 5, 83, 78
12, 143808, Note_on_c, 5, 83, 0
12, 143808, Note_on_c, 5, 82, 78
12, 143832, Note_on_c, 5, 82, 0
12, 143904, Note_on_c, 5, 80, 78
12, 144000, Note_on_c, 5, 80, 0
12, 144000, Note_on_c, 5, 78, 78
12, 144048, Note_on_c, 5, 78, 0
12, 144096, Note_on_c, 5, 78, 78
12, 144144, Note_on_c, 5, 78, 0
12, 144192, Note_on_c, 5, 80, 78
12, 144288, Note_on_c, 5, 80, 0
12, 144288, Note_on_c, 5, 75, 78
12, 144384, Note_on_c, 5, 75, 0
12, 144384, Note_on_c, 5, 78, 78
12, 144408, Note_on_c, 5, 78, 0
12, 144480, Note_on_c, 5, 78, 78
12, 144504, Note_on_c, 5, 78, 0
12, 144576, Note_on_c, 5, 75, 78
12, 144768, Note_on_c, 5, 75, 0
12, 144768, Note_on_c, 5, 78, 78
12, 144864, Note_on_c, 5, 78, 0
12, 144864, Note_on_c, 5, 77, 78
12, 144912, Note_on_c, 5, 77, 0
12, 144912, Note_on_c, 5, 78, 78
12, 144960, Note_on_c, 5, 78, 0
12, 144960, Note_on_c, 5, 80, 78
12, 144984, Note_on_c, 5, 80, 0
12, 145056, Note_on_c, 5, 75, 78
12, 145080, Note_on_c, 5, 75, 0
12, 145152, Note_on_c, 5, 82, 78
12, 145344, Note_on_c, 5, 82, 0
12, 145344, Note_on_c, 5, 75, 78
12, 145404, Note_on_c, 5, 75, 0
12, 145440, Note_on_c, 5, 75, 78
12, 145464, Note_on_c, 5, 75, 0
12, 145536, Note_on_c, 5, 75, 78
12, 145632, Note_on_c, 5, 75, 0
12, 145632, Note_on_c, 5, 78, 78
12, 145728, Note_on_c, 5, 78, 0
12, 145728, Note_on_c, 5, 77, 78
12, 145752, Note_on_c, 5, 77, 0
12, 145824, Note_on_c, 5, 75, 78
12, 145848, Note_on_c, 5, 75, 0
12, 145920, Note_on_c, 5, 82, 78
12, 146112, Note_on_c, 5, 82, 0
12, 146112, Note_on_c, 5, 75, 78
12, 146172, Note_on_c, 5, 75, 0
12, 146208, Note_on_c, 5, 75, 78
12, 146232, Note_on_c, 5, 75, 0
12, 146304, Note_on_c, 5, 75, 78
12, 146400, Note_on_c, 5, 75, 0
12, 146400, Note_on_c, 5, 78, 78
12, 146496, Note_on_c, 5, 78, 0
12, 146496, Note_on_c, 5, 77, 78
12, 146520, Note_on_c, 5, 77, 0
12, 146592, Note_on_c, 5, 75, 78
12, 146616, Note_on_c, 5, 75, 0
12, 146688, Note_on_c, 5, 82, 78
12, 146712, Note_on_c, 5, 82, 0
12, 146784, Note_on_c, 5, 82, 78
12, 146808, Note_on_c, 5, 82, 0
12, 146880, Note_on_c, 5, 82, 78
12, 146904, Note_on_c, 5, 82, 0
12, 146976, Note_on_c, 5, 82, 78
12, 147000, Note_on_c, 5, 82, 0
12, 147072, Note_on_c, 5, 82, 78
12, 147168, Note_on_c, 5, 82, 0
12, 147168, Note_on_c, 5, 85, 78
12, 147216, Note_on_c, 5, 85, 0
12, 147216, Note_on_c, 5, 82, 78
12, 147264, Note_on_c, 5, 82, 0
12, 147264, Note_on_c, 5, 80, 78
12, 147288, Note_on_c, 5, 80, 0
12, 147360, Note_on_c, 5, 77, 78
12, 147408, Note_on_c, 5, 77, 0
12, 147456, Note_on_c, 5, 78, 78
12, 147504, Note_on_c, 5, 78, 0
12, 147552, Note_on_c, 5, 78, 78
12, 147600, Note_on_c, 5, 78, 0
12, 147648, Note_on_c, 5, 75, 78
12, 147840, Note_on_c, 5, 75, 0
12, 147840, Note_on_c, 5, 78, 78
12, 147936, Note_on_c, 5, 78, 0
12, 147936, Note_on_c, 5, 77, 78
12, 147984, Note_on_c, 5, 77, 0
12, 147984, Note_on_c, 5, 78, 78
12, 148032, Note_on_c, 5, 78, 0
12, 148032, Note_on_c, 5, 80, 78
12, 148056, Note_on_c, 5, 80, 0
12, 148128, Note_on_c, 5, 75, 78
12, 148152, Note_on_c, 5, 75, 0
12, 148224, Note_on_c, 5, 82, 78
12, 148416, Note_on_c, 5, 82, 0
12, 148416, Note_on_c, 5, 75, 78
12, 148476, Note_on_c, 5, 75, 0
12, 148512, Note_on_c, 5, 75, 78
12, 148536, Note_on_c, 5, 75, 0
12, 148608, Note_on_c, 5, 75, 78
12, 148704, Note_on_c, 5, 75, 0
12, 148704, Note_on_c, 5, 78, 78
12, 148800, Note_on_c, 5, 78, 0
12, 148800, Note_on_c, 5, 77, 78
12, 148824, Note_on_c, 5, 77, 0
12, 148896, Note_on_c, 5, 75, 78
12, 148920, Note_on_c, 5, 75, 0
12, 148992, Note_on_c, 5, 82, 78
12, 149184, Note_on_c, 5, 82, 0
12, 149184, Note_on_c, 5, 75, 78
12, 149244, Note_on_c, 5, 75, 0
12, 149280, Note_on_c, 5, 75, 78
12, 149304, Note_on_c, 5, 75, 0
12, 149376, Note_on_c, 5, 75, 78
12, 149424, Note_on_c, 5, 75, 0
12, 149424, Note_on_c, 5, 77, 78
12, 149472, Note_on_c, 5, 77, 0
12, 149472, Note_on_c, 5, 78, 78
12, 149483, Note_on_c, 5, 78, 0
12, 149520, Note_on_c, 5, 78, 78
12, 149531, Note_on_c, 5, 78, 0
12, 149568, Note_on_c, 5, 77, 78
12, 149616, Note_on_c, 5, 77, 0
12, 149616, Note_on_c, 5, 75, 78
12, 149664, Note_on_c, 5, 75, 0
12, 149664, Note_on_c, 5, 73, 78
12, 149675, Note_on_c, 5, 73, 0
12, 149712, Note_on_c, 5, 71, 78
12, 149723, Note_on_c, 5, 71, 0
12, 149760, Note_on_c, 5, 70, 78
12, 149856, Note_on_c, 5, 70, 0
12, 172224, Note_on_c, 5, 82, 78
12, 172320, Note_on_c, 5, 82, 0
12, 172320, Note_on_c, 5, 83, 78
12, 172416, Note_on_c, 5, 83, 0
12, 172416, Note_on_c, 5, 85, 78
12, 172512, Note_on_c, 5, 85, 0
12, 173760, Note_on_c, 5, 79, 78
12, 173856, Note_on_c, 5, 79, 0
12, 173856, Note_on_c, 5, 80, 78
12, 173952, Note_on_c, 5, 80, 0
12, 173952, Note_on_c, 5, 82, 78
12, 174048, Note_on_c, 5, 82, 0
12, 175296, Note_on_c, 5, 82, 78
12, 175392, Note_on_c, 5, 82, 0
12, 175392, Note_on_c, 5, 82, 78
12, 175488, Note_on_c, 5, 82, 0
12, 175488, Note_on_c, 5, 82, 78
12, 175584, Note_on_c, 5, 82, 0
12, 176832, Note_on_c, 5, 82, 78
12, 176928, Note_on_c, 5, 82, 0
12, 176928, Note_on_c, 5, 83, 78
12, 177024, Note_on_c, 5, 83, 0
12, 177024, Note_on_c, 5, 85, 78
12, 177120, Note_on_c, 5, 85, 0
12, 177600, Note_on_c, 5, 82, 78
12, 177696, Note_on_c, 5, 82, 0
12, 177696, Note_on_c, 5, 83, 78
12, 177792, Note_on_c, 5, 83, 0
12, 177792, Note_on_c, 5, 85, 78
12, 177888, Note_on_c, 5, 85, 0
12, 178368, Note_on_c, 5, 83, 78
12, 178464, Note_on_c, 5, 83, 0
12, 178464, Note_on_c, 5, 85, 78
12, 178560, Note_on_c, 5, 85, 0
12, 178560, Note_on_c, 5, 86, 78
12, 178656, Note_on_c, 5, 86, 0
12, 179136, Note_on_c, 5, 84, 78
12, 179232, Note_on_c, 5, 84, 0
12, 179232, Note_on_c, 5, 86, 78
12, 179328, Note_on_c, 5, 86, 0
12, 179328, Note_on_c, 5, 87, 78
12, 179424, Note_on_c, 5, 87, 0
12, 180384, Note_on_c, 5, 81, 78
12, 180432, Note_on_c, 5, 81, 0
12, 180432, Note_on_c, 5, 81, 78
12, 180480, Note_on_c, 5, 81, 0
12, 180480, Note_on_c, 5, 80, 78
12, 180528, Note_on_c, 5, 80, 0
12, 180528, Note_on_c, 5, 81, 78
12, 180576, Note_on_c, 5, 81, 0
12, 180576, Note_on_c, 5, 81, 78
12, 180672, Note_on_c, 5, 81, 0
12, 180672, Note_on_c, 5, 80, 78
12, 180720, Note_on_c, 5, 80, 0
12, 180720, Note_on_c, 5, 81, 78
12, 180768, Note_on_c, 5, 81, 0
12, 180768, Note_on_c, 5, 81, 78
12, 180864, Note_on_c, 5, 81, 0
12, 180864, Note_on_c, 5, 80, 78
12, 180912, Note_on_c, 5, 80, 0
12, 180912, Note_on_c, 5, 81, 78
12, 180960, Note_on_c, 5, 81, 0
12, 180960, Note_on_c, 5, 81, 78
12, 181056, Note_on_c, 5, 81, 0
12, 181056, Note_on_c, 5, 80, 78
12, 181104, Note_on_c, 5, 80, 0
12, 181104, Note_on_c, 5, 81, 78
12, 181152, Note_on_c, 5, 81, 0
12, 181152, Note_on_c, 5, 81, 78
12, 181248, Note_on_c, 5, 81, 0
12, 181248, Note_on_c, 5, 77, 78
12, 181296, Note_on_c, 5, 77, 0
12, 181296, Note_on_c, 5, 78, 78
12, 181344, Note_on_c, 5, 78, 0
12, 181344, Note_on_c, 5, 78, 78
12, 181440, Note_on_c, 5, 78, 0
12, 181440, Note_on_c, 5, 77, 78
12, 181488, Note_on_c, 5, 77, 0
12, 181488, Note_on_c, 5, 78, 78
12, 181536, Note_on_c, 5, 78, 0
12, 181536, Note_on_c, 5, 78, 78
12, 181632, Note_on_c, 5, 78, 0
12, 181632, Note_on_c, 5, 74, 78
12, 181680, Note_on_c, 5, 74, 0
12, 181680, Note_on_c, 5, 75, 78
12, 181728, Note_on_c, 5, 75, 0
12, 181728, Note_on_c, 5, 78, 78
12, 181824, Note_on_c, 5, 78, 0
12, 181824, Note_on_c, 5, 77, 78
12, 181872, Note_on_c, 5, 77, 0
12, 181872, Note_on_c, 5, 78, 78
12, 181920, Note_on_c, 5, 78, 0
12, 181920, Note_on_c, 5, 79, 78
12, 182016, Note_on_c, 5, 79, 0
12, 182016, Note_on_c, 5, 74, 78
12, 182064, Note_on_c, 5, 74, 0
12, 182064, Note_on_c, 5, 75, 78
12, 182112, Note_on_c, 5, 75, 0
12, 182112, Note_on_c, 5, 75, 78
12, 182208, Note_on_c, 5, 75, 0
12, 182880, Note_on_c, 5, 75, 78
12, 182976, Note_on_c, 5, 75, 0
12, 182976, Note_on_c, 5, 83, 78
12, 183072, Note_on_c, 5, 83, 0
12, 183456, Note_on_c, 5, 80, 78
12, 183552, Note_on_c, 5, 80, 0
12, 183648, Note_on_c, 5, 77, 78
12, 183744, Note_on_c, 5, 77, 0
12, 183840, Note_on_c, 5, 75, 78
12, 183936, Note_on_c, 5, 75, 0
12, 183936, Note_on_c, 5, 77, 78
12, 184032, Note_on_c, 5, 77, 0
12, 184032, Note_on_c, 5, 80, 78
12, 184128, Note_on_c, 5, 80, 0
12, 184128, Note_on_c, 5, 70, 78
12, 184176, Note_on_c, 5, 70, 0
12, 184176, Note_on_c, 5, 70, 78
12, 184224, Note_on_c, 5, 70, 0
12, 184224, Note_on_c, 5, 72, 78
12, 184272, Note_on_c, 5, 72, 0
12, 184272, Note_on_c, 5, 74, 78
12, 184320, Note_on_c, 5, 74, 0
12, 184320, Note_on_c, 5, 75, 78
12, 184560, Note_on_c, 5, 75, 0
12, 184560, Note_on_c, 5, 74, 78
12, 184608, Note_on_c, 5, 74, 0
12, 184608, Note_on_c, 5, 75, 78
12, 184656, Note_on_c, 5, 75, 0
12, 184656, Note_on_c, 5, 77, 78
12, 184704, Note_on_c, 5, 77, 0
12, 184704, Note_on_c, 5, 80, 78
12, 184752, Note_on_c, 5, 80, 0
12, 184752, Note_on_c, 5, 78, 78
12, 184800, Note_on_c, 5, 78, 0
12, 184944, Note_on_c, 5, 75, 78
12, 184992, Note_on_c, 5, 75, 0
12, 184992, Note_on_c, 5, 77, 78
12, 185040, Note_on_c, 5, 77, 0
12, 185040, Note_on_c, 5, 79, 78
12, 185088, Note_on_c, 5, 79, 0
12, 185088, Note_on_c, 5, 80, 78
12, 185328, Note_on_c, 5, 80, 0
12, 185328, Note_on_c, 5, 79, 78
12, 185376, Note_on_c, 5, 79, 0
12, 185376, Note_on_c, 5, 80, 78
12, 185424, Note_on_c, 5, 80, 0
12, 185424, Note_on_c, 5, 82, 78
12, 185472, Note_on_c, 5, 82, 0
12, 185472, Note_on_c, 5, 73, 78
12, 185520, Note_on_c, 5, 73, 0
12, 185520, Note_on_c, 5, 71, 78
12, 185568, Note_on_c, 5, 71, 0
12, 185712, Note_on_c, 5, 70, 78
12, 185760, Note_on_c, 5, 70, 0
12, 185760, Note_on_c, 5, 71, 78
12, 185808, Note_on_c, 5, 71, 0
12, 185808, Note_on_c, 5, 74, 78
12, 185856, Note_on_c, 5, 74, 0
12, 185856, Note_on_c, 5, 77, 78
12, 185904, Note_on_c, 5, 77, 0
12, 185904, Note_on_c, 5, 75, 78
12, 185952, Note_on_c, 5, 75, 0
12, 186096, Note_on_c, 5, 74, 78
12, 186144, Note_on_c, 5, 74, 0
12, 186144, Note_on_c, 5, 75, 78
12, 186192, Note_on_c, 5, 75, 0
12, 186192, Note_on_c, 5, 77, 78
12, 186240, Note_on_c, 5, 77, 0
12, 186240, Note_on_c, 5, 80, 78
12, 186288, Note_on_c, 5, 80, 0
12, 186288, Note_on_c, 5, 78, 78
12, 186336, Note_on_c, 5, 78, 0
12, 186336, Note_on_c, 5, 78, 78
12, 186528, Note_on_c, 5, 78, 0
12, 186528, Note_on_c, 5, 78, 78
12, 186720, Note_on_c, 5, 78, 0
12, 186720, Note_on_c, 5, 78, 78
12, 186912, Note_on_c, 5, 78, 0
12, 186912, Note_on_c, 5, 78, 78
12, 187104, Note_on_c, 5, 78, 0
12, 187104, Note_on_c, 5, 78, 78
12, 187200, Note_on_c, 5, 78, 0
12, 187200, Note_on_c, 5, 80, 78
12, 187296, Note_on_c, 5, 80, 0
12, 187296, Note_on_c, 5, 82, 78
12, 187392, Note_on_c, 5, 82, 0
12, 187392, Note_on_c, 5, 83, 78
12, 187488, Note_on_c, 5, 83, 0
12, 187488, Note_on_c, 5, 82, 78
12, 187584, Note_on_c, 5, 82, 0
12, 187584, Note_on_c, 5, 80, 78
12, 187680, Note_on_c, 5, 80, 0
12, 187680, Note_on_c, 5, 79, 78
12, 187776, Note_on_c, 5, 79, 0
12, 187776, Note_on_c, 5, 78, 78
12, 187872, Note_on_c, 5, 78, 0
12, 187872, Note_on_c, 5, 76, 78
12, 187968, Note_on_c, 5, 76, 0
12, 187968, Note_on_c, 5, 75, 78
12, 188064, Note_on_c, 5, 75, 0
12, 188064, Note_on_c, 5, 73, 78
12, 188160, Note_on_c, 5, 73, 0
12, 188160, Note_on_c, 5, 71, 78
12, 188256, Note_on_c, 5, 71, 0
12, 188256, Note_on_c, 5, 70, 78
12, 188352, Note_on_c, 5, 70, 0
12, 188352, Note_on_c, 5, 68, 78
12, 188448, Note_on_c, 5, 68, 0
12, 188448, Note_on_c, 5, 67, 78
12, 188544, Note_on_c, 5, 67, 0
12, 188544, Note_on_c, 5, 66, 78
12, 188640, Note_on_c, 5, 66, 0
12, 188928, Note_on_c, 5, 71, 78
12, 189120, Note_on_c, 5, 71, 0
12, 189120, Note_on_c, 5, 71, 78
12, 189312, Note_on_c, 5, 71, 0
12, 189312, Note_on_c, 5, 73, 78
12, 189504, Note_on_c, 5, 73, 0
12, 189504, Note_on_c, 5, 73, 78
12, 189696, Note_on_c, 5, 73, 0
12, 189696, Note_on_c, 5, 78, 78
12, 189984, Note_on_c, 5, 78, 0
12, 189984, Note_on_c, 5, 75, 78
12, 190080, Note_on_c, 5, 75, 0
12, 190080, Note_on_c, 5, 71, 78
12, 190176, Note_on_c, 5, 71, 0
12, 198336, Note_on_c, 5, 69, 62
12, 198912, Note_on_c, 5, 69, 0
12, 198912, Note_on_c, 5, 79, 62
12, 199296, Note_on_c, 5, 79, 0
12, 199296, Note_on_c, 5, 80, 62
12, 199680, Note_on_c, 5, 80, 0
12, 199680, Note_on_c, 5, 79, 62
12, 200064, Note_on_c, 5, 79, 0
12, 200064, Note_on_c, 5, 80, 62
12, 200448, Note_on_c, 5, 80, 0
12, 200448, Note_on_c, 5, 79, 62
12, 200832, Note_on_c, 5, 79, 0
12, 200832, Note_on_c, 5, 80, 62
12, 201216, Note_on_c, 5, 80, 0
12, 201216, Note_on_c, 5, 79, 62
12, 201600, Note_on_c, 5, 79, 0
12, 201600, Note_on_c, 5, 80, 62
12, 201984, Note_on_c, 5, 80, 0
12, 201984, Note_on_c, 5, 79, 62
12, 202368, Note_on_c, 5, 79, 0
12, 202368, Note_on_c, 5, 80, 62
12, 202752, Note_on_c, 5, 80, 0
12, 202752, Note_on_c, 5, 79, 62
12, 203136, Note_on_c, 5, 79, 0
12, 203136, Note_on_c, 5, 80, 62
12, 203520, Note_on_c, 5, 80, 0
12, 203520, Note_on_c, 5, 79, 62
12, 203904, Note_on_c, 5, 79, 0
12, 203904, Note_on_c, 5, 80, 62
12, 204288, Note_on_c, 5, 80, 0
12, 204288, Note_on_c, 5, 82, 62
12, 204672, Note_on_c, 5, 82, 0
12, 204672, Note_on_c, 5, 80, 62
12, 205056, Note_on_c, 5, 80, 0
12, 205056, Note_on_c, 5, 79, 62
12, 205440, Note_on_c, 5, 79, 0
12, 205440, Note_on_c, 5, 80, 62
12, 205824, Note_on_c, 5, 80, 0
12, 205824, Note_on_c, 5, 79, 62
12, 206208, Note_on_c, 5, 79, 0
12, 206208, Note_on_c, 5, 80, 62
12, 206592, Note_on_c, 5, 80, 0
12, 206592, Note_on_c, 5, 82, 62
12, 206976, Note_on_c, 5, 82, 0
12, 206976, Note_on_c, 5, 80, 62
12, 207360, Note_on_c, 5, 80, 0
12, 207360, Note_on_c, 5, 79, 62
12, 207744, Note_on_c, 5, 79, 0
12, 207744, Note_on_c, 5, 77, 62
12, 208128, Note_on_c, 5, 77, 0
12, 208128, Note_on_c, 5, 78, 62
12, 208512, Note_on_c, 5, 78, 0
12, 208512, Note_on_c, 5, 80, 62
12, 208896, Note_on_c, 5, 80, 0
12, 208896, Note_on_c, 5, 78, 62
12, 209280, Note_on_c, 5, 78, 0
12, 209280, Note_on_c, 5, 80, 62
12, 209664, Note_on_c, 5, 80, 0
12, 209664, Note_on_c, 5, 78, 62
12, 210048, Note_on_c, 5, 78, 0
12, 210048, Note_on_c, 5, 80, 62
12, 210432, Note_on_c, 5, 80, 0
12, 210432, Note_on_c, 5, 78, 62
12, 210816, Note_on_c, 5, 78, 0
12, 210816, Note_on_c, 5, 80, 62
12, 211200, Note_on_c, 5, 80, 0
12, 211200, Note_on_c, 5, 78, 62
12, 211584, Note_on_c, 5, 78, 0
12, 211584, Note_on_c, 5, 80, 62
12, 211968, Note_on_c, 5, 80, 0
12, 211968, Note_on_c, 5, 78, 62
12, 212352, Note_on_c, 5, 78, 0
12, 212352, Note_on_c, 5, 80, 62
12, 212736, Note_on_c, 5, 80, 0
12, 212736, Note_on_c, 5, 78, 62
12, 213120, Note_on_c, 5, 78, 0
12, 213120, Note_on_c, 5, 80, 62
12, 213504, Note_on_c, 5, 80, 0
12, 213504, Note_on_c, 5, 78, 62
12, 213888, Note_on_c, 5, 78, 0
12, 213888, Note_on_c, 5, 80, 62
12, 214272, Note_on_c, 5, 80, 0
12, 214272, Note_on_c, 5, 78, 62
12, 214368, Note_on_c, 5, 78, 0
12, 217344, Note_on_c, 5, 70, 78
12, 217920, Note_on_c, 5, 70, 0
12, 217920, Note_on_c, 5, 68, 78
12, 218112, Note_on_c, 5, 68, 0
12, 218112, Note_on_c, 5, 70, 78
12, 218208, Note_on_c, 5, 70, 0
12, 227328, Note_on_c, 5, 70, 78
12, 227424, Note_on_c, 5, 70, 0
12, 227520, Note_on_c, 5, 74, 78
12, 227616, Note_on_c, 5, 74, 0
12, 227712, Note_on_c, 5, 79, 78
12, 227808, Note_on_c, 5, 79, 0
12, 227904, Note_on_c, 5, 74, 78
12, 228000, Note_on_c, 5, 74, 0
12, 228096, Note_on_c, 5, 74, 78
12, 228192, Note_on_c, 5, 74, 0
12, 228864, Note_on_c, 5, 75, 78
12, 228960, Note_on_c, 5, 75, 0
12, 229056, Note_on_c, 5, 79, 78
12, 229152, Note_on_c, 5, 79, 0
12, 229248, Note_on_c, 5, 84, 78
12, 229344, Note_on_c, 5, 84, 0
12, 229440, Note_on_c, 5, 79, 78
12, 229536, Note_on_c, 5, 79, 0
12, 229632, Note_on_c, 5, 79, 78
12, 229728, Note_on_c, 5, 79, 0
12, 230016, Note_on_c, 5, 75, 78
12, 230112, Note_on_c, 5, 75, 0
12, 230208, Note_on_c, 5, 76, 78
12, 230304, Note_on_c, 5, 76, 0
12, 230400, Note_on_c, 5, 77, 78
12, 230496, Note_on_c, 5, 77, 0
12, 231168, Note_on_c, 5, 65, 78
12, 231264, Note_on_c, 5, 65, 0
12, 231360, Note_on_c, 5, 67, 78
12, 231456, Note_on_c, 5, 67, 0
12, 231552, Note_on_c, 5, 68, 78
12, 231648, Note_on_c, 5, 68, 0
12, 232704, Note_on_c, 5, 66, 78
12, 232800, Note_on_c, 5, 66, 0
12, 232896, Note_on_c, 5, 68, 78
12, 232992, Note_on_c, 5, 68, 0
12, 233088, Note_on_c, 5, 70, 78
12, 233184, Note_on_c, 5, 70, 0
12, 233856, Note_on_c, 5, 69, 78
12, 233952, Note_on_c, 5, 69, 0
12, 233952, Note_on_c, 5, 70, 78
12, 234048, Note_on_c, 5, 70, 0
12, 234048, Note_on_c, 5, 72, 78
12, 234144, Note_on_c, 5, 72, 0
12, 234624, Note_on_c, 5, 71, 78
12, 234720, Note_on_c, 5, 71, 0
12, 234720, Note_on_c, 5, 72, 78
12, 234816, Note_on_c, 5, 72, 0
12, 234816, Note_on_c, 5, 74, 78
12, 234912, Note_on_c, 5, 74, 0
12, 235392, Note_on_c, 5, 72, 78
12, 235488, Note_on_c, 5, 72, 0
12, 235488, Note_on_c, 5, 73, 78
12, 235584, Note_on_c, 5, 73, 0
12, 235584, Note_on_c, 5, 75, 78
12, 235680, Note_on_c, 5, 75, 0
12, 236160, Note_on_c, 5, 74, 78
12, 236256, Note_on_c, 5, 74, 0
12, 236256, Note_on_c, 5, 75, 78
12, 236352, Note_on_c, 5, 75, 0
12, 236352, Note_on_c, 5, 77, 78
12, 236448, Note_on_c, 5, 77, 0
12, 240384, Note_on_c, 5, 80, 78
12, 240576, Note_on_c, 5, 80, 0
12, 240576, Note_on_c, 5, 81, 78
12, 240768, Note_on_c, 5, 81, 0
12, 240768, Note_on_c, 5, 82, 78
12, 240960, Note_on_c, 5, 82, 0
12, 240960, Note_on_c, 5, 84, 78
12, 241152, Note_on_c, 5, 84, 0
12, 241152, Note_on_c, 5, 86, 78
12, 241344, Note_on_c, 5, 86, 0
12, 241344, Note_on_c, 5, 87, 78
12, 241536, Note_on_c, 5, 87, 0
12, 241536, Note_on_c, 5, 89, 78
12, 241728, Note_on_c, 5, 89, 0
12, 241728, Note_on_c, 5, 87, 78
12, 241920, Note_on_c, 5, 87, 0
12, 241920, Note_on_c, 5, 80, 78
12, 242112, Note_on_c, 5, 80, 0
12, 242112, Note_on_c, 5, 81, 78
12, 242304, Note_on_c, 5, 81, 0
12, 242304, Note_on_c, 5, 82, 78
12, 242400, Note_on_c, 5, 82, 0
12, 242400, Note_on_c, 5, 80, 78
12, 242496, Note_on_c, 5, 80, 0
12, 242496, Note_on_c, 5, 79, 78
12, 242592, Note_on_c, 5, 79, 0
12, 242592, Note_on_c, 5, 77, 78
12, 242688, Note_on_c, 5, 77, 0
12, 242688, Note_on_c, 5, 79, 78
12, 242784, Note_on_c, 5, 79, 0
12, 242784, Note_on_c, 5, 77, 78
12, 242880, Note_on_c, 5, 77, 0
12, 242880, Note_on_c, 5, 75, 78
12, 242976, Note_on_c, 5, 75, 0
12, 242976, Note_on_c, 5, 74, 78
12, 243072, Note_on_c, 5, 74, 0
12, 243072, Note_on_c, 5, 77, 78
12, 243168, Note_on_c, 5, 77, 0
12, 243168, Note_on_c, 5, 75, 78
12, 243264, Note_on_c, 5, 75, 0
12, 243264, Note_on_c, 5, 74, 78
12, 243360, Note_on_c, 5, 74, 0
12, 243360, Note_on_c, 5, 72, 78
12, 243456, Note_on_c, 5, 72, 0
12, 243456, Note_on_c, 5, 75, 78
12, 243552, Note_on_c, 5, 75, 0
12, 243552, Note_on_c, 5, 74, 78
12, 243648, Note_on_c, 5, 74, 0
12, 243648, Note_on_c, 5, 72, 78
12, 243744, Note_on_c, 5, 72, 0
12, 243744, Note_on_c, 5, 70, 78
12, 243840, Note_on_c, 5, 70, 0
12, 243840, Note_on_c, 5, 79, 78
12, 243936, Note_on_c, 5, 79, 0
12, 243936, Note_on_c, 5, 77, 78
12, 244032, Note_on_c, 5, 77, 0
12, 244032, Note_on_c, 5, 75, 78
12, 244128, Note_on_c, 5, 75, 0
12, 244128, Note_on_c, 5, 74, 78
12, 244224, Note_on_c, 5, 74, 0
12, 244224, Note_on_c, 5, 77, 78
12, 244320, Note_on_c, 5, 77, 0
12, 244320, Note_on_c, 5, 75, 78
12, 244416, Note_on_c, 5, 75, 0
12, 244416, Note_on_c, 5, 74, 78
12, 244512, Note_on_c, 5, 74, 0
12, 244512, Note_on_c, 5, 72, 78
12, 244608, Note_on_c, 5, 72, 0
12, 244608, Note_on_c, 5, 75, 78
12, 244704, Note_on_c, 5, 75, 0
12, 244704, Note_on_c, 5, 74, 78
12, 244800, Note_on_c, 5, 74, 0
12, 244800, Note_on_c, 5, 72, 78
12, 244896, Note_on_c, 5, 72, 0
12, 244896, Note_on_c, 5, 70, 78
12, 244992, Note_on_c, 5, 70, 0
12, 244992, Note_on_c, 5, 74, 78
12, 245088, Note_on_c, 5, 74, 0
12, 245088, Note_on_c, 5, 72, 78
12, 245184, Note_on_c, 5, 72, 0
12, 245184, Note_on_c, 5, 70, 78
12, 245280, Note_on_c, 5, 70, 0
12, 245280, Note_on_c, 5, 68, 78
12, 245376, Note_on_c, 5, 68, 0
12, 245376, Note_on_c, 5, 77, 78
12, 245472, Note_on_c, 5, 77, 0
12, 245472, Note_on_c, 5, 75, 78
12, 245568, Note_on_c, 5, 75, 0
12, 245568, Note_on_c, 5, 74, 78
12, 245664, Note_on_c, 5, 74, 0
12, 245664, Note_on_c, 5, 72, 78
12, 245760, Note_on_c, 5, 72, 0
12, 245760, Note_on_c, 5, 75, 78
12, 245856, Note_on_c, 5, 75, 0
12, 245856, Note_on_c, 5, 74, 78
12, 245952, Note_on_c, 5, 74, 0
12, 245952, Note_on_c, 5, 72, 78
12, 246048, Note_on_c, 5, 72, 0
12, 246048, Note_on_c, 5, 70, 78
12, 246144, Note_on_c, 5, 70, 0
12, 246144, Note_on_c, 5, 75, 78
12, 246240, Note_on_c, 5, 75, 0
12, 246240, Note_on_c, 5, 74, 78
12, 246336, Note_on_c, 5, 74, 0
12, 246336, Note_on_c, 5, 72, 78
12, 246432, Note_on_c, 5, 72, 0
12, 246432, Note_on_c, 5, 70, 78
12, 246528, Note_on_c, 5, 70, 0
12, 246528, Note_on_c, 5, 74, 78
12, 246624, Note_on_c, 5, 74, 0
12, 246624, Note_on_c, 5, 72, 78
12, 246720, Note_on_c, 5, 72, 0
12, 246720, Note_on_c, 5, 70, 78
12, 246816, Note_on_c, 5, 70, 0
12, 246816, Note_on_c, 5, 68, 78
12, 246912, Note_on_c, 5, 68, 0
12, 246912, Note_on_c, 5, 74, 78
12, 247008, Note_on_c, 5, 74, 0
12, 247008, Note_on_c, 5, 72, 78
12, 247104, Note_on_c, 5, 72, 0
12, 247104, Note_on_c, 5, 70, 78
12, 247200, Note_on_c, 5, 70, 0
12, 247200, Note_on_c, 5, 68, 78
12, 247296, Note_on_c, 5, 68, 0
12, 247296, Note_on_c, 5, 72, 78
12, 247392, Note_on_c, 5, 72, 0
12, 247392, Note_on_c, 5, 70, 78
12, 247488, Note_on_c, 5, 70, 0
12, 247488, Note_on_c, 5, 68, 78
12, 247584, Note_on_c, 5, 68, 0
12, 247584, Note_on_c, 5, 67, 78
12, 247680, Note_on_c, 5, 67, 0
12, 247680, Note_on_c, 5, 72, 78
12, 247776, Note_on_c, 5, 72, 0
12, 247776, Note_on_c, 5, 70, 78
12, 247872, Note_on_c, 5, 70, 0
12, 247872, Note_on_c, 5, 68, 78
12, 247968, Note_on_c, 5, 68, 0
12, 247968, Note_on_c, 5, 67, 78
12, 248064, Note_on_c, 5, 67, 0
12, 248064, Note_on_c, 5, 70, 78
12, 248160, Note_on_c, 5, 70, 0
12, 248160, Note_on_c, 5, 68, 78
12, 248256, Note_on_c, 5, 68, 0
12, 248256, Note_on_c, 5, 67, 78
12, 248352, Note_on_c, 5, 67, 0
12, 248352, Note_on_c, 5, 65, 78
12, 248448, Note_on_c, 5, 65, 0
12, 248448, Note_on_c, 5, 70, 78
12, 248544, Note_on_c, 5, 70, 0
12, 248544, Note_on_c, 5, 68, 78
12, 248640, Note_on_c, 5, 68, 0
12, 248640, Note_on_c, 5, 67, 78
12, 248736, Note_on_c, 5, 67, 0
12, 248736, Note_on_c, 5, 65, 78
12, 248832, Note_on_c, 5, 65, 0
12, 248832, Note_on_c, 5, 80, 78
12, 248928, Note_on_c, 5, 80, 0
12, 248928, Note_on_c, 5, 79, 78
12, 249024, Note_on_c, 5, 79, 0
12, 249024, Note_on_c, 5, 77, 78
12, 249120, Note_on_c, 5, 77, 0
12, 249120, Note_on_c, 5, 75, 78
12, 249216, Note_on_c, 5, 75, 0
12, 249216, Note_on_c, 5, 80, 78
12, 249312, Note_on_c, 5, 80, 0
12, 249312, Note_on_c, 5, 79, 78
12, 249408, Note_on_c, 5, 79, 0
12, 249408, Note_on_c, 5, 77, 78
12, 249504, Note_on_c, 5, 77, 0
12, 249504, Note_on_c, 5, 75, 78
12, 249600, Note_on_c, 5, 75, 0
12, 249600, Note_on_c, 5, 79, 78
12, 249696, Note_on_c, 5, 79, 0
12, 249696, Note_on_c, 5, 77, 78
12, 249792, Note_on_c, 5, 77, 0
12, 249792, Note_on_c, 5, 75, 78
12, 249888, Note_on_c, 5, 75, 0
12, 249888, Note_on_c, 5, 74, 78
12, 249984, Note_on_c, 5, 74, 0
12, 249984, Note_on_c, 5, 79, 78
12, 250080, Note_on_c, 5, 79, 0
12, 250080, Note_on_c, 5, 77, 78
12, 250176, Note_on_c, 5, 77, 0
12, 250176, Note_on_c, 5, 75, 78
12, 250272, Note_on_c, 5, 75, 0
12, 250272, Note_on_c, 5, 74, 78
12, 250368, Note_on_c, 5, 74, 0
12, 250368, Note_on_c, 5, 77, 78
12, 250464, Note_on_c, 5, 77, 0
12, 250464, Note_on_c, 5, 75, 78
12, 250560, Note_on_c, 5, 75, 0
12, 250560, Note_on_c, 5, 74, 78
12, 250656, Note_on_c, 5, 74, 0
12, 250656, Note_on_c, 5, 72, 78
12, 250752, Note_on_c, 5, 72, 0
12, 250752, Note_on_c, 5, 77, 78
12, 250848, Note_on_c, 5, 77, 0
12, 250848, Note_on_c, 5, 75, 78
12, 250944, Note_on_c, 5, 75, 0
12, 250944, Note_on_c, 5, 74, 78
12, 251040, Note_on_c, 5, 74, 0
12, 251040, Note_on_c, 5, 72, 78
12, 251136, Note_on_c, 5, 72, 0
12, 251136, Note_on_c, 5, 75, 78
12, 251232, Note_on_c, 5, 75, 0
12, 251232, Note_on_c, 5, 74, 78
12, 251328, Note_on_c, 5, 74, 0
12, 251328, Note_on_c, 5, 72, 78
12, 251424, Note_on_c, 5, 72, 0
12, 251424, Note_on_c, 5, 70, 78
12, 251520, Note_on_c, 5, 70, 0
12, 251520, Note_on_c, 5, 75, 78
12, 251616, Note_on_c, 5, 75, 0
12, 251616, Note_on_c, 5, 74, 78
12, 251712, Note_on_c, 5, 74, 0
12, 251712, Note_on_c, 5, 72, 78
12, 251808, Note_on_c, 5, 72, 0
12, 251808, Note_on_c, 5, 70, 78
12, 251904, Note_on_c, 5, 70, 0
12, 251904, Note_on_c, 5, 75, 78
12, 252000, Note_on_c, 5, 75, 0
12, 252000, Note_on_c, 5, 74, 78
12, 252096, Note_on_c, 5, 74, 0
12, 252096, Note_on_c, 5, 72, 78
12, 252192, Note_on_c, 5, 72, 0
12, 252192, Note_on_c, 5, 70, 78
12, 252288, Note_on_c, 5, 70, 0
12, 252288, Note_on_c, 5, 74, 78
12, 252384, Note_on_c, 5, 74, 0
12, 252384, Note_on_c, 5, 72, 78
12, 252480, Note_on_c, 5, 72, 0
12, 252480, Note_on_c, 5, 70, 78
12, 252576, Note_on_c, 5, 70, 0
12, 252576, Note_on_c, 5, 68, 78
12, 252672, Note_on_c, 5, 68, 0
12, 252672, Note_on_c, 5, 74, 78
12, 252768, Note_on_c, 5, 74, 0
12, 252768, Note_on_c, 5, 72, 78
12, 252864, Note_on_c, 5, 72, 0
12, 252864, Note_on_c, 5, 70, 78
12, 252960, Note_on_c, 5, 70, 0
12, 252960, Note_on_c, 5, 68, 78
12, 253056, Note_on_c, 5, 68, 0
12, 253056, Note_on_c, 5, 74, 78
12, 253152, Note_on_c, 5, 74, 0
12, 253152, Note_on_c, 5, 72, 78
12, 253248, Note_on_c, 5, 72, 0
12, 253248, Note_on_c, 5, 70, 78
12, 253344, Note_on_c, 5, 70, 0
12, 253344, Note_on_c, 5, 68, 78
12, 253440, Note_on_c, 5, 68, 0
12, 253440, Note_on_c, 5, 72, 78
12, 253536, Note_on_c, 5, 72, 0
12, 253536, Note_on_c, 5, 70, 78
12, 253632, Note_on_c, 5, 70, 0
12, 253632, Note_on_c, 5, 68, 78
12, 253728, Note_on_c, 5, 68, 0
12, 253728, Note_on_c, 5, 67, 78
12, 253824, Note_on_c, 5, 67, 0
12, 253824, Note_on_c, 5, 72, 78
12, 253920, Note_on_c, 5, 72, 0
12, 253920, Note_on_c, 5, 70, 78
12, 254016, Note_on_c, 5, 70, 0
12, 254016, Note_on_c, 5, 68, 78
12, 254112, Note_on_c, 5, 68, 0
12, 254112, Note_on_c, 5, 67, 78
12, 254208, Note_on_c, 5, 67, 0
12, 254208, Note_on_c, 5, 72, 78
12, 254304, Note_on_c, 5, 72, 0
12, 254304, Note_on_c, 5, 70, 78
12, 254400, Note_on_c, 5, 70, 0
12, 254400, Note_on_c, 5, 68, 78
12, 254496, Note_on_c, 5, 68, 0
12, 254496, Note_on_c, 5, 67, 78
12, 254592, Note_on_c, 5, 67, 0
12, 254592, Note_on_c, 5, 82, 78
12, 254688, Note_on_c, 5, 82, 0
12, 254688, Note_on_c, 5, 80, 78
12, 254784, Note_on_c, 5, 80, 0
12, 254784, Note_on_c, 5, 79, 78
12, 254880, Note_on_c, 5, 79, 0
12, 254880, Note_on_c, 5, 77, 78
12, 254976, Note_on_c, 5, 77, 0
12, 254976, Note_on_c, 5, 82, 78
12, 255072, Note_on_c, 5, 82, 0
12, 255072, Note_on_c, 5, 80, 78
12, 255168, Note_on_c, 5, 80, 0
12, 255168, Note_on_c, 5, 79, 78
12, 255264, Note_on_c, 5, 79, 0
12, 255264, Note_on_c, 5, 77, 78
12, 255360, Note_on_c, 5, 77, 0
12, 255360, Note_on_c, 5, 82, 78
12, 255456, Note_on_c, 5, 82, 0
12, 255456, Note_on_c, 5, 80, 78
12, 255552, Note_on_c, 5, 80, 0
12, 255552, Note_on_c, 5, 79, 78
12, 255648, Note_on_c, 5, 79, 0
12, 255648, Note_on_c, 5, 77, 78
12, 255744, Note_on_c, 5, 77, 0
12, 255744, Note_on_c, 5, 80, 78
12, 255827, Note_on_c, 5, 80, 0
12, 255840, Note_on_c, 5, 79, 78
12, 255923, Note_on_c, 5, 79, 0
12, 255936, Note_on_c, 5, 77, 78
12, 256019, Note_on_c, 5, 77, 0
12, 256032, Note_on_c, 5, 75, 78
12, 256115, Note_on_c, 5, 75, 0
12, 256128, Note_on_c, 5, 80, 78
12, 256211, Note_on_c, 5, 80, 0
12, 256224, Note_on_c, 5, 79, 78
12, 256307, Note_on_c, 5, 79, 0
12, 256320, Note_on_c, 5, 77, 78
12, 256403, Note_on_c, 5, 77, 0
12, 256416, Note_on_c, 5, 75, 78
12, 256499, Note_on_c, 5, 75, 0
12, 256512, Note_on_c, 5, 80, 78
12, 256595, Note_on_c, 5, 80, 0
12, 256608, Note_on_c, 5, 79, 78
12, 256691, Note_on_c, 5, 79, 0
12, 256704, Note_on_c, 5, 77, 78
12, 256787, Note_on_c, 5, 77, 0
12, 256800, Note_on_c, 5, 75, 78
12, 256883, Note_on_c, 5, 75, 0
12, 256896, Note_on_c, 5, 79, 78
12, 256973, Note_on_c, 5, 79, 0
12, 256992, Note_on_c, 5, 77, 78
12, 257069, Note_on_c, 5, 77, 0
12, 257088, Note_on_c, 5, 75, 78
12, 257165, Note_on_c, 5, 75, 0
12, 257184, Note_on_c, 5, 74, 78
12, 257261, Note_on_c, 5, 74, 0
12, 257280, Note_on_c, 5, 79, 78
12, 257357, Note_on_c, 5, 79, 0
12, 257376, Note_on_c, 5, 77, 78
12, 257453, Note_on_c, 5, 77, 0
12, 257472, Note_on_c, 5, 75, 78
12, 257549, Note_on_c, 5, 75, 0
12, 257568, Note_on_c, 5, 74, 78
12, 257645, Note_on_c, 5, 74, 0
12, 257664, Note_on_c, 5, 79, 78
12, 257741, Note_on_c, 5, 79, 0
12, 257760, Note_on_c, 5, 77, 78
12, 257837, Note_on_c, 5, 77, 0
12, 257837, End_track
13, 0, Start_track
13, 0, MIDI_port, 0
13, 0, Title_t, "French Horns"
13, 0, Program_c, 6, 60
13, 0, Control_c, 6, 7, 98
13, 0, Control_c, 6, 10, 101
13, 19200, Note_on_c, 6, 68, 78
13, 19200, Note_on_c, 6, 62, 78
13, 19200, Note_on_c, 6, 59, 78
13, 19200, Note_on_c, 6, 65, 78
13, 19392, Note_on_c, 6, 65, 0
13, 19392, Note_on_c, 6, 68, 0
13, 19392, Note_on_c, 6, 62, 0
13, 19392, Note_on_c, 6, 59, 0
13, 19392, Note_on_c, 6, 62, 78
13, 19392, Note_on_c, 6, 67, 78
13, 19392, Note_on_c, 6, 65, 78
13, 19392, Note_on_c, 6, 59, 78
13, 19776, Note_on_c, 6, 59, 0
13, 19776, Note_on_c, 6, 62, 0
13, 19776, Note_on_c, 6, 67, 0
13, 19776, Note_on_c, 6, 65, 0
13, 19776, Note_on_c, 6, 65, 78
13, 19776, Note_on_c, 6, 59, 78
13, 19776, Note_on_c, 6, 67, 78
13, 19776, Note_on_c, 6, 62, 78
13, 19968, Note_on_c, 6, 62, 0
13, 19968, Note_on_c, 6, 65, 0
13, 19968, Note_on_c, 6, 59, 0
13, 19968, Note_on_c, 6, 67, 0
13, 19968, Note_on_c, 6, 62, 78
13, 19968, Note_on_c, 6, 67, 78
13, 19968, Note_on_c, 6, 59, 78
13, 19968, Note_on_c, 6, 65, 78
13, 20160, Note_on_c, 6, 65, 0
13, 20160, Note_on_c, 6, 62, 0
13, 20160, Note_on_c, 6, 67, 0
13, 20160, Note_on_c, 6, 59, 0
13, 20160, Note_on_c, 6, 63, 78
13, 20160, Note_on_c, 6, 67, 78
13, 20160, Note_on_c, 6, 60, 78
13, 20256, Note_on_c, 6, 60, 0
13, 20256, Note_on_c, 6, 67, 0
13, 20256, Note_on_c, 6, 63, 0
13, 30528, Note_on_c, 6, 68, 78
13, 30528, Note_on_c, 6, 65, 78
13, 30528, Note_on_c, 6, 61, 78
13, 30576, Note_on_c, 6, 61, 0
13, 30576, Note_on_c, 6, 65, 0
13, 30576, Note_on_c, 6, 68, 0
13, 30576, Note_on_c, 6, 68, 78
13, 30576, Note_on_c, 6, 61, 78
13, 30576, Note_on_c, 6, 65, 78
13, 30624, Note_on_c, 6, 65, 0
13, 30624, Note_on_c, 6, 61, 0
13, 30624, Note_on_c, 6, 68, 0
13, 30624, Note_on_c, 6, 68, 78
13, 30624, Note_on_c, 6, 65, 78
13, 30624, Note_on_c, 6, 61, 78
13, 30672, Note_on_c, 6, 61, 0
13, 30672, Note_on_c, 6, 65, 0
13, 30672, Note_on_c, 6, 68, 0
13, 30672, Note_on_c, 6, 61, 78
13, 30672, Note_on_c, 6, 68, 78
13, 30672, Note_on_c, 6, 65, 78
13, 30720, Note_on_c, 6, 65, 0
13, 30720, Note_on_c, 6, 68, 0
13, 30720, Note_on_c, 6, 61, 0
13, 30720, Note_on_c, 6, 68, 78
13, 30720, Note_on_c, 6, 59, 78
13, 30720, Note_on_c, 6, 65, 78
13, 31104, Note_on_c, 6, 65, 0
13, 31104, Note_on_c, 6, 59, 0
13, 31104, Note_on_c, 6, 68, 0
13, 31104, Note_on_c, 6, 57, 78
13, 31104, Note_on_c, 6, 66, 78
13, 31680, Note_on_c, 6, 66, 0
13, 31680, Note_on_c, 6, 57, 0
13, 31680, Note_on_c, 6, 67, 78
13, 31680, Note_on_c, 6, 59, 78
13, 31872, Note_on_c, 6, 59, 0
13, 31872, Note_on_c, 6, 67, 0
13, 31872, Note_on_c, 6, 67, 78
13, 31872, Note_on_c, 6, 59, 78
13, 32064, Note_on_c, 6, 59, 0
13, 32064, Note_on_c, 6, 67, 0
13, 32064, Note_on_c, 6, 57, 78
13, 32064, Note_on_c, 6, 60, 78
13, 32256, Note_on_c, 6, 60, 0
13, 32256, Note_on_c, 6, 57, 0
13, 32256, Note_on_c, 6, 61, 78
13, 32256, Note_on_c, 6, 58, 78
13, 32448, Note_on_c, 6, 58, 0
13, 32448, Note_on_c, 6, 61, 0
13, 32448, Note_on_c, 6, 62, 78
13, 32448, Note_on_c, 6, 59, 78
13, 32640, Note_on_c, 6, 59, 0
13, 32640, Note_on_c, 6, 62, 0
13, 32640, Note_on_c, 6, 63, 78
13, 32640, Note_on_c, 6, 60, 78
13, 32832, Note_on_c, 6, 60, 0
13, 32832, Note_on_c, 6, 63, 0
13, 32832, Note_on_c, 6, 61, 78
13, 32832, Note_on_c, 6, 64, 78
13, 32928, Note_on_c, 6, 64, 0
13, 32928, Note_on_c, 6, 61, 0
13, 32928, Note_on_c, 6, 64, 78
13, 32928, Note_on_c, 6, 61, 78
13, 32960, Note_on_c, 6, 61, 0
13, 32960, Note_on_c, 6, 64, 0
13, 32960, Note_on_c, 6, 61, 78
13, 32960, Note_on_c, 6, 64, 78
13, 32992, Note_on_c, 6, 64, 0
13, 32992, Note_on_c, 6, 61, 0
13, 32992, Note_on_c, 6, 61, 78
13, 32992, Note_on_c, 6, 64, 78
13, 33024, Note_on_c, 6, 64, 0
13, 33024, Note_on_c, 6, 61, 0
13, 33024, Note_on_c, 6, 61, 78
13, 33024, Note_on_c, 6, 64, 78
13, 33216, Note_on_c, 6, 64, 0
13, 33216, Note_on_c, 6, 61, 0
13, 33216, Note_on_c, 6, 61, 78
13, 33216, Note_on_c, 6, 64, 78
13, 33312, Note_on_c, 6, 64, 0
13, 33312, Note_on_c, 6, 61, 0
13, 33312, Note_on_c, 6, 64, 78
13, 33312, Note_on_c, 6, 61, 78
13, 33344, Note_on_c, 6, 61, 0
13, 33344, Note_on_c, 6, 64, 0
13, 33344, Note_on_c, 6, 64, 78
13, 33344, Note_on_c, 6, 61, 78
13, 33376, Note_on_c, 6, 61, 0
13, 33376, Note_on_c, 6, 64, 0
13, 33376, Note_on_c, 6, 64, 78
13, 33376, Note_on_c, 6, 61, 78
13, 33408, Note_on_c, 6, 61, 0
13, 33408, Note_on_c, 6, 64, 0
13, 33408, Note_on_c, 6, 61, 78
13, 33408, Note_on_c, 6, 64, 78
13, 33600, Note_on_c, 6, 64, 0
13, 33600, Note_on_c, 6, 61, 0
13, 34176, Note_on_c, 6, 69, 78
13, 34464, Note_on_c, 6, 69, 0
13, 34464, Note_on_c, 6, 68, 78
13, 34560, Note_on_c, 6, 68, 0
13, 34560, Note_on_c, 6, 64, 78
13, 34656, Note_on_c, 6, 64, 0
13, 34656, Note_on_c, 6, 63, 78
13, 34752, Note_on_c, 6, 63, 0
13, 34752, Note_on_c, 6, 61, 78
13, 34848, Note_on_c, 6, 61, 0
13, 34848, Note_on_c, 6, 60, 78
13, 34944, Note_on_c, 6, 60, 0
13, 34944, Note_on_c, 6, 61, 78
13, 35040, Note_on_c, 6, 61, 0
13, 35040, Note_on_c, 6, 64, 78
13, 35136, Note_on_c, 6, 64, 0
13, 35136, Note_on_c, 6, 68, 78
13, 35232, Note_on_c, 6, 68, 0
13, 35424, Note_on_c, 6, 59, 78
13, 35424, Note_on_c, 6, 65, 78
13, 35424, Note_on_c, 6, 61, 78
13, 35424, Note_on_c, 6, 49, 78
13, 35520, Note_on_c, 6, 49, 0
13, 35520, Note_on_c, 6, 59, 0
13, 35520, Note_on_c, 6, 65, 0
13, 35520, Note_on_c, 6, 61, 0
13, 35520, Note_on_c, 6, 61, 78
13, 35520, Note_on_c, 6, 51, 78
13, 35520, Note_on_c, 6, 66, 78
13, 35520, Note_on_c, 6, 59, 78
13, 35616, Note_on_c, 6, 59, 0
13, 35616, Note_on_c, 6, 61, 0
13, 35616, Note_on_c, 6, 51, 0
13, 35616, Note_on_c, 6, 66, 0
13, 35616, Note_on_c, 6, 61, 78
13, 35616, Note_on_c, 6, 68, 78
13, 35616, Note_on_c, 6, 59, 78
13, 35616, Note_on_c, 6, 53, 78
13, 35712, Note_on_c, 6, 53, 0
13, 35712, Note_on_c, 6, 61, 0
13, 35712, Note_on_c, 6, 68, 0
13, 35712, Note_on_c, 6, 59, 0
13, 35712, Note_on_c, 6, 61, 78
13, 35712, Note_on_c, 6, 57, 78
13, 35712, Note_on_c, 6, 69, 78
13, 35712, Note_on_c, 6, 54, 78
13, 35808, Note_on_c, 6, 54, 0
13, 35808, Note_on_c, 6, 61, 0
13, 35808, Note_on_c, 6, 57, 0
13, 35808, Note_on_c, 6, 69, 0
13, 36480, Note_on_c, 6, 62, 78
13, 36768, Note_on_c, 6, 62, 0
13, 36768, Note_on_c, 6, 61, 78
13, 36864, Note_on_c, 6, 61, 0
13, 36864, Note_on_c, 6, 57, 78
13, 36960, Note_on_c, 6, 57, 0
13, 36960, Note_on_c, 6, 56, 78
13, 37056, Note_on_c, 6, 56, 0
13, 37056, Note_on_c, 6, 54, 78
13, 37152, Note_on_c, 6, 54, 0
13, 37152, Note_on_c, 6, 53, 78
13, 37248, Note_on_c, 6, 53, 0
13, 37248, Note_on_c, 6, 54, 78
13, 37344, Note_on_c, 6, 54, 0
13, 37344, Note_on_c, 6, 57, 78
13, 37440, Note_on_c, 6, 57, 0
13, 37440, Note_on_c, 6, 61, 78
13, 37584, Note_on_c, 6, 61, 0
13, 37584, Note_on_c, 6, 66, 78
13, 37632, Note_on_c, 6, 66, 0
13, 37632, Note_on_c, 6, 69, 78
13, 37728, Note_on_c, 6, 69, 0
13, 37728, Note_on_c, 6, 66, 78
13, 37728, Note_on_c, 6, 58, 78
13, 37728, Note_on_c, 6, 70, 78
13, 37728, Note_on_c, 6, 64, 78
13, 37824, Note_on_c, 6, 64, 0
13, 37824, Note_on_c, 6, 66, 0
13, 37824, Note_on_c, 6, 58, 0
13, 37824, Note_on_c, 6, 70, 0
13, 37824, Note_on_c, 6, 70, 78
13, 37824, Note_on_c, 6, 66, 78
13, 37824, Note_on_c, 6, 64, 78
13, 37824, Note_on_c, 6, 58, 78
13, 37920, Note_on_c, 6, 58, 0
13, 37920, Note_on_c, 6, 70, 0
13, 37920, Note_on_c, 6, 66, 0
13, 37920, Note_on_c, 6, 64, 0
13, 37920, Note_on_c, 6, 66, 78
13, 37920, Note_on_c, 6, 64, 78
13, 37920, Note_on_c, 6, 61, 78
13, 38016, Note_on_c, 6, 61, 0
13, 38016, Note_on_c, 6, 64, 0
13, 38016, Note_on_c, 6, 66, 0
13, 38016, Note_on_c, 6, 62, 78
13, 38016, Note_on_c, 6, 66, 78
13, 38112, Note_on_c, 6, 66, 0
13, 38112, Note_on_c, 6, 62, 0
13, 38208, Note_on_c, 6, 66, 78
13, 38208, Note_on_c, 6, 62, 78
13, 38400, Note_on_c, 6, 62, 0
13, 38400, Note_on_c, 6, 66, 0
13, 38400, Note_on_c, 6, 67, 78
13, 38400, Note_on_c, 6, 59, 78
13, 38592, Note_on_c, 6, 59, 0
13, 38592, Note_on_c, 6, 67, 0
13, 38592, Note_on_c, 6, 62, 78
13, 38592, Note_on_c, 6, 68, 78
13, 38784, Note_on_c, 6, 68, 0
13, 38784, Note_on_c, 6, 62, 0
13, 38784, Note_on_c, 6, 69, 78
13, 38784, Note_on_c, 6, 61, 78
13, 38976, Note_on_c, 6, 61, 0
13, 38976, Note_on_c, 6, 69, 0
13, 38976, Note_on_c, 6, 70, 78
13, 38976, Note_on_c, 6, 64, 78
13, 39168, Note_on_c, 6, 64, 0
13, 39168, Note_on_c, 6, 70, 0
13, 39168, Note_on_c, 6, 62, 78
13, 39168, Note_on_c, 6, 71, 78
13, 39360, Note_on_c, 6, 71, 0
13, 39360, Note_on_c, 6, 62, 0
13, 39360, Note_on_c, 6, 72, 78
13, 39360, Note_on_c, 6, 66, 78
13, 39456, Note_on_c, 6, 66, 0
13, 39456, Note_on_c, 6, 72, 0
13, 39744, Note_on_c, 6, 69, 78
13, 39744, Note_on_c, 6, 66, 78
13, 39744, Note_on_c, 6, 63, 78
13, 39744, Note_on_c, 6, 60, 78
13, 39840, Note_on_c, 6, 60, 0
13, 39840, Note_on_c, 6, 69, 0
13, 39840, Note_on_c, 6, 66, 0
13, 39840, Note_on_c, 6, 63, 0
13, 39840, Note_on_c, 6, 63, 78
13, 39840, Note_on_c, 6, 72, 78
13, 39840, Note_on_c, 6, 65, 78
13, 39840, Note_on_c, 6, 57, 78
13, 39936, Note_on_c, 6, 57, 0
13, 39936, Note_on_c, 6, 63, 0
13, 39936, Note_on_c, 6, 72, 0
13, 39936, Note_on_c, 6, 65, 0
13, 39936, Note_on_c, 6, 69, 78
13, 39936, Note_on_c, 6, 63, 78
13, 39936, Note_on_c, 6, 60, 78
13, 39936, Note_on_c, 6, 57, 78
13, 40032, Note_on_c, 6, 57, 0
13, 40032, Note_on_c, 6, 69, 0
13, 40032, Note_on_c, 6, 63, 0
13, 40032, Note_on_c, 6, 60, 0
13, 40032, Note_on_c, 6, 69, 78
13, 40032, Note_on_c, 6, 66, 78
13, 40032, Note_on_c, 6, 60, 78
13, 40032, Note_on_c, 6, 57, 78
13, 40128, Note_on_c, 6, 57, 0
13, 40128, Note_on_c, 6, 69, 0
13, 40128, Note_on_c, 6, 66, 0
13, 40128, Note_on_c, 6, 60, 0
13, 40128, Note_on_c, 6, 69, 78
13, 40128, Note_on_c, 6, 57, 78
13, 40128, Note_on_c, 6, 66, 78
13, 40128, Note_on_c, 6, 63, 78
13, 40224, Note_on_c, 6, 63, 0
13, 40224, Note_on_c, 6, 69, 0
13, 40224, Note_on_c, 6, 57, 0
13, 40224, Note_on_c, 6, 66, 0
13, 40224, Note_on_c, 6, 69, 78
13, 40224, Note_on_c, 6, 66, 78
13, 40224, Note_on_c, 6, 63, 78
13, 40224, Note_on_c, 6, 57, 78
13, 40320, Note_on_c, 6, 57, 0
13, 40320, Note_on_c, 6, 69, 0
13, 40320, Note_on_c, 6, 66, 0
13, 40320, Note_on_c, 6, 63, 0
13, 40320, Note_on_c, 6, 66, 78
13, 40320, Note_on_c, 6, 70, 78
13, 40320, Note_on_c, 6, 58, 78
13, 40320, Note_on_c, 6, 63, 78
13, 40512, Note_on_c, 6, 63, 0
13, 40512, Note_on_c, 6, 66, 0
13, 40512, Note_on_c, 6, 70, 0
13, 40512, Note_on_c, 6, 58, 0
13, 40512, Note_on_c, 6, 72, 78
13, 40512, Note_on_c, 6, 66, 78
13, 40512, Note_on_c, 6, 60, 78
13, 40512, Note_on_c, 6, 63, 78
13, 40704, Note_on_c, 6, 63, 0
13, 40704, Note_on_c, 6, 72, 0
13, 40704, Note_on_c, 6, 66, 0
13, 40704, Note_on_c, 6, 60, 0
13, 44592, Note_on_c, 6, 58, 78
13, 44612, Note_on_c, 6, 58, 0
13, 44616, Note_on_c, 6, 58, 78
13, 44636, Note_on_c, 6, 58, 0
13, 44640, Note_on_c, 6, 63, 78
13, 44640, Note_on_c, 6, 55, 78
13, 44680, Note_on_c, 6, 55, 0
13, 44680, Note_on_c, 6, 63, 0
13, 44688, Note_on_c, 6, 65, 78
13, 44688, Note_on_c, 6, 58, 78
13, 44728, Note_on_c, 6, 58, 0
13, 44728, Note_on_c, 6, 65, 0
13, 44736, Note_on_c, 6, 67, 78
13, 44736, Note_on_c, 6, 63, 78
13, 44776, Note_on_c, 6, 63, 0
13, 44776, Note_on_c, 6, 67, 0
13, 44784, Note_on_c, 6, 65, 78
13, 44784, Note_on_c, 6, 58, 78
13, 44824, Note_on_c, 6, 58, 0
13, 44824, Note_on_c, 6, 65, 0
13, 44832, Note_on_c, 6, 63, 78
13, 44832, Note_on_c, 6, 55, 78
13, 44872, Note_on_c, 6, 55, 0
13, 44872, Note_on_c, 6, 63, 0
13, 44880, Note_on_c, 6, 65, 78
13, 44880, Note_on_c, 6, 58, 78
13, 44920, Note_on_c, 6, 58, 0
13, 44920, Note_on_c, 6, 65, 0
13, 44928, Note_on_c, 6, 63, 78
13, 44928, Note_on_c, 6, 67, 78
13, 44964, Note_on_c, 6, 67, 0
13, 44964, Note_on_c, 6, 63, 0
13, 45024, Note_on_c, 6, 55, 78
13, 45024, Note_on_c, 6, 63, 78
13, 45060, Note_on_c, 6, 63, 0
13, 45060, Note_on_c, 6, 55, 0
13, 45120, Note_on_c, 6, 63, 78
13, 45120, Note_on_c, 6, 55, 78
13, 45312, Note_on_c, 6, 55, 0
13, 45312, Note_on_c, 6, 63, 0
13, 45360, Note_on_c, 6, 58, 78
13, 45380, Note_on_c, 6, 58, 0
13, 45384, Note_on_c, 6, 58, 78
13, 45404, Note_on_c, 6, 58, 0
13, 45408, Note_on_c, 6, 63, 78
13, 45408, Note_on_c, 6, 55, 78
13, 45448, Note_on_c, 6, 55, 0
13, 45448, Note_on_c, 6, 63, 0
13, 45456, Note_on_c, 6, 58, 78
13, 45456, Note_on_c, 6, 65, 78
13, 45496, Note_on_c, 6, 65, 0
13, 45496, Note_on_c, 6, 58, 0
13, 45504, Note_on_c, 6, 63, 78
13, 45504, Note_on_c, 6, 67, 78
13, 45544, Note_on_c, 6, 67, 0
13, 45544, Note_on_c, 6, 63, 0
13, 45552, Note_on_c, 6, 58, 78
13, 45552, Note_on_c, 6, 65, 78
13, 45592, Note_on_c, 6, 65, 0
13, 45592, Note_on_c, 6, 58, 0
13, 45600, Note_on_c, 6, 63, 78
13, 45600, Note_on_c, 6, 55, 78
13, 45640, Note_on_c, 6, 55, 0
13, 45640, Note_on_c, 6, 63, 0
13, 45648, Note_on_c, 6, 58, 78
13, 45648, Note_on_c, 6, 65, 78
13, 45688, Note_on_c, 6, 65, 0
13, 45688, Note_on_c, 6, 58, 0
13, 45696, Note_on_c, 6, 63, 78
13, 45696, Note_on_c, 6, 67, 78
13, 45732, Note_on_c, 6, 67, 0
13, 45732, Note_on_c, 6, 63, 0
13, 45792, Note_on_c, 6, 63, 78
13, 45792, Note_on_c, 6, 55, 78
13, 45828, Note_on_c, 6, 55, 0
13, 45828, Note_on_c, 6, 63, 0
13, 45888, Note_on_c, 6, 55, 78
13, 45888, Note_on_c, 6, 63, 78
13, 46080, Note_on_c, 6, 63, 0
13, 46080, Note_on_c, 6, 55, 0
13, 46128, Note_on_c, 6, 60, 78
13, 46148, Note_on_c, 6, 60, 0
13, 46152, Note_on_c, 6, 60, 78
13, 46172, Note_on_c, 6, 60, 0
13, 46176, Note_on_c, 6, 65, 78
13, 46176, Note_on_c, 6, 56, 78
13, 46216, Note_on_c, 6, 56, 0
13, 46216, Note_on_c, 6, 65, 0
13, 46224, Note_on_c, 6, 67, 78
13, 46224, Note_on_c, 6, 60, 78
13, 46264, Note_on_c, 6, 60, 0
13, 46264, Note_on_c, 6, 67, 0
13, 46272, Note_on_c, 6, 65, 78
13, 46272, Note_on_c, 6, 56, 78
13, 46312, Note_on_c, 6, 56, 0
13, 46312, Note_on_c, 6, 65, 0
13, 46320, Note_on_c, 6, 60, 78
13, 46320, Note_on_c, 6, 55, 78
13, 46360, Note_on_c, 6, 55, 0
13, 46360, Note_on_c, 6, 60, 0
13, 46368, Note_on_c, 6, 53, 78
13, 46408, Note_on_c, 6, 53, 0
13, 46416, Note_on_c, 6, 55, 78
13, 46416, Note_on_c, 6, 60, 78
13, 46456, Note_on_c, 6, 60, 0
13, 46456, Note_on_c, 6, 55, 0
13, 46464, Note_on_c, 6, 65, 78
13, 46464, Note_on_c, 6, 56, 78
13, 46504, Note_on_c, 6, 56, 0
13, 46504, Note_on_c, 6, 65, 0
13, 46512, Note_on_c, 6, 60, 78
13, 46512, Note_on_c, 6, 55, 78
13, 46552, Note_on_c, 6, 55, 0
13, 46552, Note_on_c, 6, 60, 0
13, 46560, Note_on_c, 6, 53, 78
13, 46560, Note_on_c, 6, 56, 78
13, 46600, Note_on_c, 6, 56, 0
13, 46600, Note_on_c, 6, 53, 0
13, 46608, Note_on_c, 6, 55, 78
13, 46608, Note_on_c, 6, 60, 78
13, 46648, Note_on_c, 6, 60, 0
13, 46648, Note_on_c, 6, 55, 0
13, 46656, Note_on_c, 6, 56, 78
13, 46656, Note_on_c, 6, 65, 78
13, 46848, Note_on_c, 6, 65, 0
13, 46848, Note_on_c, 6, 56, 0
13, 46896, Note_on_c, 6, 58, 78
13, 46916, Note_on_c, 6, 58, 0
13, 46920, Note_on_c, 6, 58, 78
13, 46940, Note_on_c, 6, 58, 0
13, 46944, Note_on_c, 6, 63, 78
13, 46944, Note_on_c, 6, 55, 78
13, 46984, Note_on_c, 6, 55, 0
13, 46984, Note_on_c, 6, 63, 0
13, 46992, Note_on_c, 6, 58, 78
13, 46992, Note_on_c, 6, 65, 78
13, 47032, Note_on_c, 6, 65, 0
13, 47032, Note_on_c, 6, 58, 0
13, 47040, Note_on_c, 6, 55, 78
13, 47040, Note_on_c, 6, 63, 78
13, 47080, Note_on_c, 6, 63, 0
13, 47080, Note_on_c, 6, 55, 0
13, 47088, Note_on_c, 6, 58, 78
13, 47088, Note_on_c, 6, 53, 78
13, 47128, Note_on_c, 6, 53, 0
13, 47128, Note_on_c, 6, 58, 0
13, 47136, Note_on_c, 6, 51, 78
13, 47136, Note_on_c, 6, 55, 78
13, 47176, Note_on_c, 6, 55, 0
13, 47176, Note_on_c, 6, 51, 0
13, 47184, Note_on_c, 6, 58, 78
13, 47184, Note_on_c, 6, 53, 78
13, 47224, Note_on_c, 6, 53, 0
13, 47224, Note_on_c, 6, 58, 0
13, 47232, Note_on_c, 6, 63, 78
13, 47232, Note_on_c, 6, 53, 78
13, 47272, Note_on_c, 6, 53, 0
13, 47272, Note_on_c, 6, 63, 0
13, 47280, Note_on_c, 6, 58, 78
13, 47280, Note_on_c, 6, 53, 78
13, 47320, Note_on_c, 6, 53, 0
13, 47320, Note_on_c, 6, 58, 0
13, 47328, Note_on_c, 6, 55, 78
13, 47328, Note_on_c, 6, 51, 78
13, 47368, Note_on_c, 6, 51, 0
13, 47368, Note_on_c, 6, 55, 0
13, 47376, Note_on_c, 6, 58, 78
13, 47376, Note_on_c, 6, 53, 78
13, 47416, Note_on_c, 6, 53, 0
13, 47416, Note_on_c, 6, 58, 0
13, 47424, Note_on_c, 6, 55, 78
13, 47424, Note_on_c, 6, 63, 78
13, 47616, Note_on_c, 6, 63, 0
13, 47616, Note_on_c, 6, 55, 0
13, 47664, Note_on_c, 6, 58, 78
13, 47682, Note_on_c, 6, 58, 0
13, 47688, Note_on_c, 6, 58, 78
13, 47706, Note_on_c, 6, 58, 0
13, 47712, Note_on_c, 6, 63, 78
13, 47712, Note_on_c, 6, 55, 78
13, 47748, Note_on_c, 6, 55, 0
13, 47748, Note_on_c, 6, 63, 0
13, 47760, Note_on_c, 6, 58, 78
13, 47760, Note_on_c, 6, 65, 78
13, 47796, Note_on_c, 6, 65, 0
13, 47796, Note_on_c, 6, 58, 0
13, 47808, Note_on_c, 6, 63, 78
13, 47808, Note_on_c, 6, 67, 78
13, 47844, Note_on_c, 6, 67, 0
13, 47844, Note_on_c, 6, 63, 0
13, 47856, Note_on_c, 6, 65, 78
13, 47856, Note_on_c, 6, 58, 78
13, 47892, Note_on_c, 6, 58, 0
13, 47892, Note_on_c, 6, 65, 0
13, 47904, Note_on_c, 6, 63, 78
13, 47904, Note_on_c, 6, 55, 78
13, 47940, Note_on_c, 6, 55, 0
13, 47940, Note_on_c, 6, 63, 0
13, 47952, Note_on_c, 6, 58, 78
13, 47952, Note_on_c, 6, 65, 78
13, 47988, Note_on_c, 6, 65, 0
13, 47988, Note_on_c, 6, 58, 0
13, 48000, Note_on_c, 6, 67, 78
13, 48000, Note_on_c, 6, 63, 78
13, 48036, Note_on_c, 6, 63, 0
13, 48036, Note_on_c, 6, 67, 0
13, 48096, Note_on_c, 6, 63, 78
13, 48096, Note_on_c, 6, 55, 78
13, 48132, Note_on_c, 6, 55, 0
13, 48132, Note_on_c, 6, 63, 0
13, 48192, Note_on_c, 6, 55, 78
13, 48192, Note_on_c, 6, 63, 78
13, 48383, Note_on_c, 6, 63, 0
13, 48383, Note_on_c, 6, 55, 0
13, 48432, Note_on_c, 6, 58, 78
13, 48450, Note_on_c, 6, 58, 0
13, 48456, Note_on_c, 6, 58, 78
13, 48474, Note_on_c, 6, 58, 0
13, 48480, Note_on_c, 6, 63, 78
13, 48480, Note_on_c, 6, 55, 78
13, 48516, Note_on_c, 6, 55, 0
13, 48516, Note_on_c, 6, 63, 0
13, 48528, Note_on_c, 6, 65, 78
13, 48528, Note_on_c, 6, 58, 78
13, 48564, Note_on_c, 6, 58, 0
13, 48564, Note_on_c, 6, 65, 0
13, 48576, Note_on_c, 6, 67, 78
13, 48576, Note_on_c, 6, 63, 78
13, 48612, Note_on_c, 6, 63, 0
13, 48612, Note_on_c, 6, 67, 0
13, 48624, Note_on_c, 6, 58, 78
13, 48624, Note_on_c, 6, 65, 78
13, 48660, Note_on_c, 6, 65, 0
13, 48660, Note_on_c, 6, 58, 0
13, 48672, Note_on_c, 6, 55, 78
13, 48672, Note_on_c, 6, 63, 78
13, 48708, Note_on_c, 6, 63, 0
13, 48708, Note_on_c, 6, 55, 0
13, 48720, Note_on_c, 6, 58, 78
13, 48720, Note_on_c, 6, 65, 78
13, 48756, Note_on_c, 6, 65, 0
13, 48756, Note_on_c, 6, 58, 0
13, 48768, Note_on_c, 6, 63, 78
13, 48768, Note_on_c, 6, 67, 78
13, 48804, Note_on_c, 6, 67, 0
13, 48804, Note_on_c, 6, 63, 0
13, 48864, Note_on_c, 6, 55, 78
13, 48864, Note_on_c, 6, 63, 78
13, 48900, Note_on_c, 6, 63, 0
13, 48900, Note_on_c, 6, 55, 0
13, 48960, Note_on_c, 6, 55, 78
13, 48960, Note_on_c, 6, 63, 78
13, 49151, Note_on_c, 6, 63, 0
13, 49151, Note_on_c, 6, 55, 0
13, 49200, Note_on_c, 6, 60, 78
13, 49218, Note_on_c, 6, 60, 0
13, 49224, Note_on_c, 6, 60, 78
13, 49242, Note_on_c, 6, 60, 0
13, 49248, Note_on_c, 6, 56, 78
13, 49248, Note_on_c, 6, 65, 78
13, 49284, Note_on_c, 6, 65, 0
13, 49284, Note_on_c, 6, 56, 0
13, 49296, Note_on_c, 6, 67, 78
13, 49296, Note_on_c, 6, 60, 78
13, 49332, Note_on_c, 6, 60, 0
13, 49332, Note_on_c, 6, 67, 0
13, 49344, Note_on_c, 6, 56, 78
13, 49344, Note_on_c, 6, 65, 78
13, 49380, Note_on_c, 6, 65, 0
13, 49380, Note_on_c, 6, 56, 0
13, 49392, Note_on_c, 6, 60, 78
13, 49392, Note_on_c, 6, 55, 78
13, 49428, Note_on_c, 6, 55, 0
13, 49428, Note_on_c, 6, 60, 0
13, 49440, Note_on_c, 6, 53, 78
13, 49476, Note_on_c, 6, 53, 0
13, 49488, Note_on_c, 6, 55, 78
13, 49488, Note_on_c, 6, 60, 78
13, 49524, Note_on_c, 6, 60, 0
13, 49524, Note_on_c, 6, 55, 0
13, 49536, Note_on_c, 6, 56, 78
13, 49536, Note_on_c, 6, 65, 78
13, 49572, Note_on_c, 6, 65, 0
13, 49572, Note_on_c, 6, 56, 0
13, 49584, Note_on_c, 6, 60, 78
13, 49584, Note_on_c, 6, 55, 78
13, 49620, Note_on_c, 6, 55, 0
13, 49620, Note_on_c, 6, 60, 0
13, 49632, Note_on_c, 6, 56, 78
13, 49632, Note_on_c, 6, 53, 78
13, 49668, Note_on_c, 6, 53, 0
13, 49668, Note_on_c, 6, 56, 0
13, 49680, Note_on_c, 6, 60, 78
13, 49680, Note_on_c, 6, 55, 78
13, 49716, Note_on_c, 6, 55, 0
13, 49716, Note_on_c, 6, 60, 0
13, 49728, Note_on_c, 6, 56, 78
13, 49728, Note_on_c, 6, 65, 78
13, 49919, Note_on_c, 6, 65, 0
13, 49919, Note_on_c, 6, 56, 0
13, 49968, Note_on_c, 6, 58, 78
13, 49986, Note_on_c, 6, 58, 0
13, 49992, Note_on_c, 6, 58, 78
13, 50010, Note_on_c, 6, 58, 0
13, 50016, Note_on_c, 6, 63, 78
13, 50016, Note_on_c, 6, 55, 78
13, 50052, Note_on_c, 6, 55, 0
13, 50052, Note_on_c, 6, 63, 0
13, 50064, Note_on_c, 6, 58, 78
13, 50064, Note_on_c, 6, 65, 78
13, 50100, Note_on_c, 6, 65, 0
13, 50100, Note_on_c, 6, 58, 0
13, 50112, Note_on_c, 6, 63, 78
13, 50112, Note_on_c, 6, 55, 78
13, 50148, Note_on_c, 6, 55, 0
13, 50148, Note_on_c, 6, 63, 0
13, 50160, Note_on_c, 6, 53, 78
13, 50160, Note_on_c, 6, 58, 78
13, 50196, Note_on_c, 6, 58, 0
13, 50196, Note_on_c, 6, 53, 0
13, 50208, Note_on_c, 6, 51, 78
13, 50208, Note_on_c, 6, 55, 78
13, 50244, Note_on_c, 6, 55, 0
13, 50244, Note_on_c, 6, 51, 0
13, 50256, Note_on_c, 6, 58, 78
13, 50256, Note_on_c, 6, 53, 78
13, 50292, Note_on_c, 6, 53, 0
13, 50292, Note_on_c, 6, 58, 0
13, 50304, Note_on_c, 6, 55, 78
13, 50304, Note_on_c, 6, 63, 78
13, 50340, Note_on_c, 6, 63, 0
13, 50340, Note_on_c, 6, 55, 0
13, 50352, Note_on_c, 6, 53, 78
13, 50352, Note_on_c, 6, 58, 78
13, 50388, Note_on_c, 6, 58, 0
13, 50388, Note_on_c, 6, 53, 0
13, 50400, Note_on_c, 6, 55, 78
13, 50400, Note_on_c, 6, 51, 78
13, 50436, Note_on_c, 6, 51, 0
13, 50436, Note_on_c, 6, 55, 0
13, 50448, Note_on_c, 6, 53, 78
13, 50448, Note_on_c, 6, 58, 78
13, 50484, Note_on_c, 6, 58, 0
13, 50484, Note_on_c, 6, 53, 0
13, 50496, Note_on_c, 6, 63, 78
13, 50496, Note_on_c, 6, 55, 78
13, 50687, Note_on_c, 6, 55, 0
13, 50687, Note_on_c, 6, 63, 0
13, 50736, Note_on_c, 6, 58, 78
13, 50754, Note_on_c, 6, 58, 0
13, 50760, Note_on_c, 6, 58, 78
13, 50778, Note_on_c, 6, 58, 0
13, 50784, Note_on_c, 6, 63, 78
13, 50784, Note_on_c, 6, 55, 78
13, 50820, Note_on_c, 6, 55, 0
13, 50820, Note_on_c, 6, 63, 0
13, 50832, Note_on_c, 6, 58, 78
13, 50832, Note_on_c, 6, 65, 78
13, 50868, Note_on_c, 6, 65, 0
13, 50868, Note_on_c, 6, 58, 0
13, 50880, Note_on_c, 6, 63, 78
13, 50880, Note_on_c, 6, 67, 78
13, 50916, Note_on_c, 6, 67, 0
13, 50916, Note_on_c, 6, 63, 0
13, 50928, Note_on_c, 6, 65, 78
13, 50928, Note_on_c, 6, 58, 78
13, 50964, Note_on_c, 6, 58, 0
13, 50964, Note_on_c, 6, 65, 0
13, 50976, Note_on_c, 6, 63, 78
13, 50976, Note_on_c, 6, 55, 78
13, 51012, Note_on_c, 6, 55, 0
13, 51012, Note_on_c, 6, 63, 0
13, 51024, Note_on_c, 6, 58, 78
13, 51024, Note_on_c, 6, 65, 78
13, 51060, Note_on_c, 6, 65, 0
13, 51060, Note_on_c, 6, 58, 0
13, 51072, Note_on_c, 6, 67, 78
13, 51072, Note_on_c, 6, 63, 78
13, 51108, Note_on_c, 6, 63, 0
13, 51108, Note_on_c, 6, 67, 0
13, 51168, Note_on_c, 6, 63, 78
13, 51168, Note_on_c, 6, 55, 78
13, 51204, Note_on_c, 6, 55, 0
13, 51204, Note_on_c, 6, 63, 0
13, 51264, Note_on_c, 6, 55, 78
13, 51264, Note_on_c, 6, 63, 78
13, 51455, Note_on_c, 6, 63, 0
13, 51455, Note_on_c, 6, 55, 0
13, 51504, Note_on_c, 6, 58, 78
13, 51522, Note_on_c, 6, 58, 0
13, 51528, Note_on_c, 6, 58, 78
13, 51546, Note_on_c, 6, 58, 0
13, 51552, Note_on_c, 6, 63, 78
13, 51552, Note_on_c, 6, 55, 78
13, 51588, Note_on_c, 6, 55, 0
13, 51588, Note_on_c, 6, 63, 0
13, 51600, Note_on_c, 6, 58, 78
13, 51600, Note_on_c, 6, 65, 78
13, 51636, Note_on_c, 6, 65, 0
13, 51636, Note_on_c, 6, 58, 0
13, 51648, Note_on_c, 6, 63, 78
13, 51648, Note_on_c, 6, 67, 78
13, 51684, Note_on_c, 6, 67, 0
13, 51684, Note_on_c, 6, 63, 0
13, 51696, Note_on_c, 6, 65, 78
13, 51696, Note_on_c, 6, 58, 78
13, 51732, Note_on_c, 6, 58, 0
13, 51732, Note_on_c, 6, 65, 0
13, 51744, Note_on_c, 6, 63, 78
13, 51744, Note_on_c, 6, 55, 78
13, 51780, Note_on_c, 6, 55, 0
13, 51780, Note_on_c, 6, 63, 0
13, 51792, Note_on_c, 6, 58, 78
13, 51792, Note_on_c, 6, 65, 78
13, 51828, Note_on_c, 6, 65, 0
13, 51828, Note_on_c, 6, 58, 0
13, 51840, Note_on_c, 6, 67, 78
13, 51840, Note_on_c, 6, 63, 78
13, 51876, Note_on_c, 6, 63, 0
13, 51876, Note_on_c, 6, 67, 0
13, 51936, Note_on_c, 6, 63, 78
13, 51936, Note_on_c, 6, 55, 78
13, 51972, Note_on_c, 6, 55, 0
13, 51972, Note_on_c, 6, 63, 0
13, 52032, Note_on_c, 6, 55, 78
13, 52032, Note_on_c, 6, 63, 78
13, 52224, Note_on_c, 6, 63, 0
13, 52224, Note_on_c, 6, 55, 0
13, 52272, Note_on_c, 6, 57, 78
13, 52292, Note_on_c, 6, 57, 0
13, 52296, Note_on_c, 6, 57, 78
13, 52316, Note_on_c, 6, 57, 0
13, 52320, Note_on_c, 6, 54, 78
13, 52320, Note_on_c, 6, 63, 78
13, 52356, Note_on_c, 6, 63, 0
13, 52356, Note_on_c, 6, 54, 0
13, 52368, Note_on_c, 6, 57, 78
13, 52368, Note_on_c, 6, 65, 78
13, 52404, Note_on_c, 6, 65, 0
13, 52404, Note_on_c, 6, 57, 0
13, 52416, Note_on_c, 6, 66, 78
13, 52416, Note_on_c, 6, 63, 78
13, 52992, Note_on_c, 6, 63, 0
13, 52992, Note_on_c, 6, 66, 0
13, 53040, Note_on_c, 6, 57, 78
13, 53060, Note_on_c, 6, 57, 0
13, 53064, Note_on_c, 6, 57, 78
13, 53084, Note_on_c, 6, 57, 0
13, 53088, Note_on_c, 6, 63, 78
13, 53088, Note_on_c, 6, 54, 78
13, 53124, Note_on_c, 6, 54, 0
13, 53124, Note_on_c, 6, 63, 0
13, 53136, Note_on_c, 6, 57, 78
13, 53136, Note_on_c, 6, 65, 78
13, 53172, Note_on_c, 6, 65, 0
13, 53172, Note_on_c, 6, 57, 0
13, 53184, Note_on_c, 6, 63, 78
13, 53184, Note_on_c, 6, 66, 78
13, 53760, Note_on_c, 6, 66, 0
13, 53760, Note_on_c, 6, 63, 0
13, 53808, Note_on_c, 6, 57, 78
13, 53828, Note_on_c, 6, 57, 0
13, 53832, Note_on_c, 6, 57, 78
13, 53852, Note_on_c, 6, 57, 0
13, 53856, Note_on_c, 6, 54, 78
13, 53856, Note_on_c, 6, 63, 78
13, 53892, Note_on_c, 6, 63, 0
13, 53892, Note_on_c, 6, 54, 0
13, 53904, Note_on_c, 6, 57, 78
13, 53904, Note_on_c, 6, 65, 78
13, 53940, Note_on_c, 6, 65, 0
13, 53940, Note_on_c, 6, 57, 0
13, 53952, Note_on_c, 6, 63, 78
13, 53952, Note_on_c, 6, 66, 78
13, 54528, Note_on_c, 6, 66, 0
13, 54528, Note_on_c, 6, 63, 0
13, 54576, Note_on_c, 6, 57, 78
13, 54596, Note_on_c, 6, 57, 0
13, 54600, Note_on_c, 6, 57, 78
13, 54620, Note_on_c, 6, 57, 0
13, 54624, Note_on_c, 6, 54, 78
13, 54624, Note_on_c, 6, 63, 78
13, 54660, Note_on_c, 6, 63, 0
13, 54660, Note_on_c, 6, 54, 0
13, 54672, Note_on_c, 6, 65, 78
13, 54672, Note_on_c, 6, 57, 78
13, 54708, Note_on_c, 6, 57, 0
13, 54708, Note_on_c, 6, 65, 0
13, 54720, Note_on_c, 6, 66, 78
13, 54720, Note_on_c, 6, 63, 78
13, 55296, Note_on_c, 6, 63, 0
13, 55296, Note_on_c, 6, 66, 0
13, 69792, Note_on_c, 6, 63, 78
13, 69792, Note_on_c, 6, 58, 78
13, 69888, Note_on_c, 6, 58, 0
13, 69888, Note_on_c, 6, 63, 0
13, 69888, Note_on_c, 6, 62, 78
13, 69888, Note_on_c, 6, 58, 78
13, 69984, Note_on_c, 6, 58, 0
13, 69984, Note_on_c, 6, 62, 0
13, 69984, Note_on_c, 6, 58, 78
13, 69984, Note_on_c, 6, 63, 78
13, 70080, Note_on_c, 6, 63, 0
13, 70080, Note_on_c, 6, 58, 0
13, 70176, Note_on_c, 6, 64, 78
13, 70176, Note_on_c, 6, 59, 78
13, 70272, Note_on_c, 6, 59, 0
13, 70272, Note_on_c, 6, 64, 0
13, 70272, Note_on_c, 6, 63, 78
13, 70272, Note_on_c, 6, 59, 78
13, 70368, Note_on_c, 6, 59, 0
13, 70368, Note_on_c, 6, 63, 0
13, 70368, Note_on_c, 6, 64, 78
13, 70368, Note_on_c, 6, 59, 78
13, 70464, Note_on_c, 6, 59, 0
13, 70464, Note_on_c, 6, 64, 0
13, 70560, Note_on_c, 6, 60, 78
13, 70560, Note_on_c, 6, 65, 78
13, 70656, Note_on_c, 6, 65, 0
13, 70656, Note_on_c, 6, 60, 0
13, 70656, Note_on_c, 6, 64, 78
13, 70656, Note_on_c, 6, 60, 78
13, 70752, Note_on_c, 6, 60, 0
13, 70752, Note_on_c, 6, 64, 0
13, 70752, Note_on_c, 6, 65, 78
13, 70752, Note_on_c, 6, 60, 78
13, 70848, Note_on_c, 6, 60, 0
13, 70848, Note_on_c, 6, 65, 0
13, 70944, Note_on_c, 6, 66, 78
13, 70944, Note_on_c, 6, 61, 78
13, 71040, Note_on_c, 6, 61, 0
13, 71040, Note_on_c, 6, 66, 0
13, 71040, Note_on_c, 6, 65, 78
13, 71040, Note_on_c, 6, 61, 78
13, 71136, Note_on_c, 6, 61, 0
13, 71136, Note_on_c, 6, 65, 0
13, 71136, Note_on_c, 6, 61, 78
13, 71136, Note_on_c, 6, 66, 78
13, 71232, Note_on_c, 6, 66, 0
13, 71232, Note_on_c, 6, 61, 0
13, 71328, Note_on_c, 6, 67, 78
13, 71328, Note_on_c, 6, 62, 78
13, 71424, Note_on_c, 6, 62, 0
13, 71424, Note_on_c, 6, 67, 0
13, 71424, Note_on_c, 6, 62, 78
13, 71424, Note_on_c, 6, 66, 78
13, 71520, Note_on_c, 6, 66, 0
13, 71520, Note_on_c, 6, 62, 0
13, 71520, Note_on_c, 6, 62, 78
13, 71520, Note_on_c, 6, 67, 78
13, 71616, Note_on_c, 6, 67, 0
13, 71616, Note_on_c, 6, 62, 0
13, 71712, Note_on_c, 6, 68, 78
13, 71712, Note_on_c, 6, 63, 78
13, 71904, Note_on_c, 6, 63, 0
13, 71904, Note_on_c, 6, 68, 0
13, 71904, Note_on_c, 6, 63, 78
13, 71904, Note_on_c, 6, 69, 78
13, 72096, Note_on_c, 6, 69, 0
13, 72096, Note_on_c, 6, 63, 0
13, 72096, Note_on_c, 6, 65, 78
13, 72096, Note_on_c, 6, 70, 78
13, 72192, Note_on_c, 6, 70, 0
13, 72192, Note_on_c, 6, 65, 0
13, 72192, Note_on_c, 6, 65, 78
13, 72192, Note_on_c, 6, 69, 78
13, 72288, Note_on_c, 6, 69, 0
13, 72288, Note_on_c, 6, 65, 0
13, 72288, Note_on_c, 6, 65, 78
13, 72288, Note_on_c, 6, 70, 78
13, 72384, Note_on_c, 6, 70, 0
13, 72384, Note_on_c, 6, 65, 0
13, 72480, Note_on_c, 6, 59, 78
13, 72480, Note_on_c, 6, 66, 78
13, 72672, Note_on_c, 6, 66, 0
13, 72672, Note_on_c, 6, 59, 0
13, 72672, Note_on_c, 6, 66, 78
13, 72672, Note_on_c, 6, 60, 78
13, 72864, Note_on_c, 6, 60, 0
13, 72864, Note_on_c, 6, 66, 0
13, 72864, Note_on_c, 6, 61, 78
13, 72864, Note_on_c, 6, 67, 78
13, 72960, Note_on_c, 6, 67, 0
13, 72960, Note_on_c, 6, 61, 0
13, 72960, Note_on_c, 6, 68, 78
13, 72960, Note_on_c, 6, 60, 78
13, 73056, Note_on_c, 6, 60, 0
13, 73056, Note_on_c, 6, 68, 0
13, 73056, Note_on_c, 6, 67, 78
13, 73056, Note_on_c, 6, 61, 78
13, 73152, Note_on_c, 6, 61, 0
13, 73152, Note_on_c, 6, 67, 0
13, 73248, Note_on_c, 6, 68, 78
13, 73248, Note_on_c, 6, 62, 78
13, 73344, Note_on_c, 6, 62, 0
13, 73344, Note_on_c, 6, 68, 0
13, 73344, Note_on_c, 6, 69, 78
13, 73344, Note_on_c, 6, 61, 78
13, 73440, Note_on_c, 6, 61, 0
13, 73440, Note_on_c, 6, 69, 0
13, 73440, Note_on_c, 6, 68, 78
13, 73440, Note_on_c, 6, 62, 78
13, 73536, Note_on_c, 6, 62, 0
13, 73536, Note_on_c, 6, 68, 0
13, 73632, Note_on_c, 6, 63, 78
13, 73632, Note_on_c, 6, 69, 78
13, 73728, Note_on_c, 6, 69, 0
13, 73728, Note_on_c, 6, 63, 0
13, 73728, Note_on_c, 6, 62, 78
13, 73728, Note_on_c, 6, 70, 78
13, 73824, Note_on_c, 6, 70, 0
13, 73824, Note_on_c, 6, 62, 0
13, 73824, Note_on_c, 6, 69, 78
13, 73824, Note_on_c, 6, 63, 78
13, 73920, Note_on_c, 6, 63, 0
13, 73920, Note_on_c, 6, 69, 0
13, 74016, Note_on_c, 6, 64, 78
13, 74016, Note_on_c, 6, 70, 78
13, 74112, Note_on_c, 6, 70, 0
13, 74112, Note_on_c, 6, 64, 0
13, 74112, Note_on_c, 6, 71, 78
13, 74112, Note_on_c, 6, 65, 78
13, 74208, Note_on_c, 6, 65, 0
13, 74208, Note_on_c, 6, 71, 0
13, 74208, Note_on_c, 6, 65, 78
13, 74208, Note_on_c, 6, 71, 78
13, 74400, Note_on_c, 6, 71, 0
13, 74400, Note_on_c, 6, 65, 0
13, 74400, Note_on_c, 6, 65, 78
13, 74400, Note_on_c, 6, 71, 78
13, 74496, Note_on_c, 6, 71, 0
13, 74496, Note_on_c, 6, 65, 0
13, 74496, Note_on_c, 6, 70, 78
13, 74496, Note_on_c, 6, 66, 78
13, 74592, Note_on_c, 6, 66, 0
13, 74592, Note_on_c, 6, 70, 0
13, 74688, Note_on_c, 6, 70, 78
13, 74688, Note_on_c, 6, 66, 78
13, 74880, Note_on_c, 6, 66, 0
13, 74880, Note_on_c, 6, 70, 0
13, 75072, Note_on_c, 6, 63, 78
13, 75072, Note_on_c, 6, 66, 78
13, 75168, Note_on_c, 6, 66, 0
13, 75168, Note_on_c, 6, 63, 0
13, 75264, Note_on_c, 6, 66, 78
13, 75264, Note_on_c, 6, 63, 78
13, 75360, Note_on_c, 6, 63, 0
13, 75360, Note_on_c, 6, 66, 0
13, 75456, Note_on_c, 6, 63, 78
13, 75456, Note_on_c, 6, 66, 78
13, 75552, Note_on_c, 6, 66, 0
13, 75552, Note_on_c, 6, 63, 0
13, 75648, Note_on_c, 6, 56, 78
13, 75648, Note_on_c, 6, 53, 78
13, 75648, Note_on_c, 6, 62, 78
13, 76032, Note_on_c, 6, 62, 0
13, 76032, Note_on_c, 6, 53, 0
13, 76032, Note_on_c, 6, 56, 0
13, 76032, Note_on_c, 6, 54, 78
13, 76032, Note_on_c, 6, 63, 78
13, 76032, Note_on_c, 6, 58, 78
13, 76128, Note_on_c, 6, 58, 0
13, 76128, Note_on_c, 6, 63, 0
13, 76128, Note_on_c, 6, 54, 0
13, 76512, Note_on_c, 6, 58, 78
13, 76560, Note_on_c, 6, 58, 0
13, 76560, Note_on_c, 6, 58, 78
13, 76608, Note_on_c, 6, 58, 0
13, 76608, Note_on_c, 6, 58, 78
13, 76704, Note_on_c, 6, 58, 0
13, 76704, Note_on_c, 6, 58, 78
13, 76800, Note_on_c, 6, 58, 0
13, 76800, Note_on_c, 6, 63, 78
13, 76992, Note_on_c, 6, 63, 0
13, 76992, Note_on_c, 6, 63, 78
13, 77184, Note_on_c, 6, 63, 0
13, 77184, Note_on_c, 6, 65, 78
13, 77376, Note_on_c, 6, 65, 0
13, 77376, Note_on_c, 6, 65, 78
13, 77568, Note_on_c, 6, 65, 0
13, 77568, Note_on_c, 6, 66, 78
13, 78048, Note_on_c, 6, 66, 0
13, 78048, Note_on_c, 6, 61, 78
13, 78096, Note_on_c, 6, 61, 0
13, 78096, Note_on_c, 6, 61, 78
13, 78144, Note_on_c, 6, 61, 0
13, 78144, Note_on_c, 6, 61, 78
13, 78240, Note_on_c, 6, 61, 0
13, 78240, Note_on_c, 6, 61, 78
13, 78336, Note_on_c, 6, 61, 0
13, 78336, Note_on_c, 6, 66, 78
13, 78528, Note_on_c, 6, 66, 0
13, 78528, Note_on_c, 6, 66, 78
13, 78720, Note_on_c, 6, 66, 0
13, 78720, Note_on_c, 6, 69, 78
13, 78912, Note_on_c, 6, 69, 0
13, 78912, Note_on_c, 6, 69, 78
13, 79104, Note_on_c, 6, 69, 0
13, 79104, Note_on_c, 6, 70, 78
13, 79584, Note_on_c, 6, 70, 0
13, 82656, Note_on_c, 6, 53, 78
13, 82704, Note_on_c, 6, 53, 0
13, 82704, Note_on_c, 6, 53, 78
13, 82752, Note_on_c, 6, 53, 0
13, 82752, Note_on_c, 6, 53, 78
13, 82848, Note_on_c, 6, 53, 0
13, 82848, Note_on_c, 6, 53, 78
13, 82944, Note_on_c, 6, 53, 0
13, 82944, Note_on_c, 6, 58, 78
13, 83136, Note_on_c, 6, 58, 0
13, 83136, Note_on_c, 6, 58, 78
13, 83328, Note_on_c, 6, 58, 0
13, 83328, Note_on_c, 6, 61, 78
13, 83520, Note_on_c, 6, 61, 0
13, 83520, Note_on_c, 6, 61, 78
13, 83712, Note_on_c, 6, 61, 0
13, 83712, Note_on_c, 6, 62, 78
13, 84096, Note_on_c, 6, 62, 0
13, 84192, Note_on_c, 6, 57, 78
13, 84240, Note_on_c, 6, 57, 0
13, 84240, Note_on_c, 6, 57, 78
13, 84288, Note_on_c, 6, 57, 0
13, 84288, Note_on_c, 6, 57, 78
13, 84384, Note_on_c, 6, 57, 0
13, 84384, Note_on_c, 6, 57, 78
13, 84480, Note_on_c, 6, 57, 0
13, 84480, Note_on_c, 6, 62, 78
13, 84672, Note_on_c, 6, 62, 0
13, 84672, Note_on_c, 6, 62, 78
13, 84864, Note_on_c, 6, 62, 0
13, 84864, Note_on_c, 6, 64, 78
13, 85056, Note_on_c, 6, 64, 0
13, 85056, Note_on_c, 6, 64, 78
13, 85248, Note_on_c, 6, 64, 0
13, 85248, Note_on_c, 6, 65, 78
13, 85728, Note_on_c, 6, 65, 0
13, 90720, Note_on_c, 6, 72, 78
13, 90720, Note_on_c, 6, 66, 78
13, 90912, Note_on_c, 6, 66, 0
13, 90912, Note_on_c, 6, 72, 0
13, 91104, Note_on_c, 6, 54, 78
13, 91104, Note_on_c, 6, 69, 78
13, 91296, Note_on_c, 6, 69, 0
13, 91296, Note_on_c, 6, 54, 0
13, 91584, Note_on_c, 6, 57, 78
13, 91584, Note_on_c, 6, 72, 78
13, 91680, Note_on_c, 6, 72, 0
13, 91680, Note_on_c, 6, 57, 0
13, 91968, Note_on_c, 6, 57, 78
13, 91968, Note_on_c, 6, 72, 78
13, 92064, Note_on_c, 6, 72, 0
13, 92064, Note_on_c, 6, 57, 0
13, 92160, Note_on_c, 6, 57, 78
13, 92160, Note_on_c, 6, 72, 78
13, 92256, Note_on_c, 6, 72, 0
13, 92256, Note_on_c, 6, 57, 0
13, 92352, Note_on_c, 6, 57, 78
13, 92352, Note_on_c, 6, 63, 78
13, 92352, Note_on_c, 6, 48, 78
13, 92352, Note_on_c, 6, 54, 78
13, 92448, Note_on_c, 6, 54, 0
13, 92448, Note_on_c, 6, 57, 0
13, 92448, Note_on_c, 6, 63, 0
13, 92448, Note_on_c, 6, 48, 0
13, 92544, Note_on_c, 6, 57, 78
13, 92544, Note_on_c, 6, 48, 78
13, 92544, Note_on_c, 6, 63, 78
13, 92544, Note_on_c, 6, 54, 78
13, 92640, Note_on_c, 6, 54, 0
13, 92640, Note_on_c, 6, 57, 0
13, 92640, Note_on_c, 6, 48, 0
13, 92640, Note_on_c, 6, 63, 0
13, 92736, Note_on_c, 6, 57, 78
13, 92736, Note_on_c, 6, 48, 78
13, 92736, Note_on_c, 6, 63, 78
13, 92736, Note_on_c, 6, 54, 78
13, 92832, Note_on_c, 6, 54, 0
13, 92832, Note_on_c, 6, 57, 0
13, 92832, Note_on_c, 6, 48, 0
13, 92832, Note_on_c, 6, 63, 0
13, 92928, Note_on_c, 6, 63, 78
13, 92928, Note_on_c, 6, 57, 78
13, 92928, Note_on_c, 6, 54, 78
13, 92928, Note_on_c, 6, 48, 78
13, 93024, Note_on_c, 6, 48, 0
13, 93024, Note_on_c, 6, 63, 0
13, 93024, Note_on_c, 6, 57, 0
13, 93024, Note_on_c, 6, 54, 0
13, 93216, Note_on_c, 6, 63, 78
13, 93216, Note_on_c, 6, 57, 78
13, 93216, Note_on_c, 6, 54, 78
13, 93216, Note_on_c, 6, 48, 78
13, 93312, Note_on_c, 6, 48, 0
13, 93312, Note_on_c, 6, 63, 0
13, 93312, Note_on_c, 6, 57, 0
13, 93312, Note_on_c, 6, 54, 0
13, 93312, Note_on_c, 6, 47, 78
13, 93312, Note_on_c, 6, 57, 78
13, 93312, Note_on_c, 6, 54, 78
13, 93312, Note_on_c, 6, 63, 78
13, 93408, Note_on_c, 6, 63, 0
13, 93408, Note_on_c, 6, 47, 0
13, 93408, Note_on_c, 6, 57, 0
13, 93408, Note_on_c, 6, 54, 0
13, 93600, Note_on_c, 6, 63, 78
13, 93600, Note_on_c, 6, 47, 78
13, 93600, Note_on_c, 6, 57, 78
13, 93600, Note_on_c, 6, 54, 78
13, 93696, Note_on_c, 6, 54, 0
13, 93696, Note_on_c, 6, 63, 0
13, 93696, Note_on_c, 6, 47, 0
13, 93696, Note_on_c, 6, 57, 0
13, 93696, Note_on_c, 6, 63, 78
13, 93696, Note_on_c, 6, 46, 78
13, 93696, Note_on_c, 6, 58, 78
13, 93696, Note_on_c, 6, 54, 78
13, 93792, Note_on_c, 6, 54, 0
13, 93792, Note_on_c, 6, 63, 0
13, 93792, Note_on_c, 6, 46, 0
13, 93792, Note_on_c, 6, 58, 0
13, 93792, Note_on_c, 6, 46, 78
13, 93792, Note_on_c, 6, 63, 78
13, 93792, Note_on_c, 6, 58, 78
13, 93792, Note_on_c, 6, 54, 78
13, 93984, Note_on_c, 6, 54, 0
13, 93984, Note_on_c, 6, 46, 0
13, 93984, Note_on_c, 6, 63, 0
13, 93984, Note_on_c, 6, 58, 0
13, 93984, Note_on_c, 6, 63, 78
13, 93984, Note_on_c, 6, 46, 78
13, 93984, Note_on_c, 6, 58, 78
13, 93984, Note_on_c, 6, 54, 78
13, 94176, Note_on_c, 6, 54, 0
13, 94176, Note_on_c, 6, 63, 0
13, 94176, Note_on_c, 6, 46, 0
13, 94176, Note_on_c, 6, 58, 0
13, 94176, Note_on_c, 6, 46, 78
13, 94176, Note_on_c, 6, 63, 78
13, 94176, Note_on_c, 6, 58, 78
13, 94176, Note_on_c, 6, 54, 78
13, 94272, Note_on_c, 6, 54, 0
13, 94272, Note_on_c, 6, 46, 0
13, 94272, Note_on_c, 6, 63, 0
13, 94272, Note_on_c, 6, 58, 0
13, 94272, Note_on_c, 6, 45, 78
13, 94272, Note_on_c, 6, 54, 78
13, 94272, Note_on_c, 6, 63, 78
13, 94272, Note_on_c, 6, 59, 78
13, 94368, Note_on_c, 6, 59, 0
13, 94368, Note_on_c, 6, 45, 0
13, 94368, Note_on_c, 6, 54, 0
13, 94368, Note_on_c, 6, 63, 0
13, 94656, Note_on_c, 6, 44, 78
13, 94656, Note_on_c, 6, 71, 78
13, 94656, Note_on_c, 6, 56, 78
13, 94752, Note_on_c, 6, 56, 0
13, 94752, Note_on_c, 6, 71, 0
13, 94752, Note_on_c, 6, 44, 0
13, 95136, Note_on_c, 6, 65, 78
13, 95136, Note_on_c, 6, 51, 78
13, 95136, Note_on_c, 6, 59, 78
13, 95136, Note_on_c, 6, 57, 78
13, 95232, Note_on_c, 6, 57, 0
13, 95232, Note_on_c, 6, 65, 0
13, 95232, Note_on_c, 6, 51, 0
13, 95232, Note_on_c, 6, 59, 0
13, 95328, Note_on_c, 6, 63, 78
13, 95328, Note_on_c, 6, 68, 78
13, 95328, Note_on_c, 6, 56, 78
13, 95328, Note_on_c, 6, 65, 78
13, 95424, Note_on_c, 6, 65, 0
13, 95424, Note_on_c, 6, 63, 0
13, 95424, Note_on_c, 6, 68, 0
13, 95424, Note_on_c, 6, 56, 0
13, 95520, Note_on_c, 6, 71, 78
13, 95520, Note_on_c, 6, 65, 78
13, 95520, Note_on_c, 6, 63, 78
13, 95520, Note_on_c, 6, 59, 78
13, 95616, Note_on_c, 6, 59, 0
13, 95616, Note_on_c, 6, 71, 0
13, 95616, Note_on_c, 6, 65, 0
13, 95616, Note_on_c, 6, 63, 0
13, 95712, Note_on_c, 6, 56, 78
13, 95712, Note_on_c, 6, 59, 78
13, 95808, Note_on_c, 6, 59, 0
13, 95808, Note_on_c, 6, 56, 0
13, 95808, Note_on_c, 6, 58, 78
13, 95808, Note_on_c, 6, 56, 78
13, 95808, Note_on_c, 6, 53, 78
13, 95808, Note_on_c, 6, 50, 78
13, 95904, Note_on_c, 6, 50, 0
13, 95904, Note_on_c, 6, 58, 0
13, 95904, Note_on_c, 6, 56, 0
13, 95904, Note_on_c, 6, 53, 0
13, 96192, Note_on_c, 6, 70, 78
13, 96192, Note_on_c, 6, 68, 78
13, 96192, Note_on_c, 6, 58, 78
13, 96192, Note_on_c, 6, 56, 78
13, 96288, Note_on_c, 6, 56, 0
13, 96288, Note_on_c, 6, 70, 0
13, 96288, Note_on_c, 6, 68, 0
13, 96288, Note_on_c, 6, 58, 0
13, 96480, Note_on_c, 6, 70, 78
13, 96480, Note_on_c, 6, 58, 78
13, 96576, Note_on_c, 6, 58, 0
13, 96576, Note_on_c, 6, 70, 0
13, 96576, Note_on_c, 6, 70, 78
13, 96576, Note_on_c, 6, 58, 78
13, 96672, Note_on_c, 6, 58, 0
13, 96672, Note_on_c, 6, 70, 0
13, 96864, Note_on_c, 6, 68, 78
13, 96864, Note_on_c, 6, 56, 78
13, 96960, Note_on_c, 6, 56, 0
13, 96960, Note_on_c, 6, 68, 0
13, 96960, Note_on_c, 6, 58, 78
13, 96960, Note_on_c, 6, 70, 78
13, 97056, Note_on_c, 6, 70, 0
13, 97056, Note_on_c, 6, 58, 0
13, 97248, Note_on_c, 6, 71, 78
13, 97248, Note_on_c, 6, 69, 78
13, 97248, Note_on_c, 6, 63, 78
13, 97248, Note_on_c, 6, 59, 78
13, 97344, Note_on_c, 6, 59, 0
13, 97344, Note_on_c, 6, 71, 0
13, 97344, Note_on_c, 6, 69, 0
13, 97344, Note_on_c, 6, 63, 0
13, 97344, Note_on_c, 6, 66, 78
13, 97344, Note_on_c, 6, 59, 78
13, 97344, Note_on_c, 6, 71, 78
13, 97344, Note_on_c, 6, 63, 78
13, 97440, Note_on_c, 6, 63, 0
13, 97440, Note_on_c, 6, 66, 0
13, 97440, Note_on_c, 6, 59, 0
13, 97440, Note_on_c, 6, 71, 0
13, 97632, Note_on_c, 6, 71, 78
13, 97632, Note_on_c, 6, 66, 78
13, 97632, Note_on_c, 6, 63, 78
13, 97632, Note_on_c, 6, 59, 78
13, 97728, Note_on_c, 6, 59, 0
13, 97728, Note_on_c, 6, 71, 0
13, 97728, Note_on_c, 6, 66, 0
13, 97728, Note_on_c, 6, 63, 0
13, 97728, Note_on_c, 6, 70, 78
13, 97728, Note_on_c, 6, 58, 78
13, 97728, Note_on_c, 6, 66, 78
13, 97728, Note_on_c, 6, 63, 78
13, 97824, Note_on_c, 6, 63, 0
13, 97824, Note_on_c, 6, 70, 0
13, 97824, Note_on_c, 6, 58, 0
13, 97824, Note_on_c, 6, 66, 0
13, 98016, Note_on_c, 6, 70, 78
13, 98016, Note_on_c, 6, 63, 78
13, 98016, Note_on_c, 6, 58, 78
13, 98016, Note_on_c, 6, 66, 78
13, 98112, Note_on_c, 6, 66, 0
13, 98112, Note_on_c, 6, 70, 0
13, 98112, Note_on_c, 6, 63, 0
13, 98112, Note_on_c, 6, 58, 0
13, 98112, Note_on_c, 6, 63, 78
13, 98112, Note_on_c, 6, 69, 78
13, 98112, Note_on_c, 6, 57, 78
13, 98112, Note_on_c, 6, 66, 78
13, 98208, Note_on_c, 6, 66, 0
13, 98208, Note_on_c, 6, 63, 0
13, 98208, Note_on_c, 6, 69, 0
13, 98208, Note_on_c, 6, 57, 0
13, 98400, Note_on_c, 6, 69, 78
13, 98400, Note_on_c, 6, 66, 78
13, 98400, Note_on_c, 6, 63, 78
13, 98400, Note_on_c, 6, 57, 78
13, 98592, Note_on_c, 6, 57, 0
13, 98592, Note_on_c, 6, 69, 0
13, 98592, Note_on_c, 6, 66, 0
13, 98592, Note_on_c, 6, 63, 0
13, 98592, Note_on_c, 6, 69, 78
13, 98592, Note_on_c, 6, 66, 78
13, 98592, Note_on_c, 6, 61, 78
13, 98592, Note_on_c, 6, 57, 78
13, 98784, Note_on_c, 6, 57, 0
13, 98784, Note_on_c, 6, 69, 0
13, 98784, Note_on_c, 6, 66, 0
13, 98784, Note_on_c, 6, 61, 0
13, 98784, Note_on_c, 6, 69, 78
13, 98784, Note_on_c, 6, 66, 78
13, 98784, Note_on_c, 6, 59, 78
13, 98784, Note_on_c, 6, 57, 78
13, 98976, Note_on_c, 6, 57, 0
13, 98976, Note_on_c, 6, 69, 0
13, 98976, Note_on_c, 6, 66, 0
13, 98976, Note_on_c, 6, 59, 0
13, 98976, Note_on_c, 6, 69, 78
13, 98976, Note_on_c, 6, 66, 78
13, 98976, Note_on_c, 6, 60, 78
13, 98976, Note_on_c, 6, 57, 78
13, 99072, Note_on_c, 6, 57, 0
13, 99072, Note_on_c, 6, 69, 0
13, 99072, Note_on_c, 6, 66, 0
13, 99072, Note_on_c, 6, 60, 0
13, 99072, Note_on_c, 6, 69, 78
13, 99072, Note_on_c, 6, 67, 78
13, 99072, Note_on_c, 6, 61, 78
13, 99072, Note_on_c, 6, 57, 78
13, 99168, Note_on_c, 6, 57, 0
13, 99168, Note_on_c, 6, 69, 0
13, 99168, Note_on_c, 6, 67, 0
13, 99168, Note_on_c, 6, 61, 0
13, 99264, Note_on_c, 6, 67, 78
13, 99264, Note_on_c, 6, 69, 78
13, 99264, Note_on_c, 6, 61, 78
13, 99264, Note_on_c, 6, 57, 78
13, 99456, Note_on_c, 6, 57, 0
13, 99456, Note_on_c, 6, 67, 0
13, 99456, Note_on_c, 6, 69, 0
13, 99456, Note_on_c, 6, 61, 0
13, 99552, Note_on_c, 6, 57, 78
13, 99600, Note_on_c, 6, 57, 0
13, 99600, Note_on_c, 6, 57, 78
13, 99648, Note_on_c, 6, 57, 0
13, 99648, Note_on_c, 6, 57, 78
13, 99744, Note_on_c, 6, 57, 0
13, 99744, Note_on_c, 6, 57, 78
13, 99840, Note_on_c, 6, 57, 0
13, 99840, Note_on_c, 6, 62, 78
13, 99840, Note_on_c, 6, 54, 78
13, 100032, Note_on_c, 6, 54, 0
13, 100032, Note_on_c, 6, 62, 0
13, 100032, Note_on_c, 6, 62, 78
13, 100032, Note_on_c, 6, 54, 78
13, 100224, Note_on_c, 6, 54, 0
13, 100224, Note_on_c, 6, 62, 0
13, 100224, Note_on_c, 6, 57, 78
13, 100224, Note_on_c, 6, 64, 78
13, 100416, Note_on_c, 6, 64, 0
13, 100416, Note_on_c, 6, 57, 0
13, 100416, Note_on_c, 6, 64, 78
13, 100416, Note_on_c, 6, 57, 78
13, 100608, Note_on_c, 6, 57, 0
13, 100608, Note_on_c, 6, 64, 0
13, 100608, Note_on_c, 6, 66, 78
13, 100608, Note_on_c, 6, 69, 78
13, 100896, Note_on_c, 6, 69, 0
13, 100896, Note_on_c, 6, 66, 0
13, 100896, Note_on_c, 6, 62, 78
13, 100896, Note_on_c, 6, 66, 78
13, 100992, Note_on_c, 6, 66, 0
13, 100992, Note_on_c, 6, 62, 0
13, 100992, Note_on_c, 6, 62, 78
13, 100992, Note_on_c, 6, 54, 78
13, 101088, Note_on_c, 6, 54, 0
13, 101088, Note_on_c, 6, 62, 0
13, 101088, Note_on_c, 6, 57, 78
13, 101136, Note_on_c, 6, 57, 0
13, 101136, Note_on_c, 6, 57, 78
13, 101184, Note_on_c, 6, 57, 0
13, 101184, Note_on_c, 6, 57, 78
13, 101280, Note_on_c, 6, 57, 0
13, 101280, Note_on_c, 6, 57, 78
13, 101376, Note_on_c, 6, 57, 0
13, 101376, Note_on_c, 6, 54, 78
13, 101376, Note_on_c, 6, 62, 78
13, 101568, Note_on_c, 6, 62, 0
13, 101568, Note_on_c, 6, 54, 0
13, 101568, Note_on_c, 6, 54, 78
13, 101568, Note_on_c, 6, 62, 78
13, 101760, Note_on_c, 6, 62, 0
13, 101760, Note_on_c, 6, 54, 0
13, 101760, Note_on_c, 6, 64, 78
13, 101760, Note_on_c, 6, 57, 78
13, 101952, Note_on_c, 6, 57, 0
13, 101952, Note_on_c, 6, 64, 0
13, 101952, Note_on_c, 6, 57, 78
13, 101952, Note_on_c, 6, 64, 78
13, 102144, Note_on_c, 6, 64, 0
13, 102144, Note_on_c, 6, 57, 0
13, 102144, Note_on_c, 6, 69, 80
13, 102144, Note_on_c, 6, 66, 78
13, 102432, Note_on_c, 6, 66, 0
13, 102432, Note_on_c, 6, 69, 0
13, 102432, Note_on_c, 6, 66, 78
13, 102432, Note_on_c, 6, 62, 78
13, 102528, Note_on_c, 6, 62, 0
13, 102528, Note_on_c, 6, 66, 0
13, 102528, Note_on_c, 6, 62, 78
13, 102528, Note_on_c, 6, 54, 78
13, 102624, Note_on_c, 6, 54, 0
13, 102624, Note_on_c, 6, 62, 0
13, 104448, Note_on_c, 6, 69, 78
13, 104448, Note_on_c, 6, 66, 78
13, 104736, Note_on_c, 6, 66, 0
13, 104736, Note_on_c, 6, 69, 0
13, 104736, Note_on_c, 6, 66, 78
13, 104736, Note_on_c, 6, 62, 78
13, 104832, Note_on_c, 6, 62, 0
13, 104832, Note_on_c, 6, 66, 0
13, 104832, Note_on_c, 6, 62, 78
13, 104832, Note_on_c, 6, 54, 78
13, 105216, Note_on_c, 6, 54, 0
13, 105216, Note_on_c, 6, 62, 0
13, 106752, Note_on_c, 6, 54, 78
13, 106752, Note_on_c, 6, 62, 78
13, 107136, Note_on_c, 6, 62, 0
13, 107136, Note_on_c, 6, 54, 0
13, 110016, Note_on_c, 6, 54, 78
13, 110208, Note_on_c, 6, 62, 78
13, 110400, Note_on_c, 6, 57, 78
13, 110592, Note_on_c, 6, 66, 78
13, 111360, Note_on_c, 6, 66, 0
13, 111360, Note_on_c, 6, 54, 0
13, 111360, Note_on_c, 6, 62, 0
13, 111360, Note_on_c, 6, 57, 0
13, 111360, Note_on_c, 6, 58, 59
13, 111360, Note_on_c, 6, 66, 59
13, 111360, Note_on_c, 6, 54, 59
13, 111360, Note_on_c, 6, 61, 59
13, 111744, Note_on_c, 6, 61, 0
13, 111744, Note_on_c, 6, 58, 0
13, 111744, Note_on_c, 6, 66, 0
13, 111744, Note_on_c, 6, 54, 0
13, 111744, Note_on_c, 6, 65, 59
13, 111744, Note_on_c, 6, 61, 59
13, 111744, Note_on_c, 6, 59, 59
13, 111744, Note_on_c, 6, 53, 59
13, 112128, Note_on_c, 6, 53, 0
13, 112128, Note_on_c, 6, 65, 0
13, 112128, Note_on_c, 6, 61, 0
13, 112128, Note_on_c, 6, 59, 0
13, 112128, Note_on_c, 6, 66, 59
13, 112128, Note_on_c, 6, 61, 59
13, 112128, Note_on_c, 6, 58, 59
13, 112128, Note_on_c, 6, 54, 59
13, 112512, Note_on_c, 6, 54, 0
13, 112512, Note_on_c, 6, 66, 0
13, 112512, Note_on_c, 6, 61, 0
13, 112512, Note_on_c, 6, 58, 0
13, 112512, Note_on_c, 6, 59, 59
13, 112512, Note_on_c, 6, 65, 59
13, 112512, Note_on_c, 6, 61, 59
13, 112512, Note_on_c, 6, 53, 59
13, 112896, Note_on_c, 6, 53, 0
13, 112896, Note_on_c, 6, 59, 0
13, 112896, Note_on_c, 6, 65, 0
13, 112896, Note_on_c, 6, 61, 0
13, 112896, Note_on_c, 6, 61, 59
13, 112896, Note_on_c, 6, 54, 59
13, 112896, Note_on_c, 6, 66, 59
13, 112896, Note_on_c, 6, 58, 59
13, 113280, Note_on_c, 6, 58, 0
13, 113280, Note_on_c, 6, 61, 0
13, 113280, Note_on_c, 6, 54, 0
13, 113280, Note_on_c, 6, 66, 0
13, 113280, Note_on_c, 6, 65, 59
13, 113280, Note_on_c, 6, 61, 59
13, 113280, Note_on_c, 6, 59, 59
13, 113280, Note_on_c, 6, 53, 59
13, 113664, Note_on_c, 6, 53, 0
13, 113664, Note_on_c, 6, 65, 0
13, 113664, Note_on_c, 6, 61, 0
13, 113664, Note_on_c, 6, 59, 0
13, 113664, Note_on_c, 6, 66, 59
13, 113664, Note_on_c, 6, 61, 59
13, 113664, Note_on_c, 6, 58, 59
13, 113664, Note_on_c, 6, 54, 59
13, 114048, Note_on_c, 6, 54, 0
13, 114048, Note_on_c, 6, 66, 0
13, 114048, Note_on_c, 6, 61, 0
13, 114048, Note_on_c, 6, 58, 0
13, 114048, Note_on_c, 6, 65, 59
13, 114048, Note_on_c, 6, 53, 59
13, 114048, Note_on_c, 6, 61, 59
13, 114048, Note_on_c, 6, 59, 59
13, 114432, Note_on_c, 6, 59, 0
13, 114432, Note_on_c, 6, 65, 0
13, 114432, Note_on_c, 6, 53, 0
13, 114432, Note_on_c, 6, 61, 0
13, 114432, Note_on_c, 6, 61, 59
13, 114432, Note_on_c, 6, 66, 59
13, 114432, Note_on_c, 6, 54, 59
13, 114432, Note_on_c, 6, 58, 59
13, 114816, Note_on_c, 6, 58, 0
13, 114816, Note_on_c, 6, 61, 0
13, 114816, Note_on_c, 6, 66, 0
13, 114816, Note_on_c, 6, 54, 0
13, 114816, Note_on_c, 6, 65, 59
13, 114816, Note_on_c, 6, 61, 59
13, 114816, Note_on_c, 6, 59, 59
13, 114816, Note_on_c, 6, 53, 59
13, 115200, Note_on_c, 6, 53, 0
13, 115200, Note_on_c, 6, 65, 0
13, 115200, Note_on_c, 6, 61, 0
13, 115200, Note_on_c, 6, 59, 0
13, 115200, Note_on_c, 6, 58, 59
13, 115200, Note_on_c, 6, 66, 59
13, 115200, Note_on_c, 6, 61, 59
13, 115200, Note_on_c, 6, 54, 59
13, 115584, Note_on_c, 6, 54, 0
13, 115584, Note_on_c, 6, 58, 0
13, 115584, Note_on_c, 6, 66, 0
13, 115584, Note_on_c, 6, 61, 0
13, 115584, Note_on_c, 6, 61, 59
13, 115584, Note_on_c, 6, 53, 59
13, 115584, Note_on_c, 6, 65, 59
13, 115584, Note_on_c, 6, 59, 59
13, 115968, Note_on_c, 6, 59, 0
13, 115968, Note_on_c, 6, 61, 0
13, 115968, Note_on_c, 6, 53, 0
13, 115968, Note_on_c, 6, 65, 0
13, 115968, Note_on_c, 6, 58, 59
13, 115968, Note_on_c, 6, 66, 59
13, 115968, Note_on_c, 6, 54, 59
13, 115968, Note_on_c, 6, 61, 59
13, 116352, Note_on_c, 6, 61, 0
13, 116352, Note_on_c, 6, 58, 0
13, 116352, Note_on_c, 6, 66, 0
13, 116352, Note_on_c, 6, 54, 0
13, 116352, Note_on_c, 6, 61, 59
13, 116352, Note_on_c, 6, 59, 59
13, 116352, Note_on_c, 6, 68, 59
13, 116352, Note_on_c, 6, 53, 59
13, 116736, Note_on_c, 6, 53, 0
13, 116736, Note_on_c, 6, 61, 0
13, 116736, Note_on_c, 6, 59, 0
13, 116736, Note_on_c, 6, 68, 0
13, 116736, Note_on_c, 6, 66, 59
13, 116736, Note_on_c, 6, 58, 59
13, 116736, Note_on_c, 6, 54, 59
13, 116736, Note_on_c, 6, 61, 59
13, 117120, Note_on_c, 6, 61, 0
13, 117120, Note_on_c, 6, 66, 0
13, 117120, Note_on_c, 6, 58, 0
13, 117120, Note_on_c, 6, 54, 0
13, 117120, Note_on_c, 6, 59, 59
13, 117120, Note_on_c, 6, 65, 59
13, 117120, Note_on_c, 6, 61, 59
13, 117120, Note_on_c, 6, 53, 59
13, 117504, Note_on_c, 6, 53, 0
13, 117504, Note_on_c, 6, 59, 0
13, 117504, Note_on_c, 6, 65, 0
13, 117504, Note_on_c, 6, 61, 0
13, 117504, Note_on_c, 6, 66, 59
13, 117504, Note_on_c, 6, 54, 59
13, 117504, Note_on_c, 6, 61, 59
13, 117504, Note_on_c, 6, 58, 59
13, 117888, Note_on_c, 6, 58, 0
13, 117888, Note_on_c, 6, 66, 0
13, 117888, Note_on_c, 6, 54, 0
13, 117888, Note_on_c, 6, 61, 0
13, 117888, Note_on_c, 6, 59, 59
13, 117888, Note_on_c, 6, 65, 59
13, 117888, Note_on_c, 6, 53, 59
13, 117888, Note_on_c, 6, 61, 59
13, 118272, Note_on_c, 6, 61, 0
13, 118272, Note_on_c, 6, 59, 0
13, 118272, Note_on_c, 6, 65, 0
13, 118272, Note_on_c, 6, 53, 0
13, 118272, Note_on_c, 6, 61, 59
13, 118272, Note_on_c, 6, 54, 59
13, 118272, Note_on_c, 6, 66, 59
13, 118272, Note_on_c, 6, 58, 59
13, 118656, Note_on_c, 6, 58, 0
13, 118656, Note_on_c, 6, 61, 0
13, 118656, Note_on_c, 6, 54, 0
13, 118656, Note_on_c, 6, 66, 0
13, 118656, Note_on_c, 6, 65, 59
13, 118656, Note_on_c, 6, 61, 59
13, 118656, Note_on_c, 6, 59, 59
13, 118656, Note_on_c, 6, 53, 59
13, 119040, Note_on_c, 6, 53, 0
13, 119040, Note_on_c, 6, 65, 0
13, 119040, Note_on_c, 6, 61, 0
13, 119040, Note_on_c, 6, 59, 0
13, 119040, Note_on_c, 6, 66, 59
13, 119040, Note_on_c, 6, 58, 59
13, 119040, Note_on_c, 6, 54, 59
13, 119040, Note_on_c, 6, 61, 59
13, 119424, Note_on_c, 6, 61, 0
13, 119424, Note_on_c, 6, 66, 0
13, 119424, Note_on_c, 6, 58, 0
13, 119424, Note_on_c, 6, 54, 0
13, 119424, Note_on_c, 6, 59, 59
13, 119424, Note_on_c, 6, 68, 59
13, 119424, Note_on_c, 6, 61, 59
13, 119424, Note_on_c, 6, 56, 59
13, 119808, Note_on_c, 6, 56, 0
13, 119808, Note_on_c, 6, 59, 0
13, 119808, Note_on_c, 6, 68, 0
13, 119808, Note_on_c, 6, 61, 0
13, 119808, Note_on_c, 6, 66, 62
13, 119808, Note_on_c, 6, 61, 62
13, 119808, Note_on_c, 6, 58, 62
13, 119808, Note_on_c, 6, 54, 62
13, 120192, Note_on_c, 6, 54, 0
13, 120192, Note_on_c, 6, 66, 0
13, 120192, Note_on_c, 6, 61, 0
13, 120192, Note_on_c, 6, 58, 0
13, 120192, Note_on_c, 6, 60, 62
13, 120192, Note_on_c, 6, 72, 62
13, 120192, Note_on_c, 6, 57, 62
13, 120192, Note_on_c, 6, 62, 62
13, 120576, Note_on_c, 6, 62, 0
13, 120576, Note_on_c, 6, 60, 0
13, 120576, Note_on_c, 6, 72, 0
13, 120576, Note_on_c, 6, 57, 0
13, 120576, Note_on_c, 6, 62, 62
13, 120576, Note_on_c, 6, 71, 62
13, 120576, Note_on_c, 6, 59, 62
13, 120576, Note_on_c, 6, 55, 62
13, 120960, Note_on_c, 6, 55, 0
13, 120960, Note_on_c, 6, 62, 0
13, 120960, Note_on_c, 6, 71, 0
13, 120960, Note_on_c, 6, 59, 0
13, 120960, Note_on_c, 6, 72, 62
13, 120960, Note_on_c, 6, 62, 62
13, 120960, Note_on_c, 6, 60, 62
13, 120960, Note_on_c, 6, 57, 62
13, 121344, Note_on_c, 6, 57, 0
13, 121344, Note_on_c, 6, 72, 0
13, 121344, Note_on_c, 6, 62, 0
13, 121344, Note_on_c, 6, 60, 0
13, 121344, Note_on_c, 6, 62, 62
13, 121344, Note_on_c, 6, 71, 62
13, 121344, Note_on_c, 6, 59, 62
13, 121344, Note_on_c, 6, 55, 62
13, 121728, Note_on_c, 6, 55, 0
13, 121728, Note_on_c, 6, 62, 0
13, 121728, Note_on_c, 6, 71, 0
13, 121728, Note_on_c, 6, 59, 0
13, 121728, Note_on_c, 6, 60, 62
13, 121728, Note_on_c, 6, 72, 62
13, 121728, Note_on_c, 6, 62, 62
13, 121728, Note_on_c, 6, 57, 62
13, 122112, Note_on_c, 6, 57, 0
13, 122112, Note_on_c, 6, 60, 0
13, 122112, Note_on_c, 6, 72, 0
13, 122112, Note_on_c, 6, 62, 0
13, 122112, Note_on_c, 6, 62, 62
13, 122112, Note_on_c, 6, 55, 62
13, 122112, Note_on_c, 6, 71, 62
13, 122112, Note_on_c, 6, 59, 62
13, 122496, Note_on_c, 6, 59, 0
13, 122496, Note_on_c, 6, 62, 0
13, 122496, Note_on_c, 6, 55, 0
13, 122496, Note_on_c, 6, 71, 0
13, 122496, Note_on_c, 6, 69, 62
13, 122496, Note_on_c, 6, 54, 62
13, 122496, Note_on_c, 6, 62, 62
13, 122496, Note_on_c, 6, 57, 62
13, 122880, Note_on_c, 6, 57, 0
13, 122880, Note_on_c, 6, 69, 0
13, 122880, Note_on_c, 6, 54, 0
13, 122880, Note_on_c, 6, 62, 0
13, 122880, Note_on_c, 6, 71, 62
13, 122880, Note_on_c, 6, 62, 62
13, 122880, Note_on_c, 6, 55, 62
13, 122880, Note_on_c, 6, 59, 62
13, 123264, Note_on_c, 6, 59, 0
13, 123264, Note_on_c, 6, 71, 0
13, 123264, Note_on_c, 6, 62, 0
13, 123264, Note_on_c, 6, 55, 0
13, 123264, Note_on_c, 6, 62, 62
13, 123264, Note_on_c, 6, 54, 62
13, 123264, Note_on_c, 6, 72, 62
13, 123264, Note_on_c, 6, 60, 62
13, 123648, Note_on_c, 6, 60, 0
13, 123648, Note_on_c, 6, 62, 0
13, 123648, Note_on_c, 6, 54, 0
13, 123648, Note_on_c, 6, 72, 0
13, 123648, Note_on_c, 6, 62, 62
13, 123648, Note_on_c, 6, 71, 62
13, 123648, Note_on_c, 6, 59, 62
13, 123648, Note_on_c, 6, 55, 62
13, 124032, Note_on_c, 6, 55, 0
13, 124032, Note_on_c, 6, 62, 0
13, 124032, Note_on_c, 6, 71, 0
13, 124032, Note_on_c, 6, 59, 0
13, 124032, Note_on_c, 6, 72, 62
13, 124032, Note_on_c, 6, 62, 62
13, 124032, Note_on_c, 6, 60, 62
13, 124032, Note_on_c, 6, 57, 62
13, 124416, Note_on_c, 6, 57, 0
13, 124416, Note_on_c, 6, 72, 0
13, 124416, Note_on_c, 6, 62, 0
13, 124416, Note_on_c, 6, 60, 0
13, 124416, Note_on_c, 6, 71, 62
13, 124416, Note_on_c, 6, 62, 62
13, 124416, Note_on_c, 6, 55, 62
13, 124416, Note_on_c, 6, 59, 62
13, 124800, Note_on_c, 6, 59, 0
13, 124800, Note_on_c, 6, 71, 0
13, 124800, Note_on_c, 6, 62, 0
13, 124800, Note_on_c, 6, 55, 0
13, 124800, Note_on_c, 6, 72, 62
13, 124800, Note_on_c, 6, 69, 62
13, 124800, Note_on_c, 6, 62, 62
13, 124800, Note_on_c, 6, 60, 62
13, 125184, Note_on_c, 6, 60, 0
13, 125184, Note_on_c, 6, 72, 0
13, 125184, Note_on_c, 6, 69, 0
13, 125184, Note_on_c, 6, 62, 0
13, 125184, Note_on_c, 6, 67, 62
13, 125184, Note_on_c, 6, 63, 62
13, 125184, Note_on_c, 6, 58, 62
13, 125184, Note_on_c, 6, 55, 62
13, 125568, Note_on_c, 6, 55, 0
13, 125568, Note_on_c, 6, 67, 0
13, 125568, Note_on_c, 6, 63, 0
13, 125568, Note_on_c, 6, 58, 0
13, 125568, Note_on_c, 6, 68, 62
13, 125568, Note_on_c, 6, 51, 62
13, 125568, Note_on_c, 6, 63, 62
13, 125568, Note_on_c, 6, 56, 62
13, 125952, Note_on_c, 6, 56, 0
13, 125952, Note_on_c, 6, 68, 0
13, 125952, Note_on_c, 6, 51, 0
13, 125952, Note_on_c, 6, 63, 0
13, 125952, Note_on_c, 6, 66, 62
13, 125952, Note_on_c, 6, 58, 62
13, 125952, Note_on_c, 6, 70, 62
13, 125952, Note_on_c, 6, 54, 62
13, 126336, Note_on_c, 6, 54, 0
13, 126336, Note_on_c, 6, 66, 0
13, 126336, Note_on_c, 6, 58, 0
13, 126336, Note_on_c, 6, 70, 0
13, 126336, Note_on_c, 6, 63, 62
13, 126336, Note_on_c, 6, 68, 62
13, 126336, Note_on_c, 6, 56, 62
13, 126336, Note_on_c, 6, 51, 62
13, 126720, Note_on_c, 6, 51, 0
13, 126720, Note_on_c, 6, 63, 0
13, 126720, Note_on_c, 6, 68, 0
13, 126720, Note_on_c, 6, 56, 0
13, 126720, Note_on_c, 6, 58, 62
13, 126720, Note_on_c, 6, 70, 62
13, 126720, Note_on_c, 6, 66, 62
13, 126720, Note_on_c, 6, 54, 62
13, 127104, Note_on_c, 6, 54, 0
13, 127104, Note_on_c, 6, 58, 0
13, 127104, Note_on_c, 6, 70, 0
13, 127104, Note_on_c, 6, 66, 0
13, 127104, Note_on_c, 6, 63, 62
13, 127104, Note_on_c, 6, 51, 62
13, 127104, Note_on_c, 6, 68, 62
13, 127104, Note_on_c, 6, 56, 62
13, 127488, Note_on_c, 6, 56, 0
13, 127488, Note_on_c, 6, 63, 0
13, 127488, Note_on_c, 6, 51, 0
13, 127488, Note_on_c, 6, 68, 0
13, 127488, Note_on_c, 6, 66, 62
13, 127488, Note_on_c, 6, 70, 62
13, 127488, Note_on_c, 6, 58, 62
13, 127488, Note_on_c, 6, 54, 62
13, 127872, Note_on_c, 6, 54, 0
13, 127872, Note_on_c, 6, 66, 0
13, 127872, Note_on_c, 6, 70, 0
13, 127872, Note_on_c, 6, 58, 0
13, 127872, Note_on_c, 6, 56, 62
13, 127872, Note_on_c, 6, 68, 62
13, 127872, Note_on_c, 6, 51, 62
13, 127872, Note_on_c, 6, 63, 62
13, 128064, Note_on_c, 6, 68, 0
13, 128064, Note_on_c, 6, 56, 0
13, 128064, Note_on_c, 6, 69, 62
13, 128064, Note_on_c, 6, 57, 62
13, 128256, Note_on_c, 6, 57, 0
13, 128256, Note_on_c, 6, 63, 0
13, 128256, Note_on_c, 6, 51, 0
13, 128256, Note_on_c, 6, 69, 0
13, 128256, Note_on_c, 6, 70, 62
13, 128256, Note_on_c, 6, 63, 62
13, 128256, Note_on_c, 6, 58, 62
13, 128256, Note_on_c, 6, 51, 62
13, 128640, Note_on_c, 6, 51, 0
13, 128640, Note_on_c, 6, 70, 0
13, 128640, Note_on_c, 6, 63, 0
13, 128640, Note_on_c, 6, 58, 0
13, 128640, Note_on_c, 6, 56, 62
13, 128640, Note_on_c, 6, 68, 62
13, 128640, Note_on_c, 6, 50, 62
13, 128640, Note_on_c, 6, 62, 62
13, 129024, Note_on_c, 6, 62, 0
13, 129024, Note_on_c, 6, 56, 0
13, 129024, Note_on_c, 6, 68, 0
13, 129024, Note_on_c, 6, 50, 0
13, 129024, Note_on_c, 6, 67, 62
13, 129024, Note_on_c, 6, 63, 62
13, 129024, Note_on_c, 6, 55, 62
13, 129024, Note_on_c, 6, 51, 62
13, 129408, Note_on_c, 6, 51, 0
13, 129408, Note_on_c, 6, 67, 0
13, 129408, Note_on_c, 6, 63, 0
13, 129408, Note_on_c, 6, 55, 0
13, 129408, Note_on_c, 6, 62, 62
13, 129408, Note_on_c, 6, 56, 62
13, 129408, Note_on_c, 6, 68, 62
13, 129408, Note_on_c, 6, 50, 62
13, 129792, Note_on_c, 6, 50, 0
13, 129792, Note_on_c, 6, 62, 0
13, 129792, Note_on_c, 6, 56, 0
13, 129792, Note_on_c, 6, 68, 0
13, 129792, Note_on_c, 6, 67, 62
13, 129792, Note_on_c, 6, 55, 62
13, 129792, Note_on_c, 6, 51, 62
13, 129792, Note_on_c, 6, 63, 62
13, 130176, Note_on_c, 6, 63, 0
13, 130176, Note_on_c, 6, 67, 0
13, 130176, Note_on_c, 6, 55, 0
13, 130176, Note_on_c, 6, 51, 0
13, 130176, Note_on_c, 6, 56, 62
13, 130176, Note_on_c, 6, 68, 62
13, 130176, Note_on_c, 6, 62, 62
13, 130176, Note_on_c, 6, 50, 62
13, 130560, Note_on_c, 6, 50, 0
13, 130560, Note_on_c, 6, 56, 0
13, 130560, Note_on_c, 6, 68, 0
13, 130560, Note_on_c, 6, 62, 0
13, 130560, Note_on_c, 6, 67, 62
13, 130560, Note_on_c, 6, 51, 62
13, 130560, Note_on_c, 6, 63, 62
13, 130560, Note_on_c, 6, 55, 62
13, 130944, Note_on_c, 6, 55, 0
13, 130944, Note_on_c, 6, 67, 0
13, 130944, Note_on_c, 6, 51, 0
13, 130944, Note_on_c, 6, 63, 0
13, 130944, Note_on_c, 6, 56, 62
13, 130944, Note_on_c, 6, 68, 62
13, 130944, Note_on_c, 6, 50, 62
13, 130944, Note_on_c, 6, 62, 62
13, 131328, Note_on_c, 6, 62, 0
13, 131328, Note_on_c, 6, 56, 0
13, 131328, Note_on_c, 6, 68, 0
13, 131328, Note_on_c, 6, 50, 0
13, 131328, Note_on_c, 6, 63, 62
13, 131328, Note_on_c, 6, 51, 62
13, 131328, Note_on_c, 6, 67, 62
13, 131328, Note_on_c, 6, 55, 62
13, 131712, Note_on_c, 6, 55, 0
13, 131712, Note_on_c, 6, 63, 0
13, 131712, Note_on_c, 6, 51, 0
13, 131712, Note_on_c, 6, 67, 0
13, 131712, Note_on_c, 6, 68, 62
13, 131712, Note_on_c, 6, 56, 62
13, 131712, Note_on_c, 6, 50, 62
13, 131712, Note_on_c, 6, 62, 62
13, 132096, Note_on_c, 6, 62, 0
13, 132096, Note_on_c, 6, 68, 0
13, 132096, Note_on_c, 6, 56, 0
13, 132096, Note_on_c, 6, 50, 0
13, 132096, Note_on_c, 6, 67, 62
13, 132096, Note_on_c, 6, 63, 62
13, 132096, Note_on_c, 6, 51, 62
13, 132096, Note_on_c, 6, 55, 62
13, 132480, Note_on_c, 6, 55, 0
13, 132480, Note_on_c, 6, 67, 0
13, 132480, Note_on_c, 6, 63, 0
13, 132480, Note_on_c, 6, 51, 0
13, 132480, Note_on_c, 6, 68, 62
13, 132480, Note_on_c, 6, 50, 62
13, 132480, Note_on_c, 6, 62, 62
13, 132480, Note_on_c, 6, 56, 62
13, 132864, Note_on_c, 6, 56, 0
13, 132864, Note_on_c, 6, 68, 0
13, 132864, Note_on_c, 6, 50, 0
13, 132864, Note_on_c, 6, 62, 0
13, 132864, Note_on_c, 6, 67, 62
13, 132864, Note_on_c, 6, 63, 62
13, 132864, Note_on_c, 6, 51, 62
13, 132864, Note_on_c, 6, 55, 62
13, 133248, Note_on_c, 6, 55, 0
13, 133248, Note_on_c, 6, 67, 0
13, 133248, Note_on_c, 6, 63, 0
13, 133248, Note_on_c, 6, 51, 0
13, 133248, Note_on_c, 6, 68, 62
13, 133248, Note_on_c, 6, 65, 62
13, 133248, Note_on_c, 6, 56, 62
13, 133248, Note_on_c, 6, 53, 62
13, 133632, Note_on_c, 6, 53, 0
13, 133632, Note_on_c, 6, 68, 0
13, 133632, Note_on_c, 6, 65, 0
13, 133632, Note_on_c, 6, 56, 0
13, 133632, Note_on_c, 6, 70, 62
13, 133632, Note_on_c, 6, 67, 62
13, 133632, Note_on_c, 6, 58, 62
13, 133632, Note_on_c, 6, 55, 62
13, 134016, Note_on_c, 6, 55, 0
13, 134016, Note_on_c, 6, 70, 0
13, 134016, Note_on_c, 6, 67, 0
13, 134016, Note_on_c, 6, 58, 0
13, 134016, Note_on_c, 6, 62, 62
13, 134016, Note_on_c, 6, 65, 62
13, 134016, Note_on_c, 6, 53, 62
13, 134016, Note_on_c, 6, 50, 62
13, 134400, Note_on_c, 6, 50, 0
13, 134400, Note_on_c, 6, 62, 0
13, 134400, Note_on_c, 6, 65, 0
13, 134400, Note_on_c, 6, 53, 0
13, 134400, Note_on_c, 6, 54, 62
13, 134400, Note_on_c, 6, 66, 62
13, 134400, Note_on_c, 6, 63, 62
13, 134400, Note_on_c, 6, 51, 62
13, 134784, Note_on_c, 6, 51, 0
13, 134784, Note_on_c, 6, 54, 0
13, 134784, Note_on_c, 6, 66, 0
13, 134784, Note_on_c, 6, 63, 0
13, 134784, Note_on_c, 6, 62, 62
13, 134784, Note_on_c, 6, 56, 62
13, 134784, Note_on_c, 6, 68, 62
13, 134784, Note_on_c, 6, 50, 62
13, 135168, Note_on_c, 6, 50, 0
13, 135168, Note_on_c, 6, 62, 0
13, 135168, Note_on_c, 6, 56, 0
13, 135168, Note_on_c, 6, 68, 0
13, 135168, Note_on_c, 6, 66, 62
13, 135168, Note_on_c, 6, 63, 62
13, 135168, Note_on_c, 6, 54, 62
13, 135168, Note_on_c, 6, 51, 62
13, 135552, Note_on_c, 6, 51, 0
13, 135552, Note_on_c, 6, 66, 0
13, 135552, Note_on_c, 6, 63, 0
13, 135552, Note_on_c, 6, 54, 0
13, 135552, Note_on_c, 6, 56, 62
13, 135552, Note_on_c, 6, 68, 62
13, 135552, Note_on_c, 6, 50, 62
13, 135552, Note_on_c, 6, 62, 62
13, 135936, Note_on_c, 6, 62, 0
13, 135936, Note_on_c, 6, 56, 0
13, 135936, Note_on_c, 6, 68, 0
13, 135936, Note_on_c, 6, 50, 0
13, 135936, Note_on_c, 6, 66, 62
13, 135936, Note_on_c, 6, 51, 62
13, 135936, Note_on_c, 6, 63, 62
13, 135936, Note_on_c, 6, 54, 62
13, 136320, Note_on_c, 6, 54, 0
13, 136320, Note_on_c, 6, 66, 0
13, 136320, Note_on_c, 6, 51, 0
13, 136320, Note_on_c, 6, 63, 0
13, 136320, Note_on_c, 6, 68, 62
13, 136320, Note_on_c, 6, 56, 62
13, 136320, Note_on_c, 6, 50, 62
13, 136320, Note_on_c, 6, 62, 62
13, 136704, Note_on_c, 6, 62, 0
13, 136704, Note_on_c, 6, 68, 0
13, 136704, Note_on_c, 6, 56, 0
13, 136704, Note_on_c, 6, 50, 0
13, 136704, Note_on_c, 6, 66, 62
13, 136704, Note_on_c, 6, 63, 62
13, 136704, Note_on_c, 6, 54, 62
13, 136704, Note_on_c, 6, 51, 62
13, 137088, Note_on_c, 6, 51, 0
13, 137088, Note_on_c, 6, 66, 0
13, 137088, Note_on_c, 6, 63, 0
13, 137088, Note_on_c, 6, 54, 0
13, 137088, Note_on_c, 6, 56, 62
13, 137088, Note_on_c, 6, 68, 62
13, 137088, Note_on_c, 6, 62, 62
13, 137088, Note_on_c, 6, 50, 62
13, 137472, Note_on_c, 6, 50, 0
13, 137472, Note_on_c, 6, 56, 0
13, 137472, Note_on_c, 6, 68, 0
13, 137472, Note_on_c, 6, 62, 0
13, 137472, Note_on_c, 6, 63, 62
13, 137472, Note_on_c, 6, 51, 62
13, 137472, Note_on_c, 6, 66, 62
13, 137472, Note_on_c, 6, 54, 62
13, 137856, Note_on_c, 6, 54, 0
13, 137856, Note_on_c, 6, 63, 0
13, 137856, Note_on_c, 6, 51, 0
13, 137856, Note_on_c, 6, 66, 0
13, 137856, Note_on_c, 6, 62, 62
13, 137856, Note_on_c, 6, 68, 62
13, 137856, Note_on_c, 6, 56, 62
13, 137856, Note_on_c, 6, 50, 62
13, 138240, Note_on_c, 6, 50, 0
13, 138240, Note_on_c, 6, 62, 0
13, 138240, Note_on_c, 6, 68, 0
13, 138240, Note_on_c, 6, 56, 0
13, 138240, Note_on_c, 6, 66, 62
13, 138240, Note_on_c, 6, 63, 62
13, 138240, Note_on_c, 6, 54, 62
13, 138240, Note_on_c, 6, 51, 62
13, 138624, Note_on_c, 6, 51, 0
13, 138624, Note_on_c, 6, 66, 0
13, 138624, Note_on_c, 6, 63, 0
13, 138624, Note_on_c, 6, 54, 0
13, 138624, Note_on_c, 6, 68, 62
13, 138624, Note_on_c, 6, 56, 62
13, 138624, Note_on_c, 6, 50, 62
13, 138624, Note_on_c, 6, 62, 62
13, 139008, Note_on_c, 6, 62, 0
13, 139008, Note_on_c, 6, 68, 0
13, 139008, Note_on_c, 6, 56, 0
13, 139008, Note_on_c, 6, 50, 0
13, 139008, Note_on_c, 6, 63, 62
13, 139008, Note_on_c, 6, 66, 62
13, 139008, Note_on_c, 6, 51, 62
13, 139008, Note_on_c, 6, 54, 62
13, 139392, Note_on_c, 6, 54, 0
13, 139392, Note_on_c, 6, 63, 0
13, 139392, Note_on_c, 6, 66, 0
13, 139392, Note_on_c, 6, 51, 0
13, 139392, Note_on_c, 6, 68, 62
13, 139392, Note_on_c, 6, 62, 62
13, 139392, Note_on_c, 6, 56, 62
13, 139392, Note_on_c, 6, 50, 62
13, 139776, Note_on_c, 6, 50, 0
13, 139776, Note_on_c, 6, 68, 0
13, 139776, Note_on_c, 6, 62, 0
13, 139776, Note_on_c, 6, 56, 0
13, 139776, Note_on_c, 6, 66, 62
13, 139776, Note_on_c, 6, 63, 62
13, 139776, Note_on_c, 6, 51, 62
13, 139776, Note_on_c, 6, 54, 62
13, 140640, Note_on_c, 6, 54, 0
13, 140640, Note_on_c, 6, 66, 0
13, 140640, Note_on_c, 6, 63, 0
13, 140640, Note_on_c, 6, 51, 0
13, 141312, Note_on_c, 6, 68, 62
13, 141312, Note_on_c, 6, 50, 62
13, 141312, Note_on_c, 6, 62, 62
13, 141312, Note_on_c, 6, 56, 62
13, 142176, Note_on_c, 6, 56, 0
13, 142176, Note_on_c, 6, 68, 0
13, 142176, Note_on_c, 6, 50, 0
13, 142176, Note_on_c, 6, 62, 0
13, 161088, Note_on_c, 6, 60, 78
13, 161184, Note_on_c, 6, 60, 0
13, 161184, Note_on_c, 6, 60, 78
13, 161232, Note_on_c, 6, 60, 0
13, 161232, Note_on_c, 6, 60, 78
13, 161280, Note_on_c, 6, 60, 0
13, 161280, Note_on_c, 6, 65, 78
13, 161472, Note_on_c, 6, 65, 0
13, 161472, Note_on_c, 6, 65, 78
13, 161664, Note_on_c, 6, 65, 0
13, 161664, Note_on_c, 6, 67, 78
13, 161856, Note_on_c, 6, 67, 0
13, 161856, Note_on_c, 6, 67, 78
13, 162048, Note_on_c, 6, 67, 0
13, 162048, Note_on_c, 6, 68, 78
13, 162240, Note_on_c, 6, 68, 0
13, 162240, Note_on_c, 6, 66, 78
13, 162432, Note_on_c, 6, 66, 0
13, 162432, Note_on_c, 6, 65, 78
13, 162528, Note_on_c, 6, 65, 0
13, 162528, Note_on_c, 6, 63, 78
13, 162624, Note_on_c, 6, 63, 0
13, 162624, Note_on_c, 6, 65, 78
13, 162720, Note_on_c, 6, 65, 0
13, 162720, Note_on_c, 6, 66, 78
13, 162816, Note_on_c, 6, 66, 0
13, 162816, Note_on_c, 6, 58, 78
13, 162816, Note_on_c, 6, 65, 78
13, 163104, Note_on_c, 6, 65, 78
13, 163104, Note_on_c, 6, 58, 78
13, 163144, Note_on_c, 6, 65, 0
13, 163144, Note_on_c, 6, 58, 0
13, 163152, Note_on_c, 6, 58, 78
13, 163152, Note_on_c, 6, 65, 78
13, 163192, Note_on_c, 6, 65, 0
13, 163192, Note_on_c, 6, 58, 0
13, 163196, Note_on_c, 6, 58, 0
13, 163196, Note_on_c, 6, 65, 0
13, 163200, Note_on_c, 6, 58, 78
13, 163200, Note_on_c, 6, 65, 78
13, 163388, Note_on_c, 6, 58, 0
13, 163389, Note_on_c, 6, 65, 0
13, 163392, Note_on_c, 6, 58, 78
13, 163392, Note_on_c, 6, 65, 78
13, 163580, Note_on_c, 6, 58, 0
13, 163581, Note_on_c, 6, 65, 0
13, 163584, Note_on_c, 6, 58, 78
13, 163584, Note_on_c, 6, 67, 78
13, 163644, Note_on_c, 6, 58, 0
13, 163680, Note_on_c, 6, 67, 0
13, 166464, Note_on_c, 6, 61, 78
13, 166560, Note_on_c, 6, 61, 0
13, 166560, Note_on_c, 6, 61, 78
13, 166608, Note_on_c, 6, 61, 0
13, 166608, Note_on_c, 6, 61, 78
13, 166656, Note_on_c, 6, 61, 0
13, 166656, Note_on_c, 6, 66, 78
13, 166848, Note_on_c, 6, 66, 0
13, 166848, Note_on_c, 6, 66, 78
13, 167040, Note_on_c, 6, 66, 0
13, 167040, Note_on_c, 6, 68, 78
13, 167232, Note_on_c, 6, 68, 0
13, 167232, Note_on_c, 6, 68, 78
13, 167424, Note_on_c, 6, 68, 0
13, 167424, Note_on_c, 6, 69, 78
13, 167616, Note_on_c, 6, 69, 0
13, 167616, Note_on_c, 6, 67, 78
13, 167808, Note_on_c, 6, 67, 0
13, 167808, Note_on_c, 6, 66, 78
13, 167904, Note_on_c, 6, 66, 0
13, 167904, Note_on_c, 6, 64, 78
13, 168000, Note_on_c, 6, 64, 0
13, 168000, Note_on_c, 6, 66, 78
13, 168096, Note_on_c, 6, 66, 0
13, 168096, Note_on_c, 6, 67, 78
13, 168192, Note_on_c, 6, 67, 0
13, 168192, Note_on_c, 6, 66, 78
13, 168480, Note_on_c, 6, 66, 0
13, 168480, Note_on_c, 6, 59, 78
13, 168480, Note_on_c, 6, 66, 78
13, 168528, Note_on_c, 6, 66, 0
13, 168528, Note_on_c, 6, 59, 0
13, 168528, Note_on_c, 6, 66, 78
13, 168528, Note_on_c, 6, 59, 78
13, 168576, Note_on_c, 6, 59, 0
13, 168576, Note_on_c, 6, 66, 0
13, 168576, Note_on_c, 6, 66, 78
13, 168576, Note_on_c, 6, 59, 78
13, 168768, Note_on_c, 6, 59, 0
13, 168768, Note_on_c, 6, 66, 0
13, 168768, Note_on_c, 6, 59, 78
13, 168768, Note_on_c, 6, 66, 78
13, 168960, Note_on_c, 6, 66, 0
13, 168960, Note_on_c, 6, 59, 0
13, 168960, Note_on_c, 6, 68, 78
13, 168960, Note_on_c, 6, 59, 78
13, 169056, Note_on_c, 6, 59, 0
13, 169056, Note_on_c, 6, 68, 0
13, 172032, Note_on_c, 6, 58, 78
13, 172032, Note_on_c, 6, 55, 78
13, 172032, Note_on_c, 6, 52, 78
13, 172320, Note_on_c, 6, 52, 0
13, 172320, Note_on_c, 6, 55, 0
13, 172320, Note_on_c, 6, 58, 0
13, 172320, Note_on_c, 6, 52, 78
13, 172320, Note_on_c, 6, 59, 78
13, 172320, Note_on_c, 6, 55, 78
13, 172416, Note_on_c, 6, 55, 0
13, 172416, Note_on_c, 6, 59, 0
13, 172416, Note_on_c, 6, 52, 0
13, 172416, Note_on_c, 6, 61, 78
13, 172416, Note_on_c, 6, 55, 78
13, 172416, Note_on_c, 6, 52, 78
13, 172512, Note_on_c, 6, 52, 0
13, 172512, Note_on_c, 6, 55, 0
13, 172512, Note_on_c, 6, 61, 0
13, 172512, Note_on_c, 6, 61, 78
13, 172512, Note_on_c, 6, 55, 78
13, 172608, Note_on_c, 6, 55, 0
13, 172608, Note_on_c, 6, 61, 0
13, 172704, Note_on_c, 6, 64, 78
13, 172704, Note_on_c, 6, 55, 78
13, 172800, Note_on_c, 6, 55, 0
13, 172800, Note_on_c, 6, 64, 0
13, 172800, Note_on_c, 6, 58, 78
13, 172800, Note_on_c, 6, 67, 78
13, 172896, Note_on_c, 6, 67, 0
13, 172896, Note_on_c, 6, 58, 0
13, 172992, Note_on_c, 6, 70, 78
13, 172992, Note_on_c, 6, 61, 78
13, 173088, Note_on_c, 6, 61, 0
13, 173088, Note_on_c, 6, 70, 0
13, 173184, Note_on_c, 6, 64, 78
13, 173184, Note_on_c, 6, 73, 78
13, 173280, Note_on_c, 6, 73, 0
13, 173280, Note_on_c, 6, 64, 0
13, 173568, Note_on_c, 6, 55, 78
13, 173568, Note_on_c, 6, 49, 78
13, 173568, Note_on_c, 6, 52, 78
13, 173856, Note_on_c, 6, 52, 0
13, 173856, Note_on_c, 6, 49, 0
13, 173856, Note_on_c, 6, 55, 0
13, 173856, Note_on_c, 6, 56, 78
13, 173856, Note_on_c, 6, 52, 78
13, 173856, Note_on_c, 6, 49, 78
13, 173952, Note_on_c, 6, 49, 0
13, 173952, Note_on_c, 6, 52, 0
13, 173952, Note_on_c, 6, 56, 0
13, 173952, Note_on_c, 6, 52, 78
13, 173952, Note_on_c, 6, 49, 78
13, 173952, Note_on_c, 6, 58, 78
13, 174048, Note_on_c, 6, 58, 0
13, 174048, Note_on_c, 6, 49, 0
13, 174048, Note_on_c, 6, 52, 0
13, 174048, Note_on_c, 6, 49, 78
13, 174048, Note_on_c, 6, 58, 78
13, 174144, Note_on_c, 6, 58, 0
13, 174144, Note_on_c, 6, 49, 0
13, 174240, Note_on_c, 6, 61, 78
13, 174240, Note_on_c, 6, 52, 78
13, 174336, Note_on_c, 6, 52, 0
13, 174336, Note_on_c, 6, 61, 0
13, 174432, Note_on_c, 6, 55, 78
13, 174432, Note_on_c, 6, 64, 78
13, 174528, Note_on_c, 6, 64, 0
13, 174528, Note_on_c, 6, 55, 0
13, 174624, Note_on_c, 6, 58, 78
13, 174624, Note_on_c, 6, 67, 78
13, 174720, Note_on_c, 6, 67, 0
13, 174720, Note_on_c, 6, 58, 0
13, 174816, Note_on_c, 6, 70, 78
13, 174816, Note_on_c, 6, 61, 78
13, 174912, Note_on_c, 6, 61, 0
13, 174912, Note_on_c, 6, 70, 0
13, 175104, Note_on_c, 6, 61, 78
13, 175104, Note_on_c, 6, 55, 78
13, 175104, Note_on_c, 6, 58, 78
13, 175392, Note_on_c, 6, 58, 0
13, 175392, Note_on_c, 6, 55, 0
13, 175392, Note_on_c, 6, 61, 0
13, 175392, Note_on_c, 6, 58, 78
13, 175392, Note_on_c, 6, 55, 78
13, 175392, Note_on_c, 6, 63, 78
13, 175488, Note_on_c, 6, 63, 0
13, 175488, Note_on_c, 6, 55, 0
13, 175488, Note_on_c, 6, 58, 0
13, 175488, Note_on_c, 6, 58, 78
13, 175488, Note_on_c, 6, 55, 78
13, 175488, Note_on_c, 6, 64, 78
13, 175584, Note_on_c, 6, 64, 0
13, 175584, Note_on_c, 6, 55, 0
13, 175584, Note_on_c, 6, 58, 0
13, 176640, Note_on_c, 6, 52, 78
13, 176640, Note_on_c, 6, 58, 78
13, 176640, Note_on_c, 6, 55, 78
13, 176928, Note_on_c, 6, 55, 0
13, 176928, Note_on_c, 6, 58, 0
13, 176928, Note_on_c, 6, 52, 0
13, 176928, Note_on_c, 6, 59, 78
13, 176928, Note_on_c, 6, 55, 78
13, 176928, Note_on_c, 6, 52, 78
13, 177024, Note_on_c, 6, 52, 0
13, 177024, Note_on_c, 6, 55, 0
13, 177024, Note_on_c, 6, 59, 0
13, 177024, Note_on_c, 6, 61, 78
13, 177024, Note_on_c, 6, 58, 78
13, 177024, Note_on_c, 6, 55, 78
13, 177024, Note_on_c, 6, 52, 78
13, 177120, Note_on_c, 6, 52, 0
13, 177120, Note_on_c, 6, 61, 0
13, 177120, Note_on_c, 6, 58, 0
13, 177120, Note_on_c, 6, 55, 0
13, 177120, Note_on_c, 6, 52, 78
13, 177120, Note_on_c, 6, 61, 78
13, 177216, Note_on_c, 6, 61, 0
13, 177216, Note_on_c, 6, 52, 0
13, 177408, Note_on_c, 6, 52, 78
13, 177408, Note_on_c, 6, 58, 78
13, 177408, Note_on_c, 6, 55, 78
13, 177696, Note_on_c, 6, 55, 0
13, 177696, Note_on_c, 6, 58, 0
13, 177696, Note_on_c, 6, 52, 0
13, 177696, Note_on_c, 6, 59, 78
13, 177696, Note_on_c, 6, 55, 78
13, 177696, Note_on_c, 6, 52, 78
13, 177792, Note_on_c, 6, 52, 0
13, 177792, Note_on_c, 6, 55, 0
13, 177792, Note_on_c, 6, 59, 0
13, 177792, Note_on_c, 6, 61, 78
13, 177792, Note_on_c, 6, 58, 78
13, 177792, Note_on_c, 6, 55, 78
13, 177792, Note_on_c, 6, 52, 78
13, 177888, Note_on_c, 6, 52, 0
13, 177888, Note_on_c, 6, 61, 0
13, 177888, Note_on_c, 6, 58, 0
13, 177888, Note_on_c, 6, 55, 0
13, 177888, Note_on_c, 6, 61, 78
13, 177888, Note_on_c, 6, 52, 78
13, 177984, Note_on_c, 6, 52, 0
13, 177984, Note_on_c, 6, 61, 0
13, 178176, Note_on_c, 6, 59, 78
13, 178176, Note_on_c, 6, 56, 78
13, 178176, Note_on_c, 6, 53, 78
13, 178464, Note_on_c, 6, 53, 0
13, 178464, Note_on_c, 6, 56, 0
13, 178464, Note_on_c, 6, 59, 0
13, 178464, Note_on_c, 6, 56, 78
13, 178464, Note_on_c, 6, 53, 78
13, 178464, Note_on_c, 6, 61, 78
13, 178560, Note_on_c, 6, 61, 0
13, 178560, Note_on_c, 6, 53, 0
13, 178560, Note_on_c, 6, 56, 0
13, 178560, Note_on_c, 6, 62, 78
13, 178560, Note_on_c, 6, 58, 78
13, 178560, Note_on_c, 6, 56, 78
13, 178560, Note_on_c, 6, 53, 78
13, 178656, Note_on_c, 6, 53, 0
13, 178656, Note_on_c, 6, 62, 0
13, 178656, Note_on_c, 6, 58, 0
13, 178656, Note_on_c, 6, 56, 0
13, 178656, Note_on_c, 6, 62, 78
13, 178656, Note_on_c, 6, 53, 78
13, 178752, Note_on_c, 6, 53, 0
13, 178752, Note_on_c, 6, 62, 0
13, 178944, Note_on_c, 6, 60, 78
13, 178944, Note_on_c, 6, 57, 78
13, 178944, Note_on_c, 6, 54, 78
13, 179232, Note_on_c, 6, 54, 0
13, 179232, Note_on_c, 6, 57, 0
13, 179232, Note_on_c, 6, 60, 0
13, 179232, Note_on_c, 6, 57, 78
13, 179232, Note_on_c, 6, 54, 78
13, 179232, Note_on_c, 6, 62, 78
13, 179328, Note_on_c, 6, 62, 0
13, 179328, Note_on_c, 6, 54, 0
13, 179328, Note_on_c, 6, 57, 0
13, 179328, Note_on_c, 6, 54, 78
13, 179328, Note_on_c, 6, 63, 78
13, 179328, Note_on_c, 6, 57, 78
13, 179424, Note_on_c, 6, 57, 0
13, 179424, Note_on_c, 6, 63, 0
13, 179424, Note_on_c, 6, 54, 0
13, 179424, Note_on_c, 6, 54, 78
13, 179424, Note_on_c, 6, 63, 78
13, 179520, Note_on_c, 6, 63, 0
13, 179520, Note_on_c, 6, 54, 0
13, 179616, Note_on_c, 6, 66, 78
13, 179616, Note_on_c, 6, 57, 78
13, 179712, Note_on_c, 6, 57, 0
13, 179712, Note_on_c, 6, 66, 0
13, 179712, Note_on_c, 6, 60, 78
13, 179712, Note_on_c, 6, 54, 78
13, 179808, Note_on_c, 6, 54, 0
13, 179808, Note_on_c, 6, 60, 0
13, 179904, Note_on_c, 6, 57, 78
13, 179904, Note_on_c, 6, 63, 78
13, 180000, Note_on_c, 6, 63, 0
13, 180000, Note_on_c, 6, 57, 0
13, 180096, Note_on_c, 6, 66, 78
13, 180096, Note_on_c, 6, 60, 78
13, 180192, Note_on_c, 6, 60, 0
13, 180192, Note_on_c, 6, 66, 0
13, 181248, Note_on_c, 6, 63, 78
13, 181248, Note_on_c, 6, 66, 78
13, 181248, Note_on_c, 6, 58, 78
13, 181248, Note_on_c, 6, 54, 78
13, 181344, Note_on_c, 6, 54, 0
13, 181344, Note_on_c, 6, 63, 0
13, 181344, Note_on_c, 6, 66, 0
13, 181344, Note_on_c, 6, 58, 0
13, 181440, Note_on_c, 6, 66, 78
13, 181440, Note_on_c, 6, 63, 78
13, 181440, Note_on_c, 6, 58, 78
13, 181440, Note_on_c, 6, 54, 78
13, 181536, Note_on_c, 6, 54, 0
13, 181536, Note_on_c, 6, 66, 0
13, 181536, Note_on_c, 6, 63, 0
13, 181536, Note_on_c, 6, 58, 0
13, 181632, Note_on_c, 6, 63, 78
13, 181632, Note_on_c, 6, 54, 78
13, 181632, Note_on_c, 6, 66, 78
13, 181632, Note_on_c, 6, 58, 78
13, 181728, Note_on_c, 6, 58, 0
13, 181728, Note_on_c, 6, 63, 0
13, 181728, Note_on_c, 6, 54, 0
13, 181728, Note_on_c, 6, 66, 0
13, 181824, Note_on_c, 6, 63, 78
13, 181824, Note_on_c, 6, 66, 78
13, 181824, Note_on_c, 6, 54, 78
13, 181824, Note_on_c, 6, 58, 78
13, 181920, Note_on_c, 6, 58, 0
13, 181920, Note_on_c, 6, 63, 0
13, 181920, Note_on_c, 6, 66, 0
13, 181920, Note_on_c, 6, 54, 0
13, 182016, Note_on_c, 6, 59, 78
13, 182016, Note_on_c, 6, 71, 78
13, 182016, Note_on_c, 6, 66, 78
13, 182016, Note_on_c, 6, 54, 78
13, 182112, Note_on_c, 6, 54, 0
13, 182112, Note_on_c, 6, 59, 0
13, 182112, Note_on_c, 6, 71, 0
13, 182112, Note_on_c, 6, 66, 0
13, 182976, Note_on_c, 6, 44, 78
13, 182976, Note_on_c, 6, 56, 78
13, 182976, Note_on_c, 6, 68, 78
13, 183072, Note_on_c, 6, 68, 0
13, 183072, Note_on_c, 6, 56, 0
13, 183072, Note_on_c, 6, 44, 0
13, 183456, Note_on_c, 6, 56, 78
13, 183456, Note_on_c, 6, 65, 78
13, 183456, Note_on_c, 6, 51, 78
13, 183456, Note_on_c, 6, 59, 78
13, 183552, Note_on_c, 6, 59, 0
13, 183552, Note_on_c, 6, 56, 0
13, 183552, Note_on_c, 6, 65, 0
13, 183552, Note_on_c, 6, 51, 0
13, 183648, Note_on_c, 6, 65, 78
13, 183648, Note_on_c, 6, 56, 78
13, 183648, Note_on_c, 6, 68, 78
13, 183648, Note_on_c, 6, 63, 78
13, 183744, Note_on_c, 6, 63, 0
13, 183744, Note_on_c, 6, 65, 0
13, 183744, Note_on_c, 6, 56, 0
13, 183744, Note_on_c, 6, 68, 0
13, 183840, Note_on_c, 6, 65, 78
13, 183840, Note_on_c, 6, 71, 78
13, 183840, Note_on_c, 6, 59, 78
13, 183840, Note_on_c, 6, 63, 78
13, 183936, Note_on_c, 6, 63, 0
13, 183936, Note_on_c, 6, 65, 0
13, 183936, Note_on_c, 6, 71, 0
13, 183936, Note_on_c, 6, 59, 0
13, 184032, Note_on_c, 6, 56, 78
13, 184032, Note_on_c, 6, 59, 78
13, 184128, Note_on_c, 6, 59, 0
13, 184128, Note_on_c, 6, 56, 0
13, 184128, Note_on_c, 6, 56, 78
13, 184128, Note_on_c, 6, 53, 78
13, 184128, Note_on_c, 6, 58, 78
13, 184128, Note_on_c, 6, 50, 78
13, 184224, Note_on_c, 6, 50, 0
13, 184224, Note_on_c, 6, 56, 0
13, 184224, Note_on_c, 6, 53, 0
13, 184224, Note_on_c, 6, 58, 0
13, 184512, Note_on_c, 6, 68, 78
13, 184512, Note_on_c, 6, 58, 78
13, 184512, Note_on_c, 6, 70, 78
13, 184512, Note_on_c, 6, 56, 78
13, 184608, Note_on_c, 6, 56, 0
13, 184608, Note_on_c, 6, 68, 0
13, 184608, Note_on_c, 6, 58, 0
13, 184608, Note_on_c, 6, 70, 0
13, 184800, Note_on_c, 6, 58, 78
13, 184800, Note_on_c, 6, 70, 78
13, 184896, Note_on_c, 6, 70, 0
13, 184896, Note_on_c, 6, 58, 0
13, 184896, Note_on_c, 6, 70, 78
13, 184896, Note_on_c, 6, 58, 78
13, 184992, Note_on_c, 6, 58, 0
13, 184992, Note_on_c, 6, 70, 0
13, 185184, Note_on_c, 6, 56, 78
13, 185184, Note_on_c, 6, 68, 78
13, 185280, Note_on_c, 6, 68, 0
13, 185280, Note_on_c, 6, 56, 0
13, 185280, Note_on_c, 6, 70, 78
13, 185280, Note_on_c, 6, 58, 78
13, 185376, Note_on_c, 6, 58, 0
13, 185376, Note_on_c, 6, 70, 0
13, 185568, Note_on_c, 6, 68, 78
13, 185568, Note_on_c, 6, 63, 78
13, 185568, Note_on_c, 6, 59, 78
13, 185664, Note_on_c, 6, 59, 0
13, 185664, Note_on_c, 6, 63, 0
13, 185664, Note_on_c, 6, 68, 0
13, 185664, Note_on_c, 6, 66, 78
13, 185664, Note_on_c, 6, 63, 78
13, 185664, Note_on_c, 6, 71, 78
13, 185664, Note_on_c, 6, 59, 78
13, 185760, Note_on_c, 6, 59, 0
13, 185760, Note_on_c, 6, 66, 0
13, 185760, Note_on_c, 6, 63, 0
13, 185760, Note_on_c, 6, 71, 0
13, 185952, Note_on_c, 6, 71, 78
13, 185952, Note_on_c, 6, 63, 78
13, 185952, Note_on_c, 6, 59, 78
13, 185952, Note_on_c, 6, 66, 78
13, 186048, Note_on_c, 6, 66, 0
13, 186048, Note_on_c, 6, 71, 0
13, 186048, Note_on_c, 6, 63, 0
13, 186048, Note_on_c, 6, 59, 0
13, 186048, Note_on_c, 6, 63, 78
13, 186048, Note_on_c, 6, 70, 78
13, 186048, Note_on_c, 6, 66, 78
13, 186048, Note_on_c, 6, 58, 78
13, 186144, Note_on_c, 6, 58, 0
13, 186144, Note_on_c, 6, 63, 0
13, 186144, Note_on_c, 6, 70, 0
13, 186144, Note_on_c, 6, 66, 0
13, 186336, Note_on_c, 6, 47, 78
13, 186336, Note_on_c, 6, 54, 78
13, 186336, Note_on_c, 6, 63, 78
13, 186336, Note_on_c, 6, 57, 78
13, 186528, Note_on_c, 6, 57, 0
13, 186528, Note_on_c, 6, 47, 0
13, 186528, Note_on_c, 6, 54, 0
13, 186528, Note_on_c, 6, 63, 0
13, 186528, Note_on_c, 6, 54, 78
13, 186528, Note_on_c, 6, 62, 78
13, 186528, Note_on_c, 6, 48, 78
13, 186528, Note_on_c, 6, 57, 78
13, 186720, Note_on_c, 6, 57, 0
13, 186720, Note_on_c, 6, 54, 0
13, 186720, Note_on_c, 6, 62, 0
13, 186720, Note_on_c, 6, 48, 0
13, 186720, Note_on_c, 6, 57, 78
13, 186720, Note_on_c, 6, 54, 78
13, 186720, Note_on_c, 6, 61, 78
13, 186720, Note_on_c, 6, 49, 78
13, 186912, Note_on_c, 6, 49, 0
13, 186912, Note_on_c, 6, 57, 0
13, 186912, Note_on_c, 6, 54, 0
13, 186912, Note_on_c, 6, 61, 0
13, 186912, Note_on_c, 6, 60, 78
13, 186912, Note_on_c, 6, 57, 78
13, 186912, Note_on_c, 6, 54, 78
13, 186912, Note_on_c, 6, 51, 78
13, 187008, Note_on_c, 6, 51, 0
13, 187008, Note_on_c, 6, 60, 0
13, 187008, Note_on_c, 6, 57, 0
13, 187008, Note_on_c, 6, 54, 0
13, 187008, Note_on_c, 6, 61, 78
13, 187008, Note_on_c, 6, 54, 78
13, 187008, Note_on_c, 6, 52, 78
13, 187008, Note_on_c, 6, 58, 78
13, 187104, Note_on_c, 6, 58, 0
13, 187104, Note_on_c, 6, 61, 0
13, 187104, Note_on_c, 6, 54, 0
13, 187104, Note_on_c, 6, 52, 0
13, 187104, Note_on_c, 6, 54, 78
13, 187152, Note_on_c, 6, 54, 0
13, 187152, Note_on_c, 6, 54, 78
13, 187200, Note_on_c, 6, 54, 0
13, 187200, Note_on_c, 6, 54, 78
13, 187296, Note_on_c, 6, 54, 0
13, 187296, Note_on_c, 6, 54, 78
13, 187392, Note_on_c, 6, 54, 0
13, 187392, Note_on_c, 6, 51, 78
13, 187392, Note_on_c, 6, 59, 78
13, 187584, Note_on_c, 6, 59, 0
13, 187584, Note_on_c, 6, 51, 0
13, 187584, Note_on_c, 6, 51, 78
13, 187584, Note_on_c, 6, 59, 78
13, 187776, Note_on_c, 6, 59, 0
13, 187776, Note_on_c, 6, 51, 0
13, 187776, Note_on_c, 6, 61, 78
13, 187776, Note_on_c, 6, 54, 78
13, 187968, Note_on_c, 6, 54, 0
13, 187968, Note_on_c, 6, 61, 0
13, 187968, Note_on_c, 6, 61, 78
13, 187968, Note_on_c, 6, 54, 78
13, 188160, Note_on_c, 6, 54, 0
13, 188160, Note_on_c, 6, 61, 0
13, 188160, Note_on_c, 6, 66, 78
13, 188160, Note_on_c, 6, 63, 78
13, 188448, Note_on_c, 6, 63, 0
13, 188448, Note_on_c, 6, 66, 0
13, 188448, Note_on_c, 6, 59, 78
13, 188448, Note_on_c, 6, 63, 78
13, 188544, Note_on_c, 6, 63, 0
13, 188544, Note_on_c, 6, 59, 0
13, 188544, Note_on_c, 6, 51, 78
13, 188544, Note_on_c, 6, 59, 78
13, 188640, Note_on_c, 6, 54, 78
13, 188688, Note_on_c, 6, 54, 0
13, 188688, Note_on_c, 6, 54, 78
13, 188736, Note_on_c, 6, 54, 0
13, 188736, Note_on_c, 6, 59, 0
13, 188736, Note_on_c, 6, 51, 0
13, 188736, Note_on_c, 6, 54, 78
13, 188832, Note_on_c, 6, 54, 0
13, 188832, Note_on_c, 6, 54, 78
13, 188928, Note_on_c, 6, 54, 0
13, 188928, Note_on_c, 6, 59, 78
13, 188928, Note_on_c, 6, 51, 78
13, 189120, Note_on_c, 6, 51, 0
13, 189120, Note_on_c, 6, 59, 0
13, 189120, Note_on_c, 6, 59, 78
13, 189120, Note_on_c, 6, 51, 78
13, 189312, Note_on_c, 6, 51, 0
13, 189312, Note_on_c, 6, 59, 0
13, 189312, Note_on_c, 6, 54, 78
13, 189312, Note_on_c, 6, 61, 78
13, 189504, Note_on_c, 6, 61, 0
13, 189504, Note_on_c, 6, 54, 0
13, 189504, Note_on_c, 6, 61, 78
13, 189504, Note_on_c, 6, 54, 78
13, 189696, Note_on_c, 6, 54, 0
13, 189696, Note_on_c, 6, 61, 0
13, 189696, Note_on_c, 6, 63, 78
13, 189696, Note_on_c, 6, 66, 78
13, 189984, Note_on_c, 6, 66, 0
13, 189984, Note_on_c, 6, 63, 0
13, 189984, Note_on_c, 6, 59, 78
13, 189984, Note_on_c, 6, 63, 78
13, 190080, Note_on_c, 6, 63, 0
13, 190080, Note_on_c, 6, 59, 0
13, 190080, Note_on_c, 6, 51, 78
13, 190080, Note_on_c, 6, 59, 78
13, 190272, Note_on_c, 6, 59, 0
13, 190272, Note_on_c, 6, 51, 0
13, 192000, Note_on_c, 6, 66, 78
13, 192000, Note_on_c, 6, 63, 78
13, 192288, Note_on_c, 6, 63, 0
13, 192288, Note_on_c, 6, 66, 0
13, 192288, Note_on_c, 6, 63, 78
13, 192288, Note_on_c, 6, 59, 78
13, 192384, Note_on_c, 6, 59, 0
13, 192384, Note_on_c, 6, 63, 0
13, 192384, Note_on_c, 6, 51, 78
13, 192384, Note_on_c, 6, 59, 78
13, 192672, Note_on_c, 6, 59, 0
13, 192672, Note_on_c, 6, 51, 0
13, 194304, Note_on_c, 6, 51, 78
13, 194304, Note_on_c, 6, 59, 78
13, 194832, Note_on_c, 6, 59, 0
13, 194832, Note_on_c, 6, 51, 0
13, 196032, Note_on_c, 6, 59, 78
13, 196032, Note_on_c, 6, 51, 78
13, 196224, Note_on_c, 6, 51, 0
13, 196224, Note_on_c, 6, 59, 0
13, 196416, Note_on_c, 6, 51, 78
13, 196416, Note_on_c, 6, 59, 78
13, 196608, Note_on_c, 6, 59, 0
13, 196608, Note_on_c, 6, 51, 0
13, 196800, Note_on_c, 6, 51, 78
13, 196800, Note_on_c, 6, 59, 78
13, 196992, Note_on_c, 6, 59, 0
13, 196992, Note_on_c, 6, 51, 0
13, 197184, Note_on_c, 6, 59, 78
13, 197184, Note_on_c, 6, 51, 78
13, 197376, Note_on_c, 6, 51, 0
13, 197376, Note_on_c, 6, 59, 0
13, 197568, Note_on_c, 6, 51, 74
13, 197760, Note_on_c, 6, 59, 74
13, 197952, Note_on_c, 6, 54, 74
13, 198144, Note_on_c, 6, 63, 74
13, 198912, Note_on_c, 6, 63, 0
13, 198912, Note_on_c, 6, 51, 0
13, 198912, Note_on_c, 6, 59, 0
13, 198912, Note_on_c, 6, 54, 0
13, 198912, Note_on_c, 6, 55, 62
13, 198912, Note_on_c, 6, 63, 62
13, 198912, Note_on_c, 6, 51, 62
13, 198912, Note_on_c, 6, 58, 62
13, 199296, Note_on_c, 6, 58, 0
13, 199296, Note_on_c, 6, 55, 0
13, 199296, Note_on_c, 6, 63, 0
13, 199296, Note_on_c, 6, 51, 0
13, 199296, Note_on_c, 6, 62, 62
13, 199296, Note_on_c, 6, 58, 62
13, 199296, Note_on_c, 6, 56, 57
13, 199296, Note_on_c, 6, 50, 62
13, 199680, Note_on_c, 6, 50, 0
13, 199680, Note_on_c, 6, 62, 0
13, 199680, Note_on_c, 6, 58, 0
13, 199680, Note_on_c, 6, 56, 0
13, 199680, Note_on_c, 6, 63, 62
13, 199680, Note_on_c, 6, 58, 62
13, 199680, Note_on_c, 6, 55, 62
13, 199680, Note_on_c, 6, 51, 62
13, 200064, Note_on_c, 6, 51, 0
13, 200064, Note_on_c, 6, 63, 0
13, 200064, Note_on_c, 6, 58, 0
13, 200064, Note_on_c, 6, 55, 0
13, 200064, Note_on_c, 6, 56, 57
13, 200064, Note_on_c, 6, 62, 62
13, 200064, Note_on_c, 6, 50, 62
13, 200064, Note_on_c, 6, 58, 62
13, 200448, Note_on_c, 6, 58, 0
13, 200448, Note_on_c, 6, 56, 0
13, 200448, Note_on_c, 6, 62, 0
13, 200448, Note_on_c, 6, 50, 0
13, 200448, Note_on_c, 6, 63, 62
13, 200448, Note_on_c, 6, 58, 62
13, 200448, Note_on_c, 6, 51, 62
13, 200448, Note_on_c, 6, 55, 62
13, 200832, Note_on_c, 6, 55, 0
13, 200832, Note_on_c, 6, 63, 0
13, 200832, Note_on_c, 6, 58, 0
13, 200832, Note_on_c, 6, 51, 0
13, 200832, Note_on_c, 6, 62, 62
13, 200832, Note_on_c, 6, 58, 62
13, 200832, Note_on_c, 6, 56, 57
13, 200832, Note_on_c, 6, 50, 62
13, 201216, Note_on_c, 6, 50, 0
13, 201216, Note_on_c, 6, 62, 0
13, 201216, Note_on_c, 6, 58, 0
13, 201216, Note_on_c, 6, 56, 0
13, 201216, Note_on_c, 6, 55, 62
13, 201216, Note_on_c, 6, 63, 62
13, 201216, Note_on_c, 6, 51, 62
13, 201216, Note_on_c, 6, 58, 62
13, 201600, Note_on_c, 6, 58, 0
13, 201600, Note_on_c, 6, 55, 0
13, 201600, Note_on_c, 6, 63, 0
13, 201600, Note_on_c, 6, 51, 0
13, 201600, Note_on_c, 6, 62, 62
13, 201600, Note_on_c, 6, 58, 62
13, 201600, Note_on_c, 6, 56, 57
13, 201600, Note_on_c, 6, 50, 62
13, 201984, Note_on_c, 6, 50, 0
13, 201984, Note_on_c, 6, 62, 0
13, 201984, Note_on_c, 6, 58, 0
13, 201984, Note_on_c, 6, 56, 0
13, 201984, Note_on_c, 6, 63, 62
13, 201984, Note_on_c, 6, 58, 62
13, 201984, Note_on_c, 6, 55, 62
13, 201984, Note_on_c, 6, 51, 62
13, 202368, Note_on_c, 6, 51, 0
13, 202368, Note_on_c, 6, 63, 0
13, 202368, Note_on_c, 6, 58, 0
13, 202368, Note_on_c, 6, 55, 0
13, 202368, Note_on_c, 6, 62, 62
13, 202368, Note_on_c, 6, 56, 57
13, 202368, Note_on_c, 6, 50, 62
13, 202368, Note_on_c, 6, 58, 62
13, 202752, Note_on_c, 6, 58, 0
13, 202752, Note_on_c, 6, 62, 0
13, 202752, Note_on_c, 6, 56, 0
13, 202752, Note_on_c, 6, 50, 0
13, 202752, Note_on_c, 6, 58, 62
13, 202752, Note_on_c, 6, 63, 62
13, 202752, Note_on_c, 6, 51, 62
13, 202752, Note_on_c, 6, 55, 62
13, 203136, Note_on_c, 6, 55, 0
13, 203136, Note_on_c, 6, 58, 0
13, 203136, Note_on_c, 6, 63, 0
13, 203136, Note_on_c, 6, 51, 0
13, 203136, Note_on_c, 6, 62, 62
13, 203136, Note_on_c, 6, 58, 62
13, 203136, Note_on_c, 6, 56, 57
13, 203136, Note_on_c, 6, 50, 62
13, 203520, Note_on_c, 6, 50, 0
13, 203520, Note_on_c, 6, 62, 0
13, 203520, Note_on_c, 6, 58, 0
13, 203520, Note_on_c, 6, 56, 0
13, 203520, Note_on_c, 6, 63, 62
13, 203520, Note_on_c, 6, 58, 62
13, 203520, Note_on_c, 6, 55, 62
13, 203520, Note_on_c, 6, 51, 62
13, 203904, Note_on_c, 6, 51, 0
13, 203904, Note_on_c, 6, 63, 0
13, 203904, Note_on_c, 6, 58, 0
13, 203904, Note_on_c, 6, 55, 0
13, 203904, Note_on_c, 6, 56, 57
13, 203904, Note_on_c, 6, 65, 62
13, 203904, Note_on_c, 6, 50, 62
13, 203904, Note_on_c, 6, 58, 62
13, 204288, Note_on_c, 6, 58, 0
13, 204288, Note_on_c, 6, 56, 0
13, 204288, Note_on_c, 6, 65, 0
13, 204288, Note_on_c, 6, 50, 0
13, 204288, Note_on_c, 6, 67, 62
13, 204288, Note_on_c, 6, 58, 62
13, 204288, Note_on_c, 6, 55, 62
13, 204672, Note_on_c, 6, 55, 0
13, 204672, Note_on_c, 6, 58, 0
13, 204672, Note_on_c, 6, 67, 0
13, 204672, Note_on_c, 6, 58, 62
13, 204672, Note_on_c, 6, 65, 62
13, 204672, Note_on_c, 6, 56, 57
13, 205056, Note_on_c, 6, 56, 0
13, 205056, Note_on_c, 6, 65, 0
13, 205056, Note_on_c, 6, 58, 0
13, 205056, Note_on_c, 6, 63, 62
13, 205056, Note_on_c, 6, 58, 62
13, 205056, Note_on_c, 6, 55, 62
13, 205056, Note_on_c, 6, 51, 62
13, 205440, Note_on_c, 6, 51, 0
13, 205440, Note_on_c, 6, 63, 0
13, 205440, Note_on_c, 6, 58, 0
13, 205440, Note_on_c, 6, 55, 0
13, 205440, Note_on_c, 6, 62, 62
13, 205440, Note_on_c, 6, 50, 62
13, 205440, Note_on_c, 6, 58, 62
13, 205440, Note_on_c, 6, 56, 57
13, 205824, Note_on_c, 6, 56, 0
13, 205824, Note_on_c, 6, 62, 0
13, 205824, Note_on_c, 6, 50, 0
13, 205824, Note_on_c, 6, 58, 0
13, 205824, Note_on_c, 6, 58, 62
13, 205824, Note_on_c, 6, 63, 62
13, 205824, Note_on_c, 6, 51, 62
13, 205824, Note_on_c, 6, 55, 62
13, 206208, Note_on_c, 6, 55, 0
13, 206208, Note_on_c, 6, 58, 0
13, 206208, Note_on_c, 6, 63, 0
13, 206208, Note_on_c, 6, 51, 0
13, 206208, Note_on_c, 6, 65, 62
13, 206208, Note_on_c, 6, 58, 62
13, 206208, Note_on_c, 6, 53, 62
13, 206208, Note_on_c, 6, 56, 57
13, 206592, Note_on_c, 6, 56, 0
13, 206592, Note_on_c, 6, 65, 0
13, 206592, Note_on_c, 6, 58, 0
13, 206592, Note_on_c, 6, 53, 0
13, 206592, Note_on_c, 6, 63, 62
13, 206592, Note_on_c, 6, 58, 62
13, 206592, Note_on_c, 6, 55, 62
13, 206592, Note_on_c, 6, 51, 62
13, 206976, Note_on_c, 6, 51, 0
13, 206976, Note_on_c, 6, 63, 0
13, 206976, Note_on_c, 6, 58, 0
13, 206976, Note_on_c, 6, 55, 0
13, 206976, Note_on_c, 6, 65, 62
13, 206976, Note_on_c, 6, 58, 62
13, 206976, Note_on_c, 6, 56, 57
13, 206976, Note_on_c, 6, 53, 62
13, 207360, Note_on_c, 6, 53, 0
13, 207360, Note_on_c, 6, 65, 0
13, 207360, Note_on_c, 6, 58, 0
13, 207360, Note_on_c, 6, 56, 0
13, 207360, Note_on_c, 6, 63, 62
13, 207360, Note_on_c, 6, 58, 62
13, 207360, Note_on_c, 6, 55, 62
13, 207360, Note_on_c, 6, 51, 62
13, 207744, Note_on_c, 6, 51, 0
13, 207744, Note_on_c, 6, 63, 0
13, 207744, Note_on_c, 6, 58, 0
13, 207744, Note_on_c, 6, 55, 0
13, 207744, Note_on_c, 6, 58, 62
13, 207744, Note_on_c, 6, 56, 62
13, 207744, Note_on_c, 6, 62, 62
13, 207744, Note_on_c, 6, 50, 62
13, 208128, Note_on_c, 6, 50, 0
13, 208128, Note_on_c, 6, 58, 0
13, 208128, Note_on_c, 6, 56, 0
13, 208128, Note_on_c, 6, 62, 0
13, 208128, Note_on_c, 6, 54, 68
13, 208128, Note_on_c, 6, 58, 68
13, 208128, Note_on_c, 6, 63, 62
13, 208128, Note_on_c, 6, 51, 62
13, 208512, Note_on_c, 6, 51, 0
13, 208512, Note_on_c, 6, 54, 0
13, 208512, Note_on_c, 6, 58, 0
13, 208512, Note_on_c, 6, 63, 0
13, 208512, Note_on_c, 6, 58, 68
13, 208512, Note_on_c, 6, 56, 62
13, 208512, Note_on_c, 6, 62, 62
13, 208512, Note_on_c, 6, 50, 62
13, 208896, Note_on_c, 6, 50, 0
13, 208896, Note_on_c, 6, 58, 0
13, 208896, Note_on_c, 6, 56, 0
13, 208896, Note_on_c, 6, 62, 0
13, 208896, Note_on_c, 6, 54, 68
13, 208896, Note_on_c, 6, 58, 68
13, 208896, Note_on_c, 6, 63, 62
13, 208896, Note_on_c, 6, 51, 62
13, 209280, Note_on_c, 6, 51, 0
13, 209280, Note_on_c, 6, 54, 0
13, 209280, Note_on_c, 6, 58, 0
13, 209280, Note_on_c, 6, 63, 0
13, 209280, Note_on_c, 6, 56, 62
13, 209280, Note_on_c, 6, 62, 62
13, 209280, Note_on_c, 6, 50, 62
13, 209280, Note_on_c, 6, 58, 62
13, 209664, Note_on_c, 6, 58, 0
13, 209664, Note_on_c, 6, 56, 0
13, 209664, Note_on_c, 6, 62, 0
13, 209664, Note_on_c, 6, 50, 0
13, 209664, Note_on_c, 6, 63, 62
13, 209664, Note_on_c, 6, 58, 62
13, 209664, Note_on_c, 6, 54, 62
13, 209664, Note_on_c, 6, 51, 62
13, 210048, Note_on_c, 6, 51, 0
13, 210048, Note_on_c, 6, 63, 0
13, 210048, Note_on_c, 6, 58, 0
13, 210048, Note_on_c, 6, 54, 0
13, 210048, Note_on_c, 6, 62, 62
13, 210048, Note_on_c, 6, 58, 62
13, 210048, Note_on_c, 6, 56, 62
13, 210048, Note_on_c, 6, 50, 62
13, 210432, Note_on_c, 6, 50, 0
13, 210432, Note_on_c, 6, 62, 0
13, 210432, Note_on_c, 6, 58, 0
13, 210432, Note_on_c, 6, 56, 0
13, 210432, Note_on_c, 6, 58, 62
13, 210432, Note_on_c, 6, 63, 62
13, 210432, Note_on_c, 6, 54, 62
13, 210432, Note_on_c, 6, 51, 62
13, 210816, Note_on_c, 6, 51, 0
13, 210816, Note_on_c, 6, 58, 0
13, 210816, Note_on_c, 6, 63, 0
13, 210816, Note_on_c, 6, 54, 0
13, 210816, Note_on_c, 6, 58, 62
13, 210816, Note_on_c, 6, 62, 62
13, 210816, Note_on_c, 6, 50, 62
13, 210816, Note_on_c, 6, 56, 62
13, 211200, Note_on_c, 6, 56, 0
13, 211200, Note_on_c, 6, 58, 0
13, 211200, Note_on_c, 6, 62, 0
13, 211200, Note_on_c, 6, 50, 0
13, 211200, Note_on_c, 6, 63, 62
13, 211200, Note_on_c, 6, 58, 62
13, 211200, Note_on_c, 6, 54, 62
13, 211200, Note_on_c, 6, 51, 62
13, 211584, Note_on_c, 6, 51, 0
13, 211584, Note_on_c, 6, 63, 0
13, 211584, Note_on_c, 6, 58, 0
13, 211584, Note_on_c, 6, 54, 0
13, 211584, Note_on_c, 6, 62, 62
13, 211584, Note_on_c, 6, 58, 62
13, 211584, Note_on_c, 6, 56, 62
13, 211584, Note_on_c, 6, 50, 62
13, 211968, Note_on_c, 6, 50, 0
13, 211968, Note_on_c, 6, 62, 0
13, 211968, Note_on_c, 6, 58, 0
13, 211968, Note_on_c, 6, 56, 0
13, 211968, Note_on_c, 6, 58, 62
13, 211968, Note_on_c, 6, 63, 62
13, 211968, Note_on_c, 6, 54, 62
13, 211968, Note_on_c, 6, 51, 62
13, 212352, Note_on_c, 6, 51, 0
13, 212352, Note_on_c, 6, 58, 0
13, 212352, Note_on_c, 6, 63, 0
13, 212352, Note_on_c, 6, 54, 0
13, 212352, Note_on_c, 6, 65, 62
13, 212352, Note_on_c, 6, 58, 62
13, 212352, Note_on_c, 6, 56, 62
13, 212352, Note_on_c, 6, 53, 62
13, 212736, Note_on_c, 6, 53, 0
13, 212736, Note_on_c, 6, 65, 0
13, 212736, Note_on_c, 6, 58, 0
13, 212736, Note_on_c, 6, 56, 0
13, 212736, Note_on_c, 6, 58, 62
13, 212736, Note_on_c, 6, 63, 62
13, 212736, Note_on_c, 6, 54, 62
13, 212736, Note_on_c, 6, 51, 62
13, 213120, Note_on_c, 6, 51, 0
13, 213120, Note_on_c, 6, 58, 0
13, 213120, Note_on_c, 6, 63, 0
13, 213120, Note_on_c, 6, 54, 0
13, 213120, Note_on_c, 6, 56, 62
13, 213120, Note_on_c, 6, 65, 62
13, 213120, Note_on_c, 6, 58, 62
13, 213120, Note_on_c, 6, 53, 62
13, 213504, Note_on_c, 6, 53, 0
13, 213504, Note_on_c, 6, 56, 0
13, 213504, Note_on_c, 6, 65, 0
13, 213504, Note_on_c, 6, 58, 0
13, 213504, Note_on_c, 6, 58, 62
13, 213504, Note_on_c, 6, 51, 62
13, 213504, Note_on_c, 6, 63, 62
13, 213504, Note_on_c, 6, 54, 62
13, 213888, Note_on_c, 6, 54, 0
13, 213888, Note_on_c, 6, 58, 0
13, 213888, Note_on_c, 6, 51, 0
13, 213888, Note_on_c, 6, 63, 0
13, 213888, Note_on_c, 6, 58, 62
13, 213888, Note_on_c, 6, 65, 62
13, 213888, Note_on_c, 6, 56, 62
13, 213888, Note_on_c, 6, 53, 62
13, 214272, Note_on_c, 6, 53, 0
13, 214272, Note_on_c, 6, 58, 0
13, 214272, Note_on_c, 6, 65, 0
13, 214272, Note_on_c, 6, 56, 0
13, 214272, Note_on_c, 6, 63, 62
13, 214272, Note_on_c, 6, 58, 62
13, 214272, Note_on_c, 6, 54, 62
13, 214272, Note_on_c, 6, 51, 62
13, 214368, Note_on_c, 6, 51, 0
13, 214368, Note_on_c, 6, 63, 0
13, 214368, Note_on_c, 6, 58, 0
13, 214368, Note_on_c, 6, 54, 0
13, 220896, Note_on_c, 6, 58, 78
13, 220944, Note_on_c, 6, 58, 0
13, 220944, Note_on_c, 6, 58, 78
13, 220992, Note_on_c, 6, 58, 0
13, 220992, Note_on_c, 6, 58, 78
13, 221052, Note_on_c, 6, 58, 0
13, 221088, Note_on_c, 6, 58, 78
13, 221148, Note_on_c, 6, 58, 0
13, 221184, Note_on_c, 6, 55, 78
13, 221184, Note_on_c, 6, 63, 78
13, 221184, Note_on_c, 6, 58, 78
13, 221376, Note_on_c, 6, 58, 0
13, 221376, Note_on_c, 6, 63, 0
13, 221376, Note_on_c, 6, 55, 0
13, 221376, Note_on_c, 6, 63, 78
13, 221376, Note_on_c, 6, 55, 78
13, 221376, Note_on_c, 6, 58, 78
13, 221568, Note_on_c, 6, 58, 0
13, 221568, Note_on_c, 6, 55, 0
13, 221568, Note_on_c, 6, 63, 0
13, 221568, Note_on_c, 6, 58, 83
13, 221568, Note_on_c, 6, 65, 78
13, 221568, Note_on_c, 6, 62, 78
13, 221760, Note_on_c, 6, 62, 0
13, 221760, Note_on_c, 6, 65, 0
13, 221760, Note_on_c, 6, 58, 0
13, 221760, Note_on_c, 6, 58, 83
13, 221760, Note_on_c, 6, 65, 78
13, 221760, Note_on_c, 6, 62, 78
13, 221952, Note_on_c, 6, 62, 0
13, 221952, Note_on_c, 6, 65, 0
13, 221952, Note_on_c, 6, 58, 0
13, 221952, Note_on_c, 6, 70, 78
13, 221952, Note_on_c, 6, 63, 78
13, 221952, Note_on_c, 6, 67, 78
13, 222240, Note_on_c, 6, 67, 0
13, 222240, Note_on_c, 6, 63, 0
13, 222240, Note_on_c, 6, 70, 0
13, 222240, Note_on_c, 6, 67, 78
13, 222240, Note_on_c, 6, 63, 78
13, 222240, Note_on_c, 6, 58, 78
13, 222336, Note_on_c, 6, 58, 0
13, 222336, Note_on_c, 6, 63, 0
13, 222336, Note_on_c, 6, 67, 0
13, 222336, Note_on_c, 6, 63, 78
13, 222336, Note_on_c, 6, 55, 78
13, 222336, Note_on_c, 6, 58, 78
13, 222720, Note_on_c, 6, 58, 0
13, 222720, Note_on_c, 6, 55, 0
13, 222720, Note_on_c, 6, 63, 0
13, 223968, Note_on_c, 6, 60, 78
13, 224016, Note_on_c, 6, 60, 0
13, 224016, Note_on_c, 6, 60, 78
13, 224064, Note_on_c, 6, 60, 0
13, 224064, Note_on_c, 6, 60, 78
13, 224124, Note_on_c, 6, 60, 0
13, 224160, Note_on_c, 6, 60, 78
13, 224220, Note_on_c, 6, 60, 0
13, 224256, Note_on_c, 6, 56, 78
13, 224256, Note_on_c, 6, 65, 78
13, 224256, Note_on_c, 6, 60, 78
13, 224448, Note_on_c, 6, 60, 0
13, 224448, Note_on_c, 6, 65, 0
13, 224448, Note_on_c, 6, 56, 0
13, 224448, Note_on_c, 6, 60, 78
13, 224448, Note_on_c, 6, 65, 78
13, 224448, Note_on_c, 6, 56, 78
13, 224640, Note_on_c, 6, 56, 0
13, 224640, Note_on_c, 6, 65, 0
13, 224640, Note_on_c, 6, 60, 0
13, 224640, Note_on_c, 6, 64, 78
13, 224640, Note_on_c, 6, 67, 78
13, 224640, Note_on_c, 6, 60, 78
13, 224832, Note_on_c, 6, 60, 0
13, 224832, Note_on_c, 6, 67, 0
13, 224832, Note_on_c, 6, 64, 0
13, 224832, Note_on_c, 6, 67, 78
13, 224832, Note_on_c, 6, 64, 78
13, 224832, Note_on_c, 6, 60, 78
13, 225024, Note_on_c, 6, 60, 0
13, 225024, Note_on_c, 6, 64, 0
13, 225024, Note_on_c, 6, 67, 0
13, 225024, Note_on_c, 6, 72, 78
13, 225024, Note_on_c, 6, 65, 78
13, 225024, Note_on_c, 6, 68, 78
13, 225312, Note_on_c, 6, 68, 0
13, 225312, Note_on_c, 6, 65, 0
13, 225312, Note_on_c, 6, 72, 0
13, 225312, Note_on_c, 6, 68, 78
13, 225312, Note_on_c, 6, 65, 78
13, 225312, Note_on_c, 6, 60, 78
13, 225408, Note_on_c, 6, 60, 0
13, 225408, Note_on_c, 6, 65, 0
13, 225408, Note_on_c, 6, 68, 0
13, 225408, Note_on_c, 6, 65, 78
13, 225408, Note_on_c, 6, 60, 78
13, 225408, Note_on_c, 6, 56, 78
13, 225792, Note_on_c, 6, 56, 0
13, 225792, Note_on_c, 6, 60, 0
13, 225792, Note_on_c, 6, 65, 0
13, 227040, Note_on_c, 6, 62, 78
13, 227088, Note_on_c, 6, 62, 0
13, 227088, Note_on_c, 6, 62, 78
13, 227136, Note_on_c, 6, 62, 0
13, 227136, Note_on_c, 6, 62, 78
13, 227196, Note_on_c, 6, 62, 0
13, 227232, Note_on_c, 6, 62, 78
13, 227292, Note_on_c, 6, 62, 0
13, 227328, Note_on_c, 6, 58, 71
13, 227328, Note_on_c, 6, 62, 71
13, 227424, Note_on_c, 6, 62, 0
13, 227424, Note_on_c, 6, 58, 0
13, 227520, Note_on_c, 6, 62, 78
13, 227520, Note_on_c, 6, 66, 78
13, 227616, Note_on_c, 6, 66, 0
13, 227616, Note_on_c, 6, 62, 0
13, 227712, Note_on_c, 6, 67, 78
13, 227808, Note_on_c, 6, 67, 0
13, 227808, Note_on_c, 6, 50, 78
13, 227856, Note_on_c, 6, 50, 0
13, 227856, Note_on_c, 6, 50, 78
13, 227904, Note_on_c, 6, 50, 0
13, 227904, Note_on_c, 6, 50, 78
13, 227904, Note_on_c, 6, 65, 78
13, 227904, Note_on_c, 6, 62, 78
13, 227964, Note_on_c, 6, 50, 0
13, 228000, Note_on_c, 6, 62, 0
13, 228000, Note_on_c, 6, 65, 0
13, 228000, Note_on_c, 6, 50, 78
13, 228060, Note_on_c, 6, 50, 0
13, 228096, Note_on_c, 6, 55, 78
13, 228096, Note_on_c, 6, 67, 78
13, 228192, Note_on_c, 6, 67, 0
13, 228192, Note_on_c, 6, 55, 0
13, 228288, Note_on_c, 6, 57, 78
13, 228384, Note_on_c, 6, 57, 0
13, 228576, Note_on_c, 6, 67, 78
13, 228624, Note_on_c, 6, 67, 0
13, 228624, Note_on_c, 6, 67, 78
13, 228672, Note_on_c, 6, 67, 0
13, 228672, Note_on_c, 6, 67, 78
13, 228732, Note_on_c, 6, 67, 0
13, 228768, Note_on_c, 6, 67, 78
13, 228828, Note_on_c, 6, 67, 0
13, 228864, Note_on_c, 6, 63, 78
13, 228864, Note_on_c, 6, 67, 78
13, 228960, Note_on_c, 6, 67, 0
13, 228960, Note_on_c, 6, 63, 0
13, 229056, Note_on_c, 6, 67, 71
13, 229056, Note_on_c, 6, 71, 71
13, 229152, Note_on_c, 6, 71, 0
13, 229152, Note_on_c, 6, 67, 0
13, 229248, Note_on_c, 6, 72, 78
13, 229344, Note_on_c, 6, 72, 0
13, 229344, Note_on_c, 6, 55, 78
13, 229392, Note_on_c, 6, 55, 0
13, 229392, Note_on_c, 6, 55, 78
13, 229440, Note_on_c, 6, 55, 0
13, 229440, Note_on_c, 6, 67, 78
13, 229440, Note_on_c, 6, 71, 78
13, 229440, Note_on_c, 6, 55, 78
13, 229500, Note_on_c, 6, 55, 0
13, 229536, Note_on_c, 6, 71, 0
13, 229536, Note_on_c, 6, 67, 0
13, 229536, Note_on_c, 6, 55, 78
13, 229596, Note_on_c, 6, 55, 0
13, 229632, Note_on_c, 6, 72, 78
13, 229632, Note_on_c, 6, 60, 78
13, 229632, Note_on_c, 6, 55, 78
13, 229632, Note_on_c, 6, 51, 78
13, 229728, Note_on_c, 6, 51, 0
13, 229728, Note_on_c, 6, 72, 0
13, 229728, Note_on_c, 6, 60, 0
13, 229728, Note_on_c, 6, 55, 0
13, 229824, Note_on_c, 6, 55, 78
13, 229824, Note_on_c, 6, 62, 78
13, 229824, Note_on_c, 6, 59, 78
13, 229920, Note_on_c, 6, 59, 0
13, 229920, Note_on_c, 6, 62, 0
13, 229920, Note_on_c, 6, 55, 0
13, 230016, Note_on_c, 6, 63, 78
13, 230016, Note_on_c, 6, 60, 78
13, 230112, Note_on_c, 6, 60, 0
13, 230112, Note_on_c, 6, 63, 0
13, 230208, Note_on_c, 6, 64, 78
13, 230208, Note_on_c, 6, 58, 78
13, 230304, Note_on_c, 6, 58, 0
13, 230304, Note_on_c, 6, 64, 0
13, 230400, Note_on_c, 6, 56, 78
13, 230400, Note_on_c, 6, 65, 78
13, 230592, Note_on_c, 6, 65, 0
13, 230592, Note_on_c, 6, 56, 0
13, 230592, Note_on_c, 6, 60, 78
13, 230592, Note_on_c, 6, 67, 78
13, 230784, Note_on_c, 6, 67, 0
13, 230784, Note_on_c, 6, 60, 0
13, 230784, Note_on_c, 6, 65, 78
13, 230784, Note_on_c, 6, 68, 78
13, 230976, Note_on_c, 6, 68, 0
13, 230976, Note_on_c, 6, 65, 0
13, 230976, Note_on_c, 6, 60, 78
13, 230976, Note_on_c, 6, 67, 78
13, 231168, Note_on_c, 6, 67, 0
13, 231168, Note_on_c, 6, 60, 0
13, 231168, Note_on_c, 6, 65, 78
13, 231168, Note_on_c, 6, 60, 78
13, 231360, Note_on_c, 6, 60, 0
13, 231360, Note_on_c, 6, 65, 0
13, 231360, Note_on_c, 6, 60, 78
13, 231360, Note_on_c, 6, 63, 78
13, 231552, Note_on_c, 6, 63, 0
13, 231552, Note_on_c, 6, 60, 0
13, 231552, Note_on_c, 6, 59, 78
13, 231552, Note_on_c, 6, 61, 78
13, 231612, Note_on_c, 6, 61, 0
13, 231612, Note_on_c, 6, 59, 0
13, 231648, Note_on_c, 6, 61, 78
13, 231648, Note_on_c, 6, 59, 78
13, 231696, Note_on_c, 6, 59, 0
13, 231696, Note_on_c, 6, 61, 0
13, 231696, Note_on_c, 6, 61, 78
13, 231696, Note_on_c, 6, 59, 78
13, 231744, Note_on_c, 6, 59, 0
13, 231744, Note_on_c, 6, 61, 0
13, 231744, Note_on_c, 6, 59, 78
13, 231744, Note_on_c, 6, 61, 78
13, 231804, Note_on_c, 6, 61, 0
13, 231804, Note_on_c, 6, 59, 0
13, 231840, Note_on_c, 6, 61, 78
13, 231840, Note_on_c, 6, 59, 78
13, 231888, Note_on_c, 6, 59, 0
13, 231888, Note_on_c, 6, 61, 0
13, 231888, Note_on_c, 6, 61, 78
13, 231888, Note_on_c, 6, 59, 78
13, 231936, Note_on_c, 6, 59, 0
13, 231936, Note_on_c, 6, 61, 0
13, 231936, Note_on_c, 6, 58, 78
13, 231936, Note_on_c, 6, 66, 78
13, 232128, Note_on_c, 6, 66, 0
13, 232128, Note_on_c, 6, 58, 0
13, 232128, Note_on_c, 6, 61, 78
13, 232128, Note_on_c, 6, 68, 78
13, 232320, Note_on_c, 6, 68, 0
13, 232320, Note_on_c, 6, 61, 0
13, 232320, Note_on_c, 6, 70, 78
13, 232320, Note_on_c, 6, 66, 78
13, 232512, Note_on_c, 6, 66, 0
13, 232512, Note_on_c, 6, 70, 0
13, 232512, Note_on_c, 6, 68, 78
13, 232512, Note_on_c, 6, 61, 78
13, 232704, Note_on_c, 6, 61, 0
13, 232704, Note_on_c, 6, 68, 0
13, 232704, Note_on_c, 6, 66, 78
13, 232704, Note_on_c, 6, 61, 78
13, 232896, Note_on_c, 6, 61, 0
13, 232896, Note_on_c, 6, 66, 0
13, 232896, Note_on_c, 6, 61, 78
13, 232896, Note_on_c, 6, 65, 78
13, 233088, Note_on_c, 6, 65, 0
13, 233088, Note_on_c, 6, 61, 0
13, 233088, Note_on_c, 6, 61, 78
13, 233088, Note_on_c, 6, 63, 78
13, 233184, Note_on_c, 6, 63, 0
13, 233184, Note_on_c, 6, 61, 0
13, 233568, Note_on_c, 6, 51, 78
13, 233616, Note_on_c, 6, 51, 0
13, 233616, Note_on_c, 6, 51, 78
13, 233664, Note_on_c, 6, 51, 0
13, 233664, Note_on_c, 6, 51, 78
13, 233760, Note_on_c, 6, 51, 0
13, 233760, Note_on_c, 6, 51, 78
13, 233856, Note_on_c, 6, 51, 0
13, 233856, Note_on_c, 6, 48, 78
13, 233856, Note_on_c, 6, 57, 78
13, 233952, Note_on_c, 6, 57, 0
13, 233952, Note_on_c, 6, 48, 0
13, 233952, Note_on_c, 6, 58, 78
13, 233952, Note_on_c, 6, 49, 78
13, 234048, Note_on_c, 6, 49, 0
13, 234048, Note_on_c, 6, 58, 0
13, 234048, Note_on_c, 6, 60, 78
13, 234048, Note_on_c, 6, 51, 78
13, 234144, Note_on_c, 6, 51, 0
13, 234144, Note_on_c, 6, 60, 0
13, 234336, Note_on_c, 6, 53, 78
13, 234384, Note_on_c, 6, 53, 0
13, 234384, Note_on_c, 6, 53, 78
13, 234432, Note_on_c, 6, 53, 0
13, 234432, Note_on_c, 6, 53, 78
13, 234528, Note_on_c, 6, 53, 0
13, 234528, Note_on_c, 6, 53, 78
13, 234624, Note_on_c, 6, 53, 0
13, 234624, Note_on_c, 6, 50, 78
13, 234624, Note_on_c, 6, 59, 78
13, 234720, Note_on_c, 6, 59, 0
13, 234720, Note_on_c, 6, 50, 0
13, 234720, Note_on_c, 6, 60, 78
13, 234720, Note_on_c, 6, 51, 78
13, 234816, Note_on_c, 6, 51, 0
13, 234816, Note_on_c, 6, 60, 0
13, 234816, Note_on_c, 6, 62, 78
13, 234816, Note_on_c, 6, 53, 78
13, 234912, Note_on_c, 6, 53, 0
13, 234912, Note_on_c, 6, 62, 0
13, 235104, Note_on_c, 6, 55, 78
13, 235152, Note_on_c, 6, 55, 0
13, 235152, Note_on_c, 6, 55, 78
13, 235200, Note_on_c, 6, 55, 0
13, 235200, Note_on_c, 6, 55, 78
13, 235296, Note_on_c, 6, 55, 0
13, 235296, Note_on_c, 6, 55, 78
13, 235392, Note_on_c, 6, 55, 0
13, 235392, Note_on_c, 6, 51, 78
13, 235392, Note_on_c, 6, 60, 78
13, 235488, Note_on_c, 6, 60, 0
13, 235488, Note_on_c, 6, 51, 0
13, 235488, Note_on_c, 6, 61, 78
13, 235488, Note_on_c, 6, 53, 78
13, 235584, Note_on_c, 6, 53, 0
13, 235584, Note_on_c, 6, 61, 0
13, 235584, Note_on_c, 6, 63, 78
13, 235584, Note_on_c, 6, 54, 78
13, 235680, Note_on_c, 6, 54, 0
13, 235680, Note_on_c, 6, 63, 0
13, 235872, Note_on_c, 6, 56, 78
13, 235920, Note_on_c, 6, 56, 0
13, 235920, Note_on_c, 6, 56, 78
13, 235968, Note_on_c, 6, 56, 0
13, 235968, Note_on_c, 6, 56, 78
13, 236064, Note_on_c, 6, 56, 0
13, 236064, Note_on_c, 6, 56, 78
13, 236160, Note_on_c, 6, 56, 0
13, 236160, Note_on_c, 6, 53, 78
13, 236160, Note_on_c, 6, 62, 78
13, 236256, Note_on_c, 6, 62, 0
13, 236256, Note_on_c, 6, 53, 0
13, 236256, Note_on_c, 6, 55, 78
13, 236256, Note_on_c, 6, 63, 78
13, 236352, Note_on_c, 6, 63, 0
13, 236352, Note_on_c, 6, 55, 0
13, 236352, Note_on_c, 6, 56, 78
13, 236352, Note_on_c, 6, 65, 78
13, 236448, Note_on_c, 6, 65, 0
13, 236448, Note_on_c, 6, 56, 0
13, 236544, Note_on_c, 6, 70, 48
13, 236544, Note_on_c, 6, 67, 48
13, 236640, Note_on_c, 6, 67, 0
13, 236640, Note_on_c, 6, 70, 0
13, 236640, Note_on_c, 6, 68, 48
13, 236640, Note_on_c, 6, 65, 48
13, 236736, Note_on_c, 6, 65, 0
13, 236736, Note_on_c, 6, 68, 0
13, 236736, Note_on_c, 6, 72, 48
13, 236736, Note_on_c, 6, 67, 48
13, 236736, Note_on_c, 6, 63, 48
13, 236832, Note_on_c, 6, 63, 0
13, 236832, Note_on_c, 6, 67, 0
13, 236832, Note_on_c, 6, 72, 0
13, 236832, Note_on_c, 6, 62, 48
13, 236832, Note_on_c, 6, 70, 48
13, 236832, Note_on_c, 6, 65, 48
13, 236928, Note_on_c, 6, 65, 0
13, 236928, Note_on_c, 6, 70, 0
13, 236928, Note_on_c, 6, 62, 0
13, 236928, Note_on_c, 6, 63, 48
13, 236928, Note_on_c, 6, 60, 48
13, 236928, Note_on_c, 6, 68, 48
13, 237024, Note_on_c, 6, 68, 0
13, 237024, Note_on_c, 6, 60, 0
13, 237024, Note_on_c, 6, 63, 0
13, 237024, Note_on_c, 6, 62, 48
13, 237024, Note_on_c, 6, 58, 48
13, 237024, Note_on_c, 6, 67, 48
13, 237120, Note_on_c, 6, 67, 0
13, 237120, Note_on_c, 6, 58, 0
13, 237120, Note_on_c, 6, 62, 0
13, 237120, Note_on_c, 6, 56, 48
13, 237120, Note_on_c, 6, 65, 48
13, 237120, Note_on_c, 6, 60, 48
13, 237216, Note_on_c, 6, 60, 0
13, 237216, Note_on_c, 6, 65, 0
13, 237216, Note_on_c, 6, 56, 0
13, 237216, Note_on_c, 6, 58, 48
13, 237216, Note_on_c, 6, 63, 48
13, 237216, Note_on_c, 6, 55, 48
13, 237312, Note_on_c, 6, 55, 0
13, 237312, Note_on_c, 6, 63, 0
13, 237312, Note_on_c, 6, 58, 0
13, 237312, Note_on_c, 6, 63, 48
13, 237312, Note_on_c, 6, 68, 48
13, 237312, Note_on_c, 6, 60, 48
13, 237408, Note_on_c, 6, 60, 0
13, 237408, Note_on_c, 6, 68, 0
13, 237408, Note_on_c, 6, 63, 0
13, 237408, Note_on_c, 6, 62, 48
13, 237408, Note_on_c, 6, 58, 48
13, 237408, Note_on_c, 6, 67, 48
13, 237504, Note_on_c, 6, 67, 0
13, 237504, Note_on_c, 6, 58, 0
13, 237504, Note_on_c, 6, 62, 0
13, 237504, Note_on_c, 6, 56, 48
13, 237504, Note_on_c, 6, 65, 48
13, 237504, Note_on_c, 6, 60, 48
13, 237600, Note_on_c, 6, 60, 0
13, 237600, Note_on_c, 6, 65, 0
13, 237600, Note_on_c, 6, 56, 0
13, 237600, Note_on_c, 6, 63, 48
13, 237600, Note_on_c, 6, 58, 48
13, 237600, Note_on_c, 6, 55, 48
13, 237696, Note_on_c, 6, 55, 0
13, 237696, Note_on_c, 6, 58, 0
13, 237696, Note_on_c, 6, 63, 0
13, 237696, Note_on_c, 6, 56, 48
13, 237696, Note_on_c, 6, 53, 48
13, 237696, Note_on_c, 6, 62, 48
13, 237792, Note_on_c, 6, 62, 0
13, 237792, Note_on_c, 6, 53, 0
13, 237792, Note_on_c, 6, 56, 0
13, 237792, Note_on_c, 6, 60, 48
13, 237792, Note_on_c, 6, 55, 48
13, 237792, Note_on_c, 6, 51, 48
13, 237888, Note_on_c, 6, 51, 0
13, 237888, Note_on_c, 6, 55, 0
13, 237888, Note_on_c, 6, 60, 0
13, 237888, Note_on_c, 6, 50, 48
13, 237888, Note_on_c, 6, 58, 48
13, 237888, Note_on_c, 6, 53, 48
13, 237984, Note_on_c, 6, 53, 0
13, 237984, Note_on_c, 6, 58, 0
13, 237984, Note_on_c, 6, 50, 0
13, 237984, Note_on_c, 6, 56, 48
13, 237984, Note_on_c, 6, 51, 48
13, 237984, Note_on_c, 6, 48, 48
13, 238080, Note_on_c, 6, 48, 0
13, 238080, Note_on_c, 6, 51, 0
13, 238080, Note_on_c, 6, 56, 0
13, 238080, Note_on_c, 6, 46, 48
13, 238080, Note_on_c, 6, 55, 48
13, 238080, Note_on_c, 6, 50, 48
13, 238176, Note_on_c, 6, 50, 0
13, 238176, Note_on_c, 6, 55, 0
13, 238176, Note_on_c, 6, 46, 0
13, 238176, Note_on_c, 6, 56, 48
13, 238176, Note_on_c, 6, 48, 48
13, 238176, Note_on_c, 6, 51, 48
13, 238272, Note_on_c, 6, 51, 0
13, 238272, Note_on_c, 6, 48, 0
13, 238272, Note_on_c, 6, 56, 0
13, 238272, Note_on_c, 6, 53, 48
13, 238272, Note_on_c, 6, 50, 48
13, 238272, Note_on_c, 6, 58, 48
13, 238368, Note_on_c, 6, 58, 0
13, 238368, Note_on_c, 6, 50, 0
13, 238368, Note_on_c, 6, 53, 0
13, 238368, Note_on_c, 6, 51, 48
13, 238368, Note_on_c, 6, 60, 48
13, 238368, Note_on_c, 6, 55, 48
13, 238464, Note_on_c, 6, 55, 0
13, 238464, Note_on_c, 6, 60, 0
13, 238464, Note_on_c, 6, 51, 0
13, 238464, Note_on_c, 6, 53, 48
13, 238464, Note_on_c, 6, 62, 48
13, 238464, Note_on_c, 6, 56, 48
13, 238560, Note_on_c, 6, 56, 0
13, 238560, Note_on_c, 6, 62, 0
13, 238560, Note_on_c, 6, 53, 0
13, 238560, Note_on_c, 6, 63, 48
13, 238560, Note_on_c, 6, 58, 48
13, 238560, Note_on_c, 6, 55, 48
13, 238560, Note_on_c, 6, 63, 48
13, 238656, Note_on_c, 6, 63, 0
13, 238656, Note_on_c, 6, 63, 0
13, 238656, Note_on_c, 6, 58, 0
13, 238656, Note_on_c, 6, 55, 0
13, 238656, Note_on_c, 6, 67, 48
13, 238656, Note_on_c, 6, 67, 48
13, 238656, Note_on_c, 6, 63, 48
13, 238656, Note_on_c, 6, 58, 48
13, 238752, Note_on_c, 6, 58, 0
13, 238752, Note_on_c, 6, 67, 0
13, 238752, Note_on_c, 6, 67, 0
13, 238752, Note_on_c, 6, 63, 0
13, 238752, Note_on_c, 6, 63, 48
13, 238752, Note_on_c, 6, 70, 48
13, 238752, Note_on_c, 6, 67, 48
13, 238848, Note_on_c, 6, 67, 0
13, 238848, Note_on_c, 6, 70, 0
13, 238848, Note_on_c, 6, 63, 0
13, 238848, Note_on_c, 6, 67, 48
13, 238848, Note_on_c, 6, 70, 48
13, 238944, Note_on_c, 6, 70, 0
13, 238944, Note_on_c, 6, 67, 0
13, 238944, Note_on_c, 6, 65, 48
13, 238944, Note_on_c, 6, 68, 48
13, 239040, Note_on_c, 6, 68, 0
13, 239040, Note_on_c, 6, 65, 0
13, 239040, Note_on_c, 6, 72, 48
13, 239040, Note_on_c, 6, 63, 48
13, 239040, Note_on_c, 6, 67, 48
13, 239136, Note_on_c, 6, 67, 0
13, 239136, Note_on_c, 6, 63, 0
13, 239136, Note_on_c, 6, 72, 0
13, 239136, Note_on_c, 6, 70, 48
13, 239136, Note_on_c, 6, 65, 48
13, 239136, Note_on_c, 6, 62, 48
13, 239232, Note_on_c, 6, 62, 0
13, 239232, Note_on_c, 6, 65, 0
13, 239232, Note_on_c, 6, 70, 0
13, 239232, Note_on_c, 6, 63, 48
13, 239232, Note_on_c, 6, 72, 48
13, 239232, Note_on_c, 6, 67, 48
13, 239328, Note_on_c, 6, 67, 0
13, 239328, Note_on_c, 6, 72, 0
13, 239328, Note_on_c, 6, 63, 0
13, 239328, Note_on_c, 6, 70, 48
13, 239328, Note_on_c, 6, 65, 48
13, 239328, Note_on_c, 6, 62, 48
13, 239424, Note_on_c, 6, 62, 0
13, 239424, Note_on_c, 6, 65, 0
13, 239424, Note_on_c, 6, 70, 0
13, 239424, Note_on_c, 6, 68, 48
13, 239424, Note_on_c, 6, 63, 48
13, 239424, Note_on_c, 6, 60, 48
13, 239520, Note_on_c, 6, 60, 0
13, 239520, Note_on_c, 6, 63, 0
13, 239520, Note_on_c, 6, 68, 0
13, 239520, Note_on_c, 6, 67, 48
13, 239520, Note_on_c, 6, 62, 48
13, 239520, Note_on_c, 6, 58, 48
13, 239616, Note_on_c, 6, 58, 0
13, 239616, Note_on_c, 6, 62, 0
13, 239616, Note_on_c, 6, 67, 0
13, 239616, Note_on_c, 6, 65, 78
13, 239616, Note_on_c, 6, 56, 78
13, 239808, Note_on_c, 6, 56, 0
13, 239808, Note_on_c, 6, 65, 0
13, 239808, Note_on_c, 6, 64, 78
13, 239808, Note_on_c, 6, 60, 78
13, 239808, Note_on_c, 6, 58, 78
13, 240000, Note_on_c, 6, 58, 0
13, 240000, Note_on_c, 6, 60, 0
13, 240000, Note_on_c, 6, 64, 0
13, 240000, Note_on_c, 6, 65, 78
13, 240000, Note_on_c, 6, 57, 78
13, 240000, Note_on_c, 6, 56, 78
13, 240000, Note_on_c, 6, 60, 78
13, 240192, Note_on_c, 6, 60, 0
13, 240192, Note_on_c, 6, 65, 0
13, 240192, Note_on_c, 6, 57, 0
13, 240192, Note_on_c, 6, 56, 0
13, 240192, Note_on_c, 6, 60, 78
13, 240192, Note_on_c, 6, 72, 78
13, 240192, Note_on_c, 6, 55, 78
13, 240192, Note_on_c, 6, 67, 78
13, 240384, Note_on_c, 6, 67, 0
13, 240384, Note_on_c, 6, 60, 0
13, 240384, Note_on_c, 6, 72, 0
13, 240384, Note_on_c, 6, 55, 0
13, 240384, Note_on_c, 6, 68, 78
13, 240384, Note_on_c, 6, 65, 78
13, 240384, Note_on_c, 6, 56, 78
13, 240384, Note_on_c, 6, 53, 78
13, 240576, Note_on_c, 6, 53, 0
13, 240576, Note_on_c, 6, 68, 0
13, 240576, Note_on_c, 6, 65, 0
13, 240576, Note_on_c, 6, 56, 0
13, 240576, Note_on_c, 6, 65, 78
13, 240576, Note_on_c, 6, 57, 78
13, 240576, Note_on_c, 6, 69, 78
13, 240576, Note_on_c, 6, 63, 78
13, 240768, Note_on_c, 6, 63, 0
13, 240768, Note_on_c, 6, 65, 0
13, 240768, Note_on_c, 6, 57, 0
13, 240768, Note_on_c, 6, 69, 0
13, 240768, Note_on_c, 6, 62, 78
13, 240768, Note_on_c, 6, 70, 78
13, 240768, Note_on_c, 6, 58, 78
13, 240768, Note_on_c, 6, 65, 78
13, 240960, Note_on_c, 6, 65, 0
13, 240960, Note_on_c, 6, 62, 0
13, 240960, Note_on_c, 6, 70, 0
13, 240960, Note_on_c, 6, 58, 0
13, 240960, Note_on_c, 6, 72, 78
13, 240960, Note_on_c, 6, 65, 78
13, 240960, Note_on_c, 6, 60, 78
13, 240960, Note_on_c, 6, 53, 78
13, 241152, Note_on_c, 6, 53, 0
13, 241152, Note_on_c, 6, 72, 0
13, 241152, Note_on_c, 6, 65, 0
13, 241152, Note_on_c, 6, 60, 0
13, 241152, Note_on_c, 6, 62, 78
13, 241152, Note_on_c, 6, 58, 78
13, 241152, Note_on_c, 6, 65, 78
13, 241152, Note_on_c, 6, 53, 78
13, 241344, Note_on_c, 6, 53, 0
13, 241344, Note_on_c, 6, 62, 0
13, 241344, Note_on_c, 6, 58, 0
13, 241344, Note_on_c, 6, 65, 0
13, 241344, Note_on_c, 6, 63, 78
13, 241344, Note_on_c, 6, 55, 78
13, 241344, Note_on_c, 6, 58, 78
13, 241536, Note_on_c, 6, 58, 0
13, 241536, Note_on_c, 6, 55, 0
13, 241536, Note_on_c, 6, 63, 0
13, 241536, Note_on_c, 6, 62, 78
13, 241536, Note_on_c, 6, 53, 78
13, 241536, Note_on_c, 6, 58, 78
13, 241728, Note_on_c, 6, 58, 0
13, 241728, Note_on_c, 6, 53, 0
13, 241728, Note_on_c, 6, 62, 0
13, 241728, Note_on_c, 6, 58, 78
13, 241728, Note_on_c, 6, 51, 78
13, 241728, Note_on_c, 6, 67, 78
13, 241920, Note_on_c, 6, 67, 0
13, 241920, Note_on_c, 6, 51, 0
13, 241920, Note_on_c, 6, 58, 0
13, 241920, Note_on_c, 6, 56, 78
13, 241920, Note_on_c, 6, 65, 78
13, 241920, Note_on_c, 6, 50, 78
13, 242112, Note_on_c, 6, 50, 0
13, 242112, Note_on_c, 6, 65, 0
13, 242112, Note_on_c, 6, 56, 0
13, 242112, Note_on_c, 6, 63, 78
13, 242112, Note_on_c, 6, 57, 78
13, 242112, Note_on_c, 6, 48, 78
13, 242304, Note_on_c, 6, 48, 0
13, 242304, Note_on_c, 6, 57, 0
13, 242304, Note_on_c, 6, 63, 0
13, 242304, Note_on_c, 6, 46, 78
13, 242304, Note_on_c, 6, 62, 78
13, 242304, Note_on_c, 6, 58, 78
13, 242400, Note_on_c, 6, 58, 0
13, 242400, Note_on_c, 6, 62, 0
13, 242400, Note_on_c, 6, 46, 0
13, 257856, Note_on_c, 6, 58, 78
13, 257856, Note_on_c, 6, 67, 78
13, 257856, Note_on_c, 6, 63, 78
13, 257856, Note_on_c, 6, 55, 78
13, 257952, Note_on_c, 6, 55, 0
13, 257952, Note_on_c, 6, 58, 0
13, 257952, Note_on_c, 6, 67, 0
13, 257952, Note_on_c, 6, 63, 0
13, 257952, Note_on_c, 6, 63, 78
13, 257952, Note_on_c, 6, 58, 78
13, 257952, Note_on_c, 6, 67, 78
13, 257952, Note_on_c, 6, 55, 78
13, 258048, Note_on_c, 6, 55, 0
13, 258048, Note_on_c, 6, 63, 0
13, 258048, Note_on_c, 6, 58, 0
13, 258048, Note_on_c, 6, 67, 0
13, 258048, Note_on_c, 6, 62, 78
13, 258048, Note_on_c, 6, 70, 78
13, 258048, Note_on_c, 6, 58, 78
13, 258048, Note_on_c, 6, 65, 78
13, 258240, Note_on_c, 6, 65, 0
13, 258240, Note_on_c, 6, 62, 0
13, 258240, Note_on_c, 6, 70, 0
13, 258240, Note_on_c, 6, 58, 0
13, 258240, Note_on_c, 6, 67, 78
13, 258240, Note_on_c, 6, 58, 78
13, 258240, Note_on_c, 6, 70, 78
13, 258240, Note_on_c, 6, 63, 78
13, 258432, Note_on_c, 6, 63, 0
13, 258432, Note_on_c, 6, 67, 0
13, 258432, Note_on_c, 6, 58, 0
13, 258432, Note_on_c, 6, 70, 0
13, 258432, Note_on_c, 6, 67, 78
13, 258432, Note_on_c, 6, 55, 78
13, 258432, Note_on_c, 6, 63, 78
13, 258432, Note_on_c, 6, 58, 78
13, 258528, Note_on_c, 6, 58, 0
13, 258528, Note_on_c, 6, 67, 0
13, 258528, Note_on_c, 6, 55, 0
13, 258528, Note_on_c, 6, 63, 0
13, 258528, Note_on_c, 6, 67, 78
13, 258528, Note_on_c, 6, 58, 78
13, 258528, Note_on_c, 6, 55, 78
13, 258528, Note_on_c, 6, 63, 78
13, 258624, Note_on_c, 6, 63, 0
13, 258624, Note_on_c, 6, 67, 0
13, 258624, Note_on_c, 6, 58, 0
13, 258624, Note_on_c, 6, 55, 0
13, 258624, Note_on_c, 6, 70, 78
13, 258624, Note_on_c, 6, 65, 78
13, 258624, Note_on_c, 6, 58, 78
13, 258624, Note_on_c, 6, 62, 78
13, 258720, Note_on_c, 6, 62, 0
13, 258720, Note_on_c, 6, 70, 0
13, 258720, Note_on_c, 6, 65, 0
13, 258720, Note_on_c, 6, 58, 0
13, 258720, Note_on_c, 6, 70, 78
13, 258720, Note_on_c, 6, 67, 78
13, 258720, Note_on_c, 6, 63, 78
13, 258720, Note_on_c, 6, 58, 78
13, 258816, Note_on_c, 6, 58, 0
13, 258816, Note_on_c, 6, 70, 0
13, 258816, Note_on_c, 6, 67, 0
13, 258816, Note_on_c, 6, 63, 0
13, 258816, Note_on_c, 6, 60, 78
13, 258816, Note_on_c, 6, 68, 78
13, 258816, Note_on_c, 6, 56, 78
13, 258816, Note_on_c, 6, 63, 78
13, 258912, Note_on_c, 6, 63, 0
13, 258912, Note_on_c, 6, 60, 0
13, 258912, Note_on_c, 6, 68, 0
13, 258912, Note_on_c, 6, 56, 0
13, 258912, Note_on_c, 6, 68, 78
13, 258912, Note_on_c, 6, 63, 78
13, 258912, Note_on_c, 6, 60, 78
13, 258912, Note_on_c, 6, 56, 78
13, 259008, Note_on_c, 6, 56, 0
13, 259008, Note_on_c, 6, 68, 0
13, 259008, Note_on_c, 6, 63, 0
13, 259008, Note_on_c, 6, 60, 0
13, 259008, Note_on_c, 6, 68, 78
13, 259008, Note_on_c, 6, 56, 78
13, 259008, Note_on_c, 6, 63, 78
13, 259008, Note_on_c, 6, 60, 78
13, 259296, Note_on_c, 6, 60, 0
13, 259296, Note_on_c, 6, 68, 0
13, 259296, Note_on_c, 6, 56, 0
13, 259296, Note_on_c, 6, 63, 0
13, 260352, Note_on_c, 6, 70, 78
13, 260352, Note_on_c, 6, 63, 78
13, 260352, Note_on_c, 6, 58, 78
13, 260352, Note_on_c, 6, 67, 78
13, 260448, Note_on_c, 6, 67, 0
13, 260448, Note_on_c, 6, 70, 0
13, 260448, Note_on_c, 6, 63, 0
13, 260448, Note_on_c, 6, 58, 0
13, 260448, Note_on_c, 6, 70, 78
13, 260448, Note_on_c, 6, 67, 78
13, 260448, Note_on_c, 6, 58, 78
13, 260448, Note_on_c, 6, 63, 78
13, 260544, Note_on_c, 6, 63, 0
13, 260544, Note_on_c, 6, 70, 0
13, 260544, Note_on_c, 6, 67, 0
13, 260544, Note_on_c, 6, 58, 0
13, 260544, Note_on_c, 6, 70, 78
13, 260544, Note_on_c, 6, 58, 78
13, 260544, Note_on_c, 6, 67, 78
13, 260544, Note_on_c, 6, 63, 78
13, 260640, Note_on_c, 6, 63, 0
13, 260640, Note_on_c, 6, 70, 0
13, 260640, Note_on_c, 6, 58, 0
13, 260640, Note_on_c, 6, 67, 0
13, 260640, Note_on_c, 6, 63, 78
13, 260640, Note_on_c, 6, 70, 78
13, 260640, Note_on_c, 6, 58, 78
13, 260640, Note_on_c, 6, 67, 78
13, 260736, Note_on_c, 6, 67, 0
13, 260736, Note_on_c, 6, 63, 0
13, 260736, Note_on_c, 6, 70, 0
13, 260736, Note_on_c, 6, 58, 0
13, 260736, Note_on_c, 6, 67, 78
13, 260736, Note_on_c, 6, 63, 78
13, 260736, Note_on_c, 6, 70, 78
13, 260736, Note_on_c, 6, 58, 78
13, 261120, Note_on_c, 6, 58, 0
13, 261120, Note_on_c, 6, 67, 0
13, 261120, Note_on_c, 6, 63, 0
13, 261120, Note_on_c, 6, 70, 0
13, 261120, Note_on_c, 6, 67, 78
13, 261120, Note_on_c, 6, 70, 78
13, 261120, Note_on_c, 6, 63, 78
13, 261120, Note_on_c, 6, 58, 78
13, 261312, Note_on_c, 6, 58, 0
13, 261312, Note_on_c, 6, 67, 0
13, 261312, Note_on_c, 6, 70, 0
13, 261312, Note_on_c, 6, 63, 0
13, 261312, Note_on_c, 6, 67, 78
13, 261312, Note_on_c, 6, 70, 78
13, 261312, Note_on_c, 6, 58, 78
13, 261312, Note_on_c, 6, 63, 78
13, 261504, Note_on_c, 6, 63, 0
13, 261504, Note_on_c, 6, 67, 0
13, 261504, Note_on_c, 6, 70, 0
13, 261504, Note_on_c, 6, 58, 0
13, 261504, Note_on_c, 6, 70, 78
13, 261504, Note_on_c, 6, 65, 78
13, 261504, Note_on_c, 6, 62, 78
13, 261504, Note_on_c, 6, 58, 78
13, 261792, Note_on_c, 6, 58, 0
13, 261792, Note_on_c, 6, 70, 0
13, 261792, Note_on_c, 6, 65, 0
13, 261792, Note_on_c, 6, 62, 0
13, 261792, Note_on_c, 6, 70, 78
13, 261792, Note_on_c, 6, 65, 78
13, 261792, Note_on_c, 6, 62, 78
13, 261792, Note_on_c, 6, 58, 78
13, 261888, Note_on_c, 6, 58, 0
13, 261888, Note_on_c, 6, 70, 0
13, 261888, Note_on_c, 6, 65, 0
13, 261888, Note_on_c, 6, 62, 0
13, 261888, Note_on_c, 6, 70, 78
13, 261888, Note_on_c, 6, 65, 78
13, 261888, Note_on_c, 6, 62, 78
13, 261888, Note_on_c, 6, 58, 78
13, 261984, Note_on_c, 6, 58, 0
13, 261984, Note_on_c, 6, 70, 0
13, 261984, Note_on_c, 6, 65, 0
13, 261984, Note_on_c, 6, 62, 0
13, 261984, Note_on_c, 6, 70, 78
13, 261984, Note_on_c, 6, 58, 78
13, 261984, Note_on_c, 6, 65, 78
13, 261984, Note_on_c, 6, 62, 78
13, 262080, Note_on_c, 6, 62, 0
13, 262080, Note_on_c, 6, 70, 0
13, 262080, Note_on_c, 6, 58, 0
13, 262080, Note_on_c, 6, 65, 0
13, 262080, Note_on_c, 6, 70, 78
13, 262080, Note_on_c, 6, 63, 78
13, 262080, Note_on_c, 6, 58, 78
13, 262080, Note_on_c, 6, 67, 78
13, 262176, Note_on_c, 6, 67, 0
13, 262176, Note_on_c, 6, 70, 0
13, 262176, Note_on_c, 6, 63, 0
13, 262176, Note_on_c, 6, 58, 0
13, 263616, Note_on_c, 6, 67, 78
13, 263616, Note_on_c, 6, 63, 78
13, 263616, Note_on_c, 6, 55, 78
13, 263616, Note_on_c, 6, 60, 78
13, 263808, Note_on_c, 6, 60, 0
13, 263808, Note_on_c, 6, 67, 0
13, 263808, Note_on_c, 6, 63, 0
13, 263808, Note_on_c, 6, 55, 0
13, 263808, Note_on_c, 6, 65, 78
13, 263808, Note_on_c, 6, 70, 78
13, 263808, Note_on_c, 6, 58, 78
13, 263808, Note_on_c, 6, 62, 78
13, 264000, Note_on_c, 6, 62, 0
13, 264000, Note_on_c, 6, 65, 0
13, 264000, Note_on_c, 6, 70, 0
13, 264000, Note_on_c, 6, 58, 0
13, 264000, Note_on_c, 6, 70, 78
13, 264000, Note_on_c, 6, 67, 78
13, 264000, Note_on_c, 6, 63, 78
13, 264000, Note_on_c, 6, 58, 78
13, 264192, Note_on_c, 6, 58, 0
13, 264192, Note_on_c, 6, 70, 0
13, 264192, Note_on_c, 6, 67, 0
13, 264192, Note_on_c, 6, 63, 0
13, 264192, Note_on_c, 6, 67, 78
13, 264192, Note_on_c, 6, 63, 78
13, 264192, Note_on_c, 6, 55, 78
13, 264192, Note_on_c, 6, 58, 78
13, 264384, Note_on_c, 6, 58, 0
13, 264384, Note_on_c, 6, 67, 0
13, 264384, Note_on_c, 6, 63, 0
13, 264384, Note_on_c, 6, 55, 0
13, 264384, Note_on_c, 6, 70, 78
13, 264384, Note_on_c, 6, 62, 78
13, 264384, Note_on_c, 6, 58, 78
13, 264480, Note_on_c, 6, 58, 0
13, 264480, Note_on_c, 6, 62, 0
13, 264480, Note_on_c, 6, 70, 0
13, 264480, Note_on_c, 6, 67, 78
13, 264480, Note_on_c, 6, 70, 78
13, 264480, Note_on_c, 6, 63, 78
13, 264480, Note_on_c, 6, 58, 78
13, 264480, Note_on_c, 6, 58, 78
13, 264576, Note_on_c, 6, 58, 0
13, 264576, Note_on_c, 6, 63, 0
13, 264576, Note_on_c, 6, 67, 0
13, 264576, Note_on_c, 6, 70, 0
13, 264576, Note_on_c, 6, 58, 0
13, 264576, Note_on_c, 6, 72, 78
13, 264576, Note_on_c, 6, 63, 78
13, 264576, Note_on_c, 6, 60, 78
13, 264576, Note_on_c, 6, 68, 78
13, 264672, Note_on_c, 6, 68, 0
13, 264672, Note_on_c, 6, 72, 0
13, 264672, Note_on_c, 6, 63, 0
13, 264672, Note_on_c, 6, 60, 0
13, 264672, Note_on_c, 6, 63, 78
13, 264672, Note_on_c, 6, 72, 78
13, 264672, Note_on_c, 6, 68, 78
13, 264672, Note_on_c, 6, 60, 78
13, 264768, Note_on_c, 6, 60, 0
13, 264768, Note_on_c, 6, 63, 0
13, 264768, Note_on_c, 6, 72, 0
13, 264768, Note_on_c, 6, 68, 0
13, 264768, Note_on_c, 6, 72, 78
13, 264768, Note_on_c, 6, 68, 78
13, 264768, Note_on_c, 6, 63, 78
13, 264768, Note_on_c, 6, 60, 78
13, 264864, Note_on_c, 6, 60, 0
13, 264864, Note_on_c, 6, 72, 0
13, 264864, Note_on_c, 6, 68, 0
13, 264864, Note_on_c, 6, 63, 0
13, 264864, Note_on_c, 6, 72, 78
13, 264864, Note_on_c, 6, 68, 78
13, 264864, Note_on_c, 6, 60, 78
13, 264864, Note_on_c, 6, 63, 78
13, 264960, Note_on_c, 6, 63, 0
13, 264960, Note_on_c, 6, 72, 0
13, 264960, Note_on_c, 6, 68, 0
13, 264960, Note_on_c, 6, 60, 0
13, 264960, Note_on_c, 6, 68, 78
13, 264960, Note_on_c, 6, 60, 78
13, 264960, Note_on_c, 6, 72, 78
13, 264960, Note_on_c, 6, 63, 78
13, 265056, Note_on_c, 6, 63, 0
13, 265056, Note_on_c, 6, 68, 0
13, 265056, Note_on_c, 6, 60, 0
13, 265056, Note_on_c, 6, 72, 0
13, 265056, Note_on_c, 6, 72, 78
13, 265056, Note_on_c, 6, 63, 78
13, 265056, Note_on_c, 6, 60, 78
13, 265056, Note_on_c, 6, 68, 78
13, 265152, Note_on_c, 6, 68, 0
13, 265152, Note_on_c, 6, 72, 0
13, 265152, Note_on_c, 6, 63, 0
13, 265152, Note_on_c, 6, 60, 0
13, 265152, Note_on_c, 6, 63, 78
13, 265152, Note_on_c, 6, 72, 78
13, 265152, Note_on_c, 6, 68, 78
13, 265152, Note_on_c, 6, 60, 78
13, 265248, Note_on_c, 6, 60, 0
13, 265248, Note_on_c, 6, 63, 0
13, 265248, Note_on_c, 6, 72, 0
13, 265248, Note_on_c, 6, 68, 0
13, 265248, Note_on_c, 6, 68, 78
13, 265248, Note_on_c, 6, 60, 78
13, 265248, Note_on_c, 6, 72, 78
13, 265248, Note_on_c, 6, 63, 78
13, 265344, Note_on_c, 6, 63, 0
13, 265344, Note_on_c, 6, 68, 0
13, 265344, Note_on_c, 6, 60, 0
13, 265344, Note_on_c, 6, 72, 0
13, 265344, Note_on_c, 6, 68, 78
13, 265344, Note_on_c, 6, 72, 78
13, 265344, Note_on_c, 6, 63, 78
13, 265344, Note_on_c, 6, 60, 78
13, 265440, Note_on_c, 6, 60, 0
13, 265440, Note_on_c, 6, 68, 0
13, 265440, Note_on_c, 6, 72, 0
13, 265440, Note_on_c, 6, 63, 0
13, 265440, Note_on_c, 6, 63, 78
13, 265440, Note_on_c, 6, 72, 78
13, 265440, Note_on_c, 6, 60, 78
13, 265440, Note_on_c, 6, 68, 78
13, 265536, Note_on_c, 6, 68, 0
13, 265536, Note_on_c, 6, 63, 0
13, 265536, Note_on_c, 6, 72, 0
13, 265536, Note_on_c, 6, 60, 0
13, 265536, Note_on_c, 6, 68, 78
13, 265536, Note_on_c, 6, 60, 78
13, 265536, Note_on_c, 6, 72, 78
13, 265536, Note_on_c, 6, 63, 78
13, 265632, Note_on_c, 6, 63, 0
13, 265632, Note_on_c, 6, 68, 0
13, 265632, Note_on_c, 6, 60, 0
13, 265632, Note_on_c, 6, 72, 0
13, 265632, Note_on_c, 6, 68, 78
13, 265632, Note_on_c, 6, 72, 78
13, 265632, Note_on_c, 6, 63, 78
13, 265632, Note_on_c, 6, 60, 78
13, 265728, Note_on_c, 6, 60, 0
13, 265728, Note_on_c, 6, 68, 0
13, 265728, Note_on_c, 6, 72, 0
13, 265728, Note_on_c, 6, 63, 0
13, 265728, Note_on_c, 6, 72, 78
13, 265728, Note_on_c, 6, 68, 78
13, 265728, Note_on_c, 6, 60, 78
13, 265728, Note_on_c, 6, 63, 78
13, 265824, Note_on_c, 6, 63, 0
13, 265824, Note_on_c, 6, 72, 0
13, 265824, Note_on_c, 6, 68, 0
13, 265824, Note_on_c, 6, 60, 0
13, 265824, Note_on_c, 6, 70, 78
13, 265824, Note_on_c, 6, 67, 78
13, 265824, Note_on_c, 6, 63, 78
13, 265824, Note_on_c, 6, 58, 78
13, 265920, Note_on_c, 6, 58, 0
13, 265920, Note_on_c, 6, 70, 0
13, 265920, Note_on_c, 6, 67, 0
13, 265920, Note_on_c, 6, 63, 0
13, 265920, Note_on_c, 6, 72, 78
13, 265920, Note_on_c, 6, 68, 78
13, 265920, Note_on_c, 6, 63, 78
13, 265920, Note_on_c, 6, 60, 78
13, 266208, Note_on_c, 6, 60, 0
13, 266208, Note_on_c, 6, 72, 0
13, 266208, Note_on_c, 6, 68, 0
13, 266208, Note_on_c, 6, 63, 0
13, 267264, Note_on_c, 6, 70, 78
13, 267264, Note_on_c, 6, 67, 78
13, 267264, Note_on_c, 6, 63, 78
13, 267264, Note_on_c, 6, 58, 78
13, 267360, Note_on_c, 6, 58, 0
13, 267360, Note_on_c, 6, 70, 0
13, 267360, Note_on_c, 6, 67, 0
13, 267360, Note_on_c, 6, 63, 0
13, 267360, Note_on_c, 6, 70, 78
13, 267360, Note_on_c, 6, 67, 78
13, 267360, Note_on_c, 6, 63, 78
13, 267360, Note_on_c, 6, 58, 78
13, 267456, Note_on_c, 6, 58, 0
13, 267456, Note_on_c, 6, 70, 0
13, 267456, Note_on_c, 6, 67, 0
13, 267456, Note_on_c, 6, 63, 0
13, 267456, Note_on_c, 6, 70, 78
13, 267456, Note_on_c, 6, 63, 78
13, 267456, Note_on_c, 6, 58, 78
13, 267456, Note_on_c, 6, 67, 78
13, 267552, Note_on_c, 6, 67, 0
13, 267552, Note_on_c, 6, 70, 0
13, 267552, Note_on_c, 6, 63, 0
13, 267552, Note_on_c, 6, 58, 0
13, 267552, Note_on_c, 6, 70, 78
13, 267552, Note_on_c, 6, 67, 78
13, 267552, Note_on_c, 6, 63, 78
13, 267552, Note_on_c, 6, 58, 78
13, 267648, Note_on_c, 6, 58, 0
13, 267648, Note_on_c, 6, 70, 0
13, 267648, Note_on_c, 6, 67, 0
13, 267648, Note_on_c, 6, 63, 0
13, 267648, Note_on_c, 6, 67, 78
13, 267648, Note_on_c, 6, 70, 78
13, 267648, Note_on_c, 6, 58, 78
13, 267648, Note_on_c, 6, 63, 78
13, 268032, Note_on_c, 6, 63, 0
13, 268032, Note_on_c, 6, 67, 0
13, 268032, Note_on_c, 6, 70, 0
13, 268032, Note_on_c, 6, 58, 0
13, 268032, Note_on_c, 6, 72, 78
13, 268032, Note_on_c, 6, 67, 78
13, 268032, Note_on_c, 6, 63, 78
13, 268032, Note_on_c, 6, 60, 78
13, 268224, Note_on_c, 6, 60, 0
13, 268224, Note_on_c, 6, 72, 0
13, 268224, Note_on_c, 6, 67, 0
13, 268224, Note_on_c, 6, 63, 0
13, 268224, Note_on_c, 6, 63, 78
13, 268224, Note_on_c, 6, 72, 78
13, 268224, Note_on_c, 6, 60, 78
13, 268224, Note_on_c, 6, 67, 78
13, 268416, Note_on_c, 6, 67, 0
13, 268416, Note_on_c, 6, 63, 0
13, 268416, Note_on_c, 6, 72, 0
13, 268416, Note_on_c, 6, 60, 0
13, 268416, Note_on_c, 6, 67, 78
13, 268416, Note_on_c, 6, 63, 78
13, 268416, Note_on_c, 6, 58, 78
13, 268416, Note_on_c, 6, 55, 78
13, 268704, Note_on_c, 6, 55, 0
13, 268704, Note_on_c, 6, 67, 0
13, 268704, Note_on_c, 6, 63, 0
13, 268704, Note_on_c, 6, 58, 0
13, 268704, Note_on_c, 6, 63, 78
13, 268704, Note_on_c, 6, 67, 78
13, 268704, Note_on_c, 6, 58, 78
13, 268704, Note_on_c, 6, 55, 78
13, 268800, Note_on_c, 6, 55, 0
13, 268800, Note_on_c, 6, 63, 0
13, 268800, Note_on_c, 6, 67, 0
13, 268800, Note_on_c, 6, 58, 0
13, 268800, Note_on_c, 6, 67, 78
13, 268800, Note_on_c, 6, 63, 78
13, 268800, Note_on_c, 6, 55, 78
13, 268800, Note_on_c, 6, 58, 78
13, 268992, Note_on_c, 6, 58, 0
13, 268992, Note_on_c, 6, 67, 0
13, 268992, Note_on_c, 6, 63, 0
13, 268992, Note_on_c, 6, 55, 0
13, 268992, Note_on_c, 6, 70, 78
13, 268992, Note_on_c, 6, 65, 78
13, 268992, Note_on_c, 6, 63, 78
13, 268992, Note_on_c, 6, 58, 78
13, 269280, Note_on_c, 6, 58, 0
13, 269280, Note_on_c, 6, 70, 0
13, 269280, Note_on_c, 6, 65, 0
13, 269280, Note_on_c, 6, 63, 0
13, 269280, Note_on_c, 6, 70, 78
13, 269280, Note_on_c, 6, 65, 78
13, 269280, Note_on_c, 6, 63, 78
13, 269280, Note_on_c, 6, 58, 78
13, 269312, Note_on_c, 6, 58, 0
13, 269312, Note_on_c, 6, 70, 0
13, 269312, Note_on_c, 6, 65, 0
13, 269312, Note_on_c, 6, 63, 0
13, 269312, Note_on_c, 6, 70, 78
13, 269312, Note_on_c, 6, 58, 78
13, 269312, Note_on_c, 6, 65, 78
13, 269312, Note_on_c, 6, 63, 78
13, 269344, Note_on_c, 6, 63, 0
13, 269344, Note_on_c, 6, 70, 0
13, 269344, Note_on_c, 6, 58, 0
13, 269344, Note_on_c, 6, 65, 0
13, 269344, Note_on_c, 6, 70, 78
13, 269344, Note_on_c, 6, 65, 78
13, 269344, Note_on_c, 6, 63, 78
13, 269344, Note_on_c, 6, 58, 78
13, 269376, Note_on_c, 6, 58, 0
13, 269376, Note_on_c, 6, 70, 0
13, 269376, Note_on_c, 6, 65, 0
13, 269376, Note_on_c, 6, 63, 0
13, 269376, Note_on_c, 6, 65, 78
13, 269376, Note_on_c, 6, 70, 78
13, 269376, Note_on_c, 6, 58, 78
13, 269376, Note_on_c, 6, 63, 78
13, 269472, Note_on_c, 6, 63, 0
13, 269472, Note_on_c, 6, 65, 0
13, 269472, Note_on_c, 6, 70, 0
13, 269472, Note_on_c, 6, 58, 0
13, 269472, Note_on_c, 6, 70, 78
13, 269472, Note_on_c, 6, 65, 78
13, 269472, Note_on_c, 6, 58, 78
13, 269472, Note_on_c, 6, 63, 78
13, 269568, Note_on_c, 6, 63, 0
13, 269568, Note_on_c, 6, 70, 0
13, 269568, Note_on_c, 6, 65, 0
13, 269568, Note_on_c, 6, 58, 0
13, 269568, Note_on_c, 6, 70, 78
13, 269568, Note_on_c, 6, 65, 78
13, 269568, Note_on_c, 6, 62, 78
13, 269568, Note_on_c, 6, 58, 78
13, 269856, Note_on_c, 6, 58, 0
13, 269856, Note_on_c, 6, 70, 0
13, 269856, Note_on_c, 6, 65, 0
13, 269856, Note_on_c, 6, 62, 0
13, 269856, Note_on_c, 6, 62, 78
13, 269856, Note_on_c, 6, 70, 78
13, 269856, Note_on_c, 6, 58, 78
13, 269856, Note_on_c, 6, 65, 78
13, 269952, Note_on_c, 6, 65, 0
13, 269952, Note_on_c, 6, 62, 0
13, 269952, Note_on_c, 6, 70, 0
13, 269952, Note_on_c, 6, 58, 0
13, 269952, Note_on_c, 6, 62, 78
13, 269952, Note_on_c, 6, 70, 78
13, 269952, Note_on_c, 6, 58, 78
13, 269952, Note_on_c, 6, 65, 78
13, 270048, Note_on_c, 6, 65, 0
13, 270048, Note_on_c, 6, 62, 0
13, 270048, Note_on_c, 6, 70, 0
13, 270048, Note_on_c, 6, 58, 0
13, 270048, Note_on_c, 6, 65, 78
13, 270048, Note_on_c, 6, 58, 78
13, 270048, Note_on_c, 6, 70, 78
13, 270048, Note_on_c, 6, 62, 78
13, 270144, Note_on_c, 6, 62, 0
13, 270144, Note_on_c, 6, 65, 0
13, 270144, Note_on_c, 6, 58, 0
13, 270144, Note_on_c, 6, 70, 0
13, 270144, Note_on_c, 6, 70, 78
13, 270144, Note_on_c, 6, 63, 78
13, 270144, Note_on_c, 6, 58, 78
13, 270144, Note_on_c, 6, 67, 78
13, 270240, Note_on_c, 6, 67, 0
13, 270240, Note_on_c, 6, 70, 0
13, 270240, Note_on_c, 6, 63, 0
13, 270240, Note_on_c, 6, 58, 0
13, 270240, Note_on_c, 6, 55, 78
13, 270240, Note_on_c, 6, 58, 78
13, 270288, Note_on_c, 6, 58, 0
13, 270288, Note_on_c, 6, 55, 0
13, 270288, Note_on_c, 6, 55, 78
13, 270288, Note_on_c, 6, 58, 78
13, 270336, Note_on_c, 6, 58, 0
13, 270336, Note_on_c, 6, 55, 0
13, 270336, Note_on_c, 6, 55, 78
13, 270336, Note_on_c, 6, 63, 78
13, 270432, Note_on_c, 6, 63, 0
13, 270432, Note_on_c, 6, 55, 0
13, 270432, Note_on_c, 6, 58, 78
13, 270432, Note_on_c, 6, 65, 78
13, 270528, Note_on_c, 6, 65, 0
13, 270528, Note_on_c, 6, 58, 0
13, 270528, Note_on_c, 6, 67, 78
13, 270528, Note_on_c, 6, 63, 78
13, 270624, Note_on_c, 6, 63, 0
13, 270624, Note_on_c, 6, 67, 0
13, 270624, Note_on_c, 6, 65, 78
13, 270624, Note_on_c, 6, 58, 78
13, 270720, Note_on_c, 6, 58, 0
13, 270720, Note_on_c, 6, 65, 0
13, 270720, Note_on_c, 6, 55, 78
13, 270720, Note_on_c, 6, 63, 78
13, 270816, Note_on_c, 6, 63, 0
13, 270816, Note_on_c, 6, 55, 0
13, 270816, Note_on_c, 6, 58, 78
13, 270816, Note_on_c, 6, 65, 78
13, 270912, Note_on_c, 6, 65, 0
13, 270912, Note_on_c, 6, 58, 0
13, 270912, Note_on_c, 6, 67, 78
13, 270912, Note_on_c, 6, 63, 78
13, 271008, Note_on_c, 6, 63, 0
13, 271008, Note_on_c, 6, 67, 0
13, 271104, Note_on_c, 6, 55, 78
13, 271104, Note_on_c, 6, 63, 78
13, 271200, Note_on_c, 6, 63, 0
13, 271200, Note_on_c, 6, 55, 0
13, 271296, Note_on_c, 6, 63, 78
13, 271296, Note_on_c, 6, 55, 78
13, 271680, Note_on_c, 6, 55, 0
13, 271680, Note_on_c, 6, 63, 0
13, 271776, Note_on_c, 6, 55, 78
13, 271776, Note_on_c, 6, 58, 78
13, 271824, Note_on_c, 6, 58, 0
13, 271824, Note_on_c, 6, 55, 0
13, 271824, Note_on_c, 6, 55, 78
13, 271824, Note_on_c, 6, 58, 78
13, 271872, Note_on_c, 6, 58, 0
13, 271872, Note_on_c, 6, 55, 0
13, 271872, Note_on_c, 6, 63, 78
13, 271872, Note_on_c, 6, 55, 78
13, 271968, Note_on_c, 6, 55, 0
13, 271968, Note_on_c, 6, 63, 0
13, 271968, Note_on_c, 6, 65, 78
13, 271968, Note_on_c, 6, 58, 78
13, 272064, Note_on_c, 6, 58, 0
13, 272064, Note_on_c, 6, 65, 0
13, 272064, Note_on_c, 6, 63, 78
13, 272064, Note_on_c, 6, 67, 78
13, 272160, Note_on_c, 6, 67, 0
13, 272160, Note_on_c, 6, 63, 0
13, 272160, Note_on_c, 6, 65, 78
13, 272160, Note_on_c, 6, 58, 78
13, 272256, Note_on_c, 6, 58, 0
13, 272256, Note_on_c, 6, 65, 0
13, 272256, Note_on_c, 6, 63, 78
13, 272256, Note_on_c, 6, 55, 78
13, 272352, Note_on_c, 6, 55, 0
13, 272352, Note_on_c, 6, 63, 0
13, 272352, Note_on_c, 6, 58, 78
13, 272352, Note_on_c, 6, 65, 78
13, 272448, Note_on_c, 6, 65, 0
13, 272448, Note_on_c, 6, 58, 0
13, 272448, Note_on_c, 6, 67, 78
13, 272448, Note_on_c, 6, 63, 78
13, 272544, Note_on_c, 6, 63, 0
13, 272544, Note_on_c, 6, 67, 0
13, 272640, Note_on_c, 6, 63, 78
13, 272640, Note_on_c, 6, 55, 78
13, 272736, Note_on_c, 6, 55, 0
13, 272736, Note_on_c, 6, 63, 0
13, 272832, Note_on_c, 6, 55, 78
13, 272832, Note_on_c, 6, 63, 78
13, 273216, Note_on_c, 6, 63, 0
13, 273216, Note_on_c, 6, 55, 0
13, 273312, Note_on_c, 6, 56, 78
13, 273312, Note_on_c, 6, 60, 78
13, 273360, Note_on_c, 6, 60, 0
13, 273360, Note_on_c, 6, 56, 0
13, 273360, Note_on_c, 6, 60, 78
13, 273360, Note_on_c, 6, 56, 78
13, 273408, Note_on_c, 6, 56, 0
13, 273408, Note_on_c, 6, 60, 0
13, 273408, Note_on_c, 6, 65, 78
13, 273408, Note_on_c, 6, 56, 78
13, 273504, Note_on_c, 6, 56, 0
13, 273504, Note_on_c, 6, 65, 0
13, 273504, Note_on_c, 6, 60, 78
13, 273504, Note_on_c, 6, 67, 78
13, 273600, Note_on_c, 6, 67, 0
13, 273600, Note_on_c, 6, 60, 0
13, 273600, Note_on_c, 6, 56, 78
13, 273600, Note_on_c, 6, 65, 78
13, 273696, Note_on_c, 6, 65, 0
13, 273696, Note_on_c, 6, 56, 0
13, 273696, Note_on_c, 6, 55, 78
13, 273696, Note_on_c, 6, 60, 78
13, 273792, Note_on_c, 6, 60, 0
13, 273792, Note_on_c, 6, 55, 0
13, 273792, Note_on_c, 6, 53, 78
13, 273792, Note_on_c, 6, 56, 78
13, 273888, Note_on_c, 6, 56, 0
13, 273888, Note_on_c, 6, 53, 0
13, 273888, Note_on_c, 6, 55, 78
13, 273888, Note_on_c, 6, 60, 78
13, 273984, Note_on_c, 6, 60, 0
13, 273984, Note_on_c, 6, 55, 0
13, 273984, Note_on_c, 6, 56, 78
13, 273984, Note_on_c, 6, 65, 78
13, 274080, Note_on_c, 6, 65, 0
13, 274080, Note_on_c, 6, 56, 0
13, 274080, Note_on_c, 6, 55, 78
13, 274080, Note_on_c, 6, 60, 78
13, 274176, Note_on_c, 6, 60, 0
13, 274176, Note_on_c, 6, 55, 0
13, 274176, Note_on_c, 6, 53, 78
13, 274272, Note_on_c, 6, 53, 0
13, 274272, Note_on_c, 6, 55, 78
13, 274272, Note_on_c, 6, 60, 78
13, 274368, Note_on_c, 6, 60, 0
13, 274368, Note_on_c, 6, 55, 0
13, 274368, Note_on_c, 6, 65, 78
13, 274368, Note_on_c, 6, 56, 78
13, 274752, Note_on_c, 6, 56, 0
13, 274752, Note_on_c, 6, 65, 0
13, 274848, Note_on_c, 6, 55, 78
13, 274848, Note_on_c, 6, 58, 78
13, 274896, Note_on_c, 6, 58, 0
13, 274896, Note_on_c, 6, 55, 0
13, 274896, Note_on_c, 6, 55, 78
13, 274896, Note_on_c, 6, 58, 78
13, 274944, Note_on_c, 6, 58, 0
13, 274944, Note_on_c, 6, 55, 0
13, 274944, Note_on_c, 6, 55, 78
13, 274944, Note_on_c, 6, 63, 78
13, 275040, Note_on_c, 6, 63, 0
13, 275040, Note_on_c, 6, 55, 0
13, 275040, Note_on_c, 6, 58, 78
13, 275040, Note_on_c, 6, 65, 78
13, 275136, Note_on_c, 6, 65, 0
13, 275136, Note_on_c, 6, 58, 0
13, 275136, Note_on_c, 6, 55, 78
13, 275136, Note_on_c, 6, 63, 78
13, 275232, Note_on_c, 6, 63, 0
13, 275232, Note_on_c, 6, 55, 0
13, 275232, Note_on_c, 6, 53, 78
13, 275232, Note_on_c, 6, 58, 78
13, 275328, Note_on_c, 6, 58, 0
13, 275328, Note_on_c, 6, 53, 0
13, 275328, Note_on_c, 6, 51, 78
13, 275328, Note_on_c, 6, 55, 78
13, 275424, Note_on_c, 6, 55, 0
13, 275424, Note_on_c, 6, 51, 0
13, 275424, Note_on_c, 6, 53, 78
13, 275424, Note_on_c, 6, 58, 78
13, 275520, Note_on_c, 6, 58, 0
13, 275520, Note_on_c, 6, 53, 0
13, 275520, Note_on_c, 6, 55, 78
13, 275520, Note_on_c, 6, 63, 78
13, 275616, Note_on_c, 6, 63, 0
13, 275616, Note_on_c, 6, 55, 0
13, 275616, Note_on_c, 6, 53, 78
13, 275616, Note_on_c, 6, 58, 78
13, 275712, Note_on_c, 6, 58, 0
13, 275712, Note_on_c, 6, 53, 0
13, 275712, Note_on_c, 6, 51, 78
13, 275712, Note_on_c, 6, 55, 78
13, 275808, Note_on_c, 6, 55, 0
13, 275808, Note_on_c, 6, 51, 0
13, 275808, Note_on_c, 6, 53, 78
13, 275808, Note_on_c, 6, 58, 78
13, 275904, Note_on_c, 6, 58, 0
13, 275904, Note_on_c, 6, 53, 0
13, 275904, Note_on_c, 6, 63, 78
13, 275904, Note_on_c, 6, 55, 78
13, 276288, Note_on_c, 6, 55, 0
13, 276288, Note_on_c, 6, 63, 0
13, 276288, Note_on_c, 6, 70, 78
13, 276288, Note_on_c, 6, 63, 78
13, 276288, Note_on_c, 6, 58, 78
13, 276288, Note_on_c, 6, 67, 78
13, 276384, Note_on_c, 6, 67, 0
13, 276384, Note_on_c, 6, 70, 0
13, 276384, Note_on_c, 6, 63, 0
13, 276384, Note_on_c, 6, 58, 0
13, 276384, Note_on_c, 6, 55, 78
13, 276384, Note_on_c, 6, 58, 78
13, 276432, Note_on_c, 6, 58, 0
13, 276432, Note_on_c, 6, 55, 0
13, 276432, Note_on_c, 6, 55, 78
13, 276432, Note_on_c, 6, 58, 78
13, 276480, Note_on_c, 6, 58, 0
13, 276480, Note_on_c, 6, 55, 0
13, 276480, Note_on_c, 6, 55, 78
13, 276480, Note_on_c, 6, 63, 78
13, 276576, Note_on_c, 6, 63, 0
13, 276576, Note_on_c, 6, 55, 0
13, 276576, Note_on_c, 6, 58, 78
13, 276576, Note_on_c, 6, 65, 78
13, 276672, Note_on_c, 6, 65, 0
13, 276672, Note_on_c, 6, 58, 0
13, 276672, Note_on_c, 6, 67, 78
13, 276672, Note_on_c, 6, 63, 78
13, 276768, Note_on_c, 6, 63, 0
13, 276768, Note_on_c, 6, 67, 0
13, 276768, Note_on_c, 6, 65, 78
13, 276768, Note_on_c, 6, 58, 78
13, 276864, Note_on_c, 6, 58, 0
13, 276864, Note_on_c, 6, 65, 0
13, 276864, Note_on_c, 6, 55, 78
13, 276864, Note_on_c, 6, 63, 78
13, 276960, Note_on_c, 6, 63, 0
13, 276960, Note_on_c, 6, 55, 0
13, 276960, Note_on_c, 6, 58, 78
13, 276960, Note_on_c, 6, 65, 78
13, 277056, Note_on_c, 6, 65, 0
13, 277056, Note_on_c, 6, 58, 0
13, 277056, Note_on_c, 6, 67, 78
13, 277056, Note_on_c, 6, 63, 78
13, 277152, Note_on_c, 6, 63, 0
13, 277152, Note_on_c, 6, 67, 0
13, 277248, Note_on_c, 6, 55, 78
13, 277248, Note_on_c, 6, 63, 78
13, 277344, Note_on_c, 6, 63, 0
13, 277344, Note_on_c, 6, 55, 0
13, 277440, Note_on_c, 6, 63, 78
13, 277440, Note_on_c, 6, 55, 78
13, 277824, Note_on_c, 6, 55, 0
13, 277824, Note_on_c, 6, 63, 0
13, 277920, Note_on_c, 6, 55, 78
13, 277920, Note_on_c, 6, 58, 78
13, 277968, Note_on_c, 6, 58, 0
13, 277968, Note_on_c, 6, 55, 0
13, 277968, Note_on_c, 6, 55, 78
13, 277968, Note_on_c, 6, 58, 78
13, 278016, Note_on_c, 6, 58, 0
13, 278016, Note_on_c, 6, 55, 0
13, 278016, Note_on_c, 6, 63, 78
13, 278016, Note_on_c, 6, 55, 78
13, 278112, Note_on_c, 6, 55, 0
13, 278112, Note_on_c, 6, 63, 0
13, 278112, Note_on_c, 6, 65, 78
13, 278112, Note_on_c, 6, 58, 78
13, 278208, Note_on_c, 6, 58, 0
13, 278208, Note_on_c, 6, 65, 0
13, 278208, Note_on_c, 6, 63, 78
13, 278208, Note_on_c, 6, 67, 78
13, 278304, Note_on_c, 6, 67, 0
13, 278304, Note_on_c, 6, 63, 0
13, 278304, Note_on_c, 6, 65, 78
13, 278304, Note_on_c, 6, 58, 78
13, 278400, Note_on_c, 6, 58, 0
13, 278400, Note_on_c, 6, 65, 0
13, 278400, Note_on_c, 6, 63, 78
13, 278400, Note_on_c, 6, 55, 78
13, 278496, Note_on_c, 6, 55, 0
13, 278496, Note_on_c, 6, 63, 0
13, 278496, Note_on_c, 6, 58, 78
13, 278496, Note_on_c, 6, 65, 78
13, 278592, Note_on_c, 6, 65, 0
13, 278592, Note_on_c, 6, 58, 0
13, 278592, Note_on_c, 6, 67, 78
13, 278592, Note_on_c, 6, 63, 78
13, 278688, Note_on_c, 6, 63, 0
13, 278688, Note_on_c, 6, 67, 0
13, 278784, Note_on_c, 6, 63, 78
13, 278784, Note_on_c, 6, 55, 78
13, 278880, Note_on_c, 6, 55, 0
13, 278880, Note_on_c, 6, 63, 0
13, 278976, Note_on_c, 6, 55, 78
13, 278976, Note_on_c, 6, 63, 78
13, 279360, Note_on_c, 6, 63, 0
13, 279360, Note_on_c, 6, 55, 0
13, 279456, Note_on_c, 6, 56, 78
13, 279456, Note_on_c, 6, 60, 78
13, 279504, Note_on_c, 6, 60, 0
13, 279504, Note_on_c, 6, 56, 0
13, 279504, Note_on_c, 6, 60, 78
13, 279504, Note_on_c, 6, 56, 78
13, 279552, Note_on_c, 6, 56, 0
13, 279552, Note_on_c, 6, 60, 0
13, 279552, Note_on_c, 6, 65, 78
13, 279552, Note_on_c, 6, 56, 78
13, 279648, Note_on_c, 6, 56, 0
13, 279648, Note_on_c, 6, 65, 0
13, 279648, Note_on_c, 6, 60, 78
13, 279648, Note_on_c, 6, 67, 78
13, 279744, Note_on_c, 6, 67, 0
13, 279744, Note_on_c, 6, 60, 0
13, 279744, Note_on_c, 6, 56, 78
13, 279744, Note_on_c, 6, 65, 78
13, 279840, Note_on_c, 6, 65, 0
13, 279840, Note_on_c, 6, 56, 0
13, 279840, Note_on_c, 6, 55, 78
13, 279840, Note_on_c, 6, 60, 78
13, 279936, Note_on_c, 6, 60, 0
13, 279936, Note_on_c, 6, 55, 0
13, 279936, Note_on_c, 6, 53, 78
13, 279936, Note_on_c, 6, 56, 78
13, 280032, Note_on_c, 6, 56, 0
13, 280032, Note_on_c, 6, 53, 0
13, 280032, Note_on_c, 6, 55, 78
13, 280032, Note_on_c, 6, 60, 78
13, 280128, Note_on_c, 6, 60, 0
13, 280128, Note_on_c, 6, 55, 0
13, 280128, Note_on_c, 6, 56, 78
13, 280128, Note_on_c, 6, 65, 78
13, 280224, Note_on_c, 6, 65, 0
13, 280224, Note_on_c, 6, 56, 0
13, 280224, Note_on_c, 6, 55, 78
13, 280224, Note_on_c, 6, 60, 78
13, 280320, Note_on_c, 6, 60, 0
13, 280320, Note_on_c, 6, 55, 0
13, 280320, Note_on_c, 6, 53, 78
13, 280416, Note_on_c, 6, 53, 0
13, 280416, Note_on_c, 6, 55, 78
13, 280416, Note_on_c, 6, 60, 78
13, 280512, Note_on_c, 6, 60, 0
13, 280512, Note_on_c, 6, 55, 0
13, 280512, Note_on_c, 6, 65, 78
13, 280512, Note_on_c, 6, 56, 78
13, 280896, Note_on_c, 6, 56, 0
13, 280896, Note_on_c, 6, 65, 0
13, 280992, Note_on_c, 6, 55, 78
13, 280992, Note_on_c, 6, 58, 78
13, 281040, Note_on_c, 6, 58, 0
13, 281040, Note_on_c, 6, 55, 0
13, 281040, Note_on_c, 6, 55, 78
13, 281040, Note_on_c, 6, 58, 78
13, 281088, Note_on_c, 6, 58, 0
13, 281088, Note_on_c, 6, 55, 0
13, 281088, Note_on_c, 6, 55, 78
13, 281088, Note_on_c, 6, 63, 78
13, 281184, Note_on_c, 6, 63, 0
13, 281184, Note_on_c, 6, 55, 0
13, 281184, Note_on_c, 6, 58, 78
13, 281184, Note_on_c, 6, 65, 78
13, 281280, Note_on_c, 6, 65, 0
13, 281280, Note_on_c, 6, 58, 0
13, 281280, Note_on_c, 6, 55, 78
13, 281280, Note_on_c, 6, 63, 78
13, 281376, Note_on_c, 6, 63, 0
13, 281376, Note_on_c, 6, 55, 0
13, 281376, Note_on_c, 6, 53, 78
13, 281376, Note_on_c, 6, 58, 78
13, 281472, Note_on_c, 6, 58, 0
13, 281472, Note_on_c, 6, 53, 0
13, 281472, Note_on_c, 6, 51, 78
13, 281472, Note_on_c, 6, 55, 78
13, 281568, Note_on_c, 6, 55, 0
13, 281568, Note_on_c, 6, 51, 0
13, 281568, Note_on_c, 6, 53, 78
13, 281568, Note_on_c, 6, 58, 78
13, 281664, Note_on_c, 6, 58, 0
13, 281664, Note_on_c, 6, 53, 0
13, 281664, Note_on_c, 6, 55, 78
13, 281664, Note_on_c, 6, 63, 78
13, 281760, Note_on_c, 6, 63, 0
13, 281760, Note_on_c, 6, 55, 0
13, 281760, Note_on_c, 6, 53, 78
13, 281760, Note_on_c, 6, 58, 78
13, 281856, Note_on_c, 6, 58, 0
13, 281856, Note_on_c, 6, 53, 0
13, 281856, Note_on_c, 6, 51, 78
13, 281856, Note_on_c, 6, 55, 78
13, 281952, Note_on_c, 6, 55, 0
13, 281952, Note_on_c, 6, 51, 0
13, 281952, Note_on_c, 6, 53, 78
13, 281952, Note_on_c, 6, 58, 78
13, 282048, Note_on_c, 6, 58, 0
13, 282048, Note_on_c, 6, 53, 0
13, 282048, Note_on_c, 6, 63, 78
13, 282048, Note_on_c, 6, 55, 78
13, 282432, Note_on_c, 6, 55, 0
13, 282432, Note_on_c, 6, 63, 0
13, 284160, Note_on_c, 6, 64, 78
13, 284160, Note_on_c, 6, 58, 78
13, 284224, Note_on_c, 6, 58, 0
13, 284224, Note_on_c, 6, 64, 0
13, 284224, Note_on_c, 6, 58, 78
13, 284224, Note_on_c, 6, 64, 78
13, 284288, Note_on_c, 6, 64, 0
13, 284288, Note_on_c, 6, 58, 0
13, 284288, Note_on_c, 6, 58, 78
13, 284288, Note_on_c, 6, 64, 78
13, 284352, Note_on_c, 6, 64, 0
13, 284352, Note_on_c, 6, 58, 0
13, 284352, Note_on_c, 6, 58, 78
13, 284352, Note_on_c, 6, 64, 78
13, 284544, Note_on_c, 6, 64, 0
13, 284544, Note_on_c, 6, 58, 0
13, 284544, Note_on_c, 6, 72, 78
13, 284544, Note_on_c, 6, 60, 78
13, 284736, Note_on_c, 6, 60, 0
13, 284736, Note_on_c, 6, 72, 0
13, 284736, Note_on_c, 6, 60, 78
13, 284736, Note_on_c, 6, 66, 78
13, 284928, Note_on_c, 6, 66, 0
13, 284928, Note_on_c, 6, 60, 0
13, 284928, Note_on_c, 6, 62, 78
13, 284928, Note_on_c, 6, 67, 78
13, 285120, Note_on_c, 6, 67, 0
13, 285120, Note_on_c, 6, 62, 0
13, 285120, Note_on_c, 6, 68, 78
13, 285120, Note_on_c, 6, 62, 78
13, 285312, Note_on_c, 6, 62, 0
13, 285312, Note_on_c, 6, 68, 0
13, 285312, Note_on_c, 6, 63, 78
13, 285312, Note_on_c, 6, 69, 78
13, 285504, Note_on_c, 6, 69, 0
13, 285504, Note_on_c, 6, 63, 0
13, 285504, Note_on_c, 6, 67, 78
13, 285504, Note_on_c, 6, 63, 78
13, 285632, Note_on_c, 6, 63, 0
13, 285632, Note_on_c, 6, 67, 0
13, 285632, Note_on_c, 6, 63, 78
13, 285632, Note_on_c, 6, 58, 78
13, 285760, Note_on_c, 6, 58, 0
13, 285760, Note_on_c, 6, 63, 0
13, 285760, Note_on_c, 6, 58, 78
13, 285760, Note_on_c, 6, 63, 78
13, 285888, Note_on_c, 6, 63, 0
13, 285888, Note_on_c, 6, 58, 0
13, 285888, Note_on_c, 6, 58, 78
13, 285888, Note_on_c, 6, 63, 78
13, 286016, Note_on_c, 6, 63, 0
13, 286016, Note_on_c, 6, 58, 0
13, 286016, Note_on_c, 6, 70, 78
13, 286016, Note_on_c, 6, 67, 78
13, 286016, Note_on_c, 6, 58, 78
13, 286016, Note_on_c, 6, 55, 78
13, 286144, Note_on_c, 6, 55, 0
13, 286144, Note_on_c, 6, 70, 0
13, 286144, Note_on_c, 6, 67, 0
13, 286144, Note_on_c, 6, 58, 0
13, 286144, Note_on_c, 6, 67, 78
13, 286144, Note_on_c, 6, 55, 78
13, 286144, Note_on_c, 6, 70, 78
13, 286144, Note_on_c, 6, 58, 78
13, 286272, Note_on_c, 6, 58, 0
13, 286272, Note_on_c, 6, 67, 0
13, 286272, Note_on_c, 6, 55, 0
13, 286272, Note_on_c, 6, 70, 0
13, 286272, Note_on_c, 6, 67, 78
13, 286272, Note_on_c, 6, 70, 78
13, 286272, Note_on_c, 6, 58, 78
13, 286272, Note_on_c, 6, 55, 78
13, 286400, Note_on_c, 6, 55, 0
13, 286400, Note_on_c, 6, 67, 0
13, 286400, Note_on_c, 6, 70, 0
13, 286400, Note_on_c, 6, 58, 0
13, 286400, Note_on_c, 6, 67, 78
13, 286400, Note_on_c, 6, 63, 78
13, 286400, Note_on_c, 6, 55, 78
13, 286400, Note_on_c, 6, 51, 78
13, 286528, Note_on_c, 6, 51, 0
13, 286528, Note_on_c, 6, 67, 0
13, 286528, Note_on_c, 6, 63, 0
13, 286528, Note_on_c, 6, 55, 0
13, 286528, Note_on_c, 6, 63, 78
13, 286528, Note_on_c, 6, 55, 78
13, 286528, Note_on_c, 6, 67, 78
13, 286528, Note_on_c, 6, 51, 78
13, 286656, Note_on_c, 6, 51, 0
13, 286656, Note_on_c, 6, 63, 0
13, 286656, Note_on_c, 6, 55, 0
13, 286656, Note_on_c, 6, 67, 0
13, 286656, Note_on_c, 6, 67, 78
13, 286656, Note_on_c, 6, 55, 78
13, 286656, Note_on_c, 6, 51, 78
13, 286656, Note_on_c, 6, 63, 78
13, 286784, Note_on_c, 6, 63, 0
13, 286784, Note_on_c, 6, 67, 0
13, 286784, Note_on_c, 6, 55, 0
13, 286784, Note_on_c, 6, 51, 0
13, 286784, Note_on_c, 6, 67, 78
13, 286784, Note_on_c, 6, 63, 78
13, 286784, Note_on_c, 6, 51, 78
13, 286784, Note_on_c, 6, 55, 78
13, 286912, Note_on_c, 6, 55, 0
13, 286912, Note_on_c, 6, 67, 0
13, 286912, Note_on_c, 6, 63, 0
13, 286912, Note_on_c, 6, 51, 0
13, 286912, Note_on_c, 6, 67, 78
13, 286912, Note_on_c, 6, 51, 78
13, 286912, Note_on_c, 6, 63, 78
13, 286912, Note_on_c, 6, 55, 78
13, 287040, Note_on_c, 6, 55, 0
13, 287040, Note_on_c, 6, 67, 0
13, 287040, Note_on_c, 6, 51, 0
13, 287040, Note_on_c, 6, 63, 0
13, 287040, Note_on_c, 6, 65, 78
13, 287040, Note_on_c, 6, 62, 78
13, 287040, Note_on_c, 6, 53, 78
13, 287040, Note_on_c, 6, 50, 78
13, 287168, Note_on_c, 6, 50, 0
13, 287168, Note_on_c, 6, 65, 0
13, 287168, Note_on_c, 6, 62, 0
13, 287168, Note_on_c, 6, 53, 0
13, 287424, Note_on_c, 6, 59, 78
13, 287424, Note_on_c, 6, 71, 78
13, 287424, Note_on_c, 6, 55, 78
13, 287424, Note_on_c, 6, 67, 78
13, 287552, Note_on_c, 6, 67, 0
13, 287552, Note_on_c, 6, 59, 0
13, 287552, Note_on_c, 6, 71, 0
13, 287552, Note_on_c, 6, 55, 0
13, 287808, Note_on_c, 6, 67, 78
13, 287808, Note_on_c, 6, 55, 78
13, 287808, Note_on_c, 6, 72, 78
13, 287808, Note_on_c, 6, 60, 78
13, 287936, Note_on_c, 6, 60, 0
13, 287936, Note_on_c, 6, 67, 0
13, 287936, Note_on_c, 6, 55, 0
13, 287936, Note_on_c, 6, 72, 0
13, 288192, Note_on_c, 6, 62, 78
13, 288192, Note_on_c, 6, 56, 78
13, 288320, Note_on_c, 6, 56, 0
13, 288320, Note_on_c, 6, 62, 0
13, 288576, Note_on_c, 6, 58, 78
13, 288576, Note_on_c, 6, 67, 78
13, 288576, Note_on_c, 6, 63, 78
13, 288768, Note_on_c, 6, 63, 0
13, 288768, Note_on_c, 6, 67, 0
13, 288768, Note_on_c, 6, 58, 0
13, 288960, Note_on_c, 6, 58, 78
13, 288960, Note_on_c, 6, 53, 78
13, 288960, Note_on_c, 6, 62, 78
13, 289152, Note_on_c, 6, 62, 0
13, 289152, Note_on_c, 6, 53, 0
13, 289152, Note_on_c, 6, 58, 0
13, 289152, Note_on_c, 6, 53, 78
13, 289152, Note_on_c, 6, 62, 78
13, 289152, Note_on_c, 6, 58, 78
13, 289344, Note_on_c, 6, 58, 0
13, 289344, Note_on_c, 6, 62, 0
13, 289344, Note_on_c, 6, 53, 0
13, 289344, Note_on_c, 6, 67, 78
13, 289344, Note_on_c, 6, 63, 78
13, 289344, Note_on_c, 6, 58, 78
13, 289536, Note_on_c, 6, 58, 0
13, 289536, Note_on_c, 6, 63, 0
13, 289536, Note_on_c, 6, 67, 0
13, 289728, Note_on_c, 6, 62, 78
13, 289728, Note_on_c, 6, 58, 78
13, 289728, Note_on_c, 6, 53, 78
13, 289920, Note_on_c, 6, 53, 0
13, 289920, Note_on_c, 6, 58, 0
13, 289920, Note_on_c, 6, 62, 0
13, 289920, Note_on_c, 6, 62, 78
13, 289920, Note_on_c, 6, 53, 78
13, 289920, Note_on_c, 6, 58, 78
13, 290112, Note_on_c, 6, 58, 0
13, 290112, Note_on_c, 6, 53, 0
13, 290112, Note_on_c, 6, 62, 0
13, 290112, Note_on_c, 6, 63, 78
13, 290112, Note_on_c, 6, 55, 78
13, 290112, Note_on_c, 6, 67, 78
13, 290112, Note_on_c, 6, 58, 78
13, 290304, Note_on_c, 6, 58, 0
13, 290304, Note_on_c, 6, 63, 0
13, 290304, Note_on_c, 6, 55, 0
13, 290304, Note_on_c, 6, 67, 0
13, 290304, Note_on_c, 6, 62, 78
13, 290304, Note_on_c, 6, 65, 78
13, 290304, Note_on_c, 6, 56, 78
13, 290304, Note_on_c, 6, 53, 78
13, 290496, Note_on_c, 6, 53, 0
13, 290496, Note_on_c, 6, 62, 0
13, 290496, Note_on_c, 6, 65, 0
13, 290496, Note_on_c, 6, 56, 0
13, 290496, Note_on_c, 6, 67, 78
13, 290496, Note_on_c, 6, 63, 78
13, 290496, Note_on_c, 6, 58, 78
13, 290496, Note_on_c, 6, 55, 78
13, 290688, Note_on_c, 6, 55, 0
13, 290688, Note_on_c, 6, 67, 0
13, 290688, Note_on_c, 6, 63, 0
13, 290688, Note_on_c, 6, 58, 0
13, 290688, Note_on_c, 6, 62, 78
13, 290688, Note_on_c, 6, 65, 78
13, 290688, Note_on_c, 6, 53, 78
13, 290688, Note_on_c, 6, 56, 78
13, 290880, Note_on_c, 6, 56, 0
13, 290880, Note_on_c, 6, 62, 0
13, 290880, Note_on_c, 6, 65, 0
13, 290880, Note_on_c, 6, 53, 0
13, 290880, Note_on_c, 6, 63, 78
13, 290880, Note_on_c, 6, 67, 78
13, 290880, Note_on_c, 6, 55, 78
13, 290880, Note_on_c, 6, 58, 78
13, 291072, Note_on_c, 6, 58, 0
13, 291072, Note_on_c, 6, 63, 0
13, 291072, Note_on_c, 6, 67, 0
13, 291072, Note_on_c, 6, 55, 0
13, 291072, Note_on_c, 6, 65, 78
13, 291072, Note_on_c, 6, 62, 78
13, 291072, Note_on_c, 6, 56, 78
13, 291072, Note_on_c, 6, 53, 78
13, 291264, Note_on_c, 6, 53, 0
13, 291264, Note_on_c, 6, 65, 0
13, 291264, Note_on_c, 6, 62, 0
13, 291264, Note_on_c, 6, 56, 0
13, 291264, Note_on_c, 6, 67, 78
13, 291264, Note_on_c, 6, 63, 78
13, 291264, Note_on_c, 6, 55, 78
13, 291264, Note_on_c, 6, 58, 78
13, 291456, Note_on_c, 6, 58, 0
13, 291456, Note_on_c, 6, 67, 0
13, 291456, Note_on_c, 6, 63, 0
13, 291456, Note_on_c, 6, 55, 0
13, 291456, Note_on_c, 6, 65, 78
13, 291456, Note_on_c, 6, 62, 78
13, 291456, Note_on_c, 6, 56, 78
13, 291456, Note_on_c, 6, 53, 78
13, 291648, Note_on_c, 6, 53, 0
13, 291648, Note_on_c, 6, 65, 0
13, 291648, Note_on_c, 6, 62, 0
13, 291648, Note_on_c, 6, 56, 0
13, 291648, Note_on_c, 6, 67, 78
13, 291648, Note_on_c, 6, 63, 78
13, 291648, Note_on_c, 6, 58, 78
13, 291648, Note_on_c, 6, 55, 78
13, 291840, Note_on_c, 6, 55, 0
13, 291840, Note_on_c, 6, 67, 0
13, 291840, Note_on_c, 6, 63, 0
13, 291840, Note_on_c, 6, 58, 0
13, 291840, Note_on_c, 6, 62, 78
13, 291840, Note_on_c, 6, 67, 78
13, 291840, Note_on_c, 6, 55, 78
13, 291840, Note_on_c, 6, 59, 78
13, 292032, Note_on_c, 6, 59, 0
13, 292032, Note_on_c, 6, 62, 0
13, 292032, Note_on_c, 6, 67, 0
13, 292032, Note_on_c, 6, 55, 0
13, 292032, Note_on_c, 6, 67, 78
13, 292032, Note_on_c, 6, 63, 78
13, 292032, Note_on_c, 6, 55, 78
13, 292032, Note_on_c, 6, 60, 78
13, 292224, Note_on_c, 6, 60, 0
13, 292224, Note_on_c, 6, 67, 0
13, 292224, Note_on_c, 6, 63, 0
13, 292224, Note_on_c, 6, 55, 0
13, 292224, Note_on_c, 6, 67, 78
13, 292224, Note_on_c, 6, 62, 78
13, 292224, Note_on_c, 6, 59, 78
13, 292224, Note_on_c, 6, 55, 78
13, 292416, Note_on_c, 6, 55, 0
13, 292416, Note_on_c, 6, 67, 0
13, 292416, Note_on_c, 6, 62, 0
13, 292416, Note_on_c, 6, 59, 0
13, 292416, Note_on_c, 6, 63, 78
13, 292416, Note_on_c, 6, 60, 78
13, 292416, Note_on_c, 6, 67, 78
13, 292416, Note_on_c, 6, 55, 78
13, 292608, Note_on_c, 6, 55, 0
13, 292608, Note_on_c, 6, 63, 0
13, 292608, Note_on_c, 6, 60, 0
13, 292608, Note_on_c, 6, 67, 0
13, 292608, Note_on_c, 6, 67, 78
13, 292608, Note_on_c, 6, 62, 78
13, 292608, Note_on_c, 6, 59, 78
13, 292608, Note_on_c, 6, 55, 78
13, 292800, Note_on_c, 6, 55, 0
13, 292800, Note_on_c, 6, 67, 0
13, 292800, Note_on_c, 6, 62, 0
13, 292800, Note_on_c, 6, 59, 0
13, 292800, Note_on_c, 6, 67, 78
13, 292800, Note_on_c, 6, 63, 78
13, 292800, Note_on_c, 6, 60, 78
13, 292800, Note_on_c, 6, 55, 78
13, 292992, Note_on_c, 6, 55, 0
13, 292992, Note_on_c, 6, 67, 0
13, 292992, Note_on_c, 6, 63, 0
13, 292992, Note_on_c, 6, 60, 0
13, 292992, Note_on_c, 6, 65, 78
13, 292992, Note_on_c, 6, 58, 78
13, 292992, Note_on_c, 6, 53, 78
13, 292992, Note_on_c, 6, 62, 78
13, 293184, Note_on_c, 6, 62, 0
13, 293184, Note_on_c, 6, 65, 0
13, 293184, Note_on_c, 6, 58, 0
13, 293184, Note_on_c, 6, 53, 0
13, 293184, Note_on_c, 6, 58, 78
13, 293184, Note_on_c, 6, 67, 78
13, 293184, Note_on_c, 6, 55, 78
13, 293184, Note_on_c, 6, 63, 78
13, 293280, Note_on_c, 6, 63, 0
13, 293280, Note_on_c, 6, 58, 0
13, 293280, Note_on_c, 6, 67, 0
13, 293280, Note_on_c, 6, 55, 0
13, 293952, Note_on_c, 6, 67, 78
13, 293952, Note_on_c, 6, 70, 78
13, 293952, Note_on_c, 6, 58, 78
13, 293952, Note_on_c, 6, 63, 78
13, 294048, Note_on_c, 6, 63, 0
13, 294048, Note_on_c, 6, 67, 0
13, 294048, Note_on_c, 6, 70, 0
13, 294048, Note_on_c, 6, 58, 0
13, 294720, Note_on_c, 6, 67, 78
13, 294720, Note_on_c, 6, 55, 78
13, 294720, Note_on_c, 6, 63, 78
13, 294720, Note_on_c, 6, 58, 78
13, 294755, Note_on_c, 6, 58, 0
13, 294755, Note_on_c, 6, 67, 0
13, 294755, Note_on_c, 6, 55, 0
13, 294755, Note_on_c, 6, 63, 0
13, 294816, Note_on_c, 6, 55, 78
13, 294816, Note_on_c, 6, 58, 78
13, 294851, Note_on_c, 6, 58, 0
13, 294851, Note_on_c, 6, 55, 0
13, 294864, Note_on_c, 6, 55, 78
13, 294864, Note_on_c, 6, 58, 78
13, 294899, Note_on_c, 6, 58, 0
13, 294899, Note_on_c, 6, 55, 0
13, 294912, Note_on_c, 6, 63, 78
13, 294912, Note_on_c, 6, 55, 78
13, 294947, Note_on_c, 6, 55, 0
13, 294947, Note_on_c, 6, 63, 0
13, 295008, Note_on_c, 6, 58, 78
13, 295008, Note_on_c, 6, 65, 78
13, 295043, Note_on_c, 6, 65, 0
13, 295043, Note_on_c, 6, 58, 0
13, 295104, Note_on_c, 6, 63, 78
13, 295104, Note_on_c, 6, 67, 78
13, 295139, Note_on_c, 6, 67, 0
13, 295139, Note_on_c, 6, 63, 0
13, 295200, Note_on_c, 6, 58, 78
13, 295200, Note_on_c, 6, 65, 78
13, 295235, Note_on_c, 6, 65, 0
13, 295235, Note_on_c, 6, 58, 0
13, 295296, Note_on_c, 6, 63, 78
13, 295296, Note_on_c, 6, 55, 78
13, 295331, Note_on_c, 6, 55, 0
13, 295331, Note_on_c, 6, 63, 0
13, 295392, Note_on_c, 6, 58, 78
13, 295392, Note_on_c, 6, 65, 78
13, 295427, Note_on_c, 6, 65, 0
13, 295427, Note_on_c, 6, 58, 0
13, 295488, Note_on_c, 6, 63, 78
13, 295488, Note_on_c, 6, 67, 78
13, 295536, Note_on_c, 6, 67, 0
13, 295536, Note_on_c, 6, 63, 0
13, 295584, Note_on_c, 6, 58, 78
13, 295584, Note_on_c, 6, 50, 78
13, 295619, Note_on_c, 6, 50, 0
13, 295619, Note_on_c, 6, 58, 0
13, 295632, Note_on_c, 6, 58, 78
13, 295632, Note_on_c, 6, 50, 78
13, 295667, Note_on_c, 6, 50, 0
13, 295667, Note_on_c, 6, 58, 0
13, 295680, Note_on_c, 6, 55, 78
13, 295680, Note_on_c, 6, 51, 78
13, 295715, Note_on_c, 6, 51, 0
13, 295715, Note_on_c, 6, 55, 0
13, 295776, Note_on_c, 6, 58, 78
13, 295776, Note_on_c, 6, 53, 78
13, 295811, Note_on_c, 6, 53, 0
13, 295811, Note_on_c, 6, 58, 0
13, 295872, Note_on_c, 6, 63, 78
13, 295872, Note_on_c, 6, 55, 78
13, 295907, Note_on_c, 6, 55, 0
13, 295907, Note_on_c, 6, 63, 0
13, 295968, Note_on_c, 6, 58, 78
13, 295968, Note_on_c, 6, 53, 78
13, 296003, Note_on_c, 6, 53, 0
13, 296003, Note_on_c, 6, 58, 0
13, 296064, Note_on_c, 6, 51, 78
13, 296064, Note_on_c, 6, 55, 78
13, 296099, Note_on_c, 6, 55, 0
13, 296099, Note_on_c, 6, 51, 0
13, 296160, Note_on_c, 6, 58, 78
13, 296160, Note_on_c, 6, 53, 78
13, 296195, Note_on_c, 6, 53, 0
13, 296195, Note_on_c, 6, 58, 0
13, 296256, Note_on_c, 6, 55, 78
13, 296256, Note_on_c, 6, 63, 78
13, 296324, Note_on_c, 6, 63, 0
13, 296324, Note_on_c, 6, 55, 0
13, 296640, Note_on_c, 6, 58, 78
13, 296640, Note_on_c, 6, 55, 78
13, 296928, Note_on_c, 6, 55, 0
13, 296928, Note_on_c, 6, 58, 0
13, 296928, Note_on_c, 6, 55, 78
13, 296928, Note_on_c, 6, 58, 78
13, 297024, Note_on_c, 6, 58, 0
13, 297024, Note_on_c, 6, 55, 0
13, 297024, Note_on_c, 6, 55, 78
13, 297024, Note_on_c, 6, 58, 78
13, 297408, Note_on_c, 6, 58, 0
13, 297408, Note_on_c, 6, 55, 0
13, 297408, Note_on_c, 6, 67, 78
13, 297408, Note_on_c, 6, 55, 78
13, 297408, Note_on_c, 6, 63, 78
13, 297792, Note_on_c, 6, 63, 0
13, 297792, Note_on_c, 6, 55, 0
13, 297792, Note_on_c, 6, 67, 0
13, 297792, Note_on_c, 6, 63, 78
13, 297792, Note_on_c, 6, 67, 78
13, 297792, Note_on_c, 6, 55, 78
13, 298176, Note_on_c, 6, 55, 0
13, 298176, Note_on_c, 6, 67, 0
13, 298176, Note_on_c, 6, 63, 0
13, 298560, Note_on_c, 6, 70, 78
13, 298560, Note_on_c, 6, 67, 78
13, 298560, Note_on_c, 6, 63, 78
13, 298560, Note_on_c, 6, 58, 78
13, 298944, Note_on_c, 6, 58, 0
13, 298944, Note_on_c, 6, 70, 0
13, 298944, Note_on_c, 6, 67, 0
13, 298944, Note_on_c, 6, 63, 0
13, 299328, Note_on_c, 6, 58, 78
13, 299328, Note_on_c, 6, 55, 78
13, 299712, Note_on_c, 6, 55, 0
13, 299712, Note_on_c, 6, 58, 0
13, 300096, Note_on_c, 6, 58, 78
13, 300096, Note_on_c, 6, 67, 78
13, 300096, Note_on_c, 6, 63, 78
13, 300096, Note_on_c, 6, 55, 78
13, 300480, Note_on_c, 6, 55, 0
13, 300480, Note_on_c, 6, 58, 0
13, 300480, Note_on_c, 6, 67, 0
13, 300480, Note_on_c, 6, 63, 0
13, 300864, Note_on_c, 6, 67, 78
13, 300864, Note_on_c, 6, 63, 78
13, 300864, Note_on_c, 6, 58, 78
13, 300864, Note_on_c, 6, 55, 78
13, 301056, Note_on_c, 6, 55, 0
13, 301056, Note_on_c, 6, 67, 0
13, 301056, Note_on_c, 6, 63, 0
13, 301056, Note_on_c, 6, 58, 0
13, 301632, Note_on_c, 6, 63, 78
13, 301632, Note_on_c, 6, 51, 78
13, 302205, Note_on_c, 6, 51, 0
13, 302205, Note_on_c, 6, 63, 0
13, 302208, Note_on_c, 6, 63, 78
13, 302208, Note_on_c, 6, 51, 78
13, 302397, Note_on_c, 6, 51, 0
13, 302397, Note_on_c, 6, 63, 0
13, 302400, Note_on_c, 6, 51, 78
13, 302400, Note_on_c, 6, 63, 78
13, 303168, Note_on_c, 6, 63, 0
13, 303168, Note_on_c, 6, 51, 0
13, 303168, End_track
14, 0, Start_track
14, 0, MIDI_port, 0
14, 0, Title_t, "Trombones & Tuba"
14, 0, Program_c, 7, 57
14, 0, Control_c, 7, 7, 98
14, 0, Control_c, 7, 10, 30
14, 19200, Note_on_c, 7, 68, 78
14, 19200, Note_on_c, 7, 62, 78
14, 19200, Note_on_c, 7, 59, 78
14, 19200, Note_on_c, 7, 65, 78
14, 19392, Note_on_c, 7, 65, 0
14, 19392, Note_on_c, 7, 68, 0
14, 19392, Note_on_c, 7, 62, 0
14, 19392, Note_on_c, 7, 59, 0
14, 19392, Note_on_c, 7, 62, 78
14, 19392, Note_on_c, 7, 67, 78
14, 19392, Note_on_c, 7, 65, 78
14, 19392, Note_on_c, 7, 59, 78
14, 19776, Note_on_c, 7, 59, 0
14, 19776, Note_on_c, 7, 62, 0
14, 19776, Note_on_c, 7, 67, 0
14, 19776, Note_on_c, 7, 65, 0
14, 19776, Note_on_c, 7, 65, 78
14, 19776, Note_on_c, 7, 59, 78
14, 19776, Note_on_c, 7, 67, 78
14, 19776, Note_on_c, 7, 62, 78
14, 19968, Note_on_c, 7, 62, 0
14, 19968, Note_on_c, 7, 65, 0
14, 19968, Note_on_c, 7, 59, 0
14, 19968, Note_on_c, 7, 67, 0
14, 19968, Note_on_c, 7, 62, 78
14, 19968, Note_on_c, 7, 67, 78
14, 19968, Note_on_c, 7, 59, 78
14, 19968, Note_on_c, 7, 65, 78
14, 20160, Note_on_c, 7, 65, 0
14, 20160, Note_on_c, 7, 62, 0
14, 20160, Note_on_c, 7, 67, 0
14, 20160, Note_on_c, 7, 59, 0
14, 20160, Note_on_c, 7, 67, 78
14, 20160, Note_on_c, 7, 60, 78
14, 20160, Note_on_c, 7, 63, 77
14, 20160, Note_on_c, 7, 55, 77
14, 20160, Note_on_c, 7, 48, 77
14, 20160, Note_on_c, 7, 36, 77
14, 20256, Note_on_c, 7, 36, 0
14, 20256, Note_on_c, 7, 60, 0
14, 20256, Note_on_c, 7, 63, 0
14, 20256, Note_on_c, 7, 67, 0
14, 20256, Note_on_c, 7, 48, 0
14, 20256, Note_on_c, 7, 55, 0
14, 30528, Note_on_c, 7, 68, 78
14, 30528, Note_on_c, 7, 65, 78
14, 30528, Note_on_c, 7, 61, 78
14, 30576, Note_on_c, 7, 61, 0
14, 30576, Note_on_c, 7, 65, 0
14, 30576, Note_on_c, 7, 68, 0
14, 30576, Note_on_c, 7, 68, 78
14, 30576, Note_on_c, 7, 61, 78
14, 30576, Note_on_c, 7, 65, 78
14, 30624, Note_on_c, 7, 65, 0
14, 30624, Note_on_c, 7, 61, 0
14, 30624, Note_on_c, 7, 68, 0
14, 30624, Note_on_c, 7, 68, 78
14, 30624, Note_on_c, 7, 65, 78
14, 30624, Note_on_c, 7, 61, 78
14, 30672, Note_on_c, 7, 61, 0
14, 30672, Note_on_c, 7, 65, 0
14, 30672, Note_on_c, 7, 68, 0
14, 30672, Note_on_c, 7, 61, 78
14, 30672, Note_on_c, 7, 68, 78
14, 30672, Note_on_c, 7, 65, 78
14, 30720, Note_on_c, 7, 65, 0
14, 30720, Note_on_c, 7, 68, 0
14, 30720, Note_on_c, 7, 61, 0
14, 30720, Note_on_c, 7, 68, 78
14, 30720, Note_on_c, 7, 59, 78
14, 30720, Note_on_c, 7, 65, 78
14, 31104, Note_on_c, 7, 65, 0
14, 31104, Note_on_c, 7, 59, 0
14, 31104, Note_on_c, 7, 68, 0
14, 31104, Note_on_c, 7, 57, 78
14, 31104, Note_on_c, 7, 66, 78
14, 31680, Note_on_c, 7, 66, 0
14, 31680, Note_on_c, 7, 57, 0
14, 31680, Note_on_c, 7, 67, 78
14, 31680, Note_on_c, 7, 59, 78
14, 31872, Note_on_c, 7, 59, 0
14, 31872, Note_on_c, 7, 67, 0
14, 31872, Note_on_c, 7, 67, 78
14, 31872, Note_on_c, 7, 59, 78
14, 32064, Note_on_c, 7, 59, 0
14, 32064, Note_on_c, 7, 67, 0
14, 32064, Note_on_c, 7, 57, 78
14, 32064, Note_on_c, 7, 60, 78
14, 32256, Note_on_c, 7, 60, 0
14, 32256, Note_on_c, 7, 57, 0
14, 32256, Note_on_c, 7, 61, 78
14, 32256, Note_on_c, 7, 58, 78
14, 32448, Note_on_c, 7, 58, 0
14, 32448, Note_on_c, 7, 61, 0
14, 32448, Note_on_c, 7, 62, 78
14, 32448, Note_on_c, 7, 59, 78
14, 32640, Note_on_c, 7, 59, 0
14, 32640, Note_on_c, 7, 62, 0
14, 32640, Note_on_c, 7, 63, 78
14, 32640, Note_on_c, 7, 60, 78
14, 32832, Note_on_c, 7, 60, 0
14, 32832, Note_on_c, 7, 63, 0
14, 32832, Note_on_c, 7, 61, 78
14, 32832, Note_on_c, 7, 64, 78
14, 32928, Note_on_c, 7, 64, 0
14, 32928, Note_on_c, 7, 61, 0
14, 32928, Note_on_c, 7, 64, 78
14, 32928, Note_on_c, 7, 61, 78
14, 32960, Note_on_c, 7, 61, 0
14, 32960, Note_on_c, 7, 64, 0
14, 32960, Note_on_c, 7, 61, 78
14, 32960, Note_on_c, 7, 64, 78
14, 32992, Note_on_c, 7, 64, 0
14, 32992, Note_on_c, 7, 61, 0
14, 32992, Note_on_c, 7, 61, 78
14, 32992, Note_on_c, 7, 64, 78
14, 33024, Note_on_c, 7, 64, 0
14, 33024, Note_on_c, 7, 61, 0
14, 33024, Note_on_c, 7, 61, 78
14, 33024, Note_on_c, 7, 64, 78
14, 33216, Note_on_c, 7, 64, 0
14, 33216, Note_on_c, 7, 61, 0
14, 33216, Note_on_c, 7, 61, 78
14, 33216, Note_on_c, 7, 64, 78
14, 33312, Note_on_c, 7, 64, 0
14, 33312, Note_on_c, 7, 61, 0
14, 33312, Note_on_c, 7, 64, 78
14, 33312, Note_on_c, 7, 61, 78
14, 33344, Note_on_c, 7, 61, 0
14, 33344, Note_on_c, 7, 64, 0
14, 33344, Note_on_c, 7, 64, 78
14, 33344, Note_on_c, 7, 61, 78
14, 33376, Note_on_c, 7, 61, 0
14, 33376, Note_on_c, 7, 64, 0
14, 33376, Note_on_c, 7, 64, 78
14, 33376, Note_on_c, 7, 61, 78
14, 33408, Note_on_c, 7, 61, 0
14, 33408, Note_on_c, 7, 64, 0
14, 33408, Note_on_c, 7, 61, 78
14, 33408, Note_on_c, 7, 64, 78
14, 33600, Note_on_c, 7, 64, 0
14, 33600, Note_on_c, 7, 61, 0
14, 33600, Note_on_c, 7, 45, 95
14, 33600, Note_on_c, 7, 57, 95
14, 33888, Note_on_c, 7, 57, 0
14, 33888, Note_on_c, 7, 45, 0
14, 33888, Note_on_c, 7, 44, 95
14, 33888, Note_on_c, 7, 56, 95
14, 33984, Note_on_c, 7, 56, 0
14, 33984, Note_on_c, 7, 44, 0
14, 33984, Note_on_c, 7, 52, 95
14, 33984, Note_on_c, 7, 40, 95
14, 34080, Note_on_c, 7, 40, 0
14, 34080, Note_on_c, 7, 52, 0
14, 34080, Note_on_c, 7, 51, 95
14, 34080, Note_on_c, 7, 39, 95
14, 34176, Note_on_c, 7, 39, 0
14, 34176, Note_on_c, 7, 51, 0
14, 34176, Note_on_c, 7, 69, 86
14, 34176, Note_on_c, 7, 37, 95
14, 34176, Note_on_c, 7, 49, 95
14, 34272, Note_on_c, 7, 49, 0
14, 34272, Note_on_c, 7, 37, 0
14, 34272, Note_on_c, 7, 36, 95
14, 34272, Note_on_c, 7, 48, 95
14, 34368, Note_on_c, 7, 48, 0
14, 34368, Note_on_c, 7, 36, 0
14, 34368, Note_on_c, 7, 49, 95
14, 34368, Note_on_c, 7, 37, 95
14, 34464, Note_on_c, 7, 37, 0
14, 34464, Note_on_c, 7, 49, 0
14, 34464, Note_on_c, 7, 69, 0
14, 34464, Note_on_c, 7, 68, 86
14, 34464, Note_on_c, 7, 40, 95
14, 34464, Note_on_c, 7, 52, 95
14, 34560, Note_on_c, 7, 52, 0
14, 34560, Note_on_c, 7, 40, 0
14, 34560, Note_on_c, 7, 68, 0
14, 34560, Note_on_c, 7, 64, 86
14, 34560, Note_on_c, 7, 56, 95
14, 34560, Note_on_c, 7, 44, 95
14, 34656, Note_on_c, 7, 64, 0
14, 34656, Note_on_c, 7, 63, 78
14, 34704, Note_on_c, 7, 44, 0
14, 34704, Note_on_c, 7, 56, 0
14, 34704, Note_on_c, 7, 49, 95
14, 34704, Note_on_c, 7, 61, 95
14, 34752, Note_on_c, 7, 61, 0
14, 34752, Note_on_c, 7, 49, 0
14, 34752, Note_on_c, 7, 63, 0
14, 34752, Note_on_c, 7, 61, 86
14, 34752, Note_on_c, 7, 64, 95
14, 34752, Note_on_c, 7, 52, 95
14, 34848, Note_on_c, 7, 61, 0
14, 34848, Note_on_c, 7, 60, 86
14, 34944, Note_on_c, 7, 60, 0
14, 34944, Note_on_c, 7, 61, 86
14, 35040, Note_on_c, 7, 61, 0
14, 35040, Note_on_c, 7, 52, 0
14, 35040, Note_on_c, 7, 64, 0
14, 35040, Note_on_c, 7, 64, 86
14, 35040, Note_on_c, 7, 61, 95
14, 35040, Note_on_c, 7, 49, 95
14, 35136, Note_on_c, 7, 49, 0
14, 35136, Note_on_c, 7, 61, 0
14, 35136, Note_on_c, 7, 64, 0
14, 35136, Note_on_c, 7, 68, 86
14, 35136, Note_on_c, 7, 44, 95
14, 35136, Note_on_c, 7, 56, 95
14, 35232, Note_on_c, 7, 68, 0
14, 35280, Note_on_c, 7, 56, 0
14, 35280, Note_on_c, 7, 44, 0
14, 35280, Note_on_c, 7, 52, 95
14, 35280, Note_on_c, 7, 40, 95
14, 35328, Note_on_c, 7, 40, 0
14, 35328, Note_on_c, 7, 52, 0
14, 35328, Note_on_c, 7, 37, 95
14, 35328, Note_on_c, 7, 49, 95
14, 35424, Note_on_c, 7, 49, 0
14, 35424, Note_on_c, 7, 37, 0
14, 35424, Note_on_c, 7, 59, 78
14, 35424, Note_on_c, 7, 65, 78
14, 35424, Note_on_c, 7, 61, 78
14, 35424, Note_on_c, 7, 49, 78
14, 35424, Note_on_c, 7, 49, 95
14, 35424, Note_on_c, 7, 37, 95
14, 35520, Note_on_c, 7, 37, 0
14, 35520, Note_on_c, 7, 65, 0
14, 35520, Note_on_c, 7, 61, 0
14, 35520, Note_on_c, 7, 59, 0
14, 35520, Note_on_c, 7, 49, 0
14, 35520, Note_on_c, 7, 49, 0
14, 35520, Note_on_c, 7, 61, 78
14, 35520, Note_on_c, 7, 51, 78
14, 35520, Note_on_c, 7, 66, 78
14, 35520, Note_on_c, 7, 59, 78
14, 35520, Note_on_c, 7, 39, 95
14, 35520, Note_on_c, 7, 51, 95
14, 35616, Note_on_c, 7, 51, 0
14, 35616, Note_on_c, 7, 51, 0
14, 35616, Note_on_c, 7, 66, 0
14, 35616, Note_on_c, 7, 61, 0
14, 35616, Note_on_c, 7, 39, 0
14, 35616, Note_on_c, 7, 59, 0
14, 35616, Note_on_c, 7, 61, 78
14, 35616, Note_on_c, 7, 68, 78
14, 35616, Note_on_c, 7, 59, 78
14, 35616, Note_on_c, 7, 53, 78
14, 35616, Note_on_c, 7, 41, 95
14, 35616, Note_on_c, 7, 53, 95
14, 35712, Note_on_c, 7, 53, 0
14, 35712, Note_on_c, 7, 68, 0
14, 35712, Note_on_c, 7, 59, 0
14, 35712, Note_on_c, 7, 61, 0
14, 35712, Note_on_c, 7, 41, 0
14, 35712, Note_on_c, 7, 53, 0
14, 35712, Note_on_c, 7, 61, 78
14, 35712, Note_on_c, 7, 57, 78
14, 35712, Note_on_c, 7, 69, 78
14, 35712, Note_on_c, 7, 54, 78
14, 35712, Note_on_c, 7, 42, 95
14, 35712, Note_on_c, 7, 54, 95
14, 35808, Note_on_c, 7, 54, 0
14, 35808, Note_on_c, 7, 57, 0
14, 35808, Note_on_c, 7, 69, 0
14, 35808, Note_on_c, 7, 61, 0
14, 35808, Note_on_c, 7, 42, 0
14, 35808, Note_on_c, 7, 54, 0
14, 35904, Note_on_c, 7, 50, 95
14, 36192, Note_on_c, 7, 50, 0
14, 36192, Note_on_c, 7, 49, 95
14, 36288, Note_on_c, 7, 49, 0
14, 36288, Note_on_c, 7, 45, 95
14, 36384, Note_on_c, 7, 45, 0
14, 36384, Note_on_c, 7, 44, 95
14, 36480, Note_on_c, 7, 44, 0
14, 36480, Note_on_c, 7, 62, 78
14, 36480, Note_on_c, 7, 42, 95
14, 36480, Note_on_c, 7, 62, 111
14, 36576, Note_on_c, 7, 42, 0
14, 36576, Note_on_c, 7, 41, 95
14, 36672, Note_on_c, 7, 41, 0
14, 36672, Note_on_c, 7, 42, 95
14, 36768, Note_on_c, 7, 42, 0
14, 36768, Note_on_c, 7, 62, 0
14, 36768, Note_on_c, 7, 62, 0
14, 36768, Note_on_c, 7, 61, 78
14, 36768, Note_on_c, 7, 61, 111
14, 36768, Note_on_c, 7, 45, 95
14, 36864, Note_on_c, 7, 45, 0
14, 36864, Note_on_c, 7, 61, 0
14, 36864, Note_on_c, 7, 61, 0
14, 36864, Note_on_c, 7, 57, 78
14, 36864, Note_on_c, 7, 49, 95
14, 36864, Note_on_c, 7, 57, 99
14, 36960, Note_on_c, 7, 57, 0
14, 36960, Note_on_c, 7, 57, 0
14, 36960, Note_on_c, 7, 56, 78
14, 36960, Note_on_c, 7, 56, 99
14, 37008, Note_on_c, 7, 49, 0
14, 37008, Note_on_c, 7, 54, 95
14, 37056, Note_on_c, 7, 54, 0
14, 37056, Note_on_c, 7, 56, 0
14, 37056, Note_on_c, 7, 56, 0
14, 37056, Note_on_c, 7, 54, 78
14, 37056, Note_on_c, 7, 57, 95
14, 37056, Note_on_c, 7, 54, 99
14, 37152, Note_on_c, 7, 54, 0
14, 37152, Note_on_c, 7, 54, 0
14, 37152, Note_on_c, 7, 53, 78
14, 37152, Note_on_c, 7, 53, 99
14, 37248, Note_on_c, 7, 53, 0
14, 37248, Note_on_c, 7, 53, 0
14, 37248, Note_on_c, 7, 54, 78
14, 37248, Note_on_c, 7, 54, 99
14, 37344, Note_on_c, 7, 54, 0
14, 37344, Note_on_c, 7, 54, 0
14, 37344, Note_on_c, 7, 57, 0
14, 37344, Note_on_c, 7, 54, 95
14, 37344, Note_on_c, 7, 57, 104
14, 37440, Note_on_c, 7, 57, 0
14, 37440, Note_on_c, 7, 54, 0
14, 37440, Note_on_c, 7, 61, 78
14, 37440, Note_on_c, 7, 61, 95
14, 37440, Note_on_c, 7, 49, 95
14, 37584, Note_on_c, 7, 49, 0
14, 37584, Note_on_c, 7, 61, 0
14, 37584, Note_on_c, 7, 61, 0
14, 37584, Note_on_c, 7, 66, 78
14, 37584, Note_on_c, 7, 45, 95
14, 37584, Note_on_c, 7, 66, 95
14, 37632, Note_on_c, 7, 66, 0
14, 37632, Note_on_c, 7, 45, 0
14, 37632, Note_on_c, 7, 66, 0
14, 37632, Note_on_c, 7, 69, 78
14, 37632, Note_on_c, 7, 42, 59
14, 37632, Note_on_c, 7, 69, 62
14, 37728, Note_on_c, 7, 69, 0
14, 37728, Note_on_c, 7, 42, 0
14, 37728, Note_on_c, 7, 69, 0
14, 37728, Note_on_c, 7, 66, 78
14, 37728, Note_on_c, 7, 58, 78
14, 37728, Note_on_c, 7, 70, 78
14, 37728, Note_on_c, 7, 64, 78
14, 37728, Note_on_c, 7, 66, 55
14, 37728, Note_on_c, 7, 64, 60
14, 37728, Note_on_c, 7, 42, 58
14, 37728, Note_on_c, 7, 54, 62
14, 37824, Note_on_c, 7, 54, 0
14, 37824, Note_on_c, 7, 66, 0
14, 37824, Note_on_c, 7, 66, 0
14, 37824, Note_on_c, 7, 58, 0
14, 37824, Note_on_c, 7, 70, 0
14, 37824, Note_on_c, 7, 64, 0
14, 37824, Note_on_c, 7, 64, 0
14, 37824, Note_on_c, 7, 42, 0
14, 37824, Note_on_c, 7, 70, 78
14, 37824, Note_on_c, 7, 66, 78
14, 37824, Note_on_c, 7, 64, 78
14, 37824, Note_on_c, 7, 58, 78
14, 37824, Note_on_c, 7, 66, 55
14, 37824, Note_on_c, 7, 56, 62
14, 37824, Note_on_c, 7, 44, 59
14, 37824, Note_on_c, 7, 64, 62
14, 37920, Note_on_c, 7, 64, 0
14, 37920, Note_on_c, 7, 70, 0
14, 37920, Note_on_c, 7, 66, 0
14, 37920, Note_on_c, 7, 66, 0
14, 37920, Note_on_c, 7, 64, 0
14, 37920, Note_on_c, 7, 58, 0
14, 37920, Note_on_c, 7, 56, 0
14, 37920, Note_on_c, 7, 44, 0
14, 37920, Note_on_c, 7, 66, 78
14, 37920, Note_on_c, 7, 64, 78
14, 37920, Note_on_c, 7, 61, 78
14, 37920, Note_on_c, 7, 64, 60
14, 37920, Note_on_c, 7, 66, 56
14, 37920, Note_on_c, 7, 58, 60
14, 37920, Note_on_c, 7, 46, 59
14, 38016, Note_on_c, 7, 46, 0
14, 38016, Note_on_c, 7, 66, 0
14, 38016, Note_on_c, 7, 64, 0
14, 38016, Note_on_c, 7, 61, 0
14, 38016, Note_on_c, 7, 66, 0
14, 38016, Note_on_c, 7, 58, 0
14, 38016, Note_on_c, 7, 64, 0
14, 38016, Note_on_c, 7, 62, 78
14, 38016, Note_on_c, 7, 66, 78
14, 38016, Note_on_c, 7, 59, 62
14, 38016, Note_on_c, 7, 47, 55
14, 38016, Note_on_c, 7, 62, 61
14, 38016, Note_on_c, 7, 66, 53
14, 38112, Note_on_c, 7, 66, 0
14, 38112, Note_on_c, 7, 66, 0
14, 38112, Note_on_c, 7, 59, 0
14, 38112, Note_on_c, 7, 62, 0
14, 38112, Note_on_c, 7, 62, 0
14, 38112, Note_on_c, 7, 47, 0
14, 38208, Note_on_c, 7, 66, 78
14, 38208, Note_on_c, 7, 60, 78
14, 38208, Note_on_c, 7, 52, 54
14, 38208, Note_on_c, 7, 64, 62
14, 38352, Note_on_c, 7, 64, 0
14, 38352, Note_on_c, 7, 52, 0
14, 38352, Note_on_c, 7, 50, 56
14, 38352, Note_on_c, 7, 62, 68
14, 38400, Note_on_c, 7, 62, 0
14, 38400, Note_on_c, 7, 66, 0
14, 38400, Note_on_c, 7, 60, 0
14, 38400, Note_on_c, 7, 50, 0
14, 38400, Note_on_c, 7, 67, 78
14, 38400, Note_on_c, 7, 59, 78
14, 38400, Note_on_c, 7, 55, 66
14, 38400, Note_on_c, 7, 43, 56
14, 38496, Note_on_c, 7, 43, 0
14, 38496, Note_on_c, 7, 55, 0
14, 38592, Note_on_c, 7, 59, 0
14, 38592, Note_on_c, 7, 67, 0
14, 38592, Note_on_c, 7, 62, 78
14, 38592, Note_on_c, 7, 68, 78
14, 38592, Note_on_c, 7, 65, 63
14, 38592, Note_on_c, 7, 53, 55
14, 38736, Note_on_c, 7, 53, 0
14, 38736, Note_on_c, 7, 65, 0
14, 38736, Note_on_c, 7, 64, 68
14, 38736, Note_on_c, 7, 52, 58
14, 38784, Note_on_c, 7, 52, 0
14, 38784, Note_on_c, 7, 62, 0
14, 38784, Note_on_c, 7, 68, 0
14, 38784, Note_on_c, 7, 64, 0
14, 38784, Note_on_c, 7, 69, 78
14, 38784, Note_on_c, 7, 61, 78
14, 38784, Note_on_c, 7, 45, 95
14, 38784, Note_on_c, 7, 57, 62
14, 38880, Note_on_c, 7, 57, 0
14, 38880, Note_on_c, 7, 45, 0
14, 38976, Note_on_c, 7, 61, 0
14, 38976, Note_on_c, 7, 69, 0
14, 38976, Note_on_c, 7, 70, 78
14, 38976, Note_on_c, 7, 64, 78
14, 38976, Note_on_c, 7, 55, 95
14, 38976, Note_on_c, 7, 67, 95
14, 39120, Note_on_c, 7, 67, 0
14, 39120, Note_on_c, 7, 55, 0
14, 39120, Note_on_c, 7, 54, 95
14, 39120, Note_on_c, 7, 66, 95
14, 39168, Note_on_c, 7, 66, 0
14, 39168, Note_on_c, 7, 70, 0
14, 39168, Note_on_c, 7, 64, 0
14, 39168, Note_on_c, 7, 54, 0
14, 39168, Note_on_c, 7, 62, 78
14, 39168, Note_on_c, 7, 71, 78
14, 39168, Note_on_c, 7, 59, 95
14, 39168, Note_on_c, 7, 47, 95
14, 39264, Note_on_c, 7, 47, 0
14, 39264, Note_on_c, 7, 59, 0
14, 39360, Note_on_c, 7, 71, 0
14, 39360, Note_on_c, 7, 62, 0
14, 39360, Note_on_c, 7, 72, 78
14, 39360, Note_on_c, 7, 66, 78
14, 39360, Note_on_c, 7, 69, 95
14, 39360, Note_on_c, 7, 57, 95
14, 39456, Note_on_c, 7, 66, 0
14, 39456, Note_on_c, 7, 72, 0
14, 39504, Note_on_c, 7, 69, 0
14, 39504, Note_on_c, 7, 57, 0
14, 39504, Note_on_c, 7, 68, 95
14, 39504, Note_on_c, 7, 56, 95
14, 39552, Note_on_c, 7, 56, 0
14, 39552, Note_on_c, 7, 68, 0
14, 39552, Note_on_c, 7, 54, 95
14, 39552, Note_on_c, 7, 66, 95
14, 39612, Note_on_c, 7, 66, 0
14, 39612, Note_on_c, 7, 54, 0
14, 39648, Note_on_c, 7, 51, 95
14, 39648, Note_on_c, 7, 63, 95
14, 39744, Note_on_c, 7, 63, 0
14, 39744, Note_on_c, 7, 51, 0
14, 39744, Note_on_c, 7, 69, 78
14, 39744, Note_on_c, 7, 66, 78
14, 39744, Note_on_c, 7, 63, 78
14, 39744, Note_on_c, 7, 60, 78
14, 39744, Note_on_c, 7, 48, 95
14, 39744, Note_on_c, 7, 60, 95
14, 39840, Note_on_c, 7, 60, 0
14, 39840, Note_on_c, 7, 66, 0
14, 39840, Note_on_c, 7, 63, 0
14, 39840, Note_on_c, 7, 69, 0
14, 39840, Note_on_c, 7, 48, 0
14, 39840, Note_on_c, 7, 60, 0
14, 39840, Note_on_c, 7, 63, 78
14, 39840, Note_on_c, 7, 72, 78
14, 39840, Note_on_c, 7, 65, 78
14, 39840, Note_on_c, 7, 57, 78
14, 39840, Note_on_c, 7, 57, 95
14, 39840, Note_on_c, 7, 60, 95
14, 39840, Note_on_c, 7, 45, 95
14, 39936, Note_on_c, 7, 45, 0
14, 39936, Note_on_c, 7, 57, 0
14, 39936, Note_on_c, 7, 72, 0
14, 39936, Note_on_c, 7, 65, 0
14, 39936, Note_on_c, 7, 63, 0
14, 39936, Note_on_c, 7, 60, 0
14, 39936, Note_on_c, 7, 57, 0
14, 39936, Note_on_c, 7, 69, 78
14, 39936, Note_on_c, 7, 63, 78
14, 39936, Note_on_c, 7, 60, 78
14, 39936, Note_on_c, 7, 57, 78
14, 39936, Note_on_c, 7, 42, 95
14, 39936, Note_on_c, 7, 54, 95
14, 39936, Note_on_c, 7, 60, 95
14, 39936, Note_on_c, 7, 57, 95
14, 40032, Note_on_c, 7, 57, 0
14, 40032, Note_on_c, 7, 69, 0
14, 40032, Note_on_c, 7, 42, 0
14, 40032, Note_on_c, 7, 63, 0
14, 40032, Note_on_c, 7, 60, 0
14, 40032, Note_on_c, 7, 57, 0
14, 40032, Note_on_c, 7, 54, 0
14, 40032, Note_on_c, 7, 60, 0
14, 40032, Note_on_c, 7, 69, 78
14, 40032, Note_on_c, 7, 66, 78
14, 40032, Note_on_c, 7, 60, 78
14, 40032, Note_on_c, 7, 57, 78
14, 40032, Note_on_c, 7, 51, 95
14, 40032, Note_on_c, 7, 60, 95
14, 40032, Note_on_c, 7, 39, 95
14, 40032, Note_on_c, 7, 57, 95
14, 40128, Note_on_c, 7, 57, 0
14, 40128, Note_on_c, 7, 69, 0
14, 40128, Note_on_c, 7, 51, 0
14, 40128, Note_on_c, 7, 66, 0
14, 40128, Note_on_c, 7, 60, 0
14, 40128, Note_on_c, 7, 57, 0
14, 40128, Note_on_c, 7, 60, 0
14, 40128, Note_on_c, 7, 39, 0
14, 40128, Note_on_c, 7, 69, 78
14, 40128, Note_on_c, 7, 57, 78
14, 40128, Note_on_c, 7, 66, 78
14, 40128, Note_on_c, 7, 63, 78
14, 40128, Note_on_c, 7, 63, 95
14, 40128, Note_on_c, 7, 57, 95
14, 40128, Note_on_c, 7, 48, 95
14, 40128, Note_on_c, 7, 36, 95
14, 40224, Note_on_c, 7, 36, 0
14, 40224, Note_on_c, 7, 69, 0
14, 40224, Note_on_c, 7, 63, 0
14, 40224, Note_on_c, 7, 57, 0
14, 40224, Note_on_c, 7, 66, 0
14, 40224, Note_on_c, 7, 63, 0
14, 40224, Note_on_c, 7, 57, 0
14, 40224, Note_on_c, 7, 48, 0
14, 40224, Note_on_c, 7, 69, 78
14, 40224, Note_on_c, 7, 66, 78
14, 40224, Note_on_c, 7, 63, 78
14, 40224, Note_on_c, 7, 57, 78
14, 40224, Note_on_c, 7, 35, 95
14, 40224, Note_on_c, 7, 63, 95
14, 40224, Note_on_c, 7, 47, 95
14, 40224, Note_on_c, 7, 57, 95
14, 40320, Note_on_c, 7, 57, 0
14, 40320, Note_on_c, 7, 69, 0
14, 40320, Note_on_c, 7, 35, 0
14, 40320, Note_on_c, 7, 66, 0
14, 40320, Note_on_c, 7, 63, 0
14, 40320, Note_on_c, 7, 57, 0
14, 40320, Note_on_c, 7, 63, 0
14, 40320, Note_on_c, 7, 47, 0
14, 40320, Note_on_c, 7, 65, 78
14, 40320, Note_on_c, 7, 70, 78
14, 40320, Note_on_c, 7, 58, 78
14, 40320, Note_on_c, 7, 63, 78
14, 40320, Note_on_c, 7, 63, 95
14, 40320, Note_on_c, 7, 34, 95
14, 40320, Note_on_c, 7, 58, 95
14, 40320, Note_on_c, 7, 46, 95
14, 40512, Note_on_c, 7, 46, 0
14, 40512, Note_on_c, 7, 65, 0
14, 40512, Note_on_c, 7, 63, 0
14, 40512, Note_on_c, 7, 70, 0
14, 40512, Note_on_c, 7, 58, 0
14, 40512, Note_on_c, 7, 63, 0
14, 40512, Note_on_c, 7, 34, 0
14, 40512, Note_on_c, 7, 58, 0
14, 40512, Note_on_c, 7, 72, 78
14, 40512, Note_on_c, 7, 65, 78
14, 40512, Note_on_c, 7, 60, 78
14, 40512, Note_on_c, 7, 63, 78
14, 40512, Note_on_c, 7, 63, 95
14, 40512, Note_on_c, 7, 33, 95
14, 40512, Note_on_c, 7, 60, 95
14, 40512, Note_on_c, 7, 45, 95
14, 40704, Note_on_c, 7, 45, 0
14, 40704, Note_on_c, 7, 72, 0
14, 40704, Note_on_c, 7, 63, 0
14, 40704, Note_on_c, 7, 65, 0
14, 40704, Note_on_c, 7, 60, 0
14, 40704, Note_on_c, 7, 63, 0
14, 40704, Note_on_c, 7, 33, 0
14, 40704, Note_on_c, 7, 60, 0
14, 44592, Note_on_c, 7, 58, 78
14, 44612, Note_on_c, 7, 58, 0
14, 44616, Note_on_c, 7, 58, 78
14, 44636, Note_on_c, 7, 58, 0
14, 44640, Note_on_c, 7, 63, 78
14, 44640, Note_on_c, 7, 55, 78
14, 44680, Note_on_c, 7, 55, 0
14, 44680, Note_on_c, 7, 63, 0
14, 44688, Note_on_c, 7, 65, 78
14, 44688, Note_on_c, 7, 58, 78
14, 44728, Note_on_c, 7, 58, 0
14, 44728, Note_on_c, 7, 65, 0
14, 44736, Note_on_c, 7, 67, 78
14, 44736, Note_on_c, 7, 63, 78
14, 44776, Note_on_c, 7, 63, 0
14, 44776, Note_on_c, 7, 67, 0
14, 44784, Note_on_c, 7, 65, 78
14, 44784, Note_on_c, 7, 58, 78
14, 44824, Note_on_c, 7, 58, 0
14, 44824, Note_on_c, 7, 65, 0
14, 44832, Note_on_c, 7, 63, 78
14, 44832, Note_on_c, 7, 55, 78
14, 44872, Note_on_c, 7, 55, 0
14, 44872, Note_on_c, 7, 63, 0
14, 44880, Note_on_c, 7, 65, 78
14, 44880, Note_on_c, 7, 58, 78
14, 44920, Note_on_c, 7, 58, 0
14, 44920, Note_on_c, 7, 65, 0
14, 44928, Note_on_c, 7, 63, 78
14, 44928, Note_on_c, 7, 67, 78
14, 44964, Note_on_c, 7, 67, 0
14, 44964, Note_on_c, 7, 63, 0
14, 45024, Note_on_c, 7, 55, 78
14, 45024, Note_on_c, 7, 63, 78
14, 45060, Note_on_c, 7, 63, 0
14, 45060, Note_on_c, 7, 55, 0
14, 45120, Note_on_c, 7, 63, 78
14, 45120, Note_on_c, 7, 55, 78
14, 45312, Note_on_c, 7, 55, 0
14, 45312, Note_on_c, 7, 63, 0
14, 45360, Note_on_c, 7, 58, 78
14, 45380, Note_on_c, 7, 58, 0
14, 45384, Note_on_c, 7, 58, 78
14, 45404, Note_on_c, 7, 58, 0
14, 45408, Note_on_c, 7, 63, 78
14, 45408, Note_on_c, 7, 55, 78
14, 45448, Note_on_c, 7, 55, 0
14, 45448, Note_on_c, 7, 63, 0
14, 45456, Note_on_c, 7, 58, 78
14, 45456, Note_on_c, 7, 65, 78
14, 45496, Note_on_c, 7, 65, 0
14, 45496, Note_on_c, 7, 58, 0
14, 45504, Note_on_c, 7, 63, 78
14, 45504, Note_on_c, 7, 67, 78
14, 45544, Note_on_c, 7, 67, 0
14, 45544, Note_on_c, 7, 63, 0
14, 45552, Note_on_c, 7, 58, 78
14, 45552, Note_on_c, 7, 65, 78
14, 45592, Note_on_c, 7, 65, 0
14, 45592, Note_on_c, 7, 58, 0
14, 45600, Note_on_c, 7, 63, 78
14, 45600, Note_on_c, 7, 55, 78
14, 45640, Note_on_c, 7, 55, 0
14, 45640, Note_on_c, 7, 63, 0
14, 45648, Note_on_c, 7, 58, 78
14, 45648, Note_on_c, 7, 65, 78
14, 45688, Note_on_c, 7, 65, 0
14, 45688, Note_on_c, 7, 58, 0
14, 45696, Note_on_c, 7, 63, 78
14, 45696, Note_on_c, 7, 67, 78
14, 45732, Note_on_c, 7, 67, 0
14, 45732, Note_on_c, 7, 63, 0
14, 45792, Note_on_c, 7, 63, 78
14, 45792, Note_on_c, 7, 55, 78
14, 45828, Note_on_c, 7, 55, 0
14, 45828, Note_on_c, 7, 63, 0
14, 45888, Note_on_c, 7, 55, 78
14, 45888, Note_on_c, 7, 63, 78
14, 46080, Note_on_c, 7, 63, 0
14, 46080, Note_on_c, 7, 55, 0
14, 46128, Note_on_c, 7, 60, 78
14, 46148, Note_on_c, 7, 60, 0
14, 46152, Note_on_c, 7, 60, 78
14, 46172, Note_on_c, 7, 60, 0
14, 46176, Note_on_c, 7, 65, 78
14, 46176, Note_on_c, 7, 56, 78
14, 46216, Note_on_c, 7, 56, 0
14, 46216, Note_on_c, 7, 65, 0
14, 46224, Note_on_c, 7, 67, 78
14, 46224, Note_on_c, 7, 60, 78
14, 46264, Note_on_c, 7, 60, 0
14, 46264, Note_on_c, 7, 67, 0
14, 46272, Note_on_c, 7, 65, 78
14, 46272, Note_on_c, 7, 56, 78
14, 46312, Note_on_c, 7, 56, 0
14, 46312, Note_on_c, 7, 65, 0
14, 46320, Note_on_c, 7, 60, 78
14, 46320, Note_on_c, 7, 55, 78
14, 46360, Note_on_c, 7, 55, 0
14, 46360, Note_on_c, 7, 60, 0
14, 46368, Note_on_c, 7, 53, 78
14, 46408, Note_on_c, 7, 53, 0
14, 46416, Note_on_c, 7, 55, 78
14, 46416, Note_on_c, 7, 60, 78
14, 46456, Note_on_c, 7, 60, 0
14, 46456, Note_on_c, 7, 55, 0
14, 46464, Note_on_c, 7, 65, 78
14, 46464, Note_on_c, 7, 56, 78
14, 46504, Note_on_c, 7, 56, 0
14, 46504, Note_on_c, 7, 65, 0
14, 46512, Note_on_c, 7, 60, 78
14, 46512, Note_on_c, 7, 55, 78
14, 46552, Note_on_c, 7, 55, 0
14, 46552, Note_on_c, 7, 60, 0
14, 46560, Note_on_c, 7, 53, 78
14, 46560, Note_on_c, 7, 56, 78
14, 46600, Note_on_c, 7, 56, 0
14, 46600, Note_on_c, 7, 53, 0
14, 46608, Note_on_c, 7, 55, 78
14, 46608, Note_on_c, 7, 60, 78
14, 46648, Note_on_c, 7, 60, 0
14, 46648, Note_on_c, 7, 55, 0
14, 46656, Note_on_c, 7, 56, 78
14, 46656, Note_on_c, 7, 65, 78
14, 46848, Note_on_c, 7, 65, 0
14, 46848, Note_on_c, 7, 56, 0
14, 46896, Note_on_c, 7, 58, 78
14, 46916, Note_on_c, 7, 58, 0
14, 46920, Note_on_c, 7, 58, 78
14, 46940, Note_on_c, 7, 58, 0
14, 46944, Note_on_c, 7, 63, 78
14, 46944, Note_on_c, 7, 55, 78
14, 46984, Note_on_c, 7, 55, 0
14, 46984, Note_on_c, 7, 63, 0
14, 46992, Note_on_c, 7, 58, 78
14, 46992, Note_on_c, 7, 65, 78
14, 47032, Note_on_c, 7, 65, 0
14, 47032, Note_on_c, 7, 58, 0
14, 47040, Note_on_c, 7, 55, 78
14, 47040, Note_on_c, 7, 63, 78
14, 47080, Note_on_c, 7, 63, 0
14, 47080, Note_on_c, 7, 55, 0
14, 47088, Note_on_c, 7, 58, 78
14, 47088, Note_on_c, 7, 53, 78
14, 47128, Note_on_c, 7, 53, 0
14, 47128, Note_on_c, 7, 58, 0
14, 47136, Note_on_c, 7, 51, 78
14, 47136, Note_on_c, 7, 55, 78
14, 47176, Note_on_c, 7, 55, 0
14, 47176, Note_on_c, 7, 51, 0
14, 47184, Note_on_c, 7, 58, 78
14, 47184, Note_on_c, 7, 53, 78
14, 47224, Note_on_c, 7, 53, 0
14, 47224, Note_on_c, 7, 58, 0
14, 47232, Note_on_c, 7, 63, 78
14, 47232, Note_on_c, 7, 53, 78
14, 47272, Note_on_c, 7, 53, 0
14, 47272, Note_on_c, 7, 63, 0
14, 47280, Note_on_c, 7, 58, 78
14, 47280, Note_on_c, 7, 53, 78
14, 47320, Note_on_c, 7, 53, 0
14, 47320, Note_on_c, 7, 58, 0
14, 47328, Note_on_c, 7, 55, 78
14, 47328, Note_on_c, 7, 51, 78
14, 47368, Note_on_c, 7, 51, 0
14, 47368, Note_on_c, 7, 55, 0
14, 47376, Note_on_c, 7, 58, 78
14, 47376, Note_on_c, 7, 53, 78
14, 47416, Note_on_c, 7, 53, 0
14, 47416, Note_on_c, 7, 58, 0
14, 47424, Note_on_c, 7, 55, 78
14, 47424, Note_on_c, 7, 63, 78
14, 47616, Note_on_c, 7, 63, 0
14, 47616, Note_on_c, 7, 55, 0
14, 47664, Note_on_c, 7, 58, 78
14, 47684, Note_on_c, 7, 58, 0
14, 47688, Note_on_c, 7, 58, 78
14, 47708, Note_on_c, 7, 58, 0
14, 47712, Note_on_c, 7, 63, 78
14, 47712, Note_on_c, 7, 55, 78
14, 47752, Note_on_c, 7, 55, 0
14, 47752, Note_on_c, 7, 63, 0
14, 47760, Note_on_c, 7, 58, 78
14, 47760, Note_on_c, 7, 65, 78
14, 47800, Note_on_c, 7, 65, 0
14, 47800, Note_on_c, 7, 58, 0
14, 47808, Note_on_c, 7, 63, 78
14, 47808, Note_on_c, 7, 67, 78
14, 47848, Note_on_c, 7, 67, 0
14, 47848, Note_on_c, 7, 63, 0
14, 47856, Note_on_c, 7, 65, 78
14, 47856, Note_on_c, 7, 58, 78
14, 47896, Note_on_c, 7, 58, 0
14, 47896, Note_on_c, 7, 65, 0
14, 47904, Note_on_c, 7, 63, 78
14, 47904, Note_on_c, 7, 55, 78
14, 47944, Note_on_c, 7, 55, 0
14, 47944, Note_on_c, 7, 63, 0
14, 47952, Note_on_c, 7, 58, 78
14, 47952, Note_on_c, 7, 65, 78
14, 47992, Note_on_c, 7, 65, 0
14, 47992, Note_on_c, 7, 58, 0
14, 48000, Note_on_c, 7, 67, 78
14, 48000, Note_on_c, 7, 63, 78
14, 48036, Note_on_c, 7, 63, 0
14, 48036, Note_on_c, 7, 67, 0
14, 48096, Note_on_c, 7, 63, 78
14, 48096, Note_on_c, 7, 55, 78
14, 48132, Note_on_c, 7, 55, 0
14, 48132, Note_on_c, 7, 63, 0
14, 48192, Note_on_c, 7, 55, 78
14, 48192, Note_on_c, 7, 63, 78
14, 48384, Note_on_c, 7, 63, 0
14, 48384, Note_on_c, 7, 55, 0
14, 48432, Note_on_c, 7, 58, 78
14, 48452, Note_on_c, 7, 58, 0
14, 48456, Note_on_c, 7, 58, 78
14, 48476, Note_on_c, 7, 58, 0
14, 48480, Note_on_c, 7, 63, 78
14, 48480, Note_on_c, 7, 55, 78
14, 48520, Note_on_c, 7, 55, 0
14, 48520, Note_on_c, 7, 63, 0
14, 48528, Note_on_c, 7, 65, 78
14, 48528, Note_on_c, 7, 58, 78
14, 48568, Note_on_c, 7, 58, 0
14, 48568, Note_on_c, 7, 65, 0
14, 48576, Note_on_c, 7, 67, 78
14, 48576, Note_on_c, 7, 63, 78
14, 48616, Note_on_c, 7, 63, 0
14, 48616, Note_on_c, 7, 67, 0
14, 48624, Note_on_c, 7, 58, 78
14, 48624, Note_on_c, 7, 65, 78
14, 48664, Note_on_c, 7, 65, 0
14, 48664, Note_on_c, 7, 58, 0
14, 48672, Note_on_c, 7, 55, 78
14, 48672, Note_on_c, 7, 63, 78
14, 48712, Note_on_c, 7, 63, 0
14, 48712, Note_on_c, 7, 55, 0
14, 48720, Note_on_c, 7, 58, 78
14, 48720, Note_on_c, 7, 65, 78
14, 48760, Note_on_c, 7, 65, 0
14, 48760, Note_on_c, 7, 58, 0
14, 48768, Note_on_c, 7, 63, 78
14, 48768, Note_on_c, 7, 67, 78
14, 48804, Note_on_c, 7, 67, 0
14, 48804, Note_on_c, 7, 63, 0
14, 48864, Note_on_c, 7, 55, 78
14, 48864, Note_on_c, 7, 63, 78
14, 48900, Note_on_c, 7, 63, 0
14, 48900, Note_on_c, 7, 55, 0
14, 48960, Note_on_c, 7, 55, 78
14, 48960, Note_on_c, 7, 63, 78
14, 49152, Note_on_c, 7, 63, 0
14, 49152, Note_on_c, 7, 55, 0
14, 49200, Note_on_c, 7, 60, 78
14, 49220, Note_on_c, 7, 60, 0
14, 49224, Note_on_c, 7, 60, 78
14, 49244, Note_on_c, 7, 60, 0
14, 49248, Note_on_c, 7, 56, 78
14, 49248, Note_on_c, 7, 65, 78
14, 49288, Note_on_c, 7, 65, 0
14, 49288, Note_on_c, 7, 56, 0
14, 49296, Note_on_c, 7, 67, 78
14, 49296, Note_on_c, 7, 60, 78
14, 49336, Note_on_c, 7, 60, 0
14, 49336, Note_on_c, 7, 67, 0
14, 49344, Note_on_c, 7, 56, 78
14, 49344, Note_on_c, 7, 65, 78
14, 49384, Note_on_c, 7, 65, 0
14, 49384, Note_on_c, 7, 56, 0
14, 49392, Note_on_c, 7, 60, 78
14, 49392, Note_on_c, 7, 55, 78
14, 49432, Note_on_c, 7, 55, 0
14, 49432, Note_on_c, 7, 60, 0
14, 49440, Note_on_c, 7, 53, 78
14, 49480, Note_on_c, 7, 53, 0
14, 49488, Note_on_c, 7, 55, 78
14, 49488, Note_on_c, 7, 60, 78
14, 49528, Note_on_c, 7, 60, 0
14, 49528, Note_on_c, 7, 55, 0
14, 49536, Note_on_c, 7, 56, 78
14, 49536, Note_on_c, 7, 65, 78
14, 49576, Note_on_c, 7, 65, 0
14, 49576, Note_on_c, 7, 56, 0
14, 49584, Note_on_c, 7, 60, 78
14, 49584, Note_on_c, 7, 55, 78
14, 49624, Note_on_c, 7, 55, 0
14, 49624, Note_on_c, 7, 60, 0
14, 49632, Note_on_c, 7, 56, 78
14, 49632, Note_on_c, 7, 53, 78
14, 49672, Note_on_c, 7, 53, 0
14, 49672, Note_on_c, 7, 56, 0
14, 49680, Note_on_c, 7, 60, 78
14, 49680, Note_on_c, 7, 55, 78
14, 49720, Note_on_c, 7, 55, 0
14, 49720, Note_on_c, 7, 60, 0
14, 49728, Note_on_c, 7, 56, 78
14, 49728, Note_on_c, 7, 65, 78
14, 49920, Note_on_c, 7, 65, 0
14, 49920, Note_on_c, 7, 56, 0
14, 49968, Note_on_c, 7, 58, 78
14, 49988, Note_on_c, 7, 58, 0
14, 49992, Note_on_c, 7, 58, 78
14, 50012, Note_on_c, 7, 58, 0
14, 50016, Note_on_c, 7, 63, 78
14, 50016, Note_on_c, 7, 55, 78
14, 50056, Note_on_c, 7, 55, 0
14, 50056, Note_on_c, 7, 63, 0
14, 50064, Note_on_c, 7, 58, 78
14, 50064, Note_on_c, 7, 65, 78
14, 50104, Note_on_c, 7, 65, 0
14, 50104, Note_on_c, 7, 58, 0
14, 50112, Note_on_c, 7, 63, 78
14, 50112, Note_on_c, 7, 55, 78
14, 50152, Note_on_c, 7, 55, 0
14, 50152, Note_on_c, 7, 63, 0
14, 50160, Note_on_c, 7, 53, 78
14, 50160, Note_on_c, 7, 58, 78
14, 50200, Note_on_c, 7, 58, 0
14, 50200, Note_on_c, 7, 53, 0
14, 50208, Note_on_c, 7, 51, 78
14, 50208, Note_on_c, 7, 55, 78
14, 50248, Note_on_c, 7, 55, 0
14, 50248, Note_on_c, 7, 51, 0
14, 50256, Note_on_c, 7, 58, 78
14, 50256, Note_on_c, 7, 53, 78
14, 50296, Note_on_c, 7, 53, 0
14, 50296, Note_on_c, 7, 58, 0
14, 50304, Note_on_c, 7, 55, 78
14, 50304, Note_on_c, 7, 63, 78
14, 50344, Note_on_c, 7, 63, 0
14, 50344, Note_on_c, 7, 55, 0
14, 50352, Note_on_c, 7, 53, 78
14, 50352, Note_on_c, 7, 58, 78
14, 50392, Note_on_c, 7, 58, 0
14, 50392, Note_on_c, 7, 53, 0
14, 50400, Note_on_c, 7, 55, 78
14, 50400, Note_on_c, 7, 51, 78
14, 50440, Note_on_c, 7, 51, 0
14, 50440, Note_on_c, 7, 55, 0
14, 50448, Note_on_c, 7, 53, 78
14, 50448, Note_on_c, 7, 58, 78
14, 50488, Note_on_c, 7, 58, 0
14, 50488, Note_on_c, 7, 53, 0
14, 50496, Note_on_c, 7, 63, 78
14, 50496, Note_on_c, 7, 55, 78
14, 50688, Note_on_c, 7, 55, 0
14, 50688, Note_on_c, 7, 63, 0
14, 50736, Note_on_c, 7, 58, 78
14, 50756, Note_on_c, 7, 58, 0
14, 50760, Note_on_c, 7, 58, 78
14, 50780, Note_on_c, 7, 58, 0
14, 50784, Note_on_c, 7, 63, 78
14, 50784, Note_on_c, 7, 55, 78
14, 50824, Note_on_c, 7, 55, 0
14, 50824, Note_on_c, 7, 63, 0
14, 50832, Note_on_c, 7, 58, 78
14, 50832, Note_on_c, 7, 65, 78
14, 50872, Note_on_c, 7, 65, 0
14, 50872, Note_on_c, 7, 58, 0
14, 50880, Note_on_c, 7, 63, 78
14, 50880, Note_on_c, 7, 67, 78
14, 50920, Note_on_c, 7, 67, 0
14, 50920, Note_on_c, 7, 63, 0
14, 50928, Note_on_c, 7, 65, 78
14, 50928, Note_on_c, 7, 58, 78
14, 50968, Note_on_c, 7, 58, 0
14, 50968, Note_on_c, 7, 65, 0
14, 50976, Note_on_c, 7, 63, 78
14, 50976, Note_on_c, 7, 55, 78
14, 51016, Note_on_c, 7, 55, 0
14, 51016, Note_on_c, 7, 63, 0
14, 51024, Note_on_c, 7, 58, 78
14, 51024, Note_on_c, 7, 65, 78
14, 51064, Note_on_c, 7, 65, 0
14, 51064, Note_on_c, 7, 58, 0
14, 51072, Note_on_c, 7, 67, 78
14, 51072, Note_on_c, 7, 63, 78
14, 51112, Note_on_c, 7, 63, 0
14, 51112, Note_on_c, 7, 67, 0
14, 51168, Note_on_c, 7, 63, 78
14, 51168, Note_on_c, 7, 55, 78
14, 51208, Note_on_c, 7, 55, 0
14, 51208, Note_on_c, 7, 63, 0
14, 51264, Note_on_c, 7, 55, 78
14, 51264, Note_on_c, 7, 63, 78
14, 51456, Note_on_c, 7, 63, 0
14, 51456, Note_on_c, 7, 55, 0
14, 51504, Note_on_c, 7, 58, 78
14, 51524, Note_on_c, 7, 58, 0
14, 51528, Note_on_c, 7, 58, 78
14, 51548, Note_on_c, 7, 58, 0
14, 51552, Note_on_c, 7, 63, 78
14, 51552, Note_on_c, 7, 55, 78
14, 51592, Note_on_c, 7, 55, 0
14, 51592, Note_on_c, 7, 63, 0
14, 51600, Note_on_c, 7, 58, 78
14, 51600, Note_on_c, 7, 65, 78
14, 51640, Note_on_c, 7, 65, 0
14, 51640, Note_on_c, 7, 58, 0
14, 51648, Note_on_c, 7, 63, 78
14, 51648, Note_on_c, 7, 67, 78
14, 51688, Note_on_c, 7, 67, 0
14, 51688, Note_on_c, 7, 63, 0
14, 51696, Note_on_c, 7, 65, 78
14, 51696, Note_on_c, 7, 58, 78
14, 51736, Note_on_c, 7, 58, 0
14, 51736, Note_on_c, 7, 65, 0
14, 51744, Note_on_c, 7, 63, 78
14, 51744, Note_on_c, 7, 55, 78
14, 51784, Note_on_c, 7, 55, 0
14, 51784, Note_on_c, 7, 63, 0
14, 51792, Note_on_c, 7, 58, 78
14, 51792, Note_on_c, 7, 65, 78
14, 51832, Note_on_c, 7, 65, 0
14, 51832, Note_on_c, 7, 58, 0
14, 51840, Note_on_c, 7, 67, 78
14, 51840, Note_on_c, 7, 63, 78
14, 51880, Note_on_c, 7, 63, 0
14, 51880, Note_on_c, 7, 67, 0
14, 51936, Note_on_c, 7, 63, 78
14, 51936, Note_on_c, 7, 55, 78
14, 51976, Note_on_c, 7, 55, 0
14, 51976, Note_on_c, 7, 63, 0
14, 52032, Note_on_c, 7, 55, 78
14, 52032, Note_on_c, 7, 63, 78
14, 52224, Note_on_c, 7, 63, 0
14, 52224, Note_on_c, 7, 55, 0
14, 52224, Note_on_c, 7, 54, 56
14, 52224, Note_on_c, 7, 57, 56
14, 52224, Note_on_c, 7, 34, 56
14, 52224, Note_on_c, 7, 46, 56
14, 52260, Note_on_c, 7, 54, 0
14, 52272, Note_on_c, 7, 57, 78
14, 52296, Note_on_c, 7, 57, 0
14, 52296, Note_on_c, 7, 57, 78
14, 52320, Note_on_c, 7, 57, 0
14, 52320, Note_on_c, 7, 54, 78
14, 52332, Note_on_c, 7, 57, 0
14, 52356, Note_on_c, 7, 54, 0
14, 52368, Note_on_c, 7, 57, 78
14, 52416, Note_on_c, 7, 57, 0
14, 52416, Note_on_c, 7, 57, 66
14, 52800, Note_on_c, 7, 57, 0
14, 52800, Note_on_c, 7, 34, 0
14, 52800, Note_on_c, 7, 46, 0
14, 52800, Note_on_c, 7, 57, 56
14, 52800, Note_on_c, 7, 54, 56
14, 52992, Note_on_c, 7, 54, 0
14, 52992, Note_on_c, 7, 57, 0
14, 52992, Note_on_c, 7, 46, 56
14, 52992, Note_on_c, 7, 57, 56
14, 52992, Note_on_c, 7, 34, 56
14, 52992, Note_on_c, 7, 54, 56
14, 53028, Note_on_c, 7, 54, 0
14, 53028, Note_on_c, 7, 57, 0
14, 53040, Note_on_c, 7, 57, 78
14, 53064, Note_on_c, 7, 57, 78
14, 53088, Note_on_c, 7, 57, 0
14, 53088, Note_on_c, 7, 54, 78
14, 53100, Note_on_c, 7, 57, 0
14, 53124, Note_on_c, 7, 54, 0
14, 53136, Note_on_c, 7, 57, 78
14, 53184, Note_on_c, 7, 57, 0
14, 53184, Note_on_c, 7, 57, 66
14, 53568, Note_on_c, 7, 57, 0
14, 53568, Note_on_c, 7, 34, 0
14, 53568, Note_on_c, 7, 46, 0
14, 53568, Note_on_c, 7, 57, 56
14, 53568, Note_on_c, 7, 54, 56
14, 53760, Note_on_c, 7, 54, 0
14, 53760, Note_on_c, 7, 57, 0
14, 53760, Note_on_c, 7, 34, 56
14, 53760, Note_on_c, 7, 46, 56
14, 53760, Note_on_c, 7, 54, 56
14, 53760, Note_on_c, 7, 57, 56
14, 53796, Note_on_c, 7, 57, 0
14, 53796, Note_on_c, 7, 54, 0
14, 53808, Note_on_c, 7, 57, 78
14, 53832, Note_on_c, 7, 57, 78
14, 53856, Note_on_c, 7, 57, 0
14, 53856, Note_on_c, 7, 54, 78
14, 53868, Note_on_c, 7, 57, 0
14, 53892, Note_on_c, 7, 54, 0
14, 53904, Note_on_c, 7, 57, 78
14, 53952, Note_on_c, 7, 57, 0
14, 53952, Note_on_c, 7, 57, 66
14, 54336, Note_on_c, 7, 57, 0
14, 54336, Note_on_c, 7, 46, 0
14, 54336, Note_on_c, 7, 34, 0
14, 54336, Note_on_c, 7, 57, 56
14, 54336, Note_on_c, 7, 54, 56
14, 54528, Note_on_c, 7, 54, 0
14, 54528, Note_on_c, 7, 57, 0
14, 54528, Note_on_c, 7, 54, 56
14, 54528, Note_on_c, 7, 57, 56
14, 54528, Note_on_c, 7, 34, 56
14, 54528, Note_on_c, 7, 46, 56
14, 54564, Note_on_c, 7, 57, 0
14, 54564, Note_on_c, 7, 54, 0
14, 54576, Note_on_c, 7, 57, 78
14, 54600, Note_on_c, 7, 57, 78
14, 54624, Note_on_c, 7, 57, 0
14, 54624, Note_on_c, 7, 54, 78
14, 54636, Note_on_c, 7, 57, 0
14, 54660, Note_on_c, 7, 54, 0
14, 54672, Note_on_c, 7, 57, 78
14, 54720, Note_on_c, 7, 57, 0
14, 54720, Note_on_c, 7, 57, 66
14, 55104, Note_on_c, 7, 57, 0
14, 55104, Note_on_c, 7, 34, 0
14, 55104, Note_on_c, 7, 46, 0
14, 55104, Note_on_c, 7, 54, 56
14, 55104, Note_on_c, 7, 57, 56
14, 55296, Note_on_c, 7, 57, 0
14, 55296, Note_on_c, 7, 54, 0
14, 69792, Note_on_c, 7, 63, 78
14, 69792, Note_on_c, 7, 58, 78
14, 69888, Note_on_c, 7, 58, 0
14, 69888, Note_on_c, 7, 63, 0
14, 69888, Note_on_c, 7, 62, 78
14, 69888, Note_on_c, 7, 58, 78
14, 69984, Note_on_c, 7, 58, 0
14, 69984, Note_on_c, 7, 62, 0
14, 69984, Note_on_c, 7, 58, 78
14, 69984, Note_on_c, 7, 63, 78
14, 70080, Note_on_c, 7, 63, 0
14, 70080, Note_on_c, 7, 58, 0
14, 70176, Note_on_c, 7, 64, 78
14, 70176, Note_on_c, 7, 59, 78
14, 70272, Note_on_c, 7, 59, 0
14, 70272, Note_on_c, 7, 64, 0
14, 70272, Note_on_c, 7, 63, 78
14, 70272, Note_on_c, 7, 59, 78
14, 70368, Note_on_c, 7, 59, 0
14, 70368, Note_on_c, 7, 63, 0
14, 70368, Note_on_c, 7, 64, 78
14, 70368, Note_on_c, 7, 59, 78
14, 70464, Note_on_c, 7, 59, 0
14, 70464, Note_on_c, 7, 64, 0
14, 70560, Note_on_c, 7, 60, 78
14, 70560, Note_on_c, 7, 65, 78
14, 70656, Note_on_c, 7, 65, 0
14, 70656, Note_on_c, 7, 60, 0
14, 70656, Note_on_c, 7, 64, 78
14, 70656, Note_on_c, 7, 60, 78
14, 70752, Note_on_c, 7, 60, 0
14, 70752, Note_on_c, 7, 64, 0
14, 70752, Note_on_c, 7, 65, 78
14, 70752, Note_on_c, 7, 60, 78
14, 70848, Note_on_c, 7, 60, 0
14, 70848, Note_on_c, 7, 65, 0
14, 70944, Note_on_c, 7, 66, 78
14, 70944, Note_on_c, 7, 61, 78
14, 71040, Note_on_c, 7, 61, 0
14, 71040, Note_on_c, 7, 66, 0
14, 71040, Note_on_c, 7, 65, 78
14, 71040, Note_on_c, 7, 61, 78
14, 71136, Note_on_c, 7, 61, 0
14, 71136, Note_on_c, 7, 65, 0
14, 71136, Note_on_c, 7, 61, 78
14, 71136, Note_on_c, 7, 66, 78
14, 71232, Note_on_c, 7, 66, 0
14, 71232, Note_on_c, 7, 61, 0
14, 71328, Note_on_c, 7, 67, 78
14, 71328, Note_on_c, 7, 62, 78
14, 71424, Note_on_c, 7, 62, 0
14, 71424, Note_on_c, 7, 67, 0
14, 71424, Note_on_c, 7, 62, 78
14, 71424, Note_on_c, 7, 66, 78
14, 71520, Note_on_c, 7, 66, 0
14, 71520, Note_on_c, 7, 62, 0
14, 71520, Note_on_c, 7, 62, 78
14, 71520, Note_on_c, 7, 67, 78
14, 71520, Note_on_c, 7, 46, 77
14, 71616, Note_on_c, 7, 46, 0
14, 71616, Note_on_c, 7, 67, 0
14, 71616, Note_on_c, 7, 62, 0
14, 71616, Note_on_c, 7, 47, 77
14, 71712, Note_on_c, 7, 47, 0
14, 71712, Note_on_c, 7, 68, 78
14, 71712, Note_on_c, 7, 63, 78
14, 71712, Note_on_c, 7, 47, 77
14, 71808, Note_on_c, 7, 47, 0
14, 71808, Note_on_c, 7, 41, 77
14, 71904, Note_on_c, 7, 41, 0
14, 71904, Note_on_c, 7, 63, 0
14, 71904, Note_on_c, 7, 68, 0
14, 71904, Note_on_c, 7, 63, 78
14, 71904, Note_on_c, 7, 69, 78
14, 71904, Note_on_c, 7, 42, 77
14, 72000, Note_on_c, 7, 42, 0
14, 72000, Note_on_c, 7, 36, 77
14, 72000, Note_on_c, 7, 48, 77
14, 72096, Note_on_c, 7, 48, 0
14, 72096, Note_on_c, 7, 63, 0
14, 72096, Note_on_c, 7, 69, 0
14, 72096, Note_on_c, 7, 36, 0
14, 72096, Note_on_c, 7, 65, 78
14, 72096, Note_on_c, 7, 70, 78
14, 72096, Note_on_c, 7, 49, 77
14, 72096, Note_on_c, 7, 37, 77
14, 72192, Note_on_c, 7, 37, 0
14, 72192, Note_on_c, 7, 65, 0
14, 72192, Note_on_c, 7, 70, 0
14, 72192, Note_on_c, 7, 49, 0
14, 72192, Note_on_c, 7, 65, 78
14, 72192, Note_on_c, 7, 69, 78
14, 72288, Note_on_c, 7, 69, 0
14, 72288, Note_on_c, 7, 65, 0
14, 72288, Note_on_c, 7, 65, 78
14, 72288, Note_on_c, 7, 70, 78
14, 72288, Note_on_c, 7, 49, 77
14, 72384, Note_on_c, 7, 49, 0
14, 72384, Note_on_c, 7, 70, 0
14, 72384, Note_on_c, 7, 65, 0
14, 72384, Note_on_c, 7, 50, 77
14, 72480, Note_on_c, 7, 50, 0
14, 72480, Note_on_c, 7, 59, 78
14, 72480, Note_on_c, 7, 66, 78
14, 72480, Note_on_c, 7, 54, 77
14, 72480, Note_on_c, 7, 51, 77
14, 72576, Note_on_c, 7, 51, 0
14, 72576, Note_on_c, 7, 44, 77
14, 72672, Note_on_c, 7, 44, 0
14, 72672, Note_on_c, 7, 54, 0
14, 72672, Note_on_c, 7, 66, 0
14, 72672, Note_on_c, 7, 59, 0
14, 72672, Note_on_c, 7, 66, 78
14, 72672, Note_on_c, 7, 60, 78
14, 72672, Note_on_c, 7, 45, 77
14, 72672, Note_on_c, 7, 54, 77
14, 72768, Note_on_c, 7, 45, 0
14, 72768, Note_on_c, 7, 38, 77
14, 72768, Note_on_c, 7, 50, 77
14, 72864, Note_on_c, 7, 50, 0
14, 72864, Note_on_c, 7, 66, 0
14, 72864, Note_on_c, 7, 54, 0
14, 72864, Note_on_c, 7, 60, 0
14, 72864, Note_on_c, 7, 38, 0
14, 72864, Note_on_c, 7, 61, 78
14, 72864, Note_on_c, 7, 67, 78
14, 72864, Note_on_c, 7, 55, 77
14, 72864, Note_on_c, 7, 39, 77
14, 72864, Note_on_c, 7, 51, 77
14, 72960, Note_on_c, 7, 51, 0
14, 72960, Note_on_c, 7, 55, 0
14, 72960, Note_on_c, 7, 61, 0
14, 72960, Note_on_c, 7, 67, 0
14, 72960, Note_on_c, 7, 39, 0
14, 72960, Note_on_c, 7, 68, 78
14, 72960, Note_on_c, 7, 60, 78
14, 72960, Note_on_c, 7, 56, 77
14, 73056, Note_on_c, 7, 56, 0
14, 73056, Note_on_c, 7, 60, 0
14, 73056, Note_on_c, 7, 68, 0
14, 73056, Note_on_c, 7, 67, 78
14, 73056, Note_on_c, 7, 61, 78
14, 73056, Note_on_c, 7, 39, 77
14, 73056, Note_on_c, 7, 51, 77
14, 73056, Note_on_c, 7, 55, 77
14, 73152, Note_on_c, 7, 55, 0
14, 73152, Note_on_c, 7, 39, 0
14, 73152, Note_on_c, 7, 67, 0
14, 73152, Note_on_c, 7, 61, 0
14, 73152, Note_on_c, 7, 51, 0
14, 73152, Note_on_c, 7, 52, 77
14, 73152, Note_on_c, 7, 40, 77
14, 73248, Note_on_c, 7, 40, 0
14, 73248, Note_on_c, 7, 52, 0
14, 73248, Note_on_c, 7, 68, 78
14, 73248, Note_on_c, 7, 62, 78
14, 73248, Note_on_c, 7, 56, 77
14, 73248, Note_on_c, 7, 42, 77
14, 73248, Note_on_c, 7, 53, 77
14, 73344, Note_on_c, 7, 53, 0
14, 73344, Note_on_c, 7, 56, 0
14, 73344, Note_on_c, 7, 68, 0
14, 73344, Note_on_c, 7, 62, 0
14, 73344, Note_on_c, 7, 42, 0
14, 73344, Note_on_c, 7, 69, 78
14, 73344, Note_on_c, 7, 61, 78
14, 73344, Note_on_c, 7, 57, 77
14, 73440, Note_on_c, 7, 57, 0
14, 73440, Note_on_c, 7, 61, 0
14, 73440, Note_on_c, 7, 69, 0
14, 73440, Note_on_c, 7, 68, 78
14, 73440, Note_on_c, 7, 62, 78
14, 73440, Note_on_c, 7, 39, 77
14, 73440, Note_on_c, 7, 51, 77
14, 73440, Note_on_c, 7, 56, 77
14, 73536, Note_on_c, 7, 56, 0
14, 73536, Note_on_c, 7, 39, 0
14, 73536, Note_on_c, 7, 68, 0
14, 73536, Note_on_c, 7, 62, 0
14, 73536, Note_on_c, 7, 51, 0
14, 73536, Note_on_c, 7, 53, 77
14, 73536, Note_on_c, 7, 41, 77
14, 73632, Note_on_c, 7, 41, 0
14, 73632, Note_on_c, 7, 53, 0
14, 73632, Note_on_c, 7, 63, 78
14, 73632, Note_on_c, 7, 69, 78
14, 73632, Note_on_c, 7, 57, 77
14, 73632, Note_on_c, 7, 42, 77
14, 73632, Note_on_c, 7, 54, 77
14, 73728, Note_on_c, 7, 54, 0
14, 73728, Note_on_c, 7, 57, 0
14, 73728, Note_on_c, 7, 63, 0
14, 73728, Note_on_c, 7, 69, 0
14, 73728, Note_on_c, 7, 42, 0
14, 73728, Note_on_c, 7, 62, 78
14, 73728, Note_on_c, 7, 70, 78
14, 73728, Note_on_c, 7, 58, 77
14, 73824, Note_on_c, 7, 58, 0
14, 73824, Note_on_c, 7, 70, 0
14, 73824, Note_on_c, 7, 62, 0
14, 73824, Note_on_c, 7, 69, 78
14, 73824, Note_on_c, 7, 63, 78
14, 73824, Note_on_c, 7, 41, 77
14, 73824, Note_on_c, 7, 53, 77
14, 73824, Note_on_c, 7, 57, 77
14, 73920, Note_on_c, 7, 57, 0
14, 73920, Note_on_c, 7, 41, 0
14, 73920, Note_on_c, 7, 69, 0
14, 73920, Note_on_c, 7, 63, 0
14, 73920, Note_on_c, 7, 53, 0
14, 73920, Note_on_c, 7, 54, 77
14, 73920, Note_on_c, 7, 42, 77
14, 74016, Note_on_c, 7, 42, 0
14, 74016, Note_on_c, 7, 54, 0
14, 74016, Note_on_c, 7, 64, 78
14, 74016, Note_on_c, 7, 70, 78
14, 74016, Note_on_c, 7, 58, 77
14, 74016, Note_on_c, 7, 43, 77
14, 74016, Note_on_c, 7, 55, 77
14, 74112, Note_on_c, 7, 55, 0
14, 74112, Note_on_c, 7, 58, 0
14, 74112, Note_on_c, 7, 64, 0
14, 74112, Note_on_c, 7, 70, 0
14, 74112, Note_on_c, 7, 43, 0
14, 74112, Note_on_c, 7, 71, 78
14, 74112, Note_on_c, 7, 65, 78
14, 74112, Note_on_c, 7, 59, 77
14, 74208, Note_on_c, 7, 59, 0
14, 74208, Note_on_c, 7, 65, 0
14, 74208, Note_on_c, 7, 71, 0
14, 74208, Note_on_c, 7, 65, 78
14, 74208, Note_on_c, 7, 71, 78
14, 74208, Note_on_c, 7, 42, 95
14, 74208, Note_on_c, 7, 54, 95
14, 74208, Note_on_c, 7, 59, 77
14, 74304, Note_on_c, 7, 54, 0
14, 74304, Note_on_c, 7, 42, 0
14, 74304, Note_on_c, 7, 44, 95
14, 74304, Note_on_c, 7, 56, 95
14, 74400, Note_on_c, 7, 56, 0
14, 74400, Note_on_c, 7, 65, 0
14, 74400, Note_on_c, 7, 59, 0
14, 74400, Note_on_c, 7, 71, 0
14, 74400, Note_on_c, 7, 44, 0
14, 74400, Note_on_c, 7, 65, 78
14, 74400, Note_on_c, 7, 71, 78
14, 74400, Note_on_c, 7, 65, 77
14, 74400, Note_on_c, 7, 57, 95
14, 74400, Note_on_c, 7, 59, 77
14, 74400, Note_on_c, 7, 45, 95
14, 74496, Note_on_c, 7, 45, 0
14, 74496, Note_on_c, 7, 71, 0
14, 74496, Note_on_c, 7, 65, 0
14, 74496, Note_on_c, 7, 65, 0
14, 74496, Note_on_c, 7, 59, 0
14, 74496, Note_on_c, 7, 57, 0
14, 74496, Note_on_c, 7, 70, 78
14, 74496, Note_on_c, 7, 66, 78
14, 74496, Note_on_c, 7, 66, 77
14, 74496, Note_on_c, 7, 58, 77
14, 74592, Note_on_c, 7, 58, 0
14, 74592, Note_on_c, 7, 70, 0
14, 74592, Note_on_c, 7, 66, 0
14, 74592, Note_on_c, 7, 66, 0
14, 74688, Note_on_c, 7, 70, 78
14, 74688, Note_on_c, 7, 66, 78
14, 74688, Note_on_c, 7, 66, 95
14, 74688, Note_on_c, 7, 58, 95
14, 74880, Note_on_c, 7, 58, 0
14, 74880, Note_on_c, 7, 70, 0
14, 74880, Note_on_c, 7, 66, 0
14, 74880, Note_on_c, 7, 66, 0
14, 75072, Note_on_c, 7, 63, 78
14, 75072, Note_on_c, 7, 66, 78
14, 75072, Note_on_c, 7, 51, 95
14, 75072, Note_on_c, 7, 34, 95
14, 75072, Note_on_c, 7, 54, 95
14, 75072, Note_on_c, 7, 46, 95
14, 75168, Note_on_c, 7, 46, 0
14, 75168, Note_on_c, 7, 66, 0
14, 75168, Note_on_c, 7, 51, 0
14, 75168, Note_on_c, 7, 63, 0
14, 75168, Note_on_c, 7, 54, 0
14, 75168, Note_on_c, 7, 34, 0
14, 75264, Note_on_c, 7, 66, 78
14, 75264, Note_on_c, 7, 63, 78
14, 75264, Note_on_c, 7, 34, 95
14, 75264, Note_on_c, 7, 46, 95
14, 75264, Note_on_c, 7, 51, 95
14, 75264, Note_on_c, 7, 54, 95
14, 75360, Note_on_c, 7, 54, 0
14, 75360, Note_on_c, 7, 63, 0
14, 75360, Note_on_c, 7, 34, 0
14, 75360, Note_on_c, 7, 66, 0
14, 75360, Note_on_c, 7, 51, 0
14, 75360, Note_on_c, 7, 46, 0
14, 75456, Note_on_c, 7, 63, 78
14, 75456, Note_on_c, 7, 66, 78
14, 75456, Note_on_c, 7, 34, 95
14, 75456, Note_on_c, 7, 51, 95
14, 75456, Note_on_c, 7, 46, 95
14, 75456, Note_on_c, 7, 54, 95
14, 75552, Note_on_c, 7, 54, 0
14, 75552, Note_on_c, 7, 66, 0
14, 75552, Note_on_c, 7, 34, 0
14, 75552, Note_on_c, 7, 63, 0
14, 75552, Note_on_c, 7, 46, 0
14, 75552, Note_on_c, 7, 51, 0
14, 75648, Note_on_c, 7, 56, 78
14, 75648, Note_on_c, 7, 53, 78
14, 75648, Note_on_c, 7, 62, 78
14, 75648, Note_on_c, 7, 53, 95
14, 75648, Note_on_c, 7, 46, 95
14, 75648, Note_on_c, 7, 56, 95
14, 75648, Note_on_c, 7, 34, 95
14, 76032, Note_on_c, 7, 34, 0
14, 76032, Note_on_c, 7, 46, 0
14, 76032, Note_on_c, 7, 53, 0
14, 76032, Note_on_c, 7, 62, 0
14, 76032, Note_on_c, 7, 56, 0
14, 76032, Note_on_c, 7, 56, 0
14, 76032, Note_on_c, 7, 53, 0
14, 76032, Note_on_c, 7, 54, 78
14, 76032, Note_on_c, 7, 63, 78
14, 76032, Note_on_c, 7, 58, 78
14, 76032, Note_on_c, 7, 51, 95
14, 76032, Note_on_c, 7, 39, 95
14, 76032, Note_on_c, 7, 58, 95
14, 76032, Note_on_c, 7, 54, 95
14, 76128, Note_on_c, 7, 54, 0
14, 76128, Note_on_c, 7, 39, 0
14, 76128, Note_on_c, 7, 63, 0
14, 76128, Note_on_c, 7, 58, 0
14, 76128, Note_on_c, 7, 54, 0
14, 76128, Note_on_c, 7, 58, 0
14, 76128, Note_on_c, 7, 51, 0
14, 76512, Note_on_c, 7, 58, 78
14, 76560, Note_on_c, 7, 58, 0
14, 76560, Note_on_c, 7, 58, 78
14, 76608, Note_on_c, 7, 58, 0
14, 76608, Note_on_c, 7, 58, 78
14, 76704, Note_on_c, 7, 58, 0
14, 76704, Note_on_c, 7, 58, 78
14, 76800, Note_on_c, 7, 58, 0
14, 76800, Note_on_c, 7, 63, 78
14, 76992, Note_on_c, 7, 63, 0
14, 76992, Note_on_c, 7, 63, 78
14, 77184, Note_on_c, 7, 63, 0
14, 77184, Note_on_c, 7, 65, 78
14, 77376, Note_on_c, 7, 65, 0
14, 77376, Note_on_c, 7, 65, 78
14, 77568, Note_on_c, 7, 65, 0
14, 77568, Note_on_c, 7, 66, 78
14, 78048, Note_on_c, 7, 66, 0
14, 78048, Note_on_c, 7, 61, 78
14, 78096, Note_on_c, 7, 61, 0
14, 78096, Note_on_c, 7, 61, 78
14, 78144, Note_on_c, 7, 61, 0
14, 78144, Note_on_c, 7, 61, 78
14, 78240, Note_on_c, 7, 61, 0
14, 78240, Note_on_c, 7, 61, 78
14, 78336, Note_on_c, 7, 61, 0
14, 78336, Note_on_c, 7, 66, 78
14, 78528, Note_on_c, 7, 66, 0
14, 78528, Note_on_c, 7, 66, 78
14, 78720, Note_on_c, 7, 66, 0
14, 78720, Note_on_c, 7, 69, 78
14, 78912, Note_on_c, 7, 69, 0
14, 78912, Note_on_c, 7, 69, 78
14, 79104, Note_on_c, 7, 69, 0
14, 79104, Note_on_c, 7, 70, 78
14, 79584, Note_on_c, 7, 70, 0
14, 79584, Note_on_c, 7, 65, 85
14, 79632, Note_on_c, 7, 65, 0
14, 79632, Note_on_c, 7, 65, 85
14, 79680, Note_on_c, 7, 65, 0
14, 79680, Note_on_c, 7, 65, 85
14, 79776, Note_on_c, 7, 65, 0
14, 79776, Note_on_c, 7, 65, 85
14, 79872, Note_on_c, 7, 65, 0
14, 79872, Note_on_c, 7, 70, 85
14, 80064, Note_on_c, 7, 70, 0
14, 80064, Note_on_c, 7, 70, 87
14, 80256, Note_on_c, 7, 70, 0
14, 80256, Note_on_c, 7, 72, 87
14, 80448, Note_on_c, 7, 72, 0
14, 80448, Note_on_c, 7, 72, 87
14, 80640, Note_on_c, 7, 72, 0
14, 80640, Note_on_c, 7, 77, 87
14, 80928, Note_on_c, 7, 77, 0
14, 80928, Note_on_c, 7, 74, 87
14, 81024, Note_on_c, 7, 74, 0
14, 81024, Note_on_c, 7, 70, 87
14, 81120, Note_on_c, 7, 70, 0
14, 81120, Note_on_c, 7, 70, 85
14, 81216, Note_on_c, 7, 70, 0
14, 81216, Note_on_c, 7, 74, 85
14, 81312, Note_on_c, 7, 74, 0
14, 81312, Note_on_c, 7, 70, 85
14, 81408, Note_on_c, 7, 70, 0
14, 81408, Note_on_c, 7, 67, 85
14, 81600, Note_on_c, 7, 67, 0
14, 81600, Note_on_c, 7, 75, 85
14, 81792, Note_on_c, 7, 75, 0
14, 81792, Note_on_c, 7, 74, 85
14, 81984, Note_on_c, 7, 74, 0
14, 81984, Note_on_c, 7, 72, 87
14, 82176, Note_on_c, 7, 72, 0
14, 82176, Note_on_c, 7, 70, 87
14, 82464, Note_on_c, 7, 70, 0
14, 82656, Note_on_c, 7, 53, 78
14, 82704, Note_on_c, 7, 53, 0
14, 82704, Note_on_c, 7, 53, 78
14, 82752, Note_on_c, 7, 53, 0
14, 82752, Note_on_c, 7, 53, 78
14, 82848, Note_on_c, 7, 53, 0
14, 82848, Note_on_c, 7, 53, 78
14, 82944, Note_on_c, 7, 53, 0
14, 82944, Note_on_c, 7, 58, 78
14, 83136, Note_on_c, 7, 58, 0
14, 83136, Note_on_c, 7, 58, 78
14, 83328, Note_on_c, 7, 58, 0
14, 83328, Note_on_c, 7, 61, 78
14, 83520, Note_on_c, 7, 61, 0
14, 83520, Note_on_c, 7, 61, 78
14, 83712, Note_on_c, 7, 61, 0
14, 83712, Note_on_c, 7, 62, 78
14, 84096, Note_on_c, 7, 62, 0
14, 84192, Note_on_c, 7, 57, 78
14, 84240, Note_on_c, 7, 57, 0
14, 84240, Note_on_c, 7, 57, 78
14, 84288, Note_on_c, 7, 57, 0
14, 84288, Note_on_c, 7, 57, 78
14, 84384, Note_on_c, 7, 57, 0
14, 84384, Note_on_c, 7, 57, 78
14, 84480, Note_on_c, 7, 57, 0
14, 84480, Note_on_c, 7, 62, 78
14, 84672, Note_on_c, 7, 62, 0
14, 84672, Note_on_c, 7, 62, 78
14, 84864, Note_on_c, 7, 62, 0
14, 84864, Note_on_c, 7, 64, 78
14, 85056, Note_on_c, 7, 64, 0
14, 85056, Note_on_c, 7, 64, 78
14, 85248, Note_on_c, 7, 64, 0
14, 85248, Note_on_c, 7, 65, 78
14, 85728, Note_on_c, 7, 65, 0
14, 90720, Note_on_c, 7, 72, 78
14, 90720, Note_on_c, 7, 66, 78
14, 90720, Note_on_c, 7, 51, 59
14, 90720, Note_on_c, 7, 45, 55
14, 90720, Note_on_c, 7, 54, 53
14, 90912, Note_on_c, 7, 54, 0
14, 90912, Note_on_c, 7, 51, 0
14, 90912, Note_on_c, 7, 72, 0
14, 90912, Note_on_c, 7, 66, 0
14, 90912, Note_on_c, 7, 45, 0
14, 91104, Note_on_c, 7, 54, 78
14, 91104, Note_on_c, 7, 69, 78
14, 91104, Note_on_c, 7, 57, 65
14, 91104, Note_on_c, 7, 48, 63
14, 91104, Note_on_c, 7, 63, 59
14, 91296, Note_on_c, 7, 63, 0
14, 91296, Note_on_c, 7, 57, 0
14, 91296, Note_on_c, 7, 54, 0
14, 91296, Note_on_c, 7, 69, 0
14, 91296, Note_on_c, 7, 48, 0
14, 91584, Note_on_c, 7, 57, 78
14, 91584, Note_on_c, 7, 72, 78
14, 91584, Note_on_c, 7, 66, 95
14, 91584, Note_on_c, 7, 51, 95
14, 91584, Note_on_c, 7, 60, 95
14, 91680, Note_on_c, 7, 60, 0
14, 91680, Note_on_c, 7, 66, 0
14, 91680, Note_on_c, 7, 57, 0
14, 91680, Note_on_c, 7, 72, 0
14, 91680, Note_on_c, 7, 51, 0
14, 91968, Note_on_c, 7, 57, 78
14, 91968, Note_on_c, 7, 72, 78
14, 91968, Note_on_c, 7, 60, 95
14, 91968, Note_on_c, 7, 52, 95
14, 91968, Note_on_c, 7, 66, 95
14, 92064, Note_on_c, 7, 66, 0
14, 92064, Note_on_c, 7, 60, 0
14, 92064, Note_on_c, 7, 57, 0
14, 92064, Note_on_c, 7, 72, 0
14, 92064, Note_on_c, 7, 52, 0
14, 92160, Note_on_c, 7, 57, 78
14, 92160, Note_on_c, 7, 72, 78
14, 92160, Note_on_c, 7, 66, 95
14, 92160, Note_on_c, 7, 51, 95
14, 92160, Note_on_c, 7, 60, 95
14, 92256, Note_on_c, 7, 60, 0
14, 92256, Note_on_c, 7, 66, 0
14, 92256, Note_on_c, 7, 57, 0
14, 92256, Note_on_c, 7, 72, 0
14, 92256, Note_on_c, 7, 51, 0
14, 92352, Note_on_c, 7, 57, 78
14, 92352, Note_on_c, 7, 63, 78
14, 92352, Note_on_c, 7, 48, 78
14, 92352, Note_on_c, 7, 54, 78
14, 92352, Note_on_c, 7, 57, 95
14, 92352, Note_on_c, 7, 36, 95
14, 92352, Note_on_c, 7, 54, 95
14, 92352, Note_on_c, 7, 48, 95
14, 92448, Note_on_c, 7, 48, 0
14, 92448, Note_on_c, 7, 57, 0
14, 92448, Note_on_c, 7, 57, 0
14, 92448, Note_on_c, 7, 63, 0
14, 92448, Note_on_c, 7, 48, 0
14, 92448, Note_on_c, 7, 54, 0
14, 92448, Note_on_c, 7, 36, 0
14, 92448, Note_on_c, 7, 54, 0
14, 92544, Note_on_c, 7, 57, 78
14, 92544, Note_on_c, 7, 48, 78
14, 92544, Note_on_c, 7, 63, 78
14, 92544, Note_on_c, 7, 54, 78
14, 92544, Note_on_c, 7, 36, 95
14, 92544, Note_on_c, 7, 48, 95
14, 92544, Note_on_c, 7, 57, 95
14, 92544, Note_on_c, 7, 54, 95
14, 92640, Note_on_c, 7, 54, 0
14, 92640, Note_on_c, 7, 57, 0
14, 92640, Note_on_c, 7, 36, 0
14, 92640, Note_on_c, 7, 48, 0
14, 92640, Note_on_c, 7, 63, 0
14, 92640, Note_on_c, 7, 54, 0
14, 92640, Note_on_c, 7, 48, 0
14, 92640, Note_on_c, 7, 57, 0
14, 92736, Note_on_c, 7, 57, 78
14, 92736, Note_on_c, 7, 48, 78
14, 92736, Note_on_c, 7, 63, 78
14, 92736, Note_on_c, 7, 54, 78
14, 92736, Note_on_c, 7, 48, 95
14, 92736, Note_on_c, 7, 54, 95
14, 92736, Note_on_c, 7, 36, 95
14, 92736, Note_on_c, 7, 57, 95
14, 92832, Note_on_c, 7, 57, 0
14, 92832, Note_on_c, 7, 57, 0
14, 92832, Note_on_c, 7, 48, 0
14, 92832, Note_on_c, 7, 48, 0
14, 92832, Note_on_c, 7, 63, 0
14, 92832, Note_on_c, 7, 54, 0
14, 92832, Note_on_c, 7, 54, 0
14, 92832, Note_on_c, 7, 36, 0
14, 92928, Note_on_c, 7, 63, 78
14, 92928, Note_on_c, 7, 57, 78
14, 92928, Note_on_c, 7, 54, 78
14, 92928, Note_on_c, 7, 48, 78
14, 92928, Note_on_c, 7, 36, 95
14, 92928, Note_on_c, 7, 57, 95
14, 92928, Note_on_c, 7, 48, 95
14, 92928, Note_on_c, 7, 54, 95
14, 93024, Note_on_c, 7, 54, 0
14, 93024, Note_on_c, 7, 63, 0
14, 93024, Note_on_c, 7, 36, 0
14, 93024, Note_on_c, 7, 57, 0
14, 93024, Note_on_c, 7, 54, 0
14, 93024, Note_on_c, 7, 48, 0
14, 93024, Note_on_c, 7, 57, 0
14, 93024, Note_on_c, 7, 48, 0
14, 93216, Note_on_c, 7, 63, 78
14, 93216, Note_on_c, 7, 57, 78
14, 93216, Note_on_c, 7, 54, 78
14, 93216, Note_on_c, 7, 48, 78
14, 93216, Note_on_c, 7, 54, 95
14, 93216, Note_on_c, 7, 48, 95
14, 93216, Note_on_c, 7, 57, 95
14, 93216, Note_on_c, 7, 36, 95
14, 93312, Note_on_c, 7, 36, 0
14, 93312, Note_on_c, 7, 63, 0
14, 93312, Note_on_c, 7, 54, 0
14, 93312, Note_on_c, 7, 57, 0
14, 93312, Note_on_c, 7, 54, 0
14, 93312, Note_on_c, 7, 48, 0
14, 93312, Note_on_c, 7, 48, 0
14, 93312, Note_on_c, 7, 57, 0
14, 93312, Note_on_c, 7, 47, 78
14, 93312, Note_on_c, 7, 57, 78
14, 93312, Note_on_c, 7, 54, 78
14, 93312, Note_on_c, 7, 63, 78
14, 93312, Note_on_c, 7, 57, 95
14, 93312, Note_on_c, 7, 54, 95
14, 93312, Note_on_c, 7, 47, 95
14, 93312, Note_on_c, 7, 35, 95
14, 93408, Note_on_c, 7, 35, 0
14, 93408, Note_on_c, 7, 47, 0
14, 93408, Note_on_c, 7, 57, 0
14, 93408, Note_on_c, 7, 57, 0
14, 93408, Note_on_c, 7, 54, 0
14, 93408, Note_on_c, 7, 63, 0
14, 93408, Note_on_c, 7, 54, 0
14, 93408, Note_on_c, 7, 47, 0
14, 93600, Note_on_c, 7, 63, 78
14, 93600, Note_on_c, 7, 47, 78
14, 93600, Note_on_c, 7, 57, 78
14, 93600, Note_on_c, 7, 54, 78
14, 93600, Note_on_c, 7, 54, 95
14, 93600, Note_on_c, 7, 57, 95
14, 93600, Note_on_c, 7, 35, 95
14, 93600, Note_on_c, 7, 47, 95
14, 93696, Note_on_c, 7, 47, 0
14, 93696, Note_on_c, 7, 63, 0
14, 93696, Note_on_c, 7, 54, 0
14, 93696, Note_on_c, 7, 47, 0
14, 93696, Note_on_c, 7, 57, 0
14, 93696, Note_on_c, 7, 54, 0
14, 93696, Note_on_c, 7, 57, 0
14, 93696, Note_on_c, 7, 35, 0
14, 93696, Note_on_c, 7, 63, 78
14, 93696, Note_on_c, 7, 46, 78
14, 93696, Note_on_c, 7, 58, 78
14, 93696, Note_on_c, 7, 54, 78
14, 93696, Note_on_c, 7, 34, 95
14, 93696, Note_on_c, 7, 46, 95
14, 93792, Note_on_c, 7, 46, 0
14, 93792, Note_on_c, 7, 46, 0
14, 93792, Note_on_c, 7, 58, 0
14, 93792, Note_on_c, 7, 63, 0
14, 93792, Note_on_c, 7, 34, 0
14, 93792, Note_on_c, 7, 54, 0
14, 93792, Note_on_c, 7, 46, 78
14, 93792, Note_on_c, 7, 63, 78
14, 93792, Note_on_c, 7, 58, 78
14, 93792, Note_on_c, 7, 54, 78
14, 93792, Note_on_c, 7, 34, 95
14, 93792, Note_on_c, 7, 46, 95
14, 93984, Note_on_c, 7, 46, 0
14, 93984, Note_on_c, 7, 63, 0
14, 93984, Note_on_c, 7, 58, 0
14, 93984, Note_on_c, 7, 46, 0
14, 93984, Note_on_c, 7, 34, 0
14, 93984, Note_on_c, 7, 54, 0
14, 93984, Note_on_c, 7, 63, 78
14, 93984, Note_on_c, 7, 46, 78
14, 93984, Note_on_c, 7, 58, 78
14, 93984, Note_on_c, 7, 54, 78
14, 93984, Note_on_c, 7, 46, 95
14, 93984, Note_on_c, 7, 34, 95
14, 94176, Note_on_c, 7, 34, 0
14, 94176, Note_on_c, 7, 46, 0
14, 94176, Note_on_c, 7, 58, 0
14, 94176, Note_on_c, 7, 63, 0
14, 94176, Note_on_c, 7, 46, 0
14, 94176, Note_on_c, 7, 54, 0
14, 94176, Note_on_c, 7, 46, 78
14, 94176, Note_on_c, 7, 63, 78
14, 94176, Note_on_c, 7, 58, 78
14, 94176, Note_on_c, 7, 54, 78
14, 94176, Note_on_c, 7, 34, 95
14, 94176, Note_on_c, 7, 46, 95
14, 94272, Note_on_c, 7, 46, 0
14, 94272, Note_on_c, 7, 63, 0
14, 94272, Note_on_c, 7, 58, 0
14, 94272, Note_on_c, 7, 46, 0
14, 94272, Note_on_c, 7, 34, 0
14, 94272, Note_on_c, 7, 54, 0
14, 94272, Note_on_c, 7, 45, 78
14, 94272, Note_on_c, 7, 54, 78
14, 94272, Note_on_c, 7, 63, 78
14, 94272, Note_on_c, 7, 59, 78
14, 94272, Note_on_c, 7, 33, 95
14, 94272, Note_on_c, 7, 45, 95
14, 94368, Note_on_c, 7, 45, 0
14, 94368, Note_on_c, 7, 54, 0
14, 94368, Note_on_c, 7, 63, 0
14, 94368, Note_on_c, 7, 45, 0
14, 94368, Note_on_c, 7, 33, 0
14, 94368, Note_on_c, 7, 59, 0
14, 94464, Note_on_c, 7, 53, 95
14, 94464, Note_on_c, 7, 44, 95
14, 94464, Note_on_c, 7, 32, 95
14, 94560, Note_on_c, 7, 32, 0
14, 94560, Note_on_c, 7, 44, 0
14, 94560, Note_on_c, 7, 53, 0
14, 94560, Note_on_c, 7, 56, 95
14, 94560, Note_on_c, 7, 65, 95
14, 94560, Note_on_c, 7, 44, 95
14, 94656, Note_on_c, 7, 44, 0
14, 94656, Note_on_c, 7, 65, 0
14, 94656, Note_on_c, 7, 56, 0
14, 94656, Note_on_c, 7, 44, 78
14, 94656, Note_on_c, 7, 71, 78
14, 94656, Note_on_c, 7, 56, 78
14, 94752, Note_on_c, 7, 56, 0
14, 94752, Note_on_c, 7, 71, 0
14, 94752, Note_on_c, 7, 44, 0
14, 95136, Note_on_c, 7, 65, 78
14, 95136, Note_on_c, 7, 51, 78
14, 95136, Note_on_c, 7, 59, 78
14, 95136, Note_on_c, 7, 57, 78
14, 95136, Note_on_c, 7, 51, 95
14, 95136, Note_on_c, 7, 59, 95
14, 95136, Note_on_c, 7, 56, 95
14, 95232, Note_on_c, 7, 56, 0
14, 95232, Note_on_c, 7, 51, 0
14, 95232, Note_on_c, 7, 51, 0
14, 95232, Note_on_c, 7, 59, 0
14, 95232, Note_on_c, 7, 65, 0
14, 95232, Note_on_c, 7, 59, 0
14, 95232, Note_on_c, 7, 57, 0
14, 95328, Note_on_c, 7, 63, 78
14, 95328, Note_on_c, 7, 68, 78
14, 95328, Note_on_c, 7, 56, 78
14, 95328, Note_on_c, 7, 65, 78
14, 95328, Note_on_c, 7, 53, 95
14, 95328, Note_on_c, 7, 47, 95
14, 95328, Note_on_c, 7, 56, 95
14, 95424, Note_on_c, 7, 56, 0
14, 95424, Note_on_c, 7, 53, 0
14, 95424, Note_on_c, 7, 68, 0
14, 95424, Note_on_c, 7, 56, 0
14, 95424, Note_on_c, 7, 63, 0
14, 95424, Note_on_c, 7, 47, 0
14, 95424, Note_on_c, 7, 65, 0
14, 95520, Note_on_c, 7, 71, 78
14, 95520, Note_on_c, 7, 65, 78
14, 95520, Note_on_c, 7, 63, 78
14, 95520, Note_on_c, 7, 59, 78
14, 95520, Note_on_c, 7, 51, 95
14, 95520, Note_on_c, 7, 53, 95
14, 95520, Note_on_c, 7, 44, 95
14, 95616, Note_on_c, 7, 44, 0
14, 95616, Note_on_c, 7, 51, 0
14, 95616, Note_on_c, 7, 65, 0
14, 95616, Note_on_c, 7, 63, 0
14, 95616, Note_on_c, 7, 71, 0
14, 95616, Note_on_c, 7, 53, 0
14, 95616, Note_on_c, 7, 59, 0
14, 95712, Note_on_c, 7, 56, 78
14, 95712, Note_on_c, 7, 59, 78
14, 95712, Note_on_c, 7, 39, 95
14, 95712, Note_on_c, 7, 56, 95
14, 95712, Note_on_c, 7, 53, 95
14, 95712, Note_on_c, 7, 51, 95
14, 95808, Note_on_c, 7, 51, 0
14, 95808, Note_on_c, 7, 59, 0
14, 95808, Note_on_c, 7, 39, 0
14, 95808, Note_on_c, 7, 56, 0
14, 95808, Note_on_c, 7, 53, 0
14, 95808, Note_on_c, 7, 56, 0
14, 95808, Note_on_c, 7, 58, 78
14, 95808, Note_on_c, 7, 56, 78
14, 95808, Note_on_c, 7, 53, 78
14, 95808, Note_on_c, 7, 50, 78
14, 95808, Note_on_c, 7, 38, 95
14, 95808, Note_on_c, 7, 50, 95
14, 95808, Note_on_c, 7, 56, 95
14, 95808, Note_on_c, 7, 53, 95
14, 95904, Note_on_c, 7, 53, 0
14, 95904, Note_on_c, 7, 58, 0
14, 95904, Note_on_c, 7, 38, 0
14, 95904, Note_on_c, 7, 56, 0
14, 95904, Note_on_c, 7, 53, 0
14, 95904, Note_on_c, 7, 50, 0
14, 95904, Note_on_c, 7, 50, 0
14, 95904, Note_on_c, 7, 56, 0
14, 96096, Note_on_c, 7, 58, 95
14, 96096, Note_on_c, 7, 54, 95
14, 96096, Note_on_c, 7, 42, 95
14, 96192, Note_on_c, 7, 42, 0
14, 96192, Note_on_c, 7, 54, 0
14, 96192, Note_on_c, 7, 58, 0
14, 96192, Note_on_c, 7, 70, 78
14, 96192, Note_on_c, 7, 68, 78
14, 96192, Note_on_c, 7, 58, 78
14, 96192, Note_on_c, 7, 56, 78
14, 96192, Note_on_c, 7, 41, 95
14, 96192, Note_on_c, 7, 56, 95
14, 96192, Note_on_c, 7, 58, 95
14, 96192, Note_on_c, 7, 53, 95
14, 96288, Note_on_c, 7, 53, 0
14, 96288, Note_on_c, 7, 70, 0
14, 96288, Note_on_c, 7, 41, 0
14, 96288, Note_on_c, 7, 68, 0
14, 96288, Note_on_c, 7, 58, 0
14, 96288, Note_on_c, 7, 56, 0
14, 96288, Note_on_c, 7, 56, 0
14, 96288, Note_on_c, 7, 58, 0
14, 96480, Note_on_c, 7, 70, 78
14, 96480, Note_on_c, 7, 58, 78
14, 96480, Note_on_c, 7, 54, 95
14, 96480, Note_on_c, 7, 63, 95
14, 96480, Note_on_c, 7, 39, 95
14, 96480, Note_on_c, 7, 51, 95
14, 96576, Note_on_c, 7, 51, 0
14, 96576, Note_on_c, 7, 58, 0
14, 96576, Note_on_c, 7, 54, 0
14, 96576, Note_on_c, 7, 70, 0
14, 96576, Note_on_c, 7, 39, 0
14, 96576, Note_on_c, 7, 63, 0
14, 96576, Note_on_c, 7, 70, 78
14, 96576, Note_on_c, 7, 58, 78
14, 96576, Note_on_c, 7, 37, 95
14, 96576, Note_on_c, 7, 49, 95
14, 96576, Note_on_c, 7, 63, 95
14, 96576, Note_on_c, 7, 54, 95
14, 96672, Note_on_c, 7, 54, 0
14, 96672, Note_on_c, 7, 58, 0
14, 96672, Note_on_c, 7, 37, 0
14, 96672, Note_on_c, 7, 70, 0
14, 96672, Note_on_c, 7, 63, 0
14, 96672, Note_on_c, 7, 49, 0
14, 96864, Note_on_c, 7, 68, 78
14, 96864, Note_on_c, 7, 56, 78
14, 96864, Note_on_c, 7, 59, 95
14, 96864, Note_on_c, 7, 39, 95
14, 96864, Note_on_c, 7, 51, 95
14, 96864, Note_on_c, 7, 63, 95
14, 96960, Note_on_c, 7, 63, 0
14, 96960, Note_on_c, 7, 56, 0
14, 96960, Note_on_c, 7, 59, 0
14, 96960, Note_on_c, 7, 68, 0
14, 96960, Note_on_c, 7, 51, 0
14, 96960, Note_on_c, 7, 39, 0
14, 96960, Note_on_c, 7, 58, 78
14, 96960, Note_on_c, 7, 70, 78
14, 96960, Note_on_c, 7, 49, 95
14, 96960, Note_on_c, 7, 37, 95
14, 96960, Note_on_c, 7, 61, 95
14, 96960, Note_on_c, 7, 63, 95
14, 97056, Note_on_c, 7, 63, 0
14, 97056, Note_on_c, 7, 70, 0
14, 97056, Note_on_c, 7, 49, 0
14, 97056, Note_on_c, 7, 58, 0
14, 97056, Note_on_c, 7, 61, 0
14, 97056, Note_on_c, 7, 37, 0
14, 97248, Note_on_c, 7, 71, 78
14, 97248, Note_on_c, 7, 69, 78
14, 97248, Note_on_c, 7, 63, 78
14, 97248, Note_on_c, 7, 59, 78
14, 97248, Note_on_c, 7, 59, 95
14, 97248, Note_on_c, 7, 63, 95
14, 97248, Note_on_c, 7, 44, 95
14, 97248, Note_on_c, 7, 32, 95
14, 97344, Note_on_c, 7, 32, 0
14, 97344, Note_on_c, 7, 71, 0
14, 97344, Note_on_c, 7, 59, 0
14, 97344, Note_on_c, 7, 69, 0
14, 97344, Note_on_c, 7, 63, 0
14, 97344, Note_on_c, 7, 59, 0
14, 97344, Note_on_c, 7, 63, 0
14, 97344, Note_on_c, 7, 44, 0
14, 97344, Note_on_c, 7, 66, 78
14, 97344, Note_on_c, 7, 59, 78
14, 97344, Note_on_c, 7, 71, 78
14, 97344, Note_on_c, 7, 63, 78
14, 97344, Note_on_c, 7, 33, 95
14, 97344, Note_on_c, 7, 59, 95
14, 97344, Note_on_c, 7, 63, 95
14, 97344, Note_on_c, 7, 45, 95
14, 97440, Note_on_c, 7, 45, 0
14, 97440, Note_on_c, 7, 66, 0
14, 97440, Note_on_c, 7, 33, 0
14, 97440, Note_on_c, 7, 59, 0
14, 97440, Note_on_c, 7, 71, 0
14, 97440, Note_on_c, 7, 63, 0
14, 97440, Note_on_c, 7, 59, 0
14, 97440, Note_on_c, 7, 63, 0
14, 97632, Note_on_c, 7, 71, 78
14, 97632, Note_on_c, 7, 66, 78
14, 97632, Note_on_c, 7, 63, 78
14, 97632, Note_on_c, 7, 59, 78
14, 97632, Note_on_c, 7, 45, 95
14, 97632, Note_on_c, 7, 63, 95
14, 97632, Note_on_c, 7, 59, 95
14, 97632, Note_on_c, 7, 33, 95
14, 97728, Note_on_c, 7, 33, 0
14, 97728, Note_on_c, 7, 71, 0
14, 97728, Note_on_c, 7, 45, 0
14, 97728, Note_on_c, 7, 66, 0
14, 97728, Note_on_c, 7, 63, 0
14, 97728, Note_on_c, 7, 59, 0
14, 97728, Note_on_c, 7, 63, 0
14, 97728, Note_on_c, 7, 59, 0
14, 97728, Note_on_c, 7, 70, 78
14, 97728, Note_on_c, 7, 58, 78
14, 97728, Note_on_c, 7, 66, 78
14, 97728, Note_on_c, 7, 63, 78
14, 97728, Note_on_c, 7, 58, 95
14, 97728, Note_on_c, 7, 63, 95
14, 97728, Note_on_c, 7, 46, 95
14, 97728, Note_on_c, 7, 34, 95
14, 97824, Note_on_c, 7, 34, 0
14, 97824, Note_on_c, 7, 70, 0
14, 97824, Note_on_c, 7, 58, 0
14, 97824, Note_on_c, 7, 58, 0
14, 97824, Note_on_c, 7, 66, 0
14, 97824, Note_on_c, 7, 63, 0
14, 97824, Note_on_c, 7, 63, 0
14, 97824, Note_on_c, 7, 46, 0
14, 98016, Note_on_c, 7, 70, 78
14, 98016, Note_on_c, 7, 63, 78
14, 98016, Note_on_c, 7, 58, 78
14, 98016, Note_on_c, 7, 66, 78
14, 98016, Note_on_c, 7, 58, 95
14, 98016, Note_on_c, 7, 46, 95
14, 98016, Note_on_c, 7, 63, 95
14, 98016, Note_on_c, 7, 34, 95
14, 98112, Note_on_c, 7, 34, 0
14, 98112, Note_on_c, 7, 70, 0
14, 98112, Note_on_c, 7, 58, 0
14, 98112, Note_on_c, 7, 63, 0
14, 98112, Note_on_c, 7, 58, 0
14, 98112, Note_on_c, 7, 66, 0
14, 98112, Note_on_c, 7, 46, 0
14, 98112, Note_on_c, 7, 63, 0
14, 98112, Note_on_c, 7, 63, 78
14, 98112, Note_on_c, 7, 69, 78
14, 98112, Note_on_c, 7, 57, 78
14, 98112, Note_on_c, 7, 66, 78
14, 98112, Note_on_c, 7, 63, 95
14, 98112, Note_on_c, 7, 35, 95
14, 98112, Note_on_c, 7, 47, 95
14, 98112, Note_on_c, 7, 57, 95
14, 98208, Note_on_c, 7, 57, 0
14, 98208, Note_on_c, 7, 63, 0
14, 98208, Note_on_c, 7, 63, 0
14, 98208, Note_on_c, 7, 69, 0
14, 98208, Note_on_c, 7, 57, 0
14, 98208, Note_on_c, 7, 66, 0
14, 98208, Note_on_c, 7, 35, 0
14, 98208, Note_on_c, 7, 47, 0
14, 98400, Note_on_c, 7, 69, 78
14, 98400, Note_on_c, 7, 66, 78
14, 98400, Note_on_c, 7, 63, 78
14, 98400, Note_on_c, 7, 57, 78
14, 98400, Note_on_c, 7, 63, 95
14, 98400, Note_on_c, 7, 57, 95
14, 98400, Note_on_c, 7, 36, 95
14, 98400, Note_on_c, 7, 48, 95
14, 98592, Note_on_c, 7, 48, 0
14, 98592, Note_on_c, 7, 69, 0
14, 98592, Note_on_c, 7, 63, 0
14, 98592, Note_on_c, 7, 66, 0
14, 98592, Note_on_c, 7, 63, 0
14, 98592, Note_on_c, 7, 57, 0
14, 98592, Note_on_c, 7, 57, 0
14, 98592, Note_on_c, 7, 36, 0
14, 98592, Note_on_c, 7, 69, 78
14, 98592, Note_on_c, 7, 66, 78
14, 98592, Note_on_c, 7, 61, 78
14, 98592, Note_on_c, 7, 57, 78
14, 98592, Note_on_c, 7, 37, 95
14, 98592, Note_on_c, 7, 49, 95
14, 98592, Note_on_c, 7, 57, 95
14, 98592, Note_on_c, 7, 61, 95
14, 98784, Note_on_c, 7, 61, 0
14, 98784, Note_on_c, 7, 69, 0
14, 98784, Note_on_c, 7, 37, 0
14, 98784, Note_on_c, 7, 66, 0
14, 98784, Note_on_c, 7, 61, 0
14, 98784, Note_on_c, 7, 57, 0
14, 98784, Note_on_c, 7, 49, 0
14, 98784, Note_on_c, 7, 57, 0
14, 98784, Note_on_c, 7, 69, 78
14, 98784, Note_on_c, 7, 66, 78
14, 98784, Note_on_c, 7, 59, 78
14, 98784, Note_on_c, 7, 57, 78
14, 98784, Note_on_c, 7, 57, 95
14, 98784, Note_on_c, 7, 59, 95
14, 98784, Note_on_c, 7, 50, 95
14, 98784, Note_on_c, 7, 38, 95
14, 98976, Note_on_c, 7, 38, 0
14, 98976, Note_on_c, 7, 69, 0
14, 98976, Note_on_c, 7, 57, 0
14, 98976, Note_on_c, 7, 66, 0
14, 98976, Note_on_c, 7, 59, 0
14, 98976, Note_on_c, 7, 57, 0
14, 98976, Note_on_c, 7, 59, 0
14, 98976, Note_on_c, 7, 50, 0
14, 98976, Note_on_c, 7, 69, 78
14, 98976, Note_on_c, 7, 66, 78
14, 98976, Note_on_c, 7, 60, 78
14, 98976, Note_on_c, 7, 57, 78
14, 98976, Note_on_c, 7, 60, 95
14, 98976, Note_on_c, 7, 51, 95
14, 98976, Note_on_c, 7, 39, 95
14, 98976, Note_on_c, 7, 57, 95
14, 99072, Note_on_c, 7, 57, 0
14, 99072, Note_on_c, 7, 69, 0
14, 99072, Note_on_c, 7, 60, 0
14, 99072, Note_on_c, 7, 66, 0
14, 99072, Note_on_c, 7, 60, 0
14, 99072, Note_on_c, 7, 57, 0
14, 99072, Note_on_c, 7, 51, 0
14, 99072, Note_on_c, 7, 39, 0
14, 99072, Note_on_c, 7, 69, 78
14, 99072, Note_on_c, 7, 67, 78
14, 99072, Note_on_c, 7, 61, 78
14, 99072, Note_on_c, 7, 57, 78
14, 99072, Note_on_c, 7, 40, 95
14, 99072, Note_on_c, 7, 57, 95
14, 99072, Note_on_c, 7, 61, 95
14, 99072, Note_on_c, 7, 52, 95
14, 99168, Note_on_c, 7, 52, 0
14, 99168, Note_on_c, 7, 69, 0
14, 99168, Note_on_c, 7, 40, 0
14, 99168, Note_on_c, 7, 67, 0
14, 99168, Note_on_c, 7, 61, 0
14, 99168, Note_on_c, 7, 57, 0
14, 99168, Note_on_c, 7, 57, 0
14, 99168, Note_on_c, 7, 61, 0
14, 99264, Note_on_c, 7, 67, 78
14, 99264, Note_on_c, 7, 69, 78
14, 99264, Note_on_c, 7, 61, 78
14, 99264, Note_on_c, 7, 57, 78
14, 99264, Note_on_c, 7, 61, 95
14, 99264, Note_on_c, 7, 57, 95
14, 99264, Note_on_c, 7, 52, 95
14, 99264, Note_on_c, 7, 40, 95
14, 99456, Note_on_c, 7, 40, 0
14, 99456, Note_on_c, 7, 67, 0
14, 99456, Note_on_c, 7, 61, 0
14, 99456, Note_on_c, 7, 69, 0
14, 99456, Note_on_c, 7, 61, 0
14, 99456, Note_on_c, 7, 57, 0
14, 99456, Note_on_c, 7, 57, 0
14, 99456, Note_on_c, 7, 52, 0
14, 99552, Note_on_c, 7, 57, 78
14, 99600, Note_on_c, 7, 57, 0
14, 99600, Note_on_c, 7, 57, 78
14, 99648, Note_on_c, 7, 57, 0
14, 99648, Note_on_c, 7, 57, 78
14, 99744, Note_on_c, 7, 57, 0
14, 99744, Note_on_c, 7, 57, 78
14, 99840, Note_on_c, 7, 57, 0
14, 99840, Note_on_c, 7, 62, 78
14, 99840, Note_on_c, 7, 54, 78
14, 100032, Note_on_c, 7, 54, 0
14, 100032, Note_on_c, 7, 62, 0
14, 100032, Note_on_c, 7, 62, 78
14, 100032, Note_on_c, 7, 54, 78
14, 100224, Note_on_c, 7, 54, 0
14, 100224, Note_on_c, 7, 62, 0
14, 100224, Note_on_c, 7, 57, 78
14, 100224, Note_on_c, 7, 64, 78
14, 100416, Note_on_c, 7, 64, 0
14, 100416, Note_on_c, 7, 57, 0
14, 100416, Note_on_c, 7, 64, 78
14, 100416, Note_on_c, 7, 57, 78
14, 100608, Note_on_c, 7, 57, 0
14, 100608, Note_on_c, 7, 64, 0
14, 100608, Note_on_c, 7, 66, 78
14, 100608, Note_on_c, 7, 69, 78
14, 100896, Note_on_c, 7, 69, 0
14, 100896, Note_on_c, 7, 66, 0
14, 100896, Note_on_c, 7, 62, 78
14, 100896, Note_on_c, 7, 66, 78
14, 100992, Note_on_c, 7, 66, 0
14, 100992, Note_on_c, 7, 62, 0
14, 100992, Note_on_c, 7, 62, 78
14, 100992, Note_on_c, 7, 54, 78
14, 101088, Note_on_c, 7, 54, 0
14, 101088, Note_on_c, 7, 62, 0
14, 101088, Note_on_c, 7, 57, 78
14, 101136, Note_on_c, 7, 57, 0
14, 101136, Note_on_c, 7, 57, 78
14, 101184, Note_on_c, 7, 57, 0
14, 101184, Note_on_c, 7, 57, 78
14, 101280, Note_on_c, 7, 57, 0
14, 101280, Note_on_c, 7, 57, 78
14, 101376, Note_on_c, 7, 57, 0
14, 101376, Note_on_c, 7, 54, 78
14, 101376, Note_on_c, 7, 62, 78
14, 101568, Note_on_c, 7, 62, 0
14, 101568, Note_on_c, 7, 54, 0
14, 101568, Note_on_c, 7, 54, 78
14, 101568, Note_on_c, 7, 62, 78
14, 101760, Note_on_c, 7, 62, 0
14, 101760, Note_on_c, 7, 54, 0
14, 101760, Note_on_c, 7, 64, 78
14, 101760, Note_on_c, 7, 57, 78
14, 101952, Note_on_c, 7, 57, 0
14, 101952, Note_on_c, 7, 64, 0
14, 101952, Note_on_c, 7, 57, 78
14, 101952, Note_on_c, 7, 64, 78
14, 102144, Note_on_c, 7, 64, 0
14, 102144, Note_on_c, 7, 57, 0
14, 102144, Note_on_c, 7, 66, 78
14, 102432, Note_on_c, 7, 66, 0
14, 102432, Note_on_c, 7, 66, 78
14, 102432, Note_on_c, 7, 62, 78
14, 102528, Note_on_c, 7, 62, 0
14, 102528, Note_on_c, 7, 66, 0
14, 102528, Note_on_c, 7, 62, 78
14, 102528, Note_on_c, 7, 54, 78
14, 102624, Note_on_c, 7, 54, 0
14, 102624, Note_on_c, 7, 62, 0
14, 104448, Note_on_c, 7, 69, 78
14, 104448, Note_on_c, 7, 66, 78
14, 104736, Note_on_c, 7, 66, 0
14, 104736, Note_on_c, 7, 69, 0
14, 104736, Note_on_c, 7, 66, 78
14, 104736, Note_on_c, 7, 62, 78
14, 104832, Note_on_c, 7, 62, 0
14, 104832, Note_on_c, 7, 66, 0
14, 104832, Note_on_c, 7, 62, 78
14, 104832, Note_on_c, 7, 54, 78
14, 105216, Note_on_c, 7, 54, 0
14, 105216, Note_on_c, 7, 62, 0
14, 106752, Note_on_c, 7, 54, 78
14, 106752, Note_on_c, 7, 62, 78
14, 107136, Note_on_c, 7, 62, 0
14, 107136, Note_on_c, 7, 54, 0
14, 110016, Note_on_c, 7, 54, 78
14, 110208, Note_on_c, 7, 62, 78
14, 110400, Note_on_c, 7, 57, 78
14, 110592, Note_on_c, 7, 66, 78
14, 111360, Note_on_c, 7, 66, 0
14, 111360, Note_on_c, 7, 54, 0
14, 111360, Note_on_c, 7, 62, 0
14, 111360, Note_on_c, 7, 57, 0
14, 111360, Note_on_c, 7, 58, 47
14, 111360, Note_on_c, 7, 66, 47
14, 111360, Note_on_c, 7, 54, 47
14, 111360, Note_on_c, 7, 61, 47
14, 111744, Note_on_c, 7, 61, 0
14, 111744, Note_on_c, 7, 58, 0
14, 111744, Note_on_c, 7, 66, 0
14, 111744, Note_on_c, 7, 54, 0
14, 111744, Note_on_c, 7, 65, 47
14, 111744, Note_on_c, 7, 61, 47
14, 111744, Note_on_c, 7, 59, 47
14, 111744, Note_on_c, 7, 53, 47
14, 112128, Note_on_c, 7, 53, 0
14, 112128, Note_on_c, 7, 65, 0
14, 112128, Note_on_c, 7, 61, 0
14, 112128, Note_on_c, 7, 59, 0
14, 112128, Note_on_c, 7, 66, 47
14, 112128, Note_on_c, 7, 61, 47
14, 112128, Note_on_c, 7, 58, 47
14, 112128, Note_on_c, 7, 54, 47
14, 112512, Note_on_c, 7, 54, 0
14, 112512, Note_on_c, 7, 66, 0
14, 112512, Note_on_c, 7, 61, 0
14, 112512, Note_on_c, 7, 58, 0
14, 112512, Note_on_c, 7, 59, 47
14, 112512, Note_on_c, 7, 65, 47
14, 112512, Note_on_c, 7, 61, 47
14, 112512, Note_on_c, 7, 53, 47
14, 112896, Note_on_c, 7, 53, 0
14, 112896, Note_on_c, 7, 59, 0
14, 112896, Note_on_c, 7, 65, 0
14, 112896, Note_on_c, 7, 61, 0
14, 112896, Note_on_c, 7, 61, 47
14, 112896, Note_on_c, 7, 54, 47
14, 112896, Note_on_c, 7, 66, 47
14, 112896, Note_on_c, 7, 58, 47
14, 113280, Note_on_c, 7, 58, 0
14, 113280, Note_on_c, 7, 61, 0
14, 113280, Note_on_c, 7, 54, 0
14, 113280, Note_on_c, 7, 66, 0
14, 113280, Note_on_c, 7, 65, 47
14, 113280, Note_on_c, 7, 61, 47
14, 113280, Note_on_c, 7, 59, 47
14, 113280, Note_on_c, 7, 53, 47
14, 113664, Note_on_c, 7, 53, 0
14, 113664, Note_on_c, 7, 65, 0
14, 113664, Note_on_c, 7, 61, 0
14, 113664, Note_on_c, 7, 59, 0
14, 113664, Note_on_c, 7, 66, 47
14, 113664, Note_on_c, 7, 61, 47
14, 113664, Note_on_c, 7, 58, 47
14, 113664, Note_on_c, 7, 54, 47
14, 114048, Note_on_c, 7, 54, 0
14, 114048, Note_on_c, 7, 66, 0
14, 114048, Note_on_c, 7, 61, 0
14, 114048, Note_on_c, 7, 58, 0
14, 114048, Note_on_c, 7, 65, 47
14, 114048, Note_on_c, 7, 53, 47
14, 114048, Note_on_c, 7, 61, 47
14, 114048, Note_on_c, 7, 59, 47
14, 114432, Note_on_c, 7, 59, 0
14, 114432, Note_on_c, 7, 65, 0
14, 114432, Note_on_c, 7, 53, 0
14, 114432, Note_on_c, 7, 61, 0
14, 114432, Note_on_c, 7, 61, 47
14, 114432, Note_on_c, 7, 66, 47
14, 114432, Note_on_c, 7, 54, 47
14, 114432, Note_on_c, 7, 58, 47
14, 114816, Note_on_c, 7, 58, 0
14, 114816, Note_on_c, 7, 61, 0
14, 114816, Note_on_c, 7, 66, 0
14, 114816, Note_on_c, 7, 54, 0
14, 114816, Note_on_c, 7, 65, 47
14, 114816, Note_on_c, 7, 61, 47
14, 114816, Note_on_c, 7, 59, 47
14, 114816, Note_on_c, 7, 53, 47
14, 115200, Note_on_c, 7, 53, 0
14, 115200, Note_on_c, 7, 65, 0
14, 115200, Note_on_c, 7, 61, 0
14, 115200, Note_on_c, 7, 59, 0
14, 115200, Note_on_c, 7, 58, 47
14, 115200, Note_on_c, 7, 66, 47
14, 115200, Note_on_c, 7, 61, 47
14, 115200, Note_on_c, 7, 54, 47
14, 115584, Note_on_c, 7, 54, 0
14, 115584, Note_on_c, 7, 58, 0
14, 115584, Note_on_c, 7, 66, 0
14, 115584, Note_on_c, 7, 61, 0
14, 115584, Note_on_c, 7, 61, 47
14, 115584, Note_on_c, 7, 53, 47
14, 115584, Note_on_c, 7, 65, 47
14, 115584, Note_on_c, 7, 59, 47
14, 115968, Note_on_c, 7, 59, 0
14, 115968, Note_on_c, 7, 61, 0
14, 115968, Note_on_c, 7, 53, 0
14, 115968, Note_on_c, 7, 65, 0
14, 115968, Note_on_c, 7, 58, 47
14, 115968, Note_on_c, 7, 66, 47
14, 115968, Note_on_c, 7, 54, 47
14, 115968, Note_on_c, 7, 61, 47
14, 116352, Note_on_c, 7, 61, 0
14, 116352, Note_on_c, 7, 58, 0
14, 116352, Note_on_c, 7, 66, 0
14, 116352, Note_on_c, 7, 54, 0
14, 116352, Note_on_c, 7, 61, 47
14, 116352, Note_on_c, 7, 59, 47
14, 116352, Note_on_c, 7, 68, 47
14, 116352, Note_on_c, 7, 53, 47
14, 116736, Note_on_c, 7, 53, 0
14, 116736, Note_on_c, 7, 61, 0
14, 116736, Note_on_c, 7, 59, 0
14, 116736, Note_on_c, 7, 68, 0
14, 116736, Note_on_c, 7, 66, 47
14, 116736, Note_on_c, 7, 58, 47
14, 116736, Note_on_c, 7, 54, 47
14, 116736, Note_on_c, 7, 61, 47
14, 117120, Note_on_c, 7, 61, 0
14, 117120, Note_on_c, 7, 66, 0
14, 117120, Note_on_c, 7, 58, 0
14, 117120, Note_on_c, 7, 54, 0
14, 117120, Note_on_c, 7, 59, 47
14, 117120, Note_on_c, 7, 65, 47
14, 117120, Note_on_c, 7, 61, 47
14, 117120, Note_on_c, 7, 53, 47
14, 117504, Note_on_c, 7, 53, 0
14, 117504, Note_on_c, 7, 59, 0
14, 117504, Note_on_c, 7, 65, 0
14, 117504, Note_on_c, 7, 61, 0
14, 117504, Note_on_c, 7, 66, 47
14, 117504, Note_on_c, 7, 54, 47
14, 117504, Note_on_c, 7, 61, 47
14, 117504, Note_on_c, 7, 58, 47
14, 117888, Note_on_c, 7, 58, 0
14, 117888, Note_on_c, 7, 66, 0
14, 117888, Note_on_c, 7, 54, 0
14, 117888, Note_on_c, 7, 61, 0
14, 117888, Note_on_c, 7, 59, 47
14, 117888, Note_on_c, 7, 65, 47
14, 117888, Note_on_c, 7, 53, 47
14, 117888, Note_on_c, 7, 61, 47
14, 118272, Note_on_c, 7, 61, 0
14, 118272, Note_on_c, 7, 59, 0
14, 118272, Note_on_c, 7, 65, 0
14, 118272, Note_on_c, 7, 53, 0
14, 118272, Note_on_c, 7, 61, 47
14, 118272, Note_on_c, 7, 54, 47
14, 118272, Note_on_c, 7, 66, 47
14, 118272, Note_on_c, 7, 58, 47
14, 118656, Note_on_c, 7, 58, 0
14, 118656, Note_on_c, 7, 61, 0
14, 118656, Note_on_c, 7, 54, 0
14, 118656, Note_on_c, 7, 66, 0
14, 118656, Note_on_c, 7, 65, 47
14, 118656, Note_on_c, 7, 61, 47
14, 118656, Note_on_c, 7, 59, 47
14, 118656, Note_on_c, 7, 53, 47
14, 119040, Note_on_c, 7, 53, 0
14, 119040, Note_on_c, 7, 65, 0
14, 119040, Note_on_c, 7, 61, 0
14, 119040, Note_on_c, 7, 59, 0
14, 119040, Note_on_c, 7, 66, 47
14, 119040, Note_on_c, 7, 58, 47
14, 119040, Note_on_c, 7, 54, 47
14, 119040, Note_on_c, 7, 61, 47
14, 119424, Note_on_c, 7, 61, 0
14, 119424, Note_on_c, 7, 66, 0
14, 119424, Note_on_c, 7, 58, 0
14, 119424, Note_on_c, 7, 54, 0
14, 119424, Note_on_c, 7, 59, 47
14, 119424, Note_on_c, 7, 68, 47
14, 119424, Note_on_c, 7, 61, 47
14, 119424, Note_on_c, 7, 56, 47
14, 119808, Note_on_c, 7, 56, 0
14, 119808, Note_on_c, 7, 59, 0
14, 119808, Note_on_c, 7, 68, 0
14, 119808, Note_on_c, 7, 61, 0
14, 119808, Note_on_c, 7, 66, 50
14, 119808, Note_on_c, 7, 61, 50
14, 119808, Note_on_c, 7, 58, 50
14, 119808, Note_on_c, 7, 54, 50
14, 120192, Note_on_c, 7, 54, 0
14, 120192, Note_on_c, 7, 66, 0
14, 120192, Note_on_c, 7, 61, 0
14, 120192, Note_on_c, 7, 58, 0
14, 120192, Note_on_c, 7, 60, 50
14, 120192, Note_on_c, 7, 72, 50
14, 120192, Note_on_c, 7, 57, 50
14, 120192, Note_on_c, 7, 62, 50
14, 120576, Note_on_c, 7, 62, 0
14, 120576, Note_on_c, 7, 60, 0
14, 120576, Note_on_c, 7, 72, 0
14, 120576, Note_on_c, 7, 57, 0
14, 120576, Note_on_c, 7, 62, 50
14, 120576, Note_on_c, 7, 71, 50
14, 120576, Note_on_c, 7, 59, 50
14, 120576, Note_on_c, 7, 55, 50
14, 120960, Note_on_c, 7, 55, 0
14, 120960, Note_on_c, 7, 62, 0
14, 120960, Note_on_c, 7, 71, 0
14, 120960, Note_on_c, 7, 59, 0
14, 120960, Note_on_c, 7, 72, 50
14, 120960, Note_on_c, 7, 62, 50
14, 120960, Note_on_c, 7, 60, 50
14, 120960, Note_on_c, 7, 57, 50
14, 121344, Note_on_c, 7, 57, 0
14, 121344, Note_on_c, 7, 72, 0
14, 121344, Note_on_c, 7, 62, 0
14, 121344, Note_on_c, 7, 60, 0
14, 121344, Note_on_c, 7, 62, 50
14, 121344, Note_on_c, 7, 71, 50
14, 121344, Note_on_c, 7, 59, 50
14, 121344, Note_on_c, 7, 55, 50
14, 121728, Note_on_c, 7, 55, 0
14, 121728, Note_on_c, 7, 62, 0
14, 121728, Note_on_c, 7, 71, 0
14, 121728, Note_on_c, 7, 59, 0
14, 121728, Note_on_c, 7, 60, 50
14, 121728, Note_on_c, 7, 72, 50
14, 121728, Note_on_c, 7, 62, 50
14, 121728, Note_on_c, 7, 57, 50
14, 122112, Note_on_c, 7, 57, 0
14, 122112, Note_on_c, 7, 60, 0
14, 122112, Note_on_c, 7, 72, 0
14, 122112, Note_on_c, 7, 62, 0
14, 122112, Note_on_c, 7, 62, 50
14, 122112, Note_on_c, 7, 55, 50
14, 122112, Note_on_c, 7, 71, 50
14, 122112, Note_on_c, 7, 59, 50
14, 122496, Note_on_c, 7, 59, 0
14, 122496, Note_on_c, 7, 62, 0
14, 122496, Note_on_c, 7, 55, 0
14, 122496, Note_on_c, 7, 71, 0
14, 122496, Note_on_c, 7, 69, 50
14, 122496, Note_on_c, 7, 54, 50
14, 122496, Note_on_c, 7, 62, 50
14, 122496, Note_on_c, 7, 57, 50
14, 122880, Note_on_c, 7, 57, 0
14, 122880, Note_on_c, 7, 69, 0
14, 122880, Note_on_c, 7, 54, 0
14, 122880, Note_on_c, 7, 62, 0
14, 122880, Note_on_c, 7, 71, 50
14, 122880, Note_on_c, 7, 62, 50
14, 122880, Note_on_c, 7, 55, 50
14, 122880, Note_on_c, 7, 59, 50
14, 123264, Note_on_c, 7, 59, 0
14, 123264, Note_on_c, 7, 71, 0
14, 123264, Note_on_c, 7, 62, 0
14, 123264, Note_on_c, 7, 55, 0
14, 123264, Note_on_c, 7, 62, 50
14, 123264, Note_on_c, 7, 54, 50
14, 123264, Note_on_c, 7, 72, 50
14, 123264, Note_on_c, 7, 60, 50
14, 123648, Note_on_c, 7, 60, 0
14, 123648, Note_on_c, 7, 62, 0
14, 123648, Note_on_c, 7, 54, 0
14, 123648, Note_on_c, 7, 72, 0
14, 123648, Note_on_c, 7, 62, 50
14, 123648, Note_on_c, 7, 71, 50
14, 123648, Note_on_c, 7, 59, 50
14, 123648, Note_on_c, 7, 55, 50
14, 124032, Note_on_c, 7, 55, 0
14, 124032, Note_on_c, 7, 62, 0
14, 124032, Note_on_c, 7, 71, 0
14, 124032, Note_on_c, 7, 59, 0
14, 124032, Note_on_c, 7, 72, 50
14, 124032, Note_on_c, 7, 62, 50
14, 124032, Note_on_c, 7, 60, 50
14, 124032, Note_on_c, 7, 57, 50
14, 124416, Note_on_c, 7, 57, 0
14, 124416, Note_on_c, 7, 72, 0
14, 124416, Note_on_c, 7, 62, 0
14, 124416, Note_on_c, 7, 60, 0
14, 124416, Note_on_c, 7, 71, 50
14, 124416, Note_on_c, 7, 62, 50
14, 124416, Note_on_c, 7, 55, 50
14, 124416, Note_on_c, 7, 59, 50
14, 124800, Note_on_c, 7, 59, 0
14, 124800, Note_on_c, 7, 71, 0
14, 124800, Note_on_c, 7, 62, 0
14, 124800, Note_on_c, 7, 55, 0
14, 124800, Note_on_c, 7, 72, 50
14, 124800, Note_on_c, 7, 69, 50
14, 124800, Note_on_c, 7, 62, 50
14, 124800, Note_on_c, 7, 60, 50
14, 125184, Note_on_c, 7, 60, 0
14, 125184, Note_on_c, 7, 72, 0
14, 125184, Note_on_c, 7, 69, 0
14, 125184, Note_on_c, 7, 62, 0
14, 125184, Note_on_c, 7, 67, 50
14, 125184, Note_on_c, 7, 63, 50
14, 125184, Note_on_c, 7, 58, 50
14, 125184, Note_on_c, 7, 55, 50
14, 125568, Note_on_c, 7, 55, 0
14, 125568, Note_on_c, 7, 67, 0
14, 125568, Note_on_c, 7, 63, 0
14, 125568, Note_on_c, 7, 58, 0
14, 125568, Note_on_c, 7, 68, 50
14, 125568, Note_on_c, 7, 51, 50
14, 125568, Note_on_c, 7, 63, 50
14, 125568, Note_on_c, 7, 56, 50
14, 125952, Note_on_c, 7, 56, 0
14, 125952, Note_on_c, 7, 68, 0
14, 125952, Note_on_c, 7, 51, 0
14, 125952, Note_on_c, 7, 63, 0
14, 125952, Note_on_c, 7, 66, 50
14, 125952, Note_on_c, 7, 58, 50
14, 125952, Note_on_c, 7, 70, 50
14, 125952, Note_on_c, 7, 54, 50
14, 126336, Note_on_c, 7, 54, 0
14, 126336, Note_on_c, 7, 66, 0
14, 126336, Note_on_c, 7, 58, 0
14, 126336, Note_on_c, 7, 70, 0
14, 126336, Note_on_c, 7, 63, 50
14, 126336, Note_on_c, 7, 68, 50
14, 126336, Note_on_c, 7, 56, 50
14, 126336, Note_on_c, 7, 51, 50
14, 126720, Note_on_c, 7, 51, 0
14, 126720, Note_on_c, 7, 63, 0
14, 126720, Note_on_c, 7, 68, 0
14, 126720, Note_on_c, 7, 56, 0
14, 126720, Note_on_c, 7, 58, 50
14, 126720, Note_on_c, 7, 70, 50
14, 126720, Note_on_c, 7, 66, 50
14, 126720, Note_on_c, 7, 54, 50
14, 127104, Note_on_c, 7, 54, 0
14, 127104, Note_on_c, 7, 58, 0
14, 127104, Note_on_c, 7, 70, 0
14, 127104, Note_on_c, 7, 66, 0
14, 127104, Note_on_c, 7, 63, 50
14, 127104, Note_on_c, 7, 51, 50
14, 127104, Note_on_c, 7, 68, 50
14, 127104, Note_on_c, 7, 56, 50
14, 127488, Note_on_c, 7, 56, 0
14, 127488, Note_on_c, 7, 63, 0
14, 127488, Note_on_c, 7, 51, 0
14, 127488, Note_on_c, 7, 68, 0
14, 127488, Note_on_c, 7, 66, 50
14, 127488, Note_on_c, 7, 70, 50
14, 127488, Note_on_c, 7, 58, 50
14, 127488, Note_on_c, 7, 54, 50
14, 127872, Note_on_c, 7, 54, 0
14, 127872, Note_on_c, 7, 66, 0
14, 127872, Note_on_c, 7, 70, 0
14, 127872, Note_on_c, 7, 58, 0
14, 127872, Note_on_c, 7, 56, 50
14, 127872, Note_on_c, 7, 68, 50
14, 127872, Note_on_c, 7, 51, 50
14, 127872, Note_on_c, 7, 63, 50
14, 128064, Note_on_c, 7, 68, 0
14, 128064, Note_on_c, 7, 56, 0
14, 128064, Note_on_c, 7, 69, 50
14, 128064, Note_on_c, 7, 57, 50
14, 128256, Note_on_c, 7, 57, 0
14, 128256, Note_on_c, 7, 63, 0
14, 128256, Note_on_c, 7, 51, 0
14, 128256, Note_on_c, 7, 69, 0
14, 128256, Note_on_c, 7, 70, 50
14, 128256, Note_on_c, 7, 63, 50
14, 128256, Note_on_c, 7, 58, 50
14, 128256, Note_on_c, 7, 51, 50
14, 128640, Note_on_c, 7, 51, 0
14, 128640, Note_on_c, 7, 70, 0
14, 128640, Note_on_c, 7, 63, 0
14, 128640, Note_on_c, 7, 58, 0
14, 128640, Note_on_c, 7, 56, 50
14, 128640, Note_on_c, 7, 68, 50
14, 128640, Note_on_c, 7, 50, 50
14, 128640, Note_on_c, 7, 62, 50
14, 129024, Note_on_c, 7, 62, 0
14, 129024, Note_on_c, 7, 56, 0
14, 129024, Note_on_c, 7, 68, 0
14, 129024, Note_on_c, 7, 50, 0
14, 129024, Note_on_c, 7, 67, 50
14, 129024, Note_on_c, 7, 63, 50
14, 129024, Note_on_c, 7, 55, 50
14, 129024, Note_on_c, 7, 51, 50
14, 129408, Note_on_c, 7, 51, 0
14, 129408, Note_on_c, 7, 67, 0
14, 129408, Note_on_c, 7, 63, 0
14, 129408, Note_on_c, 7, 55, 0
14, 129408, Note_on_c, 7, 62, 50
14, 129408, Note_on_c, 7, 56, 50
14, 129408, Note_on_c, 7, 68, 50
14, 129408, Note_on_c, 7, 50, 50
14, 129792, Note_on_c, 7, 50, 0
14, 129792, Note_on_c, 7, 62, 0
14, 129792, Note_on_c, 7, 56, 0
14, 129792, Note_on_c, 7, 68, 0
14, 129792, Note_on_c, 7, 67, 50
14, 129792, Note_on_c, 7, 55, 50
14, 129792, Note_on_c, 7, 51, 50
14, 129792, Note_on_c, 7, 63, 50
14, 130176, Note_on_c, 7, 63, 0
14, 130176, Note_on_c, 7, 67, 0
14, 130176, Note_on_c, 7, 55, 0
14, 130176, Note_on_c, 7, 51, 0
14, 130176, Note_on_c, 7, 56, 50
14, 130176, Note_on_c, 7, 68, 50
14, 130176, Note_on_c, 7, 62, 50
14, 130176, Note_on_c, 7, 50, 50
14, 130560, Note_on_c, 7, 50, 0
14, 130560, Note_on_c, 7, 56, 0
14, 130560, Note_on_c, 7, 68, 0
14, 130560, Note_on_c, 7, 62, 0
14, 130560, Note_on_c, 7, 67, 50
14, 130560, Note_on_c, 7, 51, 50
14, 130560, Note_on_c, 7, 63, 50
14, 130560, Note_on_c, 7, 55, 50
14, 130944, Note_on_c, 7, 55, 0
14, 130944, Note_on_c, 7, 67, 0
14, 130944, Note_on_c, 7, 51, 0
14, 130944, Note_on_c, 7, 63, 0
14, 130944, Note_on_c, 7, 56, 50
14, 130944, Note_on_c, 7, 68, 50
14, 130944, Note_on_c, 7, 50, 50
14, 130944, Note_on_c, 7, 62, 50
14, 131328, Note_on_c, 7, 62, 0
14, 131328, Note_on_c, 7, 56, 0
14, 131328, Note_on_c, 7, 68, 0
14, 131328, Note_on_c, 7, 50, 0
14, 131328, Note_on_c, 7, 63, 50
14, 131328, Note_on_c, 7, 51, 50
14, 131328, Note_on_c, 7, 67, 50
14, 131328, Note_on_c, 7, 55, 50
14, 131712, Note_on_c, 7, 55, 0
14, 131712, Note_on_c, 7, 63, 0
14, 131712, Note_on_c, 7, 51, 0
14, 131712, Note_on_c, 7, 67, 0
14, 131712, Note_on_c, 7, 68, 50
14, 131712, Note_on_c, 7, 56, 50
14, 131712, Note_on_c, 7, 50, 50
14, 131712, Note_on_c, 7, 62, 50
14, 132096, Note_on_c, 7, 62, 0
14, 132096, Note_on_c, 7, 68, 0
14, 132096, Note_on_c, 7, 56, 0
14, 132096, Note_on_c, 7, 50, 0
14, 132096, Note_on_c, 7, 67, 50
14, 132096, Note_on_c, 7, 63, 50
14, 132096, Note_on_c, 7, 51, 50
14, 132096, Note_on_c, 7, 55, 50
14, 132480, Note_on_c, 7, 55, 0
14, 132480, Note_on_c, 7, 67, 0
14, 132480, Note_on_c, 7, 63, 0
14, 132480, Note_on_c, 7, 51, 0
14, 132480, Note_on_c, 7, 68, 50
14, 132480, Note_on_c, 7, 50, 50
14, 132480, Note_on_c, 7, 62, 50
14, 132480, Note_on_c, 7, 56, 50
14, 132864, Note_on_c, 7, 56, 0
14, 132864, Note_on_c, 7, 68, 0
14, 132864, Note_on_c, 7, 50, 0
14, 132864, Note_on_c, 7, 62, 0
14, 132864, Note_on_c, 7, 67, 50
14, 132864, Note_on_c, 7, 63, 50
14, 132864, Note_on_c, 7, 51, 50
14, 132864, Note_on_c, 7, 55, 50
14, 133248, Note_on_c, 7, 55, 0
14, 133248, Note_on_c, 7, 67, 0
14, 133248, Note_on_c, 7, 63, 0
14, 133248, Note_on_c, 7, 51, 0
14, 133248, Note_on_c, 7, 68, 50
14, 133248, Note_on_c, 7, 65, 50
14, 133248, Note_on_c, 7, 56, 50
14, 133248, Note_on_c, 7, 53, 50
14, 133632, Note_on_c, 7, 53, 0
14, 133632, Note_on_c, 7, 68, 0
14, 133632, Note_on_c, 7, 65, 0
14, 133632, Note_on_c, 7, 56, 0
14, 133632, Note_on_c, 7, 70, 50
14, 133632, Note_on_c, 7, 67, 50
14, 133632, Note_on_c, 7, 58, 50
14, 133632, Note_on_c, 7, 55, 50
14, 134016, Note_on_c, 7, 55, 0
14, 134016, Note_on_c, 7, 70, 0
14, 134016, Note_on_c, 7, 67, 0
14, 134016, Note_on_c, 7, 58, 0
14, 134016, Note_on_c, 7, 62, 50
14, 134016, Note_on_c, 7, 65, 50
14, 134016, Note_on_c, 7, 53, 50
14, 134016, Note_on_c, 7, 50, 50
14, 134400, Note_on_c, 7, 50, 0
14, 134400, Note_on_c, 7, 62, 0
14, 134400, Note_on_c, 7, 65, 0
14, 134400, Note_on_c, 7, 53, 0
14, 134400, Note_on_c, 7, 54, 50
14, 134400, Note_on_c, 7, 66, 50
14, 134400, Note_on_c, 7, 63, 50
14, 134400, Note_on_c, 7, 51, 50
14, 134784, Note_on_c, 7, 51, 0
14, 134784, Note_on_c, 7, 54, 0
14, 134784, Note_on_c, 7, 66, 0
14, 134784, Note_on_c, 7, 63, 0
14, 134784, Note_on_c, 7, 62, 50
14, 134784, Note_on_c, 7, 56, 50
14, 134784, Note_on_c, 7, 68, 50
14, 134784, Note_on_c, 7, 50, 50
14, 135168, Note_on_c, 7, 50, 0
14, 135168, Note_on_c, 7, 62, 0
14, 135168, Note_on_c, 7, 56, 0
14, 135168, Note_on_c, 7, 68, 0
14, 135168, Note_on_c, 7, 66, 50
14, 135168, Note_on_c, 7, 63, 50
14, 135168, Note_on_c, 7, 54, 50
14, 135168, Note_on_c, 7, 51, 50
14, 135552, Note_on_c, 7, 51, 0
14, 135552, Note_on_c, 7, 66, 0
14, 135552, Note_on_c, 7, 63, 0
14, 135552, Note_on_c, 7, 54, 0
14, 135552, Note_on_c, 7, 56, 50
14, 135552, Note_on_c, 7, 68, 50
14, 135552, Note_on_c, 7, 50, 50
14, 135552, Note_on_c, 7, 62, 50
14, 135936, Note_on_c, 7, 62, 0
14, 135936, Note_on_c, 7, 56, 0
14, 135936, Note_on_c, 7, 68, 0
14, 135936, Note_on_c, 7, 50, 0
14, 135936, Note_on_c, 7, 66, 50
14, 135936, Note_on_c, 7, 51, 50
14, 135936, Note_on_c, 7, 63, 50
14, 135936, Note_on_c, 7, 54, 50
14, 136320, Note_on_c, 7, 54, 0
14, 136320, Note_on_c, 7, 66, 0
14, 136320, Note_on_c, 7, 51, 0
14, 136320, Note_on_c, 7, 63, 0
14, 136320, Note_on_c, 7, 68, 50
14, 136320, Note_on_c, 7, 56, 50
14, 136320, Note_on_c, 7, 50, 50
14, 136320, Note_on_c, 7, 62, 50
14, 136704, Note_on_c, 7, 62, 0
14, 136704, Note_on_c, 7, 68, 0
14, 136704, Note_on_c, 7, 56, 0
14, 136704, Note_on_c, 7, 50, 0
14, 136704, Note_on_c, 7, 66, 50
14, 136704, Note_on_c, 7, 63, 50
14, 136704, Note_on_c, 7, 54, 50
14, 136704, Note_on_c, 7, 51, 50
14, 137088, Note_on_c, 7, 51, 0
14, 137088, Note_on_c, 7, 66, 0
14, 137088, Note_on_c, 7, 63, 0
14, 137088, Note_on_c, 7, 54, 0
14, 137088, Note_on_c, 7, 56, 50
14, 137088, Note_on_c, 7, 68, 50
14, 137088, Note_on_c, 7, 62, 50
14, 137088, Note_on_c, 7, 50, 50
14, 137472, Note_on_c, 7, 50, 0
14, 137472, Note_on_c, 7, 56, 0
14, 137472, Note_on_c, 7, 68, 0
14, 137472, Note_on_c, 7, 62, 0
14, 137472, Note_on_c, 7, 63, 50
14, 137472, Note_on_c, 7, 51, 50
14, 137472, Note_on_c, 7, 66, 50
14, 137472, Note_on_c, 7, 54, 50
14, 137856, Note_on_c, 7, 54, 0
14, 137856, Note_on_c, 7, 63, 0
14, 137856, Note_on_c, 7, 51, 0
14, 137856, Note_on_c, 7, 66, 0
14, 137856, Note_on_c, 7, 62, 50
14, 137856, Note_on_c, 7, 68, 50
14, 137856, Note_on_c, 7, 56, 50
14, 137856, Note_on_c, 7, 50, 50
14, 138240, Note_on_c, 7, 50, 0
14, 138240, Note_on_c, 7, 62, 0
14, 138240, Note_on_c, 7, 68, 0
14, 138240, Note_on_c, 7, 56, 0
14, 138240, Note_on_c, 7, 66, 50
14, 138240, Note_on_c, 7, 63, 50
14, 138240, Note_on_c, 7, 54, 50
14, 138240, Note_on_c, 7, 51, 50
14, 138624, Note_on_c, 7, 51, 0
14, 138624, Note_on_c, 7, 66, 0
14, 138624, Note_on_c, 7, 63, 0
14, 138624, Note_on_c, 7, 54, 0
14, 138624, Note_on_c, 7, 68, 50
14, 138624, Note_on_c, 7, 56, 50
14, 138624, Note_on_c, 7, 50, 50
14, 138624, Note_on_c, 7, 62, 50
14, 139008, Note_on_c, 7, 62, 0
14, 139008, Note_on_c, 7, 68, 0
14, 139008, Note_on_c, 7, 56, 0
14, 139008, Note_on_c, 7, 50, 0
14, 139008, Note_on_c, 7, 63, 50
14, 139008, Note_on_c, 7, 66, 50
14, 139008, Note_on_c, 7, 51, 50
14, 139008, Note_on_c, 7, 54, 50
14, 139392, Note_on_c, 7, 54, 0
14, 139392, Note_on_c, 7, 63, 0
14, 139392, Note_on_c, 7, 66, 0
14, 139392, Note_on_c, 7, 51, 0
14, 139392, Note_on_c, 7, 68, 50
14, 139392, Note_on_c, 7, 62, 50
14, 139392, Note_on_c, 7, 56, 50
14, 139392, Note_on_c, 7, 50, 50
14, 139776, Note_on_c, 7, 50, 0
14, 139776, Note_on_c, 7, 68, 0
14, 139776, Note_on_c, 7, 62, 0
14, 139776, Note_on_c, 7, 56, 0
14, 139776, Note_on_c, 7, 66, 50
14, 139776, Note_on_c, 7, 63, 50
14, 139776, Note_on_c, 7, 51, 50
14, 139776, Note_on_c, 7, 54, 50
14, 140640, Note_on_c, 7, 54, 0
14, 140640, Note_on_c, 7, 66, 0
14, 140640, Note_on_c, 7, 63, 0
14, 140640, Note_on_c, 7, 51, 0
14, 141312, Note_on_c, 7, 68, 50
14, 141312, Note_on_c, 7, 50, 50
14, 141312, Note_on_c, 7, 62, 50
14, 141312, Note_on_c, 7, 56, 50
14, 142176, Note_on_c, 7, 56, 0
14, 142176, Note_on_c, 7, 68, 0
14, 142176, Note_on_c, 7, 50, 0
14, 142176, Note_on_c, 7, 62, 0
14, 161088, Note_on_c, 7, 60, 78
14, 161184, Note_on_c, 7, 60, 0
14, 161184, Note_on_c, 7, 60, 78
14, 161232, Note_on_c, 7, 60, 0
14, 161232, Note_on_c, 7, 60, 78
14, 161280, Note_on_c, 7, 60, 0
14, 161280, Note_on_c, 7, 65, 78
14, 161472, Note_on_c, 7, 65, 0
14, 161472, Note_on_c, 7, 65, 78
14, 161472, Note_on_c, 7, 53, 59
14, 161568, Note_on_c, 7, 53, 0
14, 161568, Note_on_c, 7, 53, 59
14, 161616, Note_on_c, 7, 53, 0
14, 161616, Note_on_c, 7, 53, 59
14, 161664, Note_on_c, 7, 53, 0
14, 161664, Note_on_c, 7, 65, 0
14, 161664, Note_on_c, 7, 67, 78
14, 161664, Note_on_c, 7, 58, 59
14, 161856, Note_on_c, 7, 58, 0
14, 161856, Note_on_c, 7, 67, 0
14, 161856, Note_on_c, 7, 67, 78
14, 161856, Note_on_c, 7, 58, 59
14, 162048, Note_on_c, 7, 58, 0
14, 162048, Note_on_c, 7, 67, 0
14, 162048, Note_on_c, 7, 68, 78
14, 162048, Note_on_c, 7, 63, 59
14, 162240, Note_on_c, 7, 68, 0
14, 162240, Note_on_c, 7, 66, 78
14, 162336, Note_on_c, 7, 63, 0
14, 162336, Note_on_c, 7, 60, 59
14, 162432, Note_on_c, 7, 60, 0
14, 162432, Note_on_c, 7, 66, 0
14, 162432, Note_on_c, 7, 65, 78
14, 162432, Note_on_c, 7, 57, 59
14, 162528, Note_on_c, 7, 57, 0
14, 162528, Note_on_c, 7, 65, 0
14, 162528, Note_on_c, 7, 63, 78
14, 162624, Note_on_c, 7, 63, 0
14, 162624, Note_on_c, 7, 65, 78
14, 162720, Note_on_c, 7, 65, 0
14, 162720, Note_on_c, 7, 66, 78
14, 162816, Note_on_c, 7, 66, 0
14, 162816, Note_on_c, 7, 58, 78
14, 162816, Note_on_c, 7, 65, 78
14, 163068, Note_on_c, 7, 65, 0
14, 163068, Note_on_c, 7, 58, 0
14, 163104, Note_on_c, 7, 65, 78
14, 163104, Note_on_c, 7, 58, 78
14, 163144, Note_on_c, 7, 58, 0
14, 163144, Note_on_c, 7, 65, 0
14, 163152, Note_on_c, 7, 58, 78
14, 163152, Note_on_c, 7, 65, 78
14, 163192, Note_on_c, 7, 65, 0
14, 163192, Note_on_c, 7, 58, 0
14, 163200, Note_on_c, 7, 58, 78
14, 163200, Note_on_c, 7, 65, 78
14, 163389, Note_on_c, 7, 65, 0
14, 163389, Note_on_c, 7, 58, 0
14, 163392, Note_on_c, 7, 58, 78
14, 163392, Note_on_c, 7, 65, 78
14, 163580, Note_on_c, 7, 65, 0
14, 163581, Note_on_c, 7, 58, 0
14, 163584, Note_on_c, 7, 58, 78
14, 163584, Note_on_c, 7, 67, 78
14, 163644, Note_on_c, 7, 58, 0
14, 163680, Note_on_c, 7, 67, 0
14, 166464, Note_on_c, 7, 61, 78
14, 166560, Note_on_c, 7, 61, 0
14, 166560, Note_on_c, 7, 61, 78
14, 166608, Note_on_c, 7, 61, 0
14, 166608, Note_on_c, 7, 61, 78
14, 166656, Note_on_c, 7, 61, 0
14, 166656, Note_on_c, 7, 66, 78
14, 166848, Note_on_c, 7, 66, 0
14, 166848, Note_on_c, 7, 66, 78
14, 166848, Note_on_c, 7, 54, 59
14, 166944, Note_on_c, 7, 54, 0
14, 166944, Note_on_c, 7, 54, 59
14, 166992, Note_on_c, 7, 54, 0
14, 166992, Note_on_c, 7, 54, 59
14, 167040, Note_on_c, 7, 54, 0
14, 167040, Note_on_c, 7, 66, 0
14, 167040, Note_on_c, 7, 68, 78
14, 167040, Note_on_c, 7, 59, 59
14, 167232, Note_on_c, 7, 59, 0
14, 167232, Note_on_c, 7, 68, 0
14, 167232, Note_on_c, 7, 68, 78
14, 167232, Note_on_c, 7, 59, 59
14, 167424, Note_on_c, 7, 59, 0
14, 167424, Note_on_c, 7, 68, 0
14, 167424, Note_on_c, 7, 69, 78
14, 167424, Note_on_c, 7, 64, 59
14, 167616, Note_on_c, 7, 69, 0
14, 167616, Note_on_c, 7, 67, 78
14, 167712, Note_on_c, 7, 64, 0
14, 167712, Note_on_c, 7, 61, 59
14, 167808, Note_on_c, 7, 61, 0
14, 167808, Note_on_c, 7, 67, 0
14, 167808, Note_on_c, 7, 66, 78
14, 167808, Note_on_c, 7, 58, 59
14, 167904, Note_on_c, 7, 58, 0
14, 167904, Note_on_c, 7, 66, 0
14, 167904, Note_on_c, 7, 64, 78
14, 168000, Note_on_c, 7, 64, 0
14, 168000, Note_on_c, 7, 66, 78
14, 168096, Note_on_c, 7, 66, 0
14, 168096, Note_on_c, 7, 67, 78
14, 168192, Note_on_c, 7, 67, 0
14, 168192, Note_on_c, 7, 66, 78
14, 168480, Note_on_c, 7, 66, 0
14, 168480, Note_on_c, 7, 59, 78
14, 168480, Note_on_c, 7, 66, 78
14, 168528, Note_on_c, 7, 66, 0
14, 168528, Note_on_c, 7, 59, 0
14, 168528, Note_on_c, 7, 66, 78
14, 168528, Note_on_c, 7, 59, 78
14, 168576, Note_on_c, 7, 59, 0
14, 168576, Note_on_c, 7, 66, 0
14, 168576, Note_on_c, 7, 66, 78
14, 168576, Note_on_c, 7, 59, 78
14, 168768, Note_on_c, 7, 59, 0
14, 168768, Note_on_c, 7, 66, 0
14, 168768, Note_on_c, 7, 59, 78
14, 168768, Note_on_c, 7, 66, 78
14, 168960, Note_on_c, 7, 66, 0
14, 168960, Note_on_c, 7, 59, 0
14, 168960, Note_on_c, 7, 68, 78
14, 168960, Note_on_c, 7, 59, 78
14, 169056, Note_on_c, 7, 59, 0
14, 169056, Note_on_c, 7, 68, 0
14, 171936, Note_on_c, 7, 49, 95
14, 171936, Note_on_c, 7, 61, 95
14, 172032, Note_on_c, 7, 61, 0
14, 172032, Note_on_c, 7, 49, 0
14, 172032, Note_on_c, 7, 58, 78
14, 172032, Note_on_c, 7, 55, 78
14, 172032, Note_on_c, 7, 52, 78
14, 172032, Note_on_c, 7, 58, 95
14, 172032, Note_on_c, 7, 37, 95
14, 172032, Note_on_c, 7, 55, 95
14, 172032, Note_on_c, 7, 49, 95
14, 172320, Note_on_c, 7, 49, 0
14, 172320, Note_on_c, 7, 37, 0
14, 172320, Note_on_c, 7, 55, 0
14, 172320, Note_on_c, 7, 52, 0
14, 172320, Note_on_c, 7, 58, 0
14, 172320, Note_on_c, 7, 55, 0
14, 172320, Note_on_c, 7, 58, 0
14, 172320, Note_on_c, 7, 52, 78
14, 172320, Note_on_c, 7, 59, 78
14, 172320, Note_on_c, 7, 55, 78
14, 172320, Note_on_c, 7, 35, 95
14, 172320, Note_on_c, 7, 59, 95
14, 172320, Note_on_c, 7, 47, 95
14, 172320, Note_on_c, 7, 55, 95
14, 172416, Note_on_c, 7, 55, 0
14, 172416, Note_on_c, 7, 59, 0
14, 172416, Note_on_c, 7, 59, 0
14, 172416, Note_on_c, 7, 55, 0
14, 172416, Note_on_c, 7, 52, 0
14, 172416, Note_on_c, 7, 47, 0
14, 172416, Note_on_c, 7, 35, 0
14, 172416, Note_on_c, 7, 61, 78
14, 172416, Note_on_c, 7, 55, 78
14, 172416, Note_on_c, 7, 52, 78
14, 172416, Note_on_c, 7, 55, 95
14, 172416, Note_on_c, 7, 34, 95
14, 172416, Note_on_c, 7, 46, 95
14, 172416, Note_on_c, 7, 61, 95
14, 172512, Note_on_c, 7, 61, 0
14, 172512, Note_on_c, 7, 34, 0
14, 172512, Note_on_c, 7, 55, 0
14, 172512, Note_on_c, 7, 52, 0
14, 172512, Note_on_c, 7, 61, 0
14, 172512, Note_on_c, 7, 46, 0
14, 172512, Note_on_c, 7, 55, 0
14, 172512, Note_on_c, 7, 61, 78
14, 172512, Note_on_c, 7, 55, 78
14, 172512, Note_on_c, 7, 61, 95
14, 172512, Note_on_c, 7, 55, 95
14, 172512, Note_on_c, 7, 46, 95
14, 172608, Note_on_c, 7, 46, 0
14, 172608, Note_on_c, 7, 61, 0
14, 172608, Note_on_c, 7, 61, 0
14, 172608, Note_on_c, 7, 55, 0
14, 172608, Note_on_c, 7, 55, 0
14, 172704, Note_on_c, 7, 64, 78
14, 172704, Note_on_c, 7, 55, 78
14, 172704, Note_on_c, 7, 49, 95
14, 172704, Note_on_c, 7, 64, 95
14, 172704, Note_on_c, 7, 55, 95
14, 172704, Note_on_c, 7, 58, 95
14, 172800, Note_on_c, 7, 58, 0
14, 172800, Note_on_c, 7, 55, 0
14, 172800, Note_on_c, 7, 49, 0
14, 172800, Note_on_c, 7, 64, 0
14, 172800, Note_on_c, 7, 55, 0
14, 172800, Note_on_c, 7, 64, 0
14, 172800, Note_on_c, 7, 58, 78
14, 172800, Note_on_c, 7, 67, 78
14, 172896, Note_on_c, 7, 67, 0
14, 172896, Note_on_c, 7, 58, 0
14, 172896, Note_on_c, 7, 61, 95
14, 172896, Note_on_c, 7, 52, 95
14, 172992, Note_on_c, 7, 52, 0
14, 172992, Note_on_c, 7, 61, 0
14, 172992, Note_on_c, 7, 70, 78
14, 172992, Note_on_c, 7, 61, 78
14, 173088, Note_on_c, 7, 61, 0
14, 173088, Note_on_c, 7, 70, 0
14, 173088, Note_on_c, 7, 55, 95
14, 173088, Note_on_c, 7, 64, 95
14, 173184, Note_on_c, 7, 64, 0
14, 173184, Note_on_c, 7, 55, 0
14, 173184, Note_on_c, 7, 64, 78
14, 173184, Note_on_c, 7, 73, 78
14, 173280, Note_on_c, 7, 73, 0
14, 173280, Note_on_c, 7, 64, 0
14, 173280, Note_on_c, 7, 67, 95
14, 173280, Note_on_c, 7, 58, 95
14, 173376, Note_on_c, 7, 58, 0
14, 173376, Note_on_c, 7, 67, 0
14, 173472, Note_on_c, 7, 58, 95
14, 173472, Note_on_c, 7, 46, 95
14, 173568, Note_on_c, 7, 46, 0
14, 173568, Note_on_c, 7, 58, 0
14, 173568, Note_on_c, 7, 55, 78
14, 173568, Note_on_c, 7, 49, 78
14, 173568, Note_on_c, 7, 52, 78
14, 173568, Note_on_c, 7, 52, 95
14, 173568, Note_on_c, 7, 46, 95
14, 173568, Note_on_c, 7, 55, 95
14, 173568, Note_on_c, 7, 34, 95
14, 173856, Note_on_c, 7, 34, 0
14, 173856, Note_on_c, 7, 46, 0
14, 173856, Note_on_c, 7, 49, 0
14, 173856, Note_on_c, 7, 52, 0
14, 173856, Note_on_c, 7, 55, 0
14, 173856, Note_on_c, 7, 55, 0
14, 173856, Note_on_c, 7, 52, 0
14, 173856, Note_on_c, 7, 56, 78
14, 173856, Note_on_c, 7, 52, 78
14, 173856, Note_on_c, 7, 49, 78
14, 173856, Note_on_c, 7, 52, 95
14, 173856, Note_on_c, 7, 44, 95
14, 173856, Note_on_c, 7, 55, 95
14, 173952, Note_on_c, 7, 55, 0
14, 173952, Note_on_c, 7, 52, 0
14, 173952, Note_on_c, 7, 49, 0
14, 173952, Note_on_c, 7, 56, 0
14, 173952, Note_on_c, 7, 44, 0
14, 173952, Note_on_c, 7, 52, 0
14, 173952, Note_on_c, 7, 52, 78
14, 173952, Note_on_c, 7, 49, 78
14, 173952, Note_on_c, 7, 58, 78
14, 173952, Note_on_c, 7, 57, 95
14, 173952, Note_on_c, 7, 52, 95
14, 173952, Note_on_c, 7, 43, 95
14, 174048, Note_on_c, 7, 43, 0
14, 174048, Note_on_c, 7, 49, 0
14, 174048, Note_on_c, 7, 58, 0
14, 174048, Note_on_c, 7, 52, 0
14, 174048, Note_on_c, 7, 52, 0
14, 174048, Note_on_c, 7, 57, 0
14, 174048, Note_on_c, 7, 49, 78
14, 174048, Note_on_c, 7, 58, 78
14, 174048, Note_on_c, 7, 49, 95
14, 174048, Note_on_c, 7, 52, 95
14, 174048, Note_on_c, 7, 43, 95
14, 174048, Note_on_c, 7, 57, 95
14, 174144, Note_on_c, 7, 57, 0
14, 174144, Note_on_c, 7, 58, 0
14, 174144, Note_on_c, 7, 49, 0
14, 174144, Note_on_c, 7, 49, 0
14, 174144, Note_on_c, 7, 43, 0
14, 174144, Note_on_c, 7, 52, 0
14, 174240, Note_on_c, 7, 61, 78
14, 174240, Note_on_c, 7, 52, 78
14, 174240, Note_on_c, 7, 46, 95
14, 174240, Note_on_c, 7, 55, 95
14, 174240, Note_on_c, 7, 61, 95
14, 174240, Note_on_c, 7, 52, 95
14, 174336, Note_on_c, 7, 52, 0
14, 174336, Note_on_c, 7, 52, 0
14, 174336, Note_on_c, 7, 46, 0
14, 174336, Note_on_c, 7, 61, 0
14, 174336, Note_on_c, 7, 61, 0
14, 174336, Note_on_c, 7, 55, 0
14, 174432, Note_on_c, 7, 55, 78
14, 174432, Note_on_c, 7, 64, 78
14, 174432, Note_on_c, 7, 58, 95
14, 174432, Note_on_c, 7, 49, 95
14, 174528, Note_on_c, 7, 49, 0
14, 174528, Note_on_c, 7, 55, 0
14, 174528, Note_on_c, 7, 64, 0
14, 174528, Note_on_c, 7, 58, 0
14, 174624, Note_on_c, 7, 58, 78
14, 174624, Note_on_c, 7, 67, 78
14, 174624, Note_on_c, 7, 61, 95
14, 174624, Note_on_c, 7, 52, 95
14, 174720, Note_on_c, 7, 52, 0
14, 174720, Note_on_c, 7, 58, 0
14, 174720, Note_on_c, 7, 67, 0
14, 174720, Note_on_c, 7, 61, 0
14, 174816, Note_on_c, 7, 70, 78
14, 174816, Note_on_c, 7, 61, 78
14, 174816, Note_on_c, 7, 55, 95
14, 174816, Note_on_c, 7, 64, 95
14, 174912, Note_on_c, 7, 64, 0
14, 174912, Note_on_c, 7, 70, 0
14, 174912, Note_on_c, 7, 61, 0
14, 174912, Note_on_c, 7, 55, 0
14, 175008, Note_on_c, 7, 64, 95
14, 175008, Note_on_c, 7, 52, 95
14, 175104, Note_on_c, 7, 52, 0
14, 175104, Note_on_c, 7, 64, 0
14, 175104, Note_on_c, 7, 61, 78
14, 175104, Note_on_c, 7, 55, 78
14, 175104, Note_on_c, 7, 58, 78
14, 175104, Note_on_c, 7, 61, 95
14, 175104, Note_on_c, 7, 58, 95
14, 175104, Note_on_c, 7, 40, 95
14, 175104, Note_on_c, 7, 52, 95
14, 175392, Note_on_c, 7, 52, 0
14, 175392, Note_on_c, 7, 58, 0
14, 175392, Note_on_c, 7, 55, 0
14, 175392, Note_on_c, 7, 58, 0
14, 175392, Note_on_c, 7, 61, 0
14, 175392, Note_on_c, 7, 40, 0
14, 175392, Note_on_c, 7, 61, 0
14, 175392, Note_on_c, 7, 58, 78
14, 175392, Note_on_c, 7, 55, 78
14, 175392, Note_on_c, 7, 63, 78
14, 175392, Note_on_c, 7, 63, 95
14, 175392, Note_on_c, 7, 51, 95
14, 175392, Note_on_c, 7, 58, 95
14, 175392, Note_on_c, 7, 39, 95
14, 175488, Note_on_c, 7, 39, 0
14, 175488, Note_on_c, 7, 51, 0
14, 175488, Note_on_c, 7, 55, 0
14, 175488, Note_on_c, 7, 63, 0
14, 175488, Note_on_c, 7, 58, 0
14, 175488, Note_on_c, 7, 58, 0
14, 175488, Note_on_c, 7, 63, 0
14, 175488, Note_on_c, 7, 58, 78
14, 175488, Note_on_c, 7, 55, 78
14, 175488, Note_on_c, 7, 64, 78
14, 175488, Note_on_c, 7, 49, 95
14, 175488, Note_on_c, 7, 58, 95
14, 175488, Note_on_c, 7, 37, 95
14, 175488, Note_on_c, 7, 64, 95
14, 175584, Note_on_c, 7, 64, 0
14, 175584, Note_on_c, 7, 58, 0
14, 175584, Note_on_c, 7, 55, 0
14, 175584, Note_on_c, 7, 64, 0
14, 175584, Note_on_c, 7, 58, 0
14, 175584, Note_on_c, 7, 37, 0
14, 175584, Note_on_c, 7, 49, 0
14, 175584, Note_on_c, 7, 49, 95
14, 175584, Note_on_c, 7, 55, 95
14, 175680, Note_on_c, 7, 55, 0
14, 175680, Note_on_c, 7, 49, 0
14, 175776, Note_on_c, 7, 52, 95
14, 175776, Note_on_c, 7, 58, 95
14, 175872, Note_on_c, 7, 58, 0
14, 175872, Note_on_c, 7, 52, 0
14, 175968, Note_on_c, 7, 55, 95
14, 175968, Note_on_c, 7, 61, 95
14, 176064, Note_on_c, 7, 61, 0
14, 176064, Note_on_c, 7, 55, 0
14, 176160, Note_on_c, 7, 64, 95
14, 176160, Note_on_c, 7, 58, 95
14, 176256, Note_on_c, 7, 58, 0
14, 176256, Note_on_c, 7, 64, 0
14, 176352, Note_on_c, 7, 67, 95
14, 176352, Note_on_c, 7, 61, 95
14, 176448, Note_on_c, 7, 61, 0
14, 176448, Note_on_c, 7, 67, 0
14, 176544, Note_on_c, 7, 49, 95
14, 176544, Note_on_c, 7, 61, 95
14, 176640, Note_on_c, 7, 61, 0
14, 176640, Note_on_c, 7, 49, 0
14, 176640, Note_on_c, 7, 52, 78
14, 176640, Note_on_c, 7, 58, 78
14, 176640, Note_on_c, 7, 55, 78
14, 176640, Note_on_c, 7, 37, 95
14, 176640, Note_on_c, 7, 55, 95
14, 176640, Note_on_c, 7, 58, 95
14, 176640, Note_on_c, 7, 49, 95
14, 176928, Note_on_c, 7, 49, 0
14, 176928, Note_on_c, 7, 55, 0
14, 176928, Note_on_c, 7, 58, 0
14, 176928, Note_on_c, 7, 55, 0
14, 176928, Note_on_c, 7, 52, 0
14, 176928, Note_on_c, 7, 58, 0
14, 176928, Note_on_c, 7, 37, 0
14, 176928, Note_on_c, 7, 59, 78
14, 176928, Note_on_c, 7, 55, 78
14, 176928, Note_on_c, 7, 52, 78
14, 176928, Note_on_c, 7, 55, 95
14, 176928, Note_on_c, 7, 35, 95
14, 176928, Note_on_c, 7, 59, 95
14, 176928, Note_on_c, 7, 47, 95
14, 177024, Note_on_c, 7, 47, 0
14, 177024, Note_on_c, 7, 35, 0
14, 177024, Note_on_c, 7, 55, 0
14, 177024, Note_on_c, 7, 52, 0
14, 177024, Note_on_c, 7, 59, 0
14, 177024, Note_on_c, 7, 59, 0
14, 177024, Note_on_c, 7, 55, 0
14, 177024, Note_on_c, 7, 61, 78
14, 177024, Note_on_c, 7, 58, 78
14, 177024, Note_on_c, 7, 55, 78
14, 177024, Note_on_c, 7, 52, 78
14, 177024, Note_on_c, 7, 61, 95
14, 177024, Note_on_c, 7, 46, 95
14, 177024, Note_on_c, 7, 34, 95
14, 177024, Note_on_c, 7, 55, 95
14, 177120, Note_on_c, 7, 55, 0
14, 177120, Note_on_c, 7, 61, 0
14, 177120, Note_on_c, 7, 61, 0
14, 177120, Note_on_c, 7, 58, 0
14, 177120, Note_on_c, 7, 55, 0
14, 177120, Note_on_c, 7, 52, 0
14, 177120, Note_on_c, 7, 46, 0
14, 177120, Note_on_c, 7, 34, 0
14, 177120, Note_on_c, 7, 52, 78
14, 177120, Note_on_c, 7, 61, 78
14, 177216, Note_on_c, 7, 61, 0
14, 177216, Note_on_c, 7, 52, 0
14, 177312, Note_on_c, 7, 61, 95
14, 177312, Note_on_c, 7, 49, 95
14, 177408, Note_on_c, 7, 49, 0
14, 177408, Note_on_c, 7, 61, 0
14, 177408, Note_on_c, 7, 52, 78
14, 177408, Note_on_c, 7, 58, 78
14, 177408, Note_on_c, 7, 55, 78
14, 177408, Note_on_c, 7, 49, 95
14, 177408, Note_on_c, 7, 37, 95
14, 177408, Note_on_c, 7, 55, 95
14, 177408, Note_on_c, 7, 58, 95
14, 177696, Note_on_c, 7, 58, 0
14, 177696, Note_on_c, 7, 37, 0
14, 177696, Note_on_c, 7, 58, 0
14, 177696, Note_on_c, 7, 55, 0
14, 177696, Note_on_c, 7, 52, 0
14, 177696, Note_on_c, 7, 55, 0
14, 177696, Note_on_c, 7, 49, 0
14, 177696, Note_on_c, 7, 59, 78
14, 177696, Note_on_c, 7, 55, 78
14, 177696, Note_on_c, 7, 52, 78
14, 177696, Note_on_c, 7, 47, 95
14, 177696, Note_on_c, 7, 55, 95
14, 177696, Note_on_c, 7, 59, 95
14, 177696, Note_on_c, 7, 35, 95
14, 177792, Note_on_c, 7, 35, 0
14, 177792, Note_on_c, 7, 55, 0
14, 177792, Note_on_c, 7, 55, 0
14, 177792, Note_on_c, 7, 52, 0
14, 177792, Note_on_c, 7, 59, 0
14, 177792, Note_on_c, 7, 59, 0
14, 177792, Note_on_c, 7, 47, 0
14, 177792, Note_on_c, 7, 61, 78
14, 177792, Note_on_c, 7, 58, 78
14, 177792, Note_on_c, 7, 55, 78
14, 177792, Note_on_c, 7, 52, 78
14, 177792, Note_on_c, 7, 46, 95
14, 177792, Note_on_c, 7, 34, 95
14, 177792, Note_on_c, 7, 55, 95
14, 177792, Note_on_c, 7, 61, 95
14, 177888, Note_on_c, 7, 61, 0
14, 177888, Note_on_c, 7, 61, 0
14, 177888, Note_on_c, 7, 46, 0
14, 177888, Note_on_c, 7, 58, 0
14, 177888, Note_on_c, 7, 55, 0
14, 177888, Note_on_c, 7, 52, 0
14, 177888, Note_on_c, 7, 34, 0
14, 177888, Note_on_c, 7, 55, 0
14, 177888, Note_on_c, 7, 61, 78
14, 177888, Note_on_c, 7, 52, 78
14, 177984, Note_on_c, 7, 52, 0
14, 177984, Note_on_c, 7, 61, 0
14, 178080, Note_on_c, 7, 49, 95
14, 178080, Note_on_c, 7, 61, 95
14, 178176, Note_on_c, 7, 61, 0
14, 178176, Note_on_c, 7, 49, 0
14, 178176, Note_on_c, 7, 59, 78
14, 178176, Note_on_c, 7, 56, 78
14, 178176, Note_on_c, 7, 53, 78
14, 178176, Note_on_c, 7, 38, 95
14, 178176, Note_on_c, 7, 48, 95
14, 178176, Note_on_c, 7, 56, 95
14, 178176, Note_on_c, 7, 59, 95
14, 178464, Note_on_c, 7, 59, 0
14, 178464, Note_on_c, 7, 48, 0
14, 178464, Note_on_c, 7, 56, 0
14, 178464, Note_on_c, 7, 53, 0
14, 178464, Note_on_c, 7, 59, 0
14, 178464, Note_on_c, 7, 56, 0
14, 178464, Note_on_c, 7, 38, 0
14, 178464, Note_on_c, 7, 56, 78
14, 178464, Note_on_c, 7, 53, 78
14, 178464, Note_on_c, 7, 61, 78
14, 178464, Note_on_c, 7, 61, 95
14, 178464, Note_on_c, 7, 55, 95
14, 178464, Note_on_c, 7, 35, 95
14, 178464, Note_on_c, 7, 47, 95
14, 178560, Note_on_c, 7, 47, 0
14, 178560, Note_on_c, 7, 55, 0
14, 178560, Note_on_c, 7, 53, 0
14, 178560, Note_on_c, 7, 61, 0
14, 178560, Note_on_c, 7, 56, 0
14, 178560, Note_on_c, 7, 35, 0
14, 178560, Note_on_c, 7, 61, 0
14, 178560, Note_on_c, 7, 62, 78
14, 178560, Note_on_c, 7, 58, 78
14, 178560, Note_on_c, 7, 56, 78
14, 178560, Note_on_c, 7, 53, 78
14, 178560, Note_on_c, 7, 62, 95
14, 178560, Note_on_c, 7, 55, 95
14, 178560, Note_on_c, 7, 46, 95
14, 178560, Note_on_c, 7, 34, 95
14, 178656, Note_on_c, 7, 34, 0
14, 178656, Note_on_c, 7, 62, 0
14, 178656, Note_on_c, 7, 62, 0
14, 178656, Note_on_c, 7, 58, 0
14, 178656, Note_on_c, 7, 56, 0
14, 178656, Note_on_c, 7, 53, 0
14, 178656, Note_on_c, 7, 55, 0
14, 178656, Note_on_c, 7, 46, 0
14, 178656, Note_on_c, 7, 62, 78
14, 178656, Note_on_c, 7, 53, 78
14, 178752, Note_on_c, 7, 53, 0
14, 178752, Note_on_c, 7, 62, 0
14, 178848, Note_on_c, 7, 62, 95
14, 178848, Note_on_c, 7, 50, 95
14, 178944, Note_on_c, 7, 50, 0
14, 178944, Note_on_c, 7, 62, 0
14, 178944, Note_on_c, 7, 60, 78
14, 178944, Note_on_c, 7, 57, 78
14, 178944, Note_on_c, 7, 54, 78
14, 178944, Note_on_c, 7, 57, 95
14, 178944, Note_on_c, 7, 39, 95
14, 178944, Note_on_c, 7, 60, 95
14, 178944, Note_on_c, 7, 51, 95
14, 179232, Note_on_c, 7, 51, 0
14, 179232, Note_on_c, 7, 39, 0
14, 179232, Note_on_c, 7, 57, 0
14, 179232, Note_on_c, 7, 54, 0
14, 179232, Note_on_c, 7, 60, 0
14, 179232, Note_on_c, 7, 60, 0
14, 179232, Note_on_c, 7, 57, 0
14, 179232, Note_on_c, 7, 57, 78
14, 179232, Note_on_c, 7, 54, 78
14, 179232, Note_on_c, 7, 62, 78
14, 179232, Note_on_c, 7, 50, 95
14, 179232, Note_on_c, 7, 62, 95
14, 179232, Note_on_c, 7, 38, 95
14, 179232, Note_on_c, 7, 57, 95
14, 179328, Note_on_c, 7, 57, 0
14, 179328, Note_on_c, 7, 62, 0
14, 179328, Note_on_c, 7, 54, 0
14, 179328, Note_on_c, 7, 62, 0
14, 179328, Note_on_c, 7, 57, 0
14, 179328, Note_on_c, 7, 38, 0
14, 179328, Note_on_c, 7, 50, 0
14, 179328, Note_on_c, 7, 54, 78
14, 179328, Note_on_c, 7, 63, 78
14, 179328, Note_on_c, 7, 57, 78
14, 179328, Note_on_c, 7, 63, 95
14, 179328, Note_on_c, 7, 57, 95
14, 179328, Note_on_c, 7, 48, 95
14, 179328, Note_on_c, 7, 36, 95
14, 179424, Note_on_c, 7, 36, 0
14, 179424, Note_on_c, 7, 57, 0
14, 179424, Note_on_c, 7, 63, 0
14, 179424, Note_on_c, 7, 57, 0
14, 179424, Note_on_c, 7, 54, 0
14, 179424, Note_on_c, 7, 48, 0
14, 179424, Note_on_c, 7, 63, 0
14, 179424, Note_on_c, 7, 54, 78
14, 179424, Note_on_c, 7, 63, 78
14, 179424, Note_on_c, 7, 63, 95
14, 179424, Note_on_c, 7, 60, 95
14, 179424, Note_on_c, 7, 54, 95
14, 179424, Note_on_c, 7, 48, 95
14, 179520, Note_on_c, 7, 48, 0
14, 179520, Note_on_c, 7, 63, 0
14, 179520, Note_on_c, 7, 63, 0
14, 179520, Note_on_c, 7, 54, 0
14, 179520, Note_on_c, 7, 54, 0
14, 179520, Note_on_c, 7, 60, 0
14, 179616, Note_on_c, 7, 66, 78
14, 179616, Note_on_c, 7, 57, 78
14, 179616, Note_on_c, 7, 57, 95
14, 179616, Note_on_c, 7, 60, 95
14, 179616, Note_on_c, 7, 66, 95
14, 179616, Note_on_c, 7, 51, 95
14, 179712, Note_on_c, 7, 51, 0
14, 179712, Note_on_c, 7, 57, 0
14, 179712, Note_on_c, 7, 57, 0
14, 179712, Note_on_c, 7, 66, 0
14, 179712, Note_on_c, 7, 66, 0
14, 179712, Note_on_c, 7, 60, 0
14, 179712, Note_on_c, 7, 60, 78
14, 179712, Note_on_c, 7, 54, 78
14, 179808, Note_on_c, 7, 54, 0
14, 179808, Note_on_c, 7, 60, 0
14, 179808, Note_on_c, 7, 60, 95
14, 179808, Note_on_c, 7, 54, 95
14, 179904, Note_on_c, 7, 54, 0
14, 179904, Note_on_c, 7, 60, 0
14, 179904, Note_on_c, 7, 57, 78
14, 179904, Note_on_c, 7, 63, 78
14, 180000, Note_on_c, 7, 63, 0
14, 180000, Note_on_c, 7, 57, 0
14, 180000, Note_on_c, 7, 57, 95
14, 180000, Note_on_c, 7, 63, 95
14, 180096, Note_on_c, 7, 63, 0
14, 180096, Note_on_c, 7, 57, 0
14, 180096, Note_on_c, 7, 66, 78
14, 180096, Note_on_c, 7, 60, 78
14, 180192, Note_on_c, 7, 60, 0
14, 180192, Note_on_c, 7, 66, 0
14, 180192, Note_on_c, 7, 66, 95
14, 180192, Note_on_c, 7, 60, 95
14, 180288, Note_on_c, 7, 60, 0
14, 180288, Note_on_c, 7, 66, 0
14, 180288, Note_on_c, 7, 63, 95
14, 180384, Note_on_c, 7, 48, 95
14, 180384, Note_on_c, 7, 60, 95
14, 180480, Note_on_c, 7, 60, 0
14, 180480, Note_on_c, 7, 48, 0
14, 180480, Note_on_c, 7, 36, 95
14, 180480, Note_on_c, 7, 48, 95
14, 180576, Note_on_c, 7, 63, 0
14, 180576, Note_on_c, 7, 51, 95
14, 180672, Note_on_c, 7, 51, 0
14, 180672, Note_on_c, 7, 63, 95
14, 180768, Note_on_c, 7, 48, 0
14, 180768, Note_on_c, 7, 36, 0
14, 180768, Note_on_c, 7, 60, 95
14, 180768, Note_on_c, 7, 48, 95
14, 180864, Note_on_c, 7, 48, 0
14, 180864, Note_on_c, 7, 60, 0
14, 180864, Note_on_c, 7, 35, 95
14, 180864, Note_on_c, 7, 47, 95
14, 180960, Note_on_c, 7, 63, 0
14, 180960, Note_on_c, 7, 51, 95
14, 181056, Note_on_c, 7, 51, 0
14, 181056, Note_on_c, 7, 63, 95
14, 181152, Note_on_c, 7, 47, 0
14, 181152, Note_on_c, 7, 35, 0
14, 181152, Note_on_c, 7, 47, 95
14, 181152, Note_on_c, 7, 59, 95
14, 181248, Note_on_c, 7, 59, 0
14, 181248, Note_on_c, 7, 47, 0
14, 181248, Note_on_c, 7, 63, 0
14, 181248, Note_on_c, 7, 63, 78
14, 181248, Note_on_c, 7, 66, 78
14, 181248, Note_on_c, 7, 58, 78
14, 181248, Note_on_c, 7, 54, 78
14, 181248, Note_on_c, 7, 34, 95
14, 181248, Note_on_c, 7, 46, 95
14, 181344, Note_on_c, 7, 46, 0
14, 181344, Note_on_c, 7, 66, 0
14, 181344, Note_on_c, 7, 58, 0
14, 181344, Note_on_c, 7, 63, 0
14, 181344, Note_on_c, 7, 34, 0
14, 181344, Note_on_c, 7, 54, 0
14, 181344, Note_on_c, 7, 34, 95
14, 181344, Note_on_c, 7, 54, 95
14, 181344, Note_on_c, 7, 58, 95
14, 181344, Note_on_c, 7, 46, 95
14, 181440, Note_on_c, 7, 46, 0
14, 181440, Note_on_c, 7, 34, 0
14, 181440, Note_on_c, 7, 54, 0
14, 181440, Note_on_c, 7, 58, 0
14, 181440, Note_on_c, 7, 66, 78
14, 181440, Note_on_c, 7, 63, 78
14, 181440, Note_on_c, 7, 58, 78
14, 181440, Note_on_c, 7, 54, 78
14, 181536, Note_on_c, 7, 54, 0
14, 181536, Note_on_c, 7, 66, 0
14, 181536, Note_on_c, 7, 63, 0
14, 181536, Note_on_c, 7, 58, 0
14, 181536, Note_on_c, 7, 54, 95
14, 181536, Note_on_c, 7, 34, 95
14, 181536, Note_on_c, 7, 58, 95
14, 181536, Note_on_c, 7, 46, 95
14, 181632, Note_on_c, 7, 46, 0
14, 181632, Note_on_c, 7, 54, 0
14, 181632, Note_on_c, 7, 34, 0
14, 181632, Note_on_c, 7, 58, 0
14, 181632, Note_on_c, 7, 63, 78
14, 181632, Note_on_c, 7, 54, 78
14, 181632, Note_on_c, 7, 66, 78
14, 181632, Note_on_c, 7, 58, 78
14, 181728, Note_on_c, 7, 58, 0
14, 181728, Note_on_c, 7, 63, 0
14, 181728, Note_on_c, 7, 54, 0
14, 181728, Note_on_c, 7, 66, 0
14, 181728, Note_on_c, 7, 54, 95
14, 181728, Note_on_c, 7, 34, 95
14, 181728, Note_on_c, 7, 58, 95
14, 181728, Note_on_c, 7, 46, 95
14, 181824, Note_on_c, 7, 46, 0
14, 181824, Note_on_c, 7, 54, 0
14, 181824, Note_on_c, 7, 34, 0
14, 181824, Note_on_c, 7, 58, 0
14, 181824, Note_on_c, 7, 63, 78
14, 181824, Note_on_c, 7, 66, 78
14, 181824, Note_on_c, 7, 54, 78
14, 181824, Note_on_c, 7, 58, 78
14, 181920, Note_on_c, 7, 58, 0
14, 181920, Note_on_c, 7, 63, 0
14, 181920, Note_on_c, 7, 66, 0
14, 181920, Note_on_c, 7, 54, 0
14, 181920, Note_on_c, 7, 46, 95
14, 181920, Note_on_c, 7, 34, 95
14, 181920, Note_on_c, 7, 54, 95
14, 181920, Note_on_c, 7, 58, 95
14, 182016, Note_on_c, 7, 58, 0
14, 182016, Note_on_c, 7, 46, 0
14, 182016, Note_on_c, 7, 34, 0
14, 182016, Note_on_c, 7, 54, 0
14, 182016, Note_on_c, 7, 59, 78
14, 182016, Note_on_c, 7, 71, 78
14, 182016, Note_on_c, 7, 66, 78
14, 182016, Note_on_c, 7, 54, 78
14, 182112, Note_on_c, 7, 54, 0
14, 182112, Note_on_c, 7, 59, 0
14, 182112, Note_on_c, 7, 71, 0
14, 182112, Note_on_c, 7, 66, 0
14, 182112, Note_on_c, 7, 45, 95
14, 182112, Note_on_c, 7, 54, 95
14, 182112, Note_on_c, 7, 33, 95
14, 182112, Note_on_c, 7, 63, 95
14, 182208, Note_on_c, 7, 63, 0
14, 182208, Note_on_c, 7, 45, 0
14, 182208, Note_on_c, 7, 54, 0
14, 182208, Note_on_c, 7, 33, 0
14, 182784, Note_on_c, 7, 53, 95
14, 182784, Note_on_c, 7, 44, 95
14, 182784, Note_on_c, 7, 32, 95
14, 182880, Note_on_c, 7, 32, 0
14, 182880, Note_on_c, 7, 44, 0
14, 182880, Note_on_c, 7, 53, 0
14, 182880, Note_on_c, 7, 56, 95
14, 182880, Note_on_c, 7, 65, 95
14, 182880, Note_on_c, 7, 44, 95
14, 182976, Note_on_c, 7, 44, 0
14, 182976, Note_on_c, 7, 65, 0
14, 182976, Note_on_c, 7, 56, 0
14, 182976, Note_on_c, 7, 44, 78
14, 182976, Note_on_c, 7, 56, 78
14, 182976, Note_on_c, 7, 68, 78
14, 183072, Note_on_c, 7, 68, 0
14, 183072, Note_on_c, 7, 56, 0
14, 183072, Note_on_c, 7, 44, 0
14, 183456, Note_on_c, 7, 56, 78
14, 183456, Note_on_c, 7, 65, 78
14, 183456, Note_on_c, 7, 51, 78
14, 183456, Note_on_c, 7, 59, 78
14, 183456, Note_on_c, 7, 59, 95
14, 183456, Note_on_c, 7, 56, 95
14, 183456, Note_on_c, 7, 51, 95
14, 183552, Note_on_c, 7, 51, 0
14, 183552, Note_on_c, 7, 59, 0
14, 183552, Note_on_c, 7, 65, 0
14, 183552, Note_on_c, 7, 51, 0
14, 183552, Note_on_c, 7, 56, 0
14, 183552, Note_on_c, 7, 56, 0
14, 183552, Note_on_c, 7, 59, 0
14, 183648, Note_on_c, 7, 65, 78
14, 183648, Note_on_c, 7, 56, 78
14, 183648, Note_on_c, 7, 68, 78
14, 183648, Note_on_c, 7, 63, 78
14, 183648, Note_on_c, 7, 56, 95
14, 183648, Note_on_c, 7, 47, 95
14, 183648, Note_on_c, 7, 53, 95
14, 183744, Note_on_c, 7, 53, 0
14, 183744, Note_on_c, 7, 56, 0
14, 183744, Note_on_c, 7, 56, 0
14, 183744, Note_on_c, 7, 68, 0
14, 183744, Note_on_c, 7, 65, 0
14, 183744, Note_on_c, 7, 47, 0
14, 183744, Note_on_c, 7, 63, 0
14, 183840, Note_on_c, 7, 65, 78
14, 183840, Note_on_c, 7, 71, 78
14, 183840, Note_on_c, 7, 59, 78
14, 183840, Note_on_c, 7, 63, 78
14, 183840, Note_on_c, 7, 44, 95
14, 183840, Note_on_c, 7, 53, 95
14, 183840, Note_on_c, 7, 51, 95
14, 183936, Note_on_c, 7, 51, 0
14, 183936, Note_on_c, 7, 44, 0
14, 183936, Note_on_c, 7, 71, 0
14, 183936, Note_on_c, 7, 59, 0
14, 183936, Note_on_c, 7, 65, 0
14, 183936, Note_on_c, 7, 53, 0
14, 183936, Note_on_c, 7, 63, 0
14, 184032, Note_on_c, 7, 56, 78
14, 184032, Note_on_c, 7, 59, 78
14, 184032, Note_on_c, 7, 39, 95
14, 184032, Note_on_c, 7, 53, 95
14, 184032, Note_on_c, 7, 56, 95
14, 184032, Note_on_c, 7, 51, 95
14, 184128, Note_on_c, 7, 51, 0
14, 184128, Note_on_c, 7, 59, 0
14, 184128, Note_on_c, 7, 39, 0
14, 184128, Note_on_c, 7, 56, 0
14, 184128, Note_on_c, 7, 56, 0
14, 184128, Note_on_c, 7, 53, 0
14, 184128, Note_on_c, 7, 56, 78
14, 184128, Note_on_c, 7, 53, 78
14, 184128, Note_on_c, 7, 58, 78
14, 184128, Note_on_c, 7, 50, 78
14, 184128, Note_on_c, 7, 53, 95
14, 184128, Note_on_c, 7, 38, 95
14, 184128, Note_on_c, 7, 50, 95
14, 184128, Note_on_c, 7, 56, 95
14, 184224, Note_on_c, 7, 56, 0
14, 184224, Note_on_c, 7, 56, 0
14, 184224, Note_on_c, 7, 53, 0
14, 184224, Note_on_c, 7, 53, 0
14, 184224, Note_on_c, 7, 58, 0
14, 184224, Note_on_c, 7, 50, 0
14, 184224, Note_on_c, 7, 38, 0
14, 184224, Note_on_c, 7, 50, 0
14, 184416, Note_on_c, 7, 58, 95
14, 184416, Note_on_c, 7, 42, 95
14, 184416, Note_on_c, 7, 54, 95
14, 184512, Note_on_c, 7, 54, 0
14, 184512, Note_on_c, 7, 42, 0
14, 184512, Note_on_c, 7, 58, 0
14, 184512, Note_on_c, 7, 68, 78
14, 184512, Note_on_c, 7, 58, 78
14, 184512, Note_on_c, 7, 70, 78
14, 184512, Note_on_c, 7, 56, 78
14, 184512, Note_on_c, 7, 53, 95
14, 184512, Note_on_c, 7, 58, 95
14, 184512, Note_on_c, 7, 41, 95
14, 184512, Note_on_c, 7, 56, 95
14, 184608, Note_on_c, 7, 56, 0
14, 184608, Note_on_c, 7, 68, 0
14, 184608, Note_on_c, 7, 53, 0
14, 184608, Note_on_c, 7, 58, 0
14, 184608, Note_on_c, 7, 70, 0
14, 184608, Note_on_c, 7, 56, 0
14, 184608, Note_on_c, 7, 58, 0
14, 184608, Note_on_c, 7, 41, 0
14, 184800, Note_on_c, 7, 58, 78
14, 184800, Note_on_c, 7, 70, 78
14, 184800, Note_on_c, 7, 54, 95
14, 184800, Note_on_c, 7, 39, 95
14, 184800, Note_on_c, 7, 63, 95
14, 184800, Note_on_c, 7, 51, 95
14, 184896, Note_on_c, 7, 51, 0
14, 184896, Note_on_c, 7, 70, 0
14, 184896, Note_on_c, 7, 54, 0
14, 184896, Note_on_c, 7, 58, 0
14, 184896, Note_on_c, 7, 63, 0
14, 184896, Note_on_c, 7, 39, 0
14, 184896, Note_on_c, 7, 70, 78
14, 184896, Note_on_c, 7, 58, 78
14, 184896, Note_on_c, 7, 49, 95
14, 184896, Note_on_c, 7, 63, 95
14, 184896, Note_on_c, 7, 37, 95
14, 184896, Note_on_c, 7, 54, 95
14, 184992, Note_on_c, 7, 54, 0
14, 184992, Note_on_c, 7, 58, 0
14, 184992, Note_on_c, 7, 49, 0
14, 184992, Note_on_c, 7, 70, 0
14, 184992, Note_on_c, 7, 37, 0
14, 184992, Note_on_c, 7, 63, 0
14, 185184, Note_on_c, 7, 56, 78
14, 185184, Note_on_c, 7, 68, 78
14, 185184, Note_on_c, 7, 51, 95
14, 185184, Note_on_c, 7, 63, 95
14, 185184, Note_on_c, 7, 59, 95
14, 185184, Note_on_c, 7, 39, 95
14, 185280, Note_on_c, 7, 39, 0
14, 185280, Note_on_c, 7, 68, 0
14, 185280, Note_on_c, 7, 51, 0
14, 185280, Note_on_c, 7, 56, 0
14, 185280, Note_on_c, 7, 59, 0
14, 185280, Note_on_c, 7, 63, 0
14, 185280, Note_on_c, 7, 70, 78
14, 185280, Note_on_c, 7, 58, 78
14, 185280, Note_on_c, 7, 61, 95
14, 185280, Note_on_c, 7, 37, 95
14, 185280, Note_on_c, 7, 63, 95
14, 185280, Note_on_c, 7, 49, 95
14, 185376, Note_on_c, 7, 49, 0
14, 185376, Note_on_c, 7, 58, 0
14, 185376, Note_on_c, 7, 61, 0
14, 185376, Note_on_c, 7, 70, 0
14, 185376, Note_on_c, 7, 63, 0
14, 185376, Note_on_c, 7, 37, 0
14, 185568, Note_on_c, 7, 68, 78
14, 185568, Note_on_c, 7, 63, 78
14, 185568, Note_on_c, 7, 59, 78
14, 185568, Note_on_c, 7, 63, 95
14, 185568, Note_on_c, 7, 32, 95
14, 185568, Note_on_c, 7, 44, 95
14, 185568, Note_on_c, 7, 59, 95
14, 185664, Note_on_c, 7, 59, 0
14, 185664, Note_on_c, 7, 32, 0
14, 185664, Note_on_c, 7, 63, 0
14, 185664, Note_on_c, 7, 59, 0
14, 185664, Note_on_c, 7, 68, 0
14, 185664, Note_on_c, 7, 44, 0
14, 185664, Note_on_c, 7, 63, 0
14, 185664, Note_on_c, 7, 66, 78
14, 185664, Note_on_c, 7, 63, 78
14, 185664, Note_on_c, 7, 71, 78
14, 185664, Note_on_c, 7, 59, 78
14, 185664, Note_on_c, 7, 45, 95
14, 185664, Note_on_c, 7, 33, 95
14, 185664, Note_on_c, 7, 59, 95
14, 185664, Note_on_c, 7, 63, 95
14, 185760, Note_on_c, 7, 63, 0
14, 185760, Note_on_c, 7, 66, 0
14, 185760, Note_on_c, 7, 45, 0
14, 185760, Note_on_c, 7, 63, 0
14, 185760, Note_on_c, 7, 71, 0
14, 185760, Note_on_c, 7, 59, 0
14, 185760, Note_on_c, 7, 33, 0
14, 185760, Note_on_c, 7, 59, 0
14, 185952, Note_on_c, 7, 71, 78
14, 185952, Note_on_c, 7, 63, 78
14, 185952, Note_on_c, 7, 59, 78
14, 185952, Note_on_c, 7, 66, 78
14, 185952, Note_on_c, 7, 63, 95
14, 185952, Note_on_c, 7, 33, 95
14, 185952, Note_on_c, 7, 59, 95
14, 185952, Note_on_c, 7, 45, 95
14, 186048, Note_on_c, 7, 45, 0
14, 186048, Note_on_c, 7, 71, 0
14, 186048, Note_on_c, 7, 63, 0
14, 186048, Note_on_c, 7, 63, 0
14, 186048, Note_on_c, 7, 59, 0
14, 186048, Note_on_c, 7, 66, 0
14, 186048, Note_on_c, 7, 33, 0
14, 186048, Note_on_c, 7, 59, 0
14, 186048, Note_on_c, 7, 63, 78
14, 186048, Note_on_c, 7, 70, 78
14, 186048, Note_on_c, 7, 66, 78
14, 186048, Note_on_c, 7, 58, 78
14, 186048, Note_on_c, 7, 58, 95
14, 186048, Note_on_c, 7, 63, 95
14, 186048, Note_on_c, 7, 34, 95
14, 186048, Note_on_c, 7, 46, 95
14, 186144, Note_on_c, 7, 46, 0
14, 186144, Note_on_c, 7, 63, 0
14, 186144, Note_on_c, 7, 58, 0
14, 186144, Note_on_c, 7, 70, 0
14, 186144, Note_on_c, 7, 66, 0
14, 186144, Note_on_c, 7, 58, 0
14, 186144, Note_on_c, 7, 63, 0
14, 186144, Note_on_c, 7, 34, 0
14, 186336, Note_on_c, 7, 47, 78
14, 186336, Note_on_c, 7, 54, 78
14, 186336, Note_on_c, 7, 63, 78
14, 186336, Note_on_c, 7, 57, 78
14, 186336, Note_on_c, 7, 35, 95
14, 186336, Note_on_c, 7, 57, 95
14, 186336, Note_on_c, 7, 47, 95
14, 186336, Note_on_c, 7, 63, 95
14, 186528, Note_on_c, 7, 63, 0
14, 186528, Note_on_c, 7, 47, 0
14, 186528, Note_on_c, 7, 35, 0
14, 186528, Note_on_c, 7, 54, 0
14, 186528, Note_on_c, 7, 63, 0
14, 186528, Note_on_c, 7, 57, 0
14, 186528, Note_on_c, 7, 57, 0
14, 186528, Note_on_c, 7, 47, 0
14, 186528, Note_on_c, 7, 54, 78
14, 186528, Note_on_c, 7, 62, 78
14, 186528, Note_on_c, 7, 48, 78
14, 186528, Note_on_c, 7, 57, 78
14, 186528, Note_on_c, 7, 57, 95
14, 186528, Note_on_c, 7, 62, 95
14, 186528, Note_on_c, 7, 36, 95
14, 186528, Note_on_c, 7, 48, 95
14, 186720, Note_on_c, 7, 48, 0
14, 186720, Note_on_c, 7, 54, 0
14, 186720, Note_on_c, 7, 57, 0
14, 186720, Note_on_c, 7, 62, 0
14, 186720, Note_on_c, 7, 48, 0
14, 186720, Note_on_c, 7, 57, 0
14, 186720, Note_on_c, 7, 62, 0
14, 186720, Note_on_c, 7, 36, 0
14, 186720, Note_on_c, 7, 57, 78
14, 186720, Note_on_c, 7, 54, 78
14, 186720, Note_on_c, 7, 61, 78
14, 186720, Note_on_c, 7, 49, 78
14, 186720, Note_on_c, 7, 57, 95
14, 186720, Note_on_c, 7, 61, 95
14, 186720, Note_on_c, 7, 37, 95
14, 186720, Note_on_c, 7, 49, 95
14, 186912, Note_on_c, 7, 49, 0
14, 186912, Note_on_c, 7, 57, 0
14, 186912, Note_on_c, 7, 57, 0
14, 186912, Note_on_c, 7, 54, 0
14, 186912, Note_on_c, 7, 61, 0
14, 186912, Note_on_c, 7, 49, 0
14, 186912, Note_on_c, 7, 61, 0
14, 186912, Note_on_c, 7, 37, 0
14, 186912, Note_on_c, 7, 60, 78
14, 186912, Note_on_c, 7, 57, 78
14, 186912, Note_on_c, 7, 54, 78
14, 186912, Note_on_c, 7, 51, 78
14, 186912, Note_on_c, 7, 51, 95
14, 186912, Note_on_c, 7, 39, 95
14, 186912, Note_on_c, 7, 57, 95
14, 186912, Note_on_c, 7, 60, 95
14, 187008, Note_on_c, 7, 60, 0
14, 187008, Note_on_c, 7, 60, 0
14, 187008, Note_on_c, 7, 51, 0
14, 187008, Note_on_c, 7, 57, 0
14, 187008, Note_on_c, 7, 54, 0
14, 187008, Note_on_c, 7, 51, 0
14, 187008, Note_on_c, 7, 39, 0
14, 187008, Note_on_c, 7, 57, 0
14, 187008, Note_on_c, 7, 61, 78
14, 187008, Note_on_c, 7, 54, 78
14, 187008, Note_on_c, 7, 52, 78
14, 187008, Note_on_c, 7, 58, 78
14, 187008, Note_on_c, 7, 40, 95
14, 187008, Note_on_c, 7, 61, 95
14, 187008, Note_on_c, 7, 52, 95
14, 187008, Note_on_c, 7, 58, 95
14, 187104, Note_on_c, 7, 58, 0
14, 187104, Note_on_c, 7, 61, 0
14, 187104, Note_on_c, 7, 40, 0
14, 187104, Note_on_c, 7, 54, 0
14, 187104, Note_on_c, 7, 52, 0
14, 187104, Note_on_c, 7, 58, 0
14, 187104, Note_on_c, 7, 61, 0
14, 187104, Note_on_c, 7, 52, 0
14, 187104, Note_on_c, 7, 54, 78
14, 187152, Note_on_c, 7, 54, 0
14, 187152, Note_on_c, 7, 54, 78
14, 187200, Note_on_c, 7, 54, 0
14, 187200, Note_on_c, 7, 54, 78
14, 187296, Note_on_c, 7, 54, 0
14, 187296, Note_on_c, 7, 54, 78
14, 187392, Note_on_c, 7, 54, 0
14, 187392, Note_on_c, 7, 51, 78
14, 187392, Note_on_c, 7, 59, 78
14, 187584, Note_on_c, 7, 59, 0
14, 187584, Note_on_c, 7, 51, 0
14, 187584, Note_on_c, 7, 51, 78
14, 187584, Note_on_c, 7, 59, 78
14, 187776, Note_on_c, 7, 59, 0
14, 187776, Note_on_c, 7, 51, 0
14, 187776, Note_on_c, 7, 61, 78
14, 187776, Note_on_c, 7, 54, 78
14, 187968, Note_on_c, 7, 54, 0
14, 187968, Note_on_c, 7, 61, 0
14, 187968, Note_on_c, 7, 61, 78
14, 187968, Note_on_c, 7, 54, 78
14, 188160, Note_on_c, 7, 54, 0
14, 188160, Note_on_c, 7, 61, 0
14, 188160, Note_on_c, 7, 66, 78
14, 188160, Note_on_c, 7, 63, 78
14, 188448, Note_on_c, 7, 63, 0
14, 188448, Note_on_c, 7, 66, 0
14, 188448, Note_on_c, 7, 59, 78
14, 188448, Note_on_c, 7, 63, 78
14, 188544, Note_on_c, 7, 63, 0
14, 188544, Note_on_c, 7, 59, 0
14, 188544, Note_on_c, 7, 51, 78
14, 188544, Note_on_c, 7, 59, 78
14, 188640, Note_on_c, 7, 54, 78
14, 188688, Note_on_c, 7, 54, 0
14, 188688, Note_on_c, 7, 54, 78
14, 188736, Note_on_c, 7, 54, 0
14, 188736, Note_on_c, 7, 59, 0
14, 188736, Note_on_c, 7, 51, 0
14, 188736, Note_on_c, 7, 54, 78
14, 188832, Note_on_c, 7, 54, 0
14, 188832, Note_on_c, 7, 54, 78
14, 188928, Note_on_c, 7, 54, 0
14, 188928, Note_on_c, 7, 59, 78
14, 188928, Note_on_c, 7, 51, 78
14, 189120, Note_on_c, 7, 51, 0
14, 189120, Note_on_c, 7, 59, 0
14, 189120, Note_on_c, 7, 59, 78
14, 189120, Note_on_c, 7, 51, 78
14, 189312, Note_on_c, 7, 51, 0
14, 189312, Note_on_c, 7, 59, 0
14, 189312, Note_on_c, 7, 54, 78
14, 189312, Note_on_c, 7, 61, 78
14, 189504, Note_on_c, 7, 61, 0
14, 189504, Note_on_c, 7, 54, 0
14, 189504, Note_on_c, 7, 61, 78
14, 189504, Note_on_c, 7, 54, 78
14, 189696, Note_on_c, 7, 54, 0
14, 189696, Note_on_c, 7, 61, 0
14, 189696, Note_on_c, 7, 63, 78
14, 189696, Note_on_c, 7, 66, 78
14, 189984, Note_on_c, 7, 66, 0
14, 189984, Note_on_c, 7, 63, 0
14, 189984, Note_on_c, 7, 59, 78
14, 189984, Note_on_c, 7, 63, 78
14, 190080, Note_on_c, 7, 63, 0
14, 190080, Note_on_c, 7, 59, 0
14, 190080, Note_on_c, 7, 51, 78
14, 190080, Note_on_c, 7, 59, 78
14, 190176, Note_on_c, 7, 42, 77
14, 190224, Note_on_c, 7, 42, 0
14, 190224, Note_on_c, 7, 42, 77
14, 190272, Note_on_c, 7, 42, 0
14, 190272, Note_on_c, 7, 59, 0
14, 190272, Note_on_c, 7, 51, 0
14, 190272, Note_on_c, 7, 42, 77
14, 190368, Note_on_c, 7, 42, 0
14, 190368, Note_on_c, 7, 42, 77
14, 190464, Note_on_c, 7, 42, 0
14, 190464, Note_on_c, 7, 39, 77
14, 190464, Note_on_c, 7, 47, 77
14, 190560, Note_on_c, 7, 47, 0
14, 190560, Note_on_c, 7, 39, 0
14, 190656, Note_on_c, 7, 39, 77
14, 190656, Note_on_c, 7, 47, 77
14, 190752, Note_on_c, 7, 47, 0
14, 190752, Note_on_c, 7, 39, 0
14, 190848, Note_on_c, 7, 49, 77
14, 190848, Note_on_c, 7, 42, 77
14, 190944, Note_on_c, 7, 42, 0
14, 190944, Note_on_c, 7, 49, 0
14, 191040, Note_on_c, 7, 49, 77
14, 191040, Note_on_c, 7, 42, 77
14, 191136, Note_on_c, 7, 42, 0
14, 191136, Note_on_c, 7, 49, 0
14, 191232, Note_on_c, 7, 51, 77
14, 191232, Note_on_c, 7, 54, 77
14, 191520, Note_on_c, 7, 54, 0
14, 191520, Note_on_c, 7, 51, 0
14, 191520, Note_on_c, 7, 47, 77
14, 191520, Note_on_c, 7, 51, 77
14, 191616, Note_on_c, 7, 51, 0
14, 191616, Note_on_c, 7, 47, 0
14, 191616, Note_on_c, 7, 47, 77
14, 191616, Note_on_c, 7, 39, 77
14, 191904, Note_on_c, 7, 39, 0
14, 191904, Note_on_c, 7, 47, 0
14, 192000, Note_on_c, 7, 66, 78
14, 192000, Note_on_c, 7, 63, 78
14, 192288, Note_on_c, 7, 63, 0
14, 192288, Note_on_c, 7, 66, 0
14, 192288, Note_on_c, 7, 63, 78
14, 192288, Note_on_c, 7, 59, 78
14, 192384, Note_on_c, 7, 59, 0
14, 192384, Note_on_c, 7, 63, 0
14, 192384, Note_on_c, 7, 51, 78
14, 192384, Note_on_c, 7, 59, 78
14, 192672, Note_on_c, 7, 59, 0
14, 192672, Note_on_c, 7, 51, 0
14, 194304, Note_on_c, 7, 51, 78
14, 194304, Note_on_c, 7, 59, 78
14, 194688, Note_on_c, 7, 59, 0
14, 194688, Note_on_c, 7, 51, 0
14, 195072, Note_on_c, 7, 47, 77
14, 195072, Note_on_c, 7, 39, 77
14, 195456, Note_on_c, 7, 39, 0
14, 195456, Note_on_c, 7, 47, 0
14, 196032, Note_on_c, 7, 59, 78
14, 196032, Note_on_c, 7, 51, 78
14, 196224, Note_on_c, 7, 51, 0
14, 196224, Note_on_c, 7, 59, 0
14, 196416, Note_on_c, 7, 51, 78
14, 196416, Note_on_c, 7, 59, 78
14, 196608, Note_on_c, 7, 59, 0
14, 196608, Note_on_c, 7, 51, 0
14, 196800, Note_on_c, 7, 51, 78
14, 196800, Note_on_c, 7, 59, 78
14, 196992, Note_on_c, 7, 59, 0
14, 196992, Note_on_c, 7, 51, 0
14, 197184, Note_on_c, 7, 59, 78
14, 197184, Note_on_c, 7, 51, 78
14, 197376, Note_on_c, 7, 51, 0
14, 197376, Note_on_c, 7, 59, 0
14, 197568, Note_on_c, 7, 51, 78
14, 197760, Note_on_c, 7, 59, 78
14, 197952, Note_on_c, 7, 54, 78
14, 198144, Note_on_c, 7, 63, 78
14, 198912, Note_on_c, 7, 63, 0
14, 198912, Note_on_c, 7, 51, 0
14, 198912, Note_on_c, 7, 59, 0
14, 198912, Note_on_c, 7, 54, 0
14, 198912, Note_on_c, 7, 55, 62
14, 198912, Note_on_c, 7, 63, 62
14, 198912, Note_on_c, 7, 51, 62
14, 198912, Note_on_c, 7, 58, 62
14, 198912, Note_on_c, 7, 46, 18
14, 199296, Note_on_c, 7, 58, 0
14, 199296, Note_on_c, 7, 51, 0
14, 199296, Note_on_c, 7, 55, 0
14, 199296, Note_on_c, 7, 63, 0
14, 199296, Note_on_c, 7, 62, 62
14, 199296, Note_on_c, 7, 58, 62
14, 199296, Note_on_c, 7, 56, 57
14, 199296, Note_on_c, 7, 50, 62
14, 199680, Note_on_c, 7, 50, 0
14, 199680, Note_on_c, 7, 58, 0
14, 199680, Note_on_c, 7, 56, 0
14, 199680, Note_on_c, 7, 62, 0
14, 199680, Note_on_c, 7, 63, 62
14, 199680, Note_on_c, 7, 58, 62
14, 199680, Note_on_c, 7, 55, 62
14, 199680, Note_on_c, 7, 51, 62
14, 200064, Note_on_c, 7, 51, 0
14, 200064, Note_on_c, 7, 58, 0
14, 200064, Note_on_c, 7, 55, 0
14, 200064, Note_on_c, 7, 63, 0
14, 200064, Note_on_c, 7, 56, 57
14, 200064, Note_on_c, 7, 62, 62
14, 200064, Note_on_c, 7, 50, 62
14, 200064, Note_on_c, 7, 58, 62
14, 200448, Note_on_c, 7, 58, 0
14, 200448, Note_on_c, 7, 62, 0
14, 200448, Note_on_c, 7, 46, 0
14, 200448, Note_on_c, 7, 56, 0
14, 200448, Note_on_c, 7, 50, 0
14, 200448, Note_on_c, 7, 63, 62
14, 200448, Note_on_c, 7, 58, 62
14, 200448, Note_on_c, 7, 51, 62
14, 200448, Note_on_c, 7, 55, 62
14, 200448, Note_on_c, 7, 46, 18
14, 200832, Note_on_c, 7, 55, 0
14, 200832, Note_on_c, 7, 51, 0
14, 200832, Note_on_c, 7, 63, 0
14, 200832, Note_on_c, 7, 58, 0
14, 200832, Note_on_c, 7, 62, 62
14, 200832, Note_on_c, 7, 58, 62
14, 200832, Note_on_c, 7, 56, 57
14, 200832, Note_on_c, 7, 50, 62
14, 201216, Note_on_c, 7, 50, 0
14, 201216, Note_on_c, 7, 58, 0
14, 201216, Note_on_c, 7, 56, 0
14, 201216, Note_on_c, 7, 62, 0
14, 201216, Note_on_c, 7, 55, 62
14, 201216, Note_on_c, 7, 63, 62
14, 201216, Note_on_c, 7, 51, 62
14, 201216, Note_on_c, 7, 58, 62
14, 201600, Note_on_c, 7, 58, 0
14, 201600, Note_on_c, 7, 63, 0
14, 201600, Note_on_c, 7, 51, 0
14, 201600, Note_on_c, 7, 55, 0
14, 201600, Note_on_c, 7, 62, 62
14, 201600, Note_on_c, 7, 58, 62
14, 201600, Note_on_c, 7, 56, 57
14, 201600, Note_on_c, 7, 50, 62
14, 201984, Note_on_c, 7, 50, 0
14, 201984, Note_on_c, 7, 58, 0
14, 201984, Note_on_c, 7, 46, 0
14, 201984, Note_on_c, 7, 62, 0
14, 201984, Note_on_c, 7, 56, 0
14, 201984, Note_on_c, 7, 63, 62
14, 201984, Note_on_c, 7, 58, 62
14, 201984, Note_on_c, 7, 55, 62
14, 201984, Note_on_c, 7, 51, 62
14, 201984, Note_on_c, 7, 46, 18
14, 202368, Note_on_c, 7, 51, 0
14, 202368, Note_on_c, 7, 55, 0
14, 202368, Note_on_c, 7, 63, 0
14, 202368, Note_on_c, 7, 58, 0
14, 202368, Note_on_c, 7, 62, 62
14, 202368, Note_on_c, 7, 56, 57
14, 202368, Note_on_c, 7, 50, 62
14, 202368, Note_on_c, 7, 58, 62
14, 202752, Note_on_c, 7, 58, 0
14, 202752, Note_on_c, 7, 56, 0
14, 202752, Note_on_c, 7, 50, 0
14, 202752, Note_on_c, 7, 62, 0
14, 202752, Note_on_c, 7, 58, 62
14, 202752, Note_on_c, 7, 63, 62
14, 202752, Note_on_c, 7, 51, 62
14, 202752, Note_on_c, 7, 55, 62
14, 203136, Note_on_c, 7, 55, 0
14, 203136, Note_on_c, 7, 63, 0
14, 203136, Note_on_c, 7, 51, 0
14, 203136, Note_on_c, 7, 58, 0
14, 203136, Note_on_c, 7, 62, 62
14, 203136, Note_on_c, 7, 58, 62
14, 203136, Note_on_c, 7, 56, 57
14, 203136, Note_on_c, 7, 50, 62
14, 203520, Note_on_c, 7, 50, 0
14, 203520, Note_on_c, 7, 58, 0
14, 203520, Note_on_c, 7, 46, 0
14, 203520, Note_on_c, 7, 62, 0
14, 203520, Note_on_c, 7, 56, 0
14, 203520, Note_on_c, 7, 63, 62
14, 203520, Note_on_c, 7, 58, 62
14, 203520, Note_on_c, 7, 55, 62
14, 203520, Note_on_c, 7, 51, 62
14, 203520, Note_on_c, 7, 46, 18
14, 203904, Note_on_c, 7, 51, 0
14, 203904, Note_on_c, 7, 55, 0
14, 203904, Note_on_c, 7, 63, 0
14, 203904, Note_on_c, 7, 58, 0
14, 203904, Note_on_c, 7, 56, 57
14, 203904, Note_on_c, 7, 65, 62
14, 203904, Note_on_c, 7, 50, 62
14, 203904, Note_on_c, 7, 58, 62
14, 204288, Note_on_c, 7, 58, 0
14, 204288, Note_on_c, 7, 65, 0
14, 204288, Note_on_c, 7, 50, 0
14, 204288, Note_on_c, 7, 56, 0
14, 204288, Note_on_c, 7, 67, 62
14, 204288, Note_on_c, 7, 58, 62
14, 204288, Note_on_c, 7, 55, 62
14, 204672, Note_on_c, 7, 55, 0
14, 204672, Note_on_c, 7, 58, 0
14, 204672, Note_on_c, 7, 67, 0
14, 204672, Note_on_c, 7, 58, 62
14, 204672, Note_on_c, 7, 65, 62
14, 204672, Note_on_c, 7, 56, 57
14, 205056, Note_on_c, 7, 56, 0
14, 205056, Note_on_c, 7, 46, 0
14, 205056, Note_on_c, 7, 58, 0
14, 205056, Note_on_c, 7, 65, 0
14, 205056, Note_on_c, 7, 63, 62
14, 205056, Note_on_c, 7, 58, 62
14, 205056, Note_on_c, 7, 55, 62
14, 205056, Note_on_c, 7, 51, 62
14, 205056, Note_on_c, 7, 46, 47
14, 205440, Note_on_c, 7, 51, 0
14, 205440, Note_on_c, 7, 55, 0
14, 205440, Note_on_c, 7, 63, 0
14, 205440, Note_on_c, 7, 58, 0
14, 205440, Note_on_c, 7, 62, 62
14, 205440, Note_on_c, 7, 50, 62
14, 205440, Note_on_c, 7, 58, 62
14, 205440, Note_on_c, 7, 56, 57
14, 205824, Note_on_c, 7, 56, 0
14, 205824, Note_on_c, 7, 50, 0
14, 205824, Note_on_c, 7, 58, 0
14, 205824, Note_on_c, 7, 62, 0
14, 205824, Note_on_c, 7, 58, 62
14, 205824, Note_on_c, 7, 63, 62
14, 205824, Note_on_c, 7, 51, 62
14, 205824, Note_on_c, 7, 55, 62
14, 206208, Note_on_c, 7, 55, 0
14, 206208, Note_on_c, 7, 63, 0
14, 206208, Note_on_c, 7, 51, 0
14, 206208, Note_on_c, 7, 58, 0
14, 206208, Note_on_c, 7, 65, 62
14, 206208, Note_on_c, 7, 58, 62
14, 206208, Note_on_c, 7, 53, 62
14, 206208, Note_on_c, 7, 56, 57
14, 206592, Note_on_c, 7, 56, 0
14, 206592, Note_on_c, 7, 58, 0
14, 206592, Note_on_c, 7, 46, 0
14, 206592, Note_on_c, 7, 65, 0
14, 206592, Note_on_c, 7, 53, 0
14, 206592, Note_on_c, 7, 63, 62
14, 206592, Note_on_c, 7, 58, 62
14, 206592, Note_on_c, 7, 55, 62
14, 206592, Note_on_c, 7, 51, 62
14, 206592, Note_on_c, 7, 46, 47
14, 206976, Note_on_c, 7, 51, 0
14, 206976, Note_on_c, 7, 55, 0
14, 206976, Note_on_c, 7, 63, 0
14, 206976, Note_on_c, 7, 58, 0
14, 206976, Note_on_c, 7, 65, 62
14, 206976, Note_on_c, 7, 58, 62
14, 206976, Note_on_c, 7, 56, 57
14, 206976, Note_on_c, 7, 53, 62
14, 207360, Note_on_c, 7, 53, 0
14, 207360, Note_on_c, 7, 58, 0
14, 207360, Note_on_c, 7, 56, 0
14, 207360, Note_on_c, 7, 65, 0
14, 207360, Note_on_c, 7, 63, 62
14, 207360, Note_on_c, 7, 58, 62
14, 207360, Note_on_c, 7, 55, 62
14, 207360, Note_on_c, 7, 51, 62
14, 207744, Note_on_c, 7, 51, 0
14, 207744, Note_on_c, 7, 58, 0
14, 207744, Note_on_c, 7, 55, 0
14, 207744, Note_on_c, 7, 63, 0
14, 207744, Note_on_c, 7, 58, 62
14, 207744, Note_on_c, 7, 53, 62
14, 207744, Note_on_c, 7, 62, 62
14, 207744, Note_on_c, 7, 50, 62
14, 208128, Note_on_c, 7, 50, 0
14, 208128, Note_on_c, 7, 53, 0
14, 208128, Note_on_c, 7, 46, 0
14, 208128, Note_on_c, 7, 58, 0
14, 208128, Note_on_c, 7, 62, 0
14, 208128, Note_on_c, 7, 63, 62
14, 208128, Note_on_c, 7, 54, 62
14, 208128, Note_on_c, 7, 58, 62
14, 208128, Note_on_c, 7, 46, 47
14, 208512, Note_on_c, 7, 58, 0
14, 208512, Note_on_c, 7, 63, 0
14, 208512, Note_on_c, 7, 54, 0
14, 208512, Note_on_c, 7, 56, 62
14, 208512, Note_on_c, 7, 62, 62
14, 208512, Note_on_c, 7, 58, 62
14, 208512, Note_on_c, 7, 50, 62
14, 208896, Note_on_c, 7, 50, 0
14, 208896, Note_on_c, 7, 62, 0
14, 208896, Note_on_c, 7, 58, 0
14, 208896, Note_on_c, 7, 56, 0
14, 208896, Note_on_c, 7, 63, 62
14, 208896, Note_on_c, 7, 51, 62
14, 208896, Note_on_c, 7, 58, 62
14, 208896, Note_on_c, 7, 54, 62
14, 209280, Note_on_c, 7, 54, 0
14, 209280, Note_on_c, 7, 51, 0
14, 209280, Note_on_c, 7, 58, 0
14, 209280, Note_on_c, 7, 63, 0
14, 209280, Note_on_c, 7, 56, 62
14, 209280, Note_on_c, 7, 62, 62
14, 209280, Note_on_c, 7, 50, 62
14, 209280, Note_on_c, 7, 58, 62
14, 209664, Note_on_c, 7, 58, 0
14, 209664, Note_on_c, 7, 62, 0
14, 209664, Note_on_c, 7, 46, 0
14, 209664, Note_on_c, 7, 56, 0
14, 209664, Note_on_c, 7, 50, 0
14, 209664, Note_on_c, 7, 63, 62
14, 209664, Note_on_c, 7, 58, 62
14, 209664, Note_on_c, 7, 54, 62
14, 209664, Note_on_c, 7, 51, 62
14, 209664, Note_on_c, 7, 46, 47
14, 210048, Note_on_c, 7, 51, 0
14, 210048, Note_on_c, 7, 54, 0
14, 210048, Note_on_c, 7, 63, 0
14, 210048, Note_on_c, 7, 58, 0
14, 210048, Note_on_c, 7, 62, 62
14, 210048, Note_on_c, 7, 58, 62
14, 210048, Note_on_c, 7, 56, 62
14, 210048, Note_on_c, 7, 50, 62
14, 210432, Note_on_c, 7, 50, 0
14, 210432, Note_on_c, 7, 58, 0
14, 210432, Note_on_c, 7, 56, 0
14, 210432, Note_on_c, 7, 62, 0
14, 210432, Note_on_c, 7, 58, 62
14, 210432, Note_on_c, 7, 63, 62
14, 210432, Note_on_c, 7, 54, 62
14, 210432, Note_on_c, 7, 51, 62
14, 210816, Note_on_c, 7, 51, 0
14, 210816, Note_on_c, 7, 63, 0
14, 210816, Note_on_c, 7, 54, 0
14, 210816, Note_on_c, 7, 58, 0
14, 210816, Note_on_c, 7, 58, 62
14, 210816, Note_on_c, 7, 62, 62
14, 210816, Note_on_c, 7, 50, 62
14, 210816, Note_on_c, 7, 56, 62
14, 211200, Note_on_c, 7, 56, 0
14, 211200, Note_on_c, 7, 62, 0
14, 211200, Note_on_c, 7, 46, 0
14, 211200, Note_on_c, 7, 58, 0
14, 211200, Note_on_c, 7, 50, 0
14, 211200, Note_on_c, 7, 63, 62
14, 211200, Note_on_c, 7, 58, 62
14, 211200, Note_on_c, 7, 54, 62
14, 211200, Note_on_c, 7, 51, 62
14, 211200, Note_on_c, 7, 46, 47
14, 211584, Note_on_c, 7, 51, 0
14, 211584, Note_on_c, 7, 54, 0
14, 211584, Note_on_c, 7, 63, 0
14, 211584, Note_on_c, 7, 58, 0
14, 211584, Note_on_c, 7, 62, 62
14, 211584, Note_on_c, 7, 58, 62
14, 211584, Note_on_c, 7, 56, 62
14, 211584, Note_on_c, 7, 50, 62
14, 211968, Note_on_c, 7, 50, 0
14, 211968, Note_on_c, 7, 58, 0
14, 211968, Note_on_c, 7, 56, 0
14, 211968, Note_on_c, 7, 62, 0
14, 211968, Note_on_c, 7, 58, 62
14, 211968, Note_on_c, 7, 63, 62
14, 211968, Note_on_c, 7, 54, 62
14, 211968, Note_on_c, 7, 51, 62
14, 212352, Note_on_c, 7, 51, 0
14, 212352, Note_on_c, 7, 63, 0
14, 212352, Note_on_c, 7, 54, 0
14, 212352, Note_on_c, 7, 58, 0
14, 212352, Note_on_c, 7, 65, 62
14, 212352, Note_on_c, 7, 58, 62
14, 212352, Note_on_c, 7, 56, 62
14, 212352, Note_on_c, 7, 53, 62
14, 212736, Note_on_c, 7, 53, 0
14, 212736, Note_on_c, 7, 58, 0
14, 212736, Note_on_c, 7, 46, 0
14, 212736, Note_on_c, 7, 65, 0
14, 212736, Note_on_c, 7, 56, 0
14, 212736, Note_on_c, 7, 58, 62
14, 212736, Note_on_c, 7, 63, 62
14, 212736, Note_on_c, 7, 54, 62
14, 212736, Note_on_c, 7, 51, 62
14, 212736, Note_on_c, 7, 46, 47
14, 213120, Note_on_c, 7, 51, 0
14, 213120, Note_on_c, 7, 54, 0
14, 213120, Note_on_c, 7, 58, 0
14, 213120, Note_on_c, 7, 63, 0
14, 213120, Note_on_c, 7, 56, 62
14, 213120, Note_on_c, 7, 65, 62
14, 213120, Note_on_c, 7, 58, 62
14, 213120, Note_on_c, 7, 53, 62
14, 213504, Note_on_c, 7, 53, 0
14, 213504, Note_on_c, 7, 65, 0
14, 213504, Note_on_c, 7, 58, 0
14, 213504, Note_on_c, 7, 56, 0
14, 213504, Note_on_c, 7, 58, 62
14, 213504, Note_on_c, 7, 51, 62
14, 213504, Note_on_c, 7, 63, 62
14, 213504, Note_on_c, 7, 54, 62
14, 213888, Note_on_c, 7, 54, 0
14, 213888, Note_on_c, 7, 51, 0
14, 213888, Note_on_c, 7, 63, 0
14, 213888, Note_on_c, 7, 58, 0
14, 213888, Note_on_c, 7, 58, 62
14, 213888, Note_on_c, 7, 65, 62
14, 213888, Note_on_c, 7, 56, 62
14, 213888, Note_on_c, 7, 53, 62
14, 214272, Note_on_c, 7, 53, 0
14, 214272, Note_on_c, 7, 65, 0
14, 214272, Note_on_c, 7, 46, 0
14, 214272, Note_on_c, 7, 58, 0
14, 214272, Note_on_c, 7, 56, 0
14, 214272, Note_on_c, 7, 63, 62
14, 214272, Note_on_c, 7, 58, 62
14, 214272, Note_on_c, 7, 54, 62
14, 214272, Note_on_c, 7, 51, 62
14, 214272, Note_on_c, 7, 46, 47
14, 214368, Note_on_c, 7, 51, 0
14, 214368, Note_on_c, 7, 54, 0
14, 214368, Note_on_c, 7, 63, 0
14, 214368, Note_on_c, 7, 58, 0
14, 214464, Note_on_c, 7, 46, 0
14, 214464, Note_on_c, 7, 48, 59
14, 214560, Note_on_c, 7, 48, 0
14, 214560, Note_on_c, 7, 50, 59
14, 214656, Note_on_c, 7, 50, 0
14, 214656, Note_on_c, 7, 51, 59
14, 215136, Note_on_c, 7, 51, 0
14, 218112, Note_on_c, 7, 46, 22
14, 218112, Note_on_c, 7, 51, 22
14, 218112, Note_on_c, 7, 54, 22
14, 218688, Note_on_c, 7, 54, 0
14, 218688, Note_on_c, 7, 51, 0
14, 218688, Note_on_c, 7, 46, 0
14, 218688, Note_on_c, 7, 51, 22
14, 218688, Note_on_c, 7, 53, 22
14, 218688, Note_on_c, 7, 47, 22
14, 218880, Note_on_c, 7, 47, 0
14, 218880, Note_on_c, 7, 53, 0
14, 218880, Note_on_c, 7, 51, 0
14, 218880, Note_on_c, 7, 46, 22
14, 218880, Note_on_c, 7, 54, 22
14, 218880, Note_on_c, 7, 51, 22
14, 218976, Note_on_c, 7, 51, 0
14, 218976, Note_on_c, 7, 54, 0
14, 218976, Note_on_c, 7, 46, 0
14, 220896, Note_on_c, 7, 58, 78
14, 220944, Note_on_c, 7, 58, 0
14, 220944, Note_on_c, 7, 58, 78
14, 220992, Note_on_c, 7, 58, 0
14, 220992, Note_on_c, 7, 58, 78
14, 221052, Note_on_c, 7, 58, 0
14, 221088, Note_on_c, 7, 58, 78
14, 221148, Note_on_c, 7, 58, 0
14, 221184, Note_on_c, 7, 55, 78
14, 221184, Note_on_c, 7, 63, 78
14, 221184, Note_on_c, 7, 58, 78
14, 221376, Note_on_c, 7, 58, 0
14, 221376, Note_on_c, 7, 63, 0
14, 221376, Note_on_c, 7, 55, 0
14, 221376, Note_on_c, 7, 63, 78
14, 221376, Note_on_c, 7, 55, 78
14, 221376, Note_on_c, 7, 58, 78
14, 221568, Note_on_c, 7, 58, 0
14, 221568, Note_on_c, 7, 55, 0
14, 221568, Note_on_c, 7, 63, 0
14, 221568, Note_on_c, 7, 65, 78
14, 221568, Note_on_c, 7, 62, 78
14, 221760, Note_on_c, 7, 62, 0
14, 221760, Note_on_c, 7, 65, 0
14, 221760, Note_on_c, 7, 65, 78
14, 221760, Note_on_c, 7, 62, 78
14, 221952, Note_on_c, 7, 62, 0
14, 221952, Note_on_c, 7, 65, 0
14, 221952, Note_on_c, 7, 70, 78
14, 221952, Note_on_c, 7, 63, 78
14, 221952, Note_on_c, 7, 67, 78
14, 222240, Note_on_c, 7, 67, 0
14, 222240, Note_on_c, 7, 63, 0
14, 222240, Note_on_c, 7, 70, 0
14, 222240, Note_on_c, 7, 67, 78
14, 222240, Note_on_c, 7, 63, 78
14, 222240, Note_on_c, 7, 58, 78
14, 222336, Note_on_c, 7, 58, 0
14, 222336, Note_on_c, 7, 63, 0
14, 222336, Note_on_c, 7, 67, 0
14, 222336, Note_on_c, 7, 63, 78
14, 222336, Note_on_c, 7, 55, 78
14, 222336, Note_on_c, 7, 58, 78
14, 222720, Note_on_c, 7, 58, 0
14, 222720, Note_on_c, 7, 55, 0
14, 222720, Note_on_c, 7, 63, 0
14, 223968, Note_on_c, 7, 60, 78
14, 224016, Note_on_c, 7, 60, 0
14, 224016, Note_on_c, 7, 60, 78
14, 224064, Note_on_c, 7, 60, 0
14, 224064, Note_on_c, 7, 60, 78
14, 224124, Note_on_c, 7, 60, 0
14, 224160, Note_on_c, 7, 60, 78
14, 224220, Note_on_c, 7, 60, 0
14, 224256, Note_on_c, 7, 56, 78
14, 224256, Note_on_c, 7, 65, 78
14, 224256, Note_on_c, 7, 60, 78
14, 224448, Note_on_c, 7, 60, 0
14, 224448, Note_on_c, 7, 65, 0
14, 224448, Note_on_c, 7, 56, 0
14, 224448, Note_on_c, 7, 60, 78
14, 224448, Note_on_c, 7, 65, 78
14, 224448, Note_on_c, 7, 56, 78
14, 224640, Note_on_c, 7, 56, 0
14, 224640, Note_on_c, 7, 65, 0
14, 224640, Note_on_c, 7, 60, 0
14, 224640, Note_on_c, 7, 64, 78
14, 224640, Note_on_c, 7, 67, 78
14, 224640, Note_on_c, 7, 60, 78
14, 224832, Note_on_c, 7, 60, 0
14, 224832, Note_on_c, 7, 67, 0
14, 224832, Note_on_c, 7, 64, 0
14, 224832, Note_on_c, 7, 67, 78
14, 224832, Note_on_c, 7, 64, 78
14, 224832, Note_on_c, 7, 60, 78
14, 225024, Note_on_c, 7, 60, 0
14, 225024, Note_on_c, 7, 64, 0
14, 225024, Note_on_c, 7, 67, 0
14, 225024, Note_on_c, 7, 72, 78
14, 225024, Note_on_c, 7, 65, 78
14, 225024, Note_on_c, 7, 68, 78
14, 225312, Note_on_c, 7, 68, 0
14, 225312, Note_on_c, 7, 65, 0
14, 225312, Note_on_c, 7, 72, 0
14, 225312, Note_on_c, 7, 68, 78
14, 225312, Note_on_c, 7, 65, 78
14, 225312, Note_on_c, 7, 60, 78
14, 225408, Note_on_c, 7, 60, 0
14, 225408, Note_on_c, 7, 65, 0
14, 225408, Note_on_c, 7, 68, 0
14, 225408, Note_on_c, 7, 65, 78
14, 225408, Note_on_c, 7, 60, 78
14, 225408, Note_on_c, 7, 56, 78
14, 225792, Note_on_c, 7, 56, 0
14, 225792, Note_on_c, 7, 60, 0
14, 225792, Note_on_c, 7, 65, 0
14, 227040, Note_on_c, 7, 62, 78
14, 227088, Note_on_c, 7, 62, 0
14, 227088, Note_on_c, 7, 62, 78
14, 227136, Note_on_c, 7, 62, 0
14, 227136, Note_on_c, 7, 62, 78
14, 227196, Note_on_c, 7, 62, 0
14, 227232, Note_on_c, 7, 62, 78
14, 227292, Note_on_c, 7, 62, 0
14, 227328, Note_on_c, 7, 58, 71
14, 227328, Note_on_c, 7, 62, 71
14, 227424, Note_on_c, 7, 62, 0
14, 227424, Note_on_c, 7, 58, 0
14, 227520, Note_on_c, 7, 62, 78
14, 227520, Note_on_c, 7, 66, 78
14, 227616, Note_on_c, 7, 66, 0
14, 227616, Note_on_c, 7, 62, 0
14, 227712, Note_on_c, 7, 67, 78
14, 227808, Note_on_c, 7, 67, 0
14, 227904, Note_on_c, 7, 65, 78
14, 227904, Note_on_c, 7, 62, 78
14, 228000, Note_on_c, 7, 62, 0
14, 228000, Note_on_c, 7, 65, 0
14, 228096, Note_on_c, 7, 55, 78
14, 228096, Note_on_c, 7, 67, 78
14, 228192, Note_on_c, 7, 67, 0
14, 228192, Note_on_c, 7, 55, 0
14, 228288, Note_on_c, 7, 57, 78
14, 228384, Note_on_c, 7, 57, 0
14, 228576, Note_on_c, 7, 67, 78
14, 228624, Note_on_c, 7, 67, 0
14, 228624, Note_on_c, 7, 67, 78
14, 228672, Note_on_c, 7, 67, 0
14, 228672, Note_on_c, 7, 67, 78
14, 228732, Note_on_c, 7, 67, 0
14, 228768, Note_on_c, 7, 67, 78
14, 228828, Note_on_c, 7, 67, 0
14, 228864, Note_on_c, 7, 63, 78
14, 228864, Note_on_c, 7, 67, 78
14, 228960, Note_on_c, 7, 67, 0
14, 228960, Note_on_c, 7, 63, 0
14, 229056, Note_on_c, 7, 67, 71
14, 229056, Note_on_c, 7, 71, 71
14, 229152, Note_on_c, 7, 71, 0
14, 229152, Note_on_c, 7, 67, 0
14, 229248, Note_on_c, 7, 72, 78
14, 229344, Note_on_c, 7, 72, 0
14, 229440, Note_on_c, 7, 67, 78
14, 229440, Note_on_c, 7, 71, 78
14, 229536, Note_on_c, 7, 71, 0
14, 229536, Note_on_c, 7, 67, 0
14, 229632, Note_on_c, 7, 72, 78
14, 229632, Note_on_c, 7, 60, 78
14, 229632, Note_on_c, 7, 55, 78
14, 229632, Note_on_c, 7, 51, 78
14, 229728, Note_on_c, 7, 51, 0
14, 229728, Note_on_c, 7, 72, 0
14, 229728, Note_on_c, 7, 60, 0
14, 229728, Note_on_c, 7, 55, 0
14, 229824, Note_on_c, 7, 55, 78
14, 229824, Note_on_c, 7, 62, 78
14, 229824, Note_on_c, 7, 59, 78
14, 229920, Note_on_c, 7, 59, 0
14, 229920, Note_on_c, 7, 62, 0
14, 229920, Note_on_c, 7, 55, 0
14, 230016, Note_on_c, 7, 63, 78
14, 230016, Note_on_c, 7, 60, 78
14, 230112, Note_on_c, 7, 60, 0
14, 230112, Note_on_c, 7, 63, 0
14, 230208, Note_on_c, 7, 64, 78
14, 230208, Note_on_c, 7, 58, 78
14, 230304, Note_on_c, 7, 58, 0
14, 230304, Note_on_c, 7, 64, 0
14, 230400, Note_on_c, 7, 56, 78
14, 230400, Note_on_c, 7, 65, 78
14, 230592, Note_on_c, 7, 65, 0
14, 230592, Note_on_c, 7, 56, 0
14, 230592, Note_on_c, 7, 60, 78
14, 230592, Note_on_c, 7, 67, 78
14, 230784, Note_on_c, 7, 67, 0
14, 230784, Note_on_c, 7, 60, 0
14, 230784, Note_on_c, 7, 65, 78
14, 230784, Note_on_c, 7, 68, 78
14, 230880, Note_on_c, 7, 48, 40
14, 230880, Note_on_c, 7, 60, 40
14, 230928, Note_on_c, 7, 60, 0
14, 230928, Note_on_c, 7, 48, 0
14, 230928, Note_on_c, 7, 60, 40
14, 230928, Note_on_c, 7, 48, 40
14, 230976, Note_on_c, 7, 48, 0
14, 230976, Note_on_c, 7, 65, 0
14, 230976, Note_on_c, 7, 68, 0
14, 230976, Note_on_c, 7, 60, 0
14, 230976, Note_on_c, 7, 60, 78
14, 230976, Note_on_c, 7, 67, 78
14, 230976, Note_on_c, 7, 60, 40
14, 230976, Note_on_c, 7, 48, 40
14, 231036, Note_on_c, 7, 48, 0
14, 231036, Note_on_c, 7, 60, 0
14, 231036, Note_on_c, 7, 67, 0
14, 231072, Note_on_c, 7, 60, 0
14, 231072, Note_on_c, 7, 48, 40
14, 231072, Note_on_c, 7, 60, 40
14, 231132, Note_on_c, 7, 60, 0
14, 231132, Note_on_c, 7, 48, 0
14, 231168, Note_on_c, 7, 65, 78
14, 231168, Note_on_c, 7, 60, 78
14, 231168, Note_on_c, 7, 65, 40
14, 231168, Note_on_c, 7, 44, 40
14, 231264, Note_on_c, 7, 44, 0
14, 231264, Note_on_c, 7, 65, 0
14, 231360, Note_on_c, 7, 65, 0
14, 231360, Note_on_c, 7, 60, 0
14, 231360, Note_on_c, 7, 60, 78
14, 231360, Note_on_c, 7, 63, 78
14, 231360, Note_on_c, 7, 67, 40
14, 231360, Note_on_c, 7, 48, 40
14, 231456, Note_on_c, 7, 48, 0
14, 231456, Note_on_c, 7, 67, 0
14, 231552, Note_on_c, 7, 63, 0
14, 231552, Note_on_c, 7, 60, 0
14, 231552, Note_on_c, 7, 59, 78
14, 231552, Note_on_c, 7, 61, 78
14, 231552, Note_on_c, 7, 68, 40
14, 231552, Note_on_c, 7, 53, 40
14, 231612, Note_on_c, 7, 53, 0
14, 231612, Note_on_c, 7, 59, 0
14, 231612, Note_on_c, 7, 61, 0
14, 231612, Note_on_c, 7, 68, 0
14, 231648, Note_on_c, 7, 61, 78
14, 231648, Note_on_c, 7, 59, 78
14, 231696, Note_on_c, 7, 59, 0
14, 231696, Note_on_c, 7, 61, 0
14, 231696, Note_on_c, 7, 61, 78
14, 231696, Note_on_c, 7, 59, 78
14, 231744, Note_on_c, 7, 59, 0
14, 231744, Note_on_c, 7, 61, 0
14, 231744, Note_on_c, 7, 59, 78
14, 231744, Note_on_c, 7, 61, 78
14, 231744, Note_on_c, 7, 49, 40
14, 231744, Note_on_c, 7, 65, 40
14, 231804, Note_on_c, 7, 65, 0
14, 231804, Note_on_c, 7, 59, 0
14, 231804, Note_on_c, 7, 61, 0
14, 231804, Note_on_c, 7, 49, 0
14, 231840, Note_on_c, 7, 61, 78
14, 231840, Note_on_c, 7, 59, 78
14, 231888, Note_on_c, 7, 59, 0
14, 231888, Note_on_c, 7, 61, 0
14, 231888, Note_on_c, 7, 61, 78
14, 231888, Note_on_c, 7, 59, 78
14, 231936, Note_on_c, 7, 59, 0
14, 231936, Note_on_c, 7, 61, 0
14, 231936, Note_on_c, 7, 58, 78
14, 231936, Note_on_c, 7, 66, 78
14, 231936, Note_on_c, 7, 66, 40
14, 231936, Note_on_c, 7, 49, 40
14, 232032, Note_on_c, 7, 49, 0
14, 232032, Note_on_c, 7, 66, 0
14, 232128, Note_on_c, 7, 66, 0
14, 232128, Note_on_c, 7, 58, 0
14, 232128, Note_on_c, 7, 61, 78
14, 232128, Note_on_c, 7, 68, 78
14, 232320, Note_on_c, 7, 68, 0
14, 232320, Note_on_c, 7, 61, 0
14, 232320, Note_on_c, 7, 70, 78
14, 232320, Note_on_c, 7, 66, 78
14, 232416, Note_on_c, 7, 49, 40
14, 232416, Note_on_c, 7, 61, 40
14, 232464, Note_on_c, 7, 61, 0
14, 232464, Note_on_c, 7, 49, 0
14, 232464, Note_on_c, 7, 61, 40
14, 232464, Note_on_c, 7, 49, 40
14, 232512, Note_on_c, 7, 49, 0
14, 232512, Note_on_c, 7, 70, 0
14, 232512, Note_on_c, 7, 66, 0
14, 232512, Note_on_c, 7, 61, 0
14, 232512, Note_on_c, 7, 68, 78
14, 232512, Note_on_c, 7, 61, 78
14, 232512, Note_on_c, 7, 61, 40
14, 232512, Note_on_c, 7, 49, 40
14, 232572, Note_on_c, 7, 49, 0
14, 232572, Note_on_c, 7, 68, 0
14, 232572, Note_on_c, 7, 61, 0
14, 232608, Note_on_c, 7, 61, 0
14, 232608, Note_on_c, 7, 49, 40
14, 232608, Note_on_c, 7, 61, 40
14, 232668, Note_on_c, 7, 61, 0
14, 232668, Note_on_c, 7, 49, 0
14, 232704, Note_on_c, 7, 66, 78
14, 232704, Note_on_c, 7, 61, 78
14, 232704, Note_on_c, 7, 66, 40
14, 232704, Note_on_c, 7, 46, 40
14, 232800, Note_on_c, 7, 46, 0
14, 232800, Note_on_c, 7, 66, 0
14, 232896, Note_on_c, 7, 66, 0
14, 232896, Note_on_c, 7, 61, 0
14, 232896, Note_on_c, 7, 61, 78
14, 232896, Note_on_c, 7, 65, 78
14, 232896, Note_on_c, 7, 68, 40
14, 232896, Note_on_c, 7, 49, 40
14, 232992, Note_on_c, 7, 49, 0
14, 232992, Note_on_c, 7, 68, 0
14, 233088, Note_on_c, 7, 65, 0
14, 233088, Note_on_c, 7, 61, 0
14, 233088, Note_on_c, 7, 61, 78
14, 233088, Note_on_c, 7, 63, 78
14, 233088, Note_on_c, 7, 70, 40
14, 233088, Note_on_c, 7, 54, 40
14, 233184, Note_on_c, 7, 54, 0
14, 233184, Note_on_c, 7, 61, 0
14, 233184, Note_on_c, 7, 63, 0
14, 233184, Note_on_c, 7, 70, 0
14, 233280, Note_on_c, 7, 67, 40
14, 233280, Note_on_c, 7, 51, 40
14, 233376, Note_on_c, 7, 51, 0
14, 233376, Note_on_c, 7, 67, 0
14, 233472, Note_on_c, 7, 68, 40
14, 233472, Note_on_c, 7, 51, 40
14, 233568, Note_on_c, 7, 51, 0
14, 233568, Note_on_c, 7, 68, 0
14, 233568, Note_on_c, 7, 51, 78
14, 233616, Note_on_c, 7, 51, 0
14, 233616, Note_on_c, 7, 51, 78
14, 233664, Note_on_c, 7, 51, 0
14, 233664, Note_on_c, 7, 51, 78
14, 233760, Note_on_c, 7, 51, 0
14, 233760, Note_on_c, 7, 51, 78
14, 233856, Note_on_c, 7, 51, 0
14, 233856, Note_on_c, 7, 48, 78
14, 233856, Note_on_c, 7, 57, 78
14, 233952, Note_on_c, 7, 57, 0
14, 233952, Note_on_c, 7, 48, 0
14, 233952, Note_on_c, 7, 58, 78
14, 233952, Note_on_c, 7, 49, 78
14, 234048, Note_on_c, 7, 49, 0
14, 234048, Note_on_c, 7, 58, 0
14, 234048, Note_on_c, 7, 60, 78
14, 234048, Note_on_c, 7, 51, 78
14, 234144, Note_on_c, 7, 51, 0
14, 234144, Note_on_c, 7, 60, 0
14, 234336, Note_on_c, 7, 53, 78
14, 234384, Note_on_c, 7, 53, 0
14, 234384, Note_on_c, 7, 53, 78
14, 234432, Note_on_c, 7, 53, 0
14, 234432, Note_on_c, 7, 53, 78
14, 234528, Note_on_c, 7, 53, 0
14, 234528, Note_on_c, 7, 53, 78
14, 234624, Note_on_c, 7, 53, 0
14, 234624, Note_on_c, 7, 50, 78
14, 234624, Note_on_c, 7, 59, 78
14, 234720, Note_on_c, 7, 59, 0
14, 234720, Note_on_c, 7, 50, 0
14, 234720, Note_on_c, 7, 60, 78
14, 234720, Note_on_c, 7, 51, 78
14, 234816, Note_on_c, 7, 51, 0
14, 234816, Note_on_c, 7, 60, 0
14, 234816, Note_on_c, 7, 62, 78
14, 234816, Note_on_c, 7, 53, 78
14, 234912, Note_on_c, 7, 53, 0
14, 234912, Note_on_c, 7, 62, 0
14, 235104, Note_on_c, 7, 55, 78
14, 235152, Note_on_c, 7, 55, 0
14, 235152, Note_on_c, 7, 55, 78
14, 235200, Note_on_c, 7, 55, 0
14, 235200, Note_on_c, 7, 55, 78
14, 235296, Note_on_c, 7, 55, 0
14, 235296, Note_on_c, 7, 55, 78
14, 235392, Note_on_c, 7, 55, 0
14, 235392, Note_on_c, 7, 51, 78
14, 235392, Note_on_c, 7, 60, 78
14, 235488, Note_on_c, 7, 60, 0
14, 235488, Note_on_c, 7, 51, 0
14, 235488, Note_on_c, 7, 61, 78
14, 235488, Note_on_c, 7, 53, 78
14, 235584, Note_on_c, 7, 53, 0
14, 235584, Note_on_c, 7, 61, 0
14, 235584, Note_on_c, 7, 63, 78
14, 235584, Note_on_c, 7, 54, 78
14, 235680, Note_on_c, 7, 54, 0
14, 235680, Note_on_c, 7, 63, 0
14, 235872, Note_on_c, 7, 56, 78
14, 235920, Note_on_c, 7, 56, 0
14, 235920, Note_on_c, 7, 56, 78
14, 235968, Note_on_c, 7, 56, 0
14, 235968, Note_on_c, 7, 56, 78
14, 236064, Note_on_c, 7, 56, 0
14, 236064, Note_on_c, 7, 56, 78
14, 236160, Note_on_c, 7, 56, 0
14, 236160, Note_on_c, 7, 53, 78
14, 236160, Note_on_c, 7, 62, 78
14, 236256, Note_on_c, 7, 62, 0
14, 236256, Note_on_c, 7, 53, 0
14, 236256, Note_on_c, 7, 55, 78
14, 236256, Note_on_c, 7, 63, 78
14, 236352, Note_on_c, 7, 63, 0
14, 236352, Note_on_c, 7, 55, 0
14, 236352, Note_on_c, 7, 56, 78
14, 236352, Note_on_c, 7, 65, 78
14, 236448, Note_on_c, 7, 65, 0
14, 236448, Note_on_c, 7, 56, 0
14, 240192, Note_on_c, 7, 72, 78
14, 240192, Note_on_c, 7, 67, 78
14, 240384, Note_on_c, 7, 67, 0
14, 240384, Note_on_c, 7, 72, 0
14, 240384, Note_on_c, 7, 68, 78
14, 240384, Note_on_c, 7, 65, 78
14, 240384, Note_on_c, 7, 56, 78
14, 240576, Note_on_c, 7, 56, 0
14, 240576, Note_on_c, 7, 65, 0
14, 240576, Note_on_c, 7, 68, 0
14, 240576, Note_on_c, 7, 65, 78
14, 240576, Note_on_c, 7, 57, 78
14, 240576, Note_on_c, 7, 69, 78
14, 240576, Note_on_c, 7, 63, 78
14, 240768, Note_on_c, 7, 63, 0
14, 240768, Note_on_c, 7, 65, 0
14, 240768, Note_on_c, 7, 57, 0
14, 240768, Note_on_c, 7, 69, 0
14, 240768, Note_on_c, 7, 62, 78
14, 240768, Note_on_c, 7, 70, 78
14, 240768, Note_on_c, 7, 58, 78
14, 240768, Note_on_c, 7, 65, 78
14, 240960, Note_on_c, 7, 65, 0
14, 240960, Note_on_c, 7, 62, 0
14, 240960, Note_on_c, 7, 70, 0
14, 240960, Note_on_c, 7, 58, 0
14, 240960, Note_on_c, 7, 72, 78
14, 240960, Note_on_c, 7, 65, 78
14, 240960, Note_on_c, 7, 60, 78
14, 241152, Note_on_c, 7, 60, 0
14, 241152, Note_on_c, 7, 65, 0
14, 241152, Note_on_c, 7, 72, 0
14, 241152, Note_on_c, 7, 62, 78
14, 241152, Note_on_c, 7, 58, 78
14, 241152, Note_on_c, 7, 65, 78
14, 241344, Note_on_c, 7, 65, 0
14, 241344, Note_on_c, 7, 58, 0
14, 241344, Note_on_c, 7, 62, 0
14, 241344, Note_on_c, 7, 63, 78
14, 241344, Note_on_c, 7, 55, 78
14, 241344, Note_on_c, 7, 58, 78
14, 241536, Note_on_c, 7, 58, 0
14, 241536, Note_on_c, 7, 55, 0
14, 241536, Note_on_c, 7, 63, 0
14, 241536, Note_on_c, 7, 62, 78
14, 241536, Note_on_c, 7, 53, 78
14, 241536, Note_on_c, 7, 58, 78
14, 241728, Note_on_c, 7, 58, 0
14, 241728, Note_on_c, 7, 53, 0
14, 241728, Note_on_c, 7, 62, 0
14, 241728, Note_on_c, 7, 58, 78
14, 241728, Note_on_c, 7, 51, 78
14, 241728, Note_on_c, 7, 67, 78
14, 241728, Note_on_c, 7, 63, 55
14, 241920, Note_on_c, 7, 63, 0
14, 241920, Note_on_c, 7, 58, 0
14, 241920, Note_on_c, 7, 51, 0
14, 241920, Note_on_c, 7, 67, 0
14, 241920, Note_on_c, 7, 56, 78
14, 241920, Note_on_c, 7, 65, 78
14, 241920, Note_on_c, 7, 50, 78
14, 241920, Note_on_c, 7, 53, 62
14, 242112, Note_on_c, 7, 53, 0
14, 242112, Note_on_c, 7, 56, 0
14, 242112, Note_on_c, 7, 65, 0
14, 242112, Note_on_c, 7, 50, 0
14, 242112, Note_on_c, 7, 63, 78
14, 242112, Note_on_c, 7, 57, 78
14, 242112, Note_on_c, 7, 48, 78
14, 242112, Note_on_c, 7, 53, 63
14, 242304, Note_on_c, 7, 53, 0
14, 242304, Note_on_c, 7, 63, 0
14, 242304, Note_on_c, 7, 57, 0
14, 242304, Note_on_c, 7, 48, 0
14, 242304, Note_on_c, 7, 46, 78
14, 242304, Note_on_c, 7, 62, 78
14, 242304, Note_on_c, 7, 58, 78
14, 242304, Note_on_c, 7, 53, 64
14, 242400, Note_on_c, 7, 53, 0
14, 242400, Note_on_c, 7, 46, 0
14, 242400, Note_on_c, 7, 62, 0
14, 242400, Note_on_c, 7, 58, 0
14, 255744, Note_on_c, 7, 32, 80
14, 255744, Note_on_c, 7, 44, 77
14, 255823, Note_on_c, 7, 44, 0
14, 255834, Note_on_c, 7, 32, 0
14, 255840, Note_on_c, 7, 31, 80
14, 255840, Note_on_c, 7, 43, 77
14, 255919, Note_on_c, 7, 43, 0
14, 255930, Note_on_c, 7, 31, 0
14, 255936, Note_on_c, 7, 29, 80
14, 255936, Note_on_c, 7, 41, 73
14, 256015, Note_on_c, 7, 41, 0
14, 256026, Note_on_c, 7, 29, 0
14, 256032, Note_on_c, 7, 27, 80
14, 256032, Note_on_c, 7, 39, 73
14, 256111, Note_on_c, 7, 39, 0
14, 256122, Note_on_c, 7, 27, 0
14, 256128, Note_on_c, 7, 32, 80
14, 256128, Note_on_c, 7, 44, 77
14, 256207, Note_on_c, 7, 44, 0
14, 256218, Note_on_c, 7, 32, 0
14, 256224, Note_on_c, 7, 31, 80
14, 256224, Note_on_c, 7, 43, 77
14, 256303, Note_on_c, 7, 43, 0
14, 256314, Note_on_c, 7, 31, 0
14, 256320, Note_on_c, 7, 29, 80
14, 256320, Note_on_c, 7, 41, 80
14, 256399, Note_on_c, 7, 41, 0
14, 256410, Note_on_c, 7, 29, 0
14, 256416, Note_on_c, 7, 27, 80
14, 256416, Note_on_c, 7, 39, 84
14, 256495, Note_on_c, 7, 39, 0
14, 256506, Note_on_c, 7, 27, 0
14, 256512, Note_on_c, 7, 32, 80
14, 256512, Note_on_c, 7, 44, 88
14, 256591, Note_on_c, 7, 44, 0
14, 256602, Note_on_c, 7, 32, 0
14, 256608, Note_on_c, 7, 31, 80
14, 256608, Note_on_c, 7, 43, 88
14, 256687, Note_on_c, 7, 43, 0
14, 256698, Note_on_c, 7, 31, 0
14, 256704, Note_on_c, 7, 29, 80
14, 256704, Note_on_c, 7, 41, 91
14, 256783, Note_on_c, 7, 41, 0
14, 256794, Note_on_c, 7, 29, 0
14, 256800, Note_on_c, 7, 27, 80
14, 256800, Note_on_c, 7, 39, 98
14, 256879, Note_on_c, 7, 39, 0
14, 256890, Note_on_c, 7, 27, 0
14, 256896, Note_on_c, 7, 43, 125
14, 256896, Note_on_c, 7, 55, 102
14, 256975, Note_on_c, 7, 55, 0
14, 256975, Note_on_c, 7, 43, 0
14, 256992, Note_on_c, 7, 41, 125
14, 256992, Note_on_c, 7, 53, 106
14, 257071, Note_on_c, 7, 53, 0
14, 257071, Note_on_c, 7, 41, 0
14, 257088, Note_on_c, 7, 51, 109
14, 257088, Note_on_c, 7, 39, 126
14, 257167, Note_on_c, 7, 39, 0
14, 257167, Note_on_c, 7, 51, 0
14, 257184, Note_on_c, 7, 50, 113
14, 257184, Note_on_c, 7, 38, 126
14, 257263, Note_on_c, 7, 38, 0
14, 257263, Note_on_c, 7, 50, 0
14, 257280, Note_on_c, 7, 55, 116
14, 257280, Note_on_c, 7, 43, 126
14, 257359, Note_on_c, 7, 43, 0
14, 257359, Note_on_c, 7, 55, 0
14, 257376, Note_on_c, 7, 41, 126
14, 257376, Note_on_c, 7, 53, 116
14, 257455, Note_on_c, 7, 53, 0
14, 257455, Note_on_c, 7, 41, 0
14, 257472, Note_on_c, 7, 39, 127
14, 257472, Note_on_c, 7, 51, 114
14, 257551, Note_on_c, 7, 51, 0
14, 257551, Note_on_c, 7, 39, 0
14, 257568, Note_on_c, 7, 38, 127
14, 257568, Note_on_c, 7, 50, 114
14, 257647, Note_on_c, 7, 50, 0
14, 257647, Note_on_c, 7, 38, 0
14, 257664, Note_on_c, 7, 55, 114
14, 257664, Note_on_c, 7, 43, 127
14, 257743, Note_on_c, 7, 43, 0
14, 257743, Note_on_c, 7, 55, 0
14, 257760, Note_on_c, 7, 53, 114
14, 257760, Note_on_c, 7, 41, 127
14, 257839, Note_on_c, 7, 41, 0
14, 257839, Note_on_c, 7, 53, 0
14, 257856, Note_on_c, 7, 58, 78
14, 257856, Note_on_c, 7, 67, 78
14, 257856, Note_on_c, 7, 63, 78
14, 257856, Note_on_c, 7, 55, 78
14, 257856, Note_on_c, 7, 55, 95
14, 257856, Note_on_c, 7, 39, 95
14, 257856, Note_on_c, 7, 58, 95
14, 257856, Note_on_c, 7, 51, 95
14, 257952, Note_on_c, 7, 51, 0
14, 257952, Note_on_c, 7, 58, 0
14, 257952, Note_on_c, 7, 55, 0
14, 257952, Note_on_c, 7, 67, 0
14, 257952, Note_on_c, 7, 63, 0
14, 257952, Note_on_c, 7, 55, 0
14, 257952, Note_on_c, 7, 39, 0
14, 257952, Note_on_c, 7, 58, 0
14, 257952, Note_on_c, 7, 63, 78
14, 257952, Note_on_c, 7, 58, 78
14, 257952, Note_on_c, 7, 67, 78
14, 257952, Note_on_c, 7, 55, 78
14, 257952, Note_on_c, 7, 39, 95
14, 257952, Note_on_c, 7, 58, 95
14, 257952, Note_on_c, 7, 51, 95
14, 257952, Note_on_c, 7, 55, 95
14, 258048, Note_on_c, 7, 55, 0
14, 258048, Note_on_c, 7, 63, 0
14, 258048, Note_on_c, 7, 39, 0
14, 258048, Note_on_c, 7, 58, 0
14, 258048, Note_on_c, 7, 67, 0
14, 258048, Note_on_c, 7, 55, 0
14, 258048, Note_on_c, 7, 58, 0
14, 258048, Note_on_c, 7, 51, 0
14, 258048, Note_on_c, 7, 62, 78
14, 258048, Note_on_c, 7, 70, 78
14, 258048, Note_on_c, 7, 58, 78
14, 258048, Note_on_c, 7, 65, 78
14, 258048, Note_on_c, 7, 46, 95
14, 258048, Note_on_c, 7, 62, 95
14, 258048, Note_on_c, 7, 58, 95
14, 258240, Note_on_c, 7, 58, 0
14, 258240, Note_on_c, 7, 46, 0
14, 258240, Note_on_c, 7, 70, 0
14, 258240, Note_on_c, 7, 58, 0
14, 258240, Note_on_c, 7, 62, 0
14, 258240, Note_on_c, 7, 62, 0
14, 258240, Note_on_c, 7, 65, 0
14, 258240, Note_on_c, 7, 67, 78
14, 258240, Note_on_c, 7, 58, 78
14, 258240, Note_on_c, 7, 70, 78
14, 258240, Note_on_c, 7, 63, 78
14, 258240, Note_on_c, 7, 51, 95
14, 258240, Note_on_c, 7, 63, 95
14, 258240, Note_on_c, 7, 58, 95
14, 258432, Note_on_c, 7, 58, 0
14, 258432, Note_on_c, 7, 51, 0
14, 258432, Note_on_c, 7, 58, 0
14, 258432, Note_on_c, 7, 70, 0
14, 258432, Note_on_c, 7, 67, 0
14, 258432, Note_on_c, 7, 63, 0
14, 258432, Note_on_c, 7, 63, 0
14, 258432, Note_on_c, 7, 67, 78
14, 258432, Note_on_c, 7, 55, 78
14, 258432, Note_on_c, 7, 63, 78
14, 258432, Note_on_c, 7, 58, 78
14, 258432, Note_on_c, 7, 55, 95
14, 258432, Note_on_c, 7, 51, 95
14, 258432, Note_on_c, 7, 58, 95
14, 258528, Note_on_c, 7, 58, 0
14, 258528, Note_on_c, 7, 55, 0
14, 258528, Note_on_c, 7, 55, 0
14, 258528, Note_on_c, 7, 63, 0
14, 258528, Note_on_c, 7, 67, 0
14, 258528, Note_on_c, 7, 51, 0
14, 258528, Note_on_c, 7, 58, 0
14, 258528, Note_on_c, 7, 67, 78
14, 258528, Note_on_c, 7, 58, 78
14, 258528, Note_on_c, 7, 55, 78
14, 258528, Note_on_c, 7, 63, 78
14, 258528, Note_on_c, 7, 51, 95
14, 258528, Note_on_c, 7, 58, 95
14, 258528, Note_on_c, 7, 55, 95
14, 258624, Note_on_c, 7, 55, 0
14, 258624, Note_on_c, 7, 51, 0
14, 258624, Note_on_c, 7, 58, 0
14, 258624, Note_on_c, 7, 55, 0
14, 258624, Note_on_c, 7, 67, 0
14, 258624, Note_on_c, 7, 58, 0
14, 258624, Note_on_c, 7, 63, 0
14, 258624, Note_on_c, 7, 70, 78
14, 258624, Note_on_c, 7, 65, 78
14, 258624, Note_on_c, 7, 58, 78
14, 258624, Note_on_c, 7, 62, 78
14, 258624, Note_on_c, 7, 46, 95
14, 258624, Note_on_c, 7, 62, 95
14, 258624, Note_on_c, 7, 58, 95
14, 258720, Note_on_c, 7, 58, 0
14, 258720, Note_on_c, 7, 46, 0
14, 258720, Note_on_c, 7, 65, 0
14, 258720, Note_on_c, 7, 58, 0
14, 258720, Note_on_c, 7, 70, 0
14, 258720, Note_on_c, 7, 62, 0
14, 258720, Note_on_c, 7, 62, 0
14, 258720, Note_on_c, 7, 70, 78
14, 258720, Note_on_c, 7, 67, 78
14, 258720, Note_on_c, 7, 63, 78
14, 258720, Note_on_c, 7, 58, 78
14, 258720, Note_on_c, 7, 63, 95
14, 258720, Note_on_c, 7, 51, 95
14, 258720, Note_on_c, 7, 58, 95
14, 258816, Note_on_c, 7, 58, 0
14, 258816, Note_on_c, 7, 63, 0
14, 258816, Note_on_c, 7, 67, 0
14, 258816, Note_on_c, 7, 63, 0
14, 258816, Note_on_c, 7, 70, 0
14, 258816, Note_on_c, 7, 51, 0
14, 258816, Note_on_c, 7, 58, 0
14, 258816, Note_on_c, 7, 60, 78
14, 258816, Note_on_c, 7, 68, 78
14, 258816, Note_on_c, 7, 56, 78
14, 258816, Note_on_c, 7, 63, 78
14, 258816, Note_on_c, 7, 60, 95
14, 258816, Note_on_c, 7, 63, 95
14, 258816, Note_on_c, 7, 56, 95
14, 258816, Note_on_c, 7, 44, 95
14, 258912, Note_on_c, 7, 44, 0
14, 258912, Note_on_c, 7, 60, 0
14, 258912, Note_on_c, 7, 60, 0
14, 258912, Note_on_c, 7, 68, 0
14, 258912, Note_on_c, 7, 56, 0
14, 258912, Note_on_c, 7, 63, 0
14, 258912, Note_on_c, 7, 63, 0
14, 258912, Note_on_c, 7, 56, 0
14, 258912, Note_on_c, 7, 68, 78
14, 258912, Note_on_c, 7, 63, 78
14, 258912, Note_on_c, 7, 60, 78
14, 258912, Note_on_c, 7, 56, 78
14, 258912, Note_on_c, 7, 60, 95
14, 258912, Note_on_c, 7, 63, 95
14, 258912, Note_on_c, 7, 56, 95
14, 258912, Note_on_c, 7, 44, 95
14, 259008, Note_on_c, 7, 44, 0
14, 259008, Note_on_c, 7, 68, 0
14, 259008, Note_on_c, 7, 60, 0
14, 259008, Note_on_c, 7, 63, 0
14, 259008, Note_on_c, 7, 60, 0
14, 259008, Note_on_c, 7, 56, 0
14, 259008, Note_on_c, 7, 63, 0
14, 259008, Note_on_c, 7, 56, 0
14, 259008, Note_on_c, 7, 68, 78
14, 259008, Note_on_c, 7, 56, 78
14, 259008, Note_on_c, 7, 63, 78
14, 259008, Note_on_c, 7, 60, 78
14, 259008, Note_on_c, 7, 63, 95
14, 259008, Note_on_c, 7, 44, 95
14, 259008, Note_on_c, 7, 56, 95
14, 259008, Note_on_c, 7, 60, 95
14, 259296, Note_on_c, 7, 60, 0
14, 259296, Note_on_c, 7, 68, 0
14, 259296, Note_on_c, 7, 63, 0
14, 259296, Note_on_c, 7, 56, 0
14, 259296, Note_on_c, 7, 63, 0
14, 259296, Note_on_c, 7, 60, 0
14, 259296, Note_on_c, 7, 44, 0
14, 259296, Note_on_c, 7, 56, 0
14, 260352, Note_on_c, 7, 70, 78
14, 260352, Note_on_c, 7, 63, 78
14, 260352, Note_on_c, 7, 58, 78
14, 260352, Note_on_c, 7, 67, 78
14, 260352, Note_on_c, 7, 58, 59
14, 260352, Note_on_c, 7, 51, 56
14, 260352, Note_on_c, 7, 63, 59
14, 260448, Note_on_c, 7, 63, 0
14, 260448, Note_on_c, 7, 58, 0
14, 260448, Note_on_c, 7, 63, 0
14, 260448, Note_on_c, 7, 58, 0
14, 260448, Note_on_c, 7, 70, 0
14, 260448, Note_on_c, 7, 51, 0
14, 260448, Note_on_c, 7, 67, 0
14, 260448, Note_on_c, 7, 70, 78
14, 260448, Note_on_c, 7, 67, 78
14, 260448, Note_on_c, 7, 58, 78
14, 260448, Note_on_c, 7, 63, 78
14, 260448, Note_on_c, 7, 63, 59
14, 260448, Note_on_c, 7, 51, 95
14, 260448, Note_on_c, 7, 58, 60
14, 260544, Note_on_c, 7, 58, 0
14, 260544, Note_on_c, 7, 63, 0
14, 260544, Note_on_c, 7, 67, 0
14, 260544, Note_on_c, 7, 58, 0
14, 260544, Note_on_c, 7, 70, 0
14, 260544, Note_on_c, 7, 51, 0
14, 260544, Note_on_c, 7, 63, 0
14, 260544, Note_on_c, 7, 70, 78
14, 260544, Note_on_c, 7, 58, 78
14, 260544, Note_on_c, 7, 67, 78
14, 260544, Note_on_c, 7, 63, 78
14, 260544, Note_on_c, 7, 58, 62
14, 260544, Note_on_c, 7, 51, 54
14, 260544, Note_on_c, 7, 63, 95
14, 260640, Note_on_c, 7, 63, 0
14, 260640, Note_on_c, 7, 58, 0
14, 260640, Note_on_c, 7, 58, 0
14, 260640, Note_on_c, 7, 67, 0
14, 260640, Note_on_c, 7, 70, 0
14, 260640, Note_on_c, 7, 51, 0
14, 260640, Note_on_c, 7, 63, 0
14, 260640, Note_on_c, 7, 63, 78
14, 260640, Note_on_c, 7, 70, 78
14, 260640, Note_on_c, 7, 58, 78
14, 260640, Note_on_c, 7, 67, 78
14, 260640, Note_on_c, 7, 58, 95
14, 260640, Note_on_c, 7, 51, 95
14, 260640, Note_on_c, 7, 63, 59
14, 260736, Note_on_c, 7, 63, 0
14, 260736, Note_on_c, 7, 58, 0
14, 260736, Note_on_c, 7, 70, 0
14, 260736, Note_on_c, 7, 58, 0
14, 260736, Note_on_c, 7, 63, 0
14, 260736, Note_on_c, 7, 51, 0
14, 260736, Note_on_c, 7, 67, 0
14, 260736, Note_on_c, 7, 67, 78
14, 260736, Note_on_c, 7, 63, 78
14, 260736, Note_on_c, 7, 70, 78
14, 260736, Note_on_c, 7, 58, 78
14, 260736, Note_on_c, 7, 58, 66
14, 260736, Note_on_c, 7, 51, 55
14, 260736, Note_on_c, 7, 63, 60
14, 261120, Note_on_c, 7, 63, 0
14, 261120, Note_on_c, 7, 58, 0
14, 261120, Note_on_c, 7, 63, 0
14, 261120, Note_on_c, 7, 70, 0
14, 261120, Note_on_c, 7, 67, 0
14, 261120, Note_on_c, 7, 51, 0
14, 261120, Note_on_c, 7, 58, 0
14, 261120, Note_on_c, 7, 67, 78
14, 261120, Note_on_c, 7, 70, 78
14, 261120, Note_on_c, 7, 63, 78
14, 261120, Note_on_c, 7, 58, 78
14, 261120, Note_on_c, 7, 51, 95
14, 261120, Note_on_c, 7, 63, 95
14, 261120, Note_on_c, 7, 58, 95
14, 261312, Note_on_c, 7, 58, 0
14, 261312, Note_on_c, 7, 51, 0
14, 261312, Note_on_c, 7, 70, 0
14, 261312, Note_on_c, 7, 63, 0
14, 261312, Note_on_c, 7, 67, 0
14, 261312, Note_on_c, 7, 63, 0
14, 261312, Note_on_c, 7, 58, 0
14, 261312, Note_on_c, 7, 67, 78
14, 261312, Note_on_c, 7, 70, 78
14, 261312, Note_on_c, 7, 58, 78
14, 261312, Note_on_c, 7, 63, 78
14, 261312, Note_on_c, 7, 58, 95
14, 261312, Note_on_c, 7, 63, 95
14, 261312, Note_on_c, 7, 55, 95
14, 261504, Note_on_c, 7, 55, 0
14, 261504, Note_on_c, 7, 58, 0
14, 261504, Note_on_c, 7, 70, 0
14, 261504, Note_on_c, 7, 58, 0
14, 261504, Note_on_c, 7, 67, 0
14, 261504, Note_on_c, 7, 63, 0
14, 261504, Note_on_c, 7, 63, 0
14, 261504, Note_on_c, 7, 70, 78
14, 261504, Note_on_c, 7, 65, 78
14, 261504, Note_on_c, 7, 62, 78
14, 261504, Note_on_c, 7, 58, 78
14, 261504, Note_on_c, 7, 62, 95
14, 261504, Note_on_c, 7, 58, 95
14, 261792, Note_on_c, 7, 58, 0
14, 261792, Note_on_c, 7, 65, 0
14, 261792, Note_on_c, 7, 62, 0
14, 261792, Note_on_c, 7, 70, 0
14, 261792, Note_on_c, 7, 62, 0
14, 261792, Note_on_c, 7, 58, 0
14, 261792, Note_on_c, 7, 70, 78
14, 261792, Note_on_c, 7, 65, 78
14, 261792, Note_on_c, 7, 62, 78
14, 261792, Note_on_c, 7, 58, 78
14, 261792, Note_on_c, 7, 62, 95
14, 261792, Note_on_c, 7, 58, 95
14, 261888, Note_on_c, 7, 58, 0
14, 261888, Note_on_c, 7, 65, 0
14, 261888, Note_on_c, 7, 62, 0
14, 261888, Note_on_c, 7, 70, 0
14, 261888, Note_on_c, 7, 62, 0
14, 261888, Note_on_c, 7, 58, 0
14, 261888, Note_on_c, 7, 70, 78
14, 261888, Note_on_c, 7, 65, 78
14, 261888, Note_on_c, 7, 62, 78
14, 261888, Note_on_c, 7, 58, 78
14, 261888, Note_on_c, 7, 62, 95
14, 261888, Note_on_c, 7, 58, 95
14, 261984, Note_on_c, 7, 58, 0
14, 261984, Note_on_c, 7, 65, 0
14, 261984, Note_on_c, 7, 62, 0
14, 261984, Note_on_c, 7, 70, 0
14, 261984, Note_on_c, 7, 62, 0
14, 261984, Note_on_c, 7, 58, 0
14, 261984, Note_on_c, 7, 70, 78
14, 261984, Note_on_c, 7, 58, 78
14, 261984, Note_on_c, 7, 65, 78
14, 261984, Note_on_c, 7, 62, 78
14, 261984, Note_on_c, 7, 58, 95
14, 261984, Note_on_c, 7, 62, 95
14, 262080, Note_on_c, 7, 62, 0
14, 262080, Note_on_c, 7, 58, 0
14, 262080, Note_on_c, 7, 65, 0
14, 262080, Note_on_c, 7, 70, 0
14, 262080, Note_on_c, 7, 58, 0
14, 262080, Note_on_c, 7, 62, 0
14, 262080, Note_on_c, 7, 70, 78
14, 262080, Note_on_c, 7, 63, 78
14, 262080, Note_on_c, 7, 58, 78
14, 262080, Note_on_c, 7, 67, 78
14, 262080, Note_on_c, 7, 63, 95
14, 262080, Note_on_c, 7, 58, 95
14, 262080, Note_on_c, 7, 51, 95
14, 262176, Note_on_c, 7, 51, 0
14, 262176, Note_on_c, 7, 63, 0
14, 262176, Note_on_c, 7, 63, 0
14, 262176, Note_on_c, 7, 58, 0
14, 262176, Note_on_c, 7, 70, 0
14, 262176, Note_on_c, 7, 58, 0
14, 262176, Note_on_c, 7, 67, 0
14, 263616, Note_on_c, 7, 67, 78
14, 263616, Note_on_c, 7, 63, 78
14, 263616, Note_on_c, 7, 55, 78
14, 263616, Note_on_c, 7, 60, 78
14, 263616, Note_on_c, 7, 60, 59
14, 263616, Note_on_c, 7, 48, 62
14, 263616, Note_on_c, 7, 55, 59
14, 263808, Note_on_c, 7, 55, 0
14, 263808, Note_on_c, 7, 60, 0
14, 263808, Note_on_c, 7, 63, 0
14, 263808, Note_on_c, 7, 55, 0
14, 263808, Note_on_c, 7, 67, 0
14, 263808, Note_on_c, 7, 48, 0
14, 263808, Note_on_c, 7, 60, 0
14, 263808, Note_on_c, 7, 65, 78
14, 263808, Note_on_c, 7, 70, 78
14, 263808, Note_on_c, 7, 58, 78
14, 263808, Note_on_c, 7, 62, 78
14, 263808, Note_on_c, 7, 58, 59
14, 263808, Note_on_c, 7, 46, 60
14, 263808, Note_on_c, 7, 62, 67
14, 264000, Note_on_c, 7, 62, 0
14, 264000, Note_on_c, 7, 58, 0
14, 264000, Note_on_c, 7, 70, 0
14, 264000, Note_on_c, 7, 58, 0
14, 264000, Note_on_c, 7, 65, 0
14, 264000, Note_on_c, 7, 46, 0
14, 264000, Note_on_c, 7, 62, 0
14, 264000, Note_on_c, 7, 70, 78
14, 264000, Note_on_c, 7, 67, 78
14, 264000, Note_on_c, 7, 63, 78
14, 264000, Note_on_c, 7, 58, 78
14, 264000, Note_on_c, 7, 63, 59
14, 264000, Note_on_c, 7, 58, 65
14, 264000, Note_on_c, 7, 51, 65
14, 264192, Note_on_c, 7, 51, 0
14, 264192, Note_on_c, 7, 63, 0
14, 264192, Note_on_c, 7, 67, 0
14, 264192, Note_on_c, 7, 63, 0
14, 264192, Note_on_c, 7, 70, 0
14, 264192, Note_on_c, 7, 58, 0
14, 264192, Note_on_c, 7, 58, 0
14, 264192, Note_on_c, 7, 67, 78
14, 264192, Note_on_c, 7, 63, 78
14, 264192, Note_on_c, 7, 55, 78
14, 264192, Note_on_c, 7, 58, 78
14, 264192, Note_on_c, 7, 51, 65
14, 264192, Note_on_c, 7, 58, 56
14, 264192, Note_on_c, 7, 55, 64
14, 264384, Note_on_c, 7, 55, 0
14, 264384, Note_on_c, 7, 51, 0
14, 264384, Note_on_c, 7, 63, 0
14, 264384, Note_on_c, 7, 55, 0
14, 264384, Note_on_c, 7, 67, 0
14, 264384, Note_on_c, 7, 58, 0
14, 264384, Note_on_c, 7, 58, 0
14, 264384, Note_on_c, 7, 70, 78
14, 264384, Note_on_c, 7, 62, 78
14, 264384, Note_on_c, 7, 58, 78
14, 264384, Note_on_c, 7, 46, 60
14, 264384, Note_on_c, 7, 58, 60
14, 264384, Note_on_c, 7, 62, 67
14, 264480, Note_on_c, 7, 62, 0
14, 264480, Note_on_c, 7, 62, 0
14, 264480, Note_on_c, 7, 58, 0
14, 264480, Note_on_c, 7, 70, 0
14, 264480, Note_on_c, 7, 58, 0
14, 264480, Note_on_c, 7, 46, 0
14, 264480, Note_on_c, 7, 67, 78
14, 264480, Note_on_c, 7, 70, 78
14, 264480, Note_on_c, 7, 63, 78
14, 264480, Note_on_c, 7, 58, 78
14, 264480, Note_on_c, 7, 58, 78
14, 264480, Note_on_c, 7, 63, 59
14, 264480, Note_on_c, 7, 58, 60
14, 264480, Note_on_c, 7, 51, 61
14, 264576, Note_on_c, 7, 51, 0
14, 264576, Note_on_c, 7, 67, 0
14, 264576, Note_on_c, 7, 58, 0
14, 264576, Note_on_c, 7, 70, 0
14, 264576, Note_on_c, 7, 63, 0
14, 264576, Note_on_c, 7, 58, 0
14, 264576, Note_on_c, 7, 63, 0
14, 264576, Note_on_c, 7, 58, 0
14, 264576, Note_on_c, 7, 72, 78
14, 264576, Note_on_c, 7, 63, 78
14, 264576, Note_on_c, 7, 60, 78
14, 264576, Note_on_c, 7, 68, 78
14, 264576, Note_on_c, 7, 63, 61
14, 264576, Note_on_c, 7, 60, 61
14, 264576, Note_on_c, 7, 44, 65
14, 264672, Note_on_c, 7, 44, 0
14, 264672, Note_on_c, 7, 63, 0
14, 264672, Note_on_c, 7, 63, 0
14, 264672, Note_on_c, 7, 60, 0
14, 264672, Note_on_c, 7, 72, 0
14, 264672, Note_on_c, 7, 60, 0
14, 264672, Note_on_c, 7, 68, 0
14, 264672, Note_on_c, 7, 63, 78
14, 264672, Note_on_c, 7, 72, 78
14, 264672, Note_on_c, 7, 68, 78
14, 264672, Note_on_c, 7, 60, 78
14, 264672, Note_on_c, 7, 48, 65
14, 264672, Note_on_c, 7, 60, 71
14, 264672, Note_on_c, 7, 63, 61
14, 264768, Note_on_c, 7, 63, 0
14, 264768, Note_on_c, 7, 48, 0
14, 264768, Note_on_c, 7, 72, 0
14, 264768, Note_on_c, 7, 68, 0
14, 264768, Note_on_c, 7, 63, 0
14, 264768, Note_on_c, 7, 60, 0
14, 264768, Note_on_c, 7, 60, 0
14, 264768, Note_on_c, 7, 72, 78
14, 264768, Note_on_c, 7, 68, 78
14, 264768, Note_on_c, 7, 63, 78
14, 264768, Note_on_c, 7, 60, 78
14, 264768, Note_on_c, 7, 51, 62
14, 264768, Note_on_c, 7, 63, 55
14, 264768, Note_on_c, 7, 60, 67
14, 264864, Note_on_c, 7, 60, 0
14, 264864, Note_on_c, 7, 51, 0
14, 264864, Note_on_c, 7, 68, 0
14, 264864, Note_on_c, 7, 63, 0
14, 264864, Note_on_c, 7, 72, 0
14, 264864, Note_on_c, 7, 63, 0
14, 264864, Note_on_c, 7, 60, 0
14, 264864, Note_on_c, 7, 72, 78
14, 264864, Note_on_c, 7, 68, 78
14, 264864, Note_on_c, 7, 60, 78
14, 264864, Note_on_c, 7, 63, 78
14, 264864, Note_on_c, 7, 56, 65
14, 264864, Note_on_c, 7, 60, 67
14, 264864, Note_on_c, 7, 63, 56
14, 264960, Note_on_c, 7, 63, 0
14, 264960, Note_on_c, 7, 56, 0
14, 264960, Note_on_c, 7, 68, 0
14, 264960, Note_on_c, 7, 60, 0
14, 264960, Note_on_c, 7, 72, 0
14, 264960, Note_on_c, 7, 60, 0
14, 264960, Note_on_c, 7, 63, 0
14, 264960, Note_on_c, 7, 68, 78
14, 264960, Note_on_c, 7, 60, 78
14, 264960, Note_on_c, 7, 72, 78
14, 264960, Note_on_c, 7, 63, 78
14, 264960, Note_on_c, 7, 63, 53
14, 264960, Note_on_c, 7, 60, 63
14, 264960, Note_on_c, 7, 48, 64
14, 265056, Note_on_c, 7, 48, 0
14, 265056, Note_on_c, 7, 63, 0
14, 265056, Note_on_c, 7, 60, 0
14, 265056, Note_on_c, 7, 72, 0
14, 265056, Note_on_c, 7, 68, 0
14, 265056, Note_on_c, 7, 60, 0
14, 265056, Note_on_c, 7, 63, 0
14, 265056, Note_on_c, 7, 72, 78
14, 265056, Note_on_c, 7, 63, 78
14, 265056, Note_on_c, 7, 60, 78
14, 265056, Note_on_c, 7, 68, 78
14, 265056, Note_on_c, 7, 63, 56
14, 265056, Note_on_c, 7, 60, 68
14, 265056, Note_on_c, 7, 51, 63
14, 265152, Note_on_c, 7, 51, 0
14, 265152, Note_on_c, 7, 63, 0
14, 265152, Note_on_c, 7, 63, 0
14, 265152, Note_on_c, 7, 60, 0
14, 265152, Note_on_c, 7, 72, 0
14, 265152, Note_on_c, 7, 60, 0
14, 265152, Note_on_c, 7, 68, 0
14, 265152, Note_on_c, 7, 63, 78
14, 265152, Note_on_c, 7, 72, 78
14, 265152, Note_on_c, 7, 68, 78
14, 265152, Note_on_c, 7, 60, 78
14, 265152, Note_on_c, 7, 56, 62
14, 265152, Note_on_c, 7, 60, 61
14, 265152, Note_on_c, 7, 63, 55
14, 265248, Note_on_c, 7, 63, 0
14, 265248, Note_on_c, 7, 56, 0
14, 265248, Note_on_c, 7, 72, 0
14, 265248, Note_on_c, 7, 68, 0
14, 265248, Note_on_c, 7, 63, 0
14, 265248, Note_on_c, 7, 60, 0
14, 265248, Note_on_c, 7, 60, 0
14, 265248, Note_on_c, 7, 68, 78
14, 265248, Note_on_c, 7, 60, 78
14, 265248, Note_on_c, 7, 72, 78
14, 265248, Note_on_c, 7, 63, 78
14, 265248, Note_on_c, 7, 60, 62
14, 265248, Note_on_c, 7, 51, 66
14, 265248, Note_on_c, 7, 63, 55
14, 265344, Note_on_c, 7, 63, 0
14, 265344, Note_on_c, 7, 60, 0
14, 265344, Note_on_c, 7, 60, 0
14, 265344, Note_on_c, 7, 72, 0
14, 265344, Note_on_c, 7, 68, 0
14, 265344, Note_on_c, 7, 51, 0
14, 265344, Note_on_c, 7, 63, 0
14, 265344, Note_on_c, 7, 68, 78
14, 265344, Note_on_c, 7, 72, 78
14, 265344, Note_on_c, 7, 63, 78
14, 265344, Note_on_c, 7, 60, 78
14, 265344, Note_on_c, 7, 60, 62
14, 265344, Note_on_c, 7, 48, 65
14, 265344, Note_on_c, 7, 63, 53
14, 265440, Note_on_c, 7, 63, 0
14, 265440, Note_on_c, 7, 60, 0
14, 265440, Note_on_c, 7, 72, 0
14, 265440, Note_on_c, 7, 63, 0
14, 265440, Note_on_c, 7, 68, 0
14, 265440, Note_on_c, 7, 48, 0
14, 265440, Note_on_c, 7, 60, 0
14, 265440, Note_on_c, 7, 63, 78
14, 265440, Note_on_c, 7, 72, 78
14, 265440, Note_on_c, 7, 60, 78
14, 265440, Note_on_c, 7, 68, 78
14, 265440, Note_on_c, 7, 60, 66
14, 265440, Note_on_c, 7, 63, 54
14, 265440, Note_on_c, 7, 56, 55
14, 265536, Note_on_c, 7, 56, 0
14, 265536, Note_on_c, 7, 60, 0
14, 265536, Note_on_c, 7, 72, 0
14, 265536, Note_on_c, 7, 60, 0
14, 265536, Note_on_c, 7, 63, 0
14, 265536, Note_on_c, 7, 63, 0
14, 265536, Note_on_c, 7, 68, 0
14, 265536, Note_on_c, 7, 68, 78
14, 265536, Note_on_c, 7, 60, 78
14, 265536, Note_on_c, 7, 72, 78
14, 265536, Note_on_c, 7, 63, 78
14, 265536, Note_on_c, 7, 63, 57
14, 265536, Note_on_c, 7, 60, 65
14, 265536, Note_on_c, 7, 51, 53
14, 265632, Note_on_c, 7, 51, 0
14, 265632, Note_on_c, 7, 63, 0
14, 265632, Note_on_c, 7, 60, 0
14, 265632, Note_on_c, 7, 72, 0
14, 265632, Note_on_c, 7, 68, 0
14, 265632, Note_on_c, 7, 60, 0
14, 265632, Note_on_c, 7, 63, 0
14, 265632, Note_on_c, 7, 68, 78
14, 265632, Note_on_c, 7, 72, 78
14, 265632, Note_on_c, 7, 63, 78
14, 265632, Note_on_c, 7, 60, 78
14, 265632, Note_on_c, 7, 60, 63
14, 265632, Note_on_c, 7, 63, 54
14, 265632, Note_on_c, 7, 48, 56
14, 265728, Note_on_c, 7, 48, 0
14, 265728, Note_on_c, 7, 60, 0
14, 265728, Note_on_c, 7, 72, 0
14, 265728, Note_on_c, 7, 63, 0
14, 265728, Note_on_c, 7, 68, 0
14, 265728, Note_on_c, 7, 63, 0
14, 265728, Note_on_c, 7, 60, 0
14, 265728, Note_on_c, 7, 72, 78
14, 265728, Note_on_c, 7, 68, 78
14, 265728, Note_on_c, 7, 60, 78
14, 265728, Note_on_c, 7, 63, 78
14, 265728, Note_on_c, 7, 60, 58
14, 265728, Note_on_c, 7, 63, 59
14, 265728, Note_on_c, 7, 44, 55
14, 265824, Note_on_c, 7, 44, 0
14, 265824, Note_on_c, 7, 60, 0
14, 265824, Note_on_c, 7, 68, 0
14, 265824, Note_on_c, 7, 60, 0
14, 265824, Note_on_c, 7, 72, 0
14, 265824, Note_on_c, 7, 63, 0
14, 265824, Note_on_c, 7, 63, 0
14, 265824, Note_on_c, 7, 70, 78
14, 265824, Note_on_c, 7, 67, 78
14, 265824, Note_on_c, 7, 63, 78
14, 265824, Note_on_c, 7, 58, 78
14, 265824, Note_on_c, 7, 58, 95
14, 265824, Note_on_c, 7, 51, 44
14, 265824, Note_on_c, 7, 63, 95
14, 265920, Note_on_c, 7, 63, 0
14, 265920, Note_on_c, 7, 58, 0
14, 265920, Note_on_c, 7, 67, 0
14, 265920, Note_on_c, 7, 63, 0
14, 265920, Note_on_c, 7, 70, 0
14, 265920, Note_on_c, 7, 51, 0
14, 265920, Note_on_c, 7, 58, 0
14, 265920, Note_on_c, 7, 72, 78
14, 265920, Note_on_c, 7, 68, 78
14, 265920, Note_on_c, 7, 63, 78
14, 265920, Note_on_c, 7, 60, 78
14, 265920, Note_on_c, 7, 44, 95
14, 265920, Note_on_c, 7, 63, 95
14, 265920, Note_on_c, 7, 60, 95
14, 266208, Note_on_c, 7, 60, 0
14, 266208, Note_on_c, 7, 44, 0
14, 266208, Note_on_c, 7, 68, 0
14, 266208, Note_on_c, 7, 63, 0
14, 266208, Note_on_c, 7, 72, 0
14, 266208, Note_on_c, 7, 63, 0
14, 266208, Note_on_c, 7, 60, 0
14, 267264, Note_on_c, 7, 70, 78
14, 267264, Note_on_c, 7, 67, 78
14, 267264, Note_on_c, 7, 63, 78
14, 267264, Note_on_c, 7, 58, 78
14, 267264, Note_on_c, 7, 58, 62
14, 267264, Note_on_c, 7, 51, 53
14, 267264, Note_on_c, 7, 63, 59
14, 267360, Note_on_c, 7, 63, 0
14, 267360, Note_on_c, 7, 58, 0
14, 267360, Note_on_c, 7, 67, 0
14, 267360, Note_on_c, 7, 63, 0
14, 267360, Note_on_c, 7, 70, 0
14, 267360, Note_on_c, 7, 51, 0
14, 267360, Note_on_c, 7, 58, 0
14, 267360, Note_on_c, 7, 70, 78
14, 267360, Note_on_c, 7, 67, 78
14, 267360, Note_on_c, 7, 63, 78
14, 267360, Note_on_c, 7, 58, 78
14, 267360, Note_on_c, 7, 58, 95
14, 267360, Note_on_c, 7, 51, 95
14, 267360, Note_on_c, 7, 63, 62
14, 267456, Note_on_c, 7, 63, 0
14, 267456, Note_on_c, 7, 58, 0
14, 267456, Note_on_c, 7, 67, 0
14, 267456, Note_on_c, 7, 63, 0
14, 267456, Note_on_c, 7, 70, 0
14, 267456, Note_on_c, 7, 51, 0
14, 267456, Note_on_c, 7, 58, 0
14, 267456, Note_on_c, 7, 70, 78
14, 267456, Note_on_c, 7, 63, 78
14, 267456, Note_on_c, 7, 58, 78
14, 267456, Note_on_c, 7, 67, 78
14, 267456, Note_on_c, 7, 63, 60
14, 267456, Note_on_c, 7, 58, 95
14, 267456, Note_on_c, 7, 51, 95
14, 267552, Note_on_c, 7, 51, 0
14, 267552, Note_on_c, 7, 63, 0
14, 267552, Note_on_c, 7, 63, 0
14, 267552, Note_on_c, 7, 58, 0
14, 267552, Note_on_c, 7, 70, 0
14, 267552, Note_on_c, 7, 58, 0
14, 267552, Note_on_c, 7, 67, 0
14, 267552, Note_on_c, 7, 70, 78
14, 267552, Note_on_c, 7, 67, 78
14, 267552, Note_on_c, 7, 63, 78
14, 267552, Note_on_c, 7, 58, 78
14, 267552, Note_on_c, 7, 51, 52
14, 267552, Note_on_c, 7, 58, 65
14, 267552, Note_on_c, 7, 63, 58
14, 267648, Note_on_c, 7, 63, 0
14, 267648, Note_on_c, 7, 51, 0
14, 267648, Note_on_c, 7, 67, 0
14, 267648, Note_on_c, 7, 63, 0
14, 267648, Note_on_c, 7, 70, 0
14, 267648, Note_on_c, 7, 58, 0
14, 267648, Note_on_c, 7, 58, 0
14, 267648, Note_on_c, 7, 67, 78
14, 267648, Note_on_c, 7, 70, 78
14, 267648, Note_on_c, 7, 58, 78
14, 267648, Note_on_c, 7, 63, 78
14, 267648, Note_on_c, 7, 51, 57
14, 267648, Note_on_c, 7, 58, 65
14, 267648, Note_on_c, 7, 63, 60
14, 268032, Note_on_c, 7, 63, 0
14, 268032, Note_on_c, 7, 51, 0
14, 268032, Note_on_c, 7, 70, 0
14, 268032, Note_on_c, 7, 58, 0
14, 268032, Note_on_c, 7, 67, 0
14, 268032, Note_on_c, 7, 58, 0
14, 268032, Note_on_c, 7, 63, 0
14, 268032, Note_on_c, 7, 72, 78
14, 268032, Note_on_c, 7, 67, 78
14, 268032, Note_on_c, 7, 63, 78
14, 268032, Note_on_c, 7, 60, 78
14, 268032, Note_on_c, 7, 48, 64
14, 268032, Note_on_c, 7, 63, 52
14, 268032, Note_on_c, 7, 60, 65
14, 268224, Note_on_c, 7, 60, 0
14, 268224, Note_on_c, 7, 48, 0
14, 268224, Note_on_c, 7, 67, 0
14, 268224, Note_on_c, 7, 63, 0
14, 268224, Note_on_c, 7, 72, 0
14, 268224, Note_on_c, 7, 63, 0
14, 268224, Note_on_c, 7, 60, 0
14, 268224, Note_on_c, 7, 63, 78
14, 268224, Note_on_c, 7, 72, 78
14, 268224, Note_on_c, 7, 60, 78
14, 268224, Note_on_c, 7, 67, 78
14, 268224, Note_on_c, 7, 63, 54
14, 268224, Note_on_c, 7, 60, 65
14, 268224, Note_on_c, 7, 48, 65
14, 268416, Note_on_c, 7, 48, 0
14, 268416, Note_on_c, 7, 63, 0
14, 268416, Note_on_c, 7, 72, 0
14, 268416, Note_on_c, 7, 60, 0
14, 268416, Note_on_c, 7, 63, 0
14, 268416, Note_on_c, 7, 60, 0
14, 268416, Note_on_c, 7, 67, 0
14, 268416, Note_on_c, 7, 67, 78
14, 268416, Note_on_c, 7, 63, 78
14, 268416, Note_on_c, 7, 58, 78
14, 268416, Note_on_c, 7, 55, 78
14, 268416, Note_on_c, 7, 63, 95
14, 268416, Note_on_c, 7, 58, 65
14, 268416, Note_on_c, 7, 55, 95
14, 268704, Note_on_c, 7, 55, 0
14, 268704, Note_on_c, 7, 63, 0
14, 268704, Note_on_c, 7, 63, 0
14, 268704, Note_on_c, 7, 58, 0
14, 268704, Note_on_c, 7, 67, 0
14, 268704, Note_on_c, 7, 58, 0
14, 268704, Note_on_c, 7, 55, 0
14, 268704, Note_on_c, 7, 63, 78
14, 268704, Note_on_c, 7, 67, 78
14, 268704, Note_on_c, 7, 55, 78
14, 268704, Note_on_c, 7, 63, 55
14, 268704, Note_on_c, 7, 58, 95
14, 268704, Note_on_c, 7, 55, 95
14, 268800, Note_on_c, 7, 55, 0
14, 268800, Note_on_c, 7, 67, 0
14, 268800, Note_on_c, 7, 55, 0
14, 268800, Note_on_c, 7, 63, 0
14, 268800, Note_on_c, 7, 58, 0
14, 268800, Note_on_c, 7, 63, 0
14, 268800, Note_on_c, 7, 67, 78
14, 268800, Note_on_c, 7, 63, 78
14, 268800, Note_on_c, 7, 55, 78
14, 268800, Note_on_c, 7, 58, 78
14, 268800, Note_on_c, 7, 55, 62
14, 268800, Note_on_c, 7, 63, 61
14, 268800, Note_on_c, 7, 58, 63
14, 268896, Note_on_c, 7, 58, 0
14, 268896, Note_on_c, 7, 55, 0
14, 268896, Note_on_c, 7, 63, 0
14, 268896, Note_on_c, 7, 58, 95
14, 268896, Note_on_c, 7, 63, 95
14, 268896, Note_on_c, 7, 55, 95
14, 268992, Note_on_c, 7, 55, 0
14, 268992, Note_on_c, 7, 58, 0
14, 268992, Note_on_c, 7, 63, 0
14, 268992, Note_on_c, 7, 58, 0
14, 268992, Note_on_c, 7, 67, 0
14, 268992, Note_on_c, 7, 63, 0
14, 268992, Note_on_c, 7, 55, 0
14, 268992, Note_on_c, 7, 70, 78
14, 268992, Note_on_c, 7, 65, 78
14, 268992, Note_on_c, 7, 63, 78
14, 268992, Note_on_c, 7, 58, 78
14, 268992, Note_on_c, 7, 46, 95
14, 268992, Note_on_c, 7, 63, 95
14, 268992, Note_on_c, 7, 58, 95
14, 269280, Note_on_c, 7, 58, 0
14, 269280, Note_on_c, 7, 46, 0
14, 269280, Note_on_c, 7, 65, 0
14, 269280, Note_on_c, 7, 63, 0
14, 269280, Note_on_c, 7, 70, 0
14, 269280, Note_on_c, 7, 63, 0
14, 269280, Note_on_c, 7, 58, 0
14, 269280, Note_on_c, 7, 70, 78
14, 269280, Note_on_c, 7, 65, 78
14, 269280, Note_on_c, 7, 63, 78
14, 269280, Note_on_c, 7, 58, 78
14, 269280, Note_on_c, 7, 63, 95
14, 269280, Note_on_c, 7, 58, 95
14, 269280, Note_on_c, 7, 46, 95
14, 269312, Note_on_c, 7, 46, 0
14, 269312, Note_on_c, 7, 63, 0
14, 269312, Note_on_c, 7, 65, 0
14, 269312, Note_on_c, 7, 63, 0
14, 269312, Note_on_c, 7, 70, 0
14, 269312, Note_on_c, 7, 58, 0
14, 269312, Note_on_c, 7, 58, 0
14, 269312, Note_on_c, 7, 70, 78
14, 269312, Note_on_c, 7, 58, 78
14, 269312, Note_on_c, 7, 65, 78
14, 269312, Note_on_c, 7, 63, 78
14, 269312, Note_on_c, 7, 63, 95
14, 269312, Note_on_c, 7, 58, 95
14, 269312, Note_on_c, 7, 46, 95
14, 269344, Note_on_c, 7, 46, 0
14, 269344, Note_on_c, 7, 63, 0
14, 269344, Note_on_c, 7, 58, 0
14, 269344, Note_on_c, 7, 65, 0
14, 269344, Note_on_c, 7, 70, 0
14, 269344, Note_on_c, 7, 58, 0
14, 269344, Note_on_c, 7, 63, 0
14, 269344, Note_on_c, 7, 70, 78
14, 269344, Note_on_c, 7, 65, 78
14, 269344, Note_on_c, 7, 63, 78
14, 269344, Note_on_c, 7, 58, 78
14, 269344, Note_on_c, 7, 63, 95
14, 269344, Note_on_c, 7, 58, 95
14, 269344, Note_on_c, 7, 46, 95
14, 269376, Note_on_c, 7, 46, 0
14, 269376, Note_on_c, 7, 63, 0
14, 269376, Note_on_c, 7, 65, 0
14, 269376, Note_on_c, 7, 63, 0
14, 269376, Note_on_c, 7, 70, 0
14, 269376, Note_on_c, 7, 58, 0
14, 269376, Note_on_c, 7, 58, 0
14, 269376, Note_on_c, 7, 65, 78
14, 269376, Note_on_c, 7, 70, 78
14, 269376, Note_on_c, 7, 58, 78
14, 269376, Note_on_c, 7, 63, 78
14, 269376, Note_on_c, 7, 63, 95
14, 269376, Note_on_c, 7, 46, 95
14, 269376, Note_on_c, 7, 58, 95
14, 269472, Note_on_c, 7, 58, 0
14, 269472, Note_on_c, 7, 63, 0
14, 269472, Note_on_c, 7, 70, 0
14, 269472, Note_on_c, 7, 58, 0
14, 269472, Note_on_c, 7, 65, 0
14, 269472, Note_on_c, 7, 46, 0
14, 269472, Note_on_c, 7, 63, 0
14, 269472, Note_on_c, 7, 70, 78
14, 269472, Note_on_c, 7, 65, 78
14, 269472, Note_on_c, 7, 58, 78
14, 269472, Note_on_c, 7, 63, 78
14, 269472, Note_on_c, 7, 58, 95
14, 269472, Note_on_c, 7, 63, 95
14, 269472, Note_on_c, 7, 46, 95
14, 269568, Note_on_c, 7, 46, 0
14, 269568, Note_on_c, 7, 58, 0
14, 269568, Note_on_c, 7, 65, 0
14, 269568, Note_on_c, 7, 58, 0
14, 269568, Note_on_c, 7, 70, 0
14, 269568, Note_on_c, 7, 63, 0
14, 269568, Note_on_c, 7, 63, 0
14, 269568, Note_on_c, 7, 70, 78
14, 269568, Note_on_c, 7, 65, 78
14, 269568, Note_on_c, 7, 63, 78
14, 269568, Note_on_c, 7, 58, 78
14, 269568, Note_on_c, 7, 62, 95
14, 269568, Note_on_c, 7, 58, 95
14, 269568, Note_on_c, 7, 46, 95
14, 269856, Note_on_c, 7, 46, 0
14, 269856, Note_on_c, 7, 62, 0
14, 269856, Note_on_c, 7, 65, 0
14, 269856, Note_on_c, 7, 63, 0
14, 269856, Note_on_c, 7, 70, 0
14, 269856, Note_on_c, 7, 58, 0
14, 269856, Note_on_c, 7, 58, 0
14, 269856, Note_on_c, 7, 63, 78
14, 269856, Note_on_c, 7, 70, 78
14, 269856, Note_on_c, 7, 58, 78
14, 269856, Note_on_c, 7, 65, 78
14, 269856, Note_on_c, 7, 58, 95
14, 269856, Note_on_c, 7, 62, 95
14, 269856, Note_on_c, 7, 46, 95
14, 269952, Note_on_c, 7, 46, 0
14, 269952, Note_on_c, 7, 58, 0
14, 269952, Note_on_c, 7, 70, 0
14, 269952, Note_on_c, 7, 58, 0
14, 269952, Note_on_c, 7, 63, 0
14, 269952, Note_on_c, 7, 62, 0
14, 269952, Note_on_c, 7, 65, 0
14, 269952, Note_on_c, 7, 63, 78
14, 269952, Note_on_c, 7, 70, 78
14, 269952, Note_on_c, 7, 58, 78
14, 269952, Note_on_c, 7, 65, 78
14, 269952, Note_on_c, 7, 62, 95
14, 269952, Note_on_c, 7, 58, 95
14, 269952, Note_on_c, 7, 46, 95
14, 270048, Note_on_c, 7, 46, 0
14, 270048, Note_on_c, 7, 62, 0
14, 270048, Note_on_c, 7, 70, 0
14, 270048, Note_on_c, 7, 58, 0
14, 270048, Note_on_c, 7, 63, 0
14, 270048, Note_on_c, 7, 58, 0
14, 270048, Note_on_c, 7, 65, 0
14, 270048, Note_on_c, 7, 65, 78
14, 270048, Note_on_c, 7, 58, 78
14, 270048, Note_on_c, 7, 70, 78
14, 270048, Note_on_c, 7, 63, 78
14, 270048, Note_on_c, 7, 62, 95
14, 270048, Note_on_c, 7, 58, 95
14, 270048, Note_on_c, 7, 46, 95
14, 270144, Note_on_c, 7, 46, 0
14, 270144, Note_on_c, 7, 62, 0
14, 270144, Note_on_c, 7, 58, 0
14, 270144, Note_on_c, 7, 70, 0
14, 270144, Note_on_c, 7, 65, 0
14, 270144, Note_on_c, 7, 58, 0
14, 270144, Note_on_c, 7, 63, 0
14, 270144, Note_on_c, 7, 70, 78
14, 270144, Note_on_c, 7, 63, 78
14, 270144, Note_on_c, 7, 58, 78
14, 270144, Note_on_c, 7, 67, 78
14, 270144, Note_on_c, 7, 51, 95
14, 270144, Note_on_c, 7, 55, 95
14, 270144, Note_on_c, 7, 58, 95
14, 270240, Note_on_c, 7, 58, 0
14, 270240, Note_on_c, 7, 51, 0
14, 270240, Note_on_c, 7, 63, 0
14, 270240, Note_on_c, 7, 58, 0
14, 270240, Note_on_c, 7, 70, 0
14, 270240, Note_on_c, 7, 55, 0
14, 270240, Note_on_c, 7, 67, 0
14, 270240, Note_on_c, 7, 55, 78
14, 270240, Note_on_c, 7, 58, 78
14, 270288, Note_on_c, 7, 58, 0
14, 270288, Note_on_c, 7, 55, 0
14, 270288, Note_on_c, 7, 55, 78
14, 270288, Note_on_c, 7, 58, 78
14, 270336, Note_on_c, 7, 58, 0
14, 270336, Note_on_c, 7, 55, 0
14, 270336, Note_on_c, 7, 55, 78
14, 270336, Note_on_c, 7, 63, 78
14, 270336, Note_on_c, 7, 46, 95
14, 270432, Note_on_c, 7, 46, 0
14, 270432, Note_on_c, 7, 63, 0
14, 270432, Note_on_c, 7, 55, 0
14, 270432, Note_on_c, 7, 58, 78
14, 270432, Note_on_c, 7, 65, 78
14, 270528, Note_on_c, 7, 65, 0
14, 270528, Note_on_c, 7, 58, 0
14, 270528, Note_on_c, 7, 67, 78
14, 270528, Note_on_c, 7, 63, 78
14, 270528, Note_on_c, 7, 51, 95
14, 270624, Note_on_c, 7, 51, 0
14, 270624, Note_on_c, 7, 63, 0
14, 270624, Note_on_c, 7, 67, 0
14, 270624, Note_on_c, 7, 65, 78
14, 270624, Note_on_c, 7, 58, 78
14, 270720, Note_on_c, 7, 58, 0
14, 270720, Note_on_c, 7, 65, 0
14, 270720, Note_on_c, 7, 55, 78
14, 270720, Note_on_c, 7, 63, 78
14, 270720, Note_on_c, 7, 46, 95
14, 270816, Note_on_c, 7, 46, 0
14, 270816, Note_on_c, 7, 63, 0
14, 270816, Note_on_c, 7, 55, 0
14, 270816, Note_on_c, 7, 58, 78
14, 270816, Note_on_c, 7, 65, 78
14, 270912, Note_on_c, 7, 65, 0
14, 270912, Note_on_c, 7, 58, 0
14, 270912, Note_on_c, 7, 67, 78
14, 270912, Note_on_c, 7, 63, 78
14, 270912, Note_on_c, 7, 51, 95
14, 271008, Note_on_c, 7, 51, 0
14, 271008, Note_on_c, 7, 63, 0
14, 271008, Note_on_c, 7, 67, 0
14, 271104, Note_on_c, 7, 55, 78
14, 271104, Note_on_c, 7, 63, 78
14, 271104, Note_on_c, 7, 46, 95
14, 271200, Note_on_c, 7, 46, 0
14, 271200, Note_on_c, 7, 63, 0
14, 271200, Note_on_c, 7, 55, 0
14, 271296, Note_on_c, 7, 63, 78
14, 271296, Note_on_c, 7, 55, 78
14, 271296, Note_on_c, 7, 51, 95
14, 271392, Note_on_c, 7, 51, 0
14, 271488, Note_on_c, 7, 46, 95
14, 271584, Note_on_c, 7, 46, 0
14, 271680, Note_on_c, 7, 55, 0
14, 271680, Note_on_c, 7, 63, 0
14, 271680, Note_on_c, 7, 51, 95
14, 271776, Note_on_c, 7, 51, 0
14, 271776, Note_on_c, 7, 55, 78
14, 271776, Note_on_c, 7, 58, 78
14, 271824, Note_on_c, 7, 58, 0
14, 271824, Note_on_c, 7, 55, 0
14, 271824, Note_on_c, 7, 55, 78
14, 271824, Note_on_c, 7, 58, 78
14, 271872, Note_on_c, 7, 58, 0
14, 271872, Note_on_c, 7, 55, 0
14, 271872, Note_on_c, 7, 63, 78
14, 271872, Note_on_c, 7, 55, 78
14, 271872, Note_on_c, 7, 46, 95
14, 271968, Note_on_c, 7, 46, 0
14, 271968, Note_on_c, 7, 55, 0
14, 271968, Note_on_c, 7, 63, 0
14, 271968, Note_on_c, 7, 65, 78
14, 271968, Note_on_c, 7, 58, 78
14, 272064, Note_on_c, 7, 58, 0
14, 272064, Note_on_c, 7, 65, 0
14, 272064, Note_on_c, 7, 63, 78
14, 272064, Note_on_c, 7, 67, 78
14, 272064, Note_on_c, 7, 51, 95
14, 272160, Note_on_c, 7, 51, 0
14, 272160, Note_on_c, 7, 67, 0
14, 272160, Note_on_c, 7, 63, 0
14, 272160, Note_on_c, 7, 65, 78
14, 272160, Note_on_c, 7, 58, 78
14, 272256, Note_on_c, 7, 58, 0
14, 272256, Note_on_c, 7, 65, 0
14, 272256, Note_on_c, 7, 63, 78
14, 272256, Note_on_c, 7, 55, 78
14, 272256, Note_on_c, 7, 46, 95
14, 272352, Note_on_c, 7, 46, 0
14, 272352, Note_on_c, 7, 55, 0
14, 272352, Note_on_c, 7, 63, 0
14, 272352, Note_on_c, 7, 58, 78
14, 272352, Note_on_c, 7, 65, 78
14, 272448, Note_on_c, 7, 65, 0
14, 272448, Note_on_c, 7, 58, 0
14, 272448, Note_on_c, 7, 67, 78
14, 272448, Note_on_c, 7, 63, 78
14, 272448, Note_on_c, 7, 51, 95
14, 272544, Note_on_c, 7, 51, 0
14, 272544, Note_on_c, 7, 63, 0
14, 272544, Note_on_c, 7, 67, 0
14, 272640, Note_on_c, 7, 63, 78
14, 272640, Note_on_c, 7, 55, 78
14, 272640, Note_on_c, 7, 46, 95
14, 272736, Note_on_c, 7, 46, 0
14, 272736, Note_on_c, 7, 55, 0
14, 272736, Note_on_c, 7, 63, 0
14, 272832, Note_on_c, 7, 55, 78
14, 272832, Note_on_c, 7, 63, 78
14, 272832, Note_on_c, 7, 51, 95
14, 272928, Note_on_c, 7, 51, 0
14, 273024, Note_on_c, 7, 46, 95
14, 273120, Note_on_c, 7, 46, 0
14, 273216, Note_on_c, 7, 63, 0
14, 273216, Note_on_c, 7, 55, 0
14, 273216, Note_on_c, 7, 51, 95
14, 273312, Note_on_c, 7, 51, 0
14, 273312, Note_on_c, 7, 56, 78
14, 273312, Note_on_c, 7, 60, 78
14, 273360, Note_on_c, 7, 60, 0
14, 273360, Note_on_c, 7, 56, 0
14, 273360, Note_on_c, 7, 60, 78
14, 273360, Note_on_c, 7, 56, 78
14, 273408, Note_on_c, 7, 56, 0
14, 273408, Note_on_c, 7, 60, 0
14, 273408, Note_on_c, 7, 65, 78
14, 273408, Note_on_c, 7, 56, 78
14, 273408, Note_on_c, 7, 46, 95
14, 273504, Note_on_c, 7, 46, 0
14, 273504, Note_on_c, 7, 56, 0
14, 273504, Note_on_c, 7, 65, 0
14, 273504, Note_on_c, 7, 60, 78
14, 273504, Note_on_c, 7, 67, 78
14, 273600, Note_on_c, 7, 67, 0
14, 273600, Note_on_c, 7, 60, 0
14, 273600, Note_on_c, 7, 56, 78
14, 273600, Note_on_c, 7, 65, 78
14, 273600, Note_on_c, 7, 51, 95
14, 273696, Note_on_c, 7, 51, 0
14, 273696, Note_on_c, 7, 65, 0
14, 273696, Note_on_c, 7, 56, 0
14, 273696, Note_on_c, 7, 55, 78
14, 273696, Note_on_c, 7, 60, 78
14, 273792, Note_on_c, 7, 60, 0
14, 273792, Note_on_c, 7, 55, 0
14, 273792, Note_on_c, 7, 53, 78
14, 273792, Note_on_c, 7, 56, 78
14, 273792, Note_on_c, 7, 46, 95
14, 273888, Note_on_c, 7, 46, 0
14, 273888, Note_on_c, 7, 56, 0
14, 273888, Note_on_c, 7, 53, 0
14, 273888, Note_on_c, 7, 55, 78
14, 273888, Note_on_c, 7, 60, 78
14, 273984, Note_on_c, 7, 60, 0
14, 273984, Note_on_c, 7, 55, 0
14, 273984, Note_on_c, 7, 56, 78
14, 273984, Note_on_c, 7, 65, 78
14, 273984, Note_on_c, 7, 51, 95
14, 274080, Note_on_c, 7, 51, 0
14, 274080, Note_on_c, 7, 65, 0
14, 274080, Note_on_c, 7, 56, 0
14, 274080, Note_on_c, 7, 55, 78
14, 274080, Note_on_c, 7, 60, 78
14, 274176, Note_on_c, 7, 60, 0
14, 274176, Note_on_c, 7, 55, 0
14, 274176, Note_on_c, 7, 53, 78
14, 274176, Note_on_c, 7, 46, 95
14, 274272, Note_on_c, 7, 46, 0
14, 274272, Note_on_c, 7, 53, 0
14, 274272, Note_on_c, 7, 55, 78
14, 274272, Note_on_c, 7, 60, 78
14, 274368, Note_on_c, 7, 60, 0
14, 274368, Note_on_c, 7, 55, 0
14, 274368, Note_on_c, 7, 65, 78
14, 274368, Note_on_c, 7, 56, 78
14, 274368, Note_on_c, 7, 51, 95
14, 274464, Note_on_c, 7, 51, 0
14, 274560, Note_on_c, 7, 46, 95
14, 274656, Note_on_c, 7, 46, 0
14, 274752, Note_on_c, 7, 56, 0
14, 274752, Note_on_c, 7, 65, 0
14, 274752, Note_on_c, 7, 51, 95
14, 274848, Note_on_c, 7, 51, 0
14, 274848, Note_on_c, 7, 55, 78
14, 274848, Note_on_c, 7, 58, 78
14, 274896, Note_on_c, 7, 58, 0
14, 274896, Note_on_c, 7, 55, 0
14, 274896, Note_on_c, 7, 55, 78
14, 274896, Note_on_c, 7, 58, 78
14, 274944, Note_on_c, 7, 58, 0
14, 274944, Note_on_c, 7, 55, 0
14, 274944, Note_on_c, 7, 55, 78
14, 274944, Note_on_c, 7, 63, 78
14, 274944, Note_on_c, 7, 46, 95
14, 275040, Note_on_c, 7, 46, 0
14, 275040, Note_on_c, 7, 63, 0
14, 275040, Note_on_c, 7, 55, 0
14, 275040, Note_on_c, 7, 58, 78
14, 275040, Note_on_c, 7, 65, 78
14, 275136, Note_on_c, 7, 65, 0
14, 275136, Note_on_c, 7, 58, 0
14, 275136, Note_on_c, 7, 55, 78
14, 275136, Note_on_c, 7, 63, 78
14, 275136, Note_on_c, 7, 51, 95
14, 275232, Note_on_c, 7, 51, 0
14, 275232, Note_on_c, 7, 63, 0
14, 275232, Note_on_c, 7, 55, 0
14, 275232, Note_on_c, 7, 53, 78
14, 275232, Note_on_c, 7, 58, 78
14, 275328, Note_on_c, 7, 58, 0
14, 275328, Note_on_c, 7, 53, 0
14, 275328, Note_on_c, 7, 51, 78
14, 275328, Note_on_c, 7, 55, 78
14, 275328, Note_on_c, 7, 46, 95
14, 275424, Note_on_c, 7, 46, 0
14, 275424, Note_on_c, 7, 55, 0
14, 275424, Note_on_c, 7, 51, 0
14, 275424, Note_on_c, 7, 53, 78
14, 275424, Note_on_c, 7, 58, 78
14, 275520, Note_on_c, 7, 58, 0
14, 275520, Note_on_c, 7, 53, 0
14, 275520, Note_on_c, 7, 55, 78
14, 275520, Note_on_c, 7, 63, 78
14, 275520, Note_on_c, 7, 51, 95
14, 275616, Note_on_c, 7, 51, 0
14, 275616, Note_on_c, 7, 63, 0
14, 275616, Note_on_c, 7, 55, 0
14, 275616, Note_on_c, 7, 53, 78
14, 275616, Note_on_c, 7, 58, 78
14, 275712, Note_on_c, 7, 58, 0
14, 275712, Note_on_c, 7, 53, 0
14, 275712, Note_on_c, 7, 51, 78
14, 275712, Note_on_c, 7, 55, 78
14, 275712, Note_on_c, 7, 46, 95
14, 275808, Note_on_c, 7, 46, 0
14, 275808, Note_on_c, 7, 55, 0
14, 275808, Note_on_c, 7, 51, 0
14, 275808, Note_on_c, 7, 53, 78
14, 275808, Note_on_c, 7, 58, 78
14, 275904, Note_on_c, 7, 58, 0
14, 275904, Note_on_c, 7, 53, 0
14, 275904, Note_on_c, 7, 63, 78
14, 275904, Note_on_c, 7, 55, 78
14, 275904, Note_on_c, 7, 51, 95
14, 276000, Note_on_c, 7, 51, 0
14, 276096, Note_on_c, 7, 46, 95
14, 276192, Note_on_c, 7, 46, 0
14, 276288, Note_on_c, 7, 55, 0
14, 276288, Note_on_c, 7, 63, 0
14, 276288, Note_on_c, 7, 70, 78
14, 276288, Note_on_c, 7, 63, 78
14, 276288, Note_on_c, 7, 58, 78
14, 276288, Note_on_c, 7, 67, 78
14, 276288, Note_on_c, 7, 58, 85
14, 276288, Note_on_c, 7, 46, 85
14, 276288, Note_on_c, 7, 46, 121
14, 276384, Note_on_c, 7, 67, 0
14, 276384, Note_on_c, 7, 58, 0
14, 276384, Note_on_c, 7, 70, 0
14, 276384, Note_on_c, 7, 63, 0
14, 276384, Note_on_c, 7, 55, 78
14, 276384, Note_on_c, 7, 58, 78
14, 276432, Note_on_c, 7, 55, 0
14, 276432, Note_on_c, 7, 58, 0
14, 276432, Note_on_c, 7, 55, 78
14, 276432, Note_on_c, 7, 58, 78
14, 276480, Note_on_c, 7, 55, 0
14, 276480, Note_on_c, 7, 58, 0
14, 276480, Note_on_c, 7, 55, 78
14, 276480, Note_on_c, 7, 63, 78
14, 276576, Note_on_c, 7, 63, 0
14, 276576, Note_on_c, 7, 55, 0
14, 276576, Note_on_c, 7, 58, 78
14, 276576, Note_on_c, 7, 65, 78
14, 276672, Note_on_c, 7, 65, 0
14, 276672, Note_on_c, 7, 58, 0
14, 276672, Note_on_c, 7, 67, 78
14, 276672, Note_on_c, 7, 63, 78
14, 276768, Note_on_c, 7, 63, 0
14, 276768, Note_on_c, 7, 67, 0
14, 276768, Note_on_c, 7, 65, 78
14, 276768, Note_on_c, 7, 58, 78
14, 276864, Note_on_c, 7, 65, 0
14, 276864, Note_on_c, 7, 58, 0
14, 276864, Note_on_c, 7, 55, 78
14, 276864, Note_on_c, 7, 63, 78
14, 276960, Note_on_c, 7, 63, 0
14, 276960, Note_on_c, 7, 55, 0
14, 276960, Note_on_c, 7, 58, 78
14, 276960, Note_on_c, 7, 65, 78
14, 277053, Note_on_c, 7, 46, 0
14, 277056, Note_on_c, 7, 58, 0
14, 277056, Note_on_c, 7, 58, 0
14, 277056, Note_on_c, 7, 46, 0
14, 277056, Note_on_c, 7, 65, 0
14, 277056, Note_on_c, 7, 67, 78
14, 277056, Note_on_c, 7, 63, 78
14, 277056, Note_on_c, 7, 60, 85
14, 277056, Note_on_c, 7, 48, 85
14, 277056, Note_on_c, 7, 48, 121
14, 277152, Note_on_c, 7, 63, 0
14, 277152, Note_on_c, 7, 67, 0
14, 277248, Note_on_c, 7, 55, 78
14, 277248, Note_on_c, 7, 63, 78
14, 277344, Note_on_c, 7, 63, 0
14, 277344, Note_on_c, 7, 55, 0
14, 277437, Note_on_c, 7, 48, 0
14, 277440, Note_on_c, 7, 60, 0
14, 277440, Note_on_c, 7, 48, 0
14, 277440, Note_on_c, 7, 63, 78
14, 277440, Note_on_c, 7, 55, 78
14, 277440, Note_on_c, 7, 60, 85
14, 277440, Note_on_c, 7, 48, 85
14, 277440, Note_on_c, 7, 48, 121
14, 277821, Note_on_c, 7, 48, 0
14, 277824, Note_on_c, 7, 60, 0
14, 277824, Note_on_c, 7, 63, 0
14, 277824, Note_on_c, 7, 55, 0
14, 277824, Note_on_c, 7, 48, 0
14, 277824, Note_on_c, 7, 58, 85
14, 277824, Note_on_c, 7, 46, 85
14, 277824, Note_on_c, 7, 46, 121
14, 277920, Note_on_c, 7, 55, 78
14, 277920, Note_on_c, 7, 58, 78
14, 277968, Note_on_c, 7, 55, 0
14, 277968, Note_on_c, 7, 58, 0
14, 277968, Note_on_c, 7, 55, 78
14, 277968, Note_on_c, 7, 58, 78
14, 278016, Note_on_c, 7, 55, 0
14, 278016, Note_on_c, 7, 58, 0
14, 278016, Note_on_c, 7, 63, 78
14, 278016, Note_on_c, 7, 55, 78
14, 278112, Note_on_c, 7, 55, 0
14, 278112, Note_on_c, 7, 63, 0
14, 278112, Note_on_c, 7, 65, 78
14, 278112, Note_on_c, 7, 58, 78
14, 278208, Note_on_c, 7, 65, 0
14, 278208, Note_on_c, 7, 58, 0
14, 278208, Note_on_c, 7, 63, 78
14, 278208, Note_on_c, 7, 67, 78
14, 278304, Note_on_c, 7, 67, 0
14, 278304, Note_on_c, 7, 63, 0
14, 278304, Note_on_c, 7, 65, 78
14, 278304, Note_on_c, 7, 58, 78
14, 278397, Note_on_c, 7, 46, 0
14, 278400, Note_on_c, 7, 65, 0
14, 278400, Note_on_c, 7, 58, 0
14, 278400, Note_on_c, 7, 46, 0
14, 278400, Note_on_c, 7, 58, 0
14, 278400, Note_on_c, 7, 43, 111
14, 278400, Note_on_c, 7, 63, 78
14, 278400, Note_on_c, 7, 55, 78
14, 278400, Note_on_c, 7, 55, 85
14, 278496, Note_on_c, 7, 55, 0
14, 278496, Note_on_c, 7, 43, 0
14, 278496, Note_on_c, 7, 63, 0
14, 278496, Note_on_c, 7, 58, 78
14, 278496, Note_on_c, 7, 65, 78
14, 278592, Note_on_c, 7, 65, 0
14, 278592, Note_on_c, 7, 58, 0
14, 278592, Note_on_c, 7, 55, 0
14, 278592, Note_on_c, 7, 39, 121
14, 278592, Note_on_c, 7, 67, 78
14, 278592, Note_on_c, 7, 63, 78
14, 278592, Note_on_c, 7, 51, 85
14, 278688, Note_on_c, 7, 63, 0
14, 278688, Note_on_c, 7, 67, 0
14, 278784, Note_on_c, 7, 63, 78
14, 278784, Note_on_c, 7, 55, 78
14, 278880, Note_on_c, 7, 55, 0
14, 278880, Note_on_c, 7, 63, 0
14, 278976, Note_on_c, 7, 55, 78
14, 278976, Note_on_c, 7, 63, 78
14, 279165, Note_on_c, 7, 39, 0
14, 279360, Note_on_c, 7, 51, 0
14, 279360, Note_on_c, 7, 55, 0
14, 279360, Note_on_c, 7, 63, 0
14, 279360, Note_on_c, 7, 63, 85
14, 279360, Note_on_c, 7, 51, 85
14, 279360, Note_on_c, 7, 51, 121
14, 279456, Note_on_c, 7, 56, 78
14, 279456, Note_on_c, 7, 60, 78
14, 279504, Note_on_c, 7, 60, 0
14, 279504, Note_on_c, 7, 56, 0
14, 279504, Note_on_c, 7, 60, 78
14, 279504, Note_on_c, 7, 56, 78
14, 279552, Note_on_c, 7, 56, 0
14, 279552, Note_on_c, 7, 60, 0
14, 279552, Note_on_c, 7, 65, 78
14, 279552, Note_on_c, 7, 56, 78
14, 279648, Note_on_c, 7, 56, 0
14, 279648, Note_on_c, 7, 65, 0
14, 279648, Note_on_c, 7, 60, 78
14, 279648, Note_on_c, 7, 67, 78
14, 279744, Note_on_c, 7, 67, 0
14, 279744, Note_on_c, 7, 60, 0
14, 279744, Note_on_c, 7, 56, 78
14, 279744, Note_on_c, 7, 65, 78
14, 279840, Note_on_c, 7, 65, 0
14, 279840, Note_on_c, 7, 56, 0
14, 279840, Note_on_c, 7, 55, 78
14, 279840, Note_on_c, 7, 60, 78
14, 279936, Note_on_c, 7, 60, 0
14, 279936, Note_on_c, 7, 55, 0
14, 279936, Note_on_c, 7, 53, 78
14, 279936, Note_on_c, 7, 56, 78
14, 280032, Note_on_c, 7, 56, 0
14, 280032, Note_on_c, 7, 53, 0
14, 280032, Note_on_c, 7, 55, 78
14, 280032, Note_on_c, 7, 60, 78
14, 280128, Note_on_c, 7, 60, 0
14, 280128, Note_on_c, 7, 63, 0
14, 280128, Note_on_c, 7, 51, 0
14, 280128, Note_on_c, 7, 51, 0
14, 280128, Note_on_c, 7, 55, 0
14, 280128, Note_on_c, 7, 56, 78
14, 280128, Note_on_c, 7, 65, 78
14, 280128, Note_on_c, 7, 62, 85
14, 280128, Note_on_c, 7, 50, 85
14, 280128, Note_on_c, 7, 50, 121
14, 280224, Note_on_c, 7, 65, 0
14, 280224, Note_on_c, 7, 56, 0
14, 280224, Note_on_c, 7, 55, 78
14, 280224, Note_on_c, 7, 60, 78
14, 280320, Note_on_c, 7, 60, 0
14, 280320, Note_on_c, 7, 55, 0
14, 280320, Note_on_c, 7, 53, 78
14, 280416, Note_on_c, 7, 53, 0
14, 280416, Note_on_c, 7, 55, 78
14, 280416, Note_on_c, 7, 60, 78
14, 280512, Note_on_c, 7, 60, 0
14, 280512, Note_on_c, 7, 50, 0
14, 280512, Note_on_c, 7, 50, 0
14, 280512, Note_on_c, 7, 62, 0
14, 280512, Note_on_c, 7, 55, 0
14, 280512, Note_on_c, 7, 65, 78
14, 280512, Note_on_c, 7, 56, 78
14, 280512, Note_on_c, 7, 60, 85
14, 280512, Note_on_c, 7, 48, 85
14, 280512, Note_on_c, 7, 48, 121
14, 280896, Note_on_c, 7, 48, 0
14, 280896, Note_on_c, 7, 60, 0
14, 280896, Note_on_c, 7, 65, 0
14, 280896, Note_on_c, 7, 56, 0
14, 280896, Note_on_c, 7, 48, 0
14, 280896, Note_on_c, 7, 58, 85
14, 280896, Note_on_c, 7, 46, 85
14, 280896, Note_on_c, 7, 46, 121
14, 280992, Note_on_c, 7, 55, 78
14, 280992, Note_on_c, 7, 58, 78
14, 281040, Note_on_c, 7, 55, 0
14, 281040, Note_on_c, 7, 58, 0
14, 281040, Note_on_c, 7, 55, 78
14, 281040, Note_on_c, 7, 58, 78
14, 281088, Note_on_c, 7, 55, 0
14, 281088, Note_on_c, 7, 58, 0
14, 281088, Note_on_c, 7, 55, 78
14, 281088, Note_on_c, 7, 63, 78
14, 281184, Note_on_c, 7, 63, 0
14, 281184, Note_on_c, 7, 55, 0
14, 281184, Note_on_c, 7, 58, 78
14, 281184, Note_on_c, 7, 65, 78
14, 281280, Note_on_c, 7, 65, 0
14, 281280, Note_on_c, 7, 58, 0
14, 281280, Note_on_c, 7, 55, 78
14, 281280, Note_on_c, 7, 63, 78
14, 281376, Note_on_c, 7, 63, 0
14, 281376, Note_on_c, 7, 55, 0
14, 281376, Note_on_c, 7, 53, 78
14, 281376, Note_on_c, 7, 58, 78
14, 281472, Note_on_c, 7, 53, 0
14, 281472, Note_on_c, 7, 58, 0
14, 281472, Note_on_c, 7, 51, 78
14, 281472, Note_on_c, 7, 55, 78
14, 281568, Note_on_c, 7, 55, 0
14, 281568, Note_on_c, 7, 51, 0
14, 281568, Note_on_c, 7, 53, 78
14, 281568, Note_on_c, 7, 58, 78
14, 281664, Note_on_c, 7, 58, 0
14, 281664, Note_on_c, 7, 58, 0
14, 281664, Note_on_c, 7, 46, 0
14, 281664, Note_on_c, 7, 46, 0
14, 281664, Note_on_c, 7, 53, 0
14, 281664, Note_on_c, 7, 55, 78
14, 281664, Note_on_c, 7, 63, 78
14, 281664, Note_on_c, 7, 60, 85
14, 281664, Note_on_c, 7, 48, 85
14, 281664, Note_on_c, 7, 48, 121
14, 281760, Note_on_c, 7, 63, 0
14, 281760, Note_on_c, 7, 55, 0
14, 281760, Note_on_c, 7, 53, 78
14, 281760, Note_on_c, 7, 58, 78
14, 281856, Note_on_c, 7, 58, 0
14, 281856, Note_on_c, 7, 53, 0
14, 281856, Note_on_c, 7, 51, 78
14, 281856, Note_on_c, 7, 55, 78
14, 281952, Note_on_c, 7, 55, 0
14, 281952, Note_on_c, 7, 51, 0
14, 281952, Note_on_c, 7, 53, 78
14, 281952, Note_on_c, 7, 58, 78
14, 282048, Note_on_c, 7, 58, 0
14, 282048, Note_on_c, 7, 53, 0
14, 282048, Note_on_c, 7, 63, 78
14, 282048, Note_on_c, 7, 55, 78
14, 282432, Note_on_c, 7, 55, 0
14, 282432, Note_on_c, 7, 48, 0
14, 282432, Note_on_c, 7, 48, 0
14, 282432, Note_on_c, 7, 60, 0
14, 282432, Note_on_c, 7, 63, 0
14, 282432, Note_on_c, 7, 56, 85
14, 282432, Note_on_c, 7, 44, 85
14, 282432, Note_on_c, 7, 44, 121
14, 283200, Note_on_c, 7, 44, 0
14, 283200, Note_on_c, 7, 44, 0
14, 283200, Note_on_c, 7, 56, 0
14, 283200, Note_on_c, 7, 58, 85
14, 283200, Note_on_c, 7, 46, 85
14, 283200, Note_on_c, 7, 46, 121
14, 283584, Note_on_c, 7, 46, 0
14, 283584, Note_on_c, 7, 46, 0
14, 283584, Note_on_c, 7, 58, 0
14, 283584, Note_on_c, 7, 58, 85
14, 283584, Note_on_c, 7, 46, 85
14, 283584, Note_on_c, 7, 46, 121
14, 283968, Note_on_c, 7, 46, 0
14, 283968, Note_on_c, 7, 46, 0
14, 283968, Note_on_c, 7, 58, 0
14, 283968, Note_on_c, 7, 55, 95
14, 283968, Note_on_c, 7, 43, 121
14, 284160, Note_on_c, 7, 64, 78
14, 284160, Note_on_c, 7, 58, 78
14, 284224, Note_on_c, 7, 58, 0
14, 284224, Note_on_c, 7, 64, 0
14, 284224, Note_on_c, 7, 58, 78
14, 284224, Note_on_c, 7, 64, 78
14, 284288, Note_on_c, 7, 64, 0
14, 284288, Note_on_c, 7, 58, 0
14, 284288, Note_on_c, 7, 58, 78
14, 284288, Note_on_c, 7, 64, 78
14, 284352, Note_on_c, 7, 64, 0
14, 284352, Note_on_c, 7, 58, 0
14, 284352, Note_on_c, 7, 58, 78
14, 284352, Note_on_c, 7, 64, 78
14, 284540, Note_on_c, 7, 43, 0
14, 284544, Note_on_c, 7, 55, 0
14, 284544, Note_on_c, 7, 58, 0
14, 284544, Note_on_c, 7, 64, 0
14, 284544, Note_on_c, 7, 72, 78
14, 284544, Note_on_c, 7, 60, 78
14, 284544, Note_on_c, 7, 44, 111
14, 284544, Note_on_c, 7, 56, 95
14, 284733, Note_on_c, 7, 44, 0
14, 284736, Note_on_c, 7, 72, 0
14, 284736, Note_on_c, 7, 60, 0
14, 284736, Note_on_c, 7, 56, 0
14, 284736, Note_on_c, 7, 60, 78
14, 284736, Note_on_c, 7, 66, 78
14, 284736, Note_on_c, 7, 45, 111
14, 284736, Note_on_c, 7, 57, 68
14, 284925, Note_on_c, 7, 45, 0
14, 284928, Note_on_c, 7, 60, 0
14, 284928, Note_on_c, 7, 66, 0
14, 284928, Note_on_c, 7, 57, 0
14, 284928, Note_on_c, 7, 62, 78
14, 284928, Note_on_c, 7, 67, 78
14, 284928, Note_on_c, 7, 46, 111
14, 284928, Note_on_c, 7, 58, 62
14, 285117, Note_on_c, 7, 46, 0
14, 285120, Note_on_c, 7, 62, 0
14, 285120, Note_on_c, 7, 67, 0
14, 285120, Note_on_c, 7, 58, 0
14, 285120, Note_on_c, 7, 68, 78
14, 285120, Note_on_c, 7, 62, 78
14, 285120, Note_on_c, 7, 59, 68
14, 285120, Note_on_c, 7, 47, 111
14, 285309, Note_on_c, 7, 47, 0
14, 285312, Note_on_c, 7, 68, 0
14, 285312, Note_on_c, 7, 62, 0
14, 285312, Note_on_c, 7, 59, 0
14, 285312, Note_on_c, 7, 63, 78
14, 285312, Note_on_c, 7, 69, 78
14, 285312, Note_on_c, 7, 48, 111
14, 285312, Note_on_c, 7, 60, 65
14, 285500, Note_on_c, 7, 48, 0
14, 285504, Note_on_c, 7, 63, 0
14, 285504, Note_on_c, 7, 69, 0
14, 285504, Note_on_c, 7, 60, 0
14, 285504, Note_on_c, 7, 67, 78
14, 285504, Note_on_c, 7, 63, 78
14, 285504, Note_on_c, 7, 58, 65
14, 285504, Note_on_c, 7, 46, 103
14, 285632, Note_on_c, 7, 46, 0
14, 285632, Note_on_c, 7, 67, 0
14, 285632, Note_on_c, 7, 63, 0
14, 285632, Note_on_c, 7, 58, 0
14, 285632, Note_on_c, 7, 63, 78
14, 285632, Note_on_c, 7, 58, 78
14, 285632, Note_on_c, 7, 63, 95
14, 285632, Note_on_c, 7, 46, 95
14, 285632, Note_on_c, 7, 58, 95
14, 285760, Note_on_c, 7, 58, 0
14, 285760, Note_on_c, 7, 63, 0
14, 285760, Note_on_c, 7, 63, 0
14, 285760, Note_on_c, 7, 58, 0
14, 285760, Note_on_c, 7, 46, 0
14, 285760, Note_on_c, 7, 58, 78
14, 285760, Note_on_c, 7, 63, 78
14, 285760, Note_on_c, 7, 63, 95
14, 285760, Note_on_c, 7, 46, 55
14, 285760, Note_on_c, 7, 58, 95
14, 285888, Note_on_c, 7, 58, 0
14, 285888, Note_on_c, 7, 63, 0
14, 285888, Note_on_c, 7, 58, 0
14, 285888, Note_on_c, 7, 63, 0
14, 285888, Note_on_c, 7, 46, 0
14, 285888, Note_on_c, 7, 58, 78
14, 285888, Note_on_c, 7, 63, 78
14, 285888, Note_on_c, 7, 58, 95
14, 285888, Note_on_c, 7, 46, 59
14, 285888, Note_on_c, 7, 63, 95
14, 286016, Note_on_c, 7, 63, 0
14, 286016, Note_on_c, 7, 58, 0
14, 286016, Note_on_c, 7, 58, 0
14, 286016, Note_on_c, 7, 63, 0
14, 286016, Note_on_c, 7, 46, 0
14, 286016, Note_on_c, 7, 70, 78
14, 286016, Note_on_c, 7, 67, 78
14, 286016, Note_on_c, 7, 58, 78
14, 286016, Note_on_c, 7, 55, 78
14, 286016, Note_on_c, 7, 46, 95
14, 286016, Note_on_c, 7, 58, 95
14, 286016, Note_on_c, 7, 55, 95
14, 286144, Note_on_c, 7, 55, 0
14, 286144, Note_on_c, 7, 46, 0
14, 286144, Note_on_c, 7, 67, 0
14, 286144, Note_on_c, 7, 58, 0
14, 286144, Note_on_c, 7, 70, 0
14, 286144, Note_on_c, 7, 58, 0
14, 286144, Note_on_c, 7, 55, 0
14, 286144, Note_on_c, 7, 67, 78
14, 286144, Note_on_c, 7, 55, 78
14, 286144, Note_on_c, 7, 70, 78
14, 286144, Note_on_c, 7, 58, 78
14, 286144, Note_on_c, 7, 55, 95
14, 286144, Note_on_c, 7, 58, 95
14, 286144, Note_on_c, 7, 46, 59
14, 286272, Note_on_c, 7, 46, 0
14, 286272, Note_on_c, 7, 55, 0
14, 286272, Note_on_c, 7, 55, 0
14, 286272, Note_on_c, 7, 70, 0
14, 286272, Note_on_c, 7, 67, 0
14, 286272, Note_on_c, 7, 58, 0
14, 286272, Note_on_c, 7, 58, 0
14, 286272, Note_on_c, 7, 67, 78
14, 286272, Note_on_c, 7, 70, 78
14, 286272, Note_on_c, 7, 58, 78
14, 286272, Note_on_c, 7, 55, 78
14, 286272, Note_on_c, 7, 58, 56
14, 286272, Note_on_c, 7, 55, 62
14, 286272, Note_on_c, 7, 46, 62
14, 286400, Note_on_c, 7, 46, 0
14, 286400, Note_on_c, 7, 58, 0
14, 286400, Note_on_c, 7, 70, 0
14, 286400, Note_on_c, 7, 58, 0
14, 286400, Note_on_c, 7, 67, 0
14, 286400, Note_on_c, 7, 55, 0
14, 286400, Note_on_c, 7, 55, 0
14, 286400, Note_on_c, 7, 67, 78
14, 286400, Note_on_c, 7, 63, 78
14, 286400, Note_on_c, 7, 55, 78
14, 286400, Note_on_c, 7, 51, 78
14, 286400, Note_on_c, 7, 55, 59
14, 286400, Note_on_c, 7, 51, 59
14, 286400, Note_on_c, 7, 46, 65
14, 286528, Note_on_c, 7, 46, 0
14, 286528, Note_on_c, 7, 55, 0
14, 286528, Note_on_c, 7, 63, 0
14, 286528, Note_on_c, 7, 55, 0
14, 286528, Note_on_c, 7, 67, 0
14, 286528, Note_on_c, 7, 51, 0
14, 286528, Note_on_c, 7, 51, 0
14, 286528, Note_on_c, 7, 63, 78
14, 286528, Note_on_c, 7, 55, 78
14, 286528, Note_on_c, 7, 67, 78
14, 286528, Note_on_c, 7, 51, 78
14, 286528, Note_on_c, 7, 46, 63
14, 286528, Note_on_c, 7, 51, 65
14, 286528, Note_on_c, 7, 55, 95
14, 286656, Note_on_c, 7, 55, 0
14, 286656, Note_on_c, 7, 46, 0
14, 286656, Note_on_c, 7, 55, 0
14, 286656, Note_on_c, 7, 67, 0
14, 286656, Note_on_c, 7, 63, 0
14, 286656, Note_on_c, 7, 51, 0
14, 286656, Note_on_c, 7, 51, 0
14, 286656, Note_on_c, 7, 67, 78
14, 286656, Note_on_c, 7, 55, 78
14, 286656, Note_on_c, 7, 51, 78
14, 286656, Note_on_c, 7, 63, 78
14, 286656, Note_on_c, 7, 51, 95
14, 286656, Note_on_c, 7, 46, 65
14, 286656, Note_on_c, 7, 55, 95
14, 286784, Note_on_c, 7, 55, 0
14, 286784, Note_on_c, 7, 51, 0
14, 286784, Note_on_c, 7, 55, 0
14, 286784, Note_on_c, 7, 51, 0
14, 286784, Note_on_c, 7, 67, 0
14, 286784, Note_on_c, 7, 46, 0
14, 286784, Note_on_c, 7, 63, 0
14, 286784, Note_on_c, 7, 67, 78
14, 286784, Note_on_c, 7, 63, 78
14, 286784, Note_on_c, 7, 51, 78
14, 286784, Note_on_c, 7, 55, 78
14, 286784, Note_on_c, 7, 51, 95
14, 286784, Note_on_c, 7, 55, 95
14, 286784, Note_on_c, 7, 46, 65
14, 286912, Note_on_c, 7, 46, 0
14, 286912, Note_on_c, 7, 51, 0
14, 286912, Note_on_c, 7, 63, 0
14, 286912, Note_on_c, 7, 51, 0
14, 286912, Note_on_c, 7, 67, 0
14, 286912, Note_on_c, 7, 55, 0
14, 286912, Note_on_c, 7, 55, 0
14, 286912, Note_on_c, 7, 67, 78
14, 286912, Note_on_c, 7, 51, 78
14, 286912, Note_on_c, 7, 63, 78
14, 286912, Note_on_c, 7, 55, 78
14, 286912, Note_on_c, 7, 55, 95
14, 286912, Note_on_c, 7, 46, 62
14, 286912, Note_on_c, 7, 51, 95
14, 287040, Note_on_c, 7, 51, 0
14, 287040, Note_on_c, 7, 55, 0
14, 287040, Note_on_c, 7, 51, 0
14, 287040, Note_on_c, 7, 63, 0
14, 287040, Note_on_c, 7, 67, 0
14, 287040, Note_on_c, 7, 46, 0
14, 287040, Note_on_c, 7, 55, 0
14, 287040, Note_on_c, 7, 65, 78
14, 287040, Note_on_c, 7, 62, 78
14, 287040, Note_on_c, 7, 53, 78
14, 287040, Note_on_c, 7, 50, 78
14, 287040, Note_on_c, 7, 46, 95
14, 287040, Note_on_c, 7, 53, 95
14, 287040, Note_on_c, 7, 58, 95
14, 287040, Note_on_c, 7, 50, 95
14, 287168, Note_on_c, 7, 50, 0
14, 287168, Note_on_c, 7, 65, 0
14, 287168, Note_on_c, 7, 46, 0
14, 287168, Note_on_c, 7, 62, 0
14, 287168, Note_on_c, 7, 53, 0
14, 287168, Note_on_c, 7, 50, 0
14, 287168, Note_on_c, 7, 53, 0
14, 287168, Note_on_c, 7, 58, 0
14, 287168, Note_on_c, 7, 45, 58
14, 287168, Note_on_c, 7, 57, 63
14, 287296, Note_on_c, 7, 57, 0
14, 287296, Note_on_c, 7, 45, 0
14, 287296, Note_on_c, 7, 44, 57
14, 287296, Note_on_c, 7, 56, 65
14, 287424, Note_on_c, 7, 56, 0
14, 287424, Note_on_c, 7, 44, 0
14, 287424, Note_on_c, 7, 59, 78
14, 287424, Note_on_c, 7, 71, 78
14, 287424, Note_on_c, 7, 55, 78
14, 287424, Note_on_c, 7, 67, 78
14, 287424, Note_on_c, 7, 55, 95
14, 287424, Note_on_c, 7, 55, 68
14, 287424, Note_on_c, 7, 43, 57
14, 287424, Note_on_c, 7, 59, 95
14, 287552, Note_on_c, 7, 59, 0
14, 287552, Note_on_c, 7, 59, 0
14, 287552, Note_on_c, 7, 55, 0
14, 287552, Note_on_c, 7, 71, 0
14, 287552, Note_on_c, 7, 55, 0
14, 287552, Note_on_c, 7, 67, 0
14, 287552, Note_on_c, 7, 55, 0
14, 287552, Note_on_c, 7, 43, 0
14, 287552, Note_on_c, 7, 54, 63
14, 287552, Note_on_c, 7, 42, 59
14, 287680, Note_on_c, 7, 42, 0
14, 287680, Note_on_c, 7, 54, 0
14, 287680, Note_on_c, 7, 41, 56
14, 287680, Note_on_c, 7, 53, 63
14, 287808, Note_on_c, 7, 53, 0
14, 287808, Note_on_c, 7, 41, 0
14, 287808, Note_on_c, 7, 67, 78
14, 287808, Note_on_c, 7, 55, 78
14, 287808, Note_on_c, 7, 72, 78
14, 287808, Note_on_c, 7, 60, 78
14, 287808, Note_on_c, 7, 52, 56
14, 287808, Note_on_c, 7, 40, 66
14, 287808, Note_on_c, 7, 60, 55
14, 287936, Note_on_c, 7, 60, 0
14, 287936, Note_on_c, 7, 52, 0
14, 287936, Note_on_c, 7, 55, 0
14, 287936, Note_on_c, 7, 72, 0
14, 287936, Note_on_c, 7, 67, 0
14, 287936, Note_on_c, 7, 40, 0
14, 287936, Note_on_c, 7, 60, 0
14, 287936, Note_on_c, 7, 51, 95
14, 287936, Note_on_c, 7, 39, 59
14, 288064, Note_on_c, 7, 39, 0
14, 288064, Note_on_c, 7, 51, 0
14, 288064, Note_on_c, 7, 50, 66
14, 288064, Note_on_c, 7, 38, 53
14, 288192, Note_on_c, 7, 38, 0
14, 288192, Note_on_c, 7, 50, 0
14, 288192, Note_on_c, 7, 62, 78
14, 288192, Note_on_c, 7, 56, 78
14, 288192, Note_on_c, 7, 48, 54
14, 288192, Note_on_c, 7, 36, 65
14, 288192, Note_on_c, 7, 56, 59
14, 288192, Note_on_c, 7, 62, 63
14, 288320, Note_on_c, 7, 62, 0
14, 288320, Note_on_c, 7, 56, 0
14, 288320, Note_on_c, 7, 48, 0
14, 288320, Note_on_c, 7, 62, 0
14, 288320, Note_on_c, 7, 56, 0
14, 288320, Note_on_c, 7, 36, 0
14, 288320, Note_on_c, 7, 47, 66
14, 288320, Note_on_c, 7, 35, 95
14, 288448, Note_on_c, 7, 35, 0
14, 288448, Note_on_c, 7, 47, 0
14, 288448, Note_on_c, 7, 34, 59
14, 288448, Note_on_c, 7, 46, 66
14, 288576, Note_on_c, 7, 46, 0
14, 288576, Note_on_c, 7, 34, 0
14, 288576, Note_on_c, 7, 58, 78
14, 288576, Note_on_c, 7, 67, 78
14, 288576, Note_on_c, 7, 55, 78
14, 288576, Note_on_c, 7, 63, 78
14, 288576, Note_on_c, 7, 58, 95
14, 288576, Note_on_c, 7, 55, 95
14, 288768, Note_on_c, 7, 55, 0
14, 288768, Note_on_c, 7, 67, 0
14, 288768, Note_on_c, 7, 55, 0
14, 288768, Note_on_c, 7, 58, 0
14, 288768, Note_on_c, 7, 58, 0
14, 288768, Note_on_c, 7, 63, 0
14, 288960, Note_on_c, 7, 58, 78
14, 288960, Note_on_c, 7, 53, 78
14, 288960, Note_on_c, 7, 62, 78
14, 288960, Note_on_c, 7, 46, 95
14, 288960, Note_on_c, 7, 62, 95
14, 288960, Note_on_c, 7, 53, 95
14, 289152, Note_on_c, 7, 53, 0
14, 289152, Note_on_c, 7, 53, 0
14, 289152, Note_on_c, 7, 62, 0
14, 289152, Note_on_c, 7, 58, 0
14, 289152, Note_on_c, 7, 62, 0
14, 289152, Note_on_c, 7, 46, 0
14, 289152, Note_on_c, 7, 53, 78
14, 289152, Note_on_c, 7, 62, 78
14, 289152, Note_on_c, 7, 58, 78
14, 289152, Note_on_c, 7, 62, 95
14, 289152, Note_on_c, 7, 46, 95
14, 289152, Note_on_c, 7, 53, 95
14, 289344, Note_on_c, 7, 53, 0
14, 289344, Note_on_c, 7, 62, 0
14, 289344, Note_on_c, 7, 58, 0
14, 289344, Note_on_c, 7, 53, 0
14, 289344, Note_on_c, 7, 46, 0
14, 289344, Note_on_c, 7, 62, 0
14, 289344, Note_on_c, 7, 67, 78
14, 289344, Note_on_c, 7, 63, 78
14, 289344, Note_on_c, 7, 58, 95
14, 289344, Note_on_c, 7, 55, 95
14, 289536, Note_on_c, 7, 55, 0
14, 289536, Note_on_c, 7, 67, 0
14, 289536, Note_on_c, 7, 63, 0
14, 289536, Note_on_c, 7, 58, 0
14, 289728, Note_on_c, 7, 58, 78
14, 289728, Note_on_c, 7, 62, 95
14, 289728, Note_on_c, 7, 53, 95
14, 289728, Note_on_c, 7, 46, 95
14, 289920, Note_on_c, 7, 46, 0
14, 289920, Note_on_c, 7, 58, 0
14, 289920, Note_on_c, 7, 62, 0
14, 289920, Note_on_c, 7, 53, 0
14, 289920, Note_on_c, 7, 58, 78
14, 289920, Note_on_c, 7, 46, 95
14, 289920, Note_on_c, 7, 62, 95
14, 289920, Note_on_c, 7, 53, 95
14, 290112, Note_on_c, 7, 53, 0
14, 290112, Note_on_c, 7, 58, 0
14, 290112, Note_on_c, 7, 46, 0
14, 290112, Note_on_c, 7, 62, 0
14, 290112, Note_on_c, 7, 63, 78
14, 290112, Note_on_c, 7, 67, 78
14, 290112, Note_on_c, 7, 55, 95
14, 290112, Note_on_c, 7, 58, 95
14, 290304, Note_on_c, 7, 58, 0
14, 290304, Note_on_c, 7, 63, 0
14, 290304, Note_on_c, 7, 67, 0
14, 290304, Note_on_c, 7, 55, 0
14, 290304, Note_on_c, 7, 62, 78
14, 290304, Note_on_c, 7, 65, 78
14, 290304, Note_on_c, 7, 53, 78
14, 290304, Note_on_c, 7, 56, 95
14, 290304, Note_on_c, 7, 53, 95
14, 290496, Note_on_c, 7, 53, 0
14, 290496, Note_on_c, 7, 53, 0
14, 290496, Note_on_c, 7, 62, 0
14, 290496, Note_on_c, 7, 65, 0
14, 290496, Note_on_c, 7, 56, 0
14, 290496, Note_on_c, 7, 67, 78
14, 290496, Note_on_c, 7, 63, 78
14, 290496, Note_on_c, 7, 58, 95
14, 290496, Note_on_c, 7, 55, 95
14, 290688, Note_on_c, 7, 55, 0
14, 290688, Note_on_c, 7, 67, 0
14, 290688, Note_on_c, 7, 63, 0
14, 290688, Note_on_c, 7, 58, 0
14, 290688, Note_on_c, 7, 62, 78
14, 290688, Note_on_c, 7, 65, 78
14, 290688, Note_on_c, 7, 53, 95
14, 290688, Note_on_c, 7, 56, 95
14, 290880, Note_on_c, 7, 56, 0
14, 290880, Note_on_c, 7, 62, 0
14, 290880, Note_on_c, 7, 65, 0
14, 290880, Note_on_c, 7, 53, 0
14, 290880, Note_on_c, 7, 63, 78
14, 290880, Note_on_c, 7, 67, 78
14, 290880, Note_on_c, 7, 55, 95
14, 290880, Note_on_c, 7, 58, 95
14, 291072, Note_on_c, 7, 58, 0
14, 291072, Note_on_c, 7, 63, 0
14, 291072, Note_on_c, 7, 67, 0
14, 291072, Note_on_c, 7, 55, 0
14, 291072, Note_on_c, 7, 65, 78
14, 291072, Note_on_c, 7, 62, 78
14, 291072, Note_on_c, 7, 53, 95
14, 291072, Note_on_c, 7, 56, 95
14, 291264, Note_on_c, 7, 56, 0
14, 291264, Note_on_c, 7, 65, 0
14, 291264, Note_on_c, 7, 62, 0
14, 291264, Note_on_c, 7, 53, 0
14, 291264, Note_on_c, 7, 67, 78
14, 291264, Note_on_c, 7, 63, 78
14, 291264, Note_on_c, 7, 58, 95
14, 291264, Note_on_c, 7, 55, 95
14, 291456, Note_on_c, 7, 55, 0
14, 291456, Note_on_c, 7, 67, 0
14, 291456, Note_on_c, 7, 63, 0
14, 291456, Note_on_c, 7, 58, 0
14, 291456, Note_on_c, 7, 65, 78
14, 291456, Note_on_c, 7, 62, 78
14, 291456, Note_on_c, 7, 53, 95
14, 291456, Note_on_c, 7, 56, 95
14, 291648, Note_on_c, 7, 56, 0
14, 291648, Note_on_c, 7, 65, 0
14, 291648, Note_on_c, 7, 62, 0
14, 291648, Note_on_c, 7, 53, 0
14, 291648, Note_on_c, 7, 67, 78
14, 291648, Note_on_c, 7, 63, 78
14, 291648, Note_on_c, 7, 55, 60
14, 291648, Note_on_c, 7, 58, 76
14, 291840, Note_on_c, 7, 58, 0
14, 291840, Note_on_c, 7, 67, 0
14, 291840, Note_on_c, 7, 63, 0
14, 291840, Note_on_c, 7, 55, 0
14, 291840, Note_on_c, 7, 62, 78
14, 291840, Note_on_c, 7, 67, 78
14, 291840, Note_on_c, 7, 59, 60
14, 291840, Note_on_c, 7, 55, 62
14, 292032, Note_on_c, 7, 55, 0
14, 292032, Note_on_c, 7, 62, 0
14, 292032, Note_on_c, 7, 67, 0
14, 292032, Note_on_c, 7, 59, 0
14, 292032, Note_on_c, 7, 67, 78
14, 292032, Note_on_c, 7, 63, 78
14, 292032, Note_on_c, 7, 55, 78
14, 292032, Note_on_c, 7, 60, 78
14, 292032, Note_on_c, 7, 48, 64
14, 292224, Note_on_c, 7, 48, 0
14, 292224, Note_on_c, 7, 55, 0
14, 292224, Note_on_c, 7, 67, 0
14, 292224, Note_on_c, 7, 63, 0
14, 292224, Note_on_c, 7, 60, 0
14, 292224, Note_on_c, 7, 67, 78
14, 292224, Note_on_c, 7, 62, 78
14, 292224, Note_on_c, 7, 59, 78
14, 292224, Note_on_c, 7, 55, 78
14, 292416, Note_on_c, 7, 55, 0
14, 292416, Note_on_c, 7, 67, 0
14, 292416, Note_on_c, 7, 62, 0
14, 292416, Note_on_c, 7, 59, 0
14, 292416, Note_on_c, 7, 63, 78
14, 292416, Note_on_c, 7, 60, 78
14, 292416, Note_on_c, 7, 67, 78
14, 292416, Note_on_c, 7, 55, 78
14, 292416, Note_on_c, 7, 48, 62
14, 292608, Note_on_c, 7, 48, 0
14, 292608, Note_on_c, 7, 67, 0
14, 292608, Note_on_c, 7, 63, 0
14, 292608, Note_on_c, 7, 60, 0
14, 292608, Note_on_c, 7, 55, 0
14, 292608, Note_on_c, 7, 67, 78
14, 292608, Note_on_c, 7, 62, 78
14, 292608, Note_on_c, 7, 59, 78
14, 292608, Note_on_c, 7, 55, 78
14, 292608, Note_on_c, 7, 59, 62
14, 292800, Note_on_c, 7, 59, 0
14, 292800, Note_on_c, 7, 59, 0
14, 292800, Note_on_c, 7, 67, 0
14, 292800, Note_on_c, 7, 62, 0
14, 292800, Note_on_c, 7, 55, 0
14, 292800, Note_on_c, 7, 67, 78
14, 292800, Note_on_c, 7, 63, 78
14, 292800, Note_on_c, 7, 60, 78
14, 292800, Note_on_c, 7, 55, 78
14, 292800, Note_on_c, 7, 48, 67
14, 292992, Note_on_c, 7, 48, 0
14, 292992, Note_on_c, 7, 60, 0
14, 292992, Note_on_c, 7, 67, 0
14, 292992, Note_on_c, 7, 63, 0
14, 292992, Note_on_c, 7, 55, 0
14, 292992, Note_on_c, 7, 65, 78
14, 292992, Note_on_c, 7, 58, 78
14, 292992, Note_on_c, 7, 62, 78
14, 292992, Note_on_c, 7, 53, 59
14, 292992, Note_on_c, 7, 46, 63
14, 293184, Note_on_c, 7, 46, 0
14, 293184, Note_on_c, 7, 62, 0
14, 293184, Note_on_c, 7, 65, 0
14, 293184, Note_on_c, 7, 58, 0
14, 293184, Note_on_c, 7, 53, 0
14, 293184, Note_on_c, 7, 67, 78
14, 293184, Note_on_c, 7, 63, 78
14, 293184, Note_on_c, 7, 55, 95
14, 293184, Note_on_c, 7, 51, 95
14, 293184, Note_on_c, 7, 58, 95
14, 293280, Note_on_c, 7, 58, 0
14, 293280, Note_on_c, 7, 55, 0
14, 293280, Note_on_c, 7, 67, 0
14, 293280, Note_on_c, 7, 63, 0
14, 293280, Note_on_c, 7, 51, 0
14, 293952, Note_on_c, 7, 67, 78
14, 293952, Note_on_c, 7, 63, 95
14, 294048, Note_on_c, 7, 63, 0
14, 294048, Note_on_c, 7, 67, 0
14, 294720, Note_on_c, 7, 67, 78
14, 294720, Note_on_c, 7, 63, 78
14, 294780, Note_on_c, 7, 63, 0
14, 294780, Note_on_c, 7, 67, 0
14, 294816, Note_on_c, 7, 55, 78
14, 294816, Note_on_c, 7, 58, 78
14, 294851, Note_on_c, 7, 58, 0
14, 294851, Note_on_c, 7, 55, 0
14, 294864, Note_on_c, 7, 55, 78
14, 294864, Note_on_c, 7, 58, 78
14, 294899, Note_on_c, 7, 58, 0
14, 294899, Note_on_c, 7, 55, 0
14, 294912, Note_on_c, 7, 63, 78
14, 294912, Note_on_c, 7, 55, 78
14, 294947, Note_on_c, 7, 55, 0
14, 294947, Note_on_c, 7, 63, 0
14, 295008, Note_on_c, 7, 58, 78
14, 295008, Note_on_c, 7, 65, 78
14, 295043, Note_on_c, 7, 65, 0
14, 295043, Note_on_c, 7, 58, 0
14, 295104, Note_on_c, 7, 63, 78
14, 295104, Note_on_c, 7, 67, 78
14, 295139, Note_on_c, 7, 67, 0
14, 295139, Note_on_c, 7, 63, 0
14, 295200, Note_on_c, 7, 58, 78
14, 295200, Note_on_c, 7, 65, 78
14, 295235, Note_on_c, 7, 65, 0
14, 295235, Note_on_c, 7, 58, 0
14, 295296, Note_on_c, 7, 63, 78
14, 295296, Note_on_c, 7, 55, 78
14, 295331, Note_on_c, 7, 55, 0
14, 295331, Note_on_c, 7, 63, 0
14, 295392, Note_on_c, 7, 58, 78
14, 295392, Note_on_c, 7, 65, 78
14, 295427, Note_on_c, 7, 65, 0
14, 295427, Note_on_c, 7, 58, 0
14, 295488, Note_on_c, 7, 63, 78
14, 295488, Note_on_c, 7, 67, 78
14, 295536, Note_on_c, 7, 67, 0
14, 295536, Note_on_c, 7, 63, 0
14, 295584, Note_on_c, 7, 58, 78
14, 295584, Note_on_c, 7, 50, 78
14, 295619, Note_on_c, 7, 50, 0
14, 295619, Note_on_c, 7, 58, 0
14, 295632, Note_on_c, 7, 58, 78
14, 295632, Note_on_c, 7, 50, 78
14, 295667, Note_on_c, 7, 50, 0
14, 295667, Note_on_c, 7, 58, 0
14, 295680, Note_on_c, 7, 55, 78
14, 295680, Note_on_c, 7, 51, 78
14, 295715, Note_on_c, 7, 51, 0
14, 295715, Note_on_c, 7, 55, 0
14, 295776, Note_on_c, 7, 58, 78
14, 295776, Note_on_c, 7, 53, 78
14, 295811, Note_on_c, 7, 53, 0
14, 295811, Note_on_c, 7, 58, 0
14, 295872, Note_on_c, 7, 63, 78
14, 295872, Note_on_c, 7, 55, 78
14, 295907, Note_on_c, 7, 55, 0
14, 295907, Note_on_c, 7, 63, 0
14, 295968, Note_on_c, 7, 58, 78
14, 295968, Note_on_c, 7, 53, 78
14, 296003, Note_on_c, 7, 53, 0
14, 296003, Note_on_c, 7, 58, 0
14, 296064, Note_on_c, 7, 51, 78
14, 296064, Note_on_c, 7, 55, 78
14, 296099, Note_on_c, 7, 55, 0
14, 296099, Note_on_c, 7, 51, 0
14, 296160, Note_on_c, 7, 58, 78
14, 296160, Note_on_c, 7, 53, 78
14, 296160, Note_on_c, 7, 58, 78
14, 296160, Note_on_c, 7, 53, 78
14, 296195, Note_on_c, 7, 53, 0
14, 296195, Note_on_c, 7, 58, 0
14, 296256, Note_on_c, 7, 58, 0
14, 296256, Note_on_c, 7, 53, 0
14, 296256, Note_on_c, 7, 55, 78
14, 296256, Note_on_c, 7, 63, 78
14, 296256, Note_on_c, 7, 55, 78
14, 296256, Note_on_c, 7, 63, 78
14, 296256, Note_on_c, 7, 58, 95
14, 296324, Note_on_c, 7, 58, 0
14, 296324, Note_on_c, 7, 55, 0
14, 296324, Note_on_c, 7, 55, 0
14, 296324, Note_on_c, 7, 63, 0
14, 296324, Note_on_c, 7, 63, 0
14, 296640, Note_on_c, 7, 58, 78
14, 296640, Note_on_c, 7, 55, 78
14, 296640, Note_on_c, 7, 51, 95
14, 296640, Note_on_c, 7, 58, 95
14, 296640, Note_on_c, 7, 55, 95
14, 296928, Note_on_c, 7, 55, 0
14, 296928, Note_on_c, 7, 51, 0
14, 296928, Note_on_c, 7, 58, 0
14, 296928, Note_on_c, 7, 55, 0
14, 296928, Note_on_c, 7, 58, 0
14, 296928, Note_on_c, 7, 51, 76
14, 296928, Note_on_c, 7, 55, 78
14, 296928, Note_on_c, 7, 58, 78
14, 297024, Note_on_c, 7, 58, 0
14, 297024, Note_on_c, 7, 55, 0
14, 297024, Note_on_c, 7, 51, 0
14, 297024, Note_on_c, 7, 55, 95
14, 297024, Note_on_c, 7, 58, 95
14, 297024, Note_on_c, 7, 51, 95
14, 297408, Note_on_c, 7, 51, 0
14, 297408, Note_on_c, 7, 58, 0
14, 297408, Note_on_c, 7, 55, 0
14, 297408, Note_on_c, 7, 51, 95
14, 297408, Note_on_c, 7, 63, 95
14, 297408, Note_on_c, 7, 55, 95
14, 297792, Note_on_c, 7, 55, 0
14, 297792, Note_on_c, 7, 63, 0
14, 297792, Note_on_c, 7, 51, 0
14, 297792, Note_on_c, 7, 55, 95
14, 297792, Note_on_c, 7, 51, 95
14, 297792, Note_on_c, 7, 58, 95
14, 298176, Note_on_c, 7, 58, 0
14, 298176, Note_on_c, 7, 51, 0
14, 298176, Note_on_c, 7, 55, 0
14, 298560, Note_on_c, 7, 58, 95
14, 298560, Note_on_c, 7, 63, 95
14, 298560, Note_on_c, 7, 51, 95
14, 298944, Note_on_c, 7, 51, 0
14, 298944, Note_on_c, 7, 63, 0
14, 298944, Note_on_c, 7, 58, 0
14, 299328, Note_on_c, 7, 51, 95
14, 299328, Note_on_c, 7, 55, 95
14, 299328, Note_on_c, 7, 58, 95
14, 299712, Note_on_c, 7, 58, 0
14, 299712, Note_on_c, 7, 55, 0
14, 299712, Note_on_c, 7, 51, 0
14, 300096, Note_on_c, 7, 58, 95
14, 300096, Note_on_c, 7, 55, 95
14, 300096, Note_on_c, 7, 51, 95
14, 300480, Note_on_c, 7, 51, 0
14, 300480, Note_on_c, 7, 55, 0
14, 300480, Note_on_c, 7, 58, 0
14, 300864, Note_on_c, 7, 67, 78
14, 300864, Note_on_c, 7, 63, 78
14, 300864, Note_on_c, 7, 58, 95
14, 300864, Note_on_c, 7, 51, 95
14, 300864, Note_on_c, 7, 55, 95
14, 301056, Note_on_c, 7, 55, 0
14, 301056, Note_on_c, 7, 58, 0
14, 301056, Note_on_c, 7, 67, 0
14, 301056, Note_on_c, 7, 63, 0
14, 301056, Note_on_c, 7, 51, 0
14, 301632, Note_on_c, 7, 63, 78
14, 301632, Note_on_c, 7, 39, 95
14, 301632, Note_on_c, 7, 51, 95
14, 302205, Note_on_c, 7, 51, 0
14, 302205, Note_on_c, 7, 39, 0
14, 302205, Note_on_c, 7, 63, 0
14, 302208, Note_on_c, 7, 63, 78
14, 302208, Note_on_c, 7, 39, 95
14, 302208, Note_on_c, 7, 51, 95
14, 302397, Note_on_c, 7, 51, 0
14, 302397, Note_on_c, 7, 39, 0
14, 302397, Note_on_c, 7, 63, 0
14, 302400, Note_on_c, 7, 63, 78
14, 302400, Note_on_c, 7, 39, 95
14, 302400, Note_on_c, 7, 51, 95
14, 303168, Note_on_c, 7, 51, 0
14, 303168, Note_on_c, 7, 39, 0
14, 303168, Note_on_c, 7, 63, 0
14, 303168, End_track
15, 0, Start_track
15, 0, MIDI_port, 0
15, 0, Title_t, "Cornets"
15, 0, Program_c, 8, 56
15, 0, Control_c, 8, 7, 98
15, 0, Control_c, 8, 10, 35
15, 34752, Note_on_c, 8, 81, 103
15, 35040, Note_on_c, 8, 81, 0
15, 35040, Note_on_c, 8, 80, 103
15, 35136, Note_on_c, 8, 80, 0
15, 35136, Note_on_c, 8, 76, 59
15, 35232, Note_on_c, 8, 76, 0
15, 35232, Note_on_c, 8, 75, 60
15, 35328, Note_on_c, 8, 75, 0
15, 35328, Note_on_c, 8, 73, 60
15, 35424, Note_on_c, 8, 73, 0
15, 35424, Note_on_c, 8, 65, 103
15, 35424, Note_on_c, 8, 77, 103
15, 35520, Note_on_c, 8, 77, 0
15, 35520, Note_on_c, 8, 65, 0
15, 35520, Note_on_c, 8, 78, 103
15, 35520, Note_on_c, 8, 66, 103
15, 35616, Note_on_c, 8, 66, 0
15, 35616, Note_on_c, 8, 78, 0
15, 35616, Note_on_c, 8, 68, 103
15, 35616, Note_on_c, 8, 80, 103
15, 35712, Note_on_c, 8, 80, 0
15, 35712, Note_on_c, 8, 68, 0
15, 35712, Note_on_c, 8, 69, 103
15, 35712, Note_on_c, 8, 81, 103
15, 35808, Note_on_c, 8, 81, 0
15, 35808, Note_on_c, 8, 69, 0
15, 37056, Note_on_c, 8, 74, 103
15, 37344, Note_on_c, 8, 74, 0
15, 37344, Note_on_c, 8, 73, 103
15, 37440, Note_on_c, 8, 73, 0
15, 37440, Note_on_c, 8, 69, 103
15, 37536, Note_on_c, 8, 69, 0
15, 37536, Note_on_c, 8, 68, 103
15, 37632, Note_on_c, 8, 68, 0
15, 37632, Note_on_c, 8, 66, 103
15, 37728, Note_on_c, 8, 66, 0
15, 37728, Note_on_c, 8, 70, 103
15, 37728, Note_on_c, 8, 58, 103
15, 37824, Note_on_c, 8, 58, 0
15, 37824, Note_on_c, 8, 70, 0
15, 37824, Note_on_c, 8, 59, 103
15, 37824, Note_on_c, 8, 71, 103
15, 37920, Note_on_c, 8, 71, 0
15, 37920, Note_on_c, 8, 59, 0
15, 37920, Note_on_c, 8, 61, 103
15, 37920, Note_on_c, 8, 73, 103
15, 38016, Note_on_c, 8, 73, 0
15, 38016, Note_on_c, 8, 61, 0
15, 38016, Note_on_c, 8, 74, 103
15, 38016, Note_on_c, 8, 62, 103
15, 38112, Note_on_c, 8, 62, 0
15, 38112, Note_on_c, 8, 74, 0
15, 38400, Note_on_c, 8, 64, 86
15, 38544, Note_on_c, 8, 64, 0
15, 38544, Note_on_c, 8, 62, 86
15, 38592, Note_on_c, 8, 62, 0
15, 38592, Note_on_c, 8, 67, 86
15, 38688, Note_on_c, 8, 67, 0
15, 38784, Note_on_c, 8, 65, 86
15, 38928, Note_on_c, 8, 65, 0
15, 38928, Note_on_c, 8, 64, 86
15, 38976, Note_on_c, 8, 64, 0
15, 38976, Note_on_c, 8, 70, 86
15, 39072, Note_on_c, 8, 70, 0
15, 39168, Note_on_c, 8, 67, 86
15, 39312, Note_on_c, 8, 67, 0
15, 39312, Note_on_c, 8, 66, 86
15, 39360, Note_on_c, 8, 66, 0
15, 39360, Note_on_c, 8, 72, 86
15, 39456, Note_on_c, 8, 72, 0
15, 39744, Note_on_c, 8, 63, 86
15, 39744, Note_on_c, 8, 66, 86
15, 39840, Note_on_c, 8, 66, 0
15, 39840, Note_on_c, 8, 63, 0
15, 39840, Note_on_c, 8, 63, 86
15, 39840, Note_on_c, 8, 66, 86
15, 39936, Note_on_c, 8, 66, 0
15, 39936, Note_on_c, 8, 63, 0
15, 39936, Note_on_c, 8, 72, 86
15, 39936, Note_on_c, 8, 69, 86
15, 40032, Note_on_c, 8, 69, 0
15, 40032, Note_on_c, 8, 72, 0
15, 40032, Note_on_c, 8, 72, 86
15, 40032, Note_on_c, 8, 69, 86
15, 40128, Note_on_c, 8, 69, 0
15, 40128, Note_on_c, 8, 72, 0
15, 40128, Note_on_c, 8, 69, 86
15, 40128, Note_on_c, 8, 66, 86
15, 40224, Note_on_c, 8, 66, 0
15, 40224, Note_on_c, 8, 69, 0
15, 40224, Note_on_c, 8, 69, 86
15, 40224, Note_on_c, 8, 66, 86
15, 40320, Note_on_c, 8, 66, 0
15, 40320, Note_on_c, 8, 69, 0
15, 40320, Note_on_c, 8, 70, 86
15, 40320, Note_on_c, 8, 66, 86
15, 40512, Note_on_c, 8, 66, 0
15, 40512, Note_on_c, 8, 70, 0
15, 40512, Note_on_c, 8, 66, 86
15, 40512, Note_on_c, 8, 72, 86
15, 40704, Note_on_c, 8, 72, 0
15, 40704, Note_on_c, 8, 66, 0
15, 74400, Note_on_c, 8, 71, 86
15, 74496, Note_on_c, 8, 71, 0
15, 74496, Note_on_c, 8, 70, 86
15, 74592, Note_on_c, 8, 70, 0
15, 79584, Note_on_c, 8, 65, 85
15, 79632, Note_on_c, 8, 65, 0
15, 79632, Note_on_c, 8, 65, 85
15, 79680, Note_on_c, 8, 65, 0
15, 79680, Note_on_c, 8, 65, 85
15, 79776, Note_on_c, 8, 65, 0
15, 79776, Note_on_c, 8, 65, 85
15, 79872, Note_on_c, 8, 65, 0
15, 79872, Note_on_c, 8, 70, 85
15, 80064, Note_on_c, 8, 70, 0
15, 80064, Note_on_c, 8, 70, 87
15, 80256, Note_on_c, 8, 70, 0
15, 80256, Note_on_c, 8, 72, 87
15, 80448, Note_on_c, 8, 72, 0
15, 80448, Note_on_c, 8, 72, 87
15, 80640, Note_on_c, 8, 72, 0
15, 80640, Note_on_c, 8, 77, 87
15, 80928, Note_on_c, 8, 77, 0
15, 80928, Note_on_c, 8, 74, 87
15, 81024, Note_on_c, 8, 74, 0
15, 81024, Note_on_c, 8, 70, 87
15, 81120, Note_on_c, 8, 70, 0
15, 81120, Note_on_c, 8, 70, 85
15, 81216, Note_on_c, 8, 70, 0
15, 81216, Note_on_c, 8, 74, 85
15, 81312, Note_on_c, 8, 74, 0
15, 81312, Note_on_c, 8, 70, 85
15, 81408, Note_on_c, 8, 70, 0
15, 81408, Note_on_c, 8, 67, 85
15, 81600, Note_on_c, 8, 67, 0
15, 81600, Note_on_c, 8, 75, 85
15, 81792, Note_on_c, 8, 75, 0
15, 81792, Note_on_c, 8, 74, 85
15, 81984, Note_on_c, 8, 74, 0
15, 81984, Note_on_c, 8, 72, 87
15, 82176, Note_on_c, 8, 72, 0
15, 82176, Note_on_c, 8, 70, 87
15, 82464, Note_on_c, 8, 70, 0
15, 85728, Note_on_c, 8, 60, 77
15, 85776, Note_on_c, 8, 60, 0
15, 85776, Note_on_c, 8, 60, 77
15, 85824, Note_on_c, 8, 60, 0
15, 85824, Note_on_c, 8, 60, 77
15, 85920, Note_on_c, 8, 60, 0
15, 85920, Note_on_c, 8, 60, 77
15, 86016, Note_on_c, 8, 60, 0
15, 86016, Note_on_c, 8, 65, 77
15, 86208, Note_on_c, 8, 65, 0
15, 86208, Note_on_c, 8, 65, 77
15, 86400, Note_on_c, 8, 65, 0
15, 86400, Note_on_c, 8, 67, 77
15, 86592, Note_on_c, 8, 67, 0
15, 86592, Note_on_c, 8, 67, 77
15, 86784, Note_on_c, 8, 67, 0
15, 86784, Note_on_c, 8, 72, 77
15, 87072, Note_on_c, 8, 72, 0
15, 87072, Note_on_c, 8, 69, 77
15, 87168, Note_on_c, 8, 69, 0
15, 87168, Note_on_c, 8, 65, 77
15, 87264, Note_on_c, 8, 65, 0
15, 87264, Note_on_c, 8, 65, 77
15, 87360, Note_on_c, 8, 65, 0
15, 87360, Note_on_c, 8, 69, 77
15, 87456, Note_on_c, 8, 69, 0
15, 87456, Note_on_c, 8, 65, 77
15, 87552, Note_on_c, 8, 65, 0
15, 87552, Note_on_c, 8, 62, 77
15, 87744, Note_on_c, 8, 62, 0
15, 87744, Note_on_c, 8, 70, 77
15, 87936, Note_on_c, 8, 70, 0
15, 87936, Note_on_c, 8, 69, 77
15, 88128, Note_on_c, 8, 69, 0
15, 88128, Note_on_c, 8, 67, 77
15, 88320, Note_on_c, 8, 67, 0
15, 88320, Note_on_c, 8, 65, 77
15, 88704, Note_on_c, 8, 65, 0
15, 88800, Note_on_c, 8, 65, 85
15, 88848, Note_on_c, 8, 65, 0
15, 88848, Note_on_c, 8, 65, 85
15, 88896, Note_on_c, 8, 65, 0
15, 88896, Note_on_c, 8, 65, 77
15, 88992, Note_on_c, 8, 65, 0
15, 88992, Note_on_c, 8, 65, 77
15, 89088, Note_on_c, 8, 65, 0
15, 89088, Note_on_c, 8, 69, 77
15, 89472, Note_on_c, 8, 69, 0
15, 89568, Note_on_c, 8, 69, 77
15, 89616, Note_on_c, 8, 69, 0
15, 89616, Note_on_c, 8, 69, 77
15, 89664, Note_on_c, 8, 69, 0
15, 89664, Note_on_c, 8, 69, 77
15, 89760, Note_on_c, 8, 69, 0
15, 89760, Note_on_c, 8, 69, 77
15, 89856, Note_on_c, 8, 69, 0
15, 89856, Note_on_c, 8, 72, 95
15, 89856, Note_on_c, 8, 60, 95
15, 89856, Note_on_c, 8, 72, 93
15, 90240, Note_on_c, 8, 72, 0
15, 90240, Note_on_c, 8, 60, 0
15, 90240, Note_on_c, 8, 72, 0
15, 90336, Note_on_c, 8, 72, 95
15, 90336, Note_on_c, 8, 60, 95
15, 90384, Note_on_c, 8, 60, 0
15, 90384, Note_on_c, 8, 72, 0
15, 90384, Note_on_c, 8, 60, 95
15, 90384, Note_on_c, 8, 72, 95
15, 90432, Note_on_c, 8, 72, 0
15, 90432, Note_on_c, 8, 60, 0
15, 90432, Note_on_c, 8, 60, 95
15, 90432, Note_on_c, 8, 72, 95
15, 90528, Note_on_c, 8, 72, 0
15, 90528, Note_on_c, 8, 60, 0
15, 90528, Note_on_c, 8, 72, 95
15, 90528, Note_on_c, 8, 60, 95
15, 90624, Note_on_c, 8, 60, 0
15, 90624, Note_on_c, 8, 72, 0
15, 90624, Note_on_c, 8, 75, 95
15, 90624, Note_on_c, 8, 63, 95
15, 90912, Note_on_c, 8, 63, 0
15, 90912, Note_on_c, 8, 75, 0
15, 90912, Note_on_c, 8, 75, 95
15, 90912, Note_on_c, 8, 63, 95
15, 91008, Note_on_c, 8, 63, 0
15, 91008, Note_on_c, 8, 75, 0
15, 91008, Note_on_c, 8, 78, 95
15, 91008, Note_on_c, 8, 66, 95
15, 91152, Note_on_c, 8, 66, 0
15, 91152, Note_on_c, 8, 78, 0
15, 91296, Note_on_c, 8, 78, 95
15, 91296, Note_on_c, 8, 66, 95
15, 91392, Note_on_c, 8, 66, 0
15, 91392, Note_on_c, 8, 78, 0
15, 91392, Note_on_c, 8, 69, 95
15, 91392, Note_on_c, 8, 81, 95
15, 91872, Note_on_c, 8, 81, 0
15, 91872, Note_on_c, 8, 69, 0
15, 94560, Note_on_c, 8, 63, 86
15, 94560, Note_on_c, 8, 59, 86
15, 94656, Note_on_c, 8, 59, 0
15, 94656, Note_on_c, 8, 63, 0
15, 94656, Note_on_c, 8, 71, 86
15, 94656, Note_on_c, 8, 75, 86
15, 94752, Note_on_c, 8, 75, 0
15, 94752, Note_on_c, 8, 71, 0
15, 95328, Note_on_c, 8, 65, 76
15, 95328, Note_on_c, 8, 68, 76
15, 95424, Note_on_c, 8, 68, 0
15, 95424, Note_on_c, 8, 65, 0
15, 95520, Note_on_c, 8, 71, 76
15, 95520, Note_on_c, 8, 59, 76
15, 95616, Note_on_c, 8, 59, 0
15, 95616, Note_on_c, 8, 71, 0
15, 95808, Note_on_c, 8, 58, 70
15, 95904, Note_on_c, 8, 58, 0
15, 97248, Note_on_c, 8, 68, 70
15, 97248, Note_on_c, 8, 80, 70
15, 97344, Note_on_c, 8, 80, 0
15, 97344, Note_on_c, 8, 68, 0
15, 97344, Note_on_c, 8, 66, 70
15, 97344, Note_on_c, 8, 78, 70
15, 97440, Note_on_c, 8, 78, 0
15, 97440, Note_on_c, 8, 66, 0
15, 97632, Note_on_c, 8, 78, 70
15, 97632, Note_on_c, 8, 66, 70
15, 97728, Note_on_c, 8, 66, 0
15, 97728, Note_on_c, 8, 78, 0
15, 97728, Note_on_c, 8, 66, 73
15, 97728, Note_on_c, 8, 78, 73
15, 97824, Note_on_c, 8, 78, 0
15, 97824, Note_on_c, 8, 66, 0
15, 98016, Note_on_c, 8, 66, 73
15, 98016, Note_on_c, 8, 78, 73
15, 98112, Note_on_c, 8, 78, 0
15, 98112, Note_on_c, 8, 66, 0
15, 98112, Note_on_c, 8, 66, 73
15, 98112, Note_on_c, 8, 78, 73
15, 98208, Note_on_c, 8, 78, 0
15, 98208, Note_on_c, 8, 66, 0
15, 98400, Note_on_c, 8, 78, 73
15, 98400, Note_on_c, 8, 66, 73
15, 98592, Note_on_c, 8, 66, 0
15, 98592, Note_on_c, 8, 78, 0
15, 98784, Note_on_c, 8, 66, 64
15, 98784, Note_on_c, 8, 78, 64
15, 98976, Note_on_c, 8, 78, 0
15, 98976, Note_on_c, 8, 66, 0
15, 99264, Note_on_c, 8, 79, 65
15, 99264, Note_on_c, 8, 67, 60
15, 99456, Note_on_c, 8, 67, 0
15, 99456, Note_on_c, 8, 79, 0
15, 99552, Note_on_c, 8, 69, 61
15, 99600, Note_on_c, 8, 69, 0
15, 99600, Note_on_c, 8, 69, 61
15, 99648, Note_on_c, 8, 69, 0
15, 99648, Note_on_c, 8, 69, 62
15, 99744, Note_on_c, 8, 69, 0
15, 99744, Note_on_c, 8, 69, 59
15, 99840, Note_on_c, 8, 69, 0
15, 99840, Note_on_c, 8, 66, 60
15, 99840, Note_on_c, 8, 74, 65
15, 100032, Note_on_c, 8, 74, 0
15, 100032, Note_on_c, 8, 66, 0
15, 100032, Note_on_c, 8, 74, 59
15, 100032, Note_on_c, 8, 66, 57
15, 100224, Note_on_c, 8, 66, 0
15, 100224, Note_on_c, 8, 74, 0
15, 100224, Note_on_c, 8, 69, 57
15, 100224, Note_on_c, 8, 76, 60
15, 100416, Note_on_c, 8, 76, 0
15, 100416, Note_on_c, 8, 69, 0
15, 100416, Note_on_c, 8, 69, 60
15, 100416, Note_on_c, 8, 76, 62
15, 100608, Note_on_c, 8, 76, 0
15, 100608, Note_on_c, 8, 69, 0
15, 100608, Note_on_c, 8, 81, 59
15, 100608, Note_on_c, 8, 78, 59
15, 100896, Note_on_c, 8, 78, 0
15, 100896, Note_on_c, 8, 81, 0
15, 100896, Note_on_c, 8, 78, 55
15, 100896, Note_on_c, 8, 74, 62
15, 100992, Note_on_c, 8, 74, 0
15, 100992, Note_on_c, 8, 78, 0
15, 100992, Note_on_c, 8, 66, 59
15, 100992, Note_on_c, 8, 74, 61
15, 101088, Note_on_c, 8, 74, 0
15, 101088, Note_on_c, 8, 66, 0
15, 167904, Note_on_c, 8, 61, 49
15, 167904, Note_on_c, 8, 73, 49
15, 167952, Note_on_c, 8, 73, 0
15, 167952, Note_on_c, 8, 61, 0
15, 167952, Note_on_c, 8, 61, 49
15, 167952, Note_on_c, 8, 73, 49
15, 168000, Note_on_c, 8, 73, 0
15, 168000, Note_on_c, 8, 61, 0
15, 168000, Note_on_c, 8, 61, 49
15, 168000, Note_on_c, 8, 73, 49
15, 168096, Note_on_c, 8, 73, 0
15, 168096, Note_on_c, 8, 61, 0
15, 168096, Note_on_c, 8, 61, 49
15, 168096, Note_on_c, 8, 73, 49
15, 168192, Note_on_c, 8, 73, 0
15, 168192, Note_on_c, 8, 61, 0
15, 168192, Note_on_c, 8, 66, 56
15, 168192, Note_on_c, 8, 78, 63
15, 168480, Note_on_c, 8, 78, 0
15, 168480, Note_on_c, 8, 66, 0
15, 168480, Note_on_c, 8, 74, 57
15, 168576, Note_on_c, 8, 74, 0
15, 168576, Note_on_c, 8, 71, 64
15, 168672, Note_on_c, 8, 71, 0
15, 172224, Note_on_c, 8, 67, 86
15, 172224, Note_on_c, 8, 70, 86
15, 172320, Note_on_c, 8, 70, 0
15, 172320, Note_on_c, 8, 67, 0
15, 172320, Note_on_c, 8, 71, 86
15, 172320, Note_on_c, 8, 67, 86
15, 172416, Note_on_c, 8, 67, 0
15, 172416, Note_on_c, 8, 71, 0
15, 172416, Note_on_c, 8, 67, 86
15, 172416, Note_on_c, 8, 73, 86
15, 172512, Note_on_c, 8, 73, 0
15, 172512, Note_on_c, 8, 67, 0
15, 172992, Note_on_c, 8, 58, 86
15, 172992, Note_on_c, 8, 67, 86
15, 173088, Note_on_c, 8, 67, 0
15, 173088, Note_on_c, 8, 58, 0
15, 173184, Note_on_c, 8, 61, 86
15, 173184, Note_on_c, 8, 70, 86
15, 173280, Note_on_c, 8, 70, 0
15, 173280, Note_on_c, 8, 61, 0
15, 173376, Note_on_c, 8, 73, 86
15, 173376, Note_on_c, 8, 64, 86
15, 173472, Note_on_c, 8, 64, 0
15, 173472, Note_on_c, 8, 73, 0
15, 173760, Note_on_c, 8, 64, 86
15, 173760, Note_on_c, 8, 67, 86
15, 173856, Note_on_c, 8, 67, 0
15, 173856, Note_on_c, 8, 64, 0
15, 173856, Note_on_c, 8, 68, 86
15, 173856, Note_on_c, 8, 64, 86
15, 173952, Note_on_c, 8, 64, 0
15, 173952, Note_on_c, 8, 68, 0
15, 173952, Note_on_c, 8, 64, 86
15, 173952, Note_on_c, 8, 70, 86
15, 174048, Note_on_c, 8, 70, 0
15, 174048, Note_on_c, 8, 64, 0
15, 174528, Note_on_c, 8, 55, 86
15, 174528, Note_on_c, 8, 64, 86
15, 174624, Note_on_c, 8, 64, 0
15, 174624, Note_on_c, 8, 55, 0
15, 174720, Note_on_c, 8, 58, 86
15, 174720, Note_on_c, 8, 67, 86
15, 174816, Note_on_c, 8, 67, 0
15, 174816, Note_on_c, 8, 58, 0
15, 174912, Note_on_c, 8, 61, 86
15, 174912, Note_on_c, 8, 70, 86
15, 175008, Note_on_c, 8, 70, 0
15, 175008, Note_on_c, 8, 61, 0
15, 175296, Note_on_c, 8, 70, 55
15, 175296, Note_on_c, 8, 73, 54
15, 175392, Note_on_c, 8, 73, 0
15, 175392, Note_on_c, 8, 70, 0
15, 175392, Note_on_c, 8, 70, 60
15, 175392, Note_on_c, 8, 75, 62
15, 175488, Note_on_c, 8, 75, 0
15, 175488, Note_on_c, 8, 70, 0
15, 175488, Note_on_c, 8, 70, 59
15, 175488, Note_on_c, 8, 76, 63
15, 175584, Note_on_c, 8, 76, 0
15, 175584, Note_on_c, 8, 70, 0
15, 175584, Note_on_c, 8, 64, 59
15, 175584, Note_on_c, 8, 58, 59
15, 175680, Note_on_c, 8, 58, 0
15, 175680, Note_on_c, 8, 64, 0
15, 175776, Note_on_c, 8, 61, 50
15, 175776, Note_on_c, 8, 67, 62
15, 175776, Note_on_c, 8, 61, 52
15, 175872, Note_on_c, 8, 61, 0
15, 175872, Note_on_c, 8, 67, 0
15, 175872, Note_on_c, 8, 61, 0
15, 175968, Note_on_c, 8, 64, 50
15, 175968, Note_on_c, 8, 70, 49
15, 176064, Note_on_c, 8, 70, 0
15, 176064, Note_on_c, 8, 64, 0
15, 176160, Note_on_c, 8, 65, 47
15, 176160, Note_on_c, 8, 73, 43
15, 176256, Note_on_c, 8, 73, 0
15, 176256, Note_on_c, 8, 65, 0
15, 176352, Note_on_c, 8, 70, 45
15, 176352, Note_on_c, 8, 76, 48
15, 176448, Note_on_c, 8, 76, 0
15, 176448, Note_on_c, 8, 70, 0
15, 176832, Note_on_c, 8, 70, 86
15, 176832, Note_on_c, 8, 67, 86
15, 176928, Note_on_c, 8, 67, 0
15, 176928, Note_on_c, 8, 70, 0
15, 176928, Note_on_c, 8, 67, 86
15, 176928, Note_on_c, 8, 71, 86
15, 177024, Note_on_c, 8, 71, 0
15, 177024, Note_on_c, 8, 67, 0
15, 177024, Note_on_c, 8, 67, 86
15, 177024, Note_on_c, 8, 73, 86
15, 177120, Note_on_c, 8, 73, 0
15, 177120, Note_on_c, 8, 67, 0
15, 177600, Note_on_c, 8, 67, 43
15, 177600, Note_on_c, 8, 70, 40
15, 177696, Note_on_c, 8, 70, 0
15, 177696, Note_on_c, 8, 67, 0
15, 177696, Note_on_c, 8, 67, 48
15, 177696, Note_on_c, 8, 71, 43
15, 177792, Note_on_c, 8, 71, 0
15, 177792, Note_on_c, 8, 67, 0
15, 177792, Note_on_c, 8, 73, 44
15, 177792, Note_on_c, 8, 67, 49
15, 177888, Note_on_c, 8, 67, 0
15, 177888, Note_on_c, 8, 73, 0
15, 178368, Note_on_c, 8, 71, 45
15, 178368, Note_on_c, 8, 67, 42
15, 178464, Note_on_c, 8, 67, 0
15, 178464, Note_on_c, 8, 71, 0
15, 178464, Note_on_c, 8, 67, 43
15, 178464, Note_on_c, 8, 73, 43
15, 178560, Note_on_c, 8, 73, 0
15, 178560, Note_on_c, 8, 67, 0
15, 178560, Note_on_c, 8, 67, 51
15, 178560, Note_on_c, 8, 74, 49
15, 178656, Note_on_c, 8, 74, 0
15, 178656, Note_on_c, 8, 67, 0
15, 179136, Note_on_c, 8, 69, 64
15, 179136, Note_on_c, 8, 72, 64
15, 179232, Note_on_c, 8, 72, 0
15, 179232, Note_on_c, 8, 69, 0
15, 179232, Note_on_c, 8, 74, 57
15, 179232, Note_on_c, 8, 69, 49
15, 179328, Note_on_c, 8, 69, 0
15, 179328, Note_on_c, 8, 74, 0
15, 179328, Note_on_c, 8, 69, 47
15, 179328, Note_on_c, 8, 75, 49
15, 179424, Note_on_c, 8, 75, 0
15, 179424, Note_on_c, 8, 69, 0
15, 179808, Note_on_c, 8, 69, 60
15, 179808, Note_on_c, 8, 69, 54
15, 179808, Note_on_c, 8, 63, 61
15, 179904, Note_on_c, 8, 63, 0
15, 179904, Note_on_c, 8, 69, 0
15, 179904, Note_on_c, 8, 69, 0
15, 180000, Note_on_c, 8, 72, 62
15, 180000, Note_on_c, 8, 66, 57
15, 180096, Note_on_c, 8, 66, 0
15, 180096, Note_on_c, 8, 72, 0
15, 180192, Note_on_c, 8, 69, 55
15, 180192, Note_on_c, 8, 75, 60
15, 180288, Note_on_c, 8, 75, 0
15, 180288, Note_on_c, 8, 69, 0
15, 181344, Note_on_c, 8, 66, 58
15, 181344, Note_on_c, 8, 70, 58
15, 181440, Note_on_c, 8, 70, 0
15, 181440, Note_on_c, 8, 66, 0
15, 181536, Note_on_c, 8, 70, 58
15, 181536, Note_on_c, 8, 66, 58
15, 181632, Note_on_c, 8, 66, 0
15, 181632, Note_on_c, 8, 70, 0
15, 181728, Note_on_c, 8, 66, 58
15, 181728, Note_on_c, 8, 70, 58
15, 181824, Note_on_c, 8, 70, 0
15, 181824, Note_on_c, 8, 66, 0
15, 181920, Note_on_c, 8, 70, 58
15, 181920, Note_on_c, 8, 66, 58
15, 182016, Note_on_c, 8, 66, 0
15, 182016, Note_on_c, 8, 70, 0
15, 182016, Note_on_c, 8, 66, 86
15, 182016, Note_on_c, 8, 59, 86
15, 182112, Note_on_c, 8, 59, 0
15, 182112, Note_on_c, 8, 66, 0
15, 182880, Note_on_c, 8, 59, 57
15, 182880, Note_on_c, 8, 63, 62
15, 182976, Note_on_c, 8, 63, 0
15, 182976, Note_on_c, 8, 59, 0
15, 182976, Note_on_c, 8, 75, 59
15, 182976, Note_on_c, 8, 71, 55
15, 183072, Note_on_c, 8, 71, 0
15, 183072, Note_on_c, 8, 75, 0
15, 183456, Note_on_c, 8, 71, 59
15, 183456, Note_on_c, 8, 65, 60
15, 183552, Note_on_c, 8, 65, 0
15, 183552, Note_on_c, 8, 71, 0
15, 183648, Note_on_c, 8, 68, 52
15, 183648, Note_on_c, 8, 65, 62
15, 183744, Note_on_c, 8, 65, 0
15, 183744, Note_on_c, 8, 68, 0
15, 183840, Note_on_c, 8, 71, 62
15, 183840, Note_on_c, 8, 71, 63
15, 183840, Note_on_c, 8, 59, 63
15, 183936, Note_on_c, 8, 59, 0
15, 183936, Note_on_c, 8, 71, 0
15, 183936, Note_on_c, 8, 71, 0
15, 183936, Note_on_c, 8, 65, 62
15, 183936, Note_on_c, 8, 68, 51
15, 184032, Note_on_c, 8, 68, 0
15, 184032, Note_on_c, 8, 65, 0
15, 184032, Note_on_c, 8, 58, 59
15, 184128, Note_on_c, 8, 58, 0
15, 185568, Note_on_c, 8, 68, 86
15, 185568, Note_on_c, 8, 80, 57
15, 185664, Note_on_c, 8, 80, 0
15, 185664, Note_on_c, 8, 68, 0
15, 185664, Note_on_c, 8, 66, 86
15, 185664, Note_on_c, 8, 78, 86
15, 185760, Note_on_c, 8, 78, 0
15, 185760, Note_on_c, 8, 66, 0
15, 185952, Note_on_c, 8, 66, 86
15, 185952, Note_on_c, 8, 78, 86
15, 186048, Note_on_c, 8, 78, 0
15, 186048, Note_on_c, 8, 66, 0
15, 186048, Note_on_c, 8, 66, 86
15, 186048, Note_on_c, 8, 78, 86
15, 186144, Note_on_c, 8, 78, 0
15, 186144, Note_on_c, 8, 66, 0
15, 186336, Note_on_c, 8, 66, 86
15, 186336, Note_on_c, 8, 78, 86
15, 186528, Note_on_c, 8, 78, 0
15, 186528, Note_on_c, 8, 66, 0
15, 186528, Note_on_c, 8, 66, 86
15, 186528, Note_on_c, 8, 78, 86
15, 186720, Note_on_c, 8, 78, 0
15, 186720, Note_on_c, 8, 66, 0
15, 186720, Note_on_c, 8, 66, 86
15, 186720, Note_on_c, 8, 78, 86
15, 186912, Note_on_c, 8, 78, 0
15, 186912, Note_on_c, 8, 66, 0
15, 186912, Note_on_c, 8, 66, 86
15, 186912, Note_on_c, 8, 78, 86
15, 187104, Note_on_c, 8, 78, 0
15, 187104, Note_on_c, 8, 66, 0
15, 187104, Note_on_c, 8, 66, 86
15, 187152, Note_on_c, 8, 66, 0
15, 187152, Note_on_c, 8, 66, 86
15, 187200, Note_on_c, 8, 66, 0
15, 187200, Note_on_c, 8, 66, 86
15, 187296, Note_on_c, 8, 66, 0
15, 187296, Note_on_c, 8, 66, 86
15, 187392, Note_on_c, 8, 66, 0
15, 187392, Note_on_c, 8, 63, 66
15, 187392, Note_on_c, 8, 71, 72
15, 187584, Note_on_c, 8, 71, 0
15, 187584, Note_on_c, 8, 63, 0
15, 187584, Note_on_c, 8, 71, 73
15, 187584, Note_on_c, 8, 63, 66
15, 187776, Note_on_c, 8, 63, 0
15, 187776, Note_on_c, 8, 71, 0
15, 187776, Note_on_c, 8, 66, 72
15, 187776, Note_on_c, 8, 73, 84
15, 187968, Note_on_c, 8, 73, 0
15, 187968, Note_on_c, 8, 66, 0
15, 187968, Note_on_c, 8, 66, 74
15, 187968, Note_on_c, 8, 73, 80
15, 188160, Note_on_c, 8, 73, 0
15, 188160, Note_on_c, 8, 66, 0
15, 188160, Note_on_c, 8, 78, 72
15, 188160, Note_on_c, 8, 75, 79
15, 188448, Note_on_c, 8, 75, 0
15, 188448, Note_on_c, 8, 78, 0
15, 188448, Note_on_c, 8, 71, 72
15, 188448, Note_on_c, 8, 75, 77
15, 188544, Note_on_c, 8, 75, 0
15, 188544, Note_on_c, 8, 71, 0
15, 188544, Note_on_c, 8, 71, 74
15, 188544, Note_on_c, 8, 63, 62
15, 188736, Note_on_c, 8, 63, 0
15, 188736, Note_on_c, 8, 71, 0
15, 228096, Note_on_c, 8, 62, 79
15, 228192, Note_on_c, 8, 62, 0
15, 228192, Note_on_c, 8, 62, 79
15, 228240, Note_on_c, 8, 62, 0
15, 228240, Note_on_c, 8, 62, 79
15, 228288, Note_on_c, 8, 62, 0
15, 228288, Note_on_c, 8, 62, 79
15, 228384, Note_on_c, 8, 62, 0
15, 228384, Note_on_c, 8, 62, 79
15, 228480, Note_on_c, 8, 62, 0
15, 228480, Note_on_c, 8, 62, 79
15, 228864, Note_on_c, 8, 62, 0
15, 228864, Note_on_c, 8, 55, 79
15, 229152, Note_on_c, 8, 55, 0
15, 229632, Note_on_c, 8, 67, 79
15, 229728, Note_on_c, 8, 67, 0
15, 229728, Note_on_c, 8, 67, 79
15, 229776, Note_on_c, 8, 67, 0
15, 229776, Note_on_c, 8, 67, 79
15, 229824, Note_on_c, 8, 67, 0
15, 229824, Note_on_c, 8, 67, 79
15, 229920, Note_on_c, 8, 67, 0
15, 229920, Note_on_c, 8, 67, 79
15, 230016, Note_on_c, 8, 67, 0
15, 230016, Note_on_c, 8, 67, 79
15, 230400, Note_on_c, 8, 67, 0
15, 230400, Note_on_c, 8, 60, 79
15, 230688, Note_on_c, 8, 60, 0
15, 233952, Note_on_c, 8, 65, 49
15, 234000, Note_on_c, 8, 65, 0
15, 234000, Note_on_c, 8, 65, 49
15, 234048, Note_on_c, 8, 65, 0
15, 234048, Note_on_c, 8, 65, 49
15, 234144, Note_on_c, 8, 65, 0
15, 234144, Note_on_c, 8, 65, 49
15, 234240, Note_on_c, 8, 65, 0
15, 234240, Note_on_c, 8, 70, 49
15, 234240, Note_on_c, 8, 62, 49
15, 234432, Note_on_c, 8, 62, 0
15, 234432, Note_on_c, 8, 70, 0
15, 234432, Note_on_c, 8, 72, 49
15, 234432, Note_on_c, 8, 65, 49
15, 234624, Note_on_c, 8, 65, 0
15, 234624, Note_on_c, 8, 72, 0
15, 234624, Note_on_c, 8, 71, 49
15, 234624, Note_on_c, 8, 74, 49
15, 234720, Note_on_c, 8, 74, 0
15, 234720, Note_on_c, 8, 71, 0
15, 235488, Note_on_c, 8, 68, 68
15, 235536, Note_on_c, 8, 68, 0
15, 235536, Note_on_c, 8, 68, 68
15, 235584, Note_on_c, 8, 68, 0
15, 235584, Note_on_c, 8, 68, 68
15, 235680, Note_on_c, 8, 68, 0
15, 235680, Note_on_c, 8, 68, 68
15, 235776, Note_on_c, 8, 68, 0
15, 235776, Note_on_c, 8, 73, 68
15, 235776, Note_on_c, 8, 65, 68
15, 235968, Note_on_c, 8, 65, 0
15, 235968, Note_on_c, 8, 73, 0
15, 235968, Note_on_c, 8, 68, 68
15, 235968, Note_on_c, 8, 75, 68
15, 236160, Note_on_c, 8, 75, 0
15, 236160, Note_on_c, 8, 68, 0
15, 236160, Note_on_c, 8, 74, 87
15, 236160, Note_on_c, 8, 77, 87
15, 236256, Note_on_c, 8, 77, 0
15, 236256, Note_on_c, 8, 74, 0
15, 236256, Note_on_c, 8, 58, 86
15, 236256, Note_on_c, 8, 70, 111
15, 236304, Note_on_c, 8, 70, 0
15, 236304, Note_on_c, 8, 58, 0
15, 236304, Note_on_c, 8, 58, 86
15, 236304, Note_on_c, 8, 70, 111
15, 236352, Note_on_c, 8, 70, 0
15, 236352, Note_on_c, 8, 58, 0
15, 236352, Note_on_c, 8, 70, 111
15, 236352, Note_on_c, 8, 58, 86
15, 236448, Note_on_c, 8, 58, 0
15, 236448, Note_on_c, 8, 70, 0
15, 236448, Note_on_c, 8, 58, 86
15, 236448, Note_on_c, 8, 70, 111
15, 236544, Note_on_c, 8, 70, 0
15, 236544, Note_on_c, 8, 58, 0
15, 236544, Note_on_c, 8, 63, 86
15, 236544, Note_on_c, 8, 75, 121
15, 236928, Note_on_c, 8, 75, 0
15, 236928, Note_on_c, 8, 63, 0
15, 236928, Note_on_c, 8, 63, 86
15, 236928, Note_on_c, 8, 75, 121
15, 237312, Note_on_c, 8, 75, 0
15, 237312, Note_on_c, 8, 63, 0
15, 237312, Note_on_c, 8, 65, 86
15, 237312, Note_on_c, 8, 77, 121
15, 237696, Note_on_c, 8, 77, 0
15, 237696, Note_on_c, 8, 65, 0
15, 237696, Note_on_c, 8, 77, 121
15, 237696, Note_on_c, 8, 65, 86
15, 238080, Note_on_c, 8, 65, 0
15, 238080, Note_on_c, 8, 77, 0
15, 238080, Note_on_c, 8, 70, 86
15, 238080, Note_on_c, 8, 82, 121
15, 238656, Note_on_c, 8, 82, 0
15, 238656, Note_on_c, 8, 70, 0
15, 238656, Note_on_c, 8, 67, 86
15, 238656, Note_on_c, 8, 79, 121
15, 238848, Note_on_c, 8, 79, 0
15, 238848, Note_on_c, 8, 67, 0
15, 238848, Note_on_c, 8, 63, 86
15, 238848, Note_on_c, 8, 75, 121
15, 239040, Note_on_c, 8, 75, 0
15, 239040, Note_on_c, 8, 63, 0
15, 239040, Note_on_c, 8, 75, 121
15, 239040, Note_on_c, 8, 63, 86
15, 239232, Note_on_c, 8, 63, 0
15, 239232, Note_on_c, 8, 75, 0
15, 239232, Note_on_c, 8, 67, 86
15, 239232, Note_on_c, 8, 79, 121
15, 239424, Note_on_c, 8, 79, 0
15, 239424, Note_on_c, 8, 67, 0
15, 239424, Note_on_c, 8, 63, 86
15, 239424, Note_on_c, 8, 75, 121
15, 239616, Note_on_c, 8, 75, 0
15, 239616, Note_on_c, 8, 63, 0
15, 239616, Note_on_c, 8, 65, 68
15, 239616, Note_on_c, 8, 72, 121
15, 239808, Note_on_c, 8, 72, 0
15, 239808, Note_on_c, 8, 65, 0
15, 239808, Note_on_c, 8, 76, 88
15, 239808, Note_on_c, 8, 70, 53
15, 240000, Note_on_c, 8, 70, 0
15, 240000, Note_on_c, 8, 76, 0
15, 240000, Note_on_c, 8, 77, 88
15, 240000, Note_on_c, 8, 69, 45
15, 240192, Note_on_c, 8, 69, 0
15, 240192, Note_on_c, 8, 77, 0
15, 240192, Note_on_c, 8, 72, 86
15, 240192, Note_on_c, 8, 79, 88
15, 240384, Note_on_c, 8, 79, 0
15, 240384, Note_on_c, 8, 72, 0
15, 240384, Note_on_c, 8, 77, 65
15, 240384, Note_on_c, 8, 68, 55
15, 240576, Note_on_c, 8, 68, 0
15, 240576, Note_on_c, 8, 77, 0
15, 240576, Note_on_c, 8, 69, 86
15, 240576, Note_on_c, 8, 65, 86
15, 240768, Note_on_c, 8, 65, 0
15, 240768, Note_on_c, 8, 69, 0
15, 240768, Note_on_c, 8, 70, 86
15, 240768, Note_on_c, 8, 65, 62
15, 240960, Note_on_c, 8, 65, 0
15, 240960, Note_on_c, 8, 70, 0
15, 240960, Note_on_c, 8, 72, 86
15, 240960, Note_on_c, 8, 65, 86
15, 241152, Note_on_c, 8, 65, 0
15, 241152, Note_on_c, 8, 72, 0
15, 241152, Note_on_c, 8, 74, 86
15, 241152, Note_on_c, 8, 65, 86
15, 241344, Note_on_c, 8, 65, 0
15, 241344, Note_on_c, 8, 74, 0
15, 241344, Note_on_c, 8, 70, 86
15, 241344, Note_on_c, 8, 75, 86
15, 241536, Note_on_c, 8, 75, 0
15, 241536, Note_on_c, 8, 70, 0
15, 241536, Note_on_c, 8, 77, 86
15, 241536, Note_on_c, 8, 70, 86
15, 241728, Note_on_c, 8, 70, 0
15, 241728, Note_on_c, 8, 77, 0
15, 241728, Note_on_c, 8, 79, 86
15, 241728, Note_on_c, 8, 70, 86
15, 241920, Note_on_c, 8, 70, 0
15, 241920, Note_on_c, 8, 79, 0
15, 241920, Note_on_c, 8, 77, 86
15, 241920, Note_on_c, 8, 68, 86
15, 242112, Note_on_c, 8, 68, 0
15, 242112, Note_on_c, 8, 77, 0
15, 242112, Note_on_c, 8, 69, 86
15, 242112, Note_on_c, 8, 75, 86
15, 242304, Note_on_c, 8, 75, 0
15, 242304, Note_on_c, 8, 69, 0
15, 242304, Note_on_c, 8, 70, 86
15, 242304, Note_on_c, 8, 74, 86
15, 242400, Note_on_c, 8, 74, 0
15, 242400, Note_on_c, 8, 70, 0
15, 257856, Note_on_c, 8, 67, 86
15, 257856, Note_on_c, 8, 70, 86
15, 257952, Note_on_c, 8, 70, 0
15, 257952, Note_on_c, 8, 67, 0
15, 257952, Note_on_c, 8, 67, 86
15, 257952, Note_on_c, 8, 70, 86
15, 258048, Note_on_c, 8, 70, 0
15, 258048, Note_on_c, 8, 67, 0
15, 258048, Note_on_c, 8, 74, 86
15, 258048, Note_on_c, 8, 70, 86
15, 258240, Note_on_c, 8, 70, 0
15, 258240, Note_on_c, 8, 74, 0
15, 258240, Note_on_c, 8, 75, 86
15, 258240, Note_on_c, 8, 70, 86
15, 258432, Note_on_c, 8, 70, 0
15, 258432, Note_on_c, 8, 75, 0
15, 258432, Note_on_c, 8, 67, 86
15, 258432, Note_on_c, 8, 70, 86
15, 258528, Note_on_c, 8, 70, 0
15, 258528, Note_on_c, 8, 67, 0
15, 258528, Note_on_c, 8, 67, 86
15, 258528, Note_on_c, 8, 70, 86
15, 258624, Note_on_c, 8, 70, 0
15, 258624, Note_on_c, 8, 67, 0
15, 258624, Note_on_c, 8, 70, 86
15, 258624, Note_on_c, 8, 74, 86
15, 258720, Note_on_c, 8, 74, 0
15, 258720, Note_on_c, 8, 70, 0
15, 258720, Note_on_c, 8, 75, 86
15, 258720, Note_on_c, 8, 70, 86
15, 258816, Note_on_c, 8, 70, 0
15, 258816, Note_on_c, 8, 75, 0
15, 258816, Note_on_c, 8, 75, 86
15, 258816, Note_on_c, 8, 72, 86
15, 258912, Note_on_c, 8, 72, 0
15, 258912, Note_on_c, 8, 75, 0
15, 258912, Note_on_c, 8, 72, 86
15, 258912, Note_on_c, 8, 75, 86
15, 259008, Note_on_c, 8, 75, 0
15, 259008, Note_on_c, 8, 72, 0
15, 259008, Note_on_c, 8, 72, 86
15, 259008, Note_on_c, 8, 75, 86
15, 259296, Note_on_c, 8, 75, 0
15, 259296, Note_on_c, 8, 72, 0
15, 260352, Note_on_c, 8, 75, 86
15, 260352, Note_on_c, 8, 70, 86
15, 260448, Note_on_c, 8, 70, 0
15, 260448, Note_on_c, 8, 75, 0
15, 260448, Note_on_c, 8, 70, 86
15, 260448, Note_on_c, 8, 75, 86
15, 260544, Note_on_c, 8, 75, 0
15, 260544, Note_on_c, 8, 70, 0
15, 260544, Note_on_c, 8, 70, 86
15, 260544, Note_on_c, 8, 75, 86
15, 260640, Note_on_c, 8, 75, 0
15, 260640, Note_on_c, 8, 70, 0
15, 260640, Note_on_c, 8, 70, 86
15, 260640, Note_on_c, 8, 75, 86
15, 260736, Note_on_c, 8, 75, 0
15, 260736, Note_on_c, 8, 70, 0
15, 260736, Note_on_c, 8, 70, 86
15, 260736, Note_on_c, 8, 75, 86
15, 261120, Note_on_c, 8, 75, 0
15, 261120, Note_on_c, 8, 70, 0
15, 261120, Note_on_c, 8, 70, 86
15, 261120, Note_on_c, 8, 75, 86
15, 261312, Note_on_c, 8, 75, 0
15, 261312, Note_on_c, 8, 70, 0
15, 261312, Note_on_c, 8, 75, 86
15, 261312, Note_on_c, 8, 70, 86
15, 261504, Note_on_c, 8, 70, 0
15, 261504, Note_on_c, 8, 75, 0
15, 261504, Note_on_c, 8, 74, 86
15, 261504, Note_on_c, 8, 70, 86
15, 261792, Note_on_c, 8, 70, 0
15, 261792, Note_on_c, 8, 74, 0
15, 261792, Note_on_c, 8, 74, 86
15, 261792, Note_on_c, 8, 70, 86
15, 261888, Note_on_c, 8, 70, 0
15, 261888, Note_on_c, 8, 74, 0
15, 261888, Note_on_c, 8, 74, 86
15, 261888, Note_on_c, 8, 70, 86
15, 261984, Note_on_c, 8, 70, 0
15, 261984, Note_on_c, 8, 74, 0
15, 261984, Note_on_c, 8, 70, 86
15, 261984, Note_on_c, 8, 74, 86
15, 262080, Note_on_c, 8, 74, 0
15, 262080, Note_on_c, 8, 70, 0
15, 262080, Note_on_c, 8, 70, 86
15, 262080, Note_on_c, 8, 75, 86
15, 262176, Note_on_c, 8, 75, 0
15, 262176, Note_on_c, 8, 70, 0
15, 263616, Note_on_c, 8, 72, 86
15, 263616, Note_on_c, 8, 67, 86
15, 263808, Note_on_c, 8, 67, 0
15, 263808, Note_on_c, 8, 72, 0
15, 263808, Note_on_c, 8, 70, 86
15, 263808, Note_on_c, 8, 74, 86
15, 264000, Note_on_c, 8, 74, 0
15, 264000, Note_on_c, 8, 70, 0
15, 264000, Note_on_c, 8, 70, 86
15, 264000, Note_on_c, 8, 75, 86
15, 264192, Note_on_c, 8, 75, 0
15, 264192, Note_on_c, 8, 70, 0
15, 264192, Note_on_c, 8, 70, 86
15, 264192, Note_on_c, 8, 67, 86
15, 264384, Note_on_c, 8, 67, 0
15, 264384, Note_on_c, 8, 70, 0
15, 264384, Note_on_c, 8, 70, 86
15, 264384, Note_on_c, 8, 74, 86
15, 264480, Note_on_c, 8, 74, 0
15, 264480, Note_on_c, 8, 70, 0
15, 264480, Note_on_c, 8, 70, 86
15, 264480, Note_on_c, 8, 75, 86
15, 264576, Note_on_c, 8, 75, 0
15, 264576, Note_on_c, 8, 70, 0
15, 264576, Note_on_c, 8, 75, 86
15, 264576, Note_on_c, 8, 72, 86
15, 264672, Note_on_c, 8, 72, 0
15, 264672, Note_on_c, 8, 75, 0
15, 264672, Note_on_c, 8, 75, 86
15, 264672, Note_on_c, 8, 72, 86
15, 264768, Note_on_c, 8, 72, 0
15, 264768, Note_on_c, 8, 75, 0
15, 264768, Note_on_c, 8, 72, 86
15, 264768, Note_on_c, 8, 75, 86
15, 264864, Note_on_c, 8, 75, 0
15, 264864, Note_on_c, 8, 72, 0
15, 264864, Note_on_c, 8, 72, 86
15, 264864, Note_on_c, 8, 75, 86
15, 264960, Note_on_c, 8, 75, 0
15, 264960, Note_on_c, 8, 72, 0
15, 264960, Note_on_c, 8, 72, 86
15, 264960, Note_on_c, 8, 75, 86
15, 265056, Note_on_c, 8, 75, 0
15, 265056, Note_on_c, 8, 72, 0
15, 265056, Note_on_c, 8, 72, 86
15, 265056, Note_on_c, 8, 75, 86
15, 265152, Note_on_c, 8, 75, 0
15, 265152, Note_on_c, 8, 72, 0
15, 265152, Note_on_c, 8, 75, 86
15, 265152, Note_on_c, 8, 72, 86
15, 265248, Note_on_c, 8, 72, 0
15, 265248, Note_on_c, 8, 75, 0
15, 265248, Note_on_c, 8, 72, 86
15, 265248, Note_on_c, 8, 75, 86
15, 265344, Note_on_c, 8, 75, 0
15, 265344, Note_on_c, 8, 72, 0
15, 265344, Note_on_c, 8, 72, 86
15, 265344, Note_on_c, 8, 75, 86
15, 265440, Note_on_c, 8, 75, 0
15, 265440, Note_on_c, 8, 72, 0
15, 265440, Note_on_c, 8, 72, 86
15, 265440, Note_on_c, 8, 75, 86
15, 265536, Note_on_c, 8, 75, 0
15, 265536, Note_on_c, 8, 72, 0
15, 265536, Note_on_c, 8, 72, 86
15, 265536, Note_on_c, 8, 75, 86
15, 265632, Note_on_c, 8, 75, 0
15, 265632, Note_on_c, 8, 72, 0
15, 265632, Note_on_c, 8, 72, 86
15, 265632, Note_on_c, 8, 75, 86
15, 265728, Note_on_c, 8, 75, 0
15, 265728, Note_on_c, 8, 72, 0
15, 265728, Note_on_c, 8, 75, 86
15, 265728, Note_on_c, 8, 72, 86
15, 265824, Note_on_c, 8, 72, 0
15, 265824, Note_on_c, 8, 75, 0
15, 265824, Note_on_c, 8, 70, 86
15, 265824, Note_on_c, 8, 75, 86
15, 265920, Note_on_c, 8, 75, 0
15, 265920, Note_on_c, 8, 70, 0
15, 265920, Note_on_c, 8, 72, 86
15, 265920, Note_on_c, 8, 75, 86
15, 266208, Note_on_c, 8, 75, 0
15, 266208, Note_on_c, 8, 72, 0
15, 267264, Note_on_c, 8, 70, 86
15, 267264, Note_on_c, 8, 75, 86
15, 267360, Note_on_c, 8, 75, 0
15, 267360, Note_on_c, 8, 70, 0
15, 267360, Note_on_c, 8, 70, 86
15, 267360, Note_on_c, 8, 75, 86
15, 267456, Note_on_c, 8, 75, 0
15, 267456, Note_on_c, 8, 70, 0
15, 267456, Note_on_c, 8, 70, 86
15, 267456, Note_on_c, 8, 75, 86
15, 267552, Note_on_c, 8, 75, 0
15, 267552, Note_on_c, 8, 70, 0
15, 267552, Note_on_c, 8, 75, 86
15, 267552, Note_on_c, 8, 70, 86
15, 267648, Note_on_c, 8, 70, 0
15, 267648, Note_on_c, 8, 75, 0
15, 267648, Note_on_c, 8, 75, 86
15, 267648, Note_on_c, 8, 70, 86
15, 268032, Note_on_c, 8, 70, 0
15, 268032, Note_on_c, 8, 75, 0
15, 268032, Note_on_c, 8, 72, 86
15, 268032, Note_on_c, 8, 75, 86
15, 268224, Note_on_c, 8, 75, 0
15, 268224, Note_on_c, 8, 72, 0
15, 268224, Note_on_c, 8, 75, 86
15, 268224, Note_on_c, 8, 72, 86
15, 268416, Note_on_c, 8, 72, 0
15, 268416, Note_on_c, 8, 75, 0
15, 268416, Note_on_c, 8, 67, 86
15, 268416, Note_on_c, 8, 75, 86
15, 268704, Note_on_c, 8, 75, 0
15, 268704, Note_on_c, 8, 67, 0
15, 268704, Note_on_c, 8, 67, 86
15, 268704, Note_on_c, 8, 75, 86
15, 268800, Note_on_c, 8, 75, 0
15, 268800, Note_on_c, 8, 67, 0
15, 268800, Note_on_c, 8, 67, 86
15, 268800, Note_on_c, 8, 75, 86
15, 268992, Note_on_c, 8, 75, 0
15, 268992, Note_on_c, 8, 67, 0
15, 268992, Note_on_c, 8, 70, 86
15, 268992, Note_on_c, 8, 75, 86
15, 269280, Note_on_c, 8, 75, 0
15, 269280, Note_on_c, 8, 70, 0
15, 269280, Note_on_c, 8, 75, 86
15, 269280, Note_on_c, 8, 70, 86
15, 269312, Note_on_c, 8, 70, 0
15, 269312, Note_on_c, 8, 75, 0
15, 269312, Note_on_c, 8, 75, 86
15, 269312, Note_on_c, 8, 70, 86
15, 269344, Note_on_c, 8, 70, 0
15, 269344, Note_on_c, 8, 75, 0
15, 269344, Note_on_c, 8, 70, 86
15, 269344, Note_on_c, 8, 75, 86
15, 269376, Note_on_c, 8, 75, 0
15, 269376, Note_on_c, 8, 70, 0
15, 269376, Note_on_c, 8, 75, 86
15, 269376, Note_on_c, 8, 70, 86
15, 269472, Note_on_c, 8, 70, 0
15, 269472, Note_on_c, 8, 75, 0
15, 269472, Note_on_c, 8, 75, 86
15, 269472, Note_on_c, 8, 70, 86
15, 269568, Note_on_c, 8, 70, 0
15, 269568, Note_on_c, 8, 75, 0
15, 269568, Note_on_c, 8, 74, 86
15, 269568, Note_on_c, 8, 70, 86
15, 269856, Note_on_c, 8, 70, 0
15, 269856, Note_on_c, 8, 74, 0
15, 269856, Note_on_c, 8, 74, 86
15, 269856, Note_on_c, 8, 70, 86
15, 269952, Note_on_c, 8, 70, 0
15, 269952, Note_on_c, 8, 74, 0
15, 269952, Note_on_c, 8, 65, 86
15, 269952, Note_on_c, 8, 70, 86
15, 270048, Note_on_c, 8, 70, 0
15, 270048, Note_on_c, 8, 65, 0
15, 270048, Note_on_c, 8, 74, 86
15, 270048, Note_on_c, 8, 70, 86
15, 270144, Note_on_c, 8, 70, 0
15, 270144, Note_on_c, 8, 74, 0
15, 270144, Note_on_c, 8, 75, 86
15, 270144, Note_on_c, 8, 67, 86
15, 270240, Note_on_c, 8, 67, 0
15, 270240, Note_on_c, 8, 75, 0
15, 270240, Note_on_c, 8, 67, 86
15, 270240, Note_on_c, 8, 70, 86
15, 270288, Note_on_c, 8, 70, 0
15, 270288, Note_on_c, 8, 67, 0
15, 270288, Note_on_c, 8, 70, 86
15, 270288, Note_on_c, 8, 67, 86
15, 270336, Note_on_c, 8, 67, 0
15, 270336, Note_on_c, 8, 70, 0
15, 270336, Note_on_c, 8, 67, 86
15, 270336, Note_on_c, 8, 75, 86
15, 270432, Note_on_c, 8, 75, 0
15, 270432, Note_on_c, 8, 67, 0
15, 270432, Note_on_c, 8, 70, 86
15, 270432, Note_on_c, 8, 77, 86
15, 270528, Note_on_c, 8, 77, 0
15, 270528, Note_on_c, 8, 70, 0
15, 270528, Note_on_c, 8, 79, 86
15, 270528, Note_on_c, 8, 75, 86
15, 270624, Note_on_c, 8, 75, 0
15, 270624, Note_on_c, 8, 79, 0
15, 270624, Note_on_c, 8, 77, 86
15, 270624, Note_on_c, 8, 70, 86
15, 270720, Note_on_c, 8, 70, 0
15, 270720, Note_on_c, 8, 77, 0
15, 270720, Note_on_c, 8, 75, 86
15, 270720, Note_on_c, 8, 67, 86
15, 270816, Note_on_c, 8, 67, 0
15, 270816, Note_on_c, 8, 75, 0
15, 270816, Note_on_c, 8, 77, 86
15, 270816, Note_on_c, 8, 70, 86
15, 270912, Note_on_c, 8, 70, 0
15, 270912, Note_on_c, 8, 77, 0
15, 270912, Note_on_c, 8, 79, 86
15, 270912, Note_on_c, 8, 75, 86
15, 271008, Note_on_c, 8, 75, 0
15, 271008, Note_on_c, 8, 79, 0
15, 271104, Note_on_c, 8, 67, 86
15, 271104, Note_on_c, 8, 75, 86
15, 271200, Note_on_c, 8, 75, 0
15, 271200, Note_on_c, 8, 67, 0
15, 271296, Note_on_c, 8, 67, 86
15, 271296, Note_on_c, 8, 75, 86
15, 271680, Note_on_c, 8, 75, 0
15, 271680, Note_on_c, 8, 67, 0
15, 271776, Note_on_c, 8, 67, 86
15, 271776, Note_on_c, 8, 70, 86
15, 271824, Note_on_c, 8, 70, 0
15, 271824, Note_on_c, 8, 67, 0
15, 271824, Note_on_c, 8, 67, 86
15, 271824, Note_on_c, 8, 70, 86
15, 271872, Note_on_c, 8, 70, 0
15, 271872, Note_on_c, 8, 67, 0
15, 271872, Note_on_c, 8, 75, 86
15, 271872, Note_on_c, 8, 67, 86
15, 271968, Note_on_c, 8, 67, 0
15, 271968, Note_on_c, 8, 75, 0
15, 271968, Note_on_c, 8, 77, 86
15, 271968, Note_on_c, 8, 70, 86
15, 272064, Note_on_c, 8, 70, 0
15, 272064, Note_on_c, 8, 77, 0
15, 272064, Note_on_c, 8, 75, 86
15, 272064, Note_on_c, 8, 79, 86
15, 272160, Note_on_c, 8, 79, 0
15, 272160, Note_on_c, 8, 75, 0
15, 272160, Note_on_c, 8, 77, 86
15, 272160, Note_on_c, 8, 70, 86
15, 272256, Note_on_c, 8, 70, 0
15, 272256, Note_on_c, 8, 77, 0
15, 272256, Note_on_c, 8, 67, 86
15, 272256, Note_on_c, 8, 75, 86
15, 272352, Note_on_c, 8, 75, 0
15, 272352, Note_on_c, 8, 67, 0
15, 272352, Note_on_c, 8, 70, 86
15, 272352, Note_on_c, 8, 77, 86
15, 272448, Note_on_c, 8, 77, 0
15, 272448, Note_on_c, 8, 70, 0
15, 272448, Note_on_c, 8, 75, 86
15, 272448, Note_on_c, 8, 79, 86
15, 272544, Note_on_c, 8, 79, 0
15, 272544, Note_on_c, 8, 75, 0
15, 272640, Note_on_c, 8, 67, 86
15, 272640, Note_on_c, 8, 75, 86
15, 272736, Note_on_c, 8, 75, 0
15, 272736, Note_on_c, 8, 67, 0
15, 272832, Note_on_c, 8, 67, 86
15, 272832, Note_on_c, 8, 75, 86
15, 273216, Note_on_c, 8, 75, 0
15, 273216, Note_on_c, 8, 67, 0
15, 273312, Note_on_c, 8, 72, 86
15, 273312, Note_on_c, 8, 68, 86
15, 273360, Note_on_c, 8, 68, 0
15, 273360, Note_on_c, 8, 72, 0
15, 273360, Note_on_c, 8, 68, 86
15, 273360, Note_on_c, 8, 72, 86
15, 273408, Note_on_c, 8, 72, 0
15, 273408, Note_on_c, 8, 68, 0
15, 273408, Note_on_c, 8, 77, 86
15, 273408, Note_on_c, 8, 68, 86
15, 273504, Note_on_c, 8, 68, 0
15, 273504, Note_on_c, 8, 77, 0
15, 273504, Note_on_c, 8, 79, 86
15, 273504, Note_on_c, 8, 72, 86
15, 273600, Note_on_c, 8, 72, 0
15, 273600, Note_on_c, 8, 79, 0
15, 273600, Note_on_c, 8, 68, 86
15, 273600, Note_on_c, 8, 77, 86
15, 273696, Note_on_c, 8, 77, 0
15, 273696, Note_on_c, 8, 68, 0
15, 273696, Note_on_c, 8, 72, 86
15, 273696, Note_on_c, 8, 67, 86
15, 273792, Note_on_c, 8, 67, 0
15, 273792, Note_on_c, 8, 72, 0
15, 273792, Note_on_c, 8, 65, 86
15, 273792, Note_on_c, 8, 68, 86
15, 273888, Note_on_c, 8, 68, 0
15, 273888, Note_on_c, 8, 65, 0
15, 273888, Note_on_c, 8, 72, 86
15, 273888, Note_on_c, 8, 67, 86
15, 273984, Note_on_c, 8, 67, 0
15, 273984, Note_on_c, 8, 72, 0
15, 273984, Note_on_c, 8, 77, 86
15, 273984, Note_on_c, 8, 68, 86
15, 274080, Note_on_c, 8, 68, 0
15, 274080, Note_on_c, 8, 77, 0
15, 274080, Note_on_c, 8, 67, 86
15, 274080, Note_on_c, 8, 72, 86
15, 274176, Note_on_c, 8, 72, 0
15, 274176, Note_on_c, 8, 67, 0
15, 274176, Note_on_c, 8, 68, 86
15, 274176, Note_on_c, 8, 65, 86
15, 274272, Note_on_c, 8, 65, 0
15, 274272, Note_on_c, 8, 68, 0
15, 274272, Note_on_c, 8, 67, 86
15, 274272, Note_on_c, 8, 72, 86
15, 274368, Note_on_c, 8, 72, 0
15, 274368, Note_on_c, 8, 67, 0
15, 274368, Note_on_c, 8, 77, 86
15, 274368, Note_on_c, 8, 68, 86
15, 274752, Note_on_c, 8, 68, 0
15, 274752, Note_on_c, 8, 77, 0
15, 274848, Note_on_c, 8, 70, 86
15, 274848, Note_on_c, 8, 67, 86
15, 274896, Note_on_c, 8, 67, 0
15, 274896, Note_on_c, 8, 70, 0
15, 274896, Note_on_c, 8, 70, 86
15, 274896, Note_on_c, 8, 67, 86
15, 274944, Note_on_c, 8, 67, 0
15, 274944, Note_on_c, 8, 70, 0
15, 274944, Note_on_c, 8, 75, 86
15, 274944, Note_on_c, 8, 67, 86
15, 275040, Note_on_c, 8, 67, 0
15, 275040, Note_on_c, 8, 75, 0
15, 275040, Note_on_c, 8, 70, 86
15, 275040, Note_on_c, 8, 77, 86
15, 275136, Note_on_c, 8, 77, 0
15, 275136, Note_on_c, 8, 70, 0
15, 275136, Note_on_c, 8, 75, 86
15, 275136, Note_on_c, 8, 67, 86
15, 275232, Note_on_c, 8, 67, 0
15, 275232, Note_on_c, 8, 75, 0
15, 275232, Note_on_c, 8, 70, 86
15, 275232, Note_on_c, 8, 65, 86
15, 275328, Note_on_c, 8, 65, 0
15, 275328, Note_on_c, 8, 70, 0
15, 275328, Note_on_c, 8, 67, 86
15, 275328, Note_on_c, 8, 63, 86
15, 275424, Note_on_c, 8, 63, 0
15, 275424, Note_on_c, 8, 67, 0
15, 275424, Note_on_c, 8, 65, 86
15, 275424, Note_on_c, 8, 70, 86
15, 275520, Note_on_c, 8, 70, 0
15, 275520, Note_on_c, 8, 65, 0
15, 275520, Note_on_c, 8, 67, 86
15, 275520, Note_on_c, 8, 75, 86
15, 275616, Note_on_c, 8, 75, 0
15, 275616, Note_on_c, 8, 67, 0
15, 275616, Note_on_c, 8, 70, 86
15, 275616, Note_on_c, 8, 65, 86
15, 275712, Note_on_c, 8, 65, 0
15, 275712, Note_on_c, 8, 70, 0
15, 275712, Note_on_c, 8, 67, 86
15, 275712, Note_on_c, 8, 63, 86
15, 275808, Note_on_c, 8, 63, 0
15, 275808, Note_on_c, 8, 67, 0
15, 275808, Note_on_c, 8, 70, 86
15, 275808, Note_on_c, 8, 65, 86
15, 275904, Note_on_c, 8, 65, 0
15, 275904, Note_on_c, 8, 70, 0
15, 275904, Note_on_c, 8, 67, 86
15, 275904, Note_on_c, 8, 75, 86
15, 276288, Note_on_c, 8, 75, 0
15, 276288, Note_on_c, 8, 67, 0
15, 276384, Note_on_c, 8, 67, 86
15, 276384, Note_on_c, 8, 70, 86
15, 276432, Note_on_c, 8, 70, 0
15, 276432, Note_on_c, 8, 67, 0
15, 276432, Note_on_c, 8, 70, 86
15, 276432, Note_on_c, 8, 67, 86
15, 276480, Note_on_c, 8, 67, 0
15, 276480, Note_on_c, 8, 70, 0
15, 276480, Note_on_c, 8, 67, 86
15, 276480, Note_on_c, 8, 75, 86
15, 276576, Note_on_c, 8, 75, 0
15, 276576, Note_on_c, 8, 67, 0
15, 276576, Note_on_c, 8, 70, 86
15, 276576, Note_on_c, 8, 77, 86
15, 276672, Note_on_c, 8, 77, 0
15, 276672, Note_on_c, 8, 70, 0
15, 276672, Note_on_c, 8, 79, 86
15, 276672, Note_on_c, 8, 75, 86
15, 276768, Note_on_c, 8, 75, 0
15, 276768, Note_on_c, 8, 79, 0
15, 276768, Note_on_c, 8, 77, 86
15, 276768, Note_on_c, 8, 70, 86
15, 276864, Note_on_c, 8, 70, 0
15, 276864, Note_on_c, 8, 77, 0
15, 276864, Note_on_c, 8, 75, 86
15, 276864, Note_on_c, 8, 67, 86
15, 276960, Note_on_c, 8, 67, 0
15, 276960, Note_on_c, 8, 75, 0
15, 276960, Note_on_c, 8, 77, 86
15, 276960, Note_on_c, 8, 70, 86
15, 277056, Note_on_c, 8, 70, 0
15, 277056, Note_on_c, 8, 77, 0
15, 277056, Note_on_c, 8, 79, 86
15, 277056, Note_on_c, 8, 75, 86
15, 277152, Note_on_c, 8, 75, 0
15, 277152, Note_on_c, 8, 79, 0
15, 277248, Note_on_c, 8, 67, 86
15, 277248, Note_on_c, 8, 75, 86
15, 277344, Note_on_c, 8, 75, 0
15, 277344, Note_on_c, 8, 67, 0
15, 277440, Note_on_c, 8, 67, 86
15, 277440, Note_on_c, 8, 75, 86
15, 277824, Note_on_c, 8, 75, 0
15, 277824, Note_on_c, 8, 67, 0
15, 277920, Note_on_c, 8, 67, 86
15, 277920, Note_on_c, 8, 70, 86
15, 277968, Note_on_c, 8, 70, 0
15, 277968, Note_on_c, 8, 67, 0
15, 277968, Note_on_c, 8, 67, 86
15, 277968, Note_on_c, 8, 70, 86
15, 278016, Note_on_c, 8, 70, 0
15, 278016, Note_on_c, 8, 67, 0
15, 278016, Note_on_c, 8, 75, 86
15, 278016, Note_on_c, 8, 67, 86
15, 278112, Note_on_c, 8, 67, 0
15, 278112, Note_on_c, 8, 75, 0
15, 278112, Note_on_c, 8, 77, 86
15, 278112, Note_on_c, 8, 70, 86
15, 278208, Note_on_c, 8, 70, 0
15, 278208, Note_on_c, 8, 77, 0
15, 278208, Note_on_c, 8, 75, 86
15, 278208, Note_on_c, 8, 79, 86
15, 278304, Note_on_c, 8, 79, 0
15, 278304, Note_on_c, 8, 75, 0
15, 278304, Note_on_c, 8, 77, 86
15, 278304, Note_on_c, 8, 70, 86
15, 278400, Note_on_c, 8, 70, 0
15, 278400, Note_on_c, 8, 77, 0
15, 278400, Note_on_c, 8, 67, 86
15, 278400, Note_on_c, 8, 75, 86
15, 278496, Note_on_c, 8, 75, 0
15, 278496, Note_on_c, 8, 67, 0
15, 278496, Note_on_c, 8, 70, 86
15, 278496, Note_on_c, 8, 77, 86
15, 278592, Note_on_c, 8, 77, 0
15, 278592, Note_on_c, 8, 70, 0
15, 278592, Note_on_c, 8, 75, 86
15, 278592, Note_on_c, 8, 79, 86
15, 278688, Note_on_c, 8, 79, 0
15, 278688, Note_on_c, 8, 75, 0
15, 278784, Note_on_c, 8, 67, 86
15, 278784, Note_on_c, 8, 75, 86
15, 278880, Note_on_c, 8, 75, 0
15, 278880, Note_on_c, 8, 67, 0
15, 278976, Note_on_c, 8, 67, 86
15, 278976, Note_on_c, 8, 75, 86
15, 279360, Note_on_c, 8, 75, 0
15, 279360, Note_on_c, 8, 67, 0
15, 279456, Note_on_c, 8, 72, 86
15, 279456, Note_on_c, 8, 68, 86
15, 279504, Note_on_c, 8, 68, 0
15, 279504, Note_on_c, 8, 72, 0
15, 279504, Note_on_c, 8, 68, 86
15, 279504, Note_on_c, 8, 72, 86
15, 279552, Note_on_c, 8, 72, 0
15, 279552, Note_on_c, 8, 68, 0
15, 279552, Note_on_c, 8, 77, 86
15, 279552, Note_on_c, 8, 68, 86
15, 279648, Note_on_c, 8, 68, 0
15, 279648, Note_on_c, 8, 77, 0
15, 279648, Note_on_c, 8, 79, 86
15, 279648, Note_on_c, 8, 72, 86
15, 279744, Note_on_c, 8, 72, 0
15, 279744, Note_on_c, 8, 79, 0
15, 279744, Note_on_c, 8, 68, 86
15, 279744, Note_on_c, 8, 77, 86
15, 279840, Note_on_c, 8, 77, 0
15, 279840, Note_on_c, 8, 68, 0
15, 279840, Note_on_c, 8, 72, 86
15, 279840, Note_on_c, 8, 67, 86
15, 279936, Note_on_c, 8, 67, 0
15, 279936, Note_on_c, 8, 72, 0
15, 279936, Note_on_c, 8, 65, 86
15, 279936, Note_on_c, 8, 68, 86
15, 280032, Note_on_c, 8, 68, 0
15, 280032, Note_on_c, 8, 65, 0
15, 280032, Note_on_c, 8, 72, 86
15, 280032, Note_on_c, 8, 67, 86
15, 280128, Note_on_c, 8, 67, 0
15, 280128, Note_on_c, 8, 72, 0
15, 280128, Note_on_c, 8, 77, 86
15, 280128, Note_on_c, 8, 68, 86
15, 280224, Note_on_c, 8, 68, 0
15, 280224, Note_on_c, 8, 77, 0
15, 280224, Note_on_c, 8, 67, 86
15, 280224, Note_on_c, 8, 72, 86
15, 280320, Note_on_c, 8, 72, 0
15, 280320, Note_on_c, 8, 67, 0
15, 280320, Note_on_c, 8, 68, 86
15, 280320, Note_on_c, 8, 65, 86
15, 280416, Note_on_c, 8, 65, 0
15, 280416, Note_on_c, 8, 68, 0
15, 280416, Note_on_c, 8, 67, 86
15, 280416, Note_on_c, 8, 72, 86
15, 280512, Note_on_c, 8, 72, 0
15, 280512, Note_on_c, 8, 67, 0
15, 280512, Note_on_c, 8, 77, 86
15, 280512, Note_on_c, 8, 68, 86
15, 280896, Note_on_c, 8, 68, 0
15, 280896, Note_on_c, 8, 77, 0
15, 280992, Note_on_c, 8, 70, 86
15, 280992, Note_on_c, 8, 67, 86
15, 281040, Note_on_c, 8, 67, 0
15, 281040, Note_on_c, 8, 70, 0
15, 281040, Note_on_c, 8, 70, 86
15, 281040, Note_on_c, 8, 67, 86
15, 281088, Note_on_c, 8, 67, 0
15, 281088, Note_on_c, 8, 70, 0
15, 281088, Note_on_c, 8, 75, 86
15, 281088, Note_on_c, 8, 67, 86
15, 281184, Note_on_c, 8, 67, 0
15, 281184, Note_on_c, 8, 75, 0
15, 281184, Note_on_c, 8, 70, 86
15, 281184, Note_on_c, 8, 77, 86
15, 281280, Note_on_c, 8, 77, 0
15, 281280, Note_on_c, 8, 70, 0
15, 281280, Note_on_c, 8, 75, 86
15, 281280, Note_on_c, 8, 67, 86
15, 281376, Note_on_c, 8, 67, 0
15, 281376, Note_on_c, 8, 75, 0
15, 281376, Note_on_c, 8, 70, 86
15, 281376, Note_on_c, 8, 65, 86
15, 281472, Note_on_c, 8, 65, 0
15, 281472, Note_on_c, 8, 70, 0
15, 281472, Note_on_c, 8, 67, 86
15, 281472, Note_on_c, 8, 63, 86
15, 281568, Note_on_c, 8, 63, 0
15, 281568, Note_on_c, 8, 67, 0
15, 281568, Note_on_c, 8, 65, 86
15, 281568, Note_on_c, 8, 70, 86
15, 281664, Note_on_c, 8, 70, 0
15, 281664, Note_on_c, 8, 65, 0
15, 281664, Note_on_c, 8, 67, 86
15, 281664, Note_on_c, 8, 75, 86
15, 281760, Note_on_c, 8, 75, 0
15, 281760, Note_on_c, 8, 67, 0
15, 281760, Note_on_c, 8, 70, 86
15, 281760, Note_on_c, 8, 65, 86
15, 281856, Note_on_c, 8, 65, 0
15, 281856, Note_on_c, 8, 70, 0
15, 281856, Note_on_c, 8, 67, 86
15, 281856, Note_on_c, 8, 63, 86
15, 281952, Note_on_c, 8, 63, 0
15, 281952, Note_on_c, 8, 67, 0
15, 281952, Note_on_c, 8, 70, 86
15, 281952, Note_on_c, 8, 65, 86
15, 282048, Note_on_c, 8, 65, 0
15, 282048, Note_on_c, 8, 70, 0
15, 282048, Note_on_c, 8, 67, 86
15, 282048, Note_on_c, 8, 75, 86
15, 282432, Note_on_c, 8, 75, 0
15, 282432, Note_on_c, 8, 67, 0
15, 282432, End_track
16, 0, Start_track
16, 0, MIDI_port, 0
16, 0, Title_t, "Brass (offstage)"
16, 0, Program_c, 8, 56
16, 0, Control_c, 8, 7, 96
16, 0, Control_c, 8, 10, 38
16, 257856, Note_on_c, 8, 75, 97
16, 257856, Note_on_c, 8, 67, 97
16, 257856, Note_on_c, 8, 70, 97
16, 257856, Note_on_c, 8, 75, 97
16, 257856, Note_on_c, 8, 63, 97
16, 257952, Note_on_c, 8, 63, 0
16, 257952, Note_on_c, 8, 70, 0
16, 257952, Note_on_c, 8, 75, 0
16, 257952, Note_on_c, 8, 67, 0
16, 257952, Note_on_c, 8, 75, 0
16, 257952, Note_on_c, 8, 75, 97
16, 257952, Note_on_c, 8, 63, 97
16, 257952, Note_on_c, 8, 67, 97
16, 257952, Note_on_c, 8, 75, 97
16, 257952, Note_on_c, 8, 70, 97
16, 258048, Note_on_c, 8, 70, 0
16, 258048, Note_on_c, 8, 67, 0
16, 258048, Note_on_c, 8, 75, 0
16, 258048, Note_on_c, 8, 63, 0
16, 258048, Note_on_c, 8, 75, 0
16, 258048, Note_on_c, 8, 77, 97
16, 258048, Note_on_c, 8, 70, 97
16, 258048, Note_on_c, 8, 62, 97
16, 258048, Note_on_c, 8, 74, 97
16, 258240, Note_on_c, 8, 74, 0
16, 258240, Note_on_c, 8, 77, 0
16, 258240, Note_on_c, 8, 70, 0
16, 258240, Note_on_c, 8, 62, 0
16, 258240, Note_on_c, 8, 79, 97
16, 258240, Note_on_c, 8, 70, 97
16, 258240, Note_on_c, 8, 63, 97
16, 258240, Note_on_c, 8, 75, 97
16, 258432, Note_on_c, 8, 75, 0
16, 258432, Note_on_c, 8, 79, 0
16, 258432, Note_on_c, 8, 70, 0
16, 258432, Note_on_c, 8, 63, 0
16, 258432, Note_on_c, 8, 63, 97
16, 258432, Note_on_c, 8, 70, 97
16, 258432, Note_on_c, 8, 67, 97
16, 258432, Note_on_c, 8, 75, 97
16, 258528, Note_on_c, 8, 75, 0
16, 258528, Note_on_c, 8, 63, 0
16, 258528, Note_on_c, 8, 70, 0
16, 258528, Note_on_c, 8, 67, 0
16, 258528, Note_on_c, 8, 63, 97
16, 258528, Note_on_c, 8, 70, 97
16, 258528, Note_on_c, 8, 67, 97
16, 258528, Note_on_c, 8, 75, 97
16, 258624, Note_on_c, 8, 75, 0
16, 258624, Note_on_c, 8, 63, 0
16, 258624, Note_on_c, 8, 70, 0
16, 258624, Note_on_c, 8, 67, 0
16, 258624, Note_on_c, 8, 74, 97
16, 258624, Note_on_c, 8, 70, 97
16, 258624, Note_on_c, 8, 62, 97
16, 258624, Note_on_c, 8, 77, 97
16, 258624, Note_on_c, 8, 65, 97
16, 258720, Note_on_c, 8, 65, 0
16, 258720, Note_on_c, 8, 62, 0
16, 258720, Note_on_c, 8, 74, 0
16, 258720, Note_on_c, 8, 70, 0
16, 258720, Note_on_c, 8, 77, 0
16, 258720, Note_on_c, 8, 63, 97
16, 258720, Note_on_c, 8, 79, 97
16, 258720, Note_on_c, 8, 67, 97
16, 258720, Note_on_c, 8, 70, 97
16, 258720, Note_on_c, 8, 75, 97
16, 258816, Note_on_c, 8, 75, 0
16, 258816, Note_on_c, 8, 67, 0
16, 258816, Note_on_c, 8, 63, 0
16, 258816, Note_on_c, 8, 79, 0
16, 258816, Note_on_c, 8, 70, 0
16, 258816, Note_on_c, 8, 75, 97
16, 258816, Note_on_c, 8, 68, 97
16, 258816, Note_on_c, 8, 80, 97
16, 258816, Note_on_c, 8, 72, 97
16, 258912, Note_on_c, 8, 72, 0
16, 258912, Note_on_c, 8, 75, 0
16, 258912, Note_on_c, 8, 68, 0
16, 258912, Note_on_c, 8, 80, 0
16, 258912, Note_on_c, 8, 68, 97
16, 258912, Note_on_c, 8, 72, 97
16, 258912, Note_on_c, 8, 75, 97
16, 258912, Note_on_c, 8, 80, 97
16, 259008, Note_on_c, 8, 80, 0
16, 259008, Note_on_c, 8, 68, 0
16, 259008, Note_on_c, 8, 72, 0
16, 259008, Note_on_c, 8, 75, 0
16, 259008, Note_on_c, 8, 75, 97
16, 259008, Note_on_c, 8, 80, 97
16, 259008, Note_on_c, 8, 72, 97
16, 259008, Note_on_c, 8, 68, 97
16, 259296, Note_on_c, 8, 68, 0
16, 259296, Note_on_c, 8, 75, 0
16, 259296, Note_on_c, 8, 80, 0
16, 259296, Note_on_c, 8, 72, 0
16, 260352, Note_on_c, 8, 70, 97
16, 260352, Note_on_c, 8, 75, 97
16, 260352, Note_on_c, 8, 63, 97
16, 260352, Note_on_c, 8, 67, 97
16, 260352, Note_on_c, 8, 79, 97
16, 260448, Note_on_c, 8, 79, 0
16, 260448, Note_on_c, 8, 63, 0
16, 260448, Note_on_c, 8, 70, 0
16, 260448, Note_on_c, 8, 75, 0
16, 260448, Note_on_c, 8, 67, 0
16, 260448, Note_on_c, 8, 63, 97
16, 260448, Note_on_c, 8, 67, 97
16, 260448, Note_on_c, 8, 70, 97
16, 260448, Note_on_c, 8, 75, 97
16, 260448, Note_on_c, 8, 79, 97
16, 260544, Note_on_c, 8, 79, 0
16, 260544, Note_on_c, 8, 70, 0
16, 260544, Note_on_c, 8, 63, 0
16, 260544, Note_on_c, 8, 67, 0
16, 260544, Note_on_c, 8, 75, 0
16, 260544, Note_on_c, 8, 63, 97
16, 260544, Note_on_c, 8, 75, 97
16, 260544, Note_on_c, 8, 79, 97
16, 260544, Note_on_c, 8, 67, 97
16, 260544, Note_on_c, 8, 70, 97
16, 260640, Note_on_c, 8, 70, 0
16, 260640, Note_on_c, 8, 79, 0
16, 260640, Note_on_c, 8, 63, 0
16, 260640, Note_on_c, 8, 75, 0
16, 260640, Note_on_c, 8, 67, 0
16, 260640, Note_on_c, 8, 63, 97
16, 260640, Note_on_c, 8, 79, 97
16, 260640, Note_on_c, 8, 67, 97
16, 260640, Note_on_c, 8, 70, 97
16, 260640, Note_on_c, 8, 75, 97
16, 260736, Note_on_c, 8, 75, 0
16, 260736, Note_on_c, 8, 67, 0
16, 260736, Note_on_c, 8, 63, 0
16, 260736, Note_on_c, 8, 79, 0
16, 260736, Note_on_c, 8, 70, 0
16, 260736, Note_on_c, 8, 63, 97
16, 260736, Note_on_c, 8, 67, 97
16, 260736, Note_on_c, 8, 75, 97
16, 260736, Note_on_c, 8, 70, 97
16, 260736, Note_on_c, 8, 79, 97
16, 261120, Note_on_c, 8, 79, 0
16, 261120, Note_on_c, 8, 75, 0
16, 261120, Note_on_c, 8, 63, 0
16, 261120, Note_on_c, 8, 67, 0
16, 261120, Note_on_c, 8, 70, 0
16, 261120, Note_on_c, 8, 75, 97
16, 261120, Note_on_c, 8, 63, 97
16, 261120, Note_on_c, 8, 67, 97
16, 261120, Note_on_c, 8, 70, 97
16, 261120, Note_on_c, 8, 79, 97
16, 261312, Note_on_c, 8, 79, 0
16, 261312, Note_on_c, 8, 67, 0
16, 261312, Note_on_c, 8, 75, 0
16, 261312, Note_on_c, 8, 63, 0
16, 261312, Note_on_c, 8, 70, 0
16, 261312, Note_on_c, 8, 70, 97
16, 261312, Note_on_c, 8, 75, 97
16, 261312, Note_on_c, 8, 67, 97
16, 261312, Note_on_c, 8, 79, 97
16, 261312, Note_on_c, 8, 63, 97
16, 261504, Note_on_c, 8, 63, 0
16, 261504, Note_on_c, 8, 67, 0
16, 261504, Note_on_c, 8, 70, 0
16, 261504, Note_on_c, 8, 75, 0
16, 261504, Note_on_c, 8, 79, 0
16, 261504, Note_on_c, 8, 62, 97
16, 261504, Note_on_c, 8, 65, 97
16, 261504, Note_on_c, 8, 74, 97
16, 261504, Note_on_c, 8, 77, 97
16, 261504, Note_on_c, 8, 70, 97
16, 261792, Note_on_c, 8, 70, 0
16, 261792, Note_on_c, 8, 74, 0
16, 261792, Note_on_c, 8, 62, 0
16, 261792, Note_on_c, 8, 65, 0
16, 261792, Note_on_c, 8, 77, 0
16, 261792, Note_on_c, 8, 70, 97
16, 261792, Note_on_c, 8, 77, 97
16, 261792, Note_on_c, 8, 65, 97
16, 261792, Note_on_c, 8, 74, 97
16, 261792, Note_on_c, 8, 62, 97
16, 261888, Note_on_c, 8, 62, 0
16, 261888, Note_on_c, 8, 65, 0
16, 261888, Note_on_c, 8, 70, 0
16, 261888, Note_on_c, 8, 77, 0
16, 261888, Note_on_c, 8, 74, 0
16, 261888, Note_on_c, 8, 65, 97
16, 261888, Note_on_c, 8, 70, 97
16, 261888, Note_on_c, 8, 74, 97
16, 261888, Note_on_c, 8, 77, 97
16, 261888, Note_on_c, 8, 62, 97
16, 261984, Note_on_c, 8, 62, 0
16, 261984, Note_on_c, 8, 74, 0
16, 261984, Note_on_c, 8, 65, 0
16, 261984, Note_on_c, 8, 70, 0
16, 261984, Note_on_c, 8, 77, 0
16, 261984, Note_on_c, 8, 77, 97
16, 261984, Note_on_c, 8, 70, 97
16, 261984, Note_on_c, 8, 62, 97
16, 261984, Note_on_c, 8, 74, 97
16, 261984, Note_on_c, 8, 65, 97
16, 262080, Note_on_c, 8, 65, 0
16, 262080, Note_on_c, 8, 62, 0
16, 262080, Note_on_c, 8, 77, 0
16, 262080, Note_on_c, 8, 70, 0
16, 262080, Note_on_c, 8, 74, 0
16, 262080, Note_on_c, 8, 79, 97
16, 262080, Note_on_c, 8, 75, 97
16, 262176, Note_on_c, 8, 75, 0
16, 262176, Note_on_c, 8, 79, 0
16, 263616, Note_on_c, 8, 67, 97
16, 263616, Note_on_c, 8, 72, 97
16, 263616, Note_on_c, 8, 63, 97
16, 263616, Note_on_c, 8, 60, 97
16, 263616, Note_on_c, 8, 55, 97
16, 263616, Note_on_c, 8, 75, 97
16, 263808, Note_on_c, 8, 75, 0
16, 263808, Note_on_c, 8, 72, 0
16, 263808, Note_on_c, 8, 63, 0
16, 263808, Note_on_c, 8, 67, 0
16, 263808, Note_on_c, 8, 55, 0
16, 263808, Note_on_c, 8, 60, 0
16, 263808, Note_on_c, 8, 62, 97
16, 263808, Note_on_c, 8, 58, 97
16, 263808, Note_on_c, 8, 74, 97
16, 263808, Note_on_c, 8, 53, 97
16, 263808, Note_on_c, 8, 65, 97
16, 263808, Note_on_c, 8, 70, 97
16, 263808, Note_on_c, 8, 77, 97
16, 264000, Note_on_c, 8, 77, 0
16, 264000, Note_on_c, 8, 65, 0
16, 264000, Note_on_c, 8, 58, 0
16, 264000, Note_on_c, 8, 74, 0
16, 264000, Note_on_c, 8, 62, 0
16, 264000, Note_on_c, 8, 70, 0
16, 264000, Note_on_c, 8, 53, 0
16, 264000, Note_on_c, 8, 75, 97
16, 264000, Note_on_c, 8, 51, 97
16, 264000, Note_on_c, 8, 67, 97
16, 264000, Note_on_c, 8, 79, 97
16, 264000, Note_on_c, 8, 63, 97
16, 264000, Note_on_c, 8, 70, 97
16, 264000, Note_on_c, 8, 58, 97
16, 264000, Note_on_c, 8, 55, 97
16, 264192, Note_on_c, 8, 55, 0
16, 264192, Note_on_c, 8, 75, 0
16, 264192, Note_on_c, 8, 63, 0
16, 264192, Note_on_c, 8, 51, 0
16, 264192, Note_on_c, 8, 67, 0
16, 264192, Note_on_c, 8, 79, 0
16, 264192, Note_on_c, 8, 70, 0
16, 264192, Note_on_c, 8, 58, 0
16, 264192, Note_on_c, 8, 75, 97
16, 264192, Note_on_c, 8, 67, 97
16, 264192, Note_on_c, 8, 63, 97
16, 264192, Note_on_c, 8, 58, 97
16, 264192, Note_on_c, 8, 55, 97
16, 264192, Note_on_c, 8, 51, 97
16, 264192, Note_on_c, 8, 70, 97
16, 264384, Note_on_c, 8, 70, 0
16, 264384, Note_on_c, 8, 55, 0
16, 264384, Note_on_c, 8, 67, 0
16, 264384, Note_on_c, 8, 63, 0
16, 264384, Note_on_c, 8, 75, 0
16, 264384, Note_on_c, 8, 51, 0
16, 264384, Note_on_c, 8, 58, 0
16, 264384, Note_on_c, 8, 65, 97
16, 264384, Note_on_c, 8, 62, 97
16, 264384, Note_on_c, 8, 58, 97
16, 264384, Note_on_c, 8, 53, 97
16, 264384, Note_on_c, 8, 70, 97
16, 264384, Note_on_c, 8, 74, 97
16, 264384, Note_on_c, 8, 77, 97
16, 264480, Note_on_c, 8, 77, 0
16, 264480, Note_on_c, 8, 70, 0
16, 264480, Note_on_c, 8, 62, 0
16, 264480, Note_on_c, 8, 58, 0
16, 264480, Note_on_c, 8, 65, 0
16, 264480, Note_on_c, 8, 74, 0
16, 264480, Note_on_c, 8, 53, 0
16, 264480, Note_on_c, 8, 63, 97
16, 264480, Note_on_c, 8, 75, 97
16, 264480, Note_on_c, 8, 67, 97
16, 264480, Note_on_c, 8, 55, 97
16, 264480, Note_on_c, 8, 70, 97
16, 264480, Note_on_c, 8, 79, 97
16, 264480, Note_on_c, 8, 58, 97
16, 264576, Note_on_c, 8, 58, 0
16, 264576, Note_on_c, 8, 70, 0
16, 264576, Note_on_c, 8, 75, 0
16, 264576, Note_on_c, 8, 67, 0
16, 264576, Note_on_c, 8, 63, 0
16, 264576, Note_on_c, 8, 79, 0
16, 264576, Note_on_c, 8, 55, 0
16, 264576, Note_on_c, 8, 75, 97
16, 264576, Note_on_c, 8, 63, 97
16, 264576, Note_on_c, 8, 72, 97
16, 264576, Note_on_c, 8, 80, 97
16, 264576, Note_on_c, 8, 56, 97
16, 264576, Note_on_c, 8, 60, 97
16, 264576, Note_on_c, 8, 68, 97
16, 264672, Note_on_c, 8, 68, 0
16, 264672, Note_on_c, 8, 56, 0
16, 264672, Note_on_c, 8, 63, 0
16, 264672, Note_on_c, 8, 72, 0
16, 264672, Note_on_c, 8, 75, 0
16, 264672, Note_on_c, 8, 60, 0
16, 264672, Note_on_c, 8, 80, 0
16, 264672, Note_on_c, 8, 63, 97
16, 264672, Note_on_c, 8, 80, 97
16, 264672, Note_on_c, 8, 56, 97
16, 264672, Note_on_c, 8, 72, 97
16, 264672, Note_on_c, 8, 75, 97
16, 264672, Note_on_c, 8, 60, 97
16, 264672, Note_on_c, 8, 68, 97
16, 264768, Note_on_c, 8, 68, 0
16, 264768, Note_on_c, 8, 75, 0
16, 264768, Note_on_c, 8, 80, 0
16, 264768, Note_on_c, 8, 56, 0
16, 264768, Note_on_c, 8, 63, 0
16, 264768, Note_on_c, 8, 60, 0
16, 264768, Note_on_c, 8, 72, 0
16, 264768, Note_on_c, 8, 60, 97
16, 264768, Note_on_c, 8, 75, 97
16, 264768, Note_on_c, 8, 80, 97
16, 264768, Note_on_c, 8, 72, 97
16, 264768, Note_on_c, 8, 63, 97
16, 264768, Note_on_c, 8, 68, 97
16, 264768, Note_on_c, 8, 56, 97
16, 264864, Note_on_c, 8, 56, 0
16, 264864, Note_on_c, 8, 63, 0
16, 264864, Note_on_c, 8, 75, 0
16, 264864, Note_on_c, 8, 80, 0
16, 264864, Note_on_c, 8, 60, 0
16, 264864, Note_on_c, 8, 68, 0
16, 264864, Note_on_c, 8, 72, 0
16, 264864, Note_on_c, 8, 68, 97
16, 264864, Note_on_c, 8, 72, 97
16, 264864, Note_on_c, 8, 56, 97
16, 264864, Note_on_c, 8, 75, 97
16, 264864, Note_on_c, 8, 60, 97
16, 264864, Note_on_c, 8, 63, 97
16, 264864, Note_on_c, 8, 80, 97
16, 264960, Note_on_c, 8, 80, 0
16, 264960, Note_on_c, 8, 60, 0
16, 264960, Note_on_c, 8, 72, 0
16, 264960, Note_on_c, 8, 56, 0
16, 264960, Note_on_c, 8, 68, 0
16, 264960, Note_on_c, 8, 63, 0
16, 264960, Note_on_c, 8, 75, 0
16, 264960, Note_on_c, 8, 68, 97
16, 264960, Note_on_c, 8, 60, 97
16, 264960, Note_on_c, 8, 56, 97
16, 264960, Note_on_c, 8, 63, 97
16, 264960, Note_on_c, 8, 75, 97
16, 264960, Note_on_c, 8, 72, 97
16, 264960, Note_on_c, 8, 80, 97
16, 265056, Note_on_c, 8, 80, 0
16, 265056, Note_on_c, 8, 75, 0
16, 265056, Note_on_c, 8, 60, 0
16, 265056, Note_on_c, 8, 56, 0
16, 265056, Note_on_c, 8, 68, 0
16, 265056, Note_on_c, 8, 72, 0
16, 265056, Note_on_c, 8, 63, 0
16, 265056, Note_on_c, 8, 68, 97
16, 265056, Note_on_c, 8, 72, 97
16, 265056, Note_on_c, 8, 63, 97
16, 265056, Note_on_c, 8, 56, 97
16, 265056, Note_on_c, 8, 75, 97
16, 265056, Note_on_c, 8, 80, 97
16, 265056, Note_on_c, 8, 60, 97
16, 265152, Note_on_c, 8, 60, 0
16, 265152, Note_on_c, 8, 75, 0
16, 265152, Note_on_c, 8, 72, 0
16, 265152, Note_on_c, 8, 63, 0
16, 265152, Note_on_c, 8, 68, 0
16, 265152, Note_on_c, 8, 80, 0
16, 265152, Note_on_c, 8, 56, 0
16, 265152, Note_on_c, 8, 68, 97
16, 265152, Note_on_c, 8, 75, 97
16, 265152, Note_on_c, 8, 56, 97
16, 265152, Note_on_c, 8, 60, 97
16, 265152, Note_on_c, 8, 63, 97
16, 265152, Note_on_c, 8, 72, 97
16, 265152, Note_on_c, 8, 80, 97
16, 265248, Note_on_c, 8, 80, 0
16, 265248, Note_on_c, 8, 63, 0
16, 265248, Note_on_c, 8, 75, 0
16, 265248, Note_on_c, 8, 56, 0
16, 265248, Note_on_c, 8, 68, 0
16, 265248, Note_on_c, 8, 72, 0
16, 265248, Note_on_c, 8, 60, 0
16, 265248, Note_on_c, 8, 60, 97
16, 265248, Note_on_c, 8, 63, 97
16, 265248, Note_on_c, 8, 75, 97
16, 265248, Note_on_c, 8, 68, 97
16, 265248, Note_on_c, 8, 56, 97
16, 265248, Note_on_c, 8, 72, 97
16, 265248, Note_on_c, 8, 80, 97
16, 265344, Note_on_c, 8, 80, 0
16, 265344, Note_on_c, 8, 56, 0
16, 265344, Note_on_c, 8, 63, 0
16, 265344, Note_on_c, 8, 75, 0
16, 265344, Note_on_c, 8, 60, 0
16, 265344, Note_on_c, 8, 72, 0
16, 265344, Note_on_c, 8, 68, 0
16, 265344, Note_on_c, 8, 72, 97
16, 265344, Note_on_c, 8, 68, 97
16, 265344, Note_on_c, 8, 56, 97
16, 265344, Note_on_c, 8, 75, 97
16, 265344, Note_on_c, 8, 80, 97
16, 265344, Note_on_c, 8, 63, 97
16, 265344, Note_on_c, 8, 60, 97
16, 265440, Note_on_c, 8, 60, 0
16, 265440, Note_on_c, 8, 80, 0
16, 265440, Note_on_c, 8, 68, 0
16, 265440, Note_on_c, 8, 56, 0
16, 265440, Note_on_c, 8, 72, 0
16, 265440, Note_on_c, 8, 63, 0
16, 265440, Note_on_c, 8, 75, 0
16, 265440, Note_on_c, 8, 60, 97
16, 265440, Note_on_c, 8, 68, 97
16, 265440, Note_on_c, 8, 56, 97
16, 265440, Note_on_c, 8, 63, 97
16, 265440, Note_on_c, 8, 72, 97
16, 265440, Note_on_c, 8, 75, 97
16, 265440, Note_on_c, 8, 80, 97
16, 265536, Note_on_c, 8, 80, 0
16, 265536, Note_on_c, 8, 72, 0
16, 265536, Note_on_c, 8, 68, 0
16, 265536, Note_on_c, 8, 56, 0
16, 265536, Note_on_c, 8, 60, 0
16, 265536, Note_on_c, 8, 75, 0
16, 265536, Note_on_c, 8, 63, 0
16, 265536, Note_on_c, 8, 68, 97
16, 265536, Note_on_c, 8, 75, 97
16, 265536, Note_on_c, 8, 80, 97
16, 265536, Note_on_c, 8, 72, 97
16, 265536, Note_on_c, 8, 56, 97
16, 265536, Note_on_c, 8, 63, 97
16, 265536, Note_on_c, 8, 60, 97
16, 265632, Note_on_c, 8, 60, 0
16, 265632, Note_on_c, 8, 56, 0
16, 265632, Note_on_c, 8, 75, 0
16, 265632, Note_on_c, 8, 80, 0
16, 265632, Note_on_c, 8, 68, 0
16, 265632, Note_on_c, 8, 63, 0
16, 265632, Note_on_c, 8, 72, 0
16, 265632, Note_on_c, 8, 68, 97
16, 265632, Note_on_c, 8, 72, 97
16, 265632, Note_on_c, 8, 56, 97
16, 265632, Note_on_c, 8, 75, 97
16, 265632, Note_on_c, 8, 60, 97
16, 265632, Note_on_c, 8, 80, 97
16, 265632, Note_on_c, 8, 63, 97
16, 265728, Note_on_c, 8, 63, 0
16, 265728, Note_on_c, 8, 60, 0
16, 265728, Note_on_c, 8, 72, 0
16, 265728, Note_on_c, 8, 56, 0
16, 265728, Note_on_c, 8, 68, 0
16, 265728, Note_on_c, 8, 80, 0
16, 265728, Note_on_c, 8, 75, 0
16, 265728, Note_on_c, 8, 80, 97
16, 265728, Note_on_c, 8, 56, 97
16, 265728, Note_on_c, 8, 60, 97
16, 265728, Note_on_c, 8, 72, 97
16, 265728, Note_on_c, 8, 68, 97
16, 265728, Note_on_c, 8, 75, 97
16, 265728, Note_on_c, 8, 63, 97
16, 265824, Note_on_c, 8, 63, 0
16, 265824, Note_on_c, 8, 68, 0
16, 265824, Note_on_c, 8, 56, 0
16, 265824, Note_on_c, 8, 60, 0
16, 265824, Note_on_c, 8, 80, 0
16, 265824, Note_on_c, 8, 75, 0
16, 265824, Note_on_c, 8, 72, 0
16, 265824, Note_on_c, 8, 67, 97
16, 265824, Note_on_c, 8, 79, 97
16, 265824, Note_on_c, 8, 75, 97
16, 265824, Note_on_c, 8, 63, 97
16, 265824, Note_on_c, 8, 58, 97
16, 265824, Note_on_c, 8, 70, 97
16, 265824, Note_on_c, 8, 55, 97
16, 265920, Note_on_c, 8, 55, 0
16, 265920, Note_on_c, 8, 58, 0
16, 265920, Note_on_c, 8, 79, 0
16, 265920, Note_on_c, 8, 75, 0
16, 265920, Note_on_c, 8, 67, 0
16, 265920, Note_on_c, 8, 70, 0
16, 265920, Note_on_c, 8, 63, 0
16, 265920, Note_on_c, 8, 72, 97
16, 265920, Note_on_c, 8, 75, 97
16, 265920, Note_on_c, 8, 56, 97
16, 265920, Note_on_c, 8, 60, 97
16, 265920, Note_on_c, 8, 63, 97
16, 265920, Note_on_c, 8, 80, 97
16, 265920, Note_on_c, 8, 68, 97
16, 266160, Note_on_c, 8, 80, 0
16, 266160, Note_on_c, 8, 75, 0
16, 266208, Note_on_c, 8, 56, 0
16, 266208, Note_on_c, 8, 60, 0
16, 266208, Note_on_c, 8, 72, 0
16, 266208, Note_on_c, 8, 68, 0
16, 266208, Note_on_c, 8, 63, 0
16, 267264, Note_on_c, 8, 70, 97
16, 267264, Note_on_c, 8, 67, 97
16, 267264, Note_on_c, 8, 75, 97
16, 267264, Note_on_c, 8, 79, 97
16, 267264, Note_on_c, 8, 63, 97
16, 267360, Note_on_c, 8, 63, 0
16, 267360, Note_on_c, 8, 75, 0
16, 267360, Note_on_c, 8, 70, 0
16, 267360, Note_on_c, 8, 67, 0
16, 267360, Note_on_c, 8, 79, 0
16, 267360, Note_on_c, 8, 79, 97
16, 267360, Note_on_c, 8, 67, 97
16, 267360, Note_on_c, 8, 63, 97
16, 267360, Note_on_c, 8, 70, 97
16, 267360, Note_on_c, 8, 75, 97
16, 267456, Note_on_c, 8, 75, 0
16, 267456, Note_on_c, 8, 63, 0
16, 267456, Note_on_c, 8, 79, 0
16, 267456, Note_on_c, 8, 67, 0
16, 267456, Note_on_c, 8, 70, 0
16, 267456, Note_on_c, 8, 67, 97
16, 267456, Note_on_c, 8, 79, 97
16, 267456, Note_on_c, 8, 75, 97
16, 267456, Note_on_c, 8, 70, 97
16, 267456, Note_on_c, 8, 63, 97
16, 267552, Note_on_c, 8, 63, 0
16, 267552, Note_on_c, 8, 75, 0
16, 267552, Note_on_c, 8, 67, 0
16, 267552, Note_on_c, 8, 79, 0
16, 267552, Note_on_c, 8, 70, 0
16, 267552, Note_on_c, 8, 63, 97
16, 267552, Note_on_c, 8, 67, 97
16, 267552, Note_on_c, 8, 75, 97
16, 267552, Note_on_c, 8, 79, 97
16, 267552, Note_on_c, 8, 70, 97
16, 267648, Note_on_c, 8, 70, 0
16, 267648, Note_on_c, 8, 75, 0
16, 267648, Note_on_c, 8, 63, 0
16, 267648, Note_on_c, 8, 67, 0
16, 267648, Note_on_c, 8, 79, 0
16, 267648, Note_on_c, 8, 70, 97
16, 267648, Note_on_c, 8, 67, 97
16, 267648, Note_on_c, 8, 75, 97
16, 267648, Note_on_c, 8, 63, 97
16, 267648, Note_on_c, 8, 79, 97
16, 268032, Note_on_c, 8, 79, 0
16, 268032, Note_on_c, 8, 75, 0
16, 268032, Note_on_c, 8, 70, 0
16, 268032, Note_on_c, 8, 67, 0
16, 268032, Note_on_c, 8, 63, 0
16, 268032, Note_on_c, 8, 72, 97
16, 268032, Note_on_c, 8, 67, 97
16, 268032, Note_on_c, 8, 79, 97
16, 268032, Note_on_c, 8, 63, 97
16, 268032, Note_on_c, 8, 75, 97
16, 268224, Note_on_c, 8, 75, 0
16, 268224, Note_on_c, 8, 79, 0
16, 268224, Note_on_c, 8, 72, 0
16, 268224, Note_on_c, 8, 67, 0
16, 268224, Note_on_c, 8, 63, 0
16, 268224, Note_on_c, 8, 63, 97
16, 268224, Note_on_c, 8, 79, 97
16, 268224, Note_on_c, 8, 72, 97
16, 268224, Note_on_c, 8, 75, 97
16, 268224, Note_on_c, 8, 67, 97
16, 268416, Note_on_c, 8, 67, 0
16, 268416, Note_on_c, 8, 72, 0
16, 268416, Note_on_c, 8, 63, 0
16, 268416, Note_on_c, 8, 79, 0
16, 268416, Note_on_c, 8, 75, 0
16, 268416, Note_on_c, 8, 67, 97
16, 268416, Note_on_c, 8, 63, 97
16, 268416, Note_on_c, 8, 82, 97
16, 268416, Note_on_c, 8, 70, 97
16, 268416, Note_on_c, 8, 75, 97
16, 268704, Note_on_c, 8, 75, 0
16, 268704, Note_on_c, 8, 82, 0
16, 268704, Note_on_c, 8, 67, 0
16, 268704, Note_on_c, 8, 63, 0
16, 268704, Note_on_c, 8, 70, 0
16, 268704, Note_on_c, 8, 79, 97
16, 268704, Note_on_c, 8, 75, 97
16, 268704, Note_on_c, 8, 63, 97
16, 268704, Note_on_c, 8, 67, 97
16, 268704, Note_on_c, 8, 70, 97
16, 268800, Note_on_c, 8, 70, 0
16, 268800, Note_on_c, 8, 63, 0
16, 268800, Note_on_c, 8, 79, 0
16, 268800, Note_on_c, 8, 75, 0
16, 268800, Note_on_c, 8, 67, 0
16, 268800, Note_on_c, 8, 63, 97
16, 268800, Note_on_c, 8, 75, 97
16, 268800, Note_on_c, 8, 70, 97
16, 268800, Note_on_c, 8, 67, 97
16, 268896, Note_on_c, 8, 63, 0
16, 268896, Note_on_c, 8, 63, 97
16, 268992, Note_on_c, 8, 63, 0
16, 268992, Note_on_c, 8, 67, 0
16, 268992, Note_on_c, 8, 70, 0
16, 268992, Note_on_c, 8, 75, 0
16, 268992, Note_on_c, 8, 63, 97
16, 268992, Note_on_c, 8, 70, 97
16, 268992, Note_on_c, 8, 65, 97
16, 268992, Note_on_c, 8, 75, 97
16, 268992, Note_on_c, 8, 77, 97
16, 269280, Note_on_c, 8, 77, 0
16, 269280, Note_on_c, 8, 65, 0
16, 269280, Note_on_c, 8, 63, 0
16, 269280, Note_on_c, 8, 70, 0
16, 269280, Note_on_c, 8, 75, 0
16, 269280, Note_on_c, 8, 75, 97
16, 269280, Note_on_c, 8, 63, 97
16, 269280, Note_on_c, 8, 65, 97
16, 269280, Note_on_c, 8, 70, 97
16, 269280, Note_on_c, 8, 77, 97
16, 269312, Note_on_c, 8, 77, 0
16, 269312, Note_on_c, 8, 65, 0
16, 269312, Note_on_c, 8, 75, 0
16, 269312, Note_on_c, 8, 63, 0
16, 269312, Note_on_c, 8, 70, 0
16, 269312, Note_on_c, 8, 77, 97
16, 269312, Note_on_c, 8, 75, 97
16, 269312, Note_on_c, 8, 63, 97
16, 269312, Note_on_c, 8, 65, 97
16, 269312, Note_on_c, 8, 70, 97
16, 269344, Note_on_c, 8, 70, 0
16, 269344, Note_on_c, 8, 63, 0
16, 269344, Note_on_c, 8, 77, 0
16, 269344, Note_on_c, 8, 75, 0
16, 269344, Note_on_c, 8, 65, 0
16, 269344, Note_on_c, 8, 77, 97
16, 269344, Note_on_c, 8, 63, 97
16, 269344, Note_on_c, 8, 75, 97
16, 269344, Note_on_c, 8, 65, 97
16, 269344, Note_on_c, 8, 70, 97
16, 269376, Note_on_c, 8, 70, 0
16, 269376, Note_on_c, 8, 75, 0
16, 269376, Note_on_c, 8, 77, 0
16, 269376, Note_on_c, 8, 63, 0
16, 269376, Note_on_c, 8, 65, 0
16, 269376, Note_on_c, 8, 70, 97
16, 269376, Note_on_c, 8, 65, 97
16, 269376, Note_on_c, 8, 75, 97
16, 269376, Note_on_c, 8, 77, 97
16, 269376, Note_on_c, 8, 63, 97
16, 269472, Note_on_c, 8, 63, 0
16, 269472, Note_on_c, 8, 75, 0
16, 269472, Note_on_c, 8, 70, 0
16, 269472, Note_on_c, 8, 65, 0
16, 269472, Note_on_c, 8, 77, 0
16, 269472, Note_on_c, 8, 75, 97
16, 269472, Note_on_c, 8, 63, 97
16, 269472, Note_on_c, 8, 65, 97
16, 269472, Note_on_c, 8, 77, 97
16, 269472, Note_on_c, 8, 70, 97
16, 269568, Note_on_c, 8, 70, 0
16, 269568, Note_on_c, 8, 65, 0
16, 269568, Note_on_c, 8, 75, 0
16, 269568, Note_on_c, 8, 63, 0
16, 269568, Note_on_c, 8, 77, 0
16, 269568, Note_on_c, 8, 70, 97
16, 269568, Note_on_c, 8, 77, 97
16, 269568, Note_on_c, 8, 62, 97
16, 269568, Note_on_c, 8, 74, 97
16, 269856, Note_on_c, 8, 74, 0
16, 269856, Note_on_c, 8, 70, 0
16, 269856, Note_on_c, 8, 77, 0
16, 269856, Note_on_c, 8, 62, 0
16, 269856, Note_on_c, 8, 74, 97
16, 269856, Note_on_c, 8, 65, 97
16, 269856, Note_on_c, 8, 70, 97
16, 269856, Note_on_c, 8, 62, 97
16, 269952, Note_on_c, 8, 62, 0
16, 269952, Note_on_c, 8, 74, 0
16, 269952, Note_on_c, 8, 65, 0
16, 269952, Note_on_c, 8, 70, 0
16, 269952, Note_on_c, 8, 65, 97
16, 269952, Note_on_c, 8, 70, 97
16, 270048, Note_on_c, 8, 70, 0
16, 270048, Note_on_c, 8, 65, 0
16, 270048, Note_on_c, 8, 74, 97
16, 270048, Note_on_c, 8, 70, 97
16, 270048, Note_on_c, 8, 62, 97
16, 270144, Note_on_c, 8, 62, 0
16, 270144, Note_on_c, 8, 70, 0
16, 270144, Note_on_c, 8, 74, 0
16, 270144, Note_on_c, 8, 70, 97
16, 270144, Note_on_c, 8, 67, 97
16, 270144, Note_on_c, 8, 58, 97
16, 270144, Note_on_c, 8, 75, 97
16, 270144, Note_on_c, 8, 55, 97
16, 270144, Note_on_c, 8, 63, 97
16, 270240, Note_on_c, 8, 63, 0
16, 270240, Note_on_c, 8, 67, 0
16, 270240, Note_on_c, 8, 58, 0
16, 270240, Note_on_c, 8, 70, 0
16, 270240, Note_on_c, 8, 55, 0
16, 270240, Note_on_c, 8, 75, 0
16, 270240, Note_on_c, 8, 67, 95
16, 270240, Note_on_c, 8, 70, 95
16, 270240, Note_on_c, 8, 58, 95
16, 270240, Note_on_c, 8, 55, 95
16, 270288, Note_on_c, 8, 55, 0
16, 270288, Note_on_c, 8, 67, 0
16, 270288, Note_on_c, 8, 70, 0
16, 270288, Note_on_c, 8, 58, 0
16, 270288, Note_on_c, 8, 58, 95
16, 270288, Note_on_c, 8, 70, 95
16, 270288, Note_on_c, 8, 55, 95
16, 270288, Note_on_c, 8, 67, 95
16, 270336, Note_on_c, 8, 67, 0
16, 270336, Note_on_c, 8, 58, 0
16, 270336, Note_on_c, 8, 70, 0
16, 270336, Note_on_c, 8, 55, 0
16, 270336, Note_on_c, 8, 63, 95
16, 270336, Note_on_c, 8, 67, 95
16, 270336, Note_on_c, 8, 55, 95
16, 270336, Note_on_c, 8, 46, 97
16, 270336, Note_on_c, 8, 75, 95
16, 270432, Note_on_c, 8, 75, 0
16, 270432, Note_on_c, 8, 55, 0
16, 270432, Note_on_c, 8, 63, 0
16, 270432, Note_on_c, 8, 67, 0
16, 270432, Note_on_c, 8, 46, 0
16, 270432, Note_on_c, 8, 68, 95
16, 270432, Note_on_c, 8, 77, 95
16, 270432, Note_on_c, 8, 65, 95
16, 270432, Note_on_c, 8, 58, 95
16, 270528, Note_on_c, 8, 58, 0
16, 270528, Note_on_c, 8, 68, 0
16, 270528, Note_on_c, 8, 77, 0
16, 270528, Note_on_c, 8, 65, 0
16, 270528, Note_on_c, 8, 63, 95
16, 270528, Note_on_c, 8, 51, 97
16, 270528, Note_on_c, 8, 75, 95
16, 270528, Note_on_c, 8, 67, 95
16, 270528, Note_on_c, 8, 79, 95
16, 270624, Note_on_c, 8, 79, 0
16, 270624, Note_on_c, 8, 75, 0
16, 270624, Note_on_c, 8, 63, 0
16, 270624, Note_on_c, 8, 51, 0
16, 270624, Note_on_c, 8, 67, 0
16, 270624, Note_on_c, 8, 70, 95
16, 270624, Note_on_c, 8, 65, 95
16, 270624, Note_on_c, 8, 77, 95
16, 270624, Note_on_c, 8, 58, 95
16, 270720, Note_on_c, 8, 58, 0
16, 270720, Note_on_c, 8, 70, 0
16, 270720, Note_on_c, 8, 65, 0
16, 270720, Note_on_c, 8, 77, 0
16, 270720, Note_on_c, 8, 55, 95
16, 270720, Note_on_c, 8, 46, 97
16, 270720, Note_on_c, 8, 75, 95
16, 270720, Note_on_c, 8, 67, 95
16, 270720, Note_on_c, 8, 63, 95
16, 270816, Note_on_c, 8, 63, 0
16, 270816, Note_on_c, 8, 75, 0
16, 270816, Note_on_c, 8, 55, 0
16, 270816, Note_on_c, 8, 46, 0
16, 270816, Note_on_c, 8, 67, 0
16, 270816, Note_on_c, 8, 65, 95
16, 270816, Note_on_c, 8, 70, 95
16, 270816, Note_on_c, 8, 77, 95
16, 270816, Note_on_c, 8, 58, 95
16, 270912, Note_on_c, 8, 58, 0
16, 270912, Note_on_c, 8, 65, 0
16, 270912, Note_on_c, 8, 70, 0
16, 270912, Note_on_c, 8, 77, 0
16, 270912, Note_on_c, 8, 75, 46
16, 270912, Note_on_c, 8, 51, 95
16, 270912, Note_on_c, 8, 63, 95
16, 270912, Note_on_c, 8, 79, 47
16, 270912, Note_on_c, 8, 67, 95
16, 271008, Note_on_c, 8, 67, 0
16, 271008, Note_on_c, 8, 63, 0
16, 271008, Note_on_c, 8, 75, 0
16, 271008, Note_on_c, 8, 51, 0
16, 271008, Note_on_c, 8, 79, 0
16, 271104, Note_on_c, 8, 63, 95
16, 271104, Note_on_c, 8, 46, 95
16, 271104, Note_on_c, 8, 55, 95
16, 271104, Note_on_c, 8, 75, 49
16, 271104, Note_on_c, 8, 67, 49
16, 271200, Note_on_c, 8, 67, 0
16, 271200, Note_on_c, 8, 55, 0
16, 271200, Note_on_c, 8, 63, 0
16, 271200, Note_on_c, 8, 46, 0
16, 271200, Note_on_c, 8, 75, 0
16, 271296, Note_on_c, 8, 67, 52
16, 271296, Note_on_c, 8, 75, 95
16, 271296, Note_on_c, 8, 55, 95
16, 271296, Note_on_c, 8, 63, 95
16, 271296, Note_on_c, 8, 51, 95
16, 271392, Note_on_c, 8, 51, 0
16, 271488, Note_on_c, 8, 46, 95
16, 271584, Note_on_c, 8, 46, 0
16, 271680, Note_on_c, 8, 63, 0
16, 271680, Note_on_c, 8, 67, 0
16, 271680, Note_on_c, 8, 75, 0
16, 271680, Note_on_c, 8, 55, 0
16, 271776, Note_on_c, 8, 55, 95
16, 271776, Note_on_c, 8, 67, 95
16, 271776, Note_on_c, 8, 70, 95
16, 271776, Note_on_c, 8, 58, 95
16, 271824, Note_on_c, 8, 58, 0
16, 271824, Note_on_c, 8, 55, 0
16, 271824, Note_on_c, 8, 67, 0
16, 271824, Note_on_c, 8, 70, 0
16, 271824, Note_on_c, 8, 67, 95
16, 271824, Note_on_c, 8, 70, 95
16, 271824, Note_on_c, 8, 58, 95
16, 271824, Note_on_c, 8, 55, 95
16, 271872, Note_on_c, 8, 55, 0
16, 271872, Note_on_c, 8, 67, 0
16, 271872, Note_on_c, 8, 70, 0
16, 271872, Note_on_c, 8, 58, 0
16, 271872, Note_on_c, 8, 46, 95
16, 271872, Note_on_c, 8, 55, 95
16, 271872, Note_on_c, 8, 67, 95
16, 271872, Note_on_c, 8, 75, 95
16, 271872, Note_on_c, 8, 63, 95
16, 271968, Note_on_c, 8, 63, 0
16, 271968, Note_on_c, 8, 67, 0
16, 271968, Note_on_c, 8, 46, 0
16, 271968, Note_on_c, 8, 55, 0
16, 271968, Note_on_c, 8, 75, 0
16, 271968, Note_on_c, 8, 65, 95
16, 271968, Note_on_c, 8, 58, 95
16, 271968, Note_on_c, 8, 70, 95
16, 271968, Note_on_c, 8, 77, 95
16, 272064, Note_on_c, 8, 77, 0
16, 272064, Note_on_c, 8, 65, 0
16, 272064, Note_on_c, 8, 58, 0
16, 272064, Note_on_c, 8, 70, 0
16, 272064, Note_on_c, 8, 67, 95
16, 272064, Note_on_c, 8, 51, 95
16, 272064, Note_on_c, 8, 79, 95
16, 272064, Note_on_c, 8, 63, 95
16, 272064, Note_on_c, 8, 75, 95
16, 272160, Note_on_c, 8, 75, 0
16, 272160, Note_on_c, 8, 79, 0
16, 272160, Note_on_c, 8, 67, 0
16, 272160, Note_on_c, 8, 51, 0
16, 272160, Note_on_c, 8, 63, 0
16, 272160, Note_on_c, 8, 70, 95
16, 272160, Note_on_c, 8, 58, 95
16, 272160, Note_on_c, 8, 75, 95
16, 272160, Note_on_c, 8, 65, 95
16, 272256, Note_on_c, 8, 65, 0
16, 272256, Note_on_c, 8, 70, 0
16, 272256, Note_on_c, 8, 58, 0
16, 272256, Note_on_c, 8, 75, 0
16, 272256, Note_on_c, 8, 67, 95
16, 272256, Note_on_c, 8, 75, 95
16, 272256, Note_on_c, 8, 55, 95
16, 272256, Note_on_c, 8, 46, 95
16, 272256, Note_on_c, 8, 63, 95
16, 272352, Note_on_c, 8, 63, 0
16, 272352, Note_on_c, 8, 55, 0
16, 272352, Note_on_c, 8, 67, 0
16, 272352, Note_on_c, 8, 75, 0
16, 272352, Note_on_c, 8, 46, 0
16, 272352, Note_on_c, 8, 70, 95
16, 272352, Note_on_c, 8, 58, 95
16, 272352, Note_on_c, 8, 65, 95
16, 272352, Note_on_c, 8, 77, 95
16, 272448, Note_on_c, 8, 77, 0
16, 272448, Note_on_c, 8, 70, 0
16, 272448, Note_on_c, 8, 58, 0
16, 272448, Note_on_c, 8, 65, 0
16, 272448, Note_on_c, 8, 51, 95
16, 272448, Note_on_c, 8, 63, 95
16, 272448, Note_on_c, 8, 67, 95
16, 272448, Note_on_c, 8, 75, 95
16, 272448, Note_on_c, 8, 79, 95
16, 272544, Note_on_c, 8, 79, 0
16, 272544, Note_on_c, 8, 67, 0
16, 272544, Note_on_c, 8, 51, 0
16, 272544, Note_on_c, 8, 63, 0
16, 272544, Note_on_c, 8, 75, 0
16, 272640, Note_on_c, 8, 67, 95
16, 272640, Note_on_c, 8, 63, 95
16, 272640, Note_on_c, 8, 75, 95
16, 272640, Note_on_c, 8, 46, 95
16, 272640, Note_on_c, 8, 55, 95
16, 272736, Note_on_c, 8, 55, 0
16, 272736, Note_on_c, 8, 75, 0
16, 272736, Note_on_c, 8, 67, 0
16, 272736, Note_on_c, 8, 63, 0
16, 272736, Note_on_c, 8, 46, 0
16, 272832, Note_on_c, 8, 55, 95
16, 272832, Note_on_c, 8, 75, 95
16, 272832, Note_on_c, 8, 51, 95
16, 272832, Note_on_c, 8, 67, 95
16, 272832, Note_on_c, 8, 63, 95
16, 272928, Note_on_c, 8, 51, 0
16, 273024, Note_on_c, 8, 46, 95
16, 273120, Note_on_c, 8, 46, 0
16, 273216, Note_on_c, 8, 63, 0
16, 273216, Note_on_c, 8, 55, 0
16, 273216, Note_on_c, 8, 75, 0
16, 273216, Note_on_c, 8, 67, 0
16, 273216, Note_on_c, 8, 51, 95
16, 273312, Note_on_c, 8, 51, 0
16, 273312, Note_on_c, 8, 72, 95
16, 273312, Note_on_c, 8, 53, 95
16, 273312, Note_on_c, 8, 56, 95
16, 273312, Note_on_c, 8, 68, 95
16, 273360, Note_on_c, 8, 68, 0
16, 273360, Note_on_c, 8, 72, 0
16, 273360, Note_on_c, 8, 53, 0
16, 273360, Note_on_c, 8, 56, 0
16, 273360, Note_on_c, 8, 72, 95
16, 273360, Note_on_c, 8, 68, 95
16, 273360, Note_on_c, 8, 56, 95
16, 273360, Note_on_c, 8, 53, 95
16, 273408, Note_on_c, 8, 53, 0
16, 273408, Note_on_c, 8, 72, 0
16, 273408, Note_on_c, 8, 68, 0
16, 273408, Note_on_c, 8, 56, 0
16, 273408, Note_on_c, 8, 65, 95
16, 273408, Note_on_c, 8, 77, 95
16, 273408, Note_on_c, 8, 68, 95
16, 273408, Note_on_c, 8, 56, 95
16, 273408, Note_on_c, 8, 46, 95
16, 273504, Note_on_c, 8, 46, 0
16, 273504, Note_on_c, 8, 68, 0
16, 273504, Note_on_c, 8, 65, 0
16, 273504, Note_on_c, 8, 77, 0
16, 273504, Note_on_c, 8, 56, 0
16, 273504, Note_on_c, 8, 67, 95
16, 273504, Note_on_c, 8, 79, 95
16, 273504, Note_on_c, 8, 60, 95
16, 273504, Note_on_c, 8, 72, 95
16, 273600, Note_on_c, 8, 72, 0
16, 273600, Note_on_c, 8, 67, 0
16, 273600, Note_on_c, 8, 79, 0
16, 273600, Note_on_c, 8, 60, 0
16, 273600, Note_on_c, 8, 68, 95
16, 273600, Note_on_c, 8, 51, 95
16, 273600, Note_on_c, 8, 65, 95
16, 273600, Note_on_c, 8, 77, 95
16, 273600, Note_on_c, 8, 56, 95
16, 273696, Note_on_c, 8, 56, 0
16, 273696, Note_on_c, 8, 65, 0
16, 273696, Note_on_c, 8, 68, 0
16, 273696, Note_on_c, 8, 51, 0
16, 273696, Note_on_c, 8, 77, 0
16, 273696, Note_on_c, 8, 60, 95
16, 273696, Note_on_c, 8, 67, 95
16, 273696, Note_on_c, 8, 72, 95
16, 273696, Note_on_c, 8, 55, 95
16, 273792, Note_on_c, 8, 55, 0
16, 273792, Note_on_c, 8, 60, 0
16, 273792, Note_on_c, 8, 67, 0
16, 273792, Note_on_c, 8, 72, 0
16, 273792, Note_on_c, 8, 65, 95
16, 273792, Note_on_c, 8, 56, 95
16, 273792, Note_on_c, 8, 46, 95
16, 273792, Note_on_c, 8, 53, 95
16, 273792, Note_on_c, 8, 68, 95
16, 273888, Note_on_c, 8, 68, 0
16, 273888, Note_on_c, 8, 46, 0
16, 273888, Note_on_c, 8, 65, 0
16, 273888, Note_on_c, 8, 56, 0
16, 273888, Note_on_c, 8, 53, 0
16, 273888, Note_on_c, 8, 60, 95
16, 273888, Note_on_c, 8, 67, 95
16, 273888, Note_on_c, 8, 55, 95
16, 273888, Note_on_c, 8, 72, 95
16, 273984, Note_on_c, 8, 72, 0
16, 273984, Note_on_c, 8, 60, 0
16, 273984, Note_on_c, 8, 67, 0
16, 273984, Note_on_c, 8, 55, 0
16, 273984, Note_on_c, 8, 51, 95
16, 273984, Note_on_c, 8, 77, 95
16, 273984, Note_on_c, 8, 65, 95
16, 273984, Note_on_c, 8, 56, 95
16, 273984, Note_on_c, 8, 68, 95
16, 274080, Note_on_c, 8, 68, 0
16, 274080, Note_on_c, 8, 65, 0
16, 274080, Note_on_c, 8, 51, 0
16, 274080, Note_on_c, 8, 77, 0
16, 274080, Note_on_c, 8, 56, 0
16, 274080, Note_on_c, 8, 67, 95
16, 274080, Note_on_c, 8, 60, 95
16, 274080, Note_on_c, 8, 72, 95
16, 274080, Note_on_c, 8, 55, 95
16, 274176, Note_on_c, 8, 55, 0
16, 274176, Note_on_c, 8, 67, 0
16, 274176, Note_on_c, 8, 60, 0
16, 274176, Note_on_c, 8, 72, 0
16, 274176, Note_on_c, 8, 68, 95
16, 274176, Note_on_c, 8, 65, 95
16, 274176, Note_on_c, 8, 53, 95
16, 274176, Note_on_c, 8, 46, 95
16, 274176, Note_on_c, 8, 56, 95
16, 274272, Note_on_c, 8, 56, 0
16, 274272, Note_on_c, 8, 53, 0
16, 274272, Note_on_c, 8, 68, 0
16, 274272, Note_on_c, 8, 65, 0
16, 274272, Note_on_c, 8, 46, 0
16, 274272, Note_on_c, 8, 72, 95
16, 274272, Note_on_c, 8, 60, 95
16, 274272, Note_on_c, 8, 55, 95
16, 274272, Note_on_c, 8, 67, 95
16, 274368, Note_on_c, 8, 67, 0
16, 274368, Note_on_c, 8, 72, 0
16, 274368, Note_on_c, 8, 60, 0
16, 274368, Note_on_c, 8, 55, 0
16, 274368, Note_on_c, 8, 68, 95
16, 274368, Note_on_c, 8, 65, 95
16, 274368, Note_on_c, 8, 56, 95
16, 274368, Note_on_c, 8, 51, 95
16, 274368, Note_on_c, 8, 77, 95
16, 274464, Note_on_c, 8, 51, 0
16, 274560, Note_on_c, 8, 46, 95
16, 274656, Note_on_c, 8, 46, 0
16, 274752, Note_on_c, 8, 77, 0
16, 274752, Note_on_c, 8, 68, 0
16, 274752, Note_on_c, 8, 65, 0
16, 274752, Note_on_c, 8, 56, 0
16, 274752, Note_on_c, 8, 51, 95
16, 274848, Note_on_c, 8, 51, 0
16, 274848, Note_on_c, 8, 67, 95
16, 274848, Note_on_c, 8, 55, 95
16, 274848, Note_on_c, 8, 58, 95
16, 274848, Note_on_c, 8, 70, 95
16, 274896, Note_on_c, 8, 70, 0
16, 274896, Note_on_c, 8, 67, 0
16, 274896, Note_on_c, 8, 55, 0
16, 274896, Note_on_c, 8, 58, 0
16, 274896, Note_on_c, 8, 58, 95
16, 274896, Note_on_c, 8, 67, 95
16, 274896, Note_on_c, 8, 55, 95
16, 274896, Note_on_c, 8, 70, 95
16, 274944, Note_on_c, 8, 70, 0
16, 274944, Note_on_c, 8, 58, 0
16, 274944, Note_on_c, 8, 67, 0
16, 274944, Note_on_c, 8, 55, 0
16, 274944, Note_on_c, 8, 67, 95
16, 274944, Note_on_c, 8, 75, 95
16, 274944, Note_on_c, 8, 63, 95
16, 274944, Note_on_c, 8, 46, 95
16, 274944, Note_on_c, 8, 55, 95
16, 275040, Note_on_c, 8, 55, 0
16, 275040, Note_on_c, 8, 63, 0
16, 275040, Note_on_c, 8, 67, 0
16, 275040, Note_on_c, 8, 75, 0
16, 275040, Note_on_c, 8, 46, 0
16, 275040, Note_on_c, 8, 70, 95
16, 275040, Note_on_c, 8, 77, 95
16, 275040, Note_on_c, 8, 65, 95
16, 275040, Note_on_c, 8, 58, 95
16, 275136, Note_on_c, 8, 58, 0
16, 275136, Note_on_c, 8, 70, 0
16, 275136, Note_on_c, 8, 77, 0
16, 275136, Note_on_c, 8, 65, 0
16, 275136, Note_on_c, 8, 63, 95
16, 275136, Note_on_c, 8, 67, 95
16, 275136, Note_on_c, 8, 51, 95
16, 275136, Note_on_c, 8, 75, 95
16, 275136, Note_on_c, 8, 55, 95
16, 275232, Note_on_c, 8, 55, 0
16, 275232, Note_on_c, 8, 51, 0
16, 275232, Note_on_c, 8, 63, 0
16, 275232, Note_on_c, 8, 67, 0
16, 275232, Note_on_c, 8, 75, 0
16, 275232, Note_on_c, 8, 53, 95
16, 275232, Note_on_c, 8, 70, 95
16, 275232, Note_on_c, 8, 58, 95
16, 275232, Note_on_c, 8, 65, 95
16, 275328, Note_on_c, 8, 65, 0
16, 275328, Note_on_c, 8, 53, 0
16, 275328, Note_on_c, 8, 70, 0
16, 275328, Note_on_c, 8, 58, 0
16, 275328, Note_on_c, 8, 55, 95
16, 275328, Note_on_c, 8, 63, 95
16, 275328, Note_on_c, 8, 51, 95
16, 275328, Note_on_c, 8, 67, 95
16, 275328, Note_on_c, 8, 46, 95
16, 275424, Note_on_c, 8, 46, 0
16, 275424, Note_on_c, 8, 51, 0
16, 275424, Note_on_c, 8, 55, 0
16, 275424, Note_on_c, 8, 63, 0
16, 275424, Note_on_c, 8, 67, 0
16, 275424, Note_on_c, 8, 70, 95
16, 275424, Note_on_c, 8, 53, 95
16, 275424, Note_on_c, 8, 58, 95
16, 275424, Note_on_c, 8, 65, 95
16, 275520, Note_on_c, 8, 65, 0
16, 275520, Note_on_c, 8, 70, 0
16, 275520, Note_on_c, 8, 53, 0
16, 275520, Note_on_c, 8, 58, 0
16, 275520, Note_on_c, 8, 51, 95
16, 275520, Note_on_c, 8, 63, 95
16, 275520, Note_on_c, 8, 55, 95
16, 275520, Note_on_c, 8, 67, 95
16, 275520, Note_on_c, 8, 75, 95
16, 275616, Note_on_c, 8, 75, 0
16, 275616, Note_on_c, 8, 55, 0
16, 275616, Note_on_c, 8, 51, 0
16, 275616, Note_on_c, 8, 63, 0
16, 275616, Note_on_c, 8, 67, 0
16, 275616, Note_on_c, 8, 70, 95
16, 275616, Note_on_c, 8, 65, 95
16, 275616, Note_on_c, 8, 58, 95
16, 275616, Note_on_c, 8, 53, 95
16, 275712, Note_on_c, 8, 53, 0
16, 275712, Note_on_c, 8, 70, 0
16, 275712, Note_on_c, 8, 65, 0
16, 275712, Note_on_c, 8, 58, 0
16, 275712, Note_on_c, 8, 63, 95
16, 275712, Note_on_c, 8, 46, 95
16, 275712, Note_on_c, 8, 67, 95
16, 275712, Note_on_c, 8, 51, 95
16, 275712, Note_on_c, 8, 55, 95
16, 275808, Note_on_c, 8, 55, 0
16, 275808, Note_on_c, 8, 67, 0
16, 275808, Note_on_c, 8, 63, 0
16, 275808, Note_on_c, 8, 46, 0
16, 275808, Note_on_c, 8, 51, 0
16, 275808, Note_on_c, 8, 65, 95
16, 275808, Note_on_c, 8, 53, 95
16, 275808, Note_on_c, 8, 70, 95
16, 275808, Note_on_c, 8, 58, 95
16, 275904, Note_on_c, 8, 58, 0
16, 275904, Note_on_c, 8, 65, 0
16, 275904, Note_on_c, 8, 53, 0
16, 275904, Note_on_c, 8, 70, 0
16, 275904, Note_on_c, 8, 75, 95
16, 275904, Note_on_c, 8, 55, 95
16, 275904, Note_on_c, 8, 51, 95
16, 275904, Note_on_c, 8, 67, 95
16, 275904, Note_on_c, 8, 63, 95
16, 276000, Note_on_c, 8, 51, 0
16, 276096, Note_on_c, 8, 46, 95
16, 276192, Note_on_c, 8, 46, 0
16, 276288, Note_on_c, 8, 63, 0
16, 276288, Note_on_c, 8, 75, 0
16, 276288, Note_on_c, 8, 55, 0
16, 276288, Note_on_c, 8, 67, 0
16, 276288, Note_on_c, 8, 46, 108
16, 276288, Note_on_c, 8, 46, 108
16, 277056, Note_on_c, 8, 46, 0
16, 277056, Note_on_c, 8, 46, 0
16, 277056, Note_on_c, 8, 48, 108
16, 277056, Note_on_c, 8, 48, 108
16, 277440, Note_on_c, 8, 48, 0
16, 277440, Note_on_c, 8, 48, 0
16, 277440, Note_on_c, 8, 48, 108
16, 277440, Note_on_c, 8, 48, 108
16, 277824, Note_on_c, 8, 48, 0
16, 277824, Note_on_c, 8, 48, 0
16, 277824, Note_on_c, 8, 46, 108
16, 277824, Note_on_c, 8, 46, 108
16, 278400, Note_on_c, 8, 46, 0
16, 278400, Note_on_c, 8, 46, 0
16, 278400, Note_on_c, 8, 43, 108
16, 278400, Note_on_c, 8, 43, 108
16, 278592, Note_on_c, 8, 43, 0
16, 278592, Note_on_c, 8, 43, 0
16, 278592, Note_on_c, 8, 39, 108
16, 278592, Note_on_c, 8, 39, 108
16, 279360, Note_on_c, 8, 39, 0
16, 279360, Note_on_c, 8, 39, 0
16, 279360, Note_on_c, 8, 51, 108
16, 279360, Note_on_c, 8, 51, 108
16, 280128, Note_on_c, 8, 51, 0
16, 280128, Note_on_c, 8, 51, 0
16, 280128, Note_on_c, 8, 50, 108
16, 280128, Note_on_c, 8, 50, 108
16, 280512, Note_on_c, 8, 50, 0
16, 280512, Note_on_c, 8, 50, 0
16, 280512, Note_on_c, 8, 48, 108
16, 280512, Note_on_c, 8, 48, 108
16, 280896, Note_on_c, 8, 48, 0
16, 280896, Note_on_c, 8, 48, 0
16, 280896, Note_on_c, 8, 46, 108
16, 280896, Note_on_c, 8, 46, 108
16, 281664, Note_on_c, 8, 46, 0
16, 281664, Note_on_c, 8, 46, 0
16, 281664, Note_on_c, 8, 48, 108
16, 281664, Note_on_c, 8, 48, 108
16, 282432, Note_on_c, 8, 48, 0
16, 282432, Note_on_c, 8, 48, 0
16, 282432, Note_on_c, 8, 44, 108
16, 282432, Note_on_c, 8, 44, 108
16, 283200, Note_on_c, 8, 44, 0
16, 283200, Note_on_c, 8, 44, 0
16, 283200, Note_on_c, 8, 46, 108
16, 283200, Note_on_c, 8, 46, 108
16, 283584, Note_on_c, 8, 46, 0
16, 283584, Note_on_c, 8, 46, 0
16, 283584, Note_on_c, 8, 46, 108
16, 283584, Note_on_c, 8, 46, 108
16, 283968, Note_on_c, 8, 46, 0
16, 283968, Note_on_c, 8, 46, 0
16, 283968, Note_on_c, 8, 43, 121
16, 284544, Note_on_c, 8, 43, 0
16, 284544, Note_on_c, 8, 44, 121
16, 284736, Note_on_c, 8, 44, 0
16, 284736, Note_on_c, 8, 45, 82
16, 284928, Note_on_c, 8, 45, 0
16, 284928, Note_on_c, 8, 46, 75
16, 285120, Note_on_c, 8, 46, 0
16, 285120, Note_on_c, 8, 47, 83
16, 285312, Note_on_c, 8, 47, 0
16, 285312, Note_on_c, 8, 48, 79
16, 285504, Note_on_c, 8, 48, 0
16, 285504, Note_on_c, 8, 46, 83
16, 285632, Note_on_c, 8, 46, 0
16, 293184, Note_on_c, 8, 67, 95
16, 293184, Note_on_c, 8, 70, 95
16, 293184, Note_on_c, 8, 75, 95
16, 293268, Note_on_c, 8, 75, 0
16, 293268, Note_on_c, 8, 70, 0
16, 293268, Note_on_c, 8, 67, 0
16, 293280, Note_on_c, 8, 70, 95
16, 293280, Note_on_c, 8, 58, 95
16, 293322, Note_on_c, 8, 58, 0
16, 293322, Note_on_c, 8, 70, 0
16, 293328, Note_on_c, 8, 58, 95
16, 293328, Note_on_c, 8, 70, 95
16, 293370, Note_on_c, 8, 70, 0
16, 293370, Note_on_c, 8, 58, 0
16, 293376, Note_on_c, 8, 75, 95
16, 293376, Note_on_c, 8, 67, 95
16, 293376, Note_on_c, 8, 63, 95
16, 293376, Note_on_c, 8, 55, 95
16, 293460, Note_on_c, 8, 55, 0
16, 293460, Note_on_c, 8, 75, 0
16, 293460, Note_on_c, 8, 67, 0
16, 293460, Note_on_c, 8, 63, 0
16, 293472, Note_on_c, 8, 77, 95
16, 293472, Note_on_c, 8, 70, 95
16, 293472, Note_on_c, 8, 65, 95
16, 293472, Note_on_c, 8, 58, 95
16, 293556, Note_on_c, 8, 58, 0
16, 293556, Note_on_c, 8, 77, 0
16, 293556, Note_on_c, 8, 70, 0
16, 293556, Note_on_c, 8, 65, 0
16, 293568, Note_on_c, 8, 75, 95
16, 293568, Note_on_c, 8, 67, 95
16, 293568, Note_on_c, 8, 79, 95
16, 293568, Note_on_c, 8, 63, 95
16, 293652, Note_on_c, 8, 63, 0
16, 293652, Note_on_c, 8, 75, 0
16, 293652, Note_on_c, 8, 67, 0
16, 293652, Note_on_c, 8, 79, 0
16, 293664, Note_on_c, 8, 77, 95
16, 293664, Note_on_c, 8, 65, 95
16, 293664, Note_on_c, 8, 70, 95
16, 293664, Note_on_c, 8, 58, 95
16, 293748, Note_on_c, 8, 58, 0
16, 293748, Note_on_c, 8, 77, 0
16, 293748, Note_on_c, 8, 65, 0
16, 293748, Note_on_c, 8, 70, 0
16, 293760, Note_on_c, 8, 67, 95
16, 293760, Note_on_c, 8, 75, 95
16, 293760, Note_on_c, 8, 63, 95
16, 293760, Note_on_c, 8, 55, 95
16, 293844, Note_on_c, 8, 55, 0
16, 293844, Note_on_c, 8, 67, 0
16, 293844, Note_on_c, 8, 75, 0
16, 293844, Note_on_c, 8, 63, 0
16, 293856, Note_on_c, 8, 70, 95
16, 293856, Note_on_c, 8, 58, 95
16, 293856, Note_on_c, 8, 65, 95
16, 293856, Note_on_c, 8, 77, 95
16, 293940, Note_on_c, 8, 77, 0
16, 293940, Note_on_c, 8, 70, 0
16, 293940, Note_on_c, 8, 58, 0
16, 293940, Note_on_c, 8, 65, 0
16, 293952, Note_on_c, 8, 70, 95
16, 293952, Note_on_c, 8, 75, 95
16, 293952, Note_on_c, 8, 67, 95
16, 293952, Note_on_c, 8, 58, 95
16, 294036, Note_on_c, 8, 58, 0
16, 294036, Note_on_c, 8, 70, 0
16, 294036, Note_on_c, 8, 75, 0
16, 294036, Note_on_c, 8, 67, 0
16, 294048, Note_on_c, 8, 62, 95
16, 294048, Note_on_c, 8, 70, 95
16, 294048, Note_on_c, 8, 50, 95
16, 294048, Note_on_c, 8, 58, 95
16, 294090, Note_on_c, 8, 58, 0
16, 294090, Note_on_c, 8, 62, 0
16, 294090, Note_on_c, 8, 70, 0
16, 294090, Note_on_c, 8, 50, 0
16, 294096, Note_on_c, 8, 50, 95
16, 294096, Note_on_c, 8, 62, 95
16, 294096, Note_on_c, 8, 58, 95
16, 294096, Note_on_c, 8, 70, 95
16, 294138, Note_on_c, 8, 70, 0
16, 294138, Note_on_c, 8, 50, 0
16, 294138, Note_on_c, 8, 62, 0
16, 294138, Note_on_c, 8, 58, 0
16, 294144, Note_on_c, 8, 63, 95
16, 294144, Note_on_c, 8, 55, 95
16, 294144, Note_on_c, 8, 51, 95
16, 294144, Note_on_c, 8, 67, 95
16, 294228, Note_on_c, 8, 67, 0
16, 294228, Note_on_c, 8, 63, 0
16, 294228, Note_on_c, 8, 55, 0
16, 294228, Note_on_c, 8, 51, 0
16, 294240, Note_on_c, 8, 65, 95
16, 294240, Note_on_c, 8, 53, 95
16, 294240, Note_on_c, 8, 70, 95
16, 294240, Note_on_c, 8, 58, 95
16, 294324, Note_on_c, 8, 58, 0
16, 294324, Note_on_c, 8, 65, 0
16, 294324, Note_on_c, 8, 53, 0
16, 294324, Note_on_c, 8, 70, 0
16, 294336, Note_on_c, 8, 67, 95
16, 294336, Note_on_c, 8, 55, 95
16, 294336, Note_on_c, 8, 75, 95
16, 294336, Note_on_c, 8, 63, 95
16, 294420, Note_on_c, 8, 63, 0
16, 294420, Note_on_c, 8, 67, 0
16, 294420, Note_on_c, 8, 55, 0
16, 294420, Note_on_c, 8, 75, 0
16, 294432, Note_on_c, 8, 58, 95
16, 294432, Note_on_c, 8, 70, 95
16, 294432, Note_on_c, 8, 65, 95
16, 294432, Note_on_c, 8, 53, 95
16, 294516, Note_on_c, 8, 53, 0
16, 294516, Note_on_c, 8, 58, 0
16, 294516, Note_on_c, 8, 70, 0
16, 294516, Note_on_c, 8, 65, 0
16, 294528, Note_on_c, 8, 67, 95
16, 294528, Note_on_c, 8, 51, 95
16, 294528, Note_on_c, 8, 55, 95
16, 294528, Note_on_c, 8, 63, 95
16, 294612, Note_on_c, 8, 63, 0
16, 294612, Note_on_c, 8, 67, 0
16, 294612, Note_on_c, 8, 51, 0
16, 294612, Note_on_c, 8, 55, 0
16, 294624, Note_on_c, 8, 58, 95
16, 294624, Note_on_c, 8, 65, 95
16, 294624, Note_on_c, 8, 70, 95
16, 294624, Note_on_c, 8, 53, 95
16, 294708, Note_on_c, 8, 53, 0
16, 294708, Note_on_c, 8, 58, 0
16, 294708, Note_on_c, 8, 65, 0
16, 294708, Note_on_c, 8, 70, 0
16, 294720, Note_on_c, 8, 75, 95
16, 294720, Note_on_c, 8, 70, 95
16, 294720, Note_on_c, 8, 58, 95
16, 294720, Note_on_c, 8, 67, 95
16, 294804, Note_on_c, 8, 67, 0
16, 294804, Note_on_c, 8, 75, 0
16, 294804, Note_on_c, 8, 70, 0
16, 294804, Note_on_c, 8, 58, 0
16, 294816, Note_on_c, 8, 58, 95
16, 294858, Note_on_c, 8, 58, 0
16, 294864, Note_on_c, 8, 58, 95
16, 294906, Note_on_c, 8, 58, 0
16, 294912, Note_on_c, 8, 55, 95
16, 294912, Note_on_c, 8, 63, 95
16, 294996, Note_on_c, 8, 63, 0
16, 294996, Note_on_c, 8, 55, 0
16, 295008, Note_on_c, 8, 58, 95
16, 295008, Note_on_c, 8, 65, 95
16, 295092, Note_on_c, 8, 65, 0
16, 295092, Note_on_c, 8, 58, 0
16, 295104, Note_on_c, 8, 63, 95
16, 295104, Note_on_c, 8, 67, 95
16, 295188, Note_on_c, 8, 67, 0
16, 295188, Note_on_c, 8, 63, 0
16, 295200, Note_on_c, 8, 65, 95
16, 295200, Note_on_c, 8, 58, 95
16, 295284, Note_on_c, 8, 58, 0
16, 295284, Note_on_c, 8, 65, 0
16, 295296, Note_on_c, 8, 63, 95
16, 295296, Note_on_c, 8, 55, 95
16, 295380, Note_on_c, 8, 55, 0
16, 295380, Note_on_c, 8, 63, 0
16, 295392, Note_on_c, 8, 65, 95
16, 295392, Note_on_c, 8, 58, 95
16, 295476, Note_on_c, 8, 58, 0
16, 295476, Note_on_c, 8, 65, 0
16, 295488, Note_on_c, 8, 58, 95
16, 295488, Note_on_c, 8, 63, 95
16, 295572, Note_on_c, 8, 63, 0
16, 295572, Note_on_c, 8, 58, 0
16, 295584, Note_on_c, 8, 50, 95
16, 295584, Note_on_c, 8, 58, 95
16, 295626, Note_on_c, 8, 58, 0
16, 295626, Note_on_c, 8, 50, 0
16, 295632, Note_on_c, 8, 58, 95
16, 295632, Note_on_c, 8, 50, 95
16, 295674, Note_on_c, 8, 50, 0
16, 295674, Note_on_c, 8, 58, 0
16, 295680, Note_on_c, 8, 55, 95
16, 295680, Note_on_c, 8, 51, 95
16, 295764, Note_on_c, 8, 51, 0
16, 295764, Note_on_c, 8, 55, 0
16, 295776, Note_on_c, 8, 53, 95
16, 295776, Note_on_c, 8, 58, 95
16, 295860, Note_on_c, 8, 58, 0
16, 295860, Note_on_c, 8, 53, 0
16, 295872, Note_on_c, 8, 63, 95
16, 295872, Note_on_c, 8, 55, 95
16, 295956, Note_on_c, 8, 55, 0
16, 295956, Note_on_c, 8, 63, 0
16, 295968, Note_on_c, 8, 58, 95
16, 295968, Note_on_c, 8, 53, 95
16, 296052, Note_on_c, 8, 53, 0
16, 296052, Note_on_c, 8, 58, 0
16, 296064, Note_on_c, 8, 51, 95
16, 296064, Note_on_c, 8, 55, 95
16, 296148, Note_on_c, 8, 55, 0
16, 296148, Note_on_c, 8, 51, 0
16, 296160, Note_on_c, 8, 58, 95
16, 296160, Note_on_c, 8, 53, 95
16, 296244, Note_on_c, 8, 53, 0
16, 296244, Note_on_c, 8, 58, 0
16, 296256, Note_on_c, 8, 67, 95
16, 296256, Note_on_c, 8, 58, 95
16, 296256, Note_on_c, 8, 75, 95
16, 296256, Note_on_c, 8, 70, 95
16, 296367, Note_on_c, 8, 70, 0
16, 296367, Note_on_c, 8, 67, 0
16, 296367, Note_on_c, 8, 58, 0
16, 296367, Note_on_c, 8, 75, 0
16, 296640, Note_on_c, 8, 58, 95
16, 296640, Note_on_c, 8, 63, 95
16, 296640, Note_on_c, 8, 51, 95
16, 296640, Note_on_c, 8, 55, 95
16, 296928, Note_on_c, 8, 55, 0
16, 296928, Note_on_c, 8, 58, 0
16, 296928, Note_on_c, 8, 63, 0
16, 296928, Note_on_c, 8, 51, 0
16, 296928, Note_on_c, 8, 58, 95
16, 296928, Note_on_c, 8, 55, 95
16, 296928, Note_on_c, 8, 51, 95
16, 296928, Note_on_c, 8, 63, 95
16, 297024, Note_on_c, 8, 63, 0
16, 297024, Note_on_c, 8, 58, 0
16, 297024, Note_on_c, 8, 55, 0
16, 297024, Note_on_c, 8, 51, 0
16, 297024, Note_on_c, 8, 55, 95
16, 297024, Note_on_c, 8, 58, 95
16, 297024, Note_on_c, 8, 51, 95
16, 297024, Note_on_c, 8, 63, 55
16, 297024, Note_on_c, 8, 67, 54
16, 297408, Note_on_c, 8, 67, 0
16, 297408, Note_on_c, 8, 51, 0
16, 297408, Note_on_c, 8, 55, 0
16, 297408, Note_on_c, 8, 58, 0
16, 297408, Note_on_c, 8, 63, 0
16, 297408, Note_on_c, 8, 63, 95
16, 297408, Note_on_c, 8, 70, 54
16, 297408, Note_on_c, 8, 58, 95
16, 297408, Note_on_c, 8, 51, 95
16, 297408, Note_on_c, 8, 55, 95
16, 297408, Note_on_c, 8, 67, 54
16, 297792, Note_on_c, 8, 67, 0
16, 297792, Note_on_c, 8, 70, 0
16, 297792, Note_on_c, 8, 58, 0
16, 297792, Note_on_c, 8, 63, 0
16, 297792, Note_on_c, 8, 55, 0
16, 297792, Note_on_c, 8, 51, 0
16, 297792, Note_on_c, 8, 67, 95
16, 297792, Note_on_c, 8, 75, 95
16, 297792, Note_on_c, 8, 58, 95
16, 297792, Note_on_c, 8, 70, 95
16, 297792, Note_on_c, 8, 55, 95
16, 297792, Note_on_c, 8, 51, 95
16, 298176, Note_on_c, 8, 51, 0
16, 298176, Note_on_c, 8, 75, 0
16, 298176, Note_on_c, 8, 58, 0
16, 298176, Note_on_c, 8, 67, 0
16, 298176, Note_on_c, 8, 55, 0
16, 298176, Note_on_c, 8, 70, 0
16, 298560, Note_on_c, 8, 55, 95
16, 298560, Note_on_c, 8, 58, 95
16, 298560, Note_on_c, 8, 79, 95
16, 298560, Note_on_c, 8, 51, 95
16, 298560, Note_on_c, 8, 63, 95
16, 298560, Note_on_c, 8, 75, 95
16, 298944, Note_on_c, 8, 75, 0
16, 298944, Note_on_c, 8, 58, 0
16, 298944, Note_on_c, 8, 79, 0
16, 298944, Note_on_c, 8, 55, 0
16, 298944, Note_on_c, 8, 63, 0
16, 298944, Note_on_c, 8, 51, 0
16, 299328, Note_on_c, 8, 58, 95
16, 299328, Note_on_c, 8, 51, 95
16, 299328, Note_on_c, 8, 63, 95
16, 299328, Note_on_c, 8, 55, 95
16, 299712, Note_on_c, 8, 55, 0
16, 299712, Note_on_c, 8, 58, 0
16, 299712, Note_on_c, 8, 51, 0
16, 299712, Note_on_c, 8, 63, 0
16, 300096, Note_on_c, 8, 75, 95
16, 300096, Note_on_c, 8, 67, 95
16, 300096, Note_on_c, 8, 63, 95
16, 300096, Note_on_c, 8, 70, 95
16, 300096, Note_on_c, 8, 51, 95
16, 300096, Note_on_c, 8, 55, 95
16, 300096, Note_on_c, 8, 58, 95
16, 300480, Note_on_c, 8, 58, 0
16, 300480, Note_on_c, 8, 51, 0
16, 300480, Note_on_c, 8, 67, 0
16, 300480, Note_on_c, 8, 63, 0
16, 300480, Note_on_c, 8, 75, 0
16, 300480, Note_on_c, 8, 55, 0
16, 300480, Note_on_c, 8, 70, 0
16, 300864, Note_on_c, 8, 51, 95
16, 300864, Note_on_c, 8, 67, 95
16, 300864, Note_on_c, 8, 58, 95
16, 300864, Note_on_c, 8, 70, 95
16, 300864, Note_on_c, 8, 55, 95
16, 300864, Note_on_c, 8, 75, 95
16, 301056, Note_on_c, 8, 75, 0
16, 301056, Note_on_c, 8, 67, 0
16, 301056, Note_on_c, 8, 58, 0
16, 301056, Note_on_c, 8, 51, 0
16, 301056, Note_on_c, 8, 55, 0
16, 301056, Note_on_c, 8, 70, 0
16, 301632, Note_on_c, 8, 39, 95
16, 301632, Note_on_c, 8, 63, 95
16, 301632, Note_on_c, 8, 51, 95
16, 302205, Note_on_c, 8, 51, 0
16, 302205, Note_on_c, 8, 63, 0
16, 302205, Note_on_c, 8, 39, 0
16, 302208, Note_on_c, 8, 63, 95
16, 302208, Note_on_c, 8, 39, 95
16, 302208, Note_on_c, 8, 51, 95
16, 302397, Note_on_c, 8, 51, 0
16, 302397, Note_on_c, 8, 39, 0
16, 302397, Note_on_c, 8, 63, 0
16, 302400, Note_on_c, 8, 39, 95
16, 302400, Note_on_c, 8, 51, 95
16, 302400, Note_on_c, 8, 63, 95
16, 303168, Note_on_c, 8, 63, 0
16, 303168, Note_on_c, 8, 51, 0
16, 303168, Note_on_c, 8, 39, 0
16, 303168, End_track
17, 0, Start_track
17, 0, MIDI_port, 0
17, 0, Title_t, "Snare Drum "
17, 0, Control_c, 9, 7, 85
17, 0, Control_c, 9, 10, 64
17, 144, Control_c, 9, 7, 70
17, 43920, Note_on_c, 9, 38, 50
17, 43936, Note_on_c, 9, 38, 0
17, 43936, Note_on_c, 9, 38, 50
17, 43952, Note_on_c, 9, 38, 0
17, 43952, Note_on_c, 9, 38, 50
17, 43968, Note_on_c, 9, 38, 0
17, 43968, Note_on_c, 9, 38, 50
17, 44064, Note_on_c, 9, 38, 0
17, 44112, Note_on_c, 9, 38, 48
17, 44128, Note_on_c, 9, 38, 0
17, 44128, Note_on_c, 9, 38, 48
17, 44144, Note_on_c, 9, 38, 0
17, 44144, Note_on_c, 9, 38, 48
17, 44160, Note_on_c, 9, 38, 0
17, 44160, Note_on_c, 9, 38, 48
17, 44208, Note_on_c, 9, 38, 0
17, 44256, Note_on_c, 9, 38, 50
17, 44304, Note_on_c, 9, 38, 0
17, 44352, Note_on_c, 9, 38, 50
17, 44448, Note_on_c, 9, 38, 0
17, 44688, Note_on_c, 9, 38, 50
17, 44704, Note_on_c, 9, 38, 0
17, 44704, Note_on_c, 9, 38, 50
17, 44720, Note_on_c, 9, 38, 0
17, 44720, Note_on_c, 9, 38, 50
17, 44736, Note_on_c, 9, 38, 0
17, 44736, Note_on_c, 9, 38, 50
17, 44832, Note_on_c, 9, 38, 0
17, 44880, Note_on_c, 9, 38, 48
17, 44896, Note_on_c, 9, 38, 0
17, 44896, Note_on_c, 9, 38, 48
17, 44912, Note_on_c, 9, 38, 0
17, 44912, Note_on_c, 9, 38, 48
17, 44928, Note_on_c, 9, 38, 0
17, 44928, Note_on_c, 9, 38, 48
17, 44976, Note_on_c, 9, 38, 0
17, 45024, Note_on_c, 9, 38, 50
17, 45072, Note_on_c, 9, 38, 0
17, 45120, Note_on_c, 9, 38, 50
17, 45216, Note_on_c, 9, 38, 0
17, 45456, Note_on_c, 9, 38, 50
17, 45472, Note_on_c, 9, 38, 0
17, 45472, Note_on_c, 9, 38, 50
17, 45488, Note_on_c, 9, 38, 0
17, 45488, Note_on_c, 9, 38, 50
17, 45504, Note_on_c, 9, 38, 0
17, 45504, Note_on_c, 9, 38, 50
17, 45600, Note_on_c, 9, 38, 0
17, 45648, Note_on_c, 9, 38, 48
17, 45664, Note_on_c, 9, 38, 0
17, 45664, Note_on_c, 9, 38, 48
17, 45680, Note_on_c, 9, 38, 0
17, 45680, Note_on_c, 9, 38, 48
17, 45696, Note_on_c, 9, 38, 0
17, 45696, Note_on_c, 9, 38, 48
17, 45744, Note_on_c, 9, 38, 0
17, 45792, Note_on_c, 9, 38, 50
17, 45840, Note_on_c, 9, 38, 0
17, 45888, Note_on_c, 9, 38, 50
17, 45984, Note_on_c, 9, 38, 0
17, 46224, Note_on_c, 9, 38, 50
17, 46240, Note_on_c, 9, 38, 0
17, 46240, Note_on_c, 9, 38, 50
17, 46256, Note_on_c, 9, 38, 0
17, 46256, Note_on_c, 9, 38, 50
17, 46272, Note_on_c, 9, 38, 0
17, 46272, Note_on_c, 9, 38, 50
17, 46368, Note_on_c, 9, 38, 0
17, 46416, Note_on_c, 9, 38, 48
17, 46432, Note_on_c, 9, 38, 0
17, 46432, Note_on_c, 9, 38, 48
17, 46448, Note_on_c, 9, 38, 0
17, 46448, Note_on_c, 9, 38, 48
17, 46464, Note_on_c, 9, 38, 0
17, 46464, Note_on_c, 9, 38, 48
17, 46512, Note_on_c, 9, 38, 0
17, 46560, Note_on_c, 9, 38, 50
17, 46608, Note_on_c, 9, 38, 0
17, 46656, Note_on_c, 9, 38, 50
17, 46752, Note_on_c, 9, 38, 0
17, 46992, Note_on_c, 9, 38, 50
17, 47008, Note_on_c, 9, 38, 0
17, 47008, Note_on_c, 9, 38, 50
17, 47024, Note_on_c, 9, 38, 0
17, 47024, Note_on_c, 9, 38, 50
17, 47040, Note_on_c, 9, 38, 0
17, 47040, Note_on_c, 9, 38, 50
17, 47136, Note_on_c, 9, 38, 0
17, 47184, Note_on_c, 9, 38, 48
17, 47200, Note_on_c, 9, 38, 0
17, 47200, Note_on_c, 9, 38, 48
17, 47216, Note_on_c, 9, 38, 0
17, 47216, Note_on_c, 9, 38, 48
17, 47232, Note_on_c, 9, 38, 0
17, 47232, Note_on_c, 9, 38, 48
17, 47280, Note_on_c, 9, 38, 0
17, 47328, Note_on_c, 9, 38, 50
17, 47376, Note_on_c, 9, 38, 0
17, 47424, Note_on_c, 9, 38, 50
17, 47520, Note_on_c, 9, 38, 0
17, 48000, Note_on_c, 9, 38, 34
17, 48024, Note_on_c, 9, 38, 0
17, 48024, Note_on_c, 9, 38, 34
17, 48048, Note_on_c, 9, 38, 0
17, 48048, Note_on_c, 9, 38, 34
17, 48072, Note_on_c, 9, 38, 0
17, 48072, Note_on_c, 9, 38, 31
17, 48096, Note_on_c, 9, 38, 0
17, 48096, Note_on_c, 9, 38, 31
17, 48120, Note_on_c, 9, 38, 0
17, 48120, Note_on_c, 9, 38, 34
17, 48144, Note_on_c, 9, 38, 0
17, 48144, Note_on_c, 9, 38, 34
17, 48168, Note_on_c, 9, 38, 0
17, 48168, Note_on_c, 9, 38, 34
17, 48192, Note_on_c, 9, 38, 0
17, 48192, Note_on_c, 9, 38, 34
17, 48216, Note_on_c, 9, 38, 0
17, 48216, Note_on_c, 9, 38, 34
17, 48240, Note_on_c, 9, 38, 0
17, 48240, Note_on_c, 9, 38, 34
17, 48264, Note_on_c, 9, 38, 0
17, 48264, Note_on_c, 9, 38, 34
17, 48288, Note_on_c, 9, 38, 0
17, 48288, Note_on_c, 9, 38, 34
17, 48312, Note_on_c, 9, 38, 0
17, 48312, Note_on_c, 9, 38, 34
17, 48336, Note_on_c, 9, 38, 0
17, 48336, Note_on_c, 9, 38, 34
17, 48360, Note_on_c, 9, 38, 0
17, 48360, Note_on_c, 9, 38, 34
17, 48384, Note_on_c, 9, 38, 0
17, 48384, Note_on_c, 9, 38, 18
17, 48480, Note_on_c, 9, 38, 0
17, 48768, Note_on_c, 9, 38, 34
17, 48792, Note_on_c, 9, 38, 0
17, 48792, Note_on_c, 9, 38, 34
17, 48816, Note_on_c, 9, 38, 0
17, 48816, Note_on_c, 9, 38, 34
17, 48840, Note_on_c, 9, 38, 0
17, 48840, Note_on_c, 9, 38, 31
17, 48864, Note_on_c, 9, 38, 0
17, 48864, Note_on_c, 9, 38, 31
17, 48888, Note_on_c, 9, 38, 0
17, 48888, Note_on_c, 9, 38, 34
17, 48912, Note_on_c, 9, 38, 0
17, 48912, Note_on_c, 9, 38, 34
17, 48936, Note_on_c, 9, 38, 0
17, 48936, Note_on_c, 9, 38, 34
17, 48960, Note_on_c, 9, 38, 0
17, 48960, Note_on_c, 9, 38, 34
17, 48984, Note_on_c, 9, 38, 0
17, 48984, Note_on_c, 9, 38, 34
17, 49008, Note_on_c, 9, 38, 0
17, 49008, Note_on_c, 9, 38, 34
17, 49032, Note_on_c, 9, 38, 0
17, 49032, Note_on_c, 9, 38, 34
17, 49056, Note_on_c, 9, 38, 0
17, 49056, Note_on_c, 9, 38, 34
17, 49080, Note_on_c, 9, 38, 0
17, 49080, Note_on_c, 9, 38, 34
17, 49104, Note_on_c, 9, 38, 0
17, 49104, Note_on_c, 9, 38, 34
17, 49128, Note_on_c, 9, 38, 0
17, 49128, Note_on_c, 9, 38, 34
17, 49152, Note_on_c, 9, 38, 0
17, 49152, Note_on_c, 9, 38, 18
17, 49248, Note_on_c, 9, 38, 0
17, 49536, Note_on_c, 9, 38, 34
17, 49560, Note_on_c, 9, 38, 0
17, 49560, Note_on_c, 9, 38, 34
17, 49584, Note_on_c, 9, 38, 0
17, 49584, Note_on_c, 9, 38, 34
17, 49608, Note_on_c, 9, 38, 0
17, 49608, Note_on_c, 9, 38, 31
17, 49632, Note_on_c, 9, 38, 0
17, 49632, Note_on_c, 9, 38, 31
17, 49656, Note_on_c, 9, 38, 0
17, 49656, Note_on_c, 9, 38, 34
17, 49680, Note_on_c, 9, 38, 0
17, 49680, Note_on_c, 9, 38, 34
17, 49704, Note_on_c, 9, 38, 0
17, 49704, Note_on_c, 9, 38, 34
17, 49728, Note_on_c, 9, 38, 0
17, 49728, Note_on_c, 9, 38, 34
17, 49752, Note_on_c, 9, 38, 0
17, 49752, Note_on_c, 9, 38, 34
17, 49776, Note_on_c, 9, 38, 0
17, 49776, Note_on_c, 9, 38, 34
17, 49800, Note_on_c, 9, 38, 0
17, 49800, Note_on_c, 9, 38, 34
17, 49824, Note_on_c, 9, 38, 0
17, 49824, Note_on_c, 9, 38, 34
17, 49848, Note_on_c, 9, 38, 0
17, 49848, Note_on_c, 9, 38, 34
17, 49872, Note_on_c, 9, 38, 0
17, 49872, Note_on_c, 9, 38, 34
17, 49896, Note_on_c, 9, 38, 0
17, 49896, Note_on_c, 9, 38, 34
17, 49920, Note_on_c, 9, 38, 0
17, 49920, Note_on_c, 9, 38, 18
17, 50016, Note_on_c, 9, 38, 0
17, 50304, Note_on_c, 9, 38, 34
17, 50328, Note_on_c, 9, 38, 0
17, 50328, Note_on_c, 9, 38, 34
17, 50352, Note_on_c, 9, 38, 0
17, 50352, Note_on_c, 9, 38, 34
17, 50376, Note_on_c, 9, 38, 0
17, 50376, Note_on_c, 9, 38, 31
17, 50400, Note_on_c, 9, 38, 0
17, 50400, Note_on_c, 9, 38, 31
17, 50424, Note_on_c, 9, 38, 0
17, 50424, Note_on_c, 9, 38, 34
17, 50448, Note_on_c, 9, 38, 0
17, 50448, Note_on_c, 9, 38, 34
17, 50472, Note_on_c, 9, 38, 0
17, 50472, Note_on_c, 9, 38, 34
17, 50496, Note_on_c, 9, 38, 0
17, 50496, Note_on_c, 9, 38, 34
17, 50520, Note_on_c, 9, 38, 0
17, 50520, Note_on_c, 9, 38, 34
17, 50544, Note_on_c, 9, 38, 0
17, 50544, Note_on_c, 9, 38, 34
17, 50568, Note_on_c, 9, 38, 0
17, 50568, Note_on_c, 9, 38, 34
17, 50592, Note_on_c, 9, 38, 0
17, 50592, Note_on_c, 9, 38, 34
17, 50616, Note_on_c, 9, 38, 0
17, 50616, Note_on_c, 9, 38, 34
17, 50640, Note_on_c, 9, 38, 0
17, 50640, Note_on_c, 9, 38, 34
17, 50664, Note_on_c, 9, 38, 0
17, 50664, Note_on_c, 9, 38, 34
17, 50688, Note_on_c, 9, 38, 0
17, 50688, Note_on_c, 9, 38, 18
17, 50784, Note_on_c, 9, 38, 0
17, 51072, Note_on_c, 9, 38, 34
17, 51096, Note_on_c, 9, 38, 0
17, 51096, Note_on_c, 9, 38, 34
17, 51120, Note_on_c, 9, 38, 0
17, 51120, Note_on_c, 9, 38, 34
17, 51144, Note_on_c, 9, 38, 0
17, 51144, Note_on_c, 9, 38, 31
17, 51168, Note_on_c, 9, 38, 0
17, 51168, Note_on_c, 9, 38, 31
17, 51192, Note_on_c, 9, 38, 0
17, 51192, Note_on_c, 9, 38, 34
17, 51216, Note_on_c, 9, 38, 0
17, 51216, Note_on_c, 9, 38, 34
17, 51240, Note_on_c, 9, 38, 0
17, 51240, Note_on_c, 9, 38, 34
17, 51264, Note_on_c, 9, 38, 0
17, 51264, Note_on_c, 9, 38, 34
17, 51288, Note_on_c, 9, 38, 0
17, 51288, Note_on_c, 9, 38, 34
17, 51312, Note_on_c, 9, 38, 0
17, 51312, Note_on_c, 9, 38, 34
17, 51336, Note_on_c, 9, 38, 0
17, 51336, Note_on_c, 9, 38, 34
17, 51360, Note_on_c, 9, 38, 0
17, 51360, Note_on_c, 9, 38, 34
17, 51384, Note_on_c, 9, 38, 0
17, 51384, Note_on_c, 9, 38, 34
17, 51408, Note_on_c, 9, 38, 0
17, 51408, Note_on_c, 9, 38, 34
17, 51432, Note_on_c, 9, 38, 0
17, 51432, Note_on_c, 9, 38, 34
17, 51456, Note_on_c, 9, 38, 0
17, 51456, Note_on_c, 9, 38, 18
17, 51552, Note_on_c, 9, 38, 0
17, 51840, Note_on_c, 9, 38, 34
17, 51864, Note_on_c, 9, 38, 0
17, 51864, Note_on_c, 9, 38, 34
17, 51888, Note_on_c, 9, 38, 0
17, 51888, Note_on_c, 9, 38, 34
17, 51912, Note_on_c, 9, 38, 0
17, 51912, Note_on_c, 9, 38, 31
17, 51936, Note_on_c, 9, 38, 0
17, 51936, Note_on_c, 9, 38, 31
17, 51960, Note_on_c, 9, 38, 0
17, 51960, Note_on_c, 9, 38, 34
17, 51984, Note_on_c, 9, 38, 0
17, 51984, Note_on_c, 9, 38, 34
17, 52008, Note_on_c, 9, 38, 0
17, 52008, Note_on_c, 9, 38, 34
17, 52032, Note_on_c, 9, 38, 0
17, 52032, Note_on_c, 9, 38, 34
17, 52056, Note_on_c, 9, 38, 0
17, 52056, Note_on_c, 9, 38, 34
17, 52080, Note_on_c, 9, 38, 0
17, 52080, Note_on_c, 9, 38, 34
17, 52104, Note_on_c, 9, 38, 0
17, 52104, Note_on_c, 9, 38, 34
17, 52128, Note_on_c, 9, 38, 0
17, 52128, Note_on_c, 9, 38, 34
17, 52152, Note_on_c, 9, 38, 0
17, 52152, Note_on_c, 9, 38, 34
17, 52176, Note_on_c, 9, 38, 0
17, 52176, Note_on_c, 9, 38, 34
17, 52200, Note_on_c, 9, 38, 0
17, 52200, Note_on_c, 9, 38, 34
17, 52224, Note_on_c, 9, 38, 0
17, 52224, Note_on_c, 9, 38, 18
17, 52320, Note_on_c, 9, 38, 0
17, 52560, Note_on_c, 9, 38, 36
17, 52584, Note_on_c, 9, 38, 0
17, 52584, Note_on_c, 9, 38, 43
17, 52608, Note_on_c, 9, 38, 0
17, 52608, Note_on_c, 9, 38, 18
17, 52704, Note_on_c, 9, 38, 0
17, 52752, Note_on_c, 9, 38, 36
17, 52776, Note_on_c, 9, 38, 0
17, 52776, Note_on_c, 9, 38, 36
17, 52800, Note_on_c, 9, 38, 0
17, 52800, Note_on_c, 9, 38, 18
17, 52896, Note_on_c, 9, 38, 0
17, 53328, Note_on_c, 9, 38, 45
17, 53352, Note_on_c, 9, 38, 0
17, 53352, Note_on_c, 9, 38, 41
17, 53376, Note_on_c, 9, 38, 0
17, 53376, Note_on_c, 9, 38, 18
17, 53472, Note_on_c, 9, 38, 0
17, 53520, Note_on_c, 9, 38, 38
17, 53544, Note_on_c, 9, 38, 0
17, 53544, Note_on_c, 9, 38, 32
17, 53568, Note_on_c, 9, 38, 0
17, 53568, Note_on_c, 9, 38, 18
17, 53664, Note_on_c, 9, 38, 0
17, 53904, Note_on_c, 9, 38, 43
17, 53920, Note_on_c, 9, 38, 0
17, 53920, Note_on_c, 9, 38, 42
17, 53936, Note_on_c, 9, 38, 0
17, 53936, Note_on_c, 9, 38, 41
17, 53952, Note_on_c, 9, 38, 0
17, 53952, Note_on_c, 9, 38, 18
17, 54048, Note_on_c, 9, 38, 0
17, 54672, Note_on_c, 9, 38, 43
17, 54688, Note_on_c, 9, 38, 0
17, 54688, Note_on_c, 9, 38, 38
17, 54704, Note_on_c, 9, 38, 0
17, 54704, Note_on_c, 9, 38, 41
17, 54720, Note_on_c, 9, 38, 0
17, 54720, Note_on_c, 9, 38, 18
17, 54816, Note_on_c, 9, 38, 0
17, 79872, Note_on_c, 9, 38, 24
17, 79896, Note_on_c, 9, 38, 0
17, 79896, Note_on_c, 9, 38, 11
17, 79920, Note_on_c, 9, 38, 0
17, 79920, Note_on_c, 9, 38, 11
17, 79944, Note_on_c, 9, 38, 0
17, 79944, Note_on_c, 9, 38, 11
17, 79968, Note_on_c, 9, 38, 0
17, 79968, Note_on_c, 9, 38, 11
17, 79992, Note_on_c, 9, 38, 0
17, 79992, Note_on_c, 9, 38, 11
17, 80016, Note_on_c, 9, 38, 0
17, 80016, Note_on_c, 9, 38, 13
17, 80040, Note_on_c, 9, 38, 0
17, 80040, Note_on_c, 9, 38, 13
17, 80064, Note_on_c, 9, 38, 0
17, 80064, Note_on_c, 9, 38, 13
17, 80088, Note_on_c, 9, 38, 0
17, 80088, Note_on_c, 9, 38, 13
17, 80112, Note_on_c, 9, 38, 0
17, 80112, Note_on_c, 9, 38, 13
17, 80136, Note_on_c, 9, 38, 0
17, 80136, Note_on_c, 9, 38, 13
17, 80160, Note_on_c, 9, 38, 0
17, 80160, Note_on_c, 9, 38, 14
17, 80184, Note_on_c, 9, 38, 0
17, 80184, Note_on_c, 9, 38, 14
17, 80208, Note_on_c, 9, 38, 0
17, 80208, Note_on_c, 9, 38, 14
17, 80232, Note_on_c, 9, 38, 0
17, 80232, Note_on_c, 9, 38, 14
17, 80256, Note_on_c, 9, 38, 0
17, 80256, Note_on_c, 9, 38, 14
17, 80280, Note_on_c, 9, 38, 0
17, 80280, Note_on_c, 9, 38, 14
17, 80304, Note_on_c, 9, 38, 0
17, 80304, Note_on_c, 9, 38, 18
17, 80328, Note_on_c, 9, 38, 0
17, 80328, Note_on_c, 9, 38, 18
17, 80352, Note_on_c, 9, 38, 0
17, 80352, Note_on_c, 9, 38, 18
17, 80376, Note_on_c, 9, 38, 0
17, 80376, Note_on_c, 9, 38, 18
17, 80400, Note_on_c, 9, 38, 0
17, 80400, Note_on_c, 9, 38, 18
17, 80424, Note_on_c, 9, 38, 0
17, 80424, Note_on_c, 9, 38, 18
17, 80448, Note_on_c, 9, 38, 0
17, 80448, Note_on_c, 9, 38, 18
17, 80472, Note_on_c, 9, 38, 0
17, 80472, Note_on_c, 9, 38, 18
17, 80496, Note_on_c, 9, 38, 0
17, 80496, Note_on_c, 9, 38, 18
17, 80520, Note_on_c, 9, 38, 0
17, 80520, Note_on_c, 9, 38, 20
17, 80544, Note_on_c, 9, 38, 0
17, 80544, Note_on_c, 9, 38, 20
17, 80568, Note_on_c, 9, 38, 0
17, 80568, Note_on_c, 9, 38, 20
17, 80592, Note_on_c, 9, 38, 0
17, 80592, Note_on_c, 9, 38, 20
17, 80616, Note_on_c, 9, 38, 0
17, 80616, Note_on_c, 9, 38, 20
17, 80640, Note_on_c, 9, 38, 0
17, 80640, Note_on_c, 9, 38, 24
17, 80664, Note_on_c, 9, 38, 0
17, 80664, Note_on_c, 9, 38, 24
17, 80688, Note_on_c, 9, 38, 0
17, 80688, Note_on_c, 9, 38, 24
17, 80712, Note_on_c, 9, 38, 0
17, 80712, Note_on_c, 9, 38, 24
17, 80736, Note_on_c, 9, 38, 0
17, 80736, Note_on_c, 9, 38, 26
17, 80760, Note_on_c, 9, 38, 0
17, 80760, Note_on_c, 9, 38, 26
17, 80784, Note_on_c, 9, 38, 0
17, 80784, Note_on_c, 9, 38, 26
17, 80808, Note_on_c, 9, 38, 0
17, 80808, Note_on_c, 9, 38, 26
17, 80832, Note_on_c, 9, 38, 0
17, 80832, Note_on_c, 9, 38, 27
17, 80856, Note_on_c, 9, 38, 0
17, 80856, Note_on_c, 9, 38, 29
17, 80880, Note_on_c, 9, 38, 0
17, 80880, Note_on_c, 9, 38, 29
17, 80904, Note_on_c, 9, 38, 0
17, 80904, Note_on_c, 9, 38, 29
17, 80928, Note_on_c, 9, 38, 0
17, 80928, Note_on_c, 9, 38, 31
17, 80952, Note_on_c, 9, 38, 0
17, 80952, Note_on_c, 9, 38, 33
17, 80976, Note_on_c, 9, 38, 0
17, 80976, Note_on_c, 9, 38, 33
17, 81000, Note_on_c, 9, 38, 0
17, 81000, Note_on_c, 9, 38, 35
17, 81024, Note_on_c, 9, 38, 0
17, 81024, Note_on_c, 9, 38, 36
17, 81048, Note_on_c, 9, 38, 0
17, 81048, Note_on_c, 9, 38, 36
17, 81072, Note_on_c, 9, 38, 0
17, 81072, Note_on_c, 9, 38, 38
17, 81096, Note_on_c, 9, 38, 0
17, 81096, Note_on_c, 9, 38, 40
17, 81120, Note_on_c, 9, 38, 0
17, 81120, Note_on_c, 9, 38, 40
17, 81144, Note_on_c, 9, 38, 0
17, 81144, Note_on_c, 9, 38, 42
17, 81168, Note_on_c, 9, 38, 0
17, 81168, Note_on_c, 9, 38, 44
17, 81192, Note_on_c, 9, 38, 0
17, 81192, Note_on_c, 9, 38, 46
17, 81216, Note_on_c, 9, 38, 0
17, 81216, Note_on_c, 9, 38, 46
17, 81240, Note_on_c, 9, 38, 0
17, 81240, Note_on_c, 9, 38, 51
17, 81264, Note_on_c, 9, 38, 0
17, 81264, Note_on_c, 9, 38, 51
17, 81288, Note_on_c, 9, 38, 0
17, 81288, Note_on_c, 9, 38, 51
17, 81312, Note_on_c, 9, 38, 0
17, 81312, Note_on_c, 9, 38, 51
17, 81336, Note_on_c, 9, 38, 0
17, 81336, Note_on_c, 9, 38, 51
17, 81360, Note_on_c, 9, 38, 0
17, 81360, Note_on_c, 9, 38, 51
17, 81384, Note_on_c, 9, 38, 0
17, 81384, Note_on_c, 9, 38, 51
17, 81408, Note_on_c, 9, 38, 0
17, 81408, Note_on_c, 9, 38, 49
17, 81432, Note_on_c, 9, 38, 0
17, 81432, Note_on_c, 9, 38, 49
17, 81456, Note_on_c, 9, 38, 0
17, 81456, Note_on_c, 9, 38, 49
17, 81480, Note_on_c, 9, 38, 0
17, 81480, Note_on_c, 9, 38, 49
17, 81504, Note_on_c, 9, 38, 0
17, 81504, Note_on_c, 9, 38, 49
17, 81528, Note_on_c, 9, 38, 0
17, 81528, Note_on_c, 9, 38, 49
17, 81552, Note_on_c, 9, 38, 0
17, 81552, Note_on_c, 9, 38, 49
17, 81576, Note_on_c, 9, 38, 0
17, 81576, Note_on_c, 9, 38, 49
17, 81600, Note_on_c, 9, 38, 0
17, 81600, Note_on_c, 9, 38, 40
17, 81624, Note_on_c, 9, 38, 0
17, 81624, Note_on_c, 9, 38, 40
17, 81648, Note_on_c, 9, 38, 0
17, 81648, Note_on_c, 9, 38, 40
17, 81672, Note_on_c, 9, 38, 0
17, 81672, Note_on_c, 9, 38, 40
17, 81696, Note_on_c, 9, 38, 0
17, 81696, Note_on_c, 9, 38, 40
17, 81720, Note_on_c, 9, 38, 0
17, 81720, Note_on_c, 9, 38, 40
17, 81744, Note_on_c, 9, 38, 0
17, 81744, Note_on_c, 9, 38, 40
17, 81768, Note_on_c, 9, 38, 0
17, 81768, Note_on_c, 9, 38, 40
17, 81792, Note_on_c, 9, 38, 0
17, 81792, Note_on_c, 9, 38, 33
17, 81816, Note_on_c, 9, 38, 0
17, 81816, Note_on_c, 9, 38, 33
17, 81840, Note_on_c, 9, 38, 0
17, 81840, Note_on_c, 9, 38, 33
17, 81864, Note_on_c, 9, 38, 0
17, 81864, Note_on_c, 9, 38, 33
17, 81888, Note_on_c, 9, 38, 0
17, 81888, Note_on_c, 9, 38, 33
17, 81912, Note_on_c, 9, 38, 0
17, 81912, Note_on_c, 9, 38, 33
17, 81936, Note_on_c, 9, 38, 0
17, 81936, Note_on_c, 9, 38, 33
17, 81960, Note_on_c, 9, 38, 0
17, 81960, Note_on_c, 9, 38, 33
17, 81984, Note_on_c, 9, 38, 0
17, 81984, Note_on_c, 9, 38, 33
17, 82008, Note_on_c, 9, 38, 0
17, 82008, Note_on_c, 9, 38, 33
17, 82032, Note_on_c, 9, 38, 0
17, 82032, Note_on_c, 9, 38, 24
17, 82056, Note_on_c, 9, 38, 0
17, 82056, Note_on_c, 9, 38, 24
17, 82080, Note_on_c, 9, 38, 0
17, 82080, Note_on_c, 9, 38, 24
17, 82104, Note_on_c, 9, 38, 0
17, 82104, Note_on_c, 9, 38, 24
17, 82128, Note_on_c, 9, 38, 0
17, 82128, Note_on_c, 9, 38, 24
17, 82152, Note_on_c, 9, 38, 0
17, 82152, Note_on_c, 9, 38, 24
17, 82176, Note_on_c, 9, 38, 0
17, 82176, Note_on_c, 9, 38, 24
17, 82200, Note_on_c, 9, 38, 0
17, 82200, Note_on_c, 9, 38, 24
17, 82224, Note_on_c, 9, 38, 0
17, 82224, Note_on_c, 9, 38, 24
17, 82248, Note_on_c, 9, 38, 0
17, 82248, Note_on_c, 9, 38, 24
17, 82272, Note_on_c, 9, 38, 0
17, 82272, Note_on_c, 9, 38, 24
17, 82296, Note_on_c, 9, 38, 0
17, 82296, Note_on_c, 9, 38, 24
17, 82320, Note_on_c, 9, 38, 0
17, 82320, Note_on_c, 9, 38, 24
17, 82344, Note_on_c, 9, 38, 0
17, 82344, Note_on_c, 9, 38, 24
17, 82368, Note_on_c, 9, 38, 0
17, 82368, Note_on_c, 9, 38, 22
17, 82392, Note_on_c, 9, 38, 0
17, 82392, Note_on_c, 9, 38, 22
17, 82416, Note_on_c, 9, 38, 0
17, 82416, Note_on_c, 9, 38, 22
17, 82440, Note_on_c, 9, 38, 0
17, 82440, Note_on_c, 9, 38, 22
17, 82464, Note_on_c, 9, 38, 0
17, 82464, Note_on_c, 9, 38, 22
17, 82488, Note_on_c, 9, 38, 0
17, 82488, Note_on_c, 9, 38, 20
17, 82512, Note_on_c, 9, 38, 0
17, 82512, Note_on_c, 9, 38, 20
17, 82536, Note_on_c, 9, 38, 0
17, 82536, Note_on_c, 9, 38, 18
17, 82560, Note_on_c, 9, 38, 0
17, 82584, Note_on_c, 9, 38, 13
17, 82680, Note_on_c, 9, 38, 0
17, 86016, Note_on_c, 9, 38, 24
17, 86040, Note_on_c, 9, 38, 0
17, 86040, Note_on_c, 9, 38, 11
17, 86064, Note_on_c, 9, 38, 0
17, 86064, Note_on_c, 9, 38, 11
17, 86088, Note_on_c, 9, 38, 0
17, 86088, Note_on_c, 9, 38, 11
17, 86112, Note_on_c, 9, 38, 0
17, 86112, Note_on_c, 9, 38, 11
17, 86136, Note_on_c, 9, 38, 0
17, 86136, Note_on_c, 9, 38, 11
17, 86160, Note_on_c, 9, 38, 0
17, 86160, Note_on_c, 9, 38, 13
17, 86184, Note_on_c, 9, 38, 0
17, 86184, Note_on_c, 9, 38, 13
17, 86208, Note_on_c, 9, 38, 0
17, 86208, Note_on_c, 9, 38, 13
17, 86232, Note_on_c, 9, 38, 0
17, 86232, Note_on_c, 9, 38, 13
17, 86256, Note_on_c, 9, 38, 0
17, 86256, Note_on_c, 9, 38, 13
17, 86280, Note_on_c, 9, 38, 0
17, 86280, Note_on_c, 9, 38, 13
17, 86304, Note_on_c, 9, 38, 0
17, 86304, Note_on_c, 9, 38, 14
17, 86328, Note_on_c, 9, 38, 0
17, 86328, Note_on_c, 9, 38, 14
17, 86352, Note_on_c, 9, 38, 0
17, 86352, Note_on_c, 9, 38, 14
17, 86376, Note_on_c, 9, 38, 0
17, 86376, Note_on_c, 9, 38, 14
17, 86400, Note_on_c, 9, 38, 0
17, 86400, Note_on_c, 9, 38, 14
17, 86424, Note_on_c, 9, 38, 0
17, 86424, Note_on_c, 9, 38, 14
17, 86448, Note_on_c, 9, 38, 0
17, 86448, Note_on_c, 9, 38, 18
17, 86472, Note_on_c, 9, 38, 0
17, 86472, Note_on_c, 9, 38, 18
17, 86496, Note_on_c, 9, 38, 0
17, 86496, Note_on_c, 9, 38, 18
17, 86520, Note_on_c, 9, 38, 0
17, 86520, Note_on_c, 9, 38, 18
17, 86544, Note_on_c, 9, 38, 0
17, 86544, Note_on_c, 9, 38, 18
17, 86568, Note_on_c, 9, 38, 0
17, 86568, Note_on_c, 9, 38, 18
17, 86592, Note_on_c, 9, 38, 0
17, 86592, Note_on_c, 9, 38, 18
17, 86616, Note_on_c, 9, 38, 0
17, 86616, Note_on_c, 9, 38, 18
17, 86640, Note_on_c, 9, 38, 0
17, 86640, Note_on_c, 9, 38, 18
17, 86664, Note_on_c, 9, 38, 0
17, 86664, Note_on_c, 9, 38, 20
17, 86688, Note_on_c, 9, 38, 0
17, 86688, Note_on_c, 9, 38, 20
17, 86712, Note_on_c, 9, 38, 0
17, 86712, Note_on_c, 9, 38, 20
17, 86736, Note_on_c, 9, 38, 0
17, 86736, Note_on_c, 9, 38, 20
17, 86760, Note_on_c, 9, 38, 0
17, 86760, Note_on_c, 9, 38, 20
17, 86784, Note_on_c, 9, 38, 0
17, 86784, Note_on_c, 9, 38, 24
17, 86808, Note_on_c, 9, 38, 0
17, 86808, Note_on_c, 9, 38, 24
17, 86832, Note_on_c, 9, 38, 0
17, 86832, Note_on_c, 9, 38, 24
17, 86856, Note_on_c, 9, 38, 0
17, 86856, Note_on_c, 9, 38, 24
17, 86880, Note_on_c, 9, 38, 0
17, 86880, Note_on_c, 9, 38, 26
17, 86904, Note_on_c, 9, 38, 0
17, 86904, Note_on_c, 9, 38, 26
17, 86928, Note_on_c, 9, 38, 0
17, 86928, Note_on_c, 9, 38, 26
17, 86952, Note_on_c, 9, 38, 0
17, 86952, Note_on_c, 9, 38, 26
17, 86976, Note_on_c, 9, 38, 0
17, 86976, Note_on_c, 9, 38, 27
17, 87000, Note_on_c, 9, 38, 0
17, 87000, Note_on_c, 9, 38, 29
17, 87024, Note_on_c, 9, 38, 0
17, 87024, Note_on_c, 9, 38, 29
17, 87048, Note_on_c, 9, 38, 0
17, 87048, Note_on_c, 9, 38, 29
17, 87072, Note_on_c, 9, 38, 0
17, 87072, Note_on_c, 9, 38, 31
17, 87096, Note_on_c, 9, 38, 0
17, 87096, Note_on_c, 9, 38, 33
17, 87120, Note_on_c, 9, 38, 0
17, 87120, Note_on_c, 9, 38, 33
17, 87144, Note_on_c, 9, 38, 0
17, 87144, Note_on_c, 9, 38, 35
17, 87168, Note_on_c, 9, 38, 0
17, 87168, Note_on_c, 9, 38, 36
17, 87192, Note_on_c, 9, 38, 0
17, 87192, Note_on_c, 9, 38, 36
17, 87216, Note_on_c, 9, 38, 0
17, 87216, Note_on_c, 9, 38, 38
17, 87240, Note_on_c, 9, 38, 0
17, 87240, Note_on_c, 9, 38, 40
17, 87264, Note_on_c, 9, 38, 0
17, 87264, Note_on_c, 9, 38, 40
17, 87288, Note_on_c, 9, 38, 0
17, 87288, Note_on_c, 9, 38, 42
17, 87312, Note_on_c, 9, 38, 0
17, 87312, Note_on_c, 9, 38, 44
17, 87336, Note_on_c, 9, 38, 0
17, 87336, Note_on_c, 9, 38, 46
17, 87360, Note_on_c, 9, 38, 0
17, 87360, Note_on_c, 9, 38, 46
17, 87384, Note_on_c, 9, 38, 0
17, 87384, Note_on_c, 9, 38, 51
17, 87408, Note_on_c, 9, 38, 0
17, 87408, Note_on_c, 9, 38, 51
17, 87432, Note_on_c, 9, 38, 0
17, 87432, Note_on_c, 9, 38, 51
17, 87456, Note_on_c, 9, 38, 0
17, 87456, Note_on_c, 9, 38, 51
17, 87480, Note_on_c, 9, 38, 0
17, 87480, Note_on_c, 9, 38, 51
17, 87504, Note_on_c, 9, 38, 0
17, 87504, Note_on_c, 9, 38, 51
17, 87528, Note_on_c, 9, 38, 0
17, 87528, Note_on_c, 9, 38, 51
17, 87552, Note_on_c, 9, 38, 0
17, 87552, Note_on_c, 9, 38, 49
17, 87576, Note_on_c, 9, 38, 0
17, 87576, Note_on_c, 9, 38, 49
17, 87600, Note_on_c, 9, 38, 0
17, 87600, Note_on_c, 9, 38, 49
17, 87624, Note_on_c, 9, 38, 0
17, 87624, Note_on_c, 9, 38, 49
17, 87648, Note_on_c, 9, 38, 0
17, 87648, Note_on_c, 9, 38, 49
17, 87672, Note_on_c, 9, 38, 0
17, 87672, Note_on_c, 9, 38, 49
17, 87696, Note_on_c, 9, 38, 0
17, 87696, Note_on_c, 9, 38, 49
17, 87720, Note_on_c, 9, 38, 0
17, 87720, Note_on_c, 9, 38, 49
17, 87744, Note_on_c, 9, 38, 0
17, 87744, Note_on_c, 9, 38, 40
17, 87768, Note_on_c, 9, 38, 0
17, 87768, Note_on_c, 9, 38, 40
17, 87792, Note_on_c, 9, 38, 0
17, 87792, Note_on_c, 9, 38, 40
17, 87816, Note_on_c, 9, 38, 0
17, 87816, Note_on_c, 9, 38, 40
17, 87840, Note_on_c, 9, 38, 0
17, 87840, Note_on_c, 9, 38, 40
17, 87864, Note_on_c, 9, 38, 0
17, 87864, Note_on_c, 9, 38, 40
17, 87888, Note_on_c, 9, 38, 0
17, 87888, Note_on_c, 9, 38, 40
17, 87912, Note_on_c, 9, 38, 0
17, 87912, Note_on_c, 9, 38, 40
17, 87936, Note_on_c, 9, 38, 0
17, 87936, Note_on_c, 9, 38, 33
17, 87960, Note_on_c, 9, 38, 0
17, 87960, Note_on_c, 9, 38, 33
17, 87984, Note_on_c, 9, 38, 0
17, 87984, Note_on_c, 9, 38, 33
17, 88008, Note_on_c, 9, 38, 0
17, 88008, Note_on_c, 9, 38, 33
17, 88032, Note_on_c, 9, 38, 0
17, 88032, Note_on_c, 9, 38, 33
17, 88056, Note_on_c, 9, 38, 0
17, 88056, Note_on_c, 9, 38, 33
17, 88080, Note_on_c, 9, 38, 0
17, 88080, Note_on_c, 9, 38, 33
17, 88104, Note_on_c, 9, 38, 0
17, 88104, Note_on_c, 9, 38, 33
17, 88128, Note_on_c, 9, 38, 0
17, 88128, Note_on_c, 9, 38, 33
17, 88152, Note_on_c, 9, 38, 0
17, 88152, Note_on_c, 9, 38, 33
17, 88176, Note_on_c, 9, 38, 0
17, 88176, Note_on_c, 9, 38, 24
17, 88200, Note_on_c, 9, 38, 0
17, 88200, Note_on_c, 9, 38, 24
17, 88224, Note_on_c, 9, 38, 0
17, 88224, Note_on_c, 9, 38, 24
17, 88248, Note_on_c, 9, 38, 0
17, 88248, Note_on_c, 9, 38, 24
17, 88272, Note_on_c, 9, 38, 0
17, 88272, Note_on_c, 9, 38, 24
17, 88296, Note_on_c, 9, 38, 0
17, 88296, Note_on_c, 9, 38, 24
17, 88320, Note_on_c, 9, 38, 0
17, 88320, Note_on_c, 9, 38, 24
17, 88344, Note_on_c, 9, 38, 0
17, 88344, Note_on_c, 9, 38, 24
17, 88368, Note_on_c, 9, 38, 0
17, 88368, Note_on_c, 9, 38, 24
17, 88392, Note_on_c, 9, 38, 0
17, 88392, Note_on_c, 9, 38, 24
17, 88416, Note_on_c, 9, 38, 0
17, 88416, Note_on_c, 9, 38, 24
17, 88440, Note_on_c, 9, 38, 0
17, 88440, Note_on_c, 9, 38, 24
17, 88464, Note_on_c, 9, 38, 0
17, 88464, Note_on_c, 9, 38, 24
17, 88488, Note_on_c, 9, 38, 0
17, 88488, Note_on_c, 9, 38, 24
17, 88512, Note_on_c, 9, 38, 0
17, 88512, Note_on_c, 9, 38, 22
17, 88536, Note_on_c, 9, 38, 0
17, 88536, Note_on_c, 9, 38, 22
17, 88560, Note_on_c, 9, 38, 0
17, 88560, Note_on_c, 9, 38, 22
17, 88584, Note_on_c, 9, 38, 0
17, 88584, Note_on_c, 9, 38, 22
17, 88608, Note_on_c, 9, 38, 0
17, 88608, Note_on_c, 9, 38, 22
17, 88632, Note_on_c, 9, 38, 0
17, 88632, Note_on_c, 9, 38, 20
17, 88656, Note_on_c, 9, 38, 0
17, 88656, Note_on_c, 9, 38, 20
17, 88680, Note_on_c, 9, 38, 0
17, 88680, Note_on_c, 9, 38, 18
17, 88704, Note_on_c, 9, 38, 0
17, 88728, Note_on_c, 9, 38, 13
17, 88824, Note_on_c, 9, 38, 0
17, 143616, Note_on_c, 9, 38, 2
17, 143712, Note_on_c, 9, 38, 0
17, 143808, Note_on_c, 9, 38, 2
17, 143904, Note_on_c, 9, 38, 0
17, 143904, Note_on_c, 9, 38, 2
17, 144000, Note_on_c, 9, 38, 0
17, 144000, Note_on_c, 9, 38, 2
17, 144096, Note_on_c, 9, 38, 0
17, 144192, Note_on_c, 9, 38, 2
17, 144288, Note_on_c, 9, 38, 0
17, 144384, Note_on_c, 9, 38, 2
17, 144480, Note_on_c, 9, 38, 0
17, 144576, Note_on_c, 9, 38, 2
17, 144672, Note_on_c, 9, 38, 0
17, 144672, Note_on_c, 9, 38, 2
17, 144768, Note_on_c, 9, 38, 0
17, 144768, Note_on_c, 9, 38, 2
17, 144864, Note_on_c, 9, 38, 0
17, 144960, Note_on_c, 9, 38, 2
17, 145056, Note_on_c, 9, 38, 0
17, 145152, Note_on_c, 9, 38, 2
17, 145248, Note_on_c, 9, 38, 0
17, 145344, Note_on_c, 9, 38, 2
17, 145440, Note_on_c, 9, 38, 0
17, 145440, Note_on_c, 9, 38, 2
17, 145536, Note_on_c, 9, 38, 0
17, 145536, Note_on_c, 9, 38, 2
17, 145632, Note_on_c, 9, 38, 0
17, 145728, Note_on_c, 9, 38, 2
17, 145824, Note_on_c, 9, 38, 0
17, 145920, Note_on_c, 9, 38, 2
17, 146016, Note_on_c, 9, 38, 0
17, 146112, Note_on_c, 9, 38, 2
17, 146208, Note_on_c, 9, 38, 0
17, 146208, Note_on_c, 9, 38, 2
17, 146304, Note_on_c, 9, 38, 0
17, 146304, Note_on_c, 9, 38, 2
17, 146400, Note_on_c, 9, 38, 0
17, 146496, Note_on_c, 9, 38, 2
17, 146592, Note_on_c, 9, 38, 0
17, 146688, Note_on_c, 9, 38, 2
17, 146784, Note_on_c, 9, 38, 0
17, 146880, Note_on_c, 9, 38, 2
17, 146976, Note_on_c, 9, 38, 0
17, 146976, Note_on_c, 9, 38, 2
17, 147072, Note_on_c, 9, 38, 0
17, 147072, Note_on_c, 9, 38, 2
17, 147168, Note_on_c, 9, 38, 0
17, 147264, Note_on_c, 9, 38, 2
17, 147360, Note_on_c, 9, 38, 0
17, 147456, Note_on_c, 9, 38, 2
17, 147552, Note_on_c, 9, 38, 0
17, 147648, Note_on_c, 9, 38, 2
17, 147744, Note_on_c, 9, 38, 0
17, 147744, Note_on_c, 9, 38, 2
17, 147840, Note_on_c, 9, 38, 0
17, 147840, Note_on_c, 9, 38, 2
17, 147936, Note_on_c, 9, 38, 0
17, 148032, Note_on_c, 9, 38, 2
17, 148128, Note_on_c, 9, 38, 0
17, 148224, Note_on_c, 9, 38, 2
17, 148320, Note_on_c, 9, 38, 0
17, 148416, Note_on_c, 9, 38, 2
17, 148512, Note_on_c, 9, 38, 0
17, 148512, Note_on_c, 9, 38, 2
17, 148608, Note_on_c, 9, 38, 0
17, 148608, Note_on_c, 9, 38, 2
17, 148704, Note_on_c, 9, 38, 0
17, 148800, Note_on_c, 9, 38, 2
17, 148896, Note_on_c, 9, 38, 0
17, 148992, Note_on_c, 9, 38, 2
17, 149088, Note_on_c, 9, 38, 0
17, 149184, Note_on_c, 9, 38, 2
17, 149280, Note_on_c, 9, 38, 0
17, 149280, Note_on_c, 9, 38, 2
17, 149376, Note_on_c, 9, 38, 0
17, 149376, Note_on_c, 9, 38, 2
17, 149472, Note_on_c, 9, 38, 0
17, 149568, Note_on_c, 9, 38, 2
17, 149664, Note_on_c, 9, 38, 0
17, 149760, Note_on_c, 9, 38, 2
17, 149856, Note_on_c, 9, 38, 0
17, 159744, Note_on_c, 9, 38, 14
17, 159768, Note_on_c, 9, 38, 0
17, 159768, Note_on_c, 9, 38, 14
17, 159792, Note_on_c, 9, 38, 0
17, 159792, Note_on_c, 9, 38, 14
17, 159816, Note_on_c, 9, 38, 0
17, 159816, Note_on_c, 9, 38, 14
17, 159840, Note_on_c, 9, 38, 0
17, 159840, Note_on_c, 9, 38, 14
17, 159864, Note_on_c, 9, 38, 0
17, 159864, Note_on_c, 9, 38, 14
17, 159888, Note_on_c, 9, 38, 0
17, 159888, Note_on_c, 9, 38, 14
17, 159912, Note_on_c, 9, 38, 0
17, 159912, Note_on_c, 9, 38, 17
17, 159936, Note_on_c, 9, 38, 0
17, 159936, Note_on_c, 9, 38, 17
17, 159960, Note_on_c, 9, 38, 0
17, 159960, Note_on_c, 9, 38, 17
17, 159984, Note_on_c, 9, 38, 0
17, 159984, Note_on_c, 9, 38, 17
17, 160008, Note_on_c, 9, 38, 0
17, 160008, Note_on_c, 9, 38, 17
17, 160032, Note_on_c, 9, 38, 0
17, 160032, Note_on_c, 9, 38, 17
17, 160056, Note_on_c, 9, 38, 0
17, 160056, Note_on_c, 9, 38, 17
17, 160080, Note_on_c, 9, 38, 0
17, 160080, Note_on_c, 9, 38, 17
17, 160104, Note_on_c, 9, 38, 0
17, 160104, Note_on_c, 9, 38, 17
17, 160128, Note_on_c, 9, 38, 0
17, 160128, Note_on_c, 9, 38, 17
17, 160152, Note_on_c, 9, 38, 0
17, 160152, Note_on_c, 9, 38, 17
17, 160176, Note_on_c, 9, 38, 0
17, 160176, Note_on_c, 9, 38, 17
17, 160200, Note_on_c, 9, 38, 0
17, 160200, Note_on_c, 9, 38, 17
17, 160224, Note_on_c, 9, 38, 0
17, 160224, Note_on_c, 9, 38, 17
17, 160248, Note_on_c, 9, 38, 0
17, 160248, Note_on_c, 9, 38, 18
17, 160272, Note_on_c, 9, 38, 0
17, 160272, Note_on_c, 9, 38, 20
17, 160296, Note_on_c, 9, 38, 0
17, 160296, Note_on_c, 9, 38, 20
17, 160320, Note_on_c, 9, 38, 0
17, 160320, Note_on_c, 9, 38, 22
17, 160344, Note_on_c, 9, 38, 0
17, 160344, Note_on_c, 9, 38, 24
17, 160368, Note_on_c, 9, 38, 0
17, 160368, Note_on_c, 9, 38, 26
17, 160392, Note_on_c, 9, 38, 0
17, 160392, Note_on_c, 9, 38, 26
17, 160416, Note_on_c, 9, 38, 0
17, 160416, Note_on_c, 9, 38, 27
17, 160440, Note_on_c, 9, 38, 0
17, 160440, Note_on_c, 9, 38, 27
17, 160464, Note_on_c, 9, 38, 0
17, 160464, Note_on_c, 9, 38, 29
17, 160488, Note_on_c, 9, 38, 0
17, 160488, Note_on_c, 9, 38, 29
17, 160512, Note_on_c, 9, 38, 0
17, 160512, Note_on_c, 9, 38, 29
17, 160536, Note_on_c, 9, 38, 0
17, 160536, Note_on_c, 9, 38, 29
17, 160560, Note_on_c, 9, 38, 0
17, 160560, Note_on_c, 9, 38, 29
17, 160584, Note_on_c, 9, 38, 0
17, 160584, Note_on_c, 9, 38, 29
17, 160608, Note_on_c, 9, 38, 0
17, 160608, Note_on_c, 9, 38, 29
17, 160632, Note_on_c, 9, 38, 0
17, 160632, Note_on_c, 9, 38, 27
17, 160656, Note_on_c, 9, 38, 0
17, 160656, Note_on_c, 9, 38, 27
17, 160680, Note_on_c, 9, 38, 0
17, 160680, Note_on_c, 9, 38, 27
17, 160704, Note_on_c, 9, 38, 0
17, 160704, Note_on_c, 9, 38, 27
17, 160728, Note_on_c, 9, 38, 0
17, 160728, Note_on_c, 9, 38, 26
17, 160752, Note_on_c, 9, 38, 0
17, 160752, Note_on_c, 9, 38, 26
17, 160776, Note_on_c, 9, 38, 0
17, 160776, Note_on_c, 9, 38, 24
17, 160800, Note_on_c, 9, 38, 0
17, 160800, Note_on_c, 9, 38, 24
17, 160824, Note_on_c, 9, 38, 0
17, 160824, Note_on_c, 9, 38, 22
17, 160848, Note_on_c, 9, 38, 0
17, 160848, Note_on_c, 9, 38, 22
17, 160872, Note_on_c, 9, 38, 0
17, 160872, Note_on_c, 9, 38, 20
17, 160896, Note_on_c, 9, 38, 0
17, 160896, Note_on_c, 9, 38, 20
17, 160920, Note_on_c, 9, 38, 0
17, 160920, Note_on_c, 9, 38, 20
17, 160944, Note_on_c, 9, 38, 0
17, 160944, Note_on_c, 9, 38, 18
17, 160968, Note_on_c, 9, 38, 0
17, 160968, Note_on_c, 9, 38, 18
17, 160992, Note_on_c, 9, 38, 0
17, 160992, Note_on_c, 9, 38, 18
17, 161016, Note_on_c, 9, 38, 0
17, 161016, Note_on_c, 9, 38, 17
17, 161040, Note_on_c, 9, 38, 0
17, 161040, Note_on_c, 9, 38, 17
17, 161064, Note_on_c, 9, 38, 0
17, 161064, Note_on_c, 9, 38, 17
17, 161088, Note_on_c, 9, 38, 0
17, 161088, Note_on_c, 9, 38, 17
17, 161112, Note_on_c, 9, 38, 0
17, 161112, Note_on_c, 9, 38, 14
17, 161136, Note_on_c, 9, 38, 0
17, 161136, Note_on_c, 9, 38, 14
17, 161160, Note_on_c, 9, 38, 0
17, 161160, Note_on_c, 9, 38, 14
17, 161184, Note_on_c, 9, 38, 0
17, 161184, Note_on_c, 9, 38, 14
17, 161208, Note_on_c, 9, 38, 0
17, 161208, Note_on_c, 9, 38, 14
17, 161232, Note_on_c, 9, 38, 0
17, 161232, Note_on_c, 9, 38, 14
17, 161256, Note_on_c, 9, 38, 0
17, 161256, Note_on_c, 9, 38, 14
17, 161280, Note_on_c, 9, 38, 0
17, 161280, Note_on_c, 9, 38, 2
17, 161376, Note_on_c, 9, 38, 0
17, 165120, Note_on_c, 9, 38, 14
17, 165144, Note_on_c, 9, 38, 0
17, 165144, Note_on_c, 9, 38, 14
17, 165168, Note_on_c, 9, 38, 0
17, 165168, Note_on_c, 9, 38, 14
17, 165192, Note_on_c, 9, 38, 0
17, 165192, Note_on_c, 9, 38, 14
17, 165216, Note_on_c, 9, 38, 0
17, 165216, Note_on_c, 9, 38, 14
17, 165240, Note_on_c, 9, 38, 0
17, 165240, Note_on_c, 9, 38, 14
17, 165264, Note_on_c, 9, 38, 0
17, 165264, Note_on_c, 9, 38, 14
17, 165288, Note_on_c, 9, 38, 0
17, 165288, Note_on_c, 9, 38, 17
17, 165312, Note_on_c, 9, 38, 0
17, 165312, Note_on_c, 9, 38, 17
17, 165336, Note_on_c, 9, 38, 0
17, 165336, Note_on_c, 9, 38, 17
17, 165360, Note_on_c, 9, 38, 0
17, 165360, Note_on_c, 9, 38, 17
17, 165384, Note_on_c, 9, 38, 0
17, 165384, Note_on_c, 9, 38, 17
17, 165408, Note_on_c, 9, 38, 0
17, 165408, Note_on_c, 9, 38, 17
17, 165432, Note_on_c, 9, 38, 0
17, 165432, Note_on_c, 9, 38, 17
17, 165456, Note_on_c, 9, 38, 0
17, 165456, Note_on_c, 9, 38, 17
17, 165480, Note_on_c, 9, 38, 0
17, 165480, Note_on_c, 9, 38, 17
17, 165504, Note_on_c, 9, 38, 0
17, 165504, Note_on_c, 9, 38, 17
17, 165528, Note_on_c, 9, 38, 0
17, 165528, Note_on_c, 9, 38, 17
17, 165552, Note_on_c, 9, 38, 0
17, 165552, Note_on_c, 9, 38, 17
17, 165576, Note_on_c, 9, 38, 0
17, 165576, Note_on_c, 9, 38, 17
17, 165600, Note_on_c, 9, 38, 0
17, 165600, Note_on_c, 9, 38, 17
17, 165624, Note_on_c, 9, 38, 0
17, 165624, Note_on_c, 9, 38, 18
17, 165648, Note_on_c, 9, 38, 0
17, 165648, Note_on_c, 9, 38, 20
17, 165672, Note_on_c, 9, 38, 0
17, 165672, Note_on_c, 9, 38, 20
17, 165696, Note_on_c, 9, 38, 0
17, 165696, Note_on_c, 9, 38, 22
17, 165720, Note_on_c, 9, 38, 0
17, 165720, Note_on_c, 9, 38, 24
17, 165744, Note_on_c, 9, 38, 0
17, 165744, Note_on_c, 9, 38, 26
17, 165768, Note_on_c, 9, 38, 0
17, 165768, Note_on_c, 9, 38, 26
17, 165792, Note_on_c, 9, 38, 0
17, 165792, Note_on_c, 9, 38, 27
17, 165816, Note_on_c, 9, 38, 0
17, 165816, Note_on_c, 9, 38, 27
17, 165840, Note_on_c, 9, 38, 0
17, 165840, Note_on_c, 9, 38, 29
17, 165864, Note_on_c, 9, 38, 0
17, 165864, Note_on_c, 9, 38, 29
17, 165888, Note_on_c, 9, 38, 0
17, 165888, Note_on_c, 9, 38, 29
17, 165912, Note_on_c, 9, 38, 0
17, 165912, Note_on_c, 9, 38, 29
17, 165936, Note_on_c, 9, 38, 0
17, 165936, Note_on_c, 9, 38, 29
17, 165960, Note_on_c, 9, 38, 0
17, 165960, Note_on_c, 9, 38, 29
17, 165984, Note_on_c, 9, 38, 0
17, 165984, Note_on_c, 9, 38, 29
17, 166008, Note_on_c, 9, 38, 0
17, 166008, Note_on_c, 9, 38, 27
17, 166032, Note_on_c, 9, 38, 0
17, 166032, Note_on_c, 9, 38, 27
17, 166056, Note_on_c, 9, 38, 0
17, 166056, Note_on_c, 9, 38, 27
17, 166080, Note_on_c, 9, 38, 0
17, 166080, Note_on_c, 9, 38, 27
17, 166104, Note_on_c, 9, 38, 0
17, 166104, Note_on_c, 9, 38, 26
17, 166128, Note_on_c, 9, 38, 0
17, 166128, Note_on_c, 9, 38, 26
17, 166152, Note_on_c, 9, 38, 0
17, 166152, Note_on_c, 9, 38, 24
17, 166176, Note_on_c, 9, 38, 0
17, 166176, Note_on_c, 9, 38, 24
17, 166200, Note_on_c, 9, 38, 0
17, 166200, Note_on_c, 9, 38, 22
17, 166224, Note_on_c, 9, 38, 0
17, 166224, Note_on_c, 9, 38, 22
17, 166248, Note_on_c, 9, 38, 0
17, 166248, Note_on_c, 9, 38, 20
17, 166272, Note_on_c, 9, 38, 0
17, 166272, Note_on_c, 9, 38, 20
17, 166296, Note_on_c, 9, 38, 0
17, 166296, Note_on_c, 9, 38, 20
17, 166320, Note_on_c, 9, 38, 0
17, 166320, Note_on_c, 9, 38, 18
17, 166344, Note_on_c, 9, 38, 0
17, 166344, Note_on_c, 9, 38, 18
17, 166368, Note_on_c, 9, 38, 0
17, 166368, Note_on_c, 9, 38, 18
17, 166392, Note_on_c, 9, 38, 0
17, 166392, Note_on_c, 9, 38, 17
17, 166416, Note_on_c, 9, 38, 0
17, 166416, Note_on_c, 9, 38, 17
17, 166440, Note_on_c, 9, 38, 0
17, 166440, Note_on_c, 9, 38, 17
17, 166464, Note_on_c, 9, 38, 0
17, 166464, Note_on_c, 9, 38, 17
17, 166488, Note_on_c, 9, 38, 0
17, 166488, Note_on_c, 9, 38, 14
17, 166512, Note_on_c, 9, 38, 0
17, 166512, Note_on_c, 9, 38, 14
17, 166536, Note_on_c, 9, 38, 0
17, 166536, Note_on_c, 9, 38, 14
17, 166560, Note_on_c, 9, 38, 0
17, 166560, Note_on_c, 9, 38, 14
17, 166584, Note_on_c, 9, 38, 0
17, 166584, Note_on_c, 9, 38, 14
17, 166608, Note_on_c, 9, 38, 0
17, 166608, Note_on_c, 9, 38, 14
17, 166632, Note_on_c, 9, 38, 0
17, 166632, Note_on_c, 9, 38, 14
17, 166656, Note_on_c, 9, 38, 0
17, 166656, Note_on_c, 9, 38, 2
17, 166752, Note_on_c, 9, 38, 0
17, 228096, Note_on_c, 9, 38, 24
17, 228120, Note_on_c, 9, 38, 0
17, 228120, Note_on_c, 9, 38, 24
17, 228144, Note_on_c, 9, 38, 0
17, 228144, Note_on_c, 9, 38, 24
17, 228168, Note_on_c, 9, 38, 0
17, 228168, Note_on_c, 9, 38, 22
17, 228192, Note_on_c, 9, 38, 0
17, 228192, Note_on_c, 9, 38, 22
17, 228216, Note_on_c, 9, 38, 0
17, 228216, Note_on_c, 9, 38, 24
17, 228240, Note_on_c, 9, 38, 0
17, 228240, Note_on_c, 9, 38, 24
17, 228264, Note_on_c, 9, 38, 0
17, 228264, Note_on_c, 9, 38, 24
17, 228288, Note_on_c, 9, 38, 0
17, 228288, Note_on_c, 9, 38, 24
17, 228312, Note_on_c, 9, 38, 0
17, 228312, Note_on_c, 9, 38, 24
17, 228336, Note_on_c, 9, 38, 0
17, 228336, Note_on_c, 9, 38, 24
17, 228360, Note_on_c, 9, 38, 0
17, 228360, Note_on_c, 9, 38, 24
17, 228384, Note_on_c, 9, 38, 0
17, 228384, Note_on_c, 9, 38, 24
17, 228408, Note_on_c, 9, 38, 0
17, 228408, Note_on_c, 9, 38, 24
17, 228432, Note_on_c, 9, 38, 0
17, 228432, Note_on_c, 9, 38, 24
17, 228456, Note_on_c, 9, 38, 0
17, 228456, Note_on_c, 9, 38, 24
17, 228480, Note_on_c, 9, 38, 0
17, 228480, Note_on_c, 9, 38, 13
17, 228576, Note_on_c, 9, 38, 0
17, 229632, Note_on_c, 9, 38, 24
17, 229656, Note_on_c, 9, 38, 0
17, 229656, Note_on_c, 9, 38, 24
17, 229680, Note_on_c, 9, 38, 0
17, 229680, Note_on_c, 9, 38, 24
17, 229704, Note_on_c, 9, 38, 0
17, 229704, Note_on_c, 9, 38, 22
17, 229728, Note_on_c, 9, 38, 0
17, 229728, Note_on_c, 9, 38, 22
17, 229752, Note_on_c, 9, 38, 0
17, 229752, Note_on_c, 9, 38, 24
17, 229776, Note_on_c, 9, 38, 0
17, 229776, Note_on_c, 9, 38, 24
17, 229800, Note_on_c, 9, 38, 0
17, 229800, Note_on_c, 9, 38, 24
17, 229824, Note_on_c, 9, 38, 0
17, 229824, Note_on_c, 9, 38, 24
17, 229848, Note_on_c, 9, 38, 0
17, 229848, Note_on_c, 9, 38, 24
17, 229872, Note_on_c, 9, 38, 0
17, 229872, Note_on_c, 9, 38, 24
17, 229896, Note_on_c, 9, 38, 0
17, 229896, Note_on_c, 9, 38, 24
17, 229920, Note_on_c, 9, 38, 0
17, 229920, Note_on_c, 9, 38, 24
17, 229944, Note_on_c, 9, 38, 0
17, 229944, Note_on_c, 9, 38, 24
17, 229968, Note_on_c, 9, 38, 0
17, 229968, Note_on_c, 9, 38, 24
17, 229992, Note_on_c, 9, 38, 0
17, 229992, Note_on_c, 9, 38, 24
17, 230016, Note_on_c, 9, 38, 0
17, 230016, Note_on_c, 9, 38, 13
17, 230112, Note_on_c, 9, 38, 0
17, 230880, Note_on_c, 9, 38, 13
17, 230912, Note_on_c, 9, 38, 0
17, 230912, Note_on_c, 9, 38, 13
17, 230944, Note_on_c, 9, 38, 0
17, 230944, Note_on_c, 9, 38, 13
17, 230976, Note_on_c, 9, 38, 0
17, 230976, Note_on_c, 9, 38, 13
17, 231072, Note_on_c, 9, 38, 0
17, 231168, Note_on_c, 9, 38, 13
17, 231264, Note_on_c, 9, 38, 0
17, 231504, Note_on_c, 9, 38, 14
17, 231528, Note_on_c, 9, 38, 0
17, 231528, Note_on_c, 9, 38, 14
17, 231552, Note_on_c, 9, 38, 0
17, 231552, Note_on_c, 9, 38, 14
17, 231648, Note_on_c, 9, 38, 0
17, 231888, Note_on_c, 9, 38, 27
17, 231912, Note_on_c, 9, 38, 0
17, 231912, Note_on_c, 9, 38, 20
17, 231936, Note_on_c, 9, 38, 0
17, 231936, Note_on_c, 9, 38, 13
17, 232032, Note_on_c, 9, 38, 0
17, 232416, Note_on_c, 9, 38, 13
17, 232448, Note_on_c, 9, 38, 0
17, 232448, Note_on_c, 9, 38, 13
17, 232480, Note_on_c, 9, 38, 0
17, 232480, Note_on_c, 9, 38, 13
17, 232512, Note_on_c, 9, 38, 0
17, 232512, Note_on_c, 9, 38, 13
17, 232608, Note_on_c, 9, 38, 0
17, 232608, Note_on_c, 9, 38, 13
17, 232704, Note_on_c, 9, 38, 0
17, 232704, Note_on_c, 9, 38, 13
17, 232800, Note_on_c, 9, 38, 0
17, 233040, Note_on_c, 9, 38, 24
17, 233064, Note_on_c, 9, 38, 0
17, 233064, Note_on_c, 9, 38, 24
17, 233088, Note_on_c, 9, 38, 0
17, 233088, Note_on_c, 9, 38, 13
17, 233184, Note_on_c, 9, 38, 0
17, 233424, Note_on_c, 9, 38, 25
17, 233448, Note_on_c, 9, 38, 0
17, 233448, Note_on_c, 9, 38, 21
17, 233472, Note_on_c, 9, 38, 0
17, 233472, Note_on_c, 9, 38, 35
17, 233568, Note_on_c, 9, 38, 0
17, 233808, Note_on_c, 9, 38, 33
17, 233832, Note_on_c, 9, 38, 0
17, 233832, Note_on_c, 9, 38, 33
17, 233856, Note_on_c, 9, 38, 0
17, 233856, Note_on_c, 9, 38, 46
17, 233880, Note_on_c, 9, 38, 0
17, 233880, Note_on_c, 9, 38, 46
17, 233904, Note_on_c, 9, 38, 0
17, 233904, Note_on_c, 9, 38, 46
17, 233928, Note_on_c, 9, 38, 0
17, 233928, Note_on_c, 9, 38, 46
17, 233952, Note_on_c, 9, 38, 0
17, 233952, Note_on_c, 9, 38, 46
17, 233976, Note_on_c, 9, 38, 0
17, 233976, Note_on_c, 9, 38, 46
17, 234000, Note_on_c, 9, 38, 0
17, 234000, Note_on_c, 9, 38, 47
17, 234024, Note_on_c, 9, 38, 0
17, 234024, Note_on_c, 9, 38, 47
17, 234048, Note_on_c, 9, 38, 0
17, 234048, Note_on_c, 9, 38, 47
17, 234072, Note_on_c, 9, 38, 0
17, 234072, Note_on_c, 9, 38, 47
17, 234096, Note_on_c, 9, 38, 0
17, 234096, Note_on_c, 9, 38, 47
17, 234120, Note_on_c, 9, 38, 0
17, 234120, Note_on_c, 9, 38, 47
17, 234144, Note_on_c, 9, 38, 0
17, 234144, Note_on_c, 9, 38, 47
17, 234168, Note_on_c, 9, 38, 0
17, 234168, Note_on_c, 9, 38, 47
17, 234192, Note_on_c, 9, 38, 0
17, 234192, Note_on_c, 9, 38, 47
17, 234216, Note_on_c, 9, 38, 0
17, 234216, Note_on_c, 9, 38, 47
17, 234240, Note_on_c, 9, 38, 0
17, 234240, Note_on_c, 9, 38, 35
17, 234336, Note_on_c, 9, 38, 0
17, 234432, Note_on_c, 9, 38, 35
17, 234528, Note_on_c, 9, 38, 0
17, 234576, Note_on_c, 9, 38, 24
17, 234600, Note_on_c, 9, 38, 0
17, 234600, Note_on_c, 9, 38, 31
17, 234624, Note_on_c, 9, 38, 0
17, 234624, Note_on_c, 9, 38, 44
17, 234648, Note_on_c, 9, 38, 0
17, 234648, Note_on_c, 9, 38, 44
17, 234672, Note_on_c, 9, 38, 0
17, 234672, Note_on_c, 9, 38, 44
17, 234696, Note_on_c, 9, 38, 0
17, 234696, Note_on_c, 9, 38, 44
17, 234720, Note_on_c, 9, 38, 0
17, 234720, Note_on_c, 9, 38, 44
17, 234744, Note_on_c, 9, 38, 0
17, 234744, Note_on_c, 9, 38, 44
17, 234768, Note_on_c, 9, 38, 0
17, 234768, Note_on_c, 9, 38, 44
17, 234792, Note_on_c, 9, 38, 0
17, 234792, Note_on_c, 9, 38, 44
17, 234816, Note_on_c, 9, 38, 0
17, 234816, Note_on_c, 9, 38, 44
17, 234840, Note_on_c, 9, 38, 0
17, 234840, Note_on_c, 9, 38, 42
17, 234864, Note_on_c, 9, 38, 0
17, 234864, Note_on_c, 9, 38, 42
17, 234888, Note_on_c, 9, 38, 0
17, 234888, Note_on_c, 9, 38, 42
17, 234912, Note_on_c, 9, 38, 0
17, 234912, Note_on_c, 9, 38, 42
17, 234936, Note_on_c, 9, 38, 0
17, 234936, Note_on_c, 9, 38, 42
17, 234960, Note_on_c, 9, 38, 0
17, 234960, Note_on_c, 9, 38, 42
17, 234984, Note_on_c, 9, 38, 0
17, 234984, Note_on_c, 9, 38, 42
17, 235008, Note_on_c, 9, 38, 0
17, 235008, Note_on_c, 9, 38, 35
17, 235104, Note_on_c, 9, 38, 0
17, 235200, Note_on_c, 9, 38, 35
17, 235296, Note_on_c, 9, 38, 0
17, 235344, Note_on_c, 9, 38, 24
17, 235368, Note_on_c, 9, 38, 0
17, 235368, Note_on_c, 9, 38, 31
17, 235392, Note_on_c, 9, 38, 0
17, 235392, Note_on_c, 9, 38, 44
17, 235416, Note_on_c, 9, 38, 0
17, 235416, Note_on_c, 9, 38, 44
17, 235440, Note_on_c, 9, 38, 0
17, 235440, Note_on_c, 9, 38, 44
17, 235464, Note_on_c, 9, 38, 0
17, 235464, Note_on_c, 9, 38, 44
17, 235488, Note_on_c, 9, 38, 0
17, 235488, Note_on_c, 9, 38, 44
17, 235512, Note_on_c, 9, 38, 0
17, 235512, Note_on_c, 9, 38, 44
17, 235536, Note_on_c, 9, 38, 0
17, 235536, Note_on_c, 9, 38, 44
17, 235560, Note_on_c, 9, 38, 0
17, 235560, Note_on_c, 9, 38, 44
17, 235584, Note_on_c, 9, 38, 0
17, 235584, Note_on_c, 9, 38, 44
17, 235608, Note_on_c, 9, 38, 0
17, 235608, Note_on_c, 9, 38, 42
17, 235632, Note_on_c, 9, 38, 0
17, 235632, Note_on_c, 9, 38, 42
17, 235656, Note_on_c, 9, 38, 0
17, 235656, Note_on_c, 9, 38, 42
17, 235680, Note_on_c, 9, 38, 0
17, 235680, Note_on_c, 9, 38, 42
17, 235704, Note_on_c, 9, 38, 0
17, 235704, Note_on_c, 9, 38, 42
17, 235728, Note_on_c, 9, 38, 0
17, 235728, Note_on_c, 9, 38, 42
17, 235752, Note_on_c, 9, 38, 0
17, 235752, Note_on_c, 9, 38, 42
17, 235776, Note_on_c, 9, 38, 0
17, 235776, Note_on_c, 9, 38, 35
17, 235872, Note_on_c, 9, 38, 0
17, 235968, Note_on_c, 9, 38, 35
17, 236064, Note_on_c, 9, 38, 0
17, 236112, Note_on_c, 9, 38, 24
17, 236136, Note_on_c, 9, 38, 0
17, 236136, Note_on_c, 9, 38, 31
17, 236160, Note_on_c, 9, 38, 0
17, 236160, Note_on_c, 9, 38, 44
17, 236184, Note_on_c, 9, 38, 0
17, 236184, Note_on_c, 9, 38, 44
17, 236208, Note_on_c, 9, 38, 0
17, 236208, Note_on_c, 9, 38, 44
17, 236232, Note_on_c, 9, 38, 0
17, 236232, Note_on_c, 9, 38, 44
17, 236256, Note_on_c, 9, 38, 0
17, 236256, Note_on_c, 9, 38, 44
17, 236280, Note_on_c, 9, 38, 0
17, 236280, Note_on_c, 9, 38, 44
17, 236304, Note_on_c, 9, 38, 0
17, 236304, Note_on_c, 9, 38, 44
17, 236328, Note_on_c, 9, 38, 0
17, 236328, Note_on_c, 9, 38, 44
17, 236352, Note_on_c, 9, 38, 0
17, 236352, Note_on_c, 9, 38, 44
17, 236376, Note_on_c, 9, 38, 0
17, 236376, Note_on_c, 9, 38, 42
17, 236400, Note_on_c, 9, 38, 0
17, 236400, Note_on_c, 9, 38, 42
17, 236424, Note_on_c, 9, 38, 0
17, 236424, Note_on_c, 9, 38, 42
17, 236448, Note_on_c, 9, 38, 0
17, 236448, Note_on_c, 9, 38, 42
17, 236472, Note_on_c, 9, 38, 0
17, 236472, Note_on_c, 9, 38, 42
17, 236496, Note_on_c, 9, 38, 0
17, 236496, Note_on_c, 9, 38, 42
17, 236520, Note_on_c, 9, 38, 0
17, 236568, Note_on_c, 9, 38, 54
17, 236592, Note_on_c, 9, 38, 0
17, 236592, Note_on_c, 9, 38, 54
17, 236616, Note_on_c, 9, 38, 0
17, 236616, Note_on_c, 9, 38, 54
17, 236640, Note_on_c, 9, 38, 0
17, 236640, Note_on_c, 9, 38, 54
17, 236664, Note_on_c, 9, 38, 0
17, 236664, Note_on_c, 9, 38, 54
17, 236688, Note_on_c, 9, 38, 0
17, 236688, Note_on_c, 9, 38, 54
17, 236712, Note_on_c, 9, 38, 0
17, 236712, Note_on_c, 9, 38, 54
17, 236736, Note_on_c, 9, 38, 0
17, 236760, Note_on_c, 9, 38, 54
17, 236784, Note_on_c, 9, 38, 0
17, 236784, Note_on_c, 9, 38, 54
17, 236808, Note_on_c, 9, 38, 0
17, 236808, Note_on_c, 9, 38, 54
17, 236832, Note_on_c, 9, 38, 0
17, 236832, Note_on_c, 9, 38, 54
17, 236856, Note_on_c, 9, 38, 0
17, 236856, Note_on_c, 9, 38, 54
17, 236880, Note_on_c, 9, 38, 0
17, 236880, Note_on_c, 9, 38, 54
17, 236904, Note_on_c, 9, 38, 0
17, 236904, Note_on_c, 9, 38, 54
17, 236928, Note_on_c, 9, 38, 0
17, 236928, Note_on_c, 9, 38, 54
17, 236952, Note_on_c, 9, 38, 0
17, 236952, Note_on_c, 9, 38, 54
17, 236976, Note_on_c, 9, 38, 0
17, 236976, Note_on_c, 9, 38, 54
17, 237000, Note_on_c, 9, 38, 0
17, 237000, Note_on_c, 9, 38, 54
17, 237024, Note_on_c, 9, 38, 0
17, 237024, Note_on_c, 9, 38, 54
17, 237048, Note_on_c, 9, 38, 0
17, 237048, Note_on_c, 9, 38, 54
17, 237072, Note_on_c, 9, 38, 0
17, 237072, Note_on_c, 9, 38, 54
17, 237096, Note_on_c, 9, 38, 0
17, 237144, Note_on_c, 9, 38, 54
17, 237168, Note_on_c, 9, 38, 0
17, 237168, Note_on_c, 9, 38, 54
17, 237192, Note_on_c, 9, 38, 0
17, 237192, Note_on_c, 9, 38, 54
17, 237216, Note_on_c, 9, 38, 0
17, 237216, Note_on_c, 9, 38, 54
17, 237240, Note_on_c, 9, 38, 0
17, 237240, Note_on_c, 9, 38, 54
17, 237264, Note_on_c, 9, 38, 0
17, 237264, Note_on_c, 9, 38, 54
17, 237288, Note_on_c, 9, 38, 0
17, 237288, Note_on_c, 9, 38, 54
17, 237312, Note_on_c, 9, 38, 0
17, 237336, Note_on_c, 9, 38, 54
17, 237360, Note_on_c, 9, 38, 0
17, 237360, Note_on_c, 9, 38, 54
17, 237384, Note_on_c, 9, 38, 0
17, 237384, Note_on_c, 9, 38, 54
17, 237408, Note_on_c, 9, 38, 0
17, 237408, Note_on_c, 9, 38, 54
17, 237432, Note_on_c, 9, 38, 0
17, 237432, Note_on_c, 9, 38, 54
17, 237456, Note_on_c, 9, 38, 0
17, 237456, Note_on_c, 9, 38, 54
17, 237480, Note_on_c, 9, 38, 0
17, 237480, Note_on_c, 9, 38, 54
17, 237504, Note_on_c, 9, 38, 0
17, 237504, Note_on_c, 9, 38, 54
17, 237528, Note_on_c, 9, 38, 0
17, 237528, Note_on_c, 9, 38, 54
17, 237552, Note_on_c, 9, 38, 0
17, 237552, Note_on_c, 9, 38, 54
17, 237576, Note_on_c, 9, 38, 0
17, 237576, Note_on_c, 9, 38, 54
17, 237600, Note_on_c, 9, 38, 0
17, 237600, Note_on_c, 9, 38, 54
17, 237624, Note_on_c, 9, 38, 0
17, 237624, Note_on_c, 9, 38, 54
17, 237648, Note_on_c, 9, 38, 0
17, 237648, Note_on_c, 9, 38, 54
17, 237672, Note_on_c, 9, 38, 0
17, 237672, Note_on_c, 9, 38, 54
17, 237696, Note_on_c, 9, 38, 0
17, 237696, Note_on_c, 9, 38, 54
17, 237720, Note_on_c, 9, 38, 0
17, 237720, Note_on_c, 9, 38, 54
17, 237744, Note_on_c, 9, 38, 0
17, 237744, Note_on_c, 9, 38, 54
17, 237768, Note_on_c, 9, 38, 0
17, 237768, Note_on_c, 9, 38, 54
17, 237792, Note_on_c, 9, 38, 0
17, 237792, Note_on_c, 9, 38, 54
17, 237816, Note_on_c, 9, 38, 0
17, 237816, Note_on_c, 9, 38, 54
17, 237840, Note_on_c, 9, 38, 0
17, 237840, Note_on_c, 9, 38, 54
17, 237864, Note_on_c, 9, 38, 0
17, 237864, Note_on_c, 9, 38, 54
17, 237888, Note_on_c, 9, 38, 0
17, 237888, Note_on_c, 9, 38, 54
17, 237912, Note_on_c, 9, 38, 0
17, 237912, Note_on_c, 9, 38, 54
17, 237936, Note_on_c, 9, 38, 0
17, 237936, Note_on_c, 9, 38, 54
17, 237960, Note_on_c, 9, 38, 0
17, 237960, Note_on_c, 9, 38, 54
17, 237984, Note_on_c, 9, 38, 0
17, 237984, Note_on_c, 9, 38, 54
17, 238008, Note_on_c, 9, 38, 0
17, 238008, Note_on_c, 9, 38, 54
17, 238032, Note_on_c, 9, 38, 0
17, 238032, Note_on_c, 9, 38, 54
17, 238056, Note_on_c, 9, 38, 0
17, 238056, Note_on_c, 9, 38, 54
17, 238080, Note_on_c, 9, 38, 0
17, 238104, Note_on_c, 9, 38, 54
17, 238128, Note_on_c, 9, 38, 0
17, 238128, Note_on_c, 9, 38, 54
17, 238152, Note_on_c, 9, 38, 0
17, 238152, Note_on_c, 9, 38, 54
17, 238176, Note_on_c, 9, 38, 0
17, 238176, Note_on_c, 9, 38, 54
17, 238200, Note_on_c, 9, 38, 0
17, 238200, Note_on_c, 9, 38, 54
17, 238224, Note_on_c, 9, 38, 0
17, 238224, Note_on_c, 9, 38, 54
17, 238248, Note_on_c, 9, 38, 0
17, 238248, Note_on_c, 9, 38, 54
17, 238272, Note_on_c, 9, 38, 0
17, 238272, Note_on_c, 9, 38, 54
17, 238296, Note_on_c, 9, 38, 0
17, 238296, Note_on_c, 9, 38, 54
17, 238320, Note_on_c, 9, 38, 0
17, 238320, Note_on_c, 9, 38, 54
17, 238344, Note_on_c, 9, 38, 0
17, 238344, Note_on_c, 9, 38, 54
17, 238368, Note_on_c, 9, 38, 0
17, 238368, Note_on_c, 9, 38, 54
17, 238392, Note_on_c, 9, 38, 0
17, 238392, Note_on_c, 9, 38, 54
17, 238416, Note_on_c, 9, 38, 0
17, 238416, Note_on_c, 9, 38, 54
17, 238440, Note_on_c, 9, 38, 0
17, 238440, Note_on_c, 9, 38, 54
17, 238464, Note_on_c, 9, 38, 0
17, 238464, Note_on_c, 9, 38, 54
17, 238488, Note_on_c, 9, 38, 0
17, 238488, Note_on_c, 9, 38, 54
17, 238512, Note_on_c, 9, 38, 0
17, 238512, Note_on_c, 9, 38, 54
17, 238536, Note_on_c, 9, 38, 0
17, 238536, Note_on_c, 9, 38, 54
17, 238560, Note_on_c, 9, 38, 0
17, 238560, Note_on_c, 9, 38, 54
17, 238584, Note_on_c, 9, 38, 0
17, 238584, Note_on_c, 9, 38, 54
17, 238608, Note_on_c, 9, 38, 0
17, 238608, Note_on_c, 9, 38, 54
17, 238632, Note_on_c, 9, 38, 0
17, 238632, Note_on_c, 9, 38, 54
17, 238656, Note_on_c, 9, 38, 0
17, 238656, Note_on_c, 9, 38, 54
17, 238680, Note_on_c, 9, 38, 0
17, 238680, Note_on_c, 9, 38, 54
17, 238704, Note_on_c, 9, 38, 0
17, 238704, Note_on_c, 9, 38, 54
17, 238728, Note_on_c, 9, 38, 0
17, 238728, Note_on_c, 9, 38, 54
17, 238752, Note_on_c, 9, 38, 0
17, 238752, Note_on_c, 9, 38, 54
17, 238776, Note_on_c, 9, 38, 0
17, 238776, Note_on_c, 9, 38, 54
17, 238800, Note_on_c, 9, 38, 0
17, 238800, Note_on_c, 9, 38, 54
17, 238824, Note_on_c, 9, 38, 0
17, 238824, Note_on_c, 9, 38, 54
17, 238848, Note_on_c, 9, 38, 0
17, 238872, Note_on_c, 9, 38, 54
17, 238896, Note_on_c, 9, 38, 0
17, 238896, Note_on_c, 9, 38, 54
17, 238920, Note_on_c, 9, 38, 0
17, 238920, Note_on_c, 9, 38, 54
17, 238944, Note_on_c, 9, 38, 0
17, 238944, Note_on_c, 9, 38, 54
17, 238968, Note_on_c, 9, 38, 0
17, 238968, Note_on_c, 9, 38, 54
17, 238992, Note_on_c, 9, 38, 0
17, 238992, Note_on_c, 9, 38, 54
17, 239016, Note_on_c, 9, 38, 0
17, 239016, Note_on_c, 9, 38, 54
17, 239040, Note_on_c, 9, 38, 0
17, 239040, Note_on_c, 9, 38, 54
17, 239064, Note_on_c, 9, 38, 0
17, 239064, Note_on_c, 9, 38, 54
17, 239088, Note_on_c, 9, 38, 0
17, 239088, Note_on_c, 9, 38, 54
17, 239112, Note_on_c, 9, 38, 0
17, 239112, Note_on_c, 9, 38, 54
17, 239136, Note_on_c, 9, 38, 0
17, 239136, Note_on_c, 9, 38, 54
17, 239160, Note_on_c, 9, 38, 0
17, 239160, Note_on_c, 9, 38, 54
17, 239184, Note_on_c, 9, 38, 0
17, 239184, Note_on_c, 9, 38, 54
17, 239208, Note_on_c, 9, 38, 0
17, 239208, Note_on_c, 9, 38, 54
17, 239232, Note_on_c, 9, 38, 0
17, 239232, Note_on_c, 9, 38, 54
17, 239256, Note_on_c, 9, 38, 0
17, 239256, Note_on_c, 9, 38, 54
17, 239280, Note_on_c, 9, 38, 0
17, 239280, Note_on_c, 9, 38, 54
17, 239304, Note_on_c, 9, 38, 0
17, 239304, Note_on_c, 9, 38, 54
17, 239328, Note_on_c, 9, 38, 0
17, 239328, Note_on_c, 9, 38, 54
17, 239352, Note_on_c, 9, 38, 0
17, 239352, Note_on_c, 9, 38, 54
17, 239376, Note_on_c, 9, 38, 0
17, 239376, Note_on_c, 9, 38, 54
17, 239400, Note_on_c, 9, 38, 0
17, 239400, Note_on_c, 9, 38, 54
17, 239424, Note_on_c, 9, 38, 0
17, 239424, Note_on_c, 9, 38, 54
17, 239448, Note_on_c, 9, 38, 0
17, 239448, Note_on_c, 9, 38, 54
17, 239472, Note_on_c, 9, 38, 0
17, 239472, Note_on_c, 9, 38, 54
17, 239496, Note_on_c, 9, 38, 0
17, 239496, Note_on_c, 9, 38, 54
17, 239520, Note_on_c, 9, 38, 0
17, 239520, Note_on_c, 9, 38, 54
17, 239544, Note_on_c, 9, 38, 0
17, 239544, Note_on_c, 9, 38, 54
17, 239568, Note_on_c, 9, 38, 0
17, 239568, Note_on_c, 9, 38, 54
17, 239592, Note_on_c, 9, 38, 0
17, 239808, Note_on_c, 9, 38, 58
17, 240000, Note_on_c, 9, 38, 0
17, 240000, Note_on_c, 9, 38, 58
17, 240192, Note_on_c, 9, 38, 0
17, 240192, Note_on_c, 9, 38, 58
17, 240384, Note_on_c, 9, 38, 0
17, 240384, Note_on_c, 9, 38, 58
17, 240576, Note_on_c, 9, 38, 0
17, 240576, Note_on_c, 9, 38, 58
17, 240768, Note_on_c, 9, 38, 0
17, 240768, Note_on_c, 9, 38, 58
17, 240960, Note_on_c, 9, 38, 0
17, 240960, Note_on_c, 9, 38, 58
17, 241152, Note_on_c, 9, 38, 0
17, 241152, Note_on_c, 9, 38, 58
17, 241344, Note_on_c, 9, 38, 0
17, 241344, Note_on_c, 9, 38, 58
17, 241536, Note_on_c, 9, 38, 0
17, 241536, Note_on_c, 9, 38, 58
17, 241728, Note_on_c, 9, 38, 0
17, 241728, Note_on_c, 9, 38, 58
17, 241920, Note_on_c, 9, 38, 0
17, 241920, Note_on_c, 9, 38, 58
17, 242112, Note_on_c, 9, 38, 0
17, 242112, Note_on_c, 9, 38, 58
17, 242304, Note_on_c, 9, 38, 0
17, 270096, Note_on_c, 9, 38, 58
17, 270118, Note_on_c, 9, 38, 0
17, 270120, Note_on_c, 9, 38, 58
17, 270142, Note_on_c, 9, 38, 0
17, 270144, Note_on_c, 9, 38, 58
17, 270336, Note_on_c, 9, 38, 0
17, 270480, Note_on_c, 9, 38, 58
17, 270502, Note_on_c, 9, 38, 0
17, 270504, Note_on_c, 9, 38, 58
17, 270526, Note_on_c, 9, 38, 0
17, 270528, Note_on_c, 9, 38, 58
17, 270720, Note_on_c, 9, 38, 0
17, 270864, Note_on_c, 9, 38, 58
17, 270886, Note_on_c, 9, 38, 0
17, 270888, Note_on_c, 9, 38, 58
17, 270910, Note_on_c, 9, 38, 0
17, 270912, Note_on_c, 9, 38, 58
17, 271104, Note_on_c, 9, 38, 0
17, 271248, Note_on_c, 9, 38, 58
17, 271270, Note_on_c, 9, 38, 0
17, 271272, Note_on_c, 9, 38, 58
17, 271294, Note_on_c, 9, 38, 0
17, 271296, Note_on_c, 9, 38, 58
17, 271488, Note_on_c, 9, 38, 0
17, 271632, Note_on_c, 9, 38, 58
17, 271654, Note_on_c, 9, 38, 0
17, 271656, Note_on_c, 9, 38, 58
17, 271678, Note_on_c, 9, 38, 0
17, 271680, Note_on_c, 9, 38, 58
17, 271872, Note_on_c, 9, 38, 0
17, 272016, Note_on_c, 9, 38, 58
17, 272038, Note_on_c, 9, 38, 0
17, 272040, Note_on_c, 9, 38, 58
17, 272062, Note_on_c, 9, 38, 0
17, 272064, Note_on_c, 9, 38, 58
17, 272256, Note_on_c, 9, 38, 0
17, 272400, Note_on_c, 9, 38, 58
17, 272422, Note_on_c, 9, 38, 0
17, 272424, Note_on_c, 9, 38, 58
17, 272446, Note_on_c, 9, 38, 0
17, 272448, Note_on_c, 9, 38, 58
17, 272640, Note_on_c, 9, 38, 0
17, 272784, Note_on_c, 9, 38, 58
17, 272806, Note_on_c, 9, 38, 0
17, 272808, Note_on_c, 9, 38, 58
17, 272830, Note_on_c, 9, 38, 0
17, 272832, Note_on_c, 9, 38, 58
17, 273024, Note_on_c, 9, 38, 0
17, 273168, Note_on_c, 9, 38, 58
17, 273190, Note_on_c, 9, 38, 0
17, 273192, Note_on_c, 9, 38, 58
17, 273214, Note_on_c, 9, 38, 0
17, 273216, Note_on_c, 9, 38, 58
17, 273408, Note_on_c, 9, 38, 0
17, 273552, Note_on_c, 9, 38, 58
17, 273574, Note_on_c, 9, 38, 0
17, 273576, Note_on_c, 9, 38, 58
17, 273598, Note_on_c, 9, 38, 0
17, 273600, Note_on_c, 9, 38, 58
17, 273792, Note_on_c, 9, 38, 0
17, 273936, Note_on_c, 9, 38, 58
17, 273958, Note_on_c, 9, 38, 0
17, 273960, Note_on_c, 9, 38, 58
17, 273982, Note_on_c, 9, 38, 0
17, 273984, Note_on_c, 9, 38, 58
17, 274176, Note_on_c, 9, 38, 0
17, 274320, Note_on_c, 9, 38, 58
17, 274342, Note_on_c, 9, 38, 0
17, 274344, Note_on_c, 9, 38, 58
17, 274366, Note_on_c, 9, 38, 0
17, 274368, Note_on_c, 9, 38, 58
17, 274560, Note_on_c, 9, 38, 0
17, 274704, Note_on_c, 9, 38, 58
17, 274726, Note_on_c, 9, 38, 0
17, 274728, Note_on_c, 9, 38, 58
17, 274750, Note_on_c, 9, 38, 0
17, 274752, Note_on_c, 9, 38, 58
17, 274944, Note_on_c, 9, 38, 0
17, 275088, Note_on_c, 9, 38, 58
17, 275110, Note_on_c, 9, 38, 0
17, 275112, Note_on_c, 9, 38, 58
17, 275134, Note_on_c, 9, 38, 0
17, 275136, Note_on_c, 9, 38, 58
17, 275328, Note_on_c, 9, 38, 0
17, 275472, Note_on_c, 9, 38, 58
17, 275494, Note_on_c, 9, 38, 0
17, 275496, Note_on_c, 9, 38, 58
17, 275518, Note_on_c, 9, 38, 0
17, 275520, Note_on_c, 9, 38, 58
17, 275712, Note_on_c, 9, 38, 0
17, 275856, Note_on_c, 9, 38, 58
17, 275878, Note_on_c, 9, 38, 0
17, 275880, Note_on_c, 9, 38, 58
17, 275902, Note_on_c, 9, 38, 0
17, 275904, Note_on_c, 9, 38, 58
17, 276096, Note_on_c, 9, 38, 0
17, 276240, Note_on_c, 9, 38, 58
17, 276262, Note_on_c, 9, 38, 0
17, 276264, Note_on_c, 9, 38, 58
17, 276286, Note_on_c, 9, 38, 0
17, 276480, Note_on_c, 9, 38, 57
17, 276498, Note_on_c, 9, 38, 0
17, 276504, Note_on_c, 9, 38, 57
17, 276522, Note_on_c, 9, 38, 0
17, 276528, Note_on_c, 9, 38, 57
17, 276546, Note_on_c, 9, 38, 0
17, 276552, Note_on_c, 9, 38, 57
17, 276570, Note_on_c, 9, 38, 0
17, 276576, Note_on_c, 9, 38, 57
17, 276594, Note_on_c, 9, 38, 0
17, 276600, Note_on_c, 9, 38, 57
17, 276618, Note_on_c, 9, 38, 0
17, 276624, Note_on_c, 9, 38, 57
17, 276642, Note_on_c, 9, 38, 0
17, 276648, Note_on_c, 9, 38, 57
17, 276666, Note_on_c, 9, 38, 0
17, 276672, Note_on_c, 9, 38, 57
17, 276690, Note_on_c, 9, 38, 0
17, 276696, Note_on_c, 9, 38, 57
17, 276714, Note_on_c, 9, 38, 0
17, 276720, Note_on_c, 9, 38, 57
17, 276738, Note_on_c, 9, 38, 0
17, 276744, Note_on_c, 9, 38, 57
17, 276762, Note_on_c, 9, 38, 0
17, 276768, Note_on_c, 9, 38, 57
17, 276786, Note_on_c, 9, 38, 0
17, 276792, Note_on_c, 9, 38, 57
17, 276810, Note_on_c, 9, 38, 0
17, 276816, Note_on_c, 9, 38, 57
17, 276834, Note_on_c, 9, 38, 0
17, 276840, Note_on_c, 9, 38, 57
17, 276858, Note_on_c, 9, 38, 0
17, 276864, Note_on_c, 9, 38, 57
17, 276882, Note_on_c, 9, 38, 0
17, 276888, Note_on_c, 9, 38, 57
17, 276906, Note_on_c, 9, 38, 0
17, 276912, Note_on_c, 9, 38, 57
17, 276930, Note_on_c, 9, 38, 0
17, 276936, Note_on_c, 9, 38, 57
17, 276954, Note_on_c, 9, 38, 0
17, 276960, Note_on_c, 9, 38, 57
17, 276978, Note_on_c, 9, 38, 0
17, 276984, Note_on_c, 9, 38, 57
17, 277002, Note_on_c, 9, 38, 0
17, 277008, Note_on_c, 9, 38, 57
17, 277026, Note_on_c, 9, 38, 0
17, 277032, Note_on_c, 9, 38, 57
17, 277050, Note_on_c, 9, 38, 0
17, 277056, Note_on_c, 9, 38, 57
17, 277152, Note_on_c, 9, 38, 0
17, 277248, Note_on_c, 9, 38, 57
17, 277344, Note_on_c, 9, 38, 0
17, 277440, Note_on_c, 9, 38, 57
17, 277632, Note_on_c, 9, 38, 0
17, 278016, Note_on_c, 9, 38, 57
17, 278034, Note_on_c, 9, 38, 0
17, 278040, Note_on_c, 9, 38, 57
17, 278058, Note_on_c, 9, 38, 0
17, 278064, Note_on_c, 9, 38, 57
17, 278082, Note_on_c, 9, 38, 0
17, 278088, Note_on_c, 9, 38, 57
17, 278106, Note_on_c, 9, 38, 0
17, 278112, Note_on_c, 9, 38, 57
17, 278130, Note_on_c, 9, 38, 0
17, 278136, Note_on_c, 9, 38, 57
17, 278154, Note_on_c, 9, 38, 0
17, 278160, Note_on_c, 9, 38, 57
17, 278178, Note_on_c, 9, 38, 0
17, 278184, Note_on_c, 9, 38, 57
17, 278202, Note_on_c, 9, 38, 0
17, 278208, Note_on_c, 9, 38, 57
17, 278226, Note_on_c, 9, 38, 0
17, 278232, Note_on_c, 9, 38, 57
17, 278250, Note_on_c, 9, 38, 0
17, 278256, Note_on_c, 9, 38, 57
17, 278274, Note_on_c, 9, 38, 0
17, 278280, Note_on_c, 9, 38, 57
17, 278298, Note_on_c, 9, 38, 0
17, 278304, Note_on_c, 9, 38, 57
17, 278322, Note_on_c, 9, 38, 0
17, 278328, Note_on_c, 9, 38, 57
17, 278346, Note_on_c, 9, 38, 0
17, 278352, Note_on_c, 9, 38, 57
17, 278370, Note_on_c, 9, 38, 0
17, 278376, Note_on_c, 9, 38, 57
17, 278394, Note_on_c, 9, 38, 0
17, 278400, Note_on_c, 9, 38, 57
17, 278418, Note_on_c, 9, 38, 0
17, 278424, Note_on_c, 9, 38, 57
17, 278442, Note_on_c, 9, 38, 0
17, 278448, Note_on_c, 9, 38, 57
17, 278466, Note_on_c, 9, 38, 0
17, 278472, Note_on_c, 9, 38, 57
17, 278490, Note_on_c, 9, 38, 0
17, 278496, Note_on_c, 9, 38, 57
17, 278514, Note_on_c, 9, 38, 0
17, 278520, Note_on_c, 9, 38, 57
17, 278538, Note_on_c, 9, 38, 0
17, 278544, Note_on_c, 9, 38, 57
17, 278562, Note_on_c, 9, 38, 0
17, 278568, Note_on_c, 9, 38, 57
17, 278586, Note_on_c, 9, 38, 0
17, 278592, Note_on_c, 9, 38, 57
17, 278688, Note_on_c, 9, 38, 0
17, 278784, Note_on_c, 9, 38, 57
17, 278880, Note_on_c, 9, 38, 0
17, 278976, Note_on_c, 9, 38, 57
17, 279168, Note_on_c, 9, 38, 0
17, 279360, Note_on_c, 9, 38, 57
17, 279378, Note_on_c, 9, 38, 0
17, 279384, Note_on_c, 9, 38, 57
17, 279402, Note_on_c, 9, 38, 0
17, 279408, Note_on_c, 9, 38, 57
17, 279426, Note_on_c, 9, 38, 0
17, 279432, Note_on_c, 9, 38, 57
17, 279450, Note_on_c, 9, 38, 0
17, 279456, Note_on_c, 9, 38, 57
17, 279474, Note_on_c, 9, 38, 0
17, 279480, Note_on_c, 9, 38, 57
17, 279498, Note_on_c, 9, 38, 0
17, 279504, Note_on_c, 9, 38, 57
17, 279522, Note_on_c, 9, 38, 0
17, 279528, Note_on_c, 9, 38, 57
17, 279546, Note_on_c, 9, 38, 0
17, 279552, Note_on_c, 9, 38, 57
17, 279570, Note_on_c, 9, 38, 0
17, 279576, Note_on_c, 9, 38, 57
17, 279594, Note_on_c, 9, 38, 0
17, 279600, Note_on_c, 9, 38, 57
17, 279618, Note_on_c, 9, 38, 0
17, 279624, Note_on_c, 9, 38, 57
17, 279642, Note_on_c, 9, 38, 0
17, 279648, Note_on_c, 9, 38, 57
17, 279666, Note_on_c, 9, 38, 0
17, 279672, Note_on_c, 9, 38, 57
17, 279690, Note_on_c, 9, 38, 0
17, 279696, Note_on_c, 9, 38, 57
17, 279714, Note_on_c, 9, 38, 0
17, 279720, Note_on_c, 9, 38, 57
17, 279738, Note_on_c, 9, 38, 0
17, 279744, Note_on_c, 9, 38, 57
17, 279840, Note_on_c, 9, 38, 0
17, 279936, Note_on_c, 9, 38, 57
17, 280032, Note_on_c, 9, 38, 0
17, 280128, Note_on_c, 9, 38, 57
17, 280146, Note_on_c, 9, 38, 0
17, 280152, Note_on_c, 9, 38, 57
17, 280170, Note_on_c, 9, 38, 0
17, 280176, Note_on_c, 9, 38, 57
17, 280194, Note_on_c, 9, 38, 0
17, 280200, Note_on_c, 9, 38, 57
17, 280218, Note_on_c, 9, 38, 0
17, 280224, Note_on_c, 9, 38, 57
17, 280242, Note_on_c, 9, 38, 0
17, 280248, Note_on_c, 9, 38, 57
17, 280266, Note_on_c, 9, 38, 0
17, 280272, Note_on_c, 9, 38, 57
17, 280290, Note_on_c, 9, 38, 0
17, 280296, Note_on_c, 9, 38, 57
17, 280314, Note_on_c, 9, 38, 0
17, 280320, Note_on_c, 9, 38, 57
17, 280338, Note_on_c, 9, 38, 0
17, 280344, Note_on_c, 9, 38, 57
17, 280362, Note_on_c, 9, 38, 0
17, 280368, Note_on_c, 9, 38, 57
17, 280386, Note_on_c, 9, 38, 0
17, 280392, Note_on_c, 9, 38, 57
17, 280410, Note_on_c, 9, 38, 0
17, 280416, Note_on_c, 9, 38, 57
17, 280434, Note_on_c, 9, 38, 0
17, 280440, Note_on_c, 9, 38, 57
17, 280458, Note_on_c, 9, 38, 0
17, 280464, Note_on_c, 9, 38, 57
17, 280482, Note_on_c, 9, 38, 0
17, 280488, Note_on_c, 9, 38, 57
17, 280506, Note_on_c, 9, 38, 0
17, 280512, Note_on_c, 9, 38, 57
17, 280608, Note_on_c, 9, 38, 0
17, 280704, Note_on_c, 9, 38, 57
17, 280800, Note_on_c, 9, 38, 0
17, 280896, Note_on_c, 9, 38, 57
17, 281088, Note_on_c, 9, 38, 0
17, 281280, Note_on_c, 9, 38, 57
17, 281298, Note_on_c, 9, 38, 0
17, 281304, Note_on_c, 9, 38, 57
17, 281322, Note_on_c, 9, 38, 0
17, 281328, Note_on_c, 9, 38, 57
17, 281346, Note_on_c, 9, 38, 0
17, 281352, Note_on_c, 9, 38, 57
17, 281370, Note_on_c, 9, 38, 0
17, 281376, Note_on_c, 9, 38, 57
17, 281394, Note_on_c, 9, 38, 0
17, 281400, Note_on_c, 9, 38, 57
17, 281418, Note_on_c, 9, 38, 0
17, 281424, Note_on_c, 9, 38, 57
17, 281442, Note_on_c, 9, 38, 0
17, 281448, Note_on_c, 9, 38, 57
17, 281466, Note_on_c, 9, 38, 0
17, 281472, Note_on_c, 9, 38, 57
17, 281490, Note_on_c, 9, 38, 0
17, 281496, Note_on_c, 9, 38, 57
17, 281514, Note_on_c, 9, 38, 0
17, 281520, Note_on_c, 9, 38, 57
17, 281538, Note_on_c, 9, 38, 0
17, 281544, Note_on_c, 9, 38, 57
17, 281562, Note_on_c, 9, 38, 0
17, 281568, Note_on_c, 9, 38, 57
17, 281586, Note_on_c, 9, 38, 0
17, 281592, Note_on_c, 9, 38, 57
17, 281610, Note_on_c, 9, 38, 0
17, 281616, Note_on_c, 9, 38, 57
17, 281634, Note_on_c, 9, 38, 0
17, 281640, Note_on_c, 9, 38, 57
17, 281658, Note_on_c, 9, 38, 0
17, 281664, Note_on_c, 9, 38, 57
17, 281760, Note_on_c, 9, 38, 0
17, 281856, Note_on_c, 9, 38, 57
17, 281952, Note_on_c, 9, 38, 0
17, 282048, Note_on_c, 9, 38, 57
17, 282240, Note_on_c, 9, 38, 0
17, 282432, Note_on_c, 9, 38, 57
17, 282450, Note_on_c, 9, 38, 0
17, 282456, Note_on_c, 9, 38, 57
17, 282474, Note_on_c, 9, 38, 0
17, 282480, Note_on_c, 9, 38, 57
17, 282498, Note_on_c, 9, 38, 0
17, 282504, Note_on_c, 9, 38, 57
17, 282522, Note_on_c, 9, 38, 0
17, 282528, Note_on_c, 9, 38, 57
17, 282546, Note_on_c, 9, 38, 0
17, 282552, Note_on_c, 9, 38, 57
17, 282570, Note_on_c, 9, 38, 0
17, 282576, Note_on_c, 9, 38, 57
17, 282594, Note_on_c, 9, 38, 0
17, 282600, Note_on_c, 9, 38, 57
17, 282618, Note_on_c, 9, 38, 0
17, 282624, Note_on_c, 9, 38, 57
17, 282642, Note_on_c, 9, 38, 0
17, 282648, Note_on_c, 9, 38, 57
17, 282666, Note_on_c, 9, 38, 0
17, 282672, Note_on_c, 9, 38, 57
17, 282690, Note_on_c, 9, 38, 0
17, 282696, Note_on_c, 9, 38, 57
17, 282714, Note_on_c, 9, 38, 0
17, 282720, Note_on_c, 9, 38, 57
17, 282738, Note_on_c, 9, 38, 0
17, 282744, Note_on_c, 9, 38, 57
17, 282762, Note_on_c, 9, 38, 0
17, 282768, Note_on_c, 9, 38, 57
17, 282786, Note_on_c, 9, 38, 0
17, 282792, Note_on_c, 9, 38, 57
17, 282810, Note_on_c, 9, 38, 0
17, 282816, Note_on_c, 9, 38, 57
17, 282912, Note_on_c, 9, 38, 0
17, 283008, Note_on_c, 9, 38, 57
17, 283104, Note_on_c, 9, 38, 0
17, 283200, Note_on_c, 9, 38, 57
17, 283218, Note_on_c, 9, 38, 0
17, 283224, Note_on_c, 9, 38, 57
17, 283242, Note_on_c, 9, 38, 0
17, 283248, Note_on_c, 9, 38, 57
17, 283266, Note_on_c, 9, 38, 0
17, 283272, Note_on_c, 9, 38, 57
17, 283290, Note_on_c, 9, 38, 0
17, 283296, Note_on_c, 9, 38, 57
17, 283314, Note_on_c, 9, 38, 0
17, 283320, Note_on_c, 9, 38, 57
17, 283338, Note_on_c, 9, 38, 0
17, 283344, Note_on_c, 9, 38, 57
17, 283362, Note_on_c, 9, 38, 0
17, 283368, Note_on_c, 9, 38, 57
17, 283386, Note_on_c, 9, 38, 0
17, 283392, Note_on_c, 9, 38, 57
17, 283410, Note_on_c, 9, 38, 0
17, 283416, Note_on_c, 9, 38, 57
17, 283434, Note_on_c, 9, 38, 0
17, 283440, Note_on_c, 9, 38, 57
17, 283458, Note_on_c, 9, 38, 0
17, 283464, Note_on_c, 9, 38, 57
17, 283482, Note_on_c, 9, 38, 0
17, 283488, Note_on_c, 9, 38, 57
17, 283506, Note_on_c, 9, 38, 0
17, 283512, Note_on_c, 9, 38, 57
17, 283530, Note_on_c, 9, 38, 0
17, 283536, Note_on_c, 9, 38, 57
17, 283554, Note_on_c, 9, 38, 0
17, 283560, Note_on_c, 9, 38, 57
17, 283578, Note_on_c, 9, 38, 0
17, 283584, Note_on_c, 9, 38, 57
17, 283680, Note_on_c, 9, 38, 0
17, 283776, Note_on_c, 9, 38, 57
17, 283872, Note_on_c, 9, 38, 0
17, 284160, Note_on_c, 9, 38, 54
17, 284184, Note_on_c, 9, 38, 0
17, 284184, Note_on_c, 9, 38, 54
17, 284208, Note_on_c, 9, 38, 0
17, 284208, Note_on_c, 9, 38, 54
17, 284232, Note_on_c, 9, 38, 0
17, 284232, Note_on_c, 9, 38, 52
17, 284256, Note_on_c, 9, 38, 0
17, 284256, Note_on_c, 9, 38, 52
17, 284280, Note_on_c, 9, 38, 0
17, 284280, Note_on_c, 9, 38, 54
17, 284304, Note_on_c, 9, 38, 0
17, 284304, Note_on_c, 9, 38, 54
17, 284328, Note_on_c, 9, 38, 0
17, 284328, Note_on_c, 9, 38, 54
17, 284352, Note_on_c, 9, 38, 0
17, 284352, Note_on_c, 9, 38, 57
17, 284448, Note_on_c, 9, 38, 0
17, 284496, Note_on_c, 9, 38, 51
17, 284520, Note_on_c, 9, 38, 0
17, 284520, Note_on_c, 9, 38, 51
17, 284544, Note_on_c, 9, 38, 0
17, 284544, Note_on_c, 9, 38, 51
17, 284640, Note_on_c, 9, 38, 0
17, 284688, Note_on_c, 9, 38, 51
17, 284712, Note_on_c, 9, 38, 0
17, 284712, Note_on_c, 9, 38, 53
17, 284736, Note_on_c, 9, 38, 0
17, 284736, Note_on_c, 9, 38, 53
17, 284832, Note_on_c, 9, 38, 0
17, 284880, Note_on_c, 9, 38, 58
17, 284904, Note_on_c, 9, 38, 0
17, 284904, Note_on_c, 9, 38, 58
17, 284928, Note_on_c, 9, 38, 0
17, 284928, Note_on_c, 9, 38, 58
17, 285024, Note_on_c, 9, 38, 0
17, 285072, Note_on_c, 9, 38, 58
17, 285096, Note_on_c, 9, 38, 0
17, 285096, Note_on_c, 9, 38, 58
17, 285120, Note_on_c, 9, 38, 0
17, 285120, Note_on_c, 9, 38, 58
17, 285216, Note_on_c, 9, 38, 0
17, 285264, Note_on_c, 9, 38, 58
17, 285288, Note_on_c, 9, 38, 0
17, 285288, Note_on_c, 9, 38, 58
17, 285312, Note_on_c, 9, 38, 0
17, 285312, Note_on_c, 9, 38, 57
17, 285408, Note_on_c, 9, 38, 0
17, 285504, Note_on_c, 9, 38, 41
17, 285632, Note_on_c, 9, 38, 0
17, 285632, Note_on_c, 9, 38, 41
17, 285760, Note_on_c, 9, 38, 0
17, 285760, Note_on_c, 9, 38, 40
17, 285888, Note_on_c, 9, 38, 0
17, 285888, Note_on_c, 9, 38, 40
17, 286016, Note_on_c, 9, 38, 0
17, 286016, Note_on_c, 9, 38, 42
17, 286144, Note_on_c, 9, 38, 0
17, 286144, Note_on_c, 9, 38, 40
17, 286272, Note_on_c, 9, 38, 0
17, 286272, Note_on_c, 9, 38, 42
17, 286400, Note_on_c, 9, 38, 0
17, 286400, Note_on_c, 9, 38, 42
17, 286528, Note_on_c, 9, 38, 0
17, 286528, Note_on_c, 9, 38, 40
17, 286656, Note_on_c, 9, 38, 0
17, 286656, Note_on_c, 9, 38, 40
17, 286784, Note_on_c, 9, 38, 0
17, 286784, Note_on_c, 9, 38, 37
17, 286912, Note_on_c, 9, 38, 0
17, 286912, Note_on_c, 9, 38, 40
17, 287040, Note_on_c, 9, 38, 0
17, 287040, Note_on_c, 9, 38, 43
17, 287168, Note_on_c, 9, 38, 0
17, 287424, Note_on_c, 9, 38, 43
17, 287552, Note_on_c, 9, 38, 0
17, 287808, Note_on_c, 9, 38, 57
17, 287936, Note_on_c, 9, 38, 0
17, 288192, Note_on_c, 9, 38, 57
17, 288320, Note_on_c, 9, 38, 0
17, 288768, Note_on_c, 9, 38, 54
17, 288792, Note_on_c, 9, 38, 0
17, 288792, Note_on_c, 9, 38, 54
17, 288816, Note_on_c, 9, 38, 0
17, 288816, Note_on_c, 9, 38, 54
17, 288840, Note_on_c, 9, 38, 0
17, 288840, Note_on_c, 9, 38, 52
17, 288864, Note_on_c, 9, 38, 0
17, 288864, Note_on_c, 9, 38, 52
17, 288888, Note_on_c, 9, 38, 0
17, 288888, Note_on_c, 9, 38, 54
17, 288912, Note_on_c, 9, 38, 0
17, 288912, Note_on_c, 9, 38, 54
17, 288936, Note_on_c, 9, 38, 0
17, 288936, Note_on_c, 9, 38, 54
17, 288960, Note_on_c, 9, 38, 0
17, 288960, Note_on_c, 9, 38, 57
17, 289152, Note_on_c, 9, 38, 0
17, 289152, Note_on_c, 9, 38, 57
17, 289344, Note_on_c, 9, 38, 0
17, 289536, Note_on_c, 9, 38, 54
17, 289560, Note_on_c, 9, 38, 0
17, 289560, Note_on_c, 9, 38, 54
17, 289584, Note_on_c, 9, 38, 0
17, 289584, Note_on_c, 9, 38, 54
17, 289608, Note_on_c, 9, 38, 0
17, 289608, Note_on_c, 9, 38, 52
17, 289632, Note_on_c, 9, 38, 0
17, 289632, Note_on_c, 9, 38, 52
17, 289656, Note_on_c, 9, 38, 0
17, 289656, Note_on_c, 9, 38, 54
17, 289680, Note_on_c, 9, 38, 0
17, 289680, Note_on_c, 9, 38, 54
17, 289704, Note_on_c, 9, 38, 0
17, 289704, Note_on_c, 9, 38, 54
17, 289728, Note_on_c, 9, 38, 0
17, 289728, Note_on_c, 9, 38, 57
17, 289920, Note_on_c, 9, 38, 0
17, 289920, Note_on_c, 9, 38, 57
17, 290112, Note_on_c, 9, 38, 0
17, 290112, Note_on_c, 9, 38, 46
17, 290304, Note_on_c, 9, 38, 0
17, 290496, Note_on_c, 9, 38, 44
17, 290688, Note_on_c, 9, 38, 0
17, 290880, Note_on_c, 9, 38, 44
17, 291072, Note_on_c, 9, 38, 0
17, 291264, Note_on_c, 9, 38, 44
17, 291456, Note_on_c, 9, 38, 0
17, 291648, Note_on_c, 9, 38, 44
17, 291840, Note_on_c, 9, 38, 0
17, 292032, Note_on_c, 9, 38, 44
17, 292224, Note_on_c, 9, 38, 0
17, 292416, Note_on_c, 9, 38, 46
17, 292608, Note_on_c, 9, 38, 0
17, 292800, Note_on_c, 9, 38, 46
17, 292992, Note_on_c, 9, 38, 0
17, 292992, Note_on_c, 9, 38, 57
17, 293184, Note_on_c, 9, 38, 0
17, 296256, Note_on_c, 9, 38, 35
17, 296280, Note_on_c, 9, 38, 0
17, 296280, Note_on_c, 9, 38, 35
17, 296304, Note_on_c, 9, 38, 0
17, 296304, Note_on_c, 9, 38, 35
17, 296328, Note_on_c, 9, 38, 0
17, 296328, Note_on_c, 9, 38, 35
17, 296352, Note_on_c, 9, 38, 0
17, 296352, Note_on_c, 9, 38, 35
17, 296376, Note_on_c, 9, 38, 0
17, 296376, Note_on_c, 9, 38, 35
17, 296400, Note_on_c, 9, 38, 0
17, 296400, Note_on_c, 9, 38, 35
17, 296424, Note_on_c, 9, 38, 0
17, 296424, Note_on_c, 9, 38, 35
17, 296448, Note_on_c, 9, 38, 0
17, 296448, Note_on_c, 9, 38, 35
17, 296472, Note_on_c, 9, 38, 0
17, 296472, Note_on_c, 9, 38, 35
17, 296496, Note_on_c, 9, 38, 0
17, 296496, Note_on_c, 9, 38, 35
17, 296520, Note_on_c, 9, 38, 0
17, 296520, Note_on_c, 9, 38, 35
17, 296544, Note_on_c, 9, 38, 0
17, 296544, Note_on_c, 9, 38, 35
17, 296568, Note_on_c, 9, 38, 0
17, 296568, Note_on_c, 9, 38, 35
17, 296592, Note_on_c, 9, 38, 0
17, 296592, Note_on_c, 9, 38, 35
17, 296616, Note_on_c, 9, 38, 0
17, 296616, Note_on_c, 9, 38, 35
17, 296640, Note_on_c, 9, 38, 0
17, 296640, Note_on_c, 9, 38, 35
17, 296664, Note_on_c, 9, 38, 0
17, 296664, Note_on_c, 9, 38, 35
17, 296688, Note_on_c, 9, 38, 0
17, 296688, Note_on_c, 9, 38, 35
17, 296712, Note_on_c, 9, 38, 0
17, 296712, Note_on_c, 9, 38, 35
17, 296736, Note_on_c, 9, 38, 0
17, 296736, Note_on_c, 9, 38, 35
17, 296760, Note_on_c, 9, 38, 0
17, 296760, Note_on_c, 9, 38, 35
17, 296784, Note_on_c, 9, 38, 0
17, 296784, Note_on_c, 9, 38, 35
17, 296808, Note_on_c, 9, 38, 0
17, 296808, Note_on_c, 9, 38, 35
17, 296832, Note_on_c, 9, 38, 0
17, 296832, Note_on_c, 9, 38, 35
17, 296856, Note_on_c, 9, 38, 0
17, 296856, Note_on_c, 9, 38, 35
17, 296880, Note_on_c, 9, 38, 0
17, 296880, Note_on_c, 9, 38, 35
17, 296904, Note_on_c, 9, 38, 0
17, 296904, Note_on_c, 9, 38, 35
17, 296928, Note_on_c, 9, 38, 0
17, 296928, Note_on_c, 9, 38, 35
17, 296952, Note_on_c, 9, 38, 0
17, 296952, Note_on_c, 9, 38, 35
17, 296976, Note_on_c, 9, 38, 0
17, 296976, Note_on_c, 9, 38, 35
17, 297000, Note_on_c, 9, 38, 0
17, 297000, Note_on_c, 9, 38, 35
17, 297024, Note_on_c, 9, 38, 0
17, 297024, Note_on_c, 9, 38, 35
17, 297048, Note_on_c, 9, 38, 0
17, 297048, Note_on_c, 9, 38, 35
17, 297072, Note_on_c, 9, 38, 0
17, 297072, Note_on_c, 9, 38, 35
17, 297096, Note_on_c, 9, 38, 0
17, 297096, Note_on_c, 9, 38, 35
17, 297120, Note_on_c, 9, 38, 0
17, 297120, Note_on_c, 9, 38, 35
17, 297144, Note_on_c, 9, 38, 0
17, 297144, Note_on_c, 9, 38, 35
17, 297168, Note_on_c, 9, 38, 0
17, 297168, Note_on_c, 9, 38, 35
17, 297192, Note_on_c, 9, 38, 0
17, 297192, Note_on_c, 9, 38, 35
17, 297216, Note_on_c, 9, 38, 0
17, 297216, Note_on_c, 9, 38, 35
17, 297240, Note_on_c, 9, 38, 0
17, 297240, Note_on_c, 9, 38, 35
17, 297264, Note_on_c, 9, 38, 0
17, 297264, Note_on_c, 9, 38, 35
17, 297288, Note_on_c, 9, 38, 0
17, 297288, Note_on_c, 9, 38, 35
17, 297312, Note_on_c, 9, 38, 0
17, 297312, Note_on_c, 9, 38, 35
17, 297336, Note_on_c, 9, 38, 0
17, 297336, Note_on_c, 9, 38, 35
17, 297360, Note_on_c, 9, 38, 0
17, 297360, Note_on_c, 9, 38, 35
17, 297360, Note_on_c, 9, 38, 35
17, 297384, Note_on_c, 9, 38, 0
17, 297384, Note_on_c, 9, 38, 35
17, 297408, Note_on_c, 9, 38, 0
17, 297408, Note_on_c, 9, 38, 35
17, 297432, Note_on_c, 9, 38, 0
17, 297432, Note_on_c, 9, 38, 35
17, 297456, Note_on_c, 9, 38, 0
17, 297456, Note_on_c, 9, 38, 35
17, 297480, Note_on_c, 9, 38, 0
17, 297480, Note_on_c, 9, 38, 35
17, 297504, Note_on_c, 9, 38, 0
17, 297504, Note_on_c, 9, 38, 35
17, 297528, Note_on_c, 9, 38, 0
17, 297528, Note_on_c, 9, 38, 35
17, 297552, Note_on_c, 9, 38, 0
17, 297552, Note_on_c, 9, 38, 0
17, 297552, Note_on_c, 9, 38, 35
17, 297576, Note_on_c, 9, 38, 0
17, 297576, Note_on_c, 9, 38, 35
17, 297600, Note_on_c, 9, 38, 0
17, 297600, Note_on_c, 9, 38, 35
17, 297624, Note_on_c, 9, 38, 0
17, 297624, Note_on_c, 9, 38, 35
17, 297648, Note_on_c, 9, 38, 0
17, 297648, Note_on_c, 9, 38, 35
17, 297672, Note_on_c, 9, 38, 0
17, 297672, Note_on_c, 9, 38, 35
17, 297696, Note_on_c, 9, 38, 0
17, 297696, Note_on_c, 9, 38, 35
17, 297720, Note_on_c, 9, 38, 0
17, 297720, Note_on_c, 9, 38, 35
17, 297744, Note_on_c, 9, 38, 0
17, 297744, Note_on_c, 9, 38, 35
17, 297768, Note_on_c, 9, 38, 0
17, 297768, Note_on_c, 9, 38, 35
17, 297792, Note_on_c, 9, 38, 0
17, 297792, Note_on_c, 9, 38, 35
17, 297816, Note_on_c, 9, 38, 0
17, 297816, Note_on_c, 9, 38, 35
17, 297840, Note_on_c, 9, 38, 0
17, 297840, Note_on_c, 9, 38, 35
17, 297864, Note_on_c, 9, 38, 0
17, 297864, Note_on_c, 9, 38, 35
17, 297888, Note_on_c, 9, 38, 0
17, 297888, Note_on_c, 9, 38, 35
17, 297912, Note_on_c, 9, 38, 0
17, 297912, Note_on_c, 9, 38, 35
17, 297936, Note_on_c, 9, 38, 0
17, 297936, Note_on_c, 9, 38, 35
17, 297960, Note_on_c, 9, 38, 0
17, 297960, Note_on_c, 9, 38, 35
17, 297984, Note_on_c, 9, 38, 0
17, 297984, Note_on_c, 9, 38, 35
17, 298008, Note_on_c, 9, 38, 0
17, 298008, Note_on_c, 9, 38, 35
17, 298032, Note_on_c, 9, 38, 0
17, 298032, Note_on_c, 9, 38, 35
17, 298056, Note_on_c, 9, 38, 0
17, 298056, Note_on_c, 9, 38, 35
17, 298080, Note_on_c, 9, 38, 0
17, 298080, Note_on_c, 9, 38, 35
17, 298104, Note_on_c, 9, 38, 0
17, 298104, Note_on_c, 9, 38, 35
17, 298128, Note_on_c, 9, 38, 0
17, 298128, Note_on_c, 9, 38, 35
17, 298152, Note_on_c, 9, 38, 0
17, 298152, Note_on_c, 9, 38, 35
17, 298176, Note_on_c, 9, 38, 0
17, 298176, Note_on_c, 9, 38, 35
17, 298200, Note_on_c, 9, 38, 0
17, 298200, Note_on_c, 9, 38, 35
17, 298224, Note_on_c, 9, 38, 0
17, 298224, Note_on_c, 9, 38, 35
17, 298248, Note_on_c, 9, 38, 0
17, 298248, Note_on_c, 9, 38, 35
17, 298272, Note_on_c, 9, 38, 0
17, 298272, Note_on_c, 9, 38, 35
17, 298296, Note_on_c, 9, 38, 0
17, 298296, Note_on_c, 9, 38, 35
17, 298320, Note_on_c, 9, 38, 0
17, 298320, Note_on_c, 9, 38, 35
17, 298344, Note_on_c, 9, 38, 0
17, 298344, Note_on_c, 9, 38, 35
17, 298368, Note_on_c, 9, 38, 0
17, 298368, Note_on_c, 9, 38, 35
17, 298392, Note_on_c, 9, 38, 0
17, 298392, Note_on_c, 9, 38, 35
17, 298416, Note_on_c, 9, 38, 0
17, 298416, Note_on_c, 9, 38, 35
17, 298440, Note_on_c, 9, 38, 0
17, 298440, Note_on_c, 9, 38, 35
17, 298464, Note_on_c, 9, 38, 0
17, 298464, Note_on_c, 9, 38, 35
17, 298488, Note_on_c, 9, 38, 0
17, 298488, Note_on_c, 9, 38, 35
17, 298512, Note_on_c, 9, 38, 0
17, 298512, Note_on_c, 9, 38, 35
17, 298536, Note_on_c, 9, 38, 0
17, 298536, Note_on_c, 9, 38, 35
17, 298560, Note_on_c, 9, 38, 0
17, 298560, Note_on_c, 9, 38, 35
17, 298584, Note_on_c, 9, 38, 0
17, 298584, Note_on_c, 9, 38, 35
17, 298608, Note_on_c, 9, 38, 0
17, 298608, Note_on_c, 9, 38, 35
17, 298632, Note_on_c, 9, 38, 0
17, 298632, Note_on_c, 9, 38, 35
17, 298656, Note_on_c, 9, 38, 0
17, 298656, Note_on_c, 9, 38, 35
17, 298680, Note_on_c, 9, 38, 0
17, 298680, Note_on_c, 9, 38, 35
17, 298704, Note_on_c, 9, 38, 0
17, 298704, Note_on_c, 9, 38, 35
17, 298728, Note_on_c, 9, 38, 0
17, 298728, Note_on_c, 9, 38, 35
17, 298752, Note_on_c, 9, 38, 0
17, 298752, Note_on_c, 9, 38, 35
17, 298776, Note_on_c, 9, 38, 0
17, 298776, Note_on_c, 9, 38, 35
17, 298800, Note_on_c, 9, 38, 0
17, 298800, Note_on_c, 9, 38, 35
17, 298824, Note_on_c, 9, 38, 0
17, 298824, Note_on_c, 9, 38, 35
17, 298848, Note_on_c, 9, 38, 0
17, 298848, Note_on_c, 9, 38, 35
17, 298872, Note_on_c, 9, 38, 0
17, 298872, Note_on_c, 9, 38, 35
17, 298896, Note_on_c, 9, 38, 0
17, 298896, Note_on_c, 9, 38, 35
17, 298920, Note_on_c, 9, 38, 0
17, 298920, Note_on_c, 9, 38, 35
17, 298944, Note_on_c, 9, 38, 0
17, 298944, Note_on_c, 9, 38, 35
17, 298968, Note_on_c, 9, 38, 0
17, 298968, Note_on_c, 9, 38, 35
17, 298968, Note_on_c, 9, 38, 35
17, 298992, Note_on_c, 9, 38, 0
17, 298992, Note_on_c, 9, 38, 35
17, 299016, Note_on_c, 9, 38, 0
17, 299016, Note_on_c, 9, 38, 35
17, 299040, Note_on_c, 9, 38, 0
17, 299040, Note_on_c, 9, 38, 35
17, 299064, Note_on_c, 9, 38, 0
17, 299064, Note_on_c, 9, 38, 0
17, 299064, Note_on_c, 9, 38, 35
17, 299088, Note_on_c, 9, 38, 0
17, 299088, Note_on_c, 9, 38, 35
17, 299112, Note_on_c, 9, 38, 0
17, 299112, Note_on_c, 9, 38, 35
17, 299136, Note_on_c, 9, 38, 0
17, 299136, Note_on_c, 9, 38, 35
17, 299160, Note_on_c, 9, 38, 0
17, 299160, Note_on_c, 9, 38, 35
17, 299184, Note_on_c, 9, 38, 0
17, 299184, Note_on_c, 9, 38, 35
17, 299208, Note_on_c, 9, 38, 0
17, 299208, Note_on_c, 9, 38, 35
17, 299232, Note_on_c, 9, 38, 0
17, 299232, Note_on_c, 9, 38, 35
17, 299256, Note_on_c, 9, 38, 0
17, 299256, Note_on_c, 9, 38, 35
17, 299280, Note_on_c, 9, 38, 0
17, 299280, Note_on_c, 9, 38, 35
17, 299304, Note_on_c, 9, 38, 0
17, 299304, Note_on_c, 9, 38, 35
17, 299328, Note_on_c, 9, 38, 0
17, 299328, Note_on_c, 9, 38, 35
17, 299328, Note_on_c, 9, 38, 35
17, 299352, Note_on_c, 9, 38, 0
17, 299352, Note_on_c, 9, 38, 0
17, 299352, Note_on_c, 9, 38, 35
17, 299352, Note_on_c, 9, 38, 35
17, 299376, Note_on_c, 9, 38, 0
17, 299376, Note_on_c, 9, 38, 0
17, 299376, Note_on_c, 9, 38, 35
17, 299376, Note_on_c, 9, 38, 35
17, 299400, Note_on_c, 9, 38, 0
17, 299400, Note_on_c, 9, 38, 0
17, 299400, Note_on_c, 9, 38, 35
17, 299400, Note_on_c, 9, 38, 35
17, 299424, Note_on_c, 9, 38, 0
17, 299424, Note_on_c, 9, 38, 0
17, 299424, Note_on_c, 9, 38, 35
17, 299424, Note_on_c, 9, 38, 35
17, 299448, Note_on_c, 9, 38, 0
17, 299448, Note_on_c, 9, 38, 0
17, 299448, Note_on_c, 9, 38, 35
17, 299448, Note_on_c, 9, 38, 35
17, 299472, Note_on_c, 9, 38, 0
17, 299472, Note_on_c, 9, 38, 0
17, 299472, Note_on_c, 9, 38, 35
17, 299472, Note_on_c, 9, 38, 35
17, 299496, Note_on_c, 9, 38, 0
17, 299496, Note_on_c, 9, 38, 0
17, 299496, Note_on_c, 9, 38, 35
17, 299496, Note_on_c, 9, 38, 35
17, 299520, Note_on_c, 9, 38, 0
17, 299520, Note_on_c, 9, 38, 0
17, 299520, Note_on_c, 9, 38, 35
17, 299520, Note_on_c, 9, 38, 35
17, 299544, Note_on_c, 9, 38, 0
17, 299544, Note_on_c, 9, 38, 0
17, 299544, Note_on_c, 9, 38, 35
17, 299544, Note_on_c, 9, 38, 35
17, 299568, Note_on_c, 9, 38, 0
17, 299568, Note_on_c, 9, 38, 0
17, 299568, Note_on_c, 9, 38, 35
17, 299568, Note_on_c, 9, 38, 35
17, 299592, Note_on_c, 9, 38, 0
17, 299592, Note_on_c, 9, 38, 0
17, 299592, Note_on_c, 9, 38, 35
17, 299592, Note_on_c, 9, 38, 35
17, 299616, Note_on_c, 9, 38, 0
17, 299616, Note_on_c, 9, 38, 0
17, 299616, Note_on_c, 9, 38, 35
17, 299616, Note_on_c, 9, 38, 35
17, 299640, Note_on_c, 9, 38, 0
17, 299640, Note_on_c, 9, 38, 0
17, 299640, Note_on_c, 9, 38, 35
17, 299640, Note_on_c, 9, 38, 35
17, 299664, Note_on_c, 9, 38, 0
17, 299664, Note_on_c, 9, 38, 0
17, 299664, Note_on_c, 9, 38, 35
17, 299664, Note_on_c, 9, 38, 35
17, 299664, Note_on_c, 9, 38, 35
17, 299688, Note_on_c, 9, 38, 0
17, 299688, Note_on_c, 9, 38, 0
17, 299688, Note_on_c, 9, 38, 35
17, 299688, Note_on_c, 9, 38, 35
17, 299712, Note_on_c, 9, 38, 0
17, 299712, Note_on_c, 9, 38, 0
17, 299712, Note_on_c, 9, 38, 35
17, 299712, Note_on_c, 9, 38, 35
17, 299736, Note_on_c, 9, 38, 0
17, 299736, Note_on_c, 9, 38, 0
17, 299736, Note_on_c, 9, 38, 35
17, 299736, Note_on_c, 9, 38, 35
17, 299760, Note_on_c, 9, 38, 0
17, 299760, Note_on_c, 9, 38, 0
17, 299760, Note_on_c, 9, 38, 35
17, 299760, Note_on_c, 9, 38, 35
17, 299784, Note_on_c, 9, 38, 0
17, 299784, Note_on_c, 9, 38, 0
17, 299784, Note_on_c, 9, 38, 35
17, 299784, Note_on_c, 9, 38, 35
17, 299808, Note_on_c, 9, 38, 0
17, 299808, Note_on_c, 9, 38, 0
17, 299808, Note_on_c, 9, 38, 35
17, 299808, Note_on_c, 9, 38, 35
17, 299832, Note_on_c, 9, 38, 0
17, 299832, Note_on_c, 9, 38, 0
17, 299832, Note_on_c, 9, 38, 35
17, 299832, Note_on_c, 9, 38, 35
17, 299856, Note_on_c, 9, 38, 0
17, 299856, Note_on_c, 9, 38, 0
17, 299856, Note_on_c, 9, 38, 0
17, 299856, Note_on_c, 9, 38, 35
17, 299856, Note_on_c, 9, 38, 35
17, 299880, Note_on_c, 9, 38, 0
17, 299880, Note_on_c, 9, 38, 0
17, 299880, Note_on_c, 9, 38, 35
17, 299880, Note_on_c, 9, 38, 35
17, 299904, Note_on_c, 9, 38, 0
17, 299904, Note_on_c, 9, 38, 0
17, 299904, Note_on_c, 9, 38, 35
17, 299904, Note_on_c, 9, 38, 35
17, 299928, Note_on_c, 9, 38, 0
17, 299928, Note_on_c, 9, 38, 0
17, 299928, Note_on_c, 9, 38, 35
17, 299928, Note_on_c, 9, 38, 35
17, 299952, Note_on_c, 9, 38, 0
17, 299952, Note_on_c, 9, 38, 0
17, 299952, Note_on_c, 9, 38, 35
17, 299952, Note_on_c, 9, 38, 35
17, 299976, Note_on_c, 9, 38, 0
17, 299976, Note_on_c, 9, 38, 0
17, 299976, Note_on_c, 9, 38, 35
17, 299976, Note_on_c, 9, 38, 35
17, 300000, Note_on_c, 9, 38, 0
17, 300000, Note_on_c, 9, 38, 0
17, 300000, Note_on_c, 9, 38, 35
17, 300000, Note_on_c, 9, 38, 35
17, 300024, Note_on_c, 9, 38, 0
17, 300024, Note_on_c, 9, 38, 0
17, 300024, Note_on_c, 9, 38, 35
17, 300024, Note_on_c, 9, 38, 35
17, 300048, Note_on_c, 9, 38, 0
17, 300048, Note_on_c, 9, 38, 0
17, 300048, Note_on_c, 9, 38, 35
17, 300048, Note_on_c, 9, 38, 35
17, 300072, Note_on_c, 9, 38, 0
17, 300072, Note_on_c, 9, 38, 0
17, 300072, Note_on_c, 9, 38, 35
17, 300072, Note_on_c, 9, 38, 35
17, 300096, Note_on_c, 9, 38, 0
17, 300096, Note_on_c, 9, 38, 0
17, 300096, Note_on_c, 9, 38, 35
17, 300120, Note_on_c, 9, 38, 0
17, 300120, Note_on_c, 9, 38, 35
17, 300144, Note_on_c, 9, 38, 0
17, 300144, Note_on_c, 9, 38, 35
17, 300168, Note_on_c, 9, 38, 0
17, 300168, Note_on_c, 9, 38, 35
17, 300192, Note_on_c, 9, 38, 0
17, 300192, Note_on_c, 9, 38, 35
17, 300216, Note_on_c, 9, 38, 0
17, 300216, Note_on_c, 9, 38, 35
17, 300240, Note_on_c, 9, 38, 0
17, 300240, Note_on_c, 9, 38, 35
17, 300264, Note_on_c, 9, 38, 0
17, 300264, Note_on_c, 9, 38, 35
17, 300288, Note_on_c, 9, 38, 0
17, 300288, Note_on_c, 9, 38, 35
17, 300312, Note_on_c, 9, 38, 0
17, 300312, Note_on_c, 9, 38, 35
17, 300336, Note_on_c, 9, 38, 0
17, 300336, Note_on_c, 9, 38, 35
17, 300360, Note_on_c, 9, 38, 0
17, 300360, Note_on_c, 9, 38, 35
17, 300384, Note_on_c, 9, 38, 0
17, 300384, Note_on_c, 9, 38, 35
17, 300408, Note_on_c, 9, 38, 0
17, 300408, Note_on_c, 9, 38, 35
17, 300432, Note_on_c, 9, 38, 0
17, 300432, Note_on_c, 9, 38, 35
17, 300456, Note_on_c, 9, 38, 0
17, 300456, Note_on_c, 9, 38, 35
17, 300480, Note_on_c, 9, 38, 0
17, 300480, Note_on_c, 9, 38, 35
17, 300504, Note_on_c, 9, 38, 0
17, 300504, Note_on_c, 9, 38, 35
17, 300528, Note_on_c, 9, 38, 0
17, 300528, Note_on_c, 9, 38, 35
17, 300552, Note_on_c, 9, 38, 0
17, 300552, Note_on_c, 9, 38, 35
17, 300576, Note_on_c, 9, 38, 0
17, 300576, Note_on_c, 9, 38, 35
17, 300600, Note_on_c, 9, 38, 0
17, 300600, Note_on_c, 9, 38, 35
17, 300624, Note_on_c, 9, 38, 0
17, 300624, Note_on_c, 9, 38, 35
17, 300648, Note_on_c, 9, 38, 0
17, 300648, Note_on_c, 9, 38, 35
17, 300672, Note_on_c, 9, 38, 0
17, 300672, Note_on_c, 9, 38, 35
17, 300696, Note_on_c, 9, 38, 0
17, 300696, Note_on_c, 9, 38, 35
17, 300720, Note_on_c, 9, 38, 0
17, 300720, Note_on_c, 9, 38, 35
17, 300744, Note_on_c, 9, 38, 0
17, 300744, Note_on_c, 9, 38, 35
17, 300768, Note_on_c, 9, 38, 0
17, 300768, Note_on_c, 9, 38, 35
17, 300792, Note_on_c, 9, 38, 0
17, 300792, Note_on_c, 9, 38, 35
17, 300816, Note_on_c, 9, 38, 0
17, 300816, Note_on_c, 9, 38, 35
17, 300840, Note_on_c, 9, 38, 0
17, 300840, Note_on_c, 9, 38, 35
17, 300864, Note_on_c, 9, 38, 0
17, 300864, Note_on_c, 9, 38, 35
17, 300888, Note_on_c, 9, 38, 0
17, 300888, Note_on_c, 9, 38, 35
17, 300912, Note_on_c, 9, 38, 0
17, 300912, Note_on_c, 9, 38, 35
17, 300936, Note_on_c, 9, 38, 0
17, 300936, Note_on_c, 9, 38, 35
17, 300960, Note_on_c, 9, 38, 0
17, 300960, Note_on_c, 9, 38, 35
17, 300984, Note_on_c, 9, 38, 0
17, 300984, Note_on_c, 9, 38, 35
17, 301008, Note_on_c, 9, 38, 0
17, 301008, Note_on_c, 9, 38, 35
17, 301032, Note_on_c, 9, 38, 0
17, 301032, Note_on_c, 9, 38, 35
17, 301056, Note_on_c, 9, 38, 0
17, 301056, Note_on_c, 9, 38, 35
17, 301080, Note_on_c, 9, 38, 0
17, 301080, Note_on_c, 9, 38, 35
17, 301104, Note_on_c, 9, 38, 0
17, 301104, Note_on_c, 9, 38, 35
17, 301128, Note_on_c, 9, 38, 0
17, 301128, Note_on_c, 9, 38, 35
17, 301152, Note_on_c, 9, 38, 0
17, 301152, Note_on_c, 9, 38, 35
17, 301176, Note_on_c, 9, 38, 0
17, 301176, Note_on_c, 9, 38, 35
17, 301200, Note_on_c, 9, 38, 0
17, 301200, Note_on_c, 9, 38, 35
17, 301224, Note_on_c, 9, 38, 0
17, 301224, Note_on_c, 9, 38, 35
17, 301248, Note_on_c, 9, 38, 0
17, 301248, Note_on_c, 9, 38, 35
17, 301272, Note_on_c, 9, 38, 0
17, 301272, Note_on_c, 9, 38, 35
17, 301272, Note_on_c, 9, 38, 35
17, 301296, Note_on_c, 9, 38, 0
17, 301296, Note_on_c, 9, 38, 35
17, 301320, Note_on_c, 9, 38, 0
17, 301320, Note_on_c, 9, 38, 35
17, 301344, Note_on_c, 9, 38, 0
17, 301344, Note_on_c, 9, 38, 35
17, 301368, Note_on_c, 9, 38, 0
17, 301368, Note_on_c, 9, 38, 0
17, 301368, Note_on_c, 9, 38, 35
17, 301392, Note_on_c, 9, 38, 0
17, 301392, Note_on_c, 9, 38, 35
17, 301416, Note_on_c, 9, 38, 0
17, 301416, Note_on_c, 9, 38, 35
17, 301440, Note_on_c, 9, 38, 0
17, 301440, Note_on_c, 9, 38, 35
17, 301464, Note_on_c, 9, 38, 0
17, 301464, Note_on_c, 9, 38, 35
17, 301488, Note_on_c, 9, 38, 0
17, 301488, Note_on_c, 9, 38, 35
17, 301512, Note_on_c, 9, 38, 0
17, 301512, Note_on_c, 9, 38, 35
17, 301536, Note_on_c, 9, 38, 0
17, 301536, Note_on_c, 9, 38, 35
17, 301560, Note_on_c, 9, 38, 0
17, 301560, Note_on_c, 9, 38, 35
17, 301584, Note_on_c, 9, 38, 0
17, 301584, Note_on_c, 9, 38, 35
17, 301608, Note_on_c, 9, 38, 0
17, 301608, Note_on_c, 9, 38, 35
17, 301632, Note_on_c, 9, 38, 0
17, 301632, End_track
18, 0, Start_track
18, 0, MIDI_port, 0
18, 0, Title_t, "Cymbals"
18, 0, Control_c, 9, 7, 127
18, 0, Control_c, 9, 10, 32
18, 384, Control_c, 9, 7, 127
18, 172032, Note_on_c, 9, 55, 111
18, 172032, Note_on_c, 9, 49, 97
18, 172800, Note_on_c, 9, 49, 0
18, 172800, Note_on_c, 9, 55, 0
18, 173568, Note_on_c, 9, 55, 111
18, 173568, Note_on_c, 9, 49, 97
18, 174336, Note_on_c, 9, 49, 0
18, 174336, Note_on_c, 9, 55, 0
18, 175104, Note_on_c, 9, 55, 111
18, 175104, Note_on_c, 9, 49, 97
18, 175872, Note_on_c, 9, 49, 0
18, 175872, Note_on_c, 9, 55, 0
18, 176640, Note_on_c, 9, 55, 111
18, 176640, Note_on_c, 9, 49, 97
18, 177408, Note_on_c, 9, 49, 0
18, 177408, Note_on_c, 9, 55, 0
18, 177408, Note_on_c, 9, 55, 111
18, 177408, Note_on_c, 9, 49, 97
18, 178176, Note_on_c, 9, 49, 0
18, 178176, Note_on_c, 9, 55, 0
18, 178176, Note_on_c, 9, 55, 111
18, 178176, Note_on_c, 9, 49, 97
18, 178944, Note_on_c, 9, 49, 0
18, 178944, Note_on_c, 9, 55, 0
18, 178944, Note_on_c, 9, 55, 111
18, 178944, Note_on_c, 9, 49, 97
18, 179712, Note_on_c, 9, 49, 0
18, 179712, Note_on_c, 9, 55, 0
18, 180480, Note_on_c, 9, 55, 111
18, 180480, Note_on_c, 9, 49, 97
18, 180864, Note_on_c, 9, 49, 0
18, 180864, Note_on_c, 9, 55, 0
18, 180864, Note_on_c, 9, 55, 111
18, 180864, Note_on_c, 9, 49, 97
18, 181248, Note_on_c, 9, 49, 0
18, 181248, Note_on_c, 9, 55, 0
18, 181248, Note_on_c, 9, 55, 111
18, 181248, Note_on_c, 9, 49, 97
18, 182016, Note_on_c, 9, 49, 0
18, 182016, Note_on_c, 9, 55, 0
18, 182976, Note_on_c, 9, 55, 111
18, 182976, Note_on_c, 9, 49, 75
18, 183456, Note_on_c, 9, 49, 0
18, 183456, Note_on_c, 9, 55, 0
18, 183456, Note_on_c, 9, 55, 111
18, 183456, Note_on_c, 9, 49, 75
18, 183552, Note_on_c, 9, 49, 0
18, 183552, Note_on_c, 9, 55, 0
18, 183648, Note_on_c, 9, 55, 111
18, 183648, Note_on_c, 9, 49, 75
18, 183840, Note_on_c, 9, 49, 0
18, 183840, Note_on_c, 9, 55, 0
18, 183840, Note_on_c, 9, 55, 111
18, 183840, Note_on_c, 9, 49, 75
18, 184032, Note_on_c, 9, 49, 0
18, 184032, Note_on_c, 9, 55, 0
18, 184032, Note_on_c, 9, 55, 111
18, 184032, Note_on_c, 9, 49, 75
18, 184128, Note_on_c, 9, 49, 0
18, 184128, Note_on_c, 9, 55, 0
18, 184128, Note_on_c, 9, 55, 111
18, 184128, Note_on_c, 9, 49, 75
18, 184320, Note_on_c, 9, 49, 0
18, 184320, Note_on_c, 9, 55, 0
18, 184416, Note_on_c, 9, 55, 111
18, 184416, Note_on_c, 9, 49, 75
18, 184512, Note_on_c, 9, 49, 0
18, 184512, Note_on_c, 9, 55, 0
18, 184512, Note_on_c, 9, 55, 111
18, 184512, Note_on_c, 9, 49, 75
18, 184800, Note_on_c, 9, 49, 0
18, 184800, Note_on_c, 9, 55, 0
18, 184800, Note_on_c, 9, 55, 111
18, 184800, Note_on_c, 9, 49, 75
18, 184896, Note_on_c, 9, 49, 0
18, 184896, Note_on_c, 9, 55, 0
18, 184896, Note_on_c, 9, 55, 111
18, 184896, Note_on_c, 9, 49, 75
18, 185088, Note_on_c, 9, 49, 0
18, 185088, Note_on_c, 9, 55, 0
18, 185184, Note_on_c, 9, 55, 111
18, 185184, Note_on_c, 9, 49, 75
18, 185280, Note_on_c, 9, 49, 0
18, 185280, Note_on_c, 9, 55, 0
18, 185280, Note_on_c, 9, 55, 111
18, 185280, Note_on_c, 9, 49, 75
18, 185568, Note_on_c, 9, 49, 0
18, 185568, Note_on_c, 9, 55, 0
18, 185568, Note_on_c, 9, 55, 111
18, 185568, Note_on_c, 9, 49, 75
18, 185664, Note_on_c, 9, 49, 0
18, 185664, Note_on_c, 9, 55, 0
18, 185664, Note_on_c, 9, 55, 111
18, 185664, Note_on_c, 9, 49, 75
18, 185856, Note_on_c, 9, 49, 0
18, 185856, Note_on_c, 9, 55, 0
18, 185952, Note_on_c, 9, 55, 111
18, 185952, Note_on_c, 9, 49, 75
18, 186048, Note_on_c, 9, 49, 0
18, 186048, Note_on_c, 9, 55, 0
18, 186048, Note_on_c, 9, 55, 111
18, 186048, Note_on_c, 9, 49, 75
18, 186336, Note_on_c, 9, 49, 0
18, 186336, Note_on_c, 9, 55, 0
18, 186336, Note_on_c, 9, 55, 111
18, 186336, Note_on_c, 9, 49, 75
18, 186528, Note_on_c, 9, 49, 0
18, 186528, Note_on_c, 9, 55, 0
18, 186528, Note_on_c, 9, 55, 111
18, 186528, Note_on_c, 9, 49, 75
18, 186624, Note_on_c, 9, 55, 0
18, 186720, Note_on_c, 9, 49, 0
18, 186720, Note_on_c, 9, 55, 111
18, 186720, Note_on_c, 9, 49, 75
18, 186912, Note_on_c, 9, 49, 0
18, 186912, Note_on_c, 9, 55, 0
18, 186912, Note_on_c, 9, 55, 111
18, 186912, Note_on_c, 9, 49, 97
18, 187008, Note_on_c, 9, 49, 0
18, 187008, Note_on_c, 9, 55, 0
18, 187008, Note_on_c, 9, 55, 111
18, 187008, Note_on_c, 9, 49, 111
18, 187392, Note_on_c, 9, 49, 0
18, 187392, Note_on_c, 9, 55, 0
18, 187392, End_track
19, 0, Start_track
19, 0, MIDI_port, 0
19, 0, Title_t, "Trumpets"
19, 0, Program_c, 10, 61
19, 0, Control_c, 10, 7, 98
19, 0, Control_c, 10, 10, 88
19, 20160, Note_on_c, 10, 72, 77
19, 20256, Note_on_c, 10, 72, 0
19, 34176, Note_on_c, 10, 69, 114
19, 34464, Note_on_c, 10, 69, 0
19, 34464, Note_on_c, 10, 68, 114
19, 34560, Note_on_c, 10, 68, 0
19, 34560, Note_on_c, 10, 64, 114
19, 34656, Note_on_c, 10, 64, 0
19, 34656, Note_on_c, 10, 63, 114
19, 34752, Note_on_c, 10, 63, 0
19, 34752, Note_on_c, 10, 61, 114
19, 34848, Note_on_c, 10, 61, 0
19, 34848, Note_on_c, 10, 60, 114
19, 34944, Note_on_c, 10, 60, 0
19, 34944, Note_on_c, 10, 61, 114
19, 35040, Note_on_c, 10, 61, 0
19, 35040, Note_on_c, 10, 64, 114
19, 35136, Note_on_c, 10, 64, 0
19, 35136, Note_on_c, 10, 68, 114
19, 35280, Note_on_c, 10, 68, 0
19, 35280, Note_on_c, 10, 73, 114
19, 35328, Note_on_c, 10, 73, 0
19, 35328, Note_on_c, 10, 76, 114
19, 35424, Note_on_c, 10, 76, 0
19, 35424, Note_on_c, 10, 73, 114
19, 35424, Note_on_c, 10, 71, 114
19, 35520, Note_on_c, 10, 71, 0
19, 35520, Note_on_c, 10, 73, 0
19, 35520, Note_on_c, 10, 73, 114
19, 35520, Note_on_c, 10, 71, 114
19, 35616, Note_on_c, 10, 71, 0
19, 35616, Note_on_c, 10, 73, 0
19, 35616, Note_on_c, 10, 73, 114
19, 35616, Note_on_c, 10, 71, 114
19, 35712, Note_on_c, 10, 71, 0
19, 35712, Note_on_c, 10, 73, 0
19, 35712, Note_on_c, 10, 69, 114
19, 35712, Note_on_c, 10, 73, 114
19, 35808, Note_on_c, 10, 73, 0
19, 35808, Note_on_c, 10, 69, 0
19, 37056, Note_on_c, 10, 74, 114
19, 37344, Note_on_c, 10, 74, 0
19, 37344, Note_on_c, 10, 73, 114
19, 37440, Note_on_c, 10, 73, 0
19, 37440, Note_on_c, 10, 69, 114
19, 37536, Note_on_c, 10, 69, 0
19, 37536, Note_on_c, 10, 68, 114
19, 37632, Note_on_c, 10, 68, 0
19, 37632, Note_on_c, 10, 66, 114
19, 37728, Note_on_c, 10, 66, 0
19, 37728, Note_on_c, 10, 78, 114
19, 37728, Note_on_c, 10, 76, 114
19, 37824, Note_on_c, 10, 76, 0
19, 37824, Note_on_c, 10, 78, 0
19, 37824, Note_on_c, 10, 78, 114
19, 37824, Note_on_c, 10, 76, 114
19, 37920, Note_on_c, 10, 76, 0
19, 37920, Note_on_c, 10, 78, 0
19, 37920, Note_on_c, 10, 78, 114
19, 37920, Note_on_c, 10, 76, 114
19, 38016, Note_on_c, 10, 76, 0
19, 38016, Note_on_c, 10, 78, 0
19, 38016, Note_on_c, 10, 74, 114
19, 38016, Note_on_c, 10, 78, 114
19, 38112, Note_on_c, 10, 78, 0
19, 38112, Note_on_c, 10, 74, 0
19, 38400, Note_on_c, 10, 76, 95
19, 38544, Note_on_c, 10, 76, 0
19, 38544, Note_on_c, 10, 74, 95
19, 38592, Note_on_c, 10, 74, 0
19, 38592, Note_on_c, 10, 67, 95
19, 38688, Note_on_c, 10, 67, 0
19, 38784, Note_on_c, 10, 77, 95
19, 38928, Note_on_c, 10, 77, 0
19, 38928, Note_on_c, 10, 76, 95
19, 38976, Note_on_c, 10, 76, 0
19, 38976, Note_on_c, 10, 69, 95
19, 39072, Note_on_c, 10, 69, 0
19, 39168, Note_on_c, 10, 79, 95
19, 39312, Note_on_c, 10, 79, 0
19, 39312, Note_on_c, 10, 78, 95
19, 39360, Note_on_c, 10, 78, 0
19, 39360, Note_on_c, 10, 72, 95
19, 39456, Note_on_c, 10, 72, 0
19, 39456, Note_on_c, 10, 60, 95
19, 39552, Note_on_c, 10, 60, 0
19, 39552, Note_on_c, 10, 63, 95
19, 39648, Note_on_c, 10, 63, 0
19, 39648, Note_on_c, 10, 66, 95
19, 39744, Note_on_c, 10, 66, 0
19, 39744, Note_on_c, 10, 69, 95
19, 39840, Note_on_c, 10, 69, 0
19, 39840, Note_on_c, 10, 72, 95
19, 39840, Note_on_c, 10, 60, 95
19, 39936, Note_on_c, 10, 60, 0
19, 39936, Note_on_c, 10, 72, 0
19, 39936, Note_on_c, 10, 75, 95
19, 39936, Note_on_c, 10, 63, 95
19, 40032, Note_on_c, 10, 63, 0
19, 40032, Note_on_c, 10, 75, 0
19, 40032, Note_on_c, 10, 78, 95
19, 40032, Note_on_c, 10, 66, 95
19, 40128, Note_on_c, 10, 66, 0
19, 40128, Note_on_c, 10, 78, 0
19, 40128, Note_on_c, 10, 75, 95
19, 40128, Note_on_c, 10, 78, 95
19, 40224, Note_on_c, 10, 78, 0
19, 40224, Note_on_c, 10, 75, 0
19, 40224, Note_on_c, 10, 75, 95
19, 40224, Note_on_c, 10, 78, 95
19, 40320, Note_on_c, 10, 78, 0
19, 40320, Note_on_c, 10, 75, 0
19, 40320, Note_on_c, 10, 78, 95
19, 40320, Note_on_c, 10, 75, 95
19, 40512, Note_on_c, 10, 75, 0
19, 40512, Note_on_c, 10, 78, 0
19, 40512, Note_on_c, 10, 78, 95
19, 40512, Note_on_c, 10, 75, 95
19, 40704, Note_on_c, 10, 75, 0
19, 40704, Note_on_c, 10, 78, 0
19, 52224, Note_on_c, 10, 63, 22
19, 52608, Note_on_c, 10, 63, 0
19, 52992, Note_on_c, 10, 63, 22
19, 53376, Note_on_c, 10, 63, 0
19, 53760, Note_on_c, 10, 63, 22
19, 54144, Note_on_c, 10, 63, 0
19, 54528, Note_on_c, 10, 63, 22
19, 54912, Note_on_c, 10, 63, 0
19, 74400, Note_on_c, 10, 75, 95
19, 74400, Note_on_c, 10, 63, 95
19, 74496, Note_on_c, 10, 63, 0
19, 74496, Note_on_c, 10, 75, 0
19, 74496, Note_on_c, 10, 63, 95
19, 74496, Note_on_c, 10, 75, 95
19, 74592, Note_on_c, 10, 75, 0
19, 74592, Note_on_c, 10, 63, 0
19, 74688, Note_on_c, 10, 75, 95
19, 74688, Note_on_c, 10, 63, 95
19, 74880, Note_on_c, 10, 63, 0
19, 74880, Note_on_c, 10, 75, 0
19, 75072, Note_on_c, 10, 70, 95
19, 75072, Note_on_c, 10, 58, 95
19, 75168, Note_on_c, 10, 58, 0
19, 75168, Note_on_c, 10, 70, 0
19, 75264, Note_on_c, 10, 70, 95
19, 75264, Note_on_c, 10, 58, 95
19, 75360, Note_on_c, 10, 58, 0
19, 75360, Note_on_c, 10, 70, 0
19, 75456, Note_on_c, 10, 70, 95
19, 75456, Note_on_c, 10, 58, 95
19, 75552, Note_on_c, 10, 58, 0
19, 75552, Note_on_c, 10, 70, 0
19, 85728, Note_on_c, 10, 60, 92
19, 85776, Note_on_c, 10, 60, 0
19, 85776, Note_on_c, 10, 60, 92
19, 85824, Note_on_c, 10, 60, 0
19, 85824, Note_on_c, 10, 60, 92
19, 85920, Note_on_c, 10, 60, 0
19, 85920, Note_on_c, 10, 60, 92
19, 86016, Note_on_c, 10, 60, 0
19, 86016, Note_on_c, 10, 65, 92
19, 86208, Note_on_c, 10, 65, 0
19, 86208, Note_on_c, 10, 65, 92
19, 86400, Note_on_c, 10, 65, 0
19, 86400, Note_on_c, 10, 67, 92
19, 86592, Note_on_c, 10, 67, 0
19, 86592, Note_on_c, 10, 67, 92
19, 86784, Note_on_c, 10, 67, 0
19, 86784, Note_on_c, 10, 72, 92
19, 87072, Note_on_c, 10, 72, 0
19, 87072, Note_on_c, 10, 69, 92
19, 87168, Note_on_c, 10, 69, 0
19, 87168, Note_on_c, 10, 65, 92
19, 87264, Note_on_c, 10, 65, 0
19, 87264, Note_on_c, 10, 65, 92
19, 87360, Note_on_c, 10, 65, 0
19, 87360, Note_on_c, 10, 69, 92
19, 87456, Note_on_c, 10, 69, 0
19, 87456, Note_on_c, 10, 65, 92
19, 87552, Note_on_c, 10, 65, 0
19, 87552, Note_on_c, 10, 62, 92
19, 87744, Note_on_c, 10, 62, 0
19, 87744, Note_on_c, 10, 70, 92
19, 87936, Note_on_c, 10, 70, 0
19, 87936, Note_on_c, 10, 69, 92
19, 88128, Note_on_c, 10, 69, 0
19, 88128, Note_on_c, 10, 67, 92
19, 88320, Note_on_c, 10, 67, 0
19, 88320, Note_on_c, 10, 65, 92
19, 88752, Note_on_c, 10, 65, 0
19, 88800, Note_on_c, 10, 53, 48
19, 88800, Note_on_c, 10, 65, 92
19, 88848, Note_on_c, 10, 65, 0
19, 88848, Note_on_c, 10, 53, 0
19, 88848, Note_on_c, 10, 53, 48
19, 88848, Note_on_c, 10, 65, 92
19, 88896, Note_on_c, 10, 65, 0
19, 88896, Note_on_c, 10, 53, 0
19, 88896, Note_on_c, 10, 53, 48
19, 88896, Note_on_c, 10, 65, 92
19, 88992, Note_on_c, 10, 65, 0
19, 88992, Note_on_c, 10, 53, 0
19, 88992, Note_on_c, 10, 53, 48
19, 88992, Note_on_c, 10, 65, 92
19, 89088, Note_on_c, 10, 65, 0
19, 89088, Note_on_c, 10, 53, 0
19, 89088, Note_on_c, 10, 57, 48
19, 89088, Note_on_c, 10, 69, 92
19, 89472, Note_on_c, 10, 69, 0
19, 89472, Note_on_c, 10, 57, 0
19, 89568, Note_on_c, 10, 57, 48
19, 89568, Note_on_c, 10, 69, 92
19, 89616, Note_on_c, 10, 69, 0
19, 89616, Note_on_c, 10, 57, 0
19, 89616, Note_on_c, 10, 57, 48
19, 89616, Note_on_c, 10, 69, 92
19, 89664, Note_on_c, 10, 69, 0
19, 89664, Note_on_c, 10, 57, 0
19, 89664, Note_on_c, 10, 57, 48
19, 89664, Note_on_c, 10, 69, 92
19, 89760, Note_on_c, 10, 69, 0
19, 89760, Note_on_c, 10, 57, 0
19, 89760, Note_on_c, 10, 57, 48
19, 89760, Note_on_c, 10, 69, 92
19, 89856, Note_on_c, 10, 69, 0
19, 89856, Note_on_c, 10, 57, 0
19, 89856, Note_on_c, 10, 72, 114
19, 89856, Note_on_c, 10, 60, 48
19, 90240, Note_on_c, 10, 60, 0
19, 90240, Note_on_c, 10, 72, 0
19, 90336, Note_on_c, 10, 72, 114
19, 90336, Note_on_c, 10, 60, 48
19, 90384, Note_on_c, 10, 60, 0
19, 90384, Note_on_c, 10, 72, 0
19, 90384, Note_on_c, 10, 60, 48
19, 90384, Note_on_c, 10, 72, 114
19, 90432, Note_on_c, 10, 72, 0
19, 90432, Note_on_c, 10, 60, 0
19, 90432, Note_on_c, 10, 60, 48
19, 90432, Note_on_c, 10, 72, 114
19, 90528, Note_on_c, 10, 72, 0
19, 90528, Note_on_c, 10, 60, 0
19, 90528, Note_on_c, 10, 72, 114
19, 90528, Note_on_c, 10, 60, 48
19, 90624, Note_on_c, 10, 60, 0
19, 90624, Note_on_c, 10, 72, 0
19, 90624, Note_on_c, 10, 75, 114
19, 90624, Note_on_c, 10, 63, 62
19, 90912, Note_on_c, 10, 63, 0
19, 90912, Note_on_c, 10, 75, 0
19, 90912, Note_on_c, 10, 75, 114
19, 90912, Note_on_c, 10, 63, 62
19, 91008, Note_on_c, 10, 63, 0
19, 91008, Note_on_c, 10, 75, 0
19, 91008, Note_on_c, 10, 78, 114
19, 91008, Note_on_c, 10, 66, 62
19, 91198, Note_on_c, 10, 66, 0
19, 91198, Note_on_c, 10, 78, 0
19, 91296, Note_on_c, 10, 78, 114
19, 91296, Note_on_c, 10, 66, 62
19, 91392, Note_on_c, 10, 66, 0
19, 91392, Note_on_c, 10, 78, 0
19, 91392, Note_on_c, 10, 69, 68
19, 91392, Note_on_c, 10, 81, 114
19, 91872, Note_on_c, 10, 81, 0
19, 91872, Note_on_c, 10, 69, 0
19, 92352, Note_on_c, 10, 63, 95
19, 92448, Note_on_c, 10, 63, 0
19, 92544, Note_on_c, 10, 63, 95
19, 92640, Note_on_c, 10, 63, 0
19, 92736, Note_on_c, 10, 63, 95
19, 92832, Note_on_c, 10, 63, 0
19, 92928, Note_on_c, 10, 63, 95
19, 93024, Note_on_c, 10, 63, 0
19, 93216, Note_on_c, 10, 63, 95
19, 93312, Note_on_c, 10, 63, 0
19, 93312, Note_on_c, 10, 63, 95
19, 93408, Note_on_c, 10, 63, 0
19, 93600, Note_on_c, 10, 63, 95
19, 93696, Note_on_c, 10, 63, 0
19, 93696, Note_on_c, 10, 63, 95
19, 93792, Note_on_c, 10, 63, 0
19, 93792, Note_on_c, 10, 63, 95
19, 93984, Note_on_c, 10, 63, 0
19, 93984, Note_on_c, 10, 63, 95
19, 94176, Note_on_c, 10, 63, 0
19, 94176, Note_on_c, 10, 63, 95
19, 94272, Note_on_c, 10, 63, 0
19, 94272, Note_on_c, 10, 63, 95
19, 94368, Note_on_c, 10, 63, 0
19, 94560, Note_on_c, 10, 59, 95
19, 94560, Note_on_c, 10, 63, 95
19, 94656, Note_on_c, 10, 63, 0
19, 94656, Note_on_c, 10, 59, 0
19, 94656, Note_on_c, 10, 75, 95
19, 94656, Note_on_c, 10, 71, 95
19, 94752, Note_on_c, 10, 71, 0
19, 94752, Note_on_c, 10, 75, 0
19, 95136, Note_on_c, 10, 79, 95
19, 95136, Note_on_c, 10, 68, 95
19, 95232, Note_on_c, 10, 68, 0
19, 95232, Note_on_c, 10, 79, 0
19, 95328, Note_on_c, 10, 63, 95
19, 95328, Note_on_c, 10, 75, 95
19, 95424, Note_on_c, 10, 75, 0
19, 95424, Note_on_c, 10, 63, 0
19, 95520, Note_on_c, 10, 63, 95
19, 95520, Note_on_c, 10, 65, 95
19, 95616, Note_on_c, 10, 65, 0
19, 95616, Note_on_c, 10, 63, 0
19, 96096, Note_on_c, 10, 70, 95
19, 96192, Note_on_c, 10, 70, 0
19, 96192, Note_on_c, 10, 68, 95
19, 96192, Note_on_c, 10, 70, 95
19, 96288, Note_on_c, 10, 70, 0
19, 96288, Note_on_c, 10, 68, 0
19, 96480, Note_on_c, 10, 75, 95
19, 96480, Note_on_c, 10, 66, 95
19, 96576, Note_on_c, 10, 66, 0
19, 96576, Note_on_c, 10, 75, 0
19, 96576, Note_on_c, 10, 75, 95
19, 96576, Note_on_c, 10, 67, 95
19, 96672, Note_on_c, 10, 67, 0
19, 96672, Note_on_c, 10, 75, 0
19, 96864, Note_on_c, 10, 71, 59
19, 96864, Note_on_c, 10, 75, 59
19, 96960, Note_on_c, 10, 75, 0
19, 96960, Note_on_c, 10, 71, 0
19, 96960, Note_on_c, 10, 75, 95
19, 96960, Note_on_c, 10, 73, 59
19, 97056, Note_on_c, 10, 73, 0
19, 97056, Note_on_c, 10, 75, 0
19, 97248, Note_on_c, 10, 75, 62
19, 97248, Note_on_c, 10, 71, 61
19, 97344, Note_on_c, 10, 71, 0
19, 97344, Note_on_c, 10, 75, 0
19, 97344, Note_on_c, 10, 75, 63
19, 97344, Note_on_c, 10, 71, 62
19, 97440, Note_on_c, 10, 71, 0
19, 97440, Note_on_c, 10, 75, 0
19, 97632, Note_on_c, 10, 71, 59
19, 97632, Note_on_c, 10, 75, 59
19, 97728, Note_on_c, 10, 75, 0
19, 97728, Note_on_c, 10, 71, 0
19, 97728, Note_on_c, 10, 75, 95
19, 97728, Note_on_c, 10, 70, 61
19, 97824, Note_on_c, 10, 70, 0
19, 97824, Note_on_c, 10, 75, 0
19, 98016, Note_on_c, 10, 75, 95
19, 98016, Note_on_c, 10, 70, 95
19, 98112, Note_on_c, 10, 70, 0
19, 98112, Note_on_c, 10, 75, 0
19, 98112, Note_on_c, 10, 69, 95
19, 98112, Note_on_c, 10, 75, 95
19, 98208, Note_on_c, 10, 75, 0
19, 98208, Note_on_c, 10, 69, 0
19, 98400, Note_on_c, 10, 69, 95
19, 98400, Note_on_c, 10, 75, 95
19, 98592, Note_on_c, 10, 75, 0
19, 98592, Note_on_c, 10, 69, 0
19, 98592, Note_on_c, 10, 69, 95
19, 98592, Note_on_c, 10, 73, 95
19, 98784, Note_on_c, 10, 73, 0
19, 98784, Note_on_c, 10, 69, 0
19, 98784, Note_on_c, 10, 69, 95
19, 98784, Note_on_c, 10, 71, 95
19, 98976, Note_on_c, 10, 71, 0
19, 98976, Note_on_c, 10, 69, 0
19, 98976, Note_on_c, 10, 69, 95
19, 98976, Note_on_c, 10, 72, 95
19, 99072, Note_on_c, 10, 72, 0
19, 99072, Note_on_c, 10, 69, 0
19, 99072, Note_on_c, 10, 69, 62
19, 99072, Note_on_c, 10, 73, 60
19, 99168, Note_on_c, 10, 73, 0
19, 99168, Note_on_c, 10, 69, 0
19, 99264, Note_on_c, 10, 69, 67
19, 99264, Note_on_c, 10, 73, 65
19, 99456, Note_on_c, 10, 73, 0
19, 99456, Note_on_c, 10, 69, 0
19, 99552, Note_on_c, 10, 69, 62
19, 99600, Note_on_c, 10, 69, 0
19, 99600, Note_on_c, 10, 69, 61
19, 99648, Note_on_c, 10, 69, 0
19, 99648, Note_on_c, 10, 69, 65
19, 99744, Note_on_c, 10, 69, 0
19, 99744, Note_on_c, 10, 69, 66
19, 99840, Note_on_c, 10, 69, 0
19, 99840, Note_on_c, 10, 66, 65
19, 99840, Note_on_c, 10, 74, 68
19, 100032, Note_on_c, 10, 74, 0
19, 100032, Note_on_c, 10, 66, 0
19, 100032, Note_on_c, 10, 66, 65
19, 100032, Note_on_c, 10, 74, 67
19, 100224, Note_on_c, 10, 74, 0
19, 100224, Note_on_c, 10, 66, 0
19, 100224, Note_on_c, 10, 69, 61
19, 100224, Note_on_c, 10, 76, 67
19, 100416, Note_on_c, 10, 76, 0
19, 100416, Note_on_c, 10, 69, 0
19, 100416, Note_on_c, 10, 76, 66
19, 100416, Note_on_c, 10, 69, 60
19, 100608, Note_on_c, 10, 69, 0
19, 100608, Note_on_c, 10, 76, 0
19, 100608, Note_on_c, 10, 78, 68
19, 100608, Note_on_c, 10, 81, 67
19, 100896, Note_on_c, 10, 81, 0
19, 100896, Note_on_c, 10, 78, 0
19, 100896, Note_on_c, 10, 74, 67
19, 100896, Note_on_c, 10, 78, 57
19, 100992, Note_on_c, 10, 78, 0
19, 100992, Note_on_c, 10, 74, 0
19, 100992, Note_on_c, 10, 66, 60
19, 100992, Note_on_c, 10, 74, 64
19, 101088, Note_on_c, 10, 74, 0
19, 101088, Note_on_c, 10, 66, 0
19, 159648, Note_on_c, 10, 60, 64
19, 159648, Note_on_c, 10, 72, 74
19, 159696, Note_on_c, 10, 72, 0
19, 159696, Note_on_c, 10, 60, 0
19, 159696, Note_on_c, 10, 60, 64
19, 159696, Note_on_c, 10, 72, 74
19, 159744, Note_on_c, 10, 72, 0
19, 159744, Note_on_c, 10, 60, 0
19, 159744, Note_on_c, 10, 60, 64
19, 159744, Note_on_c, 10, 72, 74
19, 159792, Note_on_c, 10, 60, 64
19, 159840, Note_on_c, 10, 72, 0
19, 159840, Note_on_c, 10, 60, 0
19, 159840, Note_on_c, 10, 72, 74
19, 159888, Note_on_c, 10, 60, 0
19, 159936, Note_on_c, 10, 72, 0
19, 159936, Note_on_c, 10, 60, 64
19, 159936, Note_on_c, 10, 72, 74
19, 160032, Note_on_c, 10, 72, 0
19, 160032, Note_on_c, 10, 60, 0
19, 160032, Note_on_c, 10, 60, 64
19, 160032, Note_on_c, 10, 72, 74
19, 160128, Note_on_c, 10, 72, 0
19, 160128, Note_on_c, 10, 60, 0
19, 160128, Note_on_c, 10, 60, 64
19, 160128, Note_on_c, 10, 72, 74
19, 160224, Note_on_c, 10, 72, 0
19, 160224, Note_on_c, 10, 60, 0
19, 160224, Note_on_c, 10, 60, 64
19, 160224, Note_on_c, 10, 72, 74
19, 160320, Note_on_c, 10, 72, 0
19, 160320, Note_on_c, 10, 60, 0
19, 160320, Note_on_c, 10, 60, 64
19, 160320, Note_on_c, 10, 72, 74
19, 160416, Note_on_c, 10, 72, 0
19, 160416, Note_on_c, 10, 60, 0
19, 160416, Note_on_c, 10, 60, 64
19, 160416, Note_on_c, 10, 72, 74
19, 160464, Note_on_c, 10, 72, 0
19, 160464, Note_on_c, 10, 60, 0
19, 160464, Note_on_c, 10, 60, 64
19, 160464, Note_on_c, 10, 72, 74
19, 160512, Note_on_c, 10, 72, 0
19, 160512, Note_on_c, 10, 60, 0
19, 160512, Note_on_c, 10, 60, 64
19, 160512, Note_on_c, 10, 72, 74
19, 160608, Note_on_c, 10, 72, 0
19, 160608, Note_on_c, 10, 60, 0
19, 160608, Note_on_c, 10, 60, 64
19, 160608, Note_on_c, 10, 72, 74
19, 160704, Note_on_c, 10, 72, 0
19, 160704, Note_on_c, 10, 60, 0
19, 160704, Note_on_c, 10, 60, 64
19, 160704, Note_on_c, 10, 72, 74
19, 160800, Note_on_c, 10, 72, 0
19, 160800, Note_on_c, 10, 60, 0
19, 160800, Note_on_c, 10, 60, 64
19, 160800, Note_on_c, 10, 72, 74
19, 160896, Note_on_c, 10, 72, 0
19, 160896, Note_on_c, 10, 60, 0
19, 160896, Note_on_c, 10, 60, 64
19, 160896, Note_on_c, 10, 72, 74
19, 160992, Note_on_c, 10, 72, 0
19, 160992, Note_on_c, 10, 60, 0
19, 160992, Note_on_c, 10, 60, 64
19, 160992, Note_on_c, 10, 72, 74
19, 161088, Note_on_c, 10, 72, 0
19, 161088, Note_on_c, 10, 60, 0
19, 161088, Note_on_c, 10, 60, 64
19, 161088, Note_on_c, 10, 72, 74
19, 161184, Note_on_c, 10, 72, 0
19, 161184, Note_on_c, 10, 60, 0
19, 162528, Note_on_c, 10, 72, 75
19, 162576, Note_on_c, 10, 72, 0
19, 162576, Note_on_c, 10, 72, 75
19, 162624, Note_on_c, 10, 72, 0
19, 162624, Note_on_c, 10, 72, 75
19, 162720, Note_on_c, 10, 72, 0
19, 162720, Note_on_c, 10, 72, 75
19, 162816, Note_on_c, 10, 72, 0
19, 162816, Note_on_c, 10, 77, 75
19, 163104, Note_on_c, 10, 77, 0
19, 163104, Note_on_c, 10, 73, 75
19, 163200, Note_on_c, 10, 73, 0
19, 163200, Note_on_c, 10, 70, 75
19, 163200, Note_on_c, 10, 73, 75
19, 163296, Note_on_c, 10, 73, 0
19, 163296, Note_on_c, 10, 70, 0
19, 164928, Note_on_c, 10, 73, 64
19, 164928, Note_on_c, 10, 61, 61
19, 165024, Note_on_c, 10, 61, 0
19, 165024, Note_on_c, 10, 73, 0
19, 165024, Note_on_c, 10, 73, 64
19, 165024, Note_on_c, 10, 61, 61
19, 165072, Note_on_c, 10, 61, 0
19, 165072, Note_on_c, 10, 73, 0
19, 165072, Note_on_c, 10, 73, 64
19, 165072, Note_on_c, 10, 61, 64
19, 165120, Note_on_c, 10, 61, 0
19, 165120, Note_on_c, 10, 73, 0
19, 165120, Note_on_c, 10, 73, 64
19, 165120, Note_on_c, 10, 61, 67
19, 165216, Note_on_c, 10, 61, 0
19, 165216, Note_on_c, 10, 73, 0
19, 165216, Note_on_c, 10, 73, 64
19, 165216, Note_on_c, 10, 61, 76
19, 165312, Note_on_c, 10, 61, 0
19, 165312, Note_on_c, 10, 73, 0
19, 165312, Note_on_c, 10, 73, 64
19, 165312, Note_on_c, 10, 61, 79
19, 165408, Note_on_c, 10, 61, 0
19, 165408, Note_on_c, 10, 73, 0
19, 165408, Note_on_c, 10, 73, 64
19, 165408, Note_on_c, 10, 73, 64
19, 165408, Note_on_c, 10, 61, 79
19, 165504, Note_on_c, 10, 61, 0
19, 165504, Note_on_c, 10, 73, 0
19, 165504, Note_on_c, 10, 73, 0
19, 165504, Note_on_c, 10, 73, 64
19, 165504, Note_on_c, 10, 61, 82
19, 165600, Note_on_c, 10, 61, 0
19, 165600, Note_on_c, 10, 73, 0
19, 165600, Note_on_c, 10, 73, 76
19, 165600, Note_on_c, 10, 61, 76
19, 165696, Note_on_c, 10, 61, 0
19, 165696, Note_on_c, 10, 73, 0
19, 165696, Note_on_c, 10, 73, 73
19, 165696, Note_on_c, 10, 61, 73
19, 165792, Note_on_c, 10, 61, 0
19, 165792, Note_on_c, 10, 73, 0
19, 165792, Note_on_c, 10, 73, 64
19, 165792, Note_on_c, 10, 61, 64
19, 165840, Note_on_c, 10, 61, 0
19, 165840, Note_on_c, 10, 73, 0
19, 165840, Note_on_c, 10, 73, 64
19, 165840, Note_on_c, 10, 61, 59
19, 165888, Note_on_c, 10, 61, 0
19, 165888, Note_on_c, 10, 73, 0
19, 165888, Note_on_c, 10, 73, 64
19, 165888, Note_on_c, 10, 61, 74
19, 165984, Note_on_c, 10, 61, 0
19, 165984, Note_on_c, 10, 73, 0
19, 165984, Note_on_c, 10, 73, 64
19, 165984, Note_on_c, 10, 61, 74
19, 166080, Note_on_c, 10, 61, 0
19, 166080, Note_on_c, 10, 73, 0
19, 166080, Note_on_c, 10, 73, 64
19, 166080, Note_on_c, 10, 61, 74
19, 166176, Note_on_c, 10, 61, 0
19, 166176, Note_on_c, 10, 73, 0
19, 166176, Note_on_c, 10, 73, 64
19, 166176, Note_on_c, 10, 61, 74
19, 166272, Note_on_c, 10, 61, 0
19, 166272, Note_on_c, 10, 73, 0
19, 166272, Note_on_c, 10, 73, 64
19, 166272, Note_on_c, 10, 61, 74
19, 166368, Note_on_c, 10, 61, 0
19, 166368, Note_on_c, 10, 73, 0
19, 166368, Note_on_c, 10, 73, 64
19, 166368, Note_on_c, 10, 61, 74
19, 166464, Note_on_c, 10, 61, 0
19, 166464, Note_on_c, 10, 73, 0
19, 166464, Note_on_c, 10, 73, 64
19, 166464, Note_on_c, 10, 61, 74
19, 166560, Note_on_c, 10, 61, 0
19, 166560, Note_on_c, 10, 73, 0
19, 172224, Note_on_c, 10, 64, 95
19, 172224, Note_on_c, 10, 76, 95
19, 172320, Note_on_c, 10, 76, 0
19, 172320, Note_on_c, 10, 64, 0
19, 172320, Note_on_c, 10, 76, 95
19, 172320, Note_on_c, 10, 64, 95
19, 172416, Note_on_c, 10, 64, 0
19, 172416, Note_on_c, 10, 76, 0
19, 172416, Note_on_c, 10, 64, 95
19, 172416, Note_on_c, 10, 76, 95
19, 172512, Note_on_c, 10, 76, 0
19, 172512, Note_on_c, 10, 64, 0
19, 173760, Note_on_c, 10, 61, 95
19, 173760, Note_on_c, 10, 73, 95
19, 173856, Note_on_c, 10, 73, 0
19, 173856, Note_on_c, 10, 61, 0
19, 173856, Note_on_c, 10, 61, 95
19, 173856, Note_on_c, 10, 73, 95
19, 173952, Note_on_c, 10, 73, 0
19, 173952, Note_on_c, 10, 61, 0
19, 173952, Note_on_c, 10, 61, 95
19, 173952, Note_on_c, 10, 73, 95
19, 174048, Note_on_c, 10, 73, 0
19, 174048, Note_on_c, 10, 61, 0
19, 175296, Note_on_c, 10, 79, 95
19, 175296, Note_on_c, 10, 67, 95
19, 175392, Note_on_c, 10, 67, 0
19, 175392, Note_on_c, 10, 79, 0
19, 175392, Note_on_c, 10, 67, 95
19, 175392, Note_on_c, 10, 79, 95
19, 175488, Note_on_c, 10, 79, 0
19, 175488, Note_on_c, 10, 67, 0
19, 175488, Note_on_c, 10, 79, 95
19, 175488, Note_on_c, 10, 67, 95
19, 175584, Note_on_c, 10, 67, 0
19, 175584, Note_on_c, 10, 79, 0
19, 176832, Note_on_c, 10, 64, 95
19, 176832, Note_on_c, 10, 76, 95
19, 176928, Note_on_c, 10, 76, 0
19, 176928, Note_on_c, 10, 64, 0
19, 176928, Note_on_c, 10, 64, 95
19, 176928, Note_on_c, 10, 76, 95
19, 177024, Note_on_c, 10, 76, 0
19, 177024, Note_on_c, 10, 64, 0
19, 177024, Note_on_c, 10, 64, 95
19, 177024, Note_on_c, 10, 76, 95
19, 177120, Note_on_c, 10, 76, 0
19, 177120, Note_on_c, 10, 64, 0
19, 177600, Note_on_c, 10, 64, 95
19, 177600, Note_on_c, 10, 76, 95
19, 177696, Note_on_c, 10, 76, 0
19, 177696, Note_on_c, 10, 64, 0
19, 177696, Note_on_c, 10, 64, 95
19, 177696, Note_on_c, 10, 76, 95
19, 177792, Note_on_c, 10, 76, 0
19, 177792, Note_on_c, 10, 64, 0
19, 177792, Note_on_c, 10, 76, 95
19, 177792, Note_on_c, 10, 64, 95
19, 177888, Note_on_c, 10, 64, 0
19, 177888, Note_on_c, 10, 76, 0
19, 178368, Note_on_c, 10, 65, 95
19, 178368, Note_on_c, 10, 77, 95
19, 178464, Note_on_c, 10, 77, 0
19, 178464, Note_on_c, 10, 65, 0
19, 178464, Note_on_c, 10, 77, 95
19, 178464, Note_on_c, 10, 65, 95
19, 178560, Note_on_c, 10, 65, 0
19, 178560, Note_on_c, 10, 77, 0
19, 178560, Note_on_c, 10, 65, 95
19, 178560, Note_on_c, 10, 77, 95
19, 178656, Note_on_c, 10, 77, 0
19, 178656, Note_on_c, 10, 65, 0
19, 179136, Note_on_c, 10, 78, 95
19, 179136, Note_on_c, 10, 66, 95
19, 179232, Note_on_c, 10, 66, 0
19, 179232, Note_on_c, 10, 78, 0
19, 179232, Note_on_c, 10, 78, 95
19, 179232, Note_on_c, 10, 66, 95
19, 179328, Note_on_c, 10, 66, 0
19, 179328, Note_on_c, 10, 78, 0
19, 179328, Note_on_c, 10, 66, 95
19, 179328, Note_on_c, 10, 78, 95
19, 179424, Note_on_c, 10, 78, 0
19, 179424, Note_on_c, 10, 66, 0
19, 180288, Note_on_c, 10, 75, 95
19, 180576, Note_on_c, 10, 75, 0
19, 180576, Note_on_c, 10, 63, 95
19, 180672, Note_on_c, 10, 63, 0
19, 180672, Note_on_c, 10, 75, 95
19, 180960, Note_on_c, 10, 75, 0
19, 180960, Note_on_c, 10, 63, 95
19, 181056, Note_on_c, 10, 63, 0
19, 181056, Note_on_c, 10, 75, 95
19, 181248, Note_on_c, 10, 75, 0
19, 181344, Note_on_c, 10, 75, 59
19, 181344, Note_on_c, 10, 63, 55
19, 181440, Note_on_c, 10, 63, 0
19, 181440, Note_on_c, 10, 75, 0
19, 181536, Note_on_c, 10, 63, 56
19, 181536, Note_on_c, 10, 75, 62
19, 181632, Note_on_c, 10, 75, 0
19, 181632, Note_on_c, 10, 63, 0
19, 181728, Note_on_c, 10, 75, 57
19, 181728, Note_on_c, 10, 63, 56
19, 181824, Note_on_c, 10, 63, 0
19, 181824, Note_on_c, 10, 75, 0
19, 181920, Note_on_c, 10, 75, 61
19, 181920, Note_on_c, 10, 63, 58
19, 182016, Note_on_c, 10, 63, 0
19, 182016, Note_on_c, 10, 75, 0
19, 182112, Note_on_c, 10, 63, 52
19, 182112, Note_on_c, 10, 71, 58
19, 182208, Note_on_c, 10, 71, 0
19, 182208, Note_on_c, 10, 63, 0
19, 182880, Note_on_c, 10, 59, 95
19, 182880, Note_on_c, 10, 63, 95
19, 182976, Note_on_c, 10, 63, 0
19, 182976, Note_on_c, 10, 59, 0
19, 182976, Note_on_c, 10, 71, 95
19, 182976, Note_on_c, 10, 75, 95
19, 183072, Note_on_c, 10, 75, 0
19, 183072, Note_on_c, 10, 71, 0
19, 183456, Note_on_c, 10, 68, 95
19, 183456, Note_on_c, 10, 79, 95
19, 183552, Note_on_c, 10, 79, 0
19, 183552, Note_on_c, 10, 68, 0
19, 183648, Note_on_c, 10, 63, 95
19, 183648, Note_on_c, 10, 75, 95
19, 183744, Note_on_c, 10, 75, 0
19, 183744, Note_on_c, 10, 63, 0
19, 183840, Note_on_c, 10, 65, 95
19, 183840, Note_on_c, 10, 63, 95
19, 183936, Note_on_c, 10, 63, 0
19, 183936, Note_on_c, 10, 65, 0
19, 184416, Note_on_c, 10, 70, 95
19, 184512, Note_on_c, 10, 70, 0
19, 184512, Note_on_c, 10, 70, 95
19, 184512, Note_on_c, 10, 68, 95
19, 184608, Note_on_c, 10, 68, 0
19, 184608, Note_on_c, 10, 70, 0
19, 184800, Note_on_c, 10, 66, 95
19, 184800, Note_on_c, 10, 75, 95
19, 184896, Note_on_c, 10, 75, 0
19, 184896, Note_on_c, 10, 66, 0
19, 184896, Note_on_c, 10, 75, 95
19, 184896, Note_on_c, 10, 67, 95
19, 184992, Note_on_c, 10, 67, 0
19, 184992, Note_on_c, 10, 75, 0
19, 185184, Note_on_c, 10, 75, 59
19, 185184, Note_on_c, 10, 71, 59
19, 185280, Note_on_c, 10, 71, 0
19, 185280, Note_on_c, 10, 75, 0
19, 185280, Note_on_c, 10, 73, 59
19, 185280, Note_on_c, 10, 75, 95
19, 185376, Note_on_c, 10, 75, 0
19, 185376, Note_on_c, 10, 73, 0
19, 185568, Note_on_c, 10, 71, 61
19, 185568, Note_on_c, 10, 75, 62
19, 185664, Note_on_c, 10, 75, 0
19, 185664, Note_on_c, 10, 71, 0
19, 185664, Note_on_c, 10, 75, 63
19, 185664, Note_on_c, 10, 71, 62
19, 185760, Note_on_c, 10, 71, 0
19, 185760, Note_on_c, 10, 75, 0
19, 185952, Note_on_c, 10, 71, 59
19, 185952, Note_on_c, 10, 75, 59
19, 186048, Note_on_c, 10, 75, 0
19, 186048, Note_on_c, 10, 71, 0
19, 186048, Note_on_c, 10, 75, 95
19, 186048, Note_on_c, 10, 70, 61
19, 186144, Note_on_c, 10, 70, 0
19, 186144, Note_on_c, 10, 75, 0
19, 186336, Note_on_c, 10, 69, 95
19, 186336, Note_on_c, 10, 75, 95
19, 186528, Note_on_c, 10, 75, 0
19, 186528, Note_on_c, 10, 69, 0
19, 186528, Note_on_c, 10, 69, 95
19, 186528, Note_on_c, 10, 74, 95
19, 186720, Note_on_c, 10, 74, 0
19, 186720, Note_on_c, 10, 69, 0
19, 186720, Note_on_c, 10, 73, 95
19, 186720, Note_on_c, 10, 69, 95
19, 186912, Note_on_c, 10, 69, 0
19, 186912, Note_on_c, 10, 73, 0
19, 186912, Note_on_c, 10, 72, 95
19, 186912, Note_on_c, 10, 69, 95
19, 187008, Note_on_c, 10, 69, 0
19, 187008, Note_on_c, 10, 72, 0
19, 187008, Note_on_c, 10, 73, 95
19, 187008, Note_on_c, 10, 70, 95
19, 187104, Note_on_c, 10, 70, 0
19, 187104, Note_on_c, 10, 73, 0
19, 187104, Note_on_c, 10, 66, 95
19, 187152, Note_on_c, 10, 66, 0
19, 187152, Note_on_c, 10, 66, 95
19, 187200, Note_on_c, 10, 66, 0
19, 187200, Note_on_c, 10, 66, 95
19, 187296, Note_on_c, 10, 66, 0
19, 187296, Note_on_c, 10, 66, 95
19, 187392, Note_on_c, 10, 66, 0
19, 187392, Note_on_c, 10, 71, 85
19, 187392, Note_on_c, 10, 63, 79
19, 187584, Note_on_c, 10, 63, 0
19, 187584, Note_on_c, 10, 71, 0
19, 187584, Note_on_c, 10, 63, 79
19, 187584, Note_on_c, 10, 71, 86
19, 187776, Note_on_c, 10, 71, 0
19, 187776, Note_on_c, 10, 63, 0
19, 187776, Note_on_c, 10, 66, 85
19, 187776, Note_on_c, 10, 73, 96
19, 187968, Note_on_c, 10, 73, 0
19, 187968, Note_on_c, 10, 66, 0
19, 187968, Note_on_c, 10, 66, 89
19, 187968, Note_on_c, 10, 73, 94
19, 188160, Note_on_c, 10, 73, 0
19, 188160, Note_on_c, 10, 66, 0
19, 188160, Note_on_c, 10, 78, 85
19, 188160, Note_on_c, 10, 75, 94
19, 188448, Note_on_c, 10, 75, 0
19, 188448, Note_on_c, 10, 78, 0
19, 188448, Note_on_c, 10, 75, 89
19, 188448, Note_on_c, 10, 71, 85
19, 188544, Note_on_c, 10, 71, 0
19, 188544, Note_on_c, 10, 75, 0
19, 188544, Note_on_c, 10, 63, 74
19, 188544, Note_on_c, 10, 71, 89
19, 188736, Note_on_c, 10, 71, 0
19, 188736, Note_on_c, 10, 63, 0
19, 228096, Note_on_c, 10, 74, 118
19, 228144, Note_on_c, 10, 74, 0
19, 228192, Note_on_c, 10, 74, 118
19, 228240, Note_on_c, 10, 74, 0
19, 228240, Note_on_c, 10, 74, 118
19, 228288, Note_on_c, 10, 74, 0
19, 228288, Note_on_c, 10, 74, 118
19, 228336, Note_on_c, 10, 74, 0
19, 228384, Note_on_c, 10, 74, 118
19, 228432, Note_on_c, 10, 74, 0
19, 228480, Note_on_c, 10, 74, 118
19, 228864, Note_on_c, 10, 74, 0
19, 228864, Note_on_c, 10, 67, 118
19, 229344, Note_on_c, 10, 67, 0
19, 229344, Note_on_c, 10, 67, 118
19, 229392, Note_on_c, 10, 67, 0
19, 229392, Note_on_c, 10, 67, 118
19, 229440, Note_on_c, 10, 67, 0
19, 229440, Note_on_c, 10, 67, 118
19, 229488, Note_on_c, 10, 67, 0
19, 229536, Note_on_c, 10, 67, 118
19, 229584, Note_on_c, 10, 67, 0
19, 229632, Note_on_c, 10, 79, 118
19, 229680, Note_on_c, 10, 79, 0
19, 229728, Note_on_c, 10, 79, 118
19, 229776, Note_on_c, 10, 79, 0
19, 229776, Note_on_c, 10, 79, 118
19, 229824, Note_on_c, 10, 79, 0
19, 229824, Note_on_c, 10, 79, 118
19, 229872, Note_on_c, 10, 79, 0
19, 229920, Note_on_c, 10, 79, 118
19, 229968, Note_on_c, 10, 79, 0
19, 230016, Note_on_c, 10, 79, 118
19, 230400, Note_on_c, 10, 79, 0
19, 230400, Note_on_c, 10, 72, 118
19, 231168, Note_on_c, 10, 72, 0
19, 233184, Note_on_c, 10, 63, 59
19, 233184, Note_on_c, 10, 61, 59
19, 233232, Note_on_c, 10, 61, 0
19, 233232, Note_on_c, 10, 63, 0
19, 233232, Note_on_c, 10, 63, 59
19, 233232, Note_on_c, 10, 61, 59
19, 233280, Note_on_c, 10, 61, 0
19, 233280, Note_on_c, 10, 63, 0
19, 233280, Note_on_c, 10, 63, 59
19, 233280, Note_on_c, 10, 61, 59
19, 233376, Note_on_c, 10, 61, 0
19, 233376, Note_on_c, 10, 63, 0
19, 233376, Note_on_c, 10, 63, 59
19, 233376, Note_on_c, 10, 61, 59
19, 233472, Note_on_c, 10, 61, 0
19, 233472, Note_on_c, 10, 63, 0
19, 233472, Note_on_c, 10, 60, 59
19, 233472, Note_on_c, 10, 68, 59
19, 233664, Note_on_c, 10, 68, 0
19, 233664, Note_on_c, 10, 60, 0
19, 233664, Note_on_c, 10, 70, 59
19, 233664, Note_on_c, 10, 63, 59
19, 233856, Note_on_c, 10, 63, 0
19, 233856, Note_on_c, 10, 70, 0
19, 233856, Note_on_c, 10, 72, 59
19, 233856, Note_on_c, 10, 69, 59
19, 233952, Note_on_c, 10, 69, 0
19, 233952, Note_on_c, 10, 72, 0
19, 234720, Note_on_c, 10, 67, 99
19, 234768, Note_on_c, 10, 67, 0
19, 234768, Note_on_c, 10, 67, 99
19, 234816, Note_on_c, 10, 67, 0
19, 234816, Note_on_c, 10, 67, 99
19, 234912, Note_on_c, 10, 67, 0
19, 234912, Note_on_c, 10, 67, 99
19, 235008, Note_on_c, 10, 67, 0
19, 235008, Note_on_c, 10, 72, 99
19, 235008, Note_on_c, 10, 63, 77
19, 235200, Note_on_c, 10, 63, 0
19, 235200, Note_on_c, 10, 72, 0
19, 235200, Note_on_c, 10, 67, 77
19, 235200, Note_on_c, 10, 74, 99
19, 235392, Note_on_c, 10, 74, 0
19, 235392, Note_on_c, 10, 67, 0
19, 235392, Note_on_c, 10, 72, 77
19, 235392, Note_on_c, 10, 75, 99
19, 235488, Note_on_c, 10, 75, 0
19, 235488, Note_on_c, 10, 72, 0
19, 236256, Note_on_c, 10, 70, 111
19, 236256, Note_on_c, 10, 58, 95
19, 236304, Note_on_c, 10, 58, 0
19, 236304, Note_on_c, 10, 70, 0
19, 236304, Note_on_c, 10, 58, 95
19, 236304, Note_on_c, 10, 70, 111
19, 236352, Note_on_c, 10, 70, 0
19, 236352, Note_on_c, 10, 58, 0
19, 236352, Note_on_c, 10, 58, 95
19, 236352, Note_on_c, 10, 70, 111
19, 236448, Note_on_c, 10, 70, 0
19, 236448, Note_on_c, 10, 58, 0
19, 236448, Note_on_c, 10, 70, 111
19, 236448, Note_on_c, 10, 58, 95
19, 236544, Note_on_c, 10, 58, 0
19, 236544, Note_on_c, 10, 70, 0
19, 236544, Note_on_c, 10, 75, 121
19, 236544, Note_on_c, 10, 63, 99
19, 236928, Note_on_c, 10, 63, 0
19, 236928, Note_on_c, 10, 75, 0
19, 236928, Note_on_c, 10, 63, 99
19, 236928, Note_on_c, 10, 75, 121
19, 237312, Note_on_c, 10, 75, 0
19, 237312, Note_on_c, 10, 63, 0
19, 237312, Note_on_c, 10, 65, 99
19, 237312, Note_on_c, 10, 77, 121
19, 237696, Note_on_c, 10, 77, 0
19, 237696, Note_on_c, 10, 65, 0
19, 237696, Note_on_c, 10, 65, 99
19, 237696, Note_on_c, 10, 77, 121
19, 238080, Note_on_c, 10, 77, 0
19, 238080, Note_on_c, 10, 65, 0
19, 238080, Note_on_c, 10, 70, 99
19, 238080, Note_on_c, 10, 82, 121
19, 238656, Note_on_c, 10, 82, 0
19, 238656, Note_on_c, 10, 70, 0
19, 238656, Note_on_c, 10, 67, 99
19, 238656, Note_on_c, 10, 79, 121
19, 238848, Note_on_c, 10, 79, 0
19, 238848, Note_on_c, 10, 67, 0
19, 238848, Note_on_c, 10, 75, 121
19, 238848, Note_on_c, 10, 63, 99
19, 239040, Note_on_c, 10, 63, 0
19, 239040, Note_on_c, 10, 75, 0
19, 239040, Note_on_c, 10, 75, 121
19, 239040, Note_on_c, 10, 63, 99
19, 239232, Note_on_c, 10, 63, 0
19, 239232, Note_on_c, 10, 75, 0
19, 239232, Note_on_c, 10, 67, 99
19, 239232, Note_on_c, 10, 79, 121
19, 239424, Note_on_c, 10, 79, 0
19, 239424, Note_on_c, 10, 67, 0
19, 239424, Note_on_c, 10, 75, 121
19, 239424, Note_on_c, 10, 63, 99
19, 239616, Note_on_c, 10, 63, 0
19, 239616, Note_on_c, 10, 75, 0
19, 239616, Note_on_c, 10, 65, 99
19, 239616, Note_on_c, 10, 72, 99
19, 239808, Note_on_c, 10, 72, 0
19, 239808, Note_on_c, 10, 65, 0
19, 239808, Note_on_c, 10, 64, 65
19, 239808, Note_on_c, 10, 72, 68
19, 240000, Note_on_c, 10, 72, 0
19, 240000, Note_on_c, 10, 64, 0
19, 240000, Note_on_c, 10, 72, 65
19, 240000, Note_on_c, 10, 65, 62
19, 240192, Note_on_c, 10, 65, 0
19, 240192, Note_on_c, 10, 72, 0
19, 240192, Note_on_c, 10, 60, 62
19, 240192, Note_on_c, 10, 67, 61
19, 240384, Note_on_c, 10, 67, 0
19, 240384, Note_on_c, 10, 60, 0
19, 240384, Note_on_c, 10, 68, 59
19, 240384, Note_on_c, 10, 65, 62
19, 240576, Note_on_c, 10, 65, 0
19, 240576, Note_on_c, 10, 68, 0
19, 240576, Note_on_c, 10, 63, 52
19, 240576, Note_on_c, 10, 75, 65
19, 240768, Note_on_c, 10, 75, 0
19, 240768, Note_on_c, 10, 63, 0
19, 240768, Note_on_c, 10, 62, 55
19, 240768, Note_on_c, 10, 74, 61
19, 240960, Note_on_c, 10, 74, 0
19, 240960, Note_on_c, 10, 62, 0
19, 240960, Note_on_c, 10, 65, 57
19, 240960, Note_on_c, 10, 72, 62
19, 241152, Note_on_c, 10, 72, 0
19, 241152, Note_on_c, 10, 65, 0
19, 241152, Note_on_c, 10, 58, 54
19, 241152, Note_on_c, 10, 70, 64
19, 241344, Note_on_c, 10, 70, 0
19, 241344, Note_on_c, 10, 58, 0
19, 241344, Note_on_c, 10, 58, 50
19, 241344, Note_on_c, 10, 70, 64
19, 241536, Note_on_c, 10, 70, 0
19, 241536, Note_on_c, 10, 58, 0
19, 241536, Note_on_c, 10, 65, 57
19, 241536, Note_on_c, 10, 74, 59
19, 241728, Note_on_c, 10, 74, 0
19, 241728, Note_on_c, 10, 65, 0
19, 241728, Note_on_c, 10, 75, 58
19, 241728, Note_on_c, 10, 67, 52
19, 241920, Note_on_c, 10, 67, 0
19, 241920, Note_on_c, 10, 75, 0
19, 241920, Note_on_c, 10, 65, 52
19, 241920, Note_on_c, 10, 77, 95
19, 242112, Note_on_c, 10, 77, 0
19, 242112, Note_on_c, 10, 65, 0
19, 242112, Note_on_c, 10, 77, 59
19, 242112, Note_on_c, 10, 65, 55
19, 242304, Note_on_c, 10, 65, 0
19, 242304, Note_on_c, 10, 77, 0
19, 242304, Note_on_c, 10, 65, 58
19, 242304, Note_on_c, 10, 77, 65
19, 242400, Note_on_c, 10, 77, 0
19, 242400, Note_on_c, 10, 65, 0
19, 257856, Note_on_c, 10, 75, 97
19, 257952, Note_on_c, 10, 75, 0
19, 257952, Note_on_c, 10, 75, 97
19, 258048, Note_on_c, 10, 75, 0
19, 258048, Note_on_c, 10, 77, 97
19, 258240, Note_on_c, 10, 77, 0
19, 258240, Note_on_c, 10, 79, 97
19, 258432, Note_on_c, 10, 79, 0
19, 258432, Note_on_c, 10, 75, 97
19, 258528, Note_on_c, 10, 75, 0
19, 258528, Note_on_c, 10, 75, 97
19, 258624, Note_on_c, 10, 75, 0
19, 258624, Note_on_c, 10, 77, 97
19, 258720, Note_on_c, 10, 77, 0
19, 258720, Note_on_c, 10, 79, 97
19, 258816, Note_on_c, 10, 79, 0
19, 258816, Note_on_c, 10, 80, 97
19, 258912, Note_on_c, 10, 80, 0
19, 258912, Note_on_c, 10, 80, 97
19, 259008, Note_on_c, 10, 80, 0
19, 259008, Note_on_c, 10, 80, 97
19, 259296, Note_on_c, 10, 80, 0
19, 260352, Note_on_c, 10, 79, 97
19, 260448, Note_on_c, 10, 79, 0
19, 260448, Note_on_c, 10, 79, 97
19, 260544, Note_on_c, 10, 79, 0
19, 260544, Note_on_c, 10, 79, 97
19, 260640, Note_on_c, 10, 79, 0
19, 260640, Note_on_c, 10, 79, 97
19, 260736, Note_on_c, 10, 79, 0
19, 260736, Note_on_c, 10, 79, 97
19, 261120, Note_on_c, 10, 79, 0
19, 261120, Note_on_c, 10, 79, 97
19, 261312, Note_on_c, 10, 79, 0
19, 261312, Note_on_c, 10, 79, 97
19, 261504, Note_on_c, 10, 79, 0
19, 261504, Note_on_c, 10, 77, 97
19, 261792, Note_on_c, 10, 77, 0
19, 261792, Note_on_c, 10, 77, 97
19, 261888, Note_on_c, 10, 77, 0
19, 261888, Note_on_c, 10, 77, 97
19, 261984, Note_on_c, 10, 77, 0
19, 261984, Note_on_c, 10, 77, 97
19, 262080, Note_on_c, 10, 77, 0
19, 262080, Note_on_c, 10, 79, 97
19, 262176, Note_on_c, 10, 79, 0
19, 263616, Note_on_c, 10, 75, 97
19, 263808, Note_on_c, 10, 75, 0
19, 263808, Note_on_c, 10, 77, 97
19, 264000, Note_on_c, 10, 77, 0
19, 264000, Note_on_c, 10, 79, 97
19, 264192, Note_on_c, 10, 79, 0
19, 264192, Note_on_c, 10, 75, 97
19, 264384, Note_on_c, 10, 75, 0
19, 264384, Note_on_c, 10, 77, 97
19, 264480, Note_on_c, 10, 77, 0
19, 264480, Note_on_c, 10, 79, 97
19, 264576, Note_on_c, 10, 79, 0
19, 264576, Note_on_c, 10, 80, 97
19, 264672, Note_on_c, 10, 80, 0
19, 264672, Note_on_c, 10, 80, 97
19, 264768, Note_on_c, 10, 80, 0
19, 264768, Note_on_c, 10, 80, 97
19, 264864, Note_on_c, 10, 80, 0
19, 264864, Note_on_c, 10, 80, 97
19, 264960, Note_on_c, 10, 80, 0
19, 264960, Note_on_c, 10, 80, 97
19, 265056, Note_on_c, 10, 80, 0
19, 265056, Note_on_c, 10, 80, 97
19, 265152, Note_on_c, 10, 80, 0
19, 265152, Note_on_c, 10, 80, 97
19, 265248, Note_on_c, 10, 80, 0
19, 265248, Note_on_c, 10, 80, 97
19, 265344, Note_on_c, 10, 80, 0
19, 265344, Note_on_c, 10, 80, 97
19, 265440, Note_on_c, 10, 80, 0
19, 265440, Note_on_c, 10, 80, 97
19, 265536, Note_on_c, 10, 80, 0
19, 265536, Note_on_c, 10, 80, 97
19, 265632, Note_on_c, 10, 80, 0
19, 265632, Note_on_c, 10, 80, 97
19, 265728, Note_on_c, 10, 80, 0
19, 265728, Note_on_c, 10, 80, 97
19, 265824, Note_on_c, 10, 80, 0
19, 265824, Note_on_c, 10, 79, 97
19, 265920, Note_on_c, 10, 79, 0
19, 265920, Note_on_c, 10, 80, 97
19, 266208, Note_on_c, 10, 80, 0
19, 267264, Note_on_c, 10, 79, 97
19, 267360, Note_on_c, 10, 79, 0
19, 267360, Note_on_c, 10, 79, 97
19, 267456, Note_on_c, 10, 79, 0
19, 267456, Note_on_c, 10, 79, 97
19, 267552, Note_on_c, 10, 79, 0
19, 267552, Note_on_c, 10, 79, 97
19, 267648, Note_on_c, 10, 79, 0
19, 267648, Note_on_c, 10, 79, 97
19, 268032, Note_on_c, 10, 79, 0
19, 268032, Note_on_c, 10, 79, 97
19, 268224, Note_on_c, 10, 79, 0
19, 268224, Note_on_c, 10, 79, 97
19, 268416, Note_on_c, 10, 79, 0
19, 268416, Note_on_c, 10, 82, 97
19, 268704, Note_on_c, 10, 82, 0
19, 268704, Note_on_c, 10, 79, 97
19, 268800, Note_on_c, 10, 79, 0
19, 268800, Note_on_c, 10, 75, 97
19, 268992, Note_on_c, 10, 75, 0
19, 268992, Note_on_c, 10, 77, 97
19, 269280, Note_on_c, 10, 77, 0
19, 269280, Note_on_c, 10, 77, 97
19, 269312, Note_on_c, 10, 77, 0
19, 269312, Note_on_c, 10, 77, 97
19, 269344, Note_on_c, 10, 77, 0
19, 269344, Note_on_c, 10, 77, 97
19, 269376, Note_on_c, 10, 77, 0
19, 269376, Note_on_c, 10, 77, 97
19, 269472, Note_on_c, 10, 77, 0
19, 269472, Note_on_c, 10, 77, 97
19, 269568, Note_on_c, 10, 77, 0
19, 269568, Note_on_c, 10, 77, 97
19, 269856, Note_on_c, 10, 77, 0
19, 269856, Note_on_c, 10, 74, 97
19, 269952, Note_on_c, 10, 74, 0
19, 269952, Note_on_c, 10, 70, 97
19, 270048, Note_on_c, 10, 70, 0
19, 270048, Note_on_c, 10, 74, 97
19, 270144, Note_on_c, 10, 74, 0
19, 270144, Note_on_c, 10, 70, 97
19, 270240, Note_on_c, 10, 70, 0
19, 292992, Note_on_c, 10, 62, 52
19, 292992, Note_on_c, 10, 74, 62
19, 293184, Note_on_c, 10, 74, 0
19, 293184, Note_on_c, 10, 62, 0
19, 293280, Note_on_c, 10, 70, 74
19, 293328, Note_on_c, 10, 70, 0
19, 293328, Note_on_c, 10, 70, 71
19, 293376, Note_on_c, 10, 70, 0
19, 293376, Note_on_c, 10, 67, 56
19, 293376, Note_on_c, 10, 75, 61
19, 293424, Note_on_c, 10, 75, 0
19, 293424, Note_on_c, 10, 67, 0
19, 293472, Note_on_c, 10, 77, 59
19, 293472, Note_on_c, 10, 70, 57
19, 293520, Note_on_c, 10, 70, 0
19, 293520, Note_on_c, 10, 77, 0
19, 293568, Note_on_c, 10, 75, 66
19, 293568, Note_on_c, 10, 79, 61
19, 293616, Note_on_c, 10, 79, 0
19, 293616, Note_on_c, 10, 75, 0
19, 293664, Note_on_c, 10, 70, 56
19, 293664, Note_on_c, 10, 77, 60
19, 293712, Note_on_c, 10, 77, 0
19, 293712, Note_on_c, 10, 70, 0
19, 293760, Note_on_c, 10, 67, 95
19, 293760, Note_on_c, 10, 75, 61
19, 293808, Note_on_c, 10, 75, 0
19, 293808, Note_on_c, 10, 67, 0
19, 293856, Note_on_c, 10, 70, 61
19, 293856, Note_on_c, 10, 77, 60
19, 293904, Note_on_c, 10, 77, 0
19, 293904, Note_on_c, 10, 70, 0
19, 293952, Note_on_c, 10, 75, 95
19, 293952, Note_on_c, 10, 79, 95
19, 294000, Note_on_c, 10, 79, 0
19, 294000, Note_on_c, 10, 75, 0
19, 294048, Note_on_c, 10, 62, 95
19, 294048, Note_on_c, 10, 70, 95
19, 294096, Note_on_c, 10, 70, 0
19, 294096, Note_on_c, 10, 62, 0
19, 294096, Note_on_c, 10, 70, 95
19, 294096, Note_on_c, 10, 62, 95
19, 294144, Note_on_c, 10, 62, 0
19, 294144, Note_on_c, 10, 70, 0
19, 294144, Note_on_c, 10, 63, 59
19, 294144, Note_on_c, 10, 67, 60
19, 294192, Note_on_c, 10, 67, 0
19, 294192, Note_on_c, 10, 63, 0
19, 294240, Note_on_c, 10, 65, 63
19, 294240, Note_on_c, 10, 70, 62
19, 294288, Note_on_c, 10, 70, 0
19, 294288, Note_on_c, 10, 65, 0
19, 294336, Note_on_c, 10, 75, 59
19, 294336, Note_on_c, 10, 67, 56
19, 294384, Note_on_c, 10, 67, 0
19, 294384, Note_on_c, 10, 75, 0
19, 294432, Note_on_c, 10, 65, 95
19, 294432, Note_on_c, 10, 70, 59
19, 294480, Note_on_c, 10, 70, 0
19, 294480, Note_on_c, 10, 65, 0
19, 294528, Note_on_c, 10, 63, 59
19, 294528, Note_on_c, 10, 67, 62
19, 294576, Note_on_c, 10, 67, 0
19, 294576, Note_on_c, 10, 63, 0
19, 294624, Note_on_c, 10, 65, 59
19, 294624, Note_on_c, 10, 70, 63
19, 294672, Note_on_c, 10, 70, 0
19, 294672, Note_on_c, 10, 65, 0
19, 294720, Note_on_c, 10, 75, 95
19, 294720, Note_on_c, 10, 63, 95
19, 294768, Note_on_c, 10, 63, 0
19, 294768, Note_on_c, 10, 75, 0
19, 295488, Note_on_c, 10, 63, 95
19, 295488, Note_on_c, 10, 75, 95
19, 295548, Note_on_c, 10, 75, 0
19, 295548, Note_on_c, 10, 63, 0
19, 296256, Note_on_c, 10, 63, 95
19, 296256, Note_on_c, 10, 75, 95
19, 296367, Note_on_c, 10, 75, 0
19, 296367, Note_on_c, 10, 63, 0
19, 296640, Note_on_c, 10, 63, 95
19, 296928, Note_on_c, 10, 63, 0
19, 296928, Note_on_c, 10, 63, 95
19, 297024, Note_on_c, 10, 63, 0
19, 297024, Note_on_c, 10, 67, 59
19, 297024, Note_on_c, 10, 63, 58
19, 297408, Note_on_c, 10, 63, 0
19, 297408, Note_on_c, 10, 67, 0
19, 297408, Note_on_c, 10, 67, 95
19, 297408, Note_on_c, 10, 70, 59
19, 297792, Note_on_c, 10, 70, 0
19, 297792, Note_on_c, 10, 67, 0
19, 297792, Note_on_c, 10, 63, 55
19, 297792, Note_on_c, 10, 75, 64
19, 298368, Note_on_c, 10, 75, 0
19, 298368, Note_on_c, 10, 63, 0
19, 298560, Note_on_c, 10, 75, 95
19, 298560, Note_on_c, 10, 79, 95
19, 298944, Note_on_c, 10, 79, 0
19, 298944, Note_on_c, 10, 75, 0
19, 299328, Note_on_c, 10, 63, 95
19, 299712, Note_on_c, 10, 63, 0
19, 300096, Note_on_c, 10, 75, 95
19, 300096, Note_on_c, 10, 63, 95
19, 300480, Note_on_c, 10, 63, 0
19, 300480, Note_on_c, 10, 75, 0
19, 300864, Note_on_c, 10, 75, 95
19, 300864, Note_on_c, 10, 63, 95
19, 301056, Note_on_c, 10, 63, 0
19, 301056, Note_on_c, 10, 75, 0
19, 301632, Note_on_c, 10, 63, 95
19, 302205, Note_on_c, 10, 63, 0
19, 302208, Note_on_c, 10, 63, 95
19, 302397, Note_on_c, 10, 63, 0
19, 302400, Note_on_c, 10, 63, 95
19, 303168, Note_on_c, 10, 63, 0
19, 303168, End_track
20, 0, Start_track
20, 0, MIDI_port, 0
20, 0, Title_t, "Triangle & Bells"
20, 0, Program_c, 11, 14
20, 0, Control_c, 11, 7, 88
20, 0, Control_c, 11, 10, 105
20, 0, Control_c, 11, 32, 0
20, 111360, Note_on_c, 11, 110, 127
20, 111360, Program_c, 11, 9
20, 112128, Note_on_c, 11, 110, 0
20, 112128, Note_on_c, 11, 110, 127
20, 112896, Note_on_c, 11, 110, 0
20, 112896, Note_on_c, 11, 110, 127
20, 113664, Note_on_c, 11, 110, 0
20, 113664, Note_on_c, 11, 110, 127
20, 114432, Note_on_c, 11, 110, 0
20, 114432, Note_on_c, 11, 110, 127
20, 115200, Note_on_c, 11, 110, 0
20, 115200, Note_on_c, 11, 110, 127
20, 115968, Note_on_c, 11, 110, 0
20, 115968, Note_on_c, 11, 110, 127
20, 116736, Note_on_c, 11, 110, 0
20, 116736, Note_on_c, 11, 110, 127
20, 117504, Note_on_c, 11, 110, 0
20, 117504, Note_on_c, 11, 110, 127
20, 118272, Note_on_c, 11, 110, 0
20, 118272, Note_on_c, 11, 110, 127
20, 119040, Note_on_c, 11, 110, 0
20, 119040, Note_on_c, 11, 110, 127
20, 119808, Note_on_c, 11, 110, 0
20, 119808, Note_on_c, 11, 110, 127
20, 120576, Note_on_c, 11, 110, 0
20, 120576, Note_on_c, 11, 110, 127
20, 120768, Note_on_c, 11, 110, 0
20, 120768, Note_on_c, 11, 110, 127
20, 120864, Note_on_c, 11, 110, 0
20, 120864, Note_on_c, 11, 110, 127
20, 120960, Note_on_c, 11, 110, 0
20, 120960, Note_on_c, 11, 110, 127
20, 121344, Note_on_c, 11, 110, 0
20, 121344, Note_on_c, 11, 110, 127
20, 121536, Note_on_c, 11, 110, 0
20, 121536, Note_on_c, 11, 110, 127
20, 121632, Note_on_c, 11, 110, 0
20, 121632, Note_on_c, 11, 110, 127
20, 121728, Note_on_c, 11, 110, 0
20, 121728, Note_on_c, 11, 110, 127
20, 122112, Note_on_c, 11, 110, 0
20, 122112, Note_on_c, 11, 110, 127
20, 122304, Note_on_c, 11, 110, 0
20, 122304, Note_on_c, 11, 110, 127
20, 122400, Note_on_c, 11, 110, 0
20, 122400, Note_on_c, 11, 110, 127
20, 122496, Note_on_c, 11, 110, 0
20, 122496, Note_on_c, 11, 110, 127
20, 122880, Note_on_c, 11, 110, 0
20, 122880, Note_on_c, 11, 110, 127
20, 123072, Note_on_c, 11, 110, 0
20, 123072, Note_on_c, 11, 110, 127
20, 123168, Note_on_c, 11, 110, 0
20, 123168, Note_on_c, 11, 110, 127
20, 123264, Note_on_c, 11, 110, 0
20, 123264, Note_on_c, 11, 110, 127
20, 123648, Note_on_c, 11, 110, 0
20, 123648, Note_on_c, 11, 110, 127
20, 123840, Note_on_c, 11, 110, 0
20, 123840, Note_on_c, 11, 110, 127
20, 123936, Note_on_c, 11, 110, 0
20, 123936, Note_on_c, 11, 110, 127
20, 124032, Note_on_c, 11, 110, 0
20, 124032, Note_on_c, 11, 110, 127
20, 124416, Note_on_c, 11, 110, 0
20, 124416, Note_on_c, 11, 110, 127
20, 124608, Note_on_c, 11, 110, 0
20, 124608, Note_on_c, 11, 110, 127
20, 124704, Note_on_c, 11, 110, 0
20, 124704, Note_on_c, 11, 110, 127
20, 124800, Note_on_c, 11, 110, 0
20, 124800, Note_on_c, 11, 110, 127
20, 125184, Note_on_c, 11, 110, 0
20, 125184, Note_on_c, 11, 110, 111
20, 125376, Note_on_c, 11, 110, 0
20, 125376, Note_on_c, 11, 110, 111
20, 125472, Note_on_c, 11, 110, 0
20, 125472, Note_on_c, 11, 110, 111
20, 125568, Note_on_c, 11, 110, 0
20, 125568, Note_on_c, 11, 110, 111
20, 125952, Note_on_c, 11, 110, 0
20, 125952, Note_on_c, 11, 110, 111
20, 126144, Note_on_c, 11, 110, 0
20, 126144, Note_on_c, 11, 110, 111
20, 126240, Note_on_c, 11, 110, 0
20, 126240, Note_on_c, 11, 110, 111
20, 126336, Note_on_c, 11, 110, 0
20, 126336, Note_on_c, 11, 110, 111
20, 126720, Note_on_c, 11, 110, 0
20, 126720, Note_on_c, 11, 110, 111
20, 126912, Note_on_c, 11, 110, 0
20, 126912, Note_on_c, 11, 110, 111
20, 127008, Note_on_c, 11, 110, 0
20, 127008, Note_on_c, 11, 110, 111
20, 127104, Note_on_c, 11, 110, 0
20, 127104, Note_on_c, 11, 110, 111
20, 127488, Note_on_c, 11, 110, 0
20, 127488, Note_on_c, 11, 110, 111
20, 127680, Note_on_c, 11, 110, 0
20, 127680, Note_on_c, 11, 110, 111
20, 127776, Note_on_c, 11, 110, 0
20, 127776, Note_on_c, 11, 110, 111
20, 127872, Note_on_c, 11, 110, 0
20, 127872, Note_on_c, 11, 110, 111
20, 128256, Note_on_c, 11, 110, 0
20, 128256, Note_on_c, 11, 110, 111
20, 129024, Note_on_c, 11, 110, 0
20, 258048, Program_c, 11, 14
20, 258096, Note_on_c, 11, 58, 116
20, 258120, Note_on_c, 11, 58, 0
20, 258120, Note_on_c, 11, 58, 116
20, 258144, Note_on_c, 11, 58, 0
20, 258144, Note_on_c, 11, 58, 116
20, 258168, Note_on_c, 11, 58, 0
20, 258168, Note_on_c, 11, 58, 116
20, 258192, Note_on_c, 11, 58, 0
20, 258192, Note_on_c, 11, 58, 116
20, 258216, Note_on_c, 11, 58, 0
20, 258216, Note_on_c, 11, 58, 116
20, 258240, Note_on_c, 11, 58, 0
20, 258240, Note_on_c, 11, 58, 116
20, 258264, Note_on_c, 11, 58, 0
20, 258264, Note_on_c, 11, 58, 116
20, 258288, Note_on_c, 11, 58, 0
20, 258288, Note_on_c, 11, 58, 116
20, 258312, Note_on_c, 11, 58, 0
20, 258312, Note_on_c, 11, 58, 116
20, 258336, Note_on_c, 11, 58, 0
20, 258336, Note_on_c, 11, 58, 116
20, 258360, Note_on_c, 11, 58, 0
20, 258360, Note_on_c, 11, 58, 116
20, 258384, Note_on_c, 11, 58, 0
20, 258384, Note_on_c, 11, 58, 116
20, 258408, Note_on_c, 11, 58, 0
20, 258408, Note_on_c, 11, 58, 116
20, 258432, Note_on_c, 11, 58, 0
20, 258432, Note_on_c, 11, 58, 116
20, 258456, Note_on_c, 11, 58, 0
20, 258456, Note_on_c, 11, 58, 116
20, 258480, Note_on_c, 11, 58, 0
20, 258480, Note_on_c, 11, 58, 116
20, 258504, Note_on_c, 11, 58, 0
20, 258504, Note_on_c, 11, 58, 116
20, 258528, Note_on_c, 11, 58, 0
20, 258528, Note_on_c, 11, 58, 116
20, 258552, Note_on_c, 11, 58, 0
20, 258552, Note_on_c, 11, 58, 116
20, 258576, Note_on_c, 11, 58, 0
20, 258576, Note_on_c, 11, 58, 116
20, 258600, Note_on_c, 11, 58, 0
20, 258600, Note_on_c, 11, 58, 116
20, 258624, Note_on_c, 11, 58, 0
20, 258624, Note_on_c, 11, 58, 116
20, 258648, Note_on_c, 11, 58, 0
20, 258648, Note_on_c, 11, 58, 116
20, 258672, Note_on_c, 11, 58, 0
20, 258672, Note_on_c, 11, 58, 116
20, 258696, Note_on_c, 11, 58, 0
20, 258696, Note_on_c, 11, 58, 116
20, 258720, Note_on_c, 11, 58, 0
20, 258720, Note_on_c, 11, 58, 116
20, 258744, Note_on_c, 11, 58, 0
20, 258744, Note_on_c, 11, 58, 116
20, 258768, Note_on_c, 11, 58, 0
20, 258768, Note_on_c, 11, 58, 116
20, 258792, Note_on_c, 11, 58, 0
20, 258792, Note_on_c, 11, 58, 116
20, 258816, Note_on_c, 11, 58, 0
20, 258816, Note_on_c, 11, 58, 116
20, 258840, Note_on_c, 11, 58, 0
20, 258840, Note_on_c, 11, 58, 116
20, 258864, Note_on_c, 11, 58, 0
20, 258864, Note_on_c, 11, 58, 116
20, 258888, Note_on_c, 11, 58, 0
20, 258888, Note_on_c, 11, 58, 116
20, 258912, Note_on_c, 11, 58, 0
20, 258912, Note_on_c, 11, 58, 116
20, 258936, Note_on_c, 11, 58, 0
20, 258936, Note_on_c, 11, 58, 116
20, 258960, Note_on_c, 11, 58, 0
20, 258960, Note_on_c, 11, 58, 116
20, 258984, Note_on_c, 11, 58, 0
20, 258984, Note_on_c, 11, 58, 116
20, 259008, Note_on_c, 11, 58, 0
20, 259008, Note_on_c, 11, 58, 116
20, 259032, Note_on_c, 11, 58, 0
20, 259032, Note_on_c, 11, 58, 116
20, 259056, Note_on_c, 11, 58, 0
20, 259056, Note_on_c, 11, 58, 116
20, 259080, Note_on_c, 11, 58, 0
20, 259080, Note_on_c, 11, 58, 116
20, 259104, Note_on_c, 11, 58, 0
20, 259104, Note_on_c, 11, 58, 116
20, 259128, Note_on_c, 11, 58, 0
20, 259128, Note_on_c, 11, 58, 116
20, 259152, Note_on_c, 11, 58, 0
20, 259152, Note_on_c, 11, 58, 116
20, 259176, Note_on_c, 11, 58, 0
20, 259200, Note_on_c, 11, 51, 116
20, 259224, Note_on_c, 11, 51, 0
20, 259248, Note_on_c, 11, 51, 116
20, 259272, Note_on_c, 11, 51, 0
20, 259272, Note_on_c, 11, 51, 116
20, 259296, Note_on_c, 11, 51, 0
20, 259296, Note_on_c, 11, 51, 116
20, 259320, Note_on_c, 11, 51, 0
20, 259320, Note_on_c, 11, 51, 116
20, 259344, Note_on_c, 11, 51, 0
20, 259344, Note_on_c, 11, 51, 116
20, 259368, Note_on_c, 11, 51, 0
20, 259368, Note_on_c, 11, 51, 116
20, 259392, Note_on_c, 11, 51, 0
20, 259392, Note_on_c, 11, 51, 116
20, 259416, Note_on_c, 11, 51, 0
20, 259416, Note_on_c, 11, 51, 116
20, 259440, Note_on_c, 11, 51, 0
20, 259440, Note_on_c, 11, 51, 116
20, 259464, Note_on_c, 11, 51, 0
20, 259464, Note_on_c, 11, 51, 116
20, 259488, Note_on_c, 11, 51, 0
20, 259488, Note_on_c, 11, 51, 116
20, 259512, Note_on_c, 11, 51, 0
20, 259512, Note_on_c, 11, 51, 116
20, 259536, Note_on_c, 11, 51, 0
20, 259536, Note_on_c, 11, 51, 116
20, 259560, Note_on_c, 11, 51, 0
20, 259560, Note_on_c, 11, 51, 116
20, 259584, Note_on_c, 11, 51, 0
20, 259584, Note_on_c, 11, 51, 116
20, 259608, Note_on_c, 11, 51, 0
20, 259608, Note_on_c, 11, 51, 116
20, 259632, Note_on_c, 11, 51, 0
20, 259632, Note_on_c, 11, 51, 116
20, 259656, Note_on_c, 11, 51, 0
20, 259656, Note_on_c, 11, 51, 116
20, 259680, Note_on_c, 11, 51, 0
20, 259680, Note_on_c, 11, 51, 116
20, 259704, Note_on_c, 11, 51, 0
20, 259704, Note_on_c, 11, 51, 116
20, 259728, Note_on_c, 11, 51, 0
20, 259728, Note_on_c, 11, 51, 116
20, 259752, Note_on_c, 11, 51, 0
20, 259752, Note_on_c, 11, 51, 116
20, 259776, Note_on_c, 11, 51, 0
20, 259800, Note_on_c, 11, 51, 116
20, 259824, Note_on_c, 11, 51, 0
20, 259824, Note_on_c, 11, 51, 116
20, 259848, Note_on_c, 11, 51, 0
20, 259848, Note_on_c, 11, 51, 116
20, 259872, Note_on_c, 11, 51, 0
20, 259872, Note_on_c, 11, 51, 116
20, 259896, Note_on_c, 11, 51, 0
20, 259896, Note_on_c, 11, 51, 116
20, 259920, Note_on_c, 11, 51, 0
20, 259920, Note_on_c, 11, 51, 116
20, 259944, Note_on_c, 11, 51, 0
20, 259944, Note_on_c, 11, 51, 116
20, 259968, Note_on_c, 11, 51, 0
20, 259968, Note_on_c, 11, 51, 116
20, 259992, Note_on_c, 11, 51, 0
20, 259992, Note_on_c, 11, 51, 116
20, 260016, Note_on_c, 11, 51, 0
20, 260016, Note_on_c, 11, 51, 116
20, 260040, Note_on_c, 11, 51, 0
20, 260040, Note_on_c, 11, 51, 116
20, 260064, Note_on_c, 11, 51, 0
20, 260064, Note_on_c, 11, 51, 116
20, 260088, Note_on_c, 11, 51, 0
20, 260088, Note_on_c, 11, 51, 116
20, 260112, Note_on_c, 11, 51, 0
20, 260112, Note_on_c, 11, 51, 116
20, 260136, Note_on_c, 11, 51, 0
20, 260136, Note_on_c, 11, 51, 116
20, 260160, Note_on_c, 11, 51, 0
20, 260160, Note_on_c, 11, 51, 116
20, 260184, Note_on_c, 11, 51, 0
20, 260184, Note_on_c, 11, 51, 116
20, 260208, Note_on_c, 11, 51, 0
20, 260208, Note_on_c, 11, 51, 116
20, 260232, Note_on_c, 11, 51, 0
20, 260232, Note_on_c, 11, 51, 116
20, 260256, Note_on_c, 11, 51, 0
20, 260256, Note_on_c, 11, 51, 116
20, 260280, Note_on_c, 11, 51, 0
20, 260280, Note_on_c, 11, 51, 116
20, 260304, Note_on_c, 11, 51, 0
20, 260304, Note_on_c, 11, 51, 116
20, 260328, Note_on_c, 11, 51, 0
20, 260376, Note_on_c, 11, 51, 116
20, 260400, Note_on_c, 11, 51, 0
20, 260400, Note_on_c, 11, 51, 116
20, 260424, Note_on_c, 11, 51, 0
20, 260424, Note_on_c, 11, 51, 116
20, 260448, Note_on_c, 11, 51, 0
20, 260448, Note_on_c, 11, 51, 116
20, 260472, Note_on_c, 11, 51, 0
20, 260472, Note_on_c, 11, 51, 116
20, 260496, Note_on_c, 11, 51, 0
20, 260496, Note_on_c, 11, 51, 116
20, 260520, Note_on_c, 11, 51, 0
20, 260520, Note_on_c, 11, 51, 116
20, 260544, Note_on_c, 11, 51, 0
20, 260544, Note_on_c, 11, 51, 116
20, 260568, Note_on_c, 11, 51, 0
20, 260568, Note_on_c, 11, 51, 116
20, 260592, Note_on_c, 11, 51, 0
20, 260592, Note_on_c, 11, 51, 116
20, 260616, Note_on_c, 11, 51, 0
20, 260616, Note_on_c, 11, 51, 116
20, 260640, Note_on_c, 11, 51, 0
20, 260640, Note_on_c, 11, 51, 116
20, 260664, Note_on_c, 11, 51, 0
20, 260664, Note_on_c, 11, 51, 116
20, 260688, Note_on_c, 11, 51, 0
20, 260688, Note_on_c, 11, 51, 116
20, 260712, Note_on_c, 11, 51, 0
20, 260712, Note_on_c, 11, 51, 116
20, 260736, Note_on_c, 11, 51, 0
20, 260736, Note_on_c, 11, 51, 116
20, 260760, Note_on_c, 11, 51, 0
20, 260760, Note_on_c, 11, 51, 116
20, 260784, Note_on_c, 11, 51, 0
20, 260784, Note_on_c, 11, 51, 116
20, 260808, Note_on_c, 11, 51, 0
20, 260808, Note_on_c, 11, 51, 116
20, 260832, Note_on_c, 11, 51, 0
20, 260832, Note_on_c, 11, 51, 116
20, 260856, Note_on_c, 11, 51, 0
20, 260856, Note_on_c, 11, 51, 116
20, 260880, Note_on_c, 11, 51, 0
20, 260880, Note_on_c, 11, 51, 116
20, 260904, Note_on_c, 11, 51, 0
20, 260904, Note_on_c, 11, 51, 116
20, 260928, Note_on_c, 11, 51, 0
20, 260928, Note_on_c, 11, 51, 116
20, 260952, Note_on_c, 11, 51, 0
20, 260952, Note_on_c, 11, 51, 116
20, 260976, Note_on_c, 11, 51, 0
20, 260976, Note_on_c, 11, 51, 116
20, 261000, Note_on_c, 11, 51, 0
20, 261000, Note_on_c, 11, 51, 116
20, 261024, Note_on_c, 11, 51, 0
20, 261024, Note_on_c, 11, 51, 116
20, 261048, Note_on_c, 11, 51, 0
20, 261048, Note_on_c, 11, 51, 116
20, 261072, Note_on_c, 11, 51, 0
20, 261072, Note_on_c, 11, 51, 116
20, 261096, Note_on_c, 11, 51, 0
20, 261096, Note_on_c, 11, 51, 116
20, 261120, Note_on_c, 11, 51, 0
20, 261120, Note_on_c, 11, 51, 116
20, 261144, Note_on_c, 11, 51, 0
20, 261144, Note_on_c, 11, 51, 116
20, 261168, Note_on_c, 11, 51, 0
20, 261168, Note_on_c, 11, 51, 116
20, 261192, Note_on_c, 11, 51, 0
20, 261192, Note_on_c, 11, 51, 116
20, 261216, Note_on_c, 11, 51, 0
20, 261216, Note_on_c, 11, 51, 116
20, 261240, Note_on_c, 11, 51, 0
20, 261240, Note_on_c, 11, 51, 116
20, 261264, Note_on_c, 11, 51, 0
20, 261264, Note_on_c, 11, 51, 116
20, 261288, Note_on_c, 11, 51, 0
20, 261288, Note_on_c, 11, 51, 116
20, 261312, Note_on_c, 11, 51, 0
20, 261312, Note_on_c, 11, 51, 116
20, 261336, Note_on_c, 11, 51, 0
20, 261336, Note_on_c, 11, 51, 116
20, 261360, Note_on_c, 11, 51, 0
20, 261360, Note_on_c, 11, 51, 116
20, 261384, Note_on_c, 11, 51, 0
20, 261384, Note_on_c, 11, 51, 116
20, 261408, Note_on_c, 11, 51, 0
20, 261408, Note_on_c, 11, 51, 116
20, 261432, Note_on_c, 11, 51, 0
20, 261432, Note_on_c, 11, 51, 116
20, 261456, Note_on_c, 11, 51, 0
20, 261456, Note_on_c, 11, 51, 116
20, 261480, Note_on_c, 11, 51, 0
20, 261504, Note_on_c, 11, 58, 116
20, 261528, Note_on_c, 11, 58, 0
20, 261552, Note_on_c, 11, 58, 116
20, 261576, Note_on_c, 11, 58, 0
20, 261576, Note_on_c, 11, 58, 116
20, 261600, Note_on_c, 11, 58, 0
20, 261600, Note_on_c, 11, 58, 116
20, 261624, Note_on_c, 11, 58, 0
20, 261624, Note_on_c, 11, 58, 116
20, 261648, Note_on_c, 11, 58, 0
20, 261648, Note_on_c, 11, 58, 116
20, 261672, Note_on_c, 11, 58, 0
20, 261672, Note_on_c, 11, 58, 116
20, 261696, Note_on_c, 11, 58, 0
20, 261696, Note_on_c, 11, 58, 116
20, 261720, Note_on_c, 11, 58, 0
20, 261720, Note_on_c, 11, 58, 116
20, 261744, Note_on_c, 11, 58, 0
20, 261744, Note_on_c, 11, 58, 116
20, 261768, Note_on_c, 11, 58, 0
20, 261768, Note_on_c, 11, 58, 116
20, 261792, Note_on_c, 11, 58, 0
20, 261792, Note_on_c, 11, 58, 116
20, 261816, Note_on_c, 11, 58, 0
20, 261816, Note_on_c, 11, 58, 116
20, 261840, Note_on_c, 11, 58, 0
20, 261840, Note_on_c, 11, 58, 116
20, 261864, Note_on_c, 11, 58, 0
20, 261864, Note_on_c, 11, 58, 116
20, 261888, Note_on_c, 11, 58, 0
20, 261888, Note_on_c, 11, 58, 116
20, 261912, Note_on_c, 11, 58, 0
20, 261912, Note_on_c, 11, 58, 116
20, 261936, Note_on_c, 11, 58, 0
20, 261936, Note_on_c, 11, 58, 116
20, 261960, Note_on_c, 11, 58, 0
20, 261960, Note_on_c, 11, 58, 116
20, 261984, Note_on_c, 11, 58, 0
20, 261984, Note_on_c, 11, 58, 116
20, 262008, Note_on_c, 11, 58, 0
20, 262008, Note_on_c, 11, 58, 116
20, 262032, Note_on_c, 11, 58, 0
20, 262032, Note_on_c, 11, 58, 116
20, 262056, Note_on_c, 11, 58, 0
20, 262080, Note_on_c, 11, 51, 116
20, 262104, Note_on_c, 11, 51, 0
20, 262128, Note_on_c, 11, 51, 116
20, 262152, Note_on_c, 11, 51, 0
20, 262152, Note_on_c, 11, 51, 116
20, 262176, Note_on_c, 11, 51, 0
20, 262176, Note_on_c, 11, 51, 116
20, 262200, Note_on_c, 11, 51, 0
20, 262200, Note_on_c, 11, 51, 116
20, 262224, Note_on_c, 11, 51, 0
20, 262224, Note_on_c, 11, 51, 116
20, 262248, Note_on_c, 11, 51, 0
20, 262248, Note_on_c, 11, 51, 116
20, 262272, Note_on_c, 11, 51, 0
20, 262272, Note_on_c, 11, 51, 116
20, 262296, Note_on_c, 11, 51, 0
20, 262296, Note_on_c, 11, 51, 116
20, 262320, Note_on_c, 11, 51, 0
20, 262320, Note_on_c, 11, 51, 116
20, 262344, Note_on_c, 11, 51, 0
20, 262344, Note_on_c, 11, 51, 116
20, 262368, Note_on_c, 11, 51, 0
20, 262368, Note_on_c, 11, 51, 116
20, 262392, Note_on_c, 11, 51, 0
20, 262392, Note_on_c, 11, 51, 116
20, 262416, Note_on_c, 11, 51, 0
20, 262416, Note_on_c, 11, 51, 116
20, 262440, Note_on_c, 11, 51, 0
20, 262440, Note_on_c, 11, 51, 116
20, 262464, Note_on_c, 11, 51, 0
20, 262464, Note_on_c, 11, 51, 116
20, 262488, Note_on_c, 11, 51, 0
20, 262488, Note_on_c, 11, 51, 116
20, 262512, Note_on_c, 11, 51, 0
20, 262512, Note_on_c, 11, 51, 116
20, 262536, Note_on_c, 11, 51, 0
20, 262536, Note_on_c, 11, 51, 116
20, 262560, Note_on_c, 11, 51, 0
20, 262560, Note_on_c, 11, 51, 116
20, 262584, Note_on_c, 11, 51, 0
20, 262584, Note_on_c, 11, 51, 116
20, 262608, Note_on_c, 11, 51, 0
20, 262608, Note_on_c, 11, 51, 116
20, 262632, Note_on_c, 11, 51, 0
20, 262632, Note_on_c, 11, 51, 116
20, 262656, Note_on_c, 11, 51, 0
20, 262656, Note_on_c, 11, 51, 116
20, 262680, Note_on_c, 11, 51, 0
20, 262680, Note_on_c, 11, 51, 116
20, 262704, Note_on_c, 11, 51, 0
20, 262704, Note_on_c, 11, 51, 116
20, 262728, Note_on_c, 11, 51, 0
20, 262728, Note_on_c, 11, 51, 116
20, 262752, Note_on_c, 11, 51, 0
20, 262752, Note_on_c, 11, 51, 116
20, 262776, Note_on_c, 11, 51, 0
20, 262776, Note_on_c, 11, 51, 116
20, 262800, Note_on_c, 11, 51, 0
20, 262800, Note_on_c, 11, 51, 116
20, 262824, Note_on_c, 11, 51, 0
20, 262824, Note_on_c, 11, 51, 116
20, 262848, Note_on_c, 11, 51, 0
20, 262848, Note_on_c, 11, 51, 116
20, 262872, Note_on_c, 11, 51, 0
20, 262872, Note_on_c, 11, 51, 116
20, 262896, Note_on_c, 11, 51, 0
20, 262896, Note_on_c, 11, 51, 116
20, 262920, Note_on_c, 11, 51, 0
20, 262920, Note_on_c, 11, 51, 116
20, 262944, Note_on_c, 11, 51, 0
20, 262944, Note_on_c, 11, 51, 116
20, 262968, Note_on_c, 11, 51, 0
20, 262968, Note_on_c, 11, 51, 116
20, 262992, Note_on_c, 11, 51, 0
20, 262992, Note_on_c, 11, 51, 116
20, 263016, Note_on_c, 11, 51, 0
20, 263016, Note_on_c, 11, 51, 116
20, 263040, Note_on_c, 11, 51, 0
20, 263040, Note_on_c, 11, 51, 116
20, 263064, Note_on_c, 11, 51, 0
20, 263064, Note_on_c, 11, 51, 116
20, 263088, Note_on_c, 11, 51, 0
20, 263088, Note_on_c, 11, 51, 116
20, 263112, Note_on_c, 11, 51, 0
20, 263112, Note_on_c, 11, 51, 116
20, 263136, Note_on_c, 11, 51, 0
20, 263136, Note_on_c, 11, 51, 116
20, 263160, Note_on_c, 11, 51, 0
20, 263160, Note_on_c, 11, 51, 116
20, 263184, Note_on_c, 11, 51, 0
20, 263184, Note_on_c, 11, 51, 116
20, 263208, Note_on_c, 11, 51, 0
20, 263208, Note_on_c, 11, 51, 116
20, 263232, Note_on_c, 11, 51, 0
20, 263256, Note_on_c, 11, 51, 116
20, 263280, Note_on_c, 11, 51, 0
20, 263280, Note_on_c, 11, 51, 116
20, 263304, Note_on_c, 11, 51, 0
20, 263304, Note_on_c, 11, 51, 116
20, 263328, Note_on_c, 11, 51, 0
20, 263328, Note_on_c, 11, 51, 116
20, 263352, Note_on_c, 11, 51, 0
20, 263352, Note_on_c, 11, 51, 116
20, 263376, Note_on_c, 11, 51, 0
20, 263376, Note_on_c, 11, 51, 116
20, 263400, Note_on_c, 11, 51, 0
20, 263400, Note_on_c, 11, 51, 116
20, 263424, Note_on_c, 11, 51, 0
20, 263424, Note_on_c, 11, 51, 116
20, 263448, Note_on_c, 11, 51, 0
20, 263448, Note_on_c, 11, 51, 116
20, 263472, Note_on_c, 11, 51, 0
20, 263472, Note_on_c, 11, 51, 116
20, 263496, Note_on_c, 11, 51, 0
20, 263496, Note_on_c, 11, 51, 116
20, 263520, Note_on_c, 11, 51, 0
20, 263520, Note_on_c, 11, 51, 116
20, 263544, Note_on_c, 11, 51, 0
20, 263544, Note_on_c, 11, 51, 116
20, 263568, Note_on_c, 11, 51, 0
20, 263568, Note_on_c, 11, 51, 116
20, 263592, Note_on_c, 11, 51, 0
20, 263592, Note_on_c, 11, 51, 116
20, 263616, Note_on_c, 11, 51, 0
20, 263616, Note_on_c, 11, 51, 116
20, 263640, Note_on_c, 11, 51, 0
20, 263640, Note_on_c, 11, 51, 116
20, 263664, Note_on_c, 11, 51, 0
20, 263664, Note_on_c, 11, 51, 116
20, 263688, Note_on_c, 11, 51, 0
20, 263688, Note_on_c, 11, 51, 116
20, 263712, Note_on_c, 11, 51, 0
20, 263712, Note_on_c, 11, 51, 116
20, 263736, Note_on_c, 11, 51, 0
20, 263736, Note_on_c, 11, 51, 116
20, 263760, Note_on_c, 11, 51, 0
20, 263760, Note_on_c, 11, 51, 116
20, 263784, Note_on_c, 11, 51, 0
20, 263808, Note_on_c, 11, 46, 116
20, 263832, Note_on_c, 11, 46, 0
20, 263856, Note_on_c, 11, 46, 116
20, 263880, Note_on_c, 11, 46, 0
20, 263880, Note_on_c, 11, 46, 116
20, 263904, Note_on_c, 11, 46, 0
20, 263904, Note_on_c, 11, 46, 116
20, 263928, Note_on_c, 11, 46, 0
20, 263928, Note_on_c, 11, 46, 116
20, 263952, Note_on_c, 11, 46, 0
20, 263952, Note_on_c, 11, 46, 116
20, 263976, Note_on_c, 11, 46, 0
20, 263976, Note_on_c, 11, 46, 116
20, 264000, Note_on_c, 11, 46, 0
20, 264000, Note_on_c, 11, 51, 116
20, 264024, Note_on_c, 11, 51, 0
20, 264024, Note_on_c, 11, 51, 116
20, 264048, Note_on_c, 11, 51, 0
20, 264048, Note_on_c, 11, 51, 116
20, 264072, Note_on_c, 11, 51, 0
20, 264072, Note_on_c, 11, 51, 116
20, 264096, Note_on_c, 11, 51, 0
20, 264096, Note_on_c, 11, 51, 116
20, 264120, Note_on_c, 11, 51, 0
20, 264120, Note_on_c, 11, 51, 116
20, 264144, Note_on_c, 11, 51, 0
20, 264144, Note_on_c, 11, 51, 116
20, 264168, Note_on_c, 11, 51, 0
20, 264168, Note_on_c, 11, 51, 116
20, 264192, Note_on_c, 11, 51, 0
20, 264192, Note_on_c, 11, 51, 116
20, 264216, Note_on_c, 11, 51, 0
20, 264216, Note_on_c, 11, 51, 116
20, 264240, Note_on_c, 11, 51, 0
20, 264240, Note_on_c, 11, 51, 116
20, 264264, Note_on_c, 11, 51, 0
20, 264264, Note_on_c, 11, 51, 116
20, 264288, Note_on_c, 11, 51, 0
20, 264288, Note_on_c, 11, 51, 116
20, 264312, Note_on_c, 11, 51, 0
20, 264312, Note_on_c, 11, 51, 116
20, 264336, Note_on_c, 11, 51, 0
20, 264336, Note_on_c, 11, 51, 116
20, 264360, Note_on_c, 11, 51, 0
20, 264384, Note_on_c, 11, 46, 114
20, 264389, Note_on_c, 11, 46, 0
20, 264395, Note_on_c, 11, 46, 114
20, 264400, Note_on_c, 11, 46, 0
20, 264419, Note_on_c, 11, 46, 114
20, 264424, Note_on_c, 11, 46, 0
20, 264432, Note_on_c, 11, 46, 114
20, 264437, Note_on_c, 11, 46, 0
20, 264443, Note_on_c, 11, 46, 114
20, 264448, Note_on_c, 11, 46, 0
20, 264456, Note_on_c, 11, 46, 114
20, 264461, Note_on_c, 11, 46, 0
20, 264467, Note_on_c, 11, 46, 114
20, 264472, Note_on_c, 11, 46, 0
20, 264480, Note_on_c, 11, 46, 114
20, 264485, Note_on_c, 11, 46, 0
20, 264491, Note_on_c, 11, 46, 114
20, 264496, Note_on_c, 11, 46, 0
20, 264504, Note_on_c, 11, 46, 114
20, 264509, Note_on_c, 11, 46, 0
20, 264515, Note_on_c, 11, 46, 114
20, 264520, Note_on_c, 11, 46, 0
20, 264528, Note_on_c, 11, 46, 114
20, 264533, Note_on_c, 11, 46, 0
20, 264539, Note_on_c, 11, 46, 114
20, 264544, Note_on_c, 11, 46, 0
20, 264552, Note_on_c, 11, 46, 114
20, 264557, Note_on_c, 11, 46, 0
20, 264563, Note_on_c, 11, 46, 114
20, 264568, Note_on_c, 11, 46, 0
20, 264576, Note_on_c, 11, 51, 114
20, 264581, Note_on_c, 11, 51, 0
20, 264587, Note_on_c, 11, 51, 114
20, 264592, Note_on_c, 11, 51, 0
20, 264600, Note_on_c, 11, 51, 114
20, 264605, Note_on_c, 11, 51, 0
20, 264611, Note_on_c, 11, 51, 114
20, 264616, Note_on_c, 11, 51, 0
20, 264624, Note_on_c, 11, 51, 114
20, 264629, Note_on_c, 11, 51, 0
20, 264635, Note_on_c, 11, 51, 114
20, 264640, Note_on_c, 11, 51, 0
20, 264648, Note_on_c, 11, 51, 114
20, 264653, Note_on_c, 11, 51, 0
20, 264659, Note_on_c, 11, 51, 114
20, 264664, Note_on_c, 11, 51, 0
20, 264672, Note_on_c, 11, 51, 114
20, 264677, Note_on_c, 11, 51, 0
20, 264683, Note_on_c, 11, 51, 114
20, 264688, Note_on_c, 11, 51, 0
20, 264696, Note_on_c, 11, 51, 114
20, 264701, Note_on_c, 11, 51, 0
20, 264707, Note_on_c, 11, 51, 114
20, 264712, Note_on_c, 11, 51, 0
20, 264720, Note_on_c, 11, 51, 114
20, 264725, Note_on_c, 11, 51, 0
20, 264731, Note_on_c, 11, 51, 114
20, 264736, Note_on_c, 11, 51, 0
20, 264744, Note_on_c, 11, 51, 114
20, 264749, Note_on_c, 11, 51, 0
20, 264755, Note_on_c, 11, 51, 114
20, 264760, Note_on_c, 11, 51, 0
20, 264768, Note_on_c, 11, 51, 114
20, 264773, Note_on_c, 11, 51, 0
20, 264779, Note_on_c, 11, 51, 114
20, 264784, Note_on_c, 11, 51, 0
20, 264792, Note_on_c, 11, 51, 114
20, 264797, Note_on_c, 11, 51, 0
20, 264803, Note_on_c, 11, 51, 114
20, 264808, Note_on_c, 11, 51, 0
20, 264816, Note_on_c, 11, 51, 114
20, 264821, Note_on_c, 11, 51, 0
20, 264827, Note_on_c, 11, 51, 114
20, 264832, Note_on_c, 11, 51, 0
20, 264840, Note_on_c, 11, 51, 114
20, 264845, Note_on_c, 11, 51, 0
20, 264851, Note_on_c, 11, 51, 114
20, 264856, Note_on_c, 11, 51, 0
20, 264864, Note_on_c, 11, 51, 114
20, 264869, Note_on_c, 11, 51, 0
20, 264875, Note_on_c, 11, 51, 114
20, 264880, Note_on_c, 11, 51, 0
20, 264888, Note_on_c, 11, 51, 114
20, 264893, Note_on_c, 11, 51, 0
20, 264899, Note_on_c, 11, 51, 114
20, 264904, Note_on_c, 11, 51, 0
20, 264912, Note_on_c, 11, 51, 114
20, 264917, Note_on_c, 11, 51, 0
20, 264923, Note_on_c, 11, 51, 114
20, 264928, Note_on_c, 11, 51, 0
20, 264936, Note_on_c, 11, 51, 114
20, 264941, Note_on_c, 11, 51, 0
20, 264947, Note_on_c, 11, 51, 114
20, 264952, Note_on_c, 11, 51, 0
20, 265008, Note_on_c, 11, 51, 116
20, 265032, Note_on_c, 11, 51, 0
20, 265032, Note_on_c, 11, 51, 116
20, 265056, Note_on_c, 11, 51, 0
20, 265056, Note_on_c, 11, 51, 116
20, 265080, Note_on_c, 11, 51, 0
20, 265080, Note_on_c, 11, 51, 116
20, 265104, Note_on_c, 11, 51, 0
20, 265104, Note_on_c, 11, 51, 116
20, 265128, Note_on_c, 11, 51, 0
20, 265128, Note_on_c, 11, 51, 116
20, 265152, Note_on_c, 11, 51, 0
20, 265152, Note_on_c, 11, 51, 116
20, 265176, Note_on_c, 11, 51, 0
20, 265176, Note_on_c, 11, 51, 116
20, 265200, Note_on_c, 11, 51, 0
20, 265200, Note_on_c, 11, 51, 116
20, 265224, Note_on_c, 11, 51, 0
20, 265224, Note_on_c, 11, 51, 116
20, 265248, Note_on_c, 11, 51, 0
20, 265248, Note_on_c, 11, 51, 116
20, 265272, Note_on_c, 11, 51, 0
20, 265272, Note_on_c, 11, 51, 116
20, 265296, Note_on_c, 11, 51, 0
20, 265296, Note_on_c, 11, 51, 116
20, 265320, Note_on_c, 11, 51, 0
20, 265320, Note_on_c, 11, 51, 116
20, 265344, Note_on_c, 11, 51, 0
20, 265344, Note_on_c, 11, 51, 116
20, 265368, Note_on_c, 11, 51, 0
20, 265368, Note_on_c, 11, 51, 116
20, 265392, Note_on_c, 11, 51, 0
20, 265392, Note_on_c, 11, 51, 116
20, 265416, Note_on_c, 11, 51, 0
20, 265416, Note_on_c, 11, 51, 116
20, 265440, Note_on_c, 11, 51, 0
20, 265440, Note_on_c, 11, 51, 116
20, 265464, Note_on_c, 11, 51, 0
20, 265464, Note_on_c, 11, 51, 116
20, 265488, Note_on_c, 11, 51, 0
20, 265488, Note_on_c, 11, 51, 116
20, 265512, Note_on_c, 11, 51, 0
20, 265512, Note_on_c, 11, 51, 116
20, 265536, Note_on_c, 11, 51, 0
20, 265560, Note_on_c, 11, 51, 116
20, 265584, Note_on_c, 11, 51, 0
20, 265584, Note_on_c, 11, 51, 116
20, 265608, Note_on_c, 11, 51, 0
20, 265608, Note_on_c, 11, 51, 116
20, 265632, Note_on_c, 11, 51, 0
20, 265632, Note_on_c, 11, 51, 116
20, 265656, Note_on_c, 11, 51, 0
20, 265656, Note_on_c, 11, 51, 116
20, 265680, Note_on_c, 11, 51, 0
20, 265680, Note_on_c, 11, 51, 116
20, 265704, Note_on_c, 11, 51, 0
20, 265704, Note_on_c, 11, 51, 116
20, 265728, Note_on_c, 11, 51, 0
20, 265728, Note_on_c, 11, 51, 116
20, 265752, Note_on_c, 11, 51, 0
20, 265752, Note_on_c, 11, 51, 116
20, 265776, Note_on_c, 11, 51, 0
20, 265776, Note_on_c, 11, 51, 116
20, 265800, Note_on_c, 11, 51, 0
20, 265800, Note_on_c, 11, 51, 116
20, 265824, Note_on_c, 11, 51, 0
20, 265824, Note_on_c, 11, 51, 116
20, 265848, Note_on_c, 11, 51, 0
20, 265848, Note_on_c, 11, 51, 116
20, 265872, Note_on_c, 11, 51, 0
20, 265872, Note_on_c, 11, 51, 116
20, 265896, Note_on_c, 11, 51, 0
20, 265896, Note_on_c, 11, 51, 116
20, 265920, Note_on_c, 11, 51, 0
20, 265920, Note_on_c, 11, 51, 116
20, 265944, Note_on_c, 11, 51, 0
20, 265944, Note_on_c, 11, 51, 116
20, 265968, Note_on_c, 11, 51, 0
20, 265968, Note_on_c, 11, 51, 116
20, 265992, Note_on_c, 11, 51, 0
20, 265992, Note_on_c, 11, 51, 116
20, 266016, Note_on_c, 11, 51, 0
20, 266016, Note_on_c, 11, 51, 116
20, 266040, Note_on_c, 11, 51, 0
20, 266040, Note_on_c, 11, 51, 116
20, 266064, Note_on_c, 11, 51, 0
20, 266064, Note_on_c, 11, 51, 116
20, 266088, Note_on_c, 11, 51, 0
20, 266160, Note_on_c, 11, 51, 116
20, 266184, Note_on_c, 11, 51, 0
20, 266184, Note_on_c, 11, 51, 116
20, 266208, Note_on_c, 11, 51, 0
20, 266208, Note_on_c, 11, 51, 116
20, 266232, Note_on_c, 11, 51, 0
20, 266232, Note_on_c, 11, 51, 116
20, 266256, Note_on_c, 11, 51, 0
20, 266256, Note_on_c, 11, 51, 116
20, 266280, Note_on_c, 11, 51, 0
20, 266280, Note_on_c, 11, 51, 116
20, 266304, Note_on_c, 11, 51, 0
20, 266304, Note_on_c, 11, 51, 116
20, 266328, Note_on_c, 11, 51, 0
20, 266328, Note_on_c, 11, 51, 116
20, 266352, Note_on_c, 11, 51, 0
20, 266352, Note_on_c, 11, 51, 116
20, 266376, Note_on_c, 11, 51, 0
20, 266376, Note_on_c, 11, 51, 116
20, 266400, Note_on_c, 11, 51, 0
20, 266400, Note_on_c, 11, 51, 116
20, 266424, Note_on_c, 11, 51, 0
20, 266424, Note_on_c, 11, 51, 116
20, 266448, Note_on_c, 11, 51, 0
20, 266448, Note_on_c, 11, 51, 116
20, 266472, Note_on_c, 11, 51, 0
20, 266472, Note_on_c, 11, 51, 116
20, 266496, Note_on_c, 11, 51, 0
20, 266496, Note_on_c, 11, 51, 116
20, 266520, Note_on_c, 11, 51, 0
20, 266520, Note_on_c, 11, 51, 116
20, 266544, Note_on_c, 11, 51, 0
20, 266544, Note_on_c, 11, 51, 116
20, 266568, Note_on_c, 11, 51, 0
20, 266568, Note_on_c, 11, 51, 116
20, 266592, Note_on_c, 11, 51, 0
20, 266592, Note_on_c, 11, 51, 116
20, 266616, Note_on_c, 11, 51, 0
20, 266616, Note_on_c, 11, 51, 116
20, 266640, Note_on_c, 11, 51, 0
20, 266640, Note_on_c, 11, 51, 116
20, 266664, Note_on_c, 11, 51, 0
20, 266664, Note_on_c, 11, 51, 116
20, 266688, Note_on_c, 11, 51, 0
20, 266688, Note_on_c, 11, 51, 116
20, 266712, Note_on_c, 11, 51, 0
20, 266712, Note_on_c, 11, 51, 116
20, 266736, Note_on_c, 11, 51, 0
20, 266736, Note_on_c, 11, 51, 116
20, 266760, Note_on_c, 11, 51, 0
20, 266760, Note_on_c, 11, 51, 116
20, 266784, Note_on_c, 11, 51, 0
20, 266784, Note_on_c, 11, 51, 116
20, 266808, Note_on_c, 11, 51, 0
20, 266808, Note_on_c, 11, 51, 116
20, 266832, Note_on_c, 11, 51, 0
20, 266832, Note_on_c, 11, 51, 116
20, 266856, Note_on_c, 11, 51, 0
20, 266856, Note_on_c, 11, 51, 116
20, 266880, Note_on_c, 11, 51, 0
20, 266880, Note_on_c, 11, 51, 116
20, 266904, Note_on_c, 11, 51, 0
20, 266904, Note_on_c, 11, 51, 116
20, 266928, Note_on_c, 11, 51, 0
20, 266928, Note_on_c, 11, 51, 116
20, 266952, Note_on_c, 11, 51, 0
20, 266952, Note_on_c, 11, 51, 116
20, 266976, Note_on_c, 11, 51, 0
20, 266976, Note_on_c, 11, 51, 116
20, 267000, Note_on_c, 11, 51, 0
20, 267000, Note_on_c, 11, 51, 116
20, 267024, Note_on_c, 11, 51, 0
20, 267024, Note_on_c, 11, 51, 116
20, 267048, Note_on_c, 11, 51, 0
20, 267048, Note_on_c, 11, 51, 116
20, 267072, Note_on_c, 11, 51, 0
20, 267072, Note_on_c, 11, 51, 116
20, 267096, Note_on_c, 11, 51, 0
20, 267096, Note_on_c, 11, 51, 116
20, 267120, Note_on_c, 11, 51, 0
20, 267120, Note_on_c, 11, 51, 116
20, 267144, Note_on_c, 11, 51, 0
20, 267144, Note_on_c, 11, 51, 116
20, 267168, Note_on_c, 11, 51, 0
20, 267168, Note_on_c, 11, 51, 116
20, 267192, Note_on_c, 11, 51, 0
20, 267192, Note_on_c, 11, 51, 116
20, 267216, Note_on_c, 11, 51, 0
20, 267216, Note_on_c, 11, 51, 116
20, 267240, Note_on_c, 11, 51, 0
20, 267240, Note_on_c, 11, 51, 116
20, 267264, Note_on_c, 11, 51, 0
20, 267264, Note_on_c, 11, 51, 116
20, 267288, Note_on_c, 11, 51, 0
20, 267288, Note_on_c, 11, 51, 116
20, 267312, Note_on_c, 11, 51, 0
20, 267312, Note_on_c, 11, 51, 116
20, 267336, Note_on_c, 11, 51, 0
20, 267336, Note_on_c, 11, 51, 116
20, 267360, Note_on_c, 11, 51, 0
20, 267360, Note_on_c, 11, 51, 116
20, 267384, Note_on_c, 11, 51, 0
20, 267384, Note_on_c, 11, 51, 116
20, 267408, Note_on_c, 11, 51, 0
20, 267408, Note_on_c, 11, 51, 116
20, 267432, Note_on_c, 11, 51, 0
20, 267432, Note_on_c, 11, 51, 116
20, 267456, Note_on_c, 11, 51, 0
20, 267456, Note_on_c, 11, 51, 116
20, 267480, Note_on_c, 11, 51, 0
20, 267480, Note_on_c, 11, 51, 116
20, 267504, Note_on_c, 11, 51, 0
20, 267504, Note_on_c, 11, 51, 116
20, 267528, Note_on_c, 11, 51, 0
20, 267528, Note_on_c, 11, 51, 116
20, 267552, Note_on_c, 11, 51, 0
20, 267552, Note_on_c, 11, 51, 116
20, 267576, Note_on_c, 11, 51, 0
20, 267576, Note_on_c, 11, 51, 116
20, 267600, Note_on_c, 11, 51, 0
20, 267600, Note_on_c, 11, 51, 116
20, 267624, Note_on_c, 11, 51, 0
20, 267624, Note_on_c, 11, 51, 116
20, 267648, Note_on_c, 11, 51, 0
20, 267648, Note_on_c, 11, 51, 116
20, 267672, Note_on_c, 11, 51, 0
20, 267672, Note_on_c, 11, 51, 116
20, 267696, Note_on_c, 11, 51, 0
20, 267696, Note_on_c, 11, 51, 116
20, 267720, Note_on_c, 11, 51, 0
20, 267720, Note_on_c, 11, 51, 116
20, 267744, Note_on_c, 11, 51, 0
20, 267744, Note_on_c, 11, 51, 116
20, 267768, Note_on_c, 11, 51, 0
20, 267768, Note_on_c, 11, 51, 116
20, 267792, Note_on_c, 11, 51, 0
20, 267792, Note_on_c, 11, 51, 116
20, 267816, Note_on_c, 11, 51, 0
20, 267816, Note_on_c, 11, 51, 116
20, 267840, Note_on_c, 11, 51, 0
20, 267840, Note_on_c, 11, 51, 116
20, 267864, Note_on_c, 11, 51, 0
20, 267864, Note_on_c, 11, 51, 116
20, 267888, Note_on_c, 11, 51, 0
20, 267888, Note_on_c, 11, 51, 116
20, 267912, Note_on_c, 11, 51, 0
20, 267912, Note_on_c, 11, 51, 116
20, 267936, Note_on_c, 11, 51, 0
20, 267936, Note_on_c, 11, 51, 116
20, 267960, Note_on_c, 11, 51, 0
20, 267960, Note_on_c, 11, 51, 116
20, 267984, Note_on_c, 11, 51, 0
20, 267984, Note_on_c, 11, 51, 116
20, 268008, Note_on_c, 11, 51, 0
20, 268008, Note_on_c, 11, 51, 116
20, 268032, Note_on_c, 11, 51, 0
20, 268032, Note_on_c, 11, 51, 116
20, 268056, Note_on_c, 11, 51, 0
20, 268056, Note_on_c, 11, 51, 116
20, 268080, Note_on_c, 11, 51, 0
20, 268080, Note_on_c, 11, 51, 116
20, 268104, Note_on_c, 11, 51, 0
20, 268104, Note_on_c, 11, 51, 116
20, 268128, Note_on_c, 11, 51, 0
20, 268128, Note_on_c, 11, 51, 116
20, 268152, Note_on_c, 11, 51, 0
20, 268152, Note_on_c, 11, 51, 116
20, 268176, Note_on_c, 11, 51, 0
20, 268176, Note_on_c, 11, 51, 116
20, 268200, Note_on_c, 11, 51, 0
20, 268200, Note_on_c, 11, 51, 116
20, 268224, Note_on_c, 11, 51, 0
20, 268224, Note_on_c, 11, 51, 116
20, 268248, Note_on_c, 11, 51, 0
20, 268248, Note_on_c, 11, 51, 116
20, 268272, Note_on_c, 11, 51, 0
20, 268272, Note_on_c, 11, 51, 116
20, 268296, Note_on_c, 11, 51, 0
20, 268296, Note_on_c, 11, 51, 116
20, 268320, Note_on_c, 11, 51, 0
20, 268320, Note_on_c, 11, 51, 116
20, 268344, Note_on_c, 11, 51, 0
20, 268344, Note_on_c, 11, 51, 116
20, 268368, Note_on_c, 11, 51, 0
20, 268368, Note_on_c, 11, 51, 116
20, 268392, Note_on_c, 11, 51, 0
20, 268392, Note_on_c, 11, 51, 116
20, 268416, Note_on_c, 11, 51, 0
20, 268416, Note_on_c, 11, 51, 116
20, 268440, Note_on_c, 11, 51, 0
20, 268440, Note_on_c, 11, 51, 116
20, 268464, Note_on_c, 11, 51, 0
20, 268464, Note_on_c, 11, 51, 116
20, 268488, Note_on_c, 11, 51, 0
20, 268488, Note_on_c, 11, 51, 116
20, 268512, Note_on_c, 11, 51, 0
20, 268512, Note_on_c, 11, 51, 116
20, 268536, Note_on_c, 11, 51, 0
20, 268536, Note_on_c, 11, 51, 116
20, 268560, Note_on_c, 11, 51, 0
20, 268560, Note_on_c, 11, 51, 116
20, 268584, Note_on_c, 11, 51, 0
20, 268584, Note_on_c, 11, 51, 116
20, 268608, Note_on_c, 11, 51, 0
20, 268608, Note_on_c, 11, 51, 116
20, 268632, Note_on_c, 11, 51, 0
20, 268632, Note_on_c, 11, 51, 116
20, 268656, Note_on_c, 11, 51, 0
20, 268656, Note_on_c, 11, 51, 116
20, 268680, Note_on_c, 11, 51, 0
20, 268680, Note_on_c, 11, 51, 116
20, 268704, Note_on_c, 11, 51, 0
20, 268704, Note_on_c, 11, 51, 116
20, 268728, Note_on_c, 11, 51, 0
20, 268728, Note_on_c, 11, 51, 116
20, 268752, Note_on_c, 11, 51, 0
20, 268752, Note_on_c, 11, 51, 116
20, 268776, Note_on_c, 11, 51, 0
20, 268776, Note_on_c, 11, 51, 116
20, 268800, Note_on_c, 11, 51, 0
20, 268800, Note_on_c, 11, 51, 116
20, 268824, Note_on_c, 11, 51, 0
20, 268824, Note_on_c, 11, 51, 116
20, 268848, Note_on_c, 11, 51, 0
20, 268848, Note_on_c, 11, 51, 116
20, 268872, Note_on_c, 11, 51, 0
20, 268872, Note_on_c, 11, 51, 116
20, 268896, Note_on_c, 11, 51, 0
20, 268896, Note_on_c, 11, 51, 116
20, 268920, Note_on_c, 11, 51, 0
20, 268920, Note_on_c, 11, 51, 116
20, 268944, Note_on_c, 11, 51, 0
20, 268944, Note_on_c, 11, 51, 116
20, 268968, Note_on_c, 11, 51, 0
20, 268968, Note_on_c, 11, 51, 116
20, 268992, Note_on_c, 11, 51, 0
20, 268992, Note_on_c, 11, 58, 116
20, 269016, Note_on_c, 11, 58, 0
20, 269016, Note_on_c, 11, 58, 116
20, 269040, Note_on_c, 11, 58, 0
20, 269040, Note_on_c, 11, 58, 116
20, 269064, Note_on_c, 11, 58, 0
20, 269064, Note_on_c, 11, 58, 116
20, 269088, Note_on_c, 11, 58, 0
20, 269088, Note_on_c, 11, 58, 116
20, 269112, Note_on_c, 11, 58, 0
20, 269112, Note_on_c, 11, 58, 116
20, 269136, Note_on_c, 11, 58, 0
20, 269136, Note_on_c, 11, 58, 116
20, 269160, Note_on_c, 11, 58, 0
20, 269160, Note_on_c, 11, 58, 116
20, 269184, Note_on_c, 11, 58, 0
20, 269184, Note_on_c, 11, 58, 116
20, 269208, Note_on_c, 11, 58, 0
20, 269208, Note_on_c, 11, 58, 116
20, 269232, Note_on_c, 11, 58, 0
20, 269232, Note_on_c, 11, 58, 116
20, 269256, Note_on_c, 11, 58, 0
20, 269256, Note_on_c, 11, 58, 116
20, 269280, Note_on_c, 11, 58, 0
20, 269280, Note_on_c, 11, 58, 116
20, 269304, Note_on_c, 11, 58, 0
20, 269304, Note_on_c, 11, 58, 116
20, 269328, Note_on_c, 11, 58, 0
20, 269328, Note_on_c, 11, 58, 116
20, 269352, Note_on_c, 11, 58, 0
20, 269352, Note_on_c, 11, 58, 116
20, 269376, Note_on_c, 11, 58, 0
20, 269376, Note_on_c, 11, 58, 116
20, 269400, Note_on_c, 11, 58, 0
20, 269400, Note_on_c, 11, 58, 116
20, 269424, Note_on_c, 11, 58, 0
20, 269424, Note_on_c, 11, 58, 116
20, 269448, Note_on_c, 11, 58, 0
20, 269448, Note_on_c, 11, 58, 116
20, 269472, Note_on_c, 11, 58, 0
20, 269472, Note_on_c, 11, 58, 116
20, 269496, Note_on_c, 11, 58, 0
20, 269496, Note_on_c, 11, 58, 116
20, 269520, Note_on_c, 11, 58, 0
20, 269520, Note_on_c, 11, 58, 116
20, 269544, Note_on_c, 11, 58, 0
20, 269544, Note_on_c, 11, 58, 116
20, 269568, Note_on_c, 11, 58, 0
20, 269568, Note_on_c, 11, 58, 116
20, 269592, Note_on_c, 11, 58, 0
20, 269592, Note_on_c, 11, 58, 116
20, 269616, Note_on_c, 11, 58, 0
20, 269616, Note_on_c, 11, 58, 116
20, 269640, Note_on_c, 11, 58, 0
20, 269640, Note_on_c, 11, 58, 116
20, 269664, Note_on_c, 11, 58, 0
20, 269664, Note_on_c, 11, 58, 116
20, 269688, Note_on_c, 11, 58, 0
20, 269688, Note_on_c, 11, 58, 116
20, 269712, Note_on_c, 11, 58, 0
20, 269712, Note_on_c, 11, 58, 116
20, 269736, Note_on_c, 11, 58, 0
20, 269736, Note_on_c, 11, 58, 116
20, 269760, Note_on_c, 11, 58, 0
20, 269760, Note_on_c, 11, 58, 116
20, 269784, Note_on_c, 11, 58, 0
20, 269784, Note_on_c, 11, 58, 116
20, 269808, Note_on_c, 11, 58, 0
20, 269808, Note_on_c, 11, 58, 116
20, 269832, Note_on_c, 11, 58, 0
20, 269832, Note_on_c, 11, 58, 116
20, 269856, Note_on_c, 11, 58, 0
20, 269856, Note_on_c, 11, 58, 116
20, 269880, Note_on_c, 11, 58, 0
20, 269880, Note_on_c, 11, 58, 116
20, 269904, Note_on_c, 11, 58, 0
20, 269904, Note_on_c, 11, 58, 116
20, 269928, Note_on_c, 11, 58, 0
20, 269928, Note_on_c, 11, 58, 116
20, 269952, Note_on_c, 11, 58, 0
20, 269952, Note_on_c, 11, 58, 116
20, 269976, Note_on_c, 11, 58, 0
20, 269976, Note_on_c, 11, 58, 116
20, 270000, Note_on_c, 11, 58, 0
20, 270000, Note_on_c, 11, 58, 116
20, 270024, Note_on_c, 11, 58, 0
20, 270024, Note_on_c, 11, 58, 116
20, 270048, Note_on_c, 11, 58, 0
20, 270048, Note_on_c, 11, 58, 116
20, 270072, Note_on_c, 11, 58, 0
20, 270072, Note_on_c, 11, 58, 116
20, 270096, Note_on_c, 11, 58, 0
20, 270096, Note_on_c, 11, 58, 116
20, 270120, Note_on_c, 11, 58, 0
20, 270120, Note_on_c, 11, 58, 116
20, 270144, Note_on_c, 11, 58, 0
20, 270144, Note_on_c, 11, 51, 114
20, 270240, Note_on_c, 11, 51, 0
20, 276288, Note_on_c, 11, 63, 127
20, 276672, Note_on_c, 11, 63, 0
20, 277824, Note_on_c, 11, 63, 127
20, 278208, Note_on_c, 11, 63, 0
20, 279744, Note_on_c, 11, 63, 114
20, 280128, Note_on_c, 11, 63, 0
20, 280512, Note_on_c, 11, 63, 114
20, 280896, Note_on_c, 11, 63, 0
20, 281664, Note_on_c, 11, 63, 114
20, 282048, Note_on_c, 11, 63, 0
20, 283968, Note_on_c, 11, 58, 114
20, 284352, Note_on_c, 11, 58, 0
20, 285504, Note_on_c, 11, 58, 114
20, 285888, Note_on_c, 11, 58, 0
20, 288576, Note_on_c, 11, 63, 114
20, 288594, Note_on_c, 11, 63, 0
20, 288600, Note_on_c, 11, 63, 114
20, 288618, Note_on_c, 11, 63, 0
20, 288624, Note_on_c, 11, 63, 114
20, 288642, Note_on_c, 11, 63, 0
20, 288648, Note_on_c, 11, 63, 114
20, 288666, Note_on_c, 11, 63, 0
20, 288672, Note_on_c, 11, 63, 114
20, 288690, Note_on_c, 11, 63, 0
20, 288696, Note_on_c, 11, 63, 114
20, 288714, Note_on_c, 11, 63, 0
20, 288720, Note_on_c, 11, 63, 114
20, 288738, Note_on_c, 11, 63, 0
20, 288744, Note_on_c, 11, 63, 114
20, 288762, Note_on_c, 11, 63, 0
20, 288768, Note_on_c, 11, 63, 114
20, 288786, Note_on_c, 11, 63, 0
20, 288792, Note_on_c, 11, 63, 114
20, 288810, Note_on_c, 11, 63, 0
20, 288816, Note_on_c, 11, 63, 114
20, 288834, Note_on_c, 11, 63, 0
20, 288840, Note_on_c, 11, 63, 114
20, 288858, Note_on_c, 11, 63, 0
20, 288864, Note_on_c, 11, 63, 114
20, 288882, Note_on_c, 11, 63, 0
20, 288888, Note_on_c, 11, 63, 114
20, 288906, Note_on_c, 11, 63, 0
20, 288912, Note_on_c, 11, 63, 114
20, 288930, Note_on_c, 11, 63, 0
20, 288936, Note_on_c, 11, 63, 114
20, 288954, Note_on_c, 11, 63, 0
20, 288960, Note_on_c, 11, 63, 114
20, 288978, Note_on_c, 11, 63, 0
20, 288984, Note_on_c, 11, 63, 114
20, 289002, Note_on_c, 11, 63, 0
20, 289008, Note_on_c, 11, 63, 114
20, 289026, Note_on_c, 11, 63, 0
20, 289032, Note_on_c, 11, 63, 114
20, 289050, Note_on_c, 11, 63, 0
20, 289056, Note_on_c, 11, 63, 114
20, 289074, Note_on_c, 11, 63, 0
20, 289080, Note_on_c, 11, 63, 114
20, 289098, Note_on_c, 11, 63, 0
20, 289104, Note_on_c, 11, 63, 114
20, 289122, Note_on_c, 11, 63, 0
20, 289128, Note_on_c, 11, 63, 114
20, 289146, Note_on_c, 11, 63, 0
20, 289152, Note_on_c, 11, 63, 114
20, 289170, Note_on_c, 11, 63, 0
20, 289176, Note_on_c, 11, 63, 114
20, 289194, Note_on_c, 11, 63, 0
20, 289200, Note_on_c, 11, 63, 114
20, 289218, Note_on_c, 11, 63, 0
20, 289224, Note_on_c, 11, 63, 114
20, 289242, Note_on_c, 11, 63, 0
20, 289248, Note_on_c, 11, 63, 114
20, 289266, Note_on_c, 11, 63, 0
20, 289272, Note_on_c, 11, 63, 114
20, 289290, Note_on_c, 11, 63, 0
20, 289296, Note_on_c, 11, 63, 114
20, 289314, Note_on_c, 11, 63, 0
20, 289320, Note_on_c, 11, 63, 114
20, 289338, Note_on_c, 11, 63, 0
20, 289344, Note_on_c, 11, 63, 114
20, 289362, Note_on_c, 11, 63, 0
20, 289368, Note_on_c, 11, 63, 114
20, 289386, Note_on_c, 11, 63, 0
20, 289392, Note_on_c, 11, 63, 114
20, 289410, Note_on_c, 11, 63, 0
20, 289416, Note_on_c, 11, 63, 114
20, 289434, Note_on_c, 11, 63, 0
20, 289440, Note_on_c, 11, 63, 114
20, 289458, Note_on_c, 11, 63, 0
20, 289464, Note_on_c, 11, 63, 114
20, 289482, Note_on_c, 11, 63, 0
20, 289488, Note_on_c, 11, 63, 114
20, 289506, Note_on_c, 11, 63, 0
20, 289512, Note_on_c, 11, 63, 114
20, 289530, Note_on_c, 11, 63, 0
20, 289536, Note_on_c, 11, 63, 114
20, 289554, Note_on_c, 11, 63, 0
20, 289560, Note_on_c, 11, 63, 114
20, 289578, Note_on_c, 11, 63, 0
20, 289584, Note_on_c, 11, 63, 114
20, 289602, Note_on_c, 11, 63, 0
20, 289608, Note_on_c, 11, 63, 114
20, 289626, Note_on_c, 11, 63, 0
20, 289632, Note_on_c, 11, 63, 114
20, 289650, Note_on_c, 11, 63, 0
20, 289656, Note_on_c, 11, 63, 114
20, 289674, Note_on_c, 11, 63, 0
20, 289680, Note_on_c, 11, 63, 114
20, 289698, Note_on_c, 11, 63, 0
20, 289704, Note_on_c, 11, 63, 114
20, 289722, Note_on_c, 11, 63, 0
20, 289728, Note_on_c, 11, 63, 114
20, 289746, Note_on_c, 11, 63, 0
20, 289752, Note_on_c, 11, 63, 114
20, 289770, Note_on_c, 11, 63, 0
20, 289776, Note_on_c, 11, 63, 114
20, 289794, Note_on_c, 11, 63, 0
20, 289800, Note_on_c, 11, 63, 114
20, 289818, Note_on_c, 11, 63, 0
20, 289824, Note_on_c, 11, 63, 114
20, 289842, Note_on_c, 11, 63, 0
20, 289848, Note_on_c, 11, 63, 114
20, 289866, Note_on_c, 11, 63, 0
20, 289872, Note_on_c, 11, 63, 114
20, 289890, Note_on_c, 11, 63, 0
20, 289896, Note_on_c, 11, 63, 114
20, 289914, Note_on_c, 11, 63, 0
20, 289920, Note_on_c, 11, 63, 114
20, 289938, Note_on_c, 11, 63, 0
20, 289944, Note_on_c, 11, 63, 114
20, 289962, Note_on_c, 11, 63, 0
20, 289968, Note_on_c, 11, 63, 114
20, 289986, Note_on_c, 11, 63, 0
20, 289992, Note_on_c, 11, 63, 114
20, 290010, Note_on_c, 11, 63, 0
20, 290016, Note_on_c, 11, 63, 114
20, 290034, Note_on_c, 11, 63, 0
20, 290040, Note_on_c, 11, 63, 114
20, 290058, Note_on_c, 11, 63, 0
20, 290064, Note_on_c, 11, 63, 114
20, 290082, Note_on_c, 11, 63, 0
20, 290088, Note_on_c, 11, 63, 114
20, 290106, Note_on_c, 11, 63, 0
20, 290112, Note_on_c, 11, 63, 114
20, 290130, Note_on_c, 11, 63, 0
20, 290136, Note_on_c, 11, 63, 114
20, 290154, Note_on_c, 11, 63, 0
20, 290160, Note_on_c, 11, 63, 114
20, 290178, Note_on_c, 11, 63, 0
20, 290184, Note_on_c, 11, 63, 114
20, 290202, Note_on_c, 11, 63, 0
20, 290208, Note_on_c, 11, 63, 114
20, 290226, Note_on_c, 11, 63, 0
20, 290232, Note_on_c, 11, 63, 114
20, 290250, Note_on_c, 11, 63, 0
20, 290256, Note_on_c, 11, 63, 114
20, 290274, Note_on_c, 11, 63, 0
20, 290280, Note_on_c, 11, 63, 114
20, 290298, Note_on_c, 11, 63, 0
20, 290304, Note_on_c, 11, 63, 114
20, 290322, Note_on_c, 11, 63, 0
20, 290328, Note_on_c, 11, 63, 114
20, 290346, Note_on_c, 11, 63, 0
20, 290352, Note_on_c, 11, 63, 114
20, 290370, Note_on_c, 11, 63, 0
20, 290376, Note_on_c, 11, 63, 114
20, 290394, Note_on_c, 11, 63, 0
20, 290400, Note_on_c, 11, 63, 114
20, 290418, Note_on_c, 11, 63, 0
20, 290424, Note_on_c, 11, 63, 114
20, 290442, Note_on_c, 11, 63, 0
20, 290448, Note_on_c, 11, 63, 114
20, 290466, Note_on_c, 11, 63, 0
20, 290472, Note_on_c, 11, 63, 114
20, 290490, Note_on_c, 11, 63, 0
20, 290496, Note_on_c, 11, 63, 114
20, 290514, Note_on_c, 11, 63, 0
20, 290520, Note_on_c, 11, 63, 114
20, 290538, Note_on_c, 11, 63, 0
20, 290544, Note_on_c, 11, 63, 114
20, 290562, Note_on_c, 11, 63, 0
20, 290568, Note_on_c, 11, 63, 114
20, 290586, Note_on_c, 11, 63, 0
20, 290592, Note_on_c, 11, 63, 114
20, 290610, Note_on_c, 11, 63, 0
20, 290616, Note_on_c, 11, 63, 114
20, 290634, Note_on_c, 11, 63, 0
20, 290640, Note_on_c, 11, 63, 114
20, 290658, Note_on_c, 11, 63, 0
20, 290664, Note_on_c, 11, 63, 114
20, 290682, Note_on_c, 11, 63, 0
20, 290688, Note_on_c, 11, 63, 114
20, 290706, Note_on_c, 11, 63, 0
20, 290712, Note_on_c, 11, 63, 114
20, 290730, Note_on_c, 11, 63, 0
20, 290736, Note_on_c, 11, 63, 114
20, 290754, Note_on_c, 11, 63, 0
20, 290760, Note_on_c, 11, 63, 114
20, 290778, Note_on_c, 11, 63, 0
20, 290784, Note_on_c, 11, 63, 114
20, 290802, Note_on_c, 11, 63, 0
20, 290808, Note_on_c, 11, 63, 114
20, 290826, Note_on_c, 11, 63, 0
20, 290832, Note_on_c, 11, 63, 114
20, 290850, Note_on_c, 11, 63, 0
20, 290856, Note_on_c, 11, 63, 114
20, 290874, Note_on_c, 11, 63, 0
20, 290880, Note_on_c, 11, 63, 114
20, 290898, Note_on_c, 11, 63, 0
20, 290904, Note_on_c, 11, 63, 114
20, 290922, Note_on_c, 11, 63, 0
20, 290928, Note_on_c, 11, 63, 114
20, 290946, Note_on_c, 11, 63, 0
20, 290952, Note_on_c, 11, 63, 114
20, 290970, Note_on_c, 11, 63, 0
20, 290976, Note_on_c, 11, 63, 114
20, 290994, Note_on_c, 11, 63, 0
20, 291000, Note_on_c, 11, 63, 114
20, 291018, Note_on_c, 11, 63, 0
20, 291024, Note_on_c, 11, 63, 114
20, 291042, Note_on_c, 11, 63, 0
20, 291048, Note_on_c, 11, 63, 114
20, 291066, Note_on_c, 11, 63, 0
20, 291072, Note_on_c, 11, 63, 114
20, 291090, Note_on_c, 11, 63, 0
20, 291096, Note_on_c, 11, 63, 114
20, 291114, Note_on_c, 11, 63, 0
20, 291120, Note_on_c, 11, 63, 114
20, 291138, Note_on_c, 11, 63, 0
20, 291144, Note_on_c, 11, 63, 114
20, 291162, Note_on_c, 11, 63, 0
20, 291168, Note_on_c, 11, 63, 114
20, 291186, Note_on_c, 11, 63, 0
20, 291192, Note_on_c, 11, 63, 114
20, 291210, Note_on_c, 11, 63, 0
20, 291216, Note_on_c, 11, 63, 114
20, 291234, Note_on_c, 11, 63, 0
20, 291240, Note_on_c, 11, 63, 114
20, 291258, Note_on_c, 11, 63, 0
20, 291264, Note_on_c, 11, 63, 114
20, 291282, Note_on_c, 11, 63, 0
20, 291288, Note_on_c, 11, 63, 114
20, 291306, Note_on_c, 11, 63, 0
20, 291312, Note_on_c, 11, 63, 114
20, 291330, Note_on_c, 11, 63, 0
20, 291336, Note_on_c, 11, 63, 114
20, 291354, Note_on_c, 11, 63, 0
20, 291360, Note_on_c, 11, 63, 114
20, 291378, Note_on_c, 11, 63, 0
20, 291384, Note_on_c, 11, 63, 114
20, 291402, Note_on_c, 11, 63, 0
20, 291408, Note_on_c, 11, 63, 114
20, 291426, Note_on_c, 11, 63, 0
20, 291456, Note_on_c, 11, 63, 114
20, 291474, Note_on_c, 11, 63, 0
20, 291480, Note_on_c, 11, 63, 114
20, 291498, Note_on_c, 11, 63, 0
20, 291504, Note_on_c, 11, 63, 114
20, 291522, Note_on_c, 11, 63, 0
20, 291528, Note_on_c, 11, 63, 114
20, 291546, Note_on_c, 11, 63, 0
20, 291552, Note_on_c, 11, 63, 114
20, 291570, Note_on_c, 11, 63, 0
20, 291576, Note_on_c, 11, 63, 114
20, 291594, Note_on_c, 11, 63, 0
20, 291600, Note_on_c, 11, 63, 114
20, 291618, Note_on_c, 11, 63, 0
20, 291624, Note_on_c, 11, 63, 114
20, 291642, Note_on_c, 11, 63, 0
20, 291648, Note_on_c, 11, 63, 114
20, 291666, Note_on_c, 11, 63, 0
20, 291672, Note_on_c, 11, 63, 114
20, 291690, Note_on_c, 11, 63, 0
20, 291696, Note_on_c, 11, 63, 114
20, 291714, Note_on_c, 11, 63, 0
20, 291720, Note_on_c, 11, 63, 114
20, 291738, Note_on_c, 11, 63, 0
20, 291744, Note_on_c, 11, 63, 114
20, 291762, Note_on_c, 11, 63, 0
20, 291768, Note_on_c, 11, 63, 114
20, 291786, Note_on_c, 11, 63, 0
20, 291792, Note_on_c, 11, 63, 114
20, 291810, Note_on_c, 11, 63, 0
20, 291816, Note_on_c, 11, 63, 114
20, 291834, Note_on_c, 11, 63, 0
20, 291840, Note_on_c, 11, 63, 114
20, 291858, Note_on_c, 11, 63, 0
20, 291864, Note_on_c, 11, 63, 114
20, 291882, Note_on_c, 11, 63, 0
20, 291888, Note_on_c, 11, 63, 114
20, 291906, Note_on_c, 11, 63, 0
20, 291912, Note_on_c, 11, 63, 114
20, 291930, Note_on_c, 11, 63, 0
20, 291936, Note_on_c, 11, 63, 114
20, 291954, Note_on_c, 11, 63, 0
20, 291960, Note_on_c, 11, 63, 114
20, 291978, Note_on_c, 11, 63, 0
20, 291984, Note_on_c, 11, 63, 114
20, 292002, Note_on_c, 11, 63, 0
20, 292008, Note_on_c, 11, 63, 114
20, 292026, Note_on_c, 11, 63, 0
20, 292032, Note_on_c, 11, 63, 114
20, 292050, Note_on_c, 11, 63, 0
20, 292056, Note_on_c, 11, 63, 114
20, 292074, Note_on_c, 11, 63, 0
20, 292080, Note_on_c, 11, 63, 114
20, 292098, Note_on_c, 11, 63, 0
20, 292104, Note_on_c, 11, 63, 114
20, 292122, Note_on_c, 11, 63, 0
20, 292128, Note_on_c, 11, 63, 114
20, 292146, Note_on_c, 11, 63, 0
20, 292152, Note_on_c, 11, 63, 114
20, 292170, Note_on_c, 11, 63, 0
20, 292176, Note_on_c, 11, 63, 114
20, 292194, Note_on_c, 11, 63, 0
20, 292200, Note_on_c, 11, 63, 114
20, 292218, Note_on_c, 11, 63, 0
20, 292224, Note_on_c, 11, 63, 114
20, 292242, Note_on_c, 11, 63, 0
20, 292248, Note_on_c, 11, 63, 114
20, 292266, Note_on_c, 11, 63, 0
20, 292272, Note_on_c, 11, 63, 114
20, 292290, Note_on_c, 11, 63, 0
20, 292296, Note_on_c, 11, 63, 114
20, 292314, Note_on_c, 11, 63, 0
20, 292320, Note_on_c, 11, 63, 114
20, 292338, Note_on_c, 11, 63, 0
20, 292344, Note_on_c, 11, 63, 114
20, 292362, Note_on_c, 11, 63, 0
20, 292368, Note_on_c, 11, 63, 114
20, 292386, Note_on_c, 11, 63, 0
20, 292392, Note_on_c, 11, 63, 114
20, 292410, Note_on_c, 11, 63, 0
20, 292416, Note_on_c, 11, 63, 114
20, 292434, Note_on_c, 11, 63, 0
20, 292440, Note_on_c, 11, 63, 114
20, 292458, Note_on_c, 11, 63, 0
20, 292464, Note_on_c, 11, 63, 114
20, 292482, Note_on_c, 11, 63, 0
20, 292488, Note_on_c, 11, 63, 114
20, 292506, Note_on_c, 11, 63, 0
20, 292512, Note_on_c, 11, 63, 114
20, 292530, Note_on_c, 11, 63, 0
20, 292536, Note_on_c, 11, 63, 114
20, 292554, Note_on_c, 11, 63, 0
20, 292560, Note_on_c, 11, 63, 114
20, 292578, Note_on_c, 11, 63, 0
20, 292584, Note_on_c, 11, 63, 114
20, 292602, Note_on_c, 11, 63, 0
20, 292608, Note_on_c, 11, 63, 114
20, 292626, Note_on_c, 11, 63, 0
20, 292632, Note_on_c, 11, 63, 114
20, 292650, Note_on_c, 11, 63, 0
20, 292656, Note_on_c, 11, 63, 114
20, 292674, Note_on_c, 11, 63, 0
20, 292680, Note_on_c, 11, 63, 114
20, 292698, Note_on_c, 11, 63, 0
20, 292704, Note_on_c, 11, 63, 114
20, 292722, Note_on_c, 11, 63, 0
20, 292728, Note_on_c, 11, 63, 114
20, 292746, Note_on_c, 11, 63, 0
20, 292752, Note_on_c, 11, 63, 114
20, 292770, Note_on_c, 11, 63, 0
20, 292776, Note_on_c, 11, 63, 114
20, 292794, Note_on_c, 11, 63, 0
20, 292800, Note_on_c, 11, 63, 114
20, 292818, Note_on_c, 11, 63, 0
20, 292824, Note_on_c, 11, 63, 114
20, 292842, Note_on_c, 11, 63, 0
20, 292848, Note_on_c, 11, 63, 114
20, 292866, Note_on_c, 11, 63, 0
20, 292872, Note_on_c, 11, 63, 114
20, 292890, Note_on_c, 11, 63, 0
20, 292896, Note_on_c, 11, 63, 114
20, 292914, Note_on_c, 11, 63, 0
20, 292920, Note_on_c, 11, 63, 114
20, 292938, Note_on_c, 11, 63, 0
20, 292944, Note_on_c, 11, 63, 114
20, 292962, Note_on_c, 11, 63, 0
20, 292968, Note_on_c, 11, 63, 114
20, 292986, Note_on_c, 11, 63, 0
20, 292992, Note_on_c, 11, 58, 114
20, 293010, Note_on_c, 11, 58, 0
20, 293040, Note_on_c, 11, 58, 114
20, 293058, Note_on_c, 11, 58, 0
20, 293064, Note_on_c, 11, 58, 114
20, 293082, Note_on_c, 11, 58, 0
20, 293088, Note_on_c, 11, 58, 114
20, 293106, Note_on_c, 11, 58, 0
20, 293112, Note_on_c, 11, 58, 114
20, 293130, Note_on_c, 11, 58, 0
20, 293136, Note_on_c, 11, 58, 114
20, 293154, Note_on_c, 11, 58, 0
20, 293160, Note_on_c, 11, 58, 114
20, 293178, Note_on_c, 11, 58, 0
20, 293178, End_track
21, 0, Start_track
21, 0, MIDI_port, 0
21, 0, Title_t, "Tympani"
21, 0, Program_c, 12, 47
21, 0, Control_c, 12, 7, 127
21, 0, Control_c, 12, 10, 64
21, 19008, Note_on_c, 12, 31, 97
21, 19200, Note_on_c, 12, 31, 0
21, 20160, Note_on_c, 12, 31, 77
21, 20256, Note_on_c, 12, 31, 0
21, 39840, Note_on_c, 12, 39, 95
21, 39936, Note_on_c, 12, 39, 0
21, 39936, Note_on_c, 12, 39, 95
21, 40032, Note_on_c, 12, 39, 0
21, 40032, Note_on_c, 12, 39, 95
21, 40128, Note_on_c, 12, 39, 0
21, 40128, Note_on_c, 12, 39, 95
21, 40224, Note_on_c, 12, 39, 0
21, 40224, Note_on_c, 12, 39, 95
21, 40320, Note_on_c, 12, 39, 0
21, 40320, Note_on_c, 12, 34, 95
21, 40512, Note_on_c, 12, 34, 0
21, 40512, Note_on_c, 12, 39, 95
21, 40704, Note_on_c, 12, 39, 0
21, 43776, Note_on_c, 12, 34, 21
21, 43800, Note_on_c, 12, 34, 0
21, 43800, Note_on_c, 12, 34, 21
21, 43824, Note_on_c, 12, 34, 0
21, 43824, Note_on_c, 12, 34, 20
21, 43848, Note_on_c, 12, 34, 0
21, 43848, Note_on_c, 12, 34, 21
21, 43872, Note_on_c, 12, 34, 0
21, 43872, Note_on_c, 12, 34, 21
21, 43896, Note_on_c, 12, 34, 0
21, 43896, Note_on_c, 12, 34, 21
21, 43920, Note_on_c, 12, 34, 0
21, 43920, Note_on_c, 12, 34, 21
21, 43944, Note_on_c, 12, 34, 0
21, 43944, Note_on_c, 12, 34, 21
21, 43968, Note_on_c, 12, 34, 0
21, 43968, Note_on_c, 12, 34, 20
21, 43992, Note_on_c, 12, 34, 0
21, 43992, Note_on_c, 12, 34, 21
21, 44016, Note_on_c, 12, 34, 0
21, 44016, Note_on_c, 12, 34, 21
21, 44040, Note_on_c, 12, 34, 0
21, 44040, Note_on_c, 12, 34, 21
21, 44064, Note_on_c, 12, 34, 0
21, 44064, Note_on_c, 12, 34, 21
21, 44088, Note_on_c, 12, 34, 0
21, 44088, Note_on_c, 12, 34, 21
21, 44112, Note_on_c, 12, 34, 0
21, 44112, Note_on_c, 12, 34, 21
21, 44136, Note_on_c, 12, 34, 0
21, 44136, Note_on_c, 12, 34, 21
21, 44160, Note_on_c, 12, 34, 0
21, 44160, Note_on_c, 12, 34, 21
21, 44184, Note_on_c, 12, 34, 0
21, 44184, Note_on_c, 12, 34, 21
21, 44208, Note_on_c, 12, 34, 0
21, 44208, Note_on_c, 12, 34, 21
21, 44232, Note_on_c, 12, 34, 0
21, 44232, Note_on_c, 12, 34, 21
21, 44256, Note_on_c, 12, 34, 0
21, 44256, Note_on_c, 12, 34, 21
21, 44280, Note_on_c, 12, 34, 0
21, 44280, Note_on_c, 12, 34, 21
21, 44304, Note_on_c, 12, 34, 0
21, 44304, Note_on_c, 12, 34, 21
21, 44328, Note_on_c, 12, 34, 0
21, 44328, Note_on_c, 12, 34, 23
21, 44352, Note_on_c, 12, 34, 0
21, 44352, Note_on_c, 12, 34, 23
21, 44376, Note_on_c, 12, 34, 0
21, 44376, Note_on_c, 12, 34, 21
21, 44400, Note_on_c, 12, 34, 0
21, 44400, Note_on_c, 12, 34, 22
21, 44424, Note_on_c, 12, 34, 0
21, 44424, Note_on_c, 12, 34, 22
21, 44448, Note_on_c, 12, 34, 0
21, 44448, Note_on_c, 12, 34, 22
21, 44472, Note_on_c, 12, 34, 0
21, 44472, Note_on_c, 12, 34, 22
21, 44496, Note_on_c, 12, 34, 0
21, 44496, Note_on_c, 12, 34, 24
21, 44520, Note_on_c, 12, 34, 0
21, 44520, Note_on_c, 12, 34, 24
21, 44544, Note_on_c, 12, 34, 0
21, 44544, Note_on_c, 12, 34, 21
21, 44568, Note_on_c, 12, 34, 0
21, 44568, Note_on_c, 12, 34, 21
21, 44592, Note_on_c, 12, 34, 0
21, 44592, Note_on_c, 12, 34, 20
21, 44616, Note_on_c, 12, 34, 0
21, 44616, Note_on_c, 12, 34, 21
21, 44640, Note_on_c, 12, 34, 0
21, 44640, Note_on_c, 12, 34, 21
21, 44664, Note_on_c, 12, 34, 0
21, 44664, Note_on_c, 12, 34, 21
21, 44688, Note_on_c, 12, 34, 0
21, 44688, Note_on_c, 12, 34, 21
21, 44712, Note_on_c, 12, 34, 0
21, 44712, Note_on_c, 12, 34, 21
21, 44736, Note_on_c, 12, 34, 0
21, 44736, Note_on_c, 12, 34, 20
21, 44760, Note_on_c, 12, 34, 0
21, 44760, Note_on_c, 12, 34, 21
21, 44784, Note_on_c, 12, 34, 0
21, 44784, Note_on_c, 12, 34, 21
21, 44808, Note_on_c, 12, 34, 0
21, 44808, Note_on_c, 12, 34, 21
21, 44832, Note_on_c, 12, 34, 0
21, 44832, Note_on_c, 12, 34, 21
21, 44856, Note_on_c, 12, 34, 0
21, 44856, Note_on_c, 12, 34, 21
21, 44880, Note_on_c, 12, 34, 0
21, 44880, Note_on_c, 12, 34, 21
21, 44904, Note_on_c, 12, 34, 0
21, 44904, Note_on_c, 12, 34, 21
21, 44928, Note_on_c, 12, 34, 0
21, 44928, Note_on_c, 12, 34, 21
21, 44952, Note_on_c, 12, 34, 0
21, 44952, Note_on_c, 12, 34, 21
21, 44976, Note_on_c, 12, 34, 0
21, 44976, Note_on_c, 12, 34, 21
21, 45000, Note_on_c, 12, 34, 0
21, 45000, Note_on_c, 12, 34, 21
21, 45024, Note_on_c, 12, 34, 0
21, 45024, Note_on_c, 12, 34, 21
21, 45048, Note_on_c, 12, 34, 0
21, 45048, Note_on_c, 12, 34, 21
21, 45072, Note_on_c, 12, 34, 0
21, 45072, Note_on_c, 12, 34, 21
21, 45096, Note_on_c, 12, 34, 0
21, 45096, Note_on_c, 12, 34, 23
21, 45120, Note_on_c, 12, 34, 0
21, 45120, Note_on_c, 12, 34, 23
21, 45144, Note_on_c, 12, 34, 0
21, 45144, Note_on_c, 12, 34, 21
21, 45168, Note_on_c, 12, 34, 0
21, 45168, Note_on_c, 12, 34, 22
21, 45192, Note_on_c, 12, 34, 0
21, 45192, Note_on_c, 12, 34, 22
21, 45216, Note_on_c, 12, 34, 0
21, 45216, Note_on_c, 12, 34, 22
21, 45240, Note_on_c, 12, 34, 0
21, 45240, Note_on_c, 12, 34, 22
21, 45264, Note_on_c, 12, 34, 0
21, 45264, Note_on_c, 12, 34, 24
21, 45288, Note_on_c, 12, 34, 0
21, 45288, Note_on_c, 12, 34, 24
21, 45312, Note_on_c, 12, 34, 0
21, 45312, Note_on_c, 12, 34, 21
21, 45336, Note_on_c, 12, 34, 0
21, 45336, Note_on_c, 12, 34, 21
21, 45360, Note_on_c, 12, 34, 0
21, 45360, Note_on_c, 12, 34, 20
21, 45384, Note_on_c, 12, 34, 0
21, 45384, Note_on_c, 12, 34, 21
21, 45408, Note_on_c, 12, 34, 0
21, 45408, Note_on_c, 12, 34, 21
21, 45432, Note_on_c, 12, 34, 0
21, 45432, Note_on_c, 12, 34, 21
21, 45456, Note_on_c, 12, 34, 0
21, 45456, Note_on_c, 12, 34, 21
21, 45480, Note_on_c, 12, 34, 0
21, 45480, Note_on_c, 12, 34, 21
21, 45504, Note_on_c, 12, 34, 0
21, 45504, Note_on_c, 12, 34, 20
21, 45528, Note_on_c, 12, 34, 0
21, 45528, Note_on_c, 12, 34, 21
21, 45552, Note_on_c, 12, 34, 0
21, 45552, Note_on_c, 12, 34, 21
21, 45576, Note_on_c, 12, 34, 0
21, 45576, Note_on_c, 12, 34, 21
21, 45600, Note_on_c, 12, 34, 0
21, 45600, Note_on_c, 12, 34, 21
21, 45624, Note_on_c, 12, 34, 0
21, 45624, Note_on_c, 12, 34, 21
21, 45648, Note_on_c, 12, 34, 0
21, 45648, Note_on_c, 12, 34, 21
21, 45672, Note_on_c, 12, 34, 0
21, 45672, Note_on_c, 12, 34, 21
21, 45696, Note_on_c, 12, 34, 0
21, 45696, Note_on_c, 12, 34, 21
21, 45720, Note_on_c, 12, 34, 0
21, 45720, Note_on_c, 12, 34, 21
21, 45744, Note_on_c, 12, 34, 0
21, 45744, Note_on_c, 12, 34, 21
21, 45768, Note_on_c, 12, 34, 0
21, 45768, Note_on_c, 12, 34, 21
21, 45792, Note_on_c, 12, 34, 0
21, 45792, Note_on_c, 12, 34, 21
21, 45816, Note_on_c, 12, 34, 0
21, 45816, Note_on_c, 12, 34, 21
21, 45840, Note_on_c, 12, 34, 0
21, 45840, Note_on_c, 12, 34, 21
21, 45864, Note_on_c, 12, 34, 0
21, 45864, Note_on_c, 12, 34, 23
21, 45888, Note_on_c, 12, 34, 0
21, 45888, Note_on_c, 12, 34, 23
21, 45912, Note_on_c, 12, 34, 0
21, 45912, Note_on_c, 12, 34, 21
21, 45936, Note_on_c, 12, 34, 0
21, 45936, Note_on_c, 12, 34, 22
21, 45960, Note_on_c, 12, 34, 0
21, 45960, Note_on_c, 12, 34, 22
21, 45984, Note_on_c, 12, 34, 0
21, 45984, Note_on_c, 12, 34, 22
21, 46008, Note_on_c, 12, 34, 0
21, 46008, Note_on_c, 12, 34, 22
21, 46032, Note_on_c, 12, 34, 0
21, 46032, Note_on_c, 12, 34, 24
21, 46056, Note_on_c, 12, 34, 0
21, 46056, Note_on_c, 12, 34, 24
21, 46080, Note_on_c, 12, 34, 0
21, 46080, Note_on_c, 12, 34, 21
21, 46104, Note_on_c, 12, 34, 0
21, 46104, Note_on_c, 12, 34, 21
21, 46128, Note_on_c, 12, 34, 0
21, 46128, Note_on_c, 12, 34, 20
21, 46152, Note_on_c, 12, 34, 0
21, 46152, Note_on_c, 12, 34, 21
21, 46176, Note_on_c, 12, 34, 0
21, 46176, Note_on_c, 12, 34, 21
21, 46200, Note_on_c, 12, 34, 0
21, 46200, Note_on_c, 12, 34, 21
21, 46224, Note_on_c, 12, 34, 0
21, 46224, Note_on_c, 12, 34, 21
21, 46248, Note_on_c, 12, 34, 0
21, 46248, Note_on_c, 12, 34, 21
21, 46272, Note_on_c, 12, 34, 0
21, 46272, Note_on_c, 12, 34, 20
21, 46296, Note_on_c, 12, 34, 0
21, 46296, Note_on_c, 12, 34, 21
21, 46320, Note_on_c, 12, 34, 0
21, 46320, Note_on_c, 12, 34, 21
21, 46344, Note_on_c, 12, 34, 0
21, 46344, Note_on_c, 12, 34, 21
21, 46368, Note_on_c, 12, 34, 0
21, 46368, Note_on_c, 12, 34, 21
21, 46392, Note_on_c, 12, 34, 0
21, 46392, Note_on_c, 12, 34, 21
21, 46416, Note_on_c, 12, 34, 0
21, 46416, Note_on_c, 12, 34, 21
21, 46440, Note_on_c, 12, 34, 0
21, 46440, Note_on_c, 12, 34, 21
21, 46464, Note_on_c, 12, 34, 0
21, 46464, Note_on_c, 12, 34, 21
21, 46488, Note_on_c, 12, 34, 0
21, 46488, Note_on_c, 12, 34, 21
21, 46512, Note_on_c, 12, 34, 0
21, 46512, Note_on_c, 12, 34, 21
21, 46536, Note_on_c, 12, 34, 0
21, 46536, Note_on_c, 12, 34, 21
21, 46560, Note_on_c, 12, 34, 0
21, 46560, Note_on_c, 12, 34, 21
21, 46584, Note_on_c, 12, 34, 0
21, 46584, Note_on_c, 12, 34, 21
21, 46608, Note_on_c, 12, 34, 0
21, 46608, Note_on_c, 12, 34, 21
21, 46632, Note_on_c, 12, 34, 0
21, 46632, Note_on_c, 12, 34, 23
21, 46656, Note_on_c, 12, 34, 0
21, 46656, Note_on_c, 12, 34, 23
21, 46680, Note_on_c, 12, 34, 0
21, 46680, Note_on_c, 12, 34, 21
21, 46704, Note_on_c, 12, 34, 0
21, 46704, Note_on_c, 12, 34, 22
21, 46728, Note_on_c, 12, 34, 0
21, 46728, Note_on_c, 12, 34, 22
21, 46752, Note_on_c, 12, 34, 0
21, 46752, Note_on_c, 12, 34, 22
21, 46776, Note_on_c, 12, 34, 0
21, 46776, Note_on_c, 12, 34, 22
21, 46800, Note_on_c, 12, 34, 0
21, 46800, Note_on_c, 12, 34, 24
21, 46824, Note_on_c, 12, 34, 0
21, 46824, Note_on_c, 12, 34, 24
21, 46848, Note_on_c, 12, 34, 0
21, 46848, Note_on_c, 12, 34, 11
21, 46872, Note_on_c, 12, 34, 0
21, 46872, Note_on_c, 12, 34, 11
21, 46896, Note_on_c, 12, 34, 0
21, 46896, Note_on_c, 12, 34, 11
21, 46920, Note_on_c, 12, 34, 0
21, 46920, Note_on_c, 12, 34, 11
21, 46944, Note_on_c, 12, 34, 0
21, 46944, Note_on_c, 12, 34, 11
21, 46968, Note_on_c, 12, 34, 0
21, 46968, Note_on_c, 12, 34, 11
21, 46992, Note_on_c, 12, 34, 0
21, 46992, Note_on_c, 12, 34, 11
21, 47016, Note_on_c, 12, 34, 0
21, 47016, Note_on_c, 12, 34, 11
21, 47040, Note_on_c, 12, 34, 0
21, 47040, Note_on_c, 12, 34, 11
21, 47064, Note_on_c, 12, 34, 0
21, 47064, Note_on_c, 12, 34, 11
21, 47088, Note_on_c, 12, 34, 0
21, 47088, Note_on_c, 12, 34, 11
21, 47112, Note_on_c, 12, 34, 0
21, 47112, Note_on_c, 12, 34, 11
21, 47136, Note_on_c, 12, 34, 0
21, 47136, Note_on_c, 12, 34, 11
21, 47160, Note_on_c, 12, 34, 0
21, 47160, Note_on_c, 12, 34, 11
21, 47184, Note_on_c, 12, 34, 0
21, 47184, Note_on_c, 12, 34, 11
21, 47208, Note_on_c, 12, 34, 0
21, 47208, Note_on_c, 12, 34, 11
21, 47232, Note_on_c, 12, 34, 0
21, 47232, Note_on_c, 12, 34, 11
21, 47256, Note_on_c, 12, 34, 0
21, 47256, Note_on_c, 12, 34, 11
21, 47280, Note_on_c, 12, 34, 0
21, 47280, Note_on_c, 12, 34, 11
21, 47304, Note_on_c, 12, 34, 0
21, 47304, Note_on_c, 12, 34, 11
21, 47328, Note_on_c, 12, 34, 0
21, 47328, Note_on_c, 12, 34, 11
21, 47352, Note_on_c, 12, 34, 0
21, 47352, Note_on_c, 12, 34, 11
21, 47376, Note_on_c, 12, 34, 0
21, 47376, Note_on_c, 12, 34, 11
21, 47400, Note_on_c, 12, 34, 0
21, 47400, Note_on_c, 12, 34, 11
21, 47424, Note_on_c, 12, 34, 0
21, 47424, Note_on_c, 12, 34, 11
21, 47448, Note_on_c, 12, 34, 0
21, 47448, Note_on_c, 12, 34, 11
21, 47472, Note_on_c, 12, 34, 0
21, 47472, Note_on_c, 12, 34, 11
21, 47496, Note_on_c, 12, 34, 0
21, 47496, Note_on_c, 12, 34, 11
21, 47520, Note_on_c, 12, 34, 0
21, 47520, Note_on_c, 12, 34, 11
21, 47544, Note_on_c, 12, 34, 0
21, 47544, Note_on_c, 12, 34, 11
21, 47568, Note_on_c, 12, 34, 0
21, 47568, Note_on_c, 12, 34, 11
21, 47592, Note_on_c, 12, 34, 0
21, 47592, Note_on_c, 12, 34, 11
21, 47616, Note_on_c, 12, 34, 0
21, 47616, Note_on_c, 12, 34, 11
21, 47640, Note_on_c, 12, 34, 0
21, 47640, Note_on_c, 12, 34, 11
21, 47664, Note_on_c, 12, 34, 0
21, 47664, Note_on_c, 12, 34, 11
21, 47688, Note_on_c, 12, 34, 0
21, 47688, Note_on_c, 12, 34, 11
21, 47712, Note_on_c, 12, 34, 0
21, 47712, Note_on_c, 12, 34, 11
21, 47736, Note_on_c, 12, 34, 0
21, 47736, Note_on_c, 12, 34, 11
21, 47760, Note_on_c, 12, 34, 0
21, 47760, Note_on_c, 12, 34, 11
21, 47784, Note_on_c, 12, 34, 0
21, 47784, Note_on_c, 12, 34, 11
21, 47808, Note_on_c, 12, 34, 0
21, 47808, Note_on_c, 12, 34, 11
21, 47832, Note_on_c, 12, 34, 0
21, 47832, Note_on_c, 12, 34, 11
21, 47856, Note_on_c, 12, 34, 0
21, 47856, Note_on_c, 12, 34, 11
21, 47880, Note_on_c, 12, 34, 0
21, 47880, Note_on_c, 12, 34, 11
21, 47904, Note_on_c, 12, 34, 0
21, 47904, Note_on_c, 12, 34, 11
21, 47928, Note_on_c, 12, 34, 0
21, 47928, Note_on_c, 12, 34, 11
21, 47952, Note_on_c, 12, 34, 0
21, 47952, Note_on_c, 12, 34, 11
21, 47976, Note_on_c, 12, 34, 0
21, 47976, Note_on_c, 12, 34, 11
21, 48000, Note_on_c, 12, 34, 0
21, 48000, Note_on_c, 12, 34, 11
21, 48024, Note_on_c, 12, 34, 0
21, 48024, Note_on_c, 12, 34, 11
21, 48048, Note_on_c, 12, 34, 0
21, 48048, Note_on_c, 12, 34, 11
21, 48072, Note_on_c, 12, 34, 0
21, 48072, Note_on_c, 12, 34, 11
21, 48096, Note_on_c, 12, 34, 0
21, 48096, Note_on_c, 12, 34, 11
21, 48120, Note_on_c, 12, 34, 0
21, 48120, Note_on_c, 12, 34, 11
21, 48144, Note_on_c, 12, 34, 0
21, 48144, Note_on_c, 12, 34, 11
21, 48168, Note_on_c, 12, 34, 0
21, 48168, Note_on_c, 12, 34, 11
21, 48192, Note_on_c, 12, 34, 0
21, 48192, Note_on_c, 12, 34, 11
21, 48216, Note_on_c, 12, 34, 0
21, 48216, Note_on_c, 12, 34, 11
21, 48240, Note_on_c, 12, 34, 0
21, 48240, Note_on_c, 12, 34, 11
21, 48264, Note_on_c, 12, 34, 0
21, 48264, Note_on_c, 12, 34, 11
21, 48288, Note_on_c, 12, 34, 0
21, 48288, Note_on_c, 12, 34, 11
21, 48312, Note_on_c, 12, 34, 0
21, 48312, Note_on_c, 12, 34, 11
21, 48336, Note_on_c, 12, 34, 0
21, 48336, Note_on_c, 12, 34, 11
21, 48360, Note_on_c, 12, 34, 0
21, 48360, Note_on_c, 12, 34, 11
21, 48384, Note_on_c, 12, 34, 0
21, 48384, Note_on_c, 12, 34, 11
21, 48408, Note_on_c, 12, 34, 0
21, 48408, Note_on_c, 12, 34, 11
21, 48432, Note_on_c, 12, 34, 0
21, 48432, Note_on_c, 12, 34, 11
21, 48456, Note_on_c, 12, 34, 0
21, 48456, Note_on_c, 12, 34, 11
21, 48480, Note_on_c, 12, 34, 0
21, 48480, Note_on_c, 12, 34, 11
21, 48504, Note_on_c, 12, 34, 0
21, 48504, Note_on_c, 12, 34, 11
21, 48528, Note_on_c, 12, 34, 0
21, 48528, Note_on_c, 12, 34, 11
21, 48552, Note_on_c, 12, 34, 0
21, 48552, Note_on_c, 12, 34, 11
21, 48576, Note_on_c, 12, 34, 0
21, 48576, Note_on_c, 12, 34, 11
21, 48600, Note_on_c, 12, 34, 0
21, 48600, Note_on_c, 12, 34, 11
21, 48624, Note_on_c, 12, 34, 0
21, 48624, Note_on_c, 12, 34, 11
21, 48648, Note_on_c, 12, 34, 0
21, 48648, Note_on_c, 12, 34, 11
21, 48672, Note_on_c, 12, 34, 0
21, 48672, Note_on_c, 12, 34, 11
21, 48696, Note_on_c, 12, 34, 0
21, 48696, Note_on_c, 12, 34, 11
21, 48720, Note_on_c, 12, 34, 0
21, 48720, Note_on_c, 12, 34, 11
21, 48744, Note_on_c, 12, 34, 0
21, 48744, Note_on_c, 12, 34, 11
21, 48768, Note_on_c, 12, 34, 0
21, 48768, Note_on_c, 12, 34, 11
21, 48792, Note_on_c, 12, 34, 0
21, 48792, Note_on_c, 12, 34, 11
21, 48816, Note_on_c, 12, 34, 0
21, 48816, Note_on_c, 12, 34, 11
21, 48840, Note_on_c, 12, 34, 0
21, 48840, Note_on_c, 12, 34, 11
21, 48864, Note_on_c, 12, 34, 0
21, 48864, Note_on_c, 12, 34, 11
21, 48888, Note_on_c, 12, 34, 0
21, 48888, Note_on_c, 12, 34, 11
21, 48912, Note_on_c, 12, 34, 0
21, 48912, Note_on_c, 12, 34, 11
21, 48936, Note_on_c, 12, 34, 0
21, 48936, Note_on_c, 12, 34, 11
21, 48960, Note_on_c, 12, 34, 0
21, 48960, Note_on_c, 12, 34, 11
21, 48984, Note_on_c, 12, 34, 0
21, 48984, Note_on_c, 12, 34, 11
21, 49008, Note_on_c, 12, 34, 0
21, 49008, Note_on_c, 12, 34, 11
21, 49032, Note_on_c, 12, 34, 0
21, 49032, Note_on_c, 12, 34, 11
21, 49056, Note_on_c, 12, 34, 0
21, 49056, Note_on_c, 12, 34, 11
21, 49080, Note_on_c, 12, 34, 0
21, 49080, Note_on_c, 12, 34, 11
21, 49104, Note_on_c, 12, 34, 0
21, 49104, Note_on_c, 12, 34, 11
21, 49128, Note_on_c, 12, 34, 0
21, 49128, Note_on_c, 12, 34, 11
21, 49152, Note_on_c, 12, 34, 0
21, 49152, Note_on_c, 12, 34, 21
21, 49176, Note_on_c, 12, 34, 0
21, 49176, Note_on_c, 12, 34, 21
21, 49200, Note_on_c, 12, 34, 0
21, 49200, Note_on_c, 12, 34, 20
21, 49224, Note_on_c, 12, 34, 0
21, 49224, Note_on_c, 12, 34, 21
21, 49248, Note_on_c, 12, 34, 0
21, 49248, Note_on_c, 12, 34, 21
21, 49272, Note_on_c, 12, 34, 0
21, 49272, Note_on_c, 12, 34, 21
21, 49296, Note_on_c, 12, 34, 0
21, 49296, Note_on_c, 12, 34, 21
21, 49320, Note_on_c, 12, 34, 0
21, 49320, Note_on_c, 12, 34, 21
21, 49344, Note_on_c, 12, 34, 0
21, 49344, Note_on_c, 12, 34, 20
21, 49368, Note_on_c, 12, 34, 0
21, 49368, Note_on_c, 12, 34, 21
21, 49392, Note_on_c, 12, 34, 0
21, 49392, Note_on_c, 12, 34, 21
21, 49416, Note_on_c, 12, 34, 0
21, 49416, Note_on_c, 12, 34, 21
21, 49440, Note_on_c, 12, 34, 0
21, 49440, Note_on_c, 12, 34, 21
21, 49464, Note_on_c, 12, 34, 0
21, 49464, Note_on_c, 12, 34, 21
21, 49488, Note_on_c, 12, 34, 0
21, 49488, Note_on_c, 12, 34, 21
21, 49512, Note_on_c, 12, 34, 0
21, 49512, Note_on_c, 12, 34, 21
21, 49536, Note_on_c, 12, 34, 0
21, 49536, Note_on_c, 12, 34, 21
21, 49560, Note_on_c, 12, 34, 0
21, 49560, Note_on_c, 12, 34, 21
21, 49584, Note_on_c, 12, 34, 0
21, 49584, Note_on_c, 12, 34, 21
21, 49608, Note_on_c, 12, 34, 0
21, 49608, Note_on_c, 12, 34, 21
21, 49632, Note_on_c, 12, 34, 0
21, 49632, Note_on_c, 12, 34, 21
21, 49656, Note_on_c, 12, 34, 0
21, 49656, Note_on_c, 12, 34, 21
21, 49680, Note_on_c, 12, 34, 0
21, 49680, Note_on_c, 12, 34, 21
21, 49704, Note_on_c, 12, 34, 0
21, 49704, Note_on_c, 12, 34, 23
21, 49728, Note_on_c, 12, 34, 0
21, 49728, Note_on_c, 12, 34, 23
21, 49752, Note_on_c, 12, 34, 0
21, 49752, Note_on_c, 12, 34, 21
21, 49776, Note_on_c, 12, 34, 0
21, 49776, Note_on_c, 12, 34, 22
21, 49800, Note_on_c, 12, 34, 0
21, 49800, Note_on_c, 12, 34, 22
21, 49824, Note_on_c, 12, 34, 0
21, 49824, Note_on_c, 12, 34, 22
21, 49848, Note_on_c, 12, 34, 0
21, 49848, Note_on_c, 12, 34, 22
21, 49872, Note_on_c, 12, 34, 0
21, 49872, Note_on_c, 12, 34, 24
21, 49896, Note_on_c, 12, 34, 0
21, 49896, Note_on_c, 12, 34, 24
21, 49920, Note_on_c, 12, 34, 0
21, 49920, Note_on_c, 12, 34, 21
21, 49944, Note_on_c, 12, 34, 0
21, 49944, Note_on_c, 12, 34, 21
21, 49968, Note_on_c, 12, 34, 0
21, 49968, Note_on_c, 12, 34, 20
21, 49992, Note_on_c, 12, 34, 0
21, 49992, Note_on_c, 12, 34, 21
21, 50016, Note_on_c, 12, 34, 0
21, 50016, Note_on_c, 12, 34, 21
21, 50040, Note_on_c, 12, 34, 0
21, 50040, Note_on_c, 12, 34, 21
21, 50064, Note_on_c, 12, 34, 0
21, 50064, Note_on_c, 12, 34, 21
21, 50088, Note_on_c, 12, 34, 0
21, 50088, Note_on_c, 12, 34, 21
21, 50112, Note_on_c, 12, 34, 0
21, 50112, Note_on_c, 12, 34, 20
21, 50136, Note_on_c, 12, 34, 0
21, 50136, Note_on_c, 12, 34, 21
21, 50160, Note_on_c, 12, 34, 0
21, 50160, Note_on_c, 12, 34, 21
21, 50184, Note_on_c, 12, 34, 0
21, 50184, Note_on_c, 12, 34, 21
21, 50208, Note_on_c, 12, 34, 0
21, 50208, Note_on_c, 12, 34, 21
21, 50232, Note_on_c, 12, 34, 0
21, 50232, Note_on_c, 12, 34, 21
21, 50256, Note_on_c, 12, 34, 0
21, 50256, Note_on_c, 12, 34, 21
21, 50280, Note_on_c, 12, 34, 0
21, 50280, Note_on_c, 12, 34, 21
21, 50304, Note_on_c, 12, 34, 0
21, 50304, Note_on_c, 12, 34, 21
21, 50328, Note_on_c, 12, 34, 0
21, 50328, Note_on_c, 12, 34, 21
21, 50352, Note_on_c, 12, 34, 0
21, 50352, Note_on_c, 12, 34, 21
21, 50376, Note_on_c, 12, 34, 0
21, 50376, Note_on_c, 12, 34, 21
21, 50400, Note_on_c, 12, 34, 0
21, 50400, Note_on_c, 12, 34, 21
21, 50424, Note_on_c, 12, 34, 0
21, 50424, Note_on_c, 12, 34, 21
21, 50448, Note_on_c, 12, 34, 0
21, 50448, Note_on_c, 12, 34, 21
21, 50472, Note_on_c, 12, 34, 0
21, 50472, Note_on_c, 12, 34, 23
21, 50496, Note_on_c, 12, 34, 0
21, 50496, Note_on_c, 12, 34, 23
21, 50520, Note_on_c, 12, 34, 0
21, 50520, Note_on_c, 12, 34, 21
21, 50544, Note_on_c, 12, 34, 0
21, 50544, Note_on_c, 12, 34, 22
21, 50568, Note_on_c, 12, 34, 0
21, 50568, Note_on_c, 12, 34, 22
21, 50592, Note_on_c, 12, 34, 0
21, 50592, Note_on_c, 12, 34, 22
21, 50616, Note_on_c, 12, 34, 0
21, 50616, Note_on_c, 12, 34, 22
21, 50640, Note_on_c, 12, 34, 0
21, 50640, Note_on_c, 12, 34, 24
21, 50664, Note_on_c, 12, 34, 0
21, 50664, Note_on_c, 12, 34, 24
21, 50688, Note_on_c, 12, 34, 0
21, 50688, Note_on_c, 12, 34, 21
21, 50712, Note_on_c, 12, 34, 0
21, 50712, Note_on_c, 12, 34, 21
21, 50736, Note_on_c, 12, 34, 0
21, 50736, Note_on_c, 12, 34, 20
21, 50760, Note_on_c, 12, 34, 0
21, 50760, Note_on_c, 12, 34, 21
21, 50784, Note_on_c, 12, 34, 0
21, 50784, Note_on_c, 12, 34, 21
21, 50808, Note_on_c, 12, 34, 0
21, 50808, Note_on_c, 12, 34, 21
21, 50832, Note_on_c, 12, 34, 0
21, 50832, Note_on_c, 12, 34, 21
21, 50856, Note_on_c, 12, 34, 0
21, 50856, Note_on_c, 12, 34, 21
21, 50880, Note_on_c, 12, 34, 0
21, 50880, Note_on_c, 12, 34, 20
21, 50904, Note_on_c, 12, 34, 0
21, 50904, Note_on_c, 12, 34, 21
21, 50928, Note_on_c, 12, 34, 0
21, 50928, Note_on_c, 12, 34, 21
21, 50952, Note_on_c, 12, 34, 0
21, 50952, Note_on_c, 12, 34, 21
21, 50976, Note_on_c, 12, 34, 0
21, 50976, Note_on_c, 12, 34, 21
21, 51000, Note_on_c, 12, 34, 0
21, 51000, Note_on_c, 12, 34, 21
21, 51024, Note_on_c, 12, 34, 0
21, 51024, Note_on_c, 12, 34, 21
21, 51048, Note_on_c, 12, 34, 0
21, 51048, Note_on_c, 12, 34, 21
21, 51072, Note_on_c, 12, 34, 0
21, 51072, Note_on_c, 12, 34, 21
21, 51096, Note_on_c, 12, 34, 0
21, 51096, Note_on_c, 12, 34, 21
21, 51120, Note_on_c, 12, 34, 0
21, 51120, Note_on_c, 12, 34, 21
21, 51144, Note_on_c, 12, 34, 0
21, 51144, Note_on_c, 12, 34, 21
21, 51168, Note_on_c, 12, 34, 0
21, 51168, Note_on_c, 12, 34, 21
21, 51192, Note_on_c, 12, 34, 0
21, 51192, Note_on_c, 12, 34, 21
21, 51216, Note_on_c, 12, 34, 0
21, 51216, Note_on_c, 12, 34, 21
21, 51240, Note_on_c, 12, 34, 0
21, 51240, Note_on_c, 12, 34, 23
21, 51264, Note_on_c, 12, 34, 0
21, 51264, Note_on_c, 12, 34, 23
21, 51288, Note_on_c, 12, 34, 0
21, 51288, Note_on_c, 12, 34, 21
21, 51312, Note_on_c, 12, 34, 0
21, 51312, Note_on_c, 12, 34, 22
21, 51336, Note_on_c, 12, 34, 0
21, 51336, Note_on_c, 12, 34, 22
21, 51360, Note_on_c, 12, 34, 0
21, 51360, Note_on_c, 12, 34, 22
21, 51384, Note_on_c, 12, 34, 0
21, 51384, Note_on_c, 12, 34, 22
21, 51408, Note_on_c, 12, 34, 0
21, 51408, Note_on_c, 12, 34, 24
21, 51432, Note_on_c, 12, 34, 0
21, 51432, Note_on_c, 12, 34, 24
21, 51456, Note_on_c, 12, 34, 0
21, 51456, Note_on_c, 12, 34, 21
21, 51480, Note_on_c, 12, 34, 0
21, 51480, Note_on_c, 12, 34, 21
21, 51504, Note_on_c, 12, 34, 0
21, 51504, Note_on_c, 12, 34, 20
21, 51528, Note_on_c, 12, 34, 0
21, 51528, Note_on_c, 12, 34, 21
21, 51552, Note_on_c, 12, 34, 0
21, 51552, Note_on_c, 12, 34, 21
21, 51576, Note_on_c, 12, 34, 0
21, 51576, Note_on_c, 12, 34, 21
21, 51600, Note_on_c, 12, 34, 0
21, 51600, Note_on_c, 12, 34, 21
21, 51624, Note_on_c, 12, 34, 0
21, 51624, Note_on_c, 12, 34, 21
21, 51648, Note_on_c, 12, 34, 0
21, 51648, Note_on_c, 12, 34, 20
21, 51672, Note_on_c, 12, 34, 0
21, 51672, Note_on_c, 12, 34, 21
21, 51696, Note_on_c, 12, 34, 0
21, 51696, Note_on_c, 12, 34, 21
21, 51720, Note_on_c, 12, 34, 0
21, 51720, Note_on_c, 12, 34, 21
21, 51744, Note_on_c, 12, 34, 0
21, 51744, Note_on_c, 12, 34, 21
21, 51768, Note_on_c, 12, 34, 0
21, 51768, Note_on_c, 12, 34, 21
21, 51792, Note_on_c, 12, 34, 0
21, 51792, Note_on_c, 12, 34, 21
21, 51816, Note_on_c, 12, 34, 0
21, 51816, Note_on_c, 12, 34, 21
21, 51840, Note_on_c, 12, 34, 0
21, 51840, Note_on_c, 12, 34, 21
21, 51864, Note_on_c, 12, 34, 0
21, 51864, Note_on_c, 12, 34, 21
21, 51888, Note_on_c, 12, 34, 0
21, 51888, Note_on_c, 12, 34, 21
21, 51912, Note_on_c, 12, 34, 0
21, 51912, Note_on_c, 12, 34, 21
21, 51936, Note_on_c, 12, 34, 0
21, 51936, Note_on_c, 12, 34, 21
21, 51960, Note_on_c, 12, 34, 0
21, 51960, Note_on_c, 12, 34, 21
21, 51984, Note_on_c, 12, 34, 0
21, 51984, Note_on_c, 12, 34, 21
21, 52008, Note_on_c, 12, 34, 0
21, 52008, Note_on_c, 12, 34, 23
21, 52032, Note_on_c, 12, 34, 0
21, 52032, Note_on_c, 12, 34, 23
21, 52056, Note_on_c, 12, 34, 0
21, 52056, Note_on_c, 12, 34, 21
21, 52080, Note_on_c, 12, 34, 0
21, 52080, Note_on_c, 12, 34, 22
21, 52104, Note_on_c, 12, 34, 0
21, 52104, Note_on_c, 12, 34, 22
21, 52128, Note_on_c, 12, 34, 0
21, 52128, Note_on_c, 12, 34, 22
21, 52152, Note_on_c, 12, 34, 0
21, 52152, Note_on_c, 12, 34, 22
21, 52176, Note_on_c, 12, 34, 0
21, 52176, Note_on_c, 12, 34, 24
21, 52200, Note_on_c, 12, 34, 0
21, 52200, Note_on_c, 12, 34, 24
21, 52224, Note_on_c, 12, 34, 0
21, 52224, Note_on_c, 12, 34, 21
21, 52248, Note_on_c, 12, 34, 0
21, 52248, Note_on_c, 12, 34, 21
21, 52272, Note_on_c, 12, 34, 0
21, 52272, Note_on_c, 12, 34, 20
21, 52296, Note_on_c, 12, 34, 0
21, 52296, Note_on_c, 12, 34, 21
21, 52320, Note_on_c, 12, 34, 0
21, 52320, Note_on_c, 12, 34, 21
21, 52344, Note_on_c, 12, 34, 0
21, 52344, Note_on_c, 12, 34, 21
21, 52368, Note_on_c, 12, 34, 0
21, 52368, Note_on_c, 12, 34, 21
21, 52392, Note_on_c, 12, 34, 0
21, 52392, Note_on_c, 12, 34, 21
21, 52416, Note_on_c, 12, 34, 0
21, 52416, Note_on_c, 12, 34, 20
21, 52440, Note_on_c, 12, 34, 0
21, 52440, Note_on_c, 12, 34, 21
21, 52464, Note_on_c, 12, 34, 0
21, 52464, Note_on_c, 12, 34, 21
21, 52488, Note_on_c, 12, 34, 0
21, 52488, Note_on_c, 12, 34, 21
21, 52512, Note_on_c, 12, 34, 0
21, 52512, Note_on_c, 12, 34, 21
21, 52536, Note_on_c, 12, 34, 0
21, 52536, Note_on_c, 12, 34, 21
21, 52560, Note_on_c, 12, 34, 0
21, 52560, Note_on_c, 12, 34, 21
21, 52584, Note_on_c, 12, 34, 0
21, 52584, Note_on_c, 12, 34, 21
21, 52608, Note_on_c, 12, 34, 0
21, 52608, Note_on_c, 12, 34, 21
21, 52632, Note_on_c, 12, 34, 0
21, 52632, Note_on_c, 12, 34, 21
21, 52656, Note_on_c, 12, 34, 0
21, 52656, Note_on_c, 12, 34, 21
21, 52680, Note_on_c, 12, 34, 0
21, 52680, Note_on_c, 12, 34, 21
21, 52704, Note_on_c, 12, 34, 0
21, 52704, Note_on_c, 12, 34, 21
21, 52728, Note_on_c, 12, 34, 0
21, 52728, Note_on_c, 12, 34, 21
21, 52752, Note_on_c, 12, 34, 0
21, 52752, Note_on_c, 12, 34, 21
21, 52776, Note_on_c, 12, 34, 0
21, 52776, Note_on_c, 12, 34, 23
21, 52800, Note_on_c, 12, 34, 0
21, 52800, Note_on_c, 12, 34, 23
21, 52824, Note_on_c, 12, 34, 0
21, 52824, Note_on_c, 12, 34, 21
21, 52848, Note_on_c, 12, 34, 0
21, 52848, Note_on_c, 12, 34, 22
21, 52872, Note_on_c, 12, 34, 0
21, 52872, Note_on_c, 12, 34, 22
21, 52896, Note_on_c, 12, 34, 0
21, 52896, Note_on_c, 12, 34, 22
21, 52920, Note_on_c, 12, 34, 0
21, 52920, Note_on_c, 12, 34, 22
21, 52944, Note_on_c, 12, 34, 0
21, 52944, Note_on_c, 12, 34, 22
21, 52968, Note_on_c, 12, 34, 0
21, 52968, Note_on_c, 12, 34, 22
21, 52992, Note_on_c, 12, 34, 0
21, 52992, Note_on_c, 12, 34, 21
21, 53016, Note_on_c, 12, 34, 0
21, 53016, Note_on_c, 12, 34, 21
21, 53040, Note_on_c, 12, 34, 0
21, 53040, Note_on_c, 12, 34, 21
21, 53064, Note_on_c, 12, 34, 0
21, 53064, Note_on_c, 12, 34, 21
21, 53088, Note_on_c, 12, 34, 0
21, 53088, Note_on_c, 12, 34, 21
21, 53112, Note_on_c, 12, 34, 0
21, 53112, Note_on_c, 12, 34, 21
21, 53136, Note_on_c, 12, 34, 0
21, 53136, Note_on_c, 12, 34, 21
21, 53160, Note_on_c, 12, 34, 0
21, 53160, Note_on_c, 12, 34, 21
21, 53184, Note_on_c, 12, 34, 0
21, 53184, Note_on_c, 12, 34, 21
21, 53208, Note_on_c, 12, 34, 0
21, 53208, Note_on_c, 12, 34, 21
21, 53232, Note_on_c, 12, 34, 0
21, 53232, Note_on_c, 12, 34, 21
21, 53256, Note_on_c, 12, 34, 0
21, 53256, Note_on_c, 12, 34, 21
21, 53280, Note_on_c, 12, 34, 0
21, 53280, Note_on_c, 12, 34, 21
21, 53304, Note_on_c, 12, 34, 0
21, 53304, Note_on_c, 12, 34, 21
21, 53328, Note_on_c, 12, 34, 0
21, 53328, Note_on_c, 12, 34, 21
21, 53352, Note_on_c, 12, 34, 0
21, 53352, Note_on_c, 12, 34, 21
21, 53376, Note_on_c, 12, 34, 0
21, 53376, Note_on_c, 12, 34, 21
21, 53400, Note_on_c, 12, 34, 0
21, 53400, Note_on_c, 12, 34, 21
21, 53424, Note_on_c, 12, 34, 0
21, 53424, Note_on_c, 12, 34, 21
21, 53448, Note_on_c, 12, 34, 0
21, 53448, Note_on_c, 12, 34, 21
21, 53472, Note_on_c, 12, 34, 0
21, 53472, Note_on_c, 12, 34, 21
21, 53496, Note_on_c, 12, 34, 0
21, 53496, Note_on_c, 12, 34, 21
21, 53520, Note_on_c, 12, 34, 0
21, 53520, Note_on_c, 12, 34, 21
21, 53544, Note_on_c, 12, 34, 0
21, 53544, Note_on_c, 12, 34, 21
21, 53568, Note_on_c, 12, 34, 0
21, 53568, Note_on_c, 12, 34, 21
21, 53592, Note_on_c, 12, 34, 0
21, 53592, Note_on_c, 12, 34, 21
21, 53616, Note_on_c, 12, 34, 0
21, 53616, Note_on_c, 12, 34, 20
21, 53640, Note_on_c, 12, 34, 0
21, 53640, Note_on_c, 12, 34, 20
21, 53664, Note_on_c, 12, 34, 0
21, 53664, Note_on_c, 12, 34, 20
21, 53688, Note_on_c, 12, 34, 0
21, 53688, Note_on_c, 12, 34, 20
21, 53712, Note_on_c, 12, 34, 0
21, 53712, Note_on_c, 12, 34, 20
21, 53736, Note_on_c, 12, 34, 0
21, 53736, Note_on_c, 12, 34, 20
21, 53760, Note_on_c, 12, 34, 0
21, 53760, Note_on_c, 12, 34, 19
21, 53784, Note_on_c, 12, 34, 0
21, 53784, Note_on_c, 12, 34, 19
21, 53808, Note_on_c, 12, 34, 0
21, 53808, Note_on_c, 12, 34, 18
21, 53832, Note_on_c, 12, 34, 0
21, 53832, Note_on_c, 12, 34, 17
21, 53856, Note_on_c, 12, 34, 0
21, 53856, Note_on_c, 12, 34, 16
21, 53880, Note_on_c, 12, 34, 0
21, 53880, Note_on_c, 12, 34, 15
21, 53904, Note_on_c, 12, 34, 0
21, 53904, Note_on_c, 12, 34, 14
21, 53928, Note_on_c, 12, 34, 0
21, 54528, Note_on_c, 12, 34, 21
21, 54552, Note_on_c, 12, 34, 0
21, 54552, Note_on_c, 12, 34, 21
21, 54576, Note_on_c, 12, 34, 0
21, 54576, Note_on_c, 12, 34, 21
21, 54600, Note_on_c, 12, 34, 0
21, 54600, Note_on_c, 12, 34, 21
21, 54624, Note_on_c, 12, 34, 0
21, 54624, Note_on_c, 12, 34, 21
21, 54648, Note_on_c, 12, 34, 0
21, 54648, Note_on_c, 12, 34, 21
21, 54672, Note_on_c, 12, 34, 0
21, 54672, Note_on_c, 12, 34, 21
21, 54696, Note_on_c, 12, 34, 0
21, 54696, Note_on_c, 12, 34, 21
21, 54720, Note_on_c, 12, 34, 0
21, 54720, Note_on_c, 12, 34, 22
21, 54744, Note_on_c, 12, 34, 0
21, 54744, Note_on_c, 12, 34, 22
21, 54768, Note_on_c, 12, 34, 0
21, 54768, Note_on_c, 12, 34, 22
21, 54792, Note_on_c, 12, 34, 0
21, 54792, Note_on_c, 12, 34, 22
21, 54816, Note_on_c, 12, 34, 0
21, 54816, Note_on_c, 12, 34, 22
21, 54864, Note_on_c, 12, 34, 0
21, 55296, Note_on_c, 12, 34, 21
21, 55320, Note_on_c, 12, 34, 0
21, 55320, Note_on_c, 12, 34, 21
21, 55344, Note_on_c, 12, 34, 0
21, 55344, Note_on_c, 12, 34, 20
21, 55368, Note_on_c, 12, 34, 0
21, 55368, Note_on_c, 12, 34, 21
21, 55392, Note_on_c, 12, 34, 0
21, 55392, Note_on_c, 12, 34, 21
21, 55416, Note_on_c, 12, 34, 0
21, 55416, Note_on_c, 12, 34, 21
21, 55440, Note_on_c, 12, 34, 0
21, 55440, Note_on_c, 12, 34, 21
21, 55464, Note_on_c, 12, 34, 0
21, 55464, Note_on_c, 12, 34, 21
21, 55488, Note_on_c, 12, 34, 0
21, 55488, Note_on_c, 12, 34, 22
21, 55584, Note_on_c, 12, 34, 0
21, 55680, Note_on_c, 12, 34, 21
21, 55704, Note_on_c, 12, 34, 0
21, 55704, Note_on_c, 12, 34, 21
21, 55728, Note_on_c, 12, 34, 0
21, 55728, Note_on_c, 12, 34, 20
21, 55752, Note_on_c, 12, 34, 0
21, 55752, Note_on_c, 12, 34, 21
21, 55776, Note_on_c, 12, 34, 0
21, 55776, Note_on_c, 12, 34, 21
21, 55800, Note_on_c, 12, 34, 0
21, 55800, Note_on_c, 12, 34, 21
21, 55824, Note_on_c, 12, 34, 0
21, 55824, Note_on_c, 12, 34, 21
21, 55848, Note_on_c, 12, 34, 0
21, 55848, Note_on_c, 12, 34, 21
21, 55872, Note_on_c, 12, 34, 0
21, 55872, Note_on_c, 12, 34, 22
21, 55968, Note_on_c, 12, 34, 0
21, 56064, Note_on_c, 12, 34, 21
21, 56088, Note_on_c, 12, 34, 0
21, 56088, Note_on_c, 12, 34, 21
21, 56112, Note_on_c, 12, 34, 0
21, 56112, Note_on_c, 12, 34, 20
21, 56136, Note_on_c, 12, 34, 0
21, 56136, Note_on_c, 12, 34, 21
21, 56160, Note_on_c, 12, 34, 0
21, 56160, Note_on_c, 12, 34, 21
21, 56184, Note_on_c, 12, 34, 0
21, 56184, Note_on_c, 12, 34, 21
21, 56208, Note_on_c, 12, 34, 0
21, 56208, Note_on_c, 12, 34, 21
21, 56232, Note_on_c, 12, 34, 0
21, 56232, Note_on_c, 12, 34, 21
21, 56256, Note_on_c, 12, 34, 0
21, 56256, Note_on_c, 12, 34, 22
21, 56352, Note_on_c, 12, 34, 0
21, 74496, Note_on_c, 12, 34, 95
21, 74592, Note_on_c, 12, 34, 0
21, 75072, Note_on_c, 12, 34, 95
21, 75168, Note_on_c, 12, 34, 0
21, 75264, Note_on_c, 12, 34, 95
21, 75360, Note_on_c, 12, 34, 0
21, 75456, Note_on_c, 12, 34, 95
21, 75552, Note_on_c, 12, 34, 0
21, 75648, Note_on_c, 12, 34, 70
21, 75672, Note_on_c, 12, 34, 0
21, 75672, Note_on_c, 12, 34, 75
21, 75696, Note_on_c, 12, 34, 0
21, 75696, Note_on_c, 12, 34, 77
21, 75720, Note_on_c, 12, 34, 0
21, 75720, Note_on_c, 12, 34, 73
21, 75744, Note_on_c, 12, 34, 0
21, 75744, Note_on_c, 12, 34, 72
21, 75768, Note_on_c, 12, 34, 0
21, 75768, Note_on_c, 12, 34, 74
21, 75792, Note_on_c, 12, 34, 0
21, 75792, Note_on_c, 12, 34, 72
21, 75816, Note_on_c, 12, 34, 0
21, 75816, Note_on_c, 12, 34, 71
21, 75840, Note_on_c, 12, 34, 0
21, 75840, Note_on_c, 12, 34, 70
21, 75864, Note_on_c, 12, 34, 0
21, 75864, Note_on_c, 12, 34, 73
21, 75888, Note_on_c, 12, 34, 0
21, 75888, Note_on_c, 12, 34, 72
21, 75912, Note_on_c, 12, 34, 0
21, 75912, Note_on_c, 12, 34, 75
21, 75936, Note_on_c, 12, 34, 0
21, 75936, Note_on_c, 12, 34, 72
21, 75960, Note_on_c, 12, 34, 0
21, 75960, Note_on_c, 12, 34, 72
21, 75984, Note_on_c, 12, 34, 0
21, 75984, Note_on_c, 12, 34, 72
21, 76008, Note_on_c, 12, 34, 0
21, 76008, Note_on_c, 12, 34, 74
21, 76032, Note_on_c, 12, 34, 0
21, 76032, Note_on_c, 12, 39, 95
21, 76128, Note_on_c, 12, 39, 0
21, 90720, Note_on_c, 12, 39, 95
21, 90752, Note_on_c, 12, 39, 0
21, 90752, Note_on_c, 12, 39, 95
21, 90784, Note_on_c, 12, 39, 0
21, 90784, Note_on_c, 12, 39, 95
21, 90816, Note_on_c, 12, 39, 0
21, 90816, Note_on_c, 12, 39, 95
21, 90912, Note_on_c, 12, 39, 0
21, 91104, Note_on_c, 12, 39, 95
21, 91136, Note_on_c, 12, 39, 0
21, 91136, Note_on_c, 12, 39, 95
21, 91168, Note_on_c, 12, 39, 0
21, 91168, Note_on_c, 12, 39, 95
21, 91200, Note_on_c, 12, 39, 0
21, 91200, Note_on_c, 12, 39, 95
21, 91296, Note_on_c, 12, 39, 0
21, 91584, Note_on_c, 12, 39, 95
21, 91680, Note_on_c, 12, 39, 0
21, 91968, Note_on_c, 12, 39, 95
21, 92064, Note_on_c, 12, 39, 0
21, 92160, Note_on_c, 12, 39, 95
21, 92256, Note_on_c, 12, 39, 0
21, 92352, Note_on_c, 12, 39, 95
21, 92448, Note_on_c, 12, 39, 0
21, 92544, Note_on_c, 12, 39, 95
21, 92640, Note_on_c, 12, 39, 0
21, 92736, Note_on_c, 12, 39, 95
21, 92832, Note_on_c, 12, 39, 0
21, 92928, Note_on_c, 12, 39, 95
21, 93024, Note_on_c, 12, 39, 0
21, 93216, Note_on_c, 12, 39, 95
21, 93312, Note_on_c, 12, 39, 0
21, 93312, Note_on_c, 12, 39, 95
21, 93408, Note_on_c, 12, 39, 0
21, 93600, Note_on_c, 12, 39, 95
21, 93696, Note_on_c, 12, 39, 0
21, 93696, Note_on_c, 12, 34, 62
21, 93720, Note_on_c, 12, 34, 0
21, 93720, Note_on_c, 12, 34, 65
21, 93744, Note_on_c, 12, 34, 0
21, 93744, Note_on_c, 12, 34, 65
21, 93768, Note_on_c, 12, 34, 0
21, 93768, Note_on_c, 12, 34, 69
21, 93792, Note_on_c, 12, 34, 0
21, 93792, Note_on_c, 12, 34, 69
21, 93816, Note_on_c, 12, 34, 0
21, 93816, Note_on_c, 12, 34, 70
21, 93840, Note_on_c, 12, 34, 0
21, 93840, Note_on_c, 12, 34, 70
21, 93864, Note_on_c, 12, 34, 0
21, 93864, Note_on_c, 12, 34, 69
21, 93888, Note_on_c, 12, 34, 0
21, 93888, Note_on_c, 12, 34, 68
21, 93912, Note_on_c, 12, 34, 0
21, 93912, Note_on_c, 12, 34, 65
21, 93936, Note_on_c, 12, 34, 0
21, 93936, Note_on_c, 12, 34, 67
21, 93960, Note_on_c, 12, 34, 0
21, 93960, Note_on_c, 12, 34, 63
21, 93984, Note_on_c, 12, 34, 0
21, 93984, Note_on_c, 12, 34, 66
21, 94008, Note_on_c, 12, 34, 0
21, 94008, Note_on_c, 12, 34, 66
21, 94032, Note_on_c, 12, 34, 0
21, 94032, Note_on_c, 12, 34, 65
21, 94056, Note_on_c, 12, 34, 0
21, 94056, Note_on_c, 12, 34, 66
21, 94080, Note_on_c, 12, 34, 0
21, 94080, Note_on_c, 12, 34, 68
21, 94104, Note_on_c, 12, 34, 0
21, 94104, Note_on_c, 12, 34, 68
21, 94128, Note_on_c, 12, 34, 0
21, 94128, Note_on_c, 12, 34, 66
21, 94152, Note_on_c, 12, 34, 0
21, 94152, Note_on_c, 12, 34, 67
21, 94176, Note_on_c, 12, 34, 0
21, 94176, Note_on_c, 12, 34, 68
21, 94200, Note_on_c, 12, 34, 0
21, 94200, Note_on_c, 12, 34, 68
21, 94224, Note_on_c, 12, 34, 0
21, 94224, Note_on_c, 12, 34, 69
21, 94248, Note_on_c, 12, 34, 0
21, 94248, Note_on_c, 12, 34, 70
21, 94272, Note_on_c, 12, 34, 0
21, 94272, Note_on_c, 12, 39, 95
21, 94368, Note_on_c, 12, 39, 0
21, 94656, Note_on_c, 12, 39, 95
21, 94752, Note_on_c, 12, 39, 0
21, 95136, Note_on_c, 12, 39, 95
21, 95232, Note_on_c, 12, 39, 0
21, 95328, Note_on_c, 12, 39, 95
21, 95424, Note_on_c, 12, 39, 0
21, 95520, Note_on_c, 12, 39, 95
21, 95616, Note_on_c, 12, 39, 0
21, 95712, Note_on_c, 12, 39, 95
21, 95808, Note_on_c, 12, 39, 0
21, 95808, Note_on_c, 12, 34, 95
21, 95904, Note_on_c, 12, 34, 0
21, 96096, Note_on_c, 12, 39, 97
21, 96192, Note_on_c, 12, 39, 0
21, 96192, Note_on_c, 12, 34, 97
21, 96288, Note_on_c, 12, 34, 0
21, 96480, Note_on_c, 12, 39, 95
21, 96576, Note_on_c, 12, 39, 0
21, 96576, Note_on_c, 12, 39, 95
21, 96672, Note_on_c, 12, 39, 0
21, 96864, Note_on_c, 12, 39, 91
21, 96960, Note_on_c, 12, 39, 0
21, 96960, Note_on_c, 12, 39, 91
21, 97056, Note_on_c, 12, 39, 0
21, 97248, Note_on_c, 12, 39, 94
21, 97344, Note_on_c, 12, 39, 0
21, 97344, Note_on_c, 12, 39, 97
21, 97440, Note_on_c, 12, 39, 0
21, 97632, Note_on_c, 12, 39, 94
21, 97728, Note_on_c, 12, 39, 0
21, 97728, Note_on_c, 12, 34, 94
21, 97824, Note_on_c, 12, 34, 0
21, 98016, Note_on_c, 12, 34, 88
21, 98112, Note_on_c, 12, 34, 0
21, 98112, Note_on_c, 12, 39, 88
21, 98208, Note_on_c, 12, 39, 0
21, 172032, Note_on_c, 12, 31, 97
21, 172128, Note_on_c, 12, 31, 0
21, 173568, Note_on_c, 12, 35, 97
21, 173664, Note_on_c, 12, 35, 0
21, 175104, Note_on_c, 12, 31, 95
21, 175200, Note_on_c, 12, 31, 0
21, 176640, Note_on_c, 12, 31, 95
21, 176736, Note_on_c, 12, 31, 0
21, 177408, Note_on_c, 12, 31, 95
21, 177504, Note_on_c, 12, 31, 0
21, 178944, Note_on_c, 12, 39, 95
21, 179040, Note_on_c, 12, 39, 0
21, 180480, Note_on_c, 12, 39, 81
21, 180504, Note_on_c, 12, 39, 0
21, 180504, Note_on_c, 12, 39, 79
21, 180528, Note_on_c, 12, 39, 0
21, 180528, Note_on_c, 12, 39, 81
21, 180552, Note_on_c, 12, 39, 0
21, 180552, Note_on_c, 12, 39, 90
21, 180576, Note_on_c, 12, 39, 0
21, 180576, Note_on_c, 12, 39, 82
21, 180600, Note_on_c, 12, 39, 0
21, 180600, Note_on_c, 12, 39, 81
21, 180624, Note_on_c, 12, 39, 0
21, 180624, Note_on_c, 12, 39, 84
21, 180648, Note_on_c, 12, 39, 0
21, 180648, Note_on_c, 12, 39, 82
21, 180672, Note_on_c, 12, 39, 0
21, 180672, Note_on_c, 12, 39, 85
21, 180696, Note_on_c, 12, 39, 0
21, 180696, Note_on_c, 12, 39, 86
21, 180720, Note_on_c, 12, 39, 0
21, 180720, Note_on_c, 12, 39, 84
21, 180744, Note_on_c, 12, 39, 0
21, 180744, Note_on_c, 12, 39, 84
21, 180768, Note_on_c, 12, 39, 0
21, 180768, Note_on_c, 12, 39, 85
21, 180792, Note_on_c, 12, 39, 0
21, 180792, Note_on_c, 12, 39, 89
21, 180816, Note_on_c, 12, 39, 0
21, 180816, Note_on_c, 12, 39, 87
21, 180840, Note_on_c, 12, 39, 0
21, 180840, Note_on_c, 12, 39, 89
21, 180864, Note_on_c, 12, 39, 0
21, 180864, Note_on_c, 12, 39, 84
21, 180888, Note_on_c, 12, 39, 0
21, 180888, Note_on_c, 12, 39, 86
21, 180912, Note_on_c, 12, 39, 0
21, 180912, Note_on_c, 12, 39, 90
21, 180936, Note_on_c, 12, 39, 0
21, 180936, Note_on_c, 12, 39, 93
21, 180960, Note_on_c, 12, 39, 0
21, 180960, Note_on_c, 12, 39, 91
21, 180984, Note_on_c, 12, 39, 0
21, 180984, Note_on_c, 12, 39, 91
21, 181008, Note_on_c, 12, 39, 0
21, 181008, Note_on_c, 12, 39, 90
21, 181032, Note_on_c, 12, 39, 0
21, 181032, Note_on_c, 12, 39, 85
21, 181056, Note_on_c, 12, 39, 0
21, 181056, Note_on_c, 12, 39, 90
21, 181080, Note_on_c, 12, 39, 0
21, 181080, Note_on_c, 12, 39, 91
21, 181104, Note_on_c, 12, 39, 0
21, 181104, Note_on_c, 12, 39, 93
21, 181128, Note_on_c, 12, 39, 0
21, 181128, Note_on_c, 12, 39, 91
21, 181152, Note_on_c, 12, 39, 0
21, 181152, Note_on_c, 12, 39, 90
21, 181176, Note_on_c, 12, 39, 0
21, 181176, Note_on_c, 12, 39, 91
21, 181200, Note_on_c, 12, 39, 0
21, 181200, Note_on_c, 12, 39, 91
21, 181224, Note_on_c, 12, 39, 0
21, 181224, Note_on_c, 12, 39, 96
21, 181248, Note_on_c, 12, 39, 0
21, 181248, Note_on_c, 12, 34, 74
21, 181344, Note_on_c, 12, 34, 0
21, 181344, Note_on_c, 12, 34, 68
21, 181440, Note_on_c, 12, 34, 0
21, 181536, Note_on_c, 12, 34, 72
21, 181632, Note_on_c, 12, 34, 0
21, 181728, Note_on_c, 12, 34, 75
21, 181824, Note_on_c, 12, 34, 0
21, 181920, Note_on_c, 12, 34, 70
21, 182016, Note_on_c, 12, 34, 0
21, 182112, Note_on_c, 12, 39, 71
21, 182208, Note_on_c, 12, 39, 0
21, 182976, Note_on_c, 12, 39, 86
21, 183072, Note_on_c, 12, 39, 0
21, 183456, Note_on_c, 12, 39, 84
21, 183552, Note_on_c, 12, 39, 0
21, 183648, Note_on_c, 12, 39, 97
21, 183744, Note_on_c, 12, 39, 0
21, 183840, Note_on_c, 12, 39, 97
21, 183936, Note_on_c, 12, 39, 0
21, 184032, Note_on_c, 12, 39, 97
21, 184128, Note_on_c, 12, 39, 0
21, 184128, Note_on_c, 12, 39, 90
21, 184224, Note_on_c, 12, 39, 0
21, 184416, Note_on_c, 12, 39, 97
21, 184512, Note_on_c, 12, 39, 0
21, 184512, Note_on_c, 12, 34, 87
21, 184608, Note_on_c, 12, 34, 0
21, 184800, Note_on_c, 12, 39, 93
21, 184896, Note_on_c, 12, 39, 0
21, 184896, Note_on_c, 12, 39, 90
21, 184992, Note_on_c, 12, 39, 0
21, 185184, Note_on_c, 12, 39, 91
21, 185280, Note_on_c, 12, 39, 0
21, 185280, Note_on_c, 12, 39, 84
21, 185376, Note_on_c, 12, 39, 0
21, 185568, Note_on_c, 12, 39, 91
21, 185664, Note_on_c, 12, 39, 0
21, 185664, Note_on_c, 12, 39, 86
21, 185760, Note_on_c, 12, 39, 0
21, 185952, Note_on_c, 12, 39, 97
21, 186048, Note_on_c, 12, 39, 0
21, 186048, Note_on_c, 12, 34, 97
21, 186144, Note_on_c, 12, 34, 0
21, 220416, Note_on_c, 12, 34, 21
21, 220440, Note_on_c, 12, 34, 0
21, 220440, Note_on_c, 12, 34, 21
21, 220464, Note_on_c, 12, 34, 0
21, 220464, Note_on_c, 12, 34, 20
21, 220488, Note_on_c, 12, 34, 0
21, 220488, Note_on_c, 12, 34, 21
21, 220512, Note_on_c, 12, 34, 0
21, 220512, Note_on_c, 12, 34, 21
21, 220536, Note_on_c, 12, 34, 0
21, 220536, Note_on_c, 12, 34, 21
21, 220560, Note_on_c, 12, 34, 0
21, 220560, Note_on_c, 12, 34, 21
21, 220584, Note_on_c, 12, 34, 0
21, 220584, Note_on_c, 12, 34, 21
21, 220608, Note_on_c, 12, 34, 0
21, 220608, Note_on_c, 12, 34, 20
21, 220632, Note_on_c, 12, 34, 0
21, 220632, Note_on_c, 12, 34, 21
21, 220656, Note_on_c, 12, 34, 0
21, 220656, Note_on_c, 12, 34, 21
21, 220680, Note_on_c, 12, 34, 0
21, 220680, Note_on_c, 12, 34, 21
21, 220704, Note_on_c, 12, 34, 0
21, 220704, Note_on_c, 12, 34, 21
21, 220728, Note_on_c, 12, 34, 0
21, 220728, Note_on_c, 12, 34, 21
21, 220752, Note_on_c, 12, 34, 0
21, 220752, Note_on_c, 12, 34, 21
21, 220776, Note_on_c, 12, 34, 0
21, 220776, Note_on_c, 12, 34, 21
21, 220800, Note_on_c, 12, 34, 0
21, 220800, Note_on_c, 12, 34, 21
21, 220824, Note_on_c, 12, 34, 0
21, 220824, Note_on_c, 12, 34, 21
21, 220848, Note_on_c, 12, 34, 0
21, 220848, Note_on_c, 12, 34, 21
21, 220872, Note_on_c, 12, 34, 0
21, 220872, Note_on_c, 12, 34, 21
21, 220896, Note_on_c, 12, 34, 0
21, 220896, Note_on_c, 12, 34, 21
21, 220920, Note_on_c, 12, 34, 0
21, 220920, Note_on_c, 12, 34, 21
21, 220944, Note_on_c, 12, 34, 0
21, 220944, Note_on_c, 12, 34, 21
21, 220968, Note_on_c, 12, 34, 0
21, 220968, Note_on_c, 12, 34, 23
21, 220992, Note_on_c, 12, 34, 0
21, 220992, Note_on_c, 12, 34, 23
21, 221016, Note_on_c, 12, 34, 0
21, 221016, Note_on_c, 12, 34, 21
21, 221040, Note_on_c, 12, 34, 0
21, 221040, Note_on_c, 12, 34, 22
21, 221064, Note_on_c, 12, 34, 0
21, 221064, Note_on_c, 12, 34, 22
21, 221088, Note_on_c, 12, 34, 0
21, 221088, Note_on_c, 12, 34, 22
21, 221112, Note_on_c, 12, 34, 0
21, 221112, Note_on_c, 12, 34, 22
21, 221136, Note_on_c, 12, 34, 0
21, 221136, Note_on_c, 12, 34, 24
21, 221160, Note_on_c, 12, 34, 0
21, 221160, Note_on_c, 12, 34, 24
21, 221184, Note_on_c, 12, 34, 0
21, 221184, Note_on_c, 12, 34, 21
21, 221208, Note_on_c, 12, 34, 0
21, 221208, Note_on_c, 12, 34, 21
21, 221232, Note_on_c, 12, 34, 0
21, 221232, Note_on_c, 12, 34, 20
21, 221256, Note_on_c, 12, 34, 0
21, 221256, Note_on_c, 12, 34, 21
21, 221280, Note_on_c, 12, 34, 0
21, 221280, Note_on_c, 12, 34, 21
21, 221304, Note_on_c, 12, 34, 0
21, 221304, Note_on_c, 12, 34, 21
21, 221328, Note_on_c, 12, 34, 0
21, 221328, Note_on_c, 12, 34, 21
21, 221352, Note_on_c, 12, 34, 0
21, 221352, Note_on_c, 12, 34, 21
21, 221376, Note_on_c, 12, 34, 0
21, 221376, Note_on_c, 12, 34, 20
21, 221400, Note_on_c, 12, 34, 0
21, 221400, Note_on_c, 12, 34, 21
21, 221424, Note_on_c, 12, 34, 0
21, 221424, Note_on_c, 12, 34, 21
21, 221448, Note_on_c, 12, 34, 0
21, 221448, Note_on_c, 12, 34, 21
21, 221472, Note_on_c, 12, 34, 0
21, 221472, Note_on_c, 12, 34, 21
21, 221496, Note_on_c, 12, 34, 0
21, 221496, Note_on_c, 12, 34, 21
21, 221520, Note_on_c, 12, 34, 0
21, 221520, Note_on_c, 12, 34, 21
21, 221544, Note_on_c, 12, 34, 0
21, 221544, Note_on_c, 12, 34, 21
21, 221568, Note_on_c, 12, 34, 0
21, 221568, Note_on_c, 12, 34, 21
21, 221592, Note_on_c, 12, 34, 0
21, 221592, Note_on_c, 12, 34, 21
21, 221616, Note_on_c, 12, 34, 0
21, 221616, Note_on_c, 12, 34, 21
21, 221640, Note_on_c, 12, 34, 0
21, 221640, Note_on_c, 12, 34, 21
21, 221664, Note_on_c, 12, 34, 0
21, 221664, Note_on_c, 12, 34, 21
21, 221688, Note_on_c, 12, 34, 0
21, 221688, Note_on_c, 12, 34, 21
21, 221712, Note_on_c, 12, 34, 0
21, 221712, Note_on_c, 12, 34, 21
21, 221736, Note_on_c, 12, 34, 0
21, 221736, Note_on_c, 12, 34, 23
21, 221760, Note_on_c, 12, 34, 0
21, 221760, Note_on_c, 12, 34, 23
21, 221784, Note_on_c, 12, 34, 0
21, 221784, Note_on_c, 12, 34, 21
21, 221808, Note_on_c, 12, 34, 0
21, 221808, Note_on_c, 12, 34, 22
21, 221832, Note_on_c, 12, 34, 0
21, 221832, Note_on_c, 12, 34, 22
21, 221856, Note_on_c, 12, 34, 0
21, 221856, Note_on_c, 12, 34, 22
21, 221880, Note_on_c, 12, 34, 0
21, 221880, Note_on_c, 12, 34, 22
21, 221904, Note_on_c, 12, 34, 0
21, 221904, Note_on_c, 12, 34, 24
21, 221928, Note_on_c, 12, 34, 0
21, 221928, Note_on_c, 12, 34, 24
21, 221952, Note_on_c, 12, 34, 0
21, 221952, Note_on_c, 12, 34, 21
21, 221976, Note_on_c, 12, 34, 0
21, 221976, Note_on_c, 12, 34, 21
21, 222000, Note_on_c, 12, 34, 0
21, 222000, Note_on_c, 12, 34, 20
21, 222024, Note_on_c, 12, 34, 0
21, 222024, Note_on_c, 12, 34, 21
21, 222048, Note_on_c, 12, 34, 0
21, 222048, Note_on_c, 12, 34, 21
21, 222072, Note_on_c, 12, 34, 0
21, 222072, Note_on_c, 12, 34, 21
21, 222096, Note_on_c, 12, 34, 0
21, 222096, Note_on_c, 12, 34, 21
21, 222120, Note_on_c, 12, 34, 0
21, 222120, Note_on_c, 12, 34, 21
21, 222144, Note_on_c, 12, 34, 0
21, 222144, Note_on_c, 12, 34, 20
21, 222168, Note_on_c, 12, 34, 0
21, 222168, Note_on_c, 12, 34, 21
21, 222192, Note_on_c, 12, 34, 0
21, 222192, Note_on_c, 12, 34, 21
21, 222216, Note_on_c, 12, 34, 0
21, 222216, Note_on_c, 12, 34, 21
21, 222240, Note_on_c, 12, 34, 0
21, 222240, Note_on_c, 12, 34, 21
21, 222264, Note_on_c, 12, 34, 0
21, 222264, Note_on_c, 12, 34, 21
21, 222288, Note_on_c, 12, 34, 0
21, 222288, Note_on_c, 12, 34, 21
21, 222312, Note_on_c, 12, 34, 0
21, 222312, Note_on_c, 12, 34, 21
21, 222336, Note_on_c, 12, 34, 0
21, 222336, Note_on_c, 12, 34, 21
21, 222360, Note_on_c, 12, 34, 0
21, 222360, Note_on_c, 12, 34, 21
21, 222384, Note_on_c, 12, 34, 0
21, 222384, Note_on_c, 12, 34, 21
21, 222408, Note_on_c, 12, 34, 0
21, 222408, Note_on_c, 12, 34, 21
21, 222432, Note_on_c, 12, 34, 0
21, 222432, Note_on_c, 12, 34, 21
21, 222456, Note_on_c, 12, 34, 0
21, 222456, Note_on_c, 12, 34, 21
21, 222480, Note_on_c, 12, 34, 0
21, 222480, Note_on_c, 12, 34, 21
21, 222504, Note_on_c, 12, 34, 0
21, 222504, Note_on_c, 12, 34, 23
21, 222528, Note_on_c, 12, 34, 0
21, 222528, Note_on_c, 12, 34, 23
21, 222552, Note_on_c, 12, 34, 0
21, 222552, Note_on_c, 12, 34, 21
21, 222576, Note_on_c, 12, 34, 0
21, 222576, Note_on_c, 12, 34, 22
21, 222600, Note_on_c, 12, 34, 0
21, 222600, Note_on_c, 12, 34, 22
21, 222624, Note_on_c, 12, 34, 0
21, 222624, Note_on_c, 12, 34, 22
21, 222648, Note_on_c, 12, 34, 0
21, 222648, Note_on_c, 12, 34, 22
21, 222672, Note_on_c, 12, 34, 0
21, 222672, Note_on_c, 12, 34, 24
21, 222696, Note_on_c, 12, 34, 0
21, 222696, Note_on_c, 12, 34, 24
21, 222720, Note_on_c, 12, 34, 0
21, 222720, Note_on_c, 12, 34, 21
21, 222744, Note_on_c, 12, 34, 0
21, 222744, Note_on_c, 12, 34, 21
21, 222768, Note_on_c, 12, 34, 0
21, 222768, Note_on_c, 12, 34, 20
21, 222792, Note_on_c, 12, 34, 0
21, 222792, Note_on_c, 12, 34, 21
21, 222816, Note_on_c, 12, 34, 0
21, 222816, Note_on_c, 12, 34, 21
21, 222840, Note_on_c, 12, 34, 0
21, 222840, Note_on_c, 12, 34, 21
21, 222864, Note_on_c, 12, 34, 0
21, 222864, Note_on_c, 12, 34, 21
21, 222888, Note_on_c, 12, 34, 0
21, 222888, Note_on_c, 12, 34, 21
21, 222912, Note_on_c, 12, 34, 0
21, 222912, Note_on_c, 12, 34, 20
21, 222936, Note_on_c, 12, 34, 0
21, 222936, Note_on_c, 12, 34, 21
21, 222960, Note_on_c, 12, 34, 0
21, 222960, Note_on_c, 12, 34, 21
21, 222984, Note_on_c, 12, 34, 0
21, 222984, Note_on_c, 12, 34, 21
21, 223008, Note_on_c, 12, 34, 0
21, 223008, Note_on_c, 12, 34, 21
21, 223032, Note_on_c, 12, 34, 0
21, 223032, Note_on_c, 12, 34, 21
21, 223056, Note_on_c, 12, 34, 0
21, 223056, Note_on_c, 12, 34, 21
21, 223080, Note_on_c, 12, 34, 0
21, 223080, Note_on_c, 12, 34, 21
21, 223104, Note_on_c, 12, 34, 0
21, 223104, Note_on_c, 12, 34, 21
21, 223128, Note_on_c, 12, 34, 0
21, 223128, Note_on_c, 12, 34, 21
21, 223152, Note_on_c, 12, 34, 0
21, 223152, Note_on_c, 12, 34, 21
21, 223176, Note_on_c, 12, 34, 0
21, 223176, Note_on_c, 12, 34, 21
21, 223200, Note_on_c, 12, 34, 0
21, 223200, Note_on_c, 12, 34, 21
21, 223224, Note_on_c, 12, 34, 0
21, 223224, Note_on_c, 12, 34, 21
21, 223248, Note_on_c, 12, 34, 0
21, 223248, Note_on_c, 12, 34, 21
21, 223272, Note_on_c, 12, 34, 0
21, 223272, Note_on_c, 12, 34, 23
21, 223296, Note_on_c, 12, 34, 0
21, 223296, Note_on_c, 12, 34, 23
21, 223320, Note_on_c, 12, 34, 0
21, 223320, Note_on_c, 12, 34, 21
21, 223344, Note_on_c, 12, 34, 0
21, 223344, Note_on_c, 12, 34, 22
21, 223368, Note_on_c, 12, 34, 0
21, 223368, Note_on_c, 12, 34, 22
21, 223392, Note_on_c, 12, 34, 0
21, 223392, Note_on_c, 12, 34, 22
21, 223416, Note_on_c, 12, 34, 0
21, 223416, Note_on_c, 12, 34, 22
21, 223440, Note_on_c, 12, 34, 0
21, 223440, Note_on_c, 12, 34, 24
21, 223464, Note_on_c, 12, 34, 0
21, 223464, Note_on_c, 12, 34, 24
21, 223488, Note_on_c, 12, 34, 0
21, 223488, Note_on_c, 12, 34, 21
21, 223512, Note_on_c, 12, 34, 0
21, 223512, Note_on_c, 12, 34, 21
21, 223536, Note_on_c, 12, 34, 0
21, 223536, Note_on_c, 12, 34, 20
21, 223560, Note_on_c, 12, 34, 0
21, 223560, Note_on_c, 12, 34, 21
21, 223584, Note_on_c, 12, 34, 0
21, 223584, Note_on_c, 12, 34, 21
21, 223608, Note_on_c, 12, 34, 0
21, 223608, Note_on_c, 12, 34, 21
21, 223632, Note_on_c, 12, 34, 0
21, 223632, Note_on_c, 12, 34, 21
21, 223656, Note_on_c, 12, 34, 0
21, 223656, Note_on_c, 12, 34, 21
21, 223680, Note_on_c, 12, 34, 0
21, 223680, Note_on_c, 12, 34, 20
21, 223704, Note_on_c, 12, 34, 0
21, 223704, Note_on_c, 12, 34, 21
21, 223728, Note_on_c, 12, 34, 0
21, 223728, Note_on_c, 12, 34, 21
21, 223752, Note_on_c, 12, 34, 0
21, 223752, Note_on_c, 12, 34, 21
21, 223776, Note_on_c, 12, 34, 0
21, 223776, Note_on_c, 12, 34, 21
21, 223800, Note_on_c, 12, 34, 0
21, 223800, Note_on_c, 12, 34, 21
21, 223824, Note_on_c, 12, 34, 0
21, 223824, Note_on_c, 12, 34, 21
21, 223848, Note_on_c, 12, 34, 0
21, 223848, Note_on_c, 12, 34, 21
21, 223872, Note_on_c, 12, 34, 0
21, 223872, Note_on_c, 12, 34, 21
21, 223896, Note_on_c, 12, 34, 0
21, 223896, Note_on_c, 12, 34, 21
21, 223920, Note_on_c, 12, 34, 0
21, 223920, Note_on_c, 12, 34, 21
21, 223944, Note_on_c, 12, 34, 0
21, 223944, Note_on_c, 12, 34, 21
21, 223968, Note_on_c, 12, 34, 0
21, 223968, Note_on_c, 12, 34, 21
21, 223992, Note_on_c, 12, 34, 0
21, 223992, Note_on_c, 12, 34, 21
21, 224016, Note_on_c, 12, 34, 0
21, 224016, Note_on_c, 12, 34, 21
21, 224040, Note_on_c, 12, 34, 0
21, 224040, Note_on_c, 12, 34, 23
21, 224064, Note_on_c, 12, 34, 0
21, 224064, Note_on_c, 12, 34, 23
21, 224088, Note_on_c, 12, 34, 0
21, 224088, Note_on_c, 12, 34, 21
21, 224112, Note_on_c, 12, 34, 0
21, 224112, Note_on_c, 12, 34, 22
21, 224136, Note_on_c, 12, 34, 0
21, 224136, Note_on_c, 12, 34, 22
21, 224160, Note_on_c, 12, 34, 0
21, 224160, Note_on_c, 12, 34, 22
21, 224184, Note_on_c, 12, 34, 0
21, 224184, Note_on_c, 12, 34, 22
21, 224208, Note_on_c, 12, 34, 0
21, 224208, Note_on_c, 12, 34, 24
21, 224232, Note_on_c, 12, 34, 0
21, 224232, Note_on_c, 12, 34, 24
21, 224256, Note_on_c, 12, 34, 0
21, 224256, Note_on_c, 12, 34, 21
21, 224280, Note_on_c, 12, 34, 0
21, 224280, Note_on_c, 12, 34, 21
21, 224304, Note_on_c, 12, 34, 0
21, 224304, Note_on_c, 12, 34, 20
21, 224328, Note_on_c, 12, 34, 0
21, 224328, Note_on_c, 12, 34, 21
21, 224352, Note_on_c, 12, 34, 0
21, 224352, Note_on_c, 12, 34, 21
21, 224376, Note_on_c, 12, 34, 0
21, 224376, Note_on_c, 12, 34, 21
21, 224400, Note_on_c, 12, 34, 0
21, 224400, Note_on_c, 12, 34, 21
21, 224424, Note_on_c, 12, 34, 0
21, 224424, Note_on_c, 12, 34, 21
21, 224448, Note_on_c, 12, 34, 0
21, 224448, Note_on_c, 12, 34, 20
21, 224472, Note_on_c, 12, 34, 0
21, 224472, Note_on_c, 12, 34, 21
21, 224496, Note_on_c, 12, 34, 0
21, 224496, Note_on_c, 12, 34, 21
21, 224520, Note_on_c, 12, 34, 0
21, 224520, Note_on_c, 12, 34, 21
21, 224544, Note_on_c, 12, 34, 0
21, 224544, Note_on_c, 12, 34, 21
21, 224568, Note_on_c, 12, 34, 0
21, 224568, Note_on_c, 12, 34, 21
21, 224592, Note_on_c, 12, 34, 0
21, 224592, Note_on_c, 12, 34, 21
21, 224616, Note_on_c, 12, 34, 0
21, 224616, Note_on_c, 12, 34, 21
21, 224640, Note_on_c, 12, 34, 0
21, 224640, Note_on_c, 12, 34, 21
21, 224664, Note_on_c, 12, 34, 0
21, 224664, Note_on_c, 12, 34, 21
21, 224688, Note_on_c, 12, 34, 0
21, 224688, Note_on_c, 12, 34, 21
21, 224712, Note_on_c, 12, 34, 0
21, 224712, Note_on_c, 12, 34, 21
21, 224736, Note_on_c, 12, 34, 0
21, 224736, Note_on_c, 12, 34, 21
21, 224760, Note_on_c, 12, 34, 0
21, 224760, Note_on_c, 12, 34, 21
21, 224784, Note_on_c, 12, 34, 0
21, 224784, Note_on_c, 12, 34, 21
21, 224808, Note_on_c, 12, 34, 0
21, 224808, Note_on_c, 12, 34, 23
21, 224832, Note_on_c, 12, 34, 0
21, 224832, Note_on_c, 12, 34, 23
21, 224856, Note_on_c, 12, 34, 0
21, 224856, Note_on_c, 12, 34, 21
21, 224880, Note_on_c, 12, 34, 0
21, 224880, Note_on_c, 12, 34, 22
21, 224904, Note_on_c, 12, 34, 0
21, 224904, Note_on_c, 12, 34, 22
21, 224928, Note_on_c, 12, 34, 0
21, 224928, Note_on_c, 12, 34, 22
21, 224952, Note_on_c, 12, 34, 0
21, 224952, Note_on_c, 12, 34, 22
21, 224976, Note_on_c, 12, 34, 0
21, 224976, Note_on_c, 12, 34, 24
21, 225000, Note_on_c, 12, 34, 0
21, 225000, Note_on_c, 12, 34, 24
21, 225024, Note_on_c, 12, 34, 0
21, 225024, Note_on_c, 12, 34, 21
21, 225048, Note_on_c, 12, 34, 0
21, 225048, Note_on_c, 12, 34, 21
21, 225072, Note_on_c, 12, 34, 0
21, 225072, Note_on_c, 12, 34, 20
21, 225096, Note_on_c, 12, 34, 0
21, 225096, Note_on_c, 12, 34, 21
21, 225120, Note_on_c, 12, 34, 0
21, 225120, Note_on_c, 12, 34, 21
21, 225144, Note_on_c, 12, 34, 0
21, 225144, Note_on_c, 12, 34, 21
21, 225168, Note_on_c, 12, 34, 0
21, 225168, Note_on_c, 12, 34, 21
21, 225192, Note_on_c, 12, 34, 0
21, 225192, Note_on_c, 12, 34, 21
21, 225216, Note_on_c, 12, 34, 0
21, 225216, Note_on_c, 12, 34, 20
21, 225240, Note_on_c, 12, 34, 0
21, 225240, Note_on_c, 12, 34, 21
21, 225264, Note_on_c, 12, 34, 0
21, 225264, Note_on_c, 12, 34, 21
21, 225288, Note_on_c, 12, 34, 0
21, 225288, Note_on_c, 12, 34, 21
21, 225312, Note_on_c, 12, 34, 0
21, 225312, Note_on_c, 12, 34, 21
21, 225336, Note_on_c, 12, 34, 0
21, 225336, Note_on_c, 12, 34, 21
21, 225360, Note_on_c, 12, 34, 0
21, 225360, Note_on_c, 12, 34, 21
21, 225384, Note_on_c, 12, 34, 0
21, 225384, Note_on_c, 12, 34, 21
21, 225408, Note_on_c, 12, 34, 0
21, 225408, Note_on_c, 12, 34, 21
21, 225432, Note_on_c, 12, 34, 0
21, 225432, Note_on_c, 12, 34, 21
21, 225456, Note_on_c, 12, 34, 0
21, 225456, Note_on_c, 12, 34, 21
21, 225480, Note_on_c, 12, 34, 0
21, 225480, Note_on_c, 12, 34, 21
21, 225504, Note_on_c, 12, 34, 0
21, 225504, Note_on_c, 12, 34, 21
21, 225528, Note_on_c, 12, 34, 0
21, 225528, Note_on_c, 12, 34, 21
21, 225552, Note_on_c, 12, 34, 0
21, 225552, Note_on_c, 12, 34, 21
21, 225576, Note_on_c, 12, 34, 0
21, 225576, Note_on_c, 12, 34, 23
21, 225600, Note_on_c, 12, 34, 0
21, 225600, Note_on_c, 12, 34, 23
21, 225624, Note_on_c, 12, 34, 0
21, 225624, Note_on_c, 12, 34, 21
21, 225648, Note_on_c, 12, 34, 0
21, 225648, Note_on_c, 12, 34, 22
21, 225672, Note_on_c, 12, 34, 0
21, 225672, Note_on_c, 12, 34, 22
21, 225696, Note_on_c, 12, 34, 0
21, 225696, Note_on_c, 12, 34, 22
21, 225720, Note_on_c, 12, 34, 0
21, 225720, Note_on_c, 12, 34, 22
21, 225744, Note_on_c, 12, 34, 0
21, 225744, Note_on_c, 12, 34, 24
21, 225768, Note_on_c, 12, 34, 0
21, 225768, Note_on_c, 12, 34, 24
21, 225792, Note_on_c, 12, 34, 0
21, 225792, Note_on_c, 12, 34, 21
21, 225816, Note_on_c, 12, 34, 0
21, 225816, Note_on_c, 12, 34, 21
21, 225840, Note_on_c, 12, 34, 0
21, 225840, Note_on_c, 12, 34, 20
21, 225864, Note_on_c, 12, 34, 0
21, 225864, Note_on_c, 12, 34, 21
21, 225888, Note_on_c, 12, 34, 0
21, 225888, Note_on_c, 12, 34, 21
21, 225912, Note_on_c, 12, 34, 0
21, 225912, Note_on_c, 12, 34, 21
21, 225936, Note_on_c, 12, 34, 0
21, 225936, Note_on_c, 12, 34, 21
21, 225960, Note_on_c, 12, 34, 0
21, 225960, Note_on_c, 12, 34, 21
21, 225984, Note_on_c, 12, 34, 0
21, 225984, Note_on_c, 12, 34, 20
21, 226008, Note_on_c, 12, 34, 0
21, 226008, Note_on_c, 12, 34, 21
21, 226032, Note_on_c, 12, 34, 0
21, 226032, Note_on_c, 12, 34, 21
21, 226056, Note_on_c, 12, 34, 0
21, 226056, Note_on_c, 12, 34, 21
21, 226080, Note_on_c, 12, 34, 0
21, 226080, Note_on_c, 12, 34, 21
21, 226104, Note_on_c, 12, 34, 0
21, 226104, Note_on_c, 12, 34, 21
21, 226128, Note_on_c, 12, 34, 0
21, 226128, Note_on_c, 12, 34, 21
21, 226152, Note_on_c, 12, 34, 0
21, 226152, Note_on_c, 12, 34, 21
21, 226176, Note_on_c, 12, 34, 0
21, 226176, Note_on_c, 12, 34, 21
21, 226200, Note_on_c, 12, 34, 0
21, 226200, Note_on_c, 12, 34, 21
21, 226224, Note_on_c, 12, 34, 0
21, 226224, Note_on_c, 12, 34, 21
21, 226248, Note_on_c, 12, 34, 0
21, 226248, Note_on_c, 12, 34, 21
21, 226272, Note_on_c, 12, 34, 0
21, 226272, Note_on_c, 12, 34, 21
21, 226296, Note_on_c, 12, 34, 0
21, 226296, Note_on_c, 12, 34, 21
21, 226320, Note_on_c, 12, 34, 0
21, 226320, Note_on_c, 12, 34, 21
21, 226344, Note_on_c, 12, 34, 0
21, 226344, Note_on_c, 12, 34, 23
21, 226368, Note_on_c, 12, 34, 0
21, 226368, Note_on_c, 12, 34, 23
21, 226392, Note_on_c, 12, 34, 0
21, 226392, Note_on_c, 12, 34, 21
21, 226416, Note_on_c, 12, 34, 0
21, 226416, Note_on_c, 12, 34, 22
21, 226440, Note_on_c, 12, 34, 0
21, 226440, Note_on_c, 12, 34, 22
21, 226464, Note_on_c, 12, 34, 0
21, 226464, Note_on_c, 12, 34, 22
21, 226488, Note_on_c, 12, 34, 0
21, 226488, Note_on_c, 12, 34, 22
21, 226512, Note_on_c, 12, 34, 0
21, 226512, Note_on_c, 12, 34, 24
21, 226536, Note_on_c, 12, 34, 0
21, 226536, Note_on_c, 12, 34, 24
21, 226560, Note_on_c, 12, 34, 0
21, 226560, Note_on_c, 12, 34, 21
21, 226584, Note_on_c, 12, 34, 0
21, 226584, Note_on_c, 12, 34, 21
21, 226608, Note_on_c, 12, 34, 0
21, 226608, Note_on_c, 12, 34, 20
21, 226632, Note_on_c, 12, 34, 0
21, 226632, Note_on_c, 12, 34, 21
21, 226656, Note_on_c, 12, 34, 0
21, 226656, Note_on_c, 12, 34, 21
21, 226680, Note_on_c, 12, 34, 0
21, 226680, Note_on_c, 12, 34, 21
21, 226704, Note_on_c, 12, 34, 0
21, 226704, Note_on_c, 12, 34, 21
21, 226728, Note_on_c, 12, 34, 0
21, 226728, Note_on_c, 12, 34, 21
21, 226752, Note_on_c, 12, 34, 0
21, 226752, Note_on_c, 12, 34, 20
21, 226776, Note_on_c, 12, 34, 0
21, 226776, Note_on_c, 12, 34, 21
21, 226800, Note_on_c, 12, 34, 0
21, 226800, Note_on_c, 12, 34, 21
21, 226824, Note_on_c, 12, 34, 0
21, 226824, Note_on_c, 12, 34, 21
21, 226848, Note_on_c, 12, 34, 0
21, 226848, Note_on_c, 12, 34, 21
21, 226872, Note_on_c, 12, 34, 0
21, 226872, Note_on_c, 12, 34, 21
21, 226896, Note_on_c, 12, 34, 0
21, 226896, Note_on_c, 12, 34, 21
21, 226920, Note_on_c, 12, 34, 0
21, 226920, Note_on_c, 12, 34, 21
21, 226944, Note_on_c, 12, 34, 0
21, 226944, Note_on_c, 12, 34, 21
21, 226968, Note_on_c, 12, 34, 0
21, 226968, Note_on_c, 12, 34, 21
21, 226992, Note_on_c, 12, 34, 0
21, 226992, Note_on_c, 12, 34, 21
21, 227016, Note_on_c, 12, 34, 0
21, 227016, Note_on_c, 12, 34, 21
21, 227040, Note_on_c, 12, 34, 0
21, 227040, Note_on_c, 12, 34, 21
21, 227064, Note_on_c, 12, 34, 0
21, 227064, Note_on_c, 12, 34, 21
21, 227088, Note_on_c, 12, 34, 0
21, 227088, Note_on_c, 12, 34, 21
21, 227112, Note_on_c, 12, 34, 0
21, 227112, Note_on_c, 12, 34, 23
21, 227136, Note_on_c, 12, 34, 0
21, 227136, Note_on_c, 12, 34, 23
21, 227160, Note_on_c, 12, 34, 0
21, 227160, Note_on_c, 12, 34, 21
21, 227184, Note_on_c, 12, 34, 0
21, 227184, Note_on_c, 12, 34, 22
21, 227208, Note_on_c, 12, 34, 0
21, 227208, Note_on_c, 12, 34, 22
21, 227232, Note_on_c, 12, 34, 0
21, 227232, Note_on_c, 12, 34, 22
21, 227256, Note_on_c, 12, 34, 0
21, 227256, Note_on_c, 12, 34, 22
21, 227280, Note_on_c, 12, 34, 0
21, 227280, Note_on_c, 12, 34, 24
21, 227304, Note_on_c, 12, 34, 0
21, 227304, Note_on_c, 12, 34, 24
21, 227328, Note_on_c, 12, 34, 0
21, 227328, Note_on_c, 12, 34, 21
21, 227352, Note_on_c, 12, 34, 0
21, 227352, Note_on_c, 12, 34, 21
21, 227376, Note_on_c, 12, 34, 0
21, 227376, Note_on_c, 12, 34, 20
21, 227400, Note_on_c, 12, 34, 0
21, 227400, Note_on_c, 12, 34, 21
21, 227424, Note_on_c, 12, 34, 0
21, 227424, Note_on_c, 12, 34, 21
21, 227448, Note_on_c, 12, 34, 0
21, 227448, Note_on_c, 12, 34, 21
21, 227472, Note_on_c, 12, 34, 0
21, 227472, Note_on_c, 12, 34, 21
21, 227496, Note_on_c, 12, 34, 0
21, 227496, Note_on_c, 12, 34, 21
21, 227520, Note_on_c, 12, 34, 0
21, 227520, Note_on_c, 12, 34, 20
21, 227544, Note_on_c, 12, 34, 0
21, 227544, Note_on_c, 12, 34, 21
21, 227568, Note_on_c, 12, 34, 0
21, 227568, Note_on_c, 12, 34, 21
21, 227592, Note_on_c, 12, 34, 0
21, 227592, Note_on_c, 12, 34, 21
21, 227616, Note_on_c, 12, 34, 0
21, 227616, Note_on_c, 12, 34, 21
21, 227640, Note_on_c, 12, 34, 0
21, 227640, Note_on_c, 12, 34, 21
21, 227664, Note_on_c, 12, 34, 0
21, 227664, Note_on_c, 12, 34, 21
21, 227688, Note_on_c, 12, 34, 0
21, 227688, Note_on_c, 12, 34, 21
21, 227712, Note_on_c, 12, 34, 0
21, 227712, Note_on_c, 12, 34, 21
21, 227736, Note_on_c, 12, 34, 0
21, 227736, Note_on_c, 12, 34, 21
21, 227760, Note_on_c, 12, 34, 0
21, 227760, Note_on_c, 12, 34, 21
21, 227784, Note_on_c, 12, 34, 0
21, 227784, Note_on_c, 12, 34, 21
21, 227808, Note_on_c, 12, 34, 0
21, 227808, Note_on_c, 12, 34, 21
21, 227832, Note_on_c, 12, 34, 0
21, 227832, Note_on_c, 12, 34, 21
21, 227856, Note_on_c, 12, 34, 0
21, 227856, Note_on_c, 12, 34, 21
21, 227880, Note_on_c, 12, 34, 0
21, 227880, Note_on_c, 12, 34, 23
21, 227904, Note_on_c, 12, 34, 0
21, 227904, Note_on_c, 12, 34, 23
21, 227928, Note_on_c, 12, 34, 0
21, 227928, Note_on_c, 12, 34, 21
21, 227952, Note_on_c, 12, 34, 0
21, 227952, Note_on_c, 12, 34, 22
21, 227976, Note_on_c, 12, 34, 0
21, 227976, Note_on_c, 12, 34, 22
21, 228000, Note_on_c, 12, 34, 0
21, 228000, Note_on_c, 12, 34, 22
21, 228024, Note_on_c, 12, 34, 0
21, 228024, Note_on_c, 12, 34, 22
21, 228048, Note_on_c, 12, 34, 0
21, 228048, Note_on_c, 12, 34, 24
21, 228072, Note_on_c, 12, 34, 0
21, 228072, Note_on_c, 12, 34, 24
21, 228096, Note_on_c, 12, 34, 0
21, 228096, Note_on_c, 12, 34, 21
21, 228120, Note_on_c, 12, 34, 0
21, 228120, Note_on_c, 12, 34, 21
21, 228144, Note_on_c, 12, 34, 0
21, 228144, Note_on_c, 12, 34, 20
21, 228168, Note_on_c, 12, 34, 0
21, 228168, Note_on_c, 12, 34, 21
21, 228192, Note_on_c, 12, 34, 0
21, 228192, Note_on_c, 12, 34, 21
21, 228216, Note_on_c, 12, 34, 0
21, 228216, Note_on_c, 12, 34, 21
21, 228240, Note_on_c, 12, 34, 0
21, 228240, Note_on_c, 12, 34, 21
21, 228264, Note_on_c, 12, 34, 0
21, 228264, Note_on_c, 12, 34, 21
21, 228288, Note_on_c, 12, 34, 0
21, 228288, Note_on_c, 12, 34, 20
21, 228312, Note_on_c, 12, 34, 0
21, 228312, Note_on_c, 12, 34, 21
21, 228336, Note_on_c, 12, 34, 0
21, 228336, Note_on_c, 12, 34, 21
21, 228360, Note_on_c, 12, 34, 0
21, 228360, Note_on_c, 12, 34, 21
21, 228384, Note_on_c, 12, 34, 0
21, 228384, Note_on_c, 12, 34, 21
21, 228408, Note_on_c, 12, 34, 0
21, 228408, Note_on_c, 12, 34, 21
21, 228432, Note_on_c, 12, 34, 0
21, 228432, Note_on_c, 12, 34, 21
21, 228456, Note_on_c, 12, 34, 0
21, 228456, Note_on_c, 12, 34, 21
21, 228480, Note_on_c, 12, 34, 0
21, 228480, Note_on_c, 12, 34, 21
21, 228504, Note_on_c, 12, 34, 0
21, 228504, Note_on_c, 12, 34, 21
21, 228528, Note_on_c, 12, 34, 0
21, 228528, Note_on_c, 12, 34, 21
21, 228552, Note_on_c, 12, 34, 0
21, 228552, Note_on_c, 12, 34, 21
21, 228576, Note_on_c, 12, 34, 0
21, 228576, Note_on_c, 12, 34, 21
21, 228600, Note_on_c, 12, 34, 0
21, 228600, Note_on_c, 12, 34, 21
21, 228624, Note_on_c, 12, 34, 0
21, 228624, Note_on_c, 12, 34, 21
21, 228648, Note_on_c, 12, 34, 0
21, 228648, Note_on_c, 12, 34, 23
21, 228672, Note_on_c, 12, 34, 0
21, 228672, Note_on_c, 12, 34, 23
21, 228696, Note_on_c, 12, 34, 0
21, 228696, Note_on_c, 12, 34, 21
21, 228720, Note_on_c, 12, 34, 0
21, 228720, Note_on_c, 12, 34, 22
21, 228744, Note_on_c, 12, 34, 0
21, 228744, Note_on_c, 12, 34, 22
21, 228768, Note_on_c, 12, 34, 0
21, 228768, Note_on_c, 12, 34, 22
21, 228792, Note_on_c, 12, 34, 0
21, 228792, Note_on_c, 12, 34, 22
21, 228816, Note_on_c, 12, 34, 0
21, 228816, Note_on_c, 12, 34, 24
21, 228840, Note_on_c, 12, 34, 0
21, 228840, Note_on_c, 12, 34, 24
21, 228864, Note_on_c, 12, 34, 0
21, 228864, Note_on_c, 12, 34, 21
21, 228888, Note_on_c, 12, 34, 0
21, 228888, Note_on_c, 12, 34, 21
21, 228912, Note_on_c, 12, 34, 0
21, 228912, Note_on_c, 12, 34, 20
21, 228936, Note_on_c, 12, 34, 0
21, 228936, Note_on_c, 12, 34, 21
21, 228960, Note_on_c, 12, 34, 0
21, 228960, Note_on_c, 12, 34, 21
21, 228984, Note_on_c, 12, 34, 0
21, 228984, Note_on_c, 12, 34, 21
21, 229008, Note_on_c, 12, 34, 0
21, 229008, Note_on_c, 12, 34, 21
21, 229032, Note_on_c, 12, 34, 0
21, 229032, Note_on_c, 12, 34, 21
21, 229056, Note_on_c, 12, 34, 0
21, 229056, Note_on_c, 12, 34, 20
21, 229080, Note_on_c, 12, 34, 0
21, 229080, Note_on_c, 12, 34, 21
21, 229104, Note_on_c, 12, 34, 0
21, 229104, Note_on_c, 12, 34, 21
21, 229128, Note_on_c, 12, 34, 0
21, 229128, Note_on_c, 12, 34, 21
21, 229152, Note_on_c, 12, 34, 0
21, 229152, Note_on_c, 12, 34, 21
21, 229176, Note_on_c, 12, 34, 0
21, 229176, Note_on_c, 12, 34, 21
21, 229200, Note_on_c, 12, 34, 0
21, 229200, Note_on_c, 12, 34, 21
21, 229224, Note_on_c, 12, 34, 0
21, 229224, Note_on_c, 12, 34, 21
21, 229248, Note_on_c, 12, 34, 0
21, 229248, Note_on_c, 12, 34, 21
21, 229272, Note_on_c, 12, 34, 0
21, 229272, Note_on_c, 12, 34, 21
21, 229296, Note_on_c, 12, 34, 0
21, 229296, Note_on_c, 12, 34, 21
21, 229320, Note_on_c, 12, 34, 0
21, 229320, Note_on_c, 12, 34, 21
21, 229344, Note_on_c, 12, 34, 0
21, 229344, Note_on_c, 12, 34, 21
21, 229368, Note_on_c, 12, 34, 0
21, 229368, Note_on_c, 12, 34, 21
21, 229392, Note_on_c, 12, 34, 0
21, 229392, Note_on_c, 12, 34, 21
21, 229416, Note_on_c, 12, 34, 0
21, 229416, Note_on_c, 12, 34, 23
21, 229440, Note_on_c, 12, 34, 0
21, 229440, Note_on_c, 12, 34, 23
21, 229464, Note_on_c, 12, 34, 0
21, 229464, Note_on_c, 12, 34, 21
21, 229488, Note_on_c, 12, 34, 0
21, 229488, Note_on_c, 12, 34, 22
21, 229512, Note_on_c, 12, 34, 0
21, 229512, Note_on_c, 12, 34, 22
21, 229536, Note_on_c, 12, 34, 0
21, 229536, Note_on_c, 12, 34, 22
21, 229560, Note_on_c, 12, 34, 0
21, 229560, Note_on_c, 12, 34, 22
21, 229584, Note_on_c, 12, 34, 0
21, 229584, Note_on_c, 12, 34, 24
21, 229608, Note_on_c, 12, 34, 0
21, 229608, Note_on_c, 12, 34, 24
21, 229632, Note_on_c, 12, 34, 0
21, 229632, Note_on_c, 12, 34, 21
21, 229656, Note_on_c, 12, 34, 0
21, 229656, Note_on_c, 12, 34, 21
21, 229680, Note_on_c, 12, 34, 0
21, 229680, Note_on_c, 12, 34, 20
21, 229704, Note_on_c, 12, 34, 0
21, 229704, Note_on_c, 12, 34, 21
21, 229728, Note_on_c, 12, 34, 0
21, 229728, Note_on_c, 12, 34, 21
21, 229752, Note_on_c, 12, 34, 0
21, 229752, Note_on_c, 12, 34, 21
21, 229776, Note_on_c, 12, 34, 0
21, 229776, Note_on_c, 12, 34, 21
21, 229800, Note_on_c, 12, 34, 0
21, 229800, Note_on_c, 12, 34, 21
21, 229824, Note_on_c, 12, 34, 0
21, 229824, Note_on_c, 12, 34, 20
21, 229848, Note_on_c, 12, 34, 0
21, 229848, Note_on_c, 12, 34, 21
21, 229872, Note_on_c, 12, 34, 0
21, 229872, Note_on_c, 12, 34, 21
21, 229896, Note_on_c, 12, 34, 0
21, 229896, Note_on_c, 12, 34, 21
21, 229920, Note_on_c, 12, 34, 0
21, 229920, Note_on_c, 12, 34, 21
21, 229944, Note_on_c, 12, 34, 0
21, 229944, Note_on_c, 12, 34, 21
21, 229968, Note_on_c, 12, 34, 0
21, 229968, Note_on_c, 12, 34, 21
21, 229992, Note_on_c, 12, 34, 0
21, 229992, Note_on_c, 12, 34, 21
21, 230016, Note_on_c, 12, 34, 0
21, 230016, Note_on_c, 12, 34, 21
21, 230040, Note_on_c, 12, 34, 0
21, 230040, Note_on_c, 12, 34, 21
21, 230064, Note_on_c, 12, 34, 0
21, 230064, Note_on_c, 12, 34, 21
21, 230088, Note_on_c, 12, 34, 0
21, 230088, Note_on_c, 12, 34, 21
21, 230112, Note_on_c, 12, 34, 0
21, 230112, Note_on_c, 12, 34, 21
21, 230136, Note_on_c, 12, 34, 0
21, 230136, Note_on_c, 12, 34, 21
21, 230160, Note_on_c, 12, 34, 0
21, 230160, Note_on_c, 12, 34, 21
21, 230184, Note_on_c, 12, 34, 0
21, 230184, Note_on_c, 12, 34, 23
21, 230208, Note_on_c, 12, 34, 0
21, 230208, Note_on_c, 12, 34, 23
21, 230232, Note_on_c, 12, 34, 0
21, 230232, Note_on_c, 12, 34, 21
21, 230256, Note_on_c, 12, 34, 0
21, 230256, Note_on_c, 12, 34, 22
21, 230280, Note_on_c, 12, 34, 0
21, 230280, Note_on_c, 12, 34, 22
21, 230304, Note_on_c, 12, 34, 0
21, 230304, Note_on_c, 12, 34, 22
21, 230328, Note_on_c, 12, 34, 0
21, 230328, Note_on_c, 12, 34, 22
21, 230352, Note_on_c, 12, 34, 0
21, 230352, Note_on_c, 12, 34, 24
21, 230376, Note_on_c, 12, 34, 0
21, 230376, Note_on_c, 12, 34, 24
21, 230400, Note_on_c, 12, 34, 0
21, 230400, Note_on_c, 12, 34, 21
21, 230424, Note_on_c, 12, 34, 0
21, 230424, Note_on_c, 12, 34, 21
21, 230448, Note_on_c, 12, 34, 0
21, 230448, Note_on_c, 12, 34, 20
21, 230472, Note_on_c, 12, 34, 0
21, 230472, Note_on_c, 12, 34, 21
21, 230496, Note_on_c, 12, 34, 0
21, 230496, Note_on_c, 12, 34, 21
21, 230520, Note_on_c, 12, 34, 0
21, 230520, Note_on_c, 12, 34, 21
21, 230544, Note_on_c, 12, 34, 0
21, 230544, Note_on_c, 12, 34, 21
21, 230568, Note_on_c, 12, 34, 0
21, 230568, Note_on_c, 12, 34, 21
21, 230592, Note_on_c, 12, 34, 0
21, 230592, Note_on_c, 12, 34, 20
21, 230616, Note_on_c, 12, 34, 0
21, 230616, Note_on_c, 12, 34, 21
21, 230640, Note_on_c, 12, 34, 0
21, 230640, Note_on_c, 12, 34, 21
21, 230664, Note_on_c, 12, 34, 0
21, 230664, Note_on_c, 12, 34, 21
21, 230688, Note_on_c, 12, 34, 0
21, 230688, Note_on_c, 12, 34, 21
21, 230712, Note_on_c, 12, 34, 0
21, 230712, Note_on_c, 12, 34, 21
21, 230736, Note_on_c, 12, 34, 0
21, 230736, Note_on_c, 12, 34, 21
21, 230760, Note_on_c, 12, 34, 0
21, 230760, Note_on_c, 12, 34, 21
21, 230784, Note_on_c, 12, 34, 0
21, 230784, Note_on_c, 12, 34, 21
21, 230808, Note_on_c, 12, 34, 0
21, 230808, Note_on_c, 12, 34, 21
21, 230832, Note_on_c, 12, 34, 0
21, 230832, Note_on_c, 12, 34, 21
21, 230856, Note_on_c, 12, 34, 0
21, 230856, Note_on_c, 12, 34, 21
21, 230880, Note_on_c, 12, 34, 0
21, 230880, Note_on_c, 12, 34, 21
21, 230904, Note_on_c, 12, 34, 0
21, 230904, Note_on_c, 12, 34, 21
21, 230928, Note_on_c, 12, 34, 0
21, 230928, Note_on_c, 12, 34, 21
21, 230952, Note_on_c, 12, 34, 0
21, 230952, Note_on_c, 12, 34, 23
21, 230976, Note_on_c, 12, 34, 0
21, 230976, Note_on_c, 12, 34, 23
21, 231000, Note_on_c, 12, 34, 0
21, 231000, Note_on_c, 12, 34, 21
21, 231024, Note_on_c, 12, 34, 0
21, 231024, Note_on_c, 12, 34, 22
21, 231048, Note_on_c, 12, 34, 0
21, 231048, Note_on_c, 12, 34, 22
21, 231072, Note_on_c, 12, 34, 0
21, 231072, Note_on_c, 12, 34, 22
21, 231096, Note_on_c, 12, 34, 0
21, 231096, Note_on_c, 12, 34, 22
21, 231120, Note_on_c, 12, 34, 0
21, 231120, Note_on_c, 12, 34, 24
21, 231144, Note_on_c, 12, 34, 0
21, 231144, Note_on_c, 12, 34, 24
21, 231168, Note_on_c, 12, 34, 0
21, 231168, Note_on_c, 12, 34, 21
21, 231192, Note_on_c, 12, 34, 0
21, 231192, Note_on_c, 12, 34, 21
21, 231216, Note_on_c, 12, 34, 0
21, 231216, Note_on_c, 12, 34, 20
21, 231240, Note_on_c, 12, 34, 0
21, 231240, Note_on_c, 12, 34, 21
21, 231264, Note_on_c, 12, 34, 0
21, 231264, Note_on_c, 12, 34, 21
21, 231288, Note_on_c, 12, 34, 0
21, 231288, Note_on_c, 12, 34, 21
21, 231312, Note_on_c, 12, 34, 0
21, 231312, Note_on_c, 12, 34, 21
21, 231336, Note_on_c, 12, 34, 0
21, 231336, Note_on_c, 12, 34, 21
21, 231360, Note_on_c, 12, 34, 0
21, 231360, Note_on_c, 12, 34, 20
21, 231384, Note_on_c, 12, 34, 0
21, 231384, Note_on_c, 12, 34, 21
21, 231408, Note_on_c, 12, 34, 0
21, 231408, Note_on_c, 12, 34, 21
21, 231432, Note_on_c, 12, 34, 0
21, 231432, Note_on_c, 12, 34, 21
21, 231456, Note_on_c, 12, 34, 0
21, 231456, Note_on_c, 12, 34, 21
21, 231480, Note_on_c, 12, 34, 0
21, 231480, Note_on_c, 12, 34, 21
21, 231504, Note_on_c, 12, 34, 0
21, 231504, Note_on_c, 12, 34, 21
21, 231528, Note_on_c, 12, 34, 0
21, 231528, Note_on_c, 12, 34, 21
21, 231552, Note_on_c, 12, 34, 0
21, 231552, Note_on_c, 12, 34, 21
21, 231576, Note_on_c, 12, 34, 0
21, 231576, Note_on_c, 12, 34, 21
21, 231600, Note_on_c, 12, 34, 0
21, 231600, Note_on_c, 12, 34, 21
21, 231624, Note_on_c, 12, 34, 0
21, 231624, Note_on_c, 12, 34, 21
21, 231648, Note_on_c, 12, 34, 0
21, 231648, Note_on_c, 12, 34, 21
21, 231672, Note_on_c, 12, 34, 0
21, 231672, Note_on_c, 12, 34, 21
21, 231696, Note_on_c, 12, 34, 0
21, 231696, Note_on_c, 12, 34, 21
21, 231720, Note_on_c, 12, 34, 0
21, 231720, Note_on_c, 12, 34, 23
21, 231744, Note_on_c, 12, 34, 0
21, 231744, Note_on_c, 12, 34, 23
21, 231768, Note_on_c, 12, 34, 0
21, 231768, Note_on_c, 12, 34, 21
21, 231792, Note_on_c, 12, 34, 0
21, 231792, Note_on_c, 12, 34, 22
21, 231816, Note_on_c, 12, 34, 0
21, 231816, Note_on_c, 12, 34, 22
21, 231840, Note_on_c, 12, 34, 0
21, 231840, Note_on_c, 12, 34, 22
21, 231864, Note_on_c, 12, 34, 0
21, 231864, Note_on_c, 12, 34, 22
21, 231888, Note_on_c, 12, 34, 0
21, 231888, Note_on_c, 12, 34, 24
21, 231912, Note_on_c, 12, 34, 0
21, 231912, Note_on_c, 12, 34, 24
21, 231936, Note_on_c, 12, 34, 0
21, 231936, Note_on_c, 12, 34, 21
21, 231960, Note_on_c, 12, 34, 0
21, 231960, Note_on_c, 12, 34, 21
21, 231984, Note_on_c, 12, 34, 0
21, 231984, Note_on_c, 12, 34, 20
21, 232008, Note_on_c, 12, 34, 0
21, 232008, Note_on_c, 12, 34, 21
21, 232032, Note_on_c, 12, 34, 0
21, 232032, Note_on_c, 12, 34, 21
21, 232056, Note_on_c, 12, 34, 0
21, 232056, Note_on_c, 12, 34, 21
21, 232080, Note_on_c, 12, 34, 0
21, 232080, Note_on_c, 12, 34, 21
21, 232104, Note_on_c, 12, 34, 0
21, 232104, Note_on_c, 12, 34, 21
21, 232128, Note_on_c, 12, 34, 0
21, 232128, Note_on_c, 12, 34, 20
21, 232152, Note_on_c, 12, 34, 0
21, 232152, Note_on_c, 12, 34, 21
21, 232176, Note_on_c, 12, 34, 0
21, 232176, Note_on_c, 12, 34, 21
21, 232200, Note_on_c, 12, 34, 0
21, 232200, Note_on_c, 12, 34, 21
21, 232224, Note_on_c, 12, 34, 0
21, 232224, Note_on_c, 12, 34, 21
21, 232248, Note_on_c, 12, 34, 0
21, 232248, Note_on_c, 12, 34, 21
21, 232272, Note_on_c, 12, 34, 0
21, 232272, Note_on_c, 12, 34, 21
21, 232296, Note_on_c, 12, 34, 0
21, 232296, Note_on_c, 12, 34, 21
21, 232320, Note_on_c, 12, 34, 0
21, 232320, Note_on_c, 12, 34, 21
21, 232344, Note_on_c, 12, 34, 0
21, 232344, Note_on_c, 12, 34, 21
21, 232368, Note_on_c, 12, 34, 0
21, 232368, Note_on_c, 12, 34, 21
21, 232392, Note_on_c, 12, 34, 0
21, 232392, Note_on_c, 12, 34, 21
21, 232416, Note_on_c, 12, 34, 0
21, 232416, Note_on_c, 12, 34, 21
21, 232440, Note_on_c, 12, 34, 0
21, 232440, Note_on_c, 12, 34, 21
21, 232464, Note_on_c, 12, 34, 0
21, 232464, Note_on_c, 12, 34, 21
21, 232488, Note_on_c, 12, 34, 0
21, 232488, Note_on_c, 12, 34, 23
21, 232512, Note_on_c, 12, 34, 0
21, 232512, Note_on_c, 12, 34, 23
21, 232536, Note_on_c, 12, 34, 0
21, 232536, Note_on_c, 12, 34, 21
21, 232560, Note_on_c, 12, 34, 0
21, 232560, Note_on_c, 12, 34, 22
21, 232584, Note_on_c, 12, 34, 0
21, 232584, Note_on_c, 12, 34, 22
21, 232608, Note_on_c, 12, 34, 0
21, 232608, Note_on_c, 12, 34, 22
21, 232632, Note_on_c, 12, 34, 0
21, 232632, Note_on_c, 12, 34, 22
21, 232656, Note_on_c, 12, 34, 0
21, 232656, Note_on_c, 12, 34, 24
21, 232680, Note_on_c, 12, 34, 0
21, 232680, Note_on_c, 12, 34, 24
21, 232704, Note_on_c, 12, 34, 0
21, 232704, Note_on_c, 12, 34, 30
21, 232728, Note_on_c, 12, 34, 0
21, 232728, Note_on_c, 12, 34, 30
21, 232752, Note_on_c, 12, 34, 0
21, 232752, Note_on_c, 12, 34, 29
21, 232776, Note_on_c, 12, 34, 0
21, 232776, Note_on_c, 12, 34, 30
21, 232800, Note_on_c, 12, 34, 0
21, 232800, Note_on_c, 12, 34, 30
21, 232824, Note_on_c, 12, 34, 0
21, 232824, Note_on_c, 12, 34, 30
21, 232848, Note_on_c, 12, 34, 0
21, 232848, Note_on_c, 12, 34, 30
21, 232872, Note_on_c, 12, 34, 0
21, 232872, Note_on_c, 12, 34, 30
21, 232896, Note_on_c, 12, 34, 0
21, 232896, Note_on_c, 12, 34, 29
21, 232920, Note_on_c, 12, 34, 0
21, 232920, Note_on_c, 12, 34, 30
21, 232944, Note_on_c, 12, 34, 0
21, 232944, Note_on_c, 12, 34, 30
21, 232968, Note_on_c, 12, 34, 0
21, 232968, Note_on_c, 12, 34, 30
21, 232992, Note_on_c, 12, 34, 0
21, 232992, Note_on_c, 12, 34, 30
21, 233016, Note_on_c, 12, 34, 0
21, 233016, Note_on_c, 12, 34, 30
21, 233040, Note_on_c, 12, 34, 0
21, 233040, Note_on_c, 12, 34, 30
21, 233064, Note_on_c, 12, 34, 0
21, 233064, Note_on_c, 12, 34, 30
21, 233088, Note_on_c, 12, 34, 0
21, 233088, Note_on_c, 12, 34, 30
21, 233112, Note_on_c, 12, 34, 0
21, 233112, Note_on_c, 12, 34, 30
21, 233136, Note_on_c, 12, 34, 0
21, 233136, Note_on_c, 12, 34, 30
21, 233160, Note_on_c, 12, 34, 0
21, 233160, Note_on_c, 12, 34, 30
21, 233184, Note_on_c, 12, 34, 0
21, 233184, Note_on_c, 12, 34, 30
21, 233208, Note_on_c, 12, 34, 0
21, 233208, Note_on_c, 12, 34, 30
21, 233232, Note_on_c, 12, 34, 0
21, 233232, Note_on_c, 12, 34, 30
21, 233256, Note_on_c, 12, 34, 0
21, 233256, Note_on_c, 12, 34, 32
21, 233280, Note_on_c, 12, 34, 0
21, 233280, Note_on_c, 12, 34, 32
21, 233304, Note_on_c, 12, 34, 0
21, 233304, Note_on_c, 12, 34, 30
21, 233328, Note_on_c, 12, 34, 0
21, 233328, Note_on_c, 12, 34, 31
21, 233352, Note_on_c, 12, 34, 0
21, 233352, Note_on_c, 12, 34, 31
21, 233376, Note_on_c, 12, 34, 0
21, 233376, Note_on_c, 12, 34, 31
21, 233400, Note_on_c, 12, 34, 0
21, 233400, Note_on_c, 12, 34, 31
21, 233424, Note_on_c, 12, 34, 0
21, 233424, Note_on_c, 12, 34, 33
21, 233448, Note_on_c, 12, 34, 0
21, 233448, Note_on_c, 12, 34, 33
21, 233472, Note_on_c, 12, 34, 0
21, 233472, Note_on_c, 12, 34, 39
21, 233496, Note_on_c, 12, 34, 0
21, 233496, Note_on_c, 12, 34, 39
21, 233520, Note_on_c, 12, 34, 0
21, 233520, Note_on_c, 12, 34, 38
21, 233544, Note_on_c, 12, 34, 0
21, 233544, Note_on_c, 12, 34, 40
21, 233568, Note_on_c, 12, 34, 0
21, 233568, Note_on_c, 12, 34, 40
21, 233592, Note_on_c, 12, 34, 0
21, 233592, Note_on_c, 12, 34, 40
21, 233616, Note_on_c, 12, 34, 0
21, 233616, Note_on_c, 12, 34, 39
21, 233640, Note_on_c, 12, 34, 0
21, 233640, Note_on_c, 12, 34, 40
21, 233664, Note_on_c, 12, 34, 0
21, 233664, Note_on_c, 12, 34, 38
21, 233688, Note_on_c, 12, 34, 0
21, 233688, Note_on_c, 12, 34, 39
21, 233712, Note_on_c, 12, 34, 0
21, 233712, Note_on_c, 12, 34, 40
21, 233736, Note_on_c, 12, 34, 0
21, 233736, Note_on_c, 12, 34, 40
21, 233760, Note_on_c, 12, 34, 0
21, 233760, Note_on_c, 12, 34, 39
21, 233784, Note_on_c, 12, 34, 0
21, 233784, Note_on_c, 12, 34, 40
21, 233808, Note_on_c, 12, 34, 0
21, 233808, Note_on_c, 12, 34, 39
21, 233832, Note_on_c, 12, 34, 0
21, 233832, Note_on_c, 12, 34, 40
21, 233856, Note_on_c, 12, 34, 0
21, 233856, Note_on_c, 12, 34, 39
21, 233880, Note_on_c, 12, 34, 0
21, 233880, Note_on_c, 12, 34, 40
21, 233904, Note_on_c, 12, 34, 0
21, 233904, Note_on_c, 12, 34, 39
21, 233928, Note_on_c, 12, 34, 0
21, 233928, Note_on_c, 12, 34, 40
21, 233952, Note_on_c, 12, 34, 0
21, 233952, Note_on_c, 12, 34, 40
21, 233976, Note_on_c, 12, 34, 0
21, 233976, Note_on_c, 12, 34, 39
21, 234000, Note_on_c, 12, 34, 0
21, 234000, Note_on_c, 12, 34, 40
21, 234024, Note_on_c, 12, 34, 0
21, 234024, Note_on_c, 12, 34, 41
21, 234048, Note_on_c, 12, 34, 0
21, 234048, Note_on_c, 12, 34, 41
21, 234072, Note_on_c, 12, 34, 0
21, 234072, Note_on_c, 12, 34, 40
21, 234096, Note_on_c, 12, 34, 0
21, 234096, Note_on_c, 12, 34, 40
21, 234120, Note_on_c, 12, 34, 0
21, 234120, Note_on_c, 12, 34, 40
21, 234144, Note_on_c, 12, 34, 0
21, 234144, Note_on_c, 12, 34, 40
21, 234168, Note_on_c, 12, 34, 0
21, 234168, Note_on_c, 12, 34, 40
21, 234192, Note_on_c, 12, 34, 0
21, 234192, Note_on_c, 12, 34, 42
21, 234216, Note_on_c, 12, 34, 0
21, 234216, Note_on_c, 12, 34, 43
21, 234240, Note_on_c, 12, 34, 0
21, 234240, Note_on_c, 12, 34, 49
21, 234264, Note_on_c, 12, 34, 0
21, 234264, Note_on_c, 12, 34, 49
21, 234288, Note_on_c, 12, 34, 0
21, 234288, Note_on_c, 12, 34, 48
21, 234312, Note_on_c, 12, 34, 0
21, 234312, Note_on_c, 12, 34, 49
21, 234336, Note_on_c, 12, 34, 0
21, 234336, Note_on_c, 12, 34, 49
21, 234360, Note_on_c, 12, 34, 0
21, 234360, Note_on_c, 12, 34, 49
21, 234384, Note_on_c, 12, 34, 0
21, 234384, Note_on_c, 12, 34, 49
21, 234408, Note_on_c, 12, 34, 0
21, 234408, Note_on_c, 12, 34, 49
21, 234432, Note_on_c, 12, 34, 0
21, 234432, Note_on_c, 12, 34, 48
21, 234456, Note_on_c, 12, 34, 0
21, 234456, Note_on_c, 12, 34, 49
21, 234480, Note_on_c, 12, 34, 0
21, 234480, Note_on_c, 12, 34, 49
21, 234504, Note_on_c, 12, 34, 0
21, 234504, Note_on_c, 12, 34, 49
21, 234528, Note_on_c, 12, 34, 0
21, 234528, Note_on_c, 12, 34, 49
21, 234552, Note_on_c, 12, 34, 0
21, 234552, Note_on_c, 12, 34, 49
21, 234576, Note_on_c, 12, 34, 0
21, 234576, Note_on_c, 12, 34, 49
21, 234600, Note_on_c, 12, 34, 0
21, 234600, Note_on_c, 12, 34, 49
21, 234624, Note_on_c, 12, 34, 0
21, 234624, Note_on_c, 12, 34, 49
21, 234648, Note_on_c, 12, 34, 0
21, 234648, Note_on_c, 12, 34, 49
21, 234672, Note_on_c, 12, 34, 0
21, 234672, Note_on_c, 12, 34, 49
21, 234696, Note_on_c, 12, 34, 0
21, 234696, Note_on_c, 12, 34, 49
21, 234720, Note_on_c, 12, 34, 0
21, 234720, Note_on_c, 12, 34, 49
21, 234744, Note_on_c, 12, 34, 0
21, 234744, Note_on_c, 12, 34, 49
21, 234768, Note_on_c, 12, 34, 0
21, 234768, Note_on_c, 12, 34, 49
21, 234792, Note_on_c, 12, 34, 0
21, 234792, Note_on_c, 12, 34, 51
21, 234816, Note_on_c, 12, 34, 0
21, 234816, Note_on_c, 12, 34, 51
21, 234840, Note_on_c, 12, 34, 0
21, 234840, Note_on_c, 12, 34, 49
21, 234864, Note_on_c, 12, 34, 0
21, 234864, Note_on_c, 12, 34, 50
21, 234888, Note_on_c, 12, 34, 0
21, 234888, Note_on_c, 12, 34, 50
21, 234912, Note_on_c, 12, 34, 0
21, 234912, Note_on_c, 12, 34, 50
21, 234936, Note_on_c, 12, 34, 0
21, 234936, Note_on_c, 12, 34, 50
21, 234960, Note_on_c, 12, 34, 0
21, 234960, Note_on_c, 12, 34, 52
21, 234984, Note_on_c, 12, 34, 0
21, 234984, Note_on_c, 12, 34, 52
21, 235008, Note_on_c, 12, 34, 0
21, 235008, Note_on_c, 12, 34, 59
21, 235032, Note_on_c, 12, 34, 0
21, 235032, Note_on_c, 12, 34, 59
21, 235056, Note_on_c, 12, 34, 0
21, 235056, Note_on_c, 12, 34, 58
21, 235080, Note_on_c, 12, 34, 0
21, 235080, Note_on_c, 12, 34, 59
21, 235104, Note_on_c, 12, 34, 0
21, 235104, Note_on_c, 12, 34, 59
21, 235128, Note_on_c, 12, 34, 0
21, 235128, Note_on_c, 12, 34, 59
21, 235152, Note_on_c, 12, 34, 0
21, 235152, Note_on_c, 12, 34, 59
21, 235176, Note_on_c, 12, 34, 0
21, 235176, Note_on_c, 12, 34, 59
21, 235200, Note_on_c, 12, 34, 0
21, 235200, Note_on_c, 12, 34, 58
21, 235224, Note_on_c, 12, 34, 0
21, 235224, Note_on_c, 12, 34, 59
21, 235248, Note_on_c, 12, 34, 0
21, 235248, Note_on_c, 12, 34, 59
21, 235272, Note_on_c, 12, 34, 0
21, 235272, Note_on_c, 12, 34, 59
21, 235296, Note_on_c, 12, 34, 0
21, 235296, Note_on_c, 12, 34, 59
21, 235320, Note_on_c, 12, 34, 0
21, 235320, Note_on_c, 12, 34, 59
21, 235344, Note_on_c, 12, 34, 0
21, 235344, Note_on_c, 12, 34, 59
21, 235368, Note_on_c, 12, 34, 0
21, 235368, Note_on_c, 12, 34, 59
21, 235392, Note_on_c, 12, 34, 0
21, 235392, Note_on_c, 12, 34, 59
21, 235416, Note_on_c, 12, 34, 0
21, 235416, Note_on_c, 12, 34, 59
21, 235440, Note_on_c, 12, 34, 0
21, 235440, Note_on_c, 12, 34, 59
21, 235464, Note_on_c, 12, 34, 0
21, 235464, Note_on_c, 12, 34, 59
21, 235488, Note_on_c, 12, 34, 0
21, 235488, Note_on_c, 12, 34, 59
21, 235512, Note_on_c, 12, 34, 0
21, 235512, Note_on_c, 12, 34, 59
21, 235536, Note_on_c, 12, 34, 0
21, 235536, Note_on_c, 12, 34, 59
21, 235560, Note_on_c, 12, 34, 0
21, 235560, Note_on_c, 12, 34, 61
21, 235584, Note_on_c, 12, 34, 0
21, 235584, Note_on_c, 12, 34, 61
21, 235608, Note_on_c, 12, 34, 0
21, 235608, Note_on_c, 12, 34, 59
21, 235632, Note_on_c, 12, 34, 0
21, 235632, Note_on_c, 12, 34, 60
21, 235656, Note_on_c, 12, 34, 0
21, 235656, Note_on_c, 12, 34, 60
21, 235680, Note_on_c, 12, 34, 0
21, 235680, Note_on_c, 12, 34, 60
21, 235704, Note_on_c, 12, 34, 0
21, 235704, Note_on_c, 12, 34, 60
21, 235728, Note_on_c, 12, 34, 0
21, 235728, Note_on_c, 12, 34, 62
21, 235752, Note_on_c, 12, 34, 0
21, 235752, Note_on_c, 12, 34, 62
21, 235776, Note_on_c, 12, 34, 0
21, 235776, Note_on_c, 12, 34, 68
21, 235800, Note_on_c, 12, 34, 0
21, 235800, Note_on_c, 12, 34, 68
21, 235824, Note_on_c, 12, 34, 0
21, 235824, Note_on_c, 12, 34, 68
21, 235848, Note_on_c, 12, 34, 0
21, 235848, Note_on_c, 12, 34, 69
21, 235872, Note_on_c, 12, 34, 0
21, 235872, Note_on_c, 12, 34, 69
21, 235896, Note_on_c, 12, 34, 0
21, 235896, Note_on_c, 12, 34, 69
21, 235920, Note_on_c, 12, 34, 0
21, 235920, Note_on_c, 12, 34, 68
21, 235944, Note_on_c, 12, 34, 0
21, 235944, Note_on_c, 12, 34, 69
21, 235968, Note_on_c, 12, 34, 0
21, 235968, Note_on_c, 12, 34, 68
21, 235992, Note_on_c, 12, 34, 0
21, 235992, Note_on_c, 12, 34, 68
21, 236016, Note_on_c, 12, 34, 0
21, 236016, Note_on_c, 12, 34, 69
21, 236040, Note_on_c, 12, 34, 0
21, 236040, Note_on_c, 12, 34, 69
21, 236064, Note_on_c, 12, 34, 0
21, 236064, Note_on_c, 12, 34, 68
21, 236088, Note_on_c, 12, 34, 0
21, 236088, Note_on_c, 12, 34, 69
21, 236112, Note_on_c, 12, 34, 0
21, 236112, Note_on_c, 12, 34, 68
21, 236136, Note_on_c, 12, 34, 0
21, 236136, Note_on_c, 12, 34, 69
21, 236160, Note_on_c, 12, 34, 0
21, 236160, Note_on_c, 12, 34, 68
21, 236184, Note_on_c, 12, 34, 0
21, 236184, Note_on_c, 12, 34, 69
21, 236208, Note_on_c, 12, 34, 0
21, 236208, Note_on_c, 12, 34, 68
21, 236232, Note_on_c, 12, 34, 0
21, 236232, Note_on_c, 12, 34, 69
21, 236256, Note_on_c, 12, 34, 0
21, 236256, Note_on_c, 12, 34, 69
21, 236280, Note_on_c, 12, 34, 0
21, 236280, Note_on_c, 12, 34, 68
21, 236304, Note_on_c, 12, 34, 0
21, 236304, Note_on_c, 12, 34, 69
21, 236328, Note_on_c, 12, 34, 0
21, 236328, Note_on_c, 12, 34, 71
21, 236352, Note_on_c, 12, 34, 0
21, 236352, Note_on_c, 12, 34, 71
21, 236376, Note_on_c, 12, 34, 0
21, 236376, Note_on_c, 12, 34, 69
21, 236400, Note_on_c, 12, 34, 0
21, 236400, Note_on_c, 12, 34, 70
21, 236424, Note_on_c, 12, 34, 0
21, 236424, Note_on_c, 12, 34, 70
21, 236448, Note_on_c, 12, 34, 0
21, 236448, Note_on_c, 12, 34, 70
21, 236472, Note_on_c, 12, 34, 0
21, 236472, Note_on_c, 12, 34, 70
21, 236496, Note_on_c, 12, 34, 0
21, 236496, Note_on_c, 12, 34, 71
21, 236520, Note_on_c, 12, 34, 0
21, 236520, Note_on_c, 12, 34, 72
21, 236544, Note_on_c, 12, 34, 0
21, 239808, Note_on_c, 12, 34, 91
21, 240000, Note_on_c, 12, 34, 0
21, 240000, Note_on_c, 12, 34, 91
21, 240192, Note_on_c, 12, 34, 0
21, 240192, Note_on_c, 12, 34, 91
21, 240384, Note_on_c, 12, 34, 0
21, 240384, Note_on_c, 12, 34, 91
21, 240576, Note_on_c, 12, 34, 0
21, 240576, Note_on_c, 12, 34, 97
21, 240768, Note_on_c, 12, 34, 0
21, 240768, Note_on_c, 12, 34, 97
21, 240960, Note_on_c, 12, 34, 0
21, 240960, Note_on_c, 12, 34, 97
21, 241152, Note_on_c, 12, 34, 0
21, 241152, Note_on_c, 12, 34, 97
21, 241344, Note_on_c, 12, 34, 0
21, 241344, Note_on_c, 12, 34, 97
21, 241536, Note_on_c, 12, 34, 0
21, 241536, Note_on_c, 12, 34, 94
21, 241728, Note_on_c, 12, 34, 0
21, 241728, Note_on_c, 12, 34, 94
21, 241920, Note_on_c, 12, 34, 0
21, 241920, Note_on_c, 12, 34, 94
21, 242112, Note_on_c, 12, 34, 0
21, 242112, Note_on_c, 12, 34, 94
21, 242304, Note_on_c, 12, 34, 0
21, 242304, Note_on_c, 12, 34, 83
21, 242688, Note_on_c, 12, 34, 0
21, 257856, Note_on_c, 12, 39, 91
21, 257952, Note_on_c, 12, 39, 0
21, 257952, Note_on_c, 12, 39, 91
21, 258048, Note_on_c, 12, 39, 0
21, 258048, Note_on_c, 12, 34, 91
21, 258240, Note_on_c, 12, 34, 0
21, 258240, Note_on_c, 12, 39, 91
21, 258432, Note_on_c, 12, 39, 0
21, 258432, Note_on_c, 12, 39, 91
21, 258528, Note_on_c, 12, 39, 0
21, 258528, Note_on_c, 12, 39, 91
21, 258624, Note_on_c, 12, 39, 0
21, 258624, Note_on_c, 12, 34, 94
21, 258720, Note_on_c, 12, 34, 0
21, 258720, Note_on_c, 12, 39, 94
21, 258816, Note_on_c, 12, 39, 0
21, 258816, Note_on_c, 12, 39, 91
21, 258864, Note_on_c, 12, 39, 0
21, 258912, Note_on_c, 12, 39, 91
21, 258960, Note_on_c, 12, 39, 0
21, 259008, Note_on_c, 12, 39, 91
21, 259056, Note_on_c, 12, 39, 0
21, 259200, Note_on_c, 12, 39, 91
21, 259296, Note_on_c, 12, 39, 0
21, 260352, Note_on_c, 12, 39, 95
21, 260448, Note_on_c, 12, 39, 0
21, 260448, Note_on_c, 12, 39, 95
21, 260544, Note_on_c, 12, 39, 0
21, 260544, Note_on_c, 12, 39, 95
21, 260640, Note_on_c, 12, 39, 0
21, 260640, Note_on_c, 12, 39, 95
21, 260736, Note_on_c, 12, 39, 0
21, 260736, Note_on_c, 12, 39, 78
21, 260784, Note_on_c, 12, 39, 0
21, 260928, Note_on_c, 12, 39, 95
21, 261024, Note_on_c, 12, 39, 0
21, 261120, Note_on_c, 12, 39, 95
21, 261312, Note_on_c, 12, 39, 0
21, 261312, Note_on_c, 12, 39, 95
21, 261504, Note_on_c, 12, 39, 0
21, 261504, Note_on_c, 12, 34, 65
21, 261600, Note_on_c, 12, 34, 0
21, 261792, Note_on_c, 12, 34, 95
21, 261888, Note_on_c, 12, 34, 0
21, 261888, Note_on_c, 12, 34, 95
21, 261984, Note_on_c, 12, 34, 0
21, 261984, Note_on_c, 12, 34, 95
21, 262080, Note_on_c, 12, 34, 0
21, 262080, Note_on_c, 12, 39, 95
21, 262368, Note_on_c, 12, 39, 0
21, 263616, Note_on_c, 12, 39, 95
21, 263808, Note_on_c, 12, 39, 0
21, 263808, Note_on_c, 12, 34, 95
21, 264000, Note_on_c, 12, 34, 0
21, 264000, Note_on_c, 12, 39, 95
21, 264192, Note_on_c, 12, 39, 0
21, 264192, Note_on_c, 12, 39, 95
21, 264384, Note_on_c, 12, 39, 0
21, 264384, Note_on_c, 12, 34, 97
21, 264480, Note_on_c, 12, 34, 0
21, 264480, Note_on_c, 12, 39, 97
21, 264576, Note_on_c, 12, 39, 0
21, 264576, Note_on_c, 12, 39, 97
21, 264672, Note_on_c, 12, 39, 0
21, 264672, Note_on_c, 12, 39, 97
21, 264768, Note_on_c, 12, 39, 0
21, 264768, Note_on_c, 12, 39, 97
21, 264864, Note_on_c, 12, 39, 0
21, 264864, Note_on_c, 12, 39, 97
21, 264960, Note_on_c, 12, 39, 0
21, 264960, Note_on_c, 12, 39, 97
21, 265056, Note_on_c, 12, 39, 0
21, 265056, Note_on_c, 12, 39, 97
21, 265152, Note_on_c, 12, 39, 0
21, 265152, Note_on_c, 12, 39, 97
21, 265248, Note_on_c, 12, 39, 0
21, 265248, Note_on_c, 12, 39, 97
21, 265344, Note_on_c, 12, 39, 0
21, 265344, Note_on_c, 12, 39, 97
21, 265440, Note_on_c, 12, 39, 0
21, 265440, Note_on_c, 12, 39, 97
21, 265536, Note_on_c, 12, 39, 0
21, 265536, Note_on_c, 12, 39, 97
21, 265632, Note_on_c, 12, 39, 0
21, 265632, Note_on_c, 12, 39, 97
21, 265728, Note_on_c, 12, 39, 0
21, 265728, Note_on_c, 12, 39, 97
21, 265824, Note_on_c, 12, 39, 0
21, 265824, Note_on_c, 12, 39, 97
21, 265920, Note_on_c, 12, 39, 0
21, 265920, Note_on_c, 12, 39, 97
21, 265968, Note_on_c, 12, 39, 0
21, 267264, Note_on_c, 12, 39, 87
21, 267360, Note_on_c, 12, 39, 0
21, 267360, Note_on_c, 12, 39, 70
21, 267456, Note_on_c, 12, 39, 0
21, 267456, Note_on_c, 12, 39, 69
21, 267552, Note_on_c, 12, 39, 0
21, 267552, Note_on_c, 12, 39, 65
21, 267648, Note_on_c, 12, 39, 0
21, 267648, Note_on_c, 12, 39, 79
21, 267696, Note_on_c, 12, 39, 0
21, 268032, Note_on_c, 12, 39, 95
21, 268224, Note_on_c, 12, 39, 0
21, 268224, Note_on_c, 12, 39, 97
21, 268416, Note_on_c, 12, 39, 0
21, 268416, Note_on_c, 12, 39, 97
21, 268464, Note_on_c, 12, 39, 0
21, 268608, Note_on_c, 12, 39, 97
21, 268656, Note_on_c, 12, 39, 0
21, 268800, Note_on_c, 12, 39, 97
21, 268848, Note_on_c, 12, 39, 0
21, 268992, Note_on_c, 12, 34, 97
21, 269040, Note_on_c, 12, 34, 0
21, 269184, Note_on_c, 12, 34, 95
21, 269280, Note_on_c, 12, 34, 0
21, 269280, Note_on_c, 12, 34, 97
21, 269312, Note_on_c, 12, 34, 0
21, 269312, Note_on_c, 12, 34, 97
21, 269344, Note_on_c, 12, 34, 0
21, 269344, Note_on_c, 12, 34, 97
21, 269376, Note_on_c, 12, 34, 0
21, 269376, Note_on_c, 12, 34, 97
21, 269472, Note_on_c, 12, 34, 0
21, 269472, Note_on_c, 12, 34, 97
21, 269568, Note_on_c, 12, 34, 0
21, 269568, Note_on_c, 12, 34, 97
21, 269664, Note_on_c, 12, 34, 0
21, 269856, Note_on_c, 12, 34, 95
21, 269952, Note_on_c, 12, 34, 0
21, 269952, Note_on_c, 12, 34, 95
21, 270048, Note_on_c, 12, 34, 0
21, 270048, Note_on_c, 12, 34, 95
21, 270144, Note_on_c, 12, 34, 0
21, 270144, Note_on_c, 12, 39, 97
21, 270240, Note_on_c, 12, 39, 0
21, 270336, Note_on_c, 12, 34, 97
21, 270432, Note_on_c, 12, 34, 0
21, 270528, Note_on_c, 12, 39, 97
21, 270624, Note_on_c, 12, 39, 0
21, 270720, Note_on_c, 12, 34, 97
21, 270816, Note_on_c, 12, 34, 0
21, 270912, Note_on_c, 12, 39, 97
21, 271008, Note_on_c, 12, 39, 0
21, 271104, Note_on_c, 12, 34, 97
21, 271200, Note_on_c, 12, 34, 0
21, 271296, Note_on_c, 12, 39, 97
21, 271392, Note_on_c, 12, 39, 0
21, 271488, Note_on_c, 12, 34, 97
21, 271584, Note_on_c, 12, 34, 0
21, 271680, Note_on_c, 12, 39, 97
21, 271776, Note_on_c, 12, 39, 0
21, 271872, Note_on_c, 12, 34, 97
21, 271968, Note_on_c, 12, 34, 0
21, 272064, Note_on_c, 12, 39, 97
21, 272160, Note_on_c, 12, 39, 0
21, 272256, Note_on_c, 12, 34, 97
21, 272352, Note_on_c, 12, 34, 0
21, 272448, Note_on_c, 12, 39, 97
21, 272544, Note_on_c, 12, 39, 0
21, 272640, Note_on_c, 12, 34, 97
21, 272736, Note_on_c, 12, 34, 0
21, 272832, Note_on_c, 12, 39, 97
21, 272928, Note_on_c, 12, 39, 0
21, 273024, Note_on_c, 12, 34, 97
21, 273120, Note_on_c, 12, 34, 0
21, 273216, Note_on_c, 12, 39, 97
21, 273312, Note_on_c, 12, 39, 0
21, 273408, Note_on_c, 12, 34, 97
21, 273504, Note_on_c, 12, 34, 0
21, 273600, Note_on_c, 12, 39, 97
21, 273696, Note_on_c, 12, 39, 0
21, 273792, Note_on_c, 12, 34, 97
21, 273888, Note_on_c, 12, 34, 0
21, 273984, Note_on_c, 12, 39, 97
21, 274080, Note_on_c, 12, 39, 0
21, 274176, Note_on_c, 12, 34, 97
21, 274272, Note_on_c, 12, 34, 0
21, 274368, Note_on_c, 12, 39, 97
21, 274464, Note_on_c, 12, 39, 0
21, 274560, Note_on_c, 12, 34, 97
21, 274656, Note_on_c, 12, 34, 0
21, 274752, Note_on_c, 12, 39, 97
21, 274848, Note_on_c, 12, 39, 0
21, 274944, Note_on_c, 12, 34, 97
21, 275040, Note_on_c, 12, 34, 0
21, 275136, Note_on_c, 12, 39, 97
21, 275232, Note_on_c, 12, 39, 0
21, 275328, Note_on_c, 12, 34, 97
21, 275424, Note_on_c, 12, 34, 0
21, 275520, Note_on_c, 12, 39, 97
21, 275616, Note_on_c, 12, 39, 0
21, 275712, Note_on_c, 12, 34, 97
21, 275808, Note_on_c, 12, 34, 0
21, 275904, Note_on_c, 12, 39, 97
21, 276000, Note_on_c, 12, 39, 0
21, 276096, Note_on_c, 12, 34, 97
21, 276192, Note_on_c, 12, 34, 0
21, 287424, Note_on_c, 12, 31, 95
21, 287552, Note_on_c, 12, 31, 0
21, 287808, Note_on_c, 12, 31, 97
21, 287936, Note_on_c, 12, 31, 0
21, 288192, Note_on_c, 12, 34, 97
21, 288320, Note_on_c, 12, 34, 0
21, 288960, Note_on_c, 12, 34, 97
21, 289152, Note_on_c, 12, 34, 0
21, 289152, Note_on_c, 12, 34, 97
21, 289344, Note_on_c, 12, 34, 0
21, 289728, Note_on_c, 12, 34, 97
21, 289920, Note_on_c, 12, 34, 0
21, 289920, Note_on_c, 12, 34, 97
21, 290112, Note_on_c, 12, 34, 0
21, 290112, Note_on_c, 12, 39, 97
21, 290304, Note_on_c, 12, 39, 0
21, 290496, Note_on_c, 12, 39, 97
21, 290688, Note_on_c, 12, 39, 0
21, 290880, Note_on_c, 12, 39, 97
21, 291072, Note_on_c, 12, 39, 0
21, 291264, Note_on_c, 12, 39, 97
21, 291456, Note_on_c, 12, 39, 0
21, 291648, Note_on_c, 12, 39, 97
21, 291840, Note_on_c, 12, 39, 0
21, 292032, Note_on_c, 12, 39, 97
21, 292224, Note_on_c, 12, 39, 0
21, 292416, Note_on_c, 12, 39, 97
21, 292608, Note_on_c, 12, 39, 0
21, 292800, Note_on_c, 12, 39, 95
21, 292992, Note_on_c, 12, 39, 0
21, 292992, Note_on_c, 12, 34, 95
21, 293184, Note_on_c, 12, 34, 0
21, 293952, Note_on_c, 12, 39, 127
21, 294048, Note_on_c, 12, 39, 0
21, 294720, Note_on_c, 12, 39, 127
21, 294816, Note_on_c, 12, 39, 0
21, 295488, Note_on_c, 12, 39, 127
21, 295584, Note_on_c, 12, 39, 0
21, 296256, Note_on_c, 12, 39, 72
21, 296280, Note_on_c, 12, 39, 72
21, 296304, Note_on_c, 12, 39, 0
21, 296304, Note_on_c, 12, 39, 72
21, 296328, Note_on_c, 12, 39, 0
21, 296328, Note_on_c, 12, 39, 72
21, 296352, Note_on_c, 12, 39, 0
21, 296352, Note_on_c, 12, 39, 72
21, 296376, Note_on_c, 12, 39, 0
21, 296376, Note_on_c, 12, 39, 72
21, 296400, Note_on_c, 12, 39, 0
21, 296400, Note_on_c, 12, 39, 72
21, 296424, Note_on_c, 12, 39, 0
21, 296424, Note_on_c, 12, 39, 72
21, 296448, Note_on_c, 12, 39, 0
21, 296448, Note_on_c, 12, 39, 72
21, 296472, Note_on_c, 12, 39, 0
21, 296472, Note_on_c, 12, 39, 72
21, 296496, Note_on_c, 12, 39, 0
21, 296496, Note_on_c, 12, 39, 72
21, 296520, Note_on_c, 12, 39, 0
21, 296520, Note_on_c, 12, 39, 72
21, 296544, Note_on_c, 12, 39, 0
21, 296544, Note_on_c, 12, 39, 72
21, 296568, Note_on_c, 12, 39, 0
21, 296568, Note_on_c, 12, 39, 72
21, 296592, Note_on_c, 12, 39, 0
21, 296592, Note_on_c, 12, 39, 72
21, 296616, Note_on_c, 12, 39, 0
21, 296616, Note_on_c, 12, 39, 72
21, 296640, Note_on_c, 12, 39, 0
21, 296640, Note_on_c, 12, 39, 72
21, 296664, Note_on_c, 12, 39, 0
21, 296664, Note_on_c, 12, 39, 72
21, 296688, Note_on_c, 12, 39, 0
21, 296688, Note_on_c, 12, 39, 72
21, 296712, Note_on_c, 12, 39, 0
21, 296712, Note_on_c, 12, 39, 72
21, 296736, Note_on_c, 12, 39, 0
21, 296736, Note_on_c, 12, 39, 72
21, 296760, Note_on_c, 12, 39, 0
21, 296760, Note_on_c, 12, 39, 72
21, 296784, Note_on_c, 12, 39, 0
21, 296784, Note_on_c, 12, 39, 72
21, 296808, Note_on_c, 12, 39, 0
21, 296808, Note_on_c, 12, 39, 72
21, 296832, Note_on_c, 12, 39, 0
21, 296832, Note_on_c, 12, 39, 72
21, 296856, Note_on_c, 12, 39, 0
21, 296856, Note_on_c, 12, 39, 72
21, 296880, Note_on_c, 12, 39, 0
21, 296880, Note_on_c, 12, 39, 72
21, 296904, Note_on_c, 12, 39, 0
21, 296904, Note_on_c, 12, 39, 72
21, 296928, Note_on_c, 12, 39, 0
21, 296928, Note_on_c, 12, 39, 72
21, 296952, Note_on_c, 12, 39, 0
21, 296952, Note_on_c, 12, 39, 72
21, 296976, Note_on_c, 12, 39, 0
21, 296976, Note_on_c, 12, 39, 72
21, 297000, Note_on_c, 12, 39, 0
21, 297000, Note_on_c, 12, 39, 72
21, 297024, Note_on_c, 12, 39, 0
21, 297024, Note_on_c, 12, 39, 72
21, 297048, Note_on_c, 12, 39, 0
21, 297048, Note_on_c, 12, 39, 72
21, 297072, Note_on_c, 12, 39, 0
21, 297072, Note_on_c, 12, 39, 72
21, 297096, Note_on_c, 12, 39, 0
21, 297096, Note_on_c, 12, 39, 72
21, 297120, Note_on_c, 12, 39, 0
21, 297120, Note_on_c, 12, 39, 72
21, 297144, Note_on_c, 12, 39, 0
21, 297144, Note_on_c, 12, 39, 72
21, 297168, Note_on_c, 12, 39, 0
21, 297168, Note_on_c, 12, 39, 72
21, 297192, Note_on_c, 12, 39, 0
21, 297192, Note_on_c, 12, 39, 72
21, 297216, Note_on_c, 12, 39, 0
21, 297216, Note_on_c, 12, 39, 72
21, 297240, Note_on_c, 12, 39, 0
21, 297240, Note_on_c, 12, 39, 72
21, 297264, Note_on_c, 12, 39, 0
21, 297264, Note_on_c, 12, 39, 72
21, 297288, Note_on_c, 12, 39, 0
21, 297288, Note_on_c, 12, 39, 72
21, 297312, Note_on_c, 12, 39, 0
21, 297312, Note_on_c, 12, 39, 72
21, 297336, Note_on_c, 12, 39, 0
21, 297336, Note_on_c, 12, 39, 72
21, 297360, Note_on_c, 12, 39, 0
21, 297360, Note_on_c, 12, 39, 72
21, 297384, Note_on_c, 12, 39, 0
21, 297384, Note_on_c, 12, 39, 72
21, 297408, Note_on_c, 12, 39, 0
21, 297408, Note_on_c, 12, 39, 72
21, 297432, Note_on_c, 12, 39, 0
21, 297432, Note_on_c, 12, 39, 72
21, 297456, Note_on_c, 12, 39, 0
21, 297456, Note_on_c, 12, 39, 72
21, 297480, Note_on_c, 12, 39, 0
21, 297480, Note_on_c, 12, 39, 72
21, 297504, Note_on_c, 12, 39, 0
21, 297504, Note_on_c, 12, 39, 72
21, 297528, Note_on_c, 12, 39, 0
21, 297528, Note_on_c, 12, 39, 72
21, 297552, Note_on_c, 12, 39, 0
21, 297552, Note_on_c, 12, 39, 72
21, 297576, Note_on_c, 12, 39, 0
21, 297576, Note_on_c, 12, 39, 72
21, 297600, Note_on_c, 12, 39, 0
21, 297600, Note_on_c, 12, 39, 72
21, 297624, Note_on_c, 12, 39, 0
21, 297624, Note_on_c, 12, 39, 72
21, 297648, Note_on_c, 12, 39, 0
21, 297648, Note_on_c, 12, 39, 72
21, 297672, Note_on_c, 12, 39, 0
21, 297672, Note_on_c, 12, 39, 72
21, 297696, Note_on_c, 12, 39, 0
21, 297696, Note_on_c, 12, 39, 72
21, 297720, Note_on_c, 12, 39, 0
21, 297720, Note_on_c, 12, 39, 72
21, 297744, Note_on_c, 12, 39, 0
21, 297744, Note_on_c, 12, 39, 72
21, 297768, Note_on_c, 12, 39, 0
21, 297768, Note_on_c, 12, 39, 72
21, 297792, Note_on_c, 12, 39, 0
21, 297792, Note_on_c, 12, 39, 72
21, 297816, Note_on_c, 12, 39, 0
21, 297816, Note_on_c, 12, 39, 72
21, 297840, Note_on_c, 12, 39, 0
21, 297840, Note_on_c, 12, 39, 72
21, 297864, Note_on_c, 12, 39, 0
21, 297864, Note_on_c, 12, 39, 72
21, 297888, Note_on_c, 12, 39, 0
21, 297888, Note_on_c, 12, 39, 72
21, 297912, Note_on_c, 12, 39, 0
21, 297912, Note_on_c, 12, 39, 72
21, 297936, Note_on_c, 12, 39, 0
21, 297936, Note_on_c, 12, 39, 72
21, 297960, Note_on_c, 12, 39, 0
21, 297960, Note_on_c, 12, 39, 72
21, 297984, Note_on_c, 12, 39, 0
21, 297984, Note_on_c, 12, 39, 72
21, 298008, Note_on_c, 12, 39, 0
21, 298008, Note_on_c, 12, 39, 72
21, 298032, Note_on_c, 12, 39, 0
21, 298032, Note_on_c, 12, 39, 72
21, 298056, Note_on_c, 12, 39, 0
21, 298056, Note_on_c, 12, 39, 72
21, 298080, Note_on_c, 12, 39, 0
21, 298080, Note_on_c, 12, 39, 72
21, 298104, Note_on_c, 12, 39, 0
21, 298104, Note_on_c, 12, 39, 72
21, 298128, Note_on_c, 12, 39, 0
21, 298128, Note_on_c, 12, 39, 72
21, 298152, Note_on_c, 12, 39, 0
21, 298152, Note_on_c, 12, 39, 72
21, 298176, Note_on_c, 12, 39, 0
21, 298176, Note_on_c, 12, 39, 72
21, 298200, Note_on_c, 12, 39, 0
21, 298200, Note_on_c, 12, 39, 72
21, 298224, Note_on_c, 12, 39, 0
21, 298224, Note_on_c, 12, 39, 72
21, 298248, Note_on_c, 12, 39, 0
21, 298248, Note_on_c, 12, 39, 72
21, 298272, Note_on_c, 12, 39, 0
21, 298272, Note_on_c, 12, 39, 72
21, 298296, Note_on_c, 12, 39, 0
21, 298296, Note_on_c, 12, 39, 72
21, 298320, Note_on_c, 12, 39, 0
21, 298320, Note_on_c, 12, 39, 72
21, 298344, Note_on_c, 12, 39, 0
21, 298344, Note_on_c, 12, 39, 72
21, 298368, Note_on_c, 12, 39, 0
21, 298368, Note_on_c, 12, 39, 72
21, 298392, Note_on_c, 12, 39, 0
21, 298392, Note_on_c, 12, 39, 72
21, 298416, Note_on_c, 12, 39, 0
21, 298416, Note_on_c, 12, 39, 72
21, 298440, Note_on_c, 12, 39, 0
21, 298440, Note_on_c, 12, 39, 72
21, 298464, Note_on_c, 12, 39, 0
21, 298464, Note_on_c, 12, 39, 72
21, 298488, Note_on_c, 12, 39, 0
21, 298488, Note_on_c, 12, 39, 72
21, 298512, Note_on_c, 12, 39, 0
21, 298512, Note_on_c, 12, 39, 72
21, 298536, Note_on_c, 12, 39, 0
21, 298536, Note_on_c, 12, 39, 72
21, 298560, Note_on_c, 12, 39, 0
21, 298560, Note_on_c, 12, 39, 72
21, 298584, Note_on_c, 12, 39, 0
21, 298584, Note_on_c, 12, 39, 72
21, 298608, Note_on_c, 12, 39, 0
21, 298608, Note_on_c, 12, 39, 72
21, 298632, Note_on_c, 12, 39, 0
21, 298632, Note_on_c, 12, 39, 72
21, 298656, Note_on_c, 12, 39, 0
21, 298656, Note_on_c, 12, 39, 72
21, 298680, Note_on_c, 12, 39, 0
21, 298680, Note_on_c, 12, 39, 72
21, 298704, Note_on_c, 12, 39, 0
21, 298704, Note_on_c, 12, 39, 72
21, 298728, Note_on_c, 12, 39, 0
21, 298728, Note_on_c, 12, 39, 72
21, 298752, Note_on_c, 12, 39, 0
21, 298752, Note_on_c, 12, 39, 72
21, 298776, Note_on_c, 12, 39, 0
21, 298776, Note_on_c, 12, 39, 72
21, 298800, Note_on_c, 12, 39, 0
21, 298800, Note_on_c, 12, 39, 72
21, 298824, Note_on_c, 12, 39, 0
21, 298824, Note_on_c, 12, 39, 72
21, 298848, Note_on_c, 12, 39, 0
21, 298848, Note_on_c, 12, 39, 72
21, 298872, Note_on_c, 12, 39, 0
21, 298872, Note_on_c, 12, 39, 72
21, 298896, Note_on_c, 12, 39, 0
21, 298896, Note_on_c, 12, 39, 72
21, 298920, Note_on_c, 12, 39, 0
21, 298920, Note_on_c, 12, 39, 72
21, 298944, Note_on_c, 12, 39, 0
21, 298944, Note_on_c, 12, 39, 72
21, 298968, Note_on_c, 12, 39, 0
21, 298968, Note_on_c, 12, 39, 72
21, 298992, Note_on_c, 12, 39, 0
21, 298992, Note_on_c, 12, 39, 72
21, 299016, Note_on_c, 12, 39, 0
21, 299016, Note_on_c, 12, 39, 72
21, 299040, Note_on_c, 12, 39, 0
21, 299040, Note_on_c, 12, 39, 72
21, 299064, Note_on_c, 12, 39, 0
21, 299064, Note_on_c, 12, 39, 72
21, 299088, Note_on_c, 12, 39, 0
21, 299088, Note_on_c, 12, 39, 72
21, 299112, Note_on_c, 12, 39, 0
21, 299112, Note_on_c, 12, 39, 72
21, 299136, Note_on_c, 12, 39, 0
21, 299136, Note_on_c, 12, 39, 72
21, 299160, Note_on_c, 12, 39, 0
21, 299160, Note_on_c, 12, 39, 72
21, 299184, Note_on_c, 12, 39, 0
21, 299184, Note_on_c, 12, 39, 72
21, 299208, Note_on_c, 12, 39, 0
21, 299208, Note_on_c, 12, 39, 72
21, 299232, Note_on_c, 12, 39, 0
21, 299232, Note_on_c, 12, 39, 72
21, 299256, Note_on_c, 12, 39, 0
21, 299256, Note_on_c, 12, 39, 72
21, 299280, Note_on_c, 12, 39, 0
21, 299280, Note_on_c, 12, 39, 72
21, 299304, Note_on_c, 12, 39, 0
21, 299304, Note_on_c, 12, 39, 72
21, 299328, Note_on_c, 12, 39, 0
21, 299328, Note_on_c, 12, 39, 72
21, 299352, Note_on_c, 12, 39, 0
21, 299352, Note_on_c, 12, 39, 72
21, 299376, Note_on_c, 12, 39, 0
21, 299376, Note_on_c, 12, 39, 72
21, 299400, Note_on_c, 12, 39, 0
21, 299400, Note_on_c, 12, 39, 72
21, 299424, Note_on_c, 12, 39, 0
21, 299424, Note_on_c, 12, 39, 72
21, 299448, Note_on_c, 12, 39, 0
21, 299448, Note_on_c, 12, 39, 72
21, 299472, Note_on_c, 12, 39, 0
21, 299472, Note_on_c, 12, 39, 72
21, 299496, Note_on_c, 12, 39, 0
21, 299496, Note_on_c, 12, 39, 72
21, 299520, Note_on_c, 12, 39, 0
21, 299520, Note_on_c, 12, 39, 72
21, 299544, Note_on_c, 12, 39, 0
21, 299544, Note_on_c, 12, 39, 72
21, 299568, Note_on_c, 12, 39, 0
21, 299568, Note_on_c, 12, 39, 72
21, 299592, Note_on_c, 12, 39, 0
21, 299592, Note_on_c, 12, 39, 72
21, 299616, Note_on_c, 12, 39, 0
21, 299616, Note_on_c, 12, 39, 72
21, 299640, Note_on_c, 12, 39, 0
21, 299640, Note_on_c, 12, 39, 72
21, 299664, Note_on_c, 12, 39, 0
21, 299664, Note_on_c, 12, 39, 72
21, 299688, Note_on_c, 12, 39, 0
21, 299688, Note_on_c, 12, 39, 72
21, 299712, Note_on_c, 12, 39, 0
21, 299712, Note_on_c, 12, 39, 72
21, 299736, Note_on_c, 12, 39, 0
21, 299736, Note_on_c, 12, 39, 72
21, 299760, Note_on_c, 12, 39, 0
21, 299760, Note_on_c, 12, 39, 72
21, 299784, Note_on_c, 12, 39, 0
21, 299784, Note_on_c, 12, 39, 72
21, 299808, Note_on_c, 12, 39, 0
21, 299808, Note_on_c, 12, 39, 72
21, 299832, Note_on_c, 12, 39, 0
21, 299832, Note_on_c, 12, 39, 72
21, 299856, Note_on_c, 12, 39, 0
21, 299856, Note_on_c, 12, 39, 72
21, 299880, Note_on_c, 12, 39, 0
21, 299880, Note_on_c, 12, 39, 72
21, 299904, Note_on_c, 12, 39, 0
21, 299904, Note_on_c, 12, 39, 72
21, 299928, Note_on_c, 12, 39, 0
21, 299928, Note_on_c, 12, 39, 72
21, 299952, Note_on_c, 12, 39, 0
21, 299952, Note_on_c, 12, 39, 72
21, 299976, Note_on_c, 12, 39, 0
21, 299976, Note_on_c, 12, 39, 72
21, 300000, Note_on_c, 12, 39, 0
21, 300000, Note_on_c, 12, 39, 72
21, 300024, Note_on_c, 12, 39, 0
21, 300024, Note_on_c, 12, 39, 72
21, 300048, Note_on_c, 12, 39, 0
21, 300048, Note_on_c, 12, 39, 72
21, 300072, Note_on_c, 12, 39, 0
21, 300072, Note_on_c, 12, 39, 72
21, 300096, Note_on_c, 12, 39, 0
21, 300096, Note_on_c, 12, 39, 72
21, 300120, Note_on_c, 12, 39, 0
21, 300120, Note_on_c, 12, 39, 72
21, 300144, Note_on_c, 12, 39, 0
21, 300144, Note_on_c, 12, 39, 72
21, 300168, Note_on_c, 12, 39, 0
21, 300168, Note_on_c, 12, 39, 72
21, 300192, Note_on_c, 12, 39, 0
21, 300192, Note_on_c, 12, 39, 72
21, 300216, Note_on_c, 12, 39, 0
21, 300216, Note_on_c, 12, 39, 72
21, 300240, Note_on_c, 12, 39, 0
21, 300240, Note_on_c, 12, 39, 72
21, 300264, Note_on_c, 12, 39, 0
21, 300264, Note_on_c, 12, 39, 72
21, 300288, Note_on_c, 12, 39, 0
21, 300288, Note_on_c, 12, 39, 72
21, 300312, Note_on_c, 12, 39, 0
21, 300312, Note_on_c, 12, 39, 72
21, 300336, Note_on_c, 12, 39, 0
21, 300336, Note_on_c, 12, 39, 72
21, 300360, Note_on_c, 12, 39, 0
21, 300360, Note_on_c, 12, 39, 72
21, 300384, Note_on_c, 12, 39, 0
21, 300384, Note_on_c, 12, 39, 72
21, 300408, Note_on_c, 12, 39, 0
21, 300408, Note_on_c, 12, 39, 72
21, 300432, Note_on_c, 12, 39, 0
21, 300432, Note_on_c, 12, 39, 72
21, 300456, Note_on_c, 12, 39, 0
21, 300456, Note_on_c, 12, 39, 72
21, 300480, Note_on_c, 12, 39, 0
21, 300480, Note_on_c, 12, 39, 72
21, 300504, Note_on_c, 12, 39, 0
21, 300504, Note_on_c, 12, 39, 72
21, 300528, Note_on_c, 12, 39, 0
21, 300528, Note_on_c, 12, 39, 72
21, 300552, Note_on_c, 12, 39, 0
21, 300552, Note_on_c, 12, 39, 72
21, 300576, Note_on_c, 12, 39, 0
21, 300576, Note_on_c, 12, 39, 72
21, 300600, Note_on_c, 12, 39, 0
21, 300600, Note_on_c, 12, 39, 72
21, 300624, Note_on_c, 12, 39, 0
21, 300624, Note_on_c, 12, 39, 72
21, 300648, Note_on_c, 12, 39, 0
21, 300648, Note_on_c, 12, 39, 72
21, 300672, Note_on_c, 12, 39, 0
21, 300672, Note_on_c, 12, 39, 72
21, 300696, Note_on_c, 12, 39, 0
21, 300696, Note_on_c, 12, 39, 72
21, 300720, Note_on_c, 12, 39, 0
21, 300720, Note_on_c, 12, 39, 72
21, 300744, Note_on_c, 12, 39, 0
21, 300744, Note_on_c, 12, 39, 72
21, 300768, Note_on_c, 12, 39, 0
21, 300768, Note_on_c, 12, 39, 72
21, 300792, Note_on_c, 12, 39, 0
21, 300792, Note_on_c, 12, 39, 72
21, 300816, Note_on_c, 12, 39, 0
21, 300816, Note_on_c, 12, 39, 72
21, 300840, Note_on_c, 12, 39, 0
21, 300840, Note_on_c, 12, 39, 72
21, 300864, Note_on_c, 12, 39, 0
21, 300864, Note_on_c, 12, 39, 72
21, 300888, Note_on_c, 12, 39, 0
21, 300888, Note_on_c, 12, 39, 72
21, 300912, Note_on_c, 12, 39, 0
21, 300912, Note_on_c, 12, 39, 72
21, 300936, Note_on_c, 12, 39, 0
21, 300936, Note_on_c, 12, 39, 72
21, 300960, Note_on_c, 12, 39, 0
21, 300960, Note_on_c, 12, 39, 72
21, 300984, Note_on_c, 12, 39, 0
21, 300984, Note_on_c, 12, 39, 72
21, 301008, Note_on_c, 12, 39, 0
21, 301008, Note_on_c, 12, 39, 72
21, 301032, Note_on_c, 12, 39, 0
21, 301032, Note_on_c, 12, 39, 72
21, 301056, Note_on_c, 12, 39, 0
21, 301056, Note_on_c, 12, 39, 72
21, 301080, Note_on_c, 12, 39, 0
21, 301080, Note_on_c, 12, 39, 72
21, 301104, Note_on_c, 12, 39, 0
21, 301104, Note_on_c, 12, 39, 72
21, 301128, Note_on_c, 12, 39, 0
21, 301128, Note_on_c, 12, 39, 72
21, 301152, Note_on_c, 12, 39, 0
21, 301152, Note_on_c, 12, 39, 72
21, 301176, Note_on_c, 12, 39, 0
21, 301176, Note_on_c, 12, 39, 72
21, 301200, Note_on_c, 12, 39, 0
21, 301200, Note_on_c, 12, 39, 72
21, 301224, Note_on_c, 12, 39, 0
21, 301224, Note_on_c, 12, 39, 72
21, 301248, Note_on_c, 12, 39, 0
21, 301248, Note_on_c, 12, 39, 72
21, 301272, Note_on_c, 12, 39, 0
21, 301272, Note_on_c, 12, 39, 72
21, 301296, Note_on_c, 12, 39, 0
21, 301296, Note_on_c, 12, 39, 72
21, 301320, Note_on_c, 12, 39, 0
21, 301320, Note_on_c, 12, 39, 72
21, 301344, Note_on_c, 12, 39, 0
21, 301344, Note_on_c, 12, 39, 72
21, 301368, Note_on_c, 12, 39, 0
21, 301368, Note_on_c, 12, 39, 72
21, 301392, Note_on_c, 12, 39, 0
21, 301392, Note_on_c, 12, 39, 72
21, 301416, Note_on_c, 12, 39, 0
21, 301416, Note_on_c, 12, 39, 72
21, 301440, Note_on_c, 12, 39, 0
21, 301440, Note_on_c, 12, 39, 72
21, 301464, Note_on_c, 12, 39, 0
21, 301464, Note_on_c, 12, 39, 72
21, 301488, Note_on_c, 12, 39, 0
21, 301488, Note_on_c, 12, 39, 72
21, 301512, Note_on_c, 12, 39, 0
21, 301512, Note_on_c, 12, 39, 72
21, 301536, Note_on_c, 12, 39, 0
21, 301536, Note_on_c, 12, 39, 72
21, 301560, Note_on_c, 12, 39, 0
21, 301560, Note_on_c, 12, 39, 72
21, 301584, Note_on_c, 12, 39, 0
21, 301584, Note_on_c, 12, 39, 72
21, 301608, Note_on_c, 12, 39, 0
21, 301608, Note_on_c, 12, 39, 72
21, 301632, Note_on_c, 12, 39, 0
21, 301632, Note_on_c, 12, 39, 70
21, 301656, Note_on_c, 12, 39, 0
21, 301824, Note_on_c, 12, 39, 0
21, 301824, End_track
22, 0, Start_track
22, 0, MIDI_port, 0
22, 0, Title_t, "Cannon"
22, 0, Program_c, 12, 47
22, 0, Control_c, 12, 7, 127
22, 0, Control_c, 12, 10, 8
22, 192, Control_c, 12, 7, 127
22, 237120, Note_on_c, 12, 31, 127
22, 237120, Note_on_c, 12, 33, 127
22, 237693, Note_on_c, 12, 33, 0
22, 237693, Note_on_c, 12, 31, 0
22, 237696, Note_on_c, 12, 31, 127
22, 237696, Note_on_c, 12, 33, 127
22, 238269, Note_on_c, 12, 33, 0
22, 238269, Note_on_c, 12, 31, 0
22, 238272, Note_on_c, 12, 31, 127
22, 238272, Note_on_c, 12, 33, 127
22, 238845, Note_on_c, 12, 33, 0
22, 238845, Note_on_c, 12, 31, 0
22, 238848, Note_on_c, 12, 31, 127
22, 238848, Note_on_c, 12, 33, 127
22, 239613, Note_on_c, 12, 33, 0
22, 239613, Note_on_c, 12, 31, 0
22, 239615, Note_on_c, 12, 31, 127
22, 239615, Note_on_c, 12, 33, 127
22, 241151, Note_on_c, 12, 33, 0
22, 241151, Note_on_c, 12, 31, 0
22, 242688, Note_on_c, 12, 33, 127
22, 242688, Note_on_c, 12, 31, 127
22, 246528, Note_on_c, 12, 31, 0
22, 246528, Note_on_c, 12, 33, 0
22, 259200, Note_on_c, 12, 31, 127
22, 259776, Note_on_c, 12, 31, 0
22, 259776, Note_on_c, 12, 31, 127
22, 260304, Note_on_c, 12, 31, 0
22, 260352, Note_on_c, 12, 31, 127
22, 260928, Note_on_c, 12, 31, 0
22, 260928, Note_on_c, 12, 31, 127
22, 261504, Note_on_c, 12, 31, 0
22, 261504, Note_on_c, 12, 31, 127
22, 262080, Note_on_c, 12, 31, 0
22, 262080, Note_on_c, 12, 31, 127
22, 262656, Note_on_c, 12, 31, 0
22, 262656, Note_on_c, 12, 31, 127
22, 263232, Note_on_c, 12, 31, 0
22, 263232, Note_on_c, 12, 31, 127
22, 263808, Note_on_c, 12, 31, 0
22, 263808, Note_on_c, 12, 31, 127
22, 264384, Note_on_c, 12, 31, 0
22, 264384, Note_on_c, 12, 31, 127
22, 264960, Note_on_c, 12, 31, 0
22, 264960, Note_on_c, 12, 31, 127
22, 265536, Note_on_c, 12, 31, 0
22, 265536, Note_on_c, 12, 31, 127
22, 266112, Note_on_c, 12, 31, 0
22, 266112, Note_on_c, 12, 31, 127
22, 266688, Note_on_c, 12, 31, 0
22, 266688, Note_on_c, 12, 31, 127
22, 267264, Note_on_c, 12, 31, 0
22, 267264, Note_on_c, 12, 31, 127
22, 267840, Note_on_c, 12, 31, 0
22, 267840, Note_on_c, 12, 31, 127
22, 268416, Note_on_c, 12, 31, 0
22, 268416, Note_on_c, 12, 31, 127
22, 268992, Note_on_c, 12, 31, 0
22, 268992, Note_on_c, 12, 31, 127
22, 269568, Note_on_c, 12, 31, 0
22, 269568, Note_on_c, 12, 31, 127
22, 270144, Note_on_c, 12, 31, 0
22, 270144, Note_on_c, 12, 31, 127
22, 270912, Note_on_c, 12, 31, 0
22, 276672, Note_on_c, 12, 31, 127
22, 276672, Note_on_c, 12, 31, 127
22, 277056, Note_on_c, 12, 31, 0
22, 277440, Note_on_c, 12, 31, 0
22, 277824, Note_on_c, 12, 31, 127
22, 277824, Note_on_c, 12, 31, 127
22, 278208, Note_on_c, 12, 31, 0
22, 278592, Note_on_c, 12, 31, 0
22, 278976, Note_on_c, 12, 31, 127
22, 279744, Note_on_c, 12, 31, 0
22, 279744, Note_on_c, 12, 31, 127
22, 279744, Note_on_c, 12, 31, 127
22, 280128, Note_on_c, 12, 31, 0
22, 280512, Note_on_c, 12, 31, 0
22, 280512, Note_on_c, 12, 31, 127
22, 280512, Note_on_c, 12, 31, 127
22, 280896, Note_on_c, 12, 31, 0
22, 281280, Note_on_c, 12, 31, 0
22, 281664, Note_on_c, 12, 31, 127
22, 281664, Note_on_c, 12, 31, 127
22, 282048, Note_on_c, 12, 31, 0
22, 282432, Note_on_c, 12, 31, 0
22, 282432, Note_on_c, 12, 31, 127
22, 283200, Note_on_c, 12, 31, 0
22, 283200, Note_on_c, 12, 31, 127
22, 283968, Note_on_c, 12, 31, 0
22, 283968, Note_on_c, 12, 31, 127
22, 283968, Note_on_c, 12, 31, 127
22, 284352, Note_on_c, 12, 31, 0
22, 284736, Note_on_c, 12, 31, 0
22, 285504, Note_on_c, 12, 31, 127
22, 285504, Note_on_c, 12, 31, 127
22, 285888, Note_on_c, 12, 31, 0
22, 286272, Note_on_c, 12, 31, 0
22, 287040, Note_on_c, 12, 31, 127
22, 287040, Note_on_c, 12, 31, 127
22, 287424, Note_on_c, 12, 31, 0
22, 287808, Note_on_c, 12, 31, 0
22, 288576, Note_on_c, 12, 31, 127
22, 288576, Note_on_c, 12, 31, 127
22, 288960, Note_on_c, 12, 31, 0
22, 289344, Note_on_c, 12, 31, 0
22, 289344, Note_on_c, 12, 31, 127
22, 290112, Note_on_c, 12, 31, 0
22, 290112, Note_on_c, 12, 31, 127
22, 290880, Note_on_c, 12, 31, 0
22, 293184, Note_on_c, 12, 31, 127
22, 293952, Note_on_c, 12, 31, 0
22, 293952, End_track
23, 0, Start_track
23, 0, MIDI_port, 0
23, 0, Title_t, "Cellos"
23, 0, Program_c, 13, 42
23, 0, Control_c, 13, 7, 90
23, 0, Control_c, 13, 10, 85
23, 384, Control_c, 13, 7, 80
23, 384, Note_on_c, 13, 63, 75
23, 384, Note_on_c, 13, 51, 75
23, 384, Note_on_c, 13, 55, 75
23, 384, Note_on_c, 13, 58, 75
23, 477, Note_on_c, 13, 58, 0
23, 477, Note_on_c, 13, 63, 0
23, 477, Note_on_c, 13, 51, 0
23, 477, Note_on_c, 13, 55, 0
23, 480, Note_on_c, 13, 58, 75
23, 480, Note_on_c, 13, 51, 75
23, 480, Note_on_c, 13, 63, 75
23, 480, Note_on_c, 13, 55, 75
23, 573, Note_on_c, 13, 55, 0
23, 573, Note_on_c, 13, 58, 0
23, 573, Note_on_c, 13, 51, 0
23, 573, Note_on_c, 13, 63, 0
23, 576, Note_on_c, 13, 53, 75
23, 576, Note_on_c, 13, 46, 75
23, 576, Note_on_c, 13, 62, 75
23, 576, Note_on_c, 13, 58, 75
23, 576, Note_on_c, 13, 65, 75
23, 762, Note_on_c, 13, 65, 0
23, 762, Note_on_c, 13, 62, 0
23, 762, Note_on_c, 13, 53, 0
23, 762, Note_on_c, 13, 46, 0
23, 762, Note_on_c, 13, 58, 0
23, 768, Note_on_c, 13, 58, 75
23, 768, Note_on_c, 13, 55, 75
23, 768, Note_on_c, 13, 51, 75
23, 768, Note_on_c, 13, 63, 75
23, 768, Note_on_c, 13, 67, 75
23, 954, Note_on_c, 13, 67, 0
23, 954, Note_on_c, 13, 51, 0
23, 954, Note_on_c, 13, 58, 0
23, 954, Note_on_c, 13, 55, 0
23, 954, Note_on_c, 13, 63, 0
23, 960, Note_on_c, 13, 51, 75
23, 960, Note_on_c, 13, 58, 75
23, 960, Note_on_c, 13, 55, 75
23, 960, Note_on_c, 13, 63, 75
23, 1053, Note_on_c, 13, 63, 0
23, 1053, Note_on_c, 13, 51, 0
23, 1053, Note_on_c, 13, 58, 0
23, 1053, Note_on_c, 13, 55, 0
23, 1056, Note_on_c, 13, 55, 75
23, 1056, Note_on_c, 13, 51, 75
23, 1056, Note_on_c, 13, 58, 75
23, 1056, Note_on_c, 13, 63, 75
23, 1149, Note_on_c, 13, 63, 0
23, 1149, Note_on_c, 13, 55, 0
23, 1149, Note_on_c, 13, 51, 0
23, 1149, Note_on_c, 13, 58, 0
23, 1152, Note_on_c, 13, 65, 75
23, 1152, Note_on_c, 13, 62, 75
23, 1152, Note_on_c, 13, 46, 75
23, 1152, Note_on_c, 13, 58, 75
23, 1245, Note_on_c, 13, 58, 0
23, 1245, Note_on_c, 13, 65, 0
23, 1245, Note_on_c, 13, 62, 0
23, 1245, Note_on_c, 13, 46, 0
23, 1248, Note_on_c, 13, 58, 73
23, 1248, Note_on_c, 13, 63, 75
23, 1248, Note_on_c, 13, 67, 75
23, 1248, Note_on_c, 13, 51, 75
23, 1341, Note_on_c, 13, 51, 0
23, 1341, Note_on_c, 13, 58, 0
23, 1341, Note_on_c, 13, 63, 0
23, 1341, Note_on_c, 13, 67, 0
23, 1344, Note_on_c, 13, 68, 75
23, 1344, Note_on_c, 13, 63, 75
23, 1344, Note_on_c, 13, 44, 75
23, 1344, Note_on_c, 13, 60, 75
23, 1437, Note_on_c, 13, 60, 0
23, 1437, Note_on_c, 13, 68, 0
23, 1437, Note_on_c, 13, 63, 0
23, 1437, Note_on_c, 13, 44, 0
23, 1440, Note_on_c, 13, 44, 75
23, 1440, Note_on_c, 13, 68, 75
23, 1440, Note_on_c, 13, 63, 75
23, 1440, Note_on_c, 13, 60, 75
23, 1533, Note_on_c, 13, 60, 0
23, 1533, Note_on_c, 13, 44, 0
23, 1533, Note_on_c, 13, 68, 0
23, 1533, Note_on_c, 13, 63, 0
23, 1536, Note_on_c, 13, 44, 75
23, 1536, Note_on_c, 13, 63, 75
23, 1536, Note_on_c, 13, 68, 75
23, 1536, Note_on_c, 13, 60, 75
23, 2300, Note_on_c, 13, 60, 0
23, 2300, Note_on_c, 13, 44, 0
23, 2300, Note_on_c, 13, 63, 0
23, 2300, Note_on_c, 13, 68, 0
23, 2304, Note_on_c, 13, 67, 75
23, 2304, Note_on_c, 13, 63, 75
23, 2304, Note_on_c, 13, 58, 75
23, 2304, Note_on_c, 13, 51, 75
23, 2397, Note_on_c, 13, 51, 0
23, 2397, Note_on_c, 13, 67, 0
23, 2397, Note_on_c, 13, 63, 0
23, 2397, Note_on_c, 13, 58, 0
23, 2400, Note_on_c, 13, 63, 75
23, 2400, Note_on_c, 13, 51, 75
23, 2400, Note_on_c, 13, 58, 75
23, 2400, Note_on_c, 13, 67, 75
23, 2493, Note_on_c, 13, 67, 0
23, 2493, Note_on_c, 13, 63, 0
23, 2493, Note_on_c, 13, 51, 0
23, 2493, Note_on_c, 13, 58, 0
23, 2496, Note_on_c, 13, 58, 75
23, 2496, Note_on_c, 13, 51, 75
23, 2496, Note_on_c, 13, 67, 75
23, 2496, Note_on_c, 13, 63, 75
23, 2589, Note_on_c, 13, 63, 0
23, 2589, Note_on_c, 13, 58, 0
23, 2589, Note_on_c, 13, 51, 0
23, 2589, Note_on_c, 13, 67, 0
23, 2592, Note_on_c, 13, 51, 75
23, 2592, Note_on_c, 13, 67, 75
23, 2592, Note_on_c, 13, 58, 75
23, 2592, Note_on_c, 13, 63, 75
23, 2685, Note_on_c, 13, 63, 0
23, 2685, Note_on_c, 13, 51, 0
23, 2685, Note_on_c, 13, 67, 0
23, 2685, Note_on_c, 13, 58, 0
23, 2688, Note_on_c, 13, 63, 75
23, 2688, Note_on_c, 13, 58, 75
23, 2688, Note_on_c, 13, 51, 75
23, 2688, Note_on_c, 13, 67, 75
23, 3068, Note_on_c, 13, 67, 0
23, 3068, Note_on_c, 13, 63, 0
23, 3068, Note_on_c, 13, 58, 0
23, 3068, Note_on_c, 13, 51, 0
23, 3072, Note_on_c, 13, 58, 75
23, 3072, Note_on_c, 13, 63, 75
23, 3072, Note_on_c, 13, 67, 75
23, 3072, Note_on_c, 13, 51, 75
23, 3260, Note_on_c, 13, 51, 0
23, 3260, Note_on_c, 13, 58, 0
23, 3260, Note_on_c, 13, 63, 0
23, 3260, Note_on_c, 13, 67, 0
23, 3264, Note_on_c, 13, 58, 75
23, 3264, Note_on_c, 13, 63, 75
23, 3264, Note_on_c, 13, 67, 75
23, 3264, Note_on_c, 13, 51, 75
23, 3452, Note_on_c, 13, 51, 0
23, 3452, Note_on_c, 13, 58, 0
23, 3452, Note_on_c, 13, 63, 0
23, 3452, Note_on_c, 13, 67, 0
23, 3456, Note_on_c, 13, 65, 75
23, 3456, Note_on_c, 13, 46, 75
23, 3456, Note_on_c, 13, 62, 75
23, 3456, Note_on_c, 13, 58, 75
23, 3733, Note_on_c, 13, 58, 0
23, 3735, Note_on_c, 13, 65, 0
23, 3735, Note_on_c, 13, 46, 0
23, 3735, Note_on_c, 13, 62, 0
23, 3744, Note_on_c, 13, 65, 75
23, 3744, Note_on_c, 13, 58, 75
23, 3744, Note_on_c, 13, 62, 75
23, 3744, Note_on_c, 13, 46, 75
23, 3837, Note_on_c, 13, 46, 0
23, 3837, Note_on_c, 13, 65, 0
23, 3837, Note_on_c, 13, 58, 0
23, 3837, Note_on_c, 13, 62, 0
23, 3840, Note_on_c, 13, 65, 75
23, 3840, Note_on_c, 13, 62, 75
23, 3840, Note_on_c, 13, 58, 75
23, 3840, Note_on_c, 13, 46, 75
23, 3933, Note_on_c, 13, 46, 0
23, 3933, Note_on_c, 13, 65, 0
23, 3933, Note_on_c, 13, 62, 0
23, 3933, Note_on_c, 13, 58, 0
23, 3936, Note_on_c, 13, 65, 75
23, 3936, Note_on_c, 13, 62, 75
23, 3936, Note_on_c, 13, 58, 75
23, 3936, Note_on_c, 13, 46, 75
23, 4029, Note_on_c, 13, 46, 0
23, 4029, Note_on_c, 13, 65, 0
23, 4029, Note_on_c, 13, 62, 0
23, 4029, Note_on_c, 13, 58, 0
23, 4032, Note_on_c, 13, 67, 75
23, 4032, Note_on_c, 13, 63, 75
23, 4032, Note_on_c, 13, 51, 75
23, 4032, Note_on_c, 13, 58, 75
23, 4412, Note_on_c, 13, 58, 0
23, 4412, Note_on_c, 13, 67, 0
23, 4412, Note_on_c, 13, 63, 0
23, 4412, Note_on_c, 13, 51, 0
23, 4416, Note_on_c, 13, 55, 75
23, 4416, Note_on_c, 13, 60, 75
23, 4416, Note_on_c, 13, 63, 75
23, 4416, Note_on_c, 13, 48, 75
23, 4600, Note_on_c, 13, 48, 0
23, 4600, Note_on_c, 13, 55, 0
23, 4600, Note_on_c, 13, 60, 0
23, 4600, Note_on_c, 13, 63, 0
23, 4608, Note_on_c, 13, 58, 75
23, 4608, Note_on_c, 13, 62, 75
23, 4608, Note_on_c, 13, 65, 75
23, 4608, Note_on_c, 13, 46, 75
23, 4792, Note_on_c, 13, 46, 0
23, 4794, Note_on_c, 13, 58, 0
23, 4794, Note_on_c, 13, 62, 0
23, 4794, Note_on_c, 13, 65, 0
23, 4800, Note_on_c, 13, 58, 75
23, 4800, Note_on_c, 13, 55, 75
23, 4800, Note_on_c, 13, 67, 75
23, 4800, Note_on_c, 13, 63, 75
23, 4800, Note_on_c, 13, 51, 75
23, 4984, Note_on_c, 13, 51, 0
23, 4986, Note_on_c, 13, 67, 0
23, 4986, Note_on_c, 13, 58, 0
23, 4986, Note_on_c, 13, 55, 0
23, 4986, Note_on_c, 13, 63, 0
23, 4992, Note_on_c, 13, 55, 75
23, 4992, Note_on_c, 13, 51, 75
23, 4992, Note_on_c, 13, 63, 75
23, 4992, Note_on_c, 13, 58, 75
23, 5176, Note_on_c, 13, 58, 0
23, 5176, Note_on_c, 13, 63, 0
23, 5178, Note_on_c, 13, 51, 0
23, 5178, Note_on_c, 13, 55, 0
23, 5184, Note_on_c, 13, 65, 73
23, 5184, Note_on_c, 13, 58, 75
23, 5184, Note_on_c, 13, 62, 75
23, 5184, Note_on_c, 13, 46, 75
23, 5280, Note_on_c, 13, 46, 0
23, 5280, Note_on_c, 13, 65, 0
23, 5280, Note_on_c, 13, 58, 0
23, 5280, Note_on_c, 13, 62, 0
23, 5280, Note_on_c, 13, 58, 75
23, 5280, Note_on_c, 13, 51, 75
23, 5280, Note_on_c, 13, 63, 75
23, 5280, Note_on_c, 13, 67, 75
23, 5376, Note_on_c, 13, 67, 0
23, 5376, Note_on_c, 13, 58, 0
23, 5376, Note_on_c, 13, 51, 0
23, 5376, Note_on_c, 13, 63, 0
23, 5376, Note_on_c, 13, 60, 75
23, 5376, Note_on_c, 13, 68, 75
23, 5376, Note_on_c, 13, 44, 75
23, 5376, Note_on_c, 13, 63, 75
23, 5376, Note_on_c, 13, 56, 75
23, 5472, Note_on_c, 13, 56, 0
23, 5472, Note_on_c, 13, 44, 0
23, 5472, Note_on_c, 13, 60, 0
23, 5472, Note_on_c, 13, 68, 0
23, 5472, Note_on_c, 13, 63, 0
23, 5472, Note_on_c, 13, 60, 75
23, 5472, Note_on_c, 13, 68, 75
23, 5472, Note_on_c, 13, 63, 75
23, 5472, Note_on_c, 13, 44, 75
23, 5472, Note_on_c, 13, 56, 75
23, 5568, Note_on_c, 13, 56, 0
23, 5568, Note_on_c, 13, 63, 0
23, 5568, Note_on_c, 13, 60, 0
23, 5568, Note_on_c, 13, 68, 0
23, 5568, Note_on_c, 13, 44, 0
23, 5568, Note_on_c, 13, 60, 75
23, 5568, Note_on_c, 13, 68, 75
23, 5568, Note_on_c, 13, 63, 75
23, 5568, Note_on_c, 13, 56, 75
23, 5568, Note_on_c, 13, 44, 75
23, 5664, Note_on_c, 13, 44, 0
23, 5664, Note_on_c, 13, 63, 0
23, 5664, Note_on_c, 13, 60, 0
23, 5664, Note_on_c, 13, 68, 0
23, 5664, Note_on_c, 13, 56, 0
23, 5664, Note_on_c, 13, 60, 75
23, 5664, Note_on_c, 13, 44, 75
23, 5664, Note_on_c, 13, 63, 75
23, 5664, Note_on_c, 13, 56, 75
23, 5664, Note_on_c, 13, 68, 75
23, 5760, Note_on_c, 13, 68, 0
23, 5760, Note_on_c, 13, 63, 0
23, 5760, Note_on_c, 13, 60, 0
23, 5760, Note_on_c, 13, 44, 0
23, 5760, Note_on_c, 13, 56, 0
23, 5760, Note_on_c, 13, 60, 75
23, 5760, Note_on_c, 13, 44, 75
23, 5760, Note_on_c, 13, 63, 75
23, 5760, Note_on_c, 13, 56, 75
23, 5760, Note_on_c, 13, 68, 75
23, 5856, Note_on_c, 13, 68, 0
23, 5856, Note_on_c, 13, 63, 0
23, 5856, Note_on_c, 13, 60, 0
23, 5856, Note_on_c, 13, 44, 0
23, 5856, Note_on_c, 13, 56, 0
23, 5856, Note_on_c, 13, 60, 75
23, 5856, Note_on_c, 13, 56, 75
23, 5856, Note_on_c, 13, 63, 75
23, 5856, Note_on_c, 13, 68, 75
23, 5856, Note_on_c, 13, 44, 75
23, 5952, Note_on_c, 13, 44, 0
23, 5952, Note_on_c, 13, 63, 0
23, 5952, Note_on_c, 13, 60, 0
23, 5952, Note_on_c, 13, 56, 0
23, 5952, Note_on_c, 13, 68, 0
23, 5952, Note_on_c, 13, 60, 75
23, 5952, Note_on_c, 13, 44, 75
23, 5952, Note_on_c, 13, 63, 75
23, 5952, Note_on_c, 13, 68, 75
23, 5952, Note_on_c, 13, 56, 75
23, 6048, Note_on_c, 13, 56, 0
23, 6048, Note_on_c, 13, 63, 0
23, 6048, Note_on_c, 13, 60, 0
23, 6048, Note_on_c, 13, 44, 0
23, 6048, Note_on_c, 13, 68, 0
23, 6048, Note_on_c, 13, 60, 75
23, 6048, Note_on_c, 13, 44, 75
23, 6048, Note_on_c, 13, 63, 75
23, 6048, Note_on_c, 13, 68, 75
23, 6048, Note_on_c, 13, 56, 75
23, 6144, Note_on_c, 13, 56, 0
23, 6144, Note_on_c, 13, 63, 0
23, 6144, Note_on_c, 13, 60, 0
23, 6144, Note_on_c, 13, 44, 0
23, 6144, Note_on_c, 13, 68, 0
23, 6144, Note_on_c, 13, 60, 75
23, 6144, Note_on_c, 13, 56, 75
23, 6144, Note_on_c, 13, 68, 75
23, 6144, Note_on_c, 13, 44, 75
23, 6144, Note_on_c, 13, 63, 75
23, 6240, Note_on_c, 13, 63, 0
23, 6240, Note_on_c, 13, 68, 0
23, 6240, Note_on_c, 13, 60, 0
23, 6240, Note_on_c, 13, 56, 0
23, 6240, Note_on_c, 13, 44, 0
23, 6240, Note_on_c, 13, 60, 75
23, 6240, Note_on_c, 13, 56, 75
23, 6240, Note_on_c, 13, 44, 75
23, 6240, Note_on_c, 13, 63, 75
23, 6240, Note_on_c, 13, 68, 75
23, 6336, Note_on_c, 13, 68, 0
23, 6336, Note_on_c, 13, 44, 0
23, 6336, Note_on_c, 13, 60, 0
23, 6336, Note_on_c, 13, 56, 0
23, 6336, Note_on_c, 13, 63, 0
23, 6336, Note_on_c, 13, 60, 75
23, 6336, Note_on_c, 13, 63, 75
23, 6336, Note_on_c, 13, 44, 75
23, 6336, Note_on_c, 13, 56, 75
23, 6336, Note_on_c, 13, 68, 75
23, 6432, Note_on_c, 13, 68, 0
23, 6432, Note_on_c, 13, 44, 0
23, 6432, Note_on_c, 13, 60, 0
23, 6432, Note_on_c, 13, 63, 0
23, 6432, Note_on_c, 13, 56, 0
23, 6432, Note_on_c, 13, 60, 75
23, 6432, Note_on_c, 13, 56, 75
23, 6432, Note_on_c, 13, 68, 75
23, 6432, Note_on_c, 13, 63, 75
23, 6432, Note_on_c, 13, 44, 75
23, 6528, Note_on_c, 13, 44, 0
23, 6528, Note_on_c, 13, 68, 0
23, 6528, Note_on_c, 13, 60, 0
23, 6528, Note_on_c, 13, 56, 0
23, 6528, Note_on_c, 13, 63, 0
23, 6528, Note_on_c, 13, 60, 75
23, 6528, Note_on_c, 13, 56, 75
23, 6528, Note_on_c, 13, 63, 75
23, 6528, Note_on_c, 13, 44, 75
23, 6528, Note_on_c, 13, 68, 75
23, 6624, Note_on_c, 13, 68, 0
23, 6624, Note_on_c, 13, 63, 0
23, 6624, Note_on_c, 13, 60, 0
23, 6624, Note_on_c, 13, 56, 0
23, 6624, Note_on_c, 13, 44, 0
23, 6624, Note_on_c, 13, 58, 75
23, 6624, Note_on_c, 13, 63, 75
23, 6624, Note_on_c, 13, 39, 75
23, 6624, Note_on_c, 13, 55, 75
23, 6624, Note_on_c, 13, 67, 75
23, 6720, Note_on_c, 13, 67, 0
23, 6720, Note_on_c, 13, 39, 0
23, 6720, Note_on_c, 13, 58, 0
23, 6720, Note_on_c, 13, 63, 0
23, 6720, Note_on_c, 13, 55, 0
23, 6720, Note_on_c, 13, 60, 75
23, 6720, Note_on_c, 13, 68, 75
23, 6720, Note_on_c, 13, 56, 75
23, 6720, Note_on_c, 13, 63, 75
23, 6720, Note_on_c, 13, 44, 75
23, 7484, Note_on_c, 13, 44, 0
23, 7484, Note_on_c, 13, 56, 0
23, 7484, Note_on_c, 13, 60, 0
23, 7484, Note_on_c, 13, 68, 0
23, 7484, Note_on_c, 13, 63, 0
23, 7488, Note_on_c, 13, 58, 75
23, 7488, Note_on_c, 13, 67, 75
23, 7488, Note_on_c, 13, 63, 75
23, 7488, Note_on_c, 13, 51, 75
23, 7581, Note_on_c, 13, 51, 0
23, 7581, Note_on_c, 13, 58, 0
23, 7581, Note_on_c, 13, 67, 0
23, 7581, Note_on_c, 13, 63, 0
23, 7584, Note_on_c, 13, 51, 75
23, 7584, Note_on_c, 13, 63, 75
23, 7584, Note_on_c, 13, 67, 75
23, 7584, Note_on_c, 13, 58, 75
23, 7677, Note_on_c, 13, 58, 0
23, 7677, Note_on_c, 13, 51, 0
23, 7677, Note_on_c, 13, 63, 0
23, 7677, Note_on_c, 13, 67, 0
23, 7680, Note_on_c, 13, 58, 75
23, 7680, Note_on_c, 13, 67, 75
23, 7680, Note_on_c, 13, 63, 75
23, 7680, Note_on_c, 13, 51, 75
23, 7773, Note_on_c, 13, 51, 0
23, 7773, Note_on_c, 13, 58, 0
23, 7773, Note_on_c, 13, 67, 0
23, 7773, Note_on_c, 13, 63, 0
23, 7776, Note_on_c, 13, 63, 75
23, 7776, Note_on_c, 13, 58, 75
23, 7776, Note_on_c, 13, 51, 75
23, 7776, Note_on_c, 13, 67, 75
23, 7869, Note_on_c, 13, 67, 0
23, 7869, Note_on_c, 13, 63, 0
23, 7869, Note_on_c, 13, 58, 0
23, 7869, Note_on_c, 13, 51, 0
23, 7872, Note_on_c, 13, 67, 75
23, 7872, Note_on_c, 13, 58, 75
23, 7872, Note_on_c, 13, 51, 75
23, 7872, Note_on_c, 13, 63, 75
23, 7965, Note_on_c, 13, 63, 0
23, 7965, Note_on_c, 13, 67, 0
23, 7965, Note_on_c, 13, 58, 0
23, 7965, Note_on_c, 13, 51, 0
23, 7968, Note_on_c, 13, 67, 75
23, 7968, Note_on_c, 13, 58, 75
23, 7968, Note_on_c, 13, 51, 75
23, 7968, Note_on_c, 13, 63, 75
23, 8061, Note_on_c, 13, 63, 0
23, 8061, Note_on_c, 13, 67, 0
23, 8061, Note_on_c, 13, 58, 0
23, 8061, Note_on_c, 13, 51, 0
23, 8064, Note_on_c, 13, 65, 75
23, 8064, Note_on_c, 13, 58, 75
23, 8064, Note_on_c, 13, 46, 75
23, 8064, Note_on_c, 13, 62, 75
23, 8349, Note_on_c, 13, 62, 0
23, 8349, Note_on_c, 13, 65, 0
23, 8349, Note_on_c, 13, 58, 0
23, 8349, Note_on_c, 13, 46, 0
23, 8352, Note_on_c, 13, 65, 75
23, 8352, Note_on_c, 13, 46, 75
23, 8352, Note_on_c, 13, 58, 75
23, 8352, Note_on_c, 13, 62, 75
23, 8445, Note_on_c, 13, 62, 0
23, 8445, Note_on_c, 13, 65, 0
23, 8445, Note_on_c, 13, 46, 0
23, 8445, Note_on_c, 13, 58, 0
23, 8448, Note_on_c, 13, 63, 75
23, 8448, Note_on_c, 13, 58, 75
23, 8448, Note_on_c, 13, 67, 75
23, 8448, Note_on_c, 13, 51, 75
23, 9020, Note_on_c, 13, 51, 0
23, 9020, Note_on_c, 13, 63, 0
23, 9020, Note_on_c, 13, 58, 0
23, 9020, Note_on_c, 13, 67, 0
23, 9024, Note_on_c, 13, 60, 75
23, 9024, Note_on_c, 13, 55, 75
23, 9024, Note_on_c, 13, 63, 75
23, 9024, Note_on_c, 13, 48, 75
23, 9117, Note_on_c, 13, 48, 0
23, 9117, Note_on_c, 13, 60, 0
23, 9117, Note_on_c, 13, 55, 0
23, 9117, Note_on_c, 13, 63, 0
23, 9120, Note_on_c, 13, 55, 75
23, 9120, Note_on_c, 13, 48, 75
23, 9120, Note_on_c, 13, 60, 75
23, 9120, Note_on_c, 13, 63, 75
23, 9213, Note_on_c, 13, 63, 0
23, 9213, Note_on_c, 13, 55, 0
23, 9213, Note_on_c, 13, 48, 0
23, 9213, Note_on_c, 13, 60, 0
23, 9216, Note_on_c, 13, 65, 73
23, 9216, Note_on_c, 13, 58, 75
23, 9216, Note_on_c, 13, 62, 75
23, 9216, Note_on_c, 13, 46, 75
23, 9404, Note_on_c, 13, 46, 0
23, 9408, Note_on_c, 13, 65, 0
23, 9408, Note_on_c, 13, 58, 0
23, 9408, Note_on_c, 13, 62, 0
23, 9408, Note_on_c, 13, 58, 75
23, 9408, Note_on_c, 13, 67, 75
23, 9408, Note_on_c, 13, 51, 75
23, 9408, Note_on_c, 13, 63, 75
23, 9596, Note_on_c, 13, 63, 0
23, 9596, Note_on_c, 13, 51, 0
23, 9596, Note_on_c, 13, 67, 0
23, 9600, Note_on_c, 13, 58, 0
23, 9600, Note_on_c, 13, 63, 75
23, 9600, Note_on_c, 13, 58, 75
23, 9600, Note_on_c, 13, 51, 75
23, 9600, Note_on_c, 13, 55, 75
23, 9693, Note_on_c, 13, 55, 0
23, 9693, Note_on_c, 13, 63, 0
23, 9693, Note_on_c, 13, 58, 0
23, 9693, Note_on_c, 13, 51, 0
23, 9696, Note_on_c, 13, 58, 75
23, 9696, Note_on_c, 13, 55, 75
23, 9696, Note_on_c, 13, 63, 75
23, 9696, Note_on_c, 13, 51, 75
23, 9789, Note_on_c, 13, 51, 0
23, 9789, Note_on_c, 13, 58, 0
23, 9789, Note_on_c, 13, 55, 0
23, 9789, Note_on_c, 13, 63, 0
23, 9792, Note_on_c, 13, 65, 75
23, 9792, Note_on_c, 13, 58, 75
23, 9792, Note_on_c, 13, 62, 75
23, 9792, Note_on_c, 13, 46, 75
23, 9885, Note_on_c, 13, 46, 0
23, 9885, Note_on_c, 13, 65, 0
23, 9885, Note_on_c, 13, 58, 0
23, 9885, Note_on_c, 13, 62, 0
23, 9888, Note_on_c, 13, 58, 73
23, 9888, Note_on_c, 13, 63, 75
23, 9888, Note_on_c, 13, 51, 75
23, 9888, Note_on_c, 13, 67, 75
23, 9981, Note_on_c, 13, 67, 0
23, 9981, Note_on_c, 13, 58, 0
23, 9981, Note_on_c, 13, 63, 0
23, 9981, Note_on_c, 13, 51, 0
23, 9984, Note_on_c, 13, 68, 75
23, 9984, Note_on_c, 13, 60, 75
23, 9984, Note_on_c, 13, 44, 75
23, 10748, Note_on_c, 13, 44, 0
23, 10748, Note_on_c, 13, 60, 0
23, 10748, Note_on_c, 13, 68, 0
23, 10848, Note_on_c, 13, 63, 92
23, 10848, Note_on_c, 13, 58, 92
23, 10848, Note_on_c, 13, 67, 92
23, 10848, Note_on_c, 13, 39, 92
23, 10942, Note_on_c, 13, 39, 0
23, 10942, Note_on_c, 13, 63, 0
23, 10942, Note_on_c, 13, 58, 0
23, 10942, Note_on_c, 13, 67, 0
23, 10944, Note_on_c, 13, 39, 92
23, 10944, Note_on_c, 13, 58, 92
23, 10944, Note_on_c, 13, 63, 92
23, 10944, Note_on_c, 13, 67, 92
23, 11328, Note_on_c, 13, 67, 0
23, 11328, Note_on_c, 13, 39, 0
23, 11328, Note_on_c, 13, 58, 0
23, 11328, Note_on_c, 13, 63, 0
23, 11328, Note_on_c, 13, 39, 92
23, 11328, Note_on_c, 13, 67, 92
23, 11328, Note_on_c, 13, 58, 92
23, 11328, Note_on_c, 13, 63, 92
23, 11422, Note_on_c, 13, 63, 0
23, 11422, Note_on_c, 13, 39, 0
23, 11422, Note_on_c, 13, 67, 0
23, 11422, Note_on_c, 13, 58, 0
23, 11424, Note_on_c, 13, 63, 92
23, 11424, Note_on_c, 13, 67, 92
23, 11424, Note_on_c, 13, 58, 92
23, 11424, Note_on_c, 13, 39, 92
23, 11518, Note_on_c, 13, 39, 0
23, 11518, Note_on_c, 13, 63, 0
23, 11518, Note_on_c, 13, 67, 0
23, 11518, Note_on_c, 13, 58, 0
23, 11520, Note_on_c, 13, 65, 92
23, 11520, Note_on_c, 13, 58, 92
23, 11520, Note_on_c, 13, 62, 92
23, 11520, Note_on_c, 13, 46, 92
23, 11904, Note_on_c, 13, 46, 0
23, 11904, Note_on_c, 13, 65, 0
23, 11904, Note_on_c, 13, 58, 0
23, 11904, Note_on_c, 13, 62, 0
23, 11904, Note_on_c, 13, 65, 92
23, 11904, Note_on_c, 13, 62, 92
23, 11904, Note_on_c, 13, 46, 92
23, 11904, Note_on_c, 13, 58, 92
23, 12094, Note_on_c, 13, 58, 0
23, 12094, Note_on_c, 13, 65, 0
23, 12094, Note_on_c, 13, 62, 0
23, 12094, Note_on_c, 13, 46, 0
23, 12096, Note_on_c, 13, 67, 92
23, 12096, Note_on_c, 13, 62, 92
23, 12096, Note_on_c, 13, 43, 92
23, 12096, Note_on_c, 13, 59, 92
23, 12720, Note_on_c, 13, 59, 0
23, 12720, Note_on_c, 13, 67, 0
23, 12720, Note_on_c, 13, 62, 0
23, 12720, Note_on_c, 13, 43, 0
23, 13248, Control_c, 13, 7, 120
23, 13248, Program_c, 13, 48
23, 14496, Note_on_c, 13, 53, 92
23, 14496, Note_on_c, 13, 68, 92
23, 14496, Note_on_c, 13, 65, 92
23, 14496, Note_on_c, 13, 41, 92
23, 14590, Note_on_c, 13, 41, 0
23, 14590, Note_on_c, 13, 53, 0
23, 14590, Note_on_c, 13, 68, 0
23, 14590, Note_on_c, 13, 65, 0
23, 14592, Note_on_c, 13, 41, 92
23, 14592, Note_on_c, 13, 65, 92
23, 14592, Note_on_c, 13, 53, 92
23, 14592, Note_on_c, 13, 68, 92
23, 14782, Note_on_c, 13, 68, 0
23, 14782, Note_on_c, 13, 41, 0
23, 14782, Note_on_c, 13, 65, 0
23, 14782, Note_on_c, 13, 53, 0
23, 14784, Note_on_c, 13, 65, 92
23, 14784, Note_on_c, 13, 41, 92
23, 14784, Note_on_c, 13, 68, 92
23, 14784, Note_on_c, 13, 53, 92
23, 14878, Note_on_c, 13, 53, 0
23, 14878, Note_on_c, 13, 65, 0
23, 14878, Note_on_c, 13, 41, 0
23, 14878, Note_on_c, 13, 68, 0
23, 14880, Note_on_c, 13, 53, 92
23, 14880, Note_on_c, 13, 68, 92
23, 14880, Note_on_c, 13, 41, 92
23, 14880, Note_on_c, 13, 65, 92
23, 14974, Note_on_c, 13, 65, 0
23, 14974, Note_on_c, 13, 53, 0
23, 14974, Note_on_c, 13, 68, 0
23, 14974, Note_on_c, 13, 41, 0
23, 14976, Note_on_c, 13, 67, 92
23, 14976, Note_on_c, 13, 63, 92
23, 14976, Note_on_c, 13, 51, 92
23, 14976, Note_on_c, 13, 48, 92
23, 15358, Note_on_c, 13, 48, 0
23, 15358, Note_on_c, 13, 67, 0
23, 15358, Note_on_c, 13, 63, 0
23, 15358, Note_on_c, 13, 51, 0
23, 15360, Note_on_c, 13, 48, 92
23, 15360, Note_on_c, 13, 67, 92
23, 15360, Note_on_c, 13, 63, 92
23, 15360, Note_on_c, 13, 51, 92
23, 15550, Note_on_c, 13, 51, 0
23, 15550, Note_on_c, 13, 48, 0
23, 15550, Note_on_c, 13, 67, 0
23, 15550, Note_on_c, 13, 63, 0
23, 15552, Note_on_c, 13, 67, 92
23, 15552, Note_on_c, 13, 50, 92
23, 15552, Note_on_c, 13, 43, 92
23, 15552, Note_on_c, 13, 58, 92
23, 15552, Note_on_c, 13, 55, 92
23, 15934, Note_on_c, 13, 55, 0
23, 15934, Note_on_c, 13, 43, 0
23, 15934, Note_on_c, 13, 67, 0
23, 15934, Note_on_c, 13, 50, 0
23, 15934, Note_on_c, 13, 58, 0
23, 16224, Note_on_c, 13, 68, 92
23, 16224, Note_on_c, 13, 51, 92
23, 16224, Note_on_c, 13, 44, 92
23, 16224, Note_on_c, 13, 60, 92
23, 16224, Note_on_c, 13, 68, 92
23, 16318, Note_on_c, 13, 68, 0
23, 16318, Note_on_c, 13, 44, 0
23, 16318, Note_on_c, 13, 68, 0
23, 16318, Note_on_c, 13, 51, 0
23, 16318, Note_on_c, 13, 60, 0
23, 16320, Note_on_c, 13, 68, 92
23, 16320, Note_on_c, 13, 60, 92
23, 16320, Note_on_c, 13, 51, 92
23, 16320, Note_on_c, 13, 68, 92
23, 16320, Note_on_c, 13, 44, 92
23, 16510, Note_on_c, 13, 44, 0
23, 16510, Note_on_c, 13, 51, 0
23, 16510, Note_on_c, 13, 68, 0
23, 16510, Note_on_c, 13, 60, 0
23, 16510, Note_on_c, 13, 68, 0
23, 16512, Note_on_c, 13, 65, 92
23, 16512, Note_on_c, 13, 56, 92
23, 16512, Note_on_c, 13, 53, 92
23, 16512, Note_on_c, 13, 49, 92
23, 16512, Note_on_c, 13, 68, 92
23, 16512, Note_on_c, 13, 65, 92
23, 16702, Note_on_c, 13, 65, 0
23, 16702, Note_on_c, 13, 56, 0
23, 16702, Note_on_c, 13, 53, 0
23, 16702, Note_on_c, 13, 65, 0
23, 16702, Note_on_c, 13, 68, 0
23, 16702, Note_on_c, 13, 49, 0
23, 16704, Note_on_c, 13, 70, 92
23, 16704, Note_on_c, 13, 53, 92
23, 16704, Note_on_c, 13, 61, 92
23, 16704, Note_on_c, 13, 46, 92
23, 17086, Note_on_c, 13, 46, 0
23, 17086, Note_on_c, 13, 70, 0
23, 17086, Note_on_c, 13, 53, 0
23, 17086, Note_on_c, 13, 61, 0
23, 17376, Note_on_c, 13, 67, 92
23, 17376, Note_on_c, 13, 60, 92
23, 17376, Note_on_c, 13, 48, 92
23, 17376, Note_on_c, 13, 51, 92
23, 17470, Note_on_c, 13, 51, 0
23, 17470, Note_on_c, 13, 67, 0
23, 17470, Note_on_c, 13, 60, 0
23, 17470, Note_on_c, 13, 48, 0
23, 17472, Note_on_c, 13, 67, 92
23, 17472, Note_on_c, 13, 51, 92
23, 17472, Note_on_c, 13, 48, 92
23, 17472, Note_on_c, 13, 60, 92
23, 17662, Note_on_c, 13, 60, 0
23, 17662, Note_on_c, 13, 67, 0
23, 17662, Note_on_c, 13, 51, 0
23, 17662, Note_on_c, 13, 48, 0
23, 17664, Note_on_c, 13, 53, 92
23, 17664, Note_on_c, 13, 68, 92
23, 17664, Note_on_c, 13, 60, 92
23, 17664, Note_on_c, 13, 56, 92
23, 17854, Note_on_c, 13, 56, 0
23, 17854, Note_on_c, 13, 53, 0
23, 17854, Note_on_c, 13, 68, 0
23, 17854, Note_on_c, 13, 60, 0
23, 17856, Note_on_c, 13, 61, 92
23, 17856, Note_on_c, 13, 56, 92
23, 17856, Note_on_c, 13, 49, 92
23, 17856, Note_on_c, 13, 68, 92
23, 18238, Note_on_c, 13, 68, 0
23, 18238, Note_on_c, 13, 61, 0
23, 18238, Note_on_c, 13, 56, 0
23, 18238, Note_on_c, 13, 49, 0
23, 18240, Note_on_c, 13, 61, 92
23, 18240, Note_on_c, 13, 49, 92
23, 18240, Note_on_c, 13, 68, 92
23, 18240, Note_on_c, 13, 56, 92
23, 18622, Note_on_c, 13, 56, 0
23, 18622, Note_on_c, 13, 61, 0
23, 18622, Note_on_c, 13, 49, 0
23, 18622, Note_on_c, 13, 68, 0
23, 18624, Note_on_c, 13, 49, 92
23, 18624, Note_on_c, 13, 61, 92
23, 18624, Note_on_c, 13, 68, 92
23, 18624, Note_on_c, 13, 56, 92
23, 19004, Note_on_c, 13, 56, 0
23, 19006, Note_on_c, 13, 49, 0
23, 19006, Note_on_c, 13, 61, 0
23, 19006, Note_on_c, 13, 68, 0
23, 19008, Note_on_c, 13, 55, 117
23, 19008, Note_on_c, 13, 43, 117
23, 19294, Note_on_c, 13, 43, 0
23, 19294, Note_on_c, 13, 55, 0
23, 19296, Note_on_c, 13, 47, 100
23, 19342, Note_on_c, 13, 47, 0
23, 19344, Note_on_c, 13, 47, 100
23, 19344, Note_on_c, 13, 47, 100
23, 19390, Note_on_c, 13, 47, 0
23, 19390, Note_on_c, 13, 47, 0
23, 19392, Note_on_c, 13, 50, 100
23, 19438, Note_on_c, 13, 50, 0
23, 19440, Note_on_c, 13, 50, 100
23, 19440, Note_on_c, 13, 50, 100
23, 19486, Note_on_c, 13, 50, 0
23, 19486, Note_on_c, 13, 50, 0
23, 19488, Note_on_c, 13, 55, 100
23, 19534, Note_on_c, 13, 55, 0
23, 19536, Note_on_c, 13, 55, 100
23, 19536, Note_on_c, 13, 55, 100
23, 19582, Note_on_c, 13, 55, 0
23, 19582, Note_on_c, 13, 55, 0
23, 20160, Note_on_c, 13, 60, 100
23, 20254, Note_on_c, 13, 60, 0
23, 21376, Note_on_c, 13, 42, 101
23, 21440, Note_on_c, 13, 42, 0
23, 21440, Note_on_c, 13, 43, 101
23, 21504, Note_on_c, 13, 43, 0
23, 21504, Note_on_c, 13, 48, 100
23, 21568, Note_on_c, 13, 48, 0
23, 21568, Note_on_c, 13, 51, 101
23, 21632, Note_on_c, 13, 51, 0
23, 21632, Note_on_c, 13, 54, 101
23, 21696, Note_on_c, 13, 54, 0
23, 21696, Note_on_c, 13, 55, 100
23, 21760, Note_on_c, 13, 55, 0
23, 21760, Note_on_c, 13, 60, 101
23, 21824, Note_on_c, 13, 60, 0
23, 21824, Note_on_c, 13, 63, 101
23, 21888, Note_on_c, 13, 63, 0
23, 21888, Note_on_c, 13, 66, 100
23, 22030, Note_on_c, 13, 66, 0
23, 22032, Note_on_c, 13, 67, 100
23, 22079, Note_on_c, 13, 67, 0
23, 22080, Note_on_c, 13, 67, 100
23, 22272, Note_on_c, 13, 67, 0
23, 22272, Note_on_c, 13, 55, 100
23, 22462, Note_on_c, 13, 55, 0
23, 22464, Note_on_c, 13, 48, 100
23, 22464, Note_on_c, 13, 36, 100
23, 22558, Note_on_c, 13, 36, 0
23, 22558, Note_on_c, 13, 48, 0
23, 23680, Note_on_c, 13, 43, 100
23, 23744, Note_on_c, 13, 43, 0
23, 23744, Note_on_c, 13, 44, 100
23, 23808, Note_on_c, 13, 44, 0
23, 23808, Note_on_c, 13, 49, 100
23, 23872, Note_on_c, 13, 49, 0
23, 23872, Note_on_c, 13, 52, 100
23, 23936, Note_on_c, 13, 52, 0
23, 23936, Note_on_c, 13, 53, 100
23, 24000, Note_on_c, 13, 53, 0
23, 24000, Note_on_c, 13, 56, 100
23, 24064, Note_on_c, 13, 56, 0
23, 24064, Note_on_c, 13, 61, 100
23, 24128, Note_on_c, 13, 61, 0
23, 24128, Note_on_c, 13, 65, 100
23, 24192, Note_on_c, 13, 65, 0
23, 24192, Note_on_c, 13, 67, 100
23, 24334, Note_on_c, 13, 67, 0
23, 24336, Note_on_c, 13, 68, 100
23, 24380, Note_on_c, 13, 68, 0
23, 24384, Note_on_c, 13, 68, 100
23, 24576, Note_on_c, 13, 56, 100
23, 24718, Note_on_c, 13, 68, 0
23, 24766, Note_on_c, 13, 56, 0
23, 24768, Note_on_c, 13, 44, 100
23, 24958, Note_on_c, 13, 44, 0
23, 24960, Note_on_c, 13, 56, 100
23, 25150, Note_on_c, 13, 56, 0
23, 25152, Note_on_c, 13, 44, 100
23, 25342, Note_on_c, 13, 44, 0
23, 25344, Note_on_c, 13, 42, 100
23, 25534, Note_on_c, 13, 42, 0
23, 25536, Note_on_c, 13, 54, 100
23, 25726, Note_on_c, 13, 54, 0
23, 25728, Note_on_c, 13, 53, 100
23, 25918, Note_on_c, 13, 53, 0
23, 25920, Note_on_c, 13, 51, 100
23, 26014, Note_on_c, 13, 51, 0
23, 26112, Note_on_c, 13, 59, 100
23, 26392, Note_on_c, 13, 59, 0
23, 26400, Note_on_c, 13, 58, 100
23, 26494, Note_on_c, 13, 58, 0
23, 26496, Note_on_c, 13, 57, 100
23, 26560, Note_on_c, 13, 57, 0
23, 26560, Note_on_c, 13, 58, 100
23, 26624, Note_on_c, 13, 58, 0
23, 26624, Note_on_c, 13, 59, 100
23, 26688, Note_on_c, 13, 59, 0
23, 26688, Note_on_c, 13, 58, 100
23, 26752, Note_on_c, 13, 58, 0
23, 26752, Note_on_c, 13, 54, 100
23, 26816, Note_on_c, 13, 54, 0
23, 26816, Note_on_c, 13, 51, 100
23, 26880, Note_on_c, 13, 51, 0
23, 26880, Note_on_c, 13, 47, 100
23, 26944, Note_on_c, 13, 47, 0
23, 26944, Note_on_c, 13, 45, 100
23, 27008, Note_on_c, 13, 45, 0
23, 27008, Note_on_c, 13, 46, 100
23, 27072, Note_on_c, 13, 46, 0
23, 27072, Note_on_c, 13, 39, 100
23, 27166, Note_on_c, 13, 39, 0
23, 28224, Note_on_c, 13, 51, 100
23, 28318, Note_on_c, 13, 51, 0
23, 28416, Note_on_c, 13, 59, 100
23, 28694, Note_on_c, 13, 59, 0
23, 28704, Note_on_c, 13, 58, 100
23, 28798, Note_on_c, 13, 58, 0
23, 28800, Note_on_c, 13, 56, 100
23, 28864, Note_on_c, 13, 56, 0
23, 28864, Note_on_c, 13, 58, 100
23, 28928, Note_on_c, 13, 58, 0
23, 28928, Note_on_c, 13, 61, 100
23, 28976, Note_on_c, 13, 61, 0
23, 28992, Note_on_c, 13, 59, 100
23, 29056, Note_on_c, 13, 59, 0
23, 29056, Note_on_c, 13, 56, 100
23, 29120, Note_on_c, 13, 56, 0
23, 29120, Note_on_c, 13, 51, 100
23, 29184, Note_on_c, 13, 51, 0
23, 29184, Note_on_c, 13, 49, 100
23, 29248, Note_on_c, 13, 49, 0
23, 29248, Note_on_c, 13, 46, 100
23, 29312, Note_on_c, 13, 46, 0
23, 29312, Note_on_c, 13, 47, 100
23, 29376, Note_on_c, 13, 47, 0
23, 29376, Note_on_c, 13, 39, 100
23, 29470, Note_on_c, 13, 39, 0
23, 30528, Note_on_c, 13, 49, 100
23, 30622, Note_on_c, 13, 49, 0
23, 30720, Note_on_c, 13, 62, 100
23, 30862, Note_on_c, 13, 62, 0
23, 30864, Note_on_c, 13, 61, 100
23, 30912, Note_on_c, 13, 61, 0
23, 30912, Note_on_c, 13, 49, 100
23, 31006, Note_on_c, 13, 49, 0
23, 31104, Note_on_c, 13, 54, 100
23, 31198, Note_on_c, 13, 54, 0
23, 31296, Note_on_c, 13, 64, 100
23, 31438, Note_on_c, 13, 64, 0
23, 31440, Note_on_c, 13, 62, 100
23, 31486, Note_on_c, 13, 62, 0
23, 31488, Note_on_c, 13, 50, 100
23, 31582, Note_on_c, 13, 50, 0
23, 31680, Note_on_c, 13, 55, 100
23, 31774, Note_on_c, 13, 55, 0
23, 31872, Note_on_c, 13, 65, 100
23, 32014, Note_on_c, 13, 65, 0
23, 32016, Note_on_c, 13, 64, 100
23, 32062, Note_on_c, 13, 64, 0
23, 32064, Note_on_c, 13, 57, 100
23, 32158, Note_on_c, 13, 57, 0
23, 32256, Note_on_c, 13, 67, 100
23, 32398, Note_on_c, 13, 67, 0
23, 32400, Note_on_c, 13, 66, 100
23, 32446, Note_on_c, 13, 66, 0
23, 32448, Note_on_c, 13, 59, 100
23, 32542, Note_on_c, 13, 59, 0
23, 32640, Note_on_c, 13, 69, 100
23, 32782, Note_on_c, 13, 69, 0
23, 32784, Note_on_c, 13, 68, 100
23, 32830, Note_on_c, 13, 68, 0
23, 32832, Note_on_c, 13, 61, 100
23, 32926, Note_on_c, 13, 61, 0
23, 33600, Note_on_c, 13, 57, 100
23, 33838, Note_on_c, 13, 57, 0
23, 33888, Note_on_c, 13, 56, 100
23, 33982, Note_on_c, 13, 56, 0
23, 33984, Note_on_c, 13, 52, 100
23, 34078, Note_on_c, 13, 52, 0
23, 34080, Note_on_c, 13, 51, 100
23, 34174, Note_on_c, 13, 51, 0
23, 34176, Note_on_c, 13, 49, 100
23, 34270, Note_on_c, 13, 49, 0
23, 34272, Note_on_c, 13, 48, 100
23, 34366, Note_on_c, 13, 48, 0
23, 34368, Note_on_c, 13, 49, 100
23, 34462, Note_on_c, 13, 49, 0
23, 34464, Note_on_c, 13, 52, 100
23, 34558, Note_on_c, 13, 52, 0
23, 34560, Note_on_c, 13, 56, 100
23, 34702, Note_on_c, 13, 56, 0
23, 34704, Note_on_c, 13, 61, 100
23, 34750, Note_on_c, 13, 61, 0
23, 34752, Note_on_c, 13, 64, 100
23, 35038, Note_on_c, 13, 64, 0
23, 35040, Note_on_c, 13, 61, 100
23, 35134, Note_on_c, 13, 61, 0
23, 35136, Note_on_c, 13, 56, 100
23, 35278, Note_on_c, 13, 56, 0
23, 35280, Note_on_c, 13, 52, 100
23, 35326, Note_on_c, 13, 52, 0
23, 35328, Note_on_c, 13, 49, 100
23, 35422, Note_on_c, 13, 49, 0
23, 35424, Note_on_c, 13, 49, 100
23, 35518, Note_on_c, 13, 49, 0
23, 35520, Note_on_c, 13, 51, 100
23, 35614, Note_on_c, 13, 51, 0
23, 35616, Note_on_c, 13, 53, 100
23, 35710, Note_on_c, 13, 53, 0
23, 35712, Note_on_c, 13, 54, 100
23, 35806, Note_on_c, 13, 54, 0
23, 35904, Note_on_c, 13, 50, 100
23, 36190, Note_on_c, 13, 50, 0
23, 36192, Note_on_c, 13, 49, 100
23, 36286, Note_on_c, 13, 49, 0
23, 36288, Note_on_c, 13, 45, 100
23, 36382, Note_on_c, 13, 45, 0
23, 36384, Note_on_c, 13, 44, 100
23, 36478, Note_on_c, 13, 44, 0
23, 36480, Note_on_c, 13, 42, 100
23, 36574, Note_on_c, 13, 42, 0
23, 36576, Note_on_c, 13, 41, 100
23, 36670, Note_on_c, 13, 41, 0
23, 36672, Note_on_c, 13, 42, 100
23, 36766, Note_on_c, 13, 42, 0
23, 36768, Note_on_c, 13, 45, 100
23, 36862, Note_on_c, 13, 45, 0
23, 36864, Note_on_c, 13, 49, 100
23, 37006, Note_on_c, 13, 49, 0
23, 37008, Note_on_c, 13, 54, 100
23, 37054, Note_on_c, 13, 54, 0
23, 37056, Note_on_c, 13, 57, 100
23, 37342, Note_on_c, 13, 57, 0
23, 37344, Note_on_c, 13, 54, 100
23, 37438, Note_on_c, 13, 54, 0
23, 37440, Note_on_c, 13, 49, 100
23, 37582, Note_on_c, 13, 49, 0
23, 37584, Note_on_c, 13, 45, 100
23, 37630, Note_on_c, 13, 45, 0
23, 37632, Note_on_c, 13, 42, 100
23, 37726, Note_on_c, 13, 42, 0
23, 37728, Note_on_c, 13, 54, 100
23, 37822, Note_on_c, 13, 54, 0
23, 37824, Note_on_c, 13, 56, 100
23, 37918, Note_on_c, 13, 56, 0
23, 37920, Note_on_c, 13, 58, 100
23, 38014, Note_on_c, 13, 58, 0
23, 38016, Note_on_c, 13, 59, 100
23, 38110, Note_on_c, 13, 59, 0
23, 38208, Note_on_c, 13, 64, 100
23, 38350, Note_on_c, 13, 64, 0
23, 38352, Note_on_c, 13, 62, 100
23, 38398, Note_on_c, 13, 62, 0
23, 38400, Note_on_c, 13, 55, 100
23, 38494, Note_on_c, 13, 55, 0
23, 38592, Note_on_c, 13, 65, 100
23, 38734, Note_on_c, 13, 65, 0
23, 38736, Note_on_c, 13, 64, 100
23, 38782, Note_on_c, 13, 64, 0
23, 38784, Note_on_c, 13, 57, 100
23, 38878, Note_on_c, 13, 57, 0
23, 38976, Note_on_c, 13, 67, 100
23, 39118, Note_on_c, 13, 67, 0
23, 39120, Note_on_c, 13, 66, 100
23, 39166, Note_on_c, 13, 66, 0
23, 39168, Note_on_c, 13, 59, 100
23, 39262, Note_on_c, 13, 59, 0
23, 39360, Note_on_c, 13, 69, 100
23, 39502, Note_on_c, 13, 69, 0
23, 39504, Note_on_c, 13, 68, 100
23, 39550, Note_on_c, 13, 68, 0
23, 39552, Note_on_c, 13, 66, 100
23, 39612, Note_on_c, 13, 66, 0
23, 39648, Note_on_c, 13, 63, 100
23, 39742, Note_on_c, 13, 63, 0
23, 39744, Note_on_c, 13, 60, 100
23, 39838, Note_on_c, 13, 60, 0
23, 39840, Note_on_c, 13, 57, 100
23, 39934, Note_on_c, 13, 57, 0
23, 39936, Note_on_c, 13, 54, 100
23, 40030, Note_on_c, 13, 54, 0
23, 40032, Note_on_c, 13, 51, 100
23, 40126, Note_on_c, 13, 51, 0
23, 40128, Note_on_c, 13, 48, 100
23, 40222, Note_on_c, 13, 48, 0
23, 40224, Note_on_c, 13, 47, 100
23, 40318, Note_on_c, 13, 47, 0
23, 40320, Note_on_c, 13, 46, 100
23, 40462, Note_on_c, 13, 46, 0
23, 40512, Note_on_c, 13, 45, 100
23, 40654, Note_on_c, 13, 45, 0
23, 40896, Note_on_c, 13, 66, 100
23, 41174, Note_on_c, 13, 66, 0
23, 41184, Note_on_c, 13, 65, 100
23, 41278, Note_on_c, 13, 65, 0
23, 41280, Note_on_c, 13, 63, 100
23, 41374, Note_on_c, 13, 63, 0
23, 41376, Note_on_c, 13, 59, 100
23, 41470, Note_on_c, 13, 59, 0
23, 41472, Note_on_c, 13, 58, 100
23, 41518, Note_on_c, 13, 58, 0
23, 41520, Note_on_c, 13, 57, 100
23, 41566, Note_on_c, 13, 57, 0
23, 41616, Note_on_c, 13, 54, 100
23, 41662, Note_on_c, 13, 54, 0
23, 41664, Note_on_c, 13, 51, 100
23, 41806, Note_on_c, 13, 51, 0
23, 41856, Note_on_c, 13, 49, 100
23, 41998, Note_on_c, 13, 49, 0
23, 42048, Note_on_c, 13, 47, 100
23, 42114, Note_on_c, 13, 47, 0
23, 42144, Note_on_c, 13, 59, 100
23, 42286, Note_on_c, 13, 59, 0
23, 42336, Note_on_c, 13, 54, 100
23, 42430, Note_on_c, 13, 54, 0
23, 42432, Note_on_c, 13, 51, 100
23, 42500, Note_on_c, 13, 51, 0
23, 42528, Note_on_c, 13, 47, 100
23, 42596, Note_on_c, 13, 47, 0
23, 42624, Note_on_c, 13, 42, 100
23, 43006, Note_on_c, 13, 42, 0
23, 43008, Note_on_c, 13, 44, 100
23, 43390, Note_on_c, 13, 44, 0
23, 43392, Note_on_c, 13, 51, 90
23, 43534, Note_on_c, 13, 51, 0
23, 43584, Note_on_c, 13, 45, 80
23, 43726, Note_on_c, 13, 45, 0
23, 43776, Note_on_c, 13, 46, 70
23, 54142, Note_on_c, 13, 46, 0
23, 54528, Note_on_c, 13, 46, 75
23, 54910, Note_on_c, 13, 46, 0
23, 55296, Note_on_c, 13, 46, 75
23, 55678, Note_on_c, 13, 46, 0
23, 55680, Note_on_c, 13, 46, 75
23, 56062, Note_on_c, 13, 46, 0
23, 56064, Note_on_c, 13, 46, 75
23, 56638, Note_on_c, 13, 46, 0
23, 59616, Note_on_c, 13, 56, 75
23, 59676, Note_on_c, 13, 56, 0
23, 59712, Note_on_c, 13, 53, 75
23, 59772, Note_on_c, 13, 53, 0
23, 59808, Note_on_c, 13, 51, 75
23, 59868, Note_on_c, 13, 51, 0
23, 60000, Note_on_c, 13, 47, 75
23, 60060, Note_on_c, 13, 47, 0
23, 60192, Note_on_c, 13, 51, 75
23, 60252, Note_on_c, 13, 51, 0
23, 60288, Note_on_c, 13, 47, 75
23, 60348, Note_on_c, 13, 47, 0
23, 60480, Note_on_c, 13, 46, 75
23, 60517, Note_on_c, 13, 46, 0
23, 60528, Note_on_c, 13, 46, 75
23, 60565, Note_on_c, 13, 46, 0
23, 60576, Note_on_c, 13, 48, 75
23, 60613, Note_on_c, 13, 48, 0
23, 60624, Note_on_c, 13, 50, 75
23, 60661, Note_on_c, 13, 50, 0
23, 60672, Note_on_c, 13, 51, 75
23, 60906, Note_on_c, 13, 51, 0
23, 60912, Note_on_c, 13, 50, 75
23, 60949, Note_on_c, 13, 50, 0
23, 60960, Note_on_c, 13, 51, 75
23, 60997, Note_on_c, 13, 51, 0
23, 61008, Note_on_c, 13, 52, 75
23, 61045, Note_on_c, 13, 52, 0
23, 61056, Note_on_c, 13, 54, 75
23, 61093, Note_on_c, 13, 54, 0
23, 61104, Note_on_c, 13, 51, 75
23, 61150, Note_on_c, 13, 51, 0
23, 61536, Note_on_c, 13, 51, 75
23, 61596, Note_on_c, 13, 51, 0
23, 61632, Note_on_c, 13, 50, 75
23, 61692, Note_on_c, 13, 50, 0
23, 61920, Note_on_c, 13, 47, 75
23, 61980, Note_on_c, 13, 47, 0
23, 62016, Note_on_c, 13, 46, 75
23, 62076, Note_on_c, 13, 46, 0
23, 62592, Note_on_c, 13, 54, 75
23, 62592, Note_on_c, 13, 45, 75
23, 62782, Note_on_c, 13, 45, 0
23, 62782, Note_on_c, 13, 54, 0
23, 62784, Note_on_c, 13, 46, 75
23, 62784, Note_on_c, 13, 54, 75
23, 62878, Note_on_c, 13, 54, 0
23, 62878, Note_on_c, 13, 46, 0
23, 63360, Note_on_c, 13, 50, 75
23, 63550, Note_on_c, 13, 50, 0
23, 63552, Note_on_c, 13, 51, 75
23, 63646, Note_on_c, 13, 51, 0
23, 64128, Note_on_c, 13, 53, 75
23, 64189, Note_on_c, 13, 53, 0
23, 64224, Note_on_c, 13, 54, 75
23, 64285, Note_on_c, 13, 54, 0
23, 64320, Note_on_c, 13, 56, 75
23, 64381, Note_on_c, 13, 56, 0
23, 64416, Note_on_c, 13, 57, 75
23, 64477, Note_on_c, 13, 57, 0
23, 64512, Note_on_c, 13, 53, 75
23, 64573, Note_on_c, 13, 53, 0
23, 64608, Note_on_c, 13, 54, 75
23, 64669, Note_on_c, 13, 54, 0
23, 64704, Note_on_c, 13, 50, 75
23, 64765, Note_on_c, 13, 50, 0
23, 64800, Note_on_c, 13, 51, 75
23, 64861, Note_on_c, 13, 51, 0
23, 64896, Note_on_c, 13, 44, 75
23, 64957, Note_on_c, 13, 44, 0
23, 64992, Note_on_c, 13, 45, 75
23, 65053, Note_on_c, 13, 45, 0
23, 65088, Note_on_c, 13, 41, 75
23, 65149, Note_on_c, 13, 41, 0
23, 66144, Note_on_c, 13, 47, 75
23, 66205, Note_on_c, 13, 47, 0
23, 66336, Note_on_c, 13, 47, 75
23, 66397, Note_on_c, 13, 47, 0
23, 66528, Note_on_c, 13, 47, 75
23, 66589, Note_on_c, 13, 47, 0
23, 66624, Note_on_c, 13, 46, 75
23, 66685, Note_on_c, 13, 46, 0
23, 66912, Note_on_c, 13, 54, 75
23, 66973, Note_on_c, 13, 54, 0
23, 67008, Note_on_c, 13, 53, 75
23, 67069, Note_on_c, 13, 53, 0
23, 67296, Note_on_c, 13, 51, 75
23, 67357, Note_on_c, 13, 51, 0
23, 67392, Note_on_c, 13, 51, 75
23, 67453, Note_on_c, 13, 51, 0
23, 67680, Note_on_c, 13, 48, 75
23, 67741, Note_on_c, 13, 48, 0
23, 67776, Note_on_c, 13, 46, 75
23, 67837, Note_on_c, 13, 46, 0
23, 68064, Note_on_c, 13, 44, 75
23, 68125, Note_on_c, 13, 44, 0
23, 68160, Note_on_c, 13, 45, 75
23, 68221, Note_on_c, 13, 45, 0
23, 68256, Note_on_c, 13, 57, 75
23, 68317, Note_on_c, 13, 57, 0
23, 68448, Note_on_c, 13, 56, 75
23, 68509, Note_on_c, 13, 56, 0
23, 68640, Note_on_c, 13, 51, 75
23, 68701, Note_on_c, 13, 51, 0
23, 68832, Note_on_c, 13, 44, 75
23, 68893, Note_on_c, 13, 44, 0
23, 68928, Note_on_c, 13, 42, 75
23, 68989, Note_on_c, 13, 42, 0
23, 69024, Note_on_c, 13, 57, 75
23, 69085, Note_on_c, 13, 57, 0
23, 69216, Note_on_c, 13, 56, 75
23, 69277, Note_on_c, 13, 56, 0
23, 69408, Note_on_c, 13, 51, 75
23, 69469, Note_on_c, 13, 51, 0
23, 69600, Note_on_c, 13, 44, 75
23, 69661, Note_on_c, 13, 44, 0
23, 69696, Note_on_c, 13, 42, 75
23, 69757, Note_on_c, 13, 42, 0
23, 69792, Note_on_c, 13, 54, 75
23, 69853, Note_on_c, 13, 54, 0
23, 69984, Note_on_c, 13, 54, 75
23, 70045, Note_on_c, 13, 54, 0
23, 70080, Note_on_c, 13, 55, 75
23, 70141, Note_on_c, 13, 55, 0
23, 70176, Note_on_c, 13, 56, 75
23, 70237, Note_on_c, 13, 56, 0
23, 70368, Note_on_c, 13, 55, 75
23, 70429, Note_on_c, 13, 55, 0
23, 70464, Note_on_c, 13, 56, 75
23, 70525, Note_on_c, 13, 56, 0
23, 70560, Note_on_c, 13, 57, 75
23, 70621, Note_on_c, 13, 57, 0
23, 70752, Note_on_c, 13, 56, 75
23, 70813, Note_on_c, 13, 56, 0
23, 70848, Note_on_c, 13, 57, 75
23, 70909, Note_on_c, 13, 57, 0
23, 70944, Note_on_c, 13, 58, 75
23, 71005, Note_on_c, 13, 58, 0
23, 71136, Note_on_c, 13, 57, 75
23, 71197, Note_on_c, 13, 57, 0
23, 71232, Note_on_c, 13, 58, 75
23, 71293, Note_on_c, 13, 58, 0
23, 71328, Note_on_c, 13, 59, 75
23, 71389, Note_on_c, 13, 59, 0
23, 71520, Note_on_c, 13, 58, 75
23, 71581, Note_on_c, 13, 58, 0
23, 71616, Note_on_c, 13, 59, 75
23, 71677, Note_on_c, 13, 59, 0
23, 71712, Note_on_c, 13, 60, 75
23, 71773, Note_on_c, 13, 60, 0
23, 71808, Note_on_c, 13, 53, 75
23, 71869, Note_on_c, 13, 53, 0
23, 71904, Note_on_c, 13, 54, 75
23, 71965, Note_on_c, 13, 54, 0
23, 72000, Note_on_c, 13, 48, 75
23, 72061, Note_on_c, 13, 48, 0
23, 72096, Note_on_c, 13, 49, 75
23, 72157, Note_on_c, 13, 49, 0
23, 72288, Note_on_c, 13, 61, 75
23, 72349, Note_on_c, 13, 61, 0
23, 72384, Note_on_c, 13, 62, 75
23, 72445, Note_on_c, 13, 62, 0
23, 72480, Note_on_c, 13, 63, 75
23, 72541, Note_on_c, 13, 63, 0
23, 72576, Note_on_c, 13, 56, 75
23, 72637, Note_on_c, 13, 56, 0
23, 72672, Note_on_c, 13, 57, 75
23, 72733, Note_on_c, 13, 57, 0
23, 72768, Note_on_c, 13, 50, 75
23, 72829, Note_on_c, 13, 50, 0
23, 72864, Note_on_c, 13, 51, 75
23, 72925, Note_on_c, 13, 51, 0
23, 73056, Note_on_c, 13, 51, 75
23, 73117, Note_on_c, 13, 51, 0
23, 73152, Note_on_c, 13, 52, 75
23, 73213, Note_on_c, 13, 52, 0
23, 73248, Note_on_c, 13, 53, 75
23, 73309, Note_on_c, 13, 53, 0
23, 73440, Note_on_c, 13, 52, 75
23, 73501, Note_on_c, 13, 52, 0
23, 73536, Note_on_c, 13, 53, 75
23, 73597, Note_on_c, 13, 53, 0
23, 73632, Note_on_c, 13, 54, 75
23, 73693, Note_on_c, 13, 54, 0
23, 73824, Note_on_c, 13, 53, 75
23, 73885, Note_on_c, 13, 53, 0
23, 73920, Note_on_c, 13, 54, 75
23, 73981, Note_on_c, 13, 54, 0
23, 74016, Note_on_c, 13, 55, 75
23, 74077, Note_on_c, 13, 55, 0
23, 74208, Note_on_c, 13, 55, 75
23, 74269, Note_on_c, 13, 55, 0
23, 74304, Note_on_c, 13, 56, 75
23, 74365, Note_on_c, 13, 56, 0
23, 74400, Note_on_c, 13, 57, 75
23, 74461, Note_on_c, 13, 57, 0
23, 74496, Note_on_c, 13, 58, 75
23, 74557, Note_on_c, 13, 58, 0
23, 74688, Note_on_c, 13, 58, 75
23, 74878, Note_on_c, 13, 58, 0
23, 75072, Note_on_c, 13, 46, 75
23, 75072, Note_on_c, 13, 54, 75
23, 75072, Note_on_c, 13, 63, 75
23, 75166, Note_on_c, 13, 63, 0
23, 75166, Note_on_c, 13, 54, 0
23, 75166, Note_on_c, 13, 46, 0
23, 75264, Note_on_c, 13, 63, 75
23, 75264, Note_on_c, 13, 46, 75
23, 75264, Note_on_c, 13, 54, 75
23, 75358, Note_on_c, 13, 54, 0
23, 75358, Note_on_c, 13, 46, 0
23, 75358, Note_on_c, 13, 63, 0
23, 75456, Note_on_c, 13, 63, 75
23, 75456, Note_on_c, 13, 46, 75
23, 75456, Note_on_c, 13, 54, 75
23, 75550, Note_on_c, 13, 54, 0
23, 75550, Note_on_c, 13, 46, 0
23, 75550, Note_on_c, 13, 63, 0
23, 75648, Note_on_c, 13, 46, 75
23, 76030, Note_on_c, 13, 46, 0
23, 76032, Note_on_c, 13, 51, 75
23, 76126, Note_on_c, 13, 51, 0
23, 76464, Note_on_c, 13, 50, 75
23, 76510, Note_on_c, 13, 50, 0
23, 76512, Note_on_c, 13, 51, 75
23, 76558, Note_on_c, 13, 51, 0
23, 76560, Note_on_c, 13, 53, 75
23, 76606, Note_on_c, 13, 53, 0
23, 76608, Note_on_c, 13, 54, 75
23, 76654, Note_on_c, 13, 54, 0
23, 76656, Note_on_c, 13, 53, 75
23, 76702, Note_on_c, 13, 53, 0
23, 76704, Note_on_c, 13, 54, 75
23, 76750, Note_on_c, 13, 54, 0
23, 76752, Note_on_c, 13, 56, 75
23, 76798, Note_on_c, 13, 56, 0
23, 76800, Note_on_c, 13, 58, 75
23, 76894, Note_on_c, 13, 58, 0
23, 77280, Note_on_c, 13, 59, 75
23, 77374, Note_on_c, 13, 59, 0
23, 77376, Note_on_c, 13, 58, 75
23, 77470, Note_on_c, 13, 58, 0
23, 77472, Note_on_c, 13, 56, 75
23, 77566, Note_on_c, 13, 56, 0
23, 77568, Note_on_c, 13, 54, 75
23, 77662, Note_on_c, 13, 54, 0
23, 78000, Note_on_c, 13, 53, 75
23, 78046, Note_on_c, 13, 53, 0
23, 78048, Note_on_c, 13, 54, 75
23, 78094, Note_on_c, 13, 54, 0
23, 78096, Note_on_c, 13, 56, 75
23, 78142, Note_on_c, 13, 56, 0
23, 78144, Note_on_c, 13, 58, 75
23, 78190, Note_on_c, 13, 58, 0
23, 78192, Note_on_c, 13, 56, 75
23, 78238, Note_on_c, 13, 56, 0
23, 78240, Note_on_c, 13, 58, 75
23, 78286, Note_on_c, 13, 58, 0
23, 78288, Note_on_c, 13, 59, 75
23, 78334, Note_on_c, 13, 59, 0
23, 78336, Note_on_c, 13, 61, 75
23, 78382, Note_on_c, 13, 61, 0
23, 78384, Note_on_c, 13, 54, 75
23, 78430, Note_on_c, 13, 54, 0
23, 78816, Note_on_c, 13, 63, 75
23, 78910, Note_on_c, 13, 63, 0
23, 78912, Note_on_c, 13, 62, 75
23, 79006, Note_on_c, 13, 62, 0
23, 79008, Note_on_c, 13, 60, 75
23, 79102, Note_on_c, 13, 60, 0
23, 79104, Note_on_c, 13, 58, 75
23, 79150, Note_on_c, 13, 58, 0
23, 79152, Note_on_c, 13, 46, 75
23, 79198, Note_on_c, 13, 46, 0
23, 79200, Note_on_c, 13, 48, 75
23, 79246, Note_on_c, 13, 48, 0
23, 79248, Note_on_c, 13, 50, 75
23, 79294, Note_on_c, 13, 50, 0
23, 79296, Note_on_c, 13, 51, 75
23, 79342, Note_on_c, 13, 51, 0
23, 79344, Note_on_c, 13, 53, 75
23, 79390, Note_on_c, 13, 53, 0
23, 79392, Note_on_c, 13, 55, 75
23, 79438, Note_on_c, 13, 55, 0
23, 79440, Note_on_c, 13, 57, 75
23, 79486, Note_on_c, 13, 57, 0
23, 79488, Note_on_c, 13, 58, 75
23, 79534, Note_on_c, 13, 58, 0
23, 79536, Note_on_c, 13, 53, 75
23, 79582, Note_on_c, 13, 53, 0
23, 79584, Note_on_c, 13, 52, 75
23, 79630, Note_on_c, 13, 52, 0
23, 79632, Note_on_c, 13, 51, 75
23, 79678, Note_on_c, 13, 51, 0
23, 79680, Note_on_c, 13, 50, 75
23, 79726, Note_on_c, 13, 50, 0
23, 79728, Note_on_c, 13, 49, 75
23, 79774, Note_on_c, 13, 49, 0
23, 79776, Note_on_c, 13, 48, 75
23, 79822, Note_on_c, 13, 48, 0
23, 79824, Note_on_c, 13, 47, 75
23, 79870, Note_on_c, 13, 47, 0
23, 79872, Note_on_c, 13, 46, 75
23, 79966, Note_on_c, 13, 46, 0
23, 80304, Note_on_c, 13, 60, 75
23, 80350, Note_on_c, 13, 60, 0
23, 80352, Note_on_c, 13, 59, 75
23, 80398, Note_on_c, 13, 59, 0
23, 80400, Note_on_c, 13, 58, 75
23, 80446, Note_on_c, 13, 58, 0
23, 80448, Note_on_c, 13, 57, 75
23, 80494, Note_on_c, 13, 57, 0
23, 80496, Note_on_c, 13, 55, 75
23, 80542, Note_on_c, 13, 55, 0
23, 80544, Note_on_c, 13, 53, 75
23, 80590, Note_on_c, 13, 53, 0
23, 80592, Note_on_c, 13, 51, 75
23, 80638, Note_on_c, 13, 51, 0
23, 80640, Note_on_c, 13, 50, 75
23, 80734, Note_on_c, 13, 50, 0
23, 81072, Note_on_c, 13, 56, 75
23, 81118, Note_on_c, 13, 56, 0
23, 81120, Note_on_c, 13, 55, 75
23, 81166, Note_on_c, 13, 55, 0
23, 81168, Note_on_c, 13, 54, 75
23, 81214, Note_on_c, 13, 54, 0
23, 81216, Note_on_c, 13, 53, 75
23, 81262, Note_on_c, 13, 53, 0
23, 81264, Note_on_c, 13, 51, 75
23, 81310, Note_on_c, 13, 51, 0
23, 81312, Note_on_c, 13, 50, 75
23, 81358, Note_on_c, 13, 50, 0
23, 81360, Note_on_c, 13, 48, 75
23, 81406, Note_on_c, 13, 48, 0
23, 81408, Note_on_c, 13, 46, 75
23, 81502, Note_on_c, 13, 46, 0
23, 81840, Note_on_c, 13, 41, 75
23, 81886, Note_on_c, 13, 41, 0
23, 81888, Note_on_c, 13, 42, 75
23, 81934, Note_on_c, 13, 42, 0
23, 81936, Note_on_c, 13, 43, 75
23, 81982, Note_on_c, 13, 43, 0
23, 81984, Note_on_c, 13, 44, 75
23, 82030, Note_on_c, 13, 44, 0
23, 82032, Note_on_c, 13, 45, 75
23, 82078, Note_on_c, 13, 45, 0
23, 82080, Note_on_c, 13, 46, 75
23, 82126, Note_on_c, 13, 46, 0
23, 82128, Note_on_c, 13, 48, 75
23, 82174, Note_on_c, 13, 48, 0
23, 82176, Note_on_c, 13, 50, 75
23, 82222, Note_on_c, 13, 50, 0
23, 82224, Note_on_c, 13, 58, 75
23, 82270, Note_on_c, 13, 58, 0
23, 82272, Note_on_c, 13, 57, 75
23, 82318, Note_on_c, 13, 57, 0
23, 82320, Note_on_c, 13, 55, 75
23, 82366, Note_on_c, 13, 55, 0
23, 82368, Note_on_c, 13, 53, 75
23, 82414, Note_on_c, 13, 53, 0
23, 82416, Note_on_c, 13, 51, 75
23, 82462, Note_on_c, 13, 51, 0
23, 82464, Note_on_c, 13, 50, 75
23, 82510, Note_on_c, 13, 50, 0
23, 82512, Note_on_c, 13, 48, 75
23, 82558, Note_on_c, 13, 48, 0
23, 82560, Note_on_c, 13, 46, 75
23, 82654, Note_on_c, 13, 46, 0
23, 83424, Note_on_c, 13, 55, 75
23, 83518, Note_on_c, 13, 55, 0
23, 83520, Note_on_c, 13, 53, 75
23, 83614, Note_on_c, 13, 53, 0
23, 83616, Note_on_c, 13, 52, 75
23, 83710, Note_on_c, 13, 52, 0
23, 83712, Note_on_c, 13, 50, 75
23, 83806, Note_on_c, 13, 50, 0
23, 84144, Note_on_c, 13, 49, 75
23, 84190, Note_on_c, 13, 49, 0
23, 84192, Note_on_c, 13, 50, 75
23, 84238, Note_on_c, 13, 50, 0
23, 84240, Note_on_c, 13, 52, 75
23, 84286, Note_on_c, 13, 52, 0
23, 84288, Note_on_c, 13, 53, 75
23, 84334, Note_on_c, 13, 53, 0
23, 84336, Note_on_c, 13, 52, 75
23, 84382, Note_on_c, 13, 52, 0
23, 84384, Note_on_c, 13, 53, 75
23, 84430, Note_on_c, 13, 53, 0
23, 84432, Note_on_c, 13, 55, 75
23, 84478, Note_on_c, 13, 55, 0
23, 84480, Note_on_c, 13, 57, 75
23, 84574, Note_on_c, 13, 57, 0
23, 84960, Note_on_c, 13, 58, 75
23, 85054, Note_on_c, 13, 58, 0
23, 85056, Note_on_c, 13, 57, 75
23, 85150, Note_on_c, 13, 57, 0
23, 85152, Note_on_c, 13, 55, 75
23, 85246, Note_on_c, 13, 55, 0
23, 85248, Note_on_c, 13, 53, 75
23, 85294, Note_on_c, 13, 53, 0
23, 85296, Note_on_c, 13, 41, 75
23, 85342, Note_on_c, 13, 41, 0
23, 85344, Note_on_c, 13, 43, 75
23, 85390, Note_on_c, 13, 43, 0
23, 85392, Note_on_c, 13, 45, 75
23, 85438, Note_on_c, 13, 45, 0
23, 85440, Note_on_c, 13, 46, 75
23, 85486, Note_on_c, 13, 46, 0
23, 85488, Note_on_c, 13, 48, 75
23, 85534, Note_on_c, 13, 48, 0
23, 85536, Note_on_c, 13, 50, 75
23, 85582, Note_on_c, 13, 50, 0
23, 85584, Note_on_c, 13, 52, 75
23, 85630, Note_on_c, 13, 52, 0
23, 85632, Note_on_c, 13, 53, 75
23, 85678, Note_on_c, 13, 53, 0
23, 85680, Note_on_c, 13, 48, 75
23, 85726, Note_on_c, 13, 48, 0
23, 85728, Note_on_c, 13, 47, 75
23, 85774, Note_on_c, 13, 47, 0
23, 85776, Note_on_c, 13, 46, 75
23, 85822, Note_on_c, 13, 46, 0
23, 85824, Note_on_c, 13, 45, 75
23, 85870, Note_on_c, 13, 45, 0
23, 85872, Note_on_c, 13, 44, 75
23, 85918, Note_on_c, 13, 44, 0
23, 85920, Note_on_c, 13, 43, 75
23, 85966, Note_on_c, 13, 43, 0
23, 85968, Note_on_c, 13, 42, 75
23, 86014, Note_on_c, 13, 42, 0
23, 86016, Note_on_c, 13, 41, 75
23, 86110, Note_on_c, 13, 41, 0
23, 86448, Note_on_c, 13, 55, 75
23, 86494, Note_on_c, 13, 55, 0
23, 86496, Note_on_c, 13, 54, 75
23, 86542, Note_on_c, 13, 54, 0
23, 86544, Note_on_c, 13, 53, 75
23, 86590, Note_on_c, 13, 53, 0
23, 86592, Note_on_c, 13, 52, 75
23, 86638, Note_on_c, 13, 52, 0
23, 86640, Note_on_c, 13, 50, 75
23, 86686, Note_on_c, 13, 50, 0
23, 86688, Note_on_c, 13, 48, 75
23, 86734, Note_on_c, 13, 48, 0
23, 86736, Note_on_c, 13, 46, 75
23, 86782, Note_on_c, 13, 46, 0
23, 86784, Note_on_c, 13, 45, 75
23, 86878, Note_on_c, 13, 45, 0
23, 87216, Note_on_c, 13, 63, 75
23, 87262, Note_on_c, 13, 63, 0
23, 87264, Note_on_c, 13, 62, 75
23, 87310, Note_on_c, 13, 62, 0
23, 87312, Note_on_c, 13, 61, 75
23, 87358, Note_on_c, 13, 61, 0
23, 87360, Note_on_c, 13, 60, 75
23, 87406, Note_on_c, 13, 60, 0
23, 87408, Note_on_c, 13, 58, 75
23, 87454, Note_on_c, 13, 58, 0
23, 87456, Note_on_c, 13, 57, 75
23, 87502, Note_on_c, 13, 57, 0
23, 87504, Note_on_c, 13, 55, 75
23, 87550, Note_on_c, 13, 55, 0
23, 87552, Note_on_c, 13, 53, 75
23, 87646, Note_on_c, 13, 53, 0
23, 87984, Note_on_c, 13, 48, 75
23, 88030, Note_on_c, 13, 48, 0
23, 88032, Note_on_c, 13, 49, 75
23, 88078, Note_on_c, 13, 49, 0
23, 88080, Note_on_c, 13, 50, 75
23, 88126, Note_on_c, 13, 50, 0
23, 88128, Note_on_c, 13, 51, 75
23, 88174, Note_on_c, 13, 51, 0
23, 88176, Note_on_c, 13, 52, 75
23, 88222, Note_on_c, 13, 52, 0
23, 88224, Note_on_c, 13, 53, 75
23, 88270, Note_on_c, 13, 53, 0
23, 88272, Note_on_c, 13, 55, 75
23, 88318, Note_on_c, 13, 55, 0
23, 88320, Note_on_c, 13, 57, 75
23, 88366, Note_on_c, 13, 57, 0
23, 88368, Note_on_c, 13, 53, 75
23, 88414, Note_on_c, 13, 53, 0
23, 88416, Note_on_c, 13, 52, 75
23, 88462, Note_on_c, 13, 52, 0
23, 88464, Note_on_c, 13, 50, 75
23, 88510, Note_on_c, 13, 50, 0
23, 88512, Note_on_c, 13, 48, 75
23, 88558, Note_on_c, 13, 48, 0
23, 88560, Note_on_c, 13, 46, 75
23, 88606, Note_on_c, 13, 46, 0
23, 88608, Note_on_c, 13, 45, 75
23, 88654, Note_on_c, 13, 45, 0
23, 88656, Note_on_c, 13, 43, 75
23, 88702, Note_on_c, 13, 43, 0
23, 88704, Note_on_c, 13, 41, 75
23, 88798, Note_on_c, 13, 41, 0
23, 89136, Note_on_c, 13, 55, 75
23, 89182, Note_on_c, 13, 55, 0
23, 89184, Note_on_c, 13, 53, 75
23, 89230, Note_on_c, 13, 53, 0
23, 89232, Note_on_c, 13, 52, 75
23, 89278, Note_on_c, 13, 52, 0
23, 89280, Note_on_c, 13, 50, 75
23, 89326, Note_on_c, 13, 50, 0
23, 89328, Note_on_c, 13, 49, 75
23, 89374, Note_on_c, 13, 49, 0
23, 89376, Note_on_c, 13, 48, 75
23, 89422, Note_on_c, 13, 48, 0
23, 89424, Note_on_c, 13, 47, 75
23, 89470, Note_on_c, 13, 47, 0
23, 89472, Note_on_c, 13, 45, 75
23, 89566, Note_on_c, 13, 45, 0
23, 89904, Note_on_c, 13, 58, 75
23, 89950, Note_on_c, 13, 58, 0
23, 89952, Note_on_c, 13, 57, 75
23, 89998, Note_on_c, 13, 57, 0
23, 90000, Note_on_c, 13, 55, 75
23, 90046, Note_on_c, 13, 55, 0
23, 90048, Note_on_c, 13, 53, 75
23, 90094, Note_on_c, 13, 53, 0
23, 90096, Note_on_c, 13, 52, 75
23, 90142, Note_on_c, 13, 52, 0
23, 90144, Note_on_c, 13, 51, 75
23, 90190, Note_on_c, 13, 51, 0
23, 90192, Note_on_c, 13, 50, 75
23, 90238, Note_on_c, 13, 50, 0
23, 90240, Note_on_c, 13, 48, 75
23, 90334, Note_on_c, 13, 48, 0
23, 90720, Note_on_c, 13, 51, 75
23, 90720, Note_on_c, 13, 60, 75
23, 90910, Note_on_c, 13, 60, 0
23, 90910, Note_on_c, 13, 51, 0
23, 91104, Note_on_c, 13, 57, 75
23, 91104, Note_on_c, 13, 54, 75
23, 91294, Note_on_c, 13, 54, 0
23, 91294, Note_on_c, 13, 57, 0
23, 91584, Note_on_c, 13, 57, 75
23, 91584, Note_on_c, 13, 51, 75
23, 91678, Note_on_c, 13, 51, 0
23, 91678, Note_on_c, 13, 57, 0
23, 91968, Note_on_c, 13, 57, 75
23, 91968, Note_on_c, 13, 51, 75
23, 92062, Note_on_c, 13, 51, 0
23, 92062, Note_on_c, 13, 57, 0
23, 92160, Note_on_c, 13, 51, 75
23, 92160, Note_on_c, 13, 57, 75
23, 92254, Note_on_c, 13, 57, 0
23, 92254, Note_on_c, 13, 51, 0
23, 92352, Note_on_c, 13, 48, 75
23, 92446, Note_on_c, 13, 48, 0
23, 92544, Note_on_c, 13, 48, 75
23, 92638, Note_on_c, 13, 48, 0
23, 92736, Note_on_c, 13, 48, 75
23, 92830, Note_on_c, 13, 48, 0
23, 92928, Note_on_c, 13, 48, 75
23, 93022, Note_on_c, 13, 48, 0
23, 93216, Note_on_c, 13, 48, 75
23, 93310, Note_on_c, 13, 48, 0
23, 93312, Note_on_c, 13, 47, 75
23, 93406, Note_on_c, 13, 47, 0
23, 93600, Note_on_c, 13, 47, 75
23, 93694, Note_on_c, 13, 47, 0
23, 93696, Note_on_c, 13, 46, 75
23, 93790, Note_on_c, 13, 46, 0
23, 93792, Note_on_c, 13, 46, 75
23, 93982, Note_on_c, 13, 46, 0
23, 93984, Note_on_c, 13, 46, 75
23, 94174, Note_on_c, 13, 46, 0
23, 94176, Note_on_c, 13, 46, 75
23, 94270, Note_on_c, 13, 46, 0
23, 94272, Note_on_c, 13, 45, 75
23, 94366, Note_on_c, 13, 45, 0
23, 94560, Note_on_c, 13, 44, 75
23, 94654, Note_on_c, 13, 44, 0
23, 94656, Note_on_c, 13, 56, 75
23, 94750, Note_on_c, 13, 56, 0
23, 95136, Note_on_c, 13, 56, 75
23, 95136, Note_on_c, 13, 65, 75
23, 95230, Note_on_c, 13, 65, 0
23, 95230, Note_on_c, 13, 56, 0
23, 95328, Note_on_c, 13, 65, 75
23, 95328, Note_on_c, 13, 56, 75
23, 95422, Note_on_c, 13, 56, 0
23, 95422, Note_on_c, 13, 65, 0
23, 95520, Note_on_c, 13, 63, 75
23, 95520, Note_on_c, 13, 53, 75
23, 95614, Note_on_c, 13, 53, 0
23, 95614, Note_on_c, 13, 63, 0
23, 95712, Note_on_c, 13, 51, 75
23, 95712, Note_on_c, 13, 59, 75
23, 95806, Note_on_c, 13, 59, 0
23, 95806, Note_on_c, 13, 51, 0
23, 95808, Note_on_c, 13, 58, 75
23, 95808, Note_on_c, 13, 50, 75
23, 95902, Note_on_c, 13, 50, 0
23, 95902, Note_on_c, 13, 58, 0
23, 96096, Note_on_c, 13, 54, 75
23, 96190, Note_on_c, 13, 54, 0
23, 96192, Note_on_c, 13, 53, 75
23, 96286, Note_on_c, 13, 53, 0
23, 96480, Note_on_c, 13, 53, 75
23, 96574, Note_on_c, 13, 53, 0
23, 96576, Note_on_c, 13, 49, 75
23, 96622, Note_on_c, 13, 49, 0
23, 96624, Note_on_c, 13, 51, 75
23, 96670, Note_on_c, 13, 51, 0
23, 96672, Note_on_c, 13, 53, 75
23, 96718, Note_on_c, 13, 53, 0
23, 96720, Note_on_c, 13, 55, 75
23, 96766, Note_on_c, 13, 55, 0
23, 96768, Note_on_c, 13, 56, 75
23, 97006, Note_on_c, 13, 56, 0
23, 97008, Note_on_c, 13, 55, 75
23, 97054, Note_on_c, 13, 55, 0
23, 97056, Note_on_c, 13, 56, 75
23, 97102, Note_on_c, 13, 56, 0
23, 97104, Note_on_c, 13, 58, 75
23, 97150, Note_on_c, 13, 58, 0
23, 97152, Note_on_c, 13, 61, 75
23, 97198, Note_on_c, 13, 61, 0
23, 97200, Note_on_c, 13, 59, 75
23, 97246, Note_on_c, 13, 59, 0
23, 97392, Note_on_c, 13, 58, 75
23, 97438, Note_on_c, 13, 58, 0
23, 97440, Note_on_c, 13, 59, 75
23, 97486, Note_on_c, 13, 59, 0
23, 97488, Note_on_c, 13, 62, 75
23, 97534, Note_on_c, 13, 62, 0
23, 97536, Note_on_c, 13, 65, 75
23, 97582, Note_on_c, 13, 65, 0
23, 97584, Note_on_c, 13, 63, 75
23, 97630, Note_on_c, 13, 63, 0
23, 97776, Note_on_c, 13, 62, 75
23, 97822, Note_on_c, 13, 62, 0
23, 97824, Note_on_c, 13, 63, 75
23, 97870, Note_on_c, 13, 63, 0
23, 97872, Note_on_c, 13, 65, 75
23, 97918, Note_on_c, 13, 65, 0
23, 97920, Note_on_c, 13, 68, 75
23, 97966, Note_on_c, 13, 68, 0
23, 97968, Note_on_c, 13, 66, 75
23, 98014, Note_on_c, 13, 66, 0
23, 98160, Note_on_c, 13, 65, 75
23, 98206, Note_on_c, 13, 65, 0
23, 98208, Note_on_c, 13, 66, 75
23, 98254, Note_on_c, 13, 66, 0
23, 98256, Note_on_c, 13, 68, 75
23, 98302, Note_on_c, 13, 68, 0
23, 100992, Note_on_c, 13, 57, 75
23, 101086, Note_on_c, 13, 57, 0
23, 109824, Note_on_c, 13, 50, 75
23, 111358, Note_on_c, 13, 50, 0
23, 111360, Note_on_c, 13, 49, 75
23, 112126, Note_on_c, 13, 49, 0
23, 112128, Note_on_c, 13, 49, 75
23, 112894, Note_on_c, 13, 49, 0
23, 112896, Note_on_c, 13, 49, 75
23, 113662, Note_on_c, 13, 49, 0
23, 113664, Note_on_c, 13, 49, 75
23, 114430, Note_on_c, 13, 49, 0
23, 114432, Note_on_c, 13, 49, 75
23, 115198, Note_on_c, 13, 49, 0
23, 115200, Note_on_c, 13, 49, 75
23, 115966, Note_on_c, 13, 49, 0
23, 115968, Note_on_c, 13, 49, 75
23, 116734, Note_on_c, 13, 49, 0
23, 116736, Note_on_c, 13, 49, 75
23, 117502, Note_on_c, 13, 49, 0
23, 117504, Note_on_c, 13, 49, 75
23, 118270, Note_on_c, 13, 49, 0
23, 118272, Note_on_c, 13, 49, 75
23, 119038, Note_on_c, 13, 49, 0
23, 119040, Note_on_c, 13, 49, 75
23, 119806, Note_on_c, 13, 49, 0
23, 119808, Note_on_c, 13, 54, 75
23, 120190, Note_on_c, 13, 54, 0
23, 120192, Note_on_c, 13, 50, 75
23, 120574, Note_on_c, 13, 50, 0
23, 120576, Note_on_c, 13, 43, 75
23, 120958, Note_on_c, 13, 43, 0
23, 120960, Note_on_c, 13, 50, 75
23, 121342, Note_on_c, 13, 50, 0
23, 121344, Note_on_c, 13, 55, 75
23, 121344, Note_on_c, 13, 43, 75
23, 121726, Note_on_c, 13, 43, 0
23, 121726, Note_on_c, 13, 55, 0
23, 121728, Note_on_c, 13, 50, 75
23, 122110, Note_on_c, 13, 50, 0
23, 122112, Note_on_c, 13, 43, 75
23, 122494, Note_on_c, 13, 43, 0
23, 122496, Note_on_c, 13, 50, 75
23, 122878, Note_on_c, 13, 50, 0
23, 122880, Note_on_c, 13, 43, 75
23, 122880, Note_on_c, 13, 55, 75
23, 123262, Note_on_c, 13, 55, 0
23, 123262, Note_on_c, 13, 43, 0
23, 123264, Note_on_c, 13, 50, 75
23, 123646, Note_on_c, 13, 50, 0
23, 123648, Note_on_c, 13, 43, 75
23, 124030, Note_on_c, 13, 43, 0
23, 124032, Note_on_c, 13, 50, 75
23, 124414, Note_on_c, 13, 50, 0
23, 124416, Note_on_c, 13, 55, 75
23, 124798, Note_on_c, 13, 55, 0
23, 124800, Note_on_c, 13, 50, 75
23, 125182, Note_on_c, 13, 50, 0
23, 125184, Note_on_c, 13, 51, 75
23, 125566, Note_on_c, 13, 51, 0
23, 125568, Note_on_c, 13, 47, 75
23, 125950, Note_on_c, 13, 47, 0
23, 125952, Note_on_c, 13, 51, 75
23, 126334, Note_on_c, 13, 51, 0
23, 126336, Note_on_c, 13, 47, 75
23, 126718, Note_on_c, 13, 47, 0
23, 126720, Note_on_c, 13, 51, 75
23, 127102, Note_on_c, 13, 51, 0
23, 127104, Note_on_c, 13, 47, 75
23, 127486, Note_on_c, 13, 47, 0
23, 127488, Note_on_c, 13, 51, 75
23, 127870, Note_on_c, 13, 51, 0
23, 127872, Note_on_c, 13, 47, 69
23, 128254, Note_on_c, 13, 47, 0
23, 128256, Note_on_c, 13, 46, 65
23, 131326, Note_on_c, 13, 46, 0
23, 131328, Note_on_c, 13, 46, 65
23, 131710, Note_on_c, 13, 46, 0
23, 131712, Note_on_c, 13, 46, 65
23, 131902, Note_on_c, 13, 46, 0
23, 131904, Note_on_c, 13, 46, 61
23, 134974, Note_on_c, 13, 46, 0
23, 134976, Note_on_c, 13, 46, 61
23, 136128, Note_on_c, 13, 46, 61
23, 136510, Note_on_c, 13, 46, 0
23, 139486, Note_on_c, 13, 46, 0
23, 140544, Note_on_c, 13, 46, 61
23, 142174, Note_on_c, 13, 46, 0
23, 143712, Note_on_c, 13, 51, 75
23, 143854, Note_on_c, 13, 51, 0
23, 143904, Note_on_c, 13, 53, 75
23, 143998, Note_on_c, 13, 53, 0
23, 144000, Note_on_c, 13, 54, 75
23, 144142, Note_on_c, 13, 54, 0
23, 144192, Note_on_c, 13, 56, 75
23, 144334, Note_on_c, 13, 56, 0
23, 144480, Note_on_c, 13, 51, 75
23, 144622, Note_on_c, 13, 51, 0
23, 144672, Note_on_c, 13, 53, 75
23, 144766, Note_on_c, 13, 53, 0
23, 144768, Note_on_c, 13, 54, 75
23, 144910, Note_on_c, 13, 54, 0
23, 144960, Note_on_c, 13, 56, 75
23, 145102, Note_on_c, 13, 56, 0
23, 145248, Note_on_c, 13, 51, 75
23, 145390, Note_on_c, 13, 51, 0
23, 145440, Note_on_c, 13, 53, 75
23, 145534, Note_on_c, 13, 53, 0
23, 145536, Note_on_c, 13, 54, 75
23, 145678, Note_on_c, 13, 54, 0
23, 145728, Note_on_c, 13, 56, 75
23, 145870, Note_on_c, 13, 56, 0
23, 146016, Note_on_c, 13, 51, 75
23, 146158, Note_on_c, 13, 51, 0
23, 146208, Note_on_c, 13, 53, 75
23, 146302, Note_on_c, 13, 53, 0
23, 146304, Note_on_c, 13, 54, 75
23, 146446, Note_on_c, 13, 54, 0
23, 146496, Note_on_c, 13, 56, 75
23, 146638, Note_on_c, 13, 56, 0
23, 146784, Note_on_c, 13, 51, 75
23, 146974, Note_on_c, 13, 51, 0
23, 146976, Note_on_c, 13, 53, 75
23, 147070, Note_on_c, 13, 53, 0
23, 147072, Note_on_c, 13, 54, 75
23, 147214, Note_on_c, 13, 54, 0
23, 147264, Note_on_c, 13, 56, 75
23, 147406, Note_on_c, 13, 56, 0
23, 147552, Note_on_c, 13, 51, 75
23, 147742, Note_on_c, 13, 51, 0
23, 147744, Note_on_c, 13, 53, 75
23, 147838, Note_on_c, 13, 53, 0
23, 147840, Note_on_c, 13, 54, 75
23, 147982, Note_on_c, 13, 54, 0
23, 148032, Note_on_c, 13, 56, 75
23, 148174, Note_on_c, 13, 56, 0
23, 148320, Note_on_c, 13, 51, 75
23, 148462, Note_on_c, 13, 51, 0
23, 148512, Note_on_c, 13, 53, 75
23, 148606, Note_on_c, 13, 53, 0
23, 148608, Note_on_c, 13, 54, 75
23, 148750, Note_on_c, 13, 54, 0
23, 148800, Note_on_c, 13, 56, 75
23, 148942, Note_on_c, 13, 56, 0
23, 149088, Note_on_c, 13, 51, 75
23, 149230, Note_on_c, 13, 51, 0
23, 149280, Note_on_c, 13, 53, 75
23, 149374, Note_on_c, 13, 53, 0
23, 149376, Note_on_c, 13, 54, 75
23, 149518, Note_on_c, 13, 54, 0
23, 149568, Note_on_c, 13, 56, 75
23, 149710, Note_on_c, 13, 56, 0
23, 149856, Note_on_c, 13, 51, 75
23, 149998, Note_on_c, 13, 51, 0
23, 150048, Note_on_c, 13, 53, 75
23, 150142, Note_on_c, 13, 53, 0
23, 150144, Note_on_c, 13, 54, 75
23, 150286, Note_on_c, 13, 54, 0
23, 150336, Note_on_c, 13, 56, 75
23, 150478, Note_on_c, 13, 56, 0
23, 150624, Note_on_c, 13, 51, 75
23, 150814, Note_on_c, 13, 51, 0
23, 150816, Note_on_c, 13, 53, 75
23, 150910, Note_on_c, 13, 53, 0
23, 150912, Note_on_c, 13, 54, 75
23, 151054, Note_on_c, 13, 54, 0
23, 151104, Note_on_c, 13, 53, 75
23, 151246, Note_on_c, 13, 53, 0
23, 151392, Note_on_c, 13, 51, 75
23, 151582, Note_on_c, 13, 51, 0
23, 151584, Note_on_c, 13, 53, 75
23, 151678, Note_on_c, 13, 53, 0
23, 151680, Note_on_c, 13, 54, 75
23, 151822, Note_on_c, 13, 54, 0
23, 151872, Note_on_c, 13, 53, 75
23, 152014, Note_on_c, 13, 53, 0
23, 152064, Note_on_c, 13, 54, 75
23, 152158, Note_on_c, 13, 54, 0
23, 152160, Note_on_c, 13, 51, 75
23, 152350, Note_on_c, 13, 51, 0
23, 152448, Note_on_c, 13, 54, 75
23, 152638, Note_on_c, 13, 54, 0
23, 152640, Note_on_c, 13, 53, 75
23, 152782, Note_on_c, 13, 53, 0
23, 152832, Note_on_c, 13, 54, 75
23, 152974, Note_on_c, 13, 54, 0
23, 153024, Note_on_c, 13, 53, 75
23, 153166, Note_on_c, 13, 53, 0
23, 153216, Note_on_c, 13, 54, 75
23, 153358, Note_on_c, 13, 54, 0
23, 153408, Note_on_c, 13, 53, 75
23, 153550, Note_on_c, 13, 53, 0
23, 153600, Note_on_c, 13, 54, 60
23, 153792, Note_on_c, 13, 54, 0
23, 154368, Note_on_c, 13, 46, 75
23, 154414, Note_on_c, 13, 46, 0
23, 154464, Note_on_c, 13, 46, 75
23, 154504, Note_on_c, 13, 46, 0
23, 154512, Note_on_c, 13, 47, 75
23, 154552, Note_on_c, 13, 47, 0
23, 154560, Note_on_c, 13, 46, 75
23, 154606, Note_on_c, 13, 46, 0
23, 154656, Note_on_c, 13, 44, 75
23, 154716, Note_on_c, 13, 44, 0
23, 154752, Note_on_c, 13, 42, 75
23, 154800, Note_on_c, 13, 42, 0
23, 154848, Note_on_c, 13, 42, 75
23, 154888, Note_on_c, 13, 42, 0
23, 154896, Note_on_c, 13, 44, 75
23, 154936, Note_on_c, 13, 44, 0
23, 154944, Note_on_c, 13, 42, 75
23, 154990, Note_on_c, 13, 42, 0
23, 155040, Note_on_c, 13, 41, 75
23, 155100, Note_on_c, 13, 41, 0
23, 155136, Note_on_c, 13, 39, 75
23, 155902, Note_on_c, 13, 39, 0
23, 155904, Note_on_c, 13, 37, 75
23, 156670, Note_on_c, 13, 37, 0
23, 156672, Note_on_c, 13, 36, 75
23, 156766, Note_on_c, 13, 36, 0
23, 156768, Note_on_c, 13, 45, 75
23, 156862, Note_on_c, 13, 45, 0
23, 156864, Note_on_c, 13, 57, 75
23, 157294, Note_on_c, 13, 57, 0
23, 157296, Note_on_c, 13, 56, 75
23, 157342, Note_on_c, 13, 56, 0
23, 157344, Note_on_c, 13, 54, 75
23, 157390, Note_on_c, 13, 54, 0
23, 157392, Note_on_c, 13, 56, 75
23, 157438, Note_on_c, 13, 56, 0
23, 157440, Note_on_c, 13, 54, 75
23, 157486, Note_on_c, 13, 54, 0
23, 157488, Note_on_c, 13, 53, 75
23, 157534, Note_on_c, 13, 53, 0
23, 157536, Note_on_c, 13, 51, 75
23, 157582, Note_on_c, 13, 51, 0
23, 157584, Note_on_c, 13, 53, 75
23, 157630, Note_on_c, 13, 53, 0
23, 157632, Note_on_c, 13, 51, 75
23, 157678, Note_on_c, 13, 51, 0
23, 157728, Note_on_c, 13, 49, 75
23, 157774, Note_on_c, 13, 49, 0
23, 157824, Note_on_c, 13, 48, 75
23, 157870, Note_on_c, 13, 48, 0
23, 157920, Note_on_c, 13, 46, 75
23, 157966, Note_on_c, 13, 46, 0
23, 158016, Note_on_c, 13, 45, 75
23, 158062, Note_on_c, 13, 45, 0
23, 158304, Note_on_c, 13, 47, 75
23, 158350, Note_on_c, 13, 47, 0
23, 158400, Note_on_c, 13, 48, 75
23, 158446, Note_on_c, 13, 48, 0
23, 158688, Note_on_c, 13, 50, 75
23, 158734, Note_on_c, 13, 50, 0
23, 158784, Note_on_c, 13, 51, 75
23, 158830, Note_on_c, 13, 51, 0
23, 159072, Note_on_c, 13, 53, 75
23, 159118, Note_on_c, 13, 53, 0
23, 159168, Note_on_c, 13, 54, 75
23, 159214, Note_on_c, 13, 54, 0
23, 159456, Note_on_c, 13, 56, 75
23, 159502, Note_on_c, 13, 56, 0
23, 159552, Note_on_c, 13, 57, 75
23, 159742, Note_on_c, 13, 57, 0
23, 159936, Note_on_c, 13, 48, 75
23, 160510, Note_on_c, 13, 48, 0
23, 160704, Note_on_c, 13, 48, 75
23, 161278, Note_on_c, 13, 48, 0
23, 161280, Note_on_c, 13, 56, 75
23, 161340, Note_on_c, 13, 56, 0
23, 161376, Note_on_c, 13, 55, 75
23, 161436, Note_on_c, 13, 55, 0
23, 161472, Note_on_c, 13, 53, 75
23, 161532, Note_on_c, 13, 53, 0
23, 161568, Note_on_c, 13, 51, 75
23, 161628, Note_on_c, 13, 51, 0
23, 161664, Note_on_c, 13, 49, 75
23, 161724, Note_on_c, 13, 49, 0
23, 161760, Note_on_c, 13, 53, 75
23, 161820, Note_on_c, 13, 53, 0
23, 161856, Note_on_c, 13, 51, 75
23, 161916, Note_on_c, 13, 51, 0
23, 161952, Note_on_c, 13, 49, 75
23, 162012, Note_on_c, 13, 49, 0
23, 162048, Note_on_c, 13, 48, 75
23, 162108, Note_on_c, 13, 48, 0
23, 162144, Note_on_c, 13, 44, 75
23, 162204, Note_on_c, 13, 44, 0
23, 162240, Note_on_c, 13, 48, 75
23, 162300, Note_on_c, 13, 48, 0
23, 162336, Note_on_c, 13, 51, 75
23, 162396, Note_on_c, 13, 51, 0
23, 162432, Note_on_c, 13, 53, 75
23, 162492, Note_on_c, 13, 53, 0
23, 162528, Note_on_c, 13, 54, 75
23, 162588, Note_on_c, 13, 54, 0
23, 162624, Note_on_c, 13, 53, 75
23, 162684, Note_on_c, 13, 53, 0
23, 162720, Note_on_c, 13, 51, 75
23, 162780, Note_on_c, 13, 51, 0
23, 162816, Note_on_c, 13, 49, 75
23, 162876, Note_on_c, 13, 49, 0
23, 162912, Note_on_c, 13, 48, 75
23, 162972, Note_on_c, 13, 48, 0
23, 163008, Note_on_c, 13, 46, 75
23, 163150, Note_on_c, 13, 46, 0
23, 163296, Note_on_c, 13, 44, 75
23, 163356, Note_on_c, 13, 44, 0
23, 163392, Note_on_c, 13, 43, 75
23, 163452, Note_on_c, 13, 43, 0
23, 163488, Note_on_c, 13, 41, 75
23, 163548, Note_on_c, 13, 41, 0
23, 163584, Note_on_c, 13, 40, 75
23, 163870, Note_on_c, 13, 40, 0
23, 163872, Note_on_c, 13, 42, 75
23, 163932, Note_on_c, 13, 42, 0
23, 163968, Note_on_c, 13, 43, 75
23, 164254, Note_on_c, 13, 43, 0
23, 164256, Note_on_c, 13, 44, 75
23, 164316, Note_on_c, 13, 44, 0
23, 164352, Note_on_c, 13, 46, 75
23, 164412, Note_on_c, 13, 46, 0
23, 164448, Note_on_c, 13, 48, 75
23, 164508, Note_on_c, 13, 48, 0
23, 164544, Note_on_c, 13, 49, 75
23, 164604, Note_on_c, 13, 49, 0
23, 164640, Note_on_c, 13, 51, 75
23, 164700, Note_on_c, 13, 51, 0
23, 164736, Note_on_c, 13, 52, 75
23, 164796, Note_on_c, 13, 52, 0
23, 164832, Note_on_c, 13, 54, 75
23, 164892, Note_on_c, 13, 54, 0
23, 164928, Note_on_c, 13, 55, 75
23, 164988, Note_on_c, 13, 55, 0
23, 165312, Note_on_c, 13, 49, 75
23, 165886, Note_on_c, 13, 49, 0
23, 166080, Note_on_c, 13, 49, 75
23, 166654, Note_on_c, 13, 49, 0
23, 166656, Note_on_c, 13, 57, 75
23, 166714, Note_on_c, 13, 57, 0
23, 166752, Note_on_c, 13, 56, 75
23, 166810, Note_on_c, 13, 56, 0
23, 166848, Note_on_c, 13, 54, 75
23, 166906, Note_on_c, 13, 54, 0
23, 166944, Note_on_c, 13, 52, 75
23, 167002, Note_on_c, 13, 52, 0
23, 167040, Note_on_c, 13, 50, 75
23, 167098, Note_on_c, 13, 50, 0
23, 167136, Note_on_c, 13, 54, 75
23, 167194, Note_on_c, 13, 54, 0
23, 167232, Note_on_c, 13, 52, 75
23, 167290, Note_on_c, 13, 52, 0
23, 167328, Note_on_c, 13, 50, 75
23, 167386, Note_on_c, 13, 50, 0
23, 167424, Note_on_c, 13, 49, 75
23, 167482, Note_on_c, 13, 49, 0
23, 167520, Note_on_c, 13, 45, 75
23, 167578, Note_on_c, 13, 45, 0
23, 167616, Note_on_c, 13, 49, 75
23, 167674, Note_on_c, 13, 49, 0
23, 167712, Note_on_c, 13, 52, 75
23, 167770, Note_on_c, 13, 52, 0
23, 167808, Note_on_c, 13, 54, 75
23, 167866, Note_on_c, 13, 54, 0
23, 167904, Note_on_c, 13, 55, 75
23, 167962, Note_on_c, 13, 55, 0
23, 168000, Note_on_c, 13, 54, 75
23, 168058, Note_on_c, 13, 54, 0
23, 168096, Note_on_c, 13, 52, 75
23, 168154, Note_on_c, 13, 52, 0
23, 168192, Note_on_c, 13, 50, 75
23, 168250, Note_on_c, 13, 50, 0
23, 168288, Note_on_c, 13, 49, 75
23, 168346, Note_on_c, 13, 49, 0
23, 168384, Note_on_c, 13, 47, 75
23, 168575, Note_on_c, 13, 47, 0
23, 168672, Note_on_c, 13, 45, 75
23, 168730, Note_on_c, 13, 45, 0
23, 168768, Note_on_c, 13, 44, 75
23, 168826, Note_on_c, 13, 44, 0
23, 168864, Note_on_c, 13, 42, 75
23, 168922, Note_on_c, 13, 42, 0
23, 168960, Note_on_c, 13, 41, 75
23, 169246, Note_on_c, 13, 41, 0
23, 169248, Note_on_c, 13, 42, 75
23, 169308, Note_on_c, 13, 42, 0
23, 169344, Note_on_c, 13, 44, 75
23, 169630, Note_on_c, 13, 44, 0
23, 169632, Note_on_c, 13, 45, 75
23, 169692, Note_on_c, 13, 45, 0
23, 169728, Note_on_c, 13, 47, 75
23, 169788, Note_on_c, 13, 47, 0
23, 169824, Note_on_c, 13, 49, 75
23, 169884, Note_on_c, 13, 49, 0
23, 169920, Note_on_c, 13, 50, 75
23, 169980, Note_on_c, 13, 50, 0
23, 170016, Note_on_c, 13, 52, 75
23, 170076, Note_on_c, 13, 52, 0
23, 170112, Note_on_c, 13, 53, 75
23, 170172, Note_on_c, 13, 53, 0
23, 170208, Note_on_c, 13, 55, 75
23, 170268, Note_on_c, 13, 55, 0
23, 170304, Note_on_c, 13, 56, 75
23, 170364, Note_on_c, 13, 56, 0
23, 170400, Note_on_c, 13, 57, 75
23, 170460, Note_on_c, 13, 57, 0
23, 170496, Note_on_c, 13, 45, 75
23, 170782, Note_on_c, 13, 45, 0
23, 170784, Note_on_c, 13, 47, 75
23, 170844, Note_on_c, 13, 47, 0
23, 170880, Note_on_c, 13, 48, 75
23, 171166, Note_on_c, 13, 48, 0
23, 171168, Note_on_c, 13, 50, 75
23, 171262, Note_on_c, 13, 50, 0
23, 171264, Note_on_c, 13, 51, 75
23, 171358, Note_on_c, 13, 51, 0
23, 171360, Note_on_c, 13, 53, 75
23, 171454, Note_on_c, 13, 53, 0
23, 171456, Note_on_c, 13, 54, 75
23, 171550, Note_on_c, 13, 54, 0
23, 171552, Note_on_c, 13, 56, 75
23, 171646, Note_on_c, 13, 56, 0
23, 171648, Note_on_c, 13, 57, 75
23, 171742, Note_on_c, 13, 57, 0
23, 171744, Note_on_c, 13, 59, 75
23, 171838, Note_on_c, 13, 59, 0
23, 171840, Note_on_c, 13, 60, 75
23, 171934, Note_on_c, 13, 60, 0
23, 171936, Note_on_c, 13, 61, 75
23, 172030, Note_on_c, 13, 61, 0
23, 172032, Note_on_c, 13, 49, 75
23, 172270, Note_on_c, 13, 49, 0
23, 172320, Note_on_c, 13, 47, 75
23, 172414, Note_on_c, 13, 47, 0
23, 172416, Note_on_c, 13, 46, 75
23, 172510, Note_on_c, 13, 46, 0
23, 173472, Note_on_c, 13, 58, 75
23, 173566, Note_on_c, 13, 58, 0
23, 173568, Note_on_c, 13, 46, 75
23, 173806, Note_on_c, 13, 46, 0
23, 173856, Note_on_c, 13, 44, 75
23, 173950, Note_on_c, 13, 44, 0
23, 173952, Note_on_c, 13, 43, 75
23, 174046, Note_on_c, 13, 43, 0
23, 175008, Note_on_c, 13, 64, 75
23, 175102, Note_on_c, 13, 64, 0
23, 175104, Note_on_c, 13, 52, 75
23, 175342, Note_on_c, 13, 52, 0
23, 175392, Note_on_c, 13, 51, 75
23, 175486, Note_on_c, 13, 51, 0
23, 175488, Note_on_c, 13, 49, 75
23, 175582, Note_on_c, 13, 49, 0
23, 176544, Note_on_c, 13, 61, 75
23, 176638, Note_on_c, 13, 61, 0
23, 176640, Note_on_c, 13, 49, 75
23, 176878, Note_on_c, 13, 49, 0
23, 176928, Note_on_c, 13, 47, 75
23, 177022, Note_on_c, 13, 47, 0
23, 177024, Note_on_c, 13, 46, 75
23, 177118, Note_on_c, 13, 46, 0
23, 177312, Note_on_c, 13, 61, 75
23, 177406, Note_on_c, 13, 61, 0
23, 177408, Note_on_c, 13, 49, 75
23, 177646, Note_on_c, 13, 49, 0
23, 177696, Note_on_c, 13, 47, 75
23, 177790, Note_on_c, 13, 47, 0
23, 177792, Note_on_c, 13, 46, 75
23, 177886, Note_on_c, 13, 46, 0
23, 178080, Note_on_c, 13, 62, 75
23, 178174, Note_on_c, 13, 62, 0
23, 178176, Note_on_c, 13, 50, 75
23, 178414, Note_on_c, 13, 50, 0
23, 178464, Note_on_c, 13, 49, 75
23, 178558, Note_on_c, 13, 49, 0
23, 178560, Note_on_c, 13, 47, 75
23, 178654, Note_on_c, 13, 47, 0
23, 178848, Note_on_c, 13, 63, 75
23, 178942, Note_on_c, 13, 63, 0
23, 178944, Note_on_c, 13, 51, 75
23, 179230, Note_on_c, 13, 51, 0
23, 179232, Note_on_c, 13, 50, 75
23, 179326, Note_on_c, 13, 50, 0
23, 179328, Note_on_c, 13, 48, 75
23, 179422, Note_on_c, 13, 48, 0
23, 180384, Note_on_c, 13, 60, 75
23, 180478, Note_on_c, 13, 60, 0
23, 180480, Note_on_c, 13, 48, 75
23, 180766, Note_on_c, 13, 48, 0
23, 180768, Note_on_c, 13, 60, 75
23, 180862, Note_on_c, 13, 60, 0
23, 180864, Note_on_c, 13, 47, 75
23, 181150, Note_on_c, 13, 47, 0
23, 181152, Note_on_c, 13, 59, 75
23, 181246, Note_on_c, 13, 59, 0
23, 181248, Note_on_c, 13, 46, 75
23, 181342, Note_on_c, 13, 46, 0
23, 181344, Note_on_c, 13, 46, 75
23, 181438, Note_on_c, 13, 46, 0
23, 181536, Note_on_c, 13, 46, 75
23, 181630, Note_on_c, 13, 46, 0
23, 181728, Note_on_c, 13, 46, 75
23, 181822, Note_on_c, 13, 46, 0
23, 181920, Note_on_c, 13, 46, 75
23, 182014, Note_on_c, 13, 46, 0
23, 182112, Note_on_c, 13, 45, 75
23, 182206, Note_on_c, 13, 45, 0
23, 182400, Note_on_c, 13, 54, 75
23, 182446, Note_on_c, 13, 54, 0
23, 182448, Note_on_c, 13, 57, 75
23, 182494, Note_on_c, 13, 57, 0
23, 182496, Note_on_c, 13, 50, 75
23, 182542, Note_on_c, 13, 50, 0
23, 182544, Note_on_c, 13, 52, 75
23, 182590, Note_on_c, 13, 52, 0
23, 182592, Note_on_c, 13, 46, 75
23, 182638, Note_on_c, 13, 46, 0
23, 182640, Note_on_c, 13, 47, 75
23, 182686, Note_on_c, 13, 47, 0
23, 182688, Note_on_c, 13, 42, 75
23, 182734, Note_on_c, 13, 42, 0
23, 182736, Note_on_c, 13, 44, 75
23, 182782, Note_on_c, 13, 44, 0
23, 182880, Note_on_c, 13, 44, 75
23, 182974, Note_on_c, 13, 44, 0
23, 182976, Note_on_c, 13, 56, 75
23, 183070, Note_on_c, 13, 56, 0
23, 183456, Note_on_c, 13, 56, 75
23, 183456, Note_on_c, 13, 65, 75
23, 183550, Note_on_c, 13, 65, 0
23, 183550, Note_on_c, 13, 56, 0
23, 183648, Note_on_c, 13, 65, 75
23, 183648, Note_on_c, 13, 56, 75
23, 183742, Note_on_c, 13, 56, 0
23, 183742, Note_on_c, 13, 65, 0
23, 183840, Note_on_c, 13, 53, 75
23, 183840, Note_on_c, 13, 63, 75
23, 183934, Note_on_c, 13, 63, 0
23, 183934, Note_on_c, 13, 53, 0
23, 184032, Note_on_c, 13, 59, 75
23, 184032, Note_on_c, 13, 51, 75
23, 184126, Note_on_c, 13, 51, 0
23, 184126, Note_on_c, 13, 59, 0
23, 184128, Note_on_c, 13, 50, 75
23, 184128, Note_on_c, 13, 58, 75
23, 184222, Note_on_c, 13, 58, 0
23, 184222, Note_on_c, 13, 50, 0
23, 184416, Note_on_c, 13, 54, 75
23, 184510, Note_on_c, 13, 54, 0
23, 184512, Note_on_c, 13, 53, 75
23, 184606, Note_on_c, 13, 53, 0
23, 184800, Note_on_c, 13, 51, 75
23, 184894, Note_on_c, 13, 51, 0
23, 184896, Note_on_c, 13, 49, 75
23, 184942, Note_on_c, 13, 49, 0
23, 184944, Note_on_c, 13, 51, 75
23, 184990, Note_on_c, 13, 51, 0
23, 184992, Note_on_c, 13, 53, 75
23, 185038, Note_on_c, 13, 53, 0
23, 185040, Note_on_c, 13, 55, 75
23, 185086, Note_on_c, 13, 55, 0
23, 185088, Note_on_c, 13, 56, 75
23, 185326, Note_on_c, 13, 56, 0
23, 185328, Note_on_c, 13, 55, 75
23, 185374, Note_on_c, 13, 55, 0
23, 185376, Note_on_c, 13, 56, 75
23, 185422, Note_on_c, 13, 56, 0
23, 185424, Note_on_c, 13, 58, 75
23, 185470, Note_on_c, 13, 58, 0
23, 185472, Note_on_c, 13, 61, 75
23, 185518, Note_on_c, 13, 61, 0
23, 185520, Note_on_c, 13, 59, 75
23, 185566, Note_on_c, 13, 59, 0
23, 185712, Note_on_c, 13, 58, 75
23, 185758, Note_on_c, 13, 58, 0
23, 185760, Note_on_c, 13, 59, 75
23, 185806, Note_on_c, 13, 59, 0
23, 185808, Note_on_c, 13, 62, 75
23, 185854, Note_on_c, 13, 62, 0
23, 185856, Note_on_c, 13, 65, 75
23, 185902, Note_on_c, 13, 65, 0
23, 185904, Note_on_c, 13, 63, 75
23, 185950, Note_on_c, 13, 63, 0
23, 186096, Note_on_c, 13, 62, 75
23, 186142, Note_on_c, 13, 62, 0
23, 186144, Note_on_c, 13, 63, 75
23, 186190, Note_on_c, 13, 63, 0
23, 186192, Note_on_c, 13, 65, 75
23, 186238, Note_on_c, 13, 65, 0
23, 186240, Note_on_c, 13, 68, 75
23, 186286, Note_on_c, 13, 68, 0
23, 186288, Note_on_c, 13, 66, 75
23, 186334, Note_on_c, 13, 66, 0
23, 186336, Note_on_c, 13, 66, 75
23, 186382, Note_on_c, 13, 66, 0
23, 186384, Note_on_c, 13, 66, 75
23, 186430, Note_on_c, 13, 66, 0
23, 186432, Note_on_c, 13, 66, 75
23, 186478, Note_on_c, 13, 66, 0
23, 186480, Note_on_c, 13, 66, 75
23, 186526, Note_on_c, 13, 66, 0
23, 186528, Note_on_c, 13, 66, 75
23, 186574, Note_on_c, 13, 66, 0
23, 186576, Note_on_c, 13, 66, 75
23, 186622, Note_on_c, 13, 66, 0
23, 188544, Note_on_c, 13, 54, 75
23, 188638, Note_on_c, 13, 54, 0
23, 197376, Note_on_c, 13, 47, 75
23, 198910, Note_on_c, 13, 47, 0
23, 198912, Note_on_c, 13, 46, 75
23, 199486, Note_on_c, 13, 46, 0
23, 199488, Note_on_c, 13, 46, 75
23, 199678, Note_on_c, 13, 46, 0
23, 199680, Note_on_c, 13, 48, 75
23, 199822, Note_on_c, 13, 48, 0
23, 199872, Note_on_c, 13, 49, 75
23, 200014, Note_on_c, 13, 49, 0
23, 200064, Note_on_c, 13, 50, 75
23, 200206, Note_on_c, 13, 50, 0
23, 200256, Note_on_c, 13, 56, 75
23, 200398, Note_on_c, 13, 56, 0
23, 200448, Note_on_c, 13, 55, 75
23, 200830, Note_on_c, 13, 55, 0
23, 200832, Note_on_c, 13, 53, 75
23, 201022, Note_on_c, 13, 53, 0
23, 201024, Note_on_c, 13, 46, 75
23, 201214, Note_on_c, 13, 46, 0
23, 201216, Note_on_c, 13, 48, 75
23, 201358, Note_on_c, 13, 48, 0
23, 201408, Note_on_c, 13, 49, 75
23, 201550, Note_on_c, 13, 49, 0
23, 201600, Note_on_c, 13, 50, 75
23, 201742, Note_on_c, 13, 50, 0
23, 201792, Note_on_c, 13, 56, 75
23, 201982, Note_on_c, 13, 56, 0
23, 201984, Note_on_c, 13, 55, 75
23, 202366, Note_on_c, 13, 55, 0
23, 202368, Note_on_c, 13, 50, 75
23, 202510, Note_on_c, 13, 50, 0
23, 202560, Note_on_c, 13, 46, 75
23, 202702, Note_on_c, 13, 46, 0
23, 202752, Note_on_c, 13, 48, 75
23, 202942, Note_on_c, 13, 48, 0
23, 202944, Note_on_c, 13, 51, 75
23, 203134, Note_on_c, 13, 51, 0
23, 203136, Note_on_c, 13, 53, 75
23, 203326, Note_on_c, 13, 53, 0
23, 203328, Note_on_c, 13, 55, 75
23, 203422, Note_on_c, 13, 55, 0
23, 203424, Note_on_c, 13, 56, 75
23, 203518, Note_on_c, 13, 56, 0
23, 203520, Note_on_c, 13, 58, 75
23, 204094, Note_on_c, 13, 58, 0
23, 204096, Note_on_c, 13, 58, 75
23, 204286, Note_on_c, 13, 58, 0
23, 204288, Note_on_c, 13, 60, 75
23, 204478, Note_on_c, 13, 60, 0
23, 204480, Note_on_c, 13, 63, 75
23, 204622, Note_on_c, 13, 63, 0
23, 204672, Note_on_c, 13, 58, 75
23, 204814, Note_on_c, 13, 58, 0
23, 204864, Note_on_c, 13, 57, 75
23, 204958, Note_on_c, 13, 57, 0
23, 204960, Note_on_c, 13, 56, 75
23, 205054, Note_on_c, 13, 56, 0
23, 205056, Note_on_c, 13, 55, 75
23, 205390, Note_on_c, 13, 55, 0
23, 205440, Note_on_c, 13, 53, 75
23, 205630, Note_on_c, 13, 53, 0
23, 205632, Note_on_c, 13, 46, 75
23, 205774, Note_on_c, 13, 46, 0
23, 205824, Note_on_c, 13, 48, 75
23, 206014, Note_on_c, 13, 48, 0
23, 206016, Note_on_c, 13, 51, 75
23, 206158, Note_on_c, 13, 51, 0
23, 206208, Note_on_c, 13, 53, 75
23, 206350, Note_on_c, 13, 53, 0
23, 206400, Note_on_c, 13, 55, 75
23, 206494, Note_on_c, 13, 55, 0
23, 206496, Note_on_c, 13, 56, 75
23, 206590, Note_on_c, 13, 56, 0
23, 206592, Note_on_c, 13, 58, 75
23, 207166, Note_on_c, 13, 58, 0
23, 207168, Note_on_c, 13, 58, 75
23, 207310, Note_on_c, 13, 58, 0
23, 207360, Note_on_c, 13, 60, 75
23, 207502, Note_on_c, 13, 60, 0
23, 207552, Note_on_c, 13, 63, 75
23, 207694, Note_on_c, 13, 63, 0
23, 207744, Note_on_c, 13, 58, 75
23, 207886, Note_on_c, 13, 58, 0
23, 207936, Note_on_c, 13, 57, 75
23, 208030, Note_on_c, 13, 57, 0
23, 208032, Note_on_c, 13, 56, 75
23, 208126, Note_on_c, 13, 56, 0
23, 208128, Note_on_c, 13, 54, 75
23, 208510, Note_on_c, 13, 54, 0
23, 208512, Note_on_c, 13, 53, 75
23, 208654, Note_on_c, 13, 53, 0
23, 208704, Note_on_c, 13, 46, 75
23, 208846, Note_on_c, 13, 46, 0
23, 208896, Note_on_c, 13, 48, 75
23, 209038, Note_on_c, 13, 48, 0
23, 209088, Note_on_c, 13, 51, 75
23, 209230, Note_on_c, 13, 51, 0
23, 209280, Note_on_c, 13, 53, 75
23, 209422, Note_on_c, 13, 53, 0
23, 209472, Note_on_c, 13, 54, 75
23, 209566, Note_on_c, 13, 54, 0
23, 209568, Note_on_c, 13, 56, 75
23, 209662, Note_on_c, 13, 56, 0
23, 209664, Note_on_c, 13, 58, 75
23, 209998, Note_on_c, 13, 58, 0
23, 210240, Note_on_c, 13, 46, 75
23, 210382, Note_on_c, 13, 46, 0
23, 210432, Note_on_c, 13, 48, 75
23, 210622, Note_on_c, 13, 48, 0
23, 210624, Note_on_c, 13, 51, 75
23, 210766, Note_on_c, 13, 51, 0
23, 210816, Note_on_c, 13, 53, 75
23, 210958, Note_on_c, 13, 53, 0
23, 211008, Note_on_c, 13, 54, 75
23, 211102, Note_on_c, 13, 54, 0
23, 211104, Note_on_c, 13, 56, 75
23, 211198, Note_on_c, 13, 56, 0
23, 211200, Note_on_c, 13, 58, 75
23, 211534, Note_on_c, 13, 58, 0
23, 211776, Note_on_c, 13, 46, 75
23, 211918, Note_on_c, 13, 46, 0
23, 211968, Note_on_c, 13, 51, 75
23, 212110, Note_on_c, 13, 51, 0
23, 212160, Note_on_c, 13, 54, 75
23, 212302, Note_on_c, 13, 54, 0
23, 212352, Note_on_c, 13, 58, 75
23, 212494, Note_on_c, 13, 58, 0
23, 212544, Note_on_c, 13, 60, 75
23, 212638, Note_on_c, 13, 60, 0
23, 212640, Note_on_c, 13, 62, 75
23, 212734, Note_on_c, 13, 62, 0
23, 212736, Note_on_c, 13, 63, 75
23, 213070, Note_on_c, 13, 63, 0
23, 213216, Note_on_c, 13, 62, 75
23, 213310, Note_on_c, 13, 62, 0
23, 213312, Note_on_c, 13, 60, 75
23, 213406, Note_on_c, 13, 60, 0
23, 213408, Note_on_c, 13, 62, 75
23, 213502, Note_on_c, 13, 62, 0
23, 213504, Note_on_c, 13, 63, 75
23, 213838, Note_on_c, 13, 63, 0
23, 213984, Note_on_c, 13, 62, 75
23, 214078, Note_on_c, 13, 62, 0
23, 214080, Note_on_c, 13, 60, 75
23, 214174, Note_on_c, 13, 60, 0
23, 214176, Note_on_c, 13, 62, 75
23, 214270, Note_on_c, 13, 62, 0
23, 214272, Note_on_c, 13, 63, 75
23, 214366, Note_on_c, 13, 63, 0
23, 215040, Note_on_c, 13, 51, 75
23, 215134, Note_on_c, 13, 51, 0
23, 215136, Note_on_c, 13, 54, 75
23, 215230, Note_on_c, 13, 54, 0
23, 215232, Note_on_c, 13, 59, 75
23, 215326, Note_on_c, 13, 59, 0
23, 215328, Note_on_c, 13, 56, 75
23, 215422, Note_on_c, 13, 56, 0
23, 215424, Note_on_c, 13, 54, 75
23, 215566, Note_on_c, 13, 54, 0
23, 215616, Note_on_c, 13, 53, 75
23, 215758, Note_on_c, 13, 53, 0
23, 215808, Note_on_c, 13, 54, 75
23, 215902, Note_on_c, 13, 54, 0
23, 215904, Note_on_c, 13, 53, 75
23, 215998, Note_on_c, 13, 53, 0
23, 216000, Note_on_c, 13, 51, 75
23, 216142, Note_on_c, 13, 51, 0
23, 216192, Note_on_c, 13, 59, 75
23, 216382, Note_on_c, 13, 59, 0
23, 216384, Note_on_c, 13, 56, 75
23, 216526, Note_on_c, 13, 56, 0
23, 216576, Note_on_c, 13, 54, 75
23, 216670, Note_on_c, 13, 54, 0
23, 216672, Note_on_c, 13, 53, 75
23, 216766, Note_on_c, 13, 53, 0
23, 216768, Note_on_c, 13, 51, 75
23, 216910, Note_on_c, 13, 51, 0
23, 216960, Note_on_c, 13, 59, 75
23, 217150, Note_on_c, 13, 59, 0
23, 217152, Note_on_c, 13, 56, 75
23, 217294, Note_on_c, 13, 56, 0
23, 217344, Note_on_c, 13, 54, 75
23, 217438, Note_on_c, 13, 54, 0
23, 218880, Note_on_c, 13, 46, 75
23, 218926, Note_on_c, 13, 46, 0
23, 218976, Note_on_c, 13, 46, 75
23, 219022, Note_on_c, 13, 46, 0
23, 219024, Note_on_c, 13, 47, 75
23, 219070, Note_on_c, 13, 47, 0
23, 219072, Note_on_c, 13, 46, 75
23, 219118, Note_on_c, 13, 46, 0
23, 219168, Note_on_c, 13, 44, 75
23, 219262, Note_on_c, 13, 44, 0
23, 219264, Note_on_c, 13, 42, 75
23, 219310, Note_on_c, 13, 42, 0
23, 219360, Note_on_c, 13, 42, 75
23, 219406, Note_on_c, 13, 42, 0
23, 219408, Note_on_c, 13, 44, 75
23, 219454, Note_on_c, 13, 44, 0
23, 219456, Note_on_c, 13, 42, 75
23, 219502, Note_on_c, 13, 42, 0
23, 219552, Note_on_c, 13, 41, 75
23, 219646, Note_on_c, 13, 41, 0
23, 219648, Note_on_c, 13, 39, 75
23, 219694, Note_on_c, 13, 39, 0
23, 227328, Note_on_c, 13, 46, 75
23, 233470, Note_on_c, 13, 46, 0
23, 233472, Note_on_c, 13, 46, 75
23, 236542, Note_on_c, 13, 46, 0
23, 236544, Note_on_c, 13, 46, 75
23, 236590, Note_on_c, 13, 46, 0
23, 236592, Note_on_c, 13, 46, 75
23, 236638, Note_on_c, 13, 46, 0
23, 236688, Note_on_c, 13, 46, 75
23, 236734, Note_on_c, 13, 46, 0
23, 236736, Note_on_c, 13, 46, 75
23, 236782, Note_on_c, 13, 46, 0
23, 236784, Note_on_c, 13, 46, 75
23, 236830, Note_on_c, 13, 46, 0
23, 236880, Note_on_c, 13, 46, 75
23, 236926, Note_on_c, 13, 46, 0
23, 236928, Note_on_c, 13, 46, 75
23, 236974, Note_on_c, 13, 46, 0
23, 236976, Note_on_c, 13, 46, 75
23, 237022, Note_on_c, 13, 46, 0
23, 237072, Note_on_c, 13, 46, 75
23, 237118, Note_on_c, 13, 46, 0
23, 237120, Note_on_c, 13, 46, 75
23, 237166, Note_on_c, 13, 46, 0
23, 237168, Note_on_c, 13, 46, 75
23, 237214, Note_on_c, 13, 46, 0
23, 237264, Note_on_c, 13, 46, 75
23, 237310, Note_on_c, 13, 46, 0
23, 237312, Note_on_c, 13, 46, 75
23, 237358, Note_on_c, 13, 46, 0
23, 237360, Note_on_c, 13, 46, 75
23, 237406, Note_on_c, 13, 46, 0
23, 237456, Note_on_c, 13, 46, 75
23, 237502, Note_on_c, 13, 46, 0
23, 237504, Note_on_c, 13, 46, 75
23, 237550, Note_on_c, 13, 46, 0
23, 237552, Note_on_c, 13, 46, 75
23, 237598, Note_on_c, 13, 46, 0
23, 237648, Note_on_c, 13, 46, 75
23, 237694, Note_on_c, 13, 46, 0
23, 237696, Note_on_c, 13, 46, 75
23, 237742, Note_on_c, 13, 46, 0
23, 237744, Note_on_c, 13, 46, 75
23, 237790, Note_on_c, 13, 46, 0
23, 237840, Note_on_c, 13, 46, 75
23, 237886, Note_on_c, 13, 46, 0
23, 237888, Note_on_c, 13, 46, 75
23, 237934, Note_on_c, 13, 46, 0
23, 237936, Note_on_c, 13, 46, 75
23, 237982, Note_on_c, 13, 46, 0
23, 238032, Note_on_c, 13, 46, 75
23, 238078, Note_on_c, 13, 46, 0
23, 238080, Note_on_c, 13, 46, 75
23, 238126, Note_on_c, 13, 46, 0
23, 238128, Note_on_c, 13, 46, 75
23, 238174, Note_on_c, 13, 46, 0
23, 238224, Note_on_c, 13, 46, 75
23, 238270, Note_on_c, 13, 46, 0
23, 238272, Note_on_c, 13, 46, 75
23, 238318, Note_on_c, 13, 46, 0
23, 238320, Note_on_c, 13, 46, 75
23, 238366, Note_on_c, 13, 46, 0
23, 238416, Note_on_c, 13, 46, 75
23, 238462, Note_on_c, 13, 46, 0
23, 238464, Note_on_c, 13, 46, 75
23, 238510, Note_on_c, 13, 46, 0
23, 238512, Note_on_c, 13, 46, 75
23, 238558, Note_on_c, 13, 46, 0
23, 238608, Note_on_c, 13, 46, 75
23, 238654, Note_on_c, 13, 46, 0
23, 238656, Note_on_c, 13, 46, 75
23, 238702, Note_on_c, 13, 46, 0
23, 238704, Note_on_c, 13, 46, 75
23, 238750, Note_on_c, 13, 46, 0
23, 238800, Note_on_c, 13, 46, 75
23, 238846, Note_on_c, 13, 46, 0
23, 238848, Note_on_c, 13, 46, 75
23, 238894, Note_on_c, 13, 46, 0
23, 238896, Note_on_c, 13, 46, 75
23, 238942, Note_on_c, 13, 46, 0
23, 238992, Note_on_c, 13, 46, 75
23, 239038, Note_on_c, 13, 46, 0
23, 239040, Note_on_c, 13, 46, 75
23, 239086, Note_on_c, 13, 46, 0
23, 239088, Note_on_c, 13, 46, 75
23, 239134, Note_on_c, 13, 46, 0
23, 239184, Note_on_c, 13, 46, 75
23, 239230, Note_on_c, 13, 46, 0
23, 239232, Note_on_c, 13, 46, 75
23, 239278, Note_on_c, 13, 46, 0
23, 239280, Note_on_c, 13, 46, 75
23, 239326, Note_on_c, 13, 46, 0
23, 239376, Note_on_c, 13, 46, 75
23, 239422, Note_on_c, 13, 46, 0
23, 239424, Note_on_c, 13, 46, 75
23, 239470, Note_on_c, 13, 46, 0
23, 239472, Note_on_c, 13, 46, 75
23, 239518, Note_on_c, 13, 46, 0
23, 239568, Note_on_c, 13, 46, 75
23, 239614, Note_on_c, 13, 46, 0
23, 239616, Note_on_c, 13, 46, 75
23, 239806, Note_on_c, 13, 46, 0
23, 239808, Note_on_c, 13, 46, 75
23, 239998, Note_on_c, 13, 46, 0
23, 240000, Note_on_c, 13, 46, 75
23, 240190, Note_on_c, 13, 46, 0
23, 240192, Note_on_c, 13, 46, 75
23, 240382, Note_on_c, 13, 46, 0
23, 240384, Note_on_c, 13, 46, 75
23, 240574, Note_on_c, 13, 46, 0
23, 240576, Note_on_c, 13, 46, 75
23, 240766, Note_on_c, 13, 46, 0
23, 240768, Note_on_c, 13, 46, 75
23, 240958, Note_on_c, 13, 46, 0
23, 240960, Note_on_c, 13, 46, 75
23, 241150, Note_on_c, 13, 46, 0
23, 241152, Note_on_c, 13, 46, 75
23, 241342, Note_on_c, 13, 46, 0
23, 241344, Note_on_c, 13, 46, 75
23, 241534, Note_on_c, 13, 46, 0
23, 241536, Note_on_c, 13, 46, 75
23, 241726, Note_on_c, 13, 46, 0
23, 241728, Note_on_c, 13, 46, 75
23, 241918, Note_on_c, 13, 46, 0
23, 241920, Note_on_c, 13, 46, 75
23, 242110, Note_on_c, 13, 46, 0
23, 242112, Note_on_c, 13, 46, 75
23, 242302, Note_on_c, 13, 46, 0
23, 242304, Note_on_c, 13, 46, 75
23, 242398, Note_on_c, 13, 46, 0
23, 263616, Note_on_c, 13, 36, 75
23, 263616, Note_on_c, 13, 48, 75
23, 263710, Note_on_c, 13, 48, 0
23, 263710, Note_on_c, 13, 36, 0
23, 270144, Note_on_c, 13, 63, 92
23, 270238, Note_on_c, 13, 63, 0
23, 270336, Note_on_c, 13, 46, 92
23, 270430, Note_on_c, 13, 46, 0
23, 270528, Note_on_c, 13, 51, 92
23, 270622, Note_on_c, 13, 51, 0
23, 270720, Note_on_c, 13, 46, 92
23, 270814, Note_on_c, 13, 46, 0
23, 270912, Note_on_c, 13, 51, 92
23, 271006, Note_on_c, 13, 51, 0
23, 271104, Note_on_c, 13, 46, 92
23, 271198, Note_on_c, 13, 46, 0
23, 271296, Note_on_c, 13, 51, 92
23, 271390, Note_on_c, 13, 51, 0
23, 271488, Note_on_c, 13, 46, 92
23, 271582, Note_on_c, 13, 46, 0
23, 271680, Note_on_c, 13, 51, 92
23, 271774, Note_on_c, 13, 51, 0
23, 271872, Note_on_c, 13, 46, 92
23, 271966, Note_on_c, 13, 46, 0
23, 272064, Note_on_c, 13, 51, 92
23, 272158, Note_on_c, 13, 51, 0
23, 272256, Note_on_c, 13, 46, 92
23, 272350, Note_on_c, 13, 46, 0
23, 272448, Note_on_c, 13, 51, 92
23, 272542, Note_on_c, 13, 51, 0
23, 272640, Note_on_c, 13, 46, 92
23, 272734, Note_on_c, 13, 46, 0
23, 272832, Note_on_c, 13, 51, 92
23, 272926, Note_on_c, 13, 51, 0
23, 273024, Note_on_c, 13, 46, 92
23, 273118, Note_on_c, 13, 46, 0
23, 273216, Note_on_c, 13, 51, 92
23, 273310, Note_on_c, 13, 51, 0
23, 273408, Note_on_c, 13, 46, 92
23, 273502, Note_on_c, 13, 46, 0
23, 273600, Note_on_c, 13, 51, 92
23, 273694, Note_on_c, 13, 51, 0
23, 273792, Note_on_c, 13, 46, 92
23, 273886, Note_on_c, 13, 46, 0
23, 273984, Note_on_c, 13, 51, 92
23, 274078, Note_on_c, 13, 51, 0
23, 274176, Note_on_c, 13, 46, 92
23, 274270, Note_on_c, 13, 46, 0
23, 274368, Note_on_c, 13, 51, 92
23, 274462, Note_on_c, 13, 51, 0
23, 274560, Note_on_c, 13, 46, 92
23, 274654, Note_on_c, 13, 46, 0
23, 274752, Note_on_c, 13, 51, 92
23, 274846, Note_on_c, 13, 51, 0
23, 274944, Note_on_c, 13, 46, 92
23, 275038, Note_on_c, 13, 46, 0
23, 275136, Note_on_c, 13, 51, 92
23, 275230, Note_on_c, 13, 51, 0
23, 275328, Note_on_c, 13, 46, 92
23, 275422, Note_on_c, 13, 46, 0
23, 275520, Note_on_c, 13, 51, 92
23, 275614, Note_on_c, 13, 51, 0
23, 275712, Note_on_c, 13, 46, 92
23, 275806, Note_on_c, 13, 46, 0
23, 275904, Note_on_c, 13, 51, 92
23, 275998, Note_on_c, 13, 51, 0
23, 276096, Note_on_c, 13, 46, 92
23, 276190, Note_on_c, 13, 46, 0
23, 276288, Note_on_c, 13, 46, 117
23, 276288, Note_on_c, 13, 46, 117
23, 277056, Note_on_c, 13, 46, 0
23, 277056, Note_on_c, 13, 46, 0
23, 277056, Note_on_c, 13, 48, 117
23, 277056, Note_on_c, 13, 48, 117
23, 277440, Note_on_c, 13, 48, 0
23, 277440, Note_on_c, 13, 48, 0
23, 277440, Note_on_c, 13, 48, 117
23, 277440, Note_on_c, 13, 48, 117
23, 277824, Note_on_c, 13, 48, 0
23, 277824, Note_on_c, 13, 48, 0
23, 277824, Note_on_c, 13, 46, 117
23, 277824, Note_on_c, 13, 46, 117
23, 278400, Note_on_c, 13, 46, 0
23, 278400, Note_on_c, 13, 46, 0
23, 278400, Note_on_c, 13, 43, 117
23, 278400, Note_on_c, 13, 43, 117
23, 278592, Note_on_c, 13, 43, 0
23, 278592, Note_on_c, 13, 43, 0
23, 278592, Note_on_c, 13, 39, 117
23, 278592, Note_on_c, 13, 39, 117
23, 279360, Note_on_c, 13, 39, 0
23, 279360, Note_on_c, 13, 39, 0
23, 279360, Note_on_c, 13, 51, 117
23, 279360, Note_on_c, 13, 51, 117
23, 280128, Note_on_c, 13, 51, 0
23, 280128, Note_on_c, 13, 51, 0
23, 280128, Note_on_c, 13, 50, 117
23, 280128, Note_on_c, 13, 50, 117
23, 280512, Note_on_c, 13, 50, 0
23, 280512, Note_on_c, 13, 50, 0
23, 280512, Note_on_c, 13, 48, 117
23, 280512, Note_on_c, 13, 48, 117
23, 280896, Note_on_c, 13, 48, 0
23, 280896, Note_on_c, 13, 48, 0
23, 280896, Note_on_c, 13, 46, 117
23, 280896, Note_on_c, 13, 46, 117
23, 281664, Note_on_c, 13, 46, 0
23, 281664, Note_on_c, 13, 46, 0
23, 281664, Note_on_c, 13, 48, 117
23, 281664, Note_on_c, 13, 48, 117
23, 282432, Note_on_c, 13, 48, 0
23, 282432, Note_on_c, 13, 48, 0
23, 282432, Note_on_c, 13, 44, 117
23, 282432, Note_on_c, 13, 44, 117
23, 283200, Note_on_c, 13, 44, 0
23, 283200, Note_on_c, 13, 44, 0
23, 283200, Note_on_c, 13, 46, 117
23, 283200, Note_on_c, 13, 46, 117
23, 283584, Note_on_c, 13, 46, 0
23, 283584, Note_on_c, 13, 46, 0
23, 283584, Note_on_c, 13, 46, 117
23, 283584, Note_on_c, 13, 46, 117
23, 283968, Note_on_c, 13, 46, 0
23, 283968, Note_on_c, 13, 46, 0
23, 283968, Note_on_c, 13, 43, 117
23, 284544, Note_on_c, 13, 43, 0
23, 284544, Note_on_c, 13, 44, 117
23, 284736, Note_on_c, 13, 44, 0
23, 284736, Note_on_c, 13, 45, 88
23, 284928, Note_on_c, 13, 45, 0
23, 284928, Note_on_c, 13, 46, 80
23, 285120, Note_on_c, 13, 46, 0
23, 285120, Note_on_c, 13, 47, 90
23, 285312, Note_on_c, 13, 47, 0
23, 285312, Note_on_c, 13, 48, 69
23, 285504, Note_on_c, 13, 48, 0
23, 285504, Note_on_c, 13, 58, 100
23, 285615, Note_on_c, 13, 58, 0
23, 285648, Note_on_c, 13, 46, 100
23, 285744, Note_on_c, 13, 46, 100
23, 285759, Note_on_c, 13, 46, 0
23, 285855, Note_on_c, 13, 46, 0
23, 285888, Note_on_c, 13, 46, 100
23, 285999, Note_on_c, 13, 46, 0
23, 286032, Note_on_c, 13, 46, 75
23, 286128, Note_on_c, 13, 46, 75
23, 286143, Note_on_c, 13, 46, 0
23, 286239, Note_on_c, 13, 46, 0
23, 286272, Note_on_c, 13, 46, 75
23, 286383, Note_on_c, 13, 46, 0
23, 286416, Note_on_c, 13, 46, 75
23, 286512, Note_on_c, 13, 46, 75
23, 286527, Note_on_c, 13, 46, 0
23, 286623, Note_on_c, 13, 46, 0
23, 286656, Note_on_c, 13, 46, 75
23, 286767, Note_on_c, 13, 46, 0
23, 286800, Note_on_c, 13, 46, 75
23, 286896, Note_on_c, 13, 46, 75
23, 286911, Note_on_c, 13, 46, 0
23, 287007, Note_on_c, 13, 46, 0
23, 287040, Note_on_c, 13, 58, 75
23, 287151, Note_on_c, 13, 58, 0
23, 287184, Note_on_c, 13, 57, 75
23, 287280, Note_on_c, 13, 56, 75
23, 287295, Note_on_c, 13, 57, 0
23, 287391, Note_on_c, 13, 56, 0
23, 287424, Note_on_c, 13, 55, 75
23, 287535, Note_on_c, 13, 55, 0
23, 287568, Note_on_c, 13, 54, 75
23, 287664, Note_on_c, 13, 53, 75
23, 287679, Note_on_c, 13, 54, 0
23, 287775, Note_on_c, 13, 53, 0
23, 287808, Note_on_c, 13, 52, 75
23, 287919, Note_on_c, 13, 52, 0
23, 287952, Note_on_c, 13, 51, 75
23, 288048, Note_on_c, 13, 50, 75
23, 288063, Note_on_c, 13, 51, 0
23, 288159, Note_on_c, 13, 50, 0
23, 288192, Note_on_c, 13, 48, 75
23, 288303, Note_on_c, 13, 48, 0
23, 288336, Note_on_c, 13, 47, 75
23, 288432, Note_on_c, 13, 46, 75
23, 288447, Note_on_c, 13, 47, 0
23, 288543, Note_on_c, 13, 46, 0
23, 288960, Note_on_c, 13, 62, 75
23, 288960, Note_on_c, 13, 46, 75
23, 288960, Note_on_c, 13, 53, 75
23, 289150, Note_on_c, 13, 53, 0
23, 289150, Note_on_c, 13, 46, 0
23, 289150, Note_on_c, 13, 62, 0
23, 289152, Note_on_c, 13, 46, 75
23, 289152, Note_on_c, 13, 62, 75
23, 289152, Note_on_c, 13, 53, 75
23, 289342, Note_on_c, 13, 53, 0
23, 289342, Note_on_c, 13, 62, 0
23, 289342, Note_on_c, 13, 46, 0
23, 289728, Note_on_c, 13, 53, 75
23, 289728, Note_on_c, 13, 62, 75
23, 289728, Note_on_c, 13, 46, 75
23, 289918, Note_on_c, 13, 46, 0
23, 289918, Note_on_c, 13, 62, 0
23, 289918, Note_on_c, 13, 53, 0
23, 289920, Note_on_c, 13, 46, 75
23, 289920, Note_on_c, 13, 62, 75
23, 289920, Note_on_c, 13, 53, 75
23, 290110, Note_on_c, 13, 53, 0
23, 290110, Note_on_c, 13, 62, 0
23, 290110, Note_on_c, 13, 46, 0
23, 290112, Note_on_c, 13, 51, 75
23, 290302, Note_on_c, 13, 51, 0
23, 290304, Note_on_c, 13, 47, 75
23, 290494, Note_on_c, 13, 47, 0
23, 290496, Note_on_c, 13, 51, 75
23, 290686, Note_on_c, 13, 51, 0
23, 290688, Note_on_c, 13, 47, 75
23, 290878, Note_on_c, 13, 47, 0
23, 290880, Note_on_c, 13, 51, 75
23, 291070, Note_on_c, 13, 51, 0
23, 291072, Note_on_c, 13, 47, 75
23, 291262, Note_on_c, 13, 47, 0
23, 291264, Note_on_c, 13, 51, 75
23, 291454, Note_on_c, 13, 51, 0
23, 291456, Note_on_c, 13, 47, 75
23, 291646, Note_on_c, 13, 47, 0
23, 291648, Note_on_c, 13, 51, 75
23, 291838, Note_on_c, 13, 51, 0
23, 291840, Note_on_c, 13, 55, 75
23, 292030, Note_on_c, 13, 55, 0
23, 292032, Note_on_c, 13, 48, 75
23, 292222, Note_on_c, 13, 48, 0
23, 292224, Note_on_c, 13, 55, 75
23, 292414, Note_on_c, 13, 55, 0
23, 292416, Note_on_c, 13, 48, 75
23, 292606, Note_on_c, 13, 48, 0
23, 292608, Note_on_c, 13, 55, 75
23, 292798, Note_on_c, 13, 55, 0
23, 292800, Note_on_c, 13, 48, 75
23, 292990, Note_on_c, 13, 48, 0
23, 292992, Note_on_c, 13, 46, 75
23, 293182, Note_on_c, 13, 46, 0
23, 293184, Note_on_c, 13, 51, 75
23, 293278, Note_on_c, 13, 51, 0
23, 293952, Note_on_c, 13, 46, 75
23, 293952, Note_on_c, 13, 55, 75
23, 293952, Note_on_c, 13, 63, 75
23, 294046, Note_on_c, 13, 63, 0
23, 294046, Note_on_c, 13, 55, 0
23, 294046, Note_on_c, 13, 46, 0
23, 294720, Note_on_c, 13, 55, 75
23, 294720, Note_on_c, 13, 63, 75
23, 294720, Note_on_c, 13, 46, 75
23, 294814, Note_on_c, 13, 46, 0
23, 294814, Note_on_c, 13, 63, 0
23, 294814, Note_on_c, 13, 55, 0
23, 295488, Note_on_c, 13, 63, 75
23, 295488, Note_on_c, 13, 46, 75
23, 295488, Note_on_c, 13, 55, 75
23, 295582, Note_on_c, 13, 55, 0
23, 295582, Note_on_c, 13, 46, 0
23, 295582, Note_on_c, 13, 63, 0
23, 296256, Note_on_c, 13, 63, 75
23, 296256, Note_on_c, 13, 55, 75
23, 296256, Note_on_c, 13, 46, 75
23, 296367, Note_on_c, 13, 46, 0
23, 296367, Note_on_c, 13, 55, 0
23, 296367, Note_on_c, 13, 63, 0
23, 299712, Note_on_c, 13, 39, 75
23, 299758, Note_on_c, 13, 39, 0
23, 299760, Note_on_c, 13, 41, 75
23, 299806, Note_on_c, 13, 41, 0
23, 299808, Note_on_c, 13, 43, 75
23, 299854, Note_on_c, 13, 43, 0
23, 299856, Note_on_c, 13, 44, 75
23, 299902, Note_on_c, 13, 44, 0
23, 299952, Note_on_c, 13, 46, 75
23, 299998, Note_on_c, 13, 46, 0
23, 300000, Note_on_c, 13, 48, 75
23, 300046, Note_on_c, 13, 48, 0
23, 300048, Note_on_c, 13, 50, 75
23, 300094, Note_on_c, 13, 50, 0
23, 300480, Note_on_c, 13, 51, 75
23, 300528, Note_on_c, 13, 53, 75
23, 300574, Note_on_c, 13, 53, 0
23, 300576, Note_on_c, 13, 55, 75
23, 300622, Note_on_c, 13, 55, 0
23, 300624, Note_on_c, 13, 56, 75
23, 300670, Note_on_c, 13, 56, 0
23, 300670, Note_on_c, 13, 51, 0
23, 300720, Note_on_c, 13, 58, 75
23, 300766, Note_on_c, 13, 58, 0
23, 300768, Note_on_c, 13, 60, 75
23, 300814, Note_on_c, 13, 60, 0
23, 300816, Note_on_c, 13, 62, 75
23, 300862, Note_on_c, 13, 62, 0
23, 301632, Note_on_c, 13, 39, 112
23, 302205, Note_on_c, 13, 39, 0
23, 302208, Note_on_c, 13, 39, 111
23, 302397, Note_on_c, 13, 39, 0
23, 302400, Note_on_c, 13, 39, 111
23, 303166, Note_on_c, 13, 39, 0
23, 303166, End_track
24, 0, Start_track
24, 0, MIDI_port, 0
24, 0, Title_t, "Bass Drum"
24, 0, Program_c, 14, 118
24, 0, Control_c, 14, 7, 100
24, 0, Control_c, 14, 10, 64
24, 576, Control_c, 14, 7, 70
24, 35712, Note_on_c, 14, 41, 97
24, 35808, Note_on_c, 14, 41, 0
24, 38016, Note_on_c, 14, 41, 95
24, 38112, Note_on_c, 14, 41, 0
24, 40320, Note_on_c, 14, 41, 95
24, 40512, Note_on_c, 14, 41, 0
24, 40512, Note_on_c, 14, 41, 95
24, 40704, Note_on_c, 14, 41, 0
24, 74496, Note_on_c, 14, 41, 95
24, 74688, Note_on_c, 14, 41, 0
24, 99072, Note_on_c, 14, 41, 95
24, 99168, Note_on_c, 14, 41, 0
24, 99264, Note_on_c, 14, 41, 95
24, 99456, Note_on_c, 14, 41, 0
24, 172032, Note_on_c, 14, 41, 95
24, 172416, Note_on_c, 14, 41, 0
24, 173568, Note_on_c, 14, 41, 95
24, 173952, Note_on_c, 14, 41, 0
24, 175104, Note_on_c, 14, 41, 95
24, 175488, Note_on_c, 14, 41, 0
24, 176640, Note_on_c, 14, 41, 95
24, 177024, Note_on_c, 14, 41, 0
24, 177408, Note_on_c, 14, 41, 95
24, 177792, Note_on_c, 14, 41, 0
24, 178176, Note_on_c, 14, 41, 95
24, 178560, Note_on_c, 14, 41, 0
24, 178944, Note_on_c, 14, 41, 95
24, 179328, Note_on_c, 14, 41, 0
24, 180480, Note_on_c, 14, 41, 95
24, 180864, Note_on_c, 14, 41, 0
24, 180864, Note_on_c, 14, 41, 95
24, 181248, Note_on_c, 14, 41, 0
24, 181248, Note_on_c, 14, 41, 95
24, 181344, Note_on_c, 14, 41, 0
24, 181344, Note_on_c, 14, 41, 95
24, 181440, Note_on_c, 14, 41, 0
24, 181536, Note_on_c, 14, 41, 95
24, 181632, Note_on_c, 14, 41, 0
24, 181728, Note_on_c, 14, 41, 95
24, 181824, Note_on_c, 14, 41, 0
24, 181920, Note_on_c, 14, 41, 95
24, 182016, Note_on_c, 14, 41, 0
24, 182112, Note_on_c, 14, 41, 95
24, 182208, Note_on_c, 14, 41, 0
24, 182784, Note_on_c, 14, 41, 95
24, 182880, Note_on_c, 14, 41, 0
24, 182880, End_track
25, 0, Start_track
25, 0, MIDI_port, 0
25, 0, Title_t, "Guns"
25, 0, Program_c, 15, 127
25, 0, Control_c, 15, 7, 127
25, 0, Control_c, 15, 10, 120
25, 192, Program_c, 15, 127
25, 192, Control_c, 15, 7, 127
25, 237120, Note_on_c, 15, 31, 127
25, 237693, Note_on_c, 15, 31, 0
25, 237696, Note_on_c, 15, 31, 127
25, 238269, Note_on_c, 15, 31, 0
25, 238272, Note_on_c, 15, 31, 127
25, 238845, Note_on_c, 15, 31, 0
25, 238848, Note_on_c, 15, 31, 127
25, 239613, Note_on_c, 15, 31, 0
25, 239615, Note_on_c, 15, 31, 127
25, 241151, Note_on_c, 15, 31, 0
25, 242688, Note_on_c, 15, 31, 127
25, 246528, Note_on_c, 15, 31, 0
25, 259200, Note_on_c, 15, 31, 127
25, 259776, Note_on_c, 15, 31, 0
25, 259776, Note_on_c, 15, 31, 127
25, 260304, Note_on_c, 15, 31, 0
25, 260352, Note_on_c, 15, 31, 127
25, 260928, Note_on_c, 15, 31, 0
25, 260928, Note_on_c, 15, 31, 127
25, 261504, Note_on_c, 15, 31, 0
25, 261504, Note_on_c, 15, 31, 127
25, 262080, Note_on_c, 15, 31, 0
25, 262080, Note_on_c, 15, 31, 127
25, 262656, Note_on_c, 15, 31, 0
25, 262656, Note_on_c, 15, 31, 127
25, 263232, Note_on_c, 15, 31, 0
25, 263232, Note_on_c, 15, 31, 127
25, 263808, Note_on_c, 15, 31, 0
25, 263808, Note_on_c, 15, 31, 127
25, 264384, Note_on_c, 15, 31, 0
25, 264384, Note_on_c, 15, 31, 127
25, 264960, Note_on_c, 15, 31, 0
25, 264960, Note_on_c, 15, 31, 127
25, 265536, Note_on_c, 15, 31, 0
25, 265536, Note_on_c, 15, 31, 127
25, 266112, Note_on_c, 15, 31, 0
25, 266112, Note_on_c, 15, 31, 127
25, 266688, Note_on_c, 15, 31, 0
25, 266688, Note_on_c, 15, 31, 127
25, 267264, Note_on_c, 15, 31, 0
25, 267264, Note_on_c, 15, 31, 127
25, 267840, Note_on_c, 15, 31, 0
25, 267840, Note_on_c, 15, 31, 127
25, 268416, Note_on_c, 15, 31, 0
25, 268416, Note_on_c, 15, 31, 127
25, 268992, Note_on_c, 15, 31, 0
25, 268992, Note_on_c, 15, 31, 127
25, 269568, Note_on_c, 15, 31, 0
25, 269568, Note_on_c, 15, 31, 127
25, 270144, Note_on_c, 15, 31, 0
25, 270144, Note_on_c, 15, 31, 127
25, 270912, Note_on_c, 15, 31, 0
25, 276672, Note_on_c, 15, 31, 127
25, 276672, Note_on_c, 15, 31, 127
25, 277056, Note_on_c, 15, 31, 0
25, 277440, Note_on_c, 15, 31, 0
25, 277824, Note_on_c, 15, 31, 127
25, 277824, Note_on_c, 15, 31, 127
25, 278208, Note_on_c, 15, 31, 0
25, 278592, Note_on_c, 15, 31, 0
25, 278976, Note_on_c, 15, 31, 127
25, 279744, Note_on_c, 15, 31, 0
25, 279744, Note_on_c, 15, 31, 127
25, 279744, Note_on_c, 15, 31, 127
25, 280128, Note_on_c, 15, 31, 0
25, 280512, Note_on_c, 15, 31, 0
25, 280512, Note_on_c, 15, 31, 127
25, 280512, Note_on_c, 15, 31, 127
25, 280896, Note_on_c, 15, 31, 0
25, 281280, Note_on_c, 15, 31, 0
25, 281664, Note_on_c, 15, 31, 127
25, 281664, Note_on_c, 15, 31, 127
25, 282048, Note_on_c, 15, 31, 0
25, 282432, Note_on_c, 15, 31, 0
25, 282432, Note_on_c, 15, 31, 127
25, 283200, Note_on_c, 15, 31, 0
25, 283200, Note_on_c, 15, 31, 127
25, 283968, Note_on_c, 15, 31, 0
25, 283968, Note_on_c, 15, 31, 127
25, 283968, Note_on_c, 15, 31, 127
25, 284352, Note_on_c, 15, 31, 0
25, 284736, Note_on_c, 15, 31, 0
25, 285504, Note_on_c, 15, 31, 127
25, 285504, Note_on_c, 15, 31, 127
25, 285888, Note_on_c, 15, 31, 0
25, 286272, Note_on_c, 15, 31, 0
25, 287040, Note_on_c, 15, 31, 127
25, 287040, Note_on_c, 15, 31, 127
25, 287424, Note_on_c, 15, 31, 0
25, 287808, Note_on_c, 15, 31, 0
25, 288576, Note_on_c, 15, 31, 127
25, 288576, Note_on_c, 15, 31, 127
25, 288960, Note_on_c, 15, 31, 0
25, 289344, Note_on_c, 15, 31, 0
25, 289344, Note_on_c, 15, 31, 127
25, 290112, Note_on_c, 15, 31, 0
25, 290112, Note_on_c, 15, 31, 127
25, 290880, Note_on_c, 15, 31, 0
25, 293184, Note_on_c, 15, 31, 127
25, 293952, Note_on_c, 15, 31, 0
25, 293952, End_track
0, 0, End_of_file
