0, 0, Header, 1, 18, 384
1, 0, Start_track
1, 0, Time_signature, 4, 2, 96, 8
1, 0, Sequencer_specific, 3, 0, 0, 65
1, 0, Tempo, 810810
1, 179712, Tempo, 882352
1, 180480, Tempo, 1153846
1, 181248, Tempo, 882352
1, 199680, Tempo, 810810
1, 210048, Tempo, 1000000
1, 219648, Tempo, 1132075
1, 220032, Tempo, 1276595
1, 220416, Tempo, 1500000
1, 220800, Tempo, 1818181
1, 221184, Tempo, 769230
1, 221184, End_track
2, 0, Start_track
2, 0, Title_t, "Mozart - Violin"
2, 0, Control_c, 0, 0, 0
2, 0, Program_c, 0, 40
2, 0, Control_c, 0, 7, 96
2, 0, Control_c, 0, 10, 78
2, 0, Control_c, 0, 91, 57
2, 0, Control_c, 0, 93, 37
2, 0, Key_signature, 2, "major"
2, 0, Control_c, 0, 121, 127
2, 96, Pitch_bend_c, 0, 0
2, 192, Control_c, 0, 10, 83
2, 384, Control_c, 0, 91, 63
2, 480, Control_c, 0, 93, 40
2, 576, Program_c, 0, 40
2, 672, Control_c, 0, 1, 35
2, 33792, Note_on_c, 0, 86, 85
2, 34172, Note_off_c, 0, 86, 64
2, 34176, Note_on_c, 0, 81, 85
2, 34460, Note_off_c, 0, 81, 64
2, 34464, Note_on_c, 0, 81, 85
2, 34556, Note_off_c, 0, 81, 64
2, 34560, Note_on_c, 0, 78, 85
2, 34736, Note_on_c, 0, 74, 85
2, 34748, Note_off_c, 0, 78, 64
2, 34924, Note_off_c, 0, 74, 64
2, 35136, Note_on_c, 0, 74, 63
2, 35196, Note_off_c, 0, 74, 64
2, 35200, Note_on_c, 0, 76, 63
2, 35260, Note_off_c, 0, 76, 64
2, 35264, Note_on_c, 0, 74, 63
2, 35324, Note_off_c, 0, 74, 64
2, 35328, Note_on_c, 0, 79, 63
2, 35516, Note_off_c, 0, 79, 64
2, 35904, Note_on_c, 0, 74, 63
2, 35964, Note_off_c, 0, 74, 64
2, 35968, Note_on_c, 0, 76, 63
2, 36028, Note_off_c, 0, 76, 64
2, 36032, Note_on_c, 0, 74, 63
2, 36092, Note_off_c, 0, 74, 64
2, 36096, Note_on_c, 0, 83, 63
2, 36284, Note_off_c, 0, 83, 64
2, 36672, Note_on_c, 0, 86, 63
2, 36732, Note_off_c, 0, 86, 64
2, 36736, Note_on_c, 0, 85, 63
2, 36796, Note_off_c, 0, 85, 64
2, 36800, Note_on_c, 0, 83, 63
2, 36860, Note_off_c, 0, 83, 64
2, 36864, Note_on_c, 0, 81, 63
2, 36956, Note_off_c, 0, 81, 64
2, 36960, Note_on_c, 0, 81, 63
2, 36992, Note_off_c, 0, 81, 64
2, 36992, Note_on_c, 0, 83, 63
2, 37024, Note_off_c, 0, 83, 64
2, 37024, Note_on_c, 0, 81, 63
2, 37056, Note_off_c, 0, 81, 64
2, 37056, Note_on_c, 0, 83, 63
2, 37148, Note_off_c, 0, 83, 64
2, 37152, Note_on_c, 0, 78, 63
2, 37244, Note_off_c, 0, 78, 64
2, 37248, Note_on_c, 0, 81, 72
2, 37280, Note_off_c, 0, 81, 64
2, 37280, Note_on_c, 0, 79, 72
2, 37312, Note_off_c, 0, 79, 64
2, 37312, Note_on_c, 0, 81, 72
2, 37344, Note_off_c, 0, 81, 64
2, 37344, Note_on_c, 0, 79, 72
2, 37376, Note_off_c, 0, 79, 64
2, 37376, Note_on_c, 0, 81, 72
2, 37408, Note_off_c, 0, 81, 64
2, 37408, Note_on_c, 0, 79, 72
2, 37440, Note_off_c, 0, 79, 64
2, 37440, Note_on_c, 0, 81, 72
2, 37472, Note_off_c, 0, 81, 64
2, 37472, Note_on_c, 0, 79, 72
2, 37504, Note_off_c, 0, 79, 64
2, 37504, Note_on_c, 0, 81, 72
2, 37536, Note_off_c, 0, 81, 64
2, 37536, Note_on_c, 0, 78, 72
2, 37584, Note_off_c, 0, 78, 64
2, 37584, Note_on_c, 0, 79, 72
2, 37632, Note_off_c, 0, 79, 64
2, 37632, Note_on_c, 0, 79, 68
2, 37820, Note_off_c, 0, 79, 64
2, 37824, Note_on_c, 0, 78, 66
2, 38012, Note_off_c, 0, 78, 64
2, 38592, Note_on_c, 0, 74, 63
2, 38652, Note_off_c, 0, 74, 64
2, 38656, Note_on_c, 0, 76, 63
2, 38716, Note_off_c, 0, 76, 64
2, 38720, Note_on_c, 0, 74, 63
2, 38780, Note_off_c, 0, 74, 64
2, 38784, Note_on_c, 0, 79, 63
2, 38972, Note_off_c, 0, 79, 64
2, 39360, Note_on_c, 0, 74, 63
2, 39420, Note_off_c, 0, 74, 64
2, 39424, Note_on_c, 0, 76, 63
2, 39484, Note_off_c, 0, 76, 64
2, 39488, Note_on_c, 0, 74, 63
2, 39548, Note_off_c, 0, 74, 64
2, 39552, Note_on_c, 0, 83, 63
2, 39740, Note_off_c, 0, 83, 64
2, 39936, Note_on_c, 0, 81, 63
2, 40316, Note_off_c, 0, 81, 64
2, 40320, Note_on_c, 0, 81, 63
2, 40412, Note_off_c, 0, 81, 64
2, 40416, Note_on_c, 0, 83, 63
2, 40508, Note_off_c, 0, 83, 64
2, 40512, Note_on_c, 0, 85, 63
2, 40604, Note_off_c, 0, 85, 64
2, 40608, Note_on_c, 0, 86, 63
2, 40700, Note_off_c, 0, 86, 64
2, 40704, Note_on_c, 0, 86, 63
2, 40736, Note_off_c, 0, 86, 64
2, 40736, Note_on_c, 0, 88, 63
2, 40768, Note_off_c, 0, 88, 64
2, 40768, Note_on_c, 0, 85, 63
2, 40800, Note_off_c, 0, 85, 64
2, 40800, Note_on_c, 0, 85, 63
2, 40880, Note_on_c, 0, 85, 57
2, 40892, Note_off_c, 0, 85, 64
2, 41260, Note_off_c, 0, 85, 64
2, 41280, Note_on_c, 0, 88, 67
2, 41660, Note_off_c, 0, 88, 64
2, 41664, Note_on_c, 0, 91, 72
2, 42044, Note_off_c, 0, 91, 64
2, 42048, Note_on_c, 0, 55, 74
2, 42428, Note_off_c, 0, 55, 64
2, 42432, Note_on_c, 0, 79, 78
2, 42620, Note_off_c, 0, 79, 64
2, 42624, Note_on_c, 0, 79, 78
2, 42716, Note_off_c, 0, 79, 64
2, 42720, Note_on_c, 0, 81, 80
2, 42764, Note_off_c, 0, 81, 64
2, 42768, Note_on_c, 0, 83, 80
2, 42812, Note_off_c, 0, 83, 64
2, 42816, Note_on_c, 0, 81, 80
2, 42908, Note_off_c, 0, 81, 64
2, 42912, Note_on_c, 0, 79, 80
2, 43004, Note_off_c, 0, 79, 64
2, 43008, Note_on_c, 0, 78, 63
2, 43068, Note_off_c, 0, 78, 64
2, 43072, Note_on_c, 0, 81, 63
2, 43132, Note_off_c, 0, 81, 64
2, 43136, Note_on_c, 0, 81, 63
2, 43196, Note_off_c, 0, 81, 64
2, 43200, Note_on_c, 0, 81, 63
2, 43260, Note_off_c, 0, 81, 64
2, 43264, Note_on_c, 0, 78, 63
2, 43324, Note_off_c, 0, 78, 64
2, 43328, Note_on_c, 0, 74, 63
2, 43388, Note_off_c, 0, 74, 64
2, 43392, Note_on_c, 0, 76, 63
2, 43452, Note_off_c, 0, 76, 64
2, 43456, Note_on_c, 0, 81, 63
2, 43516, Note_off_c, 0, 81, 64
2, 43520, Note_on_c, 0, 81, 63
2, 43580, Note_off_c, 0, 81, 64
2, 43584, Note_on_c, 0, 81, 63
2, 43644, Note_off_c, 0, 81, 64
2, 43648, Note_on_c, 0, 79, 63
2, 43708, Note_off_c, 0, 79, 64
2, 43712, Note_on_c, 0, 76, 63
2, 43772, Note_off_c, 0, 76, 64
2, 43776, Note_on_c, 0, 78, 85
2, 43836, Note_off_c, 0, 78, 64
2, 43840, Note_on_c, 0, 81, 85
2, 43900, Note_off_c, 0, 81, 64
2, 43904, Note_on_c, 0, 81, 85
2, 43964, Note_off_c, 0, 81, 64
2, 43968, Note_on_c, 0, 81, 85
2, 44028, Note_off_c, 0, 81, 64
2, 44032, Note_on_c, 0, 78, 85
2, 44092, Note_off_c, 0, 78, 64
2, 44096, Note_on_c, 0, 74, 85
2, 44156, Note_off_c, 0, 74, 64
2, 44160, Note_on_c, 0, 76, 85
2, 44220, Note_off_c, 0, 76, 64
2, 44224, Note_on_c, 0, 81, 85
2, 44284, Note_off_c, 0, 81, 64
2, 44288, Note_on_c, 0, 81, 85
2, 44348, Note_off_c, 0, 81, 64
2, 44352, Note_on_c, 0, 81, 85
2, 44412, Note_off_c, 0, 81, 64
2, 44416, Note_on_c, 0, 79, 85
2, 44476, Note_off_c, 0, 79, 64
2, 44480, Note_on_c, 0, 76, 85
2, 44540, Note_off_c, 0, 76, 64
2, 44544, Note_on_c, 0, 78, 85
2, 44568, Note_off_c, 0, 78, 64
2, 44592, Note_on_c, 0, 74, 85
2, 44616, Note_off_c, 0, 74, 64
2, 44640, Note_on_c, 0, 76, 85
2, 44664, Note_off_c, 0, 76, 64
2, 44688, Note_on_c, 0, 78, 85
2, 44712, Note_off_c, 0, 78, 64
2, 44736, Note_on_c, 0, 79, 85
2, 44760, Note_off_c, 0, 79, 64
2, 44784, Note_on_c, 0, 81, 85
2, 44808, Note_off_c, 0, 81, 64
2, 44832, Note_on_c, 0, 83, 85
2, 44856, Note_off_c, 0, 83, 64
2, 44880, Note_on_c, 0, 85, 85
2, 44904, Note_off_c, 0, 85, 64
2, 44928, Note_on_c, 0, 86, 85
2, 45404, Note_off_c, 0, 86, 64
2, 45408, Note_on_c, 0, 85, 85
2, 45500, Note_off_c, 0, 85, 64
2, 45504, Note_on_c, 0, 83, 85
2, 45596, Note_off_c, 0, 83, 64
2, 45600, Note_on_c, 0, 81, 85
2, 45692, Note_off_c, 0, 81, 64
2, 45696, Note_on_c, 0, 79, 85
2, 45788, Note_off_c, 0, 79, 64
2, 45792, Note_on_c, 0, 78, 85
2, 45884, Note_off_c, 0, 78, 64
2, 45888, Note_on_c, 0, 76, 85
2, 45980, Note_off_c, 0, 76, 64
2, 45984, Note_on_c, 0, 78, 85
2, 46076, Note_off_c, 0, 78, 64
2, 46080, Note_on_c, 0, 78, 85
2, 46112, Note_off_c, 0, 78, 64
2, 46112, Note_on_c, 0, 79, 85
2, 46144, Note_off_c, 0, 79, 64
2, 46144, Note_on_c, 0, 78, 85
2, 46176, Note_off_c, 0, 78, 64
2, 46176, Note_on_c, 0, 79, 85
2, 46208, Note_off_c, 0, 79, 64
2, 46208, Note_on_c, 0, 78, 85
2, 46240, Note_off_c, 0, 78, 64
2, 46240, Note_on_c, 0, 79, 85
2, 46272, Note_off_c, 0, 79, 64
2, 46272, Note_on_c, 0, 76, 85
2, 46460, Note_off_c, 0, 76, 64
2, 46848, Note_on_c, 0, 76, 85
2, 47036, Note_off_c, 0, 76, 64
2, 47040, Note_on_c, 0, 76, 85
2, 47228, Note_off_c, 0, 76, 64
2, 47232, Note_on_c, 0, 76, 85
2, 47324, Note_off_c, 0, 76, 64
2, 47328, Note_on_c, 0, 85, 85
2, 47420, Note_off_c, 0, 85, 64
2, 47424, Note_on_c, 0, 83, 85
2, 47516, Note_off_c, 0, 83, 64
2, 47520, Note_on_c, 0, 81, 85
2, 47612, Note_off_c, 0, 81, 64
2, 47616, Note_on_c, 0, 81, 85
2, 47708, Note_off_c, 0, 81, 64
2, 47712, Note_on_c, 0, 80, 85
2, 47804, Note_off_c, 0, 80, 64
2, 47808, Note_on_c, 0, 80, 85
2, 48176, Note_on_c, 0, 78, 85
2, 48188, Note_off_c, 0, 80, 64
2, 48556, Note_off_c, 0, 78, 64
2, 48576, Note_on_c, 0, 76, 85
2, 48956, Note_off_c, 0, 76, 64
2, 48960, Note_on_c, 0, 74, 85
2, 49148, Note_off_c, 0, 74, 64
2, 49152, Note_on_c, 0, 74, 85
2, 49184, Note_off_c, 0, 74, 64
2, 49184, Note_on_c, 0, 76, 85
2, 49216, Note_off_c, 0, 76, 64
2, 49216, Note_on_c, 0, 74, 85
2, 49248, Note_off_c, 0, 74, 64
2, 49248, Note_on_c, 0, 76, 85
2, 49280, Note_off_c, 0, 76, 64
2, 49280, Note_on_c, 0, 74, 85
2, 49312, Note_off_c, 0, 74, 64
2, 49312, Note_on_c, 0, 76, 85
2, 49344, Note_off_c, 0, 76, 64
2, 49344, Note_on_c, 0, 74, 85
2, 49376, Note_off_c, 0, 74, 64
2, 49376, Note_on_c, 0, 76, 85
2, 49408, Note_off_c, 0, 76, 64
2, 49408, Note_on_c, 0, 74, 85
2, 49440, Note_off_c, 0, 74, 64
2, 49440, Note_on_c, 0, 73, 85
2, 49488, Note_off_c, 0, 73, 64
2, 49488, Note_on_c, 0, 74, 85
2, 49536, Note_off_c, 0, 74, 64
2, 49536, Note_on_c, 0, 73, 85
2, 49724, Note_off_c, 0, 73, 64
2, 49920, Note_on_c, 0, 76, 85
2, 50108, Note_off_c, 0, 76, 64
2, 50112, Note_on_c, 0, 76, 88
2, 50300, Note_off_c, 0, 76, 64
2, 50304, Note_on_c, 0, 76, 88
2, 50396, Note_off_c, 0, 76, 64
2, 50400, Note_on_c, 0, 85, 88
2, 50492, Note_off_c, 0, 85, 64
2, 50496, Note_on_c, 0, 83, 88
2, 50588, Note_off_c, 0, 83, 64
2, 50592, Note_on_c, 0, 81, 89
2, 50684, Note_off_c, 0, 81, 64
2, 50688, Note_on_c, 0, 81, 89
2, 50780, Note_off_c, 0, 81, 64
2, 50784, Note_on_c, 0, 78, 89
2, 50876, Note_off_c, 0, 78, 64
2, 50880, Note_on_c, 0, 78, 91
2, 51260, Note_off_c, 0, 78, 64
2, 51264, Note_on_c, 0, 76, 89
2, 51452, Note_off_c, 0, 76, 64
2, 51456, Note_on_c, 0, 76, 88
2, 51644, Note_off_c, 0, 76, 64
2, 51648, Note_on_c, 0, 74, 88
2, 52028, Note_off_c, 0, 74, 64
2, 52032, Note_on_c, 0, 73, 85
2, 52220, Note_off_c, 0, 73, 64
2, 52224, Note_on_c, 0, 73, 85
2, 52256, Note_off_c, 0, 73, 64
2, 52256, Note_on_c, 0, 74, 85
2, 52288, Note_off_c, 0, 74, 64
2, 52288, Note_on_c, 0, 73, 85
2, 52320, Note_off_c, 0, 73, 64
2, 52320, Note_on_c, 0, 74, 85
2, 52352, Note_off_c, 0, 74, 64
2, 52352, Note_on_c, 0, 73, 85
2, 52384, Note_off_c, 0, 73, 64
2, 52384, Note_on_c, 0, 74, 85
2, 52416, Note_off_c, 0, 74, 64
2, 52416, Note_on_c, 0, 71, 85
2, 52604, Note_off_c, 0, 71, 64
2, 53088, Note_on_c, 0, 76, 61
2, 53180, Note_off_c, 0, 76, 64
2, 53184, Note_on_c, 0, 75, 61
2, 53276, Note_off_c, 0, 75, 64
2, 53280, Note_on_c, 0, 76, 61
2, 53372, Note_off_c, 0, 76, 64
2, 53376, Note_on_c, 0, 75, 61
2, 53468, Note_off_c, 0, 75, 64
2, 53472, Note_on_c, 0, 76, 61
2, 53564, Note_off_c, 0, 76, 64
2, 53568, Note_on_c, 0, 78, 61
2, 53660, Note_off_c, 0, 78, 64
2, 53664, Note_on_c, 0, 76, 61
2, 53756, Note_off_c, 0, 76, 64
2, 53760, Note_on_c, 0, 64, 85
2, 53820, Note_off_c, 0, 64, 64
2, 53824, Note_on_c, 0, 74, 85
2, 53884, Note_off_c, 0, 74, 64
2, 53888, Note_on_c, 0, 83, 85
2, 53888, Note_on_c, 0, 83, 85
2, 53948, Note_off_c, 0, 83, 64
2, 53948, Note_off_c, 0, 83, 64
2, 53952, Note_on_c, 0, 65, 85
2, 54012, Note_off_c, 0, 65, 64
2, 54016, Note_on_c, 0, 74, 85
2, 54076, Note_off_c, 0, 74, 64
2, 54080, Note_on_c, 0, 83, 85
2, 54140, Note_off_c, 0, 83, 64
2, 54144, Note_on_c, 0, 64, 85
2, 54204, Note_off_c, 0, 64, 64
2, 54208, Note_on_c, 0, 74, 85
2, 54268, Note_off_c, 0, 74, 64
2, 54272, Note_on_c, 0, 83, 85
2, 54332, Note_off_c, 0, 83, 64
2, 54336, Note_on_c, 0, 65, 85
2, 54396, Note_off_c, 0, 65, 64
2, 54400, Note_on_c, 0, 74, 85
2, 54460, Note_off_c, 0, 74, 64
2, 54464, Note_on_c, 0, 83, 85
2, 54524, Note_off_c, 0, 83, 64
2, 54528, Note_on_c, 0, 64, 85
2, 54588, Note_off_c, 0, 64, 64
2, 54592, Note_on_c, 0, 74, 85
2, 54652, Note_off_c, 0, 74, 64
2, 54656, Note_on_c, 0, 83, 85
2, 54716, Note_off_c, 0, 83, 64
2, 54720, Note_on_c, 0, 83, 85
2, 54780, Note_off_c, 0, 83, 64
2, 54784, Note_on_c, 0, 83, 85
2, 54844, Note_off_c, 0, 83, 64
2, 54848, Note_on_c, 0, 83, 85
2, 54908, Note_off_c, 0, 83, 64
2, 54912, Note_on_c, 0, 83, 85
2, 54972, Note_off_c, 0, 83, 64
2, 54976, Note_on_c, 0, 81, 85
2, 55036, Note_off_c, 0, 81, 64
2, 55040, Note_on_c, 0, 80, 85
2, 55100, Note_off_c, 0, 80, 64
2, 55104, Note_on_c, 0, 78, 85
2, 55164, Note_off_c, 0, 78, 64
2, 55168, Note_on_c, 0, 76, 85
2, 55228, Note_off_c, 0, 76, 64
2, 55232, Note_on_c, 0, 74, 85
2, 55292, Note_off_c, 0, 74, 64
2, 55296, Note_on_c, 0, 64, 85
2, 55356, Note_off_c, 0, 64, 64
2, 55360, Note_on_c, 0, 73, 85
2, 55420, Note_off_c, 0, 73, 64
2, 55424, Note_on_c, 0, 81, 85
2, 55484, Note_off_c, 0, 81, 64
2, 55488, Note_on_c, 0, 64, 85
2, 55548, Note_off_c, 0, 64, 64
2, 55552, Note_on_c, 0, 74, 85
2, 55612, Note_off_c, 0, 74, 64
2, 55616, Note_on_c, 0, 83, 85
2, 55676, Note_off_c, 0, 83, 64
2, 55680, Note_on_c, 0, 64, 85
2, 55740, Note_off_c, 0, 64, 64
2, 55744, Note_on_c, 0, 73, 85
2, 55804, Note_off_c, 0, 73, 64
2, 55808, Note_on_c, 0, 81, 85
2, 55868, Note_off_c, 0, 81, 64
2, 55872, Note_on_c, 0, 64, 85
2, 55932, Note_off_c, 0, 64, 64
2, 55936, Note_on_c, 0, 74, 85
2, 55996, Note_off_c, 0, 74, 64
2, 56000, Note_on_c, 0, 83, 85
2, 56060, Note_off_c, 0, 83, 64
2, 56064, Note_on_c, 0, 64, 85
2, 56124, Note_off_c, 0, 64, 64
2, 56128, Note_on_c, 0, 73, 85
2, 56188, Note_off_c, 0, 73, 64
2, 56192, Note_on_c, 0, 83, 85
2, 56252, Note_off_c, 0, 83, 64
2, 56256, Note_on_c, 0, 81, 85
2, 56316, Note_off_c, 0, 81, 64
2, 56320, Note_on_c, 0, 81, 85
2, 56380, Note_off_c, 0, 81, 64
2, 56384, Note_on_c, 0, 81, 85
2, 56444, Note_off_c, 0, 81, 64
2, 56448, Note_on_c, 0, 81, 85
2, 56508, Note_off_c, 0, 81, 64
2, 56512, Note_on_c, 0, 80, 85
2, 56572, Note_off_c, 0, 80, 64
2, 56576, Note_on_c, 0, 78, 85
2, 56636, Note_off_c, 0, 78, 64
2, 56640, Note_on_c, 0, 76, 85
2, 56700, Note_off_c, 0, 76, 64
2, 56704, Note_on_c, 0, 74, 85
2, 56764, Note_off_c, 0, 74, 64
2, 56768, Note_on_c, 0, 73, 85
2, 56828, Note_off_c, 0, 73, 64
2, 56832, Note_on_c, 0, 64, 63
2, 56892, Note_off_c, 0, 64, 64
2, 56896, Note_on_c, 0, 74, 63
2, 56956, Note_off_c, 0, 74, 64
2, 56960, Note_on_c, 0, 83, 63
2, 57020, Note_off_c, 0, 83, 64
2, 57024, Note_on_c, 0, 65, 63
2, 57084, Note_off_c, 0, 65, 64
2, 57088, Note_on_c, 0, 74, 63
2, 57148, Note_off_c, 0, 74, 64
2, 57152, Note_on_c, 0, 83, 63
2, 57212, Note_off_c, 0, 83, 64
2, 57216, Note_on_c, 0, 64, 63
2, 57276, Note_off_c, 0, 64, 64
2, 57280, Note_on_c, 0, 74, 63
2, 57340, Note_off_c, 0, 74, 64
2, 57344, Note_on_c, 0, 83, 63
2, 57404, Note_off_c, 0, 83, 64
2, 57408, Note_on_c, 0, 65, 63
2, 57468, Note_off_c, 0, 65, 64
2, 57472, Note_on_c, 0, 74, 63
2, 57532, Note_off_c, 0, 74, 64
2, 57536, Note_on_c, 0, 83, 63
2, 57596, Note_off_c, 0, 83, 64
2, 57600, Note_on_c, 0, 64, 63
2, 57660, Note_off_c, 0, 64, 64
2, 57664, Note_on_c, 0, 74, 63
2, 57724, Note_off_c, 0, 74, 64
2, 57728, Note_on_c, 0, 83, 63
2, 57788, Note_off_c, 0, 83, 64
2, 57792, Note_on_c, 0, 83, 63
2, 57852, Note_off_c, 0, 83, 64
2, 57856, Note_on_c, 0, 83, 63
2, 57916, Note_off_c, 0, 83, 64
2, 57920, Note_on_c, 0, 83, 63
2, 57980, Note_off_c, 0, 83, 64
2, 57984, Note_on_c, 0, 83, 63
2, 58044, Note_off_c, 0, 83, 64
2, 58048, Note_on_c, 0, 81, 63
2, 58108, Note_off_c, 0, 81, 64
2, 58112, Note_on_c, 0, 80, 63
2, 58172, Note_off_c, 0, 80, 64
2, 58176, Note_on_c, 0, 78, 63
2, 58236, Note_off_c, 0, 78, 64
2, 58240, Note_on_c, 0, 76, 63
2, 58300, Note_off_c, 0, 76, 64
2, 58304, Note_on_c, 0, 74, 63
2, 58364, Note_off_c, 0, 74, 64
2, 58368, Note_on_c, 0, 73, 63
2, 58428, Note_off_c, 0, 73, 64
2, 58432, Note_on_c, 0, 76, 63
2, 58492, Note_off_c, 0, 76, 64
2, 58496, Note_on_c, 0, 81, 63
2, 58556, Note_off_c, 0, 81, 64
2, 58560, Note_on_c, 0, 85, 63
2, 58652, Note_off_c, 0, 85, 64
2, 58752, Note_on_c, 0, 76, 63
2, 58812, Note_off_c, 0, 76, 64
2, 58816, Note_on_c, 0, 81, 63
2, 58876, Note_off_c, 0, 81, 64
2, 58880, Note_on_c, 0, 85, 63
2, 58940, Note_off_c, 0, 85, 64
2, 58944, Note_on_c, 0, 88, 63
2, 59036, Note_off_c, 0, 88, 64
2, 59136, Note_on_c, 0, 73, 63
2, 59196, Note_off_c, 0, 73, 64
2, 59200, Note_on_c, 0, 76, 63
2, 59260, Note_off_c, 0, 76, 64
2, 59264, Note_on_c, 0, 81, 63
2, 59324, Note_off_c, 0, 81, 64
2, 59328, Note_on_c, 0, 85, 63
2, 59420, Note_off_c, 0, 85, 64
2, 59424, Note_on_c, 0, 85, 63
2, 59516, Note_off_c, 0, 85, 64
2, 59520, Note_on_c, 0, 76, 63
2, 59580, Note_off_c, 0, 76, 64
2, 59584, Note_on_c, 0, 81, 63
2, 59644, Note_off_c, 0, 81, 64
2, 59648, Note_on_c, 0, 85, 63
2, 59708, Note_off_c, 0, 85, 64
2, 59712, Note_on_c, 0, 88, 63
2, 59804, Note_off_c, 0, 88, 64
2, 59808, Note_on_c, 0, 88, 63
2, 59900, Note_off_c, 0, 88, 64
2, 59904, Note_on_c, 0, 64, 85
2, 60284, Note_off_c, 0, 64, 64
2, 60288, Note_on_c, 0, 83, 85
2, 60320, Note_off_c, 0, 83, 64
2, 60320, Note_on_c, 0, 85, 85
2, 60352, Note_off_c, 0, 85, 64
2, 60352, Note_on_c, 0, 83, 85
2, 60384, Note_off_c, 0, 83, 64
2, 60384, Note_on_c, 0, 85, 85
2, 60416, Note_off_c, 0, 85, 64
2, 60416, Note_on_c, 0, 83, 85
2, 60448, Note_off_c, 0, 83, 64
2, 60448, Note_on_c, 0, 85, 85
2, 60480, Note_off_c, 0, 85, 64
2, 60480, Note_on_c, 0, 83, 85
2, 60512, Note_off_c, 0, 83, 64
2, 60512, Note_on_c, 0, 85, 85
2, 60544, Note_off_c, 0, 85, 64
2, 60544, Note_on_c, 0, 83, 85
2, 60576, Note_off_c, 0, 83, 64
2, 60576, Note_on_c, 0, 81, 85
2, 60624, Note_off_c, 0, 81, 64
2, 60624, Note_on_c, 0, 83, 85
2, 60672, Note_off_c, 0, 83, 64
2, 60672, Note_on_c, 0, 81, 85
2, 61052, Note_off_c, 0, 81, 64
2, 62208, Note_on_c, 0, 88, 69
2, 64028, Note_off_c, 0, 88, 64
2, 64032, Note_on_c, 0, 76, 63
2, 64124, Note_off_c, 0, 76, 64
2, 64128, Note_on_c, 0, 76, 63
2, 64316, Note_off_c, 0, 76, 64
2, 64320, Note_on_c, 0, 76, 63
2, 64508, Note_off_c, 0, 76, 64
2, 64512, Note_on_c, 0, 76, 63
2, 64604, Note_off_c, 0, 76, 64
2, 64608, Note_on_c, 0, 85, 63
2, 64796, Note_off_c, 0, 85, 64
2, 64800, Note_on_c, 0, 76, 63
2, 64892, Note_off_c, 0, 76, 64
2, 64896, Note_on_c, 0, 76, 63
2, 64988, Note_off_c, 0, 76, 64
2, 64992, Note_on_c, 0, 86, 63
2, 65180, Note_off_c, 0, 86, 64
2, 65184, Note_on_c, 0, 76, 63
2, 65276, Note_off_c, 0, 76, 64
2, 65280, Note_on_c, 0, 76, 63
2, 65372, Note_off_c, 0, 76, 64
2, 65376, Note_on_c, 0, 88, 63
2, 65468, Note_off_c, 0, 88, 64
2, 65472, Note_on_c, 0, 88, 63
2, 65660, Note_off_c, 0, 88, 64
2, 65856, Note_on_c, 0, 76, 63
2, 66044, Note_off_c, 0, 76, 64
2, 66048, Note_on_c, 0, 76, 63
2, 66140, Note_off_c, 0, 76, 64
2, 66144, Note_on_c, 0, 83, 63
2, 66332, Note_off_c, 0, 83, 64
2, 66336, Note_on_c, 0, 76, 63
2, 66428, Note_off_c, 0, 76, 64
2, 66432, Note_on_c, 0, 76, 63
2, 66524, Note_off_c, 0, 76, 64
2, 66544, Note_on_c, 0, 85, 63
2, 66720, Note_on_c, 0, 76, 63
2, 66732, Note_off_c, 0, 85, 64
2, 66812, Note_off_c, 0, 76, 64
2, 66816, Note_on_c, 0, 76, 63
2, 66908, Note_off_c, 0, 76, 64
2, 66912, Note_on_c, 0, 86, 63
2, 67004, Note_off_c, 0, 86, 64
2, 67008, Note_on_c, 0, 86, 63
2, 67196, Note_off_c, 0, 86, 64
2, 67392, Note_on_c, 0, 74, 79
2, 67580, Note_off_c, 0, 74, 64
2, 67584, Note_on_c, 0, 73, 79
2, 67964, Note_off_c, 0, 73, 64
2, 67968, Note_on_c, 0, 74, 79
2, 68000, Note_off_c, 0, 74, 64
2, 68000, Note_on_c, 0, 76, 79
2, 68032, Note_off_c, 0, 76, 64
2, 68032, Note_on_c, 0, 74, 79
2, 68064, Note_off_c, 0, 74, 64
2, 68064, Note_on_c, 0, 76, 79
2, 68096, Note_off_c, 0, 76, 64
2, 68096, Note_on_c, 0, 74, 79
2, 68128, Note_off_c, 0, 74, 64
2, 68128, Note_on_c, 0, 76, 79
2, 68160, Note_off_c, 0, 76, 64
2, 68160, Note_on_c, 0, 74, 79
2, 68192, Note_off_c, 0, 74, 64
2, 68192, Note_on_c, 0, 76, 79
2, 68224, Note_off_c, 0, 76, 64
2, 68224, Note_on_c, 0, 74, 79
2, 68256, Note_off_c, 0, 74, 64
2, 68256, Note_on_c, 0, 73, 79
2, 68304, Note_off_c, 0, 73, 64
2, 68304, Note_on_c, 0, 74, 79
2, 68352, Note_off_c, 0, 74, 64
2, 68352, Note_on_c, 0, 76, 79
2, 68732, Note_off_c, 0, 76, 64
2, 68800, Note_on_c, 0, 69, 79
2, 68860, Note_off_c, 0, 69, 64
2, 68864, Note_on_c, 0, 68, 79
2, 68924, Note_off_c, 0, 68, 64
2, 68928, Note_on_c, 0, 69, 79
2, 68988, Note_off_c, 0, 69, 64
2, 68992, Note_on_c, 0, 66, 79
2, 69052, Note_off_c, 0, 66, 64
2, 69056, Note_on_c, 0, 62, 79
2, 69116, Note_off_c, 0, 62, 64
2, 69120, Note_on_c, 0, 61, 79
2, 69500, Note_off_c, 0, 61, 64
2, 69504, Note_on_c, 0, 62, 79
2, 69536, Note_off_c, 0, 62, 64
2, 69536, Note_on_c, 0, 64, 79
2, 69568, Note_off_c, 0, 64, 64
2, 69568, Note_on_c, 0, 62, 79
2, 69600, Note_off_c, 0, 62, 64
2, 69600, Note_on_c, 0, 64, 79
2, 69632, Note_off_c, 0, 64, 64
2, 69632, Note_on_c, 0, 62, 79
2, 69664, Note_off_c, 0, 62, 64
2, 69664, Note_on_c, 0, 64, 79
2, 69696, Note_off_c, 0, 64, 64
2, 69696, Note_on_c, 0, 62, 79
2, 69728, Note_off_c, 0, 62, 64
2, 69728, Note_on_c, 0, 64, 79
2, 69760, Note_off_c, 0, 64, 64
2, 69760, Note_on_c, 0, 62, 79
2, 69792, Note_off_c, 0, 62, 64
2, 69792, Note_on_c, 0, 61, 79
2, 69840, Note_off_c, 0, 61, 64
2, 69840, Note_on_c, 0, 62, 79
2, 69888, Note_off_c, 0, 62, 64
2, 69888, Note_on_c, 0, 64, 79
2, 70268, Note_off_c, 0, 64, 64
2, 70336, Note_on_c, 0, 81, 63
2, 70396, Note_off_c, 0, 81, 64
2, 70400, Note_on_c, 0, 80, 63
2, 70460, Note_off_c, 0, 80, 64
2, 70464, Note_on_c, 0, 81, 63
2, 70524, Note_off_c, 0, 81, 64
2, 70528, Note_on_c, 0, 78, 63
2, 70588, Note_off_c, 0, 78, 64
2, 70592, Note_on_c, 0, 74, 63
2, 70652, Note_off_c, 0, 74, 64
2, 70656, Note_on_c, 0, 73, 63
2, 71036, Note_off_c, 0, 73, 64
2, 71040, Note_on_c, 0, 74, 63
2, 71072, Note_off_c, 0, 74, 64
2, 71072, Note_on_c, 0, 76, 63
2, 71104, Note_off_c, 0, 76, 64
2, 71104, Note_on_c, 0, 74, 63
2, 71136, Note_off_c, 0, 74, 64
2, 71136, Note_on_c, 0, 76, 63
2, 71168, Note_off_c, 0, 76, 64
2, 71168, Note_on_c, 0, 74, 63
2, 71200, Note_off_c, 0, 74, 64
2, 71200, Note_on_c, 0, 76, 63
2, 71232, Note_off_c, 0, 76, 64
2, 71232, Note_on_c, 0, 74, 63
2, 71264, Note_off_c, 0, 74, 64
2, 71264, Note_on_c, 0, 76, 63
2, 71296, Note_off_c, 0, 76, 64
2, 71296, Note_on_c, 0, 74, 63
2, 71328, Note_off_c, 0, 74, 64
2, 71328, Note_on_c, 0, 73, 63
2, 71376, Note_off_c, 0, 73, 64
2, 71376, Note_on_c, 0, 74, 63
2, 71424, Note_off_c, 0, 74, 64
2, 71424, Note_on_c, 0, 76, 63
2, 71516, Note_off_c, 0, 76, 64
2, 71520, Note_on_c, 0, 81, 66
2, 71708, Note_off_c, 0, 81, 64
2, 71712, Note_on_c, 0, 79, 67
2, 71900, Note_off_c, 0, 79, 64
2, 71904, Note_on_c, 0, 78, 68
2, 72092, Note_off_c, 0, 78, 64
2, 72096, Note_on_c, 0, 77, 69
2, 72284, Note_off_c, 0, 77, 64
2, 72288, Note_on_c, 0, 78, 72
2, 72476, Note_off_c, 0, 78, 64
2, 72480, Note_on_c, 0, 86, 74
2, 72668, Note_off_c, 0, 86, 64
2, 72672, Note_on_c, 0, 85, 77
2, 72860, Note_off_c, 0, 85, 64
2, 72864, Note_on_c, 0, 83, 78
2, 72956, Note_off_c, 0, 83, 64
2, 72960, Note_on_c, 0, 81, 79
2, 73340, Note_off_c, 0, 81, 64
2, 73344, Note_on_c, 0, 83, 82
2, 73376, Note_off_c, 0, 83, 64
2, 73376, Note_on_c, 0, 85, 82
2, 73408, Note_off_c, 0, 85, 64
2, 73408, Note_on_c, 0, 83, 82
2, 73440, Note_off_c, 0, 83, 64
2, 73440, Note_on_c, 0, 85, 83
2, 73472, Note_off_c, 0, 85, 64
2, 73472, Note_on_c, 0, 83, 83
2, 73504, Note_off_c, 0, 83, 64
2, 73504, Note_on_c, 0, 85, 83
2, 73536, Note_off_c, 0, 85, 64
2, 73536, Note_on_c, 0, 83, 83
2, 73568, Note_off_c, 0, 83, 64
2, 73568, Note_on_c, 0, 85, 83
2, 73600, Note_off_c, 0, 85, 64
2, 73600, Note_on_c, 0, 83, 83
2, 73632, Note_off_c, 0, 83, 64
2, 73632, Note_on_c, 0, 81, 84
2, 73680, Note_off_c, 0, 81, 64
2, 73680, Note_on_c, 0, 83, 84
2, 73728, Note_off_c, 0, 83, 64
2, 73728, Note_on_c, 0, 85, 85
2, 73788, Note_off_c, 0, 85, 64
2, 73792, Note_on_c, 0, 81, 85
2, 73852, Note_off_c, 0, 81, 64
2, 73856, Note_on_c, 0, 76, 85
2, 73916, Note_off_c, 0, 76, 64
2, 73920, Note_on_c, 0, 81, 85
2, 73980, Note_off_c, 0, 81, 64
2, 73984, Note_on_c, 0, 83, 85
2, 74044, Note_off_c, 0, 83, 64
2, 74048, Note_on_c, 0, 85, 85
2, 74108, Note_off_c, 0, 85, 64
2, 74112, Note_on_c, 0, 86, 85
2, 74172, Note_off_c, 0, 86, 64
2, 74176, Note_on_c, 0, 83, 85
2, 74236, Note_off_c, 0, 83, 64
2, 74240, Note_on_c, 0, 76, 85
2, 74300, Note_off_c, 0, 76, 64
2, 74304, Note_on_c, 0, 83, 85
2, 74364, Note_off_c, 0, 83, 64
2, 74368, Note_on_c, 0, 85, 85
2, 74428, Note_off_c, 0, 85, 64
2, 74432, Note_on_c, 0, 86, 85
2, 74492, Note_off_c, 0, 86, 64
2, 74496, Note_on_c, 0, 85, 85
2, 74556, Note_off_c, 0, 85, 64
2, 74560, Note_on_c, 0, 81, 85
2, 74620, Note_off_c, 0, 81, 64
2, 74624, Note_on_c, 0, 76, 85
2, 74684, Note_off_c, 0, 76, 64
2, 74688, Note_on_c, 0, 81, 85
2, 74748, Note_off_c, 0, 81, 64
2, 74752, Note_on_c, 0, 83, 85
2, 74812, Note_off_c, 0, 83, 64
2, 74816, Note_on_c, 0, 85, 85
2, 74876, Note_off_c, 0, 85, 64
2, 74880, Note_on_c, 0, 86, 85
2, 74940, Note_off_c, 0, 86, 64
2, 74944, Note_on_c, 0, 83, 85
2, 75004, Note_off_c, 0, 83, 64
2, 75008, Note_on_c, 0, 76, 85
2, 75068, Note_off_c, 0, 76, 64
2, 75072, Note_on_c, 0, 83, 85
2, 75132, Note_off_c, 0, 83, 64
2, 75136, Note_on_c, 0, 85, 85
2, 75196, Note_off_c, 0, 85, 64
2, 75200, Note_on_c, 0, 86, 85
2, 75260, Note_off_c, 0, 86, 64
2, 75264, Note_on_c, 0, 85, 85
2, 75324, Note_off_c, 0, 85, 64
2, 75328, Note_on_c, 0, 83, 85
2, 75388, Note_off_c, 0, 83, 64
2, 75392, Note_on_c, 0, 81, 85
2, 75452, Note_off_c, 0, 81, 64
2, 75456, Note_on_c, 0, 79, 85
2, 75516, Note_off_c, 0, 79, 64
2, 75520, Note_on_c, 0, 78, 85
2, 75580, Note_off_c, 0, 78, 64
2, 75584, Note_on_c, 0, 76, 85
2, 75644, Note_off_c, 0, 76, 64
2, 75648, Note_on_c, 0, 83, 85
2, 75680, Note_off_c, 0, 83, 64
2, 75680, Note_on_c, 0, 85, 85
2, 75712, Note_off_c, 0, 85, 64
2, 75712, Note_on_c, 0, 83, 85
2, 75744, Note_off_c, 0, 83, 64
2, 75744, Note_on_c, 0, 85, 85
2, 75776, Note_off_c, 0, 85, 64
2, 75776, Note_on_c, 0, 83, 85
2, 75808, Note_off_c, 0, 83, 64
2, 75808, Note_on_c, 0, 85, 85
2, 75840, Note_off_c, 0, 85, 64
2, 75840, Note_on_c, 0, 83, 85
2, 75872, Note_off_c, 0, 83, 64
2, 75872, Note_on_c, 0, 85, 85
2, 75904, Note_off_c, 0, 85, 64
2, 75904, Note_on_c, 0, 83, 85
2, 75936, Note_off_c, 0, 83, 64
2, 75936, Note_on_c, 0, 81, 85
2, 75984, Note_off_c, 0, 81, 64
2, 75984, Note_on_c, 0, 83, 85
2, 76032, Note_off_c, 0, 83, 64
2, 76032, Note_on_c, 0, 85, 63
2, 76092, Note_off_c, 0, 85, 64
2, 76096, Note_on_c, 0, 81, 63
2, 76156, Note_off_c, 0, 81, 64
2, 76160, Note_on_c, 0, 76, 63
2, 76220, Note_off_c, 0, 76, 64
2, 76224, Note_on_c, 0, 81, 63
2, 76284, Note_off_c, 0, 81, 64
2, 76288, Note_on_c, 0, 83, 63
2, 76348, Note_off_c, 0, 83, 64
2, 76352, Note_on_c, 0, 85, 63
2, 76412, Note_off_c, 0, 85, 64
2, 76416, Note_on_c, 0, 86, 63
2, 76476, Note_off_c, 0, 86, 64
2, 76480, Note_on_c, 0, 83, 63
2, 76540, Note_off_c, 0, 83, 64
2, 76544, Note_on_c, 0, 76, 63
2, 76604, Note_off_c, 0, 76, 64
2, 76608, Note_on_c, 0, 83, 63
2, 76668, Note_off_c, 0, 83, 64
2, 76672, Note_on_c, 0, 85, 63
2, 76732, Note_off_c, 0, 85, 64
2, 76736, Note_on_c, 0, 86, 63
2, 76796, Note_off_c, 0, 86, 64
2, 76800, Note_on_c, 0, 85, 63
2, 76860, Note_off_c, 0, 85, 64
2, 76864, Note_on_c, 0, 81, 63
2, 76924, Note_off_c, 0, 81, 64
2, 76928, Note_on_c, 0, 76, 63
2, 76988, Note_off_c, 0, 76, 64
2, 76992, Note_on_c, 0, 81, 63
2, 77052, Note_off_c, 0, 81, 64
2, 77056, Note_on_c, 0, 83, 63
2, 77116, Note_off_c, 0, 83, 64
2, 77120, Note_on_c, 0, 85, 63
2, 77180, Note_off_c, 0, 85, 64
2, 77184, Note_on_c, 0, 86, 63
2, 77244, Note_off_c, 0, 86, 64
2, 77248, Note_on_c, 0, 83, 63
2, 77308, Note_off_c, 0, 83, 64
2, 77312, Note_on_c, 0, 76, 63
2, 77372, Note_off_c, 0, 76, 64
2, 77376, Note_on_c, 0, 83, 63
2, 77436, Note_off_c, 0, 83, 64
2, 77440, Note_on_c, 0, 85, 63
2, 77500, Note_off_c, 0, 85, 64
2, 77504, Note_on_c, 0, 86, 63
2, 77564, Note_off_c, 0, 86, 64
2, 77568, Note_on_c, 0, 85, 63
2, 77612, Note_off_c, 0, 85, 64
2, 77616, Note_on_c, 0, 69, 66
2, 77660, Note_off_c, 0, 69, 64
2, 77664, Note_on_c, 0, 71, 67
2, 77708, Note_off_c, 0, 71, 64
2, 77712, Note_on_c, 0, 73, 68
2, 77756, Note_off_c, 0, 73, 64
2, 77760, Note_on_c, 0, 74, 69
2, 77804, Note_off_c, 0, 74, 64
2, 77808, Note_on_c, 0, 76, 72
2, 77852, Note_off_c, 0, 76, 64
2, 77856, Note_on_c, 0, 78, 72
2, 77900, Note_off_c, 0, 78, 64
2, 77904, Note_on_c, 0, 80, 74
2, 77948, Note_off_c, 0, 80, 64
2, 77952, Note_on_c, 0, 81, 63
2, 77996, Note_off_c, 0, 81, 64
2, 78000, Note_on_c, 0, 76, 66
2, 78044, Note_off_c, 0, 76, 64
2, 78048, Note_on_c, 0, 78, 67
2, 78092, Note_off_c, 0, 78, 64
2, 78096, Note_on_c, 0, 80, 68
2, 78140, Note_off_c, 0, 80, 64
2, 78144, Note_on_c, 0, 81, 69
2, 78188, Note_off_c, 0, 81, 64
2, 78192, Note_on_c, 0, 83, 72
2, 78236, Note_off_c, 0, 83, 64
2, 78240, Note_on_c, 0, 85, 72
2, 78284, Note_off_c, 0, 85, 64
2, 78288, Note_on_c, 0, 86, 74
2, 78332, Note_off_c, 0, 86, 64
2, 78336, Note_on_c, 0, 88, 67
2, 78480, Note_off_c, 0, 88, 64
2, 78480, Note_on_c, 0, 85, 68
2, 78528, Note_off_c, 0, 85, 64
2, 78528, Note_on_c, 0, 88, 69
2, 78908, Note_off_c, 0, 88, 64
2, 78912, Note_on_c, 0, 77, 74
2, 78976, Note_off_c, 0, 77, 64
2, 78976, Note_on_c, 0, 89, 77
2, 79296, Note_off_c, 0, 89, 64
2, 79296, Note_on_c, 0, 78, 78
2, 79360, Note_off_c, 0, 78, 64
2, 79360, Note_on_c, 0, 90, 80
2, 79680, Note_off_c, 0, 90, 64
2, 79680, Note_on_c, 0, 93, 89
2, 79868, Note_off_c, 0, 93, 64
2, 79872, Note_on_c, 0, 64, 94
2, 80636, Note_off_c, 0, 64, 64
2, 80640, Note_on_c, 0, 83, 85
2, 80672, Note_off_c, 0, 83, 64
2, 80672, Note_on_c, 0, 85, 85
2, 80704, Note_off_c, 0, 85, 64
2, 80704, Note_on_c, 0, 83, 85
2, 80736, Note_off_c, 0, 83, 64
2, 80736, Note_on_c, 0, 85, 85
2, 80768, Note_off_c, 0, 85, 64
2, 80768, Note_on_c, 0, 83, 85
2, 80800, Note_off_c, 0, 83, 64
2, 80800, Note_on_c, 0, 85, 85
2, 80832, Note_off_c, 0, 85, 64
2, 80832, Note_on_c, 0, 83, 85
2, 80864, Note_off_c, 0, 83, 64
2, 80864, Note_on_c, 0, 85, 85
2, 80896, Note_off_c, 0, 85, 64
2, 80896, Note_on_c, 0, 83, 85
2, 80928, Note_off_c, 0, 83, 64
2, 80928, Note_on_c, 0, 85, 85
2, 80960, Note_off_c, 0, 85, 64
2, 80960, Note_on_c, 0, 83, 85
2, 80992, Note_off_c, 0, 83, 64
2, 80992, Note_on_c, 0, 85, 85
2, 81024, Note_off_c, 0, 85, 64
2, 81024, Note_on_c, 0, 83, 85
2, 81056, Note_off_c, 0, 83, 64
2, 81056, Note_on_c, 0, 85, 85
2, 81088, Note_off_c, 0, 85, 64
2, 81088, Note_on_c, 0, 83, 85
2, 81120, Note_off_c, 0, 83, 64
2, 81120, Note_on_c, 0, 85, 85
2, 81152, Note_off_c, 0, 85, 64
2, 81152, Note_on_c, 0, 83, 85
2, 81184, Note_off_c, 0, 83, 64
2, 81184, Note_on_c, 0, 85, 85
2, 81216, Note_off_c, 0, 85, 64
2, 81216, Note_on_c, 0, 81, 85
2, 81308, Note_off_c, 0, 81, 64
2, 81312, Note_on_c, 0, 83, 85
2, 81404, Note_off_c, 0, 83, 64
2, 81408, Note_on_c, 0, 81, 85
2, 81788, Note_off_c, 0, 81, 64
2, 96768, Note_on_c, 0, 81, 63
2, 97148, Note_off_c, 0, 81, 64
2, 97152, Note_on_c, 0, 83, 63
2, 97244, Note_off_c, 0, 83, 64
2, 97248, Note_on_c, 0, 81, 63
2, 97340, Note_off_c, 0, 81, 64
2, 97344, Note_on_c, 0, 80, 63
2, 97436, Note_off_c, 0, 80, 64
2, 97440, Note_on_c, 0, 78, 63
2, 97532, Note_off_c, 0, 78, 64
2, 97536, Note_on_c, 0, 76, 63
2, 97916, Note_off_c, 0, 76, 64
2, 97920, Note_on_c, 0, 80, 63
2, 98012, Note_off_c, 0, 80, 64
2, 98016, Note_on_c, 0, 78, 63
2, 98108, Note_off_c, 0, 78, 64
2, 98112, Note_on_c, 0, 76, 63
2, 98204, Note_off_c, 0, 76, 64
2, 98208, Note_on_c, 0, 74, 63
2, 98300, Note_off_c, 0, 74, 64
2, 98304, Note_on_c, 0, 73, 63
2, 98684, Note_off_c, 0, 73, 64
2, 98688, Note_on_c, 0, 76, 63
2, 98780, Note_off_c, 0, 76, 64
2, 98784, Note_on_c, 0, 74, 63
2, 98876, Note_off_c, 0, 74, 64
2, 98880, Note_on_c, 0, 73, 63
2, 98972, Note_off_c, 0, 73, 64
2, 98976, Note_on_c, 0, 71, 63
2, 99068, Note_off_c, 0, 71, 64
2, 99072, Note_on_c, 0, 69, 63
2, 99260, Note_off_c, 0, 69, 64
2, 99264, Note_on_c, 0, 68, 63
2, 99296, Note_off_c, 0, 68, 64
2, 99296, Note_on_c, 0, 69, 63
2, 99328, Note_off_c, 0, 69, 64
2, 99328, Note_on_c, 0, 68, 63
2, 99360, Note_off_c, 0, 68, 64
2, 99360, Note_on_c, 0, 69, 63
2, 99392, Note_off_c, 0, 69, 64
2, 99392, Note_on_c, 0, 68, 63
2, 99424, Note_off_c, 0, 68, 64
2, 99424, Note_on_c, 0, 69, 63
2, 99456, Note_off_c, 0, 69, 64
2, 99456, Note_on_c, 0, 69, 63
2, 99644, Note_off_c, 0, 69, 64
2, 99904, Note_on_c, 0, 74, 79
2, 99964, Note_off_c, 0, 74, 64
2, 99968, Note_on_c, 0, 73, 79
2, 100028, Note_off_c, 0, 73, 64
2, 100032, Note_on_c, 0, 71, 79
2, 100092, Note_off_c, 0, 71, 64
2, 100096, Note_on_c, 0, 74, 79
2, 100156, Note_off_c, 0, 74, 64
2, 100160, Note_on_c, 0, 69, 79
2, 100220, Note_off_c, 0, 69, 64
2, 100224, Note_on_c, 0, 68, 79
2, 100284, Note_off_c, 0, 68, 64
2, 100288, Note_on_c, 0, 71, 79
2, 100348, Note_off_c, 0, 71, 64
2, 100352, Note_on_c, 0, 66, 79
2, 100412, Note_off_c, 0, 66, 64
2, 100416, Note_on_c, 0, 64, 79
2, 100476, Note_off_c, 0, 64, 64
2, 100480, Note_on_c, 0, 68, 79
2, 100540, Note_off_c, 0, 68, 64
2, 100544, Note_on_c, 0, 62, 79
2, 100604, Note_off_c, 0, 62, 64
2, 100608, Note_on_c, 0, 61, 79
2, 100668, Note_off_c, 0, 61, 64
2, 100672, Note_on_c, 0, 76, 79
2, 100732, Note_off_c, 0, 76, 64
2, 100736, Note_on_c, 0, 74, 79
2, 100796, Note_off_c, 0, 74, 64
2, 100800, Note_on_c, 0, 73, 79
2, 100860, Note_off_c, 0, 73, 64
2, 100864, Note_on_c, 0, 76, 79
2, 100924, Note_off_c, 0, 76, 64
2, 100928, Note_on_c, 0, 71, 79
2, 100988, Note_off_c, 0, 71, 64
2, 100992, Note_on_c, 0, 69, 79
2, 101052, Note_off_c, 0, 69, 64
2, 101056, Note_on_c, 0, 73, 79
2, 101116, Note_off_c, 0, 73, 64
2, 101120, Note_on_c, 0, 68, 79
2, 101180, Note_off_c, 0, 68, 64
2, 101184, Note_on_c, 0, 66, 79
2, 101244, Note_off_c, 0, 66, 64
2, 101248, Note_on_c, 0, 69, 79
2, 101308, Note_off_c, 0, 69, 64
2, 101312, Note_on_c, 0, 64, 79
2, 101372, Note_off_c, 0, 64, 64
2, 101376, Note_on_c, 0, 66, 79
2, 101468, Note_off_c, 0, 66, 64
2, 101472, Note_on_c, 0, 81, 79
2, 101564, Note_off_c, 0, 81, 64
2, 101568, Note_on_c, 0, 80, 79
2, 101660, Note_off_c, 0, 80, 64
2, 101664, Note_on_c, 0, 78, 79
2, 101756, Note_off_c, 0, 78, 64
2, 101760, Note_on_c, 0, 78, 79
2, 101852, Note_off_c, 0, 78, 64
2, 101856, Note_on_c, 0, 76, 79
2, 101948, Note_off_c, 0, 76, 64
2, 101952, Note_on_c, 0, 76, 79
2, 102044, Note_off_c, 0, 76, 64
2, 102048, Note_on_c, 0, 74, 79
2, 102140, Note_off_c, 0, 74, 64
2, 102144, Note_on_c, 0, 73, 79
2, 102236, Note_off_c, 0, 73, 64
2, 102240, Note_on_c, 0, 74, 79
2, 102332, Note_off_c, 0, 74, 64
2, 102336, Note_on_c, 0, 75, 79
2, 102428, Note_off_c, 0, 75, 64
2, 102432, Note_on_c, 0, 76, 79
2, 102524, Note_off_c, 0, 76, 64
2, 102528, Note_on_c, 0, 76, 79
2, 102716, Note_off_c, 0, 76, 64
2, 102976, Note_on_c, 0, 74, 63
2, 103036, Note_off_c, 0, 74, 64
2, 103040, Note_on_c, 0, 73, 63
2, 103100, Note_off_c, 0, 73, 64
2, 103104, Note_on_c, 0, 71, 63
2, 103164, Note_off_c, 0, 71, 64
2, 103168, Note_on_c, 0, 74, 63
2, 103228, Note_off_c, 0, 74, 64
2, 103232, Note_on_c, 0, 69, 63
2, 103292, Note_off_c, 0, 69, 64
2, 103296, Note_on_c, 0, 68, 63
2, 103356, Note_off_c, 0, 68, 64
2, 103360, Note_on_c, 0, 71, 63
2, 103420, Note_off_c, 0, 71, 64
2, 103424, Note_on_c, 0, 66, 63
2, 103484, Note_off_c, 0, 66, 64
2, 103488, Note_on_c, 0, 64, 63
2, 103548, Note_off_c, 0, 64, 64
2, 103552, Note_on_c, 0, 68, 63
2, 103612, Note_off_c, 0, 68, 64
2, 103616, Note_on_c, 0, 62, 63
2, 103676, Note_off_c, 0, 62, 64
2, 103680, Note_on_c, 0, 61, 63
2, 103740, Note_off_c, 0, 61, 64
2, 103744, Note_on_c, 0, 81, 63
2, 103804, Note_off_c, 0, 81, 64
2, 103808, Note_on_c, 0, 80, 63
2, 103868, Note_off_c, 0, 80, 64
2, 103872, Note_on_c, 0, 78, 63
2, 103932, Note_off_c, 0, 78, 64
2, 103936, Note_on_c, 0, 81, 63
2, 103996, Note_off_c, 0, 81, 64
2, 104000, Note_on_c, 0, 76, 63
2, 104060, Note_off_c, 0, 76, 64
2, 104064, Note_on_c, 0, 74, 63
2, 104124, Note_off_c, 0, 74, 64
2, 104128, Note_on_c, 0, 81, 63
2, 104188, Note_off_c, 0, 81, 64
2, 104192, Note_on_c, 0, 73, 63
2, 104252, Note_off_c, 0, 73, 64
2, 104256, Note_on_c, 0, 71, 63
2, 104316, Note_off_c, 0, 71, 64
2, 104320, Note_on_c, 0, 81, 63
2, 104380, Note_off_c, 0, 81, 64
2, 104384, Note_on_c, 0, 69, 63
2, 104444, Note_off_c, 0, 69, 64
2, 104448, Note_on_c, 0, 69, 63
2, 104540, Note_off_c, 0, 69, 64
2, 104544, Note_on_c, 0, 71, 63
2, 104636, Note_off_c, 0, 71, 64
2, 104640, Note_on_c, 0, 74, 63
2, 104732, Note_off_c, 0, 74, 64
2, 104736, Note_on_c, 0, 78, 63
2, 104828, Note_off_c, 0, 78, 64
2, 104832, Note_on_c, 0, 78, 63
2, 105020, Note_off_c, 0, 78, 64
2, 105024, Note_on_c, 0, 76, 63
2, 105164, Note_off_c, 0, 76, 64
2, 105168, Note_on_c, 0, 74, 63
2, 105212, Note_off_c, 0, 74, 64
2, 105216, Note_on_c, 0, 74, 63
2, 105260, Note_off_c, 0, 74, 64
2, 105264, Note_on_c, 0, 73, 63
2, 105308, Note_off_c, 0, 73, 64
2, 105312, Note_on_c, 0, 71, 63
2, 105356, Note_off_c, 0, 71, 64
2, 105360, Note_on_c, 0, 69, 63
2, 105404, Note_off_c, 0, 69, 64
2, 105408, Note_on_c, 0, 69, 63
2, 105596, Note_off_c, 0, 69, 64
2, 105984, Note_on_c, 0, 60, 85
2, 106364, Note_off_c, 0, 60, 64
2, 106368, Note_on_c, 0, 59, 85
2, 106400, Note_off_c, 0, 59, 64
2, 106400, Note_on_c, 0, 60, 85
2, 106432, Note_off_c, 0, 60, 64
2, 106432, Note_on_c, 0, 59, 85
2, 106464, Note_off_c, 0, 59, 64
2, 106464, Note_on_c, 0, 60, 85
2, 106496, Note_off_c, 0, 60, 64
2, 106496, Note_on_c, 0, 59, 85
2, 106528, Note_off_c, 0, 59, 64
2, 106528, Note_on_c, 0, 60, 85
2, 106560, Note_off_c, 0, 60, 64
2, 106560, Note_on_c, 0, 59, 85
2, 106592, Note_off_c, 0, 59, 64
2, 106592, Note_on_c, 0, 60, 85
2, 106624, Note_off_c, 0, 60, 64
2, 106624, Note_on_c, 0, 59, 85
2, 106656, Note_off_c, 0, 59, 64
2, 106656, Note_on_c, 0, 58, 85
2, 106704, Note_off_c, 0, 58, 64
2, 106704, Note_on_c, 0, 59, 85
2, 106752, Note_off_c, 0, 59, 64
2, 106752, Note_on_c, 0, 58, 85
2, 107132, Note_off_c, 0, 58, 64
2, 107136, Note_on_c, 0, 85, 78
2, 107708, Note_off_c, 0, 85, 64
2, 107712, Note_on_c, 0, 79, 80
2, 107900, Note_off_c, 0, 79, 64
2, 107904, Note_on_c, 0, 78, 80
2, 108092, Note_off_c, 0, 78, 64
2, 108096, Note_on_c, 0, 76, 80
2, 108284, Note_off_c, 0, 76, 64
2, 108288, Note_on_c, 0, 76, 83
2, 108332, Note_off_c, 0, 76, 64
2, 108336, Note_on_c, 0, 74, 83
2, 108380, Note_off_c, 0, 74, 64
2, 108384, Note_on_c, 0, 73, 83
2, 108428, Note_off_c, 0, 73, 64
2, 108432, Note_on_c, 0, 71, 83
2, 108476, Note_off_c, 0, 71, 64
2, 108480, Note_on_c, 0, 71, 83
2, 108668, Note_off_c, 0, 71, 64
2, 108864, Note_on_c, 0, 78, 85
2, 108896, Note_off_c, 0, 78, 64
2, 108896, Note_on_c, 0, 79, 85
2, 108928, Note_off_c, 0, 79, 64
2, 108928, Note_on_c, 0, 78, 85
2, 108960, Note_off_c, 0, 78, 64
2, 108960, Note_on_c, 0, 76, 85
2, 109008, Note_off_c, 0, 76, 64
2, 109008, Note_on_c, 0, 78, 85
2, 109056, Note_off_c, 0, 78, 64
2, 109056, Note_on_c, 0, 81, 85
2, 109148, Note_off_c, 0, 81, 64
2, 109152, Note_on_c, 0, 79, 85
2, 109244, Note_off_c, 0, 79, 64
2, 109248, Note_on_c, 0, 79, 85
2, 109532, Note_off_c, 0, 79, 64
2, 109536, Note_on_c, 0, 79, 85
2, 109628, Note_off_c, 0, 79, 64
2, 109632, Note_on_c, 0, 78, 85
2, 109664, Note_off_c, 0, 78, 64
2, 109664, Note_on_c, 0, 79, 85
2, 109696, Note_off_c, 0, 79, 64
2, 109696, Note_on_c, 0, 81, 85
2, 109728, Note_off_c, 0, 81, 64
2, 109728, Note_on_c, 0, 83, 85
2, 109820, Note_off_c, 0, 83, 64
2, 109824, Note_on_c, 0, 83, 88
2, 110204, Note_off_c, 0, 83, 64
2, 110208, Note_on_c, 0, 77, 88
2, 110396, Note_off_c, 0, 77, 64
2, 110496, Note_on_c, 0, 77, 85
2, 110588, Note_off_c, 0, 77, 64
2, 110592, Note_on_c, 0, 80, 85
2, 110684, Note_off_c, 0, 80, 64
2, 110688, Note_on_c, 0, 78, 85
2, 110780, Note_off_c, 0, 78, 64
2, 110784, Note_on_c, 0, 78, 85
2, 111068, Note_off_c, 0, 78, 64
2, 111072, Note_on_c, 0, 78, 85
2, 111164, Note_off_c, 0, 78, 64
2, 111168, Note_on_c, 0, 76, 85
2, 111200, Note_off_c, 0, 76, 64
2, 111200, Note_on_c, 0, 78, 85
2, 111232, Note_off_c, 0, 78, 64
2, 111232, Note_on_c, 0, 80, 85
2, 111264, Note_off_c, 0, 80, 64
2, 111264, Note_on_c, 0, 81, 85
2, 111356, Note_off_c, 0, 81, 64
2, 111360, Note_on_c, 0, 81, 88
2, 111740, Note_off_c, 0, 81, 64
2, 111744, Note_on_c, 0, 75, 88
2, 111932, Note_off_c, 0, 75, 64
2, 112032, Note_on_c, 0, 75, 85
2, 112124, Note_off_c, 0, 75, 64
2, 112128, Note_on_c, 0, 78, 85
2, 112220, Note_off_c, 0, 78, 64
2, 112224, Note_on_c, 0, 76, 85
2, 112316, Note_off_c, 0, 76, 64
2, 112320, Note_on_c, 0, 76, 85
2, 112604, Note_off_c, 0, 76, 64
2, 112608, Note_on_c, 0, 76, 85
2, 112700, Note_off_c, 0, 76, 64
2, 112704, Note_on_c, 0, 74, 85
2, 112736, Note_off_c, 0, 74, 64
2, 112736, Note_on_c, 0, 76, 85
2, 112768, Note_off_c, 0, 76, 64
2, 112768, Note_on_c, 0, 78, 85
2, 112800, Note_off_c, 0, 78, 64
2, 112800, Note_on_c, 0, 79, 85
2, 112892, Note_off_c, 0, 79, 64
2, 112896, Note_on_c, 0, 79, 88
2, 113276, Note_off_c, 0, 79, 64
2, 113280, Note_on_c, 0, 73, 88
2, 113468, Note_off_c, 0, 73, 64
2, 113568, Note_on_c, 0, 73, 85
2, 113660, Note_off_c, 0, 73, 64
2, 113664, Note_on_c, 0, 62, 85
2, 113724, Note_off_c, 0, 62, 64
2, 113728, Note_on_c, 0, 69, 85
2, 113788, Note_off_c, 0, 69, 64
2, 113792, Note_on_c, 0, 72, 85
2, 113852, Note_off_c, 0, 72, 64
2, 113856, Note_on_c, 0, 72, 85
2, 113876, Note_off_c, 0, 72, 64
2, 113880, Note_on_c, 0, 74, 85
2, 113900, Note_off_c, 0, 74, 64
2, 113900, Note_on_c, 0, 72, 85
2, 113920, Note_off_c, 0, 72, 64
2, 113920, Note_on_c, 0, 71, 85
2, 113980, Note_off_c, 0, 71, 64
2, 113984, Note_on_c, 0, 72, 85
2, 114044, Note_off_c, 0, 72, 64
2, 114048, Note_on_c, 0, 81, 85
2, 114108, Note_off_c, 0, 81, 64
2, 114112, Note_on_c, 0, 79, 85
2, 114172, Note_off_c, 0, 79, 64
2, 114176, Note_on_c, 0, 78, 85
2, 114236, Note_off_c, 0, 78, 64
2, 114240, Note_on_c, 0, 76, 85
2, 114300, Note_off_c, 0, 76, 64
2, 114304, Note_on_c, 0, 74, 85
2, 114364, Note_off_c, 0, 74, 64
2, 114368, Note_on_c, 0, 72, 85
2, 114428, Note_off_c, 0, 72, 64
2, 114432, Note_on_c, 0, 71, 85
2, 114492, Note_off_c, 0, 71, 64
2, 114496, Note_on_c, 0, 74, 85
2, 114556, Note_off_c, 0, 74, 64
2, 114560, Note_on_c, 0, 79, 85
2, 114620, Note_off_c, 0, 79, 64
2, 114624, Note_on_c, 0, 79, 85
2, 114644, Note_off_c, 0, 79, 64
2, 114648, Note_on_c, 0, 81, 85
2, 114668, Note_off_c, 0, 81, 64
2, 114668, Note_on_c, 0, 79, 85
2, 114688, Note_off_c, 0, 79, 64
2, 114688, Note_on_c, 0, 78, 85
2, 114748, Note_off_c, 0, 78, 64
2, 114752, Note_on_c, 0, 79, 85
2, 114812, Note_off_c, 0, 79, 64
2, 114816, Note_on_c, 0, 83, 85
2, 115004, Note_off_c, 0, 83, 64
2, 115104, Note_on_c, 0, 71, 85
2, 115196, Note_off_c, 0, 71, 64
2, 115200, Note_on_c, 0, 59, 85
2, 115260, Note_off_c, 0, 59, 64
2, 115264, Note_on_c, 0, 66, 85
2, 115324, Note_off_c, 0, 66, 64
2, 115328, Note_on_c, 0, 69, 85
2, 115388, Note_off_c, 0, 69, 64
2, 115392, Note_on_c, 0, 69, 85
2, 115412, Note_off_c, 0, 69, 64
2, 115416, Note_on_c, 0, 71, 85
2, 115436, Note_off_c, 0, 71, 64
2, 115436, Note_on_c, 0, 69, 85
2, 115456, Note_off_c, 0, 69, 64
2, 115456, Note_on_c, 0, 67, 85
2, 115516, Note_off_c, 0, 67, 64
2, 115520, Note_on_c, 0, 69, 85
2, 115580, Note_off_c, 0, 69, 64
2, 115584, Note_on_c, 0, 78, 85
2, 115644, Note_off_c, 0, 78, 64
2, 115648, Note_on_c, 0, 76, 85
2, 115708, Note_off_c, 0, 76, 64
2, 115712, Note_on_c, 0, 74, 85
2, 115772, Note_off_c, 0, 74, 64
2, 115776, Note_on_c, 0, 72, 85
2, 115836, Note_off_c, 0, 72, 64
2, 115840, Note_on_c, 0, 71, 85
2, 115900, Note_off_c, 0, 71, 64
2, 115904, Note_on_c, 0, 69, 85
2, 115964, Note_off_c, 0, 69, 64
2, 115968, Note_on_c, 0, 67, 85
2, 116028, Note_off_c, 0, 67, 64
2, 116032, Note_on_c, 0, 71, 85
2, 116092, Note_off_c, 0, 71, 64
2, 116096, Note_on_c, 0, 76, 85
2, 116156, Note_off_c, 0, 76, 64
2, 116160, Note_on_c, 0, 76, 85
2, 116180, Note_off_c, 0, 76, 64
2, 116184, Note_on_c, 0, 78, 85
2, 116204, Note_off_c, 0, 78, 64
2, 116204, Note_on_c, 0, 76, 85
2, 116224, Note_off_c, 0, 76, 64
2, 116224, Note_on_c, 0, 74, 85
2, 116284, Note_off_c, 0, 74, 64
2, 116288, Note_on_c, 0, 76, 85
2, 116348, Note_off_c, 0, 76, 64
2, 116352, Note_on_c, 0, 79, 85
2, 116540, Note_off_c, 0, 79, 64
2, 116736, Note_on_c, 0, 83, 85
2, 117116, Note_off_c, 0, 83, 64
2, 117120, Note_on_c, 0, 84, 85
2, 117308, Note_off_c, 0, 84, 64
2, 117312, Note_on_c, 0, 75, 85
2, 117500, Note_off_c, 0, 75, 64
2, 117504, Note_on_c, 0, 76, 85
2, 117692, Note_off_c, 0, 76, 64
2, 117696, Note_on_c, 0, 83, 85
2, 117884, Note_off_c, 0, 83, 64
2, 117888, Note_on_c, 0, 84, 85
2, 118076, Note_off_c, 0, 84, 64
2, 118080, Note_on_c, 0, 75, 85
2, 118268, Note_off_c, 0, 75, 64
2, 118272, Note_on_c, 0, 76, 85
2, 118448, Note_on_c, 0, 77, 85
2, 118460, Note_off_c, 0, 76, 64
2, 118828, Note_off_c, 0, 77, 64
2, 118848, Note_on_c, 0, 76, 72
2, 118940, Note_off_c, 0, 76, 64
2, 118944, Note_on_c, 0, 74, 72
2, 119036, Note_off_c, 0, 74, 64
2, 119040, Note_on_c, 0, 73, 72
2, 119420, Note_off_c, 0, 73, 64
2, 119424, Note_on_c, 0, 76, 80
2, 119804, Note_off_c, 0, 76, 64
2, 119808, Note_on_c, 0, 77, 80
2, 120188, Note_off_c, 0, 77, 64
2, 120192, Note_on_c, 0, 78, 80
2, 120224, Note_off_c, 0, 78, 64
2, 120224, Note_on_c, 0, 79, 80
2, 120256, Note_off_c, 0, 79, 64
2, 120256, Note_on_c, 0, 78, 80
2, 120288, Note_off_c, 0, 78, 64
2, 120288, Note_on_c, 0, 79, 80
2, 120320, Note_off_c, 0, 79, 64
2, 120320, Note_on_c, 0, 78, 80
2, 120352, Note_off_c, 0, 78, 64
2, 120352, Note_on_c, 0, 79, 80
2, 120384, Note_off_c, 0, 79, 64
2, 120384, Note_on_c, 0, 78, 80
2, 120416, Note_off_c, 0, 78, 64
2, 120416, Note_on_c, 0, 79, 80
2, 120448, Note_off_c, 0, 79, 64
2, 120448, Note_on_c, 0, 78, 80
2, 120480, Note_off_c, 0, 78, 64
2, 120480, Note_on_c, 0, 76, 80
2, 120528, Note_off_c, 0, 76, 64
2, 120528, Note_on_c, 0, 78, 80
2, 120576, Note_off_c, 0, 78, 64
2, 120576, Note_on_c, 0, 79, 80
2, 120956, Note_off_c, 0, 79, 64
2, 120960, Note_on_c, 0, 80, 80
2, 120992, Note_off_c, 0, 80, 64
2, 120992, Note_on_c, 0, 81, 80
2, 121024, Note_off_c, 0, 81, 64
2, 121024, Note_on_c, 0, 80, 80
2, 121056, Note_off_c, 0, 80, 64
2, 121056, Note_on_c, 0, 81, 80
2, 121088, Note_off_c, 0, 81, 64
2, 121088, Note_on_c, 0, 80, 80
2, 121120, Note_off_c, 0, 80, 64
2, 121120, Note_on_c, 0, 81, 80
2, 121152, Note_off_c, 0, 81, 64
2, 121152, Note_on_c, 0, 80, 80
2, 121184, Note_off_c, 0, 80, 64
2, 121184, Note_on_c, 0, 81, 80
2, 121216, Note_off_c, 0, 81, 64
2, 121216, Note_on_c, 0, 80, 80
2, 121248, Note_off_c, 0, 80, 64
2, 121248, Note_on_c, 0, 78, 80
2, 121296, Note_off_c, 0, 78, 64
2, 121296, Note_on_c, 0, 80, 80
2, 121344, Note_off_c, 0, 80, 64
2, 121344, Note_on_c, 0, 81, 80
2, 121724, Note_off_c, 0, 81, 64
2, 127488, Note_on_c, 0, 86, 88
2, 127868, Note_off_c, 0, 86, 64
2, 127872, Note_on_c, 0, 81, 88
2, 128156, Note_off_c, 0, 81, 64
2, 128160, Note_on_c, 0, 81, 88
2, 128252, Note_off_c, 0, 81, 64
2, 128256, Note_on_c, 0, 78, 88
2, 128444, Note_off_c, 0, 78, 64
2, 128448, Note_on_c, 0, 74, 88
2, 128636, Note_off_c, 0, 74, 64
2, 128832, Note_on_c, 0, 74, 63
2, 128892, Note_off_c, 0, 74, 64
2, 128896, Note_on_c, 0, 76, 63
2, 128956, Note_off_c, 0, 76, 64
2, 128960, Note_on_c, 0, 74, 63
2, 129020, Note_off_c, 0, 74, 64
2, 129024, Note_on_c, 0, 79, 63
2, 129212, Note_off_c, 0, 79, 64
2, 129600, Note_on_c, 0, 74, 63
2, 129660, Note_off_c, 0, 74, 64
2, 129664, Note_on_c, 0, 76, 63
2, 129724, Note_off_c, 0, 76, 64
2, 129728, Note_on_c, 0, 74, 63
2, 129788, Note_off_c, 0, 74, 64
2, 129792, Note_on_c, 0, 83, 63
2, 129980, Note_off_c, 0, 83, 64
2, 130368, Note_on_c, 0, 86, 63
2, 130428, Note_off_c, 0, 86, 64
2, 130432, Note_on_c, 0, 85, 63
2, 130492, Note_off_c, 0, 85, 64
2, 130496, Note_on_c, 0, 83, 63
2, 130556, Note_off_c, 0, 83, 64
2, 130560, Note_on_c, 0, 81, 63
2, 130652, Note_off_c, 0, 81, 64
2, 130656, Note_on_c, 0, 83, 63
2, 130688, Note_off_c, 0, 83, 64
2, 130688, Note_on_c, 0, 85, 63
2, 130720, Note_off_c, 0, 85, 64
2, 130720, Note_on_c, 0, 83, 63
2, 130752, Note_off_c, 0, 83, 64
2, 130752, Note_on_c, 0, 83, 63
2, 130844, Note_off_c, 0, 83, 64
2, 130848, Note_on_c, 0, 78, 63
2, 130940, Note_off_c, 0, 78, 64
2, 130944, Note_on_c, 0, 81, 63
2, 130976, Note_off_c, 0, 81, 64
2, 130976, Note_on_c, 0, 79, 63
2, 131008, Note_off_c, 0, 79, 64
2, 131008, Note_on_c, 0, 81, 63
2, 131040, Note_off_c, 0, 81, 64
2, 131040, Note_on_c, 0, 79, 63
2, 131072, Note_off_c, 0, 79, 64
2, 131072, Note_on_c, 0, 81, 63
2, 131104, Note_off_c, 0, 81, 64
2, 131104, Note_on_c, 0, 79, 63
2, 131136, Note_off_c, 0, 79, 64
2, 131136, Note_on_c, 0, 81, 63
2, 131168, Note_off_c, 0, 81, 64
2, 131168, Note_on_c, 0, 79, 63
2, 131200, Note_off_c, 0, 79, 64
2, 131200, Note_on_c, 0, 81, 63
2, 131232, Note_off_c, 0, 81, 64
2, 131232, Note_on_c, 0, 78, 63
2, 131280, Note_off_c, 0, 78, 64
2, 131280, Note_on_c, 0, 79, 63
2, 131328, Note_off_c, 0, 79, 64
2, 131344, Note_on_c, 0, 79, 63
2, 131520, Note_on_c, 0, 78, 63
2, 131532, Note_off_c, 0, 79, 64
2, 131708, Note_off_c, 0, 78, 64
2, 132288, Note_on_c, 0, 74, 63
2, 132348, Note_off_c, 0, 74, 64
2, 132352, Note_on_c, 0, 76, 63
2, 132412, Note_off_c, 0, 76, 64
2, 132416, Note_on_c, 0, 74, 63
2, 132476, Note_off_c, 0, 74, 64
2, 132480, Note_on_c, 0, 79, 63
2, 132668, Note_off_c, 0, 79, 64
2, 133056, Note_on_c, 0, 74, 63
2, 133116, Note_off_c, 0, 74, 64
2, 133120, Note_on_c, 0, 76, 63
2, 133180, Note_off_c, 0, 76, 64
2, 133184, Note_on_c, 0, 74, 63
2, 133244, Note_off_c, 0, 74, 64
2, 133248, Note_on_c, 0, 83, 63
2, 133436, Note_off_c, 0, 83, 64
2, 133632, Note_on_c, 0, 81, 63
2, 134012, Note_off_c, 0, 81, 64
2, 134016, Note_on_c, 0, 81, 63
2, 134108, Note_off_c, 0, 81, 64
2, 134112, Note_on_c, 0, 83, 63
2, 134204, Note_off_c, 0, 83, 64
2, 134208, Note_on_c, 0, 85, 63
2, 134300, Note_off_c, 0, 85, 64
2, 134304, Note_on_c, 0, 86, 63
2, 134396, Note_off_c, 0, 86, 64
2, 134400, Note_on_c, 0, 86, 66
2, 134432, Note_off_c, 0, 86, 64
2, 134432, Note_on_c, 0, 88, 66
2, 134464, Note_off_c, 0, 88, 64
2, 134464, Note_on_c, 0, 86, 66
2, 134496, Note_off_c, 0, 86, 64
2, 134496, Note_on_c, 0, 85, 66
2, 134588, Note_off_c, 0, 85, 64
2, 134592, Note_on_c, 0, 85, 67
2, 134972, Note_off_c, 0, 85, 64
2, 134976, Note_on_c, 0, 88, 69
2, 135356, Note_off_c, 0, 88, 64
2, 135360, Note_on_c, 0, 91, 72
2, 135740, Note_off_c, 0, 91, 64
2, 135744, Note_on_c, 0, 55, 78
2, 136124, Note_off_c, 0, 55, 64
2, 136128, Note_on_c, 0, 79, 80
2, 136316, Note_off_c, 0, 79, 64
2, 136320, Note_on_c, 0, 79, 82
2, 136412, Note_off_c, 0, 79, 64
2, 136416, Note_on_c, 0, 81, 83
2, 136460, Note_off_c, 0, 81, 64
2, 136464, Note_on_c, 0, 83, 83
2, 136508, Note_off_c, 0, 83, 64
2, 136512, Note_on_c, 0, 81, 83
2, 136604, Note_off_c, 0, 81, 64
2, 136608, Note_on_c, 0, 79, 84
2, 136700, Note_off_c, 0, 79, 64
2, 136704, Note_on_c, 0, 78, 85
2, 136764, Note_off_c, 0, 78, 64
2, 136768, Note_on_c, 0, 81, 85
2, 136828, Note_off_c, 0, 81, 64
2, 136832, Note_on_c, 0, 81, 85
2, 136892, Note_off_c, 0, 81, 64
2, 136896, Note_on_c, 0, 81, 85
2, 136956, Note_off_c, 0, 81, 64
2, 136960, Note_on_c, 0, 78, 85
2, 137020, Note_off_c, 0, 78, 64
2, 137024, Note_on_c, 0, 74, 85
2, 137084, Note_off_c, 0, 74, 64
2, 137088, Note_on_c, 0, 76, 85
2, 137148, Note_off_c, 0, 76, 64
2, 137152, Note_on_c, 0, 81, 85
2, 137212, Note_off_c, 0, 81, 64
2, 137216, Note_on_c, 0, 81, 85
2, 137276, Note_off_c, 0, 81, 64
2, 137280, Note_on_c, 0, 81, 85
2, 137340, Note_off_c, 0, 81, 64
2, 137344, Note_on_c, 0, 79, 85
2, 137404, Note_off_c, 0, 79, 64
2, 137408, Note_on_c, 0, 76, 85
2, 137468, Note_off_c, 0, 76, 64
2, 137472, Note_on_c, 0, 78, 85
2, 137532, Note_off_c, 0, 78, 64
2, 137536, Note_on_c, 0, 81, 85
2, 137596, Note_off_c, 0, 81, 64
2, 137600, Note_on_c, 0, 81, 85
2, 137660, Note_off_c, 0, 81, 64
2, 137664, Note_on_c, 0, 81, 85
2, 137724, Note_off_c, 0, 81, 64
2, 137728, Note_on_c, 0, 78, 85
2, 137788, Note_off_c, 0, 78, 64
2, 137792, Note_on_c, 0, 74, 85
2, 137852, Note_off_c, 0, 74, 64
2, 137856, Note_on_c, 0, 76, 85
2, 137916, Note_off_c, 0, 76, 64
2, 137920, Note_on_c, 0, 81, 85
2, 137980, Note_off_c, 0, 81, 64
2, 137984, Note_on_c, 0, 81, 85
2, 138044, Note_off_c, 0, 81, 64
2, 138048, Note_on_c, 0, 81, 85
2, 138108, Note_off_c, 0, 81, 64
2, 138112, Note_on_c, 0, 79, 85
2, 138172, Note_off_c, 0, 79, 64
2, 138176, Note_on_c, 0, 76, 85
2, 138236, Note_off_c, 0, 76, 64
2, 138240, Note_on_c, 0, 78, 85
2, 138288, Note_off_c, 0, 78, 64
2, 138288, Note_on_c, 0, 74, 85
2, 138336, Note_off_c, 0, 74, 64
2, 138336, Note_on_c, 0, 76, 85
2, 138384, Note_off_c, 0, 76, 64
2, 138384, Note_on_c, 0, 78, 85
2, 138432, Note_off_c, 0, 78, 64
2, 138432, Note_on_c, 0, 79, 85
2, 138480, Note_off_c, 0, 79, 64
2, 138480, Note_on_c, 0, 81, 85
2, 138528, Note_off_c, 0, 81, 64
2, 138528, Note_on_c, 0, 83, 85
2, 138576, Note_off_c, 0, 83, 64
2, 138576, Note_on_c, 0, 85, 85
2, 138624, Note_off_c, 0, 85, 64
2, 138624, Note_on_c, 0, 86, 85
2, 139100, Note_off_c, 0, 86, 64
2, 139104, Note_on_c, 0, 85, 85
2, 139196, Note_off_c, 0, 85, 64
2, 139200, Note_on_c, 0, 83, 85
2, 139292, Note_off_c, 0, 83, 64
2, 139296, Note_on_c, 0, 81, 85
2, 139388, Note_off_c, 0, 81, 64
2, 139392, Note_on_c, 0, 79, 85
2, 139484, Note_off_c, 0, 79, 64
2, 139488, Note_on_c, 0, 78, 85
2, 139580, Note_off_c, 0, 78, 64
2, 139584, Note_on_c, 0, 76, 85
2, 139676, Note_off_c, 0, 76, 64
2, 139680, Note_on_c, 0, 78, 85
2, 139772, Note_off_c, 0, 78, 64
2, 139776, Note_on_c, 0, 78, 85
2, 139808, Note_off_c, 0, 78, 64
2, 139808, Note_on_c, 0, 79, 85
2, 139840, Note_off_c, 0, 79, 64
2, 139840, Note_on_c, 0, 78, 85
2, 139872, Note_off_c, 0, 78, 64
2, 139872, Note_on_c, 0, 79, 85
2, 139904, Note_off_c, 0, 79, 64
2, 139904, Note_on_c, 0, 78, 85
2, 139936, Note_off_c, 0, 78, 64
2, 139936, Note_on_c, 0, 79, 85
2, 139968, Note_off_c, 0, 79, 64
2, 139968, Note_on_c, 0, 76, 85
2, 140156, Note_off_c, 0, 76, 64
2, 140544, Note_on_c, 0, 69, 85
2, 140732, Note_off_c, 0, 69, 64
2, 140736, Note_on_c, 0, 69, 85
2, 140924, Note_off_c, 0, 69, 64
2, 140928, Note_on_c, 0, 69, 85
2, 141020, Note_off_c, 0, 69, 64
2, 141024, Note_on_c, 0, 78, 85
2, 141116, Note_off_c, 0, 78, 64
2, 141120, Note_on_c, 0, 76, 85
2, 141212, Note_off_c, 0, 76, 64
2, 141216, Note_on_c, 0, 74, 85
2, 141308, Note_off_c, 0, 74, 64
2, 141312, Note_on_c, 0, 74, 85
2, 141404, Note_off_c, 0, 74, 64
2, 141408, Note_on_c, 0, 73, 85
2, 141500, Note_off_c, 0, 73, 64
2, 141504, Note_on_c, 0, 73, 85
2, 141884, Note_off_c, 0, 73, 64
2, 141888, Note_on_c, 0, 71, 85
2, 142268, Note_off_c, 0, 71, 64
2, 142272, Note_on_c, 0, 69, 85
2, 142652, Note_off_c, 0, 69, 64
2, 142656, Note_on_c, 0, 67, 85
2, 142844, Note_off_c, 0, 67, 64
2, 142848, Note_on_c, 0, 67, 85
2, 142880, Note_off_c, 0, 67, 64
2, 142880, Note_on_c, 0, 69, 85
2, 142912, Note_off_c, 0, 69, 64
2, 142912, Note_on_c, 0, 67, 85
2, 142944, Note_off_c, 0, 67, 64
2, 142944, Note_on_c, 0, 69, 85
2, 142976, Note_off_c, 0, 69, 64
2, 142976, Note_on_c, 0, 67, 85
2, 143008, Note_off_c, 0, 67, 64
2, 143008, Note_on_c, 0, 69, 85
2, 143040, Note_off_c, 0, 69, 64
2, 143040, Note_on_c, 0, 67, 85
2, 143072, Note_off_c, 0, 67, 64
2, 143072, Note_on_c, 0, 69, 85
2, 143104, Note_off_c, 0, 69, 64
2, 143104, Note_on_c, 0, 67, 85
2, 143136, Note_off_c, 0, 67, 64
2, 143136, Note_on_c, 0, 69, 85
2, 143168, Note_off_c, 0, 69, 64
2, 143168, Note_on_c, 0, 66, 85
2, 143200, Note_off_c, 0, 66, 64
2, 143200, Note_on_c, 0, 67, 85
2, 143232, Note_off_c, 0, 67, 64
2, 143232, Note_on_c, 0, 66, 85
2, 143420, Note_off_c, 0, 66, 64
2, 143616, Note_on_c, 0, 74, 85
2, 143804, Note_off_c, 0, 74, 64
2, 143808, Note_on_c, 0, 74, 85
2, 143996, Note_off_c, 0, 74, 64
2, 144000, Note_on_c, 0, 74, 85
2, 144092, Note_off_c, 0, 74, 64
2, 144096, Note_on_c, 0, 78, 85
2, 144188, Note_off_c, 0, 78, 64
2, 144192, Note_on_c, 0, 81, 85
2, 144284, Note_off_c, 0, 81, 64
2, 144288, Note_on_c, 0, 86, 85
2, 144380, Note_off_c, 0, 86, 64
2, 144384, Note_on_c, 0, 86, 85
2, 144476, Note_off_c, 0, 86, 64
2, 144480, Note_on_c, 0, 83, 85
2, 144572, Note_off_c, 0, 83, 64
2, 144576, Note_on_c, 0, 83, 85
2, 144956, Note_off_c, 0, 83, 64
2, 144960, Note_on_c, 0, 81, 85
2, 145148, Note_off_c, 0, 81, 64
2, 145152, Note_on_c, 0, 81, 85
2, 145340, Note_off_c, 0, 81, 64
2, 145344, Note_on_c, 0, 79, 85
2, 145724, Note_off_c, 0, 79, 64
2, 145728, Note_on_c, 0, 78, 85
2, 145916, Note_off_c, 0, 78, 64
2, 145920, Note_on_c, 0, 78, 85
2, 145952, Note_off_c, 0, 78, 64
2, 145952, Note_on_c, 0, 79, 85
2, 145984, Note_off_c, 0, 79, 64
2, 145984, Note_on_c, 0, 78, 85
2, 146016, Note_off_c, 0, 78, 64
2, 146016, Note_on_c, 0, 79, 85
2, 146048, Note_off_c, 0, 79, 64
2, 146048, Note_on_c, 0, 76, 85
2, 146080, Note_off_c, 0, 76, 64
2, 146080, Note_on_c, 0, 78, 85
2, 146112, Note_off_c, 0, 78, 64
2, 146112, Note_on_c, 0, 76, 85
2, 146300, Note_off_c, 0, 76, 64
2, 146784, Note_on_c, 0, 69, 85
2, 146876, Note_off_c, 0, 69, 64
2, 146880, Note_on_c, 0, 68, 85
2, 146972, Note_off_c, 0, 68, 64
2, 146976, Note_on_c, 0, 69, 85
2, 147068, Note_off_c, 0, 69, 64
2, 147072, Note_on_c, 0, 68, 85
2, 147164, Note_off_c, 0, 68, 64
2, 147168, Note_on_c, 0, 69, 85
2, 147260, Note_off_c, 0, 69, 64
2, 147264, Note_on_c, 0, 71, 85
2, 147356, Note_off_c, 0, 71, 64
2, 147360, Note_on_c, 0, 69, 85
2, 147452, Note_off_c, 0, 69, 64
2, 147456, Note_on_c, 0, 57, 85
2, 147516, Note_off_c, 0, 57, 64
2, 147520, Note_on_c, 0, 67, 85
2, 147580, Note_off_c, 0, 67, 64
2, 147584, Note_on_c, 0, 76, 85
2, 147644, Note_off_c, 0, 76, 64
2, 147648, Note_on_c, 0, 59, 85
2, 147708, Note_off_c, 0, 59, 64
2, 147712, Note_on_c, 0, 67, 85
2, 147772, Note_off_c, 0, 67, 64
2, 147776, Note_on_c, 0, 76, 85
2, 147836, Note_off_c, 0, 76, 64
2, 147840, Note_on_c, 0, 57, 85
2, 147900, Note_off_c, 0, 57, 64
2, 147904, Note_on_c, 0, 67, 85
2, 147964, Note_off_c, 0, 67, 64
2, 147968, Note_on_c, 0, 76, 85
2, 148028, Note_off_c, 0, 76, 64
2, 148032, Note_on_c, 0, 59, 85
2, 148092, Note_off_c, 0, 59, 64
2, 148096, Note_on_c, 0, 67, 85
2, 148156, Note_off_c, 0, 67, 64
2, 148160, Note_on_c, 0, 76, 85
2, 148220, Note_off_c, 0, 76, 64
2, 148224, Note_on_c, 0, 57, 85
2, 148284, Note_off_c, 0, 57, 64
2, 148288, Note_on_c, 0, 67, 85
2, 148348, Note_off_c, 0, 67, 64
2, 148352, Note_on_c, 0, 76, 85
2, 148412, Note_off_c, 0, 76, 64
2, 148416, Note_on_c, 0, 76, 85
2, 148476, Note_off_c, 0, 76, 64
2, 148480, Note_on_c, 0, 76, 85
2, 148540, Note_off_c, 0, 76, 64
2, 148544, Note_on_c, 0, 76, 85
2, 148604, Note_off_c, 0, 76, 64
2, 148608, Note_on_c, 0, 76, 85
2, 148668, Note_off_c, 0, 76, 64
2, 148672, Note_on_c, 0, 74, 85
2, 148732, Note_off_c, 0, 74, 64
2, 148736, Note_on_c, 0, 73, 85
2, 148796, Note_off_c, 0, 73, 64
2, 148800, Note_on_c, 0, 71, 85
2, 148860, Note_off_c, 0, 71, 64
2, 148864, Note_on_c, 0, 69, 85
2, 148924, Note_off_c, 0, 69, 64
2, 148928, Note_on_c, 0, 67, 85
2, 148988, Note_off_c, 0, 67, 64
2, 148992, Note_on_c, 0, 57, 85
2, 149052, Note_off_c, 0, 57, 64
2, 149056, Note_on_c, 0, 66, 85
2, 149116, Note_off_c, 0, 66, 64
2, 149120, Note_on_c, 0, 74, 85
2, 149180, Note_off_c, 0, 74, 64
2, 149184, Note_on_c, 0, 57, 85
2, 149244, Note_off_c, 0, 57, 64
2, 149248, Note_on_c, 0, 67, 85
2, 149308, Note_off_c, 0, 67, 64
2, 149312, Note_on_c, 0, 76, 85
2, 149372, Note_off_c, 0, 76, 64
2, 149376, Note_on_c, 0, 57, 85
2, 149436, Note_off_c, 0, 57, 64
2, 149440, Note_on_c, 0, 66, 85
2, 149500, Note_off_c, 0, 66, 64
2, 149504, Note_on_c, 0, 74, 85
2, 149564, Note_off_c, 0, 74, 64
2, 149568, Note_on_c, 0, 57, 85
2, 149628, Note_off_c, 0, 57, 64
2, 149632, Note_on_c, 0, 67, 85
2, 149692, Note_off_c, 0, 67, 64
2, 149696, Note_on_c, 0, 76, 85
2, 149756, Note_off_c, 0, 76, 64
2, 149760, Note_on_c, 0, 57, 85
2, 149820, Note_off_c, 0, 57, 64
2, 149824, Note_on_c, 0, 66, 85
2, 149884, Note_off_c, 0, 66, 64
2, 149888, Note_on_c, 0, 74, 85
2, 149948, Note_off_c, 0, 74, 64
2, 149952, Note_on_c, 0, 74, 85
2, 150012, Note_off_c, 0, 74, 64
2, 150016, Note_on_c, 0, 74, 85
2, 150076, Note_off_c, 0, 74, 64
2, 150080, Note_on_c, 0, 74, 85
2, 150140, Note_off_c, 0, 74, 64
2, 150144, Note_on_c, 0, 74, 85
2, 150204, Note_off_c, 0, 74, 64
2, 150208, Note_on_c, 0, 73, 85
2, 150268, Note_off_c, 0, 73, 64
2, 150272, Note_on_c, 0, 71, 85
2, 150332, Note_off_c, 0, 71, 64
2, 150336, Note_on_c, 0, 69, 85
2, 150396, Note_off_c, 0, 69, 64
2, 150400, Note_on_c, 0, 67, 85
2, 150460, Note_off_c, 0, 67, 64
2, 150464, Note_on_c, 0, 66, 85
2, 150524, Note_off_c, 0, 66, 64
2, 150528, Note_on_c, 0, 57, 63
2, 150588, Note_off_c, 0, 57, 64
2, 150592, Note_on_c, 0, 67, 63
2, 150652, Note_off_c, 0, 67, 64
2, 150656, Note_on_c, 0, 76, 63
2, 150716, Note_off_c, 0, 76, 64
2, 150720, Note_on_c, 0, 59, 63
2, 150780, Note_off_c, 0, 59, 64
2, 150784, Note_on_c, 0, 67, 63
2, 150844, Note_off_c, 0, 67, 64
2, 150848, Note_on_c, 0, 76, 63
2, 150908, Note_off_c, 0, 76, 64
2, 150912, Note_on_c, 0, 57, 63
2, 150972, Note_off_c, 0, 57, 64
2, 150976, Note_on_c, 0, 67, 63
2, 151036, Note_off_c, 0, 67, 64
2, 151040, Note_on_c, 0, 76, 63
2, 151100, Note_off_c, 0, 76, 64
2, 151104, Note_on_c, 0, 59, 63
2, 151164, Note_off_c, 0, 59, 64
2, 151168, Note_on_c, 0, 67, 63
2, 151228, Note_off_c, 0, 67, 64
2, 151232, Note_on_c, 0, 76, 63
2, 151292, Note_off_c, 0, 76, 64
2, 151296, Note_on_c, 0, 57, 63
2, 151356, Note_off_c, 0, 57, 64
2, 151360, Note_on_c, 0, 67, 63
2, 151420, Note_off_c, 0, 67, 64
2, 151424, Note_on_c, 0, 76, 63
2, 151484, Note_off_c, 0, 76, 64
2, 151488, Note_on_c, 0, 76, 63
2, 151548, Note_off_c, 0, 76, 64
2, 151552, Note_on_c, 0, 76, 63
2, 151612, Note_off_c, 0, 76, 64
2, 151616, Note_on_c, 0, 76, 63
2, 151676, Note_off_c, 0, 76, 64
2, 151680, Note_on_c, 0, 76, 63
2, 151740, Note_off_c, 0, 76, 64
2, 151744, Note_on_c, 0, 74, 63
2, 151804, Note_off_c, 0, 74, 64
2, 151808, Note_on_c, 0, 73, 63
2, 151868, Note_off_c, 0, 73, 64
2, 151872, Note_on_c, 0, 71, 63
2, 151932, Note_off_c, 0, 71, 64
2, 151936, Note_on_c, 0, 69, 63
2, 151996, Note_off_c, 0, 69, 64
2, 152000, Note_on_c, 0, 67, 63
2, 152060, Note_off_c, 0, 67, 64
2, 152064, Note_on_c, 0, 66, 63
2, 152124, Note_off_c, 0, 66, 64
2, 152128, Note_on_c, 0, 69, 63
2, 152188, Note_off_c, 0, 69, 64
2, 152192, Note_on_c, 0, 74, 63
2, 152252, Note_off_c, 0, 74, 64
2, 152256, Note_on_c, 0, 78, 63
2, 152348, Note_off_c, 0, 78, 64
2, 152448, Note_on_c, 0, 69, 63
2, 152508, Note_off_c, 0, 69, 64
2, 152512, Note_on_c, 0, 74, 63
2, 152572, Note_off_c, 0, 74, 64
2, 152576, Note_on_c, 0, 78, 63
2, 152636, Note_off_c, 0, 78, 64
2, 152640, Note_on_c, 0, 81, 63
2, 152732, Note_off_c, 0, 81, 64
2, 152832, Note_on_c, 0, 66, 66
2, 152892, Note_off_c, 0, 66, 64
2, 152896, Note_on_c, 0, 69, 67
2, 152956, Note_off_c, 0, 69, 64
2, 152960, Note_on_c, 0, 74, 68
2, 153020, Note_off_c, 0, 74, 64
2, 153024, Note_on_c, 0, 78, 69
2, 153116, Note_off_c, 0, 78, 64
2, 153120, Note_on_c, 0, 78, 72
2, 153212, Note_off_c, 0, 78, 64
2, 153216, Note_on_c, 0, 69, 77
2, 153276, Note_off_c, 0, 69, 64
2, 153280, Note_on_c, 0, 74, 78
2, 153340, Note_off_c, 0, 74, 64
2, 153344, Note_on_c, 0, 78, 79
2, 153404, Note_off_c, 0, 78, 64
2, 153408, Note_on_c, 0, 81, 80
2, 153500, Note_off_c, 0, 81, 64
2, 153504, Note_on_c, 0, 81, 83
2, 153596, Note_off_c, 0, 81, 64
2, 153600, Note_on_c, 0, 57, 85
2, 153980, Note_off_c, 0, 57, 64
2, 153984, Note_on_c, 0, 76, 85
2, 154016, Note_off_c, 0, 76, 64
2, 154016, Note_on_c, 0, 78, 85
2, 154048, Note_off_c, 0, 78, 64
2, 154048, Note_on_c, 0, 76, 85
2, 154080, Note_off_c, 0, 76, 64
2, 154080, Note_on_c, 0, 78, 85
2, 154112, Note_off_c, 0, 78, 64
2, 154112, Note_on_c, 0, 76, 85
2, 154144, Note_off_c, 0, 76, 64
2, 154144, Note_on_c, 0, 78, 85
2, 154176, Note_off_c, 0, 78, 64
2, 154176, Note_on_c, 0, 76, 85
2, 154208, Note_off_c, 0, 76, 64
2, 154208, Note_on_c, 0, 78, 85
2, 154240, Note_off_c, 0, 78, 64
2, 154240, Note_on_c, 0, 76, 85
2, 154272, Note_off_c, 0, 76, 64
2, 154272, Note_on_c, 0, 74, 85
2, 154320, Note_off_c, 0, 74, 64
2, 154320, Note_on_c, 0, 76, 85
2, 154368, Note_off_c, 0, 76, 64
2, 154368, Note_on_c, 0, 74, 85
2, 154748, Note_off_c, 0, 74, 64
2, 155904, Note_on_c, 0, 81, 74
2, 157728, Note_off_c, 0, 81, 64
2, 157728, Note_on_c, 0, 69, 63
2, 157820, Note_off_c, 0, 69, 64
2, 157824, Note_on_c, 0, 69, 63
2, 158012, Note_off_c, 0, 69, 64
2, 158016, Note_on_c, 0, 69, 63
2, 158204, Note_off_c, 0, 69, 64
2, 158208, Note_on_c, 0, 69, 63
2, 158300, Note_off_c, 0, 69, 64
2, 158320, Note_on_c, 0, 78, 63
2, 158496, Note_on_c, 0, 69, 63
2, 158508, Note_off_c, 0, 78, 64
2, 158588, Note_off_c, 0, 69, 64
2, 158592, Note_on_c, 0, 69, 63
2, 158684, Note_off_c, 0, 69, 64
2, 158688, Note_on_c, 0, 79, 63
2, 158876, Note_off_c, 0, 79, 64
2, 158880, Note_on_c, 0, 69, 63
2, 158972, Note_off_c, 0, 69, 64
2, 158976, Note_on_c, 0, 69, 63
2, 159068, Note_off_c, 0, 69, 64
2, 159072, Note_on_c, 0, 81, 63
2, 159164, Note_off_c, 0, 81, 64
2, 159168, Note_on_c, 0, 81, 63
2, 159356, Note_off_c, 0, 81, 64
2, 159552, Note_on_c, 0, 69, 63
2, 159740, Note_off_c, 0, 69, 64
2, 159744, Note_on_c, 0, 69, 63
2, 159836, Note_off_c, 0, 69, 64
2, 159840, Note_on_c, 0, 76, 63
2, 160028, Note_off_c, 0, 76, 64
2, 160032, Note_on_c, 0, 69, 63
2, 160124, Note_off_c, 0, 69, 64
2, 160128, Note_on_c, 0, 69, 63
2, 160220, Note_off_c, 0, 69, 64
2, 160240, Note_on_c, 0, 78, 63
2, 160416, Note_on_c, 0, 69, 63
2, 160428, Note_off_c, 0, 78, 64
2, 160508, Note_off_c, 0, 69, 64
2, 160512, Note_on_c, 0, 69, 63
2, 160604, Note_off_c, 0, 69, 64
2, 160608, Note_on_c, 0, 79, 63
2, 160700, Note_off_c, 0, 79, 64
2, 160704, Note_on_c, 0, 79, 63
2, 160892, Note_off_c, 0, 79, 64
2, 161088, Note_on_c, 0, 79, 63
2, 161276, Note_off_c, 0, 79, 64
2, 161280, Note_on_c, 0, 78, 63
2, 161660, Note_off_c, 0, 78, 64
2, 161664, Note_on_c, 0, 79, 63
2, 161696, Note_off_c, 0, 79, 64
2, 161696, Note_on_c, 0, 81, 63
2, 161728, Note_off_c, 0, 81, 64
2, 161728, Note_on_c, 0, 79, 63
2, 161760, Note_off_c, 0, 79, 64
2, 161760, Note_on_c, 0, 81, 63
2, 161792, Note_off_c, 0, 81, 64
2, 161792, Note_on_c, 0, 79, 63
2, 161824, Note_off_c, 0, 79, 64
2, 161824, Note_on_c, 0, 81, 63
2, 161856, Note_off_c, 0, 81, 64
2, 161856, Note_on_c, 0, 79, 63
2, 161888, Note_off_c, 0, 79, 64
2, 161888, Note_on_c, 0, 81, 63
2, 161920, Note_off_c, 0, 81, 64
2, 161920, Note_on_c, 0, 79, 63
2, 161952, Note_off_c, 0, 79, 64
2, 161952, Note_on_c, 0, 78, 63
2, 162000, Note_off_c, 0, 78, 64
2, 162000, Note_on_c, 0, 79, 63
2, 162048, Note_off_c, 0, 79, 64
2, 162048, Note_on_c, 0, 81, 63
2, 162428, Note_off_c, 0, 81, 64
2, 162496, Note_on_c, 0, 74, 63
2, 162556, Note_off_c, 0, 74, 64
2, 162560, Note_on_c, 0, 73, 63
2, 162620, Note_off_c, 0, 73, 64
2, 162624, Note_on_c, 0, 74, 63
2, 162684, Note_off_c, 0, 74, 64
2, 162688, Note_on_c, 0, 71, 63
2, 162748, Note_off_c, 0, 71, 64
2, 162752, Note_on_c, 0, 67, 63
2, 162812, Note_off_c, 0, 67, 64
2, 162816, Note_on_c, 0, 66, 63
2, 163196, Note_off_c, 0, 66, 64
2, 163200, Note_on_c, 0, 67, 63
2, 163232, Note_off_c, 0, 67, 64
2, 163232, Note_on_c, 0, 69, 63
2, 163264, Note_off_c, 0, 69, 64
2, 163264, Note_on_c, 0, 67, 63
2, 163296, Note_off_c, 0, 67, 64
2, 163296, Note_on_c, 0, 69, 63
2, 163328, Note_off_c, 0, 69, 64
2, 163328, Note_on_c, 0, 67, 63
2, 163360, Note_off_c, 0, 67, 64
2, 163360, Note_on_c, 0, 69, 63
2, 163392, Note_off_c, 0, 69, 64
2, 163392, Note_on_c, 0, 67, 63
2, 163424, Note_off_c, 0, 67, 64
2, 163424, Note_on_c, 0, 69, 63
2, 163456, Note_off_c, 0, 69, 64
2, 163456, Note_on_c, 0, 67, 63
2, 163488, Note_off_c, 0, 67, 64
2, 163488, Note_on_c, 0, 66, 63
2, 163536, Note_off_c, 0, 66, 64
2, 163536, Note_on_c, 0, 67, 63
2, 163584, Note_off_c, 0, 67, 64
2, 163584, Note_on_c, 0, 69, 63
2, 163964, Note_off_c, 0, 69, 64
2, 164032, Note_on_c, 0, 86, 63
2, 164092, Note_off_c, 0, 86, 64
2, 164096, Note_on_c, 0, 85, 63
2, 164156, Note_off_c, 0, 85, 64
2, 164160, Note_on_c, 0, 86, 63
2, 164220, Note_off_c, 0, 86, 64
2, 164224, Note_on_c, 0, 83, 63
2, 164284, Note_off_c, 0, 83, 64
2, 164288, Note_on_c, 0, 79, 63
2, 164348, Note_off_c, 0, 79, 64
2, 164352, Note_on_c, 0, 78, 63
2, 164732, Note_off_c, 0, 78, 64
2, 164736, Note_on_c, 0, 79, 63
2, 164768, Note_off_c, 0, 79, 64
2, 164768, Note_on_c, 0, 81, 63
2, 164800, Note_off_c, 0, 81, 64
2, 164800, Note_on_c, 0, 79, 63
2, 164832, Note_off_c, 0, 79, 64
2, 164832, Note_on_c, 0, 81, 63
2, 164864, Note_off_c, 0, 81, 64
2, 164864, Note_on_c, 0, 79, 63
2, 164896, Note_off_c, 0, 79, 64
2, 164896, Note_on_c, 0, 81, 63
2, 164928, Note_off_c, 0, 81, 64
2, 164928, Note_on_c, 0, 79, 63
2, 164960, Note_off_c, 0, 79, 64
2, 164960, Note_on_c, 0, 81, 63
2, 164992, Note_off_c, 0, 81, 64
2, 164992, Note_on_c, 0, 79, 63
2, 165024, Note_off_c, 0, 79, 64
2, 165024, Note_on_c, 0, 78, 63
2, 165072, Note_off_c, 0, 78, 64
2, 165072, Note_on_c, 0, 79, 63
2, 165120, Note_off_c, 0, 79, 64
2, 165120, Note_on_c, 0, 81, 66
2, 165212, Note_off_c, 0, 81, 64
2, 165216, Note_on_c, 0, 86, 67
2, 165404, Note_off_c, 0, 86, 64
2, 165408, Note_on_c, 0, 84, 68
2, 165596, Note_off_c, 0, 84, 64
2, 165600, Note_on_c, 0, 83, 72
2, 165788, Note_off_c, 0, 83, 64
2, 165792, Note_on_c, 0, 82, 74
2, 165980, Note_off_c, 0, 82, 64
2, 165984, Note_on_c, 0, 83, 77
2, 166172, Note_off_c, 0, 83, 64
2, 166176, Note_on_c, 0, 91, 79
2, 166364, Note_off_c, 0, 91, 64
2, 166368, Note_on_c, 0, 90, 82
2, 166556, Note_off_c, 0, 90, 64
2, 166560, Note_on_c, 0, 88, 84
2, 166652, Note_off_c, 0, 88, 64
2, 166656, Note_on_c, 0, 86, 85
2, 167036, Note_off_c, 0, 86, 64
2, 167040, Note_on_c, 0, 88, 85
2, 167072, Note_off_c, 0, 88, 64
2, 167072, Note_on_c, 0, 90, 85
2, 167104, Note_off_c, 0, 90, 64
2, 167104, Note_on_c, 0, 88, 85
2, 167136, Note_off_c, 0, 88, 64
2, 167136, Note_on_c, 0, 90, 85
2, 167168, Note_off_c, 0, 90, 64
2, 167168, Note_on_c, 0, 88, 85
2, 167200, Note_off_c, 0, 88, 64
2, 167200, Note_on_c, 0, 90, 85
2, 167232, Note_off_c, 0, 90, 64
2, 167232, Note_on_c, 0, 88, 85
2, 167264, Note_off_c, 0, 88, 64
2, 167264, Note_on_c, 0, 90, 85
2, 167296, Note_off_c, 0, 90, 64
2, 167296, Note_on_c, 0, 88, 85
2, 167328, Note_off_c, 0, 88, 64
2, 167328, Note_on_c, 0, 86, 85
2, 167376, Note_off_c, 0, 86, 64
2, 167376, Note_on_c, 0, 88, 85
2, 167424, Note_off_c, 0, 88, 64
2, 167424, Note_on_c, 0, 86, 85
2, 167612, Note_off_c, 0, 86, 64
2, 167808, Note_on_c, 0, 86, 63
2, 167900, Note_off_c, 0, 86, 64
2, 167904, Note_on_c, 0, 85, 63
2, 167996, Note_off_c, 0, 85, 64
2, 168000, Note_on_c, 0, 83, 63
2, 168092, Note_off_c, 0, 83, 64
2, 168096, Note_on_c, 0, 81, 63
2, 168188, Note_off_c, 0, 81, 64
2, 168192, Note_on_c, 0, 81, 63
2, 168284, Note_off_c, 0, 81, 64
2, 168288, Note_on_c, 0, 80, 63
2, 168380, Note_off_c, 0, 80, 64
2, 168384, Note_on_c, 0, 80, 63
2, 168476, Note_off_c, 0, 80, 64
2, 168480, Note_on_c, 0, 80, 63
2, 168572, Note_off_c, 0, 80, 64
2, 168576, Note_on_c, 0, 80, 63
2, 168764, Note_off_c, 0, 80, 64
2, 168768, Note_on_c, 0, 80, 63
2, 168956, Note_off_c, 0, 80, 64
2, 168960, Note_on_c, 0, 81, 63
2, 169244, Note_off_c, 0, 81, 64
2, 169248, Note_on_c, 0, 82, 63
2, 169340, Note_off_c, 0, 82, 64
2, 169344, Note_on_c, 0, 83, 63
2, 169436, Note_off_c, 0, 83, 64
2, 169440, Note_on_c, 0, 81, 63
2, 169532, Note_off_c, 0, 81, 64
2, 169536, Note_on_c, 0, 79, 63
2, 169628, Note_off_c, 0, 79, 64
2, 169632, Note_on_c, 0, 78, 63
2, 169724, Note_off_c, 0, 78, 64
2, 169728, Note_on_c, 0, 78, 63
2, 169820, Note_off_c, 0, 78, 64
2, 169824, Note_on_c, 0, 76, 63
2, 169916, Note_off_c, 0, 76, 64
2, 169920, Note_on_c, 0, 76, 63
2, 170012, Note_off_c, 0, 76, 64
2, 170016, Note_on_c, 0, 76, 63
2, 170108, Note_off_c, 0, 76, 64
2, 170112, Note_on_c, 0, 76, 63
2, 170204, Note_off_c, 0, 76, 64
2, 170208, Note_on_c, 0, 79, 63
2, 170300, Note_off_c, 0, 79, 64
2, 170304, Note_on_c, 0, 78, 63
2, 170396, Note_off_c, 0, 78, 64
2, 170400, Note_on_c, 0, 76, 63
2, 170492, Note_off_c, 0, 76, 64
2, 170496, Note_on_c, 0, 78, 63
2, 170556, Note_off_c, 0, 78, 64
2, 170560, Note_on_c, 0, 74, 63
2, 170620, Note_off_c, 0, 74, 64
2, 170624, Note_on_c, 0, 69, 63
2, 170684, Note_off_c, 0, 69, 64
2, 170688, Note_on_c, 0, 74, 63
2, 170748, Note_off_c, 0, 74, 64
2, 170752, Note_on_c, 0, 76, 63
2, 170812, Note_off_c, 0, 76, 64
2, 170816, Note_on_c, 0, 78, 63
2, 170876, Note_off_c, 0, 78, 64
2, 170880, Note_on_c, 0, 79, 63
2, 170940, Note_off_c, 0, 79, 64
2, 170944, Note_on_c, 0, 76, 63
2, 171004, Note_off_c, 0, 76, 64
2, 171008, Note_on_c, 0, 69, 63
2, 171068, Note_off_c, 0, 69, 64
2, 171072, Note_on_c, 0, 76, 63
2, 171132, Note_off_c, 0, 76, 64
2, 171136, Note_on_c, 0, 78, 63
2, 171196, Note_off_c, 0, 78, 64
2, 171200, Note_on_c, 0, 79, 63
2, 171260, Note_off_c, 0, 79, 64
2, 171264, Note_on_c, 0, 78, 66
2, 171324, Note_off_c, 0, 78, 64
2, 171328, Note_on_c, 0, 74, 66
2, 171388, Note_off_c, 0, 74, 64
2, 171392, Note_on_c, 0, 69, 67
2, 171452, Note_off_c, 0, 69, 64
2, 171456, Note_on_c, 0, 74, 67
2, 171516, Note_off_c, 0, 74, 64
2, 171520, Note_on_c, 0, 76, 68
2, 171580, Note_off_c, 0, 76, 64
2, 171584, Note_on_c, 0, 78, 68
2, 171644, Note_off_c, 0, 78, 64
2, 171648, Note_on_c, 0, 79, 69
2, 171708, Note_off_c, 0, 79, 64
2, 171712, Note_on_c, 0, 76, 72
2, 171772, Note_off_c, 0, 76, 64
2, 171776, Note_on_c, 0, 69, 72
2, 171836, Note_off_c, 0, 69, 64
2, 171840, Note_on_c, 0, 76, 72
2, 171900, Note_off_c, 0, 76, 64
2, 171904, Note_on_c, 0, 78, 72
2, 171964, Note_off_c, 0, 78, 64
2, 171968, Note_on_c, 0, 79, 74
2, 172028, Note_off_c, 0, 79, 64
2, 172032, Note_on_c, 0, 78, 77
2, 172092, Note_off_c, 0, 78, 64
2, 172096, Note_on_c, 0, 81, 77
2, 172156, Note_off_c, 0, 81, 64
2, 172160, Note_on_c, 0, 79, 78
2, 172220, Note_off_c, 0, 79, 64
2, 172224, Note_on_c, 0, 78, 78
2, 172284, Note_off_c, 0, 78, 64
2, 172288, Note_on_c, 0, 76, 79
2, 172348, Note_off_c, 0, 76, 64
2, 172352, Note_on_c, 0, 74, 79
2, 172412, Note_off_c, 0, 74, 64
2, 172416, Note_on_c, 0, 76, 80
2, 172448, Note_off_c, 0, 76, 64
2, 172448, Note_on_c, 0, 78, 80
2, 172480, Note_off_c, 0, 78, 64
2, 172480, Note_on_c, 0, 76, 82
2, 172512, Note_off_c, 0, 76, 64
2, 172512, Note_on_c, 0, 78, 82
2, 172544, Note_off_c, 0, 78, 64
2, 172544, Note_on_c, 0, 76, 82
2, 172576, Note_off_c, 0, 76, 64
2, 172576, Note_on_c, 0, 78, 82
2, 172608, Note_off_c, 0, 78, 64
2, 172608, Note_on_c, 0, 76, 83
2, 172640, Note_off_c, 0, 76, 64
2, 172640, Note_on_c, 0, 78, 83
2, 172672, Note_off_c, 0, 78, 64
2, 172672, Note_on_c, 0, 76, 83
2, 172704, Note_off_c, 0, 76, 64
2, 172704, Note_on_c, 0, 74, 84
2, 172752, Note_off_c, 0, 74, 64
2, 172752, Note_on_c, 0, 76, 84
2, 172800, Note_off_c, 0, 76, 64
2, 172800, Note_on_c, 0, 78, 85
2, 172860, Note_off_c, 0, 78, 64
2, 172864, Note_on_c, 0, 74, 85
2, 172924, Note_off_c, 0, 74, 64
2, 172928, Note_on_c, 0, 69, 85
2, 172988, Note_off_c, 0, 69, 64
2, 172992, Note_on_c, 0, 78, 85
2, 173052, Note_off_c, 0, 78, 64
2, 173056, Note_on_c, 0, 81, 85
2, 173116, Note_off_c, 0, 81, 64
2, 173120, Note_on_c, 0, 86, 85
2, 173180, Note_off_c, 0, 86, 64
2, 173184, Note_on_c, 0, 85, 85
2, 173244, Note_off_c, 0, 85, 64
2, 173248, Note_on_c, 0, 88, 85
2, 173308, Note_off_c, 0, 88, 64
2, 173312, Note_on_c, 0, 76, 85
2, 173372, Note_off_c, 0, 76, 64
2, 173376, Note_on_c, 0, 79, 85
2, 173408, Note_off_c, 0, 79, 64
2, 173408, Note_on_c, 0, 81, 85
2, 173440, Note_off_c, 0, 81, 64
2, 173440, Note_on_c, 0, 79, 85
2, 173472, Note_off_c, 0, 79, 64
2, 173472, Note_on_c, 0, 81, 85
2, 173504, Note_off_c, 0, 81, 64
2, 173504, Note_on_c, 0, 78, 85
2, 173536, Note_off_c, 0, 78, 64
2, 173536, Note_on_c, 0, 79, 85
2, 173568, Note_on_c, 0, 78, 85
2, 173572, Note_off_c, 0, 79, 64
2, 173628, Note_off_c, 0, 78, 64
2, 173632, Note_on_c, 0, 74, 85
2, 173692, Note_off_c, 0, 74, 64
2, 173696, Note_on_c, 0, 69, 85
2, 173756, Note_off_c, 0, 69, 64
2, 173760, Note_on_c, 0, 78, 85
2, 173820, Note_off_c, 0, 78, 64
2, 173824, Note_on_c, 0, 81, 85
2, 173884, Note_off_c, 0, 81, 64
2, 173888, Note_on_c, 0, 86, 85
2, 173948, Note_off_c, 0, 86, 64
2, 173952, Note_on_c, 0, 85, 85
2, 174012, Note_off_c, 0, 85, 64
2, 174016, Note_on_c, 0, 88, 85
2, 174076, Note_off_c, 0, 88, 64
2, 174080, Note_on_c, 0, 76, 85
2, 174140, Note_off_c, 0, 76, 64
2, 174144, Note_on_c, 0, 79, 85
2, 174176, Note_off_c, 0, 79, 64
2, 174176, Note_on_c, 0, 81, 85
2, 174208, Note_off_c, 0, 81, 64
2, 174208, Note_on_c, 0, 79, 85
2, 174240, Note_off_c, 0, 79, 64
2, 174240, Note_on_c, 0, 78, 85
2, 174284, Note_off_c, 0, 78, 64
2, 174288, Note_on_c, 0, 79, 85
2, 174332, Note_off_c, 0, 79, 64
2, 174336, Note_on_c, 0, 78, 85
2, 174380, Note_off_c, 0, 78, 64
2, 174384, Note_on_c, 0, 76, 85
2, 174428, Note_off_c, 0, 76, 64
2, 174432, Note_on_c, 0, 74, 85
2, 174476, Note_off_c, 0, 74, 64
2, 174480, Note_on_c, 0, 73, 85
2, 174524, Note_off_c, 0, 73, 64
2, 174528, Note_on_c, 0, 74, 85
2, 174572, Note_off_c, 0, 74, 64
2, 174576, Note_on_c, 0, 73, 85
2, 174620, Note_off_c, 0, 73, 64
2, 174624, Note_on_c, 0, 71, 85
2, 174668, Note_off_c, 0, 71, 64
2, 174672, Note_on_c, 0, 69, 85
2, 174716, Note_off_c, 0, 69, 64
2, 174720, Note_on_c, 0, 71, 85
2, 174764, Note_off_c, 0, 71, 64
2, 174768, Note_on_c, 0, 69, 85
2, 174812, Note_off_c, 0, 69, 64
2, 174816, Note_on_c, 0, 67, 85
2, 174860, Note_off_c, 0, 67, 64
2, 174864, Note_on_c, 0, 66, 85
2, 174908, Note_off_c, 0, 66, 64
2, 174912, Note_on_c, 0, 67, 85
2, 174956, Note_off_c, 0, 67, 64
2, 174960, Note_on_c, 0, 66, 85
2, 175004, Note_off_c, 0, 66, 64
2, 175008, Note_on_c, 0, 64, 85
2, 175052, Note_off_c, 0, 64, 64
2, 175056, Note_on_c, 0, 62, 85
2, 175100, Note_off_c, 0, 62, 64
2, 175104, Note_on_c, 0, 57, 85
2, 175196, Note_off_c, 0, 57, 64
2, 175200, Note_on_c, 0, 74, 85
2, 175292, Note_off_c, 0, 74, 64
2, 175296, Note_on_c, 0, 76, 85
2, 175388, Note_off_c, 0, 76, 64
2, 175392, Note_on_c, 0, 78, 85
2, 175484, Note_off_c, 0, 78, 64
2, 175488, Note_on_c, 0, 79, 85
2, 175580, Note_off_c, 0, 79, 64
2, 175584, Note_on_c, 0, 81, 85
2, 175676, Note_off_c, 0, 81, 64
2, 175680, Note_on_c, 0, 83, 85
2, 175772, Note_off_c, 0, 83, 64
2, 175776, Note_on_c, 0, 85, 85
2, 175868, Note_off_c, 0, 85, 64
2, 175872, Note_on_c, 0, 86, 85
2, 175964, Note_off_c, 0, 86, 64
2, 175968, Note_on_c, 0, 88, 85
2, 176060, Note_off_c, 0, 88, 64
2, 176064, Note_on_c, 0, 90, 85
2, 176156, Note_off_c, 0, 90, 64
2, 176160, Note_on_c, 0, 91, 85
2, 176252, Note_off_c, 0, 91, 64
2, 176256, Note_on_c, 0, 93, 85
2, 176444, Note_off_c, 0, 93, 64
2, 176448, Note_on_c, 0, 62, 85
2, 176636, Note_off_c, 0, 62, 64
2, 176640, Note_on_c, 0, 57, 85
2, 177404, Note_off_c, 0, 57, 64
2, 177408, Note_on_c, 0, 76, 85
2, 177440, Note_off_c, 0, 76, 64
2, 177440, Note_on_c, 0, 78, 85
2, 177472, Note_off_c, 0, 78, 64
2, 177472, Note_on_c, 0, 76, 85
2, 177504, Note_off_c, 0, 76, 64
2, 177504, Note_on_c, 0, 78, 85
2, 177536, Note_off_c, 0, 78, 64
2, 177536, Note_on_c, 0, 76, 85
2, 177568, Note_off_c, 0, 76, 64
2, 177568, Note_on_c, 0, 78, 85
2, 177600, Note_off_c, 0, 78, 64
2, 177600, Note_on_c, 0, 76, 85
2, 177632, Note_off_c, 0, 76, 64
2, 177632, Note_on_c, 0, 78, 85
2, 177664, Note_off_c, 0, 78, 64
2, 177664, Note_on_c, 0, 76, 85
2, 177696, Note_off_c, 0, 76, 64
2, 177696, Note_on_c, 0, 78, 85
2, 177728, Note_off_c, 0, 78, 64
2, 177728, Note_on_c, 0, 76, 85
2, 177760, Note_off_c, 0, 76, 64
2, 177760, Note_on_c, 0, 78, 85
2, 177792, Note_off_c, 0, 78, 64
2, 177792, Note_on_c, 0, 76, 85
2, 177824, Note_off_c, 0, 76, 64
2, 177824, Note_on_c, 0, 78, 85
2, 177856, Note_off_c, 0, 78, 64
2, 177856, Note_on_c, 0, 76, 85
2, 177888, Note_off_c, 0, 76, 64
2, 177888, Note_on_c, 0, 78, 85
2, 177920, Note_off_c, 0, 78, 64
2, 177920, Note_on_c, 0, 76, 85
2, 177952, Note_off_c, 0, 76, 64
2, 177952, Note_on_c, 0, 78, 85
2, 177984, Note_off_c, 0, 78, 64
2, 177984, Note_on_c, 0, 74, 85
2, 178080, Note_off_c, 0, 74, 64
2, 178080, Note_on_c, 0, 76, 85
2, 178176, Note_off_c, 0, 76, 64
2, 178176, Note_on_c, 0, 74, 85
2, 178556, Note_off_c, 0, 74, 64
2, 180672, Note_on_c, 0, 86, 68
2, 181052, Note_off_c, 0, 86, 64
2, 181056, Note_on_c, 0, 86, 68
2, 181244, Note_off_c, 0, 86, 64
2, 181248, Note_on_c, 0, 86, 89
2, 181248, Note_on_c, 0, 78, 89
2, 181248, Note_on_c, 0, 62, 89
2, 181628, Note_off_c, 0, 86, 64
2, 181628, Note_off_c, 0, 78, 64
2, 181628, Note_off_c, 0, 62, 64
2, 181632, Note_on_c, 0, 81, 89
2, 181632, Note_on_c, 0, 78, 89
2, 181916, Note_off_c, 0, 81, 64
2, 181916, Note_off_c, 0, 78, 64
2, 181920, Note_on_c, 0, 78, 89
2, 181920, Note_on_c, 0, 81, 89
2, 182012, Note_off_c, 0, 78, 64
2, 182012, Note_off_c, 0, 81, 64
2, 182016, Note_on_c, 0, 78, 89
2, 182016, Note_on_c, 0, 69, 89
2, 182016, Note_on_c, 0, 62, 89
2, 182204, Note_off_c, 0, 78, 64
2, 182204, Note_off_c, 0, 69, 64
2, 182204, Note_off_c, 0, 62, 64
2, 182208, Note_on_c, 0, 74, 89
2, 182396, Note_off_c, 0, 74, 64
2, 182592, Note_on_c, 0, 69, 89
2, 182652, Note_off_c, 0, 69, 64
2, 182656, Note_on_c, 0, 71, 89
2, 182716, Note_off_c, 0, 71, 64
2, 182720, Note_on_c, 0, 69, 89
2, 182780, Note_off_c, 0, 69, 64
2, 182784, Note_on_c, 0, 78, 89
2, 182784, Note_on_c, 0, 74, 89
2, 182972, Note_off_c, 0, 78, 64
2, 182972, Note_off_c, 0, 74, 64
2, 182976, Note_on_c, 0, 69, 89
2, 183036, Note_off_c, 0, 69, 64
2, 183040, Note_on_c, 0, 71, 89
2, 183100, Note_off_c, 0, 71, 64
2, 183104, Note_on_c, 0, 69, 89
2, 183164, Note_off_c, 0, 69, 64
2, 183168, Note_on_c, 0, 79, 89
2, 183168, Note_on_c, 0, 76, 89
2, 183356, Note_off_c, 0, 79, 64
2, 183356, Note_off_c, 0, 76, 64
2, 183360, Note_on_c, 0, 69, 89
2, 183420, Note_off_c, 0, 69, 64
2, 183424, Note_on_c, 0, 71, 89
2, 183484, Note_off_c, 0, 71, 64
2, 183488, Note_on_c, 0, 69, 89
2, 183548, Note_off_c, 0, 69, 64
2, 183552, Note_on_c, 0, 81, 89
2, 183552, Note_on_c, 0, 78, 89
2, 183932, Note_off_c, 0, 81, 64
2, 183932, Note_off_c, 0, 78, 64
2, 184320, Note_on_c, 0, 93, 89
2, 184380, Note_off_c, 0, 93, 64
2, 184384, Note_on_c, 0, 92, 89
2, 184444, Note_off_c, 0, 92, 64
2, 184448, Note_on_c, 0, 93, 89
2, 184508, Note_off_c, 0, 93, 64
2, 184512, Note_on_c, 0, 81, 89
2, 184572, Note_off_c, 0, 81, 64
2, 184576, Note_on_c, 0, 90, 89
2, 184636, Note_off_c, 0, 90, 64
2, 184640, Note_on_c, 0, 93, 89
2, 184700, Note_off_c, 0, 93, 64
2, 184704, Note_on_c, 0, 90, 89
2, 184764, Note_off_c, 0, 90, 64
2, 184768, Note_on_c, 0, 89, 89
2, 184828, Note_off_c, 0, 89, 64
2, 184832, Note_on_c, 0, 90, 89
2, 184892, Note_off_c, 0, 90, 64
2, 184896, Note_on_c, 0, 81, 89
2, 184956, Note_off_c, 0, 81, 64
2, 184960, Note_on_c, 0, 86, 89
2, 185020, Note_off_c, 0, 86, 64
2, 185024, Note_on_c, 0, 90, 89
2, 185084, Note_off_c, 0, 90, 64
2, 185088, Note_on_c, 0, 86, 89
2, 185148, Note_off_c, 0, 86, 64
2, 185152, Note_on_c, 0, 85, 89
2, 185212, Note_off_c, 0, 85, 64
2, 185216, Note_on_c, 0, 86, 89
2, 185276, Note_off_c, 0, 86, 64
2, 185280, Note_on_c, 0, 71, 89
2, 185340, Note_off_c, 0, 71, 64
2, 185344, Note_on_c, 0, 81, 89
2, 185404, Note_off_c, 0, 81, 64
2, 185408, Note_on_c, 0, 86, 89
2, 185468, Note_off_c, 0, 86, 64
2, 185472, Note_on_c, 0, 81, 89
2, 185532, Note_off_c, 0, 81, 64
2, 185536, Note_on_c, 0, 80, 89
2, 185596, Note_off_c, 0, 80, 64
2, 185600, Note_on_c, 0, 81, 89
2, 185660, Note_off_c, 0, 81, 64
2, 185664, Note_on_c, 0, 69, 89
2, 185724, Note_off_c, 0, 69, 64
2, 185728, Note_on_c, 0, 74, 89
2, 185788, Note_off_c, 0, 74, 64
2, 185792, Note_on_c, 0, 78, 89
2, 185852, Note_off_c, 0, 78, 64
2, 185856, Note_on_c, 0, 79, 89
2, 185856, Note_on_c, 0, 69, 89
2, 185856, Note_on_c, 0, 64, 89
2, 185856, Note_on_c, 0, 57, 89
2, 186236, Note_off_c, 0, 79, 64
2, 186236, Note_off_c, 0, 69, 64
2, 186236, Note_off_c, 0, 64, 64
2, 186236, Note_off_c, 0, 57, 64
2, 186240, Note_on_c, 0, 76, 89
2, 186240, Note_on_c, 0, 69, 89
2, 186524, Note_off_c, 0, 76, 64
2, 186524, Note_off_c, 0, 69, 64
2, 186528, Note_on_c, 0, 76, 89
2, 186528, Note_on_c, 0, 69, 89
2, 186620, Note_off_c, 0, 76, 64
2, 186620, Note_off_c, 0, 69, 64
2, 186624, Note_on_c, 0, 73, 89
2, 186624, Note_on_c, 0, 64, 89
2, 186812, Note_off_c, 0, 73, 64
2, 186812, Note_off_c, 0, 64, 64
2, 186816, Note_on_c, 0, 69, 89
2, 187004, Note_off_c, 0, 69, 64
2, 187200, Note_on_c, 0, 69, 89
2, 187260, Note_off_c, 0, 69, 64
2, 187264, Note_on_c, 0, 71, 89
2, 187324, Note_off_c, 0, 71, 64
2, 187328, Note_on_c, 0, 69, 89
2, 187388, Note_off_c, 0, 69, 64
2, 187392, Note_on_c, 0, 76, 89
2, 187392, Note_on_c, 0, 73, 89
2, 187580, Note_off_c, 0, 76, 64
2, 187580, Note_off_c, 0, 73, 64
2, 187584, Note_on_c, 0, 69, 89
2, 187644, Note_off_c, 0, 69, 64
2, 187648, Note_on_c, 0, 71, 89
2, 187708, Note_off_c, 0, 71, 64
2, 187712, Note_on_c, 0, 69, 89
2, 187772, Note_off_c, 0, 69, 64
2, 187776, Note_on_c, 0, 78, 89
2, 187776, Note_on_c, 0, 75, 89
2, 187964, Note_off_c, 0, 78, 64
2, 187964, Note_off_c, 0, 75, 64
2, 187968, Note_on_c, 0, 69, 89
2, 188028, Note_off_c, 0, 69, 64
2, 188032, Note_on_c, 0, 71, 89
2, 188092, Note_off_c, 0, 71, 64
2, 188096, Note_on_c, 0, 69, 89
2, 188156, Note_off_c, 0, 69, 64
2, 188160, Note_on_c, 0, 79, 89
2, 188160, Note_on_c, 0, 76, 89
2, 188540, Note_off_c, 0, 79, 64
2, 188540, Note_off_c, 0, 76, 64
2, 188928, Note_on_c, 0, 88, 89
2, 188988, Note_off_c, 0, 88, 64
2, 188992, Note_on_c, 0, 87, 89
2, 189052, Note_off_c, 0, 87, 64
2, 189056, Note_on_c, 0, 88, 89
2, 189116, Note_off_c, 0, 88, 64
2, 189120, Note_on_c, 0, 76, 89
2, 189180, Note_off_c, 0, 76, 64
2, 189184, Note_on_c, 0, 85, 89
2, 189244, Note_off_c, 0, 85, 64
2, 189248, Note_on_c, 0, 88, 89
2, 189308, Note_off_c, 0, 88, 64
2, 189312, Note_on_c, 0, 85, 89
2, 189372, Note_off_c, 0, 85, 64
2, 189376, Note_on_c, 0, 84, 89
2, 189436, Note_off_c, 0, 84, 64
2, 189440, Note_on_c, 0, 85, 89
2, 189500, Note_off_c, 0, 85, 64
2, 189504, Note_on_c, 0, 73, 89
2, 189564, Note_off_c, 0, 73, 64
2, 189568, Note_on_c, 0, 81, 89
2, 189628, Note_off_c, 0, 81, 64
2, 189632, Note_on_c, 0, 85, 89
2, 189692, Note_off_c, 0, 85, 64
2, 189696, Note_on_c, 0, 81, 89
2, 189756, Note_off_c, 0, 81, 64
2, 189760, Note_on_c, 0, 80, 89
2, 189820, Note_off_c, 0, 80, 64
2, 189824, Note_on_c, 0, 81, 89
2, 189884, Note_off_c, 0, 81, 64
2, 189888, Note_on_c, 0, 69, 89
2, 189948, Note_off_c, 0, 69, 64
2, 189952, Note_on_c, 0, 76, 89
2, 190012, Note_off_c, 0, 76, 64
2, 190016, Note_on_c, 0, 81, 89
2, 190076, Note_off_c, 0, 81, 64
2, 190080, Note_on_c, 0, 79, 89
2, 190140, Note_off_c, 0, 79, 64
2, 190144, Note_on_c, 0, 78, 89
2, 190204, Note_off_c, 0, 78, 64
2, 190208, Note_on_c, 0, 79, 89
2, 190268, Note_off_c, 0, 79, 64
2, 190272, Note_on_c, 0, 69, 89
2, 190336, Note_on_c, 0, 76, 89
2, 190396, Note_off_c, 0, 69, 64
2, 190400, Note_on_c, 0, 79, 89
2, 190460, Note_off_c, 0, 76, 64
2, 190460, Note_off_c, 0, 79, 64
2, 190464, Note_on_c, 0, 81, 89
2, 190464, Note_on_c, 0, 57, 89
2, 190464, Note_on_c, 0, 73, 89
2, 190652, Note_off_c, 0, 81, 64
2, 190652, Note_off_c, 0, 57, 64
2, 190652, Note_off_c, 0, 73, 64
2, 190656, Note_on_c, 0, 74, 89
2, 190656, Note_on_c, 0, 66, 89
2, 190844, Note_off_c, 0, 74, 64
2, 190844, Note_off_c, 0, 66, 64
2, 190848, Note_on_c, 0, 78, 89
2, 190940, Note_off_c, 0, 78, 64
2, 190944, Note_on_c, 0, 69, 89
2, 191036, Note_off_c, 0, 69, 64
2, 191040, Note_on_c, 0, 74, 89
2, 191132, Note_off_c, 0, 74, 64
2, 191136, Note_on_c, 0, 69, 89
2, 191228, Note_off_c, 0, 69, 64
2, 191232, Note_on_c, 0, 66, 89
2, 191324, Note_off_c, 0, 66, 64
2, 191328, Note_on_c, 0, 62, 89
2, 191420, Note_off_c, 0, 62, 64
2, 191424, Note_on_c, 0, 69, 89
2, 191612, Note_off_c, 0, 69, 64
2, 191616, Note_on_c, 0, 57, 89
2, 191996, Note_off_c, 0, 57, 64
2, 192000, Note_on_c, 0, 81, 89
2, 192000, Note_on_c, 0, 57, 89
2, 192000, Note_on_c, 0, 74, 89
2, 192188, Note_off_c, 0, 81, 64
2, 192188, Note_off_c, 0, 57, 64
2, 192188, Note_off_c, 0, 74, 64
2, 192192, Note_on_c, 0, 86, 89
2, 192192, Note_on_c, 0, 74, 89
2, 192380, Note_off_c, 0, 86, 64
2, 192380, Note_off_c, 0, 74, 64
2, 192384, Note_on_c, 0, 86, 89
2, 192384, Note_on_c, 0, 74, 89
2, 192476, Note_off_c, 0, 86, 64
2, 192476, Note_off_c, 0, 74, 64
2, 192480, Note_on_c, 0, 85, 89
2, 192572, Note_off_c, 0, 85, 64
2, 192576, Note_on_c, 0, 83, 89
2, 192668, Note_off_c, 0, 83, 64
2, 192672, Note_on_c, 0, 81, 89
2, 192764, Note_off_c, 0, 81, 64
2, 192768, Note_on_c, 0, 81, 89
2, 192860, Note_off_c, 0, 81, 64
2, 192864, Note_on_c, 0, 80, 89
2, 192956, Note_off_c, 0, 80, 64
2, 192960, Note_on_c, 0, 80, 89
2, 193052, Note_off_c, 0, 80, 64
2, 193056, Note_on_c, 0, 80, 89
2, 193148, Note_off_c, 0, 80, 64
2, 193152, Note_on_c, 0, 74, 89
2, 193152, Note_on_c, 0, 80, 89
2, 193244, Note_off_c, 0, 74, 64
2, 193248, Note_on_c, 0, 76, 89
2, 193340, Note_off_c, 0, 80, 64
2, 193340, Note_off_c, 0, 76, 64
2, 193344, Note_on_c, 0, 74, 89
2, 193344, Note_on_c, 0, 80, 89
2, 193436, Note_off_c, 0, 74, 64
2, 193440, Note_on_c, 0, 76, 89
2, 193532, Note_off_c, 0, 80, 64
2, 193532, Note_off_c, 0, 76, 64
2, 193536, Note_on_c, 0, 83, 89
2, 193536, Note_on_c, 0, 73, 89
2, 193724, Note_off_c, 0, 73, 64
2, 193820, Note_off_c, 0, 83, 64
2, 193824, Note_on_c, 0, 82, 89
2, 193916, Note_off_c, 0, 82, 64
2, 193920, Note_on_c, 0, 83, 89
2, 194012, Note_off_c, 0, 83, 64
2, 194016, Note_on_c, 0, 81, 89
2, 194108, Note_off_c, 0, 81, 64
2, 194112, Note_on_c, 0, 79, 89
2, 194204, Note_off_c, 0, 79, 64
2, 194208, Note_on_c, 0, 78, 89
2, 194300, Note_off_c, 0, 78, 64
2, 194304, Note_on_c, 0, 78, 89
2, 194396, Note_off_c, 0, 78, 64
2, 194400, Note_on_c, 0, 77, 89
2, 194492, Note_off_c, 0, 77, 64
2, 194496, Note_on_c, 0, 77, 89
2, 194588, Note_off_c, 0, 77, 64
2, 194592, Note_on_c, 0, 77, 89
2, 194684, Note_off_c, 0, 77, 64
2, 194688, Note_on_c, 0, 71, 89
2, 194688, Note_on_c, 0, 77, 89
2, 194780, Note_off_c, 0, 71, 64
2, 194784, Note_on_c, 0, 73, 89
2, 194876, Note_off_c, 0, 77, 64
2, 194876, Note_off_c, 0, 73, 64
2, 194880, Note_on_c, 0, 71, 89
2, 194880, Note_on_c, 0, 77, 89
2, 194972, Note_off_c, 0, 71, 64
2, 194976, Note_on_c, 0, 73, 89
2, 195068, Note_off_c, 0, 77, 64
2, 195068, Note_off_c, 0, 73, 64
2, 195072, Note_on_c, 0, 78, 89
2, 195072, Note_on_c, 0, 69, 89
2, 195356, Note_off_c, 0, 78, 64
2, 195356, Note_off_c, 0, 69, 64
2, 195360, Note_on_c, 0, 78, 89
2, 195452, Note_off_c, 0, 78, 64
2, 195456, Note_on_c, 0, 79, 89
2, 195548, Note_off_c, 0, 79, 64
2, 195552, Note_on_c, 0, 78, 89
2, 195644, Note_off_c, 0, 78, 64
2, 195648, Note_on_c, 0, 76, 89
2, 195740, Note_off_c, 0, 76, 64
2, 195744, Note_on_c, 0, 74, 89
2, 195836, Note_off_c, 0, 74, 64
2, 195840, Note_on_c, 0, 74, 89
2, 195932, Note_off_c, 0, 74, 64
2, 195936, Note_on_c, 0, 73, 89
2, 196028, Note_off_c, 0, 73, 64
2, 196032, Note_on_c, 0, 73, 89
2, 196124, Note_off_c, 0, 73, 64
2, 196128, Note_on_c, 0, 73, 89
2, 196220, Note_off_c, 0, 73, 64
2, 196224, Note_on_c, 0, 67, 89
2, 196224, Note_on_c, 0, 73, 89
2, 196316, Note_off_c, 0, 67, 64
2, 196320, Note_on_c, 0, 69, 89
2, 196412, Note_off_c, 0, 73, 64
2, 196412, Note_off_c, 0, 69, 64
2, 196416, Note_on_c, 0, 67, 89
2, 196416, Note_on_c, 0, 73, 89
2, 196508, Note_off_c, 0, 67, 64
2, 196512, Note_on_c, 0, 69, 89
2, 196604, Note_off_c, 0, 73, 64
2, 196604, Note_off_c, 0, 69, 64
2, 196608, Note_on_c, 0, 74, 89
2, 196608, Note_on_c, 0, 66, 89
2, 196668, Note_off_c, 0, 74, 64
2, 196668, Note_off_c, 0, 66, 64
2, 196672, Note_on_c, 0, 74, 89
2, 196732, Note_off_c, 0, 74, 64
2, 196736, Note_on_c, 0, 71, 89
2, 196796, Note_off_c, 0, 71, 64
2, 196800, Note_on_c, 0, 74, 89
2, 196860, Note_off_c, 0, 74, 64
2, 196864, Note_on_c, 0, 76, 89
2, 196924, Note_off_c, 0, 76, 64
2, 196928, Note_on_c, 0, 78, 89
2, 196988, Note_off_c, 0, 78, 64
2, 196992, Note_on_c, 0, 79, 89
2, 197180, Note_off_c, 0, 79, 64
2, 197184, Note_on_c, 0, 79, 89
2, 197372, Note_off_c, 0, 79, 64
2, 197376, Note_on_c, 0, 79, 89
2, 197408, Note_off_c, 0, 79, 64
2, 197408, Note_on_c, 0, 81, 89
2, 197440, Note_off_c, 0, 81, 64
2, 197440, Note_on_c, 0, 79, 89
2, 197472, Note_off_c, 0, 79, 64
2, 197472, Note_on_c, 0, 81, 89
2, 197504, Note_off_c, 0, 81, 64
2, 197504, Note_on_c, 0, 78, 89
2, 197536, Note_off_c, 0, 78, 64
2, 197536, Note_on_c, 0, 79, 89
2, 197568, Note_off_c, 0, 79, 64
2, 197568, Note_on_c, 0, 78, 89
2, 197756, Note_off_c, 0, 78, 64
2, 197952, Note_on_c, 0, 81, 89
2, 198140, Note_off_c, 0, 81, 64
2, 198144, Note_on_c, 0, 81, 89
2, 198236, Note_off_c, 0, 81, 64
2, 198240, Note_on_c, 0, 79, 89
2, 198332, Note_off_c, 0, 79, 64
2, 198336, Note_on_c, 0, 79, 89
2, 198428, Note_off_c, 0, 79, 64
2, 198432, Note_on_c, 0, 78, 89
2, 198524, Note_off_c, 0, 78, 64
2, 198528, Note_on_c, 0, 78, 89
2, 198620, Note_off_c, 0, 78, 64
2, 198624, Note_on_c, 0, 76, 89
2, 198716, Note_off_c, 0, 76, 64
2, 198720, Note_on_c, 0, 76, 89
2, 198812, Note_off_c, 0, 76, 64
2, 198816, Note_on_c, 0, 74, 89
2, 198908, Note_off_c, 0, 74, 64
2, 198912, Note_on_c, 0, 74, 89
2, 199004, Note_off_c, 0, 74, 64
2, 199008, Note_on_c, 0, 73, 89
2, 199100, Note_off_c, 0, 73, 64
2, 199104, Note_on_c, 0, 71, 89
2, 199196, Note_off_c, 0, 71, 64
2, 199200, Note_on_c, 0, 69, 89
2, 199292, Note_off_c, 0, 69, 64
2, 199296, Note_on_c, 0, 68, 89
2, 199388, Note_off_c, 0, 68, 64
2, 199392, Note_on_c, 0, 69, 89
2, 199484, Note_off_c, 0, 69, 64
2, 199488, Note_on_c, 0, 71, 89
2, 199580, Note_off_c, 0, 71, 64
2, 199584, Note_on_c, 0, 69, 89
2, 199676, Note_off_c, 0, 69, 64
2, 199680, Note_on_c, 0, 69, 89
2, 199740, Note_off_c, 0, 69, 64
2, 199744, Note_on_c, 0, 79, 89
2, 199804, Note_off_c, 0, 79, 64
2, 199808, Note_on_c, 0, 88, 89
2, 199868, Note_off_c, 0, 88, 64
2, 199872, Note_on_c, 0, 70, 89
2, 199932, Note_off_c, 0, 70, 64
2, 199936, Note_on_c, 0, 79, 89
2, 199996, Note_off_c, 0, 79, 64
2, 200000, Note_on_c, 0, 88, 89
2, 200060, Note_off_c, 0, 88, 64
2, 200064, Note_on_c, 0, 69, 89
2, 200124, Note_off_c, 0, 69, 64
2, 200128, Note_on_c, 0, 79, 89
2, 200188, Note_off_c, 0, 79, 64
2, 200192, Note_on_c, 0, 88, 89
2, 200252, Note_off_c, 0, 88, 64
2, 200256, Note_on_c, 0, 70, 89
2, 200316, Note_off_c, 0, 70, 64
2, 200320, Note_on_c, 0, 79, 89
2, 200380, Note_off_c, 0, 79, 64
2, 200384, Note_on_c, 0, 88, 89
2, 200444, Note_off_c, 0, 88, 64
2, 200448, Note_on_c, 0, 69, 89
2, 200508, Note_off_c, 0, 69, 64
2, 200512, Note_on_c, 0, 79, 89
2, 200572, Note_off_c, 0, 79, 64
2, 200576, Note_on_c, 0, 88, 89
2, 200636, Note_off_c, 0, 88, 64
2, 200640, Note_on_c, 0, 88, 89
2, 200700, Note_off_c, 0, 88, 64
2, 200704, Note_on_c, 0, 88, 89
2, 200764, Note_off_c, 0, 88, 64
2, 200768, Note_on_c, 0, 88, 89
2, 200828, Note_off_c, 0, 88, 64
2, 200832, Note_on_c, 0, 88, 89
2, 200892, Note_off_c, 0, 88, 64
2, 200896, Note_on_c, 0, 86, 89
2, 200956, Note_off_c, 0, 86, 64
2, 200960, Note_on_c, 0, 85, 89
2, 201020, Note_off_c, 0, 85, 64
2, 201024, Note_on_c, 0, 83, 89
2, 201084, Note_off_c, 0, 83, 64
2, 201088, Note_on_c, 0, 81, 89
2, 201148, Note_off_c, 0, 81, 64
2, 201152, Note_on_c, 0, 79, 89
2, 201212, Note_off_c, 0, 79, 64
2, 201216, Note_on_c, 0, 69, 89
2, 201276, Note_off_c, 0, 69, 64
2, 201280, Note_on_c, 0, 78, 89
2, 201340, Note_off_c, 0, 78, 64
2, 201344, Note_on_c, 0, 86, 89
2, 201404, Note_off_c, 0, 86, 64
2, 201408, Note_on_c, 0, 69, 89
2, 201468, Note_off_c, 0, 69, 64
2, 201472, Note_on_c, 0, 79, 89
2, 201532, Note_off_c, 0, 79, 64
2, 201536, Note_on_c, 0, 88, 89
2, 201596, Note_off_c, 0, 88, 64
2, 201600, Note_on_c, 0, 69, 89
2, 201660, Note_off_c, 0, 69, 64
2, 201664, Note_on_c, 0, 78, 89
2, 201724, Note_off_c, 0, 78, 64
2, 201728, Note_on_c, 0, 86, 89
2, 201788, Note_off_c, 0, 86, 64
2, 201792, Note_on_c, 0, 69, 89
2, 201852, Note_off_c, 0, 69, 64
2, 201856, Note_on_c, 0, 79, 89
2, 201916, Note_off_c, 0, 79, 64
2, 201920, Note_on_c, 0, 88, 89
2, 201980, Note_off_c, 0, 88, 64
2, 201984, Note_on_c, 0, 69, 89
2, 202044, Note_off_c, 0, 69, 64
2, 202048, Note_on_c, 0, 78, 89
2, 202108, Note_off_c, 0, 78, 64
2, 202112, Note_on_c, 0, 86, 89
2, 202172, Note_off_c, 0, 86, 64
2, 202176, Note_on_c, 0, 86, 89
2, 202236, Note_off_c, 0, 86, 64
2, 202240, Note_on_c, 0, 86, 89
2, 202300, Note_off_c, 0, 86, 64
2, 202304, Note_on_c, 0, 86, 89
2, 202364, Note_off_c, 0, 86, 64
2, 202368, Note_on_c, 0, 86, 89
2, 202428, Note_off_c, 0, 86, 64
2, 202432, Note_on_c, 0, 85, 89
2, 202492, Note_off_c, 0, 85, 64
2, 202496, Note_on_c, 0, 83, 89
2, 202556, Note_off_c, 0, 83, 64
2, 202560, Note_on_c, 0, 81, 89
2, 202620, Note_off_c, 0, 81, 64
2, 202624, Note_on_c, 0, 79, 89
2, 202684, Note_off_c, 0, 79, 64
2, 202688, Note_on_c, 0, 78, 89
2, 202748, Note_off_c, 0, 78, 64
2, 202752, Note_on_c, 0, 69, 61
2, 202812, Note_off_c, 0, 69, 64
2, 202816, Note_on_c, 0, 79, 61
2, 202876, Note_off_c, 0, 79, 64
2, 202880, Note_on_c, 0, 88, 61
2, 202940, Note_off_c, 0, 88, 64
2, 202944, Note_on_c, 0, 70, 61
2, 203004, Note_off_c, 0, 70, 64
2, 203008, Note_on_c, 0, 79, 61
2, 203068, Note_off_c, 0, 79, 64
2, 203072, Note_on_c, 0, 88, 61
2, 203132, Note_off_c, 0, 88, 64
2, 203136, Note_on_c, 0, 69, 61
2, 203196, Note_off_c, 0, 69, 64
2, 203200, Note_on_c, 0, 79, 61
2, 203260, Note_off_c, 0, 79, 64
2, 203264, Note_on_c, 0, 88, 61
2, 203324, Note_off_c, 0, 88, 64
2, 203328, Note_on_c, 0, 70, 61
2, 203388, Note_off_c, 0, 70, 64
2, 203392, Note_on_c, 0, 79, 61
2, 203452, Note_off_c, 0, 79, 64
2, 203456, Note_on_c, 0, 88, 61
2, 203516, Note_off_c, 0, 88, 64
2, 203520, Note_on_c, 0, 69, 61
2, 203580, Note_off_c, 0, 69, 64
2, 203584, Note_on_c, 0, 79, 61
2, 203644, Note_off_c, 0, 79, 64
2, 203648, Note_on_c, 0, 88, 61
2, 203708, Note_off_c, 0, 88, 64
2, 203712, Note_on_c, 0, 88, 61
2, 203772, Note_off_c, 0, 88, 64
2, 203776, Note_on_c, 0, 88, 61
2, 203836, Note_off_c, 0, 88, 64
2, 203840, Note_on_c, 0, 88, 61
2, 203900, Note_off_c, 0, 88, 64
2, 203904, Note_on_c, 0, 88, 61
2, 203964, Note_off_c, 0, 88, 64
2, 203968, Note_on_c, 0, 86, 61
2, 204028, Note_off_c, 0, 86, 64
2, 204032, Note_on_c, 0, 85, 61
2, 204092, Note_off_c, 0, 85, 64
2, 204096, Note_on_c, 0, 83, 61
2, 204156, Note_off_c, 0, 83, 64
2, 204160, Note_on_c, 0, 81, 61
2, 204220, Note_off_c, 0, 81, 64
2, 204224, Note_on_c, 0, 79, 61
2, 204284, Note_off_c, 0, 79, 64
2, 204288, Note_on_c, 0, 69, 62
2, 204348, Note_off_c, 0, 69, 64
2, 204352, Note_on_c, 0, 78, 62
2, 204412, Note_off_c, 0, 78, 64
2, 204416, Note_on_c, 0, 86, 63
2, 204476, Note_off_c, 0, 86, 64
2, 204480, Note_on_c, 0, 69, 66
2, 204540, Note_off_c, 0, 69, 64
2, 204544, Note_on_c, 0, 79, 67
2, 204604, Note_off_c, 0, 79, 64
2, 204608, Note_on_c, 0, 88, 67
2, 204668, Note_off_c, 0, 88, 64
2, 204672, Note_on_c, 0, 69, 68
2, 204732, Note_off_c, 0, 69, 64
2, 204736, Note_on_c, 0, 78, 69
2, 204796, Note_off_c, 0, 78, 64
2, 204800, Note_on_c, 0, 86, 72
2, 204860, Note_off_c, 0, 86, 64
2, 204864, Note_on_c, 0, 69, 74
2, 204924, Note_off_c, 0, 69, 64
2, 204928, Note_on_c, 0, 79, 74
2, 204988, Note_off_c, 0, 79, 64
2, 204992, Note_on_c, 0, 88, 77
2, 205052, Note_off_c, 0, 88, 64
2, 205056, Note_on_c, 0, 86, 78
2, 205116, Note_off_c, 0, 86, 64
2, 205120, Note_on_c, 0, 86, 79
2, 205180, Note_off_c, 0, 86, 64
2, 205184, Note_on_c, 0, 85, 80
2, 205244, Note_off_c, 0, 85, 64
2, 205248, Note_on_c, 0, 86, 80
2, 205308, Note_off_c, 0, 86, 64
2, 205312, Note_on_c, 0, 81, 82
2, 205372, Note_off_c, 0, 81, 64
2, 205376, Note_on_c, 0, 78, 83
2, 205436, Note_off_c, 0, 78, 64
2, 205440, Note_on_c, 0, 74, 84
2, 205500, Note_off_c, 0, 74, 64
2, 205504, Note_on_c, 0, 86, 85
2, 205564, Note_off_c, 0, 86, 64
2, 205568, Note_on_c, 0, 85, 85
2, 205628, Note_off_c, 0, 85, 64
2, 205632, Note_on_c, 0, 86, 88
2, 205692, Note_off_c, 0, 86, 64
2, 205696, Note_on_c, 0, 85, 89
2, 205756, Note_off_c, 0, 85, 64
2, 205760, Note_on_c, 0, 81, 91
2, 205820, Note_off_c, 0, 81, 64
2, 205824, Note_on_c, 0, 67, 89
2, 205884, Note_off_c, 0, 67, 64
2, 205888, Note_on_c, 0, 74, 89
2, 205948, Note_off_c, 0, 74, 64
2, 205952, Note_on_c, 0, 83, 89
2, 206012, Note_off_c, 0, 83, 64
2, 206016, Note_on_c, 0, 66, 89
2, 206076, Note_off_c, 0, 66, 64
2, 206080, Note_on_c, 0, 74, 89
2, 206140, Note_off_c, 0, 74, 64
2, 206144, Note_on_c, 0, 84, 89
2, 206204, Note_off_c, 0, 84, 64
2, 206208, Note_on_c, 0, 67, 89
2, 206268, Note_off_c, 0, 67, 64
2, 206272, Note_on_c, 0, 74, 89
2, 206332, Note_off_c, 0, 74, 64
2, 206336, Note_on_c, 0, 83, 89
2, 206396, Note_off_c, 0, 83, 64
2, 206400, Note_on_c, 0, 68, 89
2, 206460, Note_off_c, 0, 68, 64
2, 206464, Note_on_c, 0, 77, 89
2, 206524, Note_off_c, 0, 77, 64
2, 206528, Note_on_c, 0, 86, 89
2, 206588, Note_off_c, 0, 86, 64
2, 206592, Note_on_c, 0, 69, 89
2, 206652, Note_off_c, 0, 69, 64
2, 206656, Note_on_c, 0, 76, 89
2, 206716, Note_off_c, 0, 76, 64
2, 206720, Note_on_c, 0, 84, 89
2, 206780, Note_off_c, 0, 84, 64
2, 206784, Note_on_c, 0, 70, 89
2, 206844, Note_off_c, 0, 70, 64
2, 206848, Note_on_c, 0, 79, 89
2, 206908, Note_off_c, 0, 79, 64
2, 206912, Note_on_c, 0, 88, 89
2, 206972, Note_off_c, 0, 88, 64
2, 206976, Note_on_c, 0, 71, 89
2, 207036, Note_off_c, 0, 71, 64
2, 207040, Note_on_c, 0, 77, 89
2, 207100, Note_off_c, 0, 77, 64
2, 207104, Note_on_c, 0, 86, 89
2, 207164, Note_off_c, 0, 86, 64
2, 207168, Note_on_c, 0, 73, 89
2, 207228, Note_off_c, 0, 73, 64
2, 207232, Note_on_c, 0, 82, 89
2, 207292, Note_off_c, 0, 82, 64
2, 207296, Note_on_c, 0, 91, 89
2, 207356, Note_off_c, 0, 91, 64
2, 207360, Note_on_c, 0, 89, 91
2, 207360, Note_on_c, 0, 82, 89
2, 207360, Note_on_c, 0, 74, 89
2, 207420, Note_off_c, 0, 89, 64
2, 207420, Note_off_c, 0, 82, 64
2, 207420, Note_off_c, 0, 74, 64
2, 207424, Note_on_c, 0, 89, 89
2, 207484, Note_off_c, 0, 89, 64
2, 207488, Note_on_c, 0, 88, 88
2, 207548, Note_off_c, 0, 88, 64
2, 207552, Note_on_c, 0, 89, 88
2, 207612, Note_off_c, 0, 89, 64
2, 207616, Note_on_c, 0, 86, 85
2, 207676, Note_off_c, 0, 86, 64
2, 207680, Note_on_c, 0, 82, 85
2, 207740, Note_off_c, 0, 82, 64
2, 207744, Note_on_c, 0, 77, 84
2, 207804, Note_off_c, 0, 77, 64
2, 207808, Note_on_c, 0, 77, 83
2, 207868, Note_off_c, 0, 77, 64
2, 207872, Note_on_c, 0, 76, 82
2, 207932, Note_off_c, 0, 76, 64
2, 207936, Note_on_c, 0, 77, 80
2, 207996, Note_off_c, 0, 77, 64
2, 208000, Note_on_c, 0, 74, 80
2, 208060, Note_off_c, 0, 74, 64
2, 208064, Note_on_c, 0, 70, 79
2, 208124, Note_off_c, 0, 70, 64
2, 208128, Note_on_c, 0, 65, 78
2, 208188, Note_off_c, 0, 65, 64
2, 208192, Note_on_c, 0, 65, 77
2, 208252, Note_off_c, 0, 65, 64
2, 208256, Note_on_c, 0, 64, 74
2, 208316, Note_off_c, 0, 64, 64
2, 208320, Note_on_c, 0, 65, 74
2, 208380, Note_off_c, 0, 65, 64
2, 208384, Note_on_c, 0, 62, 72
2, 208444, Note_off_c, 0, 62, 64
2, 208448, Note_on_c, 0, 58, 69
2, 208508, Note_off_c, 0, 58, 64
2, 208512, Note_on_c, 0, 62, 68
2, 208572, Note_off_c, 0, 62, 64
2, 208576, Note_on_c, 0, 62, 67
2, 208636, Note_off_c, 0, 62, 64
2, 208640, Note_on_c, 0, 61, 67
2, 208700, Note_off_c, 0, 61, 64
2, 208704, Note_on_c, 0, 62, 66
2, 208764, Note_off_c, 0, 62, 64
2, 208768, Note_on_c, 0, 58, 63
2, 208828, Note_off_c, 0, 58, 64
2, 208832, Note_on_c, 0, 56, 62
2, 208892, Note_off_c, 0, 56, 64
2, 208896, Note_on_c, 0, 56, 61
2, 208956, Note_off_c, 0, 56, 64
2, 208960, Note_on_c, 0, 58, 62
2, 209020, Note_off_c, 0, 58, 64
2, 209024, Note_on_c, 0, 62, 63
2, 209084, Note_off_c, 0, 62, 64
2, 209088, Note_on_c, 0, 61, 66
2, 209148, Note_off_c, 0, 61, 64
2, 209152, Note_on_c, 0, 62, 67
2, 209212, Note_off_c, 0, 62, 64
2, 209216, Note_on_c, 0, 62, 67
2, 209276, Note_off_c, 0, 62, 64
2, 209280, Note_on_c, 0, 58, 68
2, 209340, Note_off_c, 0, 58, 64
2, 209344, Note_on_c, 0, 62, 69
2, 209404, Note_off_c, 0, 62, 64
2, 209408, Note_on_c, 0, 65, 72
2, 209468, Note_off_c, 0, 65, 64
2, 209472, Note_on_c, 0, 64, 74
2, 209532, Note_off_c, 0, 64, 64
2, 209536, Note_on_c, 0, 65, 74
2, 209596, Note_off_c, 0, 65, 64
2, 209600, Note_on_c, 0, 65, 77
2, 209660, Note_off_c, 0, 65, 64
2, 209664, Note_on_c, 0, 62, 78
2, 209724, Note_off_c, 0, 62, 64
2, 209728, Note_on_c, 0, 69, 79
2, 209788, Note_off_c, 0, 69, 64
2, 209792, Note_on_c, 0, 69, 80
2, 209852, Note_off_c, 0, 69, 64
2, 209856, Note_on_c, 0, 67, 80
2, 209916, Note_off_c, 0, 67, 64
2, 209920, Note_on_c, 0, 71, 82
2, 209980, Note_off_c, 0, 71, 64
2, 209984, Note_on_c, 0, 71, 83
2, 210044, Note_off_c, 0, 71, 64
2, 210048, Note_on_c, 0, 73, 84
2, 210048, Note_on_c, 0, 61, 84
2, 210140, Note_off_c, 0, 73, 64
2, 210140, Note_off_c, 0, 61, 64
2, 210144, Note_on_c, 0, 76, 88
2, 210144, Note_on_c, 0, 64, 88
2, 210236, Note_off_c, 0, 76, 64
2, 210236, Note_off_c, 0, 64, 64
2, 210240, Note_on_c, 0, 67, 89
2, 210240, Note_on_c, 0, 79, 89
2, 210332, Note_off_c, 0, 67, 64
2, 210332, Note_off_c, 0, 79, 64
2, 210336, Note_on_c, 0, 83, 91
2, 210336, Note_on_c, 0, 71, 91
2, 210428, Note_off_c, 0, 83, 64
2, 210428, Note_off_c, 0, 71, 64
2, 210432, Note_on_c, 0, 86, 94
2, 210432, Note_on_c, 0, 74, 94
2, 210608, Note_on_c, 0, 78, 67
2, 210620, Note_off_c, 0, 86, 64
2, 210620, Note_off_c, 0, 74, 64
2, 210624, Note_on_c, 0, 90, 95
2, 210796, Note_off_c, 0, 78, 64
2, 210800, Note_on_c, 0, 79, 67
2, 210812, Note_off_c, 0, 90, 64
2, 210816, Note_on_c, 0, 91, 96
2, 210988, Note_off_c, 0, 79, 64
2, 211004, Note_off_c, 0, 91, 64
2, 211008, Note_on_c, 0, 93, 96
2, 211008, Note_on_c, 0, 81, 67
2, 211196, Note_off_c, 0, 93, 64
2, 211196, Note_off_c, 0, 81, 64
2, 211200, Note_on_c, 0, 94, 99
2, 211292, Note_off_c, 0, 94, 64
2, 211296, Note_on_c, 0, 95, 100
2, 211388, Note_off_c, 0, 95, 64
2, 211392, Note_on_c, 0, 95, 99
2, 211484, Note_off_c, 0, 95, 64
2, 211488, Note_on_c, 0, 90, 96
2, 211580, Note_off_c, 0, 90, 64
2, 211584, Note_on_c, 0, 90, 96
2, 211676, Note_off_c, 0, 90, 64
2, 211680, Note_on_c, 0, 91, 94
2, 211772, Note_off_c, 0, 91, 64
2, 211776, Note_on_c, 0, 91, 93
2, 211868, Note_off_c, 0, 91, 64
2, 211872, Note_on_c, 0, 87, 93
2, 211964, Note_off_c, 0, 87, 64
2, 211968, Note_on_c, 0, 87, 89
2, 212060, Note_off_c, 0, 87, 64
2, 212064, Note_on_c, 0, 88, 89
2, 212156, Note_off_c, 0, 88, 64
2, 212160, Note_on_c, 0, 88, 89
2, 212252, Note_off_c, 0, 88, 64
2, 212256, Note_on_c, 0, 82, 89
2, 212348, Note_off_c, 0, 82, 64
2, 212352, Note_on_c, 0, 82, 89
2, 212444, Note_off_c, 0, 82, 64
2, 212448, Note_on_c, 0, 83, 89
2, 212540, Note_off_c, 0, 83, 64
2, 212544, Note_on_c, 0, 83, 89
2, 212636, Note_off_c, 0, 83, 64
2, 212640, Note_on_c, 0, 78, 89
2, 212732, Note_off_c, 0, 78, 64
2, 212736, Note_on_c, 0, 78, 89
2, 212828, Note_off_c, 0, 78, 64
2, 212832, Note_on_c, 0, 79, 89
2, 212924, Note_off_c, 0, 79, 64
2, 212928, Note_on_c, 0, 79, 89
2, 213020, Note_off_c, 0, 79, 64
2, 213024, Note_on_c, 0, 75, 89
2, 213116, Note_off_c, 0, 75, 64
2, 213120, Note_on_c, 0, 75, 89
2, 213212, Note_off_c, 0, 75, 64
2, 213216, Note_on_c, 0, 76, 89
2, 213308, Note_off_c, 0, 76, 64
2, 213312, Note_on_c, 0, 76, 89
2, 213404, Note_off_c, 0, 76, 64
2, 213408, Note_on_c, 0, 70, 89
2, 213500, Note_off_c, 0, 70, 64
2, 213504, Note_on_c, 0, 69, 89
2, 213504, Note_on_c, 0, 64, 89
2, 213504, Note_on_c, 0, 57, 89
2, 213596, Note_off_c, 0, 69, 64
2, 213596, Note_off_c, 0, 64, 64
2, 213596, Note_off_c, 0, 57, 64
2, 213600, Note_on_c, 0, 69, 89
2, 213600, Note_on_c, 0, 64, 89
2, 213600, Note_on_c, 0, 57, 89
2, 213692, Note_off_c, 0, 69, 64
2, 213692, Note_off_c, 0, 64, 64
2, 213692, Note_off_c, 0, 57, 64
2, 213696, Note_on_c, 0, 76, 89
2, 213696, Note_on_c, 0, 73, 89
2, 213884, Note_off_c, 0, 76, 64
2, 213884, Note_off_c, 0, 73, 64
2, 213888, Note_on_c, 0, 69, 89
2, 213888, Note_on_c, 0, 64, 89
2, 213980, Note_off_c, 0, 69, 64
2, 213980, Note_off_c, 0, 64, 64
2, 213984, Note_on_c, 0, 69, 89
2, 213984, Note_on_c, 0, 64, 89
2, 214076, Note_off_c, 0, 69, 64
2, 214076, Note_off_c, 0, 64, 64
2, 214080, Note_on_c, 0, 78, 89
2, 214080, Note_on_c, 0, 75, 89
2, 214268, Note_off_c, 0, 78, 64
2, 214268, Note_off_c, 0, 75, 64
2, 214272, Note_on_c, 0, 69, 89
2, 214272, Note_on_c, 0, 66, 89
2, 214364, Note_off_c, 0, 69, 64
2, 214364, Note_off_c, 0, 66, 64
2, 214368, Note_on_c, 0, 69, 89
2, 214368, Note_on_c, 0, 66, 89
2, 214460, Note_off_c, 0, 69, 64
2, 214460, Note_off_c, 0, 66, 64
2, 214464, Note_on_c, 0, 79, 89
2, 214464, Note_on_c, 0, 76, 89
2, 214556, Note_off_c, 0, 79, 64
2, 214556, Note_off_c, 0, 76, 64
2, 214560, Note_on_c, 0, 75, 89
2, 214560, Note_on_c, 0, 78, 89
2, 214652, Note_off_c, 0, 75, 64
2, 214652, Note_off_c, 0, 78, 64
2, 214656, Note_on_c, 0, 73, 89
2, 214656, Note_on_c, 0, 76, 89
2, 215036, Note_off_c, 0, 73, 64
2, 215036, Note_off_c, 0, 76, 64
2, 215040, Note_on_c, 0, 76, 89
2, 215040, Note_on_c, 0, 69, 89
2, 215132, Note_off_c, 0, 76, 64
2, 215132, Note_off_c, 0, 69, 62
2, 215136, Note_on_c, 0, 76, 89
2, 215136, Note_on_c, 0, 69, 89
2, 215216, Note_on_c, 0, 88, 89
2, 215228, Note_off_c, 0, 76, 64
2, 215228, Note_off_c, 0, 69, 64
2, 215232, Note_on_c, 0, 76, 89
2, 215232, Note_on_c, 0, 73, 89
2, 215404, Note_off_c, 0, 88, 64
2, 215420, Note_off_c, 0, 76, 64
2, 215420, Note_off_c, 0, 73, 64
2, 215424, Note_on_c, 0, 76, 89
2, 215424, Note_on_c, 0, 69, 89
2, 215516, Note_off_c, 0, 76, 64
2, 215516, Note_off_c, 0, 69, 64
2, 215520, Note_on_c, 0, 76, 89
2, 215520, Note_on_c, 0, 69, 89
2, 215612, Note_off_c, 0, 76, 64
2, 215612, Note_off_c, 0, 69, 64
2, 215616, Note_on_c, 0, 75, 89
2, 215616, Note_on_c, 0, 78, 89
2, 215616, Note_on_c, 0, 90, 89
2, 215804, Note_off_c, 0, 75, 64
2, 215804, Note_off_c, 0, 78, 64
2, 215804, Note_off_c, 0, 90, 64
2, 215808, Note_on_c, 0, 78, 89
2, 215808, Note_on_c, 0, 71, 89
2, 215900, Note_off_c, 0, 78, 64
2, 215900, Note_off_c, 0, 71, 64
2, 215904, Note_on_c, 0, 78, 89
2, 215904, Note_on_c, 0, 71, 89
2, 215996, Note_off_c, 0, 78, 64
2, 215996, Note_off_c, 0, 71, 64
2, 216000, Note_on_c, 0, 79, 89
2, 216000, Note_on_c, 0, 76, 89
2, 216000, Note_on_c, 0, 91, 89
2, 216092, Note_off_c, 0, 79, 64
2, 216092, Note_off_c, 0, 76, 64
2, 216092, Note_off_c, 0, 91, 64
2, 216096, Note_on_c, 0, 78, 89
2, 216096, Note_on_c, 0, 75, 89
2, 216096, Note_on_c, 0, 90, 89
2, 216188, Note_off_c, 0, 78, 64
2, 216188, Note_off_c, 0, 75, 64
2, 216188, Note_off_c, 0, 90, 64
2, 216192, Note_on_c, 0, 76, 89
2, 216192, Note_on_c, 0, 73, 89
2, 216192, Note_on_c, 0, 88, 89
2, 216572, Note_off_c, 0, 76, 64
2, 216572, Note_off_c, 0, 73, 64
2, 216572, Note_off_c, 0, 88, 64
2, 216576, Note_on_c, 0, 57, 80
2, 216576, Note_on_c, 0, 69, 80
2, 216620, Note_off_c, 0, 57, 64
2, 216620, Note_off_c, 0, 69, 64
2, 216624, Note_on_c, 0, 61, 68
2, 216668, Note_off_c, 0, 61, 64
2, 216672, Note_on_c, 0, 64, 68
2, 216716, Note_off_c, 0, 64, 64
2, 216720, Note_on_c, 0, 62, 69
2, 216764, Note_off_c, 0, 62, 64
2, 216768, Note_on_c, 0, 61, 69
2, 216812, Note_off_c, 0, 61, 64
2, 216816, Note_on_c, 0, 64, 72
2, 216860, Note_off_c, 0, 64, 64
2, 216864, Note_on_c, 0, 67, 72
2, 216908, Note_off_c, 0, 67, 64
2, 216912, Note_on_c, 0, 66, 74
2, 216956, Note_off_c, 0, 66, 64
2, 216960, Note_on_c, 0, 64, 74
2, 217004, Note_off_c, 0, 64, 64
2, 217008, Note_on_c, 0, 69, 77
2, 217052, Note_off_c, 0, 69, 64
2, 217056, Note_on_c, 0, 73, 77
2, 217100, Note_off_c, 0, 73, 64
2, 217104, Note_on_c, 0, 71, 78
2, 217148, Note_off_c, 0, 71, 64
2, 217152, Note_on_c, 0, 69, 78
2, 217196, Note_off_c, 0, 69, 64
2, 217200, Note_on_c, 0, 73, 79
2, 217244, Note_off_c, 0, 73, 64
2, 217248, Note_on_c, 0, 76, 79
2, 217292, Note_off_c, 0, 76, 64
2, 217296, Note_on_c, 0, 74, 80
2, 217340, Note_off_c, 0, 74, 64
2, 217344, Note_on_c, 0, 73, 80
2, 217388, Note_off_c, 0, 73, 64
2, 217392, Note_on_c, 0, 76, 80
2, 217436, Note_off_c, 0, 76, 64
2, 217440, Note_on_c, 0, 79, 82
2, 217484, Note_off_c, 0, 79, 64
2, 217488, Note_on_c, 0, 78, 82
2, 217532, Note_off_c, 0, 78, 64
2, 217536, Note_on_c, 0, 76, 83
2, 217580, Note_off_c, 0, 76, 64
2, 217584, Note_on_c, 0, 81, 83
2, 217628, Note_off_c, 0, 81, 64
2, 217632, Note_on_c, 0, 85, 84
2, 217676, Note_off_c, 0, 85, 64
2, 217680, Note_on_c, 0, 83, 84
2, 217724, Note_off_c, 0, 83, 64
2, 217728, Note_on_c, 0, 81, 84
2, 217772, Note_off_c, 0, 81, 64
2, 217776, Note_on_c, 0, 85, 85
2, 217820, Note_off_c, 0, 85, 64
2, 217824, Note_on_c, 0, 88, 85
2, 217868, Note_off_c, 0, 88, 64
2, 217872, Note_on_c, 0, 86, 88
2, 217916, Note_off_c, 0, 86, 64
2, 217920, Note_on_c, 0, 85, 88
2, 217964, Note_off_c, 0, 85, 64
2, 217968, Note_on_c, 0, 88, 89
2, 218012, Note_off_c, 0, 88, 64
2, 218016, Note_on_c, 0, 91, 89
2, 218060, Note_off_c, 0, 91, 64
2, 218064, Note_on_c, 0, 90, 89
2, 218108, Note_off_c, 0, 90, 64
2, 218112, Note_on_c, 0, 88, 89
2, 218156, Note_off_c, 0, 88, 64
2, 218160, Note_on_c, 0, 91, 89
2, 218204, Note_off_c, 0, 91, 64
2, 218208, Note_on_c, 0, 95, 89
2, 218252, Note_off_c, 0, 95, 64
2, 218256, Note_on_c, 0, 93, 89
2, 218300, Note_off_c, 0, 93, 64
2, 218304, Note_on_c, 0, 91, 89
2, 218348, Note_off_c, 0, 91, 64
2, 218352, Note_on_c, 0, 90, 89
2, 218396, Note_off_c, 0, 90, 64
2, 218400, Note_on_c, 0, 88, 89
2, 218444, Note_off_c, 0, 88, 64
2, 218448, Note_on_c, 0, 86, 89
2, 218492, Note_off_c, 0, 86, 64
2, 218496, Note_on_c, 0, 85, 89
2, 218540, Note_off_c, 0, 85, 64
2, 218544, Note_on_c, 0, 88, 89
2, 218588, Note_off_c, 0, 88, 64
2, 218592, Note_on_c, 0, 91, 89
2, 218636, Note_off_c, 0, 91, 64
2, 218640, Note_on_c, 0, 90, 89
2, 218684, Note_off_c, 0, 90, 64
2, 218688, Note_on_c, 0, 88, 89
2, 218732, Note_off_c, 0, 88, 64
2, 218736, Note_on_c, 0, 86, 89
2, 218780, Note_off_c, 0, 86, 64
2, 218784, Note_on_c, 0, 85, 89
2, 218828, Note_off_c, 0, 85, 64
2, 218832, Note_on_c, 0, 83, 89
2, 218876, Note_off_c, 0, 83, 64
2, 218880, Note_on_c, 0, 81, 89
2, 218924, Note_off_c, 0, 81, 64
2, 218928, Note_on_c, 0, 82, 89
2, 218972, Note_off_c, 0, 82, 64
2, 218976, Note_on_c, 0, 83, 89
2, 219020, Note_off_c, 0, 83, 64
2, 219024, Note_on_c, 0, 84, 89
2, 219068, Note_off_c, 0, 84, 64
2, 219072, Note_on_c, 0, 85, 89
2, 219116, Note_off_c, 0, 85, 64
2, 219120, Note_on_c, 0, 86, 89
2, 219164, Note_off_c, 0, 86, 64
2, 219168, Note_on_c, 0, 87, 89
2, 219212, Note_off_c, 0, 87, 64
2, 219216, Note_on_c, 0, 88, 89
2, 219260, Note_off_c, 0, 88, 64
2, 219260, Control_c, 0, 1, 35
2, 219264, Note_on_c, 0, 79, 89
2, 219264, Note_on_c, 0, 88, 89
2, 219288, Note_off_c, 0, 88, 64
2, 219288, Note_on_c, 0, 90, 89
2, 219312, Note_off_c, 0, 90, 64
2, 219312, Note_on_c, 0, 88, 89
2, 219336, Note_off_c, 0, 88, 64
2, 219336, Note_on_c, 0, 90, 89
2, 219360, Note_off_c, 0, 90, 64
2, 219360, Note_on_c, 0, 88, 89
2, 219384, Note_off_c, 0, 88, 64
2, 219384, Note_on_c, 0, 90, 89
2, 219408, Note_off_c, 0, 90, 64
2, 219408, Note_on_c, 0, 88, 89
2, 219432, Note_off_c, 0, 88, 64
2, 219432, Note_on_c, 0, 90, 89
2, 219456, Note_off_c, 0, 90, 64
2, 219456, Note_on_c, 0, 88, 89
2, 219480, Note_off_c, 0, 88, 64
2, 219480, Note_on_c, 0, 90, 89
2, 219504, Note_off_c, 0, 90, 64
2, 219504, Note_on_c, 0, 88, 89
2, 219528, Note_off_c, 0, 88, 64
2, 219528, Note_on_c, 0, 90, 89
2, 219552, Note_off_c, 0, 90, 64
2, 219552, Note_on_c, 0, 88, 89
2, 219576, Note_off_c, 0, 88, 64
2, 219576, Note_on_c, 0, 90, 89
2, 219600, Note_off_c, 0, 90, 64
2, 219600, Note_on_c, 0, 88, 89
2, 219624, Note_off_c, 0, 88, 64
2, 219624, Note_on_c, 0, 90, 89
2, 219648, Note_on_c, 0, 88, 89
2, 219652, Note_off_c, 0, 90, 64
2, 219672, Note_off_c, 0, 88, 64
2, 219672, Note_on_c, 0, 90, 89
2, 219696, Note_off_c, 0, 90, 64
2, 219696, Note_on_c, 0, 88, 89
2, 219720, Note_off_c, 0, 88, 64
2, 219720, Note_on_c, 0, 90, 89
2, 219744, Note_off_c, 0, 90, 64
2, 219744, Note_on_c, 0, 88, 89
2, 219768, Note_off_c, 0, 88, 64
2, 219768, Note_on_c, 0, 90, 89
2, 219792, Note_off_c, 0, 90, 64
2, 219792, Note_on_c, 0, 88, 89
2, 219816, Note_off_c, 0, 88, 64
2, 219816, Note_on_c, 0, 90, 89
2, 219840, Note_off_c, 0, 90, 64
2, 219840, Note_on_c, 0, 88, 89
2, 219864, Note_off_c, 0, 88, 64
2, 219864, Note_on_c, 0, 90, 89
2, 219888, Note_off_c, 0, 90, 64
2, 219888, Note_on_c, 0, 88, 89
2, 219912, Note_off_c, 0, 88, 64
2, 219912, Note_on_c, 0, 90, 89
2, 219936, Note_off_c, 0, 90, 64
2, 219936, Note_on_c, 0, 88, 89
2, 219960, Note_off_c, 0, 88, 64
2, 219960, Note_on_c, 0, 90, 89
2, 219984, Note_off_c, 0, 90, 64
2, 219984, Note_on_c, 0, 88, 89
2, 220008, Note_off_c, 0, 88, 64
2, 220008, Note_on_c, 0, 90, 89
2, 220032, Note_off_c, 0, 90, 64
2, 220032, Note_on_c, 0, 88, 89
2, 220056, Note_off_c, 0, 88, 64
2, 220056, Note_on_c, 0, 90, 89
2, 220080, Note_off_c, 0, 90, 64
2, 220080, Note_on_c, 0, 88, 89
2, 220104, Note_off_c, 0, 88, 64
2, 220104, Note_on_c, 0, 90, 89
2, 220128, Note_off_c, 0, 90, 64
2, 220128, Note_on_c, 0, 88, 89
2, 220152, Note_off_c, 0, 88, 64
2, 220152, Note_on_c, 0, 90, 89
2, 220176, Note_off_c, 0, 90, 64
2, 220176, Note_on_c, 0, 88, 89
2, 220200, Note_off_c, 0, 88, 64
2, 220200, Note_on_c, 0, 90, 89
2, 220224, Note_off_c, 0, 90, 64
2, 220224, Note_on_c, 0, 88, 89
2, 220248, Note_off_c, 0, 88, 64
2, 220248, Note_on_c, 0, 90, 89
2, 220272, Note_off_c, 0, 90, 64
2, 220272, Note_on_c, 0, 88, 89
2, 220296, Note_off_c, 0, 88, 64
2, 220296, Note_on_c, 0, 90, 89
2, 220320, Note_off_c, 0, 90, 64
2, 220320, Note_on_c, 0, 88, 89
2, 220344, Note_off_c, 0, 88, 64
2, 220344, Note_on_c, 0, 90, 89
2, 220368, Note_off_c, 0, 90, 64
2, 220368, Note_on_c, 0, 88, 89
2, 220392, Note_off_c, 0, 88, 64
2, 220392, Note_on_c, 0, 90, 89
2, 220416, Note_off_c, 0, 90, 64
2, 220416, Note_on_c, 0, 88, 89
2, 220440, Note_off_c, 0, 88, 64
2, 220440, Note_on_c, 0, 90, 89
2, 220464, Note_off_c, 0, 90, 64
2, 220464, Note_on_c, 0, 88, 89
2, 220488, Note_off_c, 0, 88, 64
2, 220488, Note_on_c, 0, 90, 89
2, 220512, Note_off_c, 0, 90, 64
2, 220512, Note_on_c, 0, 88, 89
2, 220536, Note_off_c, 0, 88, 64
2, 220536, Note_on_c, 0, 90, 89
2, 220560, Note_off_c, 0, 90, 64
2, 220560, Note_on_c, 0, 88, 89
2, 220584, Note_off_c, 0, 88, 64
2, 220584, Note_on_c, 0, 90, 89
2, 220608, Note_off_c, 0, 90, 64
2, 220608, Note_on_c, 0, 88, 89
2, 220632, Note_off_c, 0, 88, 64
2, 220632, Note_on_c, 0, 90, 89
2, 220656, Note_off_c, 0, 90, 64
2, 220656, Note_on_c, 0, 88, 89
2, 220680, Note_off_c, 0, 88, 64
2, 220680, Note_on_c, 0, 90, 89
2, 220704, Note_off_c, 0, 90, 64
2, 220704, Note_on_c, 0, 88, 89
2, 220728, Note_off_c, 0, 88, 64
2, 220728, Note_on_c, 0, 90, 89
2, 220752, Note_off_c, 0, 90, 64
2, 220752, Note_on_c, 0, 88, 89
2, 220776, Note_off_c, 0, 88, 64
2, 220776, Note_on_c, 0, 90, 89
2, 220800, Note_off_c, 0, 90, 64
2, 220800, Note_on_c, 0, 88, 89
2, 220824, Note_off_c, 0, 88, 64
2, 220824, Note_on_c, 0, 90, 89
2, 220848, Note_off_c, 0, 90, 64
2, 220848, Note_on_c, 0, 88, 89
2, 220872, Note_off_c, 0, 88, 64
2, 220872, Note_on_c, 0, 90, 89
2, 220896, Note_off_c, 0, 90, 64
2, 220896, Note_on_c, 0, 88, 89
2, 220920, Note_off_c, 0, 88, 64
2, 220920, Note_on_c, 0, 90, 89
2, 220944, Note_off_c, 0, 90, 64
2, 220944, Note_on_c, 0, 88, 89
2, 220968, Note_off_c, 0, 88, 64
2, 220968, Note_on_c, 0, 90, 89
2, 220992, Note_off_c, 0, 90, 64
2, 220992, Note_on_c, 0, 86, 89
2, 220992, Note_on_c, 0, 79, 89
2, 221084, Note_off_c, 0, 79, 64
2, 221084, Note_off_c, 0, 86, 64
2, 221088, Note_on_c, 0, 88, 93
2, 221088, Note_on_c, 0, 79, 93
2, 221180, Note_off_c, 0, 79, 64
2, 221180, Note_off_c, 0, 88, 64
2, 221180, Note_off_c, 0, 79, 64
2, 221184, Note_on_c, 0, 86, 93
2, 221184, Note_on_c, 0, 78, 93
2, 221756, Note_off_c, 0, 86, 64
2, 221756, Note_off_c, 0, 78, 64
2, 221756, End_track
3, 0, Start_track
3, 0, Title_t, "Concerto  #2"
3, 0, Control_c, 1, 0, 0
3, 0, Program_c, 1, 0
3, 0, Control_c, 1, 7, 96
3, 0, Control_c, 1, 10, 46
3, 0, Control_c, 1, 91, 62
3, 0, Control_c, 1, 93, 37
3, 0, Key_signature, 2, "major"
3, 0, Control_c, 1, 121, 127
3, 96, Pitch_bend_c, 1, 0
3, 192, Control_c, 1, 10, 43
3, 384, Control_c, 1, 91, 63
3, 480, Control_c, 1, 93, 40
3, 576, Program_c, 1, 0
3, 1536, Note_on_c, 1, 74, 82
3, 1916, Note_off_c, 1, 74, 64
3, 1920, Note_on_c, 1, 69, 82
3, 2204, Note_off_c, 1, 69, 64
3, 2208, Note_on_c, 1, 69, 82
3, 2300, Note_off_c, 1, 69, 64
3, 2304, Note_on_c, 1, 66, 82
3, 2492, Note_off_c, 1, 66, 64
3, 2496, Note_on_c, 1, 62, 82
3, 2684, Note_off_c, 1, 62, 64
3, 2880, Note_on_c, 1, 62, 61
3, 2940, Note_off_c, 1, 62, 64
3, 2944, Note_on_c, 1, 64, 61
3, 3004, Note_off_c, 1, 64, 64
3, 3008, Note_on_c, 1, 62, 61
3, 3068, Note_off_c, 1, 62, 64
3, 3072, Note_on_c, 1, 67, 61
3, 3260, Note_off_c, 1, 67, 64
3, 3648, Note_on_c, 1, 62, 61
3, 3708, Note_off_c, 1, 62, 64
3, 3712, Note_on_c, 1, 64, 61
3, 3772, Note_off_c, 1, 64, 64
3, 3776, Note_on_c, 1, 62, 61
3, 3836, Note_off_c, 1, 62, 64
3, 3840, Note_on_c, 1, 71, 61
3, 4028, Note_off_c, 1, 71, 64
3, 4416, Note_on_c, 1, 74, 82
3, 4476, Note_off_c, 1, 74, 64
3, 4480, Note_on_c, 1, 73, 82
3, 4540, Note_off_c, 1, 73, 64
3, 4544, Note_on_c, 1, 71, 82
3, 4604, Note_off_c, 1, 71, 64
3, 4608, Note_on_c, 1, 69, 82
3, 4668, Note_off_c, 1, 69, 64
3, 4672, Note_on_c, 1, 74, 82
3, 4732, Note_off_c, 1, 74, 64
3, 4736, Note_on_c, 1, 73, 82
3, 4796, Note_off_c, 1, 73, 64
3, 4800, Note_on_c, 1, 74, 82
3, 4860, Note_off_c, 1, 74, 64
3, 4864, Note_on_c, 1, 76, 82
3, 4864, Note_on_c, 1, 73, 82
3, 4924, Note_off_c, 1, 76, 64
3, 4924, Note_off_c, 1, 73, 64
3, 4928, Note_on_c, 1, 78, 82
3, 4928, Note_on_c, 1, 74, 82
3, 4988, Note_off_c, 1, 78, 64
3, 4988, Note_off_c, 1, 74, 64
3, 4992, Note_on_c, 1, 79, 82
3, 4992, Note_on_c, 1, 76, 82
3, 5180, Note_off_c, 1, 79, 64
3, 5180, Note_off_c, 1, 76, 64
3, 5184, Note_on_c, 1, 79, 82
3, 5184, Note_on_c, 1, 76, 82
3, 5372, Note_off_c, 1, 79, 64
3, 5372, Note_off_c, 1, 76, 64
3, 5376, Note_on_c, 1, 76, 82
3, 5376, Note_on_c, 1, 79, 82
3, 5408, Note_off_c, 1, 79, 64
3, 5408, Note_on_c, 1, 81, 82
3, 5440, Note_off_c, 1, 81, 64
3, 5440, Note_on_c, 1, 79, 82
3, 5472, Note_off_c, 1, 79, 64
3, 5472, Note_on_c, 1, 81, 82
3, 5504, Note_off_c, 1, 81, 64
3, 5504, Note_on_c, 1, 79, 82
3, 5536, Note_off_c, 1, 79, 64
3, 5536, Note_on_c, 1, 81, 82
3, 5564, Note_off_c, 1, 76, 64
3, 5568, Note_off_c, 1, 81, 64
3, 5568, Note_on_c, 1, 78, 82
3, 5568, Note_on_c, 1, 74, 82
3, 5756, Note_off_c, 1, 78, 64
3, 5756, Note_off_c, 1, 74, 64
3, 5952, Note_on_c, 1, 62, 61
3, 6012, Note_off_c, 1, 62, 64
3, 6016, Note_on_c, 1, 64, 61
3, 6076, Note_off_c, 1, 64, 64
3, 6080, Note_on_c, 1, 62, 61
3, 6140, Note_off_c, 1, 62, 64
3, 6144, Note_on_c, 1, 67, 61
3, 6332, Note_off_c, 1, 67, 64
3, 6336, Note_on_c, 1, 62, 61
3, 6396, Note_off_c, 1, 62, 64
3, 6400, Note_on_c, 1, 64, 61
3, 6460, Note_off_c, 1, 64, 64
3, 6464, Note_on_c, 1, 62, 61
3, 6524, Note_off_c, 1, 62, 64
3, 6528, Note_on_c, 1, 67, 61
3, 6716, Note_off_c, 1, 67, 64
3, 6720, Note_on_c, 1, 62, 61
3, 6780, Note_off_c, 1, 62, 64
3, 6784, Note_on_c, 1, 64, 61
3, 6844, Note_off_c, 1, 64, 64
3, 6848, Note_on_c, 1, 62, 61
3, 6908, Note_off_c, 1, 62, 64
3, 6912, Note_on_c, 1, 71, 61
3, 7100, Note_off_c, 1, 71, 64
3, 7104, Note_on_c, 1, 62, 61
3, 7164, Note_off_c, 1, 62, 64
3, 7168, Note_on_c, 1, 64, 61
3, 7228, Note_off_c, 1, 64, 64
3, 7232, Note_on_c, 1, 62, 61
3, 7292, Note_off_c, 1, 62, 64
3, 7296, Note_on_c, 1, 71, 82
3, 7484, Note_off_c, 1, 71, 64
3, 7488, Note_on_c, 1, 74, 82
3, 7548, Note_off_c, 1, 74, 64
3, 7552, Note_on_c, 1, 73, 82
3, 7612, Note_off_c, 1, 73, 64
3, 7616, Note_on_c, 1, 71, 82
3, 7676, Note_off_c, 1, 71, 64
3, 7680, Note_on_c, 1, 69, 82
3, 7740, Note_off_c, 1, 69, 64
3, 7744, Note_on_c, 1, 74, 82
3, 7804, Note_off_c, 1, 74, 64
3, 7808, Note_on_c, 1, 73, 82
3, 7868, Note_off_c, 1, 73, 64
3, 7872, Note_on_c, 1, 74, 82
3, 7932, Note_off_c, 1, 74, 64
3, 7936, Note_on_c, 1, 76, 82
3, 7936, Note_on_c, 1, 73, 82
3, 7996, Note_off_c, 1, 76, 64
3, 7996, Note_off_c, 1, 73, 64
3, 8000, Note_on_c, 1, 78, 82
3, 8000, Note_on_c, 1, 74, 82
3, 8060, Note_off_c, 1, 78, 64
3, 8060, Note_off_c, 1, 74, 64
3, 8064, Note_on_c, 1, 79, 82
3, 8064, Note_on_c, 1, 76, 82
3, 8252, Note_off_c, 1, 79, 64
3, 8252, Note_off_c, 1, 76, 64
3, 8256, Note_on_c, 1, 78, 82
3, 8256, Note_on_c, 1, 74, 82
3, 8432, Note_on_c, 1, 79, 82
3, 8444, Note_off_c, 1, 78, 64
3, 8444, Note_off_c, 1, 74, 64
3, 8448, Note_on_c, 1, 74, 82
3, 8452, Note_off_c, 1, 79, 64
3, 8480, Note_on_c, 1, 78, 82
3, 8512, Note_off_c, 1, 78, 64
3, 8512, Note_on_c, 1, 78, 82
3, 8544, Note_off_c, 1, 78, 64
3, 8544, Note_on_c, 1, 79, 82
3, 8576, Note_off_c, 1, 79, 64
3, 8576, Note_on_c, 1, 78, 82
3, 8608, Note_off_c, 1, 78, 64
3, 8608, Note_on_c, 1, 79, 82
3, 8636, Note_off_c, 1, 74, 64
3, 8640, Note_off_c, 1, 79, 64
3, 8640, Note_on_c, 1, 76, 82
3, 8640, Note_on_c, 1, 73, 82
3, 8780, Note_off_c, 1, 76, 64
3, 8780, Note_off_c, 1, 73, 64
3, 8784, Note_on_c, 1, 81, 82
3, 8828, Note_off_c, 1, 81, 64
3, 8832, Note_on_c, 1, 69, 82
3, 9020, Note_off_c, 1, 69, 64
3, 9024, Note_on_c, 1, 69, 82
3, 9212, Note_off_c, 1, 69, 64
3, 9216, Note_on_c, 1, 74, 82
3, 9404, Note_off_c, 1, 74, 64
3, 9408, Note_on_c, 1, 78, 82
3, 9500, Note_off_c, 1, 78, 64
3, 9504, Note_on_c, 1, 69, 82
3, 9596, Note_off_c, 1, 69, 64
3, 9600, Note_on_c, 1, 74, 82
3, 9692, Note_off_c, 1, 74, 64
3, 9696, Note_on_c, 1, 69, 82
3, 9788, Note_off_c, 1, 69, 64
3, 9792, Note_on_c, 1, 66, 82
3, 9884, Note_off_c, 1, 66, 64
3, 9888, Note_on_c, 1, 62, 82
3, 9980, Note_off_c, 1, 62, 64
3, 9984, Note_on_c, 1, 69, 82
3, 10172, Note_off_c, 1, 69, 64
3, 10176, Note_on_c, 1, 57, 82
3, 10364, Note_off_c, 1, 57, 64
3, 10560, Note_on_c, 1, 57, 61
3, 10748, Note_off_c, 1, 57, 64
3, 10752, Note_on_c, 1, 57, 61
3, 10844, Note_off_c, 1, 57, 64
3, 10864, Note_on_c, 1, 66, 61
3, 11040, Note_on_c, 1, 57, 61
3, 11052, Note_off_c, 1, 66, 64
3, 11132, Note_off_c, 1, 57, 64
3, 11136, Note_on_c, 1, 57, 61
3, 11228, Note_off_c, 1, 57, 64
3, 11248, Note_on_c, 1, 67, 61
3, 11328, Note_on_c, 1, 61, 61
3, 11424, Note_on_c, 1, 57, 61
3, 11436, Note_off_c, 1, 67, 64
3, 11516, Note_off_c, 1, 61, 64
3, 11516, Note_off_c, 1, 57, 64
3, 11520, Note_on_c, 1, 57, 61
3, 11520, Note_on_c, 1, 62, 61
3, 11612, Note_off_c, 1, 57, 64
3, 11616, Note_on_c, 1, 69, 61
3, 11708, Note_off_c, 1, 69, 64
3, 11712, Note_on_c, 1, 69, 61
3, 11804, Note_off_c, 1, 62, 64
3, 11808, Note_on_c, 1, 64, 61
3, 11808, Note_on_c, 1, 62, 61
3, 11900, Note_off_c, 1, 69, 64
3, 11900, Note_off_c, 1, 64, 64
3, 11900, Note_off_c, 1, 62, 64
3, 11904, Note_on_c, 1, 66, 61
3, 11904, Note_on_c, 1, 62, 61
3, 12092, Note_off_c, 1, 66, 64
3, 12092, Note_off_c, 1, 62, 64
3, 12096, Note_on_c, 1, 57, 61
3, 12284, Note_off_c, 1, 57, 64
3, 12288, Note_on_c, 1, 57, 61
3, 12380, Note_off_c, 1, 57, 64
3, 12384, Note_on_c, 1, 64, 61
3, 12572, Note_off_c, 1, 64, 64
3, 12576, Note_on_c, 1, 57, 61
3, 12668, Note_off_c, 1, 57, 64
3, 12672, Note_on_c, 1, 57, 61
3, 12764, Note_off_c, 1, 57, 64
3, 12768, Note_on_c, 1, 66, 61
3, 12864, Note_on_c, 1, 62, 61
3, 12956, Note_off_c, 1, 66, 64
3, 12960, Note_on_c, 1, 57, 61
3, 13052, Note_off_c, 1, 62, 64
3, 13052, Note_off_c, 1, 57, 64
3, 13056, Note_on_c, 1, 57, 61
3, 13056, Note_on_c, 1, 61, 61
3, 13148, Note_off_c, 1, 57, 64
3, 13152, Note_on_c, 1, 67, 61
3, 13244, Note_off_c, 1, 67, 64
3, 13248, Note_on_c, 1, 67, 61
3, 13340, Note_off_c, 1, 61, 64
3, 13344, Note_on_c, 1, 62, 61
3, 13436, Note_off_c, 1, 67, 64
3, 13436, Note_off_c, 1, 62, 64
3, 13440, Note_on_c, 1, 64, 61
3, 13532, Note_off_c, 1, 64, 64
3, 13536, Note_on_c, 1, 57, 61
3, 13628, Note_off_c, 1, 57, 64
3, 13632, Note_on_c, 1, 64, 61
3, 13632, Note_on_c, 1, 67, 61
3, 13724, Note_off_c, 1, 64, 64
3, 13728, Note_on_c, 1, 61, 61
3, 13820, Note_off_c, 1, 67, 64
3, 13820, Note_off_c, 1, 61, 64
3, 13824, Note_on_c, 1, 66, 61
3, 13824, Note_on_c, 1, 62, 61
3, 13916, Note_off_c, 1, 62, 64
3, 14204, Note_off_c, 1, 66, 64
3, 14208, Note_on_c, 1, 67, 61
3, 14240, Note_off_c, 1, 67, 64
3, 14240, Note_on_c, 1, 69, 61
3, 14272, Note_off_c, 1, 69, 64
3, 14272, Note_on_c, 1, 67, 61
3, 14304, Note_off_c, 1, 67, 64
3, 14304, Note_on_c, 1, 69, 61
3, 14336, Note_off_c, 1, 69, 64
3, 14336, Note_on_c, 1, 67, 61
3, 14368, Note_off_c, 1, 67, 64
3, 14368, Note_on_c, 1, 69, 61
3, 14400, Note_off_c, 1, 69, 64
3, 14400, Note_on_c, 1, 67, 61
3, 14432, Note_off_c, 1, 67, 64
3, 14432, Note_on_c, 1, 69, 61
3, 14464, Note_off_c, 1, 69, 64
3, 14464, Note_on_c, 1, 67, 61
3, 14496, Note_off_c, 1, 67, 64
3, 14496, Note_on_c, 1, 66, 61
3, 14544, Note_off_c, 1, 66, 64
3, 14544, Note_on_c, 1, 67, 61
3, 14592, Note_off_c, 1, 67, 64
3, 14592, Note_on_c, 1, 69, 61
3, 14592, Note_on_c, 1, 62, 61
3, 14652, Note_off_c, 1, 69, 64
3, 14652, Note_off_c, 1, 62, 64
3, 14656, Note_on_c, 1, 74, 61
3, 14716, Note_off_c, 1, 74, 64
3, 14720, Note_on_c, 1, 73, 61
3, 14780, Note_off_c, 1, 73, 64
3, 14784, Note_on_c, 1, 74, 61
3, 14844, Note_off_c, 1, 74, 64
3, 14848, Note_on_c, 1, 69, 61
3, 14908, Note_off_c, 1, 69, 64
3, 14912, Note_on_c, 1, 66, 61
3, 14972, Note_off_c, 1, 66, 64
3, 15040, Note_on_c, 1, 86, 61
3, 15100, Note_off_c, 1, 86, 64
3, 15104, Note_on_c, 1, 85, 61
3, 15164, Note_off_c, 1, 85, 64
3, 15168, Note_on_c, 1, 86, 61
3, 15228, Note_off_c, 1, 86, 64
3, 15232, Note_on_c, 1, 83, 61
3, 15292, Note_off_c, 1, 83, 64
3, 15296, Note_on_c, 1, 79, 61
3, 15356, Note_off_c, 1, 79, 64
3, 15360, Note_on_c, 1, 78, 61
3, 15740, Note_off_c, 1, 78, 64
3, 15744, Note_on_c, 1, 79, 61
3, 15776, Note_off_c, 1, 79, 64
3, 15776, Note_on_c, 1, 81, 61
3, 15808, Note_off_c, 1, 81, 64
3, 15808, Note_on_c, 1, 79, 61
3, 15840, Note_off_c, 1, 79, 64
3, 15840, Note_on_c, 1, 81, 61
3, 15872, Note_off_c, 1, 81, 64
3, 15872, Note_on_c, 1, 79, 61
3, 15904, Note_off_c, 1, 79, 64
3, 15904, Note_on_c, 1, 81, 61
3, 15936, Note_off_c, 1, 81, 64
3, 15936, Note_on_c, 1, 79, 61
3, 15968, Note_off_c, 1, 79, 64
3, 15968, Note_on_c, 1, 81, 61
3, 16000, Note_off_c, 1, 81, 64
3, 16000, Note_on_c, 1, 79, 61
3, 16032, Note_off_c, 1, 79, 64
3, 16032, Note_on_c, 1, 78, 61
3, 16080, Note_off_c, 1, 78, 64
3, 16080, Note_on_c, 1, 79, 61
3, 16128, Note_off_c, 1, 79, 64
3, 16128, Note_on_c, 1, 81, 61
3, 16188, Note_off_c, 1, 81, 64
3, 16192, Note_on_c, 1, 86, 61
3, 16252, Note_off_c, 1, 86, 64
3, 16256, Note_on_c, 1, 85, 61
3, 16316, Note_off_c, 1, 85, 64
3, 16320, Note_on_c, 1, 86, 61
3, 16380, Note_off_c, 1, 86, 64
3, 16384, Note_on_c, 1, 81, 61
3, 16444, Note_off_c, 1, 81, 64
3, 16448, Note_on_c, 1, 78, 61
3, 16508, Note_off_c, 1, 78, 64
3, 16512, Note_on_c, 1, 74, 61
3, 16572, Note_off_c, 1, 74, 64
3, 16576, Note_on_c, 1, 74, 61
3, 16636, Note_off_c, 1, 74, 64
3, 16640, Note_on_c, 1, 73, 61
3, 16700, Note_off_c, 1, 73, 64
3, 16704, Note_on_c, 1, 74, 61
3, 16764, Note_off_c, 1, 74, 64
3, 16768, Note_on_c, 1, 71, 61
3, 16828, Note_off_c, 1, 71, 64
3, 16832, Note_on_c, 1, 67, 61
3, 16892, Note_off_c, 1, 67, 64
3, 16896, Note_on_c, 1, 66, 61
3, 17276, Note_off_c, 1, 66, 64
3, 17280, Note_on_c, 1, 67, 61
3, 17312, Note_off_c, 1, 67, 64
3, 17312, Note_on_c, 1, 69, 61
3, 17344, Note_off_c, 1, 69, 64
3, 17344, Note_on_c, 1, 67, 61
3, 17376, Note_off_c, 1, 67, 64
3, 17376, Note_on_c, 1, 69, 61
3, 17408, Note_off_c, 1, 69, 64
3, 17408, Note_on_c, 1, 67, 61
3, 17440, Note_off_c, 1, 67, 64
3, 17440, Note_on_c, 1, 69, 61
3, 17472, Note_off_c, 1, 69, 64
3, 17472, Note_on_c, 1, 67, 61
3, 17504, Note_off_c, 1, 67, 64
3, 17504, Note_on_c, 1, 69, 61
3, 17536, Note_off_c, 1, 69, 64
3, 17536, Note_on_c, 1, 67, 61
3, 17568, Note_off_c, 1, 67, 64
3, 17568, Note_on_c, 1, 66, 61
3, 17616, Note_off_c, 1, 66, 64
3, 17616, Note_on_c, 1, 67, 61
3, 17664, Note_off_c, 1, 67, 64
3, 17664, Note_on_c, 1, 69, 82
3, 17664, Note_on_c, 1, 62, 82
3, 17852, Note_off_c, 1, 69, 64
3, 17852, Note_off_c, 1, 62, 64
3, 17856, Note_on_c, 1, 74, 82
3, 17856, Note_on_c, 1, 69, 82
3, 17856, Note_on_c, 1, 81, 82
3, 17948, Note_off_c, 1, 69, 64
3, 17948, Note_off_c, 1, 81, 64
3, 17996, Note_off_c, 1, 74, 64
3, 18000, Note_on_c, 1, 74, 82
3, 18044, Note_off_c, 1, 74, 64
3, 18048, Note_on_c, 1, 74, 82
3, 18236, Note_off_c, 1, 74, 64
3, 18240, Note_on_c, 1, 70, 82
3, 18240, Note_on_c, 1, 82, 82
3, 18240, Note_on_c, 1, 74, 82
3, 18428, Note_off_c, 1, 70, 64
3, 18428, Note_off_c, 1, 82, 64
3, 18428, Note_off_c, 1, 74, 64
3, 18432, Note_on_c, 1, 82, 82
3, 18432, Note_on_c, 1, 70, 82
3, 18524, Note_off_c, 1, 82, 64
3, 18524, Note_off_c, 1, 70, 64
3, 18528, Note_on_c, 1, 83, 82
3, 18528, Note_on_c, 1, 71, 82
3, 18620, Note_off_c, 1, 83, 64
3, 18620, Note_off_c, 1, 71, 64
3, 18624, Note_on_c, 1, 71, 82
3, 18624, Note_on_c, 1, 76, 82
3, 18624, Note_on_c, 1, 74, 82
3, 18764, Note_off_c, 1, 71, 64
3, 18764, Note_off_c, 1, 74, 64
3, 18768, Note_on_c, 1, 74, 82
3, 18768, Note_on_c, 1, 71, 82
3, 18812, Note_off_c, 1, 74, 64
3, 18812, Note_off_c, 1, 71, 64
3, 18816, Note_on_c, 1, 74, 82
3, 18816, Note_on_c, 1, 71, 82
3, 19004, Note_off_c, 1, 76, 64
3, 19004, Note_off_c, 1, 74, 64
3, 19004, Note_off_c, 1, 71, 64
3, 19008, Note_on_c, 1, 74, 82
3, 19008, Note_on_c, 1, 71, 82
3, 19008, Note_on_c, 1, 77, 82
3, 19196, Note_off_c, 1, 74, 64
3, 19196, Note_off_c, 1, 71, 64
3, 19196, Note_off_c, 1, 77, 64
3, 19200, Note_on_c, 1, 74, 82
3, 19200, Note_on_c, 1, 69, 82
3, 19200, Note_on_c, 1, 77, 82
3, 19292, Note_off_c, 1, 77, 64
3, 19296, Note_on_c, 1, 78, 82
3, 19388, Note_off_c, 1, 74, 64
3, 19388, Note_off_c, 1, 69, 64
3, 19388, Note_off_c, 1, 78, 64
3, 19392, Note_on_c, 1, 80, 82
3, 19484, Note_off_c, 1, 80, 64
3, 19488, Note_on_c, 1, 81, 82
3, 19580, Note_off_c, 1, 81, 64
3, 19584, Note_on_c, 1, 76, 82
3, 19616, Note_off_c, 1, 76, 64
3, 19616, Note_on_c, 1, 78, 82
3, 19648, Note_off_c, 1, 78, 64
3, 19648, Note_on_c, 1, 76, 82
3, 19680, Note_off_c, 1, 76, 64
3, 19680, Note_on_c, 1, 78, 82
3, 19712, Note_off_c, 1, 78, 64
3, 19712, Note_on_c, 1, 76, 82
3, 19744, Note_off_c, 1, 76, 64
3, 19744, Note_on_c, 1, 78, 82
3, 19776, Note_off_c, 1, 78, 64
3, 19776, Note_on_c, 1, 76, 82
3, 19808, Note_off_c, 1, 76, 64
3, 19808, Note_on_c, 1, 78, 82
3, 19840, Note_off_c, 1, 78, 64
3, 19840, Note_on_c, 1, 76, 82
3, 19872, Note_off_c, 1, 76, 64
3, 19872, Note_on_c, 1, 74, 82
3, 19920, Note_off_c, 1, 74, 64
3, 19920, Note_on_c, 1, 76, 82
3, 19968, Note_off_c, 1, 76, 64
3, 19968, Note_on_c, 1, 74, 82
3, 20156, Note_off_c, 1, 74, 64
3, 20352, Note_on_c, 1, 74, 61
3, 20444, Note_off_c, 1, 74, 64
3, 20448, Note_on_c, 1, 73, 61
3, 20540, Note_off_c, 1, 73, 64
3, 20544, Note_on_c, 1, 71, 61
3, 20636, Note_off_c, 1, 71, 64
3, 20640, Note_on_c, 1, 69, 61
3, 20732, Note_off_c, 1, 69, 64
3, 20736, Note_on_c, 1, 69, 61
3, 20828, Note_off_c, 1, 69, 64
3, 20832, Note_on_c, 1, 68, 61
3, 20924, Note_off_c, 1, 68, 64
3, 20928, Note_on_c, 1, 68, 61
3, 21020, Note_off_c, 1, 68, 64
3, 21024, Note_on_c, 1, 68, 61
3, 21116, Note_off_c, 1, 68, 64
3, 21120, Note_on_c, 1, 62, 61
3, 21120, Note_on_c, 1, 68, 61
3, 21212, Note_off_c, 1, 62, 64
3, 21216, Note_on_c, 1, 64, 61
3, 21308, Note_off_c, 1, 68, 64
3, 21308, Note_off_c, 1, 64, 64
3, 21312, Note_on_c, 1, 62, 61
3, 21312, Note_on_c, 1, 68, 61
3, 21404, Note_off_c, 1, 62, 64
3, 21408, Note_on_c, 1, 64, 61
3, 21500, Note_off_c, 1, 68, 64
3, 21500, Note_off_c, 1, 64, 64
3, 21504, Note_on_c, 1, 61, 61
3, 21504, Note_on_c, 1, 69, 61
3, 21788, Note_off_c, 1, 69, 64
3, 21792, Note_on_c, 1, 70, 61
3, 21884, Note_off_c, 1, 61, 64
3, 21884, Note_off_c, 1, 70, 64
3, 21888, Note_on_c, 1, 71, 61
3, 21980, Note_off_c, 1, 71, 64
3, 21984, Note_on_c, 1, 69, 61
3, 22076, Note_off_c, 1, 69, 64
3, 22080, Note_on_c, 1, 67, 61
3, 22172, Note_off_c, 1, 67, 64
3, 22176, Note_on_c, 1, 66, 61
3, 22268, Note_off_c, 1, 66, 64
3, 22272, Note_on_c, 1, 66, 61
3, 22364, Note_off_c, 1, 66, 64
3, 22368, Note_on_c, 1, 64, 61
3, 22460, Note_off_c, 1, 64, 64
3, 22464, Note_on_c, 1, 64, 61
3, 22556, Note_off_c, 1, 64, 64
3, 22560, Note_on_c, 1, 64, 61
3, 22652, Note_off_c, 1, 64, 64
3, 22656, Note_on_c, 1, 64, 61
3, 22656, Note_on_c, 1, 61, 61
3, 22748, Note_off_c, 1, 64, 64
3, 22748, Note_off_c, 1, 61, 64
3, 22752, Note_on_c, 1, 67, 61
3, 22752, Note_on_c, 1, 64, 61
3, 22844, Note_off_c, 1, 67, 64
3, 22844, Note_off_c, 1, 64, 64
3, 22848, Note_on_c, 1, 66, 61
3, 22848, Note_on_c, 1, 62, 61
3, 22940, Note_off_c, 1, 66, 64
3, 22940, Note_off_c, 1, 62, 64
3, 22944, Note_on_c, 1, 64, 61
3, 22944, Note_on_c, 1, 61, 61
3, 23036, Note_off_c, 1, 64, 64
3, 23036, Note_off_c, 1, 61, 64
3, 23040, Note_on_c, 1, 62, 61
3, 23228, Note_off_c, 1, 62, 64
3, 23232, Note_on_c, 1, 66, 82
3, 23232, Note_on_c, 1, 54, 82
3, 23372, Note_off_c, 1, 66, 64
3, 23372, Note_off_c, 1, 54, 64
3, 23376, Note_on_c, 1, 62, 82
3, 23420, Note_off_c, 1, 62, 64
3, 23424, Note_on_c, 1, 67, 82
3, 23424, Note_on_c, 1, 55, 82
3, 23612, Note_off_c, 1, 67, 64
3, 23612, Note_off_c, 1, 55, 64
3, 23616, Note_on_c, 1, 68, 82
3, 23616, Note_on_c, 1, 56, 82
3, 23756, Note_off_c, 1, 68, 64
3, 23756, Note_off_c, 1, 56, 64
3, 23760, Note_on_c, 1, 64, 82
3, 23804, Note_off_c, 1, 64, 64
3, 23808, Note_on_c, 1, 69, 82
3, 23808, Note_on_c, 1, 57, 82
3, 23996, Note_off_c, 1, 69, 64
3, 23996, Note_off_c, 1, 57, 64
3, 24000, Note_on_c, 1, 70, 82
3, 24000, Note_on_c, 1, 58, 82
3, 24140, Note_off_c, 1, 70, 64
3, 24140, Note_off_c, 1, 58, 64
3, 24144, Note_on_c, 1, 66, 82
3, 24188, Note_off_c, 1, 66, 64
3, 24192, Note_on_c, 1, 71, 82
3, 24192, Note_on_c, 1, 59, 82
3, 24380, Note_off_c, 1, 71, 64
3, 24380, Note_off_c, 1, 59, 64
3, 24384, Note_on_c, 1, 73, 82
3, 24384, Note_on_c, 1, 61, 82
3, 24524, Note_off_c, 1, 73, 64
3, 24524, Note_off_c, 1, 61, 64
3, 24528, Note_on_c, 1, 69, 82
3, 24572, Note_off_c, 1, 69, 64
3, 24576, Note_on_c, 1, 74, 82
3, 24668, Note_off_c, 1, 74, 64
3, 24672, Note_on_c, 1, 74, 82
3, 24672, Note_on_c, 1, 86, 82
3, 24860, Note_off_c, 1, 74, 64
3, 24860, Note_off_c, 1, 86, 64
3, 24864, Note_on_c, 1, 74, 82
3, 24864, Note_on_c, 1, 84, 82
3, 25052, Note_off_c, 1, 74, 64
3, 25052, Note_off_c, 1, 84, 64
3, 25056, Note_on_c, 1, 74, 82
3, 25056, Note_on_c, 1, 83, 82
3, 25244, Note_off_c, 1, 74, 64
3, 25244, Note_off_c, 1, 83, 64
3, 25248, Note_on_c, 1, 82, 82
3, 25248, Note_on_c, 1, 74, 82
3, 25340, Note_off_c, 1, 82, 64
3, 25340, Note_off_c, 1, 74, 64
3, 25344, Note_on_c, 1, 74, 82
3, 25344, Note_on_c, 1, 82, 82
3, 25436, Note_off_c, 1, 82, 64
3, 25440, Note_on_c, 1, 83, 82
3, 25532, Note_off_c, 1, 74, 64
3, 25532, Note_off_c, 1, 83, 64
3, 25536, Note_on_c, 1, 74, 82
3, 25536, Note_on_c, 1, 82, 82
3, 25616, Note_on_c, 1, 83, 82
3, 25628, Note_off_c, 1, 82, 64
3, 25708, Note_off_c, 1, 83, 64
3, 25724, Note_off_c, 1, 74, 64
3, 25728, Note_on_c, 1, 81, 82
3, 25728, Note_on_c, 1, 73, 82
3, 25820, Note_off_c, 1, 81, 64
3, 25820, Note_off_c, 1, 73, 64
3, 25824, Note_on_c, 1, 79, 82
3, 25824, Note_on_c, 1, 71, 82
3, 25916, Note_off_c, 1, 79, 64
3, 25916, Note_off_c, 1, 71, 64
3, 25920, Note_on_c, 1, 78, 82
3, 25920, Note_on_c, 1, 69, 82
3, 26012, Note_off_c, 1, 78, 64
3, 26012, Note_off_c, 1, 69, 64
3, 26016, Note_on_c, 1, 76, 82
3, 26016, Note_on_c, 1, 67, 82
3, 26108, Note_off_c, 1, 76, 64
3, 26108, Note_off_c, 1, 67, 64
3, 26112, Note_on_c, 1, 74, 82
3, 26112, Note_on_c, 1, 66, 82
3, 26304, Note_on_c, 1, 69, 82
3, 26492, Note_off_c, 1, 74, 64
3, 26492, Note_off_c, 1, 66, 64
3, 26492, Note_off_c, 1, 69, 64
3, 26496, Note_on_c, 1, 73, 82
3, 26496, Note_on_c, 1, 67, 82
3, 26496, Note_on_c, 1, 76, 82
3, 26528, Note_off_c, 1, 76, 64
3, 26528, Note_on_c, 1, 78, 82
3, 26560, Note_off_c, 1, 78, 64
3, 26560, Note_on_c, 1, 76, 82
3, 26592, Note_off_c, 1, 76, 64
3, 26592, Note_on_c, 1, 78, 82
3, 26624, Note_off_c, 1, 78, 64
3, 26624, Note_on_c, 1, 76, 82
3, 26656, Note_off_c, 1, 76, 64
3, 26656, Note_on_c, 1, 78, 82
3, 26688, Note_off_c, 1, 78, 64
3, 26688, Note_on_c, 1, 76, 82
3, 26720, Note_off_c, 1, 76, 64
3, 26720, Note_on_c, 1, 78, 82
3, 26752, Note_off_c, 1, 78, 64
3, 26752, Note_on_c, 1, 76, 82
3, 26784, Note_off_c, 1, 76, 64
3, 26784, Note_on_c, 1, 74, 82
3, 26832, Note_off_c, 1, 74, 64
3, 26832, Note_on_c, 1, 76, 82
3, 26876, Note_off_c, 1, 73, 64
3, 26876, Note_off_c, 1, 67, 64
3, 26880, Note_off_c, 1, 76, 64
3, 26880, Note_on_c, 1, 74, 82
3, 26880, Note_on_c, 1, 66, 82
3, 26972, Note_off_c, 1, 74, 64
3, 26972, Note_off_c, 1, 66, 64
3, 26976, Note_on_c, 1, 74, 61
3, 27164, Note_off_c, 1, 74, 64
3, 27168, Note_on_c, 1, 72, 61
3, 27356, Note_off_c, 1, 72, 64
3, 27360, Note_on_c, 1, 71, 61
3, 27548, Note_off_c, 1, 71, 64
3, 27552, Note_on_c, 1, 70, 61
3, 27644, Note_off_c, 1, 70, 64
3, 27648, Note_on_c, 1, 70, 61
3, 27740, Note_off_c, 1, 70, 64
3, 27744, Note_on_c, 1, 71, 61
3, 27836, Note_off_c, 1, 71, 64
3, 27840, Note_on_c, 1, 70, 61
3, 27932, Note_off_c, 1, 70, 64
3, 27936, Note_on_c, 1, 71, 61
3, 28028, Note_off_c, 1, 71, 64
3, 28032, Note_on_c, 1, 75, 61
3, 28124, Note_off_c, 1, 75, 64
3, 28128, Note_on_c, 1, 76, 61
3, 28220, Note_off_c, 1, 76, 64
3, 28224, Note_on_c, 1, 75, 61
3, 28224, Note_on_c, 1, 83, 61
3, 28316, Note_off_c, 1, 75, 64
3, 28320, Note_on_c, 1, 76, 61
3, 28412, Note_off_c, 1, 83, 64
3, 28412, Note_off_c, 1, 76, 64
3, 28416, Note_on_c, 1, 70, 61
3, 28508, Note_off_c, 1, 70, 64
3, 28512, Note_on_c, 1, 71, 61
3, 28604, Note_off_c, 1, 71, 64
3, 28608, Note_on_c, 1, 70, 61
3, 28608, Note_on_c, 1, 79, 61
3, 28700, Note_off_c, 1, 70, 64
3, 28704, Note_on_c, 1, 71, 61
3, 28796, Note_off_c, 1, 79, 64
3, 28796, Note_off_c, 1, 71, 64
3, 28800, Note_on_c, 1, 66, 61
3, 28892, Note_off_c, 1, 66, 64
3, 28896, Note_on_c, 1, 67, 61
3, 28988, Note_off_c, 1, 67, 64
3, 28992, Note_on_c, 1, 66, 61
3, 28992, Note_on_c, 1, 76, 61
3, 29084, Note_off_c, 1, 66, 64
3, 29088, Note_on_c, 1, 67, 61
3, 29180, Note_off_c, 1, 76, 64
3, 29180, Note_off_c, 1, 67, 64
3, 29184, Note_on_c, 1, 81, 61
3, 29184, Note_on_c, 1, 66, 61
3, 29184, Note_on_c, 1, 57, 61
3, 29276, Note_off_c, 1, 66, 64
3, 29280, Note_on_c, 1, 69, 61
3, 29372, Note_off_c, 1, 57, 64
3, 29372, Note_off_c, 1, 69, 64
3, 29376, Note_on_c, 1, 66, 61
3, 29376, Note_on_c, 1, 57, 61
3, 29468, Note_off_c, 1, 66, 64
3, 29472, Note_on_c, 1, 62, 61
3, 29564, Note_off_c, 1, 81, 64
3, 29564, Note_off_c, 1, 57, 64
3, 29564, Note_off_c, 1, 62, 64
3, 29568, Note_on_c, 1, 66, 61
3, 29568, Note_on_c, 1, 81, 61
3, 29568, Note_on_c, 1, 57, 61
3, 29660, Note_off_c, 1, 66, 64
3, 29664, Note_on_c, 1, 69, 61
3, 29756, Note_off_c, 1, 57, 64
3, 29756, Note_off_c, 1, 69, 64
3, 29760, Note_on_c, 1, 66, 61
3, 29760, Note_on_c, 1, 57, 61
3, 29852, Note_off_c, 1, 81, 64
3, 29852, Note_off_c, 1, 66, 64
3, 29856, Note_on_c, 1, 83, 61
3, 29856, Note_on_c, 1, 62, 61
3, 29948, Note_off_c, 1, 57, 64
3, 29948, Note_off_c, 1, 83, 64
3, 29948, Note_off_c, 1, 62, 64
3, 29952, Note_on_c, 1, 74, 61
3, 29952, Note_on_c, 1, 67, 61
3, 29952, Note_on_c, 1, 57, 61
3, 30044, Note_off_c, 1, 67, 64
3, 30048, Note_on_c, 1, 69, 61
3, 30140, Note_off_c, 1, 57, 64
3, 30140, Note_off_c, 1, 69, 64
3, 30144, Note_on_c, 1, 67, 61
3, 30144, Note_on_c, 1, 57, 61
3, 30236, Note_off_c, 1, 67, 64
3, 30240, Note_on_c, 1, 64, 61
3, 30240, Note_on_c, 1, 64, 61
3, 30332, Note_off_c, 1, 74, 64
3, 30332, Note_off_c, 1, 57, 64
3, 30332, Note_off_c, 1, 64, 64
3, 30332, Note_off_c, 1, 64, 64
3, 30336, Note_on_c, 1, 67, 61
3, 30336, Note_on_c, 1, 57, 61
3, 30336, Note_on_c, 1, 73, 61
3, 30360, Note_off_c, 1, 73, 64
3, 30360, Note_on_c, 1, 74, 61
3, 30384, Note_off_c, 1, 74, 64
3, 30384, Note_on_c, 1, 73, 61
3, 30408, Note_off_c, 1, 73, 64
3, 30408, Note_on_c, 1, 74, 61
3, 30428, Note_off_c, 1, 67, 64
3, 30432, Note_off_c, 1, 74, 64
3, 30432, Note_on_c, 1, 69, 61
3, 30432, Note_on_c, 1, 73, 61
3, 30456, Note_off_c, 1, 73, 64
3, 30456, Note_on_c, 1, 74, 61
3, 30480, Note_off_c, 1, 74, 64
3, 30480, Note_on_c, 1, 73, 61
3, 30504, Note_off_c, 1, 73, 64
3, 30504, Note_on_c, 1, 74, 61
3, 30524, Note_off_c, 1, 57, 64
3, 30524, Note_off_c, 1, 69, 64
3, 30528, Note_off_c, 1, 74, 64
3, 30528, Note_on_c, 1, 67, 61
3, 30528, Note_on_c, 1, 57, 61
3, 30528, Note_on_c, 1, 74, 61
3, 30552, Note_off_c, 1, 74, 64
3, 30552, Note_on_c, 1, 73, 61
3, 30576, Note_off_c, 1, 73, 64
3, 30576, Note_on_c, 1, 73, 61
3, 30600, Note_off_c, 1, 73, 64
3, 30600, Note_on_c, 1, 74, 61
3, 30620, Note_off_c, 1, 67, 64
3, 30624, Note_off_c, 1, 74, 64
3, 30624, Note_on_c, 1, 64, 61
3, 30624, Note_on_c, 1, 71, 61
3, 30668, Note_off_c, 1, 71, 64
3, 30672, Note_on_c, 1, 73, 61
3, 30716, Note_off_c, 1, 57, 64
3, 30716, Note_off_c, 1, 64, 64
3, 30716, Note_off_c, 1, 73, 64
3, 30720, Note_on_c, 1, 74, 61
3, 30720, Note_on_c, 1, 66, 61
3, 30908, Note_off_c, 1, 74, 64
3, 30908, Note_off_c, 1, 66, 64
3, 30912, Note_on_c, 1, 78, 82
3, 31004, Note_off_c, 1, 78, 64
3, 31056, Note_on_c, 1, 74, 82
3, 31100, Note_off_c, 1, 74, 64
3, 31104, Note_on_c, 1, 81, 82
3, 31292, Note_off_c, 1, 81, 64
3, 31296, Note_on_c, 1, 85, 82
3, 31436, Note_off_c, 1, 85, 64
3, 31440, Note_on_c, 1, 81, 82
3, 31484, Note_off_c, 1, 81, 64
3, 31488, Note_on_c, 1, 86, 82
3, 31676, Note_off_c, 1, 86, 64
3, 31680, Note_on_c, 1, 78, 82
3, 31820, Note_off_c, 1, 78, 64
3, 31824, Note_on_c, 1, 74, 82
3, 31868, Note_off_c, 1, 74, 64
3, 31872, Note_on_c, 1, 81, 82
3, 32048, Note_on_c, 1, 73, 82
3, 32060, Note_off_c, 1, 81, 64
3, 32188, Note_off_c, 1, 73, 64
3, 32208, Note_on_c, 1, 69, 82
3, 32252, Note_off_c, 1, 69, 64
3, 32256, Note_on_c, 1, 74, 82
3, 32444, Note_off_c, 1, 74, 64
3, 32448, Note_on_c, 1, 66, 82
3, 32448, Note_on_c, 1, 62, 82
3, 32588, Note_off_c, 1, 66, 64
3, 32588, Note_off_c, 1, 62, 64
3, 32592, Note_on_c, 1, 66, 82
3, 32592, Note_on_c, 1, 62, 82
3, 32636, Note_off_c, 1, 66, 64
3, 32636, Note_off_c, 1, 62, 64
3, 32640, Note_on_c, 1, 64, 82
3, 32640, Note_on_c, 1, 62, 82
3, 32828, Note_off_c, 1, 64, 64
3, 32828, Note_off_c, 1, 62, 64
3, 32832, Note_on_c, 1, 64, 82
3, 32832, Note_on_c, 1, 61, 82
3, 32832, Note_on_c, 1, 57, 82
3, 32972, Note_off_c, 1, 64, 64
3, 32972, Note_off_c, 1, 61, 64
3, 32972, Note_off_c, 1, 57, 64
3, 32976, Note_on_c, 1, 64, 82
3, 32976, Note_on_c, 1, 57, 82
3, 32976, Note_on_c, 1, 61, 82
3, 33020, Note_off_c, 1, 64, 64
3, 33020, Note_off_c, 1, 57, 64
3, 33020, Note_off_c, 1, 61, 64
3, 33024, Note_on_c, 1, 62, 82
3, 33024, Note_on_c, 1, 57, 82
3, 33024, Note_on_c, 1, 54, 82
3, 33212, Note_off_c, 1, 62, 64
3, 33212, Note_off_c, 1, 57, 64
3, 33212, Note_off_c, 1, 54, 64
3, 33216, Note_on_c, 1, 74, 82
3, 33216, Note_on_c, 1, 69, 82
3, 33216, Note_on_c, 1, 78, 82
3, 33404, Note_off_c, 1, 74, 64
3, 33404, Note_off_c, 1, 69, 64
3, 33404, Note_off_c, 1, 78, 64
3, 33408, Note_on_c, 1, 78, 82
3, 33408, Note_on_c, 1, 74, 82
3, 33408, Note_on_c, 1, 69, 82
3, 33788, Note_off_c, 1, 78, 64
3, 33788, Note_off_c, 1, 74, 64
3, 33788, Note_off_c, 1, 69, 64
3, 33792, Note_on_c, 1, 74, 82
3, 34172, Note_off_c, 1, 74, 64
3, 34176, Note_on_c, 1, 69, 82
3, 34460, Note_off_c, 1, 69, 64
3, 34464, Note_on_c, 1, 69, 82
3, 34556, Note_off_c, 1, 69, 64
3, 34560, Note_on_c, 1, 66, 82
3, 34748, Note_off_c, 1, 66, 64
3, 34752, Note_on_c, 1, 62, 82
3, 34940, Note_off_c, 1, 62, 64
3, 35520, Note_on_c, 1, 62, 61
3, 35708, Note_off_c, 1, 62, 64
3, 35712, Note_on_c, 1, 62, 61
3, 35900, Note_off_c, 1, 62, 64
3, 36288, Note_on_c, 1, 62, 61
3, 36476, Note_off_c, 1, 62, 64
3, 36480, Note_on_c, 1, 62, 61
3, 36668, Note_off_c, 1, 62, 64
3, 37056, Note_on_c, 1, 74, 61
3, 37436, Note_off_c, 1, 74, 64
3, 37440, Note_on_c, 1, 73, 61
3, 37628, Note_off_c, 1, 73, 64
3, 37632, Note_on_c, 1, 74, 61
3, 37820, Note_off_c, 1, 74, 64
3, 37824, Note_on_c, 1, 66, 61
3, 37856, Note_off_c, 1, 66, 64
3, 37860, Note_on_c, 1, 67, 61
3, 37892, Note_off_c, 1, 67, 64
3, 37896, Note_on_c, 1, 66, 61
3, 37928, Note_off_c, 1, 66, 64
3, 37932, Note_on_c, 1, 67, 61
3, 37964, Note_off_c, 1, 67, 64
3, 37968, Note_on_c, 1, 67, 61
3, 38016, Note_off_c, 1, 67, 64
3, 38016, Note_on_c, 1, 69, 61
3, 38204, Note_off_c, 1, 69, 64
3, 38208, Note_on_c, 1, 62, 61
3, 38268, Note_off_c, 1, 62, 64
3, 38272, Note_on_c, 1, 64, 61
3, 38332, Note_off_c, 1, 64, 64
3, 38336, Note_on_c, 1, 62, 61
3, 38396, Note_off_c, 1, 62, 64
3, 38400, Note_on_c, 1, 67, 61
3, 38588, Note_off_c, 1, 67, 64
3, 38976, Note_on_c, 1, 62, 61
3, 39036, Note_off_c, 1, 62, 64
3, 39040, Note_on_c, 1, 64, 61
3, 39100, Note_off_c, 1, 64, 64
3, 39104, Note_on_c, 1, 62, 61
3, 39164, Note_off_c, 1, 62, 64
3, 39168, Note_on_c, 1, 71, 61
3, 39356, Note_off_c, 1, 71, 64
3, 39744, Note_on_c, 1, 74, 61
3, 39804, Note_off_c, 1, 74, 64
3, 39808, Note_on_c, 1, 73, 61
3, 39868, Note_off_c, 1, 73, 64
3, 39872, Note_on_c, 1, 71, 61
3, 39932, Note_off_c, 1, 71, 64
3, 39936, Note_on_c, 1, 69, 61
3, 40124, Note_off_c, 1, 69, 64
3, 40128, Note_on_c, 1, 74, 61
3, 40316, Note_off_c, 1, 74, 64
3, 40320, Note_on_c, 1, 74, 61
3, 40508, Note_off_c, 1, 74, 64
3, 40512, Note_on_c, 1, 74, 61
3, 40700, Note_off_c, 1, 74, 64
3, 40704, Note_on_c, 1, 67, 56
3, 40892, Note_off_c, 1, 67, 64
3, 40896, Note_on_c, 1, 67, 57
3, 41084, Note_off_c, 1, 67, 64
3, 41088, Note_on_c, 1, 67, 58
3, 41276, Note_off_c, 1, 67, 64
3, 41280, Note_on_c, 1, 67, 60
3, 41468, Note_off_c, 1, 67, 64
3, 41472, Note_on_c, 1, 67, 61
3, 41660, Note_off_c, 1, 67, 64
3, 41664, Note_on_c, 1, 64, 62
3, 41852, Note_off_c, 1, 64, 64
3, 41856, Note_on_c, 1, 64, 66
3, 42044, Note_off_c, 1, 64, 64
3, 42048, Note_on_c, 1, 61, 67
3, 42236, Note_off_c, 1, 61, 64
3, 42240, Note_on_c, 1, 61, 68
3, 42428, Note_off_c, 1, 61, 64
3, 42432, Note_on_c, 1, 76, 69
3, 42620, Note_off_c, 1, 76, 64
3, 42624, Note_on_c, 1, 76, 71
3, 42812, Note_off_c, 1, 76, 64
3, 42816, Note_on_c, 1, 73, 72
3, 43004, Note_off_c, 1, 73, 64
3, 43008, Note_on_c, 1, 74, 61
3, 43196, Note_off_c, 1, 74, 64
3, 43264, Note_on_c, 1, 69, 61
3, 43324, Note_off_c, 1, 69, 64
3, 43328, Note_on_c, 1, 66, 61
3, 43388, Note_off_c, 1, 66, 64
3, 43392, Note_on_c, 1, 67, 61
3, 43580, Note_off_c, 1, 67, 64
3, 43584, Note_on_c, 1, 73, 61
3, 43612, Note_on_c, 1, 74, 61
3, 43616, Note_off_c, 1, 73, 64
3, 43644, Note_off_c, 1, 74, 64
3, 43644, Note_on_c, 1, 73, 61
3, 43676, Note_off_c, 1, 73, 64
3, 43676, Note_on_c, 1, 74, 61
3, 43708, Note_off_c, 1, 74, 64
3, 43708, Note_on_c, 1, 71, 61
3, 43740, Note_off_c, 1, 71, 64
3, 43740, Note_on_c, 1, 73, 61
3, 43772, Note_off_c, 1, 73, 64
3, 43776, Note_on_c, 1, 74, 74
3, 43964, Note_off_c, 1, 74, 64
3, 44032, Note_on_c, 1, 69, 74
3, 44092, Note_off_c, 1, 69, 64
3, 44096, Note_on_c, 1, 66, 74
3, 44156, Note_off_c, 1, 66, 64
3, 44160, Note_on_c, 1, 67, 74
3, 44348, Note_off_c, 1, 67, 64
3, 44352, Note_on_c, 1, 73, 74
3, 44380, Note_on_c, 1, 74, 74
3, 44384, Note_off_c, 1, 73, 64
3, 44412, Note_off_c, 1, 74, 64
3, 44412, Note_on_c, 1, 73, 74
3, 44444, Note_off_c, 1, 73, 64
3, 44444, Note_on_c, 1, 74, 74
3, 44476, Note_off_c, 1, 74, 64
3, 44476, Note_on_c, 1, 71, 74
3, 44508, Note_off_c, 1, 71, 64
3, 44508, Note_on_c, 1, 73, 74
3, 44540, Note_off_c, 1, 73, 64
3, 44544, Note_on_c, 1, 74, 74
3, 44924, Note_off_c, 1, 74, 64
3, 45024, Note_on_c, 1, 72, 74
3, 45024, Note_on_c, 1, 69, 74
3, 45116, Note_off_c, 1, 72, 64
3, 45116, Note_off_c, 1, 69, 64
3, 45120, Note_on_c, 1, 71, 74
3, 45120, Note_on_c, 1, 67, 74
3, 45212, Note_off_c, 1, 71, 64
3, 45212, Note_off_c, 1, 67, 64
3, 45216, Note_on_c, 1, 70, 74
3, 45216, Note_on_c, 1, 66, 74
3, 45308, Note_off_c, 1, 70, 64
3, 45308, Note_off_c, 1, 66, 64
3, 45312, Note_on_c, 1, 71, 74
3, 45312, Note_on_c, 1, 67, 74
3, 45500, Note_off_c, 1, 71, 64
3, 45500, Note_off_c, 1, 67, 64
3, 45504, Note_on_c, 1, 71, 74
3, 45504, Note_on_c, 1, 67, 74
3, 45692, Note_off_c, 1, 71, 64
3, 45692, Note_off_c, 1, 67, 64
3, 45696, Note_on_c, 1, 71, 74
3, 45696, Note_on_c, 1, 67, 74
3, 45884, Note_off_c, 1, 71, 64
3, 45884, Note_off_c, 1, 67, 64
3, 45888, Note_on_c, 1, 74, 74
3, 45888, Note_on_c, 1, 68, 74
3, 46076, Note_off_c, 1, 74, 64
3, 46076, Note_off_c, 1, 68, 64
3, 46080, Note_on_c, 1, 69, 74
3, 46080, Note_on_c, 1, 74, 74
3, 46112, Note_off_c, 1, 74, 64
3, 46112, Note_on_c, 1, 76, 74
3, 46144, Note_off_c, 1, 76, 64
3, 46144, Note_on_c, 1, 74, 74
3, 46176, Note_off_c, 1, 74, 64
3, 46176, Note_on_c, 1, 76, 74
3, 46208, Note_off_c, 1, 76, 64
3, 46208, Note_on_c, 1, 74, 74
3, 46240, Note_off_c, 1, 74, 64
3, 46240, Note_on_c, 1, 76, 74
3, 46272, Note_off_c, 1, 76, 64
3, 46272, Note_on_c, 1, 73, 74
3, 46460, Note_off_c, 1, 69, 64
3, 46460, Note_off_c, 1, 73, 64
3, 46464, Note_on_c, 1, 76, 82
3, 46652, Note_off_c, 1, 76, 64
3, 46656, Note_on_c, 1, 80, 82
3, 46656, Note_on_c, 1, 76, 82
3, 46656, Note_on_c, 1, 71, 82
3, 46844, Note_off_c, 1, 80, 64
3, 46844, Note_off_c, 1, 76, 64
3, 46844, Note_off_c, 1, 71, 64
3, 46848, Note_on_c, 1, 81, 82
3, 46848, Note_on_c, 1, 69, 82
3, 46848, Note_on_c, 1, 76, 82
3, 47036, Note_off_c, 1, 81, 64
3, 47036, Note_off_c, 1, 69, 64
3, 47036, Note_off_c, 1, 76, 64
3, 47040, Note_on_c, 1, 73, 61
3, 47040, Note_on_c, 1, 69, 61
3, 47228, Note_off_c, 1, 73, 64
3, 47228, Note_off_c, 1, 69, 64
3, 47232, Note_on_c, 1, 73, 61
3, 47232, Note_on_c, 1, 69, 61
3, 47420, Note_off_c, 1, 73, 64
3, 47420, Note_off_c, 1, 69, 64
3, 47424, Note_on_c, 1, 73, 61
3, 47424, Note_on_c, 1, 69, 61
3, 47612, Note_off_c, 1, 73, 64
3, 47612, Note_off_c, 1, 69, 64
3, 47616, Note_on_c, 1, 74, 61
3, 47616, Note_on_c, 1, 71, 61
3, 47804, Note_off_c, 1, 74, 64
3, 47804, Note_off_c, 1, 71, 64
3, 47808, Note_on_c, 1, 74, 61
3, 47808, Note_on_c, 1, 71, 61
3, 47996, Note_off_c, 1, 74, 64
3, 47996, Note_off_c, 1, 71, 64
3, 48000, Note_on_c, 1, 73, 61
3, 48000, Note_on_c, 1, 69, 61
3, 48188, Note_off_c, 1, 73, 64
3, 48188, Note_off_c, 1, 69, 64
3, 48192, Note_on_c, 1, 73, 61
3, 48192, Note_on_c, 1, 69, 61
3, 48380, Note_off_c, 1, 73, 64
3, 48380, Note_off_c, 1, 69, 64
3, 48384, Note_on_c, 1, 71, 61
3, 48384, Note_on_c, 1, 68, 61
3, 48572, Note_off_c, 1, 71, 64
3, 48572, Note_off_c, 1, 68, 64
3, 48576, Note_on_c, 1, 71, 61
3, 48576, Note_on_c, 1, 68, 61
3, 48764, Note_off_c, 1, 71, 64
3, 48764, Note_off_c, 1, 68, 64
3, 48768, Note_on_c, 1, 68, 61
3, 48768, Note_on_c, 1, 64, 61
3, 48956, Note_off_c, 1, 68, 64
3, 48956, Note_off_c, 1, 64, 64
3, 48960, Note_on_c, 1, 68, 61
3, 48960, Note_on_c, 1, 64, 61
3, 49148, Note_off_c, 1, 68, 64
3, 49148, Note_off_c, 1, 64, 64
3, 49152, Note_on_c, 1, 67, 61
3, 49344, Note_on_c, 1, 57, 61
3, 49532, Note_off_c, 1, 67, 64
3, 49532, Note_off_c, 1, 57, 64
3, 49536, Note_on_c, 1, 69, 61
3, 49536, Note_on_c, 1, 57, 61
3, 49628, Note_off_c, 1, 69, 64
3, 49628, Note_off_c, 1, 57, 64
3, 49632, Note_on_c, 1, 67, 61
3, 49632, Note_on_c, 1, 59, 61
3, 49724, Note_off_c, 1, 67, 64
3, 49724, Note_off_c, 1, 59, 64
3, 49728, Note_on_c, 1, 69, 61
3, 49728, Note_on_c, 1, 61, 61
3, 49820, Note_off_c, 1, 69, 64
3, 49820, Note_off_c, 1, 61, 64
3, 49824, Note_on_c, 1, 71, 61
3, 49824, Note_on_c, 1, 56, 61
3, 49916, Note_off_c, 1, 71, 64
3, 49916, Note_off_c, 1, 56, 64
3, 49920, Note_on_c, 1, 73, 61
3, 49920, Note_on_c, 1, 57, 61
3, 50108, Note_off_c, 1, 73, 64
3, 50108, Note_off_c, 1, 57, 64
3, 50112, Note_on_c, 1, 73, 61
3, 50112, Note_on_c, 1, 57, 61
3, 50300, Note_off_c, 1, 73, 64
3, 50300, Note_off_c, 1, 57, 64
3, 50304, Note_on_c, 1, 61, 61
3, 50304, Note_on_c, 1, 69, 61
3, 50492, Note_off_c, 1, 61, 64
3, 50492, Note_off_c, 1, 69, 64
3, 50496, Note_on_c, 1, 76, 61
3, 50496, Note_on_c, 1, 61, 61
3, 50684, Note_off_c, 1, 76, 64
3, 50684, Note_off_c, 1, 61, 64
3, 50688, Note_on_c, 1, 78, 61
3, 50688, Note_on_c, 1, 62, 61
3, 50780, Note_off_c, 1, 78, 64
3, 50784, Note_on_c, 1, 74, 61
3, 50876, Note_off_c, 1, 62, 64
3, 50876, Note_off_c, 1, 74, 64
3, 50880, Note_on_c, 1, 74, 61
3, 50880, Note_on_c, 1, 62, 61
3, 51068, Note_off_c, 1, 62, 64
3, 51072, Note_on_c, 1, 62, 61
3, 51260, Note_off_c, 1, 74, 64
3, 51260, Note_off_c, 1, 62, 64
3, 51264, Note_on_c, 1, 73, 61
3, 51264, Note_on_c, 1, 62, 61
3, 51452, Note_off_c, 1, 73, 64
3, 51452, Note_off_c, 1, 62, 64
3, 51456, Note_on_c, 1, 73, 61
3, 51456, Note_on_c, 1, 62, 61
3, 51644, Note_off_c, 1, 73, 64
3, 51644, Note_off_c, 1, 62, 64
3, 51648, Note_on_c, 1, 71, 61
3, 51648, Note_on_c, 1, 62, 61
3, 51836, Note_off_c, 1, 62, 64
3, 51840, Note_on_c, 1, 62, 61
3, 52028, Note_off_c, 1, 71, 64
3, 52028, Note_off_c, 1, 62, 64
3, 52032, Note_on_c, 1, 69, 61
3, 52032, Note_on_c, 1, 63, 61
3, 52220, Note_off_c, 1, 69, 64
3, 52220, Note_off_c, 1, 63, 64
3, 52224, Note_on_c, 1, 64, 61
3, 52224, Note_on_c, 1, 69, 61
3, 52256, Note_off_c, 1, 69, 64
3, 52256, Note_on_c, 1, 71, 61
3, 52288, Note_off_c, 1, 71, 64
3, 52288, Note_on_c, 1, 69, 61
3, 52320, Note_off_c, 1, 69, 64
3, 52320, Note_on_c, 1, 71, 61
3, 52352, Note_off_c, 1, 71, 64
3, 52352, Note_on_c, 1, 69, 61
3, 52384, Note_off_c, 1, 69, 64
3, 52384, Note_on_c, 1, 71, 61
3, 52416, Note_off_c, 1, 71, 64
3, 52416, Note_on_c, 1, 68, 61
3, 52604, Note_off_c, 1, 64, 64
3, 52604, Note_off_c, 1, 68, 64
3, 52608, Note_on_c, 1, 80, 82
3, 52608, Note_on_c, 1, 76, 82
3, 52608, Note_on_c, 1, 71, 82
3, 52796, Note_off_c, 1, 80, 64
3, 52796, Note_off_c, 1, 76, 64
3, 52796, Note_off_c, 1, 71, 64
3, 52800, Note_on_c, 1, 80, 82
3, 52800, Note_on_c, 1, 76, 82
3, 52800, Note_on_c, 1, 71, 82
3, 52976, Note_on_c, 1, 76, 82
3, 52988, Note_off_c, 1, 80, 64
3, 52988, Note_off_c, 1, 76, 64
3, 52988, Note_off_c, 1, 71, 64
3, 52992, Note_on_c, 1, 80, 82
3, 52992, Note_on_c, 1, 71, 82
3, 53356, Note_off_c, 1, 76, 64
3, 53372, Note_off_c, 1, 80, 64
3, 53372, Note_off_c, 1, 71, 64
3, 53760, Note_on_c, 1, 76, 68
3, 53760, Note_on_c, 1, 74, 68
3, 53760, Note_on_c, 1, 71, 68
3, 53948, Note_off_c, 1, 76, 64
3, 53948, Note_off_c, 1, 74, 64
3, 53948, Note_off_c, 1, 71, 64
3, 53952, Note_on_c, 1, 77, 68
3, 53952, Note_on_c, 1, 74, 68
3, 53952, Note_on_c, 1, 71, 68
3, 54140, Note_off_c, 1, 77, 64
3, 54144, Note_on_c, 1, 76, 68
3, 54332, Note_off_c, 1, 74, 64
3, 54332, Note_off_c, 1, 71, 64
3, 54332, Note_off_c, 1, 76, 64
3, 54336, Note_on_c, 1, 77, 68
3, 54336, Note_on_c, 1, 74, 68
3, 54336, Note_on_c, 1, 71, 68
3, 54512, Note_on_c, 1, 74, 68
3, 54512, Note_on_c, 1, 71, 68
3, 54524, Note_off_c, 1, 77, 64
3, 54524, Note_off_c, 1, 74, 64
3, 54524, Note_off_c, 1, 71, 64
3, 54528, Note_on_c, 1, 76, 68
3, 54892, Note_off_c, 1, 74, 64
3, 54892, Note_off_c, 1, 71, 64
3, 54908, Note_off_c, 1, 76, 64
3, 55296, Note_on_c, 1, 76, 68
3, 55296, Note_on_c, 1, 69, 68
3, 55484, Note_off_c, 1, 76, 64
3, 55484, Note_off_c, 1, 69, 64
3, 55488, Note_on_c, 1, 71, 68
3, 55488, Note_on_c, 1, 76, 68
3, 55676, Note_off_c, 1, 71, 64
3, 55680, Note_on_c, 1, 69, 68
3, 55856, Note_on_c, 1, 76, 68
3, 55868, Note_off_c, 1, 76, 64
3, 55868, Note_off_c, 1, 69, 64
3, 55872, Note_on_c, 1, 71, 68
3, 56044, Note_off_c, 1, 76, 64
3, 56060, Note_off_c, 1, 71, 64
3, 56064, Note_on_c, 1, 76, 68
3, 56064, Note_on_c, 1, 69, 68
3, 56444, Note_off_c, 1, 76, 64
3, 56444, Note_off_c, 1, 69, 64
3, 56832, Note_on_c, 1, 76, 55
3, 56832, Note_on_c, 1, 74, 55
3, 56832, Note_on_c, 1, 71, 55
3, 57020, Note_off_c, 1, 76, 64
3, 57020, Note_off_c, 1, 74, 64
3, 57020, Note_off_c, 1, 71, 64
3, 57024, Note_on_c, 1, 77, 55
3, 57024, Note_on_c, 1, 74, 55
3, 57024, Note_on_c, 1, 71, 55
3, 57212, Note_off_c, 1, 77, 64
3, 57216, Note_on_c, 1, 76, 55
3, 57404, Note_off_c, 1, 74, 64
3, 57404, Note_off_c, 1, 71, 64
3, 57404, Note_off_c, 1, 76, 64
3, 57408, Note_on_c, 1, 77, 55
3, 57408, Note_on_c, 1, 74, 55
3, 57408, Note_on_c, 1, 71, 55
3, 57584, Note_on_c, 1, 74, 55
3, 57584, Note_on_c, 1, 71, 55
3, 57596, Note_off_c, 1, 77, 64
3, 57596, Note_off_c, 1, 74, 64
3, 57596, Note_off_c, 1, 71, 64
3, 57600, Note_on_c, 1, 76, 55
3, 57964, Note_off_c, 1, 74, 64
3, 57964, Note_off_c, 1, 71, 64
3, 57980, Note_off_c, 1, 76, 64
3, 58560, Note_on_c, 1, 76, 55
3, 58560, Note_on_c, 1, 73, 55
3, 58560, Note_on_c, 1, 69, 55
3, 58928, Note_on_c, 1, 76, 55
3, 58928, Note_on_c, 1, 73, 55
3, 58940, Note_off_c, 1, 76, 64
3, 58940, Note_off_c, 1, 73, 64
3, 58940, Note_off_c, 1, 69, 64
3, 58944, Note_on_c, 1, 69, 55
3, 59308, Note_off_c, 1, 76, 64
3, 59308, Note_off_c, 1, 73, 64
3, 59312, Note_on_c, 1, 76, 55
3, 59312, Note_on_c, 1, 73, 55
3, 59324, Note_off_c, 1, 69, 64
3, 59328, Note_on_c, 1, 69, 55
3, 59692, Note_off_c, 1, 76, 64
3, 59692, Note_off_c, 1, 73, 64
3, 59708, Note_off_c, 1, 69, 64
3, 59712, Note_on_c, 1, 76, 55
3, 59712, Note_on_c, 1, 73, 55
3, 59712, Note_on_c, 1, 69, 55
3, 59996, Note_off_c, 1, 69, 64
3, 59996, Note_off_c, 1, 73, 64
3, 59996, Note_off_c, 1, 76, 64
3, 60000, Note_on_c, 1, 73, 74
3, 60000, Note_on_c, 1, 69, 74
3, 60092, Note_off_c, 1, 73, 64
3, 60092, Note_off_c, 1, 69, 64
3, 60096, Note_on_c, 1, 73, 74
3, 60096, Note_on_c, 1, 69, 74
3, 60096, Note_on_c, 1, 64, 74
3, 60188, Note_off_c, 1, 73, 64
3, 60188, Note_off_c, 1, 69, 64
3, 60188, Note_off_c, 1, 64, 64
3, 60192, Note_on_c, 1, 73, 74
3, 60192, Note_on_c, 1, 69, 74
3, 60192, Note_on_c, 1, 64, 74
3, 60284, Note_off_c, 1, 73, 64
3, 60284, Note_off_c, 1, 69, 64
3, 60284, Note_off_c, 1, 64, 64
3, 60288, Note_on_c, 1, 74, 74
3, 60288, Note_on_c, 1, 68, 74
3, 60288, Note_on_c, 1, 64, 74
3, 60380, Note_off_c, 1, 74, 64
3, 60380, Note_off_c, 1, 68, 64
3, 60380, Note_off_c, 1, 64, 64
3, 60384, Note_on_c, 1, 74, 74
3, 60384, Note_on_c, 1, 68, 74
3, 60384, Note_on_c, 1, 64, 74
3, 60476, Note_off_c, 1, 74, 64
3, 60476, Note_off_c, 1, 68, 64
3, 60476, Note_off_c, 1, 64, 64
3, 60480, Note_on_c, 1, 74, 74
3, 60480, Note_on_c, 1, 68, 74
3, 60480, Note_on_c, 1, 64, 74
3, 60560, Note_on_c, 1, 68, 74
3, 60572, Note_off_c, 1, 74, 64
3, 60572, Note_off_c, 1, 68, 64
3, 60572, Note_off_c, 1, 64, 64
3, 60576, Note_on_c, 1, 74, 74
3, 60576, Note_on_c, 1, 64, 74
3, 60652, Note_off_c, 1, 68, 64
3, 60656, Note_on_c, 1, 69, 74
3, 60668, Note_off_c, 1, 74, 64
3, 60668, Note_off_c, 1, 64, 64
3, 60672, Note_on_c, 1, 73, 74
3, 60672, Note_on_c, 1, 64, 74
3, 61036, Note_off_c, 1, 69, 64
3, 61052, Note_off_c, 1, 73, 64
3, 61052, Note_off_c, 1, 64, 64
3, 61248, Note_on_c, 1, 64, 74
3, 61436, Note_off_c, 1, 64, 64
3, 61440, Note_on_c, 1, 64, 61
3, 61532, Note_off_c, 1, 64, 64
3, 61536, Note_on_c, 1, 73, 61
3, 61724, Note_off_c, 1, 73, 64
3, 61728, Note_on_c, 1, 64, 61
3, 61820, Note_off_c, 1, 64, 64
3, 61824, Note_on_c, 1, 64, 61
3, 61916, Note_off_c, 1, 64, 64
3, 61920, Note_on_c, 1, 74, 61
3, 62016, Note_on_c, 1, 68, 61
3, 62108, Note_off_c, 1, 74, 64
3, 62112, Note_on_c, 1, 64, 61
3, 62204, Note_off_c, 1, 68, 64
3, 62204, Note_off_c, 1, 64, 64
3, 62208, Note_on_c, 1, 64, 61
3, 62208, Note_on_c, 1, 69, 61
3, 62300, Note_off_c, 1, 64, 64
3, 62304, Note_on_c, 1, 76, 61
3, 62384, Note_on_c, 1, 76, 61
3, 62396, Note_off_c, 1, 76, 64
3, 62492, Note_off_c, 1, 69, 64
3, 62496, Note_on_c, 1, 71, 61
3, 62496, Note_on_c, 1, 69, 61
3, 62572, Note_off_c, 1, 76, 64
3, 62588, Note_off_c, 1, 71, 64
3, 62588, Note_off_c, 1, 69, 64
3, 62592, Note_on_c, 1, 73, 61
3, 62592, Note_on_c, 1, 69, 61
3, 62780, Note_off_c, 1, 73, 64
3, 62780, Note_off_c, 1, 69, 64
3, 62784, Note_on_c, 1, 64, 61
3, 62972, Note_off_c, 1, 64, 64
3, 62976, Note_on_c, 1, 64, 61
3, 63068, Note_off_c, 1, 64, 64
3, 63088, Note_on_c, 1, 71, 61
3, 63264, Note_on_c, 1, 64, 61
3, 63276, Note_off_c, 1, 71, 64
3, 63356, Note_off_c, 1, 64, 64
3, 63360, Note_on_c, 1, 64, 61
3, 63452, Note_off_c, 1, 64, 64
3, 63456, Note_on_c, 1, 73, 61
3, 63552, Note_on_c, 1, 69, 61
3, 63644, Note_off_c, 1, 73, 64
3, 63648, Note_on_c, 1, 64, 61
3, 63740, Note_off_c, 1, 69, 64
3, 63740, Note_off_c, 1, 64, 64
3, 63744, Note_on_c, 1, 64, 61
3, 63744, Note_on_c, 1, 68, 61
3, 63836, Note_off_c, 1, 64, 64
3, 63840, Note_on_c, 1, 74, 61
3, 63932, Note_off_c, 1, 74, 64
3, 63936, Note_on_c, 1, 74, 61
3, 64028, Note_off_c, 1, 68, 64
3, 64032, Note_on_c, 1, 69, 61
3, 64124, Note_off_c, 1, 74, 64
3, 64124, Note_off_c, 1, 69, 64
3, 64128, Note_on_c, 1, 71, 61
3, 64220, Note_off_c, 1, 71, 64
3, 64224, Note_on_c, 1, 64, 61
3, 64316, Note_off_c, 1, 64, 64
3, 64320, Note_on_c, 1, 71, 61
3, 64320, Note_on_c, 1, 62, 61
3, 64412, Note_off_c, 1, 71, 64
3, 64412, Note_off_c, 1, 62, 64
3, 64416, Note_on_c, 1, 68, 61
3, 64508, Note_off_c, 1, 68, 64
3, 64512, Note_on_c, 1, 69, 61
3, 64512, Note_on_c, 1, 61, 61
3, 64604, Note_off_c, 1, 69, 64
3, 64604, Note_off_c, 1, 61, 64
3, 64608, Note_on_c, 1, 73, 61
3, 64700, Note_off_c, 1, 73, 64
3, 64704, Note_on_c, 1, 73, 61
3, 64796, Note_off_c, 1, 73, 64
3, 64800, Note_on_c, 1, 76, 61
3, 64892, Note_off_c, 1, 76, 64
3, 64896, Note_on_c, 1, 74, 61
3, 64988, Note_off_c, 1, 74, 64
3, 64992, Note_on_c, 1, 71, 61
3, 65084, Note_off_c, 1, 71, 64
3, 65088, Note_on_c, 1, 80, 61
3, 65180, Note_off_c, 1, 80, 64
3, 65184, Note_on_c, 1, 83, 61
3, 65276, Note_off_c, 1, 83, 64
3, 65280, Note_on_c, 1, 73, 61
3, 65372, Note_off_c, 1, 73, 64
3, 65376, Note_on_c, 1, 76, 61
3, 65468, Note_off_c, 1, 76, 64
3, 65472, Note_on_c, 1, 81, 61
3, 65564, Note_off_c, 1, 81, 64
3, 65568, Note_on_c, 1, 76, 61
3, 65660, Note_off_c, 1, 76, 64
3, 65664, Note_on_c, 1, 61, 61
3, 65756, Note_off_c, 1, 61, 64
3, 65760, Note_on_c, 1, 64, 61
3, 65852, Note_off_c, 1, 64, 64
3, 65856, Note_on_c, 1, 73, 61
3, 65948, Note_off_c, 1, 73, 64
3, 65952, Note_on_c, 1, 69, 61
3, 66044, Note_off_c, 1, 69, 64
3, 66048, Note_on_c, 1, 71, 61
3, 66140, Note_off_c, 1, 71, 64
3, 66144, Note_on_c, 1, 68, 61
3, 66236, Note_off_c, 1, 68, 64
3, 66240, Note_on_c, 1, 71, 61
3, 66332, Note_off_c, 1, 71, 64
3, 66336, Note_on_c, 1, 74, 61
3, 66428, Note_off_c, 1, 74, 64
3, 66432, Note_on_c, 1, 73, 61
3, 66524, Note_off_c, 1, 73, 64
3, 66528, Note_on_c, 1, 69, 61
3, 66620, Note_off_c, 1, 69, 64
3, 66624, Note_on_c, 1, 73, 61
3, 66716, Note_off_c, 1, 73, 64
3, 66720, Note_on_c, 1, 76, 61
3, 66812, Note_off_c, 1, 76, 64
3, 66816, Note_on_c, 1, 68, 61
3, 66908, Note_off_c, 1, 68, 64
3, 66912, Note_on_c, 1, 71, 61
3, 67004, Note_off_c, 1, 71, 64
3, 67008, Note_on_c, 1, 74, 61
3, 67100, Note_off_c, 1, 74, 64
3, 67104, Note_on_c, 1, 71, 61
3, 67196, Note_off_c, 1, 71, 64
3, 67200, Note_on_c, 1, 59, 61
3, 67292, Note_off_c, 1, 59, 64
3, 67296, Note_on_c, 1, 62, 61
3, 67388, Note_off_c, 1, 62, 64
3, 67392, Note_on_c, 1, 68, 61
3, 67484, Note_off_c, 1, 68, 64
3, 67488, Note_on_c, 1, 64, 61
3, 67580, Note_off_c, 1, 64, 64
3, 67584, Note_on_c, 1, 64, 61
3, 67676, Note_off_c, 1, 64, 64
3, 67680, Note_on_c, 1, 69, 61
3, 67772, Note_off_c, 1, 69, 64
3, 67776, Note_on_c, 1, 69, 61
3, 67868, Note_off_c, 1, 69, 64
3, 67872, Note_on_c, 1, 69, 61
3, 67964, Note_off_c, 1, 69, 64
3, 67968, Note_on_c, 1, 69, 61
3, 68060, Note_off_c, 1, 69, 64
3, 68064, Note_on_c, 1, 69, 61
3, 68156, Note_off_c, 1, 69, 64
3, 68160, Note_on_c, 1, 69, 61
3, 68252, Note_off_c, 1, 69, 64
3, 68256, Note_on_c, 1, 69, 61
3, 68348, Note_off_c, 1, 69, 64
3, 68352, Note_on_c, 1, 69, 61
3, 68412, Note_off_c, 1, 69, 64
3, 68416, Note_on_c, 1, 69, 61
3, 68476, Note_off_c, 1, 69, 64
3, 68480, Note_on_c, 1, 68, 61
3, 68540, Note_off_c, 1, 68, 64
3, 68544, Note_on_c, 1, 69, 61
3, 68604, Note_off_c, 1, 69, 64
3, 68608, Note_on_c, 1, 64, 61
3, 68668, Note_off_c, 1, 64, 64
3, 68672, Note_on_c, 1, 61, 61
3, 68732, Note_off_c, 1, 61, 64
3, 68736, Note_on_c, 1, 57, 61
3, 68924, Note_off_c, 1, 57, 64
3, 69120, Note_on_c, 1, 57, 61
3, 69212, Note_off_c, 1, 57, 64
3, 69216, Note_on_c, 1, 57, 61
3, 69308, Note_off_c, 1, 57, 64
3, 69312, Note_on_c, 1, 57, 61
3, 69404, Note_off_c, 1, 57, 64
3, 69408, Note_on_c, 1, 57, 61
3, 69500, Note_off_c, 1, 57, 64
3, 69504, Note_on_c, 1, 57, 61
3, 69568, Note_on_c, 1, 57, 61
3, 69596, Note_off_c, 1, 57, 64
3, 69660, Note_off_c, 1, 57, 64
3, 69696, Note_on_c, 1, 57, 61
3, 69788, Note_off_c, 1, 57, 64
3, 69792, Note_on_c, 1, 57, 61
3, 69884, Note_off_c, 1, 57, 64
3, 69888, Note_on_c, 1, 57, 61
3, 69948, Note_off_c, 1, 57, 64
3, 69952, Note_on_c, 1, 69, 61
3, 70012, Note_off_c, 1, 69, 64
3, 70016, Note_on_c, 1, 67, 61
3, 70076, Note_off_c, 1, 67, 64
3, 70080, Note_on_c, 1, 69, 61
3, 70140, Note_off_c, 1, 69, 64
3, 70144, Note_on_c, 1, 64, 61
3, 70204, Note_off_c, 1, 64, 64
3, 70208, Note_on_c, 1, 61, 61
3, 70268, Note_off_c, 1, 61, 64
3, 70272, Note_on_c, 1, 57, 61
3, 70460, Note_off_c, 1, 57, 64
3, 70656, Note_on_c, 1, 69, 61
3, 70748, Note_off_c, 1, 69, 64
3, 70752, Note_on_c, 1, 69, 61
3, 70844, Note_off_c, 1, 69, 64
3, 70848, Note_on_c, 1, 69, 61
3, 70940, Note_off_c, 1, 69, 64
3, 70944, Note_on_c, 1, 69, 61
3, 71036, Note_off_c, 1, 69, 64
3, 71040, Note_on_c, 1, 69, 61
3, 71132, Note_off_c, 1, 69, 64
3, 71136, Note_on_c, 1, 69, 61
3, 71228, Note_off_c, 1, 69, 64
3, 71232, Note_on_c, 1, 69, 61
3, 71324, Note_off_c, 1, 69, 64
3, 71328, Note_on_c, 1, 69, 61
3, 71420, Note_off_c, 1, 69, 64
3, 71424, Note_on_c, 1, 69, 61
3, 71612, Note_off_c, 1, 69, 64
3, 71616, Note_on_c, 1, 69, 62
3, 71804, Note_off_c, 1, 69, 64
3, 71808, Note_on_c, 1, 69, 63
3, 71996, Note_off_c, 1, 69, 64
3, 72000, Note_on_c, 1, 69, 67
3, 72188, Note_off_c, 1, 69, 64
3, 72192, Note_on_c, 1, 69, 68
3, 72380, Note_off_c, 1, 69, 64
3, 72384, Note_on_c, 1, 69, 69
3, 72764, Note_off_c, 1, 69, 64
3, 72768, Note_on_c, 1, 69, 72
3, 72956, Note_off_c, 1, 69, 64
3, 72960, Note_on_c, 1, 73, 74
3, 73148, Note_off_c, 1, 73, 64
3, 73152, Note_on_c, 1, 73, 77
3, 73340, Note_off_c, 1, 73, 64
3, 73344, Note_on_c, 1, 68, 78
3, 73532, Note_off_c, 1, 68, 64
3, 73536, Note_on_c, 1, 68, 79
3, 73724, Note_off_c, 1, 68, 64
3, 73728, Note_on_c, 1, 69, 82
3, 73916, Note_off_c, 1, 69, 64
3, 73920, Note_on_c, 1, 76, 82
3, 73920, Note_on_c, 1, 73, 82
3, 73980, Note_off_c, 1, 76, 64
3, 73980, Note_off_c, 1, 73, 64
3, 73984, Note_on_c, 1, 76, 82
3, 74016, Note_on_c, 1, 71, 82
3, 74044, Note_off_c, 1, 76, 64
3, 74048, Note_on_c, 1, 76, 82
3, 74048, Note_on_c, 1, 69, 82
3, 74076, Note_off_c, 1, 71, 64
3, 74108, Note_off_c, 1, 76, 64
3, 74108, Note_off_c, 1, 69, 64
3, 74112, Note_on_c, 1, 76, 82
3, 74112, Note_on_c, 1, 68, 82
3, 74300, Note_off_c, 1, 76, 64
3, 74300, Note_off_c, 1, 68, 64
3, 74304, Note_on_c, 1, 76, 82
3, 74304, Note_on_c, 1, 64, 82
3, 74364, Note_off_c, 1, 76, 64
3, 74368, Note_on_c, 1, 76, 82
3, 74428, Note_off_c, 1, 76, 64
3, 74432, Note_on_c, 1, 76, 82
3, 74480, Note_on_c, 1, 69, 82
3, 74492, Note_off_c, 1, 64, 64
3, 74492, Note_off_c, 1, 76, 64
3, 74496, Note_on_c, 1, 76, 82
3, 74668, Note_off_c, 1, 69, 64
3, 74684, Note_off_c, 1, 76, 64
3, 74688, Note_on_c, 1, 76, 82
3, 74688, Note_on_c, 1, 73, 82
3, 74748, Note_off_c, 1, 76, 64
3, 74748, Note_off_c, 1, 73, 64
3, 74752, Note_on_c, 1, 76, 82
3, 74752, Note_on_c, 1, 71, 82
3, 74812, Note_off_c, 1, 76, 64
3, 74812, Note_off_c, 1, 71, 64
3, 74816, Note_on_c, 1, 76, 82
3, 74816, Note_on_c, 1, 69, 82
3, 74876, Note_off_c, 1, 76, 64
3, 74876, Note_off_c, 1, 69, 64
3, 74880, Note_on_c, 1, 76, 82
3, 74880, Note_on_c, 1, 68, 82
3, 75068, Note_off_c, 1, 76, 64
3, 75068, Note_off_c, 1, 68, 64
3, 75072, Note_on_c, 1, 76, 82
3, 75072, Note_on_c, 1, 64, 82
3, 75132, Note_off_c, 1, 76, 64
3, 75136, Note_on_c, 1, 76, 82
3, 75196, Note_off_c, 1, 76, 64
3, 75200, Note_on_c, 1, 76, 82
3, 75260, Note_off_c, 1, 64, 64
3, 75260, Note_off_c, 1, 76, 64
3, 75264, Note_on_c, 1, 76, 82
3, 75264, Note_on_c, 1, 69, 82
3, 75452, Note_off_c, 1, 76, 64
3, 75452, Note_off_c, 1, 69, 64
3, 75456, Note_on_c, 1, 69, 82
3, 75456, Note_on_c, 1, 61, 82
3, 75644, Note_off_c, 1, 61, 64
3, 75648, Note_on_c, 1, 62, 82
3, 75836, Note_off_c, 1, 69, 64
3, 75836, Note_off_c, 1, 62, 64
3, 75840, Note_on_c, 1, 67, 82
3, 75840, Note_on_c, 1, 64, 82
3, 76028, Note_off_c, 1, 67, 64
3, 76028, Note_off_c, 1, 64, 64
3, 76032, Note_on_c, 1, 69, 61
3, 76032, Note_on_c, 1, 57, 61
3, 76220, Note_off_c, 1, 69, 64
3, 76220, Note_off_c, 1, 57, 64
3, 76224, Note_on_c, 1, 76, 61
3, 76224, Note_on_c, 1, 73, 61
3, 76284, Note_off_c, 1, 76, 64
3, 76284, Note_off_c, 1, 73, 64
3, 76288, Note_on_c, 1, 76, 61
3, 76288, Note_on_c, 1, 71, 61
3, 76348, Note_off_c, 1, 76, 64
3, 76348, Note_off_c, 1, 71, 64
3, 76352, Note_on_c, 1, 76, 61
3, 76352, Note_on_c, 1, 69, 61
3, 76412, Note_off_c, 1, 76, 64
3, 76412, Note_off_c, 1, 69, 64
3, 76416, Note_on_c, 1, 76, 61
3, 76416, Note_on_c, 1, 68, 61
3, 76604, Note_off_c, 1, 76, 64
3, 76604, Note_off_c, 1, 68, 64
3, 76608, Note_on_c, 1, 76, 61
3, 76608, Note_on_c, 1, 64, 61
3, 76668, Note_off_c, 1, 76, 64
3, 76672, Note_on_c, 1, 76, 61
3, 76732, Note_off_c, 1, 76, 64
3, 76736, Note_on_c, 1, 76, 61
3, 76796, Note_off_c, 1, 64, 64
3, 76796, Note_off_c, 1, 76, 64
3, 76800, Note_on_c, 1, 76, 61
3, 76800, Note_on_c, 1, 69, 61
3, 76988, Note_off_c, 1, 76, 64
3, 76988, Note_off_c, 1, 69, 64
3, 76992, Note_on_c, 1, 76, 61
3, 76992, Note_on_c, 1, 73, 61
3, 77052, Note_off_c, 1, 76, 64
3, 77052, Note_off_c, 1, 73, 64
3, 77056, Note_on_c, 1, 76, 61
3, 77056, Note_on_c, 1, 71, 61
3, 77116, Note_off_c, 1, 76, 64
3, 77116, Note_off_c, 1, 71, 64
3, 77120, Note_on_c, 1, 76, 61
3, 77120, Note_on_c, 1, 69, 61
3, 77180, Note_off_c, 1, 76, 64
3, 77180, Note_off_c, 1, 69, 64
3, 77184, Note_on_c, 1, 76, 61
3, 77184, Note_on_c, 1, 68, 61
3, 77372, Note_off_c, 1, 76, 64
3, 77372, Note_off_c, 1, 68, 64
3, 77376, Note_on_c, 1, 76, 61
3, 77376, Note_on_c, 1, 64, 61
3, 77436, Note_off_c, 1, 76, 64
3, 77440, Note_on_c, 1, 76, 61
3, 77500, Note_off_c, 1, 76, 64
3, 77504, Note_on_c, 1, 76, 61
3, 77552, Note_on_c, 1, 69, 61
3, 77564, Note_off_c, 1, 64, 64
3, 77564, Note_off_c, 1, 76, 64
3, 77568, Note_on_c, 1, 76, 61
3, 77740, Note_off_c, 1, 69, 64
3, 77756, Note_off_c, 1, 76, 64
3, 77952, Note_on_c, 1, 73, 61
3, 77952, Note_on_c, 1, 57, 61
3, 78140, Note_off_c, 1, 73, 64
3, 78140, Note_off_c, 1, 57, 64
3, 78432, Note_on_c, 1, 69, 62
3, 78524, Note_off_c, 1, 69, 64
3, 78528, Note_on_c, 1, 69, 63
3, 78620, Note_off_c, 1, 69, 64
3, 78624, Note_on_c, 1, 69, 63
3, 78716, Note_off_c, 1, 69, 64
3, 78720, Note_on_c, 1, 69, 66
3, 78812, Note_off_c, 1, 69, 64
3, 78816, Note_on_c, 1, 69, 66
3, 78908, Note_off_c, 1, 69, 64
3, 78912, Note_on_c, 1, 69, 67
3, 79004, Note_off_c, 1, 69, 64
3, 79008, Note_on_c, 1, 69, 67
3, 79100, Note_off_c, 1, 69, 64
3, 79104, Note_on_c, 1, 69, 68
3, 79196, Note_off_c, 1, 69, 64
3, 79200, Note_on_c, 1, 69, 69
3, 79292, Note_off_c, 1, 69, 64
3, 79296, Note_on_c, 1, 69, 69
3, 79388, Note_off_c, 1, 69, 64
3, 79392, Note_on_c, 1, 69, 71
3, 79484, Note_off_c, 1, 69, 64
3, 79488, Note_on_c, 1, 69, 71
3, 79580, Note_off_c, 1, 69, 64
3, 79584, Note_on_c, 1, 69, 72
3, 79676, Note_off_c, 1, 69, 64
3, 79680, Note_on_c, 1, 71, 72
3, 79772, Note_off_c, 1, 71, 64
3, 79776, Note_on_c, 1, 71, 73
3, 79868, Note_off_c, 1, 71, 64
3, 79872, Note_on_c, 1, 73, 74
3, 79872, Note_on_c, 1, 69, 74
3, 79964, Note_off_c, 1, 73, 64
3, 79964, Note_off_c, 1, 69, 64
3, 79968, Note_on_c, 1, 64, 74
3, 80060, Note_off_c, 1, 64, 64
3, 80064, Note_on_c, 1, 73, 74
3, 80064, Note_on_c, 1, 69, 74
3, 80156, Note_off_c, 1, 73, 64
3, 80156, Note_off_c, 1, 69, 64
3, 80160, Note_on_c, 1, 64, 74
3, 80252, Note_off_c, 1, 64, 64
3, 80256, Note_on_c, 1, 73, 74
3, 80256, Note_on_c, 1, 69, 74
3, 80348, Note_off_c, 1, 73, 64
3, 80348, Note_off_c, 1, 69, 64
3, 80352, Note_on_c, 1, 64, 74
3, 80444, Note_off_c, 1, 64, 64
3, 80448, Note_on_c, 1, 73, 74
3, 80448, Note_on_c, 1, 69, 74
3, 80540, Note_off_c, 1, 73, 64
3, 80540, Note_off_c, 1, 69, 64
3, 80544, Note_on_c, 1, 64, 74
3, 80636, Note_off_c, 1, 64, 64
3, 80640, Note_on_c, 1, 74, 74
3, 80640, Note_on_c, 1, 71, 74
3, 80640, Note_on_c, 1, 68, 74
3, 80732, Note_off_c, 1, 74, 64
3, 80732, Note_off_c, 1, 71, 64
3, 80732, Note_off_c, 1, 68, 64
3, 80736, Note_on_c, 1, 64, 74
3, 80828, Note_off_c, 1, 64, 64
3, 80832, Note_on_c, 1, 74, 74
3, 80832, Note_on_c, 1, 71, 74
3, 80832, Note_on_c, 1, 68, 74
3, 80924, Note_off_c, 1, 74, 64
3, 80924, Note_off_c, 1, 71, 64
3, 80924, Note_off_c, 1, 68, 64
3, 80928, Note_on_c, 1, 64, 74
3, 81020, Note_off_c, 1, 64, 64
3, 81024, Note_on_c, 1, 80, 74
3, 81024, Note_on_c, 1, 76, 74
3, 81024, Note_on_c, 1, 74, 74
3, 81116, Note_off_c, 1, 80, 64
3, 81116, Note_off_c, 1, 76, 64
3, 81116, Note_off_c, 1, 74, 64
3, 81120, Note_on_c, 1, 71, 74
3, 81212, Note_off_c, 1, 71, 64
3, 81216, Note_on_c, 1, 80, 74
3, 81216, Note_on_c, 1, 76, 74
3, 81216, Note_on_c, 1, 74, 74
3, 81308, Note_off_c, 1, 80, 64
3, 81308, Note_off_c, 1, 76, 64
3, 81308, Note_off_c, 1, 74, 64
3, 81312, Note_on_c, 1, 71, 74
3, 81404, Note_off_c, 1, 71, 64
3, 81408, Note_on_c, 1, 81, 82
3, 81408, Note_on_c, 1, 76, 82
3, 81408, Note_on_c, 1, 73, 82
3, 81408, Note_on_c, 1, 69, 82
3, 81596, Note_off_c, 1, 81, 64
3, 81596, Note_off_c, 1, 76, 64
3, 81596, Note_off_c, 1, 73, 64
3, 81596, Note_off_c, 1, 69, 64
3, 81600, Note_on_c, 1, 69, 82
3, 81660, Note_off_c, 1, 69, 64
3, 81664, Note_on_c, 1, 71, 82
3, 81724, Note_off_c, 1, 71, 64
3, 81728, Note_on_c, 1, 69, 82
3, 81788, Note_off_c, 1, 69, 64
3, 81792, Note_on_c, 1, 68, 82
3, 81852, Note_off_c, 1, 68, 64
3, 81856, Note_on_c, 1, 69, 82
3, 81916, Note_off_c, 1, 69, 64
3, 81920, Note_on_c, 1, 68, 82
3, 81980, Note_off_c, 1, 68, 64
3, 81984, Note_on_c, 1, 66, 82
3, 82044, Note_off_c, 1, 66, 64
3, 82048, Note_on_c, 1, 68, 82
3, 82108, Note_off_c, 1, 68, 64
3, 82112, Note_on_c, 1, 66, 82
3, 82172, Note_off_c, 1, 66, 64
3, 82176, Note_on_c, 1, 64, 82
3, 82352, Note_on_c, 1, 69, 82
3, 82364, Note_off_c, 1, 64, 64
3, 82368, Note_on_c, 1, 81, 82
3, 82428, Note_off_c, 1, 81, 64
3, 82432, Note_on_c, 1, 83, 82
3, 82492, Note_off_c, 1, 83, 64
3, 82496, Note_on_c, 1, 81, 82
3, 82556, Note_off_c, 1, 81, 64
3, 82560, Note_on_c, 1, 80, 82
3, 82620, Note_off_c, 1, 80, 64
3, 82624, Note_on_c, 1, 81, 82
3, 82684, Note_off_c, 1, 81, 64
3, 82688, Note_on_c, 1, 80, 82
3, 82748, Note_off_c, 1, 80, 64
3, 82752, Note_on_c, 1, 78, 82
3, 82812, Note_off_c, 1, 78, 64
3, 82816, Note_on_c, 1, 80, 82
3, 82876, Note_off_c, 1, 80, 64
3, 82880, Note_on_c, 1, 78, 82
3, 82924, Note_off_c, 1, 69, 64
3, 82940, Note_off_c, 1, 78, 64
3, 82944, Note_on_c, 1, 69, 82
3, 83136, Note_on_c, 1, 78, 82
3, 83196, Note_off_c, 1, 78, 64
3, 83200, Note_on_c, 1, 80, 82
3, 83260, Note_off_c, 1, 80, 64
3, 83264, Note_on_c, 1, 78, 82
3, 83324, Note_off_c, 1, 78, 64
3, 83328, Note_on_c, 1, 76, 82
3, 83388, Note_off_c, 1, 76, 64
3, 83392, Note_on_c, 1, 78, 82
3, 83452, Note_off_c, 1, 78, 64
3, 83456, Note_on_c, 1, 76, 82
3, 83516, Note_off_c, 1, 76, 64
3, 83520, Note_on_c, 1, 74, 82
3, 83580, Note_off_c, 1, 74, 64
3, 83584, Note_on_c, 1, 76, 82
3, 83644, Note_off_c, 1, 76, 64
3, 83648, Note_on_c, 1, 74, 82
3, 83708, Note_off_c, 1, 69, 64
3, 83708, Note_off_c, 1, 74, 64
3, 83712, Note_on_c, 1, 73, 82
3, 83712, Note_on_c, 1, 69, 82
3, 83900, Note_off_c, 1, 73, 64
3, 83900, Note_off_c, 1, 69, 64
3, 83904, Note_on_c, 1, 69, 82
3, 83904, Note_on_c, 1, 76, 82
3, 83904, Note_on_c, 1, 64, 82
3, 84044, Note_off_c, 1, 69, 64
3, 84048, Note_on_c, 1, 69, 82
3, 84092, Note_off_c, 1, 69, 64
3, 84096, Note_on_c, 1, 69, 82
3, 84284, Note_off_c, 1, 76, 64
3, 84284, Note_off_c, 1, 64, 64
3, 84284, Note_off_c, 1, 69, 64
3, 84288, Note_on_c, 1, 69, 82
3, 84288, Note_on_c, 1, 77, 82
3, 84288, Note_on_c, 1, 65, 82
3, 84476, Note_off_c, 1, 69, 64
3, 84476, Note_off_c, 1, 77, 64
3, 84476, Note_off_c, 1, 65, 64
3, 84480, Note_on_c, 1, 77, 82
3, 84480, Note_on_c, 1, 65, 82
3, 84572, Note_off_c, 1, 77, 64
3, 84572, Note_off_c, 1, 65, 64
3, 84576, Note_on_c, 1, 78, 82
3, 84576, Note_on_c, 1, 66, 82
3, 84668, Note_off_c, 1, 78, 64
3, 84668, Note_off_c, 1, 66, 64
3, 84672, Note_on_c, 1, 71, 82
3, 84672, Note_on_c, 1, 66, 82
3, 84812, Note_off_c, 1, 66, 64
3, 84816, Note_on_c, 1, 66, 82
3, 84860, Note_off_c, 1, 66, 64
3, 84864, Note_on_c, 1, 66, 82
3, 85052, Note_off_c, 1, 71, 64
3, 85052, Note_off_c, 1, 66, 64
3, 85056, Note_on_c, 1, 66, 82
3, 85056, Note_on_c, 1, 72, 82
3, 85244, Note_off_c, 1, 66, 64
3, 85244, Note_off_c, 1, 72, 64
3, 85248, Note_on_c, 1, 69, 82
3, 85248, Note_on_c, 1, 64, 82
3, 85248, Note_on_c, 1, 72, 82
3, 85340, Note_off_c, 1, 72, 64
3, 85344, Note_on_c, 1, 73, 82
3, 85436, Note_off_c, 1, 69, 64
3, 85436, Note_off_c, 1, 64, 64
3, 85436, Note_off_c, 1, 73, 64
3, 85440, Note_on_c, 1, 75, 82
3, 85532, Note_off_c, 1, 75, 64
3, 85536, Note_on_c, 1, 76, 82
3, 85628, Note_off_c, 1, 76, 64
3, 85632, Note_on_c, 1, 71, 82
3, 85652, Note_off_c, 1, 71, 64
3, 85656, Note_on_c, 1, 73, 82
3, 85676, Note_off_c, 1, 73, 64
3, 85680, Note_on_c, 1, 71, 82
3, 85700, Note_off_c, 1, 71, 64
3, 85704, Note_on_c, 1, 73, 82
3, 85724, Note_off_c, 1, 73, 64
3, 85728, Note_on_c, 1, 71, 82
3, 85748, Note_off_c, 1, 71, 64
3, 85752, Note_on_c, 1, 73, 82
3, 85772, Note_off_c, 1, 73, 64
3, 85776, Note_on_c, 1, 71, 82
3, 85796, Note_off_c, 1, 71, 64
3, 85800, Note_on_c, 1, 73, 82
3, 85820, Note_off_c, 1, 73, 64
3, 85824, Note_on_c, 1, 71, 82
3, 85844, Note_off_c, 1, 71, 64
3, 85848, Note_on_c, 1, 73, 82
3, 85868, Note_off_c, 1, 73, 64
3, 85872, Note_on_c, 1, 71, 82
3, 85892, Note_off_c, 1, 71, 64
3, 85896, Note_on_c, 1, 73, 82
3, 85916, Note_off_c, 1, 73, 64
3, 85920, Note_on_c, 1, 69, 82
3, 85964, Note_off_c, 1, 69, 64
3, 85968, Note_on_c, 1, 71, 82
3, 86012, Note_off_c, 1, 71, 64
3, 86016, Note_on_c, 1, 69, 61
3, 86204, Note_off_c, 1, 69, 64
3, 86400, Note_on_c, 1, 69, 61
3, 86492, Note_off_c, 1, 69, 64
3, 86496, Note_on_c, 1, 68, 61
3, 86588, Note_off_c, 1, 68, 64
3, 86592, Note_on_c, 1, 66, 61
3, 86684, Note_off_c, 1, 66, 64
3, 86688, Note_on_c, 1, 64, 61
3, 86780, Note_off_c, 1, 64, 64
3, 86784, Note_on_c, 1, 64, 61
3, 86876, Note_off_c, 1, 64, 64
3, 86880, Note_on_c, 1, 63, 61
3, 86972, Note_off_c, 1, 63, 64
3, 86976, Note_on_c, 1, 63, 61
3, 87068, Note_off_c, 1, 63, 64
3, 87072, Note_on_c, 1, 63, 61
3, 87164, Note_off_c, 1, 63, 64
3, 87168, Note_on_c, 1, 57, 61
3, 87168, Note_on_c, 1, 63, 61
3, 87260, Note_off_c, 1, 57, 64
3, 87264, Note_on_c, 1, 59, 61
3, 87356, Note_off_c, 1, 63, 64
3, 87356, Note_off_c, 1, 59, 64
3, 87360, Note_on_c, 1, 57, 61
3, 87360, Note_on_c, 1, 63, 61
3, 87452, Note_off_c, 1, 57, 64
3, 87456, Note_on_c, 1, 59, 61
3, 87548, Note_off_c, 1, 63, 64
3, 87548, Note_off_c, 1, 59, 64
3, 87552, Note_on_c, 1, 56, 61
3, 87552, Note_on_c, 1, 64, 61
3, 87836, Note_off_c, 1, 64, 64
3, 87840, Note_on_c, 1, 65, 61
3, 87932, Note_off_c, 1, 56, 64
3, 87932, Note_off_c, 1, 65, 64
3, 87936, Note_on_c, 1, 66, 61
3, 88028, Note_off_c, 1, 66, 64
3, 88032, Note_on_c, 1, 64, 61
3, 88124, Note_off_c, 1, 64, 64
3, 88128, Note_on_c, 1, 62, 61
3, 88220, Note_off_c, 1, 62, 64
3, 88224, Note_on_c, 1, 61, 61
3, 88316, Note_off_c, 1, 61, 64
3, 88320, Note_on_c, 1, 61, 61
3, 88412, Note_off_c, 1, 61, 64
3, 88416, Note_on_c, 1, 59, 61
3, 88508, Note_off_c, 1, 59, 64
3, 88512, Note_on_c, 1, 59, 61
3, 88604, Note_off_c, 1, 59, 64
3, 88608, Note_on_c, 1, 59, 61
3, 88688, Note_on_c, 1, 56, 61
3, 88700, Note_off_c, 1, 59, 64
3, 88704, Note_on_c, 1, 59, 61
3, 88780, Note_off_c, 1, 56, 64
3, 88796, Note_off_c, 1, 59, 64
3, 88800, Note_on_c, 1, 62, 61
3, 88800, Note_on_c, 1, 59, 61
3, 88892, Note_off_c, 1, 62, 64
3, 88892, Note_off_c, 1, 59, 64
3, 88896, Note_on_c, 1, 61, 61
3, 88896, Note_on_c, 1, 57, 61
3, 88988, Note_off_c, 1, 61, 64
3, 88988, Note_off_c, 1, 57, 64
3, 88992, Note_on_c, 1, 59, 61
3, 88992, Note_on_c, 1, 56, 61
3, 89084, Note_off_c, 1, 59, 64
3, 89084, Note_off_c, 1, 56, 64
3, 89088, Note_on_c, 1, 57, 82
3, 89276, Note_off_c, 1, 57, 64
3, 89296, Note_on_c, 1, 61, 82
3, 89424, Note_on_c, 1, 57, 82
3, 89436, Note_off_c, 1, 61, 64
3, 89468, Note_off_c, 1, 57, 64
3, 89472, Note_on_c, 1, 62, 82
3, 89660, Note_off_c, 1, 62, 64
3, 89664, Note_on_c, 1, 63, 82
3, 89804, Note_off_c, 1, 63, 64
3, 89808, Note_on_c, 1, 59, 82
3, 89852, Note_off_c, 1, 59, 64
3, 89856, Note_on_c, 1, 64, 82
3, 90032, Note_on_c, 1, 65, 82
3, 90044, Note_off_c, 1, 64, 64
3, 90172, Note_off_c, 1, 65, 64
3, 90192, Note_on_c, 1, 61, 82
3, 90236, Note_off_c, 1, 61, 64
3, 90240, Note_on_c, 1, 66, 82
3, 90416, Note_on_c, 1, 68, 82
3, 90428, Note_off_c, 1, 66, 64
3, 90556, Note_off_c, 1, 68, 64
3, 90576, Note_on_c, 1, 65, 82
3, 90620, Note_off_c, 1, 65, 64
3, 90624, Note_on_c, 1, 69, 82
3, 90716, Note_off_c, 1, 69, 64
3, 90720, Note_on_c, 1, 69, 82
3, 90736, Note_on_c, 1, 81, 82
3, 90908, Note_off_c, 1, 69, 64
3, 90912, Note_on_c, 1, 79, 82
3, 90912, Note_on_c, 1, 69, 82
3, 90924, Note_off_c, 1, 81, 64
3, 91100, Note_off_c, 1, 79, 64
3, 91100, Note_off_c, 1, 69, 64
3, 91104, Note_on_c, 1, 69, 82
3, 91120, Note_on_c, 1, 78, 82
3, 91280, Note_on_c, 1, 69, 82
3, 91292, Note_off_c, 1, 69, 64
3, 91296, Note_on_c, 1, 77, 82
3, 91308, Note_off_c, 1, 78, 64
3, 91392, Note_on_c, 1, 77, 82
3, 91392, Note_on_c, 1, 69, 82
3, 91468, Note_off_c, 1, 69, 64
3, 91484, Note_off_c, 1, 77, 64
3, 91484, Note_off_c, 1, 77, 64
3, 91488, Note_on_c, 1, 78, 82
3, 91580, Note_off_c, 1, 69, 64
3, 91580, Note_off_c, 1, 78, 64
3, 91584, Note_on_c, 1, 77, 82
3, 91584, Note_on_c, 1, 69, 82
3, 91676, Note_off_c, 1, 77, 64
3, 91680, Note_on_c, 1, 78, 82
3, 91760, Note_on_c, 1, 68, 82
3, 91772, Note_off_c, 1, 69, 64
3, 91772, Note_off_c, 1, 78, 64
3, 91776, Note_on_c, 1, 76, 82
3, 91852, Note_off_c, 1, 68, 64
3, 91868, Note_off_c, 1, 76, 64
3, 91872, Note_on_c, 1, 74, 82
3, 91872, Note_on_c, 1, 66, 82
3, 91952, Note_on_c, 1, 64, 82
3, 91964, Note_off_c, 1, 74, 64
3, 91964, Note_off_c, 1, 66, 64
3, 91968, Note_on_c, 1, 73, 82
3, 92044, Note_off_c, 1, 64, 64
3, 92048, Note_on_c, 1, 62, 82
3, 92060, Note_off_c, 1, 73, 64
3, 92064, Note_on_c, 1, 71, 82
3, 92140, Note_off_c, 1, 62, 64
3, 92156, Note_off_c, 1, 71, 64
3, 92160, Note_on_c, 1, 69, 82
3, 92160, Note_on_c, 1, 61, 82
3, 92540, Note_off_c, 1, 69, 64
3, 92540, Note_off_c, 1, 61, 64
3, 92544, Note_on_c, 1, 71, 82
3, 92576, Note_off_c, 1, 71, 64
3, 92576, Note_on_c, 1, 73, 82
3, 92608, Note_off_c, 1, 73, 64
3, 92608, Note_on_c, 1, 71, 82
3, 92640, Note_off_c, 1, 71, 64
3, 92640, Note_on_c, 1, 73, 82
3, 92672, Note_off_c, 1, 73, 64
3, 92672, Note_on_c, 1, 71, 82
3, 92704, Note_off_c, 1, 71, 64
3, 92704, Note_on_c, 1, 73, 82
3, 92736, Note_off_c, 1, 73, 64
3, 92736, Note_on_c, 1, 71, 82
3, 92768, Note_off_c, 1, 71, 64
3, 92768, Note_on_c, 1, 73, 82
3, 92800, Note_off_c, 1, 73, 64
3, 92800, Note_on_c, 1, 71, 82
3, 92832, Note_off_c, 1, 71, 64
3, 92832, Note_on_c, 1, 69, 82
3, 92880, Note_off_c, 1, 69, 64
3, 92880, Note_on_c, 1, 71, 82
3, 92928, Note_off_c, 1, 71, 64
3, 92928, Note_on_c, 1, 69, 61
3, 93020, Note_off_c, 1, 69, 64
3, 93024, Note_on_c, 1, 69, 61
3, 93212, Note_off_c, 1, 69, 64
3, 93216, Note_on_c, 1, 67, 61
3, 93404, Note_off_c, 1, 67, 64
3, 93408, Note_on_c, 1, 66, 61
3, 93596, Note_off_c, 1, 66, 64
3, 93600, Note_on_c, 1, 65, 61
3, 93692, Note_off_c, 1, 65, 64
3, 93696, Note_on_c, 1, 65, 61
3, 93788, Note_off_c, 1, 65, 64
3, 93792, Note_on_c, 1, 66, 61
3, 93884, Note_off_c, 1, 66, 64
3, 93888, Note_on_c, 1, 65, 61
3, 93980, Note_off_c, 1, 65, 64
3, 93984, Note_on_c, 1, 66, 61
3, 94076, Note_off_c, 1, 66, 64
3, 94080, Note_on_c, 1, 70, 61
3, 94172, Note_off_c, 1, 70, 64
3, 94176, Note_on_c, 1, 71, 61
3, 94268, Note_off_c, 1, 71, 64
3, 94272, Note_on_c, 1, 70, 61
3, 94272, Note_on_c, 1, 78, 61
3, 94364, Note_off_c, 1, 70, 64
3, 94368, Note_on_c, 1, 71, 61
3, 94460, Note_off_c, 1, 78, 64
3, 94460, Note_off_c, 1, 71, 64
3, 94464, Note_on_c, 1, 65, 61
3, 94556, Note_off_c, 1, 65, 64
3, 94560, Note_on_c, 1, 66, 61
3, 94652, Note_off_c, 1, 66, 64
3, 94656, Note_on_c, 1, 65, 61
3, 94656, Note_on_c, 1, 74, 61
3, 94748, Note_off_c, 1, 65, 64
3, 94752, Note_on_c, 1, 66, 61
3, 94844, Note_off_c, 1, 74, 64
3, 94844, Note_off_c, 1, 66, 64
3, 94848, Note_on_c, 1, 61, 61
3, 94940, Note_off_c, 1, 61, 64
3, 94944, Note_on_c, 1, 62, 61
3, 95036, Note_off_c, 1, 62, 64
3, 95040, Note_on_c, 1, 61, 61
3, 95040, Note_on_c, 1, 71, 61
3, 95132, Note_off_c, 1, 61, 64
3, 95136, Note_on_c, 1, 62, 61
3, 95228, Note_off_c, 1, 71, 64
3, 95228, Note_off_c, 1, 62, 64
3, 95232, Note_on_c, 1, 76, 61
3, 95612, Note_off_c, 1, 76, 64
3, 95616, Note_on_c, 1, 76, 61
3, 95900, Note_off_c, 1, 76, 64
3, 95904, Note_on_c, 1, 78, 61
3, 95996, Note_off_c, 1, 78, 64
3, 96000, Note_on_c, 1, 69, 61
3, 96380, Note_off_c, 1, 69, 64
3, 96384, Note_on_c, 1, 68, 61
3, 96416, Note_off_c, 1, 68, 64
3, 96416, Note_on_c, 1, 69, 61
3, 96448, Note_off_c, 1, 69, 64
3, 96448, Note_on_c, 1, 68, 61
3, 96480, Note_off_c, 1, 68, 64
3, 96480, Note_on_c, 1, 69, 61
3, 96512, Note_off_c, 1, 69, 64
3, 96512, Note_on_c, 1, 68, 61
3, 96544, Note_off_c, 1, 68, 64
3, 96544, Note_on_c, 1, 69, 61
3, 96576, Note_off_c, 1, 69, 64
3, 96576, Note_on_c, 1, 66, 61
3, 96668, Note_off_c, 1, 66, 64
3, 96672, Note_on_c, 1, 68, 61
3, 96764, Note_off_c, 1, 68, 64
3, 96768, Note_on_c, 1, 69, 55
3, 96860, Note_off_c, 1, 69, 64
3, 96864, Note_on_c, 1, 73, 55
3, 96956, Note_off_c, 1, 73, 64
3, 96960, Note_on_c, 1, 76, 55
3, 97052, Note_off_c, 1, 76, 64
3, 97056, Note_on_c, 1, 73, 55
3, 97148, Note_off_c, 1, 73, 64
3, 97248, Note_on_c, 1, 69, 55
3, 97248, Note_on_c, 1, 66, 55
3, 97340, Note_off_c, 1, 69, 64
3, 97340, Note_off_c, 1, 66, 64
3, 97344, Note_on_c, 1, 68, 55
3, 97344, Note_on_c, 1, 64, 55
3, 97436, Note_off_c, 1, 68, 64
3, 97436, Note_off_c, 1, 64, 64
3, 97440, Note_on_c, 1, 66, 55
3, 97440, Note_on_c, 1, 62, 55
3, 97532, Note_off_c, 1, 66, 64
3, 97532, Note_off_c, 1, 62, 64
3, 97536, Note_on_c, 1, 64, 55
3, 97536, Note_on_c, 1, 61, 55
3, 97628, Note_off_c, 1, 64, 64
3, 97628, Note_off_c, 1, 61, 64
3, 97632, Note_on_c, 1, 69, 55
3, 97724, Note_off_c, 1, 69, 64
3, 97728, Note_on_c, 1, 73, 55
3, 97820, Note_off_c, 1, 73, 64
3, 97824, Note_on_c, 1, 69, 55
3, 97916, Note_off_c, 1, 69, 64
3, 98000, Note_on_c, 1, 62, 55
3, 98016, Note_on_c, 1, 66, 55
3, 98092, Note_off_c, 1, 62, 64
3, 98108, Note_off_c, 1, 66, 64
3, 98112, Note_on_c, 1, 64, 55
3, 98112, Note_on_c, 1, 61, 55
3, 98204, Note_off_c, 1, 64, 64
3, 98204, Note_off_c, 1, 61, 64
3, 98208, Note_on_c, 1, 62, 55
3, 98208, Note_on_c, 1, 59, 55
3, 98300, Note_off_c, 1, 62, 64
3, 98300, Note_off_c, 1, 59, 64
3, 98304, Note_on_c, 1, 61, 55
3, 98304, Note_on_c, 1, 57, 55
3, 98396, Note_off_c, 1, 61, 64
3, 98396, Note_off_c, 1, 57, 64
3, 98400, Note_on_c, 1, 64, 55
3, 98492, Note_off_c, 1, 64, 64
3, 98496, Note_on_c, 1, 69, 55
3, 98588, Note_off_c, 1, 69, 64
3, 98592, Note_on_c, 1, 64, 55
3, 98684, Note_off_c, 1, 64, 64
3, 98784, Note_on_c, 1, 62, 55
3, 98876, Note_off_c, 1, 62, 64
3, 98880, Note_on_c, 1, 64, 55
3, 98972, Note_off_c, 1, 64, 64
3, 98976, Note_on_c, 1, 66, 55
3, 99068, Note_off_c, 1, 66, 64
3, 99072, Note_on_c, 1, 64, 55
3, 99164, Note_off_c, 1, 64, 64
3, 99168, Note_on_c, 1, 61, 55
3, 99260, Note_off_c, 1, 61, 64
3, 99264, Note_on_c, 1, 64, 55
3, 99264, Note_on_c, 1, 62, 55
3, 99356, Note_off_c, 1, 64, 64
3, 99360, Note_on_c, 1, 59, 55
3, 99452, Note_off_c, 1, 62, 64
3, 99452, Note_off_c, 1, 59, 64
3, 99456, Note_on_c, 1, 57, 55
3, 99456, Note_on_c, 1, 61, 55
3, 99548, Note_off_c, 1, 57, 64
3, 99548, Note_off_c, 1, 61, 64
3, 99552, Note_on_c, 1, 64, 55
3, 99552, Note_on_c, 1, 69, 55
3, 99644, Note_off_c, 1, 64, 64
3, 99644, Note_off_c, 1, 69, 64
3, 99648, Note_on_c, 1, 62, 55
3, 99648, Note_on_c, 1, 68, 55
3, 99740, Note_off_c, 1, 62, 64
3, 99740, Note_off_c, 1, 68, 64
3, 99744, Note_on_c, 1, 69, 55
3, 99744, Note_on_c, 1, 61, 55
3, 99836, Note_off_c, 1, 69, 64
3, 99836, Note_off_c, 1, 61, 64
3, 99840, Note_on_c, 1, 68, 55
3, 99840, Note_on_c, 1, 59, 55
3, 100220, Note_off_c, 1, 68, 64
3, 100220, Note_off_c, 1, 59, 64
3, 100416, Note_on_c, 1, 71, 68
3, 100416, Note_on_c, 1, 68, 68
3, 100416, Note_on_c, 1, 64, 68
3, 100604, Note_off_c, 1, 71, 64
3, 100604, Note_off_c, 1, 68, 64
3, 100604, Note_off_c, 1, 64, 64
3, 100608, Note_on_c, 1, 73, 68
3, 100608, Note_on_c, 1, 69, 68
3, 100608, Note_on_c, 1, 64, 68
3, 100988, Note_off_c, 1, 73, 64
3, 100988, Note_off_c, 1, 69, 64
3, 100988, Note_off_c, 1, 64, 64
3, 101184, Note_on_c, 1, 73, 68
3, 101184, Note_on_c, 1, 69, 68
3, 101184, Note_on_c, 1, 64, 68
3, 101372, Note_off_c, 1, 73, 64
3, 101372, Note_off_c, 1, 69, 64
3, 101372, Note_off_c, 1, 64, 64
3, 101376, Note_on_c, 1, 74, 68
3, 101376, Note_on_c, 1, 66, 68
3, 101564, Note_off_c, 1, 66, 64
3, 101568, Note_on_c, 1, 64, 68
3, 101660, Note_off_c, 1, 64, 64
3, 101664, Note_on_c, 1, 62, 68
3, 101756, Note_off_c, 1, 74, 64
3, 101756, Note_off_c, 1, 62, 64
3, 101760, Note_on_c, 1, 62, 68
3, 101852, Note_off_c, 1, 62, 64
3, 101856, Note_on_c, 1, 61, 68
3, 101948, Note_off_c, 1, 61, 64
3, 101952, Note_on_c, 1, 68, 68
3, 101952, Note_on_c, 1, 61, 68
3, 102044, Note_off_c, 1, 61, 64
3, 102048, Note_on_c, 1, 59, 68
3, 102140, Note_off_c, 1, 68, 64
3, 102140, Note_off_c, 1, 59, 64
3, 102144, Note_on_c, 1, 69, 68
3, 102144, Note_on_c, 1, 57, 68
3, 102236, Note_off_c, 1, 57, 64
3, 102240, Note_on_c, 1, 59, 68
3, 102332, Note_off_c, 1, 59, 64
3, 102336, Note_on_c, 1, 60, 68
3, 102428, Note_off_c, 1, 60, 64
3, 102432, Note_on_c, 1, 61, 68
3, 102524, Note_off_c, 1, 69, 64
3, 102524, Note_off_c, 1, 61, 64
3, 102528, Note_on_c, 1, 61, 68
3, 102620, Note_off_c, 1, 61, 64
3, 102624, Note_on_c, 1, 73, 68
3, 102624, Note_on_c, 1, 64, 68
3, 102716, Note_off_c, 1, 73, 64
3, 102716, Note_off_c, 1, 64, 64
3, 102720, Note_on_c, 1, 71, 68
3, 102720, Note_on_c, 1, 62, 68
3, 102812, Note_off_c, 1, 71, 64
3, 102812, Note_off_c, 1, 62, 64
3, 102816, Note_on_c, 1, 69, 68
3, 102816, Note_on_c, 1, 61, 68
3, 102908, Note_off_c, 1, 69, 64
3, 102908, Note_off_c, 1, 61, 64
3, 102912, Note_on_c, 1, 68, 61
3, 102912, Note_on_c, 1, 59, 61
3, 103292, Note_off_c, 1, 68, 64
3, 103292, Note_off_c, 1, 59, 64
3, 103488, Note_on_c, 1, 71, 61
3, 103488, Note_on_c, 1, 68, 61
3, 103488, Note_on_c, 1, 64, 61
3, 103676, Note_off_c, 1, 71, 64
3, 103676, Note_off_c, 1, 68, 64
3, 103676, Note_off_c, 1, 64, 64
3, 103680, Note_on_c, 1, 73, 61
3, 103680, Note_on_c, 1, 69, 61
3, 103680, Note_on_c, 1, 64, 61
3, 104060, Note_off_c, 1, 73, 64
3, 104060, Note_off_c, 1, 69, 64
3, 104060, Note_off_c, 1, 64, 64
3, 104256, Note_on_c, 1, 69, 61
3, 104256, Note_on_c, 1, 64, 61
3, 104256, Note_on_c, 1, 61, 61
3, 104444, Note_off_c, 1, 69, 64
3, 104444, Note_off_c, 1, 64, 64
3, 104444, Note_off_c, 1, 61, 64
3, 104448, Note_on_c, 1, 66, 61
3, 104448, Note_on_c, 1, 62, 61
3, 104732, Note_off_c, 1, 66, 64
3, 104736, Note_on_c, 1, 74, 61
3, 104828, Note_off_c, 1, 62, 64
3, 104828, Note_off_c, 1, 74, 64
3, 104832, Note_on_c, 1, 74, 61
3, 105008, Note_on_c, 1, 64, 61
3, 105020, Note_off_c, 1, 74, 64
3, 105024, Note_on_c, 1, 73, 61
3, 105024, Note_on_c, 1, 67, 61
3, 105164, Note_off_c, 1, 73, 64
3, 105168, Note_on_c, 1, 71, 61
3, 105196, Note_off_c, 1, 64, 64
3, 105212, Note_off_c, 1, 67, 64
3, 105212, Note_off_c, 1, 71, 64
3, 105216, Note_on_c, 1, 69, 61
3, 105216, Note_on_c, 1, 64, 61
3, 105404, Note_off_c, 1, 69, 64
3, 105404, Note_off_c, 1, 64, 64
3, 105408, Note_on_c, 1, 64, 61
3, 105408, Note_on_c, 1, 61, 61
3, 105408, Note_on_c, 1, 57, 61
3, 105596, Note_off_c, 1, 64, 64
3, 105596, Note_off_c, 1, 61, 64
3, 105596, Note_off_c, 1, 57, 64
3, 105600, Note_on_c, 1, 57, 82
3, 105660, Note_off_c, 1, 57, 64
3, 105664, Note_on_c, 1, 59, 82
3, 105724, Note_off_c, 1, 59, 64
3, 105728, Note_on_c, 1, 57, 82
3, 105788, Note_off_c, 1, 57, 64
3, 105792, Note_on_c, 1, 59, 82
3, 105852, Note_off_c, 1, 59, 64
3, 105856, Note_on_c, 1, 60, 82
3, 105916, Note_off_c, 1, 60, 64
3, 105920, Note_on_c, 1, 59, 82
3, 105980, Note_off_c, 1, 59, 64
3, 105984, Note_on_c, 1, 60, 82
3, 106364, Note_off_c, 1, 60, 64
3, 106736, Note_on_c, 1, 64, 61
3, 106752, Note_on_c, 1, 73, 61
3, 106924, Note_off_c, 1, 64, 64
3, 106928, Note_on_c, 1, 62, 61
3, 106940, Note_off_c, 1, 73, 64
3, 106944, Note_on_c, 1, 71, 61
3, 107116, Note_off_c, 1, 62, 64
3, 107132, Note_off_c, 1, 71, 64
3, 107136, Note_on_c, 1, 70, 61
3, 107136, Note_on_c, 1, 61, 61
3, 107312, Note_on_c, 1, 59, 61
3, 107324, Note_off_c, 1, 70, 64
3, 107324, Note_off_c, 1, 61, 64
3, 107328, Note_on_c, 1, 67, 61
3, 107500, Note_off_c, 1, 59, 64
3, 107516, Note_off_c, 1, 67, 64
3, 107520, Note_on_c, 1, 66, 61
3, 107520, Note_on_c, 1, 58, 61
3, 107696, Note_on_c, 1, 58, 61
3, 107708, Note_off_c, 1, 66, 64
3, 107708, Note_off_c, 1, 58, 64
3, 107712, Note_on_c, 1, 64, 61
3, 107900, Note_off_c, 1, 64, 64
3, 107904, Note_on_c, 1, 62, 61
3, 108076, Note_off_c, 1, 58, 64
3, 108092, Note_off_c, 1, 62, 64
3, 108096, Note_on_c, 1, 61, 61
3, 108096, Note_on_c, 1, 58, 61
3, 108284, Note_off_c, 1, 61, 64
3, 108284, Note_off_c, 1, 58, 64
3, 108288, Note_on_c, 1, 59, 61
3, 108476, Note_off_c, 1, 59, 64
3, 108480, Note_on_c, 1, 66, 61
3, 108480, Note_on_c, 1, 62, 61
3, 108624, Note_on_c, 1, 64, 61
3, 108624, Note_on_c, 1, 61, 61
3, 108668, Note_off_c, 1, 64, 64
3, 108668, Note_off_c, 1, 61, 64
3, 108672, Note_on_c, 1, 62, 61
3, 108672, Note_on_c, 1, 59, 61
3, 108764, Note_off_c, 1, 66, 64
3, 108764, Note_off_c, 1, 62, 64
3, 108860, Note_off_c, 1, 62, 64
3, 108860, Note_off_c, 1, 59, 64
3, 109056, Note_on_c, 1, 74, 61
3, 109056, Note_on_c, 1, 71, 61
3, 109244, Note_off_c, 1, 74, 64
3, 109244, Note_off_c, 1, 71, 64
3, 109248, Note_on_c, 1, 74, 61
3, 109248, Note_on_c, 1, 71, 61
3, 109436, Note_off_c, 1, 74, 64
3, 109436, Note_off_c, 1, 71, 64
3, 109440, Note_on_c, 1, 74, 61
3, 109440, Note_on_c, 1, 71, 61
3, 109628, Note_off_c, 1, 74, 64
3, 109628, Note_off_c, 1, 71, 64
3, 109632, Note_on_c, 1, 74, 61
3, 109632, Note_on_c, 1, 71, 61
3, 109820, Note_off_c, 1, 74, 64
3, 109820, Note_off_c, 1, 71, 64
3, 109824, Note_on_c, 1, 74, 61
3, 109824, Note_on_c, 1, 71, 61
3, 110012, Note_off_c, 1, 74, 64
3, 110012, Note_off_c, 1, 71, 64
3, 110016, Note_on_c, 1, 74, 61
3, 110016, Note_on_c, 1, 71, 61
3, 110192, Note_on_c, 1, 71, 61
3, 110204, Note_off_c, 1, 74, 64
3, 110204, Note_off_c, 1, 71, 64
3, 110208, Note_on_c, 1, 74, 61
3, 110380, Note_off_c, 1, 71, 64
3, 110396, Note_off_c, 1, 74, 64
3, 110400, Note_on_c, 1, 73, 61
3, 110400, Note_on_c, 1, 71, 61
3, 110588, Note_off_c, 1, 73, 64
3, 110588, Note_off_c, 1, 71, 64
3, 110592, Note_on_c, 1, 73, 61
3, 110592, Note_on_c, 1, 70, 61
3, 110780, Note_off_c, 1, 73, 64
3, 110780, Note_off_c, 1, 70, 64
3, 110784, Note_on_c, 1, 73, 61
3, 110784, Note_on_c, 1, 70, 61
3, 110960, Note_on_c, 1, 70, 61
3, 110972, Note_off_c, 1, 73, 64
3, 110972, Note_off_c, 1, 70, 64
3, 110976, Note_on_c, 1, 73, 61
3, 111148, Note_off_c, 1, 70, 64
3, 111152, Note_on_c, 1, 69, 61
3, 111164, Note_off_c, 1, 73, 64
3, 111168, Note_on_c, 1, 73, 61
3, 111340, Note_off_c, 1, 69, 64
3, 111344, Note_on_c, 1, 69, 61
3, 111356, Note_off_c, 1, 73, 64
3, 111360, Note_on_c, 1, 72, 61
3, 111532, Note_off_c, 1, 69, 64
3, 111536, Note_on_c, 1, 69, 61
3, 111548, Note_off_c, 1, 72, 64
3, 111552, Note_on_c, 1, 72, 61
3, 111724, Note_off_c, 1, 69, 64
3, 111740, Note_off_c, 1, 72, 64
3, 111744, Note_on_c, 1, 72, 61
3, 111744, Note_on_c, 1, 69, 61
3, 111932, Note_off_c, 1, 72, 64
3, 111932, Note_off_c, 1, 69, 64
3, 111936, Note_on_c, 1, 71, 61
3, 111936, Note_on_c, 1, 69, 61
3, 112124, Note_off_c, 1, 71, 64
3, 112124, Note_off_c, 1, 69, 64
3, 112128, Note_on_c, 1, 71, 61
3, 112128, Note_on_c, 1, 68, 61
3, 112316, Note_off_c, 1, 71, 64
3, 112316, Note_off_c, 1, 68, 64
3, 112320, Note_on_c, 1, 71, 61
3, 112320, Note_on_c, 1, 68, 61
3, 112508, Note_off_c, 1, 71, 64
3, 112508, Note_off_c, 1, 68, 64
3, 112512, Note_on_c, 1, 71, 61
3, 112512, Note_on_c, 1, 68, 61
3, 112700, Note_off_c, 1, 71, 64
3, 112700, Note_off_c, 1, 68, 64
3, 112704, Note_on_c, 1, 71, 61
3, 112704, Note_on_c, 1, 67, 61
3, 112892, Note_off_c, 1, 71, 64
3, 112892, Note_off_c, 1, 67, 64
3, 112896, Note_on_c, 1, 70, 61
3, 112896, Note_on_c, 1, 67, 61
3, 113084, Note_off_c, 1, 70, 64
3, 113084, Note_off_c, 1, 67, 64
3, 113088, Note_on_c, 1, 70, 61
3, 113088, Note_on_c, 1, 67, 61
3, 113276, Note_off_c, 1, 70, 64
3, 113276, Note_off_c, 1, 67, 64
3, 113280, Note_on_c, 1, 70, 61
3, 113280, Note_on_c, 1, 67, 61
3, 113468, Note_off_c, 1, 70, 64
3, 113468, Note_off_c, 1, 67, 64
3, 113472, Note_on_c, 1, 69, 61
3, 113472, Note_on_c, 1, 67, 61
3, 113660, Note_off_c, 1, 69, 64
3, 113660, Note_off_c, 1, 67, 64
3, 113664, Note_on_c, 1, 69, 74
3, 113664, Note_on_c, 1, 66, 74
3, 113852, Note_off_c, 1, 69, 64
3, 113852, Note_off_c, 1, 66, 64
3, 113856, Note_on_c, 1, 62, 74
3, 113856, Note_on_c, 1, 60, 74
3, 114236, Note_off_c, 1, 62, 64
3, 114236, Note_off_c, 1, 60, 64
3, 114240, Note_on_c, 1, 62, 74
3, 114240, Note_on_c, 1, 60, 74
3, 114428, Note_off_c, 1, 62, 64
3, 114428, Note_off_c, 1, 60, 64
3, 114432, Note_on_c, 1, 62, 74
3, 114432, Note_on_c, 1, 59, 74
3, 114608, Note_on_c, 1, 62, 74
3, 114608, Note_on_c, 1, 55, 74
3, 114620, Note_off_c, 1, 62, 64
3, 114620, Note_off_c, 1, 59, 64
3, 114624, Note_on_c, 1, 59, 74
3, 114988, Note_off_c, 1, 62, 64
3, 114988, Note_off_c, 1, 55, 64
3, 114992, Note_on_c, 1, 59, 74
3, 115004, Note_off_c, 1, 59, 64
3, 115008, Note_on_c, 1, 62, 74
3, 115008, Note_on_c, 1, 55, 74
3, 115180, Note_off_c, 1, 59, 64
3, 115196, Note_off_c, 1, 62, 64
3, 115196, Note_off_c, 1, 55, 64
3, 115200, Note_on_c, 1, 63, 74
3, 115200, Note_on_c, 1, 59, 74
3, 115200, Note_on_c, 1, 57, 74
3, 115376, Note_on_c, 1, 63, 74
3, 115388, Note_off_c, 1, 63, 64
3, 115388, Note_off_c, 1, 59, 64
3, 115388, Note_off_c, 1, 57, 64
3, 115392, Note_on_c, 1, 59, 74
3, 115392, Note_on_c, 1, 57, 74
3, 115756, Note_off_c, 1, 63, 64
3, 115760, Note_on_c, 1, 59, 74
3, 115760, Note_on_c, 1, 57, 74
3, 115772, Note_off_c, 1, 59, 64
3, 115772, Note_off_c, 1, 57, 64
3, 115776, Note_on_c, 1, 63, 74
3, 115948, Note_off_c, 1, 59, 64
3, 115948, Note_off_c, 1, 57, 64
3, 115964, Note_off_c, 1, 63, 64
3, 115968, Note_on_c, 1, 64, 74
3, 115968, Note_on_c, 1, 59, 74
3, 115968, Note_on_c, 1, 55, 74
3, 116156, Note_off_c, 1, 64, 64
3, 116156, Note_off_c, 1, 59, 64
3, 116156, Note_off_c, 1, 55, 64
3, 116160, Note_on_c, 1, 64, 74
3, 116160, Note_on_c, 1, 59, 74
3, 116160, Note_on_c, 1, 55, 74
3, 116528, Note_on_c, 1, 59, 74
3, 116540, Note_off_c, 1, 64, 64
3, 116540, Note_off_c, 1, 59, 64
3, 116540, Note_off_c, 1, 55, 64
3, 116544, Note_on_c, 1, 64, 74
3, 116544, Note_on_c, 1, 55, 74
3, 116716, Note_off_c, 1, 59, 64
3, 116732, Note_off_c, 1, 64, 64
3, 116732, Note_off_c, 1, 55, 64
3, 116928, Note_on_c, 1, 64, 74
3, 117116, Note_off_c, 1, 64, 64
3, 117120, Note_on_c, 1, 63, 74
3, 117308, Note_off_c, 1, 63, 64
3, 117312, Note_on_c, 1, 72, 74
3, 117500, Note_off_c, 1, 72, 64
3, 117504, Note_on_c, 1, 71, 74
3, 117692, Note_off_c, 1, 71, 64
3, 117696, Note_on_c, 1, 64, 74
3, 117884, Note_off_c, 1, 64, 64
3, 117888, Note_on_c, 1, 63, 74
3, 118076, Note_off_c, 1, 63, 64
3, 118080, Note_on_c, 1, 72, 74
3, 118268, Note_off_c, 1, 72, 64
3, 118272, Note_on_c, 1, 71, 74
3, 118448, Note_on_c, 1, 62, 82
3, 118460, Note_off_c, 1, 71, 64
3, 118828, Note_off_c, 1, 62, 64
3, 118848, Note_on_c, 1, 64, 82
3, 118940, Note_off_c, 1, 64, 64
3, 118944, Note_on_c, 1, 66, 82
3, 119036, Note_off_c, 1, 66, 64
3, 119040, Note_on_c, 1, 64, 61
3, 119228, Note_off_c, 1, 64, 64
3, 119232, Note_on_c, 1, 69, 61
3, 119232, Note_on_c, 1, 61, 61
3, 119420, Note_off_c, 1, 69, 64
3, 119420, Note_off_c, 1, 61, 64
3, 119424, Note_on_c, 1, 67, 61
3, 119424, Note_on_c, 1, 61, 61
3, 119612, Note_off_c, 1, 67, 64
3, 119612, Note_off_c, 1, 61, 64
3, 119616, Note_on_c, 1, 67, 61
3, 119616, Note_on_c, 1, 61, 61
3, 119804, Note_off_c, 1, 67, 64
3, 119804, Note_off_c, 1, 61, 64
3, 119808, Note_on_c, 1, 65, 61
3, 119808, Note_on_c, 1, 62, 61
3, 119996, Note_off_c, 1, 65, 64
3, 119996, Note_off_c, 1, 62, 64
3, 120000, Note_on_c, 1, 65, 61
3, 120000, Note_on_c, 1, 62, 61
3, 120188, Note_off_c, 1, 65, 64
3, 120188, Note_off_c, 1, 62, 64
3, 120192, Note_on_c, 1, 63, 61
3, 120192, Note_on_c, 1, 60, 61
3, 120380, Note_off_c, 1, 63, 64
3, 120380, Note_off_c, 1, 60, 64
3, 120384, Note_on_c, 1, 63, 61
3, 120384, Note_on_c, 1, 60, 61
3, 120572, Note_off_c, 1, 63, 64
3, 120572, Note_off_c, 1, 60, 64
3, 120576, Note_on_c, 1, 62, 61
3, 120576, Note_on_c, 1, 59, 61
3, 120764, Note_off_c, 1, 62, 64
3, 120764, Note_off_c, 1, 59, 64
3, 120768, Note_on_c, 1, 62, 61
3, 120768, Note_on_c, 1, 59, 61
3, 120956, Note_off_c, 1, 62, 64
3, 120956, Note_off_c, 1, 59, 64
3, 120960, Note_on_c, 1, 62, 61
3, 120960, Note_on_c, 1, 58, 61
3, 121148, Note_off_c, 1, 62, 64
3, 121148, Note_off_c, 1, 58, 64
3, 121152, Note_on_c, 1, 62, 61
3, 121152, Note_on_c, 1, 58, 61
3, 121340, Note_off_c, 1, 62, 64
3, 121340, Note_off_c, 1, 58, 64
3, 121344, Note_on_c, 1, 61, 61
3, 121344, Note_on_c, 1, 57, 61
3, 121532, Note_off_c, 1, 61, 64
3, 121532, Note_off_c, 1, 57, 64
3, 121536, Note_on_c, 1, 69, 82
3, 121536, Note_on_c, 1, 81, 82
3, 121676, Note_off_c, 1, 69, 64
3, 121676, Note_off_c, 1, 81, 64
3, 121680, Note_on_c, 1, 81, 82
3, 121680, Note_on_c, 1, 69, 82
3, 121724, Note_off_c, 1, 81, 64
3, 121724, Note_off_c, 1, 69, 64
3, 121728, Note_on_c, 1, 81, 82
3, 121728, Note_on_c, 1, 69, 82
3, 121916, Note_off_c, 1, 81, 64
3, 121916, Note_off_c, 1, 69, 64
3, 121920, Note_on_c, 1, 81, 82
3, 121920, Note_on_c, 1, 69, 82
3, 122108, Note_off_c, 1, 81, 64
3, 122108, Note_off_c, 1, 69, 64
3, 122112, Note_on_c, 1, 86, 82
3, 122112, Note_on_c, 1, 74, 82
3, 122492, Note_off_c, 1, 86, 64
3, 122492, Note_off_c, 1, 74, 64
3, 122496, Note_on_c, 1, 80, 82
3, 122496, Note_on_c, 1, 68, 82
3, 122876, Note_off_c, 1, 80, 64
3, 122876, Note_off_c, 1, 68, 64
3, 122880, Note_on_c, 1, 81, 82
3, 122880, Note_on_c, 1, 69, 82
3, 123056, Note_on_c, 1, 81, 61
3, 123068, Note_off_c, 1, 81, 64
3, 123068, Note_off_c, 1, 69, 64
3, 123196, Note_off_c, 1, 81, 64
3, 123216, Note_on_c, 1, 81, 61
3, 123260, Note_off_c, 1, 81, 64
3, 123264, Note_on_c, 1, 81, 61
3, 123452, Note_off_c, 1, 81, 64
3, 123456, Note_on_c, 1, 81, 61
3, 123644, Note_off_c, 1, 81, 64
3, 123648, Note_on_c, 1, 86, 61
3, 123648, Note_on_c, 1, 74, 61
3, 124028, Note_off_c, 1, 86, 64
3, 124028, Note_off_c, 1, 74, 64
3, 124032, Note_on_c, 1, 80, 61
3, 124032, Note_on_c, 1, 68, 61
3, 124412, Note_off_c, 1, 80, 64
3, 124412, Note_off_c, 1, 68, 64
3, 124416, Note_on_c, 1, 81, 61
3, 124604, Note_off_c, 1, 81, 64
3, 124608, Note_on_c, 1, 69, 82
3, 124748, Note_off_c, 1, 69, 64
3, 124752, Note_on_c, 1, 69, 82
3, 124796, Note_off_c, 1, 69, 64
3, 124800, Note_on_c, 1, 69, 82
3, 124988, Note_off_c, 1, 69, 64
3, 124992, Note_on_c, 1, 69, 82
3, 125180, Note_off_c, 1, 69, 64
3, 125184, Note_on_c, 1, 74, 82
3, 125372, Note_off_c, 1, 74, 64
3, 125376, Note_on_c, 1, 78, 82
3, 125468, Note_off_c, 1, 78, 64
3, 125472, Note_on_c, 1, 69, 82
3, 125564, Note_off_c, 1, 69, 64
3, 125568, Note_on_c, 1, 74, 82
3, 125660, Note_off_c, 1, 74, 64
3, 125664, Note_on_c, 1, 69, 82
3, 125756, Note_off_c, 1, 69, 64
3, 125760, Note_on_c, 1, 66, 82
3, 125852, Note_off_c, 1, 66, 64
3, 125856, Note_on_c, 1, 62, 82
3, 125948, Note_off_c, 1, 62, 64
3, 125952, Note_on_c, 1, 57, 82
3, 126140, Note_off_c, 1, 57, 64
3, 126144, Note_on_c, 1, 64, 61
3, 126144, Note_on_c, 1, 61, 61
3, 126236, Note_off_c, 1, 64, 64
3, 126236, Note_off_c, 1, 61, 64
3, 126240, Note_on_c, 1, 62, 61
3, 126240, Note_on_c, 1, 59, 61
3, 126332, Note_off_c, 1, 62, 64
3, 126332, Note_off_c, 1, 59, 64
3, 126336, Note_on_c, 1, 62, 82
3, 126336, Note_on_c, 1, 59, 82
3, 126428, Note_off_c, 1, 62, 64
3, 126428, Note_off_c, 1, 59, 64
3, 126432, Note_on_c, 1, 61, 82
3, 126432, Note_on_c, 1, 57, 82
3, 126524, Note_off_c, 1, 61, 64
3, 126524, Note_off_c, 1, 57, 64
3, 126528, Note_on_c, 1, 67, 61
3, 126528, Note_on_c, 1, 64, 61
3, 126620, Note_off_c, 1, 67, 64
3, 126620, Note_off_c, 1, 64, 64
3, 126624, Note_on_c, 1, 66, 61
3, 126624, Note_on_c, 1, 62, 61
3, 126716, Note_off_c, 1, 66, 64
3, 126716, Note_off_c, 1, 62, 64
3, 126720, Note_on_c, 1, 66, 82
3, 126720, Note_on_c, 1, 62, 82
3, 126812, Note_off_c, 1, 66, 64
3, 126812, Note_off_c, 1, 62, 64
3, 126816, Note_on_c, 1, 64, 82
3, 126816, Note_on_c, 1, 61, 82
3, 126908, Note_off_c, 1, 64, 64
3, 126908, Note_off_c, 1, 61, 64
3, 126912, Note_on_c, 1, 76, 61
3, 126912, Note_on_c, 1, 67, 61
3, 127004, Note_off_c, 1, 76, 64
3, 127004, Note_off_c, 1, 67, 64
3, 127008, Note_on_c, 1, 74, 61
3, 127008, Note_on_c, 1, 66, 61
3, 127100, Note_off_c, 1, 74, 64
3, 127100, Note_off_c, 1, 66, 64
3, 127104, Note_on_c, 1, 74, 82
3, 127104, Note_on_c, 1, 66, 82
3, 127196, Note_off_c, 1, 74, 64
3, 127196, Note_off_c, 1, 66, 64
3, 127200, Note_on_c, 1, 73, 82
3, 127200, Note_on_c, 1, 64, 82
3, 127292, Note_off_c, 1, 73, 64
3, 127292, Note_off_c, 1, 64, 64
3, 127296, Note_on_c, 1, 79, 61
3, 127296, Note_on_c, 1, 76, 61
3, 127388, Note_off_c, 1, 79, 64
3, 127388, Note_off_c, 1, 76, 64
3, 127392, Note_on_c, 1, 76, 61
3, 127392, Note_on_c, 1, 73, 61
3, 127484, Note_off_c, 1, 76, 64
3, 127484, Note_off_c, 1, 73, 64
3, 127488, Note_on_c, 1, 74, 82
3, 127868, Note_off_c, 1, 74, 64
3, 127888, Note_on_c, 1, 69, 82
3, 128160, Note_on_c, 1, 69, 82
3, 128172, Note_off_c, 1, 69, 64
3, 128252, Note_off_c, 1, 69, 64
3, 128256, Note_on_c, 1, 66, 82
3, 128444, Note_off_c, 1, 66, 64
3, 128448, Note_on_c, 1, 62, 82
3, 128636, Note_off_c, 1, 62, 64
3, 129216, Note_on_c, 1, 62, 61
3, 129404, Note_off_c, 1, 62, 64
3, 129408, Note_on_c, 1, 62, 61
3, 129596, Note_off_c, 1, 62, 64
3, 129984, Note_on_c, 1, 62, 61
3, 130172, Note_off_c, 1, 62, 64
3, 130176, Note_on_c, 1, 62, 61
3, 130364, Note_off_c, 1, 62, 64
3, 130768, Note_on_c, 1, 74, 61
3, 131136, Note_on_c, 1, 73, 61
3, 131148, Note_off_c, 1, 74, 64
3, 131324, Note_off_c, 1, 73, 64
3, 131328, Note_on_c, 1, 74, 61
3, 131516, Note_off_c, 1, 74, 64
3, 131520, Note_on_c, 1, 66, 61
3, 131552, Note_off_c, 1, 66, 64
3, 131556, Note_on_c, 1, 67, 61
3, 131588, Note_off_c, 1, 67, 64
3, 131592, Note_on_c, 1, 66, 61
3, 131624, Note_off_c, 1, 66, 64
3, 131628, Note_on_c, 1, 67, 61
3, 131660, Note_off_c, 1, 67, 64
3, 131664, Note_on_c, 1, 67, 61
3, 131712, Note_off_c, 1, 67, 64
3, 131712, Note_on_c, 1, 69, 61
3, 131900, Note_off_c, 1, 69, 64
3, 131904, Note_on_c, 1, 62, 61
3, 131964, Note_off_c, 1, 62, 64
3, 131968, Note_on_c, 1, 64, 61
3, 132028, Note_off_c, 1, 64, 64
3, 132032, Note_on_c, 1, 62, 61
3, 132092, Note_off_c, 1, 62, 64
3, 132096, Note_on_c, 1, 67, 61
3, 132284, Note_off_c, 1, 67, 64
3, 132672, Note_on_c, 1, 62, 61
3, 132732, Note_off_c, 1, 62, 64
3, 132736, Note_on_c, 1, 64, 61
3, 132796, Note_off_c, 1, 64, 64
3, 132800, Note_on_c, 1, 62, 61
3, 132860, Note_off_c, 1, 62, 64
3, 132864, Note_on_c, 1, 71, 61
3, 133052, Note_off_c, 1, 71, 64
3, 133440, Note_on_c, 1, 74, 61
3, 133500, Note_off_c, 1, 74, 64
3, 133504, Note_on_c, 1, 73, 61
3, 133564, Note_off_c, 1, 73, 64
3, 133568, Note_on_c, 1, 71, 61
3, 133628, Note_off_c, 1, 71, 64
3, 133632, Note_on_c, 1, 69, 61
3, 133820, Note_off_c, 1, 69, 64
3, 133824, Note_on_c, 1, 74, 61
3, 134012, Note_off_c, 1, 74, 64
3, 134016, Note_on_c, 1, 74, 61
3, 134204, Note_off_c, 1, 74, 64
3, 134208, Note_on_c, 1, 74, 61
3, 134396, Note_off_c, 1, 74, 64
3, 134400, Note_on_c, 1, 67, 62
3, 134588, Note_off_c, 1, 67, 64
3, 134592, Note_on_c, 1, 67, 62
3, 134780, Note_off_c, 1, 67, 64
3, 134784, Note_on_c, 1, 67, 63
3, 134972, Note_off_c, 1, 67, 64
3, 134976, Note_on_c, 1, 67, 66
3, 135164, Note_off_c, 1, 67, 64
3, 135168, Note_on_c, 1, 67, 67
3, 135356, Note_off_c, 1, 67, 64
3, 135360, Note_on_c, 1, 64, 67
3, 135548, Note_off_c, 1, 64, 64
3, 135552, Note_on_c, 1, 64, 68
3, 135740, Note_off_c, 1, 64, 64
3, 135744, Note_on_c, 1, 61, 69
3, 135932, Note_off_c, 1, 61, 64
3, 135936, Note_on_c, 1, 61, 71
3, 136124, Note_off_c, 1, 61, 64
3, 136128, Note_on_c, 1, 76, 71
3, 136316, Note_off_c, 1, 76, 64
3, 136320, Note_on_c, 1, 76, 72
3, 136508, Note_off_c, 1, 76, 64
3, 136512, Note_on_c, 1, 73, 73
3, 136700, Note_off_c, 1, 73, 64
3, 136704, Note_on_c, 1, 74, 74
3, 136892, Note_off_c, 1, 74, 64
3, 136960, Note_on_c, 1, 69, 74
3, 137020, Note_off_c, 1, 69, 64
3, 137024, Note_on_c, 1, 66, 74
3, 137084, Note_off_c, 1, 66, 64
3, 137088, Note_on_c, 1, 67, 74
3, 137276, Note_off_c, 1, 67, 64
3, 137280, Note_on_c, 1, 73, 74
3, 137312, Note_off_c, 1, 73, 64
3, 137312, Note_on_c, 1, 74, 74
3, 137344, Note_off_c, 1, 74, 64
3, 137344, Note_on_c, 1, 73, 74
3, 137376, Note_off_c, 1, 73, 64
3, 137376, Note_on_c, 1, 74, 74
3, 137408, Note_off_c, 1, 74, 64
3, 137408, Note_on_c, 1, 71, 74
3, 137440, Note_off_c, 1, 71, 64
3, 137440, Note_on_c, 1, 73, 74
3, 137472, Note_off_c, 1, 73, 64
3, 137472, Note_on_c, 1, 74, 74
3, 137660, Note_off_c, 1, 74, 64
3, 137728, Note_on_c, 1, 69, 74
3, 137788, Note_off_c, 1, 69, 64
3, 137792, Note_on_c, 1, 66, 74
3, 137852, Note_off_c, 1, 66, 64
3, 137856, Note_on_c, 1, 67, 74
3, 138044, Note_off_c, 1, 67, 64
3, 138048, Note_on_c, 1, 73, 74
3, 138080, Note_off_c, 1, 73, 64
3, 138080, Note_on_c, 1, 74, 74
3, 138112, Note_off_c, 1, 74, 64
3, 138112, Note_on_c, 1, 73, 74
3, 138144, Note_off_c, 1, 73, 64
3, 138144, Note_on_c, 1, 74, 74
3, 138176, Note_off_c, 1, 74, 64
3, 138176, Note_on_c, 1, 71, 74
3, 138208, Note_off_c, 1, 71, 64
3, 138224, Note_on_c, 1, 73, 74
3, 138240, Note_on_c, 1, 74, 74
3, 138256, Note_off_c, 1, 73, 64
3, 138620, Note_off_c, 1, 74, 64
3, 138720, Note_on_c, 1, 72, 74
3, 138720, Note_on_c, 1, 69, 74
3, 138800, Note_on_c, 1, 67, 74
3, 138812, Note_off_c, 1, 72, 64
3, 138812, Note_off_c, 1, 69, 64
3, 138816, Note_on_c, 1, 71, 74
3, 138892, Note_off_c, 1, 67, 64
3, 138908, Note_off_c, 1, 71, 64
3, 138912, Note_on_c, 1, 70, 74
3, 138912, Note_on_c, 1, 66, 74
3, 139004, Note_off_c, 1, 70, 64
3, 139004, Note_off_c, 1, 66, 64
3, 139008, Note_on_c, 1, 71, 74
3, 139008, Note_on_c, 1, 67, 74
3, 139184, Note_on_c, 1, 67, 74
3, 139196, Note_off_c, 1, 71, 64
3, 139196, Note_off_c, 1, 67, 64
3, 139200, Note_on_c, 1, 71, 74
3, 139372, Note_off_c, 1, 67, 64
3, 139376, Note_on_c, 1, 67, 74
3, 139388, Note_off_c, 1, 71, 64
3, 139392, Note_on_c, 1, 71, 74
3, 139564, Note_off_c, 1, 67, 64
3, 139568, Note_on_c, 1, 68, 74
3, 139580, Note_off_c, 1, 71, 64
3, 139584, Note_on_c, 1, 74, 74
3, 139756, Note_off_c, 1, 68, 64
3, 139772, Note_off_c, 1, 74, 64
3, 139776, Note_on_c, 1, 69, 74
3, 139776, Note_on_c, 1, 74, 74
3, 139808, Note_off_c, 1, 74, 64
3, 139808, Note_on_c, 1, 76, 74
3, 139840, Note_off_c, 1, 76, 64
3, 139840, Note_on_c, 1, 74, 74
3, 139872, Note_off_c, 1, 74, 64
3, 139872, Note_on_c, 1, 76, 74
3, 139904, Note_off_c, 1, 76, 64
3, 139904, Note_on_c, 1, 74, 74
3, 139936, Note_off_c, 1, 74, 64
3, 139936, Note_on_c, 1, 76, 74
3, 139968, Note_off_c, 1, 76, 64
3, 139968, Note_on_c, 1, 73, 74
3, 140156, Note_off_c, 1, 69, 64
3, 140156, Note_off_c, 1, 73, 64
3, 140160, Note_on_c, 1, 81, 82
3, 140160, Note_on_c, 1, 76, 82
3, 140160, Note_on_c, 1, 73, 82
3, 140160, Note_on_c, 1, 69, 82
3, 140336, Note_on_c, 1, 76, 82
3, 140336, Note_on_c, 1, 73, 82
3, 140336, Note_on_c, 1, 69, 82
3, 140348, Note_off_c, 1, 81, 64
3, 140348, Note_off_c, 1, 76, 64
3, 140348, Note_off_c, 1, 73, 64
3, 140348, Note_off_c, 1, 69, 64
3, 140352, Note_on_c, 1, 81, 82
3, 140524, Note_off_c, 1, 76, 64
3, 140524, Note_off_c, 1, 73, 64
3, 140524, Note_off_c, 1, 69, 64
3, 140528, Note_on_c, 1, 76, 82
3, 140528, Note_on_c, 1, 73, 82
3, 140528, Note_on_c, 1, 69, 82
3, 140540, Note_off_c, 1, 81, 64
3, 140544, Note_on_c, 1, 81, 82
3, 140716, Note_off_c, 1, 76, 64
3, 140716, Note_off_c, 1, 73, 64
3, 140716, Note_off_c, 1, 69, 64
3, 140732, Note_off_c, 1, 81, 64
3, 140736, Note_on_c, 1, 66, 61
3, 140924, Note_off_c, 1, 66, 64
3, 140928, Note_on_c, 1, 66, 61
3, 141116, Note_off_c, 1, 66, 64
3, 141120, Note_on_c, 1, 66, 61
3, 141308, Note_off_c, 1, 66, 64
3, 141312, Note_on_c, 1, 67, 61
3, 141500, Note_off_c, 1, 67, 64
3, 141504, Note_on_c, 1, 67, 61
3, 141692, Note_off_c, 1, 67, 64
3, 141696, Note_on_c, 1, 66, 61
3, 141884, Note_off_c, 1, 66, 64
3, 141888, Note_on_c, 1, 66, 61
3, 142076, Note_off_c, 1, 66, 64
3, 142080, Note_on_c, 1, 64, 61
3, 142268, Note_off_c, 1, 64, 64
3, 142272, Note_on_c, 1, 64, 61
3, 142460, Note_off_c, 1, 64, 64
3, 142464, Note_on_c, 1, 61, 61
3, 142652, Note_off_c, 1, 61, 64
3, 142656, Note_on_c, 1, 61, 61
3, 142844, Note_off_c, 1, 61, 64
3, 142848, Note_on_c, 1, 62, 61
3, 143036, Note_off_c, 1, 62, 64
3, 143040, Note_on_c, 1, 64, 61
3, 143228, Note_off_c, 1, 64, 64
3, 143232, Note_on_c, 1, 66, 61
3, 143324, Note_off_c, 1, 66, 64
3, 143328, Note_on_c, 1, 64, 61
3, 143420, Note_off_c, 1, 64, 64
3, 143424, Note_on_c, 1, 66, 61
3, 143516, Note_off_c, 1, 66, 64
3, 143520, Note_on_c, 1, 67, 61
3, 143612, Note_off_c, 1, 67, 64
3, 143616, Note_on_c, 1, 69, 61
3, 143804, Note_off_c, 1, 69, 64
3, 143808, Note_on_c, 1, 69, 61
3, 143996, Note_off_c, 1, 69, 64
3, 144000, Note_on_c, 1, 69, 61
3, 144188, Note_off_c, 1, 69, 64
3, 144192, Note_on_c, 1, 69, 61
3, 144380, Note_off_c, 1, 69, 64
3, 144384, Note_on_c, 1, 71, 61
3, 144476, Note_off_c, 1, 71, 64
3, 144480, Note_on_c, 1, 67, 61
3, 144572, Note_off_c, 1, 67, 64
3, 144576, Note_on_c, 1, 67, 61
3, 144956, Note_off_c, 1, 67, 64
3, 144960, Note_on_c, 1, 66, 61
3, 145148, Note_off_c, 1, 66, 64
3, 145152, Note_on_c, 1, 66, 61
3, 145328, Note_on_c, 1, 64, 61
3, 145340, Note_off_c, 1, 66, 64
3, 145708, Note_off_c, 1, 64, 64
3, 145728, Note_on_c, 1, 62, 61
3, 145916, Note_off_c, 1, 62, 64
3, 145920, Note_on_c, 1, 62, 61
3, 145952, Note_off_c, 1, 62, 64
3, 145952, Note_on_c, 1, 64, 61
3, 145984, Note_off_c, 1, 64, 64
3, 145984, Note_on_c, 1, 62, 61
3, 146016, Note_off_c, 1, 62, 64
3, 146016, Note_on_c, 1, 64, 61
3, 146048, Note_off_c, 1, 64, 64
3, 146048, Note_on_c, 1, 61, 61
3, 146080, Note_off_c, 1, 61, 64
3, 146080, Note_on_c, 1, 62, 61
3, 146112, Note_off_c, 1, 62, 64
3, 146112, Note_on_c, 1, 61, 61
3, 146300, Note_off_c, 1, 61, 64
3, 146304, Note_on_c, 1, 81, 82
3, 146304, Note_on_c, 1, 76, 82
3, 146304, Note_on_c, 1, 73, 82
3, 146304, Note_on_c, 1, 69, 82
3, 146492, Note_off_c, 1, 81, 64
3, 146492, Note_off_c, 1, 76, 64
3, 146492, Note_off_c, 1, 73, 64
3, 146492, Note_off_c, 1, 69, 64
3, 146496, Note_on_c, 1, 81, 82
3, 146496, Note_on_c, 1, 76, 82
3, 146496, Note_on_c, 1, 73, 82
3, 146496, Note_on_c, 1, 69, 82
3, 146684, Note_off_c, 1, 81, 64
3, 146684, Note_off_c, 1, 76, 64
3, 146684, Note_off_c, 1, 73, 64
3, 146684, Note_off_c, 1, 69, 64
3, 146688, Note_on_c, 1, 81, 82
3, 146688, Note_on_c, 1, 76, 82
3, 146688, Note_on_c, 1, 73, 82
3, 146688, Note_on_c, 1, 69, 82
3, 147068, Note_off_c, 1, 81, 64
3, 147068, Note_off_c, 1, 76, 64
3, 147068, Note_off_c, 1, 73, 64
3, 147068, Note_off_c, 1, 69, 64
3, 147456, Note_on_c, 1, 69, 68
3, 147456, Note_on_c, 1, 67, 68
3, 147456, Note_on_c, 1, 64, 68
3, 147632, Note_on_c, 1, 67, 68
3, 147632, Note_on_c, 1, 64, 68
3, 147644, Note_off_c, 1, 69, 64
3, 147644, Note_off_c, 1, 67, 64
3, 147644, Note_off_c, 1, 64, 64
3, 147648, Note_on_c, 1, 70, 68
3, 147836, Note_off_c, 1, 70, 64
3, 147840, Note_on_c, 1, 69, 68
3, 148012, Note_off_c, 1, 67, 64
3, 148012, Note_off_c, 1, 64, 64
3, 148028, Note_off_c, 1, 69, 64
3, 148032, Note_on_c, 1, 70, 68
3, 148032, Note_on_c, 1, 67, 68
3, 148032, Note_on_c, 1, 64, 68
3, 148220, Note_off_c, 1, 70, 64
3, 148220, Note_off_c, 1, 67, 64
3, 148220, Note_off_c, 1, 64, 64
3, 148224, Note_on_c, 1, 69, 68
3, 148224, Note_on_c, 1, 67, 68
3, 148224, Note_on_c, 1, 64, 68
3, 148604, Note_off_c, 1, 69, 64
3, 148604, Note_off_c, 1, 67, 64
3, 148604, Note_off_c, 1, 64, 64
3, 148992, Note_on_c, 1, 62, 68
3, 148992, Note_on_c, 1, 69, 68
3, 149168, Note_on_c, 1, 69, 68
3, 149180, Note_off_c, 1, 62, 64
3, 149180, Note_off_c, 1, 69, 64
3, 149184, Note_on_c, 1, 64, 68
3, 149372, Note_off_c, 1, 64, 64
3, 149376, Note_on_c, 1, 62, 68
3, 149548, Note_off_c, 1, 69, 64
3, 149564, Note_off_c, 1, 62, 64
3, 149568, Note_on_c, 1, 64, 68
3, 149568, Note_on_c, 1, 69, 68
3, 149756, Note_off_c, 1, 64, 64
3, 149756, Note_off_c, 1, 69, 64
3, 149760, Note_on_c, 1, 69, 68
3, 149760, Note_on_c, 1, 62, 68
3, 150140, Note_off_c, 1, 69, 64
3, 150140, Note_off_c, 1, 62, 64
3, 150528, Note_on_c, 1, 69, 55
3, 150528, Note_on_c, 1, 67, 55
3, 150528, Note_on_c, 1, 64, 55
3, 150716, Note_off_c, 1, 69, 64
3, 150716, Note_off_c, 1, 67, 64
3, 150716, Note_off_c, 1, 64, 64
3, 150720, Note_on_c, 1, 71, 55
3, 150720, Note_on_c, 1, 67, 55
3, 150720, Note_on_c, 1, 64, 55
3, 150908, Note_off_c, 1, 71, 64
3, 150912, Note_on_c, 1, 69, 55
3, 151100, Note_off_c, 1, 67, 64
3, 151100, Note_off_c, 1, 64, 64
3, 151100, Note_off_c, 1, 69, 64
3, 151104, Note_on_c, 1, 71, 55
3, 151104, Note_on_c, 1, 67, 55
3, 151104, Note_on_c, 1, 64, 55
3, 151292, Note_off_c, 1, 71, 64
3, 151292, Note_off_c, 1, 67, 64
3, 151292, Note_off_c, 1, 64, 64
3, 151296, Note_on_c, 1, 69, 55
3, 151296, Note_on_c, 1, 67, 55
3, 151296, Note_on_c, 1, 64, 55
3, 151676, Note_off_c, 1, 69, 64
3, 151676, Note_off_c, 1, 67, 64
3, 151676, Note_off_c, 1, 64, 64
3, 152256, Note_on_c, 1, 66, 55
3, 152256, Note_on_c, 1, 62, 55
3, 152272, Note_on_c, 1, 69, 55
3, 152624, Note_on_c, 1, 66, 55
3, 152636, Note_off_c, 1, 66, 64
3, 152636, Note_off_c, 1, 62, 64
3, 152640, Note_on_c, 1, 69, 55
3, 152640, Note_on_c, 1, 62, 55
3, 152652, Note_off_c, 1, 69, 64
3, 153004, Note_off_c, 1, 66, 64
3, 153008, Note_on_c, 1, 66, 55
3, 153008, Note_on_c, 1, 62, 55
3, 153020, Note_off_c, 1, 69, 64
3, 153020, Note_off_c, 1, 62, 64
3, 153024, Note_on_c, 1, 69, 55
3, 153388, Note_off_c, 1, 66, 64
3, 153388, Note_off_c, 1, 62, 64
3, 153392, Note_on_c, 1, 66, 55
3, 153392, Note_on_c, 1, 62, 55
3, 153404, Note_off_c, 1, 69, 64
3, 153408, Note_on_c, 1, 69, 55
3, 153696, Note_on_c, 1, 66, 74
3, 153696, Note_on_c, 1, 62, 74
3, 153772, Note_off_c, 1, 62, 64
3, 153772, Note_off_c, 1, 66, 64
3, 153788, Note_off_c, 1, 69, 64
3, 153788, Note_off_c, 1, 66, 64
3, 153788, Note_off_c, 1, 62, 64
3, 153792, Note_on_c, 1, 66, 74
3, 153792, Note_on_c, 1, 62, 74
3, 153792, Note_on_c, 1, 57, 74
3, 153884, Note_off_c, 1, 66, 64
3, 153884, Note_off_c, 1, 62, 64
3, 153884, Note_off_c, 1, 57, 64
3, 153888, Note_on_c, 1, 66, 74
3, 153888, Note_on_c, 1, 62, 74
3, 153888, Note_on_c, 1, 57, 74
3, 153980, Note_off_c, 1, 66, 64
3, 153980, Note_off_c, 1, 62, 64
3, 153980, Note_off_c, 1, 57, 64
3, 153984, Note_on_c, 1, 67, 74
3, 153984, Note_on_c, 1, 61, 74
3, 153984, Note_on_c, 1, 57, 74
3, 154076, Note_off_c, 1, 67, 64
3, 154076, Note_off_c, 1, 61, 64
3, 154076, Note_off_c, 1, 57, 64
3, 154080, Note_on_c, 1, 67, 74
3, 154080, Note_on_c, 1, 61, 74
3, 154080, Note_on_c, 1, 57, 74
3, 154172, Note_off_c, 1, 67, 64
3, 154172, Note_off_c, 1, 61, 64
3, 154172, Note_off_c, 1, 57, 64
3, 154176, Note_on_c, 1, 67, 74
3, 154176, Note_on_c, 1, 61, 74
3, 154176, Note_on_c, 1, 57, 74
3, 154268, Note_off_c, 1, 67, 64
3, 154268, Note_off_c, 1, 61, 64
3, 154268, Note_off_c, 1, 57, 64
3, 154272, Note_on_c, 1, 67, 74
3, 154272, Note_on_c, 1, 61, 74
3, 154272, Note_on_c, 1, 57, 74
3, 154364, Note_off_c, 1, 67, 64
3, 154364, Note_off_c, 1, 61, 64
3, 154364, Note_off_c, 1, 57, 64
3, 154368, Note_on_c, 1, 66, 74
3, 154368, Note_on_c, 1, 62, 74
3, 154368, Note_on_c, 1, 57, 74
3, 154748, Note_off_c, 1, 66, 64
3, 154748, Note_off_c, 1, 62, 64
3, 154748, Note_off_c, 1, 57, 64
3, 154944, Note_on_c, 1, 57, 61
3, 155132, Note_off_c, 1, 57, 64
3, 155136, Note_on_c, 1, 57, 61
3, 155228, Note_off_c, 1, 57, 64
3, 155232, Note_on_c, 1, 66, 61
3, 155420, Note_off_c, 1, 66, 64
3, 155424, Note_on_c, 1, 57, 61
3, 155516, Note_off_c, 1, 57, 64
3, 155520, Note_on_c, 1, 57, 61
3, 155612, Note_off_c, 1, 57, 64
3, 155616, Note_on_c, 1, 67, 61
3, 155712, Note_on_c, 1, 61, 61
3, 155804, Note_off_c, 1, 67, 64
3, 155808, Note_on_c, 1, 57, 61
3, 155888, Note_on_c, 1, 62, 61
3, 155900, Note_off_c, 1, 61, 64
3, 155900, Note_off_c, 1, 57, 64
3, 155904, Note_on_c, 1, 57, 61
3, 155996, Note_off_c, 1, 57, 64
3, 156000, Note_on_c, 1, 69, 61
3, 156092, Note_off_c, 1, 69, 64
3, 156096, Note_on_c, 1, 69, 61
3, 156172, Note_off_c, 1, 62, 64
3, 156192, Note_on_c, 1, 64, 61
3, 156192, Note_on_c, 1, 62, 61
3, 156284, Note_off_c, 1, 69, 64
3, 156284, Note_off_c, 1, 64, 64
3, 156284, Note_off_c, 1, 62, 64
3, 156288, Note_on_c, 1, 66, 61
3, 156288, Note_on_c, 1, 62, 61
3, 156476, Note_off_c, 1, 66, 64
3, 156476, Note_off_c, 1, 62, 64
3, 156480, Note_on_c, 1, 57, 61
3, 156668, Note_off_c, 1, 57, 64
3, 156672, Note_on_c, 1, 57, 61
3, 156764, Note_off_c, 1, 57, 64
3, 156768, Note_on_c, 1, 64, 61
3, 156956, Note_off_c, 1, 64, 64
3, 156960, Note_on_c, 1, 57, 61
3, 157052, Note_off_c, 1, 57, 64
3, 157056, Note_on_c, 1, 57, 61
3, 157148, Note_off_c, 1, 57, 64
3, 157168, Note_on_c, 1, 66, 61
3, 157248, Note_on_c, 1, 62, 61
3, 157344, Note_on_c, 1, 57, 61
3, 157356, Note_off_c, 1, 66, 64
3, 157436, Note_off_c, 1, 62, 64
3, 157436, Note_off_c, 1, 57, 64
3, 157440, Note_on_c, 1, 57, 61
3, 157440, Note_on_c, 1, 61, 61
3, 157532, Note_off_c, 1, 57, 64
3, 157536, Note_on_c, 1, 67, 61
3, 157628, Note_off_c, 1, 67, 64
3, 157632, Note_on_c, 1, 67, 61
3, 157724, Note_off_c, 1, 61, 64
3, 157728, Note_on_c, 1, 62, 61
3, 157820, Note_off_c, 1, 67, 64
3, 157820, Note_off_c, 1, 62, 64
3, 157824, Note_on_c, 1, 64, 61
3, 157916, Note_off_c, 1, 64, 64
3, 157920, Note_on_c, 1, 57, 61
3, 158012, Note_off_c, 1, 57, 64
3, 158016, Note_on_c, 1, 64, 61
3, 158016, Note_on_c, 1, 55, 61
3, 158108, Note_off_c, 1, 64, 64
3, 158112, Note_on_c, 1, 61, 61
3, 158204, Note_off_c, 1, 55, 64
3, 158204, Note_off_c, 1, 61, 64
3, 158208, Note_on_c, 1, 62, 61
3, 158208, Note_on_c, 1, 54, 61
3, 158300, Note_off_c, 1, 62, 64
3, 158300, Note_off_c, 1, 54, 64
3, 158304, Note_on_c, 1, 66, 61
3, 158396, Note_off_c, 1, 66, 64
3, 158400, Note_on_c, 1, 66, 61
3, 158492, Note_off_c, 1, 66, 64
3, 158496, Note_on_c, 1, 69, 61
3, 158588, Note_off_c, 1, 69, 64
3, 158592, Note_on_c, 1, 67, 61
3, 158684, Note_off_c, 1, 67, 64
3, 158688, Note_on_c, 1, 64, 61
3, 158780, Note_off_c, 1, 64, 64
3, 158784, Note_on_c, 1, 73, 61
3, 158876, Note_off_c, 1, 73, 64
3, 158880, Note_on_c, 1, 76, 61
3, 158972, Note_off_c, 1, 76, 64
3, 158976, Note_on_c, 1, 66, 61
3, 159068, Note_off_c, 1, 66, 64
3, 159072, Note_on_c, 1, 69, 61
3, 159164, Note_off_c, 1, 69, 64
3, 159168, Note_on_c, 1, 74, 61
3, 159260, Note_off_c, 1, 74, 64
3, 159264, Note_on_c, 1, 69, 61
3, 159356, Note_off_c, 1, 69, 64
3, 159360, Note_on_c, 1, 57, 61
3, 159452, Note_off_c, 1, 57, 64
3, 159456, Note_on_c, 1, 62, 61
3, 159548, Note_off_c, 1, 62, 64
3, 159552, Note_on_c, 1, 66, 61
3, 159644, Note_off_c, 1, 66, 64
3, 159648, Note_on_c, 1, 62, 61
3, 159740, Note_off_c, 1, 62, 64
3, 159744, Note_on_c, 1, 64, 61
3, 159836, Note_off_c, 1, 64, 64
3, 159840, Note_on_c, 1, 57, 61
3, 159932, Note_off_c, 1, 57, 64
3, 159936, Note_on_c, 1, 64, 61
3, 160028, Note_off_c, 1, 64, 64
3, 160032, Note_on_c, 1, 67, 61
3, 160124, Note_off_c, 1, 67, 64
3, 160128, Note_on_c, 1, 66, 61
3, 160220, Note_off_c, 1, 66, 64
3, 160224, Note_on_c, 1, 57, 61
3, 160316, Note_off_c, 1, 57, 64
3, 160320, Note_on_c, 1, 66, 61
3, 160412, Note_off_c, 1, 66, 64
3, 160416, Note_on_c, 1, 69, 61
3, 160508, Note_off_c, 1, 69, 64
3, 160512, Note_on_c, 1, 61, 61
3, 160604, Note_off_c, 1, 61, 64
3, 160608, Note_on_c, 1, 64, 61
3, 160700, Note_off_c, 1, 64, 64
3, 160704, Note_on_c, 1, 67, 61
3, 160796, Note_off_c, 1, 67, 64
3, 160800, Note_on_c, 1, 64, 61
3, 160892, Note_off_c, 1, 64, 64
3, 160896, Note_on_c, 1, 64, 61
3, 160988, Note_off_c, 1, 64, 64
3, 160992, Note_on_c, 1, 67, 61
3, 161084, Note_off_c, 1, 67, 64
3, 161088, Note_on_c, 1, 76, 61
3, 161180, Note_off_c, 1, 76, 64
3, 161184, Note_on_c, 1, 73, 61
3, 161276, Note_off_c, 1, 73, 64
3, 161280, Note_on_c, 1, 74, 61
3, 161372, Note_off_c, 1, 74, 64
3, 161376, Note_on_c, 1, 74, 61
3, 161468, Note_off_c, 1, 74, 64
3, 161472, Note_on_c, 1, 74, 61
3, 161472, Note_on_c, 1, 72, 61
3, 161564, Note_off_c, 1, 74, 64
3, 161568, Note_on_c, 1, 74, 61
3, 161660, Note_off_c, 1, 72, 64
3, 161660, Note_off_c, 1, 74, 64
3, 161664, Note_on_c, 1, 74, 61
3, 161664, Note_on_c, 1, 71, 61
3, 161756, Note_off_c, 1, 74, 64
3, 161760, Note_on_c, 1, 74, 61
3, 161852, Note_off_c, 1, 71, 64
3, 161852, Note_off_c, 1, 74, 64
3, 161856, Note_on_c, 1, 74, 61
3, 161856, Note_on_c, 1, 67, 61
3, 161948, Note_off_c, 1, 74, 64
3, 161952, Note_on_c, 1, 74, 61
3, 162044, Note_off_c, 1, 67, 64
3, 162044, Note_off_c, 1, 74, 64
3, 162048, Note_on_c, 1, 74, 61
3, 162048, Note_on_c, 1, 66, 61
3, 162108, Note_off_c, 1, 74, 64
3, 162112, Note_on_c, 1, 74, 61
3, 162172, Note_off_c, 1, 74, 64
3, 162176, Note_on_c, 1, 73, 61
3, 162236, Note_off_c, 1, 66, 64
3, 162236, Note_off_c, 1, 73, 64
3, 162240, Note_on_c, 1, 74, 61
3, 162240, Note_on_c, 1, 60, 61
3, 162300, Note_off_c, 1, 74, 64
3, 162304, Note_on_c, 1, 69, 61
3, 162364, Note_off_c, 1, 69, 64
3, 162368, Note_on_c, 1, 66, 61
3, 162428, Note_off_c, 1, 60, 64
3, 162428, Note_off_c, 1, 66, 64
3, 162432, Note_on_c, 1, 62, 61
3, 162432, Note_on_c, 1, 59, 61
3, 162620, Note_off_c, 1, 62, 64
3, 162620, Note_off_c, 1, 59, 64
3, 162624, Note_on_c, 1, 55, 61
3, 162812, Note_off_c, 1, 55, 64
3, 162816, Note_on_c, 1, 62, 61
3, 162908, Note_off_c, 1, 62, 64
3, 162912, Note_on_c, 1, 62, 61
3, 163004, Note_off_c, 1, 62, 64
3, 163008, Note_on_c, 1, 62, 61
3, 163100, Note_off_c, 1, 62, 64
3, 163104, Note_on_c, 1, 62, 61
3, 163196, Note_off_c, 1, 62, 64
3, 163200, Note_on_c, 1, 62, 61
3, 163292, Note_off_c, 1, 62, 64
3, 163296, Note_on_c, 1, 62, 61
3, 163388, Note_off_c, 1, 62, 64
3, 163392, Note_on_c, 1, 62, 61
3, 163484, Note_off_c, 1, 62, 64
3, 163488, Note_on_c, 1, 62, 61
3, 163580, Note_off_c, 1, 62, 64
3, 163584, Note_on_c, 1, 62, 61
3, 163644, Note_off_c, 1, 62, 64
3, 163648, Note_on_c, 1, 74, 61
3, 163708, Note_off_c, 1, 74, 64
3, 163712, Note_on_c, 1, 73, 61
3, 163772, Note_off_c, 1, 73, 64
3, 163776, Note_on_c, 1, 74, 61
3, 163836, Note_off_c, 1, 74, 64
3, 163840, Note_on_c, 1, 69, 61
3, 163900, Note_off_c, 1, 69, 64
3, 163904, Note_on_c, 1, 66, 61
3, 163964, Note_off_c, 1, 66, 64
3, 163968, Note_on_c, 1, 62, 61
3, 164156, Note_off_c, 1, 62, 64
3, 164352, Note_on_c, 1, 74, 61
3, 164444, Note_off_c, 1, 74, 64
3, 164448, Note_on_c, 1, 74, 61
3, 164540, Note_off_c, 1, 74, 64
3, 164544, Note_on_c, 1, 74, 61
3, 164544, Note_on_c, 1, 72, 61
3, 164636, Note_off_c, 1, 74, 64
3, 164640, Note_on_c, 1, 74, 61
3, 164732, Note_off_c, 1, 72, 64
3, 164732, Note_off_c, 1, 74, 64
3, 164736, Note_on_c, 1, 74, 61
3, 164736, Note_on_c, 1, 71, 61
3, 164828, Note_off_c, 1, 74, 64
3, 164832, Note_on_c, 1, 74, 61
3, 164924, Note_off_c, 1, 71, 64
3, 164924, Note_off_c, 1, 74, 64
3, 164928, Note_on_c, 1, 74, 61
3, 164928, Note_on_c, 1, 67, 61
3, 165020, Note_off_c, 1, 74, 64
3, 165024, Note_on_c, 1, 74, 61
3, 165116, Note_off_c, 1, 67, 64
3, 165116, Note_off_c, 1, 74, 64
3, 165120, Note_on_c, 1, 74, 62
3, 165120, Note_on_c, 1, 66, 62
3, 165296, Note_on_c, 1, 66, 63
3, 165308, Note_off_c, 1, 74, 64
3, 165308, Note_off_c, 1, 66, 64
3, 165312, Note_on_c, 1, 74, 63
3, 165484, Note_off_c, 1, 66, 64
3, 165488, Note_on_c, 1, 66, 66
3, 165500, Note_off_c, 1, 74, 64
3, 165504, Note_on_c, 1, 74, 66
3, 165676, Note_off_c, 1, 66, 64
3, 165680, Note_on_c, 1, 66, 67
3, 165692, Note_off_c, 1, 74, 64
3, 165696, Note_on_c, 1, 74, 67
3, 165868, Note_off_c, 1, 66, 64
3, 165884, Note_off_c, 1, 74, 64
3, 165888, Note_on_c, 1, 74, 68
3, 165888, Note_on_c, 1, 67, 68
3, 166064, Note_on_c, 1, 74, 69
3, 166076, Note_off_c, 1, 74, 64
3, 166076, Note_off_c, 1, 67, 64
3, 166080, Note_on_c, 1, 71, 69
3, 166268, Note_off_c, 1, 71, 64
3, 166272, Note_on_c, 1, 69, 71
3, 166444, Note_off_c, 1, 74, 64
3, 166448, Note_on_c, 1, 68, 72
3, 166460, Note_off_c, 1, 69, 64
3, 166464, Note_on_c, 1, 74, 72
3, 166636, Note_off_c, 1, 68, 64
3, 166640, Note_on_c, 1, 69, 73
3, 166652, Note_off_c, 1, 74, 64
3, 166656, Note_on_c, 1, 78, 74
3, 166828, Note_off_c, 1, 69, 64
3, 166832, Note_on_c, 1, 69, 74
3, 166844, Note_off_c, 1, 78, 64
3, 166848, Note_on_c, 1, 78, 74
3, 167020, Note_off_c, 1, 69, 64
3, 167024, Note_on_c, 1, 69, 74
3, 167036, Note_off_c, 1, 78, 64
3, 167040, Note_on_c, 1, 73, 74
3, 167212, Note_off_c, 1, 69, 64
3, 167228, Note_off_c, 1, 73, 64
3, 167232, Note_on_c, 1, 73, 74
3, 167232, Note_on_c, 1, 69, 74
3, 167420, Note_off_c, 1, 73, 64
3, 167420, Note_off_c, 1, 69, 64
3, 167424, Note_on_c, 1, 74, 74
3, 167424, Note_on_c, 1, 71, 74
3, 167612, Note_off_c, 1, 74, 64
3, 167612, Note_off_c, 1, 71, 64
3, 168560, Note_on_c, 1, 64, 61
3, 168576, Note_on_c, 1, 74, 61
3, 168576, Note_on_c, 1, 71, 61
3, 168656, Note_on_c, 1, 73, 61
3, 168668, Note_off_c, 1, 74, 64
3, 168668, Note_off_c, 1, 71, 64
3, 168672, Note_on_c, 1, 76, 61
3, 168748, Note_off_c, 1, 73, 64
3, 168764, Note_off_c, 1, 76, 64
3, 168768, Note_on_c, 1, 74, 61
3, 168768, Note_on_c, 1, 71, 61
3, 168860, Note_off_c, 1, 74, 64
3, 168860, Note_off_c, 1, 71, 64
3, 168864, Note_on_c, 1, 76, 61
3, 168864, Note_on_c, 1, 73, 61
3, 168940, Note_off_c, 1, 64, 64
3, 168956, Note_off_c, 1, 76, 64
3, 168956, Note_off_c, 1, 73, 64
3, 168960, Note_on_c, 1, 73, 61
3, 168960, Note_on_c, 1, 69, 61
3, 168960, Note_on_c, 1, 57, 61
3, 169340, Note_off_c, 1, 73, 64
3, 169340, Note_off_c, 1, 69, 64
3, 169340, Note_off_c, 1, 57, 64
3, 170096, Note_on_c, 1, 69, 61
3, 170096, Note_on_c, 1, 57, 61
3, 170112, Note_on_c, 1, 73, 61
3, 170188, Note_off_c, 1, 69, 64
3, 170192, Note_on_c, 1, 67, 61
3, 170204, Note_off_c, 1, 73, 64
3, 170208, Note_on_c, 1, 76, 61
3, 170284, Note_off_c, 1, 67, 64
3, 170288, Note_on_c, 1, 69, 61
3, 170300, Note_off_c, 1, 76, 64
3, 170304, Note_on_c, 1, 74, 61
3, 170380, Note_off_c, 1, 69, 64
3, 170384, Note_on_c, 1, 67, 61
3, 170396, Note_off_c, 1, 74, 64
3, 170400, Note_on_c, 1, 73, 61
3, 170476, Note_off_c, 1, 57, 64
3, 170476, Note_off_c, 1, 67, 64
3, 170492, Note_off_c, 1, 73, 64
3, 170496, Note_on_c, 1, 74, 61
3, 170496, Note_on_c, 1, 66, 61
3, 170496, Note_on_c, 1, 62, 61
3, 170684, Note_off_c, 1, 74, 64
3, 170684, Note_off_c, 1, 66, 64
3, 170684, Note_off_c, 1, 62, 64
3, 170688, Note_on_c, 1, 69, 61
3, 170688, Note_on_c, 1, 66, 61
3, 170748, Note_off_c, 1, 69, 64
3, 170748, Note_off_c, 1, 66, 64
3, 170752, Note_on_c, 1, 69, 61
3, 170752, Note_on_c, 1, 64, 61
3, 170812, Note_off_c, 1, 69, 64
3, 170812, Note_off_c, 1, 64, 64
3, 170816, Note_on_c, 1, 69, 61
3, 170816, Note_on_c, 1, 62, 61
3, 170876, Note_off_c, 1, 69, 64
3, 170876, Note_off_c, 1, 62, 64
3, 170880, Note_on_c, 1, 69, 61
3, 170880, Note_on_c, 1, 61, 61
3, 171068, Note_off_c, 1, 69, 64
3, 171068, Note_off_c, 1, 61, 64
3, 171072, Note_on_c, 1, 69, 61
3, 171072, Note_on_c, 1, 57, 61
3, 171132, Note_off_c, 1, 69, 64
3, 171136, Note_on_c, 1, 69, 61
3, 171196, Note_off_c, 1, 69, 64
3, 171200, Note_on_c, 1, 69, 61
3, 171260, Note_off_c, 1, 57, 64
3, 171260, Note_off_c, 1, 69, 64
3, 171264, Note_on_c, 1, 69, 62
3, 171264, Note_on_c, 1, 62, 62
3, 171452, Note_off_c, 1, 69, 64
3, 171452, Note_off_c, 1, 62, 64
3, 171456, Note_on_c, 1, 69, 63
3, 171456, Note_on_c, 1, 66, 63
3, 171516, Note_off_c, 1, 69, 64
3, 171516, Note_off_c, 1, 66, 64
3, 171520, Note_on_c, 1, 69, 63
3, 171520, Note_on_c, 1, 64, 63
3, 171580, Note_off_c, 1, 69, 64
3, 171580, Note_off_c, 1, 64, 64
3, 171584, Note_on_c, 1, 69, 63
3, 171584, Note_on_c, 1, 62, 63
3, 171644, Note_off_c, 1, 69, 64
3, 171644, Note_off_c, 1, 62, 64
3, 171648, Note_on_c, 1, 69, 66
3, 171648, Note_on_c, 1, 61, 66
3, 171836, Note_off_c, 1, 69, 64
3, 171836, Note_off_c, 1, 61, 64
3, 171840, Note_on_c, 1, 69, 67
3, 171840, Note_on_c, 1, 57, 67
3, 171900, Note_off_c, 1, 69, 64
3, 171904, Note_on_c, 1, 69, 67
3, 171964, Note_off_c, 1, 69, 64
3, 171968, Note_on_c, 1, 69, 68
3, 172028, Note_off_c, 1, 57, 64
3, 172028, Note_off_c, 1, 69, 64
3, 172032, Note_on_c, 1, 69, 68
3, 172032, Note_on_c, 1, 62, 68
3, 172220, Note_off_c, 1, 69, 64
3, 172220, Note_off_c, 1, 62, 64
3, 172224, Note_on_c, 1, 66, 69
3, 172412, Note_off_c, 1, 66, 64
3, 172416, Note_on_c, 1, 67, 71
3, 172604, Note_off_c, 1, 67, 64
3, 172608, Note_on_c, 1, 69, 72
3, 172608, Note_on_c, 1, 73, 72
3, 172796, Note_off_c, 1, 69, 64
3, 172796, Note_off_c, 1, 73, 64
3, 172800, Note_on_c, 1, 62, 74
3, 172800, Note_on_c, 1, 74, 74
3, 172988, Note_off_c, 1, 62, 64
3, 172988, Note_off_c, 1, 74, 64
3, 172992, Note_on_c, 1, 69, 74
3, 172992, Note_on_c, 1, 62, 74
3, 173052, Note_off_c, 1, 69, 64
3, 173056, Note_on_c, 1, 69, 74
3, 173116, Note_off_c, 1, 69, 64
3, 173120, Note_on_c, 1, 69, 74
3, 173180, Note_off_c, 1, 62, 64
3, 173180, Note_off_c, 1, 69, 64
3, 173184, Note_on_c, 1, 69, 74
3, 173184, Note_on_c, 1, 64, 74
3, 173372, Note_off_c, 1, 69, 64
3, 173372, Note_off_c, 1, 64, 64
3, 173376, Note_on_c, 1, 76, 74
3, 173376, Note_on_c, 1, 57, 74
3, 173436, Note_off_c, 1, 76, 64
3, 173440, Note_on_c, 1, 73, 74
3, 173500, Note_off_c, 1, 73, 64
3, 173504, Note_on_c, 1, 76, 74
3, 173564, Note_off_c, 1, 57, 64
3, 173564, Note_off_c, 1, 76, 64
3, 173568, Note_on_c, 1, 74, 74
3, 173568, Note_on_c, 1, 62, 74
3, 173756, Note_off_c, 1, 74, 64
3, 173756, Note_off_c, 1, 62, 64
3, 173760, Note_on_c, 1, 69, 74
3, 173760, Note_on_c, 1, 62, 74
3, 173820, Note_off_c, 1, 69, 64
3, 173824, Note_on_c, 1, 69, 74
3, 173884, Note_off_c, 1, 69, 64
3, 173888, Note_on_c, 1, 69, 74
3, 173948, Note_off_c, 1, 62, 64
3, 173948, Note_off_c, 1, 69, 64
3, 173952, Note_on_c, 1, 69, 74
3, 173952, Note_on_c, 1, 64, 74
3, 174140, Note_off_c, 1, 69, 64
3, 174140, Note_off_c, 1, 64, 64
3, 174144, Note_on_c, 1, 76, 74
3, 174144, Note_on_c, 1, 57, 74
3, 174204, Note_off_c, 1, 76, 64
3, 174208, Note_on_c, 1, 73, 74
3, 174268, Note_off_c, 1, 73, 64
3, 174272, Note_on_c, 1, 76, 74
3, 174332, Note_off_c, 1, 57, 64
3, 174332, Note_off_c, 1, 76, 64
3, 174336, Note_on_c, 1, 74, 74
3, 174336, Note_on_c, 1, 62, 74
3, 174512, Note_on_c, 1, 74, 74
3, 174524, Note_off_c, 1, 74, 64
3, 174524, Note_off_c, 1, 62, 64
3, 174528, Note_on_c, 1, 66, 74
3, 174716, Note_off_c, 1, 66, 64
3, 174720, Note_on_c, 1, 55, 74
3, 174892, Note_off_c, 1, 74, 64
3, 174896, Note_on_c, 1, 59, 74
3, 174908, Note_off_c, 1, 55, 64
3, 174912, Note_on_c, 1, 62, 74
3, 175084, Note_off_c, 1, 59, 64
3, 175100, Note_off_c, 1, 62, 64
3, 175104, Note_on_c, 1, 66, 74
3, 175104, Note_on_c, 1, 62, 74
3, 175104, Note_on_c, 1, 57, 74
3, 175484, Note_off_c, 1, 66, 64
3, 175484, Note_off_c, 1, 62, 64
3, 175484, Note_off_c, 1, 57, 64
3, 176640, Note_on_c, 1, 66, 74
3, 176640, Note_on_c, 1, 62, 74
3, 176732, Note_off_c, 1, 66, 64
3, 176732, Note_off_c, 1, 62, 64
3, 176736, Note_on_c, 1, 57, 74
3, 176828, Note_off_c, 1, 57, 64
3, 176832, Note_on_c, 1, 66, 74
3, 176832, Note_on_c, 1, 62, 74
3, 176924, Note_off_c, 1, 66, 64
3, 176924, Note_off_c, 1, 62, 64
3, 176928, Note_on_c, 1, 57, 74
3, 177020, Note_off_c, 1, 57, 64
3, 177024, Note_on_c, 1, 66, 77
3, 177024, Note_on_c, 1, 62, 77
3, 177116, Note_off_c, 1, 66, 64
3, 177116, Note_off_c, 1, 62, 64
3, 177120, Note_on_c, 1, 57, 77
3, 177212, Note_off_c, 1, 57, 64
3, 177216, Note_on_c, 1, 66, 77
3, 177216, Note_on_c, 1, 62, 77
3, 177308, Note_off_c, 1, 66, 64
3, 177308, Note_off_c, 1, 62, 64
3, 177312, Note_on_c, 1, 57, 78
3, 177392, Note_on_c, 1, 61, 78
3, 177404, Note_off_c, 1, 57, 64
3, 177408, Note_on_c, 1, 67, 78
3, 177408, Note_on_c, 1, 64, 78
3, 177484, Note_off_c, 1, 61, 64
3, 177500, Note_off_c, 1, 67, 64
3, 177500, Note_off_c, 1, 64, 64
3, 177504, Note_on_c, 1, 57, 78
3, 177596, Note_off_c, 1, 57, 64
3, 177600, Note_on_c, 1, 67, 79
3, 177600, Note_on_c, 1, 64, 79
3, 177600, Note_on_c, 1, 61, 79
3, 177692, Note_off_c, 1, 67, 64
3, 177692, Note_off_c, 1, 64, 64
3, 177692, Note_off_c, 1, 61, 64
3, 177696, Note_on_c, 1, 57, 79
3, 177788, Note_off_c, 1, 57, 64
3, 177792, Note_on_c, 1, 73, 79
3, 177792, Note_on_c, 1, 69, 79
3, 177792, Note_on_c, 1, 67, 79
3, 177884, Note_off_c, 1, 73, 64
3, 177884, Note_off_c, 1, 69, 64
3, 177884, Note_off_c, 1, 67, 64
3, 177888, Note_on_c, 1, 64, 80
3, 177980, Note_off_c, 1, 64, 64
3, 177984, Note_on_c, 1, 73, 80
3, 177984, Note_on_c, 1, 69, 80
3, 177984, Note_on_c, 1, 67, 80
3, 178076, Note_off_c, 1, 73, 64
3, 178076, Note_off_c, 1, 69, 64
3, 178076, Note_off_c, 1, 67, 64
3, 178080, Note_on_c, 1, 64, 80
3, 178172, Note_off_c, 1, 64, 64
3, 178176, Note_on_c, 1, 74, 82
3, 178176, Note_on_c, 1, 69, 82
3, 178176, Note_on_c, 1, 66, 82
3, 178176, Note_on_c, 1, 62, 82
3, 178364, Note_off_c, 1, 74, 64
3, 178364, Note_off_c, 1, 69, 64
3, 178364, Note_off_c, 1, 66, 64
3, 178364, Note_off_c, 1, 62, 64
3, 178368, Note_on_c, 1, 62, 82
3, 178428, Note_off_c, 1, 62, 64
3, 178432, Note_on_c, 1, 64, 82
3, 178492, Note_off_c, 1, 64, 64
3, 178496, Note_on_c, 1, 62, 82
3, 178556, Note_off_c, 1, 62, 64
3, 178560, Note_on_c, 1, 61, 82
3, 178620, Note_off_c, 1, 61, 64
3, 178624, Note_on_c, 1, 62, 82
3, 178684, Note_off_c, 1, 62, 64
3, 178688, Note_on_c, 1, 61, 82
3, 178748, Note_off_c, 1, 61, 64
3, 178752, Note_on_c, 1, 59, 82
3, 178812, Note_off_c, 1, 59, 64
3, 178816, Note_on_c, 1, 61, 82
3, 178876, Note_off_c, 1, 61, 64
3, 178880, Note_on_c, 1, 59, 82
3, 178940, Note_off_c, 1, 59, 64
3, 178944, Note_on_c, 1, 57, 82
3, 179120, Note_on_c, 1, 74, 82
3, 179132, Note_off_c, 1, 57, 64
3, 179136, Note_on_c, 1, 86, 82
3, 179196, Note_off_c, 1, 86, 64
3, 179200, Note_on_c, 1, 88, 82
3, 179260, Note_off_c, 1, 88, 64
3, 179264, Note_on_c, 1, 86, 82
3, 179324, Note_off_c, 1, 86, 64
3, 179328, Note_on_c, 1, 85, 82
3, 179328, Note_on_c, 1, 74, 61
3, 179388, Note_off_c, 1, 85, 64
3, 179392, Note_on_c, 1, 86, 82
3, 179452, Note_off_c, 1, 86, 64
3, 179456, Note_on_c, 1, 85, 82
3, 179516, Note_off_c, 1, 74, 64
3, 179516, Note_off_c, 1, 85, 64
3, 179520, Note_on_c, 1, 83, 82
3, 179580, Note_off_c, 1, 83, 64
3, 179584, Note_on_c, 1, 85, 82
3, 179644, Note_off_c, 1, 85, 64
3, 179648, Note_on_c, 1, 83, 82
3, 179692, Note_off_c, 1, 74, 64
3, 179708, Note_off_c, 1, 83, 64
3, 179712, Note_on_c, 1, 81, 82
3, 179712, Note_on_c, 1, 74, 82
3, 179900, Note_off_c, 1, 81, 64
3, 179904, Note_on_c, 1, 83, 82
3, 179964, Note_off_c, 1, 83, 64
3, 179968, Note_on_c, 1, 85, 82
3, 180028, Note_off_c, 1, 85, 64
3, 180032, Note_on_c, 1, 83, 82
3, 180092, Note_off_c, 1, 83, 64
3, 180096, Note_on_c, 1, 81, 82
3, 180156, Note_off_c, 1, 81, 64
3, 180160, Note_on_c, 1, 83, 82
3, 180220, Note_off_c, 1, 83, 64
3, 180224, Note_on_c, 1, 81, 82
3, 180284, Note_off_c, 1, 81, 64
3, 180288, Note_on_c, 1, 79, 82
3, 180348, Note_off_c, 1, 79, 64
3, 180352, Note_on_c, 1, 81, 82
3, 180412, Note_off_c, 1, 81, 64
3, 180416, Note_on_c, 1, 79, 82
3, 180476, Note_off_c, 1, 74, 64
3, 180476, Note_off_c, 1, 79, 64
3, 180480, Note_on_c, 1, 78, 82
3, 180480, Note_on_c, 1, 74, 82
3, 180668, Note_off_c, 1, 78, 64
3, 180668, Note_off_c, 1, 74, 64
3, 180672, Note_on_c, 1, 79, 82
3, 180672, Note_on_c, 1, 74, 82
3, 180732, Note_off_c, 1, 79, 64
3, 180736, Note_on_c, 1, 81, 82
3, 180796, Note_off_c, 1, 81, 64
3, 180800, Note_on_c, 1, 79, 82
3, 180860, Note_off_c, 1, 79, 64
3, 180864, Note_on_c, 1, 78, 82
3, 180924, Note_off_c, 1, 78, 64
3, 180928, Note_on_c, 1, 79, 82
3, 180988, Note_off_c, 1, 79, 64
3, 180992, Note_on_c, 1, 78, 82
3, 181052, Note_off_c, 1, 74, 64
3, 181052, Note_off_c, 1, 78, 64
3, 181056, Note_on_c, 1, 76, 82
3, 181056, Note_on_c, 1, 74, 82
3, 181116, Note_off_c, 1, 76, 64
3, 181120, Note_on_c, 1, 78, 82
3, 181180, Note_off_c, 1, 78, 64
3, 181184, Note_on_c, 1, 76, 82
3, 181244, Note_off_c, 1, 74, 64
3, 181244, Note_off_c, 1, 76, 64
3, 181248, Note_on_c, 1, 78, 82
3, 181248, Note_on_c, 1, 74, 82
3, 181248, Note_on_c, 1, 69, 82
3, 182204, Note_off_c, 1, 78, 64
3, 182204, Note_off_c, 1, 74, 64
3, 182204, Note_off_c, 1, 69, 64
3, 221184, Note_on_c, 1, 74, 82
3, 221184, Note_on_c, 1, 62, 82
3, 221372, Note_off_c, 1, 74, 64
3, 221372, Note_off_c, 1, 62, 64
3, 221376, Note_on_c, 1, 66, 82
3, 221376, Note_on_c, 1, 54, 82
3, 221520, Note_on_c, 1, 62, 82
3, 221564, Note_off_c, 1, 62, 64
3, 221568, Note_on_c, 1, 67, 82
3, 221568, Note_on_c, 1, 55, 82
3, 221660, Note_off_c, 1, 66, 64
3, 221660, Note_off_c, 1, 54, 64
3, 221756, Note_off_c, 1, 67, 64
3, 221756, Note_off_c, 1, 55, 64
3, 221760, Note_on_c, 1, 68, 82
3, 221760, Note_on_c, 1, 56, 82
3, 221904, Note_on_c, 1, 64, 82
3, 221948, Note_off_c, 1, 64, 64
3, 221952, Note_on_c, 1, 69, 82
3, 221952, Note_on_c, 1, 57, 82
3, 222044, Note_off_c, 1, 68, 64
3, 222044, Note_off_c, 1, 56, 64
3, 222140, Note_off_c, 1, 69, 64
3, 222140, Note_off_c, 1, 57, 64
3, 222144, Note_on_c, 1, 70, 82
3, 222144, Note_on_c, 1, 58, 82
3, 222288, Note_on_c, 1, 66, 82
3, 222332, Note_off_c, 1, 66, 64
3, 222336, Note_on_c, 1, 71, 82
3, 222336, Note_on_c, 1, 59, 82
3, 222428, Note_off_c, 1, 70, 64
3, 222428, Note_off_c, 1, 58, 64
3, 222524, Note_off_c, 1, 71, 64
3, 222524, Note_off_c, 1, 59, 64
3, 222528, Note_on_c, 1, 73, 82
3, 222528, Note_on_c, 1, 61, 82
3, 222620, Note_off_c, 1, 73, 64
3, 222620, Note_off_c, 1, 61, 64
3, 222672, Note_on_c, 1, 69, 82
3, 222716, Note_off_c, 1, 69, 64
3, 222720, Note_on_c, 1, 74, 82
3, 222812, Note_off_c, 1, 74, 64
3, 222816, Note_on_c, 1, 74, 82
3, 222816, Note_on_c, 1, 86, 82
3, 223004, Note_off_c, 1, 74, 64
3, 223004, Note_off_c, 1, 86, 64
3, 223008, Note_on_c, 1, 74, 82
3, 223008, Note_on_c, 1, 84, 82
3, 223196, Note_off_c, 1, 74, 64
3, 223196, Note_off_c, 1, 84, 64
3, 223200, Note_on_c, 1, 74, 82
3, 223200, Note_on_c, 1, 83, 82
3, 223388, Note_off_c, 1, 74, 64
3, 223388, Note_off_c, 1, 83, 64
3, 223392, Note_on_c, 1, 82, 82
3, 223392, Note_on_c, 1, 74, 82
3, 223484, Note_off_c, 1, 82, 64
3, 223484, Note_off_c, 1, 74, 64
3, 223488, Note_on_c, 1, 74, 82
3, 223488, Note_on_c, 1, 82, 82
3, 223580, Note_off_c, 1, 82, 64
3, 223584, Note_on_c, 1, 83, 82
3, 223676, Note_off_c, 1, 74, 64
3, 223676, Note_off_c, 1, 83, 64
3, 223680, Note_on_c, 1, 74, 82
3, 223680, Note_on_c, 1, 82, 82
3, 223772, Note_off_c, 1, 82, 64
3, 223776, Note_on_c, 1, 83, 82
3, 223868, Note_off_c, 1, 74, 64
3, 223868, Note_off_c, 1, 83, 64
3, 223872, Note_on_c, 1, 81, 82
3, 223872, Note_on_c, 1, 73, 82
3, 223964, Note_off_c, 1, 81, 64
3, 223964, Note_off_c, 1, 73, 64
3, 223968, Note_on_c, 1, 79, 82
3, 223968, Note_on_c, 1, 71, 82
3, 224060, Note_off_c, 1, 79, 64
3, 224060, Note_off_c, 1, 71, 64
3, 224064, Note_on_c, 1, 78, 82
3, 224064, Note_on_c, 1, 69, 82
3, 224156, Note_off_c, 1, 78, 64
3, 224156, Note_off_c, 1, 69, 64
3, 224160, Note_on_c, 1, 76, 82
3, 224160, Note_on_c, 1, 67, 82
3, 224252, Note_off_c, 1, 76, 64
3, 224252, Note_off_c, 1, 67, 64
3, 224256, Note_on_c, 1, 74, 82
3, 224256, Note_on_c, 1, 66, 82
3, 224448, Note_on_c, 1, 69, 82
3, 224636, Note_off_c, 1, 74, 64
3, 224636, Note_off_c, 1, 66, 64
3, 224636, Note_off_c, 1, 69, 64
3, 224640, Note_on_c, 1, 67, 82
3, 224640, Note_on_c, 1, 73, 82
3, 224640, Note_on_c, 1, 76, 82
3, 224672, Note_off_c, 1, 76, 64
3, 224672, Note_on_c, 1, 78, 82
3, 224704, Note_off_c, 1, 78, 64
3, 224704, Note_on_c, 1, 76, 82
3, 224736, Note_off_c, 1, 76, 64
3, 224736, Note_on_c, 1, 78, 82
3, 224768, Note_off_c, 1, 78, 64
3, 224768, Note_on_c, 1, 76, 82
3, 224800, Note_off_c, 1, 76, 64
3, 224800, Note_on_c, 1, 78, 82
3, 224832, Note_off_c, 1, 78, 64
3, 224832, Note_on_c, 1, 76, 82
3, 224864, Note_off_c, 1, 76, 64
3, 224864, Note_on_c, 1, 78, 82
3, 224896, Note_off_c, 1, 78, 64
3, 224896, Note_on_c, 1, 76, 82
3, 224928, Note_off_c, 1, 76, 64
3, 224928, Note_on_c, 1, 74, 82
3, 224976, Note_off_c, 1, 74, 64
3, 224976, Note_on_c, 1, 76, 82
3, 225020, Note_off_c, 1, 67, 64
3, 225020, Note_off_c, 1, 73, 64
3, 225024, Note_off_c, 1, 76, 64
3, 225024, Note_on_c, 1, 74, 82
3, 225024, Note_on_c, 1, 66, 82
3, 225116, Note_off_c, 1, 74, 64
3, 225116, Note_off_c, 1, 66, 64
3, 225120, Note_on_c, 1, 74, 82
3, 225308, Note_off_c, 1, 74, 64
3, 225312, Note_on_c, 1, 72, 61
3, 225500, Note_off_c, 1, 72, 64
3, 225504, Note_on_c, 1, 71, 61
3, 225692, Note_off_c, 1, 71, 64
3, 225696, Note_on_c, 1, 70, 61
3, 225788, Note_off_c, 1, 70, 64
3, 225792, Note_on_c, 1, 70, 61
3, 225884, Note_off_c, 1, 70, 64
3, 225888, Note_on_c, 1, 71, 61
3, 225980, Note_off_c, 1, 71, 64
3, 225984, Note_on_c, 1, 70, 61
3, 226076, Note_off_c, 1, 70, 64
3, 226080, Note_on_c, 1, 71, 61
3, 226172, Note_off_c, 1, 71, 64
3, 226176, Note_on_c, 1, 75, 61
3, 226268, Note_off_c, 1, 75, 64
3, 226272, Note_on_c, 1, 76, 61
3, 226364, Note_off_c, 1, 76, 64
3, 226368, Note_on_c, 1, 75, 61
3, 226368, Note_on_c, 1, 83, 61
3, 226460, Note_off_c, 1, 75, 64
3, 226464, Note_on_c, 1, 76, 61
3, 226556, Note_off_c, 1, 83, 64
3, 226556, Note_off_c, 1, 76, 64
3, 226560, Note_on_c, 1, 70, 61
3, 226652, Note_off_c, 1, 70, 64
3, 226656, Note_on_c, 1, 71, 61
3, 226748, Note_off_c, 1, 71, 64
3, 226752, Note_on_c, 1, 70, 61
3, 226752, Note_on_c, 1, 79, 61
3, 226844, Note_off_c, 1, 70, 64
3, 226848, Note_on_c, 1, 71, 61
3, 226940, Note_off_c, 1, 79, 64
3, 226940, Note_off_c, 1, 71, 64
3, 226944, Note_on_c, 1, 66, 61
3, 227036, Note_off_c, 1, 66, 64
3, 227040, Note_on_c, 1, 67, 61
3, 227132, Note_off_c, 1, 67, 64
3, 227136, Note_on_c, 1, 66, 61
3, 227136, Note_on_c, 1, 76, 61
3, 227228, Note_off_c, 1, 66, 64
3, 227232, Note_on_c, 1, 67, 61
3, 227324, Note_off_c, 1, 76, 64
3, 227324, Note_off_c, 1, 67, 64
3, 227328, Note_on_c, 1, 66, 61
3, 227328, Note_on_c, 1, 57, 61
3, 227328, Note_on_c, 1, 81, 61
3, 227420, Note_off_c, 1, 66, 64
3, 227424, Note_on_c, 1, 69, 61
3, 227516, Note_off_c, 1, 57, 64
3, 227516, Note_off_c, 1, 69, 64
3, 227520, Note_on_c, 1, 66, 61
3, 227520, Note_on_c, 1, 57, 61
3, 227612, Note_off_c, 1, 66, 64
3, 227616, Note_on_c, 1, 62, 61
3, 227708, Note_off_c, 1, 81, 64
3, 227708, Note_off_c, 1, 57, 64
3, 227708, Note_off_c, 1, 62, 64
3, 227712, Note_on_c, 1, 66, 61
3, 227712, Note_on_c, 1, 57, 61
3, 227712, Note_on_c, 1, 81, 61
3, 227804, Note_off_c, 1, 66, 64
3, 227808, Note_on_c, 1, 69, 61
3, 227900, Note_off_c, 1, 57, 64
3, 227900, Note_off_c, 1, 69, 64
3, 227904, Note_on_c, 1, 66, 61
3, 227904, Note_on_c, 1, 57, 61
3, 227996, Note_off_c, 1, 81, 64
3, 227996, Note_off_c, 1, 66, 64
3, 228000, Note_on_c, 1, 62, 61
3, 228000, Note_on_c, 1, 83, 61
3, 228092, Note_off_c, 1, 57, 64
3, 228092, Note_off_c, 1, 62, 64
3, 228092, Note_off_c, 1, 83, 64
3, 228096, Note_on_c, 1, 67, 61
3, 228096, Note_on_c, 1, 57, 61
3, 228096, Note_on_c, 1, 74, 61
3, 228188, Note_off_c, 1, 67, 64
3, 228192, Note_on_c, 1, 69, 61
3, 228284, Note_off_c, 1, 57, 64
3, 228284, Note_off_c, 1, 69, 64
3, 228288, Note_on_c, 1, 67, 61
3, 228288, Note_on_c, 1, 57, 61
3, 228380, Note_off_c, 1, 67, 64
3, 228384, Note_on_c, 1, 64, 61
3, 228476, Note_off_c, 1, 74, 64
3, 228476, Note_off_c, 1, 57, 64
3, 228476, Note_off_c, 1, 64, 64
3, 228480, Note_on_c, 1, 67, 61
3, 228480, Note_on_c, 1, 57, 61
3, 228480, Note_on_c, 1, 73, 61
3, 228512, Note_off_c, 1, 73, 64
3, 228512, Note_on_c, 1, 74, 61
3, 228544, Note_off_c, 1, 74, 64
3, 228544, Note_on_c, 1, 74, 61
3, 228572, Note_off_c, 1, 67, 64
3, 228576, Note_off_c, 1, 74, 64
3, 228576, Note_on_c, 1, 73, 61
3, 228576, Note_on_c, 1, 69, 61
3, 228608, Note_off_c, 1, 73, 64
3, 228608, Note_on_c, 1, 73, 61
3, 228640, Note_off_c, 1, 73, 64
3, 228640, Note_on_c, 1, 74, 61
3, 228668, Note_off_c, 1, 57, 64
3, 228668, Note_off_c, 1, 69, 64
3, 228672, Note_off_c, 1, 74, 64
3, 228672, Note_on_c, 1, 67, 61
3, 228672, Note_on_c, 1, 57, 61
3, 228672, Note_on_c, 1, 73, 61
3, 228704, Note_off_c, 1, 73, 64
3, 228704, Note_on_c, 1, 74, 61
3, 228736, Note_off_c, 1, 74, 64
3, 228736, Note_on_c, 1, 73, 61
3, 228764, Note_off_c, 1, 67, 64
3, 228768, Note_off_c, 1, 73, 64
3, 228768, Note_on_c, 1, 64, 61
3, 228768, Note_on_c, 1, 71, 61
3, 228816, Note_off_c, 1, 71, 64
3, 228816, Note_on_c, 1, 73, 61
3, 228860, Note_off_c, 1, 57, 64
3, 228860, Note_off_c, 1, 64, 64
3, 228864, Note_off_c, 1, 73, 64
3, 228864, Note_on_c, 1, 74, 61
3, 228864, Note_on_c, 1, 66, 61
3, 229052, Note_off_c, 1, 74, 64
3, 229052, Note_off_c, 1, 66, 64
3, 229056, Note_on_c, 1, 78, 82
3, 229196, Note_off_c, 1, 78, 64
3, 229200, Note_on_c, 1, 74, 82
3, 229244, Note_off_c, 1, 74, 64
3, 229248, Note_on_c, 1, 81, 82
3, 229436, Note_off_c, 1, 81, 64
3, 229440, Note_on_c, 1, 85, 82
3, 229580, Note_off_c, 1, 85, 64
3, 229584, Note_on_c, 1, 81, 82
3, 229628, Note_off_c, 1, 81, 64
3, 229632, Note_on_c, 1, 86, 82
3, 229820, Note_off_c, 1, 86, 64
3, 229824, Note_on_c, 1, 78, 82
3, 229964, Note_off_c, 1, 78, 64
3, 229968, Note_on_c, 1, 74, 82
3, 230012, Note_off_c, 1, 74, 64
3, 230016, Note_on_c, 1, 81, 82
3, 230204, Note_off_c, 1, 81, 64
3, 230208, Note_on_c, 1, 73, 82
3, 230348, Note_off_c, 1, 73, 64
3, 230352, Note_on_c, 1, 69, 82
3, 230396, Note_off_c, 1, 69, 64
3, 230400, Note_on_c, 1, 74, 82
3, 230576, Note_on_c, 1, 71, 82
3, 230588, Note_off_c, 1, 74, 64
3, 230716, Note_off_c, 1, 71, 64
3, 230736, Note_on_c, 1, 66, 82
3, 230780, Note_off_c, 1, 66, 64
3, 230784, Note_on_c, 1, 67, 82
3, 230960, Note_on_c, 1, 71, 82
3, 230972, Note_off_c, 1, 67, 64
3, 231100, Note_off_c, 1, 71, 64
3, 231120, Note_on_c, 1, 73, 82
3, 231164, Note_off_c, 1, 73, 64
3, 231168, Note_on_c, 1, 74, 82
3, 231356, Note_off_c, 1, 74, 64
3, 231360, Note_on_c, 1, 74, 82
3, 231360, Note_on_c, 1, 78, 82
3, 231500, Note_off_c, 1, 74, 64
3, 231500, Note_off_c, 1, 78, 64
3, 231504, Note_on_c, 1, 78, 82
3, 231504, Note_on_c, 1, 74, 82
3, 231548, Note_off_c, 1, 78, 64
3, 231548, Note_off_c, 1, 74, 64
3, 231552, Note_on_c, 1, 76, 82
3, 231552, Note_on_c, 1, 74, 82
3, 231740, Note_off_c, 1, 76, 64
3, 231740, Note_off_c, 1, 74, 64
3, 231744, Note_on_c, 1, 73, 82
3, 231744, Note_on_c, 1, 69, 82
3, 231744, Note_on_c, 1, 76, 82
3, 231884, Note_off_c, 1, 73, 64
3, 231884, Note_off_c, 1, 69, 64
3, 231884, Note_off_c, 1, 76, 64
3, 231888, Note_on_c, 1, 76, 82
3, 231888, Note_on_c, 1, 73, 82
3, 231888, Note_on_c, 1, 69, 82
3, 231932, Note_off_c, 1, 76, 64
3, 231932, Note_off_c, 1, 73, 64
3, 231932, Note_off_c, 1, 69, 64
3, 231936, Note_on_c, 1, 74, 83
3, 231936, Note_on_c, 1, 69, 83
3, 231936, Note_on_c, 1, 66, 83
3, 232316, Note_off_c, 1, 69, 64
3, 232316, Note_off_c, 1, 66, 64
3, 232320, Note_on_c, 1, 81, 85
3, 232320, Note_on_c, 1, 74, 85
3, 232320, Note_on_c, 1, 69, 85
3, 232320, Note_on_c, 1, 78, 85
3, 232508, Note_off_c, 1, 74, 64
3, 232700, Note_off_c, 1, 81, 64
3, 232700, Note_off_c, 1, 74, 64
3, 232700, Note_off_c, 1, 69, 64
3, 232700, Note_off_c, 1, 78, 64
3, 232704, Note_on_c, 1, 86, 89
3, 232704, Note_on_c, 1, 81, 89
3, 232704, Note_on_c, 1, 78, 89
3, 232704, Note_on_c, 1, 74, 89
3, 233084, Note_off_c, 1, 86, 64
3, 233084, Note_off_c, 1, 81, 64
3, 233084, Note_off_c, 1, 78, 64
3, 233084, Note_off_c, 1, 74, 64
3, 233084, End_track
4, 0, Start_track
4, 0, Title_t, "K211 -a -Moderato assai"
4, 0, Control_c, 2, 0, 0
4, 0, Program_c, 2, 0
4, 0, Control_c, 2, 7, 96
4, 0, Control_c, 2, 10, 42
4, 0, Control_c, 2, 91, 57
4, 0, Control_c, 2, 93, 33
4, 0, Key_signature, 2, "major"
4, 0, Control_c, 2, 121, 127
4, 96, Pitch_bend_c, 2, 0
4, 192, Control_c, 2, 10, 43
4, 384, Control_c, 2, 91, 63
4, 480, Control_c, 2, 93, 40
4, 576, Program_c, 2, 0
4, 1536, Note_on_c, 2, 62, 82
4, 1536, Note_on_c, 2, 50, 82
4, 1916, Note_off_c, 2, 62, 64
4, 1916, Note_off_c, 2, 50, 64
4, 1920, Note_on_c, 2, 57, 82
4, 1920, Note_on_c, 2, 45, 82
4, 2204, Note_off_c, 2, 57, 64
4, 2204, Note_off_c, 2, 45, 64
4, 2208, Note_on_c, 2, 57, 82
4, 2208, Note_on_c, 2, 45, 82
4, 2300, Note_off_c, 2, 57, 64
4, 2300, Note_off_c, 2, 45, 64
4, 2304, Note_on_c, 2, 54, 82
4, 2304, Note_on_c, 2, 42, 82
4, 2492, Note_off_c, 2, 54, 64
4, 2492, Note_off_c, 2, 42, 64
4, 2496, Note_on_c, 2, 50, 82
4, 2496, Note_on_c, 2, 38, 82
4, 2684, Note_off_c, 2, 50, 64
4, 2684, Note_off_c, 2, 38, 64
4, 3264, Note_on_c, 2, 59, 61
4, 3264, Note_on_c, 2, 62, 61
4, 3452, Note_off_c, 2, 59, 64
4, 3452, Note_off_c, 2, 62, 64
4, 3456, Note_on_c, 2, 59, 61
4, 3456, Note_on_c, 2, 62, 61
4, 3644, Note_off_c, 2, 59, 64
4, 3644, Note_off_c, 2, 62, 64
4, 4032, Note_on_c, 2, 59, 61
4, 4032, Note_on_c, 2, 62, 61
4, 4220, Note_off_c, 2, 59, 64
4, 4220, Note_off_c, 2, 62, 64
4, 4224, Note_on_c, 2, 59, 82
4, 4224, Note_on_c, 2, 62, 82
4, 4412, Note_off_c, 2, 59, 64
4, 4412, Note_off_c, 2, 62, 64
4, 4608, Note_on_c, 2, 62, 82
4, 4608, Note_on_c, 2, 57, 82
4, 4608, Note_on_c, 2, 54, 82
4, 4796, Note_off_c, 2, 62, 64
4, 4796, Note_off_c, 2, 57, 64
4, 4796, Note_off_c, 2, 54, 64
4, 4800, Note_on_c, 2, 57, 82
4, 4800, Note_on_c, 2, 54, 82
4, 4800, Note_on_c, 2, 50, 82
4, 4988, Note_off_c, 2, 57, 64
4, 4988, Note_off_c, 2, 54, 64
4, 4988, Note_off_c, 2, 50, 64
4, 4992, Note_on_c, 2, 57, 82
4, 4992, Note_on_c, 2, 52, 82
4, 4992, Note_on_c, 2, 49, 82
4, 5180, Note_off_c, 2, 57, 64
4, 5180, Note_off_c, 2, 52, 64
4, 5180, Note_off_c, 2, 49, 64
4, 5184, Note_on_c, 2, 57, 82
4, 5184, Note_on_c, 2, 52, 82
4, 5184, Note_on_c, 2, 49, 82
4, 5184, Note_on_c, 2, 45, 82
4, 5372, Note_off_c, 2, 57, 64
4, 5372, Note_off_c, 2, 52, 64
4, 5372, Note_off_c, 2, 49, 64
4, 5372, Note_off_c, 2, 45, 64
4, 5376, Note_on_c, 2, 50, 82
4, 5564, Note_off_c, 2, 50, 64
4, 5568, Note_on_c, 2, 62, 82
4, 5756, Note_off_c, 2, 62, 64
4, 5760, Note_on_c, 2, 50, 61
4, 5948, Note_off_c, 2, 50, 64
4, 6336, Note_on_c, 2, 59, 61
4, 6524, Note_off_c, 2, 59, 64
4, 6528, Note_on_c, 2, 59, 61
4, 6716, Note_off_c, 2, 59, 64
4, 7104, Note_on_c, 2, 55, 61
4, 7292, Note_off_c, 2, 55, 64
4, 7296, Note_on_c, 2, 55, 82
4, 7484, Note_off_c, 2, 55, 64
4, 7680, Note_on_c, 2, 54, 82
4, 7868, Note_off_c, 2, 54, 64
4, 7872, Note_on_c, 2, 57, 82
4, 7872, Note_on_c, 2, 54, 82
4, 7872, Note_on_c, 2, 50, 82
4, 8060, Note_off_c, 2, 57, 64
4, 8060, Note_off_c, 2, 54, 64
4, 8060, Note_off_c, 2, 50, 64
4, 8064, Note_on_c, 2, 57, 82
4, 8064, Note_on_c, 2, 52, 82
4, 8064, Note_on_c, 2, 49, 82
4, 8252, Note_off_c, 2, 57, 64
4, 8252, Note_off_c, 2, 52, 64
4, 8252, Note_off_c, 2, 49, 64
4, 8256, Note_on_c, 2, 57, 82
4, 8256, Note_on_c, 2, 50, 82
4, 8256, Note_on_c, 2, 54, 82
4, 8444, Note_off_c, 2, 57, 64
4, 8444, Note_off_c, 2, 50, 64
4, 8444, Note_off_c, 2, 54, 64
4, 8448, Note_on_c, 2, 57, 82
4, 8636, Note_off_c, 2, 57, 64
4, 8640, Note_on_c, 2, 45, 82
4, 8828, Note_off_c, 2, 45, 64
4, 8832, Note_on_c, 2, 57, 82
4, 9020, Note_off_c, 2, 57, 64
4, 9024, Note_on_c, 2, 57, 82
4, 9212, Note_off_c, 2, 57, 64
4, 9216, Note_on_c, 2, 62, 82
4, 9404, Note_off_c, 2, 62, 64
4, 9408, Note_on_c, 2, 66, 82
4, 9500, Note_off_c, 2, 66, 64
4, 9504, Note_on_c, 2, 57, 82
4, 9596, Note_off_c, 2, 57, 64
4, 9600, Note_on_c, 2, 62, 82
4, 9692, Note_off_c, 2, 62, 64
4, 9696, Note_on_c, 2, 57, 82
4, 9788, Note_off_c, 2, 57, 64
4, 9792, Note_on_c, 2, 54, 82
4, 9884, Note_off_c, 2, 54, 64
4, 9888, Note_on_c, 2, 50, 82
4, 9980, Note_off_c, 2, 50, 64
4, 9984, Note_on_c, 2, 57, 82
4, 10172, Note_off_c, 2, 57, 64
4, 10176, Note_on_c, 2, 45, 82
4, 10364, Note_off_c, 2, 45, 64
4, 10752, Note_on_c, 2, 50, 61
4, 10940, Note_off_c, 2, 50, 64
4, 10944, Note_on_c, 2, 45, 61
4, 11132, Note_off_c, 2, 45, 64
4, 11136, Note_on_c, 2, 52, 61
4, 11324, Note_off_c, 2, 52, 64
4, 11328, Note_on_c, 2, 45, 61
4, 11516, Note_off_c, 2, 45, 64
4, 11520, Note_on_c, 2, 54, 61
4, 11708, Note_off_c, 2, 54, 64
4, 11712, Note_on_c, 2, 45, 61
4, 11900, Note_off_c, 2, 45, 64
4, 11904, Note_on_c, 2, 50, 61
4, 12092, Note_off_c, 2, 50, 64
4, 12096, Note_on_c, 2, 45, 61
4, 12284, Note_off_c, 2, 45, 64
4, 12288, Note_on_c, 2, 49, 61
4, 12476, Note_off_c, 2, 49, 64
4, 12480, Note_on_c, 2, 45, 61
4, 12668, Note_off_c, 2, 45, 64
4, 12672, Note_on_c, 2, 50, 61
4, 12860, Note_off_c, 2, 50, 64
4, 12864, Note_on_c, 2, 45, 61
4, 13052, Note_off_c, 2, 45, 64
4, 13056, Note_on_c, 2, 52, 61
4, 13244, Note_off_c, 2, 52, 64
4, 13248, Note_on_c, 2, 45, 61
4, 13436, Note_off_c, 2, 45, 64
4, 13440, Note_on_c, 2, 49, 61
4, 13628, Note_off_c, 2, 49, 64
4, 13632, Note_on_c, 2, 45, 61
4, 13820, Note_off_c, 2, 45, 64
4, 13824, Note_on_c, 2, 50, 61
4, 13916, Note_off_c, 2, 50, 64
4, 13920, Note_on_c, 2, 62, 61
4, 14012, Note_off_c, 2, 62, 64
4, 14016, Note_on_c, 2, 60, 61
4, 14108, Note_off_c, 2, 60, 64
4, 14112, Note_on_c, 2, 62, 61
4, 14204, Note_off_c, 2, 62, 64
4, 14208, Note_on_c, 2, 59, 61
4, 14300, Note_off_c, 2, 59, 64
4, 14304, Note_on_c, 2, 62, 61
4, 14396, Note_off_c, 2, 62, 64
4, 14400, Note_on_c, 2, 55, 61
4, 14492, Note_off_c, 2, 55, 64
4, 14496, Note_on_c, 2, 62, 61
4, 14588, Note_off_c, 2, 62, 64
4, 14592, Note_on_c, 2, 54, 61
4, 14780, Note_off_c, 2, 54, 64
4, 14784, Note_on_c, 2, 62, 61
4, 14784, Note_on_c, 2, 60, 61
4, 14972, Note_off_c, 2, 62, 64
4, 14972, Note_off_c, 2, 60, 64
4, 14976, Note_on_c, 2, 62, 61
4, 14976, Note_on_c, 2, 59, 61
4, 15164, Note_off_c, 2, 62, 64
4, 15164, Note_off_c, 2, 59, 64
4, 15168, Note_on_c, 2, 62, 61
4, 15168, Note_on_c, 2, 55, 61
4, 15356, Note_off_c, 2, 62, 64
4, 15356, Note_off_c, 2, 55, 64
4, 15360, Note_on_c, 2, 50, 61
4, 15452, Note_off_c, 2, 50, 64
4, 15456, Note_on_c, 2, 62, 61
4, 15548, Note_off_c, 2, 62, 64
4, 15552, Note_on_c, 2, 60, 61
4, 15644, Note_off_c, 2, 60, 64
4, 15648, Note_on_c, 2, 62, 61
4, 15740, Note_off_c, 2, 62, 64
4, 15744, Note_on_c, 2, 59, 61
4, 15836, Note_off_c, 2, 59, 64
4, 15840, Note_on_c, 2, 62, 61
4, 15932, Note_off_c, 2, 62, 64
4, 15936, Note_on_c, 2, 55, 61
4, 16028, Note_off_c, 2, 55, 64
4, 16032, Note_on_c, 2, 62, 61
4, 16124, Note_off_c, 2, 62, 64
4, 16128, Note_on_c, 2, 54, 61
4, 16316, Note_off_c, 2, 54, 64
4, 16320, Note_on_c, 2, 62, 61
4, 16320, Note_on_c, 2, 60, 61
4, 16508, Note_off_c, 2, 62, 64
4, 16508, Note_off_c, 2, 60, 64
4, 16512, Note_on_c, 2, 62, 61
4, 16512, Note_on_c, 2, 59, 61
4, 16700, Note_off_c, 2, 62, 64
4, 16700, Note_off_c, 2, 59, 64
4, 16704, Note_on_c, 2, 62, 61
4, 16704, Note_on_c, 2, 55, 61
4, 16892, Note_off_c, 2, 62, 64
4, 16892, Note_off_c, 2, 55, 64
4, 16896, Note_on_c, 2, 50, 61
4, 16988, Note_off_c, 2, 50, 64
4, 16992, Note_on_c, 2, 62, 61
4, 17084, Note_off_c, 2, 62, 64
4, 17088, Note_on_c, 2, 60, 61
4, 17180, Note_off_c, 2, 60, 64
4, 17184, Note_on_c, 2, 62, 61
4, 17276, Note_off_c, 2, 62, 64
4, 17280, Note_on_c, 2, 59, 61
4, 17372, Note_off_c, 2, 59, 64
4, 17376, Note_on_c, 2, 62, 61
4, 17468, Note_off_c, 2, 62, 64
4, 17472, Note_on_c, 2, 55, 61
4, 17564, Note_off_c, 2, 55, 64
4, 17568, Note_on_c, 2, 62, 61
4, 17660, Note_off_c, 2, 62, 64
4, 17664, Note_on_c, 2, 54, 82
4, 17852, Note_off_c, 2, 54, 64
4, 17856, Note_on_c, 2, 54, 82
4, 17856, Note_on_c, 2, 62, 82
4, 17856, Note_on_c, 2, 66, 82
4, 17996, Note_off_c, 2, 54, 64
4, 17996, Note_off_c, 2, 62, 64
4, 17996, Note_off_c, 2, 66, 64
4, 18000, Note_on_c, 2, 66, 82
4, 18000, Note_on_c, 2, 62, 82
4, 18000, Note_on_c, 2, 54, 82
4, 18044, Note_off_c, 2, 66, 64
4, 18044, Note_off_c, 2, 62, 64
4, 18044, Note_off_c, 2, 54, 64
4, 18048, Note_on_c, 2, 66, 82
4, 18048, Note_on_c, 2, 62, 82
4, 18048, Note_on_c, 2, 54, 82
4, 18236, Note_off_c, 2, 66, 64
4, 18236, Note_off_c, 2, 62, 64
4, 18236, Note_off_c, 2, 54, 64
4, 18240, Note_on_c, 2, 66, 82
4, 18240, Note_on_c, 2, 62, 82
4, 18240, Note_on_c, 2, 54, 82
4, 18428, Note_off_c, 2, 66, 64
4, 18428, Note_off_c, 2, 62, 64
4, 18428, Note_off_c, 2, 54, 64
4, 18432, Note_on_c, 2, 67, 82
4, 18432, Note_on_c, 2, 62, 82
4, 18432, Note_on_c, 2, 55, 82
4, 18620, Note_off_c, 2, 67, 64
4, 18620, Note_off_c, 2, 62, 64
4, 18620, Note_off_c, 2, 55, 64
4, 18624, Note_on_c, 2, 62, 82
4, 18624, Note_on_c, 2, 55, 82
4, 18764, Note_off_c, 2, 62, 64
4, 18764, Note_off_c, 2, 55, 64
4, 18768, Note_on_c, 2, 62, 82
4, 18768, Note_on_c, 2, 55, 82
4, 18812, Note_off_c, 2, 62, 64
4, 18812, Note_off_c, 2, 55, 64
4, 18816, Note_on_c, 2, 62, 82
4, 18816, Note_on_c, 2, 56, 82
4, 19004, Note_off_c, 2, 62, 64
4, 19004, Note_off_c, 2, 56, 64
4, 19008, Note_on_c, 2, 62, 82
4, 19008, Note_on_c, 2, 56, 82
4, 19196, Note_off_c, 2, 62, 64
4, 19196, Note_off_c, 2, 56, 64
4, 19200, Note_on_c, 2, 62, 82
4, 19200, Note_on_c, 2, 57, 82
4, 19388, Note_off_c, 2, 62, 64
4, 19388, Note_off_c, 2, 57, 64
4, 19392, Note_on_c, 2, 66, 82
4, 19392, Note_on_c, 2, 62, 82
4, 19392, Note_on_c, 2, 57, 82
4, 19536, Note_on_c, 2, 66, 82
4, 19536, Note_on_c, 2, 62, 82
4, 19536, Note_on_c, 2, 57, 82
4, 19580, Note_off_c, 2, 66, 64
4, 19580, Note_off_c, 2, 62, 64
4, 19580, Note_off_c, 2, 57, 64
4, 19584, Note_on_c, 2, 57, 82
4, 19584, Note_on_c, 2, 67, 82
4, 19584, Note_on_c, 2, 61, 82
4, 19676, Note_off_c, 2, 66, 64
4, 19676, Note_off_c, 2, 62, 64
4, 19676, Note_off_c, 2, 57, 64
4, 19772, Note_off_c, 2, 57, 64
4, 19772, Note_off_c, 2, 67, 64
4, 19772, Note_off_c, 2, 61, 64
4, 19776, Note_on_c, 2, 61, 82
4, 19776, Note_on_c, 2, 57, 82
4, 19776, Note_on_c, 2, 67, 82
4, 19964, Note_off_c, 2, 61, 64
4, 19964, Note_off_c, 2, 57, 64
4, 19964, Note_off_c, 2, 67, 64
4, 19968, Note_on_c, 2, 66, 82
4, 19968, Note_on_c, 2, 62, 82
4, 19968, Note_on_c, 2, 59, 82
4, 20156, Note_off_c, 2, 66, 64
4, 20156, Note_off_c, 2, 62, 64
4, 20156, Note_off_c, 2, 59, 64
4, 21120, Note_on_c, 2, 59, 61
4, 21120, Note_on_c, 2, 52, 61
4, 21212, Note_off_c, 2, 59, 64
4, 21216, Note_on_c, 2, 61, 61
4, 21308, Note_off_c, 2, 61, 64
4, 21312, Note_on_c, 2, 59, 61
4, 21404, Note_off_c, 2, 59, 64
4, 21408, Note_on_c, 2, 61, 61
4, 21500, Note_off_c, 2, 52, 64
4, 21500, Note_off_c, 2, 61, 64
4, 21504, Note_on_c, 2, 57, 61
4, 21884, Note_off_c, 2, 57, 64
4, 22656, Note_on_c, 2, 57, 61
4, 22656, Note_on_c, 2, 45, 61
4, 22748, Note_off_c, 2, 57, 64
4, 22752, Note_on_c, 2, 55, 61
4, 22844, Note_off_c, 2, 55, 64
4, 22848, Note_on_c, 2, 57, 61
4, 22940, Note_off_c, 2, 57, 64
4, 22944, Note_on_c, 2, 55, 61
4, 23036, Note_off_c, 2, 45, 64
4, 23036, Note_off_c, 2, 55, 64
4, 23040, Note_on_c, 2, 54, 61
4, 23040, Note_on_c, 2, 50, 61
4, 23228, Note_off_c, 2, 54, 64
4, 23228, Note_off_c, 2, 50, 64
4, 23232, Note_on_c, 2, 42, 82
4, 23372, Note_off_c, 2, 42, 64
4, 23376, Note_on_c, 2, 50, 82
4, 23376, Note_on_c, 2, 38, 82
4, 23420, Note_off_c, 2, 50, 64
4, 23420, Note_off_c, 2, 38, 64
4, 23424, Note_on_c, 2, 43, 82
4, 23612, Note_off_c, 2, 43, 64
4, 23616, Note_on_c, 2, 44, 82
4, 23756, Note_off_c, 2, 44, 64
4, 23760, Note_on_c, 2, 52, 82
4, 23760, Note_on_c, 2, 40, 82
4, 23804, Note_off_c, 2, 52, 64
4, 23804, Note_off_c, 2, 40, 64
4, 23808, Note_on_c, 2, 45, 82
4, 23996, Note_off_c, 2, 45, 64
4, 24000, Note_on_c, 2, 46, 82
4, 24140, Note_off_c, 2, 46, 64
4, 24144, Note_on_c, 2, 54, 82
4, 24144, Note_on_c, 2, 42, 82
4, 24188, Note_off_c, 2, 54, 64
4, 24188, Note_off_c, 2, 42, 64
4, 24192, Note_on_c, 2, 47, 82
4, 24380, Note_off_c, 2, 47, 64
4, 24384, Note_on_c, 2, 49, 82
4, 24524, Note_off_c, 2, 49, 64
4, 24528, Note_on_c, 2, 57, 82
4, 24528, Note_on_c, 2, 45, 82
4, 24572, Note_off_c, 2, 57, 64
4, 24572, Note_off_c, 2, 45, 64
4, 24576, Note_on_c, 2, 62, 82
4, 24576, Note_on_c, 2, 50, 82
4, 24764, Note_off_c, 2, 62, 64
4, 24764, Note_off_c, 2, 50, 64
4, 24768, Note_on_c, 2, 62, 82
4, 24768, Note_on_c, 2, 50, 82
4, 24956, Note_off_c, 2, 62, 64
4, 24956, Note_off_c, 2, 50, 64
4, 24960, Note_on_c, 2, 62, 82
4, 24960, Note_on_c, 2, 50, 82
4, 25148, Note_off_c, 2, 62, 64
4, 25148, Note_off_c, 2, 50, 64
4, 25152, Note_on_c, 2, 62, 82
4, 25152, Note_on_c, 2, 50, 82
4, 25340, Note_off_c, 2, 62, 64
4, 25340, Note_off_c, 2, 50, 64
4, 25344, Note_on_c, 2, 62, 82
4, 25344, Note_on_c, 2, 50, 82
4, 25532, Note_off_c, 2, 62, 64
4, 25532, Note_off_c, 2, 50, 64
4, 25536, Note_on_c, 2, 62, 82
4, 25536, Note_on_c, 2, 50, 82
4, 25724, Note_off_c, 2, 62, 64
4, 25724, Note_off_c, 2, 50, 64
4, 25728, Note_on_c, 2, 62, 82
4, 25728, Note_on_c, 2, 50, 82
4, 25916, Note_off_c, 2, 62, 64
4, 25916, Note_off_c, 2, 50, 64
4, 25920, Note_on_c, 2, 62, 82
4, 25920, Note_on_c, 2, 50, 82
4, 26108, Note_off_c, 2, 62, 64
4, 26108, Note_off_c, 2, 50, 64
4, 26112, Note_on_c, 2, 62, 82
4, 26112, Note_on_c, 2, 57, 82
4, 26300, Note_off_c, 2, 62, 64
4, 26300, Note_off_c, 2, 57, 64
4, 26304, Note_on_c, 2, 62, 82
4, 26304, Note_on_c, 2, 57, 82
4, 26492, Note_off_c, 2, 62, 64
4, 26492, Note_off_c, 2, 57, 64
4, 26496, Note_on_c, 2, 45, 82
4, 26496, Note_on_c, 2, 57, 82
4, 26684, Note_off_c, 2, 45, 64
4, 26684, Note_off_c, 2, 57, 64
4, 26688, Note_on_c, 2, 57, 82
4, 26688, Note_on_c, 2, 45, 82
4, 26876, Note_off_c, 2, 57, 64
4, 26876, Note_off_c, 2, 45, 64
4, 26880, Note_on_c, 2, 57, 82
4, 26880, Note_on_c, 2, 50, 82
4, 27068, Note_off_c, 2, 57, 64
4, 27068, Note_off_c, 2, 50, 64
4, 27072, Note_on_c, 2, 57, 61
4, 27072, Note_on_c, 2, 62, 61
4, 27072, Note_on_c, 2, 66, 61
4, 27260, Note_off_c, 2, 57, 64
4, 27260, Note_off_c, 2, 62, 64
4, 27260, Note_off_c, 2, 66, 64
4, 27264, Note_on_c, 2, 55, 61
4, 27264, Note_on_c, 2, 62, 61
4, 27264, Note_on_c, 2, 67, 61
4, 27452, Note_off_c, 2, 55, 64
4, 27452, Note_off_c, 2, 62, 64
4, 27452, Note_off_c, 2, 67, 64
4, 27456, Note_on_c, 2, 54, 61
4, 27456, Note_on_c, 2, 62, 61
4, 27644, Note_off_c, 2, 54, 64
4, 27644, Note_off_c, 2, 62, 64
4, 27648, Note_on_c, 2, 62, 61
4, 27648, Note_on_c, 2, 55, 61
4, 27836, Note_off_c, 2, 62, 64
4, 27836, Note_off_c, 2, 55, 64
4, 27840, Note_on_c, 2, 55, 61
4, 28028, Note_off_c, 2, 55, 64
4, 28032, Note_on_c, 2, 55, 61
4, 28220, Note_off_c, 2, 55, 64
4, 28224, Note_on_c, 2, 55, 61
4, 28412, Note_off_c, 2, 55, 64
4, 28416, Note_on_c, 2, 55, 61
4, 28604, Note_off_c, 2, 55, 64
4, 28608, Note_on_c, 2, 55, 61
4, 28796, Note_off_c, 2, 55, 64
4, 28800, Note_on_c, 2, 55, 61
4, 28800, Note_on_c, 2, 59, 61
4, 28988, Note_off_c, 2, 55, 64
4, 28988, Note_off_c, 2, 59, 64
4, 28992, Note_on_c, 2, 55, 61
4, 28992, Note_on_c, 2, 59, 61
4, 29180, Note_off_c, 2, 55, 64
4, 29180, Note_off_c, 2, 59, 64
4, 30720, Note_on_c, 2, 62, 61
4, 30720, Note_on_c, 2, 50, 61
4, 30908, Note_off_c, 2, 62, 64
4, 30908, Note_off_c, 2, 50, 64
4, 30912, Note_on_c, 2, 62, 82
4, 30912, Note_on_c, 2, 62, 82
4, 30912, Note_on_c, 2, 50, 82
4, 31004, Note_off_c, 2, 62, 64
4, 31004, Note_off_c, 2, 62, 64
4, 31004, Note_off_c, 2, 50, 64
4, 31040, Note_on_c, 2, 50, 82
4, 31056, Note_on_c, 2, 62, 82
4, 31084, Note_off_c, 2, 50, 64
4, 31100, Note_off_c, 2, 62, 64
4, 31104, Note_on_c, 2, 64, 82
4, 31104, Note_on_c, 2, 57, 82
4, 31292, Note_off_c, 2, 64, 64
4, 31292, Note_off_c, 2, 57, 64
4, 31296, Note_on_c, 2, 64, 82
4, 31296, Note_on_c, 2, 57, 82
4, 31436, Note_off_c, 2, 64, 64
4, 31436, Note_off_c, 2, 57, 64
4, 31440, Note_on_c, 2, 64, 82
4, 31440, Note_on_c, 2, 57, 82
4, 31484, Note_off_c, 2, 64, 64
4, 31484, Note_off_c, 2, 57, 64
4, 31488, Note_on_c, 2, 62, 82
4, 31488, Note_on_c, 2, 66, 82
4, 31664, Note_on_c, 2, 54, 82
4, 31664, Note_on_c, 2, 42, 82
4, 31676, Note_off_c, 2, 62, 64
4, 31676, Note_off_c, 2, 66, 64
4, 31804, Note_off_c, 2, 54, 64
4, 31804, Note_off_c, 2, 42, 64
4, 31824, Note_on_c, 2, 50, 82
4, 31824, Note_on_c, 2, 38, 82
4, 31868, Note_off_c, 2, 50, 64
4, 31868, Note_off_c, 2, 38, 64
4, 31872, Note_on_c, 2, 57, 82
4, 31872, Note_on_c, 2, 45, 82
4, 32048, Note_on_c, 2, 61, 82
4, 32060, Note_off_c, 2, 57, 64
4, 32060, Note_off_c, 2, 45, 64
4, 32064, Note_on_c, 2, 49, 82
4, 32188, Note_off_c, 2, 61, 64
4, 32192, Note_on_c, 2, 45, 82
4, 32204, Note_off_c, 2, 49, 64
4, 32208, Note_on_c, 2, 57, 82
4, 32236, Note_off_c, 2, 45, 64
4, 32252, Note_off_c, 2, 57, 64
4, 32256, Note_on_c, 2, 62, 82
4, 32256, Note_on_c, 2, 50, 82
4, 32444, Note_off_c, 2, 62, 64
4, 32444, Note_off_c, 2, 50, 64
4, 32448, Note_on_c, 2, 59, 82
4, 32448, Note_on_c, 2, 47, 82
4, 32588, Note_off_c, 2, 59, 64
4, 32588, Note_off_c, 2, 47, 64
4, 32592, Note_on_c, 2, 54, 82
4, 32592, Note_on_c, 2, 42, 82
4, 32636, Note_off_c, 2, 54, 64
4, 32636, Note_off_c, 2, 42, 64
4, 32640, Note_on_c, 2, 55, 82
4, 32640, Note_on_c, 2, 43, 82
4, 32828, Note_off_c, 2, 55, 64
4, 32828, Note_off_c, 2, 43, 64
4, 32832, Note_on_c, 2, 45, 82
4, 33020, Note_off_c, 2, 45, 64
4, 33024, Note_on_c, 2, 50, 82
4, 33024, Note_on_c, 2, 38, 82
4, 33212, Note_off_c, 2, 50, 64
4, 33212, Note_off_c, 2, 38, 64
4, 33216, Note_on_c, 2, 62, 82
4, 33216, Note_on_c, 2, 50, 82
4, 33404, Note_off_c, 2, 62, 64
4, 33404, Note_off_c, 2, 50, 64
4, 33408, Note_on_c, 2, 50, 82
4, 33408, Note_on_c, 2, 38, 82
4, 33788, Note_off_c, 2, 50, 64
4, 33788, Note_off_c, 2, 38, 64
4, 33792, Note_on_c, 2, 62, 82
4, 34172, Note_off_c, 2, 62, 64
4, 34176, Note_on_c, 2, 57, 82
4, 34460, Note_off_c, 2, 57, 64
4, 34464, Note_on_c, 2, 57, 82
4, 34556, Note_off_c, 2, 57, 64
4, 34560, Note_on_c, 2, 54, 82
4, 34748, Note_off_c, 2, 54, 64
4, 34752, Note_on_c, 2, 50, 82
4, 34940, Note_off_c, 2, 50, 64
4, 35520, Note_on_c, 2, 59, 61
4, 35708, Note_off_c, 2, 59, 64
4, 35712, Note_on_c, 2, 59, 61
4, 35900, Note_off_c, 2, 59, 64
4, 36288, Note_on_c, 2, 55, 61
4, 36476, Note_off_c, 2, 55, 64
4, 36480, Note_on_c, 2, 55, 61
4, 36668, Note_off_c, 2, 55, 64
4, 36864, Note_on_c, 2, 66, 61
4, 37052, Note_off_c, 2, 66, 64
4, 37056, Note_on_c, 2, 62, 61
4, 37244, Note_off_c, 2, 62, 64
4, 37248, Note_on_c, 2, 64, 61
4, 37436, Note_off_c, 2, 64, 64
4, 37440, Note_on_c, 2, 69, 61
4, 37628, Note_off_c, 2, 69, 64
4, 37632, Note_on_c, 2, 62, 61
4, 37820, Note_off_c, 2, 62, 64
4, 37824, Note_on_c, 2, 62, 61
4, 37856, Note_off_c, 2, 62, 64
4, 37860, Note_on_c, 2, 64, 61
4, 37892, Note_off_c, 2, 64, 64
4, 37896, Note_on_c, 2, 62, 61
4, 37928, Note_off_c, 2, 62, 64
4, 37932, Note_on_c, 2, 64, 61
4, 37964, Note_off_c, 2, 64, 64
4, 37968, Note_on_c, 2, 64, 61
4, 38016, Note_off_c, 2, 64, 64
4, 38016, Note_on_c, 2, 66, 61
4, 38204, Note_off_c, 2, 66, 64
4, 38592, Note_on_c, 2, 59, 61
4, 38592, Note_on_c, 2, 62, 61
4, 38780, Note_off_c, 2, 59, 64
4, 38780, Note_off_c, 2, 62, 64
4, 38784, Note_on_c, 2, 59, 61
4, 38784, Note_on_c, 2, 62, 61
4, 38972, Note_off_c, 2, 59, 64
4, 38972, Note_off_c, 2, 62, 64
4, 39360, Note_on_c, 2, 55, 61
4, 39360, Note_on_c, 2, 62, 61
4, 39548, Note_off_c, 2, 55, 64
4, 39548, Note_off_c, 2, 62, 64
4, 39552, Note_on_c, 2, 55, 61
4, 39552, Note_on_c, 2, 62, 61
4, 39740, Note_off_c, 2, 55, 64
4, 39740, Note_off_c, 2, 62, 64
4, 39936, Note_on_c, 2, 66, 61
4, 40124, Note_off_c, 2, 66, 64
4, 40128, Note_on_c, 2, 66, 61
4, 40316, Note_off_c, 2, 66, 64
4, 40320, Note_on_c, 2, 66, 61
4, 40508, Note_off_c, 2, 66, 64
4, 40512, Note_on_c, 2, 66, 61
4, 40700, Note_off_c, 2, 66, 64
4, 40704, Note_on_c, 2, 64, 56
4, 40892, Note_off_c, 2, 64, 64
4, 40896, Note_on_c, 2, 64, 57
4, 41084, Note_off_c, 2, 64, 64
4, 41088, Note_on_c, 2, 64, 58
4, 41180, Note_off_c, 2, 64, 64
4, 41184, Note_on_c, 2, 62, 58
4, 41276, Note_off_c, 2, 62, 64
4, 41280, Note_on_c, 2, 61, 60
4, 41372, Note_off_c, 2, 61, 64
4, 41376, Note_on_c, 2, 59, 61
4, 41468, Note_off_c, 2, 59, 64
4, 41472, Note_on_c, 2, 57, 61
4, 41660, Note_off_c, 2, 57, 64
4, 41664, Note_on_c, 2, 57, 62
4, 41852, Note_off_c, 2, 57, 64
4, 41856, Note_on_c, 2, 57, 66
4, 42044, Note_off_c, 2, 57, 64
4, 42048, Note_on_c, 2, 57, 67
4, 42236, Note_off_c, 2, 57, 64
4, 42240, Note_on_c, 2, 57, 68
4, 42428, Note_off_c, 2, 57, 64
4, 42432, Note_on_c, 2, 57, 69
4, 42620, Note_off_c, 2, 57, 64
4, 42624, Note_on_c, 2, 57, 71
4, 42812, Note_off_c, 2, 57, 64
4, 42816, Note_on_c, 2, 57, 72
4, 43004, Note_off_c, 2, 57, 64
4, 43008, Note_on_c, 2, 62, 61
4, 43196, Note_off_c, 2, 62, 64
4, 43200, Note_on_c, 2, 57, 61
4, 43388, Note_off_c, 2, 57, 64
4, 43392, Note_on_c, 2, 61, 61
4, 43580, Note_off_c, 2, 61, 64
4, 43584, Note_on_c, 2, 57, 61
4, 43772, Note_off_c, 2, 57, 64
4, 43776, Note_on_c, 2, 62, 74
4, 43964, Note_off_c, 2, 62, 64
4, 43968, Note_on_c, 2, 57, 74
4, 44156, Note_off_c, 2, 57, 64
4, 44160, Note_on_c, 2, 61, 74
4, 44348, Note_off_c, 2, 61, 64
4, 44352, Note_on_c, 2, 57, 74
4, 44540, Note_off_c, 2, 57, 64
4, 44544, Note_on_c, 2, 62, 74
4, 44924, Note_off_c, 2, 62, 64
4, 46464, Note_on_c, 2, 52, 82
4, 46524, Note_off_c, 2, 52, 64
4, 46528, Note_on_c, 2, 54, 82
4, 46588, Note_off_c, 2, 54, 64
4, 46592, Note_on_c, 2, 52, 82
4, 46652, Note_off_c, 2, 52, 64
4, 46656, Note_on_c, 2, 50, 82
4, 46716, Note_off_c, 2, 50, 64
4, 46720, Note_on_c, 2, 52, 82
4, 46780, Note_off_c, 2, 52, 64
4, 46784, Note_on_c, 2, 50, 82
4, 46844, Note_off_c, 2, 50, 64
4, 46848, Note_on_c, 2, 49, 82
4, 47036, Note_off_c, 2, 49, 64
4, 52608, Note_on_c, 2, 59, 82
4, 52668, Note_off_c, 2, 59, 64
4, 52672, Note_on_c, 2, 61, 82
4, 52732, Note_off_c, 2, 61, 64
4, 52736, Note_on_c, 2, 59, 82
4, 52796, Note_off_c, 2, 59, 64
4, 52800, Note_on_c, 2, 56, 82
4, 52860, Note_off_c, 2, 56, 64
4, 52864, Note_on_c, 2, 57, 82
4, 52924, Note_off_c, 2, 57, 64
4, 52928, Note_on_c, 2, 56, 82
4, 52988, Note_off_c, 2, 56, 64
4, 52992, Note_on_c, 2, 52, 82
4, 53372, Note_off_c, 2, 52, 64
4, 53760, Note_on_c, 2, 56, 68
4, 53948, Note_off_c, 2, 56, 64
4, 53952, Note_on_c, 2, 57, 68
4, 54140, Note_off_c, 2, 57, 64
4, 54144, Note_on_c, 2, 56, 68
4, 54332, Note_off_c, 2, 56, 64
4, 54336, Note_on_c, 2, 57, 68
4, 54524, Note_off_c, 2, 57, 64
4, 54528, Note_on_c, 2, 56, 68
4, 54908, Note_off_c, 2, 56, 64
4, 55296, Note_on_c, 2, 57, 68
4, 55296, Note_on_c, 2, 61, 68
4, 55484, Note_off_c, 2, 57, 64
4, 55484, Note_off_c, 2, 61, 64
4, 55488, Note_on_c, 2, 56, 68
4, 55488, Note_on_c, 2, 62, 68
4, 55664, Note_on_c, 2, 61, 68
4, 55676, Note_off_c, 2, 56, 64
4, 55676, Note_off_c, 2, 62, 64
4, 55680, Note_on_c, 2, 57, 68
4, 55852, Note_off_c, 2, 61, 64
4, 55868, Note_off_c, 2, 57, 64
4, 55872, Note_on_c, 2, 56, 68
4, 55872, Note_on_c, 2, 62, 68
4, 56060, Note_off_c, 2, 56, 64
4, 56060, Note_off_c, 2, 62, 64
4, 56064, Note_on_c, 2, 61, 68
4, 56064, Note_on_c, 2, 57, 68
4, 56444, Note_off_c, 2, 61, 64
4, 56444, Note_off_c, 2, 57, 64
4, 56832, Note_on_c, 2, 56, 55
4, 57020, Note_off_c, 2, 56, 64
4, 57024, Note_on_c, 2, 57, 55
4, 57212, Note_off_c, 2, 57, 64
4, 57216, Note_on_c, 2, 56, 55
4, 57404, Note_off_c, 2, 56, 64
4, 57408, Note_on_c, 2, 57, 55
4, 57596, Note_off_c, 2, 57, 64
4, 57600, Note_on_c, 2, 56, 55
4, 57980, Note_off_c, 2, 56, 64
4, 58368, Note_on_c, 2, 57, 55
4, 58556, Note_off_c, 2, 57, 64
4, 58560, Note_on_c, 2, 52, 55
4, 58748, Note_off_c, 2, 52, 64
4, 58752, Note_on_c, 2, 49, 55
4, 58940, Note_off_c, 2, 49, 64
4, 58944, Note_on_c, 2, 45, 55
4, 59132, Note_off_c, 2, 45, 64
4, 59136, Note_on_c, 2, 57, 55
4, 59324, Note_off_c, 2, 57, 64
4, 59328, Note_on_c, 2, 52, 55
4, 59516, Note_off_c, 2, 52, 64
4, 59520, Note_on_c, 2, 49, 55
4, 59708, Note_off_c, 2, 49, 64
4, 59712, Note_on_c, 2, 45, 55
4, 59900, Note_off_c, 2, 45, 64
4, 59904, Note_on_c, 2, 52, 74
4, 60092, Note_off_c, 2, 52, 64
4, 60096, Note_on_c, 2, 52, 74
4, 60284, Note_off_c, 2, 52, 64
4, 60288, Note_on_c, 2, 52, 74
4, 60476, Note_off_c, 2, 52, 64
4, 60480, Note_on_c, 2, 52, 74
4, 60668, Note_off_c, 2, 52, 64
4, 60672, Note_on_c, 2, 45, 74
4, 60860, Note_off_c, 2, 45, 64
4, 60864, Note_on_c, 2, 57, 74
4, 61052, Note_off_c, 2, 57, 64
4, 61056, Note_on_c, 2, 45, 74
4, 61244, Note_off_c, 2, 45, 64
4, 61440, Note_on_c, 2, 57, 61
4, 61628, Note_off_c, 2, 57, 64
4, 61632, Note_on_c, 2, 52, 61
4, 61820, Note_off_c, 2, 52, 64
4, 61824, Note_on_c, 2, 59, 61
4, 62012, Note_off_c, 2, 59, 64
4, 62016, Note_on_c, 2, 52, 61
4, 62204, Note_off_c, 2, 52, 64
4, 62208, Note_on_c, 2, 61, 61
4, 62396, Note_off_c, 2, 61, 64
4, 62400, Note_on_c, 2, 52, 61
4, 62588, Note_off_c, 2, 52, 64
4, 62592, Note_on_c, 2, 57, 61
4, 62780, Note_off_c, 2, 57, 64
4, 62784, Note_on_c, 2, 52, 61
4, 62972, Note_off_c, 2, 52, 64
4, 62976, Note_on_c, 2, 56, 61
4, 63164, Note_off_c, 2, 56, 64
4, 63168, Note_on_c, 2, 52, 61
4, 63356, Note_off_c, 2, 52, 64
4, 63360, Note_on_c, 2, 57, 61
4, 63548, Note_off_c, 2, 57, 64
4, 63552, Note_on_c, 2, 52, 61
4, 63740, Note_off_c, 2, 52, 64
4, 63744, Note_on_c, 2, 59, 61
4, 63932, Note_off_c, 2, 59, 64
4, 63936, Note_on_c, 2, 52, 61
4, 64124, Note_off_c, 2, 52, 64
4, 64128, Note_on_c, 2, 56, 61
4, 64316, Note_off_c, 2, 56, 64
4, 64320, Note_on_c, 2, 52, 61
4, 64508, Note_off_c, 2, 52, 64
4, 64512, Note_on_c, 2, 57, 61
4, 64700, Note_off_c, 2, 57, 64
4, 64704, Note_on_c, 2, 52, 61
4, 64892, Note_off_c, 2, 52, 64
4, 64896, Note_on_c, 2, 59, 61
4, 65084, Note_off_c, 2, 59, 64
4, 65088, Note_on_c, 2, 52, 61
4, 65276, Note_off_c, 2, 52, 64
4, 65280, Note_on_c, 2, 61, 61
4, 65468, Note_off_c, 2, 61, 64
4, 65472, Note_on_c, 2, 52, 61
4, 65660, Note_off_c, 2, 52, 64
4, 65664, Note_on_c, 2, 57, 61
4, 65852, Note_off_c, 2, 57, 64
4, 65856, Note_on_c, 2, 52, 61
4, 66044, Note_off_c, 2, 52, 64
4, 66048, Note_on_c, 2, 56, 61
4, 66236, Note_off_c, 2, 56, 64
4, 66240, Note_on_c, 2, 52, 61
4, 66428, Note_off_c, 2, 52, 64
4, 66432, Note_on_c, 2, 57, 61
4, 66620, Note_off_c, 2, 57, 64
4, 66624, Note_on_c, 2, 52, 61
4, 66812, Note_off_c, 2, 52, 64
4, 66816, Note_on_c, 2, 59, 61
4, 67004, Note_off_c, 2, 59, 64
4, 67008, Note_on_c, 2, 52, 61
4, 67196, Note_off_c, 2, 52, 64
4, 67200, Note_on_c, 2, 56, 61
4, 67388, Note_off_c, 2, 56, 64
4, 67392, Note_on_c, 2, 52, 61
4, 67580, Note_off_c, 2, 52, 64
4, 67584, Note_on_c, 2, 57, 61
4, 67772, Note_off_c, 2, 57, 64
4, 67776, Note_on_c, 2, 67, 61
4, 67964, Note_off_c, 2, 67, 64
4, 67968, Note_on_c, 2, 66, 61
4, 68156, Note_off_c, 2, 66, 64
4, 68160, Note_on_c, 2, 62, 61
4, 68348, Note_off_c, 2, 62, 64
4, 68352, Note_on_c, 2, 61, 61
4, 68540, Note_off_c, 2, 61, 64
4, 68544, Note_on_c, 2, 55, 61
4, 68732, Note_off_c, 2, 55, 64
4, 68736, Note_on_c, 2, 54, 61
4, 68924, Note_off_c, 2, 54, 64
4, 68928, Note_on_c, 2, 50, 61
4, 69116, Note_off_c, 2, 50, 64
4, 69120, Note_on_c, 2, 45, 61
4, 69308, Note_off_c, 2, 45, 64
4, 69312, Note_on_c, 2, 55, 61
4, 69500, Note_off_c, 2, 55, 64
4, 69504, Note_on_c, 2, 54, 61
4, 69692, Note_off_c, 2, 54, 64
4, 69696, Note_on_c, 2, 50, 61
4, 69884, Note_off_c, 2, 50, 64
4, 69888, Note_on_c, 2, 49, 61
4, 70076, Note_off_c, 2, 49, 64
4, 70080, Note_on_c, 2, 55, 61
4, 70268, Note_off_c, 2, 55, 64
4, 70272, Note_on_c, 2, 54, 61
4, 70460, Note_off_c, 2, 54, 64
4, 70464, Note_on_c, 2, 50, 61
4, 70652, Note_off_c, 2, 50, 64
4, 70656, Note_on_c, 2, 45, 61
4, 70844, Note_off_c, 2, 45, 64
4, 70848, Note_on_c, 2, 67, 61
4, 71036, Note_off_c, 2, 67, 64
4, 71040, Note_on_c, 2, 66, 61
4, 71228, Note_off_c, 2, 66, 64
4, 71232, Note_on_c, 2, 62, 61
4, 71420, Note_off_c, 2, 62, 64
4, 71424, Note_on_c, 2, 61, 61
4, 71612, Note_off_c, 2, 61, 64
4, 71616, Note_on_c, 2, 61, 62
4, 71804, Note_off_c, 2, 61, 64
4, 71808, Note_on_c, 2, 61, 63
4, 71996, Note_off_c, 2, 61, 64
4, 72000, Note_on_c, 2, 61, 67
4, 72188, Note_off_c, 2, 61, 64
4, 72192, Note_on_c, 2, 62, 68
4, 72380, Note_off_c, 2, 62, 64
4, 72384, Note_on_c, 2, 66, 69
4, 72572, Note_off_c, 2, 66, 64
4, 72576, Note_on_c, 2, 64, 71
4, 72764, Note_off_c, 2, 64, 64
4, 72768, Note_on_c, 2, 63, 72
4, 72956, Note_off_c, 2, 63, 64
4, 72960, Note_on_c, 2, 64, 74
4, 73148, Note_off_c, 2, 64, 64
4, 73152, Note_on_c, 2, 64, 77
4, 73340, Note_off_c, 2, 64, 64
4, 73344, Note_on_c, 2, 64, 78
4, 73532, Note_off_c, 2, 64, 64
4, 73536, Note_on_c, 2, 64, 79
4, 73724, Note_off_c, 2, 64, 64
4, 73728, Note_on_c, 2, 57, 82
4, 73916, Note_off_c, 2, 57, 64
4, 78336, Note_on_c, 2, 57, 62
4, 78524, Note_off_c, 2, 57, 64
4, 78528, Note_on_c, 2, 57, 63
4, 78716, Note_off_c, 2, 57, 64
4, 78720, Note_on_c, 2, 61, 66
4, 78908, Note_off_c, 2, 61, 64
4, 78912, Note_on_c, 2, 61, 67
4, 79100, Note_off_c, 2, 61, 64
4, 79104, Note_on_c, 2, 62, 68
4, 79292, Note_off_c, 2, 62, 64
4, 79296, Note_on_c, 2, 66, 69
4, 79296, Note_on_c, 2, 50, 69
4, 79484, Note_off_c, 2, 66, 64
4, 79484, Note_off_c, 2, 50, 64
4, 79488, Note_on_c, 2, 66, 71
4, 79488, Note_on_c, 2, 50, 71
4, 79676, Note_off_c, 2, 66, 64
4, 79676, Note_off_c, 2, 50, 64
4, 79680, Note_on_c, 2, 66, 72
4, 79680, Note_on_c, 2, 57, 72
4, 79680, Note_on_c, 2, 51, 72
4, 79868, Note_off_c, 2, 66, 64
4, 79868, Note_off_c, 2, 57, 64
4, 79868, Note_off_c, 2, 51, 64
4, 79872, Note_on_c, 2, 52, 74
4, 79872, Note_on_c, 2, 64, 74
4, 79872, Note_on_c, 2, 57, 74
4, 79964, Note_off_c, 2, 64, 64
4, 79964, Note_off_c, 2, 57, 64
4, 80060, Note_off_c, 2, 52, 64
4, 80064, Note_on_c, 2, 52, 74
4, 80252, Note_off_c, 2, 52, 64
4, 80256, Note_on_c, 2, 52, 74
4, 80444, Note_off_c, 2, 52, 64
4, 80448, Note_on_c, 2, 52, 74
4, 80636, Note_off_c, 2, 52, 64
4, 80640, Note_on_c, 2, 52, 74
4, 80828, Note_off_c, 2, 52, 64
4, 80832, Note_on_c, 2, 52, 74
4, 81020, Note_off_c, 2, 52, 64
4, 81024, Note_on_c, 2, 52, 74
4, 81212, Note_off_c, 2, 52, 64
4, 81216, Note_on_c, 2, 52, 74
4, 81404, Note_off_c, 2, 52, 64
4, 81408, Note_on_c, 2, 45, 82
4, 81596, Note_off_c, 2, 45, 64
4, 81600, Note_on_c, 2, 57, 82
4, 81660, Note_off_c, 2, 57, 64
4, 81664, Note_on_c, 2, 59, 82
4, 81724, Note_off_c, 2, 59, 64
4, 81728, Note_on_c, 2, 57, 82
4, 81788, Note_off_c, 2, 57, 64
4, 81792, Note_on_c, 2, 56, 82
4, 81852, Note_off_c, 2, 56, 64
4, 81856, Note_on_c, 2, 57, 82
4, 81916, Note_off_c, 2, 57, 64
4, 81920, Note_on_c, 2, 56, 82
4, 81980, Note_off_c, 2, 56, 64
4, 81984, Note_on_c, 2, 54, 82
4, 82044, Note_off_c, 2, 54, 64
4, 82048, Note_on_c, 2, 56, 82
4, 82108, Note_off_c, 2, 56, 64
4, 82112, Note_on_c, 2, 54, 82
4, 82172, Note_off_c, 2, 54, 64
4, 82176, Note_on_c, 2, 52, 82
4, 82352, Note_on_c, 2, 57, 82
4, 82364, Note_off_c, 2, 52, 64
4, 82368, Note_on_c, 2, 54, 82
4, 82428, Note_off_c, 2, 54, 64
4, 82432, Note_on_c, 2, 56, 82
4, 82492, Note_off_c, 2, 56, 64
4, 82496, Note_on_c, 2, 54, 82
4, 82556, Note_off_c, 2, 54, 64
4, 82560, Note_on_c, 2, 52, 82
4, 82620, Note_off_c, 2, 52, 64
4, 82624, Note_on_c, 2, 54, 82
4, 82684, Note_off_c, 2, 54, 64
4, 82688, Note_on_c, 2, 52, 82
4, 82748, Note_off_c, 2, 52, 64
4, 82752, Note_on_c, 2, 50, 82
4, 82812, Note_off_c, 2, 50, 64
4, 82816, Note_on_c, 2, 52, 82
4, 82876, Note_off_c, 2, 52, 64
4, 82880, Note_on_c, 2, 50, 82
4, 82924, Note_off_c, 2, 57, 64
4, 82940, Note_off_c, 2, 50, 64
4, 82944, Note_on_c, 2, 57, 82
4, 83136, Note_on_c, 2, 50, 82
4, 83196, Note_off_c, 2, 50, 64
4, 83200, Note_on_c, 2, 52, 82
4, 83260, Note_off_c, 2, 52, 64
4, 83264, Note_on_c, 2, 50, 82
4, 83324, Note_off_c, 2, 50, 64
4, 83328, Note_on_c, 2, 49, 82
4, 83388, Note_off_c, 2, 49, 64
4, 83392, Note_on_c, 2, 50, 82
4, 83452, Note_off_c, 2, 50, 64
4, 83456, Note_on_c, 2, 49, 82
4, 83516, Note_off_c, 2, 49, 64
4, 83520, Note_on_c, 2, 47, 82
4, 83580, Note_off_c, 2, 47, 64
4, 83584, Note_on_c, 2, 49, 82
4, 83644, Note_off_c, 2, 49, 64
4, 83648, Note_on_c, 2, 47, 82
4, 83708, Note_off_c, 2, 57, 64
4, 83708, Note_off_c, 2, 47, 64
4, 83712, Note_on_c, 2, 45, 82
4, 83712, Note_on_c, 2, 57, 82
4, 83900, Note_off_c, 2, 45, 64
4, 83900, Note_off_c, 2, 57, 64
4, 83904, Note_on_c, 2, 49, 82
4, 83904, Note_on_c, 2, 57, 82
4, 84044, Note_off_c, 2, 49, 64
4, 84044, Note_off_c, 2, 57, 64
4, 84048, Note_on_c, 2, 57, 82
4, 84048, Note_on_c, 2, 49, 82
4, 84092, Note_off_c, 2, 57, 64
4, 84092, Note_off_c, 2, 49, 64
4, 84096, Note_on_c, 2, 57, 82
4, 84096, Note_on_c, 2, 49, 82
4, 84284, Note_off_c, 2, 57, 64
4, 84284, Note_off_c, 2, 49, 64
4, 84288, Note_on_c, 2, 57, 82
4, 84288, Note_on_c, 2, 49, 82
4, 84476, Note_off_c, 2, 57, 64
4, 84476, Note_off_c, 2, 49, 64
4, 84480, Note_on_c, 2, 57, 82
4, 84480, Note_on_c, 2, 50, 82
4, 84668, Note_off_c, 2, 57, 64
4, 84668, Note_off_c, 2, 50, 64
4, 84672, Note_on_c, 2, 57, 82
4, 84672, Note_on_c, 2, 50, 82
4, 84812, Note_off_c, 2, 57, 64
4, 84812, Note_off_c, 2, 50, 64
4, 84816, Note_on_c, 2, 57, 82
4, 84816, Note_on_c, 2, 50, 82
4, 84860, Note_off_c, 2, 57, 64
4, 84860, Note_off_c, 2, 50, 64
4, 84864, Note_on_c, 2, 57, 82
4, 84864, Note_on_c, 2, 51, 82
4, 85052, Note_off_c, 2, 57, 64
4, 85052, Note_off_c, 2, 51, 64
4, 85056, Note_on_c, 2, 57, 82
4, 85056, Note_on_c, 2, 51, 82
4, 85244, Note_off_c, 2, 57, 64
4, 85244, Note_off_c, 2, 51, 64
4, 85248, Note_on_c, 2, 57, 82
4, 85248, Note_on_c, 2, 52, 82
4, 85436, Note_off_c, 2, 57, 64
4, 85436, Note_off_c, 2, 52, 64
4, 85440, Note_on_c, 2, 57, 82
4, 85440, Note_on_c, 2, 61, 82
4, 85440, Note_on_c, 2, 52, 82
4, 85568, Note_on_c, 2, 57, 82
4, 85568, Note_on_c, 2, 52, 82
4, 85580, Note_off_c, 2, 57, 64
4, 85580, Note_off_c, 2, 61, 64
4, 85580, Note_off_c, 2, 52, 64
4, 85584, Note_on_c, 2, 61, 82
4, 85612, Note_off_c, 2, 57, 64
4, 85612, Note_off_c, 2, 52, 64
4, 85628, Note_off_c, 2, 61, 64
4, 85632, Note_on_c, 2, 62, 82
4, 85632, Note_on_c, 2, 56, 82
4, 85632, Note_on_c, 2, 52, 82
4, 85820, Note_off_c, 2, 62, 64
4, 85820, Note_off_c, 2, 56, 64
4, 85820, Note_off_c, 2, 52, 64
4, 85824, Note_on_c, 2, 62, 82
4, 85824, Note_on_c, 2, 56, 82
4, 85824, Note_on_c, 2, 52, 82
4, 86012, Note_off_c, 2, 62, 64
4, 86012, Note_off_c, 2, 56, 64
4, 86012, Note_off_c, 2, 52, 64
4, 86016, Note_on_c, 2, 61, 61
4, 86016, Note_on_c, 2, 57, 61
4, 86016, Note_on_c, 2, 54, 61
4, 86204, Note_off_c, 2, 61, 64
4, 86204, Note_off_c, 2, 57, 64
4, 86204, Note_off_c, 2, 54, 64
4, 87152, Note_on_c, 2, 47, 61
4, 87168, Note_on_c, 2, 54, 61
4, 87260, Note_off_c, 2, 54, 64
4, 87264, Note_on_c, 2, 56, 61
4, 87356, Note_off_c, 2, 56, 64
4, 87360, Note_on_c, 2, 54, 61
4, 87452, Note_off_c, 2, 54, 64
4, 87456, Note_on_c, 2, 56, 61
4, 87532, Note_off_c, 2, 47, 64
4, 87548, Note_off_c, 2, 56, 64
4, 87552, Note_on_c, 2, 52, 61
4, 87552, Note_on_c, 2, 52, 61
4, 87932, Note_off_c, 2, 52, 64
4, 87932, Note_off_c, 2, 52, 64
4, 88688, Note_on_c, 2, 40, 61
4, 88704, Note_on_c, 2, 52, 61
4, 88796, Note_off_c, 2, 52, 64
4, 88800, Note_on_c, 2, 50, 61
4, 88892, Note_off_c, 2, 50, 64
4, 88896, Note_on_c, 2, 52, 61
4, 88988, Note_off_c, 2, 52, 64
4, 88992, Note_on_c, 2, 50, 61
4, 89068, Note_off_c, 2, 40, 64
4, 89084, Note_off_c, 2, 50, 64
4, 89088, Note_on_c, 2, 49, 82
4, 89088, Note_on_c, 2, 45, 82
4, 89276, Note_off_c, 2, 49, 64
4, 89276, Note_off_c, 2, 45, 64
4, 89280, Note_on_c, 2, 37, 82
4, 89296, Note_on_c, 2, 49, 82
4, 89420, Note_off_c, 2, 37, 64
4, 89424, Note_on_c, 2, 45, 82
4, 89424, Note_on_c, 2, 33, 82
4, 89436, Note_off_c, 2, 49, 64
4, 89468, Note_off_c, 2, 45, 64
4, 89468, Note_off_c, 2, 33, 64
4, 89472, Note_on_c, 2, 38, 82
4, 89660, Note_off_c, 2, 38, 64
4, 89664, Note_on_c, 2, 51, 82
4, 89664, Note_on_c, 2, 39, 82
4, 89804, Note_off_c, 2, 51, 64
4, 89804, Note_off_c, 2, 39, 64
4, 89808, Note_on_c, 2, 47, 82
4, 89808, Note_on_c, 2, 35, 82
4, 89852, Note_off_c, 2, 47, 64
4, 89852, Note_off_c, 2, 35, 64
4, 89856, Note_on_c, 2, 40, 82
4, 90032, Note_on_c, 2, 53, 82
4, 90032, Note_on_c, 2, 41, 82
4, 90044, Note_off_c, 2, 40, 64
4, 90172, Note_off_c, 2, 53, 64
4, 90172, Note_off_c, 2, 41, 64
4, 90192, Note_on_c, 2, 49, 82
4, 90192, Note_on_c, 2, 37, 82
4, 90236, Note_off_c, 2, 49, 64
4, 90236, Note_off_c, 2, 37, 64
4, 90240, Note_on_c, 2, 42, 82
4, 90416, Note_on_c, 2, 56, 82
4, 90416, Note_on_c, 2, 44, 82
4, 90428, Note_off_c, 2, 42, 64
4, 90556, Note_off_c, 2, 56, 64
4, 90556, Note_off_c, 2, 44, 64
4, 90576, Note_on_c, 2, 53, 82
4, 90576, Note_on_c, 2, 41, 82
4, 90620, Note_off_c, 2, 53, 64
4, 90620, Note_off_c, 2, 41, 64
4, 90624, Note_on_c, 2, 57, 82
4, 90624, Note_on_c, 2, 45, 82
4, 90812, Note_off_c, 2, 57, 64
4, 90812, Note_off_c, 2, 45, 64
4, 90816, Note_on_c, 2, 57, 82
4, 90816, Note_on_c, 2, 45, 82
4, 91004, Note_off_c, 2, 57, 64
4, 91004, Note_off_c, 2, 45, 64
4, 91008, Note_on_c, 2, 57, 82
4, 91008, Note_on_c, 2, 49, 82
4, 91196, Note_off_c, 2, 57, 64
4, 91196, Note_off_c, 2, 49, 64
4, 91200, Note_on_c, 2, 57, 82
4, 91200, Note_on_c, 2, 49, 82
4, 91388, Note_off_c, 2, 57, 64
4, 91388, Note_off_c, 2, 49, 64
4, 91392, Note_on_c, 2, 57, 82
4, 91392, Note_on_c, 2, 50, 82
4, 91580, Note_off_c, 2, 57, 64
4, 91580, Note_off_c, 2, 50, 64
4, 91584, Note_on_c, 2, 57, 82
4, 91584, Note_on_c, 2, 50, 82
4, 91772, Note_off_c, 2, 57, 64
4, 91772, Note_off_c, 2, 50, 64
4, 91776, Note_on_c, 2, 57, 82
4, 91776, Note_on_c, 2, 50, 82
4, 91964, Note_off_c, 2, 57, 64
4, 91964, Note_off_c, 2, 50, 64
4, 91968, Note_on_c, 2, 57, 82
4, 91968, Note_on_c, 2, 50, 82
4, 92156, Note_off_c, 2, 57, 64
4, 92156, Note_off_c, 2, 50, 64
4, 92160, Note_on_c, 2, 57, 82
4, 92160, Note_on_c, 2, 52, 82
4, 92348, Note_off_c, 2, 57, 64
4, 92348, Note_off_c, 2, 52, 64
4, 92352, Note_on_c, 2, 57, 82
4, 92352, Note_on_c, 2, 52, 82
4, 92540, Note_off_c, 2, 57, 64
4, 92540, Note_off_c, 2, 52, 64
4, 92544, Note_on_c, 2, 56, 82
4, 92544, Note_on_c, 2, 52, 82
4, 92544, Note_on_c, 2, 64, 82
4, 92732, Note_off_c, 2, 56, 64
4, 92732, Note_off_c, 2, 52, 64
4, 92732, Note_off_c, 2, 64, 64
4, 92736, Note_on_c, 2, 62, 82
4, 92736, Note_on_c, 2, 56, 82
4, 92736, Note_on_c, 2, 52, 82
4, 92924, Note_off_c, 2, 62, 64
4, 92924, Note_off_c, 2, 56, 64
4, 92924, Note_off_c, 2, 52, 64
4, 92928, Note_on_c, 2, 61, 61
4, 92928, Note_on_c, 2, 57, 61
4, 93116, Note_off_c, 2, 61, 64
4, 93116, Note_off_c, 2, 57, 64
4, 93120, Note_on_c, 2, 61, 61
4, 93120, Note_on_c, 2, 57, 61
4, 93120, Note_on_c, 2, 52, 61
4, 93308, Note_off_c, 2, 61, 64
4, 93308, Note_off_c, 2, 57, 64
4, 93308, Note_off_c, 2, 52, 64
4, 93312, Note_on_c, 2, 62, 61
4, 93312, Note_on_c, 2, 57, 61
4, 93312, Note_on_c, 2, 50, 61
4, 93500, Note_off_c, 2, 62, 64
4, 93500, Note_off_c, 2, 57, 64
4, 93500, Note_off_c, 2, 50, 64
4, 93504, Note_on_c, 2, 57, 61
4, 93504, Note_on_c, 2, 49, 61
4, 93692, Note_off_c, 2, 57, 64
4, 93692, Note_off_c, 2, 49, 64
4, 93696, Note_on_c, 2, 57, 61
4, 93696, Note_on_c, 2, 50, 61
4, 93884, Note_off_c, 2, 57, 64
4, 93884, Note_off_c, 2, 50, 64
4, 93888, Note_on_c, 2, 50, 61
4, 94076, Note_off_c, 2, 50, 64
4, 94080, Note_on_c, 2, 50, 61
4, 94268, Note_off_c, 2, 50, 64
4, 94272, Note_on_c, 2, 50, 61
4, 94460, Note_off_c, 2, 50, 64
4, 94464, Note_on_c, 2, 50, 61
4, 94652, Note_off_c, 2, 50, 64
4, 94656, Note_on_c, 2, 50, 61
4, 94656, Note_on_c, 2, 50, 61
4, 94844, Note_off_c, 2, 50, 64
4, 94844, Note_off_c, 2, 50, 64
4, 94848, Note_on_c, 2, 54, 61
4, 94848, Note_on_c, 2, 50, 61
4, 95036, Note_off_c, 2, 54, 64
4, 95036, Note_off_c, 2, 50, 64
4, 95040, Note_on_c, 2, 54, 61
4, 95040, Note_on_c, 2, 50, 61
4, 95228, Note_off_c, 2, 54, 64
4, 95228, Note_off_c, 2, 50, 64
4, 95232, Note_on_c, 2, 61, 61
4, 95232, Note_on_c, 2, 52, 61
4, 95324, Note_off_c, 2, 61, 64
4, 95328, Note_on_c, 2, 64, 61
4, 95420, Note_off_c, 2, 52, 64
4, 95420, Note_off_c, 2, 64, 64
4, 95424, Note_on_c, 2, 61, 61
4, 95424, Note_on_c, 2, 52, 61
4, 95516, Note_off_c, 2, 61, 64
4, 95520, Note_on_c, 2, 57, 61
4, 95600, Note_on_c, 2, 52, 61
4, 95612, Note_off_c, 2, 52, 64
4, 95612, Note_off_c, 2, 57, 64
4, 95616, Note_on_c, 2, 61, 61
4, 95708, Note_off_c, 2, 61, 64
4, 95712, Note_on_c, 2, 64, 61
4, 95788, Note_off_c, 2, 52, 64
4, 95804, Note_off_c, 2, 64, 64
4, 95808, Note_on_c, 2, 61, 61
4, 95808, Note_on_c, 2, 52, 61
4, 95900, Note_off_c, 2, 61, 64
4, 95904, Note_on_c, 2, 57, 61
4, 95996, Note_off_c, 2, 52, 64
4, 95996, Note_off_c, 2, 57, 64
4, 96000, Note_on_c, 2, 62, 61
4, 96000, Note_on_c, 2, 52, 61
4, 96092, Note_off_c, 2, 62, 64
4, 96096, Note_on_c, 2, 64, 61
4, 96188, Note_off_c, 2, 52, 64
4, 96188, Note_off_c, 2, 64, 64
4, 96192, Note_on_c, 2, 62, 61
4, 96192, Note_on_c, 2, 52, 61
4, 96284, Note_off_c, 2, 62, 64
4, 96288, Note_on_c, 2, 59, 61
4, 96380, Note_off_c, 2, 52, 64
4, 96380, Note_off_c, 2, 59, 64
4, 96384, Note_on_c, 2, 62, 61
4, 96384, Note_on_c, 2, 52, 61
4, 96476, Note_off_c, 2, 62, 64
4, 96480, Note_on_c, 2, 64, 61
4, 96572, Note_off_c, 2, 52, 64
4, 96572, Note_off_c, 2, 64, 64
4, 96576, Note_on_c, 2, 62, 61
4, 96576, Note_on_c, 2, 52, 61
4, 96668, Note_off_c, 2, 62, 64
4, 96672, Note_on_c, 2, 59, 61
4, 96764, Note_off_c, 2, 52, 64
4, 96764, Note_off_c, 2, 59, 64
4, 96768, Note_on_c, 2, 57, 55
4, 96768, Note_on_c, 2, 61, 55
4, 96956, Note_off_c, 2, 57, 64
4, 96956, Note_off_c, 2, 61, 64
4, 96960, Note_on_c, 2, 57, 55
4, 97148, Note_off_c, 2, 57, 64
4, 97152, Note_on_c, 2, 57, 55
4, 97340, Note_off_c, 2, 57, 64
4, 97344, Note_on_c, 2, 57, 55
4, 97532, Note_off_c, 2, 57, 64
4, 97536, Note_on_c, 2, 57, 55
4, 97724, Note_off_c, 2, 57, 64
4, 97728, Note_on_c, 2, 57, 55
4, 97916, Note_off_c, 2, 57, 64
4, 97920, Note_on_c, 2, 57, 55
4, 98108, Note_off_c, 2, 57, 64
4, 98112, Note_on_c, 2, 57, 55
4, 98300, Note_off_c, 2, 57, 64
4, 98304, Note_on_c, 2, 45, 55
4, 98684, Note_off_c, 2, 45, 64
4, 98688, Note_on_c, 2, 54, 55
4, 98784, Note_on_c, 2, 57, 55
4, 98876, Note_off_c, 2, 54, 64
4, 98880, Note_on_c, 2, 52, 55
4, 98972, Note_off_c, 2, 57, 64
4, 98972, Note_off_c, 2, 52, 64
4, 98976, Note_on_c, 2, 50, 55
4, 98976, Note_on_c, 2, 57, 55
4, 99068, Note_off_c, 2, 50, 64
4, 99068, Note_off_c, 2, 57, 64
4, 99072, Note_on_c, 2, 57, 55
4, 99072, Note_on_c, 2, 52, 55
4, 99260, Note_off_c, 2, 57, 64
4, 99260, Note_off_c, 2, 52, 64
4, 99264, Note_on_c, 2, 52, 55
4, 99264, Note_on_c, 2, 40, 55
4, 99452, Note_off_c, 2, 52, 64
4, 99452, Note_off_c, 2, 40, 64
4, 99456, Note_on_c, 2, 52, 55
4, 99456, Note_on_c, 2, 45, 55
4, 99548, Note_off_c, 2, 52, 64
4, 99548, Note_off_c, 2, 45, 64
4, 99552, Note_on_c, 2, 49, 55
4, 99644, Note_off_c, 2, 49, 64
4, 99648, Note_on_c, 2, 47, 55
4, 99740, Note_off_c, 2, 47, 64
4, 99744, Note_on_c, 2, 45, 55
4, 99836, Note_off_c, 2, 45, 64
4, 99840, Note_on_c, 2, 52, 55
4, 100220, Note_off_c, 2, 52, 64
4, 100416, Note_on_c, 2, 52, 68
4, 100592, Note_on_c, 2, 45, 68
4, 100604, Note_off_c, 2, 52, 64
4, 101164, Note_off_c, 2, 45, 64
4, 101184, Note_on_c, 2, 57, 68
4, 101372, Note_off_c, 2, 57, 64
4, 101376, Note_on_c, 2, 62, 68
4, 101376, Note_on_c, 2, 50, 68
4, 101756, Note_off_c, 2, 62, 64
4, 101756, Note_off_c, 2, 50, 64
4, 101952, Note_on_c, 2, 52, 68
4, 102140, Note_off_c, 2, 52, 64
4, 102144, Note_on_c, 2, 52, 68
4, 102144, Note_on_c, 2, 45, 68
4, 102524, Note_off_c, 2, 52, 64
4, 102524, Note_off_c, 2, 45, 64
4, 102624, Note_on_c, 2, 49, 68
4, 102716, Note_off_c, 2, 49, 64
4, 102720, Note_on_c, 2, 50, 68
4, 102812, Note_off_c, 2, 50, 64
4, 102816, Note_on_c, 2, 51, 68
4, 102908, Note_off_c, 2, 51, 64
4, 102912, Note_on_c, 2, 52, 61
4, 103292, Note_off_c, 2, 52, 64
4, 103488, Note_on_c, 2, 52, 61
4, 103676, Note_off_c, 2, 52, 64
4, 103680, Note_on_c, 2, 45, 61
4, 104060, Note_off_c, 2, 45, 64
4, 104256, Note_on_c, 2, 57, 61
4, 104444, Note_off_c, 2, 57, 64
4, 104448, Note_on_c, 2, 50, 61
4, 104828, Note_off_c, 2, 50, 64
4, 104832, Note_on_c, 2, 52, 61
4, 105212, Note_off_c, 2, 52, 64
4, 105216, Note_on_c, 2, 45, 61
4, 105404, Note_off_c, 2, 45, 64
4, 105600, Note_on_c, 2, 45, 82
4, 105660, Note_off_c, 2, 45, 64
4, 105664, Note_on_c, 2, 47, 82
4, 105724, Note_off_c, 2, 47, 64
4, 105728, Note_on_c, 2, 45, 82
4, 105788, Note_off_c, 2, 45, 64
4, 105792, Note_on_c, 2, 47, 82
4, 105852, Note_off_c, 2, 47, 64
4, 105856, Note_on_c, 2, 48, 82
4, 105916, Note_off_c, 2, 48, 64
4, 105920, Note_on_c, 2, 47, 82
4, 105980, Note_off_c, 2, 47, 64
4, 105984, Note_on_c, 2, 48, 82
4, 106364, Note_off_c, 2, 48, 64
4, 106736, Note_on_c, 2, 54, 61
4, 108076, Note_off_c, 2, 54, 64
4, 108096, Note_on_c, 2, 54, 61
4, 108284, Note_off_c, 2, 54, 64
4, 108288, Note_on_c, 2, 54, 61
4, 108288, Note_on_c, 2, 47, 61
4, 108476, Note_off_c, 2, 54, 64
4, 108476, Note_off_c, 2, 47, 64
4, 108480, Note_on_c, 2, 54, 61
4, 108480, Note_on_c, 2, 47, 61
4, 108668, Note_off_c, 2, 54, 64
4, 108668, Note_off_c, 2, 47, 64
4, 108672, Note_on_c, 2, 54, 61
4, 108672, Note_on_c, 2, 47, 61
4, 108860, Note_off_c, 2, 54, 64
4, 108860, Note_off_c, 2, 47, 64
4, 113664, Note_on_c, 2, 50, 74
4, 113852, Note_off_c, 2, 50, 64
4, 113856, Note_on_c, 2, 54, 74
4, 113856, Note_on_c, 2, 45, 74
4, 114044, Note_off_c, 2, 54, 64
4, 114044, Note_off_c, 2, 45, 64
4, 114048, Note_on_c, 2, 57, 74
4, 114048, Note_on_c, 2, 42, 74
4, 114224, Note_on_c, 2, 38, 74
4, 114236, Note_off_c, 2, 57, 64
4, 114236, Note_off_c, 2, 42, 64
4, 114240, Note_on_c, 2, 54, 74
4, 114412, Note_off_c, 2, 38, 64
4, 114428, Note_off_c, 2, 54, 64
4, 114432, Note_on_c, 2, 55, 74
4, 114432, Note_on_c, 2, 43, 74
4, 114620, Note_off_c, 2, 55, 64
4, 114620, Note_off_c, 2, 43, 64
4, 114624, Note_on_c, 2, 50, 74
4, 114812, Note_off_c, 2, 50, 64
4, 114816, Note_on_c, 2, 47, 74
4, 115004, Note_off_c, 2, 47, 64
4, 115008, Note_on_c, 2, 43, 74
4, 115196, Note_off_c, 2, 43, 64
4, 115200, Note_on_c, 2, 42, 74
4, 115388, Note_off_c, 2, 42, 64
4, 115392, Note_on_c, 2, 54, 74
4, 115580, Note_off_c, 2, 54, 64
4, 115584, Note_on_c, 2, 51, 74
4, 115772, Note_off_c, 2, 51, 64
4, 115776, Note_on_c, 2, 47, 74
4, 115964, Note_off_c, 2, 47, 64
4, 115968, Note_on_c, 2, 52, 74
4, 116156, Note_off_c, 2, 52, 64
4, 116160, Note_on_c, 2, 45, 74
4, 116348, Note_off_c, 2, 45, 64
4, 116352, Note_on_c, 2, 43, 74
4, 116540, Note_off_c, 2, 43, 64
4, 116544, Note_on_c, 2, 40, 74
4, 116732, Note_off_c, 2, 40, 64
4, 116736, Note_on_c, 2, 55, 74
4, 116924, Note_off_c, 2, 55, 64
4, 116928, Note_on_c, 2, 55, 74
4, 117116, Note_off_c, 2, 55, 64
4, 117120, Note_on_c, 2, 57, 74
4, 117308, Note_off_c, 2, 57, 64
4, 117312, Note_on_c, 2, 57, 74
4, 117500, Note_off_c, 2, 57, 64
4, 117504, Note_on_c, 2, 55, 74
4, 117692, Note_off_c, 2, 55, 64
4, 117696, Note_on_c, 2, 55, 74
4, 117884, Note_off_c, 2, 55, 64
4, 117888, Note_on_c, 2, 57, 74
4, 118076, Note_off_c, 2, 57, 64
4, 118080, Note_on_c, 2, 57, 74
4, 118268, Note_off_c, 2, 57, 64
4, 118272, Note_on_c, 2, 55, 74
4, 118460, Note_off_c, 2, 55, 64
4, 118464, Note_on_c, 2, 55, 82
4, 118652, Note_off_c, 2, 55, 64
4, 118656, Note_on_c, 2, 55, 82
4, 118844, Note_off_c, 2, 55, 64
4, 118848, Note_on_c, 2, 55, 82
4, 119036, Note_off_c, 2, 55, 64
4, 119040, Note_on_c, 2, 55, 61
4, 119040, Note_on_c, 2, 45, 61
4, 119228, Note_off_c, 2, 55, 64
4, 121344, Note_on_c, 2, 45, 61
4, 121532, Note_off_c, 2, 45, 64
4, 121532, Note_off_c, 2, 45, 64
4, 121536, Note_on_c, 2, 61, 82
4, 121536, Note_on_c, 2, 64, 82
4, 121724, Note_off_c, 2, 61, 64
4, 121724, Note_off_c, 2, 64, 64
4, 121728, Note_on_c, 2, 62, 82
4, 121728, Note_on_c, 2, 65, 82
4, 121916, Note_off_c, 2, 62, 64
4, 121916, Note_off_c, 2, 65, 64
4, 121920, Note_on_c, 2, 64, 82
4, 121920, Note_on_c, 2, 67, 82
4, 122108, Note_off_c, 2, 64, 64
4, 122108, Note_off_c, 2, 67, 64
4, 122112, Note_on_c, 2, 65, 82
4, 122112, Note_on_c, 2, 62, 82
4, 122112, Note_on_c, 2, 57, 82
4, 122288, Note_on_c, 2, 57, 82
4, 122300, Note_off_c, 2, 65, 64
4, 122300, Note_off_c, 2, 62, 64
4, 122300, Note_off_c, 2, 57, 64
4, 122304, Note_on_c, 2, 62, 82
4, 122304, Note_on_c, 2, 65, 82
4, 122428, Note_off_c, 2, 57, 64
4, 122444, Note_off_c, 2, 62, 64
4, 122444, Note_off_c, 2, 65, 64
4, 122448, Note_on_c, 2, 65, 82
4, 122448, Note_on_c, 2, 62, 82
4, 122448, Note_on_c, 2, 57, 82
4, 122492, Note_off_c, 2, 65, 64
4, 122492, Note_off_c, 2, 62, 64
4, 122492, Note_off_c, 2, 57, 64
4, 122496, Note_on_c, 2, 65, 82
4, 122496, Note_on_c, 2, 62, 82
4, 122496, Note_on_c, 2, 57, 82
4, 122684, Note_off_c, 2, 65, 64
4, 122684, Note_off_c, 2, 62, 64
4, 122684, Note_off_c, 2, 57, 64
4, 122688, Note_on_c, 2, 65, 82
4, 122688, Note_on_c, 2, 62, 82
4, 122688, Note_on_c, 2, 57, 82
4, 122876, Note_off_c, 2, 65, 64
4, 122876, Note_off_c, 2, 62, 64
4, 122876, Note_off_c, 2, 57, 64
4, 122880, Note_on_c, 2, 64, 82
4, 122880, Note_on_c, 2, 61, 82
4, 122880, Note_on_c, 2, 57, 82
4, 123260, Note_off_c, 2, 64, 64
4, 123260, Note_off_c, 2, 61, 64
4, 123260, Note_off_c, 2, 57, 64
4, 123648, Note_on_c, 2, 65, 61
4, 123648, Note_on_c, 2, 62, 61
4, 123648, Note_on_c, 2, 57, 61
4, 123836, Note_off_c, 2, 65, 64
4, 123836, Note_off_c, 2, 62, 64
4, 123836, Note_off_c, 2, 57, 64
4, 123840, Note_on_c, 2, 65, 61
4, 123840, Note_on_c, 2, 62, 61
4, 123840, Note_on_c, 2, 57, 61
4, 123980, Note_off_c, 2, 65, 64
4, 123980, Note_off_c, 2, 62, 64
4, 123980, Note_off_c, 2, 57, 64
4, 123984, Note_on_c, 2, 65, 61
4, 123984, Note_on_c, 2, 62, 61
4, 123984, Note_on_c, 2, 57, 61
4, 124028, Note_off_c, 2, 65, 64
4, 124028, Note_off_c, 2, 62, 64
4, 124028, Note_off_c, 2, 57, 64
4, 124032, Note_on_c, 2, 65, 61
4, 124032, Note_on_c, 2, 62, 61
4, 124032, Note_on_c, 2, 57, 61
4, 124220, Note_off_c, 2, 65, 64
4, 124220, Note_off_c, 2, 62, 64
4, 124220, Note_off_c, 2, 57, 64
4, 124224, Note_on_c, 2, 65, 61
4, 124224, Note_on_c, 2, 62, 61
4, 124224, Note_on_c, 2, 57, 61
4, 124412, Note_off_c, 2, 65, 64
4, 124412, Note_off_c, 2, 62, 64
4, 124412, Note_off_c, 2, 57, 64
4, 124416, Note_on_c, 2, 64, 61
4, 124416, Note_on_c, 2, 61, 61
4, 124416, Note_on_c, 2, 57, 61
4, 124604, Note_off_c, 2, 64, 64
4, 124604, Note_off_c, 2, 61, 64
4, 124604, Note_off_c, 2, 57, 64
4, 124608, Note_on_c, 2, 57, 82
4, 124748, Note_off_c, 2, 57, 64
4, 124752, Note_on_c, 2, 57, 82
4, 124796, Note_off_c, 2, 57, 64
4, 124800, Note_on_c, 2, 57, 82
4, 124988, Note_off_c, 2, 57, 64
4, 124992, Note_on_c, 2, 57, 82
4, 125180, Note_off_c, 2, 57, 64
4, 125184, Note_on_c, 2, 62, 82
4, 125372, Note_off_c, 2, 62, 64
4, 125376, Note_on_c, 2, 66, 82
4, 125468, Note_off_c, 2, 66, 64
4, 125472, Note_on_c, 2, 57, 82
4, 125564, Note_off_c, 2, 57, 64
4, 125568, Note_on_c, 2, 62, 82
4, 125660, Note_off_c, 2, 62, 64
4, 125664, Note_on_c, 2, 57, 82
4, 125756, Note_off_c, 2, 57, 64
4, 125760, Note_on_c, 2, 54, 82
4, 125852, Note_off_c, 2, 54, 64
4, 125856, Note_on_c, 2, 50, 82
4, 125948, Note_off_c, 2, 50, 64
4, 125952, Note_on_c, 2, 45, 82
4, 126332, Note_off_c, 2, 45, 64
4, 127488, Note_on_c, 2, 62, 82
4, 127868, Note_off_c, 2, 62, 64
4, 127872, Note_on_c, 2, 57, 82
4, 128156, Note_off_c, 2, 57, 64
4, 128160, Note_on_c, 2, 57, 82
4, 128252, Note_off_c, 2, 57, 64
4, 128256, Note_on_c, 2, 54, 82
4, 128444, Note_off_c, 2, 54, 64
4, 128448, Note_on_c, 2, 50, 82
4, 128636, Note_off_c, 2, 50, 64
4, 129216, Note_on_c, 2, 59, 61
4, 129404, Note_off_c, 2, 59, 64
4, 129408, Note_on_c, 2, 59, 61
4, 129596, Note_off_c, 2, 59, 64
4, 129984, Note_on_c, 2, 55, 61
4, 130172, Note_off_c, 2, 55, 64
4, 130176, Note_on_c, 2, 55, 61
4, 130364, Note_off_c, 2, 55, 64
4, 130560, Note_on_c, 2, 66, 61
4, 130748, Note_off_c, 2, 66, 64
4, 130752, Note_on_c, 2, 62, 61
4, 130940, Note_off_c, 2, 62, 64
4, 130944, Note_on_c, 2, 64, 61
4, 131132, Note_off_c, 2, 64, 64
4, 131136, Note_on_c, 2, 69, 61
4, 131324, Note_off_c, 2, 69, 64
4, 131328, Note_on_c, 2, 62, 61
4, 131516, Note_off_c, 2, 62, 64
4, 131520, Note_on_c, 2, 62, 61
4, 131552, Note_off_c, 2, 62, 64
4, 131556, Note_on_c, 2, 64, 61
4, 131588, Note_off_c, 2, 64, 64
4, 131592, Note_on_c, 2, 62, 61
4, 131624, Note_off_c, 2, 62, 64
4, 131628, Note_on_c, 2, 64, 61
4, 131660, Note_off_c, 2, 64, 64
4, 131664, Note_on_c, 2, 64, 61
4, 131708, Note_off_c, 2, 64, 64
4, 131712, Note_on_c, 2, 66, 61
4, 131900, Note_off_c, 2, 66, 64
4, 132288, Note_on_c, 2, 59, 61
4, 132288, Note_on_c, 2, 62, 61
4, 132476, Note_off_c, 2, 59, 64
4, 132476, Note_off_c, 2, 62, 64
4, 132480, Note_on_c, 2, 59, 61
4, 132480, Note_on_c, 2, 62, 61
4, 132668, Note_off_c, 2, 59, 64
4, 132668, Note_off_c, 2, 62, 64
4, 133056, Note_on_c, 2, 55, 61
4, 133056, Note_on_c, 2, 62, 61
4, 133244, Note_off_c, 2, 55, 64
4, 133244, Note_off_c, 2, 62, 64
4, 133248, Note_on_c, 2, 55, 61
4, 133248, Note_on_c, 2, 62, 61
4, 133436, Note_off_c, 2, 55, 64
4, 133436, Note_off_c, 2, 62, 64
4, 133632, Note_on_c, 2, 66, 61
4, 133820, Note_off_c, 2, 66, 64
4, 133824, Note_on_c, 2, 66, 61
4, 134012, Note_off_c, 2, 66, 64
4, 134016, Note_on_c, 2, 66, 61
4, 134204, Note_off_c, 2, 66, 64
4, 134208, Note_on_c, 2, 66, 61
4, 134396, Note_off_c, 2, 66, 64
4, 134400, Note_on_c, 2, 64, 62
4, 134588, Note_off_c, 2, 64, 64
4, 134592, Note_on_c, 2, 64, 62
4, 134780, Note_off_c, 2, 64, 64
4, 134784, Note_on_c, 2, 64, 63
4, 134876, Note_off_c, 2, 64, 64
4, 134880, Note_on_c, 2, 62, 63
4, 134972, Note_off_c, 2, 62, 64
4, 134976, Note_on_c, 2, 61, 66
4, 135068, Note_off_c, 2, 61, 64
4, 135072, Note_on_c, 2, 59, 66
4, 135164, Note_off_c, 2, 59, 64
4, 135168, Note_on_c, 2, 57, 67
4, 135356, Note_off_c, 2, 57, 64
4, 135360, Note_on_c, 2, 57, 67
4, 135548, Note_off_c, 2, 57, 64
4, 135552, Note_on_c, 2, 57, 68
4, 135740, Note_off_c, 2, 57, 64
4, 135744, Note_on_c, 2, 57, 69
4, 135932, Note_off_c, 2, 57, 64
4, 135936, Note_on_c, 2, 57, 71
4, 136124, Note_off_c, 2, 57, 64
4, 136128, Note_on_c, 2, 57, 71
4, 136316, Note_off_c, 2, 57, 64
4, 136320, Note_on_c, 2, 57, 72
4, 136508, Note_off_c, 2, 57, 64
4, 136512, Note_on_c, 2, 57, 73
4, 136700, Note_off_c, 2, 57, 64
4, 136704, Note_on_c, 2, 62, 74
4, 136892, Note_off_c, 2, 62, 64
4, 136896, Note_on_c, 2, 57, 74
4, 137084, Note_off_c, 2, 57, 64
4, 137088, Note_on_c, 2, 61, 74
4, 137276, Note_off_c, 2, 61, 64
4, 137280, Note_on_c, 2, 57, 74
4, 137468, Note_off_c, 2, 57, 64
4, 137472, Note_on_c, 2, 62, 74
4, 137660, Note_off_c, 2, 62, 64
4, 137664, Note_on_c, 2, 57, 74
4, 137852, Note_off_c, 2, 57, 64
4, 137856, Note_on_c, 2, 61, 74
4, 138044, Note_off_c, 2, 61, 64
4, 138048, Note_on_c, 2, 57, 74
4, 138236, Note_off_c, 2, 57, 64
4, 138240, Note_on_c, 2, 62, 74
4, 138620, Note_off_c, 2, 62, 64
4, 140160, Note_on_c, 2, 57, 82
4, 140220, Note_off_c, 2, 57, 64
4, 140224, Note_on_c, 2, 59, 82
4, 140284, Note_off_c, 2, 59, 64
4, 140288, Note_on_c, 2, 57, 82
4, 140348, Note_off_c, 2, 57, 64
4, 140352, Note_on_c, 2, 55, 82
4, 140412, Note_off_c, 2, 55, 64
4, 140416, Note_on_c, 2, 57, 82
4, 140476, Note_off_c, 2, 57, 64
4, 140480, Note_on_c, 2, 55, 82
4, 140540, Note_off_c, 2, 55, 64
4, 140544, Note_on_c, 2, 54, 82
4, 140732, Note_off_c, 2, 54, 64
4, 140736, Note_on_c, 2, 62, 61
4, 140924, Note_off_c, 2, 62, 64
4, 140928, Note_on_c, 2, 62, 61
4, 141116, Note_off_c, 2, 62, 64
4, 141120, Note_on_c, 2, 62, 61
4, 141308, Note_off_c, 2, 62, 64
4, 141312, Note_on_c, 2, 64, 61
4, 141500, Note_off_c, 2, 64, 64
4, 141504, Note_on_c, 2, 64, 61
4, 141692, Note_off_c, 2, 64, 64
4, 141696, Note_on_c, 2, 62, 61
4, 141884, Note_off_c, 2, 62, 64
4, 141888, Note_on_c, 2, 62, 61
4, 142076, Note_off_c, 2, 62, 64
4, 142080, Note_on_c, 2, 61, 61
4, 142268, Note_off_c, 2, 61, 64
4, 142272, Note_on_c, 2, 61, 61
4, 142460, Note_off_c, 2, 61, 64
4, 142464, Note_on_c, 2, 57, 61
4, 142652, Note_off_c, 2, 57, 64
4, 142656, Note_on_c, 2, 57, 61
4, 142844, Note_off_c, 2, 57, 64
4, 142848, Note_on_c, 2, 59, 61
4, 143036, Note_off_c, 2, 59, 64
4, 143040, Note_on_c, 2, 61, 61
4, 143228, Note_off_c, 2, 61, 64
4, 143232, Note_on_c, 2, 62, 61
4, 143324, Note_off_c, 2, 62, 64
4, 143328, Note_on_c, 2, 61, 61
4, 143420, Note_off_c, 2, 61, 64
4, 143424, Note_on_c, 2, 62, 61
4, 143516, Note_off_c, 2, 62, 64
4, 143520, Note_on_c, 2, 64, 61
4, 143612, Note_off_c, 2, 64, 64
4, 143616, Note_on_c, 2, 66, 61
4, 143804, Note_off_c, 2, 66, 64
4, 143808, Note_on_c, 2, 66, 61
4, 143996, Note_off_c, 2, 66, 64
4, 144000, Note_on_c, 2, 66, 61
4, 144188, Note_off_c, 2, 66, 64
4, 144192, Note_on_c, 2, 66, 61
4, 144380, Note_off_c, 2, 66, 64
4, 144384, Note_on_c, 2, 67, 61
4, 144572, Note_off_c, 2, 67, 64
4, 144576, Note_on_c, 2, 55, 61
4, 144764, Note_off_c, 2, 55, 64
4, 144768, Note_on_c, 2, 55, 61
4, 144956, Note_off_c, 2, 55, 64
4, 144960, Note_on_c, 2, 55, 61
4, 145148, Note_off_c, 2, 55, 64
4, 145152, Note_on_c, 2, 55, 61
4, 145340, Note_off_c, 2, 55, 64
4, 145344, Note_on_c, 2, 55, 61
4, 145532, Note_off_c, 2, 55, 64
4, 145536, Note_on_c, 2, 55, 61
4, 145724, Note_off_c, 2, 55, 64
4, 145728, Note_on_c, 2, 56, 61
4, 145916, Note_off_c, 2, 56, 64
4, 145920, Note_on_c, 2, 57, 61
4, 146300, Note_off_c, 2, 57, 64
4, 146304, Note_on_c, 2, 52, 82
4, 146364, Note_off_c, 2, 52, 64
4, 146368, Note_on_c, 2, 54, 82
4, 146428, Note_off_c, 2, 54, 64
4, 146432, Note_on_c, 2, 52, 82
4, 146492, Note_off_c, 2, 52, 64
4, 146496, Note_on_c, 2, 49, 82
4, 146556, Note_off_c, 2, 49, 64
4, 146560, Note_on_c, 2, 50, 82
4, 146620, Note_off_c, 2, 50, 64
4, 146624, Note_on_c, 2, 49, 82
4, 146684, Note_off_c, 2, 49, 64
4, 146688, Note_on_c, 2, 45, 82
4, 147068, Note_off_c, 2, 45, 64
4, 147456, Note_on_c, 2, 49, 68
4, 147644, Note_off_c, 2, 49, 64
4, 147648, Note_on_c, 2, 50, 68
4, 147836, Note_off_c, 2, 50, 64
4, 147840, Note_on_c, 2, 49, 68
4, 148028, Note_off_c, 2, 49, 64
4, 148032, Note_on_c, 2, 50, 68
4, 148220, Note_off_c, 2, 50, 64
4, 148224, Note_on_c, 2, 49, 68
4, 148604, Note_off_c, 2, 49, 64
4, 148992, Note_on_c, 2, 54, 68
4, 148992, Note_on_c, 2, 50, 68
4, 149180, Note_off_c, 2, 54, 64
4, 149180, Note_off_c, 2, 50, 64
4, 149184, Note_on_c, 2, 55, 68
4, 149184, Note_on_c, 2, 49, 68
4, 149372, Note_off_c, 2, 55, 64
4, 149372, Note_off_c, 2, 49, 64
4, 149376, Note_on_c, 2, 54, 68
4, 149376, Note_on_c, 2, 50, 68
4, 149564, Note_off_c, 2, 54, 64
4, 149564, Note_off_c, 2, 50, 64
4, 149568, Note_on_c, 2, 55, 68
4, 149568, Note_on_c, 2, 49, 68
4, 149756, Note_off_c, 2, 55, 64
4, 149756, Note_off_c, 2, 49, 64
4, 149760, Note_on_c, 2, 54, 68
4, 149760, Note_on_c, 2, 50, 68
4, 150140, Note_off_c, 2, 54, 64
4, 150140, Note_off_c, 2, 50, 64
4, 150528, Note_on_c, 2, 49, 55
4, 150716, Note_off_c, 2, 49, 64
4, 150720, Note_on_c, 2, 50, 55
4, 150908, Note_off_c, 2, 50, 64
4, 150912, Note_on_c, 2, 49, 55
4, 151100, Note_off_c, 2, 49, 64
4, 151104, Note_on_c, 2, 50, 55
4, 151292, Note_off_c, 2, 50, 64
4, 151296, Note_on_c, 2, 49, 55
4, 151676, Note_off_c, 2, 49, 64
4, 152064, Note_on_c, 2, 50, 55
4, 152252, Note_off_c, 2, 50, 64
4, 152256, Note_on_c, 2, 45, 55
4, 152444, Note_off_c, 2, 45, 64
4, 152448, Note_on_c, 2, 42, 55
4, 152636, Note_off_c, 2, 42, 64
4, 152640, Note_on_c, 2, 38, 55
4, 152828, Note_off_c, 2, 38, 64
4, 152832, Note_on_c, 2, 50, 55
4, 153020, Note_off_c, 2, 50, 64
4, 153024, Note_on_c, 2, 45, 55
4, 153212, Note_off_c, 2, 45, 64
4, 153216, Note_on_c, 2, 42, 55
4, 153404, Note_off_c, 2, 42, 64
4, 153408, Note_on_c, 2, 38, 55
4, 153596, Note_off_c, 2, 38, 64
4, 153600, Note_on_c, 2, 45, 74
4, 153788, Note_off_c, 2, 45, 64
4, 153792, Note_on_c, 2, 45, 74
4, 153980, Note_off_c, 2, 45, 64
4, 153984, Note_on_c, 2, 45, 74
4, 154172, Note_off_c, 2, 45, 64
4, 154176, Note_on_c, 2, 45, 74
4, 154364, Note_off_c, 2, 45, 64
4, 154368, Note_on_c, 2, 38, 74
4, 154556, Note_off_c, 2, 38, 64
4, 154560, Note_on_c, 2, 50, 74
4, 154748, Note_off_c, 2, 50, 64
4, 154752, Note_on_c, 2, 38, 74
4, 154940, Note_off_c, 2, 38, 64
4, 155136, Note_on_c, 2, 50, 61
4, 155324, Note_off_c, 2, 50, 64
4, 155328, Note_on_c, 2, 45, 61
4, 155516, Note_off_c, 2, 45, 64
4, 155520, Note_on_c, 2, 52, 61
4, 155708, Note_off_c, 2, 52, 64
4, 155712, Note_on_c, 2, 45, 61
4, 155900, Note_off_c, 2, 45, 64
4, 155904, Note_on_c, 2, 54, 61
4, 156092, Note_off_c, 2, 54, 64
4, 156096, Note_on_c, 2, 45, 61
4, 156284, Note_off_c, 2, 45, 64
4, 156288, Note_on_c, 2, 50, 61
4, 156476, Note_off_c, 2, 50, 64
4, 156480, Note_on_c, 2, 45, 61
4, 156668, Note_off_c, 2, 45, 64
4, 156672, Note_on_c, 2, 49, 61
4, 156860, Note_off_c, 2, 49, 64
4, 156864, Note_on_c, 2, 45, 61
4, 157052, Note_off_c, 2, 45, 64
4, 157056, Note_on_c, 2, 50, 61
4, 157244, Note_off_c, 2, 50, 64
4, 157248, Note_on_c, 2, 45, 61
4, 157436, Note_off_c, 2, 45, 64
4, 157440, Note_on_c, 2, 52, 61
4, 157628, Note_off_c, 2, 52, 64
4, 157632, Note_on_c, 2, 45, 61
4, 157820, Note_off_c, 2, 45, 64
4, 157824, Note_on_c, 2, 49, 61
4, 158012, Note_off_c, 2, 49, 64
4, 158016, Note_on_c, 2, 45, 61
4, 158204, Note_off_c, 2, 45, 64
4, 158208, Note_on_c, 2, 50, 61
4, 158396, Note_off_c, 2, 50, 64
4, 158400, Note_on_c, 2, 45, 61
4, 158588, Note_off_c, 2, 45, 64
4, 158592, Note_on_c, 2, 52, 61
4, 158780, Note_off_c, 2, 52, 64
4, 158784, Note_on_c, 2, 45, 61
4, 158972, Note_off_c, 2, 45, 64
4, 158976, Note_on_c, 2, 54, 61
4, 159164, Note_off_c, 2, 54, 64
4, 159168, Note_on_c, 2, 45, 61
4, 159356, Note_off_c, 2, 45, 64
4, 159360, Note_on_c, 2, 50, 61
4, 159548, Note_off_c, 2, 50, 64
4, 159552, Note_on_c, 2, 45, 61
4, 159740, Note_off_c, 2, 45, 64
4, 159744, Note_on_c, 2, 49, 61
4, 159932, Note_off_c, 2, 49, 64
4, 159936, Note_on_c, 2, 45, 61
4, 160124, Note_off_c, 2, 45, 64
4, 160128, Note_on_c, 2, 50, 61
4, 160316, Note_off_c, 2, 50, 64
4, 160320, Note_on_c, 2, 45, 61
4, 160508, Note_off_c, 2, 45, 64
4, 160512, Note_on_c, 2, 52, 61
4, 160700, Note_off_c, 2, 52, 64
4, 160704, Note_on_c, 2, 45, 61
4, 160892, Note_off_c, 2, 45, 64
4, 160896, Note_on_c, 2, 49, 61
4, 161084, Note_off_c, 2, 49, 64
4, 161088, Note_on_c, 2, 45, 61
4, 161276, Note_off_c, 2, 45, 64
4, 161280, Note_on_c, 2, 50, 61
4, 161468, Note_off_c, 2, 50, 64
4, 162816, Note_on_c, 2, 50, 61
4, 163004, Note_off_c, 2, 50, 64
4, 163008, Note_on_c, 2, 60, 61
4, 163196, Note_off_c, 2, 60, 64
4, 163200, Note_on_c, 2, 59, 61
4, 163388, Note_off_c, 2, 59, 64
4, 163392, Note_on_c, 2, 55, 61
4, 163580, Note_off_c, 2, 55, 64
4, 163584, Note_on_c, 2, 54, 61
4, 163772, Note_off_c, 2, 54, 64
4, 163776, Note_on_c, 2, 60, 61
4, 163964, Note_off_c, 2, 60, 64
4, 163968, Note_on_c, 2, 59, 61
4, 164156, Note_off_c, 2, 59, 64
4, 164160, Note_on_c, 2, 55, 61
4, 164348, Note_off_c, 2, 55, 64
4, 164352, Note_on_c, 2, 54, 61
4, 164540, Note_off_c, 2, 54, 64
4, 176640, Note_on_c, 2, 45, 74
4, 176828, Note_off_c, 2, 45, 64
4, 176832, Note_on_c, 2, 45, 74
4, 177020, Note_off_c, 2, 45, 64
4, 177024, Note_on_c, 2, 45, 77
4, 177212, Note_off_c, 2, 45, 64
4, 177216, Note_on_c, 2, 45, 77
4, 177404, Note_off_c, 2, 45, 64
4, 177408, Note_on_c, 2, 45, 78
4, 177596, Note_off_c, 2, 45, 64
4, 177600, Note_on_c, 2, 45, 79
4, 177788, Note_off_c, 2, 45, 64
4, 177792, Note_on_c, 2, 45, 79
4, 177792, Note_on_c, 2, 33, 61
4, 177952, Note_on_c, 2, 33, 61
4, 177980, Note_off_c, 2, 45, 64
4, 177980, Note_off_c, 2, 33, 64
4, 177984, Note_on_c, 2, 45, 80
4, 178140, Note_off_c, 2, 33, 64
4, 178172, Note_off_c, 2, 45, 64
4, 178176, Note_on_c, 2, 50, 82
4, 178176, Note_on_c, 2, 38, 61
4, 178364, Note_off_c, 2, 50, 64
4, 178364, Note_off_c, 2, 38, 64
4, 178368, Note_on_c, 2, 50, 82
4, 178428, Note_off_c, 2, 50, 64
4, 178432, Note_on_c, 2, 52, 82
4, 178492, Note_off_c, 2, 52, 64
4, 178496, Note_on_c, 2, 50, 82
4, 178556, Note_off_c, 2, 50, 64
4, 178560, Note_on_c, 2, 49, 82
4, 178620, Note_off_c, 2, 49, 64
4, 178624, Note_on_c, 2, 50, 82
4, 178684, Note_off_c, 2, 50, 64
4, 178688, Note_on_c, 2, 49, 82
4, 178748, Note_off_c, 2, 49, 64
4, 178752, Note_on_c, 2, 47, 82
4, 178812, Note_off_c, 2, 47, 64
4, 178816, Note_on_c, 2, 49, 82
4, 178876, Note_off_c, 2, 49, 64
4, 178880, Note_on_c, 2, 47, 82
4, 178940, Note_off_c, 2, 47, 64
4, 178944, Note_on_c, 2, 45, 82
4, 178944, Note_on_c, 2, 57, 61
4, 179120, Note_on_c, 2, 62, 82
4, 179132, Note_off_c, 2, 45, 64
4, 179132, Note_off_c, 2, 57, 64
4, 179136, Note_on_c, 2, 59, 82
4, 179196, Note_off_c, 2, 59, 64
4, 179200, Note_on_c, 2, 61, 82
4, 179260, Note_off_c, 2, 61, 64
4, 179264, Note_on_c, 2, 59, 82
4, 179324, Note_off_c, 2, 59, 64
4, 179328, Note_on_c, 2, 57, 82
4, 179388, Note_off_c, 2, 57, 64
4, 179392, Note_on_c, 2, 59, 82
4, 179452, Note_off_c, 2, 59, 64
4, 179456, Note_on_c, 2, 57, 82
4, 179516, Note_off_c, 2, 57, 64
4, 179520, Note_on_c, 2, 55, 82
4, 179520, Note_on_c, 2, 62, 61
4, 179580, Note_off_c, 2, 55, 64
4, 179584, Note_on_c, 2, 57, 82
4, 179644, Note_off_c, 2, 57, 64
4, 179648, Note_on_c, 2, 55, 82
4, 179692, Note_off_c, 2, 62, 64
4, 179708, Note_off_c, 2, 62, 64
4, 179708, Note_off_c, 2, 55, 64
4, 179712, Note_on_c, 2, 54, 82
4, 179712, Note_on_c, 2, 62, 82
4, 179900, Note_off_c, 2, 54, 64
4, 179904, Note_on_c, 2, 55, 82
4, 179964, Note_off_c, 2, 55, 64
4, 179968, Note_on_c, 2, 57, 82
4, 180028, Note_off_c, 2, 57, 64
4, 180032, Note_on_c, 2, 55, 82
4, 180092, Note_off_c, 2, 55, 64
4, 180096, Note_on_c, 2, 54, 82
4, 180156, Note_off_c, 2, 54, 64
4, 180160, Note_on_c, 2, 55, 82
4, 180220, Note_off_c, 2, 55, 64
4, 180224, Note_on_c, 2, 54, 82
4, 180284, Note_off_c, 2, 54, 64
4, 180288, Note_on_c, 2, 52, 82
4, 180348, Note_off_c, 2, 52, 64
4, 180352, Note_on_c, 2, 54, 82
4, 180412, Note_off_c, 2, 54, 64
4, 180416, Note_on_c, 2, 52, 82
4, 180476, Note_off_c, 2, 62, 64
4, 180476, Note_off_c, 2, 52, 64
4, 180480, Note_on_c, 2, 50, 82
4, 180480, Note_on_c, 2, 62, 82
4, 180656, Note_on_c, 2, 62, 82
4, 180668, Note_off_c, 2, 50, 64
4, 180668, Note_off_c, 2, 62, 64
4, 180672, Note_on_c, 2, 59, 82
4, 180732, Note_off_c, 2, 59, 64
4, 180736, Note_on_c, 2, 61, 82
4, 180796, Note_off_c, 2, 61, 64
4, 180800, Note_on_c, 2, 59, 82
4, 180860, Note_off_c, 2, 59, 64
4, 180864, Note_on_c, 2, 57, 82
4, 180924, Note_off_c, 2, 57, 64
4, 180928, Note_on_c, 2, 59, 82
4, 180988, Note_off_c, 2, 59, 64
4, 180992, Note_on_c, 2, 57, 82
4, 181036, Note_off_c, 2, 62, 64
4, 181052, Note_off_c, 2, 57, 64
4, 181056, Note_on_c, 2, 56, 82
4, 181056, Note_on_c, 2, 62, 82
4, 181116, Note_off_c, 2, 56, 64
4, 181120, Note_on_c, 2, 57, 82
4, 181180, Note_off_c, 2, 57, 64
4, 181184, Note_on_c, 2, 56, 82
4, 181244, Note_off_c, 2, 62, 64
4, 181244, Note_off_c, 2, 56, 64
4, 181248, Note_on_c, 2, 57, 82
4, 181248, Note_on_c, 2, 62, 82
4, 181248, Note_on_c, 2, 66, 61
4, 182012, Note_off_c, 2, 66, 64
4, 182204, Note_off_c, 2, 57, 64
4, 182204, Note_off_c, 2, 62, 64
4, 221184, Note_on_c, 2, 50, 82
4, 221184, Note_on_c, 2, 38, 82
4, 221372, Note_off_c, 2, 50, 64
4, 221372, Note_off_c, 2, 38, 64
4, 221376, Note_on_c, 2, 42, 82
4, 221520, Note_on_c, 2, 50, 82
4, 221520, Note_on_c, 2, 38, 82
4, 221564, Note_off_c, 2, 50, 64
4, 221564, Note_off_c, 2, 38, 64
4, 221568, Note_on_c, 2, 43, 82
4, 221660, Note_off_c, 2, 42, 64
4, 221756, Note_off_c, 2, 43, 64
4, 221760, Note_on_c, 2, 44, 82
4, 221904, Note_on_c, 2, 52, 82
4, 221904, Note_on_c, 2, 40, 82
4, 221948, Note_off_c, 2, 52, 64
4, 221948, Note_off_c, 2, 40, 64
4, 221952, Note_on_c, 2, 45, 82
4, 222044, Note_off_c, 2, 44, 64
4, 222140, Note_off_c, 2, 45, 64
4, 222144, Note_on_c, 2, 46, 82
4, 222288, Note_on_c, 2, 54, 82
4, 222288, Note_on_c, 2, 42, 82
4, 222332, Note_off_c, 2, 54, 64
4, 222332, Note_off_c, 2, 42, 64
4, 222336, Note_on_c, 2, 47, 82
4, 222428, Note_off_c, 2, 46, 64
4, 222524, Note_off_c, 2, 47, 64
4, 222528, Note_on_c, 2, 49, 82
4, 222620, Note_off_c, 2, 49, 64
4, 222672, Note_on_c, 2, 57, 82
4, 222672, Note_on_c, 2, 45, 82
4, 222716, Note_off_c, 2, 57, 64
4, 222716, Note_off_c, 2, 45, 64
4, 222720, Note_on_c, 2, 62, 82
4, 222720, Note_on_c, 2, 50, 82
4, 222908, Note_off_c, 2, 62, 64
4, 222908, Note_off_c, 2, 50, 64
4, 222912, Note_on_c, 2, 62, 82
4, 222912, Note_on_c, 2, 50, 82
4, 223100, Note_off_c, 2, 62, 64
4, 223100, Note_off_c, 2, 50, 64
4, 223104, Note_on_c, 2, 62, 82
4, 223104, Note_on_c, 2, 54, 82
4, 223292, Note_off_c, 2, 62, 64
4, 223292, Note_off_c, 2, 54, 64
4, 223296, Note_on_c, 2, 54, 82
4, 223296, Note_on_c, 2, 62, 82
4, 223484, Note_off_c, 2, 54, 64
4, 223484, Note_off_c, 2, 62, 64
4, 223488, Note_on_c, 2, 62, 82
4, 223488, Note_on_c, 2, 55, 82
4, 223676, Note_off_c, 2, 62, 64
4, 223676, Note_off_c, 2, 55, 64
4, 223680, Note_on_c, 2, 62, 82
4, 223680, Note_on_c, 2, 55, 82
4, 223868, Note_off_c, 2, 62, 64
4, 223868, Note_off_c, 2, 55, 64
4, 223872, Note_on_c, 2, 62, 82
4, 223872, Note_on_c, 2, 55, 82
4, 224060, Note_off_c, 2, 62, 64
4, 224060, Note_off_c, 2, 55, 64
4, 224064, Note_on_c, 2, 62, 82
4, 224064, Note_on_c, 2, 55, 82
4, 224252, Note_off_c, 2, 62, 64
4, 224252, Note_off_c, 2, 55, 64
4, 224256, Note_on_c, 2, 57, 82
4, 224256, Note_on_c, 2, 62, 82
4, 224444, Note_off_c, 2, 57, 64
4, 224444, Note_off_c, 2, 62, 64
4, 224448, Note_on_c, 2, 62, 82
4, 224448, Note_on_c, 2, 57, 82
4, 224636, Note_off_c, 2, 62, 64
4, 224636, Note_off_c, 2, 57, 64
4, 224640, Note_on_c, 2, 57, 82
4, 224640, Note_on_c, 2, 45, 82
4, 224828, Note_off_c, 2, 57, 64
4, 224828, Note_off_c, 2, 45, 64
4, 224832, Note_on_c, 2, 57, 82
4, 224832, Note_on_c, 2, 45, 82
4, 225020, Note_off_c, 2, 57, 64
4, 225020, Note_off_c, 2, 45, 64
4, 225024, Note_on_c, 2, 57, 82
4, 225024, Note_on_c, 2, 50, 82
4, 225212, Note_off_c, 2, 57, 64
4, 225212, Note_off_c, 2, 50, 64
4, 225216, Note_on_c, 2, 57, 82
4, 225216, Note_on_c, 2, 62, 82
4, 225216, Note_on_c, 2, 66, 82
4, 225404, Note_off_c, 2, 57, 64
4, 225404, Note_off_c, 2, 62, 64
4, 225404, Note_off_c, 2, 66, 64
4, 225408, Note_on_c, 2, 55, 61
4, 225408, Note_on_c, 2, 62, 61
4, 225408, Note_on_c, 2, 67, 61
4, 225596, Note_off_c, 2, 55, 64
4, 225596, Note_off_c, 2, 62, 64
4, 225596, Note_off_c, 2, 67, 64
4, 225600, Note_on_c, 2, 54, 61
4, 225600, Note_on_c, 2, 62, 61
4, 225788, Note_off_c, 2, 54, 64
4, 225788, Note_off_c, 2, 62, 64
4, 225792, Note_on_c, 2, 62, 61
4, 225980, Note_off_c, 2, 62, 64
4, 225984, Note_on_c, 2, 55, 61
4, 226172, Note_off_c, 2, 55, 64
4, 226176, Note_on_c, 2, 55, 61
4, 226364, Note_off_c, 2, 55, 64
4, 226368, Note_on_c, 2, 55, 61
4, 226556, Note_off_c, 2, 55, 64
4, 226560, Note_on_c, 2, 55, 61
4, 226748, Note_off_c, 2, 55, 64
4, 226752, Note_on_c, 2, 55, 61
4, 226940, Note_off_c, 2, 55, 64
4, 226944, Note_on_c, 2, 55, 61
4, 226944, Note_on_c, 2, 59, 61
4, 227132, Note_off_c, 2, 55, 64
4, 227132, Note_off_c, 2, 59, 64
4, 227136, Note_on_c, 2, 55, 61
4, 227136, Note_on_c, 2, 59, 61
4, 227324, Note_off_c, 2, 55, 64
4, 227324, Note_off_c, 2, 59, 64
4, 228864, Note_on_c, 2, 62, 61
4, 228864, Note_on_c, 2, 50, 61
4, 229052, Note_off_c, 2, 62, 64
4, 229052, Note_off_c, 2, 50, 64
4, 229056, Note_on_c, 2, 62, 82
4, 229056, Note_on_c, 2, 54, 82
4, 229196, Note_off_c, 2, 62, 64
4, 229196, Note_off_c, 2, 54, 64
4, 229200, Note_on_c, 2, 62, 82
4, 229200, Note_on_c, 2, 54, 82
4, 229244, Note_off_c, 2, 62, 64
4, 229244, Note_off_c, 2, 54, 64
4, 229248, Note_on_c, 2, 64, 82
4, 229248, Note_on_c, 2, 57, 82
4, 229436, Note_off_c, 2, 64, 64
4, 229436, Note_off_c, 2, 57, 64
4, 229440, Note_on_c, 2, 64, 82
4, 229440, Note_on_c, 2, 57, 82
4, 229580, Note_off_c, 2, 64, 64
4, 229580, Note_off_c, 2, 57, 64
4, 229584, Note_on_c, 2, 64, 82
4, 229584, Note_on_c, 2, 57, 82
4, 229628, Note_off_c, 2, 64, 64
4, 229628, Note_off_c, 2, 57, 64
4, 229632, Note_on_c, 2, 66, 82
4, 229632, Note_on_c, 2, 62, 82
4, 229820, Note_off_c, 2, 66, 64
4, 229820, Note_off_c, 2, 62, 64
4, 229824, Note_on_c, 2, 42, 82
4, 229824, Note_on_c, 2, 54, 82
4, 229964, Note_off_c, 2, 42, 64
4, 229964, Note_off_c, 2, 54, 64
4, 229968, Note_on_c, 2, 50, 82
4, 229968, Note_on_c, 2, 38, 82
4, 230012, Note_off_c, 2, 50, 64
4, 230012, Note_off_c, 2, 38, 64
4, 230016, Note_on_c, 2, 57, 82
4, 230016, Note_on_c, 2, 45, 82
4, 230176, Note_on_c, 2, 61, 82
4, 230204, Note_off_c, 2, 57, 64
4, 230204, Note_off_c, 2, 45, 64
4, 230208, Note_on_c, 2, 49, 82
4, 230316, Note_off_c, 2, 61, 64
4, 230348, Note_off_c, 2, 49, 64
4, 230352, Note_on_c, 2, 57, 82
4, 230352, Note_on_c, 2, 45, 82
4, 230396, Note_off_c, 2, 57, 64
4, 230396, Note_off_c, 2, 45, 64
4, 230400, Note_on_c, 2, 62, 82
4, 230400, Note_on_c, 2, 50, 82
4, 230588, Note_off_c, 2, 62, 64
4, 230588, Note_off_c, 2, 50, 64
4, 230592, Note_on_c, 2, 59, 82
4, 230592, Note_on_c, 2, 47, 82
4, 230732, Note_off_c, 2, 59, 64
4, 230732, Note_off_c, 2, 47, 64
4, 230736, Note_on_c, 2, 54, 82
4, 230736, Note_on_c, 2, 42, 82
4, 230780, Note_off_c, 2, 54, 64
4, 230780, Note_off_c, 2, 42, 64
4, 230784, Note_on_c, 2, 55, 82
4, 230784, Note_on_c, 2, 43, 82
4, 230972, Note_off_c, 2, 55, 64
4, 230972, Note_off_c, 2, 43, 64
4, 230976, Note_on_c, 2, 59, 82
4, 230976, Note_on_c, 2, 47, 82
4, 231116, Note_off_c, 2, 59, 64
4, 231116, Note_off_c, 2, 47, 64
4, 231120, Note_on_c, 2, 61, 82
4, 231120, Note_on_c, 2, 49, 82
4, 231164, Note_off_c, 2, 61, 64
4, 231164, Note_off_c, 2, 49, 64
4, 231168, Note_on_c, 2, 62, 82
4, 231168, Note_on_c, 2, 50, 82
4, 231356, Note_off_c, 2, 62, 64
4, 231356, Note_off_c, 2, 50, 64
4, 231360, Note_on_c, 2, 59, 82
4, 231360, Note_on_c, 2, 47, 82
4, 231500, Note_off_c, 2, 59, 64
4, 231500, Note_off_c, 2, 47, 64
4, 231504, Note_on_c, 2, 54, 82
4, 231504, Note_on_c, 2, 42, 82
4, 231548, Note_off_c, 2, 54, 64
4, 231548, Note_off_c, 2, 42, 64
4, 231552, Note_on_c, 2, 55, 82
4, 231552, Note_on_c, 2, 43, 82
4, 231740, Note_off_c, 2, 55, 64
4, 231740, Note_off_c, 2, 43, 64
4, 231744, Note_on_c, 2, 57, 82
4, 231744, Note_on_c, 2, 45, 82
4, 231932, Note_off_c, 2, 57, 64
4, 231932, Note_off_c, 2, 45, 64
4, 231936, Note_on_c, 2, 50, 83
4, 231936, Note_on_c, 2, 38, 83
4, 232124, Note_off_c, 2, 50, 64
4, 232124, Note_off_c, 2, 38, 64
4, 232128, Note_on_c, 2, 62, 84
4, 232128, Note_on_c, 2, 50, 84
4, 232316, Note_off_c, 2, 62, 64
4, 232316, Note_off_c, 2, 50, 64
4, 232320, Note_on_c, 2, 59, 85
4, 232320, Note_on_c, 2, 45, 85
4, 232508, Note_off_c, 2, 59, 64
4, 232508, Note_off_c, 2, 45, 64
4, 232512, Note_on_c, 2, 54, 88
4, 232512, Note_on_c, 2, 42, 88
4, 232700, Note_off_c, 2, 54, 64
4, 232700, Note_off_c, 2, 42, 64
4, 232704, Note_on_c, 2, 50, 89
4, 232704, Note_on_c, 2, 38, 89
4, 233084, Note_off_c, 2, 50, 64
4, 233084, Note_off_c, 2, 38, 64
4, 233084, End_track
5, 0, Start_track
5, 0, Title_t, "Midi by:"
5, 0, Key_signature, 0, "major"
5, 0, End_track
6, 0, Start_track
6, 0, Title_t, "B.Fisher"
6, 0, Key_signature, 0, "major"
6, 0, End_track
7, 0, Start_track
7, 0, Key_signature, 0, "major"
7, 0, End_track
8, 0, Start_track
8, 0, Key_signature, 0, "major"
8, 0, End_track
9, 0, Start_track
9, 0, Key_signature, 0, "major"
9, 0, End_track
10, 0, Start_track
10, 0, Key_signature, 0, "major"
10, 0, End_track
11, 0, Start_track
11, 0, Key_signature, 0, "major"
11, 0, End_track
12, 0, Start_track
12, 0, Key_signature, 0, "major"
12, 0, End_track
13, 0, Start_track
13, 0, Key_signature, 0, "major"
13, 0, End_track
14, 0, Start_track
14, 0, Key_signature, 0, "major"
14, 0, End_track
15, 0, Start_track
15, 0, Key_signature, 0, "major"
15, 0, End_track
16, 0, Start_track
16, 0, Key_signature, 0, "major"
16, 0, End_track
17, 0, Start_track
17, 0, Key_signature, 0, "major"
17, 0, End_track
18, 0, Start_track
18, 0, Key_signature, 0, "major"
18, 0, End_track
0, 0, End_of_file
