0, 0, Header, 1, 17, 384
1, 0, Start_track
1, 0, Time_signature, 3, 2, 96, 8
1, 0, Sequencer_specific, 3, 0, 0, 65
1, 0, Tempo, 454545
1, 43776, Tempo, 545454
1, 46080, Tempo, 454545
1, 101376, Tempo, 545454
1, 103296, Tempo, 454545
1, 161280, Tempo, 545454
1, 163200, Tempo, 454545
1, 163584, Tempo, 476190
1, 172800, Tempo, 454545
1, 178560, Tempo, 566037
1, 179712, Tempo, 454545
1, 191808, Tempo, 789473
1, 193344, Tempo, 3000000
1, 193536, Tempo, 441176
1, 201600, Time_signature, 4, 2, 96, 8
1, 203136, Time_signature, 3, 2, 96, 8
1, 203136, Tempo, 428571
1, 205440, Tempo, 400000
1, 208896, Tempo, 566037
1, 210048, Tempo, 454545
1, 238848, Tempo, 500000
1, 240000, Tempo, 454545
1, 249600, Tempo, 517241
1, 249600, End_track
2, 0, Start_track
2, 0, Title_t, "Mozart - Violin"
2, 0, Control_c, 0, 0, 0
2, 0, Program_c, 0, 40
2, 0, Control_c, 0, 7, 94
2, 0, Control_c, 0, 10, 84
2, 0, Control_c, 0, 91, 54
2, 0, Control_c, 0, 93, 36
2, 0, Key_signature, 2, "major"
2, 0, Control_c, 0, 121, 127
2, 96, Pitch_bend_c, 0, 0
2, 192, Control_c, 0, 10, 83
2, 384, Control_c, 0, 91, 63
2, 480, Control_c, 0, 93, 40
2, 576, Program_c, 0, 40
2, 672, Control_c, 0, 1, 35
2, 1152, Note_on_c, 0, 78, 67
2, 1724, Note_off_c, 0, 78, 64
2, 1728, Note_on_c, 0, 79, 67
2, 1916, Note_off_c, 0, 79, 64
2, 1920, Note_on_c, 0, 80, 67
2, 2108, Note_off_c, 0, 80, 64
2, 2112, Note_on_c, 0, 81, 67
2, 2300, Note_off_c, 0, 81, 64
2, 2304, Note_on_c, 0, 83, 67
2, 2492, Note_off_c, 0, 83, 64
2, 2496, Note_on_c, 0, 81, 67
2, 2684, Note_off_c, 0, 81, 64
2, 2688, Note_on_c, 0, 79, 67
2, 2876, Note_off_c, 0, 79, 64
2, 2880, Note_on_c, 0, 78, 67
2, 3068, Note_off_c, 0, 78, 64
2, 3072, Note_on_c, 0, 76, 67
2, 3260, Note_off_c, 0, 76, 64
2, 3264, Note_on_c, 0, 74, 67
2, 3452, Note_off_c, 0, 74, 64
2, 3456, Note_on_c, 0, 76, 67
2, 3836, Note_off_c, 0, 76, 64
2, 3840, Note_on_c, 0, 76, 67
2, 4220, Note_off_c, 0, 76, 64
2, 4224, Note_on_c, 0, 78, 67
2, 4604, Note_off_c, 0, 78, 64
2, 4608, Note_on_c, 0, 78, 67
2, 4892, Note_off_c, 0, 78, 64
2, 4896, Note_on_c, 0, 79, 67
2, 4988, Note_off_c, 0, 79, 64
2, 4992, Note_on_c, 0, 76, 67
2, 5372, Note_off_c, 0, 76, 64
2, 5760, Note_on_c, 0, 74, 67
2, 5948, Note_off_c, 0, 74, 64
2, 5952, Note_on_c, 0, 76, 67
2, 6140, Note_off_c, 0, 76, 64
2, 6144, Note_on_c, 0, 78, 67
2, 6332, Note_off_c, 0, 78, 64
2, 6336, Note_on_c, 0, 74, 67
2, 6524, Note_off_c, 0, 74, 64
2, 6528, Note_on_c, 0, 73, 67
2, 6716, Note_off_c, 0, 73, 64
2, 6720, Note_on_c, 0, 69, 67
2, 6908, Note_off_c, 0, 69, 64
2, 6912, Note_on_c, 0, 74, 67
2, 7100, Note_off_c, 0, 74, 64
2, 7104, Note_on_c, 0, 76, 67
2, 7292, Note_off_c, 0, 76, 64
2, 7296, Note_on_c, 0, 78, 67
2, 7484, Note_off_c, 0, 78, 64
2, 7488, Note_on_c, 0, 74, 67
2, 7676, Note_off_c, 0, 74, 64
2, 7680, Note_on_c, 0, 73, 67
2, 7868, Note_off_c, 0, 73, 64
2, 7872, Note_on_c, 0, 69, 67
2, 8060, Note_off_c, 0, 69, 64
2, 8064, Note_on_c, 0, 74, 67
2, 8252, Note_off_c, 0, 74, 64
2, 8256, Note_on_c, 0, 78, 67
2, 8444, Note_off_c, 0, 78, 64
2, 8448, Note_on_c, 0, 81, 67
2, 8636, Note_off_c, 0, 81, 64
2, 8640, Note_on_c, 0, 78, 67
2, 8828, Note_off_c, 0, 78, 64
2, 8832, Note_on_c, 0, 83, 67
2, 9020, Note_off_c, 0, 83, 64
2, 9024, Note_on_c, 0, 79, 67
2, 9212, Note_off_c, 0, 79, 64
2, 9216, Note_on_c, 0, 78, 67
2, 9980, Note_off_c, 0, 78, 64
2, 9984, Note_on_c, 0, 76, 67
2, 10364, Note_off_c, 0, 76, 64
2, 19584, Note_on_c, 0, 78, 77
2, 20348, Note_off_c, 0, 78, 64
2, 20352, Note_on_c, 0, 79, 82
2, 20444, Note_off_c, 0, 79, 64
2, 20448, Note_on_c, 0, 78, 88
2, 20540, Note_off_c, 0, 78, 64
2, 20544, Note_on_c, 0, 76, 88
2, 20636, Note_off_c, 0, 76, 64
2, 20640, Note_on_c, 0, 74, 88
2, 20732, Note_off_c, 0, 74, 64
2, 20736, Note_on_c, 0, 81, 88
2, 20924, Note_off_c, 0, 81, 64
2, 20928, Note_on_c, 0, 79, 88
2, 21116, Note_off_c, 0, 79, 64
2, 21312, Note_on_c, 0, 79, 88
2, 21500, Note_off_c, 0, 79, 64
2, 21504, Note_on_c, 0, 79, 88
2, 21692, Note_off_c, 0, 79, 64
2, 21696, Note_on_c, 0, 79, 88
2, 21884, Note_off_c, 0, 79, 64
2, 21888, Note_on_c, 0, 77, 88
2, 22076, Note_off_c, 0, 77, 64
2, 22080, Note_on_c, 0, 78, 88
2, 22268, Note_off_c, 0, 78, 64
2, 22464, Note_on_c, 0, 78, 67
2, 22652, Note_off_c, 0, 78, 64
2, 22656, Note_on_c, 0, 79, 67
2, 22748, Note_off_c, 0, 79, 64
2, 22752, Note_on_c, 0, 78, 67
2, 22844, Note_off_c, 0, 78, 64
2, 22848, Note_on_c, 0, 76, 67
2, 22940, Note_off_c, 0, 76, 64
2, 22944, Note_on_c, 0, 74, 67
2, 23036, Note_off_c, 0, 74, 64
2, 23040, Note_on_c, 0, 81, 67
2, 23228, Note_off_c, 0, 81, 64
2, 23232, Note_on_c, 0, 79, 67
2, 23420, Note_off_c, 0, 79, 64
2, 23616, Note_on_c, 0, 79, 67
2, 23804, Note_off_c, 0, 79, 64
2, 23808, Note_on_c, 0, 79, 67
2, 23996, Note_off_c, 0, 79, 64
2, 24000, Note_on_c, 0, 79, 67
2, 24188, Note_off_c, 0, 79, 64
2, 24192, Note_on_c, 0, 78, 67
2, 24316, Note_off_c, 0, 78, 64
2, 24320, Note_on_c, 0, 81, 67
2, 24444, Note_off_c, 0, 81, 64
2, 24448, Note_on_c, 0, 79, 68
2, 24572, Note_off_c, 0, 79, 64
2, 24576, Note_on_c, 0, 78, 69
2, 24636, Note_off_c, 0, 78, 64
2, 24640, Note_on_c, 0, 79, 69
2, 24700, Note_off_c, 0, 79, 64
2, 24704, Note_on_c, 0, 76, 71
2, 24828, Note_off_c, 0, 76, 64
2, 24832, Note_on_c, 0, 78, 72
2, 24956, Note_off_c, 0, 78, 64
2, 24960, Note_on_c, 0, 80, 73
2, 25084, Note_off_c, 0, 80, 64
2, 25088, Note_on_c, 0, 81, 73
2, 25212, Note_off_c, 0, 81, 64
2, 25216, Note_on_c, 0, 83, 74
2, 25340, Note_off_c, 0, 83, 64
2, 25344, Note_on_c, 0, 81, 77
2, 25468, Note_off_c, 0, 81, 64
2, 25472, Note_on_c, 0, 85, 78
2, 25596, Note_off_c, 0, 85, 64
2, 25600, Note_on_c, 0, 83, 79
2, 25724, Note_off_c, 0, 83, 64
2, 25728, Note_on_c, 0, 81, 80
2, 25788, Note_off_c, 0, 81, 64
2, 25792, Note_on_c, 0, 83, 80
2, 25852, Note_off_c, 0, 83, 64
2, 25856, Note_on_c, 0, 79, 80
2, 25980, Note_off_c, 0, 79, 64
2, 25984, Note_on_c, 0, 81, 82
2, 26108, Note_off_c, 0, 81, 64
2, 26112, Note_on_c, 0, 83, 83
2, 26236, Note_off_c, 0, 83, 64
2, 26240, Note_on_c, 0, 85, 84
2, 26364, Note_off_c, 0, 85, 64
2, 26368, Note_on_c, 0, 86, 85
2, 26492, Note_off_c, 0, 86, 64
2, 26496, Note_on_c, 0, 85, 88
2, 26620, Note_off_c, 0, 85, 64
2, 26624, Note_on_c, 0, 86, 88
2, 26748, Note_off_c, 0, 86, 64
2, 26752, Note_on_c, 0, 88, 88
2, 26876, Note_off_c, 0, 88, 64
2, 26880, Note_on_c, 0, 88, 88
2, 27004, Note_off_c, 0, 88, 64
2, 27008, Note_on_c, 0, 86, 88
2, 27132, Note_off_c, 0, 86, 64
2, 27136, Note_on_c, 0, 85, 88
2, 27260, Note_off_c, 0, 85, 64
2, 27264, Note_on_c, 0, 85, 88
2, 27388, Note_off_c, 0, 85, 64
2, 27392, Note_on_c, 0, 83, 88
2, 27516, Note_off_c, 0, 83, 64
2, 27520, Note_on_c, 0, 81, 88
2, 27644, Note_off_c, 0, 81, 64
2, 27648, Note_on_c, 0, 81, 67
2, 27740, Note_off_c, 0, 81, 64
2, 27744, Note_on_c, 0, 79, 67
2, 27836, Note_off_c, 0, 79, 64
2, 27840, Note_on_c, 0, 78, 67
2, 27932, Note_off_c, 0, 78, 64
2, 27936, Note_on_c, 0, 76, 60
2, 28028, Note_off_c, 0, 76, 64
2, 28032, Note_on_c, 0, 76, 67
2, 28412, Note_off_c, 0, 76, 64
2, 28800, Note_on_c, 0, 76, 67
2, 28924, Note_off_c, 0, 76, 64
2, 28928, Note_on_c, 0, 83, 67
2, 29052, Note_off_c, 0, 83, 64
2, 29056, Note_on_c, 0, 86, 67
2, 29180, Note_off_c, 0, 86, 64
2, 29184, Note_on_c, 0, 86, 67
2, 29948, Note_off_c, 0, 86, 64
2, 29952, Note_on_c, 0, 85, 67
2, 30076, Note_off_c, 0, 85, 64
2, 30080, Note_on_c, 0, 81, 67
2, 30204, Note_off_c, 0, 81, 64
2, 30208, Note_on_c, 0, 76, 67
2, 30332, Note_off_c, 0, 76, 64
2, 30336, Note_on_c, 0, 76, 67
2, 31100, Note_off_c, 0, 76, 64
2, 31104, Note_on_c, 0, 76, 67
2, 31228, Note_off_c, 0, 76, 64
2, 31232, Note_on_c, 0, 83, 67
2, 31356, Note_off_c, 0, 83, 64
2, 31360, Note_on_c, 0, 86, 67
2, 31484, Note_off_c, 0, 86, 64
2, 31488, Note_on_c, 0, 86, 67
2, 31612, Note_off_c, 0, 86, 64
2, 31616, Note_on_c, 0, 86, 67
2, 31740, Note_off_c, 0, 86, 64
2, 31744, Note_on_c, 0, 86, 67
2, 31868, Note_off_c, 0, 86, 64
2, 31872, Note_on_c, 0, 86, 67
2, 31996, Note_off_c, 0, 86, 64
2, 32000, Note_on_c, 0, 86, 67
2, 32124, Note_off_c, 0, 86, 64
2, 32128, Note_on_c, 0, 86, 67
2, 32252, Note_off_c, 0, 86, 64
2, 32256, Note_on_c, 0, 86, 67
2, 32380, Note_off_c, 0, 86, 64
2, 32384, Note_on_c, 0, 81, 67
2, 32508, Note_off_c, 0, 81, 64
2, 32512, Note_on_c, 0, 76, 67
2, 32636, Note_off_c, 0, 76, 64
2, 32640, Note_on_c, 0, 76, 67
2, 32764, Note_off_c, 0, 76, 64
2, 32768, Note_on_c, 0, 76, 67
2, 32892, Note_off_c, 0, 76, 64
2, 32896, Note_on_c, 0, 76, 67
2, 33020, Note_off_c, 0, 76, 64
2, 33024, Note_on_c, 0, 76, 67
2, 33148, Note_off_c, 0, 76, 64
2, 33152, Note_on_c, 0, 76, 67
2, 33276, Note_off_c, 0, 76, 64
2, 33280, Note_on_c, 0, 76, 67
2, 33404, Note_off_c, 0, 76, 64
2, 33408, Note_on_c, 0, 78, 88
2, 33532, Note_off_c, 0, 78, 64
2, 33536, Note_on_c, 0, 81, 88
2, 33660, Note_off_c, 0, 81, 64
2, 33664, Note_on_c, 0, 80, 88
2, 33788, Note_off_c, 0, 80, 64
2, 33792, Note_on_c, 0, 81, 88
2, 33916, Note_off_c, 0, 81, 64
2, 33920, Note_on_c, 0, 80, 88
2, 34044, Note_off_c, 0, 80, 64
2, 34048, Note_on_c, 0, 78, 88
2, 34172, Note_off_c, 0, 78, 64
2, 34176, Note_on_c, 0, 76, 88
2, 34556, Note_off_c, 0, 76, 64
2, 34560, Note_on_c, 0, 74, 88
2, 34684, Note_off_c, 0, 74, 64
2, 34688, Note_on_c, 0, 78, 88
2, 34812, Note_off_c, 0, 78, 64
2, 34816, Note_on_c, 0, 76, 88
2, 34940, Note_off_c, 0, 76, 64
2, 34944, Note_on_c, 0, 78, 88
2, 35068, Note_off_c, 0, 78, 64
2, 35072, Note_on_c, 0, 76, 88
2, 35196, Note_off_c, 0, 76, 64
2, 35200, Note_on_c, 0, 74, 88
2, 35324, Note_off_c, 0, 74, 64
2, 35328, Note_on_c, 0, 73, 88
2, 35708, Note_off_c, 0, 73, 64
2, 35712, Note_on_c, 0, 73, 88
2, 35804, Note_off_c, 0, 73, 64
2, 35808, Note_on_c, 0, 71, 88
2, 35900, Note_off_c, 0, 71, 64
2, 35904, Note_on_c, 0, 74, 88
2, 35996, Note_off_c, 0, 74, 64
2, 36000, Note_on_c, 0, 71, 88
2, 36092, Note_off_c, 0, 71, 64
2, 36096, Note_on_c, 0, 69, 88
2, 36476, Note_off_c, 0, 69, 64
2, 36480, Note_on_c, 0, 71, 88
2, 36860, Note_off_c, 0, 71, 64
2, 36864, Note_on_c, 0, 71, 88
2, 37436, Note_off_c, 0, 71, 64
2, 37440, Note_on_c, 0, 72, 88
2, 37628, Note_off_c, 0, 72, 64
2, 37632, Note_on_c, 0, 73, 88
2, 38012, Note_off_c, 0, 73, 64
2, 38016, Note_on_c, 0, 78, 88
2, 38140, Note_off_c, 0, 78, 64
2, 38144, Note_on_c, 0, 81, 88
2, 38268, Note_off_c, 0, 81, 64
2, 38272, Note_on_c, 0, 80, 88
2, 38396, Note_off_c, 0, 80, 64
2, 38400, Note_on_c, 0, 81, 88
2, 38524, Note_off_c, 0, 81, 64
2, 38528, Note_on_c, 0, 80, 88
2, 38652, Note_off_c, 0, 80, 64
2, 38656, Note_on_c, 0, 78, 88
2, 38780, Note_off_c, 0, 78, 64
2, 38784, Note_on_c, 0, 76, 88
2, 38908, Note_off_c, 0, 76, 64
2, 38912, Note_on_c, 0, 74, 88
2, 39036, Note_off_c, 0, 74, 64
2, 39040, Note_on_c, 0, 73, 88
2, 39164, Note_off_c, 0, 73, 64
2, 39168, Note_on_c, 0, 74, 88
2, 39292, Note_off_c, 0, 74, 64
2, 39296, Note_on_c, 0, 78, 88
2, 39420, Note_off_c, 0, 78, 64
2, 39424, Note_on_c, 0, 76, 88
2, 39548, Note_off_c, 0, 76, 64
2, 39552, Note_on_c, 0, 74, 88
2, 39676, Note_off_c, 0, 74, 64
2, 39680, Note_on_c, 0, 73, 88
2, 39804, Note_off_c, 0, 73, 64
2, 39808, Note_on_c, 0, 71, 88
2, 39932, Note_off_c, 0, 71, 64
2, 39936, Note_on_c, 0, 73, 88
2, 40060, Note_off_c, 0, 73, 64
2, 40064, Note_on_c, 0, 74, 88
2, 40188, Note_off_c, 0, 74, 64
2, 40192, Note_on_c, 0, 76, 88
2, 40316, Note_off_c, 0, 76, 64
2, 40320, Note_on_c, 0, 78, 88
2, 40444, Note_off_c, 0, 78, 64
2, 40448, Note_on_c, 0, 80, 88
2, 40572, Note_off_c, 0, 80, 64
2, 40576, Note_on_c, 0, 81, 88
2, 40700, Note_off_c, 0, 81, 64
2, 40704, Note_on_c, 0, 81, 88
2, 40796, Note_off_c, 0, 81, 64
2, 40800, Note_on_c, 0, 80, 88
2, 40892, Note_off_c, 0, 80, 64
2, 40896, Note_on_c, 0, 78, 88
2, 40988, Note_off_c, 0, 78, 64
2, 40992, Note_on_c, 0, 76, 88
2, 41084, Note_off_c, 0, 76, 64
2, 41088, Note_on_c, 0, 76, 88
2, 41180, Note_off_c, 0, 76, 64
2, 41184, Note_on_c, 0, 74, 88
2, 41276, Note_off_c, 0, 74, 64
2, 41280, Note_on_c, 0, 73, 88
2, 41372, Note_off_c, 0, 73, 64
2, 41376, Note_on_c, 0, 71, 88
2, 41468, Note_off_c, 0, 71, 64
2, 41472, Note_on_c, 0, 71, 88
2, 41564, Note_off_c, 0, 71, 64
2, 41568, Note_on_c, 0, 69, 88
2, 42044, Note_off_c, 0, 69, 64
2, 42048, Note_on_c, 0, 71, 88
2, 42140, Note_off_c, 0, 71, 64
2, 42144, Note_on_c, 0, 73, 88
2, 42236, Note_off_c, 0, 73, 64
2, 42240, Note_on_c, 0, 76, 88
2, 42332, Note_off_c, 0, 76, 64
2, 42336, Note_on_c, 0, 74, 88
2, 42428, Note_off_c, 0, 74, 64
2, 42432, Note_on_c, 0, 73, 88
2, 42524, Note_off_c, 0, 73, 64
2, 42528, Note_on_c, 0, 71, 88
2, 42620, Note_off_c, 0, 71, 64
2, 42624, Note_on_c, 0, 71, 88
2, 42716, Note_off_c, 0, 71, 64
2, 42720, Note_on_c, 0, 69, 88
2, 43196, Note_off_c, 0, 69, 64
2, 43200, Note_on_c, 0, 71, 88
2, 43292, Note_off_c, 0, 71, 64
2, 43296, Note_on_c, 0, 73, 88
2, 43388, Note_off_c, 0, 73, 64
2, 43392, Note_on_c, 0, 76, 88
2, 43484, Note_off_c, 0, 76, 64
2, 43488, Note_on_c, 0, 74, 88
2, 43580, Note_off_c, 0, 74, 64
2, 43584, Note_on_c, 0, 73, 88
2, 43676, Note_off_c, 0, 73, 64
2, 43680, Note_on_c, 0, 71, 88
2, 43772, Note_off_c, 0, 71, 64
2, 43776, Note_on_c, 0, 71, 88
2, 43868, Note_off_c, 0, 71, 64
2, 43872, Note_on_c, 0, 69, 88
2, 44160, Note_on_c, 0, 69, 88
2, 44164, Note_off_c, 0, 69, 64
2, 44540, Note_off_c, 0, 69, 64
2, 44544, Note_on_c, 0, 69, 88
2, 44924, Note_off_c, 0, 69, 64
2, 44928, Note_on_c, 0, 69, 86
2, 44960, Note_off_c, 0, 69, 64
2, 44960, Note_on_c, 0, 71, 86
2, 44992, Note_off_c, 0, 71, 64
2, 44992, Note_on_c, 0, 69, 86
2, 45024, Note_off_c, 0, 69, 64
2, 45024, Note_on_c, 0, 71, 86
2, 45056, Note_off_c, 0, 71, 64
2, 45056, Note_on_c, 0, 69, 86
2, 45088, Note_off_c, 0, 69, 64
2, 45088, Note_on_c, 0, 71, 86
2, 45120, Note_off_c, 0, 71, 64
2, 45120, Note_on_c, 0, 69, 86
2, 45152, Note_off_c, 0, 69, 64
2, 45152, Note_on_c, 0, 71, 86
2, 45184, Note_off_c, 0, 71, 64
2, 45184, Note_on_c, 0, 69, 86
2, 45216, Note_off_c, 0, 69, 64
2, 45216, Note_on_c, 0, 71, 86
2, 45248, Note_off_c, 0, 71, 64
2, 45248, Note_on_c, 0, 69, 86
2, 45280, Note_off_c, 0, 69, 64
2, 45280, Note_on_c, 0, 71, 86
2, 45312, Note_off_c, 0, 71, 64
2, 45312, Note_on_c, 0, 69, 86
2, 45344, Note_off_c, 0, 69, 64
2, 45344, Note_on_c, 0, 71, 86
2, 45376, Note_off_c, 0, 71, 64
2, 45376, Note_on_c, 0, 69, 86
2, 45408, Note_off_c, 0, 69, 64
2, 45408, Note_on_c, 0, 71, 86
2, 45440, Note_off_c, 0, 71, 64
2, 45440, Note_on_c, 0, 69, 86
2, 45472, Note_off_c, 0, 69, 64
2, 45472, Note_on_c, 0, 71, 86
2, 45504, Note_off_c, 0, 71, 64
2, 45504, Note_on_c, 0, 69, 86
2, 45536, Note_off_c, 0, 69, 64
2, 45536, Note_on_c, 0, 71, 86
2, 45568, Note_off_c, 0, 71, 64
2, 45568, Note_on_c, 0, 69, 86
2, 45600, Note_off_c, 0, 69, 64
2, 45600, Note_on_c, 0, 71, 86
2, 45632, Note_off_c, 0, 71, 64
2, 45632, Note_on_c, 0, 69, 86
2, 45664, Note_off_c, 0, 69, 64
2, 45664, Note_on_c, 0, 71, 86
2, 45696, Note_off_c, 0, 71, 64
2, 45696, Note_on_c, 0, 68, 86
2, 45788, Note_off_c, 0, 68, 64
2, 45792, Note_on_c, 0, 69, 86
2, 45884, Note_off_c, 0, 69, 64
2, 45888, Note_on_c, 0, 71, 86
2, 45980, Note_off_c, 0, 71, 64
2, 45984, Note_on_c, 0, 69, 86
2, 46080, Note_on_c, 0, 78, 73
2, 46084, Note_off_c, 0, 69, 64
2, 46652, Note_off_c, 0, 78, 64
2, 46656, Note_on_c, 0, 79, 67
2, 46844, Note_off_c, 0, 79, 64
2, 46848, Note_on_c, 0, 80, 67
2, 47036, Note_off_c, 0, 80, 64
2, 47040, Note_on_c, 0, 81, 67
2, 47228, Note_off_c, 0, 81, 64
2, 47232, Note_on_c, 0, 83, 67
2, 47420, Note_off_c, 0, 83, 64
2, 47424, Note_on_c, 0, 81, 67
2, 47612, Note_off_c, 0, 81, 64
2, 47616, Note_on_c, 0, 79, 67
2, 47804, Note_off_c, 0, 79, 64
2, 47808, Note_on_c, 0, 78, 67
2, 47996, Note_off_c, 0, 78, 64
2, 48000, Note_on_c, 0, 76, 67
2, 48188, Note_off_c, 0, 76, 64
2, 48192, Note_on_c, 0, 74, 67
2, 48380, Note_off_c, 0, 74, 64
2, 48384, Note_on_c, 0, 76, 67
2, 48764, Note_off_c, 0, 76, 64
2, 48768, Note_on_c, 0, 76, 67
2, 49148, Note_off_c, 0, 76, 64
2, 49152, Note_on_c, 0, 78, 67
2, 49532, Note_off_c, 0, 78, 64
2, 49536, Note_on_c, 0, 78, 67
2, 49820, Note_off_c, 0, 78, 64
2, 49824, Note_on_c, 0, 79, 67
2, 49916, Note_off_c, 0, 79, 64
2, 49920, Note_on_c, 0, 76, 67
2, 50300, Note_off_c, 0, 76, 64
2, 50688, Note_on_c, 0, 74, 67
2, 50876, Note_off_c, 0, 74, 64
2, 50880, Note_on_c, 0, 76, 67
2, 51068, Note_off_c, 0, 76, 64
2, 51072, Note_on_c, 0, 78, 67
2, 51260, Note_off_c, 0, 78, 64
2, 51264, Note_on_c, 0, 74, 67
2, 51452, Note_off_c, 0, 74, 64
2, 51456, Note_on_c, 0, 73, 67
2, 51644, Note_off_c, 0, 73, 64
2, 51648, Note_on_c, 0, 69, 67
2, 51836, Note_off_c, 0, 69, 64
2, 51840, Note_on_c, 0, 74, 67
2, 52028, Note_off_c, 0, 74, 64
2, 52032, Note_on_c, 0, 76, 67
2, 52220, Note_off_c, 0, 76, 64
2, 52224, Note_on_c, 0, 78, 67
2, 52412, Note_off_c, 0, 78, 64
2, 52416, Note_on_c, 0, 74, 67
2, 52604, Note_off_c, 0, 74, 64
2, 52608, Note_on_c, 0, 73, 67
2, 52796, Note_off_c, 0, 73, 64
2, 52800, Note_on_c, 0, 69, 67
2, 52988, Note_off_c, 0, 69, 64
2, 52992, Note_on_c, 0, 74, 67
2, 53180, Note_off_c, 0, 74, 64
2, 53184, Note_on_c, 0, 78, 67
2, 53372, Note_off_c, 0, 78, 64
2, 53376, Note_on_c, 0, 81, 67
2, 53564, Note_off_c, 0, 81, 64
2, 53568, Note_on_c, 0, 78, 67
2, 53756, Note_off_c, 0, 78, 64
2, 53760, Note_on_c, 0, 83, 67
2, 53948, Note_off_c, 0, 83, 64
2, 53952, Note_on_c, 0, 79, 67
2, 54140, Note_off_c, 0, 79, 64
2, 54144, Note_on_c, 0, 78, 67
2, 54908, Note_off_c, 0, 78, 64
2, 54912, Note_on_c, 0, 76, 67
2, 55292, Note_off_c, 0, 76, 64
2, 64512, Note_on_c, 0, 79, 88
2, 65660, Note_off_c, 0, 79, 64
2, 65664, Note_on_c, 0, 83, 88
2, 66812, Note_off_c, 0, 83, 64
2, 66816, Note_on_c, 0, 86, 88
2, 67580, Note_off_c, 0, 86, 64
2, 67584, Note_on_c, 0, 84, 77
2, 67676, Note_off_c, 0, 84, 64
2, 67680, Note_on_c, 0, 83, 82
2, 67772, Note_off_c, 0, 83, 64
2, 67776, Note_on_c, 0, 81, 88
2, 67868, Note_off_c, 0, 81, 64
2, 67872, Note_on_c, 0, 79, 88
2, 67964, Note_off_c, 0, 79, 64
2, 67968, Note_on_c, 0, 81, 88
2, 68012, Note_off_c, 0, 81, 64
2, 68016, Note_on_c, 0, 79, 88
2, 68060, Note_off_c, 0, 79, 64
2, 68064, Note_on_c, 0, 81, 88
2, 68108, Note_off_c, 0, 81, 64
2, 68112, Note_on_c, 0, 79, 88
2, 68156, Note_off_c, 0, 79, 64
2, 68160, Note_on_c, 0, 78, 88
2, 68348, Note_off_c, 0, 78, 64
2, 68352, Note_on_c, 0, 78, 88
2, 68732, Note_off_c, 0, 78, 64
2, 69120, Note_on_c, 0, 84, 88
2, 69308, Note_off_c, 0, 84, 64
2, 69312, Note_on_c, 0, 81, 88
2, 69500, Note_off_c, 0, 81, 64
2, 69504, Note_on_c, 0, 84, 88
2, 69692, Note_off_c, 0, 84, 64
2, 69696, Note_on_c, 0, 78, 88
2, 69884, Note_off_c, 0, 78, 64
2, 69888, Note_on_c, 0, 84, 88
2, 70076, Note_off_c, 0, 84, 64
2, 70080, Note_on_c, 0, 74, 88
2, 70268, Note_off_c, 0, 74, 64
2, 70272, Note_on_c, 0, 74, 88
2, 70844, Note_off_c, 0, 74, 64
2, 70848, Note_on_c, 0, 76, 88
2, 70940, Note_off_c, 0, 76, 64
2, 70944, Note_on_c, 0, 74, 88
2, 71036, Note_off_c, 0, 74, 64
2, 71040, Note_on_c, 0, 73, 88
2, 71132, Note_off_c, 0, 73, 64
2, 71136, Note_on_c, 0, 71, 88
2, 71228, Note_off_c, 0, 71, 64
2, 71232, Note_on_c, 0, 69, 88
2, 71324, Note_off_c, 0, 69, 64
2, 71328, Note_on_c, 0, 67, 88
2, 71420, Note_off_c, 0, 67, 64
2, 71424, Note_on_c, 0, 66, 88
2, 71612, Note_off_c, 0, 66, 64
2, 71616, Note_on_c, 0, 69, 88
2, 71804, Note_off_c, 0, 69, 64
2, 71808, Note_on_c, 0, 74, 88
2, 71996, Note_off_c, 0, 74, 64
2, 72000, Note_on_c, 0, 78, 88
2, 72188, Note_off_c, 0, 78, 64
2, 72192, Note_on_c, 0, 81, 88
2, 72380, Note_off_c, 0, 81, 64
2, 72384, Note_on_c, 0, 84, 88
2, 72572, Note_off_c, 0, 84, 64
2, 72576, Note_on_c, 0, 82, 88
2, 72764, Note_off_c, 0, 82, 64
2, 72768, Note_on_c, 0, 83, 88
2, 72956, Note_off_c, 0, 83, 64
2, 72960, Note_on_c, 0, 83, 88
2, 73340, Note_off_c, 0, 83, 64
2, 73728, Note_on_c, 0, 84, 88
2, 73916, Note_off_c, 0, 84, 64
2, 73920, Note_on_c, 0, 81, 88
2, 74108, Note_off_c, 0, 81, 64
2, 74112, Note_on_c, 0, 84, 88
2, 74300, Note_off_c, 0, 84, 64
2, 74304, Note_on_c, 0, 78, 88
2, 74492, Note_off_c, 0, 78, 64
2, 74496, Note_on_c, 0, 84, 88
2, 74684, Note_off_c, 0, 84, 64
2, 74688, Note_on_c, 0, 74, 88
2, 74876, Note_off_c, 0, 74, 64
2, 74880, Note_on_c, 0, 74, 88
2, 75452, Note_off_c, 0, 74, 64
2, 75456, Note_on_c, 0, 76, 88
2, 75548, Note_off_c, 0, 76, 64
2, 75552, Note_on_c, 0, 74, 88
2, 75644, Note_off_c, 0, 74, 64
2, 75648, Note_on_c, 0, 72, 88
2, 75740, Note_off_c, 0, 72, 64
2, 75744, Note_on_c, 0, 71, 88
2, 75836, Note_off_c, 0, 71, 64
2, 75840, Note_on_c, 0, 69, 88
2, 75932, Note_off_c, 0, 69, 64
2, 75936, Note_on_c, 0, 67, 88
2, 76028, Note_off_c, 0, 67, 64
2, 76032, Note_on_c, 0, 66, 88
2, 76124, Note_off_c, 0, 66, 64
2, 76128, Note_on_c, 0, 67, 88
2, 76220, Note_off_c, 0, 67, 64
2, 76224, Note_on_c, 0, 69, 88
2, 76316, Note_off_c, 0, 69, 64
2, 76320, Note_on_c, 0, 71, 88
2, 76412, Note_off_c, 0, 71, 64
2, 76416, Note_on_c, 0, 72, 88
2, 76508, Note_off_c, 0, 72, 64
2, 76512, Note_on_c, 0, 71, 88
2, 76604, Note_off_c, 0, 71, 64
2, 76608, Note_on_c, 0, 69, 88
2, 76700, Note_off_c, 0, 69, 64
2, 76704, Note_on_c, 0, 67, 88
2, 76796, Note_off_c, 0, 67, 64
2, 76800, Note_on_c, 0, 66, 88
2, 76892, Note_off_c, 0, 66, 64
2, 76896, Note_on_c, 0, 64, 88
2, 76988, Note_off_c, 0, 64, 64
2, 76992, Note_on_c, 0, 62, 88
2, 77084, Note_off_c, 0, 62, 64
2, 77088, Note_on_c, 0, 60, 88
2, 77180, Note_off_c, 0, 60, 64
2, 77184, Note_on_c, 0, 59, 88
2, 77564, Note_off_c, 0, 59, 64
2, 77568, Note_on_c, 0, 82, 67
2, 77660, Note_off_c, 0, 82, 64
2, 77664, Note_on_c, 0, 83, 67
2, 77948, Note_off_c, 0, 83, 64
2, 77952, Note_on_c, 0, 82, 67
2, 78044, Note_off_c, 0, 82, 64
2, 78048, Note_on_c, 0, 83, 67
2, 78332, Note_off_c, 0, 83, 64
2, 78336, Note_on_c, 0, 85, 67
2, 78428, Note_off_c, 0, 85, 64
2, 78432, Note_on_c, 0, 83, 67
2, 78716, Note_off_c, 0, 83, 64
2, 78720, Note_on_c, 0, 83, 67
2, 79100, Note_off_c, 0, 83, 64
2, 79104, Note_on_c, 0, 81, 67
2, 79196, Note_off_c, 0, 81, 64
2, 79200, Note_on_c, 0, 79, 67
2, 79292, Note_off_c, 0, 79, 64
2, 79296, Note_on_c, 0, 78, 67
2, 79388, Note_off_c, 0, 78, 64
2, 79392, Note_on_c, 0, 76, 67
2, 79484, Note_off_c, 0, 76, 64
2, 79488, Note_on_c, 0, 75, 67
2, 79868, Note_off_c, 0, 75, 64
2, 79872, Note_on_c, 0, 83, 67
2, 79964, Note_off_c, 0, 83, 64
2, 79968, Note_on_c, 0, 84, 67
2, 80252, Note_off_c, 0, 84, 64
2, 80256, Note_on_c, 0, 83, 67
2, 80348, Note_off_c, 0, 83, 64
2, 80352, Note_on_c, 0, 84, 67
2, 80636, Note_off_c, 0, 84, 64
2, 80640, Note_on_c, 0, 86, 67
2, 80732, Note_off_c, 0, 86, 64
2, 80736, Note_on_c, 0, 84, 67
2, 81020, Note_off_c, 0, 84, 64
2, 81024, Note_on_c, 0, 84, 67
2, 81404, Note_off_c, 0, 84, 64
2, 81408, Note_on_c, 0, 83, 67
2, 81500, Note_off_c, 0, 83, 64
2, 81504, Note_on_c, 0, 81, 67
2, 81596, Note_off_c, 0, 81, 64
2, 81600, Note_on_c, 0, 79, 67
2, 81692, Note_off_c, 0, 79, 64
2, 81696, Note_on_c, 0, 78, 67
2, 81788, Note_off_c, 0, 78, 64
2, 81792, Note_on_c, 0, 79, 67
2, 82172, Note_off_c, 0, 79, 64
2, 82560, Note_on_c, 0, 78, 67
2, 82652, Note_off_c, 0, 78, 64
2, 82656, Note_on_c, 0, 79, 67
2, 82748, Note_off_c, 0, 79, 64
2, 82752, Note_on_c, 0, 81, 67
2, 82844, Note_off_c, 0, 81, 64
2, 82848, Note_on_c, 0, 79, 67
2, 82940, Note_off_c, 0, 79, 64
2, 82944, Note_on_c, 0, 84, 66
2, 83324, Note_off_c, 0, 84, 64
2, 83712, Note_on_c, 0, 83, 68
2, 83804, Note_off_c, 0, 83, 64
2, 83808, Note_on_c, 0, 84, 69
2, 83900, Note_off_c, 0, 84, 64
2, 83904, Note_on_c, 0, 86, 69
2, 83996, Note_off_c, 0, 86, 64
2, 84000, Note_on_c, 0, 84, 71
2, 84092, Note_off_c, 0, 84, 64
2, 84096, Note_on_c, 0, 88, 68
2, 84476, Note_off_c, 0, 88, 64
2, 84864, Note_on_c, 0, 87, 79
2, 84956, Note_off_c, 0, 87, 64
2, 84960, Note_on_c, 0, 88, 82
2, 85052, Note_off_c, 0, 88, 64
2, 85056, Note_on_c, 0, 90, 84
2, 85148, Note_off_c, 0, 90, 64
2, 85152, Note_on_c, 0, 88, 85
2, 85244, Note_off_c, 0, 88, 64
2, 85248, Note_on_c, 0, 91, 83
2, 85628, Note_off_c, 0, 91, 64
2, 85824, Note_on_c, 0, 83, 88
2, 85872, Note_off_c, 0, 83, 64
2, 85872, Note_on_c, 0, 85, 88
2, 85920, Note_off_c, 0, 85, 64
2, 85920, Note_on_c, 0, 83, 88
2, 85968, Note_off_c, 0, 83, 64
2, 85968, Note_on_c, 0, 85, 88
2, 86016, Note_off_c, 0, 85, 64
2, 86016, Note_on_c, 0, 83, 88
2, 86064, Note_off_c, 0, 83, 64
2, 86064, Note_on_c, 0, 85, 88
2, 86112, Note_off_c, 0, 85, 64
2, 86112, Note_on_c, 0, 83, 88
2, 86160, Note_off_c, 0, 83, 64
2, 86160, Note_on_c, 0, 85, 88
2, 86208, Note_off_c, 0, 85, 64
2, 86208, Note_on_c, 0, 82, 88
2, 86304, Note_off_c, 0, 82, 64
2, 86304, Note_on_c, 0, 83, 88
2, 86400, Note_off_c, 0, 83, 64
2, 86400, Note_on_c, 0, 82, 88
2, 86588, Note_off_c, 0, 82, 64
2, 86592, Note_on_c, 0, 85, 88
2, 86780, Note_off_c, 0, 85, 64
2, 86976, Note_on_c, 0, 79, 88
2, 87164, Note_off_c, 0, 79, 64
2, 87168, Note_on_c, 0, 78, 88
2, 87356, Note_off_c, 0, 78, 64
2, 87360, Note_on_c, 0, 76, 88
2, 87548, Note_off_c, 0, 76, 64
2, 87552, Note_on_c, 0, 74, 88
2, 87676, Note_off_c, 0, 74, 64
2, 87680, Note_on_c, 0, 78, 88
2, 87804, Note_off_c, 0, 78, 64
2, 87808, Note_on_c, 0, 78, 88
2, 87932, Note_off_c, 0, 78, 64
2, 87936, Note_on_c, 0, 83, 88
2, 88060, Note_off_c, 0, 83, 64
2, 88064, Note_on_c, 0, 78, 88
2, 88188, Note_off_c, 0, 78, 64
2, 88192, Note_on_c, 0, 78, 88
2, 88316, Note_off_c, 0, 78, 64
2, 88320, Note_on_c, 0, 74, 88
2, 88444, Note_off_c, 0, 74, 64
2, 88448, Note_on_c, 0, 78, 88
2, 88572, Note_off_c, 0, 78, 64
2, 88576, Note_on_c, 0, 78, 88
2, 88700, Note_off_c, 0, 78, 64
2, 88704, Note_on_c, 0, 73, 88
2, 88828, Note_off_c, 0, 73, 64
2, 88832, Note_on_c, 0, 78, 88
2, 88956, Note_off_c, 0, 78, 64
2, 88960, Note_on_c, 0, 78, 88
2, 89084, Note_off_c, 0, 78, 64
2, 89088, Note_on_c, 0, 85, 88
2, 89212, Note_off_c, 0, 85, 64
2, 89216, Note_on_c, 0, 78, 88
2, 89340, Note_off_c, 0, 78, 64
2, 89344, Note_on_c, 0, 78, 88
2, 89468, Note_off_c, 0, 78, 64
2, 89472, Note_on_c, 0, 76, 88
2, 89596, Note_off_c, 0, 76, 64
2, 89600, Note_on_c, 0, 78, 88
2, 89724, Note_off_c, 0, 78, 64
2, 89728, Note_on_c, 0, 78, 88
2, 89852, Note_off_c, 0, 78, 64
2, 89856, Note_on_c, 0, 74, 67
2, 89980, Note_off_c, 0, 74, 64
2, 89984, Note_on_c, 0, 78, 67
2, 90108, Note_off_c, 0, 78, 64
2, 90112, Note_on_c, 0, 78, 67
2, 90236, Note_off_c, 0, 78, 64
2, 90240, Note_on_c, 0, 83, 67
2, 90364, Note_off_c, 0, 83, 64
2, 90368, Note_on_c, 0, 78, 67
2, 90492, Note_off_c, 0, 78, 64
2, 90496, Note_on_c, 0, 78, 67
2, 90620, Note_off_c, 0, 78, 64
2, 90624, Note_on_c, 0, 74, 67
2, 90748, Note_off_c, 0, 74, 64
2, 90752, Note_on_c, 0, 78, 67
2, 90876, Note_off_c, 0, 78, 64
2, 90880, Note_on_c, 0, 78, 67
2, 91004, Note_off_c, 0, 78, 64
2, 91008, Note_on_c, 0, 73, 67
2, 91132, Note_off_c, 0, 73, 64
2, 91136, Note_on_c, 0, 78, 67
2, 91260, Note_off_c, 0, 78, 64
2, 91264, Note_on_c, 0, 78, 67
2, 91388, Note_off_c, 0, 78, 64
2, 91392, Note_on_c, 0, 85, 67
2, 91516, Note_off_c, 0, 85, 64
2, 91520, Note_on_c, 0, 78, 67
2, 91644, Note_off_c, 0, 78, 64
2, 91648, Note_on_c, 0, 78, 67
2, 91772, Note_off_c, 0, 78, 64
2, 91776, Note_on_c, 0, 76, 67
2, 91900, Note_off_c, 0, 76, 64
2, 91904, Note_on_c, 0, 78, 67
2, 92028, Note_off_c, 0, 78, 64
2, 92032, Note_on_c, 0, 78, 67
2, 92156, Note_off_c, 0, 78, 64
2, 92160, Note_on_c, 0, 74, 88
2, 92284, Note_off_c, 0, 74, 64
2, 92288, Note_on_c, 0, 78, 88
2, 92412, Note_off_c, 0, 78, 64
2, 92416, Note_on_c, 0, 74, 88
2, 92540, Note_off_c, 0, 74, 64
2, 92544, Note_on_c, 0, 83, 88
2, 92668, Note_off_c, 0, 83, 64
2, 92672, Note_on_c, 0, 78, 88
2, 92796, Note_off_c, 0, 78, 64
2, 92800, Note_on_c, 0, 74, 88
2, 92924, Note_off_c, 0, 74, 64
2, 92928, Note_on_c, 0, 78, 88
2, 93052, Note_off_c, 0, 78, 64
2, 93056, Note_on_c, 0, 74, 88
2, 93180, Note_off_c, 0, 74, 64
2, 93184, Note_on_c, 0, 71, 88
2, 93308, Note_off_c, 0, 71, 64
2, 93312, Note_on_c, 0, 74, 88
2, 93436, Note_off_c, 0, 74, 64
2, 93440, Note_on_c, 0, 71, 88
2, 93564, Note_off_c, 0, 71, 64
2, 93568, Note_on_c, 0, 66, 88
2, 93692, Note_off_c, 0, 66, 64
2, 93696, Note_on_c, 0, 71, 88
2, 93820, Note_off_c, 0, 71, 64
2, 93824, Note_on_c, 0, 66, 88
2, 93948, Note_off_c, 0, 66, 64
2, 93952, Note_on_c, 0, 62, 88
2, 94076, Note_off_c, 0, 62, 64
2, 94080, Note_on_c, 0, 66, 88
2, 94204, Note_off_c, 0, 66, 64
2, 94208, Note_on_c, 0, 62, 88
2, 94332, Note_off_c, 0, 62, 64
2, 94336, Note_on_c, 0, 59, 88
2, 94460, Note_off_c, 0, 59, 64
2, 94464, Note_on_c, 0, 55, 88
2, 94844, Note_off_c, 0, 55, 64
2, 94848, Note_on_c, 0, 83, 88
2, 95612, Note_off_c, 0, 83, 64
2, 95616, Note_on_c, 0, 82, 88
2, 95996, Note_off_c, 0, 82, 64
2, 96000, Note_on_c, 0, 79, 88
2, 96380, Note_off_c, 0, 79, 64
2, 96384, Note_on_c, 0, 78, 88
2, 96764, Note_off_c, 0, 78, 64
2, 96768, Note_on_c, 0, 78, 88
2, 96956, Note_off_c, 0, 78, 64
2, 96960, Note_on_c, 0, 76, 88
2, 97148, Note_off_c, 0, 76, 64
2, 97152, Note_on_c, 0, 74, 88
2, 97532, Note_off_c, 0, 74, 64
2, 97536, Note_on_c, 0, 73, 88
2, 97916, Note_off_c, 0, 73, 64
2, 97920, Note_on_c, 0, 72, 88
2, 99068, Note_off_c, 0, 72, 64
2, 99072, Note_on_c, 0, 71, 88
2, 100220, Note_off_c, 0, 71, 64
2, 100224, Note_on_c, 0, 70, 88
2, 100604, Note_off_c, 0, 70, 64
2, 100608, Note_on_c, 0, 67, 88
2, 100988, Note_off_c, 0, 67, 64
2, 100992, Note_on_c, 0, 66, 88
2, 101372, Note_off_c, 0, 66, 64
2, 101376, Note_on_c, 0, 66, 88
2, 101564, Note_off_c, 0, 66, 64
2, 101568, Note_on_c, 0, 64, 88
2, 101756, Note_off_c, 0, 64, 64
2, 101760, Note_on_c, 0, 62, 88
2, 102140, Note_off_c, 0, 62, 64
2, 102144, Note_on_c, 0, 61, 88
2, 102524, Note_off_c, 0, 61, 64
2, 102528, Note_on_c, 0, 59, 88
2, 103292, Note_off_c, 0, 59, 64
2, 103680, Note_on_c, 0, 66, 67
2, 104252, Note_off_c, 0, 66, 64
2, 104256, Note_on_c, 0, 67, 67
2, 104448, Note_on_c, 0, 68, 67
2, 104540, Note_off_c, 0, 67, 64
2, 104636, Note_off_c, 0, 68, 64
2, 104640, Note_on_c, 0, 69, 67
2, 104828, Note_off_c, 0, 69, 64
2, 104832, Note_on_c, 0, 71, 67
2, 105020, Note_off_c, 0, 71, 64
2, 105024, Note_on_c, 0, 69, 67
2, 105212, Note_off_c, 0, 69, 64
2, 105216, Note_on_c, 0, 67, 67
2, 105404, Note_off_c, 0, 67, 64
2, 105408, Note_on_c, 0, 66, 67
2, 105596, Note_off_c, 0, 66, 64
2, 105600, Note_on_c, 0, 64, 67
2, 105788, Note_off_c, 0, 64, 64
2, 105792, Note_on_c, 0, 62, 67
2, 105980, Note_off_c, 0, 62, 64
2, 105984, Note_on_c, 0, 64, 67
2, 106364, Note_off_c, 0, 64, 64
2, 106368, Note_on_c, 0, 64, 67
2, 106748, Note_off_c, 0, 64, 64
2, 106752, Note_on_c, 0, 66, 67
2, 107132, Note_off_c, 0, 66, 64
2, 107136, Note_on_c, 0, 66, 67
2, 107420, Note_off_c, 0, 66, 64
2, 107424, Note_on_c, 0, 67, 67
2, 107516, Note_off_c, 0, 67, 64
2, 107520, Note_on_c, 0, 64, 67
2, 107900, Note_off_c, 0, 64, 64
2, 108288, Note_on_c, 0, 62, 67
2, 108476, Note_off_c, 0, 62, 64
2, 108480, Note_on_c, 0, 64, 67
2, 108668, Note_off_c, 0, 64, 64
2, 108672, Note_on_c, 0, 66, 67
2, 108860, Note_off_c, 0, 66, 64
2, 108864, Note_on_c, 0, 62, 67
2, 109052, Note_off_c, 0, 62, 64
2, 109056, Note_on_c, 0, 61, 67
2, 109244, Note_off_c, 0, 61, 64
2, 109248, Note_on_c, 0, 57, 67
2, 109436, Note_off_c, 0, 57, 64
2, 109440, Note_on_c, 0, 62, 67
2, 109628, Note_off_c, 0, 62, 64
2, 109632, Note_on_c, 0, 64, 67
2, 109820, Note_off_c, 0, 64, 64
2, 109824, Note_on_c, 0, 66, 67
2, 110012, Note_off_c, 0, 66, 64
2, 110016, Note_on_c, 0, 62, 67
2, 110204, Note_off_c, 0, 62, 64
2, 110208, Note_on_c, 0, 61, 67
2, 110396, Note_off_c, 0, 61, 64
2, 110400, Note_on_c, 0, 57, 67
2, 110588, Note_off_c, 0, 57, 64
2, 110592, Note_on_c, 0, 62, 67
2, 110780, Note_off_c, 0, 62, 64
2, 110784, Note_on_c, 0, 66, 67
2, 110972, Note_off_c, 0, 66, 64
2, 110976, Note_on_c, 0, 69, 67
2, 111164, Note_off_c, 0, 69, 64
2, 111168, Note_on_c, 0, 66, 67
2, 111356, Note_off_c, 0, 66, 64
2, 111360, Note_on_c, 0, 71, 67
2, 111548, Note_off_c, 0, 71, 64
2, 111552, Note_on_c, 0, 67, 67
2, 111740, Note_off_c, 0, 67, 64
2, 111744, Note_on_c, 0, 66, 67
2, 112508, Note_off_c, 0, 66, 64
2, 112512, Note_on_c, 0, 64, 67
2, 112892, Note_off_c, 0, 64, 64
2, 122112, Note_on_c, 0, 74, 88
2, 122876, Note_off_c, 0, 74, 64
2, 122880, Note_on_c, 0, 86, 88
2, 123260, Note_off_c, 0, 86, 64
2, 123264, Note_on_c, 0, 86, 88
2, 124028, Note_off_c, 0, 86, 64
2, 124032, Note_on_c, 0, 84, 77
2, 124124, Note_off_c, 0, 84, 64
2, 124128, Note_on_c, 0, 82, 82
2, 124220, Note_off_c, 0, 82, 64
2, 124224, Note_on_c, 0, 81, 88
2, 124316, Note_off_c, 0, 81, 64
2, 124320, Note_on_c, 0, 79, 88
2, 124412, Note_off_c, 0, 79, 64
2, 124416, Note_on_c, 0, 77, 88
2, 124796, Note_off_c, 0, 77, 64
2, 124800, Note_on_c, 0, 76, 88
2, 125180, Note_off_c, 0, 76, 64
2, 125184, Note_on_c, 0, 84, 88
2, 125468, Note_off_c, 0, 84, 64
2, 125472, Note_on_c, 0, 84, 88
2, 125564, Note_off_c, 0, 84, 64
2, 125568, Note_on_c, 0, 84, 88
2, 126332, Note_off_c, 0, 84, 64
2, 126336, Note_on_c, 0, 82, 77
2, 126428, Note_off_c, 0, 82, 64
2, 126432, Note_on_c, 0, 81, 82
2, 126524, Note_off_c, 0, 81, 64
2, 126528, Note_on_c, 0, 79, 88
2, 126620, Note_off_c, 0, 79, 64
2, 126624, Note_on_c, 0, 77, 88
2, 126716, Note_off_c, 0, 77, 64
2, 126720, Note_on_c, 0, 76, 88
2, 127100, Note_off_c, 0, 76, 64
2, 127104, Note_on_c, 0, 74, 88
2, 127484, Note_off_c, 0, 74, 64
2, 127488, Note_on_c, 0, 82, 88
2, 127772, Note_off_c, 0, 82, 64
2, 127776, Note_on_c, 0, 82, 88
2, 127868, Note_off_c, 0, 82, 64
2, 127872, Note_on_c, 0, 82, 88
2, 128636, Note_off_c, 0, 82, 64
2, 128640, Note_on_c, 0, 81, 88
2, 128732, Note_off_c, 0, 81, 64
2, 128736, Note_on_c, 0, 79, 88
2, 128828, Note_off_c, 0, 79, 64
2, 128832, Note_on_c, 0, 77, 88
2, 128924, Note_off_c, 0, 77, 64
2, 128928, Note_on_c, 0, 76, 88
2, 129020, Note_off_c, 0, 76, 64
2, 129024, Note_on_c, 0, 74, 88
2, 129404, Note_off_c, 0, 74, 64
2, 129408, Note_on_c, 0, 73, 88
2, 129788, Note_off_c, 0, 73, 64
2, 129792, Note_on_c, 0, 81, 88
2, 130172, Note_off_c, 0, 81, 64
2, 130176, Note_on_c, 0, 79, 88
2, 130940, Note_off_c, 0, 79, 64
2, 130944, Note_on_c, 0, 77, 88
2, 130988, Note_off_c, 0, 77, 64
2, 130992, Note_on_c, 0, 79, 88
2, 131036, Note_off_c, 0, 79, 64
2, 131040, Note_on_c, 0, 77, 88
2, 131084, Note_off_c, 0, 77, 64
2, 131088, Note_on_c, 0, 79, 88
2, 131132, Note_off_c, 0, 79, 64
2, 131136, Note_on_c, 0, 77, 88
2, 131180, Note_off_c, 0, 77, 64
2, 131184, Note_on_c, 0, 79, 88
2, 131228, Note_off_c, 0, 79, 64
2, 131232, Note_on_c, 0, 76, 88
2, 131276, Note_off_c, 0, 76, 64
2, 131280, Note_on_c, 0, 77, 88
2, 131324, Note_off_c, 0, 77, 64
2, 131328, Note_on_c, 0, 76, 88
2, 131516, Note_off_c, 0, 76, 64
2, 131520, Note_on_c, 0, 69, 85
2, 131708, Note_off_c, 0, 69, 64
2, 131712, Note_on_c, 0, 68, 84
2, 131900, Note_off_c, 0, 68, 64
2, 131904, Note_on_c, 0, 69, 83
2, 132092, Note_off_c, 0, 69, 64
2, 132096, Note_on_c, 0, 68, 82
2, 132284, Note_off_c, 0, 68, 64
2, 132288, Note_on_c, 0, 69, 80
2, 132476, Note_off_c, 0, 69, 64
2, 132480, Note_on_c, 0, 67, 79
2, 132860, Note_off_c, 0, 67, 64
2, 132864, Note_on_c, 0, 66, 74
2, 132908, Note_off_c, 0, 66, 64
2, 132912, Note_on_c, 0, 67, 74
2, 132956, Note_off_c, 0, 67, 64
2, 132960, Note_on_c, 0, 66, 74
2, 133004, Note_off_c, 0, 66, 64
2, 133008, Note_on_c, 0, 67, 73
2, 133052, Note_off_c, 0, 67, 64
2, 133056, Note_on_c, 0, 66, 73
2, 133100, Note_off_c, 0, 66, 64
2, 133104, Note_on_c, 0, 67, 73
2, 133148, Note_off_c, 0, 67, 64
2, 133152, Note_on_c, 0, 66, 73
2, 133196, Note_off_c, 0, 66, 64
2, 133200, Note_on_c, 0, 67, 72
2, 133244, Note_off_c, 0, 67, 64
2, 133248, Note_on_c, 0, 66, 72
2, 133292, Note_off_c, 0, 66, 64
2, 133296, Note_on_c, 0, 67, 72
2, 133340, Note_off_c, 0, 67, 64
2, 133344, Note_on_c, 0, 66, 71
2, 133388, Note_off_c, 0, 66, 64
2, 133392, Note_on_c, 0, 67, 71
2, 133436, Note_off_c, 0, 67, 64
2, 133440, Note_on_c, 0, 64, 71
2, 133532, Note_off_c, 0, 64, 64
2, 133536, Note_on_c, 0, 66, 69
2, 133628, Note_off_c, 0, 66, 64
2, 133632, Note_on_c, 0, 64, 69
2, 133820, Note_off_c, 0, 64, 64
2, 133824, Note_on_c, 0, 81, 67
2, 134012, Note_off_c, 0, 81, 64
2, 134016, Note_on_c, 0, 79, 67
2, 134204, Note_off_c, 0, 79, 64
2, 134208, Note_on_c, 0, 81, 67
2, 134396, Note_off_c, 0, 81, 64
2, 134400, Note_on_c, 0, 79, 67
2, 134588, Note_off_c, 0, 79, 64
2, 134592, Note_on_c, 0, 81, 67
2, 134780, Note_off_c, 0, 81, 64
2, 134784, Note_on_c, 0, 79, 67
2, 135164, Note_off_c, 0, 79, 64
2, 135168, Note_on_c, 0, 77, 67
2, 135212, Note_off_c, 0, 77, 64
2, 135216, Note_on_c, 0, 79, 67
2, 135260, Note_off_c, 0, 79, 64
2, 135264, Note_on_c, 0, 77, 67
2, 135308, Note_off_c, 0, 77, 64
2, 135312, Note_on_c, 0, 79, 67
2, 135356, Note_off_c, 0, 79, 64
2, 135360, Note_on_c, 0, 77, 67
2, 135404, Note_off_c, 0, 77, 64
2, 135408, Note_on_c, 0, 79, 67
2, 135452, Note_off_c, 0, 79, 64
2, 135456, Note_on_c, 0, 77, 67
2, 135500, Note_off_c, 0, 77, 64
2, 135504, Note_on_c, 0, 79, 67
2, 135548, Note_off_c, 0, 79, 64
2, 135552, Note_on_c, 0, 77, 67
2, 135596, Note_off_c, 0, 77, 64
2, 135600, Note_on_c, 0, 79, 67
2, 135644, Note_off_c, 0, 79, 64
2, 135648, Note_on_c, 0, 77, 67
2, 135692, Note_off_c, 0, 77, 64
2, 135696, Note_on_c, 0, 79, 67
2, 135740, Note_off_c, 0, 79, 64
2, 135744, Note_on_c, 0, 76, 67
2, 135836, Note_off_c, 0, 76, 64
2, 135840, Note_on_c, 0, 77, 67
2, 135932, Note_off_c, 0, 77, 64
2, 135936, Note_on_c, 0, 76, 67
2, 136412, Note_off_c, 0, 76, 64
2, 136416, Note_on_c, 0, 79, 67
2, 136508, Note_off_c, 0, 79, 64
2, 136512, Note_on_c, 0, 78, 67
2, 136604, Note_off_c, 0, 78, 64
2, 136608, Note_on_c, 0, 79, 67
2, 136700, Note_off_c, 0, 79, 64
2, 136704, Note_on_c, 0, 81, 67
2, 136796, Note_off_c, 0, 81, 64
2, 136800, Note_on_c, 0, 79, 67
2, 136892, Note_off_c, 0, 79, 64
2, 136896, Note_on_c, 0, 78, 67
2, 136988, Note_off_c, 0, 78, 64
2, 136992, Note_on_c, 0, 76, 67
2, 137084, Note_off_c, 0, 76, 64
2, 137088, Note_on_c, 0, 74, 88
2, 138236, Note_off_c, 0, 74, 64
2, 138240, Note_on_c, 0, 78, 88
2, 139388, Note_off_c, 0, 78, 64
2, 139392, Note_on_c, 0, 81, 88
2, 140156, Note_off_c, 0, 81, 64
2, 140160, Note_on_c, 0, 79, 88
2, 140252, Note_off_c, 0, 79, 64
2, 140256, Note_on_c, 0, 78, 88
2, 140348, Note_off_c, 0, 78, 64
2, 140352, Note_on_c, 0, 76, 88
2, 140444, Note_off_c, 0, 76, 64
2, 140448, Note_on_c, 0, 74, 88
2, 140540, Note_off_c, 0, 74, 64
2, 140544, Note_on_c, 0, 74, 88
2, 140588, Note_off_c, 0, 74, 64
2, 140592, Note_on_c, 0, 76, 88
2, 140636, Note_off_c, 0, 76, 64
2, 140640, Note_on_c, 0, 74, 88
2, 140684, Note_off_c, 0, 74, 64
2, 140688, Note_on_c, 0, 76, 88
2, 140732, Note_off_c, 0, 76, 64
2, 140736, Note_on_c, 0, 73, 88
2, 140924, Note_off_c, 0, 73, 64
2, 140928, Note_on_c, 0, 73, 88
2, 141308, Note_off_c, 0, 73, 64
2, 141696, Note_on_c, 0, 79, 88
2, 141884, Note_off_c, 0, 79, 64
2, 141888, Note_on_c, 0, 76, 88
2, 142076, Note_off_c, 0, 76, 64
2, 142080, Note_on_c, 0, 79, 88
2, 142268, Note_off_c, 0, 79, 64
2, 142272, Note_on_c, 0, 73, 88
2, 142460, Note_off_c, 0, 73, 64
2, 142464, Note_on_c, 0, 79, 88
2, 142652, Note_off_c, 0, 79, 64
2, 142656, Note_on_c, 0, 69, 88
2, 142844, Note_off_c, 0, 69, 64
2, 142848, Note_on_c, 0, 69, 88
2, 143420, Note_off_c, 0, 69, 64
2, 143424, Note_on_c, 0, 71, 88
2, 143516, Note_off_c, 0, 71, 64
2, 143520, Note_on_c, 0, 69, 88
2, 143612, Note_off_c, 0, 69, 64
2, 143616, Note_on_c, 0, 67, 88
2, 143708, Note_off_c, 0, 67, 64
2, 143712, Note_on_c, 0, 66, 88
2, 143804, Note_off_c, 0, 66, 64
2, 143808, Note_on_c, 0, 64, 88
2, 143900, Note_off_c, 0, 64, 64
2, 143904, Note_on_c, 0, 62, 88
2, 143996, Note_off_c, 0, 62, 64
2, 144000, Note_on_c, 0, 61, 88
2, 144188, Note_off_c, 0, 61, 64
2, 144192, Note_on_c, 0, 64, 88
2, 144380, Note_off_c, 0, 64, 64
2, 144384, Note_on_c, 0, 69, 88
2, 144572, Note_off_c, 0, 69, 64
2, 144576, Note_on_c, 0, 73, 88
2, 144764, Note_off_c, 0, 73, 64
2, 144768, Note_on_c, 0, 76, 88
2, 144956, Note_off_c, 0, 76, 64
2, 144960, Note_on_c, 0, 79, 88
2, 145148, Note_off_c, 0, 79, 64
2, 145152, Note_on_c, 0, 76, 88
2, 145340, Note_off_c, 0, 76, 64
2, 145344, Note_on_c, 0, 78, 88
2, 145532, Note_off_c, 0, 78, 64
2, 145536, Note_on_c, 0, 78, 88
2, 145916, Note_off_c, 0, 78, 64
2, 146304, Note_on_c, 0, 79, 88
2, 146492, Note_off_c, 0, 79, 64
2, 146496, Note_on_c, 0, 76, 88
2, 146684, Note_off_c, 0, 76, 64
2, 146688, Note_on_c, 0, 79, 88
2, 146876, Note_off_c, 0, 79, 64
2, 146880, Note_on_c, 0, 73, 88
2, 147068, Note_off_c, 0, 73, 64
2, 147072, Note_on_c, 0, 79, 88
2, 147260, Note_off_c, 0, 79, 64
2, 147264, Note_on_c, 0, 69, 88
2, 147452, Note_off_c, 0, 69, 64
2, 147456, Note_on_c, 0, 69, 88
2, 148028, Note_off_c, 0, 69, 64
2, 148032, Note_on_c, 0, 71, 88
2, 148124, Note_off_c, 0, 71, 64
2, 148128, Note_on_c, 0, 69, 88
2, 148220, Note_off_c, 0, 69, 64
2, 148224, Note_on_c, 0, 67, 88
2, 148316, Note_off_c, 0, 67, 64
2, 148320, Note_on_c, 0, 66, 88
2, 148412, Note_off_c, 0, 66, 64
2, 148416, Note_on_c, 0, 64, 88
2, 148508, Note_off_c, 0, 64, 64
2, 148512, Note_on_c, 0, 62, 88
2, 148604, Note_off_c, 0, 62, 64
2, 148608, Note_on_c, 0, 61, 88
2, 148988, Note_off_c, 0, 61, 64
2, 148992, Note_on_c, 0, 79, 88
2, 149036, Note_off_c, 0, 79, 64
2, 149040, Note_on_c, 0, 81, 88
2, 149084, Note_off_c, 0, 81, 64
2, 149088, Note_on_c, 0, 79, 88
2, 149132, Note_off_c, 0, 79, 64
2, 149136, Note_on_c, 0, 81, 88
2, 149180, Note_off_c, 0, 81, 64
2, 149184, Note_on_c, 0, 79, 88
2, 149228, Note_off_c, 0, 79, 64
2, 149232, Note_on_c, 0, 81, 88
2, 149276, Note_off_c, 0, 81, 64
2, 149280, Note_on_c, 0, 79, 88
2, 149324, Note_off_c, 0, 79, 64
2, 149328, Note_on_c, 0, 81, 88
2, 149372, Note_off_c, 0, 81, 64
2, 149376, Note_on_c, 0, 79, 88
2, 149420, Note_off_c, 0, 79, 64
2, 149424, Note_on_c, 0, 81, 88
2, 149468, Note_off_c, 0, 81, 64
2, 149472, Note_on_c, 0, 79, 88
2, 149516, Note_off_c, 0, 79, 64
2, 149520, Note_on_c, 0, 81, 88
2, 149564, Note_off_c, 0, 81, 64
2, 149568, Note_on_c, 0, 78, 88
2, 149660, Note_off_c, 0, 78, 64
2, 149664, Note_on_c, 0, 79, 88
2, 149756, Note_off_c, 0, 79, 64
2, 149760, Note_on_c, 0, 78, 88
2, 150524, Note_off_c, 0, 78, 64
2, 150528, Note_on_c, 0, 79, 88
2, 150620, Note_off_c, 0, 79, 64
2, 150624, Note_on_c, 0, 78, 88
2, 150716, Note_off_c, 0, 78, 64
2, 150720, Note_on_c, 0, 76, 88
2, 150812, Note_off_c, 0, 76, 64
2, 150816, Note_on_c, 0, 74, 88
2, 150908, Note_off_c, 0, 74, 64
2, 150912, Note_on_c, 0, 81, 88
2, 151100, Note_off_c, 0, 81, 64
2, 151104, Note_on_c, 0, 79, 88
2, 151292, Note_off_c, 0, 79, 64
2, 151488, Note_on_c, 0, 79, 88
2, 151676, Note_off_c, 0, 79, 64
2, 151680, Note_on_c, 0, 79, 88
2, 151868, Note_off_c, 0, 79, 64
2, 151872, Note_on_c, 0, 79, 88
2, 152060, Note_off_c, 0, 79, 64
2, 152064, Note_on_c, 0, 77, 88
2, 152252, Note_off_c, 0, 77, 64
2, 152256, Note_on_c, 0, 78, 88
2, 152444, Note_off_c, 0, 78, 64
2, 152640, Note_on_c, 0, 78, 67
2, 152828, Note_off_c, 0, 78, 64
2, 152832, Note_on_c, 0, 79, 67
2, 152924, Note_off_c, 0, 79, 64
2, 152928, Note_on_c, 0, 78, 67
2, 153020, Note_off_c, 0, 78, 64
2, 153024, Note_on_c, 0, 76, 67
2, 153116, Note_off_c, 0, 76, 64
2, 153120, Note_on_c, 0, 74, 67
2, 153212, Note_off_c, 0, 74, 64
2, 153216, Note_on_c, 0, 81, 67
2, 153404, Note_off_c, 0, 81, 64
2, 153408, Note_on_c, 0, 79, 67
2, 153596, Note_off_c, 0, 79, 64
2, 153792, Note_on_c, 0, 79, 67
2, 153980, Note_off_c, 0, 79, 64
2, 153984, Note_on_c, 0, 79, 67
2, 154172, Note_off_c, 0, 79, 64
2, 154176, Note_on_c, 0, 79, 67
2, 154364, Note_off_c, 0, 79, 64
2, 154368, Note_on_c, 0, 77, 67
2, 154556, Note_off_c, 0, 77, 64
2, 154560, Note_on_c, 0, 78, 67
2, 154748, Note_off_c, 0, 78, 64
2, 154944, Note_on_c, 0, 78, 67
2, 155132, Note_off_c, 0, 78, 64
2, 155136, Note_on_c, 0, 79, 67
2, 155228, Note_off_c, 0, 79, 64
2, 155232, Note_on_c, 0, 78, 67
2, 155324, Note_off_c, 0, 78, 64
2, 155328, Note_on_c, 0, 76, 67
2, 155420, Note_off_c, 0, 76, 64
2, 155424, Note_on_c, 0, 74, 67
2, 155516, Note_off_c, 0, 74, 64
2, 155520, Note_on_c, 0, 81, 68
2, 155708, Note_off_c, 0, 81, 64
2, 155712, Note_on_c, 0, 80, 69
2, 155900, Note_off_c, 0, 80, 64
2, 156096, Note_on_c, 0, 80, 72
2, 156284, Note_off_c, 0, 80, 64
2, 156288, Note_on_c, 0, 80, 73
2, 156476, Note_off_c, 0, 80, 64
2, 156480, Note_on_c, 0, 80, 74
2, 156668, Note_off_c, 0, 80, 64
2, 156672, Note_on_c, 0, 83, 78
2, 156860, Note_off_c, 0, 83, 64
2, 156864, Note_on_c, 0, 81, 79
2, 157052, Note_off_c, 0, 81, 64
2, 157248, Note_on_c, 0, 81, 82
2, 157436, Note_off_c, 0, 81, 64
2, 157440, Note_on_c, 0, 81, 83
2, 157628, Note_off_c, 0, 81, 64
2, 157632, Note_on_c, 0, 81, 85
2, 157820, Note_off_c, 0, 81, 64
2, 157824, Note_on_c, 0, 86, 88
2, 158012, Note_off_c, 0, 86, 64
2, 158016, Note_on_c, 0, 80, 88
2, 158204, Note_off_c, 0, 80, 64
2, 158400, Note_on_c, 0, 80, 88
2, 158588, Note_off_c, 0, 80, 64
2, 158592, Note_on_c, 0, 80, 88
2, 158780, Note_off_c, 0, 80, 64
2, 158784, Note_on_c, 0, 80, 88
2, 158972, Note_off_c, 0, 80, 64
2, 158976, Note_on_c, 0, 83, 88
2, 159164, Note_off_c, 0, 83, 64
2, 159168, Note_on_c, 0, 81, 88
2, 159356, Note_off_c, 0, 81, 64
2, 159552, Note_on_c, 0, 81, 88
2, 159740, Note_off_c, 0, 81, 64
2, 159744, Note_on_c, 0, 81, 88
2, 159932, Note_off_c, 0, 81, 64
2, 159936, Note_on_c, 0, 81, 88
2, 160124, Note_off_c, 0, 81, 64
2, 160128, Note_on_c, 0, 83, 88
2, 160316, Note_off_c, 0, 83, 64
2, 160320, Note_on_c, 0, 81, 88
2, 160508, Note_off_c, 0, 81, 64
2, 160704, Note_on_c, 0, 81, 88
2, 160892, Note_off_c, 0, 81, 64
2, 160896, Note_on_c, 0, 83, 88
2, 161084, Note_off_c, 0, 83, 64
2, 161088, Note_on_c, 0, 80, 88
2, 161276, Note_off_c, 0, 80, 64
2, 161280, Note_on_c, 0, 83, 88
2, 161468, Note_off_c, 0, 83, 64
2, 161472, Note_on_c, 0, 81, 88
2, 161660, Note_off_c, 0, 81, 64
2, 161664, Note_on_c, 0, 83, 88
2, 161852, Note_off_c, 0, 83, 64
2, 161856, Note_on_c, 0, 81, 88
2, 162044, Note_off_c, 0, 81, 64
2, 162048, Note_on_c, 0, 83, 88
2, 162236, Note_off_c, 0, 83, 64
2, 162240, Note_on_c, 0, 81, 88
2, 162428, Note_off_c, 0, 81, 64
2, 162432, Note_on_c, 0, 81, 88
2, 163196, Note_off_c, 0, 81, 64
2, 163200, Note_on_c, 0, 81, 88
2, 163580, Note_off_c, 0, 81, 64
2, 163584, Note_on_c, 0, 83, 88
2, 163772, Note_off_c, 0, 83, 64
2, 163776, Note_on_c, 0, 81, 88
2, 163964, Note_off_c, 0, 81, 64
2, 163968, Note_on_c, 0, 71, 88
2, 164156, Note_off_c, 0, 71, 64
2, 164160, Note_on_c, 0, 69, 88
2, 164348, Note_off_c, 0, 69, 64
2, 164352, Note_on_c, 0, 59, 88
2, 164540, Note_off_c, 0, 59, 64
2, 164544, Note_on_c, 0, 57, 88
2, 164732, Note_off_c, 0, 57, 64
2, 164736, Note_on_c, 0, 71, 88
2, 164924, Note_off_c, 0, 71, 64
2, 164928, Note_on_c, 0, 69, 88
2, 165116, Note_off_c, 0, 69, 64
2, 165120, Note_on_c, 0, 83, 88
2, 165308, Note_off_c, 0, 83, 64
2, 165312, Note_on_c, 0, 81, 88
2, 165500, Note_off_c, 0, 81, 64
2, 165504, Note_on_c, 0, 95, 88
2, 165692, Note_off_c, 0, 95, 64
2, 165696, Note_on_c, 0, 93, 88
2, 165884, Note_off_c, 0, 93, 64
2, 165888, Note_on_c, 0, 93, 88
2, 165932, Note_off_c, 0, 93, 64
2, 165936, Note_on_c, 0, 95, 88
2, 165980, Note_off_c, 0, 95, 64
2, 165984, Note_on_c, 0, 93, 88
2, 166028, Note_off_c, 0, 93, 64
2, 166032, Note_on_c, 0, 95, 88
2, 166076, Note_off_c, 0, 95, 64
2, 166080, Note_on_c, 0, 93, 88
2, 166124, Note_off_c, 0, 93, 64
2, 166128, Note_on_c, 0, 95, 88
2, 166172, Note_off_c, 0, 95, 64
2, 166176, Note_on_c, 0, 93, 88
2, 166220, Note_off_c, 0, 93, 64
2, 166224, Note_on_c, 0, 95, 88
2, 166268, Note_off_c, 0, 95, 64
2, 166272, Note_on_c, 0, 93, 88
2, 166316, Note_off_c, 0, 93, 64
2, 166320, Note_on_c, 0, 95, 88
2, 166364, Note_off_c, 0, 95, 64
2, 166368, Note_on_c, 0, 93, 88
2, 166400, Note_on_c, 0, 95, 88
2, 166412, Note_off_c, 0, 93, 64
2, 166444, Note_off_c, 0, 95, 64
2, 166464, Note_on_c, 0, 93, 88
2, 166508, Note_off_c, 0, 93, 64
2, 166512, Note_on_c, 0, 95, 88
2, 166556, Note_off_c, 0, 95, 64
2, 166560, Note_on_c, 0, 93, 88
2, 166604, Note_off_c, 0, 93, 64
2, 166608, Note_on_c, 0, 95, 88
2, 166652, Note_off_c, 0, 95, 64
2, 166656, Note_on_c, 0, 93, 88
2, 166700, Note_off_c, 0, 93, 64
2, 166704, Note_on_c, 0, 95, 88
2, 166748, Note_off_c, 0, 95, 64
2, 166752, Note_on_c, 0, 93, 88
2, 166784, Note_on_c, 0, 95, 88
2, 166796, Note_off_c, 0, 93, 64
2, 166828, Note_off_c, 0, 95, 64
2, 166848, Note_on_c, 0, 93, 88
2, 166892, Note_off_c, 0, 93, 64
2, 166896, Note_on_c, 0, 95, 88
2, 166928, Note_on_c, 0, 91, 88
2, 166940, Note_off_c, 0, 95, 64
2, 166972, Note_off_c, 0, 91, 64
2, 166976, Note_on_c, 0, 93, 88
2, 167020, Note_off_c, 0, 93, 64
2, 167040, Note_on_c, 0, 81, 88
2, 167084, Note_off_c, 0, 81, 64
2, 167088, Note_on_c, 0, 83, 88
2, 167132, Note_off_c, 0, 83, 64
2, 167136, Note_on_c, 0, 81, 88
2, 167180, Note_off_c, 0, 81, 64
2, 167184, Note_on_c, 0, 83, 88
2, 167228, Note_off_c, 0, 83, 64
2, 167232, Note_on_c, 0, 81, 88
2, 167276, Note_off_c, 0, 81, 64
2, 167280, Note_on_c, 0, 83, 88
2, 167324, Note_off_c, 0, 83, 64
2, 167328, Note_on_c, 0, 81, 88
2, 167372, Note_off_c, 0, 81, 64
2, 167376, Note_on_c, 0, 83, 88
2, 167420, Note_off_c, 0, 83, 64
2, 167424, Note_on_c, 0, 81, 88
2, 167468, Note_off_c, 0, 81, 64
2, 167472, Note_on_c, 0, 83, 88
2, 167516, Note_off_c, 0, 83, 64
2, 167520, Note_on_c, 0, 81, 88
2, 167564, Note_off_c, 0, 81, 64
2, 167568, Note_on_c, 0, 83, 88
2, 167612, Note_off_c, 0, 83, 64
2, 167616, Note_on_c, 0, 81, 88
2, 167660, Note_off_c, 0, 81, 64
2, 167664, Note_on_c, 0, 83, 88
2, 167708, Note_off_c, 0, 83, 64
2, 167712, Note_on_c, 0, 81, 88
2, 167756, Note_off_c, 0, 81, 64
2, 167760, Note_on_c, 0, 83, 88
2, 167804, Note_off_c, 0, 83, 64
2, 167808, Note_on_c, 0, 81, 88
2, 167852, Note_off_c, 0, 81, 64
2, 167856, Note_on_c, 0, 83, 88
2, 167900, Note_off_c, 0, 83, 64
2, 167904, Note_on_c, 0, 81, 88
2, 167948, Note_off_c, 0, 81, 64
2, 167952, Note_on_c, 0, 83, 88
2, 167996, Note_off_c, 0, 83, 64
2, 168000, Note_on_c, 0, 81, 88
2, 168044, Note_off_c, 0, 81, 64
2, 168048, Note_on_c, 0, 83, 88
2, 168092, Note_off_c, 0, 83, 64
2, 168096, Note_on_c, 0, 79, 88
2, 168140, Note_off_c, 0, 79, 64
2, 168144, Note_on_c, 0, 81, 88
2, 168188, Note_off_c, 0, 81, 64
2, 168192, Note_on_c, 0, 82, 88
2, 168380, Note_off_c, 0, 82, 64
2, 168384, Note_on_c, 0, 81, 88
2, 168572, Note_off_c, 0, 81, 64
2, 168576, Note_on_c, 0, 70, 88
2, 168764, Note_off_c, 0, 70, 64
2, 168768, Note_on_c, 0, 69, 88
2, 168956, Note_off_c, 0, 69, 64
2, 168960, Note_on_c, 0, 58, 88
2, 169148, Note_off_c, 0, 58, 64
2, 169152, Note_on_c, 0, 57, 88
2, 169340, Note_off_c, 0, 57, 64
2, 169344, Note_on_c, 0, 70, 88
2, 169532, Note_off_c, 0, 70, 64
2, 169536, Note_on_c, 0, 69, 88
2, 169724, Note_off_c, 0, 69, 64
2, 169728, Note_on_c, 0, 82, 88
2, 169916, Note_off_c, 0, 82, 64
2, 169920, Note_on_c, 0, 81, 88
2, 170108, Note_off_c, 0, 81, 64
2, 170112, Note_on_c, 0, 94, 88
2, 170300, Note_off_c, 0, 94, 64
2, 170304, Note_on_c, 0, 93, 88
2, 170492, Note_off_c, 0, 93, 64
2, 170496, Note_on_c, 0, 93, 88
2, 170540, Note_off_c, 0, 93, 64
2, 170544, Note_on_c, 0, 94, 88
2, 170588, Note_off_c, 0, 94, 64
2, 170592, Note_on_c, 0, 93, 88
2, 170636, Note_off_c, 0, 93, 64
2, 170640, Note_on_c, 0, 94, 88
2, 170684, Note_off_c, 0, 94, 64
2, 170688, Note_on_c, 0, 93, 88
2, 170732, Note_off_c, 0, 93, 64
2, 170736, Note_on_c, 0, 94, 88
2, 170780, Note_off_c, 0, 94, 64
2, 170784, Note_on_c, 0, 93, 88
2, 170828, Note_off_c, 0, 93, 64
2, 170832, Note_on_c, 0, 94, 88
2, 170876, Note_off_c, 0, 94, 64
2, 170880, Note_on_c, 0, 93, 88
2, 170924, Note_off_c, 0, 93, 64
2, 170928, Note_on_c, 0, 94, 88
2, 170972, Note_off_c, 0, 94, 64
2, 170976, Note_on_c, 0, 93, 88
2, 171020, Note_off_c, 0, 93, 64
2, 171024, Note_on_c, 0, 94, 88
2, 171068, Note_off_c, 0, 94, 64
2, 171072, Note_on_c, 0, 93, 88
2, 171116, Note_off_c, 0, 93, 64
2, 171120, Note_on_c, 0, 94, 88
2, 171164, Note_off_c, 0, 94, 64
2, 171168, Note_on_c, 0, 93, 88
2, 171212, Note_off_c, 0, 93, 64
2, 171216, Note_on_c, 0, 94, 88
2, 171260, Note_off_c, 0, 94, 64
2, 171264, Note_on_c, 0, 93, 88
2, 171308, Note_off_c, 0, 93, 64
2, 171312, Note_on_c, 0, 94, 88
2, 171356, Note_off_c, 0, 94, 64
2, 171360, Note_on_c, 0, 93, 88
2, 171404, Note_off_c, 0, 93, 64
2, 171408, Note_on_c, 0, 94, 88
2, 171452, Note_off_c, 0, 94, 64
2, 171456, Note_on_c, 0, 93, 88
2, 171500, Note_off_c, 0, 93, 64
2, 171504, Note_on_c, 0, 94, 88
2, 171548, Note_off_c, 0, 94, 64
2, 171552, Note_on_c, 0, 91, 88
2, 171596, Note_off_c, 0, 91, 64
2, 171600, Note_on_c, 0, 93, 88
2, 171644, Note_off_c, 0, 93, 64
2, 171648, Note_on_c, 0, 81, 88
2, 171692, Note_off_c, 0, 81, 64
2, 171696, Note_on_c, 0, 82, 88
2, 171740, Note_off_c, 0, 82, 64
2, 171744, Note_on_c, 0, 81, 88
2, 171788, Note_off_c, 0, 81, 64
2, 171792, Note_on_c, 0, 82, 88
2, 171836, Note_off_c, 0, 82, 64
2, 171840, Note_on_c, 0, 81, 88
2, 171884, Note_off_c, 0, 81, 64
2, 171888, Note_on_c, 0, 82, 88
2, 171932, Note_off_c, 0, 82, 64
2, 171936, Note_on_c, 0, 81, 88
2, 171980, Note_off_c, 0, 81, 64
2, 171984, Note_on_c, 0, 82, 88
2, 172028, Note_off_c, 0, 82, 64
2, 172032, Note_on_c, 0, 81, 88
2, 172076, Note_off_c, 0, 81, 64
2, 172080, Note_on_c, 0, 82, 88
2, 172124, Note_off_c, 0, 82, 64
2, 172128, Note_on_c, 0, 81, 88
2, 172172, Note_off_c, 0, 81, 64
2, 172176, Note_on_c, 0, 82, 88
2, 172220, Note_off_c, 0, 82, 64
2, 172224, Note_on_c, 0, 81, 88
2, 172268, Note_off_c, 0, 81, 64
2, 172272, Note_on_c, 0, 82, 88
2, 172316, Note_off_c, 0, 82, 64
2, 172320, Note_on_c, 0, 81, 88
2, 172364, Note_off_c, 0, 81, 64
2, 172368, Note_on_c, 0, 82, 88
2, 172412, Note_off_c, 0, 82, 64
2, 172416, Note_on_c, 0, 81, 88
2, 172460, Note_off_c, 0, 81, 64
2, 172464, Note_on_c, 0, 82, 88
2, 172508, Note_off_c, 0, 82, 64
2, 172512, Note_on_c, 0, 81, 88
2, 172556, Note_off_c, 0, 81, 64
2, 172560, Note_on_c, 0, 82, 88
2, 172604, Note_off_c, 0, 82, 64
2, 172608, Note_on_c, 0, 81, 88
2, 172652, Note_off_c, 0, 81, 64
2, 172656, Note_on_c, 0, 82, 88
2, 172700, Note_off_c, 0, 82, 64
2, 172704, Note_on_c, 0, 79, 88
2, 172736, Note_on_c, 0, 81, 88
2, 172748, Note_off_c, 0, 79, 64
2, 172780, Note_off_c, 0, 81, 64
2, 172800, Note_on_c, 0, 69, 88
2, 172844, Note_off_c, 0, 69, 64
2, 172848, Note_on_c, 0, 70, 88
2, 172892, Note_off_c, 0, 70, 64
2, 172896, Note_on_c, 0, 69, 88
2, 172940, Note_off_c, 0, 69, 64
2, 172944, Note_on_c, 0, 70, 88
2, 172988, Note_off_c, 0, 70, 64
2, 172992, Note_on_c, 0, 69, 88
2, 173036, Note_off_c, 0, 69, 64
2, 173040, Note_on_c, 0, 70, 88
2, 173084, Note_off_c, 0, 70, 64
2, 173088, Note_on_c, 0, 69, 88
2, 173132, Note_off_c, 0, 69, 64
2, 173136, Note_on_c, 0, 70, 88
2, 173180, Note_off_c, 0, 70, 64
2, 173184, Note_on_c, 0, 69, 88
2, 173228, Note_off_c, 0, 69, 64
2, 173232, Note_on_c, 0, 70, 88
2, 173276, Note_off_c, 0, 70, 64
2, 173280, Note_on_c, 0, 69, 88
2, 173324, Note_off_c, 0, 69, 64
2, 173328, Note_on_c, 0, 70, 88
2, 173372, Note_off_c, 0, 70, 64
2, 173376, Note_on_c, 0, 69, 88
2, 173420, Note_off_c, 0, 69, 64
2, 173424, Note_on_c, 0, 70, 88
2, 173468, Note_off_c, 0, 70, 64
2, 173472, Note_on_c, 0, 69, 88
2, 173516, Note_off_c, 0, 69, 64
2, 173520, Note_on_c, 0, 70, 88
2, 173564, Note_off_c, 0, 70, 64
2, 173568, Note_on_c, 0, 69, 88
2, 173612, Note_off_c, 0, 69, 64
2, 173616, Note_on_c, 0, 70, 88
2, 173660, Note_off_c, 0, 70, 64
2, 173664, Note_on_c, 0, 69, 88
2, 173708, Note_off_c, 0, 69, 64
2, 173712, Note_on_c, 0, 70, 88
2, 173756, Note_off_c, 0, 70, 64
2, 173760, Note_on_c, 0, 69, 88
2, 173804, Note_off_c, 0, 69, 64
2, 173808, Note_on_c, 0, 70, 88
2, 173852, Note_off_c, 0, 70, 64
2, 173856, Note_on_c, 0, 67, 88
2, 173900, Note_off_c, 0, 67, 64
2, 173904, Note_on_c, 0, 69, 88
2, 173948, Note_off_c, 0, 69, 64
2, 173952, Note_on_c, 0, 65, 67
2, 174044, Note_off_c, 0, 65, 64
2, 174048, Note_on_c, 0, 72, 67
2, 174140, Note_off_c, 0, 72, 64
2, 174144, Note_on_c, 0, 81, 67
2, 174524, Note_off_c, 0, 81, 64
2, 174528, Note_on_c, 0, 82, 67
2, 174716, Note_off_c, 0, 82, 64
2, 174720, Note_on_c, 0, 83, 67
2, 174908, Note_off_c, 0, 83, 64
2, 174912, Note_on_c, 0, 84, 67
2, 175100, Note_off_c, 0, 84, 64
2, 175104, Note_on_c, 0, 86, 67
2, 175292, Note_off_c, 0, 86, 64
2, 175296, Note_on_c, 0, 84, 67
2, 175484, Note_off_c, 0, 84, 64
2, 175488, Note_on_c, 0, 82, 67
2, 175676, Note_off_c, 0, 82, 64
2, 175680, Note_on_c, 0, 81, 67
2, 175868, Note_off_c, 0, 81, 64
2, 175872, Note_on_c, 0, 79, 67
2, 176060, Note_off_c, 0, 79, 64
2, 176064, Note_on_c, 0, 77, 67
2, 176252, Note_off_c, 0, 77, 64
2, 176256, Note_on_c, 0, 81, 67
2, 176256, Note_on_c, 0, 77, 67
2, 176636, Note_off_c, 0, 81, 64
2, 176636, Note_off_c, 0, 77, 64
2, 176640, Note_on_c, 0, 81, 67
2, 176640, Note_on_c, 0, 77, 67
2, 176992, Note_on_c, 0, 78, 67
2, 177020, Note_off_c, 0, 81, 64
2, 177020, Note_off_c, 0, 77, 64
2, 177024, Note_on_c, 0, 82, 67
2, 177372, Note_off_c, 0, 78, 64
2, 177404, Note_off_c, 0, 82, 64
2, 177408, Note_on_c, 0, 81, 67
2, 177408, Note_on_c, 0, 77, 67
2, 177596, Note_off_c, 0, 81, 64
2, 177596, Note_off_c, 0, 77, 64
2, 177600, Note_on_c, 0, 82, 67
2, 177600, Note_on_c, 0, 79, 67
2, 177788, Note_off_c, 0, 82, 64
2, 177788, Note_off_c, 0, 79, 64
2, 177792, Note_on_c, 0, 79, 67
2, 177792, Note_on_c, 0, 72, 67
2, 178556, Note_off_c, 0, 79, 64
2, 178556, Note_off_c, 0, 72, 64
2, 178560, Note_on_c, 0, 69, 60
2, 178560, Note_on_c, 0, 65, 60
2, 178748, Note_off_c, 0, 69, 64
2, 178748, Note_off_c, 0, 65, 64
2, 178752, Note_on_c, 0, 70, 60
2, 178752, Note_on_c, 0, 67, 60
2, 178940, Note_off_c, 0, 70, 64
2, 178940, Note_off_c, 0, 67, 64
2, 178944, Note_on_c, 0, 67, 60
2, 178944, Note_on_c, 0, 60, 60
2, 179708, Note_off_c, 0, 67, 64
2, 179708, Note_off_c, 0, 60, 64
2, 179712, Note_on_c, 0, 80, 73
2, 179712, Note_on_c, 0, 77, 73
2, 180284, Note_off_c, 0, 80, 64
2, 180284, Note_off_c, 0, 77, 64
2, 180288, Note_on_c, 0, 82, 73
2, 180476, Note_off_c, 0, 82, 64
2, 180480, Note_on_c, 0, 83, 73
2, 180668, Note_off_c, 0, 83, 64
2, 180672, Note_on_c, 0, 84, 73
2, 180860, Note_off_c, 0, 84, 64
2, 180864, Note_on_c, 0, 85, 73
2, 181052, Note_off_c, 0, 85, 64
2, 181056, Note_on_c, 0, 84, 73
2, 181244, Note_off_c, 0, 84, 64
2, 181248, Note_on_c, 0, 82, 73
2, 181436, Note_off_c, 0, 82, 64
2, 181440, Note_on_c, 0, 80, 73
2, 181628, Note_off_c, 0, 80, 64
2, 181632, Note_on_c, 0, 79, 73
2, 181820, Note_off_c, 0, 79, 64
2, 181824, Note_on_c, 0, 77, 73
2, 182012, Note_off_c, 0, 77, 64
2, 182016, Note_on_c, 0, 82, 73
2, 182204, Note_off_c, 0, 82, 64
2, 182208, Note_on_c, 0, 80, 73
2, 182396, Note_off_c, 0, 80, 64
2, 182400, Note_on_c, 0, 79, 73
2, 182588, Note_off_c, 0, 79, 64
2, 182592, Note_on_c, 0, 77, 73
2, 182780, Note_off_c, 0, 77, 64
2, 182784, Note_on_c, 0, 75, 73
2, 182972, Note_off_c, 0, 75, 64
2, 182976, Note_on_c, 0, 73, 73
2, 183164, Note_off_c, 0, 73, 64
2, 183168, Note_on_c, 0, 77, 73
2, 183292, Note_off_c, 0, 77, 64
2, 183296, Note_on_c, 0, 75, 73
2, 183420, Note_off_c, 0, 75, 64
2, 183424, Note_on_c, 0, 72, 73
2, 183548, Note_off_c, 0, 72, 64
2, 183552, Note_on_c, 0, 75, 73
2, 183676, Note_off_c, 0, 75, 64
2, 183680, Note_on_c, 0, 73, 73
2, 183804, Note_off_c, 0, 73, 64
2, 183808, Note_on_c, 0, 70, 73
2, 183932, Note_off_c, 0, 70, 64
2, 183936, Note_on_c, 0, 73, 73
2, 184060, Note_off_c, 0, 73, 64
2, 184064, Note_on_c, 0, 72, 73
2, 184188, Note_off_c, 0, 72, 64
2, 184192, Note_on_c, 0, 68, 73
2, 184316, Note_off_c, 0, 68, 64
2, 184320, Note_on_c, 0, 72, 73
2, 184444, Note_off_c, 0, 72, 64
2, 184448, Note_on_c, 0, 70, 73
2, 184572, Note_off_c, 0, 70, 64
2, 184576, Note_on_c, 0, 67, 73
2, 184700, Note_off_c, 0, 67, 64
2, 184704, Note_on_c, 0, 70, 73
2, 184828, Note_off_c, 0, 70, 64
2, 184832, Note_on_c, 0, 68, 73
2, 184956, Note_off_c, 0, 68, 64
2, 184960, Note_on_c, 0, 65, 73
2, 185084, Note_off_c, 0, 65, 64
2, 185088, Note_on_c, 0, 68, 73
2, 185212, Note_off_c, 0, 68, 64
2, 185216, Note_on_c, 0, 65, 73
2, 185340, Note_off_c, 0, 65, 64
2, 185344, Note_on_c, 0, 62, 73
2, 185468, Note_off_c, 0, 62, 64
2, 185472, Note_on_c, 0, 59, 88
2, 187100, Note_off_c, 0, 59, 64
2, 187104, Note_on_c, 0, 62, 88
2, 187196, Note_off_c, 0, 62, 64
2, 187200, Note_on_c, 0, 65, 88
2, 187292, Note_off_c, 0, 65, 64
2, 187296, Note_on_c, 0, 63, 88
2, 187388, Note_off_c, 0, 63, 64
2, 187392, Note_on_c, 0, 62, 88
2, 187484, Note_off_c, 0, 62, 64
2, 187488, Note_on_c, 0, 65, 88
2, 187580, Note_off_c, 0, 65, 64
2, 187584, Note_on_c, 0, 68, 88
2, 187676, Note_off_c, 0, 68, 64
2, 187680, Note_on_c, 0, 67, 88
2, 187772, Note_off_c, 0, 67, 64
2, 187776, Note_on_c, 0, 65, 88
2, 187868, Note_off_c, 0, 65, 64
2, 187872, Note_on_c, 0, 71, 88
2, 187964, Note_off_c, 0, 71, 64
2, 187968, Note_on_c, 0, 74, 88
2, 188060, Note_off_c, 0, 74, 64
2, 188064, Note_on_c, 0, 72, 88
2, 188156, Note_off_c, 0, 72, 64
2, 188160, Note_on_c, 0, 71, 88
2, 188252, Note_off_c, 0, 71, 64
2, 188256, Note_on_c, 0, 74, 88
2, 188348, Note_off_c, 0, 74, 64
2, 188352, Note_on_c, 0, 77, 88
2, 188444, Note_off_c, 0, 77, 64
2, 188448, Note_on_c, 0, 75, 88
2, 188540, Note_off_c, 0, 75, 64
2, 188544, Note_on_c, 0, 74, 88
2, 188636, Note_off_c, 0, 74, 64
2, 188640, Note_on_c, 0, 77, 88
2, 188732, Note_off_c, 0, 77, 64
2, 188736, Note_on_c, 0, 80, 88
2, 188828, Note_off_c, 0, 80, 64
2, 188832, Note_on_c, 0, 79, 88
2, 188924, Note_off_c, 0, 79, 64
2, 188928, Note_on_c, 0, 77, 88
2, 189020, Note_off_c, 0, 77, 64
2, 189024, Note_on_c, 0, 83, 88
2, 189116, Note_off_c, 0, 83, 64
2, 189120, Note_on_c, 0, 86, 88
2, 189212, Note_off_c, 0, 86, 64
2, 189216, Note_on_c, 0, 88, 88
2, 189308, Note_off_c, 0, 88, 64
2, 189312, Note_on_c, 0, 89, 88
2, 189356, Note_off_c, 0, 89, 64
2, 189360, Note_on_c, 0, 91, 88
2, 189404, Note_off_c, 0, 91, 64
2, 189408, Note_on_c, 0, 89, 88
2, 189452, Note_off_c, 0, 89, 64
2, 189456, Note_on_c, 0, 91, 88
2, 189500, Note_off_c, 0, 91, 64
2, 189504, Note_on_c, 0, 89, 88
2, 189548, Note_off_c, 0, 89, 64
2, 189552, Note_on_c, 0, 91, 88
2, 189596, Note_off_c, 0, 91, 64
2, 189600, Note_on_c, 0, 89, 88
2, 189644, Note_off_c, 0, 89, 64
2, 189648, Note_on_c, 0, 91, 88
2, 189692, Note_off_c, 0, 91, 64
2, 189696, Note_on_c, 0, 90, 88
2, 189740, Note_off_c, 0, 90, 64
2, 189744, Note_on_c, 0, 91, 88
2, 189788, Note_off_c, 0, 91, 64
2, 189792, Note_on_c, 0, 90, 88
2, 189836, Note_off_c, 0, 90, 64
2, 189840, Note_on_c, 0, 91, 88
2, 189884, Note_off_c, 0, 91, 64
2, 189888, Note_on_c, 0, 90, 88
2, 189932, Note_off_c, 0, 90, 64
2, 189936, Note_on_c, 0, 91, 88
2, 189980, Note_off_c, 0, 91, 64
2, 189984, Note_on_c, 0, 90, 88
2, 190028, Note_off_c, 0, 90, 64
2, 190032, Note_on_c, 0, 91, 88
2, 190076, Note_off_c, 0, 91, 64
2, 190080, Note_on_c, 0, 91, 88
2, 190124, Note_off_c, 0, 91, 64
2, 190128, Note_on_c, 0, 93, 88
2, 190172, Note_off_c, 0, 93, 64
2, 190176, Note_on_c, 0, 91, 88
2, 190220, Note_off_c, 0, 91, 64
2, 190224, Note_on_c, 0, 93, 88
2, 190268, Note_off_c, 0, 93, 64
2, 190272, Note_on_c, 0, 91, 88
2, 190316, Note_off_c, 0, 91, 64
2, 190320, Note_on_c, 0, 93, 88
2, 190364, Note_off_c, 0, 93, 64
2, 190368, Note_on_c, 0, 91, 88
2, 190412, Note_off_c, 0, 91, 64
2, 190416, Note_on_c, 0, 93, 88
2, 190460, Note_off_c, 0, 93, 64
2, 190464, Note_on_c, 0, 91, 88
2, 190508, Note_off_c, 0, 91, 64
2, 190512, Note_on_c, 0, 93, 88
2, 190556, Note_off_c, 0, 93, 64
2, 190560, Note_on_c, 0, 91, 88
2, 190604, Note_off_c, 0, 91, 64
2, 190608, Note_on_c, 0, 93, 88
2, 190652, Note_off_c, 0, 93, 64
2, 190656, Note_on_c, 0, 91, 88
2, 190700, Note_off_c, 0, 91, 64
2, 190704, Note_on_c, 0, 93, 88
2, 190748, Note_off_c, 0, 93, 64
2, 190752, Note_on_c, 0, 91, 88
2, 190796, Note_off_c, 0, 91, 64
2, 190800, Note_on_c, 0, 93, 88
2, 190844, Note_off_c, 0, 93, 64
2, 190848, Note_on_c, 0, 91, 88
2, 190892, Note_off_c, 0, 91, 64
2, 190896, Note_on_c, 0, 93, 88
2, 190940, Note_off_c, 0, 93, 64
2, 190944, Note_on_c, 0, 91, 88
2, 190988, Note_off_c, 0, 91, 64
2, 190992, Note_on_c, 0, 93, 88
2, 191036, Note_off_c, 0, 93, 64
2, 191040, Note_on_c, 0, 91, 88
2, 191084, Note_off_c, 0, 91, 64
2, 191088, Note_on_c, 0, 93, 88
2, 191132, Note_off_c, 0, 93, 64
2, 191136, Note_on_c, 0, 91, 88
2, 191180, Note_off_c, 0, 91, 64
2, 191184, Note_on_c, 0, 93, 88
2, 191228, Note_off_c, 0, 93, 64
2, 191232, Note_on_c, 0, 91, 88
2, 191276, Note_off_c, 0, 91, 64
2, 191280, Note_on_c, 0, 93, 88
2, 191324, Note_off_c, 0, 93, 64
2, 191328, Note_on_c, 0, 91, 88
2, 191372, Note_off_c, 0, 91, 64
2, 191376, Note_on_c, 0, 93, 88
2, 191420, Note_off_c, 0, 93, 64
2, 191424, Note_on_c, 0, 91, 88
2, 191468, Note_off_c, 0, 91, 64
2, 191472, Note_on_c, 0, 93, 88
2, 191516, Note_off_c, 0, 93, 64
2, 191520, Note_on_c, 0, 91, 88
2, 191564, Note_off_c, 0, 91, 64
2, 191568, Note_on_c, 0, 93, 88
2, 191612, Note_off_c, 0, 93, 64
2, 191616, Note_on_c, 0, 91, 88
2, 191660, Note_off_c, 0, 91, 64
2, 191664, Note_on_c, 0, 93, 88
2, 191708, Note_off_c, 0, 93, 64
2, 191712, Note_on_c, 0, 90, 88
2, 191756, Note_off_c, 0, 90, 64
2, 191760, Note_on_c, 0, 91, 88
2, 191804, Note_off_c, 0, 91, 64
2, 191808, Note_on_c, 0, 89, 88
2, 191868, Note_off_c, 0, 89, 64
2, 191872, Note_on_c, 0, 86, 88
2, 191932, Note_off_c, 0, 86, 64
2, 191936, Note_on_c, 0, 83, 88
2, 191996, Note_off_c, 0, 83, 64
2, 192000, Note_on_c, 0, 79, 88
2, 192092, Note_off_c, 0, 79, 64
2, 192096, Note_on_c, 0, 77, 88
2, 192188, Note_off_c, 0, 77, 64
2, 192192, Note_on_c, 0, 74, 88
2, 192284, Note_off_c, 0, 74, 64
2, 192288, Note_on_c, 0, 71, 88
2, 192380, Note_off_c, 0, 71, 64
2, 192384, Note_on_c, 0, 67, 88
2, 192572, Note_off_c, 0, 67, 64
2, 192576, Note_on_c, 0, 67, 88
2, 192576, Note_on_c, 0, 55, 88
2, 192764, Note_off_c, 0, 55, 64
2, 192768, Note_on_c, 0, 56, 88
2, 192956, Note_off_c, 0, 56, 64
2, 192960, Note_on_c, 0, 57, 88
2, 193148, Note_off_c, 0, 57, 64
2, 193152, Note_on_c, 0, 58, 88
2, 193340, Note_off_c, 0, 58, 64
2, 193344, Note_on_c, 0, 59, 88
2, 193532, Note_off_c, 0, 67, 64
2, 193532, Note_off_c, 0, 59, 64
2, 193536, Note_on_c, 0, 60, 88
2, 193628, Note_off_c, 0, 60, 64
2, 193632, Note_on_c, 0, 67, 88
2, 193724, Note_off_c, 0, 67, 64
2, 193728, Note_on_c, 0, 72, 73
2, 193728, Note_on_c, 0, 64, 73
2, 193916, Note_off_c, 0, 64, 64
2, 193920, Note_on_c, 0, 67, 73
2, 194108, Note_off_c, 0, 67, 64
2, 194112, Note_on_c, 0, 64, 73
2, 194300, Note_off_c, 0, 64, 64
2, 194304, Note_on_c, 0, 67, 73
2, 194492, Note_off_c, 0, 67, 64
2, 194496, Note_on_c, 0, 64, 73
2, 194684, Note_off_c, 0, 72, 64
2, 194684, Note_off_c, 0, 64, 64
2, 194688, Note_on_c, 0, 76, 73
2, 194880, Note_on_c, 0, 67, 73
2, 195068, Note_off_c, 0, 67, 64
2, 195072, Note_on_c, 0, 70, 73
2, 195260, Note_off_c, 0, 70, 64
2, 195264, Note_on_c, 0, 67, 73
2, 195452, Note_off_c, 0, 67, 64
2, 195456, Note_on_c, 0, 70, 73
2, 195644, Note_off_c, 0, 70, 64
2, 195648, Note_on_c, 0, 67, 73
2, 195836, Note_off_c, 0, 76, 64
2, 195836, Note_off_c, 0, 67, 64
2, 195840, Note_on_c, 0, 79, 73
2, 196032, Note_on_c, 0, 70, 73
2, 196220, Note_off_c, 0, 70, 64
2, 196224, Note_on_c, 0, 73, 73
2, 196400, Note_on_c, 0, 70, 73
2, 196412, Note_off_c, 0, 73, 64
2, 196604, Note_off_c, 0, 79, 64
2, 196608, Note_on_c, 0, 80, 73
2, 196700, Note_off_c, 0, 80, 64
2, 196704, Note_on_c, 0, 79, 73
2, 196780, Note_off_c, 0, 70, 64
2, 196796, Note_off_c, 0, 79, 64
2, 196800, Note_on_c, 0, 77, 73
2, 196892, Note_off_c, 0, 77, 64
2, 196896, Note_on_c, 0, 76, 73
2, 196988, Note_off_c, 0, 76, 64
2, 196992, Note_on_c, 0, 76, 73
2, 197180, Note_off_c, 0, 76, 64
2, 197184, Note_on_c, 0, 77, 73
2, 197372, Note_off_c, 0, 77, 64
2, 197376, Note_on_c, 0, 72, 73
2, 197568, Note_on_c, 0, 65, 73
2, 197756, Note_off_c, 0, 65, 64
2, 197760, Note_on_c, 0, 68, 73
2, 197948, Note_off_c, 0, 68, 64
2, 197952, Note_on_c, 0, 65, 73
2, 198140, Note_off_c, 0, 72, 64
2, 198140, Note_off_c, 0, 65, 64
2, 198144, Note_on_c, 0, 73, 73
2, 198272, Note_on_c, 0, 64, 73
2, 198396, Note_off_c, 0, 64, 64
2, 198400, Note_on_c, 0, 69, 73
2, 198524, Note_off_c, 0, 69, 64
2, 198528, Note_on_c, 0, 64, 73
2, 198652, Note_off_c, 0, 64, 64
2, 198656, Note_on_c, 0, 69, 73
2, 198780, Note_off_c, 0, 69, 64
2, 198784, Note_on_c, 0, 64, 73
2, 198908, Note_off_c, 0, 64, 64
2, 198912, Note_on_c, 0, 69, 73
2, 199036, Note_off_c, 0, 69, 64
2, 199040, Note_on_c, 0, 64, 73
2, 199164, Note_off_c, 0, 64, 64
2, 199168, Note_on_c, 0, 69, 73
2, 199292, Note_off_c, 0, 73, 64
2, 199292, Note_off_c, 0, 69, 64
2, 199296, Note_on_c, 0, 76, 73
2, 199424, Note_on_c, 0, 69, 73
2, 199548, Note_off_c, 0, 69, 64
2, 199552, Note_on_c, 0, 73, 73
2, 199676, Note_off_c, 0, 73, 64
2, 199680, Note_on_c, 0, 69, 73
2, 199804, Note_off_c, 0, 69, 64
2, 199808, Note_on_c, 0, 73, 73
2, 199932, Note_off_c, 0, 73, 64
2, 199936, Note_on_c, 0, 69, 73
2, 200060, Note_off_c, 0, 69, 64
2, 200064, Note_on_c, 0, 73, 73
2, 200188, Note_off_c, 0, 73, 64
2, 200192, Note_on_c, 0, 69, 73
2, 200316, Note_off_c, 0, 69, 64
2, 200320, Note_on_c, 0, 73, 73
2, 200444, Note_off_c, 0, 76, 64
2, 200444, Note_off_c, 0, 73, 64
2, 200448, Note_on_c, 0, 79, 73
2, 200448, Note_on_c, 0, 69, 73
2, 201212, Note_off_c, 0, 79, 64
2, 201212, Note_off_c, 0, 69, 64
2, 201216, Note_on_c, 0, 78, 73
2, 201308, Note_off_c, 0, 78, 64
2, 201312, Note_on_c, 0, 76, 73
2, 201404, Note_off_c, 0, 76, 64
2, 201408, Note_on_c, 0, 74, 73
2, 201500, Note_off_c, 0, 74, 64
2, 201504, Note_on_c, 0, 73, 73
2, 201596, Note_off_c, 0, 73, 64
2, 201600, Note_on_c, 0, 83, 73
2, 201600, Note_on_c, 0, 73, 73
2, 201980, Note_off_c, 0, 83, 64
2, 201980, Note_off_c, 0, 73, 64
2, 201984, Note_on_c, 0, 81, 73
2, 202076, Note_off_c, 0, 81, 64
2, 202080, Note_on_c, 0, 79, 73
2, 202172, Note_off_c, 0, 79, 64
2, 202176, Note_on_c, 0, 78, 73
2, 202268, Note_off_c, 0, 78, 64
2, 202272, Note_on_c, 0, 76, 73
2, 202364, Note_off_c, 0, 76, 64
2, 202368, Note_on_c, 0, 73, 73
2, 202412, Note_off_c, 0, 73, 64
2, 202416, Note_on_c, 0, 88, 73
2, 202752, Note_on_c, 0, 86, 73
2, 202756, Note_off_c, 0, 88, 64
2, 202844, Note_off_c, 0, 86, 64
2, 202848, Note_on_c, 0, 85, 73
2, 202940, Note_off_c, 0, 85, 64
2, 202944, Note_on_c, 0, 83, 73
2, 203036, Note_off_c, 0, 83, 64
2, 203040, Note_on_c, 0, 81, 73
2, 203132, Note_off_c, 0, 81, 64
2, 203136, Note_on_c, 0, 69, 88
2, 203180, Note_off_c, 0, 69, 64
2, 203184, Note_on_c, 0, 91, 88
2, 203228, Note_off_c, 0, 91, 64
2, 203232, Note_on_c, 0, 88, 88
2, 203324, Note_off_c, 0, 88, 64
2, 203328, Note_on_c, 0, 91, 88
2, 203420, Note_off_c, 0, 91, 64
2, 203424, Note_on_c, 0, 88, 88
2, 203516, Note_off_c, 0, 88, 64
2, 203520, Note_on_c, 0, 85, 88
2, 203612, Note_off_c, 0, 85, 64
2, 203616, Note_on_c, 0, 88, 88
2, 203708, Note_off_c, 0, 88, 64
2, 203712, Note_on_c, 0, 85, 88
2, 203804, Note_off_c, 0, 85, 64
2, 203808, Note_on_c, 0, 88, 88
2, 203900, Note_off_c, 0, 88, 64
2, 203904, Note_on_c, 0, 81, 88
2, 203996, Note_off_c, 0, 81, 64
2, 204000, Note_on_c, 0, 85, 88
2, 204092, Note_off_c, 0, 85, 64
2, 204096, Note_on_c, 0, 81, 88
2, 204188, Note_off_c, 0, 81, 64
2, 204192, Note_on_c, 0, 85, 88
2, 204284, Note_off_c, 0, 85, 64
2, 204288, Note_on_c, 0, 79, 88
2, 204380, Note_off_c, 0, 79, 64
2, 204384, Note_on_c, 0, 81, 88
2, 204476, Note_off_c, 0, 81, 64
2, 204480, Note_on_c, 0, 76, 88
2, 204572, Note_off_c, 0, 76, 64
2, 204576, Note_on_c, 0, 79, 88
2, 204668, Note_off_c, 0, 79, 64
2, 204672, Note_on_c, 0, 73, 88
2, 204764, Note_off_c, 0, 73, 64
2, 204768, Note_on_c, 0, 76, 88
2, 204860, Note_off_c, 0, 76, 64
2, 204864, Note_on_c, 0, 69, 88
2, 204956, Note_off_c, 0, 69, 64
2, 204960, Note_on_c, 0, 73, 88
2, 205052, Note_off_c, 0, 73, 64
2, 205056, Note_on_c, 0, 67, 88
2, 205148, Note_off_c, 0, 67, 64
2, 205152, Note_on_c, 0, 69, 88
2, 205244, Note_off_c, 0, 69, 64
2, 205248, Note_on_c, 0, 64, 88
2, 205340, Note_off_c, 0, 64, 64
2, 205344, Note_on_c, 0, 67, 88
2, 205436, Note_off_c, 0, 67, 64
2, 205440, Note_on_c, 0, 61, 88
2, 206012, Note_off_c, 0, 61, 64
2, 206016, Note_on_c, 0, 64, 88
2, 206204, Note_off_c, 0, 64, 64
2, 206208, Note_on_c, 0, 69, 88
2, 206396, Note_off_c, 0, 69, 64
2, 206400, Note_on_c, 0, 71, 88
2, 206588, Note_off_c, 0, 71, 64
2, 206592, Note_on_c, 0, 73, 88
2, 206972, Note_off_c, 0, 73, 64
2, 206976, Note_on_c, 0, 69, 88
2, 207344, Note_on_c, 0, 73, 88
2, 207356, Note_off_c, 0, 69, 64
2, 207724, Note_off_c, 0, 73, 64
2, 207744, Note_on_c, 0, 74, 88
2, 208124, Note_off_c, 0, 74, 64
2, 208128, Note_on_c, 0, 76, 88
2, 208892, Note_off_c, 0, 76, 64
2, 208896, Note_on_c, 0, 77, 88
2, 208940, Note_off_c, 0, 77, 64
2, 208944, Note_on_c, 0, 78, 88
2, 208988, Note_off_c, 0, 78, 64
2, 208992, Note_on_c, 0, 77, 88
2, 209036, Note_off_c, 0, 77, 64
2, 209040, Note_on_c, 0, 78, 88
2, 209084, Note_off_c, 0, 78, 64
2, 209088, Note_on_c, 0, 77, 88
2, 209132, Note_off_c, 0, 77, 64
2, 209136, Note_on_c, 0, 78, 88
2, 209180, Note_off_c, 0, 78, 64
2, 209184, Note_on_c, 0, 77, 88
2, 209228, Note_off_c, 0, 77, 64
2, 209232, Note_on_c, 0, 78, 88
2, 209276, Note_off_c, 0, 78, 64
2, 209280, Note_on_c, 0, 77, 88
2, 209324, Note_off_c, 0, 77, 64
2, 209328, Note_on_c, 0, 78, 88
2, 209372, Note_off_c, 0, 78, 64
2, 209376, Note_on_c, 0, 77, 88
2, 209420, Note_off_c, 0, 77, 64
2, 209424, Note_on_c, 0, 78, 88
2, 209468, Note_off_c, 0, 78, 64
2, 209472, Note_on_c, 0, 77, 88
2, 209516, Note_off_c, 0, 77, 64
2, 209520, Note_on_c, 0, 78, 88
2, 209564, Note_off_c, 0, 78, 64
2, 209568, Note_on_c, 0, 77, 88
2, 209612, Note_off_c, 0, 77, 64
2, 209616, Note_on_c, 0, 78, 88
2, 209660, Note_off_c, 0, 78, 64
2, 209664, Note_on_c, 0, 77, 88
2, 209708, Note_off_c, 0, 77, 64
2, 209712, Note_on_c, 0, 78, 88
2, 209756, Note_off_c, 0, 78, 64
2, 209760, Note_on_c, 0, 77, 85
2, 209804, Note_off_c, 0, 77, 64
2, 209808, Note_on_c, 0, 78, 88
2, 209852, Note_off_c, 0, 78, 64
2, 209856, Note_on_c, 0, 74, 88
2, 209948, Note_off_c, 0, 74, 64
2, 209952, Note_on_c, 0, 77, 88
2, 210044, Note_off_c, 0, 77, 64
2, 210048, Note_on_c, 0, 78, 67
2, 210620, Note_off_c, 0, 78, 64
2, 210624, Note_on_c, 0, 79, 67
2, 210812, Note_off_c, 0, 79, 64
2, 210816, Note_on_c, 0, 80, 67
2, 211004, Note_off_c, 0, 80, 64
2, 211008, Note_on_c, 0, 81, 67
2, 211196, Note_off_c, 0, 81, 64
2, 211200, Note_on_c, 0, 83, 67
2, 211388, Note_off_c, 0, 83, 64
2, 211392, Note_on_c, 0, 81, 67
2, 211580, Note_off_c, 0, 81, 64
2, 211584, Note_on_c, 0, 79, 67
2, 211772, Note_off_c, 0, 79, 64
2, 211776, Note_on_c, 0, 78, 67
2, 211964, Note_off_c, 0, 78, 64
2, 211968, Note_on_c, 0, 76, 67
2, 212156, Note_off_c, 0, 76, 64
2, 212160, Note_on_c, 0, 74, 67
2, 212348, Note_off_c, 0, 74, 64
2, 212352, Note_on_c, 0, 76, 67
2, 212732, Note_off_c, 0, 76, 64
2, 212736, Note_on_c, 0, 76, 67
2, 213104, Note_on_c, 0, 78, 67
2, 213116, Note_off_c, 0, 76, 64
2, 213484, Note_off_c, 0, 78, 64
2, 213504, Note_on_c, 0, 78, 67
2, 213788, Note_off_c, 0, 78, 64
2, 213792, Note_on_c, 0, 79, 67
2, 213884, Note_off_c, 0, 79, 64
2, 213888, Note_on_c, 0, 76, 67
2, 214268, Note_off_c, 0, 76, 64
2, 214656, Note_on_c, 0, 74, 67
2, 214844, Note_off_c, 0, 74, 64
2, 214848, Note_on_c, 0, 76, 67
2, 215036, Note_off_c, 0, 76, 64
2, 215040, Note_on_c, 0, 78, 67
2, 215228, Note_off_c, 0, 78, 64
2, 215232, Note_on_c, 0, 74, 67
2, 215420, Note_off_c, 0, 74, 64
2, 215424, Note_on_c, 0, 73, 67
2, 215612, Note_off_c, 0, 73, 64
2, 215616, Note_on_c, 0, 69, 67
2, 215804, Note_off_c, 0, 69, 64
2, 215808, Note_on_c, 0, 74, 67
2, 215996, Note_off_c, 0, 74, 64
2, 216000, Note_on_c, 0, 76, 67
2, 216188, Note_off_c, 0, 76, 64
2, 216192, Note_on_c, 0, 78, 67
2, 216380, Note_off_c, 0, 78, 64
2, 216384, Note_on_c, 0, 74, 67
2, 216572, Note_off_c, 0, 74, 64
2, 216576, Note_on_c, 0, 73, 67
2, 216764, Note_off_c, 0, 73, 64
2, 216768, Note_on_c, 0, 69, 67
2, 216956, Note_off_c, 0, 69, 64
2, 216960, Note_on_c, 0, 74, 67
2, 217148, Note_off_c, 0, 74, 64
2, 217152, Note_on_c, 0, 78, 67
2, 217340, Note_off_c, 0, 78, 64
2, 217344, Note_on_c, 0, 81, 67
2, 217532, Note_off_c, 0, 81, 64
2, 217536, Note_on_c, 0, 78, 67
2, 217724, Note_off_c, 0, 78, 64
2, 217728, Note_on_c, 0, 83, 67
2, 217916, Note_off_c, 0, 83, 64
2, 217920, Note_on_c, 0, 79, 67
2, 218108, Note_off_c, 0, 79, 64
2, 218112, Note_on_c, 0, 78, 67
2, 218876, Note_off_c, 0, 78, 64
2, 218880, Note_on_c, 0, 76, 67
2, 219260, Note_off_c, 0, 76, 64
2, 223872, Note_on_c, 0, 78, 88
2, 223996, Note_off_c, 0, 78, 64
2, 224000, Note_on_c, 0, 81, 88
2, 224124, Note_off_c, 0, 81, 64
2, 224128, Note_on_c, 0, 81, 88
2, 224252, Note_off_c, 0, 81, 64
2, 224256, Note_on_c, 0, 86, 88
2, 224380, Note_off_c, 0, 86, 64
2, 224384, Note_on_c, 0, 81, 88
2, 224508, Note_off_c, 0, 81, 64
2, 224512, Note_on_c, 0, 81, 88
2, 224636, Note_off_c, 0, 81, 64
2, 224640, Note_on_c, 0, 78, 88
2, 224764, Note_off_c, 0, 78, 64
2, 224768, Note_on_c, 0, 81, 88
2, 224892, Note_off_c, 0, 81, 64
2, 224896, Note_on_c, 0, 81, 88
2, 225020, Note_off_c, 0, 81, 64
2, 225024, Note_on_c, 0, 76, 88
2, 225148, Note_off_c, 0, 76, 64
2, 225152, Note_on_c, 0, 81, 88
2, 225276, Note_off_c, 0, 81, 64
2, 225280, Note_on_c, 0, 81, 88
2, 225404, Note_off_c, 0, 81, 64
2, 225408, Note_on_c, 0, 88, 88
2, 225532, Note_off_c, 0, 88, 64
2, 225536, Note_on_c, 0, 81, 88
2, 225660, Note_off_c, 0, 81, 64
2, 225664, Note_on_c, 0, 81, 88
2, 225788, Note_off_c, 0, 81, 64
2, 225792, Note_on_c, 0, 79, 88
2, 225916, Note_off_c, 0, 79, 64
2, 225920, Note_on_c, 0, 81, 88
2, 226044, Note_off_c, 0, 81, 64
2, 226048, Note_on_c, 0, 81, 88
2, 226172, Note_off_c, 0, 81, 64
2, 226176, Note_on_c, 0, 78, 67
2, 226300, Note_off_c, 0, 78, 64
2, 226304, Note_on_c, 0, 81, 67
2, 226428, Note_off_c, 0, 81, 64
2, 226432, Note_on_c, 0, 81, 67
2, 226556, Note_off_c, 0, 81, 64
2, 226560, Note_on_c, 0, 86, 67
2, 226684, Note_off_c, 0, 86, 64
2, 226688, Note_on_c, 0, 81, 67
2, 226812, Note_off_c, 0, 81, 64
2, 226816, Note_on_c, 0, 81, 67
2, 226940, Note_off_c, 0, 81, 64
2, 226944, Note_on_c, 0, 78, 67
2, 227068, Note_off_c, 0, 78, 64
2, 227072, Note_on_c, 0, 81, 67
2, 227196, Note_off_c, 0, 81, 64
2, 227200, Note_on_c, 0, 81, 67
2, 227324, Note_off_c, 0, 81, 64
2, 227328, Note_on_c, 0, 76, 67
2, 227452, Note_off_c, 0, 76, 64
2, 227456, Note_on_c, 0, 81, 67
2, 227580, Note_off_c, 0, 81, 64
2, 227584, Note_on_c, 0, 81, 67
2, 227708, Note_off_c, 0, 81, 64
2, 227712, Note_on_c, 0, 88, 67
2, 227836, Note_off_c, 0, 88, 64
2, 227840, Note_on_c, 0, 81, 67
2, 227964, Note_off_c, 0, 81, 64
2, 227968, Note_on_c, 0, 81, 67
2, 228092, Note_off_c, 0, 81, 64
2, 228096, Note_on_c, 0, 79, 67
2, 228220, Note_off_c, 0, 79, 64
2, 228224, Note_on_c, 0, 81, 67
2, 228348, Note_off_c, 0, 81, 64
2, 228352, Note_on_c, 0, 81, 67
2, 228476, Note_off_c, 0, 81, 64
2, 228480, Note_on_c, 0, 78, 67
2, 229052, Note_off_c, 0, 78, 64
2, 229056, Note_on_c, 0, 79, 67
2, 229244, Note_off_c, 0, 79, 64
2, 229248, Note_on_c, 0, 80, 67
2, 229436, Note_off_c, 0, 80, 64
2, 229440, Note_on_c, 0, 81, 67
2, 229628, Note_off_c, 0, 81, 64
2, 229632, Note_on_c, 0, 83, 67
2, 229820, Note_off_c, 0, 83, 64
2, 229824, Note_on_c, 0, 81, 67
2, 230012, Note_off_c, 0, 81, 64
2, 230016, Note_on_c, 0, 79, 67
2, 230204, Note_off_c, 0, 79, 64
2, 230208, Note_on_c, 0, 78, 67
2, 230396, Note_off_c, 0, 78, 64
2, 230400, Note_on_c, 0, 76, 67
2, 230588, Note_off_c, 0, 76, 64
2, 230592, Note_on_c, 0, 74, 67
2, 230780, Note_off_c, 0, 74, 64
2, 230784, Note_on_c, 0, 76, 67
2, 231068, Note_off_c, 0, 76, 64
2, 231072, Note_on_c, 0, 78, 73
2, 231116, Note_off_c, 0, 78, 64
2, 231120, Note_on_c, 0, 79, 73
2, 231164, Note_off_c, 0, 79, 64
2, 231168, Note_on_c, 0, 78, 67
2, 231548, Note_off_c, 0, 78, 64
2, 231552, Note_on_c, 0, 76, 67
2, 231932, Note_off_c, 0, 76, 64
2, 231936, Note_on_c, 0, 78, 68
2, 232508, Note_off_c, 0, 78, 64
2, 232512, Note_on_c, 0, 79, 71
2, 232700, Note_off_c, 0, 79, 64
2, 232704, Note_on_c, 0, 80, 72
2, 232892, Note_off_c, 0, 80, 64
2, 232896, Note_on_c, 0, 81, 72
2, 233084, Note_off_c, 0, 81, 64
2, 233088, Note_on_c, 0, 83, 73
2, 233276, Note_off_c, 0, 83, 64
2, 233280, Note_on_c, 0, 81, 74
2, 233468, Note_off_c, 0, 81, 64
2, 233472, Note_on_c, 0, 79, 77
2, 233660, Note_off_c, 0, 79, 64
2, 233664, Note_on_c, 0, 78, 78
2, 233852, Note_off_c, 0, 78, 64
2, 233856, Note_on_c, 0, 76, 78
2, 234044, Note_off_c, 0, 76, 64
2, 234048, Note_on_c, 0, 74, 79
2, 234236, Note_off_c, 0, 74, 64
2, 234240, Note_on_c, 0, 86, 80
2, 234364, Note_off_c, 0, 86, 64
2, 234368, Note_on_c, 0, 83, 80
2, 234492, Note_off_c, 0, 83, 64
2, 234496, Note_on_c, 0, 79, 82
2, 234620, Note_off_c, 0, 79, 64
2, 234624, Note_on_c, 0, 78, 82
2, 235004, Note_off_c, 0, 78, 64
2, 235008, Note_on_c, 0, 76, 84
2, 235052, Note_off_c, 0, 76, 64
2, 235056, Note_on_c, 0, 78, 84
2, 235100, Note_off_c, 0, 78, 64
2, 235104, Note_on_c, 0, 76, 84
2, 235148, Note_off_c, 0, 76, 64
2, 235152, Note_on_c, 0, 78, 85
2, 235196, Note_off_c, 0, 78, 64
2, 235200, Note_on_c, 0, 76, 85
2, 235244, Note_off_c, 0, 76, 64
2, 235248, Note_on_c, 0, 78, 85
2, 235292, Note_off_c, 0, 78, 64
2, 235296, Note_on_c, 0, 74, 85
2, 235340, Note_off_c, 0, 74, 64
2, 235344, Note_on_c, 0, 76, 85
2, 235388, Note_off_c, 0, 76, 64
2, 235392, Note_on_c, 0, 86, 88
2, 235436, Note_off_c, 0, 86, 64
2, 235440, Note_on_c, 0, 88, 88
2, 235484, Note_off_c, 0, 88, 64
2, 235488, Note_on_c, 0, 85, 88
2, 235580, Note_off_c, 0, 85, 64
2, 235584, Note_on_c, 0, 86, 88
2, 235676, Note_off_c, 0, 86, 64
2, 235680, Note_on_c, 0, 88, 88
2, 235772, Note_off_c, 0, 88, 64
2, 235776, Note_on_c, 0, 90, 82
2, 236156, Note_off_c, 0, 90, 64
2, 236544, Note_on_c, 0, 83, 88
2, 236588, Note_off_c, 0, 83, 64
2, 236592, Note_on_c, 0, 85, 88
2, 236636, Note_off_c, 0, 85, 64
2, 236640, Note_on_c, 0, 81, 88
2, 236732, Note_off_c, 0, 81, 64
2, 236736, Note_on_c, 0, 83, 88
2, 236828, Note_off_c, 0, 83, 64
2, 236832, Note_on_c, 0, 85, 88
2, 236924, Note_off_c, 0, 85, 64
2, 236928, Note_on_c, 0, 86, 82
2, 237308, Note_off_c, 0, 86, 64
2, 237696, Note_on_c, 0, 81, 88
2, 238268, Note_off_c, 0, 81, 64
2, 238272, Note_on_c, 0, 83, 88
2, 238364, Note_off_c, 0, 83, 64
2, 238368, Note_on_c, 0, 81, 88
2, 238460, Note_off_c, 0, 81, 64
2, 238464, Note_on_c, 0, 79, 88
2, 238556, Note_off_c, 0, 79, 64
2, 238560, Note_on_c, 0, 78, 88
2, 238652, Note_off_c, 0, 78, 64
2, 238656, Note_on_c, 0, 76, 88
2, 238748, Note_off_c, 0, 76, 64
2, 238752, Note_on_c, 0, 74, 88
2, 238844, Note_off_c, 0, 74, 64
2, 238848, Note_on_c, 0, 76, 88
2, 238892, Note_off_c, 0, 76, 64
2, 238896, Note_on_c, 0, 78, 88
2, 238940, Note_off_c, 0, 78, 64
2, 238944, Note_on_c, 0, 76, 88
2, 238988, Note_off_c, 0, 76, 64
2, 238992, Note_on_c, 0, 78, 88
2, 239036, Note_off_c, 0, 78, 64
2, 239040, Note_on_c, 0, 76, 88
2, 239084, Note_off_c, 0, 76, 64
2, 239088, Note_on_c, 0, 78, 88
2, 239132, Note_off_c, 0, 78, 64
2, 239136, Note_on_c, 0, 76, 88
2, 239180, Note_off_c, 0, 76, 64
2, 239184, Note_on_c, 0, 78, 88
2, 239228, Note_off_c, 0, 78, 64
2, 239232, Note_on_c, 0, 76, 88
2, 239276, Note_off_c, 0, 76, 64
2, 239280, Note_on_c, 0, 78, 88
2, 239324, Note_off_c, 0, 78, 64
2, 239328, Note_on_c, 0, 76, 88
2, 239372, Note_off_c, 0, 76, 64
2, 239376, Note_on_c, 0, 78, 88
2, 239420, Note_off_c, 0, 78, 64
2, 239424, Note_on_c, 0, 76, 88
2, 239468, Note_off_c, 0, 76, 64
2, 239472, Note_on_c, 0, 78, 88
2, 239516, Note_off_c, 0, 78, 64
2, 239520, Note_on_c, 0, 76, 88
2, 239564, Note_off_c, 0, 76, 64
2, 239568, Note_on_c, 0, 78, 88
2, 239612, Note_off_c, 0, 78, 64
2, 239616, Note_on_c, 0, 76, 88
2, 239660, Note_off_c, 0, 76, 64
2, 239664, Note_on_c, 0, 78, 88
2, 239708, Note_off_c, 0, 78, 64
2, 239712, Note_on_c, 0, 76, 88
2, 239756, Note_off_c, 0, 76, 64
2, 239760, Note_on_c, 0, 78, 88
2, 239804, Note_off_c, 0, 78, 64
2, 239808, Note_on_c, 0, 74, 88
2, 239900, Note_off_c, 0, 74, 64
2, 239904, Note_on_c, 0, 76, 88
2, 239996, Note_off_c, 0, 76, 64
2, 240000, Note_on_c, 0, 74, 88
2, 240380, Note_off_c, 0, 74, 64
2, 240380, End_track
3, 0, Start_track
3, 0, Title_t, "Concerto  #2"
3, 0, Control_c, 1, 0, 0
3, 0, Program_c, 1, 0
3, 0, Control_c, 1, 7, 94
3, 0, Control_c, 1, 10, 45
3, 0, Control_c, 1, 91, 56
3, 0, Control_c, 1, 93, 36
3, 0, Key_signature, 2, "major"
3, 0, Control_c, 1, 121, 127
3, 96, Pitch_bend_c, 1, 0
3, 192, Control_c, 1, 10, 43
3, 384, Control_c, 1, 91, 63
3, 480, Control_c, 1, 93, 40
3, 576, Program_c, 1, 0
3, 1152, Note_on_c, 1, 62, 61
3, 1724, Note_off_c, 1, 62, 64
3, 1728, Note_on_c, 1, 64, 61
3, 1916, Note_off_c, 1, 64, 64
3, 1920, Note_on_c, 1, 65, 61
3, 2108, Note_off_c, 1, 65, 64
3, 2112, Note_on_c, 1, 66, 61
3, 2300, Note_off_c, 1, 66, 64
3, 2304, Note_on_c, 1, 66, 61
3, 2684, Note_off_c, 1, 66, 64
3, 3456, Note_on_c, 1, 61, 61
3, 3456, Note_on_c, 1, 57, 61
3, 3836, Note_off_c, 1, 61, 64
3, 3836, Note_off_c, 1, 57, 64
3, 3840, Note_on_c, 1, 61, 61
3, 4220, Note_off_c, 1, 61, 64
3, 4224, Note_on_c, 1, 62, 61
3, 4604, Note_off_c, 1, 62, 64
3, 4608, Note_on_c, 1, 62, 61
3, 4892, Note_off_c, 1, 62, 64
3, 4896, Note_on_c, 1, 64, 61
3, 4988, Note_off_c, 1, 64, 64
3, 4992, Note_on_c, 1, 61, 61
3, 4992, Note_on_c, 1, 57, 61
3, 5372, Note_off_c, 1, 61, 64
3, 5372, Note_off_c, 1, 57, 64
3, 5376, Note_on_c, 1, 67, 61
3, 5756, Note_off_c, 1, 67, 64
3, 5760, Note_on_c, 1, 66, 61
3, 5760, Note_on_c, 1, 69, 61
3, 6140, Note_off_c, 1, 66, 64
3, 6144, Note_on_c, 1, 62, 61
3, 6524, Note_off_c, 1, 62, 64
3, 6528, Note_on_c, 1, 67, 61
3, 6908, Note_off_c, 1, 67, 64
3, 6912, Note_on_c, 1, 66, 61
3, 7292, Note_off_c, 1, 66, 64
3, 7296, Note_on_c, 1, 62, 61
3, 7676, Note_off_c, 1, 62, 64
3, 7680, Note_on_c, 1, 67, 61
3, 8060, Note_off_c, 1, 67, 64
3, 8064, Note_on_c, 1, 66, 61
3, 8444, Note_off_c, 1, 69, 64
3, 8444, Note_off_c, 1, 66, 64
3, 8448, Note_on_c, 1, 62, 61
3, 8448, Note_on_c, 1, 66, 61
3, 8636, Note_off_c, 1, 66, 64
3, 8640, Note_on_c, 1, 69, 61
3, 8828, Note_off_c, 1, 62, 64
3, 8828, Note_off_c, 1, 69, 64
3, 8832, Note_on_c, 1, 67, 61
3, 9020, Note_off_c, 1, 67, 64
3, 9024, Note_on_c, 1, 64, 61
3, 9212, Note_off_c, 1, 64, 64
3, 9216, Note_on_c, 1, 62, 61
3, 9980, Note_off_c, 1, 62, 64
3, 9984, Note_on_c, 1, 61, 61
3, 10364, Note_off_c, 1, 61, 64
3, 10368, Note_on_c, 1, 78, 82
3, 10368, Note_on_c, 1, 74, 82
3, 10940, Note_off_c, 1, 78, 64
3, 10940, Note_off_c, 1, 74, 64
3, 10944, Note_on_c, 1, 79, 82
3, 10944, Note_on_c, 1, 76, 82
3, 11132, Note_off_c, 1, 79, 64
3, 11132, Note_off_c, 1, 76, 64
3, 11136, Note_on_c, 1, 80, 82
3, 11136, Note_on_c, 1, 77, 82
3, 11324, Note_off_c, 1, 80, 64
3, 11324, Note_off_c, 1, 77, 64
3, 11328, Note_on_c, 1, 78, 82
3, 11328, Note_on_c, 1, 81, 82
3, 11516, Note_off_c, 1, 78, 64
3, 11516, Note_off_c, 1, 81, 64
3, 11520, Note_on_c, 1, 78, 82
3, 11520, Note_on_c, 1, 83, 82
3, 11520, Note_on_c, 1, 74, 82
3, 11708, Note_off_c, 1, 83, 64
3, 11712, Note_on_c, 1, 81, 82
3, 11900, Note_off_c, 1, 78, 64
3, 11900, Note_off_c, 1, 74, 64
3, 11900, Note_off_c, 1, 81, 64
3, 11904, Note_on_c, 1, 79, 82
3, 12092, Note_off_c, 1, 79, 64
3, 12096, Note_on_c, 1, 78, 82
3, 12284, Note_off_c, 1, 78, 64
3, 12288, Note_on_c, 1, 76, 82
3, 12476, Note_off_c, 1, 76, 64
3, 12480, Note_on_c, 1, 74, 82
3, 12668, Note_off_c, 1, 74, 64
3, 12672, Note_on_c, 1, 76, 82
3, 12672, Note_on_c, 1, 73, 82
3, 12672, Note_on_c, 1, 69, 82
3, 13052, Note_off_c, 1, 76, 64
3, 13052, Note_off_c, 1, 73, 64
3, 13052, Note_off_c, 1, 69, 64
3, 13056, Note_on_c, 1, 76, 82
3, 13056, Note_on_c, 1, 73, 82
3, 13056, Note_on_c, 1, 64, 82
3, 13436, Note_off_c, 1, 76, 64
3, 13436, Note_off_c, 1, 73, 64
3, 13436, Note_off_c, 1, 64, 64
3, 13440, Note_on_c, 1, 78, 82
3, 13440, Note_on_c, 1, 74, 82
3, 13440, Note_on_c, 1, 66, 82
3, 13820, Note_off_c, 1, 78, 64
3, 13820, Note_off_c, 1, 74, 64
3, 13820, Note_off_c, 1, 66, 64
3, 13824, Note_on_c, 1, 78, 82
3, 13824, Note_on_c, 1, 74, 82
3, 13824, Note_on_c, 1, 66, 82
3, 14108, Note_off_c, 1, 78, 64
3, 14108, Note_off_c, 1, 74, 64
3, 14108, Note_off_c, 1, 66, 64
3, 14112, Note_on_c, 1, 79, 82
3, 14112, Note_on_c, 1, 74, 82
3, 14204, Note_off_c, 1, 79, 64
3, 14204, Note_off_c, 1, 74, 64
3, 14208, Note_on_c, 1, 76, 82
3, 14208, Note_on_c, 1, 73, 82
3, 14208, Note_on_c, 1, 64, 82
3, 14588, Note_off_c, 1, 76, 64
3, 14588, Note_off_c, 1, 73, 64
3, 14588, Note_off_c, 1, 64, 64
3, 14592, Note_on_c, 1, 69, 82
3, 14972, Note_off_c, 1, 69, 64
3, 14976, Note_on_c, 1, 74, 82
3, 15164, Note_off_c, 1, 74, 64
3, 15168, Note_on_c, 1, 86, 82
3, 15356, Note_off_c, 1, 86, 64
3, 15360, Note_on_c, 1, 85, 82
3, 15548, Note_off_c, 1, 85, 64
3, 15552, Note_on_c, 1, 86, 82
3, 15740, Note_off_c, 1, 86, 64
3, 15744, Note_on_c, 1, 83, 82
3, 15932, Note_off_c, 1, 83, 64
3, 15936, Note_on_c, 1, 85, 82
3, 16124, Note_off_c, 1, 85, 64
3, 16128, Note_on_c, 1, 76, 82
3, 16128, Note_on_c, 1, 81, 82
3, 16316, Note_off_c, 1, 81, 64
3, 16320, Note_on_c, 1, 83, 82
3, 16508, Note_off_c, 1, 76, 64
3, 16508, Note_off_c, 1, 83, 64
3, 16512, Note_on_c, 1, 73, 82
3, 16512, Note_on_c, 1, 79, 82
3, 16700, Note_off_c, 1, 79, 64
3, 16704, Note_on_c, 1, 81, 82
3, 16892, Note_off_c, 1, 73, 64
3, 16892, Note_off_c, 1, 81, 64
3, 16896, Note_on_c, 1, 74, 82
3, 16896, Note_on_c, 1, 78, 82
3, 17084, Note_off_c, 1, 78, 64
3, 17088, Note_on_c, 1, 79, 82
3, 17276, Note_off_c, 1, 74, 64
3, 17276, Note_off_c, 1, 79, 64
3, 17280, Note_on_c, 1, 78, 82
3, 17280, Note_on_c, 1, 71, 82
3, 17468, Note_off_c, 1, 78, 64
3, 17472, Note_on_c, 1, 76, 82
3, 17660, Note_off_c, 1, 76, 64
3, 17664, Note_on_c, 1, 79, 82
3, 17852, Note_off_c, 1, 71, 64
3, 17852, Note_off_c, 1, 79, 64
3, 17856, Note_on_c, 1, 76, 82
3, 17856, Note_on_c, 1, 67, 82
3, 18044, Note_off_c, 1, 76, 64
3, 18044, Note_off_c, 1, 67, 64
3, 18048, Note_on_c, 1, 74, 82
3, 18048, Note_on_c, 1, 66, 82
3, 18236, Note_off_c, 1, 74, 64
3, 18236, Note_off_c, 1, 66, 64
3, 18240, Note_on_c, 1, 73, 82
3, 18240, Note_on_c, 1, 67, 82
3, 18240, Note_on_c, 1, 64, 82
3, 18428, Note_off_c, 1, 73, 64
3, 18428, Note_off_c, 1, 67, 64
3, 18428, Note_off_c, 1, 64, 64
3, 18432, Note_on_c, 1, 73, 82
3, 18432, Note_on_c, 1, 67, 82
3, 18620, Note_off_c, 1, 73, 64
3, 18620, Note_off_c, 1, 67, 64
3, 18624, Note_on_c, 1, 74, 82
3, 18624, Note_on_c, 1, 66, 82
3, 18812, Note_off_c, 1, 74, 64
3, 18812, Note_off_c, 1, 66, 64
3, 18816, Note_on_c, 1, 62, 82
3, 19196, Note_off_c, 1, 62, 64
3, 19776, Note_on_c, 1, 69, 74
3, 19776, Note_on_c, 1, 66, 74
3, 19776, Note_on_c, 1, 62, 74
3, 19964, Note_off_c, 1, 69, 64
3, 19964, Note_off_c, 1, 66, 64
3, 19964, Note_off_c, 1, 62, 64
3, 19968, Note_on_c, 1, 69, 74
3, 19968, Note_on_c, 1, 66, 74
3, 19968, Note_on_c, 1, 62, 74
3, 20156, Note_off_c, 1, 69, 64
3, 20156, Note_off_c, 1, 66, 64
3, 20156, Note_off_c, 1, 62, 64
3, 20160, Note_on_c, 1, 69, 74
3, 20160, Note_on_c, 1, 66, 74
3, 20348, Note_off_c, 1, 69, 64
3, 20348, Note_off_c, 1, 66, 64
3, 20352, Note_on_c, 1, 69, 74
3, 20352, Note_on_c, 1, 66, 74
3, 20540, Note_off_c, 1, 69, 64
3, 20540, Note_off_c, 1, 66, 64
3, 20544, Note_on_c, 1, 69, 74
3, 20544, Note_on_c, 1, 66, 74
3, 20732, Note_off_c, 1, 69, 64
3, 20732, Note_off_c, 1, 66, 64
3, 20928, Note_on_c, 1, 69, 74
3, 20928, Note_on_c, 1, 67, 74
3, 20928, Note_on_c, 1, 64, 74
3, 21116, Note_off_c, 1, 69, 64
3, 21116, Note_off_c, 1, 67, 64
3, 21116, Note_off_c, 1, 64, 64
3, 21120, Note_on_c, 1, 69, 74
3, 21120, Note_on_c, 1, 67, 74
3, 21120, Note_on_c, 1, 64, 74
3, 21308, Note_off_c, 1, 69, 64
3, 21308, Note_off_c, 1, 67, 64
3, 21308, Note_off_c, 1, 64, 64
3, 21312, Note_on_c, 1, 69, 74
3, 21312, Note_on_c, 1, 67, 74
3, 21312, Note_on_c, 1, 64, 74
3, 21500, Note_off_c, 1, 69, 64
3, 21500, Note_off_c, 1, 67, 64
3, 21500, Note_off_c, 1, 64, 64
3, 21504, Note_on_c, 1, 69, 74
3, 21504, Note_on_c, 1, 67, 74
3, 21504, Note_on_c, 1, 64, 74
3, 21692, Note_off_c, 1, 69, 64
3, 21692, Note_off_c, 1, 67, 64
3, 21692, Note_off_c, 1, 64, 64
3, 21696, Note_on_c, 1, 69, 74
3, 21696, Note_on_c, 1, 67, 74
3, 21696, Note_on_c, 1, 64, 74
3, 21884, Note_off_c, 1, 69, 64
3, 21884, Note_off_c, 1, 67, 64
3, 21884, Note_off_c, 1, 64, 64
3, 22080, Note_on_c, 1, 66, 61
3, 22080, Note_on_c, 1, 62, 61
3, 22080, Note_on_c, 1, 69, 61
3, 22268, Note_off_c, 1, 66, 64
3, 22268, Note_off_c, 1, 62, 64
3, 22268, Note_off_c, 1, 69, 64
3, 22272, Note_on_c, 1, 69, 61
3, 22272, Note_on_c, 1, 66, 61
3, 22272, Note_on_c, 1, 62, 61
3, 22460, Note_off_c, 1, 69, 64
3, 22460, Note_off_c, 1, 66, 64
3, 22460, Note_off_c, 1, 62, 64
3, 22464, Note_on_c, 1, 69, 61
3, 22464, Note_on_c, 1, 66, 61
3, 22652, Note_off_c, 1, 69, 64
3, 22652, Note_off_c, 1, 66, 64
3, 22656, Note_on_c, 1, 66, 61
3, 22656, Note_on_c, 1, 69, 61
3, 22844, Note_off_c, 1, 66, 64
3, 22844, Note_off_c, 1, 69, 64
3, 22848, Note_on_c, 1, 69, 61
3, 22848, Note_on_c, 1, 66, 61
3, 23036, Note_off_c, 1, 69, 64
3, 23036, Note_off_c, 1, 66, 64
3, 23232, Note_on_c, 1, 69, 61
3, 23232, Note_on_c, 1, 67, 61
3, 23232, Note_on_c, 1, 64, 61
3, 23420, Note_off_c, 1, 69, 64
3, 23420, Note_off_c, 1, 67, 64
3, 23420, Note_off_c, 1, 64, 64
3, 23424, Note_on_c, 1, 69, 61
3, 23424, Note_on_c, 1, 67, 61
3, 23424, Note_on_c, 1, 64, 61
3, 23612, Note_off_c, 1, 69, 64
3, 23612, Note_off_c, 1, 67, 64
3, 23612, Note_off_c, 1, 64, 64
3, 23616, Note_on_c, 1, 69, 61
3, 23616, Note_on_c, 1, 67, 61
3, 23616, Note_on_c, 1, 64, 61
3, 23804, Note_off_c, 1, 69, 64
3, 23804, Note_off_c, 1, 67, 64
3, 23804, Note_off_c, 1, 64, 64
3, 23808, Note_on_c, 1, 69, 61
3, 23808, Note_on_c, 1, 67, 61
3, 23808, Note_on_c, 1, 64, 61
3, 23996, Note_off_c, 1, 69, 64
3, 23996, Note_off_c, 1, 67, 64
3, 23996, Note_off_c, 1, 64, 64
3, 24000, Note_on_c, 1, 69, 61
3, 24000, Note_on_c, 1, 67, 61
3, 24000, Note_on_c, 1, 64, 61
3, 24188, Note_off_c, 1, 69, 64
3, 24188, Note_off_c, 1, 67, 64
3, 24188, Note_off_c, 1, 64, 64
3, 24192, Note_on_c, 1, 69, 61
3, 24192, Note_on_c, 1, 66, 61
3, 24192, Note_on_c, 1, 62, 61
3, 24572, Note_off_c, 1, 69, 64
3, 24572, Note_off_c, 1, 66, 64
3, 24572, Note_off_c, 1, 62, 64
3, 24960, Note_on_c, 1, 74, 61
3, 24960, Note_on_c, 1, 64, 61
3, 25340, Note_off_c, 1, 74, 64
3, 25340, Note_off_c, 1, 64, 64
3, 25344, Note_on_c, 1, 73, 61
3, 25344, Note_on_c, 1, 69, 61
3, 25344, Note_on_c, 1, 66, 61
3, 25724, Note_off_c, 1, 73, 64
3, 25724, Note_off_c, 1, 69, 64
3, 25724, Note_off_c, 1, 66, 64
3, 26112, Note_on_c, 1, 76, 61
3, 26112, Note_on_c, 1, 71, 61
3, 26112, Note_on_c, 1, 68, 61
3, 26492, Note_off_c, 1, 76, 64
3, 26492, Note_off_c, 1, 71, 64
3, 26492, Note_off_c, 1, 68, 64
3, 26496, Note_on_c, 1, 76, 74
3, 26496, Note_on_c, 1, 73, 74
3, 26496, Note_on_c, 1, 69, 74
3, 26876, Note_off_c, 1, 76, 64
3, 26876, Note_off_c, 1, 73, 64
3, 26876, Note_off_c, 1, 69, 64
3, 26880, Note_on_c, 1, 66, 74
3, 26880, Note_on_c, 1, 69, 74
3, 27260, Note_off_c, 1, 66, 64
3, 27260, Note_off_c, 1, 69, 64
3, 27264, Note_on_c, 1, 63, 74
3, 27264, Note_on_c, 1, 66, 74
3, 27548, Note_off_c, 1, 66, 64
3, 27552, Note_on_c, 1, 71, 74
3, 27644, Note_off_c, 1, 63, 64
3, 27644, Note_off_c, 1, 71, 64
3, 27648, Note_on_c, 1, 73, 74
3, 27648, Note_on_c, 1, 64, 74
3, 27740, Note_off_c, 1, 73, 64
3, 27744, Note_on_c, 1, 71, 74
3, 27836, Note_off_c, 1, 71, 64
3, 27840, Note_on_c, 1, 69, 74
3, 27932, Note_off_c, 1, 69, 64
3, 27936, Note_on_c, 1, 68, 74
3, 28028, Note_off_c, 1, 64, 64
3, 28028, Note_off_c, 1, 68, 64
3, 28032, Note_on_c, 1, 68, 74
3, 28412, Note_off_c, 1, 68, 64
3, 28800, Note_on_c, 1, 71, 61
3, 28988, Note_off_c, 1, 71, 64
3, 28992, Note_on_c, 1, 76, 61
3, 29180, Note_off_c, 1, 76, 64
3, 29184, Note_on_c, 1, 74, 61
3, 29372, Note_off_c, 1, 74, 64
3, 29376, Note_on_c, 1, 76, 61
3, 29564, Note_off_c, 1, 76, 64
3, 29568, Note_on_c, 1, 71, 61
3, 29568, Note_on_c, 1, 68, 61
3, 29756, Note_off_c, 1, 71, 64
3, 29760, Note_on_c, 1, 76, 61
3, 29948, Note_off_c, 1, 68, 64
3, 29948, Note_off_c, 1, 76, 64
3, 29952, Note_on_c, 1, 69, 61
3, 30144, Note_on_c, 1, 76, 61
3, 30332, Note_off_c, 1, 69, 64
3, 30332, Note_off_c, 1, 76, 64
3, 30336, Note_on_c, 1, 73, 61
3, 30524, Note_off_c, 1, 73, 64
3, 30528, Note_on_c, 1, 76, 61
3, 30716, Note_off_c, 1, 76, 64
3, 30720, Note_on_c, 1, 69, 61
3, 30720, Note_on_c, 1, 57, 61
3, 30908, Note_off_c, 1, 69, 64
3, 30912, Note_on_c, 1, 76, 61
3, 31100, Note_off_c, 1, 57, 64
3, 31100, Note_off_c, 1, 76, 64
3, 31104, Note_on_c, 1, 71, 61
3, 31104, Note_on_c, 1, 56, 61
3, 31292, Note_off_c, 1, 71, 64
3, 31296, Note_on_c, 1, 76, 61
3, 31484, Note_off_c, 1, 56, 64
3, 31484, Note_off_c, 1, 76, 64
3, 31488, Note_on_c, 1, 74, 61
3, 31676, Note_off_c, 1, 74, 64
3, 31680, Note_on_c, 1, 76, 61
3, 31680, Note_on_c, 1, 68, 61
3, 31868, Note_off_c, 1, 76, 64
3, 31868, Note_off_c, 1, 68, 64
3, 31872, Note_on_c, 1, 71, 61
3, 31872, Note_on_c, 1, 68, 61
3, 32060, Note_off_c, 1, 71, 64
3, 32060, Note_off_c, 1, 68, 64
3, 32064, Note_on_c, 1, 76, 61
3, 32064, Note_on_c, 1, 68, 61
3, 32252, Note_off_c, 1, 76, 64
3, 32252, Note_off_c, 1, 68, 64
3, 32256, Note_on_c, 1, 69, 61
3, 32448, Note_on_c, 1, 76, 61
3, 32636, Note_off_c, 1, 69, 64
3, 32636, Note_off_c, 1, 76, 64
3, 32640, Note_on_c, 1, 73, 61
3, 32828, Note_off_c, 1, 73, 64
3, 32832, Note_on_c, 1, 76, 61
3, 32832, Note_on_c, 1, 57, 61
3, 33020, Note_off_c, 1, 76, 64
3, 33020, Note_off_c, 1, 57, 64
3, 33024, Note_on_c, 1, 69, 61
3, 33024, Note_on_c, 1, 57, 61
3, 33212, Note_off_c, 1, 69, 64
3, 33212, Note_off_c, 1, 57, 64
3, 33216, Note_on_c, 1, 76, 61
3, 33216, Note_on_c, 1, 61, 61
3, 33404, Note_off_c, 1, 76, 64
3, 33404, Note_off_c, 1, 61, 64
3, 33408, Note_on_c, 1, 74, 61
3, 33408, Note_on_c, 1, 62, 61
3, 33788, Note_off_c, 1, 74, 64
3, 33788, Note_off_c, 1, 62, 64
3, 33792, Note_on_c, 1, 78, 61
3, 33792, Note_on_c, 1, 74, 61
3, 34172, Note_off_c, 1, 78, 64
3, 34172, Note_off_c, 1, 74, 64
3, 34176, Note_on_c, 1, 76, 61
3, 34176, Note_on_c, 1, 81, 61
3, 34176, Note_on_c, 1, 73, 61
3, 34556, Note_off_c, 1, 76, 64
3, 34556, Note_off_c, 1, 81, 64
3, 34556, Note_off_c, 1, 73, 64
3, 34560, Note_on_c, 1, 74, 61
3, 34560, Note_on_c, 1, 71, 61
3, 34940, Note_off_c, 1, 74, 64
3, 34940, Note_off_c, 1, 71, 64
3, 34944, Note_on_c, 1, 74, 61
3, 34944, Note_on_c, 1, 68, 61
3, 34944, Note_on_c, 1, 64, 61
3, 35324, Note_off_c, 1, 74, 64
3, 35324, Note_off_c, 1, 68, 64
3, 35324, Note_off_c, 1, 64, 64
3, 35328, Note_on_c, 1, 73, 61
3, 35328, Note_on_c, 1, 69, 61
3, 35328, Note_on_c, 1, 66, 61
3, 35708, Note_off_c, 1, 73, 64
3, 35708, Note_off_c, 1, 69, 64
3, 35708, Note_off_c, 1, 66, 64
3, 35712, Note_on_c, 1, 62, 61
3, 36000, Note_on_c, 1, 74, 61
3, 36092, Note_off_c, 1, 62, 64
3, 36092, Note_off_c, 1, 74, 64
3, 36096, Note_on_c, 1, 73, 61
3, 36096, Note_on_c, 1, 64, 61
3, 36476, Note_off_c, 1, 73, 64
3, 36476, Note_off_c, 1, 64, 64
3, 36480, Note_on_c, 1, 68, 61
3, 36480, Note_on_c, 1, 64, 61
3, 36860, Note_off_c, 1, 68, 64
3, 36860, Note_off_c, 1, 64, 64
3, 36864, Note_on_c, 1, 68, 61
3, 37248, Note_on_c, 1, 64, 61
3, 37628, Note_off_c, 1, 68, 64
3, 37628, Note_off_c, 1, 64, 64
3, 37632, Note_on_c, 1, 69, 61
3, 37632, Note_on_c, 1, 57, 61
3, 38012, Note_off_c, 1, 69, 64
3, 38012, Note_off_c, 1, 57, 64
3, 38016, Note_on_c, 1, 62, 74
3, 38396, Note_off_c, 1, 62, 64
3, 38400, Note_on_c, 1, 69, 74
3, 38400, Note_on_c, 1, 62, 74
3, 38780, Note_off_c, 1, 69, 64
3, 38780, Note_off_c, 1, 62, 64
3, 38784, Note_on_c, 1, 69, 74
3, 38784, Note_on_c, 1, 61, 74
3, 39164, Note_off_c, 1, 69, 64
3, 39164, Note_off_c, 1, 61, 64
3, 39168, Note_on_c, 1, 66, 74
3, 39168, Note_on_c, 1, 59, 74
3, 39548, Note_off_c, 1, 66, 64
3, 39548, Note_off_c, 1, 59, 64
3, 39552, Note_on_c, 1, 68, 74
3, 39552, Note_on_c, 1, 64, 74
3, 39932, Note_off_c, 1, 68, 64
3, 39932, Note_off_c, 1, 64, 64
3, 39936, Note_on_c, 1, 69, 74
3, 39936, Note_on_c, 1, 57, 74
3, 40060, Note_off_c, 1, 69, 64
3, 40064, Note_on_c, 1, 71, 74
3, 40188, Note_off_c, 1, 71, 64
3, 40192, Note_on_c, 1, 73, 74
3, 40316, Note_off_c, 1, 57, 64
3, 40316, Note_off_c, 1, 73, 64
3, 40320, Note_on_c, 1, 74, 74
3, 40444, Note_off_c, 1, 74, 64
3, 40448, Note_on_c, 1, 76, 74
3, 40572, Note_off_c, 1, 76, 64
3, 40576, Note_on_c, 1, 78, 74
3, 40608, Note_on_c, 1, 63, 74
3, 40700, Note_off_c, 1, 78, 64
3, 40700, Note_off_c, 1, 63, 64
3, 40704, Note_on_c, 1, 64, 74
3, 40704, Note_on_c, 1, 78, 74
3, 40796, Note_off_c, 1, 78, 64
3, 40800, Note_on_c, 1, 76, 74
3, 40892, Note_off_c, 1, 76, 64
3, 40896, Note_on_c, 1, 74, 74
3, 40988, Note_off_c, 1, 74, 64
3, 40992, Note_on_c, 1, 73, 74
3, 41084, Note_off_c, 1, 64, 64
3, 41084, Note_off_c, 1, 73, 64
3, 41088, Note_on_c, 1, 64, 74
3, 41088, Note_on_c, 1, 73, 74
3, 41180, Note_off_c, 1, 73, 64
3, 41184, Note_on_c, 1, 71, 74
3, 41276, Note_off_c, 1, 71, 64
3, 41280, Note_on_c, 1, 69, 74
3, 41372, Note_off_c, 1, 69, 64
3, 41376, Note_on_c, 1, 68, 74
3, 41468, Note_off_c, 1, 64, 64
3, 41468, Note_off_c, 1, 68, 64
3, 41472, Note_on_c, 1, 69, 74
3, 41852, Note_off_c, 1, 69, 64
3, 41856, Note_on_c, 1, 69, 74
3, 41856, Note_on_c, 1, 61, 74
3, 42236, Note_off_c, 1, 69, 64
3, 42236, Note_off_c, 1, 61, 64
3, 42240, Note_on_c, 1, 68, 74
3, 42240, Note_on_c, 1, 62, 74
3, 42620, Note_off_c, 1, 68, 64
3, 42620, Note_off_c, 1, 62, 64
3, 43008, Note_on_c, 1, 69, 74
3, 43008, Note_on_c, 1, 61, 74
3, 43388, Note_off_c, 1, 69, 64
3, 43388, Note_off_c, 1, 61, 64
3, 43392, Note_on_c, 1, 68, 74
3, 43392, Note_on_c, 1, 62, 74
3, 43772, Note_off_c, 1, 68, 64
3, 43772, Note_off_c, 1, 62, 64
3, 43776, Note_on_c, 1, 69, 74
3, 43776, Note_on_c, 1, 61, 74
3, 44156, Note_off_c, 1, 69, 64
3, 44156, Note_off_c, 1, 61, 64
3, 44160, Note_on_c, 1, 64, 74
3, 44160, Note_on_c, 1, 61, 74
3, 44444, Note_off_c, 1, 64, 64
3, 44444, Note_off_c, 1, 61, 64
3, 44448, Note_on_c, 1, 66, 74
3, 44448, Note_on_c, 1, 62, 74
3, 44540, Note_off_c, 1, 66, 64
3, 44540, Note_off_c, 1, 62, 64
3, 44544, Note_on_c, 1, 64, 74
3, 44544, Note_on_c, 1, 61, 74
3, 44828, Note_off_c, 1, 64, 64
3, 44828, Note_off_c, 1, 61, 64
3, 44832, Note_on_c, 1, 66, 74
3, 44832, Note_on_c, 1, 62, 74
3, 44924, Note_off_c, 1, 66, 64
3, 44924, Note_off_c, 1, 62, 64
3, 44928, Note_on_c, 1, 64, 74
3, 44928, Note_on_c, 1, 61, 74
3, 45692, Note_off_c, 1, 64, 64
3, 45692, Note_off_c, 1, 61, 64
3, 46080, Note_on_c, 1, 62, 61
3, 46652, Note_off_c, 1, 62, 64
3, 46656, Note_on_c, 1, 64, 61
3, 46844, Note_off_c, 1, 64, 64
3, 46848, Note_on_c, 1, 65, 61
3, 47036, Note_off_c, 1, 65, 64
3, 47040, Note_on_c, 1, 66, 61
3, 47228, Note_off_c, 1, 66, 64
3, 47232, Note_on_c, 1, 66, 61
3, 47612, Note_off_c, 1, 66, 64
3, 48384, Note_on_c, 1, 61, 61
3, 48764, Note_off_c, 1, 61, 64
3, 48768, Note_on_c, 1, 61, 61
3, 49148, Note_off_c, 1, 61, 64
3, 49152, Note_on_c, 1, 62, 61
3, 49532, Note_off_c, 1, 62, 64
3, 49536, Note_on_c, 1, 62, 61
3, 49820, Note_off_c, 1, 62, 64
3, 49824, Note_on_c, 1, 64, 61
3, 49916, Note_off_c, 1, 64, 64
3, 49920, Note_on_c, 1, 61, 61
3, 49920, Note_on_c, 1, 57, 61
3, 50300, Note_off_c, 1, 61, 64
3, 50300, Note_off_c, 1, 57, 64
3, 50304, Note_on_c, 1, 67, 61
3, 50684, Note_off_c, 1, 67, 64
3, 50688, Note_on_c, 1, 69, 61
3, 50688, Note_on_c, 1, 66, 61
3, 51068, Note_off_c, 1, 66, 64
3, 51072, Note_on_c, 1, 62, 61
3, 51452, Note_off_c, 1, 62, 64
3, 51456, Note_on_c, 1, 67, 61
3, 51836, Note_off_c, 1, 67, 64
3, 51840, Note_on_c, 1, 66, 61
3, 52220, Note_off_c, 1, 66, 64
3, 52224, Note_on_c, 1, 62, 61
3, 52604, Note_off_c, 1, 62, 64
3, 52608, Note_on_c, 1, 67, 61
3, 52988, Note_off_c, 1, 67, 64
3, 52992, Note_on_c, 1, 66, 61
3, 53372, Note_off_c, 1, 69, 64
3, 53372, Note_off_c, 1, 66, 64
3, 53376, Note_on_c, 1, 62, 61
3, 53376, Note_on_c, 1, 66, 61
3, 53564, Note_off_c, 1, 66, 64
3, 53568, Note_on_c, 1, 69, 61
3, 53756, Note_off_c, 1, 62, 64
3, 53756, Note_off_c, 1, 69, 64
3, 53760, Note_on_c, 1, 55, 61
3, 53760, Note_on_c, 1, 67, 61
3, 53948, Note_off_c, 1, 67, 64
3, 53952, Note_on_c, 1, 64, 61
3, 54140, Note_off_c, 1, 55, 64
3, 54140, Note_off_c, 1, 64, 64
3, 54144, Note_on_c, 1, 62, 61
3, 54144, Note_on_c, 1, 57, 61
3, 54524, Note_off_c, 1, 57, 64
3, 54528, Note_on_c, 1, 69, 61
3, 54908, Note_off_c, 1, 62, 64
3, 54908, Note_off_c, 1, 69, 64
3, 54912, Note_on_c, 1, 61, 61
3, 54912, Note_on_c, 1, 57, 61
3, 55292, Note_off_c, 1, 61, 64
3, 55292, Note_off_c, 1, 57, 64
3, 55296, Note_on_c, 1, 78, 82
3, 55296, Note_on_c, 1, 74, 82
3, 55868, Note_off_c, 1, 78, 64
3, 55868, Note_off_c, 1, 74, 64
3, 55872, Note_on_c, 1, 76, 82
3, 55872, Note_on_c, 1, 79, 82
3, 56060, Note_off_c, 1, 76, 64
3, 56060, Note_off_c, 1, 79, 64
3, 56064, Note_on_c, 1, 80, 82
3, 56064, Note_on_c, 1, 77, 82
3, 56252, Note_off_c, 1, 80, 64
3, 56252, Note_off_c, 1, 77, 64
3, 56256, Note_on_c, 1, 78, 82
3, 56256, Note_on_c, 1, 81, 82
3, 56444, Note_off_c, 1, 78, 64
3, 56444, Note_off_c, 1, 81, 64
3, 56448, Note_on_c, 1, 78, 82
3, 56448, Note_on_c, 1, 74, 82
3, 56448, Note_on_c, 1, 83, 82
3, 56636, Note_off_c, 1, 83, 64
3, 56640, Note_on_c, 1, 81, 82
3, 56828, Note_off_c, 1, 78, 64
3, 56828, Note_off_c, 1, 74, 64
3, 56828, Note_off_c, 1, 81, 64
3, 56832, Note_on_c, 1, 79, 82
3, 57020, Note_off_c, 1, 79, 64
3, 57024, Note_on_c, 1, 78, 82
3, 57212, Note_off_c, 1, 78, 64
3, 57216, Note_on_c, 1, 76, 82
3, 57404, Note_off_c, 1, 76, 64
3, 57408, Note_on_c, 1, 74, 82
3, 57596, Note_off_c, 1, 74, 64
3, 57600, Note_on_c, 1, 76, 82
3, 57600, Note_on_c, 1, 73, 82
3, 57600, Note_on_c, 1, 69, 82
3, 57980, Note_off_c, 1, 76, 64
3, 57980, Note_off_c, 1, 73, 64
3, 57980, Note_off_c, 1, 69, 64
3, 57984, Note_on_c, 1, 76, 82
3, 57984, Note_on_c, 1, 73, 82
3, 57984, Note_on_c, 1, 64, 82
3, 58364, Note_off_c, 1, 76, 64
3, 58364, Note_off_c, 1, 73, 64
3, 58364, Note_off_c, 1, 64, 64
3, 58368, Note_on_c, 1, 78, 82
3, 58368, Note_on_c, 1, 74, 82
3, 58368, Note_on_c, 1, 66, 82
3, 58748, Note_off_c, 1, 78, 64
3, 58748, Note_off_c, 1, 74, 64
3, 58748, Note_off_c, 1, 66, 64
3, 58752, Note_on_c, 1, 78, 82
3, 58752, Note_on_c, 1, 74, 82
3, 58752, Note_on_c, 1, 66, 82
3, 59036, Note_off_c, 1, 78, 64
3, 59036, Note_off_c, 1, 74, 64
3, 59036, Note_off_c, 1, 66, 64
3, 59040, Note_on_c, 1, 79, 82
3, 59040, Note_on_c, 1, 76, 82
3, 59040, Note_on_c, 1, 67, 82
3, 59132, Note_off_c, 1, 79, 64
3, 59132, Note_off_c, 1, 76, 64
3, 59132, Note_off_c, 1, 67, 64
3, 59136, Note_on_c, 1, 76, 82
3, 59136, Note_on_c, 1, 73, 82
3, 59136, Note_on_c, 1, 64, 82
3, 59516, Note_off_c, 1, 76, 64
3, 59516, Note_off_c, 1, 73, 64
3, 59516, Note_off_c, 1, 64, 64
3, 59520, Note_on_c, 1, 69, 82
3, 59900, Note_off_c, 1, 69, 64
3, 59904, Note_on_c, 1, 74, 82
3, 60092, Note_off_c, 1, 74, 64
3, 60096, Note_on_c, 1, 86, 82
3, 60284, Note_off_c, 1, 86, 64
3, 60288, Note_on_c, 1, 85, 82
3, 60476, Note_off_c, 1, 85, 64
3, 60480, Note_on_c, 1, 86, 82
3, 60668, Note_off_c, 1, 86, 64
3, 60672, Note_on_c, 1, 83, 82
3, 60860, Note_off_c, 1, 83, 64
3, 60864, Note_on_c, 1, 85, 82
3, 61052, Note_off_c, 1, 85, 64
3, 61056, Note_on_c, 1, 81, 82
3, 61244, Note_off_c, 1, 81, 64
3, 61248, Note_on_c, 1, 83, 82
3, 61436, Note_off_c, 1, 83, 64
3, 61440, Note_on_c, 1, 79, 82
3, 61628, Note_off_c, 1, 79, 64
3, 61632, Note_on_c, 1, 81, 82
3, 61820, Note_off_c, 1, 81, 64
3, 61824, Note_on_c, 1, 78, 82
3, 62012, Note_off_c, 1, 78, 64
3, 62016, Note_on_c, 1, 79, 82
3, 62204, Note_off_c, 1, 79, 64
3, 62208, Note_on_c, 1, 78, 82
3, 62396, Note_off_c, 1, 78, 64
3, 62400, Note_on_c, 1, 76, 82
3, 62588, Note_off_c, 1, 76, 64
3, 62592, Note_on_c, 1, 79, 82
3, 62592, Note_on_c, 1, 71, 82
3, 62780, Note_off_c, 1, 79, 64
3, 62780, Note_off_c, 1, 71, 64
3, 62784, Note_on_c, 1, 76, 82
3, 62784, Note_on_c, 1, 67, 82
3, 62972, Note_off_c, 1, 76, 64
3, 62972, Note_off_c, 1, 67, 64
3, 62976, Note_on_c, 1, 74, 82
3, 62976, Note_on_c, 1, 66, 82
3, 63164, Note_off_c, 1, 74, 64
3, 63164, Note_off_c, 1, 66, 64
3, 63168, Note_on_c, 1, 73, 82
3, 63168, Note_on_c, 1, 67, 82
3, 63168, Note_on_c, 1, 64, 82
3, 63356, Note_off_c, 1, 73, 64
3, 63356, Note_off_c, 1, 67, 64
3, 63356, Note_off_c, 1, 64, 64
3, 63360, Note_on_c, 1, 73, 82
3, 63360, Note_on_c, 1, 67, 82
3, 63548, Note_off_c, 1, 73, 64
3, 63548, Note_off_c, 1, 67, 64
3, 63552, Note_on_c, 1, 74, 82
3, 63552, Note_on_c, 1, 66, 82
3, 63740, Note_off_c, 1, 74, 64
3, 63740, Note_off_c, 1, 66, 64
3, 63744, Note_on_c, 1, 62, 82
3, 64124, Note_off_c, 1, 62, 64
3, 64704, Note_on_c, 1, 67, 68
3, 64704, Note_on_c, 1, 59, 68
3, 64892, Note_off_c, 1, 67, 64
3, 64892, Note_off_c, 1, 59, 64
3, 64896, Note_on_c, 1, 71, 68
3, 64896, Note_on_c, 1, 62, 68
3, 65084, Note_off_c, 1, 71, 64
3, 65084, Note_off_c, 1, 62, 64
3, 65088, Note_on_c, 1, 67, 68
3, 65088, Note_on_c, 1, 59, 68
3, 65276, Note_off_c, 1, 67, 64
3, 65276, Note_off_c, 1, 59, 64
3, 65280, Note_on_c, 1, 71, 68
3, 65280, Note_on_c, 1, 62, 68
3, 65468, Note_off_c, 1, 71, 64
3, 65468, Note_off_c, 1, 62, 64
3, 65472, Note_on_c, 1, 67, 68
3, 65472, Note_on_c, 1, 59, 68
3, 65660, Note_off_c, 1, 67, 64
3, 65660, Note_off_c, 1, 59, 64
3, 65856, Note_on_c, 1, 67, 68
3, 65856, Note_on_c, 1, 59, 68
3, 66044, Note_off_c, 1, 67, 64
3, 66044, Note_off_c, 1, 59, 64
3, 66048, Note_on_c, 1, 71, 68
3, 66048, Note_on_c, 1, 62, 68
3, 66236, Note_off_c, 1, 71, 64
3, 66236, Note_off_c, 1, 62, 64
3, 66240, Note_on_c, 1, 67, 68
3, 66240, Note_on_c, 1, 59, 68
3, 66428, Note_off_c, 1, 67, 64
3, 66428, Note_off_c, 1, 59, 64
3, 66432, Note_on_c, 1, 71, 68
3, 66432, Note_on_c, 1, 62, 68
3, 66620, Note_off_c, 1, 71, 64
3, 66620, Note_off_c, 1, 62, 64
3, 66624, Note_on_c, 1, 67, 68
3, 66624, Note_on_c, 1, 59, 68
3, 66812, Note_off_c, 1, 67, 64
3, 66812, Note_off_c, 1, 59, 64
3, 67008, Note_on_c, 1, 62, 68
3, 67008, Note_on_c, 1, 59, 68
3, 67196, Note_off_c, 1, 62, 64
3, 67196, Note_off_c, 1, 59, 64
3, 67200, Note_on_c, 1, 62, 68
3, 67200, Note_on_c, 1, 59, 68
3, 67388, Note_off_c, 1, 62, 64
3, 67388, Note_off_c, 1, 59, 64
3, 67392, Note_on_c, 1, 62, 68
3, 67392, Note_on_c, 1, 59, 68
3, 67580, Note_off_c, 1, 62, 64
3, 67580, Note_off_c, 1, 59, 64
3, 67584, Note_on_c, 1, 62, 68
3, 67584, Note_on_c, 1, 59, 68
3, 67772, Note_off_c, 1, 62, 64
3, 67772, Note_off_c, 1, 59, 64
3, 67776, Note_on_c, 1, 62, 68
3, 67776, Note_on_c, 1, 59, 68
3, 67964, Note_off_c, 1, 62, 64
3, 67964, Note_off_c, 1, 59, 64
3, 68160, Note_on_c, 1, 62, 68
3, 68160, Note_on_c, 1, 57, 68
3, 68160, Note_on_c, 1, 60, 68
3, 68348, Note_off_c, 1, 62, 64
3, 68348, Note_off_c, 1, 57, 64
3, 68348, Note_off_c, 1, 60, 64
3, 68352, Note_on_c, 1, 62, 68
3, 68352, Note_on_c, 1, 60, 68
3, 68352, Note_on_c, 1, 57, 68
3, 68540, Note_off_c, 1, 62, 64
3, 68540, Note_off_c, 1, 60, 64
3, 68540, Note_off_c, 1, 57, 64
3, 68544, Note_on_c, 1, 62, 68
3, 68544, Note_on_c, 1, 60, 68
3, 68544, Note_on_c, 1, 57, 68
3, 68732, Note_off_c, 1, 62, 64
3, 68732, Note_off_c, 1, 60, 64
3, 68732, Note_off_c, 1, 57, 64
3, 68736, Note_on_c, 1, 62, 68
3, 68736, Note_on_c, 1, 60, 68
3, 68736, Note_on_c, 1, 57, 68
3, 68924, Note_off_c, 1, 62, 64
3, 68924, Note_off_c, 1, 60, 64
3, 68924, Note_off_c, 1, 57, 64
3, 68928, Note_on_c, 1, 62, 68
3, 68928, Note_on_c, 1, 60, 68
3, 68928, Note_on_c, 1, 57, 68
3, 69116, Note_off_c, 1, 62, 64
3, 69116, Note_off_c, 1, 60, 64
3, 69116, Note_off_c, 1, 57, 64
3, 69120, Note_on_c, 1, 66, 68
3, 69120, Note_on_c, 1, 62, 68
3, 69120, Note_on_c, 1, 60, 68
3, 69120, Note_on_c, 1, 57, 68
3, 69500, Note_off_c, 1, 66, 64
3, 69500, Note_off_c, 1, 62, 64
3, 69500, Note_off_c, 1, 60, 64
3, 69500, Note_off_c, 1, 57, 64
3, 70272, Note_on_c, 1, 69, 68
3, 70272, Note_on_c, 1, 57, 68
3, 70460, Note_off_c, 1, 69, 64
3, 70460, Note_off_c, 1, 57, 64
3, 70464, Note_on_c, 1, 67, 68
3, 70464, Note_on_c, 1, 59, 68
3, 70652, Note_off_c, 1, 67, 64
3, 70652, Note_off_c, 1, 59, 64
3, 70656, Note_on_c, 1, 66, 68
3, 70656, Note_on_c, 1, 60, 68
3, 70844, Note_off_c, 1, 66, 64
3, 70844, Note_off_c, 1, 60, 64
3, 71424, Note_on_c, 1, 66, 68
3, 71424, Note_on_c, 1, 62, 68
3, 71424, Note_on_c, 1, 57, 68
3, 71804, Note_off_c, 1, 66, 64
3, 71804, Note_off_c, 1, 62, 64
3, 71804, Note_off_c, 1, 57, 64
3, 72576, Note_on_c, 1, 62, 68
3, 72576, Note_on_c, 1, 59, 68
3, 72956, Note_off_c, 1, 62, 64
3, 72956, Note_off_c, 1, 59, 64
3, 73152, Note_on_c, 1, 67, 68
3, 73152, Note_on_c, 1, 62, 68
3, 73340, Note_off_c, 1, 67, 64
3, 73340, Note_off_c, 1, 62, 64
3, 73344, Note_on_c, 1, 60, 68
3, 73344, Note_on_c, 1, 66, 68
3, 73532, Note_off_c, 1, 60, 64
3, 73532, Note_off_c, 1, 66, 64
3, 73536, Note_on_c, 1, 67, 68
3, 73536, Note_on_c, 1, 59, 68
3, 73724, Note_off_c, 1, 67, 64
3, 73724, Note_off_c, 1, 59, 64
3, 73728, Note_on_c, 1, 66, 68
3, 73728, Note_on_c, 1, 62, 68
3, 73728, Note_on_c, 1, 61, 68
3, 74108, Note_off_c, 1, 66, 64
3, 74108, Note_off_c, 1, 62, 64
3, 74108, Note_off_c, 1, 61, 64
3, 74880, Note_on_c, 1, 69, 68
3, 74880, Note_on_c, 1, 57, 68
3, 75068, Note_off_c, 1, 69, 64
3, 75068, Note_off_c, 1, 57, 64
3, 75072, Note_on_c, 1, 67, 68
3, 75072, Note_on_c, 1, 59, 68
3, 75260, Note_off_c, 1, 67, 64
3, 75260, Note_off_c, 1, 59, 64
3, 75264, Note_on_c, 1, 66, 68
3, 75264, Note_on_c, 1, 60, 68
3, 75452, Note_off_c, 1, 66, 64
3, 75452, Note_off_c, 1, 60, 64
3, 76032, Note_on_c, 1, 66, 68
3, 76032, Note_on_c, 1, 62, 68
3, 76412, Note_off_c, 1, 66, 64
3, 76412, Note_off_c, 1, 62, 64
3, 77184, Note_on_c, 1, 67, 68
3, 77184, Note_on_c, 1, 62, 68
3, 77564, Note_off_c, 1, 67, 64
3, 77564, Note_off_c, 1, 62, 64
3, 78528, Note_on_c, 1, 64, 61
3, 78528, Note_on_c, 1, 59, 61
3, 78716, Note_off_c, 1, 64, 64
3, 78716, Note_off_c, 1, 59, 64
3, 78720, Note_on_c, 1, 64, 61
3, 78720, Note_on_c, 1, 59, 61
3, 78908, Note_off_c, 1, 64, 64
3, 78908, Note_off_c, 1, 59, 64
3, 78912, Note_on_c, 1, 64, 61
3, 78912, Note_on_c, 1, 59, 61
3, 79100, Note_off_c, 1, 64, 64
3, 79100, Note_off_c, 1, 59, 64
3, 79104, Note_on_c, 1, 64, 61
3, 79104, Note_on_c, 1, 59, 61
3, 79292, Note_off_c, 1, 64, 64
3, 79292, Note_off_c, 1, 59, 64
3, 79296, Note_on_c, 1, 64, 61
3, 79296, Note_on_c, 1, 59, 61
3, 79484, Note_off_c, 1, 64, 64
3, 79484, Note_off_c, 1, 59, 64
3, 79488, Note_on_c, 1, 66, 61
3, 79488, Note_on_c, 1, 60, 61
3, 79868, Note_off_c, 1, 66, 64
3, 79868, Note_off_c, 1, 60, 64
3, 80832, Note_on_c, 1, 66, 61
3, 80832, Note_on_c, 1, 57, 61
3, 81020, Note_off_c, 1, 66, 64
3, 81020, Note_off_c, 1, 57, 64
3, 81024, Note_on_c, 1, 66, 61
3, 81024, Note_on_c, 1, 57, 61
3, 81212, Note_off_c, 1, 66, 64
3, 81212, Note_off_c, 1, 57, 64
3, 81216, Note_on_c, 1, 66, 61
3, 81216, Note_on_c, 1, 57, 61
3, 81404, Note_off_c, 1, 66, 64
3, 81404, Note_off_c, 1, 57, 64
3, 81408, Note_on_c, 1, 66, 61
3, 81408, Note_on_c, 1, 57, 61
3, 81596, Note_off_c, 1, 66, 64
3, 81596, Note_off_c, 1, 57, 64
3, 81600, Note_on_c, 1, 66, 61
3, 81600, Note_on_c, 1, 57, 61
3, 81788, Note_off_c, 1, 66, 64
3, 81788, Note_off_c, 1, 57, 64
3, 81792, Note_on_c, 1, 71, 61
3, 81792, Note_on_c, 1, 67, 61
3, 81792, Note_on_c, 1, 59, 61
3, 81980, Note_off_c, 1, 71, 64
3, 81980, Note_off_c, 1, 67, 64
3, 81980, Note_off_c, 1, 59, 64
3, 81984, Note_on_c, 1, 71, 61
3, 81984, Note_on_c, 1, 59, 61
3, 82172, Note_off_c, 1, 71, 64
3, 82172, Note_off_c, 1, 59, 64
3, 82176, Note_on_c, 1, 71, 61
3, 82176, Note_on_c, 1, 59, 61
3, 82364, Note_off_c, 1, 71, 64
3, 82364, Note_off_c, 1, 59, 64
3, 82368, Note_on_c, 1, 71, 61
3, 82368, Note_on_c, 1, 59, 61
3, 82556, Note_off_c, 1, 71, 64
3, 82556, Note_off_c, 1, 59, 64
3, 82560, Note_on_c, 1, 71, 61
3, 82560, Note_on_c, 1, 59, 61
3, 82940, Note_off_c, 1, 71, 64
3, 82940, Note_off_c, 1, 59, 64
3, 83136, Note_on_c, 1, 67, 61
3, 83136, Note_on_c, 1, 61, 61
3, 83324, Note_off_c, 1, 67, 64
3, 83324, Note_off_c, 1, 61, 64
3, 83328, Note_on_c, 1, 67, 61
3, 83328, Note_on_c, 1, 61, 61
3, 83516, Note_off_c, 1, 67, 64
3, 83516, Note_off_c, 1, 61, 64
3, 83520, Note_on_c, 1, 67, 61
3, 83520, Note_on_c, 1, 61, 61
3, 83708, Note_off_c, 1, 67, 64
3, 83708, Note_off_c, 1, 61, 64
3, 83712, Note_on_c, 1, 67, 61
3, 83712, Note_on_c, 1, 61, 61
3, 84092, Note_off_c, 1, 67, 64
3, 84092, Note_off_c, 1, 61, 64
3, 84288, Note_on_c, 1, 73, 61
3, 84288, Note_on_c, 1, 67, 61
3, 84288, Note_on_c, 1, 64, 61
3, 84476, Note_off_c, 1, 73, 64
3, 84476, Note_off_c, 1, 67, 64
3, 84476, Note_off_c, 1, 64, 64
3, 84480, Note_on_c, 1, 73, 61
3, 84480, Note_on_c, 1, 67, 61
3, 84480, Note_on_c, 1, 64, 61
3, 84668, Note_off_c, 1, 73, 64
3, 84668, Note_off_c, 1, 67, 64
3, 84668, Note_off_c, 1, 64, 64
3, 84672, Note_on_c, 1, 73, 61
3, 84672, Note_on_c, 1, 67, 61
3, 84672, Note_on_c, 1, 64, 61
3, 84860, Note_off_c, 1, 73, 64
3, 84860, Note_off_c, 1, 67, 64
3, 84860, Note_off_c, 1, 64, 64
3, 84864, Note_on_c, 1, 73, 61
3, 84864, Note_on_c, 1, 67, 61
3, 84864, Note_on_c, 1, 64, 61
3, 85244, Note_off_c, 1, 73, 64
3, 85244, Note_off_c, 1, 67, 64
3, 85244, Note_off_c, 1, 64, 64
3, 85632, Note_on_c, 1, 62, 82
3, 85632, Note_on_c, 1, 59, 82
3, 85632, Note_on_c, 1, 68, 82
3, 86396, Note_off_c, 1, 62, 64
3, 86396, Note_off_c, 1, 59, 64
3, 86400, Note_on_c, 1, 66, 61
3, 86400, Note_on_c, 1, 61, 61
3, 86400, Note_on_c, 1, 57, 61
3, 86404, Note_off_c, 1, 68, 64
3, 86588, Note_off_c, 1, 66, 64
3, 86588, Note_off_c, 1, 61, 64
3, 86588, Note_off_c, 1, 57, 64
3, 86592, Note_on_c, 1, 64, 61
3, 86972, Note_off_c, 1, 64, 64
3, 86976, Note_on_c, 1, 64, 61
3, 87164, Note_off_c, 1, 64, 64
3, 87168, Note_on_c, 1, 62, 61
3, 87356, Note_off_c, 1, 62, 64
3, 87360, Note_on_c, 1, 61, 61
3, 87548, Note_off_c, 1, 61, 64
3, 87552, Note_on_c, 1, 62, 61
3, 87552, Note_on_c, 1, 59, 61
3, 87932, Note_off_c, 1, 62, 64
3, 87932, Note_off_c, 1, 59, 64
3, 88320, Note_on_c, 1, 66, 61
3, 88320, Note_on_c, 1, 62, 61
3, 88320, Note_on_c, 1, 59, 61
3, 88700, Note_off_c, 1, 66, 64
3, 88700, Note_off_c, 1, 62, 64
3, 88700, Note_off_c, 1, 59, 64
3, 88704, Note_on_c, 1, 66, 61
3, 88704, Note_on_c, 1, 64, 61
3, 88704, Note_on_c, 1, 61, 61
3, 89084, Note_off_c, 1, 66, 64
3, 89084, Note_off_c, 1, 64, 64
3, 89084, Note_off_c, 1, 61, 64
3, 89472, Note_on_c, 1, 64, 61
3, 89472, Note_on_c, 1, 61, 61
3, 89472, Note_on_c, 1, 66, 61
3, 89852, Note_off_c, 1, 64, 64
3, 89852, Note_off_c, 1, 61, 64
3, 89852, Note_off_c, 1, 66, 64
3, 89856, Note_on_c, 1, 66, 61
3, 89856, Note_on_c, 1, 62, 61
3, 89856, Note_on_c, 1, 59, 61
3, 90236, Note_off_c, 1, 66, 64
3, 90236, Note_off_c, 1, 62, 64
3, 90236, Note_off_c, 1, 59, 64
3, 90624, Note_on_c, 1, 66, 61
3, 90624, Note_on_c, 1, 62, 61
3, 90624, Note_on_c, 1, 59, 61
3, 91004, Note_off_c, 1, 66, 64
3, 91004, Note_off_c, 1, 62, 64
3, 91004, Note_off_c, 1, 59, 64
3, 91008, Note_on_c, 1, 66, 61
3, 91008, Note_on_c, 1, 64, 61
3, 91008, Note_on_c, 1, 61, 61
3, 91388, Note_off_c, 1, 66, 64
3, 91388, Note_off_c, 1, 64, 64
3, 91388, Note_off_c, 1, 61, 64
3, 91776, Note_on_c, 1, 66, 61
3, 91776, Note_on_c, 1, 64, 61
3, 91776, Note_on_c, 1, 61, 61
3, 92156, Note_off_c, 1, 66, 64
3, 92156, Note_off_c, 1, 64, 64
3, 92156, Note_off_c, 1, 61, 64
3, 92160, Note_on_c, 1, 66, 61
3, 92160, Note_on_c, 1, 62, 61
3, 92160, Note_on_c, 1, 59, 61
3, 92540, Note_off_c, 1, 66, 64
3, 92540, Note_off_c, 1, 62, 64
3, 92540, Note_off_c, 1, 59, 64
3, 94656, Note_on_c, 1, 67, 74
3, 94844, Note_off_c, 1, 67, 64
3, 94848, Note_on_c, 1, 77, 74
3, 94848, Note_on_c, 1, 71, 74
3, 94848, Note_on_c, 1, 67, 74
3, 95036, Note_off_c, 1, 67, 64
3, 95040, Note_on_c, 1, 67, 74
3, 95228, Note_off_c, 1, 67, 64
3, 95232, Note_on_c, 1, 67, 74
3, 95420, Note_off_c, 1, 67, 64
3, 95424, Note_on_c, 1, 67, 74
3, 95612, Note_off_c, 1, 77, 64
3, 95612, Note_off_c, 1, 71, 64
3, 95612, Note_off_c, 1, 67, 64
3, 95616, Note_on_c, 1, 66, 74
3, 95616, Note_on_c, 1, 78, 74
3, 95616, Note_on_c, 1, 73, 74
3, 95804, Note_off_c, 1, 66, 64
3, 95808, Note_on_c, 1, 66, 74
3, 95996, Note_off_c, 1, 78, 64
3, 95996, Note_off_c, 1, 73, 64
3, 95996, Note_off_c, 1, 66, 64
3, 96000, Note_on_c, 1, 64, 74
3, 96000, Note_on_c, 1, 73, 74
3, 96000, Note_on_c, 1, 70, 74
3, 96188, Note_off_c, 1, 64, 64
3, 96192, Note_on_c, 1, 64, 74
3, 96380, Note_off_c, 1, 73, 64
3, 96380, Note_off_c, 1, 70, 64
3, 96380, Note_off_c, 1, 64, 64
3, 96384, Note_on_c, 1, 74, 74
3, 96384, Note_on_c, 1, 71, 74
3, 96384, Note_on_c, 1, 62, 74
3, 96572, Note_off_c, 1, 62, 64
3, 96576, Note_on_c, 1, 62, 74
3, 96764, Note_off_c, 1, 74, 64
3, 96764, Note_off_c, 1, 71, 64
3, 96764, Note_off_c, 1, 62, 64
3, 96768, Note_on_c, 1, 73, 74
3, 96768, Note_on_c, 1, 67, 74
3, 96768, Note_on_c, 1, 64, 74
3, 96956, Note_off_c, 1, 64, 64
3, 96960, Note_on_c, 1, 64, 74
3, 97148, Note_off_c, 1, 73, 64
3, 97148, Note_off_c, 1, 67, 64
3, 97148, Note_off_c, 1, 64, 64
3, 97152, Note_on_c, 1, 71, 74
3, 97152, Note_on_c, 1, 66, 74
3, 97340, Note_off_c, 1, 66, 64
3, 97344, Note_on_c, 1, 66, 74
3, 97532, Note_off_c, 1, 71, 64
3, 97532, Note_off_c, 1, 66, 64
3, 97536, Note_on_c, 1, 70, 74
3, 97536, Note_on_c, 1, 64, 74
3, 97916, Note_off_c, 1, 70, 64
3, 97916, Note_off_c, 1, 64, 64
3, 97920, Note_on_c, 1, 69, 74
3, 97920, Note_on_c, 1, 63, 74
3, 98108, Note_off_c, 1, 69, 64
3, 98108, Note_off_c, 1, 63, 64
3, 98112, Note_on_c, 1, 69, 74
3, 98112, Note_on_c, 1, 63, 74
3, 98300, Note_off_c, 1, 69, 64
3, 98300, Note_off_c, 1, 63, 64
3, 98304, Note_on_c, 1, 69, 74
3, 98304, Note_on_c, 1, 63, 74
3, 98492, Note_off_c, 1, 69, 64
3, 98492, Note_off_c, 1, 63, 64
3, 98496, Note_on_c, 1, 69, 74
3, 98496, Note_on_c, 1, 63, 74
3, 98684, Note_off_c, 1, 69, 64
3, 98684, Note_off_c, 1, 63, 64
3, 98688, Note_on_c, 1, 69, 74
3, 98688, Note_on_c, 1, 63, 74
3, 98876, Note_off_c, 1, 69, 64
3, 98876, Note_off_c, 1, 63, 64
3, 98880, Note_on_c, 1, 69, 74
3, 98880, Note_on_c, 1, 63, 74
3, 99068, Note_off_c, 1, 69, 64
3, 99068, Note_off_c, 1, 63, 64
3, 99072, Note_on_c, 1, 67, 74
3, 99072, Note_on_c, 1, 64, 74
3, 99072, Note_on_c, 1, 59, 74
3, 99260, Note_off_c, 1, 67, 64
3, 99260, Note_off_c, 1, 64, 64
3, 99260, Note_off_c, 1, 59, 64
3, 99264, Note_on_c, 1, 67, 74
3, 99264, Note_on_c, 1, 64, 74
3, 99264, Note_on_c, 1, 59, 74
3, 99452, Note_off_c, 1, 67, 64
3, 99452, Note_off_c, 1, 64, 64
3, 99452, Note_off_c, 1, 59, 64
3, 99456, Note_on_c, 1, 65, 74
3, 99456, Note_on_c, 1, 59, 74
3, 99644, Note_off_c, 1, 65, 64
3, 99644, Note_off_c, 1, 59, 64
3, 99648, Note_on_c, 1, 65, 74
3, 99648, Note_on_c, 1, 59, 74
3, 99836, Note_off_c, 1, 65, 64
3, 99836, Note_off_c, 1, 59, 64
3, 99840, Note_on_c, 1, 65, 74
3, 99840, Note_on_c, 1, 59, 74
3, 100028, Note_off_c, 1, 65, 64
3, 100028, Note_off_c, 1, 59, 64
3, 100032, Note_on_c, 1, 65, 74
3, 100032, Note_on_c, 1, 59, 74
3, 100220, Note_off_c, 1, 65, 64
3, 100220, Note_off_c, 1, 59, 64
3, 100224, Note_on_c, 1, 66, 74
3, 100224, Note_on_c, 1, 61, 74
3, 100224, Note_on_c, 1, 58, 74
3, 100412, Note_off_c, 1, 66, 64
3, 100412, Note_off_c, 1, 61, 64
3, 100412, Note_off_c, 1, 58, 64
3, 100416, Note_on_c, 1, 66, 74
3, 100416, Note_on_c, 1, 61, 74
3, 100416, Note_on_c, 1, 58, 74
3, 100604, Note_off_c, 1, 66, 64
3, 100604, Note_off_c, 1, 61, 64
3, 100604, Note_off_c, 1, 58, 64
3, 100608, Note_on_c, 1, 61, 74
3, 100608, Note_on_c, 1, 58, 74
3, 100796, Note_off_c, 1, 61, 64
3, 100796, Note_off_c, 1, 58, 64
3, 100800, Note_on_c, 1, 61, 74
3, 100800, Note_on_c, 1, 58, 74
3, 100988, Note_off_c, 1, 61, 64
3, 100988, Note_off_c, 1, 58, 64
3, 100992, Note_on_c, 1, 62, 74
3, 100992, Note_on_c, 1, 59, 74
3, 101180, Note_off_c, 1, 62, 64
3, 101180, Note_off_c, 1, 59, 64
3, 101184, Note_on_c, 1, 62, 74
3, 101184, Note_on_c, 1, 59, 74
3, 101372, Note_off_c, 1, 62, 64
3, 101372, Note_off_c, 1, 59, 64
3, 102528, Note_on_c, 1, 74, 82
3, 102528, Note_on_c, 1, 71, 82
3, 102528, Note_on_c, 1, 83, 82
3, 103292, Note_off_c, 1, 74, 64
3, 103292, Note_off_c, 1, 71, 64
3, 103292, Note_off_c, 1, 83, 64
3, 103680, Note_on_c, 1, 78, 61
3, 104252, Note_off_c, 1, 78, 64
3, 104256, Note_on_c, 1, 79, 61
3, 104444, Note_off_c, 1, 79, 64
3, 104448, Note_on_c, 1, 80, 61
3, 104636, Note_off_c, 1, 80, 64
3, 104640, Note_on_c, 1, 81, 61
3, 104828, Note_off_c, 1, 81, 64
3, 104832, Note_on_c, 1, 83, 61
3, 105020, Note_off_c, 1, 83, 64
3, 105024, Note_on_c, 1, 81, 61
3, 105212, Note_off_c, 1, 81, 64
3, 105216, Note_on_c, 1, 79, 61
3, 105404, Note_off_c, 1, 79, 64
3, 105408, Note_on_c, 1, 78, 61
3, 105596, Note_off_c, 1, 78, 64
3, 105600, Note_on_c, 1, 76, 61
3, 105788, Note_off_c, 1, 76, 64
3, 105792, Note_on_c, 1, 74, 61
3, 105980, Note_off_c, 1, 74, 64
3, 105984, Note_on_c, 1, 76, 61
3, 106364, Note_off_c, 1, 76, 64
3, 106368, Note_on_c, 1, 76, 61
3, 106748, Note_off_c, 1, 76, 64
3, 106752, Note_on_c, 1, 78, 61
3, 107132, Note_off_c, 1, 78, 64
3, 107136, Note_on_c, 1, 78, 61
3, 107420, Note_off_c, 1, 78, 64
3, 107424, Note_on_c, 1, 79, 61
3, 107516, Note_off_c, 1, 79, 64
3, 107520, Note_on_c, 1, 76, 61
3, 107900, Note_off_c, 1, 76, 64
3, 108288, Note_on_c, 1, 74, 61
3, 108476, Note_off_c, 1, 74, 64
3, 108480, Note_on_c, 1, 76, 61
3, 108668, Note_off_c, 1, 76, 64
3, 108672, Note_on_c, 1, 78, 61
3, 108860, Note_off_c, 1, 78, 64
3, 108864, Note_on_c, 1, 74, 61
3, 109052, Note_off_c, 1, 74, 64
3, 109056, Note_on_c, 1, 73, 61
3, 109244, Note_off_c, 1, 73, 64
3, 109248, Note_on_c, 1, 69, 61
3, 109436, Note_off_c, 1, 69, 64
3, 109440, Note_on_c, 1, 74, 61
3, 109628, Note_off_c, 1, 74, 64
3, 109632, Note_on_c, 1, 76, 61
3, 109820, Note_off_c, 1, 76, 64
3, 109824, Note_on_c, 1, 78, 61
3, 110012, Note_off_c, 1, 78, 64
3, 110016, Note_on_c, 1, 74, 61
3, 110204, Note_off_c, 1, 74, 64
3, 110208, Note_on_c, 1, 73, 61
3, 110396, Note_off_c, 1, 73, 64
3, 110400, Note_on_c, 1, 69, 61
3, 110588, Note_off_c, 1, 69, 64
3, 110592, Note_on_c, 1, 74, 61
3, 110780, Note_off_c, 1, 74, 64
3, 110784, Note_on_c, 1, 78, 61
3, 110972, Note_off_c, 1, 78, 64
3, 110976, Note_on_c, 1, 81, 61
3, 111164, Note_off_c, 1, 81, 64
3, 111168, Note_on_c, 1, 78, 61
3, 111356, Note_off_c, 1, 78, 64
3, 111360, Note_on_c, 1, 83, 61
3, 111548, Note_off_c, 1, 83, 64
3, 111552, Note_on_c, 1, 79, 61
3, 111740, Note_off_c, 1, 79, 64
3, 111744, Note_on_c, 1, 78, 61
3, 112508, Note_off_c, 1, 78, 64
3, 112512, Note_on_c, 1, 76, 61
3, 112892, Note_off_c, 1, 76, 64
3, 112896, Note_on_c, 1, 78, 82
3, 112896, Note_on_c, 1, 74, 82
3, 113468, Note_off_c, 1, 78, 64
3, 113468, Note_off_c, 1, 74, 64
3, 113472, Note_on_c, 1, 76, 82
3, 113472, Note_on_c, 1, 79, 82
3, 113660, Note_off_c, 1, 76, 64
3, 113660, Note_off_c, 1, 79, 64
3, 113664, Note_on_c, 1, 80, 82
3, 113664, Note_on_c, 1, 77, 82
3, 113852, Note_off_c, 1, 80, 64
3, 113852, Note_off_c, 1, 77, 64
3, 113856, Note_on_c, 1, 78, 82
3, 113856, Note_on_c, 1, 81, 82
3, 114044, Note_off_c, 1, 78, 64
3, 114044, Note_off_c, 1, 81, 64
3, 114048, Note_on_c, 1, 83, 82
3, 114048, Note_on_c, 1, 78, 82
3, 114048, Note_on_c, 1, 74, 82
3, 114236, Note_off_c, 1, 83, 64
3, 114240, Note_on_c, 1, 81, 82
3, 114428, Note_off_c, 1, 78, 64
3, 114428, Note_off_c, 1, 74, 64
3, 114428, Note_off_c, 1, 81, 64
3, 114432, Note_on_c, 1, 79, 82
3, 114620, Note_off_c, 1, 79, 64
3, 114624, Note_on_c, 1, 78, 82
3, 114812, Note_off_c, 1, 78, 64
3, 114816, Note_on_c, 1, 76, 82
3, 115004, Note_off_c, 1, 76, 64
3, 115008, Note_on_c, 1, 74, 82
3, 115196, Note_off_c, 1, 74, 64
3, 115200, Note_on_c, 1, 76, 82
3, 115200, Note_on_c, 1, 73, 82
3, 115200, Note_on_c, 1, 69, 82
3, 115580, Note_off_c, 1, 76, 64
3, 115580, Note_off_c, 1, 73, 64
3, 115580, Note_off_c, 1, 69, 64
3, 115584, Note_on_c, 1, 76, 82
3, 115584, Note_on_c, 1, 73, 82
3, 115584, Note_on_c, 1, 64, 82
3, 115964, Note_off_c, 1, 76, 64
3, 115964, Note_off_c, 1, 73, 64
3, 115964, Note_off_c, 1, 64, 64
3, 115968, Note_on_c, 1, 78, 82
3, 115968, Note_on_c, 1, 66, 82
3, 115968, Note_on_c, 1, 74, 82
3, 116348, Note_off_c, 1, 78, 64
3, 116348, Note_off_c, 1, 66, 64
3, 116348, Note_off_c, 1, 74, 64
3, 116352, Note_on_c, 1, 78, 82
3, 116352, Note_on_c, 1, 74, 82
3, 116352, Note_on_c, 1, 66, 82
3, 116636, Note_off_c, 1, 78, 64
3, 116636, Note_off_c, 1, 74, 64
3, 116636, Note_off_c, 1, 66, 64
3, 116640, Note_on_c, 1, 79, 82
3, 116640, Note_on_c, 1, 76, 82
3, 116640, Note_on_c, 1, 67, 82
3, 116732, Note_off_c, 1, 79, 64
3, 116732, Note_off_c, 1, 76, 64
3, 116732, Note_off_c, 1, 67, 64
3, 116736, Note_on_c, 1, 76, 82
3, 116736, Note_on_c, 1, 73, 82
3, 116736, Note_on_c, 1, 64, 82
3, 117116, Note_off_c, 1, 76, 64
3, 117116, Note_off_c, 1, 73, 64
3, 117116, Note_off_c, 1, 64, 64
3, 117120, Note_on_c, 1, 69, 82
3, 117500, Note_off_c, 1, 69, 64
3, 117504, Note_on_c, 1, 74, 82
3, 117692, Note_off_c, 1, 74, 64
3, 117696, Note_on_c, 1, 86, 82
3, 117884, Note_off_c, 1, 86, 64
3, 117888, Note_on_c, 1, 85, 82
3, 118076, Note_off_c, 1, 85, 64
3, 118080, Note_on_c, 1, 86, 82
3, 118268, Note_off_c, 1, 86, 64
3, 118272, Note_on_c, 1, 83, 82
3, 118460, Note_off_c, 1, 83, 64
3, 118464, Note_on_c, 1, 85, 82
3, 118652, Note_off_c, 1, 85, 64
3, 118656, Note_on_c, 1, 76, 82
3, 118656, Note_on_c, 1, 81, 82
3, 118844, Note_off_c, 1, 81, 64
3, 118848, Note_on_c, 1, 83, 82
3, 119036, Note_off_c, 1, 76, 64
3, 119036, Note_off_c, 1, 83, 64
3, 119040, Note_on_c, 1, 73, 82
3, 119040, Note_on_c, 1, 79, 82
3, 119228, Note_off_c, 1, 79, 64
3, 119232, Note_on_c, 1, 81, 82
3, 119420, Note_off_c, 1, 73, 64
3, 119420, Note_off_c, 1, 81, 64
3, 119424, Note_on_c, 1, 74, 82
3, 119424, Note_on_c, 1, 78, 82
3, 119612, Note_off_c, 1, 78, 64
3, 119616, Note_on_c, 1, 79, 82
3, 119804, Note_off_c, 1, 74, 64
3, 119804, Note_off_c, 1, 79, 64
3, 119808, Note_on_c, 1, 71, 82
3, 119808, Note_on_c, 1, 78, 82
3, 119996, Note_off_c, 1, 78, 64
3, 120000, Note_on_c, 1, 76, 82
3, 120188, Note_off_c, 1, 76, 64
3, 120192, Note_on_c, 1, 79, 82
3, 120380, Note_off_c, 1, 71, 64
3, 120380, Note_off_c, 1, 79, 64
3, 120384, Note_on_c, 1, 76, 82
3, 120384, Note_on_c, 1, 67, 82
3, 120572, Note_off_c, 1, 76, 64
3, 120572, Note_off_c, 1, 67, 64
3, 120576, Note_on_c, 1, 66, 82
3, 120576, Note_on_c, 1, 74, 82
3, 120764, Note_off_c, 1, 66, 64
3, 120764, Note_off_c, 1, 74, 64
3, 120768, Note_on_c, 1, 73, 82
3, 120768, Note_on_c, 1, 67, 82
3, 120768, Note_on_c, 1, 64, 82
3, 120956, Note_off_c, 1, 73, 64
3, 120956, Note_off_c, 1, 67, 64
3, 120956, Note_off_c, 1, 64, 64
3, 120960, Note_on_c, 1, 73, 82
3, 120960, Note_on_c, 1, 67, 82
3, 121148, Note_off_c, 1, 73, 64
3, 121148, Note_off_c, 1, 67, 64
3, 121152, Note_on_c, 1, 74, 82
3, 121152, Note_on_c, 1, 66, 82
3, 121340, Note_off_c, 1, 74, 64
3, 121340, Note_off_c, 1, 66, 64
3, 121344, Note_on_c, 1, 62, 82
3, 121532, Note_off_c, 1, 62, 64
3, 122304, Note_on_c, 1, 65, 82
3, 122492, Note_off_c, 1, 65, 64
3, 122496, Note_on_c, 1, 69, 82
3, 122684, Note_off_c, 1, 69, 64
3, 122688, Note_on_c, 1, 74, 82
3, 122876, Note_off_c, 1, 74, 64
3, 122880, Note_on_c, 1, 77, 82
3, 122880, Note_on_c, 1, 69, 82
3, 123068, Note_off_c, 1, 77, 64
3, 123068, Note_off_c, 1, 69, 64
3, 123072, Note_on_c, 1, 81, 82
3, 123260, Note_off_c, 1, 81, 64
3, 123456, Note_on_c, 1, 67, 61
3, 123644, Note_off_c, 1, 67, 64
3, 123648, Note_on_c, 1, 70, 61
3, 123836, Note_off_c, 1, 70, 64
3, 123840, Note_on_c, 1, 74, 61
3, 124028, Note_off_c, 1, 74, 64
3, 124032, Note_on_c, 1, 79, 82
3, 124032, Note_on_c, 1, 70, 82
3, 124220, Note_off_c, 1, 79, 64
3, 124220, Note_off_c, 1, 70, 64
3, 124224, Note_on_c, 1, 82, 82
3, 124412, Note_off_c, 1, 82, 64
3, 124608, Note_on_c, 1, 64, 61
3, 124796, Note_off_c, 1, 64, 64
3, 124800, Note_on_c, 1, 67, 61
3, 124988, Note_off_c, 1, 67, 64
3, 124992, Note_on_c, 1, 72, 61
3, 125180, Note_off_c, 1, 72, 64
3, 125184, Note_on_c, 1, 76, 82
3, 125184, Note_on_c, 1, 67, 61
3, 125372, Note_off_c, 1, 76, 64
3, 125372, Note_off_c, 1, 67, 64
3, 125376, Note_on_c, 1, 79, 82
3, 125564, Note_off_c, 1, 79, 64
3, 125760, Note_on_c, 1, 65, 61
3, 125948, Note_off_c, 1, 65, 64
3, 125952, Note_on_c, 1, 69, 61
3, 126140, Note_off_c, 1, 69, 64
3, 126144, Note_on_c, 1, 72, 61
3, 126332, Note_off_c, 1, 72, 64
3, 126336, Note_on_c, 1, 77, 82
3, 126336, Note_on_c, 1, 69, 61
3, 126524, Note_off_c, 1, 77, 64
3, 126524, Note_off_c, 1, 69, 64
3, 126528, Note_on_c, 1, 81, 82
3, 126716, Note_off_c, 1, 81, 64
3, 126912, Note_on_c, 1, 62, 61
3, 127100, Note_off_c, 1, 62, 64
3, 127104, Note_on_c, 1, 65, 61
3, 127292, Note_off_c, 1, 65, 64
3, 127296, Note_on_c, 1, 70, 61
3, 127484, Note_off_c, 1, 70, 64
3, 127488, Note_on_c, 1, 74, 82
3, 127488, Note_on_c, 1, 65, 82
3, 127676, Note_off_c, 1, 74, 64
3, 127676, Note_off_c, 1, 65, 64
3, 127680, Note_on_c, 1, 77, 82
3, 127868, Note_off_c, 1, 77, 64
3, 128064, Note_on_c, 1, 64, 61
3, 128252, Note_off_c, 1, 64, 64
3, 128256, Note_on_c, 1, 67, 61
3, 128444, Note_off_c, 1, 67, 64
3, 128448, Note_on_c, 1, 70, 61
3, 128636, Note_off_c, 1, 70, 64
3, 128640, Note_on_c, 1, 76, 82
3, 128640, Note_on_c, 1, 67, 61
3, 128828, Note_off_c, 1, 76, 64
3, 128828, Note_off_c, 1, 67, 64
3, 128832, Note_on_c, 1, 79, 82
3, 129020, Note_off_c, 1, 79, 64
3, 129408, Note_on_c, 1, 64, 61
3, 129788, Note_off_c, 1, 64, 64
3, 129792, Note_on_c, 1, 61, 61
3, 130172, Note_off_c, 1, 61, 64
3, 130176, Note_on_c, 1, 62, 61
3, 130556, Note_off_c, 1, 62, 64
3, 130560, Note_on_c, 1, 58, 61
3, 130940, Note_off_c, 1, 58, 64
3, 130944, Note_on_c, 1, 56, 61
3, 131324, Note_off_c, 1, 56, 64
3, 131328, Note_on_c, 1, 57, 61
3, 131708, Note_off_c, 1, 57, 64
3, 132480, Note_on_c, 1, 64, 61
3, 132860, Note_off_c, 1, 64, 64
3, 132864, Note_on_c, 1, 62, 61
3, 132908, Note_off_c, 1, 62, 64
3, 132912, Note_on_c, 1, 64, 61
3, 132956, Note_off_c, 1, 64, 64
3, 132960, Note_on_c, 1, 62, 60
3, 133004, Note_off_c, 1, 62, 64
3, 133008, Note_on_c, 1, 64, 60
3, 133052, Note_off_c, 1, 64, 64
3, 133056, Note_on_c, 1, 62, 60
3, 133100, Note_off_c, 1, 62, 64
3, 133104, Note_on_c, 1, 64, 60
3, 133148, Note_off_c, 1, 64, 64
3, 133152, Note_on_c, 1, 62, 60
3, 133196, Note_off_c, 1, 62, 64
3, 133200, Note_on_c, 1, 64, 60
3, 133244, Note_off_c, 1, 64, 64
3, 133248, Note_on_c, 1, 62, 60
3, 133292, Note_off_c, 1, 62, 64
3, 133296, Note_on_c, 1, 64, 60
3, 133340, Note_off_c, 1, 64, 64
3, 133344, Note_on_c, 1, 62, 60
3, 133388, Note_off_c, 1, 62, 64
3, 133392, Note_on_c, 1, 64, 60
3, 133436, Note_off_c, 1, 64, 64
3, 133440, Note_on_c, 1, 61, 58
3, 133532, Note_off_c, 1, 61, 64
3, 133536, Note_on_c, 1, 62, 58
3, 133628, Note_off_c, 1, 62, 64
3, 133632, Note_on_c, 1, 61, 58
3, 134012, Note_off_c, 1, 61, 64
3, 134784, Note_on_c, 1, 76, 55
3, 135164, Note_off_c, 1, 76, 64
3, 135168, Note_on_c, 1, 74, 55
3, 135212, Note_off_c, 1, 74, 64
3, 135216, Note_on_c, 1, 76, 55
3, 135260, Note_off_c, 1, 76, 64
3, 135264, Note_on_c, 1, 74, 55
3, 135308, Note_off_c, 1, 74, 64
3, 135312, Note_on_c, 1, 76, 55
3, 135356, Note_off_c, 1, 76, 64
3, 135360, Note_on_c, 1, 74, 55
3, 135404, Note_off_c, 1, 74, 64
3, 135408, Note_on_c, 1, 76, 55
3, 135452, Note_off_c, 1, 76, 64
3, 135456, Note_on_c, 1, 74, 55
3, 135500, Note_off_c, 1, 74, 64
3, 135504, Note_on_c, 1, 76, 55
3, 135548, Note_off_c, 1, 76, 64
3, 135552, Note_on_c, 1, 74, 55
3, 135596, Note_off_c, 1, 74, 64
3, 135600, Note_on_c, 1, 76, 55
3, 135644, Note_off_c, 1, 76, 64
3, 135648, Note_on_c, 1, 74, 55
3, 135692, Note_off_c, 1, 74, 64
3, 135696, Note_on_c, 1, 76, 55
3, 135740, Note_off_c, 1, 76, 64
3, 135744, Note_on_c, 1, 73, 55
3, 135836, Note_off_c, 1, 73, 64
3, 135840, Note_on_c, 1, 74, 55
3, 135932, Note_off_c, 1, 74, 64
3, 135936, Note_on_c, 1, 73, 55
3, 136316, Note_off_c, 1, 73, 64
3, 137280, Note_on_c, 1, 62, 68
3, 137468, Note_off_c, 1, 62, 64
3, 137472, Note_on_c, 1, 66, 68
3, 137472, Note_on_c, 1, 69, 68
3, 137660, Note_off_c, 1, 66, 64
3, 137660, Note_off_c, 1, 69, 64
3, 137664, Note_on_c, 1, 62, 68
3, 137852, Note_off_c, 1, 62, 64
3, 137856, Note_on_c, 1, 66, 68
3, 137856, Note_on_c, 1, 69, 68
3, 138044, Note_off_c, 1, 66, 64
3, 138044, Note_off_c, 1, 69, 64
3, 138048, Note_on_c, 1, 62, 68
3, 138236, Note_off_c, 1, 62, 64
3, 138432, Note_on_c, 1, 62, 68
3, 138620, Note_off_c, 1, 62, 64
3, 138624, Note_on_c, 1, 69, 68
3, 138624, Note_on_c, 1, 66, 68
3, 138812, Note_off_c, 1, 69, 64
3, 138812, Note_off_c, 1, 66, 64
3, 138816, Note_on_c, 1, 62, 68
3, 139004, Note_off_c, 1, 62, 64
3, 139008, Note_on_c, 1, 66, 68
3, 139008, Note_on_c, 1, 69, 68
3, 139196, Note_off_c, 1, 66, 64
3, 139196, Note_off_c, 1, 69, 64
3, 139200, Note_on_c, 1, 62, 68
3, 139388, Note_off_c, 1, 62, 64
3, 139584, Note_on_c, 1, 69, 68
3, 139584, Note_on_c, 1, 66, 68
3, 139584, Note_on_c, 1, 62, 68
3, 139772, Note_off_c, 1, 69, 64
3, 139772, Note_off_c, 1, 66, 64
3, 139772, Note_off_c, 1, 62, 64
3, 139776, Note_on_c, 1, 69, 68
3, 139776, Note_on_c, 1, 66, 68
3, 139776, Note_on_c, 1, 62, 68
3, 139964, Note_off_c, 1, 69, 64
3, 139964, Note_off_c, 1, 66, 64
3, 139964, Note_off_c, 1, 62, 64
3, 139968, Note_on_c, 1, 69, 68
3, 139968, Note_on_c, 1, 66, 68
3, 139968, Note_on_c, 1, 62, 68
3, 140156, Note_off_c, 1, 69, 64
3, 140156, Note_off_c, 1, 66, 64
3, 140156, Note_off_c, 1, 62, 64
3, 140160, Note_on_c, 1, 69, 68
3, 140160, Note_on_c, 1, 66, 68
3, 140160, Note_on_c, 1, 62, 68
3, 140348, Note_off_c, 1, 69, 64
3, 140348, Note_off_c, 1, 66, 64
3, 140348, Note_off_c, 1, 62, 64
3, 140352, Note_on_c, 1, 69, 68
3, 140352, Note_on_c, 1, 66, 68
3, 140352, Note_on_c, 1, 62, 68
3, 140540, Note_off_c, 1, 69, 64
3, 140540, Note_off_c, 1, 66, 64
3, 140540, Note_off_c, 1, 62, 64
3, 140736, Note_on_c, 1, 69, 68
3, 140736, Note_on_c, 1, 67, 68
3, 140736, Note_on_c, 1, 64, 68
3, 140924, Note_off_c, 1, 69, 64
3, 140924, Note_off_c, 1, 67, 64
3, 140924, Note_off_c, 1, 64, 64
3, 140928, Note_on_c, 1, 69, 68
3, 140928, Note_on_c, 1, 67, 68
3, 140928, Note_on_c, 1, 64, 68
3, 141116, Note_off_c, 1, 69, 64
3, 141116, Note_off_c, 1, 67, 64
3, 141116, Note_off_c, 1, 64, 64
3, 141120, Note_on_c, 1, 69, 68
3, 141120, Note_on_c, 1, 67, 68
3, 141120, Note_on_c, 1, 64, 68
3, 141308, Note_off_c, 1, 69, 64
3, 141308, Note_off_c, 1, 67, 64
3, 141308, Note_off_c, 1, 64, 64
3, 141312, Note_on_c, 1, 69, 68
3, 141312, Note_on_c, 1, 67, 68
3, 141312, Note_on_c, 1, 64, 68
3, 141500, Note_off_c, 1, 69, 64
3, 141500, Note_off_c, 1, 67, 64
3, 141500, Note_off_c, 1, 64, 64
3, 141504, Note_on_c, 1, 69, 68
3, 141504, Note_on_c, 1, 67, 68
3, 141504, Note_on_c, 1, 64, 68
3, 141692, Note_off_c, 1, 69, 64
3, 141692, Note_off_c, 1, 67, 64
3, 141692, Note_off_c, 1, 64, 64
3, 141696, Note_on_c, 1, 73, 68
3, 141696, Note_on_c, 1, 69, 68
3, 141696, Note_on_c, 1, 67, 68
3, 141696, Note_on_c, 1, 64, 68
3, 142076, Note_off_c, 1, 73, 64
3, 142076, Note_off_c, 1, 69, 64
3, 142076, Note_off_c, 1, 67, 64
3, 142076, Note_off_c, 1, 64, 64
3, 142848, Note_on_c, 1, 64, 68
3, 142848, Note_on_c, 1, 61, 68
3, 142940, Note_off_c, 1, 64, 64
3, 142940, Note_off_c, 1, 61, 64
3, 143040, Note_on_c, 1, 66, 68
3, 143040, Note_on_c, 1, 62, 68
3, 143132, Note_off_c, 1, 66, 64
3, 143132, Note_off_c, 1, 62, 64
3, 143232, Note_on_c, 1, 67, 68
3, 143232, Note_on_c, 1, 61, 68
3, 143324, Note_off_c, 1, 67, 64
3, 143324, Note_off_c, 1, 61, 64
3, 144000, Note_on_c, 1, 64, 68
3, 144000, Note_on_c, 1, 61, 68
3, 144380, Note_off_c, 1, 64, 64
3, 144380, Note_off_c, 1, 61, 64
3, 145728, Note_on_c, 1, 74, 68
3, 145728, Note_on_c, 1, 69, 68
3, 145728, Note_on_c, 1, 66, 68
3, 145916, Note_off_c, 1, 74, 64
3, 145916, Note_off_c, 1, 69, 64
3, 145916, Note_off_c, 1, 66, 64
3, 145920, Note_on_c, 1, 64, 68
3, 145920, Note_on_c, 1, 67, 68
3, 145920, Note_on_c, 1, 73, 68
3, 146108, Note_off_c, 1, 64, 64
3, 146108, Note_off_c, 1, 67, 64
3, 146108, Note_off_c, 1, 73, 64
3, 146112, Note_on_c, 1, 74, 68
3, 146112, Note_on_c, 1, 62, 68
3, 146112, Note_on_c, 1, 66, 68
3, 146300, Note_off_c, 1, 74, 64
3, 146300, Note_off_c, 1, 62, 64
3, 146300, Note_off_c, 1, 66, 64
3, 146304, Note_on_c, 1, 57, 68
3, 146304, Note_on_c, 1, 73, 68
3, 146304, Note_on_c, 1, 69, 68
3, 146304, Note_on_c, 1, 67, 68
3, 146304, Note_on_c, 1, 64, 68
3, 146684, Note_off_c, 1, 57, 64
3, 146684, Note_off_c, 1, 73, 64
3, 146684, Note_off_c, 1, 69, 64
3, 146684, Note_off_c, 1, 67, 64
3, 146684, Note_off_c, 1, 64, 64
3, 147456, Note_on_c, 1, 64, 68
3, 147456, Note_on_c, 1, 61, 68
3, 147644, Note_off_c, 1, 64, 64
3, 147644, Note_off_c, 1, 61, 64
3, 147648, Note_on_c, 1, 66, 68
3, 147648, Note_on_c, 1, 62, 68
3, 147836, Note_off_c, 1, 66, 64
3, 147836, Note_off_c, 1, 62, 64
3, 147840, Note_on_c, 1, 67, 68
3, 147840, Note_on_c, 1, 61, 68
3, 148028, Note_off_c, 1, 67, 64
3, 148028, Note_off_c, 1, 61, 64
3, 148608, Note_on_c, 1, 64, 68
3, 148608, Note_on_c, 1, 61, 68
3, 148988, Note_off_c, 1, 64, 64
3, 148988, Note_off_c, 1, 61, 64
3, 149184, Note_on_c, 1, 73, 68
3, 149372, Note_off_c, 1, 73, 64
3, 149376, Note_on_c, 1, 74, 68
3, 149564, Note_off_c, 1, 74, 64
3, 149568, Note_on_c, 1, 76, 68
3, 149756, Note_off_c, 1, 76, 64
3, 149760, Note_on_c, 1, 69, 68
3, 149948, Note_off_c, 1, 69, 64
3, 149952, Note_on_c, 1, 69, 68
3, 149952, Note_on_c, 1, 66, 68
3, 149952, Note_on_c, 1, 62, 68
3, 150140, Note_off_c, 1, 69, 64
3, 150140, Note_off_c, 1, 66, 64
3, 150140, Note_off_c, 1, 62, 64
3, 150144, Note_on_c, 1, 69, 68
3, 150144, Note_on_c, 1, 66, 68
3, 150144, Note_on_c, 1, 62, 68
3, 150332, Note_off_c, 1, 69, 64
3, 150332, Note_off_c, 1, 66, 64
3, 150332, Note_off_c, 1, 62, 64
3, 150336, Note_on_c, 1, 69, 68
3, 150336, Note_on_c, 1, 66, 68
3, 150336, Note_on_c, 1, 62, 68
3, 150524, Note_off_c, 1, 69, 64
3, 150524, Note_off_c, 1, 66, 64
3, 150524, Note_off_c, 1, 62, 64
3, 150528, Note_on_c, 1, 69, 68
3, 150528, Note_on_c, 1, 66, 68
3, 150716, Note_off_c, 1, 69, 64
3, 150716, Note_off_c, 1, 66, 64
3, 150720, Note_on_c, 1, 69, 68
3, 150720, Note_on_c, 1, 66, 68
3, 150908, Note_off_c, 1, 69, 64
3, 150908, Note_off_c, 1, 66, 64
3, 151088, Note_on_c, 1, 64, 68
3, 151104, Note_on_c, 1, 69, 68
3, 151104, Note_on_c, 1, 67, 68
3, 151276, Note_off_c, 1, 64, 64
3, 151292, Note_off_c, 1, 69, 64
3, 151292, Note_off_c, 1, 67, 64
3, 151296, Note_on_c, 1, 69, 68
3, 151296, Note_on_c, 1, 67, 68
3, 151296, Note_on_c, 1, 64, 68
3, 151484, Note_off_c, 1, 69, 64
3, 151484, Note_off_c, 1, 67, 64
3, 151484, Note_off_c, 1, 64, 64
3, 151488, Note_on_c, 1, 69, 68
3, 151488, Note_on_c, 1, 67, 68
3, 151488, Note_on_c, 1, 64, 68
3, 151676, Note_off_c, 1, 69, 64
3, 151676, Note_off_c, 1, 67, 64
3, 151676, Note_off_c, 1, 64, 64
3, 151680, Note_on_c, 1, 69, 68
3, 151680, Note_on_c, 1, 67, 68
3, 151680, Note_on_c, 1, 64, 68
3, 151868, Note_off_c, 1, 69, 64
3, 151868, Note_off_c, 1, 67, 64
3, 151868, Note_off_c, 1, 64, 64
3, 151872, Note_on_c, 1, 69, 68
3, 151872, Note_on_c, 1, 67, 68
3, 151872, Note_on_c, 1, 64, 68
3, 152060, Note_off_c, 1, 69, 64
3, 152060, Note_off_c, 1, 67, 64
3, 152060, Note_off_c, 1, 64, 64
3, 152256, Note_on_c, 1, 69, 61
3, 152256, Note_on_c, 1, 66, 61
3, 152256, Note_on_c, 1, 62, 61
3, 152444, Note_off_c, 1, 69, 64
3, 152444, Note_off_c, 1, 66, 64
3, 152444, Note_off_c, 1, 62, 64
3, 152448, Note_on_c, 1, 69, 61
3, 152448, Note_on_c, 1, 66, 61
3, 152448, Note_on_c, 1, 62, 61
3, 152636, Note_off_c, 1, 69, 64
3, 152636, Note_off_c, 1, 66, 64
3, 152636, Note_off_c, 1, 62, 64
3, 152640, Note_on_c, 1, 69, 61
3, 152640, Note_on_c, 1, 66, 61
3, 152640, Note_on_c, 1, 62, 61
3, 152828, Note_off_c, 1, 69, 64
3, 152828, Note_off_c, 1, 66, 64
3, 152828, Note_off_c, 1, 62, 64
3, 152832, Note_on_c, 1, 69, 61
3, 152832, Note_on_c, 1, 66, 61
3, 153020, Note_off_c, 1, 69, 64
3, 153020, Note_off_c, 1, 66, 64
3, 153024, Note_on_c, 1, 69, 61
3, 153024, Note_on_c, 1, 66, 61
3, 153212, Note_off_c, 1, 69, 64
3, 153212, Note_off_c, 1, 66, 64
3, 153408, Note_on_c, 1, 69, 61
3, 153408, Note_on_c, 1, 67, 61
3, 153408, Note_on_c, 1, 64, 61
3, 153596, Note_off_c, 1, 69, 64
3, 153596, Note_off_c, 1, 67, 64
3, 153596, Note_off_c, 1, 64, 64
3, 153600, Note_on_c, 1, 69, 61
3, 153600, Note_on_c, 1, 67, 61
3, 153600, Note_on_c, 1, 64, 61
3, 153788, Note_off_c, 1, 69, 64
3, 153788, Note_off_c, 1, 67, 64
3, 153788, Note_off_c, 1, 64, 64
3, 153792, Note_on_c, 1, 69, 61
3, 153792, Note_on_c, 1, 67, 61
3, 153792, Note_on_c, 1, 64, 61
3, 153980, Note_off_c, 1, 69, 64
3, 153980, Note_off_c, 1, 67, 64
3, 153980, Note_off_c, 1, 64, 64
3, 153984, Note_on_c, 1, 69, 61
3, 153984, Note_on_c, 1, 67, 61
3, 153984, Note_on_c, 1, 64, 61
3, 154172, Note_off_c, 1, 69, 64
3, 154172, Note_off_c, 1, 67, 64
3, 154172, Note_off_c, 1, 64, 64
3, 154176, Note_on_c, 1, 69, 61
3, 154176, Note_on_c, 1, 67, 61
3, 154176, Note_on_c, 1, 64, 61
3, 154364, Note_off_c, 1, 69, 64
3, 154364, Note_off_c, 1, 67, 64
3, 154364, Note_off_c, 1, 64, 64
3, 154560, Note_on_c, 1, 69, 61
3, 154560, Note_on_c, 1, 66, 61
3, 154560, Note_on_c, 1, 62, 61
3, 154748, Note_off_c, 1, 69, 64
3, 154748, Note_off_c, 1, 66, 64
3, 154748, Note_off_c, 1, 62, 64
3, 154752, Note_on_c, 1, 69, 61
3, 154752, Note_on_c, 1, 66, 61
3, 154752, Note_on_c, 1, 62, 61
3, 154940, Note_off_c, 1, 69, 64
3, 154940, Note_off_c, 1, 66, 64
3, 154940, Note_off_c, 1, 62, 64
3, 154944, Note_on_c, 1, 69, 61
3, 154944, Note_on_c, 1, 66, 61
3, 154944, Note_on_c, 1, 62, 61
3, 155132, Note_off_c, 1, 69, 64
3, 155132, Note_off_c, 1, 66, 64
3, 155132, Note_off_c, 1, 62, 64
3, 155136, Note_on_c, 1, 69, 61
3, 155136, Note_on_c, 1, 66, 61
3, 155324, Note_off_c, 1, 69, 64
3, 155324, Note_off_c, 1, 66, 64
3, 155328, Note_on_c, 1, 69, 61
3, 155328, Note_on_c, 1, 66, 61
3, 155516, Note_off_c, 1, 69, 64
3, 155516, Note_off_c, 1, 66, 64
3, 155712, Note_on_c, 1, 74, 61
3, 155712, Note_on_c, 1, 64, 61
3, 155900, Note_off_c, 1, 74, 64
3, 155900, Note_off_c, 1, 64, 64
3, 155904, Note_on_c, 1, 74, 62
3, 155904, Note_on_c, 1, 64, 62
3, 156092, Note_off_c, 1, 74, 64
3, 156092, Note_off_c, 1, 64, 64
3, 156096, Note_on_c, 1, 74, 63
3, 156096, Note_on_c, 1, 64, 63
3, 156284, Note_off_c, 1, 74, 64
3, 156284, Note_off_c, 1, 64, 64
3, 156288, Note_on_c, 1, 74, 66
3, 156288, Note_on_c, 1, 64, 66
3, 156476, Note_off_c, 1, 74, 64
3, 156476, Note_off_c, 1, 64, 64
3, 156480, Note_on_c, 1, 74, 67
3, 156480, Note_on_c, 1, 64, 67
3, 156668, Note_off_c, 1, 74, 64
3, 156668, Note_off_c, 1, 64, 64
3, 156864, Note_on_c, 1, 73, 68
3, 156864, Note_on_c, 1, 64, 68
3, 157052, Note_off_c, 1, 73, 64
3, 157052, Note_off_c, 1, 64, 64
3, 157056, Note_on_c, 1, 73, 69
3, 157056, Note_on_c, 1, 64, 69
3, 157244, Note_off_c, 1, 73, 64
3, 157244, Note_off_c, 1, 64, 64
3, 157248, Note_on_c, 1, 73, 71
3, 157248, Note_on_c, 1, 64, 71
3, 157436, Note_off_c, 1, 73, 64
3, 157436, Note_off_c, 1, 64, 64
3, 157440, Note_on_c, 1, 73, 72
3, 157440, Note_on_c, 1, 64, 72
3, 157628, Note_off_c, 1, 73, 64
3, 157628, Note_off_c, 1, 64, 64
3, 157632, Note_on_c, 1, 73, 73
3, 157632, Note_on_c, 1, 64, 73
3, 157820, Note_off_c, 1, 73, 64
3, 157820, Note_off_c, 1, 64, 64
3, 158016, Note_on_c, 1, 74, 74
3, 158016, Note_on_c, 1, 64, 74
3, 158204, Note_off_c, 1, 74, 64
3, 158204, Note_off_c, 1, 64, 64
3, 158208, Note_on_c, 1, 74, 74
3, 158208, Note_on_c, 1, 64, 74
3, 158396, Note_off_c, 1, 74, 64
3, 158396, Note_off_c, 1, 64, 64
3, 158400, Note_on_c, 1, 74, 74
3, 158400, Note_on_c, 1, 64, 74
3, 158588, Note_off_c, 1, 74, 64
3, 158588, Note_off_c, 1, 64, 64
3, 158592, Note_on_c, 1, 74, 74
3, 158592, Note_on_c, 1, 64, 74
3, 158780, Note_off_c, 1, 74, 64
3, 158780, Note_off_c, 1, 64, 64
3, 158784, Note_on_c, 1, 74, 74
3, 158784, Note_on_c, 1, 64, 74
3, 158972, Note_off_c, 1, 74, 64
3, 158972, Note_off_c, 1, 64, 64
3, 159168, Note_on_c, 1, 73, 74
3, 159168, Note_on_c, 1, 64, 74
3, 159356, Note_off_c, 1, 73, 64
3, 159356, Note_off_c, 1, 64, 64
3, 159360, Note_on_c, 1, 64, 74
3, 159360, Note_on_c, 1, 61, 74
3, 159548, Note_off_c, 1, 64, 64
3, 159548, Note_off_c, 1, 61, 64
3, 159552, Note_on_c, 1, 64, 74
3, 159552, Note_on_c, 1, 61, 74
3, 159740, Note_off_c, 1, 64, 64
3, 159740, Note_off_c, 1, 61, 64
3, 159744, Note_on_c, 1, 64, 74
3, 159744, Note_on_c, 1, 62, 74
3, 159932, Note_off_c, 1, 64, 64
3, 159932, Note_off_c, 1, 62, 64
3, 159936, Note_on_c, 1, 64, 74
3, 159936, Note_on_c, 1, 59, 74
3, 160124, Note_off_c, 1, 64, 64
3, 160124, Note_off_c, 1, 59, 64
3, 160320, Note_on_c, 1, 64, 74
3, 160320, Note_on_c, 1, 61, 74
3, 160508, Note_off_c, 1, 64, 64
3, 160508, Note_off_c, 1, 61, 64
3, 160512, Note_on_c, 1, 64, 74
3, 160512, Note_on_c, 1, 61, 74
3, 160700, Note_off_c, 1, 64, 64
3, 160700, Note_off_c, 1, 61, 64
3, 160704, Note_on_c, 1, 64, 74
3, 160704, Note_on_c, 1, 61, 74
3, 160892, Note_off_c, 1, 64, 64
3, 160892, Note_off_c, 1, 61, 64
3, 160896, Note_on_c, 1, 64, 74
3, 160896, Note_on_c, 1, 62, 74
3, 161084, Note_off_c, 1, 64, 64
3, 161084, Note_off_c, 1, 62, 64
3, 161088, Note_on_c, 1, 64, 74
3, 161088, Note_on_c, 1, 59, 74
3, 161276, Note_off_c, 1, 64, 64
3, 161276, Note_off_c, 1, 59, 64
3, 161280, Note_on_c, 1, 64, 74
3, 161280, Note_on_c, 1, 61, 74
3, 161660, Note_off_c, 1, 64, 64
3, 161660, Note_off_c, 1, 61, 64
3, 161664, Note_on_c, 1, 64, 74
3, 161664, Note_on_c, 1, 61, 74
3, 162044, Note_off_c, 1, 64, 64
3, 162044, Note_off_c, 1, 61, 64
3, 162048, Note_on_c, 1, 64, 74
3, 162048, Note_on_c, 1, 61, 74
3, 162428, Note_off_c, 1, 64, 64
3, 162428, Note_off_c, 1, 61, 64
3, 162432, Note_on_c, 1, 64, 82
3, 162432, Note_on_c, 1, 61, 82
3, 163196, Note_off_c, 1, 64, 64
3, 163196, Note_off_c, 1, 61, 64
3, 210048, Note_on_c, 1, 62, 61
3, 210620, Note_off_c, 1, 62, 64
3, 210624, Note_on_c, 1, 64, 61
3, 210812, Note_off_c, 1, 64, 64
3, 210816, Note_on_c, 1, 65, 61
3, 211004, Note_off_c, 1, 65, 64
3, 211008, Note_on_c, 1, 66, 61
3, 211196, Note_off_c, 1, 66, 64
3, 211200, Note_on_c, 1, 66, 61
3, 211580, Note_off_c, 1, 66, 64
3, 212352, Note_on_c, 1, 64, 61
3, 212352, Note_on_c, 1, 61, 61
3, 212732, Note_off_c, 1, 64, 64
3, 212732, Note_off_c, 1, 61, 64
3, 212736, Note_on_c, 1, 64, 61
3, 212736, Note_on_c, 1, 61, 61
3, 213116, Note_off_c, 1, 64, 64
3, 213116, Note_off_c, 1, 61, 64
3, 213120, Note_on_c, 1, 66, 61
3, 213120, Note_on_c, 1, 62, 61
3, 213500, Note_off_c, 1, 66, 64
3, 213500, Note_off_c, 1, 62, 64
3, 213504, Note_on_c, 1, 66, 61
3, 213504, Note_on_c, 1, 62, 61
3, 213788, Note_off_c, 1, 66, 64
3, 213788, Note_off_c, 1, 62, 64
3, 213792, Note_on_c, 1, 67, 61
3, 213792, Note_on_c, 1, 64, 61
3, 213884, Note_off_c, 1, 67, 64
3, 213884, Note_off_c, 1, 64, 64
3, 213888, Note_on_c, 1, 64, 61
3, 213888, Note_on_c, 1, 61, 61
3, 214268, Note_off_c, 1, 64, 64
3, 214268, Note_off_c, 1, 61, 64
3, 214656, Note_on_c, 1, 69, 61
3, 214656, Note_on_c, 1, 62, 61
3, 215420, Note_off_c, 1, 62, 64
3, 215424, Note_on_c, 1, 64, 61
3, 215804, Note_off_c, 1, 69, 64
3, 215804, Note_off_c, 1, 64, 64
3, 215808, Note_on_c, 1, 69, 61
3, 215808, Note_on_c, 1, 62, 61
3, 216572, Note_off_c, 1, 62, 64
3, 216576, Note_on_c, 1, 64, 61
3, 216956, Note_off_c, 1, 69, 64
3, 216956, Note_off_c, 1, 64, 64
3, 216960, Note_on_c, 1, 69, 61
3, 216960, Note_on_c, 1, 62, 61
3, 217340, Note_off_c, 1, 69, 64
3, 217340, Note_off_c, 1, 62, 64
3, 217344, Note_on_c, 1, 66, 61
3, 217532, Note_off_c, 1, 66, 64
3, 217536, Note_on_c, 1, 69, 61
3, 217724, Note_off_c, 1, 69, 64
3, 217728, Note_on_c, 1, 67, 61
3, 217916, Note_off_c, 1, 67, 64
3, 217920, Note_on_c, 1, 64, 61
3, 218108, Note_off_c, 1, 64, 64
3, 218112, Note_on_c, 1, 66, 61
3, 218112, Note_on_c, 1, 62, 61
3, 218876, Note_off_c, 1, 66, 64
3, 218876, Note_off_c, 1, 62, 64
3, 218880, Note_on_c, 1, 64, 61
3, 218880, Note_on_c, 1, 61, 61
3, 219260, Note_off_c, 1, 64, 64
3, 219260, Note_off_c, 1, 61, 64
3, 219264, Note_on_c, 1, 78, 82
3, 219264, Note_on_c, 1, 74, 82
3, 219836, Note_off_c, 1, 78, 64
3, 219836, Note_off_c, 1, 74, 64
3, 219840, Note_on_c, 1, 79, 82
3, 219840, Note_on_c, 1, 76, 82
3, 220028, Note_off_c, 1, 79, 64
3, 220028, Note_off_c, 1, 76, 64
3, 220032, Note_on_c, 1, 80, 82
3, 220032, Note_on_c, 1, 77, 82
3, 220220, Note_off_c, 1, 80, 64
3, 220220, Note_off_c, 1, 77, 64
3, 220224, Note_on_c, 1, 81, 82
3, 220224, Note_on_c, 1, 78, 82
3, 220412, Note_off_c, 1, 81, 64
3, 220412, Note_off_c, 1, 78, 64
3, 220416, Note_on_c, 1, 83, 82
3, 220416, Note_on_c, 1, 78, 82
3, 220416, Note_on_c, 1, 74, 82
3, 220604, Note_off_c, 1, 83, 64
3, 220608, Note_on_c, 1, 81, 82
3, 220796, Note_off_c, 1, 78, 64
3, 220796, Note_off_c, 1, 74, 64
3, 220796, Note_off_c, 1, 81, 64
3, 220800, Note_on_c, 1, 79, 82
3, 220988, Note_off_c, 1, 79, 64
3, 220992, Note_on_c, 1, 78, 82
3, 221180, Note_off_c, 1, 78, 64
3, 221184, Note_on_c, 1, 76, 82
3, 221372, Note_off_c, 1, 76, 64
3, 221376, Note_on_c, 1, 74, 82
3, 221564, Note_off_c, 1, 74, 64
3, 221568, Note_on_c, 1, 76, 82
3, 221568, Note_on_c, 1, 73, 82
3, 221568, Note_on_c, 1, 69, 82
3, 221948, Note_off_c, 1, 76, 64
3, 221948, Note_off_c, 1, 73, 64
3, 221948, Note_off_c, 1, 69, 64
3, 221952, Note_on_c, 1, 76, 82
3, 221952, Note_on_c, 1, 73, 82
3, 221952, Note_on_c, 1, 64, 82
3, 222332, Note_off_c, 1, 76, 64
3, 222332, Note_off_c, 1, 73, 64
3, 222332, Note_off_c, 1, 64, 64
3, 222336, Note_on_c, 1, 78, 82
3, 222336, Note_on_c, 1, 74, 82
3, 222336, Note_on_c, 1, 66, 82
3, 222716, Note_off_c, 1, 78, 64
3, 222716, Note_off_c, 1, 74, 64
3, 222716, Note_off_c, 1, 66, 64
3, 222720, Note_on_c, 1, 78, 82
3, 222720, Note_on_c, 1, 74, 82
3, 223004, Note_off_c, 1, 78, 64
3, 223004, Note_off_c, 1, 74, 64
3, 223008, Note_on_c, 1, 76, 82
3, 223008, Note_on_c, 1, 79, 82
3, 223100, Note_off_c, 1, 76, 64
3, 223100, Note_off_c, 1, 79, 64
3, 223104, Note_on_c, 1, 76, 82
3, 223104, Note_on_c, 1, 73, 82
3, 223104, Note_on_c, 1, 69, 82
3, 223292, Note_off_c, 1, 76, 64
3, 223292, Note_off_c, 1, 73, 64
3, 223388, Note_off_c, 1, 69, 64
3, 223392, Note_on_c, 1, 67, 82
3, 223484, Note_off_c, 1, 67, 64
3, 223488, Note_on_c, 1, 66, 82
3, 223772, Note_off_c, 1, 66, 64
3, 223776, Note_on_c, 1, 64, 82
3, 223868, Note_off_c, 1, 64, 64
3, 223872, Note_on_c, 1, 69, 74
3, 223872, Note_on_c, 1, 66, 74
3, 223872, Note_on_c, 1, 62, 74
3, 224252, Note_off_c, 1, 69, 64
3, 224252, Note_off_c, 1, 66, 64
3, 224252, Note_off_c, 1, 62, 64
3, 224640, Note_on_c, 1, 69, 74
3, 224640, Note_on_c, 1, 66, 74
3, 224640, Note_on_c, 1, 62, 74
3, 225020, Note_off_c, 1, 69, 64
3, 225020, Note_off_c, 1, 66, 64
3, 225020, Note_off_c, 1, 62, 64
3, 225024, Note_on_c, 1, 69, 74
3, 225024, Note_on_c, 1, 67, 74
3, 225024, Note_on_c, 1, 64, 74
3, 225404, Note_off_c, 1, 69, 64
3, 225404, Note_off_c, 1, 67, 64
3, 225404, Note_off_c, 1, 64, 64
3, 225792, Note_on_c, 1, 69, 74
3, 225792, Note_on_c, 1, 67, 74
3, 225792, Note_on_c, 1, 64, 74
3, 226172, Note_off_c, 1, 69, 64
3, 226172, Note_off_c, 1, 67, 64
3, 226172, Note_off_c, 1, 64, 64
3, 226176, Note_on_c, 1, 69, 61
3, 226176, Note_on_c, 1, 66, 61
3, 226176, Note_on_c, 1, 62, 61
3, 226556, Note_off_c, 1, 69, 64
3, 226556, Note_off_c, 1, 66, 64
3, 226556, Note_off_c, 1, 62, 64
3, 226944, Note_on_c, 1, 69, 61
3, 226944, Note_on_c, 1, 66, 61
3, 226944, Note_on_c, 1, 62, 61
3, 227324, Note_off_c, 1, 69, 64
3, 227324, Note_off_c, 1, 66, 64
3, 227324, Note_off_c, 1, 62, 64
3, 227328, Note_on_c, 1, 69, 61
3, 227328, Note_on_c, 1, 67, 61
3, 227328, Note_on_c, 1, 64, 61
3, 227708, Note_off_c, 1, 69, 64
3, 227708, Note_off_c, 1, 67, 64
3, 227708, Note_off_c, 1, 64, 64
3, 228096, Note_on_c, 1, 69, 61
3, 228096, Note_on_c, 1, 64, 61
3, 228096, Note_on_c, 1, 67, 61
3, 228476, Note_off_c, 1, 69, 64
3, 228476, Note_off_c, 1, 64, 64
3, 228476, Note_off_c, 1, 67, 64
3, 228480, Note_on_c, 1, 69, 61
3, 228480, Note_on_c, 1, 66, 61
3, 228480, Note_on_c, 1, 62, 61
3, 228860, Note_off_c, 1, 69, 64
3, 228860, Note_off_c, 1, 66, 64
3, 228860, Note_off_c, 1, 62, 64
3, 228864, Note_on_c, 1, 62, 61
3, 229052, Note_off_c, 1, 62, 64
3, 229056, Note_on_c, 1, 64, 61
3, 229244, Note_off_c, 1, 64, 64
3, 229248, Note_on_c, 1, 65, 61
3, 229436, Note_off_c, 1, 65, 64
3, 229440, Note_on_c, 1, 66, 61
3, 229628, Note_off_c, 1, 66, 64
3, 229632, Note_on_c, 1, 67, 61
3, 229820, Note_off_c, 1, 67, 64
3, 229824, Note_on_c, 1, 66, 61
3, 230012, Note_off_c, 1, 66, 64
3, 230016, Note_on_c, 1, 71, 61
3, 230204, Note_off_c, 1, 71, 64
3, 230208, Note_on_c, 1, 69, 61
3, 230396, Note_off_c, 1, 69, 64
3, 230400, Note_on_c, 1, 67, 61
3, 230588, Note_off_c, 1, 67, 64
3, 230592, Note_on_c, 1, 66, 61
3, 230780, Note_off_c, 1, 66, 64
3, 230784, Note_on_c, 1, 67, 61
3, 231072, Note_on_c, 1, 71, 61
3, 231164, Note_off_c, 1, 67, 64
3, 231164, Note_off_c, 1, 71, 64
3, 231168, Note_on_c, 1, 74, 61
3, 231168, Note_on_c, 1, 69, 61
3, 231548, Note_off_c, 1, 74, 64
3, 231548, Note_off_c, 1, 69, 64
3, 231552, Note_on_c, 1, 73, 61
3, 231932, Note_off_c, 1, 73, 64
3, 231936, Note_on_c, 1, 74, 61
3, 232508, Note_off_c, 1, 74, 64
3, 232512, Note_on_c, 1, 64, 61
3, 232700, Note_off_c, 1, 64, 64
3, 232704, Note_on_c, 1, 65, 62
3, 232892, Note_off_c, 1, 65, 64
3, 232896, Note_on_c, 1, 66, 62
3, 233084, Note_off_c, 1, 66, 64
3, 233088, Note_on_c, 1, 67, 63
3, 233276, Note_off_c, 1, 67, 64
3, 233280, Note_on_c, 1, 66, 66
3, 233468, Note_off_c, 1, 66, 64
3, 233472, Note_on_c, 1, 71, 66
3, 233660, Note_off_c, 1, 71, 64
3, 233664, Note_on_c, 1, 69, 67
3, 233852, Note_off_c, 1, 69, 64
3, 233856, Note_on_c, 1, 67, 68
3, 234044, Note_off_c, 1, 67, 64
3, 234048, Note_on_c, 1, 66, 68
3, 234236, Note_off_c, 1, 66, 64
3, 234240, Note_on_c, 1, 67, 69
3, 234528, Note_on_c, 1, 71, 71
3, 234620, Note_off_c, 1, 67, 64
3, 234620, Note_off_c, 1, 71, 64
3, 234624, Note_on_c, 1, 74, 71
3, 234624, Note_on_c, 1, 69, 71
3, 235004, Note_off_c, 1, 74, 64
3, 235004, Note_off_c, 1, 69, 64
3, 235008, Note_on_c, 1, 73, 72
3, 235008, Note_on_c, 1, 67, 72
3, 235052, Note_off_c, 1, 73, 64
3, 235056, Note_on_c, 1, 74, 72
3, 235100, Note_off_c, 1, 74, 64
3, 235104, Note_on_c, 1, 73, 73
3, 235148, Note_off_c, 1, 73, 64
3, 235152, Note_on_c, 1, 74, 73
3, 235196, Note_off_c, 1, 74, 64
3, 235200, Note_on_c, 1, 73, 73
3, 235244, Note_off_c, 1, 73, 64
3, 235248, Note_on_c, 1, 74, 73
3, 235292, Note_off_c, 1, 74, 64
3, 235296, Note_on_c, 1, 71, 73
3, 235340, Note_off_c, 1, 71, 64
3, 235344, Note_on_c, 1, 73, 73
3, 235388, Note_off_c, 1, 67, 64
3, 235388, Note_off_c, 1, 73, 64
3, 235392, Note_on_c, 1, 74, 74
3, 235392, Note_on_c, 1, 66, 74
3, 235772, Note_off_c, 1, 74, 64
3, 235772, Note_off_c, 1, 66, 64
3, 235968, Note_on_c, 1, 69, 74
3, 235968, Note_on_c, 1, 66, 74
3, 236156, Note_off_c, 1, 69, 64
3, 236156, Note_off_c, 1, 66, 64
3, 236160, Note_on_c, 1, 69, 74
3, 236160, Note_on_c, 1, 66, 74
3, 236348, Note_off_c, 1, 69, 64
3, 236348, Note_off_c, 1, 66, 64
3, 236352, Note_on_c, 1, 69, 74
3, 236352, Note_on_c, 1, 66, 74
3, 236540, Note_off_c, 1, 69, 64
3, 236540, Note_off_c, 1, 66, 64
3, 236544, Note_on_c, 1, 71, 74
3, 236544, Note_on_c, 1, 67, 74
3, 236924, Note_off_c, 1, 71, 64
3, 236924, Note_off_c, 1, 67, 64
3, 237120, Note_on_c, 1, 74, 74
3, 237120, Note_on_c, 1, 64, 74
3, 237308, Note_off_c, 1, 74, 64
3, 237308, Note_off_c, 1, 64, 64
3, 237312, Note_on_c, 1, 74, 74
3, 237312, Note_on_c, 1, 64, 74
3, 237500, Note_off_c, 1, 74, 64
3, 237500, Note_off_c, 1, 64, 64
3, 237504, Note_on_c, 1, 74, 74
3, 237504, Note_on_c, 1, 64, 74
3, 237692, Note_off_c, 1, 74, 64
3, 237692, Note_off_c, 1, 64, 64
3, 237696, Note_on_c, 1, 74, 74
3, 237696, Note_on_c, 1, 66, 74
3, 237884, Note_off_c, 1, 74, 64
3, 237884, Note_off_c, 1, 66, 64
3, 237888, Note_on_c, 1, 74, 74
3, 237888, Note_on_c, 1, 66, 74
3, 238076, Note_off_c, 1, 74, 64
3, 238076, Note_off_c, 1, 66, 64
3, 238080, Note_on_c, 1, 74, 74
3, 238080, Note_on_c, 1, 66, 74
3, 238268, Note_off_c, 1, 74, 64
3, 238268, Note_off_c, 1, 66, 64
3, 238272, Note_on_c, 1, 74, 74
3, 238272, Note_on_c, 1, 66, 74
3, 238460, Note_off_c, 1, 74, 64
3, 238460, Note_off_c, 1, 66, 64
3, 238464, Note_on_c, 1, 74, 74
3, 238464, Note_on_c, 1, 66, 74
3, 238652, Note_off_c, 1, 74, 64
3, 238652, Note_off_c, 1, 66, 64
3, 238656, Note_on_c, 1, 74, 74
3, 238656, Note_on_c, 1, 66, 74
3, 238844, Note_off_c, 1, 74, 64
3, 238844, Note_off_c, 1, 66, 64
3, 238848, Note_on_c, 1, 73, 74
3, 238848, Note_on_c, 1, 67, 74
3, 239036, Note_off_c, 1, 73, 64
3, 239036, Note_off_c, 1, 67, 64
3, 239040, Note_on_c, 1, 73, 74
3, 239040, Note_on_c, 1, 67, 74
3, 239228, Note_off_c, 1, 73, 64
3, 239228, Note_off_c, 1, 67, 64
3, 239232, Note_on_c, 1, 73, 74
3, 239232, Note_on_c, 1, 67, 74
3, 239420, Note_off_c, 1, 73, 64
3, 239420, Note_off_c, 1, 67, 64
3, 239424, Note_on_c, 1, 73, 74
3, 239424, Note_on_c, 1, 67, 74
3, 239612, Note_off_c, 1, 73, 64
3, 239612, Note_off_c, 1, 67, 64
3, 239616, Note_on_c, 1, 73, 74
3, 239616, Note_on_c, 1, 67, 74
3, 239804, Note_off_c, 1, 73, 64
3, 239804, Note_off_c, 1, 67, 64
3, 239808, Note_on_c, 1, 73, 74
3, 239808, Note_on_c, 1, 67, 74
3, 239996, Note_off_c, 1, 73, 64
3, 239996, Note_off_c, 1, 67, 64
3, 240000, Note_on_c, 1, 78, 82
3, 240000, Note_on_c, 1, 74, 82
3, 240572, Note_off_c, 1, 78, 64
3, 240572, Note_off_c, 1, 74, 64
3, 240576, Note_on_c, 1, 79, 82
3, 240576, Note_on_c, 1, 76, 82
3, 240764, Note_off_c, 1, 79, 64
3, 240764, Note_off_c, 1, 76, 64
3, 240768, Note_on_c, 1, 80, 82
3, 240768, Note_on_c, 1, 77, 82
3, 240956, Note_off_c, 1, 80, 64
3, 240956, Note_off_c, 1, 77, 64
3, 240960, Note_on_c, 1, 81, 82
3, 240960, Note_on_c, 1, 78, 82
3, 241148, Note_off_c, 1, 81, 64
3, 241148, Note_off_c, 1, 78, 64
3, 241152, Note_on_c, 1, 83, 82
3, 241152, Note_on_c, 1, 78, 82
3, 241152, Note_on_c, 1, 74, 82
3, 241340, Note_off_c, 1, 83, 64
3, 241344, Note_on_c, 1, 81, 82
3, 241532, Note_off_c, 1, 78, 64
3, 241532, Note_off_c, 1, 74, 64
3, 241532, Note_off_c, 1, 81, 64
3, 241536, Note_on_c, 1, 79, 82
3, 241724, Note_off_c, 1, 79, 64
3, 241728, Note_on_c, 1, 78, 82
3, 241916, Note_off_c, 1, 78, 64
3, 241920, Note_on_c, 1, 76, 82
3, 242108, Note_off_c, 1, 76, 64
3, 242112, Note_on_c, 1, 74, 82
3, 242300, Note_off_c, 1, 74, 64
3, 242304, Note_on_c, 1, 76, 82
3, 242304, Note_on_c, 1, 73, 82
3, 242304, Note_on_c, 1, 69, 82
3, 242684, Note_off_c, 1, 76, 64
3, 242684, Note_off_c, 1, 73, 64
3, 242684, Note_off_c, 1, 69, 64
3, 242688, Note_on_c, 1, 76, 82
3, 242688, Note_on_c, 1, 73, 82
3, 242688, Note_on_c, 1, 64, 82
3, 243068, Note_off_c, 1, 76, 64
3, 243068, Note_off_c, 1, 73, 64
3, 243068, Note_off_c, 1, 64, 64
3, 243072, Note_on_c, 1, 78, 82
3, 243072, Note_on_c, 1, 74, 82
3, 243072, Note_on_c, 1, 66, 82
3, 243452, Note_off_c, 1, 78, 64
3, 243452, Note_off_c, 1, 74, 64
3, 243452, Note_off_c, 1, 66, 64
3, 243456, Note_on_c, 1, 74, 82
3, 243644, Note_off_c, 1, 74, 64
3, 243648, Note_on_c, 1, 86, 82
3, 243836, Note_off_c, 1, 86, 64
3, 243840, Note_on_c, 1, 85, 82
3, 244028, Note_off_c, 1, 85, 64
3, 244032, Note_on_c, 1, 86, 82
3, 244220, Note_off_c, 1, 86, 64
3, 244224, Note_on_c, 1, 83, 82
3, 244412, Note_off_c, 1, 83, 64
3, 244416, Note_on_c, 1, 85, 82
3, 244604, Note_off_c, 1, 85, 64
3, 244608, Note_on_c, 1, 76, 82
3, 244608, Note_on_c, 1, 81, 82
3, 244796, Note_off_c, 1, 81, 64
3, 244800, Note_on_c, 1, 83, 82
3, 244988, Note_off_c, 1, 76, 64
3, 244988, Note_off_c, 1, 83, 64
3, 244992, Note_on_c, 1, 73, 82
3, 244992, Note_on_c, 1, 79, 82
3, 245180, Note_off_c, 1, 79, 64
3, 245184, Note_on_c, 1, 81, 82
3, 245372, Note_off_c, 1, 73, 64
3, 245372, Note_off_c, 1, 81, 64
3, 245376, Note_on_c, 1, 74, 82
3, 245376, Note_on_c, 1, 78, 82
3, 245564, Note_off_c, 1, 78, 64
3, 245568, Note_on_c, 1, 79, 82
3, 245756, Note_off_c, 1, 74, 64
3, 245756, Note_off_c, 1, 79, 64
3, 245760, Note_on_c, 1, 78, 82
3, 245760, Note_on_c, 1, 71, 82
3, 245948, Note_off_c, 1, 78, 64
3, 245952, Note_on_c, 1, 76, 82
3, 246140, Note_off_c, 1, 76, 64
3, 246144, Note_on_c, 1, 79, 82
3, 246332, Note_off_c, 1, 71, 64
3, 246332, Note_off_c, 1, 79, 64
3, 246336, Note_on_c, 1, 76, 82
3, 246336, Note_on_c, 1, 67, 82
3, 246524, Note_off_c, 1, 76, 64
3, 246524, Note_off_c, 1, 67, 64
3, 246528, Note_on_c, 1, 74, 82
3, 246528, Note_on_c, 1, 66, 82
3, 246572, Note_off_c, 1, 74, 64
3, 246576, Note_on_c, 1, 76, 82
3, 246620, Note_off_c, 1, 76, 64
3, 246624, Note_on_c, 1, 73, 82
3, 246668, Note_off_c, 1, 73, 64
3, 246672, Note_on_c, 1, 74, 82
3, 246716, Note_off_c, 1, 66, 64
3, 246716, Note_off_c, 1, 74, 64
3, 246720, Note_on_c, 1, 73, 82
3, 246720, Note_on_c, 1, 67, 82
3, 246720, Note_on_c, 1, 64, 82
3, 246908, Note_off_c, 1, 73, 64
3, 246908, Note_off_c, 1, 67, 64
3, 246908, Note_off_c, 1, 64, 64
3, 246912, Note_on_c, 1, 74, 82
3, 246912, Note_on_c, 1, 66, 82
3, 247196, Note_off_c, 1, 74, 64
3, 247196, Note_off_c, 1, 66, 64
3, 247200, Note_on_c, 1, 69, 82
3, 247292, Note_off_c, 1, 69, 64
3, 247296, Note_on_c, 1, 81, 82
3, 247676, Note_off_c, 1, 81, 64
3, 247680, Note_on_c, 1, 79, 82
3, 247680, Note_on_c, 1, 85, 82
3, 247724, Note_off_c, 1, 85, 64
3, 247728, Note_on_c, 1, 86, 82
3, 247772, Note_off_c, 1, 86, 64
3, 247776, Note_on_c, 1, 85, 82
3, 247820, Note_off_c, 1, 85, 64
3, 247824, Note_on_c, 1, 86, 82
3, 247868, Note_off_c, 1, 86, 64
3, 247872, Note_on_c, 1, 85, 82
3, 247916, Note_off_c, 1, 85, 64
3, 247920, Note_on_c, 1, 86, 82
3, 247964, Note_off_c, 1, 86, 64
3, 247968, Note_on_c, 1, 83, 82
3, 248012, Note_off_c, 1, 83, 64
3, 248016, Note_on_c, 1, 85, 82
3, 248060, Note_off_c, 1, 79, 64
3, 248060, Note_off_c, 1, 85, 64
3, 248064, Note_on_c, 1, 86, 82
3, 248064, Note_on_c, 1, 78, 82
3, 248348, Note_off_c, 1, 86, 64
3, 248348, Note_off_c, 1, 78, 64
3, 248352, Note_on_c, 1, 69, 82
3, 248444, Note_off_c, 1, 69, 64
3, 248448, Note_on_c, 1, 81, 82
3, 248828, Note_off_c, 1, 81, 64
3, 248832, Note_on_c, 1, 79, 82
3, 248832, Note_on_c, 1, 85, 82
3, 248876, Note_off_c, 1, 85, 64
3, 248880, Note_on_c, 1, 86, 82
3, 248924, Note_off_c, 1, 86, 64
3, 248928, Note_on_c, 1, 85, 82
3, 248972, Note_off_c, 1, 85, 64
3, 248976, Note_on_c, 1, 86, 82
3, 249020, Note_off_c, 1, 86, 64
3, 249024, Note_on_c, 1, 85, 82
3, 249068, Note_off_c, 1, 85, 64
3, 249072, Note_on_c, 1, 86, 82
3, 249116, Note_off_c, 1, 86, 64
3, 249120, Note_on_c, 1, 83, 82
3, 249164, Note_off_c, 1, 83, 64
3, 249168, Note_on_c, 1, 85, 82
3, 249212, Note_off_c, 1, 79, 64
3, 249212, Note_off_c, 1, 85, 64
3, 249216, Note_on_c, 1, 86, 82
3, 249216, Note_on_c, 1, 78, 82
3, 249596, Note_off_c, 1, 86, 64
3, 249596, Note_off_c, 1, 78, 64
3, 249600, Note_on_c, 1, 78, 82
3, 249600, Note_on_c, 1, 74, 82
3, 249600, Note_on_c, 1, 69, 82
3, 249980, Note_off_c, 1, 78, 64
3, 249980, Note_off_c, 1, 74, 64
3, 249980, Note_off_c, 1, 69, 64
3, 249984, Note_on_c, 1, 69, 82
3, 249984, Note_on_c, 1, 74, 82
3, 249984, Note_on_c, 1, 78, 82
3, 250364, Note_off_c, 1, 69, 64
3, 250364, Note_off_c, 1, 74, 64
3, 250364, Note_off_c, 1, 78, 64
3, 250368, Note_on_c, 1, 78, 82
3, 250368, Note_on_c, 1, 74, 82
3, 250368, Note_on_c, 1, 69, 82
3, 251132, Note_off_c, 1, 78, 64
3, 251132, Note_off_c, 1, 74, 64
3, 251132, Note_off_c, 1, 69, 64
3, 251132, End_track
4, 0, Start_track
4, 0, Title_t, "K211 -c -Rondo Allegro Vivo"
4, 0, Control_c, 2, 0, 0
4, 0, Program_c, 2, 0
4, 0, Control_c, 2, 7, 94
4, 0, Control_c, 2, 10, 42
4, 0, Control_c, 2, 91, 52
4, 0, Control_c, 2, 93, 36
4, 0, Key_signature, 2, "major"
4, 0, Control_c, 2, 121, 127
4, 96, Pitch_bend_c, 2, 0
4, 192, Control_c, 2, 10, 43
4, 384, Control_c, 2, 91, 63
4, 480, Control_c, 2, 93, 40
4, 576, Program_c, 2, 0
4, 1152, Note_on_c, 2, 50, 61
4, 1532, Note_off_c, 2, 50, 64
4, 1536, Note_on_c, 2, 38, 61
4, 1916, Note_off_c, 2, 38, 64
4, 2304, Note_on_c, 2, 50, 61
4, 2684, Note_off_c, 2, 50, 64
4, 8832, Note_on_c, 2, 55, 61
4, 9212, Note_off_c, 2, 55, 64
4, 9216, Note_on_c, 2, 57, 61
4, 9596, Note_off_c, 2, 57, 64
4, 9600, Note_on_c, 2, 45, 61
4, 9980, Note_off_c, 2, 45, 64
4, 9984, Note_on_c, 2, 57, 61
4, 10364, Note_off_c, 2, 57, 64
4, 10368, Note_on_c, 2, 62, 82
4, 10748, Note_off_c, 2, 62, 64
4, 10752, Note_on_c, 2, 50, 82
4, 11132, Note_off_c, 2, 50, 64
4, 11520, Note_on_c, 2, 62, 82
4, 11520, Note_on_c, 2, 50, 82
4, 11900, Note_off_c, 2, 62, 64
4, 11900, Note_off_c, 2, 50, 64
4, 12672, Note_on_c, 2, 64, 82
4, 12672, Note_on_c, 2, 57, 82
4, 13052, Note_off_c, 2, 64, 64
4, 13052, Note_off_c, 2, 57, 64
4, 13056, Note_on_c, 2, 57, 82
4, 13436, Note_off_c, 2, 57, 64
4, 13440, Note_on_c, 2, 62, 82
4, 13820, Note_off_c, 2, 62, 64
4, 13824, Note_on_c, 2, 62, 82
4, 14108, Note_off_c, 2, 62, 64
4, 14112, Note_on_c, 2, 57, 82
4, 14204, Note_off_c, 2, 57, 64
4, 14208, Note_on_c, 2, 64, 82
4, 14208, Note_on_c, 2, 57, 82
4, 14208, Note_on_c, 2, 45, 82
4, 14588, Note_off_c, 2, 64, 64
4, 14588, Note_off_c, 2, 57, 64
4, 14588, Note_off_c, 2, 45, 64
4, 14592, Note_on_c, 2, 61, 82
4, 14592, Note_on_c, 2, 55, 82
4, 14592, Note_on_c, 2, 57, 82
4, 14592, Note_on_c, 2, 64, 82
4, 14972, Note_off_c, 2, 61, 64
4, 14972, Note_off_c, 2, 55, 64
4, 14972, Note_off_c, 2, 57, 64
4, 14972, Note_off_c, 2, 64, 64
4, 14976, Note_on_c, 2, 62, 82
4, 14976, Note_on_c, 2, 57, 82
4, 14976, Note_on_c, 2, 54, 82
4, 15356, Note_off_c, 2, 62, 64
4, 15356, Note_off_c, 2, 57, 64
4, 15356, Note_off_c, 2, 54, 64
4, 15360, Note_on_c, 2, 64, 82
4, 15360, Note_on_c, 2, 61, 82
4, 15360, Note_on_c, 2, 57, 82
4, 15644, Note_off_c, 2, 64, 64
4, 15740, Note_off_c, 2, 61, 64
4, 15740, Note_off_c, 2, 57, 64
4, 15744, Note_on_c, 2, 66, 82
4, 15744, Note_on_c, 2, 62, 82
4, 16124, Note_off_c, 2, 66, 64
4, 16124, Note_off_c, 2, 62, 64
4, 16128, Note_on_c, 2, 64, 82
4, 16128, Note_on_c, 2, 61, 82
4, 16128, Note_on_c, 2, 67, 82
4, 16508, Note_off_c, 2, 61, 64
4, 16508, Note_off_c, 2, 67, 64
4, 16512, Note_on_c, 2, 45, 82
4, 16512, Note_on_c, 2, 57, 82
4, 16512, Note_on_c, 2, 52, 82
4, 16512, Note_on_c, 2, 49, 82
4, 16892, Note_off_c, 2, 64, 64
4, 16892, Note_off_c, 2, 45, 64
4, 16892, Note_off_c, 2, 57, 64
4, 16892, Note_off_c, 2, 52, 64
4, 16892, Note_off_c, 2, 49, 64
4, 16896, Note_on_c, 2, 62, 82
4, 16896, Note_on_c, 2, 57, 82
4, 16896, Note_on_c, 2, 54, 82
4, 16896, Note_on_c, 2, 50, 82
4, 17276, Note_off_c, 2, 62, 64
4, 17276, Note_off_c, 2, 57, 64
4, 17276, Note_off_c, 2, 54, 64
4, 17276, Note_off_c, 2, 50, 64
4, 17280, Note_on_c, 2, 55, 82
4, 17280, Note_on_c, 2, 59, 82
4, 17660, Note_off_c, 2, 55, 64
4, 17664, Note_on_c, 2, 52, 82
4, 18044, Note_off_c, 2, 59, 64
4, 18044, Note_off_c, 2, 52, 64
4, 18048, Note_on_c, 2, 57, 82
4, 18428, Note_off_c, 2, 57, 64
4, 18432, Note_on_c, 2, 57, 82
4, 18432, Note_on_c, 2, 50, 82
4, 18812, Note_off_c, 2, 57, 64
4, 18812, Note_off_c, 2, 50, 64
4, 19008, Note_on_c, 2, 62, 82
4, 19196, Note_off_c, 2, 62, 64
4, 19200, Note_on_c, 2, 57, 82
4, 19388, Note_off_c, 2, 57, 64
4, 19392, Note_on_c, 2, 54, 82
4, 19580, Note_off_c, 2, 54, 64
4, 19584, Note_on_c, 2, 50, 74
4, 19964, Note_off_c, 2, 50, 64
4, 20352, Note_on_c, 2, 62, 74
4, 20732, Note_off_c, 2, 62, 64
4, 20736, Note_on_c, 2, 61, 74
4, 21116, Note_off_c, 2, 61, 64
4, 21504, Note_on_c, 2, 49, 74
4, 21884, Note_off_c, 2, 49, 64
4, 21888, Note_on_c, 2, 50, 61
4, 22268, Note_off_c, 2, 50, 64
4, 22656, Note_on_c, 2, 62, 61
4, 23036, Note_off_c, 2, 62, 64
4, 23040, Note_on_c, 2, 61, 61
4, 23420, Note_off_c, 2, 61, 64
4, 23808, Note_on_c, 2, 49, 61
4, 24188, Note_off_c, 2, 49, 64
4, 24192, Note_on_c, 2, 50, 61
4, 24572, Note_off_c, 2, 50, 64
4, 24960, Note_on_c, 2, 64, 61
4, 25340, Note_off_c, 2, 64, 64
4, 25344, Note_on_c, 2, 66, 61
4, 25724, Note_off_c, 2, 66, 64
4, 28224, Note_on_c, 2, 64, 74
4, 28412, Note_off_c, 2, 64, 64
4, 28416, Note_on_c, 2, 63, 74
4, 28604, Note_off_c, 2, 63, 64
4, 28608, Note_on_c, 2, 64, 74
4, 28796, Note_off_c, 2, 64, 64
4, 28800, Note_on_c, 2, 52, 61
4, 29180, Note_off_c, 2, 52, 64
4, 41472, Note_on_c, 2, 52, 74
4, 41472, Note_on_c, 2, 45, 74
4, 41472, Note_on_c, 2, 57, 74
4, 43776, Note_on_c, 2, 57, 74
4, 43776, Note_on_c, 2, 52, 74
4, 43776, Note_on_c, 2, 45, 74
4, 44156, Note_off_c, 2, 45, 64
4, 44156, Note_off_c, 2, 52, 64
4, 44156, Note_off_c, 2, 57, 64
4, 44156, Note_off_c, 2, 57, 64
4, 44156, Note_off_c, 2, 52, 64
4, 44156, Note_off_c, 2, 45, 64
4, 44160, Note_on_c, 2, 57, 74
4, 44160, Note_on_c, 2, 45, 74
4, 44540, Note_off_c, 2, 57, 64
4, 44540, Note_off_c, 2, 45, 64
4, 44544, Note_on_c, 2, 57, 74
4, 44544, Note_on_c, 2, 45, 74
4, 44924, Note_off_c, 2, 57, 64
4, 44924, Note_off_c, 2, 45, 64
4, 44928, Note_on_c, 2, 57, 74
4, 44928, Note_on_c, 2, 45, 74
4, 44928, Note_on_c, 2, 33, 74
4, 45692, Note_off_c, 2, 57, 64
4, 45692, Note_off_c, 2, 45, 64
4, 45692, Note_off_c, 2, 33, 64
4, 46080, Note_on_c, 2, 50, 61
4, 46460, Note_off_c, 2, 50, 64
4, 46464, Note_on_c, 2, 38, 61
4, 46464, Note_on_c, 2, 50, 61
4, 46844, Note_off_c, 2, 38, 64
4, 46844, Note_off_c, 2, 50, 64
4, 47232, Note_on_c, 2, 50, 61
4, 47232, Note_on_c, 2, 62, 61
4, 47612, Note_off_c, 2, 50, 64
4, 47612, Note_off_c, 2, 62, 64
4, 48384, Note_on_c, 2, 57, 61
4, 48764, Note_off_c, 2, 57, 64
4, 55296, Note_on_c, 2, 62, 82
4, 55676, Note_off_c, 2, 62, 64
4, 55680, Note_on_c, 2, 50, 82
4, 56060, Note_off_c, 2, 50, 64
4, 56448, Note_on_c, 2, 62, 82
4, 56828, Note_off_c, 2, 62, 64
4, 57600, Note_on_c, 2, 64, 82
4, 57600, Note_on_c, 2, 57, 82
4, 57980, Note_off_c, 2, 64, 64
4, 57980, Note_off_c, 2, 57, 64
4, 57984, Note_on_c, 2, 57, 82
4, 58364, Note_off_c, 2, 57, 64
4, 58368, Note_on_c, 2, 62, 82
4, 58748, Note_off_c, 2, 62, 64
4, 58752, Note_on_c, 2, 62, 82
4, 59036, Note_off_c, 2, 62, 64
4, 59040, Note_on_c, 2, 57, 82
4, 59132, Note_off_c, 2, 57, 64
4, 59136, Note_on_c, 2, 57, 82
4, 59136, Note_on_c, 2, 45, 82
4, 59516, Note_off_c, 2, 57, 64
4, 59516, Note_off_c, 2, 45, 64
4, 59520, Note_on_c, 2, 64, 82
4, 59520, Note_on_c, 2, 61, 82
4, 59520, Note_on_c, 2, 57, 82
4, 59520, Note_on_c, 2, 55, 82
4, 59900, Note_off_c, 2, 64, 64
4, 59900, Note_off_c, 2, 61, 64
4, 59900, Note_off_c, 2, 57, 64
4, 59900, Note_off_c, 2, 55, 64
4, 59904, Note_on_c, 2, 62, 82
4, 59904, Note_on_c, 2, 57, 82
4, 59904, Note_on_c, 2, 54, 82
4, 60284, Note_off_c, 2, 62, 64
4, 60284, Note_off_c, 2, 57, 64
4, 60284, Note_off_c, 2, 54, 64
4, 60288, Note_on_c, 2, 64, 82
4, 60288, Note_on_c, 2, 61, 82
4, 60288, Note_on_c, 2, 57, 82
4, 60668, Note_off_c, 2, 64, 64
4, 60668, Note_off_c, 2, 61, 64
4, 60668, Note_off_c, 2, 57, 64
4, 60672, Note_on_c, 2, 66, 82
4, 60672, Note_on_c, 2, 62, 82
4, 61052, Note_off_c, 2, 66, 64
4, 61052, Note_off_c, 2, 62, 64
4, 61056, Note_on_c, 2, 67, 82
4, 61056, Note_on_c, 2, 64, 82
4, 61056, Note_on_c, 2, 61, 82
4, 61436, Note_off_c, 2, 67, 64
4, 61436, Note_off_c, 2, 64, 64
4, 61436, Note_off_c, 2, 61, 64
4, 61440, Note_on_c, 2, 57, 82
4, 61440, Note_on_c, 2, 52, 82
4, 61440, Note_on_c, 2, 49, 82
4, 61440, Note_on_c, 2, 45, 82
4, 61820, Note_off_c, 2, 57, 64
4, 61820, Note_off_c, 2, 52, 64
4, 61820, Note_off_c, 2, 49, 64
4, 61820, Note_off_c, 2, 45, 64
4, 61824, Note_on_c, 2, 57, 82
4, 61824, Note_on_c, 2, 54, 82
4, 61824, Note_on_c, 2, 50, 82
4, 62204, Note_off_c, 2, 57, 64
4, 62204, Note_off_c, 2, 54, 64
4, 62204, Note_off_c, 2, 50, 64
4, 62208, Note_on_c, 2, 59, 82
4, 62208, Note_on_c, 2, 55, 82
4, 62588, Note_off_c, 2, 55, 64
4, 62592, Note_on_c, 2, 52, 82
4, 62972, Note_off_c, 2, 59, 64
4, 62972, Note_off_c, 2, 52, 64
4, 62976, Note_on_c, 2, 57, 82
4, 63356, Note_off_c, 2, 57, 64
4, 63360, Note_on_c, 2, 57, 82
4, 63360, Note_on_c, 2, 50, 82
4, 63740, Note_off_c, 2, 57, 64
4, 63740, Note_off_c, 2, 50, 64
4, 63936, Note_on_c, 2, 60, 82
4, 64124, Note_off_c, 2, 60, 64
4, 64128, Note_on_c, 2, 59, 82
4, 64316, Note_off_c, 2, 59, 64
4, 64320, Note_on_c, 2, 57, 82
4, 64508, Note_off_c, 2, 57, 64
4, 64512, Note_on_c, 2, 55, 68
4, 64892, Note_off_c, 2, 55, 64
4, 65664, Note_on_c, 2, 55, 68
4, 66044, Note_off_c, 2, 55, 64
4, 66816, Note_on_c, 2, 55, 68
4, 67196, Note_off_c, 2, 55, 64
4, 67968, Note_on_c, 2, 50, 68
4, 68348, Note_off_c, 2, 50, 64
4, 69120, Note_on_c, 2, 50, 68
4, 69500, Note_off_c, 2, 50, 64
4, 70272, Note_on_c, 2, 54, 68
4, 70272, Note_on_c, 2, 50, 68
4, 70460, Note_off_c, 2, 54, 64
4, 70464, Note_on_c, 2, 55, 68
4, 70652, Note_off_c, 2, 55, 64
4, 70656, Note_on_c, 2, 57, 68
4, 70844, Note_off_c, 2, 50, 64
4, 70844, Note_off_c, 2, 57, 64
4, 71424, Note_on_c, 2, 50, 68
4, 71804, Note_off_c, 2, 50, 64
4, 72576, Note_on_c, 2, 55, 68
4, 72576, Note_on_c, 2, 43, 68
4, 72956, Note_off_c, 2, 55, 64
4, 72956, Note_off_c, 2, 43, 64
4, 73152, Note_on_c, 2, 59, 68
4, 73340, Note_off_c, 2, 59, 64
4, 73344, Note_on_c, 2, 57, 68
4, 73532, Note_off_c, 2, 57, 64
4, 73536, Note_on_c, 2, 55, 68
4, 73724, Note_off_c, 2, 55, 64
4, 73728, Note_on_c, 2, 57, 68
4, 73728, Note_on_c, 2, 50, 68
4, 74108, Note_off_c, 2, 57, 64
4, 74108, Note_off_c, 2, 50, 64
4, 74880, Note_on_c, 2, 54, 68
4, 74880, Note_on_c, 2, 50, 68
4, 75068, Note_off_c, 2, 54, 64
4, 75072, Note_on_c, 2, 55, 68
4, 75260, Note_off_c, 2, 55, 64
4, 75264, Note_on_c, 2, 57, 68
4, 75452, Note_off_c, 2, 50, 64
4, 75452, Note_off_c, 2, 57, 64
4, 76032, Note_on_c, 2, 57, 68
4, 76032, Note_on_c, 2, 50, 68
4, 76412, Note_off_c, 2, 57, 64
4, 76412, Note_off_c, 2, 50, 64
4, 77184, Note_on_c, 2, 59, 68
4, 77184, Note_on_c, 2, 55, 68
4, 77564, Note_off_c, 2, 59, 64
4, 77564, Note_off_c, 2, 55, 64
4, 78528, Note_on_c, 2, 55, 61
4, 78716, Note_off_c, 2, 55, 64
4, 78720, Note_on_c, 2, 55, 61
4, 78908, Note_off_c, 2, 55, 64
4, 78912, Note_on_c, 2, 55, 61
4, 79100, Note_off_c, 2, 55, 64
4, 79104, Note_on_c, 2, 55, 61
4, 79292, Note_off_c, 2, 55, 64
4, 79296, Note_on_c, 2, 55, 61
4, 79484, Note_off_c, 2, 55, 64
4, 79488, Note_on_c, 2, 57, 61
4, 79488, Note_on_c, 2, 45, 61
4, 79868, Note_off_c, 2, 57, 64
4, 79868, Note_off_c, 2, 45, 64
4, 80832, Note_on_c, 2, 51, 61
4, 81020, Note_off_c, 2, 51, 64
4, 81024, Note_on_c, 2, 51, 61
4, 81212, Note_off_c, 2, 51, 64
4, 81216, Note_on_c, 2, 51, 61
4, 81404, Note_off_c, 2, 51, 64
4, 81408, Note_on_c, 2, 51, 61
4, 81596, Note_off_c, 2, 51, 64
4, 81600, Note_on_c, 2, 51, 61
4, 81788, Note_off_c, 2, 51, 64
4, 81792, Note_on_c, 2, 52, 61
4, 81792, Note_on_c, 2, 40, 61
4, 82172, Note_off_c, 2, 52, 64
4, 82172, Note_off_c, 2, 40, 64
4, 82944, Note_on_c, 2, 52, 61
4, 82944, Note_on_c, 2, 40, 61
4, 83324, Note_off_c, 2, 52, 64
4, 83324, Note_off_c, 2, 40, 64
4, 84096, Note_on_c, 2, 52, 61
4, 84096, Note_on_c, 2, 40, 61
4, 84476, Note_off_c, 2, 52, 64
4, 84476, Note_off_c, 2, 40, 64
4, 85632, Note_on_c, 2, 53, 82
4, 85632, Note_on_c, 2, 41, 82
4, 86396, Note_off_c, 2, 53, 64
4, 86396, Note_off_c, 2, 41, 64
4, 86400, Note_on_c, 2, 54, 61
4, 86400, Note_on_c, 2, 42, 61
4, 86780, Note_off_c, 2, 54, 64
4, 86780, Note_off_c, 2, 42, 64
4, 86784, Note_on_c, 2, 46, 82
4, 86976, Note_on_c, 2, 49, 61
4, 87164, Note_off_c, 2, 49, 64
4, 87168, Note_on_c, 2, 54, 61
4, 87356, Note_off_c, 2, 54, 64
4, 87360, Note_on_c, 2, 54, 61
4, 87548, Note_off_c, 2, 46, 64
4, 87548, Note_off_c, 2, 54, 64
4, 87552, Note_on_c, 2, 54, 61
4, 87552, Note_on_c, 2, 47, 61
4, 87932, Note_off_c, 2, 54, 64
4, 87932, Note_off_c, 2, 47, 64
4, 88320, Note_on_c, 2, 47, 61
4, 88700, Note_off_c, 2, 47, 64
4, 88704, Note_on_c, 2, 46, 61
4, 89084, Note_off_c, 2, 46, 64
4, 89472, Note_on_c, 2, 46, 61
4, 89852, Note_off_c, 2, 46, 64
4, 89856, Note_on_c, 2, 47, 61
4, 90236, Note_off_c, 2, 47, 64
4, 90624, Note_on_c, 2, 47, 61
4, 91004, Note_off_c, 2, 47, 64
4, 91008, Note_on_c, 2, 46, 61
4, 91388, Note_off_c, 2, 46, 64
4, 91776, Note_on_c, 2, 46, 61
4, 92156, Note_off_c, 2, 46, 64
4, 92160, Note_on_c, 2, 47, 61
4, 92540, Note_off_c, 2, 47, 64
4, 97536, Note_on_c, 2, 54, 74
4, 97724, Note_off_c, 2, 54, 64
4, 97728, Note_on_c, 2, 54, 74
4, 97916, Note_off_c, 2, 54, 64
4, 97920, Note_on_c, 2, 54, 74
4, 98108, Note_off_c, 2, 54, 64
4, 98112, Note_on_c, 2, 54, 74
4, 98300, Note_off_c, 2, 54, 64
4, 98304, Note_on_c, 2, 54, 74
4, 98492, Note_off_c, 2, 54, 64
4, 98496, Note_on_c, 2, 54, 74
4, 98684, Note_off_c, 2, 54, 64
4, 98688, Note_on_c, 2, 54, 74
4, 98876, Note_off_c, 2, 54, 64
4, 98880, Note_on_c, 2, 54, 74
4, 99068, Note_off_c, 2, 54, 64
4, 99072, Note_on_c, 2, 55, 74
4, 99260, Note_off_c, 2, 55, 64
4, 99264, Note_on_c, 2, 55, 74
4, 99452, Note_off_c, 2, 55, 64
4, 99456, Note_on_c, 2, 55, 74
4, 99644, Note_off_c, 2, 55, 64
4, 99648, Note_on_c, 2, 55, 74
4, 99836, Note_off_c, 2, 55, 64
4, 99840, Note_on_c, 2, 43, 74
4, 100220, Note_off_c, 2, 43, 64
4, 100224, Note_on_c, 2, 42, 74
4, 100604, Note_off_c, 2, 42, 64
4, 100608, Note_on_c, 2, 40, 74
4, 100988, Note_off_c, 2, 40, 64
4, 100992, Note_on_c, 2, 38, 74
4, 101372, Note_off_c, 2, 38, 64
4, 101376, Note_on_c, 2, 40, 74
4, 101376, Note_on_c, 2, 55, 74
4, 101376, Note_on_c, 2, 61, 74
4, 101564, Note_off_c, 2, 55, 64
4, 101564, Note_off_c, 2, 61, 64
4, 101568, Note_on_c, 2, 61, 74
4, 101568, Note_on_c, 2, 55, 74
4, 101756, Note_off_c, 2, 40, 64
4, 101756, Note_off_c, 2, 61, 64
4, 101756, Note_off_c, 2, 55, 64
4, 101760, Note_on_c, 2, 42, 74
4, 101760, Note_on_c, 2, 59, 74
4, 101760, Note_on_c, 2, 54, 74
4, 101948, Note_off_c, 2, 59, 64
4, 101948, Note_off_c, 2, 54, 64
4, 101952, Note_on_c, 2, 59, 74
4, 101952, Note_on_c, 2, 54, 74
4, 102140, Note_off_c, 2, 42, 64
4, 102140, Note_off_c, 2, 59, 64
4, 102140, Note_off_c, 2, 54, 64
4, 102144, Note_on_c, 2, 42, 74
4, 102144, Note_on_c, 2, 58, 74
4, 102144, Note_on_c, 2, 54, 74
4, 102144, Note_on_c, 2, 52, 74
4, 102332, Note_off_c, 2, 58, 64
4, 102332, Note_off_c, 2, 54, 64
4, 102332, Note_off_c, 2, 52, 64
4, 102336, Note_on_c, 2, 58, 74
4, 102336, Note_on_c, 2, 54, 74
4, 102336, Note_on_c, 2, 52, 74
4, 102524, Note_off_c, 2, 42, 64
4, 102524, Note_off_c, 2, 58, 64
4, 102524, Note_off_c, 2, 54, 64
4, 102524, Note_off_c, 2, 52, 64
4, 102528, Note_on_c, 2, 47, 82
4, 102528, Note_on_c, 2, 35, 82
4, 103292, Note_off_c, 2, 47, 64
4, 103292, Note_off_c, 2, 35, 64
4, 103680, Note_on_c, 2, 62, 61
4, 103680, Note_on_c, 2, 62, 61
4, 104060, Note_off_c, 2, 62, 64
4, 104064, Note_on_c, 2, 50, 61
4, 104252, Note_off_c, 2, 62, 64
4, 104256, Note_on_c, 2, 64, 61
4, 104444, Note_off_c, 2, 50, 64
4, 104444, Note_off_c, 2, 64, 64
4, 104448, Note_on_c, 2, 65, 61
4, 104636, Note_off_c, 2, 65, 64
4, 104640, Note_on_c, 2, 66, 61
4, 104828, Note_off_c, 2, 66, 64
4, 104832, Note_on_c, 2, 62, 61
4, 104832, Note_on_c, 2, 66, 61
4, 105212, Note_off_c, 2, 62, 64
4, 105212, Note_off_c, 2, 66, 64
4, 105984, Note_on_c, 2, 61, 61
4, 105984, Note_on_c, 2, 57, 61
4, 106364, Note_off_c, 2, 61, 64
4, 106364, Note_off_c, 2, 57, 64
4, 106368, Note_on_c, 2, 61, 61
4, 106748, Note_off_c, 2, 61, 64
4, 106752, Note_on_c, 2, 62, 61
4, 107132, Note_off_c, 2, 62, 64
4, 107136, Note_on_c, 2, 62, 61
4, 107420, Note_off_c, 2, 62, 64
4, 107424, Note_on_c, 2, 64, 61
4, 107516, Note_off_c, 2, 64, 64
4, 107520, Note_on_c, 2, 61, 61
4, 107520, Note_on_c, 2, 57, 61
4, 107900, Note_off_c, 2, 61, 64
4, 107900, Note_off_c, 2, 57, 64
4, 107904, Note_on_c, 2, 55, 61
4, 108284, Note_off_c, 2, 55, 64
4, 108288, Note_on_c, 2, 57, 61
4, 108288, Note_on_c, 2, 54, 61
4, 108668, Note_off_c, 2, 54, 64
4, 108672, Note_on_c, 2, 50, 61
4, 109052, Note_off_c, 2, 50, 64
4, 109056, Note_on_c, 2, 55, 61
4, 109436, Note_off_c, 2, 57, 64
4, 109436, Note_off_c, 2, 55, 64
4, 109440, Note_on_c, 2, 57, 61
4, 109440, Note_on_c, 2, 54, 61
4, 109820, Note_off_c, 2, 54, 64
4, 109824, Note_on_c, 2, 50, 61
4, 110204, Note_off_c, 2, 50, 64
4, 110208, Note_on_c, 2, 55, 61
4, 110588, Note_off_c, 2, 57, 64
4, 110588, Note_off_c, 2, 55, 64
4, 110592, Note_on_c, 2, 59, 61
4, 110592, Note_on_c, 2, 54, 61
4, 110780, Note_off_c, 2, 59, 64
4, 110784, Note_on_c, 2, 62, 61
4, 110972, Note_off_c, 2, 54, 64
4, 110972, Note_off_c, 2, 62, 64
4, 110976, Note_on_c, 2, 66, 61
4, 110976, Note_on_c, 2, 62, 61
4, 111164, Note_off_c, 2, 66, 64
4, 111168, Note_on_c, 2, 69, 61
4, 111356, Note_off_c, 2, 62, 64
4, 111356, Note_off_c, 2, 69, 64
4, 111360, Note_on_c, 2, 67, 61
4, 111360, Note_on_c, 2, 55, 61
4, 111548, Note_off_c, 2, 67, 64
4, 111552, Note_on_c, 2, 64, 61
4, 111740, Note_off_c, 2, 55, 64
4, 111740, Note_off_c, 2, 64, 64
4, 111744, Note_on_c, 2, 62, 61
4, 111744, Note_on_c, 2, 57, 61
4, 112124, Note_off_c, 2, 57, 64
4, 112128, Note_on_c, 2, 57, 61
4, 112508, Note_off_c, 2, 62, 64
4, 112508, Note_off_c, 2, 57, 64
4, 112512, Note_on_c, 2, 61, 61
4, 112512, Note_on_c, 2, 57, 61
4, 112892, Note_off_c, 2, 61, 64
4, 112892, Note_off_c, 2, 57, 64
4, 112896, Note_on_c, 2, 62, 82
4, 113276, Note_off_c, 2, 62, 64
4, 113280, Note_on_c, 2, 50, 82
4, 113660, Note_off_c, 2, 50, 64
4, 114048, Note_on_c, 2, 62, 82
4, 114048, Note_on_c, 2, 50, 82
4, 114428, Note_off_c, 2, 62, 64
4, 114428, Note_off_c, 2, 50, 64
4, 115200, Note_on_c, 2, 64, 82
4, 115200, Note_on_c, 2, 57, 82
4, 115580, Note_off_c, 2, 64, 64
4, 115580, Note_off_c, 2, 57, 64
4, 115584, Note_on_c, 2, 57, 82
4, 115964, Note_off_c, 2, 57, 64
4, 115968, Note_on_c, 2, 62, 82
4, 116348, Note_off_c, 2, 62, 64
4, 116352, Note_on_c, 2, 62, 82
4, 116352, Note_on_c, 2, 66, 82
4, 116636, Note_off_c, 2, 62, 64
4, 116636, Note_off_c, 2, 66, 64
4, 116640, Note_on_c, 2, 57, 82
4, 116732, Note_off_c, 2, 57, 64
4, 116736, Note_on_c, 2, 57, 82
4, 116736, Note_on_c, 2, 45, 82
4, 116736, Note_on_c, 2, 64, 82
4, 117116, Note_off_c, 2, 57, 64
4, 117116, Note_off_c, 2, 45, 64
4, 117116, Note_off_c, 2, 64, 64
4, 117120, Note_on_c, 2, 64, 82
4, 117120, Note_on_c, 2, 61, 82
4, 117120, Note_on_c, 2, 57, 82
4, 117120, Note_on_c, 2, 55, 82
4, 117500, Note_off_c, 2, 64, 64
4, 117500, Note_off_c, 2, 61, 64
4, 117500, Note_off_c, 2, 57, 64
4, 117500, Note_off_c, 2, 55, 64
4, 117504, Note_on_c, 2, 62, 82
4, 117504, Note_on_c, 2, 57, 82
4, 117504, Note_on_c, 2, 54, 82
4, 117884, Note_off_c, 2, 62, 64
4, 117884, Note_off_c, 2, 57, 64
4, 117884, Note_off_c, 2, 54, 64
4, 117888, Note_on_c, 2, 57, 82
4, 117900, Note_on_c, 2, 52, 82
4, 117912, Note_on_c, 2, 61, 82
4, 117924, Note_on_c, 2, 64, 82
4, 118268, Note_off_c, 2, 57, 64
4, 118272, Note_on_c, 2, 62, 82
4, 118272, Note_on_c, 2, 66, 82
4, 118272, Note_on_c, 2, 50, 82
4, 118280, Note_off_c, 2, 52, 64
4, 118292, Note_off_c, 2, 61, 64
4, 118304, Note_off_c, 2, 64, 64
4, 118652, Note_off_c, 2, 62, 64
4, 118652, Note_off_c, 2, 66, 64
4, 118652, Note_off_c, 2, 50, 64
4, 118656, Note_on_c, 2, 64, 82
4, 118656, Note_on_c, 2, 49, 82
4, 119036, Note_off_c, 2, 49, 64
4, 119040, Note_on_c, 2, 45, 82
4, 119420, Note_off_c, 2, 64, 64
4, 119420, Note_off_c, 2, 45, 64
4, 119424, Note_on_c, 2, 62, 82
4, 119424, Note_on_c, 2, 50, 82
4, 119804, Note_off_c, 2, 62, 64
4, 119804, Note_off_c, 2, 50, 64
4, 119808, Note_on_c, 2, 55, 82
4, 119808, Note_on_c, 2, 59, 82
4, 120188, Note_off_c, 2, 55, 64
4, 120192, Note_on_c, 2, 59, 82
4, 120192, Note_on_c, 2, 52, 82
4, 120572, Note_off_c, 2, 59, 64
4, 120572, Note_off_c, 2, 59, 64
4, 120572, Note_off_c, 2, 52, 64
4, 120576, Note_on_c, 2, 57, 82
4, 120956, Note_off_c, 2, 57, 64
4, 120960, Note_on_c, 2, 57, 82
4, 120960, Note_on_c, 2, 50, 82
4, 121340, Note_off_c, 2, 57, 64
4, 121340, Note_off_c, 2, 50, 64
4, 121536, Note_on_c, 2, 62, 82
4, 121724, Note_off_c, 2, 62, 64
4, 121728, Note_on_c, 2, 61, 82
4, 121916, Note_off_c, 2, 61, 64
4, 121920, Note_on_c, 2, 62, 82
4, 122108, Note_off_c, 2, 62, 64
4, 122112, Note_on_c, 2, 50, 82
4, 122300, Note_off_c, 2, 50, 64
4, 122304, Note_on_c, 2, 57, 82
4, 122492, Note_off_c, 2, 57, 64
4, 122496, Note_on_c, 2, 62, 82
4, 122684, Note_off_c, 2, 62, 64
4, 122688, Note_on_c, 2, 65, 82
4, 122876, Note_off_c, 2, 65, 64
4, 123264, Note_on_c, 2, 46, 61
4, 123452, Note_off_c, 2, 46, 64
4, 123456, Note_on_c, 2, 58, 61
4, 123644, Note_off_c, 2, 58, 64
4, 123648, Note_on_c, 2, 62, 61
4, 123648, Note_on_c, 2, 62, 61
4, 123836, Note_off_c, 2, 62, 64
4, 123836, Note_off_c, 2, 62, 64
4, 123840, Note_on_c, 2, 67, 61
4, 124028, Note_off_c, 2, 67, 64
4, 124416, Note_on_c, 2, 48, 61
4, 124604, Note_off_c, 2, 48, 64
4, 124608, Note_on_c, 2, 55, 61
4, 124796, Note_off_c, 2, 55, 64
4, 124800, Note_on_c, 2, 60, 61
4, 124988, Note_off_c, 2, 60, 64
4, 124992, Note_on_c, 2, 64, 61
4, 125180, Note_off_c, 2, 64, 64
4, 125568, Note_on_c, 2, 45, 61
4, 125756, Note_off_c, 2, 45, 64
4, 125760, Note_on_c, 2, 57, 61
4, 125948, Note_off_c, 2, 57, 64
4, 125952, Note_on_c, 2, 60, 61
4, 126140, Note_off_c, 2, 60, 64
4, 126144, Note_on_c, 2, 65, 61
4, 126332, Note_off_c, 2, 65, 64
4, 126720, Note_on_c, 2, 46, 61
4, 126908, Note_off_c, 2, 46, 64
4, 126912, Note_on_c, 2, 53, 61
4, 127100, Note_off_c, 2, 53, 64
4, 127104, Note_on_c, 2, 58, 61
4, 127292, Note_off_c, 2, 58, 64
4, 127296, Note_on_c, 2, 62, 61
4, 127484, Note_off_c, 2, 62, 64
4, 127872, Note_on_c, 2, 43, 61
4, 128060, Note_off_c, 2, 43, 64
4, 128064, Note_on_c, 2, 55, 61
4, 128252, Note_off_c, 2, 55, 64
4, 128256, Note_on_c, 2, 58, 61
4, 128444, Note_off_c, 2, 58, 64
4, 128448, Note_on_c, 2, 64, 61
4, 128636, Note_off_c, 2, 64, 64
4, 129024, Note_on_c, 2, 45, 61
4, 129404, Note_off_c, 2, 45, 64
4, 132672, Note_on_c, 2, 49, 61
4, 132860, Note_off_c, 2, 49, 64
4, 132864, Note_on_c, 2, 50, 61
4, 133052, Note_off_c, 2, 50, 64
4, 133056, Note_on_c, 2, 46, 60
4, 133244, Note_off_c, 2, 46, 64
4, 133248, Note_on_c, 2, 45, 60
4, 133436, Note_off_c, 2, 45, 64
4, 133440, Note_on_c, 2, 44, 58
4, 133628, Note_off_c, 2, 44, 64
4, 133632, Note_on_c, 2, 45, 58
4, 134012, Note_off_c, 2, 45, 64
4, 134976, Note_on_c, 2, 61, 55
4, 135164, Note_off_c, 2, 61, 64
4, 135168, Note_on_c, 2, 62, 55
4, 135356, Note_off_c, 2, 62, 64
4, 135360, Note_on_c, 2, 58, 55
4, 135548, Note_off_c, 2, 58, 64
4, 135552, Note_on_c, 2, 57, 55
4, 135740, Note_off_c, 2, 57, 64
4, 135744, Note_on_c, 2, 56, 55
4, 135932, Note_off_c, 2, 56, 64
4, 135936, Note_on_c, 2, 57, 55
4, 136316, Note_off_c, 2, 57, 64
4, 137088, Note_on_c, 2, 50, 68
4, 137468, Note_off_c, 2, 50, 64
4, 138240, Note_on_c, 2, 38, 68
4, 138620, Note_off_c, 2, 38, 64
4, 139392, Note_on_c, 2, 50, 68
4, 139772, Note_off_c, 2, 50, 64
4, 140544, Note_on_c, 2, 57, 68
4, 140924, Note_off_c, 2, 57, 64
4, 141696, Note_on_c, 2, 57, 68
4, 142076, Note_off_c, 2, 57, 64
4, 142848, Note_on_c, 2, 55, 68
4, 142848, Note_on_c, 2, 45, 68
4, 142940, Note_off_c, 2, 55, 64
4, 143040, Note_on_c, 2, 54, 68
4, 143132, Note_off_c, 2, 54, 64
4, 143228, Note_off_c, 2, 45, 64
4, 143232, Note_on_c, 2, 52, 68
4, 143324, Note_off_c, 2, 52, 64
4, 144000, Note_on_c, 2, 57, 68
4, 144380, Note_off_c, 2, 57, 64
4, 145152, Note_on_c, 2, 57, 68
4, 145152, Note_on_c, 2, 50, 68
4, 145532, Note_off_c, 2, 57, 64
4, 145532, Note_off_c, 2, 50, 64
4, 147456, Note_on_c, 2, 55, 68
4, 147456, Note_on_c, 2, 45, 68
4, 147644, Note_off_c, 2, 55, 64
4, 147648, Note_on_c, 2, 54, 68
4, 147836, Note_off_c, 2, 45, 64
4, 147836, Note_off_c, 2, 54, 64
4, 147840, Note_on_c, 2, 52, 68
4, 148028, Note_off_c, 2, 52, 64
4, 148608, Note_on_c, 2, 57, 68
4, 148988, Note_off_c, 2, 57, 64
4, 149184, Note_on_c, 2, 57, 68
4, 149372, Note_off_c, 2, 57, 64
4, 149376, Note_on_c, 2, 59, 68
4, 149564, Note_off_c, 2, 59, 64
4, 149568, Note_on_c, 2, 61, 68
4, 149756, Note_off_c, 2, 61, 64
4, 149760, Note_on_c, 2, 62, 68
4, 149760, Note_on_c, 2, 50, 68
4, 150140, Note_off_c, 2, 62, 64
4, 150140, Note_off_c, 2, 50, 64
4, 150528, Note_on_c, 2, 62, 68
4, 150908, Note_off_c, 2, 62, 64
4, 150912, Note_on_c, 2, 61, 68
4, 151292, Note_off_c, 2, 61, 64
4, 151680, Note_on_c, 2, 49, 68
4, 152060, Note_off_c, 2, 49, 64
4, 152064, Note_on_c, 2, 50, 61
4, 152444, Note_off_c, 2, 50, 64
4, 152832, Note_on_c, 2, 62, 61
4, 153212, Note_off_c, 2, 62, 64
4, 153216, Note_on_c, 2, 61, 61
4, 153596, Note_off_c, 2, 61, 64
4, 153984, Note_on_c, 2, 49, 61
4, 154364, Note_off_c, 2, 49, 64
4, 154368, Note_on_c, 2, 50, 61
4, 154748, Note_off_c, 2, 50, 64
4, 155136, Note_on_c, 2, 62, 61
4, 155516, Note_off_c, 2, 62, 64
4, 155520, Note_on_c, 2, 59, 61
4, 155900, Note_off_c, 2, 59, 64
4, 156288, Note_on_c, 2, 59, 66
4, 156668, Note_off_c, 2, 59, 64
4, 156672, Note_on_c, 2, 57, 68
4, 157052, Note_off_c, 2, 57, 64
4, 157440, Note_on_c, 2, 57, 72
4, 157820, Note_off_c, 2, 57, 64
4, 157824, Note_on_c, 2, 59, 74
4, 158204, Note_off_c, 2, 59, 64
4, 158592, Note_on_c, 2, 59, 74
4, 158972, Note_off_c, 2, 59, 64
4, 158976, Note_on_c, 2, 57, 74
4, 159356, Note_off_c, 2, 57, 64
4, 159744, Note_on_c, 2, 52, 74
4, 160124, Note_off_c, 2, 52, 64
4, 160128, Note_on_c, 2, 57, 74
4, 160508, Note_off_c, 2, 57, 64
4, 160896, Note_on_c, 2, 52, 74
4, 161276, Note_off_c, 2, 52, 64
4, 161280, Note_on_c, 2, 57, 74
4, 161660, Note_off_c, 2, 57, 64
4, 161664, Note_on_c, 2, 57, 74
4, 162044, Note_off_c, 2, 57, 64
4, 162048, Note_on_c, 2, 57, 74
4, 162428, Note_off_c, 2, 57, 64
4, 162432, Note_on_c, 2, 57, 82
4, 162432, Note_on_c, 2, 45, 82
4, 163196, Note_off_c, 2, 57, 64
4, 163196, Note_off_c, 2, 45, 64
4, 210048, Note_on_c, 2, 50, 61
4, 210428, Note_off_c, 2, 50, 64
4, 210432, Note_on_c, 2, 38, 61
4, 210812, Note_off_c, 2, 38, 64
4, 211200, Note_on_c, 2, 50, 61
4, 211580, Note_off_c, 2, 50, 64
4, 212352, Note_on_c, 2, 57, 61
4, 212732, Note_off_c, 2, 57, 64
4, 213888, Note_on_c, 2, 57, 61
4, 214268, Note_off_c, 2, 57, 64
4, 214272, Note_on_c, 2, 55, 61
4, 214652, Note_off_c, 2, 55, 64
4, 214656, Note_on_c, 2, 54, 61
4, 215036, Note_off_c, 2, 54, 64
4, 215040, Note_on_c, 2, 50, 61
4, 215420, Note_off_c, 2, 50, 64
4, 215424, Note_on_c, 2, 55, 61
4, 215804, Note_off_c, 2, 55, 64
4, 215808, Note_on_c, 2, 54, 61
4, 216188, Note_off_c, 2, 54, 64
4, 216192, Note_on_c, 2, 50, 61
4, 216572, Note_off_c, 2, 50, 64
4, 216576, Note_on_c, 2, 55, 61
4, 216956, Note_off_c, 2, 55, 64
4, 216960, Note_on_c, 2, 54, 61
4, 217340, Note_off_c, 2, 54, 64
4, 217344, Note_on_c, 2, 50, 61
4, 217724, Note_off_c, 2, 50, 64
4, 217728, Note_on_c, 2, 55, 61
4, 218108, Note_off_c, 2, 55, 64
4, 218112, Note_on_c, 2, 57, 61
4, 218492, Note_off_c, 2, 57, 64
4, 218496, Note_on_c, 2, 45, 61
4, 218876, Note_off_c, 2, 45, 64
4, 218880, Note_on_c, 2, 57, 61
4, 219260, Note_off_c, 2, 57, 64
4, 219264, Note_on_c, 2, 62, 82
4, 219644, Note_off_c, 2, 62, 64
4, 219648, Note_on_c, 2, 50, 82
4, 220028, Note_off_c, 2, 50, 64
4, 220416, Note_on_c, 2, 62, 82
4, 220416, Note_on_c, 2, 50, 82
4, 220796, Note_off_c, 2, 62, 64
4, 220796, Note_off_c, 2, 50, 64
4, 221568, Note_on_c, 2, 64, 82
4, 221568, Note_on_c, 2, 57, 82
4, 221948, Note_off_c, 2, 64, 64
4, 221948, Note_off_c, 2, 57, 64
4, 221952, Note_on_c, 2, 64, 82
4, 221952, Note_on_c, 2, 57, 82
4, 222332, Note_off_c, 2, 64, 64
4, 222332, Note_off_c, 2, 57, 64
4, 222336, Note_on_c, 2, 62, 82
4, 222336, Note_on_c, 2, 59, 82
4, 222336, Note_on_c, 2, 66, 82
4, 222716, Note_off_c, 2, 62, 64
4, 222716, Note_off_c, 2, 59, 64
4, 222716, Note_off_c, 2, 66, 64
4, 222720, Note_on_c, 2, 62, 82
4, 222720, Note_on_c, 2, 66, 82
4, 223004, Note_off_c, 2, 62, 64
4, 223004, Note_off_c, 2, 66, 64
4, 223008, Note_on_c, 2, 64, 82
4, 223008, Note_on_c, 2, 67, 82
4, 223100, Note_off_c, 2, 64, 64
4, 223100, Note_off_c, 2, 67, 64
4, 223104, Note_on_c, 2, 64, 82
4, 223104, Note_on_c, 2, 57, 82
4, 223388, Note_off_c, 2, 64, 64
4, 223388, Note_off_c, 2, 57, 64
4, 223392, Note_on_c, 2, 55, 82
4, 223484, Note_off_c, 2, 55, 64
4, 223488, Note_on_c, 2, 54, 82
4, 223772, Note_off_c, 2, 54, 64
4, 223776, Note_on_c, 2, 52, 82
4, 223868, Note_off_c, 2, 52, 64
4, 223872, Note_on_c, 2, 50, 74
4, 224252, Note_off_c, 2, 50, 64
4, 224640, Note_on_c, 2, 50, 74
4, 225020, Note_off_c, 2, 50, 64
4, 225024, Note_on_c, 2, 49, 74
4, 225404, Note_off_c, 2, 49, 64
4, 225792, Note_on_c, 2, 49, 74
4, 226172, Note_off_c, 2, 49, 64
4, 226176, Note_on_c, 2, 50, 61
4, 226556, Note_off_c, 2, 50, 64
4, 226944, Note_on_c, 2, 50, 61
4, 227324, Note_off_c, 2, 50, 64
4, 227328, Note_on_c, 2, 49, 61
4, 227708, Note_off_c, 2, 49, 64
4, 228096, Note_on_c, 2, 49, 61
4, 228476, Note_off_c, 2, 49, 64
4, 228480, Note_on_c, 2, 50, 61
4, 228860, Note_off_c, 2, 50, 64
4, 228864, Note_on_c, 2, 38, 61
4, 229244, Note_off_c, 2, 38, 64
4, 229632, Note_on_c, 2, 62, 61
4, 230012, Note_off_c, 2, 62, 64
4, 230016, Note_on_c, 2, 50, 61
4, 230396, Note_off_c, 2, 50, 64
4, 231552, Note_on_c, 2, 57, 61
4, 231932, Note_off_c, 2, 57, 64
4, 231936, Note_on_c, 2, 62, 61
4, 232316, Note_off_c, 2, 62, 64
4, 232320, Note_on_c, 2, 50, 61
4, 232700, Note_off_c, 2, 50, 64
4, 233088, Note_on_c, 2, 62, 63
4, 233468, Note_off_c, 2, 62, 64
4, 233472, Note_on_c, 2, 50, 66
4, 233852, Note_off_c, 2, 50, 64
4, 237120, Note_on_c, 2, 56, 74
4, 237308, Note_off_c, 2, 56, 64
4, 237312, Note_on_c, 2, 56, 74
4, 237500, Note_off_c, 2, 56, 64
4, 237504, Note_on_c, 2, 56, 74
4, 237692, Note_off_c, 2, 56, 64
4, 237696, Note_on_c, 2, 57, 74
4, 237884, Note_off_c, 2, 57, 64
4, 237888, Note_on_c, 2, 57, 74
4, 238076, Note_off_c, 2, 57, 64
4, 238080, Note_on_c, 2, 57, 74
4, 238268, Note_off_c, 2, 57, 64
4, 238272, Note_on_c, 2, 57, 74
4, 238460, Note_off_c, 2, 57, 64
4, 238464, Note_on_c, 2, 57, 74
4, 238652, Note_off_c, 2, 57, 64
4, 238656, Note_on_c, 2, 57, 74
4, 238844, Note_off_c, 2, 57, 64
4, 238848, Note_on_c, 2, 57, 74
4, 239036, Note_off_c, 2, 57, 64
4, 239040, Note_on_c, 2, 57, 74
4, 239228, Note_off_c, 2, 57, 64
4, 239232, Note_on_c, 2, 57, 74
4, 239420, Note_off_c, 2, 57, 64
4, 239424, Note_on_c, 2, 57, 74
4, 239612, Note_off_c, 2, 57, 64
4, 239616, Note_on_c, 2, 57, 74
4, 239804, Note_off_c, 2, 57, 64
4, 239808, Note_on_c, 2, 57, 74
4, 239996, Note_off_c, 2, 57, 64
4, 240000, Note_on_c, 2, 62, 82
4, 240000, Note_on_c, 2, 57, 82
4, 240000, Note_on_c, 2, 50, 82
4, 240380, Note_off_c, 2, 62, 64
4, 240380, Note_off_c, 2, 57, 64
4, 240380, Note_off_c, 2, 50, 64
4, 240384, Note_on_c, 2, 50, 82
4, 240384, Note_on_c, 2, 38, 82
4, 240764, Note_off_c, 2, 50, 64
4, 240764, Note_off_c, 2, 38, 64
4, 241152, Note_on_c, 2, 62, 82
4, 241152, Note_on_c, 2, 50, 82
4, 241532, Note_off_c, 2, 62, 64
4, 241532, Note_off_c, 2, 50, 64
4, 242304, Note_on_c, 2, 64, 82
4, 242304, Note_on_c, 2, 57, 82
4, 242684, Note_off_c, 2, 64, 64
4, 242684, Note_off_c, 2, 57, 64
4, 242688, Note_on_c, 2, 64, 82
4, 242688, Note_on_c, 2, 57, 82
4, 243068, Note_off_c, 2, 64, 64
4, 243068, Note_off_c, 2, 57, 64
4, 243072, Note_on_c, 2, 62, 82
4, 243072, Note_on_c, 2, 66, 82
4, 243452, Note_off_c, 2, 62, 64
4, 243452, Note_off_c, 2, 66, 64
4, 243456, Note_on_c, 2, 57, 82
4, 243456, Note_on_c, 2, 54, 82
4, 243456, Note_on_c, 2, 62, 82
4, 243836, Note_off_c, 2, 57, 64
4, 243836, Note_off_c, 2, 54, 64
4, 243836, Note_off_c, 2, 62, 64
4, 243840, Note_on_c, 2, 57, 82
4, 243848, Note_on_c, 2, 52, 82
4, 243860, Note_on_c, 2, 67, 82
4, 244220, Note_off_c, 2, 57, 64
4, 244224, Note_on_c, 2, 66, 82
4, 244224, Note_on_c, 2, 50, 82
4, 244228, Note_off_c, 2, 52, 64
4, 244240, Note_off_c, 2, 67, 64
4, 244604, Note_off_c, 2, 66, 64
4, 244604, Note_off_c, 2, 50, 64
4, 244608, Note_on_c, 2, 64, 82
4, 244608, Note_on_c, 2, 49, 82
4, 244988, Note_off_c, 2, 49, 64
4, 244992, Note_on_c, 2, 45, 82
4, 245372, Note_off_c, 2, 64, 64
4, 245372, Note_off_c, 2, 45, 64
4, 245376, Note_on_c, 2, 50, 82
4, 245376, Note_on_c, 2, 62, 82
4, 245756, Note_off_c, 2, 50, 64
4, 245756, Note_off_c, 2, 62, 64
4, 245760, Note_on_c, 2, 55, 82
4, 246140, Note_off_c, 2, 55, 64
4, 246144, Note_on_c, 2, 59, 82
4, 246144, Note_on_c, 2, 52, 82
4, 246524, Note_off_c, 2, 59, 64
4, 246524, Note_off_c, 2, 52, 64
4, 246528, Note_on_c, 2, 57, 82
4, 246908, Note_off_c, 2, 57, 64
4, 246912, Note_on_c, 2, 57, 82
4, 246912, Note_on_c, 2, 50, 82
4, 247292, Note_off_c, 2, 57, 64
4, 247292, Note_off_c, 2, 50, 64
4, 247488, Note_on_c, 2, 57, 82
4, 247488, Note_on_c, 2, 54, 82
4, 247676, Note_off_c, 2, 57, 64
4, 247676, Note_off_c, 2, 54, 64
4, 247680, Note_on_c, 2, 57, 82
4, 247680, Note_on_c, 2, 52, 82
4, 247680, Note_on_c, 2, 45, 82
4, 247868, Note_off_c, 2, 57, 64
4, 247868, Note_off_c, 2, 52, 64
4, 247868, Note_off_c, 2, 45, 64
4, 247872, Note_on_c, 2, 57, 82
4, 247872, Note_on_c, 2, 52, 82
4, 247872, Note_on_c, 2, 45, 82
4, 248060, Note_off_c, 2, 57, 64
4, 248060, Note_off_c, 2, 52, 64
4, 248060, Note_off_c, 2, 45, 64
4, 248064, Note_on_c, 2, 57, 82
4, 248064, Note_on_c, 2, 50, 82
4, 248444, Note_off_c, 2, 57, 64
4, 248444, Note_off_c, 2, 50, 64
4, 248640, Note_on_c, 2, 57, 82
4, 248640, Note_on_c, 2, 54, 82
4, 248828, Note_off_c, 2, 57, 64
4, 248828, Note_off_c, 2, 54, 64
4, 248832, Note_on_c, 2, 57, 82
4, 248832, Note_on_c, 2, 52, 82
4, 248832, Note_on_c, 2, 45, 82
4, 249020, Note_off_c, 2, 57, 64
4, 249020, Note_off_c, 2, 52, 64
4, 249020, Note_off_c, 2, 45, 64
4, 249024, Note_on_c, 2, 57, 82
4, 249024, Note_on_c, 2, 52, 82
4, 249024, Note_on_c, 2, 45, 82
4, 249212, Note_off_c, 2, 57, 64
4, 249212, Note_off_c, 2, 52, 64
4, 249212, Note_off_c, 2, 45, 64
4, 249216, Note_on_c, 2, 57, 82
4, 249216, Note_on_c, 2, 50, 82
4, 249596, Note_off_c, 2, 57, 64
4, 249596, Note_off_c, 2, 50, 64
4, 249600, Note_on_c, 2, 50, 82
4, 249600, Note_on_c, 2, 38, 82
4, 249980, Note_off_c, 2, 50, 64
4, 249980, Note_off_c, 2, 38, 64
4, 249984, Note_on_c, 2, 50, 82
4, 249984, Note_on_c, 2, 38, 82
4, 250364, Note_off_c, 2, 50, 64
4, 250364, Note_off_c, 2, 38, 64
4, 250368, Note_on_c, 2, 50, 82
4, 250368, Note_on_c, 2, 38, 82
4, 251132, Note_off_c, 2, 50, 64
4, 251132, Note_off_c, 2, 38, 64
4, 251132, End_track
5, 0, Start_track
5, 0, Title_t, "Midi by:"
5, 0, Key_signature, 0, "major"
5, 0, End_track
6, 0, Start_track
6, 0, Title_t, "B.Fisher"
6, 0, Key_signature, 0, "major"
6, 0, End_track
7, 0, Start_track
7, 0, Key_signature, 0, "major"
7, 0, End_track
8, 0, Start_track
8, 0, Key_signature, 0, "major"
8, 0, End_track
9, 0, Start_track
9, 0, Key_signature, 0, "major"
9, 0, End_track
10, 0, Start_track
10, 0, Key_signature, 0, "major"
10, 0, End_track
11, 0, Start_track
11, 0, Key_signature, 0, "major"
11, 0, End_track
12, 0, Start_track
12, 0, Key_signature, 0, "major"
12, 0, End_track
13, 0, Start_track
13, 0, Key_signature, 0, "major"
13, 0, End_track
14, 0, Start_track
14, 0, Key_signature, 0, "major"
14, 0, End_track
15, 0, Start_track
15, 0, Key_signature, 0, "major"
15, 0, End_track
16, 0, Start_track
16, 0, Key_signature, 0, "major"
16, 0, End_track
17, 0, Start_track
17, 0, Key_signature, 0, "major"
17, 0, End_track
0, 0, End_of_file
