0, 0, Header, 1, 22, 384
1, 0, Start_track
1, 0, Time_signature, 4, 2, 96, 8
1, 0, Sequencer_specific, 3, 0, 0, 65
1, 0, Tempo, 1016949
1, 4224, Tempo, 895522
1, 6144, Tempo, 937500
1, 6336, Tempo, 937500
1, 6352, Tempo, 952380
1, 6512, Tempo, 967741
1, 6528, Tempo, 983606
1, 6656, Tempo, 983606
1, 6672, Tempo, 1000000
1, 6784, Tempo, 1000000
1, 6800, Tempo, 1016949
1, 6912, Tempo, 1034482
1, 6928, Tempo, 1034482
1, 7008, Tempo, 1052631
1, 7024, Tempo, 1052631
1, 7104, Tempo, 1071428
1, 7120, Tempo, 1090909
1, 7184, Tempo, 1090909
1, 7200, Tempo, 1111111
1, 7264, Tempo, 1111111
1, 7280, Tempo, 1132075
1, 7328, Tempo, 1132075
1, 7344, Tempo, 1153846
1, 7392, Tempo, 1153846
1, 7408, Tempo, 1176470
1, 7456, Tempo, 1176470
1, 7472, Tempo, 1200000
1, 7520, Tempo, 1224489
1, 7536, Tempo, 1224489
1, 7568, Tempo, 1224489
1, 7584, Tempo, 1250000
1, 7616, Tempo, 1250000
1, 7632, Tempo, 1276595
1, 7664, Tempo, 1276595
1, 7680, Tempo, 1016949
1, 10368, Tempo, 895522
1, 12288, Tempo, 983606
1, 12512, Tempo, 1000000
1, 12528, Tempo, 1000000
1, 12704, Tempo, 1016949
1, 12720, Tempo, 1034482
1, 12864, Tempo, 1034482
1, 12880, Tempo, 1052631
1, 13008, Tempo, 1052631
1, 13024, Tempo, 1071428
1, 13136, Tempo, 1090909
1, 13152, Tempo, 1090909
1, 13232, Tempo, 1090909
1, 13248, Tempo, 1111111
1, 13344, Tempo, 1132075
1, 13360, Tempo, 1132075
1, 13424, Tempo, 1153846
1, 13440, Tempo, 1153846
1, 13504, Tempo, 1176470
1, 13520, Tempo, 1176470
1, 13584, Tempo, 1200000
1, 13600, Tempo, 1200000
1, 13648, Tempo, 1224489
1, 13664, Tempo, 1224489
1, 13712, Tempo, 1250000
1, 13728, Tempo, 1250000
1, 13776, Tempo, 1276595
1, 13792, Tempo, 1276595
1, 13808, Tempo, 1276595
1, 13824, Tempo, 1034482
1, 16512, Tempo, 869565
1, 17280, Tempo, 937500
1, 18432, Tempo, 1200000
1, 22656, Tempo, 1500000
1, 23424, Tempo, 1200000
1, 23424, End_track
2, 0, Start_track
2, 0, Title_t, "Piccolo"
2, 0, Control_c, 0, 0, 0
2, 0, Program_c, 0, 72
2, 0, Key_signature, 0, "major"
2, 0, Pitch_bend_c, 0, 8192
2, 0, Control_c, 0, 64, 0
2, 0, Control_c, 0, 1, 0
2, 10664, Note_on_c, 0, 79, 127
2, 10708, Note_off_c, 0, 79, 0
2, 10784, Note_on_c, 0, 84, 127
2, 12384, Note_off_c, 0, 84, 0
2, 12384, End_track
3, 0, Start_track
3, 0, Title_t, "Oboe 1"
3, 0, Control_c, 1, 0, 0
3, 0, Program_c, 1, 68
3, 0, Key_signature, 0, "major"
3, 0, Control_c, 1, 7, 80
3, 0, Pitch_bend_c, 1, 8192
3, 0, Control_c, 1, 64, 0
3, 0, Control_c, 1, 1, 0
3, 0, End_track
4, 0, Start_track
4, 0, Title_t, "Organ"
4, 0, Control_c, 2, 0, 0
4, 0, Program_c, 2, 70
4, 0, Control_c, 2, 10, 90
4, 0, Key_signature, 0, "major"
4, 0, Control_c, 2, 7, 15
4, 0, Pitch_bend_c, 2, 8192
4, 0, Control_c, 2, 64, 0
4, 0, Control_c, 2, 1, 0
4, 36, Note_on_c, 2, 24, 127
4, 5056, Note_off_c, 2, 24, 0
4, 5056, End_track
5, 0, Start_track
5, 0, Title_t, "French Horn 4"
5, 0, Control_c, 3, 0, 0
5, 0, Program_c, 3, 60
5, 0, Control_c, 3, 10, 45
5, 0, Key_signature, 0, "major"
5, 4516, Note_on_c, 3, 55, 127
5, 4588, Note_off_c, 3, 55, 0
5, 4672, Note_on_c, 3, 55, 127
5, 6224, Note_off_c, 3, 55, 0
5, 16976, Note_on_c, 3, 60, 72
5, 18396, Note_off_c, 3, 60, 0
5, 20408, Note_on_c, 3, 67, 127
5, 20540, Note_off_c, 3, 67, 0
5, 20592, Note_on_c, 3, 64, 127
5, 20696, Note_off_c, 3, 64, 0
5, 20772, Note_on_c, 3, 60, 127
5, 20864, Note_off_c, 3, 60, 0
5, 20952, Note_on_c, 3, 55, 127
5, 21044, Note_off_c, 3, 55, 0
5, 21124, Note_on_c, 3, 52, 127
5, 21228, Note_off_c, 3, 52, 0
5, 21316, Note_on_c, 3, 48, 127
5, 21416, Note_off_c, 3, 48, 0
5, 21504, Note_on_c, 3, 43, 127
5, 22216, Note_off_c, 3, 43, 0
5, 22300, Note_on_c, 3, 45, 127
5, 22688, Note_off_c, 3, 45, 0
5, 22716, Note_on_c, 3, 43, 127
5, 23160, Note_off_c, 3, 43, 0
5, 23208, Note_on_c, 3, 48, 127
5, 26164, Note_off_c, 3, 48, 0
5, 26164, End_track
6, 0, Start_track
6, 0, Title_t, "French Horn 1"
6, 0, Control_c, 3, 0, 0
6, 0, Program_c, 3, 60
6, 0, Control_c, 3, 10, 45
6, 0, Key_signature, 0, "major"
6, 0, Control_c, 3, 7, 73
6, 0, Pitch_bend_c, 3, 8192
6, 0, Control_c, 3, 64, 0
6, 0, Control_c, 3, 1, 0
6, 1516, Control_c, 3, 7, 67
6, 1528, Control_c, 3, 7, 66
6, 1532, Note_on_c, 3, 60, 127
6, 1544, Control_c, 3, 7, 64
6, 1556, Control_c, 3, 7, 62
6, 1568, Control_c, 3, 7, 60
6, 1584, Control_c, 3, 7, 59
6, 1600, Control_c, 3, 7, 58
6, 1656, Control_c, 3, 7, 57
6, 1672, Control_c, 3, 7, 56
6, 1696, Control_c, 3, 7, 55
6, 1756, Control_c, 3, 7, 56
6, 1784, Control_c, 3, 7, 55
6, 1812, Control_c, 3, 7, 56
6, 1868, Control_c, 3, 7, 55
6, 1896, Control_c, 3, 7, 56
6, 1924, Control_c, 3, 7, 55
6, 1984, Control_c, 3, 7, 56
6, 2036, Control_c, 3, 7, 55
6, 2064, Control_c, 3, 7, 56
6, 2244, Note_off_c, 3, 60, 0
6, 2328, Note_on_c, 3, 67, 127
6, 2992, Control_c, 3, 7, 57
6, 3020, Note_off_c, 3, 67, 0
6, 3020, Control_c, 3, 7, 58
6, 3048, Control_c, 3, 7, 59
6, 3088, Control_c, 3, 7, 65
6, 3100, Note_on_c, 3, 72, 127
6, 3120, Control_c, 3, 7, 66
6, 3148, Control_c, 3, 7, 67
6, 3376, Control_c, 3, 7, 65
6, 3388, Control_c, 3, 7, 64
6, 3428, Control_c, 3, 7, 63
6, 3444, Control_c, 3, 7, 62
6, 3488, Control_c, 3, 7, 60
6, 3516, Control_c, 3, 7, 59
6, 3544, Control_c, 3, 7, 60
6, 3556, Control_c, 3, 7, 61
6, 3572, Control_c, 3, 7, 62
6, 3584, Control_c, 3, 7, 63
6, 3600, Control_c, 3, 7, 64
6, 3616, Control_c, 3, 7, 65
6, 3644, Control_c, 3, 7, 66
6, 3672, Control_c, 3, 7, 67
6, 3700, Control_c, 3, 7, 68
6, 3728, Control_c, 3, 7, 69
6, 3760, Control_c, 3, 7, 70
6, 3772, Control_c, 3, 7, 71
6, 3784, Control_c, 3, 7, 72
6, 3800, Control_c, 3, 7, 73
6, 3812, Control_c, 3, 7, 74
6, 3828, Control_c, 3, 7, 75
6, 3840, Control_c, 3, 7, 76
6, 3856, Control_c, 3, 7, 77
6, 3872, Control_c, 3, 7, 78
6, 3900, Control_c, 3, 7, 79
6, 3916, Control_c, 3, 7, 80
6, 3928, Control_c, 3, 7, 82
6, 3944, Control_c, 3, 7, 83
6, 3956, Control_c, 3, 7, 84
6, 3972, Control_c, 3, 7, 86
6, 3984, Control_c, 3, 7, 87
6, 4000, Control_c, 3, 7, 88
6, 4016, Control_c, 3, 7, 90
6, 4028, Control_c, 3, 7, 91
6, 4056, Control_c, 3, 7, 92
6, 4072, Control_c, 3, 7, 93
6, 4084, Control_c, 3, 7, 95
6, 4096, Control_c, 3, 7, 96
6, 4112, Control_c, 3, 7, 97
6, 4128, Control_c, 3, 7, 99
6, 4156, Control_c, 3, 7, 100
6, 4172, Control_c, 3, 7, 101
6, 4184, Control_c, 3, 7, 102
6, 4196, Control_c, 3, 7, 103
6, 4212, Control_c, 3, 7, 104
6, 4224, Program_c, 3, 60
6, 4224, Control_c, 3, 7, 105
6, 4240, Control_c, 3, 7, 107
6, 4256, Control_c, 3, 7, 108
6, 4268, Control_c, 3, 7, 109
6, 4284, Control_c, 3, 7, 110
6, 4312, Control_c, 3, 7, 111
6, 4340, Control_c, 3, 7, 113
6, 4352, Control_c, 3, 7, 114
6, 4368, Control_c, 3, 7, 116
6, 4372, Note_off_c, 3, 72, 0
6, 4384, Control_c, 3, 7, 117
6, 4396, Control_c, 3, 7, 119
6, 4412, Control_c, 3, 7, 120
6, 4424, Control_c, 3, 7, 118
6, 4436, Control_c, 3, 7, 114
6, 4452, Control_c, 3, 7, 108
6, 4464, Control_c, 3, 7, 101
6, 4480, Control_c, 3, 7, 92
6, 4496, Control_c, 3, 7, 85
6, 4496, Note_on_c, 3, 67, 127
6, 4496, Note_on_c, 3, 64, 127
6, 4496, Note_on_c, 3, 60, 127
6, 4512, Control_c, 3, 7, 80
6, 4524, Control_c, 3, 7, 77
6, 4536, Control_c, 3, 7, 76
6, 4540, Note_off_c, 3, 60, 0
6, 4544, Note_off_c, 3, 64, 0
6, 4552, Note_off_c, 3, 67, 0
6, 4580, Control_c, 3, 7, 77
6, 4608, Control_c, 3, 7, 78
6, 4652, Control_c, 3, 7, 79
6, 4656, Note_on_c, 3, 67, 127
6, 4656, Note_on_c, 3, 60, 127
6, 4656, Note_on_c, 3, 63, 127
6, 4668, Control_c, 3, 7, 80
6, 4680, Control_c, 3, 7, 82
6, 4692, Control_c, 3, 7, 84
6, 4708, Control_c, 3, 7, 85
6, 4724, Control_c, 3, 7, 86
6, 4848, Control_c, 3, 7, 85
6, 5192, Control_c, 3, 7, 84
6, 5204, Control_c, 3, 7, 83
6, 5232, Control_c, 3, 7, 82
6, 5264, Control_c, 3, 7, 81
6, 5276, Control_c, 3, 7, 80
6, 5292, Control_c, 3, 7, 79
6, 5304, Control_c, 3, 7, 78
6, 5320, Control_c, 3, 7, 77
6, 5332, Control_c, 3, 7, 76
6, 5348, Control_c, 3, 7, 75
6, 5360, Control_c, 3, 7, 73
6, 5376, Control_c, 3, 7, 72
6, 5404, Control_c, 3, 7, 70
6, 5420, Control_c, 3, 7, 69
6, 5432, Control_c, 3, 7, 68
6, 5444, Control_c, 3, 7, 67
6, 5460, Control_c, 3, 7, 66
6, 5488, Control_c, 3, 7, 65
6, 5504, Control_c, 3, 7, 64
6, 5520, Control_c, 3, 7, 62
6, 5532, Control_c, 3, 7, 61
6, 5544, Control_c, 3, 7, 59
6, 5560, Control_c, 3, 7, 58
6, 5576, Control_c, 3, 7, 57
6, 5588, Control_c, 3, 7, 56
6, 5604, Control_c, 3, 7, 54
6, 5616, Control_c, 3, 7, 53
6, 5648, Control_c, 3, 7, 52
6, 5688, Control_c, 3, 7, 53
6, 5744, Control_c, 3, 7, 54
6, 5760, Control_c, 3, 7, 55
6, 5776, Control_c, 3, 7, 57
6, 5788, Control_c, 3, 7, 59
6, 5804, Control_c, 3, 7, 62
6, 5816, Control_c, 3, 7, 63
6, 5832, Control_c, 3, 7, 65
6, 5844, Control_c, 3, 7, 66
6, 5856, Control_c, 3, 7, 67
6, 5872, Control_c, 3, 7, 69
6, 5888, Control_c, 3, 7, 70
6, 5904, Control_c, 3, 7, 71
6, 5916, Control_c, 3, 7, 73
6, 5932, Control_c, 3, 7, 74
6, 5944, Control_c, 3, 7, 76
6, 5960, Control_c, 3, 7, 77
6, 5972, Control_c, 3, 7, 78
6, 5984, Control_c, 3, 7, 79
6, 6000, Control_c, 3, 7, 80
6, 6016, Control_c, 3, 7, 81
6, 6032, Control_c, 3, 7, 83
6, 6044, Control_c, 3, 7, 84
6, 6060, Control_c, 3, 7, 86
6, 6072, Control_c, 3, 7, 88
6, 6088, Control_c, 3, 7, 90
6, 6100, Control_c, 3, 7, 92
6, 6112, Control_c, 3, 7, 94
6, 6128, Control_c, 3, 7, 96
6, 6144, Control_c, 3, 7, 98
6, 6156, Control_c, 3, 7, 99
6, 6168, Control_c, 3, 7, 101
6, 6180, Control_c, 3, 7, 103
6, 6192, Control_c, 3, 7, 104
6, 6208, Control_c, 3, 7, 112
6, 6224, Control_c, 3, 7, 113
6, 6236, Control_c, 3, 7, 114
6, 6240, Note_off_c, 3, 60, 0
6, 6240, Note_off_c, 3, 67, 0
6, 6248, Note_off_c, 3, 63, 0
6, 6248, Control_c, 3, 7, 116
6, 6272, Control_c, 3, 7, 115
6, 6288, Control_c, 3, 7, 113
6, 6304, Control_c, 3, 7, 110
6, 6316, Control_c, 3, 7, 105
6, 6328, Control_c, 3, 7, 102
6, 6340, Control_c, 3, 7, 98
6, 6352, Control_c, 3, 7, 96
6, 6368, Control_c, 3, 7, 94
6, 6380, Control_c, 3, 7, 93
6, 6392, Control_c, 3, 7, 92
6, 6420, Control_c, 3, 7, 91
6, 6432, Control_c, 3, 7, 90
6, 6448, Control_c, 3, 7, 89
6, 6460, Control_c, 3, 7, 88
6, 6472, Control_c, 3, 7, 87
6, 6484, Control_c, 3, 7, 86
6, 6652, Control_c, 3, 7, 85
6, 6664, Control_c, 3, 7, 84
6, 6676, Control_c, 3, 7, 83
6, 6688, Control_c, 3, 7, 82
6, 6724, Control_c, 3, 7, 81
6, 6788, Control_c, 3, 7, 80
6, 6824, Control_c, 3, 7, 81
6, 7216, Control_c, 3, 7, 79
6, 7280, Control_c, 3, 7, 78
6, 7600, Control_c, 3, 7, 76
6, 7632, Control_c, 3, 7, 77
6, 7668, Control_c, 3, 7, 76
6, 7704, Note_on_c, 3, 60, 127
6, 8328, Note_off_c, 3, 60, 0
6, 8404, Control_c, 3, 7, 79
6, 8416, Control_c, 3, 7, 80
6, 8448, Note_on_c, 3, 67, 127
6, 8480, Control_c, 3, 7, 81
6, 9132, Note_off_c, 3, 67, 0
6, 9168, Control_c, 3, 7, 83
6, 9184, Control_c, 3, 7, 84
6, 9188, Note_on_c, 3, 72, 127
6, 9208, Control_c, 3, 7, 85
6, 9232, Control_c, 3, 7, 86
6, 9260, Control_c, 3, 7, 84
6, 9272, Control_c, 3, 7, 81
6, 9284, Control_c, 3, 7, 78
6, 9296, Control_c, 3, 7, 76
6, 9312, Control_c, 3, 7, 75
6, 9324, Control_c, 3, 7, 74
6, 9336, Control_c, 3, 7, 73
6, 9364, Control_c, 3, 7, 71
6, 9376, Control_c, 3, 7, 69
6, 9392, Control_c, 3, 7, 66
6, 9400, Control_c, 3, 7, 64
6, 9412, Control_c, 3, 7, 63
6, 9424, Control_c, 3, 7, 62
6, 9488, Control_c, 3, 7, 63
6, 9504, Control_c, 3, 7, 64
6, 9516, Control_c, 3, 7, 65
6, 9528, Control_c, 3, 7, 67
6, 9540, Control_c, 3, 7, 68
6, 9568, Control_c, 3, 7, 69
6, 9580, Control_c, 3, 7, 70
6, 9592, Control_c, 3, 7, 71
6, 9604, Control_c, 3, 7, 72
6, 9616, Control_c, 3, 7, 73
6, 9656, Control_c, 3, 7, 75
6, 9668, Control_c, 3, 7, 76
6, 9680, Control_c, 3, 7, 77
6, 9720, Control_c, 3, 7, 78
6, 9732, Control_c, 3, 7, 79
6, 9760, Control_c, 3, 7, 80
6, 9772, Control_c, 3, 7, 81
6, 9796, Control_c, 3, 7, 82
6, 9808, Control_c, 3, 7, 83
6, 9824, Control_c, 3, 7, 84
6, 9848, Control_c, 3, 7, 85
6, 9872, Control_c, 3, 7, 86
6, 9888, Control_c, 3, 7, 87
6, 9900, Control_c, 3, 7, 88
6, 9924, Control_c, 3, 7, 89
6, 9936, Control_c, 3, 7, 90
6, 9948, Control_c, 3, 7, 91
6, 9960, Control_c, 3, 7, 92
6, 9976, Control_c, 3, 7, 93
6, 9988, Control_c, 3, 7, 94
6, 10000, Control_c, 3, 7, 95
6, 10016, Control_c, 3, 7, 96
6, 10024, Control_c, 3, 7, 98
6, 10048, Control_c, 3, 7, 99
6, 10064, Control_c, 3, 7, 100
6, 10076, Control_c, 3, 7, 101
6, 10088, Control_c, 3, 7, 102
6, 10104, Control_c, 3, 7, 103
6, 10116, Control_c, 3, 7, 104
6, 10144, Control_c, 3, 7, 106
6, 10180, Control_c, 3, 7, 107
6, 10192, Control_c, 3, 7, 108
6, 10220, Control_c, 3, 7, 109
6, 10228, Control_c, 3, 7, 110
6, 10244, Control_c, 3, 7, 111
6, 10284, Control_c, 3, 7, 112
6, 10296, Control_c, 3, 7, 113
6, 10304, Control_c, 3, 7, 114
6, 10344, Control_c, 3, 7, 115
6, 10356, Control_c, 3, 7, 116
6, 10368, Control_c, 3, 7, 117
6, 10384, Control_c, 3, 7, 118
6, 10396, Control_c, 3, 7, 119
6, 10484, Control_c, 3, 7, 118
6, 10496, Control_c, 3, 7, 115
6, 10512, Control_c, 3, 7, 111
6, 10520, Note_off_c, 3, 72, 0
6, 10524, Control_c, 3, 7, 105
6, 10536, Control_c, 3, 7, 100
6, 10548, Control_c, 3, 7, 95
6, 10560, Control_c, 3, 7, 91
6, 10576, Control_c, 3, 7, 89
6, 10588, Control_c, 3, 7, 88
6, 10600, Control_c, 3, 7, 87
6, 10624, Control_c, 3, 7, 86
6, 10660, Note_on_c, 3, 67, 127
6, 10660, Note_on_c, 3, 63, 127
6, 10660, Note_on_c, 3, 60, 127
6, 10664, Control_c, 3, 7, 87
6, 10676, Control_c, 3, 7, 86
6, 10688, Control_c, 3, 7, 85
6, 10696, Note_off_c, 3, 60, 0
6, 10704, Note_off_c, 3, 63, 0
6, 10712, Note_off_c, 3, 67, 0
6, 10728, Control_c, 3, 7, 86
6, 10740, Control_c, 3, 7, 88
6, 10752, Control_c, 3, 7, 91
6, 10768, Control_c, 3, 7, 94
6, 10780, Control_c, 3, 7, 95
6, 10792, Control_c, 3, 7, 96
6, 10792, Note_on_c, 3, 67, 127
6, 10792, Note_on_c, 3, 60, 127
6, 10796, Note_on_c, 3, 64, 127
6, 10804, Control_c, 3, 7, 98
6, 10816, Control_c, 3, 7, 100
6, 10832, Control_c, 3, 7, 102
6, 10844, Control_c, 3, 7, 103
6, 10868, Control_c, 3, 7, 102
6, 10880, Control_c, 3, 7, 100
6, 10896, Control_c, 3, 7, 99
6, 10912, Control_c, 3, 7, 98
6, 10984, Control_c, 3, 7, 97
6, 11024, Control_c, 3, 7, 96
6, 11112, Control_c, 3, 7, 95
6, 11124, Control_c, 3, 7, 94
6, 11152, Control_c, 3, 7, 93
6, 11176, Control_c, 3, 7, 92
6, 11200, Control_c, 3, 7, 91
6, 11252, Control_c, 3, 7, 89
6, 11264, Control_c, 3, 7, 88
6, 11292, Control_c, 3, 7, 87
6, 11328, Control_c, 3, 7, 86
6, 11368, Control_c, 3, 7, 85
6, 11404, Control_c, 3, 7, 84
6, 11432, Control_c, 3, 7, 83
6, 11444, Control_c, 3, 7, 82
6, 11472, Control_c, 3, 7, 81
6, 11484, Control_c, 3, 7, 80
6, 11504, Control_c, 3, 7, 79
6, 11520, Control_c, 3, 7, 78
6, 11548, Control_c, 3, 7, 77
6, 11568, Control_c, 3, 7, 76
6, 11584, Control_c, 3, 7, 75
6, 11596, Control_c, 3, 7, 74
6, 11608, Control_c, 3, 7, 73
6, 11636, Control_c, 3, 7, 72
6, 11664, Control_c, 3, 7, 71
6, 11688, Control_c, 3, 7, 70
6, 11700, Control_c, 3, 7, 69
6, 11764, Control_c, 3, 7, 70
6, 11776, Control_c, 3, 7, 71
6, 11788, Control_c, 3, 7, 72
6, 11800, Control_c, 3, 7, 74
6, 11816, Control_c, 3, 7, 75
6, 11828, Control_c, 3, 7, 76
6, 11840, Control_c, 3, 7, 77
6, 11852, Control_c, 3, 7, 78
6, 11864, Control_c, 3, 7, 80
6, 11876, Control_c, 3, 7, 81
6, 11916, Control_c, 3, 7, 82
6, 11928, Control_c, 3, 7, 83
6, 11940, Control_c, 3, 7, 84
6, 11952, Control_c, 3, 7, 85
6, 11968, Control_c, 3, 7, 86
6, 11980, Control_c, 3, 7, 87
6, 11992, Control_c, 3, 7, 88
6, 12016, Control_c, 3, 7, 89
6, 12032, Control_c, 3, 7, 91
6, 12044, Control_c, 3, 7, 92
6, 12056, Control_c, 3, 7, 93
6, 12068, Control_c, 3, 7, 94
6, 12080, Control_c, 3, 7, 95
6, 12096, Control_c, 3, 7, 96
6, 12108, Control_c, 3, 7, 97
6, 12120, Control_c, 3, 7, 98
6, 12144, Control_c, 3, 7, 99
6, 12160, Control_c, 3, 7, 100
6, 12172, Control_c, 3, 7, 101
6, 12196, Control_c, 3, 7, 103
6, 12208, Control_c, 3, 7, 104
6, 12224, Control_c, 3, 7, 106
6, 12236, Control_c, 3, 7, 107
6, 12272, Control_c, 3, 7, 108
6, 12300, Control_c, 3, 7, 109
6, 12336, Control_c, 3, 7, 110
6, 12348, Control_c, 3, 7, 111
6, 12364, Note_off_c, 3, 60, 0
6, 12364, Note_off_c, 3, 67, 0
6, 12368, Note_off_c, 3, 64, 0
6, 12372, Control_c, 3, 7, 112
6, 12416, Control_c, 3, 7, 113
6, 12448, Control_c, 3, 7, 111
6, 12464, Control_c, 3, 7, 108
6, 12476, Control_c, 3, 7, 105
6, 12488, Control_c, 3, 7, 101
6, 12500, Control_c, 3, 7, 97
6, 12512, Control_c, 3, 7, 95
6, 12528, Control_c, 3, 7, 94
6, 12540, Control_c, 3, 7, 92
6, 12552, Control_c, 3, 7, 90
6, 12564, Control_c, 3, 7, 89
6, 12576, Control_c, 3, 7, 87
6, 12588, Control_c, 3, 7, 86
6, 12600, Control_c, 3, 7, 85
6, 12624, Control_c, 3, 7, 84
6, 12640, Control_c, 3, 7, 83
6, 12652, Control_c, 3, 7, 82
6, 12664, Control_c, 3, 7, 81
6, 12676, Control_c, 3, 7, 80
6, 12724, Control_c, 3, 7, 79
6, 12760, Control_c, 3, 7, 80
6, 13164, Control_c, 3, 7, 78
6, 13184, Control_c, 3, 7, 79
6, 13312, Control_c, 3, 7, 78
6, 13824, Note_on_c, 3, 60, 127
6, 14232, Control_c, 3, 7, 86
6, 14296, Control_c, 3, 7, 87
6, 14400, Control_c, 3, 7, 88
6, 14448, Control_c, 3, 7, 89
6, 14472, Note_off_c, 3, 60, 0
6, 14472, Control_c, 3, 7, 90
6, 14540, Control_c, 3, 7, 91
6, 14592, Note_on_c, 3, 67, 127
6, 14604, Control_c, 3, 7, 92
6, 14640, Control_c, 3, 7, 91
6, 15152, Control_c, 3, 7, 93
6, 15188, Control_c, 3, 7, 94
6, 15248, Control_c, 3, 7, 92
6, 15264, Control_c, 3, 7, 91
6, 15280, Control_c, 3, 7, 90
6, 15292, Control_c, 3, 7, 87
6, 15296, Note_off_c, 3, 67, 0
6, 15304, Control_c, 3, 7, 85
6, 15316, Control_c, 3, 7, 84
6, 15328, Control_c, 3, 7, 83
6, 15344, Control_c, 3, 7, 82
6, 15356, Control_c, 3, 7, 81
6, 15360, Note_on_c, 3, 72, 127
6, 15408, Control_c, 3, 7, 80
6, 15724, Control_c, 3, 7, 78
6, 15916, Control_c, 3, 7, 84
6, 15928, Control_c, 3, 7, 85
6, 15940, Control_c, 3, 7, 86
6, 15952, Control_c, 3, 7, 87
6, 15968, Control_c, 3, 7, 88
6, 15980, Control_c, 3, 7, 89
6, 15992, Control_c, 3, 7, 90
6, 16004, Control_c, 3, 7, 91
6, 16016, Control_c, 3, 7, 92
6, 16044, Control_c, 3, 7, 93
6, 16056, Control_c, 3, 7, 94
6, 16068, Control_c, 3, 7, 95
6, 16096, Control_c, 3, 7, 96
6, 16108, Control_c, 3, 7, 97
6, 16120, Control_c, 3, 7, 98
6, 16132, Control_c, 3, 7, 99
6, 16160, Control_c, 3, 7, 100
6, 16196, Control_c, 3, 7, 102
6, 16236, Control_c, 3, 7, 103
6, 16260, Control_c, 3, 7, 104
6, 16288, Control_c, 3, 7, 105
6, 16324, Control_c, 3, 7, 106
6, 16364, Control_c, 3, 7, 107
6, 16416, Control_c, 3, 7, 108
6, 16440, Control_c, 3, 7, 109
6, 16464, Control_c, 3, 7, 110
6, 16500, Control_c, 3, 7, 111
6, 16556, Control_c, 3, 7, 112
6, 16576, Control_c, 3, 7, 113
6, 16616, Control_c, 3, 7, 114
6, 16668, Control_c, 3, 7, 112
6, 16680, Control_c, 3, 7, 109
6, 16684, Note_off_c, 3, 72, 0
6, 16692, Control_c, 3, 7, 104
6, 16704, Control_c, 3, 7, 100
6, 16720, Control_c, 3, 7, 96
6, 16732, Control_c, 3, 7, 93
6, 16744, Control_c, 3, 7, 91
6, 16756, Control_c, 3, 7, 89
6, 16768, Control_c, 3, 7, 87
6, 16784, Control_c, 3, 7, 84
6, 16796, Control_c, 3, 7, 82
6, 16808, Control_c, 3, 7, 79
6, 16816, Note_on_c, 3, 64, 127
6, 16816, Note_on_c, 3, 60, 127
6, 16824, Control_c, 3, 7, 77
6, 16836, Control_c, 3, 7, 75
6, 16848, Control_c, 3, 7, 74
6, 16872, Control_c, 3, 7, 75
6, 16876, Note_off_c, 3, 60, 0
6, 16880, Note_off_c, 3, 64, 0
6, 16884, Control_c, 3, 7, 76
6, 16896, Control_c, 3, 7, 77
6, 16912, Control_c, 3, 7, 79
6, 16924, Control_c, 3, 7, 82
6, 16936, Control_c, 3, 7, 85
6, 16940, Note_on_c, 3, 65, 127
6, 16940, Note_on_c, 3, 69, 127
6, 16948, Control_c, 3, 7, 89
6, 16960, Control_c, 3, 7, 94
6, 16976, Control_c, 3, 7, 100
6, 16988, Control_c, 3, 7, 104
6, 17000, Control_c, 3, 7, 107
6, 17012, Control_c, 3, 7, 108
6, 17040, Control_c, 3, 7, 107
6, 17076, Control_c, 3, 7, 106
6, 17088, Control_c, 3, 7, 105
6, 17116, Control_c, 3, 7, 104
6, 17244, Control_c, 3, 7, 103
6, 17296, Control_c, 3, 7, 102
6, 17384, Control_c, 3, 7, 101
6, 17560, Control_c, 3, 7, 100
6, 17588, Control_c, 3, 7, 99
6, 17600, Control_c, 3, 7, 97
6, 17616, Control_c, 3, 7, 96
6, 17628, Control_c, 3, 7, 95
6, 17640, Control_c, 3, 7, 94
6, 17652, Control_c, 3, 7, 93
6, 17664, Control_c, 3, 7, 92
6, 17676, Control_c, 3, 7, 90
6, 17688, Control_c, 3, 7, 89
6, 17700, Control_c, 3, 7, 88
6, 17716, Control_c, 3, 7, 86
6, 17728, Control_c, 3, 7, 84
6, 17744, Control_c, 3, 7, 82
6, 17752, Control_c, 3, 7, 79
6, 17764, Control_c, 3, 7, 77
6, 17776, Control_c, 3, 7, 74
6, 17792, Control_c, 3, 7, 71
6, 17804, Control_c, 3, 7, 69
6, 17828, Control_c, 3, 7, 68
6, 17840, Control_c, 3, 7, 67
6, 17868, Control_c, 3, 7, 66
6, 17932, Control_c, 3, 7, 67
6, 17944, Control_c, 3, 7, 68
6, 17956, Control_c, 3, 7, 70
6, 17968, Control_c, 3, 7, 72
6, 17984, Control_c, 3, 7, 74
6, 17996, Control_c, 3, 7, 75
6, 18008, Control_c, 3, 7, 77
6, 18020, Control_c, 3, 7, 78
6, 18032, Control_c, 3, 7, 79
6, 18048, Control_c, 3, 7, 81
6, 18060, Control_c, 3, 7, 83
6, 18072, Control_c, 3, 7, 85
6, 18084, Control_c, 3, 7, 87
6, 18096, Control_c, 3, 7, 88
6, 18112, Control_c, 3, 7, 89
6, 18124, Control_c, 3, 7, 90
6, 18136, Control_c, 3, 7, 91
6, 18148, Control_c, 3, 7, 92
6, 18160, Control_c, 3, 7, 93
6, 18176, Control_c, 3, 7, 94
6, 18188, Control_c, 3, 7, 96
6, 18200, Control_c, 3, 7, 97
6, 18212, Control_c, 3, 7, 98
6, 18224, Control_c, 3, 7, 100
6, 18240, Control_c, 3, 7, 101
6, 18252, Control_c, 3, 7, 102
6, 18276, Control_c, 3, 7, 104
6, 18288, Control_c, 3, 7, 105
6, 18300, Control_c, 3, 7, 106
6, 18312, Control_c, 3, 7, 107
6, 18336, Note_off_c, 3, 65, 0
6, 18336, Note_off_c, 3, 69, 0
6, 18352, Control_c, 3, 7, 108
6, 18368, Control_c, 3, 7, 109
6, 18380, Control_c, 3, 7, 110
6, 18416, Control_c, 3, 7, 111
6, 18432, Control_c, 3, 7, 112
6, 18604, Control_c, 3, 7, 112
6, 20080, Note_on_c, 3, 64, 84
6, 20080, Note_on_c, 3, 60, 93
6, 20224, Note_off_c, 3, 60, 0
6, 20240, Note_off_c, 3, 64, 0
6, 20256, Note_on_c, 3, 62, 125
6, 20256, Note_on_c, 3, 65, 127
6, 20408, Note_off_c, 3, 62, 0
6, 20420, Note_off_c, 3, 65, 0
6, 20460, Note_on_c, 3, 67, 120
6, 20460, Note_on_c, 3, 64, 120
6, 21232, Note_off_c, 3, 67, 0
6, 21232, Note_off_c, 3, 64, 0
6, 21312, Note_on_c, 3, 67, 127
6, 21344, Note_on_c, 3, 64, 84
6, 21344, Note_on_c, 3, 60, 58
6, 21360, Note_off_c, 3, 67, 0
6, 21424, Note_off_c, 3, 60, 0
6, 21424, Note_on_c, 3, 67, 127
6, 21432, Note_on_c, 3, 65, 55
6, 21432, Note_on_c, 3, 62, 48
6, 21440, Note_off_c, 3, 64, 0
6, 21472, Note_off_c, 3, 67, 0
6, 21492, Note_off_c, 3, 62, 0
6, 21508, Note_off_c, 3, 65, 0
6, 21532, Note_on_c, 3, 67, 127
6, 21544, Note_on_c, 3, 67, 79
6, 21544, Note_on_c, 3, 64, 96
6, 22172, Note_off_c, 3, 64, 0
6, 22224, Note_off_c, 3, 67, 0
6, 22228, Note_off_c, 3, 67, 0
6, 22284, Note_on_c, 3, 64, 111
6, 22284, Note_on_c, 3, 69, 108
6, 22288, Note_on_c, 3, 60, 127
6, 22472, Control_c, 3, 7, 103
6, 22500, Control_c, 3, 7, 102
6, 22524, Control_c, 3, 7, 101
6, 22552, Control_c, 3, 7, 100
6, 22656, Control_c, 3, 7, 99
6, 22672, Note_off_c, 3, 64, 0
6, 22680, Note_off_c, 3, 60, 0
6, 22696, Note_off_c, 3, 69, 0
6, 22716, Note_on_c, 3, 62, 127
6, 22720, Note_on_c, 3, 67, 127
6, 22720, Note_on_c, 3, 71, 127
6, 22788, Control_c, 3, 7, 98
6, 23076, Control_c, 3, 7, 96
6, 23120, Control_c, 3, 7, 95
6, 23128, Control_c, 3, 7, 94
6, 23148, Note_off_c, 3, 62, 0
6, 23156, Note_off_c, 3, 67, 0
6, 23156, Note_off_c, 3, 71, 0
6, 23160, Control_c, 3, 7, 93
6, 23176, Note_on_c, 3, 67, 127
6, 23176, Note_on_c, 3, 64, 127
6, 23176, Note_on_c, 3, 60, 127
6, 23264, Control_c, 3, 7, 92
6, 23272, Control_c, 3, 7, 90
6, 23280, Control_c, 3, 7, 89
6, 23316, Control_c, 3, 7, 90
6, 23388, Control_c, 3, 7, 89
6, 23408, Control_c, 3, 7, 88
6, 23420, Control_c, 3, 7, 87
6, 23428, Control_c, 3, 7, 86
6, 23440, Control_c, 3, 7, 85
6, 23448, Control_c, 3, 7, 84
6, 23456, Control_c, 3, 7, 83
6, 23520, Control_c, 3, 7, 84
6, 23532, Control_c, 3, 7, 85
6, 23552, Control_c, 3, 7, 86
6, 23644, Control_c, 3, 7, 87
6, 23664, Control_c, 3, 7, 88
6, 23788, Control_c, 3, 7, 83
6, 23808, Control_c, 3, 7, 82
6, 23828, Control_c, 3, 7, 81
6, 23840, Control_c, 3, 7, 80
6, 23848, Control_c, 3, 7, 79
6, 23872, Control_c, 3, 7, 78
6, 23912, Control_c, 3, 7, 77
6, 23944, Control_c, 3, 7, 76
6, 23964, Control_c, 3, 7, 75
6, 23996, Control_c, 3, 7, 74
6, 24036, Control_c, 3, 7, 73
6, 24064, Control_c, 3, 7, 72
6, 24128, Control_c, 3, 7, 71
6, 24220, Control_c, 3, 7, 70
6, 24272, Control_c, 3, 7, 69
6, 24304, Control_c, 3, 7, 68
6, 24336, Control_c, 3, 7, 67
6, 24352, Control_c, 3, 7, 66
6, 24376, Control_c, 3, 7, 65
6, 24396, Control_c, 3, 7, 64
6, 24404, Control_c, 3, 7, 63
6, 24428, Control_c, 3, 7, 62
6, 24448, Control_c, 3, 7, 61
6, 24480, Control_c, 3, 7, 60
6, 24488, Control_c, 3, 7, 59
6, 24508, Control_c, 3, 7, 58
6, 24516, Control_c, 3, 7, 57
6, 24540, Control_c, 3, 7, 56
6, 24560, Control_c, 3, 7, 55
6, 24580, Control_c, 3, 7, 54
6, 24592, Control_c, 3, 7, 53
6, 24604, Control_c, 3, 7, 52
6, 24612, Control_c, 3, 7, 51
6, 24624, Control_c, 3, 7, 50
6, 24656, Control_c, 3, 7, 49
6, 24664, Control_c, 3, 7, 48
6, 24672, Control_c, 3, 7, 47
6, 24684, Control_c, 3, 7, 46
6, 24692, Control_c, 3, 7, 45
6, 24704, Control_c, 3, 7, 44
6, 24716, Control_c, 3, 7, 43
6, 24736, Control_c, 3, 7, 42
6, 24744, Control_c, 3, 7, 41
6, 24756, Control_c, 3, 7, 40
6, 24768, Control_c, 3, 7, 39
6, 24776, Control_c, 3, 7, 38
6, 24784, Control_c, 3, 7, 37
6, 24808, Control_c, 3, 7, 36
6, 24816, Control_c, 3, 7, 35
6, 24860, Control_c, 3, 7, 34
6, 24868, Control_c, 3, 7, 32
6, 24880, Control_c, 3, 7, 31
6, 24900, Control_c, 3, 7, 30
6, 24940, Control_c, 3, 7, 29
6, 24952, Control_c, 3, 7, 28
6, 24960, Control_c, 3, 7, 27
6, 25012, Control_c, 3, 7, 28
6, 25032, Control_c, 3, 7, 29
6, 25044, Control_c, 3, 7, 30
6, 25056, Control_c, 3, 7, 31
6, 25084, Control_c, 3, 7, 32
6, 25116, Control_c, 3, 7, 33
6, 25148, Control_c, 3, 7, 34
6, 25156, Control_c, 3, 7, 35
6, 25168, Control_c, 3, 7, 36
6, 25180, Control_c, 3, 7, 37
6, 25188, Control_c, 3, 7, 38
6, 25200, Control_c, 3, 7, 39
6, 25208, Control_c, 3, 7, 41
6, 25216, Control_c, 3, 7, 42
6, 25232, Control_c, 3, 7, 43
6, 25248, Control_c, 3, 7, 44
6, 25260, Control_c, 3, 7, 45
6, 25272, Control_c, 3, 7, 46
6, 25280, Control_c, 3, 7, 48
6, 25292, Control_c, 3, 7, 49
6, 25300, Control_c, 3, 7, 50
6, 25312, Control_c, 3, 7, 52
6, 25324, Control_c, 3, 7, 53
6, 25332, Control_c, 3, 7, 55
6, 25352, Control_c, 3, 7, 57
6, 25360, Control_c, 3, 7, 58
6, 25376, Control_c, 3, 7, 60
6, 25384, Control_c, 3, 7, 61
6, 25392, Control_c, 3, 7, 62
6, 25404, Control_c, 3, 7, 63
6, 25412, Control_c, 3, 7, 65
6, 25424, Control_c, 3, 7, 66
6, 25436, Control_c, 3, 7, 67
6, 25444, Control_c, 3, 7, 69
6, 25464, Control_c, 3, 7, 71
6, 25476, Control_c, 3, 7, 73
6, 25488, Control_c, 3, 7, 74
6, 25496, Control_c, 3, 7, 76
6, 25504, Control_c, 3, 7, 78
6, 25520, Control_c, 3, 7, 79
6, 25528, Control_c, 3, 7, 80
6, 25536, Control_c, 3, 7, 81
6, 25548, Control_c, 3, 7, 82
6, 25568, Control_c, 3, 7, 84
6, 25580, Control_c, 3, 7, 85
6, 25588, Control_c, 3, 7, 87
6, 25600, Control_c, 3, 7, 88
6, 25608, Control_c, 3, 7, 89
6, 25620, Control_c, 3, 7, 90
6, 25632, Control_c, 3, 7, 91
6, 25640, Control_c, 3, 7, 92
6, 25648, Control_c, 3, 7, 93
6, 25672, Control_c, 3, 7, 94
6, 25680, Control_c, 3, 7, 95
6, 25692, Control_c, 3, 7, 96
6, 25700, Control_c, 3, 7, 97
6, 25732, Control_c, 3, 7, 98
6, 25764, Control_c, 3, 7, 99
6, 25796, Control_c, 3, 7, 100
6, 25808, Control_c, 3, 7, 101
6, 25816, Control_c, 3, 7, 102
6, 25824, Control_c, 3, 7, 103
6, 25848, Control_c, 3, 7, 104
6, 25876, Control_c, 3, 7, 105
6, 25900, Control_c, 3, 7, 106
6, 25920, Control_c, 3, 7, 107
6, 25940, Control_c, 3, 7, 109
6, 25968, Control_c, 3, 7, 110
6, 25980, Control_c, 3, 7, 111
6, 25992, Control_c, 3, 7, 112
6, 26000, Control_c, 3, 7, 113
6, 26032, Control_c, 3, 7, 114
6, 26044, Control_c, 3, 7, 115
6, 26064, Control_c, 3, 7, 116
6, 26072, Control_c, 3, 7, 117
6, 26080, Control_c, 3, 7, 118
6, 26104, Control_c, 3, 7, 119
6, 26132, Note_off_c, 3, 60, 0
6, 26132, Note_off_c, 3, 64, 0
6, 26132, Note_off_c, 3, 67, 0
6, 26132, Control_c, 3, 7, 121
6, 26144, Control_c, 3, 7, 122
6, 26156, Control_c, 3, 7, 123
6, 26176, Control_c, 3, 7, 124
6, 26208, Control_c, 3, 7, 126
6, 26240, Control_c, 3, 7, 127
6, 26256, Control_c, 3, 7, 126
6, 26256, End_track
7, 0, Start_track
7, 0, Title_t, "Trumpet 1"
7, 0, Control_c, 4, 0, 0
7, 0, Program_c, 4, 58
7, 0, Control_c, 4, 10, 40
7, 0, Key_signature, 0, "major"
7, 0, Control_c, 4, 7, 45
7, 0, Pitch_bend_c, 4, 8192
7, 0, Control_c, 4, 64, 0
7, 0, Control_c, 4, 1, 0
7, 1516, Control_c, 4, 7, 39
7, 1528, Control_c, 4, 7, 38
7, 1532, Note_on_c, 4, 60, 127
7, 1544, Control_c, 4, 7, 36
7, 1556, Control_c, 4, 7, 34
7, 1572, Control_c, 4, 7, 32
7, 1584, Control_c, 4, 7, 31
7, 1600, Control_c, 4, 7, 30
7, 1656, Control_c, 4, 7, 29
7, 1672, Control_c, 4, 7, 28
7, 1696, Control_c, 4, 7, 27
7, 1756, Control_c, 4, 7, 28
7, 1784, Control_c, 4, 7, 27
7, 1812, Control_c, 4, 7, 28
7, 1872, Control_c, 4, 7, 27
7, 1900, Control_c, 4, 7, 28
7, 1928, Control_c, 4, 7, 27
7, 1984, Control_c, 4, 7, 28
7, 2040, Control_c, 4, 7, 27
7, 2068, Control_c, 4, 7, 28
7, 2244, Note_off_c, 4, 60, 0
7, 2328, Note_on_c, 4, 67, 127
7, 2992, Control_c, 4, 7, 29
7, 3020, Note_off_c, 4, 67, 0
7, 3020, Control_c, 4, 7, 30
7, 3048, Control_c, 4, 7, 31
7, 3092, Control_c, 4, 7, 37
7, 3100, Note_on_c, 4, 72, 127
7, 3120, Control_c, 4, 7, 38
7, 3148, Control_c, 4, 7, 39
7, 3376, Control_c, 4, 7, 37
7, 3392, Control_c, 4, 7, 36
7, 3432, Control_c, 4, 7, 35
7, 3444, Control_c, 4, 7, 34
7, 3488, Control_c, 4, 7, 32
7, 3516, Control_c, 4, 7, 31
7, 3544, Control_c, 4, 7, 32
7, 3560, Control_c, 4, 7, 33
7, 3572, Control_c, 4, 7, 34
7, 3588, Control_c, 4, 7, 35
7, 3600, Control_c, 4, 7, 36
7, 3616, Control_c, 4, 7, 37
7, 3644, Control_c, 4, 7, 38
7, 3672, Control_c, 4, 7, 39
7, 3700, Control_c, 4, 7, 40
7, 3728, Control_c, 4, 7, 41
7, 3760, Control_c, 4, 7, 42
7, 3772, Control_c, 4, 7, 43
7, 3788, Control_c, 4, 7, 44
7, 3800, Control_c, 4, 7, 45
7, 3816, Control_c, 4, 7, 46
7, 3828, Control_c, 4, 7, 47
7, 3840, Control_c, 4, 7, 48
7, 3856, Control_c, 4, 7, 49
7, 3872, Control_c, 4, 7, 50
7, 3904, Control_c, 4, 7, 51
7, 3916, Control_c, 4, 7, 52
7, 3928, Control_c, 4, 7, 54
7, 3944, Control_c, 4, 7, 55
7, 3956, Control_c, 4, 7, 56
7, 3972, Control_c, 4, 7, 58
7, 3984, Control_c, 4, 7, 59
7, 4000, Control_c, 4, 7, 60
7, 4016, Control_c, 4, 7, 62
7, 4028, Control_c, 4, 7, 63
7, 4056, Control_c, 4, 7, 64
7, 4072, Control_c, 4, 7, 65
7, 4084, Control_c, 4, 7, 67
7, 4100, Control_c, 4, 7, 68
7, 4112, Control_c, 4, 7, 69
7, 4128, Control_c, 4, 7, 71
7, 4156, Control_c, 4, 7, 72
7, 4172, Control_c, 4, 7, 73
7, 4184, Control_c, 4, 7, 74
7, 4200, Control_c, 4, 7, 75
7, 4212, Control_c, 4, 7, 76
7, 4228, Control_c, 4, 7, 77
7, 4240, Control_c, 4, 7, 79
7, 4256, Control_c, 4, 7, 80
7, 4272, Control_c, 4, 7, 81
7, 4284, Control_c, 4, 7, 82
7, 4312, Control_c, 4, 7, 83
7, 4340, Control_c, 4, 7, 85
7, 4352, Control_c, 4, 7, 86
7, 4368, Control_c, 4, 7, 88
7, 4372, Note_off_c, 4, 72, 0
7, 4384, Control_c, 4, 7, 89
7, 4400, Control_c, 4, 7, 91
7, 4412, Control_c, 4, 7, 92
7, 4428, Control_c, 4, 7, 90
7, 4440, Control_c, 4, 7, 86
7, 4452, Control_c, 4, 7, 80
7, 4468, Control_c, 4, 7, 73
7, 4480, Control_c, 4, 7, 64
7, 4496, Note_on_c, 4, 67, 127
7, 4496, Control_c, 4, 7, 57
7, 4496, Note_on_c, 4, 76, 127
7, 4496, Note_on_c, 4, 72, 127
7, 4512, Control_c, 4, 7, 52
7, 4524, Control_c, 4, 7, 49
7, 4540, Note_off_c, 4, 72, 0
7, 4540, Control_c, 4, 7, 48
7, 4544, Note_off_c, 4, 76, 0
7, 4552, Note_off_c, 4, 67, 0
7, 4580, Control_c, 4, 7, 49
7, 4608, Control_c, 4, 7, 50
7, 4652, Control_c, 4, 7, 51
7, 4656, Note_on_c, 4, 67, 127
7, 4656, Note_on_c, 4, 72, 127
7, 4656, Note_on_c, 4, 75, 127
7, 4668, Control_c, 4, 7, 52
7, 4680, Control_c, 4, 7, 54
7, 4692, Control_c, 4, 7, 56
7, 4708, Control_c, 4, 7, 57
7, 4724, Control_c, 4, 7, 58
7, 4852, Control_c, 4, 7, 57
7, 5192, Control_c, 4, 7, 56
7, 5208, Control_c, 4, 7, 55
7, 5236, Control_c, 4, 7, 54
7, 5264, Control_c, 4, 7, 53
7, 5280, Control_c, 4, 7, 52
7, 5292, Control_c, 4, 7, 51
7, 5308, Control_c, 4, 7, 50
7, 5320, Control_c, 4, 7, 49
7, 5336, Control_c, 4, 7, 48
7, 5348, Control_c, 4, 7, 47
7, 5360, Control_c, 4, 7, 45
7, 5376, Control_c, 4, 7, 44
7, 5408, Control_c, 4, 7, 42
7, 5420, Control_c, 4, 7, 41
7, 5432, Control_c, 4, 7, 40
7, 5448, Control_c, 4, 7, 39
7, 5460, Control_c, 4, 7, 38
7, 5488, Control_c, 4, 7, 37
7, 5504, Control_c, 4, 7, 36
7, 5520, Control_c, 4, 7, 34
7, 5532, Control_c, 4, 7, 33
7, 5548, Control_c, 4, 7, 31
7, 5560, Control_c, 4, 7, 30
7, 5576, Control_c, 4, 7, 29
7, 5592, Control_c, 4, 7, 28
7, 5604, Control_c, 4, 7, 26
7, 5620, Control_c, 4, 7, 25
7, 5648, Control_c, 4, 7, 24
7, 5692, Control_c, 4, 7, 25
7, 5744, Control_c, 4, 7, 26
7, 5760, Control_c, 4, 7, 27
7, 5776, Control_c, 4, 7, 29
7, 5792, Control_c, 4, 7, 31
7, 5804, Control_c, 4, 7, 34
7, 5820, Control_c, 4, 7, 35
7, 5832, Control_c, 4, 7, 37
7, 5844, Control_c, 4, 7, 38
7, 5860, Control_c, 4, 7, 39
7, 5872, Control_c, 4, 7, 41
7, 5888, Control_c, 4, 7, 42
7, 5904, Control_c, 4, 7, 43
7, 5920, Control_c, 4, 7, 45
7, 5932, Control_c, 4, 7, 46
7, 5944, Control_c, 4, 7, 48
7, 5960, Control_c, 4, 7, 49
7, 5972, Control_c, 4, 7, 50
7, 5988, Control_c, 4, 7, 51
7, 6000, Control_c, 4, 7, 52
7, 6016, Control_c, 4, 7, 53
7, 6032, Control_c, 4, 7, 55
7, 6044, Control_c, 4, 7, 56
7, 6060, Control_c, 4, 7, 58
7, 6072, Control_c, 4, 7, 60
7, 6088, Control_c, 4, 7, 62
7, 6100, Control_c, 4, 7, 64
7, 6112, Control_c, 4, 7, 66
7, 6128, Control_c, 4, 7, 68
7, 6144, Control_c, 4, 7, 70
7, 6160, Control_c, 4, 7, 71
7, 6172, Control_c, 4, 7, 73
7, 6184, Control_c, 4, 7, 75
7, 6196, Control_c, 4, 7, 76
7, 6208, Control_c, 4, 7, 84
7, 6224, Control_c, 4, 7, 85
7, 6236, Control_c, 4, 7, 86
7, 6240, Note_off_c, 4, 67, 0
7, 6240, Note_off_c, 4, 72, 0
7, 6248, Note_off_c, 4, 75, 0
7, 6252, Control_c, 4, 7, 88
7, 6276, Control_c, 4, 7, 87
7, 6288, Control_c, 4, 7, 85
7, 6304, Control_c, 4, 7, 82
7, 6316, Control_c, 4, 7, 77
7, 6328, Control_c, 4, 7, 74
7, 6340, Control_c, 4, 7, 70
7, 6352, Control_c, 4, 7, 68
7, 6368, Control_c, 4, 7, 66
7, 6384, Control_c, 4, 7, 65
7, 6396, Control_c, 4, 7, 64
7, 6420, Control_c, 4, 7, 63
7, 6432, Control_c, 4, 7, 62
7, 6448, Control_c, 4, 7, 61
7, 6460, Control_c, 4, 7, 60
7, 6472, Control_c, 4, 7, 59
7, 6484, Control_c, 4, 7, 58
7, 6652, Control_c, 4, 7, 57
7, 6664, Control_c, 4, 7, 56
7, 6676, Control_c, 4, 7, 55
7, 6688, Control_c, 4, 7, 54
7, 6728, Control_c, 4, 7, 53
7, 6788, Control_c, 4, 7, 52
7, 6828, Control_c, 4, 7, 53
7, 7216, Control_c, 4, 7, 51
7, 7284, Control_c, 4, 7, 50
7, 7600, Control_c, 4, 7, 48
7, 7632, Control_c, 4, 7, 49
7, 7668, Control_c, 4, 7, 48
7, 7704, Note_on_c, 4, 60, 127
7, 8328, Note_off_c, 4, 60, 0
7, 8404, Control_c, 4, 7, 51
7, 8416, Control_c, 4, 7, 52
7, 8448, Note_on_c, 4, 67, 127
7, 8480, Control_c, 4, 7, 53
7, 9132, Note_off_c, 4, 67, 0
7, 9172, Control_c, 4, 7, 55
7, 9184, Control_c, 4, 7, 56
7, 9188, Note_on_c, 4, 72, 127
7, 9212, Control_c, 4, 7, 57
7, 9236, Control_c, 4, 7, 58
7, 9264, Control_c, 4, 7, 56
7, 9272, Control_c, 4, 7, 53
7, 9284, Control_c, 4, 7, 50
7, 9296, Control_c, 4, 7, 48
7, 9312, Control_c, 4, 7, 47
7, 9324, Control_c, 4, 7, 46
7, 9340, Control_c, 4, 7, 45
7, 9364, Control_c, 4, 7, 43
7, 9376, Control_c, 4, 7, 41
7, 9392, Control_c, 4, 7, 38
7, 9404, Control_c, 4, 7, 36
7, 9416, Control_c, 4, 7, 35
7, 9428, Control_c, 4, 7, 34
7, 9492, Control_c, 4, 7, 35
7, 9504, Control_c, 4, 7, 36
7, 9520, Control_c, 4, 7, 37
7, 9532, Control_c, 4, 7, 39
7, 9544, Control_c, 4, 7, 40
7, 9568, Control_c, 4, 7, 41
7, 9580, Control_c, 4, 7, 42
7, 9592, Control_c, 4, 7, 43
7, 9604, Control_c, 4, 7, 44
7, 9620, Control_c, 4, 7, 45
7, 9656, Control_c, 4, 7, 47
7, 9668, Control_c, 4, 7, 48
7, 9680, Control_c, 4, 7, 49
7, 9720, Control_c, 4, 7, 50
7, 9732, Control_c, 4, 7, 51
7, 9760, Control_c, 4, 7, 52
7, 9772, Control_c, 4, 7, 53
7, 9796, Control_c, 4, 7, 54
7, 9808, Control_c, 4, 7, 55
7, 9824, Control_c, 4, 7, 56
7, 9848, Control_c, 4, 7, 57
7, 9872, Control_c, 4, 7, 58
7, 9888, Control_c, 4, 7, 59
7, 9900, Control_c, 4, 7, 60
7, 9924, Control_c, 4, 7, 61
7, 9936, Control_c, 4, 7, 62
7, 9952, Control_c, 4, 7, 63
7, 9964, Control_c, 4, 7, 64
7, 9976, Control_c, 4, 7, 65
7, 9988, Control_c, 4, 7, 66
7, 10000, Control_c, 4, 7, 67
7, 10016, Control_c, 4, 7, 68
7, 10028, Control_c, 4, 7, 70
7, 10052, Control_c, 4, 7, 71
7, 10064, Control_c, 4, 7, 72
7, 10080, Control_c, 4, 7, 73
7, 10092, Control_c, 4, 7, 74
7, 10104, Control_c, 4, 7, 75
7, 10116, Control_c, 4, 7, 76
7, 10144, Control_c, 4, 7, 78
7, 10180, Control_c, 4, 7, 79
7, 10192, Control_c, 4, 7, 80
7, 10220, Control_c, 4, 7, 81
7, 10232, Control_c, 4, 7, 82
7, 10244, Control_c, 4, 7, 83
7, 10284, Control_c, 4, 7, 84
7, 10296, Control_c, 4, 7, 85
7, 10308, Control_c, 4, 7, 86
7, 10348, Control_c, 4, 7, 87
7, 10360, Control_c, 4, 7, 88
7, 10372, Control_c, 4, 7, 89
7, 10384, Control_c, 4, 7, 90
7, 10400, Control_c, 4, 7, 91
7, 10484, Control_c, 4, 7, 90
7, 10496, Control_c, 4, 7, 87
7, 10512, Control_c, 4, 7, 83
7, 10520, Note_off_c, 4, 72, 0
7, 10528, Control_c, 4, 7, 77
7, 10536, Control_c, 4, 7, 72
7, 10548, Control_c, 4, 7, 67
7, 10560, Control_c, 4, 7, 63
7, 10576, Control_c, 4, 7, 61
7, 10588, Control_c, 4, 7, 60
7, 10600, Control_c, 4, 7, 59
7, 10624, Control_c, 4, 7, 58
7, 10660, Note_on_c, 4, 67, 127
7, 10660, Note_on_c, 4, 75, 127
7, 10660, Note_on_c, 4, 72, 127
7, 10664, Control_c, 4, 7, 59
7, 10676, Control_c, 4, 7, 58
7, 10688, Control_c, 4, 7, 57
7, 10696, Note_off_c, 4, 72, 0
7, 10704, Note_off_c, 4, 75, 0
7, 10712, Note_off_c, 4, 67, 0
7, 10728, Control_c, 4, 7, 58
7, 10740, Control_c, 4, 7, 60
7, 10752, Control_c, 4, 7, 63
7, 10768, Control_c, 4, 7, 66
7, 10780, Control_c, 4, 7, 67
7, 10792, Note_on_c, 4, 67, 127
7, 10792, Note_on_c, 4, 72, 127
7, 10796, Control_c, 4, 7, 68
7, 10796, Note_on_c, 4, 76, 127
7, 10804, Control_c, 4, 7, 70
7, 10816, Control_c, 4, 7, 72
7, 10832, Control_c, 4, 7, 74
7, 10844, Control_c, 4, 7, 75
7, 10872, Control_c, 4, 7, 74
7, 10884, Control_c, 4, 7, 72
7, 10896, Control_c, 4, 7, 71
7, 10912, Control_c, 4, 7, 70
7, 10988, Control_c, 4, 7, 69
7, 11024, Control_c, 4, 7, 68
7, 11112, Control_c, 4, 7, 67
7, 11124, Control_c, 4, 7, 66
7, 11152, Control_c, 4, 7, 65
7, 11176, Control_c, 4, 7, 64
7, 11200, Control_c, 4, 7, 63
7, 11252, Control_c, 4, 7, 61
7, 11264, Control_c, 4, 7, 60
7, 11292, Control_c, 4, 7, 59
7, 11328, Control_c, 4, 7, 58
7, 11368, Control_c, 4, 7, 57
7, 11408, Control_c, 4, 7, 56
7, 11432, Control_c, 4, 7, 55
7, 11444, Control_c, 4, 7, 54
7, 11472, Control_c, 4, 7, 53
7, 11484, Control_c, 4, 7, 52
7, 11508, Control_c, 4, 7, 51
7, 11520, Control_c, 4, 7, 50
7, 11548, Control_c, 4, 7, 49
7, 11572, Control_c, 4, 7, 48
7, 11584, Control_c, 4, 7, 47
7, 11600, Control_c, 4, 7, 46
7, 11612, Control_c, 4, 7, 45
7, 11636, Control_c, 4, 7, 44
7, 11664, Control_c, 4, 7, 43
7, 11688, Control_c, 4, 7, 42
7, 11700, Control_c, 4, 7, 41
7, 11764, Control_c, 4, 7, 42
7, 11776, Control_c, 4, 7, 43
7, 11792, Control_c, 4, 7, 44
7, 11804, Control_c, 4, 7, 46
7, 11816, Control_c, 4, 7, 47
7, 11828, Control_c, 4, 7, 48
7, 11840, Control_c, 4, 7, 49
7, 11856, Control_c, 4, 7, 50
7, 11868, Control_c, 4, 7, 52
7, 11880, Control_c, 4, 7, 53
7, 11920, Control_c, 4, 7, 54
7, 11928, Control_c, 4, 7, 55
7, 11944, Control_c, 4, 7, 56
7, 11956, Control_c, 4, 7, 57
7, 11968, Control_c, 4, 7, 58
7, 11984, Control_c, 4, 7, 59
7, 11996, Control_c, 4, 7, 60
7, 12016, Control_c, 4, 7, 61
7, 12032, Control_c, 4, 7, 63
7, 12044, Control_c, 4, 7, 64
7, 12056, Control_c, 4, 7, 65
7, 12068, Control_c, 4, 7, 66
7, 12080, Control_c, 4, 7, 67
7, 12096, Control_c, 4, 7, 68
7, 12108, Control_c, 4, 7, 69
7, 12120, Control_c, 4, 7, 70
7, 12144, Control_c, 4, 7, 71
7, 12160, Control_c, 4, 7, 72
7, 12172, Control_c, 4, 7, 73
7, 12196, Control_c, 4, 7, 75
7, 12208, Control_c, 4, 7, 76
7, 12224, Control_c, 4, 7, 78
7, 12236, Control_c, 4, 7, 79
7, 12272, Control_c, 4, 7, 80
7, 12300, Control_c, 4, 7, 81
7, 12336, Control_c, 4, 7, 82
7, 12352, Control_c, 4, 7, 83
7, 12364, Note_off_c, 4, 67, 0
7, 12364, Note_off_c, 4, 72, 0
7, 12368, Note_off_c, 4, 76, 0
7, 12376, Control_c, 4, 7, 84
7, 12416, Control_c, 4, 7, 85
7, 12452, Control_c, 4, 7, 83
7, 12464, Control_c, 4, 7, 80
7, 12480, Control_c, 4, 7, 77
7, 12492, Control_c, 4, 7, 73
7, 12504, Control_c, 4, 7, 69
7, 12516, Control_c, 4, 7, 67
7, 12528, Control_c, 4, 7, 66
7, 12540, Control_c, 4, 7, 64
7, 12552, Control_c, 4, 7, 62
7, 12564, Control_c, 4, 7, 61
7, 12576, Control_c, 4, 7, 59
7, 12592, Control_c, 4, 7, 58
7, 12604, Control_c, 4, 7, 57
7, 12624, Control_c, 4, 7, 56
7, 12640, Control_c, 4, 7, 55
7, 12652, Control_c, 4, 7, 54
7, 12664, Control_c, 4, 7, 53
7, 12676, Control_c, 4, 7, 52
7, 12724, Control_c, 4, 7, 51
7, 12764, Control_c, 4, 7, 52
7, 13168, Control_c, 4, 7, 50
7, 13188, Control_c, 4, 7, 51
7, 13312, Control_c, 4, 7, 50
7, 13824, Note_on_c, 4, 60, 127
7, 14232, Control_c, 4, 7, 58
7, 14296, Control_c, 4, 7, 59
7, 14400, Control_c, 4, 7, 60
7, 14448, Control_c, 4, 7, 61
7, 14472, Note_off_c, 4, 60, 0
7, 14476, Control_c, 4, 7, 62
7, 14540, Control_c, 4, 7, 63
7, 14592, Note_on_c, 4, 67, 127
7, 14604, Control_c, 4, 7, 64
7, 14640, Control_c, 4, 7, 63
7, 15152, Control_c, 4, 7, 65
7, 15188, Control_c, 4, 7, 66
7, 15252, Control_c, 4, 7, 64
7, 15264, Control_c, 4, 7, 63
7, 15280, Control_c, 4, 7, 62
7, 15292, Control_c, 4, 7, 59
7, 15296, Note_off_c, 4, 67, 0
7, 15304, Control_c, 4, 7, 57
7, 15316, Control_c, 4, 7, 56
7, 15328, Control_c, 4, 7, 55
7, 15344, Control_c, 4, 7, 54
7, 15356, Control_c, 4, 7, 53
7, 15360, Note_on_c, 4, 72, 127
7, 15408, Control_c, 4, 7, 52
7, 15728, Control_c, 4, 7, 50
7, 15916, Control_c, 4, 7, 56
7, 15928, Control_c, 4, 7, 57
7, 15940, Control_c, 4, 7, 58
7, 15952, Control_c, 4, 7, 59
7, 15968, Control_c, 4, 7, 60
7, 15980, Control_c, 4, 7, 61
7, 15992, Control_c, 4, 7, 62
7, 16004, Control_c, 4, 7, 63
7, 16016, Control_c, 4, 7, 64
7, 16044, Control_c, 4, 7, 65
7, 16060, Control_c, 4, 7, 66
7, 16072, Control_c, 4, 7, 67
7, 16096, Control_c, 4, 7, 68
7, 16108, Control_c, 4, 7, 69
7, 16120, Control_c, 4, 7, 70
7, 16132, Control_c, 4, 7, 71
7, 16160, Control_c, 4, 7, 72
7, 16196, Control_c, 4, 7, 74
7, 16236, Control_c, 4, 7, 75
7, 16260, Control_c, 4, 7, 76
7, 16288, Control_c, 4, 7, 77
7, 16324, Control_c, 4, 7, 78
7, 16364, Control_c, 4, 7, 79
7, 16416, Control_c, 4, 7, 80
7, 16440, Control_c, 4, 7, 81
7, 16464, Control_c, 4, 7, 82
7, 16504, Control_c, 4, 7, 83
7, 16556, Control_c, 4, 7, 84
7, 16580, Control_c, 4, 7, 85
7, 16620, Control_c, 4, 7, 86
7, 16668, Control_c, 4, 7, 84
7, 16680, Control_c, 4, 7, 81
7, 16684, Note_off_c, 4, 72, 0
7, 16696, Control_c, 4, 7, 76
7, 16708, Control_c, 4, 7, 72
7, 16720, Control_c, 4, 7, 68
7, 16732, Control_c, 4, 7, 65
7, 16744, Control_c, 4, 7, 63
7, 16756, Control_c, 4, 7, 61
7, 16768, Control_c, 4, 7, 59
7, 16784, Control_c, 4, 7, 56
7, 16796, Control_c, 4, 7, 54
7, 16808, Control_c, 4, 7, 51
7, 16808, Note_on_c, 4, 48, 127
7, 16816, Note_on_c, 4, 64, 127
7, 16816, Note_on_c, 4, 60, 127
7, 16824, Control_c, 4, 7, 49
7, 16836, Control_c, 4, 7, 47
7, 16848, Control_c, 4, 7, 46
7, 16876, Note_off_c, 4, 60, 0
7, 16876, Control_c, 4, 7, 47
7, 16880, Note_off_c, 4, 64, 0
7, 16888, Control_c, 4, 7, 48
7, 16896, Note_off_c, 4, 48, 0
7, 16900, Control_c, 4, 7, 49
7, 16912, Control_c, 4, 7, 51
7, 16928, Control_c, 4, 7, 54
7, 16936, Control_c, 4, 7, 57
7, 16952, Control_c, 4, 7, 61
7, 16964, Control_c, 4, 7, 66
7, 16964, Note_on_c, 4, 65, 127
7, 16964, Note_on_c, 4, 60, 127
7, 16964, Note_on_c, 4, 69, 127
7, 16964, Note_on_c, 4, 41, 127
7, 16976, Control_c, 4, 7, 72
7, 16992, Control_c, 4, 7, 76
7, 17004, Control_c, 4, 7, 79
7, 17012, Control_c, 4, 7, 80
7, 17040, Control_c, 4, 7, 79
7, 17076, Control_c, 4, 7, 78
7, 17088, Control_c, 4, 7, 77
7, 17116, Control_c, 4, 7, 76
7, 17244, Control_c, 4, 7, 75
7, 17296, Control_c, 4, 7, 74
7, 17384, Control_c, 4, 7, 73
7, 17560, Control_c, 4, 7, 72
7, 17588, Control_c, 4, 7, 71
7, 17600, Control_c, 4, 7, 69
7, 17616, Control_c, 4, 7, 68
7, 17628, Control_c, 4, 7, 67
7, 17640, Control_c, 4, 7, 66
7, 17652, Control_c, 4, 7, 65
7, 17664, Control_c, 4, 7, 64
7, 17680, Control_c, 4, 7, 62
7, 17692, Control_c, 4, 7, 61
7, 17704, Control_c, 4, 7, 60
7, 17716, Control_c, 4, 7, 58
7, 17728, Control_c, 4, 7, 56
7, 17744, Control_c, 4, 7, 54
7, 17756, Control_c, 4, 7, 51
7, 17768, Control_c, 4, 7, 49
7, 17780, Control_c, 4, 7, 46
7, 17792, Control_c, 4, 7, 43
7, 17808, Control_c, 4, 7, 41
7, 17828, Control_c, 4, 7, 40
7, 17844, Control_c, 4, 7, 39
7, 17872, Control_c, 4, 7, 38
7, 17932, Control_c, 4, 7, 39
7, 17944, Control_c, 4, 7, 40
7, 17956, Control_c, 4, 7, 42
7, 17968, Control_c, 4, 7, 44
7, 17984, Control_c, 4, 7, 46
7, 17996, Control_c, 4, 7, 47
7, 18008, Control_c, 4, 7, 49
7, 18020, Control_c, 4, 7, 50
7, 18032, Control_c, 4, 7, 51
7, 18048, Control_c, 4, 7, 53
7, 18060, Control_c, 4, 7, 55
7, 18072, Control_c, 4, 7, 57
7, 18084, Control_c, 4, 7, 59
7, 18096, Control_c, 4, 7, 60
7, 18112, Control_c, 4, 7, 61
7, 18124, Control_c, 4, 7, 62
7, 18136, Control_c, 4, 7, 63
7, 18148, Control_c, 4, 7, 64
7, 18160, Control_c, 4, 7, 65
7, 18176, Control_c, 4, 7, 66
7, 18188, Control_c, 4, 7, 68
7, 18200, Control_c, 4, 7, 69
7, 18212, Control_c, 4, 7, 70
7, 18224, Control_c, 4, 7, 72
7, 18228, Note_off_c, 4, 60, 0
7, 18240, Control_c, 4, 7, 73
7, 18252, Control_c, 4, 7, 74
7, 18276, Control_c, 4, 7, 76
7, 18288, Control_c, 4, 7, 77
7, 18304, Control_c, 4, 7, 78
7, 18316, Control_c, 4, 7, 79
7, 18352, Control_c, 4, 7, 80
7, 18360, Note_off_c, 4, 69, 0
7, 18364, Note_off_c, 4, 65, 0
7, 18368, Control_c, 4, 7, 81
7, 18380, Control_c, 4, 7, 82
7, 18416, Control_c, 4, 7, 83
7, 18432, Control_c, 4, 7, 84
7, 18604, Control_c, 4, 7, 84
7, 20076, Note_on_c, 4, 76, 127
7, 20076, Note_on_c, 4, 72, 127
7, 20096, Note_off_c, 4, 41, 0
7, 20208, Note_off_c, 4, 72, 0
7, 20236, Note_off_c, 4, 76, 0
7, 20240, Note_on_c, 4, 77, 127
7, 20240, Note_on_c, 4, 74, 127
7, 20380, Note_off_c, 4, 74, 0
7, 20412, Note_off_c, 4, 77, 0
7, 20428, Note_on_c, 4, 79, 127
7, 20432, Note_on_c, 4, 76, 127
7, 21268, Note_off_c, 4, 79, 0
7, 21268, Note_off_c, 4, 76, 0
7, 22288, Note_on_c, 4, 60, 127
7, 22472, Control_c, 4, 7, 100
7, 22500, Control_c, 4, 7, 99
7, 22524, Control_c, 4, 7, 98
7, 22552, Control_c, 4, 7, 97
7, 22656, Control_c, 4, 7, 96
7, 22680, Note_off_c, 4, 60, 0
7, 22716, Note_on_c, 4, 62, 127
7, 22792, Control_c, 4, 7, 95
7, 23080, Control_c, 4, 7, 93
7, 23120, Control_c, 4, 7, 92
7, 23132, Control_c, 4, 7, 91
7, 23148, Note_off_c, 4, 62, 0
7, 23160, Control_c, 4, 7, 90
7, 23176, Note_on_c, 4, 67, 127
7, 23176, Note_on_c, 4, 64, 127
7, 23176, Note_on_c, 4, 60, 127
7, 23264, Control_c, 4, 7, 89
7, 23276, Control_c, 4, 7, 87
7, 23284, Control_c, 4, 7, 86
7, 23316, Control_c, 4, 7, 87
7, 23388, Control_c, 4, 7, 86
7, 23408, Control_c, 4, 7, 85
7, 23420, Control_c, 4, 7, 84
7, 23428, Control_c, 4, 7, 83
7, 23440, Control_c, 4, 7, 82
7, 23448, Control_c, 4, 7, 81
7, 23460, Control_c, 4, 7, 80
7, 23520, Control_c, 4, 7, 81
7, 23532, Control_c, 4, 7, 82
7, 23552, Control_c, 4, 7, 83
7, 23644, Control_c, 4, 7, 84
7, 23664, Control_c, 4, 7, 85
7, 23788, Control_c, 4, 7, 80
7, 23808, Control_c, 4, 7, 79
7, 23828, Control_c, 4, 7, 78
7, 23840, Control_c, 4, 7, 77
7, 23852, Control_c, 4, 7, 76
7, 23872, Control_c, 4, 7, 75
7, 23912, Control_c, 4, 7, 74
7, 23944, Control_c, 4, 7, 73
7, 23964, Control_c, 4, 7, 72
7, 23996, Control_c, 4, 7, 71
7, 24036, Control_c, 4, 7, 70
7, 24064, Control_c, 4, 7, 69
7, 24128, Control_c, 4, 7, 68
7, 24224, Control_c, 4, 7, 67
7, 24272, Control_c, 4, 7, 66
7, 24304, Control_c, 4, 7, 65
7, 24336, Control_c, 4, 7, 64
7, 24352, Control_c, 4, 7, 63
7, 24376, Control_c, 4, 7, 62
7, 24396, Control_c, 4, 7, 61
7, 24404, Control_c, 4, 7, 60
7, 24428, Control_c, 4, 7, 59
7, 24448, Control_c, 4, 7, 58
7, 24480, Control_c, 4, 7, 57
7, 24488, Control_c, 4, 7, 56
7, 24508, Control_c, 4, 7, 55
7, 24520, Control_c, 4, 7, 54
7, 24544, Control_c, 4, 7, 53
7, 24560, Control_c, 4, 7, 52
7, 24580, Control_c, 4, 7, 51
7, 24592, Control_c, 4, 7, 50
7, 24604, Control_c, 4, 7, 49
7, 24612, Control_c, 4, 7, 48
7, 24624, Control_c, 4, 7, 47
7, 24656, Control_c, 4, 7, 46
7, 24664, Control_c, 4, 7, 45
7, 24672, Control_c, 4, 7, 44
7, 24684, Control_c, 4, 7, 43
7, 24696, Control_c, 4, 7, 42
7, 24704, Control_c, 4, 7, 41
7, 24716, Control_c, 4, 7, 40
7, 24736, Control_c, 4, 7, 39
7, 24748, Control_c, 4, 7, 38
7, 24756, Control_c, 4, 7, 37
7, 24768, Control_c, 4, 7, 36
7, 24776, Control_c, 4, 7, 35
7, 24788, Control_c, 4, 7, 34
7, 24808, Control_c, 4, 7, 33
7, 24816, Control_c, 4, 7, 32
7, 24860, Control_c, 4, 7, 31
7, 24868, Control_c, 4, 7, 29
7, 24880, Control_c, 4, 7, 28
7, 24900, Control_c, 4, 7, 27
7, 24944, Control_c, 4, 7, 26
7, 24952, Control_c, 4, 7, 25
7, 24960, Control_c, 4, 7, 24
7, 25012, Control_c, 4, 7, 25
7, 25036, Control_c, 4, 7, 26
7, 25044, Control_c, 4, 7, 27
7, 25056, Control_c, 4, 7, 28
7, 25088, Control_c, 4, 7, 29
7, 25116, Control_c, 4, 7, 30
7, 25148, Control_c, 4, 7, 31
7, 25156, Control_c, 4, 7, 32
7, 25168, Control_c, 4, 7, 33
7, 25180, Control_c, 4, 7, 34
7, 25188, Control_c, 4, 7, 35
7, 25200, Control_c, 4, 7, 36
7, 25212, Control_c, 4, 7, 38
7, 25220, Control_c, 4, 7, 39
7, 25232, Control_c, 4, 7, 40
7, 25248, Control_c, 4, 7, 41
7, 25264, Control_c, 4, 7, 42
7, 25272, Control_c, 4, 7, 43
7, 25280, Control_c, 4, 7, 45
7, 25292, Control_c, 4, 7, 46
7, 25300, Control_c, 4, 7, 47
7, 25312, Control_c, 4, 7, 49
7, 25324, Control_c, 4, 7, 50
7, 25332, Control_c, 4, 7, 52
7, 25352, Control_c, 4, 7, 54
7, 25364, Control_c, 4, 7, 55
7, 25376, Control_c, 4, 7, 57
7, 25384, Control_c, 4, 7, 58
7, 25392, Control_c, 4, 7, 59
7, 25404, Control_c, 4, 7, 60
7, 25416, Control_c, 4, 7, 62
7, 25424, Control_c, 4, 7, 63
7, 25436, Control_c, 4, 7, 64
7, 25444, Control_c, 4, 7, 66
7, 25468, Control_c, 4, 7, 68
7, 25476, Control_c, 4, 7, 70
7, 25488, Control_c, 4, 7, 71
7, 25496, Control_c, 4, 7, 73
7, 25508, Control_c, 4, 7, 75
7, 25520, Control_c, 4, 7, 76
7, 25528, Control_c, 4, 7, 77
7, 25536, Control_c, 4, 7, 78
7, 25548, Control_c, 4, 7, 79
7, 25568, Control_c, 4, 7, 81
7, 25580, Control_c, 4, 7, 82
7, 25588, Control_c, 4, 7, 84
7, 25600, Control_c, 4, 7, 85
7, 25612, Control_c, 4, 7, 86
7, 25620, Control_c, 4, 7, 87
7, 25632, Control_c, 4, 7, 88
7, 25640, Control_c, 4, 7, 89
7, 25648, Control_c, 4, 7, 90
7, 25672, Control_c, 4, 7, 91
7, 25680, Control_c, 4, 7, 92
7, 25692, Control_c, 4, 7, 93
7, 25704, Control_c, 4, 7, 94
7, 25732, Control_c, 4, 7, 95
7, 25764, Control_c, 4, 7, 96
7, 25796, Control_c, 4, 7, 97
7, 25808, Control_c, 4, 7, 98
7, 25816, Control_c, 4, 7, 99
7, 25824, Control_c, 4, 7, 100
7, 25848, Control_c, 4, 7, 101
7, 25876, Control_c, 4, 7, 102
7, 25900, Control_c, 4, 7, 103
7, 25920, Control_c, 4, 7, 104
7, 25940, Control_c, 4, 7, 106
7, 25968, Control_c, 4, 7, 107
7, 25984, Control_c, 4, 7, 108
7, 25992, Control_c, 4, 7, 109
7, 26000, Control_c, 4, 7, 110
7, 26032, Control_c, 4, 7, 111
7, 26044, Control_c, 4, 7, 112
7, 26064, Control_c, 4, 7, 113
7, 26072, Control_c, 4, 7, 114
7, 26084, Control_c, 4, 7, 115
7, 26104, Control_c, 4, 7, 116
7, 26132, Note_off_c, 4, 60, 0
7, 26132, Note_off_c, 4, 64, 0
7, 26132, Note_off_c, 4, 67, 0
7, 26136, Control_c, 4, 7, 118
7, 26144, Control_c, 4, 7, 119
7, 26156, Control_c, 4, 7, 120
7, 26176, Control_c, 4, 7, 121
7, 26208, Control_c, 4, 7, 123
7, 26240, Control_c, 4, 7, 124
7, 26256, Control_c, 4, 7, 123
7, 26896, Control_c, 4, 7, 93
7, 26912, Control_c, 4, 7, 91
7, 26920, Control_c, 4, 7, 90
7, 26940, Control_c, 4, 7, 89
7, 26940, End_track
8, 0, Start_track
8, 0, Title_t, "Tuba"
8, 0, Control_c, 4, 0, 0
8, 0, Program_c, 4, 58
8, 0, Control_c, 4, 10, 40
8, 0, Key_signature, 0, "major"
8, 16952, Note_on_c, 4, 41, 127
8, 19264, Note_off_c, 4, 41, 0
8, 19264, End_track
9, 0, Start_track
9, 0, Title_t, "Trombone 1"
9, 0, Control_c, 5, 0, 0
9, 0, Program_c, 5, 57
9, 0, Control_c, 5, 10, 45
9, 0, Key_signature, 0, "major"
9, 0, Control_c, 5, 7, 41
9, 0, Pitch_bend_c, 5, 8192
9, 0, Control_c, 5, 64, 0
9, 0, Control_c, 5, 1, 0
9, 1516, Control_c, 5, 7, 35
9, 1532, Control_c, 5, 7, 34
9, 1544, Control_c, 5, 7, 32
9, 1560, Control_c, 5, 7, 30
9, 1572, Control_c, 5, 7, 28
9, 1588, Control_c, 5, 7, 27
9, 1600, Control_c, 5, 7, 26
9, 1660, Control_c, 5, 7, 25
9, 1672, Control_c, 5, 7, 24
9, 1700, Control_c, 5, 7, 23
9, 1760, Control_c, 5, 7, 24
9, 1784, Control_c, 5, 7, 23
9, 1812, Control_c, 5, 7, 24
9, 1872, Control_c, 5, 7, 23
9, 1900, Control_c, 5, 7, 24
9, 1928, Control_c, 5, 7, 23
9, 1984, Control_c, 5, 7, 24
9, 2040, Control_c, 5, 7, 23
9, 2068, Control_c, 5, 7, 24
9, 2992, Control_c, 5, 7, 25
9, 3024, Control_c, 5, 7, 26
9, 3052, Control_c, 5, 7, 27
9, 3092, Control_c, 5, 7, 33
9, 3120, Control_c, 5, 7, 34
9, 3152, Control_c, 5, 7, 35
9, 3376, Control_c, 5, 7, 33
9, 3392, Control_c, 5, 7, 32
9, 3432, Control_c, 5, 7, 31
9, 3448, Control_c, 5, 7, 30
9, 3488, Control_c, 5, 7, 28
9, 3520, Control_c, 5, 7, 27
9, 3548, Control_c, 5, 7, 28
9, 3560, Control_c, 5, 7, 29
9, 3576, Control_c, 5, 7, 30
9, 3588, Control_c, 5, 7, 31
9, 3600, Control_c, 5, 7, 32
9, 3616, Control_c, 5, 7, 33
9, 3648, Control_c, 5, 7, 34
9, 3676, Control_c, 5, 7, 35
9, 3700, Control_c, 5, 7, 36
9, 3728, Control_c, 5, 7, 37
9, 3760, Control_c, 5, 7, 38
9, 3772, Control_c, 5, 7, 39
9, 3788, Control_c, 5, 7, 40
9, 3800, Control_c, 5, 7, 41
9, 3816, Control_c, 5, 7, 42
9, 3828, Control_c, 5, 7, 43
9, 3844, Control_c, 5, 7, 44
9, 3856, Control_c, 5, 7, 45
9, 3872, Control_c, 5, 7, 46
9, 3904, Control_c, 5, 7, 47
9, 3916, Control_c, 5, 7, 48
9, 3932, Control_c, 5, 7, 50
9, 3944, Control_c, 5, 7, 51
9, 3960, Control_c, 5, 7, 52
9, 3972, Control_c, 5, 7, 54
9, 3988, Control_c, 5, 7, 55
9, 4000, Control_c, 5, 7, 56
9, 4016, Control_c, 5, 7, 58
9, 4032, Control_c, 5, 7, 59
9, 4060, Control_c, 5, 7, 60
9, 4072, Control_c, 5, 7, 61
9, 4084, Control_c, 5, 7, 63
9, 4100, Control_c, 5, 7, 64
9, 4112, Control_c, 5, 7, 65
9, 4128, Control_c, 5, 7, 67
9, 4160, Control_c, 5, 7, 68
9, 4172, Control_c, 5, 7, 69
9, 4184, Control_c, 5, 7, 70
9, 4200, Control_c, 5, 7, 71
9, 4212, Control_c, 5, 7, 72
9, 4228, Control_c, 5, 7, 73
9, 4240, Control_c, 5, 7, 75
9, 4256, Control_c, 5, 7, 76
9, 4272, Control_c, 5, 7, 77
9, 4284, Control_c, 5, 7, 78
9, 4312, Control_c, 5, 7, 79
9, 4340, Control_c, 5, 7, 81
9, 4356, Control_c, 5, 7, 82
9, 4368, Control_c, 5, 7, 84
9, 4384, Control_c, 5, 7, 85
9, 4400, Control_c, 5, 7, 87
9, 4416, Control_c, 5, 7, 88
9, 4428, Control_c, 5, 7, 86
9, 4440, Control_c, 5, 7, 82
9, 4456, Control_c, 5, 7, 76
9, 4468, Control_c, 5, 7, 69
9, 4484, Control_c, 5, 7, 60
9, 4496, Control_c, 5, 7, 53
9, 4512, Control_c, 5, 7, 48
9, 4528, Control_c, 5, 7, 45
9, 4540, Control_c, 5, 7, 44
9, 4584, Control_c, 5, 7, 45
9, 4608, Control_c, 5, 7, 46
9, 4656, Control_c, 5, 7, 47
9, 4668, Control_c, 5, 7, 48
9, 4684, Control_c, 5, 7, 50
9, 4696, Control_c, 5, 7, 52
9, 4708, Control_c, 5, 7, 53
9, 4724, Control_c, 5, 7, 54
9, 4852, Control_c, 5, 7, 53
9, 5192, Control_c, 5, 7, 52
9, 5208, Control_c, 5, 7, 51
9, 5236, Control_c, 5, 7, 50
9, 5264, Control_c, 5, 7, 49
9, 5280, Control_c, 5, 7, 48
9, 5292, Control_c, 5, 7, 47
9, 5308, Control_c, 5, 7, 46
9, 5320, Control_c, 5, 7, 45
9, 5336, Control_c, 5, 7, 44
9, 5348, Control_c, 5, 7, 43
9, 5364, Control_c, 5, 7, 41
9, 5376, Control_c, 5, 7, 40
9, 5408, Control_c, 5, 7, 38
9, 5420, Control_c, 5, 7, 37
9, 5436, Control_c, 5, 7, 36
9, 5448, Control_c, 5, 7, 35
9, 5464, Control_c, 5, 7, 34
9, 5492, Control_c, 5, 7, 33
9, 5504, Control_c, 5, 7, 32
9, 5520, Control_c, 5, 7, 30
9, 5536, Control_c, 5, 7, 29
9, 5548, Control_c, 5, 7, 27
9, 5564, Control_c, 5, 7, 26
9, 5576, Control_c, 5, 7, 25
9, 5592, Control_c, 5, 7, 24
9, 5604, Control_c, 5, 7, 22
9, 5620, Control_c, 5, 7, 21
9, 5648, Control_c, 5, 7, 20
9, 5692, Control_c, 5, 7, 21
9, 5748, Control_c, 5, 7, 22
9, 5760, Control_c, 5, 7, 23
9, 5776, Control_c, 5, 7, 25
9, 5792, Control_c, 5, 7, 27
9, 5808, Control_c, 5, 7, 30
9, 5820, Control_c, 5, 7, 31
9, 5836, Control_c, 5, 7, 33
9, 5848, Control_c, 5, 7, 34
9, 5860, Control_c, 5, 7, 35
9, 5876, Control_c, 5, 7, 37
9, 5888, Control_c, 5, 7, 38
9, 5904, Control_c, 5, 7, 39
9, 5920, Control_c, 5, 7, 41
9, 5932, Control_c, 5, 7, 42
9, 5948, Control_c, 5, 7, 44
9, 5960, Control_c, 5, 7, 45
9, 5976, Control_c, 5, 7, 46
9, 5988, Control_c, 5, 7, 47
9, 6004, Control_c, 5, 7, 48
9, 6016, Control_c, 5, 7, 49
9, 6032, Control_c, 5, 7, 51
9, 6048, Control_c, 5, 7, 52
9, 6060, Control_c, 5, 7, 54
9, 6076, Control_c, 5, 7, 56
9, 6088, Control_c, 5, 7, 58
9, 6100, Control_c, 5, 7, 60
9, 6116, Control_c, 5, 7, 62
9, 6128, Control_c, 5, 7, 64
9, 6144, Control_c, 5, 7, 66
9, 6160, Control_c, 5, 7, 67
9, 6172, Control_c, 5, 7, 69
9, 6184, Control_c, 5, 7, 71
9, 6196, Control_c, 5, 7, 72
9, 6208, Control_c, 5, 7, 80
9, 6224, Control_c, 5, 7, 81
9, 6240, Control_c, 5, 7, 82
9, 6252, Control_c, 5, 7, 84
9, 6276, Control_c, 5, 7, 83
9, 6288, Control_c, 5, 7, 81
9, 6304, Control_c, 5, 7, 78
9, 6316, Control_c, 5, 7, 73
9, 6332, Control_c, 5, 7, 70
9, 6344, Control_c, 5, 7, 66
9, 6356, Control_c, 5, 7, 64
9, 6368, Control_c, 5, 7, 62
9, 6384, Control_c, 5, 7, 61
9, 6396, Control_c, 5, 7, 60
9, 6420, Control_c, 5, 7, 59
9, 6436, Control_c, 5, 7, 58
9, 6448, Control_c, 5, 7, 57
9, 6464, Control_c, 5, 7, 56
9, 6476, Control_c, 5, 7, 55
9, 6488, Control_c, 5, 7, 54
9, 6652, Control_c, 5, 7, 53
9, 6664, Control_c, 5, 7, 52
9, 6676, Control_c, 5, 7, 51
9, 6688, Control_c, 5, 7, 50
9, 6728, Control_c, 5, 7, 49
9, 6788, Control_c, 5, 7, 48
9, 6828, Control_c, 5, 7, 49
9, 7216, Control_c, 5, 7, 47
9, 7284, Control_c, 5, 7, 46
9, 7600, Control_c, 5, 7, 44
9, 7632, Control_c, 5, 7, 45
9, 7668, Control_c, 5, 7, 44
9, 7696, Note_on_c, 5, 60, 127
9, 8380, Note_off_c, 5, 60, 0
9, 8408, Control_c, 5, 7, 47
9, 8420, Control_c, 5, 7, 48
9, 8448, Note_on_c, 5, 67, 127
9, 8484, Control_c, 5, 7, 49
9, 9128, Note_off_c, 5, 67, 0
9, 9172, Control_c, 5, 7, 51
9, 9184, Note_on_c, 5, 72, 127
9, 9184, Control_c, 5, 7, 52
9, 9212, Control_c, 5, 7, 53
9, 9236, Control_c, 5, 7, 54
9, 9264, Control_c, 5, 7, 52
9, 9276, Control_c, 5, 7, 49
9, 9288, Control_c, 5, 7, 46
9, 9300, Control_c, 5, 7, 44
9, 9312, Control_c, 5, 7, 43
9, 9328, Control_c, 5, 7, 42
9, 9340, Control_c, 5, 7, 41
9, 9364, Control_c, 5, 7, 39
9, 9376, Control_c, 5, 7, 37
9, 9392, Control_c, 5, 7, 34
9, 9404, Control_c, 5, 7, 32
9, 9416, Control_c, 5, 7, 31
9, 9428, Control_c, 5, 7, 30
9, 9492, Control_c, 5, 7, 31
9, 9504, Control_c, 5, 7, 32
9, 9520, Control_c, 5, 7, 33
9, 9532, Control_c, 5, 7, 35
9, 9544, Control_c, 5, 7, 36
9, 9568, Control_c, 5, 7, 37
9, 9584, Control_c, 5, 7, 38
9, 9596, Control_c, 5, 7, 39
9, 9608, Control_c, 5, 7, 40
9, 9620, Control_c, 5, 7, 41
9, 9660, Control_c, 5, 7, 43
9, 9672, Control_c, 5, 7, 44
9, 9684, Control_c, 5, 7, 45
9, 9720, Control_c, 5, 7, 46
9, 9732, Control_c, 5, 7, 47
9, 9760, Control_c, 5, 7, 48
9, 9776, Control_c, 5, 7, 49
9, 9796, Control_c, 5, 7, 50
9, 9808, Control_c, 5, 7, 51
9, 9824, Control_c, 5, 7, 52
9, 9848, Control_c, 5, 7, 53
9, 9872, Control_c, 5, 7, 54
9, 9888, Control_c, 5, 7, 55
9, 9900, Control_c, 5, 7, 56
9, 9924, Control_c, 5, 7, 57
9, 9936, Control_c, 5, 7, 58
9, 9952, Control_c, 5, 7, 59
9, 9964, Control_c, 5, 7, 60
9, 9976, Control_c, 5, 7, 61
9, 9988, Control_c, 5, 7, 62
9, 10000, Control_c, 5, 7, 63
9, 10016, Control_c, 5, 7, 64
9, 10028, Control_c, 5, 7, 66
9, 10052, Control_c, 5, 7, 67
9, 10064, Control_c, 5, 7, 68
9, 10080, Control_c, 5, 7, 69
9, 10092, Control_c, 5, 7, 70
9, 10104, Control_c, 5, 7, 71
9, 10116, Control_c, 5, 7, 72
9, 10144, Control_c, 5, 7, 74
9, 10180, Control_c, 5, 7, 75
9, 10192, Control_c, 5, 7, 76
9, 10220, Control_c, 5, 7, 77
9, 10232, Control_c, 5, 7, 78
9, 10244, Control_c, 5, 7, 79
9, 10284, Control_c, 5, 7, 80
9, 10296, Control_c, 5, 7, 81
9, 10308, Control_c, 5, 7, 82
9, 10348, Control_c, 5, 7, 83
9, 10360, Control_c, 5, 7, 84
9, 10372, Control_c, 5, 7, 85
9, 10384, Control_c, 5, 7, 86
9, 10400, Control_c, 5, 7, 87
9, 10488, Control_c, 5, 7, 86
9, 10500, Control_c, 5, 7, 83
9, 10508, Note_off_c, 5, 72, 0
9, 10512, Control_c, 5, 7, 79
9, 10528, Control_c, 5, 7, 73
9, 10540, Control_c, 5, 7, 68
9, 10552, Control_c, 5, 7, 63
9, 10564, Control_c, 5, 7, 59
9, 10576, Control_c, 5, 7, 57
9, 10592, Control_c, 5, 7, 56
9, 10604, Control_c, 5, 7, 55
9, 10624, Control_c, 5, 7, 54
9, 10660, Note_on_c, 5, 72, 127
9, 10664, Note_on_c, 5, 67, 127
9, 10664, Note_on_c, 5, 75, 127
9, 10668, Control_c, 5, 7, 55
9, 10680, Control_c, 5, 7, 54
9, 10692, Note_off_c, 5, 67, 0
9, 10692, Control_c, 5, 7, 53
9, 10700, Note_off_c, 5, 72, 0
9, 10712, Note_off_c, 5, 75, 0
9, 10728, Control_c, 5, 7, 54
9, 10740, Control_c, 5, 7, 56
9, 10752, Control_c, 5, 7, 59
9, 10768, Control_c, 5, 7, 62
9, 10784, Control_c, 5, 7, 63
9, 10792, Note_on_c, 5, 76, 127
9, 10792, Note_on_c, 5, 72, 127
9, 10796, Control_c, 5, 7, 64
9, 10796, Note_on_c, 5, 67, 127
9, 10808, Control_c, 5, 7, 66
9, 10820, Control_c, 5, 7, 68
9, 10832, Control_c, 5, 7, 70
9, 10848, Control_c, 5, 7, 71
9, 10872, Control_c, 5, 7, 70
9, 10884, Control_c, 5, 7, 68
9, 10896, Control_c, 5, 7, 67
9, 10912, Control_c, 5, 7, 66
9, 10988, Control_c, 5, 7, 65
9, 11024, Control_c, 5, 7, 64
9, 11116, Control_c, 5, 7, 63
9, 11128, Control_c, 5, 7, 62
9, 11152, Control_c, 5, 7, 61
9, 11180, Control_c, 5, 7, 60
9, 11204, Control_c, 5, 7, 59
9, 11252, Control_c, 5, 7, 57
9, 11264, Control_c, 5, 7, 56
9, 11292, Control_c, 5, 7, 55
9, 11328, Control_c, 5, 7, 54
9, 11368, Control_c, 5, 7, 53
9, 11408, Control_c, 5, 7, 52
9, 11432, Control_c, 5, 7, 51
9, 11444, Control_c, 5, 7, 50
9, 11472, Control_c, 5, 7, 49
9, 11484, Control_c, 5, 7, 48
9, 11508, Control_c, 5, 7, 47
9, 11520, Control_c, 5, 7, 46
9, 11548, Control_c, 5, 7, 45
9, 11572, Control_c, 5, 7, 44
9, 11584, Control_c, 5, 7, 43
9, 11600, Control_c, 5, 7, 42
9, 11612, Control_c, 5, 7, 41
9, 11636, Control_c, 5, 7, 40
9, 11664, Control_c, 5, 7, 39
9, 11688, Control_c, 5, 7, 38
9, 11700, Control_c, 5, 7, 37
9, 11764, Control_c, 5, 7, 38
9, 11776, Control_c, 5, 7, 39
9, 11792, Control_c, 5, 7, 40
9, 11804, Control_c, 5, 7, 42
9, 11816, Control_c, 5, 7, 43
9, 11828, Control_c, 5, 7, 44
9, 11840, Control_c, 5, 7, 45
9, 11856, Control_c, 5, 7, 46
9, 11868, Control_c, 5, 7, 48
9, 11880, Control_c, 5, 7, 49
9, 11920, Control_c, 5, 7, 50
9, 11932, Control_c, 5, 7, 51
9, 11944, Control_c, 5, 7, 52
9, 11956, Control_c, 5, 7, 53
9, 11968, Control_c, 5, 7, 54
9, 11984, Control_c, 5, 7, 55
9, 11996, Control_c, 5, 7, 56
9, 12020, Control_c, 5, 7, 57
9, 12032, Control_c, 5, 7, 59
9, 12048, Control_c, 5, 7, 60
9, 12060, Control_c, 5, 7, 61
9, 12072, Control_c, 5, 7, 62
9, 12084, Control_c, 5, 7, 63
9, 12096, Control_c, 5, 7, 64
9, 12112, Control_c, 5, 7, 65
9, 12124, Control_c, 5, 7, 66
9, 12148, Control_c, 5, 7, 67
9, 12160, Control_c, 5, 7, 68
9, 12172, Control_c, 5, 7, 69
9, 12196, Control_c, 5, 7, 71
9, 12212, Control_c, 5, 7, 72
9, 12224, Control_c, 5, 7, 74
9, 12236, Control_c, 5, 7, 75
9, 12272, Control_c, 5, 7, 76
9, 12300, Control_c, 5, 7, 77
9, 12336, Control_c, 5, 7, 78
9, 12352, Control_c, 5, 7, 79
9, 12376, Control_c, 5, 7, 80
9, 12384, Note_off_c, 5, 67, 0
9, 12392, Note_off_c, 5, 72, 0
9, 12396, Note_off_c, 5, 76, 0
9, 12416, Control_c, 5, 7, 81
9, 12452, Control_c, 5, 7, 79
9, 12464, Control_c, 5, 7, 76
9, 12480, Control_c, 5, 7, 73
9, 12492, Control_c, 5, 7, 69
9, 12504, Control_c, 5, 7, 65
9, 12516, Control_c, 5, 7, 63
9, 12528, Control_c, 5, 7, 62
9, 12540, Control_c, 5, 7, 60
9, 12552, Control_c, 5, 7, 58
9, 12564, Control_c, 5, 7, 57
9, 12576, Control_c, 5, 7, 55
9, 12592, Control_c, 5, 7, 54
9, 12604, Control_c, 5, 7, 53
9, 12628, Control_c, 5, 7, 52
9, 12640, Control_c, 5, 7, 51
9, 12652, Control_c, 5, 7, 50
9, 12664, Control_c, 5, 7, 49
9, 12676, Control_c, 5, 7, 48
9, 12724, Control_c, 5, 7, 47
9, 12764, Control_c, 5, 7, 48
9, 13168, Control_c, 5, 7, 46
9, 13188, Control_c, 5, 7, 47
9, 13312, Control_c, 5, 7, 46
9, 13824, Note_on_c, 5, 60, 127
9, 14232, Control_c, 5, 7, 54
9, 14296, Control_c, 5, 7, 55
9, 14400, Control_c, 5, 7, 56
9, 14448, Control_c, 5, 7, 57
9, 14476, Control_c, 5, 7, 58
9, 14488, Note_off_c, 5, 60, 0
9, 14540, Control_c, 5, 7, 59
9, 14592, Note_on_c, 5, 67, 127
9, 14604, Control_c, 5, 7, 60
9, 14640, Control_c, 5, 7, 59
9, 15152, Control_c, 5, 7, 61
9, 15188, Control_c, 5, 7, 62
9, 15236, Note_off_c, 5, 67, 0
9, 15252, Control_c, 5, 7, 60
9, 15264, Control_c, 5, 7, 59
9, 15280, Control_c, 5, 7, 58
9, 15292, Control_c, 5, 7, 55
9, 15308, Control_c, 5, 7, 53
9, 15320, Control_c, 5, 7, 52
9, 15332, Control_c, 5, 7, 51
9, 15344, Control_c, 5, 7, 50
9, 15360, Control_c, 5, 7, 49
9, 15360, Note_on_c, 5, 72, 127
9, 15408, Control_c, 5, 7, 48
9, 15728, Control_c, 5, 7, 46
9, 15916, Control_c, 5, 7, 52
9, 15932, Control_c, 5, 7, 53
9, 15944, Control_c, 5, 7, 54
9, 15956, Control_c, 5, 7, 55
9, 15968, Control_c, 5, 7, 56
9, 15980, Control_c, 5, 7, 57
9, 15992, Control_c, 5, 7, 58
9, 16004, Control_c, 5, 7, 59
9, 16016, Control_c, 5, 7, 60
9, 16044, Control_c, 5, 7, 61
9, 16060, Control_c, 5, 7, 62
9, 16072, Control_c, 5, 7, 63
9, 16096, Control_c, 5, 7, 64
9, 16112, Control_c, 5, 7, 65
9, 16124, Control_c, 5, 7, 66
9, 16136, Control_c, 5, 7, 67
9, 16160, Control_c, 5, 7, 68
9, 16200, Control_c, 5, 7, 70
9, 16240, Control_c, 5, 7, 71
9, 16260, Control_c, 5, 7, 72
9, 16288, Control_c, 5, 7, 73
9, 16328, Control_c, 5, 7, 74
9, 16364, Control_c, 5, 7, 75
9, 16416, Control_c, 5, 7, 76
9, 16440, Control_c, 5, 7, 77
9, 16464, Control_c, 5, 7, 78
9, 16504, Control_c, 5, 7, 79
9, 16556, Control_c, 5, 7, 80
9, 16580, Control_c, 5, 7, 81
9, 16620, Control_c, 5, 7, 82
9, 16672, Control_c, 5, 7, 80
9, 16684, Control_c, 5, 7, 77
9, 16696, Control_c, 5, 7, 72
9, 16704, Note_off_c, 5, 72, 0
9, 16708, Control_c, 5, 7, 68
9, 16720, Control_c, 5, 7, 64
9, 16736, Control_c, 5, 7, 61
9, 16748, Control_c, 5, 7, 59
9, 16760, Control_c, 5, 7, 57
9, 16772, Control_c, 5, 7, 55
9, 16784, Control_c, 5, 7, 52
9, 16800, Control_c, 5, 7, 50
9, 16808, Control_c, 5, 7, 47
9, 16816, Note_on_c, 5, 64, 127
9, 16816, Note_on_c, 5, 60, 127
9, 16824, Control_c, 5, 7, 45
9, 16836, Control_c, 5, 7, 43
9, 16848, Control_c, 5, 7, 42
9, 16868, Note_off_c, 5, 60, 0
9, 16876, Control_c, 5, 7, 43
9, 16884, Note_off_c, 5, 64, 0
9, 16888, Control_c, 5, 7, 44
9, 16900, Control_c, 5, 7, 45
9, 16912, Control_c, 5, 7, 47
9, 16928, Control_c, 5, 7, 50
9, 16940, Control_c, 5, 7, 53
9, 16944, Note_on_c, 5, 69, 127
9, 16948, Note_on_c, 5, 65, 127
9, 16952, Control_c, 5, 7, 57
9, 16964, Control_c, 5, 7, 62
9, 16976, Control_c, 5, 7, 68
9, 16992, Control_c, 5, 7, 72
9, 17004, Control_c, 5, 7, 75
9, 17016, Control_c, 5, 7, 76
9, 17040, Control_c, 5, 7, 75
9, 17080, Control_c, 5, 7, 74
9, 17092, Control_c, 5, 7, 73
9, 17120, Control_c, 5, 7, 72
9, 17244, Control_c, 5, 7, 71
9, 17296, Control_c, 5, 7, 70
9, 17384, Control_c, 5, 7, 69
9, 17564, Control_c, 5, 7, 68
9, 17588, Control_c, 5, 7, 67
9, 17600, Control_c, 5, 7, 65
9, 17616, Control_c, 5, 7, 64
9, 17628, Control_c, 5, 7, 63
9, 17640, Control_c, 5, 7, 62
9, 17652, Control_c, 5, 7, 61
9, 17664, Control_c, 5, 7, 60
9, 17680, Control_c, 5, 7, 58
9, 17692, Control_c, 5, 7, 57
9, 17704, Control_c, 5, 7, 56
9, 17716, Control_c, 5, 7, 54
9, 17728, Control_c, 5, 7, 52
9, 17744, Control_c, 5, 7, 50
9, 17756, Control_c, 5, 7, 47
9, 17768, Control_c, 5, 7, 45
9, 17780, Control_c, 5, 7, 42
9, 17792, Control_c, 5, 7, 39
9, 17808, Control_c, 5, 7, 37
9, 17832, Control_c, 5, 7, 36
9, 17844, Control_c, 5, 7, 35
9, 17872, Control_c, 5, 7, 34
9, 17936, Control_c, 5, 7, 35
9, 17948, Control_c, 5, 7, 36
9, 17960, Control_c, 5, 7, 38
9, 17972, Control_c, 5, 7, 40
9, 17984, Control_c, 5, 7, 42
9, 18000, Control_c, 5, 7, 43
9, 18012, Control_c, 5, 7, 45
9, 18024, Control_c, 5, 7, 46
9, 18036, Control_c, 5, 7, 47
9, 18048, Control_c, 5, 7, 49
9, 18064, Control_c, 5, 7, 51
9, 18072, Control_c, 5, 7, 53
9, 18084, Control_c, 5, 7, 55
9, 18096, Control_c, 5, 7, 56
9, 18112, Control_c, 5, 7, 57
9, 18128, Control_c, 5, 7, 58
9, 18140, Control_c, 5, 7, 59
9, 18148, Control_c, 5, 7, 60
9, 18160, Control_c, 5, 7, 61
9, 18176, Control_c, 5, 7, 62
9, 18188, Control_c, 5, 7, 64
9, 18200, Control_c, 5, 7, 65
9, 18212, Control_c, 5, 7, 66
9, 18224, Control_c, 5, 7, 68
9, 18240, Control_c, 5, 7, 69
9, 18252, Control_c, 5, 7, 70
9, 18276, Control_c, 5, 7, 72
9, 18288, Control_c, 5, 7, 73
9, 18304, Control_c, 5, 7, 74
9, 18316, Control_c, 5, 7, 75
9, 18332, Note_off_c, 5, 69, 0
9, 18344, Note_off_c, 5, 65, 0
9, 18352, Control_c, 5, 7, 76
9, 18368, Control_c, 5, 7, 77
9, 18384, Control_c, 5, 7, 78
9, 18420, Control_c, 5, 7, 79
9, 18432, Control_c, 5, 7, 80
9, 18520, Note_on_c, 5, 53, 93
9, 18604, Control_c, 5, 7, 80
9, 19628, Note_on_c, 5, 68, 127
9, 19632, Note_on_c, 5, 65, 127
9, 19912, Note_off_c, 5, 53, 0
9, 19996, Note_off_c, 5, 68, 0
9, 20004, Note_off_c, 5, 65, 0
9, 20224, Note_on_c, 5, 62, 127
9, 20352, Control_c, 5, 7, 127
9, 20388, Note_off_c, 5, 62, 0
9, 20408, Note_on_c, 5, 67, 127
9, 20412, Note_on_c, 5, 64, 70
9, 20540, Note_off_c, 5, 67, 0
9, 20592, Note_on_c, 5, 64, 127
9, 20696, Note_off_c, 5, 64, 0
9, 20772, Note_on_c, 5, 60, 127
9, 20864, Note_off_c, 5, 60, 0
9, 20952, Note_on_c, 5, 55, 127
9, 21044, Note_off_c, 5, 55, 0
9, 21124, Note_on_c, 5, 52, 127
9, 21228, Note_off_c, 5, 64, 0
9, 21228, Note_off_c, 5, 52, 0
9, 21316, Note_on_c, 5, 48, 127
9, 21324, Note_on_c, 5, 60, 90
9, 21416, Note_off_c, 5, 48, 0
9, 21420, Note_off_c, 5, 60, 0
9, 21424, Note_on_c, 5, 62, 90
9, 21504, Note_off_c, 5, 62, 0
9, 21504, Note_on_c, 5, 43, 127
9, 21532, Note_on_c, 5, 64, 90
9, 22196, Note_off_c, 5, 64, 0
9, 22216, Note_off_c, 5, 43, 0
9, 22264, Note_on_c, 5, 60, 90
9, 22472, Control_c, 5, 7, 96
9, 22504, Control_c, 5, 7, 95
9, 22524, Control_c, 5, 7, 94
9, 22556, Control_c, 5, 7, 93
9, 22640, Note_off_c, 5, 60, 0
9, 22656, Control_c, 5, 7, 92
9, 22688, Note_on_c, 5, 62, 127
9, 22792, Control_c, 5, 7, 91
9, 23080, Control_c, 5, 7, 89
9, 23120, Control_c, 5, 7, 88
9, 23132, Control_c, 5, 7, 87
9, 23160, Control_c, 5, 7, 86
9, 23176, Note_off_c, 5, 62, 0
9, 23264, Control_c, 5, 7, 85
9, 23276, Control_c, 5, 7, 83
9, 23284, Control_c, 5, 7, 82
9, 23316, Control_c, 5, 7, 83
9, 23388, Control_c, 5, 7, 82
9, 23408, Control_c, 5, 7, 81
9, 23420, Control_c, 5, 7, 80
9, 23428, Control_c, 5, 7, 79
9, 23440, Control_c, 5, 7, 78
9, 23452, Control_c, 5, 7, 77
9, 23460, Control_c, 5, 7, 76
9, 23520, Control_c, 5, 7, 77
9, 23532, Control_c, 5, 7, 78
9, 23552, Control_c, 5, 7, 79
9, 23648, Control_c, 5, 7, 80
9, 23664, Control_c, 5, 7, 81
9, 23792, Control_c, 5, 7, 76
9, 23808, Control_c, 5, 7, 75
9, 23828, Control_c, 5, 7, 74
9, 23840, Control_c, 5, 7, 73
9, 23852, Control_c, 5, 7, 72
9, 23872, Control_c, 5, 7, 71
9, 23912, Control_c, 5, 7, 70
9, 23944, Control_c, 5, 7, 69
9, 23968, Control_c, 5, 7, 68
9, 23996, Control_c, 5, 7, 67
9, 24036, Control_c, 5, 7, 66
9, 24068, Control_c, 5, 7, 65
9, 24128, Control_c, 5, 7, 64
9, 24224, Control_c, 5, 7, 63
9, 24272, Control_c, 5, 7, 62
9, 24304, Control_c, 5, 7, 61
9, 24336, Control_c, 5, 7, 60
9, 24356, Control_c, 5, 7, 59
9, 24376, Control_c, 5, 7, 58
9, 24396, Control_c, 5, 7, 57
9, 24408, Control_c, 5, 7, 56
9, 24428, Control_c, 5, 7, 55
9, 24448, Control_c, 5, 7, 54
9, 24480, Control_c, 5, 7, 53
9, 24488, Control_c, 5, 7, 52
9, 24512, Control_c, 5, 7, 51
9, 24520, Control_c, 5, 7, 50
9, 24544, Control_c, 5, 7, 49
9, 24560, Control_c, 5, 7, 48
9, 24584, Control_c, 5, 7, 47
9, 24592, Control_c, 5, 7, 46
9, 24604, Control_c, 5, 7, 45
9, 24612, Control_c, 5, 7, 44
9, 24624, Control_c, 5, 7, 43
9, 24656, Control_c, 5, 7, 42
9, 24664, Control_c, 5, 7, 41
9, 24676, Control_c, 5, 7, 40
9, 24688, Control_c, 5, 7, 39
9, 24696, Control_c, 5, 7, 38
9, 24704, Control_c, 5, 7, 37
9, 24716, Control_c, 5, 7, 36
9, 24736, Control_c, 5, 7, 35
9, 24748, Control_c, 5, 7, 34
9, 24756, Control_c, 5, 7, 33
9, 24768, Control_c, 5, 7, 32
9, 24780, Control_c, 5, 7, 31
9, 24788, Control_c, 5, 7, 30
9, 24808, Control_c, 5, 7, 29
9, 24816, Control_c, 5, 7, 28
9, 24860, Control_c, 5, 7, 27
9, 24868, Control_c, 5, 7, 25
9, 24880, Control_c, 5, 7, 24
9, 24900, Control_c, 5, 7, 23
9, 24944, Control_c, 5, 7, 22
9, 24952, Control_c, 5, 7, 21
9, 24960, Control_c, 5, 7, 20
9, 25012, Control_c, 5, 7, 21
9, 25036, Control_c, 5, 7, 22
9, 25044, Control_c, 5, 7, 23
9, 25056, Control_c, 5, 7, 24
9, 25088, Control_c, 5, 7, 25
9, 25116, Control_c, 5, 7, 26
9, 25148, Control_c, 5, 7, 27
9, 25160, Control_c, 5, 7, 28
9, 25168, Control_c, 5, 7, 29
9, 25180, Control_c, 5, 7, 30
9, 25188, Control_c, 5, 7, 31
9, 25200, Control_c, 5, 7, 32
9, 25212, Control_c, 5, 7, 34
9, 25220, Control_c, 5, 7, 35
9, 25232, Control_c, 5, 7, 36
9, 25252, Control_c, 5, 7, 37
9, 25264, Control_c, 5, 7, 38
9, 25272, Control_c, 5, 7, 39
9, 25280, Control_c, 5, 7, 41
9, 25292, Control_c, 5, 7, 42
9, 25304, Control_c, 5, 7, 43
9, 25312, Control_c, 5, 7, 45
9, 25324, Control_c, 5, 7, 46
9, 25332, Control_c, 5, 7, 48
9, 25356, Control_c, 5, 7, 50
9, 25364, Control_c, 5, 7, 51
9, 25376, Control_c, 5, 7, 53
9, 25384, Control_c, 5, 7, 54
9, 25396, Control_c, 5, 7, 55
9, 25408, Control_c, 5, 7, 56
9, 25416, Control_c, 5, 7, 58
9, 25424, Control_c, 5, 7, 59
9, 25436, Control_c, 5, 7, 60
9, 25448, Control_c, 5, 7, 62
9, 25468, Control_c, 5, 7, 64
9, 25476, Control_c, 5, 7, 66
9, 25488, Control_c, 5, 7, 67
9, 25500, Control_c, 5, 7, 69
9, 25508, Control_c, 5, 7, 71
9, 25520, Control_c, 5, 7, 72
9, 25528, Control_c, 5, 7, 73
9, 25536, Control_c, 5, 7, 74
9, 25552, Control_c, 5, 7, 75
9, 25568, Control_c, 5, 7, 77
9, 25580, Control_c, 5, 7, 78
9, 25588, Control_c, 5, 7, 80
9, 25600, Control_c, 5, 7, 81
9, 25612, Control_c, 5, 7, 82
9, 25620, Control_c, 5, 7, 83
9, 25632, Control_c, 5, 7, 84
9, 25644, Control_c, 5, 7, 85
9, 25652, Control_c, 5, 7, 86
9, 25672, Control_c, 5, 7, 87
9, 25680, Control_c, 5, 7, 88
9, 25696, Control_c, 5, 7, 89
9, 25704, Control_c, 5, 7, 90
9, 25732, Control_c, 5, 7, 91
9, 25764, Control_c, 5, 7, 92
9, 25796, Control_c, 5, 7, 93
9, 25808, Control_c, 5, 7, 94
9, 25816, Control_c, 5, 7, 95
9, 25828, Control_c, 5, 7, 96
9, 25848, Control_c, 5, 7, 97
9, 25880, Control_c, 5, 7, 98
9, 25900, Control_c, 5, 7, 99
9, 25920, Control_c, 5, 7, 100
9, 25940, Control_c, 5, 7, 102
9, 25972, Control_c, 5, 7, 103
9, 25984, Control_c, 5, 7, 104
9, 25992, Control_c, 5, 7, 105
9, 26000, Control_c, 5, 7, 106
9, 26032, Control_c, 5, 7, 107
9, 26044, Control_c, 5, 7, 108
9, 26064, Control_c, 5, 7, 109
9, 26076, Control_c, 5, 7, 110
9, 26084, Control_c, 5, 7, 111
9, 26104, Control_c, 5, 7, 112
9, 26136, Control_c, 5, 7, 114
9, 26144, Control_c, 5, 7, 115
9, 26156, Control_c, 5, 7, 116
9, 26176, Control_c, 5, 7, 117
9, 26208, Control_c, 5, 7, 119
9, 26240, Control_c, 5, 7, 120
9, 26256, Control_c, 5, 7, 119
9, 26256, End_track
10, 0, Start_track
10, 0, Title_t, "Violin 2"
10, 0, Control_c, 6, 0, 0
10, 0, Program_c, 6, 48
10, 0, Control_c, 6, 10, 70
10, 0, Key_signature, 0, "major"
10, 4496, Note_on_c, 6, 72, 74
10, 4496, Note_on_c, 6, 60, 84
10, 4572, Note_off_c, 6, 60, 0
10, 4576, Note_off_c, 6, 72, 0
10, 4660, Note_on_c, 6, 72, 96
10, 4660, Note_on_c, 6, 60, 111
10, 6272, Note_off_c, 6, 72, 0
10, 6296, Note_off_c, 6, 60, 0
10, 10656, Note_on_c, 6, 75, 84
10, 10656, Note_on_c, 6, 67, 81
10, 10716, Note_off_c, 6, 75, 0
10, 10716, Note_off_c, 6, 67, 0
10, 10788, Note_on_c, 6, 76, 117
10, 10792, Note_on_c, 6, 67, 93
10, 12412, Note_off_c, 6, 67, 0
10, 12416, Note_off_c, 6, 76, 0
10, 12416, End_track
11, 0, Start_track
11, 0, Title_t, "Cello"
11, 0, Control_c, 6, 0, 0
11, 0, Program_c, 6, 48
11, 0, Control_c, 6, 10, 70
11, 0, Key_signature, 0, "major"
11, 16804, Note_on_c, 6, 64, 102
11, 16808, Note_on_c, 6, 60, 58
11, 16896, Note_off_c, 6, 64, 0
11, 16900, Note_off_c, 6, 60, 0
11, 16928, Note_on_c, 6, 65, 102
11, 18456, Note_off_c, 6, 65, 0
11, 18492, Note_on_c, 6, 69, 124
11, 18492, Note_on_c, 6, 65, 124
11, 18608, Note_on_c, 6, 71, 124
11, 18608, Note_on_c, 6, 67, 124
11, 18624, Note_off_c, 6, 65, 0
11, 18628, Note_off_c, 6, 69, 0
11, 18724, Note_on_c, 6, 72, 124
11, 18736, Note_on_c, 6, 69, 124
11, 18752, Note_off_c, 6, 67, 0
11, 18760, Note_off_c, 6, 71, 0
11, 19664, Note_on_c, 6, 68, 124
11, 19680, Note_off_c, 6, 69, 0
11, 20080, Note_off_c, 6, 68, 0
11, 20220, Note_off_c, 6, 72, 0
11, 21328, Note_on_c, 6, 64, 127
11, 21432, Note_on_c, 6, 65, 127
11, 21448, Note_off_c, 6, 64, 0
11, 21532, Note_on_c, 6, 67, 127
11, 21536, Note_off_c, 6, 65, 0
11, 22224, Note_off_c, 6, 67, 0
11, 22276, Note_on_c, 6, 69, 127
11, 22276, Note_on_c, 6, 64, 127
11, 22748, Note_off_c, 6, 69, 0
11, 22748, Note_on_c, 6, 62, 127
11, 22752, Note_off_c, 6, 64, 0
11, 22752, Note_on_c, 6, 67, 127
11, 23200, Note_off_c, 6, 67, 0
11, 23248, Note_off_c, 6, 62, 0
11, 23248, Note_on_c, 6, 67, 100
11, 23248, Note_on_c, 6, 60, 100
11, 26176, Note_off_c, 6, 60, 0
11, 26184, Note_off_c, 6, 67, 0
11, 26184, End_track
12, 0, Start_track
12, 0, Title_t, "Violin 1"
12, 0, Control_c, 6, 0, 0
12, 0, Program_c, 6, 48
12, 0, Control_c, 6, 10, 70
12, 0, Key_signature, 0, "major"
12, 0, Control_c, 6, 7, 66
12, 0, Pitch_bend_c, 6, 8192
12, 0, Control_c, 6, 64, 0
12, 0, Control_c, 6, 1, 0
12, 4336, Control_c, 6, 7, 72
12, 4352, Control_c, 6, 7, 73
12, 4368, Control_c, 6, 7, 75
12, 4380, Control_c, 6, 7, 77
12, 4396, Control_c, 6, 7, 78
12, 4408, Control_c, 6, 7, 80
12, 4424, Control_c, 6, 7, 82
12, 4436, Control_c, 6, 7, 84
12, 4452, Control_c, 6, 7, 86
12, 4468, Control_c, 6, 7, 88
12, 4480, Control_c, 6, 7, 90
12, 4496, Control_c, 6, 7, 92
12, 4500, Note_on_c, 6, 72, 111
12, 4500, Note_on_c, 6, 67, 124
12, 4504, Note_on_c, 6, 76, 111
12, 4504, Note_on_c, 6, 60, 93
12, 4512, Control_c, 6, 7, 94
12, 4524, Control_c, 6, 7, 96
12, 4540, Control_c, 6, 7, 98
12, 4560, Note_off_c, 6, 67, 0
12, 4564, Note_off_c, 6, 72, 0
12, 4564, Note_off_c, 6, 60, 0
12, 4564, Control_c, 6, 7, 99
12, 4568, Note_off_c, 6, 76, 0
12, 4636, Note_on_c, 6, 72, 108
12, 4636, Note_on_c, 6, 67, 96
12, 4636, Note_on_c, 6, 75, 127
12, 4640, Note_on_c, 6, 60, 127
12, 4680, Control_c, 6, 7, 100
12, 4720, Control_c, 6, 7, 101
12, 4796, Control_c, 6, 7, 100
12, 4808, Control_c, 6, 7, 101
12, 4864, Control_c, 6, 7, 102
12, 4920, Control_c, 6, 7, 101
12, 4948, Control_c, 6, 7, 102
12, 5008, Control_c, 6, 7, 103
12, 5360, Control_c, 6, 7, 101
12, 5392, Control_c, 6, 7, 100
12, 5420, Control_c, 6, 7, 99
12, 5432, Control_c, 6, 7, 98
12, 5448, Control_c, 6, 7, 97
12, 5460, Control_c, 6, 7, 96
12, 5476, Control_c, 6, 7, 95
12, 5504, Control_c, 6, 7, 94
12, 5520, Control_c, 6, 7, 93
12, 5532, Control_c, 6, 7, 92
12, 5548, Control_c, 6, 7, 91
12, 5588, Control_c, 6, 7, 90
12, 5600, Control_c, 6, 7, 89
12, 5616, Control_c, 6, 7, 88
12, 5632, Control_c, 6, 7, 87
12, 5688, Control_c, 6, 7, 86
12, 5716, Control_c, 6, 7, 85
12, 5744, Control_c, 6, 7, 86
12, 5760, Control_c, 6, 7, 87
12, 5776, Control_c, 6, 7, 88
12, 5788, Control_c, 6, 7, 89
12, 5804, Control_c, 6, 7, 90
12, 5828, Control_c, 6, 7, 91
12, 5856, Control_c, 6, 7, 92
12, 5872, Control_c, 6, 7, 93
12, 5888, Control_c, 6, 7, 94
12, 5904, Control_c, 6, 7, 95
12, 5916, Control_c, 6, 7, 96
12, 5928, Control_c, 6, 7, 97
12, 5956, Control_c, 6, 7, 98
12, 5972, Control_c, 6, 7, 99
12, 5984, Control_c, 6, 7, 100
12, 6016, Control_c, 6, 7, 101
12, 6028, Control_c, 6, 7, 102
12, 6044, Control_c, 6, 7, 103
12, 6056, Control_c, 6, 7, 104
12, 6072, Control_c, 6, 7, 105
12, 6084, Control_c, 6, 7, 106
12, 6096, Control_c, 6, 7, 107
12, 6112, Control_c, 6, 7, 109
12, 6128, Control_c, 6, 7, 110
12, 6144, Control_c, 6, 7, 112
12, 6156, Control_c, 6, 7, 114
12, 6168, Control_c, 6, 7, 116
12, 6184, Control_c, 6, 7, 117
12, 6196, Control_c, 6, 7, 118
12, 6208, Control_c, 6, 7, 120
12, 6212, Note_off_c, 6, 67, 0
12, 6212, Note_off_c, 6, 72, 0
12, 6216, Note_off_c, 6, 75, 0
12, 6224, Note_off_c, 6, 60, 0
12, 6224, Control_c, 6, 7, 122
12, 6236, Control_c, 6, 7, 124
12, 6276, Control_c, 6, 7, 122
12, 6288, Control_c, 6, 7, 119
12, 6304, Control_c, 6, 7, 118
12, 6316, Control_c, 6, 7, 117
12, 6328, Control_c, 6, 7, 116
12, 6352, Control_c, 6, 7, 114
12, 6368, Control_c, 6, 7, 111
12, 6380, Control_c, 6, 7, 106
12, 6392, Control_c, 6, 7, 101
12, 6404, Control_c, 6, 7, 95
12, 6420, Control_c, 6, 7, 91
12, 6432, Control_c, 6, 7, 88
12, 6448, Control_c, 6, 7, 84
12, 6460, Control_c, 6, 7, 81
12, 6472, Control_c, 6, 7, 77
12, 6484, Control_c, 6, 7, 75
12, 6496, Control_c, 6, 7, 73
12, 6512, Control_c, 6, 7, 72
12, 6524, Control_c, 6, 7, 71
12, 6560, Control_c, 6, 7, 70
12, 10384, Control_c, 6, 7, 96
12, 10396, Control_c, 6, 7, 99
12, 10408, Control_c, 6, 7, 100
12, 10420, Control_c, 6, 7, 101
12, 10448, Control_c, 6, 7, 102
12, 10460, Control_c, 6, 7, 103
12, 10472, Control_c, 6, 7, 104
12, 10484, Control_c, 6, 7, 105
12, 10512, Control_c, 6, 7, 106
12, 10524, Control_c, 6, 7, 107
12, 10560, Control_c, 6, 7, 108
12, 10612, Control_c, 6, 7, 109
12, 10624, Control_c, 6, 7, 112
12, 10640, Control_c, 6, 7, 114
12, 10652, Control_c, 6, 7, 115
12, 10664, Note_on_c, 6, 75, 77
12, 10664, Control_c, 6, 7, 116
12, 10664, Note_on_c, 6, 79, 96
12, 10664, Note_on_c, 6, 67, 127
12, 10676, Control_c, 6, 7, 117
12, 10688, Control_c, 6, 7, 118
12, 10704, Control_c, 6, 7, 119
12, 10712, Note_off_c, 6, 75, 0
12, 10720, Note_off_c, 6, 67, 0
12, 10724, Note_off_c, 6, 79, 0
12, 10740, Control_c, 6, 7, 120
12, 10780, Control_c, 6, 7, 121
12, 10792, Control_c, 6, 7, 125
12, 10796, Note_on_c, 6, 76, 127
12, 10800, Note_on_c, 6, 84, 127
12, 10800, Note_on_c, 6, 67, 127
12, 10804, Control_c, 6, 7, 127
12, 10816, Control_c, 6, 7, 127
12, 10832, Control_c, 6, 7, 127
12, 10868, Control_c, 6, 7, 127
12, 11044, Control_c, 6, 7, 127
12, 11056, Control_c, 6, 7, 127
12, 11108, Control_c, 6, 7, 127
12, 11136, Control_c, 6, 7, 126
12, 11148, Control_c, 6, 7, 125
12, 11172, Control_c, 6, 7, 124
12, 11212, Control_c, 6, 7, 123
12, 11224, Control_c, 6, 7, 122
12, 11276, Control_c, 6, 7, 121
12, 11300, Control_c, 6, 7, 120
12, 11312, Control_c, 6, 7, 119
12, 11328, Control_c, 6, 7, 118
12, 11340, Control_c, 6, 7, 117
12, 11364, Control_c, 6, 7, 116
12, 11392, Control_c, 6, 7, 115
12, 11416, Control_c, 6, 7, 113
12, 11440, Control_c, 6, 7, 112
12, 11456, Control_c, 6, 7, 111
12, 11480, Control_c, 6, 7, 110
12, 11492, Control_c, 6, 7, 109
12, 11520, Control_c, 6, 7, 108
12, 11532, Control_c, 6, 7, 107
12, 11544, Control_c, 6, 7, 106
12, 11568, Control_c, 6, 7, 105
12, 11584, Control_c, 6, 7, 104
12, 11596, Control_c, 6, 7, 103
12, 11608, Control_c, 6, 7, 101
12, 11620, Control_c, 6, 7, 100
12, 11632, Control_c, 6, 7, 99
12, 11660, Control_c, 6, 7, 98
12, 11684, Control_c, 6, 7, 97
12, 11712, Control_c, 6, 7, 96
12, 11736, Control_c, 6, 7, 95
12, 11760, Control_c, 6, 7, 94
12, 11776, Control_c, 6, 7, 93
12, 11800, Control_c, 6, 7, 92
12, 11812, Control_c, 6, 7, 91
12, 11852, Control_c, 6, 7, 90
12, 11900, Control_c, 6, 7, 91
12, 11916, Control_c, 6, 7, 92
12, 11928, Control_c, 6, 7, 94
12, 11940, Control_c, 6, 7, 95
12, 11952, Control_c, 6, 7, 96
12, 11964, Control_c, 6, 7, 97
12, 11976, Control_c, 6, 7, 98
12, 12000, Control_c, 6, 7, 100
12, 12016, Control_c, 6, 7, 101
12, 12028, Control_c, 6, 7, 102
12, 12040, Control_c, 6, 7, 104
12, 12052, Control_c, 6, 7, 105
12, 12064, Control_c, 6, 7, 106
12, 12080, Control_c, 6, 7, 108
12, 12092, Control_c, 6, 7, 109
12, 12104, Control_c, 6, 7, 111
12, 12116, Control_c, 6, 7, 112
12, 12128, Control_c, 6, 7, 113
12, 12144, Control_c, 6, 7, 114
12, 12156, Control_c, 6, 7, 115
12, 12168, Control_c, 6, 7, 116
12, 12184, Control_c, 6, 7, 117
12, 12224, Control_c, 6, 7, 118
12, 12248, Control_c, 6, 7, 119
12, 12284, Control_c, 6, 7, 120
12, 12360, Note_off_c, 6, 76, 0
12, 12360, Note_off_c, 6, 84, 0
12, 12368, Note_off_c, 6, 67, 0
12, 12384, Control_c, 6, 7, 113
12, 12400, Control_c, 6, 7, 110
12, 12412, Control_c, 6, 7, 107
12, 12424, Control_c, 6, 7, 105
12, 12436, Control_c, 6, 7, 104
12, 12448, Control_c, 6, 7, 103
12, 12464, Control_c, 6, 7, 101
12, 12476, Control_c, 6, 7, 99
12, 12484, Control_c, 6, 7, 96
12, 12496, Control_c, 6, 7, 94
12, 12512, Control_c, 6, 7, 91
12, 12524, Control_c, 6, 7, 89
12, 12536, Control_c, 6, 7, 87
12, 12548, Control_c, 6, 7, 85
12, 12560, Control_c, 6, 7, 83
12, 12576, Control_c, 6, 7, 80
12, 12588, Control_c, 6, 7, 79
12, 12596, Control_c, 6, 7, 77
12, 12608, Control_c, 6, 7, 76
12, 12636, Control_c, 6, 7, 75
12, 12648, Control_c, 6, 7, 74
12, 12660, Control_c, 6, 7, 73
12, 12672, Control_c, 6, 7, 72
12, 12736, Control_c, 6, 7, 73
12, 15696, Control_c, 6, 7, 77
12, 15708, Control_c, 6, 7, 78
12, 15720, Control_c, 6, 7, 79
12, 15732, Control_c, 6, 7, 80
12, 15760, Control_c, 6, 7, 81
12, 15772, Control_c, 6, 7, 82
12, 15812, Control_c, 6, 7, 83
12, 15824, Control_c, 6, 7, 84
12, 15840, Control_c, 6, 7, 85
12, 15852, Control_c, 6, 7, 86
12, 15864, Control_c, 6, 7, 87
12, 15876, Control_c, 6, 7, 89
12, 15888, Control_c, 6, 7, 91
12, 15904, Control_c, 6, 7, 93
12, 15916, Control_c, 6, 7, 95
12, 15928, Control_c, 6, 7, 97
12, 15940, Control_c, 6, 7, 99
12, 15952, Control_c, 6, 7, 101
12, 15968, Control_c, 6, 7, 102
12, 15976, Control_c, 6, 7, 103
12, 15988, Control_c, 6, 7, 104
12, 16000, Control_c, 6, 7, 105
12, 16016, Control_c, 6, 7, 106
12, 16052, Control_c, 6, 7, 107
12, 16180, Control_c, 6, 7, 108
12, 16540, Control_c, 6, 7, 110
12, 16604, Control_c, 6, 7, 111
12, 16640, Control_c, 6, 7, 112
12, 16704, Control_c, 6, 7, 113
12, 16796, Control_c, 6, 7, 114
12, 16804, Note_on_c, 6, 76, 127
12, 16804, Note_on_c, 6, 72, 124
12, 16832, Control_c, 6, 7, 115
12, 16848, Control_c, 6, 7, 116
12, 16872, Control_c, 6, 7, 117
12, 16880, Note_off_c, 6, 72, 0
12, 16884, Note_off_c, 6, 76, 0
12, 16908, Control_c, 6, 7, 118
12, 16928, Note_on_c, 6, 72, 93
12, 16928, Note_on_c, 6, 81, 108
12, 16928, Note_on_c, 6, 77, 127
12, 16932, Note_on_c, 6, 69, 108
12, 17008, Control_c, 6, 7, 122
12, 17112, Control_c, 6, 7, 121
12, 17136, Control_c, 6, 7, 122
12, 17164, Control_c, 6, 7, 121
12, 17188, Control_c, 6, 7, 122
12, 17216, Control_c, 6, 7, 121
12, 17240, Control_c, 6, 7, 122
12, 17368, Control_c, 6, 7, 119
12, 17380, Control_c, 6, 7, 118
12, 17420, Control_c, 6, 7, 117
12, 17472, Control_c, 6, 7, 116
12, 17548, Control_c, 6, 7, 115
12, 17560, Control_c, 6, 7, 114
12, 17584, Control_c, 6, 7, 113
12, 17600, Control_c, 6, 7, 112
12, 17612, Control_c, 6, 7, 111
12, 17624, Control_c, 6, 7, 110
12, 17636, Control_c, 6, 7, 108
12, 17648, Control_c, 6, 7, 107
12, 17664, Control_c, 6, 7, 106
12, 17676, Control_c, 6, 7, 105
12, 17712, Control_c, 6, 7, 104
12, 17728, Control_c, 6, 7, 103
12, 17740, Control_c, 6, 7, 101
12, 17752, Control_c, 6, 7, 100
12, 17764, Control_c, 6, 7, 99
12, 17788, Control_c, 6, 7, 98
12, 17816, Control_c, 6, 7, 97
12, 17828, Control_c, 6, 7, 96
12, 17840, Control_c, 6, 7, 95
12, 17864, Control_c, 6, 7, 94
12, 17904, Control_c, 6, 7, 93
12, 17928, Control_c, 6, 7, 92
12, 17940, Control_c, 6, 7, 91
12, 17980, Control_c, 6, 7, 90
12, 18004, Control_c, 6, 7, 89
12, 18044, Control_c, 6, 7, 88
12, 18056, Control_c, 6, 7, 89
12, 18080, Control_c, 6, 7, 92
12, 18096, Control_c, 6, 7, 93
12, 18112, Control_c, 6, 7, 94
12, 18124, Control_c, 6, 7, 95
12, 18144, Control_c, 6, 7, 96
12, 18160, Control_c, 6, 7, 97
12, 18172, Control_c, 6, 7, 98
12, 18184, Control_c, 6, 7, 100
12, 18212, Control_c, 6, 7, 101
12, 18224, Control_c, 6, 7, 102
12, 18236, Control_c, 6, 7, 103
12, 18248, Control_c, 6, 7, 104
12, 18260, Control_c, 6, 7, 106
12, 18272, Control_c, 6, 7, 107
12, 18288, Control_c, 6, 7, 108
12, 18312, Control_c, 6, 7, 109
12, 18324, Control_c, 6, 7, 110
12, 18336, Control_c, 6, 7, 112
12, 18352, Control_c, 6, 7, 113
12, 18364, Control_c, 6, 7, 114
12, 18388, Control_c, 6, 7, 115
12, 18396, Note_off_c, 6, 81, 0
12, 18400, Note_off_c, 6, 77, 0
12, 18400, Control_c, 6, 7, 116
12, 18416, Control_c, 6, 7, 117
12, 18428, Control_c, 6, 7, 118
12, 18448, Note_off_c, 6, 72, 0
12, 18452, Control_c, 6, 7, 119
12, 18456, Note_off_c, 6, 69, 0
12, 18464, Note_on_c, 6, 77, 114
12, 18464, Control_c, 6, 7, 121
12, 18464, Note_on_c, 6, 81, 127
12, 18492, Control_c, 6, 7, 122
12, 18504, Control_c, 6, 7, 123
12, 18528, Control_c, 6, 7, 124
12, 18544, Control_c, 6, 7, 125
12, 18580, Control_c, 6, 7, 127
12, 18580, Note_on_c, 6, 83, 99
12, 18584, Note_on_c, 6, 79, 124
12, 18592, Control_c, 6, 7, 127
12, 18600, Note_off_c, 6, 81, 0
12, 18604, Note_off_c, 6, 77, 0
12, 18608, Control_c, 6, 7, 127
12, 18620, Control_c, 6, 7, 127
12, 18680, Control_c, 6, 7, 127
12, 18688, Note_on_c, 6, 84, 93
12, 18692, Note_on_c, 6, 81, 117
12, 18708, Note_off_c, 6, 79, 0
12, 18708, Control_c, 6, 7, 127
12, 18720, Note_off_c, 6, 83, 0
12, 19576, Note_on_c, 6, 86, 125
12, 19580, Note_on_c, 6, 74, 111
12, 19600, Note_off_c, 6, 81, 0
12, 19608, Note_off_c, 6, 84, 0
12, 19840, Note_off_c, 6, 74, 0
12, 20000, Note_on_c, 6, 76, 127
12, 20004, Note_on_c, 6, 88, 127
12, 20032, Note_off_c, 6, 86, 0
12, 20192, Note_off_c, 6, 88, 0
12, 20192, Note_on_c, 6, 77, 127
12, 20196, Note_on_c, 6, 89, 127
12, 20204, Note_off_c, 6, 76, 0
12, 20392, Note_off_c, 6, 77, 0
12, 20412, Note_on_c, 6, 91, 127
12, 20416, Note_on_c, 6, 79, 127
12, 20448, Note_off_c, 6, 89, 0
12, 21252, Note_off_c, 6, 79, 0
12, 21324, Note_on_c, 6, 88, 127
12, 21328, Note_off_c, 6, 91, 0
12, 21328, Note_on_c, 6, 76, 127
12, 21416, Note_on_c, 6, 77, 127
12, 21424, Note_on_c, 6, 89, 127
12, 21432, Note_off_c, 6, 76, 0
12, 21440, Note_off_c, 6, 88, 0
12, 21520, Note_on_c, 6, 79, 127
12, 21520, Note_on_c, 6, 91, 127
12, 21528, Note_off_c, 6, 77, 0
12, 21552, Note_off_c, 6, 89, 0
12, 22252, Control_c, 6, 7, 127
12, 22260, Note_off_c, 6, 91, 0
12, 22272, Note_on_c, 6, 93, 127
12, 22276, Note_on_c, 6, 81, 127
12, 22292, Note_off_c, 6, 79, 0
12, 22304, Control_c, 6, 7, 127
12, 22724, Note_off_c, 6, 93, 0
12, 22736, Note_on_c, 6, 83, 127
12, 22740, Note_on_c, 6, 95, 127
12, 22748, Note_off_c, 6, 81, 0
12, 22880, Control_c, 6, 7, 127
12, 22952, Control_c, 6, 7, 127
12, 22976, Control_c, 6, 7, 127
12, 23200, Note_off_c, 6, 95, 0
12, 23200, Note_on_c, 6, 84, 127
12, 23200, Note_on_c, 6, 96, 127
12, 23204, Note_on_c, 6, 76, 127
12, 23228, Note_off_c, 6, 83, 0
12, 23448, Control_c, 6, 7, 127
12, 23476, Control_c, 6, 7, 127
12, 23552, Control_c, 6, 7, 127
12, 23580, Control_c, 6, 7, 127
12, 23588, Control_c, 6, 7, 127
12, 23796, Control_c, 6, 7, 127
12, 23828, Control_c, 6, 7, 127
12, 24136, Control_c, 6, 7, 127
12, 24176, Control_c, 6, 7, 127
12, 24228, Control_c, 6, 7, 127
12, 24240, Control_c, 6, 7, 127
12, 24256, Control_c, 6, 7, 127
12, 24288, Control_c, 6, 7, 126
12, 24312, Control_c, 6, 7, 125
12, 24332, Control_c, 6, 7, 124
12, 24344, Control_c, 6, 7, 123
12, 24372, Control_c, 6, 7, 122
12, 24384, Control_c, 6, 7, 121
12, 24396, Control_c, 6, 7, 120
12, 24404, Control_c, 6, 7, 119
12, 24464, Control_c, 6, 7, 117
12, 24484, Control_c, 6, 7, 116
12, 24528, Control_c, 6, 7, 115
12, 24548, Control_c, 6, 7, 114
12, 24568, Control_c, 6, 7, 113
12, 24600, Control_c, 6, 7, 112
12, 24608, Control_c, 6, 7, 111
12, 24628, Control_c, 6, 7, 110
12, 24660, Control_c, 6, 7, 109
12, 24672, Control_c, 6, 7, 108
12, 24680, Control_c, 6, 7, 107
12, 24692, Control_c, 6, 7, 106
12, 24712, Control_c, 6, 7, 105
12, 24732, Control_c, 6, 7, 104
12, 24752, Control_c, 6, 7, 103
12, 24772, Control_c, 6, 7, 102
12, 24796, Control_c, 6, 7, 101
12, 24816, Control_c, 6, 7, 100
12, 24824, Control_c, 6, 7, 99
12, 24848, Control_c, 6, 7, 98
12, 24888, Control_c, 6, 7, 97
12, 24896, Control_c, 6, 7, 96
12, 24908, Control_c, 6, 7, 95
12, 24916, Control_c, 6, 7, 94
12, 24948, Control_c, 6, 7, 93
12, 24972, Control_c, 6, 7, 92
12, 24992, Control_c, 6, 7, 91
12, 25000, Control_c, 6, 7, 90
12, 25012, Control_c, 6, 7, 89
12, 25024, Control_c, 6, 7, 87
12, 25032, Control_c, 6, 7, 85
12, 25040, Control_c, 6, 7, 83
12, 25052, Control_c, 6, 7, 82
12, 25064, Control_c, 6, 7, 81
12, 25084, Control_c, 6, 7, 79
12, 25092, Control_c, 6, 7, 78
12, 25104, Control_c, 6, 7, 77
12, 25144, Control_c, 6, 7, 79
12, 25152, Control_c, 6, 7, 82
12, 25168, Control_c, 6, 7, 84
12, 25176, Control_c, 6, 7, 86
12, 25184, Control_c, 6, 7, 88
12, 25196, Control_c, 6, 7, 89
12, 25204, Control_c, 6, 7, 91
12, 25216, Control_c, 6, 7, 92
12, 25228, Control_c, 6, 7, 93
12, 25236, Control_c, 6, 7, 94
12, 25268, Control_c, 6, 7, 95
12, 25280, Control_c, 6, 7, 96
12, 25288, Control_c, 6, 7, 97
12, 25296, Control_c, 6, 7, 98
12, 25312, Control_c, 6, 7, 99
12, 25320, Control_c, 6, 7, 100
12, 25340, Control_c, 6, 7, 101
12, 25348, Control_c, 6, 7, 103
12, 25360, Control_c, 6, 7, 104
12, 25372, Control_c, 6, 7, 105
12, 25392, Control_c, 6, 7, 106
12, 25400, Control_c, 6, 7, 107
12, 25412, Control_c, 6, 7, 108
12, 25424, Control_c, 6, 7, 109
12, 25432, Control_c, 6, 7, 110
12, 25456, Control_c, 6, 7, 111
12, 25464, Control_c, 6, 7, 112
12, 25484, Control_c, 6, 7, 113
12, 25504, Control_c, 6, 7, 114
12, 25536, Control_c, 6, 7, 115
12, 25544, Control_c, 6, 7, 116
12, 25568, Control_c, 6, 7, 117
12, 25600, Control_c, 6, 7, 118
12, 25616, Control_c, 6, 7, 119
12, 25628, Control_c, 6, 7, 120
12, 25648, Control_c, 6, 7, 121
12, 25668, Control_c, 6, 7, 122
12, 25692, Control_c, 6, 7, 123
12, 25712, Control_c, 6, 7, 124
12, 25744, Control_c, 6, 7, 125
12, 25760, Control_c, 6, 7, 126
12, 25772, Control_c, 6, 7, 127
12, 25804, Control_c, 6, 7, 127
12, 25824, Control_c, 6, 7, 127
12, 25836, Control_c, 6, 7, 127
12, 25856, Control_c, 6, 7, 127
12, 25888, Control_c, 6, 7, 127
12, 25896, Control_c, 6, 7, 127
12, 25904, Control_c, 6, 7, 127
12, 25916, Control_c, 6, 7, 127
12, 25928, Control_c, 6, 7, 127
12, 25948, Control_c, 6, 7, 127
12, 26000, Control_c, 6, 7, 127
12, 26032, Control_c, 6, 7, 127
12, 26040, Control_c, 6, 7, 127
12, 26048, Control_c, 6, 7, 127
12, 26140, Note_off_c, 6, 76, 0
12, 26140, Note_off_c, 6, 96, 0
12, 26160, Note_off_c, 6, 84, 0
12, 26160, End_track
13, 0, Start_track
13, 0, Title_t, "Contrabass"
13, 0, Control_c, 7, 0, 0
13, 0, Program_c, 7, 48
13, 0, Control_c, 7, 10, 100
13, 0, Key_signature, 0, "major"
13, 0, Control_c, 7, 7, 65
13, 0, Pitch_bend_c, 7, 8192
13, 0, Control_c, 7, 64, 0
13, 0, Control_c, 7, 1, 0
13, 0, Note_on_c, 7, 24, 55
13, 1112, Control_c, 7, 7, 65
13, 4676, Control_c, 7, 7, 64
13, 4688, Control_c, 7, 7, 66
13, 4760, Control_c, 7, 7, 67
13, 4776, Control_c, 7, 7, 66
13, 5028, Control_c, 7, 7, 69
13, 5072, Control_c, 7, 7, 70
13, 5100, Control_c, 7, 7, 71
13, 5128, Control_c, 7, 7, 72
13, 5188, Control_c, 7, 7, 73
13, 5260, Control_c, 7, 7, 74
13, 5344, Control_c, 7, 7, 75
13, 5360, Control_c, 7, 7, 76
13, 5388, Control_c, 7, 7, 77
13, 5440, Control_c, 7, 7, 78
13, 5472, Control_c, 7, 7, 79
13, 5540, Control_c, 7, 7, 80
13, 5616, Control_c, 7, 7, 81
13, 5656, Control_c, 7, 7, 82
13, 5744, Control_c, 7, 7, 83
13, 5796, Control_c, 7, 7, 84
13, 5824, Control_c, 7, 7, 85
13, 5868, Control_c, 7, 7, 86
13, 5912, Control_c, 7, 7, 87
13, 5968, Control_c, 7, 7, 86
13, 6040, Control_c, 7, 7, 87
13, 6068, Control_c, 7, 7, 89
13, 6112, Control_c, 7, 7, 90
13, 6244, Control_c, 7, 7, 91
13, 6284, Control_c, 7, 7, 92
13, 6300, Control_c, 7, 7, 91
13, 6312, Control_c, 7, 7, 89
13, 6324, Control_c, 7, 7, 87
13, 6336, Control_c, 7, 7, 86
13, 6352, Control_c, 7, 7, 85
13, 6364, Control_c, 7, 7, 84
13, 6388, Control_c, 7, 7, 83
13, 6400, Control_c, 7, 7, 82
13, 6416, Control_c, 7, 7, 81
13, 6440, Control_c, 7, 7, 80
13, 6456, Control_c, 7, 7, 79
13, 6468, Control_c, 7, 7, 78
13, 6496, Control_c, 7, 7, 77
13, 6520, Control_c, 7, 7, 76
13, 6532, Control_c, 7, 7, 75
13, 6544, Control_c, 7, 7, 74
13, 6584, Control_c, 7, 7, 73
13, 6784, Control_c, 7, 7, 70
13, 6812, Control_c, 7, 7, 69
13, 6872, Control_c, 7, 7, 68
13, 6920, Control_c, 7, 7, 67
13, 6956, Control_c, 7, 7, 66
13, 7024, Control_c, 7, 7, 65
13, 7048, Control_c, 7, 7, 66
13, 7072, Control_c, 7, 7, 65
13, 7440, Control_c, 7, 7, 63
13, 7472, Control_c, 7, 7, 62
13, 7492, Control_c, 7, 7, 63
13, 7504, Control_c, 7, 7, 62
13, 7648, Note_off_c, 7, 24, 0
13, 7728, Note_on_c, 7, 24, 55
13, 10672, Control_c, 7, 7, 64
13, 10736, Control_c, 7, 7, 65
13, 10764, Control_c, 7, 7, 66
13, 10788, Control_c, 7, 7, 68
13, 10800, Control_c, 7, 7, 70
13, 10816, Control_c, 7, 7, 71
13, 10828, Control_c, 7, 7, 73
13, 10840, Control_c, 7, 7, 75
13, 10852, Control_c, 7, 7, 76
13, 10864, Control_c, 7, 7, 78
13, 10880, Control_c, 7, 7, 79
13, 10904, Control_c, 7, 7, 80
13, 10964, Control_c, 7, 7, 81
13, 11040, Control_c, 7, 7, 82
13, 11080, Control_c, 7, 7, 83
13, 11284, Control_c, 7, 7, 80
13, 11296, Control_c, 7, 7, 79
13, 11312, Control_c, 7, 7, 78
13, 11324, Control_c, 7, 7, 77
13, 11348, Control_c, 7, 7, 76
13, 11360, Control_c, 7, 7, 75
13, 11376, Control_c, 7, 7, 74
13, 11388, Control_c, 7, 7, 73
13, 11452, Control_c, 7, 7, 72
13, 11464, Control_c, 7, 7, 71
13, 11488, Control_c, 7, 7, 70
13, 11528, Control_c, 7, 7, 69
13, 11580, Control_c, 7, 7, 68
13, 11604, Control_c, 7, 7, 69
13, 11656, Control_c, 7, 7, 70
13, 11704, Note_off_c, 7, 24, 0
13, 11708, Control_c, 7, 7, 71
13, 11784, Control_c, 7, 7, 72
13, 11824, Control_c, 7, 7, 73
13, 11908, Control_c, 7, 7, 74
13, 11948, Control_c, 7, 7, 75
13, 11972, Control_c, 7, 7, 76
13, 12000, Control_c, 7, 7, 77
13, 12040, Control_c, 7, 7, 78
13, 12104, Control_c, 7, 7, 79
13, 12180, Control_c, 7, 7, 80
13, 12228, Control_c, 7, 7, 81
13, 12256, Note_on_c, 7, 24, 55
13, 12304, Control_c, 7, 7, 80
13, 12444, Control_c, 7, 7, 83
13, 12468, Control_c, 7, 7, 81
13, 12480, Control_c, 7, 7, 80
13, 12496, Control_c, 7, 7, 79
13, 12508, Control_c, 7, 7, 77
13, 12520, Control_c, 7, 7, 76
13, 12532, Control_c, 7, 7, 75
13, 12544, Control_c, 7, 7, 74
13, 12560, Control_c, 7, 7, 72
13, 12580, Control_c, 7, 7, 71
13, 12592, Control_c, 7, 7, 69
13, 12608, Control_c, 7, 7, 68
13, 12620, Control_c, 7, 7, 67
13, 12656, Control_c, 7, 7, 66
13, 13168, Control_c, 7, 7, 64
13, 13748, Note_off_c, 7, 24, 0
13, 13848, Note_on_c, 7, 24, 91
13, 14136, Control_c, 7, 7, 61
13, 16880, Note_off_c, 7, 24, 0
13, 16984, Note_on_c, 7, 29, 127
13, 19408, Control_c, 7, 7, 85
13, 19968, Note_on_c, 7, 52, 127
13, 19968, Note_on_c, 7, 60, 127
13, 19968, Note_on_c, 7, 43, 124
13, 20080, Note_off_c, 7, 29, 0
13, 20112, Note_off_c, 7, 52, 0
13, 20156, Note_off_c, 7, 60, 0
13, 20256, Note_on_c, 7, 62, 127
13, 20256, Note_on_c, 7, 53, 127
13, 20288, Control_c, 7, 7, 87
13, 20436, Note_on_c, 7, 55, 127
13, 20436, Note_on_c, 7, 64, 127
13, 20456, Note_off_c, 7, 53, 0
13, 20464, Note_off_c, 7, 62, 0
13, 21236, Note_off_c, 7, 55, 0
13, 21264, Note_off_c, 7, 64, 0
13, 21312, Note_on_c, 7, 60, 127
13, 21312, Note_on_c, 7, 52, 127
13, 21392, Note_off_c, 7, 52, 0
13, 21424, Note_off_c, 7, 43, 0
13, 21424, Note_on_c, 7, 62, 127
13, 21428, Note_on_c, 7, 53, 127
13, 21444, Note_off_c, 7, 60, 0
13, 21496, Note_off_c, 7, 53, 0
13, 21544, Note_on_c, 7, 64, 127
13, 21548, Note_on_c, 7, 55, 127
13, 21556, Note_on_c, 7, 43, 127
13, 21568, Note_off_c, 7, 62, 0
13, 22092, Control_c, 7, 7, 89
13, 22104, Control_c, 7, 7, 90
13, 22164, Note_off_c, 7, 64, 0
13, 22224, Note_off_c, 7, 55, 0
13, 22236, Note_on_c, 7, 60, 127
13, 22240, Note_on_c, 7, 52, 127
13, 22288, Note_on_c, 7, 45, 126
13, 22300, Note_off_c, 7, 43, 0
13, 22428, Control_c, 7, 7, 91
13, 22464, Control_c, 7, 7, 90
13, 22508, Control_c, 7, 7, 91
13, 22644, Note_off_c, 7, 52, 0
13, 22656, Note_off_c, 7, 60, 0
13, 22672, Note_on_c, 7, 59, 127
13, 22676, Note_on_c, 7, 50, 127
13, 22716, Note_on_c, 7, 43, 125
13, 22728, Note_off_c, 7, 45, 0
13, 23024, Control_c, 7, 7, 92
13, 23228, Note_off_c, 7, 59, 0
13, 23228, Note_on_c, 7, 55, 127
13, 23232, Note_on_c, 7, 48, 127
13, 23244, Note_off_c, 7, 50, 0
13, 23244, Note_on_c, 7, 36, 108
13, 23252, Note_off_c, 7, 43, 0
13, 24544, Control_c, 7, 7, 89
13, 24556, Control_c, 7, 7, 88
13, 24564, Control_c, 7, 7, 87
13, 24596, Control_c, 7, 7, 86
13, 24616, Control_c, 7, 7, 85
13, 24640, Control_c, 7, 7, 84
13, 24668, Control_c, 7, 7, 83
13, 24676, Control_c, 7, 7, 82
13, 24700, Control_c, 7, 7, 81
13, 24720, Control_c, 7, 7, 80
13, 24740, Control_c, 7, 7, 78
13, 24760, Control_c, 7, 7, 77
13, 24784, Control_c, 7, 7, 76
13, 24820, Control_c, 7, 7, 75
13, 24876, Control_c, 7, 7, 74
13, 24884, Control_c, 7, 7, 73
13, 24944, Control_c, 7, 7, 74
13, 24960, Control_c, 7, 7, 75
13, 24988, Control_c, 7, 7, 76
13, 25244, Control_c, 7, 7, 79
13, 25276, Control_c, 7, 7, 80
13, 25296, Control_c, 7, 7, 81
13, 25308, Control_c, 7, 7, 82
13, 25316, Control_c, 7, 7, 83
13, 25344, Control_c, 7, 7, 84
13, 25388, Control_c, 7, 7, 85
13, 25420, Control_c, 7, 7, 86
13, 25460, Control_c, 7, 7, 87
13, 25492, Control_c, 7, 7, 88
13, 25544, Control_c, 7, 7, 89
13, 25572, Control_c, 7, 7, 90
13, 25604, Control_c, 7, 7, 91
13, 25636, Control_c, 7, 7, 92
13, 25656, Control_c, 7, 7, 93
13, 25688, Control_c, 7, 7, 94
13, 25728, Control_c, 7, 7, 95
13, 25748, Control_c, 7, 7, 96
13, 25760, Control_c, 7, 7, 97
13, 25808, Control_c, 7, 7, 98
13, 25820, Control_c, 7, 7, 99
13, 25832, Control_c, 7, 7, 100
13, 25860, Control_c, 7, 7, 101
13, 25892, Control_c, 7, 7, 102
13, 25904, Control_c, 7, 7, 103
13, 25944, Control_c, 7, 7, 104
13, 25964, Control_c, 7, 7, 105
13, 26016, Control_c, 7, 7, 106
13, 26036, Control_c, 7, 7, 107
13, 26064, Control_c, 7, 7, 108
13, 26100, Control_c, 7, 7, 109
13, 26120, Control_c, 7, 7, 110
13, 26124, Note_off_c, 7, 48, 0
13, 26128, Note_off_c, 7, 55, 0
13, 26128, Control_c, 7, 7, 111
13, 26160, Control_c, 7, 7, 112
13, 26192, Control_c, 7, 7, 113
13, 26224, Note_off_c, 7, 36, 0
13, 26224, End_track
14, 0, Start_track
14, 0, Title_t, "Tympani"
14, 0, Control_c, 8, 0, 0
14, 0, Program_c, 8, 47
14, 0, Control_c, 8, 10, 70
14, 0, Key_signature, 0, "major"
14, 0, Control_c, 8, 7, 65
14, 0, Pitch_bend_c, 8, 8192
14, 0, Control_c, 8, 64, 0
14, 0, Control_c, 8, 1, 0
14, 5400, Note_on_c, 8, 48, 127
14, 5424, Note_off_c, 8, 48, 0
14, 5432, Note_on_c, 8, 50, 127
14, 5456, Note_off_c, 8, 50, 0
14, 5476, Note_on_c, 8, 48, 127
14, 5488, Note_off_c, 8, 48, 0
14, 5500, Note_on_c, 8, 50, 127
14, 5520, Note_off_c, 8, 50, 0
14, 5536, Note_on_c, 8, 48, 127
14, 5552, Note_off_c, 8, 48, 0
14, 5556, Note_on_c, 8, 50, 127
14, 5580, Note_off_c, 8, 50, 0
14, 5588, Note_on_c, 8, 48, 127
14, 5608, Note_off_c, 8, 48, 0
14, 5612, Note_on_c, 8, 50, 127
14, 5636, Note_off_c, 8, 50, 0
14, 5648, Note_on_c, 8, 48, 127
14, 5668, Note_off_c, 8, 48, 0
14, 5672, Note_on_c, 8, 50, 127
14, 5696, Note_off_c, 8, 50, 0
14, 5700, Note_on_c, 8, 48, 127
14, 5720, Note_off_c, 8, 48, 0
14, 5728, Note_on_c, 8, 50, 127
14, 5748, Note_off_c, 8, 50, 0
14, 5760, Note_on_c, 8, 48, 127
14, 5780, Note_off_c, 8, 48, 0
14, 5780, Note_on_c, 8, 50, 127
14, 5804, Note_off_c, 8, 50, 0
14, 5808, Note_on_c, 8, 48, 127
14, 5832, Note_off_c, 8, 48, 0
14, 5840, Note_on_c, 8, 50, 127
14, 5860, Note_off_c, 8, 50, 0
14, 5868, Note_on_c, 8, 48, 127
14, 5888, Note_off_c, 8, 48, 0
14, 5888, Note_on_c, 8, 50, 127
14, 5912, Note_off_c, 8, 50, 0
14, 5920, Note_on_c, 8, 48, 127
14, 5940, Note_off_c, 8, 48, 0
14, 5944, Note_on_c, 8, 50, 127
14, 5968, Note_off_c, 8, 50, 0
14, 5972, Note_on_c, 8, 48, 127
14, 5992, Note_off_c, 8, 48, 0
14, 5996, Note_on_c, 8, 50, 127
14, 6016, Note_off_c, 8, 50, 0
14, 6024, Note_on_c, 8, 48, 127
14, 6048, Note_off_c, 8, 48, 0
14, 6048, Note_on_c, 8, 50, 127
14, 6064, Note_off_c, 8, 50, 0
14, 6080, Note_on_c, 8, 48, 127
14, 6096, Note_on_c, 8, 50, 127
14, 6100, Note_off_c, 8, 48, 0
14, 6120, Note_off_c, 8, 50, 0
14, 6128, Note_on_c, 8, 48, 127
14, 6140, Note_off_c, 8, 48, 0
14, 6176, Note_on_c, 8, 48, 127
14, 6212, Note_off_c, 8, 48, 0
14, 6292, Note_on_c, 8, 43, 127
14, 6328, Note_off_c, 8, 43, 0
14, 6412, Note_on_c, 8, 48, 127
14, 6448, Note_off_c, 8, 48, 0
14, 6532, Note_on_c, 8, 43, 127
14, 6576, Note_off_c, 8, 43, 0
14, 6652, Note_on_c, 8, 48, 127
14, 6688, Note_off_c, 8, 48, 0
14, 6776, Note_on_c, 8, 43, 127
14, 6816, Note_off_c, 8, 43, 0
14, 6896, Note_on_c, 8, 48, 127
14, 6932, Note_off_c, 8, 48, 0
14, 7024, Note_on_c, 8, 43, 127
14, 7064, Note_off_c, 8, 43, 0
14, 7148, Note_on_c, 8, 48, 127
14, 7184, Note_off_c, 8, 48, 0
14, 7284, Note_on_c, 8, 43, 127
14, 7324, Note_off_c, 8, 43, 0
14, 7412, Note_on_c, 8, 48, 127
14, 7448, Note_off_c, 8, 48, 0
14, 7548, Note_on_c, 8, 43, 127
14, 7584, Note_off_c, 8, 43, 0
14, 7696, Note_on_c, 8, 48, 127
14, 7780, Note_off_c, 8, 48, 0
14, 8416, Control_c, 8, 7, 79
14, 8424, Control_c, 8, 7, 78
14, 8432, Control_c, 8, 7, 77
14, 8444, Control_c, 8, 7, 76
14, 8492, Control_c, 8, 7, 75
14, 11520, Note_on_c, 8, 48, 127
14, 11548, Note_off_c, 8, 48, 0
14, 11560, Note_on_c, 8, 50, 127
14, 11580, Note_off_c, 8, 50, 0
14, 11596, Note_on_c, 8, 48, 127
14, 11612, Note_off_c, 8, 48, 0
14, 11632, Note_on_c, 8, 50, 127
14, 11652, Note_off_c, 8, 50, 0
14, 11664, Note_on_c, 8, 48, 127
14, 11684, Note_off_c, 8, 48, 0
14, 11696, Note_on_c, 8, 50, 127
14, 11724, Note_off_c, 8, 50, 0
14, 11728, Note_on_c, 8, 48, 127
14, 11748, Note_off_c, 8, 48, 0
14, 11760, Note_on_c, 8, 50, 127
14, 11788, Note_off_c, 8, 50, 0
14, 11792, Note_on_c, 8, 48, 127
14, 11812, Note_off_c, 8, 48, 0
14, 11824, Note_on_c, 8, 50, 127
14, 11844, Note_off_c, 8, 50, 0
14, 11852, Note_on_c, 8, 48, 127
14, 11872, Note_off_c, 8, 48, 0
14, 11880, Note_on_c, 8, 50, 127
14, 11904, Note_off_c, 8, 50, 0
14, 11912, Note_on_c, 8, 48, 127
14, 11936, Note_off_c, 8, 48, 0
14, 11936, Note_on_c, 8, 50, 127
14, 11960, Note_off_c, 8, 50, 0
14, 11968, Note_on_c, 8, 48, 127
14, 11996, Note_off_c, 8, 48, 0
14, 12000, Note_on_c, 8, 50, 127
14, 12024, Note_off_c, 8, 50, 0
14, 12032, Note_on_c, 8, 48, 127
14, 12052, Note_off_c, 8, 48, 0
14, 12056, Note_on_c, 8, 50, 127
14, 12080, Note_off_c, 8, 50, 0
14, 12088, Note_on_c, 8, 48, 127
14, 12112, Note_off_c, 8, 48, 0
14, 12116, Note_on_c, 8, 50, 127
14, 12140, Note_off_c, 8, 50, 0
14, 12144, Note_on_c, 8, 48, 127
14, 12164, Note_off_c, 8, 48, 0
14, 12176, Note_on_c, 8, 50, 127
14, 12192, Note_on_c, 8, 48, 127
14, 12200, Note_off_c, 8, 50, 0
14, 12216, Note_off_c, 8, 48, 0
14, 12224, Note_on_c, 8, 50, 127
14, 12236, Note_on_c, 8, 48, 127
14, 12252, Note_off_c, 8, 50, 0
14, 12256, Note_off_c, 8, 48, 0
14, 12292, Note_on_c, 8, 48, 127
14, 12328, Note_off_c, 8, 48, 0
14, 12428, Note_on_c, 8, 43, 127
14, 12464, Note_off_c, 8, 43, 0
14, 12556, Note_on_c, 8, 48, 127
14, 12584, Note_off_c, 8, 48, 0
14, 12676, Note_on_c, 8, 43, 127
14, 12716, Note_off_c, 8, 43, 0
14, 12800, Note_on_c, 8, 48, 127
14, 12832, Note_off_c, 8, 48, 0
14, 12916, Note_on_c, 8, 43, 127
14, 12948, Note_off_c, 8, 43, 0
14, 13040, Note_on_c, 8, 48, 127
14, 13072, Note_off_c, 8, 48, 0
14, 13168, Note_on_c, 8, 43, 127
14, 13204, Note_off_c, 8, 43, 0
14, 13296, Note_on_c, 8, 48, 127
14, 13328, Note_off_c, 8, 48, 0
14, 13424, Note_on_c, 8, 43, 127
14, 13456, Note_off_c, 8, 43, 0
14, 13556, Note_on_c, 8, 48, 127
14, 13588, Note_off_c, 8, 48, 0
14, 13688, Note_on_c, 8, 43, 127
14, 13720, Note_off_c, 8, 43, 0
14, 13828, Note_on_c, 8, 48, 127
14, 13880, Note_off_c, 8, 48, 0
14, 17660, Note_on_c, 8, 48, 127
14, 17680, Note_off_c, 8, 48, 0
14, 17704, Note_on_c, 8, 50, 127
14, 17724, Note_off_c, 8, 50, 0
14, 17744, Note_on_c, 8, 48, 127
14, 17756, Note_off_c, 8, 48, 0
14, 17776, Note_on_c, 8, 50, 127
14, 17792, Note_off_c, 8, 50, 0
14, 17804, Note_on_c, 8, 48, 127
14, 17820, Note_off_c, 8, 48, 0
14, 17840, Note_on_c, 8, 50, 127
14, 17856, Note_off_c, 8, 50, 0
14, 17872, Note_on_c, 8, 48, 127
14, 17888, Note_off_c, 8, 48, 0
14, 17900, Note_on_c, 8, 50, 127
14, 17920, Note_off_c, 8, 50, 0
14, 17936, Note_on_c, 8, 48, 127
14, 17952, Note_off_c, 8, 48, 0
14, 17964, Note_on_c, 8, 50, 127
14, 17984, Note_off_c, 8, 50, 0
14, 17996, Note_on_c, 8, 48, 127
14, 18016, Note_off_c, 8, 48, 0
14, 18020, Note_on_c, 8, 50, 127
14, 18048, Note_off_c, 8, 50, 0
14, 18052, Note_on_c, 8, 48, 127
14, 18076, Note_off_c, 8, 48, 0
14, 18080, Note_on_c, 8, 50, 127
14, 18104, Note_off_c, 8, 50, 0
14, 18112, Note_on_c, 8, 48, 127
14, 18140, Note_off_c, 8, 48, 0
14, 18144, Note_on_c, 8, 50, 127
14, 18168, Note_off_c, 8, 50, 0
14, 18176, Note_on_c, 8, 48, 127
14, 18196, Note_off_c, 8, 48, 0
14, 18204, Note_on_c, 8, 50, 127
14, 18228, Note_off_c, 8, 50, 0
14, 18232, Note_on_c, 8, 48, 127
14, 18256, Note_off_c, 8, 48, 0
14, 18264, Note_on_c, 8, 50, 127
14, 18288, Note_off_c, 8, 50, 0
14, 18288, Note_on_c, 8, 48, 127
14, 18312, Note_off_c, 8, 48, 0
14, 18320, Note_on_c, 8, 50, 127
14, 18340, Note_on_c, 8, 48, 127
14, 18344, Note_off_c, 8, 50, 0
14, 18364, Note_off_c, 8, 48, 0
14, 18376, Note_on_c, 8, 50, 127
14, 18392, Note_on_c, 8, 48, 127
14, 18400, Note_off_c, 8, 50, 0
14, 18412, Note_off_c, 8, 48, 0
14, 18432, Note_on_c, 8, 50, 127
14, 18432, Note_on_c, 8, 48, 127
14, 18452, Note_off_c, 8, 50, 0
14, 18452, Note_off_c, 8, 48, 0
14, 19376, Note_on_c, 8, 50, 127
14, 19404, Note_off_c, 8, 50, 0
14, 19408, Note_on_c, 8, 48, 127
14, 19428, Note_off_c, 8, 48, 0
14, 19440, Note_on_c, 8, 50, 127
14, 19460, Note_off_c, 8, 50, 0
14, 19460, Note_on_c, 8, 48, 127
14, 19484, Note_off_c, 8, 48, 0
14, 19492, Note_on_c, 8, 50, 127
14, 19512, Note_on_c, 8, 48, 127
14, 19516, Note_off_c, 8, 50, 0
14, 19536, Note_off_c, 8, 48, 0
14, 19540, Note_on_c, 8, 50, 127
14, 19564, Note_on_c, 8, 48, 127
14, 19568, Note_off_c, 8, 50, 0
14, 19588, Note_off_c, 8, 48, 0
14, 19592, Note_on_c, 8, 50, 127
14, 19616, Note_off_c, 8, 50, 0
14, 19616, Note_on_c, 8, 48, 127
14, 19640, Note_off_c, 8, 48, 0
14, 19648, Note_on_c, 8, 50, 127
14, 19676, Note_on_c, 8, 48, 127
14, 19680, Note_off_c, 8, 50, 0
14, 19696, Note_off_c, 8, 48, 0
14, 19700, Note_on_c, 8, 50, 127
14, 19728, Note_off_c, 8, 50, 0
14, 19728, Note_on_c, 8, 48, 127
14, 19752, Note_off_c, 8, 48, 0
14, 19760, Note_on_c, 8, 50, 127
14, 19784, Note_off_c, 8, 50, 0
14, 19784, Note_on_c, 8, 48, 127
14, 19808, Note_off_c, 8, 48, 0
14, 19816, Note_on_c, 8, 50, 127
14, 19840, Note_on_c, 8, 48, 127
14, 19844, Note_off_c, 8, 50, 0
14, 19864, Note_off_c, 8, 48, 0
14, 19872, Note_on_c, 8, 50, 127
14, 19892, Note_on_c, 8, 48, 127
14, 19896, Note_off_c, 8, 50, 0
14, 19916, Note_off_c, 8, 48, 0
14, 19920, Note_on_c, 8, 50, 127
14, 19944, Note_on_c, 8, 48, 127
14, 19948, Note_off_c, 8, 50, 0
14, 19968, Note_off_c, 8, 48, 0
14, 19968, Note_on_c, 8, 50, 127
14, 19992, Note_off_c, 8, 50, 0
14, 19996, Note_on_c, 8, 48, 127
14, 20012, Note_off_c, 8, 48, 0
14, 20016, Note_on_c, 8, 50, 127
14, 20048, Note_off_c, 8, 50, 0
14, 20052, Note_on_c, 8, 48, 127
14, 20100, Note_off_c, 8, 48, 0
14, 21160, Note_on_c, 8, 52, 127
14, 21184, Note_off_c, 8, 52, 0
14, 21340, Note_on_c, 8, 48, 127
14, 21340, Control_c, 8, 7, 98
14, 21372, Note_off_c, 8, 48, 0
14, 21572, Note_on_c, 8, 43, 127
14, 22200, Note_off_c, 8, 43, 0
14, 22304, Note_on_c, 8, 48, 127
14, 22324, Note_off_c, 8, 48, 0
14, 22764, Note_on_c, 8, 43, 127
14, 23044, Note_off_c, 8, 43, 0
14, 23204, Note_on_c, 8, 36, 127
14, 23204, Control_c, 8, 7, 65
14, 23248, Note_off_c, 8, 36, 0
14, 23732, Note_on_c, 8, 48, 127
14, 23756, Note_off_c, 8, 48, 0
14, 23772, Note_on_c, 8, 50, 127
14, 23792, Note_off_c, 8, 50, 0
14, 23820, Note_on_c, 8, 48, 127
14, 23840, Note_off_c, 8, 48, 0
14, 23856, Note_on_c, 8, 50, 127
14, 23872, Note_off_c, 8, 50, 0
14, 23896, Note_on_c, 8, 48, 127
14, 23916, Note_off_c, 8, 48, 0
14, 23936, Note_on_c, 8, 50, 127
14, 23952, Note_off_c, 8, 50, 0
14, 23972, Note_on_c, 8, 48, 127
14, 23988, Note_off_c, 8, 48, 0
14, 24012, Note_on_c, 8, 50, 127
14, 24032, Note_off_c, 8, 50, 0
14, 24048, Note_on_c, 8, 48, 127
14, 24068, Note_off_c, 8, 48, 0
14, 24084, Note_on_c, 8, 50, 127
14, 24108, Note_off_c, 8, 50, 0
14, 24120, Note_on_c, 8, 48, 127
14, 24144, Note_off_c, 8, 48, 0
14, 24160, Note_on_c, 8, 50, 127
14, 24184, Note_off_c, 8, 50, 0
14, 24196, Note_on_c, 8, 48, 127
14, 24220, Note_off_c, 8, 48, 0
14, 24236, Note_on_c, 8, 50, 127
14, 24256, Note_off_c, 8, 50, 0
14, 24272, Note_on_c, 8, 48, 127
14, 24288, Note_off_c, 8, 48, 0
14, 24304, Note_on_c, 8, 50, 127
14, 24328, Note_off_c, 8, 50, 0
14, 24344, Note_on_c, 8, 48, 127
14, 24368, Note_off_c, 8, 48, 0
14, 24380, Note_on_c, 8, 50, 127
14, 24400, Note_off_c, 8, 50, 0
14, 24420, Note_on_c, 8, 48, 127
14, 24440, Note_off_c, 8, 48, 0
14, 24460, Note_on_c, 8, 50, 127
14, 24480, Note_off_c, 8, 50, 0
14, 24496, Note_on_c, 8, 48, 127
14, 24512, Note_off_c, 8, 48, 0
14, 24532, Note_on_c, 8, 50, 127
14, 24552, Note_off_c, 8, 50, 0
14, 24572, Note_on_c, 8, 48, 127
14, 24588, Note_off_c, 8, 48, 0
14, 24608, Note_on_c, 8, 50, 127
14, 24624, Note_off_c, 8, 50, 0
14, 24648, Note_on_c, 8, 48, 127
14, 24656, Note_off_c, 8, 48, 0
14, 24684, Note_on_c, 8, 50, 127
14, 24692, Note_off_c, 8, 50, 0
14, 24724, Note_on_c, 8, 48, 127
14, 24736, Note_off_c, 8, 48, 0
14, 24756, Note_on_c, 8, 50, 127
14, 24772, Note_off_c, 8, 50, 0
14, 24800, Note_on_c, 8, 48, 127
14, 24808, Note_off_c, 8, 48, 0
14, 24832, Note_on_c, 8, 50, 127
14, 24844, Note_off_c, 8, 50, 0
14, 24876, Note_on_c, 8, 48, 127
14, 24884, Note_off_c, 8, 48, 0
14, 24920, Note_on_c, 8, 50, 127
14, 24928, Note_off_c, 8, 50, 0
14, 24964, Note_on_c, 8, 48, 127
14, 24976, Note_off_c, 8, 48, 0
14, 25004, Note_on_c, 8, 50, 127
14, 25012, Note_off_c, 8, 50, 0
14, 25048, Note_on_c, 8, 48, 127
14, 25064, Note_off_c, 8, 48, 0
14, 25088, Note_on_c, 8, 50, 127
14, 25096, Note_off_c, 8, 50, 0
14, 25132, Note_on_c, 8, 48, 127
14, 25140, Note_off_c, 8, 48, 0
14, 25172, Note_on_c, 8, 50, 127
14, 25184, Note_off_c, 8, 50, 0
14, 25212, Note_on_c, 8, 48, 127
14, 25228, Note_off_c, 8, 48, 0
14, 25248, Note_on_c, 8, 50, 127
14, 25264, Note_off_c, 8, 50, 0
14, 25296, Note_on_c, 8, 48, 127
14, 25312, Note_off_c, 8, 48, 0
14, 25328, Note_on_c, 8, 50, 127
14, 25344, Note_off_c, 8, 50, 0
14, 25368, Note_on_c, 8, 48, 127
14, 25392, Note_off_c, 8, 48, 0
14, 25400, Note_on_c, 8, 50, 127
14, 25420, Note_off_c, 8, 50, 0
14, 25440, Note_on_c, 8, 48, 127
14, 25460, Note_off_c, 8, 48, 0
14, 25472, Note_on_c, 8, 50, 127
14, 25488, Note_off_c, 8, 50, 0
14, 25504, Note_on_c, 8, 48, 127
14, 25528, Note_off_c, 8, 48, 0
14, 25536, Note_on_c, 8, 50, 127
14, 25560, Note_off_c, 8, 50, 0
14, 25572, Note_on_c, 8, 48, 127
14, 25600, Note_off_c, 8, 48, 0
14, 25612, Note_on_c, 8, 50, 127
14, 25632, Note_off_c, 8, 50, 0
14, 25644, Note_on_c, 8, 48, 127
14, 25664, Note_off_c, 8, 48, 0
14, 25676, Note_on_c, 8, 50, 127
14, 25696, Note_off_c, 8, 50, 0
14, 25712, Note_on_c, 8, 48, 127
14, 25732, Note_off_c, 8, 48, 0
14, 25744, Note_on_c, 8, 50, 127
14, 25764, Note_off_c, 8, 50, 0
14, 25776, Note_on_c, 8, 48, 127
14, 25800, Note_off_c, 8, 48, 0
14, 25812, Note_on_c, 8, 50, 127
14, 25836, Note_off_c, 8, 50, 0
14, 25844, Note_on_c, 8, 48, 127
14, 25868, Note_off_c, 8, 48, 0
14, 25876, Note_on_c, 8, 50, 127
14, 25896, Note_off_c, 8, 50, 0
14, 25912, Note_on_c, 8, 48, 127
14, 25932, Note_off_c, 8, 48, 0
14, 25940, Note_on_c, 8, 50, 127
14, 25960, Note_off_c, 8, 50, 0
14, 25972, Note_on_c, 8, 48, 127
14, 25992, Note_off_c, 8, 48, 0
14, 26000, Note_on_c, 8, 50, 127
14, 26020, Note_off_c, 8, 50, 0
14, 26032, Note_on_c, 8, 48, 127
14, 26052, Note_off_c, 8, 48, 0
14, 26064, Note_on_c, 8, 50, 127
14, 26084, Note_off_c, 8, 50, 0
14, 26092, Note_on_c, 8, 48, 127
14, 26112, Note_off_c, 8, 48, 0
14, 26112, End_track
15, 0, Start_track
15, 0, Title_t, "Cymbal"
15, 0, Control_c, 9, 0, 0
15, 0, Program_c, 9, 0
15, 0, Control_c, 9, 10, 20
15, 0, Key_signature, 0, "major"
15, 0, Control_c, 9, 7, 100
15, 0, Pitch_bend_c, 9, 8192
15, 0, Control_c, 9, 64, 0
15, 0, Control_c, 9, 1, 0
15, 4644, Note_on_c, 9, 49, 127
15, 5208, Note_off_c, 9, 49, 0
15, 10796, Note_on_c, 9, 57, 127
15, 11156, Note_off_c, 9, 57, 0
15, 16960, Note_on_c, 9, 57, 127
15, 17388, Note_off_c, 9, 57, 0
15, 20052, Note_on_c, 9, 57, 127
15, 20384, Note_off_c, 9, 57, 0
15, 23180, Note_on_c, 9, 57, 127
15, 23652, Note_off_c, 9, 57, 0
15, 23652, End_track
16, 0, Start_track
16, 0, Title_t, "copyright '93"
16, 0, Key_signature, 0, "major"
16, 0, Pitch_bend_c, 10, 8192
16, 0, Control_c, 10, 64, 0
16, 0, Control_c, 10, 1, 0
16, 0, End_track
17, 0, Start_track
17, 0, Title_t, "Michael Ford   "
17, 0, Key_signature, 0, "major"
17, 0, Pitch_bend_c, 11, 8192
17, 0, Control_c, 11, 64, 0
17, 0, Control_c, 11, 1, 0
17, 0, End_track
18, 0, Start_track
18, 0, Title_t, "   Archives"
18, 0, Key_signature, 0, "major"
18, 0, Pitch_bend_c, 12, 8192
18, 0, Control_c, 12, 64, 0
18, 0, Control_c, 12, 1, 0
18, 0, End_track
19, 0, Start_track
19, 0, Title_t, "215 8899744"
19, 0, Key_signature, 0, "major"
19, 0, Pitch_bend_c, 13, 8192
19, 0, Control_c, 13, 64, 0
19, 0, Control_c, 13, 1, 0
19, 0, End_track
20, 0, Start_track
20, 0, Key_signature, 0, "major"
20, 0, End_track
21, 0, Start_track
21, 0, Key_signature, 0, "major"
21, 0, End_track
22, 0, Start_track
22, 0, Key_signature, 0, "major"
22, 0, End_track
0, 0, End_of_file
