0, 0, Header, 1, 34, 96
1, 0, Start_track
1, 0, Time_signature, 3, 2, 24, 8
1, 0, Tempo, 387096
1, 0, End_track
2, 0, Start_track
2, 0, MIDI_port, 0
2, 0, Title_t, "Seq. by S.D.C. 10-90"
2, 0, End_track
3, 0, Start_track
3, 0, MIDI_port, 0
3, 0, Title_t, "for Voyetra's       "
3, 0, End_track
4, 0, Start_track
4, 0, MIDI_port, 0
4, 0, Title_t, "Sequencer Plus ver.4"
4, 0, End_track
5, 0, Start_track
5, 0, MIDI_port, 0
5, 0, Title_t, "Time:2m20s|155BPM   "
5, 0, End_track
6, 0, Start_track
6, 0, MIDI_port, 0
6, 0, Title_t, "1st Violin          "
6, 0, Program_c, 0, 10
6, 72, Note_on_c, 0, 71, 90
6, 96, Note_off_c, 0, 71, 64
6, 96, Note_on_c, 0, 69, 90
6, 144, Note_off_c, 0, 69, 64
6, 144, Note_on_c, 0, 68, 90
6, 192, Note_off_c, 0, 68, 64
6, 192, Note_on_c, 0, 69, 90
6, 288, Note_off_c, 0, 69, 64
6, 360, Note_on_c, 0, 73, 90
6, 384, Note_off_c, 0, 73, 64
6, 384, Note_on_c, 0, 71, 90
6, 432, Note_off_c, 0, 71, 64
6, 432, Note_on_c, 0, 70, 90
6, 480, Note_off_c, 0, 70, 64
6, 480, Note_on_c, 0, 71, 90
6, 576, Note_off_c, 0, 71, 64
6, 648, Note_on_c, 0, 74, 90
6, 672, Note_off_c, 0, 74, 64
6, 672, Note_on_c, 0, 73, 90
6, 720, Note_off_c, 0, 73, 64
6, 720, Note_on_c, 0, 71, 90
6, 768, Note_off_c, 0, 71, 64
6, 768, Note_on_c, 0, 73, 90
6, 864, Note_off_c, 0, 73, 64
6, 864, Note_on_c, 0, 74, 90
6, 912, Note_off_c, 0, 74, 64
6, 960, Note_on_c, 0, 76, 90
6, 1008, Note_off_c, 0, 76, 64
6, 1056, Note_on_c, 0, 78, 90
6, 1104, Note_off_c, 0, 78, 64
6, 1224, Note_on_c, 0, 78, 90
6, 1248, Note_off_c, 0, 78, 64
6, 1248, Note_on_c, 0, 76, 90
6, 1296, Note_off_c, 0, 76, 64
6, 1296, Note_on_c, 0, 75, 90
6, 1344, Note_off_c, 0, 75, 64
6, 1344, Note_on_c, 0, 76, 90
6, 1440, Note_off_c, 0, 76, 64
6, 1512, Note_on_c, 0, 79, 90
6, 1536, Note_off_c, 0, 79, 64
6, 1536, Note_on_c, 0, 78, 90
6, 1584, Note_off_c, 0, 78, 64
6, 1584, Note_on_c, 0, 77, 90
6, 1632, Note_off_c, 0, 77, 64
6, 1632, Note_on_c, 0, 78, 90
6, 1728, Note_off_c, 0, 78, 64
6, 1800, Note_on_c, 0, 79, 90
6, 1824, Note_off_c, 0, 79, 64
6, 1824, Note_on_c, 0, 78, 90
6, 1872, Note_off_c, 0, 78, 64
6, 1872, Note_on_c, 0, 77, 90
6, 1920, Note_off_c, 0, 77, 64
6, 1920, Note_on_c, 0, 78, 90
6, 2016, Note_off_c, 0, 78, 64
6, 2016, Note_on_c, 0, 79, 90
6, 2064, Note_off_c, 0, 79, 64
6, 2112, Note_on_c, 0, 81, 90
6, 2160, Note_off_c, 0, 81, 64
6, 2208, Note_on_c, 0, 83, 90
6, 2256, Note_off_c, 0, 83, 64
6, 2400, Note_on_c, 0, 79, 90
6, 2448, Note_off_c, 0, 79, 64
6, 2448, Note_on_c, 0, 81, 90
6, 2496, Note_off_c, 0, 81, 64
6, 2496, Note_on_c, 0, 83, 90
6, 2544, Note_off_c, 0, 83, 64
6, 2544, Note_on_c, 0, 69, 90
6, 2592, Note_off_c, 0, 69, 64
6, 2592, Note_on_c, 0, 79, 90
6, 2976, Note_off_c, 0, 79, 64
6, 2976, Note_on_c, 0, 79, 90
6, 3024, Note_off_c, 0, 79, 64
6, 3024, Note_on_c, 0, 81, 90
6, 3072, Note_off_c, 0, 81, 64
6, 3072, Note_on_c, 0, 83, 90
6, 3120, Note_off_c, 0, 83, 64
6, 3120, Note_on_c, 0, 69, 90
6, 3168, Note_off_c, 0, 69, 64
6, 3168, Note_on_c, 0, 78, 90
6, 3552, Note_off_c, 0, 78, 64
6, 3552, Note_on_c, 0, 78, 90
6, 3600, Note_off_c, 0, 78, 64
6, 3600, Note_on_c, 0, 79, 90
6, 3648, Note_off_c, 0, 79, 64
6, 3648, Note_on_c, 0, 81, 90
6, 3696, Note_off_c, 0, 81, 64
6, 3696, Note_on_c, 0, 69, 90
6, 3744, Note_off_c, 0, 69, 64
6, 3744, Note_on_c, 0, 76, 90
6, 3768, Note_off_c, 0, 76, 64
6, 3840, Note_on_c, 0, 79, 90
6, 3864, Note_off_c, 0, 79, 64
6, 3936, Note_on_c, 0, 69, 90
6, 3960, Note_off_c, 0, 69, 64
6, 4032, Note_on_c, 0, 74, 90
6, 4056, Note_off_c, 0, 74, 64
6, 4128, Note_on_c, 0, 79, 90
6, 4152, Note_off_c, 0, 79, 64
6, 4224, Note_on_c, 0, 69, 90
6, 4248, Note_off_c, 0, 69, 64
6, 4320, Note_on_c, 0, 73, 90
6, 4344, Note_off_c, 0, 73, 64
6, 4416, Note_on_c, 0, 76, 90
6, 4440, Note_off_c, 0, 76, 64
6, 4512, Note_on_c, 0, 69, 90
6, 4536, Note_off_c, 0, 69, 64
6, 4608, Note_on_c, 0, 71, 90
6, 4632, Note_off_c, 0, 71, 64
6, 4704, Note_on_c, 0, 76, 90
6, 4728, Note_off_c, 0, 76, 64
6, 4800, Note_on_c, 0, 67, 90
6, 4824, Note_off_c, 0, 67, 64
6, 4896, Note_on_c, 0, 69, 90
6, 4920, Note_off_c, 0, 69, 64
6, 4992, Note_on_c, 0, 74, 90
6, 5016, Note_off_c, 0, 74, 64
6, 5088, Note_on_c, 0, 66, 90
6, 5112, Note_off_c, 0, 66, 64
6, 5184, Note_on_c, 0, 67, 90
6, 5208, Note_off_c, 0, 67, 64
6, 5280, Note_on_c, 0, 73, 90
6, 5304, Note_off_c, 0, 73, 64
6, 5376, Note_on_c, 0, 64, 90
6, 5400, Note_off_c, 0, 64, 64
6, 6720, Note_on_c, 0, 57, 90
6, 6816, Note_off_c, 0, 57, 64
6, 6816, Note_on_c, 0, 57, 90
6, 6912, Note_off_c, 0, 57, 64
6, 7008, Note_on_c, 0, 57, 90
6, 7104, Note_off_c, 0, 57, 64
6, 7104, Note_on_c, 0, 57, 90
6, 7200, Note_off_c, 0, 57, 64
6, 7296, Note_on_c, 0, 57, 90
6, 7392, Note_off_c, 0, 57, 64
6, 7392, Note_on_c, 0, 57, 90
6, 7488, Note_off_c, 0, 57, 64
6, 7584, Note_on_c, 0, 57, 90
6, 7680, Note_off_c, 0, 57, 64
6, 7680, Note_on_c, 0, 57, 90
6, 7776, Note_off_c, 0, 57, 64
6, 7872, Note_on_c, 0, 57, 90
6, 7968, Note_off_c, 0, 57, 64
6, 7968, Note_on_c, 0, 57, 90
6, 8064, Note_off_c, 0, 57, 64
6, 8160, Note_on_c, 0, 57, 90
6, 8256, Note_off_c, 0, 57, 64
6, 8256, Note_on_c, 0, 57, 90
6, 8352, Note_off_c, 0, 57, 64
6, 8448, Note_on_c, 0, 57, 90
6, 8544, Note_off_c, 0, 57, 64
6, 8544, Note_on_c, 0, 57, 90
6, 8640, Note_off_c, 0, 57, 64
6, 8736, Note_on_c, 0, 57, 90
6, 8832, Note_off_c, 0, 57, 64
6, 8832, Note_on_c, 0, 57, 90
6, 8928, Note_off_c, 0, 57, 64
6, 9024, Note_on_c, 0, 57, 90
6, 9120, Note_off_c, 0, 57, 64
6, 9120, Note_on_c, 0, 57, 90
6, 9216, Note_off_c, 0, 57, 64
6, 9312, Note_on_c, 0, 57, 90
6, 9408, Note_off_c, 0, 57, 64
6, 9408, Note_on_c, 0, 57, 90
6, 9504, Note_off_c, 0, 57, 64
6, 9600, Note_on_c, 0, 57, 90
6, 9696, Note_off_c, 0, 57, 64
6, 9696, Note_on_c, 0, 57, 90
6, 9792, Note_off_c, 0, 57, 64
6, 9888, Note_on_c, 0, 57, 90
6, 9984, Note_off_c, 0, 57, 64
6, 9984, Note_on_c, 0, 57, 90
6, 10080, Note_off_c, 0, 57, 64
6, 10176, Note_on_c, 0, 57, 90
6, 10272, Note_off_c, 0, 57, 64
6, 10272, Note_on_c, 0, 57, 90
6, 10368, Note_off_c, 0, 57, 64
6, 10464, Note_on_c, 0, 57, 90
6, 10560, Note_off_c, 0, 57, 64
6, 10560, Note_on_c, 0, 57, 90
6, 10656, Note_off_c, 0, 57, 64
6, 10752, Note_on_c, 0, 57, 90
6, 10848, Note_off_c, 0, 57, 64
6, 10848, Note_on_c, 0, 57, 90
6, 10944, Note_off_c, 0, 57, 64
6, 11040, Note_on_c, 0, 57, 90
6, 11136, Note_off_c, 0, 57, 64
6, 11136, Note_on_c, 0, 57, 90
6, 11232, Note_off_c, 0, 57, 64
6, 11328, Note_on_c, 0, 57, 90
6, 11424, Note_off_c, 0, 57, 64
6, 11424, Note_on_c, 0, 57, 90
6, 11520, Note_off_c, 0, 57, 64
6, 11616, Note_on_c, 0, 57, 90
6, 11712, Note_off_c, 0, 57, 64
6, 11712, Note_on_c, 0, 57, 90
6, 11808, Note_off_c, 0, 57, 64
6, 11904, Note_on_c, 0, 57, 90
6, 12000, Note_off_c, 0, 57, 64
6, 12000, Note_on_c, 0, 57, 90
6, 12096, Note_off_c, 0, 57, 64
6, 12192, Note_on_c, 0, 57, 90
6, 12288, Note_off_c, 0, 57, 64
6, 12288, Note_on_c, 0, 57, 90
6, 12384, Note_off_c, 0, 57, 64
6, 12480, Note_on_c, 0, 59, 90
6, 12576, Note_off_c, 0, 59, 64
6, 12576, Note_on_c, 0, 59, 90
6, 12672, Note_off_c, 0, 59, 64
6, 12768, Note_on_c, 0, 59, 90
6, 12864, Note_off_c, 0, 59, 64
6, 12864, Note_on_c, 0, 59, 90
6, 12960, Note_off_c, 0, 59, 64
6, 13152, Note_on_c, 0, 52, 90
6, 13248, Note_off_c, 0, 52, 64
6, 13248, Note_on_c, 0, 52, 90
6, 13344, Note_off_c, 0, 52, 64
6, 13344, Note_on_c, 0, 55, 90
6, 13440, Note_off_c, 0, 55, 64
6, 13440, Note_on_c, 0, 59, 90
6, 13488, Note_off_c, 0, 59, 64
6, 13632, Note_on_c, 0, 57, 90
6, 13728, Note_off_c, 0, 57, 64
6, 13728, Note_on_c, 0, 57, 90
6, 13824, Note_off_c, 0, 57, 64
6, 13920, Note_on_c, 0, 57, 90
6, 14016, Note_off_c, 0, 57, 64
6, 14016, Note_on_c, 0, 57, 90
6, 14112, Note_off_c, 0, 57, 64
6, 14208, Note_on_c, 0, 57, 90
6, 14304, Note_off_c, 0, 57, 64
6, 14304, Note_on_c, 0, 57, 90
6, 14400, Note_off_c, 0, 57, 64
6, 14496, Note_on_c, 0, 57, 90
6, 14592, Note_off_c, 0, 57, 64
6, 14592, Note_on_c, 0, 57, 90
6, 14688, Note_off_c, 0, 57, 64
6, 14688, Note_on_c, 0, 59, 90
6, 14976, Note_off_c, 0, 59, 64
6, 14976, Note_on_c, 0, 57, 90
6, 15264, Note_off_c, 0, 57, 64
6, 15264, Note_on_c, 0, 57, 90
6, 15360, Note_off_c, 0, 57, 64
6, 15408, Note_on_c, 0, 57, 90
6, 15456, Note_off_c, 0, 57, 64
6, 15456, Note_on_c, 0, 57, 90
6, 15552, Note_off_c, 0, 57, 64
6, 15936, Note_on_c, 0, 59, 90
6, 16032, Note_off_c, 0, 59, 64
6, 16032, Note_on_c, 0, 59, 90
6, 16128, Note_off_c, 0, 59, 64
6, 16224, Note_on_c, 0, 59, 90
6, 16320, Note_off_c, 0, 59, 64
6, 16320, Note_on_c, 0, 55, 90
6, 16416, Note_off_c, 0, 55, 64
6, 16512, Note_on_c, 0, 59, 90
6, 16608, Note_off_c, 0, 59, 64
6, 16608, Note_on_c, 0, 59, 90
6, 16704, Note_off_c, 0, 59, 64
6, 16800, Note_on_c, 0, 59, 90
6, 16896, Note_off_c, 0, 59, 64
6, 16896, Note_on_c, 0, 59, 90
6, 16992, Note_off_c, 0, 59, 64
6, 17088, Note_on_c, 0, 61, 90
6, 17184, Note_off_c, 0, 61, 64
6, 17184, Note_on_c, 0, 61, 90
6, 17280, Note_off_c, 0, 61, 64
6, 17376, Note_on_c, 0, 61, 90
6, 17472, Note_off_c, 0, 61, 64
6, 17472, Note_on_c, 0, 61, 90
6, 17568, Note_off_c, 0, 61, 64
6, 17664, Note_on_c, 0, 61, 90
6, 17760, Note_off_c, 0, 61, 64
6, 17760, Note_on_c, 0, 61, 90
6, 17856, Note_off_c, 0, 61, 64
6, 17952, Note_on_c, 0, 66, 90
6, 18048, Note_off_c, 0, 66, 64
6, 18048, Note_on_c, 0, 64, 90
6, 18144, Note_off_c, 0, 64, 64
6, 18240, Note_on_c, 0, 59, 90
6, 18336, Note_off_c, 0, 59, 64
6, 18336, Note_on_c, 0, 59, 90
6, 18432, Note_off_c, 0, 59, 64
6, 18528, Note_on_c, 0, 59, 90
6, 18624, Note_off_c, 0, 59, 64
6, 18624, Note_on_c, 0, 55, 90
6, 18720, Note_off_c, 0, 55, 64
6, 18816, Note_on_c, 0, 59, 90
6, 18912, Note_off_c, 0, 59, 64
6, 18912, Note_on_c, 0, 59, 90
6, 19008, Note_off_c, 0, 59, 64
6, 19104, Note_on_c, 0, 59, 90
6, 19200, Note_off_c, 0, 59, 64
6, 19200, Note_on_c, 0, 59, 90
6, 19296, Note_off_c, 0, 59, 64
6, 19296, Note_on_c, 0, 61, 90
6, 19584, Note_off_c, 0, 61, 64
6, 19584, Note_on_c, 0, 59, 90
6, 19776, Note_off_c, 0, 59, 64
6, 19968, Note_on_c, 0, 59, 90
6, 20064, Note_off_c, 0, 59, 64
6, 20064, Note_on_c, 0, 59, 90
6, 20160, Note_off_c, 0, 59, 64
6, 20160, Note_on_c, 0, 61, 90
6, 20256, Note_off_c, 0, 61, 64
6, 20544, Note_on_c, 0, 59, 90
6, 20640, Note_off_c, 0, 59, 64
6, 20640, Note_on_c, 0, 59, 90
6, 20736, Note_off_c, 0, 59, 64
6, 20832, Note_on_c, 0, 59, 90
6, 20928, Note_off_c, 0, 59, 64
6, 20928, Note_on_c, 0, 55, 90
6, 21024, Note_off_c, 0, 55, 64
6, 21120, Note_on_c, 0, 59, 90
6, 21216, Note_off_c, 0, 59, 64
6, 21216, Note_on_c, 0, 59, 90
6, 21312, Note_off_c, 0, 59, 64
6, 21408, Note_on_c, 0, 59, 90
6, 21504, Note_off_c, 0, 59, 64
6, 21504, Note_on_c, 0, 59, 90
6, 21600, Note_off_c, 0, 59, 64
6, 21696, Note_on_c, 0, 61, 90
6, 21792, Note_off_c, 0, 61, 64
6, 21792, Note_on_c, 0, 61, 90
6, 21888, Note_off_c, 0, 61, 64
6, 21984, Note_on_c, 0, 61, 90
6, 22080, Note_off_c, 0, 61, 64
6, 22080, Note_on_c, 0, 61, 90
6, 22176, Note_off_c, 0, 61, 64
6, 22272, Note_on_c, 0, 61, 90
6, 22368, Note_off_c, 0, 61, 64
6, 22368, Note_on_c, 0, 61, 90
6, 22464, Note_off_c, 0, 61, 64
6, 22560, Note_on_c, 0, 66, 90
6, 22656, Note_off_c, 0, 66, 64
6, 22656, Note_on_c, 0, 64, 90
6, 22752, Note_off_c, 0, 64, 64
6, 22848, Note_on_c, 0, 59, 90
6, 22944, Note_off_c, 0, 59, 64
6, 22944, Note_on_c, 0, 59, 90
6, 23040, Note_off_c, 0, 59, 64
6, 23136, Note_on_c, 0, 59, 90
6, 23232, Note_off_c, 0, 59, 64
6, 23232, Note_on_c, 0, 55, 90
6, 23328, Note_off_c, 0, 55, 64
6, 23424, Note_on_c, 0, 59, 90
6, 23520, Note_off_c, 0, 59, 64
6, 23520, Note_on_c, 0, 59, 90
6, 23616, Note_off_c, 0, 59, 64
6, 23712, Note_on_c, 0, 59, 90
6, 23808, Note_off_c, 0, 59, 64
6, 23808, Note_on_c, 0, 59, 90
6, 23904, Note_off_c, 0, 59, 64
6, 23904, Note_on_c, 0, 61, 90
6, 24192, Note_off_c, 0, 61, 64
6, 24192, Note_on_c, 0, 59, 90
6, 24384, Note_off_c, 0, 59, 64
6, 24576, Note_on_c, 0, 59, 90
6, 24672, Note_off_c, 0, 59, 64
6, 24672, Note_on_c, 0, 59, 90
6, 24768, Note_off_c, 0, 59, 64
6, 24768, Note_on_c, 0, 61, 90
6, 24864, Note_off_c, 0, 61, 64
6, 25152, Note_on_c, 0, 67, 90
6, 25248, Note_off_c, 0, 67, 64
6, 25248, Note_on_c, 0, 67, 90
6, 25344, Note_off_c, 0, 67, 64
6, 25440, Note_on_c, 0, 67, 90
6, 25536, Note_off_c, 0, 67, 64
6, 25536, Note_on_c, 0, 67, 90
6, 25632, Note_off_c, 0, 67, 64
6, 25728, Note_on_c, 0, 67, 90
6, 25824, Note_off_c, 0, 67, 64
6, 25824, Note_on_c, 0, 67, 90
6, 25920, Note_off_c, 0, 67, 64
6, 26016, Note_on_c, 0, 67, 90
6, 26112, Note_off_c, 0, 67, 64
6, 26112, Note_on_c, 0, 67, 90
6, 26208, Note_off_c, 0, 67, 64
6, 26304, Note_on_c, 0, 66, 90
6, 26400, Note_off_c, 0, 66, 64
6, 26400, Note_on_c, 0, 66, 90
6, 26496, Note_off_c, 0, 66, 64
6, 26592, Note_on_c, 0, 66, 90
6, 26688, Note_off_c, 0, 66, 64
6, 26688, Note_on_c, 0, 66, 90
6, 26784, Note_off_c, 0, 66, 64
6, 26880, Note_on_c, 0, 66, 90
6, 26976, Note_off_c, 0, 66, 64
6, 26976, Note_on_c, 0, 66, 90
6, 27072, Note_off_c, 0, 66, 64
6, 27168, Note_on_c, 0, 66, 90
6, 27264, Note_off_c, 0, 66, 64
6, 27264, Note_on_c, 0, 66, 90
6, 27360, Note_off_c, 0, 66, 64
6, 27456, Note_on_c, 0, 67, 90
6, 27552, Note_off_c, 0, 67, 64
6, 27552, Note_on_c, 0, 67, 90
6, 27648, Note_off_c, 0, 67, 64
6, 27744, Note_on_c, 0, 67, 90
6, 27840, Note_off_c, 0, 67, 64
6, 27840, Note_on_c, 0, 67, 90
6, 27936, Note_off_c, 0, 67, 64
6, 28032, Note_on_c, 0, 67, 90
6, 28128, Note_off_c, 0, 67, 64
6, 28128, Note_on_c, 0, 67, 90
6, 28224, Note_off_c, 0, 67, 64
6, 28320, Note_on_c, 0, 67, 90
6, 28416, Note_off_c, 0, 67, 64
6, 28416, Note_on_c, 0, 67, 90
6, 28512, Note_off_c, 0, 67, 64
6, 28512, Note_on_c, 0, 62, 90
6, 28608, Note_off_c, 0, 62, 64
6, 28608, Note_on_c, 0, 64, 90
6, 28704, Note_off_c, 0, 64, 64
6, 28704, Note_on_c, 0, 66, 90
6, 28800, Note_off_c, 0, 66, 64
6, 28800, Note_on_c, 0, 66, 90
6, 28992, Note_off_c, 0, 66, 64
6, 28992, Note_on_c, 0, 64, 90
6, 29088, Note_off_c, 0, 64, 64
6, 29184, Note_on_c, 0, 66, 90
6, 29280, Note_off_c, 0, 66, 64
6, 29280, Note_on_c, 0, 67, 90
6, 29376, Note_off_c, 0, 67, 64
6, 29376, Note_on_c, 0, 66, 90
6, 29472, Note_off_c, 0, 66, 64
6, 29760, Note_on_c, 0, 67, 90
6, 29856, Note_off_c, 0, 67, 64
6, 29856, Note_on_c, 0, 67, 90
6, 29952, Note_off_c, 0, 67, 64
6, 30048, Note_on_c, 0, 67, 90
6, 30144, Note_off_c, 0, 67, 64
6, 30144, Note_on_c, 0, 67, 90
6, 30240, Note_off_c, 0, 67, 64
6, 30336, Note_on_c, 0, 67, 90
6, 30432, Note_off_c, 0, 67, 64
6, 30432, Note_on_c, 0, 67, 90
6, 30528, Note_off_c, 0, 67, 64
6, 30624, Note_on_c, 0, 67, 90
6, 30720, Note_off_c, 0, 67, 64
6, 30720, Note_on_c, 0, 67, 90
6, 30816, Note_off_c, 0, 67, 64
6, 30912, Note_on_c, 0, 66, 90
6, 31008, Note_off_c, 0, 66, 64
6, 31008, Note_on_c, 0, 66, 90
6, 31104, Note_off_c, 0, 66, 64
6, 31200, Note_on_c, 0, 66, 90
6, 31296, Note_off_c, 0, 66, 64
6, 31296, Note_on_c, 0, 66, 90
6, 31392, Note_off_c, 0, 66, 64
6, 31488, Note_on_c, 0, 66, 90
6, 31584, Note_off_c, 0, 66, 64
6, 31584, Note_on_c, 0, 66, 90
6, 31680, Note_off_c, 0, 66, 64
6, 31776, Note_on_c, 0, 66, 90
6, 31872, Note_off_c, 0, 66, 64
6, 31872, Note_on_c, 0, 66, 90
6, 31968, Note_off_c, 0, 66, 64
6, 32064, Note_on_c, 0, 67, 90
6, 32160, Note_off_c, 0, 67, 64
6, 32160, Note_on_c, 0, 67, 90
6, 32256, Note_off_c, 0, 67, 64
6, 32352, Note_on_c, 0, 67, 90
6, 32448, Note_off_c, 0, 67, 64
6, 32448, Note_on_c, 0, 67, 90
6, 32544, Note_off_c, 0, 67, 64
6, 32640, Note_on_c, 0, 67, 90
6, 32736, Note_off_c, 0, 67, 64
6, 32736, Note_on_c, 0, 67, 90
6, 32832, Note_off_c, 0, 67, 64
6, 32928, Note_on_c, 0, 67, 90
6, 33024, Note_off_c, 0, 67, 64
6, 33024, Note_on_c, 0, 67, 90
6, 33120, Note_off_c, 0, 67, 64
6, 33120, Note_on_c, 0, 62, 90
6, 33216, Note_off_c, 0, 62, 64
6, 33216, Note_on_c, 0, 64, 90
6, 33312, Note_off_c, 0, 64, 64
6, 33312, Note_on_c, 0, 66, 90
6, 33408, Note_off_c, 0, 66, 64
6, 33408, Note_on_c, 0, 66, 90
6, 33600, Note_off_c, 0, 66, 64
6, 33600, Note_on_c, 0, 64, 90
6, 33696, Note_off_c, 0, 64, 64
6, 33792, Note_on_c, 0, 66, 90
6, 33888, Note_off_c, 0, 66, 64
6, 33888, Note_on_c, 0, 67, 90
6, 33984, Note_off_c, 0, 67, 64
6, 33984, Note_on_c, 0, 66, 90
6, 34080, Note_off_c, 0, 66, 64
6, 34080, End_track
7, 0, Start_track
7, 0, MIDI_port, 0
7, 0, Title_t, "Bass                "
7, 0, Program_c, 1, 81
7, 0, Note_on_c, 1, 61, 90
7, 48, Note_off_c, 1, 61, 64
7, 48, Note_on_c, 1, 64, 90
7, 96, Note_off_c, 1, 64, 64
7, 96, Note_on_c, 1, 61, 90
7, 144, Note_off_c, 1, 61, 64
7, 144, Note_on_c, 1, 64, 90
7, 192, Note_off_c, 1, 64, 64
7, 192, Note_on_c, 1, 61, 90
7, 240, Note_off_c, 1, 61, 64
7, 240, Note_on_c, 1, 64, 90
7, 288, Note_off_c, 1, 64, 64
7, 288, Note_on_c, 1, 62, 90
7, 336, Note_off_c, 1, 62, 64
7, 336, Note_on_c, 1, 66, 90
7, 384, Note_off_c, 1, 66, 64
7, 384, Note_on_c, 1, 62, 90
7, 432, Note_off_c, 1, 62, 64
7, 432, Note_on_c, 1, 66, 90
7, 480, Note_off_c, 1, 66, 64
7, 480, Note_on_c, 1, 62, 90
7, 528, Note_off_c, 1, 62, 64
7, 528, Note_on_c, 1, 66, 90
7, 576, Note_off_c, 1, 66, 64
7, 576, Note_on_c, 1, 64, 90
7, 624, Note_off_c, 1, 64, 64
7, 624, Note_on_c, 1, 67, 90
7, 672, Note_off_c, 1, 67, 64
7, 672, Note_on_c, 1, 64, 90
7, 720, Note_off_c, 1, 64, 64
7, 720, Note_on_c, 1, 67, 90
7, 768, Note_off_c, 1, 67, 64
7, 768, Note_on_c, 1, 64, 90
7, 816, Note_off_c, 1, 64, 64
7, 816, Note_on_c, 1, 67, 90
7, 864, Note_off_c, 1, 67, 64
7, 864, Note_on_c, 1, 66, 90
7, 912, Note_off_c, 1, 66, 64
7, 912, Note_on_c, 1, 69, 90
7, 960, Note_off_c, 1, 69, 64
7, 960, Note_on_c, 1, 66, 90
7, 1008, Note_off_c, 1, 66, 64
7, 1008, Note_on_c, 1, 69, 90
7, 1056, Note_off_c, 1, 69, 64
7, 1056, Note_on_c, 1, 66, 90
7, 1104, Note_off_c, 1, 66, 64
7, 1104, Note_on_c, 1, 69, 90
7, 1152, Note_off_c, 1, 69, 64
7, 1152, Note_on_c, 1, 67, 90
7, 1200, Note_off_c, 1, 67, 64
7, 1200, Note_on_c, 1, 69, 90
7, 1248, Note_off_c, 1, 69, 64
7, 1248, Note_on_c, 1, 67, 90
7, 1296, Note_off_c, 1, 67, 64
7, 1296, Note_on_c, 1, 69, 90
7, 1344, Note_off_c, 1, 69, 64
7, 1344, Note_on_c, 1, 67, 90
7, 1392, Note_off_c, 1, 67, 64
7, 1392, Note_on_c, 1, 69, 90
7, 1440, Note_off_c, 1, 69, 64
7, 1440, Note_on_c, 1, 66, 90
7, 1488, Note_off_c, 1, 66, 64
7, 1488, Note_on_c, 1, 69, 90
7, 1536, Note_off_c, 1, 69, 64
7, 1536, Note_on_c, 1, 66, 90
7, 1584, Note_off_c, 1, 66, 64
7, 1584, Note_on_c, 1, 69, 90
7, 1632, Note_off_c, 1, 69, 64
7, 1632, Note_on_c, 1, 66, 90
7, 1680, Note_off_c, 1, 66, 64
7, 1680, Note_on_c, 1, 69, 90
7, 1728, Note_off_c, 1, 69, 64
7, 1728, Note_on_c, 1, 66, 90
7, 1776, Note_off_c, 1, 66, 64
7, 1776, Note_on_c, 1, 69, 90
7, 1824, Note_off_c, 1, 69, 64
7, 1824, Note_on_c, 1, 66, 90
7, 1872, Note_off_c, 1, 66, 64
7, 1872, Note_on_c, 1, 69, 90
7, 1920, Note_off_c, 1, 69, 64
7, 1920, Note_on_c, 1, 66, 90
7, 1968, Note_off_c, 1, 66, 64
7, 1968, Note_on_c, 1, 69, 90
7, 2016, Note_off_c, 1, 69, 64
7, 2016, Note_on_c, 1, 79, 90
7, 2064, Note_off_c, 1, 79, 64
7, 2112, Note_on_c, 1, 81, 90
7, 2160, Note_off_c, 1, 81, 64
7, 2208, Note_on_c, 1, 83, 90
7, 2256, Note_off_c, 1, 83, 64
7, 2688, Note_on_c, 1, 67, 90
7, 2736, Note_off_c, 1, 67, 64
7, 2784, Note_on_c, 1, 67, 90
7, 2832, Note_off_c, 1, 67, 64
7, 2880, Note_on_c, 1, 67, 90
7, 2928, Note_off_c, 1, 67, 64
7, 3264, Note_on_c, 1, 66, 90
7, 3312, Note_off_c, 1, 66, 64
7, 3360, Note_on_c, 1, 66, 90
7, 3408, Note_off_c, 1, 66, 64
7, 3456, Note_on_c, 1, 66, 90
7, 3504, Note_off_c, 1, 66, 64
7, 3744, Note_on_c, 1, 67, 90
7, 4608, Note_off_c, 1, 67, 64
7, 4608, Note_on_c, 1, 71, 90
7, 4896, Note_off_c, 1, 71, 64
7, 4896, Note_on_c, 1, 69, 90
7, 5184, Note_off_c, 1, 69, 64
7, 5184, Note_on_c, 1, 67, 90
7, 5472, Note_off_c, 1, 67, 64
7, 6720, Note_on_c, 1, 66, 90
7, 6816, Note_off_c, 1, 66, 64
7, 6816, Note_on_c, 1, 66, 90
7, 6912, Note_off_c, 1, 66, 64
7, 7008, Note_on_c, 1, 66, 90
7, 7104, Note_off_c, 1, 66, 64
7, 7104, Note_on_c, 1, 66, 90
7, 7200, Note_off_c, 1, 66, 64
7, 7296, Note_on_c, 1, 66, 90
7, 7392, Note_off_c, 1, 66, 64
7, 7392, Note_on_c, 1, 66, 90
7, 7488, Note_off_c, 1, 66, 64
7, 7584, Note_on_c, 1, 66, 90
7, 7680, Note_off_c, 1, 66, 64
7, 7680, Note_on_c, 1, 66, 90
7, 7776, Note_off_c, 1, 66, 64
7, 7872, Note_on_c, 1, 67, 90
7, 7968, Note_off_c, 1, 67, 64
7, 7968, Note_on_c, 1, 67, 90
7, 8064, Note_off_c, 1, 67, 64
7, 8160, Note_on_c, 1, 67, 90
7, 8256, Note_off_c, 1, 67, 64
7, 8256, Note_on_c, 1, 67, 90
7, 8352, Note_off_c, 1, 67, 64
7, 8448, Note_on_c, 1, 67, 90
7, 8544, Note_off_c, 1, 67, 64
7, 8544, Note_on_c, 1, 67, 90
7, 8640, Note_off_c, 1, 67, 64
7, 8736, Note_on_c, 1, 67, 90
7, 8832, Note_off_c, 1, 67, 64
7, 8832, Note_on_c, 1, 67, 90
7, 8928, Note_off_c, 1, 67, 64
7, 9024, Note_on_c, 1, 67, 90
7, 9120, Note_off_c, 1, 67, 64
7, 9120, Note_on_c, 1, 67, 90
7, 9216, Note_off_c, 1, 67, 64
7, 9312, Note_on_c, 1, 67, 90
7, 9408, Note_off_c, 1, 67, 64
7, 9408, Note_on_c, 1, 67, 90
7, 9504, Note_off_c, 1, 67, 64
7, 9600, Note_on_c, 1, 67, 90
7, 9696, Note_off_c, 1, 67, 64
7, 9696, Note_on_c, 1, 67, 90
7, 9792, Note_off_c, 1, 67, 64
7, 9888, Note_on_c, 1, 67, 90
7, 9984, Note_off_c, 1, 67, 64
7, 9984, Note_on_c, 1, 67, 90
7, 10080, Note_off_c, 1, 67, 64
7, 10176, Note_on_c, 1, 66, 90
7, 10272, Note_off_c, 1, 66, 64
7, 10272, Note_on_c, 1, 66, 90
7, 10368, Note_off_c, 1, 66, 64
7, 10464, Note_on_c, 1, 66, 90
7, 10560, Note_off_c, 1, 66, 64
7, 10560, Note_on_c, 1, 66, 90
7, 10656, Note_off_c, 1, 66, 64
7, 10752, Note_on_c, 1, 66, 90
7, 10848, Note_off_c, 1, 66, 64
7, 10848, Note_on_c, 1, 66, 90
7, 10944, Note_off_c, 1, 66, 64
7, 11040, Note_on_c, 1, 66, 90
7, 11136, Note_off_c, 1, 66, 64
7, 11136, Note_on_c, 1, 66, 90
7, 11232, Note_off_c, 1, 66, 64
7, 11328, Note_on_c, 1, 66, 90
7, 11424, Note_off_c, 1, 66, 64
7, 11424, Note_on_c, 1, 66, 90
7, 11520, Note_off_c, 1, 66, 64
7, 11616, Note_on_c, 1, 66, 90
7, 11712, Note_off_c, 1, 66, 64
7, 11712, Note_on_c, 1, 66, 90
7, 11808, Note_off_c, 1, 66, 64
7, 11904, Note_on_c, 1, 66, 90
7, 12000, Note_off_c, 1, 66, 64
7, 12000, Note_on_c, 1, 66, 90
7, 12096, Note_off_c, 1, 66, 64
7, 12192, Note_on_c, 1, 66, 90
7, 12288, Note_off_c, 1, 66, 64
7, 12288, Note_on_c, 1, 66, 90
7, 12384, Note_off_c, 1, 66, 64
7, 12480, Note_on_c, 1, 64, 90
7, 12576, Note_off_c, 1, 64, 64
7, 12576, Note_on_c, 1, 64, 90
7, 12672, Note_off_c, 1, 64, 64
7, 12768, Note_on_c, 1, 64, 90
7, 12864, Note_off_c, 1, 64, 64
7, 12864, Note_on_c, 1, 64, 90
7, 12960, Note_off_c, 1, 64, 64
7, 12960, Note_on_c, 1, 64, 90
7, 13056, Note_off_c, 1, 64, 64
7, 13152, Note_on_c, 1, 64, 90
7, 13248, Note_off_c, 1, 64, 64
7, 13248, Note_on_c, 1, 64, 90
7, 13344, Note_off_c, 1, 64, 64
7, 13344, Note_on_c, 1, 67, 90
7, 13440, Note_off_c, 1, 67, 64
7, 13440, Note_on_c, 1, 71, 90
7, 13488, Note_off_c, 1, 71, 64
7, 13632, Note_on_c, 1, 67, 90
7, 13728, Note_off_c, 1, 67, 64
7, 13728, Note_on_c, 1, 67, 90
7, 13824, Note_off_c, 1, 67, 64
7, 13920, Note_on_c, 1, 67, 90
7, 14016, Note_off_c, 1, 67, 64
7, 14016, Note_on_c, 1, 67, 90
7, 14112, Note_off_c, 1, 67, 64
7, 14208, Note_on_c, 1, 66, 90
7, 14304, Note_off_c, 1, 66, 64
7, 14304, Note_on_c, 1, 66, 90
7, 14400, Note_off_c, 1, 66, 64
7, 14496, Note_on_c, 1, 66, 90
7, 14592, Note_off_c, 1, 66, 64
7, 14592, Note_on_c, 1, 66, 90
7, 14688, Note_off_c, 1, 66, 64
7, 14688, Note_on_c, 1, 64, 90
7, 14976, Note_off_c, 1, 64, 64
7, 14976, Note_on_c, 1, 67, 90
7, 15264, Note_off_c, 1, 67, 64
7, 15264, Note_on_c, 1, 66, 90
7, 15360, Note_off_c, 1, 66, 64
7, 15408, Note_on_c, 1, 66, 90
7, 15456, Note_off_c, 1, 66, 64
7, 15456, Note_on_c, 1, 66, 90
7, 15552, Note_off_c, 1, 66, 64
7, 15936, Note_on_c, 1, 64, 90
7, 16032, Note_off_c, 1, 64, 64
7, 16032, Note_on_c, 1, 64, 90
7, 16128, Note_off_c, 1, 64, 64
7, 16224, Note_on_c, 1, 64, 90
7, 16320, Note_off_c, 1, 64, 64
7, 16320, Note_on_c, 1, 64, 90
7, 16416, Note_off_c, 1, 64, 64
7, 16512, Note_on_c, 1, 64, 90
7, 16608, Note_off_c, 1, 64, 64
7, 16608, Note_on_c, 1, 64, 90
7, 16704, Note_off_c, 1, 64, 64
7, 16800, Note_on_c, 1, 64, 90
7, 16896, Note_off_c, 1, 64, 64
7, 16896, Note_on_c, 1, 64, 90
7, 16992, Note_off_c, 1, 64, 64
7, 17088, Note_on_c, 1, 64, 90
7, 17184, Note_off_c, 1, 64, 64
7, 17184, Note_on_c, 1, 64, 90
7, 17280, Note_off_c, 1, 64, 64
7, 17376, Note_on_c, 1, 64, 90
7, 17472, Note_off_c, 1, 64, 64
7, 17472, Note_on_c, 1, 64, 90
7, 17568, Note_off_c, 1, 64, 64
7, 17664, Note_on_c, 1, 64, 90
7, 17760, Note_off_c, 1, 64, 64
7, 17760, Note_on_c, 1, 64, 90
7, 17856, Note_off_c, 1, 64, 64
7, 17952, Note_on_c, 1, 66, 90
7, 18048, Note_off_c, 1, 66, 64
7, 18048, Note_on_c, 1, 64, 90
7, 18144, Note_off_c, 1, 64, 64
7, 18240, Note_on_c, 1, 64, 90
7, 18336, Note_off_c, 1, 64, 64
7, 18336, Note_on_c, 1, 64, 90
7, 18432, Note_off_c, 1, 64, 64
7, 18528, Note_on_c, 1, 64, 90
7, 18624, Note_off_c, 1, 64, 64
7, 18624, Note_on_c, 1, 64, 90
7, 18720, Note_off_c, 1, 64, 64
7, 18816, Note_on_c, 1, 64, 90
7, 18912, Note_off_c, 1, 64, 64
7, 18912, Note_on_c, 1, 64, 90
7, 19008, Note_off_c, 1, 64, 64
7, 19104, Note_on_c, 1, 64, 90
7, 19200, Note_off_c, 1, 64, 64
7, 19200, Note_on_c, 1, 62, 90
7, 19296, Note_off_c, 1, 62, 64
7, 19296, Note_on_c, 1, 61, 90
7, 19584, Note_off_c, 1, 61, 64
7, 19584, Note_on_c, 1, 62, 90
7, 19776, Note_off_c, 1, 62, 64
7, 19968, Note_on_c, 1, 64, 90
7, 20064, Note_off_c, 1, 64, 64
7, 20064, Note_on_c, 1, 64, 90
7, 20160, Note_off_c, 1, 64, 64
7, 20160, Note_on_c, 1, 64, 90
7, 20256, Note_off_c, 1, 64, 64
7, 20544, Note_on_c, 1, 64, 90
7, 20640, Note_off_c, 1, 64, 64
7, 20640, Note_on_c, 1, 64, 90
7, 20736, Note_off_c, 1, 64, 64
7, 20832, Note_on_c, 1, 64, 90
7, 20928, Note_off_c, 1, 64, 64
7, 20928, Note_on_c, 1, 64, 90
7, 21024, Note_off_c, 1, 64, 64
7, 21120, Note_on_c, 1, 64, 90
7, 21216, Note_off_c, 1, 64, 64
7, 21216, Note_on_c, 1, 64, 90
7, 21312, Note_off_c, 1, 64, 64
7, 21408, Note_on_c, 1, 64, 90
7, 21504, Note_off_c, 1, 64, 64
7, 21504, Note_on_c, 1, 64, 90
7, 21600, Note_off_c, 1, 64, 64
7, 21696, Note_on_c, 1, 64, 90
7, 21792, Note_off_c, 1, 64, 64
7, 21792, Note_on_c, 1, 64, 90
7, 21888, Note_off_c, 1, 64, 64
7, 21984, Note_on_c, 1, 64, 90
7, 22080, Note_off_c, 1, 64, 64
7, 22080, Note_on_c, 1, 64, 90
7, 22176, Note_off_c, 1, 64, 64
7, 22272, Note_on_c, 1, 64, 90
7, 22368, Note_off_c, 1, 64, 64
7, 22368, Note_on_c, 1, 64, 90
7, 22464, Note_off_c, 1, 64, 64
7, 22560, Note_on_c, 1, 66, 90
7, 22656, Note_off_c, 1, 66, 64
7, 22656, Note_on_c, 1, 64, 90
7, 22752, Note_off_c, 1, 64, 64
7, 22848, Note_on_c, 1, 64, 90
7, 22944, Note_off_c, 1, 64, 64
7, 22944, Note_on_c, 1, 64, 90
7, 23040, Note_off_c, 1, 64, 64
7, 23136, Note_on_c, 1, 64, 90
7, 23232, Note_off_c, 1, 64, 64
7, 23232, Note_on_c, 1, 64, 90
7, 23328, Note_off_c, 1, 64, 64
7, 23424, Note_on_c, 1, 64, 90
7, 23520, Note_off_c, 1, 64, 64
7, 23520, Note_on_c, 1, 64, 90
7, 23616, Note_off_c, 1, 64, 64
7, 23712, Note_on_c, 1, 64, 90
7, 23808, Note_off_c, 1, 64, 64
7, 23808, Note_on_c, 1, 62, 90
7, 23904, Note_off_c, 1, 62, 64
7, 23904, Note_on_c, 1, 61, 90
7, 24192, Note_off_c, 1, 61, 64
7, 24192, Note_on_c, 1, 62, 90
7, 24384, Note_off_c, 1, 62, 64
7, 24576, Note_on_c, 1, 64, 90
7, 24672, Note_off_c, 1, 64, 64
7, 24672, Note_on_c, 1, 64, 90
7, 24768, Note_off_c, 1, 64, 64
7, 24768, Note_on_c, 1, 64, 90
7, 24864, Note_off_c, 1, 64, 64
7, 25152, Note_on_c, 1, 57, 90
7, 25248, Note_off_c, 1, 57, 64
7, 25248, Note_on_c, 1, 57, 90
7, 25344, Note_off_c, 1, 57, 64
7, 25440, Note_on_c, 1, 57, 90
7, 25536, Note_off_c, 1, 57, 64
7, 25536, Note_on_c, 1, 57, 90
7, 25632, Note_off_c, 1, 57, 64
7, 25728, Note_on_c, 1, 57, 90
7, 25824, Note_off_c, 1, 57, 64
7, 25824, Note_on_c, 1, 57, 90
7, 25920, Note_off_c, 1, 57, 64
7, 26016, Note_on_c, 1, 57, 90
7, 26112, Note_off_c, 1, 57, 64
7, 26112, Note_on_c, 1, 57, 90
7, 26208, Note_off_c, 1, 57, 64
7, 26304, Note_on_c, 1, 57, 90
7, 26400, Note_off_c, 1, 57, 64
7, 26400, Note_on_c, 1, 57, 90
7, 26496, Note_off_c, 1, 57, 64
7, 26592, Note_on_c, 1, 57, 90
7, 26688, Note_off_c, 1, 57, 64
7, 26688, Note_on_c, 1, 57, 90
7, 26784, Note_off_c, 1, 57, 64
7, 26880, Note_on_c, 1, 57, 90
7, 26976, Note_off_c, 1, 57, 64
7, 26976, Note_on_c, 1, 57, 90
7, 27072, Note_off_c, 1, 57, 64
7, 27168, Note_on_c, 1, 57, 90
7, 27264, Note_off_c, 1, 57, 64
7, 27264, Note_on_c, 1, 57, 90
7, 27360, Note_off_c, 1, 57, 64
7, 27456, Note_on_c, 1, 57, 90
7, 27552, Note_off_c, 1, 57, 64
7, 27552, Note_on_c, 1, 57, 90
7, 27648, Note_off_c, 1, 57, 64
7, 27744, Note_on_c, 1, 57, 90
7, 27840, Note_off_c, 1, 57, 64
7, 27840, Note_on_c, 1, 57, 90
7, 27936, Note_off_c, 1, 57, 64
7, 28032, Note_on_c, 1, 57, 90
7, 28128, Note_off_c, 1, 57, 64
7, 28128, Note_on_c, 1, 57, 90
7, 28224, Note_off_c, 1, 57, 64
7, 28320, Note_on_c, 1, 57, 90
7, 28416, Note_off_c, 1, 57, 64
7, 28416, Note_on_c, 1, 57, 90
7, 28512, Note_off_c, 1, 57, 64
7, 29184, Note_on_c, 1, 57, 90
7, 29280, Note_off_c, 1, 57, 64
7, 29280, Note_on_c, 1, 57, 90
7, 29376, Note_off_c, 1, 57, 64
7, 29376, Note_on_c, 1, 57, 90
7, 29472, Note_off_c, 1, 57, 64
7, 29760, Note_on_c, 1, 57, 90
7, 29856, Note_off_c, 1, 57, 64
7, 29856, Note_on_c, 1, 57, 90
7, 29952, Note_off_c, 1, 57, 64
7, 30048, Note_on_c, 1, 57, 90
7, 30144, Note_off_c, 1, 57, 64
7, 30144, Note_on_c, 1, 57, 90
7, 30240, Note_off_c, 1, 57, 64
7, 30336, Note_on_c, 1, 57, 90
7, 30432, Note_off_c, 1, 57, 64
7, 30432, Note_on_c, 1, 57, 90
7, 30528, Note_off_c, 1, 57, 64
7, 30624, Note_on_c, 1, 57, 90
7, 30720, Note_off_c, 1, 57, 64
7, 30720, Note_on_c, 1, 57, 90
7, 30816, Note_off_c, 1, 57, 64
7, 30912, Note_on_c, 1, 57, 90
7, 31008, Note_off_c, 1, 57, 64
7, 31008, Note_on_c, 1, 57, 90
7, 31104, Note_off_c, 1, 57, 64
7, 31200, Note_on_c, 1, 57, 90
7, 31296, Note_off_c, 1, 57, 64
7, 31296, Note_on_c, 1, 57, 90
7, 31392, Note_off_c, 1, 57, 64
7, 31488, Note_on_c, 1, 57, 90
7, 31584, Note_off_c, 1, 57, 64
7, 31584, Note_on_c, 1, 57, 90
7, 31680, Note_off_c, 1, 57, 64
7, 31776, Note_on_c, 1, 57, 90
7, 31872, Note_off_c, 1, 57, 64
7, 31872, Note_on_c, 1, 57, 90
7, 31968, Note_off_c, 1, 57, 64
7, 32064, Note_on_c, 1, 57, 90
7, 32160, Note_off_c, 1, 57, 64
7, 32160, Note_on_c, 1, 57, 90
7, 32256, Note_off_c, 1, 57, 64
7, 32352, Note_on_c, 1, 57, 90
7, 32448, Note_off_c, 1, 57, 64
7, 32448, Note_on_c, 1, 57, 90
7, 32544, Note_off_c, 1, 57, 64
7, 32640, Note_on_c, 1, 57, 90
7, 32736, Note_off_c, 1, 57, 64
7, 32736, Note_on_c, 1, 57, 90
7, 32832, Note_off_c, 1, 57, 64
7, 32928, Note_on_c, 1, 57, 90
7, 33024, Note_off_c, 1, 57, 64
7, 33024, Note_on_c, 1, 57, 90
7, 33120, Note_off_c, 1, 57, 64
7, 33792, Note_on_c, 1, 57, 90
7, 33888, Note_off_c, 1, 57, 64
7, 33888, Note_on_c, 1, 57, 90
7, 33984, Note_off_c, 1, 57, 64
7, 33984, Note_on_c, 1, 57, 90
7, 34080, Note_off_c, 1, 57, 64
7, 34080, End_track
8, 0, Start_track
8, 0, MIDI_port, 0
8, 0, Title_t, "French Horn         "
8, 0, Program_c, 2, 17
8, 0, Note_on_c, 2, 49, 90
8, 96, Note_off_c, 2, 49, 64
8, 96, Note_on_c, 2, 45, 90
8, 192, Note_off_c, 2, 45, 64
8, 192, Note_on_c, 2, 49, 90
8, 288, Note_off_c, 2, 49, 64
8, 288, Note_on_c, 2, 50, 90
8, 384, Note_off_c, 2, 50, 64
8, 384, Note_on_c, 2, 45, 90
8, 480, Note_off_c, 2, 45, 64
8, 480, Note_on_c, 2, 50, 90
8, 576, Note_off_c, 2, 50, 64
8, 576, Note_on_c, 2, 52, 90
8, 672, Note_off_c, 2, 52, 64
8, 672, Note_on_c, 2, 45, 90
8, 768, Note_off_c, 2, 45, 64
8, 768, Note_on_c, 2, 52, 90
8, 864, Note_off_c, 2, 52, 64
8, 864, Note_on_c, 2, 50, 90
8, 960, Note_off_c, 2, 50, 64
8, 960, Note_on_c, 2, 45, 90
8, 1056, Note_off_c, 2, 45, 64
8, 1056, Note_on_c, 2, 50, 90
8, 1152, Note_off_c, 2, 50, 64
8, 1152, Note_on_c, 2, 61, 90
8, 1248, Note_off_c, 2, 61, 64
8, 1248, Note_on_c, 2, 57, 90
8, 1344, Note_off_c, 2, 57, 64
8, 1344, Note_on_c, 2, 61, 90
8, 1440, Note_off_c, 2, 61, 64
8, 1440, Note_on_c, 2, 62, 90
8, 1536, Note_off_c, 2, 62, 64
8, 1536, Note_on_c, 2, 57, 90
8, 1632, Note_off_c, 2, 57, 64
8, 1632, Note_on_c, 2, 62, 90
8, 1728, Note_off_c, 2, 62, 64
8, 1728, Note_on_c, 2, 63, 90
8, 1824, Note_off_c, 2, 63, 64
8, 1824, Note_on_c, 2, 57, 90
8, 1920, Note_off_c, 2, 57, 64
8, 1920, Note_on_c, 2, 63, 90
8, 2016, Note_off_c, 2, 63, 64
8, 2016, Note_on_c, 2, 64, 90
8, 2112, Note_off_c, 2, 64, 64
8, 2688, Note_on_c, 2, 57, 90
8, 2736, Note_off_c, 2, 57, 64
8, 2784, Note_on_c, 2, 57, 90
8, 2832, Note_off_c, 2, 57, 64
8, 2880, Note_on_c, 2, 57, 90
8, 2928, Note_off_c, 2, 57, 64
8, 3264, Note_on_c, 2, 57, 90
8, 3312, Note_off_c, 2, 57, 64
8, 3360, Note_on_c, 2, 57, 90
8, 3408, Note_off_c, 2, 57, 64
8, 3456, Note_on_c, 2, 57, 90
8, 3504, Note_off_c, 2, 57, 64
8, 3744, Note_on_c, 2, 57, 90
8, 5280, Note_off_c, 2, 57, 64
8, 5472, Note_on_c, 2, 57, 90
8, 5520, Note_off_c, 2, 57, 64
8, 5760, Note_on_c, 2, 55, 90
8, 5808, Note_off_c, 2, 55, 64
8, 6048, Note_on_c, 2, 52, 90
8, 6096, Note_off_c, 2, 52, 64
8, 6336, Note_on_c, 2, 50, 90
8, 6432, Note_off_c, 2, 50, 64
8, 6432, Note_on_c, 2, 54, 90
8, 6528, Note_off_c, 2, 54, 64
8, 6528, Note_on_c, 2, 57, 90
8, 6624, Note_off_c, 2, 57, 64
8, 6624, Note_on_c, 2, 57, 90
8, 7296, Note_off_c, 2, 57, 64
8, 7392, Note_on_c, 2, 50, 90
8, 7488, Note_off_c, 2, 50, 64
8, 7488, Note_on_c, 2, 50, 90
8, 7584, Note_off_c, 2, 50, 64
8, 7584, Note_on_c, 2, 54, 90
8, 7680, Note_off_c, 2, 54, 64
8, 7680, Note_on_c, 2, 57, 90
8, 7776, Note_off_c, 2, 57, 64
8, 7776, Note_on_c, 2, 57, 90
8, 8448, Note_off_c, 2, 57, 64
8, 8544, Note_on_c, 2, 49, 90
8, 8640, Note_off_c, 2, 49, 64
8, 8640, Note_on_c, 2, 49, 90
8, 8736, Note_off_c, 2, 49, 64
8, 8736, Note_on_c, 2, 52, 90
8, 8832, Note_off_c, 2, 52, 64
8, 8832, Note_on_c, 2, 59, 90
8, 8928, Note_off_c, 2, 59, 64
8, 8928, Note_on_c, 2, 59, 90
8, 9600, Note_off_c, 2, 59, 64
8, 9696, Note_on_c, 2, 49, 90
8, 9792, Note_off_c, 2, 49, 64
8, 9792, Note_on_c, 2, 49, 90
8, 9888, Note_off_c, 2, 49, 64
8, 9888, Note_on_c, 2, 52, 90
8, 9984, Note_off_c, 2, 52, 64
8, 9984, Note_on_c, 2, 59, 90
8, 10080, Note_off_c, 2, 59, 64
8, 10080, Note_on_c, 2, 59, 90
8, 10656, Note_off_c, 2, 59, 64
8, 10656, Note_on_c, 2, 57, 90
8, 10752, Note_off_c, 2, 57, 64
8, 10848, Note_on_c, 2, 50, 90
8, 10944, Note_off_c, 2, 50, 64
8, 10944, Note_on_c, 2, 50, 90
8, 11040, Note_off_c, 2, 50, 64
8, 11040, Note_on_c, 2, 54, 90
8, 11136, Note_off_c, 2, 54, 64
8, 11136, Note_on_c, 2, 57, 90
8, 11232, Note_off_c, 2, 57, 64
8, 11232, Note_on_c, 2, 62, 90
8, 11904, Note_off_c, 2, 62, 64
8, 12000, Note_on_c, 2, 50, 90
8, 12096, Note_off_c, 2, 50, 64
8, 12096, Note_on_c, 2, 50, 90
8, 12192, Note_off_c, 2, 50, 64
8, 12192, Note_on_c, 2, 54, 90
8, 12288, Note_off_c, 2, 54, 64
8, 12288, Note_on_c, 2, 57, 90
8, 12384, Note_off_c, 2, 57, 64
8, 12384, Note_on_c, 2, 62, 90
8, 13056, Note_off_c, 2, 62, 64
8, 13536, Note_on_c, 2, 59, 90
8, 13920, Note_off_c, 2, 59, 64
8, 13920, Note_on_c, 2, 56, 90
8, 14016, Note_off_c, 2, 56, 64
8, 14016, Note_on_c, 2, 57, 90
8, 14112, Note_off_c, 2, 57, 64
8, 14112, Note_on_c, 2, 66, 90
8, 14496, Note_off_c, 2, 66, 64
8, 14496, Note_on_c, 2, 62, 90
8, 14592, Note_off_c, 2, 62, 64
8, 14592, Note_on_c, 2, 54, 90
8, 14688, Note_off_c, 2, 54, 64
8, 14688, Note_on_c, 2, 55, 90
8, 14976, Note_off_c, 2, 55, 64
8, 14976, Note_on_c, 2, 57, 90
8, 15264, Note_off_c, 2, 57, 64
8, 15264, Note_on_c, 2, 57, 90
8, 15360, Note_off_c, 2, 57, 64
8, 15408, Note_on_c, 2, 57, 90
8, 15456, Note_off_c, 2, 57, 64
8, 15456, Note_on_c, 2, 57, 90
8, 15552, Note_off_c, 2, 57, 64
8, 15648, Note_on_c, 2, 86, 90
8, 15696, Note_off_c, 2, 86, 64
8, 15744, Note_on_c, 2, 85, 90
8, 15792, Note_off_c, 2, 85, 64
8, 15840, Note_on_c, 2, 85, 90
8, 15888, Note_off_c, 2, 85, 64
8, 15936, Note_on_c, 2, 83, 90
8, 15984, Note_off_c, 2, 83, 64
8, 16032, Note_on_c, 2, 83, 90
8, 16080, Note_off_c, 2, 83, 64
8, 16224, Note_on_c, 2, 83, 90
8, 16272, Note_off_c, 2, 83, 64
8, 16320, Note_on_c, 2, 82, 90
8, 16368, Note_off_c, 2, 82, 64
8, 16416, Note_on_c, 2, 82, 90
8, 16464, Note_off_c, 2, 82, 64
8, 16512, Note_on_c, 2, 83, 90
8, 16560, Note_off_c, 2, 83, 64
8, 16608, Note_on_c, 2, 83, 90
8, 16656, Note_off_c, 2, 83, 64
8, 16800, Note_on_c, 2, 76, 90
8, 16848, Note_off_c, 2, 76, 64
8, 16896, Note_on_c, 2, 76, 90
8, 16944, Note_off_c, 2, 76, 64
8, 16992, Note_on_c, 2, 78, 90
8, 17184, Note_off_c, 2, 78, 64
8, 17184, Note_on_c, 2, 76, 90
8, 17280, Note_off_c, 2, 76, 64
8, 17376, Note_on_c, 2, 76, 90
8, 17424, Note_off_c, 2, 76, 64
8, 17472, Note_on_c, 2, 76, 90
8, 17520, Note_off_c, 2, 76, 64
8, 17568, Note_on_c, 2, 83, 90
8, 17760, Note_off_c, 2, 83, 64
8, 17760, Note_on_c, 2, 81, 90
8, 17856, Note_off_c, 2, 81, 64
8, 17952, Note_on_c, 2, 86, 90
8, 18000, Note_off_c, 2, 86, 64
8, 18048, Note_on_c, 2, 85, 90
8, 18096, Note_off_c, 2, 85, 64
8, 18144, Note_on_c, 2, 85, 90
8, 18192, Note_off_c, 2, 85, 64
8, 18240, Note_on_c, 2, 83, 90
8, 18288, Note_off_c, 2, 83, 64
8, 18336, Note_on_c, 2, 83, 90
8, 18384, Note_off_c, 2, 83, 64
8, 18528, Note_on_c, 2, 83, 90
8, 18576, Note_off_c, 2, 83, 64
8, 18624, Note_on_c, 2, 85, 90
8, 18672, Note_off_c, 2, 85, 64
8, 18720, Note_on_c, 2, 88, 90
8, 18768, Note_off_c, 2, 88, 64
8, 18816, Note_on_c, 2, 86, 90
8, 18864, Note_off_c, 2, 86, 64
8, 18912, Note_on_c, 2, 86, 90
8, 18960, Note_off_c, 2, 86, 64
8, 19104, Note_on_c, 2, 80, 90
8, 19152, Note_off_c, 2, 80, 64
8, 19200, Note_on_c, 2, 83, 90
8, 19248, Note_off_c, 2, 83, 64
8, 19296, Note_on_c, 2, 83, 90
8, 19488, Note_off_c, 2, 83, 64
8, 19488, Note_on_c, 2, 81, 90
8, 19584, Note_off_c, 2, 81, 64
8, 19584, Note_on_c, 2, 80, 90
8, 19728, Note_off_c, 2, 80, 64
8, 19728, Note_on_c, 2, 78, 90
8, 19776, Note_off_c, 2, 78, 64
8, 19776, Note_on_c, 2, 74, 90
8, 19824, Note_off_c, 2, 74, 64
8, 19824, Note_on_c, 2, 71, 90
8, 19872, Note_off_c, 2, 71, 64
8, 19872, Note_on_c, 2, 78, 90
8, 19920, Note_off_c, 2, 78, 64
8, 19920, Note_on_c, 2, 78, 90
8, 19968, Note_off_c, 2, 78, 64
8, 19968, Note_on_c, 2, 78, 90
8, 20064, Note_off_c, 2, 78, 64
8, 20064, Note_on_c, 2, 76, 90
8, 20160, Note_off_c, 2, 76, 64
8, 20160, Note_on_c, 2, 69, 90
8, 20256, Note_off_c, 2, 69, 64
8, 20544, Note_on_c, 2, 68, 90
8, 20640, Note_off_c, 2, 68, 64
8, 20640, Note_on_c, 2, 68, 90
8, 20736, Note_off_c, 2, 68, 64
8, 20832, Note_on_c, 2, 68, 90
8, 20928, Note_off_c, 2, 68, 64
8, 20928, Note_on_c, 2, 67, 90
8, 21024, Note_off_c, 2, 67, 64
8, 21120, Note_on_c, 2, 68, 90
8, 21216, Note_off_c, 2, 68, 64
8, 21216, Note_on_c, 2, 68, 90
8, 21312, Note_off_c, 2, 68, 64
8, 21408, Note_on_c, 2, 76, 90
8, 21456, Note_off_c, 2, 76, 64
8, 21504, Note_on_c, 2, 76, 90
8, 21552, Note_off_c, 2, 76, 64
8, 21600, Note_on_c, 2, 78, 90
8, 21792, Note_off_c, 2, 78, 64
8, 21792, Note_on_c, 2, 76, 90
8, 21888, Note_off_c, 2, 76, 64
8, 21984, Note_on_c, 2, 76, 90
8, 22032, Note_off_c, 2, 76, 64
8, 22080, Note_on_c, 2, 76, 90
8, 22128, Note_off_c, 2, 76, 64
8, 22176, Note_on_c, 2, 83, 90
8, 22368, Note_off_c, 2, 83, 64
8, 22368, Note_on_c, 2, 81, 90
8, 22464, Note_off_c, 2, 81, 64
8, 22848, Note_on_c, 2, 68, 90
8, 22944, Note_off_c, 2, 68, 64
8, 22944, Note_on_c, 2, 68, 90
8, 23040, Note_off_c, 2, 68, 64
8, 23136, Note_on_c, 2, 68, 90
8, 23232, Note_off_c, 2, 68, 64
8, 23232, Note_on_c, 2, 67, 90
8, 23328, Note_off_c, 2, 67, 64
8, 23424, Note_on_c, 2, 68, 90
8, 23520, Note_off_c, 2, 68, 64
8, 23520, Note_on_c, 2, 68, 90
8, 23616, Note_off_c, 2, 68, 64
8, 23712, Note_on_c, 2, 80, 90
8, 23760, Note_off_c, 2, 80, 64
8, 23808, Note_on_c, 2, 83, 90
8, 23856, Note_off_c, 2, 83, 64
8, 23904, Note_on_c, 2, 83, 90
8, 24096, Note_off_c, 2, 83, 64
8, 24096, Note_on_c, 2, 81, 90
8, 24192, Note_off_c, 2, 81, 64
8, 24192, Note_on_c, 2, 80, 90
8, 24336, Note_off_c, 2, 80, 64
8, 24336, Note_on_c, 2, 78, 90
8, 24384, Note_off_c, 2, 78, 64
8, 24384, Note_on_c, 2, 74, 90
8, 24432, Note_off_c, 2, 74, 64
8, 24432, Note_on_c, 2, 71, 90
8, 24480, Note_off_c, 2, 71, 64
8, 24480, Note_on_c, 2, 78, 90
8, 24528, Note_off_c, 2, 78, 64
8, 24528, Note_on_c, 2, 78, 90
8, 24576, Note_off_c, 2, 78, 64
8, 24576, Note_on_c, 2, 78, 90
8, 24672, Note_off_c, 2, 78, 64
8, 24672, Note_on_c, 2, 76, 90
8, 24768, Note_off_c, 2, 76, 64
8, 24768, Note_on_c, 2, 69, 90
8, 24864, Note_off_c, 2, 69, 64
8, 25056, Note_on_c, 2, 67, 90
8, 25104, Note_off_c, 2, 67, 64
8, 25104, Note_on_c, 2, 69, 90
8, 25152, Note_off_c, 2, 69, 64
8, 25152, Note_on_c, 2, 81, 90
8, 25200, Note_off_c, 2, 81, 64
8, 25200, Note_on_c, 2, 69, 90
8, 25248, Note_off_c, 2, 69, 64
8, 25248, Note_on_c, 2, 81, 90
8, 25296, Note_off_c, 2, 81, 64
8, 25296, Note_on_c, 2, 69, 90
8, 25344, Note_off_c, 2, 69, 64
8, 25344, Note_on_c, 2, 67, 90
8, 25392, Note_off_c, 2, 67, 64
8, 25392, Note_on_c, 2, 69, 90
8, 25440, Note_off_c, 2, 69, 64
8, 25440, Note_on_c, 2, 81, 90
8, 25488, Note_off_c, 2, 81, 64
8, 25488, Note_on_c, 2, 69, 90
8, 25536, Note_off_c, 2, 69, 64
8, 25536, Note_on_c, 2, 81, 90
8, 25584, Note_off_c, 2, 81, 64
8, 25584, Note_on_c, 2, 69, 90
8, 25632, Note_off_c, 2, 69, 64
8, 25632, Note_on_c, 2, 67, 90
8, 25680, Note_off_c, 2, 67, 64
8, 25680, Note_on_c, 2, 69, 90
8, 25728, Note_off_c, 2, 69, 64
8, 25728, Note_on_c, 2, 81, 90
8, 25776, Note_off_c, 2, 81, 64
8, 25776, Note_on_c, 2, 69, 90
8, 25824, Note_off_c, 2, 69, 64
8, 25824, Note_on_c, 2, 81, 90
8, 25872, Note_off_c, 2, 81, 64
8, 25872, Note_on_c, 2, 69, 90
8, 25920, Note_off_c, 2, 69, 64
8, 25920, Note_on_c, 2, 67, 90
8, 25968, Note_off_c, 2, 67, 64
8, 25968, Note_on_c, 2, 69, 90
8, 26016, Note_off_c, 2, 69, 64
8, 26016, Note_on_c, 2, 81, 90
8, 26064, Note_off_c, 2, 81, 64
8, 26064, Note_on_c, 2, 69, 90
8, 26112, Note_off_c, 2, 69, 64
8, 26112, Note_on_c, 2, 81, 90
8, 26160, Note_off_c, 2, 81, 64
8, 26160, Note_on_c, 2, 69, 90
8, 26208, Note_off_c, 2, 69, 64
8, 26208, Note_on_c, 2, 66, 90
8, 26256, Note_off_c, 2, 66, 64
8, 26256, Note_on_c, 2, 69, 90
8, 26304, Note_off_c, 2, 69, 64
8, 26304, Note_on_c, 2, 81, 90
8, 26352, Note_off_c, 2, 81, 64
8, 26352, Note_on_c, 2, 69, 90
8, 26400, Note_off_c, 2, 69, 64
8, 26400, Note_on_c, 2, 81, 90
8, 26448, Note_off_c, 2, 81, 64
8, 26448, Note_on_c, 2, 69, 90
8, 26496, Note_off_c, 2, 69, 64
8, 26496, Note_on_c, 2, 66, 90
8, 26544, Note_off_c, 2, 66, 64
8, 26544, Note_on_c, 2, 69, 90
8, 26592, Note_off_c, 2, 69, 64
8, 26592, Note_on_c, 2, 81, 90
8, 26640, Note_off_c, 2, 81, 64
8, 26640, Note_on_c, 2, 69, 90
8, 26688, Note_off_c, 2, 69, 64
8, 26688, Note_on_c, 2, 81, 90
8, 26736, Note_off_c, 2, 81, 64
8, 26736, Note_on_c, 2, 69, 90
8, 26784, Note_off_c, 2, 69, 64
8, 26784, Note_on_c, 2, 66, 90
8, 26832, Note_off_c, 2, 66, 64
8, 26832, Note_on_c, 2, 69, 90
8, 26880, Note_off_c, 2, 69, 64
8, 26880, Note_on_c, 2, 81, 90
8, 26928, Note_off_c, 2, 81, 64
8, 26928, Note_on_c, 2, 69, 90
8, 26976, Note_off_c, 2, 69, 64
8, 26976, Note_on_c, 2, 81, 90
8, 27024, Note_off_c, 2, 81, 64
8, 27024, Note_on_c, 2, 69, 90
8, 27072, Note_off_c, 2, 69, 64
8, 27072, Note_on_c, 2, 66, 90
8, 27120, Note_off_c, 2, 66, 64
8, 27120, Note_on_c, 2, 69, 90
8, 27168, Note_off_c, 2, 69, 64
8, 27168, Note_on_c, 2, 81, 90
8, 27216, Note_off_c, 2, 81, 64
8, 27216, Note_on_c, 2, 69, 90
8, 27264, Note_off_c, 2, 69, 64
8, 27264, Note_on_c, 2, 81, 90
8, 27312, Note_off_c, 2, 81, 64
8, 27312, Note_on_c, 2, 69, 90
8, 27360, Note_off_c, 2, 69, 64
8, 27360, Note_on_c, 2, 67, 90
8, 27408, Note_off_c, 2, 67, 64
8, 27408, Note_on_c, 2, 69, 90
8, 27456, Note_off_c, 2, 69, 64
8, 27456, Note_on_c, 2, 81, 90
8, 27504, Note_off_c, 2, 81, 64
8, 27504, Note_on_c, 2, 69, 90
8, 27552, Note_off_c, 2, 69, 64
8, 27552, Note_on_c, 2, 81, 90
8, 27600, Note_off_c, 2, 81, 64
8, 27600, Note_on_c, 2, 69, 90
8, 27648, Note_off_c, 2, 69, 64
8, 27648, Note_on_c, 2, 67, 90
8, 27696, Note_off_c, 2, 67, 64
8, 27696, Note_on_c, 2, 69, 90
8, 27744, Note_off_c, 2, 69, 64
8, 27744, Note_on_c, 2, 81, 90
8, 27792, Note_off_c, 2, 81, 64
8, 27792, Note_on_c, 2, 69, 90
8, 27840, Note_off_c, 2, 69, 64
8, 27840, Note_on_c, 2, 81, 90
8, 27888, Note_off_c, 2, 81, 64
8, 27888, Note_on_c, 2, 69, 90
8, 27936, Note_off_c, 2, 69, 64
8, 27936, Note_on_c, 2, 67, 90
8, 27984, Note_off_c, 2, 67, 64
8, 27984, Note_on_c, 2, 69, 90
8, 28032, Note_off_c, 2, 69, 64
8, 28032, Note_on_c, 2, 81, 90
8, 28080, Note_off_c, 2, 81, 64
8, 28080, Note_on_c, 2, 69, 90
8, 28128, Note_off_c, 2, 69, 64
8, 28128, Note_on_c, 2, 81, 90
8, 28176, Note_off_c, 2, 81, 64
8, 28176, Note_on_c, 2, 69, 90
8, 28224, Note_off_c, 2, 69, 64
8, 28224, Note_on_c, 2, 67, 90
8, 28272, Note_off_c, 2, 67, 64
8, 28272, Note_on_c, 2, 69, 90
8, 28320, Note_off_c, 2, 69, 64
8, 28320, Note_on_c, 2, 81, 90
8, 28368, Note_off_c, 2, 81, 64
8, 28368, Note_on_c, 2, 69, 90
8, 28416, Note_off_c, 2, 69, 64
8, 28416, Note_on_c, 2, 81, 90
8, 28464, Note_off_c, 2, 81, 64
8, 28464, Note_on_c, 2, 69, 90
8, 28512, Note_off_c, 2, 69, 64
8, 28512, Note_on_c, 2, 74, 90
8, 28608, Note_off_c, 2, 74, 64
8, 28608, Note_on_c, 2, 76, 90
8, 28704, Note_off_c, 2, 76, 64
8, 28704, Note_on_c, 2, 78, 90
8, 28800, Note_off_c, 2, 78, 64
8, 28800, Note_on_c, 2, 81, 90
8, 28992, Note_off_c, 2, 81, 64
8, 28992, Note_on_c, 2, 79, 90
8, 29088, Note_off_c, 2, 79, 64
8, 29088, Note_on_c, 2, 78, 90
8, 29136, Note_off_c, 2, 78, 64
8, 29136, Note_on_c, 2, 78, 90
8, 29184, Note_off_c, 2, 78, 64
8, 29184, Note_on_c, 2, 78, 90
8, 29280, Note_off_c, 2, 78, 64
8, 29280, Note_on_c, 2, 76, 90
8, 29304, Note_off_c, 2, 76, 64
8, 29304, Note_on_c, 2, 69, 90
8, 29328, Note_off_c, 2, 69, 64
8, 29376, Note_on_c, 2, 74, 90
8, 29472, Note_off_c, 2, 74, 64
8, 29664, Note_on_c, 2, 67, 90
8, 29712, Note_off_c, 2, 67, 64
8, 29712, Note_on_c, 2, 69, 90
8, 29760, Note_off_c, 2, 69, 64
8, 29760, Note_on_c, 2, 81, 90
8, 29808, Note_off_c, 2, 81, 64
8, 29808, Note_on_c, 2, 69, 90
8, 29856, Note_off_c, 2, 69, 64
8, 29856, Note_on_c, 2, 81, 90
8, 29904, Note_off_c, 2, 81, 64
8, 29904, Note_on_c, 2, 69, 90
8, 29952, Note_off_c, 2, 69, 64
8, 29952, Note_on_c, 2, 67, 90
8, 30000, Note_off_c, 2, 67, 64
8, 30000, Note_on_c, 2, 69, 90
8, 30048, Note_off_c, 2, 69, 64
8, 30048, Note_on_c, 2, 81, 90
8, 30096, Note_off_c, 2, 81, 64
8, 30096, Note_on_c, 2, 69, 90
8, 30144, Note_off_c, 2, 69, 64
8, 30144, Note_on_c, 2, 81, 90
8, 30192, Note_off_c, 2, 81, 64
8, 30192, Note_on_c, 2, 69, 90
8, 30240, Note_off_c, 2, 69, 64
8, 30240, Note_on_c, 2, 67, 90
8, 30288, Note_off_c, 2, 67, 64
8, 30288, Note_on_c, 2, 69, 90
8, 30336, Note_off_c, 2, 69, 64
8, 30336, Note_on_c, 2, 81, 90
8, 30384, Note_off_c, 2, 81, 64
8, 30384, Note_on_c, 2, 69, 90
8, 30432, Note_off_c, 2, 69, 64
8, 30432, Note_on_c, 2, 81, 90
8, 30480, Note_off_c, 2, 81, 64
8, 30480, Note_on_c, 2, 69, 90
8, 30528, Note_off_c, 2, 69, 64
8, 30528, Note_on_c, 2, 67, 90
8, 30576, Note_off_c, 2, 67, 64
8, 30576, Note_on_c, 2, 69, 90
8, 30624, Note_off_c, 2, 69, 64
8, 30624, Note_on_c, 2, 81, 90
8, 30672, Note_off_c, 2, 81, 64
8, 30672, Note_on_c, 2, 69, 90
8, 30720, Note_off_c, 2, 69, 64
8, 30720, Note_on_c, 2, 81, 90
8, 30768, Note_off_c, 2, 81, 64
8, 30768, Note_on_c, 2, 69, 90
8, 30816, Note_off_c, 2, 69, 64
8, 30816, Note_on_c, 2, 66, 90
8, 30864, Note_off_c, 2, 66, 64
8, 30864, Note_on_c, 2, 69, 90
8, 30912, Note_off_c, 2, 69, 64
8, 30912, Note_on_c, 2, 81, 90
8, 30960, Note_off_c, 2, 81, 64
8, 30960, Note_on_c, 2, 69, 90
8, 31008, Note_off_c, 2, 69, 64
8, 31008, Note_on_c, 2, 81, 90
8, 31056, Note_off_c, 2, 81, 64
8, 31056, Note_on_c, 2, 69, 90
8, 31104, Note_off_c, 2, 69, 64
8, 31104, Note_on_c, 2, 66, 90
8, 31152, Note_off_c, 2, 66, 64
8, 31152, Note_on_c, 2, 69, 90
8, 31200, Note_off_c, 2, 69, 64
8, 31200, Note_on_c, 2, 81, 90
8, 31248, Note_off_c, 2, 81, 64
8, 31248, Note_on_c, 2, 69, 90
8, 31296, Note_off_c, 2, 69, 64
8, 31296, Note_on_c, 2, 81, 90
8, 31344, Note_off_c, 2, 81, 64
8, 31344, Note_on_c, 2, 69, 90
8, 31392, Note_off_c, 2, 69, 64
8, 31392, Note_on_c, 2, 66, 90
8, 31440, Note_off_c, 2, 66, 64
8, 31440, Note_on_c, 2, 69, 90
8, 31488, Note_off_c, 2, 69, 64
8, 31488, Note_on_c, 2, 81, 90
8, 31536, Note_off_c, 2, 81, 64
8, 31536, Note_on_c, 2, 69, 90
8, 31584, Note_off_c, 2, 69, 64
8, 31584, Note_on_c, 2, 81, 90
8, 31632, Note_off_c, 2, 81, 64
8, 31632, Note_on_c, 2, 69, 90
8, 31680, Note_off_c, 2, 69, 64
8, 31680, Note_on_c, 2, 66, 90
8, 31728, Note_off_c, 2, 66, 64
8, 31728, Note_on_c, 2, 69, 90
8, 31776, Note_off_c, 2, 69, 64
8, 31776, Note_on_c, 2, 81, 90
8, 31824, Note_off_c, 2, 81, 64
8, 31824, Note_on_c, 2, 69, 90
8, 31872, Note_off_c, 2, 69, 64
8, 31872, Note_on_c, 2, 81, 90
8, 31920, Note_off_c, 2, 81, 64
8, 31920, Note_on_c, 2, 69, 90
8, 31968, Note_off_c, 2, 69, 64
8, 31968, Note_on_c, 2, 67, 90
8, 32016, Note_off_c, 2, 67, 64
8, 32016, Note_on_c, 2, 69, 90
8, 32064, Note_off_c, 2, 69, 64
8, 32064, Note_on_c, 2, 81, 90
8, 32112, Note_off_c, 2, 81, 64
8, 32112, Note_on_c, 2, 69, 90
8, 32160, Note_off_c, 2, 69, 64
8, 32160, Note_on_c, 2, 81, 90
8, 32208, Note_off_c, 2, 81, 64
8, 32208, Note_on_c, 2, 69, 90
8, 32256, Note_off_c, 2, 69, 64
8, 32256, Note_on_c, 2, 67, 90
8, 32304, Note_off_c, 2, 67, 64
8, 32304, Note_on_c, 2, 69, 90
8, 32352, Note_off_c, 2, 69, 64
8, 32352, Note_on_c, 2, 81, 90
8, 32400, Note_off_c, 2, 81, 64
8, 32400, Note_on_c, 2, 69, 90
8, 32448, Note_off_c, 2, 69, 64
8, 32448, Note_on_c, 2, 81, 90
8, 32496, Note_off_c, 2, 81, 64
8, 32496, Note_on_c, 2, 69, 90
8, 32544, Note_off_c, 2, 69, 64
8, 32544, Note_on_c, 2, 67, 90
8, 32592, Note_off_c, 2, 67, 64
8, 32592, Note_on_c, 2, 69, 90
8, 32640, Note_off_c, 2, 69, 64
8, 32640, Note_on_c, 2, 81, 90
8, 32688, Note_off_c, 2, 81, 64
8, 32688, Note_on_c, 2, 69, 90
8, 32736, Note_off_c, 2, 69, 64
8, 32736, Note_on_c, 2, 81, 90
8, 32784, Note_off_c, 2, 81, 64
8, 32784, Note_on_c, 2, 69, 90
8, 32832, Note_off_c, 2, 69, 64
8, 32832, Note_on_c, 2, 67, 90
8, 32880, Note_off_c, 2, 67, 64
8, 32880, Note_on_c, 2, 69, 90
8, 32928, Note_off_c, 2, 69, 64
8, 32928, Note_on_c, 2, 81, 90
8, 32976, Note_off_c, 2, 81, 64
8, 32976, Note_on_c, 2, 69, 90
8, 33024, Note_off_c, 2, 69, 64
8, 33024, Note_on_c, 2, 81, 90
8, 33072, Note_off_c, 2, 81, 64
8, 33072, Note_on_c, 2, 69, 90
8, 33120, Note_off_c, 2, 69, 64
8, 33120, Note_on_c, 2, 74, 90
8, 33216, Note_off_c, 2, 74, 64
8, 33216, Note_on_c, 2, 76, 90
8, 33312, Note_off_c, 2, 76, 64
8, 33312, Note_on_c, 2, 78, 90
8, 33408, Note_off_c, 2, 78, 64
8, 33408, Note_on_c, 2, 81, 90
8, 33600, Note_off_c, 2, 81, 64
8, 33600, Note_on_c, 2, 79, 90
8, 33696, Note_off_c, 2, 79, 64
8, 33696, Note_on_c, 2, 78, 90
8, 33744, Note_off_c, 2, 78, 64
8, 33744, Note_on_c, 2, 78, 90
8, 33792, Note_off_c, 2, 78, 64
8, 33792, Note_on_c, 2, 78, 90
8, 33888, Note_off_c, 2, 78, 64
8, 33888, Note_on_c, 2, 76, 90
8, 33912, Note_off_c, 2, 76, 64
8, 33912, Note_on_c, 2, 69, 90
8, 33936, Note_off_c, 2, 69, 64
8, 33984, Note_on_c, 2, 74, 90
8, 34080, Note_off_c, 2, 74, 64
8, 34080, End_track
9, 0, Start_track
9, 0, MIDI_port, 0
9, 0, Title_t, "1st Piano           "
9, 0, Program_c, 3, 103
9, 0, Note_on_c, 3, 57, 90
9, 72, Note_off_c, 3, 57, 64
9, 288, Note_on_c, 3, 57, 90
9, 360, Note_off_c, 3, 57, 64
9, 576, Note_on_c, 3, 57, 90
9, 648, Note_off_c, 3, 57, 64
9, 864, Note_on_c, 3, 57, 90
9, 936, Note_off_c, 3, 57, 64
9, 1152, Note_on_c, 3, 57, 90
9, 1224, Note_off_c, 3, 57, 64
9, 1440, Note_on_c, 3, 57, 90
9, 1512, Note_off_c, 3, 57, 64
9, 1728, Note_on_c, 3, 57, 90
9, 1800, Note_off_c, 3, 57, 64
9, 2016, Note_on_c, 3, 57, 90
9, 2112, Note_off_c, 3, 57, 64
9, 2688, Note_on_c, 3, 69, 90
9, 2736, Note_off_c, 3, 69, 64
9, 2784, Note_on_c, 3, 69, 90
9, 2832, Note_off_c, 3, 69, 64
9, 2880, Note_on_c, 3, 69, 90
9, 2928, Note_off_c, 3, 69, 64
9, 3264, Note_on_c, 3, 69, 90
9, 3312, Note_off_c, 3, 69, 64
9, 3360, Note_on_c, 3, 69, 90
9, 3408, Note_off_c, 3, 69, 64
9, 3456, Note_on_c, 3, 69, 90
9, 3504, Note_off_c, 3, 69, 64
9, 3744, Note_on_c, 3, 57, 90
9, 4032, Note_off_c, 3, 57, 64
9, 5472, Note_on_c, 3, 81, 90
9, 5520, Note_off_c, 3, 81, 64
9, 5760, Note_on_c, 3, 79, 90
9, 5808, Note_off_c, 3, 79, 64
9, 6048, Note_on_c, 3, 76, 90
9, 6096, Note_off_c, 3, 76, 64
9, 6624, Note_on_c, 3, 62, 90
9, 6720, Note_off_c, 3, 62, 64
9, 6912, Note_on_c, 3, 62, 90
9, 7008, Note_off_c, 3, 62, 64
9, 7200, Note_on_c, 3, 62, 90
9, 7296, Note_off_c, 3, 62, 64
9, 7488, Note_on_c, 3, 62, 90
9, 7584, Note_off_c, 3, 62, 64
9, 7776, Note_on_c, 3, 64, 90
9, 7872, Note_off_c, 3, 64, 64
9, 8064, Note_on_c, 3, 64, 90
9, 8160, Note_off_c, 3, 64, 64
9, 8352, Note_on_c, 3, 64, 90
9, 8448, Note_off_c, 3, 64, 64
9, 8640, Note_on_c, 3, 64, 90
9, 8736, Note_off_c, 3, 64, 64
9, 8928, Note_on_c, 3, 57, 90
9, 9024, Note_off_c, 3, 57, 64
9, 9216, Note_on_c, 3, 57, 90
9, 9312, Note_off_c, 3, 57, 64
9, 9504, Note_on_c, 3, 57, 90
9, 9600, Note_off_c, 3, 57, 64
9, 9792, Note_on_c, 3, 57, 90
9, 9888, Note_off_c, 3, 57, 64
9, 10080, Note_on_c, 3, 62, 90
9, 10176, Note_off_c, 3, 62, 64
9, 10368, Note_on_c, 3, 62, 90
9, 10464, Note_off_c, 3, 62, 64
9, 10656, Note_on_c, 3, 62, 90
9, 10752, Note_off_c, 3, 62, 64
9, 10944, Note_on_c, 3, 62, 90
9, 11040, Note_off_c, 3, 62, 64
9, 11232, Note_on_c, 3, 66, 90
9, 11328, Note_off_c, 3, 66, 64
9, 11520, Note_on_c, 3, 66, 90
9, 11616, Note_off_c, 3, 66, 64
9, 11808, Note_on_c, 3, 66, 90
9, 11904, Note_off_c, 3, 66, 64
9, 12096, Note_on_c, 3, 66, 90
9, 12192, Note_off_c, 3, 66, 64
9, 12384, Note_on_c, 3, 67, 90
9, 12480, Note_off_c, 3, 67, 64
9, 12672, Note_on_c, 3, 67, 90
9, 12768, Note_off_c, 3, 67, 64
9, 12960, Note_on_c, 3, 67, 90
9, 13056, Note_off_c, 3, 67, 64
9, 13536, Note_on_c, 3, 64, 90
9, 13632, Note_off_c, 3, 64, 64
9, 13824, Note_on_c, 3, 57, 90
9, 13920, Note_off_c, 3, 57, 64
9, 14112, Note_on_c, 3, 62, 90
9, 14208, Note_off_c, 3, 62, 64
9, 14400, Note_on_c, 3, 66, 90
9, 14496, Note_off_c, 3, 66, 64
9, 14688, Note_on_c, 3, 55, 90
9, 14976, Note_off_c, 3, 55, 64
9, 14976, Note_on_c, 3, 57, 90
9, 15264, Note_off_c, 3, 57, 64
9, 15264, Note_on_c, 3, 62, 90
9, 15360, Note_off_c, 3, 62, 64
9, 15456, Note_on_c, 3, 62, 90
9, 15552, Note_off_c, 3, 62, 64
9, 15840, Note_on_c, 3, 64, 90
9, 15936, Note_off_c, 3, 64, 64
9, 16128, Note_on_c, 3, 64, 90
9, 16224, Note_off_c, 3, 64, 64
9, 16416, Note_on_c, 3, 64, 90
9, 16512, Note_off_c, 3, 64, 64
9, 16704, Note_on_c, 3, 64, 90
9, 16800, Note_off_c, 3, 64, 64
9, 16992, Note_on_c, 3, 57, 90
9, 17088, Note_off_c, 3, 57, 64
9, 17280, Note_on_c, 3, 57, 90
9, 17376, Note_off_c, 3, 57, 64
9, 17568, Note_on_c, 3, 57, 90
9, 17664, Note_off_c, 3, 57, 64
9, 17856, Note_on_c, 3, 57, 90
9, 17952, Note_off_c, 3, 57, 64
9, 18144, Note_on_c, 3, 64, 90
9, 18240, Note_off_c, 3, 64, 64
9, 18432, Note_on_c, 3, 64, 90
9, 18528, Note_off_c, 3, 64, 64
9, 18720, Note_on_c, 3, 64, 90
9, 18816, Note_off_c, 3, 64, 64
9, 19008, Note_on_c, 3, 64, 90
9, 19104, Note_off_c, 3, 64, 64
9, 19200, Note_on_c, 3, 65, 90
9, 19296, Note_off_c, 3, 65, 64
9, 19296, Note_on_c, 3, 66, 90
9, 19584, Note_off_c, 3, 66, 64
9, 19584, Note_on_c, 3, 62, 90
9, 19776, Note_off_c, 3, 62, 64
9, 19872, Note_on_c, 3, 64, 90
9, 19968, Note_off_c, 3, 64, 64
9, 19968, Note_on_c, 3, 68, 90
9, 20064, Note_off_c, 3, 68, 64
9, 20064, Note_on_c, 3, 64, 90
9, 20160, Note_off_c, 3, 64, 64
9, 20160, Note_on_c, 3, 69, 90
9, 20256, Note_off_c, 3, 69, 64
9, 20448, Note_on_c, 3, 64, 90
9, 20544, Note_off_c, 3, 64, 64
9, 20736, Note_on_c, 3, 64, 90
9, 20832, Note_off_c, 3, 64, 64
9, 21024, Note_on_c, 3, 64, 90
9, 21120, Note_off_c, 3, 64, 64
9, 21312, Note_on_c, 3, 64, 90
9, 21408, Note_off_c, 3, 64, 64
9, 21600, Note_on_c, 3, 57, 90
9, 21696, Note_off_c, 3, 57, 64
9, 21888, Note_on_c, 3, 57, 90
9, 21984, Note_off_c, 3, 57, 64
9, 22176, Note_on_c, 3, 57, 90
9, 22272, Note_off_c, 3, 57, 64
9, 22464, Note_on_c, 3, 57, 90
9, 22560, Note_off_c, 3, 57, 64
9, 22752, Note_on_c, 3, 64, 90
9, 22848, Note_off_c, 3, 64, 64
9, 23040, Note_on_c, 3, 64, 90
9, 23136, Note_off_c, 3, 64, 64
9, 23328, Note_on_c, 3, 64, 90
9, 23424, Note_off_c, 3, 64, 64
9, 23616, Note_on_c, 3, 64, 90
9, 23712, Note_off_c, 3, 64, 64
9, 23808, Note_on_c, 3, 65, 90
9, 23904, Note_off_c, 3, 65, 64
9, 23904, Note_on_c, 3, 66, 90
9, 24192, Note_off_c, 3, 66, 64
9, 24192, Note_on_c, 3, 62, 90
9, 24384, Note_off_c, 3, 62, 64
9, 24480, Note_on_c, 3, 64, 90
9, 24576, Note_off_c, 3, 64, 64
9, 24576, Note_on_c, 3, 68, 90
9, 24672, Note_off_c, 3, 68, 64
9, 24672, Note_on_c, 3, 64, 90
9, 24768, Note_off_c, 3, 64, 64
9, 24768, Note_on_c, 3, 69, 90
9, 24864, Note_off_c, 3, 69, 64
9, 25056, Note_on_c, 3, 64, 90
9, 25152, Note_off_c, 3, 64, 64
9, 25344, Note_on_c, 3, 57, 90
9, 25440, Note_off_c, 3, 57, 64
9, 25632, Note_on_c, 3, 69, 90
9, 25728, Note_off_c, 3, 69, 64
9, 25920, Note_on_c, 3, 57, 90
9, 26016, Note_off_c, 3, 57, 64
9, 26208, Note_on_c, 3, 62, 90
9, 26304, Note_off_c, 3, 62, 64
9, 26496, Note_on_c, 3, 57, 90
9, 26592, Note_off_c, 3, 57, 64
9, 26784, Note_on_c, 3, 62, 90
9, 26880, Note_off_c, 3, 62, 64
9, 27072, Note_on_c, 3, 57, 90
9, 27168, Note_off_c, 3, 57, 64
9, 27360, Note_on_c, 3, 64, 90
9, 27456, Note_off_c, 3, 64, 64
9, 27648, Note_on_c, 3, 57, 90
9, 27744, Note_off_c, 3, 57, 64
9, 27936, Note_on_c, 3, 69, 90
9, 28032, Note_off_c, 3, 69, 64
9, 28224, Note_on_c, 3, 57, 90
9, 28320, Note_off_c, 3, 57, 64
9, 28512, Note_on_c, 3, 62, 90
9, 28608, Note_off_c, 3, 62, 64
9, 28800, Note_on_c, 3, 55, 90
9, 28992, Note_off_c, 3, 55, 64
9, 29088, Note_on_c, 3, 57, 90
9, 29184, Note_off_c, 3, 57, 64
9, 29184, Note_on_c, 3, 69, 90
9, 29280, Note_off_c, 3, 69, 64
9, 29280, Note_on_c, 3, 57, 90
9, 29376, Note_off_c, 3, 57, 64
9, 29376, Note_on_c, 3, 62, 90
9, 29472, Note_off_c, 3, 62, 64
9, 29664, Note_on_c, 3, 64, 90
9, 29760, Note_off_c, 3, 64, 64
9, 29952, Note_on_c, 3, 57, 90
9, 30048, Note_off_c, 3, 57, 64
9, 30240, Note_on_c, 3, 69, 90
9, 30336, Note_off_c, 3, 69, 64
9, 30528, Note_on_c, 3, 57, 90
9, 30624, Note_off_c, 3, 57, 64
9, 30816, Note_on_c, 3, 62, 90
9, 30912, Note_off_c, 3, 62, 64
9, 31104, Note_on_c, 3, 57, 90
9, 31200, Note_off_c, 3, 57, 64
9, 31392, Note_on_c, 3, 62, 90
9, 31488, Note_off_c, 3, 62, 64
9, 31680, Note_on_c, 3, 57, 90
9, 31776, Note_off_c, 3, 57, 64
9, 31968, Note_on_c, 3, 64, 90
9, 32064, Note_off_c, 3, 64, 64
9, 32256, Note_on_c, 3, 57, 90
9, 32352, Note_off_c, 3, 57, 64
9, 32544, Note_on_c, 3, 69, 90
9, 32640, Note_off_c, 3, 69, 64
9, 32832, Note_on_c, 3, 57, 90
9, 32928, Note_off_c, 3, 57, 64
9, 33120, Note_on_c, 3, 62, 90
9, 33216, Note_off_c, 3, 62, 64
9, 33408, Note_on_c, 3, 55, 90
9, 33600, Note_off_c, 3, 55, 64
9, 33696, Note_on_c, 3, 57, 90
9, 33792, Note_off_c, 3, 57, 64
9, 33792, Note_on_c, 3, 69, 90
9, 33888, Note_off_c, 3, 69, 64
9, 33888, Note_on_c, 3, 57, 90
9, 33984, Note_off_c, 3, 57, 64
9, 33984, Note_on_c, 3, 62, 90
9, 34080, Note_off_c, 3, 62, 64
9, 34080, End_track
10, 0, Start_track
10, 0, MIDI_port, 0
10, 0, Title_t, "2nd Violin          "
10, 0, Program_c, 4, 67
10, 0, Note_on_c, 4, 69, 90
10, 1152, Note_off_c, 4, 69, 64
10, 1152, Note_on_c, 4, 73, 90
10, 1440, Note_off_c, 4, 73, 64
10, 1440, Note_on_c, 4, 74, 90
10, 1728, Note_off_c, 4, 74, 64
10, 1728, Note_on_c, 4, 75, 90
10, 2016, Note_off_c, 4, 75, 64
10, 2016, Note_on_c, 4, 76, 90
10, 2112, Note_off_c, 4, 76, 64
10, 2688, Note_on_c, 4, 69, 90
10, 2736, Note_off_c, 4, 69, 64
10, 2784, Note_on_c, 4, 69, 90
10, 2832, Note_off_c, 4, 69, 64
10, 2880, Note_on_c, 4, 69, 90
10, 2928, Note_off_c, 4, 69, 64
10, 3264, Note_on_c, 4, 69, 90
10, 3312, Note_off_c, 4, 69, 64
10, 3360, Note_on_c, 4, 69, 90
10, 3408, Note_off_c, 4, 69, 64
10, 3456, Note_on_c, 4, 69, 90
10, 3504, Note_off_c, 4, 69, 64
10, 6336, Note_on_c, 4, 62, 90
10, 6432, Note_off_c, 4, 62, 64
10, 6432, Note_on_c, 4, 66, 90
10, 6528, Note_off_c, 4, 66, 64
10, 6528, Note_on_c, 4, 69, 90
10, 6624, Note_off_c, 4, 69, 64
10, 6624, Note_on_c, 4, 69, 90
10, 7296, Note_off_c, 4, 69, 64
10, 7392, Note_on_c, 4, 62, 90
10, 7488, Note_off_c, 4, 62, 64
10, 7488, Note_on_c, 4, 62, 90
10, 7584, Note_off_c, 4, 62, 64
10, 7584, Note_on_c, 4, 66, 90
10, 7680, Note_off_c, 4, 66, 64
10, 7680, Note_on_c, 4, 69, 90
10, 7776, Note_off_c, 4, 69, 64
10, 7776, Note_on_c, 4, 69, 90
10, 8448, Note_off_c, 4, 69, 64
10, 8544, Note_on_c, 4, 61, 90
10, 8640, Note_off_c, 4, 61, 64
10, 8640, Note_on_c, 4, 61, 90
10, 8736, Note_off_c, 4, 61, 64
10, 8736, Note_on_c, 4, 64, 90
10, 8832, Note_off_c, 4, 64, 64
10, 8832, Note_on_c, 4, 71, 90
10, 8928, Note_off_c, 4, 71, 64
10, 8928, Note_on_c, 4, 71, 90
10, 9600, Note_off_c, 4, 71, 64
10, 9696, Note_on_c, 4, 61, 90
10, 9792, Note_off_c, 4, 61, 64
10, 9792, Note_on_c, 4, 61, 90
10, 9888, Note_off_c, 4, 61, 64
10, 9888, Note_on_c, 4, 64, 90
10, 9984, Note_off_c, 4, 64, 64
10, 9984, Note_on_c, 4, 71, 90
10, 10080, Note_off_c, 4, 71, 64
10, 10080, Note_on_c, 4, 71, 90
10, 10656, Note_off_c, 4, 71, 64
10, 10656, Note_on_c, 4, 69, 90
10, 10752, Note_off_c, 4, 69, 64
10, 10848, Note_on_c, 4, 62, 90
10, 10944, Note_off_c, 4, 62, 64
10, 10944, Note_on_c, 4, 62, 90
10, 11040, Note_off_c, 4, 62, 64
10, 11040, Note_on_c, 4, 66, 90
10, 11136, Note_off_c, 4, 66, 64
10, 11136, Note_on_c, 4, 69, 90
10, 11232, Note_off_c, 4, 69, 64
10, 11232, Note_on_c, 4, 74, 90
10, 11904, Note_off_c, 4, 74, 64
10, 12000, Note_on_c, 4, 62, 90
10, 12096, Note_off_c, 4, 62, 64
10, 12096, Note_on_c, 4, 62, 90
10, 12192, Note_off_c, 4, 62, 64
10, 12192, Note_on_c, 4, 66, 90
10, 12288, Note_off_c, 4, 66, 64
10, 12288, Note_on_c, 4, 69, 90
10, 12384, Note_off_c, 4, 69, 64
10, 12384, Note_on_c, 4, 74, 90
10, 13056, Note_off_c, 4, 74, 64
10, 13632, Note_on_c, 4, 79, 90
10, 13728, Note_off_c, 4, 79, 64
10, 13728, Note_on_c, 4, 79, 90
10, 13824, Note_off_c, 4, 79, 64
10, 13920, Note_on_c, 4, 79, 90
10, 14016, Note_off_c, 4, 79, 64
10, 14016, Note_on_c, 4, 79, 90
10, 14112, Note_off_c, 4, 79, 64
10, 14208, Note_on_c, 4, 78, 90
10, 14304, Note_off_c, 4, 78, 64
10, 14304, Note_on_c, 4, 78, 90
10, 14400, Note_off_c, 4, 78, 64
10, 14496, Note_on_c, 4, 78, 90
10, 14592, Note_off_c, 4, 78, 64
10, 14592, Note_on_c, 4, 78, 90
10, 14688, Note_off_c, 4, 78, 64
10, 14688, Note_on_c, 4, 78, 90
10, 14880, Note_off_c, 4, 78, 64
10, 14880, Note_on_c, 4, 76, 90
10, 14976, Note_off_c, 4, 76, 64
10, 14976, Note_on_c, 4, 76, 90
10, 15264, Note_off_c, 4, 76, 64
10, 15264, Note_on_c, 4, 74, 90
10, 15360, Note_off_c, 4, 74, 64
10, 15648, Note_on_c, 4, 78, 90
10, 15696, Note_off_c, 4, 78, 64
10, 15744, Note_on_c, 4, 76, 90
10, 15792, Note_off_c, 4, 76, 64
10, 15840, Note_on_c, 4, 76, 90
10, 15888, Note_off_c, 4, 76, 64
10, 15936, Note_on_c, 4, 74, 90
10, 15984, Note_off_c, 4, 74, 64
10, 16032, Note_on_c, 4, 74, 90
10, 16080, Note_off_c, 4, 74, 64
10, 16224, Note_on_c, 4, 74, 90
10, 16272, Note_off_c, 4, 74, 64
10, 16320, Note_on_c, 4, 73, 90
10, 16368, Note_off_c, 4, 73, 64
10, 16416, Note_on_c, 4, 73, 90
10, 16464, Note_off_c, 4, 73, 64
10, 16512, Note_on_c, 4, 74, 90
10, 16560, Note_off_c, 4, 74, 64
10, 16608, Note_on_c, 4, 74, 90
10, 16656, Note_off_c, 4, 74, 64
10, 16800, Note_on_c, 4, 52, 90
10, 16848, Note_off_c, 4, 52, 64
10, 16896, Note_on_c, 4, 52, 90
10, 16944, Note_off_c, 4, 52, 64
10, 16992, Note_on_c, 4, 54, 90
10, 17184, Note_off_c, 4, 54, 64
10, 17184, Note_on_c, 4, 52, 90
10, 17280, Note_off_c, 4, 52, 64
10, 17376, Note_on_c, 4, 52, 90
10, 17424, Note_off_c, 4, 52, 64
10, 17472, Note_on_c, 4, 52, 90
10, 17520, Note_off_c, 4, 52, 64
10, 17568, Note_on_c, 4, 59, 90
10, 17760, Note_off_c, 4, 59, 64
10, 17760, Note_on_c, 4, 57, 90
10, 17856, Note_off_c, 4, 57, 64
10, 17952, Note_on_c, 4, 78, 90
10, 18000, Note_off_c, 4, 78, 64
10, 18048, Note_on_c, 4, 76, 90
10, 18096, Note_off_c, 4, 76, 64
10, 18144, Note_on_c, 4, 76, 90
10, 18192, Note_off_c, 4, 76, 64
10, 18240, Note_on_c, 4, 74, 90
10, 18288, Note_off_c, 4, 74, 64
10, 18336, Note_on_c, 4, 74, 90
10, 18384, Note_off_c, 4, 74, 64
10, 18528, Note_on_c, 4, 74, 90
10, 18576, Note_off_c, 4, 74, 64
10, 18624, Note_on_c, 4, 73, 90
10, 18672, Note_off_c, 4, 73, 64
10, 18720, Note_on_c, 4, 73, 90
10, 18768, Note_off_c, 4, 73, 64
10, 18816, Note_on_c, 4, 74, 90
10, 18864, Note_off_c, 4, 74, 64
10, 18912, Note_on_c, 4, 74, 90
10, 18960, Note_off_c, 4, 74, 64
10, 19008, Note_on_c, 4, 52, 90
10, 19104, Note_off_c, 4, 52, 64
10, 19200, Note_on_c, 4, 53, 90
10, 19296, Note_off_c, 4, 53, 64
10, 19296, Note_on_c, 4, 54, 90
10, 19488, Note_off_c, 4, 54, 64
10, 19584, Note_on_c, 4, 50, 90
10, 19776, Note_off_c, 4, 50, 64
10, 19872, Note_on_c, 4, 52, 90
10, 19968, Note_off_c, 4, 52, 64
10, 19968, Note_on_c, 4, 56, 90
10, 20064, Note_off_c, 4, 56, 64
10, 20064, Note_on_c, 4, 52, 90
10, 20160, Note_off_c, 4, 52, 64
10, 20160, Note_on_c, 4, 57, 90
10, 20256, Note_off_c, 4, 57, 64
10, 20448, Note_on_c, 4, 76, 90
10, 20736, Note_off_c, 4, 76, 64
10, 20736, Note_on_c, 4, 76, 90
10, 21024, Note_off_c, 4, 76, 64
10, 21024, Note_on_c, 4, 76, 90
10, 21312, Note_off_c, 4, 76, 64
10, 21408, Note_on_c, 4, 52, 90
10, 21456, Note_off_c, 4, 52, 64
10, 21504, Note_on_c, 4, 52, 90
10, 21552, Note_off_c, 4, 52, 64
10, 21600, Note_on_c, 4, 54, 90
10, 21792, Note_off_c, 4, 54, 64
10, 21792, Note_on_c, 4, 52, 90
10, 21888, Note_off_c, 4, 52, 64
10, 21984, Note_on_c, 4, 52, 90
10, 22032, Note_off_c, 4, 52, 64
10, 22080, Note_on_c, 4, 52, 90
10, 22128, Note_off_c, 4, 52, 64
10, 22176, Note_on_c, 4, 59, 90
10, 22368, Note_off_c, 4, 59, 64
10, 22368, Note_on_c, 4, 57, 90
10, 22464, Note_off_c, 4, 57, 64
10, 22752, Note_on_c, 4, 76, 90
10, 23040, Note_off_c, 4, 76, 64
10, 23040, Note_on_c, 4, 76, 90
10, 23328, Note_off_c, 4, 76, 64
10, 23328, Note_on_c, 4, 76, 90
10, 23616, Note_off_c, 4, 76, 64
10, 23616, Note_on_c, 4, 52, 90
10, 23712, Note_off_c, 4, 52, 64
10, 23808, Note_on_c, 4, 53, 90
10, 23904, Note_off_c, 4, 53, 64
10, 23904, Note_on_c, 4, 54, 90
10, 24096, Note_off_c, 4, 54, 64
10, 24192, Note_on_c, 4, 50, 90
10, 24384, Note_off_c, 4, 50, 64
10, 24480, Note_on_c, 4, 52, 90
10, 24576, Note_off_c, 4, 52, 64
10, 24576, Note_on_c, 4, 56, 90
10, 24672, Note_off_c, 4, 56, 64
10, 24672, Note_on_c, 4, 52, 90
10, 24768, Note_off_c, 4, 52, 64
10, 24768, Note_on_c, 4, 57, 90
10, 24864, Note_off_c, 4, 57, 64
10, 25056, Note_on_c, 4, 61, 90
10, 25152, Note_off_c, 4, 61, 64
10, 25344, Note_on_c, 4, 61, 90
10, 25440, Note_off_c, 4, 61, 64
10, 25632, Note_on_c, 4, 61, 90
10, 25728, Note_off_c, 4, 61, 64
10, 25920, Note_on_c, 4, 61, 90
10, 26016, Note_off_c, 4, 61, 64
10, 26208, Note_on_c, 4, 62, 90
10, 26304, Note_off_c, 4, 62, 64
10, 26496, Note_on_c, 4, 62, 90
10, 26592, Note_off_c, 4, 62, 64
10, 26784, Note_on_c, 4, 62, 90
10, 26880, Note_off_c, 4, 62, 64
10, 27072, Note_on_c, 4, 62, 90
10, 27168, Note_off_c, 4, 62, 64
10, 27360, Note_on_c, 4, 61, 90
10, 27456, Note_off_c, 4, 61, 64
10, 27648, Note_on_c, 4, 61, 90
10, 27744, Note_off_c, 4, 61, 64
10, 27936, Note_on_c, 4, 61, 90
10, 28032, Note_off_c, 4, 61, 64
10, 28224, Note_on_c, 4, 61, 90
10, 28320, Note_off_c, 4, 61, 64
10, 28512, Note_on_c, 4, 62, 90
10, 28608, Note_off_c, 4, 62, 64
10, 28800, Note_on_c, 4, 66, 90
10, 28992, Note_off_c, 4, 66, 64
10, 28992, Note_on_c, 4, 67, 90
10, 29088, Note_off_c, 4, 67, 64
10, 29088, Note_on_c, 4, 66, 90
10, 29136, Note_off_c, 4, 66, 64
10, 29136, Note_on_c, 4, 66, 90
10, 29184, Note_off_c, 4, 66, 64
10, 29184, Note_on_c, 4, 66, 90
10, 29280, Note_off_c, 4, 66, 64
10, 29280, Note_on_c, 4, 67, 90
10, 29376, Note_off_c, 4, 67, 64
10, 29376, Note_on_c, 4, 66, 90
10, 29472, Note_off_c, 4, 66, 64
10, 29664, Note_on_c, 4, 61, 90
10, 29760, Note_off_c, 4, 61, 64
10, 29952, Note_on_c, 4, 61, 90
10, 30048, Note_off_c, 4, 61, 64
10, 30240, Note_on_c, 4, 61, 90
10, 30336, Note_off_c, 4, 61, 64
10, 30528, Note_on_c, 4, 61, 90
10, 30624, Note_off_c, 4, 61, 64
10, 30816, Note_on_c, 4, 62, 90
10, 30912, Note_off_c, 4, 62, 64
10, 31104, Note_on_c, 4, 62, 90
10, 31200, Note_off_c, 4, 62, 64
10, 31392, Note_on_c, 4, 62, 90
10, 31488, Note_off_c, 4, 62, 64
10, 31680, Note_on_c, 4, 62, 90
10, 31776, Note_off_c, 4, 62, 64
10, 31968, Note_on_c, 4, 61, 90
10, 32064, Note_off_c, 4, 61, 64
10, 32256, Note_on_c, 4, 61, 90
10, 32352, Note_off_c, 4, 61, 64
10, 32544, Note_on_c, 4, 61, 90
10, 32640, Note_off_c, 4, 61, 64
10, 32832, Note_on_c, 4, 61, 90
10, 32928, Note_off_c, 4, 61, 64
10, 33120, Note_on_c, 4, 62, 90
10, 33216, Note_off_c, 4, 62, 64
10, 33408, Note_on_c, 4, 66, 90
10, 33600, Note_off_c, 4, 66, 64
10, 33600, Note_on_c, 4, 67, 90
10, 33696, Note_off_c, 4, 67, 64
10, 33696, Note_on_c, 4, 66, 90
10, 33744, Note_off_c, 4, 66, 64
10, 33744, Note_on_c, 4, 66, 90
10, 33792, Note_off_c, 4, 66, 64
10, 33792, Note_on_c, 4, 66, 90
10, 33888, Note_off_c, 4, 66, 64
10, 33888, Note_on_c, 4, 67, 90
10, 33984, Note_off_c, 4, 67, 64
10, 33984, Note_on_c, 4, 66, 90
10, 34080, Note_off_c, 4, 66, 64
10, 34080, End_track
11, 0, Start_track
11, 0, MIDI_port, 0
11, 0, Title_t, "Cello               "
11, 0, Program_c, 5, 11
11, 0, Note_on_c, 5, 69, 90
11, 1152, Note_off_c, 5, 69, 64
11, 1152, Note_on_c, 5, 73, 90
11, 1440, Note_off_c, 5, 73, 64
11, 1440, Note_on_c, 5, 74, 90
11, 1728, Note_off_c, 5, 74, 64
11, 1728, Note_on_c, 5, 75, 90
11, 2016, Note_off_c, 5, 75, 64
11, 2016, Note_on_c, 5, 76, 90
11, 2112, Note_off_c, 5, 76, 64
11, 2688, Note_on_c, 5, 69, 90
11, 2736, Note_off_c, 5, 69, 64
11, 2784, Note_on_c, 5, 69, 90
11, 2832, Note_off_c, 5, 69, 64
11, 2880, Note_on_c, 5, 69, 90
11, 2928, Note_off_c, 5, 69, 64
11, 3264, Note_on_c, 5, 69, 90
11, 3312, Note_off_c, 5, 69, 64
11, 3360, Note_on_c, 5, 69, 90
11, 3408, Note_off_c, 5, 69, 64
11, 3456, Note_on_c, 5, 69, 90
11, 3504, Note_off_c, 5, 69, 64
11, 6336, Note_on_c, 5, 62, 90
11, 6432, Note_off_c, 5, 62, 64
11, 6432, Note_on_c, 5, 66, 90
11, 6528, Note_off_c, 5, 66, 64
11, 6528, Note_on_c, 5, 69, 90
11, 6624, Note_off_c, 5, 69, 64
11, 6624, Note_on_c, 5, 69, 90
11, 7296, Note_off_c, 5, 69, 64
11, 7392, Note_on_c, 5, 62, 90
11, 7488, Note_off_c, 5, 62, 64
11, 7488, Note_on_c, 5, 62, 90
11, 7584, Note_off_c, 5, 62, 64
11, 7584, Note_on_c, 5, 66, 90
11, 7680, Note_off_c, 5, 66, 64
11, 7680, Note_on_c, 5, 69, 90
11, 7776, Note_off_c, 5, 69, 64
11, 7776, Note_on_c, 5, 69, 90
11, 8448, Note_off_c, 5, 69, 64
11, 8544, Note_on_c, 5, 61, 90
11, 8640, Note_off_c, 5, 61, 64
11, 8640, Note_on_c, 5, 61, 90
11, 8736, Note_off_c, 5, 61, 64
11, 8736, Note_on_c, 5, 64, 90
11, 8832, Note_off_c, 5, 64, 64
11, 8832, Note_on_c, 5, 71, 90
11, 8928, Note_off_c, 5, 71, 64
11, 8928, Note_on_c, 5, 71, 90
11, 9600, Note_off_c, 5, 71, 64
11, 9696, Note_on_c, 5, 61, 90
11, 9792, Note_off_c, 5, 61, 64
11, 9792, Note_on_c, 5, 61, 90
11, 9888, Note_off_c, 5, 61, 64
11, 9888, Note_on_c, 5, 64, 90
11, 9984, Note_off_c, 5, 64, 64
11, 9984, Note_on_c, 5, 71, 90
11, 10080, Note_off_c, 5, 71, 64
11, 10080, Note_on_c, 5, 71, 90
11, 10656, Note_off_c, 5, 71, 64
11, 10656, Note_on_c, 5, 69, 90
11, 10752, Note_off_c, 5, 69, 64
11, 10848, Note_on_c, 5, 62, 90
11, 10944, Note_off_c, 5, 62, 64
11, 10944, Note_on_c, 5, 62, 90
11, 11040, Note_off_c, 5, 62, 64
11, 11040, Note_on_c, 5, 66, 90
11, 11136, Note_off_c, 5, 66, 64
11, 11136, Note_on_c, 5, 69, 90
11, 11232, Note_off_c, 5, 69, 64
11, 11232, Note_on_c, 5, 74, 90
11, 11904, Note_off_c, 5, 74, 64
11, 12000, Note_on_c, 5, 62, 90
11, 12096, Note_off_c, 5, 62, 64
11, 12096, Note_on_c, 5, 62, 90
11, 12192, Note_off_c, 5, 62, 64
11, 12192, Note_on_c, 5, 66, 90
11, 12288, Note_off_c, 5, 66, 64
11, 12288, Note_on_c, 5, 69, 90
11, 12384, Note_off_c, 5, 69, 64
11, 12384, Note_on_c, 5, 74, 90
11, 13056, Note_off_c, 5, 74, 64
11, 13632, Note_on_c, 5, 79, 90
11, 13728, Note_off_c, 5, 79, 64
11, 13728, Note_on_c, 5, 79, 90
11, 13824, Note_off_c, 5, 79, 64
11, 13920, Note_on_c, 5, 79, 90
11, 14016, Note_off_c, 5, 79, 64
11, 14016, Note_on_c, 5, 79, 90
11, 14112, Note_off_c, 5, 79, 64
11, 14208, Note_on_c, 5, 78, 90
11, 14304, Note_off_c, 5, 78, 64
11, 14304, Note_on_c, 5, 78, 90
11, 14400, Note_off_c, 5, 78, 64
11, 14496, Note_on_c, 5, 78, 90
11, 14592, Note_off_c, 5, 78, 64
11, 14592, Note_on_c, 5, 78, 90
11, 14688, Note_off_c, 5, 78, 64
11, 14688, Note_on_c, 5, 78, 90
11, 14880, Note_off_c, 5, 78, 64
11, 14880, Note_on_c, 5, 76, 90
11, 14976, Note_off_c, 5, 76, 64
11, 14976, Note_on_c, 5, 76, 90
11, 15264, Note_off_c, 5, 76, 64
11, 15264, Note_on_c, 5, 74, 90
11, 15360, Note_off_c, 5, 74, 64
11, 15648, Note_on_c, 5, 78, 90
11, 15696, Note_off_c, 5, 78, 64
11, 15744, Note_on_c, 5, 76, 90
11, 15792, Note_off_c, 5, 76, 64
11, 15840, Note_on_c, 5, 76, 90
11, 15888, Note_off_c, 5, 76, 64
11, 15936, Note_on_c, 5, 74, 90
11, 15984, Note_off_c, 5, 74, 64
11, 16032, Note_on_c, 5, 74, 90
11, 16080, Note_off_c, 5, 74, 64
11, 16224, Note_on_c, 5, 74, 90
11, 16272, Note_off_c, 5, 74, 64
11, 16320, Note_on_c, 5, 73, 90
11, 16368, Note_off_c, 5, 73, 64
11, 16416, Note_on_c, 5, 73, 90
11, 16464, Note_off_c, 5, 73, 64
11, 16512, Note_on_c, 5, 74, 90
11, 16560, Note_off_c, 5, 74, 64
11, 16608, Note_on_c, 5, 74, 90
11, 16656, Note_off_c, 5, 74, 64
11, 16800, Note_on_c, 5, 52, 90
11, 16848, Note_off_c, 5, 52, 64
11, 16896, Note_on_c, 5, 52, 90
11, 16944, Note_off_c, 5, 52, 64
11, 16992, Note_on_c, 5, 54, 90
11, 17184, Note_off_c, 5, 54, 64
11, 17184, Note_on_c, 5, 52, 90
11, 17280, Note_off_c, 5, 52, 64
11, 17376, Note_on_c, 5, 52, 90
11, 17424, Note_off_c, 5, 52, 64
11, 17472, Note_on_c, 5, 52, 90
11, 17520, Note_off_c, 5, 52, 64
11, 17568, Note_on_c, 5, 59, 90
11, 17760, Note_off_c, 5, 59, 64
11, 17760, Note_on_c, 5, 57, 90
11, 17856, Note_off_c, 5, 57, 64
11, 17952, Note_on_c, 5, 78, 90
11, 18000, Note_off_c, 5, 78, 64
11, 18048, Note_on_c, 5, 76, 90
11, 18096, Note_off_c, 5, 76, 64
11, 18144, Note_on_c, 5, 76, 90
11, 18192, Note_off_c, 5, 76, 64
11, 18240, Note_on_c, 5, 74, 90
11, 18288, Note_off_c, 5, 74, 64
11, 18336, Note_on_c, 5, 74, 90
11, 18384, Note_off_c, 5, 74, 64
11, 18528, Note_on_c, 5, 74, 90
11, 18576, Note_off_c, 5, 74, 64
11, 18624, Note_on_c, 5, 73, 90
11, 18672, Note_off_c, 5, 73, 64
11, 18720, Note_on_c, 5, 73, 90
11, 18768, Note_off_c, 5, 73, 64
11, 18816, Note_on_c, 5, 74, 90
11, 18864, Note_off_c, 5, 74, 64
11, 18912, Note_on_c, 5, 74, 90
11, 18960, Note_off_c, 5, 74, 64
11, 19008, Note_on_c, 5, 52, 90
11, 19104, Note_off_c, 5, 52, 64
11, 19200, Note_on_c, 5, 53, 90
11, 19296, Note_off_c, 5, 53, 64
11, 19296, Note_on_c, 5, 54, 90
11, 19488, Note_off_c, 5, 54, 64
11, 19584, Note_on_c, 5, 50, 90
11, 19776, Note_off_c, 5, 50, 64
11, 19872, Note_on_c, 5, 52, 90
11, 19968, Note_off_c, 5, 52, 64
11, 19968, Note_on_c, 5, 56, 90
11, 20064, Note_off_c, 5, 56, 64
11, 20064, Note_on_c, 5, 52, 90
11, 20160, Note_off_c, 5, 52, 64
11, 20160, Note_on_c, 5, 57, 90
11, 20256, Note_off_c, 5, 57, 64
11, 20448, Note_on_c, 5, 76, 90
11, 20736, Note_off_c, 5, 76, 64
11, 20736, Note_on_c, 5, 76, 90
11, 21024, Note_off_c, 5, 76, 64
11, 21024, Note_on_c, 5, 76, 90
11, 21312, Note_off_c, 5, 76, 64
11, 21408, Note_on_c, 5, 52, 90
11, 21456, Note_off_c, 5, 52, 64
11, 21504, Note_on_c, 5, 52, 90
11, 21552, Note_off_c, 5, 52, 64
11, 21600, Note_on_c, 5, 54, 90
11, 21792, Note_off_c, 5, 54, 64
11, 21792, Note_on_c, 5, 52, 90
11, 21888, Note_off_c, 5, 52, 64
11, 21984, Note_on_c, 5, 52, 90
11, 22032, Note_off_c, 5, 52, 64
11, 22080, Note_on_c, 5, 52, 90
11, 22128, Note_off_c, 5, 52, 64
11, 22176, Note_on_c, 5, 59, 90
11, 22368, Note_off_c, 5, 59, 64
11, 22368, Note_on_c, 5, 57, 90
11, 22464, Note_off_c, 5, 57, 64
11, 22752, Note_on_c, 5, 76, 90
11, 23040, Note_off_c, 5, 76, 64
11, 23040, Note_on_c, 5, 76, 90
11, 23328, Note_off_c, 5, 76, 64
11, 23328, Note_on_c, 5, 76, 90
11, 23616, Note_off_c, 5, 76, 64
11, 23616, Note_on_c, 5, 52, 90
11, 23712, Note_off_c, 5, 52, 64
11, 23808, Note_on_c, 5, 53, 90
11, 23904, Note_off_c, 5, 53, 64
11, 23904, Note_on_c, 5, 54, 90
11, 24096, Note_off_c, 5, 54, 64
11, 24192, Note_on_c, 5, 50, 90
11, 24384, Note_off_c, 5, 50, 64
11, 24480, Note_on_c, 5, 52, 90
11, 24576, Note_off_c, 5, 52, 64
11, 24576, Note_on_c, 5, 56, 90
11, 24672, Note_off_c, 5, 56, 64
11, 24672, Note_on_c, 5, 52, 90
11, 24768, Note_off_c, 5, 52, 64
11, 24768, Note_on_c, 5, 57, 90
11, 24864, Note_off_c, 5, 57, 64
11, 25056, Note_on_c, 5, 61, 90
11, 25152, Note_off_c, 5, 61, 64
11, 25344, Note_on_c, 5, 61, 90
11, 25440, Note_off_c, 5, 61, 64
11, 25632, Note_on_c, 5, 61, 90
11, 25728, Note_off_c, 5, 61, 64
11, 25920, Note_on_c, 5, 61, 90
11, 26016, Note_off_c, 5, 61, 64
11, 26208, Note_on_c, 5, 62, 90
11, 26304, Note_off_c, 5, 62, 64
11, 26496, Note_on_c, 5, 62, 90
11, 26592, Note_off_c, 5, 62, 64
11, 26784, Note_on_c, 5, 62, 90
11, 26880, Note_off_c, 5, 62, 64
11, 27072, Note_on_c, 5, 62, 90
11, 27168, Note_off_c, 5, 62, 64
11, 27360, Note_on_c, 5, 61, 90
11, 27456, Note_off_c, 5, 61, 64
11, 27648, Note_on_c, 5, 61, 90
11, 27744, Note_off_c, 5, 61, 64
11, 27936, Note_on_c, 5, 61, 90
11, 28032, Note_off_c, 5, 61, 64
11, 28224, Note_on_c, 5, 61, 90
11, 28320, Note_off_c, 5, 61, 64
11, 28512, Note_on_c, 5, 62, 90
11, 28608, Note_off_c, 5, 62, 64
11, 28800, Note_on_c, 5, 66, 90
11, 28992, Note_off_c, 5, 66, 64
11, 28992, Note_on_c, 5, 67, 90
11, 29088, Note_off_c, 5, 67, 64
11, 29088, Note_on_c, 5, 66, 90
11, 29136, Note_off_c, 5, 66, 64
11, 29136, Note_on_c, 5, 66, 90
11, 29184, Note_off_c, 5, 66, 64
11, 29184, Note_on_c, 5, 66, 90
11, 29280, Note_off_c, 5, 66, 64
11, 29280, Note_on_c, 5, 67, 90
11, 29376, Note_off_c, 5, 67, 64
11, 29376, Note_on_c, 5, 66, 90
11, 29472, Note_off_c, 5, 66, 64
11, 29664, Note_on_c, 5, 61, 90
11, 29760, Note_off_c, 5, 61, 64
11, 29952, Note_on_c, 5, 61, 90
11, 30048, Note_off_c, 5, 61, 64
11, 30240, Note_on_c, 5, 61, 90
11, 30336, Note_off_c, 5, 61, 64
11, 30528, Note_on_c, 5, 61, 90
11, 30624, Note_off_c, 5, 61, 64
11, 30816, Note_on_c, 5, 62, 90
11, 30912, Note_off_c, 5, 62, 64
11, 31104, Note_on_c, 5, 62, 90
11, 31200, Note_off_c, 5, 62, 64
11, 31392, Note_on_c, 5, 62, 90
11, 31488, Note_off_c, 5, 62, 64
11, 31680, Note_on_c, 5, 62, 90
11, 31776, Note_off_c, 5, 62, 64
11, 31968, Note_on_c, 5, 61, 90
11, 32064, Note_off_c, 5, 61, 64
11, 32256, Note_on_c, 5, 61, 90
11, 32352, Note_off_c, 5, 61, 64
11, 32544, Note_on_c, 5, 61, 90
11, 32640, Note_off_c, 5, 61, 64
11, 32832, Note_on_c, 5, 61, 90
11, 32928, Note_off_c, 5, 61, 64
11, 33120, Note_on_c, 5, 62, 90
11, 33216, Note_off_c, 5, 62, 64
11, 33408, Note_on_c, 5, 66, 90
11, 33600, Note_off_c, 5, 66, 64
11, 33600, Note_on_c, 5, 67, 90
11, 33696, Note_off_c, 5, 67, 64
11, 33696, Note_on_c, 5, 66, 90
11, 33744, Note_off_c, 5, 66, 64
11, 33744, Note_on_c, 5, 66, 90
11, 33792, Note_off_c, 5, 66, 64
11, 33792, Note_on_c, 5, 66, 90
11, 33888, Note_off_c, 5, 66, 64
11, 33888, Note_on_c, 5, 67, 90
11, 33984, Note_off_c, 5, 67, 64
11, 33984, Note_on_c, 5, 66, 90
11, 34080, Note_off_c, 5, 66, 64
11, 34080, End_track
12, 0, Start_track
12, 0, MIDI_port, 0
12, 0, Title_t, "2nd Cello           "
12, 0, Program_c, 6, 11
12, 72, Note_on_c, 6, 71, 90
12, 96, Note_off_c, 6, 71, 64
12, 96, Note_on_c, 6, 69, 90
12, 144, Note_off_c, 6, 69, 64
12, 144, Note_on_c, 6, 68, 90
12, 192, Note_off_c, 6, 68, 64
12, 192, Note_on_c, 6, 69, 90
12, 288, Note_off_c, 6, 69, 64
12, 360, Note_on_c, 6, 73, 90
12, 384, Note_off_c, 6, 73, 64
12, 384, Note_on_c, 6, 71, 90
12, 432, Note_off_c, 6, 71, 64
12, 432, Note_on_c, 6, 70, 90
12, 480, Note_off_c, 6, 70, 64
12, 480, Note_on_c, 6, 71, 90
12, 576, Note_off_c, 6, 71, 64
12, 648, Note_on_c, 6, 74, 90
12, 672, Note_off_c, 6, 74, 64
12, 672, Note_on_c, 6, 73, 90
12, 720, Note_off_c, 6, 73, 64
12, 720, Note_on_c, 6, 71, 90
12, 768, Note_off_c, 6, 71, 64
12, 768, Note_on_c, 6, 73, 90
12, 864, Note_off_c, 6, 73, 64
12, 864, Note_on_c, 6, 74, 90
12, 912, Note_off_c, 6, 74, 64
12, 960, Note_on_c, 6, 76, 90
12, 1008, Note_off_c, 6, 76, 64
12, 1056, Note_on_c, 6, 78, 90
12, 1104, Note_off_c, 6, 78, 64
12, 1224, Note_on_c, 6, 78, 90
12, 1248, Note_off_c, 6, 78, 64
12, 1248, Note_on_c, 6, 76, 90
12, 1296, Note_off_c, 6, 76, 64
12, 1296, Note_on_c, 6, 75, 90
12, 1344, Note_off_c, 6, 75, 64
12, 1344, Note_on_c, 6, 76, 90
12, 1440, Note_off_c, 6, 76, 64
12, 1512, Note_on_c, 6, 79, 90
12, 1536, Note_off_c, 6, 79, 64
12, 1536, Note_on_c, 6, 78, 90
12, 1584, Note_off_c, 6, 78, 64
12, 1584, Note_on_c, 6, 77, 90
12, 1632, Note_off_c, 6, 77, 64
12, 1632, Note_on_c, 6, 78, 90
12, 1728, Note_off_c, 6, 78, 64
12, 1800, Note_on_c, 6, 79, 90
12, 1824, Note_off_c, 6, 79, 64
12, 1824, Note_on_c, 6, 78, 90
12, 1872, Note_off_c, 6, 78, 64
12, 1872, Note_on_c, 6, 77, 90
12, 1920, Note_off_c, 6, 77, 64
12, 1920, Note_on_c, 6, 78, 90
12, 2016, Note_off_c, 6, 78, 64
12, 2016, Note_on_c, 6, 79, 90
12, 2064, Note_off_c, 6, 79, 64
12, 2112, Note_on_c, 6, 81, 90
12, 2160, Note_off_c, 6, 81, 64
12, 2208, Note_on_c, 6, 83, 90
12, 2256, Note_off_c, 6, 83, 64
12, 2688, Note_on_c, 6, 73, 90
12, 2736, Note_off_c, 6, 73, 64
12, 2784, Note_on_c, 6, 73, 90
12, 2832, Note_off_c, 6, 73, 64
12, 2880, Note_on_c, 6, 73, 90
12, 2928, Note_off_c, 6, 73, 64
12, 3264, Note_on_c, 6, 74, 90
12, 3312, Note_off_c, 6, 74, 64
12, 3360, Note_on_c, 6, 74, 90
12, 3408, Note_off_c, 6, 74, 64
12, 3456, Note_on_c, 6, 74, 90
12, 3504, Note_off_c, 6, 74, 64
12, 3840, Note_on_c, 6, 79, 90
12, 3864, Note_off_c, 6, 79, 64
12, 3936, Note_on_c, 6, 69, 90
12, 3960, Note_off_c, 6, 69, 64
12, 4128, Note_on_c, 6, 79, 90
12, 4152, Note_off_c, 6, 79, 64
12, 4224, Note_on_c, 6, 69, 90
12, 4248, Note_off_c, 6, 69, 64
12, 4416, Note_on_c, 6, 79, 90
12, 4440, Note_off_c, 6, 79, 64
12, 4512, Note_on_c, 6, 69, 90
12, 4536, Note_off_c, 6, 69, 64
12, 4704, Note_on_c, 6, 76, 90
12, 4728, Note_off_c, 6, 76, 64
12, 4800, Note_on_c, 6, 67, 90
12, 4824, Note_off_c, 6, 67, 64
12, 4992, Note_on_c, 6, 74, 90
12, 5016, Note_off_c, 6, 74, 64
12, 5088, Note_on_c, 6, 66, 90
12, 5112, Note_off_c, 6, 66, 64
12, 5280, Note_on_c, 6, 73, 90
12, 5304, Note_off_c, 6, 73, 64
12, 5376, Note_on_c, 6, 64, 90
12, 5400, Note_off_c, 6, 64, 64
12, 6792, Note_on_c, 6, 69, 90
12, 6816, Note_off_c, 6, 69, 64
12, 6816, Note_on_c, 6, 78, 90
12, 6864, Note_off_c, 6, 78, 64
12, 6912, Note_on_c, 6, 78, 90
12, 6960, Note_off_c, 6, 78, 64
12, 7080, Note_on_c, 6, 69, 90
12, 7104, Note_off_c, 6, 69, 64
12, 7104, Note_on_c, 6, 74, 90
12, 7152, Note_off_c, 6, 74, 64
12, 7200, Note_on_c, 6, 74, 90
12, 7248, Note_off_c, 6, 74, 64
12, 7944, Note_on_c, 6, 69, 90
12, 7968, Note_off_c, 6, 69, 64
12, 7968, Note_on_c, 6, 79, 90
12, 8016, Note_off_c, 6, 79, 64
12, 8064, Note_on_c, 6, 79, 90
12, 8112, Note_off_c, 6, 79, 64
12, 8232, Note_on_c, 6, 69, 90
12, 8256, Note_off_c, 6, 69, 64
12, 8256, Note_on_c, 6, 73, 90
12, 8304, Note_off_c, 6, 73, 64
12, 8352, Note_on_c, 6, 73, 90
12, 8400, Note_off_c, 6, 73, 64
12, 9096, Note_on_c, 6, 73, 90
12, 9120, Note_off_c, 6, 73, 64
12, 9120, Note_on_c, 6, 79, 90
12, 9168, Note_off_c, 6, 79, 64
12, 9216, Note_on_c, 6, 79, 90
12, 9264, Note_off_c, 6, 79, 64
12, 9384, Note_on_c, 6, 73, 90
12, 9408, Note_off_c, 6, 73, 64
12, 9408, Note_on_c, 6, 73, 90
12, 9456, Note_off_c, 6, 73, 64
12, 9504, Note_on_c, 6, 73, 90
12, 9552, Note_off_c, 6, 73, 64
12, 10248, Note_on_c, 6, 74, 90
12, 10272, Note_off_c, 6, 74, 64
12, 10272, Note_on_c, 6, 78, 90
12, 10320, Note_off_c, 6, 78, 64
12, 10368, Note_on_c, 6, 78, 90
12, 10416, Note_off_c, 6, 78, 64
12, 10536, Note_on_c, 6, 74, 90
12, 10560, Note_off_c, 6, 74, 64
12, 10560, Note_on_c, 6, 74, 90
12, 10608, Note_off_c, 6, 74, 64
12, 10656, Note_on_c, 6, 74, 90
12, 10704, Note_off_c, 6, 74, 64
12, 11400, Note_on_c, 6, 74, 90
12, 11424, Note_off_c, 6, 74, 64
12, 11424, Note_on_c, 6, 78, 90
12, 11472, Note_off_c, 6, 78, 64
12, 11520, Note_on_c, 6, 78, 90
12, 11568, Note_off_c, 6, 78, 64
12, 11688, Note_on_c, 6, 74, 90
12, 11712, Note_off_c, 6, 74, 64
12, 11712, Note_on_c, 6, 74, 90
12, 11760, Note_off_c, 6, 74, 64
12, 11808, Note_on_c, 6, 74, 90
12, 11856, Note_off_c, 6, 74, 64
12, 12552, Note_on_c, 6, 74, 90
12, 12576, Note_off_c, 6, 74, 64
12, 12576, Note_on_c, 6, 76, 90
12, 12624, Note_off_c, 6, 76, 64
12, 12672, Note_on_c, 6, 76, 90
12, 12720, Note_off_c, 6, 76, 64
12, 12840, Note_on_c, 6, 74, 90
12, 12864, Note_off_c, 6, 74, 64
12, 12864, Note_on_c, 6, 74, 90
12, 12912, Note_off_c, 6, 74, 64
12, 12960, Note_on_c, 6, 74, 90
12, 13008, Note_off_c, 6, 74, 64
12, 13152, Note_on_c, 6, 64, 90
12, 13248, Note_off_c, 6, 64, 64
12, 13248, Note_on_c, 6, 64, 90
12, 13344, Note_off_c, 6, 64, 64
12, 13344, Note_on_c, 6, 67, 90
12, 13440, Note_off_c, 6, 67, 64
12, 13440, Note_on_c, 6, 71, 90
12, 13488, Note_off_c, 6, 71, 64
12, 13536, Note_on_c, 6, 71, 90
12, 13920, Note_off_c, 6, 71, 64
12, 13920, Note_on_c, 6, 68, 90
12, 14016, Note_off_c, 6, 68, 64
12, 14016, Note_on_c, 6, 69, 90
12, 14112, Note_off_c, 6, 69, 64
12, 14112, Note_on_c, 6, 78, 90
12, 14496, Note_off_c, 6, 78, 64
12, 14496, Note_on_c, 6, 74, 90
12, 14544, Note_off_c, 6, 74, 64
12, 14592, Note_on_c, 6, 66, 90
12, 14640, Note_off_c, 6, 66, 64
12, 14688, Note_on_c, 6, 71, 90
12, 14976, Note_off_c, 6, 71, 64
12, 14976, Note_on_c, 6, 73, 90
12, 15264, Note_off_c, 6, 73, 64
12, 15264, Note_on_c, 6, 69, 90
12, 15360, Note_off_c, 6, 69, 64
12, 15456, Note_on_c, 6, 69, 90
12, 15552, Note_off_c, 6, 69, 64
12, 15648, Note_on_c, 6, 74, 90
12, 15696, Note_off_c, 6, 74, 64
12, 15744, Note_on_c, 6, 73, 90
12, 15792, Note_off_c, 6, 73, 64
12, 15840, Note_on_c, 6, 73, 90
12, 15888, Note_off_c, 6, 73, 64
12, 15936, Note_on_c, 6, 71, 90
12, 15984, Note_off_c, 6, 71, 64
12, 16032, Note_on_c, 6, 71, 90
12, 16080, Note_off_c, 6, 71, 64
12, 16224, Note_on_c, 6, 71, 90
12, 16272, Note_off_c, 6, 71, 64
12, 16320, Note_on_c, 6, 70, 90
12, 16368, Note_off_c, 6, 70, 64
12, 16416, Note_on_c, 6, 70, 90
12, 16464, Note_off_c, 6, 70, 64
12, 16512, Note_on_c, 6, 71, 90
12, 16560, Note_off_c, 6, 71, 64
12, 16608, Note_on_c, 6, 71, 90
12, 16656, Note_off_c, 6, 71, 64
12, 17088, Note_on_c, 6, 69, 90
12, 17136, Note_off_c, 6, 69, 64
12, 17184, Note_on_c, 6, 69, 90
12, 17232, Note_off_c, 6, 69, 64
12, 17280, Note_on_c, 6, 73, 90
12, 17304, Note_off_c, 6, 73, 64
12, 17304, Note_on_c, 6, 74, 90
12, 17328, Note_off_c, 6, 74, 64
12, 17328, Note_on_c, 6, 73, 90
12, 17376, Note_off_c, 6, 73, 64
12, 17664, Note_on_c, 6, 69, 90
12, 17712, Note_off_c, 6, 69, 64
12, 17760, Note_on_c, 6, 69, 90
12, 17808, Note_off_c, 6, 69, 64
12, 17856, Note_on_c, 6, 73, 90
12, 17880, Note_off_c, 6, 73, 64
12, 17880, Note_on_c, 6, 74, 90
12, 17904, Note_off_c, 6, 74, 64
12, 17904, Note_on_c, 6, 73, 90
12, 17952, Note_off_c, 6, 73, 64
12, 17952, Note_on_c, 6, 74, 90
12, 18000, Note_off_c, 6, 74, 64
12, 18048, Note_on_c, 6, 73, 90
12, 18096, Note_off_c, 6, 73, 64
12, 18144, Note_on_c, 6, 73, 90
12, 18192, Note_off_c, 6, 73, 64
12, 18240, Note_on_c, 6, 71, 90
12, 18288, Note_off_c, 6, 71, 64
12, 18336, Note_on_c, 6, 71, 90
12, 18384, Note_off_c, 6, 71, 64
12, 18528, Note_on_c, 6, 71, 90
12, 18576, Note_off_c, 6, 71, 64
12, 18624, Note_on_c, 6, 70, 90
12, 18672, Note_off_c, 6, 70, 64
12, 18720, Note_on_c, 6, 73, 90
12, 18768, Note_off_c, 6, 73, 64
12, 18816, Note_on_c, 6, 71, 90
12, 18864, Note_off_c, 6, 71, 64
12, 18912, Note_on_c, 6, 71, 90
12, 18960, Note_off_c, 6, 71, 64
12, 19104, Note_on_c, 6, 68, 90
12, 19152, Note_off_c, 6, 68, 64
12, 19200, Note_on_c, 6, 71, 90
12, 19248, Note_off_c, 6, 71, 64
12, 19296, Note_on_c, 6, 71, 90
12, 19488, Note_off_c, 6, 71, 64
12, 19488, Note_on_c, 6, 69, 90
12, 19584, Note_off_c, 6, 69, 64
12, 19584, Note_on_c, 6, 71, 90
12, 19872, Note_off_c, 6, 71, 64
12, 19872, Note_on_c, 6, 74, 90
12, 19968, Note_off_c, 6, 74, 64
12, 20064, Note_on_c, 6, 74, 90
12, 20160, Note_off_c, 6, 74, 64
12, 20160, Note_on_c, 6, 69, 90
12, 20256, Note_off_c, 6, 69, 64
12, 20256, Note_on_c, 6, 74, 90
12, 20304, Note_off_c, 6, 74, 64
12, 20352, Note_on_c, 6, 73, 90
12, 20400, Note_off_c, 6, 73, 64
12, 20448, Note_on_c, 6, 73, 90
12, 20496, Note_off_c, 6, 73, 64
12, 20544, Note_on_c, 6, 71, 90
12, 20592, Note_off_c, 6, 71, 64
12, 20640, Note_on_c, 6, 71, 90
12, 20688, Note_off_c, 6, 71, 64
12, 20832, Note_on_c, 6, 71, 90
12, 20880, Note_off_c, 6, 71, 64
12, 20928, Note_on_c, 6, 70, 90
12, 20976, Note_off_c, 6, 70, 64
12, 21024, Note_on_c, 6, 70, 90
12, 21072, Note_off_c, 6, 70, 64
12, 21120, Note_on_c, 6, 71, 90
12, 21168, Note_off_c, 6, 71, 64
12, 21216, Note_on_c, 6, 71, 90
12, 21264, Note_off_c, 6, 71, 64
12, 21696, Note_on_c, 6, 69, 90
12, 21744, Note_off_c, 6, 69, 64
12, 21792, Note_on_c, 6, 69, 90
12, 21840, Note_off_c, 6, 69, 64
12, 21888, Note_on_c, 6, 73, 90
12, 21912, Note_off_c, 6, 73, 64
12, 21912, Note_on_c, 6, 74, 90
12, 21936, Note_off_c, 6, 74, 64
12, 21936, Note_on_c, 6, 73, 90
12, 21984, Note_off_c, 6, 73, 64
12, 22272, Note_on_c, 6, 69, 90
12, 22320, Note_off_c, 6, 69, 64
12, 22368, Note_on_c, 6, 69, 90
12, 22416, Note_off_c, 6, 69, 64
12, 22464, Note_on_c, 6, 73, 90
12, 22488, Note_off_c, 6, 73, 64
12, 22488, Note_on_c, 6, 74, 90
12, 22512, Note_off_c, 6, 74, 64
12, 22512, Note_on_c, 6, 73, 90
12, 22560, Note_off_c, 6, 73, 64
12, 22560, Note_on_c, 6, 74, 90
12, 22608, Note_off_c, 6, 74, 64
12, 22656, Note_on_c, 6, 73, 90
12, 22704, Note_off_c, 6, 73, 64
12, 22752, Note_on_c, 6, 73, 90
12, 22800, Note_off_c, 6, 73, 64
12, 22848, Note_on_c, 6, 71, 90
12, 22896, Note_off_c, 6, 71, 64
12, 22944, Note_on_c, 6, 71, 90
12, 22992, Note_off_c, 6, 71, 64
12, 23136, Note_on_c, 6, 71, 90
12, 23184, Note_off_c, 6, 71, 64
12, 23232, Note_on_c, 6, 70, 90
12, 23280, Note_off_c, 6, 70, 64
12, 23328, Note_on_c, 6, 73, 90
12, 23376, Note_off_c, 6, 73, 64
12, 23424, Note_on_c, 6, 71, 90
12, 23472, Note_off_c, 6, 71, 64
12, 23520, Note_on_c, 6, 71, 90
12, 23568, Note_off_c, 6, 71, 64
12, 23712, Note_on_c, 6, 68, 90
12, 23760, Note_off_c, 6, 68, 64
12, 23808, Note_on_c, 6, 71, 90
12, 23856, Note_off_c, 6, 71, 64
12, 23904, Note_on_c, 6, 71, 90
12, 24096, Note_off_c, 6, 71, 64
12, 24096, Note_on_c, 6, 69, 90
12, 24192, Note_off_c, 6, 69, 64
12, 24192, Note_on_c, 6, 71, 90
12, 24480, Note_off_c, 6, 71, 64
12, 24480, Note_on_c, 6, 74, 90
12, 24576, Note_off_c, 6, 74, 64
12, 24672, Note_on_c, 6, 74, 90
12, 24768, Note_off_c, 6, 74, 64
12, 24768, Note_on_c, 6, 69, 90
12, 24864, Note_off_c, 6, 69, 64
12, 24960, Note_on_c, 6, 69, 90
12, 25008, Note_off_c, 6, 69, 64
12, 25056, Note_on_c, 6, 67, 90
12, 25104, Note_off_c, 6, 67, 64
12, 25152, Note_on_c, 6, 61, 90
12, 25248, Note_off_c, 6, 61, 64
12, 25248, Note_on_c, 6, 69, 90
12, 25296, Note_off_c, 6, 69, 64
12, 25344, Note_on_c, 6, 67, 90
12, 25392, Note_off_c, 6, 67, 64
12, 25440, Note_on_c, 6, 61, 90
12, 25536, Note_off_c, 6, 61, 64
12, 25536, Note_on_c, 6, 69, 90
12, 25632, Note_off_c, 6, 69, 64
12, 25632, Note_on_c, 6, 67, 90
12, 25728, Note_off_c, 6, 67, 64
12, 25728, Note_on_c, 6, 61, 90
12, 25824, Note_off_c, 6, 61, 64
12, 25824, Note_on_c, 6, 69, 90
12, 25920, Note_off_c, 6, 69, 64
12, 25920, Note_on_c, 6, 67, 90
12, 26016, Note_off_c, 6, 67, 64
12, 26016, Note_on_c, 6, 61, 90
12, 26112, Note_off_c, 6, 61, 64
12, 26112, Note_on_c, 6, 69, 90
12, 26208, Note_off_c, 6, 69, 64
12, 26208, Note_on_c, 6, 66, 90
12, 26304, Note_off_c, 6, 66, 64
12, 26304, Note_on_c, 6, 62, 90
12, 26400, Note_off_c, 6, 62, 64
12, 26400, Note_on_c, 6, 69, 90
12, 26448, Note_off_c, 6, 69, 64
12, 26496, Note_on_c, 6, 66, 90
12, 26592, Note_off_c, 6, 66, 64
12, 26592, Note_on_c, 6, 62, 90
12, 26688, Note_off_c, 6, 62, 64
12, 26688, Note_on_c, 6, 69, 90
12, 26784, Note_off_c, 6, 69, 64
12, 26784, Note_on_c, 6, 66, 90
12, 26880, Note_off_c, 6, 66, 64
12, 26880, Note_on_c, 6, 62, 90
12, 26976, Note_off_c, 6, 62, 64
12, 26976, Note_on_c, 6, 69, 90
12, 27072, Note_off_c, 6, 69, 64
12, 27072, Note_on_c, 6, 66, 90
12, 27168, Note_off_c, 6, 66, 64
12, 27168, Note_on_c, 6, 62, 90
12, 27264, Note_off_c, 6, 62, 64
12, 27264, Note_on_c, 6, 69, 90
12, 27360, Note_off_c, 6, 69, 64
12, 27360, Note_on_c, 6, 67, 90
12, 27408, Note_off_c, 6, 67, 64
12, 27456, Note_on_c, 6, 61, 90
12, 27552, Note_off_c, 6, 61, 64
12, 27552, Note_on_c, 6, 69, 90
12, 27600, Note_off_c, 6, 69, 64
12, 27648, Note_on_c, 6, 67, 90
12, 27696, Note_off_c, 6, 67, 64
12, 27744, Note_on_c, 6, 61, 90
12, 27840, Note_off_c, 6, 61, 64
12, 27840, Note_on_c, 6, 69, 90
12, 27936, Note_off_c, 6, 69, 64
12, 27936, Note_on_c, 6, 67, 90
12, 28032, Note_off_c, 6, 67, 64
12, 28032, Note_on_c, 6, 61, 90
12, 28128, Note_off_c, 6, 61, 64
12, 28128, Note_on_c, 6, 69, 90
12, 28224, Note_off_c, 6, 69, 64
12, 28224, Note_on_c, 6, 67, 90
12, 28320, Note_off_c, 6, 67, 64
12, 28320, Note_on_c, 6, 61, 90
12, 28416, Note_off_c, 6, 61, 64
12, 28416, Note_on_c, 6, 69, 90
12, 28512, Note_off_c, 6, 69, 64
12, 28512, Note_on_c, 6, 74, 90
12, 28608, Note_off_c, 6, 74, 64
12, 28608, Note_on_c, 6, 73, 90
12, 28704, Note_off_c, 6, 73, 64
12, 28704, Note_on_c, 6, 72, 90
12, 28800, Note_off_c, 6, 72, 64
12, 28800, Note_on_c, 6, 78, 90
12, 28992, Note_off_c, 6, 78, 64
12, 28992, Note_on_c, 6, 76, 90
12, 29088, Note_off_c, 6, 76, 64
12, 29088, Note_on_c, 6, 74, 90
12, 29184, Note_off_c, 6, 74, 64
12, 29280, Note_on_c, 6, 67, 90
12, 29376, Note_off_c, 6, 67, 64
12, 29376, Note_on_c, 6, 66, 90
12, 29472, Note_off_c, 6, 66, 64
12, 29568, Note_on_c, 6, 69, 90
12, 29664, Note_off_c, 6, 69, 64
12, 29664, Note_on_c, 6, 67, 90
12, 29712, Note_off_c, 6, 67, 64
12, 29760, Note_on_c, 6, 61, 90
12, 29856, Note_off_c, 6, 61, 64
12, 29856, Note_on_c, 6, 69, 90
12, 29904, Note_off_c, 6, 69, 64
12, 29952, Note_on_c, 6, 67, 90
12, 30000, Note_off_c, 6, 67, 64
12, 30048, Note_on_c, 6, 61, 90
12, 30144, Note_off_c, 6, 61, 64
12, 30144, Note_on_c, 6, 69, 90
12, 30240, Note_off_c, 6, 69, 64
12, 30240, Note_on_c, 6, 67, 90
12, 30336, Note_off_c, 6, 67, 64
12, 30336, Note_on_c, 6, 61, 90
12, 30432, Note_off_c, 6, 61, 64
12, 30432, Note_on_c, 6, 69, 90
12, 30528, Note_off_c, 6, 69, 64
12, 30528, Note_on_c, 6, 67, 90
12, 30624, Note_off_c, 6, 67, 64
12, 30624, Note_on_c, 6, 61, 90
12, 30720, Note_off_c, 6, 61, 64
12, 30720, Note_on_c, 6, 69, 90
12, 30816, Note_off_c, 6, 69, 64
12, 30816, Note_on_c, 6, 66, 90
12, 30912, Note_off_c, 6, 66, 64
12, 30912, Note_on_c, 6, 62, 90
12, 31008, Note_off_c, 6, 62, 64
12, 31008, Note_on_c, 6, 69, 90
12, 31056, Note_off_c, 6, 69, 64
12, 31104, Note_on_c, 6, 66, 90
12, 31200, Note_off_c, 6, 66, 64
12, 31200, Note_on_c, 6, 62, 90
12, 31296, Note_off_c, 6, 62, 64
12, 31296, Note_on_c, 6, 69, 90
12, 31392, Note_off_c, 6, 69, 64
12, 31392, Note_on_c, 6, 66, 90
12, 31488, Note_off_c, 6, 66, 64
12, 31488, Note_on_c, 6, 62, 90
12, 31584, Note_off_c, 6, 62, 64
12, 31584, Note_on_c, 6, 69, 90
12, 31680, Note_off_c, 6, 69, 64
12, 31680, Note_on_c, 6, 66, 90
12, 31776, Note_off_c, 6, 66, 64
12, 31776, Note_on_c, 6, 62, 90
12, 31872, Note_off_c, 6, 62, 64
12, 31872, Note_on_c, 6, 69, 90
12, 31968, Note_off_c, 6, 69, 64
12, 31968, Note_on_c, 6, 67, 90
12, 32016, Note_off_c, 6, 67, 64
12, 32064, Note_on_c, 6, 61, 90
12, 32160, Note_off_c, 6, 61, 64
12, 32160, Note_on_c, 6, 69, 90
12, 32208, Note_off_c, 6, 69, 64
12, 32256, Note_on_c, 6, 67, 90
12, 32304, Note_off_c, 6, 67, 64
12, 32352, Note_on_c, 6, 61, 90
12, 32448, Note_off_c, 6, 61, 64
12, 32448, Note_on_c, 6, 69, 90
12, 32544, Note_off_c, 6, 69, 64
12, 32544, Note_on_c, 6, 67, 90
12, 32640, Note_off_c, 6, 67, 64
12, 32640, Note_on_c, 6, 61, 90
12, 32736, Note_off_c, 6, 61, 64
12, 32736, Note_on_c, 6, 69, 90
12, 32832, Note_off_c, 6, 69, 64
12, 32832, Note_on_c, 6, 67, 90
12, 32928, Note_off_c, 6, 67, 64
12, 32928, Note_on_c, 6, 61, 90
12, 33024, Note_off_c, 6, 61, 64
12, 33024, Note_on_c, 6, 69, 90
12, 33120, Note_off_c, 6, 69, 64
12, 33120, Note_on_c, 6, 74, 90
12, 33216, Note_off_c, 6, 74, 64
12, 33216, Note_on_c, 6, 73, 90
12, 33312, Note_off_c, 6, 73, 64
12, 33312, Note_on_c, 6, 72, 90
12, 33408, Note_off_c, 6, 72, 64
12, 33408, Note_on_c, 6, 78, 90
12, 33600, Note_off_c, 6, 78, 64
12, 33600, Note_on_c, 6, 76, 90
12, 33696, Note_off_c, 6, 76, 64
12, 33696, Note_on_c, 6, 74, 90
12, 33792, Note_off_c, 6, 74, 64
12, 33888, Note_on_c, 6, 67, 90
12, 33984, Note_off_c, 6, 67, 64
12, 33984, Note_on_c, 6, 66, 90
12, 34080, Note_off_c, 6, 66, 64
12, 34080, End_track
13, 0, Start_track
13, 0, MIDI_port, 0
13, 0, Title_t, "Flute               "
13, 0, Program_c, 7, 20
13, 72, Note_on_c, 7, 83, 90
13, 96, Note_off_c, 7, 83, 64
13, 96, Note_on_c, 7, 81, 90
13, 144, Note_off_c, 7, 81, 64
13, 144, Note_on_c, 7, 80, 90
13, 192, Note_off_c, 7, 80, 64
13, 192, Note_on_c, 7, 81, 90
13, 288, Note_off_c, 7, 81, 64
13, 360, Note_on_c, 7, 85, 90
13, 384, Note_off_c, 7, 85, 64
13, 384, Note_on_c, 7, 83, 90
13, 432, Note_off_c, 7, 83, 64
13, 432, Note_on_c, 7, 82, 90
13, 480, Note_off_c, 7, 82, 64
13, 480, Note_on_c, 7, 83, 90
13, 576, Note_off_c, 7, 83, 64
13, 648, Note_on_c, 7, 86, 90
13, 672, Note_off_c, 7, 86, 64
13, 672, Note_on_c, 7, 85, 90
13, 720, Note_off_c, 7, 85, 64
13, 720, Note_on_c, 7, 83, 90
13, 768, Note_off_c, 7, 83, 64
13, 768, Note_on_c, 7, 85, 90
13, 864, Note_off_c, 7, 85, 64
13, 864, Note_on_c, 7, 86, 90
13, 912, Note_off_c, 7, 86, 64
13, 960, Note_on_c, 7, 88, 90
13, 1008, Note_off_c, 7, 88, 64
13, 1056, Note_on_c, 7, 90, 90
13, 1104, Note_off_c, 7, 90, 64
13, 1224, Note_on_c, 7, 90, 90
13, 1248, Note_off_c, 7, 90, 64
13, 1248, Note_on_c, 7, 88, 90
13, 1296, Note_off_c, 7, 88, 64
13, 1296, Note_on_c, 7, 87, 90
13, 1344, Note_off_c, 7, 87, 64
13, 1344, Note_on_c, 7, 88, 90
13, 1440, Note_off_c, 7, 88, 64
13, 1512, Note_on_c, 7, 91, 90
13, 1536, Note_off_c, 7, 91, 64
13, 1536, Note_on_c, 7, 90, 90
13, 1584, Note_off_c, 7, 90, 64
13, 1584, Note_on_c, 7, 89, 90
13, 1632, Note_off_c, 7, 89, 64
13, 1632, Note_on_c, 7, 90, 90
13, 1728, Note_off_c, 7, 90, 64
13, 1800, Note_on_c, 7, 91, 90
13, 1824, Note_off_c, 7, 91, 64
13, 1824, Note_on_c, 7, 90, 90
13, 1872, Note_off_c, 7, 90, 64
13, 1872, Note_on_c, 7, 89, 90
13, 1920, Note_off_c, 7, 89, 64
13, 1920, Note_on_c, 7, 90, 90
13, 2016, Note_off_c, 7, 90, 64
13, 2016, Note_on_c, 7, 103, 90
13, 2064, Note_off_c, 7, 103, 64
13, 2112, Note_on_c, 7, 105, 90
13, 2160, Note_off_c, 7, 105, 64
13, 2208, Note_on_c, 7, 107, 90
13, 2256, Note_off_c, 7, 107, 64
13, 2688, Note_on_c, 7, 69, 90
13, 2736, Note_off_c, 7, 69, 64
13, 2784, Note_on_c, 7, 69, 90
13, 2832, Note_off_c, 7, 69, 64
13, 2880, Note_on_c, 7, 69, 90
13, 2928, Note_off_c, 7, 69, 64
13, 3264, Note_on_c, 7, 69, 90
13, 3312, Note_off_c, 7, 69, 64
13, 3360, Note_on_c, 7, 69, 90
13, 3408, Note_off_c, 7, 69, 64
13, 3456, Note_on_c, 7, 69, 90
13, 3504, Note_off_c, 7, 69, 64
13, 3744, Note_on_c, 7, 64, 90
13, 4032, Note_off_c, 7, 64, 64
13, 4032, Note_on_c, 7, 62, 90
13, 4320, Note_off_c, 7, 62, 64
13, 4320, Note_on_c, 7, 61, 90
13, 4608, Note_off_c, 7, 61, 64
13, 4608, Note_on_c, 7, 67, 90
13, 4896, Note_off_c, 7, 67, 64
13, 4896, Note_on_c, 7, 66, 90
13, 5184, Note_off_c, 7, 66, 64
13, 5184, Note_on_c, 7, 64, 90
13, 5472, Note_off_c, 7, 64, 64
13, 6792, Note_on_c, 7, 69, 90
13, 6816, Note_off_c, 7, 69, 64
13, 6816, Note_on_c, 7, 81, 90
13, 6864, Note_off_c, 7, 81, 64
13, 6912, Note_on_c, 7, 81, 90
13, 6960, Note_off_c, 7, 81, 64
13, 7080, Note_on_c, 7, 69, 90
13, 7104, Note_off_c, 7, 69, 64
13, 7104, Note_on_c, 7, 78, 90
13, 7152, Note_off_c, 7, 78, 64
13, 7200, Note_on_c, 7, 78, 90
13, 7248, Note_off_c, 7, 78, 64
13, 7944, Note_on_c, 7, 69, 90
13, 7968, Note_off_c, 7, 69, 64
13, 7968, Note_on_c, 7, 81, 90
13, 8016, Note_off_c, 7, 81, 64
13, 8064, Note_on_c, 7, 81, 90
13, 8112, Note_off_c, 7, 81, 64
13, 8232, Note_on_c, 7, 69, 90
13, 8256, Note_off_c, 7, 69, 64
13, 8256, Note_on_c, 7, 79, 90
13, 8304, Note_off_c, 7, 79, 64
13, 8352, Note_on_c, 7, 79, 90
13, 8400, Note_off_c, 7, 79, 64
13, 9096, Note_on_c, 7, 73, 90
13, 9120, Note_off_c, 7, 73, 64
13, 9120, Note_on_c, 7, 83, 90
13, 9168, Note_off_c, 7, 83, 64
13, 9216, Note_on_c, 7, 83, 90
13, 9264, Note_off_c, 7, 83, 64
13, 9384, Note_on_c, 7, 73, 90
13, 9408, Note_off_c, 7, 73, 64
13, 9408, Note_on_c, 7, 79, 90
13, 9456, Note_off_c, 7, 79, 64
13, 9504, Note_on_c, 7, 79, 90
13, 9552, Note_off_c, 7, 79, 64
13, 10248, Note_on_c, 7, 74, 90
13, 10272, Note_off_c, 7, 74, 64
13, 10272, Note_on_c, 7, 83, 90
13, 10320, Note_off_c, 7, 83, 64
13, 10368, Note_on_c, 7, 83, 90
13, 10416, Note_off_c, 7, 83, 64
13, 10536, Note_on_c, 7, 74, 90
13, 10560, Note_off_c, 7, 74, 64
13, 10560, Note_on_c, 7, 78, 90
13, 10608, Note_off_c, 7, 78, 64
13, 10656, Note_on_c, 7, 78, 90
13, 10704, Note_off_c, 7, 78, 64
13, 11400, Note_on_c, 7, 74, 90
13, 11424, Note_off_c, 7, 74, 64
13, 11424, Note_on_c, 7, 86, 90
13, 11472, Note_off_c, 7, 86, 64
13, 11520, Note_on_c, 7, 86, 90
13, 11568, Note_off_c, 7, 86, 64
13, 11688, Note_on_c, 7, 74, 90
13, 11712, Note_off_c, 7, 74, 64
13, 11712, Note_on_c, 7, 81, 90
13, 11760, Note_off_c, 7, 81, 64
13, 11808, Note_on_c, 7, 81, 90
13, 11856, Note_off_c, 7, 81, 64
13, 12552, Note_on_c, 7, 74, 90
13, 12576, Note_off_c, 7, 74, 64
13, 12576, Note_on_c, 7, 86, 90
13, 12624, Note_off_c, 7, 86, 64
13, 12672, Note_on_c, 7, 86, 90
13, 12720, Note_off_c, 7, 86, 64
13, 12840, Note_on_c, 7, 74, 90
13, 12864, Note_off_c, 7, 74, 64
13, 12864, Note_on_c, 7, 83, 90
13, 12912, Note_off_c, 7, 83, 64
13, 12960, Note_on_c, 7, 83, 90
13, 13008, Note_off_c, 7, 83, 64
13, 13152, Note_on_c, 7, 76, 90
13, 13248, Note_off_c, 7, 76, 64
13, 13248, Note_on_c, 7, 76, 90
13, 13344, Note_off_c, 7, 76, 64
13, 13344, Note_on_c, 7, 79, 90
13, 13440, Note_off_c, 7, 79, 64
13, 13440, Note_on_c, 7, 83, 90
13, 13488, Note_off_c, 7, 83, 64
13, 13536, Note_on_c, 7, 83, 90
13, 13920, Note_off_c, 7, 83, 64
13, 13920, Note_on_c, 7, 80, 90
13, 14016, Note_off_c, 7, 80, 64
13, 14016, Note_on_c, 7, 81, 90
13, 14112, Note_off_c, 7, 81, 64
13, 14112, Note_on_c, 7, 90, 90
13, 14496, Note_off_c, 7, 90, 64
13, 14496, Note_on_c, 7, 86, 90
13, 14592, Note_off_c, 7, 86, 64
13, 14592, Note_on_c, 7, 78, 90
13, 14688, Note_off_c, 7, 78, 64
13, 14688, Note_on_c, 7, 78, 90
13, 14880, Note_off_c, 7, 78, 64
13, 14880, Note_on_c, 7, 76, 90
13, 14976, Note_off_c, 7, 76, 64
13, 14976, Note_on_c, 7, 83, 90
13, 15168, Note_off_c, 7, 83, 64
13, 15168, Note_on_c, 7, 81, 90
13, 15264, Note_off_c, 7, 81, 64
13, 15264, Note_on_c, 7, 74, 90
13, 15360, Note_off_c, 7, 74, 64
13, 15456, Note_on_c, 7, 74, 90
13, 15552, Note_off_c, 7, 74, 64
13, 15648, Note_on_c, 7, 86, 90
13, 15696, Note_off_c, 7, 86, 64
13, 15744, Note_on_c, 7, 85, 90
13, 15792, Note_off_c, 7, 85, 64
13, 15840, Note_on_c, 7, 85, 90
13, 15888, Note_off_c, 7, 85, 64
13, 15936, Note_on_c, 7, 83, 90
13, 15984, Note_off_c, 7, 83, 64
13, 16032, Note_on_c, 7, 83, 90
13, 16080, Note_off_c, 7, 83, 64
13, 16224, Note_on_c, 7, 83, 90
13, 16272, Note_off_c, 7, 83, 64
13, 16320, Note_on_c, 7, 82, 90
13, 16368, Note_off_c, 7, 82, 64
13, 16416, Note_on_c, 7, 82, 90
13, 16464, Note_off_c, 7, 82, 64
13, 16512, Note_on_c, 7, 83, 90
13, 16560, Note_off_c, 7, 83, 64
13, 16608, Note_on_c, 7, 83, 90
13, 16656, Note_off_c, 7, 83, 64
13, 17088, Note_on_c, 7, 61, 90
13, 17184, Note_off_c, 7, 61, 64
13, 17184, Note_on_c, 7, 61, 90
13, 17280, Note_off_c, 7, 61, 64
13, 17280, Note_on_c, 7, 61, 90
13, 17376, Note_off_c, 7, 61, 64
13, 17664, Note_on_c, 7, 64, 90
13, 17760, Note_off_c, 7, 64, 64
13, 17760, Note_on_c, 7, 64, 90
13, 17856, Note_off_c, 7, 64, 64
13, 17856, Note_on_c, 7, 64, 90
13, 17952, Note_off_c, 7, 64, 64
13, 17952, Note_on_c, 7, 86, 90
13, 18000, Note_off_c, 7, 86, 64
13, 18048, Note_on_c, 7, 85, 90
13, 18096, Note_off_c, 7, 85, 64
13, 18144, Note_on_c, 7, 85, 90
13, 18192, Note_off_c, 7, 85, 64
13, 18240, Note_on_c, 7, 83, 90
13, 18288, Note_off_c, 7, 83, 64
13, 18336, Note_on_c, 7, 83, 90
13, 18384, Note_off_c, 7, 83, 64
13, 18528, Note_on_c, 7, 83, 90
13, 18576, Note_off_c, 7, 83, 64
13, 18624, Note_on_c, 7, 85, 90
13, 18672, Note_off_c, 7, 85, 64
13, 18720, Note_on_c, 7, 88, 90
13, 18768, Note_off_c, 7, 88, 64
13, 18816, Note_on_c, 7, 86, 90
13, 18864, Note_off_c, 7, 86, 64
13, 18912, Note_on_c, 7, 86, 90
13, 18960, Note_off_c, 7, 86, 64
13, 19104, Note_on_c, 7, 80, 90
13, 19152, Note_off_c, 7, 80, 64
13, 19200, Note_on_c, 7, 83, 90
13, 19248, Note_off_c, 7, 83, 64
13, 19296, Note_on_c, 7, 83, 90
13, 19488, Note_off_c, 7, 83, 64
13, 19488, Note_on_c, 7, 81, 90
13, 19584, Note_off_c, 7, 81, 64
13, 19584, Note_on_c, 7, 92, 90
13, 19728, Note_off_c, 7, 92, 64
13, 19728, Note_on_c, 7, 90, 90
13, 19776, Note_off_c, 7, 90, 64
13, 19776, Note_on_c, 7, 86, 90
13, 19824, Note_off_c, 7, 86, 64
13, 19824, Note_on_c, 7, 83, 90
13, 19872, Note_off_c, 7, 83, 64
13, 19872, Note_on_c, 7, 93, 90
13, 19920, Note_off_c, 7, 93, 64
13, 19920, Note_on_c, 7, 93, 90
13, 19968, Note_off_c, 7, 93, 64
13, 19968, Note_on_c, 7, 93, 90
13, 20064, Note_off_c, 7, 93, 64
13, 20064, Note_on_c, 7, 92, 90
13, 20160, Note_off_c, 7, 92, 64
13, 20160, Note_on_c, 7, 81, 90
13, 20256, Note_off_c, 7, 81, 64
13, 20256, Note_on_c, 7, 86, 90
13, 20304, Note_off_c, 7, 86, 64
13, 20352, Note_on_c, 7, 85, 90
13, 20400, Note_off_c, 7, 85, 64
13, 20448, Note_on_c, 7, 85, 90
13, 20496, Note_off_c, 7, 85, 64
13, 20544, Note_on_c, 7, 83, 90
13, 20592, Note_off_c, 7, 83, 64
13, 20640, Note_on_c, 7, 83, 90
13, 20688, Note_off_c, 7, 83, 64
13, 20832, Note_on_c, 7, 83, 90
13, 20880, Note_off_c, 7, 83, 64
13, 20928, Note_on_c, 7, 82, 90
13, 20976, Note_off_c, 7, 82, 64
13, 21024, Note_on_c, 7, 82, 90
13, 21072, Note_off_c, 7, 82, 64
13, 21120, Note_on_c, 7, 83, 90
13, 21168, Note_off_c, 7, 83, 64
13, 21216, Note_on_c, 7, 83, 90
13, 21264, Note_off_c, 7, 83, 64
13, 21696, Note_on_c, 7, 61, 90
13, 21792, Note_off_c, 7, 61, 64
13, 21792, Note_on_c, 7, 61, 90
13, 21888, Note_off_c, 7, 61, 64
13, 21888, Note_on_c, 7, 61, 90
13, 21984, Note_off_c, 7, 61, 64
13, 22272, Note_on_c, 7, 64, 90
13, 22368, Note_off_c, 7, 64, 64
13, 22368, Note_on_c, 7, 64, 90
13, 22464, Note_off_c, 7, 64, 64
13, 22464, Note_on_c, 7, 64, 90
13, 22560, Note_off_c, 7, 64, 64
13, 22560, Note_on_c, 7, 86, 90
13, 22608, Note_off_c, 7, 86, 64
13, 22656, Note_on_c, 7, 85, 90
13, 22704, Note_off_c, 7, 85, 64
13, 22752, Note_on_c, 7, 85, 90
13, 22800, Note_off_c, 7, 85, 64
13, 22848, Note_on_c, 7, 83, 90
13, 22896, Note_off_c, 7, 83, 64
13, 22944, Note_on_c, 7, 83, 90
13, 22992, Note_off_c, 7, 83, 64
13, 23136, Note_on_c, 7, 83, 90
13, 23184, Note_off_c, 7, 83, 64
13, 23232, Note_on_c, 7, 85, 90
13, 23280, Note_off_c, 7, 85, 64
13, 23328, Note_on_c, 7, 88, 90
13, 23376, Note_off_c, 7, 88, 64
13, 23424, Note_on_c, 7, 86, 90
13, 23472, Note_off_c, 7, 86, 64
13, 23520, Note_on_c, 7, 86, 90
13, 23568, Note_off_c, 7, 86, 64
13, 23712, Note_on_c, 7, 80, 90
13, 23760, Note_off_c, 7, 80, 64
13, 23808, Note_on_c, 7, 83, 90
13, 23856, Note_off_c, 7, 83, 64
13, 23904, Note_on_c, 7, 83, 90
13, 24096, Note_off_c, 7, 83, 64
13, 24096, Note_on_c, 7, 81, 90
13, 24192, Note_off_c, 7, 81, 64
13, 24192, Note_on_c, 7, 92, 90
13, 24336, Note_off_c, 7, 92, 64
13, 24336, Note_on_c, 7, 90, 90
13, 24384, Note_off_c, 7, 90, 64
13, 24384, Note_on_c, 7, 86, 90
13, 24432, Note_off_c, 7, 86, 64
13, 24432, Note_on_c, 7, 83, 90
13, 24480, Note_off_c, 7, 83, 64
13, 24480, Note_on_c, 7, 93, 90
13, 24528, Note_off_c, 7, 93, 64
13, 24528, Note_on_c, 7, 93, 90
13, 24576, Note_off_c, 7, 93, 64
13, 24576, Note_on_c, 7, 93, 90
13, 24672, Note_off_c, 7, 93, 64
13, 24672, Note_on_c, 7, 92, 90
13, 24768, Note_off_c, 7, 92, 64
13, 24768, Note_on_c, 7, 81, 90
13, 24864, Note_off_c, 7, 81, 64
13, 24960, Note_on_c, 7, 81, 90
13, 25008, Note_off_c, 7, 81, 64
13, 25056, Note_on_c, 7, 79, 90
13, 25152, Note_off_c, 7, 79, 64
13, 25248, Note_on_c, 7, 81, 90
13, 25296, Note_off_c, 7, 81, 64
13, 25344, Note_on_c, 7, 79, 90
13, 25392, Note_off_c, 7, 79, 64
13, 25536, Note_on_c, 7, 81, 90
13, 25632, Note_off_c, 7, 81, 64
13, 25632, Note_on_c, 7, 90, 90
13, 26016, Note_off_c, 7, 90, 64
13, 26016, Note_on_c, 7, 88, 90
13, 26112, Note_off_c, 7, 88, 64
13, 26112, Note_on_c, 7, 81, 90
13, 26208, Note_off_c, 7, 81, 64
13, 26208, Note_on_c, 7, 78, 90
13, 26256, Note_off_c, 7, 78, 64
13, 26400, Note_on_c, 7, 81, 90
13, 26448, Note_off_c, 7, 81, 64
13, 26496, Note_on_c, 7, 78, 90
13, 26544, Note_off_c, 7, 78, 64
13, 26688, Note_on_c, 7, 81, 90
13, 26784, Note_off_c, 7, 81, 64
13, 26784, Note_on_c, 7, 88, 90
13, 27168, Note_off_c, 7, 88, 64
13, 27168, Note_on_c, 7, 86, 90
13, 27264, Note_off_c, 7, 86, 64
13, 27264, Note_on_c, 7, 81, 90
13, 27360, Note_off_c, 7, 81, 64
13, 27360, Note_on_c, 7, 79, 90
13, 27408, Note_off_c, 7, 79, 64
13, 27552, Note_on_c, 7, 81, 90
13, 27600, Note_off_c, 7, 81, 64
13, 27648, Note_on_c, 7, 79, 90
13, 27696, Note_off_c, 7, 79, 64
13, 27840, Note_on_c, 7, 81, 90
13, 27936, Note_off_c, 7, 81, 64
13, 27936, Note_on_c, 7, 90, 90
13, 28320, Note_off_c, 7, 90, 64
13, 28320, Note_on_c, 7, 88, 90
13, 28416, Note_off_c, 7, 88, 64
13, 28416, Note_on_c, 7, 81, 90
13, 28512, Note_off_c, 7, 81, 64
13, 28512, Note_on_c, 7, 86, 90
13, 28608, Note_off_c, 7, 86, 64
13, 28608, Note_on_c, 7, 88, 90
13, 28704, Note_off_c, 7, 88, 64
13, 28704, Note_on_c, 7, 90, 90
13, 28800, Note_off_c, 7, 90, 64
13, 28800, Note_on_c, 7, 93, 90
13, 28992, Note_off_c, 7, 93, 64
13, 28992, Note_on_c, 7, 91, 90
13, 29088, Note_off_c, 7, 91, 64
13, 29088, Note_on_c, 7, 90, 90
13, 29136, Note_off_c, 7, 90, 64
13, 29136, Note_on_c, 7, 90, 90
13, 29184, Note_off_c, 7, 90, 64
13, 29184, Note_on_c, 7, 90, 90
13, 29280, Note_off_c, 7, 90, 64
13, 29280, Note_on_c, 7, 88, 90
13, 29304, Note_off_c, 7, 88, 64
13, 29304, Note_on_c, 7, 81, 90
13, 29328, Note_off_c, 7, 81, 64
13, 29376, Note_on_c, 7, 86, 90
13, 29472, Note_off_c, 7, 86, 64
13, 29568, Note_on_c, 7, 81, 90
13, 29616, Note_off_c, 7, 81, 64
13, 29664, Note_on_c, 7, 79, 90
13, 29760, Note_off_c, 7, 79, 64
13, 29856, Note_on_c, 7, 81, 90
13, 29904, Note_off_c, 7, 81, 64
13, 29952, Note_on_c, 7, 79, 90
13, 30000, Note_off_c, 7, 79, 64
13, 30144, Note_on_c, 7, 81, 90
13, 30240, Note_off_c, 7, 81, 64
13, 30240, Note_on_c, 7, 90, 90
13, 30624, Note_off_c, 7, 90, 64
13, 30624, Note_on_c, 7, 88, 90
13, 30720, Note_off_c, 7, 88, 64
13, 30720, Note_on_c, 7, 81, 90
13, 30816, Note_off_c, 7, 81, 64
13, 30816, Note_on_c, 7, 78, 90
13, 30864, Note_off_c, 7, 78, 64
13, 31008, Note_on_c, 7, 81, 90
13, 31056, Note_off_c, 7, 81, 64
13, 31104, Note_on_c, 7, 78, 90
13, 31152, Note_off_c, 7, 78, 64
13, 31296, Note_on_c, 7, 81, 90
13, 31392, Note_off_c, 7, 81, 64
13, 31392, Note_on_c, 7, 88, 90
13, 31776, Note_off_c, 7, 88, 64
13, 31776, Note_on_c, 7, 86, 90
13, 31872, Note_off_c, 7, 86, 64
13, 31872, Note_on_c, 7, 81, 90
13, 31968, Note_off_c, 7, 81, 64
13, 31968, Note_on_c, 7, 79, 90
13, 32016, Note_off_c, 7, 79, 64
13, 32160, Note_on_c, 7, 81, 90
13, 32208, Note_off_c, 7, 81, 64
13, 32256, Note_on_c, 7, 79, 90
13, 32304, Note_off_c, 7, 79, 64
13, 32448, Note_on_c, 7, 81, 90
13, 32544, Note_off_c, 7, 81, 64
13, 32544, Note_on_c, 7, 90, 90
13, 32928, Note_off_c, 7, 90, 64
13, 32928, Note_on_c, 7, 88, 90
13, 33024, Note_off_c, 7, 88, 64
13, 33024, Note_on_c, 7, 81, 90
13, 33120, Note_off_c, 7, 81, 64
13, 33120, Note_on_c, 7, 86, 90
13, 33216, Note_off_c, 7, 86, 64
13, 33216, Note_on_c, 7, 88, 90
13, 33312, Note_off_c, 7, 88, 64
13, 33312, Note_on_c, 7, 90, 90
13, 33408, Note_off_c, 7, 90, 64
13, 33408, Note_on_c, 7, 93, 90
13, 33600, Note_off_c, 7, 93, 64
13, 33600, Note_on_c, 7, 91, 90
13, 33696, Note_off_c, 7, 91, 64
13, 33696, Note_on_c, 7, 90, 90
13, 33744, Note_off_c, 7, 90, 64
13, 33744, Note_on_c, 7, 90, 90
13, 33792, Note_off_c, 7, 90, 64
13, 33792, Note_on_c, 7, 90, 90
13, 33888, Note_off_c, 7, 90, 64
13, 33888, Note_on_c, 7, 88, 90
13, 33912, Note_off_c, 7, 88, 64
13, 33912, Note_on_c, 7, 81, 90
13, 33936, Note_off_c, 7, 81, 64
13, 33984, Note_on_c, 7, 86, 90
13, 34080, Note_off_c, 7, 86, 64
13, 34080, End_track
14, 0, Start_track
14, 0, MIDI_port, 0
14, 0, Title_t, "Trumpet             "
14, 0, Program_c, 8, 15
14, 0, Note_on_c, 8, 69, 90
14, 2064, Note_off_c, 8, 69, 64
14, 2400, Note_on_c, 8, 79, 90
14, 2448, Note_off_c, 8, 79, 64
14, 2448, Note_on_c, 8, 81, 90
14, 2496, Note_off_c, 8, 81, 64
14, 2496, Note_on_c, 8, 83, 90
14, 2544, Note_off_c, 8, 83, 64
14, 2544, Note_on_c, 8, 69, 90
14, 2592, Note_off_c, 8, 69, 64
14, 2592, Note_on_c, 8, 79, 90
14, 2976, Note_off_c, 8, 79, 64
14, 2976, Note_on_c, 8, 79, 90
14, 3024, Note_off_c, 8, 79, 64
14, 3024, Note_on_c, 8, 81, 90
14, 3072, Note_off_c, 8, 81, 64
14, 3072, Note_on_c, 8, 83, 90
14, 3120, Note_off_c, 8, 83, 64
14, 3120, Note_on_c, 8, 69, 90
14, 3168, Note_off_c, 8, 69, 64
14, 3168, Note_on_c, 8, 78, 90
14, 3552, Note_off_c, 8, 78, 64
14, 3552, Note_on_c, 8, 78, 90
14, 3600, Note_off_c, 8, 78, 64
14, 3600, Note_on_c, 8, 79, 90
14, 3648, Note_off_c, 8, 79, 64
14, 3648, Note_on_c, 8, 81, 90
14, 3696, Note_off_c, 8, 81, 64
14, 3696, Note_on_c, 8, 69, 90
14, 3744, Note_off_c, 8, 69, 64
14, 3744, Note_on_c, 8, 76, 90
14, 3768, Note_off_c, 8, 76, 64
14, 3840, Note_on_c, 8, 91, 90
14, 3864, Note_off_c, 8, 91, 64
14, 3936, Note_on_c, 8, 81, 90
14, 3960, Note_off_c, 8, 81, 64
14, 4032, Note_on_c, 8, 86, 90
14, 4056, Note_off_c, 8, 86, 64
14, 4128, Note_on_c, 8, 91, 90
14, 4152, Note_off_c, 8, 91, 64
14, 4224, Note_on_c, 8, 81, 90
14, 4248, Note_off_c, 8, 81, 64
14, 4320, Note_on_c, 8, 85, 90
14, 4344, Note_off_c, 8, 85, 64
14, 4416, Note_on_c, 8, 91, 90
14, 4440, Note_off_c, 8, 91, 64
14, 4512, Note_on_c, 8, 81, 90
14, 4536, Note_off_c, 8, 81, 64
14, 4608, Note_on_c, 8, 83, 90
14, 4632, Note_off_c, 8, 83, 64
14, 4704, Note_on_c, 8, 88, 90
14, 4728, Note_off_c, 8, 88, 64
14, 4800, Note_on_c, 8, 79, 90
14, 4824, Note_off_c, 8, 79, 64
14, 4896, Note_on_c, 8, 81, 90
14, 4920, Note_off_c, 8, 81, 64
14, 4992, Note_on_c, 8, 86, 90
14, 5016, Note_off_c, 8, 86, 64
14, 5088, Note_on_c, 8, 78, 90
14, 5112, Note_off_c, 8, 78, 64
14, 5184, Note_on_c, 8, 79, 90
14, 5208, Note_off_c, 8, 79, 64
14, 5280, Note_on_c, 8, 85, 90
14, 5304, Note_off_c, 8, 85, 64
14, 5376, Note_on_c, 8, 76, 90
14, 5400, Note_off_c, 8, 76, 64
14, 6792, Note_on_c, 8, 69, 90
14, 6816, Note_off_c, 8, 69, 64
14, 6816, Note_on_c, 8, 81, 90
14, 6864, Note_off_c, 8, 81, 64
14, 6912, Note_on_c, 8, 81, 90
14, 6960, Note_off_c, 8, 81, 64
14, 7080, Note_on_c, 8, 69, 90
14, 7104, Note_off_c, 8, 69, 64
14, 7104, Note_on_c, 8, 78, 90
14, 7152, Note_off_c, 8, 78, 64
14, 7200, Note_on_c, 8, 78, 90
14, 7248, Note_off_c, 8, 78, 64
14, 7944, Note_on_c, 8, 69, 90
14, 7968, Note_off_c, 8, 69, 64
14, 7968, Note_on_c, 8, 81, 90
14, 8016, Note_off_c, 8, 81, 64
14, 8064, Note_on_c, 8, 81, 90
14, 8112, Note_off_c, 8, 81, 64
14, 8232, Note_on_c, 8, 69, 90
14, 8256, Note_off_c, 8, 69, 64
14, 8256, Note_on_c, 8, 79, 90
14, 8304, Note_off_c, 8, 79, 64
14, 8352, Note_on_c, 8, 79, 90
14, 8400, Note_off_c, 8, 79, 64
14, 9096, Note_on_c, 8, 73, 90
14, 9120, Note_off_c, 8, 73, 64
14, 9120, Note_on_c, 8, 83, 90
14, 9168, Note_off_c, 8, 83, 64
14, 9216, Note_on_c, 8, 83, 90
14, 9264, Note_off_c, 8, 83, 64
14, 9384, Note_on_c, 8, 73, 90
14, 9408, Note_off_c, 8, 73, 64
14, 9408, Note_on_c, 8, 79, 90
14, 9456, Note_off_c, 8, 79, 64
14, 9504, Note_on_c, 8, 79, 90
14, 9552, Note_off_c, 8, 79, 64
14, 10248, Note_on_c, 8, 74, 90
14, 10272, Note_off_c, 8, 74, 64
14, 10272, Note_on_c, 8, 83, 90
14, 10320, Note_off_c, 8, 83, 64
14, 10368, Note_on_c, 8, 83, 90
14, 10416, Note_off_c, 8, 83, 64
14, 10536, Note_on_c, 8, 74, 90
14, 10560, Note_off_c, 8, 74, 64
14, 10560, Note_on_c, 8, 78, 90
14, 10608, Note_off_c, 8, 78, 64
14, 10656, Note_on_c, 8, 78, 90
14, 10704, Note_off_c, 8, 78, 64
14, 11400, Note_on_c, 8, 74, 90
14, 11424, Note_off_c, 8, 74, 64
14, 11424, Note_on_c, 8, 81, 90
14, 11472, Note_off_c, 8, 81, 64
14, 11520, Note_on_c, 8, 81, 90
14, 11568, Note_off_c, 8, 81, 64
14, 11688, Note_on_c, 8, 74, 90
14, 11712, Note_off_c, 8, 74, 64
14, 11712, Note_on_c, 8, 78, 90
14, 11760, Note_off_c, 8, 78, 64
14, 11808, Note_on_c, 8, 78, 90
14, 11856, Note_off_c, 8, 78, 64
14, 12552, Note_on_c, 8, 74, 90
14, 12576, Note_off_c, 8, 74, 64
14, 12576, Note_on_c, 8, 83, 90
14, 12624, Note_off_c, 8, 83, 64
14, 12672, Note_on_c, 8, 83, 90
14, 12720, Note_off_c, 8, 83, 64
14, 12840, Note_on_c, 8, 74, 90
14, 12864, Note_off_c, 8, 74, 64
14, 12864, Note_on_c, 8, 76, 90
14, 12912, Note_off_c, 8, 76, 64
14, 12960, Note_on_c, 8, 76, 90
14, 13008, Note_off_c, 8, 76, 64
14, 13152, Note_on_c, 8, 76, 90
14, 13248, Note_off_c, 8, 76, 64
14, 13248, Note_on_c, 8, 76, 90
14, 13344, Note_off_c, 8, 76, 64
14, 13344, Note_on_c, 8, 79, 90
14, 13440, Note_off_c, 8, 79, 64
14, 13440, Note_on_c, 8, 83, 90
14, 13488, Note_off_c, 8, 83, 64
14, 13536, Note_on_c, 8, 83, 90
14, 13920, Note_off_c, 8, 83, 64
14, 13920, Note_on_c, 8, 80, 90
14, 14016, Note_off_c, 8, 80, 64
14, 14016, Note_on_c, 8, 81, 90
14, 14112, Note_off_c, 8, 81, 64
14, 14112, Note_on_c, 8, 78, 90
14, 14496, Note_off_c, 8, 78, 64
14, 14496, Note_on_c, 8, 74, 90
14, 14544, Note_off_c, 8, 74, 64
14, 14592, Note_on_c, 8, 78, 90
14, 14640, Note_off_c, 8, 78, 64
14, 14688, Note_on_c, 8, 78, 90
14, 14880, Note_off_c, 8, 78, 64
14, 14880, Note_on_c, 8, 76, 90
14, 14976, Note_off_c, 8, 76, 64
14, 14976, Note_on_c, 8, 83, 90
14, 15168, Note_off_c, 8, 83, 64
14, 15168, Note_on_c, 8, 81, 90
14, 15264, Note_off_c, 8, 81, 64
14, 15264, Note_on_c, 8, 74, 90
14, 15360, Note_off_c, 8, 74, 64
14, 15456, Note_on_c, 8, 74, 90
14, 15552, Note_off_c, 8, 74, 64
14, 15648, Note_on_c, 8, 78, 90
14, 15696, Note_off_c, 8, 78, 64
14, 15744, Note_on_c, 8, 76, 90
14, 15792, Note_off_c, 8, 76, 64
14, 15840, Note_on_c, 8, 76, 90
14, 15888, Note_off_c, 8, 76, 64
14, 15936, Note_on_c, 8, 74, 90
14, 15984, Note_off_c, 8, 74, 64
14, 16032, Note_on_c, 8, 74, 90
14, 16080, Note_off_c, 8, 74, 64
14, 16224, Note_on_c, 8, 74, 90
14, 16272, Note_off_c, 8, 74, 64
14, 16320, Note_on_c, 8, 73, 90
14, 16368, Note_off_c, 8, 73, 64
14, 16416, Note_on_c, 8, 73, 90
14, 16464, Note_off_c, 8, 73, 64
14, 16512, Note_on_c, 8, 74, 90
14, 16560, Note_off_c, 8, 74, 64
14, 16608, Note_on_c, 8, 74, 90
14, 16656, Note_off_c, 8, 74, 64
14, 17088, Note_on_c, 8, 73, 90
14, 17136, Note_off_c, 8, 73, 64
14, 17184, Note_on_c, 8, 73, 90
14, 17232, Note_off_c, 8, 73, 64
14, 17280, Note_on_c, 8, 76, 90
14, 17304, Note_off_c, 8, 76, 64
14, 17304, Note_on_c, 8, 78, 90
14, 17328, Note_off_c, 8, 78, 64
14, 17328, Note_on_c, 8, 76, 90
14, 17376, Note_off_c, 8, 76, 64
14, 17664, Note_on_c, 8, 73, 90
14, 17712, Note_off_c, 8, 73, 64
14, 17760, Note_on_c, 8, 73, 90
14, 17808, Note_off_c, 8, 73, 64
14, 17856, Note_on_c, 8, 76, 90
14, 17880, Note_off_c, 8, 76, 64
14, 17880, Note_on_c, 8, 78, 90
14, 17904, Note_off_c, 8, 78, 64
14, 17904, Note_on_c, 8, 76, 90
14, 17952, Note_off_c, 8, 76, 64
14, 17952, Note_on_c, 8, 78, 90
14, 18000, Note_off_c, 8, 78, 64
14, 18048, Note_on_c, 8, 76, 90
14, 18096, Note_off_c, 8, 76, 64
14, 18144, Note_on_c, 8, 76, 90
14, 18192, Note_off_c, 8, 76, 64
14, 18240, Note_on_c, 8, 74, 90
14, 18288, Note_off_c, 8, 74, 64
14, 18336, Note_on_c, 8, 74, 90
14, 18384, Note_off_c, 8, 74, 64
14, 18528, Note_on_c, 8, 74, 90
14, 18576, Note_off_c, 8, 74, 64
14, 18624, Note_on_c, 8, 73, 90
14, 18672, Note_off_c, 8, 73, 64
14, 18720, Note_on_c, 8, 76, 90
14, 18768, Note_off_c, 8, 76, 64
14, 18816, Note_on_c, 8, 74, 90
14, 18864, Note_off_c, 8, 74, 64
14, 18912, Note_on_c, 8, 74, 90
14, 18960, Note_off_c, 8, 74, 64
14, 19584, Note_on_c, 8, 80, 90
14, 19728, Note_off_c, 8, 80, 64
14, 19728, Note_on_c, 8, 78, 90
14, 19776, Note_off_c, 8, 78, 64
14, 19776, Note_on_c, 8, 74, 90
14, 19824, Note_off_c, 8, 74, 64
14, 19824, Note_on_c, 8, 71, 90
14, 19872, Note_off_c, 8, 71, 64
14, 19872, Note_on_c, 8, 78, 90
14, 19920, Note_off_c, 8, 78, 64
14, 19920, Note_on_c, 8, 78, 90
14, 19968, Note_off_c, 8, 78, 64
14, 19968, Note_on_c, 8, 78, 90
14, 20064, Note_off_c, 8, 78, 64
14, 20064, Note_on_c, 8, 76, 90
14, 20160, Note_off_c, 8, 76, 64
14, 20160, Note_on_c, 8, 69, 90
14, 20256, Note_off_c, 8, 69, 64
14, 20256, Note_on_c, 8, 78, 90
14, 20304, Note_off_c, 8, 78, 64
14, 20352, Note_on_c, 8, 76, 90
14, 20400, Note_off_c, 8, 76, 64
14, 20448, Note_on_c, 8, 76, 90
14, 20496, Note_off_c, 8, 76, 64
14, 20544, Note_on_c, 8, 74, 90
14, 20592, Note_off_c, 8, 74, 64
14, 20640, Note_on_c, 8, 74, 90
14, 20688, Note_off_c, 8, 74, 64
14, 20832, Note_on_c, 8, 74, 90
14, 20880, Note_off_c, 8, 74, 64
14, 20928, Note_on_c, 8, 73, 90
14, 20976, Note_off_c, 8, 73, 64
14, 21024, Note_on_c, 8, 73, 90
14, 21072, Note_off_c, 8, 73, 64
14, 21120, Note_on_c, 8, 74, 90
14, 21168, Note_off_c, 8, 74, 64
14, 21216, Note_on_c, 8, 74, 90
14, 21264, Note_off_c, 8, 74, 64
14, 21696, Note_on_c, 8, 73, 90
14, 21744, Note_off_c, 8, 73, 64
14, 21792, Note_on_c, 8, 73, 90
14, 21840, Note_off_c, 8, 73, 64
14, 21888, Note_on_c, 8, 76, 90
14, 21912, Note_off_c, 8, 76, 64
14, 21912, Note_on_c, 8, 78, 90
14, 21936, Note_off_c, 8, 78, 64
14, 21936, Note_on_c, 8, 76, 90
14, 21984, Note_off_c, 8, 76, 64
14, 22272, Note_on_c, 8, 73, 90
14, 22320, Note_off_c, 8, 73, 64
14, 22368, Note_on_c, 8, 73, 90
14, 22416, Note_off_c, 8, 73, 64
14, 22464, Note_on_c, 8, 76, 90
14, 22488, Note_off_c, 8, 76, 64
14, 22488, Note_on_c, 8, 78, 90
14, 22512, Note_off_c, 8, 78, 64
14, 22512, Note_on_c, 8, 76, 90
14, 22560, Note_off_c, 8, 76, 64
14, 22560, Note_on_c, 8, 78, 90
14, 22608, Note_off_c, 8, 78, 64
14, 22656, Note_on_c, 8, 76, 90
14, 22704, Note_off_c, 8, 76, 64
14, 22752, Note_on_c, 8, 76, 90
14, 22800, Note_off_c, 8, 76, 64
14, 22848, Note_on_c, 8, 74, 90
14, 22896, Note_off_c, 8, 74, 64
14, 22944, Note_on_c, 8, 74, 90
14, 22992, Note_off_c, 8, 74, 64
14, 23136, Note_on_c, 8, 74, 90
14, 23184, Note_off_c, 8, 74, 64
14, 23232, Note_on_c, 8, 73, 90
14, 23280, Note_off_c, 8, 73, 64
14, 23328, Note_on_c, 8, 76, 90
14, 23376, Note_off_c, 8, 76, 64
14, 23424, Note_on_c, 8, 74, 90
14, 23472, Note_off_c, 8, 74, 64
14, 23520, Note_on_c, 8, 74, 90
14, 23568, Note_off_c, 8, 74, 64
14, 24192, Note_on_c, 8, 80, 90
14, 24336, Note_off_c, 8, 80, 64
14, 24336, Note_on_c, 8, 78, 90
14, 24384, Note_off_c, 8, 78, 64
14, 24384, Note_on_c, 8, 74, 90
14, 24432, Note_off_c, 8, 74, 64
14, 24432, Note_on_c, 8, 71, 90
14, 24480, Note_off_c, 8, 71, 64
14, 24480, Note_on_c, 8, 78, 90
14, 24528, Note_off_c, 8, 78, 64
14, 24528, Note_on_c, 8, 78, 90
14, 24576, Note_off_c, 8, 78, 64
14, 24576, Note_on_c, 8, 78, 90
14, 24672, Note_off_c, 8, 78, 64
14, 24672, Note_on_c, 8, 76, 90
14, 24768, Note_off_c, 8, 76, 64
14, 24768, Note_on_c, 8, 69, 90
14, 24864, Note_off_c, 8, 69, 64
14, 24960, Note_on_c, 8, 69, 90
14, 25008, Note_off_c, 8, 69, 64
14, 25056, Note_on_c, 8, 67, 90
14, 25104, Note_off_c, 8, 67, 64
14, 25248, Note_on_c, 8, 69, 90
14, 25296, Note_off_c, 8, 69, 64
14, 25344, Note_on_c, 8, 67, 90
14, 25392, Note_off_c, 8, 67, 64
14, 25536, Note_on_c, 8, 69, 90
14, 25632, Note_off_c, 8, 69, 64
14, 25632, Note_on_c, 8, 78, 90
14, 26016, Note_off_c, 8, 78, 64
14, 26016, Note_on_c, 8, 76, 90
14, 26112, Note_off_c, 8, 76, 64
14, 26112, Note_on_c, 8, 69, 90
14, 26208, Note_off_c, 8, 69, 64
14, 26208, Note_on_c, 8, 66, 90
14, 26304, Note_off_c, 8, 66, 64
14, 26400, Note_on_c, 8, 69, 90
14, 26448, Note_off_c, 8, 69, 64
14, 26496, Note_on_c, 8, 66, 90
14, 26592, Note_off_c, 8, 66, 64
14, 26688, Note_on_c, 8, 69, 90
14, 26784, Note_off_c, 8, 69, 64
14, 26784, Note_on_c, 8, 76, 90
14, 27168, Note_off_c, 8, 76, 64
14, 27168, Note_on_c, 8, 74, 90
14, 27264, Note_off_c, 8, 74, 64
14, 27264, Note_on_c, 8, 69, 90
14, 27360, Note_off_c, 8, 69, 64
14, 27360, Note_on_c, 8, 67, 90
14, 27408, Note_off_c, 8, 67, 64
14, 27552, Note_on_c, 8, 69, 90
14, 27600, Note_off_c, 8, 69, 64
14, 27648, Note_on_c, 8, 67, 90
14, 27696, Note_off_c, 8, 67, 64
14, 27840, Note_on_c, 8, 69, 90
14, 27936, Note_off_c, 8, 69, 64
14, 27936, Note_on_c, 8, 78, 90
14, 28320, Note_off_c, 8, 78, 64
14, 28320, Note_on_c, 8, 76, 90
14, 28416, Note_off_c, 8, 76, 64
14, 28416, Note_on_c, 8, 69, 90
14, 28512, Note_off_c, 8, 69, 64
14, 28512, Note_on_c, 8, 74, 90
14, 28608, Note_off_c, 8, 74, 64
14, 28608, Note_on_c, 8, 76, 90
14, 28704, Note_off_c, 8, 76, 64
14, 28704, Note_on_c, 8, 78, 90
14, 28800, Note_off_c, 8, 78, 64
14, 28800, Note_on_c, 8, 81, 90
14, 28992, Note_off_c, 8, 81, 64
14, 28992, Note_on_c, 8, 79, 90
14, 29088, Note_off_c, 8, 79, 64
14, 29088, Note_on_c, 8, 78, 90
14, 29136, Note_off_c, 8, 78, 64
14, 29136, Note_on_c, 8, 78, 90
14, 29184, Note_off_c, 8, 78, 64
14, 29184, Note_on_c, 8, 78, 90
14, 29280, Note_off_c, 8, 78, 64
14, 29280, Note_on_c, 8, 76, 90
14, 29304, Note_off_c, 8, 76, 64
14, 29304, Note_on_c, 8, 69, 90
14, 29328, Note_off_c, 8, 69, 64
14, 29376, Note_on_c, 8, 74, 90
14, 29472, Note_off_c, 8, 74, 64
14, 29664, Note_on_c, 8, 73, 90
14, 29712, Note_off_c, 8, 73, 64
14, 29952, Note_on_c, 8, 73, 90
14, 30000, Note_off_c, 8, 73, 64
14, 30240, Note_on_c, 8, 78, 90
14, 30624, Note_off_c, 8, 78, 64
14, 30624, Note_on_c, 8, 76, 90
14, 30720, Note_off_c, 8, 76, 64
14, 30720, Note_on_c, 8, 69, 90
14, 30816, Note_off_c, 8, 69, 64
14, 30816, Note_on_c, 8, 62, 90
14, 30864, Note_off_c, 8, 62, 64
14, 31104, Note_on_c, 8, 62, 90
14, 31152, Note_off_c, 8, 62, 64
14, 31392, Note_on_c, 8, 76, 90
14, 31776, Note_off_c, 8, 76, 64
14, 31776, Note_on_c, 8, 74, 90
14, 31872, Note_off_c, 8, 74, 64
14, 31872, Note_on_c, 8, 69, 90
14, 31968, Note_off_c, 8, 69, 64
14, 31968, Note_on_c, 8, 73, 90
14, 32016, Note_off_c, 8, 73, 64
14, 32256, Note_on_c, 8, 73, 90
14, 32304, Note_off_c, 8, 73, 64
14, 32544, Note_on_c, 8, 78, 90
14, 32928, Note_off_c, 8, 78, 64
14, 32928, Note_on_c, 8, 76, 90
14, 33024, Note_off_c, 8, 76, 64
14, 33024, Note_on_c, 8, 69, 90
14, 33120, Note_off_c, 8, 69, 64
14, 33120, Note_on_c, 8, 74, 90
14, 33216, Note_off_c, 8, 74, 64
14, 33408, Note_on_c, 8, 72, 90
14, 33600, Note_off_c, 8, 72, 64
14, 33600, Note_on_c, 8, 71, 90
14, 33696, Note_off_c, 8, 71, 64
14, 33696, Note_on_c, 8, 69, 90
14, 33792, Note_off_c, 8, 69, 64
14, 33792, Note_on_c, 8, 78, 90
14, 33888, Note_off_c, 8, 78, 64
14, 33888, Note_on_c, 8, 76, 90
14, 33912, Note_off_c, 8, 76, 64
14, 33912, Note_on_c, 8, 69, 90
14, 33936, Note_off_c, 8, 69, 64
14, 33984, Note_on_c, 8, 74, 90
14, 34080, Note_off_c, 8, 74, 64
14, 34080, End_track
15, 0, Start_track
15, 0, MIDI_port, 0
15, 0, Title_t, "3rd Violin          "
15, 0, Program_c, 9, 67
15, 0, Note_on_c, 9, 73, 90
15, 288, Note_off_c, 9, 73, 64
15, 288, Note_on_c, 9, 74, 90
15, 576, Note_off_c, 9, 74, 64
15, 576, Note_on_c, 9, 76, 90
15, 864, Note_off_c, 9, 76, 64
15, 864, Note_on_c, 9, 78, 90
15, 1152, Note_off_c, 9, 78, 64
15, 1152, Note_on_c, 9, 76, 90
15, 1440, Note_off_c, 9, 76, 64
15, 1440, Note_on_c, 9, 78, 90
15, 1728, Note_off_c, 9, 78, 64
15, 1728, Note_on_c, 9, 78, 90
15, 2016, Note_off_c, 9, 78, 64
15, 2016, Note_on_c, 9, 79, 90
15, 2112, Note_off_c, 9, 79, 64
15, 2688, Note_on_c, 9, 76, 90
15, 2736, Note_off_c, 9, 76, 64
15, 2784, Note_on_c, 9, 76, 90
15, 2832, Note_off_c, 9, 76, 64
15, 2880, Note_on_c, 9, 76, 90
15, 2928, Note_off_c, 9, 76, 64
15, 3264, Note_on_c, 9, 74, 90
15, 3312, Note_off_c, 9, 74, 64
15, 3360, Note_on_c, 9, 74, 90
15, 3408, Note_off_c, 9, 74, 64
15, 3456, Note_on_c, 9, 74, 90
15, 3504, Note_off_c, 9, 74, 64
15, 3744, Note_on_c, 9, 73, 90
15, 4032, Note_off_c, 9, 73, 64
15, 4032, Note_on_c, 9, 71, 90
15, 4320, Note_off_c, 9, 71, 64
15, 4320, Note_on_c, 9, 69, 90
15, 5280, Note_off_c, 9, 69, 64
15, 5472, Note_on_c, 9, 69, 90
15, 5520, Note_off_c, 9, 69, 64
15, 5760, Note_on_c, 9, 67, 90
15, 5808, Note_off_c, 9, 67, 64
15, 6048, Note_on_c, 9, 64, 90
15, 6096, Note_off_c, 9, 64, 64
15, 6336, Note_on_c, 9, 62, 90
15, 6432, Note_off_c, 9, 62, 64
15, 6432, Note_on_c, 9, 66, 90
15, 6528, Note_off_c, 9, 66, 64
15, 6528, Note_on_c, 9, 69, 90
15, 6624, Note_off_c, 9, 69, 64
15, 6624, Note_on_c, 9, 69, 90
15, 7296, Note_off_c, 9, 69, 64
15, 7392, Note_on_c, 9, 62, 90
15, 7488, Note_off_c, 9, 62, 64
15, 7488, Note_on_c, 9, 62, 90
15, 7584, Note_off_c, 9, 62, 64
15, 7584, Note_on_c, 9, 66, 90
15, 7680, Note_off_c, 9, 66, 64
15, 7680, Note_on_c, 9, 69, 90
15, 7776, Note_off_c, 9, 69, 64
15, 7776, Note_on_c, 9, 69, 90
15, 8448, Note_off_c, 9, 69, 64
15, 8544, Note_on_c, 9, 61, 90
15, 8640, Note_off_c, 9, 61, 64
15, 8640, Note_on_c, 9, 61, 90
15, 8736, Note_off_c, 9, 61, 64
15, 8736, Note_on_c, 9, 64, 90
15, 8832, Note_off_c, 9, 64, 64
15, 8832, Note_on_c, 9, 71, 90
15, 8928, Note_off_c, 9, 71, 64
15, 8928, Note_on_c, 9, 71, 90
15, 9600, Note_off_c, 9, 71, 64
15, 9696, Note_on_c, 9, 61, 90
15, 9792, Note_off_c, 9, 61, 64
15, 9792, Note_on_c, 9, 61, 90
15, 9888, Note_off_c, 9, 61, 64
15, 9888, Note_on_c, 9, 64, 90
15, 9984, Note_off_c, 9, 64, 64
15, 9984, Note_on_c, 9, 71, 90
15, 10080, Note_off_c, 9, 71, 64
15, 10080, Note_on_c, 9, 71, 90
15, 10656, Note_off_c, 9, 71, 64
15, 10656, Note_on_c, 9, 69, 90
15, 10752, Note_off_c, 9, 69, 64
15, 10848, Note_on_c, 9, 62, 90
15, 10944, Note_off_c, 9, 62, 64
15, 10944, Note_on_c, 9, 62, 90
15, 11040, Note_off_c, 9, 62, 64
15, 11040, Note_on_c, 9, 66, 90
15, 11136, Note_off_c, 9, 66, 64
15, 11136, Note_on_c, 9, 69, 90
15, 11232, Note_off_c, 9, 69, 64
15, 11232, Note_on_c, 9, 74, 90
15, 11904, Note_off_c, 9, 74, 64
15, 12000, Note_on_c, 9, 62, 90
15, 12096, Note_off_c, 9, 62, 64
15, 12096, Note_on_c, 9, 62, 90
15, 12192, Note_off_c, 9, 62, 64
15, 12192, Note_on_c, 9, 66, 90
15, 12288, Note_off_c, 9, 66, 64
15, 12288, Note_on_c, 9, 69, 90
15, 12384, Note_off_c, 9, 69, 64
15, 12384, Note_on_c, 9, 74, 90
15, 13056, Note_off_c, 9, 74, 64
15, 13632, Note_on_c, 9, 73, 90
15, 13728, Note_off_c, 9, 73, 64
15, 13728, Note_on_c, 9, 73, 90
15, 13824, Note_off_c, 9, 73, 64
15, 13920, Note_on_c, 9, 73, 90
15, 14016, Note_off_c, 9, 73, 64
15, 14016, Note_on_c, 9, 73, 90
15, 14112, Note_off_c, 9, 73, 64
15, 14208, Note_on_c, 9, 69, 90
15, 14304, Note_off_c, 9, 69, 64
15, 14304, Note_on_c, 9, 69, 90
15, 14400, Note_off_c, 9, 69, 64
15, 14496, Note_on_c, 9, 69, 90
15, 14592, Note_off_c, 9, 69, 64
15, 14592, Note_on_c, 9, 69, 90
15, 14688, Note_off_c, 9, 69, 64
15, 14688, Note_on_c, 9, 71, 90
15, 14976, Note_off_c, 9, 71, 64
15, 14976, Note_on_c, 9, 69, 90
15, 15264, Note_off_c, 9, 69, 64
15, 15264, Note_on_c, 9, 66, 90
15, 15360, Note_off_c, 9, 66, 64
15, 15648, Note_on_c, 9, 78, 90
15, 15696, Note_off_c, 9, 78, 64
15, 15744, Note_on_c, 9, 76, 90
15, 15792, Note_off_c, 9, 76, 64
15, 15840, Note_on_c, 9, 76, 90
15, 15888, Note_off_c, 9, 76, 64
15, 15936, Note_on_c, 9, 74, 90
15, 15984, Note_off_c, 9, 74, 64
15, 16032, Note_on_c, 9, 74, 90
15, 16080, Note_off_c, 9, 74, 64
15, 16224, Note_on_c, 9, 74, 90
15, 16272, Note_off_c, 9, 74, 64
15, 16320, Note_on_c, 9, 73, 90
15, 16368, Note_off_c, 9, 73, 64
15, 16416, Note_on_c, 9, 73, 90
15, 16464, Note_off_c, 9, 73, 64
15, 16512, Note_on_c, 9, 74, 90
15, 16560, Note_off_c, 9, 74, 64
15, 16608, Note_on_c, 9, 74, 90
15, 16656, Note_off_c, 9, 74, 64
15, 16800, Note_on_c, 9, 64, 90
15, 16848, Note_off_c, 9, 64, 64
15, 16896, Note_on_c, 9, 64, 90
15, 16944, Note_off_c, 9, 64, 64
15, 16992, Note_on_c, 9, 66, 90
15, 17184, Note_off_c, 9, 66, 64
15, 17184, Note_on_c, 9, 64, 90
15, 17280, Note_off_c, 9, 64, 64
15, 17376, Note_on_c, 9, 64, 90
15, 17424, Note_off_c, 9, 64, 64
15, 17472, Note_on_c, 9, 64, 90
15, 17520, Note_off_c, 9, 64, 64
15, 17568, Note_on_c, 9, 71, 90
15, 17760, Note_off_c, 9, 71, 64
15, 17760, Note_on_c, 9, 69, 90
15, 17856, Note_off_c, 9, 69, 64
15, 17952, Note_on_c, 9, 78, 90
15, 18000, Note_off_c, 9, 78, 64
15, 18048, Note_on_c, 9, 76, 90
15, 18096, Note_off_c, 9, 76, 64
15, 18144, Note_on_c, 9, 76, 90
15, 18192, Note_off_c, 9, 76, 64
15, 18240, Note_on_c, 9, 74, 90
15, 18288, Note_off_c, 9, 74, 64
15, 18336, Note_on_c, 9, 74, 90
15, 18384, Note_off_c, 9, 74, 64
15, 18528, Note_on_c, 9, 71, 90
15, 18576, Note_off_c, 9, 71, 64
15, 18624, Note_on_c, 9, 70, 90
15, 18672, Note_off_c, 9, 70, 64
15, 18720, Note_on_c, 9, 73, 90
15, 18768, Note_off_c, 9, 73, 64
15, 18816, Note_on_c, 9, 71, 90
15, 18864, Note_off_c, 9, 71, 64
15, 18912, Note_on_c, 9, 71, 90
15, 18960, Note_off_c, 9, 71, 64
15, 19008, Note_on_c, 9, 52, 90
15, 19104, Note_off_c, 9, 52, 64
15, 19104, Note_on_c, 9, 68, 90
15, 19152, Note_off_c, 9, 68, 64
15, 19200, Note_on_c, 9, 71, 90
15, 19248, Note_off_c, 9, 71, 64
15, 19296, Note_on_c, 9, 71, 90
15, 19488, Note_off_c, 9, 71, 64
15, 19488, Note_on_c, 9, 69, 90
15, 19584, Note_off_c, 9, 69, 64
15, 19584, Note_on_c, 9, 71, 90
15, 19776, Note_off_c, 9, 71, 64
15, 19872, Note_on_c, 9, 71, 90
15, 19920, Note_off_c, 9, 71, 64
15, 19920, Note_on_c, 9, 71, 90
15, 19968, Note_off_c, 9, 71, 64
15, 19968, Note_on_c, 9, 71, 90
15, 20064, Note_off_c, 9, 71, 64
15, 20064, Note_on_c, 9, 71, 90
15, 20160, Note_off_c, 9, 71, 64
15, 20160, Note_on_c, 9, 69, 90
15, 20256, Note_off_c, 9, 69, 64
15, 20256, Note_on_c, 9, 78, 90
15, 20304, Note_off_c, 9, 78, 64
15, 20352, Note_on_c, 9, 76, 90
15, 20400, Note_off_c, 9, 76, 64
15, 20448, Note_on_c, 9, 76, 90
15, 20496, Note_off_c, 9, 76, 64
15, 20544, Note_on_c, 9, 74, 90
15, 20592, Note_off_c, 9, 74, 64
15, 20640, Note_on_c, 9, 74, 90
15, 20688, Note_off_c, 9, 74, 64
15, 20832, Note_on_c, 9, 74, 90
15, 20880, Note_off_c, 9, 74, 64
15, 20928, Note_on_c, 9, 73, 90
15, 20976, Note_off_c, 9, 73, 64
15, 21024, Note_on_c, 9, 73, 90
15, 21072, Note_off_c, 9, 73, 64
15, 21120, Note_on_c, 9, 74, 90
15, 21168, Note_off_c, 9, 74, 64
15, 21216, Note_on_c, 9, 74, 90
15, 21264, Note_off_c, 9, 74, 64
15, 21408, Note_on_c, 9, 64, 90
15, 21456, Note_off_c, 9, 64, 64
15, 21504, Note_on_c, 9, 64, 90
15, 21552, Note_off_c, 9, 64, 64
15, 21600, Note_on_c, 9, 66, 90
15, 21792, Note_off_c, 9, 66, 64
15, 21792, Note_on_c, 9, 64, 90
15, 21888, Note_off_c, 9, 64, 64
15, 21984, Note_on_c, 9, 64, 90
15, 22032, Note_off_c, 9, 64, 64
15, 22080, Note_on_c, 9, 64, 90
15, 22128, Note_off_c, 9, 64, 64
15, 22176, Note_on_c, 9, 71, 90
15, 22368, Note_off_c, 9, 71, 64
15, 22368, Note_on_c, 9, 69, 90
15, 22464, Note_off_c, 9, 69, 64
15, 22560, Note_on_c, 9, 78, 90
15, 22608, Note_off_c, 9, 78, 64
15, 22656, Note_on_c, 9, 76, 90
15, 22704, Note_off_c, 9, 76, 64
15, 22752, Note_on_c, 9, 76, 90
15, 22800, Note_off_c, 9, 76, 64
15, 22848, Note_on_c, 9, 74, 90
15, 22896, Note_off_c, 9, 74, 64
15, 22944, Note_on_c, 9, 74, 90
15, 22992, Note_off_c, 9, 74, 64
15, 23136, Note_on_c, 9, 71, 90
15, 23184, Note_off_c, 9, 71, 64
15, 23232, Note_on_c, 9, 70, 90
15, 23280, Note_off_c, 9, 70, 64
15, 23328, Note_on_c, 9, 73, 90
15, 23376, Note_off_c, 9, 73, 64
15, 23424, Note_on_c, 9, 71, 90
15, 23472, Note_off_c, 9, 71, 64
15, 23520, Note_on_c, 9, 71, 90
15, 23568, Note_off_c, 9, 71, 64
15, 23616, Note_on_c, 9, 64, 90
15, 23712, Note_off_c, 9, 64, 64
15, 23712, Note_on_c, 9, 68, 90
15, 23760, Note_off_c, 9, 68, 64
15, 23808, Note_on_c, 9, 71, 90
15, 23856, Note_off_c, 9, 71, 64
15, 23904, Note_on_c, 9, 71, 90
15, 24096, Note_off_c, 9, 71, 64
15, 24096, Note_on_c, 9, 69, 90
15, 24192, Note_off_c, 9, 69, 64
15, 24192, Note_on_c, 9, 71, 90
15, 24384, Note_off_c, 9, 71, 64
15, 24480, Note_on_c, 9, 71, 90
15, 24528, Note_off_c, 9, 71, 64
15, 24528, Note_on_c, 9, 71, 90
15, 24576, Note_off_c, 9, 71, 64
15, 24576, Note_on_c, 9, 71, 90
15, 24672, Note_off_c, 9, 71, 64
15, 24672, Note_on_c, 9, 71, 90
15, 24768, Note_off_c, 9, 71, 64
15, 24768, Note_on_c, 9, 69, 90
15, 24864, Note_off_c, 9, 69, 64
15, 24960, Note_on_c, 9, 69, 90
15, 25008, Note_off_c, 9, 69, 64
15, 25056, Note_on_c, 9, 67, 90
15, 25104, Note_off_c, 9, 67, 64
15, 25248, Note_on_c, 9, 69, 90
15, 25296, Note_off_c, 9, 69, 64
15, 25344, Note_on_c, 9, 67, 90
15, 25392, Note_off_c, 9, 67, 64
15, 25536, Note_on_c, 9, 69, 90
15, 25584, Note_off_c, 9, 69, 64
15, 25632, Note_on_c, 9, 67, 90
15, 25680, Note_off_c, 9, 67, 64
15, 25824, Note_on_c, 9, 69, 90
15, 25920, Note_off_c, 9, 69, 64
15, 25920, Note_on_c, 9, 67, 90
15, 26016, Note_off_c, 9, 67, 64
15, 26112, Note_on_c, 9, 69, 90
15, 26160, Note_off_c, 9, 69, 64
15, 26208, Note_on_c, 9, 66, 90
15, 26256, Note_off_c, 9, 66, 64
15, 26400, Note_on_c, 9, 69, 90
15, 26448, Note_off_c, 9, 69, 64
15, 26496, Note_on_c, 9, 66, 90
15, 26544, Note_off_c, 9, 66, 64
15, 26688, Note_on_c, 9, 69, 90
15, 26736, Note_off_c, 9, 69, 64
15, 26784, Note_on_c, 9, 66, 90
15, 26832, Note_off_c, 9, 66, 64
15, 26976, Note_on_c, 9, 69, 90
15, 27024, Note_off_c, 9, 69, 64
15, 27072, Note_on_c, 9, 66, 90
15, 27168, Note_off_c, 9, 66, 64
15, 27264, Note_on_c, 9, 69, 90
15, 27312, Note_off_c, 9, 69, 64
15, 27360, Note_on_c, 9, 67, 90
15, 27408, Note_off_c, 9, 67, 64
15, 27552, Note_on_c, 9, 69, 90
15, 27600, Note_off_c, 9, 69, 64
15, 27648, Note_on_c, 9, 67, 90
15, 27696, Note_off_c, 9, 67, 64
15, 27840, Note_on_c, 9, 69, 90
15, 27888, Note_off_c, 9, 69, 64
15, 27936, Note_on_c, 9, 67, 90
15, 27984, Note_off_c, 9, 67, 64
15, 28128, Note_on_c, 9, 69, 90
15, 28176, Note_off_c, 9, 69, 64
15, 28224, Note_on_c, 9, 67, 90
15, 28272, Note_off_c, 9, 67, 64
15, 28416, Note_on_c, 9, 69, 90
15, 28464, Note_off_c, 9, 69, 64
15, 28512, Note_on_c, 9, 74, 90
15, 28608, Note_off_c, 9, 74, 64
15, 28800, Note_on_c, 9, 69, 90
15, 28992, Note_off_c, 9, 69, 64
15, 28992, Note_on_c, 9, 67, 90
15, 29088, Note_off_c, 9, 67, 64
15, 29088, Note_on_c, 9, 69, 90
15, 29136, Note_off_c, 9, 69, 64
15, 29136, Note_on_c, 9, 69, 90
15, 29184, Note_off_c, 9, 69, 64
15, 29184, Note_on_c, 9, 69, 90
15, 29280, Note_off_c, 9, 69, 64
15, 29280, Note_on_c, 9, 69, 90
15, 29376, Note_off_c, 9, 69, 64
15, 29376, Note_on_c, 9, 69, 90
15, 29472, Note_off_c, 9, 69, 64
15, 29568, Note_on_c, 9, 69, 90
15, 29616, Note_off_c, 9, 69, 64
15, 29664, Note_on_c, 9, 67, 90
15, 29712, Note_off_c, 9, 67, 64
15, 29856, Note_on_c, 9, 69, 90
15, 29904, Note_off_c, 9, 69, 64
15, 29952, Note_on_c, 9, 67, 90
15, 30000, Note_off_c, 9, 67, 64
15, 30144, Note_on_c, 9, 69, 90
15, 30192, Note_off_c, 9, 69, 64
15, 30240, Note_on_c, 9, 67, 90
15, 30288, Note_off_c, 9, 67, 64
15, 30432, Note_on_c, 9, 69, 90
15, 30528, Note_off_c, 9, 69, 64
15, 30528, Note_on_c, 9, 67, 90
15, 30624, Note_off_c, 9, 67, 64
15, 30720, Note_on_c, 9, 69, 90
15, 30768, Note_off_c, 9, 69, 64
15, 30816, Note_on_c, 9, 66, 90
15, 30864, Note_off_c, 9, 66, 64
15, 31008, Note_on_c, 9, 69, 90
15, 31056, Note_off_c, 9, 69, 64
15, 31104, Note_on_c, 9, 66, 90
15, 31152, Note_off_c, 9, 66, 64
15, 31296, Note_on_c, 9, 69, 90
15, 31344, Note_off_c, 9, 69, 64
15, 31392, Note_on_c, 9, 66, 90
15, 31440, Note_off_c, 9, 66, 64
15, 31584, Note_on_c, 9, 69, 90
15, 31632, Note_off_c, 9, 69, 64
15, 31680, Note_on_c, 9, 66, 90
15, 31776, Note_off_c, 9, 66, 64
15, 31872, Note_on_c, 9, 69, 90
15, 31920, Note_off_c, 9, 69, 64
15, 31968, Note_on_c, 9, 67, 90
15, 32016, Note_off_c, 9, 67, 64
15, 32160, Note_on_c, 9, 69, 90
15, 32208, Note_off_c, 9, 69, 64
15, 32256, Note_on_c, 9, 67, 90
15, 32304, Note_off_c, 9, 67, 64
15, 32448, Note_on_c, 9, 69, 90
15, 32496, Note_off_c, 9, 69, 64
15, 32544, Note_on_c, 9, 67, 90
15, 32592, Note_off_c, 9, 67, 64
15, 32736, Note_on_c, 9, 69, 90
15, 32784, Note_off_c, 9, 69, 64
15, 32832, Note_on_c, 9, 67, 90
15, 32880, Note_off_c, 9, 67, 64
15, 33024, Note_on_c, 9, 69, 90
15, 33072, Note_off_c, 9, 69, 64
15, 33120, Note_on_c, 9, 74, 90
15, 33216, Note_off_c, 9, 74, 64
15, 33408, Note_on_c, 9, 69, 90
15, 33600, Note_off_c, 9, 69, 64
15, 33600, Note_on_c, 9, 67, 90
15, 33696, Note_off_c, 9, 67, 64
15, 33696, Note_on_c, 9, 69, 90
15, 33744, Note_off_c, 9, 69, 64
15, 33744, Note_on_c, 9, 69, 90
15, 33792, Note_off_c, 9, 69, 64
15, 33792, Note_on_c, 9, 69, 90
15, 33888, Note_off_c, 9, 69, 64
15, 33888, Note_on_c, 9, 69, 90
15, 33984, Note_off_c, 9, 69, 64
15, 33984, Note_on_c, 9, 69, 90
15, 34080, Note_off_c, 9, 69, 64
15, 34080, End_track
16, 0, Start_track
16, 0, MIDI_port, 0
16, 0, Title_t, "For more songs......"
16, 0, End_track
17, 0, Start_track
17, 0, MIDI_port, 0
17, 0, Title_t, "write to:           "
17, 0, End_track
18, 0, Start_track
18, 0, MIDI_port, 0
18, 0, Title_t, "Express Internationa"
18, 0, End_track
19, 0, Start_track
19, 0, MIDI_port, 0
19, 0, Title_t, "l Software          "
19, 0, End_track
20, 0, Start_track
20, 0, MIDI_port, 0
20, 0, Title_t, "Box 610205, Port    "
20, 0, End_track
21, 0, Start_track
21, 0, MIDI_port, 0
21, 0, Title_t, "Huron, MI           "
21, 0, End_track
22, 0, Start_track
22, 0, MIDI_port, 0
22, 0, Title_t, "U.S.A.  48061-0205  "
22, 0, End_track
23, 0, Start_track
23, 0, MIDI_port, 0
23, 0, Title_t, "       OR           "
23, 0, End_track
24, 0, Start_track
24, 0, MIDI_port, 0
24, 0, Title_t, "Box 1524, North Bay,"
24, 0, End_track
25, 0, Start_track
25, 0, MIDI_port, 0
25, 0, Title_t, "Ontario             "
25, 0, End_track
26, 0, Start_track
26, 0, MIDI_port, 0
26, 0, Title_t, "Canada,  P1B 8K6    "
26, 0, End_track
27, 0, Start_track
27, 0, MIDI_port, 0
27, 0, Title_t, "One of the largest  "
27, 0, End_track
28, 0, Start_track
28, 0, MIDI_port, 0
28, 0, Title_t, "software collections"
28, 0, End_track
29, 0, Start_track
29, 0, MIDI_port, 0
29, 0, Title_t, "in North America!!  "
29, 0, End_track
30, 0, Start_track
30, 0, MIDI_port, 0
30, 0, Title_t, "Specializing in     "
30, 0, End_track
31, 0, Start_track
31, 0, MIDI_port, 0
31, 0, Title_t, "music (MIDI, AdLib, "
31, 0, End_track
32, 0, Start_track
32, 0, MIDI_port, 0
32, 0, Title_t, "Sound Blaster, etc.)"
32, 0, End_track
33, 0, Start_track
33, 0, MIDI_port, 0
33, 0, Title_t, "Business and        "
33, 0, End_track
34, 0, Start_track
34, 0, MIDI_port, 0
34, 0, Title_t, "Scientific s/w|h/w! "
34, 0, End_track
0, 0, End_of_file
