0, 0, Header, 1, 34, 96
1, 0, Start_track
1, 0, Time_signature, 2, 2, 24, 8
1, 0, Tempo, 600000
1, 0, End_track
2, 0, Start_track
2, 0, MIDI_port, 0
2, 0, Title_t, "Seq.by S.D.C. 8/90  "
2, 0, End_track
3, 0, Start_track
3, 0, MIDI_port, 0
3, 0, Title_t, "for Voyetra's       "
3, 0, End_track
4, 0, Start_track
4, 0, MIDI_port, 0
4, 0, Title_t, "Sequencer Plus ver.4"
4, 0, End_track
5, 0, Start_track
5, 0, MIDI_port, 0
5, 0, Title_t, "Time:2.32/100 BPM   "
5, 0, End_track
6, 0, Start_track
6, 0, MIDI_port, 0
6, 0, Title_t, "Violin              "
6, 0, Program_c, 0, 10
6, 0, Note_on_c, 0, 60, 90
6, 48, Note_off_c, 0, 60, 64
6, 192, Note_on_c, 0, 68, 90
6, 240, Note_off_c, 0, 68, 64
6, 384, Note_on_c, 0, 60, 90
6, 432, Note_off_c, 0, 60, 64
6, 576, Note_on_c, 0, 68, 90
6, 624, Note_off_c, 0, 68, 64
6, 768, Note_on_c, 0, 60, 90
6, 816, Note_off_c, 0, 60, 64
6, 960, Note_on_c, 0, 68, 90
6, 1008, Note_off_c, 0, 68, 64
6, 1152, Note_on_c, 0, 60, 90
6, 1200, Note_off_c, 0, 60, 64
6, 1344, Note_on_c, 0, 68, 90
6, 1392, Note_off_c, 0, 68, 64
6, 1536, Note_on_c, 0, 61, 90
6, 1584, Note_off_c, 0, 61, 64
6, 1728, Note_on_c, 0, 65, 90
6, 1776, Note_off_c, 0, 65, 64
6, 1920, Note_on_c, 0, 59, 90
6, 1968, Note_off_c, 0, 59, 64
6, 2112, Note_on_c, 0, 64, 90
6, 2160, Note_off_c, 0, 64, 64
6, 2304, Note_on_c, 0, 65, 90
6, 2352, Note_off_c, 0, 65, 64
6, 2496, Note_on_c, 0, 64, 90
6, 2544, Note_off_c, 0, 64, 64
6, 2736, Note_on_c, 0, 59, 90
6, 2784, Note_off_c, 0, 59, 64
6, 2832, Note_on_c, 0, 59, 90
6, 2880, Note_off_c, 0, 59, 64
6, 2880, Note_on_c, 0, 60, 90
6, 2976, Note_off_c, 0, 60, 64
6, 2976, Note_on_c, 0, 52, 90
6, 3024, Note_off_c, 0, 52, 64
6, 3072, Note_on_c, 0, 61, 90
6, 3120, Note_off_c, 0, 61, 64
6, 3264, Note_on_c, 0, 65, 90
6, 3312, Note_off_c, 0, 65, 64
6, 3456, Note_on_c, 0, 59, 90
6, 3504, Note_off_c, 0, 59, 64
6, 3648, Note_on_c, 0, 64, 90
6, 3696, Note_off_c, 0, 64, 64
6, 3840, Note_on_c, 0, 65, 90
6, 3888, Note_off_c, 0, 65, 64
6, 4272, Note_on_c, 0, 59, 90
6, 4320, Note_off_c, 0, 59, 64
6, 4368, Note_on_c, 0, 59, 90
6, 4392, Note_off_c, 0, 59, 64
6, 4392, Note_on_c, 0, 64, 90
6, 4416, Note_off_c, 0, 64, 64
6, 4416, Note_on_c, 0, 57, 90
6, 4512, Note_off_c, 0, 57, 64
6, 6192, Note_on_c, 0, 57, 90
6, 6240, Note_off_c, 0, 57, 64
6, 6384, Note_on_c, 0, 50, 90
6, 6432, Note_off_c, 0, 50, 64
6, 6576, Note_on_c, 0, 55, 90
6, 6624, Note_off_c, 0, 55, 64
6, 6768, Note_on_c, 0, 48, 90
6, 6816, Note_off_c, 0, 48, 64
6, 6960, Note_on_c, 0, 50, 90
6, 7008, Note_off_c, 0, 50, 64
6, 7152, Note_on_c, 0, 48, 90
6, 7200, Note_off_c, 0, 48, 64
6, 7296, Note_on_c, 0, 50, 90
6, 7344, Note_off_c, 0, 50, 64
6, 7392, Note_on_c, 0, 40, 90
6, 7440, Note_off_c, 0, 40, 64
6, 7440, Note_on_c, 0, 52, 90
6, 7488, Note_off_c, 0, 52, 64
6, 7488, Note_on_c, 0, 45, 90
6, 7584, Note_off_c, 0, 45, 64
6, 7584, Note_on_c, 0, 60, 90
6, 7632, Note_off_c, 0, 60, 64
6, 7680, Note_on_c, 0, 53, 90
6, 7728, Note_off_c, 0, 53, 64
6, 7728, Note_on_c, 0, 53, 90
6, 7776, Note_off_c, 0, 53, 64
6, 7872, Note_on_c, 0, 52, 90
6, 7920, Note_off_c, 0, 52, 64
6, 7920, Note_on_c, 0, 52, 90
6, 7968, Note_off_c, 0, 52, 64
6, 8064, Note_on_c, 0, 53, 90
6, 8112, Note_off_c, 0, 53, 64
6, 8112, Note_on_c, 0, 53, 90
6, 8160, Note_off_c, 0, 53, 64
6, 8256, Note_on_c, 0, 52, 90
6, 8304, Note_off_c, 0, 52, 64
6, 8304, Note_on_c, 0, 52, 90
6, 8352, Note_off_c, 0, 52, 64
6, 8448, Note_on_c, 0, 41, 90
6, 8496, Note_off_c, 0, 41, 64
6, 8496, Note_on_c, 0, 41, 90
6, 8544, Note_off_c, 0, 41, 64
6, 8640, Note_on_c, 0, 40, 90
6, 8688, Note_off_c, 0, 40, 64
6, 8688, Note_on_c, 0, 40, 90
6, 8736, Note_off_c, 0, 40, 64
6, 8832, Note_on_c, 0, 41, 90
6, 8880, Note_off_c, 0, 41, 64
6, 8880, Note_on_c, 0, 41, 90
6, 8928, Note_off_c, 0, 41, 64
6, 9024, Note_on_c, 0, 40, 90
6, 9072, Note_off_c, 0, 40, 64
6, 9072, Note_on_c, 0, 40, 90
6, 9120, Note_off_c, 0, 40, 64
6, 9216, Note_on_c, 0, 37, 90
6, 9264, Note_off_c, 0, 37, 64
6, 9264, Note_on_c, 0, 37, 90
6, 9312, Note_off_c, 0, 37, 64
6, 9408, Note_on_c, 0, 45, 90
6, 9456, Note_off_c, 0, 45, 64
6, 9456, Note_on_c, 0, 45, 90
6, 9504, Note_off_c, 0, 45, 64
6, 9600, Note_on_c, 0, 35, 90
6, 9648, Note_off_c, 0, 35, 64
6, 9648, Note_on_c, 0, 35, 90
6, 9696, Note_off_c, 0, 35, 64
6, 9792, Note_on_c, 0, 43, 90
6, 9840, Note_off_c, 0, 43, 64
6, 9840, Note_on_c, 0, 43, 90
6, 9888, Note_off_c, 0, 43, 64
6, 9984, Note_on_c, 0, 38, 90
6, 10032, Note_off_c, 0, 38, 64
6, 10032, Note_on_c, 0, 38, 90
6, 10080, Note_off_c, 0, 38, 64
6, 10176, Note_on_c, 0, 36, 90
6, 10224, Note_off_c, 0, 36, 64
6, 10224, Note_on_c, 0, 36, 90
6, 10272, Note_off_c, 0, 36, 64
6, 10368, Note_on_c, 0, 42, 90
6, 10416, Note_off_c, 0, 42, 64
6, 10416, Note_on_c, 0, 41, 90
6, 10464, Note_off_c, 0, 41, 64
6, 10464, Note_on_c, 0, 40, 90
6, 10560, Note_off_c, 0, 40, 64
6, 10560, Note_on_c, 0, 45, 90
6, 10608, Note_off_c, 0, 45, 64
6, 10608, Note_on_c, 0, 38, 90
6, 10656, Note_off_c, 0, 38, 64
6, 10656, Note_on_c, 0, 33, 90
6, 10704, Note_off_c, 0, 33, 64
6, 10752, Note_on_c, 0, 37, 90
6, 10800, Note_off_c, 0, 37, 64
6, 10800, Note_on_c, 0, 37, 90
6, 10848, Note_off_c, 0, 37, 64
6, 10944, Note_on_c, 0, 45, 90
6, 10992, Note_off_c, 0, 45, 64
6, 10992, Note_on_c, 0, 45, 90
6, 11040, Note_off_c, 0, 45, 64
6, 11136, Note_on_c, 0, 35, 90
6, 11184, Note_off_c, 0, 35, 64
6, 11184, Note_on_c, 0, 35, 90
6, 11232, Note_off_c, 0, 35, 64
6, 11328, Note_on_c, 0, 43, 90
6, 11376, Note_off_c, 0, 43, 64
6, 11376, Note_on_c, 0, 43, 90
6, 11424, Note_off_c, 0, 43, 64
6, 11520, Note_on_c, 0, 44, 90
6, 11568, Note_off_c, 0, 44, 64
6, 11712, Note_on_c, 0, 45, 90
6, 11760, Note_off_c, 0, 45, 64
6, 11904, Note_on_c, 0, 42, 90
6, 11952, Note_off_c, 0, 42, 64
6, 11952, Note_on_c, 0, 41, 90
6, 12000, Note_off_c, 0, 41, 64
6, 12000, Note_on_c, 0, 40, 90
6, 12096, Note_off_c, 0, 40, 64
6, 12096, Note_on_c, 0, 45, 90
6, 12144, Note_off_c, 0, 45, 64
6, 12144, Note_on_c, 0, 38, 90
6, 12192, Note_off_c, 0, 38, 64
6, 12200, Note_on_c, 0, 33, 90
6, 12240, Note_off_c, 0, 33, 64
6, 12288, Note_on_c, 0, 57, 90
6, 12304, Note_off_c, 0, 57, 64
6, 12312, Note_on_c, 0, 64, 90
6, 12320, Note_off_c, 0, 64, 64
6, 12336, Note_on_c, 0, 52, 90
6, 12344, Note_off_c, 0, 52, 64
6, 12360, Note_on_c, 0, 64, 90
6, 12368, Note_off_c, 0, 64, 64
6, 12384, Note_on_c, 0, 60, 90
6, 12392, Note_off_c, 0, 60, 64
6, 12408, Note_on_c, 0, 64, 90
6, 12416, Note_off_c, 0, 64, 64
6, 12432, Note_on_c, 0, 57, 90
6, 12440, Note_off_c, 0, 57, 64
6, 12456, Note_on_c, 0, 64, 90
6, 12464, Note_off_c, 0, 64, 64
6, 12480, Note_on_c, 0, 56, 90
6, 12504, Note_off_c, 0, 56, 64
6, 12504, Note_on_c, 0, 64, 90
6, 12528, Note_off_c, 0, 64, 64
6, 12528, Note_on_c, 0, 52, 90
6, 12552, Note_off_c, 0, 52, 64
6, 12552, Note_on_c, 0, 64, 90
6, 12576, Note_off_c, 0, 64, 64
6, 12576, Note_on_c, 0, 56, 90
6, 12600, Note_off_c, 0, 56, 64
6, 12600, Note_on_c, 0, 64, 90
6, 12624, Note_off_c, 0, 64, 64
6, 12624, Note_on_c, 0, 59, 90
6, 12648, Note_off_c, 0, 59, 64
6, 12648, Note_on_c, 0, 64, 90
6, 12672, Note_off_c, 0, 64, 64
6, 12672, Note_on_c, 0, 57, 90
6, 12696, Note_off_c, 0, 57, 64
6, 12696, Note_on_c, 0, 64, 90
6, 12720, Note_off_c, 0, 64, 64
6, 12720, Note_on_c, 0, 52, 90
6, 12744, Note_off_c, 0, 52, 64
6, 12744, Note_on_c, 0, 64, 90
6, 12768, Note_off_c, 0, 64, 64
6, 12768, Note_on_c, 0, 60, 90
6, 12792, Note_off_c, 0, 60, 64
6, 12792, Note_on_c, 0, 64, 90
6, 12816, Note_off_c, 0, 64, 64
6, 12816, Note_on_c, 0, 57, 90
6, 12840, Note_off_c, 0, 57, 64
6, 12840, Note_on_c, 0, 64, 90
6, 12864, Note_off_c, 0, 64, 64
6, 12864, Note_on_c, 0, 56, 90
6, 12888, Note_off_c, 0, 56, 64
6, 12888, Note_on_c, 0, 64, 90
6, 12912, Note_off_c, 0, 64, 64
6, 12912, Note_on_c, 0, 52, 90
6, 12936, Note_off_c, 0, 52, 64
6, 12936, Note_on_c, 0, 64, 90
6, 12960, Note_off_c, 0, 64, 64
6, 12960, Note_on_c, 0, 56, 90
6, 12984, Note_off_c, 0, 56, 64
6, 12984, Note_on_c, 0, 59, 90
6, 13008, Note_off_c, 0, 59, 64
6, 13008, Note_on_c, 0, 64, 90
6, 13056, Note_off_c, 0, 64, 64
6, 13056, Note_on_c, 0, 69, 90
6, 13080, Note_off_c, 0, 69, 64
6, 13080, Note_on_c, 0, 76, 90
6, 13104, Note_off_c, 0, 76, 64
6, 13104, Note_on_c, 0, 64, 90
6, 13128, Note_off_c, 0, 64, 64
6, 13128, Note_on_c, 0, 76, 90
6, 13152, Note_off_c, 0, 76, 64
6, 13152, Note_on_c, 0, 72, 90
6, 13176, Note_off_c, 0, 72, 64
6, 13176, Note_on_c, 0, 76, 90
6, 13200, Note_off_c, 0, 76, 64
6, 13200, Note_on_c, 0, 69, 90
6, 13224, Note_off_c, 0, 69, 64
6, 13224, Note_on_c, 0, 76, 90
6, 13248, Note_off_c, 0, 76, 64
6, 13248, Note_on_c, 0, 68, 90
6, 13272, Note_off_c, 0, 68, 64
6, 13272, Note_on_c, 0, 76, 90
6, 13296, Note_off_c, 0, 76, 64
6, 13296, Note_on_c, 0, 64, 90
6, 13320, Note_off_c, 0, 64, 64
6, 13320, Note_on_c, 0, 76, 90
6, 13344, Note_off_c, 0, 76, 64
6, 13344, Note_on_c, 0, 68, 90
6, 13368, Note_off_c, 0, 68, 64
6, 13368, Note_on_c, 0, 76, 90
6, 13392, Note_off_c, 0, 76, 64
6, 13392, Note_on_c, 0, 71, 90
6, 13416, Note_off_c, 0, 71, 64
6, 13416, Note_on_c, 0, 76, 90
6, 13440, Note_off_c, 0, 76, 64
6, 13440, Note_on_c, 0, 69, 90
6, 13464, Note_off_c, 0, 69, 64
6, 13464, Note_on_c, 0, 76, 90
6, 13488, Note_off_c, 0, 76, 64
6, 13488, Note_on_c, 0, 64, 90
6, 13512, Note_off_c, 0, 64, 64
6, 13512, Note_on_c, 0, 76, 90
6, 13536, Note_off_c, 0, 76, 64
6, 13536, Note_on_c, 0, 72, 90
6, 13560, Note_off_c, 0, 72, 64
6, 13560, Note_on_c, 0, 76, 90
6, 13584, Note_off_c, 0, 76, 64
6, 13584, Note_on_c, 0, 69, 90
6, 13608, Note_off_c, 0, 69, 64
6, 13608, Note_on_c, 0, 76, 90
6, 13632, Note_off_c, 0, 76, 64
6, 13632, Note_on_c, 0, 68, 90
6, 13656, Note_off_c, 0, 68, 64
6, 13656, Note_on_c, 0, 76, 90
6, 13680, Note_off_c, 0, 76, 64
6, 13680, Note_on_c, 0, 64, 90
6, 13704, Note_off_c, 0, 64, 64
6, 13704, Note_on_c, 0, 76, 90
6, 13728, Note_off_c, 0, 76, 64
6, 13728, Note_on_c, 0, 71, 90
6, 13752, Note_off_c, 0, 71, 64
6, 13752, Note_on_c, 0, 68, 90
6, 13776, Note_off_c, 0, 68, 64
6, 13776, Note_on_c, 0, 64, 90
6, 13824, Note_off_c, 0, 64, 64
6, 13824, Note_on_c, 0, 61, 90
6, 13848, Note_off_c, 0, 61, 64
6, 13848, Note_on_c, 0, 69, 90
6, 13872, Note_off_c, 0, 69, 64
6, 13872, Note_on_c, 0, 57, 90
6, 13896, Note_off_c, 0, 57, 64
6, 13896, Note_on_c, 0, 69, 90
6, 13920, Note_off_c, 0, 69, 64
6, 13920, Note_on_c, 0, 73, 90
6, 13944, Note_off_c, 0, 73, 64
6, 14016, Note_on_c, 0, 50, 90
6, 14064, Note_off_c, 0, 50, 64
6, 14208, Note_on_c, 0, 59, 90
6, 14232, Note_off_c, 0, 59, 64
6, 14232, Note_on_c, 0, 67, 90
6, 14256, Note_off_c, 0, 67, 64
6, 14256, Note_on_c, 0, 55, 90
6, 14280, Note_off_c, 0, 55, 64
6, 14280, Note_on_c, 0, 67, 90
6, 14304, Note_off_c, 0, 67, 64
6, 14304, Note_on_c, 0, 74, 90
6, 14328, Note_off_c, 0, 74, 64
6, 14400, Note_on_c, 0, 48, 90
6, 14448, Note_off_c, 0, 48, 64
6, 14592, Note_on_c, 0, 62, 90
6, 14640, Note_off_c, 0, 62, 64
6, 14784, Note_on_c, 0, 60, 90
6, 14832, Note_off_c, 0, 60, 64
6, 14856, Note_on_c, 0, 64, 90
6, 14880, Note_off_c, 0, 64, 64
6, 14904, Note_on_c, 0, 60, 90
6, 14928, Note_off_c, 0, 60, 64
6, 14952, Note_on_c, 0, 57, 90
6, 14976, Note_off_c, 0, 57, 64
6, 15552, Note_on_c, 0, 86, 90
6, 15744, Note_off_c, 0, 86, 64
6, 15744, Note_on_c, 0, 84, 90
6, 15936, Note_off_c, 0, 84, 64
6, 15936, Note_on_c, 0, 83, 90
6, 16128, Note_off_c, 0, 83, 64
6, 16320, Note_on_c, 0, 86, 90
6, 16512, Note_off_c, 0, 86, 64
6, 16512, Note_on_c, 0, 84, 90
6, 16704, Note_off_c, 0, 84, 64
6, 16704, Note_on_c, 0, 83, 90
6, 16896, Note_off_c, 0, 83, 64
6, 17616, Note_on_c, 0, 79, 90
6, 17640, Note_off_c, 0, 79, 64
6, 17664, Note_on_c, 0, 83, 90
6, 17784, Note_off_c, 0, 83, 64
6, 17904, Note_on_c, 0, 80, 90
6, 17928, Note_off_c, 0, 80, 64
6, 17952, Note_on_c, 0, 81, 90
6, 17976, Note_off_c, 0, 81, 64
6, 18000, Note_on_c, 0, 85, 90
6, 18024, Note_off_c, 0, 85, 64
6, 18048, Note_on_c, 0, 86, 90
6, 18072, Note_off_c, 0, 86, 64
6, 18144, Note_on_c, 0, 76, 90
6, 18168, Note_off_c, 0, 76, 64
6, 18240, Note_on_c, 0, 81, 90
6, 18336, Note_off_c, 0, 81, 64
6, 19008, Note_on_c, 0, 40, 90
6, 19024, Note_off_c, 0, 40, 64
6, 19224, Note_on_c, 0, 69, 90
6, 19248, Note_off_c, 0, 69, 64
6, 19272, Note_on_c, 0, 72, 90
6, 19296, Note_off_c, 0, 72, 64
6, 19320, Note_on_c, 0, 71, 90
6, 19344, Note_off_c, 0, 71, 64
6, 19368, Note_on_c, 0, 69, 90
6, 19392, Note_off_c, 0, 69, 64
6, 19392, Note_on_c, 0, 68, 90
6, 19408, Note_off_c, 0, 68, 64
6, 19608, Note_on_c, 0, 69, 90
6, 19632, Note_off_c, 0, 69, 64
6, 19656, Note_on_c, 0, 72, 90
6, 19680, Note_off_c, 0, 72, 64
6, 19704, Note_on_c, 0, 71, 90
6, 19728, Note_off_c, 0, 71, 64
6, 19752, Note_on_c, 0, 69, 90
6, 19776, Note_off_c, 0, 69, 64
6, 19776, Note_on_c, 0, 40, 90
6, 19792, Note_off_c, 0, 40, 64
6, 19992, Note_on_c, 0, 37, 90
6, 20040, Note_off_c, 0, 37, 64
6, 20040, Note_on_c, 0, 45, 90
6, 20088, Note_off_c, 0, 45, 64
6, 20088, Note_on_c, 0, 37, 90
6, 20136, Note_off_c, 0, 37, 64
6, 20136, Note_on_c, 0, 45, 90
6, 20160, Note_off_c, 0, 45, 64
6, 20376, Note_on_c, 0, 35, 90
6, 20424, Note_off_c, 0, 35, 64
6, 20424, Note_on_c, 0, 43, 90
6, 20472, Note_off_c, 0, 43, 64
6, 20472, Note_on_c, 0, 35, 90
6, 20520, Note_off_c, 0, 35, 64
6, 20520, Note_on_c, 0, 43, 90
6, 20544, Note_off_c, 0, 43, 64
6, 21360, Note_on_c, 0, 52, 90
6, 21408, Note_off_c, 0, 52, 64
6, 21456, Note_on_c, 0, 52, 90
6, 21504, Note_off_c, 0, 52, 64
6, 21504, Note_on_c, 0, 33, 90
6, 21528, Note_off_c, 0, 33, 64
6, 21696, Note_on_c, 0, 33, 90
6, 21720, Note_off_c, 0, 33, 64
6, 21888, Note_on_c, 0, 38, 90
6, 21912, Note_off_c, 0, 38, 64
6, 22272, Note_on_c, 0, 33, 90
6, 22296, Note_off_c, 0, 33, 64
6, 22464, Note_on_c, 0, 33, 90
6, 22488, Note_off_c, 0, 33, 64
6, 22656, Note_on_c, 0, 38, 90
6, 22680, Note_off_c, 0, 38, 64
6, 24048, Note_on_c, 0, 57, 90
6, 24096, Note_off_c, 0, 57, 64
6, 24096, Note_on_c, 0, 69, 90
6, 24144, Note_off_c, 0, 69, 64
6, 24144, End_track
7, 0, Start_track
7, 0, MIDI_port, 0
7, 0, Title_t, "Picked Bass         "
7, 0, Program_c, 1, 20
7, 0, Note_on_c, 1, 64, 90
7, 48, Note_off_c, 1, 64, 64
7, 192, Note_on_c, 1, 71, 90
7, 240, Note_off_c, 1, 71, 64
7, 384, Note_on_c, 1, 64, 90
7, 432, Note_off_c, 1, 64, 64
7, 576, Note_on_c, 1, 71, 90
7, 624, Note_off_c, 1, 71, 64
7, 768, Note_on_c, 1, 64, 90
7, 816, Note_off_c, 1, 64, 64
7, 960, Note_on_c, 1, 71, 90
7, 1008, Note_off_c, 1, 71, 64
7, 1152, Note_on_c, 1, 64, 90
7, 1200, Note_off_c, 1, 64, 64
7, 1344, Note_on_c, 1, 71, 90
7, 1392, Note_off_c, 1, 71, 64
7, 1536, Note_on_c, 1, 76, 90
7, 1584, Note_off_c, 1, 76, 64
7, 1728, Note_on_c, 1, 69, 90
7, 1776, Note_off_c, 1, 69, 64
7, 1920, Note_on_c, 1, 74, 90
7, 1968, Note_off_c, 1, 74, 64
7, 2112, Note_on_c, 1, 67, 90
7, 2160, Note_off_c, 1, 67, 64
7, 2304, Note_on_c, 1, 71, 90
7, 2352, Note_off_c, 1, 71, 64
7, 2496, Note_on_c, 1, 69, 90
7, 2544, Note_off_c, 1, 69, 64
7, 2832, Note_on_c, 1, 64, 90
7, 2880, Note_off_c, 1, 64, 64
7, 2880, Note_on_c, 1, 69, 90
7, 2976, Note_off_c, 1, 69, 64
7, 2976, Note_on_c, 1, 81, 90
7, 3024, Note_off_c, 1, 81, 64
7, 3072, Note_on_c, 1, 64, 90
7, 3120, Note_off_c, 1, 64, 64
7, 3264, Note_on_c, 1, 69, 90
7, 3312, Note_off_c, 1, 69, 64
7, 3456, Note_on_c, 1, 62, 90
7, 3504, Note_off_c, 1, 62, 64
7, 3648, Note_on_c, 1, 67, 90
7, 3696, Note_off_c, 1, 67, 64
7, 3840, Note_on_c, 1, 70, 90
7, 3888, Note_off_c, 1, 70, 64
7, 4032, Note_on_c, 1, 69, 90
7, 4080, Note_off_c, 1, 69, 64
7, 4224, Note_on_c, 1, 65, 90
7, 4296, Note_off_c, 1, 65, 64
7, 4296, Note_on_c, 1, 63, 90
7, 4320, Note_off_c, 1, 63, 64
7, 4320, Note_on_c, 1, 64, 90
7, 4368, Note_off_c, 1, 64, 64
7, 4368, Note_on_c, 1, 65, 90
7, 4392, Note_off_c, 1, 65, 64
7, 4392, Note_on_c, 1, 62, 90
7, 4416, Note_off_c, 1, 62, 64
7, 4416, Note_on_c, 1, 60, 90
7, 4512, Note_off_c, 1, 60, 64
7, 4512, Note_on_c, 1, 81, 90
7, 4560, Note_off_c, 1, 81, 64
7, 6192, Note_on_c, 1, 61, 90
7, 6240, Note_off_c, 1, 61, 64
7, 6384, Note_on_c, 1, 57, 90
7, 6432, Note_off_c, 1, 57, 64
7, 6576, Note_on_c, 1, 59, 90
7, 6624, Note_off_c, 1, 59, 64
7, 6768, Note_on_c, 1, 55, 90
7, 6816, Note_off_c, 1, 55, 64
7, 6960, Note_on_c, 1, 56, 90
7, 7008, Note_off_c, 1, 56, 64
7, 7152, Note_on_c, 1, 52, 90
7, 7200, Note_off_c, 1, 52, 64
7, 7296, Note_on_c, 1, 50, 90
7, 7344, Note_off_c, 1, 50, 64
7, 7440, Note_on_c, 1, 56, 90
7, 7488, Note_off_c, 1, 56, 64
7, 7488, Note_on_c, 1, 52, 90
7, 7584, Note_off_c, 1, 52, 64
7, 7584, Note_on_c, 1, 64, 90
7, 7632, Note_off_c, 1, 64, 64
7, 7680, Note_on_c, 1, 41, 90
7, 7728, Note_off_c, 1, 41, 64
7, 7728, Note_on_c, 1, 41, 90
7, 7776, Note_off_c, 1, 41, 64
7, 7872, Note_on_c, 1, 47, 90
7, 7920, Note_off_c, 1, 47, 64
7, 7920, Note_on_c, 1, 47, 90
7, 7968, Note_off_c, 1, 47, 64
7, 8064, Note_on_c, 1, 41, 90
7, 8112, Note_off_c, 1, 41, 64
7, 8112, Note_on_c, 1, 41, 90
7, 8160, Note_off_c, 1, 41, 64
7, 8256, Note_on_c, 1, 40, 90
7, 8304, Note_off_c, 1, 40, 64
7, 8304, Note_on_c, 1, 40, 90
7, 8352, Note_off_c, 1, 40, 64
7, 8544, Note_on_c, 1, 69, 90
7, 8688, Note_off_c, 1, 69, 64
7, 8688, Note_on_c, 1, 68, 90
7, 8736, Note_off_c, 1, 68, 64
7, 8736, Note_on_c, 1, 76, 90
7, 8832, Note_off_c, 1, 76, 64
7, 8832, Note_on_c, 1, 76, 90
7, 8880, Note_off_c, 1, 76, 64
7, 8880, Note_on_c, 1, 74, 90
7, 8928, Note_off_c, 1, 74, 64
7, 8928, Note_on_c, 1, 72, 90
7, 8976, Note_off_c, 1, 72, 64
7, 8976, Note_on_c, 1, 71, 90
7, 9024, Note_off_c, 1, 71, 64
7, 9024, Note_on_c, 1, 71, 90
7, 9120, Note_off_c, 1, 71, 64
7, 9120, Note_on_c, 1, 64, 90
7, 9216, Note_off_c, 1, 64, 64
7, 9216, Note_on_c, 1, 55, 90
7, 9264, Note_off_c, 1, 55, 64
7, 9264, Note_on_c, 1, 55, 90
7, 9312, Note_off_c, 1, 55, 64
7, 9312, Note_on_c, 1, 57, 90
7, 9336, Note_off_c, 1, 57, 64
7, 9408, Note_on_c, 1, 50, 90
7, 9456, Note_off_c, 1, 50, 64
7, 9456, Note_on_c, 1, 50, 90
7, 9504, Note_off_c, 1, 50, 64
7, 9504, Note_on_c, 1, 50, 90
7, 9528, Note_off_c, 1, 50, 64
7, 9600, Note_on_c, 1, 53, 90
7, 9648, Note_off_c, 1, 53, 64
7, 9648, Note_on_c, 1, 53, 90
7, 9696, Note_off_c, 1, 53, 64
7, 9696, Note_on_c, 1, 55, 90
7, 9720, Note_off_c, 1, 55, 64
7, 9792, Note_on_c, 1, 48, 90
7, 9840, Note_off_c, 1, 48, 64
7, 9840, Note_on_c, 1, 48, 90
7, 9888, Note_off_c, 1, 48, 64
7, 9888, Note_on_c, 1, 48, 90
7, 9912, Note_off_c, 1, 48, 64
7, 9984, Note_on_c, 1, 53, 90
7, 10032, Note_off_c, 1, 53, 64
7, 10032, Note_on_c, 1, 53, 90
7, 10080, Note_off_c, 1, 53, 64
7, 10176, Note_on_c, 1, 52, 90
7, 10224, Note_off_c, 1, 52, 64
7, 10224, Note_on_c, 1, 52, 90
7, 10272, Note_off_c, 1, 52, 64
7, 10368, Note_on_c, 1, 51, 90
7, 10416, Note_off_c, 1, 51, 64
7, 10416, Note_on_c, 1, 51, 90
7, 10464, Note_off_c, 1, 51, 64
7, 10464, Note_on_c, 1, 50, 90
7, 10560, Note_off_c, 1, 50, 64
7, 10560, Note_on_c, 1, 48, 90
7, 10608, Note_off_c, 1, 48, 64
7, 10608, Note_on_c, 1, 50, 90
7, 10656, Note_off_c, 1, 50, 64
7, 10656, Note_on_c, 1, 48, 90
7, 10704, Note_off_c, 1, 48, 64
7, 10800, Note_on_c, 1, 81, 90
7, 10896, Note_off_c, 1, 81, 64
7, 10896, Note_on_c, 1, 79, 90
7, 10992, Note_off_c, 1, 79, 64
7, 10992, Note_on_c, 1, 81, 90
7, 11040, Note_off_c, 1, 81, 64
7, 11040, Note_on_c, 1, 77, 90
7, 11088, Note_off_c, 1, 77, 64
7, 11088, Note_on_c, 1, 74, 90
7, 11136, Note_off_c, 1, 74, 64
7, 11184, Note_on_c, 1, 74, 90
7, 11280, Note_off_c, 1, 74, 64
7, 11280, Note_on_c, 1, 76, 90
7, 11376, Note_off_c, 1, 76, 64
7, 11376, Note_on_c, 1, 74, 90
7, 11424, Note_off_c, 1, 74, 64
7, 11424, Note_on_c, 1, 72, 90
7, 11472, Note_off_c, 1, 72, 64
7, 11472, Note_on_c, 1, 67, 90
7, 11520, Note_off_c, 1, 67, 64
7, 11568, Note_on_c, 1, 65, 90
7, 11664, Note_off_c, 1, 65, 64
7, 11664, Note_on_c, 1, 67, 90
7, 11760, Note_off_c, 1, 67, 64
7, 11760, Note_on_c, 1, 65, 90
7, 11808, Note_off_c, 1, 65, 64
7, 11808, Note_on_c, 1, 64, 90
7, 11880, Note_off_c, 1, 64, 64
7, 11880, Note_on_c, 1, 60, 90
7, 11904, Note_off_c, 1, 60, 64
7, 11904, Note_on_c, 1, 59, 90
7, 11952, Note_off_c, 1, 59, 64
7, 11952, Note_on_c, 1, 59, 90
7, 12000, Note_off_c, 1, 59, 64
7, 12000, Note_on_c, 1, 56, 90
7, 12024, Note_off_c, 1, 56, 64
7, 12024, Note_on_c, 1, 59, 90
7, 12048, Note_off_c, 1, 59, 64
7, 12048, Note_on_c, 1, 65, 90
7, 12072, Note_off_c, 1, 65, 64
7, 12072, Note_on_c, 1, 64, 90
7, 12096, Note_off_c, 1, 64, 64
7, 12144, Note_on_c, 1, 62, 90
7, 12192, Note_off_c, 1, 62, 64
7, 12192, Note_on_c, 1, 60, 90
7, 12240, Note_off_c, 1, 60, 64
7, 13056, Note_on_c, 1, 84, 90
7, 13104, Note_off_c, 1, 84, 64
7, 13248, Note_on_c, 1, 83, 90
7, 13296, Note_off_c, 1, 83, 64
7, 13440, Note_on_c, 1, 84, 90
7, 13488, Note_off_c, 1, 84, 64
7, 13632, Note_on_c, 1, 83, 90
7, 13680, Note_off_c, 1, 83, 64
7, 14592, Note_on_c, 1, 56, 90
7, 14640, Note_off_c, 1, 56, 64
7, 15360, Note_on_c, 1, 81, 90
7, 15552, Note_off_c, 1, 81, 64
7, 15552, Note_on_c, 1, 81, 90
7, 15744, Note_off_c, 1, 81, 64
7, 15744, Note_on_c, 1, 81, 90
7, 15936, Note_off_c, 1, 81, 64
7, 15936, Note_on_c, 1, 81, 90
7, 16128, Note_off_c, 1, 81, 64
7, 16128, Note_on_c, 1, 81, 90
7, 16320, Note_off_c, 1, 81, 64
7, 16320, Note_on_c, 1, 81, 90
7, 16512, Note_off_c, 1, 81, 64
7, 16512, Note_on_c, 1, 81, 90
7, 16704, Note_off_c, 1, 81, 64
7, 16704, Note_on_c, 1, 81, 90
7, 16896, Note_off_c, 1, 81, 64
7, 16896, Note_on_c, 1, 81, 90
7, 16992, Note_off_c, 1, 81, 64
7, 17616, Note_on_c, 1, 84, 90
7, 17640, Note_off_c, 1, 84, 64
7, 17664, Note_on_c, 1, 89, 90
7, 17784, Note_off_c, 1, 89, 64
7, 19200, Note_on_c, 1, 33, 90
7, 19224, Note_off_c, 1, 33, 64
7, 19248, Note_on_c, 1, 36, 90
7, 19272, Note_off_c, 1, 36, 64
7, 19296, Note_on_c, 1, 35, 90
7, 19320, Note_off_c, 1, 35, 64
7, 19344, Note_on_c, 1, 33, 90
7, 19368, Note_off_c, 1, 33, 64
7, 19584, Note_on_c, 1, 33, 90
7, 19608, Note_off_c, 1, 33, 64
7, 19632, Note_on_c, 1, 36, 90
7, 19656, Note_off_c, 1, 36, 64
7, 19680, Note_on_c, 1, 35, 90
7, 19704, Note_off_c, 1, 35, 64
7, 19728, Note_on_c, 1, 33, 90
7, 19752, Note_off_c, 1, 33, 64
7, 19776, Note_on_c, 1, 28, 90
7, 19792, Note_off_c, 1, 28, 64
7, 21360, Note_on_c, 1, 47, 90
7, 21408, Note_off_c, 1, 47, 64
7, 21456, Note_on_c, 1, 47, 90
7, 21504, Note_off_c, 1, 47, 64
7, 21560, Note_on_c, 1, 57, 90
7, 21568, Note_off_c, 1, 57, 64
7, 21568, Note_on_c, 1, 57, 90
7, 21576, Note_off_c, 1, 57, 64
7, 21576, Note_on_c, 1, 60, 90
7, 21584, Note_off_c, 1, 60, 64
7, 21584, Note_on_c, 1, 59, 90
7, 21592, Note_off_c, 1, 59, 64
7, 21592, Note_on_c, 1, 57, 90
7, 21600, Note_off_c, 1, 57, 64
7, 21600, Note_on_c, 1, 64, 90
7, 21624, Note_off_c, 1, 64, 64
7, 21752, Note_on_c, 1, 57, 90
7, 21760, Note_off_c, 1, 57, 64
7, 21760, Note_on_c, 1, 57, 90
7, 21768, Note_off_c, 1, 57, 64
7, 21768, Note_on_c, 1, 60, 90
7, 21776, Note_off_c, 1, 60, 64
7, 21776, Note_on_c, 1, 58, 90
7, 21784, Note_off_c, 1, 58, 64
7, 21784, Note_on_c, 1, 57, 90
7, 21792, Note_off_c, 1, 57, 64
7, 21792, Note_on_c, 1, 67, 90
7, 21816, Note_off_c, 1, 67, 64
7, 21944, Note_on_c, 1, 57, 90
7, 21952, Note_off_c, 1, 57, 64
7, 21952, Note_on_c, 1, 57, 90
7, 21960, Note_off_c, 1, 57, 64
7, 21960, Note_on_c, 1, 60, 90
7, 21968, Note_off_c, 1, 60, 64
7, 21968, Note_on_c, 1, 58, 90
7, 21976, Note_off_c, 1, 58, 64
7, 21976, Note_on_c, 1, 57, 90
7, 21984, Note_off_c, 1, 57, 64
7, 21984, Note_on_c, 1, 65, 90
7, 22008, Note_off_c, 1, 65, 64
7, 22328, Note_on_c, 1, 57, 90
7, 22336, Note_off_c, 1, 57, 64
7, 22336, Note_on_c, 1, 57, 90
7, 22344, Note_off_c, 1, 57, 64
7, 22344, Note_on_c, 1, 60, 90
7, 22352, Note_off_c, 1, 60, 64
7, 22352, Note_on_c, 1, 59, 90
7, 22360, Note_off_c, 1, 59, 64
7, 22360, Note_on_c, 1, 57, 90
7, 22368, Note_off_c, 1, 57, 64
7, 22368, Note_on_c, 1, 64, 90
7, 22392, Note_off_c, 1, 64, 64
7, 22520, Note_on_c, 1, 57, 90
7, 22528, Note_off_c, 1, 57, 64
7, 22528, Note_on_c, 1, 57, 90
7, 22536, Note_off_c, 1, 57, 64
7, 22536, Note_on_c, 1, 60, 90
7, 22544, Note_off_c, 1, 60, 64
7, 22544, Note_on_c, 1, 58, 90
7, 22552, Note_off_c, 1, 58, 64
7, 22552, Note_on_c, 1, 57, 90
7, 22560, Note_off_c, 1, 57, 64
7, 22560, Note_on_c, 1, 67, 90
7, 22584, Note_off_c, 1, 67, 64
7, 22712, Note_on_c, 1, 57, 90
7, 22720, Note_off_c, 1, 57, 64
7, 22720, Note_on_c, 1, 57, 90
7, 22728, Note_off_c, 1, 57, 64
7, 22728, Note_on_c, 1, 60, 90
7, 22736, Note_off_c, 1, 60, 64
7, 22736, Note_on_c, 1, 58, 90
7, 22744, Note_off_c, 1, 58, 64
7, 22744, Note_on_c, 1, 57, 90
7, 22752, Note_off_c, 1, 57, 64
7, 22752, Note_on_c, 1, 65, 90
7, 22776, Note_off_c, 1, 65, 64
7, 24048, Note_on_c, 1, 52, 90
7, 24096, Note_off_c, 1, 52, 64
7, 24096, Note_on_c, 1, 64, 90
7, 24144, Note_off_c, 1, 64, 64
7, 24144, End_track
8, 0, Start_track
8, 0, MIDI_port, 0
8, 0, Title_t, "Glockenspiel        "
8, 0, Program_c, 2, 32
8, 0, Note_on_c, 2, 72, 90
8, 48, Note_off_c, 2, 72, 64
8, 192, Note_on_c, 2, 80, 90
8, 240, Note_off_c, 2, 80, 64
8, 384, Note_on_c, 2, 72, 90
8, 432, Note_off_c, 2, 72, 64
8, 576, Note_on_c, 2, 80, 90
8, 624, Note_off_c, 2, 80, 64
8, 768, Note_on_c, 2, 72, 90
8, 816, Note_off_c, 2, 72, 64
8, 960, Note_on_c, 2, 80, 90
8, 1008, Note_off_c, 2, 80, 64
8, 1152, Note_on_c, 2, 72, 90
8, 1200, Note_off_c, 2, 72, 64
8, 1344, Note_on_c, 2, 80, 90
8, 1392, Note_off_c, 2, 80, 64
8, 1536, Note_on_c, 2, 85, 90
8, 1584, Note_off_c, 2, 85, 64
8, 1728, Note_on_c, 2, 81, 90
8, 1776, Note_off_c, 2, 81, 64
8, 1920, Note_on_c, 2, 83, 90
8, 1968, Note_off_c, 2, 83, 64
8, 2112, Note_on_c, 2, 79, 90
8, 2160, Note_off_c, 2, 79, 64
8, 2304, Note_on_c, 2, 83, 90
8, 2352, Note_off_c, 2, 83, 64
8, 2496, Note_on_c, 2, 81, 90
8, 2544, Note_off_c, 2, 81, 64
8, 2880, Note_on_c, 2, 64, 90
8, 2976, Note_off_c, 2, 64, 64
8, 2976, Note_on_c, 2, 72, 90
8, 3024, Note_off_c, 2, 72, 64
8, 3072, Note_on_c, 2, 73, 90
8, 3120, Note_off_c, 2, 73, 64
8, 3264, Note_on_c, 2, 81, 90
8, 3312, Note_off_c, 2, 81, 64
8, 3456, Note_on_c, 2, 71, 90
8, 3504, Note_off_c, 2, 71, 64
8, 3648, Note_on_c, 2, 79, 90
8, 3696, Note_off_c, 2, 79, 64
8, 3840, Note_on_c, 2, 77, 90
8, 3888, Note_off_c, 2, 77, 64
8, 4032, Note_on_c, 2, 76, 90
8, 4080, Note_off_c, 2, 76, 64
8, 4224, Note_on_c, 2, 65, 90
8, 4296, Note_off_c, 2, 65, 64
8, 4296, Note_on_c, 2, 63, 90
8, 4320, Note_off_c, 2, 63, 64
8, 4320, Note_on_c, 2, 64, 90
8, 4368, Note_off_c, 2, 64, 64
8, 4368, Note_on_c, 2, 65, 90
8, 4392, Note_off_c, 2, 65, 64
8, 4392, Note_on_c, 2, 62, 90
8, 4416, Note_off_c, 2, 62, 64
8, 4416, Note_on_c, 2, 64, 90
8, 4512, Note_off_c, 2, 64, 64
8, 4512, Note_on_c, 2, 84, 90
8, 4560, Note_off_c, 2, 84, 64
8, 6192, Note_on_c, 2, 64, 90
8, 6240, Note_off_c, 2, 64, 64
8, 6576, Note_on_c, 2, 62, 90
8, 6624, Note_off_c, 2, 62, 64
8, 6960, Note_on_c, 2, 59, 90
8, 7008, Note_off_c, 2, 59, 64
8, 7152, Note_on_c, 2, 57, 90
8, 7200, Note_off_c, 2, 57, 64
8, 7488, Note_on_c, 2, 57, 90
8, 7584, Note_off_c, 2, 57, 64
8, 7584, Note_on_c, 2, 69, 90
8, 7632, Note_off_c, 2, 69, 64
8, 7680, Note_on_c, 2, 41, 90
8, 7728, Note_off_c, 2, 41, 64
8, 7728, Note_on_c, 2, 41, 90
8, 7776, Note_off_c, 2, 41, 64
8, 7872, Note_on_c, 2, 40, 90
8, 7920, Note_off_c, 2, 40, 64
8, 7920, Note_on_c, 2, 40, 90
8, 7968, Note_off_c, 2, 40, 64
8, 8064, Note_on_c, 2, 41, 90
8, 8112, Note_off_c, 2, 41, 64
8, 8112, Note_on_c, 2, 41, 90
8, 8160, Note_off_c, 2, 41, 64
8, 8256, Note_on_c, 2, 40, 90
8, 8304, Note_off_c, 2, 40, 64
8, 8304, Note_on_c, 2, 40, 90
8, 8352, Note_off_c, 2, 40, 64
8, 8544, Note_on_c, 2, 69, 90
8, 8688, Note_off_c, 2, 69, 64
8, 8688, Note_on_c, 2, 68, 90
8, 8736, Note_off_c, 2, 68, 64
8, 8736, Note_on_c, 2, 76, 90
8, 8832, Note_off_c, 2, 76, 64
8, 8832, Note_on_c, 2, 76, 90
8, 8880, Note_off_c, 2, 76, 64
8, 8880, Note_on_c, 2, 74, 90
8, 8928, Note_off_c, 2, 74, 64
8, 8928, Note_on_c, 2, 72, 90
8, 8976, Note_off_c, 2, 72, 64
8, 8976, Note_on_c, 2, 71, 90
8, 9024, Note_off_c, 2, 71, 64
8, 9024, Note_on_c, 2, 71, 90
8, 9120, Note_off_c, 2, 71, 64
8, 9120, Note_on_c, 2, 64, 90
8, 9216, Note_off_c, 2, 64, 64
8, 9216, Note_on_c, 2, 57, 90
8, 9264, Note_off_c, 2, 57, 64
8, 9264, Note_on_c, 2, 57, 90
8, 9312, Note_off_c, 2, 57, 64
8, 9312, Note_on_c, 2, 57, 90
8, 9336, Note_off_c, 2, 57, 64
8, 9408, Note_on_c, 2, 53, 90
8, 9456, Note_off_c, 2, 53, 64
8, 9456, Note_on_c, 2, 53, 90
8, 9504, Note_off_c, 2, 53, 64
8, 9504, Note_on_c, 2, 50, 90
8, 9528, Note_off_c, 2, 50, 64
8, 9600, Note_on_c, 2, 55, 90
8, 9648, Note_off_c, 2, 55, 64
8, 9648, Note_on_c, 2, 55, 90
8, 9696, Note_off_c, 2, 55, 64
8, 9696, Note_on_c, 2, 55, 90
8, 9720, Note_off_c, 2, 55, 64
8, 9792, Note_on_c, 2, 52, 90
8, 9840, Note_off_c, 2, 52, 64
8, 9840, Note_on_c, 2, 52, 90
8, 9888, Note_off_c, 2, 52, 64
8, 9888, Note_on_c, 2, 48, 90
8, 9912, Note_off_c, 2, 48, 64
8, 9984, Note_on_c, 2, 59, 90
8, 10032, Note_off_c, 2, 59, 64
8, 10032, Note_on_c, 2, 59, 90
8, 10080, Note_off_c, 2, 59, 64
8, 10176, Note_on_c, 2, 57, 90
8, 10224, Note_off_c, 2, 57, 64
8, 10224, Note_on_c, 2, 57, 90
8, 10272, Note_off_c, 2, 57, 64
8, 10368, Note_on_c, 2, 57, 90
8, 10416, Note_off_c, 2, 57, 64
8, 10416, Note_on_c, 2, 57, 90
8, 10464, Note_off_c, 2, 57, 64
8, 10464, Note_on_c, 2, 56, 90
8, 10488, Note_off_c, 2, 56, 64
8, 10560, Note_on_c, 2, 52, 90
8, 10608, Note_off_c, 2, 52, 64
8, 10608, Note_on_c, 2, 53, 90
8, 10656, Note_off_c, 2, 53, 64
8, 10656, Note_on_c, 2, 52, 90
8, 10704, Note_off_c, 2, 52, 64
8, 10800, Note_on_c, 2, 88, 90
8, 10896, Note_off_c, 2, 88, 64
8, 10896, Note_on_c, 2, 88, 90
8, 10992, Note_off_c, 2, 88, 64
8, 10992, Note_on_c, 2, 89, 90
8, 11040, Note_off_c, 2, 89, 64
8, 11040, Note_on_c, 2, 81, 90
8, 11088, Note_off_c, 2, 81, 64
8, 11088, Note_on_c, 2, 77, 90
8, 11136, Note_off_c, 2, 77, 64
8, 11184, Note_on_c, 2, 77, 90
8, 11280, Note_off_c, 2, 77, 64
8, 11280, Note_on_c, 2, 79, 90
8, 11376, Note_off_c, 2, 79, 64
8, 11376, Note_on_c, 2, 77, 90
8, 11424, Note_off_c, 2, 77, 64
8, 11424, Note_on_c, 2, 76, 90
8, 11472, Note_off_c, 2, 76, 64
8, 11472, Note_on_c, 2, 76, 90
8, 11520, Note_off_c, 2, 76, 64
8, 11568, Note_on_c, 2, 71, 90
8, 11664, Note_off_c, 2, 71, 64
8, 11664, Note_on_c, 2, 71, 90
8, 11760, Note_off_c, 2, 71, 64
8, 11760, Note_on_c, 2, 69, 90
8, 11808, Note_off_c, 2, 69, 64
8, 11808, Note_on_c, 2, 69, 90
8, 11880, Note_off_c, 2, 69, 64
8, 11880, Note_on_c, 2, 64, 90
8, 11904, Note_off_c, 2, 64, 64
8, 11904, Note_on_c, 2, 63, 90
8, 11952, Note_off_c, 2, 63, 64
8, 11952, Note_on_c, 2, 63, 90
8, 12000, Note_off_c, 2, 63, 64
8, 12000, Note_on_c, 2, 62, 90
8, 12024, Note_off_c, 2, 62, 64
8, 12144, Note_on_c, 2, 65, 90
8, 12192, Note_off_c, 2, 65, 64
8, 12192, Note_on_c, 2, 64, 90
8, 12240, Note_off_c, 2, 64, 64
8, 13056, Note_on_c, 2, 84, 90
8, 13104, Note_off_c, 2, 84, 64
8, 13248, Note_on_c, 2, 83, 90
8, 13296, Note_off_c, 2, 83, 64
8, 14592, Note_on_c, 2, 83, 90
8, 14616, Note_off_c, 2, 83, 64
8, 14616, Note_on_c, 2, 81, 90
8, 14640, Note_off_c, 2, 81, 64
8, 14640, Note_on_c, 2, 80, 90
8, 14664, Note_off_c, 2, 80, 64
8, 14664, Note_on_c, 2, 77, 90
8, 14688, Note_off_c, 2, 77, 64
8, 14688, Note_on_c, 2, 76, 90
8, 14712, Note_off_c, 2, 76, 64
8, 14712, Note_on_c, 2, 74, 90
8, 14736, Note_off_c, 2, 74, 64
8, 14736, Note_on_c, 2, 72, 90
8, 14760, Note_off_c, 2, 72, 64
8, 14760, Note_on_c, 2, 71, 90
8, 14784, Note_off_c, 2, 71, 64
8, 14784, Note_on_c, 2, 69, 90
8, 14808, Note_off_c, 2, 69, 64
8, 14808, Note_on_c, 2, 67, 90
8, 14832, Note_off_c, 2, 67, 64
8, 14832, Note_on_c, 2, 65, 90
8, 14856, Note_off_c, 2, 65, 64
8, 14856, Note_on_c, 2, 64, 90
8, 14880, Note_off_c, 2, 64, 64
8, 14880, Note_on_c, 2, 62, 90
8, 14904, Note_off_c, 2, 62, 64
8, 14904, Note_on_c, 2, 60, 90
8, 14928, Note_off_c, 2, 60, 64
8, 14928, Note_on_c, 2, 59, 90
8, 14952, Note_off_c, 2, 59, 64
8, 14952, Note_on_c, 2, 57, 90
8, 14976, Note_off_c, 2, 57, 64
8, 16128, Note_on_c, 2, 93, 90
8, 16136, Note_off_c, 2, 93, 64
8, 16272, Note_on_c, 2, 88, 90
8, 16280, Note_off_c, 2, 88, 64
8, 16296, Note_on_c, 2, 96, 90
8, 16304, Note_off_c, 2, 96, 64
8, 16320, Note_on_c, 2, 95, 90
8, 16328, Note_off_c, 2, 95, 64
8, 16344, Note_on_c, 2, 93, 90
8, 16352, Note_off_c, 2, 93, 64
8, 16368, Note_on_c, 2, 92, 90
8, 16376, Note_off_c, 2, 92, 64
8, 16392, Note_on_c, 2, 90, 90
8, 16400, Note_off_c, 2, 90, 64
8, 16416, Note_on_c, 2, 88, 90
8, 16424, Note_off_c, 2, 88, 64
8, 16440, Note_on_c, 2, 90, 90
8, 16448, Note_off_c, 2, 90, 64
8, 16464, Note_on_c, 2, 92, 90
8, 16472, Note_off_c, 2, 92, 64
8, 16488, Note_on_c, 2, 88, 90
8, 16496, Note_off_c, 2, 88, 64
8, 16512, Note_on_c, 2, 93, 90
8, 16520, Note_off_c, 2, 93, 64
8, 16584, Note_on_c, 2, 95, 90
8, 16592, Note_off_c, 2, 95, 64
8, 16596, Note_on_c, 2, 93, 90
8, 16596, Note_on_c, 2, 92, 90
8, 16604, Note_off_c, 2, 93, 64
8, 16604, Note_off_c, 2, 92, 64
8, 16608, Note_on_c, 2, 93, 90
8, 16616, Note_off_c, 2, 93, 64
8, 16632, Note_on_c, 2, 95, 90
8, 16640, Note_off_c, 2, 95, 64
8, 16656, Note_on_c, 2, 96, 90
8, 16664, Note_off_c, 2, 96, 64
8, 16680, Note_on_c, 2, 98, 90
8, 16688, Note_off_c, 2, 98, 64
8, 16704, Note_on_c, 2, 99, 90
8, 16712, Note_off_c, 2, 99, 64
8, 16776, Note_on_c, 2, 100, 90
8, 16784, Note_off_c, 2, 100, 64
8, 16800, Note_on_c, 2, 88, 90
8, 16808, Note_off_c, 2, 88, 64
8, 17400, Note_on_c, 2, 98, 90
8, 17424, Note_off_c, 2, 98, 64
8, 17424, Note_on_c, 2, 95, 90
8, 17448, Note_off_c, 2, 95, 64
8, 17448, Note_on_c, 2, 91, 90
8, 17472, Note_off_c, 2, 91, 64
8, 17472, Note_on_c, 2, 89, 90
8, 17496, Note_off_c, 2, 89, 64
8, 17496, Note_on_c, 2, 86, 90
8, 17520, Note_off_c, 2, 86, 64
8, 17520, Note_on_c, 2, 83, 90
8, 17544, Note_off_c, 2, 83, 64
8, 17544, Note_on_c, 2, 79, 90
8, 17568, Note_off_c, 2, 79, 64
8, 17568, Note_on_c, 2, 77, 90
8, 17592, Note_off_c, 2, 77, 64
8, 17592, Note_on_c, 2, 76, 90
8, 17616, Note_off_c, 2, 76, 64
8, 17616, Note_on_c, 2, 74, 90
8, 17640, Note_off_c, 2, 74, 64
8, 17640, Note_on_c, 2, 72, 90
8, 17664, Note_off_c, 2, 72, 64
8, 17784, Note_on_c, 2, 86, 90
8, 17808, Note_off_c, 2, 86, 64
8, 17808, Note_on_c, 2, 83, 90
8, 17832, Note_off_c, 2, 83, 64
8, 17832, Note_on_c, 2, 81, 90
8, 17856, Note_off_c, 2, 81, 64
8, 17856, Note_on_c, 2, 80, 90
8, 17880, Note_off_c, 2, 80, 64
8, 17880, Note_on_c, 2, 76, 90
8, 17904, Note_off_c, 2, 76, 64
8, 17904, Note_on_c, 2, 74, 90
8, 17928, Note_off_c, 2, 74, 64
8, 17928, Note_on_c, 2, 71, 90
8, 17952, Note_off_c, 2, 71, 64
8, 17952, Note_on_c, 2, 72, 90
8, 17976, Note_off_c, 2, 72, 64
8, 17976, Note_on_c, 2, 76, 90
8, 18000, Note_off_c, 2, 76, 64
8, 18000, Note_on_c, 2, 81, 90
8, 18024, Note_off_c, 2, 81, 64
8, 18024, Note_on_c, 2, 79, 90
8, 18048, Note_off_c, 2, 79, 64
8, 18048, Note_on_c, 2, 77, 90
8, 18072, Note_off_c, 2, 77, 64
8, 18072, Note_on_c, 2, 86, 90
8, 18096, Note_off_c, 2, 86, 64
8, 18096, Note_on_c, 2, 83, 90
8, 18120, Note_off_c, 2, 83, 64
8, 18120, Note_on_c, 2, 81, 90
8, 18144, Note_off_c, 2, 81, 64
8, 18144, Note_on_c, 2, 80, 90
8, 18168, Note_off_c, 2, 80, 64
8, 18168, Note_on_c, 2, 95, 90
8, 18192, Note_off_c, 2, 95, 64
8, 18192, Note_on_c, 2, 92, 90
8, 18216, Note_off_c, 2, 92, 64
8, 18216, Note_on_c, 2, 88, 90
8, 18240, Note_off_c, 2, 88, 64
8, 18240, Note_on_c, 2, 92, 90
8, 18252, Note_on_c, 2, 93, 90
8, 18256, Note_off_c, 2, 92, 64
8, 18332, Note_off_c, 2, 93, 64
8, 18336, Note_on_c, 2, 81, 90
8, 18360, Note_off_c, 2, 81, 64
8, 18636, Note_on_c, 2, 32, 90
8, 18636, Note_on_c, 2, 35, 90
8, 18644, Note_off_c, 2, 32, 64
8, 18644, Note_off_c, 2, 35, 64
8, 18648, Note_on_c, 2, 40, 90
8, 18656, Note_off_c, 2, 40, 64
8, 18660, Note_on_c, 2, 44, 90
8, 18660, Note_on_c, 2, 47, 90
8, 18668, Note_off_c, 2, 44, 64
8, 18668, Note_off_c, 2, 47, 64
8, 18672, Note_on_c, 2, 52, 90
8, 18680, Note_off_c, 2, 52, 64
8, 18684, Note_on_c, 2, 56, 90
8, 18684, Note_on_c, 2, 59, 90
8, 18692, Note_off_c, 2, 56, 64
8, 18692, Note_off_c, 2, 59, 64
8, 18696, Note_on_c, 2, 64, 90
8, 18704, Note_off_c, 2, 64, 64
8, 18708, Note_on_c, 2, 68, 90
8, 18708, Note_on_c, 2, 71, 90
8, 18716, Note_off_c, 2, 68, 64
8, 18716, Note_off_c, 2, 71, 64
8, 18720, Note_on_c, 2, 76, 90
8, 18728, Note_off_c, 2, 76, 64
8, 18732, Note_on_c, 2, 71, 90
8, 18732, Note_on_c, 2, 68, 90
8, 18740, Note_off_c, 2, 71, 64
8, 18740, Note_off_c, 2, 68, 64
8, 18744, Note_on_c, 2, 64, 90
8, 18752, Note_off_c, 2, 64, 64
8, 18756, Note_on_c, 2, 59, 90
8, 18756, Note_on_c, 2, 56, 90
8, 18764, Note_off_c, 2, 59, 64
8, 18764, Note_off_c, 2, 56, 64
8, 18768, Note_on_c, 2, 52, 90
8, 18776, Note_off_c, 2, 52, 64
8, 18780, Note_on_c, 2, 47, 90
8, 18780, Note_on_c, 2, 44, 90
8, 18788, Note_off_c, 2, 47, 64
8, 18788, Note_off_c, 2, 44, 64
8, 18792, Note_on_c, 2, 40, 90
8, 18800, Note_off_c, 2, 40, 64
8, 18804, Note_on_c, 2, 35, 90
8, 18804, Note_on_c, 2, 32, 90
8, 18812, Note_off_c, 2, 35, 64
8, 18812, Note_off_c, 2, 32, 64
8, 19404, Note_on_c, 2, 32, 90
8, 19404, Note_on_c, 2, 35, 90
8, 19412, Note_off_c, 2, 32, 64
8, 19412, Note_off_c, 2, 35, 64
8, 19416, Note_on_c, 2, 40, 90
8, 19424, Note_off_c, 2, 40, 64
8, 19428, Note_on_c, 2, 44, 90
8, 19428, Note_on_c, 2, 47, 90
8, 19436, Note_off_c, 2, 44, 64
8, 19436, Note_off_c, 2, 47, 64
8, 19440, Note_on_c, 2, 52, 90
8, 19448, Note_off_c, 2, 52, 64
8, 19452, Note_on_c, 2, 56, 90
8, 19452, Note_on_c, 2, 59, 90
8, 19460, Note_off_c, 2, 56, 64
8, 19460, Note_off_c, 2, 59, 64
8, 19464, Note_on_c, 2, 64, 90
8, 19472, Note_off_c, 2, 64, 64
8, 19476, Note_on_c, 2, 68, 90
8, 19476, Note_on_c, 2, 71, 90
8, 19484, Note_off_c, 2, 68, 64
8, 19484, Note_off_c, 2, 71, 64
8, 19488, Note_on_c, 2, 76, 90
8, 19496, Note_off_c, 2, 76, 64
8, 19500, Note_on_c, 2, 71, 90
8, 19500, Note_on_c, 2, 68, 90
8, 19508, Note_off_c, 2, 71, 64
8, 19508, Note_off_c, 2, 68, 64
8, 19512, Note_on_c, 2, 64, 90
8, 19520, Note_off_c, 2, 64, 64
8, 19524, Note_on_c, 2, 59, 90
8, 19524, Note_on_c, 2, 56, 90
8, 19532, Note_off_c, 2, 59, 64
8, 19532, Note_off_c, 2, 56, 64
8, 19536, Note_on_c, 2, 52, 90
8, 19544, Note_off_c, 2, 52, 64
8, 19548, Note_on_c, 2, 47, 90
8, 19548, Note_on_c, 2, 44, 90
8, 19556, Note_off_c, 2, 47, 64
8, 19556, Note_off_c, 2, 44, 64
8, 19560, Note_on_c, 2, 40, 90
8, 19568, Note_off_c, 2, 40, 64
8, 19572, Note_on_c, 2, 35, 90
8, 19572, Note_on_c, 2, 32, 90
8, 19580, Note_off_c, 2, 35, 64
8, 19580, Note_off_c, 2, 32, 64
8, 19776, Note_on_c, 2, 76, 90
8, 19792, Note_off_c, 2, 76, 64
8, 19812, Note_on_c, 2, 77, 90
8, 19824, Note_on_c, 2, 78, 90
8, 19828, Note_off_c, 2, 77, 64
8, 19836, Note_on_c, 2, 79, 90
8, 19840, Note_off_c, 2, 78, 64
8, 19852, Note_off_c, 2, 79, 64
8, 19860, Note_on_c, 2, 80, 90
8, 19872, Note_on_c, 2, 81, 90
8, 19876, Note_off_c, 2, 80, 64
8, 19884, Note_on_c, 2, 82, 90
8, 19888, Note_off_c, 2, 81, 64
8, 19900, Note_off_c, 2, 82, 64
8, 19908, Note_on_c, 2, 83, 90
8, 19908, Note_on_c, 2, 84, 90
8, 19916, Note_off_c, 2, 83, 64
8, 19916, Note_off_c, 2, 84, 64
8, 19920, Note_on_c, 2, 85, 90
8, 19928, Note_off_c, 2, 85, 64
8, 19932, Note_on_c, 2, 86, 90
8, 19932, Note_on_c, 2, 87, 90
8, 19940, Note_off_c, 2, 86, 64
8, 19940, Note_off_c, 2, 87, 64
8, 19944, Note_on_c, 2, 88, 90
8, 19952, Note_off_c, 2, 88, 64
8, 19956, Note_on_c, 2, 89, 90
8, 19956, Note_on_c, 2, 88, 90
8, 19964, Note_off_c, 2, 89, 64
8, 19964, Note_off_c, 2, 88, 64
8, 20760, Note_on_c, 2, 89, 90
8, 20784, Note_off_c, 2, 89, 64
8, 20784, Note_on_c, 2, 83, 90
8, 20808, Note_off_c, 2, 83, 64
8, 20856, Note_on_c, 2, 87, 90
8, 20880, Note_off_c, 2, 87, 64
8, 20880, Note_on_c, 2, 81, 90
8, 20904, Note_off_c, 2, 81, 64
8, 20952, Note_on_c, 2, 85, 90
8, 20976, Note_off_c, 2, 85, 64
8, 20976, Note_on_c, 2, 79, 90
8, 21000, Note_off_c, 2, 79, 64
8, 21048, Note_on_c, 2, 83, 90
8, 21072, Note_off_c, 2, 83, 64
8, 21072, Note_on_c, 2, 77, 90
8, 21096, Note_off_c, 2, 77, 64
8, 21144, Note_on_c, 2, 83, 90
8, 21168, Note_off_c, 2, 83, 64
8, 21168, Note_on_c, 2, 77, 90
8, 21192, Note_off_c, 2, 77, 64
8, 21240, Note_on_c, 2, 83, 90
8, 21264, Note_off_c, 2, 83, 64
8, 21264, Note_on_c, 2, 77, 90
8, 21288, Note_off_c, 2, 77, 64
8, 21360, Note_on_c, 2, 45, 90
8, 21408, Note_off_c, 2, 45, 64
8, 21456, Note_on_c, 2, 44, 90
8, 21504, Note_off_c, 2, 44, 64
8, 21660, Note_on_c, 2, 40, 90
8, 21668, Note_off_c, 2, 40, 64
8, 21672, Note_on_c, 2, 43, 90
8, 21680, Note_off_c, 2, 43, 64
8, 21684, Note_on_c, 2, 41, 90
8, 21684, Note_on_c, 2, 40, 90
8, 21692, Note_off_c, 2, 41, 64
8, 21692, Note_off_c, 2, 40, 64
8, 21696, Note_on_c, 2, 45, 90
8, 21720, Note_off_c, 2, 45, 64
8, 21852, Note_on_c, 2, 45, 90
8, 21860, Note_off_c, 2, 45, 64
8, 21864, Note_on_c, 2, 48, 90
8, 21872, Note_off_c, 2, 48, 64
8, 21876, Note_on_c, 2, 46, 90
8, 21876, Note_on_c, 2, 45, 90
8, 21884, Note_off_c, 2, 46, 64
8, 21884, Note_off_c, 2, 45, 64
8, 21888, Note_on_c, 2, 50, 90
8, 21912, Note_off_c, 2, 50, 64
8, 22044, Note_on_c, 2, 38, 90
8, 22052, Note_off_c, 2, 38, 64
8, 22056, Note_on_c, 2, 37, 90
8, 22064, Note_off_c, 2, 37, 64
8, 22068, Note_on_c, 2, 38, 90
8, 22068, Note_on_c, 2, 40, 90
8, 22076, Note_off_c, 2, 38, 64
8, 22076, Note_off_c, 2, 40, 64
8, 22080, Note_on_c, 2, 41, 90
8, 22104, Note_off_c, 2, 41, 64
8, 22428, Note_on_c, 2, 40, 90
8, 22436, Note_off_c, 2, 40, 64
8, 22440, Note_on_c, 2, 43, 90
8, 22448, Note_off_c, 2, 43, 64
8, 22452, Note_on_c, 2, 41, 90
8, 22452, Note_on_c, 2, 40, 90
8, 22460, Note_off_c, 2, 41, 64
8, 22460, Note_off_c, 2, 40, 64
8, 22464, Note_on_c, 2, 45, 90
8, 22488, Note_off_c, 2, 45, 64
8, 22620, Note_on_c, 2, 45, 90
8, 22628, Note_off_c, 2, 45, 64
8, 22632, Note_on_c, 2, 48, 90
8, 22640, Note_off_c, 2, 48, 64
8, 22644, Note_on_c, 2, 46, 90
8, 22644, Note_on_c, 2, 45, 90
8, 22652, Note_off_c, 2, 46, 64
8, 22652, Note_off_c, 2, 45, 64
8, 22656, Note_on_c, 2, 50, 90
8, 22680, Note_off_c, 2, 50, 64
8, 22812, Note_on_c, 2, 38, 90
8, 22820, Note_off_c, 2, 38, 64
8, 22824, Note_on_c, 2, 37, 90
8, 22832, Note_off_c, 2, 37, 64
8, 22836, Note_on_c, 2, 38, 90
8, 22836, Note_on_c, 2, 40, 90
8, 22844, Note_off_c, 2, 38, 64
8, 22844, Note_off_c, 2, 40, 64
8, 22848, Note_on_c, 2, 41, 90
8, 22872, Note_off_c, 2, 41, 64
8, 23040, Note_on_c, 2, 33, 90
8, 23048, Note_off_c, 2, 33, 64
8, 23052, Note_on_c, 2, 37, 90
8, 23052, Note_on_c, 2, 40, 90
8, 23060, Note_off_c, 2, 37, 64
8, 23060, Note_off_c, 2, 40, 64
8, 23064, Note_on_c, 2, 45, 90
8, 23072, Note_off_c, 2, 45, 64
8, 23076, Note_on_c, 2, 49, 90
8, 23076, Note_on_c, 2, 52, 90
8, 23084, Note_off_c, 2, 49, 64
8, 23084, Note_off_c, 2, 52, 64
8, 23088, Note_on_c, 2, 57, 90
8, 23096, Note_off_c, 2, 57, 64
8, 23100, Note_on_c, 2, 61, 90
8, 23100, Note_on_c, 2, 64, 90
8, 23108, Note_off_c, 2, 61, 64
8, 23108, Note_off_c, 2, 64, 64
8, 23112, Note_on_c, 2, 69, 90
8, 23120, Note_off_c, 2, 69, 64
8, 23124, Note_on_c, 2, 73, 90
8, 23124, Note_on_c, 2, 76, 90
8, 23132, Note_off_c, 2, 73, 64
8, 23132, Note_off_c, 2, 76, 64
8, 23136, Note_on_c, 2, 81, 90
8, 23144, Note_off_c, 2, 81, 64
8, 23148, Note_on_c, 2, 76, 90
8, 23148, Note_on_c, 2, 73, 90
8, 23156, Note_off_c, 2, 76, 64
8, 23156, Note_off_c, 2, 73, 64
8, 23160, Note_on_c, 2, 69, 90
8, 23168, Note_off_c, 2, 69, 64
8, 23172, Note_on_c, 2, 64, 90
8, 23172, Note_on_c, 2, 61, 90
8, 23180, Note_off_c, 2, 64, 64
8, 23180, Note_off_c, 2, 61, 64
8, 23184, Note_on_c, 2, 57, 90
8, 23192, Note_off_c, 2, 57, 64
8, 23196, Note_on_c, 2, 52, 90
8, 23196, Note_on_c, 2, 49, 90
8, 23204, Note_off_c, 2, 52, 64
8, 23204, Note_off_c, 2, 49, 64
8, 23208, Note_on_c, 2, 45, 90
8, 23216, Note_off_c, 2, 45, 64
8, 23220, Note_on_c, 2, 40, 90
8, 23220, Note_on_c, 2, 37, 90
8, 23228, Note_off_c, 2, 40, 64
8, 23228, Note_off_c, 2, 37, 64
8, 23232, Note_on_c, 2, 33, 90
8, 23240, Note_off_c, 2, 33, 64
8, 23244, Note_on_c, 2, 37, 90
8, 23244, Note_on_c, 2, 40, 90
8, 23252, Note_off_c, 2, 37, 64
8, 23252, Note_off_c, 2, 40, 64
8, 23256, Note_on_c, 2, 45, 90
8, 23264, Note_off_c, 2, 45, 64
8, 23268, Note_on_c, 2, 49, 90
8, 23268, Note_on_c, 2, 52, 90
8, 23276, Note_off_c, 2, 49, 64
8, 23276, Note_off_c, 2, 52, 64
8, 23280, Note_on_c, 2, 57, 90
8, 23288, Note_off_c, 2, 57, 64
8, 23292, Note_on_c, 2, 61, 90
8, 23292, Note_on_c, 2, 64, 90
8, 23300, Note_off_c, 2, 61, 64
8, 23300, Note_off_c, 2, 64, 64
8, 23304, Note_on_c, 2, 69, 90
8, 23312, Note_off_c, 2, 69, 64
8, 23316, Note_on_c, 2, 73, 90
8, 23316, Note_on_c, 2, 76, 90
8, 23324, Note_off_c, 2, 73, 64
8, 23324, Note_off_c, 2, 76, 64
8, 23328, Note_on_c, 2, 81, 90
8, 23336, Note_off_c, 2, 81, 64
8, 23340, Note_on_c, 2, 85, 90
8, 23340, Note_on_c, 2, 81, 90
8, 23348, Note_off_c, 2, 85, 64
8, 23348, Note_off_c, 2, 81, 64
8, 23352, Note_on_c, 2, 76, 90
8, 23360, Note_off_c, 2, 76, 64
8, 23364, Note_on_c, 2, 73, 90
8, 23364, Note_on_c, 2, 69, 90
8, 23372, Note_off_c, 2, 73, 64
8, 23372, Note_off_c, 2, 69, 64
8, 23376, Note_on_c, 2, 64, 90
8, 23384, Note_off_c, 2, 64, 64
8, 23388, Note_on_c, 2, 61, 90
8, 23388, Note_on_c, 2, 57, 90
8, 23396, Note_off_c, 2, 61, 64
8, 23396, Note_off_c, 2, 57, 64
8, 23400, Note_on_c, 2, 52, 90
8, 23408, Note_off_c, 2, 52, 64
8, 23412, Note_on_c, 2, 49, 90
8, 23412, Note_on_c, 2, 45, 90
8, 23420, Note_off_c, 2, 49, 64
8, 23420, Note_off_c, 2, 45, 64
8, 23424, Note_on_c, 2, 40, 90
8, 23432, Note_off_c, 2, 40, 64
8, 23436, Note_on_c, 2, 37, 90
8, 23436, Note_on_c, 2, 33, 90
8, 23444, Note_off_c, 2, 37, 64
8, 23444, Note_off_c, 2, 33, 64
8, 23448, Note_on_c, 2, 37, 90
8, 23456, Note_off_c, 2, 37, 64
8, 23460, Note_on_c, 2, 40, 90
8, 23460, Note_on_c, 2, 45, 90
8, 23468, Note_off_c, 2, 40, 64
8, 23468, Note_off_c, 2, 45, 64
8, 23472, Note_on_c, 2, 49, 90
8, 23480, Note_off_c, 2, 49, 64
8, 23484, Note_on_c, 2, 52, 90
8, 23484, Note_on_c, 2, 57, 90
8, 23492, Note_off_c, 2, 52, 64
8, 23492, Note_off_c, 2, 57, 64
8, 23496, Note_on_c, 2, 61, 90
8, 23504, Note_off_c, 2, 61, 64
8, 23508, Note_on_c, 2, 64, 90
8, 23508, Note_on_c, 2, 69, 90
8, 23516, Note_off_c, 2, 64, 64
8, 23516, Note_off_c, 2, 69, 64
8, 23520, Note_on_c, 2, 73, 90
8, 23528, Note_off_c, 2, 73, 64
8, 23532, Note_on_c, 2, 76, 90
8, 23532, Note_on_c, 2, 81, 90
8, 23540, Note_off_c, 2, 76, 64
8, 23540, Note_off_c, 2, 81, 64
8, 23544, Note_on_c, 2, 85, 90
8, 23552, Note_off_c, 2, 85, 64
8, 23556, Note_on_c, 2, 89, 90
8, 23556, Note_on_c, 2, 88, 90
8, 23564, Note_off_c, 2, 89, 64
8, 23564, Note_off_c, 2, 88, 64
8, 23568, Note_on_c, 2, 85, 90
8, 23576, Note_off_c, 2, 85, 64
8, 23580, Note_on_c, 2, 81, 90
8, 23580, Note_on_c, 2, 76, 90
8, 23588, Note_off_c, 2, 81, 64
8, 23588, Note_off_c, 2, 76, 64
8, 23592, Note_on_c, 2, 73, 90
8, 23600, Note_off_c, 2, 73, 64
8, 23604, Note_on_c, 2, 69, 90
8, 23604, Note_on_c, 2, 64, 90
8, 23612, Note_off_c, 2, 69, 64
8, 23612, Note_off_c, 2, 64, 64
8, 23616, Note_on_c, 2, 61, 90
8, 23624, Note_off_c, 2, 61, 64
8, 23628, Note_on_c, 2, 57, 90
8, 23628, Note_on_c, 2, 52, 90
8, 23636, Note_off_c, 2, 57, 64
8, 23636, Note_off_c, 2, 52, 64
8, 23640, Note_on_c, 2, 49, 90
8, 23648, Note_off_c, 2, 49, 64
8, 23652, Note_on_c, 2, 45, 90
8, 23652, Note_on_c, 2, 40, 90
8, 23660, Note_off_c, 2, 45, 64
8, 23660, Note_off_c, 2, 40, 64
8, 23664, Note_on_c, 2, 37, 90
8, 23672, Note_off_c, 2, 37, 64
8, 23676, Note_on_c, 2, 33, 90
8, 23772, Note_off_c, 2, 33, 64
8, 23772, Note_on_c, 2, 33, 90
8, 23772, Note_on_c, 2, 34, 90
8, 23780, Note_off_c, 2, 33, 64
8, 23780, Note_off_c, 2, 34, 64
8, 23784, Note_on_c, 2, 35, 90
8, 23792, Note_off_c, 2, 35, 64
8, 23796, Note_on_c, 2, 36, 90
8, 23796, Note_on_c, 2, 37, 90
8, 23804, Note_off_c, 2, 36, 64
8, 23804, Note_off_c, 2, 37, 64
8, 23808, Note_on_c, 2, 38, 90
8, 23816, Note_off_c, 2, 38, 64
8, 23820, Note_on_c, 2, 39, 90
8, 23820, Note_on_c, 2, 40, 90
8, 23828, Note_off_c, 2, 39, 64
8, 23828, Note_off_c, 2, 40, 64
8, 23832, Note_on_c, 2, 41, 90
8, 23840, Note_off_c, 2, 41, 64
8, 23844, Note_on_c, 2, 40, 90
8, 23856, Note_on_c, 2, 39, 90
8, 23860, Note_off_c, 2, 40, 64
8, 23880, Note_off_c, 2, 39, 64
8, 23880, Note_on_c, 2, 38, 90
8, 23904, Note_off_c, 2, 38, 64
8, 23904, Note_on_c, 2, 37, 90
8, 23928, Note_off_c, 2, 37, 64
8, 23928, Note_on_c, 2, 36, 90
8, 23952, Note_off_c, 2, 36, 64
8, 23952, Note_on_c, 2, 35, 90
8, 23976, Note_off_c, 2, 35, 64
8, 23976, Note_on_c, 2, 34, 90
8, 24000, Note_off_c, 2, 34, 64
8, 24000, Note_on_c, 2, 33, 90
8, 24024, Note_off_c, 2, 33, 64
8, 24048, Note_on_c, 2, 49, 90
8, 24096, Note_off_c, 2, 49, 64
8, 24096, Note_on_c, 2, 61, 90
8, 24144, Note_off_c, 2, 61, 64
8, 24144, End_track
9, 0, Start_track
9, 0, MIDI_port, 0
9, 0, Title_t, "French Horn         "
9, 0, Program_c, 3, 17
9, 0, Note_on_c, 3, 81, 90
9, 48, Note_off_c, 3, 81, 64
9, 192, Note_on_c, 3, 88, 90
9, 240, Note_off_c, 3, 88, 64
9, 384, Note_on_c, 3, 81, 90
9, 432, Note_off_c, 3, 81, 64
9, 576, Note_on_c, 3, 88, 90
9, 624, Note_off_c, 3, 88, 64
9, 768, Note_on_c, 3, 81, 90
9, 816, Note_off_c, 3, 81, 64
9, 960, Note_on_c, 3, 88, 90
9, 1008, Note_off_c, 3, 88, 64
9, 1152, Note_on_c, 3, 81, 90
9, 1200, Note_off_c, 3, 81, 64
9, 1344, Note_on_c, 3, 88, 90
9, 1392, Note_off_c, 3, 88, 64
9, 1536, Note_on_c, 3, 93, 90
9, 1584, Note_off_c, 3, 93, 64
9, 1728, Note_on_c, 3, 89, 90
9, 1776, Note_off_c, 3, 89, 64
9, 1920, Note_on_c, 3, 91, 90
9, 1968, Note_off_c, 3, 91, 64
9, 2112, Note_on_c, 3, 88, 90
9, 2160, Note_off_c, 3, 88, 64
9, 2304, Note_on_c, 3, 89, 90
9, 2352, Note_off_c, 3, 89, 64
9, 2496, Note_on_c, 3, 88, 90
9, 2544, Note_off_c, 3, 88, 64
9, 5376, Note_on_c, 3, 81, 90
9, 5384, Note_off_c, 3, 81, 64
9, 5384, Note_on_c, 3, 84, 90
9, 5392, Note_off_c, 3, 84, 64
9, 5392, Note_on_c, 3, 88, 90
9, 5408, Note_off_c, 3, 88, 64
9, 5408, Note_on_c, 3, 84, 90
9, 5440, Note_off_c, 3, 84, 64
9, 5440, Note_on_c, 3, 81, 90
9, 5472, Note_off_c, 3, 81, 64
9, 5472, Note_on_c, 3, 76, 90
9, 5504, Note_off_c, 3, 76, 64
9, 5504, Note_on_c, 3, 72, 90
9, 5536, Note_off_c, 3, 72, 64
9, 5536, Note_on_c, 3, 69, 90
9, 5568, Note_off_c, 3, 69, 64
9, 5568, Note_on_c, 3, 76, 90
9, 5576, Note_off_c, 3, 76, 64
9, 5576, Note_on_c, 3, 80, 90
9, 5584, Note_off_c, 3, 80, 64
9, 5584, Note_on_c, 3, 83, 90
9, 5600, Note_off_c, 3, 83, 64
9, 5600, Note_on_c, 3, 80, 90
9, 5632, Note_off_c, 3, 80, 64
9, 5632, Note_on_c, 3, 76, 90
9, 5664, Note_off_c, 3, 76, 64
9, 5664, Note_on_c, 3, 71, 90
9, 5696, Note_off_c, 3, 71, 64
9, 5696, Note_on_c, 3, 68, 90
9, 5728, Note_off_c, 3, 68, 64
9, 5728, Note_on_c, 3, 64, 90
9, 5760, Note_off_c, 3, 64, 64
9, 5760, Note_on_c, 3, 81, 90
9, 5768, Note_off_c, 3, 81, 64
9, 5768, Note_on_c, 3, 84, 90
9, 5776, Note_off_c, 3, 84, 64
9, 5776, Note_on_c, 3, 88, 90
9, 5792, Note_off_c, 3, 88, 64
9, 5792, Note_on_c, 3, 84, 90
9, 5824, Note_off_c, 3, 84, 64
9, 5824, Note_on_c, 3, 81, 90
9, 5856, Note_off_c, 3, 81, 64
9, 5856, Note_on_c, 3, 76, 90
9, 5888, Note_off_c, 3, 76, 64
9, 5888, Note_on_c, 3, 72, 90
9, 5920, Note_off_c, 3, 72, 64
9, 5920, Note_on_c, 3, 69, 90
9, 5952, Note_off_c, 3, 69, 64
9, 5984, Note_on_c, 3, 76, 90
9, 6016, Note_off_c, 3, 76, 64
9, 6016, Note_on_c, 3, 80, 90
9, 6048, Note_off_c, 3, 80, 64
9, 6048, Note_on_c, 3, 88, 90
9, 6096, Note_off_c, 3, 88, 64
9, 9216, Note_on_c, 3, 64, 90
9, 9240, Note_off_c, 3, 64, 64
9, 9312, Note_on_c, 3, 58, 90
9, 9320, Note_off_c, 3, 58, 64
9, 9320, Note_on_c, 3, 57, 90
9, 9336, Note_off_c, 3, 57, 64
9, 9504, Note_on_c, 3, 51, 90
9, 9512, Note_off_c, 3, 51, 64
9, 9512, Note_on_c, 3, 50, 90
9, 9528, Note_off_c, 3, 50, 64
9, 9600, Note_on_c, 3, 62, 90
9, 9624, Note_off_c, 3, 62, 64
9, 9696, Note_on_c, 3, 56, 90
9, 9704, Note_off_c, 3, 56, 64
9, 9704, Note_on_c, 3, 55, 90
9, 9720, Note_off_c, 3, 55, 64
9, 9888, Note_on_c, 3, 49, 90
9, 9896, Note_off_c, 3, 49, 64
9, 9896, Note_on_c, 3, 48, 90
9, 9912, Note_off_c, 3, 48, 64
9, 10800, Note_on_c, 3, 79, 90
9, 10896, Note_off_c, 3, 79, 64
9, 11904, Note_on_c, 3, 57, 90
9, 11952, Note_off_c, 3, 57, 64
9, 11952, Note_on_c, 3, 57, 90
9, 12000, Note_off_c, 3, 57, 64
9, 12144, Note_on_c, 3, 57, 90
9, 12192, Note_off_c, 3, 57, 64
9, 12192, Note_on_c, 3, 57, 90
9, 12240, Note_off_c, 3, 57, 64
9, 14592, Note_on_c, 3, 83, 90
9, 14616, Note_off_c, 3, 83, 64
9, 14616, Note_on_c, 3, 81, 90
9, 14640, Note_off_c, 3, 81, 64
9, 14640, Note_on_c, 3, 80, 90
9, 14664, Note_off_c, 3, 80, 64
9, 14664, Note_on_c, 3, 77, 90
9, 14688, Note_off_c, 3, 77, 64
9, 14688, Note_on_c, 3, 76, 90
9, 14712, Note_off_c, 3, 76, 64
9, 14712, Note_on_c, 3, 74, 90
9, 14736, Note_off_c, 3, 74, 64
9, 14736, Note_on_c, 3, 72, 90
9, 14760, Note_off_c, 3, 72, 64
9, 14760, Note_on_c, 3, 71, 90
9, 14784, Note_off_c, 3, 71, 64
9, 14784, Note_on_c, 3, 69, 90
9, 14808, Note_off_c, 3, 69, 64
9, 14808, Note_on_c, 3, 67, 90
9, 14832, Note_off_c, 3, 67, 64
9, 14832, Note_on_c, 3, 65, 90
9, 14856, Note_off_c, 3, 65, 64
9, 14856, Note_on_c, 3, 64, 90
9, 14880, Note_off_c, 3, 64, 64
9, 14880, Note_on_c, 3, 62, 90
9, 14904, Note_off_c, 3, 62, 64
9, 14904, Note_on_c, 3, 60, 90
9, 14928, Note_off_c, 3, 60, 64
9, 14928, Note_on_c, 3, 59, 90
9, 14952, Note_off_c, 3, 59, 64
9, 14952, Note_on_c, 3, 57, 90
9, 14976, Note_off_c, 3, 57, 64
9, 16128, Note_on_c, 3, 81, 90
9, 16320, Note_off_c, 3, 81, 64
9, 16320, Note_on_c, 3, 83, 90
9, 16512, Note_off_c, 3, 83, 64
9, 16512, Note_on_c, 3, 84, 90
9, 16704, Note_off_c, 3, 84, 64
9, 16704, Note_on_c, 3, 86, 90
9, 16896, Note_off_c, 3, 86, 64
9, 17400, Note_on_c, 3, 98, 90
9, 17424, Note_off_c, 3, 98, 64
9, 17424, Note_on_c, 3, 95, 90
9, 17448, Note_off_c, 3, 95, 64
9, 17448, Note_on_c, 3, 91, 90
9, 17472, Note_off_c, 3, 91, 64
9, 17472, Note_on_c, 3, 89, 90
9, 17496, Note_off_c, 3, 89, 64
9, 17496, Note_on_c, 3, 86, 90
9, 17520, Note_off_c, 3, 86, 64
9, 17520, Note_on_c, 3, 83, 90
9, 17544, Note_off_c, 3, 83, 64
9, 17544, Note_on_c, 3, 79, 90
9, 17568, Note_off_c, 3, 79, 64
9, 17568, Note_on_c, 3, 77, 90
9, 17592, Note_off_c, 3, 77, 64
9, 17592, Note_on_c, 3, 76, 90
9, 17616, Note_off_c, 3, 76, 64
9, 17616, Note_on_c, 3, 74, 90
9, 17640, Note_off_c, 3, 74, 64
9, 17640, Note_on_c, 3, 72, 90
9, 17664, Note_off_c, 3, 72, 64
9, 17664, Note_on_c, 3, 77, 90
9, 17680, Note_off_c, 3, 77, 64
9, 17680, Note_on_c, 3, 76, 90
9, 17696, Note_off_c, 3, 76, 64
9, 17696, Note_on_c, 3, 77, 90
9, 17712, Note_off_c, 3, 77, 64
9, 17712, Note_on_c, 3, 76, 90
9, 17728, Note_off_c, 3, 76, 64
9, 17728, Note_on_c, 3, 77, 90
9, 17736, Note_off_c, 3, 77, 64
9, 17736, Note_on_c, 3, 76, 90
9, 17744, Note_off_c, 3, 76, 64
9, 17744, Note_on_c, 3, 77, 90
9, 17752, Note_off_c, 3, 77, 64
9, 17752, Note_on_c, 3, 76, 90
9, 17760, Note_off_c, 3, 76, 64
9, 17760, Note_on_c, 3, 77, 90
9, 17808, Note_off_c, 3, 77, 64
9, 17904, Note_on_c, 3, 80, 90
9, 17928, Note_off_c, 3, 80, 64
9, 17952, Note_on_c, 3, 81, 90
9, 17976, Note_off_c, 3, 81, 64
9, 18000, Note_on_c, 3, 85, 90
9, 18024, Note_off_c, 3, 85, 64
9, 18048, Note_on_c, 3, 86, 90
9, 18072, Note_off_c, 3, 86, 64
9, 18144, Note_on_c, 3, 76, 90
9, 18168, Note_off_c, 3, 76, 64
9, 18240, Note_on_c, 3, 81, 90
9, 18336, Note_off_c, 3, 81, 64
9, 19968, Note_on_c, 3, 69, 90
9, 20016, Note_off_c, 3, 69, 64
9, 20016, Note_on_c, 3, 70, 90
9, 20064, Note_off_c, 3, 70, 64
9, 20064, Note_on_c, 3, 69, 90
9, 20112, Note_off_c, 3, 69, 64
9, 20112, Note_on_c, 3, 67, 90
9, 20160, Note_off_c, 3, 67, 64
9, 20160, Note_on_c, 3, 65, 90
9, 20176, Note_off_c, 3, 65, 64
9, 20352, Note_on_c, 3, 67, 90
9, 20400, Note_off_c, 3, 67, 64
9, 20400, Note_on_c, 3, 68, 90
9, 20448, Note_off_c, 3, 68, 64
9, 20448, Note_on_c, 3, 67, 90
9, 20496, Note_off_c, 3, 67, 64
9, 20496, Note_on_c, 3, 65, 90
9, 20544, Note_off_c, 3, 65, 64
9, 20544, Note_on_c, 3, 64, 90
9, 20560, Note_off_c, 3, 64, 64
9, 21360, Note_on_c, 3, 40, 90
9, 21408, Note_off_c, 3, 40, 64
9, 21456, Note_on_c, 3, 40, 90
9, 21504, Note_off_c, 3, 40, 64
9, 23040, Note_on_c, 3, 33, 90
9, 23048, Note_off_c, 3, 33, 64
9, 23048, Note_on_c, 3, 37, 90
9, 23056, Note_off_c, 3, 37, 64
9, 23056, Note_on_c, 3, 40, 90
9, 23064, Note_off_c, 3, 40, 64
9, 23064, Note_on_c, 3, 45, 90
9, 23072, Note_off_c, 3, 45, 64
9, 23072, Note_on_c, 3, 49, 90
9, 23080, Note_off_c, 3, 49, 64
9, 23080, Note_on_c, 3, 52, 90
9, 23088, Note_off_c, 3, 52, 64
9, 23088, Note_on_c, 3, 57, 90
9, 23096, Note_off_c, 3, 57, 64
9, 23096, Note_on_c, 3, 61, 90
9, 23104, Note_off_c, 3, 61, 64
9, 23104, Note_on_c, 3, 64, 90
9, 23112, Note_off_c, 3, 64, 64
9, 23112, Note_on_c, 3, 69, 90
9, 23120, Note_off_c, 3, 69, 64
9, 23120, Note_on_c, 3, 73, 90
9, 23128, Note_off_c, 3, 73, 64
9, 23128, Note_on_c, 3, 76, 90
9, 23136, Note_off_c, 3, 76, 64
9, 23136, Note_on_c, 3, 81, 90
9, 23144, Note_off_c, 3, 81, 64
9, 23144, Note_on_c, 3, 76, 90
9, 23152, Note_off_c, 3, 76, 64
9, 23152, Note_on_c, 3, 73, 90
9, 23160, Note_off_c, 3, 73, 64
9, 23160, Note_on_c, 3, 69, 90
9, 23168, Note_off_c, 3, 69, 64
9, 23168, Note_on_c, 3, 64, 90
9, 23176, Note_off_c, 3, 64, 64
9, 23176, Note_on_c, 3, 61, 90
9, 23184, Note_off_c, 3, 61, 64
9, 23184, Note_on_c, 3, 57, 90
9, 23192, Note_off_c, 3, 57, 64
9, 23192, Note_on_c, 3, 52, 90
9, 23200, Note_off_c, 3, 52, 64
9, 23200, Note_on_c, 3, 49, 90
9, 23208, Note_off_c, 3, 49, 64
9, 23208, Note_on_c, 3, 45, 90
9, 23216, Note_off_c, 3, 45, 64
9, 23216, Note_on_c, 3, 40, 90
9, 23224, Note_off_c, 3, 40, 64
9, 23224, Note_on_c, 3, 37, 90
9, 23232, Note_off_c, 3, 37, 64
9, 23232, Note_on_c, 3, 33, 90
9, 23240, Note_off_c, 3, 33, 64
9, 23240, Note_on_c, 3, 37, 90
9, 23248, Note_off_c, 3, 37, 64
9, 23248, Note_on_c, 3, 40, 90
9, 23256, Note_off_c, 3, 40, 64
9, 23256, Note_on_c, 3, 45, 90
9, 23264, Note_off_c, 3, 45, 64
9, 23264, Note_on_c, 3, 49, 90
9, 23272, Note_off_c, 3, 49, 64
9, 23272, Note_on_c, 3, 52, 90
9, 23280, Note_off_c, 3, 52, 64
9, 23280, Note_on_c, 3, 57, 90
9, 23288, Note_off_c, 3, 57, 64
9, 23288, Note_on_c, 3, 61, 90
9, 23296, Note_off_c, 3, 61, 64
9, 23296, Note_on_c, 3, 64, 90
9, 23304, Note_off_c, 3, 64, 64
9, 23304, Note_on_c, 3, 69, 90
9, 23312, Note_off_c, 3, 69, 64
9, 23312, Note_on_c, 3, 73, 90
9, 23320, Note_off_c, 3, 73, 64
9, 23320, Note_on_c, 3, 76, 90
9, 23328, Note_off_c, 3, 76, 64
9, 23328, Note_on_c, 3, 81, 90
9, 23336, Note_off_c, 3, 81, 64
9, 23336, Note_on_c, 3, 85, 90
9, 23344, Note_off_c, 3, 85, 64
9, 23344, Note_on_c, 3, 81, 90
9, 23352, Note_off_c, 3, 81, 64
9, 23352, Note_on_c, 3, 76, 90
9, 23360, Note_off_c, 3, 76, 64
9, 23360, Note_on_c, 3, 73, 90
9, 23368, Note_off_c, 3, 73, 64
9, 23368, Note_on_c, 3, 69, 90
9, 23376, Note_off_c, 3, 69, 64
9, 23376, Note_on_c, 3, 64, 90
9, 23384, Note_off_c, 3, 64, 64
9, 23384, Note_on_c, 3, 61, 90
9, 23392, Note_off_c, 3, 61, 64
9, 23392, Note_on_c, 3, 57, 90
9, 23400, Note_off_c, 3, 57, 64
9, 23400, Note_on_c, 3, 52, 90
9, 23408, Note_off_c, 3, 52, 64
9, 23408, Note_on_c, 3, 49, 90
9, 23416, Note_off_c, 3, 49, 64
9, 23416, Note_on_c, 3, 45, 90
9, 23424, Note_off_c, 3, 45, 64
9, 23424, Note_on_c, 3, 40, 90
9, 23432, Note_off_c, 3, 40, 64
9, 23432, Note_on_c, 3, 37, 90
9, 23440, Note_off_c, 3, 37, 64
9, 23440, Note_on_c, 3, 33, 90
9, 23448, Note_off_c, 3, 33, 64
9, 23448, Note_on_c, 3, 37, 90
9, 23456, Note_off_c, 3, 37, 64
9, 23456, Note_on_c, 3, 40, 90
9, 23464, Note_off_c, 3, 40, 64
9, 23464, Note_on_c, 3, 45, 90
9, 23472, Note_off_c, 3, 45, 64
9, 23472, Note_on_c, 3, 49, 90
9, 23480, Note_off_c, 3, 49, 64
9, 23480, Note_on_c, 3, 52, 90
9, 23488, Note_off_c, 3, 52, 64
9, 23488, Note_on_c, 3, 57, 90
9, 23496, Note_off_c, 3, 57, 64
9, 23496, Note_on_c, 3, 61, 90
9, 23504, Note_off_c, 3, 61, 64
9, 23504, Note_on_c, 3, 64, 90
9, 23512, Note_off_c, 3, 64, 64
9, 23512, Note_on_c, 3, 69, 90
9, 23520, Note_off_c, 3, 69, 64
9, 23520, Note_on_c, 3, 73, 90
9, 23528, Note_off_c, 3, 73, 64
9, 23528, Note_on_c, 3, 76, 90
9, 23536, Note_off_c, 3, 76, 64
9, 23536, Note_on_c, 3, 81, 90
9, 23544, Note_off_c, 3, 81, 64
9, 23544, Note_on_c, 3, 85, 90
9, 23552, Note_off_c, 3, 85, 64
9, 23552, Note_on_c, 3, 89, 90
9, 23560, Note_off_c, 3, 89, 64
9, 23560, Note_on_c, 3, 88, 90
9, 23568, Note_off_c, 3, 88, 64
9, 23568, Note_on_c, 3, 85, 90
9, 23576, Note_off_c, 3, 85, 64
9, 23576, Note_on_c, 3, 81, 90
9, 23584, Note_off_c, 3, 81, 64
9, 23584, Note_on_c, 3, 76, 90
9, 23592, Note_off_c, 3, 76, 64
9, 23592, Note_on_c, 3, 73, 90
9, 23600, Note_off_c, 3, 73, 64
9, 23600, Note_on_c, 3, 69, 90
9, 23608, Note_off_c, 3, 69, 64
9, 23608, Note_on_c, 3, 64, 90
9, 23616, Note_off_c, 3, 64, 64
9, 23616, Note_on_c, 3, 61, 90
9, 23624, Note_off_c, 3, 61, 64
9, 23624, Note_on_c, 3, 57, 90
9, 23632, Note_off_c, 3, 57, 64
9, 23632, Note_on_c, 3, 52, 90
9, 23640, Note_off_c, 3, 52, 64
9, 23640, Note_on_c, 3, 49, 90
9, 23648, Note_off_c, 3, 49, 64
9, 23648, Note_on_c, 3, 45, 90
9, 23656, Note_off_c, 3, 45, 64
9, 23656, Note_on_c, 3, 40, 90
9, 23664, Note_off_c, 3, 40, 64
9, 23664, Note_on_c, 3, 37, 90
9, 23672, Note_off_c, 3, 37, 64
9, 23672, Note_on_c, 3, 33, 90
9, 23768, Note_off_c, 3, 33, 64
9, 23768, Note_on_c, 3, 33, 90
9, 23776, Note_off_c, 3, 33, 64
9, 23776, Note_on_c, 3, 34, 90
9, 23784, Note_off_c, 3, 34, 64
9, 23784, Note_on_c, 3, 35, 90
9, 23792, Note_off_c, 3, 35, 64
9, 23792, Note_on_c, 3, 36, 90
9, 23800, Note_off_c, 3, 36, 64
9, 23800, Note_on_c, 3, 37, 90
9, 23808, Note_off_c, 3, 37, 64
9, 23808, Note_on_c, 3, 38, 90
9, 23816, Note_off_c, 3, 38, 64
9, 23816, Note_on_c, 3, 39, 90
9, 23824, Note_off_c, 3, 39, 64
9, 23824, Note_on_c, 3, 40, 90
9, 23832, Note_off_c, 3, 40, 64
9, 23832, Note_on_c, 3, 41, 90
9, 23840, Note_off_c, 3, 41, 64
9, 23840, Note_on_c, 3, 40, 90
9, 23856, Note_off_c, 3, 40, 64
9, 23856, Note_on_c, 3, 39, 90
9, 23880, Note_off_c, 3, 39, 64
9, 23880, Note_on_c, 3, 38, 90
9, 23904, Note_off_c, 3, 38, 64
9, 23904, Note_on_c, 3, 37, 90
9, 23928, Note_off_c, 3, 37, 64
9, 23928, Note_on_c, 3, 36, 90
9, 23952, Note_off_c, 3, 36, 64
9, 23952, Note_on_c, 3, 35, 90
9, 23976, Note_off_c, 3, 35, 64
9, 23976, Note_on_c, 3, 34, 90
9, 24000, Note_off_c, 3, 34, 64
9, 24000, Note_on_c, 3, 33, 90
9, 24024, Note_off_c, 3, 33, 64
9, 24048, Note_on_c, 3, 45, 90
9, 24096, Note_off_c, 3, 45, 64
9, 24096, Note_on_c, 3, 57, 90
9, 24144, Note_off_c, 3, 57, 64
9, 24144, End_track
10, 0, Start_track
10, 0, MIDI_port, 0
10, 0, Title_t, "Marimba             "
10, 0, Program_c, 4, 8
10, 0, Note_on_c, 4, 69, 90
10, 56, Note_off_c, 4, 69, 64
10, 84, Note_on_c, 4, 69, 90
10, 100, Note_off_c, 4, 69, 64
10, 120, Note_on_c, 4, 72, 90
10, 144, Note_off_c, 4, 72, 64
10, 144, Note_on_c, 4, 71, 90
10, 168, Note_off_c, 4, 71, 64
10, 168, Note_on_c, 4, 69, 90
10, 192, Note_off_c, 4, 69, 64
10, 192, Note_on_c, 4, 76, 90
10, 240, Note_off_c, 4, 76, 64
10, 276, Note_on_c, 4, 64, 90
10, 292, Note_off_c, 4, 64, 64
10, 312, Note_on_c, 4, 68, 90
10, 336, Note_off_c, 4, 68, 64
10, 336, Note_on_c, 4, 66, 90
10, 360, Note_off_c, 4, 66, 64
10, 360, Note_on_c, 4, 64, 90
10, 384, Note_off_c, 4, 64, 64
10, 384, Note_on_c, 4, 69, 90
10, 432, Note_off_c, 4, 69, 64
10, 468, Note_on_c, 4, 69, 90
10, 484, Note_off_c, 4, 69, 64
10, 504, Note_on_c, 4, 72, 90
10, 528, Note_off_c, 4, 72, 64
10, 528, Note_on_c, 4, 71, 90
10, 552, Note_off_c, 4, 71, 64
10, 552, Note_on_c, 4, 69, 90
10, 576, Note_off_c, 4, 69, 64
10, 576, Note_on_c, 4, 76, 90
10, 672, Note_off_c, 4, 76, 64
10, 672, Note_on_c, 4, 64, 90
10, 720, Note_off_c, 4, 64, 64
10, 768, Note_on_c, 4, 69, 90
10, 816, Note_off_c, 4, 69, 64
10, 852, Note_on_c, 4, 69, 90
10, 868, Note_off_c, 4, 69, 64
10, 888, Note_on_c, 4, 72, 90
10, 912, Note_off_c, 4, 72, 64
10, 912, Note_on_c, 4, 71, 90
10, 936, Note_off_c, 4, 71, 64
10, 936, Note_on_c, 4, 69, 90
10, 960, Note_off_c, 4, 69, 64
10, 960, Note_on_c, 4, 76, 90
10, 1008, Note_off_c, 4, 76, 64
10, 1044, Note_on_c, 4, 64, 90
10, 1060, Note_off_c, 4, 64, 64
10, 1080, Note_on_c, 4, 68, 90
10, 1104, Note_off_c, 4, 68, 64
10, 1104, Note_on_c, 4, 66, 90
10, 1128, Note_off_c, 4, 66, 64
10, 1128, Note_on_c, 4, 64, 90
10, 1152, Note_off_c, 4, 64, 64
10, 1152, Note_on_c, 4, 69, 90
10, 1200, Note_off_c, 4, 69, 64
10, 1236, Note_on_c, 4, 69, 90
10, 1252, Note_off_c, 4, 69, 64
10, 1272, Note_on_c, 4, 72, 90
10, 1296, Note_off_c, 4, 72, 64
10, 1296, Note_on_c, 4, 71, 90
10, 1320, Note_off_c, 4, 71, 64
10, 1320, Note_on_c, 4, 69, 90
10, 1344, Note_off_c, 4, 69, 64
10, 1344, Note_on_c, 4, 76, 90
10, 1440, Note_off_c, 4, 76, 64
10, 1440, Note_on_c, 4, 64, 90
10, 1488, Note_off_c, 4, 64, 64
10, 1536, Note_on_c, 4, 81, 90
10, 1584, Note_off_c, 4, 81, 64
10, 1620, Note_on_c, 4, 81, 90
10, 1636, Note_off_c, 4, 81, 64
10, 1656, Note_on_c, 4, 82, 90
10, 1680, Note_off_c, 4, 82, 64
10, 1680, Note_on_c, 4, 81, 90
10, 1704, Note_off_c, 4, 81, 64
10, 1704, Note_on_c, 4, 79, 90
10, 1728, Note_off_c, 4, 79, 64
10, 1728, Note_on_c, 4, 77, 90
10, 1776, Note_off_c, 4, 77, 64
10, 1812, Note_on_c, 4, 74, 90
10, 1828, Note_off_c, 4, 74, 64
10, 1848, Note_on_c, 4, 77, 90
10, 1872, Note_off_c, 4, 77, 64
10, 1872, Note_on_c, 4, 76, 90
10, 1896, Note_off_c, 4, 76, 64
10, 1896, Note_on_c, 4, 74, 90
10, 1920, Note_off_c, 4, 74, 64
10, 1920, Note_on_c, 4, 79, 90
10, 1968, Note_off_c, 4, 79, 64
10, 2004, Note_on_c, 4, 79, 90
10, 2020, Note_off_c, 4, 79, 64
10, 2040, Note_on_c, 4, 81, 90
10, 2064, Note_off_c, 4, 81, 64
10, 2064, Note_on_c, 4, 79, 90
10, 2088, Note_off_c, 4, 79, 64
10, 2088, Note_on_c, 4, 77, 90
10, 2112, Note_off_c, 4, 77, 64
10, 2112, Note_on_c, 4, 76, 90
10, 2160, Note_off_c, 4, 76, 64
10, 2196, Note_on_c, 4, 72, 90
10, 2212, Note_off_c, 4, 72, 64
10, 2232, Note_on_c, 4, 76, 90
10, 2256, Note_off_c, 4, 76, 64
10, 2256, Note_on_c, 4, 74, 90
10, 2280, Note_off_c, 4, 74, 64
10, 2280, Note_on_c, 4, 72, 90
10, 2304, Note_off_c, 4, 72, 64
10, 2304, Note_on_c, 4, 77, 90
10, 2352, Note_off_c, 4, 77, 64
10, 2388, Note_on_c, 4, 71, 90
10, 2404, Note_off_c, 4, 71, 64
10, 2424, Note_on_c, 4, 74, 90
10, 2448, Note_off_c, 4, 74, 64
10, 2448, Note_on_c, 4, 72, 90
10, 2472, Note_off_c, 4, 72, 64
10, 2472, Note_on_c, 4, 71, 90
10, 2496, Note_off_c, 4, 71, 64
10, 2496, Note_on_c, 4, 76, 90
10, 2544, Note_off_c, 4, 76, 64
10, 2580, Note_on_c, 4, 69, 90
10, 2596, Note_off_c, 4, 69, 64
10, 2616, Note_on_c, 4, 72, 90
10, 2640, Note_off_c, 4, 72, 64
10, 2640, Note_on_c, 4, 71, 90
10, 2664, Note_off_c, 4, 71, 64
10, 2664, Note_on_c, 4, 69, 90
10, 2688, Note_off_c, 4, 69, 64
10, 2688, Note_on_c, 4, 65, 90
10, 2760, Note_off_c, 4, 65, 64
10, 2760, Note_on_c, 4, 75, 90
10, 2784, Note_off_c, 4, 75, 64
10, 2784, Note_on_c, 4, 64, 90
10, 2808, Note_off_c, 4, 64, 64
10, 2808, Note_on_c, 4, 76, 90
10, 2832, Note_off_c, 4, 76, 64
10, 2832, Note_on_c, 4, 74, 90
10, 2856, Note_off_c, 4, 74, 64
10, 2856, Note_on_c, 4, 71, 90
10, 2880, Note_off_c, 4, 71, 64
10, 2880, Note_on_c, 4, 69, 90
10, 2976, Note_off_c, 4, 69, 64
10, 2976, Note_on_c, 4, 81, 90
10, 3024, Note_off_c, 4, 81, 64
10, 3072, Note_on_c, 4, 93, 90
10, 3120, Note_off_c, 4, 93, 64
10, 3156, Note_on_c, 4, 93, 90
10, 3172, Note_off_c, 4, 93, 64
10, 3192, Note_on_c, 4, 94, 90
10, 3216, Note_off_c, 4, 94, 64
10, 3216, Note_on_c, 4, 93, 90
10, 3240, Note_off_c, 4, 93, 64
10, 3240, Note_on_c, 4, 91, 90
10, 3264, Note_off_c, 4, 91, 64
10, 3264, Note_on_c, 4, 89, 90
10, 3312, Note_off_c, 4, 89, 64
10, 3348, Note_on_c, 4, 86, 90
10, 3364, Note_off_c, 4, 86, 64
10, 3384, Note_on_c, 4, 89, 90
10, 3408, Note_off_c, 4, 89, 64
10, 3408, Note_on_c, 4, 88, 90
10, 3432, Note_off_c, 4, 88, 64
10, 3432, Note_on_c, 4, 86, 90
10, 3456, Note_off_c, 4, 86, 64
10, 3456, Note_on_c, 4, 91, 90
10, 3504, Note_off_c, 4, 91, 64
10, 3540, Note_on_c, 4, 91, 90
10, 3556, Note_off_c, 4, 91, 64
10, 3576, Note_on_c, 4, 93, 90
10, 3600, Note_off_c, 4, 93, 64
10, 3600, Note_on_c, 4, 91, 90
10, 3624, Note_off_c, 4, 91, 64
10, 3624, Note_on_c, 4, 89, 90
10, 3648, Note_off_c, 4, 89, 64
10, 3648, Note_on_c, 4, 88, 90
10, 3696, Note_off_c, 4, 88, 64
10, 3732, Note_on_c, 4, 84, 90
10, 3748, Note_off_c, 4, 84, 64
10, 3768, Note_on_c, 4, 88, 90
10, 3792, Note_off_c, 4, 88, 64
10, 3792, Note_on_c, 4, 86, 90
10, 3816, Note_off_c, 4, 86, 64
10, 3816, Note_on_c, 4, 84, 90
10, 3840, Note_off_c, 4, 84, 64
10, 3840, Note_on_c, 4, 89, 90
10, 3888, Note_off_c, 4, 89, 64
10, 3924, Note_on_c, 4, 82, 90
10, 3940, Note_off_c, 4, 82, 64
10, 3960, Note_on_c, 4, 86, 90
10, 3984, Note_off_c, 4, 86, 64
10, 3984, Note_on_c, 4, 84, 90
10, 4008, Note_off_c, 4, 84, 64
10, 4008, Note_on_c, 4, 82, 90
10, 4032, Note_off_c, 4, 82, 64
10, 4032, Note_on_c, 4, 88, 90
10, 4080, Note_off_c, 4, 88, 64
10, 4116, Note_on_c, 4, 81, 90
10, 4132, Note_off_c, 4, 81, 64
10, 4152, Note_on_c, 4, 84, 90
10, 4176, Note_off_c, 4, 84, 64
10, 4176, Note_on_c, 4, 83, 90
10, 4200, Note_off_c, 4, 83, 64
10, 4200, Note_on_c, 4, 81, 90
10, 4224, Note_off_c, 4, 81, 64
10, 4224, Note_on_c, 4, 65, 90
10, 4232, Note_off_c, 4, 65, 64
10, 4296, Note_on_c, 4, 75, 90
10, 4304, Note_off_c, 4, 75, 64
10, 4320, Note_on_c, 4, 64, 90
10, 4328, Note_off_c, 4, 64, 64
10, 4344, Note_on_c, 4, 76, 90
10, 4352, Note_off_c, 4, 76, 64
10, 4368, Note_on_c, 4, 74, 90
10, 4376, Note_off_c, 4, 74, 64
10, 4392, Note_on_c, 4, 71, 90
10, 4400, Note_off_c, 4, 71, 64
10, 4416, Note_on_c, 4, 69, 90
10, 4424, Note_off_c, 4, 69, 64
10, 4512, Note_on_c, 4, 93, 90
10, 4520, Note_off_c, 4, 93, 64
10, 4608, Note_on_c, 4, 45, 90
10, 4656, Note_off_c, 4, 45, 64
10, 4680, Note_on_c, 4, 45, 90
10, 4704, Note_off_c, 4, 45, 64
10, 4704, Note_on_c, 4, 45, 90
10, 4728, Note_off_c, 4, 45, 64
10, 4728, Note_on_c, 4, 48, 90
10, 4752, Note_off_c, 4, 48, 64
10, 4752, Note_on_c, 4, 47, 90
10, 4776, Note_off_c, 4, 47, 64
10, 4776, Note_on_c, 4, 45, 90
10, 4800, Note_off_c, 4, 45, 64
10, 4800, Note_on_c, 4, 52, 90
10, 4848, Note_off_c, 4, 52, 64
10, 4872, Note_on_c, 4, 40, 90
10, 4896, Note_off_c, 4, 40, 64
10, 4896, Note_on_c, 4, 40, 90
10, 4920, Note_off_c, 4, 40, 64
10, 4920, Note_on_c, 4, 43, 90
10, 4944, Note_off_c, 4, 43, 64
10, 4944, Note_on_c, 4, 41, 90
10, 4968, Note_off_c, 4, 41, 64
10, 4968, Note_on_c, 4, 40, 90
10, 4992, Note_off_c, 4, 40, 64
10, 4992, Note_on_c, 4, 45, 90
10, 5040, Note_off_c, 4, 45, 64
10, 5064, Note_on_c, 4, 45, 90
10, 5088, Note_off_c, 4, 45, 64
10, 5088, Note_on_c, 4, 45, 90
10, 5112, Note_off_c, 4, 45, 64
10, 5112, Note_on_c, 4, 48, 90
10, 5136, Note_off_c, 4, 48, 64
10, 5136, Note_on_c, 4, 47, 90
10, 5160, Note_off_c, 4, 47, 64
10, 5160, Note_on_c, 4, 45, 90
10, 5184, Note_off_c, 4, 45, 64
10, 5184, Note_on_c, 4, 52, 90
10, 5244, Note_on_c, 4, 40, 90
10, 5248, Note_off_c, 4, 52, 64
10, 5276, Note_off_c, 4, 40, 64
10, 5280, Note_on_c, 4, 64, 90
10, 5312, Note_off_c, 4, 64, 64
10, 5316, Note_on_c, 4, 52, 90
10, 5340, Note_on_c, 4, 40, 90
10, 5348, Note_off_c, 4, 52, 64
10, 5372, Note_off_c, 4, 40, 64
10, 5376, Note_on_c, 4, 45, 90
10, 5424, Note_off_c, 4, 45, 64
10, 5448, Note_on_c, 4, 45, 90
10, 5472, Note_off_c, 4, 45, 64
10, 5472, Note_on_c, 4, 45, 90
10, 5496, Note_off_c, 4, 45, 64
10, 5496, Note_on_c, 4, 48, 90
10, 5520, Note_off_c, 4, 48, 64
10, 5520, Note_on_c, 4, 47, 90
10, 5544, Note_off_c, 4, 47, 64
10, 5544, Note_on_c, 4, 45, 90
10, 5568, Note_off_c, 4, 45, 64
10, 5568, Note_on_c, 4, 52, 90
10, 5616, Note_off_c, 4, 52, 64
10, 5640, Note_on_c, 4, 40, 90
10, 5664, Note_off_c, 4, 40, 64
10, 5664, Note_on_c, 4, 40, 90
10, 5688, Note_off_c, 4, 40, 64
10, 5688, Note_on_c, 4, 43, 90
10, 5712, Note_off_c, 4, 43, 64
10, 5712, Note_on_c, 4, 41, 90
10, 5736, Note_off_c, 4, 41, 64
10, 5736, Note_on_c, 4, 40, 90
10, 5760, Note_off_c, 4, 40, 64
10, 5760, Note_on_c, 4, 45, 90
10, 5808, Note_off_c, 4, 45, 64
10, 5832, Note_on_c, 4, 45, 90
10, 5856, Note_off_c, 4, 45, 64
10, 5856, Note_on_c, 4, 45, 90
10, 5880, Note_off_c, 4, 45, 64
10, 5880, Note_on_c, 4, 48, 90
10, 5904, Note_off_c, 4, 48, 64
10, 5904, Note_on_c, 4, 47, 90
10, 5928, Note_off_c, 4, 47, 64
10, 5928, Note_on_c, 4, 45, 90
10, 5952, Note_off_c, 4, 45, 64
10, 5952, Note_on_c, 4, 52, 90
10, 6012, Note_on_c, 4, 40, 90
10, 6016, Note_off_c, 4, 52, 64
10, 6044, Note_off_c, 4, 40, 64
10, 6048, Note_on_c, 4, 28, 90
10, 6080, Note_off_c, 4, 28, 64
10, 6084, Note_on_c, 4, 40, 90
10, 6108, Note_on_c, 4, 52, 90
10, 6116, Note_off_c, 4, 40, 64
10, 6140, Note_off_c, 4, 52, 64
10, 6144, Note_on_c, 4, 69, 90
10, 6192, Note_off_c, 4, 69, 64
10, 6216, Note_on_c, 4, 69, 90
10, 6240, Note_off_c, 4, 69, 64
10, 6240, Note_on_c, 4, 69, 90
10, 6264, Note_off_c, 4, 69, 64
10, 6264, Note_on_c, 4, 70, 90
10, 6288, Note_off_c, 4, 70, 64
10, 6288, Note_on_c, 4, 69, 90
10, 6312, Note_off_c, 4, 69, 64
10, 6312, Note_on_c, 4, 67, 90
10, 6336, Note_off_c, 4, 67, 64
10, 6336, Note_on_c, 4, 65, 90
10, 6384, Note_off_c, 4, 65, 64
10, 6408, Note_on_c, 4, 62, 90
10, 6432, Note_off_c, 4, 62, 64
10, 6432, Note_on_c, 4, 62, 90
10, 6456, Note_off_c, 4, 62, 64
10, 6456, Note_on_c, 4, 65, 90
10, 6480, Note_off_c, 4, 65, 64
10, 6480, Note_on_c, 4, 64, 90
10, 6504, Note_off_c, 4, 64, 64
10, 6504, Note_on_c, 4, 62, 90
10, 6528, Note_off_c, 4, 62, 64
10, 6528, Note_on_c, 4, 67, 90
10, 6576, Note_off_c, 4, 67, 64
10, 6600, Note_on_c, 4, 67, 90
10, 6624, Note_off_c, 4, 67, 64
10, 6624, Note_on_c, 4, 67, 90
10, 6648, Note_off_c, 4, 67, 64
10, 6648, Note_on_c, 4, 69, 90
10, 6672, Note_off_c, 4, 69, 64
10, 6672, Note_on_c, 4, 67, 90
10, 6696, Note_off_c, 4, 67, 64
10, 6696, Note_on_c, 4, 65, 90
10, 6720, Note_off_c, 4, 65, 64
10, 6720, Note_on_c, 4, 64, 90
10, 6768, Note_off_c, 4, 64, 64
10, 6792, Note_on_c, 4, 60, 90
10, 6816, Note_off_c, 4, 60, 64
10, 6816, Note_on_c, 4, 60, 90
10, 6840, Note_off_c, 4, 60, 64
10, 6840, Note_on_c, 4, 64, 90
10, 6864, Note_off_c, 4, 64, 64
10, 6864, Note_on_c, 4, 62, 90
10, 6888, Note_off_c, 4, 62, 64
10, 6888, Note_on_c, 4, 60, 90
10, 6912, Note_off_c, 4, 60, 64
10, 6912, Note_on_c, 4, 65, 90
10, 6960, Note_off_c, 4, 65, 64
10, 6984, Note_on_c, 4, 59, 90
10, 7008, Note_off_c, 4, 59, 64
10, 7008, Note_on_c, 4, 59, 90
10, 7032, Note_off_c, 4, 59, 64
10, 7032, Note_on_c, 4, 62, 90
10, 7056, Note_off_c, 4, 62, 64
10, 7056, Note_on_c, 4, 60, 90
10, 7080, Note_off_c, 4, 60, 64
10, 7080, Note_on_c, 4, 59, 90
10, 7104, Note_off_c, 4, 59, 64
10, 7104, Note_on_c, 4, 64, 90
10, 7152, Note_off_c, 4, 64, 64
10, 7176, Note_on_c, 4, 57, 90
10, 7200, Note_off_c, 4, 57, 64
10, 7200, Note_on_c, 4, 57, 90
10, 7224, Note_off_c, 4, 57, 64
10, 7224, Note_on_c, 4, 60, 90
10, 7248, Note_off_c, 4, 60, 64
10, 7248, Note_on_c, 4, 59, 90
10, 7272, Note_off_c, 4, 59, 64
10, 7272, Note_on_c, 4, 57, 90
10, 7296, Note_off_c, 4, 57, 64
10, 7296, Note_on_c, 4, 53, 90
10, 7344, Note_off_c, 4, 53, 64
10, 7344, Note_on_c, 4, 62, 90
10, 7392, Note_off_c, 4, 62, 64
10, 7392, Note_on_c, 4, 52, 90
10, 7416, Note_off_c, 4, 52, 64
10, 7416, Note_on_c, 4, 64, 90
10, 7440, Note_off_c, 4, 64, 64
10, 7440, Note_on_c, 4, 62, 90
10, 7464, Note_off_c, 4, 62, 64
10, 7464, Note_on_c, 4, 59, 90
10, 7488, Note_off_c, 4, 59, 64
10, 7488, Note_on_c, 4, 57, 90
10, 7584, Note_off_c, 4, 57, 64
10, 7584, Note_on_c, 4, 69, 90
10, 7632, Note_off_c, 4, 69, 64
10, 7680, Note_on_c, 4, 57, 90
10, 7704, Note_off_c, 4, 57, 64
10, 7704, Note_on_c, 4, 56, 90
10, 7728, Note_off_c, 4, 56, 64
10, 7728, Note_on_c, 4, 57, 90
10, 7752, Note_off_c, 4, 57, 64
10, 7752, Note_on_c, 4, 56, 90
10, 7776, Note_off_c, 4, 56, 64
10, 7776, Note_on_c, 4, 58, 90
10, 7784, Note_off_c, 4, 58, 64
10, 7788, Note_on_c, 4, 57, 90
10, 7800, Note_on_c, 4, 59, 90
10, 7804, Note_off_c, 4, 57, 64
10, 7824, Note_off_c, 4, 59, 64
10, 7824, Note_on_c, 4, 60, 90
10, 7848, Note_off_c, 4, 60, 64
10, 7848, Note_on_c, 4, 62, 90
10, 7872, Note_off_c, 4, 62, 64
10, 7872, Note_on_c, 4, 64, 90
10, 7896, Note_off_c, 4, 64, 64
10, 7896, Note_on_c, 4, 63, 90
10, 7920, Note_off_c, 4, 63, 64
10, 7920, Note_on_c, 4, 64, 90
10, 7944, Note_off_c, 4, 64, 64
10, 7944, Note_on_c, 4, 63, 90
10, 7968, Note_off_c, 4, 63, 64
10, 7968, Note_on_c, 4, 65, 90
10, 7976, Note_off_c, 4, 65, 64
10, 7980, Note_on_c, 4, 64, 90
10, 7992, Note_on_c, 4, 62, 90
10, 7996, Note_off_c, 4, 64, 64
10, 8016, Note_off_c, 4, 62, 64
10, 8016, Note_on_c, 4, 60, 90
10, 8040, Note_off_c, 4, 60, 64
10, 8040, Note_on_c, 4, 59, 90
10, 8064, Note_off_c, 4, 59, 64
10, 8064, Note_on_c, 4, 57, 90
10, 8088, Note_off_c, 4, 57, 64
10, 8088, Note_on_c, 4, 56, 90
10, 8112, Note_off_c, 4, 56, 64
10, 8112, Note_on_c, 4, 57, 90
10, 8136, Note_off_c, 4, 57, 64
10, 8136, Note_on_c, 4, 56, 90
10, 8160, Note_off_c, 4, 56, 64
10, 8160, Note_on_c, 4, 58, 90
10, 8168, Note_off_c, 4, 58, 64
10, 8172, Note_on_c, 4, 57, 90
10, 8184, Note_on_c, 4, 59, 90
10, 8188, Note_off_c, 4, 57, 64
10, 8208, Note_off_c, 4, 59, 64
10, 8208, Note_on_c, 4, 60, 90
10, 8232, Note_off_c, 4, 60, 64
10, 8232, Note_on_c, 4, 62, 90
10, 8256, Note_off_c, 4, 62, 64
10, 8256, Note_on_c, 4, 64, 90
10, 8280, Note_off_c, 4, 64, 64
10, 8280, Note_on_c, 4, 63, 90
10, 8304, Note_off_c, 4, 63, 64
10, 8304, Note_on_c, 4, 64, 90
10, 8328, Note_off_c, 4, 64, 64
10, 8328, Note_on_c, 4, 63, 90
10, 8352, Note_off_c, 4, 63, 64
10, 8352, Note_on_c, 4, 65, 90
10, 8360, Note_off_c, 4, 65, 64
10, 8364, Note_on_c, 4, 64, 90
10, 8400, Note_on_c, 4, 52, 90
10, 8404, Note_off_c, 4, 64, 64
10, 8448, Note_off_c, 4, 52, 64
10, 8544, Note_on_c, 4, 81, 90
10, 8688, Note_off_c, 4, 81, 64
10, 8688, Note_on_c, 4, 80, 90
10, 8736, Note_off_c, 4, 80, 64
10, 8736, Note_on_c, 4, 88, 90
10, 8832, Note_off_c, 4, 88, 64
10, 8832, Note_on_c, 4, 88, 90
10, 8880, Note_off_c, 4, 88, 64
10, 8880, Note_on_c, 4, 86, 90
10, 8928, Note_off_c, 4, 86, 64
10, 8928, Note_on_c, 4, 84, 90
10, 8976, Note_off_c, 4, 84, 64
10, 8976, Note_on_c, 4, 83, 90
10, 9024, Note_off_c, 4, 83, 64
10, 9024, Note_on_c, 4, 83, 90
10, 9120, Note_off_c, 4, 83, 64
10, 9120, Note_on_c, 4, 76, 90
10, 9216, Note_off_c, 4, 76, 64
10, 9216, Note_on_c, 4, 69, 90
10, 9240, Note_off_c, 4, 69, 64
10, 9240, Note_on_c, 4, 68, 90
10, 9264, Note_off_c, 4, 68, 64
10, 9264, Note_on_c, 4, 69, 90
10, 9288, Note_off_c, 4, 69, 64
10, 9288, Note_on_c, 4, 68, 90
10, 9312, Note_off_c, 4, 68, 64
10, 9312, Note_on_c, 4, 70, 90
10, 9320, Note_off_c, 4, 70, 64
10, 9324, Note_on_c, 4, 69, 90
10, 9336, Note_on_c, 4, 67, 90
10, 9340, Note_off_c, 4, 69, 64
10, 9360, Note_off_c, 4, 67, 64
10, 9360, Note_on_c, 4, 65, 90
10, 9384, Note_off_c, 4, 65, 64
10, 9384, Note_on_c, 4, 64, 90
10, 9408, Note_off_c, 4, 64, 64
10, 9408, Note_on_c, 4, 62, 90
10, 9432, Note_off_c, 4, 62, 64
10, 9432, Note_on_c, 4, 61, 90
10, 9456, Note_off_c, 4, 61, 64
10, 9456, Note_on_c, 4, 62, 90
10, 9480, Note_off_c, 4, 62, 64
10, 9480, Note_on_c, 4, 61, 90
10, 9504, Note_off_c, 4, 61, 64
10, 9504, Note_on_c, 4, 63, 90
10, 9512, Note_off_c, 4, 63, 64
10, 9516, Note_on_c, 4, 62, 90
10, 9528, Note_on_c, 4, 64, 90
10, 9532, Note_off_c, 4, 62, 64
10, 9552, Note_off_c, 4, 64, 64
10, 9552, Note_on_c, 4, 65, 90
10, 9576, Note_off_c, 4, 65, 64
10, 9576, Note_on_c, 4, 62, 90
10, 9600, Note_off_c, 4, 62, 64
10, 9600, Note_on_c, 4, 67, 90
10, 9624, Note_off_c, 4, 67, 64
10, 9624, Note_on_c, 4, 66, 90
10, 9648, Note_off_c, 4, 66, 64
10, 9648, Note_on_c, 4, 67, 90
10, 9672, Note_off_c, 4, 67, 64
10, 9672, Note_on_c, 4, 66, 90
10, 9696, Note_off_c, 4, 66, 64
10, 9696, Note_on_c, 4, 68, 90
10, 9704, Note_off_c, 4, 68, 64
10, 9708, Note_on_c, 4, 67, 90
10, 9720, Note_on_c, 4, 65, 90
10, 9724, Note_off_c, 4, 67, 64
10, 9744, Note_off_c, 4, 65, 64
10, 9744, Note_on_c, 4, 64, 90
10, 9768, Note_off_c, 4, 64, 64
10, 9768, Note_on_c, 4, 62, 90
10, 9792, Note_off_c, 4, 62, 64
10, 9792, Note_on_c, 4, 60, 90
10, 9816, Note_off_c, 4, 60, 64
10, 9816, Note_on_c, 4, 59, 90
10, 9840, Note_off_c, 4, 59, 64
10, 9840, Note_on_c, 4, 60, 90
10, 9864, Note_off_c, 4, 60, 64
10, 9864, Note_on_c, 4, 59, 90
10, 9888, Note_off_c, 4, 59, 64
10, 9888, Note_on_c, 4, 61, 90
10, 9896, Note_off_c, 4, 61, 64
10, 9900, Note_on_c, 4, 60, 90
10, 9912, Note_on_c, 4, 62, 90
10, 9916, Note_off_c, 4, 60, 64
10, 9936, Note_off_c, 4, 62, 64
10, 9936, Note_on_c, 4, 64, 90
10, 9960, Note_off_c, 4, 64, 64
10, 9960, Note_on_c, 4, 60, 90
10, 9984, Note_off_c, 4, 60, 64
10, 9984, Note_on_c, 4, 65, 90
10, 10008, Note_off_c, 4, 65, 64
10, 10008, Note_on_c, 4, 64, 90
10, 10032, Note_off_c, 4, 64, 64
10, 10032, Note_on_c, 4, 65, 90
10, 10056, Note_off_c, 4, 65, 64
10, 10056, Note_on_c, 4, 64, 90
10, 10080, Note_off_c, 4, 64, 64
10, 10080, Note_on_c, 4, 67, 90
10, 10088, Note_off_c, 4, 67, 64
10, 10092, Note_on_c, 4, 65, 90
10, 10104, Note_on_c, 4, 62, 90
10, 10108, Note_off_c, 4, 65, 64
10, 10128, Note_off_c, 4, 62, 64
10, 10128, Note_on_c, 4, 60, 90
10, 10152, Note_off_c, 4, 60, 64
10, 10152, Note_on_c, 4, 59, 90
10, 10176, Note_off_c, 4, 59, 64
10, 10176, Note_on_c, 4, 64, 90
10, 10200, Note_off_c, 4, 64, 64
10, 10200, Note_on_c, 4, 63, 90
10, 10224, Note_off_c, 4, 63, 64
10, 10224, Note_on_c, 4, 64, 90
10, 10248, Note_off_c, 4, 64, 64
10, 10248, Note_on_c, 4, 63, 90
10, 10272, Note_off_c, 4, 63, 64
10, 10272, Note_on_c, 4, 65, 90
10, 10280, Note_off_c, 4, 65, 64
10, 10284, Note_on_c, 4, 64, 90
10, 10296, Note_on_c, 4, 60, 90
10, 10300, Note_off_c, 4, 64, 64
10, 10320, Note_off_c, 4, 60, 64
10, 10320, Note_on_c, 4, 59, 90
10, 10344, Note_off_c, 4, 59, 64
10, 10344, Note_on_c, 4, 57, 90
10, 10368, Note_off_c, 4, 57, 64
10, 10368, Note_on_c, 4, 59, 90
10, 10392, Note_off_c, 4, 59, 64
10, 10392, Note_on_c, 4, 58, 90
10, 10416, Note_off_c, 4, 58, 64
10, 10416, Note_on_c, 4, 59, 90
10, 10440, Note_off_c, 4, 59, 64
10, 10440, Note_on_c, 4, 58, 90
10, 10464, Note_off_c, 4, 58, 64
10, 10464, Note_on_c, 4, 60, 90
10, 10472, Note_off_c, 4, 60, 64
10, 10476, Note_on_c, 4, 59, 90
10, 10488, Note_on_c, 4, 65, 90
10, 10492, Note_off_c, 4, 59, 64
10, 10512, Note_off_c, 4, 65, 64
10, 10512, Note_on_c, 4, 64, 90
10, 10536, Note_off_c, 4, 64, 64
10, 10536, Note_on_c, 4, 56, 90
10, 10560, Note_off_c, 4, 56, 64
10, 10560, Note_on_c, 4, 57, 90
10, 10584, Note_off_c, 4, 57, 64
10, 10584, Note_on_c, 4, 56, 90
10, 10608, Note_off_c, 4, 56, 64
10, 10608, Note_on_c, 4, 57, 90
10, 10632, Note_off_c, 4, 57, 64
10, 10632, Note_on_c, 4, 56, 90
10, 10656, Note_off_c, 4, 56, 64
10, 10656, Note_on_c, 4, 59, 90
10, 10664, Note_off_c, 4, 59, 64
10, 10668, Note_on_c, 4, 57, 90
10, 10708, Note_off_c, 4, 57, 64
10, 10800, Note_on_c, 4, 93, 90
10, 10896, Note_off_c, 4, 93, 64
10, 10896, Note_on_c, 4, 94, 90
10, 10992, Note_off_c, 4, 94, 64
10, 10992, Note_on_c, 4, 93, 90
10, 11040, Note_off_c, 4, 93, 64
10, 11040, Note_on_c, 4, 89, 90
10, 11088, Note_off_c, 4, 89, 64
10, 11088, Note_on_c, 4, 86, 90
10, 11136, Note_off_c, 4, 86, 64
10, 11184, Note_on_c, 4, 86, 90
10, 11280, Note_off_c, 4, 86, 64
10, 11280, Note_on_c, 4, 88, 90
10, 11376, Note_off_c, 4, 88, 64
10, 11376, Note_on_c, 4, 86, 90
10, 11424, Note_off_c, 4, 86, 64
10, 11424, Note_on_c, 4, 84, 90
10, 11472, Note_off_c, 4, 84, 64
10, 11472, Note_on_c, 4, 79, 90
10, 11520, Note_off_c, 4, 79, 64
10, 11568, Note_on_c, 4, 77, 90
10, 11664, Note_off_c, 4, 77, 64
10, 11664, Note_on_c, 4, 79, 90
10, 11760, Note_off_c, 4, 79, 64
10, 11760, Note_on_c, 4, 77, 90
10, 11808, Note_off_c, 4, 77, 64
10, 11808, Note_on_c, 4, 76, 90
10, 11880, Note_off_c, 4, 76, 64
10, 11880, Note_on_c, 4, 72, 90
10, 11904, Note_off_c, 4, 72, 64
10, 11904, Note_on_c, 4, 71, 90
10, 11952, Note_off_c, 4, 71, 64
10, 11952, Note_on_c, 4, 71, 90
10, 12000, Note_off_c, 4, 71, 64
10, 12000, Note_on_c, 4, 72, 90
10, 12024, Note_off_c, 4, 72, 64
10, 12024, Note_on_c, 4, 71, 90
10, 12048, Note_off_c, 4, 71, 64
10, 12048, Note_on_c, 4, 77, 90
10, 12072, Note_off_c, 4, 77, 64
10, 12072, Note_on_c, 4, 76, 90
10, 12096, Note_off_c, 4, 76, 64
10, 12144, Note_on_c, 4, 69, 90
10, 12192, Note_off_c, 4, 69, 64
10, 12192, Note_on_c, 4, 69, 90
10, 12240, Note_off_c, 4, 69, 64
10, 12288, Note_on_c, 4, 84, 90
10, 12304, Note_off_c, 4, 84, 64
10, 12312, Note_on_c, 4, 81, 90
10, 12320, Note_off_c, 4, 81, 64
10, 12336, Note_on_c, 4, 76, 90
10, 12344, Note_off_c, 4, 76, 64
10, 12360, Note_on_c, 4, 72, 90
10, 12368, Note_off_c, 4, 72, 64
10, 12384, Note_on_c, 4, 69, 90
10, 12392, Note_off_c, 4, 69, 64
10, 12408, Note_on_c, 4, 76, 90
10, 12416, Note_off_c, 4, 76, 64
10, 12432, Note_on_c, 4, 72, 90
10, 12440, Note_off_c, 4, 72, 64
10, 12456, Note_on_c, 4, 69, 90
10, 12464, Note_off_c, 4, 69, 64
10, 12492, Note_on_c, 4, 83, 90
10, 12504, Note_on_c, 4, 80, 90
10, 12508, Note_off_c, 4, 83, 64
10, 12528, Note_off_c, 4, 80, 64
10, 12528, Note_on_c, 4, 76, 90
10, 12552, Note_off_c, 4, 76, 64
10, 12552, Note_on_c, 4, 86, 90
10, 12576, Note_off_c, 4, 86, 64
10, 12576, Note_on_c, 4, 83, 90
10, 12600, Note_off_c, 4, 83, 64
10, 12600, Note_on_c, 4, 76, 90
10, 12624, Note_off_c, 4, 76, 64
10, 12624, Note_on_c, 4, 80, 90
10, 12648, Note_off_c, 4, 80, 64
10, 12648, Note_on_c, 4, 76, 90
10, 12672, Note_off_c, 4, 76, 64
10, 12684, Note_on_c, 4, 84, 90
10, 12696, Note_on_c, 4, 81, 90
10, 12700, Note_off_c, 4, 84, 64
10, 12720, Note_off_c, 4, 81, 64
10, 12720, Note_on_c, 4, 76, 90
10, 12744, Note_off_c, 4, 76, 64
10, 12744, Note_on_c, 4, 72, 90
10, 12768, Note_off_c, 4, 72, 64
10, 12768, Note_on_c, 4, 69, 90
10, 12792, Note_off_c, 4, 69, 64
10, 12792, Note_on_c, 4, 76, 90
10, 12816, Note_off_c, 4, 76, 64
10, 12816, Note_on_c, 4, 72, 90
10, 12840, Note_off_c, 4, 72, 64
10, 12840, Note_on_c, 4, 69, 90
10, 12864, Note_off_c, 4, 69, 64
10, 12876, Note_on_c, 4, 83, 90
10, 12888, Note_on_c, 4, 80, 90
10, 12892, Note_off_c, 4, 83, 64
10, 12912, Note_off_c, 4, 80, 64
10, 12912, Note_on_c, 4, 76, 90
10, 12936, Note_off_c, 4, 76, 64
10, 12936, Note_on_c, 4, 76, 90
10, 12960, Note_off_c, 4, 76, 64
10, 12960, Note_on_c, 4, 71, 90
10, 12984, Note_off_c, 4, 71, 64
10, 12984, Note_on_c, 4, 68, 90
10, 13008, Note_off_c, 4, 68, 64
10, 13008, Note_on_c, 4, 64, 90
10, 13056, Note_off_c, 4, 64, 64
10, 13068, Note_on_c, 4, 96, 90
10, 13076, Note_off_c, 4, 96, 64
10, 13080, Note_on_c, 4, 93, 90
10, 13104, Note_off_c, 4, 93, 64
10, 13104, Note_on_c, 4, 88, 90
10, 13128, Note_off_c, 4, 88, 64
10, 13128, Note_on_c, 4, 84, 90
10, 13152, Note_off_c, 4, 84, 64
10, 13152, Note_on_c, 4, 81, 90
10, 13176, Note_off_c, 4, 81, 64
10, 13176, Note_on_c, 4, 88, 90
10, 13200, Note_off_c, 4, 88, 64
10, 13200, Note_on_c, 4, 84, 90
10, 13224, Note_off_c, 4, 84, 64
10, 13224, Note_on_c, 4, 81, 90
10, 13248, Note_off_c, 4, 81, 64
10, 13260, Note_on_c, 4, 95, 90
10, 13268, Note_off_c, 4, 95, 64
10, 13272, Note_on_c, 4, 92, 90
10, 13296, Note_off_c, 4, 92, 64
10, 13296, Note_on_c, 4, 88, 90
10, 13320, Note_off_c, 4, 88, 64
10, 13320, Note_on_c, 4, 98, 90
10, 13344, Note_off_c, 4, 98, 64
10, 13344, Note_on_c, 4, 95, 90
10, 13368, Note_off_c, 4, 95, 64
10, 13368, Note_on_c, 4, 88, 90
10, 13392, Note_off_c, 4, 88, 64
10, 13392, Note_on_c, 4, 92, 90
10, 13416, Note_off_c, 4, 92, 64
10, 13416, Note_on_c, 4, 88, 90
10, 13440, Note_off_c, 4, 88, 64
10, 13452, Note_on_c, 4, 96, 90
10, 13460, Note_off_c, 4, 96, 64
10, 13464, Note_on_c, 4, 93, 90
10, 13488, Note_off_c, 4, 93, 64
10, 13488, Note_on_c, 4, 88, 90
10, 13512, Note_off_c, 4, 88, 64
10, 13512, Note_on_c, 4, 84, 90
10, 13536, Note_off_c, 4, 84, 64
10, 13536, Note_on_c, 4, 81, 90
10, 13560, Note_off_c, 4, 81, 64
10, 13560, Note_on_c, 4, 88, 90
10, 13584, Note_off_c, 4, 88, 64
10, 13584, Note_on_c, 4, 84, 90
10, 13608, Note_off_c, 4, 84, 64
10, 13608, Note_on_c, 4, 81, 90
10, 13632, Note_off_c, 4, 81, 64
10, 13644, Note_on_c, 4, 95, 90
10, 13652, Note_off_c, 4, 95, 64
10, 13656, Note_on_c, 4, 92, 90
10, 13680, Note_off_c, 4, 92, 64
10, 13680, Note_on_c, 4, 88, 90
10, 13704, Note_off_c, 4, 88, 64
10, 13704, Note_on_c, 4, 83, 90
10, 13728, Note_off_c, 4, 83, 64
10, 13728, Note_on_c, 4, 80, 90
10, 13752, Note_off_c, 4, 80, 64
10, 13752, Note_on_c, 4, 71, 90
10, 13776, Note_off_c, 4, 71, 64
10, 13776, Note_on_c, 4, 76, 90
10, 13824, Note_off_c, 4, 76, 64
10, 13824, Note_on_c, 4, 88, 90
10, 13848, Note_off_c, 4, 88, 64
10, 13848, Note_on_c, 4, 85, 90
10, 13872, Note_off_c, 4, 85, 64
10, 13872, Note_on_c, 4, 81, 90
10, 13896, Note_off_c, 4, 81, 64
10, 13896, Note_on_c, 4, 76, 90
10, 13920, Note_off_c, 4, 76, 64
10, 13920, Note_on_c, 4, 73, 90
10, 13944, Note_off_c, 4, 73, 64
10, 13944, Note_on_c, 4, 69, 90
10, 13968, Note_off_c, 4, 69, 64
10, 13968, Note_on_c, 4, 67, 90
10, 13992, Note_off_c, 4, 67, 64
10, 13992, Note_on_c, 4, 64, 90
10, 14016, Note_off_c, 4, 64, 64
10, 14016, Note_on_c, 4, 66, 90
10, 14024, Note_off_c, 4, 66, 64
10, 14040, Note_on_c, 4, 62, 90
10, 14048, Note_off_c, 4, 62, 64
10, 14064, Note_on_c, 4, 86, 90
10, 14072, Note_off_c, 4, 86, 64
10, 14088, Note_on_c, 4, 81, 90
10, 14096, Note_off_c, 4, 81, 64
10, 14112, Note_on_c, 4, 77, 90
10, 14120, Note_off_c, 4, 77, 64
10, 14136, Note_on_c, 4, 74, 90
10, 14144, Note_off_c, 4, 74, 64
10, 14160, Note_on_c, 4, 65, 90
10, 14168, Note_off_c, 4, 65, 64
10, 14184, Note_on_c, 4, 62, 90
10, 14192, Note_off_c, 4, 62, 64
10, 14208, Note_on_c, 4, 86, 90
10, 14232, Note_off_c, 4, 86, 64
10, 14232, Note_on_c, 4, 83, 90
10, 14256, Note_off_c, 4, 83, 64
10, 14256, Note_on_c, 4, 79, 90
10, 14280, Note_off_c, 4, 79, 64
10, 14280, Note_on_c, 4, 77, 90
10, 14304, Note_off_c, 4, 77, 64
10, 14304, Note_on_c, 4, 74, 90
10, 14328, Note_off_c, 4, 74, 64
10, 14328, Note_on_c, 4, 71, 90
10, 14352, Note_off_c, 4, 71, 64
10, 14352, Note_on_c, 4, 65, 90
10, 14376, Note_off_c, 4, 65, 64
10, 14376, Note_on_c, 4, 62, 90
10, 14400, Note_off_c, 4, 62, 64
10, 14400, Note_on_c, 4, 64, 90
10, 14408, Note_off_c, 4, 64, 64
10, 14424, Note_on_c, 4, 60, 90
10, 14432, Note_off_c, 4, 60, 64
10, 14448, Note_on_c, 4, 84, 90
10, 14456, Note_off_c, 4, 84, 64
10, 14472, Note_on_c, 4, 79, 90
10, 14480, Note_off_c, 4, 79, 64
10, 14496, Note_on_c, 4, 76, 90
10, 14504, Note_off_c, 4, 76, 64
10, 14520, Note_on_c, 4, 72, 90
10, 14528, Note_off_c, 4, 72, 64
10, 14544, Note_on_c, 4, 64, 90
10, 14552, Note_off_c, 4, 64, 64
10, 14568, Note_on_c, 4, 60, 90
10, 14576, Note_off_c, 4, 60, 64
10, 14616, Note_on_c, 4, 89, 90
10, 14624, Note_off_c, 4, 89, 64
10, 14664, Note_on_c, 4, 86, 90
10, 14672, Note_off_c, 4, 86, 64
10, 14712, Note_on_c, 4, 83, 90
10, 14720, Note_off_c, 4, 83, 64
10, 14760, Note_on_c, 4, 79, 90
10, 14768, Note_off_c, 4, 79, 64
10, 14808, Note_on_c, 4, 76, 90
10, 14816, Note_off_c, 4, 76, 64
10, 14856, Note_on_c, 4, 72, 90
10, 14880, Note_off_c, 4, 72, 64
10, 14904, Note_on_c, 4, 69, 90
10, 14928, Note_off_c, 4, 69, 64
10, 14952, Note_on_c, 4, 64, 90
10, 14976, Note_off_c, 4, 64, 64
10, 14976, Note_on_c, 4, 65, 90
10, 15000, Note_off_c, 4, 65, 64
10, 15000, Note_on_c, 4, 50, 90
10, 15024, Note_off_c, 4, 50, 64
10, 15024, Note_on_c, 4, 81, 90
10, 15048, Note_off_c, 4, 81, 64
10, 15048, Note_on_c, 4, 77, 90
10, 15072, Note_off_c, 4, 77, 64
10, 15072, Note_on_c, 4, 68, 90
10, 15096, Note_off_c, 4, 68, 64
10, 15096, Note_on_c, 4, 52, 90
10, 15120, Note_off_c, 4, 52, 64
10, 15120, Note_on_c, 4, 83, 90
10, 15144, Note_off_c, 4, 83, 64
10, 15144, Note_on_c, 4, 80, 90
10, 15168, Note_off_c, 4, 80, 64
10, 15168, Note_on_c, 4, 81, 90
10, 15192, Note_off_c, 4, 81, 64
10, 15192, Note_on_c, 4, 69, 90
10, 15216, Note_off_c, 4, 69, 64
10, 15216, Note_on_c, 4, 72, 90
10, 15240, Note_off_c, 4, 72, 64
10, 15240, Note_on_c, 4, 69, 90
10, 15264, Note_off_c, 4, 69, 64
10, 15360, Note_on_c, 4, 93, 90
10, 15504, Note_off_c, 4, 93, 64
10, 15504, Note_on_c, 4, 88, 90
10, 15528, Note_off_c, 4, 88, 64
10, 15528, Note_on_c, 4, 96, 90
10, 15552, Note_off_c, 4, 96, 64
10, 15552, Note_on_c, 4, 95, 90
10, 15576, Note_off_c, 4, 95, 64
10, 15576, Note_on_c, 4, 93, 90
10, 15600, Note_off_c, 4, 93, 64
10, 15600, Note_on_c, 4, 92, 90
10, 15624, Note_off_c, 4, 92, 64
10, 15624, Note_on_c, 4, 90, 90
10, 15648, Note_off_c, 4, 90, 64
10, 15648, Note_on_c, 4, 88, 90
10, 15672, Note_off_c, 4, 88, 64
10, 15672, Note_on_c, 4, 90, 90
10, 15696, Note_off_c, 4, 90, 64
10, 15696, Note_on_c, 4, 92, 90
10, 15720, Note_off_c, 4, 92, 64
10, 15720, Note_on_c, 4, 88, 90
10, 15744, Note_off_c, 4, 88, 64
10, 15744, Note_on_c, 4, 93, 90
10, 15816, Note_off_c, 4, 93, 64
10, 15816, Note_on_c, 4, 95, 90
10, 15824, Note_off_c, 4, 95, 64
10, 15828, Note_on_c, 4, 93, 90
10, 15828, Note_on_c, 4, 92, 90
10, 15836, Note_off_c, 4, 93, 64
10, 15836, Note_off_c, 4, 92, 64
10, 15840, Note_on_c, 4, 93, 90
10, 15864, Note_off_c, 4, 93, 64
10, 15864, Note_on_c, 4, 95, 90
10, 15888, Note_off_c, 4, 95, 64
10, 15888, Note_on_c, 4, 96, 90
10, 15912, Note_off_c, 4, 96, 64
10, 15912, Note_on_c, 4, 98, 90
10, 15936, Note_off_c, 4, 98, 64
10, 15936, Note_on_c, 4, 99, 90
10, 16008, Note_off_c, 4, 99, 64
10, 16008, Note_on_c, 4, 100, 90
10, 16032, Note_off_c, 4, 100, 64
10, 16032, Note_on_c, 4, 88, 90
10, 16128, Note_off_c, 4, 88, 64
10, 16128, Note_on_c, 4, 93, 90
10, 16272, Note_off_c, 4, 93, 64
10, 16272, Note_on_c, 4, 88, 90
10, 16296, Note_off_c, 4, 88, 64
10, 16296, Note_on_c, 4, 96, 90
10, 16320, Note_off_c, 4, 96, 64
10, 16320, Note_on_c, 4, 95, 90
10, 16344, Note_off_c, 4, 95, 64
10, 16344, Note_on_c, 4, 93, 90
10, 16368, Note_off_c, 4, 93, 64
10, 16368, Note_on_c, 4, 92, 90
10, 16392, Note_off_c, 4, 92, 64
10, 16392, Note_on_c, 4, 90, 90
10, 16416, Note_off_c, 4, 90, 64
10, 16416, Note_on_c, 4, 88, 90
10, 16440, Note_off_c, 4, 88, 64
10, 16440, Note_on_c, 4, 90, 90
10, 16464, Note_off_c, 4, 90, 64
10, 16464, Note_on_c, 4, 92, 90
10, 16488, Note_off_c, 4, 92, 64
10, 16488, Note_on_c, 4, 88, 90
10, 16512, Note_off_c, 4, 88, 64
10, 16512, Note_on_c, 4, 93, 90
10, 16584, Note_off_c, 4, 93, 64
10, 16584, Note_on_c, 4, 95, 90
10, 16592, Note_off_c, 4, 95, 64
10, 16596, Note_on_c, 4, 93, 90
10, 16596, Note_on_c, 4, 92, 90
10, 16604, Note_off_c, 4, 93, 64
10, 16604, Note_off_c, 4, 92, 64
10, 16608, Note_on_c, 4, 93, 90
10, 16632, Note_off_c, 4, 93, 64
10, 16632, Note_on_c, 4, 95, 90
10, 16656, Note_off_c, 4, 95, 64
10, 16656, Note_on_c, 4, 96, 90
10, 16680, Note_off_c, 4, 96, 64
10, 16680, Note_on_c, 4, 98, 90
10, 16704, Note_off_c, 4, 98, 64
10, 16704, Note_on_c, 4, 99, 90
10, 16776, Note_off_c, 4, 99, 64
10, 16776, Note_on_c, 4, 100, 90
10, 16800, Note_off_c, 4, 100, 64
10, 16800, Note_on_c, 4, 88, 90
10, 16896, Note_off_c, 4, 88, 64
10, 16896, Note_on_c, 4, 93, 90
10, 17016, Note_off_c, 4, 93, 64
10, 17016, Note_on_c, 4, 100, 90
10, 17040, Note_off_c, 4, 100, 64
10, 17040, Note_on_c, 4, 97, 90
10, 17064, Note_off_c, 4, 97, 64
10, 17064, Note_on_c, 4, 93, 90
10, 17088, Note_off_c, 4, 93, 64
10, 17088, Note_on_c, 4, 91, 90
10, 17112, Note_off_c, 4, 91, 64
10, 17112, Note_on_c, 4, 88, 90
10, 17136, Note_off_c, 4, 88, 64
10, 17136, Note_on_c, 4, 85, 90
10, 17160, Note_off_c, 4, 85, 64
10, 17160, Note_on_c, 4, 81, 90
10, 17184, Note_off_c, 4, 81, 64
10, 17184, Note_on_c, 4, 79, 90
10, 17208, Note_off_c, 4, 79, 64
10, 17208, Note_on_c, 4, 77, 90
10, 17232, Note_off_c, 4, 77, 64
10, 17232, Note_on_c, 4, 76, 90
10, 17256, Note_off_c, 4, 76, 64
10, 17256, Note_on_c, 4, 74, 90
10, 17280, Note_off_c, 4, 74, 64
10, 17280, Note_on_c, 4, 77, 90
10, 17292, Note_on_c, 4, 76, 90
10, 17296, Note_off_c, 4, 77, 64
10, 17308, Note_off_c, 4, 76, 64
10, 17316, Note_on_c, 4, 77, 90
10, 17328, Note_on_c, 4, 76, 90
10, 17332, Note_off_c, 4, 77, 64
10, 17340, Note_on_c, 4, 77, 90
10, 17344, Note_off_c, 4, 76, 64
10, 17348, Note_off_c, 4, 77, 64
10, 17352, Note_on_c, 4, 76, 90
10, 17360, Note_off_c, 4, 76, 64
10, 17364, Note_on_c, 4, 77, 90
10, 17364, Note_on_c, 4, 76, 90
10, 17372, Note_off_c, 4, 77, 64
10, 17372, Note_off_c, 4, 76, 64
10, 17376, Note_on_c, 4, 77, 90
10, 17424, Note_off_c, 4, 77, 64
10, 17784, Note_on_c, 4, 86, 90
10, 17808, Note_off_c, 4, 86, 64
10, 17808, Note_on_c, 4, 83, 90
10, 17832, Note_off_c, 4, 83, 64
10, 17832, Note_on_c, 4, 81, 90
10, 17856, Note_off_c, 4, 81, 64
10, 17856, Note_on_c, 4, 80, 90
10, 17880, Note_off_c, 4, 80, 64
10, 17880, Note_on_c, 4, 76, 90
10, 17904, Note_off_c, 4, 76, 64
10, 17904, Note_on_c, 4, 74, 90
10, 17928, Note_off_c, 4, 74, 64
10, 17928, Note_on_c, 4, 71, 90
10, 17952, Note_off_c, 4, 71, 64
10, 17952, Note_on_c, 4, 72, 90
10, 17976, Note_off_c, 4, 72, 64
10, 17976, Note_on_c, 4, 76, 90
10, 18000, Note_off_c, 4, 76, 64
10, 18000, Note_on_c, 4, 81, 90
10, 18024, Note_off_c, 4, 81, 64
10, 18024, Note_on_c, 4, 79, 90
10, 18048, Note_off_c, 4, 79, 64
10, 18048, Note_on_c, 4, 77, 90
10, 18072, Note_off_c, 4, 77, 64
10, 18072, Note_on_c, 4, 86, 90
10, 18096, Note_off_c, 4, 86, 64
10, 18096, Note_on_c, 4, 83, 90
10, 18120, Note_off_c, 4, 83, 64
10, 18120, Note_on_c, 4, 81, 90
10, 18144, Note_off_c, 4, 81, 64
10, 18144, Note_on_c, 4, 80, 90
10, 18168, Note_off_c, 4, 80, 64
10, 18168, Note_on_c, 4, 95, 90
10, 18192, Note_off_c, 4, 95, 64
10, 18192, Note_on_c, 4, 92, 90
10, 18216, Note_off_c, 4, 92, 64
10, 18216, Note_on_c, 4, 88, 90
10, 18240, Note_off_c, 4, 88, 64
10, 18240, Note_on_c, 4, 92, 90
10, 18252, Note_on_c, 4, 93, 90
10, 18256, Note_off_c, 4, 92, 64
10, 18332, Note_off_c, 4, 93, 64
10, 18336, Note_on_c, 4, 81, 90
10, 18360, Note_off_c, 4, 81, 64
10, 18444, Note_on_c, 4, 52, 90
10, 18444, Note_on_c, 4, 57, 90
10, 18452, Note_off_c, 4, 52, 64
10, 18452, Note_off_c, 4, 57, 64
10, 18456, Note_on_c, 4, 60, 90
10, 18464, Note_off_c, 4, 60, 64
10, 18468, Note_on_c, 4, 64, 90
10, 18468, Note_on_c, 4, 69, 90
10, 18476, Note_off_c, 4, 64, 64
10, 18476, Note_off_c, 4, 69, 64
10, 18480, Note_on_c, 4, 72, 90
10, 18488, Note_off_c, 4, 72, 64
10, 18492, Note_on_c, 4, 76, 90
10, 18492, Note_on_c, 4, 81, 90
10, 18500, Note_off_c, 4, 76, 64
10, 18500, Note_off_c, 4, 81, 64
10, 18504, Note_on_c, 4, 84, 90
10, 18512, Note_off_c, 4, 84, 64
10, 18516, Note_on_c, 4, 88, 90
10, 18516, Note_on_c, 4, 93, 90
10, 18524, Note_off_c, 4, 88, 64
10, 18524, Note_off_c, 4, 93, 64
10, 18528, Note_on_c, 4, 98, 90
10, 18536, Note_off_c, 4, 98, 64
10, 18540, Note_on_c, 4, 92, 90
10, 18540, Note_on_c, 4, 88, 90
10, 18548, Note_off_c, 4, 92, 64
10, 18548, Note_off_c, 4, 88, 64
10, 18552, Note_on_c, 4, 86, 90
10, 18560, Note_off_c, 4, 86, 64
10, 18564, Note_on_c, 4, 79, 90
10, 18564, Note_on_c, 4, 76, 90
10, 18572, Note_off_c, 4, 79, 64
10, 18572, Note_off_c, 4, 76, 64
10, 18576, Note_on_c, 4, 72, 90
10, 18584, Note_off_c, 4, 72, 64
10, 18588, Note_on_c, 4, 69, 90
10, 18588, Note_on_c, 4, 64, 90
10, 18596, Note_off_c, 4, 69, 64
10, 18596, Note_off_c, 4, 64, 64
10, 18600, Note_on_c, 4, 60, 90
10, 18624, Note_off_c, 4, 60, 64
10, 18624, Note_on_c, 4, 59, 90
10, 18640, Note_off_c, 4, 59, 64
10, 18648, Note_on_c, 4, 88, 90
10, 18696, Note_off_c, 4, 88, 64
10, 18696, Note_on_c, 4, 91, 90
10, 18744, Note_off_c, 4, 91, 64
10, 18744, Note_on_c, 4, 89, 90
10, 18792, Note_off_c, 4, 89, 64
10, 18792, Note_on_c, 4, 88, 90
10, 18816, Note_off_c, 4, 88, 64
10, 18828, Note_on_c, 4, 52, 90
10, 18828, Note_on_c, 4, 57, 90
10, 18836, Note_off_c, 4, 52, 64
10, 18836, Note_off_c, 4, 57, 64
10, 18840, Note_on_c, 4, 60, 90
10, 18848, Note_off_c, 4, 60, 64
10, 18852, Note_on_c, 4, 64, 90
10, 18852, Note_on_c, 4, 69, 90
10, 18860, Note_off_c, 4, 64, 64
10, 18860, Note_off_c, 4, 69, 64
10, 18864, Note_on_c, 4, 72, 90
10, 18872, Note_off_c, 4, 72, 64
10, 18876, Note_on_c, 4, 76, 90
10, 18876, Note_on_c, 4, 81, 90
10, 18884, Note_off_c, 4, 76, 64
10, 18884, Note_off_c, 4, 81, 64
10, 18888, Note_on_c, 4, 84, 90
10, 18896, Note_off_c, 4, 84, 64
10, 18900, Note_on_c, 4, 88, 90
10, 18900, Note_on_c, 4, 93, 90
10, 18908, Note_off_c, 4, 88, 64
10, 18908, Note_off_c, 4, 93, 64
10, 18912, Note_on_c, 4, 98, 90
10, 18920, Note_off_c, 4, 98, 64
10, 18924, Note_on_c, 4, 92, 90
10, 18924, Note_on_c, 4, 88, 90
10, 18932, Note_off_c, 4, 92, 64
10, 18932, Note_off_c, 4, 88, 64
10, 18936, Note_on_c, 4, 86, 90
10, 18944, Note_off_c, 4, 86, 64
10, 18948, Note_on_c, 4, 79, 90
10, 18948, Note_on_c, 4, 76, 90
10, 18956, Note_off_c, 4, 79, 64
10, 18956, Note_off_c, 4, 76, 64
10, 18960, Note_on_c, 4, 72, 90
10, 18968, Note_off_c, 4, 72, 64
10, 18972, Note_on_c, 4, 69, 90
10, 18972, Note_on_c, 4, 64, 90
10, 18980, Note_off_c, 4, 69, 64
10, 18980, Note_off_c, 4, 64, 64
10, 18984, Note_on_c, 4, 60, 90
10, 19008, Note_off_c, 4, 60, 64
10, 19008, Note_on_c, 4, 56, 90
10, 19020, Note_on_c, 4, 76, 90
10, 19024, Note_off_c, 4, 56, 64
10, 19036, Note_off_c, 4, 76, 64
10, 19044, Note_on_c, 4, 77, 90
10, 19056, Note_on_c, 4, 78, 90
10, 19060, Note_off_c, 4, 77, 64
10, 19068, Note_on_c, 4, 79, 90
10, 19072, Note_off_c, 4, 78, 64
10, 19084, Note_off_c, 4, 79, 64
10, 19092, Note_on_c, 4, 80, 90
10, 19104, Note_on_c, 4, 81, 90
10, 19108, Note_off_c, 4, 80, 64
10, 19116, Note_on_c, 4, 82, 90
10, 19120, Note_off_c, 4, 81, 64
10, 19132, Note_off_c, 4, 82, 64
10, 19140, Note_on_c, 4, 83, 90
10, 19140, Note_on_c, 4, 84, 90
10, 19148, Note_off_c, 4, 83, 64
10, 19148, Note_off_c, 4, 84, 64
10, 19152, Note_on_c, 4, 85, 90
10, 19160, Note_off_c, 4, 85, 64
10, 19164, Note_on_c, 4, 86, 90
10, 19164, Note_on_c, 4, 87, 90
10, 19172, Note_off_c, 4, 86, 64
10, 19172, Note_off_c, 4, 87, 64
10, 19176, Note_on_c, 4, 88, 90
10, 19184, Note_off_c, 4, 88, 64
10, 19188, Note_on_c, 4, 89, 90
10, 19188, Note_on_c, 4, 88, 90
10, 19196, Note_off_c, 4, 89, 64
10, 19196, Note_off_c, 4, 88, 64
10, 19212, Note_on_c, 4, 52, 90
10, 19212, Note_on_c, 4, 57, 90
10, 19220, Note_off_c, 4, 52, 64
10, 19220, Note_off_c, 4, 57, 64
10, 19224, Note_on_c, 4, 60, 90
10, 19232, Note_off_c, 4, 60, 64
10, 19236, Note_on_c, 4, 64, 90
10, 19236, Note_on_c, 4, 69, 90
10, 19244, Note_off_c, 4, 64, 64
10, 19244, Note_off_c, 4, 69, 64
10, 19248, Note_on_c, 4, 72, 90
10, 19256, Note_off_c, 4, 72, 64
10, 19260, Note_on_c, 4, 76, 90
10, 19260, Note_on_c, 4, 81, 90
10, 19268, Note_off_c, 4, 76, 64
10, 19268, Note_off_c, 4, 81, 64
10, 19272, Note_on_c, 4, 84, 90
10, 19280, Note_off_c, 4, 84, 64
10, 19284, Note_on_c, 4, 88, 90
10, 19284, Note_on_c, 4, 93, 90
10, 19292, Note_off_c, 4, 88, 64
10, 19292, Note_off_c, 4, 93, 64
10, 19296, Note_on_c, 4, 98, 90
10, 19304, Note_off_c, 4, 98, 64
10, 19308, Note_on_c, 4, 92, 90
10, 19308, Note_on_c, 4, 88, 90
10, 19316, Note_off_c, 4, 92, 64
10, 19316, Note_off_c, 4, 88, 64
10, 19320, Note_on_c, 4, 86, 90
10, 19328, Note_off_c, 4, 86, 64
10, 19332, Note_on_c, 4, 79, 90
10, 19332, Note_on_c, 4, 76, 90
10, 19340, Note_off_c, 4, 79, 64
10, 19340, Note_off_c, 4, 76, 64
10, 19344, Note_on_c, 4, 72, 90
10, 19352, Note_off_c, 4, 72, 64
10, 19356, Note_on_c, 4, 69, 90
10, 19356, Note_on_c, 4, 64, 90
10, 19364, Note_off_c, 4, 69, 64
10, 19364, Note_off_c, 4, 64, 64
10, 19368, Note_on_c, 4, 60, 90
10, 19392, Note_off_c, 4, 60, 64
10, 19392, Note_on_c, 4, 59, 90
10, 19408, Note_off_c, 4, 59, 64
10, 19416, Note_on_c, 4, 88, 90
10, 19464, Note_off_c, 4, 88, 64
10, 19464, Note_on_c, 4, 91, 90
10, 19512, Note_off_c, 4, 91, 64
10, 19512, Note_on_c, 4, 89, 90
10, 19560, Note_off_c, 4, 89, 64
10, 19560, Note_on_c, 4, 88, 90
10, 19584, Note_off_c, 4, 88, 64
10, 19596, Note_on_c, 4, 52, 90
10, 19596, Note_on_c, 4, 57, 90
10, 19604, Note_off_c, 4, 52, 64
10, 19604, Note_off_c, 4, 57, 64
10, 19608, Note_on_c, 4, 60, 90
10, 19616, Note_off_c, 4, 60, 64
10, 19620, Note_on_c, 4, 64, 90
10, 19620, Note_on_c, 4, 69, 90
10, 19628, Note_off_c, 4, 64, 64
10, 19628, Note_off_c, 4, 69, 64
10, 19632, Note_on_c, 4, 72, 90
10, 19640, Note_off_c, 4, 72, 64
10, 19644, Note_on_c, 4, 76, 90
10, 19644, Note_on_c, 4, 81, 90
10, 19652, Note_off_c, 4, 76, 64
10, 19652, Note_off_c, 4, 81, 64
10, 19656, Note_on_c, 4, 84, 90
10, 19664, Note_off_c, 4, 84, 64
10, 19668, Note_on_c, 4, 88, 90
10, 19668, Note_on_c, 4, 93, 90
10, 19676, Note_off_c, 4, 88, 64
10, 19676, Note_off_c, 4, 93, 64
10, 19680, Note_on_c, 4, 98, 90
10, 19688, Note_off_c, 4, 98, 64
10, 19692, Note_on_c, 4, 92, 90
10, 19692, Note_on_c, 4, 88, 90
10, 19700, Note_off_c, 4, 92, 64
10, 19700, Note_off_c, 4, 88, 64
10, 19704, Note_on_c, 4, 86, 90
10, 19712, Note_off_c, 4, 86, 64
10, 19716, Note_on_c, 4, 79, 90
10, 19716, Note_on_c, 4, 76, 90
10, 19724, Note_off_c, 4, 79, 64
10, 19724, Note_off_c, 4, 76, 64
10, 19728, Note_on_c, 4, 72, 90
10, 19736, Note_off_c, 4, 72, 64
10, 19740, Note_on_c, 4, 69, 90
10, 19740, Note_on_c, 4, 64, 90
10, 19748, Note_off_c, 4, 69, 64
10, 19748, Note_off_c, 4, 64, 64
10, 19752, Note_on_c, 4, 60, 90
10, 19776, Note_off_c, 4, 60, 64
10, 19776, Note_on_c, 4, 56, 90
10, 19788, Note_on_c, 4, 76, 90
10, 19792, Note_off_c, 4, 56, 64
10, 19804, Note_off_c, 4, 76, 64
10, 19812, Note_on_c, 4, 77, 90
10, 19824, Note_on_c, 4, 78, 90
10, 19828, Note_off_c, 4, 77, 64
10, 19836, Note_on_c, 4, 79, 90
10, 19840, Note_off_c, 4, 78, 64
10, 19852, Note_off_c, 4, 79, 64
10, 19860, Note_on_c, 4, 80, 90
10, 19872, Note_on_c, 4, 81, 90
10, 19876, Note_off_c, 4, 80, 64
10, 19884, Note_on_c, 4, 82, 90
10, 19888, Note_off_c, 4, 81, 64
10, 19900, Note_off_c, 4, 82, 64
10, 19908, Note_on_c, 4, 83, 90
10, 19908, Note_on_c, 4, 84, 90
10, 19916, Note_off_c, 4, 83, 64
10, 19916, Note_off_c, 4, 84, 64
10, 19920, Note_on_c, 4, 85, 90
10, 19928, Note_off_c, 4, 85, 64
10, 19932, Note_on_c, 4, 86, 90
10, 19932, Note_on_c, 4, 87, 90
10, 19940, Note_off_c, 4, 86, 64
10, 19940, Note_off_c, 4, 87, 64
10, 19944, Note_on_c, 4, 88, 90
10, 19952, Note_off_c, 4, 88, 64
10, 19956, Note_on_c, 4, 89, 90
10, 19956, Note_on_c, 4, 88, 90
10, 19964, Note_off_c, 4, 89, 64
10, 19964, Note_off_c, 4, 88, 64
10, 19980, Note_on_c, 4, 61, 90
10, 19980, Note_on_c, 4, 64, 90
10, 19988, Note_off_c, 4, 61, 64
10, 19988, Note_off_c, 4, 64, 64
10, 19992, Note_on_c, 4, 69, 90
10, 20000, Note_off_c, 4, 69, 64
10, 20004, Note_on_c, 4, 69, 90
10, 20004, Note_on_c, 4, 73, 90
10, 20012, Note_off_c, 4, 69, 64
10, 20012, Note_off_c, 4, 73, 64
10, 20016, Note_on_c, 4, 79, 90
10, 20024, Note_off_c, 4, 79, 64
10, 20028, Note_on_c, 4, 82, 90
10, 20028, Note_on_c, 4, 84, 90
10, 20036, Note_off_c, 4, 82, 64
10, 20036, Note_off_c, 4, 84, 64
10, 20040, Note_on_c, 4, 91, 90
10, 20048, Note_off_c, 4, 91, 64
10, 20052, Note_on_c, 4, 84, 90
10, 20052, Note_on_c, 4, 82, 90
10, 20060, Note_off_c, 4, 84, 64
10, 20060, Note_off_c, 4, 82, 64
10, 20064, Note_on_c, 4, 89, 90
10, 20072, Note_off_c, 4, 89, 64
10, 20076, Note_on_c, 4, 84, 90
10, 20076, Note_on_c, 4, 81, 90
10, 20084, Note_off_c, 4, 84, 64
10, 20084, Note_off_c, 4, 81, 64
10, 20088, Note_on_c, 4, 77, 90
10, 20096, Note_off_c, 4, 77, 64
10, 20100, Note_on_c, 4, 72, 90
10, 20100, Note_on_c, 4, 69, 90
10, 20108, Note_off_c, 4, 72, 64
10, 20108, Note_off_c, 4, 69, 64
10, 20112, Note_on_c, 4, 76, 90
10, 20120, Note_off_c, 4, 76, 64
10, 20124, Note_on_c, 4, 70, 90
10, 20124, Note_on_c, 4, 69, 90
10, 20132, Note_off_c, 4, 70, 64
10, 20132, Note_off_c, 4, 69, 64
10, 20136, Note_on_c, 4, 64, 90
10, 20144, Note_off_c, 4, 64, 64
10, 20148, Note_on_c, 4, 58, 90
10, 20148, Note_on_c, 4, 57, 90
10, 20156, Note_off_c, 4, 58, 64
10, 20156, Note_off_c, 4, 57, 64
10, 20160, Note_on_c, 4, 62, 90
10, 20176, Note_off_c, 4, 62, 64
10, 20184, Note_on_c, 4, 73, 90
10, 20192, Note_off_c, 4, 73, 64
10, 20196, Note_on_c, 4, 74, 90
10, 20196, Note_on_c, 4, 76, 90
10, 20204, Note_off_c, 4, 74, 64
10, 20204, Note_off_c, 4, 76, 64
10, 20208, Note_on_c, 4, 77, 90
10, 20216, Note_off_c, 4, 77, 64
10, 20220, Note_on_c, 4, 79, 90
10, 20220, Note_on_c, 4, 81, 90
10, 20228, Note_off_c, 4, 79, 64
10, 20228, Note_off_c, 4, 81, 64
10, 20232, Note_on_c, 4, 85, 90
10, 20240, Note_off_c, 4, 85, 64
10, 20244, Note_on_c, 4, 86, 90
10, 20244, Note_on_c, 4, 88, 90
10, 20252, Note_off_c, 4, 86, 64
10, 20252, Note_off_c, 4, 88, 64
10, 20256, Note_on_c, 4, 89, 90
10, 20264, Note_off_c, 4, 89, 64
10, 20268, Note_on_c, 4, 91, 90
10, 20268, Note_on_c, 4, 93, 90
10, 20276, Note_off_c, 4, 91, 64
10, 20276, Note_off_c, 4, 93, 64
10, 20280, Note_on_c, 4, 97, 90
10, 20288, Note_off_c, 4, 97, 64
10, 20292, Note_on_c, 4, 98, 90
10, 20292, Note_on_c, 4, 100, 90
10, 20300, Note_off_c, 4, 98, 64
10, 20300, Note_off_c, 4, 100, 64
10, 20304, Note_on_c, 4, 101, 90
10, 20320, Note_off_c, 4, 101, 64
10, 20364, Note_on_c, 4, 59, 90
10, 20364, Note_on_c, 4, 62, 90
10, 20372, Note_off_c, 4, 59, 64
10, 20372, Note_off_c, 4, 62, 64
10, 20376, Note_on_c, 4, 67, 90
10, 20384, Note_off_c, 4, 67, 64
10, 20388, Note_on_c, 4, 67, 90
10, 20388, Note_on_c, 4, 71, 90
10, 20396, Note_off_c, 4, 67, 64
10, 20396, Note_off_c, 4, 71, 64
10, 20400, Note_on_c, 4, 77, 90
10, 20408, Note_off_c, 4, 77, 64
10, 20412, Note_on_c, 4, 80, 90
10, 20412, Note_on_c, 4, 83, 90
10, 20420, Note_off_c, 4, 80, 64
10, 20420, Note_off_c, 4, 83, 64
10, 20424, Note_on_c, 4, 89, 90
10, 20432, Note_off_c, 4, 89, 64
10, 20436, Note_on_c, 4, 83, 90
10, 20436, Note_on_c, 4, 80, 90
10, 20444, Note_off_c, 4, 83, 64
10, 20444, Note_off_c, 4, 80, 64
10, 20448, Note_on_c, 4, 88, 90
10, 20456, Note_off_c, 4, 88, 64
10, 20460, Note_on_c, 4, 83, 90
10, 20460, Note_on_c, 4, 79, 90
10, 20468, Note_off_c, 4, 83, 64
10, 20468, Note_off_c, 4, 79, 64
10, 20472, Note_on_c, 4, 76, 90
10, 20480, Note_off_c, 4, 76, 64
10, 20484, Note_on_c, 4, 71, 90
10, 20484, Note_on_c, 4, 67, 90
10, 20492, Note_off_c, 4, 71, 64
10, 20492, Note_off_c, 4, 67, 64
10, 20496, Note_on_c, 4, 74, 90
10, 20504, Note_off_c, 4, 74, 64
10, 20508, Note_on_c, 4, 68, 90
10, 20508, Note_on_c, 4, 67, 90
10, 20516, Note_off_c, 4, 68, 64
10, 20516, Note_off_c, 4, 67, 64
10, 20520, Note_on_c, 4, 62, 90
10, 20528, Note_off_c, 4, 62, 64
10, 20532, Note_on_c, 4, 56, 90
10, 20532, Note_on_c, 4, 55, 90
10, 20540, Note_off_c, 4, 56, 64
10, 20540, Note_off_c, 4, 55, 64
10, 20544, Note_on_c, 4, 60, 90
10, 20560, Note_off_c, 4, 60, 64
10, 20568, Note_on_c, 4, 71, 90
10, 20576, Note_off_c, 4, 71, 64
10, 20580, Note_on_c, 4, 72, 90
10, 20580, Note_on_c, 4, 74, 90
10, 20588, Note_off_c, 4, 72, 64
10, 20588, Note_off_c, 4, 74, 64
10, 20592, Note_on_c, 4, 76, 90
10, 20600, Note_off_c, 4, 76, 64
10, 20604, Note_on_c, 4, 77, 90
10, 20604, Note_on_c, 4, 79, 90
10, 20612, Note_off_c, 4, 77, 64
10, 20612, Note_off_c, 4, 79, 64
10, 20616, Note_on_c, 4, 83, 90
10, 20624, Note_off_c, 4, 83, 64
10, 20628, Note_on_c, 4, 84, 90
10, 20628, Note_on_c, 4, 86, 90
10, 20636, Note_off_c, 4, 84, 64
10, 20636, Note_off_c, 4, 86, 64
10, 20640, Note_on_c, 4, 88, 90
10, 20648, Note_off_c, 4, 88, 64
10, 20652, Note_on_c, 4, 89, 90
10, 20652, Note_on_c, 4, 91, 90
10, 20660, Note_off_c, 4, 89, 64
10, 20660, Note_off_c, 4, 91, 64
10, 20664, Note_on_c, 4, 95, 90
10, 20672, Note_off_c, 4, 95, 64
10, 20676, Note_on_c, 4, 96, 90
10, 20676, Note_on_c, 4, 98, 90
10, 20684, Note_off_c, 4, 96, 64
10, 20684, Note_off_c, 4, 98, 64
10, 20688, Note_on_c, 4, 100, 90
10, 20704, Note_off_c, 4, 100, 64
10, 20712, Note_on_c, 4, 60, 90
10, 20720, Note_off_c, 4, 60, 64
10, 20724, Note_on_c, 4, 62, 90
10, 20724, Note_on_c, 4, 64, 90
10, 20732, Note_off_c, 4, 62, 64
10, 20732, Note_off_c, 4, 64, 64
10, 20736, Note_on_c, 4, 65, 90
10, 20760, Note_off_c, 4, 65, 64
10, 20760, Note_on_c, 4, 89, 90
10, 20784, Note_off_c, 4, 89, 64
10, 20784, Note_on_c, 4, 83, 90
10, 20808, Note_off_c, 4, 83, 64
10, 20808, Note_on_c, 4, 59, 90
10, 20816, Note_off_c, 4, 59, 64
10, 20820, Note_on_c, 4, 60, 90
10, 20820, Note_on_c, 4, 62, 90
10, 20828, Note_off_c, 4, 60, 64
10, 20828, Note_off_c, 4, 62, 64
10, 20832, Note_on_c, 4, 63, 90
10, 20856, Note_off_c, 4, 63, 64
10, 20856, Note_on_c, 4, 87, 90
10, 20880, Note_off_c, 4, 87, 64
10, 20880, Note_on_c, 4, 81, 90
10, 20904, Note_off_c, 4, 81, 64
10, 20904, Note_on_c, 4, 57, 90
10, 20912, Note_off_c, 4, 57, 64
10, 20916, Note_on_c, 4, 59, 90
10, 20916, Note_on_c, 4, 60, 90
10, 20924, Note_off_c, 4, 59, 64
10, 20924, Note_off_c, 4, 60, 64
10, 20928, Note_on_c, 4, 61, 90
10, 20952, Note_off_c, 4, 61, 64
10, 20952, Note_on_c, 4, 85, 90
10, 20976, Note_off_c, 4, 85, 64
10, 20976, Note_on_c, 4, 79, 90
10, 21000, Note_off_c, 4, 79, 64
10, 21000, Note_on_c, 4, 55, 90
10, 21008, Note_off_c, 4, 55, 64
10, 21012, Note_on_c, 4, 56, 90
10, 21012, Note_on_c, 4, 58, 90
10, 21020, Note_off_c, 4, 56, 64
10, 21020, Note_off_c, 4, 58, 64
10, 21024, Note_on_c, 4, 59, 90
10, 21048, Note_off_c, 4, 59, 64
10, 21048, Note_on_c, 4, 83, 90
10, 21072, Note_off_c, 4, 83, 64
10, 21072, Note_on_c, 4, 77, 90
10, 21096, Note_off_c, 4, 77, 64
10, 21096, Note_on_c, 4, 53, 90
10, 21104, Note_off_c, 4, 53, 64
10, 21108, Note_on_c, 4, 57, 90
10, 21108, Note_on_c, 4, 58, 90
10, 21116, Note_off_c, 4, 57, 64
10, 21116, Note_off_c, 4, 58, 64
10, 21120, Note_on_c, 4, 59, 90
10, 21144, Note_off_c, 4, 59, 64
10, 21144, Note_on_c, 4, 83, 90
10, 21168, Note_off_c, 4, 83, 64
10, 21168, Note_on_c, 4, 77, 90
10, 21192, Note_off_c, 4, 77, 64
10, 21192, Note_on_c, 4, 53, 90
10, 21200, Note_off_c, 4, 53, 64
10, 21204, Note_on_c, 4, 57, 90
10, 21204, Note_on_c, 4, 58, 90
10, 21212, Note_off_c, 4, 57, 64
10, 21212, Note_off_c, 4, 58, 64
10, 21216, Note_on_c, 4, 59, 90
10, 21240, Note_off_c, 4, 59, 64
10, 21240, Note_on_c, 4, 83, 90
10, 21264, Note_off_c, 4, 83, 64
10, 21264, Note_on_c, 4, 77, 90
10, 21288, Note_off_c, 4, 77, 64
10, 21288, Note_on_c, 4, 57, 90
10, 21296, Note_off_c, 4, 57, 64
10, 21300, Note_on_c, 4, 55, 90
10, 21300, Note_on_c, 4, 53, 90
10, 21308, Note_off_c, 4, 55, 64
10, 21308, Note_off_c, 4, 53, 64
10, 21312, Note_on_c, 4, 52, 90
10, 21360, Note_off_c, 4, 52, 64
10, 21360, Note_on_c, 4, 83, 90
10, 21408, Note_off_c, 4, 83, 64
10, 21408, Note_on_c, 4, 64, 90
10, 21456, Note_off_c, 4, 64, 64
10, 21456, Note_on_c, 4, 88, 90
10, 21504, Note_off_c, 4, 88, 64
10, 21516, Note_on_c, 4, 52, 90
10, 21516, Note_on_c, 4, 57, 90
10, 21524, Note_off_c, 4, 52, 64
10, 21524, Note_off_c, 4, 57, 64
10, 21528, Note_on_c, 4, 60, 90
10, 21536, Note_off_c, 4, 60, 64
10, 21540, Note_on_c, 4, 64, 90
10, 21540, Note_on_c, 4, 69, 90
10, 21548, Note_off_c, 4, 64, 64
10, 21548, Note_off_c, 4, 69, 64
10, 21552, Note_on_c, 4, 72, 90
10, 21560, Note_off_c, 4, 72, 64
10, 21564, Note_on_c, 4, 76, 90
10, 21564, Note_on_c, 4, 81, 90
10, 21572, Note_off_c, 4, 76, 64
10, 21572, Note_off_c, 4, 81, 64
10, 21576, Note_on_c, 4, 84, 90
10, 21584, Note_off_c, 4, 84, 64
10, 21588, Note_on_c, 4, 88, 90
10, 21588, Note_on_c, 4, 93, 90
10, 21596, Note_off_c, 4, 88, 64
10, 21596, Note_off_c, 4, 93, 64
10, 21600, Note_on_c, 4, 96, 90
10, 21608, Note_off_c, 4, 96, 64
10, 21612, Note_on_c, 4, 93, 90
10, 21612, Note_on_c, 4, 88, 90
10, 21620, Note_off_c, 4, 93, 64
10, 21620, Note_off_c, 4, 88, 64
10, 21624, Note_on_c, 4, 84, 90
10, 21632, Note_off_c, 4, 84, 64
10, 21636, Note_on_c, 4, 81, 90
10, 21636, Note_on_c, 4, 76, 90
10, 21644, Note_off_c, 4, 81, 64
10, 21644, Note_off_c, 4, 76, 64
10, 21648, Note_on_c, 4, 72, 90
10, 21656, Note_off_c, 4, 72, 64
10, 21660, Note_on_c, 4, 69, 90
10, 21660, Note_on_c, 4, 64, 90
10, 21668, Note_off_c, 4, 69, 64
10, 21668, Note_off_c, 4, 64, 64
10, 21672, Note_on_c, 4, 60, 90
10, 21680, Note_off_c, 4, 60, 64
10, 21684, Note_on_c, 4, 57, 90
10, 21684, Note_on_c, 4, 52, 90
10, 21692, Note_off_c, 4, 57, 64
10, 21692, Note_off_c, 4, 52, 64
10, 21708, Note_on_c, 4, 52, 90
10, 21708, Note_on_c, 4, 57, 90
10, 21716, Note_off_c, 4, 52, 64
10, 21716, Note_off_c, 4, 57, 64
10, 21720, Note_on_c, 4, 61, 90
10, 21728, Note_off_c, 4, 61, 64
10, 21732, Note_on_c, 4, 64, 90
10, 21732, Note_on_c, 4, 69, 90
10, 21740, Note_off_c, 4, 64, 64
10, 21740, Note_off_c, 4, 69, 64
10, 21744, Note_on_c, 4, 73, 90
10, 21752, Note_off_c, 4, 73, 64
10, 21756, Note_on_c, 4, 76, 90
10, 21756, Note_on_c, 4, 81, 90
10, 21764, Note_off_c, 4, 76, 64
10, 21764, Note_off_c, 4, 81, 64
10, 21768, Note_on_c, 4, 85, 90
10, 21776, Note_off_c, 4, 85, 64
10, 21780, Note_on_c, 4, 88, 90
10, 21780, Note_on_c, 4, 93, 90
10, 21788, Note_off_c, 4, 88, 64
10, 21788, Note_off_c, 4, 93, 64
10, 21792, Note_on_c, 4, 97, 90
10, 21800, Note_off_c, 4, 97, 64
10, 21804, Note_on_c, 4, 93, 90
10, 21804, Note_on_c, 4, 88, 90
10, 21812, Note_off_c, 4, 93, 64
10, 21812, Note_off_c, 4, 88, 64
10, 21816, Note_on_c, 4, 85, 90
10, 21824, Note_off_c, 4, 85, 64
10, 21828, Note_on_c, 4, 81, 90
10, 21828, Note_on_c, 4, 76, 90
10, 21836, Note_off_c, 4, 81, 64
10, 21836, Note_off_c, 4, 76, 64
10, 21840, Note_on_c, 4, 73, 90
10, 21848, Note_off_c, 4, 73, 64
10, 21852, Note_on_c, 4, 69, 90
10, 21852, Note_on_c, 4, 64, 90
10, 21860, Note_off_c, 4, 69, 64
10, 21860, Note_off_c, 4, 64, 64
10, 21864, Note_on_c, 4, 61, 90
10, 21872, Note_off_c, 4, 61, 64
10, 21876, Note_on_c, 4, 57, 90
10, 21876, Note_on_c, 4, 52, 90
10, 21884, Note_off_c, 4, 57, 64
10, 21884, Note_off_c, 4, 52, 64
10, 21900, Note_on_c, 4, 53, 90
10, 21900, Note_on_c, 4, 57, 90
10, 21908, Note_off_c, 4, 53, 64
10, 21908, Note_off_c, 4, 57, 64
10, 21912, Note_on_c, 4, 62, 90
10, 21920, Note_off_c, 4, 62, 64
10, 21924, Note_on_c, 4, 65, 90
10, 21924, Note_on_c, 4, 69, 90
10, 21932, Note_off_c, 4, 65, 64
10, 21932, Note_off_c, 4, 69, 64
10, 21936, Note_on_c, 4, 74, 90
10, 21944, Note_off_c, 4, 74, 64
10, 21948, Note_on_c, 4, 77, 90
10, 21948, Note_on_c, 4, 81, 90
10, 21956, Note_off_c, 4, 77, 64
10, 21956, Note_off_c, 4, 81, 64
10, 21960, Note_on_c, 4, 86, 90
10, 21968, Note_off_c, 4, 86, 64
10, 21972, Note_on_c, 4, 89, 90
10, 21972, Note_on_c, 4, 93, 90
10, 21980, Note_off_c, 4, 89, 64
10, 21980, Note_off_c, 4, 93, 64
10, 21984, Note_on_c, 4, 98, 90
10, 21992, Note_off_c, 4, 98, 64
10, 21996, Note_on_c, 4, 93, 90
10, 21996, Note_on_c, 4, 89, 90
10, 22004, Note_off_c, 4, 93, 64
10, 22004, Note_off_c, 4, 89, 64
10, 22008, Note_on_c, 4, 86, 90
10, 22016, Note_off_c, 4, 86, 64
10, 22020, Note_on_c, 4, 81, 90
10, 22020, Note_on_c, 4, 77, 90
10, 22028, Note_off_c, 4, 81, 64
10, 22028, Note_off_c, 4, 77, 64
10, 22032, Note_on_c, 4, 74, 90
10, 22040, Note_off_c, 4, 74, 64
10, 22044, Note_on_c, 4, 69, 90
10, 22044, Note_on_c, 4, 65, 90
10, 22052, Note_off_c, 4, 69, 64
10, 22052, Note_off_c, 4, 65, 64
10, 22056, Note_on_c, 4, 62, 90
10, 22064, Note_off_c, 4, 62, 64
10, 22068, Note_on_c, 4, 57, 90
10, 22068, Note_on_c, 4, 53, 90
10, 22076, Note_off_c, 4, 57, 64
10, 22076, Note_off_c, 4, 53, 64
10, 22104, Note_on_c, 4, 83, 90
10, 22128, Note_off_c, 4, 83, 64
10, 22152, Note_on_c, 4, 86, 90
10, 22176, Note_off_c, 4, 86, 64
10, 22200, Note_on_c, 4, 89, 90
10, 22224, Note_off_c, 4, 89, 64
10, 22248, Note_on_c, 4, 88, 90
10, 22272, Note_off_c, 4, 88, 64
10, 22284, Note_on_c, 4, 52, 90
10, 22284, Note_on_c, 4, 57, 90
10, 22292, Note_off_c, 4, 52, 64
10, 22292, Note_off_c, 4, 57, 64
10, 22296, Note_on_c, 4, 60, 90
10, 22304, Note_off_c, 4, 60, 64
10, 22308, Note_on_c, 4, 64, 90
10, 22308, Note_on_c, 4, 69, 90
10, 22316, Note_off_c, 4, 64, 64
10, 22316, Note_off_c, 4, 69, 64
10, 22320, Note_on_c, 4, 72, 90
10, 22328, Note_off_c, 4, 72, 64
10, 22332, Note_on_c, 4, 76, 90
10, 22332, Note_on_c, 4, 81, 90
10, 22340, Note_off_c, 4, 76, 64
10, 22340, Note_off_c, 4, 81, 64
10, 22344, Note_on_c, 4, 84, 90
10, 22352, Note_off_c, 4, 84, 64
10, 22356, Note_on_c, 4, 88, 90
10, 22356, Note_on_c, 4, 93, 90
10, 22364, Note_off_c, 4, 88, 64
10, 22364, Note_off_c, 4, 93, 64
10, 22368, Note_on_c, 4, 96, 90
10, 22376, Note_off_c, 4, 96, 64
10, 22380, Note_on_c, 4, 93, 90
10, 22380, Note_on_c, 4, 88, 90
10, 22388, Note_off_c, 4, 93, 64
10, 22388, Note_off_c, 4, 88, 64
10, 22392, Note_on_c, 4, 84, 90
10, 22400, Note_off_c, 4, 84, 64
10, 22404, Note_on_c, 4, 81, 90
10, 22404, Note_on_c, 4, 76, 90
10, 22412, Note_off_c, 4, 81, 64
10, 22412, Note_off_c, 4, 76, 64
10, 22416, Note_on_c, 4, 72, 90
10, 22424, Note_off_c, 4, 72, 64
10, 22428, Note_on_c, 4, 69, 90
10, 22428, Note_on_c, 4, 64, 90
10, 22436, Note_off_c, 4, 69, 64
10, 22436, Note_off_c, 4, 64, 64
10, 22440, Note_on_c, 4, 60, 90
10, 22448, Note_off_c, 4, 60, 64
10, 22452, Note_on_c, 4, 57, 90
10, 22452, Note_on_c, 4, 52, 90
10, 22460, Note_off_c, 4, 57, 64
10, 22460, Note_off_c, 4, 52, 64
10, 22476, Note_on_c, 4, 52, 90
10, 22476, Note_on_c, 4, 57, 90
10, 22484, Note_off_c, 4, 52, 64
10, 22484, Note_off_c, 4, 57, 64
10, 22488, Note_on_c, 4, 61, 90
10, 22496, Note_off_c, 4, 61, 64
10, 22500, Note_on_c, 4, 64, 90
10, 22500, Note_on_c, 4, 69, 90
10, 22508, Note_off_c, 4, 64, 64
10, 22508, Note_off_c, 4, 69, 64
10, 22512, Note_on_c, 4, 73, 90
10, 22520, Note_off_c, 4, 73, 64
10, 22524, Note_on_c, 4, 76, 90
10, 22524, Note_on_c, 4, 81, 90
10, 22532, Note_off_c, 4, 76, 64
10, 22532, Note_off_c, 4, 81, 64
10, 22536, Note_on_c, 4, 85, 90
10, 22544, Note_off_c, 4, 85, 64
10, 22548, Note_on_c, 4, 88, 90
10, 22548, Note_on_c, 4, 93, 90
10, 22556, Note_off_c, 4, 88, 64
10, 22556, Note_off_c, 4, 93, 64
10, 22560, Note_on_c, 4, 97, 90
10, 22568, Note_off_c, 4, 97, 64
10, 22572, Note_on_c, 4, 93, 90
10, 22572, Note_on_c, 4, 88, 90
10, 22580, Note_off_c, 4, 93, 64
10, 22580, Note_off_c, 4, 88, 64
10, 22584, Note_on_c, 4, 85, 90
10, 22592, Note_off_c, 4, 85, 64
10, 22596, Note_on_c, 4, 81, 90
10, 22596, Note_on_c, 4, 76, 90
10, 22604, Note_off_c, 4, 81, 64
10, 22604, Note_off_c, 4, 76, 64
10, 22608, Note_on_c, 4, 73, 90
10, 22616, Note_off_c, 4, 73, 64
10, 22620, Note_on_c, 4, 69, 90
10, 22620, Note_on_c, 4, 64, 90
10, 22628, Note_off_c, 4, 69, 64
10, 22628, Note_off_c, 4, 64, 64
10, 22632, Note_on_c, 4, 61, 90
10, 22640, Note_off_c, 4, 61, 64
10, 22644, Note_on_c, 4, 57, 90
10, 22644, Note_on_c, 4, 52, 90
10, 22652, Note_off_c, 4, 57, 64
10, 22652, Note_off_c, 4, 52, 64
10, 22668, Note_on_c, 4, 53, 90
10, 22668, Note_on_c, 4, 57, 90
10, 22676, Note_off_c, 4, 53, 64
10, 22676, Note_off_c, 4, 57, 64
10, 22680, Note_on_c, 4, 62, 90
10, 22688, Note_off_c, 4, 62, 64
10, 22692, Note_on_c, 4, 65, 90
10, 22692, Note_on_c, 4, 69, 90
10, 22700, Note_off_c, 4, 65, 64
10, 22700, Note_off_c, 4, 69, 64
10, 22704, Note_on_c, 4, 74, 90
10, 22712, Note_off_c, 4, 74, 64
10, 22716, Note_on_c, 4, 77, 90
10, 22716, Note_on_c, 4, 81, 90
10, 22724, Note_off_c, 4, 77, 64
10, 22724, Note_off_c, 4, 81, 64
10, 22728, Note_on_c, 4, 86, 90
10, 22736, Note_off_c, 4, 86, 64
10, 22740, Note_on_c, 4, 89, 90
10, 22740, Note_on_c, 4, 93, 90
10, 22748, Note_off_c, 4, 89, 64
10, 22748, Note_off_c, 4, 93, 64
10, 22752, Note_on_c, 4, 98, 90
10, 22760, Note_off_c, 4, 98, 64
10, 22764, Note_on_c, 4, 93, 90
10, 22764, Note_on_c, 4, 89, 90
10, 22772, Note_off_c, 4, 93, 64
10, 22772, Note_off_c, 4, 89, 64
10, 22776, Note_on_c, 4, 86, 90
10, 22784, Note_off_c, 4, 86, 64
10, 22788, Note_on_c, 4, 81, 90
10, 22788, Note_on_c, 4, 77, 90
10, 22796, Note_off_c, 4, 81, 64
10, 22796, Note_off_c, 4, 77, 64
10, 22800, Note_on_c, 4, 74, 90
10, 22808, Note_off_c, 4, 74, 64
10, 22812, Note_on_c, 4, 69, 90
10, 22812, Note_on_c, 4, 65, 90
10, 22820, Note_off_c, 4, 69, 64
10, 22820, Note_off_c, 4, 65, 64
10, 22824, Note_on_c, 4, 62, 90
10, 22832, Note_off_c, 4, 62, 64
10, 22836, Note_on_c, 4, 57, 90
10, 22836, Note_on_c, 4, 53, 90
10, 22844, Note_off_c, 4, 57, 64
10, 22844, Note_off_c, 4, 53, 64
10, 22872, Note_on_c, 4, 83, 90
10, 22896, Note_off_c, 4, 83, 64
10, 22920, Note_on_c, 4, 86, 90
10, 22944, Note_off_c, 4, 86, 64
10, 22968, Note_on_c, 4, 89, 90
10, 22992, Note_off_c, 4, 89, 64
10, 23016, Note_on_c, 4, 88, 90
10, 23040, Note_off_c, 4, 88, 64
10, 23040, Note_on_c, 4, 45, 90
10, 23048, Note_off_c, 4, 45, 64
10, 23052, Note_on_c, 4, 49, 90
10, 23052, Note_on_c, 4, 52, 90
10, 23060, Note_off_c, 4, 49, 64
10, 23060, Note_off_c, 4, 52, 64
10, 23064, Note_on_c, 4, 57, 90
10, 23072, Note_off_c, 4, 57, 64
10, 23076, Note_on_c, 4, 61, 90
10, 23076, Note_on_c, 4, 64, 90
10, 23084, Note_off_c, 4, 61, 64
10, 23084, Note_off_c, 4, 64, 64
10, 23088, Note_on_c, 4, 69, 90
10, 23096, Note_off_c, 4, 69, 64
10, 23100, Note_on_c, 4, 73, 90
10, 23100, Note_on_c, 4, 76, 90
10, 23108, Note_off_c, 4, 73, 64
10, 23108, Note_off_c, 4, 76, 64
10, 23112, Note_on_c, 4, 81, 90
10, 23120, Note_off_c, 4, 81, 64
10, 23124, Note_on_c, 4, 85, 90
10, 23124, Note_on_c, 4, 88, 90
10, 23132, Note_off_c, 4, 85, 64
10, 23132, Note_off_c, 4, 88, 64
10, 23136, Note_on_c, 4, 93, 90
10, 23144, Note_off_c, 4, 93, 64
10, 23148, Note_on_c, 4, 88, 90
10, 23148, Note_on_c, 4, 85, 90
10, 23156, Note_off_c, 4, 88, 64
10, 23156, Note_off_c, 4, 85, 64
10, 23160, Note_on_c, 4, 81, 90
10, 23168, Note_off_c, 4, 81, 64
10, 23172, Note_on_c, 4, 76, 90
10, 23172, Note_on_c, 4, 73, 90
10, 23180, Note_off_c, 4, 76, 64
10, 23180, Note_off_c, 4, 73, 64
10, 23184, Note_on_c, 4, 69, 90
10, 23192, Note_off_c, 4, 69, 64
10, 23196, Note_on_c, 4, 64, 90
10, 23196, Note_on_c, 4, 61, 90
10, 23204, Note_off_c, 4, 64, 64
10, 23204, Note_off_c, 4, 61, 64
10, 23208, Note_on_c, 4, 57, 90
10, 23216, Note_off_c, 4, 57, 64
10, 23220, Note_on_c, 4, 52, 90
10, 23220, Note_on_c, 4, 49, 90
10, 23228, Note_off_c, 4, 52, 64
10, 23228, Note_off_c, 4, 49, 64
10, 23232, Note_on_c, 4, 45, 90
10, 23240, Note_off_c, 4, 45, 64
10, 23244, Note_on_c, 4, 49, 90
10, 23244, Note_on_c, 4, 52, 90
10, 23252, Note_off_c, 4, 49, 64
10, 23252, Note_off_c, 4, 52, 64
10, 23256, Note_on_c, 4, 57, 90
10, 23264, Note_off_c, 4, 57, 64
10, 23268, Note_on_c, 4, 61, 90
10, 23268, Note_on_c, 4, 64, 90
10, 23276, Note_off_c, 4, 61, 64
10, 23276, Note_off_c, 4, 64, 64
10, 23280, Note_on_c, 4, 69, 90
10, 23288, Note_off_c, 4, 69, 64
10, 23292, Note_on_c, 4, 73, 90
10, 23292, Note_on_c, 4, 76, 90
10, 23300, Note_off_c, 4, 73, 64
10, 23300, Note_off_c, 4, 76, 64
10, 23304, Note_on_c, 4, 81, 90
10, 23312, Note_off_c, 4, 81, 64
10, 23316, Note_on_c, 4, 85, 90
10, 23316, Note_on_c, 4, 88, 90
10, 23324, Note_off_c, 4, 85, 64
10, 23324, Note_off_c, 4, 88, 64
10, 23328, Note_on_c, 4, 93, 90
10, 23336, Note_off_c, 4, 93, 64
10, 23340, Note_on_c, 4, 97, 90
10, 23340, Note_on_c, 4, 93, 90
10, 23348, Note_off_c, 4, 97, 64
10, 23348, Note_off_c, 4, 93, 64
10, 23352, Note_on_c, 4, 88, 90
10, 23360, Note_off_c, 4, 88, 64
10, 23364, Note_on_c, 4, 85, 90
10, 23364, Note_on_c, 4, 81, 90
10, 23372, Note_off_c, 4, 85, 64
10, 23372, Note_off_c, 4, 81, 64
10, 23376, Note_on_c, 4, 76, 90
10, 23384, Note_off_c, 4, 76, 64
10, 23388, Note_on_c, 4, 73, 90
10, 23388, Note_on_c, 4, 69, 90
10, 23396, Note_off_c, 4, 73, 64
10, 23396, Note_off_c, 4, 69, 64
10, 23400, Note_on_c, 4, 64, 90
10, 23408, Note_off_c, 4, 64, 64
10, 23412, Note_on_c, 4, 61, 90
10, 23412, Note_on_c, 4, 57, 90
10, 23420, Note_off_c, 4, 61, 64
10, 23420, Note_off_c, 4, 57, 64
10, 23424, Note_on_c, 4, 52, 90
10, 23432, Note_off_c, 4, 52, 64
10, 23436, Note_on_c, 4, 49, 90
10, 23436, Note_on_c, 4, 45, 90
10, 23444, Note_off_c, 4, 49, 64
10, 23444, Note_off_c, 4, 45, 64
10, 23448, Note_on_c, 4, 49, 90
10, 23456, Note_off_c, 4, 49, 64
10, 23460, Note_on_c, 4, 52, 90
10, 23460, Note_on_c, 4, 57, 90
10, 23468, Note_off_c, 4, 52, 64
10, 23468, Note_off_c, 4, 57, 64
10, 23472, Note_on_c, 4, 61, 90
10, 23480, Note_off_c, 4, 61, 64
10, 23484, Note_on_c, 4, 64, 90
10, 23484, Note_on_c, 4, 69, 90
10, 23492, Note_off_c, 4, 64, 64
10, 23492, Note_off_c, 4, 69, 64
10, 23496, Note_on_c, 4, 73, 90
10, 23504, Note_off_c, 4, 73, 64
10, 23508, Note_on_c, 4, 76, 90
10, 23508, Note_on_c, 4, 81, 90
10, 23516, Note_off_c, 4, 76, 64
10, 23516, Note_off_c, 4, 81, 64
10, 23520, Note_on_c, 4, 85, 90
10, 23528, Note_off_c, 4, 85, 64
10, 23532, Note_on_c, 4, 88, 90
10, 23532, Note_on_c, 4, 93, 90
10, 23540, Note_off_c, 4, 88, 64
10, 23540, Note_off_c, 4, 93, 64
10, 23544, Note_on_c, 4, 97, 90
10, 23552, Note_off_c, 4, 97, 64
10, 23556, Note_on_c, 4, 101, 90
10, 23556, Note_on_c, 4, 100, 90
10, 23564, Note_off_c, 4, 101, 64
10, 23564, Note_off_c, 4, 100, 64
10, 23568, Note_on_c, 4, 97, 90
10, 23576, Note_off_c, 4, 97, 64
10, 23580, Note_on_c, 4, 93, 90
10, 23580, Note_on_c, 4, 88, 90
10, 23588, Note_off_c, 4, 93, 64
10, 23588, Note_off_c, 4, 88, 64
10, 23592, Note_on_c, 4, 85, 90
10, 23600, Note_off_c, 4, 85, 64
10, 23604, Note_on_c, 4, 81, 90
10, 23604, Note_on_c, 4, 76, 90
10, 23612, Note_off_c, 4, 81, 64
10, 23612, Note_off_c, 4, 76, 64
10, 23616, Note_on_c, 4, 73, 90
10, 23624, Note_off_c, 4, 73, 64
10, 23628, Note_on_c, 4, 69, 90
10, 23628, Note_on_c, 4, 64, 90
10, 23636, Note_off_c, 4, 69, 64
10, 23636, Note_off_c, 4, 64, 64
10, 23640, Note_on_c, 4, 61, 90
10, 23648, Note_off_c, 4, 61, 64
10, 23652, Note_on_c, 4, 57, 90
10, 23652, Note_on_c, 4, 52, 90
10, 23660, Note_off_c, 4, 57, 64
10, 23660, Note_off_c, 4, 52, 64
10, 23664, Note_on_c, 4, 49, 90
10, 23672, Note_off_c, 4, 49, 64
10, 23676, Note_on_c, 4, 45, 90
10, 23772, Note_off_c, 4, 45, 64
10, 23772, Note_on_c, 4, 45, 90
10, 23772, Note_on_c, 4, 46, 90
10, 23780, Note_off_c, 4, 45, 64
10, 23780, Note_off_c, 4, 46, 64
10, 23784, Note_on_c, 4, 47, 90
10, 23792, Note_off_c, 4, 47, 64
10, 23796, Note_on_c, 4, 48, 90
10, 23796, Note_on_c, 4, 49, 90
10, 23804, Note_off_c, 4, 48, 64
10, 23804, Note_off_c, 4, 49, 64
10, 23808, Note_on_c, 4, 50, 90
10, 23816, Note_off_c, 4, 50, 64
10, 23820, Note_on_c, 4, 51, 90
10, 23820, Note_on_c, 4, 52, 90
10, 23828, Note_off_c, 4, 51, 64
10, 23828, Note_off_c, 4, 52, 64
10, 23832, Note_on_c, 4, 53, 90
10, 23840, Note_off_c, 4, 53, 64
10, 23844, Note_on_c, 4, 52, 90
10, 23856, Note_on_c, 4, 51, 90
10, 23860, Note_off_c, 4, 52, 64
10, 23880, Note_off_c, 4, 51, 64
10, 23880, Note_on_c, 4, 50, 90
10, 23904, Note_off_c, 4, 50, 64
10, 23904, Note_on_c, 4, 49, 90
10, 23928, Note_off_c, 4, 49, 64
10, 23928, Note_on_c, 4, 48, 90
10, 23952, Note_off_c, 4, 48, 64
10, 23952, Note_on_c, 4, 47, 90
10, 23976, Note_off_c, 4, 47, 64
10, 23976, Note_on_c, 4, 46, 90
10, 24000, Note_off_c, 4, 46, 64
10, 24000, Note_on_c, 4, 45, 90
10, 24024, Note_off_c, 4, 45, 64
10, 24048, Note_on_c, 4, 81, 90
10, 24096, Note_off_c, 4, 81, 64
10, 24096, Note_on_c, 4, 93, 90
10, 24144, Note_off_c, 4, 93, 64
10, 24144, End_track
11, 0, Start_track
11, 0, MIDI_port, 0
11, 0, Title_t, "Flute               "
11, 0, Program_c, 5, 20
11, 0, Note_on_c, 5, 69, 90
11, 56, Note_off_c, 5, 69, 64
11, 80, Note_on_c, 5, 69, 90
11, 96, Note_off_c, 5, 69, 64
11, 96, Note_on_c, 5, 69, 90
11, 120, Note_off_c, 5, 69, 64
11, 120, Note_on_c, 5, 72, 90
11, 144, Note_off_c, 5, 72, 64
11, 144, Note_on_c, 5, 71, 90
11, 168, Note_off_c, 5, 71, 64
11, 168, Note_on_c, 5, 69, 90
11, 192, Note_off_c, 5, 69, 64
11, 192, Note_on_c, 5, 76, 90
11, 240, Note_off_c, 5, 76, 64
11, 272, Note_on_c, 5, 64, 90
11, 288, Note_off_c, 5, 64, 64
11, 288, Note_on_c, 5, 64, 90
11, 312, Note_off_c, 5, 64, 64
11, 312, Note_on_c, 5, 68, 90
11, 336, Note_off_c, 5, 68, 64
11, 336, Note_on_c, 5, 66, 90
11, 360, Note_off_c, 5, 66, 64
11, 360, Note_on_c, 5, 64, 90
11, 384, Note_off_c, 5, 64, 64
11, 384, Note_on_c, 5, 69, 90
11, 432, Note_off_c, 5, 69, 64
11, 464, Note_on_c, 5, 69, 90
11, 480, Note_off_c, 5, 69, 64
11, 480, Note_on_c, 5, 69, 90
11, 504, Note_off_c, 5, 69, 64
11, 504, Note_on_c, 5, 72, 90
11, 528, Note_off_c, 5, 72, 64
11, 528, Note_on_c, 5, 71, 90
11, 552, Note_off_c, 5, 71, 64
11, 552, Note_on_c, 5, 69, 90
11, 576, Note_off_c, 5, 69, 64
11, 576, Note_on_c, 5, 76, 90
11, 672, Note_off_c, 5, 76, 64
11, 672, Note_on_c, 5, 64, 90
11, 720, Note_off_c, 5, 64, 64
11, 768, Note_on_c, 5, 69, 90
11, 816, Note_off_c, 5, 69, 64
11, 848, Note_on_c, 5, 69, 90
11, 864, Note_off_c, 5, 69, 64
11, 864, Note_on_c, 5, 69, 90
11, 888, Note_off_c, 5, 69, 64
11, 888, Note_on_c, 5, 72, 90
11, 912, Note_off_c, 5, 72, 64
11, 912, Note_on_c, 5, 71, 90
11, 936, Note_off_c, 5, 71, 64
11, 936, Note_on_c, 5, 69, 90
11, 960, Note_off_c, 5, 69, 64
11, 960, Note_on_c, 5, 76, 90
11, 1008, Note_off_c, 5, 76, 64
11, 1040, Note_on_c, 5, 64, 90
11, 1056, Note_off_c, 5, 64, 64
11, 1056, Note_on_c, 5, 64, 90
11, 1080, Note_off_c, 5, 64, 64
11, 1080, Note_on_c, 5, 68, 90
11, 1104, Note_off_c, 5, 68, 64
11, 1104, Note_on_c, 5, 66, 90
11, 1128, Note_off_c, 5, 66, 64
11, 1128, Note_on_c, 5, 64, 90
11, 1152, Note_off_c, 5, 64, 64
11, 1152, Note_on_c, 5, 69, 90
11, 1200, Note_off_c, 5, 69, 64
11, 1232, Note_on_c, 5, 69, 90
11, 1248, Note_off_c, 5, 69, 64
11, 1248, Note_on_c, 5, 69, 90
11, 1272, Note_off_c, 5, 69, 64
11, 1272, Note_on_c, 5, 72, 90
11, 1296, Note_off_c, 5, 72, 64
11, 1296, Note_on_c, 5, 71, 90
11, 1320, Note_off_c, 5, 71, 64
11, 1320, Note_on_c, 5, 69, 90
11, 1344, Note_off_c, 5, 69, 64
11, 1344, Note_on_c, 5, 76, 90
11, 1440, Note_off_c, 5, 76, 64
11, 1440, Note_on_c, 5, 64, 90
11, 1488, Note_off_c, 5, 64, 64
11, 1536, Note_on_c, 5, 81, 90
11, 1584, Note_off_c, 5, 81, 64
11, 1616, Note_on_c, 5, 81, 90
11, 1632, Note_off_c, 5, 81, 64
11, 1632, Note_on_c, 5, 81, 90
11, 1656, Note_off_c, 5, 81, 64
11, 1656, Note_on_c, 5, 82, 90
11, 1680, Note_off_c, 5, 82, 64
11, 1680, Note_on_c, 5, 81, 90
11, 1704, Note_off_c, 5, 81, 64
11, 1704, Note_on_c, 5, 79, 90
11, 1728, Note_off_c, 5, 79, 64
11, 1728, Note_on_c, 5, 77, 90
11, 1776, Note_off_c, 5, 77, 64
11, 1808, Note_on_c, 5, 74, 90
11, 1824, Note_off_c, 5, 74, 64
11, 1824, Note_on_c, 5, 74, 90
11, 1848, Note_off_c, 5, 74, 64
11, 1848, Note_on_c, 5, 77, 90
11, 1872, Note_off_c, 5, 77, 64
11, 1872, Note_on_c, 5, 76, 90
11, 1896, Note_off_c, 5, 76, 64
11, 1896, Note_on_c, 5, 74, 90
11, 1920, Note_off_c, 5, 74, 64
11, 1920, Note_on_c, 5, 79, 90
11, 1968, Note_off_c, 5, 79, 64
11, 2000, Note_on_c, 5, 79, 90
11, 2016, Note_off_c, 5, 79, 64
11, 2016, Note_on_c, 5, 79, 90
11, 2040, Note_off_c, 5, 79, 64
11, 2040, Note_on_c, 5, 81, 90
11, 2064, Note_off_c, 5, 81, 64
11, 2064, Note_on_c, 5, 79, 90
11, 2088, Note_off_c, 5, 79, 64
11, 2088, Note_on_c, 5, 77, 90
11, 2112, Note_off_c, 5, 77, 64
11, 2112, Note_on_c, 5, 76, 90
11, 2160, Note_off_c, 5, 76, 64
11, 2192, Note_on_c, 5, 72, 90
11, 2208, Note_off_c, 5, 72, 64
11, 2208, Note_on_c, 5, 72, 90
11, 2232, Note_off_c, 5, 72, 64
11, 2232, Note_on_c, 5, 76, 90
11, 2256, Note_off_c, 5, 76, 64
11, 2256, Note_on_c, 5, 74, 90
11, 2280, Note_off_c, 5, 74, 64
11, 2280, Note_on_c, 5, 72, 90
11, 2304, Note_off_c, 5, 72, 64
11, 2304, Note_on_c, 5, 77, 90
11, 2352, Note_off_c, 5, 77, 64
11, 2384, Note_on_c, 5, 71, 90
11, 2400, Note_off_c, 5, 71, 64
11, 2400, Note_on_c, 5, 71, 90
11, 2424, Note_off_c, 5, 71, 64
11, 2424, Note_on_c, 5, 74, 90
11, 2448, Note_off_c, 5, 74, 64
11, 2448, Note_on_c, 5, 72, 90
11, 2472, Note_off_c, 5, 72, 64
11, 2472, Note_on_c, 5, 71, 90
11, 2496, Note_off_c, 5, 71, 64
11, 2496, Note_on_c, 5, 76, 90
11, 2544, Note_off_c, 5, 76, 64
11, 2576, Note_on_c, 5, 69, 90
11, 2592, Note_off_c, 5, 69, 64
11, 2592, Note_on_c, 5, 69, 90
11, 2616, Note_off_c, 5, 69, 64
11, 2616, Note_on_c, 5, 72, 90
11, 2640, Note_off_c, 5, 72, 64
11, 2640, Note_on_c, 5, 71, 90
11, 2664, Note_off_c, 5, 71, 64
11, 2664, Note_on_c, 5, 69, 90
11, 2688, Note_off_c, 5, 69, 64
11, 2688, Note_on_c, 5, 65, 90
11, 2760, Note_off_c, 5, 65, 64
11, 2760, Note_on_c, 5, 75, 90
11, 2784, Note_off_c, 5, 75, 64
11, 2784, Note_on_c, 5, 64, 90
11, 2808, Note_off_c, 5, 64, 64
11, 2808, Note_on_c, 5, 76, 90
11, 2832, Note_off_c, 5, 76, 64
11, 2832, Note_on_c, 5, 74, 90
11, 2856, Note_off_c, 5, 74, 64
11, 2856, Note_on_c, 5, 71, 90
11, 2880, Note_off_c, 5, 71, 64
11, 2880, Note_on_c, 5, 69, 90
11, 2976, Note_off_c, 5, 69, 64
11, 2976, Note_on_c, 5, 81, 90
11, 3024, Note_off_c, 5, 81, 64
11, 3072, Note_on_c, 5, 93, 90
11, 3120, Note_off_c, 5, 93, 64
11, 3152, Note_on_c, 5, 93, 90
11, 3168, Note_off_c, 5, 93, 64
11, 3168, Note_on_c, 5, 93, 90
11, 3192, Note_off_c, 5, 93, 64
11, 3192, Note_on_c, 5, 94, 90
11, 3216, Note_off_c, 5, 94, 64
11, 3216, Note_on_c, 5, 93, 90
11, 3240, Note_off_c, 5, 93, 64
11, 3240, Note_on_c, 5, 91, 90
11, 3264, Note_off_c, 5, 91, 64
11, 3264, Note_on_c, 5, 89, 90
11, 3312, Note_off_c, 5, 89, 64
11, 3344, Note_on_c, 5, 86, 90
11, 3360, Note_off_c, 5, 86, 64
11, 3360, Note_on_c, 5, 86, 90
11, 3384, Note_off_c, 5, 86, 64
11, 3384, Note_on_c, 5, 89, 90
11, 3408, Note_off_c, 5, 89, 64
11, 3408, Note_on_c, 5, 88, 90
11, 3432, Note_off_c, 5, 88, 64
11, 3432, Note_on_c, 5, 86, 90
11, 3456, Note_off_c, 5, 86, 64
11, 3456, Note_on_c, 5, 91, 90
11, 3504, Note_off_c, 5, 91, 64
11, 3536, Note_on_c, 5, 91, 90
11, 3552, Note_off_c, 5, 91, 64
11, 3552, Note_on_c, 5, 91, 90
11, 3576, Note_off_c, 5, 91, 64
11, 3576, Note_on_c, 5, 93, 90
11, 3600, Note_off_c, 5, 93, 64
11, 3600, Note_on_c, 5, 91, 90
11, 3624, Note_off_c, 5, 91, 64
11, 3624, Note_on_c, 5, 89, 90
11, 3648, Note_off_c, 5, 89, 64
11, 3648, Note_on_c, 5, 88, 90
11, 3696, Note_off_c, 5, 88, 64
11, 3728, Note_on_c, 5, 84, 90
11, 3744, Note_off_c, 5, 84, 64
11, 3744, Note_on_c, 5, 84, 90
11, 3768, Note_off_c, 5, 84, 64
11, 3768, Note_on_c, 5, 88, 90
11, 3792, Note_off_c, 5, 88, 64
11, 3792, Note_on_c, 5, 86, 90
11, 3816, Note_off_c, 5, 86, 64
11, 3816, Note_on_c, 5, 84, 90
11, 3840, Note_off_c, 5, 84, 64
11, 3840, Note_on_c, 5, 89, 90
11, 3888, Note_off_c, 5, 89, 64
11, 3920, Note_on_c, 5, 82, 90
11, 3936, Note_off_c, 5, 82, 64
11, 3936, Note_on_c, 5, 82, 90
11, 3960, Note_off_c, 5, 82, 64
11, 3960, Note_on_c, 5, 86, 90
11, 3984, Note_off_c, 5, 86, 64
11, 3984, Note_on_c, 5, 84, 90
11, 4008, Note_off_c, 5, 84, 64
11, 4008, Note_on_c, 5, 82, 90
11, 4032, Note_off_c, 5, 82, 64
11, 4032, Note_on_c, 5, 88, 90
11, 4080, Note_off_c, 5, 88, 64
11, 4112, Note_on_c, 5, 81, 90
11, 4128, Note_off_c, 5, 81, 64
11, 4128, Note_on_c, 5, 81, 90
11, 4152, Note_off_c, 5, 81, 64
11, 4152, Note_on_c, 5, 84, 90
11, 4176, Note_off_c, 5, 84, 64
11, 4176, Note_on_c, 5, 83, 90
11, 4200, Note_off_c, 5, 83, 64
11, 4200, Note_on_c, 5, 81, 90
11, 4224, Note_off_c, 5, 81, 64
11, 4224, Note_on_c, 5, 65, 90
11, 4232, Note_off_c, 5, 65, 64
11, 4296, Note_on_c, 5, 75, 90
11, 4304, Note_off_c, 5, 75, 64
11, 4320, Note_on_c, 5, 64, 90
11, 4328, Note_off_c, 5, 64, 64
11, 4344, Note_on_c, 5, 76, 90
11, 4352, Note_off_c, 5, 76, 64
11, 4368, Note_on_c, 5, 74, 90
11, 4376, Note_off_c, 5, 74, 64
11, 4392, Note_on_c, 5, 71, 90
11, 4400, Note_off_c, 5, 71, 64
11, 4416, Note_on_c, 5, 69, 90
11, 4424, Note_off_c, 5, 69, 64
11, 4512, Note_on_c, 5, 93, 90
11, 4520, Note_off_c, 5, 93, 64
11, 4608, Note_on_c, 5, 45, 90
11, 4656, Note_off_c, 5, 45, 64
11, 4680, Note_on_c, 5, 45, 90
11, 4704, Note_off_c, 5, 45, 64
11, 4704, Note_on_c, 5, 45, 90
11, 4728, Note_off_c, 5, 45, 64
11, 4728, Note_on_c, 5, 48, 90
11, 4752, Note_off_c, 5, 48, 64
11, 4752, Note_on_c, 5, 47, 90
11, 4776, Note_off_c, 5, 47, 64
11, 4776, Note_on_c, 5, 45, 90
11, 4800, Note_off_c, 5, 45, 64
11, 4800, Note_on_c, 5, 52, 90
11, 4848, Note_off_c, 5, 52, 64
11, 4872, Note_on_c, 5, 40, 90
11, 4896, Note_off_c, 5, 40, 64
11, 4896, Note_on_c, 5, 40, 90
11, 4920, Note_off_c, 5, 40, 64
11, 4920, Note_on_c, 5, 43, 90
11, 4944, Note_off_c, 5, 43, 64
11, 4944, Note_on_c, 5, 41, 90
11, 4968, Note_off_c, 5, 41, 64
11, 4968, Note_on_c, 5, 40, 90
11, 4992, Note_off_c, 5, 40, 64
11, 4992, Note_on_c, 5, 45, 90
11, 5040, Note_off_c, 5, 45, 64
11, 5064, Note_on_c, 5, 45, 90
11, 5088, Note_off_c, 5, 45, 64
11, 5088, Note_on_c, 5, 45, 90
11, 5112, Note_off_c, 5, 45, 64
11, 5112, Note_on_c, 5, 48, 90
11, 5136, Note_off_c, 5, 48, 64
11, 5136, Note_on_c, 5, 47, 90
11, 5160, Note_off_c, 5, 47, 64
11, 5160, Note_on_c, 5, 45, 90
11, 5184, Note_off_c, 5, 45, 64
11, 5184, Note_on_c, 5, 52, 90
11, 5248, Note_off_c, 5, 52, 64
11, 5248, Note_on_c, 5, 40, 90
11, 5280, Note_off_c, 5, 40, 64
11, 5280, Note_on_c, 5, 64, 90
11, 5312, Note_off_c, 5, 64, 64
11, 5312, Note_on_c, 5, 52, 90
11, 5344, Note_off_c, 5, 52, 64
11, 5344, Note_on_c, 5, 40, 90
11, 5376, Note_off_c, 5, 40, 64
11, 5376, Note_on_c, 5, 57, 90
11, 5424, Note_off_c, 5, 57, 64
11, 5448, Note_on_c, 5, 57, 90
11, 5472, Note_off_c, 5, 57, 64
11, 5472, Note_on_c, 5, 57, 90
11, 5496, Note_off_c, 5, 57, 64
11, 5496, Note_on_c, 5, 60, 90
11, 5520, Note_off_c, 5, 60, 64
11, 5520, Note_on_c, 5, 59, 90
11, 5544, Note_off_c, 5, 59, 64
11, 5544, Note_on_c, 5, 57, 90
11, 5568, Note_off_c, 5, 57, 64
11, 5568, Note_on_c, 5, 64, 90
11, 5616, Note_off_c, 5, 64, 64
11, 5640, Note_on_c, 5, 52, 90
11, 5664, Note_off_c, 5, 52, 64
11, 5664, Note_on_c, 5, 52, 90
11, 5688, Note_off_c, 5, 52, 64
11, 5688, Note_on_c, 5, 55, 90
11, 5712, Note_off_c, 5, 55, 64
11, 5712, Note_on_c, 5, 53, 90
11, 5736, Note_off_c, 5, 53, 64
11, 5736, Note_on_c, 5, 52, 90
11, 5760, Note_off_c, 5, 52, 64
11, 5760, Note_on_c, 5, 57, 90
11, 5808, Note_off_c, 5, 57, 64
11, 5832, Note_on_c, 5, 57, 90
11, 5856, Note_off_c, 5, 57, 64
11, 5856, Note_on_c, 5, 57, 90
11, 5880, Note_off_c, 5, 57, 64
11, 5880, Note_on_c, 5, 60, 90
11, 5904, Note_off_c, 5, 60, 64
11, 5904, Note_on_c, 5, 59, 90
11, 5928, Note_off_c, 5, 59, 64
11, 5928, Note_on_c, 5, 57, 90
11, 5952, Note_off_c, 5, 57, 64
11, 5952, Note_on_c, 5, 64, 90
11, 6016, Note_off_c, 5, 64, 64
11, 6016, Note_on_c, 5, 52, 90
11, 6048, Note_off_c, 5, 52, 64
11, 6048, Note_on_c, 5, 40, 90
11, 6080, Note_off_c, 5, 40, 64
11, 6080, Note_on_c, 5, 52, 90
11, 6112, Note_off_c, 5, 52, 64
11, 6112, Note_on_c, 5, 64, 90
11, 6144, Note_off_c, 5, 64, 64
11, 6144, Note_on_c, 5, 57, 90
11, 6192, Note_off_c, 5, 57, 64
11, 6216, Note_on_c, 5, 57, 90
11, 6240, Note_off_c, 5, 57, 64
11, 6240, Note_on_c, 5, 57, 90
11, 6264, Note_off_c, 5, 57, 64
11, 6264, Note_on_c, 5, 58, 90
11, 6288, Note_off_c, 5, 58, 64
11, 6288, Note_on_c, 5, 57, 90
11, 6312, Note_off_c, 5, 57, 64
11, 6312, Note_on_c, 5, 55, 90
11, 6336, Note_off_c, 5, 55, 64
11, 6336, Note_on_c, 5, 53, 90
11, 6384, Note_off_c, 5, 53, 64
11, 6408, Note_on_c, 5, 50, 90
11, 6432, Note_off_c, 5, 50, 64
11, 6432, Note_on_c, 5, 50, 90
11, 6456, Note_off_c, 5, 50, 64
11, 6456, Note_on_c, 5, 53, 90
11, 6480, Note_off_c, 5, 53, 64
11, 6480, Note_on_c, 5, 52, 90
11, 6504, Note_off_c, 5, 52, 64
11, 6504, Note_on_c, 5, 50, 90
11, 6528, Note_off_c, 5, 50, 64
11, 6528, Note_on_c, 5, 55, 90
11, 6576, Note_off_c, 5, 55, 64
11, 6600, Note_on_c, 5, 55, 90
11, 6624, Note_off_c, 5, 55, 64
11, 6624, Note_on_c, 5, 55, 90
11, 6648, Note_off_c, 5, 55, 64
11, 6648, Note_on_c, 5, 57, 90
11, 6672, Note_off_c, 5, 57, 64
11, 6672, Note_on_c, 5, 55, 90
11, 6696, Note_off_c, 5, 55, 64
11, 6696, Note_on_c, 5, 53, 90
11, 6720, Note_off_c, 5, 53, 64
11, 6720, Note_on_c, 5, 52, 90
11, 6768, Note_off_c, 5, 52, 64
11, 6792, Note_on_c, 5, 48, 90
11, 6816, Note_off_c, 5, 48, 64
11, 6816, Note_on_c, 5, 48, 90
11, 6840, Note_off_c, 5, 48, 64
11, 6840, Note_on_c, 5, 52, 90
11, 6864, Note_off_c, 5, 52, 64
11, 6864, Note_on_c, 5, 50, 90
11, 6888, Note_off_c, 5, 50, 64
11, 6888, Note_on_c, 5, 48, 90
11, 6912, Note_off_c, 5, 48, 64
11, 6912, Note_on_c, 5, 53, 90
11, 6960, Note_off_c, 5, 53, 64
11, 6984, Note_on_c, 5, 47, 90
11, 7008, Note_off_c, 5, 47, 64
11, 7008, Note_on_c, 5, 47, 90
11, 7032, Note_off_c, 5, 47, 64
11, 7032, Note_on_c, 5, 50, 90
11, 7056, Note_off_c, 5, 50, 64
11, 7056, Note_on_c, 5, 48, 90
11, 7080, Note_off_c, 5, 48, 64
11, 7080, Note_on_c, 5, 47, 90
11, 7104, Note_off_c, 5, 47, 64
11, 7104, Note_on_c, 5, 52, 90
11, 7152, Note_off_c, 5, 52, 64
11, 7176, Note_on_c, 5, 45, 90
11, 7200, Note_off_c, 5, 45, 64
11, 7200, Note_on_c, 5, 45, 90
11, 7224, Note_off_c, 5, 45, 64
11, 7224, Note_on_c, 5, 48, 90
11, 7248, Note_off_c, 5, 48, 64
11, 7248, Note_on_c, 5, 47, 90
11, 7272, Note_off_c, 5, 47, 64
11, 7272, Note_on_c, 5, 45, 90
11, 7296, Note_off_c, 5, 45, 64
11, 7296, Note_on_c, 5, 41, 90
11, 7344, Note_off_c, 5, 41, 64
11, 7344, Note_on_c, 5, 50, 90
11, 7392, Note_off_c, 5, 50, 64
11, 7392, Note_on_c, 5, 40, 90
11, 7416, Note_off_c, 5, 40, 64
11, 7416, Note_on_c, 5, 52, 90
11, 7440, Note_off_c, 5, 52, 64
11, 7440, Note_on_c, 5, 50, 90
11, 7464, Note_off_c, 5, 50, 64
11, 7464, Note_on_c, 5, 47, 90
11, 7488, Note_off_c, 5, 47, 64
11, 7488, Note_on_c, 5, 45, 90
11, 7584, Note_off_c, 5, 45, 64
11, 7584, Note_on_c, 5, 57, 90
11, 7632, Note_off_c, 5, 57, 64
11, 7680, Note_on_c, 5, 57, 90
11, 7704, Note_off_c, 5, 57, 64
11, 7704, Note_on_c, 5, 56, 90
11, 7728, Note_off_c, 5, 56, 64
11, 7728, Note_on_c, 5, 57, 90
11, 7752, Note_off_c, 5, 57, 64
11, 7752, Note_on_c, 5, 56, 90
11, 7776, Note_off_c, 5, 56, 64
11, 7776, Note_on_c, 5, 58, 90
11, 7784, Note_off_c, 5, 58, 64
11, 7784, Note_on_c, 5, 57, 90
11, 7800, Note_off_c, 5, 57, 64
11, 7800, Note_on_c, 5, 59, 90
11, 7824, Note_off_c, 5, 59, 64
11, 7824, Note_on_c, 5, 60, 90
11, 7848, Note_off_c, 5, 60, 64
11, 7848, Note_on_c, 5, 62, 90
11, 7872, Note_off_c, 5, 62, 64
11, 7872, Note_on_c, 5, 64, 90
11, 7896, Note_off_c, 5, 64, 64
11, 7896, Note_on_c, 5, 63, 90
11, 7920, Note_off_c, 5, 63, 64
11, 7920, Note_on_c, 5, 64, 90
11, 7944, Note_off_c, 5, 64, 64
11, 7944, Note_on_c, 5, 63, 90
11, 7968, Note_off_c, 5, 63, 64
11, 7968, Note_on_c, 5, 65, 90
11, 7976, Note_off_c, 5, 65, 64
11, 7976, Note_on_c, 5, 64, 90
11, 7992, Note_off_c, 5, 64, 64
11, 7992, Note_on_c, 5, 62, 90
11, 8016, Note_off_c, 5, 62, 64
11, 8016, Note_on_c, 5, 60, 90
11, 8040, Note_off_c, 5, 60, 64
11, 8040, Note_on_c, 5, 59, 90
11, 8064, Note_off_c, 5, 59, 64
11, 8064, Note_on_c, 5, 57, 90
11, 8088, Note_off_c, 5, 57, 64
11, 8088, Note_on_c, 5, 56, 90
11, 8112, Note_off_c, 5, 56, 64
11, 8112, Note_on_c, 5, 57, 90
11, 8136, Note_off_c, 5, 57, 64
11, 8136, Note_on_c, 5, 56, 90
11, 8160, Note_off_c, 5, 56, 64
11, 8160, Note_on_c, 5, 58, 90
11, 8168, Note_off_c, 5, 58, 64
11, 8168, Note_on_c, 5, 57, 90
11, 8184, Note_off_c, 5, 57, 64
11, 8184, Note_on_c, 5, 59, 90
11, 8208, Note_off_c, 5, 59, 64
11, 8208, Note_on_c, 5, 60, 90
11, 8232, Note_off_c, 5, 60, 64
11, 8232, Note_on_c, 5, 62, 90
11, 8256, Note_off_c, 5, 62, 64
11, 8256, Note_on_c, 5, 64, 90
11, 8280, Note_off_c, 5, 64, 64
11, 8280, Note_on_c, 5, 63, 90
11, 8304, Note_off_c, 5, 63, 64
11, 8304, Note_on_c, 5, 64, 90
11, 8328, Note_off_c, 5, 64, 64
11, 8328, Note_on_c, 5, 63, 90
11, 8352, Note_off_c, 5, 63, 64
11, 8352, Note_on_c, 5, 65, 90
11, 8360, Note_off_c, 5, 65, 64
11, 8360, Note_on_c, 5, 64, 90
11, 8400, Note_off_c, 5, 64, 64
11, 8400, Note_on_c, 5, 52, 90
11, 8448, Note_off_c, 5, 52, 64
11, 8544, Note_on_c, 5, 81, 90
11, 8688, Note_off_c, 5, 81, 64
11, 8688, Note_on_c, 5, 80, 90
11, 8736, Note_off_c, 5, 80, 64
11, 8736, Note_on_c, 5, 88, 90
11, 8832, Note_off_c, 5, 88, 64
11, 8832, Note_on_c, 5, 88, 90
11, 8880, Note_off_c, 5, 88, 64
11, 8880, Note_on_c, 5, 86, 90
11, 8928, Note_off_c, 5, 86, 64
11, 8928, Note_on_c, 5, 84, 90
11, 8976, Note_off_c, 5, 84, 64
11, 8976, Note_on_c, 5, 83, 90
11, 9024, Note_off_c, 5, 83, 64
11, 9024, Note_on_c, 5, 83, 90
11, 9120, Note_off_c, 5, 83, 64
11, 9120, Note_on_c, 5, 76, 90
11, 9216, Note_off_c, 5, 76, 64
11, 9216, Note_on_c, 5, 69, 90
11, 9240, Note_off_c, 5, 69, 64
11, 9240, Note_on_c, 5, 68, 90
11, 9264, Note_off_c, 5, 68, 64
11, 9264, Note_on_c, 5, 69, 90
11, 9288, Note_off_c, 5, 69, 64
11, 9288, Note_on_c, 5, 68, 90
11, 9312, Note_off_c, 5, 68, 64
11, 9312, Note_on_c, 5, 70, 90
11, 9320, Note_off_c, 5, 70, 64
11, 9320, Note_on_c, 5, 69, 90
11, 9336, Note_off_c, 5, 69, 64
11, 9336, Note_on_c, 5, 67, 90
11, 9360, Note_off_c, 5, 67, 64
11, 9360, Note_on_c, 5, 65, 90
11, 9384, Note_off_c, 5, 65, 64
11, 9384, Note_on_c, 5, 64, 90
11, 9408, Note_off_c, 5, 64, 64
11, 9408, Note_on_c, 5, 62, 90
11, 9432, Note_off_c, 5, 62, 64
11, 9432, Note_on_c, 5, 61, 90
11, 9456, Note_off_c, 5, 61, 64
11, 9456, Note_on_c, 5, 62, 90
11, 9480, Note_off_c, 5, 62, 64
11, 9480, Note_on_c, 5, 61, 90
11, 9504, Note_off_c, 5, 61, 64
11, 9504, Note_on_c, 5, 63, 90
11, 9512, Note_off_c, 5, 63, 64
11, 9512, Note_on_c, 5, 62, 90
11, 9528, Note_off_c, 5, 62, 64
11, 9528, Note_on_c, 5, 64, 90
11, 9552, Note_off_c, 5, 64, 64
11, 9552, Note_on_c, 5, 65, 90
11, 9576, Note_off_c, 5, 65, 64
11, 9576, Note_on_c, 5, 62, 90
11, 9600, Note_off_c, 5, 62, 64
11, 9600, Note_on_c, 5, 67, 90
11, 9624, Note_off_c, 5, 67, 64
11, 9624, Note_on_c, 5, 66, 90
11, 9648, Note_off_c, 5, 66, 64
11, 9648, Note_on_c, 5, 67, 90
11, 9672, Note_off_c, 5, 67, 64
11, 9672, Note_on_c, 5, 66, 90
11, 9696, Note_off_c, 5, 66, 64
11, 9696, Note_on_c, 5, 68, 90
11, 9704, Note_off_c, 5, 68, 64
11, 9704, Note_on_c, 5, 67, 90
11, 9720, Note_off_c, 5, 67, 64
11, 9720, Note_on_c, 5, 65, 90
11, 9744, Note_off_c, 5, 65, 64
11, 9744, Note_on_c, 5, 64, 90
11, 9768, Note_off_c, 5, 64, 64
11, 9768, Note_on_c, 5, 62, 90
11, 9792, Note_off_c, 5, 62, 64
11, 9792, Note_on_c, 5, 60, 90
11, 9816, Note_off_c, 5, 60, 64
11, 9816, Note_on_c, 5, 59, 90
11, 9840, Note_off_c, 5, 59, 64
11, 9840, Note_on_c, 5, 60, 90
11, 9864, Note_off_c, 5, 60, 64
11, 9864, Note_on_c, 5, 59, 90
11, 9888, Note_off_c, 5, 59, 64
11, 9888, Note_on_c, 5, 61, 90
11, 9896, Note_off_c, 5, 61, 64
11, 9896, Note_on_c, 5, 60, 90
11, 9912, Note_off_c, 5, 60, 64
11, 9912, Note_on_c, 5, 62, 90
11, 9936, Note_off_c, 5, 62, 64
11, 9936, Note_on_c, 5, 64, 90
11, 9960, Note_off_c, 5, 64, 64
11, 9960, Note_on_c, 5, 60, 90
11, 9984, Note_off_c, 5, 60, 64
11, 9984, Note_on_c, 5, 65, 90
11, 10008, Note_off_c, 5, 65, 64
11, 10008, Note_on_c, 5, 64, 90
11, 10032, Note_off_c, 5, 64, 64
11, 10032, Note_on_c, 5, 65, 90
11, 10056, Note_off_c, 5, 65, 64
11, 10056, Note_on_c, 5, 64, 90
11, 10080, Note_off_c, 5, 64, 64
11, 10080, Note_on_c, 5, 67, 90
11, 10088, Note_off_c, 5, 67, 64
11, 10088, Note_on_c, 5, 65, 90
11, 10104, Note_off_c, 5, 65, 64
11, 10104, Note_on_c, 5, 62, 90
11, 10128, Note_off_c, 5, 62, 64
11, 10128, Note_on_c, 5, 60, 90
11, 10152, Note_off_c, 5, 60, 64
11, 10152, Note_on_c, 5, 59, 90
11, 10176, Note_off_c, 5, 59, 64
11, 10176, Note_on_c, 5, 64, 90
11, 10200, Note_off_c, 5, 64, 64
11, 10200, Note_on_c, 5, 63, 90
11, 10224, Note_off_c, 5, 63, 64
11, 10224, Note_on_c, 5, 64, 90
11, 10248, Note_off_c, 5, 64, 64
11, 10248, Note_on_c, 5, 63, 90
11, 10272, Note_off_c, 5, 63, 64
11, 10272, Note_on_c, 5, 65, 90
11, 10280, Note_off_c, 5, 65, 64
11, 10280, Note_on_c, 5, 64, 90
11, 10296, Note_off_c, 5, 64, 64
11, 10296, Note_on_c, 5, 60, 90
11, 10320, Note_off_c, 5, 60, 64
11, 10320, Note_on_c, 5, 59, 90
11, 10344, Note_off_c, 5, 59, 64
11, 10344, Note_on_c, 5, 57, 90
11, 10368, Note_off_c, 5, 57, 64
11, 10368, Note_on_c, 5, 59, 90
11, 10392, Note_off_c, 5, 59, 64
11, 10392, Note_on_c, 5, 58, 90
11, 10416, Note_off_c, 5, 58, 64
11, 10416, Note_on_c, 5, 59, 90
11, 10440, Note_off_c, 5, 59, 64
11, 10440, Note_on_c, 5, 58, 90
11, 10464, Note_off_c, 5, 58, 64
11, 10464, Note_on_c, 5, 60, 90
11, 10472, Note_off_c, 5, 60, 64
11, 10472, Note_on_c, 5, 59, 90
11, 10488, Note_off_c, 5, 59, 64
11, 10488, Note_on_c, 5, 65, 90
11, 10512, Note_off_c, 5, 65, 64
11, 10512, Note_on_c, 5, 64, 90
11, 10536, Note_off_c, 5, 64, 64
11, 10536, Note_on_c, 5, 56, 90
11, 10560, Note_off_c, 5, 56, 64
11, 10560, Note_on_c, 5, 57, 90
11, 10584, Note_off_c, 5, 57, 64
11, 10584, Note_on_c, 5, 56, 90
11, 10608, Note_off_c, 5, 56, 64
11, 10608, Note_on_c, 5, 57, 90
11, 10632, Note_off_c, 5, 57, 64
11, 10632, Note_on_c, 5, 56, 90
11, 10656, Note_off_c, 5, 56, 64
11, 10656, Note_on_c, 5, 59, 90
11, 10664, Note_off_c, 5, 59, 64
11, 10664, Note_on_c, 5, 57, 90
11, 10704, Note_off_c, 5, 57, 64
11, 10800, Note_on_c, 5, 93, 90
11, 10896, Note_off_c, 5, 93, 64
11, 10896, Note_on_c, 5, 94, 90
11, 10992, Note_off_c, 5, 94, 64
11, 10992, Note_on_c, 5, 93, 90
11, 11040, Note_off_c, 5, 93, 64
11, 11040, Note_on_c, 5, 89, 90
11, 11088, Note_off_c, 5, 89, 64
11, 11088, Note_on_c, 5, 86, 90
11, 11136, Note_off_c, 5, 86, 64
11, 11184, Note_on_c, 5, 86, 90
11, 11280, Note_off_c, 5, 86, 64
11, 11280, Note_on_c, 5, 88, 90
11, 11376, Note_off_c, 5, 88, 64
11, 11376, Note_on_c, 5, 86, 90
11, 11424, Note_off_c, 5, 86, 64
11, 11424, Note_on_c, 5, 84, 90
11, 11472, Note_off_c, 5, 84, 64
11, 11472, Note_on_c, 5, 79, 90
11, 11520, Note_off_c, 5, 79, 64
11, 11568, Note_on_c, 5, 77, 90
11, 11664, Note_off_c, 5, 77, 64
11, 11664, Note_on_c, 5, 79, 90
11, 11760, Note_off_c, 5, 79, 64
11, 11760, Note_on_c, 5, 77, 90
11, 11808, Note_off_c, 5, 77, 64
11, 11808, Note_on_c, 5, 76, 90
11, 11880, Note_off_c, 5, 76, 64
11, 11880, Note_on_c, 5, 72, 90
11, 11904, Note_off_c, 5, 72, 64
11, 11904, Note_on_c, 5, 71, 90
11, 11952, Note_off_c, 5, 71, 64
11, 11952, Note_on_c, 5, 71, 90
11, 12000, Note_off_c, 5, 71, 64
11, 12000, Note_on_c, 5, 72, 90
11, 12024, Note_off_c, 5, 72, 64
11, 12024, Note_on_c, 5, 71, 90
11, 12048, Note_off_c, 5, 71, 64
11, 12048, Note_on_c, 5, 77, 90
11, 12072, Note_off_c, 5, 77, 64
11, 12072, Note_on_c, 5, 76, 90
11, 12096, Note_off_c, 5, 76, 64
11, 12144, Note_on_c, 5, 69, 90
11, 12192, Note_off_c, 5, 69, 64
11, 12192, Note_on_c, 5, 69, 90
11, 12240, Note_off_c, 5, 69, 64
11, 12288, Note_on_c, 5, 84, 90
11, 12304, Note_off_c, 5, 84, 64
11, 12312, Note_on_c, 5, 81, 90
11, 12320, Note_off_c, 5, 81, 64
11, 12336, Note_on_c, 5, 76, 90
11, 12344, Note_off_c, 5, 76, 64
11, 12360, Note_on_c, 5, 72, 90
11, 12368, Note_off_c, 5, 72, 64
11, 12384, Note_on_c, 5, 69, 90
11, 12392, Note_off_c, 5, 69, 64
11, 12408, Note_on_c, 5, 76, 90
11, 12416, Note_off_c, 5, 76, 64
11, 12432, Note_on_c, 5, 72, 90
11, 12440, Note_off_c, 5, 72, 64
11, 12456, Note_on_c, 5, 69, 90
11, 12464, Note_off_c, 5, 69, 64
11, 12488, Note_on_c, 5, 83, 90
11, 12504, Note_off_c, 5, 83, 64
11, 12504, Note_on_c, 5, 80, 90
11, 12528, Note_off_c, 5, 80, 64
11, 12528, Note_on_c, 5, 76, 90
11, 12552, Note_off_c, 5, 76, 64
11, 12552, Note_on_c, 5, 86, 90
11, 12576, Note_off_c, 5, 86, 64
11, 12576, Note_on_c, 5, 83, 90
11, 12600, Note_off_c, 5, 83, 64
11, 12600, Note_on_c, 5, 76, 90
11, 12624, Note_off_c, 5, 76, 64
11, 12624, Note_on_c, 5, 80, 90
11, 12648, Note_off_c, 5, 80, 64
11, 12648, Note_on_c, 5, 76, 90
11, 12672, Note_off_c, 5, 76, 64
11, 12680, Note_on_c, 5, 84, 90
11, 12696, Note_off_c, 5, 84, 64
11, 12696, Note_on_c, 5, 81, 90
11, 12720, Note_off_c, 5, 81, 64
11, 12720, Note_on_c, 5, 76, 90
11, 12744, Note_off_c, 5, 76, 64
11, 12744, Note_on_c, 5, 72, 90
11, 12768, Note_off_c, 5, 72, 64
11, 12768, Note_on_c, 5, 69, 90
11, 12792, Note_off_c, 5, 69, 64
11, 12792, Note_on_c, 5, 76, 90
11, 12816, Note_off_c, 5, 76, 64
11, 12816, Note_on_c, 5, 72, 90
11, 12840, Note_off_c, 5, 72, 64
11, 12840, Note_on_c, 5, 69, 90
11, 12864, Note_off_c, 5, 69, 64
11, 12872, Note_on_c, 5, 83, 90
11, 12888, Note_off_c, 5, 83, 64
11, 12888, Note_on_c, 5, 80, 90
11, 12912, Note_off_c, 5, 80, 64
11, 12912, Note_on_c, 5, 76, 90
11, 12936, Note_off_c, 5, 76, 64
11, 12936, Note_on_c, 5, 76, 90
11, 12960, Note_off_c, 5, 76, 64
11, 12960, Note_on_c, 5, 71, 90
11, 12984, Note_off_c, 5, 71, 64
11, 12984, Note_on_c, 5, 68, 90
11, 13008, Note_off_c, 5, 68, 64
11, 13008, Note_on_c, 5, 64, 90
11, 13056, Note_off_c, 5, 64, 64
11, 13072, Note_on_c, 5, 96, 90
11, 13080, Note_off_c, 5, 96, 64
11, 13080, Note_on_c, 5, 93, 90
11, 13104, Note_off_c, 5, 93, 64
11, 13104, Note_on_c, 5, 88, 90
11, 13128, Note_off_c, 5, 88, 64
11, 13128, Note_on_c, 5, 84, 90
11, 13152, Note_off_c, 5, 84, 64
11, 13152, Note_on_c, 5, 81, 90
11, 13176, Note_off_c, 5, 81, 64
11, 13176, Note_on_c, 5, 88, 90
11, 13200, Note_off_c, 5, 88, 64
11, 13200, Note_on_c, 5, 84, 90
11, 13224, Note_off_c, 5, 84, 64
11, 13224, Note_on_c, 5, 81, 90
11, 13248, Note_off_c, 5, 81, 64
11, 13264, Note_on_c, 5, 95, 90
11, 13272, Note_off_c, 5, 95, 64
11, 13272, Note_on_c, 5, 92, 90
11, 13296, Note_off_c, 5, 92, 64
11, 13296, Note_on_c, 5, 88, 90
11, 13320, Note_off_c, 5, 88, 64
11, 13320, Note_on_c, 5, 98, 90
11, 13344, Note_off_c, 5, 98, 64
11, 13344, Note_on_c, 5, 95, 90
11, 13368, Note_off_c, 5, 95, 64
11, 13368, Note_on_c, 5, 88, 90
11, 13392, Note_off_c, 5, 88, 64
11, 13392, Note_on_c, 5, 92, 90
11, 13416, Note_off_c, 5, 92, 64
11, 13416, Note_on_c, 5, 88, 90
11, 13440, Note_off_c, 5, 88, 64
11, 13456, Note_on_c, 5, 96, 90
11, 13464, Note_off_c, 5, 96, 64
11, 13464, Note_on_c, 5, 93, 90
11, 13488, Note_off_c, 5, 93, 64
11, 13488, Note_on_c, 5, 88, 90
11, 13512, Note_off_c, 5, 88, 64
11, 13512, Note_on_c, 5, 84, 90
11, 13536, Note_off_c, 5, 84, 64
11, 13536, Note_on_c, 5, 81, 90
11, 13560, Note_off_c, 5, 81, 64
11, 13560, Note_on_c, 5, 88, 90
11, 13584, Note_off_c, 5, 88, 64
11, 13584, Note_on_c, 5, 84, 90
11, 13608, Note_off_c, 5, 84, 64
11, 13608, Note_on_c, 5, 81, 90
11, 13632, Note_off_c, 5, 81, 64
11, 13648, Note_on_c, 5, 95, 90
11, 13656, Note_off_c, 5, 95, 64
11, 13656, Note_on_c, 5, 92, 90
11, 13680, Note_off_c, 5, 92, 64
11, 13680, Note_on_c, 5, 88, 90
11, 13704, Note_off_c, 5, 88, 64
11, 13704, Note_on_c, 5, 83, 90
11, 13728, Note_off_c, 5, 83, 64
11, 13728, Note_on_c, 5, 80, 90
11, 13752, Note_off_c, 5, 80, 64
11, 13752, Note_on_c, 5, 71, 90
11, 13776, Note_off_c, 5, 71, 64
11, 13776, Note_on_c, 5, 76, 90
11, 13824, Note_off_c, 5, 76, 64
11, 13824, Note_on_c, 5, 88, 90
11, 13848, Note_off_c, 5, 88, 64
11, 13848, Note_on_c, 5, 85, 90
11, 13872, Note_off_c, 5, 85, 64
11, 13872, Note_on_c, 5, 81, 90
11, 13896, Note_off_c, 5, 81, 64
11, 13896, Note_on_c, 5, 76, 90
11, 13920, Note_off_c, 5, 76, 64
11, 13920, Note_on_c, 5, 73, 90
11, 13944, Note_off_c, 5, 73, 64
11, 13944, Note_on_c, 5, 69, 90
11, 13968, Note_off_c, 5, 69, 64
11, 13968, Note_on_c, 5, 67, 90
11, 13992, Note_off_c, 5, 67, 64
11, 13992, Note_on_c, 5, 64, 90
11, 14016, Note_off_c, 5, 64, 64
11, 14016, Note_on_c, 5, 66, 90
11, 14024, Note_off_c, 5, 66, 64
11, 14040, Note_on_c, 5, 62, 90
11, 14048, Note_off_c, 5, 62, 64
11, 14064, Note_on_c, 5, 86, 90
11, 14072, Note_off_c, 5, 86, 64
11, 14088, Note_on_c, 5, 81, 90
11, 14096, Note_off_c, 5, 81, 64
11, 14112, Note_on_c, 5, 77, 90
11, 14120, Note_off_c, 5, 77, 64
11, 14136, Note_on_c, 5, 74, 90
11, 14144, Note_off_c, 5, 74, 64
11, 14160, Note_on_c, 5, 65, 90
11, 14168, Note_off_c, 5, 65, 64
11, 14184, Note_on_c, 5, 62, 90
11, 14192, Note_off_c, 5, 62, 64
11, 14208, Note_on_c, 5, 86, 90
11, 14232, Note_off_c, 5, 86, 64
11, 14232, Note_on_c, 5, 83, 90
11, 14256, Note_off_c, 5, 83, 64
11, 14256, Note_on_c, 5, 79, 90
11, 14280, Note_off_c, 5, 79, 64
11, 14280, Note_on_c, 5, 77, 90
11, 14304, Note_off_c, 5, 77, 64
11, 14304, Note_on_c, 5, 74, 90
11, 14328, Note_off_c, 5, 74, 64
11, 14328, Note_on_c, 5, 71, 90
11, 14352, Note_off_c, 5, 71, 64
11, 14352, Note_on_c, 5, 65, 90
11, 14376, Note_off_c, 5, 65, 64
11, 14376, Note_on_c, 5, 62, 90
11, 14400, Note_off_c, 5, 62, 64
11, 14400, Note_on_c, 5, 64, 90
11, 14408, Note_off_c, 5, 64, 64
11, 14424, Note_on_c, 5, 60, 90
11, 14432, Note_off_c, 5, 60, 64
11, 14448, Note_on_c, 5, 84, 90
11, 14456, Note_off_c, 5, 84, 64
11, 14472, Note_on_c, 5, 79, 90
11, 14480, Note_off_c, 5, 79, 64
11, 14496, Note_on_c, 5, 76, 90
11, 14504, Note_off_c, 5, 76, 64
11, 14520, Note_on_c, 5, 72, 90
11, 14528, Note_off_c, 5, 72, 64
11, 14544, Note_on_c, 5, 64, 90
11, 14552, Note_off_c, 5, 64, 64
11, 14568, Note_on_c, 5, 60, 90
11, 14576, Note_off_c, 5, 60, 64
11, 14616, Note_on_c, 5, 89, 90
11, 14624, Note_off_c, 5, 89, 64
11, 14664, Note_on_c, 5, 86, 90
11, 14672, Note_off_c, 5, 86, 64
11, 14712, Note_on_c, 5, 83, 90
11, 14720, Note_off_c, 5, 83, 64
11, 14760, Note_on_c, 5, 79, 90
11, 14768, Note_off_c, 5, 79, 64
11, 14808, Note_on_c, 5, 76, 90
11, 14816, Note_off_c, 5, 76, 64
11, 14856, Note_on_c, 5, 72, 90
11, 14880, Note_off_c, 5, 72, 64
11, 14904, Note_on_c, 5, 69, 90
11, 14928, Note_off_c, 5, 69, 64
11, 14952, Note_on_c, 5, 64, 90
11, 14976, Note_off_c, 5, 64, 64
11, 14976, Note_on_c, 5, 65, 90
11, 15000, Note_off_c, 5, 65, 64
11, 15000, Note_on_c, 5, 50, 90
11, 15024, Note_off_c, 5, 50, 64
11, 15024, Note_on_c, 5, 81, 90
11, 15048, Note_off_c, 5, 81, 64
11, 15048, Note_on_c, 5, 77, 90
11, 15072, Note_off_c, 5, 77, 64
11, 15072, Note_on_c, 5, 68, 90
11, 15096, Note_off_c, 5, 68, 64
11, 15096, Note_on_c, 5, 52, 90
11, 15120, Note_off_c, 5, 52, 64
11, 15120, Note_on_c, 5, 83, 90
11, 15144, Note_off_c, 5, 83, 64
11, 15144, Note_on_c, 5, 80, 90
11, 15168, Note_off_c, 5, 80, 64
11, 15168, Note_on_c, 5, 81, 90
11, 15192, Note_off_c, 5, 81, 64
11, 15192, Note_on_c, 5, 69, 90
11, 15216, Note_off_c, 5, 69, 64
11, 15216, Note_on_c, 5, 72, 90
11, 15240, Note_off_c, 5, 72, 64
11, 15240, Note_on_c, 5, 69, 90
11, 15264, Note_off_c, 5, 69, 64
11, 15360, Note_on_c, 5, 93, 90
11, 15504, Note_off_c, 5, 93, 64
11, 15504, Note_on_c, 5, 88, 90
11, 15528, Note_off_c, 5, 88, 64
11, 15528, Note_on_c, 5, 96, 90
11, 15552, Note_off_c, 5, 96, 64
11, 15552, Note_on_c, 5, 95, 90
11, 15576, Note_off_c, 5, 95, 64
11, 15576, Note_on_c, 5, 93, 90
11, 15600, Note_off_c, 5, 93, 64
11, 15600, Note_on_c, 5, 92, 90
11, 15624, Note_off_c, 5, 92, 64
11, 15624, Note_on_c, 5, 90, 90
11, 15648, Note_off_c, 5, 90, 64
11, 15648, Note_on_c, 5, 88, 90
11, 15672, Note_off_c, 5, 88, 64
11, 15672, Note_on_c, 5, 90, 90
11, 15696, Note_off_c, 5, 90, 64
11, 15696, Note_on_c, 5, 92, 90
11, 15720, Note_off_c, 5, 92, 64
11, 15720, Note_on_c, 5, 88, 90
11, 15744, Note_off_c, 5, 88, 64
11, 15744, Note_on_c, 5, 93, 90
11, 15816, Note_off_c, 5, 93, 64
11, 15816, Note_on_c, 5, 95, 90
11, 15824, Note_off_c, 5, 95, 64
11, 15824, Note_on_c, 5, 93, 90
11, 15832, Note_off_c, 5, 93, 64
11, 15832, Note_on_c, 5, 92, 90
11, 15840, Note_off_c, 5, 92, 64
11, 15840, Note_on_c, 5, 93, 90
11, 15864, Note_off_c, 5, 93, 64
11, 15864, Note_on_c, 5, 95, 90
11, 15888, Note_off_c, 5, 95, 64
11, 15888, Note_on_c, 5, 96, 90
11, 15912, Note_off_c, 5, 96, 64
11, 15912, Note_on_c, 5, 98, 90
11, 15936, Note_off_c, 5, 98, 64
11, 15936, Note_on_c, 5, 99, 90
11, 16008, Note_off_c, 5, 99, 64
11, 16008, Note_on_c, 5, 100, 90
11, 16032, Note_off_c, 5, 100, 64
11, 16032, Note_on_c, 5, 88, 90
11, 16128, Note_off_c, 5, 88, 64
11, 16128, Note_on_c, 5, 93, 90
11, 16272, Note_off_c, 5, 93, 64
11, 16272, Note_on_c, 5, 88, 90
11, 16296, Note_off_c, 5, 88, 64
11, 16296, Note_on_c, 5, 96, 90
11, 16320, Note_off_c, 5, 96, 64
11, 16320, Note_on_c, 5, 95, 90
11, 16344, Note_off_c, 5, 95, 64
11, 16344, Note_on_c, 5, 93, 90
11, 16368, Note_off_c, 5, 93, 64
11, 16368, Note_on_c, 5, 92, 90
11, 16392, Note_off_c, 5, 92, 64
11, 16392, Note_on_c, 5, 90, 90
11, 16416, Note_off_c, 5, 90, 64
11, 16416, Note_on_c, 5, 88, 90
11, 16440, Note_off_c, 5, 88, 64
11, 16440, Note_on_c, 5, 90, 90
11, 16464, Note_off_c, 5, 90, 64
11, 16464, Note_on_c, 5, 92, 90
11, 16488, Note_off_c, 5, 92, 64
11, 16488, Note_on_c, 5, 88, 90
11, 16512, Note_off_c, 5, 88, 64
11, 16512, Note_on_c, 5, 93, 90
11, 16584, Note_off_c, 5, 93, 64
11, 16584, Note_on_c, 5, 95, 90
11, 16592, Note_off_c, 5, 95, 64
11, 16592, Note_on_c, 5, 93, 90
11, 16600, Note_off_c, 5, 93, 64
11, 16600, Note_on_c, 5, 92, 90
11, 16608, Note_off_c, 5, 92, 64
11, 16608, Note_on_c, 5, 93, 90
11, 16632, Note_off_c, 5, 93, 64
11, 16632, Note_on_c, 5, 95, 90
11, 16656, Note_off_c, 5, 95, 64
11, 16656, Note_on_c, 5, 96, 90
11, 16680, Note_off_c, 5, 96, 64
11, 16680, Note_on_c, 5, 98, 90
11, 16704, Note_off_c, 5, 98, 64
11, 16704, Note_on_c, 5, 99, 90
11, 16776, Note_off_c, 5, 99, 64
11, 16776, Note_on_c, 5, 100, 90
11, 16800, Note_off_c, 5, 100, 64
11, 16800, Note_on_c, 5, 88, 90
11, 16896, Note_off_c, 5, 88, 64
11, 16896, Note_on_c, 5, 93, 90
11, 17016, Note_off_c, 5, 93, 64
11, 17016, Note_on_c, 5, 100, 90
11, 17040, Note_off_c, 5, 100, 64
11, 17040, Note_on_c, 5, 97, 90
11, 17064, Note_off_c, 5, 97, 64
11, 17064, Note_on_c, 5, 93, 90
11, 17088, Note_off_c, 5, 93, 64
11, 17088, Note_on_c, 5, 91, 90
11, 17112, Note_off_c, 5, 91, 64
11, 17112, Note_on_c, 5, 88, 90
11, 17136, Note_off_c, 5, 88, 64
11, 17136, Note_on_c, 5, 85, 90
11, 17160, Note_off_c, 5, 85, 64
11, 17160, Note_on_c, 5, 81, 90
11, 17184, Note_off_c, 5, 81, 64
11, 17184, Note_on_c, 5, 79, 90
11, 17208, Note_off_c, 5, 79, 64
11, 17208, Note_on_c, 5, 77, 90
11, 17232, Note_off_c, 5, 77, 64
11, 17232, Note_on_c, 5, 76, 90
11, 17256, Note_off_c, 5, 76, 64
11, 17256, Note_on_c, 5, 74, 90
11, 17280, Note_off_c, 5, 74, 64
11, 17280, Note_on_c, 5, 77, 90
11, 17296, Note_off_c, 5, 77, 64
11, 17296, Note_on_c, 5, 76, 90
11, 17312, Note_off_c, 5, 76, 64
11, 17312, Note_on_c, 5, 77, 90
11, 17328, Note_off_c, 5, 77, 64
11, 17328, Note_on_c, 5, 76, 90
11, 17344, Note_off_c, 5, 76, 64
11, 17344, Note_on_c, 5, 77, 90
11, 17352, Note_off_c, 5, 77, 64
11, 17352, Note_on_c, 5, 76, 90
11, 17360, Note_off_c, 5, 76, 64
11, 17360, Note_on_c, 5, 77, 90
11, 17368, Note_off_c, 5, 77, 64
11, 17368, Note_on_c, 5, 76, 90
11, 17376, Note_off_c, 5, 76, 64
11, 17376, Note_on_c, 5, 77, 90
11, 17424, Note_off_c, 5, 77, 64
11, 17784, Note_on_c, 5, 86, 90
11, 17808, Note_off_c, 5, 86, 64
11, 17808, Note_on_c, 5, 83, 90
11, 17832, Note_off_c, 5, 83, 64
11, 17832, Note_on_c, 5, 81, 90
11, 17856, Note_off_c, 5, 81, 64
11, 17856, Note_on_c, 5, 80, 90
11, 17880, Note_off_c, 5, 80, 64
11, 17880, Note_on_c, 5, 76, 90
11, 17904, Note_off_c, 5, 76, 64
11, 17904, Note_on_c, 5, 74, 90
11, 17928, Note_off_c, 5, 74, 64
11, 17928, Note_on_c, 5, 71, 90
11, 17952, Note_off_c, 5, 71, 64
11, 17952, Note_on_c, 5, 72, 90
11, 17976, Note_off_c, 5, 72, 64
11, 17976, Note_on_c, 5, 76, 90
11, 18000, Note_off_c, 5, 76, 64
11, 18000, Note_on_c, 5, 81, 90
11, 18024, Note_off_c, 5, 81, 64
11, 18024, Note_on_c, 5, 79, 90
11, 18048, Note_off_c, 5, 79, 64
11, 18048, Note_on_c, 5, 77, 90
11, 18072, Note_off_c, 5, 77, 64
11, 18072, Note_on_c, 5, 86, 90
11, 18096, Note_off_c, 5, 86, 64
11, 18096, Note_on_c, 5, 83, 90
11, 18120, Note_off_c, 5, 83, 64
11, 18120, Note_on_c, 5, 81, 90
11, 18144, Note_off_c, 5, 81, 64
11, 18144, Note_on_c, 5, 80, 90
11, 18168, Note_off_c, 5, 80, 64
11, 18168, Note_on_c, 5, 95, 90
11, 18192, Note_off_c, 5, 95, 64
11, 18192, Note_on_c, 5, 92, 90
11, 18216, Note_off_c, 5, 92, 64
11, 18216, Note_on_c, 5, 88, 90
11, 18240, Note_off_c, 5, 88, 64
11, 18240, Note_on_c, 5, 92, 90
11, 18256, Note_off_c, 5, 92, 64
11, 18256, Note_on_c, 5, 93, 90
11, 18336, Note_off_c, 5, 93, 64
11, 18336, Note_on_c, 5, 81, 90
11, 18360, Note_off_c, 5, 81, 64
11, 18456, Note_on_c, 5, 64, 90
11, 18464, Note_off_c, 5, 64, 64
11, 18480, Note_on_c, 5, 76, 90
11, 18488, Note_off_c, 5, 76, 64
11, 18504, Note_on_c, 5, 88, 90
11, 18512, Note_off_c, 5, 88, 64
11, 18528, Note_on_c, 5, 100, 90
11, 18536, Note_off_c, 5, 100, 64
11, 18552, Note_on_c, 5, 88, 90
11, 18560, Note_off_c, 5, 88, 64
11, 18576, Note_on_c, 5, 76, 90
11, 18584, Note_off_c, 5, 76, 64
11, 18600, Note_on_c, 5, 64, 90
11, 18624, Note_off_c, 5, 64, 64
11, 18624, Note_on_c, 5, 64, 90
11, 18640, Note_off_c, 5, 64, 64
11, 18648, Note_on_c, 5, 83, 90
11, 18696, Note_off_c, 5, 83, 64
11, 18696, Note_on_c, 5, 86, 90
11, 18744, Note_off_c, 5, 86, 64
11, 18744, Note_on_c, 5, 86, 90
11, 18792, Note_off_c, 5, 86, 64
11, 18792, Note_on_c, 5, 86, 90
11, 18816, Note_off_c, 5, 86, 64
11, 18840, Note_on_c, 5, 64, 90
11, 18848, Note_off_c, 5, 64, 64
11, 18864, Note_on_c, 5, 76, 90
11, 18872, Note_off_c, 5, 76, 64
11, 18888, Note_on_c, 5, 88, 90
11, 18896, Note_off_c, 5, 88, 64
11, 18912, Note_on_c, 5, 100, 90
11, 18920, Note_off_c, 5, 100, 64
11, 18936, Note_on_c, 5, 88, 90
11, 18944, Note_off_c, 5, 88, 64
11, 18960, Note_on_c, 5, 76, 90
11, 18968, Note_off_c, 5, 76, 64
11, 18984, Note_on_c, 5, 64, 90
11, 19008, Note_off_c, 5, 64, 64
11, 19008, Note_on_c, 5, 64, 90
11, 19024, Note_off_c, 5, 64, 64
11, 19024, Note_on_c, 5, 64, 90
11, 19040, Note_off_c, 5, 64, 64
11, 19040, Note_on_c, 5, 65, 90
11, 19056, Note_off_c, 5, 65, 64
11, 19056, Note_on_c, 5, 66, 90
11, 19072, Note_off_c, 5, 66, 64
11, 19072, Note_on_c, 5, 67, 90
11, 19088, Note_off_c, 5, 67, 64
11, 19088, Note_on_c, 5, 68, 90
11, 19104, Note_off_c, 5, 68, 64
11, 19104, Note_on_c, 5, 69, 90
11, 19120, Note_off_c, 5, 69, 64
11, 19120, Note_on_c, 5, 70, 90
11, 19136, Note_off_c, 5, 70, 64
11, 19136, Note_on_c, 5, 71, 90
11, 19144, Note_off_c, 5, 71, 64
11, 19144, Note_on_c, 5, 72, 90
11, 19152, Note_off_c, 5, 72, 64
11, 19152, Note_on_c, 5, 73, 90
11, 19160, Note_off_c, 5, 73, 64
11, 19160, Note_on_c, 5, 74, 90
11, 19168, Note_off_c, 5, 74, 64
11, 19168, Note_on_c, 5, 75, 90
11, 19176, Note_off_c, 5, 75, 64
11, 19176, Note_on_c, 5, 76, 90
11, 19184, Note_off_c, 5, 76, 64
11, 19184, Note_on_c, 5, 77, 90
11, 19192, Note_off_c, 5, 77, 64
11, 19192, Note_on_c, 5, 76, 90
11, 19200, Note_off_c, 5, 76, 64
11, 19224, Note_on_c, 5, 64, 90
11, 19232, Note_off_c, 5, 64, 64
11, 19248, Note_on_c, 5, 76, 90
11, 19256, Note_off_c, 5, 76, 64
11, 19272, Note_on_c, 5, 88, 90
11, 19280, Note_off_c, 5, 88, 64
11, 19296, Note_on_c, 5, 100, 90
11, 19304, Note_off_c, 5, 100, 64
11, 19320, Note_on_c, 5, 88, 90
11, 19328, Note_off_c, 5, 88, 64
11, 19344, Note_on_c, 5, 76, 90
11, 19352, Note_off_c, 5, 76, 64
11, 19368, Note_on_c, 5, 64, 90
11, 19392, Note_off_c, 5, 64, 64
11, 19392, Note_on_c, 5, 64, 90
11, 19408, Note_off_c, 5, 64, 64
11, 19416, Note_on_c, 5, 83, 90
11, 19464, Note_off_c, 5, 83, 64
11, 19464, Note_on_c, 5, 86, 90
11, 19512, Note_off_c, 5, 86, 64
11, 19512, Note_on_c, 5, 86, 90
11, 19560, Note_off_c, 5, 86, 64
11, 19560, Note_on_c, 5, 86, 90
11, 19584, Note_off_c, 5, 86, 64
11, 19608, Note_on_c, 5, 64, 90
11, 19616, Note_off_c, 5, 64, 64
11, 19632, Note_on_c, 5, 76, 90
11, 19640, Note_off_c, 5, 76, 64
11, 19656, Note_on_c, 5, 88, 90
11, 19664, Note_off_c, 5, 88, 64
11, 19680, Note_on_c, 5, 100, 90
11, 19688, Note_off_c, 5, 100, 64
11, 19704, Note_on_c, 5, 88, 90
11, 19712, Note_off_c, 5, 88, 64
11, 19728, Note_on_c, 5, 76, 90
11, 19736, Note_off_c, 5, 76, 64
11, 19752, Note_on_c, 5, 64, 90
11, 19776, Note_off_c, 5, 64, 64
11, 19776, Note_on_c, 5, 64, 90
11, 19792, Note_off_c, 5, 64, 64
11, 19792, Note_on_c, 5, 64, 90
11, 19808, Note_off_c, 5, 64, 64
11, 19808, Note_on_c, 5, 65, 90
11, 19824, Note_off_c, 5, 65, 64
11, 19824, Note_on_c, 5, 66, 90
11, 19840, Note_off_c, 5, 66, 64
11, 19840, Note_on_c, 5, 67, 90
11, 19856, Note_off_c, 5, 67, 64
11, 19856, Note_on_c, 5, 68, 90
11, 19872, Note_off_c, 5, 68, 64
11, 19872, Note_on_c, 5, 69, 90
11, 19888, Note_off_c, 5, 69, 64
11, 19888, Note_on_c, 5, 70, 90
11, 19904, Note_off_c, 5, 70, 64
11, 19904, Note_on_c, 5, 71, 90
11, 19912, Note_off_c, 5, 71, 64
11, 19912, Note_on_c, 5, 72, 90
11, 19920, Note_off_c, 5, 72, 64
11, 19920, Note_on_c, 5, 73, 90
11, 19928, Note_off_c, 5, 73, 64
11, 19928, Note_on_c, 5, 74, 90
11, 19936, Note_off_c, 5, 74, 64
11, 19936, Note_on_c, 5, 75, 90
11, 19944, Note_off_c, 5, 75, 64
11, 19944, Note_on_c, 5, 76, 90
11, 19952, Note_off_c, 5, 76, 64
11, 19952, Note_on_c, 5, 77, 90
11, 19960, Note_off_c, 5, 77, 64
11, 19960, Note_on_c, 5, 76, 90
11, 19968, Note_off_c, 5, 76, 64
11, 20016, Note_on_c, 5, 82, 90
11, 20024, Note_off_c, 5, 82, 64
11, 20040, Note_on_c, 5, 94, 90
11, 20048, Note_off_c, 5, 94, 64
11, 20064, Note_on_c, 5, 93, 90
11, 20072, Note_off_c, 5, 93, 64
11, 20088, Note_on_c, 5, 81, 90
11, 20096, Note_off_c, 5, 81, 64
11, 20112, Note_on_c, 5, 79, 90
11, 20120, Note_off_c, 5, 79, 64
11, 20136, Note_on_c, 5, 67, 90
11, 20144, Note_off_c, 5, 67, 64
11, 20160, Note_on_c, 5, 65, 90
11, 20176, Note_off_c, 5, 65, 64
11, 20184, Note_on_c, 5, 67, 90
11, 20208, Note_off_c, 5, 67, 64
11, 20208, Note_on_c, 5, 74, 90
11, 20232, Note_off_c, 5, 74, 64
11, 20232, Note_on_c, 5, 79, 90
11, 20256, Note_off_c, 5, 79, 64
11, 20256, Note_on_c, 5, 86, 90
11, 20280, Note_off_c, 5, 86, 64
11, 20280, Note_on_c, 5, 91, 90
11, 20304, Note_off_c, 5, 91, 64
11, 20304, Note_on_c, 5, 98, 90
11, 20320, Note_off_c, 5, 98, 64
11, 20400, Note_on_c, 5, 80, 90
11, 20408, Note_off_c, 5, 80, 64
11, 20424, Note_on_c, 5, 92, 90
11, 20432, Note_off_c, 5, 92, 64
11, 20448, Note_on_c, 5, 91, 90
11, 20456, Note_off_c, 5, 91, 64
11, 20472, Note_on_c, 5, 79, 90
11, 20480, Note_off_c, 5, 79, 64
11, 20496, Note_on_c, 5, 77, 90
11, 20504, Note_off_c, 5, 77, 64
11, 20520, Note_on_c, 5, 65, 90
11, 20528, Note_off_c, 5, 65, 64
11, 20544, Note_on_c, 5, 64, 90
11, 20560, Note_off_c, 5, 64, 64
11, 20568, Note_on_c, 5, 65, 90
11, 20592, Note_off_c, 5, 65, 64
11, 20592, Note_on_c, 5, 72, 90
11, 20616, Note_off_c, 5, 72, 64
11, 20616, Note_on_c, 5, 77, 90
11, 20640, Note_off_c, 5, 77, 64
11, 20640, Note_on_c, 5, 84, 90
11, 20664, Note_off_c, 5, 84, 64
11, 20664, Note_on_c, 5, 89, 90
11, 20688, Note_off_c, 5, 89, 64
11, 20688, Note_on_c, 5, 96, 90
11, 20704, Note_off_c, 5, 96, 64
11, 20736, Note_on_c, 5, 65, 90
11, 20760, Note_off_c, 5, 65, 64
11, 20760, Note_on_c, 5, 77, 90
11, 20784, Note_off_c, 5, 77, 64
11, 20784, Note_on_c, 5, 71, 90
11, 20808, Note_off_c, 5, 71, 64
11, 20808, Note_on_c, 5, 59, 90
11, 20816, Note_off_c, 5, 59, 64
11, 20816, Note_on_c, 5, 60, 90
11, 20824, Note_off_c, 5, 60, 64
11, 20824, Note_on_c, 5, 62, 90
11, 20832, Note_off_c, 5, 62, 64
11, 20832, Note_on_c, 5, 63, 90
11, 20856, Note_off_c, 5, 63, 64
11, 20856, Note_on_c, 5, 75, 90
11, 20880, Note_off_c, 5, 75, 64
11, 20880, Note_on_c, 5, 69, 90
11, 20904, Note_off_c, 5, 69, 64
11, 20904, Note_on_c, 5, 57, 90
11, 20912, Note_off_c, 5, 57, 64
11, 20912, Note_on_c, 5, 59, 90
11, 20920, Note_off_c, 5, 59, 64
11, 20920, Note_on_c, 5, 60, 90
11, 20928, Note_off_c, 5, 60, 64
11, 20928, Note_on_c, 5, 61, 90
11, 20952, Note_off_c, 5, 61, 64
11, 20952, Note_on_c, 5, 73, 90
11, 20976, Note_off_c, 5, 73, 64
11, 20976, Note_on_c, 5, 67, 90
11, 21000, Note_off_c, 5, 67, 64
11, 21000, Note_on_c, 5, 55, 90
11, 21008, Note_off_c, 5, 55, 64
11, 21008, Note_on_c, 5, 56, 90
11, 21016, Note_off_c, 5, 56, 64
11, 21016, Note_on_c, 5, 58, 90
11, 21024, Note_off_c, 5, 58, 64
11, 21024, Note_on_c, 5, 59, 90
11, 21048, Note_off_c, 5, 59, 64
11, 21048, Note_on_c, 5, 71, 90
11, 21072, Note_off_c, 5, 71, 64
11, 21072, Note_on_c, 5, 65, 90
11, 21096, Note_off_c, 5, 65, 64
11, 21096, Note_on_c, 5, 53, 90
11, 21104, Note_off_c, 5, 53, 64
11, 21104, Note_on_c, 5, 57, 90
11, 21112, Note_off_c, 5, 57, 64
11, 21112, Note_on_c, 5, 58, 90
11, 21120, Note_off_c, 5, 58, 64
11, 21120, Note_on_c, 5, 59, 90
11, 21144, Note_off_c, 5, 59, 64
11, 21144, Note_on_c, 5, 71, 90
11, 21168, Note_off_c, 5, 71, 64
11, 21168, Note_on_c, 5, 65, 90
11, 21192, Note_off_c, 5, 65, 64
11, 21192, Note_on_c, 5, 53, 90
11, 21200, Note_off_c, 5, 53, 64
11, 21200, Note_on_c, 5, 57, 90
11, 21208, Note_off_c, 5, 57, 64
11, 21208, Note_on_c, 5, 58, 90
11, 21216, Note_off_c, 5, 58, 64
11, 21216, Note_on_c, 5, 59, 90
11, 21240, Note_off_c, 5, 59, 64
11, 21240, Note_on_c, 5, 71, 90
11, 21264, Note_off_c, 5, 71, 64
11, 21264, Note_on_c, 5, 65, 90
11, 21288, Note_off_c, 5, 65, 64
11, 21288, Note_on_c, 5, 57, 90
11, 21296, Note_off_c, 5, 57, 64
11, 21296, Note_on_c, 5, 55, 90
11, 21304, Note_off_c, 5, 55, 64
11, 21304, Note_on_c, 5, 53, 90
11, 21312, Note_off_c, 5, 53, 64
11, 21312, Note_on_c, 5, 52, 90
11, 21360, Note_off_c, 5, 52, 64
11, 21360, Note_on_c, 5, 81, 90
11, 21408, Note_off_c, 5, 81, 64
11, 21408, Note_on_c, 5, 64, 90
11, 21456, Note_off_c, 5, 64, 64
11, 21456, Note_on_c, 5, 83, 90
11, 21504, Note_off_c, 5, 83, 64
11, 21528, Note_on_c, 5, 64, 90
11, 21536, Note_off_c, 5, 64, 64
11, 21552, Note_on_c, 5, 76, 90
11, 21560, Note_off_c, 5, 76, 64
11, 21576, Note_on_c, 5, 88, 90
11, 21584, Note_off_c, 5, 88, 64
11, 21600, Note_on_c, 5, 100, 90
11, 21608, Note_off_c, 5, 100, 64
11, 21624, Note_on_c, 5, 88, 90
11, 21632, Note_off_c, 5, 88, 64
11, 21648, Note_on_c, 5, 76, 90
11, 21656, Note_off_c, 5, 76, 64
11, 21672, Note_on_c, 5, 64, 90
11, 21680, Note_off_c, 5, 64, 64
11, 21720, Note_on_c, 5, 64, 90
11, 21728, Note_off_c, 5, 64, 64
11, 21744, Note_on_c, 5, 76, 90
11, 21752, Note_off_c, 5, 76, 64
11, 21768, Note_on_c, 5, 88, 90
11, 21776, Note_off_c, 5, 88, 64
11, 21792, Note_on_c, 5, 100, 90
11, 21800, Note_off_c, 5, 100, 64
11, 21816, Note_on_c, 5, 88, 90
11, 21824, Note_off_c, 5, 88, 64
11, 21840, Note_on_c, 5, 76, 90
11, 21848, Note_off_c, 5, 76, 64
11, 21864, Note_on_c, 5, 64, 90
11, 21872, Note_off_c, 5, 64, 64
11, 21912, Note_on_c, 5, 65, 90
11, 21920, Note_off_c, 5, 65, 64
11, 21936, Note_on_c, 5, 77, 90
11, 21944, Note_off_c, 5, 77, 64
11, 21960, Note_on_c, 5, 89, 90
11, 21968, Note_off_c, 5, 89, 64
11, 21984, Note_on_c, 5, 101, 90
11, 21992, Note_off_c, 5, 101, 64
11, 22008, Note_on_c, 5, 89, 90
11, 22016, Note_off_c, 5, 89, 64
11, 22032, Note_on_c, 5, 77, 90
11, 22040, Note_off_c, 5, 77, 64
11, 22056, Note_on_c, 5, 65, 90
11, 22064, Note_off_c, 5, 65, 64
11, 22104, Note_on_c, 5, 74, 90
11, 22128, Note_off_c, 5, 74, 64
11, 22152, Note_on_c, 5, 77, 90
11, 22176, Note_off_c, 5, 77, 64
11, 22200, Note_on_c, 5, 80, 90
11, 22224, Note_off_c, 5, 80, 64
11, 22248, Note_on_c, 5, 80, 90
11, 22272, Note_off_c, 5, 80, 64
11, 22296, Note_on_c, 5, 64, 90
11, 22304, Note_off_c, 5, 64, 64
11, 22320, Note_on_c, 5, 76, 90
11, 22328, Note_off_c, 5, 76, 64
11, 22344, Note_on_c, 5, 88, 90
11, 22352, Note_off_c, 5, 88, 64
11, 22368, Note_on_c, 5, 100, 90
11, 22376, Note_off_c, 5, 100, 64
11, 22392, Note_on_c, 5, 88, 90
11, 22400, Note_off_c, 5, 88, 64
11, 22416, Note_on_c, 5, 76, 90
11, 22424, Note_off_c, 5, 76, 64
11, 22440, Note_on_c, 5, 64, 90
11, 22448, Note_off_c, 5, 64, 64
11, 22488, Note_on_c, 5, 64, 90
11, 22496, Note_off_c, 5, 64, 64
11, 22512, Note_on_c, 5, 76, 90
11, 22520, Note_off_c, 5, 76, 64
11, 22536, Note_on_c, 5, 88, 90
11, 22544, Note_off_c, 5, 88, 64
11, 22560, Note_on_c, 5, 100, 90
11, 22568, Note_off_c, 5, 100, 64
11, 22584, Note_on_c, 5, 88, 90
11, 22592, Note_off_c, 5, 88, 64
11, 22608, Note_on_c, 5, 76, 90
11, 22616, Note_off_c, 5, 76, 64
11, 22632, Note_on_c, 5, 64, 90
11, 22640, Note_off_c, 5, 64, 64
11, 22680, Note_on_c, 5, 65, 90
11, 22688, Note_off_c, 5, 65, 64
11, 22704, Note_on_c, 5, 77, 90
11, 22712, Note_off_c, 5, 77, 64
11, 22728, Note_on_c, 5, 89, 90
11, 22736, Note_off_c, 5, 89, 64
11, 22752, Note_on_c, 5, 101, 90
11, 22760, Note_off_c, 5, 101, 64
11, 22776, Note_on_c, 5, 89, 90
11, 22784, Note_off_c, 5, 89, 64
11, 22800, Note_on_c, 5, 77, 90
11, 22808, Note_off_c, 5, 77, 64
11, 22824, Note_on_c, 5, 65, 90
11, 22832, Note_off_c, 5, 65, 64
11, 22872, Note_on_c, 5, 74, 90
11, 22896, Note_off_c, 5, 74, 64
11, 22920, Note_on_c, 5, 77, 90
11, 22944, Note_off_c, 5, 77, 64
11, 22968, Note_on_c, 5, 80, 90
11, 22992, Note_off_c, 5, 80, 64
11, 23016, Note_on_c, 5, 80, 90
11, 23040, Note_off_c, 5, 80, 64
11, 23040, Note_on_c, 5, 45, 90
11, 23048, Note_off_c, 5, 45, 64
11, 23048, Note_on_c, 5, 49, 90
11, 23056, Note_off_c, 5, 49, 64
11, 23056, Note_on_c, 5, 52, 90
11, 23064, Note_off_c, 5, 52, 64
11, 23064, Note_on_c, 5, 57, 90
11, 23072, Note_off_c, 5, 57, 64
11, 23072, Note_on_c, 5, 61, 90
11, 23080, Note_off_c, 5, 61, 64
11, 23080, Note_on_c, 5, 64, 90
11, 23088, Note_off_c, 5, 64, 64
11, 23088, Note_on_c, 5, 69, 90
11, 23096, Note_off_c, 5, 69, 64
11, 23096, Note_on_c, 5, 73, 90
11, 23104, Note_off_c, 5, 73, 64
11, 23104, Note_on_c, 5, 76, 90
11, 23112, Note_off_c, 5, 76, 64
11, 23112, Note_on_c, 5, 81, 90
11, 23120, Note_off_c, 5, 81, 64
11, 23120, Note_on_c, 5, 85, 90
11, 23128, Note_off_c, 5, 85, 64
11, 23128, Note_on_c, 5, 88, 90
11, 23136, Note_off_c, 5, 88, 64
11, 23136, Note_on_c, 5, 93, 90
11, 23144, Note_off_c, 5, 93, 64
11, 23144, Note_on_c, 5, 88, 90
11, 23152, Note_off_c, 5, 88, 64
11, 23152, Note_on_c, 5, 85, 90
11, 23160, Note_off_c, 5, 85, 64
11, 23160, Note_on_c, 5, 81, 90
11, 23168, Note_off_c, 5, 81, 64
11, 23168, Note_on_c, 5, 76, 90
11, 23176, Note_off_c, 5, 76, 64
11, 23176, Note_on_c, 5, 73, 90
11, 23184, Note_off_c, 5, 73, 64
11, 23184, Note_on_c, 5, 69, 90
11, 23192, Note_off_c, 5, 69, 64
11, 23192, Note_on_c, 5, 64, 90
11, 23200, Note_off_c, 5, 64, 64
11, 23200, Note_on_c, 5, 61, 90
11, 23208, Note_off_c, 5, 61, 64
11, 23208, Note_on_c, 5, 57, 90
11, 23216, Note_off_c, 5, 57, 64
11, 23216, Note_on_c, 5, 52, 90
11, 23224, Note_off_c, 5, 52, 64
11, 23224, Note_on_c, 5, 49, 90
11, 23232, Note_off_c, 5, 49, 64
11, 23232, Note_on_c, 5, 45, 90
11, 23240, Note_off_c, 5, 45, 64
11, 23240, Note_on_c, 5, 49, 90
11, 23248, Note_off_c, 5, 49, 64
11, 23248, Note_on_c, 5, 52, 90
11, 23256, Note_off_c, 5, 52, 64
11, 23256, Note_on_c, 5, 57, 90
11, 23264, Note_off_c, 5, 57, 64
11, 23264, Note_on_c, 5, 61, 90
11, 23272, Note_off_c, 5, 61, 64
11, 23272, Note_on_c, 5, 64, 90
11, 23280, Note_off_c, 5, 64, 64
11, 23280, Note_on_c, 5, 69, 90
11, 23288, Note_off_c, 5, 69, 64
11, 23288, Note_on_c, 5, 73, 90
11, 23296, Note_off_c, 5, 73, 64
11, 23296, Note_on_c, 5, 76, 90
11, 23304, Note_off_c, 5, 76, 64
11, 23304, Note_on_c, 5, 81, 90
11, 23312, Note_off_c, 5, 81, 64
11, 23312, Note_on_c, 5, 85, 90
11, 23320, Note_off_c, 5, 85, 64
11, 23320, Note_on_c, 5, 88, 90
11, 23328, Note_off_c, 5, 88, 64
11, 23328, Note_on_c, 5, 93, 90
11, 23336, Note_off_c, 5, 93, 64
11, 23336, Note_on_c, 5, 97, 90
11, 23344, Note_off_c, 5, 97, 64
11, 23344, Note_on_c, 5, 93, 90
11, 23352, Note_off_c, 5, 93, 64
11, 23352, Note_on_c, 5, 88, 90
11, 23360, Note_off_c, 5, 88, 64
11, 23360, Note_on_c, 5, 85, 90
11, 23368, Note_off_c, 5, 85, 64
11, 23368, Note_on_c, 5, 81, 90
11, 23376, Note_off_c, 5, 81, 64
11, 23376, Note_on_c, 5, 76, 90
11, 23384, Note_off_c, 5, 76, 64
11, 23384, Note_on_c, 5, 73, 90
11, 23392, Note_off_c, 5, 73, 64
11, 23392, Note_on_c, 5, 69, 90
11, 23400, Note_off_c, 5, 69, 64
11, 23400, Note_on_c, 5, 64, 90
11, 23408, Note_off_c, 5, 64, 64
11, 23408, Note_on_c, 5, 61, 90
11, 23416, Note_off_c, 5, 61, 64
11, 23416, Note_on_c, 5, 57, 90
11, 23424, Note_off_c, 5, 57, 64
11, 23424, Note_on_c, 5, 52, 90
11, 23432, Note_off_c, 5, 52, 64
11, 23432, Note_on_c, 5, 49, 90
11, 23440, Note_off_c, 5, 49, 64
11, 23440, Note_on_c, 5, 45, 90
11, 23448, Note_off_c, 5, 45, 64
11, 23448, Note_on_c, 5, 49, 90
11, 23456, Note_off_c, 5, 49, 64
11, 23456, Note_on_c, 5, 52, 90
11, 23464, Note_off_c, 5, 52, 64
11, 23464, Note_on_c, 5, 57, 90
11, 23472, Note_off_c, 5, 57, 64
11, 23472, Note_on_c, 5, 61, 90
11, 23480, Note_off_c, 5, 61, 64
11, 23480, Note_on_c, 5, 64, 90
11, 23488, Note_off_c, 5, 64, 64
11, 23488, Note_on_c, 5, 69, 90
11, 23496, Note_off_c, 5, 69, 64
11, 23496, Note_on_c, 5, 73, 90
11, 23504, Note_off_c, 5, 73, 64
11, 23504, Note_on_c, 5, 76, 90
11, 23512, Note_off_c, 5, 76, 64
11, 23512, Note_on_c, 5, 81, 90
11, 23520, Note_off_c, 5, 81, 64
11, 23520, Note_on_c, 5, 85, 90
11, 23528, Note_off_c, 5, 85, 64
11, 23528, Note_on_c, 5, 88, 90
11, 23536, Note_off_c, 5, 88, 64
11, 23536, Note_on_c, 5, 93, 90
11, 23544, Note_off_c, 5, 93, 64
11, 23544, Note_on_c, 5, 97, 90
11, 23552, Note_off_c, 5, 97, 64
11, 23552, Note_on_c, 5, 101, 90
11, 23560, Note_off_c, 5, 101, 64
11, 23560, Note_on_c, 5, 100, 90
11, 23568, Note_off_c, 5, 100, 64
11, 23568, Note_on_c, 5, 97, 90
11, 23576, Note_off_c, 5, 97, 64
11, 23576, Note_on_c, 5, 93, 90
11, 23584, Note_off_c, 5, 93, 64
11, 23584, Note_on_c, 5, 88, 90
11, 23592, Note_off_c, 5, 88, 64
11, 23592, Note_on_c, 5, 85, 90
11, 23600, Note_off_c, 5, 85, 64
11, 23600, Note_on_c, 5, 81, 90
11, 23608, Note_off_c, 5, 81, 64
11, 23608, Note_on_c, 5, 76, 90
11, 23616, Note_off_c, 5, 76, 64
11, 23616, Note_on_c, 5, 73, 90
11, 23624, Note_off_c, 5, 73, 64
11, 23624, Note_on_c, 5, 69, 90
11, 23632, Note_off_c, 5, 69, 64
11, 23632, Note_on_c, 5, 64, 90
11, 23640, Note_off_c, 5, 64, 64
11, 23640, Note_on_c, 5, 61, 90
11, 23648, Note_off_c, 5, 61, 64
11, 23648, Note_on_c, 5, 57, 90
11, 23656, Note_off_c, 5, 57, 64
11, 23656, Note_on_c, 5, 52, 90
11, 23664, Note_off_c, 5, 52, 64
11, 23664, Note_on_c, 5, 49, 90
11, 23672, Note_off_c, 5, 49, 64
11, 23672, Note_on_c, 5, 45, 90
11, 23768, Note_off_c, 5, 45, 64
11, 23768, Note_on_c, 5, 45, 90
11, 23776, Note_off_c, 5, 45, 64
11, 23776, Note_on_c, 5, 46, 90
11, 23784, Note_off_c, 5, 46, 64
11, 23784, Note_on_c, 5, 47, 90
11, 23792, Note_off_c, 5, 47, 64
11, 23792, Note_on_c, 5, 48, 90
11, 23800, Note_off_c, 5, 48, 64
11, 23800, Note_on_c, 5, 49, 90
11, 23808, Note_off_c, 5, 49, 64
11, 23808, Note_on_c, 5, 50, 90
11, 23816, Note_off_c, 5, 50, 64
11, 23816, Note_on_c, 5, 51, 90
11, 23824, Note_off_c, 5, 51, 64
11, 23824, Note_on_c, 5, 52, 90
11, 23832, Note_off_c, 5, 52, 64
11, 23832, Note_on_c, 5, 53, 90
11, 23840, Note_off_c, 5, 53, 64
11, 23840, Note_on_c, 5, 52, 90
11, 23856, Note_off_c, 5, 52, 64
11, 23856, Note_on_c, 5, 51, 90
11, 23880, Note_off_c, 5, 51, 64
11, 23880, Note_on_c, 5, 50, 90
11, 23904, Note_off_c, 5, 50, 64
11, 23904, Note_on_c, 5, 49, 90
11, 23928, Note_off_c, 5, 49, 64
11, 23928, Note_on_c, 5, 48, 90
11, 23952, Note_off_c, 5, 48, 64
11, 23952, Note_on_c, 5, 47, 90
11, 23976, Note_off_c, 5, 47, 64
11, 23976, Note_on_c, 5, 46, 90
11, 24000, Note_off_c, 5, 46, 64
11, 24000, Note_on_c, 5, 45, 90
11, 24024, Note_off_c, 5, 45, 64
11, 24048, Note_on_c, 5, 76, 90
11, 24096, Note_off_c, 5, 76, 64
11, 24096, Note_on_c, 5, 88, 90
11, 24144, Note_off_c, 5, 88, 64
11, 24144, End_track
12, 0, Start_track
12, 0, MIDI_port, 0
12, 0, Title_t, "Wood Bass           "
12, 0, Program_c, 6, 81
12, 0, Note_on_c, 6, 52, 90
12, 48, Note_off_c, 6, 52, 64
12, 192, Note_on_c, 6, 59, 90
12, 240, Note_off_c, 6, 59, 64
12, 384, Note_on_c, 6, 52, 90
12, 432, Note_off_c, 6, 52, 64
12, 576, Note_on_c, 6, 59, 90
12, 624, Note_off_c, 6, 59, 64
12, 768, Note_on_c, 6, 52, 90
12, 816, Note_off_c, 6, 52, 64
12, 960, Note_on_c, 6, 59, 90
12, 1008, Note_off_c, 6, 59, 64
12, 1152, Note_on_c, 6, 52, 90
12, 1200, Note_off_c, 6, 52, 64
12, 1344, Note_on_c, 6, 59, 90
12, 1392, Note_off_c, 6, 59, 64
12, 1536, Note_on_c, 6, 52, 90
12, 1584, Note_off_c, 6, 52, 64
12, 1728, Note_on_c, 6, 57, 90
12, 1776, Note_off_c, 6, 57, 64
12, 1920, Note_on_c, 6, 50, 90
12, 1968, Note_off_c, 6, 50, 64
12, 2112, Note_on_c, 6, 55, 90
12, 2160, Note_off_c, 6, 55, 64
12, 2304, Note_on_c, 6, 53, 90
12, 2352, Note_off_c, 6, 53, 64
12, 2688, Note_on_c, 6, 53, 90
12, 2760, Note_off_c, 6, 53, 64
12, 2760, Note_on_c, 6, 63, 90
12, 2784, Note_off_c, 6, 63, 64
12, 2784, Note_on_c, 6, 52, 90
12, 2880, Note_off_c, 6, 52, 64
12, 2880, Note_on_c, 6, 60, 90
12, 2976, Note_off_c, 6, 60, 64
12, 2976, Note_on_c, 6, 52, 90
12, 3024, Note_off_c, 6, 52, 64
12, 3072, Note_on_c, 6, 52, 90
12, 3120, Note_off_c, 6, 52, 64
12, 3168, Note_on_c, 6, 64, 90
12, 3216, Note_off_c, 6, 64, 64
12, 3264, Note_on_c, 6, 57, 90
12, 3312, Note_off_c, 6, 57, 64
12, 3360, Note_on_c, 6, 65, 90
12, 3408, Note_off_c, 6, 65, 64
12, 3456, Note_on_c, 6, 50, 90
12, 3504, Note_off_c, 6, 50, 64
12, 3552, Note_on_c, 6, 62, 90
12, 3600, Note_off_c, 6, 62, 64
12, 3648, Note_on_c, 6, 55, 90
12, 3696, Note_off_c, 6, 55, 64
12, 3744, Note_on_c, 6, 64, 90
12, 3792, Note_off_c, 6, 64, 64
12, 3840, Note_on_c, 6, 53, 90
12, 3888, Note_off_c, 6, 53, 64
12, 3936, Note_on_c, 6, 65, 90
12, 3984, Note_off_c, 6, 65, 64
12, 4032, Note_on_c, 6, 60, 90
12, 4080, Note_off_c, 6, 60, 64
12, 4128, Note_on_c, 6, 64, 90
12, 4176, Note_off_c, 6, 64, 64
12, 4224, Note_on_c, 6, 53, 90
12, 4320, Note_off_c, 6, 53, 64
12, 4320, Note_on_c, 6, 52, 90
12, 4416, Note_off_c, 6, 52, 64
12, 4416, Note_on_c, 6, 52, 90
12, 4512, Note_off_c, 6, 52, 64
12, 4512, Note_on_c, 6, 40, 90
12, 4568, Note_off_c, 6, 40, 64
12, 4624, Note_on_c, 6, 84, 90
12, 4640, Note_off_c, 6, 84, 64
12, 4640, Note_on_c, 6, 81, 90
12, 4672, Note_off_c, 6, 81, 64
12, 4672, Note_on_c, 6, 76, 90
12, 4704, Note_off_c, 6, 76, 64
12, 4704, Note_on_c, 6, 72, 90
12, 4736, Note_off_c, 6, 72, 64
12, 4736, Note_on_c, 6, 69, 90
12, 4768, Note_off_c, 6, 69, 64
12, 4768, Note_on_c, 6, 64, 90
12, 4800, Note_off_c, 6, 64, 64
12, 4816, Note_on_c, 6, 80, 90
12, 4832, Note_off_c, 6, 80, 64
12, 4832, Note_on_c, 6, 76, 90
12, 4864, Note_off_c, 6, 76, 64
12, 4864, Note_on_c, 6, 71, 90
12, 4896, Note_off_c, 6, 71, 64
12, 4896, Note_on_c, 6, 68, 90
12, 4928, Note_off_c, 6, 68, 64
12, 4928, Note_on_c, 6, 64, 90
12, 4960, Note_off_c, 6, 64, 64
12, 4960, Note_on_c, 6, 59, 90
12, 4992, Note_off_c, 6, 59, 64
12, 5008, Note_on_c, 6, 84, 90
12, 5024, Note_off_c, 6, 84, 64
12, 5024, Note_on_c, 6, 81, 90
12, 5056, Note_off_c, 6, 81, 64
12, 5056, Note_on_c, 6, 76, 90
12, 5088, Note_off_c, 6, 76, 64
12, 5088, Note_on_c, 6, 72, 90
12, 5120, Note_off_c, 6, 72, 64
12, 5120, Note_on_c, 6, 69, 90
12, 5152, Note_off_c, 6, 69, 64
12, 5152, Note_on_c, 6, 64, 90
12, 5184, Note_off_c, 6, 64, 64
12, 5216, Note_on_c, 6, 71, 90
12, 5248, Note_off_c, 6, 71, 64
12, 5248, Note_on_c, 6, 76, 90
12, 5280, Note_off_c, 6, 76, 64
12, 5280, Note_on_c, 6, 83, 90
12, 5328, Note_off_c, 6, 83, 64
12, 5392, Note_on_c, 6, 84, 90
12, 5408, Note_off_c, 6, 84, 64
12, 5408, Note_on_c, 6, 81, 90
12, 5440, Note_off_c, 6, 81, 64
12, 5440, Note_on_c, 6, 76, 90
12, 5472, Note_off_c, 6, 76, 64
12, 5472, Note_on_c, 6, 72, 90
12, 5504, Note_off_c, 6, 72, 64
12, 5504, Note_on_c, 6, 69, 90
12, 5536, Note_off_c, 6, 69, 64
12, 5536, Note_on_c, 6, 64, 90
12, 5568, Note_off_c, 6, 64, 64
12, 5584, Note_on_c, 6, 80, 90
12, 5600, Note_off_c, 6, 80, 64
12, 5600, Note_on_c, 6, 76, 90
12, 5632, Note_off_c, 6, 76, 64
12, 5632, Note_on_c, 6, 71, 90
12, 5664, Note_off_c, 6, 71, 64
12, 5664, Note_on_c, 6, 68, 90
12, 5696, Note_off_c, 6, 68, 64
12, 5696, Note_on_c, 6, 64, 90
12, 5728, Note_off_c, 6, 64, 64
12, 5728, Note_on_c, 6, 59, 90
12, 5760, Note_off_c, 6, 59, 64
12, 5776, Note_on_c, 6, 84, 90
12, 5792, Note_off_c, 6, 84, 64
12, 5792, Note_on_c, 6, 81, 90
12, 5824, Note_off_c, 6, 81, 64
12, 5824, Note_on_c, 6, 76, 90
12, 5856, Note_off_c, 6, 76, 64
12, 5856, Note_on_c, 6, 72, 90
12, 5888, Note_off_c, 6, 72, 64
12, 5888, Note_on_c, 6, 69, 90
12, 5920, Note_off_c, 6, 69, 64
12, 5920, Note_on_c, 6, 64, 90
12, 5952, Note_off_c, 6, 64, 64
12, 5984, Note_on_c, 6, 71, 90
12, 6016, Note_off_c, 6, 71, 64
12, 6016, Note_on_c, 6, 76, 90
12, 6048, Note_off_c, 6, 76, 64
12, 6048, Note_on_c, 6, 83, 90
12, 6096, Note_off_c, 6, 83, 64
12, 6160, Note_on_c, 6, 88, 90
12, 6176, Note_off_c, 6, 88, 64
12, 6176, Note_on_c, 6, 85, 90
12, 6192, Note_off_c, 6, 85, 64
12, 6208, Note_on_c, 6, 81, 90
12, 6224, Note_off_c, 6, 81, 64
12, 6240, Note_on_c, 6, 76, 90
12, 6256, Note_off_c, 6, 76, 64
12, 6272, Note_on_c, 6, 73, 90
12, 6288, Note_off_c, 6, 73, 64
12, 6304, Note_on_c, 6, 64, 90
12, 6320, Note_off_c, 6, 64, 64
12, 6368, Note_on_c, 6, 69, 90
12, 6384, Note_off_c, 6, 69, 64
12, 6400, Note_on_c, 6, 74, 90
12, 6416, Note_off_c, 6, 74, 64
12, 6432, Note_on_c, 6, 77, 90
12, 6448, Note_off_c, 6, 77, 64
12, 6464, Note_on_c, 6, 81, 90
12, 6480, Note_off_c, 6, 81, 64
12, 6496, Note_on_c, 6, 86, 90
12, 6512, Note_off_c, 6, 86, 64
12, 6528, Note_on_c, 6, 86, 90
12, 6544, Note_off_c, 6, 86, 64
12, 6560, Note_on_c, 6, 83, 90
12, 6576, Note_off_c, 6, 83, 64
12, 6592, Note_on_c, 6, 79, 90
12, 6608, Note_off_c, 6, 79, 64
12, 6624, Note_on_c, 6, 74, 90
12, 6640, Note_off_c, 6, 74, 64
12, 6656, Note_on_c, 6, 71, 90
12, 6672, Note_off_c, 6, 71, 64
12, 6688, Note_on_c, 6, 62, 90
12, 6704, Note_off_c, 6, 62, 64
12, 6752, Note_on_c, 6, 67, 90
12, 6768, Note_off_c, 6, 67, 64
12, 6784, Note_on_c, 6, 72, 90
12, 6800, Note_off_c, 6, 72, 64
12, 6816, Note_on_c, 6, 76, 90
12, 6832, Note_off_c, 6, 76, 64
12, 6848, Note_on_c, 6, 79, 90
12, 6864, Note_off_c, 6, 79, 64
12, 6880, Note_on_c, 6, 84, 90
12, 6896, Note_off_c, 6, 84, 64
12, 6912, Note_on_c, 6, 83, 90
12, 6928, Note_off_c, 6, 83, 64
12, 6944, Note_on_c, 6, 80, 90
12, 6960, Note_off_c, 6, 80, 64
12, 6976, Note_on_c, 6, 77, 90
12, 6992, Note_off_c, 6, 77, 64
12, 7008, Note_on_c, 6, 74, 90
12, 7024, Note_off_c, 6, 74, 64
12, 7040, Note_on_c, 6, 71, 90
12, 7056, Note_off_c, 6, 71, 64
12, 7072, Note_on_c, 6, 68, 90
12, 7088, Note_off_c, 6, 68, 64
12, 7104, Note_on_c, 6, 84, 90
12, 7120, Note_off_c, 6, 84, 64
12, 7136, Note_on_c, 6, 81, 90
12, 7152, Note_off_c, 6, 81, 64
12, 7168, Note_on_c, 6, 76, 90
12, 7184, Note_off_c, 6, 76, 64
12, 7200, Note_on_c, 6, 72, 90
12, 7216, Note_off_c, 6, 72, 64
12, 7232, Note_on_c, 6, 69, 90
12, 7248, Note_off_c, 6, 69, 64
12, 7264, Note_on_c, 6, 64, 90
12, 7280, Note_off_c, 6, 64, 64
12, 7296, Note_on_c, 6, 65, 90
12, 7312, Note_off_c, 6, 65, 64
12, 7328, Note_on_c, 6, 69, 90
12, 7344, Note_off_c, 6, 69, 64
12, 7360, Note_on_c, 6, 71, 90
12, 7376, Note_off_c, 6, 71, 64
12, 7392, Note_on_c, 6, 71, 90
12, 7408, Note_off_c, 6, 71, 64
12, 7424, Note_on_c, 6, 74, 90
12, 7440, Note_off_c, 6, 74, 64
12, 7456, Note_on_c, 6, 76, 90
12, 7472, Note_off_c, 6, 76, 64
12, 7488, Note_on_c, 6, 76, 90
12, 7504, Note_off_c, 6, 76, 64
12, 7520, Note_on_c, 6, 81, 90
12, 7536, Note_off_c, 6, 81, 64
12, 7552, Note_on_c, 6, 84, 90
12, 7568, Note_off_c, 6, 84, 64
12, 7584, Note_on_c, 6, 88, 90
12, 7600, Note_off_c, 6, 88, 64
12, 7680, Note_on_c, 6, 45, 90
12, 7704, Note_off_c, 6, 45, 64
12, 7704, Note_on_c, 6, 44, 90
12, 7728, Note_off_c, 6, 44, 64
12, 7728, Note_on_c, 6, 45, 90
12, 7752, Note_off_c, 6, 45, 64
12, 7752, Note_on_c, 6, 44, 90
12, 7776, Note_off_c, 6, 44, 64
12, 7776, Note_on_c, 6, 46, 90
12, 7784, Note_off_c, 6, 46, 64
12, 7784, Note_on_c, 6, 45, 90
12, 7800, Note_off_c, 6, 45, 64
12, 7800, Note_on_c, 6, 47, 90
12, 7824, Note_off_c, 6, 47, 64
12, 7824, Note_on_c, 6, 48, 90
12, 7848, Note_off_c, 6, 48, 64
12, 7848, Note_on_c, 6, 50, 90
12, 7872, Note_off_c, 6, 50, 64
12, 7872, Note_on_c, 6, 52, 90
12, 7896, Note_off_c, 6, 52, 64
12, 7896, Note_on_c, 6, 51, 90
12, 7920, Note_off_c, 6, 51, 64
12, 7920, Note_on_c, 6, 52, 90
12, 7944, Note_off_c, 6, 52, 64
12, 7944, Note_on_c, 6, 51, 90
12, 7968, Note_off_c, 6, 51, 64
12, 7968, Note_on_c, 6, 53, 90
12, 7976, Note_off_c, 6, 53, 64
12, 7976, Note_on_c, 6, 52, 90
12, 7992, Note_off_c, 6, 52, 64
12, 7992, Note_on_c, 6, 50, 90
12, 8016, Note_off_c, 6, 50, 64
12, 8016, Note_on_c, 6, 48, 90
12, 8040, Note_off_c, 6, 48, 64
12, 8040, Note_on_c, 6, 47, 90
12, 8064, Note_off_c, 6, 47, 64
12, 8064, Note_on_c, 6, 45, 90
12, 8088, Note_off_c, 6, 45, 64
12, 8088, Note_on_c, 6, 44, 90
12, 8112, Note_off_c, 6, 44, 64
12, 8112, Note_on_c, 6, 45, 90
12, 8136, Note_off_c, 6, 45, 64
12, 8136, Note_on_c, 6, 44, 90
12, 8160, Note_off_c, 6, 44, 64
12, 8160, Note_on_c, 6, 46, 90
12, 8168, Note_off_c, 6, 46, 64
12, 8168, Note_on_c, 6, 45, 90
12, 8184, Note_off_c, 6, 45, 64
12, 8184, Note_on_c, 6, 47, 90
12, 8208, Note_off_c, 6, 47, 64
12, 8208, Note_on_c, 6, 48, 90
12, 8232, Note_off_c, 6, 48, 64
12, 8232, Note_on_c, 6, 50, 90
12, 8256, Note_off_c, 6, 50, 64
12, 8256, Note_on_c, 6, 52, 90
12, 8280, Note_off_c, 6, 52, 64
12, 8280, Note_on_c, 6, 51, 90
12, 8304, Note_off_c, 6, 51, 64
12, 8304, Note_on_c, 6, 52, 90
12, 8328, Note_off_c, 6, 52, 64
12, 8328, Note_on_c, 6, 51, 90
12, 8352, Note_off_c, 6, 51, 64
12, 8352, Note_on_c, 6, 53, 90
12, 8360, Note_off_c, 6, 53, 64
12, 8360, Note_on_c, 6, 52, 90
12, 8400, Note_off_c, 6, 52, 64
12, 8400, Note_on_c, 6, 40, 90
12, 8448, Note_off_c, 6, 40, 64
12, 8448, Note_on_c, 6, 45, 90
12, 8472, Note_off_c, 6, 45, 64
12, 8472, Note_on_c, 6, 44, 90
12, 8496, Note_off_c, 6, 44, 64
12, 8496, Note_on_c, 6, 45, 90
12, 8520, Note_off_c, 6, 45, 64
12, 8520, Note_on_c, 6, 44, 90
12, 8544, Note_off_c, 6, 44, 64
12, 8544, Note_on_c, 6, 46, 90
12, 8552, Note_off_c, 6, 46, 64
12, 8552, Note_on_c, 6, 45, 90
12, 8568, Note_off_c, 6, 45, 64
12, 8568, Note_on_c, 6, 47, 90
12, 8592, Note_off_c, 6, 47, 64
12, 8592, Note_on_c, 6, 48, 90
12, 8616, Note_off_c, 6, 48, 64
12, 8616, Note_on_c, 6, 50, 90
12, 8640, Note_off_c, 6, 50, 64
12, 8640, Note_on_c, 6, 52, 90
12, 8664, Note_off_c, 6, 52, 64
12, 8664, Note_on_c, 6, 51, 90
12, 8688, Note_off_c, 6, 51, 64
12, 8688, Note_on_c, 6, 52, 90
12, 8712, Note_off_c, 6, 52, 64
12, 8712, Note_on_c, 6, 51, 90
12, 8736, Note_off_c, 6, 51, 64
12, 8736, Note_on_c, 6, 53, 90
12, 8744, Note_off_c, 6, 53, 64
12, 8744, Note_on_c, 6, 52, 90
12, 8760, Note_off_c, 6, 52, 64
12, 8760, Note_on_c, 6, 50, 90
12, 8784, Note_off_c, 6, 50, 64
12, 8784, Note_on_c, 6, 48, 90
12, 8808, Note_off_c, 6, 48, 64
12, 8808, Note_on_c, 6, 47, 90
12, 8832, Note_off_c, 6, 47, 64
12, 8832, Note_on_c, 6, 45, 90
12, 8856, Note_off_c, 6, 45, 64
12, 8856, Note_on_c, 6, 44, 90
12, 8880, Note_off_c, 6, 44, 64
12, 8880, Note_on_c, 6, 45, 90
12, 8904, Note_off_c, 6, 45, 64
12, 8904, Note_on_c, 6, 44, 90
12, 8928, Note_off_c, 6, 44, 64
12, 8928, Note_on_c, 6, 46, 90
12, 8936, Note_off_c, 6, 46, 64
12, 8936, Note_on_c, 6, 45, 90
12, 8952, Note_off_c, 6, 45, 64
12, 8952, Note_on_c, 6, 47, 90
12, 8976, Note_off_c, 6, 47, 64
12, 8976, Note_on_c, 6, 48, 90
12, 9000, Note_off_c, 6, 48, 64
12, 9000, Note_on_c, 6, 50, 90
12, 9024, Note_off_c, 6, 50, 64
12, 9024, Note_on_c, 6, 52, 90
12, 9048, Note_off_c, 6, 52, 64
12, 9048, Note_on_c, 6, 51, 90
12, 9072, Note_off_c, 6, 51, 64
12, 9072, Note_on_c, 6, 52, 90
12, 9096, Note_off_c, 6, 52, 64
12, 9096, Note_on_c, 6, 51, 90
12, 9120, Note_off_c, 6, 51, 64
12, 9120, Note_on_c, 6, 53, 90
12, 9128, Note_off_c, 6, 53, 64
12, 9128, Note_on_c, 6, 52, 90
12, 9168, Note_off_c, 6, 52, 64
12, 9168, Note_on_c, 6, 40, 90
12, 9216, Note_off_c, 6, 40, 64
12, 9216, Note_on_c, 6, 45, 90
12, 9240, Note_off_c, 6, 45, 64
12, 9240, Note_on_c, 6, 44, 90
12, 9264, Note_off_c, 6, 44, 64
12, 9264, Note_on_c, 6, 45, 90
12, 9288, Note_off_c, 6, 45, 64
12, 9288, Note_on_c, 6, 44, 90
12, 9312, Note_off_c, 6, 44, 64
12, 9312, Note_on_c, 6, 46, 90
12, 9320, Note_off_c, 6, 46, 64
12, 9320, Note_on_c, 6, 45, 90
12, 9336, Note_off_c, 6, 45, 64
12, 9336, Note_on_c, 6, 43, 90
12, 9360, Note_off_c, 6, 43, 64
12, 9360, Note_on_c, 6, 41, 90
12, 9384, Note_off_c, 6, 41, 64
12, 9384, Note_on_c, 6, 40, 90
12, 9408, Note_off_c, 6, 40, 64
12, 9408, Note_on_c, 6, 38, 90
12, 9432, Note_off_c, 6, 38, 64
12, 9432, Note_on_c, 6, 37, 90
12, 9456, Note_off_c, 6, 37, 64
12, 9456, Note_on_c, 6, 38, 90
12, 9480, Note_off_c, 6, 38, 64
12, 9480, Note_on_c, 6, 37, 90
12, 9504, Note_off_c, 6, 37, 64
12, 9504, Note_on_c, 6, 39, 90
12, 9512, Note_off_c, 6, 39, 64
12, 9512, Note_on_c, 6, 38, 90
12, 9528, Note_off_c, 6, 38, 64
12, 9528, Note_on_c, 6, 40, 90
12, 9552, Note_off_c, 6, 40, 64
12, 9552, Note_on_c, 6, 41, 90
12, 9576, Note_off_c, 6, 41, 64
12, 9576, Note_on_c, 6, 38, 90
12, 9600, Note_off_c, 6, 38, 64
12, 9600, Note_on_c, 6, 43, 90
12, 9624, Note_off_c, 6, 43, 64
12, 9624, Note_on_c, 6, 42, 90
12, 9648, Note_off_c, 6, 42, 64
12, 9648, Note_on_c, 6, 43, 90
12, 9672, Note_off_c, 6, 43, 64
12, 9672, Note_on_c, 6, 42, 90
12, 9696, Note_off_c, 6, 42, 64
12, 9696, Note_on_c, 6, 44, 90
12, 9704, Note_off_c, 6, 44, 64
12, 9704, Note_on_c, 6, 43, 90
12, 9720, Note_off_c, 6, 43, 64
12, 9720, Note_on_c, 6, 41, 90
12, 9744, Note_off_c, 6, 41, 64
12, 9744, Note_on_c, 6, 40, 90
12, 9768, Note_off_c, 6, 40, 64
12, 9768, Note_on_c, 6, 38, 90
12, 9792, Note_off_c, 6, 38, 64
12, 9792, Note_on_c, 6, 36, 90
12, 9816, Note_off_c, 6, 36, 64
12, 9816, Note_on_c, 6, 35, 90
12, 9840, Note_off_c, 6, 35, 64
12, 9840, Note_on_c, 6, 36, 90
12, 9864, Note_off_c, 6, 36, 64
12, 9864, Note_on_c, 6, 35, 90
12, 9888, Note_off_c, 6, 35, 64
12, 9888, Note_on_c, 6, 37, 90
12, 9896, Note_off_c, 6, 37, 64
12, 9896, Note_on_c, 6, 36, 90
12, 9912, Note_off_c, 6, 36, 64
12, 9912, Note_on_c, 6, 38, 90
12, 9936, Note_off_c, 6, 38, 64
12, 9936, Note_on_c, 6, 40, 90
12, 9960, Note_off_c, 6, 40, 64
12, 9960, Note_on_c, 6, 36, 90
12, 9984, Note_off_c, 6, 36, 64
12, 9984, Note_on_c, 6, 47, 90
12, 10008, Note_off_c, 6, 47, 64
12, 10008, Note_on_c, 6, 52, 90
12, 10032, Note_off_c, 6, 52, 64
12, 10032, Note_on_c, 6, 47, 90
12, 10056, Note_off_c, 6, 47, 64
12, 10056, Note_on_c, 6, 52, 90
12, 10080, Note_off_c, 6, 52, 64
12, 10080, Note_on_c, 6, 55, 90
12, 10088, Note_off_c, 6, 55, 64
12, 10088, Note_on_c, 6, 53, 90
12, 10104, Note_off_c, 6, 53, 64
12, 10104, Note_on_c, 6, 50, 90
12, 10128, Note_off_c, 6, 50, 64
12, 10128, Note_on_c, 6, 48, 90
12, 10152, Note_off_c, 6, 48, 64
12, 10152, Note_on_c, 6, 47, 90
12, 10176, Note_off_c, 6, 47, 64
12, 10176, Note_on_c, 6, 45, 90
12, 10200, Note_off_c, 6, 45, 64
12, 10200, Note_on_c, 6, 51, 90
12, 10224, Note_off_c, 6, 51, 64
12, 10224, Note_on_c, 6, 45, 90
12, 10248, Note_off_c, 6, 45, 64
12, 10248, Note_on_c, 6, 51, 90
12, 10272, Note_off_c, 6, 51, 64
12, 10272, Note_on_c, 6, 53, 90
12, 10280, Note_off_c, 6, 53, 64
12, 10280, Note_on_c, 6, 52, 90
12, 10296, Note_off_c, 6, 52, 64
12, 10296, Note_on_c, 6, 48, 90
12, 10320, Note_off_c, 6, 48, 64
12, 10320, Note_on_c, 6, 47, 90
12, 10344, Note_off_c, 6, 47, 64
12, 10344, Note_on_c, 6, 45, 90
12, 10368, Note_off_c, 6, 45, 64
12, 10368, Note_on_c, 6, 47, 90
12, 10392, Note_off_c, 6, 47, 64
12, 10392, Note_on_c, 6, 46, 90
12, 10416, Note_off_c, 6, 46, 64
12, 10416, Note_on_c, 6, 47, 90
12, 10440, Note_off_c, 6, 47, 64
12, 10440, Note_on_c, 6, 46, 90
12, 10464, Note_off_c, 6, 46, 64
12, 10464, Note_on_c, 6, 48, 90
12, 10472, Note_off_c, 6, 48, 64
12, 10472, Note_on_c, 6, 47, 90
12, 10488, Note_off_c, 6, 47, 64
12, 10488, Note_on_c, 6, 53, 90
12, 10512, Note_off_c, 6, 53, 64
12, 10512, Note_on_c, 6, 52, 90
12, 10536, Note_off_c, 6, 52, 64
12, 10536, Note_on_c, 6, 44, 90
12, 10560, Note_off_c, 6, 44, 64
12, 10560, Note_on_c, 6, 45, 90
12, 10584, Note_off_c, 6, 45, 64
12, 10584, Note_on_c, 6, 44, 90
12, 10608, Note_off_c, 6, 44, 64
12, 10608, Note_on_c, 6, 45, 90
12, 10632, Note_off_c, 6, 45, 64
12, 10632, Note_on_c, 6, 44, 90
12, 10656, Note_off_c, 6, 44, 64
12, 10656, Note_on_c, 6, 45, 90
12, 10704, Note_off_c, 6, 45, 64
12, 10752, Note_on_c, 6, 45, 90
12, 10776, Note_off_c, 6, 45, 64
12, 10776, Note_on_c, 6, 44, 90
12, 10800, Note_off_c, 6, 44, 64
12, 10800, Note_on_c, 6, 45, 90
12, 10824, Note_off_c, 6, 45, 64
12, 10824, Note_on_c, 6, 44, 90
12, 10848, Note_off_c, 6, 44, 64
12, 10848, Note_on_c, 6, 46, 90
12, 10856, Note_off_c, 6, 46, 64
12, 10856, Note_on_c, 6, 45, 90
12, 10872, Note_off_c, 6, 45, 64
12, 10872, Note_on_c, 6, 43, 90
12, 10896, Note_off_c, 6, 43, 64
12, 10896, Note_on_c, 6, 41, 90
12, 10920, Note_off_c, 6, 41, 64
12, 10920, Note_on_c, 6, 40, 90
12, 10944, Note_off_c, 6, 40, 64
12, 10944, Note_on_c, 6, 38, 90
12, 10968, Note_off_c, 6, 38, 64
12, 10968, Note_on_c, 6, 37, 90
12, 10992, Note_off_c, 6, 37, 64
12, 10992, Note_on_c, 6, 38, 90
12, 11016, Note_off_c, 6, 38, 64
12, 11016, Note_on_c, 6, 37, 90
12, 11040, Note_off_c, 6, 37, 64
12, 11040, Note_on_c, 6, 39, 90
12, 11048, Note_off_c, 6, 39, 64
12, 11048, Note_on_c, 6, 38, 90
12, 11064, Note_off_c, 6, 38, 64
12, 11064, Note_on_c, 6, 40, 90
12, 11088, Note_off_c, 6, 40, 64
12, 11088, Note_on_c, 6, 41, 90
12, 11112, Note_off_c, 6, 41, 64
12, 11112, Note_on_c, 6, 38, 90
12, 11136, Note_off_c, 6, 38, 64
12, 11136, Note_on_c, 6, 43, 90
12, 11160, Note_off_c, 6, 43, 64
12, 11160, Note_on_c, 6, 42, 90
12, 11184, Note_off_c, 6, 42, 64
12, 11184, Note_on_c, 6, 43, 90
12, 11208, Note_off_c, 6, 43, 64
12, 11208, Note_on_c, 6, 42, 90
12, 11232, Note_off_c, 6, 42, 64
12, 11232, Note_on_c, 6, 44, 90
12, 11240, Note_off_c, 6, 44, 64
12, 11240, Note_on_c, 6, 43, 90
12, 11256, Note_off_c, 6, 43, 64
12, 11256, Note_on_c, 6, 41, 90
12, 11280, Note_off_c, 6, 41, 64
12, 11280, Note_on_c, 6, 40, 90
12, 11304, Note_off_c, 6, 40, 64
12, 11304, Note_on_c, 6, 38, 90
12, 11328, Note_off_c, 6, 38, 64
12, 11328, Note_on_c, 6, 36, 90
12, 11352, Note_off_c, 6, 36, 64
12, 11352, Note_on_c, 6, 35, 90
12, 11376, Note_off_c, 6, 35, 64
12, 11376, Note_on_c, 6, 36, 90
12, 11400, Note_off_c, 6, 36, 64
12, 11400, Note_on_c, 6, 35, 90
12, 11424, Note_off_c, 6, 35, 64
12, 11424, Note_on_c, 6, 37, 90
12, 11432, Note_off_c, 6, 37, 64
12, 11432, Note_on_c, 6, 36, 90
12, 11448, Note_off_c, 6, 36, 64
12, 11448, Note_on_c, 6, 38, 90
12, 11472, Note_off_c, 6, 38, 64
12, 11472, Note_on_c, 6, 40, 90
12, 11496, Note_off_c, 6, 40, 64
12, 11496, Note_on_c, 6, 36, 90
12, 11520, Note_off_c, 6, 36, 64
12, 11520, Note_on_c, 6, 53, 90
12, 11544, Note_off_c, 6, 53, 64
12, 11544, Note_on_c, 6, 52, 90
12, 11568, Note_off_c, 6, 52, 64
12, 11568, Note_on_c, 6, 53, 90
12, 11592, Note_off_c, 6, 53, 64
12, 11592, Note_on_c, 6, 52, 90
12, 11616, Note_off_c, 6, 52, 64
12, 11616, Note_on_c, 6, 55, 90
12, 11624, Note_off_c, 6, 55, 64
12, 11624, Note_on_c, 6, 53, 90
12, 11640, Note_off_c, 6, 53, 64
12, 11640, Note_on_c, 6, 50, 90
12, 11664, Note_off_c, 6, 50, 64
12, 11664, Note_on_c, 6, 48, 90
12, 11688, Note_off_c, 6, 48, 64
12, 11688, Note_on_c, 6, 47, 90
12, 11712, Note_off_c, 6, 47, 64
12, 11712, Note_on_c, 6, 52, 90
12, 11736, Note_off_c, 6, 52, 64
12, 11736, Note_on_c, 6, 51, 90
12, 11760, Note_off_c, 6, 51, 64
12, 11760, Note_on_c, 6, 52, 90
12, 11784, Note_off_c, 6, 52, 64
12, 11784, Note_on_c, 6, 51, 90
12, 11808, Note_off_c, 6, 51, 64
12, 11808, Note_on_c, 6, 53, 90
12, 11816, Note_off_c, 6, 53, 64
12, 11816, Note_on_c, 6, 52, 90
12, 11832, Note_off_c, 6, 52, 64
12, 11832, Note_on_c, 6, 48, 90
12, 11856, Note_off_c, 6, 48, 64
12, 11856, Note_on_c, 6, 47, 90
12, 11880, Note_off_c, 6, 47, 64
12, 11880, Note_on_c, 6, 45, 90
12, 11904, Note_off_c, 6, 45, 64
12, 11904, Note_on_c, 6, 47, 90
12, 11928, Note_off_c, 6, 47, 64
12, 11928, Note_on_c, 6, 46, 90
12, 11952, Note_off_c, 6, 46, 64
12, 11952, Note_on_c, 6, 47, 90
12, 11976, Note_off_c, 6, 47, 64
12, 11976, Note_on_c, 6, 46, 90
12, 12000, Note_off_c, 6, 46, 64
12, 12000, Note_on_c, 6, 48, 90
12, 12024, Note_off_c, 6, 48, 64
12, 12024, Note_on_c, 6, 47, 90
12, 12048, Note_off_c, 6, 47, 64
12, 12048, Note_on_c, 6, 53, 90
12, 12072, Note_off_c, 6, 53, 64
12, 12072, Note_on_c, 6, 52, 90
12, 12096, Note_off_c, 6, 52, 64
12, 12096, Note_on_c, 6, 45, 90
12, 12120, Note_off_c, 6, 45, 64
12, 12120, Note_on_c, 6, 44, 90
12, 12144, Note_off_c, 6, 44, 64
12, 12144, Note_on_c, 6, 45, 90
12, 12168, Note_off_c, 6, 45, 64
12, 12168, Note_on_c, 6, 44, 90
12, 12192, Note_off_c, 6, 44, 64
12, 12192, Note_on_c, 6, 47, 90
12, 12200, Note_off_c, 6, 47, 64
12, 12200, Note_on_c, 6, 45, 90
12, 12240, Note_off_c, 6, 45, 64
12, 12288, Note_on_c, 6, 76, 90
12, 12312, Note_off_c, 6, 76, 64
12, 12480, Note_on_c, 6, 76, 90
12, 12528, Note_off_c, 6, 76, 64
12, 12672, Note_on_c, 6, 76, 90
12, 12720, Note_off_c, 6, 76, 64
12, 12864, Note_on_c, 6, 76, 90
12, 12912, Note_off_c, 6, 76, 64
12, 13064, Note_on_c, 6, 88, 90
12, 13104, Note_off_c, 6, 88, 64
12, 13256, Note_on_c, 6, 88, 90
12, 13296, Note_off_c, 6, 88, 64
12, 13448, Note_on_c, 6, 88, 90
12, 13488, Note_off_c, 6, 88, 64
12, 13640, Note_on_c, 6, 88, 90
12, 13680, Note_off_c, 6, 88, 64
12, 13824, Note_on_c, 6, 81, 90
12, 13920, Note_off_c, 6, 81, 64
12, 14016, Note_on_c, 6, 57, 90
12, 14064, Note_off_c, 6, 57, 64
12, 14208, Note_on_c, 6, 79, 90
12, 14304, Note_off_c, 6, 79, 64
12, 14400, Note_on_c, 6, 55, 90
12, 14448, Note_off_c, 6, 55, 64
12, 14592, Note_on_c, 6, 65, 90
12, 14640, Note_off_c, 6, 65, 64
12, 14784, Note_on_c, 6, 64, 90
12, 14832, Note_off_c, 6, 64, 64
12, 15024, Note_on_c, 6, 71, 90
12, 15048, Note_off_c, 6, 71, 64
12, 15048, Note_on_c, 6, 74, 90
12, 15072, Note_off_c, 6, 74, 64
12, 15120, Note_on_c, 6, 71, 90
12, 15144, Note_off_c, 6, 71, 64
12, 15144, Note_on_c, 6, 74, 90
12, 15168, Note_off_c, 6, 74, 64
12, 15168, Note_on_c, 6, 72, 90
12, 15192, Note_off_c, 6, 72, 64
12, 15192, Note_on_c, 6, 64, 90
12, 15216, Note_off_c, 6, 64, 64
12, 15264, Note_on_c, 6, 45, 90
12, 15312, Note_off_c, 6, 45, 64
12, 15360, Note_on_c, 6, 81, 90
12, 15552, Note_off_c, 6, 81, 64
12, 15552, Note_on_c, 6, 83, 90
12, 15744, Note_off_c, 6, 83, 64
12, 15744, Note_on_c, 6, 84, 90
12, 15936, Note_off_c, 6, 84, 64
12, 15936, Note_on_c, 6, 86, 90
12, 16128, Note_off_c, 6, 86, 64
12, 16128, Note_on_c, 6, 81, 90
12, 16320, Note_off_c, 6, 81, 64
12, 16320, Note_on_c, 6, 83, 90
12, 16512, Note_off_c, 6, 83, 64
12, 16512, Note_on_c, 6, 84, 90
12, 16704, Note_off_c, 6, 84, 64
12, 16704, Note_on_c, 6, 86, 90
12, 16896, Note_off_c, 6, 86, 64
12, 16896, Note_on_c, 6, 79, 90
12, 16992, Note_off_c, 6, 79, 64
12, 17232, Note_on_c, 6, 86, 90
12, 17280, Note_off_c, 6, 86, 64
12, 17280, Note_on_c, 6, 86, 90
12, 17376, Note_off_c, 6, 86, 64
12, 17616, Note_on_c, 6, 88, 90
12, 17640, Note_off_c, 6, 88, 64
12, 17664, Note_on_c, 6, 89, 90
12, 17784, Note_off_c, 6, 89, 64
12, 17904, Note_on_c, 6, 80, 90
12, 17928, Note_off_c, 6, 80, 64
12, 17952, Note_on_c, 6, 81, 90
12, 17976, Note_off_c, 6, 81, 64
12, 18000, Note_on_c, 6, 85, 90
12, 18024, Note_off_c, 6, 85, 64
12, 18048, Note_on_c, 6, 86, 90
12, 18072, Note_off_c, 6, 86, 64
12, 18144, Note_on_c, 6, 76, 90
12, 18168, Note_off_c, 6, 76, 64
12, 18240, Note_on_c, 6, 81, 90
12, 18336, Note_off_c, 6, 81, 64
12, 18432, Note_on_c, 6, 33, 90
12, 18456, Note_off_c, 6, 33, 64
12, 18480, Note_on_c, 6, 36, 90
12, 18504, Note_off_c, 6, 36, 64
12, 18528, Note_on_c, 6, 35, 90
12, 18552, Note_off_c, 6, 35, 64
12, 18576, Note_on_c, 6, 33, 90
12, 18600, Note_off_c, 6, 33, 64
12, 18648, Note_on_c, 6, 76, 90
12, 18696, Note_off_c, 6, 76, 64
12, 18696, Note_on_c, 6, 79, 90
12, 18744, Note_off_c, 6, 79, 64
12, 18744, Note_on_c, 6, 77, 90
12, 18792, Note_off_c, 6, 77, 64
12, 18792, Note_on_c, 6, 76, 90
12, 18816, Note_off_c, 6, 76, 64
12, 18816, Note_on_c, 6, 33, 90
12, 18840, Note_off_c, 6, 33, 64
12, 18864, Note_on_c, 6, 36, 90
12, 18888, Note_off_c, 6, 36, 64
12, 18912, Note_on_c, 6, 35, 90
12, 18936, Note_off_c, 6, 35, 64
12, 18960, Note_on_c, 6, 33, 90
12, 18984, Note_off_c, 6, 33, 64
12, 19008, Note_on_c, 6, 47, 90
12, 19024, Note_off_c, 6, 47, 64
12, 19200, Note_on_c, 6, 33, 90
12, 19224, Note_off_c, 6, 33, 64
12, 19248, Note_on_c, 6, 36, 90
12, 19272, Note_off_c, 6, 36, 64
12, 19296, Note_on_c, 6, 35, 90
12, 19320, Note_off_c, 6, 35, 64
12, 19344, Note_on_c, 6, 33, 90
12, 19368, Note_off_c, 6, 33, 64
12, 19416, Note_on_c, 6, 76, 90
12, 19464, Note_off_c, 6, 76, 64
12, 19464, Note_on_c, 6, 79, 90
12, 19512, Note_off_c, 6, 79, 64
12, 19512, Note_on_c, 6, 77, 90
12, 19560, Note_off_c, 6, 77, 64
12, 19560, Note_on_c, 6, 76, 90
12, 19584, Note_off_c, 6, 76, 64
12, 19584, Note_on_c, 6, 33, 90
12, 19608, Note_off_c, 6, 33, 64
12, 19632, Note_on_c, 6, 36, 90
12, 19656, Note_off_c, 6, 36, 64
12, 19680, Note_on_c, 6, 35, 90
12, 19704, Note_off_c, 6, 35, 64
12, 19728, Note_on_c, 6, 33, 90
12, 19752, Note_off_c, 6, 33, 64
12, 19776, Note_on_c, 6, 47, 90
12, 19792, Note_off_c, 6, 47, 64
12, 19968, Note_on_c, 6, 52, 90
12, 20016, Note_off_c, 6, 52, 64
12, 20016, Note_on_c, 6, 55, 90
12, 20064, Note_off_c, 6, 55, 64
12, 20064, Note_on_c, 6, 53, 90
12, 20112, Note_off_c, 6, 53, 64
12, 20112, Note_on_c, 6, 52, 90
12, 20160, Note_off_c, 6, 52, 64
12, 20160, Note_on_c, 6, 38, 90
12, 20176, Note_off_c, 6, 38, 64
12, 20184, Note_on_c, 6, 58, 90
12, 20200, Note_off_c, 6, 58, 64
12, 20208, Note_on_c, 6, 62, 90
12, 20224, Note_off_c, 6, 62, 64
12, 20232, Note_on_c, 6, 70, 90
12, 20248, Note_off_c, 6, 70, 64
12, 20256, Note_on_c, 6, 74, 90
12, 20272, Note_off_c, 6, 74, 64
12, 20280, Note_on_c, 6, 82, 90
12, 20296, Note_off_c, 6, 82, 64
12, 20304, Note_on_c, 6, 86, 90
12, 20320, Note_off_c, 6, 86, 64
12, 20352, Note_on_c, 6, 50, 90
12, 20400, Note_off_c, 6, 50, 64
12, 20400, Note_on_c, 6, 53, 90
12, 20448, Note_off_c, 6, 53, 64
12, 20448, Note_on_c, 6, 52, 90
12, 20496, Note_off_c, 6, 52, 64
12, 20496, Note_on_c, 6, 50, 90
12, 20544, Note_off_c, 6, 50, 64
12, 20544, Note_on_c, 6, 36, 90
12, 20560, Note_off_c, 6, 36, 64
12, 20568, Note_on_c, 6, 56, 90
12, 20584, Note_off_c, 6, 56, 64
12, 20592, Note_on_c, 6, 60, 90
12, 20608, Note_off_c, 6, 60, 64
12, 20616, Note_on_c, 6, 68, 90
12, 20632, Note_off_c, 6, 68, 64
12, 20640, Note_on_c, 6, 72, 90
12, 20656, Note_off_c, 6, 72, 64
12, 20664, Note_on_c, 6, 80, 90
12, 20680, Note_off_c, 6, 80, 64
12, 20688, Note_on_c, 6, 84, 90
12, 20704, Note_off_c, 6, 84, 64
12, 20736, Note_on_c, 6, 41, 90
12, 20760, Note_off_c, 6, 41, 64
12, 20760, Note_on_c, 6, 62, 90
12, 20784, Note_off_c, 6, 62, 64
12, 20784, Note_on_c, 6, 62, 90
12, 20808, Note_off_c, 6, 62, 64
12, 20808, Note_on_c, 6, 35, 90
12, 20832, Note_off_c, 6, 35, 64
12, 20832, Note_on_c, 6, 39, 90
12, 20856, Note_off_c, 6, 39, 64
12, 20856, Note_on_c, 6, 60, 90
12, 20880, Note_off_c, 6, 60, 64
12, 20880, Note_on_c, 6, 60, 90
12, 20904, Note_off_c, 6, 60, 64
12, 20904, Note_on_c, 6, 33, 90
12, 20928, Note_off_c, 6, 33, 64
12, 20928, Note_on_c, 6, 37, 90
12, 20952, Note_off_c, 6, 37, 64
12, 20952, Note_on_c, 6, 58, 90
12, 20976, Note_off_c, 6, 58, 64
12, 20976, Note_on_c, 6, 58, 90
12, 21000, Note_off_c, 6, 58, 64
12, 21000, Note_on_c, 6, 31, 90
12, 21024, Note_off_c, 6, 31, 64
12, 21024, Note_on_c, 6, 35, 90
12, 21048, Note_off_c, 6, 35, 64
12, 21048, Note_on_c, 6, 56, 90
12, 21072, Note_off_c, 6, 56, 64
12, 21072, Note_on_c, 6, 56, 90
12, 21096, Note_off_c, 6, 56, 64
12, 21096, Note_on_c, 6, 29, 90
12, 21120, Note_off_c, 6, 29, 64
12, 21120, Note_on_c, 6, 35, 90
12, 21144, Note_off_c, 6, 35, 64
12, 21144, Note_on_c, 6, 57, 90
12, 21168, Note_off_c, 6, 57, 64
12, 21168, Note_on_c, 6, 57, 90
12, 21192, Note_off_c, 6, 57, 64
12, 21192, Note_on_c, 6, 29, 90
12, 21216, Note_off_c, 6, 29, 64
12, 21216, Note_on_c, 6, 35, 90
12, 21240, Note_off_c, 6, 35, 64
12, 21240, Note_on_c, 6, 57, 90
12, 21264, Note_off_c, 6, 57, 64
12, 21264, Note_on_c, 6, 57, 90
12, 21288, Note_off_c, 6, 57, 64
12, 21360, Note_on_c, 6, 71, 90
12, 21408, Note_off_c, 6, 71, 64
12, 21456, Note_on_c, 6, 76, 90
12, 21504, Note_off_c, 6, 76, 64
12, 21504, Note_on_c, 6, 40, 90
12, 21528, Note_off_c, 6, 40, 64
12, 21696, Note_on_c, 6, 40, 90
12, 21720, Note_off_c, 6, 40, 64
12, 21888, Note_on_c, 6, 45, 90
12, 21912, Note_off_c, 6, 45, 64
12, 22272, Note_on_c, 6, 40, 90
12, 22296, Note_off_c, 6, 40, 64
12, 22464, Note_on_c, 6, 40, 90
12, 22488, Note_off_c, 6, 40, 64
12, 22656, Note_on_c, 6, 45, 90
12, 22680, Note_off_c, 6, 45, 64
12, 22680, End_track
13, 0, Start_track
13, 0, MIDI_port, 0
13, 0, Title_t, "Bowed Bass          "
13, 0, Program_c, 7, 35
13, 0, Note_on_c, 7, 45, 90
13, 48, Note_off_c, 7, 45, 64
13, 192, Note_on_c, 7, 52, 90
13, 240, Note_off_c, 7, 52, 64
13, 384, Note_on_c, 7, 45, 90
13, 432, Note_off_c, 7, 45, 64
13, 576, Note_on_c, 7, 52, 90
13, 624, Note_off_c, 7, 52, 64
13, 768, Note_on_c, 7, 45, 90
13, 816, Note_off_c, 7, 45, 64
13, 960, Note_on_c, 7, 52, 90
13, 1008, Note_off_c, 7, 52, 64
13, 1152, Note_on_c, 7, 45, 90
13, 1200, Note_off_c, 7, 45, 64
13, 1344, Note_on_c, 7, 52, 90
13, 1392, Note_off_c, 7, 52, 64
13, 1536, Note_on_c, 7, 45, 90
13, 1584, Note_off_c, 7, 45, 64
13, 1728, Note_on_c, 7, 50, 90
13, 1776, Note_off_c, 7, 50, 64
13, 1920, Note_on_c, 7, 43, 90
13, 1968, Note_off_c, 7, 43, 64
13, 2112, Note_on_c, 7, 48, 90
13, 2160, Note_off_c, 7, 48, 64
13, 2304, Note_on_c, 7, 50, 90
13, 2352, Note_off_c, 7, 50, 64
13, 2496, Note_on_c, 7, 52, 90
13, 2544, Note_off_c, 7, 52, 64
13, 2688, Note_on_c, 7, 53, 90
13, 2760, Note_off_c, 7, 53, 64
13, 2760, Note_on_c, 7, 63, 90
13, 2784, Note_off_c, 7, 63, 64
13, 2784, Note_on_c, 7, 52, 90
13, 2880, Note_off_c, 7, 52, 64
13, 2880, Note_on_c, 7, 57, 90
13, 2976, Note_off_c, 7, 57, 64
13, 2976, Note_on_c, 7, 45, 90
13, 3024, Note_off_c, 7, 45, 64
13, 3072, Note_on_c, 7, 45, 90
13, 3120, Note_off_c, 7, 45, 64
13, 3168, Note_on_c, 7, 61, 90
13, 3216, Note_off_c, 7, 61, 64
13, 3264, Note_on_c, 7, 50, 90
13, 3312, Note_off_c, 7, 50, 64
13, 3360, Note_on_c, 7, 62, 90
13, 3408, Note_off_c, 7, 62, 64
13, 3456, Note_on_c, 7, 43, 90
13, 3504, Note_off_c, 7, 43, 64
13, 3552, Note_on_c, 7, 59, 90
13, 3600, Note_off_c, 7, 59, 64
13, 3648, Note_on_c, 7, 48, 90
13, 3696, Note_off_c, 7, 48, 64
13, 3744, Note_on_c, 7, 60, 90
13, 3792, Note_off_c, 7, 60, 64
13, 3840, Note_on_c, 7, 50, 90
13, 3888, Note_off_c, 7, 50, 64
13, 3936, Note_on_c, 7, 62, 90
13, 3984, Note_off_c, 7, 62, 64
13, 4032, Note_on_c, 7, 52, 90
13, 4080, Note_off_c, 7, 52, 64
13, 4128, Note_on_c, 7, 60, 90
13, 4176, Note_off_c, 7, 60, 64
13, 4224, Note_on_c, 7, 41, 90
13, 4320, Note_off_c, 7, 41, 64
13, 4320, Note_on_c, 7, 40, 90
13, 4416, Note_off_c, 7, 40, 64
13, 4416, Note_on_c, 7, 45, 90
13, 4512, Note_off_c, 7, 45, 64
13, 4512, Note_on_c, 7, 33, 90
13, 4560, Note_off_c, 7, 33, 64
13, 4608, Note_on_c, 7, 81, 90
13, 4616, Note_off_c, 7, 81, 64
13, 4616, Note_on_c, 7, 84, 90
13, 4624, Note_off_c, 7, 84, 64
13, 4624, Note_on_c, 7, 88, 90
13, 4640, Note_off_c, 7, 88, 64
13, 4640, Note_on_c, 7, 84, 90
13, 4672, Note_off_c, 7, 84, 64
13, 4672, Note_on_c, 7, 81, 90
13, 4704, Note_off_c, 7, 81, 64
13, 4704, Note_on_c, 7, 76, 90
13, 4736, Note_off_c, 7, 76, 64
13, 4736, Note_on_c, 7, 72, 90
13, 4768, Note_off_c, 7, 72, 64
13, 4768, Note_on_c, 7, 69, 90
13, 4800, Note_off_c, 7, 69, 64
13, 4800, Note_on_c, 7, 76, 90
13, 4808, Note_off_c, 7, 76, 64
13, 4808, Note_on_c, 7, 80, 90
13, 4816, Note_off_c, 7, 80, 64
13, 4816, Note_on_c, 7, 83, 90
13, 4832, Note_off_c, 7, 83, 64
13, 4832, Note_on_c, 7, 80, 90
13, 4864, Note_off_c, 7, 80, 64
13, 4864, Note_on_c, 7, 76, 90
13, 4896, Note_off_c, 7, 76, 64
13, 4896, Note_on_c, 7, 71, 90
13, 4928, Note_off_c, 7, 71, 64
13, 4928, Note_on_c, 7, 68, 90
13, 4960, Note_off_c, 7, 68, 64
13, 4960, Note_on_c, 7, 64, 90
13, 4992, Note_off_c, 7, 64, 64
13, 4992, Note_on_c, 7, 81, 90
13, 5000, Note_off_c, 7, 81, 64
13, 5000, Note_on_c, 7, 84, 90
13, 5008, Note_off_c, 7, 84, 64
13, 5008, Note_on_c, 7, 88, 90
13, 5024, Note_off_c, 7, 88, 64
13, 5024, Note_on_c, 7, 84, 90
13, 5056, Note_off_c, 7, 84, 64
13, 5056, Note_on_c, 7, 81, 90
13, 5088, Note_off_c, 7, 81, 64
13, 5088, Note_on_c, 7, 76, 90
13, 5120, Note_off_c, 7, 76, 64
13, 5120, Note_on_c, 7, 72, 90
13, 5152, Note_off_c, 7, 72, 64
13, 5152, Note_on_c, 7, 69, 90
13, 5184, Note_off_c, 7, 69, 64
13, 5216, Note_on_c, 7, 76, 90
13, 5248, Note_off_c, 7, 76, 64
13, 5248, Note_on_c, 7, 80, 90
13, 5280, Note_off_c, 7, 80, 64
13, 5280, Note_on_c, 7, 88, 90
13, 5328, Note_off_c, 7, 88, 64
13, 5376, Note_on_c, 7, 81, 90
13, 5384, Note_off_c, 7, 81, 64
13, 5384, Note_on_c, 7, 84, 90
13, 5392, Note_off_c, 7, 84, 64
13, 5392, Note_on_c, 7, 88, 90
13, 5408, Note_off_c, 7, 88, 64
13, 5408, Note_on_c, 7, 84, 90
13, 5440, Note_off_c, 7, 84, 64
13, 5440, Note_on_c, 7, 81, 90
13, 5472, Note_off_c, 7, 81, 64
13, 5472, Note_on_c, 7, 76, 90
13, 5504, Note_off_c, 7, 76, 64
13, 5504, Note_on_c, 7, 72, 90
13, 5536, Note_off_c, 7, 72, 64
13, 5536, Note_on_c, 7, 69, 90
13, 5568, Note_off_c, 7, 69, 64
13, 5568, Note_on_c, 7, 76, 90
13, 5576, Note_off_c, 7, 76, 64
13, 5576, Note_on_c, 7, 80, 90
13, 5584, Note_off_c, 7, 80, 64
13, 5584, Note_on_c, 7, 83, 90
13, 5600, Note_off_c, 7, 83, 64
13, 5600, Note_on_c, 7, 80, 90
13, 5632, Note_off_c, 7, 80, 64
13, 5632, Note_on_c, 7, 76, 90
13, 5664, Note_off_c, 7, 76, 64
13, 5664, Note_on_c, 7, 71, 90
13, 5696, Note_off_c, 7, 71, 64
13, 5696, Note_on_c, 7, 68, 90
13, 5728, Note_off_c, 7, 68, 64
13, 5728, Note_on_c, 7, 64, 90
13, 5760, Note_off_c, 7, 64, 64
13, 5760, Note_on_c, 7, 81, 90
13, 5768, Note_off_c, 7, 81, 64
13, 5768, Note_on_c, 7, 84, 90
13, 5776, Note_off_c, 7, 84, 64
13, 5776, Note_on_c, 7, 88, 90
13, 5792, Note_off_c, 7, 88, 64
13, 5792, Note_on_c, 7, 84, 90
13, 5824, Note_off_c, 7, 84, 64
13, 5824, Note_on_c, 7, 81, 90
13, 5856, Note_off_c, 7, 81, 64
13, 5856, Note_on_c, 7, 76, 90
13, 5888, Note_off_c, 7, 76, 64
13, 5888, Note_on_c, 7, 72, 90
13, 5920, Note_off_c, 7, 72, 64
13, 5920, Note_on_c, 7, 69, 90
13, 5952, Note_off_c, 7, 69, 64
13, 5984, Note_on_c, 7, 76, 90
13, 6016, Note_off_c, 7, 76, 64
13, 6016, Note_on_c, 7, 80, 90
13, 6048, Note_off_c, 7, 80, 64
13, 6048, Note_on_c, 7, 88, 90
13, 6096, Note_off_c, 7, 88, 64
13, 6144, Note_on_c, 7, 85, 90
13, 6152, Note_off_c, 7, 85, 64
13, 6152, Note_on_c, 7, 88, 90
13, 6160, Note_off_c, 7, 88, 64
13, 6160, Note_on_c, 7, 93, 90
13, 6168, Note_off_c, 7, 93, 64
13, 6176, Note_on_c, 7, 88, 90
13, 6192, Note_off_c, 7, 88, 64
13, 6208, Note_on_c, 7, 85, 90
13, 6224, Note_off_c, 7, 85, 64
13, 6240, Note_on_c, 7, 81, 90
13, 6256, Note_off_c, 7, 81, 64
13, 6272, Note_on_c, 7, 76, 90
13, 6288, Note_off_c, 7, 76, 64
13, 6304, Note_on_c, 7, 73, 90
13, 6320, Note_off_c, 7, 73, 64
13, 6368, Note_on_c, 7, 74, 90
13, 6384, Note_off_c, 7, 74, 64
13, 6400, Note_on_c, 7, 77, 90
13, 6416, Note_off_c, 7, 77, 64
13, 6432, Note_on_c, 7, 81, 90
13, 6448, Note_off_c, 7, 81, 64
13, 6464, Note_on_c, 7, 86, 90
13, 6480, Note_off_c, 7, 86, 64
13, 6496, Note_on_c, 7, 89, 90
13, 6512, Note_off_c, 7, 89, 64
13, 6528, Note_on_c, 7, 91, 90
13, 6544, Note_off_c, 7, 91, 64
13, 6560, Note_on_c, 7, 86, 90
13, 6576, Note_off_c, 7, 86, 64
13, 6592, Note_on_c, 7, 83, 90
13, 6608, Note_off_c, 7, 83, 64
13, 6624, Note_on_c, 7, 79, 90
13, 6640, Note_off_c, 7, 79, 64
13, 6656, Note_on_c, 7, 74, 90
13, 6672, Note_off_c, 7, 74, 64
13, 6688, Note_on_c, 7, 71, 90
13, 6704, Note_off_c, 7, 71, 64
13, 6752, Note_on_c, 7, 72, 90
13, 6768, Note_off_c, 7, 72, 64
13, 6784, Note_on_c, 7, 76, 90
13, 6800, Note_off_c, 7, 76, 64
13, 6816, Note_on_c, 7, 79, 90
13, 6832, Note_off_c, 7, 79, 64
13, 6848, Note_on_c, 7, 84, 90
13, 6864, Note_off_c, 7, 84, 64
13, 6880, Note_on_c, 7, 88, 90
13, 6896, Note_off_c, 7, 88, 64
13, 6912, Note_on_c, 7, 89, 90
13, 6928, Note_off_c, 7, 89, 64
13, 6944, Note_on_c, 7, 86, 90
13, 6960, Note_off_c, 7, 86, 64
13, 6976, Note_on_c, 7, 83, 90
13, 6992, Note_off_c, 7, 83, 64
13, 7008, Note_on_c, 7, 79, 90
13, 7024, Note_off_c, 7, 79, 64
13, 7040, Note_on_c, 7, 77, 90
13, 7056, Note_off_c, 7, 77, 64
13, 7072, Note_on_c, 7, 74, 90
13, 7088, Note_off_c, 7, 74, 64
13, 7104, Note_on_c, 7, 88, 90
13, 7120, Note_off_c, 7, 88, 64
13, 7136, Note_on_c, 7, 84, 90
13, 7152, Note_off_c, 7, 84, 64
13, 7168, Note_on_c, 7, 81, 90
13, 7184, Note_off_c, 7, 81, 64
13, 7200, Note_on_c, 7, 76, 90
13, 7216, Note_off_c, 7, 76, 64
13, 7232, Note_on_c, 7, 72, 90
13, 7248, Note_off_c, 7, 72, 64
13, 7264, Note_on_c, 7, 69, 90
13, 7280, Note_off_c, 7, 69, 64
13, 7296, Note_on_c, 7, 71, 90
13, 7312, Note_off_c, 7, 71, 64
13, 7328, Note_on_c, 7, 74, 90
13, 7344, Note_off_c, 7, 74, 64
13, 7360, Note_on_c, 7, 77, 90
13, 7376, Note_off_c, 7, 77, 64
13, 7392, Note_on_c, 7, 76, 90
13, 7408, Note_off_c, 7, 76, 64
13, 7424, Note_on_c, 7, 80, 90
13, 7440, Note_off_c, 7, 80, 64
13, 7456, Note_on_c, 7, 83, 90
13, 7472, Note_off_c, 7, 83, 64
13, 7488, Note_on_c, 7, 81, 90
13, 7504, Note_off_c, 7, 81, 64
13, 7520, Note_on_c, 7, 84, 90
13, 7536, Note_off_c, 7, 84, 64
13, 7552, Note_on_c, 7, 88, 90
13, 7568, Note_off_c, 7, 88, 64
13, 7584, Note_on_c, 7, 93, 90
13, 7600, Note_off_c, 7, 93, 64
13, 7680, Note_on_c, 7, 45, 90
13, 7704, Note_off_c, 7, 45, 64
13, 7704, Note_on_c, 7, 44, 90
13, 7728, Note_off_c, 7, 44, 64
13, 7728, Note_on_c, 7, 45, 90
13, 7752, Note_off_c, 7, 45, 64
13, 7752, Note_on_c, 7, 44, 90
13, 7776, Note_off_c, 7, 44, 64
13, 7776, Note_on_c, 7, 46, 90
13, 7784, Note_off_c, 7, 46, 64
13, 7784, Note_on_c, 7, 45, 90
13, 7800, Note_off_c, 7, 45, 64
13, 7800, Note_on_c, 7, 47, 90
13, 7824, Note_off_c, 7, 47, 64
13, 7824, Note_on_c, 7, 48, 90
13, 7848, Note_off_c, 7, 48, 64
13, 7848, Note_on_c, 7, 50, 90
13, 7872, Note_off_c, 7, 50, 64
13, 7872, Note_on_c, 7, 47, 90
13, 7896, Note_off_c, 7, 47, 64
13, 7896, Note_on_c, 7, 51, 90
13, 7920, Note_off_c, 7, 51, 64
13, 7920, Note_on_c, 7, 47, 90
13, 7944, Note_off_c, 7, 47, 64
13, 7944, Note_on_c, 7, 51, 90
13, 7968, Note_off_c, 7, 51, 64
13, 7968, Note_on_c, 7, 53, 90
13, 7976, Note_off_c, 7, 53, 64
13, 7976, Note_on_c, 7, 52, 90
13, 7992, Note_off_c, 7, 52, 64
13, 7992, Note_on_c, 7, 50, 90
13, 8016, Note_off_c, 7, 50, 64
13, 8016, Note_on_c, 7, 48, 90
13, 8040, Note_off_c, 7, 48, 64
13, 8040, Note_on_c, 7, 47, 90
13, 8064, Note_off_c, 7, 47, 64
13, 8064, Note_on_c, 7, 45, 90
13, 8088, Note_off_c, 7, 45, 64
13, 8088, Note_on_c, 7, 44, 90
13, 8112, Note_off_c, 7, 44, 64
13, 8112, Note_on_c, 7, 45, 90
13, 8136, Note_off_c, 7, 45, 64
13, 8136, Note_on_c, 7, 44, 90
13, 8160, Note_off_c, 7, 44, 64
13, 8160, Note_on_c, 7, 46, 90
13, 8168, Note_off_c, 7, 46, 64
13, 8168, Note_on_c, 7, 45, 90
13, 8184, Note_off_c, 7, 45, 64
13, 8184, Note_on_c, 7, 47, 90
13, 8208, Note_off_c, 7, 47, 64
13, 8208, Note_on_c, 7, 48, 90
13, 8232, Note_off_c, 7, 48, 64
13, 8232, Note_on_c, 7, 50, 90
13, 8256, Note_off_c, 7, 50, 64
13, 8256, Note_on_c, 7, 47, 90
13, 8280, Note_off_c, 7, 47, 64
13, 8280, Note_on_c, 7, 51, 90
13, 8304, Note_off_c, 7, 51, 64
13, 8304, Note_on_c, 7, 47, 90
13, 8328, Note_off_c, 7, 47, 64
13, 8328, Note_on_c, 7, 51, 90
13, 8352, Note_off_c, 7, 51, 64
13, 8352, Note_on_c, 7, 53, 90
13, 8360, Note_off_c, 7, 53, 64
13, 8360, Note_on_c, 7, 52, 90
13, 8400, Note_off_c, 7, 52, 64
13, 8400, Note_on_c, 7, 40, 90
13, 8448, Note_off_c, 7, 40, 64
13, 8448, Note_on_c, 7, 45, 90
13, 8472, Note_off_c, 7, 45, 64
13, 8472, Note_on_c, 7, 44, 90
13, 8496, Note_off_c, 7, 44, 64
13, 8496, Note_on_c, 7, 45, 90
13, 8520, Note_off_c, 7, 45, 64
13, 8520, Note_on_c, 7, 44, 90
13, 8544, Note_off_c, 7, 44, 64
13, 8544, Note_on_c, 7, 46, 90
13, 8552, Note_off_c, 7, 46, 64
13, 8552, Note_on_c, 7, 45, 90
13, 8568, Note_off_c, 7, 45, 64
13, 8568, Note_on_c, 7, 47, 90
13, 8592, Note_off_c, 7, 47, 64
13, 8592, Note_on_c, 7, 48, 90
13, 8616, Note_off_c, 7, 48, 64
13, 8616, Note_on_c, 7, 50, 90
13, 8640, Note_off_c, 7, 50, 64
13, 8640, Note_on_c, 7, 52, 90
13, 8664, Note_off_c, 7, 52, 64
13, 8664, Note_on_c, 7, 51, 90
13, 8688, Note_off_c, 7, 51, 64
13, 8688, Note_on_c, 7, 52, 90
13, 8712, Note_off_c, 7, 52, 64
13, 8712, Note_on_c, 7, 51, 90
13, 8736, Note_off_c, 7, 51, 64
13, 8736, Note_on_c, 7, 53, 90
13, 8744, Note_off_c, 7, 53, 64
13, 8744, Note_on_c, 7, 52, 90
13, 8760, Note_off_c, 7, 52, 64
13, 8760, Note_on_c, 7, 50, 90
13, 8784, Note_off_c, 7, 50, 64
13, 8784, Note_on_c, 7, 48, 90
13, 8808, Note_off_c, 7, 48, 64
13, 8808, Note_on_c, 7, 47, 90
13, 8832, Note_off_c, 7, 47, 64
13, 8832, Note_on_c, 7, 45, 90
13, 8856, Note_off_c, 7, 45, 64
13, 8856, Note_on_c, 7, 44, 90
13, 8880, Note_off_c, 7, 44, 64
13, 8880, Note_on_c, 7, 45, 90
13, 8904, Note_off_c, 7, 45, 64
13, 8904, Note_on_c, 7, 44, 90
13, 8928, Note_off_c, 7, 44, 64
13, 8928, Note_on_c, 7, 46, 90
13, 8936, Note_off_c, 7, 46, 64
13, 8936, Note_on_c, 7, 45, 90
13, 8952, Note_off_c, 7, 45, 64
13, 8952, Note_on_c, 7, 47, 90
13, 8976, Note_off_c, 7, 47, 64
13, 8976, Note_on_c, 7, 48, 90
13, 9000, Note_off_c, 7, 48, 64
13, 9000, Note_on_c, 7, 50, 90
13, 9024, Note_off_c, 7, 50, 64
13, 9024, Note_on_c, 7, 52, 90
13, 9048, Note_off_c, 7, 52, 64
13, 9048, Note_on_c, 7, 51, 90
13, 9072, Note_off_c, 7, 51, 64
13, 9072, Note_on_c, 7, 52, 90
13, 9096, Note_off_c, 7, 52, 64
13, 9096, Note_on_c, 7, 51, 90
13, 9120, Note_off_c, 7, 51, 64
13, 9120, Note_on_c, 7, 53, 90
13, 9128, Note_off_c, 7, 53, 64
13, 9128, Note_on_c, 7, 52, 90
13, 9168, Note_off_c, 7, 52, 64
13, 9168, Note_on_c, 7, 40, 90
13, 9216, Note_off_c, 7, 40, 64
13, 9216, Note_on_c, 7, 45, 90
13, 9240, Note_off_c, 7, 45, 64
13, 9240, Note_on_c, 7, 44, 90
13, 9264, Note_off_c, 7, 44, 64
13, 9264, Note_on_c, 7, 45, 90
13, 9288, Note_off_c, 7, 45, 64
13, 9288, Note_on_c, 7, 44, 90
13, 9312, Note_off_c, 7, 44, 64
13, 9312, Note_on_c, 7, 46, 90
13, 9320, Note_off_c, 7, 46, 64
13, 9320, Note_on_c, 7, 45, 90
13, 9336, Note_off_c, 7, 45, 64
13, 9336, Note_on_c, 7, 43, 90
13, 9360, Note_off_c, 7, 43, 64
13, 9360, Note_on_c, 7, 41, 90
13, 9384, Note_off_c, 7, 41, 64
13, 9384, Note_on_c, 7, 40, 90
13, 9408, Note_off_c, 7, 40, 64
13, 9408, Note_on_c, 7, 38, 90
13, 9432, Note_off_c, 7, 38, 64
13, 9432, Note_on_c, 7, 37, 90
13, 9456, Note_off_c, 7, 37, 64
13, 9456, Note_on_c, 7, 38, 90
13, 9480, Note_off_c, 7, 38, 64
13, 9480, Note_on_c, 7, 37, 90
13, 9504, Note_off_c, 7, 37, 64
13, 9504, Note_on_c, 7, 39, 90
13, 9512, Note_off_c, 7, 39, 64
13, 9512, Note_on_c, 7, 38, 90
13, 9528, Note_off_c, 7, 38, 64
13, 9528, Note_on_c, 7, 40, 90
13, 9552, Note_off_c, 7, 40, 64
13, 9552, Note_on_c, 7, 41, 90
13, 9576, Note_off_c, 7, 41, 64
13, 9576, Note_on_c, 7, 38, 90
13, 9600, Note_off_c, 7, 38, 64
13, 9600, Note_on_c, 7, 43, 90
13, 9624, Note_off_c, 7, 43, 64
13, 9624, Note_on_c, 7, 42, 90
13, 9648, Note_off_c, 7, 42, 64
13, 9648, Note_on_c, 7, 43, 90
13, 9672, Note_off_c, 7, 43, 64
13, 9672, Note_on_c, 7, 42, 90
13, 9696, Note_off_c, 7, 42, 64
13, 9696, Note_on_c, 7, 44, 90
13, 9704, Note_off_c, 7, 44, 64
13, 9704, Note_on_c, 7, 43, 90
13, 9720, Note_off_c, 7, 43, 64
13, 9720, Note_on_c, 7, 41, 90
13, 9744, Note_off_c, 7, 41, 64
13, 9744, Note_on_c, 7, 40, 90
13, 9768, Note_off_c, 7, 40, 64
13, 9768, Note_on_c, 7, 38, 90
13, 9792, Note_off_c, 7, 38, 64
13, 9792, Note_on_c, 7, 36, 90
13, 9816, Note_off_c, 7, 36, 64
13, 9816, Note_on_c, 7, 35, 90
13, 9840, Note_off_c, 7, 35, 64
13, 9840, Note_on_c, 7, 36, 90
13, 9864, Note_off_c, 7, 36, 64
13, 9864, Note_on_c, 7, 35, 90
13, 9888, Note_off_c, 7, 35, 64
13, 9888, Note_on_c, 7, 37, 90
13, 9896, Note_off_c, 7, 37, 64
13, 9896, Note_on_c, 7, 36, 90
13, 9912, Note_off_c, 7, 36, 64
13, 9912, Note_on_c, 7, 38, 90
13, 9936, Note_off_c, 7, 38, 64
13, 9936, Note_on_c, 7, 40, 90
13, 9960, Note_off_c, 7, 40, 64
13, 9960, Note_on_c, 7, 36, 90
13, 9984, Note_off_c, 7, 36, 64
13, 9984, Note_on_c, 7, 47, 90
13, 10008, Note_off_c, 7, 47, 64
13, 10008, Note_on_c, 7, 52, 90
13, 10032, Note_off_c, 7, 52, 64
13, 10032, Note_on_c, 7, 47, 90
13, 10056, Note_off_c, 7, 47, 64
13, 10056, Note_on_c, 7, 52, 90
13, 10080, Note_off_c, 7, 52, 64
13, 10080, Note_on_c, 7, 55, 90
13, 10088, Note_off_c, 7, 55, 64
13, 10088, Note_on_c, 7, 53, 90
13, 10104, Note_off_c, 7, 53, 64
13, 10104, Note_on_c, 7, 50, 90
13, 10128, Note_off_c, 7, 50, 64
13, 10128, Note_on_c, 7, 48, 90
13, 10152, Note_off_c, 7, 48, 64
13, 10152, Note_on_c, 7, 47, 90
13, 10176, Note_off_c, 7, 47, 64
13, 10176, Note_on_c, 7, 45, 90
13, 10200, Note_off_c, 7, 45, 64
13, 10200, Note_on_c, 7, 51, 90
13, 10224, Note_off_c, 7, 51, 64
13, 10224, Note_on_c, 7, 45, 90
13, 10248, Note_off_c, 7, 45, 64
13, 10248, Note_on_c, 7, 51, 90
13, 10272, Note_off_c, 7, 51, 64
13, 10272, Note_on_c, 7, 53, 90
13, 10280, Note_off_c, 7, 53, 64
13, 10280, Note_on_c, 7, 52, 90
13, 10296, Note_off_c, 7, 52, 64
13, 10296, Note_on_c, 7, 48, 90
13, 10320, Note_off_c, 7, 48, 64
13, 10320, Note_on_c, 7, 47, 90
13, 10344, Note_off_c, 7, 47, 64
13, 10344, Note_on_c, 7, 45, 90
13, 10368, Note_off_c, 7, 45, 64
13, 10368, Note_on_c, 7, 47, 90
13, 10392, Note_off_c, 7, 47, 64
13, 10392, Note_on_c, 7, 46, 90
13, 10416, Note_off_c, 7, 46, 64
13, 10416, Note_on_c, 7, 47, 90
13, 10440, Note_off_c, 7, 47, 64
13, 10440, Note_on_c, 7, 46, 90
13, 10464, Note_off_c, 7, 46, 64
13, 10464, Note_on_c, 7, 48, 90
13, 10472, Note_off_c, 7, 48, 64
13, 10472, Note_on_c, 7, 47, 90
13, 10488, Note_off_c, 7, 47, 64
13, 10488, Note_on_c, 7, 53, 90
13, 10512, Note_off_c, 7, 53, 64
13, 10512, Note_on_c, 7, 52, 90
13, 10536, Note_off_c, 7, 52, 64
13, 10536, Note_on_c, 7, 44, 90
13, 10560, Note_off_c, 7, 44, 64
13, 10560, Note_on_c, 7, 45, 90
13, 10584, Note_off_c, 7, 45, 64
13, 10584, Note_on_c, 7, 44, 90
13, 10608, Note_off_c, 7, 44, 64
13, 10608, Note_on_c, 7, 45, 90
13, 10632, Note_off_c, 7, 45, 64
13, 10632, Note_on_c, 7, 44, 90
13, 10656, Note_off_c, 7, 44, 64
13, 10656, Note_on_c, 7, 45, 90
13, 10704, Note_off_c, 7, 45, 64
13, 10752, Note_on_c, 7, 45, 90
13, 10776, Note_off_c, 7, 45, 64
13, 10776, Note_on_c, 7, 44, 90
13, 10800, Note_off_c, 7, 44, 64
13, 10800, Note_on_c, 7, 45, 90
13, 10824, Note_off_c, 7, 45, 64
13, 10824, Note_on_c, 7, 44, 90
13, 10848, Note_off_c, 7, 44, 64
13, 10848, Note_on_c, 7, 46, 90
13, 10856, Note_off_c, 7, 46, 64
13, 10856, Note_on_c, 7, 45, 90
13, 10872, Note_off_c, 7, 45, 64
13, 10872, Note_on_c, 7, 43, 90
13, 10896, Note_off_c, 7, 43, 64
13, 10896, Note_on_c, 7, 41, 90
13, 10920, Note_off_c, 7, 41, 64
13, 10920, Note_on_c, 7, 40, 90
13, 10944, Note_off_c, 7, 40, 64
13, 10944, Note_on_c, 7, 38, 90
13, 10968, Note_off_c, 7, 38, 64
13, 10968, Note_on_c, 7, 37, 90
13, 10992, Note_off_c, 7, 37, 64
13, 10992, Note_on_c, 7, 38, 90
13, 11016, Note_off_c, 7, 38, 64
13, 11016, Note_on_c, 7, 37, 90
13, 11040, Note_off_c, 7, 37, 64
13, 11040, Note_on_c, 7, 39, 90
13, 11048, Note_off_c, 7, 39, 64
13, 11048, Note_on_c, 7, 38, 90
13, 11064, Note_off_c, 7, 38, 64
13, 11064, Note_on_c, 7, 40, 90
13, 11088, Note_off_c, 7, 40, 64
13, 11088, Note_on_c, 7, 41, 90
13, 11112, Note_off_c, 7, 41, 64
13, 11112, Note_on_c, 7, 38, 90
13, 11136, Note_off_c, 7, 38, 64
13, 11136, Note_on_c, 7, 43, 90
13, 11160, Note_off_c, 7, 43, 64
13, 11160, Note_on_c, 7, 42, 90
13, 11184, Note_off_c, 7, 42, 64
13, 11184, Note_on_c, 7, 43, 90
13, 11208, Note_off_c, 7, 43, 64
13, 11208, Note_on_c, 7, 42, 90
13, 11232, Note_off_c, 7, 42, 64
13, 11232, Note_on_c, 7, 44, 90
13, 11240, Note_off_c, 7, 44, 64
13, 11240, Note_on_c, 7, 43, 90
13, 11256, Note_off_c, 7, 43, 64
13, 11256, Note_on_c, 7, 41, 90
13, 11280, Note_off_c, 7, 41, 64
13, 11280, Note_on_c, 7, 40, 90
13, 11304, Note_off_c, 7, 40, 64
13, 11304, Note_on_c, 7, 38, 90
13, 11328, Note_off_c, 7, 38, 64
13, 11328, Note_on_c, 7, 36, 90
13, 11352, Note_off_c, 7, 36, 64
13, 11352, Note_on_c, 7, 35, 90
13, 11376, Note_off_c, 7, 35, 64
13, 11376, Note_on_c, 7, 36, 90
13, 11400, Note_off_c, 7, 36, 64
13, 11400, Note_on_c, 7, 35, 90
13, 11424, Note_off_c, 7, 35, 64
13, 11424, Note_on_c, 7, 37, 90
13, 11432, Note_off_c, 7, 37, 64
13, 11432, Note_on_c, 7, 36, 90
13, 11448, Note_off_c, 7, 36, 64
13, 11448, Note_on_c, 7, 38, 90
13, 11472, Note_off_c, 7, 38, 64
13, 11472, Note_on_c, 7, 40, 90
13, 11496, Note_off_c, 7, 40, 64
13, 11496, Note_on_c, 7, 36, 90
13, 11520, Note_off_c, 7, 36, 64
13, 11520, Note_on_c, 7, 53, 90
13, 11544, Note_off_c, 7, 53, 64
13, 11544, Note_on_c, 7, 52, 90
13, 11568, Note_off_c, 7, 52, 64
13, 11568, Note_on_c, 7, 53, 90
13, 11592, Note_off_c, 7, 53, 64
13, 11592, Note_on_c, 7, 52, 90
13, 11616, Note_off_c, 7, 52, 64
13, 11616, Note_on_c, 7, 55, 90
13, 11624, Note_off_c, 7, 55, 64
13, 11624, Note_on_c, 7, 53, 90
13, 11640, Note_off_c, 7, 53, 64
13, 11640, Note_on_c, 7, 50, 90
13, 11664, Note_off_c, 7, 50, 64
13, 11664, Note_on_c, 7, 48, 90
13, 11688, Note_off_c, 7, 48, 64
13, 11688, Note_on_c, 7, 47, 90
13, 11712, Note_off_c, 7, 47, 64
13, 11712, Note_on_c, 7, 52, 90
13, 11736, Note_off_c, 7, 52, 64
13, 11736, Note_on_c, 7, 51, 90
13, 11760, Note_off_c, 7, 51, 64
13, 11760, Note_on_c, 7, 52, 90
13, 11784, Note_off_c, 7, 52, 64
13, 11784, Note_on_c, 7, 51, 90
13, 11808, Note_off_c, 7, 51, 64
13, 11808, Note_on_c, 7, 53, 90
13, 11816, Note_off_c, 7, 53, 64
13, 11816, Note_on_c, 7, 52, 90
13, 11832, Note_off_c, 7, 52, 64
13, 11832, Note_on_c, 7, 48, 90
13, 11856, Note_off_c, 7, 48, 64
13, 11856, Note_on_c, 7, 47, 90
13, 11880, Note_off_c, 7, 47, 64
13, 11880, Note_on_c, 7, 45, 90
13, 11904, Note_off_c, 7, 45, 64
13, 11904, Note_on_c, 7, 47, 90
13, 11928, Note_off_c, 7, 47, 64
13, 11928, Note_on_c, 7, 46, 90
13, 11952, Note_off_c, 7, 46, 64
13, 11952, Note_on_c, 7, 47, 90
13, 11976, Note_off_c, 7, 47, 64
13, 11976, Note_on_c, 7, 46, 90
13, 12000, Note_off_c, 7, 46, 64
13, 12000, Note_on_c, 7, 48, 90
13, 12024, Note_off_c, 7, 48, 64
13, 12024, Note_on_c, 7, 47, 90
13, 12048, Note_off_c, 7, 47, 64
13, 12048, Note_on_c, 7, 53, 90
13, 12072, Note_off_c, 7, 53, 64
13, 12072, Note_on_c, 7, 52, 90
13, 12096, Note_off_c, 7, 52, 64
13, 12096, Note_on_c, 7, 45, 90
13, 12120, Note_off_c, 7, 45, 64
13, 12120, Note_on_c, 7, 44, 90
13, 12144, Note_off_c, 7, 44, 64
13, 12144, Note_on_c, 7, 45, 90
13, 12168, Note_off_c, 7, 45, 64
13, 12168, Note_on_c, 7, 44, 90
13, 12192, Note_off_c, 7, 44, 64
13, 12192, Note_on_c, 7, 47, 90
13, 12200, Note_off_c, 7, 47, 64
13, 12200, Note_on_c, 7, 45, 90
13, 12240, Note_off_c, 7, 45, 64
13, 12288, Note_on_c, 7, 76, 90
13, 12312, Note_off_c, 7, 76, 64
13, 12480, Note_on_c, 7, 76, 90
13, 12528, Note_off_c, 7, 76, 64
13, 12672, Note_on_c, 7, 76, 90
13, 12720, Note_off_c, 7, 76, 64
13, 12864, Note_on_c, 7, 76, 90
13, 12912, Note_off_c, 7, 76, 64
13, 13064, Note_on_c, 7, 88, 90
13, 13104, Note_off_c, 7, 88, 64
13, 13256, Note_on_c, 7, 88, 90
13, 13296, Note_off_c, 7, 88, 64
13, 13448, Note_on_c, 7, 88, 90
13, 13488, Note_off_c, 7, 88, 64
13, 13640, Note_on_c, 7, 88, 90
13, 13680, Note_off_c, 7, 88, 64
13, 13824, Note_on_c, 7, 81, 90
13, 13920, Note_off_c, 7, 81, 64
13, 14016, Note_on_c, 7, 57, 90
13, 14064, Note_off_c, 7, 57, 64
13, 14208, Note_on_c, 7, 79, 90
13, 14304, Note_off_c, 7, 79, 64
13, 14400, Note_on_c, 7, 55, 90
13, 14448, Note_off_c, 7, 55, 64
13, 14592, Note_on_c, 7, 65, 90
13, 14640, Note_off_c, 7, 65, 64
13, 14784, Note_on_c, 7, 64, 90
13, 14832, Note_off_c, 7, 64, 64
13, 15024, Note_on_c, 7, 71, 90
13, 15048, Note_off_c, 7, 71, 64
13, 15048, Note_on_c, 7, 74, 90
13, 15072, Note_off_c, 7, 74, 64
13, 15120, Note_on_c, 7, 71, 90
13, 15144, Note_off_c, 7, 71, 64
13, 15144, Note_on_c, 7, 74, 90
13, 15168, Note_off_c, 7, 74, 64
13, 15168, Note_on_c, 7, 72, 90
13, 15192, Note_off_c, 7, 72, 64
13, 15192, Note_on_c, 7, 64, 90
13, 15216, Note_off_c, 7, 64, 64
13, 15264, Note_on_c, 7, 45, 90
13, 15312, Note_off_c, 7, 45, 64
13, 15360, Note_on_c, 7, 84, 90
13, 15552, Note_off_c, 7, 84, 64
13, 15552, Note_on_c, 7, 88, 90
13, 15744, Note_off_c, 7, 88, 64
13, 15744, Note_on_c, 7, 88, 90
13, 15936, Note_off_c, 7, 88, 64
13, 15936, Note_on_c, 7, 92, 90
13, 16128, Note_off_c, 7, 92, 64
13, 16128, Note_on_c, 7, 84, 90
13, 16320, Note_off_c, 7, 84, 64
13, 16320, Note_on_c, 7, 88, 90
13, 16512, Note_off_c, 7, 88, 64
13, 16512, Note_on_c, 7, 88, 90
13, 16704, Note_off_c, 7, 88, 64
13, 16704, Note_on_c, 7, 92, 90
13, 16896, Note_off_c, 7, 92, 64
13, 16896, Note_on_c, 7, 85, 90
13, 16992, Note_off_c, 7, 85, 64
13, 17232, Note_on_c, 7, 89, 90
13, 17280, Note_off_c, 7, 89, 64
13, 17280, Note_on_c, 7, 91, 90
13, 17376, Note_off_c, 7, 91, 64
13, 17400, Note_on_c, 7, 98, 90
13, 17424, Note_off_c, 7, 98, 64
13, 17424, Note_on_c, 7, 95, 90
13, 17448, Note_off_c, 7, 95, 64
13, 17448, Note_on_c, 7, 91, 90
13, 17472, Note_off_c, 7, 91, 64
13, 17472, Note_on_c, 7, 89, 90
13, 17496, Note_off_c, 7, 89, 64
13, 17496, Note_on_c, 7, 86, 90
13, 17520, Note_off_c, 7, 86, 64
13, 17520, Note_on_c, 7, 83, 90
13, 17544, Note_off_c, 7, 83, 64
13, 17544, Note_on_c, 7, 79, 90
13, 17568, Note_off_c, 7, 79, 64
13, 17568, Note_on_c, 7, 77, 90
13, 17592, Note_off_c, 7, 77, 64
13, 17592, Note_on_c, 7, 76, 90
13, 17616, Note_off_c, 7, 76, 64
13, 17616, Note_on_c, 7, 74, 90
13, 17640, Note_off_c, 7, 74, 64
13, 17640, Note_on_c, 7, 72, 90
13, 17664, Note_off_c, 7, 72, 64
13, 17664, Note_on_c, 7, 77, 90
13, 17680, Note_off_c, 7, 77, 64
13, 17680, Note_on_c, 7, 76, 90
13, 17696, Note_off_c, 7, 76, 64
13, 17696, Note_on_c, 7, 77, 90
13, 17712, Note_off_c, 7, 77, 64
13, 17712, Note_on_c, 7, 76, 90
13, 17728, Note_off_c, 7, 76, 64
13, 17728, Note_on_c, 7, 77, 90
13, 17736, Note_off_c, 7, 77, 64
13, 17736, Note_on_c, 7, 76, 90
13, 17744, Note_off_c, 7, 76, 64
13, 17744, Note_on_c, 7, 77, 90
13, 17752, Note_off_c, 7, 77, 64
13, 17752, Note_on_c, 7, 76, 90
13, 17760, Note_off_c, 7, 76, 64
13, 17760, Note_on_c, 7, 77, 90
13, 17808, Note_off_c, 7, 77, 64
13, 17904, Note_on_c, 7, 88, 90
13, 17928, Note_off_c, 7, 88, 64
13, 17952, Note_on_c, 7, 88, 90
13, 17976, Note_off_c, 7, 88, 64
13, 18000, Note_on_c, 7, 88, 90
13, 18024, Note_off_c, 7, 88, 64
13, 18048, Note_on_c, 7, 89, 90
13, 18072, Note_off_c, 7, 89, 64
13, 18144, Note_on_c, 7, 86, 90
13, 18168, Note_off_c, 7, 86, 64
13, 18240, Note_on_c, 7, 84, 90
13, 18336, Note_off_c, 7, 84, 64
13, 18408, Note_on_c, 7, 40, 90
13, 18416, Note_off_c, 7, 40, 64
13, 18416, Note_on_c, 7, 42, 90
13, 18424, Note_off_c, 7, 42, 64
13, 18424, Note_on_c, 7, 44, 90
13, 18432, Note_off_c, 7, 44, 64
13, 18432, Note_on_c, 7, 45, 90
13, 18456, Note_off_c, 7, 45, 64
13, 18480, Note_on_c, 7, 48, 90
13, 18504, Note_off_c, 7, 48, 64
13, 18528, Note_on_c, 7, 47, 90
13, 18552, Note_off_c, 7, 47, 64
13, 18576, Note_on_c, 7, 45, 90
13, 18600, Note_off_c, 7, 45, 64
13, 18624, Note_on_c, 7, 56, 90
13, 18640, Note_off_c, 7, 56, 64
13, 18648, Note_on_c, 7, 80, 90
13, 18696, Note_off_c, 7, 80, 64
13, 18696, Note_on_c, 7, 83, 90
13, 18744, Note_off_c, 7, 83, 64
13, 18744, Note_on_c, 7, 83, 90
13, 18792, Note_off_c, 7, 83, 64
13, 18792, Note_on_c, 7, 83, 90
13, 18816, Note_off_c, 7, 83, 64
13, 18816, Note_on_c, 7, 45, 90
13, 18840, Note_off_c, 7, 45, 64
13, 18864, Note_on_c, 7, 48, 90
13, 18888, Note_off_c, 7, 48, 64
13, 18912, Note_on_c, 7, 47, 90
13, 18936, Note_off_c, 7, 47, 64
13, 18960, Note_on_c, 7, 45, 90
13, 18984, Note_off_c, 7, 45, 64
13, 19008, Note_on_c, 7, 52, 90
13, 19024, Note_off_c, 7, 52, 64
13, 19024, Note_on_c, 7, 52, 90
13, 19040, Note_off_c, 7, 52, 64
13, 19040, Note_on_c, 7, 53, 90
13, 19056, Note_off_c, 7, 53, 64
13, 19056, Note_on_c, 7, 54, 90
13, 19072, Note_off_c, 7, 54, 64
13, 19072, Note_on_c, 7, 55, 90
13, 19088, Note_off_c, 7, 55, 64
13, 19088, Note_on_c, 7, 56, 90
13, 19104, Note_off_c, 7, 56, 64
13, 19104, Note_on_c, 7, 57, 90
13, 19120, Note_off_c, 7, 57, 64
13, 19120, Note_on_c, 7, 58, 90
13, 19136, Note_off_c, 7, 58, 64
13, 19136, Note_on_c, 7, 59, 90
13, 19144, Note_off_c, 7, 59, 64
13, 19144, Note_on_c, 7, 60, 90
13, 19152, Note_off_c, 7, 60, 64
13, 19152, Note_on_c, 7, 61, 90
13, 19160, Note_off_c, 7, 61, 64
13, 19160, Note_on_c, 7, 62, 90
13, 19168, Note_off_c, 7, 62, 64
13, 19168, Note_on_c, 7, 63, 90
13, 19176, Note_off_c, 7, 63, 64
13, 19176, Note_on_c, 7, 64, 90
13, 19184, Note_off_c, 7, 64, 64
13, 19184, Note_on_c, 7, 65, 90
13, 19192, Note_off_c, 7, 65, 64
13, 19192, Note_on_c, 7, 64, 90
13, 19200, Note_off_c, 7, 64, 64
13, 19200, Note_on_c, 7, 45, 90
13, 19224, Note_off_c, 7, 45, 64
13, 19248, Note_on_c, 7, 48, 90
13, 19272, Note_off_c, 7, 48, 64
13, 19296, Note_on_c, 7, 47, 90
13, 19320, Note_off_c, 7, 47, 64
13, 19344, Note_on_c, 7, 45, 90
13, 19368, Note_off_c, 7, 45, 64
13, 19392, Note_on_c, 7, 56, 90
13, 19408, Note_off_c, 7, 56, 64
13, 19416, Note_on_c, 7, 80, 90
13, 19464, Note_off_c, 7, 80, 64
13, 19464, Note_on_c, 7, 83, 90
13, 19512, Note_off_c, 7, 83, 64
13, 19512, Note_on_c, 7, 83, 90
13, 19560, Note_off_c, 7, 83, 64
13, 19560, Note_on_c, 7, 83, 90
13, 19584, Note_off_c, 7, 83, 64
13, 19584, Note_on_c, 7, 45, 90
13, 19608, Note_off_c, 7, 45, 64
13, 19632, Note_on_c, 7, 48, 90
13, 19656, Note_off_c, 7, 48, 64
13, 19680, Note_on_c, 7, 47, 90
13, 19704, Note_off_c, 7, 47, 64
13, 19728, Note_on_c, 7, 45, 90
13, 19752, Note_off_c, 7, 45, 64
13, 19776, Note_on_c, 7, 52, 90
13, 19792, Note_off_c, 7, 52, 64
13, 19792, Note_on_c, 7, 52, 90
13, 19808, Note_off_c, 7, 52, 64
13, 19808, Note_on_c, 7, 53, 90
13, 19824, Note_off_c, 7, 53, 64
13, 19824, Note_on_c, 7, 54, 90
13, 19840, Note_off_c, 7, 54, 64
13, 19840, Note_on_c, 7, 55, 90
13, 19856, Note_off_c, 7, 55, 64
13, 19856, Note_on_c, 7, 56, 90
13, 19872, Note_off_c, 7, 56, 64
13, 19872, Note_on_c, 7, 57, 90
13, 19888, Note_off_c, 7, 57, 64
13, 19888, Note_on_c, 7, 58, 90
13, 19904, Note_off_c, 7, 58, 64
13, 19904, Note_on_c, 7, 59, 90
13, 19912, Note_off_c, 7, 59, 64
13, 19912, Note_on_c, 7, 60, 90
13, 19920, Note_off_c, 7, 60, 64
13, 19920, Note_on_c, 7, 61, 90
13, 19928, Note_off_c, 7, 61, 64
13, 19928, Note_on_c, 7, 62, 90
13, 19936, Note_off_c, 7, 62, 64
13, 19936, Note_on_c, 7, 63, 90
13, 19944, Note_off_c, 7, 63, 64
13, 19944, Note_on_c, 7, 64, 90
13, 19952, Note_off_c, 7, 64, 64
13, 19952, Note_on_c, 7, 65, 90
13, 19960, Note_off_c, 7, 65, 64
13, 19960, Note_on_c, 7, 64, 90
13, 19968, Note_off_c, 7, 64, 64
13, 19968, Note_on_c, 7, 57, 90
13, 20016, Note_off_c, 7, 57, 64
13, 20016, Note_on_c, 7, 58, 90
13, 20064, Note_off_c, 7, 58, 64
13, 20064, Note_on_c, 7, 57, 90
13, 20112, Note_off_c, 7, 57, 64
13, 20112, Note_on_c, 7, 55, 90
13, 20160, Note_off_c, 7, 55, 64
13, 20160, Note_on_c, 7, 53, 90
13, 20176, Note_off_c, 7, 53, 64
13, 20184, Note_on_c, 7, 64, 90
13, 20200, Note_off_c, 7, 64, 64
13, 20208, Note_on_c, 7, 65, 90
13, 20224, Note_off_c, 7, 65, 64
13, 20232, Note_on_c, 7, 76, 90
13, 20248, Note_off_c, 7, 76, 64
13, 20256, Note_on_c, 7, 77, 90
13, 20272, Note_off_c, 7, 77, 64
13, 20280, Note_on_c, 7, 88, 90
13, 20296, Note_off_c, 7, 88, 64
13, 20304, Note_on_c, 7, 89, 90
13, 20320, Note_off_c, 7, 89, 64
13, 20352, Note_on_c, 7, 55, 90
13, 20400, Note_off_c, 7, 55, 64
13, 20400, Note_on_c, 7, 56, 90
13, 20448, Note_off_c, 7, 56, 64
13, 20448, Note_on_c, 7, 55, 90
13, 20496, Note_off_c, 7, 55, 64
13, 20496, Note_on_c, 7, 53, 90
13, 20544, Note_off_c, 7, 53, 64
13, 20544, Note_on_c, 7, 52, 90
13, 20560, Note_off_c, 7, 52, 64
13, 20568, Note_on_c, 7, 62, 90
13, 20584, Note_off_c, 7, 62, 64
13, 20592, Note_on_c, 7, 64, 90
13, 20608, Note_off_c, 7, 64, 64
13, 20616, Note_on_c, 7, 74, 90
13, 20632, Note_off_c, 7, 74, 64
13, 20640, Note_on_c, 7, 76, 90
13, 20656, Note_off_c, 7, 76, 64
13, 20664, Note_on_c, 7, 86, 90
13, 20680, Note_off_c, 7, 86, 64
13, 20688, Note_on_c, 7, 88, 90
13, 20704, Note_off_c, 7, 88, 64
13, 20736, Note_on_c, 7, 53, 90
13, 20760, Note_off_c, 7, 53, 64
13, 20760, Note_on_c, 7, 68, 90
13, 20784, Note_off_c, 7, 68, 64
13, 20784, Note_on_c, 7, 68, 90
13, 20808, Note_off_c, 7, 68, 64
13, 20808, Note_on_c, 7, 47, 90
13, 20832, Note_off_c, 7, 47, 64
13, 20832, Note_on_c, 7, 51, 90
13, 20856, Note_off_c, 7, 51, 64
13, 20856, Note_on_c, 7, 66, 90
13, 20880, Note_off_c, 7, 66, 64
13, 20880, Note_on_c, 7, 66, 90
13, 20904, Note_off_c, 7, 66, 64
13, 20904, Note_on_c, 7, 45, 90
13, 20928, Note_off_c, 7, 45, 64
13, 20928, Note_on_c, 7, 49, 90
13, 20952, Note_off_c, 7, 49, 64
13, 20952, Note_on_c, 7, 64, 90
13, 20976, Note_off_c, 7, 64, 64
13, 20976, Note_on_c, 7, 64, 90
13, 21000, Note_off_c, 7, 64, 64
13, 21000, Note_on_c, 7, 43, 90
13, 21024, Note_off_c, 7, 43, 64
13, 21024, Note_on_c, 7, 47, 90
13, 21048, Note_off_c, 7, 47, 64
13, 21048, Note_on_c, 7, 62, 90
13, 21072, Note_off_c, 7, 62, 64
13, 21072, Note_on_c, 7, 62, 90
13, 21096, Note_off_c, 7, 62, 64
13, 21096, Note_on_c, 7, 41, 90
13, 21120, Note_off_c, 7, 41, 64
13, 21120, Note_on_c, 7, 47, 90
13, 21144, Note_off_c, 7, 47, 64
13, 21144, Note_on_c, 7, 62, 90
13, 21168, Note_off_c, 7, 62, 64
13, 21168, Note_on_c, 7, 62, 90
13, 21192, Note_off_c, 7, 62, 64
13, 21192, Note_on_c, 7, 41, 90
13, 21216, Note_off_c, 7, 41, 64
13, 21216, Note_on_c, 7, 47, 90
13, 21240, Note_off_c, 7, 47, 64
13, 21240, Note_on_c, 7, 63, 90
13, 21264, Note_off_c, 7, 63, 64
13, 21264, Note_on_c, 7, 63, 90
13, 21288, Note_off_c, 7, 63, 64
13, 21312, Note_on_c, 7, 40, 90
13, 21360, Note_off_c, 7, 40, 64
13, 21360, Note_on_c, 7, 76, 90
13, 21408, Note_off_c, 7, 76, 64
13, 21408, Note_on_c, 7, 52, 90
13, 21456, Note_off_c, 7, 52, 64
13, 21456, Note_on_c, 7, 80, 90
13, 21504, Note_off_c, 7, 80, 64
13, 21504, Note_on_c, 7, 45, 90
13, 21528, Note_off_c, 7, 45, 64
13, 21696, Note_on_c, 7, 45, 90
13, 21720, Note_off_c, 7, 45, 64
13, 21888, Note_on_c, 7, 50, 90
13, 21912, Note_off_c, 7, 50, 64
13, 22080, Note_on_c, 7, 53, 90
13, 22128, Note_off_c, 7, 53, 64
13, 22128, Note_on_c, 7, 56, 90
13, 22176, Note_off_c, 7, 56, 64
13, 22176, Note_on_c, 7, 59, 90
13, 22224, Note_off_c, 7, 59, 64
13, 22224, Note_on_c, 7, 53, 90
13, 22272, Note_off_c, 7, 53, 64
13, 22272, Note_on_c, 7, 45, 90
13, 22296, Note_off_c, 7, 45, 64
13, 22464, Note_on_c, 7, 45, 90
13, 22488, Note_off_c, 7, 45, 64
13, 22656, Note_on_c, 7, 50, 90
13, 22680, Note_off_c, 7, 50, 64
13, 22848, Note_on_c, 7, 53, 90
13, 22896, Note_off_c, 7, 53, 64
13, 22896, Note_on_c, 7, 56, 90
13, 22944, Note_off_c, 7, 56, 64
13, 22944, Note_on_c, 7, 59, 90
13, 22992, Note_off_c, 7, 59, 64
13, 22992, Note_on_c, 7, 53, 90
13, 23040, Note_off_c, 7, 53, 64
13, 24048, Note_on_c, 7, 73, 90
13, 24096, Note_off_c, 7, 73, 64
13, 24096, Note_on_c, 7, 85, 90
13, 24144, Note_off_c, 7, 85, 64
13, 24144, End_track
14, 0, Start_track
14, 0, MIDI_port, 0
14, 0, Title_t, "Guitar (12 String)  "
14, 0, Program_c, 8, 72
14, 0, Note_on_c, 8, 69, 90
14, 48, Note_off_c, 8, 69, 64
14, 192, Note_on_c, 8, 76, 90
14, 240, Note_off_c, 8, 76, 64
14, 384, Note_on_c, 8, 69, 90
14, 432, Note_off_c, 8, 69, 64
14, 576, Note_on_c, 8, 76, 90
14, 624, Note_off_c, 8, 76, 64
14, 768, Note_on_c, 8, 69, 90
14, 816, Note_off_c, 8, 69, 64
14, 960, Note_on_c, 8, 76, 90
14, 1008, Note_off_c, 8, 76, 64
14, 1152, Note_on_c, 8, 69, 90
14, 1200, Note_off_c, 8, 69, 64
14, 1344, Note_on_c, 8, 76, 90
14, 1392, Note_off_c, 8, 76, 64
14, 1536, Note_on_c, 8, 69, 90
14, 1584, Note_off_c, 8, 69, 64
14, 1728, Note_on_c, 8, 74, 90
14, 1776, Note_off_c, 8, 74, 64
14, 1920, Note_on_c, 8, 67, 90
14, 1968, Note_off_c, 8, 67, 64
14, 2112, Note_on_c, 8, 72, 90
14, 2160, Note_off_c, 8, 72, 64
14, 2304, Note_on_c, 8, 71, 90
14, 2352, Note_off_c, 8, 71, 64
14, 2496, Note_on_c, 8, 72, 90
14, 2544, Note_off_c, 8, 72, 64
14, 2736, Note_on_c, 8, 69, 90
14, 2784, Note_off_c, 8, 69, 64
14, 2832, Note_on_c, 8, 68, 90
14, 2880, Note_off_c, 8, 68, 64
14, 2880, Note_on_c, 8, 69, 90
14, 2976, Note_off_c, 8, 69, 64
14, 2976, Note_on_c, 8, 57, 90
14, 3024, Note_off_c, 8, 57, 64
14, 3072, Note_on_c, 8, 69, 90
14, 3120, Note_off_c, 8, 69, 64
14, 3168, Note_on_c, 8, 81, 90
14, 3216, Note_off_c, 8, 81, 64
14, 3264, Note_on_c, 8, 74, 90
14, 3312, Note_off_c, 8, 74, 64
14, 3360, Note_on_c, 8, 81, 90
14, 3408, Note_off_c, 8, 81, 64
14, 3456, Note_on_c, 8, 67, 90
14, 3504, Note_off_c, 8, 67, 64
14, 3552, Note_on_c, 8, 79, 90
14, 3600, Note_off_c, 8, 79, 64
14, 3648, Note_on_c, 8, 72, 90
14, 3696, Note_off_c, 8, 72, 64
14, 3744, Note_on_c, 8, 79, 90
14, 3792, Note_off_c, 8, 79, 64
14, 3840, Note_on_c, 8, 70, 90
14, 3888, Note_off_c, 8, 70, 64
14, 4032, Note_on_c, 8, 76, 90
14, 4080, Note_off_c, 8, 76, 64
14, 4272, Note_on_c, 8, 69, 90
14, 4320, Note_off_c, 8, 69, 64
14, 4368, Note_on_c, 8, 68, 90
14, 4392, Note_off_c, 8, 68, 64
14, 4392, Note_on_c, 8, 76, 90
14, 4416, Note_off_c, 8, 76, 64
14, 4416, Note_on_c, 8, 69, 90
14, 4512, Note_off_c, 8, 69, 64
14, 4512, Note_on_c, 8, 57, 90
14, 4568, Note_off_c, 8, 57, 64
14, 4624, Note_on_c, 8, 93, 90
14, 4640, Note_off_c, 8, 93, 64
14, 4640, Note_on_c, 8, 88, 90
14, 4672, Note_off_c, 8, 88, 64
14, 4672, Note_on_c, 8, 84, 90
14, 4704, Note_off_c, 8, 84, 64
14, 4704, Note_on_c, 8, 81, 90
14, 4736, Note_off_c, 8, 81, 64
14, 4736, Note_on_c, 8, 76, 90
14, 4768, Note_off_c, 8, 76, 64
14, 4768, Note_on_c, 8, 72, 90
14, 4800, Note_off_c, 8, 72, 64
14, 4816, Note_on_c, 8, 88, 90
14, 4832, Note_off_c, 8, 88, 64
14, 4832, Note_on_c, 8, 83, 90
14, 4864, Note_off_c, 8, 83, 64
14, 4864, Note_on_c, 8, 80, 90
14, 4896, Note_off_c, 8, 80, 64
14, 4896, Note_on_c, 8, 76, 90
14, 4928, Note_off_c, 8, 76, 64
14, 4928, Note_on_c, 8, 71, 90
14, 4960, Note_off_c, 8, 71, 64
14, 4960, Note_on_c, 8, 68, 90
14, 4992, Note_off_c, 8, 68, 64
14, 5008, Note_on_c, 8, 93, 90
14, 5024, Note_off_c, 8, 93, 64
14, 5024, Note_on_c, 8, 88, 90
14, 5056, Note_off_c, 8, 88, 64
14, 5056, Note_on_c, 8, 84, 90
14, 5088, Note_off_c, 8, 84, 64
14, 5088, Note_on_c, 8, 81, 90
14, 5120, Note_off_c, 8, 81, 64
14, 5120, Note_on_c, 8, 76, 90
14, 5152, Note_off_c, 8, 76, 64
14, 5152, Note_on_c, 8, 72, 90
14, 5184, Note_off_c, 8, 72, 64
14, 5216, Note_on_c, 8, 80, 90
14, 5248, Note_off_c, 8, 80, 64
14, 5248, Note_on_c, 8, 83, 90
14, 5280, Note_off_c, 8, 83, 64
14, 5280, Note_on_c, 8, 92, 90
14, 5328, Note_off_c, 8, 92, 64
14, 5392, Note_on_c, 8, 93, 90
14, 5408, Note_off_c, 8, 93, 64
14, 5408, Note_on_c, 8, 88, 90
14, 5440, Note_off_c, 8, 88, 64
14, 5440, Note_on_c, 8, 84, 90
14, 5472, Note_off_c, 8, 84, 64
14, 5472, Note_on_c, 8, 81, 90
14, 5504, Note_off_c, 8, 81, 64
14, 5504, Note_on_c, 8, 76, 90
14, 5536, Note_off_c, 8, 76, 64
14, 5536, Note_on_c, 8, 72, 90
14, 5568, Note_off_c, 8, 72, 64
14, 5584, Note_on_c, 8, 88, 90
14, 5600, Note_off_c, 8, 88, 64
14, 5600, Note_on_c, 8, 83, 90
14, 5632, Note_off_c, 8, 83, 64
14, 5632, Note_on_c, 8, 80, 90
14, 5664, Note_off_c, 8, 80, 64
14, 5664, Note_on_c, 8, 76, 90
14, 5696, Note_off_c, 8, 76, 64
14, 5696, Note_on_c, 8, 71, 90
14, 5728, Note_off_c, 8, 71, 64
14, 5728, Note_on_c, 8, 68, 90
14, 5760, Note_off_c, 8, 68, 64
14, 5776, Note_on_c, 8, 93, 90
14, 5792, Note_off_c, 8, 93, 64
14, 5792, Note_on_c, 8, 88, 90
14, 5824, Note_off_c, 8, 88, 64
14, 5824, Note_on_c, 8, 84, 90
14, 5856, Note_off_c, 8, 84, 64
14, 5856, Note_on_c, 8, 81, 90
14, 5888, Note_off_c, 8, 81, 64
14, 5888, Note_on_c, 8, 76, 90
14, 5920, Note_off_c, 8, 76, 64
14, 5920, Note_on_c, 8, 72, 90
14, 5952, Note_off_c, 8, 72, 64
14, 5984, Note_on_c, 8, 80, 90
14, 6016, Note_off_c, 8, 80, 64
14, 6016, Note_on_c, 8, 83, 90
14, 6048, Note_off_c, 8, 83, 64
14, 6048, Note_on_c, 8, 92, 90
14, 6096, Note_off_c, 8, 92, 64
14, 6160, Note_on_c, 8, 97, 90
14, 6176, Note_off_c, 8, 97, 64
14, 6176, Note_on_c, 8, 93, 90
14, 6192, Note_off_c, 8, 93, 64
14, 6208, Note_on_c, 8, 88, 90
14, 6224, Note_off_c, 8, 88, 64
14, 6240, Note_on_c, 8, 85, 90
14, 6256, Note_off_c, 8, 85, 64
14, 6272, Note_on_c, 8, 85, 90
14, 6288, Note_off_c, 8, 85, 64
14, 6304, Note_on_c, 8, 76, 90
14, 6320, Note_off_c, 8, 76, 64
14, 6368, Note_on_c, 8, 77, 90
14, 6384, Note_off_c, 8, 77, 64
14, 6400, Note_on_c, 8, 81, 90
14, 6416, Note_off_c, 8, 81, 64
14, 6432, Note_on_c, 8, 86, 90
14, 6448, Note_off_c, 8, 86, 64
14, 6464, Note_on_c, 8, 89, 90
14, 6480, Note_off_c, 8, 89, 64
14, 6496, Note_on_c, 8, 93, 90
14, 6512, Note_off_c, 8, 93, 64
14, 6528, Note_on_c, 8, 95, 90
14, 6544, Note_off_c, 8, 95, 64
14, 6560, Note_on_c, 8, 91, 90
14, 6576, Note_off_c, 8, 91, 64
14, 6592, Note_on_c, 8, 86, 90
14, 6608, Note_off_c, 8, 86, 64
14, 6624, Note_on_c, 8, 83, 90
14, 6640, Note_off_c, 8, 83, 64
14, 6656, Note_on_c, 8, 83, 90
14, 6672, Note_off_c, 8, 83, 64
14, 6688, Note_on_c, 8, 74, 90
14, 6704, Note_off_c, 8, 74, 64
14, 6752, Note_on_c, 8, 76, 90
14, 6768, Note_off_c, 8, 76, 64
14, 6784, Note_on_c, 8, 79, 90
14, 6800, Note_off_c, 8, 79, 64
14, 6816, Note_on_c, 8, 84, 90
14, 6832, Note_off_c, 8, 84, 64
14, 6848, Note_on_c, 8, 88, 90
14, 6864, Note_off_c, 8, 88, 64
14, 6880, Note_on_c, 8, 91, 90
14, 6896, Note_off_c, 8, 91, 64
14, 6912, Note_on_c, 8, 92, 90
14, 6928, Note_off_c, 8, 92, 64
14, 6944, Note_on_c, 8, 89, 90
14, 6960, Note_off_c, 8, 89, 64
14, 6976, Note_on_c, 8, 86, 90
14, 6992, Note_off_c, 8, 86, 64
14, 7008, Note_on_c, 8, 83, 90
14, 7024, Note_off_c, 8, 83, 64
14, 7040, Note_on_c, 8, 80, 90
14, 7056, Note_off_c, 8, 80, 64
14, 7072, Note_on_c, 8, 77, 90
14, 7088, Note_off_c, 8, 77, 64
14, 7104, Note_on_c, 8, 93, 90
14, 7120, Note_off_c, 8, 93, 64
14, 7136, Note_on_c, 8, 88, 90
14, 7152, Note_off_c, 8, 88, 64
14, 7168, Note_on_c, 8, 84, 90
14, 7184, Note_off_c, 8, 84, 64
14, 7200, Note_on_c, 8, 81, 90
14, 7216, Note_off_c, 8, 81, 64
14, 7232, Note_on_c, 8, 76, 90
14, 7248, Note_off_c, 8, 76, 64
14, 7264, Note_on_c, 8, 72, 90
14, 7280, Note_off_c, 8, 72, 64
14, 7296, Note_on_c, 8, 74, 90
14, 7312, Note_off_c, 8, 74, 64
14, 7328, Note_on_c, 8, 77, 90
14, 7344, Note_off_c, 8, 77, 64
14, 7360, Note_on_c, 8, 81, 90
14, 7376, Note_off_c, 8, 81, 64
14, 7392, Note_on_c, 8, 80, 90
14, 7408, Note_off_c, 8, 80, 64
14, 7424, Note_on_c, 8, 83, 90
14, 7440, Note_off_c, 8, 83, 64
14, 7456, Note_on_c, 8, 86, 90
14, 7472, Note_off_c, 8, 86, 64
14, 7488, Note_on_c, 8, 84, 90
14, 7504, Note_off_c, 8, 84, 64
14, 7520, Note_on_c, 8, 88, 90
14, 7536, Note_off_c, 8, 88, 64
14, 7552, Note_on_c, 8, 93, 90
14, 7568, Note_off_c, 8, 93, 64
14, 7584, Note_on_c, 8, 96, 90
14, 7600, Note_off_c, 8, 96, 64
14, 7680, Note_on_c, 8, 65, 90
14, 7728, Note_off_c, 8, 65, 64
14, 7728, Note_on_c, 8, 65, 90
14, 7776, Note_off_c, 8, 65, 64
14, 7872, Note_on_c, 8, 68, 90
14, 7920, Note_off_c, 8, 68, 64
14, 7920, Note_on_c, 8, 68, 90
14, 7968, Note_off_c, 8, 68, 64
14, 8064, Note_on_c, 8, 65, 90
14, 8112, Note_off_c, 8, 65, 64
14, 8112, Note_on_c, 8, 65, 90
14, 8160, Note_off_c, 8, 65, 64
14, 8256, Note_on_c, 8, 68, 90
14, 8304, Note_off_c, 8, 68, 64
14, 8304, Note_on_c, 8, 68, 90
14, 8352, Note_off_c, 8, 68, 64
14, 8448, Note_on_c, 8, 53, 90
14, 8496, Note_off_c, 8, 53, 64
14, 8496, Note_on_c, 8, 53, 90
14, 8544, Note_off_c, 8, 53, 64
14, 8640, Note_on_c, 8, 59, 90
14, 8688, Note_off_c, 8, 59, 64
14, 8688, Note_on_c, 8, 59, 90
14, 8736, Note_off_c, 8, 59, 64
14, 8832, Note_on_c, 8, 53, 90
14, 8880, Note_off_c, 8, 53, 64
14, 8880, Note_on_c, 8, 53, 90
14, 8928, Note_off_c, 8, 53, 64
14, 9024, Note_on_c, 8, 56, 90
14, 9072, Note_off_c, 8, 56, 64
14, 9072, Note_on_c, 8, 56, 90
14, 9120, Note_off_c, 8, 56, 64
14, 9216, Note_on_c, 8, 49, 90
14, 9264, Note_off_c, 8, 49, 64
14, 9264, Note_on_c, 8, 49, 90
14, 9312, Note_off_c, 8, 49, 64
14, 9408, Note_on_c, 8, 57, 90
14, 9456, Note_off_c, 8, 57, 64
14, 9456, Note_on_c, 8, 57, 90
14, 9504, Note_off_c, 8, 57, 64
14, 9600, Note_on_c, 8, 47, 90
14, 9648, Note_off_c, 8, 47, 64
14, 9648, Note_on_c, 8, 47, 90
14, 9696, Note_off_c, 8, 47, 64
14, 9792, Note_on_c, 8, 55, 90
14, 9840, Note_off_c, 8, 55, 64
14, 9840, Note_on_c, 8, 55, 90
14, 9888, Note_off_c, 8, 55, 64
14, 9984, Note_on_c, 8, 56, 90
14, 10032, Note_off_c, 8, 56, 64
14, 10032, Note_on_c, 8, 56, 90
14, 10080, Note_off_c, 8, 56, 64
14, 10176, Note_on_c, 8, 48, 90
14, 10224, Note_off_c, 8, 48, 64
14, 10224, Note_on_c, 8, 48, 90
14, 10272, Note_off_c, 8, 48, 64
14, 10368, Note_on_c, 8, 54, 90
14, 10416, Note_off_c, 8, 54, 64
14, 10416, Note_on_c, 8, 53, 90
14, 10464, Note_off_c, 8, 53, 64
14, 10464, Note_on_c, 8, 52, 90
14, 10560, Note_off_c, 8, 52, 64
14, 10560, Note_on_c, 8, 57, 90
14, 10608, Note_off_c, 8, 57, 64
14, 10608, Note_on_c, 8, 50, 90
14, 10656, Note_off_c, 8, 50, 64
14, 10656, Note_on_c, 8, 45, 90
14, 10704, Note_off_c, 8, 45, 64
14, 10752, Note_on_c, 8, 49, 90
14, 10800, Note_off_c, 8, 49, 64
14, 10800, Note_on_c, 8, 49, 90
14, 10848, Note_off_c, 8, 49, 64
14, 10944, Note_on_c, 8, 57, 90
14, 10992, Note_off_c, 8, 57, 64
14, 10992, Note_on_c, 8, 57, 90
14, 11040, Note_off_c, 8, 57, 64
14, 11136, Note_on_c, 8, 47, 90
14, 11184, Note_off_c, 8, 47, 64
14, 11184, Note_on_c, 8, 47, 90
14, 11232, Note_off_c, 8, 47, 64
14, 11328, Note_on_c, 8, 55, 90
14, 11376, Note_off_c, 8, 55, 64
14, 11376, Note_on_c, 8, 55, 90
14, 11424, Note_off_c, 8, 55, 64
14, 11520, Note_on_c, 8, 50, 90
14, 11568, Note_off_c, 8, 50, 64
14, 11712, Note_on_c, 8, 48, 90
14, 11760, Note_off_c, 8, 48, 64
14, 11904, Note_on_c, 8, 54, 90
14, 11952, Note_off_c, 8, 54, 64
14, 11952, Note_on_c, 8, 53, 90
14, 12000, Note_off_c, 8, 53, 64
14, 12000, Note_on_c, 8, 52, 90
14, 12096, Note_off_c, 8, 52, 64
14, 12096, Note_on_c, 8, 57, 90
14, 12144, Note_off_c, 8, 57, 64
14, 12144, Note_on_c, 8, 50, 90
14, 12192, Note_off_c, 8, 50, 64
14, 12200, Note_on_c, 8, 45, 90
14, 12240, Note_off_c, 8, 45, 64
14, 12288, Note_on_c, 8, 69, 90
14, 12304, Note_off_c, 8, 69, 64
14, 12312, Note_on_c, 8, 76, 90
14, 12320, Note_off_c, 8, 76, 64
14, 12336, Note_on_c, 8, 64, 90
14, 12344, Note_off_c, 8, 64, 64
14, 12360, Note_on_c, 8, 76, 90
14, 12368, Note_off_c, 8, 76, 64
14, 12384, Note_on_c, 8, 72, 90
14, 12392, Note_off_c, 8, 72, 64
14, 12408, Note_on_c, 8, 76, 90
14, 12416, Note_off_c, 8, 76, 64
14, 12432, Note_on_c, 8, 69, 90
14, 12440, Note_off_c, 8, 69, 64
14, 12456, Note_on_c, 8, 76, 90
14, 12464, Note_off_c, 8, 76, 64
14, 12480, Note_on_c, 8, 68, 90
14, 12504, Note_off_c, 8, 68, 64
14, 12504, Note_on_c, 8, 76, 90
14, 12528, Note_off_c, 8, 76, 64
14, 12528, Note_on_c, 8, 64, 90
14, 12552, Note_off_c, 8, 64, 64
14, 12552, Note_on_c, 8, 76, 90
14, 12576, Note_off_c, 8, 76, 64
14, 12576, Note_on_c, 8, 68, 90
14, 12600, Note_off_c, 8, 68, 64
14, 12600, Note_on_c, 8, 76, 90
14, 12624, Note_off_c, 8, 76, 64
14, 12624, Note_on_c, 8, 71, 90
14, 12648, Note_off_c, 8, 71, 64
14, 12648, Note_on_c, 8, 76, 90
14, 12672, Note_off_c, 8, 76, 64
14, 12672, Note_on_c, 8, 69, 90
14, 12696, Note_off_c, 8, 69, 64
14, 12696, Note_on_c, 8, 76, 90
14, 12720, Note_off_c, 8, 76, 64
14, 12720, Note_on_c, 8, 64, 90
14, 12744, Note_off_c, 8, 64, 64
14, 12744, Note_on_c, 8, 76, 90
14, 12768, Note_off_c, 8, 76, 64
14, 12768, Note_on_c, 8, 72, 90
14, 12792, Note_off_c, 8, 72, 64
14, 12792, Note_on_c, 8, 76, 90
14, 12816, Note_off_c, 8, 76, 64
14, 12816, Note_on_c, 8, 69, 90
14, 12840, Note_off_c, 8, 69, 64
14, 12840, Note_on_c, 8, 76, 90
14, 12864, Note_off_c, 8, 76, 64
14, 12864, Note_on_c, 8, 68, 90
14, 12888, Note_off_c, 8, 68, 64
14, 12888, Note_on_c, 8, 76, 90
14, 12912, Note_off_c, 8, 76, 64
14, 12912, Note_on_c, 8, 64, 90
14, 12936, Note_off_c, 8, 64, 64
14, 12936, Note_on_c, 8, 76, 90
14, 12960, Note_off_c, 8, 76, 64
14, 12960, Note_on_c, 8, 68, 90
14, 12984, Note_off_c, 8, 68, 64
14, 12984, Note_on_c, 8, 71, 90
14, 13008, Note_off_c, 8, 71, 64
14, 13008, Note_on_c, 8, 76, 90
14, 13056, Note_off_c, 8, 76, 64
14, 13056, Note_on_c, 8, 81, 90
14, 13080, Note_off_c, 8, 81, 64
14, 13080, Note_on_c, 8, 88, 90
14, 13104, Note_off_c, 8, 88, 64
14, 13104, Note_on_c, 8, 76, 90
14, 13128, Note_off_c, 8, 76, 64
14, 13128, Note_on_c, 8, 88, 90
14, 13152, Note_off_c, 8, 88, 64
14, 13152, Note_on_c, 8, 84, 90
14, 13176, Note_off_c, 8, 84, 64
14, 13176, Note_on_c, 8, 88, 90
14, 13200, Note_off_c, 8, 88, 64
14, 13200, Note_on_c, 8, 81, 90
14, 13224, Note_off_c, 8, 81, 64
14, 13224, Note_on_c, 8, 88, 90
14, 13248, Note_off_c, 8, 88, 64
14, 13248, Note_on_c, 8, 80, 90
14, 13272, Note_off_c, 8, 80, 64
14, 13272, Note_on_c, 8, 88, 90
14, 13296, Note_off_c, 8, 88, 64
14, 13296, Note_on_c, 8, 76, 90
14, 13320, Note_off_c, 8, 76, 64
14, 13320, Note_on_c, 8, 88, 90
14, 13344, Note_off_c, 8, 88, 64
14, 13344, Note_on_c, 8, 80, 90
14, 13368, Note_off_c, 8, 80, 64
14, 13368, Note_on_c, 8, 88, 90
14, 13392, Note_off_c, 8, 88, 64
14, 13392, Note_on_c, 8, 83, 90
14, 13416, Note_off_c, 8, 83, 64
14, 13416, Note_on_c, 8, 88, 90
14, 13440, Note_off_c, 8, 88, 64
14, 13440, Note_on_c, 8, 81, 90
14, 13464, Note_off_c, 8, 81, 64
14, 13464, Note_on_c, 8, 88, 90
14, 13488, Note_off_c, 8, 88, 64
14, 13488, Note_on_c, 8, 76, 90
14, 13512, Note_off_c, 8, 76, 64
14, 13512, Note_on_c, 8, 88, 90
14, 13536, Note_off_c, 8, 88, 64
14, 13536, Note_on_c, 8, 84, 90
14, 13560, Note_off_c, 8, 84, 64
14, 13560, Note_on_c, 8, 88, 90
14, 13584, Note_off_c, 8, 88, 64
14, 13584, Note_on_c, 8, 81, 90
14, 13608, Note_off_c, 8, 81, 64
14, 13608, Note_on_c, 8, 88, 90
14, 13632, Note_off_c, 8, 88, 64
14, 13632, Note_on_c, 8, 80, 90
14, 13656, Note_off_c, 8, 80, 64
14, 13656, Note_on_c, 8, 88, 90
14, 13680, Note_off_c, 8, 88, 64
14, 13680, Note_on_c, 8, 76, 90
14, 13704, Note_off_c, 8, 76, 64
14, 13704, Note_on_c, 8, 88, 90
14, 13728, Note_off_c, 8, 88, 64
14, 13728, Note_on_c, 8, 83, 90
14, 13752, Note_off_c, 8, 83, 64
14, 13752, Note_on_c, 8, 80, 90
14, 13776, Note_off_c, 8, 80, 64
14, 13776, Note_on_c, 8, 76, 90
14, 13824, Note_off_c, 8, 76, 64
14, 13824, Note_on_c, 8, 73, 90
14, 13848, Note_off_c, 8, 73, 64
14, 13848, Note_on_c, 8, 81, 90
14, 13872, Note_off_c, 8, 81, 64
14, 13872, Note_on_c, 8, 69, 90
14, 13896, Note_off_c, 8, 69, 64
14, 13896, Note_on_c, 8, 81, 90
14, 13920, Note_off_c, 8, 81, 64
14, 13920, Note_on_c, 8, 85, 90
14, 13944, Note_off_c, 8, 85, 64
14, 14016, Note_on_c, 8, 62, 90
14, 14064, Note_off_c, 8, 62, 64
14, 14208, Note_on_c, 8, 71, 90
14, 14232, Note_off_c, 8, 71, 64
14, 14232, Note_on_c, 8, 79, 90
14, 14256, Note_off_c, 8, 79, 64
14, 14256, Note_on_c, 8, 67, 90
14, 14280, Note_off_c, 8, 67, 64
14, 14280, Note_on_c, 8, 79, 90
14, 14304, Note_off_c, 8, 79, 64
14, 14304, Note_on_c, 8, 86, 90
14, 14328, Note_off_c, 8, 86, 64
14, 14400, Note_on_c, 8, 60, 90
14, 14448, Note_off_c, 8, 60, 64
14, 14592, Note_on_c, 8, 74, 90
14, 14640, Note_off_c, 8, 74, 64
14, 14784, Note_on_c, 8, 72, 90
14, 14832, Note_off_c, 8, 72, 64
14, 14856, Note_on_c, 8, 76, 90
14, 14880, Note_off_c, 8, 76, 64
14, 14904, Note_on_c, 8, 72, 90
14, 14928, Note_off_c, 8, 72, 64
14, 14952, Note_on_c, 8, 69, 90
14, 14976, Note_off_c, 8, 69, 64
14, 15360, Note_on_c, 8, 100, 90
14, 16896, Note_off_c, 8, 100, 64
14, 16896, Note_on_c, 8, 100, 90
14, 16912, Note_off_c, 8, 100, 64
14, 16912, Note_on_c, 8, 101, 90
14, 16928, Note_off_c, 8, 101, 64
14, 16928, Note_on_c, 8, 100, 90
14, 16944, Note_off_c, 8, 100, 64
14, 16944, Note_on_c, 8, 101, 90
14, 16960, Note_off_c, 8, 101, 64
14, 16960, Note_on_c, 8, 100, 90
14, 16968, Note_off_c, 8, 100, 64
14, 16968, Note_on_c, 8, 101, 90
14, 16976, Note_off_c, 8, 101, 64
14, 16976, Note_on_c, 8, 100, 90
14, 16984, Note_off_c, 8, 100, 64
14, 16984, Note_on_c, 8, 101, 90
14, 16992, Note_off_c, 8, 101, 64
14, 16992, Note_on_c, 8, 100, 90
14, 17040, Note_off_c, 8, 100, 64
14, 17232, Note_on_c, 8, 93, 90
14, 17280, Note_off_c, 8, 93, 64
14, 17280, Note_on_c, 8, 91, 90
14, 17376, Note_off_c, 8, 91, 64
14, 17616, Note_on_c, 8, 96, 90
14, 17640, Note_off_c, 8, 96, 64
14, 17664, Note_on_c, 8, 95, 90
14, 17784, Note_off_c, 8, 95, 64
14, 17904, Note_on_c, 8, 100, 90
14, 17928, Note_off_c, 8, 100, 64
14, 17952, Note_on_c, 8, 100, 90
14, 17976, Note_off_c, 8, 100, 64
14, 18000, Note_on_c, 8, 100, 90
14, 18024, Note_off_c, 8, 100, 64
14, 18048, Note_on_c, 8, 101, 90
14, 18072, Note_off_c, 8, 101, 64
14, 18144, Note_on_c, 8, 98, 90
14, 18168, Note_off_c, 8, 98, 64
14, 18240, Note_on_c, 8, 96, 90
14, 18336, Note_off_c, 8, 96, 64
14, 18456, Note_on_c, 8, 69, 90
14, 18480, Note_off_c, 8, 69, 64
14, 18504, Note_on_c, 8, 72, 90
14, 18528, Note_off_c, 8, 72, 64
14, 18552, Note_on_c, 8, 71, 90
14, 18576, Note_off_c, 8, 71, 64
14, 18600, Note_on_c, 8, 69, 90
14, 18624, Note_off_c, 8, 69, 64
14, 18624, Note_on_c, 8, 68, 90
14, 18640, Note_off_c, 8, 68, 64
14, 18840, Note_on_c, 8, 69, 90
14, 18864, Note_off_c, 8, 69, 64
14, 18888, Note_on_c, 8, 72, 90
14, 18912, Note_off_c, 8, 72, 64
14, 18936, Note_on_c, 8, 71, 90
14, 18960, Note_off_c, 8, 71, 64
14, 18984, Note_on_c, 8, 69, 90
14, 19008, Note_off_c, 8, 69, 64
14, 19008, Note_on_c, 8, 76, 90
14, 19024, Note_off_c, 8, 76, 64
14, 19224, Note_on_c, 8, 69, 90
14, 19248, Note_off_c, 8, 69, 64
14, 19272, Note_on_c, 8, 72, 90
14, 19296, Note_off_c, 8, 72, 64
14, 19320, Note_on_c, 8, 71, 90
14, 19344, Note_off_c, 8, 71, 64
14, 19368, Note_on_c, 8, 69, 90
14, 19392, Note_off_c, 8, 69, 64
14, 19392, Note_on_c, 8, 68, 90
14, 19408, Note_off_c, 8, 68, 64
14, 19608, Note_on_c, 8, 69, 90
14, 19632, Note_off_c, 8, 69, 64
14, 19656, Note_on_c, 8, 72, 90
14, 19680, Note_off_c, 8, 72, 64
14, 19704, Note_on_c, 8, 71, 90
14, 19728, Note_off_c, 8, 71, 64
14, 19752, Note_on_c, 8, 69, 90
14, 19776, Note_off_c, 8, 69, 64
14, 19776, Note_on_c, 8, 76, 90
14, 19792, Note_off_c, 8, 76, 64
14, 19968, Note_on_c, 8, 61, 90
14, 20016, Note_off_c, 8, 61, 64
14, 20016, Note_on_c, 8, 61, 90
14, 20064, Note_off_c, 8, 61, 64
14, 20064, Note_on_c, 8, 61, 90
14, 20112, Note_off_c, 8, 61, 64
14, 20112, Note_on_c, 8, 61, 90
14, 20160, Note_off_c, 8, 61, 64
14, 20160, Note_on_c, 8, 50, 90
14, 20176, Note_off_c, 8, 50, 64
14, 20184, Note_on_c, 8, 67, 90
14, 20200, Note_off_c, 8, 67, 64
14, 20208, Note_on_c, 8, 69, 90
14, 20224, Note_off_c, 8, 69, 64
14, 20232, Note_on_c, 8, 79, 90
14, 20248, Note_off_c, 8, 79, 64
14, 20256, Note_on_c, 8, 81, 90
14, 20272, Note_off_c, 8, 81, 64
14, 20280, Note_on_c, 8, 91, 90
14, 20296, Note_off_c, 8, 91, 64
14, 20304, Note_on_c, 8, 93, 90
14, 20320, Note_off_c, 8, 93, 64
14, 20352, Note_on_c, 8, 59, 90
14, 20400, Note_off_c, 8, 59, 64
14, 20400, Note_on_c, 8, 59, 90
14, 20448, Note_off_c, 8, 59, 64
14, 20448, Note_on_c, 8, 59, 90
14, 20496, Note_off_c, 8, 59, 64
14, 20496, Note_on_c, 8, 59, 90
14, 20544, Note_off_c, 8, 59, 64
14, 20544, Note_on_c, 8, 48, 90
14, 20560, Note_off_c, 8, 48, 64
14, 20568, Note_on_c, 8, 65, 90
14, 20584, Note_off_c, 8, 65, 64
14, 20592, Note_on_c, 8, 67, 90
14, 20608, Note_off_c, 8, 67, 64
14, 20616, Note_on_c, 8, 77, 90
14, 20632, Note_off_c, 8, 77, 64
14, 20640, Note_on_c, 8, 79, 90
14, 20656, Note_off_c, 8, 79, 64
14, 20664, Note_on_c, 8, 89, 90
14, 20680, Note_off_c, 8, 89, 64
14, 20680, Note_on_c, 8, 91, 90
14, 20696, Note_off_c, 8, 91, 64
14, 20760, Note_on_c, 8, 71, 90
14, 20784, Note_off_c, 8, 71, 64
14, 20784, Note_on_c, 8, 71, 90
14, 20808, Note_off_c, 8, 71, 64
14, 20856, Note_on_c, 8, 69, 90
14, 20880, Note_off_c, 8, 69, 64
14, 20880, Note_on_c, 8, 69, 90
14, 20904, Note_off_c, 8, 69, 64
14, 20952, Note_on_c, 8, 67, 90
14, 20976, Note_off_c, 8, 67, 64
14, 20976, Note_on_c, 8, 67, 90
14, 21000, Note_off_c, 8, 67, 64
14, 21048, Note_on_c, 8, 65, 90
14, 21072, Note_off_c, 8, 65, 64
14, 21072, Note_on_c, 8, 65, 90
14, 21096, Note_off_c, 8, 65, 64
14, 21144, Note_on_c, 8, 65, 90
14, 21168, Note_off_c, 8, 65, 64
14, 21168, Note_on_c, 8, 65, 90
14, 21192, Note_off_c, 8, 65, 64
14, 21240, Note_on_c, 8, 65, 90
14, 21264, Note_off_c, 8, 65, 64
14, 21264, Note_on_c, 8, 65, 90
14, 21288, Note_off_c, 8, 65, 64
14, 21360, Note_on_c, 8, 71, 90
14, 21408, Note_off_c, 8, 71, 64
14, 21408, Note_on_c, 8, 52, 90
14, 21456, Note_off_c, 8, 52, 64
14, 21456, Note_on_c, 8, 71, 90
14, 21504, Note_off_c, 8, 71, 64
14, 21504, Note_on_c, 8, 48, 90
14, 21528, Note_off_c, 8, 48, 64
14, 21696, Note_on_c, 8, 49, 90
14, 21720, Note_off_c, 8, 49, 64
14, 21888, Note_on_c, 8, 53, 90
14, 21912, Note_off_c, 8, 53, 64
14, 22080, Note_on_c, 8, 53, 90
14, 22128, Note_off_c, 8, 53, 64
14, 22128, Note_on_c, 8, 56, 90
14, 22176, Note_off_c, 8, 56, 64
14, 22176, Note_on_c, 8, 59, 90
14, 22224, Note_off_c, 8, 59, 64
14, 22224, Note_on_c, 8, 53, 90
14, 22272, Note_off_c, 8, 53, 64
14, 22272, Note_on_c, 8, 48, 90
14, 22296, Note_off_c, 8, 48, 64
14, 22464, Note_on_c, 8, 49, 90
14, 22488, Note_off_c, 8, 49, 64
14, 22656, Note_on_c, 8, 53, 90
14, 22680, Note_off_c, 8, 53, 64
14, 22848, Note_on_c, 8, 53, 90
14, 22896, Note_off_c, 8, 53, 64
14, 22896, Note_on_c, 8, 56, 90
14, 22944, Note_off_c, 8, 56, 64
14, 22944, Note_on_c, 8, 59, 90
14, 22992, Note_off_c, 8, 59, 64
14, 22992, Note_on_c, 8, 53, 90
14, 23040, Note_off_c, 8, 53, 64
14, 24048, Note_on_c, 8, 81, 90
14, 24096, Note_off_c, 8, 81, 64
14, 24096, Note_on_c, 8, 93, 90
14, 24144, Note_off_c, 8, 93, 64
14, 24144, End_track
15, 0, Start_track
15, 0, MIDI_port, 0
15, 0, Title_t, "For more songs      "
15, 0, End_track
16, 0, Start_track
16, 0, MIDI_port, 0
16, 0, Title_t, "including full song "
16, 0, End_track
17, 0, Start_track
17, 0, MIDI_port, 0
17, 0, Title_t, "information!        "
17, 0, End_track
18, 0, Start_track
18, 0, MIDI_port, 0
18, 0, Title_t, "Write to:           "
18, 0, End_track
19, 0, Start_track
19, 0, MIDI_port, 0
19, 0, Title_t, "Express Internationa"
19, 0, End_track
20, 0, Start_track
20, 0, MIDI_port, 0
20, 0, Title_t, "l Software          "
20, 0, End_track
21, 0, Start_track
21, 0, MIDI_port, 0
21, 0, Title_t, "Box 610205, Port    "
21, 0, End_track
22, 0, Start_track
22, 0, MIDI_port, 0
22, 0, Title_t, "Huron, MI           "
22, 0, End_track
23, 0, Start_track
23, 0, MIDI_port, 0
23, 0, Title_t, "U.S.A.  48061-0205  "
23, 0, End_track
24, 0, Start_track
24, 0, MIDI_port, 0
24, 0, Title_t, "       OR           "
24, 0, End_track
25, 0, Start_track
25, 0, MIDI_port, 0
25, 0, Title_t, "Box 1524, North Bay "
25, 0, End_track
26, 0, Start_track
26, 0, MIDI_port, 0
26, 0, Title_t, "Ontario,            "
26, 0, End_track
27, 0, Start_track
27, 0, MIDI_port, 0
27, 0, Title_t, "Canada, P1B 8k6     "
27, 0, End_track
28, 0, Start_track
28, 0, MIDI_port, 0
28, 0, Title_t, "New Track           "
28, 0, End_track
29, 0, Start_track
29, 0, MIDI_port, 0
29, 0, Title_t, "One of the largest  "
29, 0, End_track
30, 0, Start_track
30, 0, MIDI_port, 0
30, 0, Title_t, "software collections"
30, 0, End_track
31, 0, Start_track
31, 0, MIDI_port, 0
31, 0, Title_t, "in North America!!  "
31, 0, End_track
32, 0, Start_track
32, 0, MIDI_port, 0
32, 0, Title_t, "Specializing in     "
32, 0, End_track
33, 0, Start_track
33, 0, MIDI_port, 0
33, 0, Title_t, "Sound Blaster,etc.),"
33, 0, End_track
34, 0, Start_track
34, 0, MIDI_port, 0
34, 0, Title_t, "Scientific s/w&h/w! "
34, 0, End_track
0, 0, End_of_file
