0, 0, Header, 1, 14, 192
1, 0, Start_track
1, 0, Sequencer_specific, 3, 0, 0, 65
1, 0, Time_signature, 4, 2, 24, 8
1, 0, Key_signature, 0, "major"
1, 0, Tempo, 1000000
1, 0, Marker_t, "Copyright (C) 1990 by Voyetra Technologies"
1, 0, Marker_t, "Copyright (C) 1991 by Voyetra Technologies"
1, 0, Marker_t, "Copyright (C) 1991 by Voyetra Technologies"
1, 0, Marker_t, "Keyboard"
1, 0, Marker_t, "Contrabass"
1, 0, Marker_t, "Str Sect"
1, 0, Marker_t, "Str Sect"
1, 0, Marker_t, "Str Sect"
1, 0, Marker_t, "Str Sect"
1, 0, Marker_t, "Violin"
1, 0, Marker_t, "Str Sect"
1, 0, Marker_t, "Harpsicord"
1, 0, Marker_t, "Rhythm"
1, 0, Marker_t, ""
1, 1536, Tempo, 909090
1, 2304, Tempo, 923076
1, 2688, Tempo, 937500
1, 2800, Tempo, 967741
1, 3072, Tempo, 909090
1, 8928, Tempo, 937500
1, 9216, Tempo, 857142
1, 10752, Tempo, 909090
1, 18048, Tempo, 1000000
1, 18432, Tempo, 882352
1, 36096, Tempo, 909090
1, 36864, Tempo, 857142
1, 36864, End_track
2, 0, Start_track
2, 0, MIDI_port, 0
2, 0, Title_t, "Contrabass"
2, 0, Program_c, 1, 43
2, 0, Control_c, 1, 7, 100
2, 0, Control_c, 1, 10, 90
2, 0, Control_c, 1, 121, 0
2, 0, Control_c, 1, 0, 0
2, 0, Program_c, 1, 43
2, 0, Control_c, 1, 10, 90
2, 0, Control_c, 1, 7, 90
2, 0, Pitch_bend_c, 1, 8192
2, 0, Control_c, 1, 1, 0
2, 0, Control_c, 1, 91, 100
2, 0, Control_c, 1, 91, 20
2, 0, Control_c, 1, 64, 0
2, 0, Control_c, 1, 11, 90
2, 0, Note_on_c, 1, 38, 92
2, 176, Note_on_c, 1, 38, 0
2, 192, Note_on_c, 1, 50, 92
2, 368, Note_on_c, 1, 50, 0
2, 384, Note_on_c, 1, 49, 87
2, 560, Note_on_c, 1, 49, 0
2, 576, Note_on_c, 1, 37, 87
2, 752, Note_on_c, 1, 37, 0
2, 768, Note_on_c, 1, 35, 101
2, 944, Note_on_c, 1, 35, 0
2, 960, Note_on_c, 1, 47, 106
2, 1136, Note_on_c, 1, 47, 0
2, 1152, Note_on_c, 1, 45, 101
2, 1328, Note_on_c, 1, 45, 0
2, 1344, Note_on_c, 1, 33, 102
2, 1520, Note_on_c, 1, 33, 0
2, 1536, Note_on_c, 1, 31, 104
2, 1712, Note_on_c, 1, 31, 0
2, 1728, Note_on_c, 1, 43, 110
2, 1904, Note_on_c, 1, 43, 0
2, 1920, Note_on_c, 1, 44, 106
2, 2096, Note_on_c, 1, 44, 0
2, 2112, Note_on_c, 1, 32, 106
2, 2288, Note_on_c, 1, 32, 0
2, 2304, Note_on_c, 1, 33, 112
2, 2480, Note_on_c, 1, 33, 0
2, 2496, Note_on_c, 1, 45, 122
2, 2672, Note_on_c, 1, 45, 0
2, 2688, Note_on_c, 1, 43, 112
2, 2864, Note_on_c, 1, 43, 0
2, 2880, Note_on_c, 1, 31, 112
2, 3056, Note_on_c, 1, 31, 0
2, 3072, Note_on_c, 1, 30, 112
2, 3248, Note_on_c, 1, 30, 0
2, 3264, Note_on_c, 1, 42, 122
2, 3440, Note_on_c, 1, 42, 0
2, 3456, Note_on_c, 1, 40, 112
2, 3632, Note_on_c, 1, 40, 0
2, 3648, Note_on_c, 1, 28, 112
2, 3824, Note_on_c, 1, 28, 0
2, 3840, Note_on_c, 1, 27, 112
2, 4016, Note_on_c, 1, 27, 0
2, 4032, Note_on_c, 1, 39, 122
2, 4208, Note_on_c, 1, 39, 0
2, 4224, Note_on_c, 1, 35, 112
2, 4400, Note_on_c, 1, 35, 0
2, 4416, Note_on_c, 1, 47, 112
2, 4592, Note_on_c, 1, 47, 0
2, 4608, Note_on_c, 1, 28, 112
2, 4784, Note_on_c, 1, 28, 0
2, 4800, Note_on_c, 1, 40, 122
2, 4976, Note_on_c, 1, 40, 0
2, 4992, Note_on_c, 1, 38, 112
2, 5168, Note_on_c, 1, 38, 0
2, 5184, Note_on_c, 1, 26, 112
2, 5360, Note_on_c, 1, 26, 0
2, 5376, Note_on_c, 1, 25, 112
2, 5552, Note_on_c, 1, 25, 0
2, 5568, Note_on_c, 1, 37, 122
2, 5744, Note_on_c, 1, 37, 0
2, 5760, Note_on_c, 1, 33, 112
2, 5936, Note_on_c, 1, 33, 0
2, 5952, Note_on_c, 1, 45, 112
2, 6128, Note_on_c, 1, 45, 0
2, 6144, Note_on_c, 1, 38, 112
2, 6320, Note_on_c, 1, 38, 0
2, 6336, Note_on_c, 1, 50, 122
2, 6512, Note_on_c, 1, 50, 0
2, 6528, Note_on_c, 1, 49, 112
2, 6704, Note_on_c, 1, 49, 0
2, 6720, Note_on_c, 1, 37, 112
2, 6896, Note_on_c, 1, 37, 0
2, 6912, Note_on_c, 1, 35, 112
2, 7088, Note_on_c, 1, 35, 0
2, 7104, Note_on_c, 1, 47, 122
2, 7280, Note_on_c, 1, 47, 0
2, 7296, Note_on_c, 1, 44, 112
2, 7472, Note_on_c, 1, 44, 0
2, 7488, Note_on_c, 1, 40, 112
2, 7664, Note_on_c, 1, 40, 0
2, 7680, Note_on_c, 1, 45, 112
2, 7856, Note_on_c, 1, 45, 0
2, 7872, Note_on_c, 1, 38, 122
2, 8048, Note_on_c, 1, 38, 0
2, 8064, Note_on_c, 1, 40, 112
2, 8240, Note_on_c, 1, 40, 0
2, 8256, Note_on_c, 1, 28, 112
2, 8432, Note_on_c, 1, 28, 0
2, 8448, Note_on_c, 1, 33, 112
2, 8528, Note_on_c, 1, 33, 0
2, 8544, Note_on_c, 1, 35, 117
2, 8624, Note_on_c, 1, 35, 0
2, 8640, Note_on_c, 1, 37, 122
2, 8720, Note_on_c, 1, 37, 0
2, 8736, Note_on_c, 1, 38, 122
2, 8816, Note_on_c, 1, 38, 0
2, 8832, Note_on_c, 1, 40, 124
2, 8912, Note_on_c, 1, 40, 0
2, 8928, Note_on_c, 1, 43, 127
2, 9008, Note_on_c, 1, 43, 0
2, 9024, Note_on_c, 1, 42, 122
2, 9104, Note_on_c, 1, 42, 0
2, 9120, Note_on_c, 1, 40, 112
2, 9200, Note_on_c, 1, 40, 0
2, 9216, Control_c, 1, 7, 110
2, 9216, Control_c, 1, 11, 110
2, 9216, Note_on_c, 1, 38, 102
2, 9392, Note_on_c, 1, 38, 0
2, 9408, Note_on_c, 1, 50, 112
2, 9584, Note_on_c, 1, 50, 0
2, 9600, Note_on_c, 1, 49, 102
2, 9776, Note_on_c, 1, 49, 0
2, 9792, Note_on_c, 1, 37, 102
2, 9968, Note_on_c, 1, 37, 0
2, 9984, Note_on_c, 1, 35, 112
2, 10160, Note_on_c, 1, 35, 0
2, 10176, Note_on_c, 1, 47, 112
2, 10352, Note_on_c, 1, 47, 0
2, 10368, Note_on_c, 1, 45, 112
2, 10544, Note_on_c, 1, 45, 0
2, 10560, Note_on_c, 1, 33, 112
2, 10736, Note_on_c, 1, 33, 0
2, 10752, Control_c, 1, 11, 110
2, 10752, Control_c, 1, 7, 120
2, 10752, Note_on_c, 1, 31, 112
2, 10928, Note_on_c, 1, 31, 0
2, 10944, Note_on_c, 1, 43, 122
2, 11120, Note_on_c, 1, 43, 0
2, 11136, Note_on_c, 1, 44, 112
2, 11312, Note_on_c, 1, 44, 0
2, 11328, Note_on_c, 1, 32, 112
2, 11504, Note_on_c, 1, 32, 0
2, 11520, Note_on_c, 1, 33, 112
2, 11696, Note_on_c, 1, 33, 0
2, 11712, Note_on_c, 1, 45, 122
2, 11888, Note_on_c, 1, 45, 0
2, 11904, Note_on_c, 1, 43, 112
2, 12080, Note_on_c, 1, 43, 0
2, 12096, Note_on_c, 1, 31, 112
2, 12272, Note_on_c, 1, 31, 0
2, 12288, Note_on_c, 1, 30, 112
2, 12464, Note_on_c, 1, 30, 0
2, 12480, Note_on_c, 1, 42, 122
2, 12656, Note_on_c, 1, 42, 0
2, 12672, Note_on_c, 1, 40, 112
2, 12848, Note_on_c, 1, 40, 0
2, 12864, Note_on_c, 1, 28, 112
2, 13040, Note_on_c, 1, 28, 0
2, 13056, Note_on_c, 1, 27, 112
2, 13232, Note_on_c, 1, 27, 0
2, 13248, Note_on_c, 1, 39, 122
2, 13424, Note_on_c, 1, 39, 0
2, 13440, Note_on_c, 1, 35, 112
2, 13616, Note_on_c, 1, 35, 0
2, 13632, Note_on_c, 1, 47, 112
2, 13808, Note_on_c, 1, 47, 0
2, 13824, Note_on_c, 1, 28, 112
2, 14000, Note_on_c, 1, 28, 0
2, 14016, Note_on_c, 1, 40, 122
2, 14192, Note_on_c, 1, 40, 0
2, 14208, Note_on_c, 1, 38, 112
2, 14384, Note_on_c, 1, 38, 0
2, 14400, Note_on_c, 1, 26, 112
2, 14576, Note_on_c, 1, 26, 0
2, 14592, Note_on_c, 1, 25, 112
2, 14768, Note_on_c, 1, 25, 0
2, 14784, Note_on_c, 1, 37, 122
2, 14960, Note_on_c, 1, 37, 0
2, 14976, Note_on_c, 1, 33, 112
2, 15152, Note_on_c, 1, 33, 0
2, 15168, Note_on_c, 1, 45, 112
2, 15344, Note_on_c, 1, 45, 0
2, 15360, Note_on_c, 1, 38, 112
2, 15536, Note_on_c, 1, 38, 0
2, 15552, Note_on_c, 1, 50, 122
2, 15728, Note_on_c, 1, 50, 0
2, 15744, Note_on_c, 1, 49, 112
2, 15920, Note_on_c, 1, 49, 0
2, 15936, Note_on_c, 1, 37, 112
2, 16112, Note_on_c, 1, 37, 0
2, 16128, Note_on_c, 1, 35, 112
2, 16304, Note_on_c, 1, 35, 0
2, 16320, Note_on_c, 1, 47, 122
2, 16496, Note_on_c, 1, 47, 0
2, 16512, Note_on_c, 1, 44, 112
2, 16688, Note_on_c, 1, 44, 0
2, 16704, Note_on_c, 1, 40, 112
2, 16880, Note_on_c, 1, 40, 0
2, 16896, Note_on_c, 1, 45, 112
2, 17072, Note_on_c, 1, 45, 0
2, 17088, Note_on_c, 1, 38, 122
2, 17264, Note_on_c, 1, 38, 0
2, 17280, Note_on_c, 1, 40, 112
2, 17456, Note_on_c, 1, 40, 0
2, 17472, Note_on_c, 1, 28, 112
2, 17648, Note_on_c, 1, 28, 0
2, 17664, Note_on_c, 1, 33, 112
2, 17744, Note_on_c, 1, 33, 0
2, 17760, Note_on_c, 1, 35, 117
2, 17840, Note_on_c, 1, 35, 0
2, 17856, Note_on_c, 1, 37, 122
2, 17936, Note_on_c, 1, 37, 0
2, 17952, Note_on_c, 1, 38, 122
2, 18032, Note_on_c, 1, 38, 0
2, 18048, Note_on_c, 1, 40, 127
2, 18128, Note_on_c, 1, 40, 0
2, 18144, Note_on_c, 1, 43, 127
2, 18224, Note_on_c, 1, 43, 0
2, 18240, Note_on_c, 1, 42, 127
2, 18320, Note_on_c, 1, 42, 0
2, 18336, Note_on_c, 1, 40, 112
2, 18416, Note_on_c, 1, 40, 0
2, 18432, Note_on_c, 1, 33, 112
2, 18608, Note_on_c, 1, 33, 0
2, 18624, Note_on_c, 1, 45, 122
2, 18800, Note_on_c, 1, 45, 0
2, 18816, Note_on_c, 1, 43, 117
2, 18992, Note_on_c, 1, 43, 0
2, 19008, Note_on_c, 1, 31, 112
2, 19184, Note_on_c, 1, 31, 0
2, 19200, Note_on_c, 1, 30, 112
2, 19376, Note_on_c, 1, 30, 0
2, 19392, Note_on_c, 1, 42, 122
2, 19568, Note_on_c, 1, 42, 0
2, 19584, Note_on_c, 1, 40, 117
2, 19760, Note_on_c, 1, 40, 0
2, 19776, Note_on_c, 1, 28, 112
2, 19952, Note_on_c, 1, 28, 0
2, 19968, Note_on_c, 1, 27, 112
2, 20144, Note_on_c, 1, 27, 0
2, 20160, Note_on_c, 1, 39, 122
2, 20336, Note_on_c, 1, 39, 0
2, 20352, Note_on_c, 1, 42, 117
2, 20528, Note_on_c, 1, 42, 0
2, 20544, Note_on_c, 1, 35, 112
2, 20720, Note_on_c, 1, 35, 0
2, 20736, Note_on_c, 1, 40, 112
2, 20912, Note_on_c, 1, 40, 0
2, 20928, Note_on_c, 1, 52, 122
2, 21104, Note_on_c, 1, 52, 0
2, 21120, Note_on_c, 1, 50, 117
2, 21296, Note_on_c, 1, 50, 0
2, 21312, Note_on_c, 1, 38, 112
2, 21488, Note_on_c, 1, 38, 0
2, 21504, Note_on_c, 1, 37, 112
2, 21680, Note_on_c, 1, 37, 0
2, 21696, Note_on_c, 1, 49, 122
2, 21872, Note_on_c, 1, 49, 0
2, 21888, Note_on_c, 1, 47, 117
2, 22064, Note_on_c, 1, 47, 0
2, 22080, Note_on_c, 1, 35, 112
2, 22256, Note_on_c, 1, 35, 0
2, 22272, Note_on_c, 1, 34, 112
2, 22448, Note_on_c, 1, 34, 0
2, 22464, Note_on_c, 1, 35, 122
2, 22640, Note_on_c, 1, 35, 0
2, 22656, Note_on_c, 1, 37, 117
2, 22832, Note_on_c, 1, 37, 0
2, 22848, Note_on_c, 1, 34, 112
2, 23024, Note_on_c, 1, 34, 0
2, 23040, Note_on_c, 1, 35, 112
2, 23216, Note_on_c, 1, 35, 0
2, 23232, Note_on_c, 1, 43, 122
2, 23408, Note_on_c, 1, 43, 0
2, 23424, Note_on_c, 1, 40, 117
2, 23600, Note_on_c, 1, 40, 0
2, 23616, Note_on_c, 1, 42, 112
2, 23792, Note_on_c, 1, 42, 0
2, 23808, Note_on_c, 1, 35, 112
2, 23984, Note_on_c, 1, 35, 0
2, 24000, Note_on_c, 1, 47, 122
2, 24176, Note_on_c, 1, 47, 0
2, 24192, Note_on_c, 1, 45, 117
2, 24368, Note_on_c, 1, 45, 0
2, 24384, Note_on_c, 1, 33, 112
2, 24560, Note_on_c, 1, 33, 0
2, 24576, Note_on_c, 1, 32, 112
2, 24752, Note_on_c, 1, 32, 0
2, 24768, Note_on_c, 1, 44, 122
2, 24944, Note_on_c, 1, 44, 0
2, 24960, Note_on_c, 1, 42, 117
2, 25136, Note_on_c, 1, 42, 0
2, 25152, Note_on_c, 1, 30, 112
2, 25328, Note_on_c, 1, 30, 0
2, 25344, Note_on_c, 1, 28, 112
2, 25520, Note_on_c, 1, 28, 0
2, 25536, Note_on_c, 1, 40, 122
2, 25712, Note_on_c, 1, 40, 0
2, 25728, Note_on_c, 1, 38, 117
2, 25904, Note_on_c, 1, 38, 0
2, 25920, Note_on_c, 1, 26, 112
2, 26096, Note_on_c, 1, 26, 0
2, 26112, Note_on_c, 1, 25, 112
2, 26288, Note_on_c, 1, 25, 0
2, 26304, Note_on_c, 1, 37, 122
2, 26480, Note_on_c, 1, 37, 0
2, 26496, Note_on_c, 1, 38, 117
2, 26672, Note_on_c, 1, 38, 0
2, 26688, Note_on_c, 1, 40, 112
2, 26864, Note_on_c, 1, 40, 0
2, 26880, Note_on_c, 1, 33, 112
2, 27056, Note_on_c, 1, 33, 0
2, 27072, Note_on_c, 1, 45, 122
2, 27248, Note_on_c, 1, 45, 0
2, 27264, Note_on_c, 1, 43, 117
2, 27440, Note_on_c, 1, 43, 0
2, 27456, Note_on_c, 1, 31, 112
2, 27632, Note_on_c, 1, 31, 0
2, 27648, Note_on_c, 1, 30, 112
2, 27824, Note_on_c, 1, 30, 0
2, 27840, Note_on_c, 1, 42, 122
2, 28016, Note_on_c, 1, 42, 0
2, 28032, Note_on_c, 1, 43, 117
2, 28208, Note_on_c, 1, 43, 0
2, 28224, Note_on_c, 1, 31, 112
2, 28400, Note_on_c, 1, 31, 0
2, 28416, Note_on_c, 1, 32, 112
2, 28592, Note_on_c, 1, 32, 0
2, 28608, Note_on_c, 1, 44, 122
2, 28784, Note_on_c, 1, 44, 0
2, 28800, Note_on_c, 1, 45, 117
2, 28976, Note_on_c, 1, 45, 0
2, 28992, Note_on_c, 1, 33, 112
2, 29168, Note_on_c, 1, 33, 0
2, 29184, Note_on_c, 1, 34, 112
2, 29360, Note_on_c, 1, 34, 0
2, 29376, Note_on_c, 1, 46, 122
2, 29552, Note_on_c, 1, 46, 0
2, 29568, Note_on_c, 1, 47, 117
2, 29744, Note_on_c, 1, 47, 0
2, 29760, Note_on_c, 1, 35, 112
2, 29936, Note_on_c, 1, 35, 0
2, 29952, Note_on_c, 1, 40, 112
2, 30128, Note_on_c, 1, 40, 0
2, 30144, Note_on_c, 1, 52, 122
2, 30320, Note_on_c, 1, 52, 0
2, 30336, Note_on_c, 1, 50, 117
2, 30512, Note_on_c, 1, 50, 0
2, 30528, Note_on_c, 1, 38, 112
2, 30704, Note_on_c, 1, 38, 0
2, 30720, Note_on_c, 1, 37, 112
2, 30896, Note_on_c, 1, 37, 0
2, 30912, Note_on_c, 1, 49, 122
2, 31088, Note_on_c, 1, 49, 0
2, 31104, Note_on_c, 1, 45, 117
2, 31280, Note_on_c, 1, 45, 0
2, 31296, Note_on_c, 1, 49, 112
2, 31472, Note_on_c, 1, 49, 0
2, 31488, Note_on_c, 1, 50, 112
2, 31664, Note_on_c, 1, 50, 0
2, 31680, Note_on_c, 1, 38, 122
2, 31856, Note_on_c, 1, 38, 0
2, 31872, Note_on_c, 1, 36, 117
2, 32048, Note_on_c, 1, 36, 0
2, 32064, Note_on_c, 1, 48, 112
2, 32240, Note_on_c, 1, 48, 0
2, 32256, Note_on_c, 1, 47, 112
2, 32432, Note_on_c, 1, 47, 0
2, 32448, Note_on_c, 1, 35, 122
2, 32624, Note_on_c, 1, 35, 0
2, 32640, Note_on_c, 1, 33, 117
2, 32816, Note_on_c, 1, 33, 0
2, 32832, Note_on_c, 1, 45, 112
2, 33008, Note_on_c, 1, 45, 0
2, 33024, Note_on_c, 1, 43, 112
2, 33200, Note_on_c, 1, 43, 0
2, 33216, Note_on_c, 1, 31, 122
2, 33392, Note_on_c, 1, 31, 0
2, 33408, Note_on_c, 1, 30, 117
2, 33584, Note_on_c, 1, 30, 0
2, 33600, Note_on_c, 1, 42, 112
2, 33776, Note_on_c, 1, 42, 0
2, 33792, Note_on_c, 1, 40, 112
2, 33968, Note_on_c, 1, 40, 0
2, 33984, Note_on_c, 1, 28, 122
2, 34160, Note_on_c, 1, 28, 0
2, 34176, Note_on_c, 1, 26, 117
2, 34352, Note_on_c, 1, 26, 0
2, 34368, Note_on_c, 1, 38, 112
2, 34544, Note_on_c, 1, 38, 0
2, 34560, Note_on_c, 1, 37, 112
2, 34736, Note_on_c, 1, 37, 0
2, 34752, Note_on_c, 1, 33, 122
2, 34928, Note_on_c, 1, 33, 0
2, 34944, Note_on_c, 1, 38, 117
2, 35120, Note_on_c, 1, 38, 0
2, 35136, Note_on_c, 1, 43, 112
2, 35312, Note_on_c, 1, 43, 0
2, 35328, Note_on_c, 1, 45, 112
2, 35504, Note_on_c, 1, 45, 0
2, 35520, Note_on_c, 1, 43, 122
2, 35696, Note_on_c, 1, 43, 0
2, 35712, Note_on_c, 1, 45, 117
2, 35888, Note_on_c, 1, 45, 0
2, 35904, Note_on_c, 1, 33, 112
2, 36080, Note_on_c, 1, 33, 0
2, 36096, Note_on_c, 1, 26, 112
2, 36856, Note_on_c, 1, 26, 0
2, 36864, Note_on_c, 1, 33, 112
2, 37040, Note_on_c, 1, 33, 0
2, 37056, Note_on_c, 1, 45, 122
2, 37232, Note_on_c, 1, 45, 0
2, 37248, Note_on_c, 1, 43, 117
2, 37424, Note_on_c, 1, 43, 0
2, 37440, Note_on_c, 1, 31, 112
2, 37616, Note_on_c, 1, 31, 0
2, 37632, Note_on_c, 1, 30, 112
2, 37808, Note_on_c, 1, 30, 0
2, 37824, Note_on_c, 1, 42, 122
2, 38000, Note_on_c, 1, 42, 0
2, 38016, Note_on_c, 1, 40, 117
2, 38192, Note_on_c, 1, 40, 0
2, 38208, Note_on_c, 1, 28, 112
2, 38384, Note_on_c, 1, 28, 0
2, 38400, Note_on_c, 1, 27, 112
2, 38576, Note_on_c, 1, 27, 0
2, 38592, Note_on_c, 1, 39, 122
2, 38768, Note_on_c, 1, 39, 0
2, 38784, Note_on_c, 1, 42, 117
2, 38960, Note_on_c, 1, 42, 0
2, 38976, Note_on_c, 1, 35, 112
2, 39152, Note_on_c, 1, 35, 0
2, 39168, Note_on_c, 1, 40, 112
2, 39344, Note_on_c, 1, 40, 0
2, 39360, Note_on_c, 1, 52, 122
2, 39536, Note_on_c, 1, 52, 0
2, 39552, Note_on_c, 1, 50, 117
2, 39728, Note_on_c, 1, 50, 0
2, 39744, Note_on_c, 1, 38, 112
2, 39920, Note_on_c, 1, 38, 0
2, 39936, Note_on_c, 1, 37, 112
2, 40112, Note_on_c, 1, 37, 0
2, 40128, Note_on_c, 1, 49, 122
2, 40304, Note_on_c, 1, 49, 0
2, 40320, Note_on_c, 1, 47, 117
2, 40496, Note_on_c, 1, 47, 0
2, 40512, Note_on_c, 1, 35, 112
2, 40688, Note_on_c, 1, 35, 0
2, 40704, Note_on_c, 1, 34, 112
2, 40880, Note_on_c, 1, 34, 0
2, 40896, Note_on_c, 1, 35, 122
2, 41072, Note_on_c, 1, 35, 0
2, 41088, Note_on_c, 1, 37, 117
2, 41264, Note_on_c, 1, 37, 0
2, 41280, Note_on_c, 1, 34, 112
2, 41456, Note_on_c, 1, 34, 0
2, 41472, Note_on_c, 1, 35, 112
2, 41648, Note_on_c, 1, 35, 0
2, 41664, Note_on_c, 1, 43, 122
2, 41840, Note_on_c, 1, 43, 0
2, 41856, Note_on_c, 1, 40, 117
2, 42032, Note_on_c, 1, 40, 0
2, 42048, Note_on_c, 1, 42, 112
2, 42224, Note_on_c, 1, 42, 0
2, 42240, Note_on_c, 1, 35, 112
2, 42416, Note_on_c, 1, 35, 0
2, 42432, Note_on_c, 1, 47, 122
2, 42608, Note_on_c, 1, 47, 0
2, 42624, Note_on_c, 1, 45, 117
2, 42800, Note_on_c, 1, 45, 0
2, 42816, Note_on_c, 1, 33, 112
2, 42992, Note_on_c, 1, 33, 0
2, 43008, Note_on_c, 1, 32, 112
2, 43184, Note_on_c, 1, 32, 0
2, 43200, Note_on_c, 1, 44, 122
2, 43376, Note_on_c, 1, 44, 0
2, 43392, Note_on_c, 1, 42, 117
2, 43568, Note_on_c, 1, 42, 0
2, 43584, Note_on_c, 1, 30, 112
2, 43760, Note_on_c, 1, 30, 0
2, 43776, Note_on_c, 1, 28, 112
2, 43952, Note_on_c, 1, 28, 0
2, 43968, Note_on_c, 1, 40, 122
2, 44144, Note_on_c, 1, 40, 0
2, 44160, Note_on_c, 1, 38, 117
2, 44336, Note_on_c, 1, 38, 0
2, 44352, Note_on_c, 1, 26, 112
2, 44528, Note_on_c, 1, 26, 0
2, 44544, Note_on_c, 1, 25, 112
2, 44720, Note_on_c, 1, 25, 0
2, 44736, Note_on_c, 1, 37, 122
2, 44912, Note_on_c, 1, 37, 0
2, 44928, Note_on_c, 1, 38, 117
2, 45104, Note_on_c, 1, 38, 0
2, 45120, Note_on_c, 1, 40, 112
2, 45296, Note_on_c, 1, 40, 0
2, 45312, Note_on_c, 1, 33, 112
2, 45488, Note_on_c, 1, 33, 0
2, 45504, Note_on_c, 1, 45, 122
2, 45680, Note_on_c, 1, 45, 0
2, 45696, Note_on_c, 1, 43, 117
2, 45872, Note_on_c, 1, 43, 0
2, 45888, Note_on_c, 1, 31, 112
2, 46064, Note_on_c, 1, 31, 0
2, 46080, Note_on_c, 1, 30, 112
2, 46256, Note_on_c, 1, 30, 0
2, 46272, Note_on_c, 1, 42, 122
2, 46448, Note_on_c, 1, 42, 0
2, 46464, Note_on_c, 1, 43, 117
2, 46640, Note_on_c, 1, 43, 0
2, 46656, Note_on_c, 1, 31, 112
2, 46832, Note_on_c, 1, 31, 0
2, 46848, Note_on_c, 1, 32, 112
2, 47024, Note_on_c, 1, 32, 0
2, 47040, Note_on_c, 1, 44, 122
2, 47216, Note_on_c, 1, 44, 0
2, 47232, Note_on_c, 1, 45, 117
2, 47408, Note_on_c, 1, 45, 0
2, 47424, Note_on_c, 1, 33, 112
2, 47600, Note_on_c, 1, 33, 0
2, 47616, Note_on_c, 1, 34, 112
2, 47792, Note_on_c, 1, 34, 0
2, 47808, Note_on_c, 1, 46, 122
2, 47984, Note_on_c, 1, 46, 0
2, 48000, Note_on_c, 1, 47, 117
2, 48176, Note_on_c, 1, 47, 0
2, 48192, Note_on_c, 1, 35, 112
2, 48368, Note_on_c, 1, 35, 0
2, 48384, Note_on_c, 1, 40, 112
2, 48560, Note_on_c, 1, 40, 0
2, 48576, Note_on_c, 1, 52, 122
2, 48752, Note_on_c, 1, 52, 0
2, 48768, Note_on_c, 1, 50, 117
2, 48944, Note_on_c, 1, 50, 0
2, 48960, Note_on_c, 1, 38, 112
2, 49136, Note_on_c, 1, 38, 0
2, 49152, Note_on_c, 1, 37, 112
2, 49328, Note_on_c, 1, 37, 0
2, 49344, Note_on_c, 1, 49, 122
2, 49520, Note_on_c, 1, 49, 0
2, 49536, Note_on_c, 1, 45, 117
2, 49712, Note_on_c, 1, 45, 0
2, 49728, Note_on_c, 1, 49, 112
2, 49904, Note_on_c, 1, 49, 0
2, 49920, Note_on_c, 1, 50, 112
2, 50096, Note_on_c, 1, 50, 0
2, 50112, Note_on_c, 1, 38, 122
2, 50288, Note_on_c, 1, 38, 0
2, 50304, Note_on_c, 1, 36, 117
2, 50480, Note_on_c, 1, 36, 0
2, 50496, Note_on_c, 1, 48, 112
2, 50672, Note_on_c, 1, 48, 0
2, 50688, Note_on_c, 1, 47, 112
2, 50864, Note_on_c, 1, 47, 0
2, 50880, Note_on_c, 1, 35, 122
2, 51056, Note_on_c, 1, 35, 0
2, 51072, Note_on_c, 1, 33, 117
2, 51248, Note_on_c, 1, 33, 0
2, 51264, Note_on_c, 1, 45, 112
2, 51440, Note_on_c, 1, 45, 0
2, 51456, Note_on_c, 1, 43, 112
2, 51632, Note_on_c, 1, 43, 0
2, 51648, Note_on_c, 1, 31, 122
2, 51824, Note_on_c, 1, 31, 0
2, 51840, Note_on_c, 1, 30, 117
2, 52016, Note_on_c, 1, 30, 0
2, 52032, Note_on_c, 1, 42, 112
2, 52208, Note_on_c, 1, 42, 0
2, 52224, Note_on_c, 1, 40, 112
2, 52400, Note_on_c, 1, 40, 0
2, 52416, Note_on_c, 1, 28, 122
2, 52592, Note_on_c, 1, 28, 0
2, 52608, Note_on_c, 1, 26, 117
2, 52784, Note_on_c, 1, 26, 0
2, 52800, Note_on_c, 1, 38, 112
2, 52976, Note_on_c, 1, 38, 0
2, 52992, Note_on_c, 1, 37, 112
2, 53168, Note_on_c, 1, 37, 0
2, 53184, Note_on_c, 1, 33, 122
2, 53360, Note_on_c, 1, 33, 0
2, 53376, Note_on_c, 1, 38, 117
2, 53552, Note_on_c, 1, 38, 0
2, 53568, Note_on_c, 1, 43, 112
2, 53744, Note_on_c, 1, 43, 0
2, 53760, Note_on_c, 1, 45, 112
2, 53936, Note_on_c, 1, 45, 0
2, 53952, Note_on_c, 1, 43, 122
2, 54128, Note_on_c, 1, 43, 0
2, 54144, Note_on_c, 1, 45, 117
2, 54320, Note_on_c, 1, 45, 0
2, 54336, Note_on_c, 1, 33, 112
2, 54512, Note_on_c, 1, 33, 0
2, 54528, Note_on_c, 1, 26, 112
2, 54528, Control_c, 1, 7, 81
2, 54560, Control_c, 1, 7, 83
2, 54592, Control_c, 1, 7, 84
2, 54608, Control_c, 1, 7, 85
2, 54656, Control_c, 1, 7, 87
2, 54672, Control_c, 1, 7, 88
2, 54720, Control_c, 1, 7, 89
2, 54736, Control_c, 1, 7, 91
2, 54784, Control_c, 1, 7, 93
2, 54800, Control_c, 1, 7, 95
2, 54832, Control_c, 1, 7, 96
2, 54848, Control_c, 1, 7, 97
2, 54864, Control_c, 1, 7, 99
2, 54880, Control_c, 1, 7, 101
2, 54912, Control_c, 1, 7, 103
2, 54928, Control_c, 1, 7, 105
2, 54944, Control_c, 1, 7, 107
2, 54976, Control_c, 1, 7, 110
2, 54992, Control_c, 1, 7, 112
2, 55008, Control_c, 1, 7, 113
2, 55040, Control_c, 1, 7, 117
2, 55056, Control_c, 1, 7, 118
2, 55072, Control_c, 1, 7, 119
2, 55104, Control_c, 1, 7, 121
2, 55120, Control_c, 1, 7, 122
2, 55152, Control_c, 1, 7, 123
2, 55168, Control_c, 1, 7, 124
2, 55184, Control_c, 1, 7, 125
2, 55216, Control_c, 1, 7, 126
2, 55296, Control_c, 1, 7, 125
2, 55312, Control_c, 1, 7, 124
2, 55328, Control_c, 1, 7, 122
2, 55344, Control_c, 1, 7, 120
2, 55360, Control_c, 1, 7, 116
2, 55376, Control_c, 1, 7, 112
2, 55392, Control_c, 1, 7, 111
2, 55408, Control_c, 1, 7, 106
2, 55424, Control_c, 1, 7, 102
2, 55440, Control_c, 1, 7, 100
2, 55456, Control_c, 1, 7, 98
2, 55472, Control_c, 1, 7, 87
2, 55488, Control_c, 1, 7, 74
2, 55504, Control_c, 1, 7, 60
2, 55520, Control_c, 1, 7, 58
2, 55536, Control_c, 1, 7, 42
2, 55552, Control_c, 1, 7, 34
2, 55568, Control_c, 1, 7, 25
2, 55584, Control_c, 1, 7, 24
2, 55600, Control_c, 1, 7, 20
2, 55616, Control_c, 1, 7, 17
2, 55632, Control_c, 1, 7, 16
2, 55648, Control_c, 1, 7, 14
2, 55664, Control_c, 1, 7, 12
2, 55680, Control_c, 1, 7, 11
2, 55696, Control_c, 1, 7, 10
2, 55728, Control_c, 1, 7, 8
2, 55744, Control_c, 1, 7, 6
2, 55792, Control_c, 1, 7, 5
2, 55808, Control_c, 1, 7, 4
2, 55856, Control_c, 1, 7, 2
2, 56048, Note_on_c, 1, 26, 0
2, 56048, End_track
3, 0, Start_track
3, 0, MIDI_port, 0
3, 0, Title_t, "SynthStrings"
3, 0, Program_c, 2, 50
3, 0, Control_c, 2, 7, 100
3, 0, Control_c, 2, 10, 40
3, 0, Control_c, 2, 121, 0
3, 0, Control_c, 2, 0, 0
3, 0, Program_c, 2, 50
3, 0, Control_c, 2, 10, 40
3, 0, Control_c, 2, 7, 31
3, 0, Note_on_c, 2, 78, 100
3, 0, Pitch_bend_c, 2, 8192
3, 0, Control_c, 2, 64, 0
3, 0, Control_c, 2, 91, 80
3, 0, Control_c, 2, 93, 30
3, 0, Control_c, 2, 11, 120
3, 0, Control_c, 2, 7, 43
3, 144, Control_c, 2, 7, 44
3, 160, Control_c, 2, 7, 43
3, 176, Control_c, 2, 7, 45
3, 240, Control_c, 2, 7, 46
3, 256, Control_c, 2, 7, 45
3, 288, Control_c, 2, 7, 48
3, 320, Control_c, 2, 7, 49
3, 336, Control_c, 2, 7, 50
3, 384, Control_c, 2, 7, 52
3, 432, Control_c, 2, 7, 54
3, 464, Control_c, 2, 7, 55
3, 496, Control_c, 2, 7, 56
3, 512, Control_c, 2, 7, 57
3, 528, Control_c, 2, 7, 58
3, 576, Control_c, 2, 7, 60
3, 592, Control_c, 2, 7, 61
3, 608, Control_c, 2, 7, 62
3, 640, Control_c, 2, 7, 63
3, 656, Control_c, 2, 7, 64
3, 688, Control_c, 2, 7, 65
3, 704, Control_c, 2, 7, 66
3, 736, Control_c, 2, 7, 67
3, 752, Control_c, 2, 7, 68
3, 768, Control_c, 2, 7, 69
3, 784, Control_c, 2, 7, 70
3, 816, Control_c, 2, 7, 71
3, 832, Control_c, 2, 7, 72
3, 848, Control_c, 2, 7, 74
3, 880, Control_c, 2, 7, 75
3, 896, Control_c, 2, 7, 76
3, 944, Control_c, 2, 7, 78
3, 960, Control_c, 2, 7, 80
3, 1008, Control_c, 2, 7, 82
3, 1040, Control_c, 2, 7, 83
3, 1072, Control_c, 2, 7, 84
3, 1088, Control_c, 2, 7, 86
3, 1104, Control_c, 2, 7, 87
3, 1120, Control_c, 2, 7, 88
3, 1152, Control_c, 2, 7, 90
3, 1168, Control_c, 2, 7, 91
3, 1184, Control_c, 2, 7, 92
3, 1200, Control_c, 2, 7, 93
3, 1216, Control_c, 2, 7, 94
3, 1232, Control_c, 2, 7, 95
3, 1264, Control_c, 2, 7, 96
3, 1312, Control_c, 2, 7, 101
3, 1328, Control_c, 2, 7, 102
3, 1344, Control_c, 2, 7, 103
3, 1376, Control_c, 2, 7, 105
3, 1392, Control_c, 2, 7, 106
3, 1408, Control_c, 2, 7, 107
3, 1424, Control_c, 2, 7, 106
3, 1440, Control_c, 2, 7, 109
3, 1456, Control_c, 2, 7, 111
3, 1504, Control_c, 2, 7, 113
3, 1520, Control_c, 2, 7, 114
3, 1536, Control_c, 2, 7, 115
3, 1568, Control_c, 2, 7, 117
3, 1584, Control_c, 2, 7, 119
3, 1616, Control_c, 2, 7, 121
3, 1716, Note_on_c, 2, 78, 0
3, 1728, Control_c, 2, 7, 85
3, 1728, Note_on_c, 2, 83, 90
3, 1752, Control_c, 2, 7, 95
3, 1776, Control_c, 2, 7, 100
3, 1800, Control_c, 2, 7, 115
3, 1820, Note_on_c, 2, 83, 0
3, 1824, Control_c, 2, 7, 85
3, 1824, Note_on_c, 2, 79, 100
3, 1848, Control_c, 2, 7, 95
3, 1872, Control_c, 2, 7, 100
3, 1896, Control_c, 2, 7, 115
3, 1916, Note_on_c, 2, 79, 0
3, 1920, Control_c, 2, 7, 85
3, 1920, Note_on_c, 2, 78, 120
3, 1932, Note_on_c, 2, 76, 100
3, 1932, Note_on_c, 2, 78, 0
3, 1944, Control_c, 2, 7, 95
3, 1968, Control_c, 2, 7, 100
3, 1992, Control_c, 2, 7, 115
3, 2016, Control_c, 2, 7, 85
3, 2016, Note_on_c, 2, 74, 100
3, 2016, Note_on_c, 2, 76, 0
3, 2040, Control_c, 2, 7, 95
3, 2064, Control_c, 2, 7, 100
3, 2088, Control_c, 2, 7, 115
3, 2108, Note_on_c, 2, 74, 0
3, 2112, Control_c, 2, 7, 85
3, 2112, Note_on_c, 2, 73, 100
3, 2136, Control_c, 2, 7, 95
3, 2160, Control_c, 2, 7, 100
3, 2184, Control_c, 2, 7, 115
3, 2204, Note_on_c, 2, 73, 0
3, 2208, Control_c, 2, 7, 85
3, 2208, Note_on_c, 2, 74, 100
3, 2232, Control_c, 2, 7, 95
3, 2256, Control_c, 2, 7, 100
3, 2280, Control_c, 2, 7, 115
3, 2300, Note_on_c, 2, 74, 0
3, 2304, Control_c, 2, 7, 85
3, 2304, Note_on_c, 2, 73, 110
3, 2352, Control_c, 2, 7, 90
3, 2400, Control_c, 2, 7, 95
3, 2448, Control_c, 2, 7, 100
3, 2496, Control_c, 2, 7, 105
3, 2544, Control_c, 2, 7, 110
3, 2592, Control_c, 2, 7, 115
3, 2684, Note_on_c, 2, 73, 0
3, 2688, Control_c, 2, 7, 85
3, 2688, Note_on_c, 2, 71, 100
3, 2776, Note_on_c, 2, 69, 100
3, 2776, Control_c, 2, 7, 90
3, 2776, Note_on_c, 2, 71, 0
3, 2800, Control_c, 2, 7, 95
3, 2848, Control_c, 2, 7, 100
3, 2896, Control_c, 2, 7, 105
3, 2944, Control_c, 2, 7, 110
3, 2992, Control_c, 2, 7, 115
3, 3072, Note_on_c, 2, 81, 110
3, 3072, Control_c, 2, 7, 60
3, 3088, Note_on_c, 2, 69, 0
3, 3120, Control_c, 2, 7, 65
3, 3168, Control_c, 2, 7, 70
3, 3216, Control_c, 2, 7, 75
3, 3264, Control_c, 2, 7, 80
3, 3312, Control_c, 2, 7, 85
3, 3360, Control_c, 2, 7, 90
3, 3408, Control_c, 2, 7, 95
3, 3456, Control_c, 2, 7, 100
3, 3552, Control_c, 2, 7, 105
3, 3648, Control_c, 2, 7, 110
3, 3744, Control_c, 2, 7, 115
3, 3936, Control_c, 2, 7, 85
3, 3936, Note_on_c, 2, 78, 110
3, 3936, Note_on_c, 2, 81, 0
3, 3960, Control_c, 2, 7, 95
3, 3984, Control_c, 2, 7, 105
3, 4008, Control_c, 2, 7, 115
3, 4028, Note_on_c, 2, 78, 0
3, 4032, Control_c, 2, 7, 85
3, 4032, Note_on_c, 2, 72, 110
3, 4056, Control_c, 2, 7, 95
3, 4080, Control_c, 2, 7, 105
3, 4104, Control_c, 2, 7, 115
3, 4128, Control_c, 2, 7, 85
3, 4128, Note_on_c, 2, 71, 100
3, 4128, Note_on_c, 2, 72, 0
3, 4152, Control_c, 2, 7, 95
3, 4176, Control_c, 2, 7, 105
3, 4200, Control_c, 2, 7, 115
3, 4220, Note_on_c, 2, 71, 0
3, 4224, Control_c, 2, 7, 85
3, 4224, Note_on_c, 2, 76, 110
3, 4248, Control_c, 2, 7, 95
3, 4272, Control_c, 2, 7, 105
3, 4296, Control_c, 2, 7, 115
3, 4320, Control_c, 2, 7, 85
3, 4320, Note_on_c, 2, 75, 100
3, 4320, Note_on_c, 2, 76, 0
3, 4344, Control_c, 2, 7, 95
3, 4368, Control_c, 2, 7, 105
3, 4392, Control_c, 2, 7, 115
3, 4412, Note_on_c, 2, 75, 0
3, 4416, Control_c, 2, 7, 85
3, 4416, Note_on_c, 2, 81, 110
3, 4440, Control_c, 2, 7, 95
3, 4464, Control_c, 2, 7, 105
3, 4488, Control_c, 2, 7, 115
3, 4512, Control_c, 2, 7, 85
3, 4512, Note_on_c, 2, 79, 100
3, 4512, Note_on_c, 2, 81, 0
3, 4536, Control_c, 2, 7, 95
3, 4560, Control_c, 2, 7, 105
3, 4584, Control_c, 2, 7, 115
3, 4604, Note_on_c, 2, 79, 0
3, 4608, Note_on_c, 2, 79, 100
3, 4608, Control_c, 2, 7, 60
3, 4656, Control_c, 2, 7, 65
3, 4704, Control_c, 2, 7, 70
3, 4752, Control_c, 2, 7, 75
3, 4800, Control_c, 2, 7, 80
3, 4848, Control_c, 2, 7, 85
3, 4896, Control_c, 2, 7, 90
3, 4944, Control_c, 2, 7, 95
3, 4992, Control_c, 2, 7, 100
3, 5088, Control_c, 2, 7, 105
3, 5184, Control_c, 2, 7, 110
3, 5280, Control_c, 2, 7, 115
3, 5472, Control_c, 2, 7, 85
3, 5472, Note_on_c, 2, 76, 110
3, 5472, Note_on_c, 2, 79, 0
3, 5496, Control_c, 2, 7, 95
3, 5520, Control_c, 2, 7, 105
3, 5544, Control_c, 2, 7, 115
3, 5564, Note_on_c, 2, 76, 0
3, 5568, Control_c, 2, 7, 85
3, 5568, Note_on_c, 2, 71, 110
3, 5592, Control_c, 2, 7, 95
3, 5616, Control_c, 2, 7, 105
3, 5640, Control_c, 2, 7, 115
3, 5664, Control_c, 2, 7, 85
3, 5664, Note_on_c, 2, 69, 100
3, 5664, Note_on_c, 2, 71, 0
3, 5688, Control_c, 2, 7, 95
3, 5712, Control_c, 2, 7, 105
3, 5736, Control_c, 2, 7, 115
3, 5756, Note_on_c, 2, 69, 0
3, 5760, Control_c, 2, 7, 85
3, 5760, Note_on_c, 2, 74, 110
3, 5784, Control_c, 2, 7, 95
3, 5808, Control_c, 2, 7, 105
3, 5832, Control_c, 2, 7, 115
3, 5856, Control_c, 2, 7, 85
3, 5856, Note_on_c, 2, 73, 100
3, 5856, Note_on_c, 2, 74, 0
3, 5880, Control_c, 2, 7, 95
3, 5904, Control_c, 2, 7, 105
3, 5928, Control_c, 2, 7, 115
3, 5948, Note_on_c, 2, 73, 0
3, 5952, Control_c, 2, 7, 85
3, 5952, Note_on_c, 2, 79, 110
3, 5976, Control_c, 2, 7, 95
3, 6000, Control_c, 2, 7, 105
3, 6024, Control_c, 2, 7, 115
3, 6048, Control_c, 2, 7, 85
3, 6048, Note_on_c, 2, 78, 100
3, 6048, Note_on_c, 2, 79, 0
3, 6072, Control_c, 2, 7, 95
3, 6096, Control_c, 2, 7, 105
3, 6120, Control_c, 2, 7, 115
3, 6140, Note_on_c, 2, 78, 0
3, 6144, Control_c, 2, 7, 80
3, 6144, Note_on_c, 2, 78, 110
3, 6192, Control_c, 2, 7, 85
3, 6240, Control_c, 2, 7, 90
3, 6288, Control_c, 2, 7, 95
3, 6336, Control_c, 2, 7, 100
3, 6384, Control_c, 2, 7, 105
3, 6432, Control_c, 2, 7, 110
3, 6528, Control_c, 2, 7, 115
3, 6716, Note_on_c, 2, 78, 0
3, 6720, Control_c, 2, 7, 85
3, 6720, Note_on_c, 2, 80, 100
3, 6744, Control_c, 2, 7, 95
3, 6768, Control_c, 2, 7, 105
3, 6792, Control_c, 2, 7, 115
3, 6816, Note_on_c, 2, 81, 100
3, 6816, Note_on_c, 2, 80, 0
3, 6908, Note_on_c, 2, 81, 0
3, 6912, Control_c, 2, 7, 85
3, 6912, Note_on_c, 2, 74, 110
3, 6960, Control_c, 2, 7, 95
3, 7008, Control_c, 2, 7, 105
3, 7056, Control_c, 2, 7, 115
3, 7100, Note_on_c, 2, 74, 0
3, 7104, Control_c, 2, 7, 85
3, 7104, Note_on_c, 2, 74, 110
3, 7116, Control_c, 2, 7, 95
3, 7128, Control_c, 2, 7, 105
3, 7140, Control_c, 2, 7, 115
3, 7148, Note_on_c, 2, 74, 0
3, 7152, Control_c, 2, 7, 85
3, 7152, Note_on_c, 2, 76, 100
3, 7164, Control_c, 2, 7, 95
3, 7176, Control_c, 2, 7, 105
3, 7188, Control_c, 2, 7, 115
3, 7196, Note_on_c, 2, 76, 0
3, 7200, Control_c, 2, 7, 85
3, 7200, Note_on_c, 2, 78, 110
3, 7224, Control_c, 2, 7, 95
3, 7248, Control_c, 2, 7, 105
3, 7272, Control_c, 2, 7, 115
3, 7392, Control_c, 2, 7, 85
3, 7392, Note_on_c, 2, 76, 100
3, 7392, Note_on_c, 2, 78, 0
3, 7416, Control_c, 2, 7, 95
3, 7440, Control_c, 2, 7, 105
3, 7464, Control_c, 2, 7, 115
3, 7484, Note_on_c, 2, 76, 0
3, 7488, Control_c, 2, 7, 85
3, 7488, Note_on_c, 2, 76, 110
3, 7512, Control_c, 2, 7, 95
3, 7536, Control_c, 2, 7, 105
3, 7560, Control_c, 2, 7, 115
3, 7584, Control_c, 2, 7, 85
3, 7584, Note_on_c, 2, 74, 100
3, 7584, Note_on_c, 2, 76, 0
3, 7608, Control_c, 2, 7, 95
3, 7632, Control_c, 2, 7, 105
3, 7656, Control_c, 2, 7, 115
3, 7676, Note_on_c, 2, 74, 0
3, 7680, Control_c, 2, 7, 85
3, 7680, Note_on_c, 2, 73, 110
3, 7704, Control_c, 2, 7, 95
3, 7728, Control_c, 2, 7, 105
3, 7752, Control_c, 2, 7, 115
3, 7772, Note_on_c, 2, 73, 0
3, 7776, Control_c, 2, 7, 85
3, 7776, Note_on_c, 2, 71, 110
3, 7800, Control_c, 2, 7, 95
3, 7824, Control_c, 2, 7, 105
3, 7848, Control_c, 2, 7, 115
3, 7868, Note_on_c, 2, 71, 0
3, 7872, Control_c, 2, 7, 85
3, 7872, Note_on_c, 2, 71, 100
3, 7884, Control_c, 2, 7, 95
3, 7896, Control_c, 2, 7, 105
3, 7908, Control_c, 2, 7, 115
3, 7916, Note_on_c, 2, 71, 0
3, 7920, Control_c, 2, 7, 85
3, 7920, Note_on_c, 2, 73, 110
3, 7932, Control_c, 2, 7, 95
3, 7944, Control_c, 2, 7, 105
3, 7956, Control_c, 2, 7, 115
3, 7964, Note_on_c, 2, 73, 0
3, 7968, Control_c, 2, 7, 85
3, 7968, Note_on_c, 2, 74, 100
3, 7992, Control_c, 2, 7, 95
3, 8016, Control_c, 2, 7, 105
3, 8040, Control_c, 2, 7, 115
3, 8252, Note_on_c, 2, 74, 0
3, 8256, Control_c, 2, 7, 85
3, 8256, Note_on_c, 2, 73, 110
3, 8280, Control_c, 2, 7, 95
3, 8304, Control_c, 2, 7, 105
3, 8328, Control_c, 2, 7, 115
3, 8348, Note_on_c, 2, 73, 0
3, 8352, Control_c, 2, 7, 85
3, 8352, Note_on_c, 2, 71, 100
3, 8376, Control_c, 2, 7, 95
3, 8400, Control_c, 2, 7, 105
3, 8424, Control_c, 2, 7, 115
3, 8444, Note_on_c, 2, 71, 0
3, 8448, Control_c, 2, 7, 60
3, 8448, Note_on_c, 2, 69, 100
3, 8496, Control_c, 2, 7, 65
3, 8544, Control_c, 2, 7, 70
3, 8592, Control_c, 2, 7, 75
3, 8640, Control_c, 2, 7, 80
3, 8688, Control_c, 2, 7, 85
3, 8736, Control_c, 2, 7, 90
3, 8784, Control_c, 2, 7, 95
3, 8832, Control_c, 2, 7, 100
3, 8928, Control_c, 2, 7, 105
3, 9024, Control_c, 2, 7, 110
3, 9120, Control_c, 2, 7, 115
3, 9208, Note_on_c, 2, 69, 0
3, 9216, Note_on_c, 2, 78, 100
3, 9216, Control_c, 2, 7, 85
3, 9216, Control_c, 2, 11, 120
3, 9264, Control_c, 2, 7, 87
3, 9312, Control_c, 2, 7, 89
3, 9360, Control_c, 2, 7, 91
3, 9408, Control_c, 2, 7, 93
3, 9456, Control_c, 2, 7, 95
3, 9504, Control_c, 2, 7, 97
3, 9552, Control_c, 2, 7, 99
3, 9600, Control_c, 2, 7, 101
3, 9648, Control_c, 2, 7, 103
3, 9696, Control_c, 2, 7, 105
3, 9744, Control_c, 2, 7, 107
3, 9792, Control_c, 2, 7, 109
3, 9840, Control_c, 2, 7, 111
3, 9888, Control_c, 2, 7, 113
3, 9936, Control_c, 2, 7, 115
3, 10752, Control_c, 2, 7, 112
3, 10800, Control_c, 2, 7, 115
3, 10848, Control_c, 2, 7, 117
3, 10932, Note_on_c, 2, 78, 0
3, 10944, Control_c, 2, 7, 85
3, 10944, Note_on_c, 2, 83, 90
3, 10968, Control_c, 2, 7, 95
3, 10992, Control_c, 2, 7, 100
3, 11016, Control_c, 2, 7, 115
3, 11036, Note_on_c, 2, 83, 0
3, 11040, Control_c, 2, 7, 85
3, 11040, Note_on_c, 2, 79, 100
3, 11064, Control_c, 2, 7, 95
3, 11088, Control_c, 2, 7, 100
3, 11112, Control_c, 2, 7, 115
3, 11132, Note_on_c, 2, 79, 0
3, 11136, Control_c, 2, 7, 85
3, 11136, Note_on_c, 2, 78, 100
3, 11148, Note_on_c, 2, 76, 100
3, 11148, Note_on_c, 2, 78, 0
3, 11160, Control_c, 2, 7, 95
3, 11184, Control_c, 2, 7, 100
3, 11208, Control_c, 2, 7, 115
3, 11232, Control_c, 2, 7, 85
3, 11232, Note_on_c, 2, 74, 100
3, 11232, Note_on_c, 2, 76, 0
3, 11256, Control_c, 2, 7, 95
3, 11280, Control_c, 2, 7, 100
3, 11304, Control_c, 2, 7, 115
3, 11324, Note_on_c, 2, 74, 0
3, 11328, Control_c, 2, 7, 85
3, 11328, Note_on_c, 2, 73, 100
3, 11352, Control_c, 2, 7, 95
3, 11376, Control_c, 2, 7, 100
3, 11400, Control_c, 2, 7, 115
3, 11420, Note_on_c, 2, 73, 0
3, 11424, Control_c, 2, 7, 85
3, 11424, Note_on_c, 2, 74, 100
3, 11448, Control_c, 2, 7, 95
3, 11472, Control_c, 2, 7, 100
3, 11496, Control_c, 2, 7, 115
3, 11516, Note_on_c, 2, 74, 0
3, 11520, Control_c, 2, 7, 85
3, 11520, Note_on_c, 2, 73, 100
3, 11568, Control_c, 2, 7, 90
3, 11616, Control_c, 2, 7, 95
3, 11664, Control_c, 2, 7, 100
3, 11712, Control_c, 2, 7, 105
3, 11760, Control_c, 2, 7, 110
3, 11808, Control_c, 2, 7, 115
3, 11904, Control_c, 2, 7, 85
3, 11904, Note_on_c, 2, 71, 100
3, 11904, Note_on_c, 2, 73, 0
3, 11984, Note_on_c, 2, 71, 0
3, 11992, Note_on_c, 2, 69, 100
3, 11992, Control_c, 2, 7, 90
3, 12016, Control_c, 2, 7, 95
3, 12064, Control_c, 2, 7, 100
3, 12112, Control_c, 2, 7, 105
3, 12160, Control_c, 2, 7, 110
3, 12208, Control_c, 2, 7, 115
3, 12288, Note_on_c, 2, 81, 100
3, 12288, Control_c, 2, 7, 60
3, 12304, Note_on_c, 2, 69, 0
3, 12336, Control_c, 2, 7, 65
3, 12384, Control_c, 2, 7, 70
3, 12432, Control_c, 2, 7, 75
3, 12480, Control_c, 2, 7, 80
3, 12528, Control_c, 2, 7, 85
3, 12576, Control_c, 2, 7, 90
3, 12624, Control_c, 2, 7, 95
3, 12672, Control_c, 2, 7, 100
3, 12768, Control_c, 2, 7, 105
3, 12864, Control_c, 2, 7, 110
3, 12960, Control_c, 2, 7, 115
3, 13152, Control_c, 2, 7, 85
3, 13152, Note_on_c, 2, 78, 110
3, 13152, Note_on_c, 2, 81, 0
3, 13176, Control_c, 2, 7, 95
3, 13200, Control_c, 2, 7, 105
3, 13224, Control_c, 2, 7, 115
3, 13244, Note_on_c, 2, 78, 0
3, 13248, Control_c, 2, 7, 85
3, 13248, Note_on_c, 2, 72, 110
3, 13272, Control_c, 2, 7, 95
3, 13296, Control_c, 2, 7, 105
3, 13320, Control_c, 2, 7, 115
3, 13344, Control_c, 2, 7, 85
3, 13344, Note_on_c, 2, 71, 100
3, 13344, Note_on_c, 2, 72, 0
3, 13368, Control_c, 2, 7, 95
3, 13392, Control_c, 2, 7, 105
3, 13416, Control_c, 2, 7, 115
3, 13436, Note_on_c, 2, 71, 0
3, 13440, Control_c, 2, 7, 85
3, 13440, Note_on_c, 2, 76, 110
3, 13464, Control_c, 2, 7, 95
3, 13488, Control_c, 2, 7, 105
3, 13512, Control_c, 2, 7, 115
3, 13536, Control_c, 2, 7, 85
3, 13536, Note_on_c, 2, 75, 100
3, 13536, Note_on_c, 2, 76, 0
3, 13560, Control_c, 2, 7, 95
3, 13584, Control_c, 2, 7, 105
3, 13608, Control_c, 2, 7, 115
3, 13628, Note_on_c, 2, 75, 0
3, 13632, Control_c, 2, 7, 85
3, 13632, Note_on_c, 2, 81, 110
3, 13656, Control_c, 2, 7, 95
3, 13680, Control_c, 2, 7, 105
3, 13704, Control_c, 2, 7, 115
3, 13728, Control_c, 2, 7, 85
3, 13728, Note_on_c, 2, 79, 100
3, 13728, Note_on_c, 2, 81, 0
3, 13752, Control_c, 2, 7, 95
3, 13776, Control_c, 2, 7, 105
3, 13800, Control_c, 2, 7, 115
3, 13820, Note_on_c, 2, 79, 0
3, 13824, Note_on_c, 2, 79, 100
3, 13824, Control_c, 2, 7, 60
3, 13872, Control_c, 2, 7, 65
3, 13920, Control_c, 2, 7, 70
3, 13968, Control_c, 2, 7, 75
3, 14016, Control_c, 2, 7, 80
3, 14064, Control_c, 2, 7, 85
3, 14112, Control_c, 2, 7, 90
3, 14160, Control_c, 2, 7, 95
3, 14208, Control_c, 2, 7, 100
3, 14304, Control_c, 2, 7, 105
3, 14400, Control_c, 2, 7, 110
3, 14496, Control_c, 2, 7, 115
3, 14688, Control_c, 2, 7, 85
3, 14688, Note_on_c, 2, 76, 110
3, 14688, Note_on_c, 2, 79, 0
3, 14712, Control_c, 2, 7, 95
3, 14736, Control_c, 2, 7, 105
3, 14760, Control_c, 2, 7, 115
3, 14780, Note_on_c, 2, 76, 0
3, 14784, Control_c, 2, 7, 85
3, 14784, Note_on_c, 2, 71, 110
3, 14808, Control_c, 2, 7, 95
3, 14832, Control_c, 2, 7, 105
3, 14856, Control_c, 2, 7, 115
3, 14880, Control_c, 2, 7, 85
3, 14880, Note_on_c, 2, 69, 100
3, 14880, Note_on_c, 2, 71, 0
3, 14904, Control_c, 2, 7, 95
3, 14928, Control_c, 2, 7, 105
3, 14952, Control_c, 2, 7, 115
3, 14972, Note_on_c, 2, 69, 0
3, 14976, Control_c, 2, 7, 85
3, 14976, Note_on_c, 2, 74, 110
3, 15000, Control_c, 2, 7, 95
3, 15024, Control_c, 2, 7, 105
3, 15048, Control_c, 2, 7, 115
3, 15072, Control_c, 2, 7, 85
3, 15072, Note_on_c, 2, 73, 100
3, 15072, Note_on_c, 2, 74, 0
3, 15096, Control_c, 2, 7, 95
3, 15120, Control_c, 2, 7, 105
3, 15144, Control_c, 2, 7, 115
3, 15164, Note_on_c, 2, 73, 0
3, 15168, Control_c, 2, 7, 85
3, 15168, Note_on_c, 2, 79, 110
3, 15192, Control_c, 2, 7, 95
3, 15216, Control_c, 2, 7, 105
3, 15240, Control_c, 2, 7, 115
3, 15264, Control_c, 2, 7, 85
3, 15264, Note_on_c, 2, 78, 100
3, 15264, Note_on_c, 2, 79, 0
3, 15288, Control_c, 2, 7, 95
3, 15312, Control_c, 2, 7, 105
3, 15336, Control_c, 2, 7, 115
3, 15356, Note_on_c, 2, 78, 0
3, 15360, Control_c, 2, 7, 80
3, 15360, Note_on_c, 2, 78, 100
3, 15408, Control_c, 2, 7, 85
3, 15456, Control_c, 2, 7, 90
3, 15504, Control_c, 2, 7, 95
3, 15552, Control_c, 2, 7, 100
3, 15600, Control_c, 2, 7, 105
3, 15648, Control_c, 2, 7, 110
3, 15744, Control_c, 2, 7, 115
3, 15928, Note_on_c, 2, 78, 0
3, 15936, Control_c, 2, 7, 85
3, 15936, Note_on_c, 2, 80, 100
3, 15960, Control_c, 2, 7, 95
3, 15984, Control_c, 2, 7, 105
3, 16008, Control_c, 2, 7, 115
3, 16032, Note_on_c, 2, 81, 100
3, 16032, Note_on_c, 2, 80, 0
3, 16124, Note_on_c, 2, 81, 0
3, 16128, Control_c, 2, 7, 85
3, 16128, Note_on_c, 2, 74, 110
3, 16176, Control_c, 2, 7, 95
3, 16224, Control_c, 2, 7, 105
3, 16272, Control_c, 2, 7, 115
3, 16316, Note_on_c, 2, 74, 0
3, 16320, Control_c, 2, 7, 85
3, 16320, Note_on_c, 2, 74, 110
3, 16332, Control_c, 2, 7, 95
3, 16344, Control_c, 2, 7, 105
3, 16356, Control_c, 2, 7, 115
3, 16364, Note_on_c, 2, 74, 0
3, 16368, Control_c, 2, 7, 85
3, 16368, Note_on_c, 2, 76, 100
3, 16380, Control_c, 2, 7, 95
3, 16392, Control_c, 2, 7, 105
3, 16404, Control_c, 2, 7, 115
3, 16412, Note_on_c, 2, 76, 0
3, 16416, Control_c, 2, 7, 85
3, 16416, Note_on_c, 2, 78, 110
3, 16440, Control_c, 2, 7, 95
3, 16464, Control_c, 2, 7, 105
3, 16488, Control_c, 2, 7, 115
3, 16604, Note_on_c, 2, 78, 0
3, 16608, Control_c, 2, 7, 85
3, 16608, Note_on_c, 2, 76, 100
3, 16632, Control_c, 2, 7, 95
3, 16656, Control_c, 2, 7, 105
3, 16680, Control_c, 2, 7, 115
3, 16700, Note_on_c, 2, 76, 0
3, 16704, Control_c, 2, 7, 85
3, 16704, Note_on_c, 2, 76, 110
3, 16728, Control_c, 2, 7, 95
3, 16752, Control_c, 2, 7, 105
3, 16776, Control_c, 2, 7, 115
3, 16800, Control_c, 2, 7, 85
3, 16800, Note_on_c, 2, 74, 100
3, 16800, Note_on_c, 2, 76, 0
3, 16824, Control_c, 2, 7, 95
3, 16848, Control_c, 2, 7, 105
3, 16872, Control_c, 2, 7, 115
3, 16892, Note_on_c, 2, 74, 0
3, 16896, Control_c, 2, 7, 85
3, 16896, Note_on_c, 2, 73, 110
3, 16920, Control_c, 2, 7, 95
3, 16944, Control_c, 2, 7, 105
3, 16968, Control_c, 2, 7, 115
3, 16988, Note_on_c, 2, 73, 0
3, 16992, Control_c, 2, 7, 85
3, 16992, Note_on_c, 2, 71, 110
3, 17016, Control_c, 2, 7, 95
3, 17040, Control_c, 2, 7, 105
3, 17064, Control_c, 2, 7, 115
3, 17084, Note_on_c, 2, 71, 0
3, 17088, Control_c, 2, 7, 85
3, 17088, Note_on_c, 2, 71, 100
3, 17100, Control_c, 2, 7, 95
3, 17112, Control_c, 2, 7, 105
3, 17124, Control_c, 2, 7, 115
3, 17132, Note_on_c, 2, 71, 0
3, 17136, Control_c, 2, 7, 85
3, 17136, Note_on_c, 2, 73, 110
3, 17148, Control_c, 2, 7, 95
3, 17160, Control_c, 2, 7, 105
3, 17172, Control_c, 2, 7, 115
3, 17180, Note_on_c, 2, 73, 0
3, 17184, Control_c, 2, 7, 85
3, 17184, Note_on_c, 2, 74, 100
3, 17208, Control_c, 2, 7, 95
3, 17232, Control_c, 2, 7, 105
3, 17256, Control_c, 2, 7, 115
3, 17468, Note_on_c, 2, 74, 0
3, 17472, Control_c, 2, 7, 85
3, 17472, Note_on_c, 2, 73, 110
3, 17496, Control_c, 2, 7, 95
3, 17520, Control_c, 2, 7, 105
3, 17544, Control_c, 2, 7, 115
3, 17564, Note_on_c, 2, 73, 0
3, 17568, Control_c, 2, 7, 85
3, 17568, Note_on_c, 2, 71, 100
3, 17592, Control_c, 2, 7, 95
3, 17616, Control_c, 2, 7, 105
3, 17640, Control_c, 2, 7, 115
3, 17660, Note_on_c, 2, 71, 0
3, 17664, Control_c, 2, 7, 60
3, 17664, Note_on_c, 2, 69, 100
3, 17712, Control_c, 2, 7, 65
3, 17760, Control_c, 2, 7, 70
3, 17808, Control_c, 2, 7, 75
3, 17856, Control_c, 2, 7, 80
3, 17904, Control_c, 2, 7, 85
3, 17952, Control_c, 2, 7, 90
3, 18000, Control_c, 2, 7, 95
3, 18048, Control_c, 2, 7, 100
3, 18144, Control_c, 2, 7, 105
3, 18240, Control_c, 2, 7, 110
3, 18336, Control_c, 2, 7, 115
3, 18424, Note_on_c, 2, 69, 0
3, 18432, Control_c, 2, 7, 60
3, 18432, Note_on_c, 2, 73, 100
3, 18480, Control_c, 2, 7, 65
3, 18528, Control_c, 2, 7, 70
3, 18576, Control_c, 2, 7, 75
3, 18624, Control_c, 2, 7, 85
3, 18672, Control_c, 2, 7, 95
3, 18720, Control_c, 2, 7, 105
3, 18768, Control_c, 2, 7, 115
3, 18816, Control_c, 2, 7, 115
3, 18904, Note_on_c, 2, 73, 0
3, 18912, Control_c, 2, 7, 85
3, 18912, Note_on_c, 2, 74, 110
3, 18924, Control_c, 2, 7, 95
3, 18936, Control_c, 2, 7, 105
3, 18948, Control_c, 2, 7, 115
3, 18956, Note_on_c, 2, 74, 0
3, 18960, Control_c, 2, 7, 85
3, 18960, Note_on_c, 2, 73, 110
3, 18972, Control_c, 2, 7, 95
3, 18984, Control_c, 2, 7, 105
3, 18996, Control_c, 2, 7, 115
3, 19004, Note_on_c, 2, 73, 0
3, 19008, Control_c, 2, 7, 85
3, 19008, Note_on_c, 2, 71, 100
3, 19020, Control_c, 2, 7, 95
3, 19032, Control_c, 2, 7, 105
3, 19044, Control_c, 2, 7, 115
3, 19052, Note_on_c, 2, 71, 0
3, 19056, Control_c, 2, 7, 85
3, 19056, Note_on_c, 2, 73, 110
3, 19068, Control_c, 2, 7, 95
3, 19080, Control_c, 2, 7, 105
3, 19092, Control_c, 2, 7, 115
3, 19100, Note_on_c, 2, 73, 0
3, 19104, Control_c, 2, 7, 85
3, 19104, Note_on_c, 2, 69, 100
3, 19128, Control_c, 2, 7, 95
3, 19152, Control_c, 2, 7, 105
3, 19176, Control_c, 2, 7, 115
3, 19196, Note_on_c, 2, 69, 0
3, 19200, Control_c, 2, 7, 50
3, 19200, Note_on_c, 2, 81, 100
3, 19248, Control_c, 2, 7, 60
3, 19296, Control_c, 2, 7, 70
3, 19344, Control_c, 2, 7, 80
3, 19392, Control_c, 2, 7, 90
3, 19440, Control_c, 2, 7, 100
3, 19488, Control_c, 2, 7, 107
3, 19536, Control_c, 2, 7, 117
3, 19584, Control_c, 2, 7, 122
3, 19768, Note_on_c, 2, 81, 0
3, 19776, Control_c, 2, 7, 85
3, 19776, Note_on_c, 2, 72, 110
3, 19824, Control_c, 2, 7, 95
3, 19872, Control_c, 2, 7, 105
3, 19920, Control_c, 2, 7, 115
3, 19964, Note_on_c, 2, 72, 0
3, 19968, Control_c, 2, 7, 85
3, 19968, Note_on_c, 2, 71, 110
3, 20016, Control_c, 2, 7, 95
3, 20064, Control_c, 2, 7, 105
3, 20112, Control_c, 2, 7, 115
3, 20156, Note_on_c, 2, 71, 0
3, 20160, Control_c, 2, 7, 65
3, 20160, Note_on_c, 2, 83, 110
3, 20208, Control_c, 2, 7, 75
3, 20256, Control_c, 2, 7, 90
3, 20304, Control_c, 2, 7, 100
3, 20352, Control_c, 2, 7, 110
3, 20400, Control_c, 2, 7, 115
3, 20444, Note_on_c, 2, 83, 0
3, 20448, Control_c, 2, 7, 85
3, 20448, Note_on_c, 2, 81, 100
3, 20472, Control_c, 2, 7, 95
3, 20496, Control_c, 2, 7, 105
3, 20520, Control_c, 2, 7, 115
3, 20540, Note_on_c, 2, 81, 0
3, 20544, Control_c, 2, 7, 85
3, 20544, Note_on_c, 2, 79, 110
3, 20568, Control_c, 2, 7, 95
3, 20592, Control_c, 2, 7, 105
3, 20616, Control_c, 2, 7, 115
3, 20636, Note_on_c, 2, 79, 0
3, 20640, Control_c, 2, 7, 85
3, 20640, Note_on_c, 2, 78, 100
3, 20664, Control_c, 2, 7, 95
3, 20688, Control_c, 2, 7, 105
3, 20712, Control_c, 2, 7, 115
3, 20732, Note_on_c, 2, 78, 0
3, 20736, Control_c, 2, 7, 85
3, 20736, Note_on_c, 2, 79, 110
3, 20832, Control_c, 2, 7, 95
3, 20928, Control_c, 2, 7, 105
3, 21024, Control_c, 2, 7, 115
3, 21164, Note_on_c, 2, 79, 0
3, 21168, Control_c, 2, 7, 85
3, 21168, Note_on_c, 2, 78, 110
3, 21180, Control_c, 2, 7, 95
3, 21192, Control_c, 2, 7, 105
3, 21204, Control_c, 2, 7, 115
3, 21216, Control_c, 2, 7, 85
3, 21216, Note_on_c, 2, 76, 100
3, 21216, Note_on_c, 2, 78, 0
3, 21228, Control_c, 2, 7, 95
3, 21240, Control_c, 2, 7, 105
3, 21252, Control_c, 2, 7, 115
3, 21264, Control_c, 2, 7, 85
3, 21264, Note_on_c, 2, 74, 110
3, 21264, Note_on_c, 2, 76, 0
3, 21276, Control_c, 2, 7, 95
3, 21288, Control_c, 2, 7, 105
3, 21300, Control_c, 2, 7, 115
3, 21312, Control_c, 2, 7, 85
3, 21312, Note_on_c, 2, 73, 100
3, 21312, Note_on_c, 2, 74, 0
3, 21336, Control_c, 2, 7, 95
3, 21360, Control_c, 2, 7, 105
3, 21384, Control_c, 2, 7, 115
3, 21408, Note_on_c, 2, 71, 110
3, 21408, Control_c, 2, 7, 85
3, 21408, Note_on_c, 2, 73, 0
3, 21432, Control_c, 2, 7, 95
3, 21456, Control_c, 2, 7, 105
3, 21480, Control_c, 2, 7, 115
3, 21504, Control_c, 2, 7, 85
3, 21504, Control_c, 2, 7, 85
3, 21504, Note_on_c, 2, 70, 110
3, 21504, Note_on_c, 2, 71, 0
3, 21528, Control_c, 2, 7, 95
3, 21552, Control_c, 2, 7, 105
3, 21576, Control_c, 2, 7, 115
3, 21596, Note_on_c, 2, 70, 0
3, 21600, Control_c, 2, 7, 85
3, 21600, Note_on_c, 2, 71, 110
3, 21624, Control_c, 2, 7, 95
3, 21648, Control_c, 2, 7, 105
3, 21672, Control_c, 2, 7, 115
3, 21692, Note_on_c, 2, 71, 0
3, 21696, Control_c, 2, 7, 85
3, 21696, Note_on_c, 2, 73, 110
3, 21744, Control_c, 2, 7, 95
3, 21792, Control_c, 2, 7, 105
3, 21840, Control_c, 2, 7, 115
3, 21884, Note_on_c, 2, 73, 0
3, 21888, Control_c, 2, 7, 85
3, 21888, Note_on_c, 2, 73, 110
3, 21912, Control_c, 2, 7, 95
3, 21936, Control_c, 2, 7, 105
3, 21960, Control_c, 2, 7, 115
3, 21980, Note_on_c, 2, 73, 0
3, 21984, Control_c, 2, 7, 85
3, 21984, Note_on_c, 2, 74, 110
3, 22008, Control_c, 2, 7, 95
3, 22032, Control_c, 2, 7, 105
3, 22056, Control_c, 2, 7, 115
3, 22076, Note_on_c, 2, 74, 0
3, 22080, Note_on_c, 2, 76, 110
3, 22080, Control_c, 2, 7, 85
3, 22128, Control_c, 2, 7, 95
3, 22176, Control_c, 2, 7, 105
3, 22224, Control_c, 2, 7, 115
3, 22368, Control_c, 2, 7, 85
3, 22368, Note_on_c, 2, 78, 110
3, 22368, Note_on_c, 2, 76, 0
3, 22392, Control_c, 2, 7, 95
3, 22416, Control_c, 2, 7, 105
3, 22440, Control_c, 2, 7, 115
3, 22460, Note_on_c, 2, 78, 0
3, 22464, Control_c, 2, 7, 85
3, 22464, Note_on_c, 2, 79, 110
3, 22560, Control_c, 2, 7, 95
3, 22656, Control_c, 2, 7, 105
3, 22752, Control_c, 2, 7, 115
3, 22840, Note_on_c, 2, 79, 0
3, 22848, Control_c, 2, 7, 85
3, 22848, Note_on_c, 2, 78, 110
3, 22896, Control_c, 2, 7, 95
3, 22944, Control_c, 2, 7, 105
3, 22992, Control_c, 2, 7, 115
3, 23036, Note_on_c, 2, 78, 0
3, 23040, Control_c, 2, 7, 85
3, 23040, Note_on_c, 2, 76, 110
3, 23064, Control_c, 2, 7, 95
3, 23088, Control_c, 2, 7, 105
3, 23112, Control_c, 2, 7, 115
3, 23132, Note_on_c, 2, 76, 0
3, 23136, Control_c, 2, 7, 85
3, 23136, Note_on_c, 2, 74, 105
3, 23160, Control_c, 2, 7, 95
3, 23184, Control_c, 2, 7, 105
3, 23208, Control_c, 2, 7, 115
3, 23228, Note_on_c, 2, 74, 0
3, 23232, Control_c, 2, 7, 85
3, 23232, Note_on_c, 2, 73, 100
3, 23256, Control_c, 2, 7, 95
3, 23280, Control_c, 2, 7, 105
3, 23304, Control_c, 2, 7, 115
3, 23324, Note_on_c, 2, 73, 0
3, 23328, Control_c, 2, 7, 85
3, 23328, Note_on_c, 2, 71, 90
3, 23352, Control_c, 2, 7, 95
3, 23376, Control_c, 2, 7, 105
3, 23400, Control_c, 2, 7, 115
3, 23420, Note_on_c, 2, 71, 0
3, 23424, Control_c, 2, 7, 85
3, 23424, Note_on_c, 2, 73, 100
3, 23448, Control_c, 2, 7, 95
3, 23472, Control_c, 2, 7, 105
3, 23496, Control_c, 2, 7, 115
3, 23520, Control_c, 2, 7, 85
3, 23520, Note_on_c, 2, 74, 105
3, 23520, Note_on_c, 2, 73, 0
3, 23532, Control_c, 2, 7, 95
3, 23544, Control_c, 2, 7, 105
3, 23556, Control_c, 2, 7, 115
3, 23568, Control_c, 2, 7, 85
3, 23568, Note_on_c, 2, 76, 115
3, 23568, Note_on_c, 2, 74, 0
3, 23580, Control_c, 2, 7, 95
3, 23592, Control_c, 2, 7, 105
3, 23604, Control_c, 2, 7, 115
3, 23616, Control_c, 2, 7, 85
3, 23616, Note_on_c, 2, 74, 105
3, 23616, Note_on_c, 2, 76, 0
3, 23664, Control_c, 2, 7, 95
3, 23712, Control_c, 2, 7, 105
3, 23760, Control_c, 2, 7, 115
3, 23804, Note_on_c, 2, 74, 0
3, 23808, Control_c, 2, 7, 60
3, 23808, Note_on_c, 2, 71, 100
3, 23856, Control_c, 2, 7, 65
3, 23904, Control_c, 2, 7, 70
3, 23952, Control_c, 2, 7, 75
3, 24000, Control_c, 2, 7, 80
3, 24048, Control_c, 2, 7, 85
3, 24096, Control_c, 2, 7, 90
3, 24144, Control_c, 2, 7, 95
3, 24192, Control_c, 2, 7, 100
3, 24288, Control_c, 2, 7, 105
3, 24384, Control_c, 2, 7, 110
3, 24480, Control_c, 2, 7, 115
3, 24568, Note_on_c, 2, 71, 0
3, 24576, Control_c, 2, 7, 60
3, 24576, Note_on_c, 2, 74, 110
3, 24624, Control_c, 2, 7, 65
3, 24672, Control_c, 2, 7, 70
3, 24720, Control_c, 2, 7, 75
3, 24768, Control_c, 2, 7, 85
3, 24816, Control_c, 2, 7, 95
3, 24864, Control_c, 2, 7, 105
3, 24912, Control_c, 2, 7, 115
3, 24960, Control_c, 2, 7, 115
3, 25048, Note_on_c, 2, 74, 0
3, 25056, Control_c, 2, 7, 85
3, 25056, Note_on_c, 2, 78, 110
3, 25080, Control_c, 2, 7, 95
3, 25104, Control_c, 2, 7, 105
3, 25128, Control_c, 2, 7, 115
3, 25148, Note_on_c, 2, 78, 0
3, 25152, Control_c, 2, 7, 85
3, 25152, Note_on_c, 2, 76, 100
3, 25176, Control_c, 2, 7, 95
3, 25200, Control_c, 2, 7, 105
3, 25224, Control_c, 2, 7, 115
3, 25244, Note_on_c, 2, 76, 0
3, 25248, Control_c, 2, 7, 85
3, 25248, Note_on_c, 2, 74, 95
3, 25272, Control_c, 2, 7, 95
3, 25296, Control_c, 2, 7, 105
3, 25320, Control_c, 2, 7, 115
3, 25340, Note_on_c, 2, 74, 0
3, 25344, Control_c, 2, 7, 50
3, 25344, Note_on_c, 2, 83, 100
3, 25392, Control_c, 2, 7, 60
3, 25440, Control_c, 2, 7, 70
3, 25488, Control_c, 2, 7, 80
3, 25536, Control_c, 2, 7, 90
3, 25584, Control_c, 2, 7, 100
3, 25632, Control_c, 2, 7, 107
3, 25680, Control_c, 2, 7, 117
3, 25728, Control_c, 2, 7, 122
3, 25912, Note_on_c, 2, 83, 0
3, 25920, Control_c, 2, 7, 85
3, 25920, Note_on_c, 2, 81, 110
3, 25944, Control_c, 2, 7, 95
3, 25968, Control_c, 2, 7, 105
3, 25992, Control_c, 2, 7, 115
3, 26016, Note_on_c, 2, 80, 110
3, 26016, Control_c, 2, 7, 85
3, 26016, Note_on_c, 2, 81, 0
3, 26040, Control_c, 2, 7, 95
3, 26064, Control_c, 2, 7, 105
3, 26088, Control_c, 2, 7, 115
3, 26112, Control_c, 2, 7, 85
3, 26112, Note_on_c, 2, 78, 100
3, 26112, Note_on_c, 2, 80, 0
3, 26124, Control_c, 2, 7, 95
3, 26136, Control_c, 2, 7, 105
3, 26148, Control_c, 2, 7, 115
3, 26160, Control_c, 2, 7, 85
3, 26160, Note_on_c, 2, 76, 110
3, 26160, Note_on_c, 2, 78, 0
3, 26172, Control_c, 2, 7, 95
3, 26184, Control_c, 2, 7, 105
3, 26196, Control_c, 2, 7, 115
3, 26208, Control_c, 2, 7, 85
3, 26208, Control_c, 2, 7, 70
3, 26208, Note_on_c, 2, 81, 110
3, 26208, Note_on_c, 2, 76, 0
3, 26232, Control_c, 2, 7, 95
3, 26256, Control_c, 2, 7, 105
3, 26280, Control_c, 2, 7, 115
3, 26300, Note_on_c, 2, 81, 0
3, 26304, Control_c, 2, 7, 85
3, 26304, Note_on_c, 2, 69, 110
3, 26352, Control_c, 2, 7, 95
3, 26400, Control_c, 2, 7, 105
3, 26448, Control_c, 2, 7, 115
3, 26492, Note_on_c, 2, 69, 0
3, 26496, Control_c, 2, 7, 70
3, 26496, Note_on_c, 2, 71, 100
3, 26544, Control_c, 2, 7, 80
3, 26592, Control_c, 2, 7, 90
3, 26640, Control_c, 2, 7, 100
3, 26688, Control_c, 2, 7, 110
3, 26736, Control_c, 2, 7, 115
3, 26784, Control_c, 2, 7, 85
3, 26784, Note_on_c, 2, 73, 95
3, 26784, Note_on_c, 2, 71, 0
3, 26796, Control_c, 2, 7, 95
3, 26808, Control_c, 2, 7, 105
3, 26820, Control_c, 2, 7, 115
3, 26832, Note_on_c, 2, 74, 105
3, 26832, Control_c, 2, 7, 85
3, 26832, Note_on_c, 2, 73, 0
3, 26844, Control_c, 2, 7, 95
3, 26856, Control_c, 2, 7, 105
3, 26868, Control_c, 2, 7, 115
3, 26880, Control_c, 2, 7, 85
3, 26880, Note_on_c, 2, 73, 110
3, 26880, Note_on_c, 2, 74, 0
3, 26928, Control_c, 2, 7, 95
3, 26976, Control_c, 2, 7, 105
3, 27072, Control_c, 2, 7, 115
3, 27164, Note_on_c, 2, 73, 0
3, 27168, Control_c, 2, 7, 85
3, 27168, Note_on_c, 2, 71, 100
3, 27192, Control_c, 2, 7, 95
3, 27216, Control_c, 2, 7, 105
3, 27240, Control_c, 2, 7, 115
3, 27260, Note_on_c, 2, 71, 0
3, 27264, Control_c, 2, 7, 85
3, 27264, Note_on_c, 2, 69, 80
3, 27312, Control_c, 2, 7, 90
3, 27360, Control_c, 2, 7, 95
3, 27408, Control_c, 2, 7, 100
3, 27456, Control_c, 2, 7, 105
3, 27504, Control_c, 2, 7, 110
3, 27552, Control_c, 2, 7, 115
3, 27640, Note_on_c, 2, 69, 0
3, 27648, Control_c, 2, 7, 60
3, 27648, Note_on_c, 2, 74, 110
3, 27696, Control_c, 2, 7, 65
3, 27744, Control_c, 2, 7, 70
3, 27792, Control_c, 2, 7, 75
3, 27840, Control_c, 2, 7, 85
3, 27888, Control_c, 2, 7, 95
3, 27936, Control_c, 2, 7, 105
3, 28032, Control_c, 2, 7, 115
3, 28128, Control_c, 2, 7, 115
3, 28224, Control_c, 2, 7, 70
3, 28224, Note_on_c, 2, 78, 100
3, 28224, Note_on_c, 2, 74, 0
3, 28248, Control_c, 2, 7, 90
3, 28272, Control_c, 2, 7, 110
3, 28296, Control_c, 2, 7, 115
3, 28320, Control_c, 2, 7, 85
3, 28320, Note_on_c, 2, 76, 110
3, 28320, Note_on_c, 2, 78, 0
3, 28344, Control_c, 2, 7, 95
3, 28368, Control_c, 2, 7, 105
3, 28392, Control_c, 2, 7, 115
3, 28412, Note_on_c, 2, 76, 0
3, 28416, Control_c, 2, 7, 60
3, 28416, Note_on_c, 2, 76, 110
3, 28464, Control_c, 2, 7, 65
3, 28512, Control_c, 2, 7, 70
3, 28560, Control_c, 2, 7, 75
3, 28608, Control_c, 2, 7, 85
3, 28656, Control_c, 2, 7, 95
3, 28704, Control_c, 2, 7, 105
3, 28800, Control_c, 2, 7, 115
3, 28896, Control_c, 2, 7, 115
3, 28992, Control_c, 2, 7, 70
3, 28992, Note_on_c, 2, 79, 100
3, 28992, Note_on_c, 2, 76, 0
3, 29016, Control_c, 2, 7, 90
3, 29040, Control_c, 2, 7, 110
3, 29064, Control_c, 2, 7, 115
3, 29088, Control_c, 2, 7, 85
3, 29088, Note_on_c, 2, 78, 110
3, 29088, Note_on_c, 2, 79, 0
3, 29112, Control_c, 2, 7, 95
3, 29136, Control_c, 2, 7, 105
3, 29160, Control_c, 2, 7, 115
3, 29180, Note_on_c, 2, 78, 0
3, 29184, Control_c, 2, 7, 60
3, 29184, Note_on_c, 2, 78, 110
3, 29232, Control_c, 2, 7, 65
3, 29280, Control_c, 2, 7, 70
3, 29328, Control_c, 2, 7, 75
3, 29376, Control_c, 2, 7, 85
3, 29424, Control_c, 2, 7, 95
3, 29472, Control_c, 2, 7, 105
3, 29568, Control_c, 2, 7, 115
3, 29664, Control_c, 2, 7, 115
3, 29760, Control_c, 2, 7, 70
3, 29760, Note_on_c, 2, 81, 100
3, 29760, Note_on_c, 2, 78, 0
3, 29784, Control_c, 2, 7, 90
3, 29808, Control_c, 2, 7, 110
3, 29832, Control_c, 2, 7, 115
3, 29856, Control_c, 2, 7, 85
3, 29856, Note_on_c, 2, 79, 110
3, 29856, Note_on_c, 2, 81, 0
3, 29880, Control_c, 2, 7, 95
3, 29904, Control_c, 2, 7, 105
3, 29928, Control_c, 2, 7, 115
3, 29948, Note_on_c, 2, 79, 0
3, 29952, Control_c, 2, 7, 60
3, 29952, Note_on_c, 2, 79, 100
3, 30000, Control_c, 2, 7, 65
3, 30048, Control_c, 2, 7, 70
3, 30096, Control_c, 2, 7, 75
3, 30144, Control_c, 2, 7, 80
3, 30192, Control_c, 2, 7, 85
3, 30240, Control_c, 2, 7, 90
3, 30288, Control_c, 2, 7, 95
3, 30336, Control_c, 2, 7, 100
3, 30432, Control_c, 2, 7, 105
3, 30528, Control_c, 2, 7, 110
3, 30624, Control_c, 2, 7, 115
3, 30712, Note_on_c, 2, 79, 0
3, 30720, Control_c, 2, 7, 70
3, 30720, Note_on_c, 2, 69, 100
3, 30744, Control_c, 2, 7, 75
3, 30768, Control_c, 2, 7, 80
3, 30792, Control_c, 2, 7, 85
3, 30816, Control_c, 2, 7, 95
3, 30840, Control_c, 2, 7, 100
3, 30864, Control_c, 2, 7, 110
3, 30888, Control_c, 2, 7, 120
3, 31192, Note_on_c, 2, 69, 0
3, 31200, Control_c, 2, 7, 85
3, 31200, Note_on_c, 2, 73, 120
3, 31224, Control_c, 2, 7, 95
3, 31248, Control_c, 2, 7, 105
3, 31272, Control_c, 2, 7, 115
3, 31292, Note_on_c, 2, 73, 0
3, 31296, Control_c, 2, 7, 85
3, 31296, Note_on_c, 2, 76, 100
3, 31320, Control_c, 2, 7, 95
3, 31344, Control_c, 2, 7, 105
3, 31368, Control_c, 2, 7, 115
3, 31388, Note_on_c, 2, 76, 0
3, 31392, Control_c, 2, 7, 85
3, 31392, Note_on_c, 2, 79, 110
3, 31416, Control_c, 2, 7, 95
3, 31440, Control_c, 2, 7, 105
3, 31464, Control_c, 2, 7, 115
3, 31484, Note_on_c, 2, 79, 0
3, 31488, Control_c, 2, 7, 85
3, 31488, Note_on_c, 2, 79, 100
3, 31512, Control_c, 2, 7, 95
3, 31536, Control_c, 2, 7, 105
3, 31560, Control_c, 2, 7, 115
3, 31580, Note_on_c, 2, 79, 0
3, 31584, Control_c, 2, 7, 85
3, 31584, Note_on_c, 2, 76, 110
3, 31608, Control_c, 2, 7, 95
3, 31632, Control_c, 2, 7, 105
3, 31656, Control_c, 2, 7, 115
3, 31676, Note_on_c, 2, 76, 0
3, 31680, Control_c, 2, 7, 85
3, 31680, Note_on_c, 2, 78, 110
3, 31728, Control_c, 2, 7, 100
3, 31776, Control_c, 2, 7, 115
3, 31824, Control_c, 2, 7, 120
3, 32156, Note_on_c, 2, 78, 0
3, 32160, Control_c, 2, 7, 85
3, 32160, Note_on_c, 2, 79, 110
3, 32172, Control_c, 2, 7, 95
3, 32184, Control_c, 2, 7, 105
3, 32196, Control_c, 2, 7, 115
3, 32208, Note_on_c, 2, 81, 115
3, 32208, Control_c, 2, 7, 85
3, 32208, Note_on_c, 2, 79, 0
3, 32220, Control_c, 2, 7, 95
3, 32232, Control_c, 2, 7, 105
3, 32244, Control_c, 2, 7, 115
3, 32256, Control_c, 2, 7, 70
3, 32256, Note_on_c, 2, 74, 100
3, 32256, Note_on_c, 2, 81, 0
3, 32280, Control_c, 2, 7, 75
3, 32304, Control_c, 2, 7, 80
3, 32328, Control_c, 2, 7, 85
3, 32352, Control_c, 2, 7, 90
3, 32376, Control_c, 2, 7, 95
3, 32400, Control_c, 2, 7, 100
3, 32424, Control_c, 2, 7, 110
3, 32448, Control_c, 2, 7, 120
3, 32728, Note_on_c, 2, 74, 0
3, 32736, Control_c, 2, 7, 85
3, 32736, Note_on_c, 2, 78, 120
3, 32760, Control_c, 2, 7, 95
3, 32784, Control_c, 2, 7, 105
3, 32808, Control_c, 2, 7, 115
3, 32828, Note_on_c, 2, 78, 0
3, 32832, Control_c, 2, 7, 85
3, 32832, Note_on_c, 2, 81, 100
3, 32856, Control_c, 2, 7, 95
3, 32880, Control_c, 2, 7, 105
3, 32904, Control_c, 2, 7, 115
3, 32924, Note_on_c, 2, 81, 0
3, 32928, Control_c, 2, 7, 85
3, 32928, Note_on_c, 2, 84, 110
3, 32952, Control_c, 2, 7, 95
3, 32976, Control_c, 2, 7, 105
3, 33000, Control_c, 2, 7, 115
3, 33020, Note_on_c, 2, 84, 0
3, 33024, Control_c, 2, 7, 60
3, 33024, Note_on_c, 2, 83, 115
3, 33048, Control_c, 2, 7, 65
3, 33072, Control_c, 2, 7, 70
3, 33096, Control_c, 2, 7, 75
3, 33120, Control_c, 2, 7, 80
3, 33144, Control_c, 2, 7, 85
3, 33168, Control_c, 2, 7, 90
3, 33192, Control_c, 2, 7, 95
3, 33216, Control_c, 2, 7, 100
3, 33240, Control_c, 2, 7, 105
3, 33264, Control_c, 2, 7, 110
3, 33288, Control_c, 2, 7, 120
3, 33596, Note_on_c, 2, 83, 0
3, 33600, Note_on_c, 2, 74, 100
3, 33600, Control_c, 2, 7, 85
3, 33624, Control_c, 2, 7, 95
3, 33648, Control_c, 2, 7, 105
3, 33672, Control_c, 2, 7, 115
3, 33792, Control_c, 2, 7, 85
3, 33792, Note_on_c, 2, 73, 90
3, 33792, Note_on_c, 2, 74, 0
3, 33816, Control_c, 2, 7, 95
3, 33840, Control_c, 2, 7, 105
3, 33864, Control_c, 2, 7, 115
3, 33884, Note_on_c, 2, 73, 0
3, 33888, Control_c, 2, 7, 85
3, 33888, Note_on_c, 2, 76, 100
3, 33912, Control_c, 2, 7, 95
3, 33936, Control_c, 2, 7, 105
3, 33960, Control_c, 2, 7, 115
3, 33980, Note_on_c, 2, 76, 0
3, 33984, Control_c, 2, 7, 85
3, 33984, Note_on_c, 2, 79, 115
3, 34032, Control_c, 2, 7, 95
3, 34080, Control_c, 2, 7, 105
3, 34128, Control_c, 2, 7, 115
3, 34368, Note_on_c, 2, 71, 100
3, 34368, Control_c, 2, 7, 85
3, 34368, Note_on_c, 2, 79, 0
3, 34392, Control_c, 2, 7, 95
3, 34416, Control_c, 2, 7, 105
3, 34440, Control_c, 2, 7, 115
3, 34560, Control_c, 2, 7, 85
3, 34560, Note_on_c, 2, 69, 90
3, 34560, Note_on_c, 2, 71, 0
3, 34584, Control_c, 2, 7, 95
3, 34608, Control_c, 2, 7, 105
3, 34632, Control_c, 2, 7, 115
3, 34752, Control_c, 2, 7, 85
3, 34752, Note_on_c, 2, 76, 100
3, 34752, Note_on_c, 2, 69, 0
3, 34776, Control_c, 2, 7, 95
3, 34800, Control_c, 2, 7, 105
3, 34824, Control_c, 2, 7, 115
3, 34844, Note_on_c, 2, 76, 0
3, 34848, Control_c, 2, 7, 85
3, 34848, Note_on_c, 2, 78, 105
3, 34860, Control_c, 2, 7, 95
3, 34872, Control_c, 2, 7, 105
3, 34884, Control_c, 2, 7, 115
3, 34892, Note_on_c, 2, 78, 0
3, 34896, Control_c, 2, 7, 85
3, 34896, Note_on_c, 2, 79, 110
3, 34908, Control_c, 2, 7, 95
3, 34920, Control_c, 2, 7, 105
3, 34932, Control_c, 2, 7, 115
3, 34940, Note_on_c, 2, 79, 0
3, 34944, Control_c, 2, 7, 85
3, 34944, Note_on_c, 2, 79, 110
3, 34968, Control_c, 2, 7, 95
3, 34992, Control_c, 2, 7, 105
3, 35016, Control_c, 2, 7, 115
3, 35036, Note_on_c, 2, 79, 0
3, 35040, Control_c, 2, 7, 85
3, 35040, Note_on_c, 2, 78, 105
3, 35064, Control_c, 2, 7, 95
3, 35088, Control_c, 2, 7, 105
3, 35112, Control_c, 2, 7, 115
3, 35232, Control_c, 2, 7, 85
3, 35232, Note_on_c, 2, 76, 100
3, 35232, Note_on_c, 2, 78, 0
3, 35256, Control_c, 2, 7, 95
3, 35280, Control_c, 2, 7, 105
3, 35304, Control_c, 2, 7, 115
3, 35324, Note_on_c, 2, 76, 0
3, 35328, Control_c, 2, 7, 85
3, 35328, Note_on_c, 2, 74, 105
3, 35340, Control_c, 2, 7, 95
3, 35352, Control_c, 2, 7, 105
3, 35364, Control_c, 2, 7, 115
3, 35372, Note_on_c, 2, 74, 0
3, 35376, Control_c, 2, 7, 85
3, 35376, Note_on_c, 2, 73, 100
3, 35388, Control_c, 2, 7, 95
3, 35400, Control_c, 2, 7, 105
3, 35412, Control_c, 2, 7, 115
3, 35420, Note_on_c, 2, 73, 0
3, 35424, Control_c, 2, 7, 85
3, 35424, Note_on_c, 2, 71, 100
3, 35472, Control_c, 2, 7, 95
3, 35520, Control_c, 2, 7, 105
3, 35568, Control_c, 2, 7, 115
3, 35612, Note_on_c, 2, 71, 0
3, 35616, Control_c, 2, 7, 85
3, 35616, Note_on_c, 2, 73, 105
3, 35640, Control_c, 2, 7, 95
3, 35664, Control_c, 2, 7, 105
3, 35688, Control_c, 2, 7, 115
3, 35708, Note_on_c, 2, 73, 0
3, 35712, Note_on_c, 2, 74, 108
3, 35712, Control_c, 2, 7, 85
3, 35759, Note_on_c, 2, 74, 0
3, 35760, Note_on_c, 2, 73, 107
3, 35807, Note_on_c, 2, 73, 0
3, 35808, Note_on_c, 2, 74, 102
3, 35844, Note_on_c, 2, 73, 98
3, 35855, Note_on_c, 2, 74, 0
3, 35866, Note_on_c, 2, 71, 96
3, 35891, Note_on_c, 2, 73, 0
3, 35904, Control_c, 2, 7, 85
3, 35904, Note_on_c, 2, 73, 103
3, 35913, Note_on_c, 2, 71, 0
3, 35928, Control_c, 2, 7, 95
3, 35952, Control_c, 2, 7, 105
3, 35976, Control_c, 2, 7, 115
3, 35996, Note_on_c, 2, 73, 0
3, 36000, Control_c, 2, 7, 85
3, 36000, Note_on_c, 2, 74, 100
3, 36024, Control_c, 2, 7, 95
3, 36048, Control_c, 2, 7, 105
3, 36072, Control_c, 2, 7, 115
3, 36092, Note_on_c, 2, 74, 0
3, 36096, Control_c, 2, 7, 60
3, 36096, Note_on_c, 2, 74, 100
3, 36144, Control_c, 2, 7, 65
3, 36192, Control_c, 2, 7, 70
3, 36240, Control_c, 2, 7, 75
3, 36288, Control_c, 2, 7, 80
3, 36336, Control_c, 2, 7, 85
3, 36384, Control_c, 2, 7, 90
3, 36432, Control_c, 2, 7, 95
3, 36480, Control_c, 2, 7, 100
3, 36576, Control_c, 2, 7, 105
3, 36672, Control_c, 2, 7, 110
3, 36768, Control_c, 2, 7, 115
3, 36856, Note_on_c, 2, 74, 0
3, 36864, Control_c, 2, 7, 60
3, 36864, Note_on_c, 2, 73, 100
3, 36912, Control_c, 2, 7, 65
3, 36960, Control_c, 2, 7, 70
3, 37008, Control_c, 2, 7, 75
3, 37056, Control_c, 2, 7, 85
3, 37104, Control_c, 2, 7, 95
3, 37152, Control_c, 2, 7, 105
3, 37200, Control_c, 2, 7, 115
3, 37248, Control_c, 2, 7, 115
3, 37336, Note_on_c, 2, 73, 0
3, 37344, Control_c, 2, 7, 85
3, 37344, Note_on_c, 2, 74, 110
3, 37356, Control_c, 2, 7, 95
3, 37368, Control_c, 2, 7, 105
3, 37380, Control_c, 2, 7, 115
3, 37388, Note_on_c, 2, 74, 0
3, 37392, Control_c, 2, 7, 85
3, 37392, Note_on_c, 2, 73, 110
3, 37404, Control_c, 2, 7, 95
3, 37416, Control_c, 2, 7, 105
3, 37428, Control_c, 2, 7, 115
3, 37436, Note_on_c, 2, 73, 0
3, 37440, Control_c, 2, 7, 85
3, 37440, Note_on_c, 2, 71, 100
3, 37452, Control_c, 2, 7, 95
3, 37464, Control_c, 2, 7, 105
3, 37476, Control_c, 2, 7, 115
3, 37484, Note_on_c, 2, 71, 0
3, 37488, Control_c, 2, 7, 85
3, 37488, Note_on_c, 2, 73, 110
3, 37500, Control_c, 2, 7, 95
3, 37512, Control_c, 2, 7, 105
3, 37524, Control_c, 2, 7, 115
3, 37532, Note_on_c, 2, 73, 0
3, 37536, Control_c, 2, 7, 85
3, 37536, Note_on_c, 2, 69, 100
3, 37560, Control_c, 2, 7, 95
3, 37584, Control_c, 2, 7, 105
3, 37608, Control_c, 2, 7, 115
3, 37628, Note_on_c, 2, 69, 0
3, 37632, Control_c, 2, 7, 50
3, 37632, Note_on_c, 2, 81, 100
3, 37680, Control_c, 2, 7, 60
3, 37728, Control_c, 2, 7, 70
3, 37776, Control_c, 2, 7, 80
3, 37824, Control_c, 2, 7, 90
3, 37872, Control_c, 2, 7, 100
3, 37920, Control_c, 2, 7, 107
3, 37968, Control_c, 2, 7, 117
3, 38016, Control_c, 2, 7, 122
3, 38200, Note_on_c, 2, 81, 0
3, 38208, Control_c, 2, 7, 85
3, 38208, Note_on_c, 2, 72, 110
3, 38256, Control_c, 2, 7, 95
3, 38304, Control_c, 2, 7, 105
3, 38352, Control_c, 2, 7, 115
3, 38396, Note_on_c, 2, 72, 0
3, 38400, Control_c, 2, 7, 85
3, 38400, Note_on_c, 2, 71, 110
3, 38448, Control_c, 2, 7, 95
3, 38496, Control_c, 2, 7, 105
3, 38544, Control_c, 2, 7, 115
3, 38588, Note_on_c, 2, 71, 0
3, 38592, Control_c, 2, 7, 65
3, 38592, Note_on_c, 2, 83, 110
3, 38640, Control_c, 2, 7, 75
3, 38688, Control_c, 2, 7, 90
3, 38736, Control_c, 2, 7, 100
3, 38784, Control_c, 2, 7, 110
3, 38832, Control_c, 2, 7, 115
3, 38876, Note_on_c, 2, 83, 0
3, 38880, Control_c, 2, 7, 85
3, 38880, Note_on_c, 2, 81, 100
3, 38904, Control_c, 2, 7, 95
3, 38928, Control_c, 2, 7, 105
3, 38952, Control_c, 2, 7, 115
3, 38972, Note_on_c, 2, 81, 0
3, 38976, Control_c, 2, 7, 85
3, 38976, Note_on_c, 2, 79, 110
3, 39000, Control_c, 2, 7, 95
3, 39024, Control_c, 2, 7, 105
3, 39048, Control_c, 2, 7, 115
3, 39068, Note_on_c, 2, 79, 0
3, 39072, Control_c, 2, 7, 85
3, 39072, Note_on_c, 2, 78, 100
3, 39096, Control_c, 2, 7, 95
3, 39120, Control_c, 2, 7, 105
3, 39144, Control_c, 2, 7, 115
3, 39164, Note_on_c, 2, 78, 0
3, 39168, Control_c, 2, 7, 85
3, 39168, Note_on_c, 2, 79, 110
3, 39264, Control_c, 2, 7, 95
3, 39360, Control_c, 2, 7, 105
3, 39456, Control_c, 2, 7, 115
3, 39596, Note_on_c, 2, 79, 0
3, 39600, Control_c, 2, 7, 85
3, 39600, Note_on_c, 2, 78, 110
3, 39612, Control_c, 2, 7, 95
3, 39624, Control_c, 2, 7, 105
3, 39636, Control_c, 2, 7, 115
3, 39648, Control_c, 2, 7, 85
3, 39648, Note_on_c, 2, 76, 100
3, 39648, Note_on_c, 2, 78, 0
3, 39660, Control_c, 2, 7, 95
3, 39672, Control_c, 2, 7, 105
3, 39684, Control_c, 2, 7, 115
3, 39696, Control_c, 2, 7, 85
3, 39696, Note_on_c, 2, 74, 110
3, 39696, Note_on_c, 2, 76, 0
3, 39708, Control_c, 2, 7, 95
3, 39720, Control_c, 2, 7, 105
3, 39732, Control_c, 2, 7, 115
3, 39744, Control_c, 2, 7, 85
3, 39744, Note_on_c, 2, 73, 100
3, 39744, Note_on_c, 2, 74, 0
3, 39768, Control_c, 2, 7, 95
3, 39792, Control_c, 2, 7, 105
3, 39816, Control_c, 2, 7, 115
3, 39840, Note_on_c, 2, 71, 110
3, 39840, Control_c, 2, 7, 85
3, 39840, Note_on_c, 2, 73, 0
3, 39864, Control_c, 2, 7, 95
3, 39888, Control_c, 2, 7, 105
3, 39912, Control_c, 2, 7, 115
3, 39936, Control_c, 2, 7, 85
3, 39936, Control_c, 2, 7, 85
3, 39936, Note_on_c, 2, 70, 110
3, 39936, Note_on_c, 2, 71, 0
3, 39960, Control_c, 2, 7, 95
3, 39984, Control_c, 2, 7, 105
3, 40008, Control_c, 2, 7, 115
3, 40028, Note_on_c, 2, 70, 0
3, 40032, Control_c, 2, 7, 85
3, 40032, Note_on_c, 2, 71, 110
3, 40056, Control_c, 2, 7, 95
3, 40080, Control_c, 2, 7, 105
3, 40104, Control_c, 2, 7, 115
3, 40124, Note_on_c, 2, 71, 0
3, 40128, Control_c, 2, 7, 85
3, 40128, Note_on_c, 2, 73, 110
3, 40176, Control_c, 2, 7, 95
3, 40224, Control_c, 2, 7, 105
3, 40272, Control_c, 2, 7, 115
3, 40316, Note_on_c, 2, 73, 0
3, 40320, Control_c, 2, 7, 85
3, 40320, Note_on_c, 2, 73, 110
3, 40344, Control_c, 2, 7, 95
3, 40368, Control_c, 2, 7, 105
3, 40392, Control_c, 2, 7, 115
3, 40412, Note_on_c, 2, 73, 0
3, 40416, Control_c, 2, 7, 85
3, 40416, Note_on_c, 2, 74, 110
3, 40440, Control_c, 2, 7, 95
3, 40464, Control_c, 2, 7, 105
3, 40488, Control_c, 2, 7, 115
3, 40508, Note_on_c, 2, 74, 0
3, 40512, Note_on_c, 2, 76, 110
3, 40512, Control_c, 2, 7, 85
3, 40560, Control_c, 2, 7, 95
3, 40608, Control_c, 2, 7, 105
3, 40656, Control_c, 2, 7, 115
3, 40800, Control_c, 2, 7, 85
3, 40800, Note_on_c, 2, 78, 110
3, 40800, Note_on_c, 2, 76, 0
3, 40824, Control_c, 2, 7, 95
3, 40848, Control_c, 2, 7, 105
3, 40872, Control_c, 2, 7, 115
3, 40892, Note_on_c, 2, 78, 0
3, 40896, Control_c, 2, 7, 85
3, 40896, Note_on_c, 2, 79, 110
3, 40992, Control_c, 2, 7, 95
3, 41088, Control_c, 2, 7, 105
3, 41184, Control_c, 2, 7, 115
3, 41272, Note_on_c, 2, 79, 0
3, 41280, Control_c, 2, 7, 85
3, 41280, Note_on_c, 2, 78, 110
3, 41328, Control_c, 2, 7, 95
3, 41376, Control_c, 2, 7, 105
3, 41424, Control_c, 2, 7, 115
3, 41468, Note_on_c, 2, 78, 0
3, 41472, Control_c, 2, 7, 85
3, 41472, Note_on_c, 2, 76, 110
3, 41496, Control_c, 2, 7, 95
3, 41520, Control_c, 2, 7, 105
3, 41544, Control_c, 2, 7, 115
3, 41564, Note_on_c, 2, 76, 0
3, 41568, Control_c, 2, 7, 85
3, 41568, Note_on_c, 2, 74, 105
3, 41592, Control_c, 2, 7, 95
3, 41616, Control_c, 2, 7, 105
3, 41640, Control_c, 2, 7, 115
3, 41660, Note_on_c, 2, 74, 0
3, 41664, Control_c, 2, 7, 85
3, 41664, Note_on_c, 2, 73, 100
3, 41688, Control_c, 2, 7, 95
3, 41712, Control_c, 2, 7, 105
3, 41736, Control_c, 2, 7, 115
3, 41756, Note_on_c, 2, 73, 0
3, 41760, Control_c, 2, 7, 85
3, 41760, Note_on_c, 2, 71, 90
3, 41784, Control_c, 2, 7, 95
3, 41808, Control_c, 2, 7, 105
3, 41832, Control_c, 2, 7, 115
3, 41852, Note_on_c, 2, 71, 0
3, 41856, Control_c, 2, 7, 85
3, 41856, Note_on_c, 2, 73, 100
3, 41880, Control_c, 2, 7, 95
3, 41904, Control_c, 2, 7, 105
3, 41928, Control_c, 2, 7, 115
3, 41952, Control_c, 2, 7, 85
3, 41952, Note_on_c, 2, 74, 105
3, 41952, Note_on_c, 2, 73, 0
3, 41964, Control_c, 2, 7, 95
3, 41976, Control_c, 2, 7, 105
3, 41988, Control_c, 2, 7, 115
3, 42000, Control_c, 2, 7, 85
3, 42000, Note_on_c, 2, 76, 115
3, 42000, Note_on_c, 2, 74, 0
3, 42012, Control_c, 2, 7, 95
3, 42024, Control_c, 2, 7, 105
3, 42036, Control_c, 2, 7, 115
3, 42048, Control_c, 2, 7, 85
3, 42048, Note_on_c, 2, 74, 105
3, 42048, Note_on_c, 2, 76, 0
3, 42096, Control_c, 2, 7, 95
3, 42144, Control_c, 2, 7, 105
3, 42192, Control_c, 2, 7, 115
3, 42236, Note_on_c, 2, 74, 0
3, 42240, Control_c, 2, 7, 60
3, 42240, Note_on_c, 2, 71, 100
3, 42288, Control_c, 2, 7, 65
3, 42336, Control_c, 2, 7, 70
3, 42384, Control_c, 2, 7, 75
3, 42432, Control_c, 2, 7, 80
3, 42480, Control_c, 2, 7, 85
3, 42528, Control_c, 2, 7, 90
3, 42576, Control_c, 2, 7, 95
3, 42624, Control_c, 2, 7, 100
3, 42720, Control_c, 2, 7, 105
3, 42816, Control_c, 2, 7, 110
3, 42912, Control_c, 2, 7, 115
3, 43000, Note_on_c, 2, 71, 0
3, 43008, Control_c, 2, 7, 60
3, 43008, Note_on_c, 2, 74, 110
3, 43056, Control_c, 2, 7, 65
3, 43104, Control_c, 2, 7, 70
3, 43152, Control_c, 2, 7, 75
3, 43200, Control_c, 2, 7, 85
3, 43248, Control_c, 2, 7, 95
3, 43296, Control_c, 2, 7, 105
3, 43344, Control_c, 2, 7, 115
3, 43392, Control_c, 2, 7, 115
3, 43480, Note_on_c, 2, 74, 0
3, 43488, Control_c, 2, 7, 85
3, 43488, Note_on_c, 2, 78, 110
3, 43512, Control_c, 2, 7, 95
3, 43536, Control_c, 2, 7, 105
3, 43560, Control_c, 2, 7, 115
3, 43580, Note_on_c, 2, 78, 0
3, 43584, Control_c, 2, 7, 85
3, 43584, Note_on_c, 2, 76, 100
3, 43608, Control_c, 2, 7, 95
3, 43632, Control_c, 2, 7, 105
3, 43656, Control_c, 2, 7, 115
3, 43676, Note_on_c, 2, 76, 0
3, 43680, Control_c, 2, 7, 85
3, 43680, Note_on_c, 2, 74, 95
3, 43704, Control_c, 2, 7, 95
3, 43728, Control_c, 2, 7, 105
3, 43752, Control_c, 2, 7, 115
3, 43772, Note_on_c, 2, 74, 0
3, 43776, Control_c, 2, 7, 50
3, 43776, Note_on_c, 2, 83, 100
3, 43824, Control_c, 2, 7, 60
3, 43872, Control_c, 2, 7, 70
3, 43920, Control_c, 2, 7, 80
3, 43968, Control_c, 2, 7, 90
3, 44016, Control_c, 2, 7, 100
3, 44064, Control_c, 2, 7, 107
3, 44112, Control_c, 2, 7, 117
3, 44160, Control_c, 2, 7, 122
3, 44344, Note_on_c, 2, 83, 0
3, 44352, Control_c, 2, 7, 85
3, 44352, Note_on_c, 2, 81, 110
3, 44376, Control_c, 2, 7, 95
3, 44400, Control_c, 2, 7, 105
3, 44424, Control_c, 2, 7, 115
3, 44448, Note_on_c, 2, 80, 110
3, 44448, Control_c, 2, 7, 85
3, 44448, Note_on_c, 2, 81, 0
3, 44472, Control_c, 2, 7, 95
3, 44496, Control_c, 2, 7, 105
3, 44520, Control_c, 2, 7, 115
3, 44544, Control_c, 2, 7, 85
3, 44544, Note_on_c, 2, 78, 100
3, 44544, Note_on_c, 2, 80, 0
3, 44556, Control_c, 2, 7, 95
3, 44568, Control_c, 2, 7, 105
3, 44580, Control_c, 2, 7, 115
3, 44592, Control_c, 2, 7, 85
3, 44592, Note_on_c, 2, 76, 110
3, 44592, Note_on_c, 2, 78, 0
3, 44604, Control_c, 2, 7, 95
3, 44616, Control_c, 2, 7, 105
3, 44628, Control_c, 2, 7, 115
3, 44640, Control_c, 2, 7, 85
3, 44640, Control_c, 2, 7, 70
3, 44640, Note_on_c, 2, 81, 110
3, 44640, Note_on_c, 2, 76, 0
3, 44664, Control_c, 2, 7, 95
3, 44688, Control_c, 2, 7, 105
3, 44712, Control_c, 2, 7, 115
3, 44732, Note_on_c, 2, 81, 0
3, 44736, Control_c, 2, 7, 85
3, 44736, Note_on_c, 2, 69, 110
3, 44784, Control_c, 2, 7, 95
3, 44832, Control_c, 2, 7, 105
3, 44880, Control_c, 2, 7, 115
3, 44924, Note_on_c, 2, 69, 0
3, 44928, Control_c, 2, 7, 70
3, 44928, Note_on_c, 2, 71, 100
3, 44976, Control_c, 2, 7, 80
3, 45024, Control_c, 2, 7, 90
3, 45072, Control_c, 2, 7, 100
3, 45120, Control_c, 2, 7, 110
3, 45168, Control_c, 2, 7, 115
3, 45216, Control_c, 2, 7, 85
3, 45216, Note_on_c, 2, 73, 95
3, 45216, Note_on_c, 2, 71, 0
3, 45228, Control_c, 2, 7, 95
3, 45240, Control_c, 2, 7, 105
3, 45252, Control_c, 2, 7, 115
3, 45264, Note_on_c, 2, 74, 105
3, 45264, Control_c, 2, 7, 85
3, 45264, Note_on_c, 2, 73, 0
3, 45276, Control_c, 2, 7, 95
3, 45288, Control_c, 2, 7, 105
3, 45300, Control_c, 2, 7, 115
3, 45312, Control_c, 2, 7, 85
3, 45312, Note_on_c, 2, 73, 110
3, 45312, Note_on_c, 2, 74, 0
3, 45360, Control_c, 2, 7, 95
3, 45408, Control_c, 2, 7, 105
3, 45504, Control_c, 2, 7, 115
3, 45596, Note_on_c, 2, 73, 0
3, 45600, Control_c, 2, 7, 85
3, 45600, Note_on_c, 2, 71, 100
3, 45624, Control_c, 2, 7, 95
3, 45648, Control_c, 2, 7, 105
3, 45672, Control_c, 2, 7, 115
3, 45692, Note_on_c, 2, 71, 0
3, 45696, Control_c, 2, 7, 85
3, 45696, Note_on_c, 2, 69, 80
3, 45744, Control_c, 2, 7, 90
3, 45792, Control_c, 2, 7, 95
3, 45840, Control_c, 2, 7, 100
3, 45888, Control_c, 2, 7, 105
3, 45936, Control_c, 2, 7, 110
3, 45984, Control_c, 2, 7, 115
3, 46072, Note_on_c, 2, 69, 0
3, 46080, Control_c, 2, 7, 60
3, 46080, Note_on_c, 2, 74, 110
3, 46128, Control_c, 2, 7, 65
3, 46176, Control_c, 2, 7, 70
3, 46224, Control_c, 2, 7, 75
3, 46272, Control_c, 2, 7, 85
3, 46320, Control_c, 2, 7, 95
3, 46368, Control_c, 2, 7, 105
3, 46464, Control_c, 2, 7, 115
3, 46560, Control_c, 2, 7, 115
3, 46656, Control_c, 2, 7, 70
3, 46656, Note_on_c, 2, 78, 100
3, 46656, Note_on_c, 2, 74, 0
3, 46680, Control_c, 2, 7, 90
3, 46704, Control_c, 2, 7, 110
3, 46728, Control_c, 2, 7, 115
3, 46752, Control_c, 2, 7, 85
3, 46752, Note_on_c, 2, 76, 110
3, 46752, Note_on_c, 2, 78, 0
3, 46776, Control_c, 2, 7, 95
3, 46800, Control_c, 2, 7, 105
3, 46824, Control_c, 2, 7, 115
3, 46844, Note_on_c, 2, 76, 0
3, 46848, Control_c, 2, 7, 60
3, 46848, Note_on_c, 2, 76, 110
3, 46896, Control_c, 2, 7, 65
3, 46944, Control_c, 2, 7, 70
3, 46992, Control_c, 2, 7, 75
3, 47040, Control_c, 2, 7, 85
3, 47088, Control_c, 2, 7, 95
3, 47136, Control_c, 2, 7, 105
3, 47232, Control_c, 2, 7, 115
3, 47328, Control_c, 2, 7, 115
3, 47424, Control_c, 2, 7, 70
3, 47424, Note_on_c, 2, 79, 100
3, 47424, Note_on_c, 2, 76, 0
3, 47448, Control_c, 2, 7, 90
3, 47472, Control_c, 2, 7, 110
3, 47496, Control_c, 2, 7, 115
3, 47520, Control_c, 2, 7, 85
3, 47520, Note_on_c, 2, 78, 110
3, 47520, Note_on_c, 2, 79, 0
3, 47544, Control_c, 2, 7, 95
3, 47568, Control_c, 2, 7, 105
3, 47592, Control_c, 2, 7, 115
3, 47612, Note_on_c, 2, 78, 0
3, 47616, Control_c, 2, 7, 60
3, 47616, Note_on_c, 2, 78, 110
3, 47664, Control_c, 2, 7, 65
3, 47712, Control_c, 2, 7, 70
3, 47760, Control_c, 2, 7, 75
3, 47808, Control_c, 2, 7, 85
3, 47856, Control_c, 2, 7, 95
3, 47904, Control_c, 2, 7, 105
3, 48000, Control_c, 2, 7, 115
3, 48096, Control_c, 2, 7, 115
3, 48192, Control_c, 2, 7, 70
3, 48192, Note_on_c, 2, 81, 100
3, 48192, Note_on_c, 2, 78, 0
3, 48216, Control_c, 2, 7, 90
3, 48240, Control_c, 2, 7, 110
3, 48264, Control_c, 2, 7, 115
3, 48288, Control_c, 2, 7, 85
3, 48288, Note_on_c, 2, 79, 110
3, 48288, Note_on_c, 2, 81, 0
3, 48312, Control_c, 2, 7, 95
3, 48336, Control_c, 2, 7, 105
3, 48360, Control_c, 2, 7, 115
3, 48380, Note_on_c, 2, 79, 0
3, 48384, Control_c, 2, 7, 60
3, 48384, Note_on_c, 2, 79, 100
3, 48432, Control_c, 2, 7, 65
3, 48480, Control_c, 2, 7, 70
3, 48528, Control_c, 2, 7, 75
3, 48576, Control_c, 2, 7, 80
3, 48624, Control_c, 2, 7, 85
3, 48672, Control_c, 2, 7, 90
3, 48720, Control_c, 2, 7, 95
3, 48768, Control_c, 2, 7, 100
3, 48864, Control_c, 2, 7, 105
3, 48960, Control_c, 2, 7, 110
3, 49056, Control_c, 2, 7, 115
3, 49144, Note_on_c, 2, 79, 0
3, 49152, Control_c, 2, 7, 70
3, 49152, Note_on_c, 2, 69, 100
3, 49176, Control_c, 2, 7, 75
3, 49200, Control_c, 2, 7, 80
3, 49224, Control_c, 2, 7, 85
3, 49248, Control_c, 2, 7, 95
3, 49272, Control_c, 2, 7, 100
3, 49296, Control_c, 2, 7, 110
3, 49320, Control_c, 2, 7, 120
3, 49624, Note_on_c, 2, 69, 0
3, 49632, Control_c, 2, 7, 85
3, 49632, Note_on_c, 2, 73, 120
3, 49656, Control_c, 2, 7, 95
3, 49680, Control_c, 2, 7, 105
3, 49704, Control_c, 2, 7, 115
3, 49724, Note_on_c, 2, 73, 0
3, 49728, Control_c, 2, 7, 85
3, 49728, Note_on_c, 2, 76, 100
3, 49752, Control_c, 2, 7, 95
3, 49776, Control_c, 2, 7, 105
3, 49800, Control_c, 2, 7, 115
3, 49820, Note_on_c, 2, 76, 0
3, 49824, Control_c, 2, 7, 85
3, 49824, Note_on_c, 2, 79, 110
3, 49848, Control_c, 2, 7, 95
3, 49872, Control_c, 2, 7, 105
3, 49896, Control_c, 2, 7, 115
3, 49916, Note_on_c, 2, 79, 0
3, 49920, Control_c, 2, 7, 85
3, 49920, Note_on_c, 2, 79, 100
3, 49944, Control_c, 2, 7, 95
3, 49968, Control_c, 2, 7, 105
3, 49992, Control_c, 2, 7, 115
3, 50012, Note_on_c, 2, 79, 0
3, 50016, Control_c, 2, 7, 85
3, 50016, Note_on_c, 2, 76, 110
3, 50040, Control_c, 2, 7, 95
3, 50064, Control_c, 2, 7, 105
3, 50088, Control_c, 2, 7, 115
3, 50108, Note_on_c, 2, 76, 0
3, 50112, Control_c, 2, 7, 85
3, 50112, Note_on_c, 2, 78, 110
3, 50160, Control_c, 2, 7, 100
3, 50208, Control_c, 2, 7, 115
3, 50256, Control_c, 2, 7, 120
3, 50588, Note_on_c, 2, 78, 0
3, 50592, Control_c, 2, 7, 85
3, 50592, Note_on_c, 2, 79, 110
3, 50604, Control_c, 2, 7, 95
3, 50616, Control_c, 2, 7, 105
3, 50628, Control_c, 2, 7, 115
3, 50640, Note_on_c, 2, 81, 115
3, 50640, Control_c, 2, 7, 85
3, 50640, Note_on_c, 2, 79, 0
3, 50652, Control_c, 2, 7, 95
3, 50664, Control_c, 2, 7, 105
3, 50676, Control_c, 2, 7, 115
3, 50688, Control_c, 2, 7, 70
3, 50688, Note_on_c, 2, 74, 100
3, 50688, Note_on_c, 2, 81, 0
3, 50712, Control_c, 2, 7, 75
3, 50736, Control_c, 2, 7, 80
3, 50760, Control_c, 2, 7, 85
3, 50784, Control_c, 2, 7, 90
3, 50808, Control_c, 2, 7, 95
3, 50832, Control_c, 2, 7, 100
3, 50856, Control_c, 2, 7, 110
3, 50880, Control_c, 2, 7, 120
3, 51160, Note_on_c, 2, 74, 0
3, 51168, Control_c, 2, 7, 85
3, 51168, Note_on_c, 2, 78, 120
3, 51192, Control_c, 2, 7, 95
3, 51216, Control_c, 2, 7, 105
3, 51240, Control_c, 2, 7, 115
3, 51260, Note_on_c, 2, 78, 0
3, 51264, Control_c, 2, 7, 85
3, 51264, Note_on_c, 2, 81, 100
3, 51288, Control_c, 2, 7, 95
3, 51312, Control_c, 2, 7, 105
3, 51336, Control_c, 2, 7, 115
3, 51356, Note_on_c, 2, 81, 0
3, 51360, Control_c, 2, 7, 85
3, 51360, Note_on_c, 2, 84, 110
3, 51384, Control_c, 2, 7, 95
3, 51408, Control_c, 2, 7, 105
3, 51432, Control_c, 2, 7, 115
3, 51452, Note_on_c, 2, 84, 0
3, 51456, Control_c, 2, 7, 60
3, 51456, Note_on_c, 2, 83, 115
3, 51480, Control_c, 2, 7, 65
3, 51504, Control_c, 2, 7, 70
3, 51528, Control_c, 2, 7, 75
3, 51552, Control_c, 2, 7, 80
3, 51576, Control_c, 2, 7, 85
3, 51600, Control_c, 2, 7, 90
3, 51624, Control_c, 2, 7, 95
3, 51648, Control_c, 2, 7, 100
3, 51672, Control_c, 2, 7, 105
3, 51696, Control_c, 2, 7, 110
3, 51720, Control_c, 2, 7, 120
3, 52028, Note_on_c, 2, 83, 0
3, 52032, Note_on_c, 2, 74, 100
3, 52032, Control_c, 2, 7, 85
3, 52056, Control_c, 2, 7, 95
3, 52080, Control_c, 2, 7, 105
3, 52104, Control_c, 2, 7, 115
3, 52224, Control_c, 2, 7, 85
3, 52224, Note_on_c, 2, 73, 90
3, 52224, Note_on_c, 2, 74, 0
3, 52248, Control_c, 2, 7, 95
3, 52272, Control_c, 2, 7, 105
3, 52296, Control_c, 2, 7, 115
3, 52316, Note_on_c, 2, 73, 0
3, 52320, Control_c, 2, 7, 85
3, 52320, Note_on_c, 2, 76, 100
3, 52344, Control_c, 2, 7, 95
3, 52368, Control_c, 2, 7, 105
3, 52392, Control_c, 2, 7, 115
3, 52412, Note_on_c, 2, 76, 0
3, 52416, Control_c, 2, 7, 85
3, 52416, Note_on_c, 2, 79, 115
3, 52464, Control_c, 2, 7, 95
3, 52512, Control_c, 2, 7, 105
3, 52560, Control_c, 2, 7, 115
3, 52800, Note_on_c, 2, 71, 100
3, 52800, Control_c, 2, 7, 85
3, 52800, Note_on_c, 2, 79, 0
3, 52824, Control_c, 2, 7, 95
3, 52848, Control_c, 2, 7, 105
3, 52872, Control_c, 2, 7, 115
3, 52992, Control_c, 2, 7, 85
3, 52992, Note_on_c, 2, 69, 90
3, 52992, Note_on_c, 2, 71, 0
3, 53016, Control_c, 2, 7, 95
3, 53040, Control_c, 2, 7, 105
3, 53064, Control_c, 2, 7, 115
3, 53184, Control_c, 2, 7, 85
3, 53184, Note_on_c, 2, 76, 100
3, 53184, Note_on_c, 2, 69, 0
3, 53208, Control_c, 2, 7, 95
3, 53232, Control_c, 2, 7, 105
3, 53256, Control_c, 2, 7, 115
3, 53276, Note_on_c, 2, 76, 0
3, 53280, Control_c, 2, 7, 85
3, 53280, Note_on_c, 2, 78, 105
3, 53292, Control_c, 2, 7, 95
3, 53304, Control_c, 2, 7, 105
3, 53316, Control_c, 2, 7, 115
3, 53324, Note_on_c, 2, 78, 0
3, 53328, Control_c, 2, 7, 85
3, 53328, Note_on_c, 2, 79, 110
3, 53340, Control_c, 2, 7, 95
3, 53352, Control_c, 2, 7, 105
3, 53364, Control_c, 2, 7, 115
3, 53376, Control_c, 2, 7, 85
3, 53400, Control_c, 2, 7, 95
3, 53424, Control_c, 2, 7, 105
3, 53448, Control_c, 2, 7, 115
3, 53471, Note_on_c, 2, 79, 0
3, 53472, Control_c, 2, 7, 85
3, 53472, Note_on_c, 2, 78, 105
3, 53496, Control_c, 2, 7, 95
3, 53520, Control_c, 2, 7, 105
3, 53544, Control_c, 2, 7, 115
3, 53664, Control_c, 2, 7, 85
3, 53664, Note_on_c, 2, 76, 100
3, 53664, Note_on_c, 2, 78, 0
3, 53688, Control_c, 2, 7, 95
3, 53712, Control_c, 2, 7, 105
3, 53736, Control_c, 2, 7, 115
3, 53756, Note_on_c, 2, 76, 0
3, 53760, Control_c, 2, 7, 85
3, 53760, Note_on_c, 2, 74, 105
3, 53772, Control_c, 2, 7, 95
3, 53784, Control_c, 2, 7, 105
3, 53796, Control_c, 2, 7, 115
3, 53804, Note_on_c, 2, 74, 0
3, 53808, Control_c, 2, 7, 85
3, 53808, Note_on_c, 2, 73, 100
3, 53820, Control_c, 2, 7, 95
3, 53832, Control_c, 2, 7, 105
3, 53844, Control_c, 2, 7, 115
3, 53852, Note_on_c, 2, 73, 0
3, 53856, Control_c, 2, 7, 85
3, 53856, Note_on_c, 2, 71, 100
3, 53904, Control_c, 2, 7, 95
3, 53952, Control_c, 2, 7, 105
3, 54000, Control_c, 2, 7, 115
3, 54044, Note_on_c, 2, 71, 0
3, 54048, Control_c, 2, 7, 85
3, 54048, Note_on_c, 2, 73, 105
3, 54072, Control_c, 2, 7, 95
3, 54096, Control_c, 2, 7, 105
3, 54120, Control_c, 2, 7, 115
3, 54140, Note_on_c, 2, 73, 0
3, 54144, Note_on_c, 2, 74, 108
3, 54144, Control_c, 2, 7, 85
3, 54191, Note_on_c, 2, 74, 0
3, 54192, Note_on_c, 2, 73, 107
3, 54239, Note_on_c, 2, 73, 0
3, 54240, Note_on_c, 2, 74, 102
3, 54276, Note_on_c, 2, 73, 98
3, 54287, Note_on_c, 2, 74, 0
3, 54298, Note_on_c, 2, 71, 96
3, 54323, Note_on_c, 2, 73, 0
3, 54336, Control_c, 2, 7, 85
3, 54336, Note_on_c, 2, 73, 103
3, 54345, Note_on_c, 2, 71, 0
3, 54360, Control_c, 2, 7, 95
3, 54384, Control_c, 2, 7, 105
3, 54408, Control_c, 2, 7, 115
3, 54428, Note_on_c, 2, 73, 0
3, 54432, Control_c, 2, 7, 85
3, 54432, Note_on_c, 2, 74, 100
3, 54456, Control_c, 2, 7, 95
3, 54480, Control_c, 2, 7, 105
3, 54504, Control_c, 2, 7, 115
3, 54524, Note_on_c, 2, 74, 0
3, 54528, Note_on_c, 2, 74, 100
3, 54528, Control_c, 2, 7, 60
3, 54576, Control_c, 2, 7, 65
3, 54624, Control_c, 2, 7, 70
3, 54672, Control_c, 2, 7, 75
3, 54720, Control_c, 2, 7, 80
3, 54768, Control_c, 2, 7, 85
3, 54816, Control_c, 2, 7, 90
3, 54864, Control_c, 2, 7, 95
3, 54912, Control_c, 2, 7, 100
3, 55008, Control_c, 2, 7, 105
3, 55104, Control_c, 2, 7, 110
3, 55200, Control_c, 2, 7, 115
3, 55296, Control_c, 2, 7, 123
3, 55344, Control_c, 2, 7, 121
3, 55376, Control_c, 2, 7, 120
3, 55392, Control_c, 2, 7, 119
3, 55424, Control_c, 2, 7, 118
3, 55440, Control_c, 2, 7, 117
3, 55472, Control_c, 2, 7, 115
3, 55488, Control_c, 2, 7, 114
3, 55504, Control_c, 2, 7, 113
3, 55520, Control_c, 2, 7, 112
3, 55536, Control_c, 2, 7, 109
3, 55568, Control_c, 2, 7, 107
3, 55584, Control_c, 2, 7, 105
3, 55600, Control_c, 2, 7, 104
3, 55616, Control_c, 2, 7, 102
3, 55648, Control_c, 2, 7, 100
3, 55664, Control_c, 2, 7, 92
3, 55696, Control_c, 2, 7, 84
3, 55712, Control_c, 2, 7, 78
3, 55728, Control_c, 2, 7, 66
3, 55744, Control_c, 2, 7, 64
3, 55760, Control_c, 2, 7, 62
3, 55776, Control_c, 2, 7, 54
3, 55792, Control_c, 2, 7, 46
3, 55808, Control_c, 2, 7, 38
3, 55824, Control_c, 2, 7, 36
3, 55840, Control_c, 2, 7, 31
3, 55856, Control_c, 2, 7, 29
3, 55872, Control_c, 2, 7, 28
3, 55904, Control_c, 2, 7, 25
3, 55920, Control_c, 2, 7, 24
3, 55936, Control_c, 2, 7, 18
3, 55952, Control_c, 2, 7, 17
3, 55968, Control_c, 2, 7, 15
3, 55984, Control_c, 2, 7, 13
3, 56000, Control_c, 2, 7, 11
3, 56032, Control_c, 2, 7, 10
3, 56048, Control_c, 2, 7, 8
3, 56063, Note_on_c, 2, 74, 0
3, 56063, End_track
4, 0, Start_track
4, 0, MIDI_port, 0
4, 0, Title_t, "SynthStrings"
4, 0, Program_c, 3, 50
4, 0, Control_c, 3, 7, 100
4, 0, Control_c, 3, 10, 88
4, 0, Control_c, 3, 121, 0
4, 0, Control_c, 3, 0, 0
4, 0, Program_c, 3, 50
4, 0, Control_c, 3, 10, 88
4, 0, Control_c, 3, 7, 30
4, 0, Note_on_c, 3, 78, 100
4, 0, Pitch_bend_c, 3, 8192
4, 0, Control_c, 3, 64, 0
4, 0, Control_c, 3, 91, 80
4, 0, Control_c, 3, 93, 30
4, 0, Control_c, 3, 11, 112
4, 48, Control_c, 3, 7, 20
4, 96, Control_c, 3, 7, 22
4, 144, Control_c, 3, 7, 24
4, 192, Control_c, 3, 7, 26
4, 240, Control_c, 3, 7, 28
4, 288, Control_c, 3, 7, 30
4, 336, Control_c, 3, 7, 32
4, 384, Control_c, 3, 7, 34
4, 432, Control_c, 3, 7, 36
4, 480, Control_c, 3, 7, 38
4, 528, Control_c, 3, 7, 40
4, 576, Control_c, 3, 7, 44
4, 624, Control_c, 3, 7, 48
4, 672, Control_c, 3, 7, 52
4, 720, Control_c, 3, 7, 56
4, 768, Control_c, 3, 7, 60
4, 816, Control_c, 3, 7, 64
4, 864, Control_c, 3, 7, 68
4, 912, Control_c, 3, 7, 72
4, 960, Control_c, 3, 7, 76
4, 1008, Control_c, 3, 7, 80
4, 1056, Control_c, 3, 7, 84
4, 1104, Control_c, 3, 7, 88
4, 1152, Control_c, 3, 7, 92
4, 1200, Control_c, 3, 7, 96
4, 1248, Control_c, 3, 7, 100
4, 1296, Control_c, 3, 7, 104
4, 1344, Control_c, 3, 7, 108
4, 1392, Control_c, 3, 7, 112
4, 1440, Control_c, 3, 7, 116
4, 1488, Control_c, 3, 7, 110
4, 1536, Control_c, 3, 7, 112
4, 1584, Control_c, 3, 7, 115
4, 1632, Control_c, 3, 7, 117
4, 1716, Note_on_c, 3, 78, 0
4, 1728, Control_c, 3, 7, 85
4, 1728, Note_on_c, 3, 83, 90
4, 1752, Control_c, 3, 7, 95
4, 1776, Control_c, 3, 7, 100
4, 1800, Control_c, 3, 7, 115
4, 1820, Note_on_c, 3, 83, 0
4, 1824, Control_c, 3, 7, 85
4, 1824, Note_on_c, 3, 79, 100
4, 1848, Control_c, 3, 7, 95
4, 1872, Control_c, 3, 7, 100
4, 1896, Control_c, 3, 7, 115
4, 1916, Note_on_c, 3, 79, 0
4, 1920, Control_c, 3, 7, 85
4, 1920, Note_on_c, 3, 78, 120
4, 1932, Note_on_c, 3, 76, 100
4, 1932, Note_on_c, 3, 78, 0
4, 1944, Control_c, 3, 7, 95
4, 1968, Control_c, 3, 7, 100
4, 1992, Control_c, 3, 7, 115
4, 2016, Control_c, 3, 7, 85
4, 2016, Note_on_c, 3, 74, 100
4, 2016, Note_on_c, 3, 76, 0
4, 2040, Control_c, 3, 7, 95
4, 2064, Control_c, 3, 7, 100
4, 2088, Control_c, 3, 7, 115
4, 2108, Note_on_c, 3, 74, 0
4, 2112, Control_c, 3, 7, 85
4, 2112, Note_on_c, 3, 73, 100
4, 2136, Control_c, 3, 7, 95
4, 2160, Control_c, 3, 7, 100
4, 2184, Control_c, 3, 7, 115
4, 2204, Note_on_c, 3, 73, 0
4, 2208, Control_c, 3, 7, 85
4, 2208, Note_on_c, 3, 74, 100
4, 2232, Control_c, 3, 7, 95
4, 2256, Control_c, 3, 7, 100
4, 2280, Control_c, 3, 7, 115
4, 2300, Note_on_c, 3, 74, 0
4, 2304, Control_c, 3, 7, 85
4, 2304, Note_on_c, 3, 73, 110
4, 2352, Control_c, 3, 7, 90
4, 2400, Control_c, 3, 7, 95
4, 2448, Control_c, 3, 7, 100
4, 2496, Control_c, 3, 7, 105
4, 2544, Control_c, 3, 7, 110
4, 2592, Control_c, 3, 7, 115
4, 2680, Note_on_c, 3, 73, 0
4, 2688, Control_c, 3, 7, 85
4, 2688, Note_on_c, 3, 71, 100
4, 2760, Note_on_c, 3, 71, 0
4, 2776, Note_on_c, 3, 69, 100
4, 2776, Control_c, 3, 7, 90
4, 2800, Control_c, 3, 7, 95
4, 2848, Control_c, 3, 7, 100
4, 2896, Control_c, 3, 7, 105
4, 2944, Control_c, 3, 7, 110
4, 2992, Control_c, 3, 7, 115
4, 3072, Note_on_c, 3, 81, 110
4, 3072, Control_c, 3, 7, 60
4, 3088, Note_on_c, 3, 69, 0
4, 3120, Control_c, 3, 7, 65
4, 3168, Control_c, 3, 7, 70
4, 3216, Control_c, 3, 7, 75
4, 3264, Control_c, 3, 7, 80
4, 3312, Control_c, 3, 7, 85
4, 3360, Control_c, 3, 7, 90
4, 3408, Control_c, 3, 7, 95
4, 3456, Control_c, 3, 7, 100
4, 3552, Control_c, 3, 7, 105
4, 3648, Control_c, 3, 7, 110
4, 3744, Control_c, 3, 7, 115
4, 3936, Control_c, 3, 7, 85
4, 3936, Note_on_c, 3, 78, 110
4, 3936, Note_on_c, 3, 81, 0
4, 3960, Control_c, 3, 7, 95
4, 3984, Control_c, 3, 7, 105
4, 4008, Control_c, 3, 7, 115
4, 4028, Note_on_c, 3, 78, 0
4, 4032, Control_c, 3, 7, 85
4, 4032, Note_on_c, 3, 72, 110
4, 4056, Control_c, 3, 7, 95
4, 4080, Control_c, 3, 7, 105
4, 4104, Control_c, 3, 7, 115
4, 4128, Control_c, 3, 7, 85
4, 4128, Note_on_c, 3, 71, 100
4, 4128, Note_on_c, 3, 72, 0
4, 4152, Control_c, 3, 7, 95
4, 4176, Control_c, 3, 7, 105
4, 4200, Control_c, 3, 7, 115
4, 4220, Note_on_c, 3, 71, 0
4, 4224, Control_c, 3, 7, 85
4, 4224, Note_on_c, 3, 76, 110
4, 4248, Control_c, 3, 7, 95
4, 4272, Control_c, 3, 7, 105
4, 4296, Control_c, 3, 7, 115
4, 4320, Control_c, 3, 7, 85
4, 4320, Note_on_c, 3, 75, 100
4, 4320, Note_on_c, 3, 76, 0
4, 4344, Control_c, 3, 7, 95
4, 4368, Control_c, 3, 7, 105
4, 4392, Control_c, 3, 7, 115
4, 4412, Note_on_c, 3, 75, 0
4, 4416, Control_c, 3, 7, 85
4, 4416, Note_on_c, 3, 81, 110
4, 4440, Control_c, 3, 7, 95
4, 4464, Control_c, 3, 7, 105
4, 4488, Control_c, 3, 7, 115
4, 4512, Control_c, 3, 7, 85
4, 4512, Note_on_c, 3, 79, 100
4, 4512, Note_on_c, 3, 81, 0
4, 4536, Control_c, 3, 7, 95
4, 4560, Control_c, 3, 7, 105
4, 4584, Control_c, 3, 7, 115
4, 4604, Note_on_c, 3, 79, 0
4, 4608, Note_on_c, 3, 79, 100
4, 4608, Control_c, 3, 7, 60
4, 4656, Control_c, 3, 7, 65
4, 4704, Control_c, 3, 7, 70
4, 4752, Control_c, 3, 7, 75
4, 4800, Control_c, 3, 7, 80
4, 4848, Control_c, 3, 7, 85
4, 4896, Control_c, 3, 7, 90
4, 4944, Control_c, 3, 7, 95
4, 4992, Control_c, 3, 7, 100
4, 5088, Control_c, 3, 7, 105
4, 5184, Control_c, 3, 7, 110
4, 5280, Control_c, 3, 7, 115
4, 5472, Control_c, 3, 7, 85
4, 5472, Note_on_c, 3, 76, 110
4, 5472, Note_on_c, 3, 79, 0
4, 5496, Control_c, 3, 7, 95
4, 5520, Control_c, 3, 7, 105
4, 5544, Control_c, 3, 7, 115
4, 5564, Note_on_c, 3, 76, 0
4, 5568, Control_c, 3, 7, 85
4, 5568, Note_on_c, 3, 71, 110
4, 5592, Control_c, 3, 7, 95
4, 5616, Control_c, 3, 7, 105
4, 5640, Control_c, 3, 7, 115
4, 5664, Control_c, 3, 7, 85
4, 5664, Note_on_c, 3, 69, 100
4, 5664, Note_on_c, 3, 71, 0
4, 5688, Control_c, 3, 7, 95
4, 5712, Control_c, 3, 7, 105
4, 5736, Control_c, 3, 7, 115
4, 5756, Note_on_c, 3, 69, 0
4, 5760, Control_c, 3, 7, 85
4, 5760, Note_on_c, 3, 74, 110
4, 5784, Control_c, 3, 7, 95
4, 5808, Control_c, 3, 7, 105
4, 5832, Control_c, 3, 7, 115
4, 5856, Control_c, 3, 7, 85
4, 5856, Note_on_c, 3, 73, 100
4, 5856, Note_on_c, 3, 74, 0
4, 5880, Control_c, 3, 7, 95
4, 5904, Control_c, 3, 7, 105
4, 5928, Control_c, 3, 7, 115
4, 5948, Note_on_c, 3, 73, 0
4, 5952, Control_c, 3, 7, 85
4, 5952, Note_on_c, 3, 79, 110
4, 5976, Control_c, 3, 7, 95
4, 6000, Control_c, 3, 7, 105
4, 6024, Control_c, 3, 7, 115
4, 6048, Control_c, 3, 7, 85
4, 6048, Note_on_c, 3, 78, 100
4, 6048, Note_on_c, 3, 79, 0
4, 6072, Control_c, 3, 7, 95
4, 6096, Control_c, 3, 7, 105
4, 6120, Control_c, 3, 7, 115
4, 6140, Note_on_c, 3, 78, 0
4, 6144, Control_c, 3, 7, 80
4, 6144, Note_on_c, 3, 78, 110
4, 6192, Control_c, 3, 7, 85
4, 6240, Control_c, 3, 7, 90
4, 6288, Control_c, 3, 7, 95
4, 6336, Control_c, 3, 7, 100
4, 6384, Control_c, 3, 7, 105
4, 6432, Control_c, 3, 7, 110
4, 6528, Control_c, 3, 7, 115
4, 6712, Note_on_c, 3, 78, 0
4, 6720, Control_c, 3, 7, 85
4, 6720, Note_on_c, 3, 80, 100
4, 6744, Control_c, 3, 7, 95
4, 6768, Control_c, 3, 7, 105
4, 6792, Control_c, 3, 7, 115
4, 6816, Note_on_c, 3, 81, 100
4, 6816, Note_on_c, 3, 80, 0
4, 6908, Note_on_c, 3, 81, 0
4, 6912, Control_c, 3, 7, 85
4, 6912, Note_on_c, 3, 74, 110
4, 6960, Control_c, 3, 7, 95
4, 7008, Control_c, 3, 7, 105
4, 7056, Control_c, 3, 7, 115
4, 7100, Note_on_c, 3, 74, 0
4, 7104, Control_c, 3, 7, 85
4, 7104, Note_on_c, 3, 74, 110
4, 7116, Control_c, 3, 7, 95
4, 7128, Control_c, 3, 7, 105
4, 7140, Control_c, 3, 7, 115
4, 7148, Note_on_c, 3, 74, 0
4, 7152, Control_c, 3, 7, 85
4, 7152, Note_on_c, 3, 76, 100
4, 7164, Control_c, 3, 7, 95
4, 7176, Control_c, 3, 7, 105
4, 7188, Control_c, 3, 7, 115
4, 7196, Note_on_c, 3, 76, 0
4, 7200, Control_c, 3, 7, 85
4, 7200, Note_on_c, 3, 78, 110
4, 7224, Control_c, 3, 7, 95
4, 7248, Control_c, 3, 7, 105
4, 7272, Control_c, 3, 7, 115
4, 7388, Note_on_c, 3, 78, 0
4, 7392, Control_c, 3, 7, 85
4, 7392, Note_on_c, 3, 76, 100
4, 7416, Control_c, 3, 7, 95
4, 7440, Control_c, 3, 7, 105
4, 7464, Control_c, 3, 7, 115
4, 7484, Note_on_c, 3, 76, 0
4, 7488, Control_c, 3, 7, 85
4, 7488, Note_on_c, 3, 76, 110
4, 7512, Control_c, 3, 7, 95
4, 7536, Control_c, 3, 7, 105
4, 7560, Control_c, 3, 7, 115
4, 7584, Control_c, 3, 7, 85
4, 7584, Note_on_c, 3, 74, 100
4, 7584, Note_on_c, 3, 76, 0
4, 7608, Control_c, 3, 7, 95
4, 7632, Control_c, 3, 7, 105
4, 7656, Control_c, 3, 7, 115
4, 7676, Note_on_c, 3, 74, 0
4, 7680, Control_c, 3, 7, 85
4, 7680, Note_on_c, 3, 73, 110
4, 7704, Control_c, 3, 7, 95
4, 7728, Control_c, 3, 7, 105
4, 7752, Control_c, 3, 7, 115
4, 7772, Note_on_c, 3, 73, 0
4, 7776, Control_c, 3, 7, 85
4, 7776, Note_on_c, 3, 71, 110
4, 7800, Control_c, 3, 7, 95
4, 7824, Control_c, 3, 7, 105
4, 7848, Control_c, 3, 7, 115
4, 7868, Note_on_c, 3, 71, 0
4, 7872, Control_c, 3, 7, 85
4, 7872, Note_on_c, 3, 71, 100
4, 7884, Control_c, 3, 7, 95
4, 7896, Control_c, 3, 7, 105
4, 7908, Control_c, 3, 7, 115
4, 7916, Note_on_c, 3, 71, 0
4, 7920, Control_c, 3, 7, 85
4, 7920, Note_on_c, 3, 73, 110
4, 7932, Control_c, 3, 7, 95
4, 7944, Control_c, 3, 7, 105
4, 7956, Control_c, 3, 7, 115
4, 7964, Note_on_c, 3, 73, 0
4, 7968, Control_c, 3, 7, 85
4, 7968, Note_on_c, 3, 74, 100
4, 7992, Control_c, 3, 7, 95
4, 8016, Control_c, 3, 7, 105
4, 8040, Control_c, 3, 7, 115
4, 8252, Note_on_c, 3, 74, 0
4, 8256, Control_c, 3, 7, 85
4, 8256, Note_on_c, 3, 73, 110
4, 8280, Control_c, 3, 7, 95
4, 8304, Control_c, 3, 7, 105
4, 8328, Control_c, 3, 7, 115
4, 8348, Note_on_c, 3, 73, 0
4, 8352, Control_c, 3, 7, 85
4, 8352, Note_on_c, 3, 71, 100
4, 8376, Control_c, 3, 7, 95
4, 8400, Control_c, 3, 7, 105
4, 8424, Control_c, 3, 7, 115
4, 8444, Note_on_c, 3, 71, 0
4, 8448, Control_c, 3, 7, 60
4, 8448, Note_on_c, 3, 69, 100
4, 8496, Control_c, 3, 7, 65
4, 8544, Control_c, 3, 7, 70
4, 8592, Control_c, 3, 7, 75
4, 8640, Control_c, 3, 7, 80
4, 8688, Control_c, 3, 7, 85
4, 8736, Control_c, 3, 7, 90
4, 8784, Control_c, 3, 7, 95
4, 8832, Control_c, 3, 7, 100
4, 8928, Control_c, 3, 7, 105
4, 9024, Control_c, 3, 7, 110
4, 9120, Control_c, 3, 7, 115
4, 9208, Note_on_c, 3, 69, 0
4, 9216, Note_on_c, 3, 78, 100
4, 9216, Control_c, 3, 7, 85
4, 9216, Control_c, 3, 11, 112
4, 9264, Control_c, 3, 7, 87
4, 9312, Control_c, 3, 7, 89
4, 9360, Control_c, 3, 7, 91
4, 9408, Control_c, 3, 7, 93
4, 9456, Control_c, 3, 7, 95
4, 9504, Control_c, 3, 7, 97
4, 9552, Control_c, 3, 7, 99
4, 9600, Control_c, 3, 7, 101
4, 9648, Control_c, 3, 7, 103
4, 9696, Control_c, 3, 7, 105
4, 9744, Control_c, 3, 7, 107
4, 9792, Control_c, 3, 7, 109
4, 9840, Control_c, 3, 7, 111
4, 9888, Control_c, 3, 7, 113
4, 9936, Control_c, 3, 7, 115
4, 10752, Control_c, 3, 7, 112
4, 10800, Control_c, 3, 7, 115
4, 10848, Control_c, 3, 7, 117
4, 10932, Note_on_c, 3, 78, 0
4, 10944, Control_c, 3, 7, 85
4, 10944, Note_on_c, 3, 83, 90
4, 10968, Control_c, 3, 7, 95
4, 10992, Control_c, 3, 7, 100
4, 11016, Control_c, 3, 7, 115
4, 11036, Note_on_c, 3, 83, 0
4, 11040, Control_c, 3, 7, 85
4, 11040, Note_on_c, 3, 79, 100
4, 11064, Control_c, 3, 7, 95
4, 11088, Control_c, 3, 7, 100
4, 11112, Control_c, 3, 7, 115
4, 11132, Note_on_c, 3, 79, 0
4, 11136, Control_c, 3, 7, 85
4, 11136, Note_on_c, 3, 78, 100
4, 11148, Note_on_c, 3, 76, 100
4, 11148, Note_on_c, 3, 78, 0
4, 11160, Control_c, 3, 7, 95
4, 11184, Control_c, 3, 7, 100
4, 11208, Control_c, 3, 7, 115
4, 11232, Control_c, 3, 7, 85
4, 11232, Note_on_c, 3, 74, 100
4, 11232, Note_on_c, 3, 76, 0
4, 11256, Control_c, 3, 7, 95
4, 11280, Control_c, 3, 7, 100
4, 11304, Control_c, 3, 7, 115
4, 11324, Note_on_c, 3, 74, 0
4, 11328, Control_c, 3, 7, 85
4, 11328, Note_on_c, 3, 73, 100
4, 11352, Control_c, 3, 7, 95
4, 11376, Control_c, 3, 7, 100
4, 11400, Control_c, 3, 7, 115
4, 11420, Note_on_c, 3, 73, 0
4, 11424, Control_c, 3, 7, 85
4, 11424, Note_on_c, 3, 74, 100
4, 11448, Control_c, 3, 7, 95
4, 11472, Control_c, 3, 7, 100
4, 11496, Control_c, 3, 7, 115
4, 11516, Note_on_c, 3, 74, 0
4, 11520, Control_c, 3, 7, 85
4, 11520, Note_on_c, 3, 73, 100
4, 11568, Control_c, 3, 7, 90
4, 11616, Control_c, 3, 7, 95
4, 11664, Control_c, 3, 7, 100
4, 11712, Control_c, 3, 7, 105
4, 11760, Control_c, 3, 7, 110
4, 11808, Control_c, 3, 7, 115
4, 11896, Note_on_c, 3, 73, 0
4, 11904, Control_c, 3, 7, 85
4, 11904, Note_on_c, 3, 71, 100
4, 11984, Note_on_c, 3, 71, 0
4, 11992, Note_on_c, 3, 69, 100
4, 11992, Control_c, 3, 7, 90
4, 12016, Control_c, 3, 7, 95
4, 12064, Control_c, 3, 7, 100
4, 12112, Control_c, 3, 7, 105
4, 12160, Control_c, 3, 7, 110
4, 12208, Control_c, 3, 7, 115
4, 12288, Note_on_c, 3, 81, 100
4, 12288, Control_c, 3, 7, 60
4, 12304, Note_on_c, 3, 69, 0
4, 12336, Control_c, 3, 7, 65
4, 12384, Control_c, 3, 7, 70
4, 12432, Control_c, 3, 7, 75
4, 12480, Control_c, 3, 7, 80
4, 12528, Control_c, 3, 7, 85
4, 12576, Control_c, 3, 7, 90
4, 12624, Control_c, 3, 7, 95
4, 12672, Control_c, 3, 7, 100
4, 12768, Control_c, 3, 7, 105
4, 12864, Control_c, 3, 7, 110
4, 12960, Control_c, 3, 7, 115
4, 13152, Control_c, 3, 7, 85
4, 13152, Note_on_c, 3, 78, 110
4, 13152, Note_on_c, 3, 81, 0
4, 13176, Control_c, 3, 7, 95
4, 13200, Control_c, 3, 7, 105
4, 13224, Control_c, 3, 7, 115
4, 13244, Note_on_c, 3, 78, 0
4, 13248, Control_c, 3, 7, 85
4, 13248, Note_on_c, 3, 72, 110
4, 13272, Control_c, 3, 7, 95
4, 13296, Control_c, 3, 7, 105
4, 13320, Control_c, 3, 7, 115
4, 13344, Control_c, 3, 7, 85
4, 13344, Note_on_c, 3, 71, 100
4, 13344, Note_on_c, 3, 72, 0
4, 13368, Control_c, 3, 7, 95
4, 13392, Control_c, 3, 7, 105
4, 13416, Control_c, 3, 7, 115
4, 13436, Note_on_c, 3, 71, 0
4, 13440, Control_c, 3, 7, 85
4, 13440, Note_on_c, 3, 76, 110
4, 13464, Control_c, 3, 7, 95
4, 13488, Control_c, 3, 7, 105
4, 13512, Control_c, 3, 7, 115
4, 13536, Control_c, 3, 7, 85
4, 13536, Note_on_c, 3, 75, 100
4, 13536, Note_on_c, 3, 76, 0
4, 13560, Control_c, 3, 7, 95
4, 13584, Control_c, 3, 7, 105
4, 13608, Control_c, 3, 7, 115
4, 13628, Note_on_c, 3, 75, 0
4, 13632, Control_c, 3, 7, 85
4, 13632, Note_on_c, 3, 81, 110
4, 13656, Control_c, 3, 7, 95
4, 13680, Control_c, 3, 7, 105
4, 13704, Control_c, 3, 7, 115
4, 13728, Control_c, 3, 7, 85
4, 13728, Note_on_c, 3, 79, 100
4, 13728, Note_on_c, 3, 81, 0
4, 13752, Control_c, 3, 7, 95
4, 13776, Control_c, 3, 7, 105
4, 13800, Control_c, 3, 7, 115
4, 13820, Note_on_c, 3, 79, 0
4, 13824, Note_on_c, 3, 79, 100
4, 13824, Control_c, 3, 7, 60
4, 13872, Control_c, 3, 7, 65
4, 13920, Control_c, 3, 7, 70
4, 13968, Control_c, 3, 7, 75
4, 14016, Control_c, 3, 7, 80
4, 14064, Control_c, 3, 7, 85
4, 14112, Control_c, 3, 7, 90
4, 14160, Control_c, 3, 7, 95
4, 14208, Control_c, 3, 7, 100
4, 14304, Control_c, 3, 7, 105
4, 14400, Control_c, 3, 7, 110
4, 14496, Control_c, 3, 7, 115
4, 14688, Control_c, 3, 7, 85
4, 14688, Note_on_c, 3, 76, 110
4, 14688, Note_on_c, 3, 79, 0
4, 14712, Control_c, 3, 7, 95
4, 14736, Control_c, 3, 7, 105
4, 14760, Control_c, 3, 7, 115
4, 14780, Note_on_c, 3, 76, 0
4, 14784, Control_c, 3, 7, 85
4, 14784, Note_on_c, 3, 71, 110
4, 14808, Control_c, 3, 7, 95
4, 14832, Control_c, 3, 7, 105
4, 14856, Control_c, 3, 7, 115
4, 14880, Control_c, 3, 7, 85
4, 14880, Note_on_c, 3, 69, 100
4, 14880, Note_on_c, 3, 71, 0
4, 14904, Control_c, 3, 7, 95
4, 14928, Control_c, 3, 7, 105
4, 14952, Control_c, 3, 7, 115
4, 14972, Note_on_c, 3, 69, 0
4, 14976, Control_c, 3, 7, 85
4, 14976, Note_on_c, 3, 74, 110
4, 15000, Control_c, 3, 7, 95
4, 15024, Control_c, 3, 7, 105
4, 15048, Control_c, 3, 7, 115
4, 15072, Control_c, 3, 7, 85
4, 15072, Note_on_c, 3, 73, 100
4, 15072, Note_on_c, 3, 74, 0
4, 15096, Control_c, 3, 7, 95
4, 15120, Control_c, 3, 7, 105
4, 15144, Control_c, 3, 7, 115
4, 15164, Note_on_c, 3, 73, 0
4, 15168, Control_c, 3, 7, 85
4, 15168, Note_on_c, 3, 79, 110
4, 15192, Control_c, 3, 7, 95
4, 15216, Control_c, 3, 7, 105
4, 15240, Control_c, 3, 7, 115
4, 15264, Control_c, 3, 7, 85
4, 15264, Note_on_c, 3, 78, 100
4, 15264, Note_on_c, 3, 79, 0
4, 15288, Control_c, 3, 7, 95
4, 15312, Control_c, 3, 7, 105
4, 15336, Control_c, 3, 7, 115
4, 15356, Note_on_c, 3, 78, 0
4, 15360, Control_c, 3, 7, 80
4, 15360, Note_on_c, 3, 78, 100
4, 15408, Control_c, 3, 7, 85
4, 15456, Control_c, 3, 7, 90
4, 15504, Control_c, 3, 7, 95
4, 15552, Control_c, 3, 7, 100
4, 15600, Control_c, 3, 7, 105
4, 15648, Control_c, 3, 7, 110
4, 15744, Control_c, 3, 7, 115
4, 15928, Note_on_c, 3, 78, 0
4, 15936, Control_c, 3, 7, 85
4, 15936, Note_on_c, 3, 80, 100
4, 15960, Control_c, 3, 7, 95
4, 15984, Control_c, 3, 7, 105
4, 16008, Control_c, 3, 7, 115
4, 16032, Note_on_c, 3, 81, 100
4, 16032, Note_on_c, 3, 80, 0
4, 16124, Note_on_c, 3, 81, 0
4, 16128, Control_c, 3, 7, 85
4, 16128, Note_on_c, 3, 74, 110
4, 16176, Control_c, 3, 7, 95
4, 16224, Control_c, 3, 7, 105
4, 16272, Control_c, 3, 7, 115
4, 16316, Note_on_c, 3, 74, 0
4, 16320, Control_c, 3, 7, 85
4, 16320, Note_on_c, 3, 74, 110
4, 16332, Control_c, 3, 7, 95
4, 16344, Control_c, 3, 7, 105
4, 16356, Control_c, 3, 7, 115
4, 16364, Note_on_c, 3, 74, 0
4, 16368, Control_c, 3, 7, 85
4, 16368, Note_on_c, 3, 76, 100
4, 16380, Control_c, 3, 7, 95
4, 16392, Control_c, 3, 7, 105
4, 16404, Control_c, 3, 7, 115
4, 16412, Note_on_c, 3, 76, 0
4, 16416, Control_c, 3, 7, 85
4, 16416, Note_on_c, 3, 78, 110
4, 16440, Control_c, 3, 7, 95
4, 16464, Control_c, 3, 7, 105
4, 16488, Control_c, 3, 7, 115
4, 16604, Note_on_c, 3, 78, 0
4, 16608, Control_c, 3, 7, 85
4, 16608, Note_on_c, 3, 76, 100
4, 16632, Control_c, 3, 7, 95
4, 16656, Control_c, 3, 7, 105
4, 16680, Control_c, 3, 7, 115
4, 16700, Note_on_c, 3, 76, 0
4, 16704, Control_c, 3, 7, 85
4, 16704, Note_on_c, 3, 76, 110
4, 16728, Control_c, 3, 7, 95
4, 16752, Control_c, 3, 7, 105
4, 16776, Control_c, 3, 7, 115
4, 16800, Control_c, 3, 7, 85
4, 16800, Note_on_c, 3, 74, 100
4, 16800, Note_on_c, 3, 76, 0
4, 16824, Control_c, 3, 7, 95
4, 16848, Control_c, 3, 7, 105
4, 16872, Control_c, 3, 7, 115
4, 16892, Note_on_c, 3, 74, 0
4, 16896, Control_c, 3, 7, 85
4, 16896, Note_on_c, 3, 73, 110
4, 16920, Control_c, 3, 7, 95
4, 16944, Control_c, 3, 7, 105
4, 16968, Control_c, 3, 7, 115
4, 16988, Note_on_c, 3, 73, 0
4, 16992, Control_c, 3, 7, 85
4, 16992, Note_on_c, 3, 71, 110
4, 17016, Control_c, 3, 7, 95
4, 17040, Control_c, 3, 7, 105
4, 17064, Control_c, 3, 7, 115
4, 17084, Note_on_c, 3, 71, 0
4, 17088, Control_c, 3, 7, 85
4, 17088, Note_on_c, 3, 71, 100
4, 17100, Control_c, 3, 7, 95
4, 17112, Control_c, 3, 7, 105
4, 17124, Control_c, 3, 7, 115
4, 17132, Note_on_c, 3, 71, 0
4, 17136, Control_c, 3, 7, 85
4, 17136, Note_on_c, 3, 73, 110
4, 17148, Control_c, 3, 7, 95
4, 17160, Control_c, 3, 7, 105
4, 17172, Control_c, 3, 7, 115
4, 17180, Note_on_c, 3, 73, 0
4, 17184, Control_c, 3, 7, 85
4, 17184, Note_on_c, 3, 74, 100
4, 17208, Control_c, 3, 7, 95
4, 17232, Control_c, 3, 7, 105
4, 17256, Control_c, 3, 7, 115
4, 17468, Note_on_c, 3, 74, 0
4, 17472, Control_c, 3, 7, 85
4, 17472, Note_on_c, 3, 73, 110
4, 17496, Control_c, 3, 7, 95
4, 17520, Control_c, 3, 7, 105
4, 17544, Control_c, 3, 7, 115
4, 17564, Note_on_c, 3, 73, 0
4, 17568, Control_c, 3, 7, 85
4, 17568, Note_on_c, 3, 71, 100
4, 17592, Control_c, 3, 7, 95
4, 17616, Control_c, 3, 7, 105
4, 17640, Control_c, 3, 7, 115
4, 17660, Note_on_c, 3, 71, 0
4, 17664, Control_c, 3, 7, 60
4, 17664, Note_on_c, 3, 69, 100
4, 17712, Control_c, 3, 7, 65
4, 17760, Control_c, 3, 7, 70
4, 17808, Control_c, 3, 7, 75
4, 17856, Control_c, 3, 7, 80
4, 17904, Control_c, 3, 7, 85
4, 17952, Control_c, 3, 7, 90
4, 18000, Control_c, 3, 7, 95
4, 18048, Control_c, 3, 7, 100
4, 18144, Control_c, 3, 7, 105
4, 18240, Control_c, 3, 7, 110
4, 18336, Control_c, 3, 7, 115
4, 18424, Note_on_c, 3, 69, 0
4, 18432, Control_c, 3, 7, 60
4, 18432, Note_on_c, 3, 73, 100
4, 18480, Control_c, 3, 7, 65
4, 18528, Control_c, 3, 7, 70
4, 18576, Control_c, 3, 7, 75
4, 18624, Control_c, 3, 7, 85
4, 18672, Control_c, 3, 7, 95
4, 18720, Control_c, 3, 7, 105
4, 18768, Control_c, 3, 7, 115
4, 18816, Control_c, 3, 7, 115
4, 18904, Note_on_c, 3, 73, 0
4, 18912, Control_c, 3, 7, 85
4, 18912, Note_on_c, 3, 74, 110
4, 18924, Control_c, 3, 7, 95
4, 18936, Control_c, 3, 7, 105
4, 18948, Control_c, 3, 7, 115
4, 18956, Note_on_c, 3, 74, 0
4, 18960, Control_c, 3, 7, 85
4, 18960, Note_on_c, 3, 73, 110
4, 18972, Control_c, 3, 7, 95
4, 18984, Control_c, 3, 7, 105
4, 18996, Control_c, 3, 7, 115
4, 19004, Note_on_c, 3, 73, 0
4, 19008, Control_c, 3, 7, 85
4, 19008, Note_on_c, 3, 71, 100
4, 19020, Control_c, 3, 7, 95
4, 19032, Control_c, 3, 7, 105
4, 19044, Control_c, 3, 7, 115
4, 19052, Note_on_c, 3, 71, 0
4, 19056, Control_c, 3, 7, 85
4, 19056, Note_on_c, 3, 73, 110
4, 19068, Control_c, 3, 7, 95
4, 19080, Control_c, 3, 7, 105
4, 19092, Control_c, 3, 7, 115
4, 19100, Note_on_c, 3, 73, 0
4, 19104, Control_c, 3, 7, 85
4, 19104, Note_on_c, 3, 69, 100
4, 19128, Control_c, 3, 7, 95
4, 19152, Control_c, 3, 7, 105
4, 19176, Control_c, 3, 7, 115
4, 19196, Note_on_c, 3, 69, 0
4, 19200, Control_c, 3, 7, 50
4, 19200, Note_on_c, 3, 81, 100
4, 19248, Control_c, 3, 7, 60
4, 19296, Control_c, 3, 7, 70
4, 19344, Control_c, 3, 7, 80
4, 19392, Control_c, 3, 7, 90
4, 19440, Control_c, 3, 7, 100
4, 19488, Control_c, 3, 7, 107
4, 19536, Control_c, 3, 7, 117
4, 19584, Control_c, 3, 7, 122
4, 19768, Note_on_c, 3, 81, 0
4, 19776, Control_c, 3, 7, 85
4, 19776, Note_on_c, 3, 72, 110
4, 19824, Control_c, 3, 7, 95
4, 19872, Control_c, 3, 7, 105
4, 19920, Control_c, 3, 7, 115
4, 19964, Note_on_c, 3, 72, 0
4, 19968, Control_c, 3, 7, 85
4, 19968, Note_on_c, 3, 71, 110
4, 20016, Control_c, 3, 7, 95
4, 20064, Control_c, 3, 7, 105
4, 20112, Control_c, 3, 7, 115
4, 20156, Note_on_c, 3, 71, 0
4, 20160, Control_c, 3, 7, 65
4, 20160, Note_on_c, 3, 83, 110
4, 20208, Control_c, 3, 7, 75
4, 20256, Control_c, 3, 7, 90
4, 20304, Control_c, 3, 7, 100
4, 20352, Control_c, 3, 7, 110
4, 20400, Control_c, 3, 7, 115
4, 20440, Note_on_c, 3, 83, 0
4, 20448, Control_c, 3, 7, 85
4, 20448, Note_on_c, 3, 81, 100
4, 20472, Control_c, 3, 7, 95
4, 20496, Control_c, 3, 7, 105
4, 20520, Control_c, 3, 7, 115
4, 20540, Note_on_c, 3, 81, 0
4, 20544, Control_c, 3, 7, 85
4, 20544, Note_on_c, 3, 79, 110
4, 20568, Control_c, 3, 7, 95
4, 20592, Control_c, 3, 7, 105
4, 20616, Control_c, 3, 7, 115
4, 20636, Note_on_c, 3, 79, 0
4, 20640, Control_c, 3, 7, 85
4, 20640, Note_on_c, 3, 78, 100
4, 20664, Control_c, 3, 7, 95
4, 20688, Control_c, 3, 7, 105
4, 20712, Control_c, 3, 7, 115
4, 20732, Note_on_c, 3, 78, 0
4, 20736, Control_c, 3, 7, 85
4, 20736, Note_on_c, 3, 79, 110
4, 20832, Control_c, 3, 7, 95
4, 20928, Control_c, 3, 7, 105
4, 21024, Control_c, 3, 7, 115
4, 21168, Control_c, 3, 7, 85
4, 21168, Note_on_c, 3, 78, 110
4, 21168, Note_on_c, 3, 79, 0
4, 21180, Control_c, 3, 7, 95
4, 21192, Control_c, 3, 7, 105
4, 21204, Control_c, 3, 7, 115
4, 21216, Control_c, 3, 7, 85
4, 21216, Note_on_c, 3, 76, 100
4, 21216, Note_on_c, 3, 78, 0
4, 21228, Control_c, 3, 7, 95
4, 21240, Control_c, 3, 7, 105
4, 21252, Control_c, 3, 7, 115
4, 21264, Control_c, 3, 7, 85
4, 21264, Note_on_c, 3, 74, 110
4, 21264, Note_on_c, 3, 76, 0
4, 21276, Control_c, 3, 7, 95
4, 21288, Control_c, 3, 7, 105
4, 21300, Control_c, 3, 7, 115
4, 21312, Control_c, 3, 7, 85
4, 21312, Note_on_c, 3, 73, 100
4, 21312, Note_on_c, 3, 74, 0
4, 21336, Control_c, 3, 7, 95
4, 21360, Control_c, 3, 7, 105
4, 21384, Control_c, 3, 7, 115
4, 21408, Control_c, 3, 7, 85
4, 21408, Note_on_c, 3, 71, 110
4, 21408, Note_on_c, 3, 73, 0
4, 21432, Control_c, 3, 7, 95
4, 21456, Control_c, 3, 7, 105
4, 21480, Control_c, 3, 7, 115
4, 21500, Note_on_c, 3, 71, 0
4, 21504, Control_c, 3, 7, 85
4, 21504, Control_c, 3, 7, 85
4, 21504, Note_on_c, 3, 70, 110
4, 21528, Control_c, 3, 7, 95
4, 21552, Control_c, 3, 7, 105
4, 21576, Control_c, 3, 7, 115
4, 21596, Note_on_c, 3, 70, 0
4, 21600, Control_c, 3, 7, 85
4, 21600, Note_on_c, 3, 71, 110
4, 21624, Control_c, 3, 7, 95
4, 21648, Control_c, 3, 7, 105
4, 21672, Control_c, 3, 7, 115
4, 21692, Note_on_c, 3, 71, 0
4, 21696, Control_c, 3, 7, 85
4, 21696, Note_on_c, 3, 73, 110
4, 21744, Control_c, 3, 7, 95
4, 21792, Control_c, 3, 7, 105
4, 21840, Control_c, 3, 7, 115
4, 21884, Note_on_c, 3, 73, 0
4, 21888, Control_c, 3, 7, 85
4, 21888, Note_on_c, 3, 73, 110
4, 21912, Control_c, 3, 7, 95
4, 21936, Control_c, 3, 7, 105
4, 21960, Control_c, 3, 7, 115
4, 21980, Note_on_c, 3, 73, 0
4, 21984, Control_c, 3, 7, 85
4, 21984, Note_on_c, 3, 74, 110
4, 22008, Control_c, 3, 7, 95
4, 22032, Control_c, 3, 7, 105
4, 22056, Control_c, 3, 7, 115
4, 22076, Note_on_c, 3, 74, 0
4, 22080, Note_on_c, 3, 76, 110
4, 22080, Control_c, 3, 7, 85
4, 22128, Control_c, 3, 7, 95
4, 22176, Control_c, 3, 7, 105
4, 22224, Control_c, 3, 7, 115
4, 22364, Note_on_c, 3, 76, 0
4, 22368, Control_c, 3, 7, 85
4, 22368, Note_on_c, 3, 78, 110
4, 22392, Control_c, 3, 7, 95
4, 22416, Control_c, 3, 7, 105
4, 22440, Control_c, 3, 7, 115
4, 22460, Note_on_c, 3, 78, 0
4, 22464, Control_c, 3, 7, 85
4, 22464, Note_on_c, 3, 79, 110
4, 22560, Control_c, 3, 7, 95
4, 22656, Control_c, 3, 7, 105
4, 22752, Control_c, 3, 7, 115
4, 22840, Note_on_c, 3, 79, 0
4, 22848, Control_c, 3, 7, 85
4, 22848, Note_on_c, 3, 78, 110
4, 22896, Control_c, 3, 7, 95
4, 22944, Control_c, 3, 7, 105
4, 22992, Control_c, 3, 7, 115
4, 23036, Note_on_c, 3, 78, 0
4, 23040, Control_c, 3, 7, 85
4, 23040, Note_on_c, 3, 76, 110
4, 23064, Control_c, 3, 7, 95
4, 23088, Control_c, 3, 7, 105
4, 23112, Control_c, 3, 7, 115
4, 23132, Note_on_c, 3, 76, 0
4, 23136, Control_c, 3, 7, 85
4, 23136, Note_on_c, 3, 74, 105
4, 23160, Control_c, 3, 7, 95
4, 23184, Control_c, 3, 7, 105
4, 23208, Control_c, 3, 7, 115
4, 23228, Note_on_c, 3, 74, 0
4, 23232, Control_c, 3, 7, 85
4, 23232, Note_on_c, 3, 73, 100
4, 23256, Control_c, 3, 7, 95
4, 23280, Control_c, 3, 7, 105
4, 23304, Control_c, 3, 7, 115
4, 23324, Note_on_c, 3, 73, 0
4, 23328, Control_c, 3, 7, 85
4, 23328, Note_on_c, 3, 71, 90
4, 23352, Control_c, 3, 7, 95
4, 23376, Control_c, 3, 7, 105
4, 23400, Control_c, 3, 7, 115
4, 23420, Note_on_c, 3, 71, 0
4, 23424, Control_c, 3, 7, 85
4, 23424, Note_on_c, 3, 73, 100
4, 23448, Control_c, 3, 7, 95
4, 23472, Control_c, 3, 7, 105
4, 23496, Control_c, 3, 7, 115
4, 23520, Control_c, 3, 7, 85
4, 23520, Note_on_c, 3, 74, 105
4, 23520, Note_on_c, 3, 73, 0
4, 23532, Control_c, 3, 7, 95
4, 23544, Control_c, 3, 7, 105
4, 23556, Control_c, 3, 7, 115
4, 23568, Control_c, 3, 7, 85
4, 23568, Note_on_c, 3, 76, 115
4, 23568, Note_on_c, 3, 74, 0
4, 23580, Control_c, 3, 7, 95
4, 23592, Control_c, 3, 7, 105
4, 23604, Control_c, 3, 7, 115
4, 23616, Control_c, 3, 7, 85
4, 23616, Note_on_c, 3, 74, 105
4, 23616, Note_on_c, 3, 76, 0
4, 23664, Control_c, 3, 7, 95
4, 23712, Control_c, 3, 7, 105
4, 23760, Control_c, 3, 7, 115
4, 23804, Note_on_c, 3, 74, 0
4, 23808, Control_c, 3, 7, 60
4, 23808, Note_on_c, 3, 71, 100
4, 23856, Control_c, 3, 7, 65
4, 23904, Control_c, 3, 7, 70
4, 23952, Control_c, 3, 7, 75
4, 24000, Control_c, 3, 7, 80
4, 24048, Control_c, 3, 7, 85
4, 24096, Control_c, 3, 7, 90
4, 24144, Control_c, 3, 7, 95
4, 24192, Control_c, 3, 7, 100
4, 24288, Control_c, 3, 7, 105
4, 24384, Control_c, 3, 7, 110
4, 24480, Control_c, 3, 7, 115
4, 24568, Note_on_c, 3, 71, 0
4, 24576, Control_c, 3, 7, 60
4, 24576, Note_on_c, 3, 74, 110
4, 24624, Control_c, 3, 7, 65
4, 24672, Control_c, 3, 7, 70
4, 24720, Control_c, 3, 7, 75
4, 24768, Control_c, 3, 7, 85
4, 24816, Control_c, 3, 7, 95
4, 24864, Control_c, 3, 7, 105
4, 24912, Control_c, 3, 7, 115
4, 24960, Control_c, 3, 7, 115
4, 25048, Note_on_c, 3, 74, 0
4, 25056, Control_c, 3, 7, 85
4, 25056, Note_on_c, 3, 78, 110
4, 25080, Control_c, 3, 7, 95
4, 25104, Control_c, 3, 7, 105
4, 25128, Control_c, 3, 7, 115
4, 25148, Note_on_c, 3, 78, 0
4, 25152, Control_c, 3, 7, 85
4, 25152, Note_on_c, 3, 76, 100
4, 25176, Control_c, 3, 7, 95
4, 25200, Control_c, 3, 7, 105
4, 25224, Control_c, 3, 7, 115
4, 25244, Note_on_c, 3, 76, 0
4, 25248, Control_c, 3, 7, 85
4, 25248, Note_on_c, 3, 74, 95
4, 25272, Control_c, 3, 7, 95
4, 25296, Control_c, 3, 7, 105
4, 25320, Control_c, 3, 7, 115
4, 25340, Note_on_c, 3, 74, 0
4, 25344, Control_c, 3, 7, 50
4, 25344, Note_on_c, 3, 83, 100
4, 25392, Control_c, 3, 7, 60
4, 25440, Control_c, 3, 7, 70
4, 25488, Control_c, 3, 7, 80
4, 25536, Control_c, 3, 7, 90
4, 25584, Control_c, 3, 7, 100
4, 25632, Control_c, 3, 7, 107
4, 25680, Control_c, 3, 7, 117
4, 25728, Control_c, 3, 7, 122
4, 25912, Note_on_c, 3, 83, 0
4, 25920, Control_c, 3, 7, 85
4, 25920, Note_on_c, 3, 81, 110
4, 25944, Control_c, 3, 7, 95
4, 25968, Control_c, 3, 7, 105
4, 25992, Control_c, 3, 7, 115
4, 26016, Note_on_c, 3, 80, 110
4, 26016, Control_c, 3, 7, 85
4, 26016, Note_on_c, 3, 81, 0
4, 26040, Control_c, 3, 7, 95
4, 26064, Control_c, 3, 7, 105
4, 26088, Control_c, 3, 7, 115
4, 26112, Control_c, 3, 7, 85
4, 26112, Note_on_c, 3, 78, 100
4, 26112, Note_on_c, 3, 80, 0
4, 26124, Control_c, 3, 7, 95
4, 26136, Control_c, 3, 7, 105
4, 26148, Control_c, 3, 7, 115
4, 26160, Control_c, 3, 7, 85
4, 26160, Note_on_c, 3, 76, 110
4, 26160, Note_on_c, 3, 78, 0
4, 26172, Control_c, 3, 7, 95
4, 26184, Control_c, 3, 7, 105
4, 26196, Control_c, 3, 7, 115
4, 26208, Control_c, 3, 7, 85
4, 26208, Control_c, 3, 7, 70
4, 26208, Note_on_c, 3, 81, 110
4, 26208, Note_on_c, 3, 76, 0
4, 26232, Control_c, 3, 7, 95
4, 26256, Control_c, 3, 7, 105
4, 26280, Control_c, 3, 7, 115
4, 26300, Note_on_c, 3, 81, 0
4, 26304, Control_c, 3, 7, 85
4, 26304, Note_on_c, 3, 69, 110
4, 26352, Control_c, 3, 7, 95
4, 26400, Control_c, 3, 7, 105
4, 26448, Control_c, 3, 7, 115
4, 26492, Note_on_c, 3, 69, 0
4, 26496, Control_c, 3, 7, 70
4, 26496, Note_on_c, 3, 71, 100
4, 26544, Control_c, 3, 7, 80
4, 26592, Control_c, 3, 7, 90
4, 26640, Control_c, 3, 7, 100
4, 26688, Control_c, 3, 7, 110
4, 26736, Control_c, 3, 7, 115
4, 26784, Control_c, 3, 7, 85
4, 26784, Note_on_c, 3, 73, 95
4, 26784, Note_on_c, 3, 71, 0
4, 26796, Control_c, 3, 7, 95
4, 26808, Control_c, 3, 7, 105
4, 26820, Control_c, 3, 7, 115
4, 26832, Note_on_c, 3, 74, 105
4, 26832, Control_c, 3, 7, 85
4, 26832, Note_on_c, 3, 73, 0
4, 26844, Control_c, 3, 7, 95
4, 26856, Control_c, 3, 7, 105
4, 26868, Control_c, 3, 7, 115
4, 26880, Control_c, 3, 7, 85
4, 26880, Note_on_c, 3, 73, 110
4, 26880, Note_on_c, 3, 74, 0
4, 26928, Control_c, 3, 7, 95
4, 26976, Control_c, 3, 7, 105
4, 27072, Control_c, 3, 7, 115
4, 27164, Note_on_c, 3, 73, 0
4, 27168, Control_c, 3, 7, 85
4, 27168, Note_on_c, 3, 71, 100
4, 27192, Control_c, 3, 7, 95
4, 27216, Control_c, 3, 7, 105
4, 27240, Control_c, 3, 7, 115
4, 27260, Note_on_c, 3, 71, 0
4, 27264, Control_c, 3, 7, 85
4, 27264, Note_on_c, 3, 69, 80
4, 27312, Control_c, 3, 7, 90
4, 27360, Control_c, 3, 7, 95
4, 27408, Control_c, 3, 7, 100
4, 27456, Control_c, 3, 7, 105
4, 27504, Control_c, 3, 7, 110
4, 27552, Control_c, 3, 7, 115
4, 27640, Note_on_c, 3, 69, 0
4, 27648, Control_c, 3, 7, 60
4, 27648, Note_on_c, 3, 74, 110
4, 27696, Control_c, 3, 7, 65
4, 27744, Control_c, 3, 7, 70
4, 27792, Control_c, 3, 7, 75
4, 27840, Control_c, 3, 7, 85
4, 27888, Control_c, 3, 7, 95
4, 27936, Control_c, 3, 7, 105
4, 28032, Control_c, 3, 7, 115
4, 28128, Control_c, 3, 7, 115
4, 28224, Control_c, 3, 7, 70
4, 28224, Note_on_c, 3, 78, 100
4, 28224, Note_on_c, 3, 74, 0
4, 28248, Control_c, 3, 7, 90
4, 28272, Control_c, 3, 7, 110
4, 28296, Control_c, 3, 7, 115
4, 28320, Control_c, 3, 7, 85
4, 28320, Note_on_c, 3, 76, 110
4, 28320, Note_on_c, 3, 78, 0
4, 28344, Control_c, 3, 7, 95
4, 28368, Control_c, 3, 7, 105
4, 28392, Control_c, 3, 7, 115
4, 28412, Note_on_c, 3, 76, 0
4, 28416, Control_c, 3, 7, 60
4, 28416, Note_on_c, 3, 76, 110
4, 28464, Control_c, 3, 7, 65
4, 28512, Control_c, 3, 7, 70
4, 28560, Control_c, 3, 7, 75
4, 28608, Control_c, 3, 7, 85
4, 28656, Control_c, 3, 7, 95
4, 28704, Control_c, 3, 7, 105
4, 28800, Control_c, 3, 7, 115
4, 28896, Control_c, 3, 7, 115
4, 28992, Control_c, 3, 7, 70
4, 28992, Note_on_c, 3, 79, 100
4, 28992, Note_on_c, 3, 76, 0
4, 29016, Control_c, 3, 7, 90
4, 29040, Control_c, 3, 7, 110
4, 29064, Control_c, 3, 7, 115
4, 29088, Control_c, 3, 7, 85
4, 29088, Note_on_c, 3, 78, 110
4, 29088, Note_on_c, 3, 79, 0
4, 29112, Control_c, 3, 7, 95
4, 29136, Control_c, 3, 7, 105
4, 29160, Control_c, 3, 7, 115
4, 29180, Note_on_c, 3, 78, 0
4, 29184, Control_c, 3, 7, 60
4, 29184, Note_on_c, 3, 78, 110
4, 29232, Control_c, 3, 7, 65
4, 29280, Control_c, 3, 7, 70
4, 29328, Control_c, 3, 7, 75
4, 29376, Control_c, 3, 7, 85
4, 29424, Control_c, 3, 7, 95
4, 29472, Control_c, 3, 7, 105
4, 29568, Control_c, 3, 7, 115
4, 29664, Control_c, 3, 7, 115
4, 29760, Control_c, 3, 7, 70
4, 29760, Note_on_c, 3, 81, 100
4, 29760, Note_on_c, 3, 78, 0
4, 29784, Control_c, 3, 7, 90
4, 29808, Control_c, 3, 7, 110
4, 29832, Control_c, 3, 7, 115
4, 29856, Control_c, 3, 7, 85
4, 29856, Note_on_c, 3, 79, 110
4, 29856, Note_on_c, 3, 81, 0
4, 29880, Control_c, 3, 7, 95
4, 29904, Control_c, 3, 7, 105
4, 29928, Control_c, 3, 7, 115
4, 29948, Note_on_c, 3, 79, 0
4, 29952, Control_c, 3, 7, 60
4, 29952, Note_on_c, 3, 79, 100
4, 30000, Control_c, 3, 7, 65
4, 30048, Control_c, 3, 7, 70
4, 30096, Control_c, 3, 7, 75
4, 30144, Control_c, 3, 7, 80
4, 30192, Control_c, 3, 7, 85
4, 30240, Control_c, 3, 7, 90
4, 30288, Control_c, 3, 7, 95
4, 30336, Control_c, 3, 7, 100
4, 30432, Control_c, 3, 7, 105
4, 30528, Control_c, 3, 7, 110
4, 30624, Control_c, 3, 7, 115
4, 30712, Note_on_c, 3, 79, 0
4, 30720, Control_c, 3, 7, 70
4, 30720, Note_on_c, 3, 69, 100
4, 30744, Control_c, 3, 7, 75
4, 30768, Control_c, 3, 7, 80
4, 30792, Control_c, 3, 7, 85
4, 30816, Control_c, 3, 7, 95
4, 30840, Control_c, 3, 7, 100
4, 30864, Control_c, 3, 7, 110
4, 30888, Control_c, 3, 7, 120
4, 31192, Note_on_c, 3, 69, 0
4, 31200, Control_c, 3, 7, 85
4, 31200, Note_on_c, 3, 73, 120
4, 31224, Control_c, 3, 7, 95
4, 31248, Control_c, 3, 7, 105
4, 31272, Control_c, 3, 7, 115
4, 31292, Note_on_c, 3, 73, 0
4, 31296, Control_c, 3, 7, 85
4, 31296, Note_on_c, 3, 76, 100
4, 31320, Control_c, 3, 7, 95
4, 31344, Control_c, 3, 7, 105
4, 31368, Control_c, 3, 7, 115
4, 31388, Note_on_c, 3, 76, 0
4, 31392, Control_c, 3, 7, 85
4, 31392, Note_on_c, 3, 79, 110
4, 31416, Control_c, 3, 7, 95
4, 31440, Control_c, 3, 7, 105
4, 31464, Control_c, 3, 7, 115
4, 31484, Note_on_c, 3, 79, 0
4, 31488, Control_c, 3, 7, 85
4, 31488, Note_on_c, 3, 79, 100
4, 31512, Control_c, 3, 7, 95
4, 31536, Control_c, 3, 7, 105
4, 31560, Control_c, 3, 7, 115
4, 31580, Note_on_c, 3, 79, 0
4, 31584, Control_c, 3, 7, 85
4, 31584, Note_on_c, 3, 76, 110
4, 31608, Control_c, 3, 7, 95
4, 31632, Control_c, 3, 7, 105
4, 31656, Control_c, 3, 7, 115
4, 31676, Note_on_c, 3, 76, 0
4, 31680, Control_c, 3, 7, 85
4, 31680, Note_on_c, 3, 78, 110
4, 31728, Control_c, 3, 7, 100
4, 31776, Control_c, 3, 7, 115
4, 31824, Control_c, 3, 7, 120
4, 32156, Note_on_c, 3, 78, 0
4, 32160, Control_c, 3, 7, 85
4, 32160, Note_on_c, 3, 79, 110
4, 32172, Control_c, 3, 7, 95
4, 32184, Control_c, 3, 7, 105
4, 32196, Control_c, 3, 7, 115
4, 32208, Note_on_c, 3, 81, 115
4, 32208, Control_c, 3, 7, 85
4, 32208, Note_on_c, 3, 79, 0
4, 32220, Control_c, 3, 7, 95
4, 32232, Control_c, 3, 7, 105
4, 32244, Control_c, 3, 7, 115
4, 32256, Control_c, 3, 7, 70
4, 32256, Note_on_c, 3, 74, 100
4, 32256, Note_on_c, 3, 81, 0
4, 32280, Control_c, 3, 7, 75
4, 32304, Control_c, 3, 7, 80
4, 32328, Control_c, 3, 7, 85
4, 32352, Control_c, 3, 7, 90
4, 32376, Control_c, 3, 7, 95
4, 32400, Control_c, 3, 7, 100
4, 32424, Control_c, 3, 7, 110
4, 32448, Control_c, 3, 7, 120
4, 32728, Note_on_c, 3, 74, 0
4, 32736, Control_c, 3, 7, 85
4, 32736, Note_on_c, 3, 78, 120
4, 32760, Control_c, 3, 7, 95
4, 32784, Control_c, 3, 7, 105
4, 32808, Control_c, 3, 7, 115
4, 32828, Note_on_c, 3, 78, 0
4, 32832, Control_c, 3, 7, 85
4, 32832, Note_on_c, 3, 81, 100
4, 32856, Control_c, 3, 7, 95
4, 32880, Control_c, 3, 7, 105
4, 32904, Control_c, 3, 7, 115
4, 32924, Note_on_c, 3, 81, 0
4, 32928, Control_c, 3, 7, 85
4, 32928, Note_on_c, 3, 84, 110
4, 32952, Control_c, 3, 7, 95
4, 32976, Control_c, 3, 7, 105
4, 33000, Control_c, 3, 7, 115
4, 33020, Note_on_c, 3, 84, 0
4, 33024, Control_c, 3, 7, 60
4, 33024, Note_on_c, 3, 83, 115
4, 33048, Control_c, 3, 7, 65
4, 33072, Control_c, 3, 7, 70
4, 33096, Control_c, 3, 7, 75
4, 33120, Control_c, 3, 7, 80
4, 33144, Control_c, 3, 7, 85
4, 33168, Control_c, 3, 7, 90
4, 33192, Control_c, 3, 7, 95
4, 33216, Control_c, 3, 7, 100
4, 33240, Control_c, 3, 7, 105
4, 33264, Control_c, 3, 7, 110
4, 33288, Control_c, 3, 7, 120
4, 33596, Note_on_c, 3, 83, 0
4, 33600, Note_on_c, 3, 74, 100
4, 33600, Control_c, 3, 7, 85
4, 33624, Control_c, 3, 7, 95
4, 33648, Control_c, 3, 7, 105
4, 33672, Control_c, 3, 7, 115
4, 33792, Control_c, 3, 7, 85
4, 33792, Note_on_c, 3, 73, 90
4, 33792, Note_on_c, 3, 74, 0
4, 33816, Control_c, 3, 7, 95
4, 33840, Control_c, 3, 7, 105
4, 33864, Control_c, 3, 7, 115
4, 33884, Note_on_c, 3, 73, 0
4, 33888, Control_c, 3, 7, 85
4, 33888, Note_on_c, 3, 76, 100
4, 33912, Control_c, 3, 7, 95
4, 33936, Control_c, 3, 7, 105
4, 33960, Control_c, 3, 7, 115
4, 33980, Note_on_c, 3, 76, 0
4, 33984, Control_c, 3, 7, 85
4, 33984, Note_on_c, 3, 79, 115
4, 34032, Control_c, 3, 7, 95
4, 34080, Control_c, 3, 7, 105
4, 34128, Control_c, 3, 7, 115
4, 34368, Note_on_c, 3, 71, 100
4, 34368, Control_c, 3, 7, 85
4, 34368, Note_on_c, 3, 79, 0
4, 34392, Control_c, 3, 7, 95
4, 34416, Control_c, 3, 7, 105
4, 34440, Control_c, 3, 7, 115
4, 34560, Control_c, 3, 7, 85
4, 34560, Note_on_c, 3, 69, 90
4, 34560, Note_on_c, 3, 71, 0
4, 34584, Control_c, 3, 7, 95
4, 34608, Control_c, 3, 7, 105
4, 34632, Control_c, 3, 7, 115
4, 34752, Control_c, 3, 7, 85
4, 34752, Note_on_c, 3, 76, 100
4, 34752, Note_on_c, 3, 69, 0
4, 34776, Control_c, 3, 7, 95
4, 34800, Control_c, 3, 7, 105
4, 34824, Control_c, 3, 7, 115
4, 34844, Note_on_c, 3, 76, 0
4, 34848, Control_c, 3, 7, 85
4, 34848, Note_on_c, 3, 78, 105
4, 34860, Control_c, 3, 7, 95
4, 34872, Control_c, 3, 7, 105
4, 34884, Control_c, 3, 7, 115
4, 34892, Note_on_c, 3, 78, 0
4, 34896, Control_c, 3, 7, 85
4, 34896, Note_on_c, 3, 79, 110
4, 34908, Control_c, 3, 7, 95
4, 34920, Control_c, 3, 7, 105
4, 34932, Control_c, 3, 7, 115
4, 34940, Note_on_c, 3, 79, 0
4, 34944, Control_c, 3, 7, 85
4, 34944, Note_on_c, 3, 79, 110
4, 34968, Control_c, 3, 7, 95
4, 34992, Control_c, 3, 7, 105
4, 35016, Control_c, 3, 7, 115
4, 35036, Note_on_c, 3, 79, 0
4, 35040, Control_c, 3, 7, 85
4, 35040, Note_on_c, 3, 78, 105
4, 35064, Control_c, 3, 7, 95
4, 35088, Control_c, 3, 7, 105
4, 35112, Control_c, 3, 7, 115
4, 35232, Control_c, 3, 7, 85
4, 35232, Note_on_c, 3, 76, 100
4, 35232, Note_on_c, 3, 78, 0
4, 35256, Control_c, 3, 7, 95
4, 35280, Control_c, 3, 7, 105
4, 35304, Control_c, 3, 7, 115
4, 35324, Note_on_c, 3, 76, 0
4, 35328, Control_c, 3, 7, 85
4, 35328, Note_on_c, 3, 74, 105
4, 35340, Control_c, 3, 7, 95
4, 35352, Control_c, 3, 7, 105
4, 35364, Control_c, 3, 7, 115
4, 35372, Note_on_c, 3, 74, 0
4, 35376, Control_c, 3, 7, 85
4, 35376, Note_on_c, 3, 73, 100
4, 35388, Control_c, 3, 7, 95
4, 35400, Control_c, 3, 7, 105
4, 35412, Control_c, 3, 7, 115
4, 35420, Note_on_c, 3, 73, 0
4, 35424, Control_c, 3, 7, 85
4, 35424, Note_on_c, 3, 71, 100
4, 35472, Control_c, 3, 7, 95
4, 35520, Control_c, 3, 7, 105
4, 35568, Control_c, 3, 7, 115
4, 35612, Note_on_c, 3, 71, 0
4, 35616, Control_c, 3, 7, 85
4, 35616, Note_on_c, 3, 73, 105
4, 35640, Control_c, 3, 7, 95
4, 35664, Control_c, 3, 7, 105
4, 35688, Control_c, 3, 7, 115
4, 35708, Note_on_c, 3, 73, 0
4, 35712, Note_on_c, 3, 74, 108
4, 35712, Control_c, 3, 7, 85
4, 35759, Note_on_c, 3, 74, 0
4, 35760, Note_on_c, 3, 73, 107
4, 35807, Note_on_c, 3, 73, 0
4, 35808, Note_on_c, 3, 74, 102
4, 35844, Note_on_c, 3, 73, 98
4, 35855, Note_on_c, 3, 74, 0
4, 35866, Note_on_c, 3, 71, 96
4, 35891, Note_on_c, 3, 73, 0
4, 35904, Control_c, 3, 7, 85
4, 35904, Note_on_c, 3, 73, 103
4, 35913, Note_on_c, 3, 71, 0
4, 35928, Control_c, 3, 7, 95
4, 35952, Control_c, 3, 7, 105
4, 35976, Control_c, 3, 7, 115
4, 35996, Note_on_c, 3, 73, 0
4, 36000, Control_c, 3, 7, 85
4, 36000, Note_on_c, 3, 74, 100
4, 36024, Control_c, 3, 7, 95
4, 36048, Control_c, 3, 7, 105
4, 36072, Control_c, 3, 7, 115
4, 36092, Note_on_c, 3, 74, 0
4, 36096, Control_c, 3, 7, 60
4, 36096, Note_on_c, 3, 74, 100
4, 36144, Control_c, 3, 7, 65
4, 36192, Control_c, 3, 7, 70
4, 36240, Control_c, 3, 7, 75
4, 36288, Control_c, 3, 7, 80
4, 36336, Control_c, 3, 7, 85
4, 36384, Control_c, 3, 7, 90
4, 36432, Control_c, 3, 7, 95
4, 36480, Control_c, 3, 7, 100
4, 36576, Control_c, 3, 7, 105
4, 36672, Control_c, 3, 7, 110
4, 36768, Control_c, 3, 7, 115
4, 36856, Note_on_c, 3, 74, 0
4, 36864, Control_c, 3, 7, 60
4, 36864, Note_on_c, 3, 73, 100
4, 36912, Control_c, 3, 7, 65
4, 36960, Control_c, 3, 7, 70
4, 37008, Control_c, 3, 7, 75
4, 37056, Control_c, 3, 7, 85
4, 37104, Control_c, 3, 7, 95
4, 37152, Control_c, 3, 7, 105
4, 37200, Control_c, 3, 7, 115
4, 37248, Control_c, 3, 7, 115
4, 37336, Note_on_c, 3, 73, 0
4, 37344, Control_c, 3, 7, 85
4, 37344, Note_on_c, 3, 74, 110
4, 37356, Control_c, 3, 7, 95
4, 37368, Control_c, 3, 7, 105
4, 37380, Control_c, 3, 7, 115
4, 37388, Note_on_c, 3, 74, 0
4, 37392, Control_c, 3, 7, 85
4, 37392, Note_on_c, 3, 73, 110
4, 37404, Control_c, 3, 7, 95
4, 37416, Control_c, 3, 7, 105
4, 37428, Control_c, 3, 7, 115
4, 37436, Note_on_c, 3, 73, 0
4, 37440, Control_c, 3, 7, 85
4, 37440, Note_on_c, 3, 71, 100
4, 37452, Control_c, 3, 7, 95
4, 37464, Control_c, 3, 7, 105
4, 37476, Control_c, 3, 7, 115
4, 37484, Note_on_c, 3, 71, 0
4, 37488, Control_c, 3, 7, 85
4, 37488, Note_on_c, 3, 73, 110
4, 37500, Control_c, 3, 7, 95
4, 37512, Control_c, 3, 7, 105
4, 37524, Control_c, 3, 7, 115
4, 37532, Note_on_c, 3, 73, 0
4, 37536, Control_c, 3, 7, 85
4, 37536, Note_on_c, 3, 69, 100
4, 37560, Control_c, 3, 7, 95
4, 37584, Control_c, 3, 7, 105
4, 37608, Control_c, 3, 7, 115
4, 37628, Note_on_c, 3, 69, 0
4, 37632, Control_c, 3, 7, 50
4, 37632, Note_on_c, 3, 81, 100
4, 37680, Control_c, 3, 7, 60
4, 37728, Control_c, 3, 7, 70
4, 37776, Control_c, 3, 7, 80
4, 37824, Control_c, 3, 7, 90
4, 37872, Control_c, 3, 7, 100
4, 37920, Control_c, 3, 7, 107
4, 37968, Control_c, 3, 7, 117
4, 38016, Control_c, 3, 7, 122
4, 38200, Note_on_c, 3, 81, 0
4, 38208, Control_c, 3, 7, 85
4, 38208, Note_on_c, 3, 72, 110
4, 38256, Control_c, 3, 7, 95
4, 38304, Control_c, 3, 7, 105
4, 38352, Control_c, 3, 7, 115
4, 38396, Note_on_c, 3, 72, 0
4, 38400, Control_c, 3, 7, 85
4, 38400, Note_on_c, 3, 71, 110
4, 38448, Control_c, 3, 7, 95
4, 38496, Control_c, 3, 7, 105
4, 38544, Control_c, 3, 7, 115
4, 38588, Note_on_c, 3, 71, 0
4, 38592, Control_c, 3, 7, 65
4, 38592, Note_on_c, 3, 83, 110
4, 38640, Control_c, 3, 7, 75
4, 38688, Control_c, 3, 7, 90
4, 38736, Control_c, 3, 7, 100
4, 38784, Control_c, 3, 7, 110
4, 38832, Control_c, 3, 7, 115
4, 38872, Note_on_c, 3, 83, 0
4, 38880, Control_c, 3, 7, 85
4, 38880, Note_on_c, 3, 81, 100
4, 38904, Control_c, 3, 7, 95
4, 38928, Control_c, 3, 7, 105
4, 38952, Control_c, 3, 7, 115
4, 38972, Note_on_c, 3, 81, 0
4, 38976, Control_c, 3, 7, 85
4, 38976, Note_on_c, 3, 79, 110
4, 39000, Control_c, 3, 7, 95
4, 39024, Control_c, 3, 7, 105
4, 39048, Control_c, 3, 7, 115
4, 39068, Note_on_c, 3, 79, 0
4, 39072, Control_c, 3, 7, 85
4, 39072, Note_on_c, 3, 78, 100
4, 39096, Control_c, 3, 7, 95
4, 39120, Control_c, 3, 7, 105
4, 39144, Control_c, 3, 7, 115
4, 39164, Note_on_c, 3, 78, 0
4, 39168, Control_c, 3, 7, 85
4, 39168, Note_on_c, 3, 79, 110
4, 39264, Control_c, 3, 7, 95
4, 39360, Control_c, 3, 7, 105
4, 39456, Control_c, 3, 7, 115
4, 39600, Control_c, 3, 7, 85
4, 39600, Note_on_c, 3, 78, 110
4, 39600, Note_on_c, 3, 79, 0
4, 39612, Control_c, 3, 7, 95
4, 39624, Control_c, 3, 7, 105
4, 39636, Control_c, 3, 7, 115
4, 39648, Control_c, 3, 7, 85
4, 39648, Note_on_c, 3, 76, 100
4, 39648, Note_on_c, 3, 78, 0
4, 39660, Control_c, 3, 7, 95
4, 39672, Control_c, 3, 7, 105
4, 39684, Control_c, 3, 7, 115
4, 39696, Control_c, 3, 7, 85
4, 39696, Note_on_c, 3, 74, 110
4, 39696, Note_on_c, 3, 76, 0
4, 39708, Control_c, 3, 7, 95
4, 39720, Control_c, 3, 7, 105
4, 39732, Control_c, 3, 7, 115
4, 39744, Control_c, 3, 7, 85
4, 39744, Note_on_c, 3, 73, 100
4, 39744, Note_on_c, 3, 74, 0
4, 39768, Control_c, 3, 7, 95
4, 39792, Control_c, 3, 7, 105
4, 39816, Control_c, 3, 7, 115
4, 39840, Control_c, 3, 7, 85
4, 39840, Note_on_c, 3, 71, 110
4, 39840, Note_on_c, 3, 73, 0
4, 39864, Control_c, 3, 7, 95
4, 39888, Control_c, 3, 7, 105
4, 39912, Control_c, 3, 7, 115
4, 39932, Note_on_c, 3, 71, 0
4, 39936, Control_c, 3, 7, 85
4, 39936, Control_c, 3, 7, 85
4, 39936, Note_on_c, 3, 70, 110
4, 39960, Control_c, 3, 7, 95
4, 39984, Control_c, 3, 7, 105
4, 40008, Control_c, 3, 7, 115
4, 40028, Note_on_c, 3, 70, 0
4, 40032, Control_c, 3, 7, 85
4, 40032, Note_on_c, 3, 71, 110
4, 40056, Control_c, 3, 7, 95
4, 40080, Control_c, 3, 7, 105
4, 40104, Control_c, 3, 7, 115
4, 40124, Note_on_c, 3, 71, 0
4, 40128, Control_c, 3, 7, 85
4, 40128, Note_on_c, 3, 73, 110
4, 40176, Control_c, 3, 7, 95
4, 40224, Control_c, 3, 7, 105
4, 40272, Control_c, 3, 7, 115
4, 40316, Note_on_c, 3, 73, 0
4, 40320, Control_c, 3, 7, 85
4, 40320, Note_on_c, 3, 73, 110
4, 40344, Control_c, 3, 7, 95
4, 40368, Control_c, 3, 7, 105
4, 40392, Control_c, 3, 7, 115
4, 40412, Note_on_c, 3, 73, 0
4, 40416, Control_c, 3, 7, 85
4, 40416, Note_on_c, 3, 74, 110
4, 40440, Control_c, 3, 7, 95
4, 40464, Control_c, 3, 7, 105
4, 40488, Control_c, 3, 7, 115
4, 40508, Note_on_c, 3, 74, 0
4, 40512, Note_on_c, 3, 76, 110
4, 40512, Control_c, 3, 7, 85
4, 40560, Control_c, 3, 7, 95
4, 40608, Control_c, 3, 7, 105
4, 40656, Control_c, 3, 7, 115
4, 40796, Note_on_c, 3, 76, 0
4, 40800, Control_c, 3, 7, 85
4, 40800, Note_on_c, 3, 78, 110
4, 40824, Control_c, 3, 7, 95
4, 40848, Control_c, 3, 7, 105
4, 40872, Control_c, 3, 7, 115
4, 40892, Note_on_c, 3, 78, 0
4, 40896, Control_c, 3, 7, 85
4, 40896, Note_on_c, 3, 79, 110
4, 40992, Control_c, 3, 7, 95
4, 41088, Control_c, 3, 7, 105
4, 41184, Control_c, 3, 7, 115
4, 41272, Note_on_c, 3, 79, 0
4, 41280, Control_c, 3, 7, 85
4, 41280, Note_on_c, 3, 78, 110
4, 41328, Control_c, 3, 7, 95
4, 41376, Control_c, 3, 7, 105
4, 41424, Control_c, 3, 7, 115
4, 41468, Note_on_c, 3, 78, 0
4, 41472, Control_c, 3, 7, 85
4, 41472, Note_on_c, 3, 76, 110
4, 41496, Control_c, 3, 7, 95
4, 41520, Control_c, 3, 7, 105
4, 41544, Control_c, 3, 7, 115
4, 41564, Note_on_c, 3, 76, 0
4, 41568, Control_c, 3, 7, 85
4, 41568, Note_on_c, 3, 74, 105
4, 41592, Control_c, 3, 7, 95
4, 41616, Control_c, 3, 7, 105
4, 41640, Control_c, 3, 7, 115
4, 41660, Note_on_c, 3, 74, 0
4, 41664, Control_c, 3, 7, 85
4, 41664, Note_on_c, 3, 73, 100
4, 41688, Control_c, 3, 7, 95
4, 41712, Control_c, 3, 7, 105
4, 41736, Control_c, 3, 7, 115
4, 41756, Note_on_c, 3, 73, 0
4, 41760, Control_c, 3, 7, 85
4, 41760, Note_on_c, 3, 71, 90
4, 41784, Control_c, 3, 7, 95
4, 41808, Control_c, 3, 7, 105
4, 41832, Control_c, 3, 7, 115
4, 41852, Note_on_c, 3, 71, 0
4, 41856, Control_c, 3, 7, 85
4, 41856, Note_on_c, 3, 73, 100
4, 41880, Control_c, 3, 7, 95
4, 41904, Control_c, 3, 7, 105
4, 41928, Control_c, 3, 7, 115
4, 41952, Control_c, 3, 7, 85
4, 41952, Note_on_c, 3, 74, 105
4, 41952, Note_on_c, 3, 73, 0
4, 41964, Control_c, 3, 7, 95
4, 41976, Control_c, 3, 7, 105
4, 41988, Control_c, 3, 7, 115
4, 42000, Control_c, 3, 7, 85
4, 42000, Note_on_c, 3, 76, 115
4, 42000, Note_on_c, 3, 74, 0
4, 42012, Control_c, 3, 7, 95
4, 42024, Control_c, 3, 7, 105
4, 42036, Control_c, 3, 7, 115
4, 42048, Control_c, 3, 7, 85
4, 42048, Note_on_c, 3, 74, 105
4, 42048, Note_on_c, 3, 76, 0
4, 42096, Control_c, 3, 7, 95
4, 42144, Control_c, 3, 7, 105
4, 42192, Control_c, 3, 7, 115
4, 42236, Note_on_c, 3, 74, 0
4, 42240, Control_c, 3, 7, 60
4, 42240, Note_on_c, 3, 71, 100
4, 42288, Control_c, 3, 7, 65
4, 42336, Control_c, 3, 7, 70
4, 42384, Control_c, 3, 7, 75
4, 42432, Control_c, 3, 7, 80
4, 42480, Control_c, 3, 7, 85
4, 42528, Control_c, 3, 7, 90
4, 42576, Control_c, 3, 7, 95
4, 42624, Control_c, 3, 7, 100
4, 42720, Control_c, 3, 7, 105
4, 42816, Control_c, 3, 7, 110
4, 42912, Control_c, 3, 7, 115
4, 43000, Note_on_c, 3, 71, 0
4, 43008, Control_c, 3, 7, 60
4, 43008, Note_on_c, 3, 74, 110
4, 43056, Control_c, 3, 7, 65
4, 43104, Control_c, 3, 7, 70
4, 43152, Control_c, 3, 7, 75
4, 43200, Control_c, 3, 7, 85
4, 43248, Control_c, 3, 7, 95
4, 43296, Control_c, 3, 7, 105
4, 43344, Control_c, 3, 7, 115
4, 43392, Control_c, 3, 7, 115
4, 43480, Note_on_c, 3, 74, 0
4, 43488, Control_c, 3, 7, 85
4, 43488, Note_on_c, 3, 78, 110
4, 43512, Control_c, 3, 7, 95
4, 43536, Control_c, 3, 7, 105
4, 43560, Control_c, 3, 7, 115
4, 43580, Note_on_c, 3, 78, 0
4, 43584, Control_c, 3, 7, 85
4, 43584, Note_on_c, 3, 76, 100
4, 43608, Control_c, 3, 7, 95
4, 43632, Control_c, 3, 7, 105
4, 43656, Control_c, 3, 7, 115
4, 43676, Note_on_c, 3, 76, 0
4, 43680, Control_c, 3, 7, 85
4, 43680, Note_on_c, 3, 74, 95
4, 43704, Control_c, 3, 7, 95
4, 43728, Control_c, 3, 7, 105
4, 43752, Control_c, 3, 7, 115
4, 43772, Note_on_c, 3, 74, 0
4, 43776, Control_c, 3, 7, 50
4, 43776, Note_on_c, 3, 83, 100
4, 43824, Control_c, 3, 7, 60
4, 43872, Control_c, 3, 7, 70
4, 43920, Control_c, 3, 7, 80
4, 43968, Control_c, 3, 7, 90
4, 44016, Control_c, 3, 7, 100
4, 44064, Control_c, 3, 7, 107
4, 44112, Control_c, 3, 7, 117
4, 44160, Control_c, 3, 7, 122
4, 44344, Note_on_c, 3, 83, 0
4, 44352, Control_c, 3, 7, 85
4, 44352, Note_on_c, 3, 81, 110
4, 44376, Control_c, 3, 7, 95
4, 44400, Control_c, 3, 7, 105
4, 44424, Control_c, 3, 7, 115
4, 44448, Note_on_c, 3, 80, 110
4, 44448, Control_c, 3, 7, 85
4, 44448, Note_on_c, 3, 81, 0
4, 44472, Control_c, 3, 7, 95
4, 44496, Control_c, 3, 7, 105
4, 44520, Control_c, 3, 7, 115
4, 44544, Control_c, 3, 7, 85
4, 44544, Note_on_c, 3, 78, 100
4, 44544, Note_on_c, 3, 80, 0
4, 44556, Control_c, 3, 7, 95
4, 44568, Control_c, 3, 7, 105
4, 44580, Control_c, 3, 7, 115
4, 44592, Control_c, 3, 7, 85
4, 44592, Note_on_c, 3, 76, 110
4, 44592, Note_on_c, 3, 78, 0
4, 44604, Control_c, 3, 7, 95
4, 44616, Control_c, 3, 7, 105
4, 44628, Control_c, 3, 7, 115
4, 44640, Control_c, 3, 7, 85
4, 44640, Control_c, 3, 7, 70
4, 44640, Note_on_c, 3, 81, 110
4, 44640, Note_on_c, 3, 76, 0
4, 44664, Control_c, 3, 7, 95
4, 44688, Control_c, 3, 7, 105
4, 44712, Control_c, 3, 7, 115
4, 44732, Note_on_c, 3, 81, 0
4, 44736, Control_c, 3, 7, 85
4, 44736, Note_on_c, 3, 69, 110
4, 44784, Control_c, 3, 7, 95
4, 44832, Control_c, 3, 7, 105
4, 44880, Control_c, 3, 7, 115
4, 44924, Note_on_c, 3, 69, 0
4, 44928, Control_c, 3, 7, 70
4, 44928, Note_on_c, 3, 71, 100
4, 44976, Control_c, 3, 7, 80
4, 45024, Control_c, 3, 7, 90
4, 45072, Control_c, 3, 7, 100
4, 45120, Control_c, 3, 7, 110
4, 45168, Control_c, 3, 7, 115
4, 45216, Control_c, 3, 7, 85
4, 45216, Note_on_c, 3, 73, 95
4, 45216, Note_on_c, 3, 71, 0
4, 45228, Control_c, 3, 7, 95
4, 45240, Control_c, 3, 7, 105
4, 45252, Control_c, 3, 7, 115
4, 45264, Note_on_c, 3, 74, 105
4, 45264, Control_c, 3, 7, 85
4, 45264, Note_on_c, 3, 73, 0
4, 45276, Control_c, 3, 7, 95
4, 45288, Control_c, 3, 7, 105
4, 45300, Control_c, 3, 7, 115
4, 45312, Control_c, 3, 7, 85
4, 45312, Note_on_c, 3, 73, 110
4, 45312, Note_on_c, 3, 74, 0
4, 45360, Control_c, 3, 7, 95
4, 45408, Control_c, 3, 7, 105
4, 45504, Control_c, 3, 7, 115
4, 45596, Note_on_c, 3, 73, 0
4, 45600, Control_c, 3, 7, 85
4, 45600, Note_on_c, 3, 71, 100
4, 45624, Control_c, 3, 7, 95
4, 45648, Control_c, 3, 7, 105
4, 45672, Control_c, 3, 7, 115
4, 45692, Note_on_c, 3, 71, 0
4, 45696, Control_c, 3, 7, 85
4, 45696, Note_on_c, 3, 69, 80
4, 45744, Control_c, 3, 7, 90
4, 45792, Control_c, 3, 7, 95
4, 45840, Control_c, 3, 7, 100
4, 45888, Control_c, 3, 7, 105
4, 45936, Control_c, 3, 7, 110
4, 45984, Control_c, 3, 7, 115
4, 46072, Note_on_c, 3, 69, 0
4, 46080, Control_c, 3, 7, 60
4, 46080, Note_on_c, 3, 74, 110
4, 46128, Control_c, 3, 7, 65
4, 46176, Control_c, 3, 7, 70
4, 46224, Control_c, 3, 7, 75
4, 46272, Control_c, 3, 7, 85
4, 46320, Control_c, 3, 7, 95
4, 46368, Control_c, 3, 7, 105
4, 46464, Control_c, 3, 7, 115
4, 46560, Control_c, 3, 7, 115
4, 46656, Control_c, 3, 7, 70
4, 46656, Note_on_c, 3, 78, 100
4, 46656, Note_on_c, 3, 74, 0
4, 46680, Control_c, 3, 7, 90
4, 46704, Control_c, 3, 7, 110
4, 46728, Control_c, 3, 7, 115
4, 46752, Control_c, 3, 7, 85
4, 46752, Note_on_c, 3, 76, 110
4, 46752, Note_on_c, 3, 78, 0
4, 46776, Control_c, 3, 7, 95
4, 46800, Control_c, 3, 7, 105
4, 46824, Control_c, 3, 7, 115
4, 46844, Note_on_c, 3, 76, 0
4, 46848, Control_c, 3, 7, 60
4, 46848, Note_on_c, 3, 76, 110
4, 46896, Control_c, 3, 7, 65
4, 46944, Control_c, 3, 7, 70
4, 46992, Control_c, 3, 7, 75
4, 47040, Control_c, 3, 7, 85
4, 47088, Control_c, 3, 7, 95
4, 47136, Control_c, 3, 7, 105
4, 47232, Control_c, 3, 7, 115
4, 47328, Control_c, 3, 7, 115
4, 47424, Control_c, 3, 7, 70
4, 47424, Note_on_c, 3, 79, 100
4, 47424, Note_on_c, 3, 76, 0
4, 47448, Control_c, 3, 7, 90
4, 47472, Control_c, 3, 7, 110
4, 47496, Control_c, 3, 7, 115
4, 47520, Control_c, 3, 7, 85
4, 47520, Note_on_c, 3, 78, 110
4, 47520, Note_on_c, 3, 79, 0
4, 47544, Control_c, 3, 7, 95
4, 47568, Control_c, 3, 7, 105
4, 47592, Control_c, 3, 7, 115
4, 47612, Note_on_c, 3, 78, 0
4, 47616, Control_c, 3, 7, 60
4, 47616, Note_on_c, 3, 78, 110
4, 47664, Control_c, 3, 7, 65
4, 47712, Control_c, 3, 7, 70
4, 47760, Control_c, 3, 7, 75
4, 47808, Control_c, 3, 7, 85
4, 47856, Control_c, 3, 7, 95
4, 47904, Control_c, 3, 7, 105
4, 48000, Control_c, 3, 7, 115
4, 48096, Control_c, 3, 7, 115
4, 48192, Control_c, 3, 7, 70
4, 48192, Note_on_c, 3, 81, 100
4, 48192, Note_on_c, 3, 78, 0
4, 48216, Control_c, 3, 7, 90
4, 48240, Control_c, 3, 7, 110
4, 48264, Control_c, 3, 7, 115
4, 48288, Control_c, 3, 7, 85
4, 48288, Note_on_c, 3, 79, 110
4, 48288, Note_on_c, 3, 81, 0
4, 48312, Control_c, 3, 7, 95
4, 48336, Control_c, 3, 7, 105
4, 48360, Control_c, 3, 7, 115
4, 48380, Note_on_c, 3, 79, 0
4, 48384, Control_c, 3, 7, 60
4, 48384, Note_on_c, 3, 79, 100
4, 48432, Control_c, 3, 7, 65
4, 48480, Control_c, 3, 7, 70
4, 48528, Control_c, 3, 7, 75
4, 48576, Control_c, 3, 7, 80
4, 48624, Control_c, 3, 7, 85
4, 48672, Control_c, 3, 7, 90
4, 48720, Control_c, 3, 7, 95
4, 48768, Control_c, 3, 7, 100
4, 48864, Control_c, 3, 7, 105
4, 48960, Control_c, 3, 7, 110
4, 49056, Control_c, 3, 7, 115
4, 49144, Note_on_c, 3, 79, 0
4, 49152, Control_c, 3, 7, 70
4, 49152, Note_on_c, 3, 69, 100
4, 49176, Control_c, 3, 7, 75
4, 49200, Control_c, 3, 7, 80
4, 49224, Control_c, 3, 7, 85
4, 49248, Control_c, 3, 7, 95
4, 49272, Control_c, 3, 7, 100
4, 49296, Control_c, 3, 7, 110
4, 49320, Control_c, 3, 7, 120
4, 49624, Note_on_c, 3, 69, 0
4, 49632, Control_c, 3, 7, 85
4, 49632, Note_on_c, 3, 73, 120
4, 49656, Control_c, 3, 7, 95
4, 49680, Control_c, 3, 7, 105
4, 49704, Control_c, 3, 7, 115
4, 49724, Note_on_c, 3, 73, 0
4, 49728, Control_c, 3, 7, 85
4, 49728, Note_on_c, 3, 76, 100
4, 49752, Control_c, 3, 7, 95
4, 49776, Control_c, 3, 7, 105
4, 49800, Control_c, 3, 7, 115
4, 49820, Note_on_c, 3, 76, 0
4, 49824, Control_c, 3, 7, 85
4, 49824, Note_on_c, 3, 79, 110
4, 49848, Control_c, 3, 7, 95
4, 49872, Control_c, 3, 7, 105
4, 49896, Control_c, 3, 7, 115
4, 49916, Note_on_c, 3, 79, 0
4, 49920, Control_c, 3, 7, 85
4, 49920, Note_on_c, 3, 79, 100
4, 49944, Control_c, 3, 7, 95
4, 49968, Control_c, 3, 7, 105
4, 49992, Control_c, 3, 7, 115
4, 50012, Note_on_c, 3, 79, 0
4, 50016, Control_c, 3, 7, 85
4, 50016, Note_on_c, 3, 76, 110
4, 50040, Control_c, 3, 7, 95
4, 50064, Control_c, 3, 7, 105
4, 50088, Control_c, 3, 7, 115
4, 50108, Note_on_c, 3, 76, 0
4, 50112, Control_c, 3, 7, 85
4, 50112, Note_on_c, 3, 78, 110
4, 50160, Control_c, 3, 7, 100
4, 50208, Control_c, 3, 7, 115
4, 50256, Control_c, 3, 7, 120
4, 50588, Note_on_c, 3, 78, 0
4, 50592, Control_c, 3, 7, 85
4, 50592, Note_on_c, 3, 79, 110
4, 50604, Control_c, 3, 7, 95
4, 50616, Control_c, 3, 7, 105
4, 50628, Control_c, 3, 7, 115
4, 50640, Note_on_c, 3, 81, 115
4, 50640, Control_c, 3, 7, 85
4, 50640, Note_on_c, 3, 79, 0
4, 50652, Control_c, 3, 7, 95
4, 50664, Control_c, 3, 7, 105
4, 50676, Control_c, 3, 7, 115
4, 50688, Control_c, 3, 7, 70
4, 50688, Note_on_c, 3, 74, 100
4, 50688, Note_on_c, 3, 81, 0
4, 50712, Control_c, 3, 7, 75
4, 50736, Control_c, 3, 7, 80
4, 50760, Control_c, 3, 7, 85
4, 50784, Control_c, 3, 7, 90
4, 50808, Control_c, 3, 7, 95
4, 50832, Control_c, 3, 7, 100
4, 50856, Control_c, 3, 7, 110
4, 50880, Control_c, 3, 7, 120
4, 51160, Note_on_c, 3, 74, 0
4, 51168, Control_c, 3, 7, 85
4, 51168, Note_on_c, 3, 78, 120
4, 51192, Control_c, 3, 7, 95
4, 51216, Control_c, 3, 7, 105
4, 51240, Control_c, 3, 7, 115
4, 51260, Note_on_c, 3, 78, 0
4, 51264, Control_c, 3, 7, 85
4, 51264, Note_on_c, 3, 81, 100
4, 51288, Control_c, 3, 7, 95
4, 51312, Control_c, 3, 7, 105
4, 51336, Control_c, 3, 7, 115
4, 51356, Note_on_c, 3, 81, 0
4, 51360, Control_c, 3, 7, 85
4, 51360, Note_on_c, 3, 84, 110
4, 51384, Control_c, 3, 7, 95
4, 51408, Control_c, 3, 7, 105
4, 51432, Control_c, 3, 7, 115
4, 51452, Note_on_c, 3, 84, 0
4, 51456, Control_c, 3, 7, 60
4, 51456, Note_on_c, 3, 83, 115
4, 51480, Control_c, 3, 7, 65
4, 51504, Control_c, 3, 7, 70
4, 51528, Control_c, 3, 7, 75
4, 51552, Control_c, 3, 7, 80
4, 51576, Control_c, 3, 7, 85
4, 51600, Control_c, 3, 7, 90
4, 51624, Control_c, 3, 7, 95
4, 51648, Control_c, 3, 7, 100
4, 51672, Control_c, 3, 7, 105
4, 51696, Control_c, 3, 7, 110
4, 51720, Control_c, 3, 7, 120
4, 52028, Note_on_c, 3, 83, 0
4, 52032, Note_on_c, 3, 74, 100
4, 52032, Control_c, 3, 7, 85
4, 52056, Control_c, 3, 7, 95
4, 52080, Control_c, 3, 7, 105
4, 52104, Control_c, 3, 7, 115
4, 52224, Control_c, 3, 7, 85
4, 52224, Note_on_c, 3, 73, 90
4, 52224, Note_on_c, 3, 74, 0
4, 52248, Control_c, 3, 7, 95
4, 52272, Control_c, 3, 7, 105
4, 52296, Control_c, 3, 7, 115
4, 52316, Note_on_c, 3, 73, 0
4, 52320, Control_c, 3, 7, 85
4, 52320, Note_on_c, 3, 76, 100
4, 52344, Control_c, 3, 7, 95
4, 52368, Control_c, 3, 7, 105
4, 52392, Control_c, 3, 7, 115
4, 52412, Note_on_c, 3, 76, 0
4, 52416, Control_c, 3, 7, 85
4, 52416, Note_on_c, 3, 79, 115
4, 52464, Control_c, 3, 7, 95
4, 52512, Control_c, 3, 7, 105
4, 52560, Control_c, 3, 7, 115
4, 52800, Note_on_c, 3, 71, 100
4, 52800, Control_c, 3, 7, 85
4, 52800, Note_on_c, 3, 79, 0
4, 52824, Control_c, 3, 7, 95
4, 52848, Control_c, 3, 7, 105
4, 52872, Control_c, 3, 7, 115
4, 52992, Control_c, 3, 7, 85
4, 52992, Note_on_c, 3, 69, 90
4, 52992, Note_on_c, 3, 71, 0
4, 53016, Control_c, 3, 7, 95
4, 53040, Control_c, 3, 7, 105
4, 53064, Control_c, 3, 7, 115
4, 53184, Control_c, 3, 7, 85
4, 53184, Note_on_c, 3, 76, 100
4, 53184, Note_on_c, 3, 69, 0
4, 53208, Control_c, 3, 7, 95
4, 53232, Control_c, 3, 7, 105
4, 53256, Control_c, 3, 7, 115
4, 53276, Note_on_c, 3, 76, 0
4, 53280, Control_c, 3, 7, 85
4, 53280, Note_on_c, 3, 78, 105
4, 53292, Control_c, 3, 7, 95
4, 53304, Control_c, 3, 7, 105
4, 53316, Control_c, 3, 7, 115
4, 53324, Note_on_c, 3, 78, 0
4, 53328, Control_c, 3, 7, 85
4, 53328, Note_on_c, 3, 79, 110
4, 53340, Control_c, 3, 7, 95
4, 53352, Control_c, 3, 7, 105
4, 53364, Control_c, 3, 7, 115
4, 53372, Note_on_c, 3, 79, 0
4, 53376, Control_c, 3, 7, 85
4, 53376, Note_on_c, 3, 79, 110
4, 53400, Control_c, 3, 7, 95
4, 53424, Control_c, 3, 7, 105
4, 53448, Control_c, 3, 7, 115
4, 53468, Note_on_c, 3, 79, 0
4, 53472, Control_c, 3, 7, 85
4, 53472, Note_on_c, 3, 78, 105
4, 53496, Control_c, 3, 7, 95
4, 53520, Control_c, 3, 7, 105
4, 53544, Control_c, 3, 7, 115
4, 53664, Control_c, 3, 7, 85
4, 53664, Note_on_c, 3, 76, 100
4, 53664, Note_on_c, 3, 78, 0
4, 53688, Control_c, 3, 7, 95
4, 53712, Control_c, 3, 7, 105
4, 53736, Control_c, 3, 7, 115
4, 53756, Note_on_c, 3, 76, 0
4, 53760, Control_c, 3, 7, 85
4, 53760, Note_on_c, 3, 74, 105
4, 53772, Control_c, 3, 7, 95
4, 53784, Control_c, 3, 7, 105
4, 53796, Control_c, 3, 7, 115
4, 53804, Note_on_c, 3, 74, 0
4, 53808, Control_c, 3, 7, 85
4, 53808, Note_on_c, 3, 73, 100
4, 53820, Control_c, 3, 7, 95
4, 53832, Control_c, 3, 7, 105
4, 53844, Control_c, 3, 7, 115
4, 53852, Note_on_c, 3, 73, 0
4, 53856, Control_c, 3, 7, 85
4, 53856, Note_on_c, 3, 71, 100
4, 53904, Control_c, 3, 7, 95
4, 53952, Control_c, 3, 7, 105
4, 54000, Control_c, 3, 7, 115
4, 54044, Note_on_c, 3, 71, 0
4, 54048, Control_c, 3, 7, 85
4, 54048, Note_on_c, 3, 73, 105
4, 54072, Control_c, 3, 7, 95
4, 54096, Control_c, 3, 7, 105
4, 54120, Control_c, 3, 7, 115
4, 54140, Note_on_c, 3, 73, 0
4, 54144, Note_on_c, 3, 74, 108
4, 54144, Control_c, 3, 7, 85
4, 54191, Note_on_c, 3, 74, 0
4, 54192, Note_on_c, 3, 73, 107
4, 54239, Note_on_c, 3, 73, 0
4, 54240, Note_on_c, 3, 74, 102
4, 54276, Note_on_c, 3, 73, 98
4, 54287, Note_on_c, 3, 74, 0
4, 54298, Note_on_c, 3, 71, 96
4, 54323, Note_on_c, 3, 73, 0
4, 54336, Control_c, 3, 7, 85
4, 54336, Note_on_c, 3, 73, 103
4, 54345, Note_on_c, 3, 71, 0
4, 54360, Control_c, 3, 7, 95
4, 54384, Control_c, 3, 7, 105
4, 54408, Control_c, 3, 7, 115
4, 54428, Note_on_c, 3, 73, 0
4, 54432, Control_c, 3, 7, 85
4, 54432, Note_on_c, 3, 74, 100
4, 54456, Control_c, 3, 7, 95
4, 54480, Control_c, 3, 7, 105
4, 54504, Control_c, 3, 7, 115
4, 54524, Note_on_c, 3, 74, 0
4, 54528, Note_on_c, 3, 74, 100
4, 54528, Control_c, 3, 7, 60
4, 54576, Control_c, 3, 7, 65
4, 54624, Control_c, 3, 7, 70
4, 54672, Control_c, 3, 7, 75
4, 54720, Control_c, 3, 7, 80
4, 54768, Control_c, 3, 7, 85
4, 54816, Control_c, 3, 7, 90
4, 54864, Control_c, 3, 7, 95
4, 54912, Control_c, 3, 7, 100
4, 55008, Control_c, 3, 7, 105
4, 55104, Control_c, 3, 7, 110
4, 55200, Control_c, 3, 7, 115
4, 55248, Control_c, 3, 7, 116
4, 55264, Control_c, 3, 7, 117
4, 55280, Control_c, 3, 7, 118
4, 55296, Control_c, 3, 7, 120
4, 55344, Control_c, 3, 7, 121
4, 55376, Control_c, 3, 7, 121
4, 55424, Control_c, 3, 7, 120
4, 55440, Control_c, 3, 7, 119
4, 55456, Control_c, 3, 7, 117
4, 55472, Control_c, 3, 7, 116
4, 55488, Control_c, 3, 7, 112
4, 55504, Control_c, 3, 7, 109
4, 55520, Control_c, 3, 7, 104
4, 55536, Control_c, 3, 7, 102
4, 55552, Control_c, 3, 7, 99
4, 55568, Control_c, 3, 7, 96
4, 55584, Control_c, 3, 7, 93
4, 55600, Control_c, 3, 7, 91
4, 55616, Control_c, 3, 7, 88
4, 55632, Control_c, 3, 7, 85
4, 55648, Control_c, 3, 7, 83
4, 55664, Control_c, 3, 7, 81
4, 55680, Control_c, 3, 7, 77
4, 55696, Control_c, 3, 7, 73
4, 55712, Control_c, 3, 7, 69
4, 55728, Control_c, 3, 7, 67
4, 55744, Control_c, 3, 7, 64
4, 55760, Control_c, 3, 7, 60
4, 55776, Control_c, 3, 7, 58
4, 55792, Control_c, 3, 7, 56
4, 55808, Control_c, 3, 7, 55
4, 55824, Control_c, 3, 7, 47
4, 55840, Control_c, 3, 7, 39
4, 55872, Control_c, 3, 7, 35
4, 55888, Control_c, 3, 7, 31
4, 55904, Control_c, 3, 7, 27
4, 55936, Control_c, 3, 7, 19
4, 55952, Control_c, 3, 7, 13
4, 55968, Control_c, 3, 7, 10
4, 56000, Control_c, 3, 7, 8
4, 56016, Control_c, 3, 7, 5
4, 56032, Control_c, 3, 7, 3
4, 56056, Note_on_c, 3, 74, 0
4, 56064, Control_c, 3, 7, 2
4, 56064, End_track
5, 0, Start_track
5, 0, MIDI_port, 0
5, 0, Title_t, "SynthStrings"
5, 0, Program_c, 4, 50
5, 0, Control_c, 4, 7, 100
5, 0, Control_c, 4, 10, 30
5, 0, Control_c, 4, 121, 0
5, 0, Control_c, 4, 0, 0
5, 0, Program_c, 4, 50
5, 0, Control_c, 4, 10, 30
5, 0, Control_c, 4, 7, 30
5, 0, Note_on_c, 4, 74, 120
5, 0, Pitch_bend_c, 4, 8192
5, 0, Control_c, 4, 64, 0
5, 0, Control_c, 4, 91, 60
5, 0, Control_c, 4, 93, 10
5, 0, Control_c, 4, 11, 110
5, 48, Control_c, 4, 7, 30
5, 96, Control_c, 4, 7, 32
5, 144, Control_c, 4, 7, 34
5, 192, Control_c, 4, 7, 36
5, 240, Control_c, 4, 7, 38
5, 288, Control_c, 4, 7, 40
5, 336, Control_c, 4, 7, 42
5, 384, Control_c, 4, 7, 44
5, 432, Control_c, 4, 7, 46
5, 480, Control_c, 4, 7, 48
5, 528, Control_c, 4, 7, 50
5, 576, Control_c, 4, 7, 54
5, 624, Control_c, 4, 7, 58
5, 672, Control_c, 4, 7, 62
5, 720, Control_c, 4, 7, 66
5, 768, Control_c, 4, 7, 70
5, 816, Control_c, 4, 7, 74
5, 864, Control_c, 4, 7, 78
5, 912, Control_c, 4, 7, 82
5, 960, Control_c, 4, 7, 86
5, 1008, Control_c, 4, 7, 90
5, 1056, Control_c, 4, 7, 94
5, 1104, Control_c, 4, 7, 98
5, 1152, Control_c, 4, 7, 102
5, 1200, Control_c, 4, 7, 106
5, 1248, Control_c, 4, 7, 110
5, 1296, Control_c, 4, 7, 114
5, 1344, Control_c, 4, 7, 118
5, 1392, Control_c, 4, 7, 122
5, 1440, Control_c, 4, 7, 126
5, 1488, Control_c, 4, 7, 127
5, 1920, Note_on_c, 4, 71, 90
5, 1920, Control_c, 4, 11, 110
5, 1920, Control_c, 4, 7, 85
5, 1920, Note_on_c, 4, 74, 0
5, 2016, Control_c, 4, 7, 95
5, 2112, Control_c, 4, 7, 100
5, 2208, Control_c, 4, 7, 115
5, 2304, Note_on_c, 4, 69, 100
5, 2304, Control_c, 4, 7, 85
5, 2304, Note_on_c, 4, 71, 0
5, 2400, Control_c, 4, 7, 90
5, 2496, Control_c, 4, 7, 95
5, 2592, Control_c, 4, 7, 100
5, 2688, Control_c, 4, 7, 105
5, 2784, Control_c, 4, 7, 110
5, 2880, Control_c, 4, 7, 115
5, 2976, Control_c, 4, 7, 120
5, 3072, Note_on_c, 4, 69, 0
5, 3264, Control_c, 4, 7, 85
5, 3264, Note_on_c, 4, 72, 100
5, 3288, Control_c, 4, 7, 95
5, 3312, Control_c, 4, 7, 100
5, 3336, Control_c, 4, 7, 115
5, 3360, Control_c, 4, 7, 85
5, 3360, Note_on_c, 4, 71, 100
5, 3360, Note_on_c, 4, 72, 0
5, 3384, Control_c, 4, 7, 95
5, 3408, Control_c, 4, 7, 100
5, 3432, Control_c, 4, 7, 115
5, 3456, Control_c, 4, 7, 85
5, 3456, Note_on_c, 4, 72, 100
5, 3456, Note_on_c, 4, 71, 0
5, 3504, Control_c, 4, 7, 95
5, 3552, Control_c, 4, 7, 100
5, 3600, Control_c, 4, 7, 115
5, 3648, Control_c, 4, 7, 85
5, 3648, Note_on_c, 4, 81, 80
5, 3648, Note_on_c, 4, 72, 0
5, 3672, Control_c, 4, 7, 95
5, 3696, Control_c, 4, 7, 105
5, 3720, Control_c, 4, 7, 115
5, 3744, Note_on_c, 4, 72, 100
5, 3744, Control_c, 4, 7, 85
5, 3744, Note_on_c, 4, 81, 0
5, 3768, Control_c, 4, 7, 95
5, 3792, Control_c, 4, 7, 105
5, 3816, Control_c, 4, 7, 115
5, 3840, Control_c, 4, 7, 85
5, 3840, Note_on_c, 4, 71, 100
5, 3840, Note_on_c, 4, 72, 0
5, 3888, Control_c, 4, 7, 95
5, 3936, Control_c, 4, 7, 105
5, 3984, Control_c, 4, 7, 115
5, 4032, Note_on_c, 4, 71, 0
5, 4608, Control_c, 4, 7, 60
5, 4608, Note_on_c, 4, 71, 100
5, 4656, Control_c, 4, 7, 70
5, 4704, Control_c, 4, 7, 80
5, 4752, Control_c, 4, 7, 90
5, 4776, Control_c, 4, 7, 100
5, 4800, Control_c, 4, 7, 85
5, 4800, Note_on_c, 4, 76, 100
5, 4800, Note_on_c, 4, 71, 0
5, 4824, Control_c, 4, 7, 95
5, 4848, Control_c, 4, 7, 100
5, 4872, Control_c, 4, 7, 115
5, 4896, Control_c, 4, 7, 85
5, 4896, Note_on_c, 4, 74, 100
5, 4896, Note_on_c, 4, 76, 0
5, 4920, Control_c, 4, 7, 95
5, 4944, Control_c, 4, 7, 100
5, 4968, Control_c, 4, 7, 115
5, 4992, Control_c, 4, 7, 85
5, 4992, Note_on_c, 4, 76, 100
5, 4992, Note_on_c, 4, 74, 0
5, 5016, Control_c, 4, 7, 95
5, 5040, Control_c, 4, 7, 100
5, 5064, Control_c, 4, 7, 115
5, 5088, Control_c, 4, 7, 85
5, 5088, Note_on_c, 4, 78, 100
5, 5088, Note_on_c, 4, 76, 0
5, 5112, Control_c, 4, 7, 95
5, 5136, Control_c, 4, 7, 105
5, 5160, Control_c, 4, 7, 115
5, 5184, Control_c, 4, 7, 85
5, 5184, Note_on_c, 4, 79, 100
5, 5184, Note_on_c, 4, 78, 0
5, 5208, Control_c, 4, 7, 95
5, 5232, Control_c, 4, 7, 105
5, 5256, Control_c, 4, 7, 115
5, 5280, Note_on_c, 4, 76, 100
5, 5280, Control_c, 4, 7, 85
5, 5280, Note_on_c, 4, 79, 0
5, 5304, Control_c, 4, 7, 95
5, 5328, Control_c, 4, 7, 105
5, 5352, Control_c, 4, 7, 115
5, 5376, Control_c, 4, 7, 85
5, 5376, Note_on_c, 4, 69, 100
5, 5376, Note_on_c, 4, 76, 0
5, 5424, Control_c, 4, 7, 95
5, 5472, Control_c, 4, 7, 105
5, 5520, Control_c, 4, 7, 115
5, 5568, Note_on_c, 4, 69, 0
5, 6144, Note_on_c, 4, 69, 100
5, 6144, Control_c, 4, 7, 85
5, 6240, Control_c, 4, 7, 90
5, 6336, Control_c, 4, 7, 95
5, 6432, Control_c, 4, 7, 100
5, 6528, Control_c, 4, 7, 105
5, 6624, Control_c, 4, 7, 110
5, 6720, Control_c, 4, 7, 115
5, 6816, Control_c, 4, 7, 120
5, 7104, Control_c, 4, 7, 85
5, 7104, Note_on_c, 4, 68, 100
5, 7104, Note_on_c, 4, 69, 0
5, 7128, Control_c, 4, 7, 95
5, 7152, Control_c, 4, 7, 100
5, 7176, Control_c, 4, 7, 115
5, 7200, Control_c, 4, 7, 85
5, 7200, Note_on_c, 4, 69, 100
5, 7200, Note_on_c, 4, 68, 0
5, 7224, Control_c, 4, 7, 95
5, 7248, Control_c, 4, 7, 100
5, 7272, Control_c, 4, 7, 115
5, 7296, Control_c, 4, 7, 85
5, 7296, Note_on_c, 4, 71, 100
5, 7296, Note_on_c, 4, 69, 0
5, 7344, Control_c, 4, 7, 95
5, 7392, Control_c, 4, 7, 100
5, 7440, Control_c, 4, 7, 115
5, 7488, Note_on_c, 4, 68, 80
5, 7488, Control_c, 4, 7, 85
5, 7488, Note_on_c, 4, 71, 0
5, 7536, Control_c, 4, 7, 95
5, 7584, Control_c, 4, 7, 105
5, 7632, Control_c, 4, 7, 115
5, 7680, Control_c, 4, 7, 85
5, 7680, Note_on_c, 4, 69, 100
5, 7680, Note_on_c, 4, 68, 0
5, 7728, Control_c, 4, 7, 95
5, 7776, Control_c, 4, 7, 100
5, 7824, Control_c, 4, 7, 115
5, 7868, Note_on_c, 4, 69, 0
5, 7872, Control_c, 4, 7, 85
5, 7872, Note_on_c, 4, 69, 100
5, 7920, Control_c, 4, 7, 95
5, 7968, Control_c, 4, 7, 100
5, 8016, Control_c, 4, 7, 115
5, 8256, Note_on_c, 4, 68, 100
5, 8256, Control_c, 4, 7, 85
5, 8256, Note_on_c, 4, 69, 0
5, 8304, Control_c, 4, 7, 95
5, 8352, Control_c, 4, 7, 100
5, 8400, Control_c, 4, 7, 115
5, 8448, Note_on_c, 4, 64, 100
5, 8448, Control_c, 4, 7, 60
5, 8448, Note_on_c, 4, 68, 0
5, 8496, Control_c, 4, 7, 65
5, 8544, Control_c, 4, 7, 70
5, 8592, Control_c, 4, 7, 75
5, 8640, Control_c, 4, 7, 80
5, 8688, Control_c, 4, 7, 85
5, 8736, Control_c, 4, 7, 90
5, 8784, Control_c, 4, 7, 95
5, 8832, Control_c, 4, 7, 100
5, 8928, Control_c, 4, 7, 105
5, 9024, Control_c, 4, 7, 110
5, 9120, Control_c, 4, 7, 115
5, 9216, Note_on_c, 4, 74, 100
5, 9216, Control_c, 4, 7, 85
5, 9216, Control_c, 4, 11, 110
5, 9216, Note_on_c, 4, 64, 0
5, 9264, Control_c, 4, 7, 87
5, 9312, Control_c, 4, 7, 89
5, 9360, Control_c, 4, 7, 91
5, 9408, Control_c, 4, 7, 93
5, 9456, Control_c, 4, 7, 95
5, 9504, Control_c, 4, 7, 97
5, 9552, Control_c, 4, 7, 99
5, 9600, Control_c, 4, 7, 101
5, 9648, Control_c, 4, 7, 103
5, 9696, Control_c, 4, 7, 105
5, 9744, Control_c, 4, 7, 107
5, 9792, Control_c, 4, 7, 109
5, 9840, Control_c, 4, 7, 111
5, 9888, Control_c, 4, 7, 113
5, 9936, Control_c, 4, 7, 115
5, 11136, Note_on_c, 4, 71, 90
5, 11136, Control_c, 4, 11, 110
5, 11136, Control_c, 4, 7, 85
5, 11136, Note_on_c, 4, 74, 0
5, 11232, Control_c, 4, 7, 95
5, 11328, Control_c, 4, 7, 100
5, 11424, Control_c, 4, 7, 115
5, 11520, Note_on_c, 4, 69, 100
5, 11520, Control_c, 4, 7, 85
5, 11520, Note_on_c, 4, 71, 0
5, 11616, Control_c, 4, 7, 90
5, 11712, Control_c, 4, 7, 95
5, 11808, Control_c, 4, 7, 100
5, 11904, Control_c, 4, 7, 105
5, 12000, Control_c, 4, 7, 110
5, 12096, Control_c, 4, 7, 115
5, 12192, Control_c, 4, 7, 120
5, 12480, Control_c, 4, 7, 85
5, 12480, Note_on_c, 4, 72, 100
5, 12480, Note_on_c, 4, 69, 0
5, 12504, Control_c, 4, 7, 95
5, 12528, Control_c, 4, 7, 100
5, 12552, Control_c, 4, 7, 115
5, 12576, Control_c, 4, 7, 85
5, 12576, Note_on_c, 4, 71, 100
5, 12576, Note_on_c, 4, 72, 0
5, 12600, Control_c, 4, 7, 95
5, 12624, Control_c, 4, 7, 100
5, 12648, Control_c, 4, 7, 115
5, 12672, Control_c, 4, 7, 85
5, 12672, Note_on_c, 4, 72, 100
5, 12672, Note_on_c, 4, 71, 0
5, 12720, Control_c, 4, 7, 95
5, 12768, Control_c, 4, 7, 100
5, 12816, Control_c, 4, 7, 115
5, 12864, Control_c, 4, 7, 85
5, 12864, Note_on_c, 4, 81, 80
5, 12864, Note_on_c, 4, 72, 0
5, 12888, Control_c, 4, 7, 95
5, 12912, Control_c, 4, 7, 105
5, 12936, Control_c, 4, 7, 115
5, 12960, Note_on_c, 4, 72, 100
5, 12960, Control_c, 4, 7, 85
5, 12960, Note_on_c, 4, 81, 0
5, 12984, Control_c, 4, 7, 95
5, 13008, Control_c, 4, 7, 105
5, 13032, Control_c, 4, 7, 115
5, 13056, Control_c, 4, 7, 85
5, 13056, Note_on_c, 4, 71, 100
5, 13056, Note_on_c, 4, 72, 0
5, 13104, Control_c, 4, 7, 95
5, 13152, Control_c, 4, 7, 105
5, 13200, Control_c, 4, 7, 115
5, 13248, Note_on_c, 4, 71, 0
5, 13824, Control_c, 4, 7, 60
5, 13824, Note_on_c, 4, 71, 100
5, 13872, Control_c, 4, 7, 70
5, 13920, Control_c, 4, 7, 80
5, 13968, Control_c, 4, 7, 90
5, 13992, Control_c, 4, 7, 100
5, 14016, Control_c, 4, 7, 85
5, 14016, Note_on_c, 4, 76, 100
5, 14016, Note_on_c, 4, 71, 0
5, 14040, Control_c, 4, 7, 95
5, 14064, Control_c, 4, 7, 100
5, 14088, Control_c, 4, 7, 115
5, 14112, Control_c, 4, 7, 85
5, 14112, Note_on_c, 4, 74, 100
5, 14112, Note_on_c, 4, 76, 0
5, 14136, Control_c, 4, 7, 95
5, 14160, Control_c, 4, 7, 100
5, 14184, Control_c, 4, 7, 115
5, 14208, Control_c, 4, 7, 85
5, 14208, Note_on_c, 4, 76, 100
5, 14208, Note_on_c, 4, 74, 0
5, 14232, Control_c, 4, 7, 95
5, 14256, Control_c, 4, 7, 100
5, 14280, Control_c, 4, 7, 115
5, 14304, Control_c, 4, 7, 85
5, 14304, Note_on_c, 4, 78, 100
5, 14304, Note_on_c, 4, 76, 0
5, 14328, Control_c, 4, 7, 95
5, 14352, Control_c, 4, 7, 105
5, 14376, Control_c, 4, 7, 115
5, 14400, Control_c, 4, 7, 85
5, 14400, Note_on_c, 4, 79, 100
5, 14400, Note_on_c, 4, 78, 0
5, 14424, Control_c, 4, 7, 95
5, 14448, Control_c, 4, 7, 105
5, 14472, Control_c, 4, 7, 115
5, 14496, Note_on_c, 4, 76, 100
5, 14496, Control_c, 4, 7, 85
5, 14496, Note_on_c, 4, 79, 0
5, 14520, Control_c, 4, 7, 95
5, 14544, Control_c, 4, 7, 105
5, 14568, Control_c, 4, 7, 115
5, 14592, Control_c, 4, 7, 85
5, 14592, Note_on_c, 4, 69, 100
5, 14592, Note_on_c, 4, 76, 0
5, 14640, Control_c, 4, 7, 95
5, 14688, Control_c, 4, 7, 105
5, 14736, Control_c, 4, 7, 115
5, 14784, Note_on_c, 4, 69, 0
5, 15360, Note_on_c, 4, 69, 100
5, 15360, Control_c, 4, 7, 60
5, 15408, Control_c, 4, 7, 70
5, 15456, Control_c, 4, 7, 80
5, 15504, Control_c, 4, 7, 90
5, 15552, Control_c, 4, 7, 95
5, 15648, Control_c, 4, 7, 100
5, 15744, Control_c, 4, 7, 105
5, 15840, Control_c, 4, 7, 110
5, 15936, Control_c, 4, 7, 115
5, 16032, Control_c, 4, 7, 120
5, 16320, Control_c, 4, 7, 85
5, 16320, Note_on_c, 4, 68, 100
5, 16320, Note_on_c, 4, 69, 0
5, 16344, Control_c, 4, 7, 95
5, 16368, Control_c, 4, 7, 100
5, 16392, Control_c, 4, 7, 115
5, 16416, Control_c, 4, 7, 85
5, 16416, Note_on_c, 4, 69, 100
5, 16416, Note_on_c, 4, 68, 0
5, 16440, Control_c, 4, 7, 95
5, 16464, Control_c, 4, 7, 100
5, 16488, Control_c, 4, 7, 115
5, 16512, Control_c, 4, 7, 85
5, 16512, Note_on_c, 4, 71, 100
5, 16512, Note_on_c, 4, 69, 0
5, 16560, Control_c, 4, 7, 95
5, 16608, Control_c, 4, 7, 100
5, 16656, Control_c, 4, 7, 115
5, 16704, Note_on_c, 4, 68, 80
5, 16704, Control_c, 4, 7, 85
5, 16704, Note_on_c, 4, 71, 0
5, 16752, Control_c, 4, 7, 95
5, 16800, Control_c, 4, 7, 105
5, 16848, Control_c, 4, 7, 115
5, 16896, Control_c, 4, 7, 85
5, 16896, Note_on_c, 4, 69, 100
5, 16896, Note_on_c, 4, 68, 0
5, 16944, Control_c, 4, 7, 95
5, 16992, Control_c, 4, 7, 100
5, 17040, Control_c, 4, 7, 115
5, 17084, Note_on_c, 4, 69, 0
5, 17088, Control_c, 4, 7, 85
5, 17088, Note_on_c, 4, 69, 100
5, 17136, Control_c, 4, 7, 95
5, 17184, Control_c, 4, 7, 100
5, 17232, Control_c, 4, 7, 115
5, 17472, Note_on_c, 4, 68, 100
5, 17472, Control_c, 4, 7, 85
5, 17472, Note_on_c, 4, 69, 0
5, 17520, Control_c, 4, 7, 95
5, 17568, Control_c, 4, 7, 100
5, 17616, Control_c, 4, 7, 115
5, 17664, Note_on_c, 4, 64, 100
5, 17664, Control_c, 4, 7, 60
5, 17664, Note_on_c, 4, 68, 0
5, 17712, Control_c, 4, 7, 65
5, 17760, Control_c, 4, 7, 70
5, 17808, Control_c, 4, 7, 75
5, 17856, Control_c, 4, 7, 80
5, 17904, Control_c, 4, 7, 85
5, 17952, Control_c, 4, 7, 90
5, 18000, Control_c, 4, 7, 95
5, 18048, Control_c, 4, 7, 100
5, 18144, Control_c, 4, 7, 105
5, 18240, Control_c, 4, 7, 110
5, 18336, Control_c, 4, 7, 115
5, 18432, Note_on_c, 4, 69, 90
5, 18432, Control_c, 4, 7, 60
5, 18432, Note_on_c, 4, 64, 0
5, 18528, Control_c, 4, 7, 70
5, 18624, Control_c, 4, 7, 80
5, 18720, Control_c, 4, 7, 90
5, 18816, Control_c, 4, 7, 100
5, 18912, Control_c, 4, 7, 110
5, 19008, Control_c, 4, 7, 115
5, 19104, Control_c, 4, 7, 120
5, 19296, Control_c, 4, 7, 85
5, 19296, Note_on_c, 4, 71, 95
5, 19296, Note_on_c, 4, 69, 0
5, 19320, Control_c, 4, 7, 95
5, 19344, Control_c, 4, 7, 100
5, 19368, Control_c, 4, 7, 115
5, 19392, Control_c, 4, 7, 85
5, 19392, Note_on_c, 4, 72, 100
5, 19392, Note_on_c, 4, 71, 0
5, 19440, Control_c, 4, 7, 95
5, 19488, Control_c, 4, 7, 100
5, 19584, Control_c, 4, 7, 115
5, 19680, Control_c, 4, 7, 85
5, 19680, Note_on_c, 4, 71, 90
5, 19680, Note_on_c, 4, 72, 0
5, 19704, Control_c, 4, 7, 95
5, 19728, Control_c, 4, 7, 100
5, 19752, Control_c, 4, 7, 115
5, 19776, Control_c, 4, 7, 85
5, 19776, Note_on_c, 4, 69, 80
5, 19776, Note_on_c, 4, 71, 0
5, 19800, Control_c, 4, 7, 95
5, 19824, Control_c, 4, 7, 100
5, 19848, Control_c, 4, 7, 115
5, 19872, Note_on_c, 4, 67, 80
5, 19872, Control_c, 4, 7, 85
5, 19872, Note_on_c, 4, 69, 0
5, 19896, Control_c, 4, 7, 95
5, 19920, Control_c, 4, 7, 105
5, 19944, Control_c, 4, 7, 115
5, 19968, Control_c, 4, 7, 70
5, 19968, Note_on_c, 4, 66, 100
5, 19968, Note_on_c, 4, 67, 0
5, 20064, Control_c, 4, 7, 80
5, 20160, Control_c, 4, 7, 90
5, 20256, Control_c, 4, 7, 100
5, 20352, Control_c, 4, 7, 110
5, 20448, Control_c, 4, 7, 115
5, 20536, Note_on_c, 4, 66, 0
5, 20544, Note_on_c, 4, 75, 110
5, 20544, Control_c, 4, 7, 60
5, 20568, Control_c, 4, 7, 70
5, 20592, Control_c, 4, 7, 80
5, 20616, Control_c, 4, 7, 90
5, 20640, Control_c, 4, 7, 105
5, 20688, Control_c, 4, 7, 115
5, 20736, Note_on_c, 4, 76, 100
5, 20736, Control_c, 4, 7, 60
5, 20736, Note_on_c, 4, 75, 0
5, 20832, Control_c, 4, 7, 70
5, 20928, Control_c, 4, 7, 80
5, 21024, Control_c, 4, 7, 90
5, 21120, Control_c, 4, 7, 100
5, 21216, Control_c, 4, 7, 110
5, 21312, Control_c, 4, 7, 115
5, 22368, Control_c, 4, 7, 85
5, 22368, Note_on_c, 4, 74, 90
5, 22368, Note_on_c, 4, 76, 0
5, 22392, Control_c, 4, 7, 95
5, 22416, Control_c, 4, 7, 105
5, 22440, Control_c, 4, 7, 115
5, 22464, Control_c, 4, 7, 85
5, 22464, Note_on_c, 4, 73, 85
5, 22464, Note_on_c, 4, 74, 0
5, 22488, Control_c, 4, 7, 95
5, 22512, Control_c, 4, 7, 105
5, 22536, Control_c, 4, 7, 115
5, 22560, Control_c, 4, 7, 85
5, 22560, Note_on_c, 4, 71, 80
5, 22560, Note_on_c, 4, 73, 0
5, 22584, Control_c, 4, 7, 95
5, 22608, Control_c, 4, 7, 105
5, 22632, Control_c, 4, 7, 115
5, 22656, Control_c, 4, 7, 85
5, 22656, Note_on_c, 4, 70, 80
5, 22656, Note_on_c, 4, 71, 0
5, 22680, Control_c, 4, 7, 95
5, 22704, Control_c, 4, 7, 105
5, 22728, Control_c, 4, 7, 115
5, 22752, Control_c, 4, 7, 85
5, 22752, Note_on_c, 4, 71, 80
5, 22752, Note_on_c, 4, 70, 0
5, 22776, Control_c, 4, 7, 95
5, 22800, Control_c, 4, 7, 105
5, 22824, Control_c, 4, 7, 115
5, 22848, Note_on_c, 4, 73, 80
5, 22848, Control_c, 4, 7, 85
5, 22848, Note_on_c, 4, 71, 0
5, 22896, Control_c, 4, 7, 95
5, 22944, Control_c, 4, 7, 105
5, 22992, Control_c, 4, 7, 115
5, 23040, Control_c, 4, 7, 85
5, 23040, Note_on_c, 4, 71, 90
5, 23040, Note_on_c, 4, 73, 0
5, 23088, Control_c, 4, 7, 95
5, 23136, Control_c, 4, 7, 105
5, 23184, Control_c, 4, 7, 115
5, 23224, Note_on_c, 4, 71, 0
5, 23232, Control_c, 4, 7, 85
5, 23232, Note_on_c, 4, 71, 90
5, 23280, Control_c, 4, 7, 95
5, 23328, Control_c, 4, 7, 105
5, 23376, Control_c, 4, 7, 115
5, 23416, Note_on_c, 4, 71, 0
5, 23424, Control_c, 4, 7, 85
5, 23424, Note_on_c, 4, 71, 100
5, 23472, Control_c, 4, 7, 95
5, 23520, Control_c, 4, 7, 105
5, 23568, Control_c, 4, 7, 115
5, 23608, Note_on_c, 4, 71, 0
5, 23616, Control_c, 4, 7, 85
5, 23616, Note_on_c, 4, 70, 90
5, 23664, Control_c, 4, 7, 95
5, 23712, Control_c, 4, 7, 105
5, 23760, Control_c, 4, 7, 115
5, 23804, Note_on_c, 4, 70, 0
5, 23808, Control_c, 4, 7, 85
5, 23808, Control_c, 4, 7, 60
5, 23808, Note_on_c, 4, 66, 100
5, 23856, Control_c, 4, 7, 65
5, 23904, Control_c, 4, 7, 70
5, 23952, Control_c, 4, 7, 75
5, 24000, Control_c, 4, 7, 80
5, 24048, Control_c, 4, 7, 85
5, 24096, Control_c, 4, 7, 90
5, 24144, Control_c, 4, 7, 95
5, 24192, Control_c, 4, 7, 100
5, 24288, Control_c, 4, 7, 105
5, 24384, Control_c, 4, 7, 110
5, 24480, Control_c, 4, 7, 115
5, 24568, Note_on_c, 4, 66, 0
5, 24576, Control_c, 4, 7, 85
5, 24576, Note_on_c, 4, 64, 90
5, 24624, Control_c, 4, 7, 95
5, 24672, Control_c, 4, 7, 105
5, 24720, Control_c, 4, 7, 115
5, 24952, Note_on_c, 4, 64, 0
5, 24960, Control_c, 4, 7, 85
5, 24960, Note_on_c, 4, 66, 100
5, 25008, Control_c, 4, 7, 95
5, 25056, Control_c, 4, 7, 105
5, 25104, Control_c, 4, 7, 115
5, 25336, Note_on_c, 4, 66, 0
5, 25344, Control_c, 4, 7, 85
5, 25344, Note_on_c, 4, 59, 80
5, 25392, Control_c, 4, 7, 95
5, 25440, Control_c, 4, 7, 105
5, 25488, Control_c, 4, 7, 115
5, 25532, Note_on_c, 4, 59, 0
5, 25536, Control_c, 4, 7, 85
5, 25536, Note_on_c, 4, 64, 90
5, 25560, Control_c, 4, 7, 95
5, 25584, Control_c, 4, 7, 100
5, 25608, Control_c, 4, 7, 115
5, 25632, Control_c, 4, 7, 85
5, 25632, Note_on_c, 4, 66, 100
5, 25632, Note_on_c, 4, 64, 0
5, 25656, Control_c, 4, 7, 95
5, 25680, Control_c, 4, 7, 100
5, 25704, Control_c, 4, 7, 115
5, 25724, Note_on_c, 4, 66, 0
5, 25728, Control_c, 4, 7, 85
5, 25728, Note_on_c, 4, 68, 100
5, 25752, Control_c, 4, 7, 95
5, 25776, Control_c, 4, 7, 100
5, 25800, Control_c, 4, 7, 115
5, 25820, Note_on_c, 4, 68, 0
5, 25824, Control_c, 4, 7, 85
5, 25824, Note_on_c, 4, 69, 100
5, 25848, Control_c, 4, 7, 95
5, 25872, Control_c, 4, 7, 105
5, 25896, Control_c, 4, 7, 115
5, 25916, Note_on_c, 4, 69, 0
5, 25920, Note_on_c, 4, 71, 110
5, 25920, Control_c, 4, 7, 85
5, 25968, Control_c, 4, 7, 95
5, 26016, Control_c, 4, 7, 105
5, 26064, Control_c, 4, 7, 115
5, 26300, Note_on_c, 4, 71, 0
5, 26304, Control_c, 4, 7, 85
5, 26304, Note_on_c, 4, 69, 110
5, 26352, Control_c, 4, 7, 95
5, 26400, Control_c, 4, 7, 105
5, 26448, Control_c, 4, 7, 115
5, 26680, Note_on_c, 4, 69, 0
5, 26688, Control_c, 4, 7, 85
5, 26688, Note_on_c, 4, 68, 110
5, 26736, Control_c, 4, 7, 95
5, 26784, Control_c, 4, 7, 105
5, 26832, Control_c, 4, 7, 115
5, 26876, Note_on_c, 4, 68, 0
5, 26880, Note_on_c, 4, 69, 100
5, 26880, Control_c, 4, 7, 60
5, 26976, Control_c, 4, 7, 70
5, 27072, Control_c, 4, 7, 80
5, 27168, Control_c, 4, 7, 90
5, 27264, Control_c, 4, 7, 100
5, 27360, Control_c, 4, 7, 110
5, 27456, Control_c, 4, 7, 115
5, 27840, Control_c, 4, 7, 85
5, 27840, Note_on_c, 4, 71, 100
5, 27840, Note_on_c, 4, 69, 0
5, 27864, Control_c, 4, 7, 95
5, 27888, Control_c, 4, 7, 105
5, 27912, Control_c, 4, 7, 115
5, 27932, Note_on_c, 4, 71, 0
5, 27936, Control_c, 4, 7, 85
5, 27936, Note_on_c, 4, 72, 110
5, 27960, Control_c, 4, 7, 95
5, 27984, Control_c, 4, 7, 105
5, 28008, Control_c, 4, 7, 115
5, 28028, Note_on_c, 4, 72, 0
5, 28032, Control_c, 4, 7, 85
5, 28032, Note_on_c, 4, 71, 100
5, 28056, Control_c, 4, 7, 95
5, 28080, Control_c, 4, 7, 105
5, 28104, Control_c, 4, 7, 115
5, 28124, Note_on_c, 4, 71, 0
5, 28128, Control_c, 4, 7, 85
5, 28128, Note_on_c, 4, 73, 110
5, 28152, Control_c, 4, 7, 95
5, 28176, Control_c, 4, 7, 105
5, 28200, Control_c, 4, 7, 115
5, 28220, Note_on_c, 4, 73, 0
5, 28224, Note_on_c, 4, 74, 110
5, 28224, Control_c, 4, 7, 85
5, 28272, Control_c, 4, 7, 95
5, 28320, Control_c, 4, 7, 105
5, 28368, Control_c, 4, 7, 115
5, 28604, Note_on_c, 4, 74, 0
5, 28608, Control_c, 4, 7, 85
5, 28608, Note_on_c, 4, 73, 100
5, 28632, Control_c, 4, 7, 95
5, 28656, Control_c, 4, 7, 105
5, 28680, Control_c, 4, 7, 115
5, 28700, Note_on_c, 4, 73, 0
5, 28704, Control_c, 4, 7, 85
5, 28704, Note_on_c, 4, 71, 110
5, 28728, Control_c, 4, 7, 95
5, 28752, Control_c, 4, 7, 105
5, 28776, Control_c, 4, 7, 115
5, 28796, Note_on_c, 4, 71, 0
5, 28800, Control_c, 4, 7, 85
5, 28800, Note_on_c, 4, 73, 100
5, 28824, Control_c, 4, 7, 95
5, 28848, Control_c, 4, 7, 105
5, 28872, Control_c, 4, 7, 115
5, 28892, Note_on_c, 4, 73, 0
5, 28896, Control_c, 4, 7, 85
5, 28896, Note_on_c, 4, 75, 110
5, 28920, Control_c, 4, 7, 95
5, 28944, Control_c, 4, 7, 105
5, 28968, Control_c, 4, 7, 115
5, 28988, Note_on_c, 4, 75, 0
5, 28992, Note_on_c, 4, 76, 110
5, 28992, Control_c, 4, 7, 85
5, 29040, Control_c, 4, 7, 95
5, 29088, Control_c, 4, 7, 105
5, 29136, Control_c, 4, 7, 115
5, 29372, Note_on_c, 4, 76, 0
5, 29376, Control_c, 4, 7, 85
5, 29376, Note_on_c, 4, 75, 100
5, 29400, Control_c, 4, 7, 95
5, 29424, Control_c, 4, 7, 105
5, 29448, Control_c, 4, 7, 115
5, 29468, Note_on_c, 4, 75, 0
5, 29472, Control_c, 4, 7, 85
5, 29472, Note_on_c, 4, 73, 110
5, 29496, Control_c, 4, 7, 95
5, 29520, Control_c, 4, 7, 105
5, 29544, Control_c, 4, 7, 115
5, 29564, Note_on_c, 4, 73, 0
5, 29568, Control_c, 4, 7, 85
5, 29568, Note_on_c, 4, 75, 100
5, 29592, Control_c, 4, 7, 95
5, 29616, Control_c, 4, 7, 105
5, 29640, Control_c, 4, 7, 115
5, 29660, Note_on_c, 4, 75, 0
5, 29664, Control_c, 4, 7, 85
5, 29664, Note_on_c, 4, 76, 110
5, 29688, Control_c, 4, 7, 95
5, 29712, Control_c, 4, 7, 105
5, 29736, Control_c, 4, 7, 115
5, 29756, Note_on_c, 4, 76, 0
5, 29760, Note_on_c, 4, 78, 110
5, 29760, Control_c, 4, 7, 85
5, 29808, Control_c, 4, 7, 95
5, 29856, Control_c, 4, 7, 105
5, 29904, Control_c, 4, 7, 115
5, 30048, Control_c, 4, 7, 85
5, 30048, Note_on_c, 4, 75, 100
5, 30048, Note_on_c, 4, 78, 0
5, 30072, Control_c, 4, 7, 95
5, 30096, Control_c, 4, 7, 105
5, 30120, Control_c, 4, 7, 115
5, 30140, Note_on_c, 4, 75, 0
5, 30144, Control_c, 4, 7, 85
5, 30144, Note_on_c, 4, 76, 110
5, 30168, Control_c, 4, 7, 95
5, 30192, Control_c, 4, 7, 105
5, 30216, Control_c, 4, 7, 115
5, 30236, Note_on_c, 4, 76, 0
5, 30240, Control_c, 4, 7, 85
5, 30240, Note_on_c, 4, 71, 100
5, 30264, Control_c, 4, 7, 95
5, 30288, Control_c, 4, 7, 105
5, 30312, Control_c, 4, 7, 115
5, 30332, Note_on_c, 4, 71, 0
5, 30336, Note_on_c, 4, 64, 110
5, 30336, Control_c, 4, 7, 85
5, 30384, Control_c, 4, 7, 95
5, 30432, Control_c, 4, 7, 105
5, 30480, Control_c, 4, 7, 115
5, 30816, Control_c, 4, 7, 85
5, 30816, Note_on_c, 4, 61, 90
5, 30816, Note_on_c, 4, 64, 0
5, 30840, Control_c, 4, 7, 95
5, 30864, Control_c, 4, 7, 105
5, 30888, Control_c, 4, 7, 115
5, 30908, Note_on_c, 4, 61, 0
5, 30912, Control_c, 4, 7, 85
5, 30912, Note_on_c, 4, 64, 95
5, 30936, Control_c, 4, 7, 95
5, 30960, Control_c, 4, 7, 105
5, 30984, Control_c, 4, 7, 115
5, 31004, Note_on_c, 4, 64, 0
5, 31008, Control_c, 4, 7, 85
5, 31008, Note_on_c, 4, 69, 100
5, 31032, Control_c, 4, 7, 95
5, 31056, Control_c, 4, 7, 105
5, 31080, Control_c, 4, 7, 115
5, 31100, Note_on_c, 4, 69, 0
5, 31104, Control_c, 4, 7, 85
5, 31104, Note_on_c, 4, 73, 110
5, 31128, Control_c, 4, 7, 95
5, 31152, Control_c, 4, 7, 105
5, 31176, Control_c, 4, 7, 115
5, 31296, Control_c, 4, 7, 85
5, 31296, Note_on_c, 4, 69, 100
5, 31296, Note_on_c, 4, 73, 0
5, 31320, Control_c, 4, 7, 95
5, 31344, Control_c, 4, 7, 105
5, 31368, Control_c, 4, 7, 115
5, 31484, Note_on_c, 4, 69, 0
5, 31488, Control_c, 4, 7, 85
5, 31488, Note_on_c, 4, 69, 80
5, 31536, Control_c, 4, 7, 95
5, 31584, Control_c, 4, 7, 105
5, 31632, Control_c, 4, 7, 115
5, 31676, Note_on_c, 4, 69, 0
5, 31680, Control_c, 4, 7, 85
5, 31680, Note_on_c, 4, 73, 95
5, 31704, Control_c, 4, 7, 95
5, 31728, Control_c, 4, 7, 100
5, 31752, Control_c, 4, 7, 115
5, 31776, Control_c, 4, 7, 85
5, 31776, Note_on_c, 4, 74, 105
5, 31776, Note_on_c, 4, 73, 0
5, 31800, Control_c, 4, 7, 95
5, 31824, Control_c, 4, 7, 100
5, 31848, Control_c, 4, 7, 115
5, 31868, Note_on_c, 4, 74, 0
5, 31872, Note_on_c, 4, 62, 80
5, 31872, Control_c, 4, 7, 85
5, 31920, Control_c, 4, 7, 95
5, 31968, Control_c, 4, 7, 100
5, 32016, Control_c, 4, 7, 115
5, 32444, Note_on_c, 4, 62, 0
5, 32448, Control_c, 4, 7, 85
5, 32448, Note_on_c, 4, 64, 95
5, 32472, Control_c, 4, 7, 95
5, 32496, Control_c, 4, 7, 105
5, 32520, Control_c, 4, 7, 115
5, 32636, Note_on_c, 4, 64, 0
5, 32640, Control_c, 4, 7, 85
5, 32640, Note_on_c, 4, 66, 100
5, 32688, Control_c, 4, 7, 95
5, 32736, Control_c, 4, 7, 105
5, 32784, Control_c, 4, 7, 115
5, 33020, Note_on_c, 4, 66, 0
5, 33024, Note_on_c, 4, 67, 100
5, 33024, Control_c, 4, 7, 80
5, 33072, Control_c, 4, 7, 85
5, 33120, Control_c, 4, 7, 90
5, 33168, Control_c, 4, 7, 95
5, 33216, Control_c, 4, 7, 100
5, 33264, Control_c, 4, 7, 105
5, 33312, Control_c, 4, 7, 110
5, 33360, Control_c, 4, 7, 115
5, 33984, Control_c, 4, 7, 85
5, 33984, Note_on_c, 4, 71, 95
5, 33984, Note_on_c, 4, 67, 0
5, 34008, Control_c, 4, 7, 95
5, 34032, Control_c, 4, 7, 105
5, 34056, Control_c, 4, 7, 115
5, 34172, Note_on_c, 4, 71, 0
5, 34176, Note_on_c, 4, 76, 110
5, 34176, Control_c, 4, 7, 85
5, 34224, Control_c, 4, 7, 95
5, 34272, Control_c, 4, 7, 105
5, 34320, Control_c, 4, 7, 115
5, 34656, Note_on_c, 4, 74, 100
5, 34656, Control_c, 4, 7, 85
5, 34656, Note_on_c, 4, 76, 0
5, 34680, Control_c, 4, 7, 95
5, 34704, Control_c, 4, 7, 105
5, 34728, Control_c, 4, 7, 115
5, 34748, Note_on_c, 4, 74, 0
5, 34752, Control_c, 4, 7, 85
5, 34752, Note_on_c, 4, 73, 95
5, 34776, Control_c, 4, 7, 95
5, 34800, Control_c, 4, 7, 105
5, 34824, Control_c, 4, 7, 115
5, 34844, Note_on_c, 4, 73, 0
5, 34848, Control_c, 4, 7, 85
5, 34848, Note_on_c, 4, 71, 90
5, 34872, Control_c, 4, 7, 95
5, 34896, Control_c, 4, 7, 105
5, 34920, Control_c, 4, 7, 115
5, 34940, Note_on_c, 4, 71, 0
5, 34944, Control_c, 4, 7, 85
5, 34944, Note_on_c, 4, 69, 90
5, 34968, Control_c, 4, 7, 95
5, 34992, Control_c, 4, 7, 105
5, 35016, Control_c, 4, 7, 115
5, 35132, Note_on_c, 4, 69, 0
5, 35136, Control_c, 4, 7, 85
5, 35136, Note_on_c, 4, 71, 100
5, 35160, Control_c, 4, 7, 95
5, 35184, Control_c, 4, 7, 105
5, 35208, Control_c, 4, 7, 115
5, 35324, Note_on_c, 4, 71, 0
5, 35328, Control_c, 4, 7, 85
5, 35328, Note_on_c, 4, 69, 90
5, 35376, Control_c, 4, 7, 95
5, 35424, Control_c, 4, 7, 105
5, 35472, Control_c, 4, 7, 115
5, 35704, Note_on_c, 4, 69, 0
5, 35712, Control_c, 4, 7, 85
5, 35712, Note_on_c, 4, 67, 100
5, 35736, Control_c, 4, 7, 95
5, 35760, Control_c, 4, 7, 105
5, 35784, Control_c, 4, 7, 115
5, 35808, Control_c, 4, 7, 85
5, 35808, Note_on_c, 4, 66, 100
5, 35808, Note_on_c, 4, 67, 0
5, 35832, Control_c, 4, 7, 95
5, 35856, Control_c, 4, 7, 105
5, 35880, Control_c, 4, 7, 115
5, 35900, Note_on_c, 4, 66, 0
5, 35904, Note_on_c, 4, 67, 100
5, 35904, Control_c, 4, 7, 85
5, 35928, Control_c, 4, 7, 95
5, 35952, Control_c, 4, 7, 105
5, 35976, Control_c, 4, 7, 115
5, 36096, Control_c, 4, 7, 60
5, 36096, Note_on_c, 4, 66, 100
5, 36096, Note_on_c, 4, 67, 0
5, 36144, Control_c, 4, 7, 65
5, 36192, Control_c, 4, 7, 70
5, 36240, Control_c, 4, 7, 75
5, 36288, Control_c, 4, 7, 80
5, 36336, Control_c, 4, 7, 85
5, 36384, Control_c, 4, 7, 90
5, 36432, Control_c, 4, 7, 95
5, 36480, Control_c, 4, 7, 100
5, 36576, Control_c, 4, 7, 105
5, 36672, Control_c, 4, 7, 110
5, 36768, Control_c, 4, 7, 115
5, 36856, Note_on_c, 4, 66, 0
5, 36864, Note_on_c, 4, 69, 90
5, 36864, Control_c, 4, 7, 60
5, 36960, Control_c, 4, 7, 70
5, 37056, Control_c, 4, 7, 80
5, 37152, Control_c, 4, 7, 90
5, 37248, Control_c, 4, 7, 100
5, 37344, Control_c, 4, 7, 110
5, 37440, Control_c, 4, 7, 115
5, 37536, Control_c, 4, 7, 120
5, 37728, Control_c, 4, 7, 85
5, 37728, Note_on_c, 4, 71, 95
5, 37728, Note_on_c, 4, 69, 0
5, 37752, Control_c, 4, 7, 95
5, 37776, Control_c, 4, 7, 100
5, 37800, Control_c, 4, 7, 115
5, 37824, Control_c, 4, 7, 85
5, 37824, Note_on_c, 4, 72, 100
5, 37824, Note_on_c, 4, 71, 0
5, 37872, Control_c, 4, 7, 95
5, 37920, Control_c, 4, 7, 100
5, 38016, Control_c, 4, 7, 115
5, 38112, Control_c, 4, 7, 85
5, 38112, Note_on_c, 4, 71, 90
5, 38112, Note_on_c, 4, 72, 0
5, 38136, Control_c, 4, 7, 95
5, 38160, Control_c, 4, 7, 100
5, 38184, Control_c, 4, 7, 115
5, 38208, Control_c, 4, 7, 85
5, 38208, Note_on_c, 4, 69, 80
5, 38208, Note_on_c, 4, 71, 0
5, 38232, Control_c, 4, 7, 95
5, 38256, Control_c, 4, 7, 100
5, 38280, Control_c, 4, 7, 115
5, 38304, Note_on_c, 4, 67, 80
5, 38304, Control_c, 4, 7, 85
5, 38304, Note_on_c, 4, 69, 0
5, 38328, Control_c, 4, 7, 95
5, 38352, Control_c, 4, 7, 105
5, 38376, Control_c, 4, 7, 115
5, 38400, Control_c, 4, 7, 70
5, 38400, Note_on_c, 4, 66, 100
5, 38400, Note_on_c, 4, 67, 0
5, 38496, Control_c, 4, 7, 80
5, 38592, Control_c, 4, 7, 90
5, 38688, Control_c, 4, 7, 100
5, 38784, Control_c, 4, 7, 110
5, 38880, Control_c, 4, 7, 115
5, 38968, Note_on_c, 4, 66, 0
5, 38976, Note_on_c, 4, 75, 110
5, 38976, Control_c, 4, 7, 60
5, 39000, Control_c, 4, 7, 70
5, 39024, Control_c, 4, 7, 80
5, 39048, Control_c, 4, 7, 90
5, 39072, Control_c, 4, 7, 105
5, 39120, Control_c, 4, 7, 115
5, 39168, Note_on_c, 4, 76, 100
5, 39168, Control_c, 4, 7, 60
5, 39168, Note_on_c, 4, 75, 0
5, 39264, Control_c, 4, 7, 70
5, 39360, Control_c, 4, 7, 80
5, 39456, Control_c, 4, 7, 90
5, 39552, Control_c, 4, 7, 100
5, 39648, Control_c, 4, 7, 110
5, 39744, Control_c, 4, 7, 115
5, 40800, Control_c, 4, 7, 85
5, 40800, Note_on_c, 4, 74, 90
5, 40800, Note_on_c, 4, 76, 0
5, 40824, Control_c, 4, 7, 95
5, 40848, Control_c, 4, 7, 105
5, 40872, Control_c, 4, 7, 115
5, 40896, Control_c, 4, 7, 85
5, 40896, Note_on_c, 4, 73, 85
5, 40896, Note_on_c, 4, 74, 0
5, 40920, Control_c, 4, 7, 95
5, 40944, Control_c, 4, 7, 105
5, 40968, Control_c, 4, 7, 115
5, 40992, Control_c, 4, 7, 85
5, 40992, Note_on_c, 4, 71, 80
5, 40992, Note_on_c, 4, 73, 0
5, 41016, Control_c, 4, 7, 95
5, 41040, Control_c, 4, 7, 105
5, 41064, Control_c, 4, 7, 115
5, 41088, Control_c, 4, 7, 85
5, 41088, Note_on_c, 4, 70, 80
5, 41088, Note_on_c, 4, 71, 0
5, 41112, Control_c, 4, 7, 95
5, 41136, Control_c, 4, 7, 105
5, 41160, Control_c, 4, 7, 115
5, 41184, Control_c, 4, 7, 85
5, 41184, Note_on_c, 4, 71, 80
5, 41184, Note_on_c, 4, 70, 0
5, 41208, Control_c, 4, 7, 95
5, 41232, Control_c, 4, 7, 105
5, 41256, Control_c, 4, 7, 115
5, 41280, Note_on_c, 4, 73, 80
5, 41280, Control_c, 4, 7, 85
5, 41280, Note_on_c, 4, 71, 0
5, 41328, Control_c, 4, 7, 95
5, 41376, Control_c, 4, 7, 105
5, 41424, Control_c, 4, 7, 115
5, 41472, Control_c, 4, 7, 85
5, 41472, Note_on_c, 4, 71, 90
5, 41472, Note_on_c, 4, 73, 0
5, 41520, Control_c, 4, 7, 95
5, 41568, Control_c, 4, 7, 105
5, 41616, Control_c, 4, 7, 115
5, 41656, Note_on_c, 4, 71, 0
5, 41664, Control_c, 4, 7, 85
5, 41664, Note_on_c, 4, 71, 90
5, 41712, Control_c, 4, 7, 95
5, 41760, Control_c, 4, 7, 105
5, 41808, Control_c, 4, 7, 115
5, 41848, Note_on_c, 4, 71, 0
5, 41856, Control_c, 4, 7, 85
5, 41856, Note_on_c, 4, 71, 100
5, 41904, Control_c, 4, 7, 95
5, 41952, Control_c, 4, 7, 105
5, 42000, Control_c, 4, 7, 115
5, 42040, Note_on_c, 4, 71, 0
5, 42048, Control_c, 4, 7, 85
5, 42048, Note_on_c, 4, 70, 90
5, 42096, Control_c, 4, 7, 95
5, 42144, Control_c, 4, 7, 105
5, 42192, Control_c, 4, 7, 115
5, 42236, Note_on_c, 4, 70, 0
5, 42240, Control_c, 4, 7, 85
5, 42240, Control_c, 4, 7, 60
5, 42240, Note_on_c, 4, 66, 100
5, 42288, Control_c, 4, 7, 65
5, 42336, Control_c, 4, 7, 70
5, 42384, Control_c, 4, 7, 75
5, 42432, Control_c, 4, 7, 80
5, 42480, Control_c, 4, 7, 85
5, 42528, Control_c, 4, 7, 90
5, 42576, Control_c, 4, 7, 95
5, 42624, Control_c, 4, 7, 100
5, 42720, Control_c, 4, 7, 105
5, 42816, Control_c, 4, 7, 110
5, 42912, Control_c, 4, 7, 115
5, 43000, Note_on_c, 4, 66, 0
5, 43008, Control_c, 4, 7, 85
5, 43008, Note_on_c, 4, 64, 90
5, 43056, Control_c, 4, 7, 95
5, 43104, Control_c, 4, 7, 105
5, 43152, Control_c, 4, 7, 115
5, 43384, Note_on_c, 4, 64, 0
5, 43392, Control_c, 4, 7, 85
5, 43392, Note_on_c, 4, 66, 100
5, 43440, Control_c, 4, 7, 95
5, 43488, Control_c, 4, 7, 105
5, 43536, Control_c, 4, 7, 115
5, 43768, Note_on_c, 4, 66, 0
5, 43776, Control_c, 4, 7, 85
5, 43776, Note_on_c, 4, 59, 80
5, 43824, Control_c, 4, 7, 95
5, 43872, Control_c, 4, 7, 105
5, 43920, Control_c, 4, 7, 115
5, 43964, Note_on_c, 4, 59, 0
5, 43968, Control_c, 4, 7, 85
5, 43968, Note_on_c, 4, 64, 90
5, 43992, Control_c, 4, 7, 95
5, 44016, Control_c, 4, 7, 100
5, 44040, Control_c, 4, 7, 115
5, 44064, Control_c, 4, 7, 85
5, 44064, Note_on_c, 4, 66, 100
5, 44064, Note_on_c, 4, 64, 0
5, 44088, Control_c, 4, 7, 95
5, 44112, Control_c, 4, 7, 100
5, 44136, Control_c, 4, 7, 115
5, 44156, Note_on_c, 4, 66, 0
5, 44160, Control_c, 4, 7, 85
5, 44160, Note_on_c, 4, 68, 100
5, 44184, Control_c, 4, 7, 95
5, 44208, Control_c, 4, 7, 100
5, 44232, Control_c, 4, 7, 115
5, 44252, Note_on_c, 4, 68, 0
5, 44256, Control_c, 4, 7, 85
5, 44256, Note_on_c, 4, 69, 100
5, 44280, Control_c, 4, 7, 95
5, 44304, Control_c, 4, 7, 105
5, 44328, Control_c, 4, 7, 115
5, 44348, Note_on_c, 4, 69, 0
5, 44352, Note_on_c, 4, 71, 110
5, 44352, Control_c, 4, 7, 85
5, 44400, Control_c, 4, 7, 95
5, 44448, Control_c, 4, 7, 105
5, 44496, Control_c, 4, 7, 115
5, 44732, Note_on_c, 4, 71, 0
5, 44736, Control_c, 4, 7, 85
5, 44736, Note_on_c, 4, 69, 110
5, 44784, Control_c, 4, 7, 95
5, 44832, Control_c, 4, 7, 105
5, 44880, Control_c, 4, 7, 115
5, 45112, Note_on_c, 4, 69, 0
5, 45120, Control_c, 4, 7, 85
5, 45120, Note_on_c, 4, 68, 110
5, 45168, Control_c, 4, 7, 95
5, 45216, Control_c, 4, 7, 105
5, 45264, Control_c, 4, 7, 115
5, 45308, Note_on_c, 4, 68, 0
5, 45312, Note_on_c, 4, 69, 100
5, 45312, Control_c, 4, 7, 60
5, 45408, Control_c, 4, 7, 70
5, 45504, Control_c, 4, 7, 80
5, 45600, Control_c, 4, 7, 90
5, 45696, Control_c, 4, 7, 100
5, 45792, Control_c, 4, 7, 110
5, 45888, Control_c, 4, 7, 115
5, 46272, Control_c, 4, 7, 85
5, 46272, Note_on_c, 4, 71, 100
5, 46272, Note_on_c, 4, 69, 0
5, 46296, Control_c, 4, 7, 95
5, 46320, Control_c, 4, 7, 105
5, 46344, Control_c, 4, 7, 115
5, 46364, Note_on_c, 4, 71, 0
5, 46368, Control_c, 4, 7, 85
5, 46368, Note_on_c, 4, 72, 110
5, 46392, Control_c, 4, 7, 95
5, 46416, Control_c, 4, 7, 105
5, 46440, Control_c, 4, 7, 115
5, 46460, Note_on_c, 4, 72, 0
5, 46464, Control_c, 4, 7, 85
5, 46464, Note_on_c, 4, 71, 100
5, 46488, Control_c, 4, 7, 95
5, 46512, Control_c, 4, 7, 105
5, 46536, Control_c, 4, 7, 115
5, 46556, Note_on_c, 4, 71, 0
5, 46560, Control_c, 4, 7, 85
5, 46560, Note_on_c, 4, 73, 110
5, 46584, Control_c, 4, 7, 95
5, 46608, Control_c, 4, 7, 105
5, 46632, Control_c, 4, 7, 115
5, 46652, Note_on_c, 4, 73, 0
5, 46656, Note_on_c, 4, 74, 110
5, 46656, Control_c, 4, 7, 85
5, 46704, Control_c, 4, 7, 95
5, 46752, Control_c, 4, 7, 105
5, 46800, Control_c, 4, 7, 115
5, 47036, Note_on_c, 4, 74, 0
5, 47040, Control_c, 4, 7, 85
5, 47040, Note_on_c, 4, 73, 100
5, 47064, Control_c, 4, 7, 95
5, 47088, Control_c, 4, 7, 105
5, 47112, Control_c, 4, 7, 115
5, 47132, Note_on_c, 4, 73, 0
5, 47136, Control_c, 4, 7, 85
5, 47136, Note_on_c, 4, 71, 110
5, 47160, Control_c, 4, 7, 95
5, 47184, Control_c, 4, 7, 105
5, 47208, Control_c, 4, 7, 115
5, 47228, Note_on_c, 4, 71, 0
5, 47232, Control_c, 4, 7, 85
5, 47232, Note_on_c, 4, 73, 100
5, 47256, Control_c, 4, 7, 95
5, 47280, Control_c, 4, 7, 105
5, 47304, Control_c, 4, 7, 115
5, 47324, Note_on_c, 4, 73, 0
5, 47328, Control_c, 4, 7, 85
5, 47328, Note_on_c, 4, 75, 110
5, 47352, Control_c, 4, 7, 95
5, 47376, Control_c, 4, 7, 105
5, 47400, Control_c, 4, 7, 115
5, 47420, Note_on_c, 4, 75, 0
5, 47424, Note_on_c, 4, 76, 110
5, 47424, Control_c, 4, 7, 85
5, 47472, Control_c, 4, 7, 95
5, 47520, Control_c, 4, 7, 105
5, 47568, Control_c, 4, 7, 115
5, 47804, Note_on_c, 4, 76, 0
5, 47808, Control_c, 4, 7, 85
5, 47808, Note_on_c, 4, 75, 100
5, 47832, Control_c, 4, 7, 95
5, 47856, Control_c, 4, 7, 105
5, 47880, Control_c, 4, 7, 115
5, 47900, Note_on_c, 4, 75, 0
5, 47904, Control_c, 4, 7, 85
5, 47904, Note_on_c, 4, 73, 110
5, 47928, Control_c, 4, 7, 95
5, 47952, Control_c, 4, 7, 105
5, 47976, Control_c, 4, 7, 115
5, 47996, Note_on_c, 4, 73, 0
5, 48000, Control_c, 4, 7, 85
5, 48000, Note_on_c, 4, 75, 100
5, 48024, Control_c, 4, 7, 95
5, 48048, Control_c, 4, 7, 105
5, 48072, Control_c, 4, 7, 115
5, 48092, Note_on_c, 4, 75, 0
5, 48096, Control_c, 4, 7, 85
5, 48096, Note_on_c, 4, 76, 110
5, 48120, Control_c, 4, 7, 95
5, 48144, Control_c, 4, 7, 105
5, 48168, Control_c, 4, 7, 115
5, 48188, Note_on_c, 4, 76, 0
5, 48192, Note_on_c, 4, 78, 110
5, 48192, Control_c, 4, 7, 85
5, 48240, Control_c, 4, 7, 95
5, 48288, Control_c, 4, 7, 105
5, 48336, Control_c, 4, 7, 115
5, 48480, Control_c, 4, 7, 85
5, 48480, Note_on_c, 4, 75, 100
5, 48480, Note_on_c, 4, 78, 0
5, 48504, Control_c, 4, 7, 95
5, 48528, Control_c, 4, 7, 105
5, 48552, Control_c, 4, 7, 115
5, 48572, Note_on_c, 4, 75, 0
5, 48576, Control_c, 4, 7, 85
5, 48576, Note_on_c, 4, 76, 110
5, 48600, Control_c, 4, 7, 95
5, 48624, Control_c, 4, 7, 105
5, 48648, Control_c, 4, 7, 115
5, 48668, Note_on_c, 4, 76, 0
5, 48672, Control_c, 4, 7, 85
5, 48672, Note_on_c, 4, 71, 100
5, 48696, Control_c, 4, 7, 95
5, 48720, Control_c, 4, 7, 105
5, 48744, Control_c, 4, 7, 115
5, 48764, Note_on_c, 4, 71, 0
5, 48768, Note_on_c, 4, 64, 110
5, 48768, Control_c, 4, 7, 85
5, 48816, Control_c, 4, 7, 95
5, 48864, Control_c, 4, 7, 105
5, 48912, Control_c, 4, 7, 115
5, 49248, Control_c, 4, 7, 85
5, 49248, Note_on_c, 4, 61, 90
5, 49248, Note_on_c, 4, 64, 0
5, 49272, Control_c, 4, 7, 95
5, 49296, Control_c, 4, 7, 105
5, 49320, Control_c, 4, 7, 115
5, 49340, Note_on_c, 4, 61, 0
5, 49344, Control_c, 4, 7, 85
5, 49344, Note_on_c, 4, 64, 95
5, 49368, Control_c, 4, 7, 95
5, 49392, Control_c, 4, 7, 105
5, 49416, Control_c, 4, 7, 115
5, 49436, Note_on_c, 4, 64, 0
5, 49440, Control_c, 4, 7, 85
5, 49440, Note_on_c, 4, 69, 100
5, 49464, Control_c, 4, 7, 95
5, 49488, Control_c, 4, 7, 105
5, 49512, Control_c, 4, 7, 115
5, 49532, Note_on_c, 4, 69, 0
5, 49536, Control_c, 4, 7, 85
5, 49536, Note_on_c, 4, 73, 110
5, 49560, Control_c, 4, 7, 95
5, 49584, Control_c, 4, 7, 105
5, 49608, Control_c, 4, 7, 115
5, 49728, Control_c, 4, 7, 85
5, 49728, Note_on_c, 4, 69, 100
5, 49728, Note_on_c, 4, 73, 0
5, 49752, Control_c, 4, 7, 95
5, 49776, Control_c, 4, 7, 105
5, 49800, Control_c, 4, 7, 115
5, 49916, Note_on_c, 4, 69, 0
5, 49920, Control_c, 4, 7, 85
5, 49920, Note_on_c, 4, 69, 80
5, 49968, Control_c, 4, 7, 95
5, 50016, Control_c, 4, 7, 105
5, 50064, Control_c, 4, 7, 115
5, 50108, Note_on_c, 4, 69, 0
5, 50112, Control_c, 4, 7, 85
5, 50112, Note_on_c, 4, 73, 95
5, 50136, Control_c, 4, 7, 95
5, 50160, Control_c, 4, 7, 100
5, 50184, Control_c, 4, 7, 115
5, 50208, Control_c, 4, 7, 85
5, 50208, Note_on_c, 4, 74, 105
5, 50208, Note_on_c, 4, 73, 0
5, 50232, Control_c, 4, 7, 95
5, 50256, Control_c, 4, 7, 100
5, 50280, Control_c, 4, 7, 115
5, 50300, Note_on_c, 4, 74, 0
5, 50304, Note_on_c, 4, 62, 80
5, 50304, Control_c, 4, 7, 85
5, 50352, Control_c, 4, 7, 95
5, 50400, Control_c, 4, 7, 100
5, 50448, Control_c, 4, 7, 115
5, 50876, Note_on_c, 4, 62, 0
5, 50880, Control_c, 4, 7, 85
5, 50880, Note_on_c, 4, 64, 95
5, 50904, Control_c, 4, 7, 95
5, 50928, Control_c, 4, 7, 105
5, 50952, Control_c, 4, 7, 115
5, 51068, Note_on_c, 4, 64, 0
5, 51072, Control_c, 4, 7, 85
5, 51072, Note_on_c, 4, 66, 100
5, 51120, Control_c, 4, 7, 95
5, 51168, Control_c, 4, 7, 105
5, 51216, Control_c, 4, 7, 115
5, 51452, Note_on_c, 4, 66, 0
5, 51456, Note_on_c, 4, 67, 100
5, 51456, Control_c, 4, 7, 80
5, 51504, Control_c, 4, 7, 85
5, 51552, Control_c, 4, 7, 90
5, 51600, Control_c, 4, 7, 95
5, 51648, Control_c, 4, 7, 100
5, 51696, Control_c, 4, 7, 105
5, 51744, Control_c, 4, 7, 110
5, 51792, Control_c, 4, 7, 115
5, 52416, Control_c, 4, 7, 85
5, 52416, Note_on_c, 4, 71, 95
5, 52416, Note_on_c, 4, 67, 0
5, 52440, Control_c, 4, 7, 95
5, 52464, Control_c, 4, 7, 105
5, 52488, Control_c, 4, 7, 115
5, 52604, Note_on_c, 4, 71, 0
5, 52608, Note_on_c, 4, 76, 110
5, 52608, Control_c, 4, 7, 85
5, 52656, Control_c, 4, 7, 95
5, 52704, Control_c, 4, 7, 105
5, 52752, Control_c, 4, 7, 115
5, 53088, Note_on_c, 4, 74, 100
5, 53088, Control_c, 4, 7, 85
5, 53088, Note_on_c, 4, 76, 0
5, 53112, Control_c, 4, 7, 95
5, 53136, Control_c, 4, 7, 105
5, 53160, Control_c, 4, 7, 115
5, 53180, Note_on_c, 4, 74, 0
5, 53184, Control_c, 4, 7, 85
5, 53184, Note_on_c, 4, 73, 95
5, 53208, Control_c, 4, 7, 95
5, 53232, Control_c, 4, 7, 105
5, 53256, Control_c, 4, 7, 115
5, 53276, Note_on_c, 4, 73, 0
5, 53280, Control_c, 4, 7, 85
5, 53280, Note_on_c, 4, 71, 90
5, 53304, Control_c, 4, 7, 95
5, 53328, Control_c, 4, 7, 105
5, 53352, Control_c, 4, 7, 115
5, 53372, Note_on_c, 4, 71, 0
5, 53376, Control_c, 4, 7, 85
5, 53376, Note_on_c, 4, 69, 90
5, 53400, Control_c, 4, 7, 95
5, 53424, Control_c, 4, 7, 105
5, 53448, Control_c, 4, 7, 115
5, 53564, Note_on_c, 4, 69, 0
5, 53568, Control_c, 4, 7, 85
5, 53568, Note_on_c, 4, 71, 100
5, 53592, Control_c, 4, 7, 95
5, 53616, Control_c, 4, 7, 105
5, 53640, Control_c, 4, 7, 115
5, 53756, Note_on_c, 4, 71, 0
5, 53760, Control_c, 4, 7, 85
5, 53760, Note_on_c, 4, 69, 90
5, 53808, Control_c, 4, 7, 95
5, 53856, Control_c, 4, 7, 105
5, 53904, Control_c, 4, 7, 115
5, 54136, Note_on_c, 4, 69, 0
5, 54144, Control_c, 4, 7, 85
5, 54144, Note_on_c, 4, 67, 100
5, 54168, Control_c, 4, 7, 95
5, 54192, Control_c, 4, 7, 105
5, 54216, Control_c, 4, 7, 115
5, 54240, Control_c, 4, 7, 85
5, 54240, Note_on_c, 4, 66, 100
5, 54240, Note_on_c, 4, 67, 0
5, 54264, Control_c, 4, 7, 95
5, 54288, Control_c, 4, 7, 105
5, 54312, Control_c, 4, 7, 115
5, 54332, Note_on_c, 4, 66, 0
5, 54336, Note_on_c, 4, 67, 100
5, 54336, Control_c, 4, 7, 85
5, 54360, Control_c, 4, 7, 95
5, 54384, Control_c, 4, 7, 105
5, 54408, Control_c, 4, 7, 115
5, 54528, Note_on_c, 4, 66, 100
5, 54528, Control_c, 4, 7, 60
5, 54528, Note_on_c, 4, 67, 0
5, 54576, Control_c, 4, 7, 65
5, 54624, Control_c, 4, 7, 70
5, 54672, Control_c, 4, 7, 75
5, 54720, Control_c, 4, 7, 80
5, 54768, Control_c, 4, 7, 85
5, 54816, Control_c, 4, 7, 90
5, 54864, Control_c, 4, 7, 95
5, 54912, Control_c, 4, 7, 100
5, 55008, Control_c, 4, 7, 105
5, 55104, Control_c, 4, 7, 110
5, 55200, Control_c, 4, 7, 115
5, 55232, Control_c, 4, 7, 114
5, 55312, Control_c, 4, 7, 115
5, 55344, Control_c, 4, 7, 116
5, 55408, Control_c, 4, 7, 115
5, 55440, Control_c, 4, 7, 114
5, 55456, Control_c, 4, 7, 112
5, 55472, Control_c, 4, 7, 111
5, 55504, Control_c, 4, 7, 109
5, 55520, Control_c, 4, 7, 106
5, 55552, Control_c, 4, 7, 104
5, 55568, Control_c, 4, 7, 100
5, 55584, Control_c, 4, 7, 95
5, 55600, Control_c, 4, 7, 91
5, 55632, Control_c, 4, 7, 83
5, 55648, Control_c, 4, 7, 81
5, 55664, Control_c, 4, 7, 79
5, 55680, Control_c, 4, 7, 77
5, 55696, Control_c, 4, 7, 75
5, 55712, Control_c, 4, 7, 67
5, 55728, Control_c, 4, 7, 61
5, 55744, Control_c, 4, 7, 55
5, 55760, Control_c, 4, 7, 53
5, 55776, Control_c, 4, 7, 43
5, 55792, Control_c, 4, 7, 41
5, 55808, Control_c, 4, 7, 39
5, 55824, Control_c, 4, 7, 37
5, 55840, Control_c, 4, 7, 37
5, 55856, Control_c, 4, 7, 34
5, 55872, Control_c, 4, 7, 28
5, 55888, Control_c, 4, 7, 25
5, 55904, Control_c, 4, 7, 23
5, 55920, Control_c, 4, 7, 21
5, 55936, Control_c, 4, 7, 18
5, 55952, Control_c, 4, 7, 15
5, 55968, Control_c, 4, 7, 11
5, 55984, Control_c, 4, 7, 10
5, 56000, Control_c, 4, 7, 8
5, 56016, Control_c, 4, 7, 5
5, 56032, Control_c, 4, 7, 3
5, 56048, Control_c, 4, 7, 1
5, 56056, Note_on_c, 4, 66, 0
5, 56064, Control_c, 4, 7, 2
5, 56064, End_track
6, 0, Start_track
6, 0, MIDI_port, 0
6, 0, Title_t, "SynthStrings"
6, 0, Program_c, 5, 50
6, 0, Control_c, 5, 7, 100
6, 0, Control_c, 5, 10, 78
6, 0, Control_c, 5, 121, 0
6, 0, Control_c, 5, 0, 0
6, 0, Program_c, 5, 50
6, 0, Control_c, 5, 10, 78
6, 0, Control_c, 5, 7, 30
6, 0, Note_on_c, 5, 74, 120
6, 0, Pitch_bend_c, 5, 8192
6, 0, Control_c, 5, 64, 0
6, 0, Control_c, 5, 91, 60
6, 0, Control_c, 5, 93, 20
6, 0, Control_c, 5, 11, 90
6, 48, Control_c, 5, 7, 30
6, 96, Control_c, 5, 7, 32
6, 144, Control_c, 5, 7, 34
6, 192, Control_c, 5, 7, 36
6, 240, Control_c, 5, 7, 38
6, 288, Control_c, 5, 7, 40
6, 336, Control_c, 5, 7, 42
6, 384, Control_c, 5, 7, 44
6, 432, Control_c, 5, 7, 46
6, 480, Control_c, 5, 7, 48
6, 528, Control_c, 5, 7, 50
6, 576, Control_c, 5, 7, 54
6, 624, Control_c, 5, 7, 58
6, 672, Control_c, 5, 7, 62
6, 720, Control_c, 5, 7, 66
6, 768, Control_c, 5, 7, 70
6, 816, Control_c, 5, 7, 74
6, 864, Control_c, 5, 7, 78
6, 912, Control_c, 5, 7, 82
6, 960, Control_c, 5, 7, 86
6, 1008, Control_c, 5, 7, 90
6, 1056, Control_c, 5, 7, 94
6, 1104, Control_c, 5, 7, 98
6, 1152, Control_c, 5, 7, 102
6, 1200, Control_c, 5, 7, 106
6, 1248, Control_c, 5, 7, 110
6, 1296, Control_c, 5, 7, 114
6, 1344, Control_c, 5, 7, 118
6, 1392, Control_c, 5, 7, 122
6, 1440, Control_c, 5, 7, 126
6, 1488, Control_c, 5, 7, 127
6, 1920, Note_on_c, 5, 71, 90
6, 1920, Control_c, 5, 11, 100
6, 1920, Control_c, 5, 7, 85
6, 1920, Note_on_c, 5, 74, 0
6, 2016, Control_c, 5, 7, 95
6, 2112, Control_c, 5, 7, 100
6, 2208, Control_c, 5, 7, 115
6, 2304, Note_on_c, 5, 69, 100
6, 2304, Control_c, 5, 7, 85
6, 2304, Note_on_c, 5, 71, 0
6, 2400, Control_c, 5, 7, 90
6, 2496, Control_c, 5, 7, 95
6, 2592, Control_c, 5, 7, 100
6, 2688, Control_c, 5, 7, 105
6, 2784, Control_c, 5, 7, 110
6, 2880, Control_c, 5, 7, 115
6, 2976, Control_c, 5, 7, 120
6, 3264, Control_c, 5, 7, 85
6, 3264, Note_on_c, 5, 72, 100
6, 3264, Note_on_c, 5, 69, 0
6, 3288, Control_c, 5, 7, 95
6, 3312, Control_c, 5, 7, 100
6, 3336, Control_c, 5, 7, 115
6, 3360, Control_c, 5, 7, 85
6, 3360, Note_on_c, 5, 71, 100
6, 3360, Note_on_c, 5, 72, 0
6, 3384, Control_c, 5, 7, 95
6, 3408, Control_c, 5, 7, 100
6, 3432, Control_c, 5, 7, 115
6, 3456, Control_c, 5, 7, 85
6, 3456, Note_on_c, 5, 72, 100
6, 3456, Note_on_c, 5, 71, 0
6, 3504, Control_c, 5, 7, 95
6, 3552, Control_c, 5, 7, 100
6, 3600, Control_c, 5, 7, 115
6, 3648, Control_c, 5, 7, 85
6, 3648, Note_on_c, 5, 81, 80
6, 3648, Note_on_c, 5, 72, 0
6, 3672, Control_c, 5, 7, 95
6, 3696, Control_c, 5, 7, 105
6, 3720, Control_c, 5, 7, 115
6, 3744, Note_on_c, 5, 72, 100
6, 3744, Control_c, 5, 7, 85
6, 3744, Note_on_c, 5, 81, 0
6, 3768, Control_c, 5, 7, 95
6, 3792, Control_c, 5, 7, 105
6, 3816, Control_c, 5, 7, 115
6, 3840, Control_c, 5, 7, 85
6, 3840, Note_on_c, 5, 71, 100
6, 3840, Note_on_c, 5, 72, 0
6, 3888, Control_c, 5, 7, 95
6, 3936, Control_c, 5, 7, 105
6, 3984, Control_c, 5, 7, 115
6, 4032, Note_on_c, 5, 71, 0
6, 4608, Control_c, 5, 7, 60
6, 4608, Note_on_c, 5, 71, 100
6, 4656, Control_c, 5, 7, 70
6, 4704, Control_c, 5, 7, 80
6, 4752, Control_c, 5, 7, 90
6, 4776, Control_c, 5, 7, 100
6, 4800, Control_c, 5, 7, 85
6, 4800, Note_on_c, 5, 76, 100
6, 4800, Note_on_c, 5, 71, 0
6, 4824, Control_c, 5, 7, 95
6, 4848, Control_c, 5, 7, 100
6, 4872, Control_c, 5, 7, 115
6, 4896, Control_c, 5, 7, 85
6, 4896, Note_on_c, 5, 74, 100
6, 4896, Note_on_c, 5, 76, 0
6, 4920, Control_c, 5, 7, 95
6, 4944, Control_c, 5, 7, 100
6, 4968, Control_c, 5, 7, 115
6, 4992, Control_c, 5, 7, 85
6, 4992, Note_on_c, 5, 76, 100
6, 4992, Note_on_c, 5, 74, 0
6, 5016, Control_c, 5, 7, 95
6, 5040, Control_c, 5, 7, 100
6, 5064, Control_c, 5, 7, 115
6, 5088, Control_c, 5, 7, 85
6, 5088, Note_on_c, 5, 78, 100
6, 5088, Note_on_c, 5, 76, 0
6, 5112, Control_c, 5, 7, 95
6, 5136, Control_c, 5, 7, 105
6, 5160, Control_c, 5, 7, 115
6, 5184, Control_c, 5, 7, 85
6, 5184, Note_on_c, 5, 79, 100
6, 5184, Note_on_c, 5, 78, 0
6, 5208, Control_c, 5, 7, 95
6, 5232, Control_c, 5, 7, 105
6, 5256, Control_c, 5, 7, 115
6, 5280, Note_on_c, 5, 76, 100
6, 5280, Control_c, 5, 7, 85
6, 5280, Note_on_c, 5, 79, 0
6, 5304, Control_c, 5, 7, 95
6, 5328, Control_c, 5, 7, 105
6, 5352, Control_c, 5, 7, 115
6, 5376, Control_c, 5, 7, 85
6, 5376, Note_on_c, 5, 69, 100
6, 5376, Note_on_c, 5, 76, 0
6, 5424, Control_c, 5, 7, 95
6, 5472, Control_c, 5, 7, 105
6, 5520, Control_c, 5, 7, 115
6, 5568, Note_on_c, 5, 69, 0
6, 6144, Note_on_c, 5, 69, 100
6, 6144, Control_c, 5, 7, 85
6, 6240, Control_c, 5, 7, 90
6, 6336, Control_c, 5, 7, 95
6, 6432, Control_c, 5, 7, 100
6, 6528, Control_c, 5, 7, 105
6, 6624, Control_c, 5, 7, 110
6, 6720, Control_c, 5, 7, 115
6, 6816, Control_c, 5, 7, 120
6, 7104, Control_c, 5, 7, 85
6, 7104, Note_on_c, 5, 68, 100
6, 7104, Note_on_c, 5, 69, 0
6, 7128, Control_c, 5, 7, 95
6, 7152, Control_c, 5, 7, 100
6, 7176, Control_c, 5, 7, 115
6, 7200, Control_c, 5, 7, 85
6, 7200, Note_on_c, 5, 69, 100
6, 7200, Note_on_c, 5, 68, 0
6, 7224, Control_c, 5, 7, 95
6, 7248, Control_c, 5, 7, 100
6, 7272, Control_c, 5, 7, 115
6, 7296, Control_c, 5, 7, 85
6, 7296, Note_on_c, 5, 71, 100
6, 7296, Note_on_c, 5, 69, 0
6, 7344, Control_c, 5, 7, 95
6, 7392, Control_c, 5, 7, 100
6, 7440, Control_c, 5, 7, 115
6, 7488, Note_on_c, 5, 68, 80
6, 7488, Control_c, 5, 7, 85
6, 7488, Note_on_c, 5, 71, 0
6, 7536, Control_c, 5, 7, 95
6, 7584, Control_c, 5, 7, 105
6, 7632, Control_c, 5, 7, 115
6, 7680, Control_c, 5, 7, 85
6, 7680, Note_on_c, 5, 69, 100
6, 7680, Note_on_c, 5, 68, 0
6, 7728, Control_c, 5, 7, 95
6, 7776, Control_c, 5, 7, 100
6, 7824, Control_c, 5, 7, 115
6, 7868, Note_on_c, 5, 69, 0
6, 7872, Control_c, 5, 7, 85
6, 7872, Note_on_c, 5, 69, 100
6, 7920, Control_c, 5, 7, 95
6, 7968, Control_c, 5, 7, 100
6, 8016, Control_c, 5, 7, 115
6, 8256, Note_on_c, 5, 68, 100
6, 8256, Control_c, 5, 7, 85
6, 8256, Note_on_c, 5, 69, 0
6, 8304, Control_c, 5, 7, 95
6, 8352, Control_c, 5, 7, 100
6, 8400, Control_c, 5, 7, 115
6, 8448, Note_on_c, 5, 64, 100
6, 8448, Control_c, 5, 7, 60
6, 8448, Note_on_c, 5, 68, 0
6, 8496, Control_c, 5, 7, 65
6, 8544, Control_c, 5, 7, 70
6, 8592, Control_c, 5, 7, 75
6, 8640, Control_c, 5, 7, 80
6, 8688, Control_c, 5, 7, 85
6, 8736, Control_c, 5, 7, 90
6, 8784, Control_c, 5, 7, 95
6, 8832, Control_c, 5, 7, 100
6, 8928, Control_c, 5, 7, 105
6, 9024, Control_c, 5, 7, 110
6, 9120, Control_c, 5, 7, 115
6, 9216, Note_on_c, 5, 74, 120
6, 9216, Control_c, 5, 7, 30
6, 9216, Control_c, 5, 11, 90
6, 9216, Note_on_c, 5, 64, 0
6, 9264, Control_c, 5, 7, 30
6, 9312, Control_c, 5, 7, 32
6, 9360, Control_c, 5, 7, 34
6, 9408, Control_c, 5, 7, 36
6, 9456, Control_c, 5, 7, 38
6, 9504, Control_c, 5, 7, 40
6, 9552, Control_c, 5, 7, 42
6, 9600, Control_c, 5, 7, 44
6, 9648, Control_c, 5, 7, 46
6, 9696, Control_c, 5, 7, 48
6, 9744, Control_c, 5, 7, 50
6, 9792, Control_c, 5, 7, 54
6, 9840, Control_c, 5, 7, 58
6, 9888, Control_c, 5, 7, 62
6, 9936, Control_c, 5, 7, 66
6, 9984, Control_c, 5, 7, 70
6, 10032, Control_c, 5, 7, 74
6, 10080, Control_c, 5, 7, 78
6, 10128, Control_c, 5, 7, 82
6, 10176, Control_c, 5, 7, 86
6, 10224, Control_c, 5, 7, 90
6, 10272, Control_c, 5, 7, 94
6, 10320, Control_c, 5, 7, 98
6, 10368, Control_c, 5, 7, 102
6, 10416, Control_c, 5, 7, 106
6, 10464, Control_c, 5, 7, 110
6, 10512, Control_c, 5, 7, 114
6, 10560, Control_c, 5, 7, 118
6, 10608, Control_c, 5, 7, 122
6, 10656, Control_c, 5, 7, 126
6, 10704, Control_c, 5, 7, 127
6, 11136, Note_on_c, 5, 71, 90
6, 11136, Control_c, 5, 7, 85
6, 11136, Note_on_c, 5, 74, 0
6, 11232, Control_c, 5, 7, 95
6, 11328, Control_c, 5, 7, 100
6, 11424, Control_c, 5, 7, 115
6, 11520, Note_on_c, 5, 69, 100
6, 11520, Control_c, 5, 7, 85
6, 11520, Note_on_c, 5, 71, 0
6, 11616, Control_c, 5, 7, 90
6, 11712, Control_c, 5, 7, 95
6, 11808, Control_c, 5, 7, 100
6, 11904, Control_c, 5, 7, 105
6, 12000, Control_c, 5, 7, 110
6, 12096, Control_c, 5, 7, 115
6, 12192, Control_c, 5, 7, 120
6, 12480, Control_c, 5, 7, 85
6, 12480, Note_on_c, 5, 72, 100
6, 12480, Note_on_c, 5, 69, 0
6, 12504, Control_c, 5, 7, 95
6, 12528, Control_c, 5, 7, 100
6, 12552, Control_c, 5, 7, 115
6, 12576, Control_c, 5, 7, 85
6, 12576, Note_on_c, 5, 71, 100
6, 12576, Note_on_c, 5, 72, 0
6, 12600, Control_c, 5, 7, 95
6, 12624, Control_c, 5, 7, 100
6, 12648, Control_c, 5, 7, 115
6, 12672, Control_c, 5, 7, 85
6, 12672, Note_on_c, 5, 72, 100
6, 12672, Note_on_c, 5, 71, 0
6, 12720, Control_c, 5, 7, 95
6, 12768, Control_c, 5, 7, 100
6, 12816, Control_c, 5, 7, 115
6, 12864, Control_c, 5, 7, 85
6, 12864, Note_on_c, 5, 81, 80
6, 12864, Note_on_c, 5, 72, 0
6, 12888, Control_c, 5, 7, 95
6, 12912, Control_c, 5, 7, 105
6, 12936, Control_c, 5, 7, 115
6, 12960, Note_on_c, 5, 72, 100
6, 12960, Control_c, 5, 7, 85
6, 12960, Note_on_c, 5, 81, 0
6, 12984, Control_c, 5, 7, 95
6, 13008, Control_c, 5, 7, 105
6, 13032, Control_c, 5, 7, 115
6, 13056, Control_c, 5, 7, 85
6, 13056, Note_on_c, 5, 71, 100
6, 13056, Note_on_c, 5, 72, 0
6, 13104, Control_c, 5, 7, 95
6, 13152, Control_c, 5, 7, 105
6, 13200, Control_c, 5, 7, 115
6, 13248, Note_on_c, 5, 71, 0
6, 13824, Control_c, 5, 7, 60
6, 13824, Note_on_c, 5, 71, 100
6, 13872, Control_c, 5, 7, 70
6, 13920, Control_c, 5, 7, 80
6, 13968, Control_c, 5, 7, 90
6, 13992, Control_c, 5, 7, 100
6, 14016, Control_c, 5, 7, 85
6, 14016, Note_on_c, 5, 76, 100
6, 14016, Note_on_c, 5, 71, 0
6, 14040, Control_c, 5, 7, 95
6, 14064, Control_c, 5, 7, 100
6, 14088, Control_c, 5, 7, 115
6, 14112, Control_c, 5, 7, 85
6, 14112, Note_on_c, 5, 74, 100
6, 14112, Note_on_c, 5, 76, 0
6, 14136, Control_c, 5, 7, 95
6, 14160, Control_c, 5, 7, 100
6, 14184, Control_c, 5, 7, 115
6, 14208, Control_c, 5, 7, 85
6, 14208, Note_on_c, 5, 76, 100
6, 14208, Note_on_c, 5, 74, 0
6, 14232, Control_c, 5, 7, 95
6, 14256, Control_c, 5, 7, 100
6, 14280, Control_c, 5, 7, 115
6, 14304, Control_c, 5, 7, 85
6, 14304, Note_on_c, 5, 78, 100
6, 14304, Note_on_c, 5, 76, 0
6, 14328, Control_c, 5, 7, 95
6, 14352, Control_c, 5, 7, 105
6, 14376, Control_c, 5, 7, 115
6, 14400, Control_c, 5, 7, 85
6, 14400, Note_on_c, 5, 79, 100
6, 14400, Note_on_c, 5, 78, 0
6, 14424, Control_c, 5, 7, 95
6, 14448, Control_c, 5, 7, 105
6, 14472, Control_c, 5, 7, 115
6, 14496, Note_on_c, 5, 76, 100
6, 14496, Control_c, 5, 7, 85
6, 14496, Note_on_c, 5, 79, 0
6, 14520, Control_c, 5, 7, 95
6, 14544, Control_c, 5, 7, 105
6, 14568, Control_c, 5, 7, 115
6, 14592, Control_c, 5, 7, 85
6, 14592, Note_on_c, 5, 69, 100
6, 14592, Note_on_c, 5, 76, 0
6, 14640, Control_c, 5, 7, 95
6, 14688, Control_c, 5, 7, 105
6, 14736, Control_c, 5, 7, 115
6, 14784, Note_on_c, 5, 69, 0
6, 15360, Note_on_c, 5, 69, 100
6, 15360, Control_c, 5, 7, 60
6, 15408, Control_c, 5, 7, 70
6, 15456, Control_c, 5, 7, 80
6, 15504, Control_c, 5, 7, 90
6, 15552, Control_c, 5, 7, 95
6, 15648, Control_c, 5, 7, 100
6, 15744, Control_c, 5, 7, 105
6, 15840, Control_c, 5, 7, 110
6, 15936, Control_c, 5, 7, 115
6, 16032, Control_c, 5, 7, 120
6, 16320, Control_c, 5, 7, 85
6, 16320, Note_on_c, 5, 68, 100
6, 16320, Note_on_c, 5, 69, 0
6, 16344, Control_c, 5, 7, 95
6, 16368, Control_c, 5, 7, 100
6, 16392, Control_c, 5, 7, 115
6, 16416, Control_c, 5, 7, 85
6, 16416, Note_on_c, 5, 69, 100
6, 16416, Note_on_c, 5, 68, 0
6, 16440, Control_c, 5, 7, 95
6, 16464, Control_c, 5, 7, 100
6, 16488, Control_c, 5, 7, 115
6, 16512, Control_c, 5, 7, 85
6, 16512, Note_on_c, 5, 71, 100
6, 16512, Note_on_c, 5, 69, 0
6, 16560, Control_c, 5, 7, 95
6, 16608, Control_c, 5, 7, 100
6, 16656, Control_c, 5, 7, 115
6, 16704, Note_on_c, 5, 68, 80
6, 16704, Control_c, 5, 7, 85
6, 16704, Note_on_c, 5, 71, 0
6, 16752, Control_c, 5, 7, 95
6, 16800, Control_c, 5, 7, 105
6, 16848, Control_c, 5, 7, 115
6, 16896, Control_c, 5, 7, 85
6, 16896, Note_on_c, 5, 69, 100
6, 16896, Note_on_c, 5, 68, 0
6, 16944, Control_c, 5, 7, 95
6, 16992, Control_c, 5, 7, 100
6, 17040, Control_c, 5, 7, 115
6, 17084, Note_on_c, 5, 69, 0
6, 17088, Control_c, 5, 7, 85
6, 17088, Note_on_c, 5, 69, 100
6, 17136, Control_c, 5, 7, 95
6, 17184, Control_c, 5, 7, 100
6, 17232, Control_c, 5, 7, 115
6, 17472, Note_on_c, 5, 68, 100
6, 17472, Control_c, 5, 7, 85
6, 17472, Note_on_c, 5, 69, 0
6, 17520, Control_c, 5, 7, 95
6, 17568, Control_c, 5, 7, 100
6, 17616, Control_c, 5, 7, 115
6, 17664, Note_on_c, 5, 64, 100
6, 17664, Control_c, 5, 7, 60
6, 17664, Note_on_c, 5, 68, 0
6, 17712, Control_c, 5, 7, 65
6, 17760, Control_c, 5, 7, 70
6, 17808, Control_c, 5, 7, 75
6, 17856, Control_c, 5, 7, 80
6, 17904, Control_c, 5, 7, 85
6, 17952, Control_c, 5, 7, 90
6, 18000, Control_c, 5, 7, 95
6, 18048, Control_c, 5, 7, 100
6, 18144, Control_c, 5, 7, 105
6, 18240, Control_c, 5, 7, 110
6, 18336, Control_c, 5, 7, 115
6, 18432, Note_on_c, 5, 69, 90
6, 18432, Control_c, 5, 7, 60
6, 18432, Note_on_c, 5, 64, 0
6, 18528, Control_c, 5, 7, 70
6, 18624, Control_c, 5, 7, 80
6, 18720, Control_c, 5, 7, 90
6, 18816, Control_c, 5, 7, 100
6, 18912, Control_c, 5, 7, 110
6, 19008, Control_c, 5, 7, 115
6, 19104, Control_c, 5, 7, 120
6, 19296, Control_c, 5, 7, 85
6, 19296, Note_on_c, 5, 71, 95
6, 19296, Note_on_c, 5, 69, 0
6, 19320, Control_c, 5, 7, 95
6, 19344, Control_c, 5, 7, 100
6, 19368, Control_c, 5, 7, 115
6, 19392, Control_c, 5, 7, 85
6, 19392, Note_on_c, 5, 72, 100
6, 19392, Note_on_c, 5, 71, 0
6, 19440, Control_c, 5, 7, 95
6, 19488, Control_c, 5, 7, 100
6, 19584, Control_c, 5, 7, 115
6, 19680, Control_c, 5, 7, 85
6, 19680, Note_on_c, 5, 71, 90
6, 19680, Note_on_c, 5, 72, 0
6, 19704, Control_c, 5, 7, 95
6, 19728, Control_c, 5, 7, 100
6, 19752, Control_c, 5, 7, 115
6, 19776, Control_c, 5, 7, 85
6, 19776, Note_on_c, 5, 69, 80
6, 19776, Note_on_c, 5, 71, 0
6, 19800, Control_c, 5, 7, 95
6, 19824, Control_c, 5, 7, 100
6, 19848, Control_c, 5, 7, 115
6, 19872, Note_on_c, 5, 67, 80
6, 19872, Control_c, 5, 7, 85
6, 19872, Note_on_c, 5, 69, 0
6, 19896, Control_c, 5, 7, 95
6, 19920, Control_c, 5, 7, 105
6, 19944, Control_c, 5, 7, 115
6, 19968, Control_c, 5, 7, 70
6, 19968, Note_on_c, 5, 66, 100
6, 19968, Note_on_c, 5, 67, 0
6, 20064, Control_c, 5, 7, 80
6, 20160, Control_c, 5, 7, 90
6, 20256, Control_c, 5, 7, 100
6, 20352, Control_c, 5, 7, 110
6, 20448, Control_c, 5, 7, 115
6, 20536, Note_on_c, 5, 66, 0
6, 20544, Note_on_c, 5, 75, 110
6, 20544, Control_c, 5, 7, 60
6, 20568, Control_c, 5, 7, 70
6, 20592, Control_c, 5, 7, 80
6, 20616, Control_c, 5, 7, 90
6, 20640, Control_c, 5, 7, 105
6, 20688, Control_c, 5, 7, 115
6, 20736, Note_on_c, 5, 76, 100
6, 20736, Control_c, 5, 7, 60
6, 20736, Note_on_c, 5, 75, 0
6, 20832, Control_c, 5, 7, 70
6, 20928, Control_c, 5, 7, 80
6, 21024, Control_c, 5, 7, 90
6, 21120, Control_c, 5, 7, 100
6, 21216, Control_c, 5, 7, 110
6, 21312, Control_c, 5, 7, 115
6, 22368, Control_c, 5, 7, 85
6, 22368, Note_on_c, 5, 74, 90
6, 22368, Note_on_c, 5, 76, 0
6, 22392, Control_c, 5, 7, 95
6, 22416, Control_c, 5, 7, 105
6, 22440, Control_c, 5, 7, 115
6, 22464, Control_c, 5, 7, 85
6, 22464, Note_on_c, 5, 73, 85
6, 22464, Note_on_c, 5, 74, 0
6, 22488, Control_c, 5, 7, 95
6, 22512, Control_c, 5, 7, 105
6, 22536, Control_c, 5, 7, 115
6, 22560, Control_c, 5, 7, 85
6, 22560, Note_on_c, 5, 71, 80
6, 22560, Note_on_c, 5, 73, 0
6, 22584, Control_c, 5, 7, 95
6, 22608, Control_c, 5, 7, 105
6, 22632, Control_c, 5, 7, 115
6, 22656, Control_c, 5, 7, 85
6, 22656, Note_on_c, 5, 70, 80
6, 22656, Note_on_c, 5, 71, 0
6, 22680, Control_c, 5, 7, 95
6, 22704, Control_c, 5, 7, 105
6, 22728, Control_c, 5, 7, 115
6, 22752, Control_c, 5, 7, 85
6, 22752, Note_on_c, 5, 71, 80
6, 22752, Note_on_c, 5, 70, 0
6, 22776, Control_c, 5, 7, 95
6, 22800, Control_c, 5, 7, 105
6, 22824, Control_c, 5, 7, 115
6, 22848, Note_on_c, 5, 73, 80
6, 22848, Control_c, 5, 7, 85
6, 22848, Note_on_c, 5, 71, 0
6, 22896, Control_c, 5, 7, 95
6, 22944, Control_c, 5, 7, 105
6, 22992, Control_c, 5, 7, 115
6, 23040, Control_c, 5, 7, 85
6, 23040, Note_on_c, 5, 71, 90
6, 23040, Note_on_c, 5, 73, 0
6, 23088, Control_c, 5, 7, 95
6, 23136, Control_c, 5, 7, 105
6, 23184, Control_c, 5, 7, 115
6, 23224, Note_on_c, 5, 71, 0
6, 23232, Control_c, 5, 7, 85
6, 23232, Note_on_c, 5, 71, 90
6, 23280, Control_c, 5, 7, 95
6, 23328, Control_c, 5, 7, 105
6, 23376, Control_c, 5, 7, 115
6, 23416, Note_on_c, 5, 71, 0
6, 23424, Control_c, 5, 7, 85
6, 23424, Note_on_c, 5, 71, 100
6, 23472, Control_c, 5, 7, 95
6, 23520, Control_c, 5, 7, 105
6, 23568, Control_c, 5, 7, 115
6, 23608, Note_on_c, 5, 71, 0
6, 23616, Control_c, 5, 7, 85
6, 23616, Note_on_c, 5, 70, 90
6, 23664, Control_c, 5, 7, 95
6, 23712, Control_c, 5, 7, 105
6, 23760, Control_c, 5, 7, 115
6, 23804, Note_on_c, 5, 70, 0
6, 23808, Control_c, 5, 7, 85
6, 23808, Control_c, 5, 7, 60
6, 23808, Note_on_c, 5, 66, 100
6, 23856, Control_c, 5, 7, 65
6, 23904, Control_c, 5, 7, 70
6, 23952, Control_c, 5, 7, 75
6, 24000, Control_c, 5, 7, 80
6, 24048, Control_c, 5, 7, 85
6, 24096, Control_c, 5, 7, 90
6, 24144, Control_c, 5, 7, 95
6, 24192, Control_c, 5, 7, 100
6, 24288, Control_c, 5, 7, 105
6, 24384, Control_c, 5, 7, 110
6, 24480, Control_c, 5, 7, 115
6, 24568, Note_on_c, 5, 66, 0
6, 24576, Control_c, 5, 7, 85
6, 24576, Note_on_c, 5, 64, 90
6, 24624, Control_c, 5, 7, 95
6, 24672, Control_c, 5, 7, 105
6, 24720, Control_c, 5, 7, 115
6, 24952, Note_on_c, 5, 64, 0
6, 24960, Control_c, 5, 7, 85
6, 24960, Note_on_c, 5, 66, 100
6, 25008, Control_c, 5, 7, 95
6, 25056, Control_c, 5, 7, 105
6, 25104, Control_c, 5, 7, 115
6, 25336, Note_on_c, 5, 66, 0
6, 25344, Control_c, 5, 7, 85
6, 25344, Note_on_c, 5, 59, 80
6, 25392, Control_c, 5, 7, 95
6, 25440, Control_c, 5, 7, 105
6, 25488, Control_c, 5, 7, 115
6, 25532, Note_on_c, 5, 59, 0
6, 25536, Control_c, 5, 7, 85
6, 25536, Note_on_c, 5, 64, 90
6, 25560, Control_c, 5, 7, 95
6, 25584, Control_c, 5, 7, 100
6, 25608, Control_c, 5, 7, 115
6, 25632, Control_c, 5, 7, 85
6, 25632, Note_on_c, 5, 66, 100
6, 25632, Note_on_c, 5, 64, 0
6, 25656, Control_c, 5, 7, 95
6, 25680, Control_c, 5, 7, 100
6, 25704, Control_c, 5, 7, 115
6, 25724, Note_on_c, 5, 66, 0
6, 25728, Control_c, 5, 7, 85
6, 25728, Note_on_c, 5, 68, 100
6, 25752, Control_c, 5, 7, 95
6, 25776, Control_c, 5, 7, 100
6, 25800, Control_c, 5, 7, 115
6, 25820, Note_on_c, 5, 68, 0
6, 25824, Control_c, 5, 7, 85
6, 25824, Note_on_c, 5, 69, 100
6, 25848, Control_c, 5, 7, 95
6, 25872, Control_c, 5, 7, 105
6, 25896, Control_c, 5, 7, 115
6, 25916, Note_on_c, 5, 69, 0
6, 25920, Note_on_c, 5, 71, 110
6, 25920, Control_c, 5, 7, 85
6, 25968, Control_c, 5, 7, 95
6, 26016, Control_c, 5, 7, 105
6, 26064, Control_c, 5, 7, 115
6, 26300, Note_on_c, 5, 71, 0
6, 26304, Control_c, 5, 7, 85
6, 26304, Note_on_c, 5, 69, 110
6, 26352, Control_c, 5, 7, 95
6, 26400, Control_c, 5, 7, 105
6, 26448, Control_c, 5, 7, 115
6, 26680, Note_on_c, 5, 69, 0
6, 26688, Control_c, 5, 7, 85
6, 26688, Note_on_c, 5, 68, 110
6, 26736, Control_c, 5, 7, 95
6, 26784, Control_c, 5, 7, 105
6, 26832, Control_c, 5, 7, 115
6, 26876, Note_on_c, 5, 68, 0
6, 26880, Note_on_c, 5, 69, 100
6, 26880, Control_c, 5, 7, 60
6, 26976, Control_c, 5, 7, 70
6, 27072, Control_c, 5, 7, 80
6, 27168, Control_c, 5, 7, 90
6, 27264, Control_c, 5, 7, 100
6, 27360, Control_c, 5, 7, 110
6, 27456, Control_c, 5, 7, 115
6, 27840, Control_c, 5, 7, 85
6, 27840, Note_on_c, 5, 71, 100
6, 27840, Note_on_c, 5, 69, 0
6, 27864, Control_c, 5, 7, 95
6, 27888, Control_c, 5, 7, 105
6, 27912, Control_c, 5, 7, 115
6, 27932, Note_on_c, 5, 71, 0
6, 27936, Control_c, 5, 7, 85
6, 27936, Note_on_c, 5, 72, 110
6, 27960, Control_c, 5, 7, 95
6, 27984, Control_c, 5, 7, 105
6, 28008, Control_c, 5, 7, 115
6, 28028, Note_on_c, 5, 72, 0
6, 28032, Control_c, 5, 7, 85
6, 28032, Note_on_c, 5, 71, 100
6, 28056, Control_c, 5, 7, 95
6, 28080, Control_c, 5, 7, 105
6, 28104, Control_c, 5, 7, 115
6, 28124, Note_on_c, 5, 71, 0
6, 28128, Control_c, 5, 7, 85
6, 28128, Note_on_c, 5, 73, 110
6, 28152, Control_c, 5, 7, 95
6, 28176, Control_c, 5, 7, 105
6, 28200, Control_c, 5, 7, 115
6, 28220, Note_on_c, 5, 73, 0
6, 28224, Note_on_c, 5, 74, 110
6, 28224, Control_c, 5, 7, 85
6, 28272, Control_c, 5, 7, 95
6, 28320, Control_c, 5, 7, 105
6, 28368, Control_c, 5, 7, 115
6, 28604, Note_on_c, 5, 74, 0
6, 28608, Control_c, 5, 7, 85
6, 28608, Note_on_c, 5, 73, 100
6, 28632, Control_c, 5, 7, 95
6, 28656, Control_c, 5, 7, 105
6, 28680, Control_c, 5, 7, 115
6, 28700, Note_on_c, 5, 73, 0
6, 28704, Control_c, 5, 7, 85
6, 28704, Note_on_c, 5, 71, 110
6, 28728, Control_c, 5, 7, 95
6, 28752, Control_c, 5, 7, 105
6, 28776, Control_c, 5, 7, 115
6, 28796, Note_on_c, 5, 71, 0
6, 28800, Control_c, 5, 7, 85
6, 28800, Note_on_c, 5, 73, 100
6, 28824, Control_c, 5, 7, 95
6, 28848, Control_c, 5, 7, 105
6, 28872, Control_c, 5, 7, 115
6, 28892, Note_on_c, 5, 73, 0
6, 28896, Control_c, 5, 7, 85
6, 28896, Note_on_c, 5, 75, 110
6, 28920, Control_c, 5, 7, 95
6, 28944, Control_c, 5, 7, 105
6, 28968, Control_c, 5, 7, 115
6, 28988, Note_on_c, 5, 75, 0
6, 28992, Note_on_c, 5, 76, 110
6, 28992, Control_c, 5, 7, 85
6, 29040, Control_c, 5, 7, 95
6, 29088, Control_c, 5, 7, 105
6, 29136, Control_c, 5, 7, 115
6, 29372, Note_on_c, 5, 76, 0
6, 29376, Control_c, 5, 7, 85
6, 29376, Note_on_c, 5, 75, 100
6, 29400, Control_c, 5, 7, 95
6, 29424, Control_c, 5, 7, 105
6, 29448, Control_c, 5, 7, 115
6, 29468, Note_on_c, 5, 75, 0
6, 29472, Control_c, 5, 7, 85
6, 29472, Note_on_c, 5, 73, 110
6, 29496, Control_c, 5, 7, 95
6, 29520, Control_c, 5, 7, 105
6, 29544, Control_c, 5, 7, 115
6, 29564, Note_on_c, 5, 73, 0
6, 29568, Control_c, 5, 7, 85
6, 29568, Note_on_c, 5, 75, 100
6, 29592, Control_c, 5, 7, 95
6, 29616, Control_c, 5, 7, 105
6, 29640, Control_c, 5, 7, 115
6, 29660, Note_on_c, 5, 75, 0
6, 29664, Control_c, 5, 7, 85
6, 29664, Note_on_c, 5, 76, 110
6, 29688, Control_c, 5, 7, 95
6, 29712, Control_c, 5, 7, 105
6, 29736, Control_c, 5, 7, 115
6, 29756, Note_on_c, 5, 76, 0
6, 29760, Note_on_c, 5, 78, 110
6, 29760, Control_c, 5, 7, 85
6, 29808, Control_c, 5, 7, 95
6, 29856, Control_c, 5, 7, 105
6, 29904, Control_c, 5, 7, 115
6, 30048, Control_c, 5, 7, 85
6, 30048, Note_on_c, 5, 75, 100
6, 30048, Note_on_c, 5, 78, 0
6, 30072, Control_c, 5, 7, 95
6, 30096, Control_c, 5, 7, 105
6, 30120, Control_c, 5, 7, 115
6, 30140, Note_on_c, 5, 75, 0
6, 30144, Control_c, 5, 7, 85
6, 30144, Note_on_c, 5, 76, 110
6, 30168, Control_c, 5, 7, 95
6, 30192, Control_c, 5, 7, 105
6, 30216, Control_c, 5, 7, 115
6, 30236, Note_on_c, 5, 76, 0
6, 30240, Control_c, 5, 7, 85
6, 30240, Note_on_c, 5, 71, 100
6, 30264, Control_c, 5, 7, 95
6, 30288, Control_c, 5, 7, 105
6, 30312, Control_c, 5, 7, 115
6, 30332, Note_on_c, 5, 71, 0
6, 30336, Note_on_c, 5, 64, 110
6, 30336, Control_c, 5, 7, 85
6, 30384, Control_c, 5, 7, 95
6, 30432, Control_c, 5, 7, 105
6, 30480, Control_c, 5, 7, 115
6, 30816, Control_c, 5, 7, 85
6, 30816, Note_on_c, 5, 61, 90
6, 30816, Note_on_c, 5, 64, 0
6, 30840, Control_c, 5, 7, 95
6, 30864, Control_c, 5, 7, 105
6, 30888, Control_c, 5, 7, 115
6, 30908, Note_on_c, 5, 61, 0
6, 30912, Control_c, 5, 7, 85
6, 30912, Note_on_c, 5, 64, 95
6, 30936, Control_c, 5, 7, 95
6, 30960, Control_c, 5, 7, 105
6, 30984, Control_c, 5, 7, 115
6, 31004, Note_on_c, 5, 64, 0
6, 31008, Control_c, 5, 7, 85
6, 31008, Note_on_c, 5, 69, 100
6, 31032, Control_c, 5, 7, 95
6, 31056, Control_c, 5, 7, 105
6, 31080, Control_c, 5, 7, 115
6, 31100, Note_on_c, 5, 69, 0
6, 31104, Control_c, 5, 7, 85
6, 31104, Note_on_c, 5, 73, 110
6, 31128, Control_c, 5, 7, 95
6, 31152, Control_c, 5, 7, 105
6, 31176, Control_c, 5, 7, 115
6, 31296, Control_c, 5, 7, 85
6, 31296, Note_on_c, 5, 69, 100
6, 31296, Note_on_c, 5, 73, 0
6, 31320, Control_c, 5, 7, 95
6, 31344, Control_c, 5, 7, 105
6, 31368, Control_c, 5, 7, 115
6, 31484, Note_on_c, 5, 69, 0
6, 31488, Control_c, 5, 7, 85
6, 31488, Note_on_c, 5, 69, 80
6, 31536, Control_c, 5, 7, 95
6, 31584, Control_c, 5, 7, 105
6, 31632, Control_c, 5, 7, 115
6, 31676, Note_on_c, 5, 69, 0
6, 31680, Control_c, 5, 7, 85
6, 31680, Note_on_c, 5, 73, 95
6, 31704, Control_c, 5, 7, 95
6, 31728, Control_c, 5, 7, 100
6, 31752, Control_c, 5, 7, 115
6, 31776, Control_c, 5, 7, 85
6, 31776, Note_on_c, 5, 74, 105
6, 31776, Note_on_c, 5, 73, 0
6, 31800, Control_c, 5, 7, 95
6, 31824, Control_c, 5, 7, 100
6, 31848, Control_c, 5, 7, 115
6, 31868, Note_on_c, 5, 74, 0
6, 31872, Note_on_c, 5, 62, 80
6, 31872, Control_c, 5, 7, 85
6, 31920, Control_c, 5, 7, 95
6, 31968, Control_c, 5, 7, 100
6, 32016, Control_c, 5, 7, 115
6, 32444, Note_on_c, 5, 62, 0
6, 32448, Control_c, 5, 7, 85
6, 32448, Note_on_c, 5, 64, 95
6, 32472, Control_c, 5, 7, 95
6, 32496, Control_c, 5, 7, 105
6, 32520, Control_c, 5, 7, 115
6, 32636, Note_on_c, 5, 64, 0
6, 32640, Control_c, 5, 7, 85
6, 32640, Note_on_c, 5, 66, 100
6, 32688, Control_c, 5, 7, 95
6, 32736, Control_c, 5, 7, 105
6, 32784, Control_c, 5, 7, 115
6, 33020, Note_on_c, 5, 66, 0
6, 33024, Note_on_c, 5, 67, 100
6, 33024, Control_c, 5, 7, 80
6, 33072, Control_c, 5, 7, 85
6, 33120, Control_c, 5, 7, 90
6, 33168, Control_c, 5, 7, 95
6, 33216, Control_c, 5, 7, 100
6, 33264, Control_c, 5, 7, 105
6, 33312, Control_c, 5, 7, 110
6, 33360, Control_c, 5, 7, 115
6, 33984, Control_c, 5, 7, 85
6, 33984, Note_on_c, 5, 71, 95
6, 33984, Note_on_c, 5, 67, 0
6, 34008, Control_c, 5, 7, 95
6, 34032, Control_c, 5, 7, 105
6, 34056, Control_c, 5, 7, 115
6, 34172, Note_on_c, 5, 71, 0
6, 34176, Note_on_c, 5, 76, 110
6, 34176, Control_c, 5, 7, 85
6, 34224, Control_c, 5, 7, 95
6, 34272, Control_c, 5, 7, 105
6, 34320, Control_c, 5, 7, 115
6, 34656, Note_on_c, 5, 74, 100
6, 34656, Control_c, 5, 7, 85
6, 34656, Note_on_c, 5, 76, 0
6, 34680, Control_c, 5, 7, 95
6, 34704, Control_c, 5, 7, 105
6, 34728, Control_c, 5, 7, 115
6, 34748, Note_on_c, 5, 74, 0
6, 34752, Control_c, 5, 7, 85
6, 34752, Note_on_c, 5, 73, 95
6, 34776, Control_c, 5, 7, 95
6, 34800, Control_c, 5, 7, 105
6, 34824, Control_c, 5, 7, 115
6, 34844, Note_on_c, 5, 73, 0
6, 34848, Control_c, 5, 7, 85
6, 34848, Note_on_c, 5, 71, 90
6, 34872, Control_c, 5, 7, 95
6, 34896, Control_c, 5, 7, 105
6, 34920, Control_c, 5, 7, 115
6, 34940, Note_on_c, 5, 71, 0
6, 34944, Control_c, 5, 7, 85
6, 34944, Note_on_c, 5, 69, 90
6, 34968, Control_c, 5, 7, 95
6, 34992, Control_c, 5, 7, 105
6, 35016, Control_c, 5, 7, 115
6, 35132, Note_on_c, 5, 69, 0
6, 35136, Control_c, 5, 7, 85
6, 35136, Note_on_c, 5, 71, 100
6, 35160, Control_c, 5, 7, 95
6, 35184, Control_c, 5, 7, 105
6, 35208, Control_c, 5, 7, 115
6, 35324, Note_on_c, 5, 71, 0
6, 35328, Control_c, 5, 7, 85
6, 35328, Note_on_c, 5, 69, 90
6, 35376, Control_c, 5, 7, 95
6, 35424, Control_c, 5, 7, 105
6, 35472, Control_c, 5, 7, 115
6, 35704, Note_on_c, 5, 69, 0
6, 35712, Control_c, 5, 7, 85
6, 35712, Note_on_c, 5, 67, 100
6, 35736, Control_c, 5, 7, 95
6, 35760, Control_c, 5, 7, 105
6, 35784, Control_c, 5, 7, 115
6, 35808, Control_c, 5, 7, 85
6, 35808, Note_on_c, 5, 66, 100
6, 35808, Note_on_c, 5, 67, 0
6, 35832, Control_c, 5, 7, 95
6, 35856, Control_c, 5, 7, 105
6, 35880, Control_c, 5, 7, 115
6, 35900, Note_on_c, 5, 66, 0
6, 35904, Note_on_c, 5, 67, 100
6, 35904, Control_c, 5, 7, 85
6, 35928, Control_c, 5, 7, 95
6, 35952, Control_c, 5, 7, 105
6, 35976, Control_c, 5, 7, 115
6, 36096, Control_c, 5, 7, 60
6, 36096, Note_on_c, 5, 66, 100
6, 36096, Note_on_c, 5, 67, 0
6, 36144, Control_c, 5, 7, 65
6, 36192, Control_c, 5, 7, 70
6, 36240, Control_c, 5, 7, 75
6, 36288, Control_c, 5, 7, 80
6, 36336, Control_c, 5, 7, 85
6, 36384, Control_c, 5, 7, 90
6, 36432, Control_c, 5, 7, 95
6, 36480, Control_c, 5, 7, 100
6, 36576, Control_c, 5, 7, 105
6, 36672, Control_c, 5, 7, 110
6, 36768, Control_c, 5, 7, 115
6, 36856, Note_on_c, 5, 66, 0
6, 36864, Note_on_c, 5, 69, 90
6, 36864, Control_c, 5, 7, 60
6, 36960, Control_c, 5, 7, 70
6, 37056, Control_c, 5, 7, 80
6, 37152, Control_c, 5, 7, 90
6, 37248, Control_c, 5, 7, 100
6, 37344, Control_c, 5, 7, 110
6, 37440, Control_c, 5, 7, 115
6, 37536, Control_c, 5, 7, 120
6, 37728, Control_c, 5, 7, 85
6, 37728, Note_on_c, 5, 71, 95
6, 37728, Note_on_c, 5, 69, 0
6, 37752, Control_c, 5, 7, 95
6, 37776, Control_c, 5, 7, 100
6, 37800, Control_c, 5, 7, 115
6, 37824, Control_c, 5, 7, 85
6, 37824, Note_on_c, 5, 72, 100
6, 37824, Note_on_c, 5, 71, 0
6, 37872, Control_c, 5, 7, 95
6, 37920, Control_c, 5, 7, 100
6, 38016, Control_c, 5, 7, 115
6, 38112, Control_c, 5, 7, 85
6, 38112, Note_on_c, 5, 71, 90
6, 38112, Note_on_c, 5, 72, 0
6, 38136, Control_c, 5, 7, 95
6, 38160, Control_c, 5, 7, 100
6, 38184, Control_c, 5, 7, 115
6, 38208, Control_c, 5, 7, 85
6, 38208, Note_on_c, 5, 69, 80
6, 38208, Note_on_c, 5, 71, 0
6, 38232, Control_c, 5, 7, 95
6, 38256, Control_c, 5, 7, 100
6, 38280, Control_c, 5, 7, 115
6, 38304, Note_on_c, 5, 67, 80
6, 38304, Control_c, 5, 7, 85
6, 38304, Note_on_c, 5, 69, 0
6, 38328, Control_c, 5, 7, 95
6, 38352, Control_c, 5, 7, 105
6, 38376, Control_c, 5, 7, 115
6, 38400, Control_c, 5, 7, 70
6, 38400, Note_on_c, 5, 66, 100
6, 38400, Note_on_c, 5, 67, 0
6, 38496, Control_c, 5, 7, 80
6, 38592, Control_c, 5, 7, 90
6, 38688, Control_c, 5, 7, 100
6, 38784, Control_c, 5, 7, 110
6, 38880, Control_c, 5, 7, 115
6, 38968, Note_on_c, 5, 66, 0
6, 38976, Note_on_c, 5, 75, 110
6, 38976, Control_c, 5, 7, 60
6, 39000, Control_c, 5, 7, 70
6, 39024, Control_c, 5, 7, 80
6, 39048, Control_c, 5, 7, 90
6, 39072, Control_c, 5, 7, 105
6, 39120, Control_c, 5, 7, 115
6, 39168, Note_on_c, 5, 76, 100
6, 39168, Control_c, 5, 7, 60
6, 39168, Note_on_c, 5, 75, 0
6, 39264, Control_c, 5, 7, 70
6, 39360, Control_c, 5, 7, 80
6, 39456, Control_c, 5, 7, 90
6, 39552, Control_c, 5, 7, 100
6, 39648, Control_c, 5, 7, 110
6, 39744, Control_c, 5, 7, 115
6, 40800, Control_c, 5, 7, 85
6, 40800, Note_on_c, 5, 74, 90
6, 40800, Note_on_c, 5, 76, 0
6, 40824, Control_c, 5, 7, 95
6, 40848, Control_c, 5, 7, 105
6, 40872, Control_c, 5, 7, 115
6, 40896, Control_c, 5, 7, 85
6, 40896, Note_on_c, 5, 73, 85
6, 40896, Note_on_c, 5, 74, 0
6, 40920, Control_c, 5, 7, 95
6, 40944, Control_c, 5, 7, 105
6, 40968, Control_c, 5, 7, 115
6, 40992, Control_c, 5, 7, 85
6, 40992, Note_on_c, 5, 71, 80
6, 40992, Note_on_c, 5, 73, 0
6, 41016, Control_c, 5, 7, 95
6, 41040, Control_c, 5, 7, 105
6, 41064, Control_c, 5, 7, 115
6, 41088, Control_c, 5, 7, 85
6, 41088, Note_on_c, 5, 70, 80
6, 41088, Note_on_c, 5, 71, 0
6, 41112, Control_c, 5, 7, 95
6, 41136, Control_c, 5, 7, 105
6, 41160, Control_c, 5, 7, 115
6, 41184, Control_c, 5, 7, 85
6, 41184, Note_on_c, 5, 71, 80
6, 41184, Note_on_c, 5, 70, 0
6, 41208, Control_c, 5, 7, 95
6, 41232, Control_c, 5, 7, 105
6, 41256, Control_c, 5, 7, 115
6, 41280, Note_on_c, 5, 73, 80
6, 41280, Control_c, 5, 7, 85
6, 41280, Note_on_c, 5, 71, 0
6, 41328, Control_c, 5, 7, 95
6, 41376, Control_c, 5, 7, 105
6, 41424, Control_c, 5, 7, 115
6, 41472, Control_c, 5, 7, 85
6, 41472, Note_on_c, 5, 71, 90
6, 41472, Note_on_c, 5, 73, 0
6, 41520, Control_c, 5, 7, 95
6, 41568, Control_c, 5, 7, 105
6, 41616, Control_c, 5, 7, 115
6, 41656, Note_on_c, 5, 71, 0
6, 41664, Control_c, 5, 7, 85
6, 41664, Note_on_c, 5, 71, 90
6, 41712, Control_c, 5, 7, 95
6, 41760, Control_c, 5, 7, 105
6, 41808, Control_c, 5, 7, 115
6, 41848, Note_on_c, 5, 71, 0
6, 41856, Control_c, 5, 7, 85
6, 41856, Note_on_c, 5, 71, 100
6, 41904, Control_c, 5, 7, 95
6, 41952, Control_c, 5, 7, 105
6, 42000, Control_c, 5, 7, 115
6, 42040, Note_on_c, 5, 71, 0
6, 42048, Control_c, 5, 7, 85
6, 42048, Note_on_c, 5, 70, 90
6, 42096, Control_c, 5, 7, 95
6, 42144, Control_c, 5, 7, 105
6, 42192, Control_c, 5, 7, 115
6, 42236, Note_on_c, 5, 70, 0
6, 42240, Control_c, 5, 7, 85
6, 42240, Control_c, 5, 7, 60
6, 42240, Note_on_c, 5, 66, 100
6, 42288, Control_c, 5, 7, 65
6, 42336, Control_c, 5, 7, 70
6, 42384, Control_c, 5, 7, 75
6, 42432, Control_c, 5, 7, 80
6, 42480, Control_c, 5, 7, 85
6, 42528, Control_c, 5, 7, 90
6, 42576, Control_c, 5, 7, 95
6, 42624, Control_c, 5, 7, 100
6, 42720, Control_c, 5, 7, 105
6, 42816, Control_c, 5, 7, 110
6, 42912, Control_c, 5, 7, 115
6, 43000, Note_on_c, 5, 66, 0
6, 43008, Control_c, 5, 7, 85
6, 43008, Note_on_c, 5, 64, 90
6, 43056, Control_c, 5, 7, 95
6, 43104, Control_c, 5, 7, 105
6, 43152, Control_c, 5, 7, 115
6, 43384, Note_on_c, 5, 64, 0
6, 43392, Control_c, 5, 7, 85
6, 43392, Note_on_c, 5, 66, 100
6, 43440, Control_c, 5, 7, 95
6, 43488, Control_c, 5, 7, 105
6, 43536, Control_c, 5, 7, 115
6, 43768, Note_on_c, 5, 66, 0
6, 43776, Control_c, 5, 7, 85
6, 43776, Note_on_c, 5, 59, 80
6, 43824, Control_c, 5, 7, 95
6, 43872, Control_c, 5, 7, 105
6, 43920, Control_c, 5, 7, 115
6, 43964, Note_on_c, 5, 59, 0
6, 43968, Control_c, 5, 7, 85
6, 43968, Note_on_c, 5, 64, 90
6, 43992, Control_c, 5, 7, 95
6, 44016, Control_c, 5, 7, 100
6, 44040, Control_c, 5, 7, 115
6, 44064, Control_c, 5, 7, 85
6, 44064, Note_on_c, 5, 66, 100
6, 44064, Note_on_c, 5, 64, 0
6, 44088, Control_c, 5, 7, 95
6, 44112, Control_c, 5, 7, 100
6, 44136, Control_c, 5, 7, 115
6, 44156, Note_on_c, 5, 66, 0
6, 44160, Control_c, 5, 7, 85
6, 44160, Note_on_c, 5, 68, 100
6, 44184, Control_c, 5, 7, 95
6, 44208, Control_c, 5, 7, 100
6, 44232, Control_c, 5, 7, 115
6, 44252, Note_on_c, 5, 68, 0
6, 44256, Control_c, 5, 7, 85
6, 44256, Note_on_c, 5, 69, 100
6, 44280, Control_c, 5, 7, 95
6, 44304, Control_c, 5, 7, 105
6, 44328, Control_c, 5, 7, 115
6, 44348, Note_on_c, 5, 69, 0
6, 44352, Note_on_c, 5, 71, 110
6, 44352, Control_c, 5, 7, 85
6, 44400, Control_c, 5, 7, 95
6, 44448, Control_c, 5, 7, 105
6, 44496, Control_c, 5, 7, 115
6, 44732, Note_on_c, 5, 71, 0
6, 44736, Control_c, 5, 7, 85
6, 44736, Note_on_c, 5, 69, 110
6, 44784, Control_c, 5, 7, 95
6, 44832, Control_c, 5, 7, 105
6, 44880, Control_c, 5, 7, 115
6, 45112, Note_on_c, 5, 69, 0
6, 45120, Control_c, 5, 7, 85
6, 45120, Note_on_c, 5, 68, 110
6, 45168, Control_c, 5, 7, 95
6, 45216, Control_c, 5, 7, 105
6, 45264, Control_c, 5, 7, 115
6, 45308, Note_on_c, 5, 68, 0
6, 45312, Note_on_c, 5, 69, 100
6, 45312, Control_c, 5, 7, 60
6, 45408, Control_c, 5, 7, 70
6, 45504, Control_c, 5, 7, 80
6, 45600, Control_c, 5, 7, 90
6, 45696, Control_c, 5, 7, 100
6, 45792, Control_c, 5, 7, 110
6, 45888, Control_c, 5, 7, 115
6, 46272, Control_c, 5, 7, 85
6, 46272, Note_on_c, 5, 71, 100
6, 46272, Note_on_c, 5, 69, 0
6, 46296, Control_c, 5, 7, 95
6, 46320, Control_c, 5, 7, 105
6, 46344, Control_c, 5, 7, 115
6, 46364, Note_on_c, 5, 71, 0
6, 46368, Control_c, 5, 7, 85
6, 46368, Note_on_c, 5, 72, 110
6, 46392, Control_c, 5, 7, 95
6, 46416, Control_c, 5, 7, 105
6, 46440, Control_c, 5, 7, 115
6, 46460, Note_on_c, 5, 72, 0
6, 46464, Control_c, 5, 7, 85
6, 46464, Note_on_c, 5, 71, 100
6, 46488, Control_c, 5, 7, 95
6, 46512, Control_c, 5, 7, 105
6, 46536, Control_c, 5, 7, 115
6, 46556, Note_on_c, 5, 71, 0
6, 46560, Control_c, 5, 7, 85
6, 46560, Note_on_c, 5, 73, 110
6, 46584, Control_c, 5, 7, 95
6, 46608, Control_c, 5, 7, 105
6, 46632, Control_c, 5, 7, 115
6, 46652, Note_on_c, 5, 73, 0
6, 46656, Note_on_c, 5, 74, 110
6, 46656, Control_c, 5, 7, 85
6, 46704, Control_c, 5, 7, 95
6, 46752, Control_c, 5, 7, 105
6, 46800, Control_c, 5, 7, 115
6, 47036, Note_on_c, 5, 74, 0
6, 47040, Control_c, 5, 7, 85
6, 47040, Note_on_c, 5, 73, 100
6, 47064, Control_c, 5, 7, 95
6, 47088, Control_c, 5, 7, 105
6, 47112, Control_c, 5, 7, 115
6, 47132, Note_on_c, 5, 73, 0
6, 47136, Control_c, 5, 7, 85
6, 47136, Note_on_c, 5, 71, 110
6, 47160, Control_c, 5, 7, 95
6, 47184, Control_c, 5, 7, 105
6, 47208, Control_c, 5, 7, 115
6, 47228, Note_on_c, 5, 71, 0
6, 47232, Control_c, 5, 7, 85
6, 47232, Note_on_c, 5, 73, 100
6, 47256, Control_c, 5, 7, 95
6, 47280, Control_c, 5, 7, 105
6, 47304, Control_c, 5, 7, 115
6, 47324, Note_on_c, 5, 73, 0
6, 47328, Control_c, 5, 7, 85
6, 47328, Note_on_c, 5, 75, 110
6, 47352, Control_c, 5, 7, 95
6, 47376, Control_c, 5, 7, 105
6, 47400, Control_c, 5, 7, 115
6, 47420, Note_on_c, 5, 75, 0
6, 47424, Note_on_c, 5, 76, 110
6, 47424, Control_c, 5, 7, 85
6, 47472, Control_c, 5, 7, 95
6, 47520, Control_c, 5, 7, 105
6, 47568, Control_c, 5, 7, 115
6, 47804, Note_on_c, 5, 76, 0
6, 47808, Control_c, 5, 7, 85
6, 47808, Note_on_c, 5, 75, 100
6, 47832, Control_c, 5, 7, 95
6, 47856, Control_c, 5, 7, 105
6, 47880, Control_c, 5, 7, 115
6, 47900, Note_on_c, 5, 75, 0
6, 47904, Control_c, 5, 7, 85
6, 47904, Note_on_c, 5, 73, 110
6, 47928, Control_c, 5, 7, 95
6, 47952, Control_c, 5, 7, 105
6, 47976, Control_c, 5, 7, 115
6, 47996, Note_on_c, 5, 73, 0
6, 48000, Control_c, 5, 7, 85
6, 48000, Note_on_c, 5, 75, 100
6, 48024, Control_c, 5, 7, 95
6, 48048, Control_c, 5, 7, 105
6, 48072, Control_c, 5, 7, 115
6, 48092, Note_on_c, 5, 75, 0
6, 48096, Control_c, 5, 7, 85
6, 48096, Note_on_c, 5, 76, 110
6, 48120, Control_c, 5, 7, 95
6, 48144, Control_c, 5, 7, 105
6, 48168, Control_c, 5, 7, 115
6, 48188, Note_on_c, 5, 76, 0
6, 48192, Note_on_c, 5, 78, 110
6, 48192, Control_c, 5, 7, 85
6, 48240, Control_c, 5, 7, 95
6, 48288, Control_c, 5, 7, 105
6, 48336, Control_c, 5, 7, 115
6, 48480, Control_c, 5, 7, 85
6, 48480, Note_on_c, 5, 75, 100
6, 48480, Note_on_c, 5, 78, 0
6, 48504, Control_c, 5, 7, 95
6, 48528, Control_c, 5, 7, 105
6, 48552, Control_c, 5, 7, 115
6, 48572, Note_on_c, 5, 75, 0
6, 48576, Control_c, 5, 7, 85
6, 48576, Note_on_c, 5, 76, 110
6, 48600, Control_c, 5, 7, 95
6, 48624, Control_c, 5, 7, 105
6, 48648, Control_c, 5, 7, 115
6, 48668, Note_on_c, 5, 76, 0
6, 48672, Control_c, 5, 7, 85
6, 48672, Note_on_c, 5, 71, 100
6, 48696, Control_c, 5, 7, 95
6, 48720, Control_c, 5, 7, 105
6, 48744, Control_c, 5, 7, 115
6, 48764, Note_on_c, 5, 71, 0
6, 48768, Note_on_c, 5, 64, 110
6, 48768, Control_c, 5, 7, 85
6, 48816, Control_c, 5, 7, 95
6, 48864, Control_c, 5, 7, 105
6, 48912, Control_c, 5, 7, 115
6, 49248, Control_c, 5, 7, 85
6, 49248, Note_on_c, 5, 61, 90
6, 49248, Note_on_c, 5, 64, 0
6, 49272, Control_c, 5, 7, 95
6, 49296, Control_c, 5, 7, 105
6, 49320, Control_c, 5, 7, 115
6, 49340, Note_on_c, 5, 61, 0
6, 49344, Control_c, 5, 7, 85
6, 49344, Note_on_c, 5, 64, 95
6, 49368, Control_c, 5, 7, 95
6, 49392, Control_c, 5, 7, 105
6, 49416, Control_c, 5, 7, 115
6, 49436, Note_on_c, 5, 64, 0
6, 49440, Control_c, 5, 7, 85
6, 49440, Note_on_c, 5, 69, 100
6, 49464, Control_c, 5, 7, 95
6, 49488, Control_c, 5, 7, 105
6, 49512, Control_c, 5, 7, 115
6, 49532, Note_on_c, 5, 69, 0
6, 49536, Control_c, 5, 7, 85
6, 49536, Note_on_c, 5, 73, 110
6, 49560, Control_c, 5, 7, 95
6, 49584, Control_c, 5, 7, 105
6, 49608, Control_c, 5, 7, 115
6, 49728, Control_c, 5, 7, 85
6, 49728, Note_on_c, 5, 69, 100
6, 49728, Note_on_c, 5, 73, 0
6, 49752, Control_c, 5, 7, 95
6, 49776, Control_c, 5, 7, 105
6, 49800, Control_c, 5, 7, 115
6, 49916, Note_on_c, 5, 69, 0
6, 49920, Control_c, 5, 7, 85
6, 49920, Note_on_c, 5, 69, 80
6, 49968, Control_c, 5, 7, 95
6, 50016, Control_c, 5, 7, 105
6, 50064, Control_c, 5, 7, 115
6, 50108, Note_on_c, 5, 69, 0
6, 50112, Control_c, 5, 7, 85
6, 50112, Note_on_c, 5, 73, 95
6, 50136, Control_c, 5, 7, 95
6, 50160, Control_c, 5, 7, 100
6, 50184, Control_c, 5, 7, 115
6, 50208, Control_c, 5, 7, 85
6, 50208, Note_on_c, 5, 74, 105
6, 50208, Note_on_c, 5, 73, 0
6, 50232, Control_c, 5, 7, 95
6, 50256, Control_c, 5, 7, 100
6, 50280, Control_c, 5, 7, 115
6, 50300, Note_on_c, 5, 74, 0
6, 50304, Note_on_c, 5, 62, 80
6, 50304, Control_c, 5, 7, 85
6, 50352, Control_c, 5, 7, 95
6, 50400, Control_c, 5, 7, 100
6, 50448, Control_c, 5, 7, 115
6, 50876, Note_on_c, 5, 62, 0
6, 50880, Control_c, 5, 7, 85
6, 50880, Note_on_c, 5, 64, 95
6, 50904, Control_c, 5, 7, 95
6, 50928, Control_c, 5, 7, 105
6, 50952, Control_c, 5, 7, 115
6, 51068, Note_on_c, 5, 64, 0
6, 51072, Control_c, 5, 7, 85
6, 51072, Note_on_c, 5, 66, 100
6, 51120, Control_c, 5, 7, 95
6, 51168, Control_c, 5, 7, 105
6, 51216, Control_c, 5, 7, 115
6, 51452, Note_on_c, 5, 66, 0
6, 51456, Note_on_c, 5, 67, 100
6, 51456, Control_c, 5, 7, 80
6, 51504, Control_c, 5, 7, 85
6, 51552, Control_c, 5, 7, 90
6, 51600, Control_c, 5, 7, 95
6, 51648, Control_c, 5, 7, 100
6, 51696, Control_c, 5, 7, 105
6, 51744, Control_c, 5, 7, 110
6, 51792, Control_c, 5, 7, 115
6, 52416, Control_c, 5, 7, 85
6, 52416, Note_on_c, 5, 71, 95
6, 52416, Note_on_c, 5, 67, 0
6, 52440, Control_c, 5, 7, 95
6, 52464, Control_c, 5, 7, 105
6, 52488, Control_c, 5, 7, 115
6, 52604, Note_on_c, 5, 71, 0
6, 52608, Note_on_c, 5, 76, 110
6, 52608, Control_c, 5, 7, 85
6, 52656, Control_c, 5, 7, 95
6, 52704, Control_c, 5, 7, 105
6, 52752, Control_c, 5, 7, 115
6, 53088, Note_on_c, 5, 74, 100
6, 53088, Control_c, 5, 7, 85
6, 53088, Note_on_c, 5, 76, 0
6, 53112, Control_c, 5, 7, 95
6, 53136, Control_c, 5, 7, 105
6, 53160, Control_c, 5, 7, 115
6, 53180, Note_on_c, 5, 74, 0
6, 53184, Control_c, 5, 7, 85
6, 53184, Note_on_c, 5, 73, 95
6, 53208, Control_c, 5, 7, 95
6, 53232, Control_c, 5, 7, 105
6, 53256, Control_c, 5, 7, 115
6, 53276, Note_on_c, 5, 73, 0
6, 53280, Control_c, 5, 7, 85
6, 53280, Note_on_c, 5, 71, 90
6, 53304, Control_c, 5, 7, 95
6, 53328, Control_c, 5, 7, 105
6, 53352, Control_c, 5, 7, 115
6, 53372, Note_on_c, 5, 71, 0
6, 53376, Control_c, 5, 7, 85
6, 53376, Note_on_c, 5, 69, 90
6, 53400, Control_c, 5, 7, 95
6, 53424, Control_c, 5, 7, 105
6, 53448, Control_c, 5, 7, 115
6, 53564, Note_on_c, 5, 69, 0
6, 53568, Control_c, 5, 7, 85
6, 53568, Note_on_c, 5, 71, 100
6, 53592, Control_c, 5, 7, 95
6, 53616, Control_c, 5, 7, 105
6, 53640, Control_c, 5, 7, 115
6, 53756, Note_on_c, 5, 71, 0
6, 53760, Control_c, 5, 7, 85
6, 53760, Note_on_c, 5, 69, 90
6, 53808, Control_c, 5, 7, 95
6, 53856, Control_c, 5, 7, 105
6, 53904, Control_c, 5, 7, 115
6, 54136, Note_on_c, 5, 69, 0
6, 54144, Control_c, 5, 7, 85
6, 54144, Note_on_c, 5, 67, 100
6, 54168, Control_c, 5, 7, 95
6, 54192, Control_c, 5, 7, 105
6, 54216, Control_c, 5, 7, 115
6, 54240, Control_c, 5, 7, 85
6, 54240, Note_on_c, 5, 66, 100
6, 54240, Note_on_c, 5, 67, 0
6, 54264, Control_c, 5, 7, 95
6, 54288, Control_c, 5, 7, 105
6, 54312, Control_c, 5, 7, 115
6, 54332, Note_on_c, 5, 66, 0
6, 54336, Note_on_c, 5, 67, 100
6, 54336, Control_c, 5, 7, 85
6, 54360, Control_c, 5, 7, 95
6, 54384, Control_c, 5, 7, 105
6, 54408, Control_c, 5, 7, 115
6, 54528, Note_on_c, 5, 66, 100
6, 54528, Control_c, 5, 7, 60
6, 54528, Note_on_c, 5, 67, 0
6, 54576, Control_c, 5, 7, 65
6, 54624, Control_c, 5, 7, 70
6, 54672, Control_c, 5, 7, 75
6, 54720, Control_c, 5, 7, 80
6, 54768, Control_c, 5, 7, 85
6, 54816, Control_c, 5, 7, 90
6, 54864, Control_c, 5, 7, 95
6, 54912, Control_c, 5, 7, 100
6, 55008, Control_c, 5, 7, 105
6, 55104, Control_c, 5, 7, 110
6, 55200, Control_c, 5, 7, 116
6, 55344, Control_c, 5, 7, 115
6, 55360, Control_c, 5, 7, 114
6, 55392, Control_c, 5, 7, 113
6, 55408, Control_c, 5, 7, 112
6, 55440, Control_c, 5, 7, 110
6, 55472, Control_c, 5, 7, 108
6, 55488, Control_c, 5, 7, 107
6, 55504, Control_c, 5, 7, 99
6, 55520, Control_c, 5, 7, 98
6, 55536, Control_c, 5, 7, 96
6, 55552, Control_c, 5, 7, 92
6, 55568, Control_c, 5, 7, 86
6, 55584, Control_c, 5, 7, 82
6, 55616, Control_c, 5, 7, 72
6, 55632, Control_c, 5, 7, 64
6, 55648, Control_c, 5, 7, 56
6, 55664, Control_c, 5, 7, 52
6, 55680, Control_c, 5, 7, 40
6, 55696, Control_c, 5, 7, 34
6, 55712, Control_c, 5, 7, 33
6, 55728, Control_c, 5, 7, 31
6, 55744, Control_c, 5, 7, 28
6, 55760, Control_c, 5, 7, 25
6, 55776, Control_c, 5, 7, 23
6, 55792, Control_c, 5, 7, 22
6, 55808, Control_c, 5, 7, 18
6, 55824, Control_c, 5, 7, 16
6, 55840, Control_c, 5, 7, 13
6, 55856, Control_c, 5, 7, 12
6, 55872, Control_c, 5, 7, 10
6, 55888, Control_c, 5, 7, 7
6, 55904, Control_c, 5, 7, 5
6, 56056, Note_on_c, 5, 66, 0
6, 56056, End_track
7, 0, Start_track
7, 0, MIDI_port, 0
7, 0, Title_t, "Cello"
7, 0, Program_c, 6, 42
7, 0, Control_c, 6, 7, 100
7, 0, Control_c, 6, 10, 70
7, 0, Control_c, 6, 121, 0
7, 0, Control_c, 6, 0, 0
7, 0, Program_c, 6, 42
7, 0, Control_c, 6, 10, 70
7, 0, Control_c, 6, 7, 30
7, 0, Control_c, 6, 91, 110
7, 0, Control_c, 6, 93, 20
7, 0, Note_on_c, 6, 69, 120
7, 0, Pitch_bend_c, 6, 8192
7, 0, Control_c, 6, 64, 0
7, 0, Control_c, 6, 11, 105
7, 48, Control_c, 6, 7, 20
7, 96, Control_c, 6, 7, 22
7, 144, Control_c, 6, 7, 24
7, 192, Control_c, 6, 7, 26
7, 240, Control_c, 6, 7, 28
7, 288, Control_c, 6, 7, 30
7, 336, Control_c, 6, 7, 32
7, 384, Control_c, 6, 7, 34
7, 432, Control_c, 6, 7, 36
7, 480, Control_c, 6, 7, 38
7, 528, Control_c, 6, 7, 40
7, 576, Control_c, 6, 7, 44
7, 624, Control_c, 6, 7, 48
7, 672, Control_c, 6, 7, 52
7, 720, Control_c, 6, 7, 56
7, 768, Note_on_c, 6, 71, 100
7, 768, Control_c, 6, 7, 60
7, 768, Note_on_c, 6, 69, 0
7, 816, Control_c, 6, 7, 64
7, 864, Control_c, 6, 7, 68
7, 912, Control_c, 6, 7, 72
7, 960, Control_c, 6, 7, 76
7, 1008, Control_c, 6, 7, 80
7, 1056, Control_c, 6, 7, 84
7, 1104, Control_c, 6, 7, 88
7, 1152, Control_c, 6, 7, 92
7, 1200, Control_c, 6, 7, 96
7, 1248, Control_c, 6, 7, 100
7, 1296, Control_c, 6, 7, 104
7, 1344, Control_c, 6, 7, 108
7, 1392, Control_c, 6, 7, 112
7, 1440, Control_c, 6, 7, 116
7, 1488, Control_c, 6, 7, 110
7, 1536, Control_c, 6, 7, 85
7, 1536, Note_on_c, 6, 59, 100
7, 1536, Note_on_c, 6, 71, 0
7, 1632, Control_c, 6, 7, 95
7, 1728, Control_c, 6, 7, 105
7, 1824, Control_c, 6, 7, 115
7, 1920, Note_on_c, 6, 64, 90
7, 1920, Control_c, 6, 11, 110
7, 1920, Control_c, 6, 7, 85
7, 1920, Note_on_c, 6, 59, 0
7, 2016, Control_c, 6, 7, 95
7, 2112, Control_c, 6, 7, 100
7, 2208, Control_c, 6, 7, 115
7, 2304, Control_c, 6, 7, 85
7, 2400, Control_c, 6, 7, 90
7, 2496, Control_c, 6, 7, 95
7, 2592, Control_c, 6, 7, 100
7, 2688, Control_c, 6, 7, 105
7, 2784, Control_c, 6, 7, 110
7, 2880, Control_c, 6, 7, 115
7, 2976, Control_c, 6, 7, 120
7, 3264, Control_c, 6, 7, 85
7, 3264, Note_on_c, 6, 63, 100
7, 3264, Note_on_c, 6, 64, 0
7, 3312, Control_c, 6, 7, 95
7, 3360, Control_c, 6, 7, 100
7, 3408, Control_c, 6, 7, 115
7, 3452, Note_on_c, 6, 63, 0
7, 3456, Control_c, 6, 7, 85
7, 3456, Note_on_c, 6, 63, 100
7, 3504, Control_c, 6, 7, 95
7, 3552, Control_c, 6, 7, 100
7, 3600, Control_c, 6, 7, 115
7, 3648, Note_on_c, 6, 64, 100
7, 3648, Control_c, 6, 7, 85
7, 3648, Note_on_c, 6, 63, 0
7, 3696, Control_c, 6, 7, 95
7, 3744, Control_c, 6, 7, 100
7, 3792, Control_c, 6, 7, 115
7, 3840, Control_c, 6, 7, 85
7, 3840, Note_on_c, 6, 66, 80
7, 3840, Note_on_c, 6, 64, 0
7, 3888, Control_c, 6, 7, 95
7, 3936, Control_c, 6, 7, 105
7, 3984, Control_c, 6, 7, 115
7, 4032, Control_c, 6, 7, 85
7, 4032, Note_on_c, 6, 66, 0
7, 4608, Control_c, 6, 7, 85
7, 4608, Note_on_c, 6, 64, 100
7, 4656, Control_c, 6, 7, 95
7, 4704, Control_c, 6, 7, 100
7, 4752, Control_c, 6, 7, 115
7, 4800, Control_c, 6, 7, 85
7, 4800, Note_on_c, 6, 59, 100
7, 4800, Note_on_c, 6, 64, 0
7, 4848, Control_c, 6, 7, 95
7, 4896, Control_c, 6, 7, 100
7, 4944, Control_c, 6, 7, 115
7, 5184, Control_c, 6, 7, 85
7, 5184, Note_on_c, 6, 64, 100
7, 5184, Note_on_c, 6, 59, 0
7, 5232, Control_c, 6, 7, 95
7, 5280, Control_c, 6, 7, 100
7, 5328, Control_c, 6, 7, 115
7, 5372, Note_on_c, 6, 64, 0
7, 5376, Control_c, 6, 7, 85
7, 5376, Note_on_c, 6, 64, 100
7, 5424, Control_c, 6, 7, 95
7, 5472, Control_c, 6, 7, 100
7, 5520, Control_c, 6, 7, 115
7, 5564, Note_on_c, 6, 64, 0
7, 5568, Control_c, 6, 7, 85
7, 6144, Control_c, 6, 7, 60
7, 6144, Note_on_c, 6, 62, 100
7, 6168, Control_c, 6, 7, 70
7, 6192, Control_c, 6, 7, 80
7, 6216, Control_c, 6, 7, 90
7, 6264, Control_c, 6, 7, 95
7, 6312, Control_c, 6, 7, 105
7, 6408, Control_c, 6, 7, 115
7, 6712, Note_on_c, 6, 62, 0
7, 6720, Note_on_c, 6, 64, 90
7, 6720, Control_c, 6, 7, 85
7, 6768, Control_c, 6, 7, 95
7, 6816, Control_c, 6, 7, 100
7, 6864, Control_c, 6, 7, 115
7, 6912, Control_c, 6, 7, 85
7, 6912, Note_on_c, 6, 66, 100
7, 6912, Note_on_c, 6, 64, 0
7, 6960, Control_c, 6, 7, 95
7, 7008, Control_c, 6, 7, 100
7, 7056, Control_c, 6, 7, 115
7, 7104, Control_c, 6, 7, 85
7, 7104, Note_on_c, 6, 62, 100
7, 7104, Note_on_c, 6, 66, 0
7, 7152, Control_c, 6, 7, 95
7, 7200, Control_c, 6, 7, 100
7, 7248, Control_c, 6, 7, 115
7, 7292, Note_on_c, 6, 62, 0
7, 7296, Control_c, 6, 7, 85
7, 7296, Note_on_c, 6, 71, 100
7, 7344, Control_c, 6, 7, 95
7, 7392, Control_c, 6, 7, 100
7, 7440, Control_c, 6, 7, 115
7, 7488, Note_on_c, 6, 64, 100
7, 7488, Control_c, 6, 7, 85
7, 7488, Note_on_c, 6, 71, 0
7, 7536, Control_c, 6, 7, 95
7, 7584, Control_c, 6, 7, 105
7, 7632, Control_c, 6, 7, 115
7, 7872, Control_c, 6, 7, 85
7, 7872, Note_on_c, 6, 66, 100
7, 7872, Note_on_c, 6, 64, 0
7, 7920, Control_c, 6, 7, 95
7, 7968, Control_c, 6, 7, 100
7, 8016, Control_c, 6, 7, 115
7, 8060, Note_on_c, 6, 66, 0
7, 8064, Control_c, 6, 7, 85
7, 8064, Note_on_c, 6, 71, 100
7, 8112, Control_c, 6, 7, 95
7, 8160, Control_c, 6, 7, 100
7, 8208, Control_c, 6, 7, 115
7, 8256, Note_on_c, 6, 64, 100
7, 8256, Control_c, 6, 7, 85
7, 8256, Note_on_c, 6, 71, 0
7, 8304, Control_c, 6, 7, 95
7, 8352, Control_c, 6, 7, 105
7, 8400, Control_c, 6, 7, 115
7, 8448, Note_on_c, 6, 61, 100
7, 8448, Control_c, 6, 7, 60
7, 8448, Note_on_c, 6, 64, 0
7, 8496, Control_c, 6, 7, 65
7, 8544, Control_c, 6, 7, 70
7, 8592, Control_c, 6, 7, 75
7, 8640, Control_c, 6, 7, 80
7, 8688, Control_c, 6, 7, 85
7, 8736, Control_c, 6, 7, 90
7, 8784, Control_c, 6, 7, 95
7, 8832, Control_c, 6, 7, 100
7, 8928, Control_c, 6, 7, 105
7, 9024, Control_c, 6, 7, 110
7, 9120, Control_c, 6, 7, 115
7, 9216, Note_on_c, 6, 69, 120
7, 9216, Control_c, 6, 7, 20
7, 9216, Control_c, 6, 11, 105
7, 9216, Note_on_c, 6, 61, 0
7, 9264, Control_c, 6, 7, 20
7, 9312, Control_c, 6, 7, 22
7, 9360, Control_c, 6, 7, 24
7, 9408, Control_c, 6, 7, 26
7, 9456, Control_c, 6, 7, 28
7, 9504, Control_c, 6, 7, 30
7, 9552, Control_c, 6, 7, 32
7, 9600, Control_c, 6, 7, 34
7, 9648, Control_c, 6, 7, 36
7, 9696, Control_c, 6, 7, 38
7, 9744, Control_c, 6, 7, 40
7, 9792, Control_c, 6, 7, 44
7, 9840, Control_c, 6, 7, 48
7, 9888, Control_c, 6, 7, 52
7, 9936, Control_c, 6, 7, 56
7, 9984, Note_on_c, 6, 71, 100
7, 9984, Control_c, 6, 7, 60
7, 9984, Note_on_c, 6, 69, 0
7, 10032, Control_c, 6, 7, 64
7, 10080, Control_c, 6, 7, 68
7, 10128, Control_c, 6, 7, 72
7, 10176, Control_c, 6, 7, 76
7, 10224, Control_c, 6, 7, 80
7, 10272, Control_c, 6, 7, 84
7, 10320, Control_c, 6, 7, 88
7, 10368, Control_c, 6, 7, 92
7, 10416, Control_c, 6, 7, 96
7, 10464, Control_c, 6, 7, 100
7, 10512, Control_c, 6, 7, 104
7, 10560, Control_c, 6, 7, 108
7, 10608, Control_c, 6, 7, 112
7, 10656, Control_c, 6, 7, 116
7, 10704, Control_c, 6, 7, 110
7, 10752, Control_c, 6, 7, 85
7, 10752, Note_on_c, 6, 59, 100
7, 10752, Note_on_c, 6, 71, 0
7, 10848, Control_c, 6, 7, 95
7, 10944, Control_c, 6, 7, 105
7, 11040, Control_c, 6, 7, 115
7, 11136, Note_on_c, 6, 64, 90
7, 11136, Control_c, 6, 11, 110
7, 11136, Control_c, 6, 7, 85
7, 11136, Note_on_c, 6, 59, 0
7, 11232, Control_c, 6, 7, 95
7, 11328, Control_c, 6, 7, 100
7, 11424, Control_c, 6, 7, 115
7, 11520, Control_c, 6, 7, 85
7, 11616, Control_c, 6, 7, 90
7, 11712, Control_c, 6, 7, 95
7, 11808, Control_c, 6, 7, 100
7, 11904, Control_c, 6, 7, 105
7, 12000, Control_c, 6, 7, 110
7, 12096, Control_c, 6, 7, 115
7, 12192, Control_c, 6, 7, 120
7, 12480, Control_c, 6, 7, 85
7, 12480, Note_on_c, 6, 63, 100
7, 12480, Note_on_c, 6, 64, 0
7, 12528, Control_c, 6, 7, 95
7, 12576, Control_c, 6, 7, 100
7, 12624, Control_c, 6, 7, 115
7, 12668, Note_on_c, 6, 63, 0
7, 12672, Control_c, 6, 7, 85
7, 12672, Note_on_c, 6, 63, 100
7, 12720, Control_c, 6, 7, 95
7, 12768, Control_c, 6, 7, 100
7, 12816, Control_c, 6, 7, 115
7, 12864, Note_on_c, 6, 64, 100
7, 12864, Control_c, 6, 7, 85
7, 12864, Note_on_c, 6, 63, 0
7, 12912, Control_c, 6, 7, 95
7, 12960, Control_c, 6, 7, 100
7, 13008, Control_c, 6, 7, 115
7, 13056, Control_c, 6, 7, 85
7, 13056, Note_on_c, 6, 66, 80
7, 13056, Note_on_c, 6, 64, 0
7, 13104, Control_c, 6, 7, 95
7, 13152, Control_c, 6, 7, 105
7, 13200, Control_c, 6, 7, 115
7, 13248, Control_c, 6, 7, 85
7, 13248, Note_on_c, 6, 66, 0
7, 13824, Control_c, 6, 7, 85
7, 13824, Note_on_c, 6, 64, 100
7, 13872, Control_c, 6, 7, 95
7, 13920, Control_c, 6, 7, 100
7, 13968, Control_c, 6, 7, 115
7, 14016, Control_c, 6, 7, 85
7, 14016, Note_on_c, 6, 59, 100
7, 14016, Note_on_c, 6, 64, 0
7, 14064, Control_c, 6, 7, 95
7, 14112, Control_c, 6, 7, 100
7, 14160, Control_c, 6, 7, 115
7, 14400, Control_c, 6, 7, 85
7, 14400, Note_on_c, 6, 64, 100
7, 14400, Note_on_c, 6, 59, 0
7, 14448, Control_c, 6, 7, 95
7, 14496, Control_c, 6, 7, 100
7, 14544, Control_c, 6, 7, 115
7, 14588, Note_on_c, 6, 64, 0
7, 14592, Control_c, 6, 7, 85
7, 14592, Note_on_c, 6, 64, 100
7, 14640, Control_c, 6, 7, 95
7, 14688, Control_c, 6, 7, 100
7, 14736, Control_c, 6, 7, 115
7, 14780, Note_on_c, 6, 64, 0
7, 14784, Control_c, 6, 7, 85
7, 15360, Control_c, 6, 7, 85
7, 15360, Note_on_c, 6, 62, 100
7, 15456, Control_c, 6, 7, 95
7, 15552, Control_c, 6, 7, 105
7, 15648, Control_c, 6, 7, 115
7, 15936, Note_on_c, 6, 64, 90
7, 15936, Control_c, 6, 7, 85
7, 15936, Note_on_c, 6, 62, 0
7, 15984, Control_c, 6, 7, 95
7, 16032, Control_c, 6, 7, 100
7, 16080, Control_c, 6, 7, 115
7, 16128, Control_c, 6, 7, 85
7, 16128, Note_on_c, 6, 66, 100
7, 16128, Note_on_c, 6, 64, 0
7, 16176, Control_c, 6, 7, 95
7, 16224, Control_c, 6, 7, 100
7, 16272, Control_c, 6, 7, 115
7, 16320, Control_c, 6, 7, 85
7, 16320, Note_on_c, 6, 62, 100
7, 16320, Note_on_c, 6, 66, 0
7, 16368, Control_c, 6, 7, 95
7, 16416, Control_c, 6, 7, 100
7, 16464, Control_c, 6, 7, 115
7, 16508, Note_on_c, 6, 62, 0
7, 16512, Control_c, 6, 7, 85
7, 16512, Note_on_c, 6, 71, 100
7, 16560, Control_c, 6, 7, 95
7, 16608, Control_c, 6, 7, 100
7, 16656, Control_c, 6, 7, 115
7, 16704, Note_on_c, 6, 64, 100
7, 16704, Control_c, 6, 7, 85
7, 16704, Note_on_c, 6, 71, 0
7, 16752, Control_c, 6, 7, 95
7, 16800, Control_c, 6, 7, 105
7, 16848, Control_c, 6, 7, 115
7, 17088, Control_c, 6, 7, 85
7, 17088, Note_on_c, 6, 66, 100
7, 17088, Note_on_c, 6, 64, 0
7, 17136, Control_c, 6, 7, 95
7, 17184, Control_c, 6, 7, 100
7, 17232, Control_c, 6, 7, 115
7, 17276, Note_on_c, 6, 66, 0
7, 17280, Control_c, 6, 7, 85
7, 17280, Note_on_c, 6, 71, 100
7, 17328, Control_c, 6, 7, 95
7, 17376, Control_c, 6, 7, 100
7, 17424, Control_c, 6, 7, 115
7, 17472, Note_on_c, 6, 64, 100
7, 17472, Control_c, 6, 7, 85
7, 17472, Note_on_c, 6, 71, 0
7, 17520, Control_c, 6, 7, 95
7, 17568, Control_c, 6, 7, 105
7, 17616, Control_c, 6, 7, 115
7, 17664, Note_on_c, 6, 61, 100
7, 17664, Control_c, 6, 7, 60
7, 17664, Note_on_c, 6, 64, 0
7, 17712, Control_c, 6, 7, 65
7, 17760, Control_c, 6, 7, 70
7, 17808, Control_c, 6, 7, 75
7, 17856, Control_c, 6, 7, 80
7, 17904, Control_c, 6, 7, 85
7, 17952, Control_c, 6, 7, 90
7, 18000, Control_c, 6, 7, 95
7, 18048, Control_c, 6, 7, 100
7, 18144, Control_c, 6, 7, 105
7, 18240, Control_c, 6, 7, 110
7, 18336, Control_c, 6, 7, 115
7, 18432, Note_on_c, 6, 64, 90
7, 18432, Control_c, 6, 7, 60
7, 18432, Note_on_c, 6, 61, 0
7, 18528, Control_c, 6, 7, 70
7, 18624, Control_c, 6, 7, 80
7, 18720, Control_c, 6, 7, 90
7, 18816, Control_c, 6, 7, 100
7, 18912, Control_c, 6, 7, 110
7, 19008, Control_c, 6, 7, 115
7, 19104, Control_c, 6, 7, 120
7, 19392, Control_c, 6, 7, 85
7, 19392, Note_on_c, 6, 63, 100
7, 19392, Note_on_c, 6, 64, 0
7, 19416, Control_c, 6, 7, 95
7, 19440, Control_c, 6, 7, 100
7, 19464, Control_c, 6, 7, 115
7, 19488, Control_c, 6, 7, 85
7, 19488, Note_on_c, 6, 64, 100
7, 19488, Note_on_c, 6, 63, 0
7, 19512, Control_c, 6, 7, 95
7, 19536, Control_c, 6, 7, 100
7, 19560, Control_c, 6, 7, 115
7, 19584, Note_on_c, 6, 66, 120
7, 19584, Control_c, 6, 7, 85
7, 19584, Note_on_c, 6, 64, 0
7, 19632, Control_c, 6, 7, 95
7, 19680, Control_c, 6, 7, 100
7, 19728, Control_c, 6, 7, 115
7, 20064, Control_c, 6, 7, 85
7, 20064, Note_on_c, 6, 67, 100
7, 20064, Note_on_c, 6, 66, 0
7, 20088, Control_c, 6, 8, 95
7, 20112, Control_c, 6, 8, 105
7, 20136, Control_c, 6, 8, 115
7, 20160, Control_c, 6, 7, 85
7, 20160, Note_on_c, 6, 69, 110
7, 20160, Note_on_c, 6, 67, 0
7, 20184, Control_c, 6, 7, 95
7, 20208, Control_c, 6, 7, 105
7, 20232, Control_c, 6, 7, 115
7, 20256, Control_c, 6, 7, 85
7, 20256, Note_on_c, 6, 66, 100
7, 20256, Note_on_c, 6, 69, 0
7, 20280, Control_c, 6, 7, 95
7, 20304, Control_c, 6, 7, 105
7, 20328, Control_c, 6, 7, 115
7, 20352, Control_c, 6, 7, 85
7, 20352, Note_on_c, 6, 63, 100
7, 20352, Note_on_c, 6, 66, 0
7, 20400, Control_c, 6, 7, 95
7, 20448, Control_c, 6, 7, 105
7, 20496, Control_c, 6, 7, 115
7, 20544, Note_on_c, 6, 71, 105
7, 20544, Control_c, 6, 7, 85
7, 20544, Note_on_c, 6, 63, 0
7, 20592, Control_c, 6, 7, 95
7, 20640, Control_c, 6, 7, 105
7, 20688, Control_c, 6, 7, 115
7, 20736, Control_c, 6, 7, 70
7, 20784, Control_c, 6, 7, 80
7, 20832, Control_c, 6, 7, 90
7, 20880, Control_c, 6, 7, 100
7, 20928, Control_c, 6, 7, 110
7, 20976, Control_c, 6, 7, 115
7, 21120, Note_on_c, 6, 59, 105
7, 21120, Control_c, 6, 7, 70
7, 21120, Note_on_c, 6, 71, 0
7, 21168, Control_c, 6, 7, 80
7, 21216, Control_c, 6, 7, 90
7, 21264, Control_c, 6, 7, 100
7, 21312, Control_c, 6, 7, 110
7, 21360, Control_c, 6, 7, 115
7, 21504, Control_c, 6, 7, 85
7, 21504, Note_on_c, 6, 61, 90
7, 21504, Note_on_c, 6, 59, 0
7, 21528, Control_c, 6, 7, 95
7, 21552, Control_c, 6, 7, 105
7, 21576, Control_c, 6, 7, 115
7, 21600, Control_c, 6, 7, 85
7, 21600, Note_on_c, 6, 62, 100
7, 21600, Note_on_c, 6, 61, 0
7, 21624, Control_c, 6, 7, 95
7, 21648, Control_c, 6, 7, 105
7, 21672, Control_c, 6, 7, 115
7, 21696, Control_c, 6, 7, 85
7, 21696, Note_on_c, 6, 64, 105
7, 21696, Note_on_c, 6, 62, 0
7, 21720, Control_c, 6, 7, 95
7, 21744, Control_c, 6, 7, 105
7, 21768, Control_c, 6, 7, 115
7, 21792, Control_c, 6, 7, 85
7, 21792, Note_on_c, 6, 66, 110
7, 21792, Note_on_c, 6, 64, 0
7, 21816, Control_c, 6, 7, 95
7, 21840, Control_c, 6, 7, 105
7, 21864, Control_c, 6, 7, 115
7, 21888, Control_c, 6, 7, 85
7, 21888, Note_on_c, 6, 67, 115
7, 21888, Note_on_c, 6, 66, 0
7, 21912, Control_c, 6, 7, 95
7, 21936, Control_c, 6, 7, 105
7, 21960, Control_c, 6, 7, 115
7, 21984, Control_c, 6, 7, 85
7, 21984, Note_on_c, 6, 66, 105
7, 21984, Note_on_c, 6, 67, 0
7, 22008, Control_c, 6, 7, 95
7, 22032, Control_c, 6, 7, 105
7, 22056, Control_c, 6, 7, 115
7, 22080, Control_c, 6, 7, 85
7, 22080, Note_on_c, 6, 67, 115
7, 22080, Note_on_c, 6, 66, 0
7, 22104, Control_c, 6, 7, 95
7, 22128, Control_c, 6, 7, 105
7, 22152, Control_c, 6, 7, 115
7, 22176, Note_on_c, 6, 64, 100
7, 22176, Control_c, 6, 7, 85
7, 22176, Note_on_c, 6, 67, 0
7, 22200, Control_c, 6, 7, 85
7, 22224, Control_c, 6, 7, 95
7, 22248, Control_c, 6, 7, 115
7, 22272, Control_c, 6, 7, 85
7, 22272, Note_on_c, 6, 66, 95
7, 22272, Note_on_c, 6, 64, 0
7, 22320, Control_c, 6, 7, 95
7, 22368, Control_c, 6, 7, 105
7, 22416, Control_c, 6, 7, 115
7, 22464, Control_c, 6, 7, 85
7, 22464, Note_on_c, 6, 64, 100
7, 22464, Note_on_c, 6, 66, 0
7, 22488, Control_c, 6, 7, 95
7, 22512, Control_c, 6, 7, 105
7, 22536, Control_c, 6, 7, 115
7, 22560, Control_c, 6, 7, 85
7, 22560, Note_on_c, 6, 62, 90
7, 22560, Note_on_c, 6, 64, 0
7, 22584, Control_c, 6, 7, 95
7, 22608, Control_c, 6, 7, 105
7, 22632, Control_c, 6, 7, 115
7, 22656, Control_c, 6, 7, 85
7, 22656, Note_on_c, 6, 61, 100
7, 22656, Note_on_c, 6, 62, 0
7, 22704, Control_c, 6, 7, 95
7, 22752, Control_c, 6, 7, 105
7, 22800, Control_c, 6, 7, 115
7, 22848, Note_on_c, 6, 66, 105
7, 22848, Control_c, 6, 7, 85
7, 22848, Note_on_c, 6, 61, 0
7, 22896, Control_c, 6, 7, 95
7, 22944, Control_c, 6, 7, 105
7, 22992, Control_c, 6, 7, 115
7, 23040, Control_c, 6, 7, 85
7, 23088, Control_c, 6, 7, 95
7, 23136, Control_c, 6, 7, 105
7, 23184, Control_c, 6, 7, 115
7, 23228, Note_on_c, 6, 66, 0
7, 23232, Control_c, 6, 7, 85
7, 23232, Note_on_c, 6, 64, 100
7, 23256, Control_c, 6, 7, 95
7, 23280, Control_c, 6, 7, 105
7, 23304, Control_c, 6, 7, 115
7, 23324, Note_on_c, 6, 64, 0
7, 23328, Control_c, 6, 7, 85
7, 23328, Note_on_c, 6, 62, 95
7, 23352, Control_c, 6, 7, 95
7, 23376, Control_c, 6, 7, 105
7, 23400, Control_c, 6, 7, 115
7, 23420, Note_on_c, 6, 62, 0
7, 23424, Control_c, 6, 7, 85
7, 23424, Control_c, 6, 7, 85
7, 23424, Note_on_c, 6, 67, 110
7, 23472, Control_c, 6, 7, 95
7, 23520, Control_c, 6, 7, 105
7, 23568, Control_c, 6, 7, 115
7, 23612, Note_on_c, 6, 67, 0
7, 23616, Control_c, 6, 7, 85
7, 23616, Note_on_c, 6, 64, 100
7, 23640, Control_c, 6, 7, 95
7, 23664, Control_c, 6, 7, 105
7, 23688, Control_c, 6, 7, 115
7, 23708, Note_on_c, 6, 64, 0
7, 23712, Control_c, 6, 7, 85
7, 23712, Note_on_c, 6, 62, 95
7, 23736, Control_c, 6, 7, 95
7, 23760, Control_c, 6, 7, 105
7, 23784, Control_c, 6, 7, 115
7, 23804, Note_on_c, 6, 62, 0
7, 23808, Control_c, 6, 7, 85
7, 23808, Control_c, 6, 7, 60
7, 23808, Note_on_c, 6, 62, 100
7, 23856, Control_c, 6, 7, 65
7, 23904, Control_c, 6, 7, 70
7, 23952, Control_c, 6, 7, 75
7, 24000, Control_c, 6, 7, 80
7, 24048, Control_c, 6, 7, 85
7, 24096, Control_c, 6, 7, 90
7, 24144, Control_c, 6, 7, 95
7, 24192, Control_c, 6, 7, 100
7, 24288, Control_c, 6, 7, 105
7, 24384, Control_c, 6, 7, 110
7, 24480, Control_c, 6, 7, 115
7, 24568, Note_on_c, 6, 62, 0
7, 24576, Control_c, 6, 7, 85
7, 24576, Note_on_c, 6, 59, 110
7, 24600, Control_c, 6, 7, 95
7, 24624, Control_c, 6, 7, 105
7, 24648, Control_c, 6, 7, 115
7, 24764, Note_on_c, 6, 59, 0
7, 24768, Control_c, 6, 7, 85
7, 24768, Note_on_c, 6, 71, 100
7, 24816, Control_c, 6, 7, 95
7, 24864, Control_c, 6, 7, 105
7, 24912, Control_c, 6, 7, 115
7, 24956, Note_on_c, 6, 71, 0
7, 24960, Control_c, 6, 7, 85
7, 24960, Note_on_c, 6, 69, 95
7, 24984, Control_c, 6, 7, 95
7, 25008, Control_c, 6, 7, 105
7, 25032, Control_c, 6, 7, 115
7, 25052, Note_on_c, 6, 69, 0
7, 25056, Control_c, 6, 7, 85
7, 25056, Control_c, 6, 7, 85
7, 25056, Note_on_c, 6, 68, 110
7, 25080, Control_c, 6, 7, 95
7, 25104, Control_c, 6, 7, 105
7, 25128, Control_c, 6, 7, 115
7, 25148, Note_on_c, 6, 68, 0
7, 25152, Control_c, 6, 7, 85
7, 25152, Note_on_c, 6, 69, 100
7, 25200, Control_c, 6, 7, 95
7, 25248, Control_c, 6, 7, 105
7, 25296, Control_c, 6, 7, 115
7, 25340, Note_on_c, 6, 69, 0
7, 25344, Control_c, 6, 7, 85
7, 25344, Note_on_c, 6, 68, 110
7, 25368, Control_c, 6, 7, 95
7, 25392, Control_c, 6, 7, 105
7, 25416, Control_c, 6, 7, 115
7, 25632, Control_c, 6, 7, 85
7, 25632, Note_on_c, 6, 66, 100
7, 25632, Note_on_c, 6, 68, 0
7, 25656, Control_c, 6, 7, 95
7, 25680, Control_c, 6, 7, 105
7, 25704, Control_c, 6, 7, 115
7, 25724, Note_on_c, 6, 66, 0
7, 25728, Note_on_c, 6, 64, 95
7, 25728, Control_c, 6, 7, 85
7, 25776, Control_c, 6, 7, 95
7, 25824, Control_c, 6, 7, 105
7, 25872, Control_c, 6, 7, 115
7, 26300, Note_on_c, 6, 64, 0
7, 26304, Control_c, 6, 7, 85
7, 26304, Note_on_c, 6, 64, 110
7, 26328, Control_c, 6, 7, 95
7, 26352, Control_c, 6, 7, 105
7, 26400, Control_c, 6, 7, 115
7, 26492, Note_on_c, 6, 64, 0
7, 26496, Control_c, 6, 7, 85
7, 26496, Note_on_c, 6, 66, 110
7, 26520, Control_c, 6, 7, 95
7, 26544, Control_c, 6, 7, 105
7, 26592, Control_c, 6, 7, 115
7, 26684, Note_on_c, 6, 66, 0
7, 26688, Control_c, 6, 7, 85
7, 26688, Note_on_c, 6, 64, 110
7, 26712, Control_c, 6, 7, 95
7, 26736, Control_c, 6, 7, 105
7, 26784, Control_c, 6, 7, 115
7, 26876, Note_on_c, 6, 64, 0
7, 26880, Control_c, 6, 7, 85
7, 26880, Note_on_c, 6, 64, 110
7, 26904, Control_c, 6, 7, 95
7, 26928, Control_c, 6, 7, 105
7, 26952, Control_c, 6, 7, 115
7, 27168, Control_c, 6, 7, 85
7, 27168, Note_on_c, 6, 62, 100
7, 27168, Note_on_c, 6, 64, 0
7, 27192, Control_c, 6, 7, 95
7, 27216, Control_c, 6, 7, 105
7, 27240, Control_c, 6, 7, 115
7, 27260, Note_on_c, 6, 62, 0
7, 27264, Control_c, 6, 7, 85
7, 27264, Note_on_c, 6, 61, 100
7, 27288, Control_c, 6, 7, 95
7, 27312, Control_c, 6, 7, 105
7, 27336, Control_c, 6, 7, 115
7, 27356, Note_on_c, 6, 61, 0
7, 27360, Control_c, 6, 7, 85
7, 27360, Note_on_c, 6, 62, 115
7, 27384, Control_c, 6, 7, 95
7, 27408, Control_c, 6, 7, 105
7, 27432, Control_c, 6, 7, 115
7, 27452, Note_on_c, 6, 62, 0
7, 27456, Control_c, 6, 7, 85
7, 27456, Note_on_c, 6, 64, 120
7, 27480, Control_c, 6, 7, 95
7, 27504, Control_c, 6, 7, 105
7, 27528, Control_c, 6, 7, 115
7, 27548, Note_on_c, 6, 64, 0
7, 27552, Control_c, 6, 7, 85
7, 27552, Note_on_c, 6, 61, 95
7, 27576, Control_c, 6, 7, 95
7, 27600, Control_c, 6, 7, 105
7, 27624, Control_c, 6, 7, 115
7, 27644, Note_on_c, 6, 61, 0
7, 27648, Control_c, 6, 7, 85
7, 27648, Note_on_c, 6, 57, 110
7, 27672, Control_c, 6, 7, 95
7, 27696, Control_c, 6, 7, 105
7, 27744, Control_c, 6, 7, 115
7, 27836, Note_on_c, 6, 57, 0
7, 27840, Control_c, 6, 7, 85
7, 27840, Note_on_c, 6, 62, 120
7, 27888, Control_c, 6, 7, 95
7, 27936, Control_c, 6, 7, 105
7, 27984, Control_c, 6, 7, 115
7, 28220, Note_on_c, 6, 62, 0
7, 28224, Note_on_c, 6, 59, 100
7, 28224, Control_c, 6, 7, 85
7, 28272, Control_c, 6, 7, 95
7, 28320, Control_c, 6, 7, 105
7, 28368, Control_c, 6, 7, 115
7, 28440, Control_c, 6, 7, 95
7, 28464, Control_c, 6, 7, 105
7, 28512, Control_c, 6, 7, 115
7, 28604, Note_on_c, 6, 59, 0
7, 28608, Control_c, 6, 7, 85
7, 28608, Note_on_c, 6, 64, 120
7, 28656, Control_c, 6, 7, 95
7, 28704, Control_c, 6, 7, 105
7, 28752, Control_c, 6, 7, 115
7, 28988, Note_on_c, 6, 64, 0
7, 28992, Note_on_c, 6, 61, 100
7, 28992, Control_c, 6, 7, 85
7, 29040, Control_c, 6, 7, 95
7, 29088, Control_c, 6, 7, 105
7, 29136, Control_c, 6, 7, 115
7, 29208, Control_c, 6, 7, 95
7, 29232, Control_c, 6, 7, 105
7, 29280, Control_c, 6, 7, 115
7, 29372, Note_on_c, 6, 61, 0
7, 29376, Control_c, 6, 7, 85
7, 29376, Note_on_c, 6, 66, 120
7, 29424, Control_c, 6, 7, 95
7, 29472, Control_c, 6, 7, 105
7, 29520, Control_c, 6, 7, 115
7, 29756, Note_on_c, 6, 66, 0
7, 29760, Note_on_c, 6, 63, 100
7, 29760, Control_c, 6, 7, 85
7, 29808, Control_c, 6, 7, 95
7, 29856, Control_c, 6, 7, 105
7, 29904, Control_c, 6, 7, 115
7, 29952, Control_c, 6, 7, 85
7, 29952, Note_on_c, 6, 59, 110
7, 29952, Note_on_c, 6, 63, 0
7, 30000, Control_c, 6, 7, 95
7, 30048, Control_c, 6, 7, 105
7, 30096, Control_c, 6, 7, 115
7, 30432, Control_c, 6, 7, 70
7, 30432, Note_on_c, 6, 71, 100
7, 30432, Note_on_c, 6, 59, 0
7, 30444, Control_c, 6, 7, 80
7, 30456, Control_c, 6, 7, 90
7, 30480, Control_c, 6, 7, 100
7, 30504, Control_c, 6, 7, 115
7, 30528, Control_c, 6, 7, 85
7, 30528, Note_on_c, 6, 67, 100
7, 30528, Note_on_c, 6, 71, 0
7, 30552, Control_c, 6, 7, 95
7, 30576, Control_c, 6, 7, 105
7, 30600, Control_c, 6, 7, 115
7, 30624, Note_on_c, 6, 64, 100
7, 30624, Control_c, 6, 7, 85
7, 30624, Note_on_c, 6, 67, 0
7, 30648, Control_c, 6, 7, 95
7, 30672, Control_c, 6, 7, 105
7, 30696, Control_c, 6, 7, 115
7, 30720, Control_c, 6, 7, 85
7, 30720, Note_on_c, 6, 69, 95
7, 30720, Note_on_c, 6, 64, 0
7, 30744, Control_c, 6, 7, 95
7, 30768, Control_c, 6, 7, 105
7, 30816, Control_c, 6, 7, 115
7, 30908, Note_on_c, 6, 69, 0
7, 30912, Control_c, 6, 7, 85
7, 30912, Note_on_c, 6, 67, 110
7, 30936, Control_c, 6, 7, 95
7, 30960, Control_c, 6, 7, 105
7, 31008, Control_c, 6, 7, 115
7, 31100, Note_on_c, 6, 67, 0
7, 31104, Control_c, 6, 7, 85
7, 31104, Note_on_c, 6, 66, 110
7, 31128, Control_c, 6, 7, 95
7, 31152, Control_c, 6, 7, 105
7, 31200, Control_c, 6, 7, 115
7, 31292, Note_on_c, 6, 66, 0
7, 31296, Control_c, 6, 7, 85
7, 31296, Note_on_c, 6, 64, 110
7, 31320, Control_c, 6, 7, 95
7, 31344, Control_c, 6, 7, 105
7, 31392, Control_c, 6, 7, 115
7, 31484, Note_on_c, 6, 64, 0
7, 31488, Control_c, 6, 7, 85
7, 31488, Note_on_c, 6, 62, 100
7, 31512, Control_c, 6, 7, 90
7, 31536, Control_c, 6, 7, 95
7, 31560, Control_c, 6, 7, 100
7, 31584, Control_c, 6, 7, 105
7, 31608, Control_c, 6, 7, 110
7, 31632, Control_c, 6, 7, 115
7, 31868, Note_on_c, 6, 62, 0
7, 31872, Control_c, 6, 7, 85
7, 31872, Note_on_c, 6, 69, 110
7, 31896, Control_c, 6, 7, 90
7, 31920, Control_c, 6, 7, 95
7, 31944, Control_c, 6, 7, 100
7, 31968, Control_c, 6, 7, 105
7, 31992, Control_c, 6, 7, 110
7, 32016, Control_c, 6, 7, 115
7, 32252, Note_on_c, 6, 69, 0
7, 32256, Note_on_c, 6, 69, 110
7, 32444, Note_on_c, 6, 69, 0
7, 32448, Control_c, 6, 7, 85
7, 32448, Note_on_c, 6, 67, 100
7, 32472, Control_c, 6, 7, 95
7, 32496, Control_c, 6, 7, 105
7, 32544, Control_c, 6, 7, 115
7, 32636, Note_on_c, 6, 67, 0
7, 32640, Control_c, 6, 7, 85
7, 32640, Note_on_c, 6, 69, 110
7, 32664, Control_c, 6, 7, 90
7, 32688, Control_c, 6, 7, 95
7, 32712, Control_c, 6, 7, 100
7, 32736, Control_c, 6, 7, 105
7, 32760, Control_c, 6, 7, 110
7, 32784, Control_c, 6, 7, 115
7, 33020, Note_on_c, 6, 69, 0
7, 33024, Control_c, 6, 7, 85
7, 33024, Note_on_c, 6, 62, 110
7, 33072, Control_c, 6, 7, 90
7, 33120, Control_c, 6, 7, 95
7, 33168, Control_c, 6, 7, 100
7, 33216, Control_c, 6, 7, 105
7, 33264, Control_c, 6, 7, 110
7, 33312, Control_c, 6, 7, 115
7, 33784, Note_on_c, 6, 62, 0
7, 33792, Control_c, 6, 7, 85
7, 33792, Note_on_c, 6, 64, 100
7, 33816, Control_c, 6, 7, 95
7, 33840, Control_c, 6, 7, 105
7, 33864, Control_c, 6, 7, 115
7, 33888, Control_c, 6, 7, 85
7, 33888, Note_on_c, 6, 59, 90
7, 33888, Note_on_c, 6, 64, 0
7, 33912, Control_c, 6, 7, 95
7, 33936, Control_c, 6, 7, 105
7, 33960, Control_c, 6, 7, 115
7, 33984, Control_c, 6, 7, 85
7, 33984, Note_on_c, 6, 64, 105
7, 33984, Note_on_c, 6, 59, 0
7, 34008, Control_c, 6, 7, 95
7, 34032, Control_c, 6, 7, 105
7, 34056, Control_c, 6, 7, 115
7, 34080, Control_c, 6, 7, 85
7, 34080, Note_on_c, 6, 67, 110
7, 34080, Note_on_c, 6, 64, 0
7, 34104, Control_c, 6, 7, 95
7, 34128, Control_c, 6, 7, 105
7, 34152, Control_c, 6, 7, 115
7, 34176, Control_c, 6, 7, 85
7, 34176, Note_on_c, 6, 71, 115
7, 34176, Note_on_c, 6, 67, 0
7, 34200, Control_c, 6, 7, 95
7, 34224, Control_c, 6, 7, 105
7, 34248, Control_c, 6, 7, 115
7, 34272, Control_c, 6, 7, 85
7, 34272, Note_on_c, 6, 69, 105
7, 34272, Note_on_c, 6, 71, 0
7, 34296, Control_c, 6, 7, 95
7, 34320, Control_c, 6, 7, 105
7, 34344, Control_c, 6, 7, 115
7, 34368, Control_c, 6, 7, 85
7, 34368, Note_on_c, 6, 67, 100
7, 34368, Note_on_c, 6, 69, 0
7, 34392, Control_c, 6, 7, 95
7, 34416, Control_c, 6, 7, 105
7, 34440, Control_c, 6, 7, 115
7, 34464, Note_on_c, 6, 66, 95
7, 34464, Control_c, 6, 7, 85
7, 34464, Note_on_c, 6, 67, 0
7, 34488, Control_c, 6, 7, 85
7, 34512, Control_c, 6, 7, 95
7, 34536, Control_c, 6, 7, 115
7, 34560, Control_c, 6, 7, 85
7, 34560, Note_on_c, 6, 64, 100
7, 34560, Note_on_c, 6, 66, 0
7, 34584, Control_c, 6, 7, 90
7, 34608, Control_c, 6, 7, 95
7, 34632, Control_c, 6, 7, 100
7, 34656, Control_c, 6, 7, 105
7, 34680, Control_c, 6, 8, 100
7, 34704, Control_c, 6, 7, 115
7, 34752, Control_c, 6, 7, 85
7, 34752, Note_on_c, 6, 69, 100
7, 34752, Note_on_c, 6, 64, 0
7, 34776, Control_c, 6, 7, 90
7, 34800, Control_c, 6, 7, 95
7, 34824, Control_c, 6, 7, 100
7, 34848, Control_c, 6, 7, 105
7, 34872, Control_c, 6, 7, 110
7, 34896, Control_c, 6, 7, 115
7, 35136, Control_c, 6, 7, 85
7, 35136, Note_on_c, 6, 67, 100
7, 35136, Note_on_c, 6, 69, 0
7, 35160, Control_c, 6, 7, 90
7, 35184, Control_c, 6, 7, 95
7, 35208, Control_c, 6, 7, 100
7, 35232, Control_c, 6, 7, 105
7, 35256, Control_c, 6, 7, 110
7, 35280, Control_c, 6, 7, 115
7, 35324, Note_on_c, 6, 67, 0
7, 35328, Control_c, 6, 7, 85
7, 35328, Note_on_c, 6, 66, 100
7, 35352, Control_c, 6, 7, 90
7, 35376, Control_c, 6, 7, 95
7, 35400, Control_c, 6, 7, 100
7, 35424, Control_c, 6, 7, 105
7, 35448, Control_c, 6, 7, 110
7, 35472, Control_c, 6, 7, 115
7, 35704, Note_on_c, 6, 66, 0
7, 35712, Control_c, 6, 7, 85
7, 35712, Note_on_c, 6, 64, 100
7, 35736, Control_c, 6, 7, 95
7, 35760, Control_c, 6, 7, 105
7, 35784, Control_c, 6, 7, 115
7, 35900, Note_on_c, 6, 64, 0
7, 35904, Control_c, 6, 7, 85
7, 35904, Note_on_c, 6, 57, 100
7, 35928, Control_c, 6, 7, 95
7, 35952, Control_c, 6, 7, 105
7, 35976, Control_c, 6, 7, 115
7, 36092, Note_on_c, 6, 57, 0
7, 36096, Control_c, 6, 7, 60
7, 36096, Note_on_c, 6, 57, 100
7, 36144, Control_c, 6, 7, 65
7, 36192, Control_c, 6, 7, 70
7, 36240, Control_c, 6, 7, 75
7, 36288, Control_c, 6, 7, 80
7, 36336, Control_c, 6, 7, 85
7, 36384, Control_c, 6, 7, 90
7, 36432, Control_c, 6, 7, 95
7, 36480, Control_c, 6, 7, 100
7, 36576, Control_c, 6, 7, 105
7, 36672, Control_c, 6, 7, 110
7, 36768, Control_c, 6, 7, 115
7, 36856, Note_on_c, 6, 57, 0
7, 36864, Note_on_c, 6, 64, 90
7, 36864, Control_c, 6, 7, 60
7, 36960, Control_c, 6, 7, 70
7, 37056, Control_c, 6, 7, 80
7, 37152, Control_c, 6, 7, 90
7, 37248, Control_c, 6, 7, 100
7, 37344, Control_c, 6, 7, 110
7, 37440, Control_c, 6, 7, 115
7, 37536, Control_c, 6, 7, 120
7, 37824, Control_c, 6, 7, 85
7, 37824, Note_on_c, 6, 63, 100
7, 37824, Note_on_c, 6, 64, 0
7, 37848, Control_c, 6, 7, 95
7, 37872, Control_c, 6, 7, 100
7, 37896, Control_c, 6, 7, 115
7, 37920, Control_c, 6, 7, 85
7, 37920, Note_on_c, 6, 64, 100
7, 37920, Note_on_c, 6, 63, 0
7, 37944, Control_c, 6, 7, 95
7, 37968, Control_c, 6, 7, 100
7, 37992, Control_c, 6, 7, 115
7, 38016, Note_on_c, 6, 66, 120
7, 38016, Control_c, 6, 7, 85
7, 38016, Note_on_c, 6, 64, 0
7, 38064, Control_c, 6, 7, 95
7, 38112, Control_c, 6, 7, 100
7, 38160, Control_c, 6, 7, 115
7, 38496, Control_c, 6, 7, 85
7, 38496, Note_on_c, 6, 67, 100
7, 38496, Note_on_c, 6, 66, 0
7, 38520, Control_c, 6, 8, 95
7, 38544, Control_c, 6, 8, 105
7, 38568, Control_c, 6, 8, 115
7, 38592, Control_c, 6, 7, 85
7, 38592, Note_on_c, 6, 69, 110
7, 38592, Note_on_c, 6, 67, 0
7, 38616, Control_c, 6, 7, 95
7, 38640, Control_c, 6, 7, 105
7, 38664, Control_c, 6, 7, 115
7, 38688, Control_c, 6, 7, 85
7, 38688, Note_on_c, 6, 66, 100
7, 38688, Note_on_c, 6, 69, 0
7, 38712, Control_c, 6, 7, 95
7, 38736, Control_c, 6, 7, 105
7, 38760, Control_c, 6, 7, 115
7, 38784, Control_c, 6, 7, 85
7, 38784, Note_on_c, 6, 63, 100
7, 38784, Note_on_c, 6, 66, 0
7, 38832, Control_c, 6, 7, 95
7, 38880, Control_c, 6, 7, 105
7, 38928, Control_c, 6, 7, 115
7, 38976, Note_on_c, 6, 71, 105
7, 38976, Control_c, 6, 7, 85
7, 38976, Note_on_c, 6, 63, 0
7, 39024, Control_c, 6, 7, 95
7, 39072, Control_c, 6, 7, 105
7, 39120, Control_c, 6, 7, 115
7, 39168, Control_c, 6, 7, 70
7, 39216, Control_c, 6, 7, 80
7, 39264, Control_c, 6, 7, 90
7, 39312, Control_c, 6, 7, 100
7, 39360, Control_c, 6, 7, 110
7, 39408, Control_c, 6, 7, 115
7, 39552, Note_on_c, 6, 59, 105
7, 39552, Control_c, 6, 7, 70
7, 39552, Note_on_c, 6, 71, 0
7, 39600, Control_c, 6, 7, 80
7, 39648, Control_c, 6, 7, 90
7, 39696, Control_c, 6, 7, 100
7, 39744, Control_c, 6, 7, 110
7, 39792, Control_c, 6, 7, 115
7, 39936, Control_c, 6, 7, 85
7, 39936, Note_on_c, 6, 61, 90
7, 39936, Note_on_c, 6, 59, 0
7, 39960, Control_c, 6, 7, 95
7, 39984, Control_c, 6, 7, 105
7, 40008, Control_c, 6, 7, 115
7, 40032, Control_c, 6, 7, 85
7, 40032, Note_on_c, 6, 62, 100
7, 40032, Note_on_c, 6, 61, 0
7, 40056, Control_c, 6, 7, 95
7, 40080, Control_c, 6, 7, 105
7, 40104, Control_c, 6, 7, 115
7, 40128, Control_c, 6, 7, 85
7, 40128, Note_on_c, 6, 64, 105
7, 40128, Note_on_c, 6, 62, 0
7, 40152, Control_c, 6, 7, 95
7, 40176, Control_c, 6, 7, 105
7, 40200, Control_c, 6, 7, 115
7, 40224, Control_c, 6, 7, 85
7, 40224, Note_on_c, 6, 66, 110
7, 40224, Note_on_c, 6, 64, 0
7, 40248, Control_c, 6, 7, 95
7, 40272, Control_c, 6, 7, 105
7, 40296, Control_c, 6, 7, 115
7, 40320, Control_c, 6, 7, 85
7, 40320, Note_on_c, 6, 67, 115
7, 40320, Note_on_c, 6, 66, 0
7, 40344, Control_c, 6, 7, 95
7, 40368, Control_c, 6, 7, 105
7, 40392, Control_c, 6, 7, 115
7, 40416, Control_c, 6, 7, 85
7, 40416, Note_on_c, 6, 66, 105
7, 40416, Note_on_c, 6, 67, 0
7, 40440, Control_c, 6, 7, 95
7, 40464, Control_c, 6, 7, 105
7, 40488, Control_c, 6, 7, 115
7, 40512, Control_c, 6, 7, 85
7, 40512, Note_on_c, 6, 67, 115
7, 40512, Note_on_c, 6, 66, 0
7, 40536, Control_c, 6, 7, 95
7, 40560, Control_c, 6, 7, 105
7, 40584, Control_c, 6, 7, 115
7, 40608, Note_on_c, 6, 64, 100
7, 40608, Control_c, 6, 7, 85
7, 40608, Note_on_c, 6, 67, 0
7, 40632, Control_c, 6, 7, 85
7, 40656, Control_c, 6, 7, 95
7, 40680, Control_c, 6, 7, 115
7, 40704, Control_c, 6, 7, 85
7, 40704, Note_on_c, 6, 66, 95
7, 40704, Note_on_c, 6, 64, 0
7, 40752, Control_c, 6, 7, 95
7, 40800, Control_c, 6, 7, 105
7, 40848, Control_c, 6, 7, 115
7, 40896, Control_c, 6, 7, 85
7, 40896, Note_on_c, 6, 64, 100
7, 40896, Note_on_c, 6, 66, 0
7, 40920, Control_c, 6, 7, 95
7, 40944, Control_c, 6, 7, 105
7, 40968, Control_c, 6, 7, 115
7, 40992, Control_c, 6, 7, 85
7, 40992, Note_on_c, 6, 62, 90
7, 40992, Note_on_c, 6, 64, 0
7, 41016, Control_c, 6, 7, 95
7, 41040, Control_c, 6, 7, 105
7, 41064, Control_c, 6, 7, 115
7, 41088, Control_c, 6, 7, 85
7, 41088, Note_on_c, 6, 61, 100
7, 41088, Note_on_c, 6, 62, 0
7, 41136, Control_c, 6, 7, 95
7, 41184, Control_c, 6, 7, 105
7, 41232, Control_c, 6, 7, 115
7, 41280, Note_on_c, 6, 66, 105
7, 41280, Control_c, 6, 7, 85
7, 41280, Note_on_c, 6, 61, 0
7, 41328, Control_c, 6, 7, 95
7, 41376, Control_c, 6, 7, 105
7, 41424, Control_c, 6, 7, 115
7, 41472, Control_c, 6, 7, 85
7, 41520, Control_c, 6, 7, 95
7, 41568, Control_c, 6, 7, 105
7, 41616, Control_c, 6, 7, 115
7, 41660, Note_on_c, 6, 66, 0
7, 41664, Control_c, 6, 7, 85
7, 41664, Note_on_c, 6, 64, 100
7, 41688, Control_c, 6, 7, 95
7, 41712, Control_c, 6, 7, 105
7, 41736, Control_c, 6, 7, 115
7, 41756, Note_on_c, 6, 64, 0
7, 41760, Control_c, 6, 7, 85
7, 41760, Note_on_c, 6, 62, 95
7, 41784, Control_c, 6, 7, 95
7, 41808, Control_c, 6, 7, 105
7, 41832, Control_c, 6, 7, 115
7, 41852, Note_on_c, 6, 62, 0
7, 41856, Control_c, 6, 7, 85
7, 41856, Control_c, 6, 7, 85
7, 41856, Note_on_c, 6, 67, 110
7, 41904, Control_c, 6, 7, 95
7, 41952, Control_c, 6, 7, 105
7, 42000, Control_c, 6, 7, 115
7, 42044, Note_on_c, 6, 67, 0
7, 42048, Control_c, 6, 7, 85
7, 42048, Note_on_c, 6, 64, 100
7, 42072, Control_c, 6, 7, 95
7, 42096, Control_c, 6, 7, 105
7, 42120, Control_c, 6, 7, 115
7, 42140, Note_on_c, 6, 64, 0
7, 42144, Control_c, 6, 7, 85
7, 42144, Note_on_c, 6, 62, 95
7, 42168, Control_c, 6, 7, 95
7, 42192, Control_c, 6, 7, 105
7, 42216, Control_c, 6, 7, 115
7, 42236, Note_on_c, 6, 62, 0
7, 42240, Control_c, 6, 7, 85
7, 42240, Control_c, 6, 7, 60
7, 42240, Note_on_c, 6, 62, 100
7, 42288, Control_c, 6, 7, 65
7, 42336, Control_c, 6, 7, 70
7, 42384, Control_c, 6, 7, 75
7, 42432, Control_c, 6, 7, 80
7, 42480, Control_c, 6, 7, 85
7, 42528, Control_c, 6, 7, 90
7, 42576, Control_c, 6, 7, 95
7, 42624, Control_c, 6, 7, 100
7, 42720, Control_c, 6, 7, 105
7, 42816, Control_c, 6, 7, 110
7, 42912, Control_c, 6, 7, 115
7, 43000, Note_on_c, 6, 62, 0
7, 43008, Control_c, 6, 7, 85
7, 43008, Note_on_c, 6, 59, 110
7, 43032, Control_c, 6, 7, 95
7, 43056, Control_c, 6, 7, 105
7, 43080, Control_c, 6, 7, 115
7, 43196, Note_on_c, 6, 59, 0
7, 43200, Control_c, 6, 7, 85
7, 43200, Note_on_c, 6, 71, 100
7, 43248, Control_c, 6, 7, 95
7, 43296, Control_c, 6, 7, 105
7, 43344, Control_c, 6, 7, 115
7, 43388, Note_on_c, 6, 71, 0
7, 43392, Control_c, 6, 7, 85
7, 43392, Note_on_c, 6, 69, 95
7, 43416, Control_c, 6, 7, 95
7, 43440, Control_c, 6, 7, 105
7, 43464, Control_c, 6, 7, 115
7, 43484, Note_on_c, 6, 69, 0
7, 43488, Control_c, 6, 7, 85
7, 43488, Control_c, 6, 7, 85
7, 43488, Note_on_c, 6, 68, 110
7, 43512, Control_c, 6, 7, 95
7, 43536, Control_c, 6, 7, 105
7, 43560, Control_c, 6, 7, 115
7, 43580, Note_on_c, 6, 68, 0
7, 43584, Control_c, 6, 7, 85
7, 43584, Note_on_c, 6, 69, 100
7, 43632, Control_c, 6, 7, 95
7, 43680, Control_c, 6, 7, 105
7, 43728, Control_c, 6, 7, 115
7, 43772, Note_on_c, 6, 69, 0
7, 43776, Control_c, 6, 7, 85
7, 43776, Note_on_c, 6, 68, 110
7, 43800, Control_c, 6, 7, 95
7, 43824, Control_c, 6, 7, 105
7, 43848, Control_c, 6, 7, 115
7, 44064, Control_c, 6, 7, 85
7, 44064, Note_on_c, 6, 66, 100
7, 44064, Note_on_c, 6, 68, 0
7, 44088, Control_c, 6, 7, 95
7, 44112, Control_c, 6, 7, 105
7, 44136, Control_c, 6, 7, 115
7, 44156, Note_on_c, 6, 66, 0
7, 44160, Note_on_c, 6, 64, 95
7, 44160, Control_c, 6, 7, 85
7, 44208, Control_c, 6, 7, 95
7, 44256, Control_c, 6, 7, 105
7, 44304, Control_c, 6, 7, 115
7, 44732, Note_on_c, 6, 64, 0
7, 44736, Control_c, 6, 7, 85
7, 44736, Note_on_c, 6, 64, 110
7, 44760, Control_c, 6, 7, 95
7, 44784, Control_c, 6, 7, 105
7, 44832, Control_c, 6, 7, 115
7, 44924, Note_on_c, 6, 64, 0
7, 44928, Control_c, 6, 7, 85
7, 44928, Note_on_c, 6, 66, 110
7, 44952, Control_c, 6, 7, 95
7, 44976, Control_c, 6, 7, 105
7, 45024, Control_c, 6, 7, 115
7, 45116, Note_on_c, 6, 66, 0
7, 45120, Control_c, 6, 7, 85
7, 45120, Note_on_c, 6, 64, 110
7, 45144, Control_c, 6, 7, 95
7, 45168, Control_c, 6, 7, 105
7, 45216, Control_c, 6, 7, 115
7, 45308, Note_on_c, 6, 64, 0
7, 45312, Control_c, 6, 7, 85
7, 45312, Note_on_c, 6, 64, 110
7, 45336, Control_c, 6, 7, 95
7, 45360, Control_c, 6, 7, 105
7, 45384, Control_c, 6, 7, 115
7, 45600, Control_c, 6, 7, 85
7, 45600, Note_on_c, 6, 62, 100
7, 45600, Note_on_c, 6, 64, 0
7, 45624, Control_c, 6, 7, 95
7, 45648, Control_c, 6, 7, 105
7, 45672, Control_c, 6, 7, 115
7, 45692, Note_on_c, 6, 62, 0
7, 45696, Control_c, 6, 7, 85
7, 45696, Note_on_c, 6, 61, 100
7, 45720, Control_c, 6, 7, 95
7, 45744, Control_c, 6, 7, 105
7, 45768, Control_c, 6, 7, 115
7, 45788, Note_on_c, 6, 61, 0
7, 45792, Control_c, 6, 7, 85
7, 45792, Note_on_c, 6, 62, 115
7, 45816, Control_c, 6, 7, 95
7, 45840, Control_c, 6, 7, 105
7, 45864, Control_c, 6, 7, 115
7, 45884, Note_on_c, 6, 62, 0
7, 45888, Control_c, 6, 7, 85
7, 45888, Note_on_c, 6, 64, 120
7, 45912, Control_c, 6, 7, 95
7, 45936, Control_c, 6, 7, 105
7, 45960, Control_c, 6, 7, 115
7, 45980, Note_on_c, 6, 64, 0
7, 45984, Control_c, 6, 7, 85
7, 45984, Note_on_c, 6, 61, 95
7, 46008, Control_c, 6, 7, 95
7, 46032, Control_c, 6, 7, 105
7, 46056, Control_c, 6, 7, 115
7, 46076, Note_on_c, 6, 61, 0
7, 46080, Control_c, 6, 7, 85
7, 46080, Note_on_c, 6, 57, 110
7, 46104, Control_c, 6, 7, 95
7, 46128, Control_c, 6, 7, 105
7, 46176, Control_c, 6, 7, 115
7, 46268, Note_on_c, 6, 57, 0
7, 46272, Control_c, 6, 7, 85
7, 46272, Note_on_c, 6, 62, 120
7, 46320, Control_c, 6, 7, 95
7, 46368, Control_c, 6, 7, 105
7, 46416, Control_c, 6, 7, 115
7, 46652, Note_on_c, 6, 62, 0
7, 46656, Note_on_c, 6, 59, 100
7, 46656, Control_c, 6, 7, 85
7, 46704, Control_c, 6, 7, 95
7, 46752, Control_c, 6, 7, 105
7, 46800, Control_c, 6, 7, 115
7, 46872, Control_c, 6, 7, 95
7, 46896, Control_c, 6, 7, 105
7, 46944, Control_c, 6, 7, 115
7, 47036, Note_on_c, 6, 59, 0
7, 47040, Control_c, 6, 7, 85
7, 47040, Note_on_c, 6, 64, 120
7, 47088, Control_c, 6, 7, 95
7, 47136, Control_c, 6, 7, 105
7, 47184, Control_c, 6, 7, 115
7, 47420, Note_on_c, 6, 64, 0
7, 47424, Note_on_c, 6, 61, 100
7, 47424, Control_c, 6, 7, 85
7, 47472, Control_c, 6, 7, 95
7, 47520, Control_c, 6, 7, 105
7, 47568, Control_c, 6, 7, 115
7, 47640, Control_c, 6, 7, 95
7, 47664, Control_c, 6, 7, 105
7, 47712, Control_c, 6, 7, 115
7, 47804, Note_on_c, 6, 61, 0
7, 47808, Control_c, 6, 7, 85
7, 47808, Note_on_c, 6, 66, 120
7, 47856, Control_c, 6, 7, 95
7, 47904, Control_c, 6, 7, 105
7, 47952, Control_c, 6, 7, 115
7, 48188, Note_on_c, 6, 66, 0
7, 48192, Note_on_c, 6, 63, 100
7, 48192, Control_c, 6, 7, 85
7, 48240, Control_c, 6, 7, 95
7, 48288, Control_c, 6, 7, 105
7, 48336, Control_c, 6, 7, 115
7, 48384, Control_c, 6, 7, 85
7, 48384, Note_on_c, 6, 59, 110
7, 48384, Note_on_c, 6, 63, 0
7, 48432, Control_c, 6, 7, 95
7, 48480, Control_c, 6, 7, 105
7, 48528, Control_c, 6, 7, 115
7, 48864, Control_c, 6, 7, 70
7, 48864, Note_on_c, 6, 71, 100
7, 48864, Note_on_c, 6, 59, 0
7, 48876, Control_c, 6, 7, 80
7, 48888, Control_c, 6, 7, 90
7, 48912, Control_c, 6, 7, 100
7, 48936, Control_c, 6, 7, 115
7, 48960, Control_c, 6, 7, 85
7, 48960, Note_on_c, 6, 67, 100
7, 48960, Note_on_c, 6, 71, 0
7, 48984, Control_c, 6, 7, 95
7, 49008, Control_c, 6, 7, 105
7, 49032, Control_c, 6, 7, 115
7, 49056, Note_on_c, 6, 64, 100
7, 49056, Control_c, 6, 7, 85
7, 49056, Note_on_c, 6, 67, 0
7, 49080, Control_c, 6, 7, 95
7, 49104, Control_c, 6, 7, 105
7, 49128, Control_c, 6, 7, 115
7, 49152, Control_c, 6, 7, 85
7, 49152, Note_on_c, 6, 69, 95
7, 49152, Note_on_c, 6, 64, 0
7, 49176, Control_c, 6, 7, 95
7, 49200, Control_c, 6, 7, 105
7, 49248, Control_c, 6, 7, 115
7, 49340, Note_on_c, 6, 69, 0
7, 49344, Control_c, 6, 7, 85
7, 49344, Note_on_c, 6, 67, 110
7, 49368, Control_c, 6, 7, 95
7, 49392, Control_c, 6, 7, 105
7, 49440, Control_c, 6, 7, 115
7, 49532, Note_on_c, 6, 67, 0
7, 49536, Control_c, 6, 7, 85
7, 49536, Note_on_c, 6, 66, 110
7, 49560, Control_c, 6, 7, 95
7, 49584, Control_c, 6, 7, 105
7, 49632, Control_c, 6, 7, 115
7, 49724, Note_on_c, 6, 66, 0
7, 49728, Control_c, 6, 7, 85
7, 49728, Note_on_c, 6, 64, 110
7, 49752, Control_c, 6, 7, 95
7, 49776, Control_c, 6, 7, 105
7, 49824, Control_c, 6, 7, 115
7, 49916, Note_on_c, 6, 64, 0
7, 49920, Control_c, 6, 7, 85
7, 49920, Note_on_c, 6, 62, 100
7, 49944, Control_c, 6, 7, 90
7, 49968, Control_c, 6, 7, 95
7, 49992, Control_c, 6, 7, 100
7, 50016, Control_c, 6, 7, 105
7, 50040, Control_c, 6, 7, 110
7, 50064, Control_c, 6, 7, 115
7, 50300, Note_on_c, 6, 62, 0
7, 50304, Control_c, 6, 7, 85
7, 50304, Note_on_c, 6, 69, 110
7, 50328, Control_c, 6, 7, 90
7, 50352, Control_c, 6, 7, 95
7, 50376, Control_c, 6, 7, 100
7, 50400, Control_c, 6, 7, 105
7, 50424, Control_c, 6, 7, 110
7, 50448, Control_c, 6, 7, 115
7, 50684, Note_on_c, 6, 69, 0
7, 50688, Note_on_c, 6, 69, 110
7, 50876, Note_on_c, 6, 69, 0
7, 50880, Control_c, 6, 7, 85
7, 50880, Note_on_c, 6, 67, 100
7, 50904, Control_c, 6, 7, 95
7, 50928, Control_c, 6, 7, 105
7, 50976, Control_c, 6, 7, 115
7, 51068, Note_on_c, 6, 67, 0
7, 51072, Control_c, 6, 7, 85
7, 51072, Note_on_c, 6, 69, 110
7, 51096, Control_c, 6, 7, 90
7, 51120, Control_c, 6, 7, 95
7, 51144, Control_c, 6, 7, 100
7, 51168, Control_c, 6, 7, 105
7, 51192, Control_c, 6, 7, 110
7, 51216, Control_c, 6, 7, 115
7, 51452, Note_on_c, 6, 69, 0
7, 51456, Control_c, 6, 7, 85
7, 51456, Note_on_c, 6, 62, 110
7, 51504, Control_c, 6, 7, 90
7, 51552, Control_c, 6, 7, 95
7, 51600, Control_c, 6, 7, 100
7, 51648, Control_c, 6, 7, 105
7, 51696, Control_c, 6, 7, 110
7, 51744, Control_c, 6, 7, 115
7, 52216, Note_on_c, 6, 62, 0
7, 52224, Control_c, 6, 7, 85
7, 52224, Note_on_c, 6, 64, 100
7, 52248, Control_c, 6, 7, 95
7, 52272, Control_c, 6, 7, 105
7, 52296, Control_c, 6, 7, 115
7, 52320, Control_c, 6, 7, 85
7, 52320, Note_on_c, 6, 59, 90
7, 52320, Note_on_c, 6, 64, 0
7, 52344, Control_c, 6, 7, 95
7, 52368, Control_c, 6, 7, 105
7, 52392, Control_c, 6, 7, 115
7, 52416, Control_c, 6, 7, 85
7, 52416, Note_on_c, 6, 64, 105
7, 52416, Note_on_c, 6, 59, 0
7, 52440, Control_c, 6, 7, 95
7, 52464, Control_c, 6, 7, 105
7, 52488, Control_c, 6, 7, 115
7, 52512, Control_c, 6, 7, 85
7, 52512, Note_on_c, 6, 67, 110
7, 52512, Note_on_c, 6, 64, 0
7, 52536, Control_c, 6, 7, 95
7, 52560, Control_c, 6, 7, 105
7, 52584, Control_c, 6, 7, 115
7, 52608, Control_c, 6, 7, 85
7, 52608, Note_on_c, 6, 71, 115
7, 52608, Note_on_c, 6, 67, 0
7, 52632, Control_c, 6, 7, 95
7, 52656, Control_c, 6, 7, 105
7, 52680, Control_c, 6, 7, 115
7, 52704, Control_c, 6, 7, 85
7, 52704, Note_on_c, 6, 69, 105
7, 52704, Note_on_c, 6, 71, 0
7, 52728, Control_c, 6, 7, 95
7, 52752, Control_c, 6, 7, 105
7, 52776, Control_c, 6, 7, 115
7, 52800, Control_c, 6, 7, 85
7, 52800, Note_on_c, 6, 67, 100
7, 52800, Note_on_c, 6, 69, 0
7, 52824, Control_c, 6, 7, 95
7, 52848, Control_c, 6, 7, 105
7, 52872, Control_c, 6, 7, 115
7, 52896, Note_on_c, 6, 66, 95
7, 52896, Control_c, 6, 7, 85
7, 52896, Note_on_c, 6, 67, 0
7, 52920, Control_c, 6, 7, 85
7, 52944, Control_c, 6, 7, 95
7, 52968, Control_c, 6, 7, 115
7, 52992, Control_c, 6, 7, 85
7, 52992, Note_on_c, 6, 64, 100
7, 52992, Note_on_c, 6, 66, 0
7, 53016, Control_c, 6, 7, 90
7, 53040, Control_c, 6, 7, 95
7, 53064, Control_c, 6, 7, 100
7, 53088, Control_c, 6, 7, 105
7, 53112, Control_c, 6, 8, 100
7, 53136, Control_c, 6, 7, 115
7, 53184, Control_c, 6, 7, 85
7, 53184, Note_on_c, 6, 69, 100
7, 53184, Note_on_c, 6, 64, 0
7, 53208, Control_c, 6, 7, 90
7, 53232, Control_c, 6, 7, 95
7, 53256, Control_c, 6, 7, 100
7, 53280, Control_c, 6, 7, 105
7, 53304, Control_c, 6, 7, 110
7, 53328, Control_c, 6, 7, 115
7, 53568, Control_c, 6, 7, 85
7, 53568, Note_on_c, 6, 67, 100
7, 53568, Note_on_c, 6, 69, 0
7, 53592, Control_c, 6, 7, 90
7, 53616, Control_c, 6, 7, 95
7, 53640, Control_c, 6, 7, 100
7, 53664, Control_c, 6, 7, 105
7, 53688, Control_c, 6, 7, 110
7, 53712, Control_c, 6, 7, 115
7, 53756, Note_on_c, 6, 67, 0
7, 53760, Control_c, 6, 7, 85
7, 53760, Note_on_c, 6, 66, 100
7, 53784, Control_c, 6, 7, 90
7, 53808, Control_c, 6, 7, 95
7, 53832, Control_c, 6, 7, 100
7, 53856, Control_c, 6, 7, 105
7, 53880, Control_c, 6, 7, 110
7, 53904, Control_c, 6, 7, 115
7, 54136, Note_on_c, 6, 66, 0
7, 54144, Control_c, 6, 7, 85
7, 54144, Note_on_c, 6, 64, 100
7, 54168, Control_c, 6, 7, 95
7, 54192, Control_c, 6, 7, 105
7, 54216, Control_c, 6, 7, 115
7, 54332, Note_on_c, 6, 64, 0
7, 54336, Control_c, 6, 7, 85
7, 54336, Note_on_c, 6, 57, 100
7, 54360, Control_c, 6, 7, 95
7, 54384, Control_c, 6, 7, 105
7, 54408, Control_c, 6, 7, 115
7, 54524, Note_on_c, 6, 57, 0
7, 54528, Note_on_c, 6, 57, 100
7, 54528, Control_c, 6, 7, 60
7, 54576, Control_c, 6, 7, 65
7, 54624, Control_c, 6, 7, 70
7, 54672, Control_c, 6, 7, 75
7, 54720, Control_c, 6, 7, 80
7, 54768, Control_c, 6, 7, 85
7, 54816, Control_c, 6, 7, 90
7, 54864, Control_c, 6, 7, 95
7, 54912, Control_c, 6, 7, 100
7, 55008, Control_c, 6, 7, 105
7, 55104, Control_c, 6, 7, 110
7, 55200, Control_c, 6, 7, 115
7, 55216, Control_c, 6, 7, 117
7, 55472, Control_c, 6, 7, 116
7, 55488, Control_c, 6, 7, 115
7, 55536, Control_c, 6, 7, 114
7, 55568, Control_c, 6, 7, 113
7, 55600, Control_c, 6, 7, 111
7, 55648, Control_c, 6, 7, 108
7, 55664, Control_c, 6, 7, 107
7, 55680, Control_c, 6, 7, 106
7, 55696, Control_c, 6, 7, 105
7, 55712, Control_c, 6, 7, 102
7, 55728, Control_c, 6, 7, 97
7, 55744, Control_c, 6, 7, 93
7, 55760, Control_c, 6, 7, 91
7, 55776, Control_c, 6, 7, 86
7, 55792, Control_c, 6, 7, 83
7, 55808, Control_c, 6, 7, 79
7, 55840, Control_c, 6, 7, 75
7, 55856, Control_c, 6, 7, 69
7, 55872, Control_c, 6, 7, 63
7, 55888, Control_c, 6, 7, 55
7, 55904, Control_c, 6, 7, 53
7, 55920, Control_c, 6, 7, 47
7, 55936, Control_c, 6, 7, 39
7, 55952, Control_c, 6, 7, 33
7, 55968, Control_c, 6, 7, 31
7, 55984, Control_c, 6, 7, 17
7, 56000, Control_c, 6, 7, 15
7, 56016, Control_c, 6, 7, 13
7, 56032, Control_c, 6, 7, 8
7, 56048, Control_c, 6, 7, 3
7, 56056, Note_on_c, 6, 57, 0
7, 56064, Control_c, 6, 7, 1
7, 56080, Control_c, 6, 7, 2
7, 56096, Control_c, 6, 7, 3
7, 56096, End_track
8, 0, Start_track
8, 0, MIDI_port, 0
8, 0, Title_t, "SynthStrings"
8, 0, Program_c, 7, 50
8, 0, Control_c, 7, 7, 100
8, 0, Control_c, 7, 10, 20
8, 0, Control_c, 7, 121, 0
8, 0, Control_c, 7, 0, 0
8, 0, Program_c, 7, 50
8, 0, Control_c, 7, 10, 20
8, 0, Control_c, 7, 7, 30
8, 0, Note_on_c, 7, 69, 120
8, 0, Pitch_bend_c, 7, 8192
8, 0, Control_c, 7, 64, 0
8, 0, Control_c, 7, 91, 60
8, 0, Control_c, 7, 93, 20
8, 0, Control_c, 7, 11, 105
8, 48, Control_c, 7, 7, 20
8, 96, Control_c, 7, 7, 22
8, 144, Control_c, 7, 7, 24
8, 192, Control_c, 7, 7, 26
8, 240, Control_c, 7, 7, 28
8, 288, Control_c, 7, 7, 30
8, 336, Control_c, 7, 7, 32
8, 384, Control_c, 7, 7, 34
8, 432, Control_c, 7, 7, 36
8, 480, Control_c, 7, 7, 38
8, 528, Control_c, 7, 7, 40
8, 576, Control_c, 7, 7, 44
8, 624, Control_c, 7, 7, 48
8, 672, Control_c, 7, 7, 52
8, 720, Control_c, 7, 7, 56
8, 768, Note_on_c, 7, 71, 100
8, 768, Control_c, 7, 7, 60
8, 768, Note_on_c, 7, 69, 0
8, 816, Control_c, 7, 7, 64
8, 864, Control_c, 7, 7, 68
8, 912, Control_c, 7, 7, 72
8, 960, Control_c, 7, 7, 76
8, 1008, Control_c, 7, 7, 80
8, 1056, Control_c, 7, 7, 84
8, 1104, Control_c, 7, 7, 88
8, 1152, Control_c, 7, 7, 92
8, 1200, Control_c, 7, 7, 96
8, 1248, Control_c, 7, 7, 100
8, 1296, Control_c, 7, 7, 104
8, 1344, Control_c, 7, 7, 108
8, 1392, Control_c, 7, 7, 112
8, 1440, Control_c, 7, 7, 116
8, 1488, Control_c, 7, 7, 110
8, 1536, Control_c, 7, 7, 85
8, 1536, Note_on_c, 7, 59, 100
8, 1536, Note_on_c, 7, 71, 0
8, 1632, Control_c, 7, 7, 95
8, 1728, Control_c, 7, 7, 105
8, 1824, Control_c, 7, 7, 115
8, 1920, Note_on_c, 7, 64, 90
8, 1920, Control_c, 7, 11, 110
8, 1920, Control_c, 7, 7, 85
8, 1920, Note_on_c, 7, 59, 0
8, 2016, Control_c, 7, 7, 95
8, 2112, Control_c, 7, 7, 100
8, 2208, Control_c, 7, 7, 115
8, 2304, Control_c, 7, 7, 85
8, 2400, Control_c, 7, 7, 90
8, 2496, Control_c, 7, 7, 95
8, 2592, Control_c, 7, 7, 100
8, 2688, Control_c, 7, 7, 105
8, 2784, Control_c, 7, 7, 110
8, 2880, Control_c, 7, 7, 115
8, 2976, Control_c, 7, 7, 120
8, 3264, Control_c, 7, 7, 85
8, 3264, Note_on_c, 7, 63, 100
8, 3264, Note_on_c, 7, 64, 0
8, 3312, Control_c, 7, 7, 95
8, 3360, Control_c, 7, 7, 100
8, 3408, Control_c, 7, 7, 115
8, 3452, Note_on_c, 7, 63, 0
8, 3456, Control_c, 7, 7, 85
8, 3456, Note_on_c, 7, 63, 100
8, 3504, Control_c, 7, 7, 95
8, 3552, Control_c, 7, 7, 100
8, 3600, Control_c, 7, 7, 115
8, 3648, Note_on_c, 7, 64, 100
8, 3648, Control_c, 7, 7, 85
8, 3648, Note_on_c, 7, 63, 0
8, 3696, Control_c, 7, 7, 95
8, 3744, Control_c, 7, 7, 100
8, 3792, Control_c, 7, 7, 115
8, 3840, Control_c, 7, 7, 85
8, 3840, Note_on_c, 7, 66, 80
8, 3840, Note_on_c, 7, 64, 0
8, 3888, Control_c, 7, 7, 95
8, 3936, Control_c, 7, 7, 105
8, 3984, Control_c, 7, 7, 115
8, 4032, Control_c, 7, 7, 85
8, 4032, Note_on_c, 7, 66, 0
8, 4608, Control_c, 7, 7, 85
8, 4608, Note_on_c, 7, 64, 100
8, 4656, Control_c, 7, 7, 95
8, 4704, Control_c, 7, 7, 100
8, 4752, Control_c, 7, 7, 115
8, 4800, Control_c, 7, 7, 85
8, 4800, Note_on_c, 7, 59, 100
8, 4800, Note_on_c, 7, 64, 0
8, 4848, Control_c, 7, 7, 95
8, 4896, Control_c, 7, 7, 100
8, 4944, Control_c, 7, 7, 115
8, 5184, Control_c, 7, 7, 85
8, 5184, Note_on_c, 7, 64, 100
8, 5184, Note_on_c, 7, 59, 0
8, 5232, Control_c, 7, 7, 95
8, 5280, Control_c, 7, 7, 100
8, 5328, Control_c, 7, 7, 115
8, 5372, Note_on_c, 7, 64, 0
8, 5376, Control_c, 7, 7, 85
8, 5376, Note_on_c, 7, 64, 100
8, 5424, Control_c, 7, 7, 95
8, 5472, Control_c, 7, 7, 100
8, 5520, Control_c, 7, 7, 115
8, 5564, Note_on_c, 7, 64, 0
8, 5568, Control_c, 7, 7, 85
8, 6144, Control_c, 7, 7, 85
8, 6144, Note_on_c, 7, 62, 100
8, 6240, Control_c, 7, 7, 95
8, 6336, Control_c, 7, 7, 105
8, 6432, Control_c, 7, 7, 115
8, 6720, Note_on_c, 7, 64, 90
8, 6720, Control_c, 7, 7, 85
8, 6720, Note_on_c, 7, 62, 0
8, 6768, Control_c, 7, 7, 95
8, 6816, Control_c, 7, 7, 100
8, 6864, Control_c, 7, 7, 115
8, 6912, Control_c, 7, 7, 85
8, 6912, Note_on_c, 7, 66, 100
8, 6912, Note_on_c, 7, 64, 0
8, 6960, Control_c, 7, 7, 95
8, 7008, Control_c, 7, 7, 100
8, 7056, Control_c, 7, 7, 115
8, 7104, Control_c, 7, 7, 85
8, 7104, Note_on_c, 7, 62, 100
8, 7104, Note_on_c, 7, 66, 0
8, 7152, Control_c, 7, 7, 95
8, 7200, Control_c, 7, 7, 100
8, 7248, Control_c, 7, 7, 115
8, 7292, Note_on_c, 7, 62, 0
8, 7296, Control_c, 7, 7, 85
8, 7296, Note_on_c, 7, 71, 100
8, 7344, Control_c, 7, 7, 95
8, 7392, Control_c, 7, 7, 100
8, 7440, Control_c, 7, 7, 115
8, 7488, Note_on_c, 7, 64, 100
8, 7488, Control_c, 7, 7, 85
8, 7488, Note_on_c, 7, 71, 0
8, 7536, Control_c, 7, 7, 95
8, 7584, Control_c, 7, 7, 105
8, 7632, Control_c, 7, 7, 115
8, 7872, Control_c, 7, 7, 85
8, 7872, Note_on_c, 7, 66, 100
8, 7872, Note_on_c, 7, 64, 0
8, 7920, Control_c, 7, 7, 95
8, 7968, Control_c, 7, 7, 100
8, 8016, Control_c, 7, 7, 115
8, 8060, Note_on_c, 7, 66, 0
8, 8064, Control_c, 7, 7, 85
8, 8064, Note_on_c, 7, 71, 100
8, 8112, Control_c, 7, 7, 95
8, 8160, Control_c, 7, 7, 100
8, 8208, Control_c, 7, 7, 115
8, 8256, Note_on_c, 7, 64, 100
8, 8256, Control_c, 7, 7, 85
8, 8256, Note_on_c, 7, 71, 0
8, 8304, Control_c, 7, 7, 95
8, 8352, Control_c, 7, 7, 105
8, 8400, Control_c, 7, 7, 115
8, 8448, Note_on_c, 7, 61, 100
8, 8448, Control_c, 7, 7, 60
8, 8448, Note_on_c, 7, 64, 0
8, 8496, Control_c, 7, 7, 65
8, 8544, Control_c, 7, 7, 70
8, 8592, Control_c, 7, 7, 75
8, 8640, Control_c, 7, 7, 80
8, 8688, Control_c, 7, 7, 85
8, 8736, Control_c, 7, 7, 90
8, 8784, Control_c, 7, 7, 95
8, 8832, Control_c, 7, 7, 100
8, 8928, Control_c, 7, 7, 105
8, 9024, Control_c, 7, 7, 110
8, 9120, Control_c, 7, 7, 115
8, 9216, Note_on_c, 7, 69, 120
8, 9216, Control_c, 7, 7, 20
8, 9216, Control_c, 7, 11, 105
8, 9216, Note_on_c, 7, 61, 0
8, 9264, Control_c, 7, 7, 20
8, 9312, Control_c, 7, 7, 22
8, 9360, Control_c, 7, 7, 24
8, 9408, Control_c, 7, 7, 26
8, 9456, Control_c, 7, 7, 28
8, 9504, Control_c, 7, 7, 30
8, 9552, Control_c, 7, 7, 32
8, 9600, Control_c, 7, 7, 34
8, 9648, Control_c, 7, 7, 36
8, 9696, Control_c, 7, 7, 38
8, 9744, Control_c, 7, 7, 40
8, 9792, Control_c, 7, 7, 44
8, 9840, Control_c, 7, 7, 48
8, 9888, Control_c, 7, 7, 52
8, 9936, Control_c, 7, 7, 56
8, 9984, Note_on_c, 7, 71, 100
8, 9984, Control_c, 7, 7, 60
8, 9984, Note_on_c, 7, 69, 0
8, 10032, Control_c, 7, 7, 64
8, 10080, Control_c, 7, 7, 68
8, 10128, Control_c, 7, 7, 72
8, 10176, Control_c, 7, 7, 76
8, 10224, Control_c, 7, 7, 80
8, 10272, Control_c, 7, 7, 84
8, 10320, Control_c, 7, 7, 88
8, 10368, Control_c, 7, 7, 92
8, 10416, Control_c, 7, 7, 96
8, 10464, Control_c, 7, 7, 100
8, 10512, Control_c, 7, 7, 104
8, 10560, Control_c, 7, 7, 108
8, 10608, Control_c, 7, 7, 112
8, 10656, Control_c, 7, 7, 116
8, 10704, Control_c, 7, 7, 110
8, 10752, Control_c, 7, 7, 85
8, 10752, Note_on_c, 7, 59, 100
8, 10752, Note_on_c, 7, 71, 0
8, 10848, Control_c, 7, 7, 95
8, 10944, Control_c, 7, 7, 105
8, 11040, Control_c, 7, 7, 115
8, 11136, Note_on_c, 7, 64, 90
8, 11136, Control_c, 7, 11, 110
8, 11136, Control_c, 7, 7, 85
8, 11136, Note_on_c, 7, 59, 0
8, 11232, Control_c, 7, 7, 95
8, 11328, Control_c, 7, 7, 100
8, 11424, Control_c, 7, 7, 115
8, 11520, Control_c, 7, 7, 85
8, 11616, Control_c, 7, 7, 90
8, 11712, Control_c, 7, 7, 95
8, 11808, Control_c, 7, 7, 100
8, 11904, Control_c, 7, 7, 105
8, 12000, Control_c, 7, 7, 110
8, 12096, Control_c, 7, 7, 115
8, 12192, Control_c, 7, 7, 120
8, 12480, Control_c, 7, 7, 85
8, 12480, Note_on_c, 7, 63, 100
8, 12480, Note_on_c, 7, 64, 0
8, 12528, Control_c, 7, 7, 95
8, 12576, Control_c, 7, 7, 100
8, 12624, Control_c, 7, 7, 115
8, 12668, Note_on_c, 7, 63, 0
8, 12672, Control_c, 7, 7, 85
8, 12672, Note_on_c, 7, 63, 100
8, 12720, Control_c, 7, 7, 95
8, 12768, Control_c, 7, 7, 100
8, 12816, Control_c, 7, 7, 115
8, 12864, Note_on_c, 7, 64, 100
8, 12864, Control_c, 7, 7, 85
8, 12864, Note_on_c, 7, 63, 0
8, 12912, Control_c, 7, 7, 95
8, 12960, Control_c, 7, 7, 100
8, 13008, Control_c, 7, 7, 115
8, 13056, Control_c, 7, 7, 85
8, 13056, Note_on_c, 7, 66, 80
8, 13056, Note_on_c, 7, 64, 0
8, 13104, Control_c, 7, 7, 95
8, 13152, Control_c, 7, 7, 105
8, 13200, Control_c, 7, 7, 115
8, 13248, Control_c, 7, 7, 85
8, 13248, Note_on_c, 7, 66, 0
8, 13824, Control_c, 7, 7, 85
8, 13824, Note_on_c, 7, 64, 100
8, 13872, Control_c, 7, 7, 95
8, 13920, Control_c, 7, 7, 100
8, 13968, Control_c, 7, 7, 115
8, 14016, Control_c, 7, 7, 85
8, 14016, Note_on_c, 7, 59, 100
8, 14016, Note_on_c, 7, 64, 0
8, 14064, Control_c, 7, 7, 95
8, 14112, Control_c, 7, 7, 100
8, 14160, Control_c, 7, 7, 115
8, 14400, Control_c, 7, 7, 85
8, 14400, Note_on_c, 7, 64, 100
8, 14400, Note_on_c, 7, 59, 0
8, 14448, Control_c, 7, 7, 95
8, 14496, Control_c, 7, 7, 100
8, 14544, Control_c, 7, 7, 115
8, 14588, Note_on_c, 7, 64, 0
8, 14592, Control_c, 7, 7, 85
8, 14592, Note_on_c, 7, 64, 100
8, 14640, Control_c, 7, 7, 95
8, 14688, Control_c, 7, 7, 100
8, 14736, Control_c, 7, 7, 115
8, 14780, Note_on_c, 7, 64, 0
8, 14784, Control_c, 7, 7, 85
8, 15360, Control_c, 7, 7, 85
8, 15360, Note_on_c, 7, 62, 100
8, 15456, Control_c, 7, 7, 95
8, 15552, Control_c, 7, 7, 105
8, 15648, Control_c, 7, 7, 115
8, 15936, Note_on_c, 7, 64, 90
8, 15936, Control_c, 7, 7, 85
8, 15936, Note_on_c, 7, 62, 0
8, 15984, Control_c, 7, 7, 95
8, 16032, Control_c, 7, 7, 100
8, 16080, Control_c, 7, 7, 115
8, 16128, Control_c, 7, 7, 85
8, 16128, Note_on_c, 7, 66, 100
8, 16128, Note_on_c, 7, 64, 0
8, 16176, Control_c, 7, 7, 95
8, 16224, Control_c, 7, 7, 100
8, 16272, Control_c, 7, 7, 115
8, 16320, Control_c, 7, 7, 85
8, 16320, Note_on_c, 7, 62, 100
8, 16320, Note_on_c, 7, 66, 0
8, 16368, Control_c, 7, 7, 95
8, 16416, Control_c, 7, 7, 100
8, 16464, Control_c, 7, 7, 115
8, 16508, Note_on_c, 7, 62, 0
8, 16512, Control_c, 7, 7, 85
8, 16512, Note_on_c, 7, 71, 100
8, 16560, Control_c, 7, 7, 95
8, 16608, Control_c, 7, 7, 100
8, 16656, Control_c, 7, 7, 115
8, 16704, Note_on_c, 7, 64, 100
8, 16704, Control_c, 7, 7, 85
8, 16704, Note_on_c, 7, 71, 0
8, 16752, Control_c, 7, 7, 95
8, 16800, Control_c, 7, 7, 105
8, 16848, Control_c, 7, 7, 115
8, 17088, Control_c, 7, 7, 85
8, 17088, Note_on_c, 7, 66, 100
8, 17088, Note_on_c, 7, 64, 0
8, 17136, Control_c, 7, 7, 95
8, 17184, Control_c, 7, 7, 100
8, 17232, Control_c, 7, 7, 115
8, 17276, Note_on_c, 7, 66, 0
8, 17280, Control_c, 7, 7, 85
8, 17280, Note_on_c, 7, 71, 100
8, 17328, Control_c, 7, 7, 95
8, 17376, Control_c, 7, 7, 100
8, 17424, Control_c, 7, 7, 115
8, 17472, Note_on_c, 7, 64, 100
8, 17472, Control_c, 7, 7, 85
8, 17472, Note_on_c, 7, 71, 0
8, 17520, Control_c, 7, 7, 95
8, 17568, Control_c, 7, 7, 105
8, 17616, Control_c, 7, 7, 115
8, 17664, Note_on_c, 7, 61, 100
8, 17664, Control_c, 7, 7, 60
8, 17664, Note_on_c, 7, 64, 0
8, 17712, Control_c, 7, 7, 65
8, 17760, Control_c, 7, 7, 70
8, 17808, Control_c, 7, 7, 75
8, 17856, Control_c, 7, 7, 80
8, 17904, Control_c, 7, 7, 85
8, 17952, Control_c, 7, 7, 90
8, 18000, Control_c, 7, 7, 95
8, 18048, Control_c, 7, 7, 100
8, 18144, Control_c, 7, 7, 105
8, 18240, Control_c, 7, 7, 110
8, 18336, Control_c, 7, 7, 115
8, 18432, Note_on_c, 7, 64, 90
8, 18432, Control_c, 7, 7, 60
8, 18432, Note_on_c, 7, 61, 0
8, 18528, Control_c, 7, 7, 70
8, 18624, Control_c, 7, 7, 80
8, 18720, Control_c, 7, 7, 90
8, 18816, Control_c, 7, 7, 100
8, 18912, Control_c, 7, 7, 110
8, 19008, Control_c, 7, 7, 115
8, 19104, Control_c, 7, 7, 120
8, 19392, Control_c, 7, 7, 85
8, 19392, Note_on_c, 7, 63, 100
8, 19392, Note_on_c, 7, 64, 0
8, 19416, Control_c, 7, 7, 95
8, 19440, Control_c, 7, 7, 100
8, 19464, Control_c, 7, 7, 115
8, 19488, Control_c, 7, 7, 85
8, 19488, Note_on_c, 7, 64, 100
8, 19488, Note_on_c, 7, 63, 0
8, 19512, Control_c, 7, 7, 95
8, 19536, Control_c, 7, 7, 100
8, 19560, Control_c, 7, 7, 115
8, 19584, Note_on_c, 7, 66, 120
8, 19584, Control_c, 7, 7, 85
8, 19584, Note_on_c, 7, 64, 0
8, 19632, Control_c, 7, 7, 95
8, 19680, Control_c, 7, 7, 100
8, 19728, Control_c, 7, 7, 115
8, 20064, Control_c, 7, 7, 85
8, 20064, Note_on_c, 7, 67, 100
8, 20064, Note_on_c, 7, 66, 0
8, 20088, Control_c, 7, 8, 95
8, 20112, Control_c, 7, 8, 105
8, 20136, Control_c, 7, 8, 115
8, 20160, Control_c, 7, 7, 85
8, 20160, Note_on_c, 7, 69, 110
8, 20160, Note_on_c, 7, 67, 0
8, 20184, Control_c, 7, 7, 95
8, 20208, Control_c, 7, 7, 105
8, 20232, Control_c, 7, 7, 115
8, 20256, Control_c, 7, 7, 85
8, 20256, Note_on_c, 7, 66, 100
8, 20256, Note_on_c, 7, 69, 0
8, 20280, Control_c, 7, 7, 95
8, 20304, Control_c, 7, 7, 105
8, 20328, Control_c, 7, 7, 115
8, 20352, Control_c, 7, 7, 85
8, 20352, Note_on_c, 7, 63, 100
8, 20352, Note_on_c, 7, 66, 0
8, 20400, Control_c, 7, 7, 95
8, 20448, Control_c, 7, 7, 105
8, 20496, Control_c, 7, 7, 115
8, 20544, Note_on_c, 7, 71, 105
8, 20544, Control_c, 7, 7, 85
8, 20544, Note_on_c, 7, 63, 0
8, 20592, Control_c, 7, 7, 95
8, 20640, Control_c, 7, 7, 105
8, 20688, Control_c, 7, 7, 115
8, 20736, Control_c, 7, 7, 70
8, 20784, Control_c, 7, 7, 80
8, 20832, Control_c, 7, 7, 90
8, 20880, Control_c, 7, 7, 100
8, 20928, Control_c, 7, 7, 110
8, 20976, Control_c, 7, 7, 115
8, 21120, Note_on_c, 7, 59, 105
8, 21120, Control_c, 7, 7, 70
8, 21120, Note_on_c, 7, 71, 0
8, 21168, Control_c, 7, 7, 80
8, 21216, Control_c, 7, 7, 90
8, 21264, Control_c, 7, 7, 100
8, 21312, Control_c, 7, 7, 110
8, 21360, Control_c, 7, 7, 115
8, 21504, Control_c, 7, 7, 85
8, 21504, Note_on_c, 7, 61, 90
8, 21504, Note_on_c, 7, 59, 0
8, 21528, Control_c, 7, 7, 95
8, 21552, Control_c, 7, 7, 105
8, 21576, Control_c, 7, 7, 115
8, 21600, Control_c, 7, 7, 85
8, 21600, Note_on_c, 7, 62, 100
8, 21600, Note_on_c, 7, 61, 0
8, 21624, Control_c, 7, 7, 95
8, 21648, Control_c, 7, 7, 105
8, 21672, Control_c, 7, 7, 115
8, 21696, Control_c, 7, 7, 85
8, 21696, Note_on_c, 7, 64, 105
8, 21696, Note_on_c, 7, 62, 0
8, 21720, Control_c, 7, 7, 95
8, 21744, Control_c, 7, 7, 105
8, 21768, Control_c, 7, 7, 115
8, 21792, Control_c, 7, 7, 85
8, 21792, Note_on_c, 7, 66, 110
8, 21792, Note_on_c, 7, 64, 0
8, 21816, Control_c, 7, 7, 95
8, 21840, Control_c, 7, 7, 105
8, 21864, Control_c, 7, 7, 115
8, 21888, Control_c, 7, 7, 85
8, 21888, Note_on_c, 7, 67, 115
8, 21888, Note_on_c, 7, 66, 0
8, 21912, Control_c, 7, 7, 95
8, 21936, Control_c, 7, 7, 105
8, 21960, Control_c, 7, 7, 115
8, 21984, Control_c, 7, 7, 85
8, 21984, Note_on_c, 7, 66, 105
8, 21984, Note_on_c, 7, 67, 0
8, 22008, Control_c, 7, 7, 95
8, 22032, Control_c, 7, 7, 105
8, 22056, Control_c, 7, 7, 115
8, 22080, Control_c, 7, 7, 85
8, 22080, Note_on_c, 7, 67, 115
8, 22080, Note_on_c, 7, 66, 0
8, 22104, Control_c, 7, 7, 95
8, 22128, Control_c, 7, 7, 105
8, 22152, Control_c, 7, 7, 115
8, 22176, Note_on_c, 7, 64, 100
8, 22176, Control_c, 7, 7, 85
8, 22176, Note_on_c, 7, 67, 0
8, 22200, Control_c, 7, 7, 85
8, 22224, Control_c, 7, 7, 95
8, 22248, Control_c, 7, 7, 115
8, 22272, Control_c, 7, 7, 85
8, 22272, Note_on_c, 7, 66, 95
8, 22272, Note_on_c, 7, 64, 0
8, 22320, Control_c, 7, 7, 95
8, 22368, Control_c, 7, 7, 105
8, 22416, Control_c, 7, 7, 115
8, 22464, Control_c, 7, 7, 85
8, 22464, Note_on_c, 7, 64, 100
8, 22464, Note_on_c, 7, 66, 0
8, 22488, Control_c, 7, 7, 95
8, 22512, Control_c, 7, 7, 105
8, 22536, Control_c, 7, 7, 115
8, 22560, Control_c, 7, 7, 85
8, 22560, Note_on_c, 7, 62, 90
8, 22560, Note_on_c, 7, 64, 0
8, 22584, Control_c, 7, 7, 95
8, 22608, Control_c, 7, 7, 105
8, 22632, Control_c, 7, 7, 115
8, 22656, Control_c, 7, 7, 85
8, 22656, Note_on_c, 7, 61, 100
8, 22656, Note_on_c, 7, 62, 0
8, 22704, Control_c, 7, 7, 95
8, 22752, Control_c, 7, 7, 105
8, 22800, Control_c, 7, 7, 115
8, 22848, Note_on_c, 7, 66, 105
8, 22848, Control_c, 7, 7, 85
8, 22848, Note_on_c, 7, 61, 0
8, 22896, Control_c, 7, 7, 95
8, 22944, Control_c, 7, 7, 105
8, 22992, Control_c, 7, 7, 115
8, 23040, Control_c, 7, 7, 85
8, 23088, Control_c, 7, 7, 95
8, 23136, Control_c, 7, 7, 105
8, 23184, Control_c, 7, 7, 115
8, 23228, Note_on_c, 7, 66, 0
8, 23232, Control_c, 7, 7, 85
8, 23232, Note_on_c, 7, 64, 100
8, 23256, Control_c, 7, 7, 95
8, 23280, Control_c, 7, 7, 105
8, 23304, Control_c, 7, 7, 115
8, 23324, Note_on_c, 7, 64, 0
8, 23328, Control_c, 7, 7, 85
8, 23328, Note_on_c, 7, 62, 95
8, 23352, Control_c, 7, 7, 95
8, 23376, Control_c, 7, 7, 105
8, 23400, Control_c, 7, 7, 115
8, 23420, Note_on_c, 7, 62, 0
8, 23424, Control_c, 7, 7, 85
8, 23424, Control_c, 7, 7, 85
8, 23424, Note_on_c, 7, 67, 110
8, 23472, Control_c, 7, 7, 95
8, 23520, Control_c, 7, 7, 105
8, 23568, Control_c, 7, 7, 115
8, 23612, Note_on_c, 7, 67, 0
8, 23616, Control_c, 7, 7, 85
8, 23616, Note_on_c, 7, 64, 100
8, 23640, Control_c, 7, 7, 95
8, 23664, Control_c, 7, 7, 105
8, 23688, Control_c, 7, 7, 115
8, 23708, Note_on_c, 7, 64, 0
8, 23712, Control_c, 7, 7, 85
8, 23712, Note_on_c, 7, 62, 95
8, 23736, Control_c, 7, 7, 95
8, 23760, Control_c, 7, 7, 105
8, 23784, Control_c, 7, 7, 115
8, 23804, Note_on_c, 7, 62, 0
8, 23808, Control_c, 7, 7, 85
8, 23808, Control_c, 7, 7, 60
8, 23808, Note_on_c, 7, 62, 100
8, 23856, Control_c, 7, 7, 65
8, 23904, Control_c, 7, 7, 70
8, 23952, Control_c, 7, 7, 75
8, 24000, Control_c, 7, 7, 80
8, 24048, Control_c, 7, 7, 85
8, 24096, Control_c, 7, 7, 90
8, 24144, Control_c, 7, 7, 95
8, 24192, Control_c, 7, 7, 100
8, 24288, Control_c, 7, 7, 105
8, 24384, Control_c, 7, 7, 110
8, 24480, Control_c, 7, 7, 115
8, 24568, Note_on_c, 7, 62, 0
8, 24576, Control_c, 7, 7, 85
8, 24576, Note_on_c, 7, 59, 110
8, 24600, Control_c, 7, 7, 95
8, 24624, Control_c, 7, 7, 105
8, 24648, Control_c, 7, 7, 115
8, 24764, Note_on_c, 7, 59, 0
8, 24768, Control_c, 7, 7, 85
8, 24768, Note_on_c, 7, 71, 100
8, 24816, Control_c, 7, 7, 95
8, 24864, Control_c, 7, 7, 105
8, 24912, Control_c, 7, 7, 115
8, 24956, Note_on_c, 7, 71, 0
8, 24960, Control_c, 7, 7, 85
8, 24960, Note_on_c, 7, 69, 95
8, 24984, Control_c, 7, 7, 95
8, 25008, Control_c, 7, 7, 105
8, 25032, Control_c, 7, 7, 115
8, 25052, Note_on_c, 7, 69, 0
8, 25056, Control_c, 7, 7, 85
8, 25056, Control_c, 7, 7, 85
8, 25056, Note_on_c, 7, 68, 110
8, 25080, Control_c, 7, 7, 95
8, 25104, Control_c, 7, 7, 105
8, 25128, Control_c, 7, 7, 115
8, 25148, Note_on_c, 7, 68, 0
8, 25152, Control_c, 7, 7, 85
8, 25152, Note_on_c, 7, 69, 100
8, 25200, Control_c, 7, 7, 95
8, 25248, Control_c, 7, 7, 105
8, 25296, Control_c, 7, 7, 115
8, 25340, Note_on_c, 7, 69, 0
8, 25344, Control_c, 7, 7, 85
8, 25344, Note_on_c, 7, 68, 110
8, 25368, Control_c, 7, 7, 95
8, 25392, Control_c, 7, 7, 105
8, 25416, Control_c, 7, 7, 115
8, 25632, Control_c, 7, 7, 85
8, 25632, Note_on_c, 7, 66, 100
8, 25632, Note_on_c, 7, 68, 0
8, 25656, Control_c, 7, 7, 95
8, 25680, Control_c, 7, 7, 105
8, 25704, Control_c, 7, 7, 115
8, 25724, Note_on_c, 7, 66, 0
8, 25728, Note_on_c, 7, 64, 95
8, 25728, Control_c, 7, 7, 85
8, 25776, Control_c, 7, 7, 95
8, 25824, Control_c, 7, 7, 105
8, 25872, Control_c, 7, 7, 115
8, 26300, Note_on_c, 7, 64, 0
8, 26304, Control_c, 7, 7, 85
8, 26304, Note_on_c, 7, 64, 110
8, 26328, Control_c, 7, 7, 95
8, 26352, Control_c, 7, 7, 105
8, 26400, Control_c, 7, 7, 115
8, 26492, Note_on_c, 7, 64, 0
8, 26496, Control_c, 7, 7, 85
8, 26496, Note_on_c, 7, 66, 110
8, 26520, Control_c, 7, 7, 95
8, 26544, Control_c, 7, 7, 105
8, 26592, Control_c, 7, 7, 115
8, 26684, Note_on_c, 7, 66, 0
8, 26688, Control_c, 7, 7, 85
8, 26688, Note_on_c, 7, 64, 110
8, 26712, Control_c, 7, 7, 95
8, 26736, Control_c, 7, 7, 105
8, 26784, Control_c, 7, 7, 115
8, 26876, Note_on_c, 7, 64, 0
8, 26880, Control_c, 7, 7, 85
8, 26880, Note_on_c, 7, 64, 110
8, 26904, Control_c, 7, 7, 95
8, 26928, Control_c, 7, 7, 105
8, 26952, Control_c, 7, 7, 115
8, 27168, Control_c, 7, 7, 85
8, 27168, Note_on_c, 7, 62, 100
8, 27168, Note_on_c, 7, 64, 0
8, 27192, Control_c, 7, 7, 95
8, 27216, Control_c, 7, 7, 105
8, 27240, Control_c, 7, 7, 115
8, 27260, Note_on_c, 7, 62, 0
8, 27264, Control_c, 7, 7, 85
8, 27264, Note_on_c, 7, 61, 100
8, 27288, Control_c, 7, 7, 95
8, 27312, Control_c, 7, 7, 105
8, 27336, Control_c, 7, 7, 115
8, 27356, Note_on_c, 7, 61, 0
8, 27360, Control_c, 7, 7, 85
8, 27360, Note_on_c, 7, 62, 115
8, 27384, Control_c, 7, 7, 95
8, 27408, Control_c, 7, 7, 105
8, 27432, Control_c, 7, 7, 115
8, 27452, Note_on_c, 7, 62, 0
8, 27456, Control_c, 7, 7, 85
8, 27456, Note_on_c, 7, 64, 120
8, 27480, Control_c, 7, 7, 95
8, 27504, Control_c, 7, 7, 105
8, 27528, Control_c, 7, 7, 115
8, 27548, Note_on_c, 7, 64, 0
8, 27552, Control_c, 7, 7, 85
8, 27552, Note_on_c, 7, 61, 95
8, 27576, Control_c, 7, 7, 95
8, 27600, Control_c, 7, 7, 105
8, 27624, Control_c, 7, 7, 115
8, 27644, Note_on_c, 7, 61, 0
8, 27648, Control_c, 7, 7, 85
8, 27648, Note_on_c, 7, 57, 110
8, 27672, Control_c, 7, 7, 95
8, 27696, Control_c, 7, 7, 105
8, 27744, Control_c, 7, 7, 115
8, 27836, Note_on_c, 7, 57, 0
8, 27840, Control_c, 7, 7, 85
8, 27840, Note_on_c, 7, 62, 120
8, 27888, Control_c, 7, 7, 95
8, 27936, Control_c, 7, 7, 105
8, 27984, Control_c, 7, 7, 115
8, 28220, Note_on_c, 7, 62, 0
8, 28224, Note_on_c, 7, 59, 100
8, 28224, Control_c, 7, 7, 85
8, 28272, Control_c, 7, 7, 95
8, 28320, Control_c, 7, 7, 105
8, 28368, Control_c, 7, 7, 115
8, 28440, Control_c, 7, 7, 95
8, 28464, Control_c, 7, 7, 105
8, 28512, Control_c, 7, 7, 115
8, 28604, Note_on_c, 7, 59, 0
8, 28608, Control_c, 7, 7, 85
8, 28608, Note_on_c, 7, 64, 120
8, 28656, Control_c, 7, 7, 95
8, 28704, Control_c, 7, 7, 105
8, 28752, Control_c, 7, 7, 115
8, 28988, Note_on_c, 7, 64, 0
8, 28992, Note_on_c, 7, 61, 100
8, 28992, Control_c, 7, 7, 85
8, 29040, Control_c, 7, 7, 95
8, 29088, Control_c, 7, 7, 105
8, 29136, Control_c, 7, 7, 115
8, 29208, Control_c, 7, 7, 95
8, 29232, Control_c, 7, 7, 105
8, 29280, Control_c, 7, 7, 115
8, 29372, Note_on_c, 7, 61, 0
8, 29376, Control_c, 7, 7, 85
8, 29376, Note_on_c, 7, 66, 120
8, 29424, Control_c, 7, 7, 95
8, 29472, Control_c, 7, 7, 105
8, 29520, Control_c, 7, 7, 115
8, 29756, Note_on_c, 7, 66, 0
8, 29760, Note_on_c, 7, 63, 100
8, 29760, Control_c, 7, 7, 85
8, 29808, Control_c, 7, 7, 95
8, 29856, Control_c, 7, 7, 105
8, 29904, Control_c, 7, 7, 115
8, 29952, Control_c, 7, 7, 85
8, 29952, Note_on_c, 7, 59, 110
8, 29952, Note_on_c, 7, 63, 0
8, 30000, Control_c, 7, 7, 95
8, 30048, Control_c, 7, 7, 105
8, 30096, Control_c, 7, 7, 115
8, 30432, Control_c, 7, 7, 70
8, 30432, Note_on_c, 7, 71, 100
8, 30432, Note_on_c, 7, 59, 0
8, 30444, Control_c, 7, 7, 80
8, 30456, Control_c, 7, 7, 90
8, 30480, Control_c, 7, 7, 100
8, 30504, Control_c, 7, 7, 115
8, 30528, Control_c, 7, 7, 85
8, 30528, Note_on_c, 7, 67, 100
8, 30528, Note_on_c, 7, 71, 0
8, 30552, Control_c, 7, 7, 95
8, 30576, Control_c, 7, 7, 105
8, 30600, Control_c, 7, 7, 115
8, 30624, Note_on_c, 7, 64, 100
8, 30624, Control_c, 7, 7, 85
8, 30624, Note_on_c, 7, 67, 0
8, 30648, Control_c, 7, 7, 95
8, 30672, Control_c, 7, 7, 105
8, 30696, Control_c, 7, 7, 115
8, 30720, Control_c, 7, 7, 85
8, 30720, Note_on_c, 7, 69, 95
8, 30720, Note_on_c, 7, 64, 0
8, 30744, Control_c, 7, 7, 95
8, 30768, Control_c, 7, 7, 105
8, 30816, Control_c, 7, 7, 115
8, 30908, Note_on_c, 7, 69, 0
8, 30912, Control_c, 7, 7, 85
8, 30912, Note_on_c, 7, 67, 110
8, 30936, Control_c, 7, 7, 95
8, 30960, Control_c, 7, 7, 105
8, 31008, Control_c, 7, 7, 115
8, 31100, Note_on_c, 7, 67, 0
8, 31104, Control_c, 7, 7, 85
8, 31104, Note_on_c, 7, 66, 110
8, 31128, Control_c, 7, 7, 95
8, 31152, Control_c, 7, 7, 105
8, 31200, Control_c, 7, 7, 115
8, 31292, Note_on_c, 7, 66, 0
8, 31296, Control_c, 7, 7, 85
8, 31296, Note_on_c, 7, 64, 110
8, 31320, Control_c, 7, 7, 95
8, 31344, Control_c, 7, 7, 105
8, 31392, Control_c, 7, 7, 115
8, 31484, Note_on_c, 7, 64, 0
8, 31488, Control_c, 7, 7, 85
8, 31488, Note_on_c, 7, 62, 100
8, 31512, Control_c, 7, 7, 90
8, 31536, Control_c, 7, 7, 95
8, 31560, Control_c, 7, 7, 100
8, 31584, Control_c, 7, 7, 105
8, 31608, Control_c, 7, 7, 110
8, 31632, Control_c, 7, 7, 115
8, 31868, Note_on_c, 7, 62, 0
8, 31872, Control_c, 7, 7, 85
8, 31872, Note_on_c, 7, 69, 110
8, 31896, Control_c, 7, 7, 90
8, 31920, Control_c, 7, 7, 95
8, 31944, Control_c, 7, 7, 100
8, 31968, Control_c, 7, 7, 105
8, 31992, Control_c, 7, 7, 110
8, 32016, Control_c, 7, 7, 115
8, 32252, Note_on_c, 7, 69, 0
8, 32256, Note_on_c, 7, 69, 110
8, 32444, Note_on_c, 7, 69, 0
8, 32448, Control_c, 7, 7, 85
8, 32448, Note_on_c, 7, 67, 100
8, 32472, Control_c, 7, 7, 95
8, 32496, Control_c, 7, 7, 105
8, 32544, Control_c, 7, 7, 115
8, 32636, Note_on_c, 7, 67, 0
8, 32640, Control_c, 7, 7, 85
8, 32640, Note_on_c, 7, 69, 110
8, 32664, Control_c, 7, 7, 90
8, 32688, Control_c, 7, 7, 95
8, 32712, Control_c, 7, 7, 100
8, 32736, Control_c, 7, 7, 105
8, 32760, Control_c, 7, 7, 110
8, 32784, Control_c, 7, 7, 115
8, 33020, Note_on_c, 7, 69, 0
8, 33024, Control_c, 7, 7, 85
8, 33024, Note_on_c, 7, 62, 110
8, 33072, Control_c, 7, 7, 90
8, 33120, Control_c, 7, 7, 95
8, 33168, Control_c, 7, 7, 100
8, 33216, Control_c, 7, 7, 105
8, 33264, Control_c, 7, 7, 110
8, 33312, Control_c, 7, 7, 115
8, 33784, Note_on_c, 7, 62, 0
8, 33792, Control_c, 7, 7, 85
8, 33792, Note_on_c, 7, 64, 100
8, 33816, Control_c, 7, 7, 95
8, 33840, Control_c, 7, 7, 105
8, 33864, Control_c, 7, 7, 115
8, 33888, Control_c, 7, 7, 85
8, 33888, Note_on_c, 7, 59, 90
8, 33888, Note_on_c, 7, 64, 0
8, 33912, Control_c, 7, 7, 95
8, 33936, Control_c, 7, 7, 105
8, 33960, Control_c, 7, 7, 115
8, 33984, Control_c, 7, 7, 85
8, 33984, Note_on_c, 7, 64, 105
8, 33984, Note_on_c, 7, 59, 0
8, 34008, Control_c, 7, 7, 95
8, 34032, Control_c, 7, 7, 105
8, 34056, Control_c, 7, 7, 115
8, 34080, Control_c, 7, 7, 85
8, 34080, Note_on_c, 7, 67, 110
8, 34080, Note_on_c, 7, 64, 0
8, 34104, Control_c, 7, 7, 95
8, 34128, Control_c, 7, 7, 105
8, 34152, Control_c, 7, 7, 115
8, 34176, Control_c, 7, 7, 85
8, 34176, Note_on_c, 7, 71, 115
8, 34176, Note_on_c, 7, 67, 0
8, 34200, Control_c, 7, 7, 95
8, 34224, Control_c, 7, 7, 105
8, 34248, Control_c, 7, 7, 115
8, 34272, Control_c, 7, 7, 85
8, 34272, Note_on_c, 7, 69, 105
8, 34272, Note_on_c, 7, 71, 0
8, 34296, Control_c, 7, 7, 95
8, 34320, Control_c, 7, 7, 105
8, 34344, Control_c, 7, 7, 115
8, 34368, Control_c, 7, 7, 85
8, 34368, Note_on_c, 7, 67, 100
8, 34368, Note_on_c, 7, 69, 0
8, 34392, Control_c, 7, 7, 95
8, 34416, Control_c, 7, 7, 105
8, 34440, Control_c, 7, 7, 115
8, 34464, Note_on_c, 7, 66, 95
8, 34464, Control_c, 7, 7, 85
8, 34464, Note_on_c, 7, 67, 0
8, 34488, Control_c, 7, 7, 85
8, 34512, Control_c, 7, 7, 95
8, 34536, Control_c, 7, 7, 115
8, 34560, Control_c, 7, 7, 85
8, 34560, Note_on_c, 7, 64, 100
8, 34560, Note_on_c, 7, 66, 0
8, 34584, Control_c, 7, 7, 90
8, 34608, Control_c, 7, 7, 95
8, 34632, Control_c, 7, 7, 100
8, 34656, Control_c, 7, 7, 105
8, 34680, Control_c, 7, 8, 100
8, 34704, Control_c, 7, 7, 115
8, 34752, Control_c, 7, 7, 85
8, 34752, Note_on_c, 7, 69, 100
8, 34752, Note_on_c, 7, 64, 0
8, 34776, Control_c, 7, 7, 90
8, 34800, Control_c, 7, 7, 95
8, 34824, Control_c, 7, 7, 100
8, 34848, Control_c, 7, 7, 105
8, 34872, Control_c, 7, 7, 110
8, 34896, Control_c, 7, 7, 115
8, 35136, Control_c, 7, 7, 85
8, 35136, Note_on_c, 7, 67, 100
8, 35136, Note_on_c, 7, 69, 0
8, 35160, Control_c, 7, 7, 90
8, 35184, Control_c, 7, 7, 95
8, 35208, Control_c, 7, 7, 100
8, 35232, Control_c, 7, 7, 105
8, 35256, Control_c, 7, 7, 110
8, 35280, Control_c, 7, 7, 115
8, 35324, Note_on_c, 7, 67, 0
8, 35328, Control_c, 7, 7, 85
8, 35328, Note_on_c, 7, 66, 100
8, 35352, Control_c, 7, 7, 90
8, 35376, Control_c, 7, 7, 95
8, 35400, Control_c, 7, 7, 100
8, 35424, Control_c, 7, 7, 105
8, 35448, Control_c, 7, 7, 110
8, 35472, Control_c, 7, 7, 115
8, 35704, Note_on_c, 7, 66, 0
8, 35712, Control_c, 7, 7, 85
8, 35712, Note_on_c, 7, 64, 100
8, 35736, Control_c, 7, 7, 95
8, 35760, Control_c, 7, 7, 105
8, 35784, Control_c, 7, 7, 115
8, 35900, Note_on_c, 7, 64, 0
8, 35904, Control_c, 7, 7, 85
8, 35904, Note_on_c, 7, 57, 100
8, 35928, Control_c, 7, 7, 95
8, 35952, Control_c, 7, 7, 105
8, 35976, Control_c, 7, 7, 115
8, 36092, Note_on_c, 7, 57, 0
8, 36096, Control_c, 7, 7, 60
8, 36096, Note_on_c, 7, 57, 100
8, 36144, Control_c, 7, 7, 65
8, 36192, Control_c, 7, 7, 70
8, 36240, Control_c, 7, 7, 75
8, 36288, Control_c, 7, 7, 80
8, 36336, Control_c, 7, 7, 85
8, 36384, Control_c, 7, 7, 90
8, 36432, Control_c, 7, 7, 95
8, 36480, Control_c, 7, 7, 100
8, 36576, Control_c, 7, 7, 105
8, 36672, Control_c, 7, 7, 110
8, 36768, Control_c, 7, 7, 115
8, 36856, Note_on_c, 7, 57, 0
8, 36864, Note_on_c, 7, 64, 90
8, 36864, Control_c, 7, 7, 60
8, 36960, Control_c, 7, 7, 70
8, 37056, Control_c, 7, 7, 80
8, 37152, Control_c, 7, 7, 90
8, 37248, Control_c, 7, 7, 100
8, 37344, Control_c, 7, 7, 110
8, 37440, Control_c, 7, 7, 115
8, 37536, Control_c, 7, 7, 120
8, 37824, Control_c, 7, 7, 85
8, 37824, Note_on_c, 7, 63, 100
8, 37824, Note_on_c, 7, 64, 0
8, 37848, Control_c, 7, 7, 95
8, 37872, Control_c, 7, 7, 100
8, 37896, Control_c, 7, 7, 115
8, 37920, Control_c, 7, 7, 85
8, 37920, Note_on_c, 7, 64, 100
8, 37920, Note_on_c, 7, 63, 0
8, 37944, Control_c, 7, 7, 95
8, 37968, Control_c, 7, 7, 100
8, 37992, Control_c, 7, 7, 115
8, 38016, Note_on_c, 7, 66, 120
8, 38016, Control_c, 7, 7, 85
8, 38016, Note_on_c, 7, 64, 0
8, 38064, Control_c, 7, 7, 95
8, 38112, Control_c, 7, 7, 100
8, 38160, Control_c, 7, 7, 115
8, 38496, Control_c, 7, 7, 85
8, 38496, Note_on_c, 7, 67, 100
8, 38496, Note_on_c, 7, 66, 0
8, 38520, Control_c, 7, 8, 95
8, 38544, Control_c, 7, 8, 105
8, 38568, Control_c, 7, 8, 115
8, 38592, Control_c, 7, 7, 85
8, 38592, Note_on_c, 7, 69, 110
8, 38592, Note_on_c, 7, 67, 0
8, 38616, Control_c, 7, 7, 95
8, 38640, Control_c, 7, 7, 105
8, 38664, Control_c, 7, 7, 115
8, 38688, Control_c, 7, 7, 85
8, 38688, Note_on_c, 7, 66, 100
8, 38688, Note_on_c, 7, 69, 0
8, 38712, Control_c, 7, 7, 95
8, 38736, Control_c, 7, 7, 105
8, 38760, Control_c, 7, 7, 115
8, 38784, Control_c, 7, 7, 85
8, 38784, Note_on_c, 7, 63, 100
8, 38784, Note_on_c, 7, 66, 0
8, 38832, Control_c, 7, 7, 95
8, 38880, Control_c, 7, 7, 105
8, 38928, Control_c, 7, 7, 115
8, 38976, Note_on_c, 7, 71, 105
8, 38976, Control_c, 7, 7, 85
8, 38976, Note_on_c, 7, 63, 0
8, 39024, Control_c, 7, 7, 95
8, 39072, Control_c, 7, 7, 105
8, 39120, Control_c, 7, 7, 115
8, 39168, Control_c, 7, 7, 70
8, 39216, Control_c, 7, 7, 80
8, 39264, Control_c, 7, 7, 90
8, 39312, Control_c, 7, 7, 100
8, 39360, Control_c, 7, 7, 110
8, 39408, Control_c, 7, 7, 115
8, 39552, Note_on_c, 7, 59, 105
8, 39552, Control_c, 7, 7, 70
8, 39552, Note_on_c, 7, 71, 0
8, 39600, Control_c, 7, 7, 80
8, 39648, Control_c, 7, 7, 90
8, 39696, Control_c, 7, 7, 100
8, 39744, Control_c, 7, 7, 110
8, 39792, Control_c, 7, 7, 115
8, 39936, Control_c, 7, 7, 85
8, 39936, Note_on_c, 7, 61, 90
8, 39936, Note_on_c, 7, 59, 0
8, 39960, Control_c, 7, 7, 95
8, 39984, Control_c, 7, 7, 105
8, 40008, Control_c, 7, 7, 115
8, 40032, Control_c, 7, 7, 85
8, 40032, Note_on_c, 7, 62, 100
8, 40032, Note_on_c, 7, 61, 0
8, 40056, Control_c, 7, 7, 95
8, 40080, Control_c, 7, 7, 105
8, 40104, Control_c, 7, 7, 115
8, 40128, Control_c, 7, 7, 85
8, 40128, Note_on_c, 7, 64, 105
8, 40128, Note_on_c, 7, 62, 0
8, 40152, Control_c, 7, 7, 95
8, 40176, Control_c, 7, 7, 105
8, 40200, Control_c, 7, 7, 115
8, 40224, Control_c, 7, 7, 85
8, 40224, Note_on_c, 7, 66, 110
8, 40224, Note_on_c, 7, 64, 0
8, 40248, Control_c, 7, 7, 95
8, 40272, Control_c, 7, 7, 105
8, 40296, Control_c, 7, 7, 115
8, 40320, Control_c, 7, 7, 85
8, 40320, Note_on_c, 7, 67, 115
8, 40320, Note_on_c, 7, 66, 0
8, 40344, Control_c, 7, 7, 95
8, 40368, Control_c, 7, 7, 105
8, 40392, Control_c, 7, 7, 115
8, 40416, Control_c, 7, 7, 85
8, 40416, Note_on_c, 7, 66, 105
8, 40416, Note_on_c, 7, 67, 0
8, 40440, Control_c, 7, 7, 95
8, 40464, Control_c, 7, 7, 105
8, 40488, Control_c, 7, 7, 115
8, 40512, Control_c, 7, 7, 85
8, 40512, Note_on_c, 7, 67, 115
8, 40512, Note_on_c, 7, 66, 0
8, 40536, Control_c, 7, 7, 95
8, 40560, Control_c, 7, 7, 105
8, 40584, Control_c, 7, 7, 115
8, 40608, Note_on_c, 7, 64, 100
8, 40608, Control_c, 7, 7, 85
8, 40608, Note_on_c, 7, 67, 0
8, 40632, Control_c, 7, 7, 85
8, 40656, Control_c, 7, 7, 95
8, 40680, Control_c, 7, 7, 115
8, 40704, Control_c, 7, 7, 85
8, 40704, Note_on_c, 7, 66, 95
8, 40704, Note_on_c, 7, 64, 0
8, 40752, Control_c, 7, 7, 95
8, 40800, Control_c, 7, 7, 105
8, 40848, Control_c, 7, 7, 115
8, 40896, Control_c, 7, 7, 85
8, 40896, Note_on_c, 7, 64, 100
8, 40896, Note_on_c, 7, 66, 0
8, 40920, Control_c, 7, 7, 95
8, 40944, Control_c, 7, 7, 105
8, 40968, Control_c, 7, 7, 115
8, 40992, Control_c, 7, 7, 85
8, 40992, Note_on_c, 7, 62, 90
8, 40992, Note_on_c, 7, 64, 0
8, 41016, Control_c, 7, 7, 95
8, 41040, Control_c, 7, 7, 105
8, 41064, Control_c, 7, 7, 115
8, 41088, Control_c, 7, 7, 85
8, 41088, Note_on_c, 7, 61, 100
8, 41088, Note_on_c, 7, 62, 0
8, 41136, Control_c, 7, 7, 95
8, 41184, Control_c, 7, 7, 105
8, 41232, Control_c, 7, 7, 115
8, 41280, Note_on_c, 7, 66, 105
8, 41280, Control_c, 7, 7, 85
8, 41280, Note_on_c, 7, 61, 0
8, 41328, Control_c, 7, 7, 95
8, 41376, Control_c, 7, 7, 105
8, 41424, Control_c, 7, 7, 115
8, 41472, Control_c, 7, 7, 85
8, 41520, Control_c, 7, 7, 95
8, 41568, Control_c, 7, 7, 105
8, 41616, Control_c, 7, 7, 115
8, 41660, Note_on_c, 7, 66, 0
8, 41664, Control_c, 7, 7, 85
8, 41664, Note_on_c, 7, 64, 100
8, 41688, Control_c, 7, 7, 95
8, 41712, Control_c, 7, 7, 105
8, 41736, Control_c, 7, 7, 115
8, 41756, Note_on_c, 7, 64, 0
8, 41760, Control_c, 7, 7, 85
8, 41760, Note_on_c, 7, 62, 95
8, 41784, Control_c, 7, 7, 95
8, 41808, Control_c, 7, 7, 105
8, 41832, Control_c, 7, 7, 115
8, 41852, Note_on_c, 7, 62, 0
8, 41856, Control_c, 7, 7, 85
8, 41856, Control_c, 7, 7, 85
8, 41856, Note_on_c, 7, 67, 110
8, 41904, Control_c, 7, 7, 95
8, 41952, Control_c, 7, 7, 105
8, 42000, Control_c, 7, 7, 115
8, 42044, Note_on_c, 7, 67, 0
8, 42048, Control_c, 7, 7, 85
8, 42048, Note_on_c, 7, 64, 100
8, 42072, Control_c, 7, 7, 95
8, 42096, Control_c, 7, 7, 105
8, 42120, Control_c, 7, 7, 115
8, 42140, Note_on_c, 7, 64, 0
8, 42144, Control_c, 7, 7, 85
8, 42144, Note_on_c, 7, 62, 95
8, 42168, Control_c, 7, 7, 95
8, 42192, Control_c, 7, 7, 105
8, 42216, Control_c, 7, 7, 115
8, 42236, Note_on_c, 7, 62, 0
8, 42240, Control_c, 7, 7, 85
8, 42240, Control_c, 7, 7, 60
8, 42240, Note_on_c, 7, 62, 100
8, 42288, Control_c, 7, 7, 65
8, 42336, Control_c, 7, 7, 70
8, 42384, Control_c, 7, 7, 75
8, 42432, Control_c, 7, 7, 80
8, 42480, Control_c, 7, 7, 85
8, 42528, Control_c, 7, 7, 90
8, 42576, Control_c, 7, 7, 95
8, 42624, Control_c, 7, 7, 100
8, 42720, Control_c, 7, 7, 105
8, 42816, Control_c, 7, 7, 110
8, 42912, Control_c, 7, 7, 115
8, 43000, Note_on_c, 7, 62, 0
8, 43008, Control_c, 7, 7, 85
8, 43008, Note_on_c, 7, 59, 110
8, 43032, Control_c, 7, 7, 95
8, 43056, Control_c, 7, 7, 105
8, 43080, Control_c, 7, 7, 115
8, 43196, Note_on_c, 7, 59, 0
8, 43200, Control_c, 7, 7, 85
8, 43200, Note_on_c, 7, 71, 100
8, 43248, Control_c, 7, 7, 95
8, 43296, Control_c, 7, 7, 105
8, 43344, Control_c, 7, 7, 115
8, 43388, Note_on_c, 7, 71, 0
8, 43392, Control_c, 7, 7, 85
8, 43392, Note_on_c, 7, 69, 95
8, 43416, Control_c, 7, 7, 95
8, 43440, Control_c, 7, 7, 105
8, 43464, Control_c, 7, 7, 115
8, 43484, Note_on_c, 7, 69, 0
8, 43488, Control_c, 7, 7, 85
8, 43488, Control_c, 7, 7, 85
8, 43488, Note_on_c, 7, 68, 110
8, 43512, Control_c, 7, 7, 95
8, 43536, Control_c, 7, 7, 105
8, 43560, Control_c, 7, 7, 115
8, 43580, Note_on_c, 7, 68, 0
8, 43584, Control_c, 7, 7, 85
8, 43584, Note_on_c, 7, 69, 100
8, 43632, Control_c, 7, 7, 95
8, 43680, Control_c, 7, 7, 105
8, 43728, Control_c, 7, 7, 115
8, 43772, Note_on_c, 7, 69, 0
8, 43776, Control_c, 7, 7, 85
8, 43776, Note_on_c, 7, 68, 110
8, 43800, Control_c, 7, 7, 95
8, 43824, Control_c, 7, 7, 105
8, 43848, Control_c, 7, 7, 115
8, 44064, Control_c, 7, 7, 85
8, 44064, Note_on_c, 7, 66, 100
8, 44064, Note_on_c, 7, 68, 0
8, 44088, Control_c, 7, 7, 95
8, 44112, Control_c, 7, 7, 105
8, 44136, Control_c, 7, 7, 115
8, 44156, Note_on_c, 7, 66, 0
8, 44160, Note_on_c, 7, 64, 95
8, 44160, Control_c, 7, 7, 85
8, 44208, Control_c, 7, 7, 95
8, 44256, Control_c, 7, 7, 105
8, 44304, Control_c, 7, 7, 115
8, 44732, Note_on_c, 7, 64, 0
8, 44736, Control_c, 7, 7, 85
8, 44736, Note_on_c, 7, 64, 110
8, 44760, Control_c, 7, 7, 95
8, 44784, Control_c, 7, 7, 105
8, 44832, Control_c, 7, 7, 115
8, 44924, Note_on_c, 7, 64, 0
8, 44928, Control_c, 7, 7, 85
8, 44928, Note_on_c, 7, 66, 110
8, 44952, Control_c, 7, 7, 95
8, 44976, Control_c, 7, 7, 105
8, 45024, Control_c, 7, 7, 115
8, 45116, Note_on_c, 7, 66, 0
8, 45120, Control_c, 7, 7, 85
8, 45120, Note_on_c, 7, 64, 110
8, 45144, Control_c, 7, 7, 95
8, 45168, Control_c, 7, 7, 105
8, 45216, Control_c, 7, 7, 115
8, 45308, Note_on_c, 7, 64, 0
8, 45312, Control_c, 7, 7, 85
8, 45312, Note_on_c, 7, 64, 110
8, 45336, Control_c, 7, 7, 95
8, 45360, Control_c, 7, 7, 105
8, 45384, Control_c, 7, 7, 115
8, 45600, Control_c, 7, 7, 85
8, 45600, Note_on_c, 7, 62, 100
8, 45600, Note_on_c, 7, 64, 0
8, 45624, Control_c, 7, 7, 95
8, 45648, Control_c, 7, 7, 105
8, 45672, Control_c, 7, 7, 115
8, 45692, Note_on_c, 7, 62, 0
8, 45696, Control_c, 7, 7, 85
8, 45696, Note_on_c, 7, 61, 100
8, 45720, Control_c, 7, 7, 95
8, 45744, Control_c, 7, 7, 105
8, 45768, Control_c, 7, 7, 115
8, 45788, Note_on_c, 7, 61, 0
8, 45792, Control_c, 7, 7, 85
8, 45792, Note_on_c, 7, 62, 115
8, 45816, Control_c, 7, 7, 95
8, 45840, Control_c, 7, 7, 105
8, 45864, Control_c, 7, 7, 115
8, 45884, Note_on_c, 7, 62, 0
8, 45888, Control_c, 7, 7, 85
8, 45888, Note_on_c, 7, 64, 120
8, 45912, Control_c, 7, 7, 95
8, 45936, Control_c, 7, 7, 105
8, 45960, Control_c, 7, 7, 115
8, 45980, Note_on_c, 7, 64, 0
8, 45984, Control_c, 7, 7, 85
8, 45984, Note_on_c, 7, 61, 95
8, 46008, Control_c, 7, 7, 95
8, 46032, Control_c, 7, 7, 105
8, 46056, Control_c, 7, 7, 115
8, 46076, Note_on_c, 7, 61, 0
8, 46080, Control_c, 7, 7, 85
8, 46080, Note_on_c, 7, 57, 110
8, 46104, Control_c, 7, 7, 95
8, 46128, Control_c, 7, 7, 105
8, 46176, Control_c, 7, 7, 115
8, 46268, Note_on_c, 7, 57, 0
8, 46272, Control_c, 7, 7, 85
8, 46272, Note_on_c, 7, 62, 120
8, 46320, Control_c, 7, 7, 95
8, 46368, Control_c, 7, 7, 105
8, 46416, Control_c, 7, 7, 115
8, 46652, Note_on_c, 7, 62, 0
8, 46656, Note_on_c, 7, 59, 100
8, 46656, Control_c, 7, 7, 85
8, 46704, Control_c, 7, 7, 95
8, 46752, Control_c, 7, 7, 105
8, 46800, Control_c, 7, 7, 115
8, 46872, Control_c, 7, 7, 95
8, 46896, Control_c, 7, 7, 105
8, 46944, Control_c, 7, 7, 115
8, 47036, Note_on_c, 7, 59, 0
8, 47040, Control_c, 7, 7, 85
8, 47040, Note_on_c, 7, 64, 120
8, 47088, Control_c, 7, 7, 95
8, 47136, Control_c, 7, 7, 105
8, 47184, Control_c, 7, 7, 115
8, 47420, Note_on_c, 7, 64, 0
8, 47424, Note_on_c, 7, 61, 100
8, 47424, Control_c, 7, 7, 85
8, 47472, Control_c, 7, 7, 95
8, 47520, Control_c, 7, 7, 105
8, 47568, Control_c, 7, 7, 115
8, 47640, Control_c, 7, 7, 95
8, 47664, Control_c, 7, 7, 105
8, 47712, Control_c, 7, 7, 115
8, 47804, Note_on_c, 7, 61, 0
8, 47808, Control_c, 7, 7, 85
8, 47808, Note_on_c, 7, 66, 120
8, 47856, Control_c, 7, 7, 95
8, 47904, Control_c, 7, 7, 105
8, 47952, Control_c, 7, 7, 115
8, 48188, Note_on_c, 7, 66, 0
8, 48192, Note_on_c, 7, 63, 100
8, 48192, Control_c, 7, 7, 85
8, 48240, Control_c, 7, 7, 95
8, 48288, Control_c, 7, 7, 105
8, 48336, Control_c, 7, 7, 115
8, 48384, Control_c, 7, 7, 85
8, 48384, Note_on_c, 7, 59, 110
8, 48384, Note_on_c, 7, 63, 0
8, 48432, Control_c, 7, 7, 95
8, 48480, Control_c, 7, 7, 105
8, 48528, Control_c, 7, 7, 115
8, 48864, Control_c, 7, 7, 70
8, 48864, Note_on_c, 7, 71, 100
8, 48864, Note_on_c, 7, 59, 0
8, 48876, Control_c, 7, 7, 80
8, 48888, Control_c, 7, 7, 90
8, 48912, Control_c, 7, 7, 100
8, 48936, Control_c, 7, 7, 115
8, 48960, Control_c, 7, 7, 85
8, 48960, Note_on_c, 7, 67, 100
8, 48960, Note_on_c, 7, 71, 0
8, 48984, Control_c, 7, 7, 95
8, 49008, Control_c, 7, 7, 105
8, 49032, Control_c, 7, 7, 115
8, 49056, Note_on_c, 7, 64, 100
8, 49056, Control_c, 7, 7, 85
8, 49056, Note_on_c, 7, 67, 0
8, 49080, Control_c, 7, 7, 95
8, 49104, Control_c, 7, 7, 105
8, 49128, Control_c, 7, 7, 115
8, 49152, Control_c, 7, 7, 85
8, 49152, Note_on_c, 7, 69, 95
8, 49152, Note_on_c, 7, 64, 0
8, 49176, Control_c, 7, 7, 95
8, 49200, Control_c, 7, 7, 105
8, 49248, Control_c, 7, 7, 115
8, 49340, Note_on_c, 7, 69, 0
8, 49344, Control_c, 7, 7, 85
8, 49344, Note_on_c, 7, 67, 110
8, 49368, Control_c, 7, 7, 95
8, 49392, Control_c, 7, 7, 105
8, 49440, Control_c, 7, 7, 115
8, 49532, Note_on_c, 7, 67, 0
8, 49536, Control_c, 7, 7, 85
8, 49536, Note_on_c, 7, 66, 110
8, 49560, Control_c, 7, 7, 95
8, 49584, Control_c, 7, 7, 105
8, 49632, Control_c, 7, 7, 115
8, 49724, Note_on_c, 7, 66, 0
8, 49728, Control_c, 7, 7, 85
8, 49728, Note_on_c, 7, 64, 110
8, 49752, Control_c, 7, 7, 95
8, 49776, Control_c, 7, 7, 105
8, 49824, Control_c, 7, 7, 115
8, 49916, Note_on_c, 7, 64, 0
8, 49920, Control_c, 7, 7, 85
8, 49920, Note_on_c, 7, 62, 100
8, 49944, Control_c, 7, 7, 90
8, 49968, Control_c, 7, 7, 95
8, 49992, Control_c, 7, 7, 100
8, 50016, Control_c, 7, 7, 105
8, 50040, Control_c, 7, 7, 110
8, 50064, Control_c, 7, 7, 115
8, 50300, Note_on_c, 7, 62, 0
8, 50304, Control_c, 7, 7, 85
8, 50304, Note_on_c, 7, 69, 110
8, 50328, Control_c, 7, 7, 90
8, 50352, Control_c, 7, 7, 95
8, 50376, Control_c, 7, 7, 100
8, 50400, Control_c, 7, 7, 105
8, 50424, Control_c, 7, 7, 110
8, 50448, Control_c, 7, 7, 115
8, 50684, Note_on_c, 7, 69, 0
8, 50688, Note_on_c, 7, 69, 110
8, 50876, Note_on_c, 7, 69, 0
8, 50880, Control_c, 7, 7, 85
8, 50880, Note_on_c, 7, 67, 100
8, 50904, Control_c, 7, 7, 95
8, 50928, Control_c, 7, 7, 105
8, 50976, Control_c, 7, 7, 115
8, 51068, Note_on_c, 7, 67, 0
8, 51072, Control_c, 7, 7, 85
8, 51072, Note_on_c, 7, 69, 110
8, 51096, Control_c, 7, 7, 90
8, 51120, Control_c, 7, 7, 95
8, 51144, Control_c, 7, 7, 100
8, 51168, Control_c, 7, 7, 105
8, 51192, Control_c, 7, 7, 110
8, 51216, Control_c, 7, 7, 115
8, 51452, Note_on_c, 7, 69, 0
8, 51456, Control_c, 7, 7, 85
8, 51456, Note_on_c, 7, 62, 110
8, 51504, Control_c, 7, 7, 90
8, 51552, Control_c, 7, 7, 95
8, 51600, Control_c, 7, 7, 100
8, 51648, Control_c, 7, 7, 105
8, 51696, Control_c, 7, 7, 110
8, 51744, Control_c, 7, 7, 115
8, 52216, Note_on_c, 7, 62, 0
8, 52224, Control_c, 7, 7, 85
8, 52224, Note_on_c, 7, 64, 100
8, 52248, Control_c, 7, 7, 95
8, 52272, Control_c, 7, 7, 105
8, 52296, Control_c, 7, 7, 115
8, 52320, Control_c, 7, 7, 85
8, 52320, Note_on_c, 7, 59, 90
8, 52320, Note_on_c, 7, 64, 0
8, 52344, Control_c, 7, 7, 95
8, 52368, Control_c, 7, 7, 105
8, 52392, Control_c, 7, 7, 115
8, 52416, Control_c, 7, 7, 85
8, 52416, Note_on_c, 7, 64, 105
8, 52416, Note_on_c, 7, 59, 0
8, 52440, Control_c, 7, 7, 95
8, 52464, Control_c, 7, 7, 105
8, 52488, Control_c, 7, 7, 115
8, 52512, Control_c, 7, 7, 85
8, 52512, Note_on_c, 7, 67, 110
8, 52512, Note_on_c, 7, 64, 0
8, 52536, Control_c, 7, 7, 95
8, 52560, Control_c, 7, 7, 105
8, 52584, Control_c, 7, 7, 115
8, 52608, Control_c, 7, 7, 85
8, 52608, Note_on_c, 7, 71, 115
8, 52608, Note_on_c, 7, 67, 0
8, 52632, Control_c, 7, 7, 95
8, 52656, Control_c, 7, 7, 105
8, 52680, Control_c, 7, 7, 115
8, 52704, Control_c, 7, 7, 85
8, 52704, Note_on_c, 7, 69, 105
8, 52704, Note_on_c, 7, 71, 0
8, 52728, Control_c, 7, 7, 95
8, 52752, Control_c, 7, 7, 105
8, 52776, Control_c, 7, 7, 115
8, 52800, Control_c, 7, 7, 85
8, 52800, Note_on_c, 7, 67, 100
8, 52800, Note_on_c, 7, 69, 0
8, 52824, Control_c, 7, 7, 95
8, 52848, Control_c, 7, 7, 105
8, 52872, Control_c, 7, 7, 115
8, 52896, Note_on_c, 7, 66, 95
8, 52896, Control_c, 7, 7, 85
8, 52896, Note_on_c, 7, 67, 0
8, 52920, Control_c, 7, 7, 85
8, 52944, Control_c, 7, 7, 95
8, 52968, Control_c, 7, 7, 115
8, 52992, Control_c, 7, 7, 85
8, 52992, Note_on_c, 7, 64, 100
8, 52992, Note_on_c, 7, 66, 0
8, 53016, Control_c, 7, 7, 90
8, 53040, Control_c, 7, 7, 95
8, 53064, Control_c, 7, 7, 100
8, 53088, Control_c, 7, 7, 105
8, 53112, Control_c, 7, 8, 100
8, 53136, Control_c, 7, 7, 115
8, 53184, Control_c, 7, 7, 85
8, 53184, Note_on_c, 7, 69, 100
8, 53184, Note_on_c, 7, 64, 0
8, 53208, Control_c, 7, 7, 90
8, 53232, Control_c, 7, 7, 95
8, 53256, Control_c, 7, 7, 100
8, 53280, Control_c, 7, 7, 105
8, 53304, Control_c, 7, 7, 110
8, 53328, Control_c, 7, 7, 115
8, 53568, Control_c, 7, 7, 85
8, 53568, Note_on_c, 7, 67, 100
8, 53568, Note_on_c, 7, 69, 0
8, 53592, Control_c, 7, 7, 90
8, 53616, Control_c, 7, 7, 95
8, 53640, Control_c, 7, 7, 100
8, 53664, Control_c, 7, 7, 105
8, 53688, Control_c, 7, 7, 110
8, 53712, Control_c, 7, 7, 115
8, 53756, Note_on_c, 7, 67, 0
8, 53760, Control_c, 7, 7, 85
8, 53760, Note_on_c, 7, 66, 100
8, 53784, Control_c, 7, 7, 90
8, 53808, Control_c, 7, 7, 95
8, 53832, Control_c, 7, 7, 100
8, 53856, Control_c, 7, 7, 105
8, 53880, Control_c, 7, 7, 110
8, 53904, Control_c, 7, 7, 115
8, 54136, Note_on_c, 7, 66, 0
8, 54144, Control_c, 7, 7, 85
8, 54144, Note_on_c, 7, 64, 100
8, 54168, Control_c, 7, 7, 95
8, 54192, Control_c, 7, 7, 105
8, 54216, Control_c, 7, 7, 115
8, 54332, Note_on_c, 7, 64, 0
8, 54336, Control_c, 7, 7, 85
8, 54336, Note_on_c, 7, 57, 100
8, 54360, Control_c, 7, 7, 95
8, 54384, Control_c, 7, 7, 105
8, 54408, Control_c, 7, 7, 115
8, 54524, Note_on_c, 7, 57, 0
8, 54528, Note_on_c, 7, 57, 100
8, 54528, Control_c, 7, 7, 60
8, 54576, Control_c, 7, 7, 65
8, 54624, Control_c, 7, 7, 70
8, 54672, Control_c, 7, 7, 75
8, 54720, Control_c, 7, 7, 80
8, 54768, Control_c, 7, 7, 85
8, 54816, Control_c, 7, 7, 90
8, 54864, Control_c, 7, 7, 95
8, 54912, Control_c, 7, 7, 100
8, 55008, Control_c, 7, 7, 105
8, 55104, Control_c, 7, 7, 110
8, 55200, Control_c, 7, 7, 115
8, 55216, Control_c, 7, 7, 116
8, 55392, Control_c, 7, 7, 115
8, 55408, Control_c, 7, 7, 113
8, 55424, Control_c, 7, 7, 112
8, 55456, Control_c, 7, 7, 110
8, 55472, Control_c, 7, 7, 108
8, 55488, Control_c, 7, 7, 106
8, 55504, Control_c, 7, 7, 105
8, 55520, Control_c, 7, 7, 104
8, 55536, Control_c, 7, 7, 100
8, 55552, Control_c, 7, 7, 99
8, 55584, Control_c, 7, 7, 96
8, 55600, Control_c, 7, 7, 94
8, 55616, Control_c, 7, 7, 93
8, 55632, Control_c, 7, 7, 87
8, 55648, Control_c, 7, 7, 83
8, 55664, Control_c, 7, 7, 81
8, 55680, Control_c, 7, 7, 77
8, 55712, Control_c, 7, 7, 73
8, 55728, Control_c, 7, 7, 69
8, 55744, Control_c, 7, 7, 66
8, 55760, Control_c, 7, 7, 64
8, 55776, Control_c, 7, 7, 55
8, 55792, Control_c, 7, 7, 45
8, 55808, Control_c, 7, 7, 35
8, 55824, Control_c, 7, 7, 33
8, 55840, Control_c, 7, 7, 23
8, 55856, Control_c, 7, 7, 19
8, 55872, Control_c, 7, 7, 15
8, 55920, Control_c, 7, 7, 11
8, 55936, Control_c, 7, 7, 9
8, 55952, Control_c, 7, 7, 7
8, 55968, Control_c, 7, 7, 6
8, 55984, Control_c, 7, 7, 4
8, 56000, Control_c, 7, 7, 3
8, 56056, Note_on_c, 7, 57, 0
8, 56056, End_track
9, 0, Start_track
9, 0, MIDI_port, 0
9, 0, Title_t, "Bach "
9, 0, End_track
10, 0, Start_track
10, 0, MIDI_port, 0
10, 0, Title_t, "Air from Suite"
10, 0, End_track
11, 0, Start_track
11, 0, MIDI_port, 0
11, 0, Title_t, "no3 in D major"
11, 0, End_track
12, 0, Start_track
12, 0, MIDI_port, 0
12, 0, Title_t, "Creative Labs Inc. "
12, 0, End_track
13, 0, Start_track
13, 0, MIDI_port, 0
13, 0, Title_t, "1994(c)"
13, 0, End_track
14, 0, Start_track
14, 0, MIDI_port, 0
14, 0, Title_t, "recorded by Dr. Chew"
14, 0, End_track
0, 0, End_of_file
