0, 0, Header, 1, 9, 480
1, 0, Start_track
1, 0, Title_t, "nameless"
1, 0, Time_signature, 4, 2, 24, 8
1, 0, Tempo, 476190
1, 195833, Tempo, 512821
1, 197780, Tempo, 600000
1, 197920, Tempo, 625000
1, 198040, Tempo, 652174
1, 198180, Tempo, 681818
1, 198300, Tempo, 714286
1, 198440, Tempo, 750000
1, 198580, Tempo, 789474
1, 198700, Tempo, 909091
1, 199640, Tempo, 4285714
1, 199750, Tempo, 1071429
1, 201600, End_track
2, 0, Start_track
2, 0, Title_t, "Violin 1"
2, 0, Key_signature, 0, "major"
2, 10, Control_c, 1, 0, 0
2, 15, Control_c, 1, 32, 0
2, 20, Program_c, 1, 48
2, 25, Control_c, 1, 7, 110
2, 30, Control_c, 1, 10, 20
2, 35, Control_c, 1, 91, 127
2, 40, Control_c, 1, 101, 0
2, 45, Control_c, 1, 100, 0
2, 50, Control_c, 1, 6, 2
2, 11520, Note_on_c, 1, 76, 109
2, 12003, Note_off_c, 1, 76, 109
2, 12240, Note_on_c, 1, 76, 92
2, 12370, Note_off_c, 1, 76, 92
2, 12480, Note_on_c, 1, 76, 98
2, 12584, Note_off_c, 1, 76, 98
2, 12720, Note_on_c, 1, 76, 105
2, 12827, Note_off_c, 1, 76, 105
2, 12960, Note_on_c, 1, 76, 105
2, 13067, Note_off_c, 1, 76, 105
2, 13200, Note_on_c, 1, 76, 94
2, 13313, Note_off_c, 1, 76, 94
2, 13440, Note_on_c, 1, 81, 108
2, 13579, Note_off_c, 1, 81, 108
2, 13680, Note_on_c, 1, 76, 75
2, 13804, Note_off_c, 1, 76, 75
2, 13920, Note_on_c, 1, 76, 76
2, 14045, Note_off_c, 1, 76, 76
2, 14160, Note_on_c, 1, 76, 75
2, 14285, Note_off_c, 1, 76, 75
2, 14400, Note_on_c, 1, 81, 95
2, 14555, Note_off_c, 1, 81, 95
2, 14640, Note_on_c, 1, 76, 74
2, 14759, Note_off_c, 1, 76, 74
2, 14880, Note_on_c, 1, 76, 76
2, 14940, Control_c, 1, 7, 90
2, 15017, Note_off_c, 1, 76, 76
2, 15120, Note_on_c, 1, 76, 80
2, 15240, Control_c, 1, 7, 91
2, 15252, Note_off_c, 1, 76, 80
2, 15280, Control_c, 1, 7, 93
2, 15300, Control_c, 1, 7, 96
2, 15340, Control_c, 1, 7, 99
2, 15360, Control_c, 1, 7, 100
2, 15360, Note_on_c, 1, 77, 90
2, 15400, Control_c, 1, 7, 102
2, 15412, Note_off_c, 1, 77, 90
2, 15420, Control_c, 1, 7, 103
2, 15420, Note_on_c, 1, 76, 76
2, 15478, Note_off_c, 1, 76, 76
2, 15480, Note_on_c, 1, 77, 78
2, 15538, Note_off_c, 1, 77, 78
2, 15540, Note_on_c, 1, 76, 78
2, 15598, Note_off_c, 1, 76, 78
2, 15600, Note_on_c, 1, 72, 85
2, 15666, Note_off_c, 1, 72, 85
2, 15720, Note_on_c, 1, 74, 84
2, 15772, Note_off_c, 1, 74, 84
2, 15840, Note_on_c, 1, 76, 84
2, 15916, Note_off_c, 1, 76, 84
2, 16080, Note_on_c, 1, 76, 74
2, 16182, Note_off_c, 1, 76, 74
2, 16320, Note_on_c, 1, 77, 92
2, 16372, Note_off_c, 1, 77, 92
2, 16380, Note_on_c, 1, 76, 84
2, 16438, Note_off_c, 1, 76, 84
2, 16440, Note_on_c, 1, 77, 84
2, 16498, Note_off_c, 1, 77, 84
2, 16500, Note_on_c, 1, 76, 82
2, 16558, Note_off_c, 1, 76, 82
2, 16560, Note_on_c, 1, 72, 79
2, 16628, Note_off_c, 1, 72, 79
2, 16680, Note_on_c, 1, 74, 81
2, 16752, Note_off_c, 1, 74, 81
2, 16800, Note_on_c, 1, 76, 79
2, 16890, Note_off_c, 1, 76, 79
2, 17040, Note_on_c, 1, 76, 81
2, 17183, Note_off_c, 1, 76, 81
2, 17280, Control_c, 1, 7, 102
2, 17280, Note_on_c, 1, 76, 79
2, 17380, Control_c, 1, 7, 100
2, 17400, Control_c, 1, 7, 99
2, 17411, Note_off_c, 1, 76, 79
2, 17440, Control_c, 1, 7, 97
2, 17480, Control_c, 1, 7, 96
2, 17520, Control_c, 1, 7, 94
2, 17520, Note_on_c, 1, 76, 78
2, 17651, Note_off_c, 1, 76, 78
2, 17760, Note_on_c, 1, 76, 79
2, 17903, Note_off_c, 1, 76, 79
2, 18000, Note_on_c, 1, 74, 80
2, 18054, Note_off_c, 1, 74, 80
2, 18120, Note_on_c, 1, 72, 80
2, 18182, Note_off_c, 1, 72, 80
2, 18240, Note_on_c, 1, 71, 76
2, 18359, Note_off_c, 1, 71, 76
2, 18480, Note_on_c, 1, 64, 83
2, 18555, Note_off_c, 1, 64, 83
2, 25920, Note_on_c, 1, 76, 90
2, 26302, Note_off_c, 1, 76, 90
2, 26560, Control_c, 1, 7, 94
2, 26640, Note_on_c, 1, 76, 86
2, 26750, Note_off_c, 1, 76, 86
2, 26800, Control_c, 1, 7, 95
2, 26840, Control_c, 1, 7, 97
2, 26880, Note_on_c, 1, 76, 84
2, 26900, Control_c, 1, 7, 98
2, 26960, Control_c, 1, 7, 100
2, 27006, Note_off_c, 1, 76, 84
2, 27120, Note_on_c, 1, 76, 82
2, 27262, Note_off_c, 1, 76, 82
2, 27280, Control_c, 1, 7, 101
2, 27320, Control_c, 1, 7, 103
2, 27360, Control_c, 1, 7, 104
2, 27360, Note_on_c, 1, 76, 85
2, 27440, Control_c, 1, 7, 106
2, 27494, Note_off_c, 1, 76, 85
2, 27600, Note_on_c, 1, 76, 85
2, 27720, Control_c, 1, 7, 107
2, 27726, Note_off_c, 1, 76, 85
2, 27760, Control_c, 1, 7, 108
2, 27780, Control_c, 1, 7, 110
2, 27820, Control_c, 1, 7, 111
2, 27840, Note_on_c, 1, 81, 84
2, 27998, Note_off_c, 1, 81, 84
2, 28080, Note_on_c, 1, 76, 79
2, 28190, Note_off_c, 1, 76, 79
2, 28200, Control_c, 1, 7, 110
2, 28240, Control_c, 1, 7, 108
2, 28260, Control_c, 1, 7, 107
2, 28300, Control_c, 1, 7, 106
2, 28320, Control_c, 1, 7, 103
2, 28320, Note_on_c, 1, 76, 82
2, 28360, Control_c, 1, 7, 101
2, 28380, Control_c, 1, 7, 98
2, 28420, Control_c, 1, 7, 97
2, 28454, Note_off_c, 1, 76, 82
2, 28560, Note_on_c, 1, 76, 80
2, 28640, Control_c, 1, 7, 98
2, 28680, Control_c, 1, 7, 100
2, 28700, Control_c, 1, 7, 103
2, 28718, Note_off_c, 1, 76, 80
2, 28740, Control_c, 1, 7, 106
2, 28760, Control_c, 1, 7, 107
2, 28800, Control_c, 1, 7, 110
2, 28800, Note_on_c, 1, 81, 85
2, 28820, Control_c, 1, 7, 111
2, 28950, Note_off_c, 1, 81, 85
2, 29040, Note_on_c, 1, 76, 81
2, 29120, Control_c, 1, 7, 110
2, 29160, Control_c, 1, 7, 108
2, 29198, Note_off_c, 1, 76, 81
2, 29200, Control_c, 1, 7, 107
2, 29240, Control_c, 1, 7, 106
2, 29260, Control_c, 1, 7, 104
2, 29280, Note_on_c, 1, 76, 87
2, 29300, Control_c, 1, 7, 103
2, 29320, Control_c, 1, 7, 101
2, 29406, Note_off_c, 1, 76, 87
2, 29420, Control_c, 1, 7, 100
2, 29520, Note_on_c, 1, 76, 82
2, 29638, Note_off_c, 1, 76, 82
2, 29760, Note_on_c, 1, 77, 81
2, 29818, Note_off_c, 1, 77, 81
2, 29820, Note_on_c, 1, 76, 79
2, 29878, Note_off_c, 1, 76, 79
2, 29880, Note_on_c, 1, 77, 77
2, 29938, Note_off_c, 1, 77, 77
2, 29940, Note_on_c, 1, 76, 76
2, 29998, Note_off_c, 1, 76, 76
2, 30000, Note_on_c, 1, 72, 77
2, 30062, Note_off_c, 1, 72, 77
2, 30120, Note_on_c, 1, 74, 78
2, 30182, Note_off_c, 1, 74, 78
2, 30240, Note_on_c, 1, 76, 83
2, 30326, Note_off_c, 1, 76, 83
2, 30480, Note_on_c, 1, 76, 76
2, 30590, Note_off_c, 1, 76, 76
2, 30720, Note_on_c, 1, 77, 80
2, 30778, Note_off_c, 1, 77, 80
2, 30780, Note_on_c, 1, 76, 80
2, 30838, Note_off_c, 1, 76, 80
2, 30840, Note_on_c, 1, 77, 78
2, 30898, Note_off_c, 1, 77, 78
2, 30900, Note_on_c, 1, 76, 77
2, 30958, Note_off_c, 1, 76, 77
2, 30960, Note_on_c, 1, 72, 79
2, 31014, Note_off_c, 1, 72, 79
2, 31080, Note_on_c, 1, 74, 77
2, 31126, Note_off_c, 1, 74, 77
2, 31200, Note_on_c, 1, 76, 80
2, 31278, Note_off_c, 1, 76, 80
2, 31440, Note_on_c, 1, 76, 83
2, 31574, Note_off_c, 1, 76, 83
2, 31680, Note_on_c, 1, 76, 80
2, 31814, Note_off_c, 1, 76, 80
2, 31920, Note_on_c, 1, 76, 80
2, 32046, Note_off_c, 1, 76, 80
2, 32160, Note_on_c, 1, 77, 78
2, 32218, Note_off_c, 1, 77, 78
2, 32220, Note_on_c, 1, 76, 76
2, 32278, Note_off_c, 1, 76, 76
2, 32280, Note_on_c, 1, 77, 80
2, 32338, Note_off_c, 1, 77, 80
2, 32340, Note_on_c, 1, 76, 76
2, 32398, Note_off_c, 1, 76, 76
2, 32400, Note_on_c, 1, 74, 78
2, 32478, Note_off_c, 1, 74, 78
2, 32520, Note_on_c, 1, 72, 77
2, 32574, Note_off_c, 1, 72, 77
2, 32640, Note_on_c, 1, 71, 84
2, 32782, Note_off_c, 1, 71, 84
2, 32880, Note_on_c, 1, 64, 85
2, 33014, Note_off_c, 1, 64, 85
2, 41740, Control_c, 1, 7, 100
2, 41760, Note_on_c, 1, 76, 86
2, 42040, Control_c, 1, 7, 101
2, 42140, Control_c, 1, 7, 103
2, 42200, Control_c, 1, 7, 104
2, 42238, Note_off_c, 1, 76, 86
2, 42240, Note_on_c, 1, 77, 90
2, 42360, Control_c, 1, 7, 106
2, 42460, Control_c, 1, 7, 107
2, 42540, Control_c, 1, 7, 109
2, 42620, Control_c, 1, 7, 110
2, 42660, Control_c, 1, 7, 112
2, 42720, Control_c, 1, 7, 113
2, 42760, Control_c, 1, 7, 114
2, 42800, Control_c, 1, 7, 116
2, 42860, Control_c, 1, 7, 117
2, 42920, Control_c, 1, 7, 119
2, 43020, Control_c, 1, 7, 120
2, 43100, Control_c, 1, 7, 122
2, 43320, Control_c, 1, 7, 123
2, 43440, Control_c, 1, 7, 125
2, 43520, Control_c, 1, 7, 126
2, 44060, Control_c, 1, 7, 127
2, 44158, Note_off_c, 1, 77, 90
2, 44160, Note_on_c, 1, 76, 87
2, 44860, Control_c, 1, 7, 126
2, 45020, Control_c, 1, 7, 125
2, 45180, Control_c, 1, 7, 123
2, 45240, Control_c, 1, 7, 122
2, 45320, Control_c, 1, 7, 120
2, 45420, Control_c, 1, 7, 119
2, 45620, Control_c, 1, 7, 117
2, 45700, Control_c, 1, 7, 116
2, 45740, Control_c, 1, 7, 114
2, 45860, Control_c, 1, 7, 113
2, 46078, Note_off_c, 1, 76, 87
2, 46080, Control_c, 1, 7, 112
2, 46080, Note_on_c, 1, 74, 87
2, 46160, Control_c, 1, 7, 110
2, 46320, Control_c, 1, 7, 109
2, 46560, Control_c, 1, 7, 107
2, 46720, Control_c, 1, 7, 106
2, 46960, Control_c, 1, 7, 104
2, 47020, Control_c, 1, 7, 103
2, 47240, Control_c, 1, 7, 101
2, 47580, Control_c, 1, 7, 100
2, 47780, Control_c, 1, 7, 99
2, 47900, Control_c, 1, 7, 97
2, 47998, Note_off_c, 1, 74, 87
2, 48000, Note_on_c, 1, 72, 89
2, 48020, Control_c, 1, 7, 96
2, 48120, Note_off_c, 1, 72, 89
2, 48240, Note_on_c, 1, 69, 86
2, 48376, Note_off_c, 1, 69, 86
2, 48720, Note_on_c, 1, 81, 91
2, 48825, Note_off_c, 1, 81, 91
2, 48960, Note_on_c, 1, 80, 88
2, 49049, Note_off_c, 1, 80, 88
2, 49200, Note_on_c, 1, 76, 77
2, 49313, Note_off_c, 1, 76, 77
2, 49600, Control_c, 1, 7, 96
2, 49680, Note_on_c, 1, 81, 80
2, 49800, Note_off_c, 1, 81, 80
2, 49860, Control_c, 1, 7, 97
2, 49880, Control_c, 1, 7, 100
2, 49920, Note_on_c, 1, 80, 78
2, 50063, Note_off_c, 1, 80, 78
2, 50160, Note_on_c, 1, 76, 77
2, 50304, Note_off_c, 1, 76, 77
2, 50640, Note_on_c, 1, 81, 82
2, 50720, Control_c, 1, 7, 102
2, 50768, Note_off_c, 1, 81, 82
2, 50880, Note_on_c, 1, 80, 77
2, 50960, Control_c, 1, 7, 103
2, 50993, Note_off_c, 1, 80, 77
2, 51120, Note_on_c, 1, 76, 80
2, 51200, Control_c, 1, 7, 105
2, 51248, Note_off_c, 1, 76, 80
2, 51440, Control_c, 1, 7, 106
2, 51480, Note_on_c, 1, 76, 89
2, 51559, Note_off_c, 1, 76, 89
2, 51600, Note_on_c, 1, 76, 97
2, 51660, Control_c, 1, 7, 108
2, 51694, Note_off_c, 1, 76, 97
2, 51720, Note_on_c, 1, 76, 90
2, 51820, Control_c, 1, 7, 109
2, 51830, Note_off_c, 1, 76, 90
2, 51840, Control_c, 1, 7, 110
2, 51840, Note_on_c, 1, 81, 106
2, 51958, Note_off_c, 1, 81, 106
2, 51960, Note_on_c, 1, 76, 91
2, 52000, Control_c, 1, 7, 112
2, 52020, Control_c, 1, 7, 113
2, 52047, Note_off_c, 1, 76, 91
2, 52080, Note_on_c, 1, 76, 95
2, 52159, Note_off_c, 1, 76, 95
2, 52200, Note_on_c, 1, 76, 95
2, 52287, Note_off_c, 1, 76, 95
2, 52320, Note_on_c, 1, 81, 106
2, 52438, Note_off_c, 1, 81, 106
2, 52440, Note_on_c, 1, 76, 99
2, 52527, Note_off_c, 1, 76, 99
2, 52560, Note_on_c, 1, 76, 97
2, 52662, Note_off_c, 1, 76, 97
2, 52680, Note_on_c, 1, 76, 98
2, 52774, Note_off_c, 1, 76, 98
2, 52780, Control_c, 1, 7, 115
2, 52800, Note_on_c, 1, 81, 104
2, 52918, Note_off_c, 1, 81, 104
2, 52920, Note_on_c, 1, 76, 89
2, 52975, Note_off_c, 1, 76, 89
2, 53040, Note_on_c, 1, 76, 87
2, 53134, Note_off_c, 1, 76, 87
2, 53160, Note_on_c, 1, 76, 91
2, 53180, Control_c, 1, 7, 116
2, 53200, Control_c, 1, 7, 118
2, 53231, Note_off_c, 1, 76, 91
2, 53280, Note_on_c, 1, 81, 107
2, 53398, Note_off_c, 1, 81, 107
2, 53400, Note_on_c, 1, 76, 95
2, 53455, Note_off_c, 1, 76, 95
2, 53500, Control_c, 1, 7, 119
2, 53520, Note_on_c, 1, 76, 93
2, 53540, Control_c, 1, 7, 121
2, 53575, Note_off_c, 1, 76, 93
2, 53580, Control_c, 1, 7, 122
2, 53600, Control_c, 1, 7, 123
2, 53640, Note_on_c, 1, 76, 92
2, 53660, Control_c, 1, 7, 125
2, 53700, Control_c, 1, 7, 126
2, 53727, Note_off_c, 1, 76, 92
2, 53760, Control_c, 1, 7, 127
2, 53760, Note_on_c, 1, 81, 102
2, 53998, Note_off_c, 1, 81, 102
2, 54000, Note_on_c, 1, 79, 99
2, 54079, Note_off_c, 1, 79, 99
2, 54120, Note_on_c, 1, 77, 102
2, 54199, Note_off_c, 1, 77, 102
2, 54240, Note_on_c, 1, 76, 93
2, 54368, Note_off_c, 1, 76, 93
2, 54480, Note_on_c, 1, 74, 103
2, 54600, Note_off_c, 1, 74, 103
2, 54720, Note_on_c, 1, 72, 101
2, 55198, Note_off_c, 1, 72, 101
2, 55200, Note_on_c, 1, 72, 99
2, 55258, Note_off_c, 1, 72, 99
2, 55260, Note_on_c, 1, 71, 95
2, 55318, Note_off_c, 1, 71, 95
2, 55320, Note_on_c, 1, 72, 103
2, 55378, Note_off_c, 1, 72, 103
2, 55380, Note_on_c, 1, 71, 96
2, 55438, Note_off_c, 1, 71, 96
2, 55440, Note_on_c, 1, 72, 103
2, 55498, Note_off_c, 1, 72, 103
2, 55500, Note_on_c, 1, 71, 94
2, 55520, Control_c, 1, 7, 126
2, 55558, Note_off_c, 1, 71, 94
2, 55560, Control_c, 1, 7, 125
2, 55560, Note_on_c, 1, 72, 99
2, 55618, Note_off_c, 1, 72, 99
2, 55620, Note_on_c, 1, 71, 96
2, 55660, Control_c, 1, 7, 123
2, 55678, Note_off_c, 1, 71, 96
2, 55680, Note_on_c, 1, 69, 100
2, 55700, Control_c, 1, 7, 122
2, 55740, Control_c, 1, 7, 121
2, 55780, Control_c, 1, 7, 119
2, 55860, Control_c, 1, 7, 118
2, 56020, Control_c, 1, 7, 116
2, 56100, Control_c, 1, 7, 115
2, 56140, Control_c, 1, 7, 113
2, 56158, Note_off_c, 1, 69, 100
2, 56280, Control_c, 1, 7, 112
2, 56320, Control_c, 1, 7, 110
2, 56360, Control_c, 1, 7, 109
2, 56520, Control_c, 1, 7, 108
2, 56640, Note_on_c, 1, 64, 68
2, 56720, Control_c, 1, 7, 106
2, 57118, Note_off_c, 1, 64, 68
2, 57600, Note_on_c, 1, 69, 61
2, 57920, Control_c, 1, 7, 105
2, 58060, Control_c, 1, 7, 103
2, 58078, Note_off_c, 1, 69, 61
2, 58180, Control_c, 1, 7, 102
2, 58320, Control_c, 1, 7, 100
2, 58360, Control_c, 1, 7, 99
2, 58420, Control_c, 1, 7, 97
2, 58560, Note_on_c, 1, 72, 77
2, 58860, Control_c, 1, 7, 96
2, 59038, Note_off_c, 1, 72, 77
2, 59260, Control_c, 1, 7, 95
2, 59520, Note_on_c, 1, 76, 76
2, 59800, Control_c, 1, 7, 93
2, 59998, Note_off_c, 1, 76, 76
2, 60140, Control_c, 1, 7, 95
2, 60480, Note_on_c, 1, 81, 70
2, 60958, Note_off_c, 1, 81, 70
2, 71640, Control_c, 1, 7, 95
2, 72100, Control_c, 1, 7, 96
2, 72160, Control_c, 1, 7, 98
2, 72240, Control_c, 1, 7, 99
2, 72320, Control_c, 1, 7, 101
2, 72420, Control_c, 1, 7, 102
2, 72460, Control_c, 1, 7, 104
2, 72480, Control_c, 1, 7, 105
2, 72540, Control_c, 1, 7, 107
2, 72580, Control_c, 1, 7, 108
2, 72620, Control_c, 1, 7, 109
2, 72640, Control_c, 1, 7, 111
2, 72680, Control_c, 1, 7, 112
2, 72700, Control_c, 1, 7, 114
2, 72740, Control_c, 1, 7, 115
2, 72760, Control_c, 1, 7, 117
2, 72800, Control_c, 1, 7, 118
2, 72820, Control_c, 1, 7, 120
2, 72860, Control_c, 1, 7, 121
2, 72880, Control_c, 1, 7, 122
2, 72960, Note_on_c, 1, 79, 105
2, 73020, Control_c, 1, 7, 124
2, 73321, Note_off_c, 1, 79, 105
2, 73680, Note_on_c, 1, 79, 98
2, 73800, Note_off_c, 1, 79, 98
2, 73920, Note_on_c, 1, 79, 102
2, 74048, Note_off_c, 1, 79, 102
2, 74160, Note_on_c, 1, 79, 99
2, 74296, Note_off_c, 1, 79, 99
2, 74400, Note_on_c, 1, 79, 96
2, 74505, Note_off_c, 1, 79, 96
2, 74640, Note_on_c, 1, 79, 91
2, 74768, Note_off_c, 1, 79, 91
2, 74880, Note_on_c, 1, 84, 107
2, 75113, Note_off_c, 1, 84, 107
2, 75120, Note_on_c, 1, 79, 86
2, 75248, Note_off_c, 1, 79, 86
2, 75360, Note_on_c, 1, 79, 95
2, 75488, Note_off_c, 1, 79, 95
2, 75600, Note_on_c, 1, 79, 95
2, 75728, Note_off_c, 1, 79, 95
2, 75840, Note_on_c, 1, 84, 108
2, 76072, Note_off_c, 1, 84, 108
2, 76080, Note_on_c, 1, 79, 101
2, 76232, Note_off_c, 1, 79, 101
2, 76320, Note_on_c, 1, 79, 100
2, 76448, Note_off_c, 1, 79, 100
2, 76560, Note_on_c, 1, 79, 103
2, 76688, Note_off_c, 1, 79, 103
2, 76800, Note_on_c, 1, 81, 98
2, 76858, Note_off_c, 1, 81, 98
2, 76860, Note_on_c, 1, 79, 101
2, 76918, Note_off_c, 1, 79, 101
2, 76920, Note_on_c, 1, 81, 97
2, 76978, Note_off_c, 1, 81, 97
2, 76980, Note_on_c, 1, 79, 84
2, 77038, Note_off_c, 1, 79, 84
2, 77040, Note_on_c, 1, 76, 91
2, 77102, Note_off_c, 1, 76, 91
2, 77160, Note_on_c, 1, 77, 91
2, 77238, Note_off_c, 1, 77, 91
2, 77280, Note_on_c, 1, 79, 97
2, 77424, Note_off_c, 1, 79, 97
2, 77520, Note_on_c, 1, 79, 98
2, 77687, Note_off_c, 1, 79, 98
2, 77760, Note_on_c, 1, 81, 107
2, 77818, Note_off_c, 1, 81, 107
2, 77820, Note_on_c, 1, 79, 91
2, 77878, Note_off_c, 1, 79, 91
2, 77880, Note_on_c, 1, 81, 104
2, 77938, Note_off_c, 1, 81, 104
2, 77940, Note_on_c, 1, 79, 101
2, 77998, Note_off_c, 1, 79, 101
2, 78000, Note_on_c, 1, 76, 92
2, 78063, Note_off_c, 1, 76, 92
2, 78120, Note_on_c, 1, 77, 97
2, 78190, Note_off_c, 1, 77, 97
2, 78240, Note_on_c, 1, 79, 100
2, 78368, Note_off_c, 1, 79, 100
2, 78480, Note_on_c, 1, 79, 104
2, 78639, Note_off_c, 1, 79, 104
2, 78720, Note_on_c, 1, 79, 104
2, 78848, Note_off_c, 1, 79, 104
2, 78960, Note_on_c, 1, 79, 98
2, 79057, Note_off_c, 1, 79, 98
2, 79200, Note_on_c, 1, 81, 100
2, 79220, Control_c, 1, 7, 124
2, 79258, Note_off_c, 1, 81, 100
2, 79260, Note_on_c, 1, 79, 97
2, 79318, Note_off_c, 1, 79, 97
2, 79320, Note_on_c, 1, 81, 96
2, 79378, Note_off_c, 1, 81, 96
2, 79380, Note_on_c, 1, 79, 98
2, 79438, Note_off_c, 1, 79, 98
2, 79440, Note_on_c, 1, 77, 98
2, 79495, Note_off_c, 1, 77, 98
2, 79520, Control_c, 1, 7, 123
2, 79560, Note_on_c, 1, 76, 90
2, 79600, Control_c, 1, 7, 121
2, 79607, Note_off_c, 1, 76, 90
2, 79660, Control_c, 1, 7, 120
2, 79680, Note_on_c, 1, 74, 101
2, 79840, Control_c, 1, 7, 118
2, 79887, Note_off_c, 1, 74, 101
2, 79920, Note_on_c, 1, 67, 89
2, 79940, Control_c, 1, 7, 117
2, 80000, Control_c, 1, 7, 115
2, 80040, Control_c, 1, 7, 114
2, 80080, Control_c, 1, 7, 112
2, 80080, Note_off_c, 1, 67, 89
2, 80140, Control_c, 1, 7, 111
2, 80260, Control_c, 1, 7, 110
2, 80300, Control_c, 1, 7, 108
2, 80500, Control_c, 1, 7, 107
2, 80700, Control_c, 1, 7, 105
2, 80760, Control_c, 1, 7, 104
2, 81100, Control_c, 1, 7, 102
2, 81120, Note_on_c, 1, 64, 44
2, 81240, Control_c, 1, 7, 101
2, 81598, Note_off_c, 1, 64, 44
2, 81660, Control_c, 1, 7, 99
2, 82080, Note_on_c, 1, 64, 43
2, 82180, Control_c, 1, 7, 98
2, 82240, Control_c, 1, 7, 97
2, 82558, Note_off_c, 1, 64, 43
2, 83040, Control_c, 1, 7, 95
2, 83040, Note_on_c, 1, 65, 40
2, 83518, Note_off_c, 1, 65, 40
2, 84000, Note_on_c, 1, 66, 41
2, 84478, Note_off_c, 1, 66, 41
2, 84960, Note_on_c, 1, 66, 35
2, 85438, Note_off_c, 1, 66, 35
2, 85680, Note_on_c, 1, 67, 34
2, 85814, Note_off_c, 1, 67, 34
2, 85920, Note_on_c, 1, 55, 44
2, 86398, Note_off_c, 1, 55, 44
2, 88620, Control_c, 1, 7, 95
2, 88740, Control_c, 1, 7, 96
2, 88800, Control_c, 1, 7, 98
2, 88840, Control_c, 1, 7, 99
2, 89420, Control_c, 1, 7, 101
2, 89460, Control_c, 1, 7, 102
2, 89560, Control_c, 1, 7, 104
2, 89640, Control_c, 1, 7, 105
2, 89720, Control_c, 1, 7, 107
2, 89760, Control_c, 1, 7, 108
2, 89920, Control_c, 1, 7, 109
2, 90740, Control_c, 1, 7, 111
2, 90800, Control_c, 1, 7, 112
2, 91340, Control_c, 1, 7, 114
2, 91420, Control_c, 1, 7, 115
2, 91780, Control_c, 1, 7, 117
2, 92000, Control_c, 1, 7, 118
2, 92040, Control_c, 1, 7, 120
2, 92160, Control_c, 1, 7, 121
2, 92300, Control_c, 1, 7, 122
2, 92480, Control_c, 1, 7, 124
2, 92920, Control_c, 1, 7, 125
2, 93000, Control_c, 1, 7, 127
2, 93360, Note_on_c, 1, 71, 72
2, 93431, Note_off_c, 1, 71, 72
2, 93480, Note_on_c, 1, 72, 78
2, 93558, Note_off_c, 1, 72, 78
2, 93600, Note_on_c, 1, 74, 77
2, 93838, Note_off_c, 1, 74, 77
2, 94320, Note_on_c, 1, 72, 94
2, 94391, Note_off_c, 1, 72, 94
2, 94440, Note_on_c, 1, 74, 96
2, 94511, Note_off_c, 1, 74, 96
2, 94560, Note_on_c, 1, 76, 98
2, 94798, Note_off_c, 1, 76, 98
2, 95280, Note_on_c, 1, 71, 93
2, 95351, Note_off_c, 1, 71, 93
2, 95400, Note_on_c, 1, 72, 96
2, 95463, Note_off_c, 1, 72, 96
2, 95520, Note_on_c, 1, 74, 102
2, 95758, Note_off_c, 1, 74, 102
2, 96240, Note_on_c, 1, 72, 100
2, 96280, Note_off_c, 1, 72, 100
2, 96360, Note_on_c, 1, 74, 100
2, 96423, Note_off_c, 1, 74, 100
2, 96480, Note_on_c, 1, 76, 98
2, 96718, Note_off_c, 1, 76, 98
2, 97200, Note_on_c, 1, 76, 80
2, 97320, Control_c, 1, 7, 127
2, 97320, Note_off_c, 1, 76, 80
2, 97440, Note_on_c, 1, 64, 56
2, 97640, Control_c, 1, 7, 126
2, 97680, Control_c, 1, 7, 124
2, 97720, Control_c, 1, 7, 123
2, 97780, Control_c, 1, 7, 121
2, 97860, Control_c, 1, 7, 120
2, 97900, Control_c, 1, 7, 118
2, 97918, Note_off_c, 1, 64, 56
2, 97940, Control_c, 1, 7, 117
2, 98020, Control_c, 1, 7, 115
2, 98080, Control_c, 1, 7, 114
2, 98140, Control_c, 1, 7, 113
2, 98180, Control_c, 1, 7, 111
2, 98260, Control_c, 1, 7, 110
2, 98300, Control_c, 1, 7, 108
2, 98340, Control_c, 1, 7, 107
2, 98380, Control_c, 1, 7, 105
2, 98480, Control_c, 1, 7, 104
2, 98560, Control_c, 1, 7, 102
2, 98680, Control_c, 1, 7, 101
2, 98740, Control_c, 1, 7, 100
2, 98880, Control_c, 1, 7, 98
2, 98940, Control_c, 1, 7, 97
2, 99060, Control_c, 1, 7, 95
2, 99160, Control_c, 1, 7, 94
2, 99380, Control_c, 1, 7, 92
2, 99440, Control_c, 1, 7, 91
2, 99540, Control_c, 1, 7, 89
2, 99700, Control_c, 1, 7, 88
2, 100000, Control_c, 1, 7, 87
2, 103840, Control_c, 1, 7, 87
2, 103980, Control_c, 1, 7, 86
2, 104060, Control_c, 1, 7, 84
2, 104120, Control_c, 1, 7, 83
2, 104200, Control_c, 1, 7, 81
2, 104220, Control_c, 1, 7, 80
2, 104300, Control_c, 1, 7, 78
2, 104320, Control_c, 1, 7, 77
2, 104400, Control_c, 1, 7, 75
2, 104420, Control_c, 1, 7, 74
2, 104460, Control_c, 1, 7, 73
2, 104520, Control_c, 1, 7, 71
2, 104560, Control_c, 1, 7, 70
2, 104640, Note_on_c, 1, 76, 60
2, 104740, Control_c, 1, 7, 68
2, 105700, Control_c, 1, 7, 70
2, 105800, Control_c, 1, 7, 71
2, 105920, Control_c, 1, 7, 73
2, 105980, Control_c, 1, 7, 74
2, 106140, Control_c, 1, 7, 75
2, 106400, Control_c, 1, 7, 77
2, 106540, Control_c, 1, 7, 78
2, 106550, Note_off_c, 1, 76, 84
2, 106560, Note_on_c, 1, 78, 65
2, 106720, Control_c, 1, 7, 80
2, 106820, Control_c, 1, 7, 81
2, 107040, Control_c, 1, 7, 83
2, 107180, Control_c, 1, 7, 84
2, 107260, Control_c, 1, 7, 86
2, 107400, Control_c, 1, 7, 87
2, 107820, Control_c, 1, 7, 88
2, 107920, Control_c, 1, 7, 90
2, 108020, Control_c, 1, 7, 91
2, 108300, Control_c, 1, 7, 93
2, 108480, Note_on_c, 1, 79, 70
2, 108502, Note_off_c, 1, 78, 79
2, 108520, Control_c, 1, 7, 94
2, 108660, Control_c, 1, 7, 96
2, 108980, Control_c, 1, 7, 97
2, 109160, Control_c, 1, 7, 99
2, 109340, Control_c, 1, 7, 100
2, 109520, Control_c, 1, 7, 101
2, 109600, Control_c, 1, 7, 103
2, 109700, Control_c, 1, 7, 104
2, 109940, Control_c, 1, 7, 106
2, 110100, Control_c, 1, 7, 107
2, 110240, Control_c, 1, 7, 109
2, 110340, Control_c, 1, 7, 110
2, 110398, Note_off_c, 1, 79, 84
2, 110400, Note_on_c, 1, 81, 84
2, 110520, Control_c, 1, 7, 112
2, 110880, Control_c, 1, 7, 113
2, 110960, Control_c, 1, 7, 114
2, 111060, Control_c, 1, 7, 116
2, 111220, Control_c, 1, 7, 117
2, 111400, Control_c, 1, 7, 119
2, 111480, Control_c, 1, 7, 120
2, 111580, Control_c, 1, 7, 122
2, 111700, Control_c, 1, 7, 123
2, 111840, Control_c, 1, 7, 125
2, 111880, Control_c, 1, 7, 126
2, 112040, Control_c, 1, 7, 127
2, 112318, Note_off_c, 1, 81, 84
2, 112320, Note_on_c, 1, 79, 78
2, 113240, Control_c, 1, 7, 126
2, 113270, Note_off_c, 1, 79, 78
2, 113280, Control_c, 1, 7, 125
2, 113280, Note_on_c, 1, 78, 90
2, 113320, Control_c, 1, 7, 123
2, 113400, Control_c, 1, 7, 122
2, 113440, Control_c, 1, 7, 120
2, 113640, Control_c, 1, 7, 119
2, 113700, Control_c, 1, 7, 117
2, 113840, Control_c, 1, 7, 116
2, 113900, Control_c, 1, 7, 114
2, 113960, Control_c, 1, 7, 113
2, 114060, Control_c, 1, 7, 112
2, 114220, Control_c, 1, 7, 110
2, 114280, Control_c, 1, 7, 109
2, 114360, Control_c, 1, 7, 107
2, 114440, Control_c, 1, 7, 106
2, 114500, Control_c, 1, 7, 104
2, 114620, Control_c, 1, 7, 103
2, 114700, Control_c, 1, 7, 101
2, 114840, Control_c, 1, 7, 100
2, 115198, Note_off_c, 1, 78, 90
2, 115200, Note_on_c, 1, 76, 90
2, 115564, Note_off_c, 1, 76, 90
2, 115860, Control_c, 1, 7, 99
2, 116040, Control_c, 1, 7, 97
2, 116140, Control_c, 1, 7, 96
2, 116260, Control_c, 1, 7, 94
2, 116420, Control_c, 1, 7, 93
2, 116780, Control_c, 1, 7, 91
2, 116820, Control_c, 1, 7, 90
2, 118800, Note_on_c, 1, 77, 89
2, 118913, Note_off_c, 1, 77, 89
2, 119040, Note_on_c, 1, 76, 67
2, 119278, Note_off_c, 1, 76, 67
2, 120720, Note_on_c, 1, 74, 88
2, 120856, Note_off_c, 1, 74, 88
2, 120960, Note_on_c, 1, 72, 85
2, 121096, Note_off_c, 1, 72, 85
2, 121680, Note_on_c, 1, 81, 86
2, 121816, Note_off_c, 1, 81, 86
2, 121920, Note_on_c, 1, 81, 85
2, 122120, Control_c, 1, 7, 90
2, 122160, Note_on_c, 1, 79, 92
2, 122167, Note_off_c, 1, 81, 85
2, 122304, Note_off_c, 1, 79, 92
2, 122320, Control_c, 1, 7, 91
2, 122340, Control_c, 1, 7, 93
2, 122380, Control_c, 1, 7, 94
2, 122640, Note_on_c, 1, 79, 72
2, 122660, Control_c, 1, 7, 96
2, 122720, Control_c, 1, 7, 97
2, 122737, Note_off_c, 1, 79, 72
2, 122780, Control_c, 1, 7, 99
2, 122880, Note_on_c, 1, 79, 83
2, 122960, Control_c, 1, 7, 100
2, 123113, Note_off_c, 1, 79, 83
2, 123120, Note_on_c, 1, 77, 94
2, 123240, Note_off_c, 1, 77, 94
2, 123600, Note_on_c, 1, 77, 86
2, 123640, Control_c, 1, 7, 102
2, 123680, Control_c, 1, 7, 103
2, 123720, Note_off_c, 1, 77, 86
2, 123800, Control_c, 1, 7, 104
2, 123840, Note_on_c, 1, 77, 86
2, 123940, Control_c, 1, 7, 106
2, 124080, Note_on_c, 1, 76, 83
2, 124096, Note_off_c, 1, 77, 86
2, 124216, Note_off_c, 1, 76, 83
2, 124560, Note_on_c, 1, 76, 76
2, 124704, Note_off_c, 1, 76, 76
2, 124800, Note_on_c, 1, 76, 84
2, 125032, Note_off_c, 1, 76, 84
2, 125040, Note_on_c, 1, 74, 79
2, 125161, Note_off_c, 1, 74, 79
2, 125400, Control_c, 1, 7, 104
2, 125440, Control_c, 1, 7, 103
2, 125480, Control_c, 1, 7, 102
2, 125540, Control_c, 1, 7, 100
2, 125600, Control_c, 1, 7, 99
2, 125680, Control_c, 1, 7, 97
2, 125760, Control_c, 1, 7, 96
2, 125980, Control_c, 1, 7, 94
2, 126080, Control_c, 1, 7, 93
2, 126140, Control_c, 1, 7, 91
2, 126240, Control_c, 1, 7, 90
2, 126360, Control_c, 1, 7, 89
2, 126540, Control_c, 1, 7, 87
2, 127440, Note_on_c, 1, 68, 59
2, 127568, Note_off_c, 1, 68, 59
2, 127680, Note_on_c, 1, 69, 57
2, 127910, Note_off_c, 1, 69, 57
2, 133740, Control_c, 1, 7, 87
2, 133920, Note_on_c, 1, 76, 55
2, 134040, Control_c, 1, 7, 88
2, 134140, Control_c, 1, 7, 90
2, 134390, Note_off_c, 1, 76, 55
2, 134400, Note_on_c, 1, 77, 60
2, 134420, Control_c, 1, 7, 91
2, 134500, Control_c, 1, 7, 93
2, 134540, Control_c, 1, 7, 94
2, 134680, Control_c, 1, 7, 96
2, 134780, Control_c, 1, 7, 97
2, 134860, Control_c, 1, 7, 99
2, 135000, Control_c, 1, 7, 100
2, 135140, Control_c, 1, 7, 101
2, 135260, Control_c, 1, 7, 103
2, 135400, Control_c, 1, 7, 104
2, 135480, Control_c, 1, 7, 106
2, 135640, Control_c, 1, 7, 107
2, 135740, Control_c, 1, 7, 109
2, 135800, Control_c, 1, 7, 110
2, 135900, Control_c, 1, 7, 112
2, 136100, Control_c, 1, 7, 113
2, 136320, Note_off_c, 1, 77, 60
2, 136320, Note_on_c, 1, 76, 59
2, 136480, Control_c, 1, 7, 114
2, 136720, Control_c, 1, 7, 116
2, 136980, Control_c, 1, 7, 117
2, 137060, Control_c, 1, 7, 119
2, 137140, Control_c, 1, 7, 120
2, 137600, Control_c, 1, 7, 122
2, 137760, Control_c, 1, 7, 123
2, 137880, Control_c, 1, 7, 125
2, 137940, Control_c, 1, 7, 126
2, 138140, Control_c, 1, 7, 127
2, 138230, Note_off_c, 1, 76, 59
2, 138240, Note_on_c, 1, 74, 55
2, 140120, Control_c, 1, 7, 126
2, 140158, Note_off_c, 1, 74, 55
2, 140160, Note_on_c, 1, 72, 49
2, 140400, Control_c, 1, 7, 125
2, 140500, Control_c, 1, 7, 123
2, 140560, Control_c, 1, 7, 122
2, 140638, Note_off_c, 1, 72, 49
2, 140860, Control_c, 1, 7, 120
2, 141840, Note_on_c, 1, 81, 70
2, 141860, Control_c, 1, 7, 122
2, 141900, Control_c, 1, 7, 123
2, 141920, Control_c, 1, 7, 125
2, 141942, Note_off_c, 1, 81, 70
2, 142080, Note_on_c, 1, 77, 69
2, 142206, Note_off_c, 1, 77, 69
2, 142320, Note_on_c, 1, 74, 66
2, 142462, Note_off_c, 1, 74, 66
2, 142720, Control_c, 1, 7, 123
2, 142780, Control_c, 1, 7, 122
2, 142840, Control_c, 1, 7, 120
2, 142940, Control_c, 1, 7, 119
2, 143060, Control_c, 1, 7, 117
2, 143280, Control_c, 1, 7, 116
2, 143420, Control_c, 1, 7, 114
2, 143760, Note_on_c, 1, 74, 69
2, 143894, Note_off_c, 1, 74, 69
2, 144000, Note_on_c, 1, 71, 79
2, 144142, Note_off_c, 1, 71, 79
2, 144240, Note_on_c, 1, 67, 69
2, 144350, Note_off_c, 1, 67, 69
2, 144780, Control_c, 1, 7, 113
2, 144820, Control_c, 1, 7, 112
2, 145000, Control_c, 1, 7, 110
2, 145080, Control_c, 1, 7, 109
2, 145220, Control_c, 1, 7, 107
2, 145360, Control_c, 1, 7, 106
2, 145440, Control_c, 1, 7, 104
2, 145540, Control_c, 1, 7, 103
2, 145680, Note_on_c, 1, 67, 76
2, 145806, Note_off_c, 1, 67, 76
2, 145920, Note_on_c, 1, 64, 79
2, 146070, Note_off_c, 1, 64, 79
2, 146160, Note_on_c, 1, 60, 71
2, 146270, Note_off_c, 1, 60, 71
2, 146760, Control_c, 1, 7, 101
2, 146980, Control_c, 1, 7, 100
2, 147120, Control_c, 1, 7, 99
2, 147520, Control_c, 1, 7, 97
2, 147600, Note_on_c, 1, 72, 78
2, 147742, Note_off_c, 1, 72, 78
2, 147840, Note_on_c, 1, 69, 76
2, 147974, Note_off_c, 1, 69, 76
2, 148080, Control_c, 1, 7, 96
2, 148080, Note_on_c, 1, 65, 68
2, 148214, Note_off_c, 1, 65, 68
2, 149520, Note_on_c, 1, 74, 79
2, 149654, Note_off_c, 1, 74, 79
2, 149760, Note_on_c, 1, 71, 72
2, 149870, Note_off_c, 1, 71, 72
2, 150000, Control_c, 1, 7, 94
2, 150000, Note_on_c, 1, 67, 69
2, 150110, Note_off_c, 1, 67, 69
2, 151440, Note_on_c, 1, 76, 68
2, 151526, Note_off_c, 1, 76, 68
2, 151680, Note_on_c, 1, 72, 71
2, 151798, Note_off_c, 1, 72, 71
2, 151920, Note_on_c, 1, 69, 70
2, 152022, Note_off_c, 1, 69, 70
2, 153360, Note_on_c, 1, 76, 73
2, 153462, Note_off_c, 1, 76, 73
2, 153600, Note_on_c, 1, 77, 74
2, 153718, Note_off_c, 1, 77, 74
2, 153720, Note_on_c, 1, 76, 74
2, 153838, Note_off_c, 1, 76, 74
2, 153840, Note_on_c, 1, 77, 74
2, 153990, Note_off_c, 1, 77, 74
2, 154220, Control_c, 1, 7, 94
2, 154680, Control_c, 1, 7, 95
2, 154800, Control_c, 1, 7, 97
2, 154900, Control_c, 1, 7, 98
2, 154960, Control_c, 1, 7, 100
2, 155000, Control_c, 1, 7, 101
2, 155060, Control_c, 1, 7, 103
2, 155200, Control_c, 1, 7, 104
2, 155280, Note_on_c, 1, 74, 74
2, 155300, Control_c, 1, 7, 106
2, 155398, Note_off_c, 1, 74, 74
2, 155420, Control_c, 1, 7, 107
2, 155520, Note_on_c, 1, 76, 70
2, 155638, Note_off_c, 1, 76, 70
2, 155640, Note_on_c, 1, 74, 70
2, 155758, Note_off_c, 1, 74, 70
2, 155760, Note_on_c, 1, 76, 70
2, 155880, Control_c, 1, 7, 108
2, 155894, Note_off_c, 1, 76, 70
2, 156140, Control_c, 1, 7, 110
2, 156180, Control_c, 1, 7, 111
2, 156480, Control_c, 1, 7, 113
2, 156640, Control_c, 1, 7, 114
2, 156760, Control_c, 1, 7, 116
2, 157200, Note_on_c, 1, 72, 77
2, 157334, Note_off_c, 1, 72, 77
2, 157440, Note_on_c, 1, 74, 74
2, 157558, Note_off_c, 1, 74, 74
2, 157560, Note_on_c, 1, 72, 71
2, 157678, Note_off_c, 1, 72, 71
2, 157680, Note_on_c, 1, 74, 77
2, 157814, Note_off_c, 1, 74, 77
2, 159120, Note_on_c, 1, 71, 71
2, 159254, Note_off_c, 1, 71, 71
2, 159260, Control_c, 1, 7, 114
2, 159340, Control_c, 1, 7, 113
2, 159360, Note_on_c, 1, 72, 71
2, 159440, Control_c, 1, 7, 111
2, 159478, Note_off_c, 1, 72, 71
2, 159480, Note_on_c, 1, 71, 67
2, 159540, Control_c, 1, 7, 110
2, 159598, Note_off_c, 1, 71, 67
2, 159600, Note_on_c, 1, 69, 66
2, 159680, Control_c, 1, 7, 108
2, 159702, Note_off_c, 1, 69, 66
2, 159800, Control_c, 1, 7, 107
2, 159860, Control_c, 1, 7, 106
2, 159920, Control_c, 1, 7, 104
2, 160000, Control_c, 1, 7, 103
2, 160160, Control_c, 1, 7, 101
2, 160280, Control_c, 1, 7, 100
2, 160400, Control_c, 1, 7, 98
2, 160980, Control_c, 1, 7, 100
2, 161000, Control_c, 1, 7, 101
2, 161040, Control_c, 1, 7, 103
2, 161040, Note_on_c, 1, 69, 69
2, 161080, Control_c, 1, 7, 104
2, 161100, Control_c, 1, 7, 106
2, 161134, Note_off_c, 1, 69, 69
2, 161140, Control_c, 1, 7, 107
2, 161280, Note_on_c, 1, 69, 71
2, 161518, Note_off_c, 1, 69, 71
2, 161520, Note_on_c, 1, 67, 70
2, 161620, Control_c, 1, 7, 106
2, 161640, Control_c, 1, 7, 104
2, 161662, Note_off_c, 1, 67, 70
2, 161680, Control_c, 1, 7, 103
2, 161700, Control_c, 1, 7, 101
2, 161740, Control_c, 1, 7, 100
2, 161760, Control_c, 1, 7, 98
2, 161800, Control_c, 1, 7, 97
2, 162940, Control_c, 1, 7, 98
2, 162960, Control_c, 1, 7, 101
2, 162960, Note_on_c, 1, 67, 67
2, 163000, Control_c, 1, 7, 103
2, 163020, Control_c, 1, 7, 104
2, 163094, Note_off_c, 1, 67, 67
2, 163200, Note_on_c, 1, 67, 75
2, 163438, Note_off_c, 1, 67, 75
2, 163440, Note_on_c, 1, 65, 76
2, 163574, Note_off_c, 1, 65, 76
2, 163640, Control_c, 1, 7, 103
2, 163680, Control_c, 1, 7, 101
2, 163700, Control_c, 1, 7, 100
2, 163820, Control_c, 1, 7, 98
2, 164120, Control_c, 1, 7, 98
2, 164880, Note_on_c, 1, 65, 66
2, 164974, Note_off_c, 1, 65, 66
2, 165120, Note_on_c, 1, 65, 55
2, 165358, Note_off_c, 1, 65, 55
2, 165360, Note_on_c, 1, 64, 72
2, 165502, Note_off_c, 1, 64, 72
2, 166800, Note_on_c, 1, 64, 61
2, 166902, Note_off_c, 1, 64, 61
2, 167040, Note_on_c, 1, 64, 85
2, 167294, Note_off_c, 1, 64, 85
2, 177600, Note_on_c, 1, 69, 59
2, 178740, Control_c, 1, 7, 98
2, 179020, Control_c, 1, 7, 99
2, 179180, Control_c, 1, 7, 101
2, 179300, Control_c, 1, 7, 102
2, 179640, Control_c, 1, 7, 104
2, 179800, Control_c, 1, 7, 105
2, 179960, Control_c, 1, 7, 107
2, 180060, Control_c, 1, 7, 108
2, 180400, Control_c, 1, 7, 110
2, 180540, Control_c, 1, 7, 111
2, 180800, Control_c, 1, 7, 112
2, 180920, Control_c, 1, 7, 114
2, 181040, Control_c, 1, 7, 115
2, 181120, Control_c, 1, 7, 117
2, 181220, Control_c, 1, 7, 118
2, 181280, Control_c, 1, 7, 120
2, 181438, Note_off_c, 1, 69, 73
2, 181560, Control_c, 1, 7, 121
2, 181620, Control_c, 1, 7, 123
2, 181680, Note_on_c, 1, 72, 67
2, 181720, Control_c, 1, 7, 124
2, 181760, Control_c, 1, 7, 125
2, 181822, Note_off_c, 1, 72, 67
2, 181920, Note_on_c, 1, 72, 62
2, 182054, Note_off_c, 1, 72, 62
2, 182160, Note_on_c, 1, 72, 67
2, 182326, Note_off_c, 1, 72, 67
2, 182640, Note_on_c, 1, 74, 69
2, 182790, Note_off_c, 1, 74, 69
2, 182880, Note_on_c, 1, 74, 67
2, 182990, Note_off_c, 1, 74, 67
2, 183120, Note_on_c, 1, 74, 69
2, 183246, Note_off_c, 1, 74, 69
2, 183520, Control_c, 1, 7, 124
2, 183580, Control_c, 1, 7, 123
2, 183600, Note_on_c, 1, 76, 68
2, 183640, Control_c, 1, 7, 121
2, 183720, Control_c, 1, 7, 120
2, 183742, Note_off_c, 1, 76, 68
2, 183800, Control_c, 1, 7, 118
2, 183840, Note_on_c, 1, 76, 67
2, 183880, Control_c, 1, 7, 117
2, 183960, Control_c, 1, 7, 115
2, 183982, Note_off_c, 1, 76, 67
2, 184060, Control_c, 1, 7, 114
2, 184080, Note_on_c, 1, 76, 65
2, 184100, Control_c, 1, 7, 112
2, 184160, Control_c, 1, 7, 111
2, 184214, Note_off_c, 1, 76, 65
2, 184240, Control_c, 1, 7, 110
2, 184460, Control_c, 1, 7, 108
2, 184520, Control_c, 1, 7, 107
2, 184560, Note_on_c, 1, 77, 73
2, 184600, Control_c, 1, 7, 105
2, 184702, Note_off_c, 1, 77, 73
2, 184740, Control_c, 1, 7, 104
2, 184800, Control_c, 1, 7, 102
2, 184800, Note_on_c, 1, 77, 70
2, 184820, Control_c, 1, 7, 101
2, 184860, Control_c, 1, 7, 99
2, 184900, Control_c, 1, 7, 98
2, 184918, Note_off_c, 1, 77, 70
2, 185040, Note_on_c, 1, 77, 64
2, 185158, Note_off_c, 1, 77, 64
2, 185520, Note_on_c, 1, 76, 71
2, 185654, Note_off_c, 1, 76, 71
2, 185760, Note_on_c, 1, 72, 68
2, 185886, Note_off_c, 1, 72, 68
2, 186000, Note_on_c, 1, 72, 72
2, 186134, Note_off_c, 1, 72, 72
2, 186240, Note_on_c, 1, 71, 65
2, 186880, Control_c, 1, 7, 98
2, 187340, Control_c, 1, 7, 99
2, 187520, Control_c, 1, 7, 101
2, 187600, Control_c, 1, 7, 102
2, 187640, Control_c, 1, 7, 104
2, 187680, Control_c, 1, 7, 105
2, 187840, Control_c, 1, 7, 107
2, 187900, Control_c, 1, 7, 108
2, 187960, Control_c, 1, 7, 110
2, 188020, Control_c, 1, 7, 111
2, 188060, Control_c, 1, 7, 112
2, 188158, Note_off_c, 1, 71, 65
2, 188160, Note_on_c, 1, 69, 127
2, 188200, Control_c, 1, 7, 114
2, 188214, Note_off_c, 1, 69, 127
2, 188280, Note_on_c, 1, 64, 127
2, 188334, Note_off_c, 1, 64, 127
2, 188400, Note_on_c, 1, 60, 127
2, 188470, Note_off_c, 1, 60, 127
2, 188520, Note_on_c, 1, 64, 127
2, 188574, Note_off_c, 1, 64, 127
2, 188620, Control_c, 1, 7, 115
2, 188640, Note_on_c, 1, 57, 127
2, 188830, Note_off_c, 1, 57, 127
2, 188880, Note_on_c, 1, 76, 88
2, 189014, Note_off_c, 1, 76, 88
2, 189120, Note_on_c, 1, 76, 88
2, 189246, Note_off_c, 1, 76, 88
2, 189360, Note_on_c, 1, 76, 85
2, 189470, Note_off_c, 1, 76, 85
2, 189600, Note_on_c, 1, 76, 86
2, 189726, Note_off_c, 1, 76, 86
2, 189840, Note_on_c, 1, 76, 83
2, 189958, Note_off_c, 1, 76, 83
2, 190080, Control_c, 1, 7, 117
2, 190080, Note_on_c, 1, 81, 92
2, 190120, Control_c, 1, 7, 118
2, 190160, Control_c, 1, 7, 120
2, 190240, Control_c, 1, 7, 121
2, 190318, Note_off_c, 1, 81, 92
2, 190320, Note_on_c, 1, 76, 80
2, 190422, Note_off_c, 1, 76, 80
2, 190500, Control_c, 1, 7, 123
2, 190560, Note_on_c, 1, 76, 81
2, 190686, Note_off_c, 1, 76, 81
2, 190800, Note_on_c, 1, 76, 79
2, 190926, Note_off_c, 1, 76, 79
2, 191040, Note_on_c, 1, 81, 87
2, 191160, Control_c, 1, 7, 124
2, 191278, Note_off_c, 1, 81, 87
2, 191280, Note_on_c, 1, 76, 80
2, 191406, Note_off_c, 1, 76, 80
2, 191520, Note_on_c, 1, 76, 79
2, 191630, Note_off_c, 1, 76, 79
2, 191760, Note_on_c, 1, 76, 80
2, 191870, Note_off_c, 1, 76, 80
2, 192000, Note_on_c, 1, 81, 89
2, 192118, Note_off_c, 1, 81, 89
2, 192120, Note_on_c, 1, 76, 80
2, 192182, Note_off_c, 1, 76, 80
2, 192240, Note_on_c, 1, 76, 78
2, 192302, Note_off_c, 1, 76, 78
2, 192360, Note_on_c, 1, 76, 80
2, 192446, Note_off_c, 1, 76, 80
2, 192480, Note_on_c, 1, 81, 88
2, 192598, Note_off_c, 1, 81, 88
2, 192600, Note_on_c, 1, 76, 79
2, 192678, Note_off_c, 1, 76, 79
2, 192720, Note_on_c, 1, 76, 78
2, 192798, Note_off_c, 1, 76, 78
2, 192840, Note_on_c, 1, 76, 71
2, 192894, Note_off_c, 1, 76, 71
2, 192960, Note_on_c, 1, 81, 83
2, 193078, Note_off_c, 1, 81, 83
2, 193080, Note_on_c, 1, 76, 78
2, 193150, Note_off_c, 1, 76, 78
2, 193200, Note_on_c, 1, 76, 70
2, 193254, Note_off_c, 1, 76, 70
2, 193320, Note_on_c, 1, 76, 74
2, 193398, Note_off_c, 1, 76, 74
2, 193440, Note_on_c, 1, 81, 84
2, 193558, Note_off_c, 1, 81, 84
2, 193560, Note_on_c, 1, 76, 78
2, 193630, Note_off_c, 1, 76, 78
2, 193680, Note_on_c, 1, 76, 71
2, 193742, Note_off_c, 1, 76, 71
2, 193800, Note_on_c, 1, 76, 72
2, 193854, Note_off_c, 1, 76, 72
2, 193920, Note_on_c, 1, 81, 85
2, 194158, Note_off_c, 1, 81, 85
2, 194160, Note_on_c, 1, 79, 80
2, 194278, Note_off_c, 1, 79, 80
2, 194280, Note_on_c, 1, 77, 81
2, 194398, Note_off_c, 1, 77, 81
2, 194400, Note_on_c, 1, 76, 80
2, 194494, Note_off_c, 1, 76, 80
2, 194640, Note_on_c, 1, 74, 81
2, 194758, Note_off_c, 1, 74, 81
2, 194880, Note_on_c, 1, 72, 88
2, 195318, Note_off_c, 1, 72, 88
2, 195360, Note_on_c, 1, 72, 88
2, 195418, Note_off_c, 1, 72, 88
2, 195420, Note_on_c, 1, 71, 79
2, 195478, Note_off_c, 1, 71, 79
2, 195480, Note_on_c, 1, 72, 89
2, 195538, Note_off_c, 1, 72, 89
2, 195540, Note_on_c, 1, 71, 74
2, 195598, Note_off_c, 1, 71, 74
2, 195600, Note_on_c, 1, 72, 85
2, 195658, Note_off_c, 1, 72, 85
2, 195660, Note_on_c, 1, 71, 78
2, 195718, Note_off_c, 1, 71, 78
2, 195720, Note_on_c, 1, 72, 83
2, 195778, Note_off_c, 1, 72, 83
2, 195780, Note_on_c, 1, 71, 79
2, 195838, Note_off_c, 1, 71, 79
2, 195840, Note_on_c, 1, 69, 88
2, 197760, Note_off_c, 1, 69, 88
2, 198000, Note_on_c, 1, 67, 80
2, 198118, Note_off_c, 1, 67, 80
2, 198120, Note_on_c, 1, 65, 85
2, 198238, Note_off_c, 1, 65, 85
2, 198240, Note_on_c, 1, 64, 82
2, 198358, Note_off_c, 1, 64, 82
2, 198480, Note_on_c, 1, 62, 82
2, 198598, Note_off_c, 1, 62, 82
2, 198720, Note_on_c, 1, 60, 90
2, 199118, Note_off_c, 1, 60, 90
2, 199200, Note_on_c, 1, 60, 125
2, 199220, Note_off_c, 1, 60, 125
2, 199230, Note_on_c, 1, 59, 61
2, 199258, Note_off_c, 1, 59, 61
2, 199260, Note_on_c, 1, 60, 69
2, 199272, Note_off_c, 1, 60, 69
2, 199290, Note_on_c, 1, 59, 59
2, 199318, Note_off_c, 1, 59, 59
2, 199320, Note_on_c, 1, 60, 64
2, 199348, Note_off_c, 1, 60, 64
2, 199350, Note_on_c, 1, 59, 53
2, 199378, Note_off_c, 1, 59, 53
2, 199380, Note_on_c, 1, 60, 63
2, 199408, Note_off_c, 1, 60, 63
2, 199410, Note_on_c, 1, 59, 55
2, 199438, Note_off_c, 1, 59, 55
2, 199440, Note_on_c, 1, 60, 59
2, 199468, Note_off_c, 1, 60, 59
2, 199470, Note_on_c, 1, 59, 48
2, 199498, Note_off_c, 1, 59, 48
2, 199500, Note_on_c, 1, 60, 53
2, 199528, Note_off_c, 1, 60, 53
2, 199530, Note_on_c, 1, 59, 54
2, 199558, Note_off_c, 1, 59, 54
2, 199560, Note_on_c, 1, 60, 63
2, 199588, Note_off_c, 1, 60, 63
2, 199590, Note_on_c, 1, 59, 69
2, 199618, Note_off_c, 1, 59, 69
2, 199620, Note_on_c, 1, 60, 73
2, 199648, Note_off_c, 1, 60, 73
2, 199650, Note_on_c, 1, 59, 109
2, 199680, Note_off_c, 1, 59, 109
2, 199740, Control_c, 1, 7, 124
2, 199808, Note_on_c, 1, 57, 89
2, 200100, Control_c, 1, 7, 123
2, 200120, Control_c, 1, 7, 121
2, 200140, Control_c, 1, 7, 120
2, 200240, Control_c, 1, 7, 118
2, 200260, Control_c, 1, 7, 117
2, 200320, Control_c, 1, 7, 115
2, 200340, Control_c, 1, 7, 114
2, 200360, Control_c, 1, 7, 112
2, 200380, Control_c, 1, 7, 111
2, 200420, Control_c, 1, 7, 110
2, 200460, Control_c, 1, 7, 108
2, 200500, Control_c, 1, 7, 107
2, 200520, Control_c, 1, 7, 105
2, 200540, Control_c, 1, 7, 104
2, 200580, Control_c, 1, 7, 102
2, 200600, Control_c, 1, 7, 101
2, 200620, Control_c, 1, 7, 99
2, 200660, Control_c, 1, 7, 98
2, 200680, Control_c, 1, 7, 97
2, 200700, Control_c, 1, 7, 95
2, 200720, Control_c, 1, 7, 94
2, 200760, Control_c, 1, 7, 92
2, 200780, Control_c, 1, 7, 91
2, 200780, Control_c, 1, 7, 89
2, 200800, Control_c, 1, 7, 88
2, 200820, Control_c, 1, 7, 86
2, 200840, Control_c, 1, 7, 85
2, 200880, Control_c, 1, 7, 84
2, 200880, Control_c, 1, 7, 82
2, 200920, Control_c, 1, 7, 81
2, 200940, Control_c, 1, 7, 79
2, 200940, Control_c, 1, 7, 78
2, 200960, Control_c, 1, 7, 76
2, 200980, Control_c, 1, 7, 75
2, 200980, Control_c, 1, 7, 73
2, 201000, Control_c, 1, 7, 72
2, 201020, Control_c, 1, 7, 71
2, 201020, Control_c, 1, 7, 69
2, 201040, Control_c, 1, 7, 68
2, 201060, Control_c, 1, 7, 66
2, 201080, Control_c, 1, 7, 65
2, 201120, Control_c, 1, 7, 63
2, 201120, Control_c, 1, 7, 60
2, 201140, Control_c, 1, 7, 59
2, 201180, Control_c, 1, 7, 58
2, 201180, Control_c, 1, 7, 56
2, 201200, Control_c, 1, 7, 55
2, 201220, Control_c, 1, 7, 53
2, 201260, Control_c, 1, 7, 52
2, 201300, Control_c, 1, 7, 50
2, 201340, Control_c, 1, 7, 49
2, 201360, Control_c, 1, 7, 48
2, 201380, Control_c, 1, 7, 46
2, 201400, Control_c, 1, 7, 45
2, 201420, Control_c, 1, 7, 42
2, 201420, Control_c, 1, 7, 40
2, 201440, Control_c, 1, 7, 39
2, 201480, Control_c, 1, 7, 37
2, 201500, Control_c, 1, 7, 36
2, 201520, Control_c, 1, 7, 35
2, 201560, Control_c, 1, 7, 33
2, 201580, Control_c, 1, 7, 32
2, 201600, Note_off_c, 1, 57, 89
2, 201600, End_track
3, 0, Start_track
3, 0, Title_t, "Violin 2"
3, 0, Key_signature, 0, "major"
3, 55, Control_c, 2, 0, 0
3, 60, Control_c, 2, 32, 0
3, 65, Program_c, 2, 48
3, 70, Control_c, 2, 7, 110
3, 75, Control_c, 2, 10, 45
3, 80, Control_c, 2, 91, 127
3, 85, Control_c, 2, 101, 0
3, 90, Control_c, 2, 100, 0
3, 95, Control_c, 2, 6, 2
3, 12480, Note_on_c, 2, 76, 119
3, 12632, Note_off_c, 2, 76, 119
3, 13200, Note_on_c, 2, 76, 86
3, 13313, Note_off_c, 2, 76, 86
3, 13440, Note_on_c, 2, 72, 79
3, 13571, Note_off_c, 2, 72, 79
3, 13680, Note_on_c, 2, 69, 76
3, 13822, Note_off_c, 2, 69, 76
3, 14160, Note_on_c, 2, 76, 89
3, 14285, Note_off_c, 2, 76, 89
3, 14400, Note_on_c, 2, 72, 82
3, 14531, Note_off_c, 2, 72, 82
3, 14640, Note_on_c, 2, 69, 80
3, 14783, Note_off_c, 2, 69, 80
3, 14940, Control_c, 2, 7, 90
3, 15120, Note_on_c, 2, 76, 90
3, 15240, Control_c, 2, 7, 91
3, 15245, Note_off_c, 2, 76, 90
3, 15280, Control_c, 2, 7, 93
3, 15300, Control_c, 2, 7, 96
3, 15340, Control_c, 2, 7, 99
3, 15360, Control_c, 2, 7, 100
3, 15360, Note_on_c, 2, 74, 90
3, 15400, Control_c, 2, 7, 102
3, 15412, Note_off_c, 2, 74, 90
3, 15420, Control_c, 2, 7, 103
3, 15420, Note_on_c, 2, 72, 80
3, 15478, Note_off_c, 2, 72, 80
3, 15480, Note_on_c, 2, 74, 84
3, 15538, Note_off_c, 2, 74, 84
3, 15540, Note_on_c, 2, 72, 85
3, 15598, Note_off_c, 2, 72, 85
3, 15600, Note_on_c, 2, 69, 75
3, 15666, Note_off_c, 2, 69, 75
3, 15720, Note_on_c, 2, 71, 76
3, 15788, Note_off_c, 2, 71, 76
3, 15840, Note_on_c, 2, 72, 78
3, 15971, Note_off_c, 2, 72, 78
3, 16080, Note_on_c, 2, 72, 72
3, 16217, Note_off_c, 2, 72, 72
3, 16320, Note_on_c, 2, 74, 80
3, 16378, Note_off_c, 2, 74, 80
3, 16380, Note_on_c, 2, 72, 76
3, 16438, Note_off_c, 2, 72, 76
3, 16440, Note_on_c, 2, 74, 80
3, 16498, Note_off_c, 2, 74, 80
3, 16500, Note_on_c, 2, 72, 75
3, 16558, Note_off_c, 2, 72, 75
3, 16560, Note_on_c, 2, 69, 76
3, 16628, Note_off_c, 2, 69, 76
3, 16680, Note_on_c, 2, 71, 80
3, 16758, Note_off_c, 2, 71, 80
3, 16800, Note_on_c, 2, 72, 80
3, 16925, Note_off_c, 2, 72, 80
3, 17040, Note_on_c, 2, 72, 76
3, 17171, Note_off_c, 2, 72, 76
3, 17280, Control_c, 2, 7, 102
3, 17280, Note_on_c, 2, 72, 78
3, 17380, Control_c, 2, 7, 100
3, 17400, Control_c, 2, 7, 99
3, 17405, Note_off_c, 2, 72, 78
3, 17440, Control_c, 2, 7, 97
3, 17480, Control_c, 2, 7, 96
3, 17520, Control_c, 2, 7, 94
3, 17520, Note_on_c, 2, 72, 77
3, 17628, Note_off_c, 2, 72, 77
3, 17760, Note_on_c, 2, 72, 74
3, 17891, Note_off_c, 2, 72, 74
3, 18000, Note_on_c, 2, 71, 75
3, 18070, Note_off_c, 2, 71, 75
3, 18120, Note_on_c, 2, 69, 75
3, 18206, Note_off_c, 2, 69, 75
3, 18240, Note_on_c, 2, 68, 81
3, 18371, Note_off_c, 2, 68, 81
3, 25920, Note_on_c, 2, 72, 93
3, 26398, Note_off_c, 2, 72, 93
3, 26560, Control_c, 2, 7, 94
3, 26640, Note_on_c, 2, 76, 82
3, 26742, Note_off_c, 2, 76, 82
3, 26800, Control_c, 2, 7, 95
3, 26840, Control_c, 2, 7, 97
3, 26880, Note_on_c, 2, 72, 79
3, 26900, Control_c, 2, 7, 98
3, 26960, Control_c, 2, 7, 100
3, 26998, Note_off_c, 2, 72, 79
3, 27120, Note_on_c, 2, 69, 77
3, 27254, Note_off_c, 2, 69, 77
3, 27280, Control_c, 2, 7, 101
3, 27320, Control_c, 2, 7, 103
3, 27360, Control_c, 2, 7, 104
3, 27440, Control_c, 2, 7, 106
3, 27600, Note_on_c, 2, 76, 85
3, 27720, Control_c, 2, 7, 107
3, 27742, Note_off_c, 2, 76, 85
3, 27760, Control_c, 2, 7, 108
3, 27780, Control_c, 2, 7, 110
3, 27820, Control_c, 2, 7, 111
3, 27840, Note_on_c, 2, 72, 84
3, 27974, Note_off_c, 2, 72, 84
3, 28080, Note_on_c, 2, 69, 80
3, 28200, Control_c, 2, 7, 110
3, 28214, Note_off_c, 2, 69, 80
3, 28240, Control_c, 2, 7, 108
3, 28260, Control_c, 2, 7, 107
3, 28300, Control_c, 2, 7, 106
3, 28320, Control_c, 2, 7, 103
3, 28360, Control_c, 2, 7, 101
3, 28380, Control_c, 2, 7, 98
3, 28420, Control_c, 2, 7, 97
3, 28560, Note_on_c, 2, 76, 84
3, 28640, Control_c, 2, 7, 98
3, 28670, Note_off_c, 2, 76, 84
3, 28680, Control_c, 2, 7, 100
3, 28700, Control_c, 2, 7, 103
3, 28740, Control_c, 2, 7, 106
3, 28760, Control_c, 2, 7, 107
3, 28800, Control_c, 2, 7, 110
3, 28800, Note_on_c, 2, 72, 86
3, 28820, Control_c, 2, 7, 111
3, 28926, Note_off_c, 2, 72, 86
3, 29040, Note_on_c, 2, 69, 82
3, 29120, Control_c, 2, 7, 110
3, 29142, Note_off_c, 2, 69, 82
3, 29160, Control_c, 2, 7, 108
3, 29200, Control_c, 2, 7, 107
3, 29240, Control_c, 2, 7, 106
3, 29260, Control_c, 2, 7, 104
3, 29300, Control_c, 2, 7, 103
3, 29320, Control_c, 2, 7, 101
3, 29420, Control_c, 2, 7, 100
3, 29520, Note_on_c, 2, 76, 82
3, 29662, Note_off_c, 2, 76, 82
3, 29760, Note_on_c, 2, 74, 84
3, 29818, Note_off_c, 2, 74, 84
3, 29820, Note_on_c, 2, 72, 81
3, 29878, Note_off_c, 2, 72, 81
3, 29880, Note_on_c, 2, 74, 80
3, 29938, Note_off_c, 2, 74, 80
3, 29940, Note_on_c, 2, 72, 76
3, 29998, Note_off_c, 2, 72, 76
3, 30000, Note_on_c, 2, 69, 80
3, 30062, Note_off_c, 2, 69, 80
3, 30120, Note_on_c, 2, 71, 80
3, 30182, Note_off_c, 2, 71, 80
3, 30240, Note_on_c, 2, 72, 80
3, 30382, Note_off_c, 2, 72, 80
3, 30480, Note_on_c, 2, 72, 83
3, 30622, Note_off_c, 2, 72, 83
3, 30720, Note_on_c, 2, 74, 84
3, 30778, Note_off_c, 2, 74, 84
3, 30780, Note_on_c, 2, 72, 83
3, 30838, Note_off_c, 2, 72, 83
3, 30840, Note_on_c, 2, 74, 80
3, 30898, Note_off_c, 2, 74, 80
3, 30900, Note_on_c, 2, 72, 80
3, 30958, Note_off_c, 2, 72, 80
3, 30960, Note_on_c, 2, 69, 76
3, 31030, Note_off_c, 2, 69, 76
3, 31080, Note_on_c, 2, 71, 77
3, 31142, Note_off_c, 2, 71, 77
3, 31200, Note_on_c, 2, 72, 78
3, 31326, Note_off_c, 2, 72, 78
3, 31440, Note_on_c, 2, 72, 80
3, 31558, Note_off_c, 2, 72, 80
3, 31680, Note_on_c, 2, 72, 83
3, 31774, Note_off_c, 2, 72, 83
3, 31920, Note_on_c, 2, 72, 81
3, 31998, Note_off_c, 2, 72, 81
3, 32160, Note_on_c, 2, 74, 76
3, 32218, Note_off_c, 2, 74, 76
3, 32220, Note_on_c, 2, 72, 74
3, 32278, Note_off_c, 2, 72, 74
3, 32280, Note_on_c, 2, 74, 74
3, 32338, Note_off_c, 2, 74, 74
3, 32340, Note_on_c, 2, 72, 73
3, 32398, Note_off_c, 2, 72, 73
3, 32400, Note_on_c, 2, 71, 78
3, 32454, Note_off_c, 2, 71, 78
3, 32520, Note_on_c, 2, 69, 77
3, 32590, Note_off_c, 2, 69, 77
3, 32640, Note_on_c, 2, 68, 74
3, 32870, Note_off_c, 2, 68, 74
3, 40800, Note_on_c, 2, 71, 64
3, 41278, Note_off_c, 2, 71, 64
3, 41280, Note_on_c, 2, 72, 64
3, 41740, Control_c, 2, 7, 100
3, 42040, Control_c, 2, 7, 101
3, 42140, Control_c, 2, 7, 103
3, 42200, Control_c, 2, 7, 104
3, 42360, Control_c, 2, 7, 106
3, 42460, Control_c, 2, 7, 107
3, 42540, Control_c, 2, 7, 109
3, 42620, Control_c, 2, 7, 110
3, 42660, Control_c, 2, 7, 112
3, 42720, Control_c, 2, 7, 113
3, 42760, Control_c, 2, 7, 114
3, 42800, Control_c, 2, 7, 116
3, 42860, Control_c, 2, 7, 117
3, 42920, Control_c, 2, 7, 119
3, 43020, Control_c, 2, 7, 120
3, 43100, Control_c, 2, 7, 122
3, 43198, Note_off_c, 2, 72, 84
3, 43200, Note_on_c, 2, 71, 87
3, 43320, Control_c, 2, 7, 123
3, 43440, Control_c, 2, 7, 125
3, 43520, Control_c, 2, 7, 126
3, 44060, Control_c, 2, 7, 127
3, 44860, Control_c, 2, 7, 126
3, 45020, Control_c, 2, 7, 125
3, 45118, Note_off_c, 2, 71, 87
3, 45120, Note_on_c, 2, 69, 89
3, 45180, Control_c, 2, 7, 123
3, 45240, Control_c, 2, 7, 122
3, 45320, Control_c, 2, 7, 120
3, 45420, Control_c, 2, 7, 119
3, 45620, Control_c, 2, 7, 117
3, 45700, Control_c, 2, 7, 116
3, 45740, Control_c, 2, 7, 114
3, 45860, Control_c, 2, 7, 113
3, 46080, Control_c, 2, 7, 112
3, 46160, Control_c, 2, 7, 110
3, 46320, Control_c, 2, 7, 109
3, 46560, Control_c, 2, 7, 107
3, 46720, Control_c, 2, 7, 106
3, 46960, Control_c, 2, 7, 104
3, 47020, Control_c, 2, 7, 103
3, 47038, Note_off_c, 2, 69, 89
3, 47040, Note_on_c, 2, 68, 85
3, 47240, Control_c, 2, 7, 101
3, 47580, Control_c, 2, 7, 100
3, 47780, Control_c, 2, 7, 99
3, 47900, Control_c, 2, 7, 97
3, 47998, Note_off_c, 2, 68, 85
3, 48000, Note_on_c, 2, 69, 79
3, 48020, Control_c, 2, 7, 96
3, 48144, Note_off_c, 2, 69, 79
3, 48240, Note_on_c, 2, 64, 79
3, 48360, Note_off_c, 2, 64, 79
3, 48480, Note_on_c, 2, 69, 75
3, 48600, Note_off_c, 2, 69, 75
3, 48720, Note_on_c, 2, 72, 76
3, 48833, Note_off_c, 2, 72, 76
3, 48960, Note_on_c, 2, 71, 72
3, 49088, Note_off_c, 2, 71, 72
3, 49200, Note_on_c, 2, 80, 74
3, 49305, Note_off_c, 2, 80, 74
3, 49440, Note_on_c, 2, 81, 80
3, 49560, Note_off_c, 2, 81, 80
3, 49600, Control_c, 2, 7, 96
3, 49680, Note_on_c, 2, 72, 77
3, 49800, Note_off_c, 2, 72, 77
3, 49860, Control_c, 2, 7, 97
3, 49880, Control_c, 2, 7, 100
3, 49920, Note_on_c, 2, 71, 76
3, 50056, Note_off_c, 2, 71, 76
3, 50160, Note_on_c, 2, 80, 76
3, 50288, Note_off_c, 2, 80, 76
3, 50400, Note_on_c, 2, 81, 86
3, 50536, Note_off_c, 2, 81, 86
3, 50640, Note_on_c, 2, 72, 75
3, 50720, Control_c, 2, 7, 102
3, 50768, Note_off_c, 2, 72, 75
3, 50880, Note_on_c, 2, 71, 76
3, 50960, Control_c, 2, 7, 103
3, 51016, Note_off_c, 2, 71, 76
3, 51120, Note_on_c, 2, 80, 75
3, 51200, Control_c, 2, 7, 105
3, 51280, Note_off_c, 2, 80, 75
3, 51360, Note_on_c, 2, 81, 89
3, 51440, Control_c, 2, 7, 106
3, 51478, Note_off_c, 2, 81, 89
3, 51480, Note_on_c, 2, 76, 88
3, 51559, Note_off_c, 2, 76, 88
3, 51600, Note_on_c, 2, 76, 86
3, 51660, Control_c, 2, 7, 108
3, 51694, Note_off_c, 2, 76, 86
3, 51720, Note_on_c, 2, 76, 88
3, 51814, Note_off_c, 2, 76, 88
3, 51820, Control_c, 2, 7, 109
3, 51840, Control_c, 2, 7, 110
3, 51840, Note_on_c, 2, 81, 107
3, 51935, Note_off_c, 2, 81, 107
3, 51960, Note_on_c, 2, 76, 80
3, 52000, Control_c, 2, 7, 112
3, 52020, Control_c, 2, 7, 113
3, 52039, Note_off_c, 2, 76, 80
3, 52080, Note_on_c, 2, 76, 86
3, 52174, Note_off_c, 2, 76, 86
3, 52200, Note_on_c, 2, 76, 87
3, 52279, Note_off_c, 2, 76, 87
3, 52320, Note_on_c, 2, 81, 100
3, 52438, Note_off_c, 2, 81, 100
3, 52440, Note_on_c, 2, 76, 84
3, 52495, Note_off_c, 2, 76, 84
3, 52560, Note_on_c, 2, 76, 84
3, 52639, Note_off_c, 2, 76, 84
3, 52680, Note_on_c, 2, 76, 82
3, 52774, Note_off_c, 2, 76, 82
3, 52780, Control_c, 2, 7, 115
3, 52800, Note_on_c, 2, 81, 101
3, 52918, Note_off_c, 2, 81, 101
3, 52920, Note_on_c, 2, 76, 85
3, 52999, Note_off_c, 2, 76, 85
3, 53040, Note_on_c, 2, 76, 83
3, 53119, Note_off_c, 2, 76, 83
3, 53160, Note_on_c, 2, 76, 84
3, 53180, Control_c, 2, 7, 116
3, 53200, Control_c, 2, 7, 118
3, 53247, Note_off_c, 2, 76, 84
3, 53280, Note_on_c, 2, 81, 95
3, 53398, Note_off_c, 2, 81, 95
3, 53400, Note_on_c, 2, 76, 89
3, 53494, Note_off_c, 2, 76, 89
3, 53500, Control_c, 2, 7, 119
3, 53520, Note_on_c, 2, 76, 94
3, 53540, Control_c, 2, 7, 121
3, 53580, Control_c, 2, 7, 122
3, 53600, Control_c, 2, 7, 123
3, 53614, Note_off_c, 2, 76, 94
3, 53640, Note_on_c, 2, 76, 86
3, 53660, Control_c, 2, 7, 125
3, 53700, Control_c, 2, 7, 126
3, 53727, Note_off_c, 2, 76, 86
3, 53760, Control_c, 2, 7, 127
3, 53760, Note_on_c, 2, 81, 101
3, 53998, Note_off_c, 2, 81, 101
3, 54000, Note_on_c, 2, 79, 95
3, 54094, Note_off_c, 2, 79, 95
3, 54120, Note_on_c, 2, 77, 92
3, 54199, Note_off_c, 2, 77, 92
3, 54240, Note_on_c, 2, 76, 95
3, 54384, Note_off_c, 2, 76, 95
3, 54480, Note_on_c, 2, 74, 104
3, 54624, Note_off_c, 2, 74, 104
3, 54720, Note_on_c, 2, 72, 96
3, 54838, Note_off_c, 2, 72, 96
3, 54840, Note_on_c, 2, 71, 96
3, 54958, Note_off_c, 2, 71, 96
3, 54960, Note_on_c, 2, 69, 101
3, 55438, Note_off_c, 2, 69, 101
3, 55440, Note_on_c, 2, 69, 92
3, 55498, Note_off_c, 2, 69, 92
3, 55500, Note_on_c, 2, 68, 89
3, 55520, Control_c, 2, 7, 126
3, 55558, Note_off_c, 2, 68, 89
3, 55560, Control_c, 2, 7, 125
3, 55560, Note_on_c, 2, 69, 91
3, 55618, Note_off_c, 2, 69, 91
3, 55620, Note_on_c, 2, 68, 91
3, 55660, Control_c, 2, 7, 123
3, 55678, Note_off_c, 2, 68, 91
3, 55680, Note_on_c, 2, 69, 104
3, 55680, Note_on_c, 2, 64, 105
3, 55700, Control_c, 2, 7, 122
3, 55740, Control_c, 2, 7, 121
3, 55780, Control_c, 2, 7, 119
3, 55860, Control_c, 2, 7, 118
3, 56020, Control_c, 2, 7, 116
3, 56100, Control_c, 2, 7, 115
3, 56140, Control_c, 2, 7, 113
3, 56158, Note_off_c, 2, 69, 104
3, 56158, Note_off_c, 2, 64, 105
3, 56280, Control_c, 2, 7, 112
3, 56320, Control_c, 2, 7, 110
3, 56360, Control_c, 2, 7, 109
3, 56520, Control_c, 2, 7, 108
3, 56640, Note_on_c, 2, 60, 74
3, 56720, Control_c, 2, 7, 106
3, 57118, Note_off_c, 2, 60, 74
3, 57600, Note_on_c, 2, 64, 79
3, 57920, Control_c, 2, 7, 105
3, 58060, Control_c, 2, 7, 103
3, 58078, Note_off_c, 2, 64, 79
3, 58180, Control_c, 2, 7, 102
3, 58320, Control_c, 2, 7, 100
3, 58360, Control_c, 2, 7, 99
3, 58420, Control_c, 2, 7, 97
3, 58560, Note_on_c, 2, 69, 83
3, 58860, Control_c, 2, 7, 96
3, 59038, Note_off_c, 2, 69, 83
3, 59260, Control_c, 2, 7, 95
3, 59520, Note_on_c, 2, 72, 76
3, 59800, Control_c, 2, 7, 93
3, 59998, Note_off_c, 2, 72, 76
3, 60140, Control_c, 2, 7, 95
3, 60480, Note_on_c, 2, 76, 79
3, 60958, Note_off_c, 2, 76, 79
3, 71640, Control_c, 2, 7, 95
3, 72100, Control_c, 2, 7, 96
3, 72160, Control_c, 2, 7, 98
3, 72240, Control_c, 2, 7, 99
3, 72320, Control_c, 2, 7, 101
3, 72420, Control_c, 2, 7, 102
3, 72460, Control_c, 2, 7, 104
3, 72480, Control_c, 2, 7, 105
3, 72540, Control_c, 2, 7, 107
3, 72580, Control_c, 2, 7, 108
3, 72620, Control_c, 2, 7, 109
3, 72640, Control_c, 2, 7, 111
3, 72680, Control_c, 2, 7, 112
3, 72700, Control_c, 2, 7, 114
3, 72740, Control_c, 2, 7, 115
3, 72760, Control_c, 2, 7, 117
3, 72800, Control_c, 2, 7, 118
3, 72820, Control_c, 2, 7, 120
3, 72860, Control_c, 2, 7, 121
3, 72880, Control_c, 2, 7, 122
3, 72960, Note_on_c, 2, 74, 105
3, 73020, Control_c, 2, 7, 124
3, 73320, Note_off_c, 2, 74, 105
3, 73680, Note_on_c, 2, 79, 96
3, 73793, Note_off_c, 2, 79, 96
3, 73920, Note_on_c, 2, 76, 96
3, 74033, Note_off_c, 2, 76, 96
3, 74160, Note_on_c, 2, 72, 96
3, 74304, Note_off_c, 2, 72, 96
3, 74640, Note_on_c, 2, 79, 98
3, 74776, Note_off_c, 2, 79, 98
3, 74880, Note_on_c, 2, 76, 103
3, 75016, Note_off_c, 2, 76, 103
3, 75120, Note_on_c, 2, 72, 92
3, 75272, Note_off_c, 2, 72, 92
3, 75600, Note_on_c, 2, 79, 99
3, 75713, Note_off_c, 2, 79, 99
3, 75840, Note_on_c, 2, 76, 97
3, 75944, Note_off_c, 2, 76, 97
3, 76080, Note_on_c, 2, 72, 91
3, 76169, Note_off_c, 2, 72, 91
3, 76560, Note_on_c, 2, 79, 95
3, 76673, Note_off_c, 2, 79, 95
3, 76800, Note_on_c, 2, 77, 100
3, 76858, Note_off_c, 2, 77, 100
3, 76860, Note_on_c, 2, 76, 95
3, 76918, Note_off_c, 2, 76, 95
3, 76920, Note_on_c, 2, 77, 95
3, 76978, Note_off_c, 2, 77, 95
3, 76980, Note_on_c, 2, 76, 94
3, 77038, Note_off_c, 2, 76, 94
3, 77040, Note_on_c, 2, 72, 89
3, 77103, Note_off_c, 2, 72, 89
3, 77160, Note_on_c, 2, 74, 91
3, 77215, Note_off_c, 2, 74, 91
3, 77280, Note_on_c, 2, 76, 91
3, 77416, Note_off_c, 2, 76, 91
3, 77520, Note_on_c, 2, 76, 95
3, 77648, Note_off_c, 2, 76, 95
3, 77760, Note_on_c, 2, 77, 100
3, 77818, Note_off_c, 2, 77, 100
3, 77820, Note_on_c, 2, 76, 92
3, 77878, Note_off_c, 2, 76, 92
3, 77880, Note_on_c, 2, 77, 95
3, 77938, Note_off_c, 2, 77, 95
3, 77940, Note_on_c, 2, 76, 86
3, 77998, Note_off_c, 2, 76, 86
3, 78000, Note_on_c, 2, 72, 91
3, 78070, Note_off_c, 2, 72, 91
3, 78120, Note_on_c, 2, 74, 93
3, 78182, Note_off_c, 2, 74, 93
3, 78240, Note_on_c, 2, 76, 95
3, 78392, Note_off_c, 2, 76, 95
3, 78480, Note_on_c, 2, 76, 98
3, 78624, Note_off_c, 2, 76, 98
3, 78720, Note_on_c, 2, 76, 99
3, 78833, Note_off_c, 2, 76, 99
3, 78960, Note_on_c, 2, 76, 95
3, 79088, Note_off_c, 2, 76, 95
3, 79200, Note_on_c, 2, 77, 95
3, 79220, Control_c, 2, 7, 124
3, 79258, Note_off_c, 2, 77, 95
3, 79260, Note_on_c, 2, 76, 95
3, 79318, Note_off_c, 2, 76, 95
3, 79320, Note_on_c, 2, 77, 97
3, 79378, Note_off_c, 2, 77, 97
3, 79380, Note_on_c, 2, 76, 94
3, 79438, Note_off_c, 2, 76, 94
3, 79440, Note_on_c, 2, 74, 100
3, 79510, Note_off_c, 2, 74, 100
3, 79520, Control_c, 2, 7, 123
3, 79560, Note_on_c, 2, 72, 89
3, 79600, Control_c, 2, 7, 121
3, 79630, Note_off_c, 2, 72, 89
3, 79660, Control_c, 2, 7, 120
3, 79680, Note_on_c, 2, 71, 91
3, 79840, Control_c, 2, 7, 118
3, 79940, Control_c, 2, 7, 117
3, 80000, Control_c, 2, 7, 115
3, 80040, Control_c, 2, 7, 114
3, 80080, Control_c, 2, 7, 112
3, 80127, Note_off_c, 2, 71, 91
3, 80140, Control_c, 2, 7, 111
3, 80260, Control_c, 2, 7, 110
3, 80300, Control_c, 2, 7, 108
3, 80500, Control_c, 2, 7, 107
3, 80700, Control_c, 2, 7, 105
3, 80760, Control_c, 2, 7, 104
3, 81100, Control_c, 2, 7, 102
3, 81120, Note_on_c, 2, 64, 44
3, 81240, Control_c, 2, 7, 101
3, 81598, Note_off_c, 2, 64, 44
3, 81660, Control_c, 2, 7, 99
3, 82080, Note_on_c, 2, 64, 43
3, 82180, Control_c, 2, 7, 98
3, 82240, Control_c, 2, 7, 97
3, 82558, Note_off_c, 2, 64, 43
3, 83040, Control_c, 2, 7, 95
3, 83040, Note_on_c, 2, 65, 40
3, 83518, Note_off_c, 2, 65, 40
3, 84000, Note_on_c, 2, 66, 41
3, 84478, Note_off_c, 2, 66, 41
3, 84960, Note_on_c, 2, 66, 35
3, 85438, Note_off_c, 2, 66, 35
3, 85680, Note_on_c, 2, 67, 33
3, 85814, Note_off_c, 2, 67, 33
3, 85920, Note_on_c, 2, 55, 44
3, 86398, Note_off_c, 2, 55, 44
3, 88620, Control_c, 2, 7, 95
3, 88740, Control_c, 2, 7, 96
3, 88800, Control_c, 2, 7, 98
3, 88840, Control_c, 2, 7, 99
3, 89420, Control_c, 2, 7, 101
3, 89460, Control_c, 2, 7, 102
3, 89560, Control_c, 2, 7, 104
3, 89640, Control_c, 2, 7, 105
3, 89720, Control_c, 2, 7, 107
3, 89760, Control_c, 2, 7, 108
3, 89920, Control_c, 2, 7, 109
3, 90740, Control_c, 2, 7, 111
3, 90800, Control_c, 2, 7, 112
3, 91340, Control_c, 2, 7, 114
3, 91420, Control_c, 2, 7, 115
3, 91780, Control_c, 2, 7, 117
3, 92000, Control_c, 2, 7, 118
3, 92040, Control_c, 2, 7, 120
3, 92160, Control_c, 2, 7, 121
3, 92300, Control_c, 2, 7, 122
3, 92480, Control_c, 2, 7, 124
3, 92920, Control_c, 2, 7, 125
3, 93000, Control_c, 2, 7, 127
3, 93360, Note_on_c, 2, 68, 82
3, 93430, Note_off_c, 2, 68, 82
3, 93480, Note_on_c, 2, 69, 83
3, 93559, Note_off_c, 2, 69, 83
3, 93600, Note_on_c, 2, 71, 85
3, 93838, Note_off_c, 2, 71, 85
3, 94320, Note_on_c, 2, 69, 81
3, 94383, Note_off_c, 2, 69, 81
3, 94440, Note_on_c, 2, 71, 81
3, 94487, Note_off_c, 2, 71, 81
3, 94560, Note_on_c, 2, 72, 84
3, 94798, Note_off_c, 2, 72, 84
3, 95280, Note_on_c, 2, 68, 97
3, 95335, Note_off_c, 2, 68, 97
3, 95400, Note_on_c, 2, 69, 98
3, 95455, Note_off_c, 2, 69, 98
3, 95520, Note_on_c, 2, 71, 96
3, 95758, Note_off_c, 2, 71, 96
3, 96240, Note_on_c, 2, 69, 102
3, 96311, Note_off_c, 2, 69, 102
3, 96360, Note_on_c, 2, 71, 101
3, 96431, Note_off_c, 2, 71, 101
3, 96480, Note_on_c, 2, 72, 102
3, 96718, Note_off_c, 2, 72, 102
3, 97200, Note_on_c, 2, 76, 77
3, 97320, Control_c, 2, 7, 127
3, 97328, Note_off_c, 2, 76, 77
3, 97440, Note_on_c, 2, 64, 54
3, 97640, Control_c, 2, 7, 126
3, 97680, Control_c, 2, 7, 124
3, 97720, Control_c, 2, 7, 123
3, 97780, Control_c, 2, 7, 121
3, 97860, Control_c, 2, 7, 120
3, 97900, Control_c, 2, 7, 118
3, 97918, Note_off_c, 2, 64, 54
3, 97940, Control_c, 2, 7, 117
3, 98020, Control_c, 2, 7, 115
3, 98080, Control_c, 2, 7, 114
3, 98140, Control_c, 2, 7, 113
3, 98180, Control_c, 2, 7, 111
3, 98260, Control_c, 2, 7, 110
3, 98300, Control_c, 2, 7, 108
3, 98340, Control_c, 2, 7, 107
3, 98380, Control_c, 2, 7, 105
3, 98480, Control_c, 2, 7, 104
3, 98560, Control_c, 2, 7, 102
3, 98680, Control_c, 2, 7, 101
3, 98740, Control_c, 2, 7, 100
3, 98880, Control_c, 2, 7, 98
3, 98940, Control_c, 2, 7, 97
3, 99060, Control_c, 2, 7, 95
3, 99160, Control_c, 2, 7, 94
3, 99380, Control_c, 2, 7, 92
3, 99440, Control_c, 2, 7, 91
3, 99540, Control_c, 2, 7, 89
3, 99700, Control_c, 2, 7, 88
3, 100000, Control_c, 2, 7, 87
3, 103840, Control_c, 2, 7, 87
3, 103980, Control_c, 2, 7, 86
3, 104060, Control_c, 2, 7, 84
3, 104120, Control_c, 2, 7, 83
3, 104200, Control_c, 2, 7, 81
3, 104220, Control_c, 2, 7, 80
3, 104300, Control_c, 2, 7, 78
3, 104320, Control_c, 2, 7, 77
3, 104400, Control_c, 2, 7, 75
3, 104420, Control_c, 2, 7, 74
3, 104460, Control_c, 2, 7, 73
3, 104520, Control_c, 2, 7, 71
3, 104560, Control_c, 2, 7, 70
3, 104740, Control_c, 2, 7, 68
3, 105360, Note_on_c, 2, 71, 78
3, 105472, Note_off_c, 2, 71, 78
3, 105600, Note_on_c, 2, 73, 61
3, 105700, Control_c, 2, 7, 70
3, 105800, Control_c, 2, 7, 71
3, 105920, Control_c, 2, 7, 73
3, 105980, Control_c, 2, 7, 74
3, 106140, Control_c, 2, 7, 75
3, 106400, Control_c, 2, 7, 77
3, 106540, Control_c, 2, 7, 78
3, 106720, Control_c, 2, 7, 80
3, 106820, Control_c, 2, 7, 81
3, 107040, Control_c, 2, 7, 83
3, 107180, Control_c, 2, 7, 84
3, 107260, Control_c, 2, 7, 86
3, 107400, Control_c, 2, 7, 87
3, 107520, Note_off_c, 2, 73, 61
3, 107520, Note_on_c, 2, 75, 65
3, 107820, Control_c, 2, 7, 88
3, 107920, Control_c, 2, 7, 90
3, 108020, Control_c, 2, 7, 91
3, 108300, Control_c, 2, 7, 93
3, 108520, Control_c, 2, 7, 94
3, 108660, Control_c, 2, 7, 96
3, 108980, Control_c, 2, 7, 97
3, 109160, Control_c, 2, 7, 99
3, 109340, Control_c, 2, 7, 100
3, 109440, Note_off_c, 2, 75, 65
3, 109440, Note_on_c, 2, 76, 70
3, 109520, Control_c, 2, 7, 101
3, 109600, Control_c, 2, 7, 103
3, 109700, Control_c, 2, 7, 104
3, 109940, Control_c, 2, 7, 106
3, 110100, Control_c, 2, 7, 107
3, 110240, Control_c, 2, 7, 109
3, 110340, Control_c, 2, 7, 110
3, 110520, Control_c, 2, 7, 112
3, 110880, Control_c, 2, 7, 113
3, 110960, Control_c, 2, 7, 114
3, 111060, Control_c, 2, 7, 116
3, 111220, Control_c, 2, 7, 117
3, 111358, Note_off_c, 2, 76, 70
3, 111360, Note_on_c, 2, 75, 76
3, 111400, Control_c, 2, 7, 119
3, 111480, Control_c, 2, 7, 120
3, 111580, Control_c, 2, 7, 122
3, 111700, Control_c, 2, 7, 123
3, 111840, Control_c, 2, 7, 125
3, 111880, Control_c, 2, 7, 126
3, 112040, Control_c, 2, 7, 127
3, 112318, Note_off_c, 2, 75, 76
3, 112320, Note_on_c, 2, 76, 76
3, 113240, Control_c, 2, 7, 126
3, 113280, Control_c, 2, 7, 125
3, 113320, Control_c, 2, 7, 123
3, 113400, Control_c, 2, 7, 122
3, 113440, Control_c, 2, 7, 120
3, 113640, Control_c, 2, 7, 119
3, 113700, Control_c, 2, 7, 117
3, 113840, Control_c, 2, 7, 116
3, 113900, Control_c, 2, 7, 114
3, 113960, Control_c, 2, 7, 113
3, 114060, Control_c, 2, 7, 112
3, 114220, Control_c, 2, 7, 110
3, 114238, Note_off_c, 2, 76, 76
3, 114240, Note_on_c, 2, 75, 90
3, 114280, Control_c, 2, 7, 109
3, 114360, Control_c, 2, 7, 107
3, 114440, Control_c, 2, 7, 106
3, 114500, Control_c, 2, 7, 104
3, 114620, Control_c, 2, 7, 103
3, 114700, Control_c, 2, 7, 101
3, 114840, Control_c, 2, 7, 100
3, 115151, Note_off_c, 2, 75, 90
3, 115200, Note_on_c, 2, 76, 90
3, 115200, Note_on_c, 2, 71, 87
3, 115572, Note_off_c, 2, 76, 90
3, 115582, Note_off_c, 2, 71, 87
3, 115860, Control_c, 2, 7, 99
3, 116040, Control_c, 2, 7, 97
3, 116140, Control_c, 2, 7, 96
3, 116260, Control_c, 2, 7, 94
3, 116420, Control_c, 2, 7, 93
3, 116780, Control_c, 2, 7, 91
3, 116820, Control_c, 2, 7, 90
3, 118800, Note_on_c, 2, 74, 73
3, 118928, Note_off_c, 2, 74, 73
3, 119040, Note_on_c, 2, 72, 60
3, 119278, Note_off_c, 2, 72, 60
3, 120720, Note_on_c, 2, 71, 90
3, 120848, Note_off_c, 2, 71, 90
3, 120960, Note_on_c, 2, 69, 80
3, 121073, Note_off_c, 2, 69, 80
3, 121200, Note_on_c, 2, 76, 81
3, 121336, Note_off_c, 2, 76, 81
3, 121440, Note_on_c, 2, 75, 87
3, 121680, Note_on_c, 2, 74, 90
3, 121688, Note_off_c, 2, 75, 87
3, 121808, Note_off_c, 2, 74, 90
3, 122120, Control_c, 2, 7, 90
3, 122160, Note_on_c, 2, 74, 79
3, 122296, Note_off_c, 2, 74, 79
3, 122320, Control_c, 2, 7, 91
3, 122340, Control_c, 2, 7, 93
3, 122380, Control_c, 2, 7, 94
3, 122408, Note_on_c, 2, 74, 89
3, 122617, Note_off_c, 2, 74, 89
3, 122640, Note_on_c, 2, 72, 86
3, 122660, Control_c, 2, 7, 96
3, 122720, Control_c, 2, 7, 97
3, 122768, Note_off_c, 2, 72, 86
3, 122780, Control_c, 2, 7, 99
3, 122960, Control_c, 2, 7, 100
3, 123120, Note_on_c, 2, 72, 73
3, 123249, Note_off_c, 2, 72, 73
3, 123360, Note_on_c, 2, 72, 85
3, 123600, Note_off_c, 2, 72, 85
3, 123600, Note_on_c, 2, 70, 85
3, 123640, Control_c, 2, 7, 102
3, 123680, Control_c, 2, 7, 103
3, 123736, Note_off_c, 2, 70, 85
3, 123800, Control_c, 2, 7, 104
3, 123940, Control_c, 2, 7, 106
3, 124080, Note_on_c, 2, 70, 66
3, 124216, Note_off_c, 2, 70, 66
3, 124320, Note_on_c, 2, 70, 83
3, 124544, Note_off_c, 2, 70, 83
3, 124560, Note_on_c, 2, 69, 78
3, 124680, Note_off_c, 2, 69, 78
3, 124800, Note_on_c, 2, 69, 74
3, 125018, Note_off_c, 2, 69, 74
3, 125400, Control_c, 2, 7, 104
3, 125440, Control_c, 2, 7, 103
3, 125480, Control_c, 2, 7, 102
3, 125540, Control_c, 2, 7, 100
3, 125600, Control_c, 2, 7, 99
3, 125680, Control_c, 2, 7, 97
3, 125760, Control_c, 2, 7, 96
3, 125980, Control_c, 2, 7, 94
3, 126080, Control_c, 2, 7, 93
3, 126140, Control_c, 2, 7, 91
3, 126240, Control_c, 2, 7, 90
3, 126360, Control_c, 2, 7, 89
3, 126540, Control_c, 2, 7, 87
3, 127440, Note_on_c, 2, 64, 58
3, 127591, Note_off_c, 2, 64, 58
3, 127680, Note_on_c, 2, 64, 55
3, 127824, Note_off_c, 2, 64, 55
3, 132960, Note_on_c, 2, 71, 49
3, 133438, Note_off_c, 2, 71, 49
3, 133440, Note_on_c, 2, 72, 56
3, 133740, Control_c, 2, 7, 87
3, 134040, Control_c, 2, 7, 88
3, 134140, Control_c, 2, 7, 90
3, 134420, Control_c, 2, 7, 91
3, 134500, Control_c, 2, 7, 93
3, 134540, Control_c, 2, 7, 94
3, 134680, Control_c, 2, 7, 96
3, 134780, Control_c, 2, 7, 97
3, 134860, Control_c, 2, 7, 99
3, 135000, Control_c, 2, 7, 100
3, 135140, Control_c, 2, 7, 101
3, 135260, Control_c, 2, 7, 103
3, 135334, Note_off_c, 2, 72, 76
3, 135360, Note_on_c, 2, 71, 51
3, 135400, Control_c, 2, 7, 104
3, 135480, Control_c, 2, 7, 106
3, 135640, Control_c, 2, 7, 107
3, 135740, Control_c, 2, 7, 109
3, 135800, Control_c, 2, 7, 110
3, 135900, Control_c, 2, 7, 112
3, 136100, Control_c, 2, 7, 113
3, 136480, Control_c, 2, 7, 114
3, 136720, Control_c, 2, 7, 116
3, 136980, Control_c, 2, 7, 117
3, 137060, Control_c, 2, 7, 119
3, 137140, Control_c, 2, 7, 120
3, 137278, Note_off_c, 2, 71, 74
3, 137280, Note_on_c, 2, 69, 50
3, 137600, Control_c, 2, 7, 122
3, 137760, Control_c, 2, 7, 123
3, 137880, Control_c, 2, 7, 125
3, 137940, Control_c, 2, 7, 126
3, 138140, Control_c, 2, 7, 127
3, 139190, Note_off_c, 2, 69, 76
3, 139200, Note_on_c, 2, 68, 51
3, 140120, Control_c, 2, 7, 126
3, 140158, Note_off_c, 2, 68, 51
3, 140160, Note_on_c, 2, 69, 52
3, 140400, Control_c, 2, 7, 125
3, 140500, Control_c, 2, 7, 123
3, 140560, Control_c, 2, 7, 122
3, 140646, Note_off_c, 2, 69, 52
3, 140860, Control_c, 2, 7, 120
3, 141840, Note_on_c, 2, 76, 71
3, 141860, Control_c, 2, 7, 122
3, 141900, Control_c, 2, 7, 123
3, 141920, Control_c, 2, 7, 125
3, 141934, Note_off_c, 2, 76, 71
3, 142080, Note_on_c, 2, 74, 72
3, 142198, Note_off_c, 2, 74, 72
3, 142320, Note_on_c, 2, 69, 63
3, 142438, Note_off_c, 2, 69, 63
3, 142720, Control_c, 2, 7, 123
3, 142780, Control_c, 2, 7, 122
3, 142840, Control_c, 2, 7, 120
3, 142940, Control_c, 2, 7, 119
3, 143060, Control_c, 2, 7, 117
3, 143280, Control_c, 2, 7, 116
3, 143420, Control_c, 2, 7, 114
3, 143760, Note_on_c, 2, 69, 50
3, 143878, Note_off_c, 2, 69, 50
3, 144000, Note_on_c, 2, 67, 73
3, 144118, Note_off_c, 2, 67, 73
3, 144240, Note_on_c, 2, 62, 71
3, 144366, Note_off_c, 2, 62, 71
3, 144780, Control_c, 2, 7, 113
3, 144820, Control_c, 2, 7, 112
3, 145000, Control_c, 2, 7, 110
3, 145080, Control_c, 2, 7, 109
3, 145220, Control_c, 2, 7, 107
3, 145360, Control_c, 2, 7, 106
3, 145440, Control_c, 2, 7, 104
3, 145540, Control_c, 2, 7, 103
3, 145680, Note_on_c, 2, 62, 73
3, 145782, Note_off_c, 2, 62, 73
3, 145920, Note_on_c, 2, 60, 75
3, 146070, Note_off_c, 2, 60, 75
3, 146160, Note_on_c, 2, 55, 76
3, 146302, Note_off_c, 2, 55, 76
3, 146760, Control_c, 2, 7, 101
3, 146980, Control_c, 2, 7, 100
3, 147120, Control_c, 2, 7, 99
3, 147520, Control_c, 2, 7, 97
3, 147600, Note_on_c, 2, 67, 76
3, 147766, Note_off_c, 2, 67, 76
3, 147840, Note_on_c, 2, 65, 72
3, 147990, Note_off_c, 2, 65, 72
3, 148080, Control_c, 2, 7, 96
3, 148080, Note_on_c, 2, 60, 71
3, 148190, Note_off_c, 2, 60, 71
3, 149520, Note_on_c, 2, 69, 68
3, 149630, Note_off_c, 2, 69, 68
3, 149760, Note_on_c, 2, 67, 66
3, 149886, Note_off_c, 2, 67, 66
3, 150000, Control_c, 2, 7, 94
3, 150000, Note_on_c, 2, 62, 67
3, 150150, Note_off_c, 2, 62, 67
3, 151440, Note_on_c, 2, 71, 78
3, 151574, Note_off_c, 2, 71, 78
3, 151680, Note_on_c, 2, 69, 74
3, 151822, Note_off_c, 2, 69, 74
3, 151920, Note_on_c, 2, 64, 71
3, 152022, Note_off_c, 2, 64, 71
3, 153360, Note_on_c, 2, 69, 69
3, 153494, Note_off_c, 2, 69, 69
3, 153600, Note_on_c, 2, 69, 63
3, 153840, Note_on_c, 2, 67, 69
3, 153854, Note_off_c, 2, 69, 63
3, 153990, Note_off_c, 2, 67, 69
3, 154220, Control_c, 2, 7, 94
3, 154680, Control_c, 2, 7, 95
3, 154800, Control_c, 2, 7, 97
3, 154900, Control_c, 2, 7, 98
3, 154960, Control_c, 2, 7, 100
3, 155000, Control_c, 2, 7, 101
3, 155060, Control_c, 2, 7, 103
3, 155200, Control_c, 2, 7, 104
3, 155280, Note_on_c, 2, 67, 69
3, 155300, Control_c, 2, 7, 106
3, 155420, Control_c, 2, 7, 107
3, 155438, Note_off_c, 2, 67, 69
3, 155520, Note_on_c, 2, 67, 68
3, 155742, Note_off_c, 2, 67, 68
3, 155760, Note_on_c, 2, 65, 71
3, 155880, Control_c, 2, 7, 108
3, 155902, Note_off_c, 2, 65, 71
3, 156140, Control_c, 2, 7, 110
3, 156180, Control_c, 2, 7, 111
3, 156480, Control_c, 2, 7, 113
3, 156640, Control_c, 2, 7, 114
3, 156760, Control_c, 2, 7, 116
3, 157200, Note_on_c, 2, 65, 70
3, 157318, Note_off_c, 2, 65, 70
3, 157440, Note_on_c, 2, 65, 71
3, 157678, Note_off_c, 2, 65, 71
3, 157680, Note_on_c, 2, 64, 69
3, 157814, Note_off_c, 2, 64, 69
3, 159120, Note_on_c, 2, 64, 74
3, 159246, Note_off_c, 2, 64, 74
3, 159260, Control_c, 2, 7, 114
3, 159340, Control_c, 2, 7, 113
3, 159360, Note_on_c, 2, 64, 75
3, 159440, Control_c, 2, 7, 111
3, 159478, Note_off_c, 2, 64, 75
3, 159540, Control_c, 2, 7, 110
3, 159600, Note_on_c, 2, 60, 70
3, 159680, Control_c, 2, 7, 108
3, 159726, Note_off_c, 2, 60, 70
3, 159800, Control_c, 2, 7, 107
3, 159860, Control_c, 2, 7, 106
3, 159920, Control_c, 2, 7, 104
3, 160000, Control_c, 2, 7, 103
3, 160160, Control_c, 2, 7, 101
3, 160280, Control_c, 2, 7, 100
3, 160400, Control_c, 2, 7, 98
3, 160980, Control_c, 2, 7, 100
3, 161000, Control_c, 2, 7, 101
3, 161040, Control_c, 2, 7, 103
3, 161040, Note_on_c, 2, 60, 75
3, 161080, Control_c, 2, 7, 104
3, 161100, Control_c, 2, 7, 106
3, 161140, Control_c, 2, 7, 107
3, 161158, Note_off_c, 2, 60, 75
3, 161280, Note_on_c, 2, 60, 79
3, 161518, Note_off_c, 2, 60, 79
3, 161520, Note_on_c, 2, 59, 71
3, 161620, Control_c, 2, 7, 106
3, 161640, Control_c, 2, 7, 104
3, 161646, Note_off_c, 2, 59, 71
3, 161680, Control_c, 2, 7, 103
3, 161700, Control_c, 2, 7, 101
3, 161740, Control_c, 2, 7, 100
3, 161760, Control_c, 2, 7, 98
3, 161800, Control_c, 2, 7, 97
3, 162940, Control_c, 2, 7, 98
3, 162960, Control_c, 2, 7, 101
3, 162960, Note_on_c, 2, 58, 68
3, 163000, Control_c, 2, 7, 103
3, 163020, Control_c, 2, 7, 104
3, 163094, Note_off_c, 2, 58, 68
3, 163200, Note_on_c, 2, 58, 71
3, 163438, Note_off_c, 2, 58, 71
3, 163440, Note_on_c, 2, 57, 72
3, 163566, Note_off_c, 2, 57, 72
3, 163640, Control_c, 2, 7, 103
3, 163680, Control_c, 2, 7, 101
3, 163700, Control_c, 2, 7, 100
3, 163820, Control_c, 2, 7, 98
3, 164120, Control_c, 2, 7, 98
3, 164880, Note_on_c, 2, 57, 66
3, 164974, Note_off_c, 2, 57, 66
3, 165120, Note_on_c, 2, 57, 74
3, 165358, Note_off_c, 2, 57, 74
3, 165360, Note_on_c, 2, 56, 68
3, 165462, Note_off_c, 2, 56, 68
3, 166800, Note_on_c, 2, 56, 71
3, 166934, Note_off_c, 2, 56, 71
3, 167040, Note_on_c, 2, 57, 89
3, 167269, Note_off_c, 2, 57, 89
3, 177600, Note_on_c, 2, 60, 74
3, 178078, Note_off_c, 2, 60, 74
3, 178560, Note_on_c, 2, 62, 74
3, 178740, Control_c, 2, 7, 98
3, 179020, Control_c, 2, 7, 99
3, 179038, Note_off_c, 2, 62, 74
3, 179180, Control_c, 2, 7, 101
3, 179300, Control_c, 2, 7, 102
3, 179520, Note_on_c, 2, 64, 76
3, 179640, Control_c, 2, 7, 104
3, 179800, Control_c, 2, 7, 105
3, 179960, Control_c, 2, 7, 107
3, 179998, Note_off_c, 2, 64, 76
3, 180060, Control_c, 2, 7, 108
3, 180400, Control_c, 2, 7, 110
3, 180480, Note_on_c, 2, 65, 72
3, 180540, Control_c, 2, 7, 111
3, 180800, Control_c, 2, 7, 112
3, 180920, Control_c, 2, 7, 114
3, 180958, Note_off_c, 2, 65, 72
3, 181040, Control_c, 2, 7, 115
3, 181120, Control_c, 2, 7, 117
3, 181220, Control_c, 2, 7, 118
3, 181280, Control_c, 2, 7, 120
3, 181560, Control_c, 2, 7, 121
3, 181620, Control_c, 2, 7, 123
3, 181680, Note_on_c, 2, 64, 76
3, 181720, Control_c, 2, 7, 124
3, 181760, Control_c, 2, 7, 125
3, 181774, Note_off_c, 2, 64, 76
3, 181920, Note_on_c, 2, 64, 65
3, 182062, Note_off_c, 2, 64, 65
3, 182160, Note_on_c, 2, 69, 66
3, 182270, Note_off_c, 2, 69, 66
3, 182640, Note_on_c, 2, 68, 70
3, 182758, Note_off_c, 2, 68, 70
3, 182880, Note_on_c, 2, 68, 64
3, 182990, Note_off_c, 2, 68, 64
3, 183120, Note_on_c, 2, 68, 68
3, 183254, Note_off_c, 2, 68, 68
3, 183520, Control_c, 2, 7, 124
3, 183580, Control_c, 2, 7, 123
3, 183600, Note_on_c, 2, 69, 70
3, 183640, Control_c, 2, 7, 121
3, 183720, Control_c, 2, 7, 120
3, 183734, Note_off_c, 2, 69, 70
3, 183800, Control_c, 2, 7, 118
3, 183840, Note_on_c, 2, 69, 63
3, 183880, Control_c, 2, 7, 117
3, 183950, Note_off_c, 2, 69, 63
3, 183960, Control_c, 2, 7, 115
3, 184060, Control_c, 2, 7, 114
3, 184080, Note_on_c, 2, 69, 58
3, 184100, Control_c, 2, 7, 112
3, 184160, Control_c, 2, 7, 111
3, 184206, Note_off_c, 2, 69, 58
3, 184240, Control_c, 2, 7, 110
3, 184460, Control_c, 2, 7, 108
3, 184520, Control_c, 2, 7, 107
3, 184560, Note_on_c, 2, 68, 69
3, 184600, Control_c, 2, 7, 105
3, 184670, Note_off_c, 2, 68, 69
3, 184740, Control_c, 2, 7, 104
3, 184800, Control_c, 2, 7, 102
3, 184800, Note_on_c, 2, 68, 65
3, 184820, Control_c, 2, 7, 101
3, 184860, Control_c, 2, 7, 99
3, 184900, Control_c, 2, 7, 98
3, 184934, Note_off_c, 2, 68, 65
3, 185040, Note_on_c, 2, 68, 64
3, 185174, Note_off_c, 2, 68, 64
3, 185520, Note_on_c, 2, 69, 71
3, 185654, Note_off_c, 2, 69, 71
3, 185760, Note_on_c, 2, 69, 72
3, 185870, Note_off_c, 2, 69, 72
3, 186000, Note_on_c, 2, 69, 71
3, 186142, Note_off_c, 2, 69, 71
3, 186240, Note_on_c, 2, 69, 68
3, 186880, Control_c, 2, 7, 98
3, 187190, Note_off_c, 2, 69, 68
3, 187200, Note_on_c, 2, 68, 60
3, 187340, Control_c, 2, 7, 99
3, 187520, Control_c, 2, 7, 101
3, 187600, Control_c, 2, 7, 102
3, 187640, Control_c, 2, 7, 104
3, 187680, Control_c, 2, 7, 105
3, 187840, Control_c, 2, 7, 107
3, 187900, Control_c, 2, 7, 108
3, 187960, Control_c, 2, 7, 110
3, 188020, Control_c, 2, 7, 111
3, 188060, Control_c, 2, 7, 112
3, 188158, Note_off_c, 2, 68, 60
3, 188160, Note_on_c, 2, 69, 127
3, 188200, Control_c, 2, 7, 114
3, 188230, Note_off_c, 2, 69, 127
3, 188280, Note_on_c, 2, 64, 127
3, 188342, Note_off_c, 2, 64, 127
3, 188392, Note_on_c, 2, 60, 127
3, 188462, Note_off_c, 2, 60, 127
3, 188520, Note_on_c, 2, 64, 127
3, 188574, Note_off_c, 2, 64, 127
3, 188620, Control_c, 2, 7, 115
3, 188640, Note_on_c, 2, 57, 127
3, 188822, Note_off_c, 2, 57, 127
3, 188880, Note_on_c, 2, 76, 80
3, 189014, Note_off_c, 2, 76, 80
3, 189120, Note_on_c, 2, 72, 83
3, 189238, Note_off_c, 2, 72, 83
3, 189360, Note_on_c, 2, 69, 71
3, 189494, Note_off_c, 2, 69, 71
3, 189840, Note_on_c, 2, 76, 83
3, 189958, Note_off_c, 2, 76, 83
3, 190080, Control_c, 2, 7, 117
3, 190080, Note_on_c, 2, 72, 84
3, 190120, Control_c, 2, 7, 118
3, 190160, Control_c, 2, 7, 120
3, 190198, Note_off_c, 2, 72, 84
3, 190240, Control_c, 2, 7, 121
3, 190320, Note_on_c, 2, 69, 77
3, 190422, Note_off_c, 2, 69, 77
3, 190500, Control_c, 2, 7, 123
3, 190800, Note_on_c, 2, 76, 85
3, 190934, Note_off_c, 2, 76, 85
3, 191040, Note_on_c, 2, 72, 85
3, 191126, Note_off_c, 2, 72, 85
3, 191160, Control_c, 2, 7, 124
3, 191280, Note_on_c, 2, 69, 76
3, 191398, Note_off_c, 2, 69, 76
3, 191760, Note_on_c, 2, 76, 87
3, 191894, Note_off_c, 2, 76, 87
3, 192000, Note_on_c, 2, 72, 84
3, 192118, Note_off_c, 2, 72, 84
3, 192120, Note_on_c, 2, 76, 80
3, 192198, Note_off_c, 2, 76, 80
3, 192240, Note_on_c, 2, 76, 77
3, 192310, Note_off_c, 2, 76, 77
3, 192360, Note_on_c, 2, 76, 79
3, 192430, Note_off_c, 2, 76, 79
3, 192480, Note_on_c, 2, 81, 87
3, 192598, Note_off_c, 2, 81, 87
3, 192600, Note_on_c, 2, 76, 76
3, 192678, Note_off_c, 2, 76, 76
3, 192720, Note_on_c, 2, 76, 79
3, 192790, Note_off_c, 2, 76, 79
3, 192840, Note_on_c, 2, 76, 75
3, 192894, Note_off_c, 2, 76, 75
3, 192960, Note_on_c, 2, 81, 88
3, 193078, Note_off_c, 2, 81, 88
3, 193080, Note_on_c, 2, 76, 76
3, 193134, Note_off_c, 2, 76, 76
3, 193200, Note_on_c, 2, 76, 74
3, 193254, Note_off_c, 2, 76, 74
3, 193320, Note_on_c, 2, 76, 73
3, 193366, Note_off_c, 2, 76, 73
3, 193440, Note_on_c, 2, 81, 81
3, 193558, Note_off_c, 2, 81, 81
3, 193560, Note_on_c, 2, 76, 76
3, 193606, Note_off_c, 2, 76, 76
3, 193680, Note_on_c, 2, 76, 71
3, 193734, Note_off_c, 2, 76, 71
3, 193800, Note_on_c, 2, 76, 70
3, 193862, Note_off_c, 2, 76, 70
3, 193920, Note_on_c, 2, 81, 82
3, 194158, Note_off_c, 2, 81, 82
3, 194160, Note_on_c, 2, 79, 81
3, 194278, Note_off_c, 2, 79, 81
3, 194280, Note_on_c, 2, 77, 76
3, 194398, Note_off_c, 2, 77, 76
3, 194400, Note_on_c, 2, 76, 83
3, 194502, Note_off_c, 2, 76, 83
3, 194640, Note_on_c, 2, 74, 90
3, 194742, Note_off_c, 2, 74, 90
3, 194880, Note_on_c, 2, 72, 80
3, 194998, Note_off_c, 2, 72, 80
3, 195000, Note_on_c, 2, 71, 81
3, 195118, Note_off_c, 2, 71, 81
3, 195120, Note_on_c, 2, 69, 84
3, 195494, Note_off_c, 2, 69, 84
3, 195600, Note_on_c, 2, 68, 78
3, 195838, Note_off_c, 2, 68, 78
3, 195840, Note_on_c, 2, 64, 86
3, 196102, Note_off_c, 2, 64, 86
3, 196560, Note_on_c, 2, 65, 81
3, 196670, Note_off_c, 2, 65, 81
3, 196800, Note_on_c, 2, 64, 89
3, 197046, Note_off_c, 2, 64, 89
3, 197520, Note_on_c, 2, 62, 85
3, 197638, Note_off_c, 2, 62, 85
3, 197760, Note_on_c, 2, 60, 81
3, 197878, Note_off_c, 2, 60, 81
3, 198000, Note_on_c, 2, 57, 81
3, 198142, Note_off_c, 2, 57, 81
3, 198240, Note_on_c, 2, 59, 80
3, 198374, Note_off_c, 2, 59, 80
3, 198480, Note_on_c, 2, 68, 80
3, 198582, Note_off_c, 2, 68, 80
3, 198720, Note_on_c, 2, 69, 82
3, 198838, Note_off_c, 2, 69, 82
3, 198960, Note_on_c, 2, 57, 88
3, 199350, Note_off_c, 2, 57, 88
3, 199440, Note_on_c, 2, 56, 83
3, 199614, Note_off_c, 2, 56, 83
3, 199740, Control_c, 2, 7, 124
3, 199792, Note_on_c, 2, 57, 87
3, 200100, Control_c, 2, 7, 123
3, 200120, Control_c, 2, 7, 121
3, 200140, Control_c, 2, 7, 120
3, 200240, Control_c, 2, 7, 118
3, 200260, Control_c, 2, 7, 117
3, 200320, Control_c, 2, 7, 115
3, 200340, Control_c, 2, 7, 114
3, 200360, Control_c, 2, 7, 112
3, 200380, Control_c, 2, 7, 111
3, 200420, Control_c, 2, 7, 110
3, 200460, Control_c, 2, 7, 108
3, 200500, Control_c, 2, 7, 107
3, 200520, Control_c, 2, 7, 105
3, 200540, Control_c, 2, 7, 104
3, 200580, Control_c, 2, 7, 102
3, 200600, Control_c, 2, 7, 101
3, 200620, Control_c, 2, 7, 99
3, 200660, Control_c, 2, 7, 98
3, 200680, Control_c, 2, 7, 97
3, 200700, Control_c, 2, 7, 95
3, 200720, Control_c, 2, 7, 94
3, 200760, Control_c, 2, 7, 92
3, 200780, Control_c, 2, 7, 91
3, 200780, Control_c, 2, 7, 89
3, 200800, Control_c, 2, 7, 88
3, 200820, Control_c, 2, 7, 86
3, 200840, Control_c, 2, 7, 85
3, 200880, Control_c, 2, 7, 84
3, 200880, Control_c, 2, 7, 82
3, 200920, Control_c, 2, 7, 81
3, 200940, Control_c, 2, 7, 79
3, 200940, Control_c, 2, 7, 78
3, 200960, Control_c, 2, 7, 76
3, 200980, Control_c, 2, 7, 75
3, 200980, Control_c, 2, 7, 73
3, 201000, Control_c, 2, 7, 72
3, 201020, Control_c, 2, 7, 71
3, 201020, Control_c, 2, 7, 69
3, 201040, Control_c, 2, 7, 68
3, 201060, Control_c, 2, 7, 66
3, 201080, Control_c, 2, 7, 65
3, 201120, Control_c, 2, 7, 63
3, 201120, Control_c, 2, 7, 60
3, 201140, Control_c, 2, 7, 59
3, 201180, Control_c, 2, 7, 58
3, 201180, Control_c, 2, 7, 56
3, 201200, Control_c, 2, 7, 55
3, 201220, Control_c, 2, 7, 53
3, 201260, Control_c, 2, 7, 52
3, 201300, Control_c, 2, 7, 50
3, 201340, Control_c, 2, 7, 49
3, 201360, Control_c, 2, 7, 48
3, 201380, Control_c, 2, 7, 46
3, 201400, Control_c, 2, 7, 45
3, 201420, Control_c, 2, 7, 42
3, 201420, Control_c, 2, 7, 40
3, 201440, Control_c, 2, 7, 39
3, 201480, Control_c, 2, 7, 37
3, 201500, Control_c, 2, 7, 36
3, 201520, Control_c, 2, 7, 35
3, 201560, Control_c, 2, 7, 33
3, 201580, Control_c, 2, 7, 32
3, 201600, Note_off_c, 2, 57, 87
3, 201600, End_track
4, 0, Start_track
4, 0, Title_t, "Viola"
4, 0, Key_signature, 0, "major"
4, 100, Control_c, 3, 0, 0
4, 105, Control_c, 3, 32, 0
4, 110, Program_c, 3, 48
4, 115, Control_c, 3, 7, 110
4, 120, Control_c, 3, 10, 70
4, 125, Control_c, 3, 91, 127
4, 130, Control_c, 3, 101, 0
4, 135, Control_c, 3, 100, 0
4, 140, Control_c, 3, 6, 2
4, 11520, Note_on_c, 3, 69, 62
4, 12005, Note_off_c, 3, 69, 62
4, 12240, Note_on_c, 3, 60, 63
4, 12395, Note_off_c, 3, 60, 63
4, 12480, Note_on_c, 3, 64, 64
4, 12605, Note_off_c, 3, 64, 64
4, 12720, Note_on_c, 3, 60, 64
4, 12857, Note_off_c, 3, 60, 64
4, 12960, Note_on_c, 3, 59, 64
4, 13097, Note_off_c, 3, 59, 64
4, 13206, Note_on_c, 3, 56, 64
4, 13343, Note_off_c, 3, 56, 64
4, 13680, Note_on_c, 3, 60, 63
4, 13823, Note_off_c, 3, 60, 63
4, 13920, Note_on_c, 3, 59, 63
4, 14050, Note_off_c, 3, 59, 63
4, 14160, Note_on_c, 3, 56, 64
4, 14297, Note_off_c, 3, 56, 64
4, 14640, Note_on_c, 3, 60, 64
4, 14777, Note_off_c, 3, 60, 64
4, 14880, Note_on_c, 3, 59, 64
4, 14940, Control_c, 3, 7, 90
4, 14999, Note_off_c, 3, 59, 64
4, 15126, Note_on_c, 3, 56, 64
4, 15240, Control_c, 3, 7, 91
4, 15251, Note_off_c, 3, 56, 64
4, 15280, Control_c, 3, 7, 93
4, 15300, Control_c, 3, 7, 96
4, 15340, Control_c, 3, 7, 99
4, 15360, Control_c, 3, 7, 100
4, 15360, Note_on_c, 3, 52, 77
4, 15400, Control_c, 3, 7, 102
4, 15420, Control_c, 3, 7, 103
4, 15502, Note_off_c, 3, 52, 77
4, 15600, Note_on_c, 3, 64, 76
4, 15766, Note_off_c, 3, 64, 76
4, 15840, Note_on_c, 3, 60, 70
4, 15958, Note_off_c, 3, 60, 70
4, 16080, Note_on_c, 3, 57, 68
4, 16206, Note_off_c, 3, 57, 68
4, 16320, Note_on_c, 3, 52, 68
4, 16446, Note_off_c, 3, 52, 68
4, 16560, Note_on_c, 3, 64, 68
4, 16726, Note_off_c, 3, 64, 68
4, 16800, Note_on_c, 3, 60, 68
4, 16934, Note_off_c, 3, 60, 68
4, 17040, Note_on_c, 3, 57, 68
4, 17190, Note_off_c, 3, 57, 68
4, 17280, Control_c, 3, 7, 102
4, 17280, Note_on_c, 3, 52, 69
4, 17380, Control_c, 3, 7, 100
4, 17400, Control_c, 3, 7, 99
4, 17430, Note_off_c, 3, 52, 69
4, 17440, Control_c, 3, 7, 97
4, 17480, Control_c, 3, 7, 96
4, 17520, Control_c, 3, 7, 94
4, 17520, Note_on_c, 3, 57, 68
4, 17670, Note_off_c, 3, 57, 68
4, 17760, Note_on_c, 3, 60, 54
4, 17862, Note_off_c, 3, 60, 54
4, 18000, Note_on_c, 3, 64, 66
4, 18134, Note_off_c, 3, 64, 66
4, 18240, Note_on_c, 3, 64, 80
4, 18718, Note_off_c, 3, 64, 80
4, 25920, Note_on_c, 3, 69, 81
4, 26398, Note_off_c, 3, 69, 81
4, 26560, Control_c, 3, 7, 94
4, 26640, Note_on_c, 3, 60, 120
4, 26758, Note_off_c, 3, 60, 120
4, 26800, Control_c, 3, 7, 95
4, 26840, Control_c, 3, 7, 97
4, 26880, Note_on_c, 3, 64, 79
4, 26900, Control_c, 3, 7, 98
4, 26960, Control_c, 3, 7, 100
4, 27030, Note_off_c, 3, 64, 79
4, 27120, Note_on_c, 3, 60, 80
4, 27254, Note_off_c, 3, 60, 80
4, 27280, Control_c, 3, 7, 101
4, 27320, Control_c, 3, 7, 103
4, 27360, Control_c, 3, 7, 104
4, 27360, Note_on_c, 3, 59, 69
4, 27440, Control_c, 3, 7, 106
4, 27478, Note_off_c, 3, 59, 69
4, 27600, Note_on_c, 3, 56, 74
4, 27718, Note_off_c, 3, 56, 74
4, 27720, Control_c, 3, 7, 107
4, 27760, Control_c, 3, 7, 108
4, 27780, Control_c, 3, 7, 110
4, 27820, Control_c, 3, 7, 111
4, 28080, Note_on_c, 3, 60, 69
4, 28200, Control_c, 3, 7, 110
4, 28238, Note_off_c, 3, 60, 69
4, 28240, Control_c, 3, 7, 108
4, 28260, Control_c, 3, 7, 107
4, 28300, Control_c, 3, 7, 106
4, 28320, Control_c, 3, 7, 103
4, 28320, Note_on_c, 3, 59, 71
4, 28360, Control_c, 3, 7, 101
4, 28380, Control_c, 3, 7, 98
4, 28420, Control_c, 3, 7, 97
4, 28478, Note_off_c, 3, 59, 71
4, 28560, Note_on_c, 3, 56, 72
4, 28640, Control_c, 3, 7, 98
4, 28680, Control_c, 3, 7, 100
4, 28686, Note_off_c, 3, 56, 72
4, 28700, Control_c, 3, 7, 103
4, 28740, Control_c, 3, 7, 106
4, 28760, Control_c, 3, 7, 107
4, 28800, Control_c, 3, 7, 110
4, 28820, Control_c, 3, 7, 111
4, 29040, Note_on_c, 3, 60, 82
4, 29120, Control_c, 3, 7, 110
4, 29160, Control_c, 3, 7, 108
4, 29166, Note_off_c, 3, 60, 82
4, 29200, Control_c, 3, 7, 107
4, 29240, Control_c, 3, 7, 106
4, 29260, Control_c, 3, 7, 104
4, 29280, Note_on_c, 3, 59, 74
4, 29300, Control_c, 3, 7, 103
4, 29320, Control_c, 3, 7, 101
4, 29414, Note_off_c, 3, 59, 74
4, 29420, Control_c, 3, 7, 100
4, 29520, Note_on_c, 3, 56, 68
4, 29614, Note_off_c, 3, 56, 68
4, 29760, Note_on_c, 3, 52, 76
4, 29886, Note_off_c, 3, 52, 76
4, 30000, Note_on_c, 3, 64, 71
4, 30118, Note_off_c, 3, 64, 71
4, 30240, Note_on_c, 3, 60, 73
4, 30350, Note_off_c, 3, 60, 73
4, 30480, Note_on_c, 3, 57, 65
4, 30606, Note_off_c, 3, 57, 65
4, 30720, Note_on_c, 3, 52, 74
4, 30870, Note_off_c, 3, 52, 74
4, 30960, Note_on_c, 3, 64, 60
4, 31102, Note_off_c, 3, 64, 60
4, 31200, Note_on_c, 3, 60, 70
4, 31326, Note_off_c, 3, 60, 70
4, 31440, Note_on_c, 3, 57, 68
4, 31582, Note_off_c, 3, 57, 68
4, 31680, Note_on_c, 3, 52, 72
4, 31806, Note_off_c, 3, 52, 72
4, 31920, Note_on_c, 3, 57, 70
4, 32054, Note_off_c, 3, 57, 70
4, 32160, Note_on_c, 3, 60, 75
4, 32278, Note_off_c, 3, 60, 75
4, 32400, Note_on_c, 3, 64, 78
4, 32550, Note_off_c, 3, 64, 78
4, 32640, Note_on_c, 3, 64, 87
4, 32894, Note_off_c, 3, 64, 87
4, 41520, Note_on_c, 3, 64, 79
4, 41672, Note_off_c, 3, 64, 79
4, 41740, Control_c, 3, 7, 100
4, 41760, Note_on_c, 3, 60, 85
4, 41920, Note_off_c, 3, 60, 85
4, 42000, Note_on_c, 3, 57, 75
4, 42040, Control_c, 3, 7, 101
4, 42105, Note_off_c, 3, 57, 75
4, 42140, Control_c, 3, 7, 103
4, 42200, Control_c, 3, 7, 104
4, 42360, Control_c, 3, 7, 106
4, 42460, Control_c, 3, 7, 107
4, 42480, Note_on_c, 3, 57, 95
4, 42540, Control_c, 3, 7, 109
4, 42593, Note_off_c, 3, 57, 95
4, 42620, Control_c, 3, 7, 110
4, 42660, Control_c, 3, 7, 112
4, 42720, Control_c, 3, 7, 113
4, 42720, Note_on_c, 3, 62, 99
4, 42760, Control_c, 3, 7, 114
4, 42800, Control_c, 3, 7, 116
4, 42840, Note_off_c, 3, 62, 99
4, 42860, Control_c, 3, 7, 117
4, 42920, Control_c, 3, 7, 119
4, 42960, Note_on_c, 3, 65, 94
4, 43020, Control_c, 3, 7, 120
4, 43065, Note_off_c, 3, 65, 94
4, 43100, Control_c, 3, 7, 122
4, 43320, Control_c, 3, 7, 123
4, 43440, Control_c, 3, 7, 125
4, 43440, Note_on_c, 3, 62, 107
4, 43520, Control_c, 3, 7, 126
4, 43576, Note_off_c, 3, 62, 107
4, 43680, Note_on_c, 3, 59, 85
4, 43816, Note_off_c, 3, 59, 85
4, 43920, Note_on_c, 3, 55, 99
4, 44033, Note_off_c, 3, 55, 99
4, 44060, Control_c, 3, 7, 127
4, 44400, Note_on_c, 3, 55, 98
4, 44536, Note_off_c, 3, 55, 98
4, 44640, Note_on_c, 3, 60, 95
4, 44768, Note_off_c, 3, 60, 95
4, 44860, Control_c, 3, 7, 126
4, 44880, Note_on_c, 3, 64, 97
4, 45000, Note_off_c, 3, 64, 97
4, 45020, Control_c, 3, 7, 125
4, 45180, Control_c, 3, 7, 123
4, 45240, Control_c, 3, 7, 122
4, 45320, Control_c, 3, 7, 120
4, 45360, Note_on_c, 3, 60, 110
4, 45420, Control_c, 3, 7, 119
4, 45480, Note_off_c, 3, 60, 110
4, 45600, Note_on_c, 3, 57, 104
4, 45620, Control_c, 3, 7, 117
4, 45700, Control_c, 3, 7, 116
4, 45728, Note_off_c, 3, 57, 104
4, 45740, Control_c, 3, 7, 114
4, 45840, Note_on_c, 3, 53, 110
4, 45860, Control_c, 3, 7, 113
4, 45945, Note_off_c, 3, 53, 110
4, 46080, Control_c, 3, 7, 112
4, 46160, Control_c, 3, 7, 110
4, 46320, Control_c, 3, 7, 109
4, 46320, Note_on_c, 3, 53, 103
4, 46385, Note_off_c, 3, 53, 103
4, 46560, Control_c, 3, 7, 107
4, 46560, Note_on_c, 3, 59, 95
4, 46680, Note_off_c, 3, 59, 95
4, 46720, Control_c, 3, 7, 106
4, 46800, Note_on_c, 3, 62, 90
4, 46928, Note_off_c, 3, 62, 90
4, 46960, Control_c, 3, 7, 104
4, 47020, Control_c, 3, 7, 103
4, 47240, Control_c, 3, 7, 101
4, 47280, Note_on_c, 3, 59, 91
4, 47385, Note_off_c, 3, 59, 91
4, 47520, Note_on_c, 3, 56, 88
4, 47580, Control_c, 3, 7, 100
4, 47648, Note_off_c, 3, 56, 88
4, 47760, Note_on_c, 3, 52, 94
4, 47780, Control_c, 3, 7, 99
4, 47833, Note_off_c, 3, 52, 94
4, 47900, Control_c, 3, 7, 97
4, 48020, Control_c, 3, 7, 96
4, 48120, Note_on_c, 3, 64, 91
4, 48199, Note_off_c, 3, 64, 91
4, 48240, Note_on_c, 3, 64, 86
4, 48327, Note_off_c, 3, 64, 86
4, 48360, Note_on_c, 3, 64, 94
4, 48423, Note_off_c, 3, 64, 94
4, 48480, Note_on_c, 3, 64, 110
4, 48566, Note_off_c, 3, 64, 110
4, 48600, Note_on_c, 3, 64, 83
4, 48679, Note_off_c, 3, 64, 83
4, 48720, Note_on_c, 3, 64, 79
4, 48807, Note_off_c, 3, 64, 79
4, 48840, Note_on_c, 3, 64, 74
4, 48927, Note_off_c, 3, 64, 74
4, 48960, Note_on_c, 3, 64, 115
4, 49047, Note_off_c, 3, 64, 115
4, 49080, Note_on_c, 3, 64, 83
4, 49182, Note_off_c, 3, 64, 83
4, 49200, Note_on_c, 3, 64, 84
4, 49279, Note_off_c, 3, 64, 84
4, 49320, Note_on_c, 3, 64, 70
4, 49391, Note_off_c, 3, 64, 70
4, 49440, Note_on_c, 3, 64, 118
4, 49495, Note_off_c, 3, 64, 118
4, 49560, Note_on_c, 3, 64, 88
4, 49600, Control_c, 3, 7, 96
4, 49639, Note_off_c, 3, 64, 88
4, 49680, Note_on_c, 3, 64, 82
4, 49767, Note_off_c, 3, 64, 82
4, 49800, Note_on_c, 3, 64, 71
4, 49860, Control_c, 3, 7, 97
4, 49863, Note_off_c, 3, 64, 71
4, 49880, Control_c, 3, 7, 100
4, 49920, Note_on_c, 3, 64, 90
4, 50007, Note_off_c, 3, 64, 90
4, 50040, Note_on_c, 3, 64, 64
4, 50142, Note_off_c, 3, 64, 64
4, 50160, Note_on_c, 3, 64, 67
4, 50247, Note_off_c, 3, 64, 67
4, 50280, Note_on_c, 3, 64, 60
4, 50374, Note_off_c, 3, 64, 60
4, 50400, Note_on_c, 3, 64, 95
4, 50502, Note_off_c, 3, 64, 95
4, 50520, Note_on_c, 3, 64, 62
4, 50614, Note_off_c, 3, 64, 62
4, 50640, Note_on_c, 3, 64, 60
4, 50720, Control_c, 3, 7, 102
4, 50734, Note_off_c, 3, 64, 60
4, 50760, Note_on_c, 3, 64, 57
4, 50862, Note_off_c, 3, 64, 57
4, 50880, Note_on_c, 3, 64, 91
4, 50960, Control_c, 3, 7, 103
4, 50974, Note_off_c, 3, 64, 91
4, 51000, Note_on_c, 3, 64, 71
4, 51079, Note_off_c, 3, 64, 71
4, 51120, Note_on_c, 3, 64, 69
4, 51200, Control_c, 3, 7, 105
4, 51207, Note_off_c, 3, 64, 69
4, 51240, Note_on_c, 3, 64, 66
4, 51311, Note_off_c, 3, 64, 66
4, 51360, Note_on_c, 3, 64, 80
4, 51440, Control_c, 3, 7, 106
4, 51519, Note_off_c, 3, 64, 80
4, 51600, Note_on_c, 3, 60, 75
4, 51660, Control_c, 3, 7, 108
4, 51728, Note_off_c, 3, 60, 75
4, 51820, Control_c, 3, 7, 109
4, 51840, Control_c, 3, 7, 110
4, 51840, Note_on_c, 3, 60, 80
4, 51992, Note_off_c, 3, 60, 80
4, 52000, Control_c, 3, 7, 112
4, 52020, Control_c, 3, 7, 113
4, 52080, Note_on_c, 3, 57, 76
4, 52232, Note_off_c, 3, 57, 76
4, 52560, Note_on_c, 3, 64, 76
4, 52696, Note_off_c, 3, 64, 76
4, 52780, Control_c, 3, 7, 115
4, 52800, Note_on_c, 3, 60, 78
4, 52936, Note_off_c, 3, 60, 78
4, 53040, Note_on_c, 3, 57, 71
4, 53180, Control_c, 3, 7, 116
4, 53200, Control_c, 3, 7, 118
4, 53207, Note_off_c, 3, 57, 71
4, 53500, Control_c, 3, 7, 119
4, 53520, Note_on_c, 3, 64, 77
4, 53540, Control_c, 3, 7, 121
4, 53580, Control_c, 3, 7, 122
4, 53600, Control_c, 3, 7, 123
4, 53660, Control_c, 3, 7, 125
4, 53664, Note_off_c, 3, 64, 77
4, 53700, Control_c, 3, 7, 126
4, 53760, Control_c, 3, 7, 127
4, 53760, Note_on_c, 3, 64, 79
4, 53880, Note_off_c, 3, 64, 79
4, 54000, Note_on_c, 3, 72, 78
4, 54105, Note_off_c, 3, 72, 78
4, 54240, Note_on_c, 3, 71, 78
4, 54368, Note_off_c, 3, 71, 78
4, 54480, Note_on_c, 3, 68, 74
4, 54600, Note_off_c, 3, 68, 74
4, 54720, Note_on_c, 3, 64, 84
4, 54856, Note_off_c, 3, 64, 84
4, 54960, Note_on_c, 3, 65, 79
4, 55088, Note_off_c, 3, 65, 79
4, 55200, Note_on_c, 3, 59, 79
4, 55344, Note_off_c, 3, 59, 79
4, 55440, Note_on_c, 3, 64, 75
4, 55520, Control_c, 3, 7, 126
4, 55560, Control_c, 3, 7, 125
4, 55560, Note_off_c, 3, 64, 75
4, 55660, Control_c, 3, 7, 123
4, 55680, Note_on_c, 3, 60, 80
4, 55700, Control_c, 3, 7, 122
4, 55740, Control_c, 3, 7, 121
4, 55780, Control_c, 3, 7, 119
4, 55860, Control_c, 3, 7, 118
4, 56020, Control_c, 3, 7, 116
4, 56100, Control_c, 3, 7, 115
4, 56140, Control_c, 3, 7, 113
4, 56158, Note_off_c, 3, 60, 80
4, 56280, Control_c, 3, 7, 112
4, 56320, Control_c, 3, 7, 110
4, 56360, Control_c, 3, 7, 109
4, 56520, Control_c, 3, 7, 108
4, 56640, Note_on_c, 3, 57, 80
4, 56720, Control_c, 3, 7, 106
4, 57118, Note_off_c, 3, 57, 80
4, 57600, Note_on_c, 3, 60, 79
4, 57920, Control_c, 3, 7, 105
4, 58060, Control_c, 3, 7, 103
4, 58078, Note_off_c, 3, 60, 79
4, 58180, Control_c, 3, 7, 102
4, 58320, Control_c, 3, 7, 100
4, 58360, Control_c, 3, 7, 99
4, 58420, Control_c, 3, 7, 97
4, 58560, Note_on_c, 3, 64, 87
4, 58860, Control_c, 3, 7, 96
4, 59038, Note_off_c, 3, 64, 87
4, 59260, Control_c, 3, 7, 95
4, 59520, Note_on_c, 3, 69, 88
4, 59800, Control_c, 3, 7, 93
4, 59998, Note_off_c, 3, 69, 88
4, 60140, Control_c, 3, 7, 95
4, 60480, Note_on_c, 3, 72, 85
4, 60958, Note_off_c, 3, 72, 85
4, 71640, Control_c, 3, 7, 95
4, 72100, Control_c, 3, 7, 96
4, 72160, Control_c, 3, 7, 98
4, 72240, Control_c, 3, 7, 99
4, 72320, Control_c, 3, 7, 101
4, 72420, Control_c, 3, 7, 102
4, 72460, Control_c, 3, 7, 104
4, 72480, Control_c, 3, 7, 105
4, 72540, Control_c, 3, 7, 107
4, 72580, Control_c, 3, 7, 108
4, 72620, Control_c, 3, 7, 109
4, 72640, Control_c, 3, 7, 111
4, 72680, Control_c, 3, 7, 112
4, 72700, Control_c, 3, 7, 114
4, 72740, Control_c, 3, 7, 115
4, 72760, Control_c, 3, 7, 117
4, 72800, Control_c, 3, 7, 118
4, 72820, Control_c, 3, 7, 120
4, 72860, Control_c, 3, 7, 121
4, 72880, Control_c, 3, 7, 122
4, 72960, Note_on_c, 3, 71, 101
4, 73020, Control_c, 3, 7, 124
4, 73312, Note_off_c, 3, 71, 101
4, 73680, Note_on_c, 3, 71, 95
4, 73816, Note_off_c, 3, 71, 95
4, 73920, Note_on_c, 3, 72, 100
4, 74048, Note_off_c, 3, 72, 100
4, 74160, Note_on_c, 3, 64, 94
4, 74249, Note_off_c, 3, 64, 94
4, 74400, Note_on_c, 3, 62, 98
4, 74520, Note_off_c, 3, 62, 98
4, 74640, Note_on_c, 3, 59, 91
4, 74800, Note_off_c, 3, 59, 91
4, 75120, Note_on_c, 3, 64, 99
4, 75241, Note_off_c, 3, 64, 99
4, 75360, Note_on_c, 3, 62, 106
4, 75473, Note_off_c, 3, 62, 106
4, 75600, Note_on_c, 3, 59, 92
4, 75720, Note_off_c, 3, 59, 92
4, 76080, Note_on_c, 3, 64, 99
4, 76216, Note_off_c, 3, 64, 99
4, 76320, Note_on_c, 3, 62, 108
4, 76409, Note_off_c, 3, 62, 108
4, 76560, Note_on_c, 3, 59, 93
4, 76704, Note_off_c, 3, 59, 93
4, 76800, Note_on_c, 3, 55, 106
4, 76944, Note_off_c, 3, 55, 106
4, 77040, Note_on_c, 3, 67, 95
4, 77137, Note_off_c, 3, 67, 95
4, 77280, Note_on_c, 3, 64, 96
4, 77424, Note_off_c, 3, 64, 96
4, 77520, Note_on_c, 3, 60, 93
4, 77656, Note_off_c, 3, 60, 93
4, 77760, Note_on_c, 3, 55, 100
4, 77880, Note_off_c, 3, 55, 100
4, 78000, Note_on_c, 3, 67, 91
4, 78105, Note_off_c, 3, 67, 91
4, 78240, Note_on_c, 3, 64, 95
4, 78368, Note_off_c, 3, 64, 95
4, 78480, Note_on_c, 3, 60, 94
4, 78585, Note_off_c, 3, 60, 94
4, 78720, Note_on_c, 3, 55, 95
4, 78864, Note_off_c, 3, 55, 95
4, 78960, Note_on_c, 3, 60, 97
4, 79073, Note_off_c, 3, 60, 97
4, 79200, Note_on_c, 3, 64, 94
4, 79220, Control_c, 3, 7, 124
4, 79360, Note_off_c, 3, 64, 94
4, 79440, Note_on_c, 3, 67, 93
4, 79520, Control_c, 3, 7, 123
4, 79584, Note_off_c, 3, 67, 93
4, 79600, Control_c, 3, 7, 121
4, 79660, Control_c, 3, 7, 120
4, 79680, Note_on_c, 3, 67, 99
4, 79840, Control_c, 3, 7, 118
4, 79940, Control_c, 3, 7, 117
4, 80000, Control_c, 3, 7, 115
4, 80040, Control_c, 3, 7, 114
4, 80080, Control_c, 3, 7, 112
4, 80119, Note_off_c, 3, 67, 99
4, 80140, Control_c, 3, 7, 111
4, 80260, Control_c, 3, 7, 110
4, 80300, Control_c, 3, 7, 108
4, 80500, Control_c, 3, 7, 107
4, 80700, Control_c, 3, 7, 105
4, 80760, Control_c, 3, 7, 104
4, 81100, Control_c, 3, 7, 102
4, 81120, Note_on_c, 3, 64, 44
4, 81240, Control_c, 3, 7, 101
4, 81598, Note_off_c, 3, 64, 44
4, 81660, Control_c, 3, 7, 99
4, 82080, Note_on_c, 3, 64, 43
4, 82180, Control_c, 3, 7, 98
4, 82240, Control_c, 3, 7, 97
4, 82558, Note_off_c, 3, 64, 43
4, 83040, Control_c, 3, 7, 95
4, 83040, Note_on_c, 3, 65, 40
4, 83518, Note_off_c, 3, 65, 40
4, 84000, Note_on_c, 3, 66, 41
4, 84478, Note_off_c, 3, 66, 41
4, 84960, Note_on_c, 3, 66, 35
4, 85438, Note_off_c, 3, 66, 35
4, 85680, Note_on_c, 3, 67, 34
4, 85822, Note_off_c, 3, 67, 34
4, 85920, Note_on_c, 3, 55, 44
4, 86398, Note_off_c, 3, 55, 44
4, 88620, Control_c, 3, 7, 95
4, 88740, Control_c, 3, 7, 96
4, 88800, Control_c, 3, 7, 98
4, 88840, Control_c, 3, 7, 99
4, 89420, Control_c, 3, 7, 101
4, 89460, Control_c, 3, 7, 102
4, 89560, Control_c, 3, 7, 104
4, 89640, Control_c, 3, 7, 105
4, 89720, Control_c, 3, 7, 107
4, 89760, Control_c, 3, 7, 108
4, 89920, Control_c, 3, 7, 109
4, 90740, Control_c, 3, 7, 111
4, 90800, Control_c, 3, 7, 112
4, 91340, Control_c, 3, 7, 114
4, 91420, Control_c, 3, 7, 115
4, 91780, Control_c, 3, 7, 117
4, 92000, Control_c, 3, 7, 118
4, 92040, Control_c, 3, 7, 120
4, 92160, Control_c, 3, 7, 121
4, 92160, Note_on_c, 3, 60, 100
4, 92300, Control_c, 3, 7, 122
4, 92319, Note_off_c, 3, 60, 100
4, 92480, Control_c, 3, 7, 124
4, 92640, Note_on_c, 3, 62, 83
4, 92792, Note_off_c, 3, 62, 83
4, 92920, Control_c, 3, 7, 125
4, 93000, Control_c, 3, 7, 127
4, 93120, Note_on_c, 3, 64, 84
4, 93240, Note_off_c, 3, 64, 84
4, 93840, Note_on_c, 3, 52, 102
4, 93904, Note_off_c, 3, 52, 102
4, 94080, Note_on_c, 3, 64, 92
4, 94240, Note_off_c, 3, 64, 92
4, 94800, Note_on_c, 3, 52, 102
4, 94858, Note_off_c, 3, 52, 102
4, 95040, Note_on_c, 3, 64, 93
4, 95184, Note_off_c, 3, 64, 93
4, 95760, Note_on_c, 3, 52, 103
4, 95817, Note_off_c, 3, 52, 103
4, 96000, Note_on_c, 3, 64, 89
4, 96168, Note_off_c, 3, 64, 89
4, 96720, Note_on_c, 3, 52, 95
4, 96802, Note_off_c, 3, 52, 95
4, 96960, Note_on_c, 3, 64, 89
4, 97131, Note_off_c, 3, 64, 89
4, 97320, Control_c, 3, 7, 127
4, 97640, Control_c, 3, 7, 126
4, 97680, Control_c, 3, 7, 124
4, 97720, Control_c, 3, 7, 123
4, 97780, Control_c, 3, 7, 121
4, 97860, Control_c, 3, 7, 120
4, 97900, Control_c, 3, 7, 118
4, 97940, Control_c, 3, 7, 117
4, 98020, Control_c, 3, 7, 115
4, 98080, Control_c, 3, 7, 114
4, 98140, Control_c, 3, 7, 113
4, 98180, Control_c, 3, 7, 111
4, 98260, Control_c, 3, 7, 110
4, 98300, Control_c, 3, 7, 108
4, 98340, Control_c, 3, 7, 107
4, 98380, Control_c, 3, 7, 105
4, 98480, Control_c, 3, 7, 104
4, 98560, Control_c, 3, 7, 102
4, 98680, Control_c, 3, 7, 101
4, 98740, Control_c, 3, 7, 100
4, 98880, Control_c, 3, 7, 98
4, 98940, Control_c, 3, 7, 97
4, 99060, Control_c, 3, 7, 95
4, 99160, Control_c, 3, 7, 94
4, 99380, Control_c, 3, 7, 92
4, 99440, Control_c, 3, 7, 91
4, 99540, Control_c, 3, 7, 89
4, 99700, Control_c, 3, 7, 88
4, 100000, Control_c, 3, 7, 87
4, 103840, Control_c, 3, 7, 87
4, 103980, Control_c, 3, 7, 86
4, 104060, Control_c, 3, 7, 84
4, 104120, Control_c, 3, 7, 83
4, 104200, Control_c, 3, 7, 81
4, 104220, Control_c, 3, 7, 80
4, 104300, Control_c, 3, 7, 78
4, 104320, Control_c, 3, 7, 77
4, 104400, Control_c, 3, 7, 75
4, 104420, Control_c, 3, 7, 74
4, 104460, Control_c, 3, 7, 73
4, 104520, Control_c, 3, 7, 71
4, 104560, Control_c, 3, 7, 70
4, 104740, Control_c, 3, 7, 68
4, 104880, Note_on_c, 3, 59, 86
4, 105000, Note_off_c, 3, 59, 86
4, 105120, Note_on_c, 3, 55, 92
4, 105233, Note_off_c, 3, 55, 92
4, 105360, Note_on_c, 3, 52, 88
4, 105488, Note_off_c, 3, 52, 88
4, 105700, Control_c, 3, 7, 70
4, 105800, Control_c, 3, 7, 71
4, 105840, Note_on_c, 3, 64, 93
4, 105920, Control_c, 3, 7, 73
4, 105980, Control_c, 3, 7, 74
4, 105992, Note_off_c, 3, 64, 93
4, 106080, Note_on_c, 3, 61, 90
4, 106140, Control_c, 3, 7, 75
4, 106224, Note_off_c, 3, 61, 90
4, 106320, Note_on_c, 3, 57, 87
4, 106400, Control_c, 3, 7, 77
4, 106440, Note_off_c, 3, 57, 87
4, 106540, Control_c, 3, 7, 78
4, 106720, Control_c, 3, 7, 80
4, 106800, Note_on_c, 3, 61, 87
4, 106820, Control_c, 3, 7, 81
4, 106936, Note_off_c, 3, 61, 87
4, 107040, Control_c, 3, 7, 83
4, 107040, Note_on_c, 3, 58, 88
4, 107153, Note_off_c, 3, 58, 88
4, 107180, Control_c, 3, 7, 84
4, 107260, Control_c, 3, 7, 86
4, 107280, Note_on_c, 3, 54, 91
4, 107385, Note_off_c, 3, 54, 91
4, 107400, Control_c, 3, 7, 87
4, 107760, Note_on_c, 3, 66, 87
4, 107820, Control_c, 3, 7, 88
4, 107873, Note_off_c, 3, 66, 87
4, 107920, Control_c, 3, 7, 90
4, 108000, Note_on_c, 3, 63, 86
4, 108020, Control_c, 3, 7, 91
4, 108136, Note_off_c, 3, 63, 86
4, 108240, Note_on_c, 3, 59, 82
4, 108300, Control_c, 3, 7, 93
4, 108360, Note_off_c, 3, 59, 82
4, 108520, Control_c, 3, 7, 94
4, 108660, Control_c, 3, 7, 96
4, 108720, Note_on_c, 3, 63, 84
4, 108864, Note_off_c, 3, 63, 84
4, 108960, Note_on_c, 3, 59, 81
4, 108980, Control_c, 3, 7, 97
4, 109104, Note_off_c, 3, 59, 81
4, 109160, Control_c, 3, 7, 99
4, 109200, Note_on_c, 3, 55, 88
4, 109313, Note_off_c, 3, 55, 88
4, 109340, Control_c, 3, 7, 100
4, 109520, Control_c, 3, 7, 101
4, 109600, Control_c, 3, 7, 103
4, 109680, Note_on_c, 3, 67, 88
4, 109700, Control_c, 3, 7, 104
4, 109816, Note_off_c, 3, 67, 88
4, 109920, Note_on_c, 3, 64, 92
4, 109940, Control_c, 3, 7, 106
4, 110017, Note_off_c, 3, 64, 92
4, 110100, Control_c, 3, 7, 107
4, 110160, Note_on_c, 3, 60, 85
4, 110240, Control_c, 3, 7, 109
4, 110265, Note_off_c, 3, 60, 85
4, 110340, Control_c, 3, 7, 110
4, 110520, Control_c, 3, 7, 112
4, 110640, Note_on_c, 3, 64, 88
4, 110753, Note_off_c, 3, 64, 88
4, 110880, Control_c, 3, 7, 113
4, 110880, Note_on_c, 3, 60, 88
4, 110960, Control_c, 3, 7, 114
4, 111024, Note_off_c, 3, 60, 88
4, 111060, Control_c, 3, 7, 116
4, 111120, Note_on_c, 3, 57, 81
4, 111220, Control_c, 3, 7, 117
4, 111272, Note_off_c, 3, 57, 81
4, 111400, Control_c, 3, 7, 119
4, 111480, Control_c, 3, 7, 120
4, 111580, Control_c, 3, 7, 122
4, 111600, Note_on_c, 3, 66, 84
4, 111700, Control_c, 3, 7, 123
4, 111751, Note_off_c, 3, 66, 84
4, 111840, Control_c, 3, 7, 125
4, 111840, Note_on_c, 3, 63, 90
4, 111880, Control_c, 3, 7, 126
4, 111945, Note_off_c, 3, 63, 90
4, 112040, Control_c, 3, 7, 127
4, 112080, Note_on_c, 3, 59, 85
4, 112177, Note_off_c, 3, 59, 85
4, 112560, Note_on_c, 3, 71, 90
4, 112696, Note_off_c, 3, 71, 90
4, 112800, Note_on_c, 3, 67, 96
4, 112905, Note_off_c, 3, 67, 96
4, 113040, Note_on_c, 3, 64, 98
4, 113160, Note_off_c, 3, 64, 98
4, 113240, Control_c, 3, 7, 126
4, 113280, Control_c, 3, 7, 125
4, 113320, Control_c, 3, 7, 123
4, 113400, Control_c, 3, 7, 122
4, 113440, Control_c, 3, 7, 120
4, 113520, Note_on_c, 3, 59, 119
4, 113640, Control_c, 3, 7, 119
4, 113656, Note_off_c, 3, 59, 119
4, 113700, Control_c, 3, 7, 117
4, 113760, Note_on_c, 3, 66, 100
4, 113840, Control_c, 3, 7, 116
4, 113872, Note_off_c, 3, 66, 100
4, 113900, Control_c, 3, 7, 114
4, 113960, Control_c, 3, 7, 113
4, 114000, Note_on_c, 3, 69, 98
4, 114060, Control_c, 3, 7, 112
4, 114120, Note_off_c, 3, 69, 98
4, 114220, Control_c, 3, 7, 110
4, 114280, Control_c, 3, 7, 109
4, 114360, Control_c, 3, 7, 107
4, 114440, Control_c, 3, 7, 106
4, 114480, Note_on_c, 3, 59, 109
4, 114500, Control_c, 3, 7, 104
4, 114620, Control_c, 3, 7, 103
4, 114624, Note_off_c, 3, 59, 109
4, 114700, Control_c, 3, 7, 101
4, 114720, Note_on_c, 3, 63, 109
4, 114840, Control_c, 3, 7, 100
4, 114848, Note_off_c, 3, 63, 109
4, 114960, Note_on_c, 3, 66, 107
4, 115088, Note_off_c, 3, 66, 107
4, 115200, Note_on_c, 3, 67, 89
4, 115529, Note_off_c, 3, 67, 89
4, 115860, Control_c, 3, 7, 99
4, 116040, Control_c, 3, 7, 97
4, 116140, Control_c, 3, 7, 96
4, 116260, Control_c, 3, 7, 94
4, 116420, Control_c, 3, 7, 93
4, 116780, Control_c, 3, 7, 91
4, 116820, Control_c, 3, 7, 90
4, 118800, Note_on_c, 3, 71, 62
4, 118952, Note_off_c, 3, 71, 62
4, 119040, Note_on_c, 3, 67, 51
4, 119278, Note_off_c, 3, 67, 51
4, 120720, Note_on_c, 3, 68, 75
4, 120848, Note_off_c, 3, 68, 75
4, 120960, Note_on_c, 3, 64, 67
4, 121422, Note_off_c, 3, 64, 67
4, 121440, Note_on_c, 3, 72, 59
4, 121920, Note_on_c, 3, 70, 49
4, 121941, Note_off_c, 3, 72, 59
4, 122120, Control_c, 3, 7, 90
4, 122320, Control_c, 3, 7, 91
4, 122340, Control_c, 3, 7, 93
4, 122380, Control_c, 3, 7, 94
4, 122660, Control_c, 3, 7, 96
4, 122720, Control_c, 3, 7, 97
4, 122780, Control_c, 3, 7, 99
4, 122878, Note_off_c, 3, 70, 49
4, 122880, Note_on_c, 3, 69, 49
4, 122960, Control_c, 3, 7, 100
4, 123640, Control_c, 3, 7, 102
4, 123680, Control_c, 3, 7, 103
4, 123800, Control_c, 3, 7, 104
4, 123838, Note_off_c, 3, 69, 49
4, 123840, Note_on_c, 3, 67, 49
4, 123940, Control_c, 3, 7, 106
4, 124798, Note_off_c, 3, 67, 49
4, 124800, Note_on_c, 3, 65, 47
4, 125043, Note_off_c, 3, 65, 47
4, 125400, Control_c, 3, 7, 104
4, 125440, Control_c, 3, 7, 103
4, 125480, Control_c, 3, 7, 102
4, 125540, Control_c, 3, 7, 100
4, 125600, Control_c, 3, 7, 99
4, 125680, Control_c, 3, 7, 97
4, 125760, Control_c, 3, 7, 96
4, 125980, Control_c, 3, 7, 94
4, 126080, Control_c, 3, 7, 93
4, 126140, Control_c, 3, 7, 91
4, 126240, Control_c, 3, 7, 90
4, 126360, Control_c, 3, 7, 89
4, 126540, Control_c, 3, 7, 87
4, 127440, Note_on_c, 3, 62, 54
4, 127537, Note_off_c, 3, 62, 54
4, 127680, Note_on_c, 3, 60, 52
4, 127918, Note_off_c, 3, 60, 52
4, 133680, Note_on_c, 3, 64, 78
4, 133740, Control_c, 3, 7, 87
4, 133824, Note_off_c, 3, 64, 78
4, 133920, Note_on_c, 3, 60, 74
4, 134040, Control_c, 3, 7, 88
4, 134056, Note_off_c, 3, 60, 74
4, 134140, Control_c, 3, 7, 90
4, 134160, Note_on_c, 3, 57, 69
4, 134296, Note_off_c, 3, 57, 69
4, 134420, Control_c, 3, 7, 91
4, 134500, Control_c, 3, 7, 93
4, 134540, Control_c, 3, 7, 94
4, 134640, Note_on_c, 3, 57, 72
4, 134680, Control_c, 3, 7, 96
4, 134776, Note_off_c, 3, 57, 72
4, 134780, Control_c, 3, 7, 97
4, 134860, Control_c, 3, 7, 99
4, 134880, Note_on_c, 3, 62, 79
4, 135000, Control_c, 3, 7, 100
4, 135031, Note_off_c, 3, 62, 79
4, 135120, Note_on_c, 3, 65, 75
4, 135140, Control_c, 3, 7, 101
4, 135256, Note_off_c, 3, 65, 75
4, 135260, Control_c, 3, 7, 103
4, 135400, Control_c, 3, 7, 104
4, 135480, Control_c, 3, 7, 106
4, 135600, Note_on_c, 3, 62, 69
4, 135640, Control_c, 3, 7, 107
4, 135728, Note_off_c, 3, 62, 69
4, 135740, Control_c, 3, 7, 109
4, 135800, Control_c, 3, 7, 110
4, 135840, Note_on_c, 3, 59, 76
4, 135900, Control_c, 3, 7, 112
4, 135968, Note_off_c, 3, 59, 76
4, 136080, Note_on_c, 3, 55, 81
4, 136100, Control_c, 3, 7, 113
4, 136208, Note_off_c, 3, 55, 81
4, 136480, Control_c, 3, 7, 114
4, 136560, Note_on_c, 3, 55, 81
4, 136696, Note_off_c, 3, 55, 81
4, 136720, Control_c, 3, 7, 116
4, 136800, Note_on_c, 3, 60, 80
4, 136928, Note_off_c, 3, 60, 80
4, 136980, Control_c, 3, 7, 117
4, 137040, Note_on_c, 3, 64, 78
4, 137060, Control_c, 3, 7, 119
4, 137140, Control_c, 3, 7, 120
4, 137200, Note_off_c, 3, 64, 78
4, 137520, Note_on_c, 3, 60, 82
4, 137600, Control_c, 3, 7, 122
4, 137640, Note_off_c, 3, 60, 82
4, 137760, Control_c, 3, 7, 123
4, 137760, Note_on_c, 3, 57, 80
4, 137880, Control_c, 3, 7, 125
4, 137904, Note_off_c, 3, 57, 80
4, 137940, Control_c, 3, 7, 126
4, 138000, Note_on_c, 3, 53, 75
4, 138113, Note_off_c, 3, 53, 75
4, 138140, Control_c, 3, 7, 127
4, 138480, Note_on_c, 3, 53, 72
4, 138601, Note_off_c, 3, 53, 72
4, 138720, Note_on_c, 3, 59, 65
4, 138864, Note_off_c, 3, 59, 65
4, 138960, Note_on_c, 3, 62, 78
4, 139080, Note_off_c, 3, 62, 78
4, 139440, Note_on_c, 3, 59, 73
4, 139553, Note_off_c, 3, 59, 73
4, 139680, Note_on_c, 3, 56, 71
4, 139793, Note_off_c, 3, 56, 71
4, 139920, Note_on_c, 3, 52, 67
4, 140064, Note_off_c, 3, 52, 67
4, 140120, Control_c, 3, 7, 126
4, 140160, Note_on_c, 3, 64, 81
4, 140400, Control_c, 3, 7, 125
4, 140500, Control_c, 3, 7, 123
4, 140536, Note_off_c, 3, 64, 81
4, 140560, Control_c, 3, 7, 122
4, 140860, Control_c, 3, 7, 120
4, 141840, Note_on_c, 3, 73, 67
4, 141860, Control_c, 3, 7, 122
4, 141900, Control_c, 3, 7, 123
4, 141920, Control_c, 3, 7, 125
4, 141976, Note_off_c, 3, 73, 67
4, 142080, Note_on_c, 3, 69, 65
4, 142182, Note_off_c, 3, 69, 65
4, 142320, Note_on_c, 3, 65, 53
4, 142446, Note_off_c, 3, 65, 53
4, 142720, Control_c, 3, 7, 123
4, 142780, Control_c, 3, 7, 122
4, 142840, Control_c, 3, 7, 120
4, 142940, Control_c, 3, 7, 119
4, 143060, Control_c, 3, 7, 117
4, 143280, Control_c, 3, 7, 116
4, 143420, Control_c, 3, 7, 114
4, 143760, Note_on_c, 3, 66, 40
4, 143894, Note_off_c, 3, 66, 40
4, 144000, Note_on_c, 3, 62, 80
4, 144086, Note_off_c, 3, 62, 80
4, 144240, Note_on_c, 3, 59, 71
4, 144358, Note_off_c, 3, 59, 71
4, 144780, Control_c, 3, 7, 113
4, 144820, Control_c, 3, 7, 112
4, 145000, Control_c, 3, 7, 110
4, 145080, Control_c, 3, 7, 109
4, 145220, Control_c, 3, 7, 107
4, 145360, Control_c, 3, 7, 106
4, 145440, Control_c, 3, 7, 104
4, 145540, Control_c, 3, 7, 103
4, 145680, Note_on_c, 3, 59, 68
4, 145814, Note_off_c, 3, 59, 68
4, 145920, Note_on_c, 3, 55, 73
4, 146038, Note_off_c, 3, 55, 73
4, 146160, Note_on_c, 3, 52, 68
4, 146294, Note_off_c, 3, 52, 68
4, 146760, Control_c, 3, 7, 101
4, 146980, Control_c, 3, 7, 100
4, 147120, Control_c, 3, 7, 99
4, 147520, Control_c, 3, 7, 97
4, 147600, Note_on_c, 3, 64, 75
4, 147742, Note_off_c, 3, 64, 75
4, 147840, Note_on_c, 3, 60, 73
4, 147958, Note_off_c, 3, 60, 73
4, 148080, Control_c, 3, 7, 96
4, 148080, Note_on_c, 3, 57, 69
4, 148214, Note_off_c, 3, 57, 69
4, 149520, Note_on_c, 3, 66, 73
4, 149654, Note_off_c, 3, 66, 73
4, 149760, Note_on_c, 3, 62, 82
4, 149894, Note_off_c, 3, 62, 82
4, 150000, Control_c, 3, 7, 94
4, 150000, Note_on_c, 3, 59, 74
4, 150126, Note_off_c, 3, 59, 74
4, 151440, Note_on_c, 3, 68, 76
4, 151542, Note_off_c, 3, 68, 76
4, 151680, Note_on_c, 3, 64, 77
4, 151806, Note_off_c, 3, 64, 77
4, 151920, Note_on_c, 3, 60, 59
4, 152022, Note_off_c, 3, 60, 59
4, 153360, Note_on_c, 3, 60, 71
4, 153494, Note_off_c, 3, 60, 71
4, 153600, Note_on_c, 3, 60, 69
4, 153838, Note_off_c, 3, 60, 69
4, 153840, Note_on_c, 3, 59, 65
4, 153958, Note_off_c, 3, 59, 65
4, 154220, Control_c, 3, 7, 94
4, 154680, Control_c, 3, 7, 95
4, 154800, Control_c, 3, 7, 97
4, 154900, Control_c, 3, 7, 98
4, 154960, Control_c, 3, 7, 100
4, 155000, Control_c, 3, 7, 101
4, 155060, Control_c, 3, 7, 103
4, 155200, Control_c, 3, 7, 104
4, 155280, Note_on_c, 3, 58, 66
4, 155300, Control_c, 3, 7, 106
4, 155420, Control_c, 3, 7, 107
4, 155430, Note_off_c, 3, 58, 66
4, 155520, Note_on_c, 3, 58, 69
4, 155758, Note_off_c, 3, 58, 69
4, 155760, Note_on_c, 3, 57, 68
4, 155880, Control_c, 3, 7, 108
4, 155886, Note_off_c, 3, 57, 68
4, 156140, Control_c, 3, 7, 110
4, 156180, Control_c, 3, 7, 111
4, 156480, Control_c, 3, 7, 113
4, 156640, Control_c, 3, 7, 114
4, 156760, Control_c, 3, 7, 116
4, 157200, Note_on_c, 3, 57, 75
4, 157342, Note_off_c, 3, 57, 75
4, 157440, Note_on_c, 3, 57, 79
4, 157678, Note_off_c, 3, 57, 79
4, 157680, Note_on_c, 3, 56, 75
4, 157806, Note_off_c, 3, 56, 75
4, 159120, Note_on_c, 3, 56, 69
4, 159230, Note_off_c, 3, 56, 69
4, 159260, Control_c, 3, 7, 114
4, 159340, Control_c, 3, 7, 113
4, 159360, Note_on_c, 3, 57, 71
4, 159440, Control_c, 3, 7, 111
4, 159470, Note_off_c, 3, 57, 71
4, 159540, Control_c, 3, 7, 110
4, 159600, Note_on_c, 3, 52, 73
4, 159680, Control_c, 3, 7, 108
4, 159718, Note_off_c, 3, 52, 73
4, 159800, Control_c, 3, 7, 107
4, 159860, Control_c, 3, 7, 106
4, 159920, Control_c, 3, 7, 104
4, 160000, Control_c, 3, 7, 103
4, 160160, Control_c, 3, 7, 101
4, 160280, Control_c, 3, 7, 100
4, 160400, Control_c, 3, 7, 98
4, 160980, Control_c, 3, 7, 100
4, 161000, Control_c, 3, 7, 101
4, 161040, Control_c, 3, 7, 103
4, 161040, Note_on_c, 3, 64, 74
4, 161080, Control_c, 3, 7, 104
4, 161100, Control_c, 3, 7, 106
4, 161140, Control_c, 3, 7, 107
4, 161174, Note_off_c, 3, 64, 74
4, 161280, Note_on_c, 3, 62, 76
4, 161542, Note_off_c, 3, 62, 76
4, 161620, Control_c, 3, 7, 106
4, 161640, Control_c, 3, 7, 104
4, 161680, Control_c, 3, 7, 103
4, 161700, Control_c, 3, 7, 101
4, 161740, Control_c, 3, 7, 100
4, 161760, Control_c, 3, 7, 98
4, 161800, Control_c, 3, 7, 97
4, 162940, Control_c, 3, 7, 98
4, 162960, Control_c, 3, 7, 101
4, 162960, Note_on_c, 3, 62, 74
4, 163000, Control_c, 3, 7, 103
4, 163020, Control_c, 3, 7, 104
4, 163118, Note_off_c, 3, 62, 74
4, 163200, Note_on_c, 3, 60, 78
4, 163454, Note_off_c, 3, 60, 78
4, 163640, Control_c, 3, 7, 103
4, 163680, Control_c, 3, 7, 101
4, 163700, Control_c, 3, 7, 100
4, 163820, Control_c, 3, 7, 98
4, 164120, Control_c, 3, 7, 98
4, 164880, Note_on_c, 3, 60, 72
4, 165030, Note_off_c, 3, 60, 72
4, 165120, Note_on_c, 3, 59, 75
4, 165349, Note_off_c, 3, 59, 75
4, 166800, Note_on_c, 3, 59, 72
4, 166942, Note_off_c, 3, 59, 72
4, 167040, Note_on_c, 3, 60, 88
4, 167310, Note_off_c, 3, 60, 88
4, 177600, Note_on_c, 3, 57, 75
4, 178078, Note_off_c, 3, 57, 75
4, 178560, Note_on_c, 3, 59, 69
4, 178740, Control_c, 3, 7, 98
4, 179020, Control_c, 3, 7, 99
4, 179038, Note_off_c, 3, 59, 69
4, 179180, Control_c, 3, 7, 101
4, 179300, Control_c, 3, 7, 102
4, 179520, Note_on_c, 3, 60, 78
4, 179640, Control_c, 3, 7, 104
4, 179800, Control_c, 3, 7, 105
4, 179960, Control_c, 3, 7, 107
4, 179998, Note_off_c, 3, 60, 78
4, 180060, Control_c, 3, 7, 108
4, 180400, Control_c, 3, 7, 110
4, 180480, Note_on_c, 3, 62, 77
4, 180540, Control_c, 3, 7, 111
4, 180800, Control_c, 3, 7, 112
4, 180920, Control_c, 3, 7, 114
4, 180958, Note_off_c, 3, 62, 77
4, 181040, Control_c, 3, 7, 115
4, 181120, Control_c, 3, 7, 117
4, 181220, Control_c, 3, 7, 118
4, 181280, Control_c, 3, 7, 120
4, 181560, Control_c, 3, 7, 121
4, 181620, Control_c, 3, 7, 123
4, 181680, Note_on_c, 3, 57, 66
4, 181720, Control_c, 3, 7, 124
4, 181760, Control_c, 3, 7, 125
4, 181806, Note_off_c, 3, 57, 66
4, 181920, Note_on_c, 3, 57, 71
4, 182054, Note_off_c, 3, 57, 71
4, 182160, Note_on_c, 3, 57, 72
4, 182278, Note_off_c, 3, 57, 72
4, 182640, Note_on_c, 3, 59, 72
4, 182734, Note_off_c, 3, 59, 72
4, 182880, Note_on_c, 3, 59, 64
4, 183014, Note_off_c, 3, 59, 64
4, 183120, Note_on_c, 3, 59, 71
4, 183246, Note_off_c, 3, 59, 71
4, 183520, Control_c, 3, 7, 124
4, 183580, Control_c, 3, 7, 123
4, 183600, Note_on_c, 3, 60, 71
4, 183640, Control_c, 3, 7, 121
4, 183718, Note_off_c, 3, 60, 71
4, 183720, Control_c, 3, 7, 120
4, 183800, Control_c, 3, 7, 118
4, 183840, Note_on_c, 3, 60, 73
4, 183880, Control_c, 3, 7, 117
4, 183950, Note_off_c, 3, 60, 73
4, 183960, Control_c, 3, 7, 115
4, 184060, Control_c, 3, 7, 114
4, 184080, Note_on_c, 3, 60, 69
4, 184100, Control_c, 3, 7, 112
4, 184160, Control_c, 3, 7, 111
4, 184214, Note_off_c, 3, 60, 69
4, 184240, Control_c, 3, 7, 110
4, 184460, Control_c, 3, 7, 108
4, 184520, Control_c, 3, 7, 107
4, 184560, Note_on_c, 3, 62, 66
4, 184600, Control_c, 3, 7, 105
4, 184670, Note_off_c, 3, 62, 66
4, 184740, Control_c, 3, 7, 104
4, 184800, Control_c, 3, 7, 102
4, 184800, Note_on_c, 3, 62, 66
4, 184820, Control_c, 3, 7, 101
4, 184860, Control_c, 3, 7, 99
4, 184900, Control_c, 3, 7, 98
4, 184950, Note_off_c, 3, 62, 66
4, 185040, Note_on_c, 3, 62, 69
4, 185198, Note_off_c, 3, 62, 69
4, 185520, Note_on_c, 3, 60, 72
4, 185662, Note_off_c, 3, 60, 72
4, 185760, Note_on_c, 3, 57, 64
4, 185878, Note_off_c, 3, 57, 64
4, 186000, Note_on_c, 3, 57, 66
4, 186134, Note_off_c, 3, 57, 66
4, 186240, Note_on_c, 3, 51, 78
4, 186462, Note_off_c, 3, 51, 78
4, 186720, Note_on_c, 3, 63, 71
4, 186880, Control_c, 3, 7, 98
4, 186949, Note_off_c, 3, 63, 71
4, 187200, Note_on_c, 3, 64, 75
4, 187340, Control_c, 3, 7, 99
4, 187470, Note_off_c, 3, 64, 75
4, 187520, Control_c, 3, 7, 101
4, 187600, Control_c, 3, 7, 102
4, 187640, Control_c, 3, 7, 104
4, 187680, Control_c, 3, 7, 105
4, 187680, Note_on_c, 3, 52, 77
4, 187840, Control_c, 3, 7, 107
4, 187900, Control_c, 3, 7, 108
4, 187917, Note_off_c, 3, 52, 77
4, 187960, Control_c, 3, 7, 110
4, 188020, Control_c, 3, 7, 111
4, 188060, Control_c, 3, 7, 112
4, 188160, Note_on_c, 3, 60, 113
4, 188200, Control_c, 3, 7, 114
4, 188214, Note_off_c, 3, 60, 113
4, 188280, Note_on_c, 3, 64, 127
4, 188350, Note_off_c, 3, 64, 127
4, 188400, Note_on_c, 3, 60, 125
4, 188470, Note_off_c, 3, 60, 125
4, 188520, Note_on_c, 3, 64, 127
4, 188574, Note_off_c, 3, 64, 127
4, 188620, Control_c, 3, 7, 115
4, 188640, Note_on_c, 3, 57, 127
4, 188870, Note_off_c, 3, 57, 127
4, 188880, Note_on_c, 3, 60, 81
4, 189022, Note_off_c, 3, 60, 81
4, 189120, Note_on_c, 3, 64, 82
4, 189214, Note_off_c, 3, 64, 82
4, 189360, Note_on_c, 3, 60, 77
4, 189478, Note_off_c, 3, 60, 77
4, 189600, Note_on_c, 3, 59, 74
4, 189702, Note_off_c, 3, 59, 74
4, 189840, Note_on_c, 3, 56, 72
4, 189950, Note_off_c, 3, 56, 72
4, 190080, Control_c, 3, 7, 117
4, 190120, Control_c, 3, 7, 118
4, 190160, Control_c, 3, 7, 120
4, 190240, Control_c, 3, 7, 121
4, 190320, Note_on_c, 3, 60, 82
4, 190430, Note_off_c, 3, 60, 82
4, 190500, Control_c, 3, 7, 123
4, 190560, Note_on_c, 3, 59, 76
4, 190694, Note_off_c, 3, 59, 76
4, 190800, Note_on_c, 3, 56, 72
4, 190878, Note_off_c, 3, 56, 72
4, 191160, Control_c, 3, 7, 124
4, 191280, Note_on_c, 3, 60, 77
4, 191374, Note_off_c, 3, 60, 77
4, 191520, Note_on_c, 3, 59, 74
4, 191638, Note_off_c, 3, 59, 74
4, 191760, Note_on_c, 3, 56, 71
4, 191830, Note_off_c, 3, 56, 71
4, 192000, Note_on_c, 3, 52, 85
4, 192614, Note_off_c, 3, 52, 85
4, 192720, Note_on_c, 3, 64, 83
4, 192846, Note_off_c, 3, 64, 83
4, 192960, Note_on_c, 3, 60, 87
4, 193054, Note_off_c, 3, 60, 87
4, 193200, Note_on_c, 3, 57, 80
4, 193294, Note_off_c, 3, 57, 80
4, 193680, Note_on_c, 3, 64, 80
4, 193806, Note_off_c, 3, 64, 80
4, 193920, Note_on_c, 3, 60, 82
4, 194006, Note_off_c, 3, 60, 82
4, 194160, Note_on_c, 3, 57, 75
4, 194254, Note_off_c, 3, 57, 75
4, 194640, Note_on_c, 3, 64, 81
4, 194750, Note_off_c, 3, 64, 81
4, 194880, Note_on_c, 3, 64, 76
4, 194974, Note_off_c, 3, 64, 76
4, 195120, Note_on_c, 3, 65, 76
4, 195206, Note_off_c, 3, 65, 76
4, 195360, Note_on_c, 3, 59, 76
4, 195486, Note_off_c, 3, 59, 76
4, 195600, Note_on_c, 3, 64, 77
4, 195670, Note_off_c, 3, 64, 77
4, 195840, Note_on_c, 3, 60, 87
4, 196037, Note_off_c, 3, 60, 87
4, 196560, Note_on_c, 3, 62, 86
4, 196678, Note_off_c, 3, 62, 86
4, 196800, Note_on_c, 3, 60, 90
4, 197013, Note_off_c, 3, 60, 90
4, 197520, Note_on_c, 3, 59, 76
4, 197662, Note_off_c, 3, 59, 76
4, 197760, Note_on_c, 3, 57, 81
4, 197854, Note_off_c, 3, 57, 81
4, 198000, Note_on_c, 3, 60, 84
4, 198142, Note_off_c, 3, 60, 84
4, 198240, Note_on_c, 3, 59, 82
4, 198334, Note_off_c, 3, 59, 82
4, 198480, Note_on_c, 3, 59, 86
4, 198558, Note_off_c, 3, 59, 86
4, 198720, Note_on_c, 3, 57, 86
4, 198822, Note_off_c, 3, 57, 86
4, 198960, Note_on_c, 3, 57, 83
4, 199094, Note_off_c, 3, 57, 83
4, 199200, Note_on_c, 3, 52, 78
4, 199334, Note_off_c, 3, 52, 78
4, 199440, Note_on_c, 3, 52, 90
4, 199518, Note_off_c, 3, 52, 90
4, 199740, Control_c, 3, 7, 124
4, 199808, Note_on_c, 3, 52, 86
4, 200100, Control_c, 3, 7, 123
4, 200120, Control_c, 3, 7, 121
4, 200140, Control_c, 3, 7, 120
4, 200240, Control_c, 3, 7, 118
4, 200260, Control_c, 3, 7, 117
4, 200320, Control_c, 3, 7, 115
4, 200340, Control_c, 3, 7, 114
4, 200360, Control_c, 3, 7, 112
4, 200380, Control_c, 3, 7, 111
4, 200420, Control_c, 3, 7, 110
4, 200460, Control_c, 3, 7, 108
4, 200500, Control_c, 3, 7, 107
4, 200520, Control_c, 3, 7, 105
4, 200540, Control_c, 3, 7, 104
4, 200580, Control_c, 3, 7, 102
4, 200600, Control_c, 3, 7, 101
4, 200620, Control_c, 3, 7, 99
4, 200660, Control_c, 3, 7, 98
4, 200680, Control_c, 3, 7, 97
4, 200700, Control_c, 3, 7, 95
4, 200720, Control_c, 3, 7, 94
4, 200760, Control_c, 3, 7, 92
4, 200780, Control_c, 3, 7, 91
4, 200780, Control_c, 3, 7, 89
4, 200800, Control_c, 3, 7, 88
4, 200820, Control_c, 3, 7, 86
4, 200840, Control_c, 3, 7, 85
4, 200880, Control_c, 3, 7, 84
4, 200880, Control_c, 3, 7, 82
4, 200920, Control_c, 3, 7, 81
4, 200940, Control_c, 3, 7, 79
4, 200940, Control_c, 3, 7, 78
4, 200960, Control_c, 3, 7, 76
4, 200980, Control_c, 3, 7, 75
4, 200980, Control_c, 3, 7, 73
4, 201000, Control_c, 3, 7, 72
4, 201020, Control_c, 3, 7, 71
4, 201020, Control_c, 3, 7, 69
4, 201040, Control_c, 3, 7, 68
4, 201060, Control_c, 3, 7, 66
4, 201080, Control_c, 3, 7, 65
4, 201120, Control_c, 3, 7, 63
4, 201120, Control_c, 3, 7, 60
4, 201140, Control_c, 3, 7, 59
4, 201180, Control_c, 3, 7, 58
4, 201180, Control_c, 3, 7, 56
4, 201200, Control_c, 3, 7, 55
4, 201220, Control_c, 3, 7, 53
4, 201260, Control_c, 3, 7, 52
4, 201300, Control_c, 3, 7, 50
4, 201340, Control_c, 3, 7, 49
4, 201360, Control_c, 3, 7, 48
4, 201380, Control_c, 3, 7, 46
4, 201400, Control_c, 3, 7, 45
4, 201420, Control_c, 3, 7, 42
4, 201420, Control_c, 3, 7, 40
4, 201440, Control_c, 3, 7, 39
4, 201480, Control_c, 3, 7, 37
4, 201500, Control_c, 3, 7, 36
4, 201520, Control_c, 3, 7, 35
4, 201560, Control_c, 3, 7, 33
4, 201580, Control_c, 3, 7, 32
4, 201600, Note_off_c, 3, 52, 86
4, 201600, End_track
5, 0, Start_track
5, 0, Title_t, "Continuo"
5, 0, Key_signature, 0, "major"
5, 145, Control_c, 4, 0, 0
5, 150, Control_c, 4, 32, 0
5, 155, Program_c, 4, 48
5, 160, Control_c, 4, 7, 110
5, 165, Control_c, 4, 10, 95
5, 170, Control_c, 4, 91, 127
5, 175, Control_c, 4, 101, 0
5, 180, Control_c, 4, 100, 0
5, 185, Control_c, 4, 6, 2
5, 11520, Note_on_c, 4, 33, 76
5, 11998, Note_off_c, 4, 33, 76
5, 12240, Note_on_c, 4, 45, 76
5, 12342, Note_off_c, 4, 45, 76
5, 12480, Note_on_c, 4, 33, 69
5, 12598, Note_off_c, 4, 33, 69
5, 12720, Note_on_c, 4, 45, 70
5, 12854, Note_off_c, 4, 45, 70
5, 12960, Note_on_c, 4, 44, 74
5, 13118, Note_off_c, 4, 44, 74
5, 13200, Note_on_c, 4, 40, 79
5, 13350, Note_off_c, 4, 40, 79
5, 13680, Note_on_c, 4, 45, 78
5, 13806, Note_off_c, 4, 45, 78
5, 13920, Note_on_c, 4, 44, 71
5, 14014, Note_off_c, 4, 44, 71
5, 14160, Note_on_c, 4, 40, 79
5, 14278, Note_off_c, 4, 40, 79
5, 14640, Note_on_c, 4, 45, 81
5, 14734, Note_off_c, 4, 45, 81
5, 14880, Note_on_c, 4, 44, 77
5, 14940, Control_c, 4, 7, 90
5, 15006, Note_off_c, 4, 44, 77
5, 15120, Note_on_c, 4, 40, 80
5, 15240, Control_c, 4, 7, 91
5, 15254, Note_off_c, 4, 40, 80
5, 15280, Control_c, 4, 7, 93
5, 15300, Control_c, 4, 7, 96
5, 15340, Control_c, 4, 7, 99
5, 15360, Control_c, 4, 7, 100
5, 15360, Note_on_c, 4, 33, 75
5, 15400, Control_c, 4, 7, 102
5, 15420, Control_c, 4, 7, 103
5, 15478, Note_off_c, 4, 33, 75
5, 15600, Note_on_c, 4, 45, 69
5, 15734, Note_off_c, 4, 45, 69
5, 15840, Note_on_c, 4, 33, 72
5, 15958, Note_off_c, 4, 33, 72
5, 16560, Note_on_c, 4, 45, 74
5, 16678, Note_off_c, 4, 45, 74
5, 16800, Note_on_c, 4, 33, 70
5, 16933, Note_off_c, 4, 33, 70
5, 17280, Control_c, 4, 7, 102
5, 17380, Control_c, 4, 7, 100
5, 17400, Control_c, 4, 7, 99
5, 17440, Control_c, 4, 7, 97
5, 17480, Control_c, 4, 7, 96
5, 17520, Control_c, 4, 7, 94
5, 17520, Note_on_c, 4, 45, 83
5, 17638, Note_off_c, 4, 45, 83
5, 17640, Note_on_c, 4, 44, 81
5, 17758, Note_off_c, 4, 44, 81
5, 17760, Note_on_c, 4, 45, 83
5, 17894, Note_off_c, 4, 45, 83
5, 18000, Note_on_c, 4, 33, 114
5, 18118, Note_off_c, 4, 33, 114
5, 18240, Note_on_c, 4, 40, 103
5, 18486, Note_off_c, 4, 40, 103
5, 25920, Note_on_c, 4, 33, 95
5, 26398, Note_off_c, 4, 33, 95
5, 26560, Control_c, 4, 7, 94
5, 26640, Note_on_c, 4, 45, 79
5, 26750, Note_off_c, 4, 45, 79
5, 26800, Control_c, 4, 7, 95
5, 26840, Control_c, 4, 7, 97
5, 26880, Note_on_c, 4, 33, 78
5, 26900, Control_c, 4, 7, 98
5, 26960, Control_c, 4, 7, 100
5, 27014, Note_off_c, 4, 33, 78
5, 27120, Note_on_c, 4, 45, 72
5, 27246, Note_off_c, 4, 45, 72
5, 27280, Control_c, 4, 7, 101
5, 27320, Control_c, 4, 7, 103
5, 27360, Control_c, 4, 7, 104
5, 27360, Note_on_c, 4, 44, 75
5, 27440, Control_c, 4, 7, 106
5, 27494, Note_off_c, 4, 44, 75
5, 27600, Note_on_c, 4, 40, 78
5, 27710, Note_off_c, 4, 40, 78
5, 27720, Control_c, 4, 7, 107
5, 27760, Control_c, 4, 7, 108
5, 27780, Control_c, 4, 7, 110
5, 27820, Control_c, 4, 7, 111
5, 28080, Note_on_c, 4, 45, 83
5, 28190, Note_off_c, 4, 45, 83
5, 28200, Control_c, 4, 7, 110
5, 28240, Control_c, 4, 7, 108
5, 28260, Control_c, 4, 7, 107
5, 28300, Control_c, 4, 7, 106
5, 28320, Control_c, 4, 7, 103
5, 28320, Note_on_c, 4, 44, 78
5, 28360, Control_c, 4, 7, 101
5, 28380, Control_c, 4, 7, 98
5, 28420, Control_c, 4, 7, 97
5, 28430, Note_off_c, 4, 44, 78
5, 28560, Note_on_c, 4, 40, 84
5, 28640, Control_c, 4, 7, 98
5, 28646, Note_off_c, 4, 40, 84
5, 28680, Control_c, 4, 7, 100
5, 28700, Control_c, 4, 7, 103
5, 28740, Control_c, 4, 7, 106
5, 28760, Control_c, 4, 7, 107
5, 28800, Control_c, 4, 7, 110
5, 28820, Control_c, 4, 7, 111
5, 29040, Note_on_c, 4, 45, 78
5, 29120, Control_c, 4, 7, 110
5, 29160, Control_c, 4, 7, 108
5, 29166, Note_off_c, 4, 45, 78
5, 29200, Control_c, 4, 7, 107
5, 29240, Control_c, 4, 7, 106
5, 29260, Control_c, 4, 7, 104
5, 29280, Note_on_c, 4, 44, 77
5, 29300, Control_c, 4, 7, 103
5, 29320, Control_c, 4, 7, 101
5, 29398, Note_off_c, 4, 44, 77
5, 29420, Control_c, 4, 7, 100
5, 29520, Note_on_c, 4, 40, 80
5, 29646, Note_off_c, 4, 40, 80
5, 29760, Note_on_c, 4, 33, 87
5, 29886, Note_off_c, 4, 33, 87
5, 30720, Note_on_c, 4, 33, 90
5, 30837, Note_off_c, 4, 33, 90
5, 31680, Note_on_c, 4, 33, 78
5, 31814, Note_off_c, 4, 33, 78
5, 31920, Note_on_c, 4, 45, 73
5, 32038, Note_off_c, 4, 45, 73
5, 32040, Note_on_c, 4, 44, 76
5, 32158, Note_off_c, 4, 44, 76
5, 32160, Note_on_c, 4, 45, 87
5, 32278, Note_off_c, 4, 45, 87
5, 32400, Note_on_c, 4, 33, 77
5, 32542, Note_off_c, 4, 33, 77
5, 32640, Note_on_c, 4, 40, 97
5, 32902, Note_off_c, 4, 40, 97
5, 41034, Note_on_c, 4, 40, 91
5, 41173, Note_off_c, 4, 40, 91
5, 41274, Note_on_c, 4, 45, 83
5, 41380, Note_off_c, 4, 45, 83
5, 41502, Note_on_c, 4, 33, 82
5, 41707, Note_off_c, 4, 33, 82
5, 41740, Control_c, 4, 7, 100
5, 41975, Note_on_c, 4, 33, 83
5, 42040, Control_c, 4, 7, 101
5, 42090, Note_off_c, 4, 33, 83
5, 42140, Control_c, 4, 7, 103
5, 42200, Control_c, 4, 7, 104
5, 42233, Note_on_c, 4, 38, 77
5, 42356, Note_off_c, 4, 38, 77
5, 42360, Control_c, 4, 7, 106
5, 42460, Control_c, 4, 7, 107
5, 42470, Note_on_c, 4, 26, 83
5, 42540, Control_c, 4, 7, 109
5, 42620, Control_c, 4, 7, 110
5, 42646, Note_off_c, 4, 26, 83
5, 42660, Control_c, 4, 7, 112
5, 42720, Control_c, 4, 7, 113
5, 42760, Control_c, 4, 7, 114
5, 42800, Control_c, 4, 7, 116
5, 42860, Control_c, 4, 7, 117
5, 42920, Control_c, 4, 7, 119
5, 42945, Note_on_c, 4, 38, 80
5, 43020, Control_c, 4, 7, 120
5, 43084, Note_off_c, 4, 38, 80
5, 43100, Control_c, 4, 7, 122
5, 43201, Note_on_c, 4, 43, 86
5, 43312, Note_off_c, 4, 43, 86
5, 43320, Control_c, 4, 7, 123
5, 43434, Note_on_c, 4, 31, 74
5, 43440, Control_c, 4, 7, 125
5, 43520, Control_c, 4, 7, 126
5, 43621, Note_off_c, 4, 31, 74
5, 43905, Note_on_c, 4, 31, 78
5, 44039, Note_off_c, 4, 31, 78
5, 44060, Control_c, 4, 7, 127
5, 44158, Note_on_c, 4, 36, 74
5, 44276, Note_off_c, 4, 36, 74
5, 44399, Note_on_c, 4, 24, 69
5, 44578, Note_off_c, 4, 24, 69
5, 44860, Control_c, 4, 7, 126
5, 44880, Note_on_c, 4, 36, 84
5, 45020, Control_c, 4, 7, 125
5, 45041, Note_off_c, 4, 36, 84
5, 45125, Note_on_c, 4, 41, 78
5, 45180, Control_c, 4, 7, 123
5, 45240, Control_c, 4, 7, 122
5, 45286, Note_off_c, 4, 41, 78
5, 45320, Control_c, 4, 7, 120
5, 45369, Note_on_c, 4, 29, 75
5, 45420, Control_c, 4, 7, 119
5, 45547, Note_off_c, 4, 29, 75
5, 45620, Control_c, 4, 7, 117
5, 45700, Control_c, 4, 7, 116
5, 45740, Control_c, 4, 7, 114
5, 45847, Note_on_c, 4, 41, 80
5, 45860, Control_c, 4, 7, 113
5, 45983, Note_off_c, 4, 41, 80
5, 46080, Control_c, 4, 7, 112
5, 46082, Note_on_c, 4, 35, 76
5, 46160, Control_c, 4, 7, 110
5, 46223, Note_off_c, 4, 35, 76
5, 46320, Control_c, 4, 7, 109
5, 46325, Note_on_c, 4, 47, 76
5, 46499, Note_off_c, 4, 47, 76
5, 46560, Control_c, 4, 7, 107
5, 46720, Control_c, 4, 7, 106
5, 46809, Note_on_c, 4, 35, 80
5, 46929, Note_off_c, 4, 35, 80
5, 46960, Control_c, 4, 7, 104
5, 47020, Control_c, 4, 7, 103
5, 47053, Note_on_c, 4, 40, 77
5, 47161, Note_off_c, 4, 40, 77
5, 47240, Control_c, 4, 7, 101
5, 47286, Note_on_c, 4, 28, 77
5, 47432, Note_off_c, 4, 28, 77
5, 47580, Control_c, 4, 7, 100
5, 47755, Note_on_c, 4, 40, 85
5, 47780, Control_c, 4, 7, 99
5, 47863, Note_off_c, 4, 40, 85
5, 47900, Control_c, 4, 7, 97
5, 48008, Note_on_c, 4, 45, 82
5, 48020, Control_c, 4, 7, 96
5, 48121, Note_off_c, 4, 45, 82
5, 48266, Note_on_c, 4, 33, 78
5, 48345, Note_off_c, 4, 33, 78
5, 48379, Note_on_c, 4, 35, 66
5, 48437, Note_off_c, 4, 35, 66
5, 48508, Note_on_c, 4, 36, 73
5, 48637, Note_off_c, 4, 36, 73
5, 48725, Note_on_c, 4, 33, 80
5, 48797, Note_off_c, 4, 33, 80
5, 48978, Note_on_c, 4, 28, 72
5, 49186, Note_off_c, 4, 28, 72
5, 49201, Note_on_c, 4, 40, 79
5, 49267, Note_off_c, 4, 40, 79
5, 49436, Note_on_c, 4, 36, 80
5, 49531, Note_off_c, 4, 36, 80
5, 49600, Control_c, 4, 7, 96
5, 49677, Note_on_c, 4, 33, 73
5, 49772, Note_off_c, 4, 33, 73
5, 49860, Control_c, 4, 7, 97
5, 49880, Control_c, 4, 7, 100
5, 50153, Note_on_c, 4, 40, 86
5, 50268, Note_off_c, 4, 40, 86
5, 50390, Note_on_c, 4, 36, 76
5, 50499, Note_off_c, 4, 36, 76
5, 50627, Note_on_c, 4, 33, 76
5, 50720, Control_c, 4, 7, 102
5, 50731, Note_off_c, 4, 33, 76
5, 50960, Control_c, 4, 7, 103
5, 51110, Note_on_c, 4, 40, 80
5, 51200, Control_c, 4, 7, 105
5, 51221, Note_off_c, 4, 40, 80
5, 51359, Note_on_c, 4, 36, 76
5, 51439, Note_off_c, 4, 36, 76
5, 51440, Control_c, 4, 7, 106
5, 51605, Note_on_c, 4, 33, 81
5, 51660, Control_c, 4, 7, 108
5, 51740, Note_off_c, 4, 33, 81
5, 51820, Control_c, 4, 7, 109
5, 51840, Control_c, 4, 7, 110
5, 52000, Control_c, 4, 7, 112
5, 52020, Control_c, 4, 7, 113
5, 52075, Note_on_c, 4, 45, 80
5, 52202, Note_off_c, 4, 45, 80
5, 52318, Note_on_c, 4, 33, 80
5, 52780, Control_c, 4, 7, 115
5, 52840, Note_off_c, 4, 33, 80
5, 53023, Note_on_c, 4, 45, 77
5, 53126, Note_off_c, 4, 45, 77
5, 53180, Control_c, 4, 7, 116
5, 53200, Control_c, 4, 7, 118
5, 53291, Note_on_c, 4, 33, 76
5, 53500, Control_c, 4, 7, 119
5, 53540, Control_c, 4, 7, 121
5, 53580, Control_c, 4, 7, 122
5, 53600, Control_c, 4, 7, 123
5, 53660, Control_c, 4, 7, 125
5, 53700, Control_c, 4, 7, 126
5, 53750, Note_off_c, 4, 33, 76
5, 53760, Control_c, 4, 7, 127
5, 53975, Note_on_c, 4, 45, 79
5, 54120, Note_off_c, 4, 45, 79
5, 54223, Note_on_c, 4, 44, 77
5, 54359, Note_off_c, 4, 44, 77
5, 54479, Note_on_c, 4, 40, 79
5, 54554, Note_off_c, 4, 40, 79
5, 54717, Note_on_c, 4, 33, 71
5, 54857, Note_off_c, 4, 33, 71
5, 54942, Note_on_c, 4, 38, 79
5, 55086, Note_off_c, 4, 38, 79
5, 55190, Note_on_c, 4, 40, 80
5, 55324, Note_off_c, 4, 40, 80
5, 55434, Note_on_c, 4, 28, 70
5, 55517, Note_off_c, 4, 28, 70
5, 55520, Control_c, 4, 7, 126
5, 55560, Control_c, 4, 7, 125
5, 55660, Control_c, 4, 7, 123
5, 55681, Note_on_c, 4, 33, 79
5, 55700, Control_c, 4, 7, 122
5, 55740, Control_c, 4, 7, 121
5, 55780, Control_c, 4, 7, 119
5, 55860, Control_c, 4, 7, 118
5, 56020, Control_c, 4, 7, 116
5, 56100, Control_c, 4, 7, 115
5, 56140, Control_c, 4, 7, 113
5, 56179, Note_off_c, 4, 33, 79
5, 56280, Control_c, 4, 7, 112
5, 56320, Control_c, 4, 7, 110
5, 56360, Control_c, 4, 7, 109
5, 56520, Control_c, 4, 7, 108
5, 56634, Note_on_c, 4, 33, 44
5, 56720, Control_c, 4, 7, 106
5, 57127, Note_off_c, 4, 33, 44
5, 57591, Note_on_c, 4, 33, 54
5, 57920, Control_c, 4, 7, 105
5, 58060, Control_c, 4, 7, 103
5, 58111, Note_off_c, 4, 33, 54
5, 58180, Control_c, 4, 7, 102
5, 58320, Control_c, 4, 7, 100
5, 58360, Control_c, 4, 7, 99
5, 58420, Control_c, 4, 7, 97
5, 58570, Note_on_c, 4, 33, 58
5, 58860, Control_c, 4, 7, 96
5, 59048, Note_off_c, 4, 33, 58
5, 59260, Control_c, 4, 7, 95
5, 59504, Note_on_c, 4, 33, 49
5, 59800, Control_c, 4, 7, 93
5, 60029, Note_off_c, 4, 33, 49
5, 60140, Control_c, 4, 7, 95
5, 60462, Note_on_c, 4, 33, 57
5, 60939, Note_off_c, 4, 33, 57
5, 71640, Control_c, 4, 7, 95
5, 72100, Control_c, 4, 7, 96
5, 72160, Control_c, 4, 7, 98
5, 72240, Control_c, 4, 7, 99
5, 72320, Control_c, 4, 7, 101
5, 72420, Control_c, 4, 7, 102
5, 72460, Control_c, 4, 7, 104
5, 72480, Control_c, 4, 7, 105
5, 72540, Control_c, 4, 7, 107
5, 72580, Control_c, 4, 7, 108
5, 72620, Control_c, 4, 7, 109
5, 72640, Control_c, 4, 7, 111
5, 72680, Control_c, 4, 7, 112
5, 72700, Control_c, 4, 7, 114
5, 72740, Control_c, 4, 7, 115
5, 72760, Control_c, 4, 7, 117
5, 72800, Control_c, 4, 7, 118
5, 72820, Control_c, 4, 7, 120
5, 72860, Control_c, 4, 7, 121
5, 72880, Control_c, 4, 7, 122
5, 72960, Note_on_c, 4, 43, 107
5, 73020, Control_c, 4, 7, 124
5, 73104, Note_off_c, 4, 43, 107
5, 73200, Note_on_c, 4, 31, 111
5, 73302, Note_off_c, 4, 31, 111
5, 73320, Note_on_c, 4, 33, 111
5, 73407, Note_off_c, 4, 33, 111
5, 73440, Note_on_c, 4, 35, 108
5, 73576, Note_off_c, 4, 35, 108
5, 73680, Note_on_c, 4, 31, 108
5, 73816, Note_off_c, 4, 31, 108
5, 73920, Note_on_c, 4, 36, 112
5, 74056, Note_off_c, 4, 36, 112
5, 74160, Note_on_c, 4, 48, 98
5, 74312, Note_off_c, 4, 48, 98
5, 74400, Note_on_c, 4, 47, 92
5, 74513, Note_off_c, 4, 47, 92
5, 74640, Note_on_c, 4, 43, 99
5, 74792, Note_off_c, 4, 43, 99
5, 75120, Note_on_c, 4, 48, 96
5, 75256, Note_off_c, 4, 48, 96
5, 75360, Note_on_c, 4, 47, 98
5, 75512, Note_off_c, 4, 47, 98
5, 75600, Note_on_c, 4, 43, 101
5, 75744, Note_off_c, 4, 43, 101
5, 76080, Note_on_c, 4, 48, 102
5, 76224, Note_off_c, 4, 48, 102
5, 76320, Note_on_c, 4, 47, 96
5, 76425, Note_off_c, 4, 47, 96
5, 76560, Note_on_c, 4, 43, 96
5, 76704, Note_off_c, 4, 43, 96
5, 76800, Note_on_c, 4, 36, 99
5, 77207, Note_off_c, 4, 36, 99
5, 77760, Note_on_c, 4, 36, 102
5, 78128, Note_off_c, 4, 36, 102
5, 78720, Note_on_c, 4, 36, 91
5, 78848, Note_off_c, 4, 36, 91
5, 78960, Note_on_c, 4, 48, 95
5, 79078, Note_off_c, 4, 48, 95
5, 79080, Note_on_c, 4, 47, 95
5, 79198, Note_off_c, 4, 47, 95
5, 79200, Note_on_c, 4, 48, 96
5, 79220, Control_c, 4, 7, 124
5, 79320, Note_off_c, 4, 48, 96
5, 79440, Note_on_c, 4, 36, 94
5, 79520, Control_c, 4, 7, 123
5, 79592, Note_off_c, 4, 36, 94
5, 79600, Control_c, 4, 7, 121
5, 79660, Control_c, 4, 7, 120
5, 79680, Note_on_c, 4, 43, 118
5, 79840, Control_c, 4, 7, 118
5, 79940, Control_c, 4, 7, 117
5, 80000, Control_c, 4, 7, 115
5, 80040, Control_c, 4, 7, 114
5, 80080, Control_c, 4, 7, 112
5, 80140, Control_c, 4, 7, 111
5, 80158, Note_off_c, 4, 43, 118
5, 80260, Control_c, 4, 7, 110
5, 80300, Control_c, 4, 7, 108
5, 80500, Control_c, 4, 7, 107
5, 80700, Control_c, 4, 7, 105
5, 80760, Control_c, 4, 7, 104
5, 81100, Control_c, 4, 7, 102
5, 81240, Control_c, 4, 7, 101
5, 81660, Control_c, 4, 7, 99
5, 82180, Control_c, 4, 7, 98
5, 82240, Control_c, 4, 7, 97
5, 83040, Control_c, 4, 7, 95
5, 86880, Note_on_c, 4, 43, 75
5, 87358, Note_off_c, 4, 43, 75
5, 87840, Note_on_c, 4, 45, 73
5, 88318, Note_off_c, 4, 45, 73
5, 88620, Control_c, 4, 7, 95
5, 88740, Control_c, 4, 7, 96
5, 88800, Control_c, 4, 7, 98
5, 88800, Note_on_c, 4, 45, 69
5, 88840, Control_c, 4, 7, 99
5, 89278, Note_off_c, 4, 45, 69
5, 89420, Control_c, 4, 7, 101
5, 89460, Control_c, 4, 7, 102
5, 89560, Control_c, 4, 7, 104
5, 89640, Control_c, 4, 7, 105
5, 89720, Control_c, 4, 7, 107
5, 89760, Control_c, 4, 7, 108
5, 89760, Note_on_c, 4, 47, 72
5, 89920, Control_c, 4, 7, 109
5, 90238, Note_off_c, 4, 47, 72
5, 90720, Note_on_c, 4, 47, 72
5, 90740, Control_c, 4, 7, 111
5, 90800, Control_c, 4, 7, 112
5, 91198, Note_off_c, 4, 47, 72
5, 91340, Control_c, 4, 7, 114
5, 91420, Control_c, 4, 7, 115
5, 91680, Note_on_c, 4, 48, 78
5, 91780, Control_c, 4, 7, 117
5, 92000, Control_c, 4, 7, 118
5, 92040, Control_c, 4, 7, 120
5, 92158, Note_off_c, 4, 48, 78
5, 92160, Control_c, 4, 7, 121
5, 92300, Control_c, 4, 7, 122
5, 92480, Control_c, 4, 7, 124
5, 92920, Control_c, 4, 7, 125
5, 93000, Control_c, 4, 7, 127
5, 97320, Control_c, 4, 7, 127
5, 97640, Control_c, 4, 7, 126
5, 97680, Control_c, 4, 7, 124
5, 97720, Control_c, 4, 7, 123
5, 97780, Control_c, 4, 7, 121
5, 97860, Control_c, 4, 7, 120
5, 97900, Control_c, 4, 7, 118
5, 97940, Control_c, 4, 7, 117
5, 98020, Control_c, 4, 7, 115
5, 98080, Control_c, 4, 7, 114
5, 98140, Control_c, 4, 7, 113
5, 98180, Control_c, 4, 7, 111
5, 98260, Control_c, 4, 7, 110
5, 98300, Control_c, 4, 7, 108
5, 98340, Control_c, 4, 7, 107
5, 98380, Control_c, 4, 7, 105
5, 98480, Control_c, 4, 7, 104
5, 98560, Control_c, 4, 7, 102
5, 98680, Control_c, 4, 7, 101
5, 98740, Control_c, 4, 7, 100
5, 98880, Control_c, 4, 7, 98
5, 98940, Control_c, 4, 7, 97
5, 99060, Control_c, 4, 7, 95
5, 99160, Control_c, 4, 7, 94
5, 99380, Control_c, 4, 7, 92
5, 99440, Control_c, 4, 7, 91
5, 99540, Control_c, 4, 7, 89
5, 99700, Control_c, 4, 7, 88
5, 100000, Control_c, 4, 7, 87
5, 103840, Control_c, 4, 7, 87
5, 103980, Control_c, 4, 7, 86
5, 104060, Control_c, 4, 7, 84
5, 104120, Control_c, 4, 7, 83
5, 104200, Control_c, 4, 7, 81
5, 104220, Control_c, 4, 7, 80
5, 104300, Control_c, 4, 7, 78
5, 104320, Control_c, 4, 7, 77
5, 104400, Control_c, 4, 7, 75
5, 104420, Control_c, 4, 7, 74
5, 104460, Control_c, 4, 7, 73
5, 104520, Control_c, 4, 7, 71
5, 104560, Control_c, 4, 7, 70
5, 104640, Note_on_c, 4, 28, 77
5, 104740, Control_c, 4, 7, 68
5, 104878, Note_off_c, 4, 28, 77
5, 104880, Note_on_c, 4, 28, 71
5, 105118, Note_off_c, 4, 28, 71
5, 105120, Note_on_c, 4, 31, 68
5, 105217, Note_off_c, 4, 31, 68
5, 105360, Note_on_c, 4, 31, 71
5, 105473, Note_off_c, 4, 31, 71
5, 105600, Note_on_c, 4, 33, 77
5, 105700, Control_c, 4, 7, 70
5, 105744, Note_off_c, 4, 33, 77
5, 105800, Control_c, 4, 7, 71
5, 105840, Note_on_c, 4, 33, 80
5, 105920, Control_c, 4, 7, 73
5, 105960, Note_off_c, 4, 33, 80
5, 105980, Control_c, 4, 7, 74
5, 106080, Note_on_c, 4, 33, 77
5, 106140, Control_c, 4, 7, 75
5, 106224, Note_off_c, 4, 33, 77
5, 106320, Note_on_c, 4, 33, 78
5, 106400, Control_c, 4, 7, 77
5, 106448, Note_off_c, 4, 33, 78
5, 106540, Control_c, 4, 7, 78
5, 106560, Note_on_c, 4, 34, 76
5, 106688, Note_off_c, 4, 34, 76
5, 106720, Control_c, 4, 7, 80
5, 106800, Note_on_c, 4, 34, 75
5, 106820, Control_c, 4, 7, 81
5, 106952, Note_off_c, 4, 34, 75
5, 107040, Control_c, 4, 7, 83
5, 107040, Note_on_c, 4, 34, 74
5, 107168, Note_off_c, 4, 34, 74
5, 107180, Control_c, 4, 7, 84
5, 107260, Control_c, 4, 7, 86
5, 107280, Note_on_c, 4, 34, 74
5, 107400, Control_c, 4, 7, 87
5, 107424, Note_off_c, 4, 34, 74
5, 107520, Note_on_c, 4, 35, 67
5, 107672, Note_off_c, 4, 35, 67
5, 107760, Note_on_c, 4, 35, 64
5, 107820, Control_c, 4, 7, 88
5, 107904, Note_off_c, 4, 35, 64
5, 107920, Control_c, 4, 7, 90
5, 108000, Note_on_c, 4, 35, 62
5, 108020, Control_c, 4, 7, 91
5, 108144, Note_off_c, 4, 35, 62
5, 108240, Note_on_c, 4, 35, 63
5, 108300, Control_c, 4, 7, 93
5, 108368, Note_off_c, 4, 35, 63
5, 108480, Note_on_c, 4, 35, 62
5, 108520, Control_c, 4, 7, 94
5, 108624, Note_off_c, 4, 35, 62
5, 108660, Control_c, 4, 7, 96
5, 108720, Note_on_c, 4, 35, 59
5, 108848, Note_off_c, 4, 35, 59
5, 108960, Note_on_c, 4, 35, 60
5, 108980, Control_c, 4, 7, 97
5, 109096, Note_off_c, 4, 35, 60
5, 109160, Control_c, 4, 7, 99
5, 109200, Note_on_c, 4, 35, 58
5, 109340, Control_c, 4, 7, 100
5, 109344, Note_off_c, 4, 35, 58
5, 109440, Note_on_c, 4, 36, 73
5, 109520, Control_c, 4, 7, 101
5, 109584, Note_off_c, 4, 36, 73
5, 109600, Control_c, 4, 7, 103
5, 109680, Note_on_c, 4, 36, 72
5, 109700, Control_c, 4, 7, 104
5, 109832, Note_off_c, 4, 36, 72
5, 109920, Note_on_c, 4, 36, 68
5, 109940, Control_c, 4, 7, 106
5, 110025, Note_off_c, 4, 36, 68
5, 110100, Control_c, 4, 7, 107
5, 110160, Note_on_c, 4, 36, 68
5, 110240, Control_c, 4, 7, 109
5, 110296, Note_off_c, 4, 36, 68
5, 110340, Control_c, 4, 7, 110
5, 110400, Note_on_c, 4, 36, 71
5, 110520, Control_c, 4, 7, 112
5, 110544, Note_off_c, 4, 36, 71
5, 110640, Note_on_c, 4, 36, 70
5, 110784, Note_off_c, 4, 36, 70
5, 110880, Control_c, 4, 7, 113
5, 110880, Note_on_c, 4, 36, 74
5, 110960, Control_c, 4, 7, 114
5, 111024, Note_off_c, 4, 36, 74
5, 111060, Control_c, 4, 7, 116
5, 111120, Note_on_c, 4, 36, 68
5, 111220, Control_c, 4, 7, 117
5, 111280, Note_off_c, 4, 36, 68
5, 111360, Note_on_c, 4, 35, 69
5, 111400, Control_c, 4, 7, 119
5, 111480, Control_c, 4, 7, 120
5, 111480, Note_off_c, 4, 35, 69
5, 111580, Control_c, 4, 7, 122
5, 111600, Note_on_c, 4, 35, 70
5, 111700, Control_c, 4, 7, 123
5, 111720, Note_off_c, 4, 35, 70
5, 111840, Control_c, 4, 7, 125
5, 111840, Note_on_c, 4, 35, 62
5, 111880, Control_c, 4, 7, 126
5, 111960, Note_off_c, 4, 35, 62
5, 112040, Control_c, 4, 7, 127
5, 112080, Note_on_c, 4, 35, 66
5, 112216, Note_off_c, 4, 35, 66
5, 112320, Note_on_c, 4, 35, 84
5, 112464, Note_off_c, 4, 35, 84
5, 112560, Note_on_c, 4, 35, 83
5, 112688, Note_off_c, 4, 35, 83
5, 112800, Note_on_c, 4, 35, 83
5, 112889, Note_off_c, 4, 35, 83
5, 113040, Note_on_c, 4, 35, 86
5, 113160, Note_off_c, 4, 35, 86
5, 113240, Control_c, 4, 7, 126
5, 113280, Control_c, 4, 7, 125
5, 113280, Note_on_c, 4, 35, 83
5, 113320, Control_c, 4, 7, 123
5, 113400, Control_c, 4, 7, 122
5, 113424, Note_off_c, 4, 35, 83
5, 113440, Control_c, 4, 7, 120
5, 113520, Note_on_c, 4, 35, 84
5, 113640, Control_c, 4, 7, 119
5, 113672, Note_off_c, 4, 35, 84
5, 113700, Control_c, 4, 7, 117
5, 113760, Note_on_c, 4, 35, 80
5, 113840, Control_c, 4, 7, 116
5, 113900, Control_c, 4, 7, 114
5, 113904, Note_off_c, 4, 35, 80
5, 113960, Control_c, 4, 7, 113
5, 114000, Note_on_c, 4, 35, 78
5, 114060, Control_c, 4, 7, 112
5, 114128, Note_off_c, 4, 35, 78
5, 114220, Control_c, 4, 7, 110
5, 114240, Note_on_c, 4, 35, 88
5, 114280, Control_c, 4, 7, 109
5, 114353, Note_off_c, 4, 35, 88
5, 114360, Control_c, 4, 7, 107
5, 114440, Control_c, 4, 7, 106
5, 114480, Note_on_c, 4, 35, 88
5, 114500, Control_c, 4, 7, 104
5, 114608, Note_off_c, 4, 35, 88
5, 114620, Control_c, 4, 7, 103
5, 114700, Control_c, 4, 7, 101
5, 114720, Note_on_c, 4, 35, 84
5, 114840, Control_c, 4, 7, 100
5, 114864, Note_off_c, 4, 35, 84
5, 114960, Note_on_c, 4, 35, 79
5, 115104, Note_off_c, 4, 35, 79
5, 115200, Note_on_c, 4, 40, 89
5, 115571, Note_off_c, 4, 40, 89
5, 115860, Control_c, 4, 7, 99
5, 116040, Control_c, 4, 7, 97
5, 116140, Control_c, 4, 7, 96
5, 116260, Control_c, 4, 7, 94
5, 116420, Control_c, 4, 7, 93
5, 116780, Control_c, 4, 7, 91
5, 116820, Control_c, 4, 7, 90
5, 118800, Note_on_c, 4, 31, 61
5, 118928, Note_off_c, 4, 31, 61
5, 119040, Note_on_c, 4, 36, 51
5, 119278, Note_off_c, 4, 36, 51
5, 120720, Note_on_c, 4, 28, 76
5, 120825, Note_off_c, 4, 28, 76
5, 120960, Note_on_c, 4, 33, 59
5, 121438, Note_off_c, 4, 33, 59
5, 121680, Note_on_c, 4, 42, 58
5, 121824, Note_off_c, 4, 42, 58
5, 121920, Note_on_c, 4, 43, 64
5, 122120, Control_c, 4, 7, 90
5, 122252, Note_off_c, 4, 43, 64
5, 122320, Control_c, 4, 7, 91
5, 122340, Control_c, 4, 7, 93
5, 122380, Control_c, 4, 7, 94
5, 122640, Note_on_c, 4, 40, 73
5, 122660, Control_c, 4, 7, 96
5, 122720, Control_c, 4, 7, 97
5, 122776, Note_off_c, 4, 40, 73
5, 122780, Control_c, 4, 7, 99
5, 122880, Note_on_c, 4, 41, 69
5, 122960, Control_c, 4, 7, 100
5, 123228, Note_off_c, 4, 41, 69
5, 123600, Note_on_c, 4, 38, 69
5, 123640, Control_c, 4, 7, 102
5, 123680, Control_c, 4, 7, 103
5, 123744, Note_off_c, 4, 38, 69
5, 123800, Control_c, 4, 7, 104
5, 123840, Note_on_c, 4, 40, 65
5, 123940, Control_c, 4, 7, 106
5, 124133, Note_off_c, 4, 40, 65
5, 124560, Note_on_c, 4, 37, 58
5, 124696, Note_off_c, 4, 37, 58
5, 124800, Note_on_c, 4, 38, 66
5, 125101, Note_off_c, 4, 38, 66
5, 125400, Control_c, 4, 7, 104
5, 125440, Control_c, 4, 7, 103
5, 125480, Control_c, 4, 7, 102
5, 125540, Control_c, 4, 7, 100
5, 125600, Control_c, 4, 7, 99
5, 125680, Control_c, 4, 7, 97
5, 125760, Control_c, 4, 7, 96
5, 125980, Control_c, 4, 7, 94
5, 126080, Control_c, 4, 7, 93
5, 126140, Control_c, 4, 7, 91
5, 126240, Control_c, 4, 7, 90
5, 126360, Control_c, 4, 7, 89
5, 126540, Control_c, 4, 7, 87
5, 127440, Note_on_c, 4, 28, 49
5, 127568, Note_off_c, 4, 28, 49
5, 127680, Note_on_c, 4, 33, 57
5, 127918, Note_off_c, 4, 33, 57
5, 133200, Note_on_c, 4, 40, 62
5, 133344, Note_off_c, 4, 40, 62
5, 133440, Note_on_c, 4, 45, 49
5, 133576, Note_off_c, 4, 45, 49
5, 133680, Note_on_c, 4, 33, 57
5, 133740, Control_c, 4, 7, 87
5, 133808, Note_off_c, 4, 33, 57
5, 134040, Control_c, 4, 7, 88
5, 134140, Control_c, 4, 7, 90
5, 134160, Note_on_c, 4, 33, 64
5, 134280, Note_off_c, 4, 33, 64
5, 134400, Note_on_c, 4, 38, 63
5, 134420, Control_c, 4, 7, 91
5, 134489, Note_off_c, 4, 38, 63
5, 134500, Control_c, 4, 7, 93
5, 134540, Control_c, 4, 7, 94
5, 134640, Note_on_c, 4, 26, 69
5, 134680, Control_c, 4, 7, 96
5, 134737, Note_off_c, 4, 26, 69
5, 134780, Control_c, 4, 7, 97
5, 134860, Control_c, 4, 7, 99
5, 135000, Control_c, 4, 7, 100
5, 135120, Note_on_c, 4, 38, 64
5, 135140, Control_c, 4, 7, 101
5, 135256, Note_off_c, 4, 38, 64
5, 135260, Control_c, 4, 7, 103
5, 135360, Note_on_c, 4, 43, 71
5, 135400, Control_c, 4, 7, 104
5, 135473, Note_off_c, 4, 43, 71
5, 135480, Control_c, 4, 7, 106
5, 135600, Note_on_c, 4, 31, 70
5, 135640, Control_c, 4, 7, 107
5, 135740, Control_c, 4, 7, 109
5, 135752, Note_off_c, 4, 31, 70
5, 135800, Control_c, 4, 7, 110
5, 135900, Control_c, 4, 7, 112
5, 136080, Note_on_c, 4, 31, 65
5, 136100, Control_c, 4, 7, 113
5, 136185, Note_off_c, 4, 31, 65
5, 136320, Note_on_c, 4, 36, 71
5, 136440, Note_off_c, 4, 36, 71
5, 136480, Control_c, 4, 7, 114
5, 136560, Note_on_c, 4, 24, 71
5, 136704, Note_off_c, 4, 24, 71
5, 136720, Control_c, 4, 7, 116
5, 136980, Control_c, 4, 7, 117
5, 137040, Note_on_c, 4, 36, 63
5, 137060, Control_c, 4, 7, 119
5, 137140, Control_c, 4, 7, 120
5, 137176, Note_off_c, 4, 36, 63
5, 137280, Note_on_c, 4, 41, 74
5, 137385, Note_off_c, 4, 41, 74
5, 137520, Note_on_c, 4, 29, 67
5, 137600, Control_c, 4, 7, 122
5, 137633, Note_off_c, 4, 29, 67
5, 137760, Control_c, 4, 7, 123
5, 137880, Control_c, 4, 7, 125
5, 137940, Control_c, 4, 7, 126
5, 138000, Note_on_c, 4, 41, 65
5, 138120, Note_off_c, 4, 41, 65
5, 138140, Control_c, 4, 7, 127
5, 138240, Note_on_c, 4, 35, 66
5, 138376, Note_off_c, 4, 35, 66
5, 138480, Note_on_c, 4, 47, 69
5, 138593, Note_off_c, 4, 47, 69
5, 138960, Note_on_c, 4, 35, 62
5, 139088, Note_off_c, 4, 35, 62
5, 139200, Note_on_c, 4, 40, 73
5, 139305, Note_off_c, 4, 40, 73
5, 139440, Note_on_c, 4, 28, 75
5, 139545, Note_off_c, 4, 28, 75
5, 139920, Note_on_c, 4, 28, 70
5, 140048, Note_off_c, 4, 28, 70
5, 140120, Control_c, 4, 7, 126
5, 140160, Note_on_c, 4, 33, 72
5, 140400, Control_c, 4, 7, 125
5, 140500, Control_c, 4, 7, 123
5, 140560, Control_c, 4, 7, 122
5, 140560, Note_off_c, 4, 33, 72
5, 140860, Control_c, 4, 7, 120
5, 141840, Note_on_c, 4, 45, 50
5, 141860, Control_c, 4, 7, 122
5, 141900, Control_c, 4, 7, 123
5, 141920, Control_c, 4, 7, 125
5, 141960, Note_off_c, 4, 45, 50
5, 142080, Note_on_c, 4, 50, 63
5, 142206, Note_off_c, 4, 50, 63
5, 142320, Note_on_c, 4, 38, 67
5, 142430, Note_off_c, 4, 38, 67
5, 142720, Control_c, 4, 7, 123
5, 142780, Control_c, 4, 7, 122
5, 142840, Control_c, 4, 7, 120
5, 142940, Control_c, 4, 7, 119
5, 143060, Control_c, 4, 7, 117
5, 143280, Control_c, 4, 7, 116
5, 143420, Control_c, 4, 7, 114
5, 143760, Note_on_c, 4, 38, 45
5, 143886, Note_off_c, 4, 38, 45
5, 144000, Note_on_c, 4, 43, 79
5, 144118, Note_off_c, 4, 43, 79
5, 144240, Note_on_c, 4, 31, 66
5, 144358, Note_off_c, 4, 31, 66
5, 144780, Control_c, 4, 7, 113
5, 144820, Control_c, 4, 7, 112
5, 145000, Control_c, 4, 7, 110
5, 145080, Control_c, 4, 7, 109
5, 145220, Control_c, 4, 7, 107
5, 145360, Control_c, 4, 7, 106
5, 145440, Control_c, 4, 7, 104
5, 145540, Control_c, 4, 7, 103
5, 145680, Note_on_c, 4, 31, 73
5, 145830, Note_off_c, 4, 31, 73
5, 145920, Note_on_c, 4, 36, 76
5, 146054, Note_off_c, 4, 36, 76
5, 146160, Note_on_c, 4, 24, 100
5, 146326, Note_off_c, 4, 24, 100
5, 146760, Control_c, 4, 7, 101
5, 146980, Control_c, 4, 7, 100
5, 147120, Control_c, 4, 7, 99
5, 147520, Control_c, 4, 7, 97
5, 147600, Note_on_c, 4, 36, 83
5, 147718, Note_off_c, 4, 36, 83
5, 147840, Note_on_c, 4, 41, 80
5, 147974, Note_off_c, 4, 41, 80
5, 148080, Control_c, 4, 7, 96
5, 148080, Note_on_c, 4, 29, 74
5, 148214, Note_off_c, 4, 29, 74
5, 149520, Note_on_c, 4, 38, 84
5, 149638, Note_off_c, 4, 38, 84
5, 149760, Note_on_c, 4, 43, 84
5, 149886, Note_off_c, 4, 43, 84
5, 150000, Control_c, 4, 7, 94
5, 150000, Note_on_c, 4, 31, 72
5, 150118, Note_off_c, 4, 31, 72
5, 151440, Note_on_c, 4, 40, 80
5, 151558, Note_off_c, 4, 40, 80
5, 151680, Note_on_c, 4, 45, 76
5, 151814, Note_off_c, 4, 45, 76
5, 151920, Note_on_c, 4, 33, 79
5, 152022, Note_off_c, 4, 33, 79
5, 153360, Note_on_c, 4, 45, 80
5, 153470, Note_off_c, 4, 45, 80
5, 153600, Note_on_c, 4, 38, 85
5, 153710, Note_off_c, 4, 38, 85
5, 153840, Note_on_c, 4, 43, 83
5, 153958, Note_off_c, 4, 43, 83
5, 154220, Control_c, 4, 7, 94
5, 154680, Control_c, 4, 7, 95
5, 154800, Control_c, 4, 7, 97
5, 154900, Control_c, 4, 7, 98
5, 154960, Control_c, 4, 7, 100
5, 155000, Control_c, 4, 7, 101
5, 155060, Control_c, 4, 7, 103
5, 155200, Control_c, 4, 7, 104
5, 155280, Note_on_c, 4, 43, 85
5, 155300, Control_c, 4, 7, 106
5, 155390, Note_off_c, 4, 43, 85
5, 155420, Control_c, 4, 7, 107
5, 155520, Note_on_c, 4, 36, 99
5, 155622, Note_off_c, 4, 36, 99
5, 155760, Note_on_c, 4, 41, 85
5, 155878, Note_off_c, 4, 41, 85
5, 155880, Control_c, 4, 7, 108
5, 156140, Control_c, 4, 7, 110
5, 156180, Control_c, 4, 7, 111
5, 156480, Control_c, 4, 7, 113
5, 156640, Control_c, 4, 7, 114
5, 156760, Control_c, 4, 7, 116
5, 157200, Note_on_c, 4, 41, 82
5, 157318, Note_off_c, 4, 41, 82
5, 157440, Note_on_c, 4, 35, 75
5, 157582, Note_off_c, 4, 35, 75
5, 157680, Note_on_c, 4, 40, 86
5, 157822, Note_off_c, 4, 40, 86
5, 159120, Note_on_c, 4, 40, 80
5, 159254, Note_off_c, 4, 40, 80
5, 159260, Control_c, 4, 7, 114
5, 159340, Control_c, 4, 7, 113
5, 159360, Note_on_c, 4, 45, 73
5, 159440, Control_c, 4, 7, 111
5, 159454, Note_off_c, 4, 45, 73
5, 159540, Control_c, 4, 7, 110
5, 159600, Note_on_c, 4, 33, 71
5, 159680, Control_c, 4, 7, 108
5, 159718, Note_off_c, 4, 33, 71
5, 159800, Control_c, 4, 7, 107
5, 159860, Control_c, 4, 7, 106
5, 159920, Control_c, 4, 7, 104
5, 160000, Control_c, 4, 7, 103
5, 160160, Control_c, 4, 7, 101
5, 160280, Control_c, 4, 7, 100
5, 160400, Control_c, 4, 7, 98
5, 160980, Control_c, 4, 7, 100
5, 161000, Control_c, 4, 7, 101
5, 161040, Control_c, 4, 7, 103
5, 161040, Note_on_c, 4, 33, 76
5, 161080, Control_c, 4, 7, 104
5, 161100, Control_c, 4, 7, 106
5, 161140, Control_c, 4, 7, 107
5, 161190, Note_off_c, 4, 33, 76
5, 161280, Note_on_c, 4, 38, 80
5, 161422, Note_off_c, 4, 38, 80
5, 161520, Note_on_c, 4, 31, 74
5, 161606, Note_off_c, 4, 31, 74
5, 161620, Control_c, 4, 7, 106
5, 161640, Control_c, 4, 7, 104
5, 161680, Control_c, 4, 7, 103
5, 161700, Control_c, 4, 7, 101
5, 161740, Control_c, 4, 7, 100
5, 161760, Control_c, 4, 7, 98
5, 161800, Control_c, 4, 7, 97
5, 162940, Control_c, 4, 7, 98
5, 162960, Control_c, 4, 7, 101
5, 162960, Note_on_c, 4, 31, 73
5, 163000, Control_c, 4, 7, 103
5, 163020, Control_c, 4, 7, 104
5, 163078, Note_off_c, 4, 31, 73
5, 163200, Note_on_c, 4, 36, 78
5, 163342, Note_off_c, 4, 36, 78
5, 163440, Note_on_c, 4, 29, 95
5, 163558, Note_off_c, 4, 29, 95
5, 163640, Control_c, 4, 7, 103
5, 163680, Control_c, 4, 7, 101
5, 163700, Control_c, 4, 7, 100
5, 163820, Control_c, 4, 7, 98
5, 164120, Control_c, 4, 7, 98
5, 164880, Note_on_c, 4, 29, 70
5, 165014, Note_off_c, 4, 29, 70
5, 165120, Note_on_c, 4, 35, 77
5, 165262, Note_off_c, 4, 35, 77
5, 165360, Note_on_c, 4, 28, 100
5, 165462, Note_off_c, 4, 28, 100
5, 166800, Note_on_c, 4, 28, 89
5, 166902, Note_off_c, 4, 28, 89
5, 167040, Note_on_c, 4, 33, 83
5, 167286, Note_off_c, 4, 33, 83
5, 178740, Control_c, 4, 7, 98
5, 179020, Control_c, 4, 7, 99
5, 179180, Control_c, 4, 7, 101
5, 179300, Control_c, 4, 7, 102
5, 179640, Control_c, 4, 7, 104
5, 179800, Control_c, 4, 7, 105
5, 179960, Control_c, 4, 7, 107
5, 180060, Control_c, 4, 7, 108
5, 180400, Control_c, 4, 7, 110
5, 180540, Control_c, 4, 7, 111
5, 180800, Control_c, 4, 7, 112
5, 180920, Control_c, 4, 7, 114
5, 181040, Control_c, 4, 7, 115
5, 181120, Control_c, 4, 7, 117
5, 181220, Control_c, 4, 7, 118
5, 181280, Control_c, 4, 7, 120
5, 181560, Control_c, 4, 7, 121
5, 181620, Control_c, 4, 7, 123
5, 181720, Control_c, 4, 7, 124
5, 181760, Control_c, 4, 7, 125
5, 183520, Control_c, 4, 7, 124
5, 183580, Control_c, 4, 7, 123
5, 183640, Control_c, 4, 7, 121
5, 183720, Control_c, 4, 7, 120
5, 183800, Control_c, 4, 7, 118
5, 183880, Control_c, 4, 7, 117
5, 183960, Control_c, 4, 7, 115
5, 184060, Control_c, 4, 7, 114
5, 184100, Control_c, 4, 7, 112
5, 184160, Control_c, 4, 7, 111
5, 184240, Control_c, 4, 7, 110
5, 184460, Control_c, 4, 7, 108
5, 184520, Control_c, 4, 7, 107
5, 184600, Control_c, 4, 7, 105
5, 184740, Control_c, 4, 7, 104
5, 184800, Control_c, 4, 7, 102
5, 184820, Control_c, 4, 7, 101
5, 184860, Control_c, 4, 7, 99
5, 184900, Control_c, 4, 7, 98
5, 186880, Control_c, 4, 7, 98
5, 187340, Control_c, 4, 7, 99
5, 187520, Control_c, 4, 7, 101
5, 187600, Control_c, 4, 7, 102
5, 187640, Control_c, 4, 7, 104
5, 187680, Control_c, 4, 7, 105
5, 187840, Control_c, 4, 7, 107
5, 187900, Control_c, 4, 7, 108
5, 187960, Control_c, 4, 7, 110
5, 188020, Control_c, 4, 7, 111
5, 188060, Control_c, 4, 7, 112
5, 188160, Note_on_c, 4, 33, 102
5, 188200, Control_c, 4, 7, 114
5, 188406, Note_off_c, 4, 33, 102
5, 188620, Control_c, 4, 7, 115
5, 188880, Note_on_c, 4, 45, 77
5, 188998, Note_off_c, 4, 45, 77
5, 189120, Note_on_c, 4, 33, 75
5, 189206, Note_off_c, 4, 33, 75
5, 189360, Note_on_c, 4, 45, 69
5, 189494, Note_off_c, 4, 45, 69
5, 189600, Note_on_c, 4, 44, 72
5, 189710, Note_off_c, 4, 44, 72
5, 189840, Note_on_c, 4, 40, 78
5, 189942, Note_off_c, 4, 40, 78
5, 190080, Control_c, 4, 7, 117
5, 190120, Control_c, 4, 7, 118
5, 190160, Control_c, 4, 7, 120
5, 190240, Control_c, 4, 7, 121
5, 190320, Note_on_c, 4, 45, 79
5, 190406, Note_off_c, 4, 45, 79
5, 190500, Control_c, 4, 7, 123
5, 190560, Note_on_c, 4, 44, 78
5, 190638, Note_off_c, 4, 44, 78
5, 190800, Note_on_c, 4, 40, 80
5, 190894, Note_off_c, 4, 40, 80
5, 191160, Control_c, 4, 7, 124
5, 191280, Note_on_c, 4, 45, 74
5, 191390, Note_off_c, 4, 45, 74
5, 191520, Note_on_c, 4, 44, 74
5, 191606, Note_off_c, 4, 44, 74
5, 191760, Note_on_c, 4, 40, 76
5, 191838, Note_off_c, 4, 40, 76
5, 192000, Note_on_c, 4, 33, 71
5, 192246, Note_off_c, 4, 33, 71
5, 192720, Note_on_c, 4, 45, 76
5, 192846, Note_off_c, 4, 45, 76
5, 192960, Note_on_c, 4, 33, 74
5, 193181, Note_off_c, 4, 33, 74
5, 193680, Note_on_c, 4, 45, 80
5, 193806, Note_off_c, 4, 45, 80
5, 193920, Note_on_c, 4, 33, 69
5, 194046, Note_off_c, 4, 33, 69
5, 194160, Note_on_c, 4, 45, 74
5, 194294, Note_off_c, 4, 45, 74
5, 194400, Note_on_c, 4, 44, 62
5, 194526, Note_off_c, 4, 44, 62
5, 194640, Note_on_c, 4, 40, 73
5, 194798, Note_off_c, 4, 40, 73
5, 194880, Note_on_c, 4, 45, 70
5, 194974, Note_off_c, 4, 45, 70
5, 195120, Note_on_c, 4, 38, 74
5, 195238, Note_off_c, 4, 38, 74
5, 195360, Note_on_c, 4, 40, 75
5, 195486, Note_off_c, 4, 40, 75
5, 195600, Note_on_c, 4, 28, 72
5, 195702, Note_off_c, 4, 28, 72
5, 195840, Note_on_c, 4, 33, 74
5, 195926, Note_off_c, 4, 33, 74
5, 196080, Note_on_c, 4, 45, 77
5, 196182, Note_off_c, 4, 45, 77
5, 196320, Note_on_c, 4, 33, 74
5, 196557, Note_off_c, 4, 33, 74
5, 197040, Note_on_c, 4, 45, 84
5, 197198, Note_off_c, 4, 45, 84
5, 197280, Note_on_c, 4, 33, 75
5, 197534, Note_off_c, 4, 33, 75
5, 198000, Note_on_c, 4, 45, 90
5, 198126, Note_off_c, 4, 45, 90
5, 198240, Note_on_c, 4, 44, 93
5, 198342, Note_off_c, 4, 44, 93
5, 198480, Note_on_c, 4, 40, 101
5, 198582, Note_off_c, 4, 40, 101
5, 198720, Note_on_c, 4, 33, 117
5, 198806, Note_off_c, 4, 33, 117
5, 198960, Note_on_c, 4, 38, 103
5, 199062, Note_off_c, 4, 38, 103
5, 199200, Note_on_c, 4, 40, 111
5, 199270, Note_off_c, 4, 40, 111
5, 199440, Note_on_c, 4, 28, 124
5, 199526, Note_off_c, 4, 28, 124
5, 199740, Control_c, 4, 7, 124
5, 199800, Note_on_c, 4, 33, 110
5, 200100, Control_c, 4, 7, 123
5, 200120, Control_c, 4, 7, 121
5, 200140, Control_c, 4, 7, 120
5, 200240, Control_c, 4, 7, 118
5, 200260, Control_c, 4, 7, 117
5, 200320, Control_c, 4, 7, 115
5, 200340, Control_c, 4, 7, 114
5, 200360, Control_c, 4, 7, 112
5, 200380, Control_c, 4, 7, 111
5, 200420, Control_c, 4, 7, 110
5, 200460, Control_c, 4, 7, 108
5, 200500, Control_c, 4, 7, 107
5, 200520, Control_c, 4, 7, 105
5, 200540, Control_c, 4, 7, 104
5, 200580, Control_c, 4, 7, 102
5, 200600, Control_c, 4, 7, 101
5, 200620, Control_c, 4, 7, 99
5, 200660, Control_c, 4, 7, 98
5, 200680, Control_c, 4, 7, 97
5, 200700, Control_c, 4, 7, 95
5, 200720, Control_c, 4, 7, 94
5, 200760, Control_c, 4, 7, 92
5, 200780, Control_c, 4, 7, 91
5, 200780, Control_c, 4, 7, 89
5, 200800, Control_c, 4, 7, 88
5, 200820, Control_c, 4, 7, 86
5, 200840, Control_c, 4, 7, 85
5, 200880, Control_c, 4, 7, 84
5, 200880, Control_c, 4, 7, 82
5, 200920, Control_c, 4, 7, 81
5, 200940, Control_c, 4, 7, 79
5, 200940, Control_c, 4, 7, 78
5, 200960, Control_c, 4, 7, 76
5, 200980, Control_c, 4, 7, 75
5, 200980, Control_c, 4, 7, 73
5, 201000, Control_c, 4, 7, 72
5, 201020, Control_c, 4, 7, 71
5, 201020, Control_c, 4, 7, 69
5, 201040, Control_c, 4, 7, 68
5, 201060, Control_c, 4, 7, 66
5, 201080, Control_c, 4, 7, 65
5, 201120, Control_c, 4, 7, 63
5, 201120, Control_c, 4, 7, 60
5, 201140, Control_c, 4, 7, 59
5, 201180, Control_c, 4, 7, 58
5, 201180, Control_c, 4, 7, 56
5, 201200, Control_c, 4, 7, 55
5, 201220, Control_c, 4, 7, 53
5, 201260, Control_c, 4, 7, 52
5, 201300, Control_c, 4, 7, 50
5, 201340, Control_c, 4, 7, 49
5, 201360, Control_c, 4, 7, 48
5, 201380, Control_c, 4, 7, 46
5, 201400, Control_c, 4, 7, 45
5, 201420, Control_c, 4, 7, 42
5, 201420, Control_c, 4, 7, 40
5, 201440, Control_c, 4, 7, 39
5, 201480, Control_c, 4, 7, 37
5, 201500, Control_c, 4, 7, 36
5, 201520, Control_c, 4, 7, 35
5, 201560, Control_c, 4, 7, 33
5, 201580, Control_c, 4, 7, 32
5, 201600, Note_off_c, 4, 33, 110
5, 201600, End_track
6, 0, Start_track
6, 0, Title_t, "Cembalo 1"
6, 0, Key_signature, 0, "major"
6, 190, Control_c, 5, 0, 0
6, 195, Control_c, 5, 32, 0
6, 200, Program_c, 5, 6
6, 205, Control_c, 5, 7, 123
6, 210, Control_c, 5, 10, 32
6, 215, Control_c, 5, 91, 127
6, 220, Control_c, 5, 93, 0
6, 225, Control_c, 5, 101, 0
6, 230, Control_c, 5, 100, 0
6, 235, Control_c, 5, 6, 2
6, 3840, Note_on_c, 5, 76, 96
6, 3840, Note_on_c, 5, 57, 85
6, 4211, Note_off_c, 5, 57, 85
6, 4217, Note_off_c, 5, 76, 96
6, 4560, Note_on_c, 5, 76, 75
6, 4756, Note_off_c, 5, 76, 75
6, 4800, Note_on_c, 5, 76, 80
6, 4800, Note_on_c, 5, 57, 89
6, 5014, Note_off_c, 5, 76, 80
6, 5040, Note_on_c, 5, 76, 81
6, 5171, Note_off_c, 5, 57, 89
6, 5230, Note_off_c, 5, 76, 81
6, 5280, Note_on_c, 5, 76, 81
6, 5470, Note_off_c, 5, 76, 81
6, 5520, Note_on_c, 5, 76, 78
6, 5710, Note_off_c, 5, 76, 78
6, 5760, Note_on_c, 5, 81, 96
6, 5760, Note_on_c, 5, 57, 89
6, 6000, Note_on_c, 5, 76, 77
6, 6004, Note_off_c, 5, 81, 96
6, 6125, Note_off_c, 5, 57, 89
6, 6196, Note_off_c, 5, 76, 77
6, 6240, Note_on_c, 5, 76, 76
6, 6448, Note_off_c, 5, 76, 76
6, 6480, Note_on_c, 5, 76, 75
6, 6676, Note_off_c, 5, 76, 75
6, 6720, Note_on_c, 5, 81, 96
6, 6720, Note_on_c, 5, 57, 90
6, 6960, Note_on_c, 5, 76, 74
6, 6964, Note_off_c, 5, 81, 96
6, 7091, Note_off_c, 5, 57, 90
6, 7174, Note_off_c, 5, 76, 74
6, 7200, Note_on_c, 5, 76, 76
6, 7414, Note_off_c, 5, 76, 76
6, 7440, Note_on_c, 5, 76, 80
6, 7637, Note_off_c, 5, 76, 80
6, 7680, Note_on_c, 5, 77, 90
6, 7680, Note_on_c, 5, 57, 85
6, 7732, Note_off_c, 5, 77, 90
6, 7740, Note_on_c, 5, 76, 76
6, 7798, Note_off_c, 5, 76, 76
6, 7800, Note_on_c, 5, 77, 78
6, 7858, Note_off_c, 5, 77, 78
6, 7860, Note_on_c, 5, 76, 78
6, 7918, Note_off_c, 5, 76, 78
6, 7920, Note_on_c, 5, 72, 85
6, 8026, Note_off_c, 5, 72, 85
6, 8040, Note_on_c, 5, 74, 84
6, 8057, Note_off_c, 5, 57, 85
6, 8140, Note_off_c, 5, 74, 84
6, 8160, Note_on_c, 5, 76, 84
6, 8160, Note_on_c, 5, 57, 89
6, 8345, Note_off_c, 5, 76, 84
6, 8400, Note_on_c, 5, 76, 74
6, 8525, Note_off_c, 5, 57, 89
6, 8579, Note_off_c, 5, 76, 74
6, 8640, Note_on_c, 5, 77, 86
6, 8640, Note_on_c, 5, 57, 86
6, 8686, Note_off_c, 5, 77, 86
6, 8688, Note_on_c, 5, 76, 82
6, 8734, Note_off_c, 5, 76, 82
6, 8736, Note_on_c, 5, 77, 88
6, 8782, Note_off_c, 5, 77, 88
6, 8784, Note_on_c, 5, 76, 83
6, 8830, Note_off_c, 5, 76, 83
6, 8832, Note_on_c, 5, 77, 93
6, 8878, Note_off_c, 5, 77, 93
6, 8880, Note_on_c, 5, 72, 79
6, 8980, Note_off_c, 5, 72, 79
6, 9000, Note_on_c, 5, 74, 81
6, 9005, Note_off_c, 5, 57, 86
6, 9088, Note_off_c, 5, 74, 81
6, 9120, Note_on_c, 5, 76, 79
6, 9120, Note_on_c, 5, 57, 83
6, 9299, Note_off_c, 5, 76, 79
6, 9360, Note_on_c, 5, 76, 81
6, 9479, Note_off_c, 5, 57, 83
6, 9545, Note_off_c, 5, 76, 81
6, 9600, Note_on_c, 5, 76, 79
6, 9600, Note_on_c, 5, 57, 83
6, 9796, Note_off_c, 5, 76, 79
6, 9840, Note_on_c, 5, 76, 78
6, 10042, Note_off_c, 5, 57, 83
6, 10054, Note_off_c, 5, 76, 78
6, 10080, Note_on_c, 5, 77, 82
6, 10112, Note_off_c, 5, 77, 82
6, 10114, Note_on_c, 5, 76, 79
6, 10147, Note_off_c, 5, 76, 79
6, 10149, Note_on_c, 5, 77, 78
6, 10181, Note_off_c, 5, 77, 78
6, 10183, Note_on_c, 5, 76, 74
6, 10215, Note_off_c, 5, 76, 74
6, 10217, Note_on_c, 5, 77, 77
6, 10249, Note_off_c, 5, 77, 77
6, 10251, Note_on_c, 5, 76, 74
6, 10284, Note_off_c, 5, 76, 74
6, 10286, Note_on_c, 5, 77, 83
6, 10318, Note_off_c, 5, 77, 83
6, 10320, Note_on_c, 5, 74, 80
6, 10320, Note_on_c, 5, 57, 81
6, 10438, Note_off_c, 5, 74, 80
6, 10440, Note_on_c, 5, 72, 80
6, 10558, Note_off_c, 5, 57, 81
6, 10558, Note_off_c, 5, 72, 80
6, 10560, Note_on_c, 5, 71, 76
6, 10560, Note_on_c, 5, 52, 80
6, 10750, Note_off_c, 5, 52, 80
6, 10762, Note_off_c, 5, 71, 76
6, 10800, Note_on_c, 5, 64, 83
6, 10800, Note_on_c, 5, 54, 76
6, 10955, Note_off_c, 5, 64, 83
6, 10990, Note_off_c, 5, 54, 76
6, 11040, Note_on_c, 5, 56, 75
6, 11207, Note_off_c, 5, 56, 75
6, 11280, Note_on_c, 5, 52, 84
6, 11447, Note_off_c, 5, 52, 84
6, 11520, Note_on_c, 5, 52, 80
6, 11520, Note_on_c, 5, 45, 74
6, 11520, Note_on_c, 5, 48, 80
6, 11520, Note_on_c, 5, 72, 85
6, 11520, Note_on_c, 5, 69, 83
6, 11520, Note_on_c, 5, 64, 84
6, 11520, Note_on_c, 5, 76, 96
6, 11520, Note_on_c, 5, 57, 85
6, 11891, Note_off_c, 5, 57, 85
6, 11897, Note_off_c, 5, 76, 96
6, 11998, Note_off_c, 5, 52, 80
6, 11998, Note_off_c, 5, 45, 74
6, 11998, Note_off_c, 5, 48, 80
6, 11998, Note_off_c, 5, 72, 85
6, 11998, Note_off_c, 5, 69, 83
6, 11998, Note_off_c, 5, 64, 84
6, 12240, Note_on_c, 5, 76, 75
6, 12436, Note_off_c, 5, 76, 75
6, 12480, Note_on_c, 5, 76, 80
6, 12480, Note_on_c, 5, 57, 89
6, 12694, Note_off_c, 5, 76, 80
6, 12720, Note_on_c, 5, 76, 81
6, 12851, Note_off_c, 5, 57, 89
6, 12910, Note_off_c, 5, 76, 81
6, 12960, Note_on_c, 5, 76, 81
6, 13150, Note_off_c, 5, 76, 81
6, 13200, Note_on_c, 5, 76, 78
6, 13390, Note_off_c, 5, 76, 78
6, 13440, Note_on_c, 5, 81, 96
6, 13440, Note_on_c, 5, 57, 89
6, 13680, Note_on_c, 5, 76, 77
6, 13684, Note_off_c, 5, 81, 96
6, 13805, Note_off_c, 5, 57, 89
6, 13876, Note_off_c, 5, 76, 77
6, 13920, Note_on_c, 5, 76, 76
6, 14128, Note_off_c, 5, 76, 76
6, 14160, Note_on_c, 5, 76, 75
6, 14356, Note_off_c, 5, 76, 75
6, 14400, Note_on_c, 5, 81, 96
6, 14400, Note_on_c, 5, 57, 90
6, 14640, Note_on_c, 5, 76, 74
6, 14644, Note_off_c, 5, 81, 96
6, 14771, Note_off_c, 5, 57, 90
6, 14854, Note_off_c, 5, 76, 74
6, 14880, Note_on_c, 5, 76, 76
6, 15094, Note_off_c, 5, 76, 76
6, 15120, Note_on_c, 5, 76, 80
6, 15317, Note_off_c, 5, 76, 80
6, 15360, Note_on_c, 5, 77, 90
6, 15360, Note_on_c, 5, 57, 85
6, 15412, Note_off_c, 5, 77, 90
6, 15420, Note_on_c, 5, 76, 76
6, 15478, Note_off_c, 5, 76, 76
6, 15480, Note_on_c, 5, 77, 78
6, 15538, Note_off_c, 5, 77, 78
6, 15540, Note_on_c, 5, 76, 78
6, 15598, Note_off_c, 5, 76, 78
6, 15600, Note_on_c, 5, 72, 85
6, 15706, Note_off_c, 5, 72, 85
6, 15720, Note_on_c, 5, 74, 84
6, 15737, Note_off_c, 5, 57, 85
6, 15820, Note_off_c, 5, 74, 84
6, 15840, Note_on_c, 5, 76, 84
6, 15840, Note_on_c, 5, 57, 89
6, 16025, Note_off_c, 5, 76, 84
6, 16080, Note_on_c, 5, 76, 74
6, 16205, Note_off_c, 5, 57, 89
6, 16259, Note_off_c, 5, 76, 74
6, 16320, Note_on_c, 5, 77, 92
6, 16320, Note_on_c, 5, 57, 86
6, 16372, Note_off_c, 5, 77, 92
6, 16380, Note_on_c, 5, 76, 84
6, 16438, Note_off_c, 5, 76, 84
6, 16440, Note_on_c, 5, 77, 84
6, 16498, Note_off_c, 5, 77, 84
6, 16500, Note_on_c, 5, 76, 82
6, 16558, Note_off_c, 5, 76, 82
6, 16560, Note_on_c, 5, 72, 79
6, 16660, Note_off_c, 5, 72, 79
6, 16680, Note_on_c, 5, 74, 81
6, 16685, Note_off_c, 5, 57, 86
6, 16768, Note_off_c, 5, 74, 81
6, 16800, Note_on_c, 5, 76, 79
6, 16800, Note_on_c, 5, 57, 83
6, 16979, Note_off_c, 5, 76, 79
6, 17040, Note_on_c, 5, 76, 81
6, 17159, Note_off_c, 5, 57, 83
6, 17225, Note_off_c, 5, 76, 81
6, 17280, Note_on_c, 5, 76, 79
6, 17280, Note_on_c, 5, 57, 83
6, 17476, Note_off_c, 5, 76, 79
6, 17520, Note_on_c, 5, 76, 78
6, 17722, Note_off_c, 5, 57, 83
6, 17734, Note_off_c, 5, 76, 78
6, 17760, Note_on_c, 5, 76, 79
6, 17998, Note_off_c, 5, 76, 79
6, 18000, Note_on_c, 5, 74, 80
6, 18000, Note_on_c, 5, 57, 81
6, 18118, Note_off_c, 5, 74, 80
6, 18120, Note_on_c, 5, 72, 80
6, 18238, Note_off_c, 5, 57, 81
6, 18238, Note_off_c, 5, 72, 80
6, 18240, Note_on_c, 5, 71, 76
6, 18240, Note_on_c, 5, 52, 80
6, 18430, Note_off_c, 5, 52, 80
6, 18442, Note_off_c, 5, 71, 76
6, 18480, Note_on_c, 5, 64, 83
6, 18480, Note_on_c, 5, 54, 76
6, 18635, Note_off_c, 5, 64, 83
6, 18670, Note_off_c, 5, 54, 76
6, 18720, Note_on_c, 5, 56, 75
6, 18887, Note_off_c, 5, 56, 75
6, 18960, Note_on_c, 5, 52, 84
6, 19127, Note_off_c, 5, 52, 84
6, 25920, Note_on_c, 5, 57, 92
6, 25920, Note_on_c, 5, 60, 92
6, 25920, Note_on_c, 5, 69, 86
6, 25920, Note_on_c, 5, 72, 89
6, 25920, Note_on_c, 5, 64, 87
6, 26398, Note_off_c, 5, 57, 92
6, 26398, Note_off_c, 5, 60, 92
6, 26398, Note_off_c, 5, 69, 86
6, 26398, Note_off_c, 5, 72, 89
6, 26398, Note_off_c, 5, 64, 87
6, 26640, Note_on_c, 5, 57, 77
6, 26640, Note_on_c, 5, 72, 87
6, 26878, Note_off_c, 5, 57, 77
6, 26878, Note_off_c, 5, 72, 87
6, 26880, Note_on_c, 5, 57, 81
6, 26880, Note_on_c, 5, 72, 79
6, 26998, Note_off_c, 5, 72, 79
6, 27000, Note_on_c, 5, 69, 76
6, 27118, Note_off_c, 5, 57, 81
6, 27118, Note_off_c, 5, 69, 76
6, 27120, Note_on_c, 5, 64, 84
6, 27120, Note_on_c, 5, 72, 80
6, 27238, Note_off_c, 5, 72, 80
6, 27240, Note_on_c, 5, 76, 76
6, 27358, Note_off_c, 5, 64, 84
6, 27358, Note_off_c, 5, 76, 76
6, 27360, Note_on_c, 5, 76, 80
6, 27478, Note_off_c, 5, 76, 80
6, 27480, Note_on_c, 5, 74, 73
6, 27598, Note_off_c, 5, 74, 73
6, 27600, Note_on_c, 5, 56, 82
6, 27600, Note_on_c, 5, 76, 85
6, 27838, Note_off_c, 5, 56, 82
6, 27838, Note_off_c, 5, 76, 85
6, 27840, Note_on_c, 5, 57, 90
6, 27960, Note_on_c, 5, 69, 76
6, 28078, Note_off_c, 5, 57, 90
6, 28078, Note_off_c, 5, 69, 76
6, 28080, Note_on_c, 5, 45, 89
6, 28080, Note_on_c, 5, 72, 78
6, 28198, Note_off_c, 5, 72, 78
6, 28200, Note_on_c, 5, 76, 80
6, 28318, Note_off_c, 5, 45, 89
6, 28318, Note_off_c, 5, 76, 80
6, 28320, Note_on_c, 5, 76, 83
6, 28438, Note_off_c, 5, 76, 83
6, 28440, Note_on_c, 5, 74, 81
6, 28558, Note_off_c, 5, 74, 81
6, 28560, Note_on_c, 5, 56, 81
6, 28560, Note_on_c, 5, 76, 90
6, 28798, Note_off_c, 5, 56, 81
6, 28798, Note_off_c, 5, 76, 90
6, 28800, Note_on_c, 5, 57, 90
6, 28920, Note_on_c, 5, 69, 76
6, 29038, Note_off_c, 5, 57, 90
6, 29038, Note_off_c, 5, 69, 76
6, 29040, Note_on_c, 5, 45, 87
6, 29040, Note_on_c, 5, 72, 80
6, 29158, Note_off_c, 5, 72, 80
6, 29160, Note_on_c, 5, 76, 79
6, 29278, Note_off_c, 5, 45, 87
6, 29278, Note_off_c, 5, 76, 79
6, 29280, Note_on_c, 5, 76, 80
6, 29398, Note_off_c, 5, 76, 80
6, 29400, Note_on_c, 5, 74, 77
6, 29518, Note_off_c, 5, 74, 77
6, 29520, Note_on_c, 5, 68, 81
6, 29520, Note_on_c, 5, 76, 87
6, 29758, Note_off_c, 5, 68, 81
6, 29758, Note_off_c, 5, 76, 87
6, 29760, Note_on_c, 5, 69, 85
6, 29998, Note_off_c, 5, 69, 85
6, 30000, Note_on_c, 5, 64, 88
6, 30000, Note_on_c, 5, 76, 76
6, 30238, Note_off_c, 5, 64, 88
6, 30238, Note_off_c, 5, 76, 76
6, 30240, Note_on_c, 5, 60, 84
6, 30240, Note_on_c, 5, 81, 90
6, 30478, Note_off_c, 5, 60, 84
6, 30480, Note_on_c, 5, 57, 80
6, 30718, Note_off_c, 5, 81, 90
6, 30718, Note_off_c, 5, 57, 80
6, 30720, Note_on_c, 5, 60, 84
6, 30958, Note_off_c, 5, 60, 84
6, 30960, Note_on_c, 5, 64, 84
6, 30960, Note_on_c, 5, 76, 77
6, 31198, Note_off_c, 5, 64, 84
6, 31198, Note_off_c, 5, 76, 77
6, 31200, Note_on_c, 5, 60, 81
6, 31200, Note_on_c, 5, 81, 91
6, 31438, Note_off_c, 5, 60, 81
6, 31440, Note_on_c, 5, 57, 76
6, 31558, Note_off_c, 5, 57, 76
6, 31560, Note_on_c, 5, 59, 79
6, 31678, Note_off_c, 5, 81, 91
6, 31678, Note_off_c, 5, 59, 79
6, 31680, Note_on_c, 5, 60, 82
6, 31798, Note_off_c, 5, 60, 82
6, 31800, Note_on_c, 5, 62, 74
6, 31918, Note_off_c, 5, 62, 74
6, 31920, Note_on_c, 5, 64, 76
6, 31920, Note_on_c, 5, 76, 83
6, 32038, Note_off_c, 5, 64, 76
6, 32040, Note_on_c, 5, 62, 72
6, 32158, Note_off_c, 5, 76, 83
6, 32158, Note_off_c, 5, 62, 72
6, 32160, Note_on_c, 5, 60, 76
6, 32160, Note_on_c, 5, 81, 84
6, 32278, Note_off_c, 5, 60, 76
6, 32278, Note_off_c, 5, 81, 84
6, 32280, Note_on_c, 5, 64, 77
6, 32280, Note_on_c, 5, 72, 80
6, 32398, Note_off_c, 5, 64, 77
6, 32398, Note_off_c, 5, 72, 80
6, 32400, Note_on_c, 5, 65, 73
6, 32400, Note_on_c, 5, 74, 82
6, 32518, Note_off_c, 5, 65, 73
6, 32518, Note_off_c, 5, 74, 82
6, 32520, Note_on_c, 5, 64, 80
6, 32520, Note_on_c, 5, 76, 86
6, 32638, Note_off_c, 5, 64, 80
6, 32638, Note_off_c, 5, 76, 86
6, 32640, Note_on_c, 5, 52, 87
6, 32640, Note_on_c, 5, 71, 84
6, 32758, Note_off_c, 5, 52, 87
6, 32760, Note_on_c, 5, 64, 84
6, 32878, Note_off_c, 5, 71, 84
6, 32878, Note_off_c, 5, 64, 84
6, 32880, Note_on_c, 5, 62, 81
6, 32880, Note_on_c, 5, 64, 80
6, 32998, Note_off_c, 5, 62, 81
6, 33000, Note_on_c, 5, 60, 80
6, 33118, Note_off_c, 5, 64, 80
6, 33118, Note_off_c, 5, 60, 80
6, 33120, Note_on_c, 5, 59, 81
6, 33238, Note_off_c, 5, 59, 81
6, 33240, Note_on_c, 5, 62, 80
6, 33240, Note_on_c, 5, 68, 77
6, 33358, Note_off_c, 5, 62, 80
6, 33358, Note_off_c, 5, 68, 77
6, 33360, Note_on_c, 5, 60, 80
6, 33360, Note_on_c, 5, 69, 80
6, 33478, Note_off_c, 5, 60, 80
6, 33478, Note_off_c, 5, 69, 80
6, 33480, Note_on_c, 5, 59, 80
6, 33480, Note_on_c, 5, 71, 82
6, 33598, Note_off_c, 5, 59, 80
6, 33598, Note_off_c, 5, 71, 82
6, 33600, Note_on_c, 5, 57, 94
6, 33600, Note_on_c, 5, 72, 86
6, 33718, Note_off_c, 5, 72, 86
6, 33720, Note_on_c, 5, 74, 83
6, 33838, Note_off_c, 5, 74, 83
6, 33840, Note_on_c, 5, 76, 84
6, 34078, Note_off_c, 5, 57, 94
6, 34078, Note_off_c, 5, 76, 84
6, 40920, Note_on_c, 5, 64, 87
6, 41038, Note_off_c, 5, 64, 87
6, 41040, Note_on_c, 5, 66, 83
6, 41158, Note_off_c, 5, 66, 83
6, 41160, Note_on_c, 5, 68, 100
6, 41278, Note_off_c, 5, 68, 100
6, 41280, Note_on_c, 5, 69, 101
6, 41280, Note_on_c, 5, 81, 109
6, 41398, Note_off_c, 5, 81, 109
6, 41400, Note_on_c, 5, 76, 105
6, 41518, Note_off_c, 5, 69, 101
6, 41518, Note_off_c, 5, 76, 105
6, 41520, Note_on_c, 5, 64, 71
6, 41520, Note_on_c, 5, 72, 103
6, 41638, Note_off_c, 5, 72, 103
6, 41640, Note_on_c, 5, 81, 106
6, 41758, Note_off_c, 5, 64, 71
6, 41758, Note_off_c, 5, 81, 106
6, 41760, Note_on_c, 5, 60, 56
6, 41760, Note_on_c, 5, 81, 105
6, 41878, Note_off_c, 5, 81, 105
6, 41880, Note_on_c, 5, 76, 103
6, 41998, Note_off_c, 5, 60, 56
6, 41998, Note_off_c, 5, 76, 103
6, 42000, Note_on_c, 5, 57, 63
6, 42000, Note_on_c, 5, 72, 101
6, 42118, Note_off_c, 5, 72, 101
6, 42120, Note_on_c, 5, 81, 105
6, 42238, Note_off_c, 5, 57, 63
6, 42238, Note_off_c, 5, 81, 105
6, 42240, Note_on_c, 5, 65, 76
6, 42240, Note_on_c, 5, 81, 113
6, 42358, Note_off_c, 5, 65, 76
6, 42360, Note_on_c, 5, 64, 76
6, 42478, Note_off_c, 5, 81, 113
6, 42478, Note_off_c, 5, 64, 76
6, 42480, Note_on_c, 5, 65, 80
6, 42480, Note_on_c, 5, 74, 104
6, 42718, Note_off_c, 5, 65, 80
6, 42718, Note_off_c, 5, 74, 104
6, 42720, Note_on_c, 5, 77, 111
6, 42958, Note_off_c, 5, 77, 111
6, 42960, Note_on_c, 5, 67, 77
6, 42960, Note_on_c, 5, 81, 109
6, 43018, Note_off_c, 5, 67, 77
6, 43020, Note_on_c, 5, 65, 70
6, 43078, Note_off_c, 5, 65, 70
6, 43080, Note_on_c, 5, 64, 64
6, 43138, Note_off_c, 5, 64, 64
6, 43140, Note_on_c, 5, 65, 57
6, 43198, Note_off_c, 5, 81, 109
6, 43198, Note_off_c, 5, 65, 57
6, 43200, Note_on_c, 5, 67, 88
6, 43200, Note_on_c, 5, 79, 102
6, 43318, Note_off_c, 5, 79, 102
6, 43320, Note_on_c, 5, 74, 107
6, 43438, Note_off_c, 5, 67, 88
6, 43438, Note_off_c, 5, 74, 107
6, 43440, Note_on_c, 5, 62, 77
6, 43440, Note_on_c, 5, 71, 104
6, 43558, Note_off_c, 5, 71, 104
6, 43560, Note_on_c, 5, 79, 105
6, 43678, Note_off_c, 5, 62, 77
6, 43678, Note_off_c, 5, 79, 105
6, 43680, Note_on_c, 5, 59, 62
6, 43680, Note_on_c, 5, 79, 116
6, 43798, Note_off_c, 5, 79, 116
6, 43800, Note_on_c, 5, 74, 109
6, 43918, Note_off_c, 5, 59, 62
6, 43918, Note_off_c, 5, 74, 109
6, 43920, Note_on_c, 5, 55, 75
6, 43920, Note_on_c, 5, 71, 104
6, 44038, Note_off_c, 5, 71, 104
6, 44040, Note_on_c, 5, 79, 116
6, 44158, Note_off_c, 5, 55, 75
6, 44158, Note_off_c, 5, 79, 116
6, 44160, Note_on_c, 5, 64, 74
6, 44160, Note_on_c, 5, 79, 105
6, 44278, Note_off_c, 5, 64, 74
6, 44280, Note_on_c, 5, 62, 74
6, 44398, Note_off_c, 5, 79, 105
6, 44398, Note_off_c, 5, 62, 74
6, 44400, Note_on_c, 5, 64, 88
6, 44400, Note_on_c, 5, 72, 105
6, 44638, Note_off_c, 5, 64, 88
6, 44638, Note_off_c, 5, 72, 105
6, 44640, Note_on_c, 5, 76, 103
6, 44878, Note_off_c, 5, 76, 103
6, 44880, Note_on_c, 5, 65, 66
6, 44880, Note_on_c, 5, 79, 107
6, 44938, Note_off_c, 5, 65, 66
6, 44940, Note_on_c, 5, 64, 66
6, 44998, Note_off_c, 5, 64, 66
6, 45000, Note_on_c, 5, 62, 68
6, 45058, Note_off_c, 5, 62, 68
6, 45060, Note_on_c, 5, 64, 71
6, 45118, Note_off_c, 5, 79, 107
6, 45118, Note_off_c, 5, 64, 71
6, 45120, Note_on_c, 5, 65, 77
6, 45120, Note_on_c, 5, 77, 111
6, 45238, Note_off_c, 5, 77, 111
6, 45240, Note_on_c, 5, 72, 111
6, 45358, Note_off_c, 5, 65, 77
6, 45358, Note_off_c, 5, 72, 111
6, 45360, Note_on_c, 5, 60, 71
6, 45360, Note_on_c, 5, 69, 105
6, 45478, Note_off_c, 5, 69, 105
6, 45480, Note_on_c, 5, 77, 103
6, 45598, Note_off_c, 5, 60, 71
6, 45598, Note_off_c, 5, 77, 103
6, 45600, Note_on_c, 5, 57, 68
6, 45600, Note_on_c, 5, 77, 111
6, 45718, Note_off_c, 5, 77, 111
6, 45720, Note_on_c, 5, 72, 105
6, 45838, Note_off_c, 5, 57, 68
6, 45838, Note_off_c, 5, 72, 105
6, 45840, Note_on_c, 5, 53, 78
6, 45840, Note_on_c, 5, 69, 101
6, 45958, Note_off_c, 5, 69, 101
6, 45960, Note_on_c, 5, 77, 116
6, 46078, Note_off_c, 5, 53, 78
6, 46080, Note_off_c, 5, 77, 116
6, 46080, Note_on_c, 5, 62, 80
6, 46080, Note_on_c, 5, 77, 115
6, 46198, Note_off_c, 5, 62, 80
6, 46200, Note_on_c, 5, 60, 83
6, 46318, Note_off_c, 5, 77, 115
6, 46318, Note_off_c, 5, 60, 83
6, 46320, Note_on_c, 5, 62, 86
6, 46320, Note_on_c, 5, 71, 101
6, 46558, Note_off_c, 5, 62, 86
6, 46558, Note_off_c, 5, 71, 101
6, 46560, Note_on_c, 5, 74, 104
6, 46798, Note_off_c, 5, 74, 104
6, 46800, Note_on_c, 5, 64, 78
6, 46800, Note_on_c, 5, 77, 108
6, 46858, Note_off_c, 5, 64, 78
6, 46860, Note_on_c, 5, 62, 77
6, 46918, Note_off_c, 5, 62, 77
6, 46920, Note_on_c, 5, 60, 76
6, 46978, Note_off_c, 5, 60, 76
6, 46980, Note_on_c, 5, 62, 82
6, 47038, Note_off_c, 5, 77, 108
6, 47038, Note_off_c, 5, 62, 82
6, 47040, Note_on_c, 5, 64, 81
6, 47040, Note_on_c, 5, 76, 99
6, 47158, Note_off_c, 5, 76, 99
6, 47160, Note_on_c, 5, 71, 105
6, 47278, Note_off_c, 5, 64, 81
6, 47278, Note_off_c, 5, 71, 105
6, 47280, Note_on_c, 5, 59, 72
6, 47280, Note_on_c, 5, 68, 97
6, 47398, Note_off_c, 5, 68, 97
6, 47400, Note_on_c, 5, 76, 100
6, 47518, Note_off_c, 5, 59, 72
6, 47518, Note_off_c, 5, 76, 100
6, 47520, Note_on_c, 5, 56, 74
6, 47520, Note_on_c, 5, 76, 108
6, 47638, Note_off_c, 5, 76, 108
6, 47640, Note_on_c, 5, 71, 106
6, 47758, Note_off_c, 5, 56, 74
6, 47758, Note_off_c, 5, 71, 106
6, 47760, Note_on_c, 5, 52, 76
6, 47760, Note_on_c, 5, 68, 103
6, 47878, Note_off_c, 5, 68, 103
6, 47880, Note_on_c, 5, 76, 108
6, 47998, Note_off_c, 5, 52, 76
6, 47998, Note_off_c, 5, 76, 108
6, 48000, Note_on_c, 5, 76, 90
6, 48000, Note_on_c, 5, 57, 73
6, 48118, Note_off_c, 5, 57, 73
6, 48120, Note_on_c, 5, 56, 69
6, 48238, Note_off_c, 5, 76, 90
6, 48238, Note_off_c, 5, 56, 69
6, 48240, Note_on_c, 5, 69, 94
6, 48240, Note_on_c, 5, 57, 75
6, 48358, Note_off_c, 5, 57, 75
6, 48360, Note_on_c, 5, 59, 64
6, 48478, Note_off_c, 5, 69, 94
6, 48478, Note_off_c, 5, 59, 64
6, 48480, Note_on_c, 5, 60, 70
6, 48598, Note_off_c, 5, 60, 70
6, 48600, Note_on_c, 5, 59, 67
6, 48718, Note_off_c, 5, 59, 67
6, 48720, Note_on_c, 5, 81, 91
6, 48720, Note_on_c, 5, 60, 75
6, 48838, Note_off_c, 5, 60, 75
6, 48840, Note_on_c, 5, 62, 64
6, 48958, Note_off_c, 5, 81, 91
6, 48958, Note_off_c, 5, 62, 64
6, 48960, Note_on_c, 5, 80, 84
6, 48960, Note_on_c, 5, 64, 69
6, 49078, Note_off_c, 5, 64, 69
6, 49080, Note_on_c, 5, 52, 68
6, 49198, Note_off_c, 5, 80, 84
6, 49198, Note_off_c, 5, 52, 68
6, 49200, Note_on_c, 5, 76, 88
6, 49200, Note_on_c, 5, 56, 64
6, 49318, Note_off_c, 5, 56, 64
6, 49320, Note_on_c, 5, 52, 68
6, 49438, Note_off_c, 5, 76, 88
6, 49438, Note_off_c, 5, 52, 68
6, 49440, Note_on_c, 5, 57, 68
6, 49558, Note_off_c, 5, 57, 68
6, 49560, Note_on_c, 5, 52, 70
6, 49678, Note_off_c, 5, 52, 70
6, 49680, Note_on_c, 5, 81, 76
6, 49680, Note_on_c, 5, 48, 68
6, 49798, Note_off_c, 5, 48, 68
6, 49800, Note_on_c, 5, 45, 64
6, 49918, Note_off_c, 5, 81, 76
6, 49918, Note_off_c, 5, 45, 64
6, 49920, Note_on_c, 5, 80, 77
6, 49920, Note_on_c, 5, 40, 72
6, 50038, Note_off_c, 5, 40, 72
6, 50040, Note_on_c, 5, 52, 59
6, 50158, Note_off_c, 5, 80, 77
6, 50158, Note_off_c, 5, 52, 59
6, 50160, Note_on_c, 5, 76, 73
6, 50160, Note_on_c, 5, 56, 52
6, 50278, Note_off_c, 5, 56, 52
6, 50280, Note_on_c, 5, 52, 60
6, 50398, Note_off_c, 5, 76, 73
6, 50398, Note_off_c, 5, 52, 60
6, 50400, Note_on_c, 5, 57, 71
6, 50518, Note_off_c, 5, 57, 71
6, 50520, Note_on_c, 5, 52, 77
6, 50638, Note_off_c, 5, 52, 77
6, 50640, Note_on_c, 5, 48, 70
6, 50640, Note_on_c, 5, 81, 82
6, 50758, Note_off_c, 5, 48, 70
6, 50760, Note_on_c, 5, 45, 71
6, 50878, Note_off_c, 5, 81, 82
6, 50878, Note_off_c, 5, 45, 71
6, 50880, Note_on_c, 5, 40, 74
6, 50880, Note_on_c, 5, 80, 78
6, 50998, Note_off_c, 5, 40, 74
6, 51000, Note_on_c, 5, 52, 71
6, 51118, Note_off_c, 5, 80, 78
6, 51118, Note_off_c, 5, 52, 71
6, 51120, Note_on_c, 5, 56, 69
6, 51120, Note_on_c, 5, 76, 80
6, 51238, Note_off_c, 5, 56, 69
6, 51240, Note_on_c, 5, 52, 76
6, 51358, Note_off_c, 5, 76, 80
6, 51358, Note_off_c, 5, 52, 76
6, 51360, Note_on_c, 5, 57, 79
6, 51478, Note_off_c, 5, 57, 79
6, 51480, Note_on_c, 5, 52, 69
6, 51480, Note_on_c, 5, 76, 70
6, 51598, Note_off_c, 5, 52, 69
6, 51598, Note_off_c, 5, 76, 70
6, 51600, Note_on_c, 5, 48, 78
6, 51600, Note_on_c, 5, 76, 76
6, 51718, Note_off_c, 5, 48, 78
6, 51718, Note_off_c, 5, 76, 76
6, 51720, Note_on_c, 5, 45, 79
6, 51720, Note_on_c, 5, 76, 80
6, 51838, Note_off_c, 5, 45, 79
6, 51838, Note_off_c, 5, 76, 80
6, 51840, Note_on_c, 5, 57, 80
6, 51840, Note_on_c, 5, 81, 91
6, 51958, Note_off_c, 5, 81, 91
6, 51960, Note_on_c, 5, 76, 70
6, 52078, Note_off_c, 5, 76, 70
6, 52080, Note_on_c, 5, 76, 73
6, 52198, Note_off_c, 5, 76, 73
6, 52200, Note_on_c, 5, 76, 77
6, 52318, Note_off_c, 5, 57, 80
6, 52318, Note_off_c, 5, 76, 77
6, 52320, Note_on_c, 5, 81, 87
6, 52438, Note_off_c, 5, 81, 87
6, 52440, Note_on_c, 5, 76, 76
6, 52558, Note_off_c, 5, 76, 76
6, 52560, Note_on_c, 5, 57, 81
6, 52560, Note_on_c, 5, 76, 76
6, 52678, Note_off_c, 5, 76, 76
6, 52680, Note_on_c, 5, 76, 70
6, 52798, Note_off_c, 5, 57, 81
6, 52798, Note_off_c, 5, 76, 70
6, 52800, Note_on_c, 5, 45, 83
6, 52800, Note_on_c, 5, 81, 88
6, 52918, Note_off_c, 5, 81, 88
6, 52920, Note_on_c, 5, 76, 71
6, 53038, Note_off_c, 5, 76, 71
6, 53040, Note_on_c, 5, 76, 68
6, 53158, Note_off_c, 5, 76, 68
6, 53160, Note_on_c, 5, 76, 71
6, 53278, Note_off_c, 5, 45, 83
6, 53278, Note_off_c, 5, 76, 71
6, 53280, Note_on_c, 5, 81, 95
6, 53398, Note_off_c, 5, 81, 95
6, 53400, Note_on_c, 5, 76, 72
6, 53518, Note_off_c, 5, 76, 72
6, 53520, Note_on_c, 5, 57, 76
6, 53520, Note_on_c, 5, 76, 71
6, 53638, Note_off_c, 5, 76, 71
6, 53640, Note_on_c, 5, 76, 79
6, 53758, Note_off_c, 5, 57, 76
6, 53758, Note_off_c, 5, 76, 79
6, 53760, Note_on_c, 5, 45, 77
6, 53760, Note_on_c, 5, 81, 92
6, 53998, Note_off_c, 5, 45, 77
6, 53998, Note_off_c, 5, 81, 92
6, 54000, Note_on_c, 5, 57, 74
6, 54000, Note_on_c, 5, 79, 79
6, 54118, Note_off_c, 5, 79, 79
6, 54120, Note_on_c, 5, 77, 80
6, 54238, Note_off_c, 5, 57, 74
6, 54238, Note_off_c, 5, 77, 80
6, 54240, Note_on_c, 5, 56, 71
6, 54240, Note_on_c, 5, 76, 87
6, 54478, Note_off_c, 5, 56, 71
6, 54478, Note_off_c, 5, 76, 87
6, 54480, Note_on_c, 5, 52, 83
6, 54480, Note_on_c, 5, 74, 88
6, 54718, Note_off_c, 5, 52, 83
6, 54718, Note_off_c, 5, 74, 88
6, 54720, Note_on_c, 5, 45, 78
6, 54720, Note_on_c, 5, 72, 84
6, 54958, Note_off_c, 5, 45, 78
6, 54960, Note_on_c, 5, 50, 79
6, 55198, Note_off_c, 5, 72, 84
6, 55198, Note_off_c, 5, 50, 79
6, 55200, Note_on_c, 5, 52, 76
6, 55200, Note_on_c, 5, 71, 90
6, 55438, Note_off_c, 5, 52, 76
6, 55440, Note_on_c, 5, 40, 75
6, 55678, Note_off_c, 5, 71, 90
6, 55678, Note_off_c, 5, 40, 75
6, 55680, Note_on_c, 5, 45, 83
6, 55680, Note_on_c, 5, 69, 80
6, 55798, Note_off_c, 5, 69, 80
6, 55800, Note_on_c, 5, 72, 84
6, 55918, Note_off_c, 5, 72, 84
6, 55920, Note_on_c, 5, 71, 79
6, 56038, Note_off_c, 5, 71, 79
6, 56040, Note_on_c, 5, 69, 80
6, 56158, Note_off_c, 5, 45, 83
6, 56158, Note_off_c, 5, 69, 80
6, 56160, Note_on_c, 5, 76, 85
6, 56278, Note_off_c, 5, 76, 85
6, 56280, Note_on_c, 5, 72, 79
6, 56398, Note_off_c, 5, 72, 79
6, 56400, Note_on_c, 5, 71, 81
6, 56518, Note_off_c, 5, 71, 81
6, 56520, Note_on_c, 5, 69, 87
6, 56638, Note_off_c, 5, 69, 87
6, 56640, Note_on_c, 5, 45, 79
6, 56640, Note_on_c, 5, 64, 92
6, 56758, Note_off_c, 5, 64, 92
6, 56760, Note_on_c, 5, 72, 83
6, 56878, Note_off_c, 5, 72, 83
6, 56880, Note_on_c, 5, 71, 77
6, 56998, Note_off_c, 5, 71, 77
6, 57000, Note_on_c, 5, 69, 80
6, 57118, Note_off_c, 5, 45, 79
6, 57118, Note_off_c, 5, 69, 80
6, 57120, Note_on_c, 5, 76, 85
6, 57238, Note_off_c, 5, 76, 85
6, 57240, Note_on_c, 5, 72, 80
6, 57358, Note_off_c, 5, 72, 80
6, 57360, Note_on_c, 5, 71, 74
6, 57478, Note_off_c, 5, 71, 74
6, 57480, Note_on_c, 5, 69, 79
6, 57598, Note_off_c, 5, 69, 79
6, 57600, Note_on_c, 5, 45, 81
6, 57600, Note_on_c, 5, 64, 83
6, 57718, Note_off_c, 5, 64, 83
6, 57720, Note_on_c, 5, 72, 82
6, 57838, Note_off_c, 5, 72, 82
6, 57840, Note_on_c, 5, 71, 77
6, 57958, Note_off_c, 5, 71, 77
6, 57960, Note_on_c, 5, 69, 77
6, 58078, Note_off_c, 5, 45, 81
6, 58078, Note_off_c, 5, 69, 77
6, 58080, Note_on_c, 5, 76, 84
6, 58198, Note_off_c, 5, 76, 84
6, 58200, Note_on_c, 5, 72, 81
6, 58318, Note_off_c, 5, 72, 81
6, 58320, Note_on_c, 5, 71, 76
6, 58438, Note_off_c, 5, 71, 76
6, 58440, Note_on_c, 5, 69, 79
6, 58558, Note_off_c, 5, 69, 79
6, 58560, Note_on_c, 5, 45, 82
6, 58560, Note_on_c, 5, 81, 97
6, 58678, Note_off_c, 5, 81, 97
6, 58680, Note_on_c, 5, 72, 85
6, 58798, Note_off_c, 5, 72, 85
6, 58800, Note_on_c, 5, 71, 76
6, 58918, Note_off_c, 5, 71, 76
6, 58920, Note_on_c, 5, 69, 78
6, 59038, Note_off_c, 5, 45, 82
6, 59038, Note_off_c, 5, 69, 78
6, 59040, Note_on_c, 5, 76, 85
6, 59158, Note_off_c, 5, 76, 85
6, 59160, Note_on_c, 5, 72, 82
6, 59278, Note_off_c, 5, 72, 82
6, 59280, Note_on_c, 5, 71, 79
6, 59398, Note_off_c, 5, 71, 79
6, 59400, Note_on_c, 5, 69, 81
6, 59518, Note_off_c, 5, 69, 81
6, 59520, Note_on_c, 5, 45, 85
6, 59520, Note_on_c, 5, 81, 89
6, 59638, Note_off_c, 5, 81, 89
6, 59640, Note_on_c, 5, 72, 84
6, 59758, Note_off_c, 5, 72, 84
6, 59760, Note_on_c, 5, 71, 82
6, 59878, Note_off_c, 5, 71, 82
6, 59880, Note_on_c, 5, 69, 73
6, 59998, Note_off_c, 5, 45, 85
6, 59998, Note_off_c, 5, 69, 73
6, 60000, Note_on_c, 5, 76, 86
6, 60118, Note_off_c, 5, 76, 86
6, 60120, Note_on_c, 5, 72, 86
6, 60238, Note_off_c, 5, 72, 86
6, 60240, Note_on_c, 5, 71, 81
6, 60358, Note_off_c, 5, 71, 81
6, 60360, Note_on_c, 5, 69, 75
6, 60478, Note_off_c, 5, 69, 75
6, 60480, Note_on_c, 5, 45, 83
6, 60480, Note_on_c, 5, 81, 81
6, 60718, Note_off_c, 5, 81, 81
6, 60720, Note_on_c, 5, 69, 81
6, 60958, Note_off_c, 5, 45, 83
6, 60958, Note_off_c, 5, 69, 81
6, 61080, Note_on_c, 5, 76, 84
6, 61198, Note_off_c, 5, 76, 84
6, 61200, Note_on_c, 5, 72, 80
6, 61318, Note_off_c, 5, 72, 80
6, 61320, Note_on_c, 5, 69, 80
6, 61438, Note_off_c, 5, 69, 80
6, 61440, Note_on_c, 5, 45, 80
6, 61440, Note_on_c, 5, 81, 84
6, 61558, Note_off_c, 5, 81, 84
6, 61560, Note_on_c, 5, 76, 76
6, 61678, Note_off_c, 5, 45, 80
6, 61678, Note_off_c, 5, 76, 76
6, 61680, Note_on_c, 5, 47, 78
6, 61680, Note_on_c, 5, 72, 83
6, 61798, Note_off_c, 5, 72, 83
6, 61800, Note_on_c, 5, 69, 78
6, 61918, Note_off_c, 5, 47, 78
6, 61918, Note_off_c, 5, 69, 78
6, 61920, Note_on_c, 5, 48, 80
6, 61920, Note_on_c, 5, 81, 88
6, 62038, Note_off_c, 5, 81, 88
6, 62040, Note_on_c, 5, 79, 83
6, 62158, Note_off_c, 5, 48, 80
6, 62158, Note_off_c, 5, 79, 83
6, 62160, Note_on_c, 5, 45, 73
6, 62160, Note_on_c, 5, 77, 81
6, 62278, Note_off_c, 5, 77, 81
6, 62280, Note_on_c, 5, 76, 78
6, 62398, Note_off_c, 5, 45, 73
6, 62398, Note_off_c, 5, 76, 78
6, 62400, Note_on_c, 5, 50, 80
6, 62400, Note_on_c, 5, 77, 90
6, 62518, Note_off_c, 5, 77, 90
6, 62520, Note_on_c, 5, 81, 82
6, 62638, Note_off_c, 5, 81, 82
6, 62640, Note_on_c, 5, 79, 78
6, 62758, Note_off_c, 5, 79, 78
6, 62760, Note_on_c, 5, 81, 79
6, 62878, Note_off_c, 5, 50, 80
6, 62878, Note_off_c, 5, 81, 79
6, 62880, Note_on_c, 5, 77, 84
6, 62998, Note_off_c, 5, 77, 84
6, 63000, Note_on_c, 5, 79, 81
6, 63118, Note_off_c, 5, 79, 81
6, 63120, Note_on_c, 5, 76, 81
6, 63238, Note_off_c, 5, 76, 81
6, 63240, Note_on_c, 5, 77, 88
6, 63358, Note_off_c, 5, 77, 88
6, 63360, Note_on_c, 5, 53, 80
6, 63360, Note_on_c, 5, 74, 84
6, 63478, Note_off_c, 5, 53, 80
6, 63478, Note_off_c, 5, 74, 84
6, 63480, Note_on_c, 5, 57, 76
6, 63480, Note_on_c, 5, 77, 86
6, 63598, Note_off_c, 5, 57, 76
6, 63598, Note_off_c, 5, 77, 86
6, 63600, Note_on_c, 5, 55, 85
6, 63600, Note_on_c, 5, 76, 81
6, 63718, Note_off_c, 5, 55, 85
6, 63718, Note_off_c, 5, 76, 81
6, 63720, Note_on_c, 5, 57, 70
6, 63720, Note_on_c, 5, 77, 76
6, 63838, Note_off_c, 5, 57, 70
6, 63838, Note_off_c, 5, 77, 76
6, 63840, Note_on_c, 5, 53, 73
6, 63840, Note_on_c, 5, 74, 85
6, 63958, Note_off_c, 5, 53, 73
6, 63958, Note_off_c, 5, 74, 85
6, 63960, Note_on_c, 5, 55, 71
6, 63960, Note_on_c, 5, 76, 83
6, 64078, Note_off_c, 5, 55, 71
6, 64078, Note_off_c, 5, 76, 83
6, 64080, Note_on_c, 5, 52, 76
6, 64080, Note_on_c, 5, 72, 81
6, 64198, Note_off_c, 5, 52, 76
6, 64198, Note_off_c, 5, 72, 81
6, 64200, Note_on_c, 5, 53, 69
6, 64200, Note_on_c, 5, 74, 80
6, 64318, Note_off_c, 5, 53, 69
6, 64318, Note_off_c, 5, 74, 80
6, 64320, Note_on_c, 5, 50, 69
6, 64320, Note_on_c, 5, 71, 77
6, 64438, Note_off_c, 5, 50, 69
6, 64438, Note_off_c, 5, 71, 77
6, 64440, Note_on_c, 5, 53, 72
6, 64440, Note_on_c, 5, 74, 77
6, 64558, Note_off_c, 5, 53, 72
6, 64558, Note_off_c, 5, 74, 77
6, 64560, Note_on_c, 5, 52, 76
6, 64560, Note_on_c, 5, 72, 80
6, 64678, Note_off_c, 5, 52, 76
6, 64678, Note_off_c, 5, 72, 80
6, 64680, Note_on_c, 5, 53, 69
6, 64680, Note_on_c, 5, 74, 78
6, 64798, Note_off_c, 5, 53, 69
6, 64798, Note_off_c, 5, 74, 78
6, 64800, Note_on_c, 5, 50, 71
6, 64800, Note_on_c, 5, 71, 78
6, 64918, Note_off_c, 5, 50, 71
6, 64918, Note_off_c, 5, 71, 78
6, 64920, Note_on_c, 5, 52, 69
6, 64920, Note_on_c, 5, 72, 78
6, 65038, Note_off_c, 5, 52, 69
6, 65038, Note_off_c, 5, 72, 78
6, 65040, Note_on_c, 5, 48, 71
6, 65040, Note_on_c, 5, 69, 80
6, 65158, Note_off_c, 5, 48, 71
6, 65158, Note_off_c, 5, 69, 80
6, 65160, Note_on_c, 5, 50, 66
6, 65160, Note_on_c, 5, 71, 81
6, 65278, Note_off_c, 5, 50, 66
6, 65278, Note_off_c, 5, 71, 81
6, 65280, Note_on_c, 5, 47, 70
6, 65280, Note_on_c, 5, 67, 79
6, 65398, Note_off_c, 5, 47, 70
6, 65398, Note_off_c, 5, 67, 79
6, 65400, Note_on_c, 5, 43, 70
6, 65400, Note_on_c, 5, 71, 77
6, 65518, Note_off_c, 5, 43, 70
6, 65518, Note_off_c, 5, 71, 77
6, 65520, Note_on_c, 5, 47, 69
6, 65520, Note_on_c, 5, 74, 71
6, 65638, Note_off_c, 5, 47, 69
6, 65638, Note_off_c, 5, 74, 71
6, 65640, Note_on_c, 5, 50, 71
6, 65640, Note_on_c, 5, 71, 73
6, 65758, Note_off_c, 5, 50, 71
6, 65758, Note_off_c, 5, 71, 73
6, 65760, Note_on_c, 5, 53, 80
6, 65760, Note_on_c, 5, 67, 75
6, 65878, Note_off_c, 5, 67, 75
6, 65880, Note_on_c, 5, 71, 67
6, 65998, Note_off_c, 5, 53, 80
6, 65998, Note_off_c, 5, 71, 67
6, 66000, Note_on_c, 5, 41, 78
6, 66000, Note_on_c, 5, 69, 61
6, 66118, Note_off_c, 5, 69, 61
6, 66120, Note_on_c, 5, 67, 64
6, 66238, Note_off_c, 5, 41, 78
6, 66238, Note_off_c, 5, 67, 64
6, 66240, Note_on_c, 5, 40, 81
6, 66240, Note_on_c, 5, 72, 79
6, 66358, Note_off_c, 5, 72, 79
6, 66360, Note_on_c, 5, 64, 71
6, 66478, Note_off_c, 5, 64, 71
6, 66480, Note_on_c, 5, 62, 69
6, 66598, Note_off_c, 5, 62, 69
6, 66600, Note_on_c, 5, 64, 79
6, 66718, Note_off_c, 5, 40, 81
6, 66718, Note_off_c, 5, 64, 79
6, 66720, Note_on_c, 5, 72, 76
6, 66838, Note_off_c, 5, 72, 76
6, 66840, Note_on_c, 5, 48, 74
6, 66840, Note_on_c, 5, 71, 69
6, 66958, Note_off_c, 5, 48, 74
6, 66958, Note_off_c, 5, 71, 69
6, 66960, Note_on_c, 5, 50, 78
6, 66960, Note_on_c, 5, 69, 61
6, 67078, Note_off_c, 5, 50, 78
6, 67078, Note_off_c, 5, 69, 61
6, 67080, Note_on_c, 5, 52, 84
6, 67080, Note_on_c, 5, 67, 54
6, 67198, Note_off_c, 5, 52, 84
6, 67198, Note_off_c, 5, 67, 54
6, 67200, Note_on_c, 5, 41, 78
6, 67200, Note_on_c, 5, 69, 81
6, 67318, Note_off_c, 5, 69, 81
6, 67320, Note_on_c, 5, 65, 74
6, 67438, Note_off_c, 5, 65, 74
6, 67440, Note_on_c, 5, 64, 72
6, 67558, Note_off_c, 5, 64, 72
6, 67560, Note_on_c, 5, 65, 73
6, 67678, Note_off_c, 5, 41, 78
6, 67678, Note_off_c, 5, 65, 73
6, 67680, Note_on_c, 5, 74, 83
6, 67798, Note_off_c, 5, 74, 83
6, 67800, Note_on_c, 5, 50, 81
6, 67800, Note_on_c, 5, 72, 80
6, 67918, Note_off_c, 5, 50, 81
6, 67918, Note_off_c, 5, 72, 80
6, 67920, Note_on_c, 5, 52, 89
6, 67920, Note_on_c, 5, 71, 76
6, 68038, Note_off_c, 5, 52, 89
6, 68038, Note_off_c, 5, 71, 76
6, 68040, Note_on_c, 5, 53, 79
6, 68040, Note_on_c, 5, 69, 76
6, 68158, Note_off_c, 5, 53, 79
6, 68158, Note_off_c, 5, 69, 76
6, 68160, Note_on_c, 5, 43, 77
6, 68160, Note_on_c, 5, 71, 78
6, 68278, Note_off_c, 5, 71, 78
6, 68280, Note_on_c, 5, 67, 72
6, 68398, Note_off_c, 5, 67, 72
6, 68400, Note_on_c, 5, 65, 77
6, 68518, Note_off_c, 5, 65, 77
6, 68520, Note_on_c, 5, 67, 80
6, 68638, Note_off_c, 5, 43, 77
6, 68638, Note_off_c, 5, 67, 80
6, 68640, Note_on_c, 5, 76, 86
6, 68758, Note_off_c, 5, 76, 86
6, 68760, Note_on_c, 5, 52, 86
6, 68760, Note_on_c, 5, 74, 88
6, 68878, Note_off_c, 5, 52, 86
6, 68878, Note_off_c, 5, 74, 88
6, 68880, Note_on_c, 5, 53, 80
6, 68880, Note_on_c, 5, 72, 83
6, 68998, Note_off_c, 5, 53, 80
6, 68998, Note_off_c, 5, 72, 83
6, 69000, Note_on_c, 5, 55, 87
6, 69000, Note_on_c, 5, 71, 87
6, 69118, Note_off_c, 5, 55, 87
6, 69118, Note_off_c, 5, 71, 87
6, 69120, Note_on_c, 5, 45, 87
6, 69120, Note_on_c, 5, 72, 85
6, 69238, Note_off_c, 5, 72, 85
6, 69240, Note_on_c, 5, 69, 84
6, 69358, Note_off_c, 5, 69, 84
6, 69360, Note_on_c, 5, 67, 79
6, 69478, Note_off_c, 5, 67, 79
6, 69480, Note_on_c, 5, 69, 88
6, 69598, Note_off_c, 5, 45, 87
6, 69598, Note_off_c, 5, 69, 88
6, 69600, Note_on_c, 5, 77, 89
6, 69718, Note_off_c, 5, 77, 89
6, 69720, Note_on_c, 5, 53, 85
6, 69720, Note_on_c, 5, 76, 83
6, 69838, Note_off_c, 5, 53, 85
6, 69838, Note_off_c, 5, 76, 83
6, 69840, Note_on_c, 5, 55, 82
6, 69840, Note_on_c, 5, 74, 76
6, 69958, Note_off_c, 5, 55, 82
6, 69958, Note_off_c, 5, 74, 76
6, 69960, Note_on_c, 5, 57, 76
6, 69960, Note_on_c, 5, 72, 82
6, 70078, Note_off_c, 5, 57, 76
6, 70078, Note_off_c, 5, 72, 82
6, 70080, Note_on_c, 5, 47, 75
6, 70080, Note_on_c, 5, 74, 90
6, 70198, Note_off_c, 5, 74, 90
6, 70200, Note_on_c, 5, 71, 79
6, 70318, Note_off_c, 5, 71, 79
6, 70320, Note_on_c, 5, 69, 81
6, 70438, Note_off_c, 5, 69, 81
6, 70440, Note_on_c, 5, 71, 84
6, 70558, Note_off_c, 5, 47, 75
6, 70558, Note_off_c, 5, 71, 84
6, 70560, Note_on_c, 5, 79, 84
6, 70678, Note_off_c, 5, 79, 84
6, 70680, Note_on_c, 5, 55, 89
6, 70680, Note_on_c, 5, 77, 84
6, 70798, Note_off_c, 5, 55, 89
6, 70798, Note_off_c, 5, 77, 84
6, 70800, Note_on_c, 5, 57, 75
6, 70800, Note_on_c, 5, 76, 79
6, 70918, Note_off_c, 5, 57, 75
6, 70918, Note_off_c, 5, 76, 79
6, 70920, Note_on_c, 5, 59, 80
6, 70920, Note_on_c, 5, 74, 69
6, 71038, Note_off_c, 5, 59, 80
6, 71038, Note_off_c, 5, 74, 69
6, 71040, Note_on_c, 5, 48, 87
6, 71040, Note_on_c, 5, 76, 85
6, 71158, Note_off_c, 5, 76, 85
6, 71160, Note_on_c, 5, 72, 81
6, 71278, Note_off_c, 5, 72, 81
6, 71280, Note_on_c, 5, 71, 75
6, 71398, Note_off_c, 5, 71, 75
6, 71400, Note_on_c, 5, 72, 87
6, 71518, Note_off_c, 5, 48, 87
6, 71518, Note_off_c, 5, 72, 87
6, 71520, Note_on_c, 5, 84, 87
6, 71638, Note_off_c, 5, 84, 87
6, 71640, Note_on_c, 5, 48, 81
6, 71640, Note_on_c, 5, 83, 83
6, 71758, Note_off_c, 5, 48, 81
6, 71758, Note_off_c, 5, 83, 83
6, 71760, Note_on_c, 5, 50, 78
6, 71760, Note_on_c, 5, 81, 78
6, 71878, Note_off_c, 5, 50, 78
6, 71878, Note_off_c, 5, 81, 78
6, 71880, Note_on_c, 5, 52, 77
6, 71880, Note_on_c, 5, 79, 75
6, 71998, Note_off_c, 5, 52, 77
6, 71998, Note_off_c, 5, 79, 75
6, 72000, Note_on_c, 5, 41, 80
6, 72000, Note_on_c, 5, 81, 81
6, 72118, Note_off_c, 5, 81, 81
6, 72120, Note_on_c, 5, 77, 83
6, 72238, Note_off_c, 5, 77, 83
6, 72240, Note_on_c, 5, 76, 76
6, 72358, Note_off_c, 5, 76, 76
6, 72360, Note_on_c, 5, 77, 89
6, 72478, Note_off_c, 5, 41, 80
6, 72478, Note_off_c, 5, 77, 89
6, 72480, Note_on_c, 5, 86, 83
6, 72598, Note_off_c, 5, 86, 83
6, 72600, Note_on_c, 5, 50, 72
6, 72600, Note_on_c, 5, 84, 88
6, 72718, Note_off_c, 5, 50, 72
6, 72718, Note_off_c, 5, 84, 88
6, 72720, Note_on_c, 5, 52, 75
6, 72720, Note_on_c, 5, 83, 77
6, 72838, Note_off_c, 5, 52, 75
6, 72838, Note_off_c, 5, 83, 77
6, 72840, Note_on_c, 5, 54, 71
6, 72840, Note_on_c, 5, 81, 79
6, 72958, Note_off_c, 5, 54, 71
6, 72958, Note_off_c, 5, 81, 79
6, 72960, Note_on_c, 5, 43, 83
6, 72960, Note_on_c, 5, 83, 91
6, 73198, Note_off_c, 5, 43, 83
6, 73198, Note_off_c, 5, 83, 91
6, 73200, Note_on_c, 5, 55, 88
6, 73200, Note_on_c, 5, 79, 88
6, 73318, Note_off_c, 5, 55, 88
6, 73320, Note_on_c, 5, 57, 86
6, 73438, Note_off_c, 5, 79, 88
6, 73438, Note_off_c, 5, 57, 86
6, 73440, Note_on_c, 5, 59, 80
6, 73678, Note_off_c, 5, 59, 80
6, 73680, Note_on_c, 5, 55, 82
6, 73680, Note_on_c, 5, 79, 87
6, 73918, Note_off_c, 5, 55, 82
6, 73918, Note_off_c, 5, 79, 87
6, 73920, Note_on_c, 5, 48, 72
6, 73920, Note_on_c, 5, 76, 86
6, 74158, Note_off_c, 5, 48, 72
6, 74158, Note_off_c, 5, 76, 86
6, 74160, Note_on_c, 5, 60, 73
6, 74160, Note_on_c, 5, 72, 82
6, 74398, Note_off_c, 5, 60, 73
6, 74398, Note_off_c, 5, 72, 82
6, 74400, Note_on_c, 5, 59, 64
6, 74638, Note_off_c, 5, 59, 64
6, 74640, Note_on_c, 5, 55, 77
6, 74640, Note_on_c, 5, 79, 86
6, 74878, Note_off_c, 5, 55, 77
6, 74878, Note_off_c, 5, 79, 86
6, 74880, Note_on_c, 5, 76, 84
6, 75118, Note_off_c, 5, 76, 84
6, 75120, Note_on_c, 5, 60, 78
6, 75120, Note_on_c, 5, 72, 80
6, 75358, Note_off_c, 5, 60, 78
6, 75358, Note_off_c, 5, 72, 80
6, 75360, Note_on_c, 5, 59, 75
6, 75598, Note_off_c, 5, 59, 75
6, 75600, Note_on_c, 5, 55, 80
6, 75600, Note_on_c, 5, 79, 85
6, 75838, Note_off_c, 5, 55, 80
6, 75838, Note_off_c, 5, 79, 85
6, 75840, Note_on_c, 5, 76, 82
6, 76078, Note_off_c, 5, 76, 82
6, 76080, Note_on_c, 5, 60, 75
6, 76080, Note_on_c, 5, 72, 80
6, 76318, Note_off_c, 5, 60, 75
6, 76318, Note_off_c, 5, 72, 80
6, 76320, Note_on_c, 5, 59, 69
6, 76558, Note_off_c, 5, 59, 69
6, 76560, Note_on_c, 5, 55, 81
6, 76560, Note_on_c, 5, 79, 91
6, 76798, Note_off_c, 5, 55, 81
6, 76798, Note_off_c, 5, 79, 91
6, 76800, Note_on_c, 5, 48, 70
6, 76800, Note_on_c, 5, 77, 84
6, 76858, Note_off_c, 5, 77, 84
6, 76860, Note_on_c, 5, 76, 79
6, 76918, Note_off_c, 5, 76, 79
6, 76920, Note_on_c, 5, 77, 81
6, 76978, Note_off_c, 5, 77, 81
6, 76980, Note_on_c, 5, 76, 80
6, 77038, Note_off_c, 5, 48, 70
6, 77038, Note_off_c, 5, 76, 80
6, 77040, Note_on_c, 5, 60, 71
6, 77040, Note_on_c, 5, 72, 73
6, 77158, Note_off_c, 5, 72, 73
6, 77160, Note_on_c, 5, 74, 76
6, 77278, Note_off_c, 5, 60, 71
6, 77278, Note_off_c, 5, 74, 76
6, 77280, Note_on_c, 5, 48, 68
6, 77280, Note_on_c, 5, 76, 82
6, 77518, Note_off_c, 5, 76, 82
6, 77520, Note_on_c, 5, 76, 79
6, 77758, Note_off_c, 5, 48, 68
6, 77758, Note_off_c, 5, 76, 79
6, 77760, Note_on_c, 5, 77, 85
6, 77818, Note_off_c, 5, 77, 85
6, 77820, Note_on_c, 5, 76, 79
6, 77878, Note_off_c, 5, 76, 79
6, 77880, Note_on_c, 5, 77, 74
6, 77938, Note_off_c, 5, 77, 74
6, 77940, Note_on_c, 5, 76, 75
6, 77998, Note_off_c, 5, 76, 75
6, 78000, Note_on_c, 5, 60, 80
6, 78000, Note_on_c, 5, 72, 74
6, 78118, Note_off_c, 5, 72, 74
6, 78120, Note_on_c, 5, 74, 79
6, 78238, Note_off_c, 5, 60, 80
6, 78238, Note_off_c, 5, 74, 79
6, 78240, Note_on_c, 5, 48, 77
6, 78240, Note_on_c, 5, 76, 85
6, 78478, Note_off_c, 5, 76, 85
6, 78480, Note_on_c, 5, 76, 83
6, 78718, Note_off_c, 5, 48, 77
6, 78718, Note_off_c, 5, 76, 83
6, 78720, Note_on_c, 5, 76, 84
6, 78958, Note_off_c, 5, 76, 84
6, 78960, Note_on_c, 5, 60, 84
6, 78960, Note_on_c, 5, 76, 80
6, 79078, Note_off_c, 5, 60, 84
6, 79080, Note_on_c, 5, 59, 82
6, 79198, Note_off_c, 5, 76, 80
6, 79198, Note_off_c, 5, 59, 82
6, 79200, Note_on_c, 5, 60, 86
6, 79200, Note_on_c, 5, 77, 84
6, 79258, Note_off_c, 5, 77, 84
6, 79260, Note_on_c, 5, 76, 76
6, 79318, Note_off_c, 5, 76, 76
6, 79320, Note_on_c, 5, 77, 80
6, 79378, Note_off_c, 5, 77, 80
6, 79380, Note_on_c, 5, 76, 75
6, 79438, Note_off_c, 5, 60, 86
6, 79438, Note_off_c, 5, 76, 75
6, 79440, Note_on_c, 5, 48, 84
6, 79440, Note_on_c, 5, 74, 78
6, 79558, Note_off_c, 5, 74, 78
6, 79560, Note_on_c, 5, 72, 77
6, 79678, Note_off_c, 5, 48, 84
6, 79678, Note_off_c, 5, 72, 77
6, 79680, Note_on_c, 5, 55, 92
6, 79680, Note_on_c, 5, 71, 84
6, 80158, Note_off_c, 5, 55, 92
6, 80158, Note_off_c, 5, 71, 84
6, 104640, Note_on_c, 5, 52, 76
6, 104640, Note_on_c, 5, 77, 74
6, 104698, Note_off_c, 5, 77, 74
6, 104700, Note_on_c, 5, 76, 71
6, 104758, Note_off_c, 5, 76, 71
6, 104760, Note_on_c, 5, 77, 78
6, 104818, Note_off_c, 5, 77, 78
6, 104820, Note_on_c, 5, 76, 70
6, 104878, Note_off_c, 5, 52, 76
6, 104878, Note_off_c, 5, 76, 70
6, 104880, Note_on_c, 5, 40, 68
6, 104880, Note_on_c, 5, 77, 76
6, 104938, Note_off_c, 5, 77, 76
6, 104940, Note_on_c, 5, 76, 69
6, 104998, Note_off_c, 5, 76, 69
6, 105000, Note_on_c, 5, 77, 73
6, 105058, Note_off_c, 5, 77, 73
6, 105060, Note_on_c, 5, 76, 71
6, 105118, Note_off_c, 5, 40, 68
6, 105118, Note_off_c, 5, 76, 71
6, 105120, Note_on_c, 5, 77, 74
6, 105178, Note_off_c, 5, 77, 74
6, 105180, Note_on_c, 5, 76, 68
6, 105238, Note_off_c, 5, 76, 68
6, 105240, Note_on_c, 5, 77, 74
6, 105298, Note_off_c, 5, 77, 74
6, 105300, Note_on_c, 5, 76, 68
6, 105358, Note_off_c, 5, 76, 68
6, 105360, Note_on_c, 5, 55, 76
6, 105360, Note_on_c, 5, 77, 74
6, 105418, Note_off_c, 5, 77, 74
6, 105420, Note_on_c, 5, 76, 64
6, 105478, Note_off_c, 5, 76, 64
6, 105480, Note_on_c, 5, 77, 75
6, 105538, Note_off_c, 5, 77, 75
6, 105540, Note_on_c, 5, 76, 66
6, 105598, Note_off_c, 5, 55, 76
6, 105598, Note_off_c, 5, 76, 66
6, 105600, Note_on_c, 5, 57, 76
6, 105600, Note_on_c, 5, 77, 84
6, 105658, Note_off_c, 5, 77, 84
6, 105660, Note_on_c, 5, 76, 76
6, 105718, Note_off_c, 5, 76, 76
6, 105720, Note_on_c, 5, 77, 81
6, 105778, Note_off_c, 5, 77, 81
6, 105780, Note_on_c, 5, 76, 73
6, 105838, Note_off_c, 5, 57, 76
6, 105838, Note_off_c, 5, 76, 73
6, 105840, Note_on_c, 5, 45, 69
6, 105840, Note_on_c, 5, 77, 78
6, 105898, Note_off_c, 5, 77, 78
6, 105900, Note_on_c, 5, 76, 69
6, 105958, Note_off_c, 5, 76, 69
6, 105960, Note_on_c, 5, 77, 76
6, 106018, Note_off_c, 5, 77, 76
6, 106020, Note_on_c, 5, 76, 70
6, 106078, Note_off_c, 5, 45, 69
6, 106078, Note_off_c, 5, 76, 70
6, 106080, Note_on_c, 5, 77, 76
6, 106138, Note_off_c, 5, 77, 76
6, 106140, Note_on_c, 5, 76, 70
6, 106198, Note_off_c, 5, 76, 70
6, 106200, Note_on_c, 5, 77, 72
6, 106258, Note_off_c, 5, 77, 72
6, 106260, Note_on_c, 5, 76, 67
6, 106318, Note_off_c, 5, 76, 67
6, 106320, Note_on_c, 5, 57, 63
6, 106320, Note_on_c, 5, 77, 70
6, 106378, Note_off_c, 5, 77, 70
6, 106380, Note_on_c, 5, 76, 66
6, 106438, Note_off_c, 5, 76, 66
6, 106440, Note_on_c, 5, 77, 73
6, 106498, Note_off_c, 5, 77, 73
6, 106500, Note_on_c, 5, 76, 69
6, 106558, Note_off_c, 5, 57, 63
6, 106558, Note_off_c, 5, 76, 69
6, 106560, Note_on_c, 5, 58, 76
6, 106560, Note_on_c, 5, 79, 81
6, 106618, Note_off_c, 5, 79, 81
6, 106620, Note_on_c, 5, 78, 71
6, 106678, Note_off_c, 5, 78, 71
6, 106680, Note_on_c, 5, 79, 74
6, 106738, Note_off_c, 5, 79, 74
6, 106740, Note_on_c, 5, 78, 74
6, 106798, Note_off_c, 5, 58, 76
6, 106798, Note_off_c, 5, 78, 74
6, 106800, Note_on_c, 5, 46, 66
6, 106800, Note_on_c, 5, 79, 72
6, 106858, Note_off_c, 5, 79, 72
6, 106860, Note_on_c, 5, 78, 70
6, 106918, Note_off_c, 5, 78, 70
6, 106920, Note_on_c, 5, 79, 73
6, 106978, Note_off_c, 5, 79, 73
6, 106980, Note_on_c, 5, 78, 68
6, 107038, Note_off_c, 5, 46, 66
6, 107038, Note_off_c, 5, 78, 68
6, 107040, Note_on_c, 5, 79, 73
6, 107098, Note_off_c, 5, 79, 73
6, 107100, Note_on_c, 5, 78, 65
6, 107158, Note_off_c, 5, 78, 65
6, 107160, Note_on_c, 5, 79, 71
6, 107218, Note_off_c, 5, 79, 71
6, 107220, Note_on_c, 5, 78, 66
6, 107278, Note_off_c, 5, 78, 66
6, 107280, Note_on_c, 5, 58, 80
6, 107280, Note_on_c, 5, 79, 71
6, 107338, Note_off_c, 5, 79, 71
6, 107340, Note_on_c, 5, 78, 66
6, 107398, Note_off_c, 5, 78, 66
6, 107400, Note_on_c, 5, 79, 71
6, 107458, Note_off_c, 5, 79, 71
6, 107460, Note_on_c, 5, 78, 68
6, 107518, Note_off_c, 5, 58, 80
6, 107518, Note_off_c, 5, 78, 68
6, 107520, Note_on_c, 5, 59, 80
6, 107520, Note_on_c, 5, 79, 72
6, 107578, Note_off_c, 5, 79, 72
6, 107580, Note_on_c, 5, 78, 68
6, 107638, Note_off_c, 5, 78, 68
6, 107640, Note_on_c, 5, 79, 73
6, 107698, Note_off_c, 5, 79, 73
6, 107700, Note_on_c, 5, 78, 64
6, 107758, Note_off_c, 5, 59, 80
6, 107758, Note_off_c, 5, 78, 64
6, 107760, Note_on_c, 5, 47, 73
6, 107760, Note_on_c, 5, 79, 74
6, 107818, Note_off_c, 5, 79, 74
6, 107820, Note_on_c, 5, 78, 68
6, 107878, Note_off_c, 5, 78, 68
6, 107880, Note_on_c, 5, 79, 74
6, 107938, Note_off_c, 5, 79, 74
6, 107940, Note_on_c, 5, 78, 64
6, 107998, Note_off_c, 5, 47, 73
6, 107998, Note_off_c, 5, 78, 64
6, 108000, Note_on_c, 5, 79, 69
6, 108058, Note_off_c, 5, 79, 69
6, 108060, Note_on_c, 5, 78, 68
6, 108118, Note_off_c, 5, 78, 68
6, 108120, Note_on_c, 5, 79, 71
6, 108178, Note_off_c, 5, 79, 71
6, 108180, Note_on_c, 5, 78, 62
6, 108238, Note_off_c, 5, 78, 62
6, 108240, Note_on_c, 5, 59, 77
6, 108240, Note_on_c, 5, 79, 68
6, 108298, Note_off_c, 5, 79, 68
6, 108300, Note_on_c, 5, 78, 66
6, 108358, Note_off_c, 5, 78, 66
6, 108360, Note_on_c, 5, 79, 61
6, 108418, Note_off_c, 5, 79, 61
6, 108420, Note_on_c, 5, 78, 67
6, 108478, Note_off_c, 5, 59, 77
6, 108478, Note_off_c, 5, 78, 67
6, 108480, Note_on_c, 5, 59, 79
6, 108480, Note_on_c, 5, 81, 66
6, 108538, Note_off_c, 5, 81, 66
6, 108540, Note_on_c, 5, 79, 66
6, 108598, Note_off_c, 5, 79, 66
6, 108600, Note_on_c, 5, 81, 71
6, 108658, Note_off_c, 5, 81, 71
6, 108660, Note_on_c, 5, 79, 66
6, 108718, Note_off_c, 5, 59, 79
6, 108718, Note_off_c, 5, 79, 66
6, 108720, Note_on_c, 5, 47, 71
6, 108720, Note_on_c, 5, 81, 69
6, 108778, Note_off_c, 5, 81, 69
6, 108780, Note_on_c, 5, 79, 68
6, 108838, Note_off_c, 5, 79, 68
6, 108840, Note_on_c, 5, 81, 69
6, 108898, Note_off_c, 5, 81, 69
6, 108900, Note_on_c, 5, 79, 68
6, 108958, Note_off_c, 5, 47, 71
6, 108958, Note_off_c, 5, 79, 68
6, 108960, Note_on_c, 5, 81, 69
6, 109018, Note_off_c, 5, 81, 69
6, 109020, Note_on_c, 5, 79, 69
6, 109078, Note_off_c, 5, 79, 69
6, 109080, Note_on_c, 5, 81, 68
6, 109138, Note_off_c, 5, 81, 68
6, 109140, Note_on_c, 5, 79, 58
6, 109198, Note_off_c, 5, 79, 58
6, 109200, Note_on_c, 5, 59, 70
6, 109200, Note_on_c, 5, 81, 64
6, 109258, Note_off_c, 5, 81, 64
6, 109260, Note_on_c, 5, 79, 55
6, 109318, Note_off_c, 5, 79, 55
6, 109320, Note_on_c, 5, 81, 66
6, 109378, Note_off_c, 5, 81, 66
6, 109380, Note_on_c, 5, 79, 64
6, 109438, Note_off_c, 5, 59, 70
6, 109438, Note_off_c, 5, 79, 64
6, 109440, Note_on_c, 5, 60, 76
6, 109440, Note_on_c, 5, 81, 73
6, 109498, Note_off_c, 5, 81, 73
6, 109500, Note_on_c, 5, 79, 65
6, 109558, Note_off_c, 5, 79, 65
6, 109560, Note_on_c, 5, 81, 70
6, 109618, Note_off_c, 5, 81, 70
6, 109620, Note_on_c, 5, 79, 64
6, 109678, Note_off_c, 5, 60, 76
6, 109678, Note_off_c, 5, 79, 64
6, 109680, Note_on_c, 5, 48, 76
6, 109680, Note_on_c, 5, 81, 73
6, 109738, Note_off_c, 5, 81, 73
6, 109740, Note_on_c, 5, 79, 68
6, 109798, Note_off_c, 5, 79, 68
6, 109800, Note_on_c, 5, 81, 70
6, 109858, Note_off_c, 5, 81, 70
6, 109860, Note_on_c, 5, 79, 63
6, 109918, Note_off_c, 5, 48, 76
6, 109918, Note_off_c, 5, 79, 63
6, 109920, Note_on_c, 5, 81, 64
6, 109978, Note_off_c, 5, 81, 64
6, 109980, Note_on_c, 5, 79, 59
6, 110038, Note_off_c, 5, 79, 59
6, 110040, Note_on_c, 5, 81, 65
6, 110098, Note_off_c, 5, 81, 65
6, 110100, Note_on_c, 5, 79, 52
6, 110158, Note_off_c, 5, 79, 52
6, 110160, Note_on_c, 5, 60, 78
6, 110160, Note_on_c, 5, 81, 57
6, 110218, Note_off_c, 5, 81, 57
6, 110220, Note_on_c, 5, 79, 54
6, 110278, Note_off_c, 5, 79, 54
6, 110280, Note_on_c, 5, 81, 58
6, 110338, Note_off_c, 5, 81, 58
6, 110340, Note_on_c, 5, 79, 52
6, 110398, Note_off_c, 5, 60, 78
6, 110398, Note_off_c, 5, 79, 52
6, 110400, Note_on_c, 5, 60, 74
6, 110400, Note_on_c, 5, 83, 64
6, 110458, Note_off_c, 5, 83, 64
6, 110460, Note_on_c, 5, 81, 62
6, 110518, Note_off_c, 5, 81, 62
6, 110520, Note_on_c, 5, 83, 68
6, 110578, Note_off_c, 5, 83, 68
6, 110580, Note_on_c, 5, 81, 65
6, 110638, Note_off_c, 5, 60, 74
6, 110638, Note_off_c, 5, 81, 65
6, 110640, Note_on_c, 5, 48, 73
6, 110640, Note_on_c, 5, 83, 69
6, 110698, Note_off_c, 5, 83, 69
6, 110700, Note_on_c, 5, 81, 66
6, 110758, Note_off_c, 5, 81, 66
6, 110760, Note_on_c, 5, 83, 71
6, 110818, Note_off_c, 5, 83, 71
6, 110820, Note_on_c, 5, 81, 66
6, 110878, Note_off_c, 5, 48, 73
6, 110878, Note_off_c, 5, 81, 66
6, 110880, Note_on_c, 5, 83, 68
6, 110938, Note_off_c, 5, 83, 68
6, 110940, Note_on_c, 5, 81, 64
6, 110998, Note_off_c, 5, 81, 64
6, 111000, Note_on_c, 5, 83, 70
6, 111058, Note_off_c, 5, 83, 70
6, 111060, Note_on_c, 5, 81, 66
6, 111118, Note_off_c, 5, 81, 66
6, 111120, Note_on_c, 5, 60, 76
6, 111120, Note_on_c, 5, 83, 69
6, 111178, Note_off_c, 5, 83, 69
6, 111180, Note_on_c, 5, 81, 68
6, 111238, Note_off_c, 5, 81, 68
6, 111240, Note_on_c, 5, 83, 68
6, 111298, Note_off_c, 5, 83, 68
6, 111300, Note_on_c, 5, 81, 55
6, 111358, Note_off_c, 5, 60, 76
6, 111358, Note_off_c, 5, 81, 55
6, 111360, Note_on_c, 5, 59, 76
6, 111360, Note_on_c, 5, 83, 69
6, 111418, Note_off_c, 5, 83, 69
6, 111420, Note_on_c, 5, 81, 68
6, 111478, Note_off_c, 5, 81, 68
6, 111480, Note_on_c, 5, 83, 72
6, 111538, Note_off_c, 5, 83, 72
6, 111540, Note_on_c, 5, 81, 68
6, 111598, Note_off_c, 5, 59, 76
6, 111598, Note_off_c, 5, 81, 68
6, 111600, Note_on_c, 5, 47, 74
6, 111600, Note_on_c, 5, 83, 75
6, 111658, Note_off_c, 5, 83, 75
6, 111660, Note_on_c, 5, 81, 66
6, 111718, Note_off_c, 5, 81, 66
6, 111720, Note_on_c, 5, 83, 67
6, 111778, Note_off_c, 5, 83, 67
6, 111780, Note_on_c, 5, 81, 64
6, 111838, Note_off_c, 5, 47, 74
6, 111838, Note_off_c, 5, 81, 64
6, 111840, Note_on_c, 5, 83, 69
6, 111898, Note_off_c, 5, 83, 69
6, 111900, Note_on_c, 5, 81, 64
6, 111958, Note_off_c, 5, 81, 64
6, 111960, Note_on_c, 5, 83, 71
6, 112018, Note_off_c, 5, 83, 71
6, 112020, Note_on_c, 5, 81, 61
6, 112078, Note_off_c, 5, 81, 61
6, 112080, Note_on_c, 5, 59, 76
6, 112080, Note_on_c, 5, 83, 66
6, 112138, Note_off_c, 5, 83, 66
6, 112140, Note_on_c, 5, 81, 64
6, 112198, Note_off_c, 5, 81, 64
6, 112200, Note_on_c, 5, 83, 66
6, 112258, Note_off_c, 5, 83, 66
6, 112260, Note_on_c, 5, 81, 50
6, 112318, Note_off_c, 5, 59, 76
6, 112318, Note_off_c, 5, 81, 50
6, 112320, Note_on_c, 5, 59, 81
6, 112320, Note_on_c, 5, 81, 57
6, 112378, Note_off_c, 5, 81, 57
6, 112380, Note_on_c, 5, 79, 59
6, 112438, Note_off_c, 5, 79, 59
6, 112440, Note_on_c, 5, 81, 66
6, 112498, Note_off_c, 5, 81, 66
6, 112500, Note_on_c, 5, 79, 56
6, 112558, Note_off_c, 5, 59, 81
6, 112558, Note_off_c, 5, 79, 56
6, 112560, Note_on_c, 5, 47, 73
6, 112560, Note_on_c, 5, 81, 67
6, 112618, Note_off_c, 5, 81, 67
6, 112620, Note_on_c, 5, 79, 58
6, 112678, Note_off_c, 5, 79, 58
6, 112680, Note_on_c, 5, 81, 66
6, 112738, Note_off_c, 5, 81, 66
6, 112740, Note_on_c, 5, 79, 63
6, 112798, Note_off_c, 5, 47, 73
6, 112798, Note_off_c, 5, 79, 63
6, 112800, Note_on_c, 5, 81, 68
6, 112858, Note_off_c, 5, 81, 68
6, 112860, Note_on_c, 5, 79, 65
6, 112918, Note_off_c, 5, 79, 65
6, 112920, Note_on_c, 5, 81, 66
6, 112978, Note_off_c, 5, 81, 66
6, 112980, Note_on_c, 5, 79, 64
6, 113038, Note_off_c, 5, 79, 64
6, 113040, Note_on_c, 5, 59, 76
6, 113040, Note_on_c, 5, 81, 64
6, 113098, Note_off_c, 5, 81, 64
6, 113100, Note_on_c, 5, 79, 62
6, 113158, Note_off_c, 5, 79, 62
6, 113160, Note_on_c, 5, 81, 68
6, 113218, Note_off_c, 5, 81, 68
6, 113220, Note_on_c, 5, 79, 67
6, 113278, Note_off_c, 5, 59, 76
6, 113278, Note_off_c, 5, 79, 67
6, 113280, Note_on_c, 5, 59, 82
6, 113280, Note_on_c, 5, 79, 64
6, 113338, Note_off_c, 5, 79, 64
6, 113340, Note_on_c, 5, 78, 61
6, 113398, Note_off_c, 5, 78, 61
6, 113400, Note_on_c, 5, 79, 65
6, 113458, Note_off_c, 5, 79, 65
6, 113460, Note_on_c, 5, 78, 60
6, 113518, Note_off_c, 5, 59, 82
6, 113518, Note_off_c, 5, 78, 60
6, 113520, Note_on_c, 5, 47, 73
6, 113520, Note_on_c, 5, 79, 59
6, 113578, Note_off_c, 5, 79, 59
6, 113580, Note_on_c, 5, 78, 64
6, 113638, Note_off_c, 5, 78, 64
6, 113640, Note_on_c, 5, 79, 68
6, 113698, Note_off_c, 5, 79, 68
6, 113700, Note_on_c, 5, 78, 58
6, 113758, Note_off_c, 5, 47, 73
6, 113758, Note_off_c, 5, 78, 58
6, 113760, Note_on_c, 5, 79, 69
6, 113818, Note_off_c, 5, 79, 69
6, 113820, Note_on_c, 5, 78, 64
6, 113878, Note_off_c, 5, 78, 64
6, 113880, Note_on_c, 5, 79, 70
6, 113938, Note_off_c, 5, 79, 70
6, 113940, Note_on_c, 5, 78, 59
6, 113998, Note_off_c, 5, 78, 59
6, 114000, Note_on_c, 5, 59, 79
6, 114000, Note_on_c, 5, 79, 66
6, 114058, Note_off_c, 5, 79, 66
6, 114060, Note_on_c, 5, 78, 65
6, 114118, Note_off_c, 5, 78, 65
6, 114120, Note_on_c, 5, 79, 74
6, 114178, Note_off_c, 5, 79, 74
6, 114180, Note_on_c, 5, 78, 69
6, 114238, Note_off_c, 5, 59, 79
6, 114238, Note_off_c, 5, 78, 69
6, 114240, Note_on_c, 5, 59, 82
6, 114240, Note_on_c, 5, 79, 76
6, 114298, Note_off_c, 5, 79, 76
6, 114300, Note_on_c, 5, 78, 71
6, 114358, Note_off_c, 5, 78, 71
6, 114360, Note_on_c, 5, 79, 80
6, 114418, Note_off_c, 5, 79, 80
6, 114420, Note_on_c, 5, 78, 74
6, 114478, Note_off_c, 5, 59, 82
6, 114478, Note_off_c, 5, 78, 74
6, 114480, Note_on_c, 5, 47, 75
6, 114480, Note_on_c, 5, 79, 82
6, 114538, Note_off_c, 5, 79, 82
6, 114540, Note_on_c, 5, 78, 73
6, 114598, Note_off_c, 5, 78, 73
6, 114600, Note_on_c, 5, 79, 83
6, 114658, Note_off_c, 5, 79, 83
6, 114660, Note_on_c, 5, 78, 80
6, 114718, Note_off_c, 5, 47, 75
6, 114718, Note_off_c, 5, 78, 80
6, 114720, Note_on_c, 5, 79, 86
6, 114778, Note_off_c, 5, 79, 86
6, 114780, Note_on_c, 5, 78, 80
6, 114838, Note_off_c, 5, 78, 80
6, 114840, Note_on_c, 5, 79, 85
6, 114898, Note_off_c, 5, 79, 85
6, 114900, Note_on_c, 5, 78, 83
6, 114958, Note_off_c, 5, 78, 83
6, 114960, Note_on_c, 5, 59, 78
6, 114960, Note_on_c, 5, 79, 87
6, 115018, Note_off_c, 5, 79, 87
6, 115020, Note_on_c, 5, 78, 79
6, 115078, Note_off_c, 5, 78, 79
6, 115080, Note_on_c, 5, 79, 86
6, 115138, Note_off_c, 5, 79, 86
6, 115140, Note_on_c, 5, 78, 88
6, 115198, Note_off_c, 5, 59, 78
6, 115198, Note_off_c, 5, 78, 88
6, 115200, Note_on_c, 5, 64, 79
6, 115200, Note_on_c, 5, 76, 80
6, 115318, Note_off_c, 5, 76, 80
6, 115320, Note_on_c, 5, 71, 77
6, 115438, Note_off_c, 5, 64, 79
6, 115438, Note_off_c, 5, 71, 77
6, 115440, Note_on_c, 5, 59, 73
6, 115440, Note_on_c, 5, 67, 75
6, 115558, Note_off_c, 5, 67, 75
6, 115560, Note_on_c, 5, 71, 75
6, 115678, Note_off_c, 5, 59, 73
6, 115678, Note_off_c, 5, 71, 75
6, 115680, Note_on_c, 5, 55, 69
6, 115680, Note_on_c, 5, 76, 80
6, 115798, Note_off_c, 5, 76, 80
6, 115800, Note_on_c, 5, 79, 87
6, 115918, Note_off_c, 5, 55, 69
6, 115918, Note_off_c, 5, 79, 87
6, 115920, Note_on_c, 5, 60, 70
6, 115920, Note_on_c, 5, 78, 79
6, 116038, Note_off_c, 5, 78, 79
6, 116040, Note_on_c, 5, 76, 80
6, 116158, Note_off_c, 5, 60, 70
6, 116158, Note_off_c, 5, 76, 80
6, 116160, Note_on_c, 5, 57, 72
6, 116160, Note_on_c, 5, 78, 76
6, 116278, Note_off_c, 5, 78, 76
6, 116280, Note_on_c, 5, 75, 73
6, 116398, Note_off_c, 5, 57, 72
6, 116398, Note_off_c, 5, 75, 73
6, 116400, Note_on_c, 5, 54, 68
6, 116400, Note_on_c, 5, 71, 72
6, 116518, Note_off_c, 5, 71, 72
6, 116520, Note_on_c, 5, 75, 70
6, 116638, Note_off_c, 5, 54, 68
6, 116638, Note_off_c, 5, 75, 70
6, 116640, Note_on_c, 5, 59, 71
6, 116640, Note_on_c, 5, 78, 78
6, 116758, Note_off_c, 5, 78, 78
6, 116760, Note_on_c, 5, 81, 78
6, 116878, Note_off_c, 5, 59, 71
6, 116878, Note_off_c, 5, 81, 78
6, 116880, Note_on_c, 5, 47, 72
6, 116880, Note_on_c, 5, 79, 76
6, 116998, Note_off_c, 5, 79, 76
6, 117000, Note_on_c, 5, 78, 74
6, 117118, Note_off_c, 5, 47, 72
6, 117118, Note_off_c, 5, 78, 74
6, 117120, Note_on_c, 5, 52, 77
6, 117120, Note_on_c, 5, 79, 76
6, 117238, Note_off_c, 5, 52, 77
6, 117238, Note_off_c, 5, 79, 76
6, 117240, Note_on_c, 5, 55, 82
6, 117240, Note_on_c, 5, 76, 79
6, 117358, Note_off_c, 5, 55, 82
6, 117358, Note_off_c, 5, 76, 79
6, 117360, Note_on_c, 5, 54, 75
6, 117360, Note_on_c, 5, 78, 73
6, 117478, Note_off_c, 5, 54, 75
6, 117478, Note_off_c, 5, 78, 73
6, 117480, Note_on_c, 5, 52, 79
6, 117480, Note_on_c, 5, 79, 80
6, 117598, Note_off_c, 5, 52, 79
6, 117598, Note_off_c, 5, 79, 80
6, 117600, Note_on_c, 5, 57, 74
6, 117600, Note_on_c, 5, 73, 71
6, 117718, Note_off_c, 5, 57, 74
6, 117718, Note_off_c, 5, 73, 71
6, 117720, Note_on_c, 5, 59, 75
6, 117720, Note_on_c, 5, 79, 78
6, 117838, Note_off_c, 5, 59, 75
6, 117838, Note_off_c, 5, 79, 78
6, 117840, Note_on_c, 5, 61, 72
6, 117840, Note_on_c, 5, 81, 76
6, 117958, Note_off_c, 5, 61, 72
6, 117958, Note_off_c, 5, 81, 76
6, 117960, Note_on_c, 5, 57, 72
6, 117960, Note_on_c, 5, 79, 71
6, 118078, Note_off_c, 5, 57, 72
6, 118078, Note_off_c, 5, 79, 71
6, 118080, Note_on_c, 5, 62, 83
6, 118080, Note_on_c, 5, 77, 80
6, 118198, Note_off_c, 5, 62, 83
6, 118198, Note_off_c, 5, 77, 80
6, 118200, Note_on_c, 5, 53, 80
6, 118200, Note_on_c, 5, 74, 73
6, 118318, Note_off_c, 5, 53, 80
6, 118318, Note_off_c, 5, 74, 73
6, 118320, Note_on_c, 5, 52, 76
6, 118320, Note_on_c, 5, 76, 76
6, 118438, Note_off_c, 5, 52, 76
6, 118438, Note_off_c, 5, 76, 76
6, 118440, Note_on_c, 5, 50, 70
6, 118440, Note_on_c, 5, 77, 76
6, 118558, Note_off_c, 5, 50, 70
6, 118558, Note_off_c, 5, 77, 76
6, 118560, Note_on_c, 5, 55, 80
6, 118560, Note_on_c, 5, 71, 64
6, 118678, Note_off_c, 5, 55, 80
6, 118678, Note_off_c, 5, 71, 64
6, 118680, Note_on_c, 5, 57, 79
6, 118680, Note_on_c, 5, 77, 76
6, 118798, Note_off_c, 5, 57, 79
6, 118798, Note_off_c, 5, 77, 76
6, 118800, Note_on_c, 5, 59, 75
6, 118800, Note_on_c, 5, 79, 74
6, 118918, Note_off_c, 5, 59, 75
6, 118918, Note_off_c, 5, 79, 74
6, 118920, Note_on_c, 5, 55, 90
6, 118920, Note_on_c, 5, 77, 79
6, 119038, Note_off_c, 5, 55, 90
6, 119038, Note_off_c, 5, 77, 79
6, 119040, Note_on_c, 5, 60, 87
6, 119040, Note_on_c, 5, 76, 80
6, 119158, Note_off_c, 5, 60, 87
6, 119158, Note_off_c, 5, 76, 80
6, 119160, Note_on_c, 5, 52, 80
6, 119160, Note_on_c, 5, 72, 78
6, 119278, Note_off_c, 5, 52, 80
6, 119278, Note_off_c, 5, 72, 78
6, 119280, Note_on_c, 5, 50, 74
6, 119280, Note_on_c, 5, 74, 80
6, 119398, Note_off_c, 5, 50, 74
6, 119398, Note_off_c, 5, 74, 80
6, 119400, Note_on_c, 5, 48, 80
6, 119400, Note_on_c, 5, 76, 76
6, 119518, Note_off_c, 5, 48, 80
6, 119518, Note_off_c, 5, 76, 76
6, 119520, Note_on_c, 5, 53, 83
6, 119520, Note_on_c, 5, 69, 75
6, 119638, Note_off_c, 5, 53, 83
6, 119638, Note_off_c, 5, 69, 75
6, 119640, Note_on_c, 5, 55, 83
6, 119640, Note_on_c, 5, 76, 76
6, 119758, Note_off_c, 5, 55, 83
6, 119758, Note_off_c, 5, 76, 76
6, 119760, Note_on_c, 5, 57, 74
6, 119760, Note_on_c, 5, 77, 79
6, 119878, Note_off_c, 5, 57, 74
6, 119878, Note_off_c, 5, 77, 79
6, 119880, Note_on_c, 5, 53, 79
6, 119880, Note_on_c, 5, 76, 72
6, 119998, Note_off_c, 5, 53, 79
6, 119998, Note_off_c, 5, 76, 72
6, 120000, Note_on_c, 5, 59, 81
6, 120000, Note_on_c, 5, 74, 76
6, 120118, Note_off_c, 5, 59, 81
6, 120118, Note_off_c, 5, 74, 76
6, 120120, Note_on_c, 5, 50, 78
6, 120120, Note_on_c, 5, 71, 70
6, 120238, Note_off_c, 5, 50, 78
6, 120238, Note_off_c, 5, 71, 70
6, 120240, Note_on_c, 5, 48, 73
6, 120240, Note_on_c, 5, 72, 70
6, 120358, Note_off_c, 5, 48, 73
6, 120358, Note_off_c, 5, 72, 70
6, 120360, Note_on_c, 5, 47, 69
6, 120360, Note_on_c, 5, 74, 76
6, 120478, Note_off_c, 5, 47, 69
6, 120478, Note_off_c, 5, 74, 76
6, 120480, Note_on_c, 5, 52, 78
6, 120480, Note_on_c, 5, 68, 67
6, 120598, Note_off_c, 5, 52, 78
6, 120598, Note_off_c, 5, 68, 67
6, 120600, Note_on_c, 5, 54, 75
6, 120600, Note_on_c, 5, 74, 73
6, 120718, Note_off_c, 5, 54, 75
6, 120718, Note_off_c, 5, 74, 73
6, 120720, Note_on_c, 5, 56, 75
6, 120720, Note_on_c, 5, 76, 74
6, 120838, Note_off_c, 5, 56, 75
6, 120838, Note_off_c, 5, 76, 74
6, 120840, Note_on_c, 5, 52, 76
6, 120840, Note_on_c, 5, 74, 74
6, 120958, Note_off_c, 5, 52, 76
6, 120958, Note_off_c, 5, 74, 74
6, 120960, Note_on_c, 5, 57, 80
6, 120960, Note_on_c, 5, 72, 71
6, 121078, Note_off_c, 5, 72, 71
6, 121080, Note_on_c, 5, 69, 76
6, 121198, Note_off_c, 5, 57, 80
6, 121198, Note_off_c, 5, 69, 76
6, 121200, Note_on_c, 5, 60, 80
6, 121200, Note_on_c, 5, 81, 82
6, 121318, Note_off_c, 5, 81, 82
6, 121320, Note_on_c, 5, 72, 73
6, 121438, Note_off_c, 5, 60, 80
6, 121438, Note_off_c, 5, 72, 73
6, 121440, Note_on_c, 5, 57, 78
6, 121440, Note_on_c, 5, 78, 77
6, 121558, Note_off_c, 5, 78, 77
6, 121560, Note_on_c, 5, 72, 70
6, 121678, Note_off_c, 5, 57, 78
6, 121678, Note_off_c, 5, 72, 70
6, 121680, Note_on_c, 5, 54, 70
6, 121680, Note_on_c, 5, 74, 80
6, 121798, Note_off_c, 5, 74, 80
6, 121800, Note_on_c, 5, 69, 80
6, 121918, Note_off_c, 5, 54, 70
6, 121918, Note_off_c, 5, 69, 80
6, 121920, Note_on_c, 5, 55, 80
6, 121920, Note_on_c, 5, 70, 79
6, 122038, Note_off_c, 5, 70, 79
6, 122040, Note_on_c, 5, 67, 80
6, 122158, Note_off_c, 5, 55, 80
6, 122158, Note_off_c, 5, 67, 80
6, 122160, Note_on_c, 5, 58, 71
6, 122160, Note_on_c, 5, 79, 89
6, 122278, Note_off_c, 5, 79, 89
6, 122280, Note_on_c, 5, 70, 73
6, 122398, Note_off_c, 5, 58, 71
6, 122398, Note_off_c, 5, 70, 73
6, 122400, Note_on_c, 5, 55, 81
6, 122400, Note_on_c, 5, 76, 80
6, 122518, Note_off_c, 5, 76, 80
6, 122520, Note_on_c, 5, 70, 69
6, 122638, Note_off_c, 5, 55, 81
6, 122638, Note_off_c, 5, 70, 69
6, 122640, Note_on_c, 5, 52, 73
6, 122640, Note_on_c, 5, 72, 76
6, 122758, Note_off_c, 5, 72, 76
6, 122760, Note_on_c, 5, 67, 76
6, 122878, Note_off_c, 5, 52, 73
6, 122878, Note_off_c, 5, 67, 76
6, 122880, Note_on_c, 5, 53, 71
6, 122880, Note_on_c, 5, 69, 78
6, 122998, Note_off_c, 5, 69, 78
6, 123000, Note_on_c, 5, 65, 80
6, 123118, Note_off_c, 5, 53, 71
6, 123118, Note_off_c, 5, 65, 80
6, 123120, Note_on_c, 5, 57, 63
6, 123120, Note_on_c, 5, 77, 85
6, 123238, Note_off_c, 5, 77, 85
6, 123240, Note_on_c, 5, 69, 73
6, 123358, Note_off_c, 5, 57, 63
6, 123358, Note_off_c, 5, 69, 73
6, 123360, Note_on_c, 5, 53, 76
6, 123360, Note_on_c, 5, 74, 76
6, 123478, Note_off_c, 5, 74, 76
6, 123480, Note_on_c, 5, 69, 72
6, 123598, Note_off_c, 5, 53, 76
6, 123598, Note_off_c, 5, 69, 72
6, 123600, Note_on_c, 5, 50, 70
6, 123600, Note_on_c, 5, 70, 69
6, 123718, Note_off_c, 5, 70, 69
6, 123720, Note_on_c, 5, 65, 76
6, 123838, Note_off_c, 5, 50, 70
6, 123838, Note_off_c, 5, 65, 76
6, 123840, Note_on_c, 5, 52, 79
6, 123840, Note_on_c, 5, 67, 71
6, 123958, Note_off_c, 5, 67, 71
6, 123960, Note_on_c, 5, 64, 80
6, 124078, Note_off_c, 5, 52, 79
6, 124078, Note_off_c, 5, 64, 80
6, 124080, Note_on_c, 5, 55, 79
6, 124080, Note_on_c, 5, 76, 69
6, 124198, Note_off_c, 5, 76, 69
6, 124200, Note_on_c, 5, 67, 62
6, 124318, Note_off_c, 5, 55, 79
6, 124318, Note_off_c, 5, 67, 62
6, 124320, Note_on_c, 5, 52, 73
6, 124320, Note_on_c, 5, 73, 74
6, 124438, Note_off_c, 5, 73, 74
6, 124440, Note_on_c, 5, 67, 74
6, 124558, Note_off_c, 5, 52, 73
6, 124558, Note_off_c, 5, 67, 74
6, 124560, Note_on_c, 5, 49, 69
6, 124560, Note_on_c, 5, 69, 76
6, 124678, Note_off_c, 5, 69, 76
6, 124680, Note_on_c, 5, 64, 83
6, 124798, Note_off_c, 5, 49, 69
6, 124798, Note_off_c, 5, 64, 83
6, 124800, Note_on_c, 5, 50, 76
6, 124800, Note_on_c, 5, 65, 80
6, 124918, Note_off_c, 5, 50, 76
6, 124918, Note_off_c, 5, 65, 80
6, 124920, Note_on_c, 5, 53, 82
6, 124920, Note_on_c, 5, 62, 76
6, 125038, Note_off_c, 5, 53, 82
6, 125038, Note_off_c, 5, 62, 76
6, 125040, Note_on_c, 5, 52, 76
6, 125040, Note_on_c, 5, 64, 81
6, 125158, Note_off_c, 5, 52, 76
6, 125158, Note_off_c, 5, 64, 81
6, 125160, Note_on_c, 5, 50, 73
6, 125160, Note_on_c, 5, 65, 73
6, 125278, Note_off_c, 5, 50, 73
6, 125278, Note_off_c, 5, 65, 73
6, 125280, Note_on_c, 5, 55, 79
6, 125280, Note_on_c, 5, 59, 77
6, 125398, Note_off_c, 5, 55, 79
6, 125398, Note_off_c, 5, 59, 77
6, 125400, Note_on_c, 5, 50, 72
6, 125400, Note_on_c, 5, 65, 68
6, 125518, Note_off_c, 5, 50, 72
6, 125518, Note_off_c, 5, 65, 68
6, 125520, Note_on_c, 5, 47, 68
6, 125520, Note_on_c, 5, 67, 71
6, 125638, Note_off_c, 5, 47, 68
6, 125638, Note_off_c, 5, 67, 71
6, 125640, Note_on_c, 5, 43, 66
6, 125640, Note_on_c, 5, 65, 73
6, 125758, Note_off_c, 5, 43, 66
6, 125758, Note_off_c, 5, 65, 73
6, 125760, Note_on_c, 5, 48, 74
6, 125760, Note_on_c, 5, 64, 80
6, 125878, Note_off_c, 5, 48, 74
6, 125878, Note_off_c, 5, 64, 80
6, 125880, Note_on_c, 5, 52, 75
6, 125880, Note_on_c, 5, 60, 78
6, 125998, Note_off_c, 5, 52, 75
6, 125998, Note_off_c, 5, 60, 78
6, 126000, Note_on_c, 5, 50, 64
6, 126000, Note_on_c, 5, 62, 81
6, 126118, Note_off_c, 5, 50, 64
6, 126118, Note_off_c, 5, 62, 81
6, 126120, Note_on_c, 5, 48, 66
6, 126120, Note_on_c, 5, 64, 78
6, 126238, Note_off_c, 5, 48, 66
6, 126238, Note_off_c, 5, 64, 78
6, 126240, Note_on_c, 5, 53, 75
6, 126240, Note_on_c, 5, 57, 80
6, 126358, Note_off_c, 5, 53, 75
6, 126358, Note_off_c, 5, 57, 80
6, 126360, Note_on_c, 5, 48, 71
6, 126360, Note_on_c, 5, 64, 84
6, 126478, Note_off_c, 5, 48, 71
6, 126478, Note_off_c, 5, 64, 84
6, 126480, Note_on_c, 5, 45, 70
6, 126480, Note_on_c, 5, 65, 72
6, 126598, Note_off_c, 5, 45, 70
6, 126598, Note_off_c, 5, 65, 72
6, 126600, Note_on_c, 5, 41, 76
6, 126600, Note_on_c, 5, 64, 76
6, 126718, Note_off_c, 5, 41, 76
6, 126718, Note_off_c, 5, 64, 76
6, 126720, Note_on_c, 5, 47, 76
6, 126720, Note_on_c, 5, 62, 80
6, 126838, Note_off_c, 5, 47, 76
6, 126838, Note_off_c, 5, 62, 80
6, 126840, Note_on_c, 5, 50, 74
6, 126840, Note_on_c, 5, 59, 74
6, 126958, Note_off_c, 5, 50, 74
6, 126958, Note_off_c, 5, 59, 74
6, 126960, Note_on_c, 5, 48, 73
6, 126960, Note_on_c, 5, 60, 79
6, 127078, Note_off_c, 5, 48, 73
6, 127078, Note_off_c, 5, 60, 79
6, 127080, Note_on_c, 5, 47, 68
6, 127080, Note_on_c, 5, 62, 76
6, 127198, Note_off_c, 5, 47, 68
6, 127198, Note_off_c, 5, 62, 76
6, 127200, Note_on_c, 5, 52, 75
6, 127200, Note_on_c, 5, 56, 74
6, 127318, Note_off_c, 5, 52, 75
6, 127318, Note_off_c, 5, 56, 74
6, 127320, Note_on_c, 5, 47, 66
6, 127320, Note_on_c, 5, 62, 82
6, 127438, Note_off_c, 5, 47, 66
6, 127438, Note_off_c, 5, 62, 82
6, 127440, Note_on_c, 5, 44, 66
6, 127440, Note_on_c, 5, 64, 80
6, 127558, Note_off_c, 5, 44, 66
6, 127558, Note_off_c, 5, 64, 80
6, 127560, Note_on_c, 5, 40, 76
6, 127560, Note_on_c, 5, 62, 80
6, 127678, Note_off_c, 5, 40, 76
6, 127678, Note_off_c, 5, 62, 80
6, 127680, Note_on_c, 5, 45, 78
6, 127680, Note_on_c, 5, 60, 69
6, 127798, Note_off_c, 5, 60, 69
6, 127800, Note_on_c, 5, 57, 76
6, 127918, Note_off_c, 5, 45, 78
6, 127918, Note_off_c, 5, 57, 76
6, 127920, Note_on_c, 5, 57, 76
6, 127920, Note_on_c, 5, 60, 75
6, 128038, Note_off_c, 5, 57, 76
6, 128038, Note_off_c, 5, 60, 75
6, 128040, Note_on_c, 5, 59, 76
6, 128040, Note_on_c, 5, 64, 72
6, 128158, Note_off_c, 5, 59, 76
6, 128158, Note_off_c, 5, 64, 72
6, 128160, Note_on_c, 5, 60, 81
6, 128160, Note_on_c, 5, 69, 78
6, 128278, Note_off_c, 5, 69, 78
6, 128280, Note_on_c, 5, 67, 77
6, 128398, Note_off_c, 5, 60, 81
6, 128398, Note_off_c, 5, 67, 77
6, 128400, Note_on_c, 5, 45, 68
6, 128400, Note_on_c, 5, 57, 72
6, 128400, Note_on_c, 5, 49, 68
6, 128400, Note_on_c, 5, 52, 76
6, 128400, Note_on_c, 5, 65, 77
6, 128518, Note_off_c, 5, 65, 77
6, 128520, Note_on_c, 5, 64, 83
6, 128638, Note_off_c, 5, 45, 68
6, 128638, Note_off_c, 5, 57, 72
6, 128638, Note_off_c, 5, 49, 68
6, 128638, Note_off_c, 5, 52, 76
6, 128638, Note_off_c, 5, 64, 83
6, 128640, Note_on_c, 5, 57, 77
6, 128640, Note_on_c, 5, 50, 72
6, 128640, Note_on_c, 5, 65, 82
6, 128758, Note_off_c, 5, 65, 82
6, 128760, Note_on_c, 5, 62, 77
6, 128878, Note_off_c, 5, 57, 77
6, 128878, Note_off_c, 5, 50, 72
6, 128878, Note_off_c, 5, 62, 77
6, 128880, Note_on_c, 5, 62, 69
6, 128880, Note_on_c, 5, 65, 76
6, 128998, Note_off_c, 5, 62, 69
6, 128998, Note_off_c, 5, 65, 76
6, 129000, Note_on_c, 5, 64, 71
6, 129000, Note_on_c, 5, 69, 74
6, 129118, Note_off_c, 5, 64, 71
6, 129118, Note_off_c, 5, 69, 74
6, 129120, Note_on_c, 5, 65, 74
6, 129120, Note_on_c, 5, 74, 81
6, 129238, Note_off_c, 5, 74, 81
6, 129240, Note_on_c, 5, 72, 76
6, 129358, Note_off_c, 5, 65, 74
6, 129358, Note_off_c, 5, 72, 76
6, 129360, Note_on_c, 5, 50, 61
6, 129360, Note_on_c, 5, 59, 69
6, 129360, Note_on_c, 5, 53, 66
6, 129360, Note_on_c, 5, 71, 69
6, 129478, Note_off_c, 5, 71, 69
6, 129480, Note_on_c, 5, 69, 68
6, 129598, Note_off_c, 5, 50, 61
6, 129598, Note_off_c, 5, 59, 69
6, 129598, Note_off_c, 5, 53, 66
6, 129598, Note_off_c, 5, 69, 68
6, 129600, Note_on_c, 5, 52, 75
6, 129600, Note_on_c, 5, 52, 71
6, 129600, Note_on_c, 5, 59, 69
6, 129600, Note_on_c, 5, 68, 80
6, 129718, Note_off_c, 5, 52, 75
6, 129718, Note_off_c, 5, 68, 80
6, 129720, Note_on_c, 5, 53, 74
6, 129720, Note_on_c, 5, 71, 71
6, 129838, Note_off_c, 5, 52, 71
6, 129838, Note_off_c, 5, 59, 69
6, 129838, Note_off_c, 5, 53, 74
6, 129838, Note_off_c, 5, 71, 71
6, 129840, Note_on_c, 5, 52, 74
6, 129840, Note_on_c, 5, 74, 76
6, 129958, Note_off_c, 5, 52, 74
6, 129958, Note_off_c, 5, 74, 76
6, 129960, Note_on_c, 5, 50, 72
6, 129960, Note_on_c, 5, 77, 79
6, 130078, Note_off_c, 5, 50, 72
6, 130078, Note_off_c, 5, 77, 79
6, 130080, Note_on_c, 5, 48, 71
6, 130080, Note_on_c, 5, 76, 78
6, 130198, Note_off_c, 5, 48, 71
6, 130198, Note_off_c, 5, 76, 78
6, 130200, Note_on_c, 5, 47, 73
6, 130200, Note_on_c, 5, 74, 72
6, 130318, Note_off_c, 5, 47, 73
6, 130318, Note_off_c, 5, 74, 72
6, 130320, Note_on_c, 5, 45, 67
6, 130320, Note_on_c, 5, 72, 63
6, 130438, Note_off_c, 5, 45, 67
6, 130438, Note_off_c, 5, 72, 63
6, 130440, Note_on_c, 5, 44, 58
6, 130440, Note_on_c, 5, 71, 66
6, 130558, Note_off_c, 5, 44, 58
6, 130558, Note_off_c, 5, 71, 66
6, 130560, Note_on_c, 5, 45, 68
6, 130560, Note_on_c, 5, 72, 77
6, 130678, Note_off_c, 5, 72, 77
6, 130680, Note_on_c, 5, 69, 67
6, 130798, Note_off_c, 5, 45, 68
6, 130798, Note_off_c, 5, 69, 67
6, 130800, Note_on_c, 5, 57, 71
6, 130800, Note_on_c, 5, 72, 73
6, 130918, Note_off_c, 5, 57, 71
6, 130918, Note_off_c, 5, 72, 73
6, 130920, Note_on_c, 5, 59, 70
6, 130920, Note_on_c, 5, 76, 81
6, 131038, Note_off_c, 5, 59, 70
6, 131038, Note_off_c, 5, 76, 81
6, 131040, Note_on_c, 5, 60, 75
6, 131040, Note_on_c, 5, 81, 83
6, 131158, Note_off_c, 5, 81, 83
6, 131160, Note_on_c, 5, 79, 81
6, 131278, Note_off_c, 5, 60, 75
6, 131278, Note_off_c, 5, 79, 81
6, 131280, Note_on_c, 5, 57, 64
6, 131280, Note_on_c, 5, 48, 69
6, 131280, Note_on_c, 5, 45, 59
6, 131280, Note_on_c, 5, 77, 80
6, 131398, Note_off_c, 5, 77, 80
6, 131400, Note_on_c, 5, 76, 69
6, 131518, Note_off_c, 5, 57, 64
6, 131518, Note_off_c, 5, 48, 69
6, 131518, Note_off_c, 5, 45, 59
6, 131518, Note_off_c, 5, 76, 69
6, 131520, Note_on_c, 5, 57, 74
6, 131520, Note_on_c, 5, 50, 68
6, 131520, Note_on_c, 5, 77, 80
6, 131638, Note_off_c, 5, 77, 80
6, 131640, Note_on_c, 5, 74, 71
6, 131758, Note_off_c, 5, 57, 74
6, 131758, Note_off_c, 5, 50, 68
6, 131758, Note_off_c, 5, 74, 71
6, 131760, Note_on_c, 5, 53, 76
6, 131760, Note_on_c, 5, 71, 67
6, 131878, Note_off_c, 5, 71, 67
6, 131880, Note_on_c, 5, 74, 72
6, 131998, Note_off_c, 5, 53, 76
6, 131998, Note_off_c, 5, 74, 72
6, 132000, Note_on_c, 5, 57, 75
6, 132000, Note_on_c, 5, 78, 71
6, 132118, Note_off_c, 5, 78, 71
6, 132120, Note_on_c, 5, 79, 71
6, 132238, Note_off_c, 5, 57, 75
6, 132238, Note_off_c, 5, 79, 71
6, 132240, Note_on_c, 5, 48, 83
6, 132240, Note_on_c, 5, 76, 68
6, 132358, Note_off_c, 5, 76, 68
6, 132360, Note_on_c, 5, 78, 72
6, 132478, Note_off_c, 5, 48, 83
6, 132478, Note_off_c, 5, 78, 72
6, 132480, Note_on_c, 5, 47, 84
6, 132480, Note_on_c, 5, 79, 76
6, 132598, Note_off_c, 5, 79, 76
6, 132600, Note_on_c, 5, 74, 79
6, 132718, Note_off_c, 5, 47, 84
6, 132718, Note_off_c, 5, 74, 79
6, 132720, Note_on_c, 5, 55, 79
6, 132720, Note_on_c, 5, 71, 74
6, 132838, Note_off_c, 5, 55, 79
6, 132838, Note_off_c, 5, 71, 74
6, 132840, Note_on_c, 5, 57, 76
6, 132840, Note_on_c, 5, 74, 81
6, 132958, Note_off_c, 5, 57, 76
6, 132958, Note_off_c, 5, 74, 81
6, 132960, Note_on_c, 5, 59, 76
6, 132960, Note_on_c, 5, 80, 76
6, 133078, Note_off_c, 5, 80, 76
6, 133080, Note_on_c, 5, 81, 79
6, 133198, Note_off_c, 5, 59, 76
6, 133198, Note_off_c, 5, 81, 79
6, 133200, Note_on_c, 5, 59, 74
6, 133200, Note_on_c, 5, 50, 68
6, 133200, Note_on_c, 5, 78, 77
6, 133318, Note_off_c, 5, 78, 77
6, 133320, Note_on_c, 5, 80, 76
6, 133438, Note_off_c, 5, 59, 74
6, 133438, Note_off_c, 5, 50, 68
6, 133438, Note_off_c, 5, 80, 76
6, 133440, Note_on_c, 5, 48, 70
6, 133440, Note_on_c, 5, 52, 69
6, 133440, Note_on_c, 5, 81, 78
6, 133558, Note_off_c, 5, 81, 78
6, 133560, Note_on_c, 5, 76, 71
6, 133678, Note_off_c, 5, 48, 70
6, 133678, Note_off_c, 5, 52, 69
6, 133678, Note_off_c, 5, 76, 71
6, 133680, Note_on_c, 5, 64, 75
6, 133680, Note_on_c, 5, 72, 71
6, 133798, Note_off_c, 5, 72, 71
6, 133800, Note_on_c, 5, 64, 74
6, 133800, Note_on_c, 5, 81, 94
6, 133918, Note_off_c, 5, 64, 75
6, 133918, Note_off_c, 5, 81, 94
6, 133920, Note_on_c, 5, 60, 74
6, 133920, Note_on_c, 5, 81, 98
6, 134038, Note_off_c, 5, 64, 74
6, 134038, Note_off_c, 5, 81, 98
6, 134040, Note_on_c, 5, 76, 97
6, 134158, Note_off_c, 5, 60, 74
6, 134158, Note_off_c, 5, 76, 97
6, 134160, Note_on_c, 5, 57, 70
6, 134160, Note_on_c, 5, 72, 84
6, 134278, Note_off_c, 5, 72, 84
6, 134280, Note_on_c, 5, 81, 97
6, 134398, Note_off_c, 5, 57, 70
6, 134398, Note_off_c, 5, 81, 97
6, 134400, Note_on_c, 5, 65, 76
6, 134400, Note_on_c, 5, 81, 99
6, 134518, Note_off_c, 5, 65, 76
6, 134520, Note_on_c, 5, 64, 73
6, 134638, Note_off_c, 5, 81, 99
6, 134638, Note_off_c, 5, 64, 73
6, 134640, Note_on_c, 5, 74, 94
6, 134878, Note_off_c, 5, 74, 94
6, 134880, Note_on_c, 5, 65, 76
6, 134880, Note_on_c, 5, 77, 96
6, 135118, Note_off_c, 5, 65, 76
6, 135118, Note_off_c, 5, 77, 96
6, 135120, Note_on_c, 5, 67, 98
6, 135120, Note_on_c, 5, 81, 82
6, 135178, Note_off_c, 5, 67, 98
6, 135180, Note_on_c, 5, 65, 68
6, 135238, Note_off_c, 5, 65, 68
6, 135240, Note_on_c, 5, 67, 98
6, 135298, Note_off_c, 5, 67, 98
6, 135300, Note_on_c, 5, 65, 72
6, 135358, Note_off_c, 5, 81, 82
6, 135358, Note_off_c, 5, 65, 72
6, 135360, Note_on_c, 5, 67, 100
6, 135360, Note_on_c, 5, 79, 103
6, 135478, Note_off_c, 5, 79, 103
6, 135480, Note_on_c, 5, 74, 98
6, 135598, Note_off_c, 5, 67, 100
6, 135598, Note_off_c, 5, 74, 98
6, 135600, Note_on_c, 5, 62, 82
6, 135600, Note_on_c, 5, 71, 92
6, 135718, Note_off_c, 5, 71, 92
6, 135720, Note_on_c, 5, 79, 102
6, 135838, Note_off_c, 5, 62, 82
6, 135838, Note_off_c, 5, 79, 102
6, 135840, Note_on_c, 5, 59, 69
6, 135840, Note_on_c, 5, 79, 100
6, 135958, Note_off_c, 5, 79, 100
6, 135960, Note_on_c, 5, 74, 95
6, 136078, Note_off_c, 5, 59, 69
6, 136078, Note_off_c, 5, 74, 95
6, 136080, Note_on_c, 5, 55, 80
6, 136080, Note_on_c, 5, 71, 86
6, 136198, Note_off_c, 5, 71, 86
6, 136200, Note_on_c, 5, 79, 93
6, 136318, Note_off_c, 5, 55, 80
6, 136318, Note_off_c, 5, 79, 93
6, 136320, Note_on_c, 5, 64, 79
6, 136320, Note_on_c, 5, 79, 99
6, 136438, Note_off_c, 5, 64, 79
6, 136440, Note_on_c, 5, 62, 73
6, 136558, Note_off_c, 5, 79, 99
6, 136558, Note_off_c, 5, 62, 73
6, 136560, Note_on_c, 5, 64, 85
6, 136560, Note_on_c, 5, 72, 90
6, 136798, Note_off_c, 5, 64, 85
6, 136798, Note_off_c, 5, 72, 90
6, 136800, Note_on_c, 5, 76, 103
6, 137038, Note_off_c, 5, 76, 103
6, 137040, Note_on_c, 5, 65, 71
6, 137040, Note_on_c, 5, 79, 96
6, 137098, Note_off_c, 5, 65, 71
6, 137100, Note_on_c, 5, 64, 77
6, 137158, Note_off_c, 5, 64, 77
6, 137160, Note_on_c, 5, 65, 76
6, 137218, Note_off_c, 5, 65, 76
6, 137220, Note_on_c, 5, 64, 76
6, 137278, Note_off_c, 5, 79, 96
6, 137278, Note_off_c, 5, 64, 76
6, 137280, Note_on_c, 5, 65, 80
6, 137280, Note_on_c, 5, 77, 97
6, 137398, Note_off_c, 5, 77, 97
6, 137400, Note_on_c, 5, 72, 75
6, 137518, Note_off_c, 5, 65, 80
6, 137518, Note_off_c, 5, 72, 75
6, 137520, Note_on_c, 5, 60, 83
6, 137520, Note_on_c, 5, 69, 88
6, 137638, Note_off_c, 5, 69, 88
6, 137640, Note_on_c, 5, 77, 96
6, 137758, Note_off_c, 5, 60, 83
6, 137758, Note_off_c, 5, 77, 96
6, 137760, Note_on_c, 5, 57, 80
6, 137760, Note_on_c, 5, 77, 94
6, 137878, Note_off_c, 5, 77, 94
6, 137880, Note_on_c, 5, 72, 89
6, 137998, Note_off_c, 5, 57, 80
6, 137998, Note_off_c, 5, 72, 89
6, 138000, Note_on_c, 5, 53, 78
6, 138000, Note_on_c, 5, 69, 83
6, 138118, Note_off_c, 5, 69, 83
6, 138120, Note_on_c, 5, 77, 92
6, 138238, Note_off_c, 5, 53, 78
6, 138238, Note_off_c, 5, 77, 92
6, 138240, Note_on_c, 5, 62, 78
6, 138240, Note_on_c, 5, 77, 100
6, 138358, Note_off_c, 5, 62, 78
6, 138360, Note_on_c, 5, 60, 76
6, 138478, Note_off_c, 5, 77, 100
6, 138478, Note_off_c, 5, 60, 76
6, 138480, Note_on_c, 5, 62, 83
6, 138480, Note_on_c, 5, 71, 93
6, 138718, Note_off_c, 5, 62, 83
6, 138718, Note_off_c, 5, 71, 93
6, 138720, Note_on_c, 5, 74, 96
6, 138958, Note_off_c, 5, 74, 96
6, 138960, Note_on_c, 5, 64, 76
6, 138960, Note_on_c, 5, 77, 98
6, 139018, Note_off_c, 5, 64, 76
6, 139020, Note_on_c, 5, 62, 79
6, 139078, Note_off_c, 5, 62, 79
6, 139080, Note_on_c, 5, 64, 77
6, 139138, Note_off_c, 5, 64, 77
6, 139140, Note_on_c, 5, 62, 81
6, 139198, Note_off_c, 5, 77, 98
6, 139198, Note_off_c, 5, 62, 81
6, 139200, Note_on_c, 5, 64, 81
6, 139200, Note_on_c, 5, 76, 95
6, 139318, Note_off_c, 5, 76, 95
6, 139320, Note_on_c, 5, 71, 91
6, 139438, Note_off_c, 5, 64, 81
6, 139438, Note_off_c, 5, 71, 91
6, 139440, Note_on_c, 5, 59, 74
6, 139440, Note_on_c, 5, 68, 92
6, 139558, Note_off_c, 5, 68, 92
6, 139560, Note_on_c, 5, 76, 94
6, 139678, Note_off_c, 5, 59, 74
6, 139678, Note_off_c, 5, 76, 94
6, 139680, Note_on_c, 5, 56, 76
6, 139680, Note_on_c, 5, 76, 92
6, 139798, Note_off_c, 5, 76, 92
6, 139800, Note_on_c, 5, 71, 86
6, 139918, Note_off_c, 5, 56, 76
6, 139918, Note_off_c, 5, 71, 86
6, 139920, Note_on_c, 5, 52, 83
6, 139920, Note_on_c, 5, 68, 82
6, 140038, Note_off_c, 5, 68, 82
6, 140040, Note_on_c, 5, 76, 84
6, 140158, Note_off_c, 5, 52, 83
6, 140158, Note_off_c, 5, 76, 84
6, 140160, Note_on_c, 5, 60, 82
6, 140160, Note_on_c, 5, 76, 96
6, 140278, Note_off_c, 5, 60, 82
6, 140280, Note_on_c, 5, 59, 76
6, 140398, Note_off_c, 5, 76, 96
6, 140398, Note_off_c, 5, 59, 76
6, 140400, Note_on_c, 5, 60, 86
6, 140400, Note_on_c, 5, 69, 100
6, 140638, Note_off_c, 5, 60, 86
6, 140638, Note_off_c, 5, 69, 100
6, 144000, Note_on_c, 5, 43, 74
6, 144238, Note_off_c, 5, 43, 74
6, 144240, Note_on_c, 5, 55, 82
6, 144240, Note_on_c, 5, 59, 72
6, 144358, Note_off_c, 5, 59, 72
6, 144360, Note_on_c, 5, 60, 80
6, 144478, Note_off_c, 5, 55, 82
6, 144478, Note_off_c, 5, 60, 80
6, 144480, Note_on_c, 5, 59, 76
6, 144480, Note_on_c, 5, 62, 88
6, 144598, Note_off_c, 5, 62, 88
6, 144600, Note_on_c, 5, 60, 79
6, 144718, Note_off_c, 5, 59, 76
6, 144718, Note_off_c, 5, 60, 79
6, 144720, Note_on_c, 5, 55, 69
6, 144720, Note_on_c, 5, 59, 73
6, 144838, Note_off_c, 5, 59, 73
6, 144840, Note_on_c, 5, 60, 76
6, 144958, Note_off_c, 5, 55, 69
6, 144958, Note_off_c, 5, 60, 76
6, 144960, Note_on_c, 5, 43, 71
6, 144960, Note_on_c, 5, 62, 80
6, 145078, Note_off_c, 5, 62, 80
6, 145080, Note_on_c, 5, 60, 76
6, 145198, Note_off_c, 5, 43, 71
6, 145198, Note_off_c, 5, 60, 76
6, 145200, Note_on_c, 5, 55, 79
6, 145200, Note_on_c, 5, 59, 69
6, 145318, Note_off_c, 5, 59, 69
6, 145320, Note_on_c, 5, 60, 73
6, 145438, Note_off_c, 5, 55, 79
6, 145438, Note_off_c, 5, 60, 73
6, 145440, Note_on_c, 5, 59, 72
6, 145440, Note_on_c, 5, 62, 82
6, 145678, Note_off_c, 5, 59, 72
6, 145678, Note_off_c, 5, 62, 82
6, 145680, Note_on_c, 5, 55, 71
6, 145680, Note_on_c, 5, 59, 79
6, 145918, Note_off_c, 5, 55, 71
6, 145918, Note_off_c, 5, 59, 79
6, 145920, Note_on_c, 5, 52, 76
6, 145920, Note_on_c, 5, 55, 73
6, 146038, Note_off_c, 5, 55, 73
6, 146040, Note_on_c, 5, 55, 78
6, 146158, Note_off_c, 5, 52, 76
6, 146158, Note_off_c, 5, 55, 78
6, 146160, Note_on_c, 5, 40, 66
6, 146160, Note_on_c, 5, 55, 74
6, 146278, Note_off_c, 5, 55, 74
6, 146280, Note_on_c, 5, 55, 73
6, 146398, Note_off_c, 5, 40, 66
6, 146398, Note_off_c, 5, 55, 73
6, 146400, Note_on_c, 5, 40, 74
6, 146400, Note_on_c, 5, 60, 88
6, 146518, Note_off_c, 5, 60, 88
6, 146520, Note_on_c, 5, 55, 74
6, 146638, Note_off_c, 5, 40, 74
6, 146638, Note_off_c, 5, 55, 74
6, 146640, Note_on_c, 5, 40, 77
6, 146640, Note_on_c, 5, 55, 76
6, 146758, Note_off_c, 5, 55, 76
6, 146760, Note_on_c, 5, 55, 74
6, 146878, Note_off_c, 5, 40, 77
6, 146878, Note_off_c, 5, 55, 74
6, 146880, Note_on_c, 5, 36, 84
6, 146880, Note_on_c, 5, 60, 84
6, 146998, Note_off_c, 5, 60, 84
6, 147000, Note_on_c, 5, 55, 79
6, 147118, Note_off_c, 5, 36, 84
6, 147118, Note_off_c, 5, 55, 79
6, 147120, Note_on_c, 5, 36, 80
6, 147120, Note_on_c, 5, 55, 78
6, 147238, Note_off_c, 5, 55, 78
6, 147240, Note_on_c, 5, 55, 78
6, 147358, Note_off_c, 5, 36, 80
6, 147358, Note_off_c, 5, 55, 78
6, 147360, Note_on_c, 5, 36, 70
6, 147360, Note_on_c, 5, 60, 80
6, 147478, Note_off_c, 5, 60, 80
6, 147480, Note_on_c, 5, 59, 74
6, 147598, Note_off_c, 5, 36, 70
6, 147598, Note_off_c, 5, 59, 74
6, 147600, Note_on_c, 5, 36, 63
6, 147600, Note_on_c, 5, 57, 72
6, 147718, Note_off_c, 5, 57, 72
6, 147720, Note_on_c, 5, 55, 76
6, 147838, Note_off_c, 5, 36, 63
6, 147838, Note_off_c, 5, 55, 76
6, 147840, Note_on_c, 5, 41, 74
6, 147840, Note_on_c, 5, 57, 79
6, 147958, Note_off_c, 5, 57, 79
6, 147960, Note_on_c, 5, 57, 80
6, 148078, Note_off_c, 5, 41, 74
6, 148078, Note_off_c, 5, 57, 80
6, 148080, Note_on_c, 5, 41, 70
6, 148080, Note_on_c, 5, 57, 72
6, 148198, Note_off_c, 5, 57, 72
6, 148200, Note_on_c, 5, 57, 74
6, 148318, Note_off_c, 5, 41, 70
6, 148318, Note_off_c, 5, 57, 74
6, 148320, Note_on_c, 5, 41, 70
6, 148320, Note_on_c, 5, 62, 82
6, 148438, Note_off_c, 5, 62, 82
6, 148440, Note_on_c, 5, 57, 75
6, 148558, Note_off_c, 5, 41, 70
6, 148558, Note_off_c, 5, 57, 75
6, 148560, Note_on_c, 5, 41, 64
6, 148560, Note_on_c, 5, 57, 73
6, 148678, Note_off_c, 5, 57, 73
6, 148680, Note_on_c, 5, 57, 74
6, 148798, Note_off_c, 5, 41, 64
6, 148798, Note_off_c, 5, 57, 74
6, 148800, Note_on_c, 5, 38, 75
6, 148800, Note_on_c, 5, 62, 81
6, 148918, Note_off_c, 5, 62, 81
6, 148920, Note_on_c, 5, 57, 72
6, 149038, Note_off_c, 5, 38, 75
6, 149038, Note_off_c, 5, 57, 72
6, 149040, Note_on_c, 5, 38, 74
6, 149040, Note_on_c, 5, 57, 74
6, 149158, Note_off_c, 5, 57, 74
6, 149160, Note_on_c, 5, 57, 68
6, 149278, Note_off_c, 5, 38, 74
6, 149278, Note_off_c, 5, 57, 68
6, 149280, Note_on_c, 5, 38, 71
6, 149280, Note_on_c, 5, 62, 76
6, 149398, Note_off_c, 5, 62, 76
6, 149400, Note_on_c, 5, 60, 74
6, 149518, Note_off_c, 5, 38, 71
6, 149518, Note_off_c, 5, 60, 74
6, 149520, Note_on_c, 5, 38, 75
6, 149520, Note_on_c, 5, 59, 69
6, 149638, Note_off_c, 5, 59, 69
6, 149640, Note_on_c, 5, 57, 69
6, 149758, Note_off_c, 5, 38, 75
6, 149758, Note_off_c, 5, 57, 69
6, 149760, Note_on_c, 5, 43, 72
6, 149760, Note_on_c, 5, 59, 66
6, 149878, Note_off_c, 5, 59, 66
6, 149880, Note_on_c, 5, 59, 64
6, 149998, Note_off_c, 5, 43, 72
6, 149998, Note_off_c, 5, 59, 64
6, 150000, Note_on_c, 5, 43, 72
6, 150000, Note_on_c, 5, 59, 61
6, 150118, Note_off_c, 5, 59, 61
6, 150120, Note_on_c, 5, 59, 66
6, 150238, Note_off_c, 5, 43, 72
6, 150238, Note_off_c, 5, 59, 66
6, 150240, Note_on_c, 5, 43, 69
6, 150240, Note_on_c, 5, 64, 80
6, 150358, Note_off_c, 5, 64, 80
6, 150360, Note_on_c, 5, 59, 71
6, 150478, Note_off_c, 5, 43, 69
6, 150478, Note_off_c, 5, 59, 71
6, 150480, Note_on_c, 5, 43, 65
6, 150480, Note_on_c, 5, 59, 68
6, 150598, Note_off_c, 5, 59, 68
6, 150600, Note_on_c, 5, 59, 69
6, 150718, Note_off_c, 5, 43, 65
6, 150718, Note_off_c, 5, 59, 69
6, 150720, Note_on_c, 5, 40, 73
6, 150720, Note_on_c, 5, 64, 81
6, 150838, Note_off_c, 5, 64, 81
6, 150840, Note_on_c, 5, 59, 71
6, 150958, Note_off_c, 5, 40, 73
6, 150958, Note_off_c, 5, 59, 71
6, 150960, Note_on_c, 5, 40, 67
6, 150960, Note_on_c, 5, 59, 68
6, 151078, Note_off_c, 5, 59, 68
6, 151080, Note_on_c, 5, 59, 63
6, 151198, Note_off_c, 5, 40, 67
6, 151198, Note_off_c, 5, 59, 63
6, 151200, Note_on_c, 5, 40, 67
6, 151200, Note_on_c, 5, 64, 74
6, 151318, Note_off_c, 5, 64, 74
6, 151320, Note_on_c, 5, 62, 72
6, 151438, Note_off_c, 5, 40, 67
6, 151438, Note_off_c, 5, 62, 72
6, 151440, Note_on_c, 5, 40, 64
6, 151440, Note_on_c, 5, 60, 71
6, 151558, Note_off_c, 5, 60, 71
6, 151560, Note_on_c, 5, 59, 64
6, 151678, Note_off_c, 5, 40, 64
6, 151678, Note_off_c, 5, 59, 64
6, 151680, Note_on_c, 5, 45, 76
6, 151680, Note_on_c, 5, 60, 75
6, 151918, Note_off_c, 5, 60, 75
6, 151920, Note_on_c, 5, 69, 70
6, 152038, Note_off_c, 5, 69, 70
6, 152040, Note_on_c, 5, 72, 70
6, 152158, Note_off_c, 5, 45, 76
6, 152158, Note_off_c, 5, 72, 70
6, 152160, Note_on_c, 5, 76, 74
6, 152398, Note_off_c, 5, 76, 74
6, 152400, Note_on_c, 5, 60, 84
6, 152400, Note_on_c, 5, 81, 86
6, 152638, Note_off_c, 5, 60, 84
6, 152638, Note_off_c, 5, 81, 86
6, 152640, Note_on_c, 5, 62, 80
6, 152878, Note_off_c, 5, 62, 80
6, 152880, Note_on_c, 5, 60, 80
6, 152880, Note_on_c, 5, 69, 81
6, 152998, Note_off_c, 5, 69, 81
6, 153000, Note_on_c, 5, 72, 79
6, 153118, Note_off_c, 5, 60, 80
6, 153118, Note_off_c, 5, 72, 79
6, 153120, Note_on_c, 5, 76, 83
6, 153358, Note_off_c, 5, 76, 83
6, 153360, Note_on_c, 5, 60, 82
6, 153360, Note_on_c, 5, 79, 84
6, 153598, Note_off_c, 5, 60, 82
6, 153598, Note_off_c, 5, 79, 84
6, 153600, Note_on_c, 5, 60, 83
6, 153838, Note_off_c, 5, 60, 83
6, 153840, Note_on_c, 5, 67, 71
6, 153840, Note_on_c, 5, 59, 80
6, 153958, Note_off_c, 5, 67, 71
6, 153960, Note_on_c, 5, 71, 83
6, 154078, Note_off_c, 5, 59, 80
6, 154078, Note_off_c, 5, 71, 83
6, 154080, Note_on_c, 5, 74, 82
6, 154318, Note_off_c, 5, 74, 82
6, 154320, Note_on_c, 5, 79, 83
6, 154320, Note_on_c, 5, 59, 80
6, 154558, Note_off_c, 5, 79, 83
6, 154558, Note_off_c, 5, 59, 80
6, 154560, Note_on_c, 5, 60, 80
6, 154798, Note_off_c, 5, 60, 80
6, 154800, Note_on_c, 5, 67, 73
6, 154800, Note_on_c, 5, 59, 79
6, 154918, Note_off_c, 5, 67, 73
6, 154920, Note_on_c, 5, 71, 76
6, 155038, Note_off_c, 5, 59, 79
6, 155038, Note_off_c, 5, 71, 76
6, 155040, Note_on_c, 5, 74, 75
6, 155278, Note_off_c, 5, 74, 75
6, 155280, Note_on_c, 5, 77, 83
6, 155280, Note_on_c, 5, 58, 76
6, 155518, Note_off_c, 5, 77, 83
6, 155518, Note_off_c, 5, 58, 76
6, 155520, Note_on_c, 5, 58, 76
6, 155758, Note_off_c, 5, 58, 76
6, 155760, Note_on_c, 5, 65, 72
6, 155760, Note_on_c, 5, 57, 82
6, 155878, Note_off_c, 5, 65, 72
6, 155880, Note_on_c, 5, 69, 74
6, 155998, Note_off_c, 5, 57, 82
6, 155998, Note_off_c, 5, 69, 74
6, 156000, Note_on_c, 5, 72, 80
6, 156238, Note_off_c, 5, 72, 80
6, 156240, Note_on_c, 5, 77, 80
6, 156240, Note_on_c, 5, 57, 83
6, 156478, Note_off_c, 5, 77, 80
6, 156478, Note_off_c, 5, 57, 83
6, 156480, Note_on_c, 5, 58, 80
6, 156718, Note_off_c, 5, 58, 80
6, 156720, Note_on_c, 5, 65, 76
6, 156720, Note_on_c, 5, 57, 82
6, 156838, Note_off_c, 5, 65, 76
6, 156840, Note_on_c, 5, 69, 80
6, 156958, Note_off_c, 5, 57, 82
6, 156958, Note_off_c, 5, 69, 80
6, 156960, Note_on_c, 5, 72, 80
6, 157198, Note_off_c, 5, 72, 80
6, 157200, Note_on_c, 5, 76, 84
6, 157200, Note_on_c, 5, 57, 83
6, 157438, Note_off_c, 5, 76, 84
6, 157438, Note_off_c, 5, 57, 83
6, 157440, Note_on_c, 5, 57, 79
6, 157678, Note_off_c, 5, 57, 79
6, 157680, Note_on_c, 5, 64, 81
6, 157680, Note_on_c, 5, 56, 79
6, 157798, Note_off_c, 5, 64, 81
6, 157800, Note_on_c, 5, 68, 71
6, 157918, Note_off_c, 5, 56, 79
6, 157918, Note_off_c, 5, 68, 71
6, 157920, Note_on_c, 5, 71, 72
6, 158158, Note_off_c, 5, 71, 72
6, 158160, Note_on_c, 5, 76, 78
6, 158160, Note_on_c, 5, 56, 81
6, 158398, Note_off_c, 5, 76, 78
6, 158398, Note_off_c, 5, 56, 81
6, 158400, Note_on_c, 5, 57, 80
6, 158638, Note_off_c, 5, 57, 80
6, 158640, Note_on_c, 5, 64, 80
6, 158640, Note_on_c, 5, 56, 77
6, 158758, Note_off_c, 5, 64, 80
6, 158760, Note_on_c, 5, 68, 77
6, 158878, Note_off_c, 5, 56, 77
6, 158878, Note_off_c, 5, 68, 77
6, 158880, Note_on_c, 5, 71, 81
6, 159118, Note_off_c, 5, 71, 81
6, 159120, Note_on_c, 5, 74, 77
6, 159120, Note_on_c, 5, 56, 80
6, 159358, Note_off_c, 5, 74, 77
6, 159358, Note_off_c, 5, 56, 80
6, 159360, Note_on_c, 5, 72, 80
6, 159360, Note_on_c, 5, 57, 84
6, 159478, Note_off_c, 5, 72, 80
6, 159480, Note_on_c, 5, 74, 80
6, 159598, Note_off_c, 5, 57, 84
6, 159598, Note_off_c, 5, 74, 80
6, 159600, Note_on_c, 5, 76, 74
6, 159600, Note_on_c, 5, 45, 81
6, 159718, Note_off_c, 5, 76, 74
6, 159720, Note_on_c, 5, 72, 78
6, 159838, Note_off_c, 5, 45, 81
6, 159838, Note_off_c, 5, 72, 78
6, 159840, Note_on_c, 5, 69, 82
6, 160078, Note_off_c, 5, 69, 82
6, 167040, Note_on_c, 5, 57, 93
6, 167040, Note_on_c, 5, 72, 90
6, 167158, Note_off_c, 5, 72, 90
6, 167160, Note_on_c, 5, 81, 94
6, 167218, Note_off_c, 5, 81, 94
6, 167220, Note_on_c, 5, 83, 92
6, 167278, Note_off_c, 5, 83, 92
6, 167280, Note_on_c, 5, 84, 94
6, 167398, Note_off_c, 5, 84, 94
6, 167400, Note_on_c, 5, 81, 91
6, 167518, Note_off_c, 5, 57, 93
6, 167518, Note_off_c, 5, 81, 91
6, 167520, Note_on_c, 5, 84, 102
6, 167638, Note_off_c, 5, 84, 102
6, 167640, Note_on_c, 5, 81, 86
6, 167758, Note_off_c, 5, 81, 86
6, 167760, Note_on_c, 5, 57, 80
6, 167760, Note_on_c, 5, 84, 90
6, 167878, Note_off_c, 5, 84, 90
6, 167880, Note_on_c, 5, 81, 86
6, 167998, Note_off_c, 5, 57, 80
6, 167998, Note_off_c, 5, 81, 86
6, 168000, Note_on_c, 5, 59, 79
6, 168000, Note_on_c, 5, 74, 88
6, 168118, Note_off_c, 5, 74, 88
6, 168120, Note_on_c, 5, 81, 96
6, 168178, Note_off_c, 5, 81, 96
6, 168180, Note_on_c, 5, 83, 84
6, 168238, Note_off_c, 5, 83, 84
6, 168240, Note_on_c, 5, 84, 97
6, 168358, Note_off_c, 5, 84, 97
6, 168360, Note_on_c, 5, 81, 90
6, 168478, Note_off_c, 5, 59, 79
6, 168478, Note_off_c, 5, 81, 90
6, 168480, Note_on_c, 5, 84, 99
6, 168598, Note_off_c, 5, 84, 99
6, 168600, Note_on_c, 5, 81, 90
6, 168718, Note_off_c, 5, 81, 90
6, 168720, Note_on_c, 5, 59, 78
6, 168720, Note_on_c, 5, 84, 98
6, 168838, Note_off_c, 5, 84, 98
6, 168840, Note_on_c, 5, 81, 89
6, 168958, Note_off_c, 5, 59, 78
6, 168958, Note_off_c, 5, 81, 89
6, 168960, Note_on_c, 5, 60, 85
6, 168960, Note_on_c, 5, 76, 90
6, 169078, Note_off_c, 5, 76, 90
6, 169080, Note_on_c, 5, 81, 96
6, 169138, Note_off_c, 5, 81, 96
6, 169140, Note_on_c, 5, 83, 93
6, 169198, Note_off_c, 5, 83, 93
6, 169200, Note_on_c, 5, 84, 96
6, 169318, Note_off_c, 5, 84, 96
6, 169320, Note_on_c, 5, 81, 94
6, 169438, Note_off_c, 5, 60, 85
6, 169438, Note_off_c, 5, 81, 94
6, 169440, Note_on_c, 5, 84, 99
6, 169558, Note_off_c, 5, 84, 99
6, 169560, Note_on_c, 5, 81, 92
6, 169678, Note_off_c, 5, 81, 92
6, 169680, Note_on_c, 5, 60, 84
6, 169680, Note_on_c, 5, 84, 95
6, 169798, Note_off_c, 5, 84, 95
6, 169800, Note_on_c, 5, 81, 90
6, 169918, Note_off_c, 5, 60, 84
6, 169918, Note_off_c, 5, 81, 90
6, 169920, Note_on_c, 5, 62, 89
6, 169920, Note_on_c, 5, 77, 88
6, 170038, Note_off_c, 5, 77, 88
6, 170040, Note_on_c, 5, 81, 89
6, 170098, Note_off_c, 5, 81, 89
6, 170100, Note_on_c, 5, 83, 86
6, 170158, Note_off_c, 5, 83, 86
6, 170160, Note_on_c, 5, 84, 95
6, 170278, Note_off_c, 5, 84, 95
6, 170280, Note_on_c, 5, 81, 94
6, 170398, Note_off_c, 5, 62, 89
6, 170398, Note_off_c, 5, 81, 94
6, 170400, Note_on_c, 5, 84, 95
6, 170518, Note_off_c, 5, 84, 95
6, 170520, Note_on_c, 5, 81, 88
6, 170638, Note_off_c, 5, 81, 88
6, 170640, Note_on_c, 5, 62, 80
6, 170640, Note_on_c, 5, 84, 91
6, 170758, Note_off_c, 5, 84, 91
6, 170760, Note_on_c, 5, 81, 90
6, 170878, Note_off_c, 5, 62, 80
6, 170878, Note_off_c, 5, 81, 90
6, 170880, Note_on_c, 5, 60, 86
6, 170880, Note_on_c, 5, 57, 78
6, 170880, Note_on_c, 5, 76, 91
6, 170998, Note_off_c, 5, 76, 91
6, 171000, Note_on_c, 5, 81, 91
6, 171118, Note_off_c, 5, 81, 91
6, 171120, Note_on_c, 5, 84, 99
6, 171238, Note_off_c, 5, 84, 99
6, 171240, Note_on_c, 5, 80, 89
6, 171358, Note_off_c, 5, 60, 86
6, 171358, Note_off_c, 5, 57, 78
6, 171358, Note_off_c, 5, 80, 89
6, 171360, Note_on_c, 5, 81, 94
6, 171478, Note_off_c, 5, 81, 94
6, 171480, Note_on_c, 5, 76, 91
6, 171598, Note_off_c, 5, 76, 91
6, 171600, Note_on_c, 5, 72, 90
6, 171718, Note_off_c, 5, 72, 90
6, 171720, Note_on_c, 5, 69, 88
6, 171838, Note_off_c, 5, 69, 88
6, 171840, Note_on_c, 5, 62, 87
6, 171840, Note_on_c, 5, 59, 80
6, 171960, Note_on_c, 5, 81, 92
6, 172078, Note_off_c, 5, 81, 92
6, 172080, Note_on_c, 5, 84, 98
6, 172198, Note_off_c, 5, 84, 98
6, 172200, Note_on_c, 5, 80, 90
6, 172318, Note_off_c, 5, 62, 87
6, 172318, Note_off_c, 5, 59, 80
6, 172318, Note_off_c, 5, 80, 90
6, 172320, Note_on_c, 5, 81, 95
6, 172438, Note_off_c, 5, 81, 95
6, 172440, Note_on_c, 5, 77, 90
6, 172558, Note_off_c, 5, 77, 90
6, 172560, Note_on_c, 5, 74, 96
6, 172678, Note_off_c, 5, 74, 96
6, 172680, Note_on_c, 5, 71, 93
6, 172798, Note_off_c, 5, 71, 93
6, 172800, Note_on_c, 5, 64, 92
6, 172800, Note_on_c, 5, 60, 88
6, 172920, Note_on_c, 5, 81, 98
6, 173038, Note_off_c, 5, 81, 98
6, 173040, Note_on_c, 5, 84, 92
6, 173158, Note_off_c, 5, 84, 92
6, 173160, Note_on_c, 5, 80, 86
6, 173278, Note_off_c, 5, 64, 92
6, 173278, Note_off_c, 5, 60, 88
6, 173278, Note_off_c, 5, 80, 86
6, 173280, Note_on_c, 5, 81, 89
6, 173398, Note_off_c, 5, 81, 89
6, 173400, Note_on_c, 5, 76, 84
6, 173518, Note_off_c, 5, 76, 84
6, 173520, Note_on_c, 5, 72, 88
6, 173638, Note_off_c, 5, 72, 88
6, 173640, Note_on_c, 5, 69, 90
6, 173758, Note_off_c, 5, 69, 90
6, 173760, Note_on_c, 5, 65, 88
6, 173760, Note_on_c, 5, 62, 88
6, 173880, Note_on_c, 5, 81, 95
6, 173998, Note_off_c, 5, 81, 95
6, 174000, Note_on_c, 5, 84, 93
6, 174118, Note_off_c, 5, 84, 93
6, 174120, Note_on_c, 5, 80, 88
6, 174238, Note_off_c, 5, 65, 88
6, 174238, Note_off_c, 5, 62, 88
6, 174238, Note_off_c, 5, 80, 88
6, 174240, Note_on_c, 5, 81, 89
6, 174358, Note_off_c, 5, 81, 89
6, 174360, Note_on_c, 5, 77, 93
6, 174478, Note_off_c, 5, 77, 93
6, 174480, Note_on_c, 5, 74, 88
6, 174598, Note_off_c, 5, 74, 88
6, 174600, Note_on_c, 5, 71, 86
6, 174718, Note_off_c, 5, 71, 86
6, 174720, Note_on_c, 5, 72, 96
6, 174720, Note_on_c, 5, 64, 94
6, 174780, Note_on_c, 5, 57, 74
6, 174838, Note_off_c, 5, 72, 96
6, 174838, Note_off_c, 5, 64, 94
6, 174838, Note_off_c, 5, 57, 74
6, 174840, Note_on_c, 5, 59, 91
6, 174898, Note_off_c, 5, 59, 91
6, 174900, Note_on_c, 5, 60, 97
6, 174958, Note_off_c, 5, 60, 97
6, 174960, Note_on_c, 5, 62, 91
6, 175018, Note_off_c, 5, 62, 91
6, 175020, Note_on_c, 5, 64, 92
6, 175078, Note_off_c, 5, 64, 92
6, 175080, Note_on_c, 5, 66, 86
6, 175138, Note_off_c, 5, 66, 86
6, 175140, Note_on_c, 5, 68, 89
6, 175198, Note_off_c, 5, 68, 89
6, 175200, Note_on_c, 5, 69, 87
6, 175258, Note_off_c, 5, 69, 87
6, 175260, Note_on_c, 5, 71, 87
6, 175318, Note_off_c, 5, 71, 87
6, 175320, Note_on_c, 5, 72, 92
6, 175378, Note_off_c, 5, 72, 92
6, 175380, Note_on_c, 5, 74, 84
6, 175438, Note_off_c, 5, 74, 84
6, 175440, Note_on_c, 5, 76, 86
6, 175498, Note_off_c, 5, 76, 86
6, 175500, Note_on_c, 5, 78, 89
6, 175558, Note_off_c, 5, 78, 89
6, 175560, Note_on_c, 5, 80, 88
6, 175618, Note_off_c, 5, 80, 88
6, 175620, Note_on_c, 5, 81, 93
6, 175678, Note_off_c, 5, 81, 93
6, 175680, Note_on_c, 5, 74, 94
6, 175680, Note_on_c, 5, 65, 87
6, 175798, Note_off_c, 5, 74, 94
6, 175798, Note_off_c, 5, 65, 87
6, 175800, Note_on_c, 5, 59, 87
6, 175858, Note_off_c, 5, 59, 87
6, 175860, Note_on_c, 5, 60, 88
6, 175918, Note_off_c, 5, 60, 88
6, 175920, Note_on_c, 5, 62, 90
6, 175978, Note_off_c, 5, 62, 90
6, 175980, Note_on_c, 5, 64, 93
6, 176038, Note_off_c, 5, 64, 93
6, 176040, Note_on_c, 5, 66, 87
6, 176098, Note_off_c, 5, 66, 87
6, 176100, Note_on_c, 5, 68, 84
6, 176158, Note_off_c, 5, 68, 84
6, 176160, Note_on_c, 5, 69, 87
6, 176218, Note_off_c, 5, 69, 87
6, 176220, Note_on_c, 5, 71, 87
6, 176278, Note_off_c, 5, 71, 87
6, 176280, Note_on_c, 5, 72, 90
6, 176338, Note_off_c, 5, 72, 90
6, 176340, Note_on_c, 5, 74, 84
6, 176398, Note_off_c, 5, 74, 84
6, 176400, Note_on_c, 5, 76, 91
6, 176458, Note_off_c, 5, 76, 91
6, 176460, Note_on_c, 5, 78, 88
6, 176518, Note_off_c, 5, 78, 88
6, 176520, Note_on_c, 5, 80, 90
6, 176578, Note_off_c, 5, 80, 90
6, 176580, Note_on_c, 5, 81, 98
6, 176638, Note_off_c, 5, 81, 98
6, 176640, Note_on_c, 5, 71, 107
6, 176640, Note_on_c, 5, 64, 107
6, 176700, Note_on_c, 5, 81, 101
6, 176758, Note_off_c, 5, 71, 107
6, 176758, Note_off_c, 5, 64, 107
6, 176758, Note_off_c, 5, 81, 101
6, 176760, Note_on_c, 5, 80, 95
6, 176818, Note_off_c, 5, 80, 95
6, 176820, Note_on_c, 5, 78, 93
6, 176878, Note_off_c, 5, 78, 93
6, 176880, Note_on_c, 5, 80, 91
6, 176938, Note_off_c, 5, 80, 91
6, 176940, Note_on_c, 5, 81, 94
6, 176998, Note_off_c, 5, 81, 94
6, 177000, Note_on_c, 5, 83, 95
6, 177058, Note_off_c, 5, 83, 95
6, 177060, Note_on_c, 5, 81, 97
6, 177118, Note_off_c, 5, 81, 97
6, 177120, Note_on_c, 5, 80, 95
6, 177178, Note_off_c, 5, 80, 95
6, 177180, Note_on_c, 5, 78, 91
6, 177238, Note_off_c, 5, 78, 91
6, 177240, Note_on_c, 5, 76, 90
6, 177298, Note_off_c, 5, 76, 90
6, 177300, Note_on_c, 5, 81, 91
6, 177358, Note_off_c, 5, 81, 91
6, 177360, Note_on_c, 5, 80, 89
6, 177418, Note_off_c, 5, 80, 89
6, 177420, Note_on_c, 5, 78, 91
6, 177478, Note_off_c, 5, 78, 91
6, 177480, Note_on_c, 5, 76, 89
6, 177538, Note_off_c, 5, 76, 89
6, 177540, Note_on_c, 5, 74, 94
6, 177598, Note_off_c, 5, 74, 94
6, 177600, Note_on_c, 5, 72, 95
6, 177600, Note_on_c, 5, 69, 90
6, 177718, Note_off_c, 5, 72, 95
6, 177718, Note_off_c, 5, 69, 90
6, 188160, Note_on_c, 5, 45, 80
6, 188160, Note_on_c, 5, 52, 80
6, 188160, Note_on_c, 5, 48, 82
6, 188160, Note_on_c, 5, 57, 76
6, 188160, Note_on_c, 5, 69, 84
6, 188160, Note_on_c, 5, 72, 84
6, 188160, Note_on_c, 5, 64, 85
6, 188160, Note_on_c, 5, 76, 89
6, 188638, Note_off_c, 5, 45, 80
6, 188638, Note_off_c, 5, 52, 80
6, 188638, Note_off_c, 5, 48, 82
6, 188638, Note_off_c, 5, 57, 76
6, 188638, Note_off_c, 5, 69, 84
6, 188638, Note_off_c, 5, 72, 84
6, 188638, Note_off_c, 5, 64, 85
6, 188638, Note_off_c, 5, 76, 89
6, 188880, Note_on_c, 5, 57, 72
6, 188880, Note_on_c, 5, 76, 88
6, 189118, Note_off_c, 5, 57, 72
6, 189118, Note_off_c, 5, 76, 88
6, 189120, Note_on_c, 5, 45, 70
6, 189120, Note_on_c, 5, 76, 88
6, 189358, Note_off_c, 5, 45, 70
6, 189358, Note_off_c, 5, 76, 88
6, 189360, Note_on_c, 5, 57, 71
6, 189360, Note_on_c, 5, 76, 85
6, 189598, Note_off_c, 5, 57, 71
6, 189598, Note_off_c, 5, 76, 85
6, 189600, Note_on_c, 5, 56, 76
6, 189600, Note_on_c, 5, 76, 85
6, 189838, Note_off_c, 5, 56, 76
6, 189838, Note_off_c, 5, 76, 85
6, 189840, Note_on_c, 5, 52, 76
6, 189840, Note_on_c, 5, 76, 83
6, 190078, Note_off_c, 5, 52, 76
6, 190078, Note_off_c, 5, 76, 83
6, 190080, Note_on_c, 5, 81, 92
6, 190318, Note_off_c, 5, 81, 92
6, 190320, Note_on_c, 5, 57, 74
6, 190320, Note_on_c, 5, 76, 80
6, 190558, Note_off_c, 5, 57, 74
6, 190558, Note_off_c, 5, 76, 80
6, 190560, Note_on_c, 5, 56, 72
6, 190560, Note_on_c, 5, 76, 81
6, 190798, Note_off_c, 5, 56, 72
6, 190798, Note_off_c, 5, 76, 81
6, 190800, Note_on_c, 5, 52, 76
6, 190800, Note_on_c, 5, 76, 79
6, 191038, Note_off_c, 5, 52, 76
6, 191038, Note_off_c, 5, 76, 79
6, 191040, Note_on_c, 5, 81, 87
6, 191278, Note_off_c, 5, 81, 87
6, 191280, Note_on_c, 5, 57, 74
6, 191280, Note_on_c, 5, 76, 80
6, 191518, Note_off_c, 5, 57, 74
6, 191518, Note_off_c, 5, 76, 80
6, 191520, Note_on_c, 5, 56, 71
6, 191520, Note_on_c, 5, 76, 80
6, 191758, Note_off_c, 5, 56, 71
6, 191758, Note_off_c, 5, 76, 80
6, 191760, Note_on_c, 5, 52, 79
6, 191760, Note_on_c, 5, 76, 80
6, 191998, Note_off_c, 5, 52, 79
6, 191998, Note_off_c, 5, 76, 80
6, 192000, Note_on_c, 5, 81, 89
6, 192118, Note_off_c, 5, 81, 89
6, 192120, Note_on_c, 5, 76, 80
6, 192238, Note_off_c, 5, 76, 80
6, 192240, Note_on_c, 5, 57, 73
6, 192240, Note_on_c, 5, 76, 78
6, 192358, Note_off_c, 5, 76, 78
6, 192360, Note_on_c, 5, 76, 80
6, 192478, Note_off_c, 5, 57, 73
6, 192478, Note_off_c, 5, 76, 80
6, 192480, Note_on_c, 5, 45, 74
6, 192480, Note_on_c, 5, 81, 88
6, 192598, Note_off_c, 5, 81, 88
6, 192600, Note_on_c, 5, 76, 79
6, 192718, Note_off_c, 5, 76, 79
6, 192720, Note_on_c, 5, 76, 78
6, 192838, Note_off_c, 5, 76, 78
6, 192840, Note_on_c, 5, 76, 71
6, 192958, Note_off_c, 5, 45, 74
6, 192958, Note_off_c, 5, 76, 71
6, 192960, Note_on_c, 5, 81, 83
6, 193078, Note_off_c, 5, 81, 83
6, 193080, Note_on_c, 5, 76, 79
6, 193198, Note_off_c, 5, 76, 79
6, 193200, Note_on_c, 5, 57, 76
6, 193200, Note_on_c, 5, 76, 70
6, 193318, Note_off_c, 5, 76, 70
6, 193320, Note_on_c, 5, 76, 74
6, 193438, Note_off_c, 5, 57, 76
6, 193438, Note_off_c, 5, 76, 74
6, 193440, Note_on_c, 5, 45, 71
6, 193440, Note_on_c, 5, 81, 84
6, 193558, Note_off_c, 5, 81, 84
6, 193560, Note_on_c, 5, 76, 78
6, 193678, Note_off_c, 5, 76, 78
6, 193680, Note_on_c, 5, 76, 71
6, 193798, Note_off_c, 5, 76, 71
6, 193800, Note_on_c, 5, 76, 72
6, 193918, Note_off_c, 5, 45, 71
6, 193918, Note_off_c, 5, 76, 72
6, 193920, Note_on_c, 5, 81, 85
6, 194158, Note_off_c, 5, 81, 85
6, 194160, Note_on_c, 5, 57, 83
6, 194160, Note_on_c, 5, 60, 86
6, 194160, Note_on_c, 5, 79, 80
6, 194278, Note_off_c, 5, 79, 80
6, 194280, Note_on_c, 5, 77, 81
6, 194398, Note_off_c, 5, 57, 83
6, 194398, Note_off_c, 5, 60, 86
6, 194398, Note_off_c, 5, 77, 81
6, 194400, Note_on_c, 5, 56, 81
6, 194400, Note_on_c, 5, 59, 84
6, 194400, Note_on_c, 5, 76, 80
6, 194638, Note_off_c, 5, 56, 81
6, 194638, Note_off_c, 5, 59, 84
6, 194638, Note_off_c, 5, 76, 80
6, 194640, Note_on_c, 5, 56, 78
6, 194640, Note_on_c, 5, 52, 80
6, 194640, Note_on_c, 5, 74, 81
6, 194878, Note_off_c, 5, 56, 78
6, 194878, Note_off_c, 5, 52, 80
6, 194878, Note_off_c, 5, 74, 81
6, 194880, Note_on_c, 5, 57, 81
6, 194880, Note_on_c, 5, 45, 76
6, 194880, Note_on_c, 5, 72, 88
6, 195118, Note_off_c, 5, 57, 81
6, 195118, Note_off_c, 5, 45, 76
6, 195120, Note_on_c, 5, 50, 84
6, 195358, Note_off_c, 5, 72, 88
6, 195358, Note_off_c, 5, 50, 84
6, 195360, Note_on_c, 5, 52, 82
6, 195360, Note_on_c, 5, 72, 88
6, 195418, Note_off_c, 5, 72, 88
6, 195420, Note_on_c, 5, 71, 79
6, 195478, Note_off_c, 5, 71, 79
6, 195480, Note_on_c, 5, 72, 89
6, 195538, Note_off_c, 5, 72, 89
6, 195540, Note_on_c, 5, 71, 74
6, 195598, Note_off_c, 5, 52, 82
6, 195598, Note_off_c, 5, 71, 74
6, 195600, Note_on_c, 5, 40, 78
6, 195600, Note_on_c, 5, 72, 85
6, 195658, Note_off_c, 5, 72, 85
6, 195660, Note_on_c, 5, 71, 78
6, 195718, Note_off_c, 5, 71, 78
6, 195720, Note_on_c, 5, 72, 83
6, 195778, Note_off_c, 5, 72, 83
6, 195780, Note_on_c, 5, 71, 127
6, 195838, Note_off_c, 5, 40, 78
6, 195838, Note_off_c, 5, 71, 127
6, 195840, Note_on_c, 5, 45, 82
6, 195840, Note_on_c, 5, 69, 85
6, 195958, Note_off_c, 5, 69, 85
6, 195960, Note_on_c, 5, 64, 80
6, 196078, Note_off_c, 5, 64, 80
6, 196080, Note_on_c, 5, 65, 77
6, 196198, Note_off_c, 5, 65, 77
6, 196200, Note_on_c, 5, 64, 80
6, 196318, Note_off_c, 5, 45, 82
6, 196318, Note_off_c, 5, 64, 80
6, 196320, Note_on_c, 5, 69, 80
6, 196438, Note_off_c, 5, 69, 80
6, 196440, Note_on_c, 5, 64, 72
6, 196558, Note_off_c, 5, 64, 72
6, 196560, Note_on_c, 5, 52, 82
6, 196560, Note_on_c, 5, 65, 71
6, 196678, Note_off_c, 5, 65, 71
6, 196680, Note_on_c, 5, 64, 64
6, 196798, Note_off_c, 5, 52, 82
6, 196798, Note_off_c, 5, 64, 64
6, 196800, Note_on_c, 5, 48, 79
6, 196800, Note_on_c, 5, 69, 80
6, 196918, Note_off_c, 5, 69, 80
6, 196920, Note_on_c, 5, 64, 76
6, 197038, Note_off_c, 5, 48, 79
6, 197038, Note_off_c, 5, 64, 76
6, 197040, Note_on_c, 5, 45, 75
6, 197040, Note_on_c, 5, 65, 74
6, 197158, Note_off_c, 5, 65, 74
6, 197160, Note_on_c, 5, 64, 72
6, 197278, Note_off_c, 5, 45, 75
6, 197278, Note_off_c, 5, 64, 72
6, 197280, Note_on_c, 5, 69, 85
6, 197398, Note_off_c, 5, 69, 85
6, 197400, Note_on_c, 5, 64, 82
6, 197518, Note_off_c, 5, 64, 82
6, 197520, Note_on_c, 5, 52, 79
6, 197520, Note_on_c, 5, 65, 69
6, 197638, Note_off_c, 5, 65, 69
6, 197640, Note_on_c, 5, 64, 75
6, 197758, Note_off_c, 5, 52, 79
6, 197758, Note_off_c, 5, 64, 75
6, 197760, Note_on_c, 5, 48, 83
6, 197760, Note_on_c, 5, 69, 88
6, 197998, Note_off_c, 5, 48, 83
6, 197998, Note_off_c, 5, 69, 88
6, 198000, Note_on_c, 5, 45, 79
6, 198000, Note_on_c, 5, 67, 76
6, 198118, Note_off_c, 5, 67, 76
6, 198120, Note_on_c, 5, 65, 80
6, 198238, Note_off_c, 5, 45, 79
6, 198238, Note_off_c, 5, 65, 80
6, 198240, Note_on_c, 5, 44, 78
6, 198240, Note_on_c, 5, 64, 81
6, 198478, Note_off_c, 5, 44, 78
6, 198478, Note_off_c, 5, 64, 81
6, 198480, Note_on_c, 5, 40, 80
6, 198480, Note_on_c, 5, 62, 86
6, 198718, Note_off_c, 5, 40, 80
6, 198718, Note_off_c, 5, 62, 86
6, 198720, Note_on_c, 5, 45, 79
6, 198720, Note_on_c, 5, 60, 87
6, 198958, Note_off_c, 5, 45, 79
6, 198960, Note_on_c, 5, 50, 82
6, 199158, Note_off_c, 5, 60, 87
6, 199198, Note_off_c, 5, 50, 82
6, 199200, Note_on_c, 5, 60, 100
6, 199200, Note_on_c, 5, 52, 86
6, 199230, Note_on_c, 5, 59, 61
6, 199252, Note_off_c, 5, 60, 100
6, 199258, Note_off_c, 5, 59, 61
6, 199260, Note_on_c, 5, 60, 69
6, 199288, Note_off_c, 5, 60, 69
6, 199290, Note_on_c, 5, 59, 59
6, 199318, Note_off_c, 5, 59, 59
6, 199320, Note_on_c, 5, 60, 64
6, 199348, Note_off_c, 5, 60, 64
6, 199350, Note_on_c, 5, 59, 53
6, 199378, Note_off_c, 5, 59, 53
6, 199380, Note_on_c, 5, 60, 63
6, 199408, Note_off_c, 5, 60, 63
6, 199410, Note_on_c, 5, 59, 55
6, 199438, Note_off_c, 5, 52, 86
6, 199438, Note_off_c, 5, 59, 55
6, 199440, Note_on_c, 5, 60, 59
6, 199440, Note_on_c, 5, 40, 76
6, 199468, Note_off_c, 5, 60, 59
6, 199470, Note_on_c, 5, 59, 48
6, 199498, Note_off_c, 5, 59, 48
6, 199500, Note_on_c, 5, 60, 53
6, 199528, Note_off_c, 5, 60, 53
6, 199530, Note_on_c, 5, 59, 54
6, 199558, Note_off_c, 5, 59, 54
6, 199560, Note_on_c, 5, 60, 63
6, 199588, Note_off_c, 5, 60, 63
6, 199590, Note_on_c, 5, 59, 69
6, 199618, Note_off_c, 5, 59, 69
6, 199620, Note_on_c, 5, 60, 73
6, 199648, Note_off_c, 5, 60, 73
6, 199650, Note_on_c, 5, 59, 109
6, 199678, Note_off_c, 5, 40, 76
6, 199680, Note_off_c, 5, 59, 109
6, 199800, Note_on_c, 5, 45, 82
6, 199800, Note_on_c, 5, 57, 102
6, 201600, Note_off_c, 5, 45, 82
6, 201600, Note_off_c, 5, 57, 102
6, 201600, End_track
7, 0, Start_track
7, 0, Title_t, "Clavi Hpschd"
7, 0, Key_signature, 0, "major"
7, 240, Control_c, 0, 0, 0
7, 245, Control_c, 0, 32, 0
7, 250, Program_c, 0, 6
7, 255, Control_c, 0, 7, 120
7, 260, Control_c, 0, 10, 38
7, 265, Control_c, 0, 91, 127
7, 270, Control_c, 0, 93, 0
7, 275, Control_c, 0, 101, 0
7, 280, Control_c, 0, 100, 0
7, 285, Control_c, 0, 6, 2
7, 4802, Note_on_c, 0, 76, 93
7, 5155, Note_off_c, 0, 76, 93
7, 5282, Note_on_c, 0, 57, 89
7, 5522, Note_on_c, 0, 76, 86
7, 5635, Note_off_c, 0, 57, 89
7, 5712, Note_off_c, 0, 76, 86
7, 5762, Note_on_c, 0, 72, 80
7, 5970, Note_off_c, 0, 72, 80
7, 6002, Note_on_c, 0, 69, 76
7, 6192, Note_off_c, 0, 69, 76
7, 6242, Note_on_c, 0, 57, 88
7, 6482, Note_on_c, 0, 76, 90
7, 6613, Note_off_c, 0, 57, 88
7, 6660, Note_off_c, 0, 76, 90
7, 6722, Note_on_c, 0, 72, 82
7, 6895, Note_off_c, 0, 72, 82
7, 6962, Note_on_c, 0, 69, 80
7, 7141, Note_off_c, 0, 69, 80
7, 7202, Note_on_c, 0, 57, 86
7, 7442, Note_on_c, 0, 76, 91
7, 7561, Note_off_c, 0, 57, 86
7, 7638, Note_off_c, 0, 76, 91
7, 7680, Note_on_c, 0, 74, 81
7, 7726, Note_off_c, 0, 74, 81
7, 7728, Note_on_c, 0, 72, 74
7, 7774, Note_off_c, 0, 72, 74
7, 7776, Note_on_c, 0, 74, 85
7, 7822, Note_off_c, 0, 74, 85
7, 7824, Note_on_c, 0, 72, 75
7, 7870, Note_off_c, 0, 72, 75
7, 7872, Note_on_c, 0, 74, 77
7, 7918, Note_off_c, 0, 74, 77
7, 7922, Note_on_c, 0, 64, 82
7, 7922, Note_on_c, 0, 69, 75
7, 8028, Note_off_c, 0, 69, 75
7, 8042, Note_on_c, 0, 71, 76
7, 8118, Note_off_c, 0, 71, 76
7, 8130, Note_off_c, 0, 64, 82
7, 8162, Note_on_c, 0, 69, 80
7, 8162, Note_on_c, 0, 72, 78
7, 8335, Note_off_c, 0, 69, 80
7, 8347, Note_off_c, 0, 72, 78
7, 8402, Note_on_c, 0, 64, 81
7, 8402, Note_on_c, 0, 72, 72
7, 8569, Note_off_c, 0, 72, 72
7, 8604, Note_off_c, 0, 64, 81
7, 8640, Note_on_c, 0, 74, 89
7, 8678, Note_off_c, 0, 74, 89
7, 8680, Note_on_c, 0, 72, 78
7, 8718, Note_off_c, 0, 72, 78
7, 8720, Note_on_c, 0, 74, 83
7, 8758, Note_off_c, 0, 74, 83
7, 8760, Note_on_c, 0, 72, 76
7, 8798, Note_off_c, 0, 72, 76
7, 8800, Note_on_c, 0, 74, 79
7, 8838, Note_off_c, 0, 74, 79
7, 8840, Note_on_c, 0, 72, 71
7, 8878, Note_off_c, 0, 72, 71
7, 8882, Note_on_c, 0, 64, 86
7, 8882, Note_on_c, 0, 69, 76
7, 8982, Note_off_c, 0, 69, 76
7, 9002, Note_on_c, 0, 71, 80
7, 9072, Note_off_c, 0, 64, 86
7, 9096, Note_off_c, 0, 71, 80
7, 9122, Note_on_c, 0, 69, 80
7, 9122, Note_on_c, 0, 72, 80
7, 9318, Note_off_c, 0, 69, 80
7, 9318, Note_off_c, 0, 72, 80
7, 9362, Note_on_c, 0, 64, 79
7, 9362, Note_on_c, 0, 72, 76
7, 9541, Note_off_c, 0, 72, 76
7, 9558, Note_off_c, 0, 64, 79
7, 9602, Note_on_c, 0, 72, 78
7, 9792, Note_off_c, 0, 72, 78
7, 9842, Note_on_c, 0, 64, 80
7, 9842, Note_on_c, 0, 72, 77
7, 10009, Note_off_c, 0, 64, 80
7, 10021, Note_off_c, 0, 72, 77
7, 10080, Note_on_c, 0, 74, 82
7, 10082, Note_on_c, 0, 69, 76
7, 10108, Note_off_c, 0, 74, 82
7, 10110, Note_on_c, 0, 72, 75
7, 10138, Note_off_c, 0, 72, 75
7, 10140, Note_on_c, 0, 74, 80
7, 10168, Note_off_c, 0, 74, 80
7, 10170, Note_on_c, 0, 72, 75
7, 10198, Note_off_c, 0, 72, 75
7, 10200, Note_on_c, 0, 74, 80
7, 10228, Note_off_c, 0, 74, 80
7, 10230, Note_on_c, 0, 72, 72
7, 10258, Note_off_c, 0, 72, 72
7, 10260, Note_on_c, 0, 74, 85
7, 10272, Note_off_c, 0, 69, 76
7, 10288, Note_off_c, 0, 74, 85
7, 10290, Note_on_c, 0, 72, 80
7, 10318, Note_off_c, 0, 72, 80
7, 10322, Note_on_c, 0, 64, 75
7, 10322, Note_on_c, 0, 71, 75
7, 10440, Note_off_c, 0, 71, 75
7, 10442, Note_on_c, 0, 69, 75
7, 10518, Note_off_c, 0, 64, 75
7, 10560, Note_off_c, 0, 69, 75
7, 10562, Note_on_c, 0, 68, 81
7, 10682, Note_on_c, 0, 64, 86
7, 10758, Note_off_c, 0, 68, 81
7, 10800, Note_off_c, 0, 64, 86
7, 10802, Note_on_c, 0, 62, 84
7, 10802, Note_on_c, 0, 69, 79
7, 10920, Note_off_c, 0, 62, 84
7, 10922, Note_on_c, 0, 60, 82
7, 11010, Note_off_c, 0, 69, 79
7, 11040, Note_off_c, 0, 60, 82
7, 11042, Note_on_c, 0, 59, 79
7, 11042, Note_on_c, 0, 71, 78
7, 11160, Note_off_c, 0, 59, 79
7, 11162, Note_on_c, 0, 62, 80
7, 11221, Note_off_c, 0, 71, 78
7, 11280, Note_off_c, 0, 62, 80
7, 11282, Note_on_c, 0, 60, 82
7, 11282, Note_on_c, 0, 68, 79
7, 11400, Note_off_c, 0, 60, 82
7, 11402, Note_on_c, 0, 59, 78
7, 11467, Note_off_c, 0, 68, 79
7, 11520, Note_off_c, 0, 59, 78
7, 11522, Note_on_c, 0, 72, 89
7, 11522, Note_on_c, 0, 69, 86
7, 11522, Note_on_c, 0, 64, 91
7, 11522, Note_on_c, 0, 60, 85
7, 11522, Note_on_c, 0, 57, 85
7, 12000, Note_off_c, 0, 72, 89
7, 12000, Note_off_c, 0, 69, 86
7, 12000, Note_off_c, 0, 64, 91
7, 12000, Note_off_c, 0, 60, 85
7, 12000, Note_off_c, 0, 57, 85
7, 12242, Note_on_c, 0, 57, 79
7, 12242, Note_on_c, 0, 72, 82
7, 12480, Note_off_c, 0, 57, 79
7, 12480, Note_off_c, 0, 72, 82
7, 12482, Note_on_c, 0, 57, 76
7, 12482, Note_on_c, 0, 72, 79
7, 12600, Note_off_c, 0, 72, 79
7, 12602, Note_on_c, 0, 69, 77
7, 12720, Note_off_c, 0, 57, 76
7, 12720, Note_off_c, 0, 69, 77
7, 12722, Note_on_c, 0, 64, 85
7, 12722, Note_on_c, 0, 72, 77
7, 12840, Note_off_c, 0, 72, 77
7, 12842, Note_on_c, 0, 76, 78
7, 12960, Note_off_c, 0, 64, 85
7, 12960, Note_off_c, 0, 76, 78
7, 12962, Note_on_c, 0, 76, 76
7, 13080, Note_off_c, 0, 76, 76
7, 13082, Note_on_c, 0, 74, 70
7, 13200, Note_off_c, 0, 74, 70
7, 13202, Note_on_c, 0, 56, 85
7, 13202, Note_on_c, 0, 76, 80
7, 13440, Note_off_c, 0, 56, 85
7, 13440, Note_off_c, 0, 76, 80
7, 13442, Note_on_c, 0, 57, 90
7, 13562, Note_on_c, 0, 69, 83
7, 13680, Note_off_c, 0, 57, 90
7, 13680, Note_off_c, 0, 69, 83
7, 13682, Note_on_c, 0, 45, 82
7, 13682, Note_on_c, 0, 72, 82
7, 13800, Note_off_c, 0, 72, 82
7, 13802, Note_on_c, 0, 76, 80
7, 13920, Note_off_c, 0, 45, 82
7, 13920, Note_off_c, 0, 76, 80
7, 13922, Note_on_c, 0, 76, 80
7, 14040, Note_off_c, 0, 76, 80
7, 14042, Note_on_c, 0, 74, 77
7, 14160, Note_off_c, 0, 74, 77
7, 14162, Note_on_c, 0, 56, 87
7, 14162, Note_on_c, 0, 76, 77
7, 14400, Note_off_c, 0, 56, 87
7, 14400, Note_off_c, 0, 76, 77
7, 14402, Note_on_c, 0, 57, 89
7, 14522, Note_on_c, 0, 69, 80
7, 14640, Note_off_c, 0, 57, 89
7, 14640, Note_off_c, 0, 69, 80
7, 14642, Note_on_c, 0, 45, 85
7, 14642, Note_on_c, 0, 72, 79
7, 14760, Note_off_c, 0, 72, 79
7, 14762, Note_on_c, 0, 76, 76
7, 14880, Note_off_c, 0, 45, 85
7, 14880, Note_off_c, 0, 76, 76
7, 14882, Note_on_c, 0, 76, 71
7, 15000, Note_off_c, 0, 76, 71
7, 15002, Note_on_c, 0, 74, 75
7, 15120, Note_off_c, 0, 74, 75
7, 15122, Note_on_c, 0, 68, 75
7, 15122, Note_on_c, 0, 76, 80
7, 15360, Note_off_c, 0, 68, 75
7, 15360, Note_off_c, 0, 76, 80
7, 15362, Note_on_c, 0, 69, 77
7, 15600, Note_off_c, 0, 69, 77
7, 15602, Note_on_c, 0, 76, 96
7, 15602, Note_on_c, 0, 64, 79
7, 15840, Note_off_c, 0, 76, 96
7, 15840, Note_off_c, 0, 64, 79
7, 15842, Note_on_c, 0, 81, 105
7, 15842, Note_on_c, 0, 60, 80
7, 16080, Note_off_c, 0, 60, 80
7, 16082, Note_on_c, 0, 57, 79
7, 16320, Note_off_c, 0, 81, 105
7, 16320, Note_off_c, 0, 57, 79
7, 16322, Note_on_c, 0, 60, 76
7, 16560, Note_off_c, 0, 60, 76
7, 16562, Note_on_c, 0, 76, 102
7, 16562, Note_on_c, 0, 64, 80
7, 16800, Note_off_c, 0, 76, 102
7, 16800, Note_off_c, 0, 64, 80
7, 16802, Note_on_c, 0, 81, 103
7, 16802, Note_on_c, 0, 60, 80
7, 17040, Note_off_c, 0, 60, 80
7, 17042, Note_on_c, 0, 57, 79
7, 17160, Note_off_c, 0, 57, 79
7, 17162, Note_on_c, 0, 59, 81
7, 17280, Note_off_c, 0, 81, 103
7, 17280, Note_off_c, 0, 59, 81
7, 17282, Note_on_c, 0, 60, 80
7, 17400, Note_off_c, 0, 60, 80
7, 17402, Note_on_c, 0, 62, 88
7, 17520, Note_off_c, 0, 62, 88
7, 17522, Note_on_c, 0, 76, 101
7, 17522, Note_on_c, 0, 64, 85
7, 17640, Note_off_c, 0, 64, 85
7, 17642, Note_on_c, 0, 62, 80
7, 17760, Note_off_c, 0, 76, 101
7, 17760, Note_off_c, 0, 62, 80
7, 17762, Note_on_c, 0, 81, 103
7, 17762, Note_on_c, 0, 60, 77
7, 17880, Note_off_c, 0, 81, 103
7, 17880, Note_off_c, 0, 60, 77
7, 17882, Note_on_c, 0, 72, 99
7, 17882, Note_on_c, 0, 64, 84
7, 18000, Note_off_c, 0, 72, 99
7, 18000, Note_off_c, 0, 64, 84
7, 18002, Note_on_c, 0, 74, 99
7, 18002, Note_on_c, 0, 65, 78
7, 18120, Note_off_c, 0, 74, 99
7, 18120, Note_off_c, 0, 65, 78
7, 18122, Note_on_c, 0, 76, 100
7, 18122, Note_on_c, 0, 64, 80
7, 18240, Note_off_c, 0, 76, 100
7, 18240, Note_off_c, 0, 64, 80
7, 18242, Note_on_c, 0, 71, 101
7, 18242, Note_on_c, 0, 52, 84
7, 18360, Note_off_c, 0, 52, 84
7, 18362, Note_on_c, 0, 64, 82
7, 18480, Note_off_c, 0, 71, 101
7, 18480, Note_off_c, 0, 64, 82
7, 18482, Note_on_c, 0, 64, 86
7, 18482, Note_on_c, 0, 62, 79
7, 18600, Note_off_c, 0, 62, 79
7, 18602, Note_on_c, 0, 60, 76
7, 18720, Note_off_c, 0, 64, 86
7, 18720, Note_off_c, 0, 60, 76
7, 18722, Note_on_c, 0, 59, 80
7, 18840, Note_off_c, 0, 59, 80
7, 18842, Note_on_c, 0, 68, 82
7, 18842, Note_on_c, 0, 62, 79
7, 18960, Note_off_c, 0, 68, 82
7, 18960, Note_off_c, 0, 62, 79
7, 18962, Note_on_c, 0, 69, 85
7, 18962, Note_on_c, 0, 60, 78
7, 19080, Note_off_c, 0, 69, 85
7, 19080, Note_off_c, 0, 60, 78
7, 19082, Note_on_c, 0, 71, 83
7, 19082, Note_on_c, 0, 59, 76
7, 19200, Note_off_c, 0, 71, 83
7, 19200, Note_off_c, 0, 59, 76
7, 19202, Note_on_c, 0, 72, 85
7, 19202, Note_on_c, 0, 57, 84
7, 19320, Note_off_c, 0, 72, 85
7, 19322, Note_on_c, 0, 74, 81
7, 19440, Note_off_c, 0, 74, 81
7, 19442, Note_on_c, 0, 76, 81
7, 19680, Note_off_c, 0, 57, 84
7, 19680, Note_off_c, 0, 76, 81
7, 25922, Note_on_c, 0, 52, 81
7, 25922, Note_on_c, 0, 57, 76
7, 25922, Note_on_c, 0, 48, 76
7, 25922, Note_on_c, 0, 69, 83
7, 25922, Note_on_c, 0, 72, 85
7, 25922, Note_on_c, 0, 64, 85
7, 25922, Note_on_c, 0, 45, 88
7, 25922, Note_on_c, 0, 76, 91
7, 26400, Note_off_c, 0, 52, 81
7, 26400, Note_off_c, 0, 57, 76
7, 26400, Note_off_c, 0, 48, 76
7, 26400, Note_off_c, 0, 69, 83
7, 26400, Note_off_c, 0, 72, 85
7, 26400, Note_off_c, 0, 64, 85
7, 26400, Note_off_c, 0, 45, 88
7, 26400, Note_off_c, 0, 76, 91
7, 26642, Note_on_c, 0, 57, 83
7, 26642, Note_on_c, 0, 76, 86
7, 26880, Note_off_c, 0, 57, 83
7, 26880, Note_off_c, 0, 76, 86
7, 26882, Note_on_c, 0, 45, 79
7, 26882, Note_on_c, 0, 76, 84
7, 27120, Note_off_c, 0, 45, 79
7, 27120, Note_off_c, 0, 76, 84
7, 27122, Note_on_c, 0, 57, 81
7, 27122, Note_on_c, 0, 76, 82
7, 27360, Note_off_c, 0, 57, 81
7, 27360, Note_off_c, 0, 76, 82
7, 27362, Note_on_c, 0, 56, 79
7, 27362, Note_on_c, 0, 76, 86
7, 27600, Note_off_c, 0, 56, 79
7, 27600, Note_off_c, 0, 76, 86
7, 27602, Note_on_c, 0, 52, 86
7, 27602, Note_on_c, 0, 76, 85
7, 27840, Note_off_c, 0, 52, 86
7, 27840, Note_off_c, 0, 76, 85
7, 27842, Note_on_c, 0, 81, 84
7, 28080, Note_off_c, 0, 81, 84
7, 28082, Note_on_c, 0, 57, 79
7, 28082, Note_on_c, 0, 76, 79
7, 28320, Note_off_c, 0, 57, 79
7, 28320, Note_off_c, 0, 76, 79
7, 28322, Note_on_c, 0, 56, 75
7, 28322, Note_on_c, 0, 76, 82
7, 28560, Note_off_c, 0, 56, 75
7, 28560, Note_off_c, 0, 76, 82
7, 28562, Note_on_c, 0, 52, 83
7, 28562, Note_on_c, 0, 76, 80
7, 28800, Note_off_c, 0, 52, 83
7, 28800, Note_off_c, 0, 76, 80
7, 28802, Note_on_c, 0, 81, 86
7, 29040, Note_off_c, 0, 81, 86
7, 29042, Note_on_c, 0, 57, 77
7, 29042, Note_on_c, 0, 76, 82
7, 29280, Note_off_c, 0, 57, 77
7, 29280, Note_off_c, 0, 76, 82
7, 29282, Note_on_c, 0, 56, 73
7, 29282, Note_on_c, 0, 76, 86
7, 29520, Note_off_c, 0, 56, 73
7, 29520, Note_off_c, 0, 76, 86
7, 29522, Note_on_c, 0, 52, 78
7, 29522, Note_on_c, 0, 76, 82
7, 29760, Note_off_c, 0, 52, 78
7, 29760, Note_off_c, 0, 76, 82
7, 29762, Note_on_c, 0, 45, 71
7, 29762, Note_on_c, 0, 77, 81
7, 29820, Note_off_c, 0, 77, 81
7, 29822, Note_on_c, 0, 76, 79
7, 29880, Note_off_c, 0, 76, 79
7, 29882, Note_on_c, 0, 77, 77
7, 29940, Note_off_c, 0, 77, 77
7, 29942, Note_on_c, 0, 76, 76
7, 30000, Note_off_c, 0, 45, 71
7, 30000, Note_off_c, 0, 76, 76
7, 30002, Note_on_c, 0, 57, 73
7, 30002, Note_on_c, 0, 72, 77
7, 30120, Note_off_c, 0, 72, 77
7, 30122, Note_on_c, 0, 74, 78
7, 30240, Note_off_c, 0, 57, 73
7, 30240, Note_off_c, 0, 74, 78
7, 30242, Note_on_c, 0, 45, 68
7, 30242, Note_on_c, 0, 76, 83
7, 30480, Note_off_c, 0, 76, 83
7, 30482, Note_on_c, 0, 76, 76
7, 30720, Note_off_c, 0, 45, 68
7, 30720, Note_off_c, 0, 76, 76
7, 30722, Note_on_c, 0, 77, 80
7, 30780, Note_off_c, 0, 77, 80
7, 30782, Note_on_c, 0, 76, 80
7, 30840, Note_off_c, 0, 76, 80
7, 30842, Note_on_c, 0, 77, 78
7, 30900, Note_off_c, 0, 77, 78
7, 30902, Note_on_c, 0, 76, 77
7, 30960, Note_off_c, 0, 76, 77
7, 30962, Note_on_c, 0, 57, 85
7, 30962, Note_on_c, 0, 72, 79
7, 31080, Note_off_c, 0, 72, 79
7, 31082, Note_on_c, 0, 74, 78
7, 31200, Note_off_c, 0, 57, 85
7, 31200, Note_off_c, 0, 74, 78
7, 31202, Note_on_c, 0, 45, 81
7, 31202, Note_on_c, 0, 76, 80
7, 31440, Note_off_c, 0, 76, 80
7, 31442, Note_on_c, 0, 76, 83
7, 31680, Note_off_c, 0, 45, 81
7, 31680, Note_off_c, 0, 76, 83
7, 31682, Note_on_c, 0, 76, 80
7, 31920, Note_off_c, 0, 76, 80
7, 31922, Note_on_c, 0, 57, 86
7, 31922, Note_on_c, 0, 76, 80
7, 32040, Note_off_c, 0, 57, 86
7, 32042, Note_on_c, 0, 56, 77
7, 32160, Note_off_c, 0, 76, 80
7, 32160, Note_off_c, 0, 56, 77
7, 32162, Note_on_c, 0, 57, 82
7, 32162, Note_on_c, 0, 77, 78
7, 32220, Note_off_c, 0, 77, 78
7, 32222, Note_on_c, 0, 76, 76
7, 32280, Note_off_c, 0, 76, 76
7, 32282, Note_on_c, 0, 77, 80
7, 32340, Note_off_c, 0, 77, 80
7, 32342, Note_on_c, 0, 76, 76
7, 32400, Note_off_c, 0, 57, 82
7, 32400, Note_off_c, 0, 76, 76
7, 32402, Note_on_c, 0, 45, 89
7, 32402, Note_on_c, 0, 74, 78
7, 32520, Note_off_c, 0, 74, 78
7, 32522, Note_on_c, 0, 72, 77
7, 32640, Note_off_c, 0, 45, 89
7, 32640, Note_off_c, 0, 72, 77
7, 32642, Note_on_c, 0, 52, 87
7, 32642, Note_on_c, 0, 71, 84
7, 32880, Note_off_c, 0, 71, 84
7, 32882, Note_on_c, 0, 64, 86
7, 33120, Note_off_c, 0, 52, 87
7, 33120, Note_off_c, 0, 64, 86
7, 41882, Note_on_c, 0, 60, 80
7, 42000, Note_off_c, 0, 60, 80
7, 42002, Note_on_c, 0, 57, 74
7, 42120, Note_off_c, 0, 57, 74
7, 42122, Note_on_c, 0, 60, 77
7, 42240, Note_off_c, 0, 60, 77
7, 42242, Note_on_c, 0, 74, 84
7, 42242, Note_on_c, 0, 62, 83
7, 42360, Note_off_c, 0, 74, 84
7, 42362, Note_on_c, 0, 69, 81
7, 42480, Note_off_c, 0, 62, 83
7, 42480, Note_off_c, 0, 69, 81
7, 42482, Note_on_c, 0, 65, 77
7, 42482, Note_on_c, 0, 57, 80
7, 42600, Note_off_c, 0, 65, 77
7, 42602, Note_on_c, 0, 74, 82
7, 42720, Note_off_c, 0, 57, 80
7, 42720, Note_off_c, 0, 74, 82
7, 42722, Note_on_c, 0, 74, 80
7, 42722, Note_on_c, 0, 53, 82
7, 42840, Note_off_c, 0, 74, 80
7, 42842, Note_on_c, 0, 69, 76
7, 42960, Note_off_c, 0, 53, 82
7, 42960, Note_off_c, 0, 69, 76
7, 42962, Note_on_c, 0, 65, 72
7, 42962, Note_on_c, 0, 50, 84
7, 43080, Note_off_c, 0, 65, 72
7, 43082, Note_on_c, 0, 74, 69
7, 43200, Note_off_c, 0, 50, 84
7, 43200, Note_off_c, 0, 74, 69
7, 43202, Note_on_c, 0, 74, 84
7, 43202, Note_on_c, 0, 59, 72
7, 43320, Note_off_c, 0, 59, 72
7, 43322, Note_on_c, 0, 57, 74
7, 43440, Note_off_c, 0, 74, 84
7, 43440, Note_off_c, 0, 57, 74
7, 43442, Note_on_c, 0, 67, 76
7, 43442, Note_on_c, 0, 59, 76
7, 43680, Note_off_c, 0, 67, 76
7, 43680, Note_off_c, 0, 59, 76
7, 43682, Note_on_c, 0, 71, 83
7, 43920, Note_off_c, 0, 71, 83
7, 43922, Note_on_c, 0, 60, 84
7, 43922, Note_on_c, 0, 74, 81
7, 43980, Note_off_c, 0, 60, 84
7, 43982, Note_on_c, 0, 59, 79
7, 44040, Note_off_c, 0, 59, 79
7, 44042, Note_on_c, 0, 60, 83
7, 44100, Note_off_c, 0, 60, 83
7, 44102, Note_on_c, 0, 59, 77
7, 44160, Note_off_c, 0, 74, 81
7, 44160, Note_off_c, 0, 59, 77
7, 44162, Note_on_c, 0, 60, 78
7, 44162, Note_on_c, 0, 72, 85
7, 44280, Note_off_c, 0, 72, 85
7, 44282, Note_on_c, 0, 67, 81
7, 44400, Note_off_c, 0, 60, 78
7, 44400, Note_off_c, 0, 67, 81
7, 44402, Note_on_c, 0, 55, 87
7, 44402, Note_on_c, 0, 64, 82
7, 44520, Note_off_c, 0, 64, 82
7, 44522, Note_on_c, 0, 72, 82
7, 44640, Note_off_c, 0, 55, 87
7, 44640, Note_off_c, 0, 72, 82
7, 44642, Note_on_c, 0, 52, 76
7, 44642, Note_on_c, 0, 72, 74
7, 44760, Note_off_c, 0, 72, 74
7, 44762, Note_on_c, 0, 67, 80
7, 44880, Note_off_c, 0, 52, 76
7, 44880, Note_off_c, 0, 67, 80
7, 44882, Note_on_c, 0, 48, 78
7, 44882, Note_on_c, 0, 64, 77
7, 45000, Note_off_c, 0, 64, 77
7, 45002, Note_on_c, 0, 72, 77
7, 45120, Note_off_c, 0, 48, 78
7, 45120, Note_off_c, 0, 72, 77
7, 45122, Note_on_c, 0, 57, 75
7, 45122, Note_on_c, 0, 72, 82
7, 45240, Note_off_c, 0, 57, 75
7, 45242, Note_on_c, 0, 56, 77
7, 45360, Note_off_c, 0, 72, 82
7, 45360, Note_off_c, 0, 56, 77
7, 45362, Note_on_c, 0, 57, 76
7, 45362, Note_on_c, 0, 65, 83
7, 45600, Note_off_c, 0, 57, 76
7, 45600, Note_off_c, 0, 65, 83
7, 45602, Note_on_c, 0, 69, 87
7, 45840, Note_off_c, 0, 69, 87
7, 45842, Note_on_c, 0, 59, 84
7, 45842, Note_on_c, 0, 72, 82
7, 45900, Note_off_c, 0, 59, 84
7, 45902, Note_on_c, 0, 57, 86
7, 45960, Note_off_c, 0, 57, 86
7, 45962, Note_on_c, 0, 59, 88
7, 46020, Note_off_c, 0, 59, 88
7, 46022, Note_on_c, 0, 57, 85
7, 46080, Note_off_c, 0, 72, 82
7, 46080, Note_off_c, 0, 57, 85
7, 46082, Note_on_c, 0, 59, 80
7, 46082, Note_on_c, 0, 71, 83
7, 46200, Note_off_c, 0, 71, 83
7, 46202, Note_on_c, 0, 65, 80
7, 46320, Note_off_c, 0, 59, 80
7, 46320, Note_off_c, 0, 65, 80
7, 46322, Note_on_c, 0, 53, 85
7, 46322, Note_on_c, 0, 62, 82
7, 46440, Note_off_c, 0, 62, 82
7, 46442, Note_on_c, 0, 71, 80
7, 46560, Note_off_c, 0, 53, 85
7, 46560, Note_off_c, 0, 71, 80
7, 46562, Note_on_c, 0, 50, 78
7, 46562, Note_on_c, 0, 71, 78
7, 46680, Note_off_c, 0, 71, 78
7, 46682, Note_on_c, 0, 65, 75
7, 46800, Note_off_c, 0, 50, 78
7, 46800, Note_off_c, 0, 65, 75
7, 46802, Note_on_c, 0, 47, 78
7, 46802, Note_on_c, 0, 62, 76
7, 46920, Note_off_c, 0, 62, 76
7, 46922, Note_on_c, 0, 71, 78
7, 47040, Note_off_c, 0, 47, 78
7, 47040, Note_off_c, 0, 71, 78
7, 47042, Note_on_c, 0, 56, 71
7, 47042, Note_on_c, 0, 71, 79
7, 47160, Note_off_c, 0, 56, 71
7, 47162, Note_on_c, 0, 54, 74
7, 47280, Note_off_c, 0, 71, 79
7, 47280, Note_off_c, 0, 54, 74
7, 47282, Note_on_c, 0, 56, 78
7, 47282, Note_on_c, 0, 64, 84
7, 47520, Note_off_c, 0, 56, 78
7, 47520, Note_off_c, 0, 64, 84
7, 47522, Note_on_c, 0, 68, 79
7, 47760, Note_off_c, 0, 68, 79
7, 47762, Note_on_c, 0, 56, 84
7, 47762, Note_on_c, 0, 71, 80
7, 48000, Note_off_c, 0, 56, 84
7, 48000, Note_off_c, 0, 71, 80
7, 48002, Note_on_c, 0, 52, 78
7, 48002, Note_on_c, 0, 72, 86
7, 48120, Note_off_c, 0, 52, 78
7, 48122, Note_on_c, 0, 56, 71
7, 48240, Note_off_c, 0, 72, 86
7, 48240, Note_off_c, 0, 56, 71
7, 48242, Note_on_c, 0, 57, 75
7, 48242, Note_on_c, 0, 69, 84
7, 48360, Note_off_c, 0, 57, 75
7, 48362, Note_on_c, 0, 59, 74
7, 48480, Note_off_c, 0, 69, 84
7, 48480, Note_off_c, 0, 59, 74
7, 48482, Note_on_c, 0, 60, 73
7, 48600, Note_off_c, 0, 60, 73
7, 48602, Note_on_c, 0, 59, 74
7, 48720, Note_off_c, 0, 59, 74
7, 48722, Note_on_c, 0, 60, 73
7, 48840, Note_off_c, 0, 60, 73
7, 48842, Note_on_c, 0, 62, 76
7, 48960, Note_off_c, 0, 62, 76
7, 48962, Note_on_c, 0, 64, 80
7, 49200, Note_off_c, 0, 64, 80
7, 49202, Note_on_c, 0, 59, 81
7, 49202, Note_on_c, 0, 80, 84
7, 49440, Note_off_c, 0, 59, 81
7, 49440, Note_off_c, 0, 80, 84
7, 49442, Note_on_c, 0, 81, 86
7, 49562, Note_on_c, 0, 52, 81
7, 49680, Note_off_c, 0, 81, 86
7, 49680, Note_off_c, 0, 52, 81
7, 49682, Note_on_c, 0, 57, 76
7, 49682, Note_on_c, 0, 69, 81
7, 49800, Note_off_c, 0, 57, 76
7, 49802, Note_on_c, 0, 60, 81
7, 49920, Note_off_c, 0, 69, 81
7, 49920, Note_off_c, 0, 60, 81
7, 49922, Note_on_c, 0, 64, 83
7, 50160, Note_off_c, 0, 64, 83
7, 50162, Note_on_c, 0, 59, 76
7, 50162, Note_on_c, 0, 80, 86
7, 50400, Note_off_c, 0, 59, 76
7, 50400, Note_off_c, 0, 80, 86
7, 50402, Note_on_c, 0, 81, 84
7, 50522, Note_on_c, 0, 52, 81
7, 50640, Note_off_c, 0, 81, 84
7, 50640, Note_off_c, 0, 52, 81
7, 50642, Note_on_c, 0, 57, 76
7, 50642, Note_on_c, 0, 69, 78
7, 50760, Note_off_c, 0, 57, 76
7, 50762, Note_on_c, 0, 60, 72
7, 50880, Note_off_c, 0, 69, 78
7, 50880, Note_off_c, 0, 60, 72
7, 50882, Note_on_c, 0, 64, 80
7, 51120, Note_off_c, 0, 64, 80
7, 51122, Note_on_c, 0, 59, 79
7, 51122, Note_on_c, 0, 80, 84
7, 51360, Note_off_c, 0, 59, 79
7, 51360, Note_off_c, 0, 80, 84
7, 51362, Note_on_c, 0, 81, 84
7, 51480, Note_off_c, 0, 81, 84
7, 51482, Note_on_c, 0, 52, 80
7, 51482, Note_on_c, 0, 76, 76
7, 51600, Note_off_c, 0, 52, 80
7, 51600, Note_off_c, 0, 76, 76
7, 51602, Note_on_c, 0, 57, 78
7, 51602, Note_on_c, 0, 76, 80
7, 51720, Note_off_c, 0, 57, 78
7, 51720, Note_off_c, 0, 76, 80
7, 51722, Note_on_c, 0, 59, 76
7, 51722, Note_on_c, 0, 76, 80
7, 51840, Note_off_c, 0, 59, 76
7, 51840, Note_off_c, 0, 76, 80
7, 51842, Note_on_c, 0, 60, 80
7, 51842, Note_on_c, 0, 81, 87
7, 51960, Note_off_c, 0, 60, 80
7, 51960, Note_off_c, 0, 81, 87
7, 51962, Note_on_c, 0, 57, 74
7, 51962, Note_on_c, 0, 76, 70
7, 52080, Note_off_c, 0, 57, 74
7, 52080, Note_off_c, 0, 76, 70
7, 52082, Note_on_c, 0, 60, 77
7, 52082, Note_on_c, 0, 76, 66
7, 52200, Note_off_c, 0, 60, 77
7, 52200, Note_off_c, 0, 76, 66
7, 52202, Note_on_c, 0, 64, 81
7, 52202, Note_on_c, 0, 76, 75
7, 52320, Note_off_c, 0, 64, 81
7, 52320, Note_off_c, 0, 76, 75
7, 52322, Note_on_c, 0, 60, 86
7, 52322, Note_on_c, 0, 81, 91
7, 52440, Note_off_c, 0, 60, 86
7, 52440, Note_off_c, 0, 81, 91
7, 52442, Note_on_c, 0, 57, 76
7, 52442, Note_on_c, 0, 76, 81
7, 52560, Note_off_c, 0, 57, 76
7, 52560, Note_off_c, 0, 76, 81
7, 52562, Note_on_c, 0, 60, 80
7, 52562, Note_on_c, 0, 76, 78
7, 52680, Note_off_c, 0, 60, 80
7, 52680, Note_off_c, 0, 76, 78
7, 52682, Note_on_c, 0, 64, 79
7, 52682, Note_on_c, 0, 76, 86
7, 52800, Note_off_c, 0, 64, 79
7, 52800, Note_off_c, 0, 76, 86
7, 52802, Note_on_c, 0, 60, 82
7, 52802, Note_on_c, 0, 81, 89
7, 52920, Note_off_c, 0, 60, 82
7, 52920, Note_off_c, 0, 81, 89
7, 52922, Note_on_c, 0, 57, 74
7, 52922, Note_on_c, 0, 76, 78
7, 53040, Note_off_c, 0, 57, 74
7, 53040, Note_off_c, 0, 76, 78
7, 53042, Note_on_c, 0, 60, 76
7, 53042, Note_on_c, 0, 76, 80
7, 53160, Note_off_c, 0, 60, 76
7, 53160, Note_off_c, 0, 76, 80
7, 53162, Note_on_c, 0, 64, 80
7, 53162, Note_on_c, 0, 76, 76
7, 53280, Note_off_c, 0, 64, 80
7, 53280, Note_off_c, 0, 76, 76
7, 53282, Note_on_c, 0, 60, 81
7, 53282, Note_on_c, 0, 81, 88
7, 53400, Note_off_c, 0, 60, 81
7, 53400, Note_off_c, 0, 81, 88
7, 53402, Note_on_c, 0, 57, 71
7, 53402, Note_on_c, 0, 76, 80
7, 53520, Note_off_c, 0, 57, 71
7, 53520, Note_off_c, 0, 76, 80
7, 53522, Note_on_c, 0, 60, 78
7, 53522, Note_on_c, 0, 76, 79
7, 53640, Note_off_c, 0, 60, 78
7, 53640, Note_off_c, 0, 76, 79
7, 53642, Note_on_c, 0, 64, 78
7, 53642, Note_on_c, 0, 76, 76
7, 53760, Note_off_c, 0, 64, 78
7, 53760, Note_off_c, 0, 76, 76
7, 53762, Note_on_c, 0, 60, 80
7, 53762, Note_on_c, 0, 81, 86
7, 53880, Note_off_c, 0, 60, 80
7, 53882, Note_on_c, 0, 59, 75
7, 54000, Note_off_c, 0, 81, 86
7, 54000, Note_off_c, 0, 59, 75
7, 54002, Note_on_c, 0, 60, 76
7, 54002, Note_on_c, 0, 79, 85
7, 54120, Note_off_c, 0, 60, 76
7, 54120, Note_off_c, 0, 79, 85
7, 54122, Note_on_c, 0, 62, 76
7, 54122, Note_on_c, 0, 77, 84
7, 54240, Note_off_c, 0, 62, 76
7, 54240, Note_off_c, 0, 77, 84
7, 54242, Note_on_c, 0, 64, 78
7, 54242, Note_on_c, 0, 76, 80
7, 54360, Note_off_c, 0, 64, 78
7, 54362, Note_on_c, 0, 66, 71
7, 54480, Note_off_c, 0, 76, 80
7, 54480, Note_off_c, 0, 66, 71
7, 54482, Note_on_c, 0, 68, 74
7, 54482, Note_on_c, 0, 74, 87
7, 54600, Note_off_c, 0, 68, 74
7, 54602, Note_on_c, 0, 64, 70
7, 54720, Note_off_c, 0, 74, 87
7, 54720, Note_off_c, 0, 64, 70
7, 54722, Note_on_c, 0, 69, 76
7, 54722, Note_on_c, 0, 72, 88
7, 54840, Note_off_c, 0, 69, 76
7, 54842, Note_on_c, 0, 67, 80
7, 54960, Note_off_c, 0, 67, 80
7, 54962, Note_on_c, 0, 65, 79
7, 55080, Note_off_c, 0, 65, 79
7, 55082, Note_on_c, 0, 64, 76
7, 55200, Note_off_c, 0, 72, 88
7, 55200, Note_off_c, 0, 64, 76
7, 55202, Note_on_c, 0, 62, 76
7, 55202, Note_on_c, 0, 71, 91
7, 55320, Note_off_c, 0, 62, 76
7, 55322, Note_on_c, 0, 65, 77
7, 55440, Note_off_c, 0, 65, 77
7, 55442, Note_on_c, 0, 64, 75
7, 55560, Note_off_c, 0, 64, 75
7, 55562, Note_on_c, 0, 62, 78
7, 55680, Note_off_c, 0, 71, 91
7, 55680, Note_off_c, 0, 62, 78
7, 55682, Note_on_c, 0, 60, 76
7, 55682, Note_on_c, 0, 69, 91
7, 55920, Note_off_c, 0, 60, 76
7, 55922, Note_on_c, 0, 64, 74
7, 56160, Note_off_c, 0, 69, 91
7, 56160, Note_off_c, 0, 64, 74
7, 56162, Note_on_c, 0, 57, 74
7, 56400, Note_off_c, 0, 57, 74
7, 56402, Note_on_c, 0, 60, 77
7, 56640, Note_off_c, 0, 60, 77
7, 56642, Note_on_c, 0, 52, 78
7, 56880, Note_off_c, 0, 52, 78
7, 56882, Note_on_c, 0, 57, 69
7, 57120, Note_off_c, 0, 57, 69
7, 57122, Note_on_c, 0, 48, 71
7, 57360, Note_off_c, 0, 48, 71
7, 57362, Note_on_c, 0, 52, 76
7, 57600, Note_off_c, 0, 52, 76
7, 57602, Note_on_c, 0, 45, 80
7, 57842, Note_on_c, 0, 84, 92
7, 58080, Note_off_c, 0, 45, 80
7, 58080, Note_off_c, 0, 84, 92
7, 58082, Note_on_c, 0, 76, 80
7, 58320, Note_off_c, 0, 76, 80
7, 58322, Note_on_c, 0, 81, 83
7, 58560, Note_off_c, 0, 81, 83
7, 58562, Note_on_c, 0, 72, 80
7, 58800, Note_off_c, 0, 72, 80
7, 58802, Note_on_c, 0, 76, 80
7, 59040, Note_off_c, 0, 76, 80
7, 59042, Note_on_c, 0, 69, 80
7, 59280, Note_off_c, 0, 69, 80
7, 59282, Note_on_c, 0, 72, 84
7, 59520, Note_off_c, 0, 72, 84
7, 59522, Note_on_c, 0, 64, 87
7, 59760, Note_off_c, 0, 64, 87
7, 59762, Note_on_c, 0, 69, 80
7, 60000, Note_off_c, 0, 69, 80
7, 60002, Note_on_c, 0, 60, 82
7, 60240, Note_off_c, 0, 60, 82
7, 60242, Note_on_c, 0, 64, 80
7, 60480, Note_off_c, 0, 64, 80
7, 60482, Note_on_c, 0, 57, 83
7, 60960, Note_off_c, 0, 57, 83
7, 72962, Note_on_c, 0, 55, 86
7, 72962, Note_on_c, 0, 74, 89
7, 72962, Note_on_c, 0, 71, 86
7, 73080, Note_off_c, 0, 55, 86
7, 73082, Note_on_c, 0, 67, 88
7, 73200, Note_off_c, 0, 67, 88
7, 73202, Note_on_c, 0, 65, 84
7, 73320, Note_off_c, 0, 65, 84
7, 73322, Note_on_c, 0, 64, 86
7, 73440, Note_off_c, 0, 74, 89
7, 73440, Note_off_c, 0, 71, 86
7, 73440, Note_off_c, 0, 64, 86
7, 73442, Note_on_c, 0, 62, 79
7, 73560, Note_off_c, 0, 62, 79
7, 73562, Note_on_c, 0, 60, 80
7, 73680, Note_off_c, 0, 60, 80
7, 73682, Note_on_c, 0, 59, 78
7, 73682, Note_on_c, 0, 74, 81
7, 73800, Note_off_c, 0, 59, 78
7, 73802, Note_on_c, 0, 57, 74
7, 73920, Note_off_c, 0, 74, 81
7, 73920, Note_off_c, 0, 57, 74
7, 73922, Note_on_c, 0, 55, 83
7, 73922, Note_on_c, 0, 76, 83
7, 74040, Note_off_c, 0, 76, 83
7, 74042, Note_on_c, 0, 72, 76
7, 74160, Note_off_c, 0, 55, 83
7, 74160, Note_off_c, 0, 72, 76
7, 74162, Note_on_c, 0, 60, 83
7, 74162, Note_on_c, 0, 76, 74
7, 74280, Note_off_c, 0, 76, 74
7, 74282, Note_on_c, 0, 79, 79
7, 74400, Note_off_c, 0, 60, 83
7, 74400, Note_off_c, 0, 79, 79
7, 74402, Note_on_c, 0, 79, 73
7, 74520, Note_off_c, 0, 79, 73
7, 74522, Note_on_c, 0, 77, 82
7, 74640, Note_off_c, 0, 77, 82
7, 74642, Note_on_c, 0, 59, 82
7, 74642, Note_on_c, 0, 79, 84
7, 74880, Note_off_c, 0, 59, 82
7, 74880, Note_off_c, 0, 79, 84
7, 74882, Note_on_c, 0, 60, 81
7, 75002, Note_on_c, 0, 72, 83
7, 75120, Note_off_c, 0, 60, 81
7, 75120, Note_off_c, 0, 72, 83
7, 75122, Note_on_c, 0, 48, 75
7, 75122, Note_on_c, 0, 76, 88
7, 75240, Note_off_c, 0, 76, 88
7, 75242, Note_on_c, 0, 79, 91
7, 75360, Note_off_c, 0, 48, 75
7, 75360, Note_off_c, 0, 79, 91
7, 75362, Note_on_c, 0, 79, 88
7, 75480, Note_off_c, 0, 79, 88
7, 75482, Note_on_c, 0, 77, 89
7, 75600, Note_off_c, 0, 77, 89
7, 75602, Note_on_c, 0, 59, 83
7, 75602, Note_on_c, 0, 79, 91
7, 75840, Note_off_c, 0, 59, 83
7, 75840, Note_off_c, 0, 79, 91
7, 75842, Note_on_c, 0, 60, 84
7, 75962, Note_on_c, 0, 72, 83
7, 76080, Note_off_c, 0, 60, 84
7, 76080, Note_off_c, 0, 72, 83
7, 76082, Note_on_c, 0, 48, 80
7, 76082, Note_on_c, 0, 76, 83
7, 76200, Note_off_c, 0, 76, 83
7, 76202, Note_on_c, 0, 79, 83
7, 76320, Note_off_c, 0, 48, 80
7, 76320, Note_off_c, 0, 79, 83
7, 76322, Note_on_c, 0, 79, 79
7, 76440, Note_off_c, 0, 79, 79
7, 76442, Note_on_c, 0, 77, 81
7, 76560, Note_off_c, 0, 77, 81
7, 76562, Note_on_c, 0, 71, 81
7, 76562, Note_on_c, 0, 79, 84
7, 76800, Note_off_c, 0, 71, 81
7, 76800, Note_off_c, 0, 79, 84
7, 76802, Note_on_c, 0, 72, 81
7, 77040, Note_off_c, 0, 72, 81
7, 77042, Note_on_c, 0, 79, 85
7, 77042, Note_on_c, 0, 67, 80
7, 77280, Note_off_c, 0, 79, 85
7, 77280, Note_off_c, 0, 67, 80
7, 77282, Note_on_c, 0, 84, 95
7, 77282, Note_on_c, 0, 64, 83
7, 77520, Note_off_c, 0, 64, 83
7, 77522, Note_on_c, 0, 60, 76
7, 77760, Note_off_c, 0, 84, 95
7, 77760, Note_off_c, 0, 60, 76
7, 77762, Note_on_c, 0, 64, 78
7, 78000, Note_off_c, 0, 64, 78
7, 78002, Note_on_c, 0, 79, 88
7, 78002, Note_on_c, 0, 67, 74
7, 78240, Note_off_c, 0, 79, 88
7, 78240, Note_off_c, 0, 67, 74
7, 78242, Note_on_c, 0, 84, 90
7, 78242, Note_on_c, 0, 64, 78
7, 78480, Note_off_c, 0, 64, 78
7, 78482, Note_on_c, 0, 60, 80
7, 78600, Note_off_c, 0, 60, 80
7, 78602, Note_on_c, 0, 62, 87
7, 78720, Note_off_c, 0, 84, 90
7, 78720, Note_off_c, 0, 62, 87
7, 78722, Note_on_c, 0, 64, 82
7, 78840, Note_off_c, 0, 64, 82
7, 78842, Note_on_c, 0, 65, 80
7, 78960, Note_off_c, 0, 65, 80
7, 78962, Note_on_c, 0, 79, 80
7, 78962, Note_on_c, 0, 67, 77
7, 79080, Note_off_c, 0, 67, 77
7, 79082, Note_on_c, 0, 65, 73
7, 79200, Note_off_c, 0, 79, 80
7, 79200, Note_off_c, 0, 65, 73
7, 79202, Note_on_c, 0, 84, 90
7, 79202, Note_on_c, 0, 64, 76
7, 79320, Note_off_c, 0, 84, 90
7, 79320, Note_off_c, 0, 64, 76
7, 79322, Note_on_c, 0, 76, 76
7, 79322, Note_on_c, 0, 67, 75
7, 79440, Note_off_c, 0, 76, 76
7, 79440, Note_off_c, 0, 67, 75
7, 79442, Note_on_c, 0, 77, 84
7, 79442, Note_on_c, 0, 69, 74
7, 79560, Note_off_c, 0, 77, 84
7, 79560, Note_off_c, 0, 69, 74
7, 79562, Note_on_c, 0, 79, 80
7, 79562, Note_on_c, 0, 67, 77
7, 79680, Note_off_c, 0, 79, 80
7, 79680, Note_off_c, 0, 67, 77
7, 79682, Note_on_c, 0, 74, 86
7, 79682, Note_on_c, 0, 55, 86
7, 79800, Note_off_c, 0, 55, 86
7, 79802, Note_on_c, 0, 60, 83
7, 79920, Note_off_c, 0, 60, 83
7, 79922, Note_on_c, 0, 59, 75
7, 80040, Note_off_c, 0, 59, 75
7, 80042, Note_on_c, 0, 57, 79
7, 80160, Note_off_c, 0, 74, 86
7, 80160, Note_off_c, 0, 57, 79
7, 80162, Note_on_c, 0, 55, 85
7, 80280, Note_off_c, 0, 55, 85
7, 80282, Note_on_c, 0, 67, 81
7, 80282, Note_on_c, 0, 53, 81
7, 80400, Note_off_c, 0, 67, 81
7, 80400, Note_off_c, 0, 53, 81
7, 80402, Note_on_c, 0, 69, 79
7, 80402, Note_on_c, 0, 52, 77
7, 80520, Note_off_c, 0, 69, 79
7, 80520, Note_off_c, 0, 52, 77
7, 80522, Note_on_c, 0, 71, 82
7, 80522, Note_on_c, 0, 50, 79
7, 80640, Note_off_c, 0, 71, 82
7, 80640, Note_off_c, 0, 50, 79
7, 80642, Note_on_c, 0, 52, 85
7, 80642, Note_on_c, 0, 72, 78
7, 80760, Note_off_c, 0, 72, 78
7, 80762, Note_on_c, 0, 74, 81
7, 80880, Note_off_c, 0, 52, 85
7, 80880, Note_off_c, 0, 74, 81
7, 80882, Note_on_c, 0, 48, 78
7, 80882, Note_on_c, 0, 76, 80
7, 81000, Note_off_c, 0, 76, 80
7, 81002, Note_on_c, 0, 77, 80
7, 81120, Note_off_c, 0, 48, 78
7, 81120, Note_off_c, 0, 77, 80
7, 81122, Note_on_c, 0, 79, 80
7, 81240, Note_off_c, 0, 79, 80
7, 81242, Note_on_c, 0, 70, 72
7, 81360, Note_off_c, 0, 70, 72
7, 81362, Note_on_c, 0, 55, 82
7, 81362, Note_on_c, 0, 69, 73
7, 81480, Note_off_c, 0, 69, 73
7, 81482, Note_on_c, 0, 70, 76
7, 81600, Note_off_c, 0, 55, 82
7, 81600, Note_off_c, 0, 70, 76
7, 81602, Note_on_c, 0, 52, 80
7, 81602, Note_on_c, 0, 79, 86
7, 81720, Note_off_c, 0, 79, 86
7, 81722, Note_on_c, 0, 70, 67
7, 81840, Note_off_c, 0, 52, 80
7, 81840, Note_off_c, 0, 70, 67
7, 81842, Note_on_c, 0, 48, 78
7, 81842, Note_on_c, 0, 69, 72
7, 81960, Note_off_c, 0, 69, 72
7, 81962, Note_on_c, 0, 70, 69
7, 82080, Note_off_c, 0, 48, 78
7, 82080, Note_off_c, 0, 70, 69
7, 82082, Note_on_c, 0, 79, 85
7, 82200, Note_off_c, 0, 79, 85
7, 82202, Note_on_c, 0, 70, 67
7, 82320, Note_off_c, 0, 70, 67
7, 82322, Note_on_c, 0, 52, 80
7, 82322, Note_on_c, 0, 69, 70
7, 82440, Note_off_c, 0, 69, 70
7, 82442, Note_on_c, 0, 67, 71
7, 82560, Note_off_c, 0, 52, 80
7, 82560, Note_off_c, 0, 67, 71
7, 82562, Note_on_c, 0, 53, 83
7, 82562, Note_on_c, 0, 69, 82
7, 82800, Note_off_c, 0, 53, 83
7, 82800, Note_off_c, 0, 69, 82
7, 82802, Note_on_c, 0, 55, 80
7, 82802, Note_on_c, 0, 65, 77
7, 83040, Note_off_c, 0, 55, 80
7, 83040, Note_off_c, 0, 65, 77
7, 83042, Note_on_c, 0, 57, 77
7, 83162, Note_on_c, 0, 69, 81
7, 83280, Note_off_c, 0, 57, 77
7, 83280, Note_off_c, 0, 69, 81
7, 83282, Note_on_c, 0, 55, 77
7, 83282, Note_on_c, 0, 71, 82
7, 83400, Note_off_c, 0, 71, 82
7, 83402, Note_on_c, 0, 73, 82
7, 83520, Note_off_c, 0, 55, 77
7, 83520, Note_off_c, 0, 73, 82
7, 83522, Note_on_c, 0, 54, 72
7, 83522, Note_on_c, 0, 74, 81
7, 83640, Note_off_c, 0, 74, 81
7, 83642, Note_on_c, 0, 76, 83
7, 83760, Note_off_c, 0, 54, 72
7, 83760, Note_off_c, 0, 76, 83
7, 83762, Note_on_c, 0, 50, 74
7, 83762, Note_on_c, 0, 78, 80
7, 83880, Note_off_c, 0, 78, 80
7, 83882, Note_on_c, 0, 79, 84
7, 84000, Note_off_c, 0, 50, 74
7, 84000, Note_off_c, 0, 79, 84
7, 84002, Note_on_c, 0, 81, 87
7, 84120, Note_off_c, 0, 81, 87
7, 84122, Note_on_c, 0, 72, 81
7, 84240, Note_off_c, 0, 72, 81
7, 84242, Note_on_c, 0, 57, 77
7, 84242, Note_on_c, 0, 71, 80
7, 84360, Note_off_c, 0, 71, 80
7, 84362, Note_on_c, 0, 72, 85
7, 84480, Note_off_c, 0, 57, 77
7, 84480, Note_off_c, 0, 72, 85
7, 84482, Note_on_c, 0, 54, 77
7, 84482, Note_on_c, 0, 81, 88
7, 84600, Note_off_c, 0, 81, 88
7, 84602, Note_on_c, 0, 72, 81
7, 84720, Note_off_c, 0, 54, 77
7, 84720, Note_off_c, 0, 72, 81
7, 84722, Note_on_c, 0, 50, 73
7, 84722, Note_on_c, 0, 71, 75
7, 84840, Note_off_c, 0, 71, 75
7, 84842, Note_on_c, 0, 72, 79
7, 84960, Note_off_c, 0, 50, 73
7, 84960, Note_off_c, 0, 72, 79
7, 84962, Note_on_c, 0, 81, 84
7, 85080, Note_off_c, 0, 81, 84
7, 85082, Note_on_c, 0, 72, 83
7, 85200, Note_off_c, 0, 72, 83
7, 85202, Note_on_c, 0, 54, 80
7, 85202, Note_on_c, 0, 71, 76
7, 85320, Note_off_c, 0, 71, 76
7, 85322, Note_on_c, 0, 69, 77
7, 85440, Note_off_c, 0, 54, 80
7, 85440, Note_off_c, 0, 69, 77
7, 85442, Note_on_c, 0, 55, 84
7, 85442, Note_on_c, 0, 71, 80
7, 85560, Note_off_c, 0, 55, 84
7, 85562, Note_on_c, 0, 43, 76
7, 85680, Note_off_c, 0, 71, 80
7, 85680, Note_off_c, 0, 43, 76
7, 85682, Note_on_c, 0, 45, 62
7, 85682, Note_on_c, 0, 67, 84
7, 85800, Note_off_c, 0, 45, 62
7, 85802, Note_on_c, 0, 47, 69
7, 85920, Note_off_c, 0, 67, 84
7, 85920, Note_off_c, 0, 47, 69
7, 85922, Note_on_c, 0, 48, 82
7, 86040, Note_off_c, 0, 48, 82
7, 86042, Note_on_c, 0, 50, 78
7, 86042, Note_on_c, 0, 71, 83
7, 86160, Note_off_c, 0, 50, 78
7, 86160, Note_off_c, 0, 71, 83
7, 86162, Note_on_c, 0, 52, 77
7, 86162, Note_on_c, 0, 72, 81
7, 86280, Note_off_c, 0, 52, 77
7, 86280, Note_off_c, 0, 72, 81
7, 86282, Note_on_c, 0, 53, 83
7, 86282, Note_on_c, 0, 74, 80
7, 86400, Note_off_c, 0, 53, 83
7, 86400, Note_off_c, 0, 74, 80
7, 86402, Note_on_c, 0, 55, 87
7, 86402, Note_on_c, 0, 76, 93
7, 86520, Note_off_c, 0, 76, 93
7, 86522, Note_on_c, 0, 77, 85
7, 86640, Note_off_c, 0, 55, 87
7, 86640, Note_off_c, 0, 77, 85
7, 86642, Note_on_c, 0, 59, 72
7, 86642, Note_on_c, 0, 76, 84
7, 86760, Note_off_c, 0, 76, 84
7, 86762, Note_on_c, 0, 77, 82
7, 86880, Note_off_c, 0, 59, 72
7, 86880, Note_off_c, 0, 77, 82
7, 86882, Note_on_c, 0, 55, 79
7, 86882, Note_on_c, 0, 76, 83
7, 87000, Note_off_c, 0, 76, 83
7, 87002, Note_on_c, 0, 77, 82
7, 87120, Note_off_c, 0, 55, 79
7, 87120, Note_off_c, 0, 77, 82
7, 87122, Note_on_c, 0, 52, 76
7, 87122, Note_on_c, 0, 76, 81
7, 87240, Note_off_c, 0, 76, 81
7, 87242, Note_on_c, 0, 74, 80
7, 87360, Note_off_c, 0, 52, 76
7, 87360, Note_off_c, 0, 74, 80
7, 87362, Note_on_c, 0, 57, 76
7, 87362, Note_on_c, 0, 72, 80
7, 87480, Note_off_c, 0, 72, 80
7, 87482, Note_on_c, 0, 71, 76
7, 87600, Note_off_c, 0, 57, 76
7, 87600, Note_off_c, 0, 71, 76
7, 87602, Note_on_c, 0, 64, 79
7, 87602, Note_on_c, 0, 72, 80
7, 87720, Note_off_c, 0, 72, 80
7, 87722, Note_on_c, 0, 71, 75
7, 87840, Note_off_c, 0, 64, 79
7, 87840, Note_off_c, 0, 71, 75
7, 87842, Note_on_c, 0, 60, 74
7, 87842, Note_on_c, 0, 69, 76
7, 87960, Note_off_c, 0, 69, 76
7, 87962, Note_on_c, 0, 72, 80
7, 88080, Note_off_c, 0, 60, 74
7, 88080, Note_off_c, 0, 72, 80
7, 88082, Note_on_c, 0, 59, 73
7, 88082, Note_on_c, 0, 74, 83
7, 88200, Note_off_c, 0, 74, 83
7, 88202, Note_on_c, 0, 76, 82
7, 88320, Note_off_c, 0, 59, 73
7, 88320, Note_off_c, 0, 76, 82
7, 88322, Note_on_c, 0, 57, 80
7, 88322, Note_on_c, 0, 77, 84
7, 88440, Note_off_c, 0, 77, 84
7, 88442, Note_on_c, 0, 79, 80
7, 88560, Note_off_c, 0, 57, 80
7, 88560, Note_off_c, 0, 79, 80
7, 88562, Note_on_c, 0, 60, 78
7, 88562, Note_on_c, 0, 77, 85
7, 88680, Note_off_c, 0, 77, 85
7, 88682, Note_on_c, 0, 79, 81
7, 88800, Note_off_c, 0, 60, 78
7, 88800, Note_off_c, 0, 79, 81
7, 88802, Note_on_c, 0, 57, 79
7, 88802, Note_on_c, 0, 77, 86
7, 88920, Note_off_c, 0, 77, 86
7, 88922, Note_on_c, 0, 79, 83
7, 89040, Note_off_c, 0, 57, 79
7, 89040, Note_off_c, 0, 79, 83
7, 89042, Note_on_c, 0, 53, 79
7, 89042, Note_on_c, 0, 77, 85
7, 89160, Note_off_c, 0, 77, 85
7, 89162, Note_on_c, 0, 76, 81
7, 89280, Note_off_c, 0, 53, 79
7, 89280, Note_off_c, 0, 76, 81
7, 89282, Note_on_c, 0, 59, 80
7, 89282, Note_on_c, 0, 74, 86
7, 89400, Note_off_c, 0, 74, 86
7, 89402, Note_on_c, 0, 72, 78
7, 89520, Note_off_c, 0, 59, 80
7, 89520, Note_off_c, 0, 72, 78
7, 89522, Note_on_c, 0, 67, 81
7, 89522, Note_on_c, 0, 74, 84
7, 89640, Note_off_c, 0, 74, 84
7, 89642, Note_on_c, 0, 72, 77
7, 89760, Note_off_c, 0, 67, 81
7, 89760, Note_off_c, 0, 72, 77
7, 89762, Note_on_c, 0, 62, 83
7, 89762, Note_on_c, 0, 71, 80
7, 89880, Note_off_c, 0, 71, 80
7, 89882, Note_on_c, 0, 74, 80
7, 90000, Note_off_c, 0, 62, 83
7, 90000, Note_off_c, 0, 74, 80
7, 90002, Note_on_c, 0, 60, 84
7, 90002, Note_on_c, 0, 76, 83
7, 90120, Note_off_c, 0, 76, 83
7, 90122, Note_on_c, 0, 77, 88
7, 90240, Note_off_c, 0, 60, 84
7, 90240, Note_off_c, 0, 77, 88
7, 90242, Note_on_c, 0, 59, 76
7, 90242, Note_on_c, 0, 79, 91
7, 90360, Note_off_c, 0, 79, 91
7, 90362, Note_on_c, 0, 81, 85
7, 90480, Note_off_c, 0, 59, 76
7, 90480, Note_off_c, 0, 81, 85
7, 90482, Note_on_c, 0, 62, 73
7, 90482, Note_on_c, 0, 79, 85
7, 90600, Note_off_c, 0, 79, 85
7, 90602, Note_on_c, 0, 81, 83
7, 90720, Note_off_c, 0, 62, 73
7, 90720, Note_off_c, 0, 81, 83
7, 90722, Note_on_c, 0, 59, 70
7, 90722, Note_on_c, 0, 79, 86
7, 90840, Note_off_c, 0, 79, 86
7, 90842, Note_on_c, 0, 81, 83
7, 90960, Note_off_c, 0, 59, 70
7, 90960, Note_off_c, 0, 81, 83
7, 90962, Note_on_c, 0, 55, 76
7, 90962, Note_on_c, 0, 79, 84
7, 91080, Note_off_c, 0, 79, 84
7, 91082, Note_on_c, 0, 77, 82
7, 91200, Note_off_c, 0, 55, 76
7, 91200, Note_off_c, 0, 77, 82
7, 91202, Note_on_c, 0, 60, 70
7, 91202, Note_on_c, 0, 76, 76
7, 91320, Note_off_c, 0, 76, 76
7, 91322, Note_on_c, 0, 74, 80
7, 91440, Note_off_c, 0, 60, 70
7, 91440, Note_off_c, 0, 74, 80
7, 91442, Note_on_c, 0, 67, 70
7, 91442, Note_on_c, 0, 76, 81
7, 91560, Note_off_c, 0, 76, 81
7, 91562, Note_on_c, 0, 74, 77
7, 91680, Note_off_c, 0, 67, 70
7, 91680, Note_off_c, 0, 74, 77
7, 91682, Note_on_c, 0, 64, 70
7, 91682, Note_on_c, 0, 72, 83
7, 91800, Note_off_c, 0, 72, 83
7, 91802, Note_on_c, 0, 79, 85
7, 91920, Note_off_c, 0, 64, 70
7, 91920, Note_off_c, 0, 79, 85
7, 91922, Note_on_c, 0, 62, 68
7, 91922, Note_on_c, 0, 81, 86
7, 92040, Note_off_c, 0, 81, 86
7, 92042, Note_on_c, 0, 83, 86
7, 92160, Note_off_c, 0, 62, 68
7, 92160, Note_off_c, 0, 83, 86
7, 92162, Note_on_c, 0, 60, 72
7, 92162, Note_on_c, 0, 84, 90
7, 92280, Note_off_c, 0, 84, 90
7, 92282, Note_on_c, 0, 83, 86
7, 92400, Note_off_c, 0, 60, 72
7, 92400, Note_off_c, 0, 83, 86
7, 92402, Note_on_c, 0, 60, 65
7, 92402, Note_on_c, 0, 84, 89
7, 92520, Note_off_c, 0, 84, 89
7, 92522, Note_on_c, 0, 83, 84
7, 92640, Note_off_c, 0, 60, 65
7, 92640, Note_off_c, 0, 83, 84
7, 92642, Note_on_c, 0, 62, 71
7, 92642, Note_on_c, 0, 81, 85
7, 92760, Note_off_c, 0, 81, 85
7, 92762, Note_on_c, 0, 84, 90
7, 92880, Note_off_c, 0, 62, 71
7, 92880, Note_off_c, 0, 84, 90
7, 92882, Note_on_c, 0, 62, 70
7, 92882, Note_on_c, 0, 83, 78
7, 93000, Note_off_c, 0, 83, 78
7, 93002, Note_on_c, 0, 81, 77
7, 93120, Note_off_c, 0, 62, 70
7, 93120, Note_off_c, 0, 81, 77
7, 93122, Note_on_c, 0, 64, 56
7, 93122, Note_on_c, 0, 80, 81
7, 93240, Note_off_c, 0, 80, 81
7, 93242, Note_on_c, 0, 81, 82
7, 93360, Note_off_c, 0, 64, 56
7, 93360, Note_off_c, 0, 81, 82
7, 93362, Note_on_c, 0, 64, 53
7, 93362, Note_on_c, 0, 83, 79
7, 93480, Note_off_c, 0, 83, 79
7, 93482, Note_on_c, 0, 81, 80
7, 93600, Note_off_c, 0, 64, 53
7, 93600, Note_off_c, 0, 81, 80
7, 93602, Note_on_c, 0, 64, 55
7, 93602, Note_on_c, 0, 80, 78
7, 93720, Note_off_c, 0, 80, 78
7, 93722, Note_on_c, 0, 83, 79
7, 93840, Note_off_c, 0, 64, 55
7, 93840, Note_off_c, 0, 83, 79
7, 93842, Note_on_c, 0, 64, 57
7, 93842, Note_on_c, 0, 81, 80
7, 93960, Note_off_c, 0, 81, 80
7, 93962, Note_on_c, 0, 80, 77
7, 94080, Note_off_c, 0, 64, 57
7, 94080, Note_off_c, 0, 80, 77
7, 94082, Note_on_c, 0, 64, 60
7, 94082, Note_on_c, 0, 81, 79
7, 94200, Note_off_c, 0, 81, 79
7, 94202, Note_on_c, 0, 83, 79
7, 94320, Note_off_c, 0, 64, 60
7, 94320, Note_off_c, 0, 83, 79
7, 94322, Note_on_c, 0, 64, 69
7, 94322, Note_on_c, 0, 84, 84
7, 94440, Note_off_c, 0, 84, 84
7, 94442, Note_on_c, 0, 83, 77
7, 94560, Note_off_c, 0, 64, 69
7, 94560, Note_off_c, 0, 83, 77
7, 94562, Note_on_c, 0, 64, 67
7, 94562, Note_on_c, 0, 81, 79
7, 94680, Note_off_c, 0, 81, 79
7, 94682, Note_on_c, 0, 84, 85
7, 94800, Note_off_c, 0, 64, 67
7, 94800, Note_off_c, 0, 84, 85
7, 94802, Note_on_c, 0, 64, 64
7, 94802, Note_on_c, 0, 83, 80
7, 94920, Note_off_c, 0, 83, 80
7, 94922, Note_on_c, 0, 81, 78
7, 95040, Note_off_c, 0, 64, 64
7, 95040, Note_off_c, 0, 81, 78
7, 95042, Note_on_c, 0, 64, 58
7, 95042, Note_on_c, 0, 80, 78
7, 95160, Note_off_c, 0, 80, 78
7, 95162, Note_on_c, 0, 81, 78
7, 95280, Note_off_c, 0, 64, 58
7, 95280, Note_off_c, 0, 81, 78
7, 95282, Note_on_c, 0, 64, 63
7, 95282, Note_on_c, 0, 83, 76
7, 95400, Note_off_c, 0, 83, 76
7, 95402, Note_on_c, 0, 81, 76
7, 95520, Note_off_c, 0, 64, 63
7, 95520, Note_off_c, 0, 81, 76
7, 95522, Note_on_c, 0, 64, 59
7, 95522, Note_on_c, 0, 80, 79
7, 95640, Note_off_c, 0, 80, 79
7, 95642, Note_on_c, 0, 83, 76
7, 95760, Note_off_c, 0, 64, 59
7, 95760, Note_off_c, 0, 83, 76
7, 95762, Note_on_c, 0, 64, 55
7, 95762, Note_on_c, 0, 81, 74
7, 95880, Note_off_c, 0, 81, 74
7, 95882, Note_on_c, 0, 80, 71
7, 96000, Note_off_c, 0, 64, 55
7, 96000, Note_off_c, 0, 80, 71
7, 96002, Note_on_c, 0, 64, 85
7, 96002, Note_on_c, 0, 81, 89
7, 96120, Note_off_c, 0, 81, 89
7, 96122, Note_on_c, 0, 83, 87
7, 96240, Note_off_c, 0, 64, 85
7, 96240, Note_off_c, 0, 83, 87
7, 96242, Note_on_c, 0, 64, 84
7, 96242, Note_on_c, 0, 84, 89
7, 96360, Note_off_c, 0, 84, 89
7, 96362, Note_on_c, 0, 83, 84
7, 96480, Note_off_c, 0, 64, 84
7, 96480, Note_off_c, 0, 83, 84
7, 96482, Note_on_c, 0, 64, 82
7, 96482, Note_on_c, 0, 81, 84
7, 96600, Note_off_c, 0, 81, 84
7, 96602, Note_on_c, 0, 84, 81
7, 96720, Note_off_c, 0, 64, 82
7, 96720, Note_off_c, 0, 84, 81
7, 96722, Note_on_c, 0, 64, 82
7, 96722, Note_on_c, 0, 83, 76
7, 96840, Note_off_c, 0, 83, 76
7, 96842, Note_on_c, 0, 81, 78
7, 96960, Note_off_c, 0, 64, 82
7, 96960, Note_off_c, 0, 81, 78
7, 96962, Note_on_c, 0, 64, 89
7, 96962, Note_on_c, 0, 80, 83
7, 97200, Note_off_c, 0, 64, 89
7, 97200, Note_off_c, 0, 80, 83
7, 97202, Note_on_c, 0, 52, 83
7, 97202, Note_on_c, 0, 76, 83
7, 97320, Note_off_c, 0, 52, 83
7, 97322, Note_on_c, 0, 50, 81
7, 97440, Note_off_c, 0, 76, 83
7, 97440, Note_off_c, 0, 50, 81
7, 97442, Note_on_c, 0, 48, 86
7, 97562, Note_on_c, 0, 76, 84
7, 97680, Note_off_c, 0, 48, 86
7, 97680, Note_off_c, 0, 76, 84
7, 97682, Note_on_c, 0, 45, 80
7, 97682, Note_on_c, 0, 81, 82
7, 97800, Note_off_c, 0, 81, 82
7, 97802, Note_on_c, 0, 79, 83
7, 97920, Note_off_c, 0, 45, 80
7, 97920, Note_off_c, 0, 79, 83
7, 97922, Note_on_c, 0, 50, 80
7, 97922, Note_on_c, 0, 77, 86
7, 98040, Note_off_c, 0, 77, 86
7, 98042, Note_on_c, 0, 74, 77
7, 98160, Note_off_c, 0, 50, 80
7, 98160, Note_off_c, 0, 74, 77
7, 98162, Note_on_c, 0, 53, 80
7, 98162, Note_on_c, 0, 76, 80
7, 98280, Note_off_c, 0, 76, 80
7, 98282, Note_on_c, 0, 72, 75
7, 98400, Note_off_c, 0, 53, 80
7, 98400, Note_off_c, 0, 72, 75
7, 98402, Note_on_c, 0, 55, 83
7, 98402, Note_on_c, 0, 71, 73
7, 98520, Note_off_c, 0, 71, 73
7, 98522, Note_on_c, 0, 74, 79
7, 98640, Note_off_c, 0, 55, 83
7, 98640, Note_off_c, 0, 74, 79
7, 98642, Note_on_c, 0, 47, 76
7, 98642, Note_on_c, 0, 79, 80
7, 98760, Note_off_c, 0, 79, 80
7, 98762, Note_on_c, 0, 77, 80
7, 98880, Note_off_c, 0, 47, 76
7, 98880, Note_off_c, 0, 77, 80
7, 98882, Note_on_c, 0, 48, 77
7, 98882, Note_on_c, 0, 76, 78
7, 99000, Note_off_c, 0, 76, 78
7, 99002, Note_on_c, 0, 72, 74
7, 99120, Note_off_c, 0, 48, 77
7, 99120, Note_off_c, 0, 72, 74
7, 99122, Note_on_c, 0, 52, 76
7, 99122, Note_on_c, 0, 74, 80
7, 99240, Note_off_c, 0, 74, 80
7, 99242, Note_on_c, 0, 71, 76
7, 99360, Note_off_c, 0, 52, 76
7, 99360, Note_off_c, 0, 71, 76
7, 99362, Note_on_c, 0, 53, 80
7, 99362, Note_on_c, 0, 69, 71
7, 99480, Note_off_c, 0, 69, 71
7, 99482, Note_on_c, 0, 72, 76
7, 99600, Note_off_c, 0, 53, 80
7, 99600, Note_off_c, 0, 72, 76
7, 99602, Note_on_c, 0, 45, 74
7, 99602, Note_on_c, 0, 77, 83
7, 99720, Note_off_c, 0, 77, 83
7, 99722, Note_on_c, 0, 76, 79
7, 99840, Note_off_c, 0, 45, 74
7, 99840, Note_off_c, 0, 76, 79
7, 99842, Note_on_c, 0, 47, 77
7, 99842, Note_on_c, 0, 74, 83
7, 99960, Note_off_c, 0, 74, 83
7, 99962, Note_on_c, 0, 71, 74
7, 100080, Note_off_c, 0, 47, 77
7, 100080, Note_off_c, 0, 71, 74
7, 100082, Note_on_c, 0, 50, 71
7, 100082, Note_on_c, 0, 72, 80
7, 100200, Note_off_c, 0, 72, 80
7, 100202, Note_on_c, 0, 69, 79
7, 100320, Note_off_c, 0, 50, 71
7, 100320, Note_off_c, 0, 69, 79
7, 100322, Note_on_c, 0, 52, 78
7, 100322, Note_on_c, 0, 68, 77
7, 100440, Note_off_c, 0, 68, 77
7, 100442, Note_on_c, 0, 71, 79
7, 100560, Note_off_c, 0, 52, 78
7, 100560, Note_off_c, 0, 71, 79
7, 100562, Note_on_c, 0, 44, 73
7, 100562, Note_on_c, 0, 76, 81
7, 100680, Note_off_c, 0, 76, 81
7, 100682, Note_on_c, 0, 74, 82
7, 100800, Note_off_c, 0, 44, 73
7, 100800, Note_off_c, 0, 74, 82
7, 100802, Note_on_c, 0, 45, 79
7, 100802, Note_on_c, 0, 72, 81
7, 100920, Note_off_c, 0, 72, 81
7, 100922, Note_on_c, 0, 69, 76
7, 101040, Note_off_c, 0, 45, 79
7, 101040, Note_off_c, 0, 69, 76
7, 101042, Note_on_c, 0, 57, 74
7, 101042, Note_on_c, 0, 71, 80
7, 101160, Note_off_c, 0, 71, 80
7, 101162, Note_on_c, 0, 72, 83
7, 101280, Note_off_c, 0, 57, 74
7, 101280, Note_off_c, 0, 72, 83
7, 101282, Note_on_c, 0, 54, 75
7, 101282, Note_on_c, 0, 63, 85
7, 101400, Note_off_c, 0, 63, 85
7, 101402, Note_on_c, 0, 72, 77
7, 101520, Note_off_c, 0, 54, 75
7, 101520, Note_off_c, 0, 72, 77
7, 101522, Note_on_c, 0, 51, 78
7, 101522, Note_on_c, 0, 71, 74
7, 101640, Note_off_c, 0, 71, 74
7, 101642, Note_on_c, 0, 69, 74
7, 101760, Note_off_c, 0, 51, 78
7, 101760, Note_off_c, 0, 69, 74
7, 101762, Note_on_c, 0, 52, 84
7, 101762, Note_on_c, 0, 67, 81
7, 101880, Note_off_c, 0, 67, 81
7, 101882, Note_on_c, 0, 66, 74
7, 102000, Note_off_c, 0, 52, 84
7, 102000, Note_off_c, 0, 66, 74
7, 102002, Note_on_c, 0, 55, 87
7, 102002, Note_on_c, 0, 64, 80
7, 102120, Note_off_c, 0, 64, 80
7, 102122, Note_on_c, 0, 74, 86
7, 102240, Note_off_c, 0, 55, 87
7, 102240, Note_off_c, 0, 74, 86
7, 102242, Note_on_c, 0, 57, 77
7, 102242, Note_on_c, 0, 72, 82
7, 102360, Note_off_c, 0, 72, 82
7, 102362, Note_on_c, 0, 71, 76
7, 102480, Note_off_c, 0, 57, 77
7, 102480, Note_off_c, 0, 71, 76
7, 102482, Note_on_c, 0, 60, 81
7, 102482, Note_on_c, 0, 69, 78
7, 102600, Note_off_c, 0, 69, 78
7, 102602, Note_on_c, 0, 78, 78
7, 102720, Note_off_c, 0, 60, 81
7, 102720, Note_off_c, 0, 78, 78
7, 102722, Note_on_c, 0, 59, 84
7, 102722, Note_on_c, 0, 75, 76
7, 102840, Note_off_c, 0, 75, 76
7, 102842, Note_on_c, 0, 73, 76
7, 102960, Note_off_c, 0, 59, 84
7, 102960, Note_off_c, 0, 73, 76
7, 102962, Note_on_c, 0, 51, 79
7, 102962, Note_on_c, 0, 71, 76
7, 103080, Note_off_c, 0, 71, 76
7, 103082, Note_on_c, 0, 69, 77
7, 103200, Note_off_c, 0, 51, 79
7, 103200, Note_off_c, 0, 69, 77
7, 103202, Note_on_c, 0, 52, 80
7, 103202, Note_on_c, 0, 67, 77
7, 103320, Note_off_c, 0, 67, 77
7, 103322, Note_on_c, 0, 66, 74
7, 103440, Note_off_c, 0, 52, 80
7, 103440, Note_off_c, 0, 66, 74
7, 103442, Note_on_c, 0, 47, 76
7, 103442, Note_on_c, 0, 64, 80
7, 103560, Note_off_c, 0, 64, 80
7, 103562, Note_on_c, 0, 63, 76
7, 103680, Note_off_c, 0, 47, 76
7, 103680, Note_off_c, 0, 63, 76
7, 103682, Note_on_c, 0, 48, 95
7, 103682, Note_on_c, 0, 64, 102
7, 103800, Note_off_c, 0, 64, 102
7, 103802, Note_on_c, 0, 57, 87
7, 103920, Note_off_c, 0, 48, 95
7, 103920, Note_off_c, 0, 57, 87
7, 103922, Note_on_c, 0, 43, 91
7, 103922, Note_on_c, 0, 64, 98
7, 104040, Note_off_c, 0, 64, 98
7, 104042, Note_on_c, 0, 55, 99
7, 104160, Note_off_c, 0, 43, 91
7, 104160, Note_off_c, 0, 55, 99
7, 104162, Note_on_c, 0, 45, 89
7, 104162, Note_on_c, 0, 54, 84
7, 104280, Note_off_c, 0, 54, 84
7, 104282, Note_on_c, 0, 64, 96
7, 104400, Note_off_c, 0, 45, 89
7, 104400, Note_off_c, 0, 64, 96
7, 104402, Note_on_c, 0, 47, 88
7, 104402, Note_on_c, 0, 54, 86
7, 104520, Note_off_c, 0, 54, 86
7, 104522, Note_on_c, 0, 63, 89
7, 104640, Note_off_c, 0, 47, 88
7, 104640, Note_off_c, 0, 63, 89
7, 104642, Note_on_c, 0, 40, 97
7, 104642, Note_on_c, 0, 64, 99
7, 104880, Note_off_c, 0, 40, 97
7, 104882, Note_on_c, 0, 52, 97
7, 105000, Note_off_c, 0, 52, 97
7, 105002, Note_on_c, 0, 54, 92
7, 105120, Note_off_c, 0, 64, 99
7, 105120, Note_off_c, 0, 54, 92
7, 105122, Note_on_c, 0, 55, 101
7, 105360, Note_off_c, 0, 55, 101
7, 105362, Note_on_c, 0, 71, 85
7, 105362, Note_on_c, 0, 43, 83
7, 105600, Note_off_c, 0, 71, 85
7, 105600, Note_off_c, 0, 43, 83
7, 105602, Note_on_c, 0, 74, 85
7, 105660, Note_off_c, 0, 74, 85
7, 105662, Note_on_c, 0, 73, 76
7, 105720, Note_off_c, 0, 73, 76
7, 105722, Note_on_c, 0, 74, 80
7, 105780, Note_off_c, 0, 74, 80
7, 105782, Note_on_c, 0, 73, 76
7, 105840, Note_off_c, 0, 73, 76
7, 105842, Note_on_c, 0, 57, 77
7, 105842, Note_on_c, 0, 74, 74
7, 105900, Note_off_c, 0, 74, 74
7, 105902, Note_on_c, 0, 73, 71
7, 105960, Note_off_c, 0, 73, 71
7, 105962, Note_on_c, 0, 74, 76
7, 106020, Note_off_c, 0, 74, 76
7, 106022, Note_on_c, 0, 73, 69
7, 106080, Note_off_c, 0, 57, 77
7, 106080, Note_off_c, 0, 73, 69
7, 106082, Note_on_c, 0, 57, 80
7, 106082, Note_on_c, 0, 74, 76
7, 106140, Note_off_c, 0, 74, 76
7, 106142, Note_on_c, 0, 73, 68
7, 106200, Note_off_c, 0, 73, 68
7, 106202, Note_on_c, 0, 74, 72
7, 106260, Note_off_c, 0, 74, 72
7, 106262, Note_on_c, 0, 73, 67
7, 106320, Note_off_c, 0, 57, 80
7, 106320, Note_off_c, 0, 73, 67
7, 106322, Note_on_c, 0, 45, 77
7, 106322, Note_on_c, 0, 74, 71
7, 106380, Note_off_c, 0, 74, 71
7, 106382, Note_on_c, 0, 73, 70
7, 106440, Note_off_c, 0, 73, 70
7, 106442, Note_on_c, 0, 74, 71
7, 106500, Note_off_c, 0, 74, 71
7, 106502, Note_on_c, 0, 73, 69
7, 106560, Note_off_c, 0, 45, 77
7, 106560, Note_off_c, 0, 73, 69
7, 106562, Note_on_c, 0, 74, 77
7, 106620, Note_off_c, 0, 74, 77
7, 106622, Note_on_c, 0, 73, 70
7, 106680, Note_off_c, 0, 73, 70
7, 106682, Note_on_c, 0, 74, 72
7, 106740, Note_off_c, 0, 74, 72
7, 106742, Note_on_c, 0, 73, 67
7, 106800, Note_off_c, 0, 73, 67
7, 106802, Note_on_c, 0, 58, 77
7, 106802, Note_on_c, 0, 74, 74
7, 106860, Note_off_c, 0, 74, 74
7, 106862, Note_on_c, 0, 73, 70
7, 106920, Note_off_c, 0, 73, 70
7, 106922, Note_on_c, 0, 74, 77
7, 106980, Note_off_c, 0, 74, 77
7, 106982, Note_on_c, 0, 73, 75
7, 107040, Note_off_c, 0, 58, 77
7, 107040, Note_off_c, 0, 73, 75
7, 107042, Note_on_c, 0, 58, 69
7, 107042, Note_on_c, 0, 74, 80
7, 107100, Note_off_c, 0, 74, 80
7, 107102, Note_on_c, 0, 73, 73
7, 107160, Note_off_c, 0, 73, 73
7, 107162, Note_on_c, 0, 74, 78
7, 107220, Note_off_c, 0, 74, 78
7, 107222, Note_on_c, 0, 73, 71
7, 107280, Note_off_c, 0, 58, 69
7, 107280, Note_off_c, 0, 73, 71
7, 107282, Note_on_c, 0, 46, 66
7, 107282, Note_on_c, 0, 74, 77
7, 107340, Note_off_c, 0, 74, 77
7, 107342, Note_on_c, 0, 73, 74
7, 107400, Note_off_c, 0, 73, 74
7, 107402, Note_on_c, 0, 74, 79
7, 107460, Note_off_c, 0, 74, 79
7, 107462, Note_on_c, 0, 73, 81
7, 107520, Note_off_c, 0, 46, 66
7, 107520, Note_off_c, 0, 73, 81
7, 107522, Note_on_c, 0, 76, 75
7, 107580, Note_off_c, 0, 76, 75
7, 107582, Note_on_c, 0, 75, 69
7, 107640, Note_off_c, 0, 75, 69
7, 107642, Note_on_c, 0, 76, 66
7, 107700, Note_off_c, 0, 76, 66
7, 107702, Note_on_c, 0, 75, 65
7, 107760, Note_off_c, 0, 75, 65
7, 107762, Note_on_c, 0, 59, 74
7, 107762, Note_on_c, 0, 76, 69
7, 107820, Note_off_c, 0, 76, 69
7, 107822, Note_on_c, 0, 75, 57
7, 107880, Note_off_c, 0, 75, 57
7, 107882, Note_on_c, 0, 76, 72
7, 107940, Note_off_c, 0, 76, 72
7, 107942, Note_on_c, 0, 75, 64
7, 108000, Note_off_c, 0, 59, 74
7, 108000, Note_off_c, 0, 75, 64
7, 108002, Note_on_c, 0, 59, 76
7, 108002, Note_on_c, 0, 76, 72
7, 108060, Note_off_c, 0, 76, 72
7, 108062, Note_on_c, 0, 75, 59
7, 108120, Note_off_c, 0, 75, 59
7, 108122, Note_on_c, 0, 76, 66
7, 108180, Note_off_c, 0, 76, 66
7, 108182, Note_on_c, 0, 75, 58
7, 108240, Note_off_c, 0, 59, 76
7, 108240, Note_off_c, 0, 75, 58
7, 108242, Note_on_c, 0, 47, 70
7, 108242, Note_on_c, 0, 76, 71
7, 108300, Note_off_c, 0, 76, 71
7, 108302, Note_on_c, 0, 75, 62
7, 108360, Note_off_c, 0, 75, 62
7, 108362, Note_on_c, 0, 76, 71
7, 108420, Note_off_c, 0, 76, 71
7, 108422, Note_on_c, 0, 75, 62
7, 108480, Note_off_c, 0, 47, 70
7, 108480, Note_off_c, 0, 75, 62
7, 108482, Note_on_c, 0, 76, 74
7, 108540, Note_off_c, 0, 76, 74
7, 108542, Note_on_c, 0, 75, 63
7, 108600, Note_off_c, 0, 75, 63
7, 108602, Note_on_c, 0, 76, 71
7, 108660, Note_off_c, 0, 76, 71
7, 108662, Note_on_c, 0, 75, 59
7, 108720, Note_off_c, 0, 75, 59
7, 108722, Note_on_c, 0, 59, 76
7, 108722, Note_on_c, 0, 76, 72
7, 108780, Note_off_c, 0, 76, 72
7, 108782, Note_on_c, 0, 75, 63
7, 108840, Note_off_c, 0, 75, 63
7, 108842, Note_on_c, 0, 76, 69
7, 108900, Note_off_c, 0, 76, 69
7, 108902, Note_on_c, 0, 75, 59
7, 108960, Note_off_c, 0, 59, 76
7, 108960, Note_off_c, 0, 75, 59
7, 108962, Note_on_c, 0, 59, 77
7, 108962, Note_on_c, 0, 76, 71
7, 109020, Note_off_c, 0, 76, 71
7, 109022, Note_on_c, 0, 75, 58
7, 109080, Note_off_c, 0, 75, 58
7, 109082, Note_on_c, 0, 76, 67
7, 109140, Note_off_c, 0, 76, 67
7, 109142, Note_on_c, 0, 75, 57
7, 109200, Note_off_c, 0, 59, 77
7, 109200, Note_off_c, 0, 75, 57
7, 109202, Note_on_c, 0, 47, 72
7, 109202, Note_on_c, 0, 76, 66
7, 109260, Note_off_c, 0, 76, 66
7, 109262, Note_on_c, 0, 75, 53
7, 109320, Note_off_c, 0, 75, 53
7, 109322, Note_on_c, 0, 76, 61
7, 109380, Note_off_c, 0, 76, 61
7, 109382, Note_on_c, 0, 75, 59
7, 109440, Note_off_c, 0, 47, 72
7, 109440, Note_off_c, 0, 75, 59
7, 109442, Note_on_c, 0, 78, 75
7, 109500, Note_off_c, 0, 78, 75
7, 109502, Note_on_c, 0, 76, 69
7, 109560, Note_off_c, 0, 76, 69
7, 109562, Note_on_c, 0, 78, 71
7, 109620, Note_off_c, 0, 78, 71
7, 109622, Note_on_c, 0, 76, 67
7, 109680, Note_off_c, 0, 76, 67
7, 109682, Note_on_c, 0, 60, 76
7, 109682, Note_on_c, 0, 78, 66
7, 109740, Note_off_c, 0, 78, 66
7, 109742, Note_on_c, 0, 76, 67
7, 109800, Note_off_c, 0, 76, 67
7, 109802, Note_on_c, 0, 78, 69
7, 109860, Note_off_c, 0, 78, 69
7, 109862, Note_on_c, 0, 76, 63
7, 109920, Note_off_c, 0, 60, 76
7, 109920, Note_off_c, 0, 76, 63
7, 109922, Note_on_c, 0, 60, 80
7, 109922, Note_on_c, 0, 78, 68
7, 109980, Note_off_c, 0, 78, 68
7, 109982, Note_on_c, 0, 76, 62
7, 110040, Note_off_c, 0, 76, 62
7, 110042, Note_on_c, 0, 78, 67
7, 110100, Note_off_c, 0, 78, 67
7, 110102, Note_on_c, 0, 76, 62
7, 110160, Note_off_c, 0, 60, 80
7, 110160, Note_off_c, 0, 76, 62
7, 110162, Note_on_c, 0, 48, 74
7, 110162, Note_on_c, 0, 78, 66
7, 110220, Note_off_c, 0, 78, 66
7, 110222, Note_on_c, 0, 76, 64
7, 110280, Note_off_c, 0, 76, 64
7, 110282, Note_on_c, 0, 78, 64
7, 110340, Note_off_c, 0, 78, 64
7, 110342, Note_on_c, 0, 76, 64
7, 110400, Note_off_c, 0, 48, 74
7, 110400, Note_off_c, 0, 76, 64
7, 110402, Note_on_c, 0, 78, 66
7, 110460, Note_off_c, 0, 78, 66
7, 110462, Note_on_c, 0, 76, 55
7, 110520, Note_off_c, 0, 76, 55
7, 110522, Note_on_c, 0, 78, 62
7, 110580, Note_off_c, 0, 78, 62
7, 110582, Note_on_c, 0, 76, 58
7, 110640, Note_off_c, 0, 76, 58
7, 110642, Note_on_c, 0, 60, 77
7, 110642, Note_on_c, 0, 78, 61
7, 110700, Note_off_c, 0, 78, 61
7, 110702, Note_on_c, 0, 76, 53
7, 110760, Note_off_c, 0, 76, 53
7, 110762, Note_on_c, 0, 78, 61
7, 110820, Note_off_c, 0, 78, 61
7, 110822, Note_on_c, 0, 76, 59
7, 110880, Note_off_c, 0, 60, 77
7, 110880, Note_off_c, 0, 76, 59
7, 110882, Note_on_c, 0, 60, 79
7, 110882, Note_on_c, 0, 78, 63
7, 110940, Note_off_c, 0, 78, 63
7, 110942, Note_on_c, 0, 76, 57
7, 111000, Note_off_c, 0, 76, 57
7, 111002, Note_on_c, 0, 78, 62
7, 111060, Note_off_c, 0, 78, 62
7, 111062, Note_on_c, 0, 76, 53
7, 111120, Note_off_c, 0, 60, 79
7, 111120, Note_off_c, 0, 76, 53
7, 111122, Note_on_c, 0, 48, 79
7, 111122, Note_on_c, 0, 78, 63
7, 111180, Note_off_c, 0, 78, 63
7, 111182, Note_on_c, 0, 76, 61
7, 111240, Note_off_c, 0, 76, 61
7, 111242, Note_on_c, 0, 78, 60
7, 111300, Note_off_c, 0, 78, 60
7, 111302, Note_on_c, 0, 76, 59
7, 111360, Note_off_c, 0, 48, 79
7, 111360, Note_off_c, 0, 76, 59
7, 111362, Note_on_c, 0, 76, 68
7, 111420, Note_off_c, 0, 76, 68
7, 111422, Note_on_c, 0, 75, 61
7, 111480, Note_off_c, 0, 75, 61
7, 111482, Note_on_c, 0, 76, 58
7, 111540, Note_off_c, 0, 76, 58
7, 111542, Note_on_c, 0, 75, 61
7, 111600, Note_off_c, 0, 75, 61
7, 111602, Note_on_c, 0, 59, 71
7, 111602, Note_on_c, 0, 76, 67
7, 111660, Note_off_c, 0, 76, 67
7, 111662, Note_on_c, 0, 75, 55
7, 111720, Note_off_c, 0, 75, 55
7, 111722, Note_on_c, 0, 76, 51
7, 111780, Note_off_c, 0, 76, 51
7, 111782, Note_on_c, 0, 75, 54
7, 111840, Note_off_c, 0, 59, 71
7, 111840, Note_off_c, 0, 75, 54
7, 111842, Note_on_c, 0, 59, 79
7, 111842, Note_on_c, 0, 76, 62
7, 111900, Note_off_c, 0, 76, 62
7, 111902, Note_on_c, 0, 75, 58
7, 111960, Note_off_c, 0, 75, 58
7, 111962, Note_on_c, 0, 76, 62
7, 112020, Note_off_c, 0, 76, 62
7, 112022, Note_on_c, 0, 75, 48
7, 112080, Note_off_c, 0, 59, 79
7, 112080, Note_off_c, 0, 75, 48
7, 112082, Note_on_c, 0, 47, 74
7, 112082, Note_on_c, 0, 76, 60
7, 112140, Note_off_c, 0, 76, 60
7, 112142, Note_on_c, 0, 75, 57
7, 112200, Note_off_c, 0, 75, 57
7, 112202, Note_on_c, 0, 76, 62
7, 112260, Note_off_c, 0, 76, 62
7, 112262, Note_on_c, 0, 75, 64
7, 112320, Note_off_c, 0, 47, 74
7, 112320, Note_off_c, 0, 75, 64
7, 112322, Note_on_c, 0, 78, 64
7, 112380, Note_off_c, 0, 78, 64
7, 112382, Note_on_c, 0, 76, 64
7, 112440, Note_off_c, 0, 76, 64
7, 112442, Note_on_c, 0, 78, 62
7, 112500, Note_off_c, 0, 78, 62
7, 112502, Note_on_c, 0, 76, 65
7, 112560, Note_off_c, 0, 76, 65
7, 112562, Note_on_c, 0, 59, 74
7, 112562, Note_on_c, 0, 78, 62
7, 112620, Note_off_c, 0, 78, 62
7, 112622, Note_on_c, 0, 76, 63
7, 112680, Note_off_c, 0, 76, 63
7, 112682, Note_on_c, 0, 78, 58
7, 112740, Note_off_c, 0, 78, 58
7, 112742, Note_on_c, 0, 76, 62
7, 112800, Note_off_c, 0, 59, 74
7, 112800, Note_off_c, 0, 76, 62
7, 112802, Note_on_c, 0, 59, 80
7, 112802, Note_on_c, 0, 78, 59
7, 112860, Note_off_c, 0, 78, 59
7, 112862, Note_on_c, 0, 76, 59
7, 112920, Note_off_c, 0, 76, 59
7, 112922, Note_on_c, 0, 78, 58
7, 112980, Note_off_c, 0, 78, 58
7, 112982, Note_on_c, 0, 76, 62
7, 113040, Note_off_c, 0, 59, 80
7, 113040, Note_off_c, 0, 76, 62
7, 113042, Note_on_c, 0, 47, 76
7, 113042, Note_on_c, 0, 78, 59
7, 113100, Note_off_c, 0, 78, 59
7, 113102, Note_on_c, 0, 76, 58
7, 113160, Note_off_c, 0, 76, 58
7, 113162, Note_on_c, 0, 78, 60
7, 113220, Note_off_c, 0, 78, 60
7, 113222, Note_on_c, 0, 76, 61
7, 113280, Note_off_c, 0, 47, 76
7, 113280, Note_off_c, 0, 76, 61
7, 113282, Note_on_c, 0, 78, 62
7, 113340, Note_off_c, 0, 78, 62
7, 113342, Note_on_c, 0, 76, 60
7, 113400, Note_off_c, 0, 76, 60
7, 113402, Note_on_c, 0, 78, 66
7, 113460, Note_off_c, 0, 78, 66
7, 113462, Note_on_c, 0, 76, 61
7, 113520, Note_off_c, 0, 76, 61
7, 113522, Note_on_c, 0, 59, 76
7, 113522, Note_on_c, 0, 78, 61
7, 113580, Note_off_c, 0, 78, 61
7, 113582, Note_on_c, 0, 76, 68
7, 113640, Note_off_c, 0, 76, 68
7, 113642, Note_on_c, 0, 78, 62
7, 113700, Note_off_c, 0, 78, 62
7, 113702, Note_on_c, 0, 76, 63
7, 113760, Note_off_c, 0, 59, 76
7, 113760, Note_off_c, 0, 76, 63
7, 113762, Note_on_c, 0, 59, 78
7, 113762, Note_on_c, 0, 78, 51
7, 113820, Note_off_c, 0, 78, 51
7, 113822, Note_on_c, 0, 76, 60
7, 113880, Note_off_c, 0, 76, 60
7, 113882, Note_on_c, 0, 78, 59
7, 113940, Note_off_c, 0, 78, 59
7, 113942, Note_on_c, 0, 76, 58
7, 114000, Note_off_c, 0, 59, 78
7, 114000, Note_off_c, 0, 76, 58
7, 114002, Note_on_c, 0, 47, 72
7, 114002, Note_on_c, 0, 78, 59
7, 114060, Note_off_c, 0, 78, 59
7, 114062, Note_on_c, 0, 76, 59
7, 114120, Note_off_c, 0, 76, 59
7, 114122, Note_on_c, 0, 78, 54
7, 114180, Note_off_c, 0, 78, 54
7, 114182, Note_on_c, 0, 76, 58
7, 114240, Note_off_c, 0, 47, 72
7, 114240, Note_off_c, 0, 76, 58
7, 114242, Note_on_c, 0, 76, 67
7, 114300, Note_off_c, 0, 76, 67
7, 114302, Note_on_c, 0, 75, 66
7, 114360, Note_off_c, 0, 75, 66
7, 114362, Note_on_c, 0, 76, 60
7, 114420, Note_off_c, 0, 76, 60
7, 114422, Note_on_c, 0, 75, 57
7, 114480, Note_off_c, 0, 75, 57
7, 114482, Note_on_c, 0, 59, 77
7, 114482, Note_on_c, 0, 76, 61
7, 114540, Note_off_c, 0, 76, 61
7, 114542, Note_on_c, 0, 75, 54
7, 114600, Note_off_c, 0, 75, 54
7, 114602, Note_on_c, 0, 76, 64
7, 114660, Note_off_c, 0, 76, 64
7, 114662, Note_on_c, 0, 75, 64
7, 114720, Note_off_c, 0, 59, 77
7, 114720, Note_off_c, 0, 75, 64
7, 114722, Note_on_c, 0, 59, 76
7, 114722, Note_on_c, 0, 76, 71
7, 114780, Note_off_c, 0, 76, 71
7, 114782, Note_on_c, 0, 75, 61
7, 114840, Note_off_c, 0, 75, 61
7, 114842, Note_on_c, 0, 76, 60
7, 114900, Note_off_c, 0, 76, 60
7, 114902, Note_on_c, 0, 75, 61
7, 114960, Note_off_c, 0, 59, 76
7, 114960, Note_off_c, 0, 75, 61
7, 114962, Note_on_c, 0, 47, 75
7, 114962, Note_on_c, 0, 76, 66
7, 115020, Note_off_c, 0, 76, 66
7, 115022, Note_on_c, 0, 75, 64
7, 115080, Note_off_c, 0, 75, 64
7, 115082, Note_on_c, 0, 76, 59
7, 115140, Note_off_c, 0, 76, 59
7, 115142, Note_on_c, 0, 75, 62
7, 115200, Note_off_c, 0, 47, 75
7, 115200, Note_off_c, 0, 75, 62
7, 115202, Note_on_c, 0, 40, 75
7, 115202, Note_on_c, 0, 76, 76
7, 115680, Note_off_c, 0, 40, 75
7, 115680, Note_off_c, 0, 76, 76
7, 117362, Note_on_c, 0, 52, 81
7, 117362, Note_on_c, 0, 67, 77
7, 117362, Note_on_c, 0, 64, 77
7, 117362, Note_on_c, 0, 71, 74
7, 117600, Note_off_c, 0, 52, 81
7, 117600, Note_off_c, 0, 67, 77
7, 117600, Note_off_c, 0, 64, 77
7, 117600, Note_off_c, 0, 71, 74
7, 117602, Note_on_c, 0, 57, 77
7, 117602, Note_on_c, 0, 73, 79
7, 117602, Note_on_c, 0, 67, 80
7, 117602, Note_on_c, 0, 64, 79
7, 117840, Note_off_c, 0, 57, 77
7, 117840, Note_off_c, 0, 73, 79
7, 117840, Note_off_c, 0, 67, 80
7, 117840, Note_off_c, 0, 64, 79
7, 118802, Note_on_c, 0, 55, 88
7, 118802, Note_on_c, 0, 71, 75
7, 118802, Note_on_c, 0, 67, 73
7, 118802, Note_on_c, 0, 74, 75
7, 119040, Note_off_c, 0, 55, 88
7, 119040, Note_off_c, 0, 71, 75
7, 119040, Note_off_c, 0, 67, 73
7, 119040, Note_off_c, 0, 74, 75
7, 119042, Note_on_c, 0, 60, 76
7, 119042, Note_on_c, 0, 72, 71
7, 119042, Note_on_c, 0, 67, 66
7, 119042, Note_on_c, 0, 76, 69
7, 119280, Note_off_c, 0, 60, 76
7, 119280, Note_off_c, 0, 72, 71
7, 119280, Note_off_c, 0, 67, 66
7, 119280, Note_off_c, 0, 76, 69
7, 119762, Note_on_c, 0, 53, 58
7, 119762, Note_on_c, 0, 65, 61
7, 119762, Note_on_c, 0, 72, 71
7, 119762, Note_on_c, 0, 69, 69
7, 120000, Note_off_c, 0, 53, 58
7, 120000, Note_off_c, 0, 65, 61
7, 120000, Note_off_c, 0, 72, 71
7, 120000, Note_off_c, 0, 69, 69
7, 120002, Note_on_c, 0, 47, 60
7, 120002, Note_on_c, 0, 65, 66
7, 120002, Note_on_c, 0, 69, 69
7, 120002, Note_on_c, 0, 74, 72
7, 120240, Note_off_c, 0, 47, 60
7, 120240, Note_off_c, 0, 65, 66
7, 120240, Note_off_c, 0, 69, 69
7, 120240, Note_off_c, 0, 74, 72
7, 120722, Note_on_c, 0, 52, 62
7, 120722, Note_on_c, 0, 68, 62
7, 120722, Note_on_c, 0, 64, 63
7, 120722, Note_on_c, 0, 71, 66
7, 120960, Note_off_c, 0, 52, 62
7, 120960, Note_off_c, 0, 68, 62
7, 120960, Note_off_c, 0, 64, 63
7, 120960, Note_off_c, 0, 71, 66
7, 120962, Note_on_c, 0, 45, 70
7, 120962, Note_on_c, 0, 72, 68
7, 120962, Note_on_c, 0, 69, 66
7, 120962, Note_on_c, 0, 64, 65
7, 121200, Note_off_c, 0, 45, 70
7, 121200, Note_off_c, 0, 72, 68
7, 121200, Note_off_c, 0, 69, 66
7, 121200, Note_off_c, 0, 64, 65
7, 126002, Note_on_c, 0, 60, 66
7, 126002, Note_on_c, 0, 74, 69
7, 126002, Note_on_c, 0, 80, 61
7, 126002, Note_on_c, 0, 71, 52
7, 126240, Note_off_c, 0, 60, 66
7, 126240, Note_off_c, 0, 74, 69
7, 126240, Note_off_c, 0, 80, 61
7, 126240, Note_off_c, 0, 71, 52
7, 126242, Note_on_c, 0, 65, 70
7, 126242, Note_on_c, 0, 72, 64
7, 126242, Note_on_c, 0, 81, 65
7, 126242, Note_on_c, 0, 69, 54
7, 126480, Note_off_c, 0, 65, 70
7, 126480, Note_off_c, 0, 72, 64
7, 126480, Note_off_c, 0, 81, 65
7, 126480, Note_off_c, 0, 69, 54
7, 127442, Note_on_c, 0, 64, 68
7, 127442, Note_on_c, 0, 80, 67
7, 127442, Note_on_c, 0, 83, 76
7, 127442, Note_on_c, 0, 76, 68
7, 127680, Note_off_c, 0, 64, 68
7, 127680, Note_off_c, 0, 80, 67
7, 127680, Note_off_c, 0, 83, 76
7, 127680, Note_off_c, 0, 76, 68
7, 127682, Note_on_c, 0, 57, 68
7, 127682, Note_on_c, 0, 81, 81
7, 127682, Note_on_c, 0, 84, 86
7, 127682, Note_on_c, 0, 76, 79
7, 127920, Note_off_c, 0, 57, 68
7, 127920, Note_off_c, 0, 81, 81
7, 127920, Note_off_c, 0, 84, 86
7, 127920, Note_off_c, 0, 76, 79
7, 133682, Note_on_c, 0, 52, 76
7, 133920, Note_off_c, 0, 52, 76
7, 133922, Note_on_c, 0, 57, 72
7, 133922, Note_on_c, 0, 76, 71
7, 134160, Note_off_c, 0, 57, 72
7, 134162, Note_on_c, 0, 45, 71
7, 134400, Note_off_c, 0, 76, 71
7, 134400, Note_off_c, 0, 45, 71
7, 134402, Note_on_c, 0, 79, 46
7, 134460, Note_off_c, 0, 79, 46
7, 134462, Note_on_c, 0, 77, 50
7, 134520, Note_off_c, 0, 77, 50
7, 134522, Note_on_c, 0, 79, 59
7, 134580, Note_off_c, 0, 79, 59
7, 134582, Note_on_c, 0, 77, 57
7, 134640, Note_off_c, 0, 77, 57
7, 134642, Note_on_c, 0, 57, 71
7, 134642, Note_on_c, 0, 79, 57
7, 134700, Note_off_c, 0, 79, 57
7, 134702, Note_on_c, 0, 77, 59
7, 134760, Note_off_c, 0, 77, 59
7, 134762, Note_on_c, 0, 79, 53
7, 134820, Note_off_c, 0, 79, 53
7, 134822, Note_on_c, 0, 77, 57
7, 134880, Note_off_c, 0, 57, 71
7, 134880, Note_off_c, 0, 77, 57
7, 134882, Note_on_c, 0, 62, 72
7, 134882, Note_on_c, 0, 79, 54
7, 134940, Note_off_c, 0, 79, 54
7, 134942, Note_on_c, 0, 77, 62
7, 135000, Note_off_c, 0, 77, 62
7, 135002, Note_on_c, 0, 79, 57
7, 135060, Note_off_c, 0, 79, 57
7, 135062, Note_on_c, 0, 77, 60
7, 135120, Note_off_c, 0, 62, 72
7, 135120, Note_off_c, 0, 77, 60
7, 135122, Note_on_c, 0, 50, 62
7, 135122, Note_on_c, 0, 79, 55
7, 135180, Note_off_c, 0, 79, 55
7, 135182, Note_on_c, 0, 77, 56
7, 135240, Note_off_c, 0, 77, 56
7, 135242, Note_on_c, 0, 79, 64
7, 135300, Note_off_c, 0, 79, 64
7, 135302, Note_on_c, 0, 77, 56
7, 135360, Note_off_c, 0, 50, 62
7, 135360, Note_off_c, 0, 77, 56
7, 135362, Note_on_c, 0, 79, 62
7, 135420, Note_off_c, 0, 79, 62
7, 135422, Note_on_c, 0, 77, 57
7, 135480, Note_off_c, 0, 77, 57
7, 135482, Note_on_c, 0, 79, 64
7, 135540, Note_off_c, 0, 79, 64
7, 135542, Note_on_c, 0, 77, 59
7, 135600, Note_off_c, 0, 77, 59
7, 135602, Note_on_c, 0, 50, 61
7, 135602, Note_on_c, 0, 79, 55
7, 135660, Note_off_c, 0, 79, 55
7, 135662, Note_on_c, 0, 77, 54
7, 135720, Note_off_c, 0, 77, 54
7, 135722, Note_on_c, 0, 79, 62
7, 135780, Note_off_c, 0, 79, 62
7, 135782, Note_on_c, 0, 77, 51
7, 135840, Note_off_c, 0, 50, 61
7, 135840, Note_off_c, 0, 77, 51
7, 135842, Note_on_c, 0, 55, 72
7, 135842, Note_on_c, 0, 79, 58
7, 135900, Note_off_c, 0, 79, 58
7, 135902, Note_on_c, 0, 77, 56
7, 135960, Note_off_c, 0, 77, 56
7, 135962, Note_on_c, 0, 79, 57
7, 136020, Note_off_c, 0, 79, 57
7, 136022, Note_on_c, 0, 77, 51
7, 136080, Note_off_c, 0, 55, 72
7, 136080, Note_off_c, 0, 77, 51
7, 136082, Note_on_c, 0, 43, 63
7, 136082, Note_on_c, 0, 79, 48
7, 136140, Note_off_c, 0, 79, 48
7, 136142, Note_on_c, 0, 77, 52
7, 136200, Note_off_c, 0, 77, 52
7, 136202, Note_on_c, 0, 79, 45
7, 136260, Note_off_c, 0, 79, 45
7, 136262, Note_on_c, 0, 77, 42
7, 136320, Note_off_c, 0, 43, 63
7, 136320, Note_off_c, 0, 77, 42
7, 136322, Note_on_c, 0, 77, 50
7, 136380, Note_off_c, 0, 77, 50
7, 136382, Note_on_c, 0, 76, 49
7, 136440, Note_off_c, 0, 76, 49
7, 136442, Note_on_c, 0, 77, 49
7, 136500, Note_off_c, 0, 77, 49
7, 136502, Note_on_c, 0, 76, 47
7, 136560, Note_off_c, 0, 76, 47
7, 136562, Note_on_c, 0, 55, 71
7, 136562, Note_on_c, 0, 77, 52
7, 136620, Note_off_c, 0, 77, 52
7, 136622, Note_on_c, 0, 76, 50
7, 136680, Note_off_c, 0, 76, 50
7, 136682, Note_on_c, 0, 77, 62
7, 136740, Note_off_c, 0, 77, 62
7, 136742, Note_on_c, 0, 76, 55
7, 136800, Note_off_c, 0, 55, 71
7, 136800, Note_off_c, 0, 76, 55
7, 136802, Note_on_c, 0, 60, 64
7, 136802, Note_on_c, 0, 77, 60
7, 136860, Note_off_c, 0, 77, 60
7, 136862, Note_on_c, 0, 76, 55
7, 136920, Note_off_c, 0, 76, 55
7, 136922, Note_on_c, 0, 77, 60
7, 136980, Note_off_c, 0, 77, 60
7, 136982, Note_on_c, 0, 76, 54
7, 137040, Note_off_c, 0, 60, 64
7, 137040, Note_off_c, 0, 76, 54
7, 137042, Note_on_c, 0, 48, 69
7, 137042, Note_on_c, 0, 77, 65
7, 137100, Note_off_c, 0, 77, 65
7, 137102, Note_on_c, 0, 76, 54
7, 137160, Note_off_c, 0, 76, 54
7, 137162, Note_on_c, 0, 77, 60
7, 137220, Note_off_c, 0, 77, 60
7, 137222, Note_on_c, 0, 76, 58
7, 137280, Note_off_c, 0, 48, 69
7, 137280, Note_off_c, 0, 76, 58
7, 137282, Note_on_c, 0, 77, 61
7, 137340, Note_off_c, 0, 77, 61
7, 137342, Note_on_c, 0, 76, 52
7, 137400, Note_off_c, 0, 76, 52
7, 137402, Note_on_c, 0, 77, 62
7, 137460, Note_off_c, 0, 77, 62
7, 137462, Note_on_c, 0, 76, 56
7, 137520, Note_off_c, 0, 76, 56
7, 137522, Note_on_c, 0, 48, 63
7, 137522, Note_on_c, 0, 77, 66
7, 137580, Note_off_c, 0, 77, 66
7, 137582, Note_on_c, 0, 76, 54
7, 137640, Note_off_c, 0, 76, 54
7, 137642, Note_on_c, 0, 77, 59
7, 137700, Note_off_c, 0, 77, 59
7, 137702, Note_on_c, 0, 76, 50
7, 137760, Note_off_c, 0, 48, 63
7, 137760, Note_off_c, 0, 76, 50
7, 137762, Note_on_c, 0, 53, 62
7, 137762, Note_on_c, 0, 77, 54
7, 137820, Note_off_c, 0, 77, 54
7, 137822, Note_on_c, 0, 76, 49
7, 137880, Note_off_c, 0, 76, 49
7, 137882, Note_on_c, 0, 77, 55
7, 137940, Note_off_c, 0, 77, 55
7, 137942, Note_on_c, 0, 76, 47
7, 138000, Note_off_c, 0, 53, 62
7, 138000, Note_off_c, 0, 76, 47
7, 138002, Note_on_c, 0, 41, 59
7, 138002, Note_on_c, 0, 77, 44
7, 138060, Note_off_c, 0, 77, 44
7, 138062, Note_on_c, 0, 76, 49
7, 138120, Note_off_c, 0, 76, 49
7, 138122, Note_on_c, 0, 77, 47
7, 138180, Note_off_c, 0, 77, 47
7, 138182, Note_on_c, 0, 76, 42
7, 138240, Note_off_c, 0, 41, 59
7, 138240, Note_off_c, 0, 76, 42
7, 138242, Note_on_c, 0, 76, 43
7, 138300, Note_off_c, 0, 76, 43
7, 138302, Note_on_c, 0, 74, 50
7, 138360, Note_off_c, 0, 74, 50
7, 138362, Note_on_c, 0, 76, 52
7, 138420, Note_off_c, 0, 76, 52
7, 138422, Note_on_c, 0, 74, 44
7, 138480, Note_off_c, 0, 74, 44
7, 138482, Note_on_c, 0, 53, 63
7, 138482, Note_on_c, 0, 76, 57
7, 138540, Note_off_c, 0, 76, 57
7, 138542, Note_on_c, 0, 74, 50
7, 138600, Note_off_c, 0, 74, 50
7, 138602, Note_on_c, 0, 76, 56
7, 138660, Note_off_c, 0, 76, 56
7, 138662, Note_on_c, 0, 74, 43
7, 138720, Note_off_c, 0, 53, 63
7, 138720, Note_off_c, 0, 74, 43
7, 138722, Note_on_c, 0, 47, 49
7, 138722, Note_on_c, 0, 76, 47
7, 138780, Note_off_c, 0, 76, 47
7, 138782, Note_on_c, 0, 74, 59
7, 138840, Note_off_c, 0, 74, 59
7, 138842, Note_on_c, 0, 76, 61
7, 138900, Note_off_c, 0, 76, 61
7, 138902, Note_on_c, 0, 74, 47
7, 138960, Note_off_c, 0, 47, 49
7, 138960, Note_off_c, 0, 74, 47
7, 138962, Note_on_c, 0, 59, 62
7, 138962, Note_on_c, 0, 76, 59
7, 139020, Note_off_c, 0, 76, 59
7, 139022, Note_on_c, 0, 74, 48
7, 139080, Note_off_c, 0, 74, 48
7, 139082, Note_on_c, 0, 76, 57
7, 139140, Note_off_c, 0, 76, 57
7, 139142, Note_on_c, 0, 74, 45
7, 139200, Note_off_c, 0, 59, 62
7, 139200, Note_off_c, 0, 74, 45
7, 139202, Note_on_c, 0, 76, 53
7, 139260, Note_off_c, 0, 76, 53
7, 139262, Note_on_c, 0, 74, 39
7, 139320, Note_off_c, 0, 74, 39
7, 139322, Note_on_c, 0, 76, 53
7, 139380, Note_off_c, 0, 76, 53
7, 139382, Note_on_c, 0, 74, 47
7, 139440, Note_off_c, 0, 74, 47
7, 139442, Note_on_c, 0, 47, 65
7, 139442, Note_on_c, 0, 76, 45
7, 139500, Note_off_c, 0, 76, 45
7, 139502, Note_on_c, 0, 74, 42
7, 139560, Note_off_c, 0, 74, 42
7, 139562, Note_on_c, 0, 76, 52
7, 139620, Note_off_c, 0, 76, 52
7, 139622, Note_on_c, 0, 74, 53
7, 139680, Note_off_c, 0, 47, 65
7, 139680, Note_off_c, 0, 74, 53
7, 139682, Note_on_c, 0, 52, 61
7, 139682, Note_on_c, 0, 76, 48
7, 139740, Note_off_c, 0, 76, 48
7, 139742, Note_on_c, 0, 74, 61
7, 139800, Note_off_c, 0, 74, 61
7, 139802, Note_on_c, 0, 76, 75
7, 139860, Note_off_c, 0, 76, 75
7, 139862, Note_on_c, 0, 74, 70
7, 139920, Note_off_c, 0, 52, 61
7, 139920, Note_off_c, 0, 74, 70
7, 139922, Note_on_c, 0, 40, 62
7, 139922, Note_on_c, 0, 76, 73
7, 139980, Note_off_c, 0, 76, 73
7, 139982, Note_on_c, 0, 74, 68
7, 140040, Note_off_c, 0, 74, 68
7, 140042, Note_on_c, 0, 76, 76
7, 140100, Note_off_c, 0, 76, 76
7, 140102, Note_on_c, 0, 74, 87
7, 140160, Note_off_c, 0, 40, 62
7, 140160, Note_off_c, 0, 74, 87
7, 140162, Note_on_c, 0, 45, 58
7, 140162, Note_on_c, 0, 72, 69
7, 140280, Note_off_c, 0, 72, 69
7, 140282, Note_on_c, 0, 76, 76
7, 140400, Note_off_c, 0, 45, 58
7, 140400, Note_off_c, 0, 76, 76
7, 140402, Note_on_c, 0, 45, 51
7, 140402, Note_on_c, 0, 76, 68
7, 140520, Note_off_c, 0, 76, 68
7, 140522, Note_on_c, 0, 76, 73
7, 140640, Note_off_c, 0, 45, 51
7, 140640, Note_off_c, 0, 76, 73
7, 140642, Note_on_c, 0, 45, 62
7, 140642, Note_on_c, 0, 81, 80
7, 140760, Note_off_c, 0, 81, 80
7, 140762, Note_on_c, 0, 76, 72
7, 140880, Note_off_c, 0, 45, 62
7, 140880, Note_off_c, 0, 76, 72
7, 140882, Note_on_c, 0, 45, 66
7, 140882, Note_on_c, 0, 76, 69
7, 141000, Note_off_c, 0, 76, 69
7, 141002, Note_on_c, 0, 76, 71
7, 141120, Note_off_c, 0, 45, 66
7, 141120, Note_off_c, 0, 76, 71
7, 141122, Note_on_c, 0, 49, 61
7, 141122, Note_on_c, 0, 81, 75
7, 141240, Note_off_c, 0, 81, 75
7, 141242, Note_on_c, 0, 76, 68
7, 141360, Note_off_c, 0, 49, 61
7, 141360, Note_off_c, 0, 76, 68
7, 141362, Note_on_c, 0, 45, 62
7, 141362, Note_on_c, 0, 76, 68
7, 141480, Note_off_c, 0, 76, 68
7, 141482, Note_on_c, 0, 76, 69
7, 141600, Note_off_c, 0, 45, 62
7, 141600, Note_off_c, 0, 76, 69
7, 141602, Note_on_c, 0, 45, 62
7, 141602, Note_on_c, 0, 81, 79
7, 141720, Note_off_c, 0, 81, 79
7, 141722, Note_on_c, 0, 79, 74
7, 141840, Note_off_c, 0, 45, 62
7, 141840, Note_off_c, 0, 79, 74
7, 141842, Note_on_c, 0, 45, 65
7, 141842, Note_on_c, 0, 77, 76
7, 141960, Note_off_c, 0, 77, 76
7, 141962, Note_on_c, 0, 76, 71
7, 142080, Note_off_c, 0, 45, 65
7, 142080, Note_off_c, 0, 76, 71
7, 142082, Note_on_c, 0, 50, 79
7, 142082, Note_on_c, 0, 77, 84
7, 142560, Note_off_c, 0, 50, 79
7, 142560, Note_off_c, 0, 77, 84
7, 150002, Note_on_c, 0, 59, 80
7, 150002, Note_on_c, 0, 67, 81
7, 150120, Note_off_c, 0, 59, 80
7, 150122, Note_on_c, 0, 57, 78
7, 150240, Note_off_c, 0, 67, 81
7, 150240, Note_off_c, 0, 57, 78
7, 150242, Note_on_c, 0, 55, 85
7, 150242, Note_on_c, 0, 71, 79
7, 150360, Note_off_c, 0, 55, 85
7, 150362, Note_on_c, 0, 54, 73
7, 150480, Note_off_c, 0, 71, 79
7, 150480, Note_off_c, 0, 54, 73
7, 150482, Note_on_c, 0, 52, 74
7, 150482, Note_on_c, 0, 76, 80
7, 150600, Note_off_c, 0, 52, 74
7, 150602, Note_on_c, 0, 54, 74
7, 150720, Note_off_c, 0, 76, 80
7, 150720, Note_off_c, 0, 54, 74
7, 150722, Note_on_c, 0, 56, 80
7, 150722, Note_on_c, 0, 71, 75
7, 150840, Note_off_c, 0, 56, 80
7, 150842, Note_on_c, 0, 54, 76
7, 150960, Note_off_c, 0, 71, 75
7, 150960, Note_off_c, 0, 54, 76
7, 150962, Note_on_c, 0, 52, 77
7, 150962, Note_on_c, 0, 76, 75
7, 151080, Note_off_c, 0, 52, 77
7, 151082, Note_on_c, 0, 54, 77
7, 151200, Note_off_c, 0, 76, 75
7, 151200, Note_off_c, 0, 54, 77
7, 151202, Note_on_c, 0, 56, 76
7, 151202, Note_on_c, 0, 71, 78
7, 151440, Note_off_c, 0, 56, 76
7, 151440, Note_off_c, 0, 71, 78
7, 151442, Note_on_c, 0, 52, 83
7, 151442, Note_on_c, 0, 68, 80
7, 151680, Note_off_c, 0, 52, 83
7, 151680, Note_off_c, 0, 68, 80
7, 151682, Note_on_c, 0, 45, 75
7, 151682, Note_on_c, 0, 64, 89
7, 151800, Note_off_c, 0, 64, 89
7, 151802, Note_on_c, 0, 76, 80
7, 151920, Note_off_c, 0, 45, 75
7, 151920, Note_off_c, 0, 76, 80
7, 151922, Note_on_c, 0, 57, 78
7, 151922, Note_on_c, 0, 76, 82
7, 152040, Note_off_c, 0, 76, 82
7, 152042, Note_on_c, 0, 76, 80
7, 152160, Note_off_c, 0, 57, 78
7, 152160, Note_off_c, 0, 76, 80
7, 152162, Note_on_c, 0, 60, 76
7, 152162, Note_on_c, 0, 81, 87
7, 152280, Note_off_c, 0, 81, 87
7, 152282, Note_on_c, 0, 76, 80
7, 152400, Note_off_c, 0, 60, 76
7, 152400, Note_off_c, 0, 76, 80
7, 152402, Note_on_c, 0, 57, 79
7, 152402, Note_on_c, 0, 76, 79
7, 152520, Note_off_c, 0, 76, 79
7, 152522, Note_on_c, 0, 76, 74
7, 152640, Note_off_c, 0, 57, 79
7, 152640, Note_off_c, 0, 76, 74
7, 152642, Note_on_c, 0, 56, 75
7, 152642, Note_on_c, 0, 77, 86
7, 152760, Note_off_c, 0, 77, 86
7, 152762, Note_on_c, 0, 76, 79
7, 152880, Note_off_c, 0, 56, 75
7, 152880, Note_off_c, 0, 76, 79
7, 152882, Note_on_c, 0, 57, 79
7, 152882, Note_on_c, 0, 76, 77
7, 153000, Note_off_c, 0, 76, 77
7, 153002, Note_on_c, 0, 76, 72
7, 153120, Note_off_c, 0, 57, 79
7, 153120, Note_off_c, 0, 76, 72
7, 153122, Note_on_c, 0, 45, 75
7, 153122, Note_on_c, 0, 81, 81
7, 153240, Note_off_c, 0, 81, 81
7, 153242, Note_on_c, 0, 76, 82
7, 153360, Note_off_c, 0, 45, 75
7, 153360, Note_off_c, 0, 76, 82
7, 153362, Note_on_c, 0, 57, 72
7, 153362, Note_on_c, 0, 76, 80
7, 153480, Note_off_c, 0, 76, 80
7, 153482, Note_on_c, 0, 76, 80
7, 153600, Note_off_c, 0, 57, 72
7, 153600, Note_off_c, 0, 76, 80
7, 153602, Note_on_c, 0, 50, 77
7, 153602, Note_on_c, 0, 77, 84
7, 153720, Note_off_c, 0, 77, 84
7, 153722, Note_on_c, 0, 74, 76
7, 153840, Note_off_c, 0, 50, 77
7, 153840, Note_off_c, 0, 74, 76
7, 153842, Note_on_c, 0, 55, 89
7, 153842, Note_on_c, 0, 74, 77
7, 153960, Note_off_c, 0, 74, 77
7, 153962, Note_on_c, 0, 74, 80
7, 154080, Note_off_c, 0, 55, 89
7, 154080, Note_off_c, 0, 74, 80
7, 154082, Note_on_c, 0, 59, 75
7, 154082, Note_on_c, 0, 79, 83
7, 154200, Note_off_c, 0, 79, 83
7, 154202, Note_on_c, 0, 74, 80
7, 154320, Note_off_c, 0, 59, 75
7, 154320, Note_off_c, 0, 74, 80
7, 154322, Note_on_c, 0, 55, 81
7, 154322, Note_on_c, 0, 74, 74
7, 154440, Note_off_c, 0, 74, 74
7, 154442, Note_on_c, 0, 74, 76
7, 154560, Note_off_c, 0, 55, 81
7, 154560, Note_off_c, 0, 74, 76
7, 154562, Note_on_c, 0, 54, 73
7, 154562, Note_on_c, 0, 76, 80
7, 154680, Note_off_c, 0, 76, 80
7, 154682, Note_on_c, 0, 74, 79
7, 154800, Note_off_c, 0, 54, 73
7, 154800, Note_off_c, 0, 74, 79
7, 154802, Note_on_c, 0, 55, 86
7, 154802, Note_on_c, 0, 74, 78
7, 154920, Note_off_c, 0, 74, 78
7, 154922, Note_on_c, 0, 74, 74
7, 155040, Note_off_c, 0, 55, 86
7, 155040, Note_off_c, 0, 74, 74
7, 155042, Note_on_c, 0, 43, 80
7, 155042, Note_on_c, 0, 79, 82
7, 155160, Note_off_c, 0, 79, 82
7, 155162, Note_on_c, 0, 74, 79
7, 155280, Note_off_c, 0, 43, 80
7, 155280, Note_off_c, 0, 74, 79
7, 155282, Note_on_c, 0, 55, 92
7, 155282, Note_on_c, 0, 74, 76
7, 155400, Note_off_c, 0, 74, 76
7, 155402, Note_on_c, 0, 74, 77
7, 155520, Note_off_c, 0, 55, 92
7, 155520, Note_off_c, 0, 74, 77
7, 155522, Note_on_c, 0, 48, 80
7, 155522, Note_on_c, 0, 76, 85
7, 155640, Note_off_c, 0, 76, 85
7, 155642, Note_on_c, 0, 72, 75
7, 155760, Note_off_c, 0, 48, 80
7, 155760, Note_off_c, 0, 72, 75
7, 155762, Note_on_c, 0, 53, 84
7, 155762, Note_on_c, 0, 72, 80
7, 155880, Note_off_c, 0, 72, 80
7, 155882, Note_on_c, 0, 72, 79
7, 156000, Note_off_c, 0, 53, 84
7, 156000, Note_off_c, 0, 72, 79
7, 156002, Note_on_c, 0, 57, 76
7, 156002, Note_on_c, 0, 77, 93
7, 156120, Note_off_c, 0, 77, 93
7, 156122, Note_on_c, 0, 72, 73
7, 156240, Note_off_c, 0, 57, 76
7, 156240, Note_off_c, 0, 72, 73
7, 156242, Note_on_c, 0, 53, 82
7, 156242, Note_on_c, 0, 72, 74
7, 156360, Note_off_c, 0, 72, 74
7, 156362, Note_on_c, 0, 72, 74
7, 156480, Note_off_c, 0, 53, 82
7, 156480, Note_off_c, 0, 72, 74
7, 156482, Note_on_c, 0, 52, 80
7, 156482, Note_on_c, 0, 74, 91
7, 156600, Note_off_c, 0, 74, 91
7, 156602, Note_on_c, 0, 72, 85
7, 156720, Note_off_c, 0, 52, 80
7, 156720, Note_off_c, 0, 72, 85
7, 156722, Note_on_c, 0, 53, 80
7, 156722, Note_on_c, 0, 72, 79
7, 156840, Note_off_c, 0, 72, 79
7, 156842, Note_on_c, 0, 72, 77
7, 156960, Note_off_c, 0, 53, 80
7, 156960, Note_off_c, 0, 72, 77
7, 156962, Note_on_c, 0, 41, 72
7, 156962, Note_on_c, 0, 77, 91
7, 157080, Note_off_c, 0, 77, 91
7, 157082, Note_on_c, 0, 72, 74
7, 157200, Note_off_c, 0, 41, 72
7, 157200, Note_off_c, 0, 72, 74
7, 157202, Note_on_c, 0, 53, 87
7, 157202, Note_on_c, 0, 72, 71
7, 157320, Note_off_c, 0, 72, 71
7, 157322, Note_on_c, 0, 72, 71
7, 157440, Note_off_c, 0, 53, 87
7, 157440, Note_off_c, 0, 72, 71
7, 157442, Note_on_c, 0, 47, 76
7, 157442, Note_on_c, 0, 74, 86
7, 157560, Note_off_c, 0, 74, 86
7, 157562, Note_on_c, 0, 71, 76
7, 157680, Note_off_c, 0, 47, 76
7, 157680, Note_off_c, 0, 71, 76
7, 157682, Note_on_c, 0, 52, 82
7, 157682, Note_on_c, 0, 71, 72
7, 157800, Note_off_c, 0, 71, 72
7, 157802, Note_on_c, 0, 71, 74
7, 157920, Note_off_c, 0, 52, 82
7, 157920, Note_off_c, 0, 71, 74
7, 157922, Note_on_c, 0, 56, 72
7, 157922, Note_on_c, 0, 76, 87
7, 158040, Note_off_c, 0, 76, 87
7, 158042, Note_on_c, 0, 71, 78
7, 158160, Note_off_c, 0, 56, 72
7, 158160, Note_off_c, 0, 71, 78
7, 158162, Note_on_c, 0, 52, 81
7, 158162, Note_on_c, 0, 71, 74
7, 158280, Note_off_c, 0, 71, 74
7, 158282, Note_on_c, 0, 71, 79
7, 158400, Note_off_c, 0, 52, 81
7, 158400, Note_off_c, 0, 71, 79
7, 158402, Note_on_c, 0, 51, 82
7, 158402, Note_on_c, 0, 72, 85
7, 158520, Note_off_c, 0, 72, 85
7, 158522, Note_on_c, 0, 71, 78
7, 158640, Note_off_c, 0, 51, 82
7, 158640, Note_off_c, 0, 71, 78
7, 158642, Note_on_c, 0, 52, 80
7, 158642, Note_on_c, 0, 71, 76
7, 158760, Note_off_c, 0, 71, 76
7, 158762, Note_on_c, 0, 71, 74
7, 158880, Note_off_c, 0, 52, 80
7, 158880, Note_off_c, 0, 71, 74
7, 158882, Note_on_c, 0, 40, 80
7, 158882, Note_on_c, 0, 76, 83
7, 159000, Note_off_c, 0, 76, 83
7, 159002, Note_on_c, 0, 71, 78
7, 159120, Note_off_c, 0, 40, 80
7, 159120, Note_off_c, 0, 71, 78
7, 159122, Note_on_c, 0, 52, 85
7, 159122, Note_on_c, 0, 71, 74
7, 159240, Note_off_c, 0, 71, 74
7, 159242, Note_on_c, 0, 71, 75
7, 159360, Note_off_c, 0, 52, 85
7, 159360, Note_off_c, 0, 71, 75
7, 159362, Note_on_c, 0, 45, 84
7, 159362, Note_on_c, 0, 72, 83
7, 159600, Note_off_c, 0, 72, 83
7, 159602, Note_on_c, 0, 69, 88
7, 159840, Note_off_c, 0, 45, 84
7, 159840, Note_off_c, 0, 69, 88
7, 167042, Note_on_c, 0, 83, 61
7, 167042, Note_on_c, 0, 72, 47
7, 167100, Note_off_c, 0, 83, 61
7, 167102, Note_on_c, 0, 81, 63
7, 167160, Note_off_c, 0, 81, 63
7, 167162, Note_on_c, 0, 83, 65
7, 167220, Note_off_c, 0, 83, 65
7, 167222, Note_on_c, 0, 81, 71
7, 167280, Note_off_c, 0, 72, 47
7, 167280, Note_off_c, 0, 81, 71
7, 167282, Note_on_c, 0, 83, 63
7, 167282, Note_on_c, 0, 72, 42
7, 167340, Note_off_c, 0, 83, 63
7, 167342, Note_on_c, 0, 81, 63
7, 167400, Note_off_c, 0, 81, 63
7, 167402, Note_on_c, 0, 83, 67
7, 167460, Note_off_c, 0, 83, 67
7, 167462, Note_on_c, 0, 81, 60
7, 167520, Note_off_c, 0, 72, 42
7, 167520, Note_off_c, 0, 81, 60
7, 167522, Note_on_c, 0, 83, 63
7, 167522, Note_on_c, 0, 72, 41
7, 167580, Note_off_c, 0, 83, 63
7, 167582, Note_on_c, 0, 81, 61
7, 167640, Note_off_c, 0, 81, 61
7, 167642, Note_on_c, 0, 83, 66
7, 167700, Note_off_c, 0, 83, 66
7, 167702, Note_on_c, 0, 81, 59
7, 167760, Note_off_c, 0, 72, 41
7, 167760, Note_off_c, 0, 81, 59
7, 167762, Note_on_c, 0, 83, 56
7, 167762, Note_on_c, 0, 72, 37
7, 167820, Note_off_c, 0, 83, 56
7, 167822, Note_on_c, 0, 81, 53
7, 167880, Note_off_c, 0, 81, 53
7, 167882, Note_on_c, 0, 83, 61
7, 167940, Note_off_c, 0, 83, 61
7, 167942, Note_on_c, 0, 81, 56
7, 168000, Note_off_c, 0, 72, 37
7, 168000, Note_off_c, 0, 81, 56
7, 168002, Note_on_c, 0, 83, 65
7, 168002, Note_on_c, 0, 74, 44
7, 168060, Note_off_c, 0, 83, 65
7, 168062, Note_on_c, 0, 81, 65
7, 168120, Note_off_c, 0, 81, 65
7, 168122, Note_on_c, 0, 83, 66
7, 168180, Note_off_c, 0, 83, 66
7, 168182, Note_on_c, 0, 81, 61
7, 168240, Note_off_c, 0, 74, 44
7, 168240, Note_off_c, 0, 81, 61
7, 168242, Note_on_c, 0, 83, 66
7, 168242, Note_on_c, 0, 74, 41
7, 168300, Note_off_c, 0, 83, 66
7, 168302, Note_on_c, 0, 81, 63
7, 168360, Note_off_c, 0, 81, 63
7, 168362, Note_on_c, 0, 83, 61
7, 168420, Note_off_c, 0, 83, 61
7, 168422, Note_on_c, 0, 81, 58
7, 168480, Note_off_c, 0, 74, 41
7, 168480, Note_off_c, 0, 81, 58
7, 168482, Note_on_c, 0, 83, 59
7, 168482, Note_on_c, 0, 74, 36
7, 168540, Note_off_c, 0, 83, 59
7, 168542, Note_on_c, 0, 81, 58
7, 168600, Note_off_c, 0, 81, 58
7, 168602, Note_on_c, 0, 83, 58
7, 168660, Note_off_c, 0, 83, 58
7, 168662, Note_on_c, 0, 81, 59
7, 168720, Note_off_c, 0, 74, 36
7, 168720, Note_off_c, 0, 81, 59
7, 168722, Note_on_c, 0, 83, 51
7, 168722, Note_on_c, 0, 74, 39
7, 168780, Note_off_c, 0, 83, 51
7, 168782, Note_on_c, 0, 81, 55
7, 168840, Note_off_c, 0, 81, 55
7, 168842, Note_on_c, 0, 83, 54
7, 168900, Note_off_c, 0, 83, 54
7, 168902, Note_on_c, 0, 81, 46
7, 168960, Note_off_c, 0, 74, 39
7, 168960, Note_off_c, 0, 81, 46
7, 168962, Note_on_c, 0, 83, 45
7, 168962, Note_on_c, 0, 76, 45
7, 169020, Note_off_c, 0, 83, 45
7, 169022, Note_on_c, 0, 81, 55
7, 169080, Note_off_c, 0, 81, 55
7, 169082, Note_on_c, 0, 83, 61
7, 169140, Note_off_c, 0, 83, 61
7, 169142, Note_on_c, 0, 81, 59
7, 169200, Note_off_c, 0, 76, 45
7, 169200, Note_off_c, 0, 81, 59
7, 169202, Note_on_c, 0, 83, 60
7, 169202, Note_on_c, 0, 76, 43
7, 169260, Note_off_c, 0, 83, 60
7, 169262, Note_on_c, 0, 81, 49
7, 169320, Note_off_c, 0, 81, 49
7, 169322, Note_on_c, 0, 83, 56
7, 169380, Note_off_c, 0, 83, 56
7, 169382, Note_on_c, 0, 81, 55
7, 169440, Note_off_c, 0, 76, 43
7, 169440, Note_off_c, 0, 81, 55
7, 169442, Note_on_c, 0, 83, 58
7, 169442, Note_on_c, 0, 76, 41
7, 169500, Note_off_c, 0, 83, 58
7, 169502, Note_on_c, 0, 81, 52
7, 169560, Note_off_c, 0, 81, 52
7, 169562, Note_on_c, 0, 83, 61
7, 169620, Note_off_c, 0, 83, 61
7, 169622, Note_on_c, 0, 81, 57
7, 169680, Note_off_c, 0, 76, 41
7, 169680, Note_off_c, 0, 81, 57
7, 169682, Note_on_c, 0, 83, 65
7, 169682, Note_on_c, 0, 76, 37
7, 169740, Note_off_c, 0, 83, 65
7, 169742, Note_on_c, 0, 81, 63
7, 169800, Note_off_c, 0, 81, 63
7, 169802, Note_on_c, 0, 83, 63
7, 169860, Note_off_c, 0, 83, 63
7, 169862, Note_on_c, 0, 81, 58
7, 169920, Note_off_c, 0, 76, 37
7, 169920, Note_off_c, 0, 81, 58
7, 169922, Note_on_c, 0, 83, 61
7, 169922, Note_on_c, 0, 77, 46
7, 169980, Note_off_c, 0, 83, 61
7, 169982, Note_on_c, 0, 81, 56
7, 170040, Note_off_c, 0, 81, 56
7, 170042, Note_on_c, 0, 83, 64
7, 170100, Note_off_c, 0, 83, 64
7, 170102, Note_on_c, 0, 81, 58
7, 170160, Note_off_c, 0, 77, 46
7, 170160, Note_off_c, 0, 81, 58
7, 170162, Note_on_c, 0, 83, 66
7, 170162, Note_on_c, 0, 77, 38
7, 170220, Note_off_c, 0, 83, 66
7, 170222, Note_on_c, 0, 81, 60
7, 170280, Note_off_c, 0, 81, 60
7, 170282, Note_on_c, 0, 83, 63
7, 170340, Note_off_c, 0, 83, 63
7, 170342, Note_on_c, 0, 81, 56
7, 170400, Note_off_c, 0, 77, 38
7, 170400, Note_off_c, 0, 81, 56
7, 170402, Note_on_c, 0, 83, 66
7, 170402, Note_on_c, 0, 77, 40
7, 170460, Note_off_c, 0, 83, 66
7, 170462, Note_on_c, 0, 81, 57
7, 170520, Note_off_c, 0, 81, 57
7, 170522, Note_on_c, 0, 83, 63
7, 170580, Note_off_c, 0, 83, 63
7, 170582, Note_on_c, 0, 81, 53
7, 170640, Note_off_c, 0, 77, 40
7, 170640, Note_off_c, 0, 81, 53
7, 170642, Note_on_c, 0, 83, 63
7, 170642, Note_on_c, 0, 77, 40
7, 170700, Note_off_c, 0, 83, 63
7, 170702, Note_on_c, 0, 81, 60
7, 170760, Note_off_c, 0, 81, 60
7, 170762, Note_on_c, 0, 83, 68
7, 170820, Note_off_c, 0, 83, 68
7, 170822, Note_on_c, 0, 81, 52
7, 170880, Note_off_c, 0, 77, 40
7, 170880, Note_off_c, 0, 81, 52
7, 170882, Note_on_c, 0, 83, 65
7, 170882, Note_on_c, 0, 72, 36
7, 170940, Note_off_c, 0, 83, 65
7, 170942, Note_on_c, 0, 81, 58
7, 171000, Note_off_c, 0, 81, 58
7, 171002, Note_on_c, 0, 83, 66
7, 171060, Note_off_c, 0, 83, 66
7, 171062, Note_on_c, 0, 81, 61
7, 171120, Note_off_c, 0, 72, 36
7, 171120, Note_off_c, 0, 81, 61
7, 171122, Note_on_c, 0, 83, 72
7, 171122, Note_on_c, 0, 72, 34
7, 171180, Note_off_c, 0, 83, 72
7, 171182, Note_on_c, 0, 81, 71
7, 171240, Note_off_c, 0, 81, 71
7, 171242, Note_on_c, 0, 83, 68
7, 171300, Note_off_c, 0, 83, 68
7, 171302, Note_on_c, 0, 81, 62
7, 171360, Note_off_c, 0, 72, 34
7, 171360, Note_off_c, 0, 81, 62
7, 171362, Note_on_c, 0, 83, 66
7, 171362, Note_on_c, 0, 72, 33
7, 171420, Note_off_c, 0, 83, 66
7, 171422, Note_on_c, 0, 81, 67
7, 171480, Note_off_c, 0, 81, 67
7, 171482, Note_on_c, 0, 83, 67
7, 171540, Note_off_c, 0, 83, 67
7, 171542, Note_on_c, 0, 81, 66
7, 171600, Note_off_c, 0, 72, 33
7, 171600, Note_off_c, 0, 81, 66
7, 171602, Note_on_c, 0, 83, 68
7, 171602, Note_on_c, 0, 72, 32
7, 171660, Note_off_c, 0, 83, 68
7, 171662, Note_on_c, 0, 81, 56
7, 171720, Note_off_c, 0, 81, 56
7, 171722, Note_on_c, 0, 83, 59
7, 171780, Note_off_c, 0, 83, 59
7, 171782, Note_on_c, 0, 81, 61
7, 171840, Note_off_c, 0, 72, 32
7, 171840, Note_off_c, 0, 81, 61
7, 171842, Note_on_c, 0, 83, 69
7, 171842, Note_on_c, 0, 74, 44
7, 171900, Note_off_c, 0, 83, 69
7, 171902, Note_on_c, 0, 81, 64
7, 171960, Note_off_c, 0, 81, 64
7, 171962, Note_on_c, 0, 83, 68
7, 172020, Note_off_c, 0, 83, 68
7, 172022, Note_on_c, 0, 81, 63
7, 172080, Note_off_c, 0, 74, 44
7, 172080, Note_off_c, 0, 81, 63
7, 172082, Note_on_c, 0, 83, 61
7, 172082, Note_on_c, 0, 74, 44
7, 172140, Note_off_c, 0, 83, 61
7, 172142, Note_on_c, 0, 81, 63
7, 172200, Note_off_c, 0, 81, 63
7, 172202, Note_on_c, 0, 83, 66
7, 172260, Note_off_c, 0, 83, 66
7, 172262, Note_on_c, 0, 81, 56
7, 172320, Note_off_c, 0, 74, 44
7, 172320, Note_off_c, 0, 81, 56
7, 172322, Note_on_c, 0, 83, 67
7, 172322, Note_on_c, 0, 74, 41
7, 172380, Note_off_c, 0, 83, 67
7, 172382, Note_on_c, 0, 81, 56
7, 172440, Note_off_c, 0, 81, 56
7, 172442, Note_on_c, 0, 83, 65
7, 172500, Note_off_c, 0, 83, 65
7, 172502, Note_on_c, 0, 81, 65
7, 172560, Note_off_c, 0, 74, 41
7, 172560, Note_off_c, 0, 81, 65
7, 172562, Note_on_c, 0, 83, 69
7, 172562, Note_on_c, 0, 74, 41
7, 172620, Note_off_c, 0, 83, 69
7, 172622, Note_on_c, 0, 81, 61
7, 172680, Note_off_c, 0, 81, 61
7, 172682, Note_on_c, 0, 83, 62
7, 172740, Note_off_c, 0, 83, 62
7, 172742, Note_on_c, 0, 81, 65
7, 172800, Note_off_c, 0, 74, 41
7, 172800, Note_off_c, 0, 81, 65
7, 172802, Note_on_c, 0, 83, 83
7, 172802, Note_on_c, 0, 76, 64
7, 172860, Note_off_c, 0, 83, 83
7, 172862, Note_on_c, 0, 81, 85
7, 172920, Note_off_c, 0, 81, 85
7, 172922, Note_on_c, 0, 83, 84
7, 172980, Note_off_c, 0, 83, 84
7, 172982, Note_on_c, 0, 81, 80
7, 173040, Note_off_c, 0, 76, 64
7, 173040, Note_off_c, 0, 81, 80
7, 173042, Note_on_c, 0, 83, 74
7, 173042, Note_on_c, 0, 76, 64
7, 173100, Note_off_c, 0, 83, 74
7, 173102, Note_on_c, 0, 81, 78
7, 173160, Note_off_c, 0, 81, 78
7, 173162, Note_on_c, 0, 83, 83
7, 173220, Note_off_c, 0, 83, 83
7, 173222, Note_on_c, 0, 81, 85
7, 173280, Note_off_c, 0, 76, 64
7, 173280, Note_off_c, 0, 81, 85
7, 173282, Note_on_c, 0, 83, 90
7, 173282, Note_on_c, 0, 76, 56
7, 173340, Note_off_c, 0, 83, 90
7, 173342, Note_on_c, 0, 81, 85
7, 173400, Note_off_c, 0, 81, 85
7, 173402, Note_on_c, 0, 83, 88
7, 173460, Note_off_c, 0, 83, 88
7, 173462, Note_on_c, 0, 81, 85
7, 173520, Note_off_c, 0, 76, 56
7, 173520, Note_off_c, 0, 81, 85
7, 173522, Note_on_c, 0, 83, 86
7, 173522, Note_on_c, 0, 76, 56
7, 173580, Note_off_c, 0, 83, 86
7, 173582, Note_on_c, 0, 81, 83
7, 173640, Note_off_c, 0, 81, 83
7, 173642, Note_on_c, 0, 83, 83
7, 173700, Note_off_c, 0, 83, 83
7, 173702, Note_on_c, 0, 81, 79
7, 173760, Note_off_c, 0, 76, 56
7, 173760, Note_off_c, 0, 81, 79
7, 173762, Note_on_c, 0, 83, 86
7, 173762, Note_on_c, 0, 77, 66
7, 173820, Note_off_c, 0, 83, 86
7, 173822, Note_on_c, 0, 81, 85
7, 173880, Note_off_c, 0, 81, 85
7, 173882, Note_on_c, 0, 83, 86
7, 173940, Note_off_c, 0, 83, 86
7, 173942, Note_on_c, 0, 81, 82
7, 174000, Note_off_c, 0, 77, 66
7, 174000, Note_off_c, 0, 81, 82
7, 174002, Note_on_c, 0, 83, 84
7, 174002, Note_on_c, 0, 77, 60
7, 174060, Note_off_c, 0, 83, 84
7, 174062, Note_on_c, 0, 81, 81
7, 174120, Note_off_c, 0, 81, 81
7, 174122, Note_on_c, 0, 83, 80
7, 174180, Note_off_c, 0, 83, 80
7, 174182, Note_on_c, 0, 81, 73
7, 174240, Note_off_c, 0, 77, 60
7, 174240, Note_off_c, 0, 81, 73
7, 174242, Note_on_c, 0, 83, 79
7, 174242, Note_on_c, 0, 77, 59
7, 174300, Note_off_c, 0, 83, 79
7, 174302, Note_on_c, 0, 81, 79
7, 174360, Note_off_c, 0, 81, 79
7, 174362, Note_on_c, 0, 83, 81
7, 174420, Note_off_c, 0, 83, 81
7, 174422, Note_on_c, 0, 81, 84
7, 174480, Note_off_c, 0, 77, 59
7, 174480, Note_off_c, 0, 81, 84
7, 174482, Note_on_c, 0, 83, 83
7, 174482, Note_on_c, 0, 77, 61
7, 174540, Note_off_c, 0, 83, 83
7, 174542, Note_on_c, 0, 81, 79
7, 174600, Note_off_c, 0, 81, 79
7, 174602, Note_on_c, 0, 83, 85
7, 174660, Note_off_c, 0, 83, 85
7, 174662, Note_on_c, 0, 81, 79
7, 174720, Note_off_c, 0, 77, 61
7, 174720, Note_off_c, 0, 81, 79
7, 174722, Note_on_c, 0, 83, 82
7, 174722, Note_on_c, 0, 72, 52
7, 174780, Note_off_c, 0, 83, 82
7, 174782, Note_on_c, 0, 81, 91
7, 174840, Note_off_c, 0, 81, 91
7, 174842, Note_on_c, 0, 83, 85
7, 174900, Note_off_c, 0, 83, 85
7, 174902, Note_on_c, 0, 81, 79
7, 174960, Note_off_c, 0, 72, 52
7, 174960, Note_off_c, 0, 81, 79
7, 174962, Note_on_c, 0, 83, 85
7, 174962, Note_on_c, 0, 72, 53
7, 175020, Note_off_c, 0, 83, 85
7, 175022, Note_on_c, 0, 81, 78
7, 175080, Note_off_c, 0, 81, 78
7, 175082, Note_on_c, 0, 83, 83
7, 175140, Note_off_c, 0, 83, 83
7, 175142, Note_on_c, 0, 81, 73
7, 175200, Note_off_c, 0, 72, 53
7, 175200, Note_off_c, 0, 81, 73
7, 175202, Note_on_c, 0, 83, 87
7, 175202, Note_on_c, 0, 72, 48
7, 175260, Note_off_c, 0, 83, 87
7, 175262, Note_on_c, 0, 81, 81
7, 175320, Note_off_c, 0, 81, 81
7, 175322, Note_on_c, 0, 83, 84
7, 175380, Note_off_c, 0, 83, 84
7, 175382, Note_on_c, 0, 81, 79
7, 175440, Note_off_c, 0, 72, 48
7, 175440, Note_off_c, 0, 81, 79
7, 175442, Note_on_c, 0, 83, 83
7, 175442, Note_on_c, 0, 72, 46
7, 175500, Note_off_c, 0, 83, 83
7, 175502, Note_on_c, 0, 81, 81
7, 175560, Note_off_c, 0, 81, 81
7, 175562, Note_on_c, 0, 83, 85
7, 175620, Note_off_c, 0, 83, 85
7, 175622, Note_on_c, 0, 81, 81
7, 175680, Note_off_c, 0, 72, 46
7, 175680, Note_off_c, 0, 81, 81
7, 175682, Note_on_c, 0, 83, 86
7, 175682, Note_on_c, 0, 74, 62
7, 175740, Note_off_c, 0, 83, 86
7, 175742, Note_on_c, 0, 81, 83
7, 175800, Note_off_c, 0, 81, 83
7, 175802, Note_on_c, 0, 83, 88
7, 175860, Note_off_c, 0, 83, 88
7, 175862, Note_on_c, 0, 81, 75
7, 175920, Note_off_c, 0, 74, 62
7, 175920, Note_off_c, 0, 81, 75
7, 175922, Note_on_c, 0, 83, 85
7, 175922, Note_on_c, 0, 74, 52
7, 175980, Note_off_c, 0, 83, 85
7, 175982, Note_on_c, 0, 81, 76
7, 176040, Note_off_c, 0, 81, 76
7, 176042, Note_on_c, 0, 83, 83
7, 176100, Note_off_c, 0, 83, 83
7, 176102, Note_on_c, 0, 81, 80
7, 176160, Note_off_c, 0, 74, 52
7, 176160, Note_off_c, 0, 81, 80
7, 176162, Note_on_c, 0, 83, 85
7, 176162, Note_on_c, 0, 74, 54
7, 176220, Note_off_c, 0, 83, 85
7, 176222, Note_on_c, 0, 81, 78
7, 176280, Note_off_c, 0, 81, 78
7, 176282, Note_on_c, 0, 83, 82
7, 176340, Note_off_c, 0, 83, 82
7, 176342, Note_on_c, 0, 81, 76
7, 176400, Note_off_c, 0, 74, 54
7, 176400, Note_off_c, 0, 81, 76
7, 176402, Note_on_c, 0, 83, 81
7, 176402, Note_on_c, 0, 74, 62
7, 176460, Note_off_c, 0, 83, 81
7, 176462, Note_on_c, 0, 81, 74
7, 176520, Note_off_c, 0, 81, 74
7, 176522, Note_on_c, 0, 83, 88
7, 176580, Note_off_c, 0, 83, 88
7, 176582, Note_on_c, 0, 81, 85
7, 176640, Note_off_c, 0, 74, 62
7, 176640, Note_off_c, 0, 81, 85
7, 176642, Note_on_c, 0, 83, 92
7, 176642, Note_on_c, 0, 71, 81
7, 176700, Note_off_c, 0, 83, 92
7, 176702, Note_on_c, 0, 81, 89
7, 176760, Note_off_c, 0, 81, 89
7, 176762, Note_on_c, 0, 83, 88
7, 176820, Note_off_c, 0, 83, 88
7, 176822, Note_on_c, 0, 81, 89
7, 176880, Note_off_c, 0, 71, 81
7, 176880, Note_off_c, 0, 81, 89
7, 176882, Note_on_c, 0, 83, 86
7, 176882, Note_on_c, 0, 71, 81
7, 176940, Note_off_c, 0, 83, 86
7, 176942, Note_on_c, 0, 81, 82
7, 177000, Note_off_c, 0, 81, 82
7, 177002, Note_on_c, 0, 80, 94
7, 177120, Note_off_c, 0, 71, 81
7, 177120, Note_off_c, 0, 80, 94
7, 177122, Note_on_c, 0, 81, 95
7, 177122, Note_on_c, 0, 71, 75
7, 177180, Note_off_c, 0, 81, 95
7, 177182, Note_on_c, 0, 80, 92
7, 177240, Note_off_c, 0, 80, 92
7, 177242, Note_on_c, 0, 81, 94
7, 177300, Note_off_c, 0, 81, 94
7, 177302, Note_on_c, 0, 80, 87
7, 177360, Note_off_c, 0, 71, 75
7, 177360, Note_off_c, 0, 80, 87
7, 177362, Note_on_c, 0, 81, 96
7, 177362, Note_on_c, 0, 71, 76
7, 177420, Note_off_c, 0, 81, 96
7, 177422, Note_on_c, 0, 80, 86
7, 177480, Note_off_c, 0, 80, 86
7, 177482, Note_on_c, 0, 81, 97
7, 177600, Note_off_c, 0, 71, 76
7, 177600, Note_off_c, 0, 81, 97
7, 177602, Note_on_c, 0, 81, 99
7, 177602, Note_on_c, 0, 72, 85
7, 177720, Note_off_c, 0, 81, 99
7, 177840, Note_off_c, 0, 72, 85
7, 188162, Note_on_c, 0, 60, 91
7, 188162, Note_on_c, 0, 57, 91
7, 188162, Note_on_c, 0, 69, 93
7, 188162, Note_on_c, 0, 72, 90
7, 188162, Note_on_c, 0, 64, 94
7, 188640, Note_off_c, 0, 60, 91
7, 188640, Note_off_c, 0, 57, 91
7, 188640, Note_off_c, 0, 69, 93
7, 188640, Note_off_c, 0, 72, 90
7, 188640, Note_off_c, 0, 64, 94
7, 188882, Note_on_c, 0, 57, 81
7, 188882, Note_on_c, 0, 72, 82
7, 189120, Note_off_c, 0, 57, 81
7, 189120, Note_off_c, 0, 72, 82
7, 189122, Note_on_c, 0, 57, 78
7, 189122, Note_on_c, 0, 72, 80
7, 189240, Note_off_c, 0, 72, 80
7, 189242, Note_on_c, 0, 69, 73
7, 189360, Note_off_c, 0, 57, 78
7, 189360, Note_off_c, 0, 69, 73
7, 189362, Note_on_c, 0, 64, 85
7, 189362, Note_on_c, 0, 72, 74
7, 189480, Note_off_c, 0, 72, 74
7, 189482, Note_on_c, 0, 76, 73
7, 189600, Note_off_c, 0, 64, 85
7, 189600, Note_off_c, 0, 76, 73
7, 189602, Note_on_c, 0, 76, 72
7, 189720, Note_off_c, 0, 76, 72
7, 189722, Note_on_c, 0, 74, 71
7, 189840, Note_off_c, 0, 74, 71
7, 189842, Note_on_c, 0, 56, 79
7, 189842, Note_on_c, 0, 76, 79
7, 190080, Note_off_c, 0, 56, 79
7, 190080, Note_off_c, 0, 76, 79
7, 190082, Note_on_c, 0, 57, 78
7, 190202, Note_on_c, 0, 69, 82
7, 190320, Note_off_c, 0, 57, 78
7, 190320, Note_off_c, 0, 69, 82
7, 190322, Note_on_c, 0, 45, 71
7, 190322, Note_on_c, 0, 72, 81
7, 190440, Note_off_c, 0, 72, 81
7, 190442, Note_on_c, 0, 76, 80
7, 190560, Note_off_c, 0, 45, 71
7, 190560, Note_off_c, 0, 76, 80
7, 190562, Note_on_c, 0, 76, 80
7, 190680, Note_off_c, 0, 76, 80
7, 190682, Note_on_c, 0, 74, 76
7, 190800, Note_off_c, 0, 74, 76
7, 190802, Note_on_c, 0, 56, 77
7, 190802, Note_on_c, 0, 76, 80
7, 191040, Note_off_c, 0, 56, 77
7, 191040, Note_off_c, 0, 76, 80
7, 191042, Note_on_c, 0, 57, 74
7, 191162, Note_on_c, 0, 69, 80
7, 191280, Note_off_c, 0, 57, 74
7, 191280, Note_off_c, 0, 69, 80
7, 191282, Note_on_c, 0, 45, 68
7, 191282, Note_on_c, 0, 72, 80
7, 191400, Note_off_c, 0, 72, 80
7, 191402, Note_on_c, 0, 76, 78
7, 191520, Note_off_c, 0, 45, 68
7, 191520, Note_off_c, 0, 76, 78
7, 191522, Note_on_c, 0, 76, 79
7, 191640, Note_off_c, 0, 76, 79
7, 191642, Note_on_c, 0, 74, 74
7, 191760, Note_off_c, 0, 74, 74
7, 191762, Note_on_c, 0, 56, 80
7, 191762, Note_on_c, 0, 76, 75
7, 192000, Note_off_c, 0, 56, 80
7, 192000, Note_off_c, 0, 76, 75
7, 192002, Note_on_c, 0, 57, 79
7, 192120, Note_off_c, 0, 57, 79
7, 192122, Note_on_c, 0, 60, 80
7, 192122, Note_on_c, 0, 76, 76
7, 192240, Note_off_c, 0, 60, 80
7, 192240, Note_off_c, 0, 76, 76
7, 192242, Note_on_c, 0, 64, 79
7, 192242, Note_on_c, 0, 76, 78
7, 192360, Note_off_c, 0, 64, 79
7, 192360, Note_off_c, 0, 76, 78
7, 192362, Note_on_c, 0, 69, 75
7, 192362, Note_on_c, 0, 76, 78
7, 192480, Note_off_c, 0, 69, 75
7, 192480, Note_off_c, 0, 76, 78
7, 192482, Note_on_c, 0, 57, 83
7, 192482, Note_on_c, 0, 81, 84
7, 192600, Note_off_c, 0, 57, 83
7, 192600, Note_off_c, 0, 81, 84
7, 192602, Note_on_c, 0, 60, 79
7, 192602, Note_on_c, 0, 76, 77
7, 192720, Note_off_c, 0, 60, 79
7, 192720, Note_off_c, 0, 76, 77
7, 192722, Note_on_c, 0, 64, 73
7, 192722, Note_on_c, 0, 76, 74
7, 192840, Note_off_c, 0, 64, 73
7, 192840, Note_off_c, 0, 76, 74
7, 192842, Note_on_c, 0, 69, 79
7, 192842, Note_on_c, 0, 76, 73
7, 192960, Note_off_c, 0, 69, 79
7, 192960, Note_off_c, 0, 76, 73
7, 192962, Note_on_c, 0, 57, 76
7, 192962, Note_on_c, 0, 81, 81
7, 193080, Note_off_c, 0, 57, 76
7, 193080, Note_off_c, 0, 81, 81
7, 193082, Note_on_c, 0, 60, 73
7, 193082, Note_on_c, 0, 76, 72
7, 193200, Note_off_c, 0, 60, 73
7, 193200, Note_off_c, 0, 76, 72
7, 193202, Note_on_c, 0, 64, 73
7, 193202, Note_on_c, 0, 76, 74
7, 193320, Note_off_c, 0, 64, 73
7, 193320, Note_off_c, 0, 76, 74
7, 193322, Note_on_c, 0, 69, 72
7, 193322, Note_on_c, 0, 76, 70
7, 193440, Note_off_c, 0, 69, 72
7, 193440, Note_off_c, 0, 76, 70
7, 193442, Note_on_c, 0, 57, 80
7, 193442, Note_on_c, 0, 81, 78
7, 193560, Note_off_c, 0, 57, 80
7, 193560, Note_off_c, 0, 81, 78
7, 193562, Note_on_c, 0, 60, 79
7, 193562, Note_on_c, 0, 76, 74
7, 193680, Note_off_c, 0, 60, 79
7, 193680, Note_off_c, 0, 76, 74
7, 193682, Note_on_c, 0, 64, 75
7, 193682, Note_on_c, 0, 76, 68
7, 193800, Note_off_c, 0, 64, 75
7, 193800, Note_off_c, 0, 76, 68
7, 193802, Note_on_c, 0, 69, 75
7, 193802, Note_on_c, 0, 76, 69
7, 193920, Note_off_c, 0, 69, 75
7, 193920, Note_off_c, 0, 76, 69
7, 193922, Note_on_c, 0, 57, 84
7, 193922, Note_on_c, 0, 81, 85
7, 194160, Note_off_c, 0, 57, 84
7, 194160, Note_off_c, 0, 81, 85
7, 194162, Note_on_c, 0, 57, 77
7, 194162, Note_on_c, 0, 60, 80
7, 194162, Note_on_c, 0, 79, 80
7, 194280, Note_off_c, 0, 79, 80
7, 194282, Note_on_c, 0, 77, 81
7, 194400, Note_off_c, 0, 57, 77
7, 194400, Note_off_c, 0, 60, 80
7, 194400, Note_off_c, 0, 77, 81
7, 194402, Note_on_c, 0, 56, 71
7, 194402, Note_on_c, 0, 59, 74
7, 194402, Note_on_c, 0, 76, 80
7, 194640, Note_off_c, 0, 56, 71
7, 194640, Note_off_c, 0, 59, 74
7, 194640, Note_off_c, 0, 76, 80
7, 194642, Note_on_c, 0, 56, 74
7, 194642, Note_on_c, 0, 52, 73
7, 194642, Note_on_c, 0, 74, 81
7, 194880, Note_off_c, 0, 56, 74
7, 194880, Note_off_c, 0, 52, 73
7, 194880, Note_off_c, 0, 74, 81
7, 194882, Note_on_c, 0, 57, 80
7, 194882, Note_on_c, 0, 45, 75
7, 194882, Note_on_c, 0, 72, 88
7, 195120, Note_off_c, 0, 57, 80
7, 195120, Note_off_c, 0, 45, 75
7, 195122, Note_on_c, 0, 65, 82
7, 195122, Note_on_c, 0, 50, 71
7, 195360, Note_off_c, 0, 72, 88
7, 195360, Note_off_c, 0, 65, 82
7, 195360, Note_off_c, 0, 50, 71
7, 195362, Note_on_c, 0, 59, 81
7, 195362, Note_on_c, 0, 52, 79
7, 195362, Note_on_c, 0, 72, 88
7, 195420, Note_off_c, 0, 72, 88
7, 195422, Note_on_c, 0, 71, 79
7, 195480, Note_off_c, 0, 71, 79
7, 195482, Note_on_c, 0, 72, 89
7, 195540, Note_off_c, 0, 72, 89
7, 195542, Note_on_c, 0, 71, 74
7, 195600, Note_off_c, 0, 52, 79
7, 195600, Note_off_c, 0, 71, 74
7, 195602, Note_on_c, 0, 40, 80
7, 195602, Note_on_c, 0, 72, 85
7, 195660, Note_off_c, 0, 72, 85
7, 195662, Note_on_c, 0, 71, 78
7, 195720, Note_off_c, 0, 71, 78
7, 195722, Note_on_c, 0, 72, 83
7, 195780, Note_off_c, 0, 72, 83
7, 195782, Note_on_c, 0, 71, 79
7, 195840, Note_off_c, 0, 59, 81
7, 195840, Note_off_c, 0, 40, 80
7, 195840, Note_off_c, 0, 71, 79
7, 195842, Note_on_c, 0, 45, 77
7, 195842, Note_on_c, 0, 69, 85
7, 195960, Note_off_c, 0, 69, 85
7, 195962, Note_on_c, 0, 60, 79
7, 196080, Note_off_c, 0, 45, 77
7, 196080, Note_off_c, 0, 60, 79
7, 196082, Note_on_c, 0, 52, 81
7, 196082, Note_on_c, 0, 62, 80
7, 196200, Note_off_c, 0, 62, 80
7, 196202, Note_on_c, 0, 60, 76
7, 196320, Note_off_c, 0, 52, 81
7, 196320, Note_off_c, 0, 60, 76
7, 196322, Note_on_c, 0, 48, 80
7, 196322, Note_on_c, 0, 69, 87
7, 196440, Note_off_c, 0, 69, 87
7, 196442, Note_on_c, 0, 60, 76
7, 196560, Note_off_c, 0, 48, 80
7, 196560, Note_off_c, 0, 60, 76
7, 196562, Note_on_c, 0, 45, 75
7, 196562, Note_on_c, 0, 62, 74
7, 196680, Note_off_c, 0, 62, 74
7, 196682, Note_on_c, 0, 60, 76
7, 196800, Note_off_c, 0, 45, 75
7, 196800, Note_off_c, 0, 60, 76
7, 196802, Note_on_c, 0, 69, 83
7, 196920, Note_off_c, 0, 69, 83
7, 196922, Note_on_c, 0, 60, 74
7, 197040, Note_off_c, 0, 60, 74
7, 197042, Note_on_c, 0, 52, 82
7, 197042, Note_on_c, 0, 62, 77
7, 197160, Note_off_c, 0, 62, 77
7, 197162, Note_on_c, 0, 60, 80
7, 197280, Note_off_c, 0, 52, 82
7, 197280, Note_off_c, 0, 60, 80
7, 197282, Note_on_c, 0, 48, 81
7, 197282, Note_on_c, 0, 69, 81
7, 197400, Note_off_c, 0, 69, 81
7, 197402, Note_on_c, 0, 60, 73
7, 197520, Note_off_c, 0, 48, 81
7, 197520, Note_off_c, 0, 60, 73
7, 197522, Note_on_c, 0, 45, 78
7, 197522, Note_on_c, 0, 62, 70
7, 197640, Note_off_c, 0, 62, 70
7, 197642, Note_on_c, 0, 60, 79
7, 197760, Note_off_c, 0, 45, 78
7, 197760, Note_off_c, 0, 60, 79
7, 197762, Note_on_c, 0, 69, 88
7, 198000, Note_off_c, 0, 69, 88
7, 198002, Note_on_c, 0, 57, 80
7, 198002, Note_on_c, 0, 67, 76
7, 198120, Note_off_c, 0, 67, 76
7, 198122, Note_on_c, 0, 65, 80
7, 198240, Note_off_c, 0, 57, 80
7, 198240, Note_off_c, 0, 65, 80
7, 198242, Note_on_c, 0, 56, 80
7, 198242, Note_on_c, 0, 64, 81
7, 198480, Note_off_c, 0, 56, 80
7, 198480, Note_off_c, 0, 64, 81
7, 198482, Note_on_c, 0, 52, 81
7, 198482, Note_on_c, 0, 62, 86
7, 198720, Note_off_c, 0, 52, 81
7, 198720, Note_off_c, 0, 62, 86
7, 198722, Note_on_c, 0, 57, 79
7, 198722, Note_on_c, 0, 60, 87
7, 198960, Note_off_c, 0, 57, 79
7, 198962, Note_on_c, 0, 50, 79
7, 199200, Note_off_c, 0, 60, 87
7, 199200, Note_off_c, 0, 50, 79
7, 199200, Note_on_c, 0, 60, 76
7, 199202, Note_on_c, 0, 52, 85
7, 199228, Note_off_c, 0, 60, 76
7, 199230, Note_on_c, 0, 59, 61
7, 199258, Note_off_c, 0, 59, 61
7, 199260, Note_on_c, 0, 60, 69
7, 199288, Note_off_c, 0, 60, 69
7, 199290, Note_on_c, 0, 59, 59
7, 199318, Note_off_c, 0, 59, 59
7, 199320, Note_on_c, 0, 60, 64
7, 199348, Note_off_c, 0, 60, 64
7, 199350, Note_on_c, 0, 59, 53
7, 199378, Note_off_c, 0, 59, 53
7, 199380, Note_on_c, 0, 60, 63
7, 199408, Note_off_c, 0, 60, 63
7, 199410, Note_on_c, 0, 59, 55
7, 199438, Note_off_c, 0, 59, 55
7, 199440, Note_off_c, 0, 52, 85
7, 199440, Note_on_c, 0, 60, 59
7, 199442, Note_on_c, 0, 40, 86
7, 199468, Note_off_c, 0, 60, 59
7, 199470, Note_on_c, 0, 59, 48
7, 199498, Note_off_c, 0, 59, 48
7, 199500, Note_on_c, 0, 60, 53
7, 199528, Note_off_c, 0, 60, 53
7, 199530, Note_on_c, 0, 59, 54
7, 199558, Note_off_c, 0, 59, 54
7, 199560, Note_on_c, 0, 60, 63
7, 199588, Note_off_c, 0, 60, 63
7, 199590, Note_on_c, 0, 59, 69
7, 199618, Note_off_c, 0, 59, 69
7, 199620, Note_on_c, 0, 60, 73
7, 199648, Note_off_c, 0, 60, 73
7, 199650, Note_on_c, 0, 59, 118
7, 199680, Note_off_c, 0, 40, 86
7, 199680, Note_off_c, 0, 59, 118
7, 199801, Note_on_c, 0, 57, 102
7, 199807, Note_on_c, 0, 45, 82
7, 201600, Note_off_c, 0, 45, 82
7, 201600, Note_off_c, 0, 57, 102
7, 201600, End_track
8, 0, Start_track
8, 0, Title_t, "Cembalo 3"
8, 0, Key_signature, 0, "major"
8, 290, Control_c, 6, 0, 0
8, 295, Control_c, 6, 32, 0
8, 300, Program_c, 6, 6
8, 305, Control_c, 6, 7, 117
8, 310, Control_c, 6, 10, 64
8, 315, Control_c, 6, 91, 127
8, 320, Control_c, 6, 93, 0
8, 325, Control_c, 6, 101, 0
8, 330, Control_c, 6, 100, 0
8, 335, Control_c, 6, 6, 2
8, 11524, Note_on_c, 6, 57, 85
8, 11524, Note_on_c, 6, 52, 90
8, 11524, Note_on_c, 6, 45, 83
8, 11524, Note_on_c, 6, 48, 84
8, 11524, Note_on_c, 6, 69, 82
8, 11524, Note_on_c, 6, 72, 80
8, 11524, Note_on_c, 6, 64, 86
8, 11524, Note_on_c, 6, 76, 81
8, 12002, Note_off_c, 6, 57, 85
8, 12002, Note_off_c, 6, 52, 90
8, 12002, Note_off_c, 6, 45, 83
8, 12002, Note_off_c, 6, 48, 84
8, 12002, Note_off_c, 6, 69, 82
8, 12002, Note_off_c, 6, 72, 80
8, 12002, Note_off_c, 6, 64, 86
8, 12002, Note_off_c, 6, 76, 81
8, 12244, Note_on_c, 6, 57, 79
8, 12244, Note_on_c, 6, 76, 90
8, 12482, Note_off_c, 6, 57, 79
8, 12482, Note_off_c, 6, 76, 90
8, 12484, Note_on_c, 6, 45, 81
8, 12484, Note_on_c, 6, 72, 91
8, 12722, Note_off_c, 6, 45, 81
8, 12722, Note_off_c, 6, 72, 91
8, 12724, Note_on_c, 6, 57, 75
8, 12724, Note_on_c, 6, 69, 89
8, 12962, Note_off_c, 6, 57, 75
8, 12962, Note_off_c, 6, 69, 89
8, 12964, Note_on_c, 6, 56, 78
8, 13202, Note_off_c, 6, 56, 78
8, 13204, Note_on_c, 6, 52, 84
8, 13204, Note_on_c, 6, 76, 89
8, 13440, Note_off_c, 6, 52, 84
8, 13440, Note_off_c, 6, 76, 89
8, 13444, Note_on_c, 6, 72, 93
8, 13682, Note_off_c, 6, 72, 93
8, 13684, Note_on_c, 6, 57, 81
8, 13684, Note_on_c, 6, 69, 85
8, 13922, Note_off_c, 6, 57, 81
8, 13922, Note_off_c, 6, 69, 85
8, 13924, Note_on_c, 6, 56, 76
8, 14162, Note_off_c, 6, 56, 76
8, 14164, Note_on_c, 6, 52, 80
8, 14164, Note_on_c, 6, 76, 89
8, 14402, Note_off_c, 6, 52, 80
8, 14402, Note_off_c, 6, 76, 89
8, 14404, Note_on_c, 6, 72, 87
8, 14642, Note_off_c, 6, 72, 87
8, 14644, Note_on_c, 6, 57, 81
8, 14644, Note_on_c, 6, 69, 84
8, 14882, Note_off_c, 6, 57, 81
8, 14882, Note_off_c, 6, 69, 84
8, 14884, Note_on_c, 6, 56, 75
8, 15122, Note_off_c, 6, 56, 75
8, 15124, Note_on_c, 6, 52, 79
8, 15124, Note_on_c, 6, 76, 91
8, 15360, Note_off_c, 6, 52, 79
8, 15360, Note_off_c, 6, 76, 91
8, 15364, Note_on_c, 6, 45, 80
8, 15364, Note_on_c, 6, 74, 89
8, 15422, Note_off_c, 6, 74, 89
8, 15424, Note_on_c, 6, 72, 88
8, 15482, Note_off_c, 6, 72, 88
8, 15484, Note_on_c, 6, 74, 87
8, 15542, Note_off_c, 6, 74, 87
8, 15544, Note_on_c, 6, 72, 90
8, 15602, Note_off_c, 6, 72, 90
8, 15604, Note_on_c, 6, 69, 82
8, 15722, Note_off_c, 6, 69, 82
8, 15724, Note_on_c, 6, 71, 79
8, 15842, Note_off_c, 6, 45, 80
8, 15842, Note_off_c, 6, 71, 79
8, 15844, Note_on_c, 6, 72, 81
8, 16082, Note_off_c, 6, 72, 81
8, 16084, Note_on_c, 6, 57, 81
8, 16084, Note_on_c, 6, 72, 84
8, 16322, Note_off_c, 6, 57, 81
8, 16322, Note_off_c, 6, 72, 84
8, 16324, Note_on_c, 6, 45, 78
8, 16324, Note_on_c, 6, 74, 89
8, 16382, Note_off_c, 6, 74, 89
8, 16384, Note_on_c, 6, 72, 86
8, 16442, Note_off_c, 6, 72, 86
8, 16444, Note_on_c, 6, 74, 85
8, 16502, Note_off_c, 6, 74, 85
8, 16504, Note_on_c, 6, 72, 80
8, 16562, Note_off_c, 6, 72, 80
8, 16564, Note_on_c, 6, 69, 84
8, 16682, Note_off_c, 6, 69, 84
8, 16684, Note_on_c, 6, 71, 84
8, 16802, Note_off_c, 6, 45, 78
8, 16802, Note_off_c, 6, 71, 84
8, 16804, Note_on_c, 6, 72, 83
8, 17042, Note_off_c, 6, 72, 83
8, 17044, Note_on_c, 6, 57, 79
8, 17044, Note_on_c, 6, 72, 85
8, 17280, Note_off_c, 6, 57, 79
8, 17280, Note_off_c, 6, 72, 85
8, 17284, Note_on_c, 6, 45, 74
8, 17284, Note_on_c, 6, 72, 80
8, 17522, Note_off_c, 6, 45, 74
8, 17522, Note_off_c, 6, 72, 80
8, 17524, Note_on_c, 6, 57, 81
8, 17524, Note_on_c, 6, 72, 82
8, 17642, Note_off_c, 6, 57, 81
8, 17644, Note_on_c, 6, 56, 84
8, 17762, Note_off_c, 6, 72, 82
8, 17762, Note_off_c, 6, 56, 84
8, 17764, Note_on_c, 6, 57, 84
8, 17764, Note_on_c, 6, 72, 95
8, 18002, Note_off_c, 6, 57, 84
8, 18002, Note_off_c, 6, 72, 95
8, 18004, Note_on_c, 6, 45, 76
8, 18004, Note_on_c, 6, 71, 82
8, 18122, Note_off_c, 6, 71, 82
8, 18124, Note_on_c, 6, 69, 83
8, 18242, Note_off_c, 6, 45, 76
8, 18242, Note_off_c, 6, 69, 83
8, 18244, Note_on_c, 6, 52, 76
8, 18244, Note_on_c, 6, 68, 88
8, 18482, Note_off_c, 6, 52, 76
8, 18484, Note_on_c, 6, 54, 69
8, 18722, Note_off_c, 6, 68, 88
8, 18722, Note_off_c, 6, 54, 69
8, 18724, Note_on_c, 6, 56, 72
8, 18844, Note_on_c, 6, 71, 88
8, 18962, Note_off_c, 6, 56, 72
8, 18962, Note_off_c, 6, 71, 88
8, 18964, Note_on_c, 6, 52, 87
8, 18964, Note_on_c, 6, 72, 86
8, 19082, Note_off_c, 6, 72, 86
8, 19084, Note_on_c, 6, 74, 89
8, 19200, Note_off_c, 6, 52, 87
8, 19200, Note_off_c, 6, 74, 89
8, 19204, Note_on_c, 6, 72, 89
8, 19204, Note_on_c, 6, 45, 77
8, 19322, Note_off_c, 6, 72, 89
8, 19324, Note_on_c, 6, 71, 84
8, 19442, Note_off_c, 6, 45, 77
8, 19442, Note_off_c, 6, 71, 84
8, 19444, Note_on_c, 6, 69, 83
8, 19444, Note_on_c, 6, 57, 79
8, 19562, Note_off_c, 6, 69, 83
8, 19564, Note_on_c, 6, 72, 86
8, 19682, Note_off_c, 6, 57, 79
8, 19682, Note_off_c, 6, 72, 86
8, 19684, Note_on_c, 6, 76, 82
8, 19684, Note_on_c, 6, 56, 75
8, 19802, Note_off_c, 6, 76, 82
8, 19804, Note_on_c, 6, 71, 80
8, 19922, Note_off_c, 6, 56, 75
8, 19922, Note_off_c, 6, 71, 80
8, 19924, Note_on_c, 6, 72, 78
8, 19924, Note_on_c, 6, 52, 80
8, 20042, Note_off_c, 6, 72, 78
8, 20044, Note_on_c, 6, 74, 73
8, 20162, Note_off_c, 6, 52, 80
8, 20162, Note_off_c, 6, 74, 73
8, 20164, Note_on_c, 6, 72, 80
8, 20164, Note_on_c, 6, 45, 76
8, 20282, Note_off_c, 6, 72, 80
8, 20284, Note_on_c, 6, 71, 74
8, 20402, Note_off_c, 6, 45, 76
8, 20402, Note_off_c, 6, 71, 74
8, 20404, Note_on_c, 6, 69, 74
8, 20404, Note_on_c, 6, 57, 77
8, 20522, Note_off_c, 6, 69, 74
8, 20524, Note_on_c, 6, 72, 80
8, 20642, Note_off_c, 6, 57, 77
8, 20642, Note_off_c, 6, 72, 80
8, 20644, Note_on_c, 6, 76, 80
8, 20644, Note_on_c, 6, 56, 76
8, 20762, Note_off_c, 6, 76, 80
8, 20764, Note_on_c, 6, 71, 73
8, 20882, Note_off_c, 6, 56, 76
8, 20882, Note_off_c, 6, 71, 73
8, 20884, Note_on_c, 6, 72, 70
8, 20884, Note_on_c, 6, 52, 81
8, 21002, Note_off_c, 6, 72, 70
8, 21004, Note_on_c, 6, 74, 68
8, 21120, Note_off_c, 6, 52, 81
8, 21120, Note_off_c, 6, 74, 68
8, 21124, Note_on_c, 6, 72, 74
8, 21124, Note_on_c, 6, 45, 81
8, 21242, Note_off_c, 6, 72, 74
8, 21244, Note_on_c, 6, 71, 73
8, 21362, Note_off_c, 6, 45, 81
8, 21362, Note_off_c, 6, 71, 73
8, 21364, Note_on_c, 6, 69, 73
8, 21364, Note_on_c, 6, 57, 78
8, 21482, Note_off_c, 6, 69, 73
8, 21484, Note_on_c, 6, 72, 77
8, 21602, Note_off_c, 6, 57, 78
8, 21602, Note_off_c, 6, 72, 77
8, 21604, Note_on_c, 6, 76, 74
8, 21604, Note_on_c, 6, 56, 76
8, 21722, Note_off_c, 6, 76, 74
8, 21724, Note_on_c, 6, 71, 64
8, 21842, Note_off_c, 6, 56, 76
8, 21842, Note_off_c, 6, 71, 64
8, 21844, Note_on_c, 6, 72, 72
8, 21844, Note_on_c, 6, 52, 89
8, 21962, Note_off_c, 6, 72, 72
8, 21964, Note_on_c, 6, 74, 71
8, 22082, Note_off_c, 6, 52, 89
8, 22082, Note_off_c, 6, 74, 71
8, 22084, Note_on_c, 6, 72, 75
8, 22084, Note_on_c, 6, 45, 76
8, 22202, Note_off_c, 6, 72, 75
8, 22204, Note_on_c, 6, 69, 86
8, 22322, Note_off_c, 6, 45, 76
8, 22322, Note_off_c, 6, 69, 86
8, 22324, Note_on_c, 6, 57, 87
8, 22324, Note_on_c, 6, 72, 87
8, 22442, Note_off_c, 6, 72, 87
8, 22444, Note_on_c, 6, 76, 85
8, 22562, Note_off_c, 6, 57, 87
8, 22562, Note_off_c, 6, 76, 85
8, 22564, Note_on_c, 6, 60, 90
8, 22564, Note_on_c, 6, 81, 88
8, 22682, Note_off_c, 6, 81, 88
8, 22684, Note_on_c, 6, 69, 87
8, 22802, Note_off_c, 6, 60, 90
8, 22802, Note_off_c, 6, 69, 87
8, 22804, Note_on_c, 6, 57, 90
8, 22804, Note_on_c, 6, 72, 89
8, 22922, Note_off_c, 6, 72, 89
8, 22924, Note_on_c, 6, 76, 89
8, 23040, Note_off_c, 6, 57, 90
8, 23040, Note_off_c, 6, 76, 89
8, 23044, Note_on_c, 6, 45, 90
8, 23044, Note_on_c, 6, 81, 90
8, 23162, Note_off_c, 6, 81, 90
8, 23164, Note_on_c, 6, 69, 90
8, 23282, Note_off_c, 6, 45, 90
8, 23282, Note_off_c, 6, 69, 90
8, 23284, Note_on_c, 6, 57, 84
8, 23284, Note_on_c, 6, 72, 88
8, 23402, Note_off_c, 6, 72, 88
8, 23404, Note_on_c, 6, 76, 86
8, 23522, Note_off_c, 6, 57, 84
8, 23522, Note_off_c, 6, 76, 86
8, 23524, Note_on_c, 6, 60, 86
8, 23524, Note_on_c, 6, 81, 103
8, 23642, Note_off_c, 6, 81, 103
8, 23644, Note_on_c, 6, 69, 87
8, 23762, Note_off_c, 6, 60, 86
8, 23762, Note_off_c, 6, 69, 87
8, 23764, Note_on_c, 6, 57, 90
8, 23764, Note_on_c, 6, 72, 88
8, 23882, Note_off_c, 6, 72, 88
8, 23884, Note_on_c, 6, 76, 88
8, 24002, Note_off_c, 6, 57, 90
8, 24002, Note_off_c, 6, 76, 88
8, 24004, Note_on_c, 6, 45, 85
8, 24004, Note_on_c, 6, 81, 86
8, 24122, Note_off_c, 6, 81, 86
8, 24124, Note_on_c, 6, 76, 93
8, 24242, Note_off_c, 6, 76, 93
8, 24244, Note_on_c, 6, 72, 86
8, 24362, Note_off_c, 6, 72, 86
8, 24364, Note_on_c, 6, 76, 83
8, 24482, Note_off_c, 6, 45, 85
8, 24482, Note_off_c, 6, 76, 83
8, 24484, Note_on_c, 6, 69, 94
8, 24602, Note_off_c, 6, 69, 94
8, 24604, Note_on_c, 6, 64, 103
8, 24604, Note_on_c, 6, 72, 96
8, 24722, Note_off_c, 6, 64, 103
8, 24722, Note_off_c, 6, 72, 96
8, 24724, Note_on_c, 6, 60, 101
8, 24724, Note_on_c, 6, 69, 87
8, 24842, Note_off_c, 6, 60, 101
8, 24842, Note_off_c, 6, 69, 87
8, 24844, Note_on_c, 6, 64, 95
8, 24844, Note_on_c, 6, 72, 95
8, 24960, Note_off_c, 6, 64, 95
8, 24960, Note_off_c, 6, 72, 95
8, 24964, Note_on_c, 6, 57, 96
8, 24964, Note_on_c, 6, 64, 93
8, 25082, Note_off_c, 6, 64, 93
8, 25084, Note_on_c, 6, 69, 91
8, 25202, Note_off_c, 6, 69, 91
8, 25204, Note_on_c, 6, 64, 94
8, 25322, Note_off_c, 6, 64, 94
8, 25324, Note_on_c, 6, 69, 96
8, 25442, Note_off_c, 6, 57, 96
8, 25442, Note_off_c, 6, 69, 96
8, 25444, Note_on_c, 6, 60, 90
8, 25562, Note_off_c, 6, 60, 90
8, 25564, Note_on_c, 6, 52, 88
8, 25564, Note_on_c, 6, 64, 94
8, 25682, Note_off_c, 6, 52, 88
8, 25682, Note_off_c, 6, 64, 94
8, 25684, Note_on_c, 6, 48, 88
8, 25684, Note_on_c, 6, 60, 90
8, 25802, Note_off_c, 6, 48, 88
8, 25802, Note_off_c, 6, 60, 90
8, 25804, Note_on_c, 6, 52, 93
8, 25804, Note_on_c, 6, 64, 93
8, 25922, Note_off_c, 6, 52, 93
8, 25922, Note_off_c, 6, 64, 93
8, 25924, Note_on_c, 6, 45, 98
8, 25924, Note_on_c, 6, 45, 95
8, 25924, Note_on_c, 6, 57, 91
8, 26402, Note_off_c, 6, 45, 98
8, 26402, Note_off_c, 6, 45, 95
8, 26402, Note_off_c, 6, 57, 91
8, 26644, Note_on_c, 6, 69, 83
8, 26880, Note_off_c, 6, 69, 83
8, 26884, Note_on_c, 6, 77, 97
8, 26884, Note_on_c, 6, 45, 79
8, 26912, Note_off_c, 6, 77, 97
8, 26914, Note_on_c, 6, 76, 95
8, 26942, Note_off_c, 6, 76, 95
8, 26944, Note_on_c, 6, 77, 97
8, 26972, Note_off_c, 6, 77, 97
8, 26974, Note_on_c, 6, 76, 96
8, 27002, Note_off_c, 6, 76, 96
8, 27004, Note_on_c, 6, 74, 100
8, 27122, Note_off_c, 6, 45, 79
8, 27122, Note_off_c, 6, 74, 100
8, 27124, Note_on_c, 6, 76, 92
8, 27124, Note_on_c, 6, 57, 81
8, 27362, Note_off_c, 6, 76, 92
8, 27362, Note_off_c, 6, 57, 81
8, 27364, Note_on_c, 6, 56, 79
8, 27484, Note_on_c, 6, 68, 92
8, 27602, Note_off_c, 6, 56, 79
8, 27602, Note_off_c, 6, 68, 92
8, 27604, Note_on_c, 6, 71, 91
8, 27604, Note_on_c, 6, 52, 86
8, 27722, Note_off_c, 6, 71, 91
8, 27724, Note_on_c, 6, 76, 98
8, 27842, Note_off_c, 6, 52, 86
8, 27842, Note_off_c, 6, 76, 98
8, 27844, Note_on_c, 6, 77, 100
8, 27872, Note_off_c, 6, 77, 100
8, 27874, Note_on_c, 6, 76, 96
8, 27902, Note_off_c, 6, 76, 96
8, 27904, Note_on_c, 6, 77, 100
8, 27932, Note_off_c, 6, 77, 100
8, 27934, Note_on_c, 6, 76, 96
8, 27962, Note_off_c, 6, 76, 96
8, 27964, Note_on_c, 6, 74, 94
8, 28082, Note_off_c, 6, 74, 94
8, 28084, Note_on_c, 6, 76, 98
8, 28084, Note_on_c, 6, 57, 79
8, 28322, Note_off_c, 6, 76, 98
8, 28322, Note_off_c, 6, 57, 79
8, 28324, Note_on_c, 6, 56, 75
8, 28444, Note_on_c, 6, 68, 95
8, 28562, Note_off_c, 6, 56, 75
8, 28562, Note_off_c, 6, 68, 95
8, 28564, Note_on_c, 6, 71, 99
8, 28564, Note_on_c, 6, 52, 83
8, 28682, Note_off_c, 6, 71, 99
8, 28684, Note_on_c, 6, 76, 100
8, 28800, Note_off_c, 6, 52, 83
8, 28800, Note_off_c, 6, 76, 100
8, 28804, Note_on_c, 6, 77, 97
8, 28832, Note_off_c, 6, 77, 97
8, 28834, Note_on_c, 6, 76, 95
8, 28862, Note_off_c, 6, 76, 95
8, 28864, Note_on_c, 6, 77, 97
8, 28892, Note_off_c, 6, 77, 97
8, 28894, Note_on_c, 6, 76, 96
8, 28922, Note_off_c, 6, 76, 96
8, 28924, Note_on_c, 6, 74, 100
8, 29042, Note_off_c, 6, 74, 100
8, 29044, Note_on_c, 6, 60, 96
8, 29044, Note_on_c, 6, 76, 92
8, 29282, Note_off_c, 6, 60, 96
8, 29282, Note_off_c, 6, 76, 92
8, 29284, Note_on_c, 6, 59, 95
8, 29404, Note_on_c, 6, 68, 92
8, 29522, Note_off_c, 6, 59, 95
8, 29522, Note_off_c, 6, 68, 92
8, 29524, Note_on_c, 6, 56, 80
8, 29524, Note_on_c, 6, 71, 91
8, 29642, Note_off_c, 6, 71, 91
8, 29644, Note_on_c, 6, 76, 98
8, 29762, Note_off_c, 6, 56, 80
8, 29762, Note_off_c, 6, 76, 98
8, 29764, Note_on_c, 6, 52, 89
8, 29764, Note_on_c, 6, 77, 100
8, 29792, Note_off_c, 6, 77, 100
8, 29794, Note_on_c, 6, 76, 96
8, 29822, Note_off_c, 6, 76, 96
8, 29824, Note_on_c, 6, 77, 100
8, 29852, Note_off_c, 6, 77, 100
8, 29854, Note_on_c, 6, 76, 96
8, 29882, Note_off_c, 6, 76, 96
8, 29884, Note_on_c, 6, 74, 94
8, 30002, Note_off_c, 6, 52, 89
8, 30002, Note_off_c, 6, 74, 94
8, 30004, Note_on_c, 6, 60, 93
8, 30004, Note_on_c, 6, 76, 98
8, 30242, Note_off_c, 6, 60, 93
8, 30242, Note_off_c, 6, 76, 98
8, 30244, Note_on_c, 6, 57, 83
8, 30484, Note_on_c, 6, 76, 97
8, 30720, Note_off_c, 6, 57, 83
8, 30720, Note_off_c, 6, 76, 97
8, 30724, Note_on_c, 6, 81, 101
8, 30964, Note_on_c, 6, 60, 98
8, 31202, Note_off_c, 6, 81, 101
8, 31202, Note_off_c, 6, 60, 98
8, 31204, Note_on_c, 6, 57, 84
8, 31444, Note_on_c, 6, 76, 90
8, 31682, Note_off_c, 6, 57, 84
8, 31682, Note_off_c, 6, 76, 90
8, 31684, Note_on_c, 6, 81, 100
8, 31924, Note_on_c, 6, 60, 98
8, 32162, Note_off_c, 6, 81, 100
8, 32162, Note_off_c, 6, 60, 98
8, 32164, Note_on_c, 6, 57, 80
8, 32284, Note_on_c, 6, 69, 93
8, 32402, Note_off_c, 6, 57, 80
8, 32402, Note_off_c, 6, 69, 93
8, 32404, Note_on_c, 6, 52, 81
8, 32404, Note_on_c, 6, 71, 91
8, 32522, Note_off_c, 6, 71, 91
8, 32524, Note_on_c, 6, 72, 91
8, 32640, Note_off_c, 6, 52, 81
8, 32640, Note_off_c, 6, 72, 91
8, 32644, Note_on_c, 6, 64, 97
8, 32644, Note_on_c, 6, 68, 89
8, 33122, Note_off_c, 6, 64, 97
8, 33122, Note_off_c, 6, 68, 89
8, 41524, Note_on_c, 6, 52, 87
8, 41762, Note_off_c, 6, 52, 87
8, 41764, Note_on_c, 6, 57, 73
8, 41764, Note_on_c, 6, 76, 92
8, 42002, Note_off_c, 6, 57, 73
8, 42004, Note_on_c, 6, 45, 69
8, 42240, Note_off_c, 6, 76, 92
8, 42240, Note_off_c, 6, 45, 69
8, 42244, Note_on_c, 6, 79, 78
8, 42302, Note_off_c, 6, 79, 78
8, 42304, Note_on_c, 6, 77, 74
8, 42362, Note_off_c, 6, 77, 74
8, 42364, Note_on_c, 6, 79, 66
8, 42422, Note_off_c, 6, 79, 66
8, 42424, Note_on_c, 6, 77, 74
8, 42482, Note_off_c, 6, 77, 74
8, 42484, Note_on_c, 6, 57, 76
8, 42484, Note_on_c, 6, 79, 74
8, 42542, Note_off_c, 6, 79, 74
8, 42544, Note_on_c, 6, 77, 69
8, 42602, Note_off_c, 6, 77, 69
8, 42604, Note_on_c, 6, 79, 71
8, 42662, Note_off_c, 6, 79, 71
8, 42664, Note_on_c, 6, 77, 67
8, 42722, Note_off_c, 6, 57, 76
8, 42722, Note_off_c, 6, 77, 67
8, 42724, Note_on_c, 6, 62, 83
8, 42724, Note_on_c, 6, 79, 77
8, 42782, Note_off_c, 6, 79, 77
8, 42784, Note_on_c, 6, 77, 69
8, 42842, Note_off_c, 6, 77, 69
8, 42844, Note_on_c, 6, 79, 74
8, 42902, Note_off_c, 6, 79, 74
8, 42904, Note_on_c, 6, 77, 71
8, 42962, Note_off_c, 6, 62, 83
8, 42962, Note_off_c, 6, 77, 71
8, 42964, Note_on_c, 6, 50, 82
8, 42964, Note_on_c, 6, 79, 76
8, 43022, Note_off_c, 6, 79, 76
8, 43024, Note_on_c, 6, 77, 63
8, 43082, Note_off_c, 6, 77, 63
8, 43084, Note_on_c, 6, 79, 71
8, 43142, Note_off_c, 6, 79, 71
8, 43144, Note_on_c, 6, 77, 68
8, 43202, Note_off_c, 6, 50, 82
8, 43202, Note_off_c, 6, 77, 68
8, 43204, Note_on_c, 6, 79, 80
8, 43262, Note_off_c, 6, 79, 80
8, 43264, Note_on_c, 6, 77, 69
8, 43322, Note_off_c, 6, 77, 69
8, 43324, Note_on_c, 6, 79, 80
8, 43382, Note_off_c, 6, 79, 80
8, 43384, Note_on_c, 6, 77, 73
8, 43442, Note_off_c, 6, 77, 73
8, 43444, Note_on_c, 6, 50, 80
8, 43444, Note_on_c, 6, 79, 79
8, 43502, Note_off_c, 6, 79, 79
8, 43504, Note_on_c, 6, 77, 69
8, 43562, Note_off_c, 6, 77, 69
8, 43564, Note_on_c, 6, 79, 80
8, 43622, Note_off_c, 6, 79, 80
8, 43624, Note_on_c, 6, 77, 63
8, 43682, Note_off_c, 6, 50, 80
8, 43682, Note_off_c, 6, 77, 63
8, 43684, Note_on_c, 6, 55, 86
8, 43684, Note_on_c, 6, 79, 74
8, 43742, Note_off_c, 6, 79, 74
8, 43744, Note_on_c, 6, 77, 67
8, 43802, Note_off_c, 6, 77, 67
8, 43804, Note_on_c, 6, 79, 68
8, 43862, Note_off_c, 6, 79, 68
8, 43864, Note_on_c, 6, 77, 64
8, 43922, Note_off_c, 6, 55, 86
8, 43922, Note_off_c, 6, 77, 64
8, 43924, Note_on_c, 6, 43, 83
8, 43924, Note_on_c, 6, 79, 75
8, 43982, Note_off_c, 6, 79, 75
8, 43984, Note_on_c, 6, 77, 61
8, 44042, Note_off_c, 6, 77, 61
8, 44044, Note_on_c, 6, 79, 68
8, 44102, Note_off_c, 6, 79, 68
8, 44104, Note_on_c, 6, 77, 52
8, 44160, Note_off_c, 6, 43, 83
8, 44160, Note_off_c, 6, 77, 52
8, 44164, Note_on_c, 6, 77, 87
8, 44222, Note_off_c, 6, 77, 87
8, 44224, Note_on_c, 6, 76, 72
8, 44282, Note_off_c, 6, 76, 72
8, 44284, Note_on_c, 6, 77, 76
8, 44342, Note_off_c, 6, 77, 76
8, 44344, Note_on_c, 6, 76, 71
8, 44402, Note_off_c, 6, 76, 71
8, 44404, Note_on_c, 6, 55, 88
8, 44404, Note_on_c, 6, 77, 76
8, 44462, Note_off_c, 6, 77, 76
8, 44464, Note_on_c, 6, 76, 66
8, 44522, Note_off_c, 6, 76, 66
8, 44524, Note_on_c, 6, 77, 74
8, 44582, Note_off_c, 6, 77, 74
8, 44584, Note_on_c, 6, 76, 61
8, 44642, Note_off_c, 6, 55, 88
8, 44642, Note_off_c, 6, 76, 61
8, 44644, Note_on_c, 6, 60, 85
8, 44644, Note_on_c, 6, 77, 77
8, 44702, Note_off_c, 6, 77, 77
8, 44704, Note_on_c, 6, 76, 70
8, 44762, Note_off_c, 6, 76, 70
8, 44764, Note_on_c, 6, 77, 74
8, 44822, Note_off_c, 6, 77, 74
8, 44824, Note_on_c, 6, 76, 58
8, 44882, Note_off_c, 6, 60, 85
8, 44882, Note_off_c, 6, 76, 58
8, 44884, Note_on_c, 6, 48, 83
8, 44884, Note_on_c, 6, 77, 73
8, 44942, Note_off_c, 6, 77, 73
8, 44944, Note_on_c, 6, 76, 54
8, 45002, Note_off_c, 6, 76, 54
8, 45004, Note_on_c, 6, 77, 67
8, 45062, Note_off_c, 6, 77, 67
8, 45064, Note_on_c, 6, 76, 57
8, 45122, Note_off_c, 6, 48, 83
8, 45122, Note_off_c, 6, 76, 57
8, 45124, Note_on_c, 6, 77, 69
8, 45182, Note_off_c, 6, 77, 69
8, 45184, Note_on_c, 6, 76, 65
8, 45242, Note_off_c, 6, 76, 65
8, 45244, Note_on_c, 6, 77, 70
8, 45302, Note_off_c, 6, 77, 70
8, 45304, Note_on_c, 6, 76, 64
8, 45362, Note_off_c, 6, 76, 64
8, 45364, Note_on_c, 6, 48, 77
8, 45364, Note_on_c, 6, 77, 72
8, 45422, Note_off_c, 6, 77, 72
8, 45424, Note_on_c, 6, 76, 65
8, 45482, Note_off_c, 6, 76, 65
8, 45484, Note_on_c, 6, 77, 71
8, 45542, Note_off_c, 6, 77, 71
8, 45544, Note_on_c, 6, 76, 64
8, 45602, Note_off_c, 6, 48, 77
8, 45602, Note_off_c, 6, 76, 64
8, 45604, Note_on_c, 6, 53, 82
8, 45604, Note_on_c, 6, 77, 67
8, 45662, Note_off_c, 6, 77, 67
8, 45664, Note_on_c, 6, 76, 61
8, 45722, Note_off_c, 6, 76, 61
8, 45724, Note_on_c, 6, 77, 74
8, 45782, Note_off_c, 6, 77, 74
8, 45784, Note_on_c, 6, 76, 61
8, 45842, Note_off_c, 6, 53, 82
8, 45842, Note_off_c, 6, 76, 61
8, 45844, Note_on_c, 6, 41, 74
8, 45844, Note_on_c, 6, 77, 75
8, 45902, Note_off_c, 6, 77, 75
8, 45904, Note_on_c, 6, 76, 58
8, 45962, Note_off_c, 6, 76, 58
8, 45964, Note_on_c, 6, 77, 72
8, 46022, Note_off_c, 6, 77, 72
8, 46024, Note_on_c, 6, 76, 55
8, 46080, Note_off_c, 6, 41, 74
8, 46080, Note_off_c, 6, 76, 55
8, 46084, Note_on_c, 6, 76, 86
8, 46142, Note_off_c, 6, 76, 86
8, 46144, Note_on_c, 6, 74, 74
8, 46202, Note_off_c, 6, 74, 74
8, 46204, Note_on_c, 6, 76, 80
8, 46262, Note_off_c, 6, 76, 80
8, 46264, Note_on_c, 6, 74, 74
8, 46322, Note_off_c, 6, 74, 74
8, 46324, Note_on_c, 6, 53, 81
8, 46324, Note_on_c, 6, 76, 78
8, 46382, Note_off_c, 6, 76, 78
8, 46384, Note_on_c, 6, 74, 75
8, 46442, Note_off_c, 6, 74, 75
8, 46444, Note_on_c, 6, 76, 83
8, 46502, Note_off_c, 6, 76, 83
8, 46504, Note_on_c, 6, 74, 68
8, 46562, Note_off_c, 6, 53, 81
8, 46562, Note_off_c, 6, 74, 68
8, 46564, Note_on_c, 6, 47, 83
8, 46564, Note_on_c, 6, 76, 77
8, 46622, Note_off_c, 6, 76, 77
8, 46624, Note_on_c, 6, 74, 63
8, 46682, Note_off_c, 6, 74, 63
8, 46684, Note_on_c, 6, 76, 79
8, 46742, Note_off_c, 6, 76, 79
8, 46744, Note_on_c, 6, 74, 70
8, 46802, Note_off_c, 6, 47, 83
8, 46802, Note_off_c, 6, 74, 70
8, 46804, Note_on_c, 6, 59, 82
8, 46804, Note_on_c, 6, 76, 74
8, 46862, Note_off_c, 6, 76, 74
8, 46864, Note_on_c, 6, 74, 64
8, 46922, Note_off_c, 6, 74, 64
8, 46924, Note_on_c, 6, 76, 75
8, 46982, Note_off_c, 6, 76, 75
8, 46984, Note_on_c, 6, 74, 68
8, 47042, Note_off_c, 6, 59, 82
8, 47042, Note_off_c, 6, 74, 68
8, 47044, Note_on_c, 6, 76, 76
8, 47102, Note_off_c, 6, 76, 76
8, 47104, Note_on_c, 6, 74, 69
8, 47162, Note_off_c, 6, 74, 69
8, 47164, Note_on_c, 6, 76, 78
8, 47222, Note_off_c, 6, 76, 78
8, 47224, Note_on_c, 6, 74, 70
8, 47282, Note_off_c, 6, 74, 70
8, 47284, Note_on_c, 6, 47, 80
8, 47284, Note_on_c, 6, 76, 77
8, 47342, Note_off_c, 6, 76, 77
8, 47344, Note_on_c, 6, 74, 69
8, 47402, Note_off_c, 6, 74, 69
8, 47404, Note_on_c, 6, 76, 72
8, 47462, Note_off_c, 6, 76, 72
8, 47464, Note_on_c, 6, 74, 67
8, 47522, Note_off_c, 6, 47, 80
8, 47522, Note_off_c, 6, 74, 67
8, 47524, Note_on_c, 6, 52, 84
8, 47524, Note_on_c, 6, 76, 71
8, 47582, Note_off_c, 6, 76, 71
8, 47584, Note_on_c, 6, 74, 64
8, 47642, Note_off_c, 6, 74, 64
8, 47644, Note_on_c, 6, 76, 67
8, 47702, Note_off_c, 6, 76, 67
8, 47704, Note_on_c, 6, 74, 63
8, 47762, Note_off_c, 6, 52, 84
8, 47762, Note_off_c, 6, 74, 63
8, 47764, Note_on_c, 6, 40, 79
8, 47764, Note_on_c, 6, 76, 70
8, 47822, Note_off_c, 6, 76, 70
8, 47824, Note_on_c, 6, 74, 63
8, 47882, Note_off_c, 6, 74, 63
8, 47884, Note_on_c, 6, 76, 79
8, 47942, Note_off_c, 6, 76, 79
8, 47944, Note_on_c, 6, 74, 75
8, 48000, Note_off_c, 6, 40, 79
8, 48000, Note_off_c, 6, 74, 75
8, 48004, Note_on_c, 6, 45, 86
8, 48004, Note_on_c, 6, 72, 90
8, 48122, Note_off_c, 6, 45, 86
8, 48124, Note_on_c, 6, 52, 76
8, 48242, Note_off_c, 6, 52, 76
8, 48244, Note_on_c, 6, 54, 76
8, 48362, Note_off_c, 6, 54, 76
8, 48364, Note_on_c, 6, 56, 72
8, 48482, Note_off_c, 6, 72, 90
8, 48482, Note_off_c, 6, 56, 72
8, 48484, Note_on_c, 6, 57, 79
8, 48604, Note_on_c, 6, 76, 80
8, 48722, Note_off_c, 6, 57, 79
8, 48722, Note_off_c, 6, 76, 80
8, 48724, Note_on_c, 6, 45, 80
8, 48724, Note_on_c, 6, 76, 80
8, 48842, Note_off_c, 6, 45, 80
8, 48842, Note_off_c, 6, 76, 80
8, 48844, Note_on_c, 6, 76, 78
8, 48962, Note_off_c, 6, 76, 78
8, 48964, Note_on_c, 6, 52, 76
8, 48964, Note_on_c, 6, 76, 81
8, 49082, Note_off_c, 6, 76, 81
8, 49084, Note_on_c, 6, 76, 77
8, 49202, Note_off_c, 6, 52, 76
8, 49202, Note_off_c, 6, 76, 77
8, 49204, Note_on_c, 6, 64, 82
8, 49204, Note_on_c, 6, 76, 73
8, 49322, Note_off_c, 6, 76, 73
8, 49324, Note_on_c, 6, 76, 73
8, 49442, Note_off_c, 6, 64, 82
8, 49442, Note_off_c, 6, 76, 73
8, 49444, Note_on_c, 6, 76, 80
8, 49562, Note_off_c, 6, 76, 80
8, 49564, Note_on_c, 6, 57, 72
8, 49564, Note_on_c, 6, 76, 74
8, 49682, Note_off_c, 6, 57, 72
8, 49682, Note_off_c, 6, 76, 74
8, 49684, Note_on_c, 6, 60, 75
8, 49684, Note_on_c, 6, 76, 75
8, 49802, Note_off_c, 6, 60, 75
8, 49802, Note_off_c, 6, 76, 75
8, 49804, Note_on_c, 6, 64, 81
8, 49804, Note_on_c, 6, 76, 74
8, 49920, Note_off_c, 6, 64, 81
8, 49920, Note_off_c, 6, 76, 74
8, 49924, Note_on_c, 6, 52, 82
8, 49924, Note_on_c, 6, 76, 81
8, 50042, Note_off_c, 6, 76, 81
8, 50044, Note_on_c, 6, 76, 81
8, 50162, Note_off_c, 6, 52, 82
8, 50162, Note_off_c, 6, 76, 81
8, 50164, Note_on_c, 6, 64, 81
8, 50164, Note_on_c, 6, 76, 81
8, 50282, Note_off_c, 6, 76, 81
8, 50284, Note_on_c, 6, 76, 80
8, 50402, Note_off_c, 6, 64, 81
8, 50402, Note_off_c, 6, 76, 80
8, 50404, Note_on_c, 6, 76, 85
8, 50522, Note_off_c, 6, 76, 85
8, 50524, Note_on_c, 6, 57, 75
8, 50524, Note_on_c, 6, 76, 80
8, 50642, Note_off_c, 6, 57, 75
8, 50642, Note_off_c, 6, 76, 80
8, 50644, Note_on_c, 6, 60, 80
8, 50644, Note_on_c, 6, 76, 79
8, 50762, Note_off_c, 6, 60, 80
8, 50762, Note_off_c, 6, 76, 79
8, 50764, Note_on_c, 6, 64, 76
8, 50764, Note_on_c, 6, 76, 73
8, 50882, Note_off_c, 6, 64, 76
8, 50882, Note_off_c, 6, 76, 73
8, 50884, Note_on_c, 6, 52, 83
8, 50884, Note_on_c, 6, 76, 76
8, 51002, Note_off_c, 6, 76, 76
8, 51004, Note_on_c, 6, 76, 69
8, 51122, Note_off_c, 6, 52, 83
8, 51122, Note_off_c, 6, 76, 69
8, 51124, Note_on_c, 6, 64, 82
8, 51124, Note_on_c, 6, 76, 76
8, 51242, Note_off_c, 6, 76, 76
8, 51244, Note_on_c, 6, 76, 78
8, 51362, Note_off_c, 6, 64, 82
8, 51362, Note_off_c, 6, 76, 78
8, 51364, Note_on_c, 6, 76, 76
8, 51482, Note_off_c, 6, 76, 76
8, 51484, Note_on_c, 6, 57, 76
8, 51484, Note_on_c, 6, 76, 80
8, 51602, Note_off_c, 6, 57, 76
8, 51602, Note_off_c, 6, 76, 80
8, 51604, Note_on_c, 6, 60, 80
8, 51604, Note_on_c, 6, 76, 82
8, 51722, Note_off_c, 6, 60, 80
8, 51722, Note_off_c, 6, 76, 82
8, 51724, Note_on_c, 6, 64, 79
8, 51724, Note_on_c, 6, 76, 84
8, 51840, Note_off_c, 6, 64, 79
8, 51840, Note_off_c, 6, 76, 84
8, 51844, Note_on_c, 6, 60, 87
8, 51844, Note_on_c, 6, 81, 89
8, 51962, Note_off_c, 6, 60, 87
8, 51962, Note_off_c, 6, 81, 89
8, 51964, Note_on_c, 6, 64, 85
8, 51964, Note_on_c, 6, 76, 76
8, 52082, Note_off_c, 6, 64, 85
8, 52082, Note_off_c, 6, 76, 76
8, 52084, Note_on_c, 6, 69, 82
8, 52084, Note_on_c, 6, 76, 71
8, 52202, Note_off_c, 6, 69, 82
8, 52202, Note_off_c, 6, 76, 71
8, 52204, Note_on_c, 6, 57, 74
8, 52204, Note_on_c, 6, 76, 76
8, 52322, Note_off_c, 6, 57, 74
8, 52322, Note_off_c, 6, 76, 76
8, 52324, Note_on_c, 6, 60, 81
8, 52324, Note_on_c, 6, 81, 90
8, 52442, Note_off_c, 6, 60, 81
8, 52442, Note_off_c, 6, 81, 90
8, 52444, Note_on_c, 6, 64, 78
8, 52444, Note_on_c, 6, 76, 76
8, 52562, Note_off_c, 6, 64, 78
8, 52562, Note_off_c, 6, 76, 76
8, 52564, Note_on_c, 6, 69, 80
8, 52564, Note_on_c, 6, 76, 64
8, 52682, Note_off_c, 6, 69, 80
8, 52682, Note_off_c, 6, 76, 64
8, 52684, Note_on_c, 6, 57, 81
8, 52684, Note_on_c, 6, 76, 67
8, 52802, Note_off_c, 6, 57, 81
8, 52802, Note_off_c, 6, 76, 67
8, 52804, Note_on_c, 6, 60, 83
8, 52804, Note_on_c, 6, 81, 92
8, 52922, Note_off_c, 6, 60, 83
8, 52922, Note_off_c, 6, 81, 92
8, 52924, Note_on_c, 6, 64, 80
8, 52924, Note_on_c, 6, 76, 80
8, 53042, Note_off_c, 6, 64, 80
8, 53042, Note_off_c, 6, 76, 80
8, 53044, Note_on_c, 6, 69, 80
8, 53044, Note_on_c, 6, 76, 73
8, 53162, Note_off_c, 6, 69, 80
8, 53162, Note_off_c, 6, 76, 73
8, 53164, Note_on_c, 6, 57, 77
8, 53164, Note_on_c, 6, 76, 72
8, 53282, Note_off_c, 6, 57, 77
8, 53282, Note_off_c, 6, 76, 72
8, 53284, Note_on_c, 6, 60, 80
8, 53284, Note_on_c, 6, 81, 93
8, 53402, Note_off_c, 6, 60, 80
8, 53402, Note_off_c, 6, 81, 93
8, 53404, Note_on_c, 6, 64, 80
8, 53404, Note_on_c, 6, 76, 78
8, 53522, Note_off_c, 6, 64, 80
8, 53522, Note_off_c, 6, 76, 78
8, 53524, Note_on_c, 6, 69, 75
8, 53524, Note_on_c, 6, 76, 70
8, 53642, Note_off_c, 6, 69, 75
8, 53642, Note_off_c, 6, 76, 70
8, 53644, Note_on_c, 6, 57, 76
8, 53644, Note_on_c, 6, 76, 74
8, 53760, Note_off_c, 6, 57, 76
8, 53760, Note_off_c, 6, 76, 74
8, 53764, Note_on_c, 6, 60, 82
8, 53764, Note_on_c, 6, 81, 87
8, 53882, Note_off_c, 6, 60, 82
8, 53884, Note_on_c, 6, 64, 79
8, 54002, Note_off_c, 6, 81, 87
8, 54002, Note_off_c, 6, 64, 79
8, 54004, Note_on_c, 6, 69, 82
8, 54004, Note_on_c, 6, 79, 79
8, 54122, Note_off_c, 6, 79, 79
8, 54124, Note_on_c, 6, 77, 75
8, 54242, Note_off_c, 6, 69, 82
8, 54242, Note_off_c, 6, 77, 75
8, 54244, Note_on_c, 6, 76, 84
8, 54364, Note_on_c, 6, 57, 84
8, 54482, Note_off_c, 6, 76, 84
8, 54482, Note_off_c, 6, 57, 84
8, 54484, Note_on_c, 6, 59, 82
8, 54484, Note_on_c, 6, 74, 76
8, 54602, Note_off_c, 6, 59, 82
8, 54604, Note_on_c, 6, 56, 80
8, 54722, Note_off_c, 6, 74, 76
8, 54722, Note_off_c, 6, 56, 80
8, 54724, Note_on_c, 6, 57, 85
8, 54724, Note_on_c, 6, 72, 81
8, 54842, Note_off_c, 6, 57, 85
8, 54844, Note_on_c, 6, 59, 80
8, 54962, Note_off_c, 6, 72, 81
8, 54962, Note_off_c, 6, 59, 80
8, 54964, Note_on_c, 6, 60, 82
8, 54964, Note_on_c, 6, 69, 86
8, 55082, Note_off_c, 6, 60, 82
8, 55084, Note_on_c, 6, 57, 81
8, 55202, Note_off_c, 6, 57, 81
8, 55204, Note_on_c, 6, 52, 83
8, 55322, Note_off_c, 6, 52, 83
8, 55324, Note_on_c, 6, 59, 77
8, 55442, Note_off_c, 6, 69, 86
8, 55442, Note_off_c, 6, 59, 77
8, 55444, Note_on_c, 6, 64, 86
8, 55444, Note_on_c, 6, 68, 80
8, 55562, Note_off_c, 6, 64, 86
8, 55564, Note_on_c, 6, 59, 82
8, 55680, Note_off_c, 6, 68, 80
8, 55680, Note_off_c, 6, 59, 82
8, 55684, Note_on_c, 6, 60, 85
8, 55684, Note_on_c, 6, 69, 85
8, 56162, Note_off_c, 6, 60, 85
8, 56162, Note_off_c, 6, 69, 85
8, 56404, Note_on_c, 6, 64, 87
8, 56642, Note_off_c, 6, 64, 87
8, 56644, Note_on_c, 6, 57, 81
8, 56882, Note_off_c, 6, 57, 81
8, 56884, Note_on_c, 6, 60, 87
8, 57122, Note_off_c, 6, 60, 87
8, 57124, Note_on_c, 6, 52, 77
8, 57362, Note_off_c, 6, 52, 77
8, 57364, Note_on_c, 6, 57, 82
8, 57600, Note_off_c, 6, 57, 82
8, 57604, Note_on_c, 6, 48, 76
8, 57842, Note_off_c, 6, 48, 76
8, 57844, Note_on_c, 6, 52, 83
8, 58082, Note_off_c, 6, 52, 83
8, 58084, Note_on_c, 6, 45, 84
8, 58562, Note_off_c, 6, 45, 84
8, 58804, Note_on_c, 6, 84, 94
8, 59042, Note_off_c, 6, 84, 94
8, 59044, Note_on_c, 6, 76, 80
8, 59282, Note_off_c, 6, 76, 80
8, 59284, Note_on_c, 6, 81, 85
8, 59520, Note_off_c, 6, 81, 85
8, 59524, Note_on_c, 6, 72, 79
8, 59762, Note_off_c, 6, 72, 79
8, 59764, Note_on_c, 6, 76, 83
8, 60002, Note_off_c, 6, 76, 83
8, 60004, Note_on_c, 6, 69, 76
8, 60242, Note_off_c, 6, 69, 76
8, 60244, Note_on_c, 6, 72, 78
8, 60482, Note_off_c, 6, 72, 78
8, 60484, Note_on_c, 6, 64, 76
8, 60722, Note_off_c, 6, 64, 76
8, 60724, Note_on_c, 6, 69, 80
8, 60962, Note_off_c, 6, 69, 80
8, 60964, Note_on_c, 6, 60, 80
8, 61202, Note_off_c, 6, 60, 80
8, 61204, Note_on_c, 6, 64, 84
8, 61440, Note_off_c, 6, 64, 84
8, 61444, Note_on_c, 6, 57, 87
8, 61922, Note_off_c, 6, 57, 87
8, 72964, Note_on_c, 6, 71, 88
8, 72964, Note_on_c, 6, 67, 91
8, 72964, Note_on_c, 6, 74, 86
8, 72964, Note_on_c, 6, 55, 92
8, 72964, Note_on_c, 6, 79, 90
8, 73202, Note_off_c, 6, 55, 92
8, 73204, Note_on_c, 6, 43, 76
8, 73322, Note_off_c, 6, 43, 76
8, 73324, Note_on_c, 6, 45, 76
8, 73442, Note_off_c, 6, 71, 88
8, 73442, Note_off_c, 6, 67, 91
8, 73442, Note_off_c, 6, 74, 86
8, 73442, Note_off_c, 6, 79, 90
8, 73442, Note_off_c, 6, 45, 76
8, 73444, Note_on_c, 6, 47, 73
8, 73682, Note_off_c, 6, 47, 73
8, 73684, Note_on_c, 6, 43, 74
8, 73684, Note_on_c, 6, 79, 83
8, 73922, Note_off_c, 6, 43, 74
8, 73922, Note_off_c, 6, 79, 83
8, 73924, Note_on_c, 6, 48, 77
8, 73924, Note_on_c, 6, 79, 87
8, 74162, Note_off_c, 6, 48, 77
8, 74162, Note_off_c, 6, 79, 87
8, 74164, Note_on_c, 6, 60, 83
8, 74164, Note_on_c, 6, 79, 84
8, 74402, Note_off_c, 6, 60, 83
8, 74402, Note_off_c, 6, 79, 84
8, 74404, Note_on_c, 6, 59, 77
8, 74404, Note_on_c, 6, 79, 81
8, 74642, Note_off_c, 6, 59, 77
8, 74642, Note_off_c, 6, 79, 81
8, 74644, Note_on_c, 6, 55, 84
8, 74644, Note_on_c, 6, 79, 76
8, 74880, Note_off_c, 6, 55, 84
8, 74880, Note_off_c, 6, 79, 76
8, 74884, Note_on_c, 6, 84, 92
8, 75122, Note_off_c, 6, 84, 92
8, 75124, Note_on_c, 6, 60, 81
8, 75124, Note_on_c, 6, 79, 71
8, 75362, Note_off_c, 6, 60, 81
8, 75362, Note_off_c, 6, 79, 71
8, 75364, Note_on_c, 6, 59, 83
8, 75364, Note_on_c, 6, 79, 80
8, 75602, Note_off_c, 6, 59, 83
8, 75602, Note_off_c, 6, 79, 80
8, 75604, Note_on_c, 6, 55, 86
8, 75604, Note_on_c, 6, 79, 80
8, 75842, Note_off_c, 6, 55, 86
8, 75842, Note_off_c, 6, 79, 80
8, 75844, Note_on_c, 6, 84, 93
8, 76082, Note_off_c, 6, 84, 93
8, 76084, Note_on_c, 6, 60, 87
8, 76084, Note_on_c, 6, 79, 86
8, 76322, Note_off_c, 6, 60, 87
8, 76322, Note_off_c, 6, 79, 86
8, 76324, Note_on_c, 6, 59, 81
8, 76324, Note_on_c, 6, 79, 85
8, 76562, Note_off_c, 6, 59, 81
8, 76562, Note_off_c, 6, 79, 85
8, 76564, Note_on_c, 6, 55, 81
8, 76564, Note_on_c, 6, 79, 88
8, 76800, Note_off_c, 6, 55, 81
8, 76800, Note_off_c, 6, 79, 88
8, 76804, Note_on_c, 6, 48, 83
8, 76804, Note_on_c, 6, 81, 83
8, 76862, Note_off_c, 6, 81, 83
8, 76864, Note_on_c, 6, 79, 86
8, 76922, Note_off_c, 6, 79, 86
8, 76924, Note_on_c, 6, 81, 82
8, 76982, Note_off_c, 6, 81, 82
8, 76984, Note_on_c, 6, 79, 69
8, 77042, Note_off_c, 6, 79, 69
8, 77044, Note_on_c, 6, 76, 76
8, 77162, Note_off_c, 6, 76, 76
8, 77164, Note_on_c, 6, 77, 76
8, 77282, Note_off_c, 6, 48, 83
8, 77282, Note_off_c, 6, 77, 76
8, 77284, Note_on_c, 6, 79, 82
8, 77522, Note_off_c, 6, 79, 82
8, 77524, Note_on_c, 6, 79, 83
8, 77762, Note_off_c, 6, 79, 83
8, 77764, Note_on_c, 6, 48, 87
8, 77764, Note_on_c, 6, 81, 92
8, 77822, Note_off_c, 6, 81, 92
8, 77824, Note_on_c, 6, 79, 76
8, 77882, Note_off_c, 6, 79, 76
8, 77884, Note_on_c, 6, 81, 89
8, 77942, Note_off_c, 6, 81, 89
8, 77944, Note_on_c, 6, 79, 86
8, 78002, Note_off_c, 6, 79, 86
8, 78004, Note_on_c, 6, 76, 77
8, 78122, Note_off_c, 6, 76, 77
8, 78124, Note_on_c, 6, 77, 82
8, 78242, Note_off_c, 6, 48, 87
8, 78242, Note_off_c, 6, 77, 82
8, 78244, Note_on_c, 6, 79, 85
8, 78482, Note_off_c, 6, 79, 85
8, 78484, Note_on_c, 6, 79, 89
8, 78720, Note_off_c, 6, 79, 89
8, 78724, Note_on_c, 6, 48, 76
8, 78724, Note_on_c, 6, 79, 89
8, 78962, Note_off_c, 6, 48, 76
8, 78962, Note_off_c, 6, 79, 89
8, 78964, Note_on_c, 6, 60, 80
8, 78964, Note_on_c, 6, 79, 83
8, 79082, Note_off_c, 6, 60, 80
8, 79084, Note_on_c, 6, 59, 80
8, 79202, Note_off_c, 6, 79, 83
8, 79202, Note_off_c, 6, 59, 80
8, 79204, Note_on_c, 6, 60, 82
8, 79204, Note_on_c, 6, 81, 85
8, 79262, Note_off_c, 6, 81, 85
8, 79264, Note_on_c, 6, 79, 82
8, 79322, Note_off_c, 6, 79, 82
8, 79324, Note_on_c, 6, 81, 81
8, 79382, Note_off_c, 6, 81, 81
8, 79384, Note_on_c, 6, 79, 83
8, 79442, Note_off_c, 6, 60, 82
8, 79442, Note_off_c, 6, 79, 83
8, 79444, Note_on_c, 6, 48, 79
8, 79444, Note_on_c, 6, 77, 83
8, 79562, Note_off_c, 6, 77, 83
8, 79564, Note_on_c, 6, 76, 75
8, 79682, Note_off_c, 6, 48, 79
8, 79682, Note_off_c, 6, 76, 75
8, 79684, Note_on_c, 6, 55, 103
8, 79684, Note_on_c, 6, 74, 86
8, 79922, Note_off_c, 6, 74, 86
8, 79924, Note_on_c, 6, 67, 74
8, 80162, Note_off_c, 6, 55, 103
8, 80162, Note_off_c, 6, 67, 74
8, 92164, Note_on_c, 6, 60, 64
8, 92164, Note_on_c, 6, 76, 81
8, 92282, Note_off_c, 6, 76, 81
8, 92284, Note_on_c, 6, 74, 77
8, 92402, Note_off_c, 6, 60, 64
8, 92402, Note_off_c, 6, 74, 77
8, 92404, Note_on_c, 6, 60, 62
8, 92404, Note_on_c, 6, 76, 78
8, 92522, Note_off_c, 6, 76, 78
8, 92524, Note_on_c, 6, 74, 79
8, 92642, Note_off_c, 6, 60, 62
8, 92642, Note_off_c, 6, 74, 79
8, 92644, Note_on_c, 6, 62, 74
8, 92644, Note_on_c, 6, 72, 72
8, 92762, Note_off_c, 6, 72, 72
8, 92764, Note_on_c, 6, 76, 76
8, 92882, Note_off_c, 6, 62, 74
8, 92882, Note_off_c, 6, 76, 76
8, 92884, Note_on_c, 6, 62, 64
8, 92884, Note_on_c, 6, 74, 74
8, 93002, Note_off_c, 6, 74, 74
8, 93004, Note_on_c, 6, 72, 71
8, 93122, Note_off_c, 6, 62, 64
8, 93122, Note_off_c, 6, 72, 71
8, 93124, Note_on_c, 6, 64, 68
8, 93124, Note_on_c, 6, 71, 77
8, 93242, Note_off_c, 6, 71, 77
8, 93244, Note_on_c, 6, 72, 74
8, 93362, Note_off_c, 6, 64, 68
8, 93362, Note_off_c, 6, 72, 74
8, 93364, Note_on_c, 6, 64, 65
8, 93364, Note_on_c, 6, 74, 68
8, 93482, Note_off_c, 6, 74, 68
8, 93484, Note_on_c, 6, 72, 66
8, 93602, Note_off_c, 6, 64, 65
8, 93602, Note_off_c, 6, 72, 66
8, 93604, Note_on_c, 6, 64, 65
8, 93604, Note_on_c, 6, 71, 75
8, 93722, Note_off_c, 6, 71, 75
8, 93724, Note_on_c, 6, 74, 76
8, 93842, Note_off_c, 6, 64, 65
8, 93842, Note_off_c, 6, 74, 76
8, 93844, Note_on_c, 6, 64, 60
8, 93844, Note_on_c, 6, 72, 67
8, 93962, Note_off_c, 6, 72, 67
8, 93964, Note_on_c, 6, 71, 65
8, 94080, Note_off_c, 6, 64, 60
8, 94080, Note_off_c, 6, 71, 65
8, 94084, Note_on_c, 6, 64, 70
8, 94084, Note_on_c, 6, 72, 78
8, 94202, Note_off_c, 6, 72, 78
8, 94204, Note_on_c, 6, 74, 69
8, 94322, Note_off_c, 6, 64, 70
8, 94322, Note_off_c, 6, 74, 69
8, 94324, Note_on_c, 6, 64, 60
8, 94324, Note_on_c, 6, 76, 73
8, 94442, Note_off_c, 6, 76, 73
8, 94444, Note_on_c, 6, 74, 74
8, 94562, Note_off_c, 6, 64, 60
8, 94562, Note_off_c, 6, 74, 74
8, 94564, Note_on_c, 6, 64, 61
8, 94564, Note_on_c, 6, 72, 80
8, 94682, Note_off_c, 6, 72, 80
8, 94684, Note_on_c, 6, 76, 79
8, 94802, Note_off_c, 6, 64, 61
8, 94802, Note_off_c, 6, 76, 79
8, 94804, Note_on_c, 6, 64, 55
8, 94804, Note_on_c, 6, 74, 80
8, 94922, Note_off_c, 6, 74, 80
8, 94924, Note_on_c, 6, 72, 75
8, 95042, Note_off_c, 6, 64, 55
8, 95042, Note_off_c, 6, 72, 75
8, 95044, Note_on_c, 6, 64, 66
8, 95044, Note_on_c, 6, 71, 80
8, 95162, Note_off_c, 6, 71, 80
8, 95164, Note_on_c, 6, 72, 77
8, 95282, Note_off_c, 6, 64, 66
8, 95282, Note_off_c, 6, 72, 77
8, 95284, Note_on_c, 6, 64, 61
8, 95284, Note_on_c, 6, 74, 76
8, 95402, Note_off_c, 6, 74, 76
8, 95404, Note_on_c, 6, 72, 74
8, 95522, Note_off_c, 6, 64, 61
8, 95522, Note_off_c, 6, 72, 74
8, 95524, Note_on_c, 6, 64, 62
8, 95524, Note_on_c, 6, 71, 76
8, 95642, Note_off_c, 6, 71, 76
8, 95644, Note_on_c, 6, 74, 79
8, 95762, Note_off_c, 6, 64, 62
8, 95762, Note_off_c, 6, 74, 79
8, 95764, Note_on_c, 6, 64, 57
8, 95764, Note_on_c, 6, 72, 76
8, 95882, Note_off_c, 6, 72, 76
8, 95884, Note_on_c, 6, 71, 74
8, 96000, Note_off_c, 6, 64, 57
8, 96000, Note_off_c, 6, 71, 74
8, 96004, Note_on_c, 6, 64, 68
8, 96004, Note_on_c, 6, 72, 85
8, 96122, Note_off_c, 6, 72, 85
8, 96124, Note_on_c, 6, 74, 81
8, 96242, Note_off_c, 6, 64, 68
8, 96242, Note_off_c, 6, 74, 81
8, 96244, Note_on_c, 6, 64, 66
8, 96244, Note_on_c, 6, 76, 77
8, 96362, Note_off_c, 6, 76, 77
8, 96364, Note_on_c, 6, 74, 78
8, 96482, Note_off_c, 6, 64, 66
8, 96482, Note_off_c, 6, 74, 78
8, 96484, Note_on_c, 6, 64, 69
8, 96484, Note_on_c, 6, 72, 75
8, 96602, Note_off_c, 6, 72, 75
8, 96604, Note_on_c, 6, 76, 81
8, 96722, Note_off_c, 6, 64, 69
8, 96722, Note_off_c, 6, 76, 81
8, 96724, Note_on_c, 6, 64, 67
8, 96724, Note_on_c, 6, 74, 78
8, 96842, Note_off_c, 6, 74, 78
8, 96844, Note_on_c, 6, 72, 80
8, 96962, Note_off_c, 6, 64, 67
8, 96962, Note_off_c, 6, 72, 80
8, 96964, Note_on_c, 6, 64, 74
8, 96964, Note_on_c, 6, 71, 78
8, 97442, Note_off_c, 6, 64, 74
8, 97442, Note_off_c, 6, 71, 78
8, 104404, Note_on_c, 6, 59, 75
8, 104642, Note_off_c, 6, 59, 75
8, 104644, Note_on_c, 6, 55, 83
8, 104764, Note_on_c, 6, 68, 89
8, 104882, Note_off_c, 6, 55, 83
8, 104882, Note_off_c, 6, 68, 89
8, 104884, Note_on_c, 6, 52, 78
8, 104884, Note_on_c, 6, 71, 87
8, 105002, Note_off_c, 6, 71, 87
8, 105004, Note_on_c, 6, 76, 91
8, 105122, Note_off_c, 6, 52, 78
8, 105122, Note_off_c, 6, 76, 91
8, 105124, Note_on_c, 6, 76, 97
8, 105242, Note_off_c, 6, 76, 97
8, 105244, Note_on_c, 6, 74, 98
8, 105362, Note_off_c, 6, 74, 98
8, 105364, Note_on_c, 6, 52, 76
8, 105364, Note_on_c, 6, 76, 95
8, 105600, Note_off_c, 6, 52, 76
8, 105600, Note_off_c, 6, 76, 95
8, 105604, Note_on_c, 6, 57, 80
8, 105724, Note_on_c, 6, 69, 95
8, 105842, Note_off_c, 6, 57, 80
8, 105842, Note_off_c, 6, 69, 95
8, 105844, Note_on_c, 6, 64, 84
8, 105844, Note_on_c, 6, 73, 95
8, 105962, Note_off_c, 6, 73, 95
8, 105964, Note_on_c, 6, 76, 92
8, 106082, Note_off_c, 6, 64, 84
8, 106082, Note_off_c, 6, 76, 92
8, 106084, Note_on_c, 6, 76, 97
8, 106202, Note_off_c, 6, 76, 97
8, 106204, Note_on_c, 6, 74, 98
8, 106322, Note_off_c, 6, 74, 98
8, 106324, Note_on_c, 6, 61, 79
8, 106324, Note_on_c, 6, 76, 95
8, 106562, Note_off_c, 6, 61, 79
8, 106562, Note_off_c, 6, 76, 95
8, 106564, Note_on_c, 6, 58, 76
8, 106684, Note_on_c, 6, 70, 87
8, 106802, Note_off_c, 6, 58, 76
8, 106802, Note_off_c, 6, 70, 87
8, 106804, Note_on_c, 6, 54, 78
8, 106804, Note_on_c, 6, 73, 95
8, 106922, Note_off_c, 6, 73, 95
8, 106924, Note_on_c, 6, 78, 87
8, 107042, Note_off_c, 6, 54, 78
8, 107042, Note_off_c, 6, 78, 87
8, 107044, Note_on_c, 6, 78, 93
8, 107162, Note_off_c, 6, 78, 93
8, 107164, Note_on_c, 6, 76, 93
8, 107282, Note_off_c, 6, 76, 93
8, 107284, Note_on_c, 6, 54, 79
8, 107284, Note_on_c, 6, 78, 95
8, 107520, Note_off_c, 6, 54, 79
8, 107520, Note_off_c, 6, 78, 95
8, 107524, Note_on_c, 6, 59, 75
8, 107644, Note_on_c, 6, 71, 91
8, 107762, Note_off_c, 6, 59, 75
8, 107762, Note_off_c, 6, 71, 91
8, 107764, Note_on_c, 6, 75, 90
8, 107764, Note_on_c, 6, 66, 89
8, 107882, Note_off_c, 6, 75, 90
8, 107884, Note_on_c, 6, 78, 94
8, 108002, Note_off_c, 6, 66, 89
8, 108002, Note_off_c, 6, 78, 94
8, 108004, Note_on_c, 6, 78, 92
8, 108122, Note_off_c, 6, 78, 92
8, 108124, Note_on_c, 6, 76, 94
8, 108242, Note_off_c, 6, 76, 94
8, 108244, Note_on_c, 6, 78, 92
8, 108244, Note_on_c, 6, 63, 93
8, 108482, Note_off_c, 6, 78, 92
8, 108482, Note_off_c, 6, 63, 93
8, 108484, Note_on_c, 6, 59, 74
8, 108604, Note_on_c, 6, 71, 95
8, 108722, Note_off_c, 6, 59, 74
8, 108722, Note_off_c, 6, 71, 95
8, 108724, Note_on_c, 6, 75, 89
8, 108724, Note_on_c, 6, 55, 82
8, 108842, Note_off_c, 6, 75, 89
8, 108844, Note_on_c, 6, 79, 105
8, 108962, Note_off_c, 6, 55, 82
8, 108962, Note_off_c, 6, 79, 105
8, 108964, Note_on_c, 6, 79, 104
8, 109082, Note_off_c, 6, 79, 104
8, 109084, Note_on_c, 6, 78, 98
8, 109202, Note_off_c, 6, 78, 98
8, 109204, Note_on_c, 6, 79, 101
8, 109204, Note_on_c, 6, 55, 85
8, 109440, Note_off_c, 6, 79, 101
8, 109440, Note_off_c, 6, 55, 85
8, 109444, Note_on_c, 6, 60, 76
8, 109564, Note_on_c, 6, 72, 98
8, 109682, Note_off_c, 6, 60, 76
8, 109682, Note_off_c, 6, 72, 98
8, 109684, Note_on_c, 6, 76, 97
8, 109684, Note_on_c, 6, 67, 91
8, 109802, Note_off_c, 6, 76, 97
8, 109804, Note_on_c, 6, 79, 104
8, 109922, Note_off_c, 6, 67, 91
8, 109922, Note_off_c, 6, 79, 104
8, 109924, Note_on_c, 6, 79, 97
8, 110042, Note_off_c, 6, 79, 97
8, 110044, Note_on_c, 6, 78, 91
8, 110162, Note_off_c, 6, 78, 91
8, 110164, Note_on_c, 6, 79, 97
8, 110164, Note_on_c, 6, 64, 96
8, 110402, Note_off_c, 6, 79, 97
8, 110402, Note_off_c, 6, 64, 96
8, 110404, Note_on_c, 6, 60, 78
8, 110524, Note_on_c, 6, 72, 95
8, 110642, Note_off_c, 6, 60, 78
8, 110642, Note_off_c, 6, 72, 95
8, 110644, Note_on_c, 6, 76, 96
8, 110644, Note_on_c, 6, 57, 76
8, 110762, Note_off_c, 6, 76, 96
8, 110764, Note_on_c, 6, 81, 96
8, 110882, Note_off_c, 6, 57, 76
8, 110882, Note_off_c, 6, 81, 96
8, 110884, Note_on_c, 6, 81, 100
8, 111002, Note_off_c, 6, 81, 100
8, 111004, Note_on_c, 6, 79, 98
8, 111122, Note_off_c, 6, 79, 98
8, 111124, Note_on_c, 6, 81, 96
8, 111124, Note_on_c, 6, 57, 76
8, 111360, Note_off_c, 6, 81, 96
8, 111360, Note_off_c, 6, 57, 76
8, 111364, Note_on_c, 6, 59, 71
8, 111484, Note_on_c, 6, 71, 91
8, 111602, Note_off_c, 6, 59, 71
8, 111602, Note_off_c, 6, 71, 91
8, 111604, Note_on_c, 6, 75, 86
8, 111604, Note_on_c, 6, 66, 91
8, 111722, Note_off_c, 6, 75, 86
8, 111724, Note_on_c, 6, 81, 100
8, 111842, Note_off_c, 6, 66, 91
8, 111842, Note_off_c, 6, 81, 100
8, 111844, Note_on_c, 6, 81, 97
8, 111962, Note_off_c, 6, 81, 97
8, 111964, Note_on_c, 6, 79, 92
8, 112082, Note_off_c, 6, 79, 92
8, 112084, Note_on_c, 6, 81, 95
8, 112084, Note_on_c, 6, 66, 89
8, 112322, Note_off_c, 6, 81, 95
8, 112322, Note_off_c, 6, 66, 89
8, 112324, Note_on_c, 6, 67, 89
8, 112444, Note_on_c, 6, 71, 92
8, 112562, Note_off_c, 6, 67, 89
8, 112562, Note_off_c, 6, 71, 92
8, 112564, Note_on_c, 6, 76, 92
8, 112564, Note_on_c, 6, 64, 95
8, 112682, Note_off_c, 6, 76, 92
8, 112684, Note_on_c, 6, 79, 99
8, 112802, Note_off_c, 6, 64, 95
8, 112802, Note_off_c, 6, 79, 99
8, 112804, Note_on_c, 6, 79, 101
8, 112922, Note_off_c, 6, 79, 101
8, 112924, Note_on_c, 6, 78, 91
8, 113042, Note_off_c, 6, 78, 91
8, 113044, Note_on_c, 6, 79, 95
8, 113044, Note_on_c, 6, 59, 74
8, 113280, Note_off_c, 6, 79, 95
8, 113280, Note_off_c, 6, 59, 74
8, 113284, Note_on_c, 6, 66, 92
8, 113404, Note_on_c, 6, 71, 95
8, 113522, Note_off_c, 6, 66, 92
8, 113522, Note_off_c, 6, 71, 95
8, 113524, Note_on_c, 6, 76, 93
8, 113524, Note_on_c, 6, 67, 94
8, 113642, Note_off_c, 6, 76, 93
8, 113644, Note_on_c, 6, 78, 96
8, 113762, Note_off_c, 6, 67, 94
8, 113762, Note_off_c, 6, 78, 96
8, 113764, Note_on_c, 6, 78, 94
8, 113882, Note_off_c, 6, 78, 94
8, 113884, Note_on_c, 6, 76, 94
8, 114002, Note_off_c, 6, 76, 94
8, 114004, Note_on_c, 6, 78, 94
8, 114004, Note_on_c, 6, 59, 74
8, 114242, Note_off_c, 6, 78, 94
8, 114242, Note_off_c, 6, 59, 74
8, 114244, Note_on_c, 6, 66, 91
8, 114364, Note_on_c, 6, 71, 91
8, 114482, Note_off_c, 6, 66, 91
8, 114482, Note_off_c, 6, 71, 91
8, 114484, Note_on_c, 6, 75, 92
8, 114484, Note_on_c, 6, 69, 99
8, 114602, Note_off_c, 6, 75, 92
8, 114604, Note_on_c, 6, 78, 92
8, 114722, Note_off_c, 6, 69, 99
8, 114722, Note_off_c, 6, 78, 92
8, 114724, Note_on_c, 6, 78, 90
8, 114842, Note_off_c, 6, 78, 90
8, 114844, Note_on_c, 6, 76, 90
8, 114962, Note_off_c, 6, 76, 90
8, 114964, Note_on_c, 6, 78, 91
8, 114964, Note_on_c, 6, 59, 77
8, 115200, Note_off_c, 6, 78, 91
8, 115200, Note_off_c, 6, 59, 77
8, 115204, Note_on_c, 6, 79, 99
8, 115204, Note_on_c, 6, 59, 73
8, 115322, Note_off_c, 6, 59, 73
8, 115324, Note_on_c, 6, 64, 86
8, 115442, Note_off_c, 6, 79, 99
8, 115442, Note_off_c, 6, 64, 86
8, 115444, Note_on_c, 6, 83, 96
8, 115444, Note_on_c, 6, 67, 87
8, 115562, Note_off_c, 6, 83, 96
8, 115564, Note_on_c, 6, 79, 99
8, 115682, Note_off_c, 6, 79, 99
8, 115684, Note_on_c, 6, 76, 95
8, 115802, Note_off_c, 6, 67, 87
8, 115804, Note_on_c, 6, 64, 93
8, 115922, Note_off_c, 6, 64, 93
8, 115924, Note_on_c, 6, 69, 91
8, 116042, Note_off_c, 6, 69, 91
8, 116044, Note_on_c, 6, 67, 92
8, 116162, Note_off_c, 6, 67, 92
8, 116164, Note_on_c, 6, 66, 93
8, 116402, Note_off_c, 6, 76, 95
8, 116404, Note_on_c, 6, 81, 95
8, 116522, Note_off_c, 6, 81, 95
8, 116524, Note_on_c, 6, 78, 91
8, 116642, Note_off_c, 6, 78, 91
8, 116644, Note_on_c, 6, 76, 99
8, 116702, Note_off_c, 6, 76, 99
8, 116704, Note_on_c, 6, 75, 93
8, 116762, Note_off_c, 6, 66, 93
8, 116762, Note_off_c, 6, 75, 93
8, 116764, Note_on_c, 6, 76, 94
8, 116764, Note_on_c, 6, 72, 91
8, 116822, Note_off_c, 6, 76, 94
8, 116824, Note_on_c, 6, 75, 86
8, 116882, Note_off_c, 6, 72, 91
8, 116882, Note_off_c, 6, 75, 86
8, 116884, Note_on_c, 6, 76, 96
8, 116884, Note_on_c, 6, 71, 94
8, 116942, Note_off_c, 6, 76, 96
8, 116944, Note_on_c, 6, 75, 95
8, 117002, Note_off_c, 6, 71, 94
8, 117002, Note_off_c, 6, 75, 95
8, 117004, Note_on_c, 6, 76, 105
8, 117004, Note_on_c, 6, 69, 92
8, 117062, Note_off_c, 6, 76, 105
8, 117064, Note_on_c, 6, 75, 97
8, 117120, Note_off_c, 6, 69, 92
8, 117120, Note_off_c, 6, 75, 97
8, 117124, Note_on_c, 6, 76, 106
8, 117124, Note_on_c, 6, 67, 94
8, 117362, Note_off_c, 6, 67, 94
8, 117364, Note_on_c, 6, 64, 83
8, 117602, Note_off_c, 6, 76, 106
8, 117602, Note_off_c, 6, 64, 83
8, 118324, Note_on_c, 6, 65, 75
8, 118324, Note_on_c, 6, 62, 76
8, 118324, Note_on_c, 6, 69, 76
8, 118562, Note_off_c, 6, 65, 75
8, 118562, Note_off_c, 6, 62, 76
8, 118562, Note_off_c, 6, 69, 76
8, 118564, Note_on_c, 6, 65, 70
8, 118564, Note_on_c, 6, 67, 67
8, 118564, Note_on_c, 6, 71, 67
8, 118564, Note_on_c, 6, 62, 69
8, 118802, Note_off_c, 6, 65, 70
8, 118802, Note_off_c, 6, 67, 67
8, 118802, Note_off_c, 6, 71, 67
8, 118802, Note_off_c, 6, 62, 69
8, 118804, Note_on_c, 6, 65, 76
8, 118804, Note_on_c, 6, 67, 71
8, 118804, Note_on_c, 6, 71, 72
8, 118804, Note_on_c, 6, 62, 74
8, 119040, Note_off_c, 6, 65, 76
8, 119040, Note_off_c, 6, 67, 71
8, 119040, Note_off_c, 6, 71, 72
8, 119040, Note_off_c, 6, 62, 74
8, 119044, Note_on_c, 6, 64, 70
8, 119044, Note_on_c, 6, 67, 73
8, 119044, Note_on_c, 6, 36, 72
8, 119044, Note_on_c, 6, 72, 71
8, 119282, Note_off_c, 6, 64, 70
8, 119282, Note_off_c, 6, 67, 73
8, 119282, Note_off_c, 6, 36, 72
8, 119282, Note_off_c, 6, 72, 71
8, 119284, Note_on_c, 6, 68, 69
8, 119284, Note_on_c, 6, 64, 68
8, 119284, Note_on_c, 6, 48, 69
8, 119522, Note_off_c, 6, 68, 69
8, 119522, Note_off_c, 6, 64, 68
8, 119522, Note_off_c, 6, 48, 69
8, 119524, Note_on_c, 6, 69, 73
8, 119524, Note_on_c, 6, 57, 67
8, 119524, Note_on_c, 6, 41, 70
8, 119762, Note_off_c, 6, 69, 73
8, 119762, Note_off_c, 6, 57, 67
8, 119762, Note_off_c, 6, 41, 70
8, 120724, Note_on_c, 6, 62, 70
8, 120724, Note_on_c, 6, 68, 68
8, 120724, Note_on_c, 6, 64, 74
8, 120724, Note_on_c, 6, 52, 71
8, 120960, Note_off_c, 6, 62, 70
8, 120960, Note_off_c, 6, 68, 68
8, 120960, Note_off_c, 6, 64, 74
8, 120960, Note_off_c, 6, 52, 71
8, 120964, Note_on_c, 6, 69, 76
8, 120964, Note_on_c, 6, 57, 71
8, 120964, Note_on_c, 6, 64, 76
8, 120964, Note_on_c, 6, 60, 72
8, 121202, Note_off_c, 6, 69, 76
8, 121202, Note_off_c, 6, 57, 71
8, 121202, Note_off_c, 6, 64, 76
8, 121202, Note_off_c, 6, 60, 72
8, 125524, Note_on_c, 6, 55, 81
8, 125524, Note_on_c, 6, 67, 69
8, 125524, Note_on_c, 6, 74, 76
8, 125524, Note_on_c, 6, 71, 72
8, 125762, Note_off_c, 6, 55, 81
8, 125762, Note_off_c, 6, 67, 69
8, 125762, Note_off_c, 6, 74, 76
8, 125762, Note_off_c, 6, 71, 72
8, 125764, Note_on_c, 6, 71, 75
8, 125764, Note_on_c, 6, 60, 73
8, 125764, Note_on_c, 6, 76, 75
8, 125764, Note_on_c, 6, 67, 69
8, 126002, Note_off_c, 6, 71, 75
8, 126002, Note_off_c, 6, 60, 73
8, 126002, Note_off_c, 6, 76, 75
8, 126002, Note_off_c, 6, 67, 69
8, 126484, Note_on_c, 6, 65, 65
8, 126484, Note_on_c, 6, 53, 72
8, 126484, Note_on_c, 6, 69, 69
8, 126484, Note_on_c, 6, 72, 71
8, 126720, Note_off_c, 6, 65, 65
8, 126720, Note_off_c, 6, 53, 72
8, 126720, Note_off_c, 6, 69, 69
8, 126720, Note_off_c, 6, 72, 71
8, 126724, Note_on_c, 6, 74, 82
8, 126724, Note_on_c, 6, 69, 76
8, 126724, Note_on_c, 6, 65, 71
8, 126724, Note_on_c, 6, 59, 66
8, 126962, Note_off_c, 6, 74, 82
8, 126962, Note_off_c, 6, 69, 76
8, 126962, Note_off_c, 6, 65, 71
8, 126962, Note_off_c, 6, 59, 66
8, 127444, Note_on_c, 6, 68, 64
8, 127444, Note_on_c, 6, 71, 71
8, 127444, Note_on_c, 6, 74, 69
8, 127444, Note_on_c, 6, 52, 74
8, 127682, Note_off_c, 6, 68, 64
8, 127682, Note_off_c, 6, 71, 71
8, 127682, Note_off_c, 6, 74, 69
8, 127682, Note_off_c, 6, 52, 74
8, 127684, Note_on_c, 6, 69, 74
8, 127684, Note_on_c, 6, 57, 72
8, 127684, Note_on_c, 6, 72, 71
8, 127684, Note_on_c, 6, 64, 70
8, 127922, Note_off_c, 6, 69, 74
8, 127922, Note_off_c, 6, 57, 72
8, 127922, Note_off_c, 6, 72, 71
8, 127922, Note_off_c, 6, 64, 70
8, 133444, Note_on_c, 6, 57, 71
8, 133444, Note_on_c, 6, 74, 55
8, 133502, Note_off_c, 6, 74, 55
8, 133504, Note_on_c, 6, 72, 54
8, 133562, Note_off_c, 6, 72, 54
8, 133564, Note_on_c, 6, 74, 61
8, 133622, Note_off_c, 6, 74, 61
8, 133624, Note_on_c, 6, 72, 50
8, 133682, Note_off_c, 6, 57, 71
8, 133682, Note_off_c, 6, 72, 50
8, 133684, Note_on_c, 6, 45, 72
8, 133684, Note_on_c, 6, 74, 57
8, 133742, Note_off_c, 6, 74, 57
8, 133744, Note_on_c, 6, 72, 53
8, 133802, Note_off_c, 6, 72, 53
8, 133804, Note_on_c, 6, 74, 57
8, 133862, Note_off_c, 6, 74, 57
8, 133864, Note_on_c, 6, 72, 41
8, 133922, Note_off_c, 6, 45, 72
8, 133922, Note_off_c, 6, 72, 41
8, 133924, Note_on_c, 6, 74, 57
8, 133982, Note_off_c, 6, 74, 57
8, 133984, Note_on_c, 6, 72, 45
8, 134042, Note_off_c, 6, 72, 45
8, 134044, Note_on_c, 6, 74, 56
8, 134102, Note_off_c, 6, 74, 56
8, 134104, Note_on_c, 6, 72, 47
8, 134162, Note_off_c, 6, 72, 47
8, 134164, Note_on_c, 6, 45, 66
8, 134164, Note_on_c, 6, 74, 63
8, 134222, Note_off_c, 6, 74, 63
8, 134224, Note_on_c, 6, 72, 55
8, 134282, Note_off_c, 6, 72, 55
8, 134284, Note_on_c, 6, 74, 55
8, 134342, Note_off_c, 6, 74, 55
8, 134344, Note_on_c, 6, 72, 54
8, 134400, Note_off_c, 6, 45, 66
8, 134400, Note_off_c, 6, 72, 54
8, 134404, Note_on_c, 6, 50, 65
8, 134404, Note_on_c, 6, 74, 62
8, 134462, Note_off_c, 6, 74, 62
8, 134464, Note_on_c, 6, 72, 55
8, 134522, Note_off_c, 6, 72, 55
8, 134524, Note_on_c, 6, 74, 62
8, 134582, Note_off_c, 6, 74, 62
8, 134584, Note_on_c, 6, 72, 60
8, 134642, Note_off_c, 6, 50, 65
8, 134642, Note_off_c, 6, 72, 60
8, 134644, Note_on_c, 6, 38, 68
8, 134644, Note_on_c, 6, 74, 61
8, 134702, Note_off_c, 6, 74, 61
8, 134704, Note_on_c, 6, 72, 56
8, 134762, Note_off_c, 6, 72, 56
8, 134764, Note_on_c, 6, 74, 66
8, 134822, Note_off_c, 6, 74, 66
8, 134824, Note_on_c, 6, 72, 57
8, 134882, Note_off_c, 6, 38, 68
8, 134882, Note_off_c, 6, 72, 57
8, 134884, Note_on_c, 6, 74, 61
8, 134942, Note_off_c, 6, 74, 61
8, 134944, Note_on_c, 6, 72, 50
8, 135002, Note_off_c, 6, 72, 50
8, 135004, Note_on_c, 6, 74, 67
8, 135062, Note_off_c, 6, 74, 67
8, 135064, Note_on_c, 6, 72, 54
8, 135122, Note_off_c, 6, 72, 54
8, 135124, Note_on_c, 6, 50, 64
8, 135124, Note_on_c, 6, 74, 59
8, 135182, Note_off_c, 6, 74, 59
8, 135184, Note_on_c, 6, 72, 47
8, 135242, Note_off_c, 6, 72, 47
8, 135244, Note_on_c, 6, 74, 54
8, 135302, Note_off_c, 6, 74, 54
8, 135304, Note_on_c, 6, 72, 54
8, 135362, Note_off_c, 6, 50, 64
8, 135362, Note_off_c, 6, 72, 54
8, 135364, Note_on_c, 6, 55, 74
8, 135364, Note_on_c, 6, 72, 74
8, 135422, Note_off_c, 6, 72, 74
8, 135424, Note_on_c, 6, 71, 68
8, 135482, Note_off_c, 6, 71, 68
8, 135484, Note_on_c, 6, 72, 74
8, 135542, Note_off_c, 6, 72, 74
8, 135544, Note_on_c, 6, 71, 61
8, 135602, Note_off_c, 6, 55, 74
8, 135602, Note_off_c, 6, 71, 61
8, 135604, Note_on_c, 6, 43, 69
8, 135604, Note_on_c, 6, 72, 70
8, 135662, Note_off_c, 6, 72, 70
8, 135664, Note_on_c, 6, 71, 64
8, 135722, Note_off_c, 6, 71, 64
8, 135724, Note_on_c, 6, 72, 66
8, 135782, Note_off_c, 6, 72, 66
8, 135784, Note_on_c, 6, 71, 59
8, 135842, Note_off_c, 6, 43, 69
8, 135842, Note_off_c, 6, 71, 59
8, 135844, Note_on_c, 6, 72, 64
8, 135902, Note_off_c, 6, 72, 64
8, 135904, Note_on_c, 6, 71, 59
8, 135962, Note_off_c, 6, 71, 59
8, 135964, Note_on_c, 6, 72, 66
8, 136022, Note_off_c, 6, 72, 66
8, 136024, Note_on_c, 6, 71, 63
8, 136082, Note_off_c, 6, 71, 63
8, 136084, Note_on_c, 6, 43, 65
8, 136084, Note_on_c, 6, 72, 69
8, 136142, Note_off_c, 6, 72, 69
8, 136144, Note_on_c, 6, 71, 62
8, 136202, Note_off_c, 6, 71, 62
8, 136204, Note_on_c, 6, 72, 63
8, 136262, Note_off_c, 6, 72, 63
8, 136264, Note_on_c, 6, 71, 64
8, 136320, Note_off_c, 6, 43, 65
8, 136320, Note_off_c, 6, 71, 64
8, 136324, Note_on_c, 6, 48, 61
8, 136324, Note_on_c, 6, 72, 64
8, 136382, Note_off_c, 6, 72, 64
8, 136384, Note_on_c, 6, 71, 54
8, 136442, Note_off_c, 6, 71, 54
8, 136444, Note_on_c, 6, 72, 67
8, 136502, Note_off_c, 6, 72, 67
8, 136504, Note_on_c, 6, 71, 62
8, 136562, Note_off_c, 6, 48, 61
8, 136562, Note_off_c, 6, 71, 62
8, 136564, Note_on_c, 6, 36, 64
8, 136564, Note_on_c, 6, 72, 69
8, 136622, Note_off_c, 6, 72, 69
8, 136624, Note_on_c, 6, 71, 62
8, 136682, Note_off_c, 6, 71, 62
8, 136684, Note_on_c, 6, 72, 68
8, 136742, Note_off_c, 6, 72, 68
8, 136744, Note_on_c, 6, 71, 56
8, 136802, Note_off_c, 6, 36, 64
8, 136802, Note_off_c, 6, 71, 56
8, 136804, Note_on_c, 6, 72, 70
8, 136862, Note_off_c, 6, 72, 70
8, 136864, Note_on_c, 6, 71, 66
8, 136922, Note_off_c, 6, 71, 66
8, 136924, Note_on_c, 6, 72, 68
8, 136982, Note_off_c, 6, 72, 68
8, 136984, Note_on_c, 6, 71, 57
8, 137042, Note_off_c, 6, 71, 57
8, 137044, Note_on_c, 6, 48, 69
8, 137044, Note_on_c, 6, 72, 66
8, 137102, Note_off_c, 6, 72, 66
8, 137104, Note_on_c, 6, 71, 55
8, 137162, Note_off_c, 6, 71, 55
8, 137164, Note_on_c, 6, 72, 65
8, 137222, Note_off_c, 6, 72, 65
8, 137224, Note_on_c, 6, 71, 55
8, 137282, Note_off_c, 6, 48, 69
8, 137282, Note_off_c, 6, 71, 55
8, 137284, Note_on_c, 6, 53, 69
8, 137284, Note_on_c, 6, 71, 81
8, 137342, Note_off_c, 6, 71, 81
8, 137344, Note_on_c, 6, 69, 73
8, 137402, Note_off_c, 6, 69, 73
8, 137404, Note_on_c, 6, 71, 76
8, 137462, Note_off_c, 6, 71, 76
8, 137464, Note_on_c, 6, 69, 62
8, 137522, Note_off_c, 6, 53, 69
8, 137522, Note_off_c, 6, 69, 62
8, 137524, Note_on_c, 6, 41, 66
8, 137524, Note_on_c, 6, 71, 64
8, 137582, Note_off_c, 6, 71, 64
8, 137584, Note_on_c, 6, 69, 51
8, 137642, Note_off_c, 6, 69, 51
8, 137644, Note_on_c, 6, 71, 62
8, 137702, Note_off_c, 6, 71, 62
8, 137704, Note_on_c, 6, 69, 59
8, 137762, Note_off_c, 6, 41, 66
8, 137762, Note_off_c, 6, 69, 59
8, 137764, Note_on_c, 6, 71, 71
8, 137822, Note_off_c, 6, 71, 71
8, 137824, Note_on_c, 6, 69, 68
8, 137882, Note_off_c, 6, 69, 68
8, 137884, Note_on_c, 6, 71, 62
8, 137942, Note_off_c, 6, 71, 62
8, 137944, Note_on_c, 6, 69, 63
8, 138002, Note_off_c, 6, 69, 63
8, 138004, Note_on_c, 6, 53, 69
8, 138004, Note_on_c, 6, 71, 69
8, 138062, Note_off_c, 6, 71, 69
8, 138064, Note_on_c, 6, 69, 57
8, 138122, Note_off_c, 6, 69, 57
8, 138124, Note_on_c, 6, 71, 66
8, 138182, Note_off_c, 6, 71, 66
8, 138184, Note_on_c, 6, 69, 57
8, 138240, Note_off_c, 6, 53, 69
8, 138240, Note_off_c, 6, 69, 57
8, 138244, Note_on_c, 6, 47, 68
8, 138244, Note_on_c, 6, 71, 66
8, 138302, Note_off_c, 6, 71, 66
8, 138304, Note_on_c, 6, 69, 58
8, 138362, Note_off_c, 6, 69, 58
8, 138364, Note_on_c, 6, 71, 68
8, 138422, Note_off_c, 6, 71, 68
8, 138424, Note_on_c, 6, 69, 52
8, 138482, Note_off_c, 6, 47, 68
8, 138482, Note_off_c, 6, 69, 52
8, 138484, Note_on_c, 6, 59, 69
8, 138484, Note_on_c, 6, 71, 69
8, 138542, Note_off_c, 6, 71, 69
8, 138544, Note_on_c, 6, 69, 59
8, 138602, Note_off_c, 6, 69, 59
8, 138604, Note_on_c, 6, 71, 60
8, 138662, Note_off_c, 6, 71, 60
8, 138664, Note_on_c, 6, 69, 60
8, 138722, Note_off_c, 6, 59, 69
8, 138722, Note_off_c, 6, 69, 60
8, 138724, Note_on_c, 6, 71, 62
8, 138782, Note_off_c, 6, 71, 62
8, 138784, Note_on_c, 6, 69, 61
8, 138842, Note_off_c, 6, 69, 61
8, 138844, Note_on_c, 6, 71, 62
8, 138902, Note_off_c, 6, 71, 62
8, 138904, Note_on_c, 6, 69, 60
8, 138962, Note_off_c, 6, 69, 60
8, 138964, Note_on_c, 6, 47, 69
8, 138964, Note_on_c, 6, 71, 61
8, 139022, Note_off_c, 6, 71, 61
8, 139024, Note_on_c, 6, 69, 65
8, 139082, Note_off_c, 6, 69, 65
8, 139084, Note_on_c, 6, 71, 58
8, 139142, Note_off_c, 6, 71, 58
8, 139144, Note_on_c, 6, 69, 56
8, 139202, Note_off_c, 6, 47, 69
8, 139202, Note_off_c, 6, 69, 56
8, 139204, Note_on_c, 6, 52, 76
8, 139204, Note_on_c, 6, 69, 73
8, 139262, Note_off_c, 6, 69, 73
8, 139264, Note_on_c, 6, 68, 67
8, 139322, Note_off_c, 6, 68, 67
8, 139324, Note_on_c, 6, 69, 65
8, 139382, Note_off_c, 6, 69, 65
8, 139384, Note_on_c, 6, 68, 58
8, 139442, Note_off_c, 6, 52, 76
8, 139442, Note_off_c, 6, 68, 58
8, 139444, Note_on_c, 6, 40, 68
8, 139444, Note_on_c, 6, 69, 60
8, 139502, Note_off_c, 6, 69, 60
8, 139504, Note_on_c, 6, 68, 54
8, 139562, Note_off_c, 6, 68, 54
8, 139564, Note_on_c, 6, 69, 57
8, 139622, Note_off_c, 6, 69, 57
8, 139624, Note_on_c, 6, 68, 55
8, 139682, Note_off_c, 6, 40, 68
8, 139682, Note_off_c, 6, 68, 55
8, 139684, Note_on_c, 6, 69, 61
8, 139742, Note_off_c, 6, 69, 61
8, 139744, Note_on_c, 6, 68, 61
8, 139802, Note_off_c, 6, 68, 61
8, 139804, Note_on_c, 6, 69, 68
8, 139862, Note_off_c, 6, 69, 68
8, 139864, Note_on_c, 6, 68, 56
8, 139922, Note_off_c, 6, 68, 56
8, 139924, Note_on_c, 6, 52, 74
8, 139924, Note_on_c, 6, 69, 64
8, 139982, Note_off_c, 6, 69, 64
8, 139984, Note_on_c, 6, 68, 59
8, 140042, Note_off_c, 6, 68, 59
8, 140044, Note_on_c, 6, 69, 68
8, 140102, Note_off_c, 6, 69, 68
8, 140104, Note_on_c, 6, 68, 71
8, 140160, Note_off_c, 6, 52, 74
8, 140160, Note_off_c, 6, 68, 71
8, 140164, Note_on_c, 6, 45, 71
8, 140164, Note_on_c, 6, 69, 79
8, 140402, Note_off_c, 6, 45, 71
8, 140402, Note_off_c, 6, 69, 79
8, 140404, Note_on_c, 6, 57, 66
8, 140404, Note_on_c, 6, 72, 72
8, 140522, Note_off_c, 6, 72, 72
8, 140524, Note_on_c, 6, 74, 66
8, 140642, Note_off_c, 6, 57, 66
8, 140642, Note_off_c, 6, 74, 66
8, 140644, Note_on_c, 6, 60, 66
8, 140644, Note_on_c, 6, 76, 62
8, 140762, Note_off_c, 6, 76, 62
8, 140764, Note_on_c, 6, 74, 67
8, 140882, Note_off_c, 6, 60, 66
8, 140882, Note_off_c, 6, 74, 67
8, 140884, Note_on_c, 6, 57, 69
8, 140884, Note_on_c, 6, 72, 63
8, 141002, Note_off_c, 6, 72, 63
8, 141004, Note_on_c, 6, 74, 68
8, 141122, Note_off_c, 6, 57, 69
8, 141122, Note_off_c, 6, 74, 68
8, 141124, Note_on_c, 6, 45, 74
8, 141124, Note_on_c, 6, 76, 66
8, 141242, Note_off_c, 6, 76, 66
8, 141244, Note_on_c, 6, 74, 67
8, 141362, Note_off_c, 6, 45, 74
8, 141362, Note_off_c, 6, 74, 67
8, 141364, Note_on_c, 6, 57, 69
8, 141364, Note_on_c, 6, 73, 62
8, 141482, Note_off_c, 6, 73, 62
8, 141484, Note_on_c, 6, 74, 69
8, 141602, Note_off_c, 6, 57, 69
8, 141602, Note_off_c, 6, 74, 69
8, 141604, Note_on_c, 6, 61, 68
8, 141604, Note_on_c, 6, 76, 67
8, 141842, Note_off_c, 6, 61, 68
8, 141842, Note_off_c, 6, 76, 67
8, 141844, Note_on_c, 6, 57, 74
8, 141844, Note_on_c, 6, 73, 68
8, 142080, Note_off_c, 6, 57, 74
8, 142080, Note_off_c, 6, 73, 68
8, 142084, Note_on_c, 6, 50, 71
8, 142084, Note_on_c, 6, 69, 75
8, 142202, Note_off_c, 6, 69, 75
8, 142204, Note_on_c, 6, 69, 67
8, 142322, Note_off_c, 6, 50, 71
8, 142322, Note_off_c, 6, 69, 67
8, 142324, Note_on_c, 6, 38, 68
8, 142324, Note_on_c, 6, 69, 63
8, 142442, Note_off_c, 6, 69, 63
8, 142444, Note_on_c, 6, 69, 61
8, 142562, Note_off_c, 6, 38, 68
8, 142562, Note_off_c, 6, 69, 61
8, 142564, Note_on_c, 6, 38, 71
8, 142564, Note_on_c, 6, 74, 74
8, 142682, Note_off_c, 6, 74, 74
8, 142684, Note_on_c, 6, 69, 66
8, 142802, Note_off_c, 6, 38, 71
8, 142802, Note_off_c, 6, 69, 66
8, 142804, Note_on_c, 6, 38, 64
8, 142804, Note_on_c, 6, 69, 61
8, 142922, Note_off_c, 6, 69, 61
8, 142924, Note_on_c, 6, 69, 65
8, 143042, Note_off_c, 6, 38, 64
8, 143042, Note_off_c, 6, 69, 65
8, 143044, Note_on_c, 6, 42, 62
8, 143044, Note_on_c, 6, 74, 74
8, 143162, Note_off_c, 6, 74, 74
8, 143164, Note_on_c, 6, 69, 69
8, 143282, Note_off_c, 6, 42, 62
8, 143282, Note_off_c, 6, 69, 69
8, 143284, Note_on_c, 6, 38, 74
8, 143284, Note_on_c, 6, 69, 65
8, 143402, Note_off_c, 6, 69, 65
8, 143404, Note_on_c, 6, 69, 67
8, 143522, Note_off_c, 6, 38, 74
8, 143522, Note_off_c, 6, 69, 67
8, 143524, Note_on_c, 6, 38, 72
8, 143524, Note_on_c, 6, 74, 71
8, 143642, Note_off_c, 6, 74, 71
8, 143644, Note_on_c, 6, 72, 70
8, 143762, Note_off_c, 6, 38, 72
8, 143762, Note_off_c, 6, 72, 70
8, 143764, Note_on_c, 6, 38, 74
8, 143764, Note_on_c, 6, 71, 69
8, 143882, Note_off_c, 6, 71, 69
8, 143884, Note_on_c, 6, 69, 61
8, 144000, Note_off_c, 6, 38, 74
8, 144000, Note_off_c, 6, 69, 61
8, 148084, Note_on_c, 6, 57, 76
8, 148084, Note_on_c, 6, 65, 70
8, 148202, Note_off_c, 6, 57, 76
8, 148204, Note_on_c, 6, 55, 83
8, 148322, Note_off_c, 6, 65, 70
8, 148322, Note_off_c, 6, 55, 83
8, 148324, Note_on_c, 6, 53, 80
8, 148324, Note_on_c, 6, 69, 76
8, 148442, Note_off_c, 6, 53, 80
8, 148444, Note_on_c, 6, 52, 75
8, 148562, Note_off_c, 6, 69, 76
8, 148562, Note_off_c, 6, 52, 75
8, 148564, Note_on_c, 6, 50, 64
8, 148564, Note_on_c, 6, 74, 78
8, 148682, Note_off_c, 6, 50, 64
8, 148684, Note_on_c, 6, 52, 74
8, 148802, Note_off_c, 6, 74, 78
8, 148802, Note_off_c, 6, 52, 74
8, 148804, Note_on_c, 6, 54, 74
8, 148804, Note_on_c, 6, 69, 73
8, 148922, Note_off_c, 6, 54, 74
8, 148924, Note_on_c, 6, 52, 74
8, 149042, Note_off_c, 6, 69, 73
8, 149042, Note_off_c, 6, 52, 74
8, 149044, Note_on_c, 6, 50, 65
8, 149044, Note_on_c, 6, 74, 80
8, 149162, Note_off_c, 6, 50, 65
8, 149164, Note_on_c, 6, 52, 74
8, 149282, Note_off_c, 6, 74, 80
8, 149282, Note_off_c, 6, 52, 74
8, 149284, Note_on_c, 6, 54, 74
8, 149284, Note_on_c, 6, 69, 71
8, 149522, Note_off_c, 6, 54, 74
8, 149522, Note_off_c, 6, 69, 71
8, 149524, Note_on_c, 6, 50, 77
8, 149524, Note_on_c, 6, 66, 67
8, 149760, Note_off_c, 6, 50, 77
8, 149760, Note_off_c, 6, 66, 67
8, 149764, Note_on_c, 6, 55, 87
8, 149764, Note_on_c, 6, 62, 79
8, 150002, Note_off_c, 6, 55, 87
8, 150002, Note_off_c, 6, 62, 79
8, 159364, Note_on_c, 6, 45, 81
8, 159484, Note_on_c, 6, 76, 78
8, 159602, Note_off_c, 6, 45, 81
8, 159602, Note_off_c, 6, 76, 78
8, 159604, Note_on_c, 6, 76, 71
8, 159604, Note_on_c, 6, 57, 78
8, 159722, Note_off_c, 6, 76, 71
8, 159724, Note_on_c, 6, 76, 81
8, 159842, Note_off_c, 6, 57, 78
8, 159842, Note_off_c, 6, 76, 81
8, 159844, Note_on_c, 6, 81, 86
8, 159844, Note_on_c, 6, 60, 80
8, 159962, Note_off_c, 6, 81, 86
8, 159964, Note_on_c, 6, 76, 77
8, 160082, Note_off_c, 6, 60, 80
8, 160082, Note_off_c, 6, 76, 77
8, 160084, Note_on_c, 6, 76, 75
8, 160084, Note_on_c, 6, 57, 79
8, 160202, Note_off_c, 6, 76, 75
8, 160204, Note_on_c, 6, 76, 68
8, 160322, Note_off_c, 6, 57, 79
8, 160322, Note_off_c, 6, 76, 68
8, 160324, Note_on_c, 6, 77, 87
8, 160324, Note_on_c, 6, 56, 76
8, 160442, Note_off_c, 6, 77, 87
8, 160444, Note_on_c, 6, 76, 68
8, 160562, Note_off_c, 6, 56, 76
8, 160562, Note_off_c, 6, 76, 68
8, 160564, Note_on_c, 6, 76, 59
8, 160564, Note_on_c, 6, 57, 77
8, 160682, Note_off_c, 6, 76, 59
8, 160684, Note_on_c, 6, 76, 76
8, 160802, Note_off_c, 6, 57, 77
8, 160802, Note_off_c, 6, 76, 76
8, 160804, Note_on_c, 6, 81, 87
8, 160804, Note_on_c, 6, 45, 77
8, 160922, Note_off_c, 6, 81, 87
8, 160924, Note_on_c, 6, 76, 80
8, 161042, Note_off_c, 6, 45, 77
8, 161042, Note_off_c, 6, 76, 80
8, 161044, Note_on_c, 6, 76, 71
8, 161044, Note_on_c, 6, 57, 80
8, 161162, Note_off_c, 6, 76, 71
8, 161164, Note_on_c, 6, 76, 71
8, 161280, Note_off_c, 6, 57, 80
8, 161280, Note_off_c, 6, 76, 71
8, 161284, Note_on_c, 6, 77, 88
8, 161284, Note_on_c, 6, 50, 80
8, 161402, Note_off_c, 6, 77, 88
8, 161404, Note_on_c, 6, 74, 76
8, 161522, Note_off_c, 6, 50, 80
8, 161522, Note_off_c, 6, 74, 76
8, 161524, Note_on_c, 6, 74, 80
8, 161524, Note_on_c, 6, 55, 81
8, 161642, Note_off_c, 6, 74, 80
8, 161644, Note_on_c, 6, 74, 81
8, 161762, Note_off_c, 6, 55, 81
8, 161762, Note_off_c, 6, 74, 81
8, 161764, Note_on_c, 6, 79, 86
8, 161764, Note_on_c, 6, 59, 76
8, 161882, Note_off_c, 6, 79, 86
8, 161884, Note_on_c, 6, 74, 80
8, 162002, Note_off_c, 6, 59, 76
8, 162002, Note_off_c, 6, 74, 80
8, 162004, Note_on_c, 6, 74, 80
8, 162004, Note_on_c, 6, 55, 80
8, 162122, Note_off_c, 6, 74, 80
8, 162124, Note_on_c, 6, 74, 76
8, 162242, Note_off_c, 6, 55, 80
8, 162242, Note_off_c, 6, 74, 76
8, 162244, Note_on_c, 6, 76, 89
8, 162244, Note_on_c, 6, 54, 75
8, 162362, Note_off_c, 6, 76, 89
8, 162364, Note_on_c, 6, 74, 80
8, 162482, Note_off_c, 6, 54, 75
8, 162482, Note_off_c, 6, 74, 80
8, 162484, Note_on_c, 6, 74, 70
8, 162484, Note_on_c, 6, 55, 85
8, 162602, Note_off_c, 6, 74, 70
8, 162604, Note_on_c, 6, 74, 76
8, 162722, Note_off_c, 6, 55, 85
8, 162722, Note_off_c, 6, 74, 76
8, 162724, Note_on_c, 6, 79, 83
8, 162724, Note_on_c, 6, 43, 74
8, 162842, Note_off_c, 6, 79, 83
8, 162844, Note_on_c, 6, 74, 80
8, 162962, Note_off_c, 6, 43, 74
8, 162962, Note_off_c, 6, 74, 80
8, 162964, Note_on_c, 6, 74, 79
8, 162964, Note_on_c, 6, 55, 80
8, 163082, Note_off_c, 6, 74, 79
8, 163084, Note_on_c, 6, 74, 79
8, 163200, Note_off_c, 6, 55, 80
8, 163200, Note_off_c, 6, 74, 79
8, 163204, Note_on_c, 6, 76, 82
8, 163204, Note_on_c, 6, 48, 79
8, 163322, Note_off_c, 6, 76, 82
8, 163324, Note_on_c, 6, 72, 77
8, 163442, Note_off_c, 6, 48, 79
8, 163442, Note_off_c, 6, 72, 77
8, 163444, Note_on_c, 6, 72, 73
8, 163444, Note_on_c, 6, 53, 81
8, 163562, Note_off_c, 6, 72, 73
8, 163564, Note_on_c, 6, 72, 71
8, 163682, Note_off_c, 6, 53, 81
8, 163682, Note_off_c, 6, 72, 71
8, 163684, Note_on_c, 6, 77, 81
8, 163684, Note_on_c, 6, 57, 75
8, 163802, Note_off_c, 6, 77, 81
8, 163804, Note_on_c, 6, 72, 73
8, 163922, Note_off_c, 6, 57, 75
8, 163922, Note_off_c, 6, 72, 73
8, 163924, Note_on_c, 6, 72, 67
8, 163924, Note_on_c, 6, 53, 78
8, 164042, Note_off_c, 6, 72, 67
8, 164044, Note_on_c, 6, 72, 72
8, 164162, Note_off_c, 6, 53, 78
8, 164162, Note_off_c, 6, 72, 72
8, 164164, Note_on_c, 6, 74, 85
8, 164164, Note_on_c, 6, 52, 76
8, 164282, Note_off_c, 6, 74, 85
8, 164284, Note_on_c, 6, 72, 71
8, 164402, Note_off_c, 6, 52, 76
8, 164402, Note_off_c, 6, 72, 71
8, 164404, Note_on_c, 6, 72, 65
8, 164404, Note_on_c, 6, 53, 74
8, 164522, Note_off_c, 6, 72, 65
8, 164524, Note_on_c, 6, 72, 71
8, 164642, Note_off_c, 6, 53, 74
8, 164642, Note_off_c, 6, 72, 71
8, 164644, Note_on_c, 6, 77, 92
8, 164644, Note_on_c, 6, 41, 75
8, 164762, Note_off_c, 6, 77, 92
8, 164764, Note_on_c, 6, 72, 72
8, 164882, Note_off_c, 6, 41, 75
8, 164882, Note_off_c, 6, 72, 72
8, 164884, Note_on_c, 6, 72, 65
8, 164884, Note_on_c, 6, 53, 82
8, 165002, Note_off_c, 6, 72, 65
8, 165004, Note_on_c, 6, 72, 54
8, 165120, Note_off_c, 6, 53, 82
8, 165120, Note_off_c, 6, 72, 54
8, 165124, Note_on_c, 6, 74, 78
8, 165124, Note_on_c, 6, 47, 76
8, 165242, Note_off_c, 6, 74, 78
8, 165244, Note_on_c, 6, 71, 69
8, 165362, Note_off_c, 6, 47, 76
8, 165362, Note_off_c, 6, 71, 69
8, 165364, Note_on_c, 6, 71, 64
8, 165364, Note_on_c, 6, 52, 76
8, 165482, Note_off_c, 6, 71, 64
8, 165484, Note_on_c, 6, 71, 57
8, 165602, Note_off_c, 6, 52, 76
8, 165602, Note_off_c, 6, 71, 57
8, 165604, Note_on_c, 6, 76, 81
8, 165604, Note_on_c, 6, 56, 76
8, 165722, Note_off_c, 6, 76, 81
8, 165724, Note_on_c, 6, 71, 71
8, 165842, Note_off_c, 6, 56, 76
8, 165842, Note_off_c, 6, 71, 71
8, 165844, Note_on_c, 6, 71, 57
8, 165844, Note_on_c, 6, 52, 78
8, 165962, Note_off_c, 6, 71, 57
8, 165964, Note_on_c, 6, 71, 58
8, 166082, Note_off_c, 6, 52, 78
8, 166082, Note_off_c, 6, 71, 58
8, 166084, Note_on_c, 6, 72, 89
8, 166084, Note_on_c, 6, 51, 78
8, 166202, Note_off_c, 6, 72, 89
8, 166204, Note_on_c, 6, 71, 79
8, 166322, Note_off_c, 6, 51, 78
8, 166322, Note_off_c, 6, 71, 79
8, 166324, Note_on_c, 6, 71, 75
8, 166324, Note_on_c, 6, 52, 82
8, 166442, Note_off_c, 6, 71, 75
8, 166444, Note_on_c, 6, 71, 68
8, 166562, Note_off_c, 6, 52, 82
8, 166562, Note_off_c, 6, 71, 68
8, 166564, Note_on_c, 6, 76, 80
8, 166564, Note_on_c, 6, 40, 83
8, 166682, Note_off_c, 6, 76, 80
8, 166684, Note_on_c, 6, 71, 80
8, 166802, Note_off_c, 6, 40, 83
8, 166802, Note_off_c, 6, 71, 80
8, 166804, Note_on_c, 6, 71, 78
8, 166804, Note_on_c, 6, 52, 90
8, 166922, Note_off_c, 6, 71, 78
8, 166924, Note_on_c, 6, 71, 91
8, 167040, Note_off_c, 6, 52, 90
8, 167040, Note_off_c, 6, 71, 91
8, 167044, Note_on_c, 6, 72, 74
8, 167044, Note_on_c, 6, 45, 81
8, 167282, Note_off_c, 6, 72, 74
8, 167282, Note_off_c, 6, 45, 81
8, 167284, Note_on_c, 6, 76, 73
8, 167284, Note_on_c, 6, 69, 76
8, 167522, Note_off_c, 6, 76, 73
8, 167522, Note_off_c, 6, 69, 76
8, 167524, Note_on_c, 6, 80, 73
8, 167524, Note_on_c, 6, 69, 75
8, 167762, Note_off_c, 6, 80, 73
8, 167762, Note_off_c, 6, 69, 75
8, 167764, Note_on_c, 6, 81, 80
8, 167764, Note_on_c, 6, 69, 72
8, 168002, Note_off_c, 6, 81, 80
8, 168002, Note_off_c, 6, 69, 72
8, 168004, Note_on_c, 6, 71, 75
8, 168242, Note_off_c, 6, 71, 75
8, 168244, Note_on_c, 6, 74, 76
8, 168244, Note_on_c, 6, 71, 74
8, 168482, Note_off_c, 6, 74, 76
8, 168482, Note_off_c, 6, 71, 74
8, 168484, Note_on_c, 6, 80, 75
8, 168484, Note_on_c, 6, 71, 71
8, 168722, Note_off_c, 6, 80, 75
8, 168722, Note_off_c, 6, 71, 71
8, 168724, Note_on_c, 6, 81, 78
8, 168724, Note_on_c, 6, 71, 70
8, 168960, Note_off_c, 6, 81, 78
8, 168960, Note_off_c, 6, 71, 70
8, 168964, Note_on_c, 6, 72, 76
8, 169202, Note_off_c, 6, 72, 76
8, 169204, Note_on_c, 6, 76, 81
8, 169204, Note_on_c, 6, 72, 74
8, 169442, Note_off_c, 6, 76, 81
8, 169442, Note_off_c, 6, 72, 74
8, 169444, Note_on_c, 6, 80, 76
8, 169444, Note_on_c, 6, 72, 72
8, 169682, Note_off_c, 6, 80, 76
8, 169682, Note_off_c, 6, 72, 72
8, 169684, Note_on_c, 6, 81, 78
8, 169684, Note_on_c, 6, 72, 73
8, 169922, Note_off_c, 6, 81, 78
8, 169922, Note_off_c, 6, 72, 73
8, 169924, Note_on_c, 6, 74, 72
8, 170162, Note_off_c, 6, 74, 72
8, 170164, Note_on_c, 6, 77, 83
8, 170164, Note_on_c, 6, 74, 74
8, 170402, Note_off_c, 6, 77, 83
8, 170402, Note_off_c, 6, 74, 74
8, 170404, Note_on_c, 6, 80, 76
8, 170404, Note_on_c, 6, 74, 73
8, 170642, Note_off_c, 6, 80, 76
8, 170642, Note_off_c, 6, 74, 73
8, 170644, Note_on_c, 6, 81, 78
8, 170644, Note_on_c, 6, 74, 68
8, 170880, Note_off_c, 6, 81, 78
8, 170880, Note_off_c, 6, 74, 68
8, 170884, Note_on_c, 6, 69, 75
8, 171122, Note_off_c, 6, 69, 75
8, 171124, Note_on_c, 6, 72, 71
8, 171124, Note_on_c, 6, 69, 75
8, 171242, Note_off_c, 6, 72, 71
8, 171244, Note_on_c, 6, 74, 77
8, 171362, Note_off_c, 6, 69, 75
8, 171362, Note_off_c, 6, 74, 77
8, 171364, Note_on_c, 6, 76, 80
8, 171364, Note_on_c, 6, 69, 70
8, 171602, Note_off_c, 6, 76, 80
8, 171602, Note_off_c, 6, 69, 70
8, 171604, Note_on_c, 6, 81, 80
8, 171604, Note_on_c, 6, 69, 74
8, 171842, Note_off_c, 6, 81, 80
8, 171842, Note_off_c, 6, 69, 74
8, 171844, Note_on_c, 6, 71, 75
8, 172082, Note_off_c, 6, 71, 75
8, 172084, Note_on_c, 6, 74, 74
8, 172084, Note_on_c, 6, 71, 73
8, 172202, Note_off_c, 6, 74, 74
8, 172204, Note_on_c, 6, 76, 73
8, 172322, Note_off_c, 6, 71, 73
8, 172322, Note_off_c, 6, 76, 73
8, 172324, Note_on_c, 6, 77, 83
8, 172324, Note_on_c, 6, 71, 70
8, 172562, Note_off_c, 6, 77, 83
8, 172562, Note_off_c, 6, 71, 70
8, 172564, Note_on_c, 6, 81, 83
8, 172564, Note_on_c, 6, 71, 69
8, 172800, Note_off_c, 6, 81, 83
8, 172800, Note_off_c, 6, 71, 69
8, 172804, Note_on_c, 6, 72, 74
8, 173042, Note_off_c, 6, 72, 74
8, 173044, Note_on_c, 6, 76, 74
8, 173044, Note_on_c, 6, 72, 71
8, 173162, Note_off_c, 6, 76, 74
8, 173164, Note_on_c, 6, 74, 74
8, 173282, Note_off_c, 6, 72, 71
8, 173282, Note_off_c, 6, 74, 74
8, 173284, Note_on_c, 6, 76, 79
8, 173284, Note_on_c, 6, 72, 74
8, 173522, Note_off_c, 6, 76, 79
8, 173522, Note_off_c, 6, 72, 74
8, 173524, Note_on_c, 6, 81, 76
8, 173524, Note_on_c, 6, 72, 74
8, 173762, Note_off_c, 6, 81, 76
8, 173762, Note_off_c, 6, 72, 74
8, 173764, Note_on_c, 6, 74, 76
8, 174002, Note_off_c, 6, 74, 76
8, 174004, Note_on_c, 6, 77, 76
8, 174004, Note_on_c, 6, 74, 75
8, 174122, Note_off_c, 6, 77, 76
8, 174124, Note_on_c, 6, 76, 70
8, 174242, Note_off_c, 6, 74, 75
8, 174242, Note_off_c, 6, 76, 70
8, 174244, Note_on_c, 6, 77, 76
8, 174244, Note_on_c, 6, 74, 70
8, 174482, Note_off_c, 6, 77, 76
8, 174482, Note_off_c, 6, 74, 70
8, 174484, Note_on_c, 6, 81, 76
8, 174484, Note_on_c, 6, 74, 68
8, 174720, Note_off_c, 6, 81, 76
8, 174720, Note_off_c, 6, 74, 68
8, 174724, Note_on_c, 6, 69, 71
8, 174962, Note_off_c, 6, 69, 71
8, 174964, Note_on_c, 6, 76, 75
8, 174964, Note_on_c, 6, 69, 71
8, 175082, Note_off_c, 6, 76, 75
8, 175084, Note_on_c, 6, 74, 71
8, 175202, Note_off_c, 6, 69, 71
8, 175202, Note_off_c, 6, 74, 71
8, 175204, Note_on_c, 6, 76, 81
8, 175204, Note_on_c, 6, 69, 67
8, 175442, Note_off_c, 6, 76, 81
8, 175442, Note_off_c, 6, 69, 67
8, 175444, Note_on_c, 6, 84, 93
8, 175444, Note_on_c, 6, 69, 65
8, 175682, Note_off_c, 6, 84, 93
8, 175682, Note_off_c, 6, 69, 65
8, 175684, Note_on_c, 6, 71, 70
8, 175922, Note_off_c, 6, 71, 70
8, 175924, Note_on_c, 6, 74, 81
8, 175924, Note_on_c, 6, 71, 69
8, 176042, Note_off_c, 6, 74, 81
8, 176044, Note_on_c, 6, 72, 68
8, 176162, Note_off_c, 6, 71, 69
8, 176162, Note_off_c, 6, 72, 68
8, 176164, Note_on_c, 6, 74, 86
8, 176164, Note_on_c, 6, 71, 69
8, 176402, Note_off_c, 6, 74, 86
8, 176402, Note_off_c, 6, 71, 69
8, 176404, Note_on_c, 6, 83, 90
8, 176404, Note_on_c, 6, 71, 70
8, 176640, Note_off_c, 6, 83, 90
8, 176640, Note_off_c, 6, 71, 70
8, 176644, Note_on_c, 6, 64, 80
8, 176882, Note_off_c, 6, 64, 80
8, 176884, Note_on_c, 6, 74, 81
8, 176884, Note_on_c, 6, 64, 81
8, 177002, Note_off_c, 6, 74, 81
8, 177004, Note_on_c, 6, 72, 76
8, 177122, Note_off_c, 6, 64, 81
8, 177122, Note_off_c, 6, 72, 76
8, 177124, Note_on_c, 6, 74, 85
8, 177124, Note_on_c, 6, 64, 77
8, 177362, Note_off_c, 6, 74, 85
8, 177362, Note_off_c, 6, 64, 77
8, 177364, Note_on_c, 6, 83, 83
8, 177364, Note_on_c, 6, 64, 71
8, 177602, Note_off_c, 6, 83, 83
8, 177602, Note_off_c, 6, 64, 71
8, 177604, Note_on_c, 6, 81, 86
8, 177604, Note_on_c, 6, 57, 82
8, 177842, Note_off_c, 6, 81, 86
8, 177842, Note_off_c, 6, 57, 82
8, 188164, Note_on_c, 6, 48, 83
8, 188164, Note_on_c, 6, 52, 84
8, 188164, Note_on_c, 6, 45, 84
8, 188164, Note_on_c, 6, 57, 80
8, 188164, Note_on_c, 6, 72, 84
8, 188164, Note_on_c, 6, 69, 80
8, 188164, Note_on_c, 6, 76, 83
8, 188164, Note_on_c, 6, 64, 85
8, 188642, Note_off_c, 6, 48, 83
8, 188642, Note_off_c, 6, 52, 84
8, 188642, Note_off_c, 6, 45, 84
8, 188642, Note_off_c, 6, 57, 80
8, 188642, Note_off_c, 6, 72, 84
8, 188642, Note_off_c, 6, 69, 80
8, 188642, Note_off_c, 6, 76, 83
8, 188642, Note_off_c, 6, 64, 85
8, 188884, Note_on_c, 6, 57, 78
8, 188884, Note_on_c, 6, 76, 84
8, 189122, Note_off_c, 6, 57, 78
8, 189122, Note_off_c, 6, 76, 84
8, 189124, Note_on_c, 6, 45, 76
8, 189124, Note_on_c, 6, 72, 80
8, 189362, Note_off_c, 6, 45, 76
8, 189362, Note_off_c, 6, 72, 80
8, 189364, Note_on_c, 6, 57, 69
8, 189364, Note_on_c, 6, 69, 78
8, 189602, Note_off_c, 6, 57, 69
8, 189602, Note_off_c, 6, 69, 78
8, 189604, Note_on_c, 6, 56, 67
8, 189842, Note_off_c, 6, 56, 67
8, 189844, Note_on_c, 6, 52, 75
8, 189844, Note_on_c, 6, 76, 85
8, 190080, Note_off_c, 6, 52, 75
8, 190080, Note_off_c, 6, 76, 85
8, 190084, Note_on_c, 6, 72, 87
8, 190322, Note_off_c, 6, 72, 87
8, 190324, Note_on_c, 6, 57, 76
8, 190324, Note_on_c, 6, 69, 88
8, 190562, Note_off_c, 6, 57, 76
8, 190562, Note_off_c, 6, 69, 88
8, 190564, Note_on_c, 6, 56, 74
8, 190802, Note_off_c, 6, 56, 74
8, 190804, Note_on_c, 6, 52, 76
8, 190804, Note_on_c, 6, 76, 89
8, 191042, Note_off_c, 6, 52, 76
8, 191042, Note_off_c, 6, 76, 89
8, 191044, Note_on_c, 6, 72, 82
8, 191282, Note_off_c, 6, 72, 82
8, 191284, Note_on_c, 6, 57, 75
8, 191284, Note_on_c, 6, 69, 81
8, 191522, Note_off_c, 6, 57, 75
8, 191522, Note_off_c, 6, 69, 81
8, 191524, Note_on_c, 6, 56, 74
8, 191762, Note_off_c, 6, 56, 74
8, 191764, Note_on_c, 6, 52, 83
8, 191764, Note_on_c, 6, 76, 92
8, 192000, Note_off_c, 6, 52, 83
8, 192000, Note_off_c, 6, 76, 92
8, 192004, Note_on_c, 6, 45, 84
8, 192004, Note_on_c, 6, 72, 78
8, 192122, Note_off_c, 6, 45, 84
8, 192122, Note_off_c, 6, 72, 78
8, 192124, Note_on_c, 6, 57, 79
8, 192124, Note_on_c, 6, 76, 78
8, 192242, Note_off_c, 6, 57, 79
8, 192242, Note_off_c, 6, 76, 78
8, 192244, Note_on_c, 6, 60, 79
8, 192244, Note_on_c, 6, 76, 75
8, 192362, Note_off_c, 6, 60, 79
8, 192362, Note_off_c, 6, 76, 75
8, 192364, Note_on_c, 6, 64, 80
8, 192364, Note_on_c, 6, 76, 76
8, 192482, Note_off_c, 6, 64, 80
8, 192482, Note_off_c, 6, 76, 76
8, 192484, Note_on_c, 6, 60, 85
8, 192484, Note_on_c, 6, 81, 85
8, 192602, Note_off_c, 6, 60, 85
8, 192602, Note_off_c, 6, 81, 85
8, 192604, Note_on_c, 6, 57, 72
8, 192604, Note_on_c, 6, 76, 75
8, 192722, Note_off_c, 6, 57, 72
8, 192722, Note_off_c, 6, 76, 75
8, 192724, Note_on_c, 6, 60, 73
8, 192724, Note_on_c, 6, 76, 69
8, 192842, Note_off_c, 6, 60, 73
8, 192842, Note_off_c, 6, 76, 69
8, 192844, Note_on_c, 6, 64, 76
8, 192844, Note_on_c, 6, 76, 72
8, 192962, Note_off_c, 6, 64, 76
8, 192962, Note_off_c, 6, 76, 72
8, 192964, Note_on_c, 6, 60, 81
8, 192964, Note_on_c, 6, 81, 87
8, 193082, Note_off_c, 6, 60, 81
8, 193082, Note_off_c, 6, 81, 87
8, 193084, Note_on_c, 6, 57, 65
8, 193084, Note_on_c, 6, 76, 71
8, 193202, Note_off_c, 6, 57, 65
8, 193202, Note_off_c, 6, 76, 71
8, 193204, Note_on_c, 6, 60, 68
8, 193204, Note_on_c, 6, 76, 69
8, 193322, Note_off_c, 6, 60, 68
8, 193322, Note_off_c, 6, 76, 69
8, 193324, Note_on_c, 6, 64, 72
8, 193324, Note_on_c, 6, 76, 71
8, 193442, Note_off_c, 6, 64, 72
8, 193442, Note_off_c, 6, 76, 71
8, 193444, Note_on_c, 6, 60, 82
8, 193444, Note_on_c, 6, 81, 85
8, 193562, Note_off_c, 6, 60, 82
8, 193562, Note_off_c, 6, 81, 85
8, 193564, Note_on_c, 6, 57, 68
8, 193564, Note_on_c, 6, 76, 74
8, 193682, Note_off_c, 6, 57, 68
8, 193682, Note_off_c, 6, 76, 74
8, 193684, Note_on_c, 6, 60, 75
8, 193684, Note_on_c, 6, 76, 66
8, 193802, Note_off_c, 6, 60, 75
8, 193802, Note_off_c, 6, 76, 66
8, 193804, Note_on_c, 6, 64, 83
8, 193804, Note_on_c, 6, 76, 69
8, 193920, Note_off_c, 6, 64, 83
8, 193920, Note_off_c, 6, 76, 69
8, 193924, Note_on_c, 6, 60, 85
8, 193924, Note_on_c, 6, 81, 85
8, 194162, Note_off_c, 6, 60, 85
8, 194162, Note_off_c, 6, 81, 85
8, 194164, Note_on_c, 6, 60, 80
8, 194164, Note_on_c, 6, 57, 71
8, 194164, Note_on_c, 6, 79, 80
8, 194282, Note_off_c, 6, 79, 80
8, 194284, Note_on_c, 6, 77, 81
8, 194402, Note_off_c, 6, 60, 80
8, 194402, Note_off_c, 6, 57, 71
8, 194402, Note_off_c, 6, 77, 81
8, 194404, Note_on_c, 6, 56, 72
8, 194404, Note_on_c, 6, 59, 77
8, 194404, Note_on_c, 6, 76, 80
8, 194642, Note_off_c, 6, 56, 72
8, 194642, Note_off_c, 6, 59, 77
8, 194642, Note_off_c, 6, 76, 80
8, 194644, Note_on_c, 6, 56, 76
8, 194644, Note_on_c, 6, 52, 76
8, 194644, Note_on_c, 6, 74, 81
8, 194882, Note_off_c, 6, 56, 76
8, 194882, Note_off_c, 6, 52, 76
8, 194882, Note_off_c, 6, 74, 81
8, 194884, Note_on_c, 6, 57, 86
8, 194884, Note_on_c, 6, 72, 88
8, 195122, Note_off_c, 6, 57, 86
8, 195124, Note_on_c, 6, 50, 83
8, 195362, Note_off_c, 6, 72, 88
8, 195362, Note_off_c, 6, 50, 83
8, 195364, Note_on_c, 6, 52, 83
8, 195364, Note_on_c, 6, 72, 88
8, 195422, Note_off_c, 6, 72, 88
8, 195424, Note_on_c, 6, 71, 79
8, 195482, Note_off_c, 6, 71, 79
8, 195484, Note_on_c, 6, 72, 89
8, 195542, Note_off_c, 6, 72, 89
8, 195544, Note_on_c, 6, 71, 74
8, 195602, Note_off_c, 6, 52, 83
8, 195602, Note_off_c, 6, 71, 74
8, 195604, Note_on_c, 6, 40, 83
8, 195604, Note_on_c, 6, 72, 85
8, 195662, Note_off_c, 6, 72, 85
8, 195664, Note_on_c, 6, 71, 78
8, 195722, Note_off_c, 6, 71, 78
8, 195724, Note_on_c, 6, 72, 83
8, 195782, Note_off_c, 6, 72, 83
8, 195784, Note_on_c, 6, 71, 79
8, 195840, Note_off_c, 6, 40, 83
8, 195840, Note_off_c, 6, 71, 79
8, 195844, Note_on_c, 6, 45, 82
8, 195844, Note_on_c, 6, 69, 82
8, 195962, Note_off_c, 6, 69, 82
8, 195964, Note_on_c, 6, 60, 76
8, 196082, Note_off_c, 6, 60, 76
8, 196084, Note_on_c, 6, 59, 69
8, 196202, Note_off_c, 6, 59, 69
8, 196204, Note_on_c, 6, 60, 71
8, 196322, Note_off_c, 6, 45, 82
8, 196322, Note_off_c, 6, 60, 71
8, 196324, Note_on_c, 6, 64, 88
8, 196442, Note_off_c, 6, 64, 88
8, 196444, Note_on_c, 6, 60, 68
8, 196562, Note_off_c, 6, 60, 68
8, 196564, Note_on_c, 6, 52, 79
8, 196564, Note_on_c, 6, 59, 64
8, 196682, Note_off_c, 6, 59, 64
8, 196684, Note_on_c, 6, 60, 69
8, 196802, Note_off_c, 6, 52, 79
8, 196802, Note_off_c, 6, 60, 69
8, 196804, Note_on_c, 6, 48, 79
8, 196804, Note_on_c, 6, 64, 86
8, 196922, Note_off_c, 6, 64, 86
8, 196924, Note_on_c, 6, 60, 72
8, 197042, Note_off_c, 6, 48, 79
8, 197042, Note_off_c, 6, 60, 72
8, 197044, Note_on_c, 6, 45, 69
8, 197044, Note_on_c, 6, 59, 71
8, 197162, Note_off_c, 6, 59, 71
8, 197164, Note_on_c, 6, 60, 76
8, 197282, Note_off_c, 6, 45, 69
8, 197282, Note_off_c, 6, 60, 76
8, 197284, Note_on_c, 6, 64, 83
8, 197402, Note_off_c, 6, 64, 83
8, 197404, Note_on_c, 6, 60, 73
8, 197522, Note_off_c, 6, 60, 73
8, 197524, Note_on_c, 6, 52, 78
8, 197524, Note_on_c, 6, 59, 71
8, 197642, Note_off_c, 6, 59, 71
8, 197644, Note_on_c, 6, 60, 76
8, 197760, Note_off_c, 6, 52, 78
8, 197760, Note_off_c, 6, 60, 76
8, 197764, Note_on_c, 6, 48, 73
8, 197764, Note_on_c, 6, 69, 88
8, 198002, Note_off_c, 6, 48, 73
8, 198002, Note_off_c, 6, 69, 88
8, 198004, Note_on_c, 6, 45, 76
8, 198004, Note_on_c, 6, 67, 76
8, 198122, Note_off_c, 6, 67, 76
8, 198124, Note_on_c, 6, 65, 80
8, 198242, Note_off_c, 6, 45, 76
8, 198242, Note_off_c, 6, 65, 80
8, 198244, Note_on_c, 6, 44, 68
8, 198244, Note_on_c, 6, 64, 81
8, 198482, Note_off_c, 6, 44, 68
8, 198482, Note_off_c, 6, 64, 81
8, 198484, Note_on_c, 6, 40, 78
8, 198484, Note_on_c, 6, 62, 86
8, 198722, Note_off_c, 6, 40, 78
8, 198722, Note_off_c, 6, 62, 86
8, 198724, Note_on_c, 6, 45, 81
8, 198724, Note_on_c, 6, 60, 87
8, 198962, Note_off_c, 6, 45, 81
8, 198964, Note_on_c, 6, 50, 80
8, 199200, Note_on_c, 6, 60, 76
8, 199202, Note_off_c, 6, 60, 87
8, 199202, Note_off_c, 6, 50, 80
8, 199204, Note_on_c, 6, 52, 73
8, 199228, Note_off_c, 6, 60, 76
8, 199230, Note_on_c, 6, 59, 61
8, 199258, Note_off_c, 6, 59, 61
8, 199260, Note_on_c, 6, 60, 69
8, 199288, Note_off_c, 6, 60, 69
8, 199290, Note_on_c, 6, 59, 59
8, 199318, Note_off_c, 6, 59, 59
8, 199320, Note_on_c, 6, 60, 64
8, 199348, Note_off_c, 6, 60, 64
8, 199350, Note_on_c, 6, 59, 53
8, 199378, Note_off_c, 6, 59, 53
8, 199380, Note_on_c, 6, 60, 63
8, 199408, Note_off_c, 6, 60, 63
8, 199410, Note_on_c, 6, 59, 55
8, 199438, Note_off_c, 6, 59, 55
8, 199440, Note_on_c, 6, 60, 59
8, 199442, Note_off_c, 6, 52, 73
8, 199444, Note_on_c, 6, 40, 76
8, 199468, Note_off_c, 6, 60, 59
8, 199470, Note_on_c, 6, 59, 48
8, 199498, Note_off_c, 6, 59, 48
8, 199500, Note_on_c, 6, 60, 53
8, 199528, Note_off_c, 6, 60, 53
8, 199530, Note_on_c, 6, 59, 54
8, 199558, Note_off_c, 6, 59, 54
8, 199560, Note_on_c, 6, 60, 63
8, 199588, Note_off_c, 6, 60, 63
8, 199590, Note_on_c, 6, 59, 69
8, 199618, Note_off_c, 6, 59, 69
8, 199620, Note_on_c, 6, 60, 73
8, 199648, Note_off_c, 6, 60, 73
8, 199650, Note_on_c, 6, 59, 84
8, 199680, Note_off_c, 6, 40, 76
8, 199680, Note_off_c, 6, 59, 84
8, 199792, Note_on_c, 6, 57, 99
8, 199804, Note_on_c, 6, 45, 92
8, 201600, Note_off_c, 6, 57, 99
8, 201600, Note_off_c, 6, 45, 92
8, 201600, End_track
9, 0, Start_track
9, 0, Title_t, "Cembalo 4"
9, 0, Key_signature, 0, "major"
9, 340, Control_c, 7, 0, 0
9, 345, Control_c, 7, 32, 0
9, 350, Program_c, 7, 6
9, 355, Control_c, 7, 7, 112
9, 360, Control_c, 7, 10, 123
9, 365, Control_c, 7, 91, 127
9, 370, Control_c, 7, 93, 0
9, 375, Control_c, 7, 101, 0
9, 380, Control_c, 7, 100, 0
9, 385, Control_c, 7, 6, 2
9, 11528, Note_on_c, 7, 60, 93
9, 11528, Note_on_c, 7, 57, 87
9, 11528, Note_on_c, 7, 69, 88
9, 11528, Note_on_c, 7, 64, 93
9, 11528, Note_on_c, 7, 72, 86
9, 12006, Note_off_c, 7, 60, 93
9, 12006, Note_off_c, 7, 57, 87
9, 12006, Note_off_c, 7, 69, 88
9, 12006, Note_off_c, 7, 64, 93
9, 12006, Note_off_c, 7, 72, 86
9, 12248, Note_on_c, 7, 69, 89
9, 12486, Note_off_c, 7, 69, 89
9, 12488, Note_on_c, 7, 76, 103
9, 12606, Note_off_c, 7, 76, 103
9, 12608, Note_on_c, 7, 74, 101
9, 12726, Note_off_c, 7, 74, 101
9, 12728, Note_on_c, 7, 60, 90
9, 12728, Note_on_c, 7, 76, 100
9, 12966, Note_off_c, 7, 60, 90
9, 12966, Note_off_c, 7, 76, 100
9, 12968, Note_on_c, 7, 59, 83
9, 13088, Note_on_c, 7, 68, 99
9, 13206, Note_off_c, 7, 59, 83
9, 13206, Note_off_c, 7, 68, 99
9, 13208, Note_on_c, 7, 56, 87
9, 13208, Note_on_c, 7, 71, 99
9, 13326, Note_off_c, 7, 71, 99
9, 13328, Note_on_c, 7, 76, 99
9, 13440, Note_off_c, 7, 56, 87
9, 13440, Note_off_c, 7, 76, 99
9, 13448, Note_on_c, 7, 76, 99
9, 13566, Note_off_c, 7, 76, 99
9, 13568, Note_on_c, 7, 74, 96
9, 13686, Note_off_c, 7, 74, 96
9, 13688, Note_on_c, 7, 60, 86
9, 13688, Note_on_c, 7, 76, 97
9, 13926, Note_off_c, 7, 60, 86
9, 13926, Note_off_c, 7, 76, 97
9, 13928, Note_on_c, 7, 59, 87
9, 14048, Note_on_c, 7, 68, 95
9, 14166, Note_off_c, 7, 59, 87
9, 14166, Note_off_c, 7, 68, 95
9, 14168, Note_on_c, 7, 56, 73
9, 14168, Note_on_c, 7, 71, 96
9, 14286, Note_off_c, 7, 71, 96
9, 14288, Note_on_c, 7, 76, 98
9, 14406, Note_off_c, 7, 56, 73
9, 14406, Note_off_c, 7, 76, 98
9, 14408, Note_on_c, 7, 76, 97
9, 14526, Note_off_c, 7, 76, 97
9, 14528, Note_on_c, 7, 74, 94
9, 14646, Note_off_c, 7, 74, 94
9, 14648, Note_on_c, 7, 60, 88
9, 14648, Note_on_c, 7, 76, 102
9, 14886, Note_off_c, 7, 60, 88
9, 14886, Note_off_c, 7, 76, 102
9, 14888, Note_on_c, 7, 59, 88
9, 15008, Note_on_c, 7, 68, 95
9, 15126, Note_off_c, 7, 59, 88
9, 15126, Note_off_c, 7, 68, 95
9, 15128, Note_on_c, 7, 56, 76
9, 15128, Note_on_c, 7, 71, 95
9, 15246, Note_off_c, 7, 71, 95
9, 15248, Note_on_c, 7, 76, 95
9, 15360, Note_off_c, 7, 56, 76
9, 15360, Note_off_c, 7, 76, 95
9, 15368, Note_on_c, 7, 52, 81
9, 15368, Note_on_c, 7, 76, 83
9, 15486, Note_off_c, 7, 76, 83
9, 15488, Note_on_c, 7, 74, 79
9, 15606, Note_off_c, 7, 52, 81
9, 15606, Note_off_c, 7, 74, 79
9, 15608, Note_on_c, 7, 60, 84
9, 15608, Note_on_c, 7, 76, 81
9, 15846, Note_off_c, 7, 60, 84
9, 15846, Note_off_c, 7, 76, 81
9, 15848, Note_on_c, 7, 57, 79
9, 16088, Note_on_c, 7, 76, 82
9, 16326, Note_off_c, 7, 57, 79
9, 16326, Note_off_c, 7, 76, 82
9, 16328, Note_on_c, 7, 81, 91
9, 16568, Note_on_c, 7, 60, 89
9, 16806, Note_off_c, 7, 81, 91
9, 16806, Note_off_c, 7, 60, 89
9, 16808, Note_on_c, 7, 57, 86
9, 17048, Note_on_c, 7, 76, 86
9, 17280, Note_off_c, 7, 57, 86
9, 17280, Note_off_c, 7, 76, 86
9, 17288, Note_on_c, 7, 81, 88
9, 17528, Note_on_c, 7, 60, 84
9, 17766, Note_off_c, 7, 81, 88
9, 17766, Note_off_c, 7, 60, 84
9, 17768, Note_on_c, 7, 57, 84
9, 17888, Note_on_c, 7, 69, 90
9, 18006, Note_off_c, 7, 57, 84
9, 18006, Note_off_c, 7, 69, 90
9, 18008, Note_on_c, 7, 52, 87
9, 18008, Note_on_c, 7, 71, 83
9, 18126, Note_off_c, 7, 71, 83
9, 18128, Note_on_c, 7, 72, 87
9, 18246, Note_off_c, 7, 52, 87
9, 18246, Note_off_c, 7, 72, 87
9, 18248, Note_on_c, 7, 64, 94
9, 18248, Note_on_c, 7, 69, 87
9, 18306, Note_off_c, 7, 69, 87
9, 18308, Note_on_c, 7, 68, 81
9, 18366, Note_off_c, 7, 68, 81
9, 18368, Note_on_c, 7, 69, 84
9, 18426, Note_off_c, 7, 69, 84
9, 18428, Note_on_c, 7, 68, 79
9, 18486, Note_off_c, 7, 68, 79
9, 18488, Note_on_c, 7, 69, 85
9, 18546, Note_off_c, 7, 69, 85
9, 18548, Note_on_c, 7, 68, 80
9, 18606, Note_off_c, 7, 68, 80
9, 18608, Note_on_c, 7, 69, 84
9, 18666, Note_off_c, 7, 69, 84
9, 18668, Note_on_c, 7, 68, 76
9, 18726, Note_off_c, 7, 64, 94
9, 18726, Note_off_c, 7, 68, 76
9, 25928, Note_on_c, 7, 76, 87
9, 25928, Note_on_c, 7, 72, 80
9, 25928, Note_on_c, 7, 69, 76
9, 25928, Note_on_c, 7, 64, 83
9, 25928, Note_on_c, 7, 52, 87
9, 25928, Note_on_c, 7, 57, 83
9, 25928, Note_on_c, 7, 48, 84
9, 25928, Note_on_c, 7, 45, 86
9, 26406, Note_off_c, 7, 76, 87
9, 26406, Note_off_c, 7, 72, 80
9, 26406, Note_off_c, 7, 69, 76
9, 26406, Note_off_c, 7, 64, 83
9, 26406, Note_off_c, 7, 52, 87
9, 26406, Note_off_c, 7, 57, 83
9, 26406, Note_off_c, 7, 48, 84
9, 26406, Note_off_c, 7, 45, 86
9, 26648, Note_on_c, 7, 57, 87
9, 26648, Note_on_c, 7, 76, 91
9, 26880, Note_off_c, 7, 57, 87
9, 26880, Note_off_c, 7, 76, 91
9, 26888, Note_on_c, 7, 45, 77
9, 26888, Note_on_c, 7, 72, 84
9, 27126, Note_off_c, 7, 45, 77
9, 27126, Note_off_c, 7, 72, 84
9, 27128, Note_on_c, 7, 57, 78
9, 27128, Note_on_c, 7, 69, 82
9, 27366, Note_off_c, 7, 57, 78
9, 27366, Note_off_c, 7, 69, 82
9, 27368, Note_on_c, 7, 56, 78
9, 27606, Note_off_c, 7, 56, 78
9, 27608, Note_on_c, 7, 52, 84
9, 27608, Note_on_c, 7, 76, 89
9, 27846, Note_off_c, 7, 52, 84
9, 27846, Note_off_c, 7, 76, 89
9, 27848, Note_on_c, 7, 72, 93
9, 28086, Note_off_c, 7, 72, 93
9, 28088, Note_on_c, 7, 57, 79
9, 28088, Note_on_c, 7, 69, 86
9, 28326, Note_off_c, 7, 57, 79
9, 28326, Note_off_c, 7, 69, 86
9, 28328, Note_on_c, 7, 56, 75
9, 28566, Note_off_c, 7, 56, 75
9, 28568, Note_on_c, 7, 52, 74
9, 28568, Note_on_c, 7, 76, 88
9, 28800, Note_off_c, 7, 52, 74
9, 28800, Note_off_c, 7, 76, 88
9, 28808, Note_on_c, 7, 72, 86
9, 29046, Note_off_c, 7, 72, 86
9, 29048, Note_on_c, 7, 57, 77
9, 29048, Note_on_c, 7, 69, 82
9, 29286, Note_off_c, 7, 57, 77
9, 29286, Note_off_c, 7, 69, 82
9, 29288, Note_on_c, 7, 56, 70
9, 29526, Note_off_c, 7, 56, 70
9, 29528, Note_on_c, 7, 52, 77
9, 29528, Note_on_c, 7, 76, 86
9, 29766, Note_off_c, 7, 52, 77
9, 29766, Note_off_c, 7, 76, 86
9, 29768, Note_on_c, 7, 45, 84
9, 29768, Note_on_c, 7, 74, 84
9, 29826, Note_off_c, 7, 74, 84
9, 29828, Note_on_c, 7, 72, 88
9, 29886, Note_off_c, 7, 72, 88
9, 29888, Note_on_c, 7, 74, 84
9, 29946, Note_off_c, 7, 74, 84
9, 29948, Note_on_c, 7, 72, 84
9, 30006, Note_off_c, 7, 72, 84
9, 30008, Note_on_c, 7, 69, 80
9, 30126, Note_off_c, 7, 69, 80
9, 30128, Note_on_c, 7, 71, 83
9, 30246, Note_off_c, 7, 45, 84
9, 30246, Note_off_c, 7, 71, 83
9, 30248, Note_on_c, 7, 72, 82
9, 30486, Note_off_c, 7, 72, 82
9, 30488, Note_on_c, 7, 57, 72
9, 30488, Note_on_c, 7, 72, 82
9, 30720, Note_off_c, 7, 57, 72
9, 30720, Note_off_c, 7, 72, 82
9, 30728, Note_on_c, 7, 45, 82
9, 30728, Note_on_c, 7, 74, 83
9, 30786, Note_off_c, 7, 74, 83
9, 30788, Note_on_c, 7, 72, 78
9, 30846, Note_off_c, 7, 72, 78
9, 30848, Note_on_c, 7, 74, 80
9, 30906, Note_off_c, 7, 74, 80
9, 30908, Note_on_c, 7, 72, 74
9, 30966, Note_off_c, 7, 72, 74
9, 30968, Note_on_c, 7, 69, 80
9, 31086, Note_off_c, 7, 69, 80
9, 31088, Note_on_c, 7, 71, 76
9, 31206, Note_off_c, 7, 45, 82
9, 31206, Note_off_c, 7, 71, 76
9, 31208, Note_on_c, 7, 60, 83
9, 31208, Note_on_c, 7, 72, 85
9, 31446, Note_off_c, 7, 60, 83
9, 31446, Note_off_c, 7, 72, 85
9, 31448, Note_on_c, 7, 57, 81
9, 31448, Note_on_c, 7, 72, 87
9, 31686, Note_off_c, 7, 57, 81
9, 31686, Note_off_c, 7, 72, 87
9, 31688, Note_on_c, 7, 45, 76
9, 31688, Note_on_c, 7, 72, 83
9, 31926, Note_off_c, 7, 45, 76
9, 31926, Note_off_c, 7, 72, 83
9, 31928, Note_on_c, 7, 57, 82
9, 31928, Note_on_c, 7, 72, 76
9, 32046, Note_off_c, 7, 57, 82
9, 32048, Note_on_c, 7, 56, 80
9, 32166, Note_off_c, 7, 72, 76
9, 32166, Note_off_c, 7, 56, 80
9, 32168, Note_on_c, 7, 57, 85
9, 32168, Note_on_c, 7, 74, 78
9, 32226, Note_off_c, 7, 74, 78
9, 32228, Note_on_c, 7, 72, 76
9, 32286, Note_off_c, 7, 72, 76
9, 32288, Note_on_c, 7, 74, 79
9, 32346, Note_off_c, 7, 74, 79
9, 32348, Note_on_c, 7, 72, 71
9, 32406, Note_off_c, 7, 57, 85
9, 32406, Note_off_c, 7, 72, 71
9, 32408, Note_on_c, 7, 45, 79
9, 32408, Note_on_c, 7, 71, 82
9, 32526, Note_off_c, 7, 71, 82
9, 32528, Note_on_c, 7, 69, 80
9, 32640, Note_off_c, 7, 45, 79
9, 32640, Note_off_c, 7, 69, 80
9, 32648, Note_on_c, 7, 52, 84
9, 32648, Note_on_c, 7, 68, 88
9, 32886, Note_off_c, 7, 52, 84
9, 32888, Note_on_c, 7, 54, 74
9, 33126, Note_off_c, 7, 68, 88
9, 33126, Note_off_c, 7, 54, 74
9, 33128, Note_on_c, 7, 56, 76
9, 33248, Note_on_c, 7, 71, 77
9, 33366, Note_off_c, 7, 56, 76
9, 33366, Note_off_c, 7, 71, 77
9, 33368, Note_on_c, 7, 72, 81
9, 33368, Note_on_c, 7, 52, 87
9, 33486, Note_off_c, 7, 72, 81
9, 33488, Note_on_c, 7, 74, 80
9, 33606, Note_off_c, 7, 52, 87
9, 33606, Note_off_c, 7, 74, 80
9, 33608, Note_on_c, 7, 72, 88
9, 33608, Note_on_c, 7, 45, 86
9, 33726, Note_off_c, 7, 72, 88
9, 33728, Note_on_c, 7, 71, 71
9, 33846, Note_off_c, 7, 45, 86
9, 33846, Note_off_c, 7, 71, 71
9, 33848, Note_on_c, 7, 69, 66
9, 33848, Note_on_c, 7, 57, 83
9, 33966, Note_off_c, 7, 69, 66
9, 33968, Note_on_c, 7, 72, 73
9, 34086, Note_off_c, 7, 57, 83
9, 34086, Note_off_c, 7, 72, 73
9, 34088, Note_on_c, 7, 76, 85
9, 34088, Note_on_c, 7, 56, 78
9, 34206, Note_off_c, 7, 76, 85
9, 34208, Note_on_c, 7, 71, 66
9, 34326, Note_off_c, 7, 56, 78
9, 34326, Note_off_c, 7, 71, 66
9, 34328, Note_on_c, 7, 72, 71
9, 34328, Note_on_c, 7, 52, 88
9, 34446, Note_off_c, 7, 72, 71
9, 34448, Note_on_c, 7, 74, 77
9, 34560, Note_off_c, 7, 52, 88
9, 34560, Note_off_c, 7, 74, 77
9, 34568, Note_on_c, 7, 72, 89
9, 34568, Note_on_c, 7, 45, 89
9, 34686, Note_off_c, 7, 72, 89
9, 34688, Note_on_c, 7, 71, 77
9, 34806, Note_off_c, 7, 45, 89
9, 34806, Note_off_c, 7, 71, 77
9, 34808, Note_on_c, 7, 69, 66
9, 34808, Note_on_c, 7, 57, 83
9, 34926, Note_off_c, 7, 69, 66
9, 34928, Note_on_c, 7, 72, 81
9, 35046, Note_off_c, 7, 57, 83
9, 35046, Note_off_c, 7, 72, 81
9, 35048, Note_on_c, 7, 76, 86
9, 35048, Note_on_c, 7, 56, 78
9, 35166, Note_off_c, 7, 76, 86
9, 35168, Note_on_c, 7, 71, 68
9, 35286, Note_off_c, 7, 56, 78
9, 35286, Note_off_c, 7, 71, 68
9, 35288, Note_on_c, 7, 72, 71
9, 35288, Note_on_c, 7, 52, 89
9, 35406, Note_off_c, 7, 72, 71
9, 35408, Note_on_c, 7, 74, 71
9, 35526, Note_off_c, 7, 52, 89
9, 35526, Note_off_c, 7, 74, 71
9, 35528, Note_on_c, 7, 72, 83
9, 35528, Note_on_c, 7, 45, 87
9, 35646, Note_off_c, 7, 72, 83
9, 35648, Note_on_c, 7, 71, 66
9, 35766, Note_off_c, 7, 45, 87
9, 35766, Note_off_c, 7, 71, 66
9, 35768, Note_on_c, 7, 69, 66
9, 35768, Note_on_c, 7, 57, 81
9, 35886, Note_off_c, 7, 69, 66
9, 35888, Note_on_c, 7, 72, 80
9, 36006, Note_off_c, 7, 57, 81
9, 36006, Note_off_c, 7, 72, 80
9, 36008, Note_on_c, 7, 76, 81
9, 36008, Note_on_c, 7, 56, 75
9, 36126, Note_off_c, 7, 76, 81
9, 36128, Note_on_c, 7, 71, 74
9, 36246, Note_off_c, 7, 56, 75
9, 36246, Note_off_c, 7, 71, 74
9, 36248, Note_on_c, 7, 72, 70
9, 36248, Note_on_c, 7, 52, 86
9, 36366, Note_off_c, 7, 72, 70
9, 36368, Note_on_c, 7, 74, 75
9, 36480, Note_off_c, 7, 52, 86
9, 36480, Note_off_c, 7, 74, 75
9, 36488, Note_on_c, 7, 72, 72
9, 36488, Note_on_c, 7, 45, 77
9, 36606, Note_off_c, 7, 72, 72
9, 36608, Note_on_c, 7, 69, 77
9, 36726, Note_off_c, 7, 45, 77
9, 36726, Note_off_c, 7, 69, 77
9, 36728, Note_on_c, 7, 72, 82
9, 36728, Note_on_c, 7, 57, 80
9, 36846, Note_off_c, 7, 72, 82
9, 36848, Note_on_c, 7, 76, 76
9, 36966, Note_off_c, 7, 57, 80
9, 36966, Note_off_c, 7, 76, 76
9, 36968, Note_on_c, 7, 81, 85
9, 36968, Note_on_c, 7, 60, 85
9, 37086, Note_off_c, 7, 81, 85
9, 37088, Note_on_c, 7, 69, 66
9, 37206, Note_off_c, 7, 60, 85
9, 37206, Note_off_c, 7, 69, 66
9, 37208, Note_on_c, 7, 72, 81
9, 37208, Note_on_c, 7, 57, 86
9, 37326, Note_off_c, 7, 72, 81
9, 37328, Note_on_c, 7, 76, 81
9, 37446, Note_off_c, 7, 57, 86
9, 37446, Note_off_c, 7, 76, 81
9, 37448, Note_on_c, 7, 81, 90
9, 37448, Note_on_c, 7, 45, 83
9, 37566, Note_off_c, 7, 81, 90
9, 37568, Note_on_c, 7, 69, 76
9, 37686, Note_off_c, 7, 45, 83
9, 37686, Note_off_c, 7, 69, 76
9, 37688, Note_on_c, 7, 72, 79
9, 37688, Note_on_c, 7, 57, 83
9, 37806, Note_off_c, 7, 72, 79
9, 37808, Note_on_c, 7, 76, 79
9, 37926, Note_off_c, 7, 57, 83
9, 37926, Note_off_c, 7, 76, 79
9, 37928, Note_on_c, 7, 81, 95
9, 37928, Note_on_c, 7, 60, 81
9, 38046, Note_off_c, 7, 81, 95
9, 38048, Note_on_c, 7, 79, 98
9, 38166, Note_off_c, 7, 60, 81
9, 38166, Note_off_c, 7, 79, 98
9, 38168, Note_on_c, 7, 77, 96
9, 38168, Note_on_c, 7, 57, 77
9, 38286, Note_off_c, 7, 77, 96
9, 38288, Note_on_c, 7, 76, 96
9, 38400, Note_off_c, 7, 57, 77
9, 38400, Note_off_c, 7, 76, 96
9, 38408, Note_on_c, 7, 77, 96
9, 38408, Note_on_c, 7, 50, 80
9, 38526, Note_off_c, 7, 77, 96
9, 38528, Note_on_c, 7, 74, 86
9, 38646, Note_off_c, 7, 50, 80
9, 38646, Note_off_c, 7, 74, 86
9, 38648, Note_on_c, 7, 72, 84
9, 38648, Note_on_c, 7, 62, 79
9, 38766, Note_off_c, 7, 72, 84
9, 38768, Note_on_c, 7, 74, 81
9, 38886, Note_off_c, 7, 62, 79
9, 38886, Note_off_c, 7, 74, 81
9, 38888, Note_on_c, 7, 79, 103
9, 38888, Note_on_c, 7, 59, 77
9, 39006, Note_off_c, 7, 79, 103
9, 39008, Note_on_c, 7, 77, 96
9, 39126, Note_off_c, 7, 59, 77
9, 39126, Note_off_c, 7, 77, 96
9, 39128, Note_on_c, 7, 76, 91
9, 39128, Note_on_c, 7, 55, 86
9, 39246, Note_off_c, 7, 76, 91
9, 39248, Note_on_c, 7, 74, 84
9, 39366, Note_off_c, 7, 55, 86
9, 39366, Note_off_c, 7, 74, 84
9, 39368, Note_on_c, 7, 76, 95
9, 39368, Note_on_c, 7, 48, 82
9, 39486, Note_off_c, 7, 76, 95
9, 39488, Note_on_c, 7, 72, 89
9, 39606, Note_off_c, 7, 48, 82
9, 39606, Note_off_c, 7, 72, 89
9, 39608, Note_on_c, 7, 71, 87
9, 39608, Note_on_c, 7, 60, 83
9, 39726, Note_off_c, 7, 71, 87
9, 39728, Note_on_c, 7, 72, 91
9, 39846, Note_off_c, 7, 60, 83
9, 39846, Note_off_c, 7, 72, 91
9, 39848, Note_on_c, 7, 77, 93
9, 39848, Note_on_c, 7, 57, 80
9, 39966, Note_off_c, 7, 77, 93
9, 39968, Note_on_c, 7, 76, 93
9, 40086, Note_off_c, 7, 57, 80
9, 40086, Note_off_c, 7, 76, 93
9, 40088, Note_on_c, 7, 74, 90
9, 40088, Note_on_c, 7, 53, 80
9, 40206, Note_off_c, 7, 74, 90
9, 40208, Note_on_c, 7, 72, 91
9, 40320, Note_off_c, 7, 53, 80
9, 40320, Note_off_c, 7, 72, 91
9, 40328, Note_on_c, 7, 74, 95
9, 40328, Note_on_c, 7, 47, 80
9, 40446, Note_off_c, 7, 74, 95
9, 40448, Note_on_c, 7, 71, 89
9, 40566, Note_off_c, 7, 47, 80
9, 40566, Note_off_c, 7, 71, 89
9, 40568, Note_on_c, 7, 69, 87
9, 40568, Note_on_c, 7, 59, 80
9, 40686, Note_off_c, 7, 69, 87
9, 40688, Note_on_c, 7, 71, 87
9, 40806, Note_off_c, 7, 59, 80
9, 40806, Note_off_c, 7, 71, 87
9, 40808, Note_on_c, 7, 76, 90
9, 40808, Note_on_c, 7, 56, 76
9, 40926, Note_off_c, 7, 76, 90
9, 40928, Note_on_c, 7, 74, 92
9, 41046, Note_off_c, 7, 56, 76
9, 41046, Note_off_c, 7, 74, 92
9, 41048, Note_on_c, 7, 72, 86
9, 41048, Note_on_c, 7, 52, 80
9, 41166, Note_off_c, 7, 72, 86
9, 41168, Note_on_c, 7, 71, 86
9, 41286, Note_off_c, 7, 52, 80
9, 41286, Note_off_c, 7, 71, 86
9, 41288, Note_on_c, 7, 74, 85
9, 41288, Note_on_c, 7, 57, 80
9, 41346, Note_off_c, 7, 74, 85
9, 41348, Note_on_c, 7, 72, 76
9, 41406, Note_off_c, 7, 72, 76
9, 41408, Note_on_c, 7, 74, 76
9, 41466, Note_off_c, 7, 74, 76
9, 41468, Note_on_c, 7, 72, 75
9, 41526, Note_off_c, 7, 57, 80
9, 41526, Note_off_c, 7, 72, 75
9, 41528, Note_on_c, 7, 74, 77
9, 41528, Note_on_c, 7, 45, 77
9, 41586, Note_off_c, 7, 74, 77
9, 41588, Note_on_c, 7, 72, 72
9, 41646, Note_off_c, 7, 72, 72
9, 41648, Note_on_c, 7, 74, 77
9, 41706, Note_off_c, 7, 74, 77
9, 41708, Note_on_c, 7, 72, 77
9, 41766, Note_off_c, 7, 45, 77
9, 41766, Note_off_c, 7, 72, 77
9, 41768, Note_on_c, 7, 74, 79
9, 41826, Note_off_c, 7, 74, 79
9, 41828, Note_on_c, 7, 72, 77
9, 41886, Note_off_c, 7, 72, 77
9, 41888, Note_on_c, 7, 74, 81
9, 41946, Note_off_c, 7, 74, 81
9, 41948, Note_on_c, 7, 72, 81
9, 42006, Note_off_c, 7, 72, 81
9, 42008, Note_on_c, 7, 74, 81
9, 42008, Note_on_c, 7, 45, 78
9, 42066, Note_off_c, 7, 74, 81
9, 42068, Note_on_c, 7, 72, 79
9, 42126, Note_off_c, 7, 72, 79
9, 42128, Note_on_c, 7, 74, 86
9, 42186, Note_off_c, 7, 74, 86
9, 42188, Note_on_c, 7, 72, 88
9, 42240, Note_off_c, 7, 45, 78
9, 42240, Note_off_c, 7, 72, 88
9, 42248, Note_on_c, 7, 50, 78
9, 42248, Note_on_c, 7, 74, 81
9, 42306, Note_off_c, 7, 74, 81
9, 42308, Note_on_c, 7, 72, 71
9, 42366, Note_off_c, 7, 72, 71
9, 42368, Note_on_c, 7, 74, 76
9, 42426, Note_off_c, 7, 74, 76
9, 42428, Note_on_c, 7, 72, 76
9, 42486, Note_off_c, 7, 50, 78
9, 42486, Note_off_c, 7, 72, 76
9, 42488, Note_on_c, 7, 38, 80
9, 42488, Note_on_c, 7, 74, 78
9, 42546, Note_off_c, 7, 74, 78
9, 42548, Note_on_c, 7, 72, 76
9, 42606, Note_off_c, 7, 72, 76
9, 42608, Note_on_c, 7, 74, 74
9, 42666, Note_off_c, 7, 74, 74
9, 42668, Note_on_c, 7, 72, 76
9, 42726, Note_off_c, 7, 38, 80
9, 42726, Note_off_c, 7, 72, 76
9, 42728, Note_on_c, 7, 74, 80
9, 42786, Note_off_c, 7, 74, 80
9, 42788, Note_on_c, 7, 72, 76
9, 42846, Note_off_c, 7, 72, 76
9, 42848, Note_on_c, 7, 74, 77
9, 42906, Note_off_c, 7, 74, 77
9, 42908, Note_on_c, 7, 72, 72
9, 42966, Note_off_c, 7, 72, 72
9, 42968, Note_on_c, 7, 50, 78
9, 42968, Note_on_c, 7, 74, 72
9, 43026, Note_off_c, 7, 74, 72
9, 43028, Note_on_c, 7, 72, 71
9, 43086, Note_off_c, 7, 72, 71
9, 43088, Note_on_c, 7, 74, 73
9, 43146, Note_off_c, 7, 74, 73
9, 43148, Note_on_c, 7, 72, 72
9, 43206, Note_off_c, 7, 50, 78
9, 43206, Note_off_c, 7, 72, 72
9, 43208, Note_on_c, 7, 55, 83
9, 43208, Note_on_c, 7, 72, 78
9, 43266, Note_off_c, 7, 72, 78
9, 43268, Note_on_c, 7, 71, 76
9, 43326, Note_off_c, 7, 71, 76
9, 43328, Note_on_c, 7, 72, 76
9, 43386, Note_off_c, 7, 72, 76
9, 43388, Note_on_c, 7, 71, 76
9, 43446, Note_off_c, 7, 55, 83
9, 43446, Note_off_c, 7, 71, 76
9, 43448, Note_on_c, 7, 43, 76
9, 43448, Note_on_c, 7, 72, 77
9, 43506, Note_off_c, 7, 72, 77
9, 43508, Note_on_c, 7, 71, 74
9, 43566, Note_off_c, 7, 71, 74
9, 43568, Note_on_c, 7, 72, 76
9, 43626, Note_off_c, 7, 72, 76
9, 43628, Note_on_c, 7, 71, 73
9, 43686, Note_off_c, 7, 43, 76
9, 43686, Note_off_c, 7, 71, 73
9, 43688, Note_on_c, 7, 72, 79
9, 43746, Note_off_c, 7, 72, 79
9, 43748, Note_on_c, 7, 71, 72
9, 43806, Note_off_c, 7, 71, 72
9, 43808, Note_on_c, 7, 72, 79
9, 43866, Note_off_c, 7, 72, 79
9, 43868, Note_on_c, 7, 71, 78
9, 43926, Note_off_c, 7, 71, 78
9, 43928, Note_on_c, 7, 43, 76
9, 43928, Note_on_c, 7, 72, 76
9, 43986, Note_off_c, 7, 72, 76
9, 43988, Note_on_c, 7, 71, 68
9, 44046, Note_off_c, 7, 71, 68
9, 44048, Note_on_c, 7, 72, 68
9, 44106, Note_off_c, 7, 72, 68
9, 44108, Note_on_c, 7, 71, 70
9, 44160, Note_off_c, 7, 43, 76
9, 44160, Note_off_c, 7, 71, 70
9, 44168, Note_on_c, 7, 48, 85
9, 44168, Note_on_c, 7, 72, 74
9, 44226, Note_off_c, 7, 72, 74
9, 44228, Note_on_c, 7, 71, 68
9, 44286, Note_off_c, 7, 71, 68
9, 44288, Note_on_c, 7, 72, 75
9, 44346, Note_off_c, 7, 72, 75
9, 44348, Note_on_c, 7, 71, 68
9, 44406, Note_off_c, 7, 48, 85
9, 44406, Note_off_c, 7, 71, 68
9, 44408, Note_on_c, 7, 36, 80
9, 44408, Note_on_c, 7, 72, 74
9, 44466, Note_off_c, 7, 72, 74
9, 44468, Note_on_c, 7, 71, 70
9, 44526, Note_off_c, 7, 71, 70
9, 44528, Note_on_c, 7, 72, 74
9, 44586, Note_off_c, 7, 72, 74
9, 44588, Note_on_c, 7, 71, 71
9, 44646, Note_off_c, 7, 36, 80
9, 44646, Note_off_c, 7, 71, 71
9, 44648, Note_on_c, 7, 72, 74
9, 44706, Note_off_c, 7, 72, 74
9, 44708, Note_on_c, 7, 71, 71
9, 44766, Note_off_c, 7, 71, 71
9, 44768, Note_on_c, 7, 72, 73
9, 44826, Note_off_c, 7, 72, 73
9, 44828, Note_on_c, 7, 71, 72
9, 44886, Note_off_c, 7, 71, 72
9, 44888, Note_on_c, 7, 48, 80
9, 44888, Note_on_c, 7, 72, 71
9, 44946, Note_off_c, 7, 72, 71
9, 44948, Note_on_c, 7, 71, 68
9, 45006, Note_off_c, 7, 71, 68
9, 45008, Note_on_c, 7, 72, 68
9, 45066, Note_off_c, 7, 72, 68
9, 45068, Note_on_c, 7, 71, 69
9, 45126, Note_off_c, 7, 48, 80
9, 45126, Note_off_c, 7, 71, 69
9, 45128, Note_on_c, 7, 53, 84
9, 45128, Note_on_c, 7, 71, 78
9, 45186, Note_off_c, 7, 71, 78
9, 45188, Note_on_c, 7, 69, 73
9, 45246, Note_off_c, 7, 69, 73
9, 45248, Note_on_c, 7, 71, 76
9, 45306, Note_off_c, 7, 71, 76
9, 45308, Note_on_c, 7, 69, 69
9, 45366, Note_off_c, 7, 53, 84
9, 45366, Note_off_c, 7, 69, 69
9, 45368, Note_on_c, 7, 41, 74
9, 45368, Note_on_c, 7, 71, 73
9, 45426, Note_off_c, 7, 71, 73
9, 45428, Note_on_c, 7, 69, 70
9, 45486, Note_off_c, 7, 69, 70
9, 45488, Note_on_c, 7, 71, 64
9, 45546, Note_off_c, 7, 71, 64
9, 45548, Note_on_c, 7, 69, 65
9, 45606, Note_off_c, 7, 41, 74
9, 45606, Note_off_c, 7, 69, 65
9, 45608, Note_on_c, 7, 71, 68
9, 45666, Note_off_c, 7, 71, 68
9, 45668, Note_on_c, 7, 69, 67
9, 45726, Note_off_c, 7, 69, 67
9, 45728, Note_on_c, 7, 71, 69
9, 45786, Note_off_c, 7, 71, 69
9, 45788, Note_on_c, 7, 69, 64
9, 45846, Note_off_c, 7, 69, 64
9, 45848, Note_on_c, 7, 53, 80
9, 45848, Note_on_c, 7, 71, 69
9, 45906, Note_off_c, 7, 71, 69
9, 45908, Note_on_c, 7, 69, 61
9, 45966, Note_off_c, 7, 69, 61
9, 45968, Note_on_c, 7, 71, 68
9, 46026, Note_off_c, 7, 71, 68
9, 46028, Note_on_c, 7, 69, 62
9, 46080, Note_off_c, 7, 53, 80
9, 46080, Note_off_c, 7, 69, 62
9, 46088, Note_on_c, 7, 47, 76
9, 46088, Note_on_c, 7, 71, 78
9, 46146, Note_off_c, 7, 71, 78
9, 46148, Note_on_c, 7, 69, 70
9, 46206, Note_off_c, 7, 69, 70
9, 46208, Note_on_c, 7, 71, 80
9, 46266, Note_off_c, 7, 71, 80
9, 46268, Note_on_c, 7, 69, 70
9, 46326, Note_off_c, 7, 47, 76
9, 46326, Note_off_c, 7, 69, 70
9, 46328, Note_on_c, 7, 59, 76
9, 46328, Note_on_c, 7, 71, 79
9, 46386, Note_off_c, 7, 71, 79
9, 46388, Note_on_c, 7, 69, 61
9, 46446, Note_off_c, 7, 69, 61
9, 46448, Note_on_c, 7, 71, 67
9, 46506, Note_off_c, 7, 71, 67
9, 46508, Note_on_c, 7, 69, 54
9, 46566, Note_off_c, 7, 59, 76
9, 46566, Note_off_c, 7, 69, 54
9, 46568, Note_on_c, 7, 71, 71
9, 46626, Note_off_c, 7, 71, 71
9, 46628, Note_on_c, 7, 69, 61
9, 46686, Note_off_c, 7, 69, 61
9, 46688, Note_on_c, 7, 71, 70
9, 46746, Note_off_c, 7, 71, 70
9, 46748, Note_on_c, 7, 69, 68
9, 46806, Note_off_c, 7, 69, 68
9, 46808, Note_on_c, 7, 47, 78
9, 46808, Note_on_c, 7, 71, 69
9, 46866, Note_off_c, 7, 71, 69
9, 46868, Note_on_c, 7, 69, 64
9, 46926, Note_off_c, 7, 69, 64
9, 46928, Note_on_c, 7, 71, 69
9, 46986, Note_off_c, 7, 71, 69
9, 46988, Note_on_c, 7, 69, 67
9, 47046, Note_off_c, 7, 47, 78
9, 47046, Note_off_c, 7, 69, 67
9, 47048, Note_on_c, 7, 52, 78
9, 47048, Note_on_c, 7, 69, 73
9, 47106, Note_off_c, 7, 69, 73
9, 47108, Note_on_c, 7, 68, 68
9, 47166, Note_off_c, 7, 68, 68
9, 47168, Note_on_c, 7, 69, 72
9, 47226, Note_off_c, 7, 69, 72
9, 47228, Note_on_c, 7, 68, 68
9, 47286, Note_off_c, 7, 52, 78
9, 47286, Note_off_c, 7, 68, 68
9, 47288, Note_on_c, 7, 40, 79
9, 47288, Note_on_c, 7, 69, 68
9, 47346, Note_off_c, 7, 69, 68
9, 47348, Note_on_c, 7, 68, 66
9, 47406, Note_off_c, 7, 68, 66
9, 47408, Note_on_c, 7, 69, 71
9, 47466, Note_off_c, 7, 69, 71
9, 47468, Note_on_c, 7, 68, 66
9, 47526, Note_off_c, 7, 40, 79
9, 47526, Note_off_c, 7, 68, 66
9, 47528, Note_on_c, 7, 69, 70
9, 47586, Note_off_c, 7, 69, 70
9, 47588, Note_on_c, 7, 68, 66
9, 47646, Note_off_c, 7, 68, 66
9, 47648, Note_on_c, 7, 69, 71
9, 47706, Note_off_c, 7, 69, 71
9, 47708, Note_on_c, 7, 68, 69
9, 47766, Note_off_c, 7, 68, 69
9, 47768, Note_on_c, 7, 52, 85
9, 47768, Note_on_c, 7, 69, 74
9, 47826, Note_off_c, 7, 69, 74
9, 47828, Note_on_c, 7, 68, 66
9, 47886, Note_off_c, 7, 68, 66
9, 47888, Note_on_c, 7, 69, 76
9, 47946, Note_off_c, 7, 69, 76
9, 47948, Note_on_c, 7, 68, 74
9, 48000, Note_off_c, 7, 52, 85
9, 48000, Note_off_c, 7, 68, 74
9, 48008, Note_on_c, 7, 69, 86
9, 48008, Note_on_c, 7, 45, 84
9, 48126, Note_off_c, 7, 45, 84
9, 48128, Note_on_c, 7, 52, 78
9, 48246, Note_off_c, 7, 69, 86
9, 48246, Note_off_c, 7, 52, 78
9, 48248, Note_on_c, 7, 72, 85
9, 48248, Note_on_c, 7, 54, 75
9, 48366, Note_off_c, 7, 72, 85
9, 48366, Note_off_c, 7, 54, 75
9, 48368, Note_on_c, 7, 71, 80
9, 48368, Note_on_c, 7, 56, 75
9, 48486, Note_off_c, 7, 71, 80
9, 48486, Note_off_c, 7, 56, 75
9, 48488, Note_on_c, 7, 69, 82
9, 48488, Note_on_c, 7, 57, 82
9, 48726, Note_off_c, 7, 69, 82
9, 48726, Note_off_c, 7, 57, 82
9, 48728, Note_on_c, 7, 72, 85
9, 48728, Note_on_c, 7, 45, 76
9, 48966, Note_off_c, 7, 72, 85
9, 48966, Note_off_c, 7, 45, 76
9, 48968, Note_on_c, 7, 71, 85
9, 48968, Note_on_c, 7, 40, 79
9, 49206, Note_off_c, 7, 40, 79
9, 49208, Note_on_c, 7, 52, 76
9, 49446, Note_off_c, 7, 71, 85
9, 49446, Note_off_c, 7, 52, 76
9, 49448, Note_on_c, 7, 48, 80
9, 49686, Note_off_c, 7, 48, 80
9, 49688, Note_on_c, 7, 72, 88
9, 49688, Note_on_c, 7, 45, 76
9, 49920, Note_off_c, 7, 72, 88
9, 49920, Note_off_c, 7, 45, 76
9, 49928, Note_on_c, 7, 71, 87
9, 50168, Note_on_c, 7, 52, 79
9, 50406, Note_off_c, 7, 71, 87
9, 50406, Note_off_c, 7, 52, 79
9, 50408, Note_on_c, 7, 48, 80
9, 50646, Note_off_c, 7, 48, 80
9, 50648, Note_on_c, 7, 72, 86
9, 50648, Note_on_c, 7, 45, 73
9, 50766, Note_off_c, 7, 72, 86
9, 50886, Note_off_c, 7, 45, 73
9, 50888, Note_on_c, 7, 71, 84
9, 51128, Note_on_c, 7, 52, 82
9, 51366, Note_off_c, 7, 71, 84
9, 51366, Note_off_c, 7, 52, 82
9, 51368, Note_on_c, 7, 48, 78
9, 51488, Note_on_c, 7, 76, 94
9, 51606, Note_off_c, 7, 48, 78
9, 51606, Note_off_c, 7, 76, 94
9, 51608, Note_on_c, 7, 76, 94
9, 51608, Note_on_c, 7, 45, 73
9, 51726, Note_off_c, 7, 76, 94
9, 51728, Note_on_c, 7, 76, 92
9, 51840, Note_off_c, 7, 45, 73
9, 51840, Note_off_c, 7, 76, 92
9, 51848, Note_on_c, 7, 81, 89
9, 51966, Note_off_c, 7, 81, 89
9, 51968, Note_on_c, 7, 76, 86
9, 52086, Note_off_c, 7, 76, 86
9, 52088, Note_on_c, 7, 76, 83
9, 52088, Note_on_c, 7, 57, 80
9, 52206, Note_off_c, 7, 76, 83
9, 52208, Note_on_c, 7, 76, 83
9, 52326, Note_off_c, 7, 57, 80
9, 52326, Note_off_c, 7, 76, 83
9, 52328, Note_on_c, 7, 81, 92
9, 52328, Note_on_c, 7, 45, 74
9, 52446, Note_off_c, 7, 81, 92
9, 52448, Note_on_c, 7, 76, 83
9, 52566, Note_off_c, 7, 76, 83
9, 52568, Note_on_c, 7, 76, 84
9, 52686, Note_off_c, 7, 76, 84
9, 52688, Note_on_c, 7, 76, 84
9, 52806, Note_off_c, 7, 45, 74
9, 52806, Note_off_c, 7, 76, 84
9, 52808, Note_on_c, 7, 81, 91
9, 52926, Note_off_c, 7, 81, 91
9, 52928, Note_on_c, 7, 76, 85
9, 53046, Note_off_c, 7, 76, 85
9, 53048, Note_on_c, 7, 76, 83
9, 53048, Note_on_c, 7, 57, 80
9, 53166, Note_off_c, 7, 76, 83
9, 53168, Note_on_c, 7, 76, 82
9, 53286, Note_off_c, 7, 57, 80
9, 53286, Note_off_c, 7, 76, 82
9, 53288, Note_on_c, 7, 81, 89
9, 53288, Note_on_c, 7, 45, 76
9, 53406, Note_off_c, 7, 81, 89
9, 53408, Note_on_c, 7, 76, 81
9, 53526, Note_off_c, 7, 76, 81
9, 53528, Note_on_c, 7, 76, 76
9, 53646, Note_off_c, 7, 76, 76
9, 53648, Note_on_c, 7, 76, 79
9, 53760, Note_off_c, 7, 45, 76
9, 53760, Note_off_c, 7, 76, 79
9, 53768, Note_on_c, 7, 81, 86
9, 54006, Note_off_c, 7, 81, 86
9, 54008, Note_on_c, 7, 79, 78
9, 54008, Note_on_c, 7, 57, 83
9, 54126, Note_off_c, 7, 79, 78
9, 54128, Note_on_c, 7, 77, 71
9, 54246, Note_off_c, 7, 57, 83
9, 54246, Note_off_c, 7, 77, 71
9, 54248, Note_on_c, 7, 76, 89
9, 54248, Note_on_c, 7, 56, 80
9, 54486, Note_off_c, 7, 76, 89
9, 54486, Note_off_c, 7, 56, 80
9, 54488, Note_on_c, 7, 74, 88
9, 54488, Note_on_c, 7, 52, 87
9, 54726, Note_off_c, 7, 74, 88
9, 54726, Note_off_c, 7, 52, 87
9, 54728, Note_on_c, 7, 72, 86
9, 54728, Note_on_c, 7, 45, 80
9, 54966, Note_off_c, 7, 72, 86
9, 54966, Note_off_c, 7, 45, 80
9, 54968, Note_on_c, 7, 69, 86
9, 54968, Note_on_c, 7, 50, 83
9, 55206, Note_off_c, 7, 50, 83
9, 55208, Note_on_c, 7, 52, 80
9, 55446, Note_off_c, 7, 69, 86
9, 55446, Note_off_c, 7, 52, 80
9, 55448, Note_on_c, 7, 68, 79
9, 55448, Note_on_c, 7, 40, 81
9, 55680, Note_off_c, 7, 68, 79
9, 55680, Note_off_c, 7, 40, 81
9, 55688, Note_on_c, 7, 69, 88
9, 55688, Note_on_c, 7, 45, 87
9, 56166, Note_off_c, 7, 69, 88
9, 56166, Note_off_c, 7, 45, 87
9, 56888, Note_on_c, 7, 64, 84
9, 57126, Note_off_c, 7, 64, 84
9, 57128, Note_on_c, 7, 57, 80
9, 57366, Note_off_c, 7, 57, 80
9, 57368, Note_on_c, 7, 60, 82
9, 57600, Note_off_c, 7, 60, 82
9, 57608, Note_on_c, 7, 52, 82
9, 57846, Note_off_c, 7, 52, 82
9, 57848, Note_on_c, 7, 57, 79
9, 58086, Note_off_c, 7, 57, 79
9, 58088, Note_on_c, 7, 48, 81
9, 58326, Note_off_c, 7, 48, 81
9, 58328, Note_on_c, 7, 52, 84
9, 58566, Note_off_c, 7, 52, 84
9, 58568, Note_on_c, 7, 45, 83
9, 58808, Note_on_c, 7, 84, 91
9, 59046, Note_off_c, 7, 45, 83
9, 59046, Note_off_c, 7, 84, 91
9, 59048, Note_on_c, 7, 76, 89
9, 59286, Note_off_c, 7, 76, 89
9, 59288, Note_on_c, 7, 81, 89
9, 59520, Note_off_c, 7, 81, 89
9, 59528, Note_on_c, 7, 72, 84
9, 59766, Note_off_c, 7, 72, 84
9, 59768, Note_on_c, 7, 76, 83
9, 60006, Note_off_c, 7, 76, 83
9, 60008, Note_on_c, 7, 69, 79
9, 60246, Note_off_c, 7, 69, 79
9, 60248, Note_on_c, 7, 72, 84
9, 60486, Note_off_c, 7, 72, 84
9, 60488, Note_on_c, 7, 64, 87
9, 60726, Note_off_c, 7, 64, 87
9, 60728, Note_on_c, 7, 69, 83
9, 60966, Note_off_c, 7, 69, 83
9, 60968, Note_on_c, 7, 60, 80
9, 61206, Note_off_c, 7, 60, 80
9, 61208, Note_on_c, 7, 64, 88
9, 61440, Note_off_c, 7, 64, 88
9, 61448, Note_on_c, 7, 57, 83
9, 61926, Note_off_c, 7, 57, 83
9, 66368, Note_on_c, 7, 55, 88
9, 66486, Note_off_c, 7, 55, 88
9, 66488, Note_on_c, 7, 53, 80
9, 66488, Note_on_c, 7, 72, 85
9, 66606, Note_off_c, 7, 53, 80
9, 66608, Note_on_c, 7, 55, 83
9, 66726, Note_off_c, 7, 72, 85
9, 66726, Note_off_c, 7, 55, 83
9, 66728, Note_on_c, 7, 52, 83
9, 66728, Note_on_c, 7, 67, 85
9, 66966, Note_off_c, 7, 52, 83
9, 66966, Note_off_c, 7, 67, 85
9, 66968, Note_on_c, 7, 60, 78
9, 66968, Note_on_c, 7, 64, 83
9, 67200, Note_off_c, 7, 60, 78
9, 67200, Note_off_c, 7, 64, 83
9, 67328, Note_on_c, 7, 57, 80
9, 67446, Note_off_c, 7, 57, 80
9, 67448, Note_on_c, 7, 55, 84
9, 67448, Note_on_c, 7, 72, 78
9, 67566, Note_off_c, 7, 55, 84
9, 67568, Note_on_c, 7, 57, 76
9, 67686, Note_off_c, 7, 72, 78
9, 67686, Note_off_c, 7, 57, 76
9, 67688, Note_on_c, 7, 53, 82
9, 67688, Note_on_c, 7, 69, 80
9, 67926, Note_off_c, 7, 53, 82
9, 67926, Note_off_c, 7, 69, 80
9, 67928, Note_on_c, 7, 62, 81
9, 67928, Note_on_c, 7, 65, 75
9, 68166, Note_off_c, 7, 62, 81
9, 68166, Note_off_c, 7, 65, 75
9, 68288, Note_on_c, 7, 59, 79
9, 68406, Note_off_c, 7, 59, 79
9, 68408, Note_on_c, 7, 57, 80
9, 68408, Note_on_c, 7, 74, 82
9, 68526, Note_off_c, 7, 57, 80
9, 68528, Note_on_c, 7, 59, 73
9, 68646, Note_off_c, 7, 74, 82
9, 68646, Note_off_c, 7, 59, 73
9, 68648, Note_on_c, 7, 55, 84
9, 68648, Note_on_c, 7, 71, 78
9, 68886, Note_off_c, 7, 55, 84
9, 68886, Note_off_c, 7, 71, 78
9, 68888, Note_on_c, 7, 64, 83
9, 68888, Note_on_c, 7, 67, 80
9, 69120, Note_off_c, 7, 64, 83
9, 69120, Note_off_c, 7, 67, 80
9, 69248, Note_on_c, 7, 60, 84
9, 69366, Note_off_c, 7, 60, 84
9, 69368, Note_on_c, 7, 59, 83
9, 69368, Note_on_c, 7, 76, 80
9, 69486, Note_off_c, 7, 59, 83
9, 69488, Note_on_c, 7, 60, 80
9, 69606, Note_off_c, 7, 76, 80
9, 69606, Note_off_c, 7, 60, 80
9, 69608, Note_on_c, 7, 57, 79
9, 69608, Note_on_c, 7, 72, 82
9, 69846, Note_off_c, 7, 57, 79
9, 69846, Note_off_c, 7, 72, 82
9, 69848, Note_on_c, 7, 65, 80
9, 69848, Note_on_c, 7, 69, 80
9, 70086, Note_off_c, 7, 65, 80
9, 70086, Note_off_c, 7, 69, 80
9, 70208, Note_on_c, 7, 62, 84
9, 70326, Note_off_c, 7, 62, 84
9, 70328, Note_on_c, 7, 60, 83
9, 70328, Note_on_c, 7, 77, 83
9, 70446, Note_off_c, 7, 60, 83
9, 70448, Note_on_c, 7, 62, 84
9, 70566, Note_off_c, 7, 77, 83
9, 70566, Note_off_c, 7, 62, 84
9, 70568, Note_on_c, 7, 59, 75
9, 70568, Note_on_c, 7, 74, 77
9, 70806, Note_off_c, 7, 59, 75
9, 70806, Note_off_c, 7, 74, 77
9, 70808, Note_on_c, 7, 67, 81
9, 70808, Note_on_c, 7, 71, 76
9, 71040, Note_off_c, 7, 67, 81
9, 71040, Note_off_c, 7, 71, 76
9, 71168, Note_on_c, 7, 64, 84
9, 71286, Note_off_c, 7, 64, 84
9, 71288, Note_on_c, 7, 62, 82
9, 71288, Note_on_c, 7, 79, 81
9, 71406, Note_off_c, 7, 62, 82
9, 71408, Note_on_c, 7, 64, 86
9, 71526, Note_off_c, 7, 79, 81
9, 71526, Note_off_c, 7, 64, 86
9, 71528, Note_on_c, 7, 60, 82
9, 71528, Note_on_c, 7, 76, 78
9, 71646, Note_off_c, 7, 60, 82
9, 71648, Note_on_c, 7, 64, 86
9, 71766, Note_off_c, 7, 76, 78
9, 71766, Note_off_c, 7, 64, 86
9, 71768, Note_on_c, 7, 65, 76
9, 71768, Note_on_c, 7, 72, 76
9, 71886, Note_off_c, 7, 65, 76
9, 71888, Note_on_c, 7, 67, 78
9, 72006, Note_off_c, 7, 72, 76
9, 72006, Note_off_c, 7, 67, 78
9, 72008, Note_on_c, 7, 60, 77
9, 72126, Note_off_c, 7, 60, 77
9, 72128, Note_on_c, 7, 69, 78
9, 72246, Note_off_c, 7, 69, 78
9, 72248, Note_on_c, 7, 67, 76
9, 72248, Note_on_c, 7, 81, 80
9, 72366, Note_off_c, 7, 67, 76
9, 72368, Note_on_c, 7, 69, 78
9, 72486, Note_off_c, 7, 81, 80
9, 72486, Note_off_c, 7, 69, 78
9, 72488, Note_on_c, 7, 62, 80
9, 72488, Note_on_c, 7, 81, 82
9, 72606, Note_off_c, 7, 62, 80
9, 72608, Note_on_c, 7, 66, 81
9, 72726, Note_off_c, 7, 81, 82
9, 72726, Note_off_c, 7, 66, 81
9, 72728, Note_on_c, 7, 67, 80
9, 72728, Note_on_c, 7, 74, 86
9, 72846, Note_off_c, 7, 67, 80
9, 72848, Note_on_c, 7, 69, 85
9, 72960, Note_off_c, 7, 74, 86
9, 72960, Note_off_c, 7, 69, 85
9, 72968, Note_on_c, 7, 62, 87
9, 72968, Note_on_c, 7, 71, 82
9, 73086, Note_off_c, 7, 62, 87
9, 73088, Note_on_c, 7, 64, 83
9, 73206, Note_off_c, 7, 64, 83
9, 73208, Note_on_c, 7, 62, 83
9, 73326, Note_off_c, 7, 62, 83
9, 73328, Note_on_c, 7, 60, 75
9, 73446, Note_off_c, 7, 71, 82
9, 73446, Note_off_c, 7, 60, 75
9, 73448, Note_on_c, 7, 59, 74
9, 73566, Note_off_c, 7, 59, 74
9, 73568, Note_on_c, 7, 55, 70
9, 73686, Note_off_c, 7, 55, 70
9, 73688, Note_on_c, 7, 71, 69
9, 73688, Note_on_c, 7, 62, 72
9, 73926, Note_off_c, 7, 71, 69
9, 73926, Note_off_c, 7, 62, 72
9, 73928, Note_on_c, 7, 72, 82
9, 74168, Note_on_c, 7, 64, 76
9, 74406, Note_off_c, 7, 72, 82
9, 74406, Note_off_c, 7, 64, 76
9, 74408, Note_on_c, 7, 62, 82
9, 74528, Note_on_c, 7, 71, 78
9, 74646, Note_off_c, 7, 62, 82
9, 74646, Note_off_c, 7, 71, 78
9, 74648, Note_on_c, 7, 74, 80
9, 74648, Note_on_c, 7, 59, 79
9, 74766, Note_off_c, 7, 74, 80
9, 74768, Note_on_c, 7, 79, 85
9, 74880, Note_off_c, 7, 59, 79
9, 74880, Note_off_c, 7, 79, 85
9, 74888, Note_on_c, 7, 79, 88
9, 75006, Note_off_c, 7, 79, 88
9, 75008, Note_on_c, 7, 77, 84
9, 75126, Note_off_c, 7, 77, 84
9, 75128, Note_on_c, 7, 79, 83
9, 75128, Note_on_c, 7, 64, 77
9, 75366, Note_off_c, 7, 79, 83
9, 75366, Note_off_c, 7, 64, 77
9, 75368, Note_on_c, 7, 62, 76
9, 75488, Note_on_c, 7, 71, 79
9, 75606, Note_off_c, 7, 62, 76
9, 75606, Note_off_c, 7, 71, 79
9, 75608, Note_on_c, 7, 74, 78
9, 75608, Note_on_c, 7, 59, 69
9, 75726, Note_off_c, 7, 74, 78
9, 75728, Note_on_c, 7, 79, 81
9, 75846, Note_off_c, 7, 59, 69
9, 75846, Note_off_c, 7, 79, 81
9, 75848, Note_on_c, 7, 79, 84
9, 75966, Note_off_c, 7, 79, 84
9, 75968, Note_on_c, 7, 77, 81
9, 76086, Note_off_c, 7, 77, 81
9, 76088, Note_on_c, 7, 79, 84
9, 76088, Note_on_c, 7, 64, 83
9, 76326, Note_off_c, 7, 79, 84
9, 76326, Note_off_c, 7, 64, 83
9, 76328, Note_on_c, 7, 62, 80
9, 76448, Note_on_c, 7, 71, 81
9, 76566, Note_off_c, 7, 62, 80
9, 76566, Note_off_c, 7, 71, 81
9, 76568, Note_on_c, 7, 74, 85
9, 76568, Note_on_c, 7, 59, 73
9, 76686, Note_off_c, 7, 74, 85
9, 76688, Note_on_c, 7, 79, 85
9, 76800, Note_off_c, 7, 59, 73
9, 76800, Note_off_c, 7, 79, 85
9, 76808, Note_on_c, 7, 79, 84
9, 76808, Note_on_c, 7, 55, 82
9, 76926, Note_off_c, 7, 79, 84
9, 76928, Note_on_c, 7, 77, 80
9, 77046, Note_off_c, 7, 55, 82
9, 77046, Note_off_c, 7, 77, 80
9, 77048, Note_on_c, 7, 79, 81
9, 77048, Note_on_c, 7, 64, 74
9, 77286, Note_off_c, 7, 79, 81
9, 77286, Note_off_c, 7, 64, 74
9, 77288, Note_on_c, 7, 60, 79
9, 77528, Note_on_c, 7, 79, 72
9, 77766, Note_off_c, 7, 60, 79
9, 77766, Note_off_c, 7, 79, 72
9, 77768, Note_on_c, 7, 84, 91
9, 78008, Note_on_c, 7, 64, 81
9, 78246, Note_off_c, 7, 84, 91
9, 78246, Note_off_c, 7, 64, 81
9, 78248, Note_on_c, 7, 60, 82
9, 78488, Note_on_c, 7, 79, 82
9, 78720, Note_off_c, 7, 60, 82
9, 78720, Note_off_c, 7, 79, 82
9, 78728, Note_on_c, 7, 84, 85
9, 78968, Note_on_c, 7, 64, 83
9, 79206, Note_off_c, 7, 84, 85
9, 79206, Note_off_c, 7, 64, 83
9, 79208, Note_on_c, 7, 60, 79
9, 79328, Note_on_c, 7, 72, 85
9, 79446, Note_off_c, 7, 60, 79
9, 79446, Note_off_c, 7, 72, 85
9, 79448, Note_on_c, 7, 74, 84
9, 79448, Note_on_c, 7, 55, 82
9, 79566, Note_off_c, 7, 74, 84
9, 79568, Note_on_c, 7, 76, 81
9, 79686, Note_off_c, 7, 55, 82
9, 79686, Note_off_c, 7, 76, 81
9, 79688, Note_on_c, 7, 71, 83
9, 79688, Note_on_c, 7, 67, 84
9, 80166, Note_off_c, 7, 71, 83
9, 80166, Note_off_c, 7, 67, 84
9, 104888, Note_on_c, 7, 59, 78
9, 105126, Note_off_c, 7, 59, 78
9, 105128, Note_on_c, 7, 55, 85
9, 105248, Note_on_c, 7, 67, 90
9, 105366, Note_off_c, 7, 55, 85
9, 105366, Note_off_c, 7, 67, 90
9, 105368, Note_on_c, 7, 71, 86
9, 105368, Note_on_c, 7, 52, 80
9, 105486, Note_off_c, 7, 71, 86
9, 105488, Note_on_c, 7, 76, 91
9, 105600, Note_off_c, 7, 52, 80
9, 105600, Note_off_c, 7, 76, 91
9, 105608, Note_on_c, 7, 73, 91
9, 105846, Note_off_c, 7, 73, 91
9, 105848, Note_on_c, 7, 69, 96
9, 105848, Note_on_c, 7, 61, 74
9, 106086, Note_off_c, 7, 69, 96
9, 106086, Note_off_c, 7, 61, 74
9, 106088, Note_on_c, 7, 57, 69
9, 106208, Note_on_c, 7, 69, 92
9, 106326, Note_off_c, 7, 57, 69
9, 106326, Note_off_c, 7, 69, 92
9, 106328, Note_on_c, 7, 73, 81
9, 106328, Note_on_c, 7, 52, 67
9, 106446, Note_off_c, 7, 73, 81
9, 106448, Note_on_c, 7, 76, 91
9, 106566, Note_off_c, 7, 52, 67
9, 106566, Note_off_c, 7, 76, 91
9, 106568, Note_on_c, 7, 73, 93
9, 106806, Note_off_c, 7, 73, 93
9, 106808, Note_on_c, 7, 70, 91
9, 106808, Note_on_c, 7, 61, 71
9, 107046, Note_off_c, 7, 70, 91
9, 107046, Note_off_c, 7, 61, 71
9, 107048, Note_on_c, 7, 58, 76
9, 107168, Note_on_c, 7, 70, 86
9, 107286, Note_off_c, 7, 58, 76
9, 107286, Note_off_c, 7, 70, 86
9, 107288, Note_on_c, 7, 73, 93
9, 107288, Note_on_c, 7, 54, 74
9, 107406, Note_off_c, 7, 73, 93
9, 107408, Note_on_c, 7, 78, 98
9, 107520, Note_off_c, 7, 54, 74
9, 107520, Note_off_c, 7, 78, 98
9, 107528, Note_on_c, 7, 75, 93
9, 107766, Note_off_c, 7, 75, 93
9, 107768, Note_on_c, 7, 71, 95
9, 107768, Note_on_c, 7, 63, 82
9, 108006, Note_off_c, 7, 71, 95
9, 108006, Note_off_c, 7, 63, 82
9, 108008, Note_on_c, 7, 59, 75
9, 108128, Note_on_c, 7, 71, 86
9, 108246, Note_off_c, 7, 59, 75
9, 108246, Note_off_c, 7, 71, 86
9, 108248, Note_on_c, 7, 75, 86
9, 108248, Note_on_c, 7, 54, 69
9, 108366, Note_off_c, 7, 75, 86
9, 108368, Note_on_c, 7, 78, 89
9, 108486, Note_off_c, 7, 54, 69
9, 108486, Note_off_c, 7, 78, 89
9, 108488, Note_on_c, 7, 75, 87
9, 108726, Note_off_c, 7, 75, 87
9, 108728, Note_on_c, 7, 71, 88
9, 108728, Note_on_c, 7, 63, 77
9, 108966, Note_off_c, 7, 71, 88
9, 108966, Note_off_c, 7, 63, 77
9, 108968, Note_on_c, 7, 59, 69
9, 109088, Note_on_c, 7, 71, 89
9, 109206, Note_off_c, 7, 59, 69
9, 109206, Note_off_c, 7, 71, 89
9, 109208, Note_on_c, 7, 75, 86
9, 109208, Note_on_c, 7, 55, 81
9, 109326, Note_off_c, 7, 75, 86
9, 109328, Note_on_c, 7, 79, 91
9, 109440, Note_off_c, 7, 55, 81
9, 109440, Note_off_c, 7, 79, 91
9, 109448, Note_on_c, 7, 76, 93
9, 109686, Note_off_c, 7, 76, 93
9, 109688, Note_on_c, 7, 72, 95
9, 109688, Note_on_c, 7, 64, 79
9, 109926, Note_off_c, 7, 72, 95
9, 109926, Note_off_c, 7, 64, 79
9, 109928, Note_on_c, 7, 60, 78
9, 110048, Note_on_c, 7, 72, 91
9, 110166, Note_off_c, 7, 60, 78
9, 110166, Note_off_c, 7, 72, 91
9, 110168, Note_on_c, 7, 76, 95
9, 110168, Note_on_c, 7, 55, 78
9, 110286, Note_off_c, 7, 76, 95
9, 110288, Note_on_c, 7, 79, 94
9, 110406, Note_off_c, 7, 55, 78
9, 110406, Note_off_c, 7, 79, 94
9, 110408, Note_on_c, 7, 76, 95
9, 110646, Note_off_c, 7, 76, 95
9, 110648, Note_on_c, 7, 72, 91
9, 110648, Note_on_c, 7, 64, 78
9, 110886, Note_off_c, 7, 72, 91
9, 110886, Note_off_c, 7, 64, 78
9, 110888, Note_on_c, 7, 60, 75
9, 111008, Note_on_c, 7, 72, 83
9, 111126, Note_off_c, 7, 60, 75
9, 111126, Note_off_c, 7, 72, 83
9, 111128, Note_on_c, 7, 76, 91
9, 111128, Note_on_c, 7, 57, 77
9, 111246, Note_off_c, 7, 76, 91
9, 111248, Note_on_c, 7, 81, 89
9, 111360, Note_off_c, 7, 57, 77
9, 111360, Note_off_c, 7, 81, 89
9, 111368, Note_on_c, 7, 75, 89
9, 111606, Note_off_c, 7, 75, 89
9, 111608, Note_on_c, 7, 71, 86
9, 111608, Note_on_c, 7, 63, 76
9, 111846, Note_off_c, 7, 71, 86
9, 111846, Note_off_c, 7, 63, 76
9, 111848, Note_on_c, 7, 59, 71
9, 111968, Note_on_c, 7, 71, 88
9, 112086, Note_off_c, 7, 59, 71
9, 112086, Note_off_c, 7, 71, 88
9, 112088, Note_on_c, 7, 75, 89
9, 112088, Note_on_c, 7, 54, 70
9, 112206, Note_off_c, 7, 75, 89
9, 112208, Note_on_c, 7, 81, 87
9, 112326, Note_off_c, 7, 54, 70
9, 112326, Note_off_c, 7, 81, 87
9, 112328, Note_on_c, 7, 76, 85
9, 112566, Note_off_c, 7, 76, 85
9, 112568, Note_on_c, 7, 71, 86
9, 112568, Note_on_c, 7, 64, 76
9, 112806, Note_off_c, 7, 71, 86
9, 112806, Note_off_c, 7, 64, 76
9, 112808, Note_on_c, 7, 59, 74
9, 112928, Note_on_c, 7, 71, 86
9, 113046, Note_off_c, 7, 59, 74
9, 113046, Note_off_c, 7, 71, 86
9, 113048, Note_on_c, 7, 76, 91
9, 113048, Note_on_c, 7, 55, 80
9, 113166, Note_off_c, 7, 76, 91
9, 113168, Note_on_c, 7, 79, 95
9, 113280, Note_off_c, 7, 55, 80
9, 113280, Note_off_c, 7, 79, 95
9, 113288, Note_on_c, 7, 76, 95
9, 113526, Note_off_c, 7, 76, 95
9, 113528, Note_on_c, 7, 71, 89
9, 113528, Note_on_c, 7, 66, 83
9, 113766, Note_off_c, 7, 71, 89
9, 113766, Note_off_c, 7, 66, 83
9, 113768, Note_on_c, 7, 59, 75
9, 113888, Note_on_c, 7, 71, 91
9, 114006, Note_off_c, 7, 59, 75
9, 114006, Note_off_c, 7, 71, 91
9, 114008, Note_on_c, 7, 76, 90
9, 114008, Note_on_c, 7, 57, 74
9, 114126, Note_off_c, 7, 76, 90
9, 114128, Note_on_c, 7, 78, 91
9, 114246, Note_off_c, 7, 57, 74
9, 114246, Note_off_c, 7, 78, 91
9, 114248, Note_on_c, 7, 75, 87
9, 114486, Note_off_c, 7, 75, 87
9, 114488, Note_on_c, 7, 71, 84
9, 114488, Note_on_c, 7, 66, 81
9, 114726, Note_off_c, 7, 71, 84
9, 114726, Note_off_c, 7, 66, 81
9, 114728, Note_on_c, 7, 59, 80
9, 114848, Note_on_c, 7, 71, 91
9, 114966, Note_off_c, 7, 59, 80
9, 114966, Note_off_c, 7, 71, 91
9, 114968, Note_on_c, 7, 75, 86
9, 114968, Note_on_c, 7, 57, 74
9, 115086, Note_off_c, 7, 75, 86
9, 115088, Note_on_c, 7, 78, 93
9, 115200, Note_off_c, 7, 57, 74
9, 115200, Note_off_c, 7, 78, 93
9, 115208, Note_on_c, 7, 76, 99
9, 115208, Note_on_c, 7, 55, 90
9, 115686, Note_off_c, 7, 76, 99
9, 115686, Note_off_c, 7, 55, 90
9, 117848, Note_on_c, 7, 73, 76
9, 117848, Note_on_c, 7, 76, 80
9, 117848, Note_on_c, 7, 69, 69
9, 117848, Note_on_c, 7, 45, 88
9, 118086, Note_off_c, 7, 73, 76
9, 118086, Note_off_c, 7, 76, 80
9, 118086, Note_off_c, 7, 69, 69
9, 118086, Note_off_c, 7, 45, 88
9, 118088, Note_on_c, 7, 69, 76
9, 118088, Note_on_c, 7, 74, 81
9, 118088, Note_on_c, 7, 77, 83
9, 118088, Note_on_c, 7, 50, 86
9, 118326, Note_off_c, 7, 69, 76
9, 118326, Note_off_c, 7, 74, 81
9, 118326, Note_off_c, 7, 77, 83
9, 118326, Note_off_c, 7, 50, 86
9, 118808, Note_on_c, 7, 74, 85
9, 118808, Note_on_c, 7, 77, 85
9, 118808, Note_on_c, 7, 71, 74
9, 118808, Note_on_c, 7, 43, 86
9, 119040, Note_off_c, 7, 74, 85
9, 119040, Note_off_c, 7, 77, 85
9, 119040, Note_off_c, 7, 71, 74
9, 119040, Note_off_c, 7, 43, 86
9, 119048, Note_on_c, 7, 76, 73
9, 119048, Note_on_c, 7, 72, 71
9, 119048, Note_on_c, 7, 48, 70
9, 119286, Note_off_c, 7, 76, 73
9, 119286, Note_off_c, 7, 72, 71
9, 119286, Note_off_c, 7, 48, 70
9, 120248, Note_on_c, 7, 74, 71
9, 120248, Note_on_c, 7, 69, 66
9, 120248, Note_on_c, 7, 77, 74
9, 120248, Note_on_c, 7, 59, 64
9, 120486, Note_off_c, 7, 74, 71
9, 120486, Note_off_c, 7, 69, 66
9, 120486, Note_off_c, 7, 77, 74
9, 120486, Note_off_c, 7, 59, 64
9, 120488, Note_on_c, 7, 76, 74
9, 120488, Note_on_c, 7, 71, 71
9, 120488, Note_on_c, 7, 68, 60
9, 120488, Note_on_c, 7, 52, 74
9, 120726, Note_off_c, 7, 76, 74
9, 120726, Note_off_c, 7, 71, 71
9, 120726, Note_off_c, 7, 68, 60
9, 120726, Note_off_c, 7, 52, 74
9, 120728, Note_on_c, 7, 68, 61
9, 120728, Note_on_c, 7, 74, 74
9, 120728, Note_on_c, 7, 71, 74
9, 120728, Note_on_c, 7, 40, 76
9, 120960, Note_off_c, 7, 68, 61
9, 120960, Note_off_c, 7, 74, 74
9, 120960, Note_off_c, 7, 71, 74
9, 120960, Note_off_c, 7, 40, 76
9, 120968, Note_on_c, 7, 72, 75
9, 120968, Note_on_c, 7, 69, 71
9, 120968, Note_on_c, 7, 45, 72
9, 120968, Note_on_c, 7, 64, 74
9, 121206, Note_off_c, 7, 72, 75
9, 121206, Note_off_c, 7, 69, 71
9, 121206, Note_off_c, 7, 45, 72
9, 121206, Note_off_c, 7, 64, 74
9, 125048, Note_on_c, 7, 65, 71
9, 125048, Note_on_c, 7, 69, 74
9, 125048, Note_on_c, 7, 50, 73
9, 125048, Note_on_c, 7, 62, 69
9, 125286, Note_off_c, 7, 65, 71
9, 125286, Note_off_c, 7, 69, 74
9, 125286, Note_off_c, 7, 50, 73
9, 125286, Note_off_c, 7, 62, 69
9, 125288, Note_on_c, 7, 62, 71
9, 125288, Note_on_c, 7, 71, 75
9, 125288, Note_on_c, 7, 65, 72
9, 125288, Note_on_c, 7, 55, 75
9, 125526, Note_off_c, 7, 62, 71
9, 125526, Note_off_c, 7, 71, 75
9, 125526, Note_off_c, 7, 65, 72
9, 125526, Note_off_c, 7, 55, 75
9, 126968, Note_on_c, 7, 62, 74
9, 126968, Note_on_c, 7, 65, 73
9, 126968, Note_on_c, 7, 57, 65
9, 126968, Note_on_c, 7, 47, 69
9, 127206, Note_off_c, 7, 62, 74
9, 127206, Note_off_c, 7, 65, 73
9, 127206, Note_off_c, 7, 57, 65
9, 127206, Note_off_c, 7, 47, 69
9, 127208, Note_on_c, 7, 56, 64
9, 127208, Note_on_c, 7, 52, 74
9, 127208, Note_on_c, 7, 62, 71
9, 127208, Note_on_c, 7, 64, 75
9, 127446, Note_off_c, 7, 56, 64
9, 127446, Note_off_c, 7, 52, 74
9, 127446, Note_off_c, 7, 62, 71
9, 127446, Note_off_c, 7, 64, 75
9, 127448, Note_on_c, 7, 68, 76
9, 127448, Note_on_c, 7, 62, 75
9, 127448, Note_on_c, 7, 59, 69
9, 127448, Note_on_c, 7, 40, 73
9, 127686, Note_off_c, 7, 68, 76
9, 127686, Note_off_c, 7, 62, 75
9, 127686, Note_off_c, 7, 59, 69
9, 127686, Note_off_c, 7, 40, 73
9, 127688, Note_on_c, 7, 64, 79
9, 127688, Note_on_c, 7, 60, 84
9, 127688, Note_on_c, 7, 69, 76
9, 127688, Note_on_c, 7, 57, 76
9, 127688, Note_on_c, 7, 45, 83
9, 127926, Note_off_c, 7, 64, 79
9, 127926, Note_off_c, 7, 60, 84
9, 127926, Note_off_c, 7, 69, 76
9, 127926, Note_off_c, 7, 57, 76
9, 127926, Note_off_c, 7, 45, 83
9, 134048, Note_on_c, 7, 60, 77
9, 134166, Note_off_c, 7, 60, 77
9, 134168, Note_on_c, 7, 57, 72
9, 134286, Note_off_c, 7, 57, 72
9, 134288, Note_on_c, 7, 60, 77
9, 134400, Note_off_c, 7, 60, 77
9, 134408, Note_on_c, 7, 62, 77
9, 134408, Note_on_c, 7, 74, 82
9, 134526, Note_off_c, 7, 74, 82
9, 134528, Note_on_c, 7, 69, 73
9, 134646, Note_off_c, 7, 62, 77
9, 134646, Note_off_c, 7, 69, 73
9, 134648, Note_on_c, 7, 57, 67
9, 134648, Note_on_c, 7, 65, 74
9, 134766, Note_off_c, 7, 65, 74
9, 134768, Note_on_c, 7, 74, 77
9, 134886, Note_off_c, 7, 57, 67
9, 134886, Note_off_c, 7, 74, 77
9, 134888, Note_on_c, 7, 53, 71
9, 134888, Note_on_c, 7, 74, 79
9, 135006, Note_off_c, 7, 74, 79
9, 135008, Note_on_c, 7, 69, 74
9, 135126, Note_off_c, 7, 53, 71
9, 135126, Note_off_c, 7, 69, 74
9, 135128, Note_on_c, 7, 50, 68
9, 135128, Note_on_c, 7, 65, 64
9, 135246, Note_off_c, 7, 65, 64
9, 135248, Note_on_c, 7, 74, 60
9, 135366, Note_off_c, 7, 50, 68
9, 135366, Note_off_c, 7, 74, 60
9, 135368, Note_on_c, 7, 59, 71
9, 135368, Note_on_c, 7, 74, 76
9, 135486, Note_off_c, 7, 59, 71
9, 135488, Note_on_c, 7, 57, 68
9, 135606, Note_off_c, 7, 74, 76
9, 135606, Note_off_c, 7, 57, 68
9, 135608, Note_on_c, 7, 59, 68
9, 135608, Note_on_c, 7, 67, 74
9, 135846, Note_off_c, 7, 59, 68
9, 135846, Note_off_c, 7, 67, 74
9, 135848, Note_on_c, 7, 71, 73
9, 136086, Note_off_c, 7, 71, 73
9, 136088, Note_on_c, 7, 60, 78
9, 136088, Note_on_c, 7, 74, 76
9, 136146, Note_off_c, 7, 60, 78
9, 136148, Note_on_c, 7, 59, 75
9, 136206, Note_off_c, 7, 59, 75
9, 136208, Note_on_c, 7, 60, 80
9, 136266, Note_off_c, 7, 60, 80
9, 136268, Note_on_c, 7, 59, 71
9, 136320, Note_off_c, 7, 74, 76
9, 136320, Note_off_c, 7, 59, 71
9, 136328, Note_on_c, 7, 60, 77
9, 136328, Note_on_c, 7, 72, 76
9, 136446, Note_off_c, 7, 72, 76
9, 136448, Note_on_c, 7, 67, 76
9, 136566, Note_off_c, 7, 60, 77
9, 136566, Note_off_c, 7, 67, 76
9, 136568, Note_on_c, 7, 55, 80
9, 136568, Note_on_c, 7, 64, 74
9, 136686, Note_off_c, 7, 64, 74
9, 136688, Note_on_c, 7, 72, 73
9, 136806, Note_off_c, 7, 55, 80
9, 136806, Note_off_c, 7, 72, 73
9, 136808, Note_on_c, 7, 52, 79
9, 136808, Note_on_c, 7, 72, 76
9, 136926, Note_off_c, 7, 72, 76
9, 136928, Note_on_c, 7, 67, 73
9, 137046, Note_off_c, 7, 52, 79
9, 137046, Note_off_c, 7, 67, 73
9, 137048, Note_on_c, 7, 48, 72
9, 137048, Note_on_c, 7, 64, 73
9, 137166, Note_off_c, 7, 64, 73
9, 137168, Note_on_c, 7, 72, 70
9, 137286, Note_off_c, 7, 48, 72
9, 137286, Note_off_c, 7, 72, 70
9, 137288, Note_on_c, 7, 57, 72
9, 137288, Note_on_c, 7, 72, 76
9, 137406, Note_off_c, 7, 57, 72
9, 137408, Note_on_c, 7, 56, 74
9, 137526, Note_off_c, 7, 72, 76
9, 137526, Note_off_c, 7, 56, 74
9, 137528, Note_on_c, 7, 57, 76
9, 137528, Note_on_c, 7, 65, 69
9, 137766, Note_off_c, 7, 57, 76
9, 137766, Note_off_c, 7, 65, 69
9, 137768, Note_on_c, 7, 69, 76
9, 138006, Note_off_c, 7, 69, 76
9, 138008, Note_on_c, 7, 59, 75
9, 138008, Note_on_c, 7, 72, 71
9, 138066, Note_off_c, 7, 59, 75
9, 138068, Note_on_c, 7, 57, 76
9, 138126, Note_off_c, 7, 57, 76
9, 138128, Note_on_c, 7, 59, 77
9, 138186, Note_off_c, 7, 59, 77
9, 138188, Note_on_c, 7, 57, 76
9, 138240, Note_off_c, 7, 72, 71
9, 138240, Note_off_c, 7, 57, 76
9, 138248, Note_on_c, 7, 59, 76
9, 138248, Note_on_c, 7, 71, 75
9, 138366, Note_off_c, 7, 71, 75
9, 138368, Note_on_c, 7, 65, 74
9, 138486, Note_off_c, 7, 59, 76
9, 138486, Note_off_c, 7, 65, 74
9, 138488, Note_on_c, 7, 53, 80
9, 138488, Note_on_c, 7, 62, 69
9, 138606, Note_off_c, 7, 62, 69
9, 138608, Note_on_c, 7, 71, 72
9, 138726, Note_off_c, 7, 53, 80
9, 138726, Note_off_c, 7, 71, 72
9, 138728, Note_on_c, 7, 50, 75
9, 138728, Note_on_c, 7, 71, 76
9, 138846, Note_off_c, 7, 71, 76
9, 138848, Note_on_c, 7, 65, 64
9, 138966, Note_off_c, 7, 50, 75
9, 138966, Note_off_c, 7, 65, 64
9, 138968, Note_on_c, 7, 47, 71
9, 138968, Note_on_c, 7, 62, 64
9, 139086, Note_off_c, 7, 62, 64
9, 139088, Note_on_c, 7, 71, 73
9, 139206, Note_off_c, 7, 47, 71
9, 139206, Note_off_c, 7, 71, 73
9, 139208, Note_on_c, 7, 56, 68
9, 139208, Note_on_c, 7, 71, 72
9, 139326, Note_off_c, 7, 56, 68
9, 139328, Note_on_c, 7, 54, 67
9, 139446, Note_off_c, 7, 71, 72
9, 139446, Note_off_c, 7, 54, 67
9, 139448, Note_on_c, 7, 56, 73
9, 139448, Note_on_c, 7, 64, 71
9, 139686, Note_off_c, 7, 56, 73
9, 139686, Note_off_c, 7, 64, 71
9, 139688, Note_on_c, 7, 68, 70
9, 139926, Note_off_c, 7, 68, 70
9, 139928, Note_on_c, 7, 57, 76
9, 139928, Note_on_c, 7, 71, 71
9, 139986, Note_off_c, 7, 57, 76
9, 139988, Note_on_c, 7, 56, 74
9, 140046, Note_off_c, 7, 56, 74
9, 140048, Note_on_c, 7, 57, 75
9, 140106, Note_off_c, 7, 57, 75
9, 140108, Note_on_c, 7, 56, 71
9, 140160, Note_off_c, 7, 71, 71
9, 140160, Note_off_c, 7, 56, 71
9, 140168, Note_on_c, 7, 52, 78
9, 140168, Note_on_c, 7, 72, 74
9, 140406, Note_off_c, 7, 52, 78
9, 140408, Note_on_c, 7, 57, 80
9, 140646, Note_off_c, 7, 72, 74
9, 140646, Note_off_c, 7, 57, 80
9, 142088, Note_on_c, 7, 38, 77
9, 142088, Note_on_c, 7, 62, 78
9, 142326, Note_off_c, 7, 38, 77
9, 142326, Note_off_c, 7, 62, 78
9, 142328, Note_on_c, 7, 50, 74
9, 142328, Note_on_c, 7, 65, 72
9, 142446, Note_off_c, 7, 65, 72
9, 142448, Note_on_c, 7, 67, 71
9, 142566, Note_off_c, 7, 50, 74
9, 142566, Note_off_c, 7, 67, 71
9, 142568, Note_on_c, 7, 53, 80
9, 142568, Note_on_c, 7, 69, 71
9, 142686, Note_off_c, 7, 69, 71
9, 142688, Note_on_c, 7, 67, 68
9, 142806, Note_off_c, 7, 53, 80
9, 142806, Note_off_c, 7, 67, 68
9, 142808, Note_on_c, 7, 50, 51
9, 142808, Note_on_c, 7, 65, 66
9, 142926, Note_off_c, 7, 65, 66
9, 142928, Note_on_c, 7, 67, 65
9, 143046, Note_off_c, 7, 50, 51
9, 143046, Note_off_c, 7, 67, 65
9, 143048, Note_on_c, 7, 38, 72
9, 143048, Note_on_c, 7, 69, 60
9, 143166, Note_off_c, 7, 69, 60
9, 143168, Note_on_c, 7, 67, 62
9, 143286, Note_off_c, 7, 38, 72
9, 143286, Note_off_c, 7, 67, 62
9, 143288, Note_on_c, 7, 50, 76
9, 143288, Note_on_c, 7, 66, 57
9, 143406, Note_off_c, 7, 66, 57
9, 143408, Note_on_c, 7, 67, 65
9, 143526, Note_off_c, 7, 50, 76
9, 143526, Note_off_c, 7, 67, 65
9, 143528, Note_on_c, 7, 54, 76
9, 143528, Note_on_c, 7, 69, 63
9, 143766, Note_off_c, 7, 54, 76
9, 143766, Note_off_c, 7, 69, 63
9, 143768, Note_on_c, 7, 50, 73
9, 143768, Note_on_c, 7, 66, 69
9, 144000, Note_off_c, 7, 50, 73
9, 144000, Note_off_c, 7, 66, 69
9, 144008, Note_on_c, 7, 55, 84
9, 144008, Note_on_c, 7, 62, 84
9, 144126, Note_off_c, 7, 62, 84
9, 144128, Note_on_c, 7, 62, 83
9, 144246, Note_off_c, 7, 55, 84
9, 144246, Note_off_c, 7, 62, 83
9, 144248, Note_on_c, 7, 43, 64
9, 144248, Note_on_c, 7, 62, 80
9, 144366, Note_off_c, 7, 62, 80
9, 144368, Note_on_c, 7, 62, 83
9, 144486, Note_off_c, 7, 43, 64
9, 144486, Note_off_c, 7, 62, 83
9, 144488, Note_on_c, 7, 43, 61
9, 144488, Note_on_c, 7, 67, 81
9, 144606, Note_off_c, 7, 67, 81
9, 144608, Note_on_c, 7, 62, 81
9, 144726, Note_off_c, 7, 43, 61
9, 144726, Note_off_c, 7, 62, 81
9, 144728, Note_on_c, 7, 43, 68
9, 144728, Note_on_c, 7, 62, 84
9, 144846, Note_off_c, 7, 62, 84
9, 144848, Note_on_c, 7, 62, 80
9, 144966, Note_off_c, 7, 43, 68
9, 144966, Note_off_c, 7, 62, 80
9, 144968, Note_on_c, 7, 47, 74
9, 144968, Note_on_c, 7, 67, 83
9, 145086, Note_off_c, 7, 67, 83
9, 145088, Note_on_c, 7, 62, 78
9, 145206, Note_off_c, 7, 47, 74
9, 145206, Note_off_c, 7, 62, 78
9, 145208, Note_on_c, 7, 43, 74
9, 145208, Note_on_c, 7, 62, 80
9, 145326, Note_off_c, 7, 62, 80
9, 145328, Note_on_c, 7, 62, 76
9, 145446, Note_off_c, 7, 43, 74
9, 145446, Note_off_c, 7, 62, 76
9, 145448, Note_on_c, 7, 43, 70
9, 145448, Note_on_c, 7, 67, 76
9, 145566, Note_off_c, 7, 67, 76
9, 145568, Note_on_c, 7, 65, 73
9, 145686, Note_off_c, 7, 43, 70
9, 145686, Note_off_c, 7, 65, 73
9, 145688, Note_on_c, 7, 43, 73
9, 145688, Note_on_c, 7, 64, 71
9, 145806, Note_off_c, 7, 64, 71
9, 145808, Note_on_c, 7, 62, 78
9, 145920, Note_off_c, 7, 43, 73
9, 145920, Note_off_c, 7, 62, 78
9, 145928, Note_on_c, 7, 48, 81
9, 145928, Note_on_c, 7, 64, 80
9, 146166, Note_off_c, 7, 48, 81
9, 146166, Note_off_c, 7, 64, 80
9, 146168, Note_on_c, 7, 48, 80
9, 146168, Note_on_c, 7, 64, 78
9, 146286, Note_off_c, 7, 48, 80
9, 146288, Note_on_c, 7, 50, 79
9, 146406, Note_off_c, 7, 64, 78
9, 146406, Note_off_c, 7, 50, 79
9, 146408, Note_on_c, 7, 52, 91
9, 146408, Note_on_c, 7, 67, 75
9, 146526, Note_off_c, 7, 52, 91
9, 146528, Note_on_c, 7, 50, 74
9, 146646, Note_off_c, 7, 67, 75
9, 146646, Note_off_c, 7, 50, 74
9, 146648, Note_on_c, 7, 48, 76
9, 146648, Note_on_c, 7, 72, 77
9, 146766, Note_off_c, 7, 48, 76
9, 146768, Note_on_c, 7, 50, 77
9, 146886, Note_off_c, 7, 72, 77
9, 146886, Note_off_c, 7, 50, 77
9, 146888, Note_on_c, 7, 52, 87
9, 146888, Note_on_c, 7, 67, 78
9, 147006, Note_off_c, 7, 52, 87
9, 147008, Note_on_c, 7, 50, 82
9, 147126, Note_off_c, 7, 67, 78
9, 147126, Note_off_c, 7, 50, 82
9, 147128, Note_on_c, 7, 48, 76
9, 147128, Note_on_c, 7, 72, 80
9, 147246, Note_off_c, 7, 48, 76
9, 147248, Note_on_c, 7, 50, 76
9, 147366, Note_off_c, 7, 72, 80
9, 147366, Note_off_c, 7, 50, 76
9, 147368, Note_on_c, 7, 52, 78
9, 147368, Note_on_c, 7, 67, 80
9, 147606, Note_off_c, 7, 52, 78
9, 147606, Note_off_c, 7, 67, 80
9, 147608, Note_on_c, 7, 48, 80
9, 147608, Note_on_c, 7, 64, 83
9, 147840, Note_off_c, 7, 48, 80
9, 147840, Note_off_c, 7, 64, 83
9, 147848, Note_on_c, 7, 53, 88
9, 147848, Note_on_c, 7, 60, 79
9, 148086, Note_off_c, 7, 53, 88
9, 148086, Note_off_c, 7, 60, 79
9, 159368, Note_on_c, 7, 57, 82
9, 159486, Note_off_c, 7, 57, 82
9, 159488, Note_on_c, 7, 59, 80
9, 159606, Note_off_c, 7, 59, 80
9, 159608, Note_on_c, 7, 69, 78
9, 159608, Note_on_c, 7, 60, 89
9, 159726, Note_off_c, 7, 69, 78
9, 159728, Note_on_c, 7, 72, 84
9, 159846, Note_off_c, 7, 60, 89
9, 159846, Note_off_c, 7, 72, 84
9, 159848, Note_on_c, 7, 76, 71
9, 160086, Note_off_c, 7, 76, 71
9, 160088, Note_on_c, 7, 81, 77
9, 160088, Note_on_c, 7, 60, 82
9, 160326, Note_off_c, 7, 81, 77
9, 160326, Note_off_c, 7, 60, 82
9, 160328, Note_on_c, 7, 62, 82
9, 160566, Note_off_c, 7, 62, 82
9, 160568, Note_on_c, 7, 69, 71
9, 160568, Note_on_c, 7, 60, 82
9, 160686, Note_off_c, 7, 69, 71
9, 160688, Note_on_c, 7, 72, 80
9, 160806, Note_off_c, 7, 60, 82
9, 160806, Note_off_c, 7, 72, 80
9, 160808, Note_on_c, 7, 76, 81
9, 161046, Note_off_c, 7, 76, 81
9, 161048, Note_on_c, 7, 79, 84
9, 161048, Note_on_c, 7, 60, 81
9, 161280, Note_off_c, 7, 79, 84
9, 161280, Note_off_c, 7, 60, 81
9, 161288, Note_on_c, 7, 62, 83
9, 161526, Note_off_c, 7, 62, 83
9, 161528, Note_on_c, 7, 67, 76
9, 161528, Note_on_c, 7, 60, 80
9, 161646, Note_off_c, 7, 67, 76
9, 161648, Note_on_c, 7, 71, 76
9, 161766, Note_off_c, 7, 60, 80
9, 161766, Note_off_c, 7, 71, 76
9, 161768, Note_on_c, 7, 74, 82
9, 162006, Note_off_c, 7, 74, 82
9, 162008, Note_on_c, 7, 79, 83
9, 162008, Note_on_c, 7, 60, 84
9, 162246, Note_off_c, 7, 79, 83
9, 162246, Note_off_c, 7, 60, 84
9, 162248, Note_on_c, 7, 62, 80
9, 162486, Note_off_c, 7, 62, 80
9, 162488, Note_on_c, 7, 67, 77
9, 162488, Note_on_c, 7, 60, 78
9, 162606, Note_off_c, 7, 67, 77
9, 162608, Note_on_c, 7, 71, 77
9, 162726, Note_off_c, 7, 60, 78
9, 162726, Note_off_c, 7, 71, 77
9, 162728, Note_on_c, 7, 74, 83
9, 162966, Note_off_c, 7, 74, 83
9, 162968, Note_on_c, 7, 77, 86
9, 162968, Note_on_c, 7, 58, 77
9, 163200, Note_off_c, 7, 77, 86
9, 163200, Note_off_c, 7, 58, 77
9, 163208, Note_on_c, 7, 58, 79
9, 163446, Note_off_c, 7, 58, 79
9, 163448, Note_on_c, 7, 65, 80
9, 163448, Note_on_c, 7, 57, 80
9, 163566, Note_off_c, 7, 65, 80
9, 163568, Note_on_c, 7, 69, 77
9, 163686, Note_off_c, 7, 57, 80
9, 163686, Note_off_c, 7, 69, 77
9, 163688, Note_on_c, 7, 72, 80
9, 163926, Note_off_c, 7, 72, 80
9, 163928, Note_on_c, 7, 77, 80
9, 163928, Note_on_c, 7, 57, 76
9, 164166, Note_off_c, 7, 77, 80
9, 164166, Note_off_c, 7, 57, 76
9, 164168, Note_on_c, 7, 58, 77
9, 164406, Note_off_c, 7, 58, 77
9, 164408, Note_on_c, 7, 65, 76
9, 164408, Note_on_c, 7, 57, 80
9, 164526, Note_off_c, 7, 65, 76
9, 164528, Note_on_c, 7, 69, 78
9, 164646, Note_off_c, 7, 57, 80
9, 164646, Note_off_c, 7, 69, 78
9, 164648, Note_on_c, 7, 72, 77
9, 164886, Note_off_c, 7, 72, 77
9, 164888, Note_on_c, 7, 76, 81
9, 164888, Note_on_c, 7, 57, 78
9, 165120, Note_off_c, 7, 76, 81
9, 165120, Note_off_c, 7, 57, 78
9, 165128, Note_on_c, 7, 57, 80
9, 165366, Note_off_c, 7, 57, 80
9, 165368, Note_on_c, 7, 64, 76
9, 165368, Note_on_c, 7, 56, 80
9, 165486, Note_off_c, 7, 64, 76
9, 165488, Note_on_c, 7, 68, 75
9, 165606, Note_off_c, 7, 56, 80
9, 165606, Note_off_c, 7, 68, 75
9, 165608, Note_on_c, 7, 71, 72
9, 165846, Note_off_c, 7, 71, 72
9, 165848, Note_on_c, 7, 76, 84
9, 165848, Note_on_c, 7, 56, 80
9, 166086, Note_off_c, 7, 76, 84
9, 166086, Note_off_c, 7, 56, 80
9, 166088, Note_on_c, 7, 57, 81
9, 166326, Note_off_c, 7, 57, 81
9, 166328, Note_on_c, 7, 64, 76
9, 166328, Note_on_c, 7, 56, 80
9, 166446, Note_off_c, 7, 64, 76
9, 166448, Note_on_c, 7, 68, 76
9, 166566, Note_off_c, 7, 56, 80
9, 166566, Note_off_c, 7, 68, 76
9, 166568, Note_on_c, 7, 71, 82
9, 166806, Note_off_c, 7, 71, 82
9, 166808, Note_on_c, 7, 74, 91
9, 166808, Note_on_c, 7, 56, 90
9, 167040, Note_off_c, 7, 74, 91
9, 167040, Note_off_c, 7, 56, 90
9, 177608, Note_on_c, 7, 60, 76
9, 177608, Note_on_c, 7, 57, 69
9, 177728, Note_on_c, 7, 69, 80
9, 177846, Note_off_c, 7, 60, 76
9, 177846, Note_off_c, 7, 57, 69
9, 177846, Note_off_c, 7, 69, 80
9, 177848, Note_on_c, 7, 60, 77
9, 177848, Note_on_c, 7, 57, 68
9, 177848, Note_on_c, 7, 71, 81
9, 177966, Note_off_c, 7, 71, 81
9, 177968, Note_on_c, 7, 72, 77
9, 178086, Note_off_c, 7, 60, 77
9, 178086, Note_off_c, 7, 57, 68
9, 178086, Note_off_c, 7, 72, 77
9, 178088, Note_on_c, 7, 60, 75
9, 178088, Note_on_c, 7, 57, 60
9, 178088, Note_on_c, 7, 71, 77
9, 178206, Note_off_c, 7, 71, 77
9, 178208, Note_on_c, 7, 69, 72
9, 178326, Note_off_c, 7, 60, 75
9, 178326, Note_off_c, 7, 57, 60
9, 178326, Note_off_c, 7, 69, 72
9, 178328, Note_on_c, 7, 60, 80
9, 178328, Note_on_c, 7, 57, 70
9, 178328, Note_on_c, 7, 68, 73
9, 178446, Note_off_c, 7, 68, 73
9, 178448, Note_on_c, 7, 69, 76
9, 178560, Note_off_c, 7, 60, 80
9, 178560, Note_off_c, 7, 57, 70
9, 178560, Note_off_c, 7, 69, 76
9, 178568, Note_on_c, 7, 62, 71
9, 178568, Note_on_c, 7, 59, 69
9, 178688, Note_on_c, 7, 69, 74
9, 178806, Note_off_c, 7, 62, 71
9, 178806, Note_off_c, 7, 59, 69
9, 178806, Note_off_c, 7, 69, 74
9, 178808, Note_on_c, 7, 62, 78
9, 178808, Note_on_c, 7, 59, 65
9, 178808, Note_on_c, 7, 71, 73
9, 178926, Note_off_c, 7, 71, 73
9, 178928, Note_on_c, 7, 72, 71
9, 179046, Note_off_c, 7, 62, 78
9, 179046, Note_off_c, 7, 59, 65
9, 179046, Note_off_c, 7, 72, 71
9, 179048, Note_on_c, 7, 62, 80
9, 179048, Note_on_c, 7, 59, 68
9, 179048, Note_on_c, 7, 71, 74
9, 179166, Note_off_c, 7, 71, 74
9, 179168, Note_on_c, 7, 69, 71
9, 179286, Note_off_c, 7, 62, 80
9, 179286, Note_off_c, 7, 59, 68
9, 179286, Note_off_c, 7, 69, 71
9, 179288, Note_on_c, 7, 62, 79
9, 179288, Note_on_c, 7, 59, 68
9, 179288, Note_on_c, 7, 68, 64
9, 179406, Note_off_c, 7, 68, 64
9, 179408, Note_on_c, 7, 69, 69
9, 179526, Note_off_c, 7, 62, 79
9, 179526, Note_off_c, 7, 59, 68
9, 179526, Note_off_c, 7, 69, 69
9, 179528, Note_on_c, 7, 64, 72
9, 179528, Note_on_c, 7, 60, 74
9, 179648, Note_on_c, 7, 69, 77
9, 179766, Note_off_c, 7, 64, 72
9, 179766, Note_off_c, 7, 60, 74
9, 179766, Note_off_c, 7, 69, 77
9, 179768, Note_on_c, 7, 64, 83
9, 179768, Note_on_c, 7, 60, 76
9, 179768, Note_on_c, 7, 71, 74
9, 179886, Note_off_c, 7, 71, 74
9, 179888, Note_on_c, 7, 72, 73
9, 180006, Note_off_c, 7, 64, 83
9, 180006, Note_off_c, 7, 60, 76
9, 180006, Note_off_c, 7, 72, 73
9, 180008, Note_on_c, 7, 64, 87
9, 180008, Note_on_c, 7, 60, 80
9, 180008, Note_on_c, 7, 71, 76
9, 180126, Note_off_c, 7, 71, 76
9, 180128, Note_on_c, 7, 69, 74
9, 180246, Note_off_c, 7, 64, 87
9, 180246, Note_off_c, 7, 60, 80
9, 180246, Note_off_c, 7, 69, 74
9, 180248, Note_on_c, 7, 64, 80
9, 180248, Note_on_c, 7, 60, 78
9, 180248, Note_on_c, 7, 68, 67
9, 180366, Note_off_c, 7, 68, 67
9, 180368, Note_on_c, 7, 69, 68
9, 180480, Note_off_c, 7, 64, 80
9, 180480, Note_off_c, 7, 60, 78
9, 180480, Note_off_c, 7, 69, 68
9, 180488, Note_on_c, 7, 65, 81
9, 180488, Note_on_c, 7, 62, 81
9, 180608, Note_on_c, 7, 69, 71
9, 180726, Note_off_c, 7, 65, 81
9, 180726, Note_off_c, 7, 62, 81
9, 180726, Note_off_c, 7, 69, 71
9, 180728, Note_on_c, 7, 65, 82
9, 180728, Note_on_c, 7, 62, 81
9, 180728, Note_on_c, 7, 71, 73
9, 180846, Note_off_c, 7, 71, 73
9, 180848, Note_on_c, 7, 72, 68
9, 180966, Note_off_c, 7, 65, 82
9, 180966, Note_off_c, 7, 62, 81
9, 180966, Note_off_c, 7, 72, 68
9, 180968, Note_on_c, 7, 65, 84
9, 180968, Note_on_c, 7, 62, 83
9, 180968, Note_on_c, 7, 71, 69
9, 181086, Note_off_c, 7, 71, 69
9, 181088, Note_on_c, 7, 69, 71
9, 181206, Note_off_c, 7, 65, 84
9, 181206, Note_off_c, 7, 62, 83
9, 181206, Note_off_c, 7, 69, 71
9, 181208, Note_on_c, 7, 65, 86
9, 181208, Note_on_c, 7, 62, 85
9, 181208, Note_on_c, 7, 68, 72
9, 181326, Note_off_c, 7, 68, 72
9, 181328, Note_on_c, 7, 69, 76
9, 181446, Note_off_c, 7, 65, 86
9, 181446, Note_off_c, 7, 62, 85
9, 181446, Note_off_c, 7, 69, 76
9, 181448, Note_on_c, 7, 57, 81
9, 181448, Note_on_c, 7, 76, 71
9, 181566, Note_off_c, 7, 57, 81
9, 181566, Note_off_c, 7, 76, 71
9, 181568, Note_on_c, 7, 60, 83
9, 181568, Note_on_c, 7, 81, 74
9, 181686, Note_off_c, 7, 60, 83
9, 181686, Note_off_c, 7, 81, 74
9, 181688, Note_on_c, 7, 57, 81
9, 181688, Note_on_c, 7, 84, 81
9, 181806, Note_off_c, 7, 57, 81
9, 181808, Note_on_c, 7, 60, 80
9, 181926, Note_off_c, 7, 60, 80
9, 181928, Note_on_c, 7, 57, 75
9, 182046, Note_off_c, 7, 57, 75
9, 182046, Note_off_c, 7, 84, 81
9, 182048, Note_on_c, 7, 60, 77
9, 182048, Note_on_c, 7, 81, 80
9, 182166, Note_off_c, 7, 60, 77
9, 182166, Note_off_c, 7, 81, 80
9, 182168, Note_on_c, 7, 57, 75
9, 182168, Note_on_c, 7, 77, 80
9, 182286, Note_off_c, 7, 57, 75
9, 182286, Note_off_c, 7, 77, 80
9, 182288, Note_on_c, 7, 60, 79
9, 182288, Note_on_c, 7, 76, 75
9, 182400, Note_off_c, 7, 60, 79
9, 182400, Note_off_c, 7, 76, 75
9, 182408, Note_on_c, 7, 59, 79
9, 182408, Note_on_c, 7, 74, 79
9, 182526, Note_off_c, 7, 59, 79
9, 182526, Note_off_c, 7, 74, 79
9, 182528, Note_on_c, 7, 62, 80
9, 182528, Note_on_c, 7, 80, 76
9, 182646, Note_off_c, 7, 62, 80
9, 182646, Note_off_c, 7, 80, 76
9, 182648, Note_on_c, 7, 59, 75
9, 182648, Note_on_c, 7, 83, 83
9, 182766, Note_off_c, 7, 59, 75
9, 182768, Note_on_c, 7, 62, 82
9, 182886, Note_off_c, 7, 62, 82
9, 182888, Note_on_c, 7, 59, 75
9, 183006, Note_off_c, 7, 59, 75
9, 183006, Note_off_c, 7, 83, 83
9, 183008, Note_on_c, 7, 62, 77
9, 183008, Note_on_c, 7, 80, 74
9, 183126, Note_off_c, 7, 62, 77
9, 183126, Note_off_c, 7, 80, 74
9, 183128, Note_on_c, 7, 59, 70
9, 183128, Note_on_c, 7, 76, 78
9, 183246, Note_off_c, 7, 59, 70
9, 183246, Note_off_c, 7, 76, 78
9, 183248, Note_on_c, 7, 62, 81
9, 183248, Note_on_c, 7, 74, 74
9, 183366, Note_off_c, 7, 62, 81
9, 183366, Note_off_c, 7, 74, 74
9, 183368, Note_on_c, 7, 60, 71
9, 183368, Note_on_c, 7, 76, 75
9, 183486, Note_off_c, 7, 60, 71
9, 183486, Note_off_c, 7, 76, 75
9, 183488, Note_on_c, 7, 64, 76
9, 183488, Note_on_c, 7, 72, 73
9, 183606, Note_off_c, 7, 64, 76
9, 183606, Note_off_c, 7, 72, 73
9, 183608, Note_on_c, 7, 60, 72
9, 183608, Note_on_c, 7, 81, 81
9, 183726, Note_off_c, 7, 60, 72
9, 183728, Note_on_c, 7, 64, 78
9, 183846, Note_off_c, 7, 64, 78
9, 183848, Note_on_c, 7, 60, 79
9, 183966, Note_off_c, 7, 60, 79
9, 183966, Note_off_c, 7, 81, 81
9, 183968, Note_on_c, 7, 64, 79
9, 183968, Note_on_c, 7, 76, 78
9, 184086, Note_off_c, 7, 64, 79
9, 184086, Note_off_c, 7, 76, 78
9, 184088, Note_on_c, 7, 60, 71
9, 184088, Note_on_c, 7, 74, 78
9, 184206, Note_off_c, 7, 60, 71
9, 184206, Note_off_c, 7, 74, 78
9, 184208, Note_on_c, 7, 64, 76
9, 184208, Note_on_c, 7, 72, 68
9, 184320, Note_off_c, 7, 64, 76
9, 184320, Note_off_c, 7, 72, 68
9, 184328, Note_on_c, 7, 62, 69
9, 184328, Note_on_c, 7, 71, 75
9, 184446, Note_off_c, 7, 62, 69
9, 184446, Note_off_c, 7, 71, 75
9, 184448, Note_on_c, 7, 65, 73
9, 184448, Note_on_c, 7, 69, 70
9, 184566, Note_off_c, 7, 65, 73
9, 184566, Note_off_c, 7, 69, 70
9, 184568, Note_on_c, 7, 62, 76
9, 184568, Note_on_c, 7, 68, 69
9, 184686, Note_off_c, 7, 62, 76
9, 184686, Note_off_c, 7, 68, 69
9, 184688, Note_on_c, 7, 65, 75
9, 184688, Note_on_c, 7, 69, 74
9, 184806, Note_off_c, 7, 65, 75
9, 184806, Note_off_c, 7, 69, 74
9, 184808, Note_on_c, 7, 62, 76
9, 184808, Note_on_c, 7, 71, 74
9, 184926, Note_off_c, 7, 62, 76
9, 184926, Note_off_c, 7, 71, 74
9, 184928, Note_on_c, 7, 65, 74
9, 184928, Note_on_c, 7, 74, 75
9, 185046, Note_off_c, 7, 65, 74
9, 185046, Note_off_c, 7, 74, 75
9, 185048, Note_on_c, 7, 62, 68
9, 185048, Note_on_c, 7, 72, 72
9, 185166, Note_off_c, 7, 62, 68
9, 185166, Note_off_c, 7, 72, 72
9, 185168, Note_on_c, 7, 65, 68
9, 185168, Note_on_c, 7, 71, 71
9, 185286, Note_off_c, 7, 65, 68
9, 185286, Note_off_c, 7, 71, 71
9, 185288, Note_on_c, 7, 57, 82
9, 185288, Note_on_c, 7, 72, 81
9, 185406, Note_off_c, 7, 57, 82
9, 185406, Note_off_c, 7, 72, 81
9, 185408, Note_on_c, 7, 60, 79
9, 185408, Note_on_c, 7, 69, 77
9, 185526, Note_off_c, 7, 60, 79
9, 185526, Note_off_c, 7, 69, 77
9, 185528, Note_on_c, 7, 57, 75
9, 185528, Note_on_c, 7, 64, 76
9, 185646, Note_off_c, 7, 57, 75
9, 185646, Note_off_c, 7, 64, 76
9, 185648, Note_on_c, 7, 60, 70
9, 185648, Note_on_c, 7, 69, 76
9, 185766, Note_off_c, 7, 60, 70
9, 185766, Note_off_c, 7, 69, 76
9, 185768, Note_on_c, 7, 57, 70
9, 185768, Note_on_c, 7, 72, 76
9, 185886, Note_off_c, 7, 57, 70
9, 185886, Note_off_c, 7, 72, 76
9, 185888, Note_on_c, 7, 60, 71
9, 185888, Note_on_c, 7, 69, 71
9, 186006, Note_off_c, 7, 60, 71
9, 186006, Note_off_c, 7, 69, 71
9, 186008, Note_on_c, 7, 57, 71
9, 186008, Note_on_c, 7, 64, 68
9, 186126, Note_off_c, 7, 57, 71
9, 186126, Note_off_c, 7, 64, 68
9, 186128, Note_on_c, 7, 60, 77
9, 186128, Note_on_c, 7, 69, 68
9, 186240, Note_off_c, 7, 60, 77
9, 186240, Note_off_c, 7, 69, 68
9, 186248, Note_on_c, 7, 51, 76
9, 186248, Note_on_c, 7, 71, 74
9, 186366, Note_off_c, 7, 71, 74
9, 186368, Note_on_c, 7, 69, 73
9, 186486, Note_off_c, 7, 51, 76
9, 186486, Note_off_c, 7, 69, 73
9, 186488, Note_on_c, 7, 59, 85
9, 186488, Note_on_c, 7, 66, 71
9, 186606, Note_off_c, 7, 66, 71
9, 186608, Note_on_c, 7, 69, 69
9, 186726, Note_off_c, 7, 59, 85
9, 186726, Note_off_c, 7, 69, 69
9, 186728, Note_on_c, 7, 51, 69
9, 186728, Note_on_c, 7, 71, 66
9, 186846, Note_off_c, 7, 71, 66
9, 186848, Note_on_c, 7, 69, 69
9, 186966, Note_off_c, 7, 51, 69
9, 186966, Note_off_c, 7, 69, 69
9, 186968, Note_on_c, 7, 59, 77
9, 186968, Note_on_c, 7, 66, 69
9, 187086, Note_off_c, 7, 66, 69
9, 187088, Note_on_c, 7, 69, 66
9, 187206, Note_off_c, 7, 59, 77
9, 187206, Note_off_c, 7, 69, 66
9, 187208, Note_on_c, 7, 52, 74
9, 187208, Note_on_c, 7, 71, 69
9, 187326, Note_off_c, 7, 71, 69
9, 187328, Note_on_c, 7, 68, 74
9, 187446, Note_off_c, 7, 52, 74
9, 187446, Note_off_c, 7, 68, 74
9, 187448, Note_on_c, 7, 62, 86
9, 187448, Note_on_c, 7, 64, 72
9, 187566, Note_off_c, 7, 64, 72
9, 187568, Note_on_c, 7, 68, 74
9, 187686, Note_off_c, 7, 62, 86
9, 187686, Note_off_c, 7, 68, 74
9, 187688, Note_on_c, 7, 52, 81
9, 187688, Note_on_c, 7, 71, 74
9, 187806, Note_off_c, 7, 71, 74
9, 187808, Note_on_c, 7, 68, 71
9, 187926, Note_off_c, 7, 52, 81
9, 187926, Note_off_c, 7, 68, 71
9, 187928, Note_on_c, 7, 62, 91
9, 187928, Note_on_c, 7, 64, 73
9, 188046, Note_off_c, 7, 64, 73
9, 188048, Note_on_c, 7, 68, 80
9, 188160, Note_off_c, 7, 62, 91
9, 188160, Note_off_c, 7, 68, 80
9, 188168, Note_on_c, 7, 60, 93
9, 188168, Note_on_c, 7, 57, 86
9, 188168, Note_on_c, 7, 69, 88
9, 188168, Note_on_c, 7, 72, 86
9, 188168, Note_on_c, 7, 64, 91
9, 188646, Note_off_c, 7, 60, 93
9, 188646, Note_off_c, 7, 57, 86
9, 188646, Note_off_c, 7, 69, 88
9, 188646, Note_off_c, 7, 72, 86
9, 188646, Note_off_c, 7, 64, 91
9, 188888, Note_on_c, 7, 69, 79
9, 189126, Note_off_c, 7, 69, 79
9, 189128, Note_on_c, 7, 76, 83
9, 189246, Note_off_c, 7, 76, 83
9, 189248, Note_on_c, 7, 74, 76
9, 189366, Note_off_c, 7, 74, 76
9, 189368, Note_on_c, 7, 60, 85
9, 189368, Note_on_c, 7, 76, 91
9, 189606, Note_off_c, 7, 60, 85
9, 189606, Note_off_c, 7, 76, 91
9, 189608, Note_on_c, 7, 59, 79
9, 189728, Note_on_c, 7, 68, 76
9, 189846, Note_off_c, 7, 59, 79
9, 189846, Note_off_c, 7, 68, 76
9, 189848, Note_on_c, 7, 56, 76
9, 189848, Note_on_c, 7, 71, 74
9, 189966, Note_off_c, 7, 71, 74
9, 189968, Note_on_c, 7, 76, 74
9, 190080, Note_off_c, 7, 56, 76
9, 190080, Note_off_c, 7, 76, 74
9, 190088, Note_on_c, 7, 76, 76
9, 190206, Note_off_c, 7, 76, 76
9, 190208, Note_on_c, 7, 74, 75
9, 190326, Note_off_c, 7, 74, 75
9, 190328, Note_on_c, 7, 60, 81
9, 190328, Note_on_c, 7, 76, 77
9, 190566, Note_off_c, 7, 60, 81
9, 190566, Note_off_c, 7, 76, 77
9, 190568, Note_on_c, 7, 59, 80
9, 190688, Note_on_c, 7, 68, 74
9, 190806, Note_off_c, 7, 59, 80
9, 190806, Note_off_c, 7, 68, 74
9, 190808, Note_on_c, 7, 56, 75
9, 190808, Note_on_c, 7, 71, 75
9, 190926, Note_off_c, 7, 71, 75
9, 190928, Note_on_c, 7, 76, 78
9, 191046, Note_off_c, 7, 56, 75
9, 191046, Note_off_c, 7, 76, 78
9, 191048, Note_on_c, 7, 76, 80
9, 191166, Note_off_c, 7, 76, 80
9, 191168, Note_on_c, 7, 74, 77
9, 191286, Note_off_c, 7, 74, 77
9, 191288, Note_on_c, 7, 60, 74
9, 191288, Note_on_c, 7, 76, 73
9, 191526, Note_off_c, 7, 60, 74
9, 191526, Note_off_c, 7, 76, 73
9, 191528, Note_on_c, 7, 59, 68
9, 191648, Note_on_c, 7, 68, 71
9, 191766, Note_off_c, 7, 59, 68
9, 191766, Note_off_c, 7, 68, 71
9, 191768, Note_on_c, 7, 56, 71
9, 191768, Note_on_c, 7, 71, 72
9, 191886, Note_off_c, 7, 71, 72
9, 191888, Note_on_c, 7, 76, 78
9, 192000, Note_off_c, 7, 56, 71
9, 192000, Note_off_c, 7, 76, 78
9, 192008, Note_on_c, 7, 45, 81
9, 192008, Note_on_c, 7, 76, 80
9, 192126, Note_off_c, 7, 76, 80
9, 192128, Note_on_c, 7, 76, 82
9, 192246, Note_off_c, 7, 76, 82
9, 192248, Note_on_c, 7, 76, 82
9, 192366, Note_off_c, 7, 76, 82
9, 192368, Note_on_c, 7, 76, 81
9, 192486, Note_off_c, 7, 45, 81
9, 192486, Note_off_c, 7, 76, 81
9, 192488, Note_on_c, 7, 81, 87
9, 192606, Note_off_c, 7, 81, 87
9, 192608, Note_on_c, 7, 76, 80
9, 192726, Note_off_c, 7, 76, 80
9, 192728, Note_on_c, 7, 57, 86
9, 192728, Note_on_c, 7, 76, 76
9, 192846, Note_off_c, 7, 76, 76
9, 192848, Note_on_c, 7, 76, 74
9, 192966, Note_off_c, 7, 57, 86
9, 192966, Note_off_c, 7, 76, 74
9, 192968, Note_on_c, 7, 45, 84
9, 192968, Note_on_c, 7, 81, 85
9, 193086, Note_off_c, 7, 81, 85
9, 193088, Note_on_c, 7, 76, 74
9, 193206, Note_off_c, 7, 76, 74
9, 193208, Note_on_c, 7, 76, 69
9, 193326, Note_off_c, 7, 76, 69
9, 193328, Note_on_c, 7, 76, 73
9, 193446, Note_off_c, 7, 45, 84
9, 193446, Note_off_c, 7, 76, 73
9, 193448, Note_on_c, 7, 81, 85
9, 193566, Note_off_c, 7, 81, 85
9, 193568, Note_on_c, 7, 76, 74
9, 193686, Note_off_c, 7, 76, 74
9, 193688, Note_on_c, 7, 57, 87
9, 193688, Note_on_c, 7, 76, 71
9, 193806, Note_off_c, 7, 76, 71
9, 193808, Note_on_c, 7, 76, 78
9, 193920, Note_off_c, 7, 57, 87
9, 193920, Note_off_c, 7, 76, 78
9, 193928, Note_on_c, 7, 45, 81
9, 193928, Note_on_c, 7, 81, 90
9, 194166, Note_off_c, 7, 45, 81
9, 194166, Note_off_c, 7, 81, 90
9, 194168, Note_on_c, 7, 60, 82
9, 194168, Note_on_c, 7, 57, 80
9, 194168, Note_on_c, 7, 79, 83
9, 194286, Note_off_c, 7, 79, 83
9, 194288, Note_on_c, 7, 77, 80
9, 194406, Note_off_c, 7, 60, 82
9, 194406, Note_off_c, 7, 57, 80
9, 194406, Note_off_c, 7, 77, 80
9, 194408, Note_on_c, 7, 56, 74
9, 194408, Note_on_c, 7, 59, 78
9, 194408, Note_on_c, 7, 76, 83
9, 194646, Note_off_c, 7, 56, 74
9, 194646, Note_off_c, 7, 59, 78
9, 194646, Note_off_c, 7, 76, 83
9, 194648, Note_on_c, 7, 56, 76
9, 194648, Note_on_c, 7, 52, 77
9, 194648, Note_on_c, 7, 74, 84
9, 194886, Note_off_c, 7, 56, 76
9, 194886, Note_off_c, 7, 52, 77
9, 194886, Note_off_c, 7, 74, 84
9, 194888, Note_on_c, 7, 57, 84
9, 194888, Note_on_c, 7, 72, 84
9, 195126, Note_off_c, 7, 57, 84
9, 195126, Note_off_c, 7, 72, 84
9, 195128, Note_on_c, 7, 65, 92
9, 195128, Note_on_c, 7, 50, 89
9, 195128, Note_on_c, 7, 69, 83
9, 195366, Note_off_c, 7, 65, 92
9, 195366, Note_off_c, 7, 50, 89
9, 195368, Note_on_c, 7, 59, 84
9, 195368, Note_on_c, 7, 52, 88
9, 195606, Note_off_c, 7, 69, 83
9, 195606, Note_off_c, 7, 52, 88
9, 195608, Note_on_c, 7, 40, 83
9, 195608, Note_on_c, 7, 68, 81
9, 195840, Note_off_c, 7, 59, 84
9, 195840, Note_off_c, 7, 40, 83
9, 195840, Note_off_c, 7, 68, 81
9, 195848, Note_on_c, 7, 69, 84
9, 195848, Note_on_c, 7, 45, 76
9, 195966, Note_off_c, 7, 69, 84
9, 195968, Note_on_c, 7, 57, 81
9, 196086, Note_off_c, 7, 45, 76
9, 196086, Note_off_c, 7, 57, 81
9, 196088, Note_on_c, 7, 56, 76
9, 196088, Note_on_c, 7, 52, 71
9, 196206, Note_off_c, 7, 56, 76
9, 196208, Note_on_c, 7, 57, 80
9, 196326, Note_off_c, 7, 52, 71
9, 196326, Note_off_c, 7, 57, 80
9, 196328, Note_on_c, 7, 60, 88
9, 196328, Note_on_c, 7, 48, 79
9, 196446, Note_off_c, 7, 60, 88
9, 196448, Note_on_c, 7, 57, 77
9, 196566, Note_off_c, 7, 48, 79
9, 196566, Note_off_c, 7, 57, 77
9, 196568, Note_on_c, 7, 56, 74
9, 196568, Note_on_c, 7, 45, 74
9, 196686, Note_off_c, 7, 56, 74
9, 196688, Note_on_c, 7, 57, 78
9, 196806, Note_off_c, 7, 45, 74
9, 196806, Note_off_c, 7, 57, 78
9, 196808, Note_on_c, 7, 60, 86
9, 196926, Note_off_c, 7, 60, 86
9, 196928, Note_on_c, 7, 57, 76
9, 197046, Note_off_c, 7, 57, 76
9, 197048, Note_on_c, 7, 56, 66
9, 197048, Note_on_c, 7, 52, 75
9, 197166, Note_off_c, 7, 56, 66
9, 197168, Note_on_c, 7, 57, 74
9, 197286, Note_off_c, 7, 52, 75
9, 197286, Note_off_c, 7, 57, 74
9, 197288, Note_on_c, 7, 60, 85
9, 197288, Note_on_c, 7, 48, 69
9, 197406, Note_off_c, 7, 60, 85
9, 197408, Note_on_c, 7, 57, 74
9, 197526, Note_off_c, 7, 48, 69
9, 197526, Note_off_c, 7, 57, 74
9, 197528, Note_on_c, 7, 56, 71
9, 197528, Note_on_c, 7, 45, 76
9, 197646, Note_off_c, 7, 56, 71
9, 197648, Note_on_c, 7, 57, 76
9, 197760, Note_off_c, 7, 45, 76
9, 197760, Note_off_c, 7, 57, 76
9, 197768, Note_on_c, 7, 69, 80
9, 198006, Note_off_c, 7, 69, 80
9, 198008, Note_on_c, 7, 67, 79
9, 198008, Note_on_c, 7, 57, 74
9, 198126, Note_off_c, 7, 67, 79
9, 198128, Note_on_c, 7, 65, 74
9, 198246, Note_off_c, 7, 57, 74
9, 198246, Note_off_c, 7, 65, 74
9, 198248, Note_on_c, 7, 64, 87
9, 198248, Note_on_c, 7, 56, 72
9, 198486, Note_off_c, 7, 64, 87
9, 198486, Note_off_c, 7, 56, 72
9, 198488, Note_on_c, 7, 62, 81
9, 198488, Note_on_c, 7, 52, 79
9, 198726, Note_off_c, 7, 62, 81
9, 198726, Note_off_c, 7, 52, 79
9, 198728, Note_on_c, 7, 60, 80
9, 198728, Note_on_c, 7, 57, 81
9, 198966, Note_off_c, 7, 60, 80
9, 198966, Note_off_c, 7, 57, 81
9, 198968, Note_on_c, 7, 57, 78
9, 198968, Note_on_c, 7, 50, 75
9, 199206, Note_off_c, 7, 50, 75
9, 199208, Note_on_c, 7, 52, 85
9, 199446, Note_off_c, 7, 57, 78
9, 199446, Note_off_c, 7, 52, 85
9, 199448, Note_on_c, 7, 56, 83
9, 199448, Note_on_c, 7, 40, 80
9, 199680, Note_off_c, 7, 56, 83
9, 199680, Note_off_c, 7, 40, 80
9, 199808, Note_on_c, 7, 45, 94
9, 199808, Note_on_c, 7, 57, 94
9, 201600, Note_off_c, 7, 45, 94
9, 201600, Note_off_c, 7, 57, 94
9, 201600, End_track
0, 0, End_of_file
